<svg width="1300" height="544" viewBox="0 0 1300 544" fill="none" xmlns="http://www.w3.org/2000/svg">
<rect width="1300" height="544" rx="24" fill="#262626"/>
<mask id="mask0_1022_17131" style="mask-type:alpha" maskUnits="userSpaceOnUse" x="128" y="60" width="124" height="124">
<path fill-rule="evenodd" clip-rule="evenodd" d="M190 184C224.242 184 252 156.242 252 122C252 87.7583 224.242 60 190 60C155.758 60 128 87.7583 128 122C128 156.242 155.758 184 190 184Z" fill="#262626"/>
</mask>
<g mask="url(#mask0_1022_17131)">
<rect width="124" height="124" transform="translate(128 60)" fill="#545454"/>
<path d="M183.32 115.551C183.169 114.206 182.544 113.165 181.445 112.426C180.347 111.678 178.964 111.304 177.298 111.304C176.104 111.304 175.072 111.493 174.201 111.872C173.33 112.241 172.653 112.753 172.17 113.406C171.696 114.05 171.46 114.784 171.46 115.608C171.46 116.299 171.621 116.896 171.942 117.398C172.274 117.9 172.705 118.321 173.235 118.662C173.775 118.993 174.353 119.273 174.968 119.5C175.584 119.718 176.175 119.898 176.744 120.04L179.585 120.778C180.513 121.006 181.464 121.313 182.44 121.702C183.415 122.09 184.319 122.601 185.153 123.236C185.986 123.87 186.658 124.656 187.17 125.594C187.691 126.531 187.951 127.653 187.951 128.96C187.951 130.608 187.525 132.071 186.673 133.349C185.83 134.628 184.603 135.636 182.994 136.375C181.393 137.114 179.457 137.483 177.184 137.483C175.006 137.483 173.121 137.137 171.531 136.446C169.94 135.755 168.694 134.775 167.795 133.506C166.895 132.227 166.398 130.712 166.303 128.96H170.707C170.792 130.011 171.133 130.887 171.729 131.588C172.335 132.279 173.107 132.795 174.045 133.136C174.992 133.468 176.029 133.634 177.156 133.634C178.396 133.634 179.499 133.439 180.465 133.051C181.441 132.653 182.208 132.104 182.766 131.403C183.325 130.693 183.604 129.865 183.604 128.918C183.604 128.056 183.358 127.35 182.866 126.801C182.383 126.252 181.725 125.797 180.891 125.438C180.067 125.078 179.135 124.76 178.093 124.486L174.656 123.548C172.326 122.914 170.479 121.981 169.116 120.75C167.762 119.519 167.085 117.89 167.085 115.864C167.085 114.187 167.539 112.724 168.448 111.474C169.357 110.224 170.588 109.254 172.141 108.562C173.694 107.862 175.446 107.511 177.397 107.511C179.367 107.511 181.104 107.857 182.61 108.548C184.125 109.24 185.318 110.191 186.19 111.403C187.061 112.606 187.515 113.989 187.553 115.551H183.32ZM209.062 115.551C208.911 114.206 208.286 113.165 207.188 112.426C206.089 111.678 204.706 111.304 203.04 111.304C201.847 111.304 200.814 111.493 199.943 111.872C199.072 112.241 198.395 112.753 197.912 113.406C197.438 114.05 197.202 114.784 197.202 115.608C197.202 116.299 197.363 116.896 197.685 117.398C198.016 117.9 198.447 118.321 198.977 118.662C199.517 118.993 200.095 119.273 200.71 119.5C201.326 119.718 201.918 119.898 202.486 120.04L205.327 120.778C206.255 121.006 207.206 121.313 208.182 121.702C209.157 122.09 210.062 122.601 210.895 123.236C211.728 123.87 212.401 124.656 212.912 125.594C213.433 126.531 213.693 127.653 213.693 128.96C213.693 130.608 213.267 132.071 212.415 133.349C211.572 134.628 210.346 135.636 208.736 136.375C207.135 137.114 205.199 137.483 202.926 137.483C200.748 137.483 198.864 137.137 197.273 136.446C195.682 135.755 194.437 134.775 193.537 133.506C192.637 132.227 192.14 130.712 192.045 128.96H196.449C196.534 130.011 196.875 130.887 197.472 131.588C198.078 132.279 198.849 132.795 199.787 133.136C200.734 133.468 201.771 133.634 202.898 133.634C204.138 133.634 205.241 133.439 206.207 133.051C207.183 132.653 207.95 132.104 208.509 131.403C209.067 130.693 209.347 129.865 209.347 128.918C209.347 128.056 209.1 127.35 208.608 126.801C208.125 126.252 207.467 125.797 206.634 125.438C205.81 125.078 204.877 124.76 203.835 124.486L200.398 123.548C198.068 122.914 196.222 121.981 194.858 120.75C193.504 119.519 192.827 117.89 192.827 115.864C192.827 114.187 193.281 112.724 194.19 111.474C195.099 110.224 196.33 109.254 197.884 108.562C199.437 107.862 201.188 107.511 203.139 107.511C205.109 107.511 206.847 107.857 208.352 108.548C209.867 109.24 211.061 110.191 211.932 111.403C212.803 112.606 213.258 113.989 213.295 115.551H209.062Z" fill="white" fill-opacity="0.95"/>
</g>
<g clip-path="url(#clip0_1022_17131)">
<rect x="150.5" y="204" width="79" height="28" rx="14" fill="#643ABD"/>
<path d="M167.5 224H163.909V212.364H167.659C168.788 212.364 169.754 212.597 170.557 213.062C171.36 213.525 171.975 214.189 172.403 215.057C172.831 215.92 173.045 216.955 173.045 218.159C173.045 219.371 172.83 220.415 172.398 221.29C171.966 222.161 171.337 222.831 170.511 223.301C169.686 223.767 168.682 224 167.5 224ZM165.318 222.75H167.409C168.371 222.75 169.169 222.564 169.801 222.193C170.434 221.822 170.905 221.294 171.216 220.608C171.527 219.922 171.682 219.106 171.682 218.159C171.682 217.22 171.528 216.411 171.222 215.733C170.915 215.051 170.456 214.528 169.847 214.165C169.237 213.797 168.477 213.614 167.568 213.614H165.318V222.75ZM178.886 224.182C178.045 224.182 177.32 223.996 176.71 223.625C176.104 223.25 175.636 222.727 175.307 222.057C174.981 221.383 174.818 220.598 174.818 219.705C174.818 218.811 174.981 218.023 175.307 217.341C175.636 216.655 176.095 216.121 176.682 215.739C177.273 215.352 177.962 215.159 178.75 215.159C179.205 215.159 179.653 215.235 180.097 215.386C180.54 215.538 180.943 215.784 181.307 216.125C181.67 216.462 181.96 216.909 182.176 217.466C182.392 218.023 182.5 218.708 182.5 219.523V220.091H175.773V218.932H181.136C181.136 218.439 181.038 218 180.841 217.614C180.648 217.227 180.371 216.922 180.011 216.699C179.655 216.475 179.235 216.364 178.75 216.364C178.216 216.364 177.754 216.496 177.364 216.761C176.977 217.023 176.68 217.364 176.472 217.784C176.263 218.205 176.159 218.655 176.159 219.136V219.909C176.159 220.568 176.273 221.127 176.5 221.585C176.731 222.04 177.051 222.386 177.46 222.625C177.869 222.86 178.345 222.977 178.886 222.977C179.239 222.977 179.557 222.928 179.841 222.83C180.129 222.727 180.377 222.576 180.585 222.375C180.794 222.17 180.955 221.917 181.068 221.614L182.364 221.977C182.227 222.417 181.998 222.803 181.676 223.136C181.354 223.466 180.956 223.723 180.483 223.909C180.009 224.091 179.477 224.182 178.886 224.182ZM188.426 215.273V216.409H183.722V215.273H188.426ZM185.131 224V214.068C185.131 213.568 185.248 213.152 185.483 212.818C185.718 212.485 186.023 212.235 186.398 212.068C186.773 211.902 187.169 211.818 187.585 211.818C187.915 211.818 188.184 211.845 188.392 211.898C188.6 211.951 188.756 212 188.858 212.045L188.472 213.205C188.403 213.182 188.309 213.153 188.188 213.119C188.07 213.085 187.915 213.068 187.722 213.068C187.278 213.068 186.958 213.18 186.761 213.403C186.568 213.627 186.472 213.955 186.472 214.386V224H185.131ZM192.624 224.205C192.071 224.205 191.569 224.1 191.118 223.892C190.667 223.68 190.309 223.375 190.044 222.977C189.779 222.576 189.646 222.091 189.646 221.523C189.646 221.023 189.745 220.617 189.942 220.307C190.139 219.992 190.402 219.746 190.732 219.568C191.061 219.39 191.425 219.258 191.822 219.17C192.224 219.08 192.627 219.008 193.033 218.955C193.563 218.886 193.993 218.835 194.322 218.801C194.656 218.763 194.898 218.701 195.05 218.614C195.205 218.527 195.283 218.375 195.283 218.159V218.114C195.283 217.553 195.129 217.117 194.822 216.807C194.519 216.496 194.059 216.341 193.442 216.341C192.802 216.341 192.3 216.481 191.936 216.761C191.572 217.042 191.317 217.341 191.169 217.659L189.896 217.205C190.124 216.674 190.427 216.261 190.805 215.966C191.188 215.667 191.605 215.458 192.055 215.341C192.51 215.22 192.957 215.159 193.396 215.159C193.677 215.159 193.999 215.193 194.362 215.261C194.73 215.326 195.084 215.46 195.425 215.665C195.769 215.869 196.055 216.178 196.283 216.591C196.51 217.004 196.624 217.557 196.624 218.25V224H195.283V222.818H195.214C195.124 223.008 194.972 223.21 194.76 223.426C194.548 223.642 194.266 223.826 193.913 223.977C193.561 224.129 193.131 224.205 192.624 224.205ZM192.828 223C193.358 223 193.805 222.896 194.169 222.688C194.536 222.479 194.813 222.21 194.999 221.881C195.188 221.551 195.283 221.205 195.283 220.841V219.614C195.226 219.682 195.101 219.744 194.908 219.801C194.718 219.854 194.499 219.902 194.249 219.943C194.002 219.981 193.762 220.015 193.527 220.045C193.296 220.072 193.108 220.095 192.964 220.114C192.616 220.159 192.29 220.233 191.987 220.335C191.688 220.434 191.446 220.583 191.26 220.784C191.078 220.981 190.987 221.25 190.987 221.591C190.987 222.057 191.16 222.409 191.504 222.648C191.853 222.883 192.294 223 192.828 223ZM204.571 220.432V215.273H205.912V224H204.571V222.523H204.48C204.276 222.966 203.957 223.343 203.526 223.653C203.094 223.96 202.548 224.114 201.889 224.114C201.344 224.114 200.859 223.994 200.435 223.756C200.01 223.513 199.677 223.15 199.435 222.665C199.192 222.176 199.071 221.561 199.071 220.818V215.273H200.412V220.727C200.412 221.364 200.59 221.871 200.946 222.25C201.306 222.629 201.764 222.818 202.321 222.818C202.654 222.818 202.993 222.733 203.338 222.562C203.687 222.392 203.978 222.131 204.213 221.778C204.452 221.426 204.571 220.977 204.571 220.432ZM209.709 212.364V224H208.368V212.364H209.709ZM215.96 215.273V216.409H211.438V215.273H215.96ZM212.756 213.182H214.097V221.5C214.097 221.879 214.152 222.163 214.261 222.352C214.375 222.538 214.519 222.663 214.693 222.727C214.871 222.788 215.059 222.818 215.256 222.818C215.403 222.818 215.525 222.811 215.619 222.795C215.714 222.777 215.79 222.761 215.847 222.75L216.119 223.955C216.028 223.989 215.902 224.023 215.739 224.057C215.576 224.095 215.369 224.114 215.119 224.114C214.741 224.114 214.369 224.032 214.006 223.869C213.646 223.706 213.347 223.458 213.108 223.125C212.873 222.792 212.756 222.371 212.756 221.864V213.182Z" fill="white" fill-opacity="0.95"/>
</g>
<mask id="mask1_1022_17131" style="mask-type:alpha" maskUnits="userSpaceOnUse" x="312" y="60" width="124" height="124">
<path fill-rule="evenodd" clip-rule="evenodd" d="M374 184C408.242 184 436 156.242 436 122C436 87.7583 408.242 60 374 60C339.758 60 312 87.7583 312 122C312 156.242 339.758 184 374 184Z" fill="#262626"/>
</mask>
<g mask="url(#mask1_1022_17131)">
<rect width="124" height="124" transform="translate(312 60)" fill="#735107"/>
<path d="M367.32 115.551C367.169 114.206 366.544 113.165 365.445 112.426C364.347 111.678 362.964 111.304 361.298 111.304C360.104 111.304 359.072 111.493 358.201 111.872C357.33 112.241 356.653 112.753 356.17 113.406C355.696 114.05 355.46 114.784 355.46 115.608C355.46 116.299 355.621 116.896 355.942 117.398C356.274 117.9 356.705 118.321 357.235 118.662C357.775 118.993 358.353 119.273 358.968 119.5C359.584 119.718 360.175 119.898 360.744 120.04L363.585 120.778C364.513 121.006 365.464 121.313 366.44 121.702C367.415 122.09 368.319 122.601 369.153 123.236C369.986 123.87 370.658 124.656 371.17 125.594C371.691 126.531 371.951 127.653 371.951 128.96C371.951 130.608 371.525 132.071 370.673 133.349C369.83 134.628 368.603 135.636 366.994 136.375C365.393 137.114 363.457 137.483 361.184 137.483C359.006 137.483 357.121 137.137 355.531 136.446C353.94 135.755 352.694 134.775 351.795 133.506C350.895 132.227 350.398 130.712 350.303 128.96H354.707C354.792 130.011 355.133 130.887 355.729 131.588C356.335 132.279 357.107 132.795 358.045 133.136C358.992 133.468 360.029 133.634 361.156 133.634C362.396 133.634 363.499 133.439 364.465 133.051C365.441 132.653 366.208 132.104 366.766 131.403C367.325 130.693 367.604 129.865 367.604 128.918C367.604 128.056 367.358 127.35 366.866 126.801C366.383 126.252 365.725 125.797 364.891 125.438C364.067 125.078 363.135 124.76 362.093 124.486L358.656 123.548C356.326 122.914 354.479 121.981 353.116 120.75C351.762 119.519 351.085 117.89 351.085 115.864C351.085 114.187 351.539 112.724 352.448 111.474C353.357 110.224 354.588 109.254 356.141 108.562C357.694 107.862 359.446 107.511 361.397 107.511C363.367 107.511 365.104 107.857 366.61 108.548C368.125 109.24 369.318 110.191 370.19 111.403C371.061 112.606 371.515 113.989 371.553 115.551H367.32ZM393.062 115.551C392.911 114.206 392.286 113.165 391.188 112.426C390.089 111.678 388.706 111.304 387.04 111.304C385.847 111.304 384.814 111.493 383.943 111.872C383.072 112.241 382.395 112.753 381.912 113.406C381.438 114.05 381.202 114.784 381.202 115.608C381.202 116.299 381.363 116.896 381.685 117.398C382.016 117.9 382.447 118.321 382.977 118.662C383.517 118.993 384.095 119.273 384.71 119.5C385.326 119.718 385.918 119.898 386.486 120.04L389.327 120.778C390.255 121.006 391.206 121.313 392.182 121.702C393.157 122.09 394.062 122.601 394.895 123.236C395.728 123.87 396.401 124.656 396.912 125.594C397.433 126.531 397.693 127.653 397.693 128.96C397.693 130.608 397.267 132.071 396.415 133.349C395.572 134.628 394.346 135.636 392.736 136.375C391.135 137.114 389.199 137.483 386.926 137.483C384.748 137.483 382.864 137.137 381.273 136.446C379.682 135.755 378.437 134.775 377.537 133.506C376.637 132.227 376.14 130.712 376.045 128.96H380.449C380.534 130.011 380.875 130.887 381.472 131.588C382.078 132.279 382.849 132.795 383.787 133.136C384.734 133.468 385.771 133.634 386.898 133.634C388.138 133.634 389.241 133.439 390.207 133.051C391.183 132.653 391.95 132.104 392.509 131.403C393.067 130.693 393.347 129.865 393.347 128.918C393.347 128.056 393.1 127.35 392.608 126.801C392.125 126.252 391.467 125.797 390.634 125.438C389.81 125.078 388.877 124.76 387.835 124.486L384.398 123.548C382.068 122.914 380.222 121.981 378.858 120.75C377.504 119.519 376.827 117.89 376.827 115.864C376.827 114.187 377.281 112.724 378.19 111.474C379.099 110.224 380.33 109.254 381.884 108.562C383.437 107.862 385.188 107.511 387.139 107.511C389.109 107.511 390.847 107.857 392.352 108.548C393.867 109.24 395.061 110.191 395.932 111.403C396.803 112.606 397.258 113.989 397.295 115.551H393.062Z" fill="white" fill-opacity="0.95"/>
</g>
<g clip-path="url(#clip1_1022_17131)">
<rect x="344" y="204" width="60" height="28" rx="14" fill="#643ABD"/>
<path d="M365.364 216C365.239 215.617 365.074 215.275 364.869 214.972C364.669 214.665 364.428 214.403 364.148 214.188C363.871 213.972 363.557 213.807 363.205 213.693C362.852 213.58 362.466 213.523 362.045 213.523C361.356 213.523 360.729 213.701 360.165 214.057C359.6 214.413 359.152 214.938 358.818 215.631C358.485 216.324 358.318 217.174 358.318 218.182C358.318 219.189 358.487 220.04 358.824 220.733C359.161 221.426 359.617 221.951 360.193 222.307C360.769 222.663 361.417 222.841 362.136 222.841C362.803 222.841 363.39 222.699 363.898 222.415C364.409 222.127 364.807 221.722 365.091 221.199C365.379 220.672 365.523 220.053 365.523 219.341L365.955 219.432H362.455V218.182H366.886V219.432C366.886 220.39 366.682 221.223 366.273 221.932C365.867 222.64 365.307 223.189 364.591 223.58C363.879 223.966 363.061 224.159 362.136 224.159C361.106 224.159 360.201 223.917 359.42 223.432C358.644 222.947 358.038 222.258 357.602 221.364C357.17 220.47 356.955 219.409 356.955 218.182C356.955 217.261 357.078 216.434 357.324 215.699C357.574 214.96 357.926 214.331 358.381 213.812C358.835 213.294 359.373 212.896 359.994 212.619C360.616 212.343 361.299 212.205 362.045 212.205C362.659 212.205 363.231 212.297 363.761 212.483C364.295 212.665 364.771 212.924 365.188 213.261C365.608 213.595 365.958 213.994 366.239 214.46C366.519 214.922 366.712 215.436 366.818 216H365.364ZM372.663 224.182C371.875 224.182 371.184 223.994 370.589 223.619C369.999 223.244 369.536 222.72 369.203 222.045C368.874 221.371 368.709 220.583 368.709 219.682C368.709 218.773 368.874 217.979 369.203 217.301C369.536 216.623 369.999 216.097 370.589 215.722C371.184 215.347 371.875 215.159 372.663 215.159C373.451 215.159 374.141 215.347 374.732 215.722C375.326 216.097 375.788 216.623 376.118 217.301C376.451 217.979 376.618 218.773 376.618 219.682C376.618 220.583 376.451 221.371 376.118 222.045C375.788 222.72 375.326 223.244 374.732 223.619C374.141 223.994 373.451 224.182 372.663 224.182ZM372.663 222.977C373.262 222.977 373.754 222.824 374.141 222.517C374.527 222.21 374.813 221.807 374.999 221.307C375.184 220.807 375.277 220.265 375.277 219.682C375.277 219.098 375.184 218.555 374.999 218.051C374.813 217.547 374.527 217.14 374.141 216.83C373.754 216.519 373.262 216.364 372.663 216.364C372.065 216.364 371.572 216.519 371.186 216.83C370.8 217.14 370.514 217.547 370.328 218.051C370.143 218.555 370.05 219.098 370.05 219.682C370.05 220.265 370.143 220.807 370.328 221.307C370.514 221.807 370.8 222.21 371.186 222.517C371.572 222.824 372.065 222.977 372.663 222.977ZM380.006 212.364V224H378.665V212.364H380.006ZM385.757 224.182C385.03 224.182 384.388 223.998 383.831 223.631C383.274 223.259 382.839 222.737 382.524 222.062C382.21 221.384 382.053 220.583 382.053 219.659C382.053 218.742 382.21 217.947 382.524 217.273C382.839 216.598 383.276 216.078 383.837 215.71C384.397 215.343 385.045 215.159 385.78 215.159C386.348 215.159 386.797 215.254 387.126 215.443C387.46 215.629 387.714 215.841 387.888 216.08C388.066 216.314 388.204 216.508 388.303 216.659H388.416V212.364H389.757V224H388.462V222.659H388.303C388.204 222.818 388.064 223.019 387.882 223.261C387.7 223.5 387.441 223.714 387.104 223.903C386.767 224.089 386.318 224.182 385.757 224.182ZM385.939 222.977C386.477 222.977 386.931 222.837 387.303 222.557C387.674 222.273 387.956 221.881 388.149 221.381C388.342 220.877 388.439 220.295 388.439 219.636C388.439 218.985 388.344 218.415 388.155 217.926C387.965 217.434 387.685 217.051 387.314 216.778C386.943 216.502 386.484 216.364 385.939 216.364C385.371 216.364 384.897 216.509 384.518 216.801C384.143 217.089 383.861 217.481 383.672 217.977C383.486 218.47 383.393 219.023 383.393 219.636C383.393 220.258 383.488 220.822 383.678 221.33C383.871 221.833 384.155 222.235 384.53 222.534C384.909 222.83 385.378 222.977 385.939 222.977Z" fill="white" fill-opacity="0.95"/>
</g>
<mask id="mask2_1022_17131" style="mask-type:alpha" maskUnits="userSpaceOnUse" x="496" y="60" width="124" height="124">
<path fill-rule="evenodd" clip-rule="evenodd" d="M558 184C592.242 184 620 156.242 620 122C620 87.7583 592.242 60 558 60C523.758 60 496 87.7583 496 122C496 156.242 523.758 184 558 184Z" fill="#262626"/>
</mask>
<g mask="url(#mask2_1022_17131)">
<rect width="124" height="124" transform="translate(496 60)" fill="#416116"/>
<path d="M551.32 115.551C551.169 114.206 550.544 113.165 549.445 112.426C548.347 111.678 546.964 111.304 545.298 111.304C544.104 111.304 543.072 111.493 542.201 111.872C541.33 112.241 540.653 112.753 540.17 113.406C539.696 114.05 539.46 114.784 539.46 115.608C539.46 116.299 539.621 116.896 539.942 117.398C540.274 117.9 540.705 118.321 541.235 118.662C541.775 118.993 542.353 119.273 542.968 119.5C543.584 119.718 544.175 119.898 544.744 120.04L547.585 120.778C548.513 121.006 549.464 121.313 550.44 121.702C551.415 122.09 552.319 122.601 553.153 123.236C553.986 123.87 554.658 124.656 555.17 125.594C555.691 126.531 555.951 127.653 555.951 128.96C555.951 130.608 555.525 132.071 554.673 133.349C553.83 134.628 552.603 135.636 550.994 136.375C549.393 137.114 547.457 137.483 545.184 137.483C543.006 137.483 541.121 137.137 539.531 136.446C537.94 135.755 536.694 134.775 535.795 133.506C534.895 132.227 534.398 130.712 534.303 128.96H538.707C538.792 130.011 539.133 130.887 539.729 131.588C540.335 132.279 541.107 132.795 542.045 133.136C542.992 133.468 544.029 133.634 545.156 133.634C546.396 133.634 547.499 133.439 548.465 133.051C549.441 132.653 550.208 132.104 550.766 131.403C551.325 130.693 551.604 129.865 551.604 128.918C551.604 128.056 551.358 127.35 550.866 126.801C550.383 126.252 549.725 125.797 548.891 125.438C548.067 125.078 547.135 124.76 546.093 124.486L542.656 123.548C540.326 122.914 538.479 121.981 537.116 120.75C535.762 119.519 535.085 117.89 535.085 115.864C535.085 114.187 535.539 112.724 536.448 111.474C537.357 110.224 538.588 109.254 540.141 108.562C541.694 107.862 543.446 107.511 545.397 107.511C547.367 107.511 549.104 107.857 550.61 108.548C552.125 109.24 553.318 110.191 554.19 111.403C555.061 112.606 555.515 113.989 555.553 115.551H551.32ZM577.062 115.551C576.911 114.206 576.286 113.165 575.188 112.426C574.089 111.678 572.706 111.304 571.04 111.304C569.847 111.304 568.814 111.493 567.943 111.872C567.072 112.241 566.395 112.753 565.912 113.406C565.438 114.05 565.202 114.784 565.202 115.608C565.202 116.299 565.363 116.896 565.685 117.398C566.016 117.9 566.447 118.321 566.977 118.662C567.517 118.993 568.095 119.273 568.71 119.5C569.326 119.718 569.918 119.898 570.486 120.04L573.327 120.778C574.255 121.006 575.206 121.313 576.182 121.702C577.157 122.09 578.062 122.601 578.895 123.236C579.728 123.87 580.401 124.656 580.912 125.594C581.433 126.531 581.693 127.653 581.693 128.96C581.693 130.608 581.267 132.071 580.415 133.349C579.572 134.628 578.346 135.636 576.736 136.375C575.135 137.114 573.199 137.483 570.926 137.483C568.748 137.483 566.864 137.137 565.273 136.446C563.682 135.755 562.437 134.775 561.537 133.506C560.637 132.227 560.14 130.712 560.045 128.96H564.449C564.534 130.011 564.875 130.887 565.472 131.588C566.078 132.279 566.849 132.795 567.787 133.136C568.734 133.468 569.771 133.634 570.898 133.634C572.138 133.634 573.241 133.439 574.207 133.051C575.183 132.653 575.95 132.104 576.509 131.403C577.067 130.693 577.347 129.865 577.347 128.918C577.347 128.056 577.1 127.35 576.608 126.801C576.125 126.252 575.467 125.797 574.634 125.438C573.81 125.078 572.877 124.76 571.835 124.486L568.398 123.548C566.068 122.914 564.222 121.981 562.858 120.75C561.504 119.519 560.827 117.89 560.827 115.864C560.827 114.187 561.281 112.724 562.19 111.474C563.099 110.224 564.33 109.254 565.884 108.562C567.437 107.862 569.188 107.511 571.139 107.511C573.109 107.511 574.847 107.857 576.352 108.548C577.867 109.24 579.061 110.191 579.932 111.403C580.803 112.606 581.258 113.989 581.295 115.551H577.062Z" fill="white" fill-opacity="0.95"/>
</g>
<g clip-path="url(#clip2_1022_17131)">
<rect x="527.5" y="204" width="61" height="28" rx="14" fill="#643ABD"/>
<path d="M540.909 224V212.364H542.318V222.75H547.727V224H540.909ZM549.727 224V215.273H551.068V224H549.727ZM550.409 213.818C550.148 213.818 549.922 213.729 549.733 213.551C549.547 213.373 549.455 213.159 549.455 212.909C549.455 212.659 549.547 212.445 549.733 212.267C549.922 212.089 550.148 212 550.409 212C550.67 212 550.894 212.089 551.08 212.267C551.269 212.445 551.364 212.659 551.364 212.909C551.364 213.159 551.269 213.373 551.08 213.551C550.894 213.729 550.67 213.818 550.409 213.818ZM553.524 224V215.273H554.82V216.636H554.933C555.115 216.17 555.409 215.809 555.814 215.551C556.219 215.29 556.706 215.159 557.274 215.159C557.85 215.159 558.329 215.29 558.712 215.551C559.098 215.809 559.399 216.17 559.615 216.636H559.706C559.929 216.186 560.265 215.828 560.712 215.562C561.159 215.294 561.695 215.159 562.32 215.159C563.1 215.159 563.738 215.403 564.234 215.892C564.731 216.377 564.979 217.133 564.979 218.159V224H563.638V218.159C563.638 217.515 563.462 217.055 563.109 216.778C562.757 216.502 562.342 216.364 561.865 216.364C561.251 216.364 560.776 216.549 560.439 216.92C560.102 217.288 559.933 217.754 559.933 218.318V224H558.57V218.023C558.57 217.527 558.409 217.127 558.087 216.824C557.765 216.517 557.35 216.364 556.842 216.364C556.494 216.364 556.168 216.456 555.865 216.642C555.566 216.828 555.323 217.085 555.138 217.415C554.956 217.741 554.865 218.117 554.865 218.545V224H553.524ZM571.089 224.182C570.249 224.182 569.523 223.996 568.913 223.625C568.307 223.25 567.839 222.727 567.51 222.057C567.184 221.383 567.021 220.598 567.021 219.705C567.021 218.811 567.184 218.023 567.51 217.341C567.839 216.655 568.298 216.121 568.885 215.739C569.476 215.352 570.165 215.159 570.953 215.159C571.408 215.159 571.857 215.235 572.3 215.386C572.743 215.538 573.146 215.784 573.51 216.125C573.874 216.462 574.163 216.909 574.379 217.466C574.595 218.023 574.703 218.708 574.703 219.523V220.091H567.976V218.932H573.339C573.339 218.439 573.241 218 573.044 217.614C572.851 217.227 572.574 216.922 572.214 216.699C571.858 216.475 571.438 216.364 570.953 216.364C570.419 216.364 569.957 216.496 569.567 216.761C569.18 217.023 568.883 217.364 568.675 217.784C568.466 218.205 568.362 218.655 568.362 219.136V219.909C568.362 220.568 568.476 221.127 568.703 221.585C568.934 222.04 569.254 222.386 569.663 222.625C570.072 222.86 570.548 222.977 571.089 222.977C571.442 222.977 571.76 222.928 572.044 222.83C572.332 222.727 572.58 222.576 572.788 222.375C572.997 222.17 573.158 221.917 573.271 221.614L574.567 221.977C574.43 222.417 574.201 222.803 573.879 223.136C573.557 223.466 573.16 223.723 572.686 223.909C572.213 224.091 571.68 224.182 571.089 224.182Z" fill="white" fill-opacity="0.95"/>
</g>
<mask id="mask3_1022_17131" style="mask-type:alpha" maskUnits="userSpaceOnUse" x="680" y="60" width="124" height="124">
<path fill-rule="evenodd" clip-rule="evenodd" d="M742 184C776.242 184 804 156.242 804 122C804 87.7583 776.242 60 742 60C707.758 60 680 87.7583 680 122C680 156.242 707.758 184 742 184Z" fill="#262626"/>
</mask>
<g mask="url(#mask3_1022_17131)">
<rect width="124" height="124" transform="translate(680 60)" fill="#12615A"/>
<path d="M735.32 115.551C735.169 114.206 734.544 113.165 733.445 112.426C732.347 111.678 730.964 111.304 729.298 111.304C728.104 111.304 727.072 111.493 726.201 111.872C725.33 112.241 724.653 112.753 724.17 113.406C723.696 114.05 723.46 114.784 723.46 115.608C723.46 116.299 723.621 116.896 723.942 117.398C724.274 117.9 724.705 118.321 725.235 118.662C725.775 118.993 726.353 119.273 726.968 119.5C727.584 119.718 728.175 119.898 728.744 120.04L731.585 120.778C732.513 121.006 733.464 121.313 734.44 121.702C735.415 122.09 736.319 122.601 737.153 123.236C737.986 123.87 738.658 124.656 739.17 125.594C739.691 126.531 739.951 127.653 739.951 128.96C739.951 130.608 739.525 132.071 738.673 133.349C737.83 134.628 736.603 135.636 734.994 136.375C733.393 137.114 731.457 137.483 729.184 137.483C727.006 137.483 725.121 137.137 723.531 136.446C721.94 135.755 720.694 134.775 719.795 133.506C718.895 132.227 718.398 130.712 718.303 128.96H722.707C722.792 130.011 723.133 130.887 723.729 131.588C724.335 132.279 725.107 132.795 726.045 133.136C726.992 133.468 728.029 133.634 729.156 133.634C730.396 133.634 731.499 133.439 732.465 133.051C733.441 132.653 734.208 132.104 734.766 131.403C735.325 130.693 735.604 129.865 735.604 128.918C735.604 128.056 735.358 127.35 734.866 126.801C734.383 126.252 733.725 125.797 732.891 125.438C732.067 125.078 731.135 124.76 730.093 124.486L726.656 123.548C724.326 122.914 722.479 121.981 721.116 120.75C719.762 119.519 719.085 117.89 719.085 115.864C719.085 114.187 719.539 112.724 720.448 111.474C721.357 110.224 722.588 109.254 724.141 108.562C725.694 107.862 727.446 107.511 729.397 107.511C731.367 107.511 733.104 107.857 734.61 108.548C736.125 109.24 737.318 110.191 738.19 111.403C739.061 112.606 739.515 113.989 739.553 115.551H735.32ZM761.062 115.551C760.911 114.206 760.286 113.165 759.188 112.426C758.089 111.678 756.706 111.304 755.04 111.304C753.847 111.304 752.814 111.493 751.943 111.872C751.072 112.241 750.395 112.753 749.912 113.406C749.438 114.05 749.202 114.784 749.202 115.608C749.202 116.299 749.363 116.896 749.685 117.398C750.016 117.9 750.447 118.321 750.977 118.662C751.517 118.993 752.095 119.273 752.71 119.5C753.326 119.718 753.918 119.898 754.486 120.04L757.327 120.778C758.255 121.006 759.206 121.313 760.182 121.702C761.157 122.09 762.062 122.601 762.895 123.236C763.728 123.87 764.401 124.656 764.912 125.594C765.433 126.531 765.693 127.653 765.693 128.96C765.693 130.608 765.267 132.071 764.415 133.349C763.572 134.628 762.346 135.636 760.736 136.375C759.135 137.114 757.199 137.483 754.926 137.483C752.748 137.483 750.864 137.137 749.273 136.446C747.682 135.755 746.437 134.775 745.537 133.506C744.637 132.227 744.14 130.712 744.045 128.96H748.449C748.534 130.011 748.875 130.887 749.472 131.588C750.078 132.279 750.849 132.795 751.787 133.136C752.734 133.468 753.771 133.634 754.898 133.634C756.138 133.634 757.241 133.439 758.207 133.051C759.183 132.653 759.95 132.104 760.509 131.403C761.067 130.693 761.347 129.865 761.347 128.918C761.347 128.056 761.1 127.35 760.608 126.801C760.125 126.252 759.467 125.797 758.634 125.438C757.81 125.078 756.877 124.76 755.835 124.486L752.398 123.548C750.068 122.914 748.222 121.981 746.858 120.75C745.504 119.519 744.827 117.89 744.827 115.864C744.827 114.187 745.281 112.724 746.19 111.474C747.099 110.224 748.33 109.254 749.884 108.562C751.437 107.862 753.188 107.511 755.139 107.511C757.109 107.511 758.847 107.857 760.352 108.548C761.867 109.24 763.061 110.191 763.932 111.403C764.803 112.606 765.258 113.989 765.295 115.551H761.062Z" fill="white" fill-opacity="0.95"/>
</g>
<g clip-path="url(#clip3_1022_17131)">
<rect x="713" y="204" width="58" height="28" rx="14" fill="#643ABD"/>
<path d="M726.409 212.364H728.091L732.045 222.023H732.182L736.136 212.364H737.818V224H736.5V215.159H736.386L732.75 224H731.477L727.841 215.159H727.727V224H726.409V212.364ZM740.462 224V215.273H741.803V224H740.462ZM741.143 213.818C740.882 213.818 740.657 213.729 740.467 213.551C740.282 213.373 740.189 213.159 740.189 212.909C740.189 212.659 740.282 212.445 740.467 212.267C740.657 212.089 740.882 212 741.143 212C741.405 212 741.628 212.089 741.814 212.267C742.003 212.445 742.098 212.659 742.098 212.909C742.098 213.159 742.003 213.373 741.814 213.551C741.628 213.729 741.405 213.818 741.143 213.818ZM745.599 218.75V224H744.259V215.273H745.554V216.636H745.668C745.872 216.193 746.183 215.837 746.599 215.568C747.016 215.295 747.554 215.159 748.213 215.159C748.804 215.159 749.321 215.28 749.764 215.523C750.207 215.761 750.552 216.125 750.798 216.614C751.045 217.098 751.168 217.712 751.168 218.455V224H749.827V218.545C749.827 217.86 749.649 217.326 749.293 216.943C748.937 216.557 748.448 216.364 747.827 216.364C747.399 216.364 747.016 216.456 746.679 216.642C746.346 216.828 746.082 217.098 745.889 217.455C745.696 217.811 745.599 218.242 745.599 218.75ZM757.413 215.273V216.409H752.891V215.273H757.413ZM754.209 213.182H755.55V221.5C755.55 221.879 755.605 222.163 755.714 222.352C755.828 222.538 755.972 222.663 756.146 222.727C756.324 222.788 756.512 222.818 756.709 222.818C756.857 222.818 756.978 222.811 757.072 222.795C757.167 222.777 757.243 222.761 757.3 222.75L757.572 223.955C757.482 223.989 757.355 224.023 757.192 224.057C757.029 224.095 756.822 224.114 756.572 224.114C756.194 224.114 755.822 224.032 755.459 223.869C755.099 223.706 754.8 223.458 754.561 223.125C754.326 222.792 754.209 222.371 754.209 221.864V213.182Z" fill="white" fill-opacity="0.95"/>
</g>
<mask id="mask4_1022_17131" style="mask-type:alpha" maskUnits="userSpaceOnUse" x="864" y="60" width="124" height="124">
<path fill-rule="evenodd" clip-rule="evenodd" d="M926 184C960.242 184 988 156.242 988 122C988 87.7583 960.242 60 926 60C891.758 60 864 87.7583 864 122C864 156.242 891.758 184 926 184Z" fill="#262626"/>
</mask>
<g mask="url(#mask4_1022_17131)">
<rect width="124" height="124" transform="translate(864 60)" fill="#066070"/>
<path d="M919.32 115.551C919.169 114.206 918.544 113.165 917.445 112.426C916.347 111.678 914.964 111.304 913.298 111.304C912.104 111.304 911.072 111.493 910.201 111.872C909.33 112.241 908.653 112.753 908.17 113.406C907.696 114.05 907.46 114.784 907.46 115.608C907.46 116.299 907.621 116.896 907.942 117.398C908.274 117.9 908.705 118.321 909.235 118.662C909.775 118.993 910.353 119.273 910.968 119.5C911.584 119.718 912.175 119.898 912.744 120.04L915.585 120.778C916.513 121.006 917.464 121.313 918.44 121.702C919.415 122.09 920.319 122.601 921.153 123.236C921.986 123.87 922.658 124.656 923.17 125.594C923.691 126.531 923.951 127.653 923.951 128.96C923.951 130.608 923.525 132.071 922.673 133.349C921.83 134.628 920.603 135.636 918.994 136.375C917.393 137.114 915.457 137.483 913.184 137.483C911.006 137.483 909.121 137.137 907.531 136.446C905.94 135.755 904.694 134.775 903.795 133.506C902.895 132.227 902.398 130.712 902.303 128.96H906.707C906.792 130.011 907.133 130.887 907.729 131.588C908.335 132.279 909.107 132.795 910.045 133.136C910.992 133.468 912.029 133.634 913.156 133.634C914.396 133.634 915.499 133.439 916.465 133.051C917.441 132.653 918.208 132.104 918.766 131.403C919.325 130.693 919.604 129.865 919.604 128.918C919.604 128.056 919.358 127.35 918.866 126.801C918.383 126.252 917.725 125.797 916.891 125.438C916.067 125.078 915.135 124.76 914.093 124.486L910.656 123.548C908.326 122.914 906.479 121.981 905.116 120.75C903.762 119.519 903.085 117.89 903.085 115.864C903.085 114.187 903.539 112.724 904.448 111.474C905.357 110.224 906.588 109.254 908.141 108.562C909.694 107.862 911.446 107.511 913.397 107.511C915.367 107.511 917.104 107.857 918.61 108.548C920.125 109.24 921.318 110.191 922.19 111.403C923.061 112.606 923.515 113.989 923.553 115.551H919.32ZM945.062 115.551C944.911 114.206 944.286 113.165 943.188 112.426C942.089 111.678 940.706 111.304 939.04 111.304C937.847 111.304 936.814 111.493 935.943 111.872C935.072 112.241 934.395 112.753 933.912 113.406C933.438 114.05 933.202 114.784 933.202 115.608C933.202 116.299 933.363 116.896 933.685 117.398C934.016 117.9 934.447 118.321 934.977 118.662C935.517 118.993 936.095 119.273 936.71 119.5C937.326 119.718 937.918 119.898 938.486 120.04L941.327 120.778C942.255 121.006 943.206 121.313 944.182 121.702C945.157 122.09 946.062 122.601 946.895 123.236C947.728 123.87 948.401 124.656 948.912 125.594C949.433 126.531 949.693 127.653 949.693 128.96C949.693 130.608 949.267 132.071 948.415 133.349C947.572 134.628 946.346 135.636 944.736 136.375C943.135 137.114 941.199 137.483 938.926 137.483C936.748 137.483 934.864 137.137 933.273 136.446C931.682 135.755 930.437 134.775 929.537 133.506C928.637 132.227 928.14 130.712 928.045 128.96H932.449C932.534 130.011 932.875 130.887 933.472 131.588C934.078 132.279 934.849 132.795 935.787 133.136C936.734 133.468 937.771 133.634 938.898 133.634C940.138 133.634 941.241 133.439 942.207 133.051C943.183 132.653 943.95 132.104 944.509 131.403C945.067 130.693 945.347 129.865 945.347 128.918C945.347 128.056 945.1 127.35 944.608 126.801C944.125 126.252 943.467 125.797 942.634 125.438C941.81 125.078 940.877 124.76 939.835 124.486L936.398 123.548C934.068 122.914 932.222 121.981 930.858 120.75C929.504 119.519 928.827 117.89 928.827 115.864C928.827 114.187 929.281 112.724 930.19 111.474C931.099 110.224 932.33 109.254 933.884 108.562C935.437 107.862 937.188 107.511 939.139 107.511C941.109 107.511 942.847 107.857 944.352 108.548C945.867 109.24 947.061 110.191 947.932 111.403C948.803 112.606 949.258 113.989 949.295 115.551H945.062Z" fill="white" fill-opacity="0.95"/>
</g>
<g clip-path="url(#clip4_1022_17131)">
<rect x="894.5" y="204" width="63" height="28" rx="14" fill="#643ABD"/>
<path d="M917.273 216H915.864C915.78 215.595 915.634 215.239 915.426 214.932C915.222 214.625 914.972 214.367 914.676 214.159C914.384 213.947 914.061 213.788 913.705 213.682C913.348 213.576 912.977 213.523 912.591 213.523C911.886 213.523 911.248 213.701 910.676 214.057C910.108 214.413 909.655 214.938 909.318 215.631C908.985 216.324 908.818 217.174 908.818 218.182C908.818 219.189 908.985 220.04 909.318 220.733C909.655 221.426 910.108 221.951 910.676 222.307C911.248 222.663 911.886 222.841 912.591 222.841C912.977 222.841 913.348 222.788 913.705 222.682C914.061 222.576 914.384 222.419 914.676 222.21C914.972 221.998 915.222 221.739 915.426 221.432C915.634 221.121 915.78 220.765 915.864 220.364H917.273C917.167 220.958 916.973 221.491 916.693 221.96C916.413 222.43 916.064 222.83 915.648 223.159C915.231 223.485 914.763 223.733 914.244 223.903C913.729 224.074 913.178 224.159 912.591 224.159C911.598 224.159 910.716 223.917 909.943 223.432C909.17 222.947 908.563 222.258 908.119 221.364C907.676 220.47 907.455 219.409 907.455 218.182C907.455 216.955 907.676 215.894 908.119 215C908.563 214.106 909.17 213.417 909.943 212.932C910.716 212.447 911.598 212.205 912.591 212.205C913.178 212.205 913.729 212.29 914.244 212.46C914.763 212.631 915.231 212.881 915.648 213.21C916.064 213.536 916.413 213.934 916.693 214.403C916.973 214.869 917.167 215.402 917.273 216ZM920.232 227.25C920.004 227.25 919.802 227.231 919.624 227.193C919.446 227.159 919.322 227.125 919.254 227.091L919.595 225.909C920.084 226.034 920.491 226.03 920.817 225.898C921.143 225.769 921.425 225.379 921.663 224.727L921.913 224.045L918.686 215.273H920.141L922.55 222.227H922.641L925.05 215.273L926.516 215.295L922.8 225.273C922.633 225.716 922.427 226.083 922.18 226.375C921.934 226.67 921.648 226.89 921.322 227.034C921 227.178 920.637 227.25 920.232 227.25ZM930.592 224.205C930.039 224.205 929.537 224.1 929.087 223.892C928.636 223.68 928.278 223.375 928.013 222.977C927.748 222.576 927.615 222.091 927.615 221.523C927.615 221.023 927.714 220.617 927.911 220.307C928.107 219.992 928.371 219.746 928.7 219.568C929.03 219.39 929.393 219.258 929.791 219.17C930.193 219.08 930.596 219.008 931.001 218.955C931.532 218.886 931.962 218.835 932.291 218.801C932.625 218.763 932.867 218.701 933.018 218.614C933.174 218.527 933.251 218.375 933.251 218.159V218.114C933.251 217.553 933.098 217.117 932.791 216.807C932.488 216.496 932.028 216.341 931.411 216.341C930.77 216.341 930.268 216.481 929.905 216.761C929.541 217.042 929.286 217.341 929.138 217.659L927.865 217.205C928.092 216.674 928.395 216.261 928.774 215.966C929.157 215.667 929.573 215.458 930.024 215.341C930.479 215.22 930.926 215.159 931.365 215.159C931.645 215.159 931.967 215.193 932.331 215.261C932.698 215.326 933.053 215.46 933.393 215.665C933.738 215.869 934.024 216.178 934.251 216.591C934.479 217.004 934.592 217.557 934.592 218.25V224H933.251V222.818H933.183C933.092 223.008 932.941 223.21 932.729 223.426C932.517 223.642 932.234 223.826 931.882 223.977C931.53 224.129 931.1 224.205 930.592 224.205ZM930.797 223C931.327 223 931.774 222.896 932.138 222.688C932.505 222.479 932.782 222.21 932.967 221.881C933.157 221.551 933.251 221.205 933.251 220.841V219.614C933.195 219.682 933.07 219.744 932.876 219.801C932.687 219.854 932.467 219.902 932.217 219.943C931.971 219.981 931.731 220.015 931.496 220.045C931.265 220.072 931.077 220.095 930.933 220.114C930.585 220.159 930.259 220.233 929.956 220.335C929.657 220.434 929.414 220.583 929.229 220.784C929.047 220.981 928.956 221.25 928.956 221.591C928.956 222.057 929.128 222.409 929.473 222.648C929.821 222.883 930.263 223 930.797 223ZM938.381 218.75V224H937.04V215.273H938.335V216.636H938.449C938.653 216.193 938.964 215.837 939.381 215.568C939.797 215.295 940.335 215.159 940.994 215.159C941.585 215.159 942.102 215.28 942.545 215.523C942.989 215.761 943.333 216.125 943.58 216.614C943.826 217.098 943.949 217.712 943.949 218.455V224H942.608V218.545C942.608 217.86 942.43 217.326 942.074 216.943C941.718 216.557 941.229 216.364 940.608 216.364C940.18 216.364 939.797 216.456 939.46 216.642C939.127 216.828 938.864 217.098 938.67 217.455C938.477 217.811 938.381 218.242 938.381 218.75Z" fill="white" fill-opacity="0.95"/>
</g>
<mask id="mask5_1022_17131" style="mask-type:alpha" maskUnits="userSpaceOnUse" x="1048" y="60" width="124" height="124">
<path fill-rule="evenodd" clip-rule="evenodd" d="M1110 184C1144.24 184 1172 156.242 1172 122C1172 87.7583 1144.24 60 1110 60C1075.76 60 1048 87.7583 1048 122C1048 156.242 1075.76 184 1110 184Z" fill="#262626"/>
</mask>
<g mask="url(#mask5_1022_17131)">
<rect width="124" height="124" transform="translate(1048 60)" fill="#08599C"/>
<path d="M1103.32 115.551C1103.17 114.206 1102.54 113.165 1101.45 112.426C1100.35 111.678 1098.96 111.304 1097.3 111.304C1096.1 111.304 1095.07 111.493 1094.2 111.872C1093.33 112.241 1092.65 112.753 1092.17 113.406C1091.7 114.05 1091.46 114.784 1091.46 115.608C1091.46 116.299 1091.62 116.896 1091.94 117.398C1092.27 117.9 1092.7 118.321 1093.24 118.662C1093.77 118.993 1094.35 119.273 1094.97 119.5C1095.58 119.718 1096.18 119.898 1096.74 120.04L1099.58 120.778C1100.51 121.006 1101.46 121.313 1102.44 121.702C1103.42 122.09 1104.32 122.601 1105.15 123.236C1105.99 123.87 1106.66 124.656 1107.17 125.594C1107.69 126.531 1107.95 127.653 1107.95 128.96C1107.95 130.608 1107.52 132.071 1106.67 133.349C1105.83 134.628 1104.6 135.636 1102.99 136.375C1101.39 137.114 1099.46 137.483 1097.18 137.483C1095.01 137.483 1093.12 137.137 1091.53 136.446C1089.94 135.755 1088.69 134.775 1087.79 133.506C1086.9 132.227 1086.4 130.712 1086.3 128.96H1090.71C1090.79 130.011 1091.13 130.887 1091.73 131.588C1092.34 132.279 1093.11 132.795 1094.04 133.136C1094.99 133.468 1096.03 133.634 1097.16 133.634C1098.4 133.634 1099.5 133.439 1100.47 133.051C1101.44 132.653 1102.21 132.104 1102.77 131.403C1103.33 130.693 1103.6 129.865 1103.6 128.918C1103.6 128.056 1103.36 127.35 1102.87 126.801C1102.38 126.252 1101.72 125.797 1100.89 125.438C1100.07 125.078 1099.13 124.76 1098.09 124.486L1094.66 123.548C1092.33 122.914 1090.48 121.981 1089.12 120.75C1087.76 119.519 1087.08 117.89 1087.08 115.864C1087.08 114.187 1087.54 112.724 1088.45 111.474C1089.36 110.224 1090.59 109.254 1092.14 108.562C1093.69 107.862 1095.45 107.511 1097.4 107.511C1099.37 107.511 1101.1 107.857 1102.61 108.548C1104.13 109.24 1105.32 110.191 1106.19 111.403C1107.06 112.606 1107.52 113.989 1107.55 115.551H1103.32ZM1129.06 115.551C1128.91 114.206 1128.29 113.165 1127.19 112.426C1126.09 111.678 1124.71 111.304 1123.04 111.304C1121.85 111.304 1120.81 111.493 1119.94 111.872C1119.07 112.241 1118.39 112.753 1117.91 113.406C1117.44 114.05 1117.2 114.784 1117.2 115.608C1117.2 116.299 1117.36 116.896 1117.68 117.398C1118.02 117.9 1118.45 118.321 1118.98 118.662C1119.52 118.993 1120.09 119.273 1120.71 119.5C1121.33 119.718 1121.92 119.898 1122.49 120.04L1125.33 120.778C1126.25 121.006 1127.21 121.313 1128.18 121.702C1129.16 122.09 1130.06 122.601 1130.89 123.236C1131.73 123.87 1132.4 124.656 1132.91 125.594C1133.43 126.531 1133.69 127.653 1133.69 128.96C1133.69 130.608 1133.27 132.071 1132.41 133.349C1131.57 134.628 1130.35 135.636 1128.74 136.375C1127.14 137.114 1125.2 137.483 1122.93 137.483C1120.75 137.483 1118.86 137.137 1117.27 136.446C1115.68 135.755 1114.44 134.775 1113.54 133.506C1112.64 132.227 1112.14 130.712 1112.05 128.96H1116.45C1116.53 130.011 1116.88 130.887 1117.47 131.588C1118.08 132.279 1118.85 132.795 1119.79 133.136C1120.73 133.468 1121.77 133.634 1122.9 133.634C1124.14 133.634 1125.24 133.439 1126.21 133.051C1127.18 132.653 1127.95 132.104 1128.51 131.403C1129.07 130.693 1129.35 129.865 1129.35 128.918C1129.35 128.056 1129.1 127.35 1128.61 126.801C1128.13 126.252 1127.47 125.797 1126.63 125.438C1125.81 125.078 1124.88 124.76 1123.84 124.486L1120.4 123.548C1118.07 122.914 1116.22 121.981 1114.86 120.75C1113.5 119.519 1112.83 117.89 1112.83 115.864C1112.83 114.187 1113.28 112.724 1114.19 111.474C1115.1 110.224 1116.33 109.254 1117.88 108.562C1119.44 107.862 1121.19 107.511 1123.14 107.511C1125.11 107.511 1126.85 107.857 1128.35 108.548C1129.87 109.24 1131.06 110.191 1131.93 111.403C1132.8 112.606 1133.26 113.989 1133.3 115.551H1129.06Z" fill="white" fill-opacity="0.95"/>
</g>
<g clip-path="url(#clip5_1022_17131)">
<rect x="1073" y="204" width="74" height="28" rx="14" fill="#643ABD"/>
<path d="M1095.77 216H1094.36C1094.28 215.595 1094.13 215.239 1093.93 214.932C1093.72 214.625 1093.47 214.367 1093.18 214.159C1092.88 213.947 1092.56 213.788 1092.2 213.682C1091.85 213.576 1091.48 213.523 1091.09 213.523C1090.39 213.523 1089.75 213.701 1089.18 214.057C1088.61 214.413 1088.16 214.938 1087.82 215.631C1087.48 216.324 1087.32 217.174 1087.32 218.182C1087.32 219.189 1087.48 220.04 1087.82 220.733C1088.16 221.426 1088.61 221.951 1089.18 222.307C1089.75 222.663 1090.39 222.841 1091.09 222.841C1091.48 222.841 1091.85 222.788 1092.2 222.682C1092.56 222.576 1092.88 222.419 1093.18 222.21C1093.47 221.998 1093.72 221.739 1093.93 221.432C1094.13 221.121 1094.28 220.765 1094.36 220.364H1095.77C1095.67 220.958 1095.47 221.491 1095.19 221.96C1094.91 222.43 1094.56 222.83 1094.15 223.159C1093.73 223.485 1093.26 223.733 1092.74 223.903C1092.23 224.074 1091.68 224.159 1091.09 224.159C1090.1 224.159 1089.22 223.917 1088.44 223.432C1087.67 222.947 1087.06 222.258 1086.62 221.364C1086.18 220.47 1085.95 219.409 1085.95 218.182C1085.95 216.955 1086.18 215.894 1086.62 215C1087.06 214.106 1087.67 213.417 1088.44 212.932C1089.22 212.447 1090.1 212.205 1091.09 212.205C1091.68 212.205 1092.23 212.29 1092.74 212.46C1093.26 212.631 1093.73 212.881 1094.15 213.21C1094.56 213.536 1094.91 213.934 1095.19 214.403C1095.47 214.869 1095.67 215.402 1095.77 216ZM1101.41 224.182C1100.63 224.182 1099.93 223.994 1099.34 223.619C1098.75 223.244 1098.29 222.72 1097.95 222.045C1097.62 221.371 1097.46 220.583 1097.46 219.682C1097.46 218.773 1097.62 217.979 1097.95 217.301C1098.29 216.623 1098.75 216.097 1099.34 215.722C1099.93 215.347 1100.63 215.159 1101.41 215.159C1102.2 215.159 1102.89 215.347 1103.48 215.722C1104.08 216.097 1104.54 216.623 1104.87 217.301C1105.2 217.979 1105.37 218.773 1105.37 219.682C1105.37 220.583 1105.2 221.371 1104.87 222.045C1104.54 222.72 1104.08 223.244 1103.48 223.619C1102.89 223.994 1102.2 224.182 1101.41 224.182ZM1101.41 222.977C1102.01 222.977 1102.5 222.824 1102.89 222.517C1103.28 222.21 1103.56 221.807 1103.75 221.307C1103.93 220.807 1104.03 220.265 1104.03 219.682C1104.03 219.098 1103.93 218.555 1103.75 218.051C1103.56 217.547 1103.28 217.14 1102.89 216.83C1102.5 216.519 1102.01 216.364 1101.41 216.364C1100.81 216.364 1100.32 216.519 1099.94 216.83C1099.55 217.14 1099.26 217.547 1099.08 218.051C1098.89 218.555 1098.8 219.098 1098.8 219.682C1098.8 220.265 1098.89 220.807 1099.08 221.307C1099.26 221.807 1099.55 222.21 1099.94 222.517C1100.32 222.824 1100.81 222.977 1101.41 222.977ZM1107.6 224V212.364H1108.94V216.659H1109.05C1109.15 216.508 1109.29 216.314 1109.46 216.08C1109.64 215.841 1109.89 215.629 1110.22 215.443C1110.55 215.254 1111.01 215.159 1111.57 215.159C1112.31 215.159 1112.96 215.343 1113.52 215.71C1114.08 216.078 1114.52 216.598 1114.83 217.273C1115.14 217.947 1115.3 218.742 1115.3 219.659C1115.3 220.583 1115.14 221.384 1114.83 222.062C1114.52 222.737 1114.08 223.259 1113.52 223.631C1112.97 223.998 1112.32 224.182 1111.6 224.182C1111.04 224.182 1110.59 224.089 1110.25 223.903C1109.91 223.714 1109.65 223.5 1109.47 223.261C1109.29 223.019 1109.15 222.818 1109.05 222.659H1108.89V224H1107.6ZM1108.91 219.636C1108.91 220.295 1109.01 220.877 1109.2 221.381C1109.4 221.881 1109.68 222.273 1110.05 222.557C1110.42 222.837 1110.88 222.977 1111.41 222.977C1111.98 222.977 1112.44 222.83 1112.82 222.534C1113.2 222.235 1113.48 221.833 1113.67 221.33C1113.86 220.822 1113.96 220.258 1113.96 219.636C1113.96 219.023 1113.87 218.47 1113.68 217.977C1113.49 217.481 1113.21 217.089 1112.83 216.801C1112.45 216.509 1111.98 216.364 1111.41 216.364C1110.87 216.364 1110.41 216.502 1110.04 216.778C1109.67 217.051 1109.39 217.434 1109.2 217.926C1109.01 218.415 1108.91 218.985 1108.91 219.636ZM1119.92 224.205C1119.37 224.205 1118.87 224.1 1118.41 223.892C1117.96 223.68 1117.61 223.375 1117.34 222.977C1117.08 222.576 1116.94 222.091 1116.94 221.523C1116.94 221.023 1117.04 220.617 1117.24 220.307C1117.44 219.992 1117.7 219.746 1118.03 219.568C1118.36 219.39 1118.72 219.258 1119.12 219.17C1119.52 219.08 1119.92 219.008 1120.33 218.955C1120.86 218.886 1121.29 218.835 1121.62 218.801C1121.95 218.763 1122.2 218.701 1122.35 218.614C1122.5 218.527 1122.58 218.375 1122.58 218.159V218.114C1122.58 217.553 1122.43 217.117 1122.12 216.807C1121.82 216.496 1121.36 216.341 1120.74 216.341C1120.1 216.341 1119.6 216.481 1119.23 216.761C1118.87 217.042 1118.61 217.341 1118.47 217.659L1117.19 217.205C1117.42 216.674 1117.72 216.261 1118.1 215.966C1118.48 215.667 1118.9 215.458 1119.35 215.341C1119.81 215.22 1120.25 215.159 1120.69 215.159C1120.97 215.159 1121.3 215.193 1121.66 215.261C1122.03 215.326 1122.38 215.46 1122.72 215.665C1123.07 215.869 1123.35 216.178 1123.58 216.591C1123.81 217.004 1123.92 217.557 1123.92 218.25V224H1122.58V222.818H1122.51C1122.42 223.008 1122.27 223.21 1122.06 223.426C1121.84 223.642 1121.56 223.826 1121.21 223.977C1120.86 224.129 1120.43 224.205 1119.92 224.205ZM1120.12 223C1120.66 223 1121.1 222.896 1121.47 222.688C1121.83 222.479 1122.11 222.21 1122.3 221.881C1122.48 221.551 1122.58 221.205 1122.58 220.841V219.614C1122.52 219.682 1122.4 219.744 1122.2 219.801C1122.02 219.854 1121.8 219.902 1121.55 219.943C1121.3 219.981 1121.06 220.015 1120.82 220.045C1120.59 220.072 1120.41 220.095 1120.26 220.114C1119.91 220.159 1119.59 220.233 1119.28 220.335C1118.98 220.434 1118.74 220.583 1118.56 220.784C1118.38 220.981 1118.28 221.25 1118.28 221.591C1118.28 222.057 1118.46 222.409 1118.8 222.648C1119.15 222.883 1119.59 223 1120.12 223ZM1127.71 212.364V224H1126.37V212.364H1127.71ZM1133.96 215.273V216.409H1129.44V215.273H1133.96ZM1130.76 213.182H1132.1V221.5C1132.1 221.879 1132.15 222.163 1132.26 222.352C1132.38 222.538 1132.52 222.663 1132.69 222.727C1132.87 222.788 1133.06 222.818 1133.26 222.818C1133.4 222.818 1133.52 222.811 1133.62 222.795C1133.71 222.777 1133.79 222.761 1133.85 222.75L1134.12 223.955C1134.03 223.989 1133.9 224.023 1133.74 224.057C1133.58 224.095 1133.37 224.114 1133.12 224.114C1132.74 224.114 1132.37 224.032 1132.01 223.869C1131.65 223.706 1131.35 223.458 1131.11 223.125C1130.87 222.792 1130.76 222.371 1130.76 221.864V213.182Z" fill="white" fill-opacity="0.95"/>
</g>
<mask id="mask6_1022_17131" style="mask-type:alpha" maskUnits="userSpaceOnUse" x="312" y="312" width="124" height="124">
<path fill-rule="evenodd" clip-rule="evenodd" d="M374 436C408.242 436 436 408.242 436 374C436 339.758 408.242 312 374 312C339.758 312 312 339.758 312 374C312 408.242 339.758 436 374 436Z" fill="#262626"/>
</mask>
<g mask="url(#mask6_1022_17131)">
<rect width="124" height="124" transform="translate(312 312)" fill="#535573"/>
<path d="M367.32 367.551C367.169 366.206 366.544 365.165 365.445 364.426C364.347 363.678 362.964 363.304 361.298 363.304C360.104 363.304 359.072 363.493 358.201 363.872C357.33 364.241 356.653 364.753 356.17 365.406C355.696 366.05 355.46 366.784 355.46 367.608C355.46 368.299 355.621 368.896 355.942 369.398C356.274 369.9 356.705 370.321 357.235 370.662C357.775 370.993 358.353 371.273 358.968 371.5C359.584 371.718 360.175 371.898 360.744 372.04L363.585 372.778C364.513 373.006 365.464 373.313 366.44 373.702C367.415 374.09 368.319 374.601 369.153 375.236C369.986 375.87 370.658 376.656 371.17 377.594C371.691 378.531 371.951 379.653 371.951 380.96C371.951 382.608 371.525 384.071 370.673 385.349C369.83 386.628 368.603 387.636 366.994 388.375C365.393 389.114 363.457 389.483 361.184 389.483C359.006 389.483 357.121 389.137 355.531 388.446C353.94 387.755 352.694 386.775 351.795 385.506C350.895 384.227 350.398 382.712 350.303 380.96H354.707C354.792 382.011 355.133 382.887 355.729 383.588C356.335 384.279 357.107 384.795 358.045 385.136C358.992 385.468 360.029 385.634 361.156 385.634C362.396 385.634 363.499 385.439 364.465 385.051C365.441 384.653 366.208 384.104 366.766 383.403C367.325 382.693 367.604 381.865 367.604 380.918C367.604 380.056 367.358 379.35 366.866 378.801C366.383 378.252 365.725 377.797 364.891 377.438C364.067 377.078 363.135 376.76 362.093 376.486L358.656 375.548C356.326 374.914 354.479 373.981 353.116 372.75C351.762 371.519 351.085 369.89 351.085 367.864C351.085 366.187 351.539 364.724 352.448 363.474C353.357 362.224 354.588 361.254 356.141 360.562C357.694 359.862 359.446 359.511 361.397 359.511C363.367 359.511 365.104 359.857 366.61 360.548C368.125 361.24 369.318 362.191 370.19 363.403C371.061 364.606 371.515 365.989 371.553 367.551H367.32ZM393.062 367.551C392.911 366.206 392.286 365.165 391.188 364.426C390.089 363.678 388.706 363.304 387.04 363.304C385.847 363.304 384.814 363.493 383.943 363.872C383.072 364.241 382.395 364.753 381.912 365.406C381.438 366.05 381.202 366.784 381.202 367.608C381.202 368.299 381.363 368.896 381.685 369.398C382.016 369.9 382.447 370.321 382.977 370.662C383.517 370.993 384.095 371.273 384.71 371.5C385.326 371.718 385.918 371.898 386.486 372.04L389.327 372.778C390.255 373.006 391.206 373.313 392.182 373.702C393.157 374.09 394.062 374.601 394.895 375.236C395.728 375.87 396.401 376.656 396.912 377.594C397.433 378.531 397.693 379.653 397.693 380.96C397.693 382.608 397.267 384.071 396.415 385.349C395.572 386.628 394.346 387.636 392.736 388.375C391.135 389.114 389.199 389.483 386.926 389.483C384.748 389.483 382.864 389.137 381.273 388.446C379.682 387.755 378.437 386.775 377.537 385.506C376.637 384.227 376.14 382.712 376.045 380.96H380.449C380.534 382.011 380.875 382.887 381.472 383.588C382.078 384.279 382.849 384.795 383.787 385.136C384.734 385.468 385.771 385.634 386.898 385.634C388.138 385.634 389.241 385.439 390.207 385.051C391.183 384.653 391.95 384.104 392.509 383.403C393.067 382.693 393.347 381.865 393.347 380.918C393.347 380.056 393.1 379.35 392.608 378.801C392.125 378.252 391.467 377.797 390.634 377.438C389.81 377.078 388.877 376.76 387.835 376.486L384.398 375.548C382.068 374.914 380.222 373.981 378.858 372.75C377.504 371.519 376.827 369.89 376.827 367.864C376.827 366.187 377.281 364.724 378.19 363.474C379.099 362.224 380.33 361.254 381.884 360.562C383.437 359.862 385.188 359.511 387.139 359.511C389.109 359.511 390.847 359.857 392.352 360.548C393.867 361.24 395.061 362.191 395.932 363.403C396.803 364.606 397.258 365.989 397.295 367.551H393.062Z" fill="white" fill-opacity="0.95"/>
</g>
<g clip-path="url(#clip6_1022_17131)">
<rect x="342.5" y="456" width="63" height="28" rx="14" fill="#643ABD"/>
<path d="M362.273 467.273C362.205 466.697 361.928 466.25 361.443 465.932C360.958 465.614 360.364 465.455 359.659 465.455C359.144 465.455 358.693 465.538 358.307 465.705C357.924 465.871 357.625 466.1 357.409 466.392C357.197 466.684 357.091 467.015 357.091 467.386C357.091 467.697 357.165 467.964 357.312 468.188C357.464 468.407 357.657 468.591 357.892 468.739C358.127 468.883 358.373 469.002 358.631 469.097C358.888 469.187 359.125 469.261 359.341 469.318L360.523 469.636C360.826 469.716 361.163 469.826 361.534 469.966C361.909 470.106 362.267 470.297 362.608 470.54C362.953 470.778 363.237 471.085 363.46 471.46C363.684 471.835 363.795 472.295 363.795 472.841C363.795 473.47 363.631 474.038 363.301 474.545C362.975 475.053 362.498 475.456 361.869 475.756C361.244 476.055 360.485 476.205 359.591 476.205C358.758 476.205 358.036 476.07 357.426 475.801C356.82 475.532 356.343 475.157 355.994 474.676C355.65 474.195 355.455 473.636 355.409 473H356.864C356.902 473.439 357.049 473.803 357.307 474.091C357.568 474.375 357.898 474.587 358.295 474.727C358.697 474.864 359.129 474.932 359.591 474.932C360.129 474.932 360.612 474.845 361.04 474.67C361.468 474.492 361.807 474.246 362.057 473.932C362.307 473.614 362.432 473.242 362.432 472.818C362.432 472.432 362.324 472.117 362.108 471.875C361.892 471.633 361.608 471.436 361.256 471.284C360.903 471.133 360.523 471 360.114 470.886L358.682 470.477C357.773 470.216 357.053 469.843 356.523 469.358C355.992 468.873 355.727 468.239 355.727 467.455C355.727 466.803 355.903 466.235 356.256 465.75C356.612 465.261 357.089 464.883 357.688 464.614C358.29 464.341 358.962 464.205 359.705 464.205C360.455 464.205 361.121 464.339 361.705 464.608C362.288 464.873 362.75 465.237 363.091 465.699C363.436 466.161 363.617 466.686 363.636 467.273H362.273ZM367.271 464.364V476H365.93V464.364H367.271ZM372.295 476.205C371.742 476.205 371.241 476.1 370.79 475.892C370.339 475.68 369.981 475.375 369.716 474.977C369.451 474.576 369.318 474.091 369.318 473.523C369.318 473.023 369.417 472.617 369.614 472.307C369.811 471.992 370.074 471.746 370.403 471.568C370.733 471.39 371.097 471.258 371.494 471.17C371.896 471.08 372.299 471.008 372.705 470.955C373.235 470.886 373.665 470.835 373.994 470.801C374.328 470.763 374.57 470.701 374.722 470.614C374.877 470.527 374.955 470.375 374.955 470.159V470.114C374.955 469.553 374.801 469.117 374.494 468.807C374.191 468.496 373.731 468.341 373.114 468.341C372.473 468.341 371.972 468.481 371.608 468.761C371.244 469.042 370.989 469.341 370.841 469.659L369.568 469.205C369.795 468.674 370.098 468.261 370.477 467.966C370.86 467.667 371.277 467.458 371.727 467.341C372.182 467.22 372.629 467.159 373.068 467.159C373.348 467.159 373.67 467.193 374.034 467.261C374.402 467.326 374.756 467.46 375.097 467.665C375.441 467.869 375.727 468.178 375.955 468.591C376.182 469.004 376.295 469.557 376.295 470.25V476H374.955V474.818H374.886C374.795 475.008 374.644 475.21 374.432 475.426C374.22 475.642 373.938 475.826 373.585 475.977C373.233 476.129 372.803 476.205 372.295 476.205ZM372.5 475C373.03 475 373.477 474.896 373.841 474.688C374.208 474.479 374.485 474.21 374.67 473.881C374.86 473.551 374.955 473.205 374.955 472.841V471.614C374.898 471.682 374.773 471.744 374.58 471.801C374.39 471.854 374.17 471.902 373.92 471.943C373.674 471.981 373.434 472.015 373.199 472.045C372.968 472.072 372.78 472.095 372.636 472.114C372.288 472.159 371.962 472.233 371.659 472.335C371.36 472.434 371.117 472.583 370.932 472.784C370.75 472.981 370.659 473.25 370.659 473.591C370.659 474.057 370.831 474.409 371.176 474.648C371.525 474.883 371.966 475 372.5 475ZM382.538 467.273V468.409H378.016V467.273H382.538ZM379.334 465.182H380.675V473.5C380.675 473.879 380.73 474.163 380.839 474.352C380.953 474.538 381.097 474.663 381.271 474.727C381.449 474.788 381.637 474.818 381.834 474.818C381.982 474.818 382.103 474.811 382.197 474.795C382.292 474.777 382.368 474.761 382.425 474.75L382.697 475.955C382.607 475.989 382.48 476.023 382.317 476.057C382.154 476.095 381.947 476.114 381.697 476.114C381.319 476.114 380.947 476.032 380.584 475.869C380.224 475.706 379.925 475.458 379.686 475.125C379.451 474.792 379.334 474.371 379.334 473.864V465.182ZM388.121 476.182C387.28 476.182 386.554 475.996 385.945 475.625C385.339 475.25 384.871 474.727 384.541 474.057C384.215 473.383 384.053 472.598 384.053 471.705C384.053 470.811 384.215 470.023 384.541 469.341C384.871 468.655 385.329 468.121 385.916 467.739C386.507 467.352 387.196 467.159 387.984 467.159C388.439 467.159 388.888 467.235 389.331 467.386C389.774 467.538 390.178 467.784 390.541 468.125C390.905 468.462 391.195 468.909 391.411 469.466C391.626 470.023 391.734 470.708 391.734 471.523V472.091H385.007V470.932H390.371C390.371 470.439 390.272 470 390.075 469.614C389.882 469.227 389.606 468.922 389.246 468.699C388.89 468.475 388.469 468.364 387.984 468.364C387.45 468.364 386.988 468.496 386.598 468.761C386.212 469.023 385.914 469.364 385.706 469.784C385.498 470.205 385.393 470.655 385.393 471.136V471.909C385.393 472.568 385.507 473.127 385.734 473.585C385.965 474.04 386.286 474.386 386.695 474.625C387.104 474.86 387.579 474.977 388.121 474.977C388.473 474.977 388.791 474.928 389.075 474.83C389.363 474.727 389.611 474.576 389.82 474.375C390.028 474.17 390.189 473.917 390.303 473.614L391.598 473.977C391.462 474.417 391.232 474.803 390.911 475.136C390.589 475.466 390.191 475.723 389.717 475.909C389.244 476.091 388.712 476.182 388.121 476.182Z" fill="white" fill-opacity="0.95"/>
</g>
<mask id="mask7_1022_17131" style="mask-type:alpha" maskUnits="userSpaceOnUse" x="496" y="312" width="124" height="124">
<path fill-rule="evenodd" clip-rule="evenodd" d="M558 436C592.242 436 620 408.242 620 374C620 339.758 592.242 312 558 312C523.758 312 496 339.758 496 374C496 408.242 523.758 436 558 436Z" fill="#262626"/>
</mask>
<g mask="url(#mask7_1022_17131)">
<rect width="124" height="124" transform="translate(496 312)" fill="#643ABD"/>
<path d="M551.32 367.551C551.169 366.206 550.544 365.165 549.445 364.426C548.347 363.678 546.964 363.304 545.298 363.304C544.104 363.304 543.072 363.493 542.201 363.872C541.33 364.241 540.653 364.753 540.17 365.406C539.696 366.05 539.46 366.784 539.46 367.608C539.46 368.299 539.621 368.896 539.942 369.398C540.274 369.9 540.705 370.321 541.235 370.662C541.775 370.993 542.353 371.273 542.968 371.5C543.584 371.718 544.175 371.898 544.744 372.04L547.585 372.778C548.513 373.006 549.464 373.313 550.44 373.702C551.415 374.09 552.319 374.601 553.153 375.236C553.986 375.87 554.658 376.656 555.17 377.594C555.691 378.531 555.951 379.653 555.951 380.96C555.951 382.608 555.525 384.071 554.673 385.349C553.83 386.628 552.603 387.636 550.994 388.375C549.393 389.114 547.457 389.483 545.184 389.483C543.006 389.483 541.121 389.137 539.531 388.446C537.94 387.755 536.694 386.775 535.795 385.506C534.895 384.227 534.398 382.712 534.303 380.96H538.707C538.792 382.011 539.133 382.887 539.729 383.588C540.335 384.279 541.107 384.795 542.045 385.136C542.992 385.468 544.029 385.634 545.156 385.634C546.396 385.634 547.499 385.439 548.465 385.051C549.441 384.653 550.208 384.104 550.766 383.403C551.325 382.693 551.604 381.865 551.604 380.918C551.604 380.056 551.358 379.35 550.866 378.801C550.383 378.252 549.725 377.797 548.891 377.438C548.067 377.078 547.135 376.76 546.093 376.486L542.656 375.548C540.326 374.914 538.479 373.981 537.116 372.75C535.762 371.519 535.085 369.89 535.085 367.864C535.085 366.187 535.539 364.724 536.448 363.474C537.357 362.224 538.588 361.254 540.141 360.562C541.694 359.862 543.446 359.511 545.397 359.511C547.367 359.511 549.104 359.857 550.61 360.548C552.125 361.24 553.318 362.191 554.19 363.403C555.061 364.606 555.515 365.989 555.553 367.551H551.32ZM577.062 367.551C576.911 366.206 576.286 365.165 575.188 364.426C574.089 363.678 572.706 363.304 571.04 363.304C569.847 363.304 568.814 363.493 567.943 363.872C567.072 364.241 566.395 364.753 565.912 365.406C565.438 366.05 565.202 366.784 565.202 367.608C565.202 368.299 565.363 368.896 565.685 369.398C566.016 369.9 566.447 370.321 566.977 370.662C567.517 370.993 568.095 371.273 568.71 371.5C569.326 371.718 569.918 371.898 570.486 372.04L573.327 372.778C574.255 373.006 575.206 373.313 576.182 373.702C577.157 374.09 578.062 374.601 578.895 375.236C579.728 375.87 580.401 376.656 580.912 377.594C581.433 378.531 581.693 379.653 581.693 380.96C581.693 382.608 581.267 384.071 580.415 385.349C579.572 386.628 578.346 387.636 576.736 388.375C575.135 389.114 573.199 389.483 570.926 389.483C568.748 389.483 566.864 389.137 565.273 388.446C563.682 387.755 562.437 386.775 561.537 385.506C560.637 384.227 560.14 382.712 560.045 380.96H564.449C564.534 382.011 564.875 382.887 565.472 383.588C566.078 384.279 566.849 384.795 567.787 385.136C568.734 385.468 569.771 385.634 570.898 385.634C572.138 385.634 573.241 385.439 574.207 385.051C575.183 384.653 575.95 384.104 576.509 383.403C577.067 382.693 577.347 381.865 577.347 380.918C577.347 380.056 577.1 379.35 576.608 378.801C576.125 378.252 575.467 377.797 574.634 377.438C573.81 377.078 572.877 376.76 571.835 376.486L568.398 375.548C566.068 374.914 564.222 373.981 562.858 372.75C561.504 371.519 560.827 369.89 560.827 367.864C560.827 366.187 561.281 364.724 562.19 363.474C563.099 362.224 564.33 361.254 565.884 360.562C567.437 359.862 569.188 359.511 571.139 359.511C573.109 359.511 574.847 359.857 576.352 360.548C577.867 361.24 579.061 362.191 579.932 363.403C580.803 364.606 581.258 365.989 581.295 367.551H577.062Z" fill="white" fill-opacity="0.95"/>
</g>
<g clip-path="url(#clip7_1022_17131)">
<rect x="524" y="456" width="68" height="28" rx="14" fill="#643ABD"/>
<path d="M537.886 464.364L541.341 474.159H541.477L544.932 464.364H546.409L542.136 476H540.682L536.409 464.364H537.886ZM548.04 476V467.273H549.381V476H548.04ZM548.722 465.818C548.46 465.818 548.235 465.729 548.045 465.551C547.86 465.373 547.767 465.159 547.767 464.909C547.767 464.659 547.86 464.445 548.045 464.267C548.235 464.089 548.46 464 548.722 464C548.983 464 549.206 464.089 549.392 464.267C549.581 464.445 549.676 464.659 549.676 464.909C549.676 465.159 549.581 465.373 549.392 465.551C549.206 465.729 548.983 465.818 548.722 465.818ZM555.382 476.182C554.594 476.182 553.903 475.994 553.308 475.619C552.717 475.244 552.255 474.72 551.922 474.045C551.592 473.371 551.428 472.583 551.428 471.682C551.428 470.773 551.592 469.979 551.922 469.301C552.255 468.623 552.717 468.097 553.308 467.722C553.903 467.347 554.594 467.159 555.382 467.159C556.17 467.159 556.859 467.347 557.45 467.722C558.045 468.097 558.507 468.623 558.837 469.301C559.17 469.979 559.337 470.773 559.337 471.682C559.337 472.583 559.17 473.371 558.837 474.045C558.507 474.72 558.045 475.244 557.45 475.619C556.859 475.994 556.17 476.182 555.382 476.182ZM555.382 474.977C555.981 474.977 556.473 474.824 556.859 474.517C557.246 474.21 557.532 473.807 557.717 473.307C557.903 472.807 557.996 472.265 557.996 471.682C557.996 471.098 557.903 470.555 557.717 470.051C557.532 469.547 557.246 469.14 556.859 468.83C556.473 468.519 555.981 468.364 555.382 468.364C554.784 468.364 554.291 468.519 553.905 468.83C553.518 469.14 553.232 469.547 553.047 470.051C552.861 470.555 552.768 471.098 552.768 471.682C552.768 472.265 552.861 472.807 553.047 473.307C553.232 473.807 553.518 474.21 553.905 474.517C554.291 474.824 554.784 474.977 555.382 474.977ZM562.724 464.364V476H561.384V464.364H562.724ZM568.839 476.182C567.999 476.182 567.273 475.996 566.663 475.625C566.057 475.25 565.589 474.727 565.26 474.057C564.934 473.383 564.771 472.598 564.771 471.705C564.771 470.811 564.934 470.023 565.26 469.341C565.589 468.655 566.048 468.121 566.635 467.739C567.226 467.352 567.915 467.159 568.703 467.159C569.158 467.159 569.607 467.235 570.05 467.386C570.493 467.538 570.896 467.784 571.26 468.125C571.624 468.462 571.913 468.909 572.129 469.466C572.345 470.023 572.453 470.708 572.453 471.523V472.091H565.726V470.932H571.089C571.089 470.439 570.991 470 570.794 469.614C570.601 469.227 570.324 468.922 569.964 468.699C569.608 468.475 569.188 468.364 568.703 468.364C568.169 468.364 567.707 468.496 567.317 468.761C566.93 469.023 566.633 469.364 566.425 469.784C566.216 470.205 566.112 470.655 566.112 471.136V471.909C566.112 472.568 566.226 473.127 566.453 473.585C566.684 474.04 567.004 474.386 567.413 474.625C567.822 474.86 568.298 474.977 568.839 474.977C569.192 474.977 569.51 474.928 569.794 474.83C570.082 474.727 570.33 474.576 570.538 474.375C570.747 474.17 570.908 473.917 571.021 473.614L572.317 473.977C572.18 474.417 571.951 474.803 571.629 475.136C571.307 475.466 570.91 475.723 570.436 475.909C569.963 476.091 569.43 476.182 568.839 476.182ZM578.288 467.273V468.409H573.766V467.273H578.288ZM575.084 465.182H576.425V473.5C576.425 473.879 576.48 474.163 576.589 474.352C576.703 474.538 576.847 474.663 577.021 474.727C577.199 474.788 577.387 474.818 577.584 474.818C577.732 474.818 577.853 474.811 577.947 474.795C578.042 474.777 578.118 474.761 578.175 474.75L578.447 475.955C578.357 475.989 578.23 476.023 578.067 476.057C577.904 476.095 577.697 476.114 577.447 476.114C577.069 476.114 576.697 476.032 576.334 475.869C575.974 475.706 575.675 475.458 575.436 475.125C575.201 474.792 575.084 474.371 575.084 473.864V465.182Z" fill="white" fill-opacity="0.95"/>
</g>
<mask id="mask8_1022_17131" style="mask-type:alpha" maskUnits="userSpaceOnUse" x="680" y="312" width="124" height="124">
<path fill-rule="evenodd" clip-rule="evenodd" d="M742 436C776.242 436 804 408.242 804 374C804 339.758 776.242 312 742 312C707.758 312 680 339.758 680 374C680 408.242 707.758 436 742 436Z" fill="#262626"/>
</mask>
<g mask="url(#mask8_1022_17131)">
<rect width="124" height="124" transform="translate(680 312)" fill="#932099"/>
<path d="M735.32 367.551C735.169 366.206 734.544 365.165 733.445 364.426C732.347 363.678 730.964 363.304 729.298 363.304C728.104 363.304 727.072 363.493 726.201 363.872C725.33 364.241 724.653 364.753 724.17 365.406C723.696 366.05 723.46 366.784 723.46 367.608C723.46 368.299 723.621 368.896 723.942 369.398C724.274 369.9 724.705 370.321 725.235 370.662C725.775 370.993 726.353 371.273 726.968 371.5C727.584 371.718 728.175 371.898 728.744 372.04L731.585 372.778C732.513 373.006 733.464 373.313 734.44 373.702C735.415 374.09 736.319 374.601 737.153 375.236C737.986 375.87 738.658 376.656 739.17 377.594C739.691 378.531 739.951 379.653 739.951 380.96C739.951 382.608 739.525 384.071 738.673 385.349C737.83 386.628 736.603 387.636 734.994 388.375C733.393 389.114 731.457 389.483 729.184 389.483C727.006 389.483 725.121 389.137 723.531 388.446C721.94 387.755 720.694 386.775 719.795 385.506C718.895 384.227 718.398 382.712 718.303 380.96H722.707C722.792 382.011 723.133 382.887 723.729 383.588C724.335 384.279 725.107 384.795 726.045 385.136C726.992 385.468 728.029 385.634 729.156 385.634C730.396 385.634 731.499 385.439 732.465 385.051C733.441 384.653 734.208 384.104 734.766 383.403C735.325 382.693 735.604 381.865 735.604 380.918C735.604 380.056 735.358 379.35 734.866 378.801C734.383 378.252 733.725 377.797 732.891 377.438C732.067 377.078 731.135 376.76 730.093 376.486L726.656 375.548C724.326 374.914 722.479 373.981 721.116 372.75C719.762 371.519 719.085 369.89 719.085 367.864C719.085 366.187 719.539 364.724 720.448 363.474C721.357 362.224 722.588 361.254 724.141 360.562C725.694 359.862 727.446 359.511 729.397 359.511C731.367 359.511 733.104 359.857 734.61 360.548C736.125 361.24 737.318 362.191 738.19 363.403C739.061 364.606 739.515 365.989 739.553 367.551H735.32ZM761.062 367.551C760.911 366.206 760.286 365.165 759.188 364.426C758.089 363.678 756.706 363.304 755.04 363.304C753.847 363.304 752.814 363.493 751.943 363.872C751.072 364.241 750.395 364.753 749.912 365.406C749.438 366.05 749.202 366.784 749.202 367.608C749.202 368.299 749.363 368.896 749.685 369.398C750.016 369.9 750.447 370.321 750.977 370.662C751.517 370.993 752.095 371.273 752.71 371.5C753.326 371.718 753.918 371.898 754.486 372.04L757.327 372.778C758.255 373.006 759.206 373.313 760.182 373.702C761.157 374.09 762.062 374.601 762.895 375.236C763.728 375.87 764.401 376.656 764.912 377.594C765.433 378.531 765.693 379.653 765.693 380.96C765.693 382.608 765.267 384.071 764.415 385.349C763.572 386.628 762.346 387.636 760.736 388.375C759.135 389.114 757.199 389.483 754.926 389.483C752.748 389.483 750.864 389.137 749.273 388.446C747.682 387.755 746.437 386.775 745.537 385.506C744.637 384.227 744.14 382.712 744.045 380.96H748.449C748.534 382.011 748.875 382.887 749.472 383.588C750.078 384.279 750.849 384.795 751.787 385.136C752.734 385.468 753.771 385.634 754.898 385.634C756.138 385.634 757.241 385.439 758.207 385.051C759.183 384.653 759.95 384.104 760.509 383.403C761.067 382.693 761.347 381.865 761.347 380.918C761.347 380.056 761.1 379.35 760.608 378.801C760.125 378.252 759.467 377.797 758.634 377.438C757.81 377.078 756.877 376.76 755.835 376.486L752.398 375.548C750.068 374.914 748.222 373.981 746.858 372.75C745.504 371.519 744.827 369.89 744.827 367.864C744.827 366.187 745.281 364.724 746.19 363.474C747.099 362.224 748.33 361.254 749.884 360.562C751.437 359.862 753.188 359.511 755.139 359.511C757.109 359.511 758.847 359.857 760.352 360.548C761.867 361.24 763.061 362.191 763.932 363.403C764.803 364.606 765.258 365.989 765.295 367.551H761.062Z" fill="white" fill-opacity="0.95"/>
</g>
<g clip-path="url(#clip8_1022_17131)">
<rect x="705.5" y="456" width="73" height="28" rx="14" fill="#643ABD"/>
<path d="M718.909 476V464.364H722.841C723.754 464.364 724.5 464.528 725.08 464.858C725.663 465.184 726.095 465.625 726.375 466.182C726.655 466.739 726.795 467.36 726.795 468.045C726.795 468.731 726.655 469.354 726.375 469.915C726.098 470.475 725.67 470.922 725.091 471.256C724.511 471.585 723.769 471.75 722.864 471.75H720.045V470.5H722.818C723.443 470.5 723.945 470.392 724.324 470.176C724.703 469.96 724.977 469.669 725.148 469.301C725.322 468.93 725.409 468.511 725.409 468.045C725.409 467.58 725.322 467.163 725.148 466.795C724.977 466.428 724.701 466.14 724.318 465.932C723.936 465.72 723.428 465.614 722.795 465.614H720.318V476H718.909ZM734.384 472.432V467.273H735.724V476H734.384V474.523H734.293C734.088 474.966 733.77 475.343 733.338 475.653C732.906 475.96 732.361 476.114 731.702 476.114C731.156 476.114 730.671 475.994 730.247 475.756C729.823 475.513 729.49 475.15 729.247 474.665C729.005 474.176 728.884 473.561 728.884 472.818V467.273H730.224V472.727C730.224 473.364 730.402 473.871 730.759 474.25C731.118 474.629 731.577 474.818 732.134 474.818C732.467 474.818 732.806 474.733 733.151 474.562C733.499 474.392 733.791 474.131 734.026 473.778C734.264 473.426 734.384 472.977 734.384 472.432ZM738.18 476V467.273H739.476V468.591H739.567C739.726 468.159 740.014 467.809 740.43 467.54C740.847 467.271 741.317 467.136 741.839 467.136C741.938 467.136 742.061 467.138 742.209 467.142C742.357 467.146 742.468 467.152 742.544 467.159V468.523C742.499 468.511 742.394 468.494 742.232 468.472C742.072 468.445 741.904 468.432 741.726 468.432C741.302 468.432 740.923 468.521 740.589 468.699C740.26 468.873 739.999 469.116 739.805 469.426C739.616 469.733 739.521 470.083 739.521 470.477V476H738.18ZM744.134 479.273V467.273H745.429V468.659H745.588C745.687 468.508 745.823 468.314 745.997 468.08C746.175 467.841 746.429 467.629 746.759 467.443C747.092 467.254 747.543 467.159 748.111 467.159C748.846 467.159 749.493 467.343 750.054 467.71C750.615 468.078 751.052 468.598 751.366 469.273C751.681 469.947 751.838 470.742 751.838 471.659C751.838 472.583 751.681 473.384 751.366 474.062C751.052 474.737 750.616 475.259 750.06 475.631C749.503 475.998 748.861 476.182 748.134 476.182C747.573 476.182 747.124 476.089 746.787 475.903C746.45 475.714 746.19 475.5 746.009 475.261C745.827 475.019 745.687 474.818 745.588 474.659H745.474V479.273H744.134ZM745.452 471.636C745.452 472.295 745.548 472.877 745.741 473.381C745.935 473.881 746.217 474.273 746.588 474.557C746.959 474.837 747.414 474.977 747.952 474.977C748.512 474.977 748.98 474.83 749.355 474.534C749.734 474.235 750.018 473.833 750.207 473.33C750.401 472.822 750.497 472.258 750.497 471.636C750.497 471.023 750.402 470.47 750.213 469.977C750.027 469.481 749.745 469.089 749.366 468.801C748.991 468.509 748.52 468.364 747.952 468.364C747.406 468.364 746.948 468.502 746.577 468.778C746.205 469.051 745.925 469.434 745.736 469.926C745.546 470.415 745.452 470.985 745.452 471.636ZM755.224 464.364V476H753.884V464.364H755.224ZM761.339 476.182C760.499 476.182 759.773 475.996 759.163 475.625C758.557 475.25 758.089 474.727 757.76 474.057C757.434 473.383 757.271 472.598 757.271 471.705C757.271 470.811 757.434 470.023 757.76 469.341C758.089 468.655 758.548 468.121 759.135 467.739C759.726 467.352 760.415 467.159 761.203 467.159C761.658 467.159 762.107 467.235 762.55 467.386C762.993 467.538 763.396 467.784 763.76 468.125C764.124 468.462 764.413 468.909 764.629 469.466C764.845 470.023 764.953 470.708 764.953 471.523V472.091H758.226V470.932H763.589C763.589 470.439 763.491 470 763.294 469.614C763.101 469.227 762.824 468.922 762.464 468.699C762.108 468.475 761.688 468.364 761.203 468.364C760.669 468.364 760.207 468.496 759.817 468.761C759.43 469.023 759.133 469.364 758.925 469.784C758.716 470.205 758.612 470.655 758.612 471.136V471.909C758.612 472.568 758.726 473.127 758.953 473.585C759.184 474.04 759.504 474.386 759.913 474.625C760.322 474.86 760.798 474.977 761.339 474.977C761.692 474.977 762.01 474.928 762.294 474.83C762.582 474.727 762.83 474.576 763.038 474.375C763.247 474.17 763.408 473.917 763.521 473.614L764.817 473.977C764.68 474.417 764.451 474.803 764.129 475.136C763.807 475.466 763.41 475.723 762.936 475.909C762.463 476.091 761.93 476.182 761.339 476.182Z" fill="white" fill-opacity="0.95"/>
</g>
<mask id="mask9_1022_17131" style="mask-type:alpha" maskUnits="userSpaceOnUse" x="864" y="312" width="124" height="124">
<path fill-rule="evenodd" clip-rule="evenodd" d="M926 436C960.242 436 988 408.242 988 374C988 339.758 960.242 312 926 312C891.758 312 864 339.758 864 374C864 408.242 891.758 436 926 436Z" fill="#262626"/>
</mask>
<g mask="url(#mask9_1022_17131)">
<rect width="124" height="124" transform="translate(864 312)" fill="#9C3202"/>
<path d="M919.32 367.551C919.169 366.206 918.544 365.165 917.445 364.426C916.347 363.678 914.964 363.304 913.298 363.304C912.104 363.304 911.072 363.493 910.201 363.872C909.33 364.241 908.653 364.753 908.17 365.406C907.696 366.05 907.46 366.784 907.46 367.608C907.46 368.299 907.621 368.896 907.942 369.398C908.274 369.9 908.705 370.321 909.235 370.662C909.775 370.993 910.353 371.273 910.968 371.5C911.584 371.718 912.175 371.898 912.744 372.04L915.585 372.778C916.513 373.006 917.464 373.313 918.44 373.702C919.415 374.09 920.319 374.601 921.153 375.236C921.986 375.87 922.658 376.656 923.17 377.594C923.691 378.531 923.951 379.653 923.951 380.96C923.951 382.608 923.525 384.071 922.673 385.349C921.83 386.628 920.603 387.636 918.994 388.375C917.393 389.114 915.457 389.483 913.184 389.483C911.006 389.483 909.121 389.137 907.531 388.446C905.94 387.755 904.694 386.775 903.795 385.506C902.895 384.227 902.398 382.712 902.303 380.96H906.707C906.792 382.011 907.133 382.887 907.729 383.588C908.335 384.279 909.107 384.795 910.045 385.136C910.992 385.468 912.029 385.634 913.156 385.634C914.396 385.634 915.499 385.439 916.465 385.051C917.441 384.653 918.208 384.104 918.766 383.403C919.325 382.693 919.604 381.865 919.604 380.918C919.604 380.056 919.358 379.35 918.866 378.801C918.383 378.252 917.725 377.797 916.891 377.438C916.067 377.078 915.135 376.76 914.093 376.486L910.656 375.548C908.326 374.914 906.479 373.981 905.116 372.75C903.762 371.519 903.085 369.89 903.085 367.864C903.085 366.187 903.539 364.724 904.448 363.474C905.357 362.224 906.588 361.254 908.141 360.562C909.694 359.862 911.446 359.511 913.397 359.511C915.367 359.511 917.104 359.857 918.61 360.548C920.125 361.24 921.318 362.191 922.19 363.403C923.061 364.606 923.515 365.989 923.553 367.551H919.32ZM945.062 367.551C944.911 366.206 944.286 365.165 943.188 364.426C942.089 363.678 940.706 363.304 939.04 363.304C937.847 363.304 936.814 363.493 935.943 363.872C935.072 364.241 934.395 364.753 933.912 365.406C933.438 366.05 933.202 366.784 933.202 367.608C933.202 368.299 933.363 368.896 933.685 369.398C934.016 369.9 934.447 370.321 934.977 370.662C935.517 370.993 936.095 371.273 936.71 371.5C937.326 371.718 937.918 371.898 938.486 372.04L941.327 372.778C942.255 373.006 943.206 373.313 944.182 373.702C945.157 374.09 946.062 374.601 946.895 375.236C947.728 375.87 948.401 376.656 948.912 377.594C949.433 378.531 949.693 379.653 949.693 380.96C949.693 382.608 949.267 384.071 948.415 385.349C947.572 386.628 946.346 387.636 944.736 388.375C943.135 389.114 941.199 389.483 938.926 389.483C936.748 389.483 934.864 389.137 933.273 388.446C931.682 387.755 930.437 386.775 929.537 385.506C928.637 384.227 928.14 382.712 928.045 380.96H932.449C932.534 382.011 932.875 382.887 933.472 383.588C934.078 384.279 934.849 384.795 935.787 385.136C936.734 385.468 937.771 385.634 938.898 385.634C940.138 385.634 941.241 385.439 942.207 385.051C943.183 384.653 943.95 384.104 944.509 383.403C945.067 382.693 945.347 381.865 945.347 380.918C945.347 380.056 945.1 379.35 944.608 378.801C944.125 378.252 943.467 377.797 942.634 377.438C941.81 377.078 940.877 376.76 939.835 376.486L936.398 375.548C934.068 374.914 932.222 373.981 930.858 372.75C929.504 371.519 928.827 369.89 928.827 367.864C928.827 366.187 929.281 364.724 930.19 363.474C931.099 362.224 932.33 361.254 933.884 360.562C935.437 359.862 937.188 359.511 939.139 359.511C941.109 359.511 942.847 359.857 944.352 360.548C945.867 361.24 947.061 362.191 947.932 363.403C948.803 364.606 949.258 365.989 949.295 367.551H945.062Z" fill="white" fill-opacity="0.95"/>
</g>
<g clip-path="url(#clip9_1022_17131)">
<rect x="897.5" y="456" width="57" height="28" rx="14" fill="#643ABD"/>
<path d="M910.909 476V464.364H914.841C915.754 464.364 916.5 464.528 917.08 464.858C917.663 465.184 918.095 465.625 918.375 466.182C918.655 466.739 918.795 467.36 918.795 468.045C918.795 468.731 918.655 469.354 918.375 469.915C918.098 470.475 917.67 470.922 917.091 471.256C916.511 471.585 915.769 471.75 914.864 471.75H912.045V470.5H914.818C915.443 470.5 915.945 470.392 916.324 470.176C916.703 469.96 916.977 469.669 917.148 469.301C917.322 468.93 917.409 468.511 917.409 468.045C917.409 467.58 917.322 467.163 917.148 466.795C916.977 466.428 916.701 466.14 916.318 465.932C915.936 465.72 915.428 465.614 914.795 465.614H912.318V476H910.909ZM920.884 476V467.273H922.224V476H920.884ZM921.565 465.818C921.304 465.818 921.079 465.729 920.889 465.551C920.704 465.373 920.611 465.159 920.611 464.909C920.611 464.659 920.704 464.445 920.889 464.267C921.079 464.089 921.304 464 921.565 464C921.827 464 922.05 464.089 922.236 464.267C922.425 464.445 922.52 464.659 922.52 464.909C922.52 465.159 922.425 465.373 922.236 465.551C922.05 465.729 921.827 465.818 921.565 465.818ZM926.021 470.75V476H924.68V467.273H925.976V468.636H926.089C926.294 468.193 926.605 467.837 927.021 467.568C927.438 467.295 927.976 467.159 928.635 467.159C929.226 467.159 929.743 467.28 930.186 467.523C930.629 467.761 930.974 468.125 931.22 468.614C931.466 469.098 931.589 469.712 931.589 470.455V476H930.249V470.545C930.249 469.86 930.071 469.326 929.714 468.943C929.358 468.557 928.87 468.364 928.249 468.364C927.821 468.364 927.438 468.456 927.101 468.642C926.768 468.828 926.504 469.098 926.311 469.455C926.118 469.811 926.021 470.242 926.021 470.75ZM935.29 472.818L935.267 471.159H935.54L939.358 467.273H941.017L936.949 471.386H936.835L935.29 472.818ZM934.04 476V464.364H935.381V476H934.04ZM939.585 476L936.176 471.682L937.131 470.75L941.29 476H939.585Z" fill="white" fill-opacity="0.95"/>
</g>
<defs>
<clipPath id="clip0_1022_17131">
<rect width="79" height="28" fill="white" transform="translate(150.5 204)"/>
</clipPath>
<clipPath id="clip1_1022_17131">
<rect width="60" height="28" fill="white" transform="translate(344 204)"/>
</clipPath>
<clipPath id="clip2_1022_17131">
<rect width="61" height="28" fill="white" transform="translate(527.5 204)"/>
</clipPath>
<clipPath id="clip3_1022_17131">
<rect width="58" height="28" fill="white" transform="translate(713 204)"/>
</clipPath>
<clipPath id="clip4_1022_17131">
<rect width="63" height="28" fill="white" transform="translate(894.5 204)"/>
</clipPath>
<clipPath id="clip5_1022_17131">
<rect width="74" height="28" fill="white" transform="translate(1073 204)"/>
</clipPath>
<clipPath id="clip6_1022_17131">
<rect width="63" height="28" fill="white" transform="translate(342.5 456)"/>
</clipPath>
<clipPath id="clip7_1022_17131">
<rect width="68" height="28" fill="white" transform="translate(524 456)"/>
</clipPath>
<clipPath id="clip8_1022_17131">
<rect width="73" height="28" fill="white" transform="translate(705.5 456)"/>
</clipPath>
<clipPath id="clip9_1022_17131">
<rect width="57" height="28" fill="white" transform="translate(897.5 456)"/>
</clipPath>
</defs>
</svg>
