<svg width="1300" height="348" viewBox="0 0 1300 348" fill="none" xmlns="http://www.w3.org/2000/svg">
<rect width="1300" height="348" rx="20" fill="#262626"/>
<rect width="4" height="80" transform="translate(595.5 64)" fill="white" fill-opacity="0.3"/>
<g clip-path="url(#clip0_1027_69296)">
<path d="M597.5 264V172" stroke="#932099"/>
<path d="M597.5 164L593.5 172H601.5L597.5 164Z" fill="#932099"/>
<rect x="566.5" y="256" width="62" height="28" rx="14" fill="#932099"/>
<path d="M586.273 267.273C586.205 266.697 585.928 266.25 585.443 265.932C584.958 265.614 584.364 265.455 583.659 265.455C583.144 265.455 582.693 265.538 582.307 265.705C581.924 265.871 581.625 266.1 581.409 266.392C581.197 266.684 581.091 267.015 581.091 267.386C581.091 267.697 581.165 267.964 581.312 268.188C581.464 268.407 581.657 268.591 581.892 268.739C582.127 268.883 582.373 269.002 582.631 269.097C582.888 269.187 583.125 269.261 583.341 269.318L584.523 269.636C584.826 269.716 585.163 269.826 585.534 269.966C585.909 270.106 586.267 270.297 586.608 270.54C586.953 270.778 587.237 271.085 587.46 271.46C587.684 271.835 587.795 272.295 587.795 272.841C587.795 273.47 587.631 274.038 587.301 274.545C586.975 275.053 586.498 275.456 585.869 275.756C585.244 276.055 584.485 276.205 583.591 276.205C582.758 276.205 582.036 276.07 581.426 275.801C580.82 275.532 580.343 275.157 579.994 274.676C579.65 274.195 579.455 273.636 579.409 273H580.864C580.902 273.439 581.049 273.803 581.307 274.091C581.568 274.375 581.898 274.587 582.295 274.727C582.697 274.864 583.129 274.932 583.591 274.932C584.129 274.932 584.612 274.845 585.04 274.67C585.468 274.492 585.807 274.246 586.057 273.932C586.307 273.614 586.432 273.242 586.432 272.818C586.432 272.432 586.324 272.117 586.108 271.875C585.892 271.633 585.608 271.436 585.256 271.284C584.903 271.133 584.523 271 584.114 270.886L582.682 270.477C581.773 270.216 581.053 269.843 580.523 269.358C579.992 268.873 579.727 268.239 579.727 267.455C579.727 266.803 579.903 266.235 580.256 265.75C580.612 265.261 581.089 264.883 581.688 264.614C582.29 264.341 582.962 264.205 583.705 264.205C584.455 264.205 585.121 264.339 585.705 264.608C586.288 264.873 586.75 265.237 587.091 265.699C587.436 266.161 587.617 266.686 587.636 267.273H586.273ZM593.476 276.182C592.688 276.182 591.997 275.994 591.402 275.619C590.811 275.244 590.349 274.72 590.016 274.045C589.686 273.371 589.521 272.583 589.521 271.682C589.521 270.773 589.686 269.979 590.016 269.301C590.349 268.623 590.811 268.097 591.402 267.722C591.997 267.347 592.688 267.159 593.476 267.159C594.264 267.159 594.953 267.347 595.544 267.722C596.139 268.097 596.601 268.623 596.93 269.301C597.264 269.979 597.43 270.773 597.43 271.682C597.43 272.583 597.264 273.371 596.93 274.045C596.601 274.72 596.139 275.244 595.544 275.619C594.953 275.994 594.264 276.182 593.476 276.182ZM593.476 274.977C594.074 274.977 594.567 274.824 594.953 274.517C595.339 274.21 595.625 273.807 595.811 273.307C595.997 272.807 596.089 272.265 596.089 271.682C596.089 271.098 595.997 270.555 595.811 270.051C595.625 269.547 595.339 269.14 594.953 268.83C594.567 268.519 594.074 268.364 593.476 268.364C592.877 268.364 592.385 268.519 591.999 268.83C591.612 269.14 591.326 269.547 591.141 270.051C590.955 270.555 590.862 271.098 590.862 271.682C590.862 272.265 590.955 272.807 591.141 273.307C591.326 273.807 591.612 274.21 591.999 274.517C592.385 274.824 592.877 274.977 593.476 274.977ZM600.818 264.364V276H599.477V264.364H600.818ZM603.274 276V267.273H604.615V276H603.274ZM603.956 265.818C603.695 265.818 603.469 265.729 603.28 265.551C603.094 265.373 603.001 265.159 603.001 264.909C603.001 264.659 603.094 264.445 603.28 264.267C603.469 264.089 603.695 264 603.956 264C604.217 264 604.441 264.089 604.626 264.267C604.816 264.445 604.911 264.659 604.911 264.909C604.911 265.159 604.816 265.373 604.626 265.551C604.441 265.729 604.217 265.818 603.956 265.818ZM610.366 276.182C609.639 276.182 608.997 275.998 608.44 275.631C607.884 275.259 607.448 274.737 607.134 274.062C606.819 273.384 606.662 272.583 606.662 271.659C606.662 270.742 606.819 269.947 607.134 269.273C607.448 268.598 607.885 268.078 608.446 267.71C609.007 267.343 609.654 267.159 610.389 267.159C610.957 267.159 611.406 267.254 611.736 267.443C612.069 267.629 612.323 267.841 612.497 268.08C612.675 268.314 612.813 268.508 612.912 268.659H613.026V264.364H614.366V276H613.071V274.659H612.912C612.813 274.818 612.673 275.019 612.491 275.261C612.31 275.5 612.05 275.714 611.713 275.903C611.376 276.089 610.927 276.182 610.366 276.182ZM610.548 274.977C611.086 274.977 611.541 274.837 611.912 274.557C612.283 274.273 612.565 273.881 612.759 273.381C612.952 272.877 613.048 272.295 613.048 271.636C613.048 270.985 612.954 270.415 612.764 269.926C612.575 269.434 612.295 269.051 611.923 268.778C611.552 268.502 611.094 268.364 610.548 268.364C609.98 268.364 609.507 268.509 609.128 268.801C608.753 269.089 608.471 269.481 608.281 269.977C608.096 270.47 608.003 271.023 608.003 271.636C608.003 272.258 608.098 272.822 608.287 273.33C608.48 273.833 608.764 274.235 609.139 274.534C609.518 274.83 609.988 274.977 610.548 274.977Z" fill="white"/>
</g>
<mask id="mask0_1027_69296" style="mask-type:alpha" maskUnits="userSpaceOnUse" x="710" y="64" width="4" height="80">
<rect x="710" y="64" width="4" height="80" fill="white"/>
</mask>
<g mask="url(#mask0_1027_69296)">
<path d="M724 74L704 94M724 68L704 88M724 62L704 82M724 56L704 76M724 50L704 70M724 80L704 100M724 86L704 106M724 92L704 112M724 98L704 118M724 104L704 124M724 110L704 130M724 116L704 136" stroke="white" stroke-opacity="0.3" stroke-width="2"/>
<path d="M724 146L704 166M724 140L704 160M724 134L704 154M724 128L704 148M724 122L704 142M724 152L704 172M724 158L704 178M724 164L704 184M724 170L704 190M724 176L704 196M724 182L704 202M724 188L704 208" stroke="white" stroke-opacity="0.3" stroke-width="2"/>
</g>
<g clip-path="url(#clip1_1027_69296)">
<path d="M712 264V172" stroke="#932099"/>
<path d="M712 164L708 172H716L712 164Z" fill="#932099"/>
<rect x="672.5" y="256" width="79" height="28" rx="14" fill="#932099"/>
<path d="M692.273 267.273C692.205 266.697 691.928 266.25 691.443 265.932C690.958 265.614 690.364 265.455 689.659 265.455C689.144 265.455 688.693 265.538 688.307 265.705C687.924 265.871 687.625 266.1 687.409 266.392C687.197 266.684 687.091 267.015 687.091 267.386C687.091 267.697 687.165 267.964 687.312 268.188C687.464 268.407 687.657 268.591 687.892 268.739C688.127 268.883 688.373 269.002 688.631 269.097C688.888 269.187 689.125 269.261 689.341 269.318L690.523 269.636C690.826 269.716 691.163 269.826 691.534 269.966C691.909 270.106 692.267 270.297 692.608 270.54C692.953 270.778 693.237 271.085 693.46 271.46C693.684 271.835 693.795 272.295 693.795 272.841C693.795 273.47 693.631 274.038 693.301 274.545C692.975 275.053 692.498 275.456 691.869 275.756C691.244 276.055 690.485 276.205 689.591 276.205C688.758 276.205 688.036 276.07 687.426 275.801C686.82 275.532 686.343 275.157 685.994 274.676C685.65 274.195 685.455 273.636 685.409 273H686.864C686.902 273.439 687.049 273.803 687.307 274.091C687.568 274.375 687.898 274.587 688.295 274.727C688.697 274.864 689.129 274.932 689.591 274.932C690.129 274.932 690.612 274.845 691.04 274.67C691.468 274.492 691.807 274.246 692.057 273.932C692.307 273.614 692.432 273.242 692.432 272.818C692.432 272.432 692.324 272.117 692.108 271.875C691.892 271.633 691.608 271.436 691.256 271.284C690.903 271.133 690.523 271 690.114 270.886L688.682 270.477C687.773 270.216 687.053 269.843 686.523 269.358C685.992 268.873 685.727 268.239 685.727 267.455C685.727 266.803 685.903 266.235 686.256 265.75C686.612 265.261 687.089 264.883 687.688 264.614C688.29 264.341 688.962 264.205 689.705 264.205C690.455 264.205 691.121 264.339 691.705 264.608C692.288 264.873 692.75 265.237 693.091 265.699C693.436 266.161 693.617 266.686 693.636 267.273H692.273ZM699.726 267.273V268.409H695.203V267.273H699.726ZM696.521 265.182H697.862V273.5C697.862 273.879 697.917 274.163 698.027 274.352C698.141 274.538 698.285 274.663 698.459 274.727C698.637 274.788 698.824 274.818 699.021 274.818C699.169 274.818 699.29 274.811 699.385 274.795C699.48 274.777 699.555 274.761 699.612 274.75L699.885 275.955C699.794 275.989 699.667 276.023 699.504 276.057C699.341 276.095 699.135 276.114 698.885 276.114C698.506 276.114 698.135 276.032 697.771 275.869C697.411 275.706 697.112 275.458 696.874 275.125C696.639 274.792 696.521 274.371 696.521 273.864V265.182ZM701.743 276V267.273H703.038V268.591H703.129C703.288 268.159 703.576 267.809 703.993 267.54C704.41 267.271 704.879 267.136 705.402 267.136C705.5 267.136 705.624 267.138 705.771 267.142C705.919 267.146 706.031 267.152 706.107 267.159V268.523C706.061 268.511 705.957 268.494 705.794 268.472C705.635 268.445 705.466 268.432 705.288 268.432C704.864 268.432 704.485 268.521 704.152 268.699C703.822 268.873 703.561 269.116 703.368 269.426C703.179 269.733 703.084 270.083 703.084 270.477V276H701.743ZM707.696 276V267.273H709.037V276H707.696ZM708.378 265.818C708.116 265.818 707.891 265.729 707.702 265.551C707.516 265.373 707.423 265.159 707.423 264.909C707.423 264.659 707.516 264.445 707.702 264.267C707.891 264.089 708.116 264 708.378 264C708.639 264 708.863 264.089 709.048 264.267C709.238 264.445 709.332 264.659 709.332 264.909C709.332 265.159 709.238 265.373 709.048 265.551C708.863 265.729 708.639 265.818 708.378 265.818ZM711.493 279.273V267.273H712.788V268.659H712.947C713.046 268.508 713.182 268.314 713.357 268.08C713.535 267.841 713.788 267.629 714.118 267.443C714.451 267.254 714.902 267.159 715.47 267.159C716.205 267.159 716.853 267.343 717.413 267.71C717.974 268.078 718.411 268.598 718.726 269.273C719.04 269.947 719.197 270.742 719.197 271.659C719.197 272.583 719.04 273.384 718.726 274.062C718.411 274.737 717.976 275.259 717.419 275.631C716.862 275.998 716.22 276.182 715.493 276.182C714.932 276.182 714.483 276.089 714.146 275.903C713.809 275.714 713.55 275.5 713.368 275.261C713.186 275.019 713.046 274.818 712.947 274.659H712.834V279.273H711.493ZM712.811 271.636C712.811 272.295 712.908 272.877 713.101 273.381C713.294 273.881 713.576 274.273 713.947 274.557C714.319 274.837 714.773 274.977 715.311 274.977C715.872 274.977 716.339 274.83 716.714 274.534C717.093 274.235 717.377 273.833 717.567 273.33C717.76 272.822 717.857 272.258 717.857 271.636C717.857 271.023 717.762 270.47 717.572 269.977C717.387 269.481 717.105 269.089 716.726 268.801C716.351 268.509 715.879 268.364 715.311 268.364C714.766 268.364 714.307 268.502 713.936 268.778C713.565 269.051 713.285 269.434 713.095 269.926C712.906 270.415 712.811 270.985 712.811 271.636ZM724.902 276.182C724.061 276.182 723.336 275.996 722.726 275.625C722.12 275.25 721.652 274.727 721.322 274.057C720.997 273.383 720.834 272.598 720.834 271.705C720.834 270.811 720.997 270.023 721.322 269.341C721.652 268.655 722.11 268.121 722.697 267.739C723.288 267.352 723.978 267.159 724.766 267.159C725.22 267.159 725.669 267.235 726.112 267.386C726.555 267.538 726.959 267.784 727.322 268.125C727.686 268.462 727.976 268.909 728.192 269.466C728.408 270.023 728.516 270.708 728.516 271.523V272.091H721.788V270.932H727.152C727.152 270.439 727.054 270 726.857 269.614C726.663 269.227 726.387 268.922 726.027 268.699C725.671 268.475 725.25 268.364 724.766 268.364C724.232 268.364 723.769 268.496 723.379 268.761C722.993 269.023 722.696 269.364 722.487 269.784C722.279 270.205 722.175 270.655 722.175 271.136V271.909C722.175 272.568 722.288 273.127 722.516 273.585C722.747 274.04 723.067 274.386 723.476 274.625C723.885 274.86 724.36 274.977 724.902 274.977C725.254 274.977 725.572 274.928 725.857 274.83C726.144 274.727 726.393 274.576 726.601 274.375C726.809 274.17 726.97 273.917 727.084 273.614L728.379 273.977C728.243 274.417 728.014 274.803 727.692 275.136C727.37 275.466 726.972 275.723 726.499 275.909C726.025 276.091 725.493 276.182 724.902 276.182ZM733.851 276.182C733.124 276.182 732.482 275.998 731.925 275.631C731.368 275.259 730.932 274.737 730.618 274.062C730.304 273.384 730.146 272.583 730.146 271.659C730.146 270.742 730.304 269.947 730.618 269.273C730.932 268.598 731.37 268.078 731.93 267.71C732.491 267.343 733.139 267.159 733.874 267.159C734.442 267.159 734.891 267.254 735.22 267.443C735.554 267.629 735.807 267.841 735.982 268.08C736.16 268.314 736.298 268.508 736.396 268.659H736.51V264.364H737.851V276H736.555V274.659H736.396C736.298 274.818 736.158 275.019 735.976 275.261C735.794 275.5 735.535 275.714 735.197 275.903C734.86 276.089 734.411 276.182 733.851 276.182ZM734.033 274.977C734.571 274.977 735.025 274.837 735.396 274.557C735.768 274.273 736.05 273.881 736.243 273.381C736.436 272.877 736.533 272.295 736.533 271.636C736.533 270.985 736.438 270.415 736.249 269.926C736.059 269.434 735.779 269.051 735.408 268.778C735.036 268.502 734.578 268.364 734.033 268.364C733.464 268.364 732.991 268.509 732.612 268.801C732.237 269.089 731.955 269.481 731.766 269.977C731.58 270.47 731.487 271.023 731.487 271.636C731.487 272.258 731.582 272.822 731.771 273.33C731.964 273.833 732.249 274.235 732.624 274.534C733.002 274.83 733.472 274.977 734.033 274.977Z" fill="white"/>
</g>
<defs>
<clipPath id="clip0_1027_69296">
<rect width="62" height="120" fill="white" transform="translate(566.5 164)"/>
</clipPath>
<clipPath id="clip1_1027_69296">
<rect width="79" height="120" fill="white" transform="translate(672.5 164)"/>
</clipPath>
</defs>
</svg>
