<svg width="203" height="208" viewBox="0 0 203 208" fill="none" xmlns="http://www.w3.org/2000/svg">
<mask id="path-1-inside-1_1027_318848" fill="white">
<path d="M0 0H203V208H0V0Z"/>
</mask>
<path d="M0 0H203V208H0V0Z" fill="#1A1A1A"/>
<path d="M203 208V209H204V208H203ZM202 0V208H204V0H202ZM203 207H0V209H203V207Z" fill="white" fill-opacity="0.3" mask="url(#path-1-inside-1_1027_318848)"/>
<path d="M40.6364 98.3636V110H39.2727L32.9318 100.864H32.8182V110H31.4091V98.3636H32.7727L39.1364 107.523H39.25V98.3636H40.6364ZM46.9332 110.182C46.0923 110.182 45.367 109.996 44.7571 109.625C44.151 109.25 43.6832 108.727 43.3537 108.057C43.0279 107.383 42.8651 106.598 42.8651 105.705C42.8651 104.811 43.0279 104.023 43.3537 103.341C43.6832 102.655 44.1416 102.121 44.7287 101.739C45.3196 101.352 46.009 101.159 46.7969 101.159C47.2514 101.159 47.7003 101.235 48.1435 101.386C48.5866 101.538 48.9901 101.784 49.3537 102.125C49.7173 102.462 50.0071 102.909 50.223 103.466C50.4389 104.023 50.5469 104.708 50.5469 105.523V106.091H43.8196V104.932H49.1832C49.1832 104.439 49.0848 104 48.8878 103.614C48.6946 103.227 48.4181 102.922 48.0582 102.699C47.7022 102.475 47.2817 102.364 46.7969 102.364C46.2628 102.364 45.8007 102.496 45.4105 102.761C45.0241 103.023 44.7268 103.364 44.5185 103.784C44.3101 104.205 44.206 104.655 44.206 105.136V105.909C44.206 106.568 44.3196 107.127 44.5469 107.585C44.7779 108.04 45.098 108.386 45.5071 108.625C45.9162 108.86 46.3916 108.977 46.9332 108.977C47.2855 108.977 47.6037 108.928 47.8878 108.83C48.1757 108.727 48.4238 108.576 48.6321 108.375C48.8404 108.17 49.0014 107.917 49.1151 107.614L50.4105 107.977C50.2741 108.417 50.045 108.803 49.723 109.136C49.401 109.466 49.0033 109.723 48.5298 109.909C48.0563 110.091 47.5241 110.182 46.9332 110.182ZM56.3821 101.273V102.409H51.8594V101.273H56.3821ZM53.1776 99.1818H54.5185V107.5C54.5185 107.879 54.5734 108.163 54.6832 108.352C54.7969 108.538 54.9408 108.663 55.1151 108.727C55.2931 108.788 55.4806 108.818 55.6776 108.818C55.8253 108.818 55.9465 108.811 56.0412 108.795C56.1359 108.777 56.2116 108.761 56.2685 108.75L56.5412 109.955C56.4503 109.989 56.3234 110.023 56.1605 110.057C55.9976 110.095 55.7912 110.114 55.5412 110.114C55.1624 110.114 54.7912 110.032 54.4276 109.869C54.0677 109.706 53.7685 109.458 53.5298 109.125C53.295 108.792 53.1776 108.371 53.1776 107.864V99.1818ZM60.3764 110L57.7173 101.273H59.1264L61.0128 107.955H61.1037L62.9673 101.273H64.3991L66.2401 107.932H66.331L68.2173 101.273H69.6264L66.9673 110H65.6491L63.7401 103.295H63.6037L61.6946 110H60.3764ZM74.6477 110.182C73.8598 110.182 73.1686 109.994 72.5739 109.619C71.983 109.244 71.5208 108.72 71.1875 108.045C70.858 107.371 70.6932 106.583 70.6932 105.682C70.6932 104.773 70.858 103.979 71.1875 103.301C71.5208 102.623 71.983 102.097 72.5739 101.722C73.1686 101.347 73.8598 101.159 74.6477 101.159C75.4356 101.159 76.125 101.347 76.7159 101.722C77.3106 102.097 77.7727 102.623 78.1023 103.301C78.4356 103.979 78.6023 104.773 78.6023 105.682C78.6023 106.583 78.4356 107.371 78.1023 108.045C77.7727 108.72 77.3106 109.244 76.7159 109.619C76.125 109.994 75.4356 110.182 74.6477 110.182ZM74.6477 108.977C75.2462 108.977 75.7386 108.824 76.125 108.517C76.5114 108.21 76.7973 107.807 76.983 107.307C77.1686 106.807 77.2614 106.265 77.2614 105.682C77.2614 105.098 77.1686 104.555 76.983 104.051C76.7973 103.547 76.5114 103.14 76.125 102.83C75.7386 102.519 75.2462 102.364 74.6477 102.364C74.0492 102.364 73.5568 102.519 73.1705 102.83C72.7841 103.14 72.4981 103.547 72.3125 104.051C72.1269 104.555 72.0341 105.098 72.0341 105.682C72.0341 106.265 72.1269 106.807 72.3125 107.307C72.4981 107.807 72.7841 108.21 73.1705 108.517C73.5568 108.824 74.0492 108.977 74.6477 108.977ZM80.6491 110V101.273H81.9446V102.591H82.0355C82.1946 102.159 82.4825 101.809 82.8991 101.54C83.3158 101.271 83.7855 101.136 84.3082 101.136C84.4067 101.136 84.5298 101.138 84.6776 101.142C84.8253 101.146 84.937 101.152 85.0128 101.159V102.523C84.9673 102.511 84.8632 102.494 84.7003 102.472C84.5412 102.445 84.3726 102.432 84.1946 102.432C83.7704 102.432 83.3916 102.521 83.0582 102.699C82.7287 102.873 82.4673 103.116 82.2741 103.426C82.0848 103.733 81.9901 104.083 81.9901 104.477V110H80.6491ZM87.8523 106.818L87.8295 105.159H88.1023L91.9205 101.273H93.5795L89.5114 105.386H89.3977L87.8523 106.818ZM86.6023 110V98.3636H87.9432V110H86.6023ZM92.1477 110L88.7386 105.682L89.6932 104.75L93.8523 110H92.1477Z" fill="white" fill-opacity="0.95"/>
</svg>
