<svg width="1300" height="184" viewBox="0 0 1300 184" fill="none" xmlns="http://www.w3.org/2000/svg">
<rect width="1300" height="184" rx="24" fill="#262626"/>
<g clip-path="url(#clip0_1027_14670)">
<path d="M434 73.0625C436.796 73.0625 439.063 70.7959 439.063 68C439.063 65.2041 436.796 62.9375 434 62.9375C431.204 62.9375 428.938 65.2041 428.938 68C428.938 70.7959 431.204 73.0625 434 73.0625Z" fill="#1170CF"/>
</g>
<g clip-path="url(#clip1_1027_14670)">
<rect x="408.5" y="96" width="51" height="28" rx="14" fill="#7856FF"/>
<path d="M425.5 116H421.909V104.364H425.659C426.788 104.364 427.754 104.597 428.557 105.062C429.36 105.525 429.975 106.189 430.403 107.057C430.831 107.92 431.045 108.955 431.045 110.159C431.045 111.371 430.83 112.415 430.398 113.29C429.966 114.161 429.337 114.831 428.511 115.301C427.686 115.767 426.682 116 425.5 116ZM423.318 114.75H425.409C426.371 114.75 427.169 114.564 427.801 114.193C428.434 113.822 428.905 113.294 429.216 112.608C429.527 111.922 429.682 111.106 429.682 110.159C429.682 109.22 429.528 108.411 429.222 107.733C428.915 107.051 428.456 106.528 427.847 106.165C427.237 105.797 426.477 105.614 425.568 105.614H423.318V114.75ZM436.773 116.182C435.985 116.182 435.294 115.994 434.699 115.619C434.108 115.244 433.646 114.72 433.312 114.045C432.983 113.371 432.818 112.583 432.818 111.682C432.818 110.773 432.983 109.979 433.312 109.301C433.646 108.623 434.108 108.097 434.699 107.722C435.294 107.347 435.985 107.159 436.773 107.159C437.561 107.159 438.25 107.347 438.841 107.722C439.436 108.097 439.898 108.623 440.227 109.301C440.561 109.979 440.727 110.773 440.727 111.682C440.727 112.583 440.561 113.371 440.227 114.045C439.898 114.72 439.436 115.244 438.841 115.619C438.25 115.994 437.561 116.182 436.773 116.182ZM436.773 114.977C437.371 114.977 437.864 114.824 438.25 114.517C438.636 114.21 438.922 113.807 439.108 113.307C439.294 112.807 439.386 112.265 439.386 111.682C439.386 111.098 439.294 110.555 439.108 110.051C438.922 109.547 438.636 109.14 438.25 108.83C437.864 108.519 437.371 108.364 436.773 108.364C436.174 108.364 435.682 108.519 435.295 108.83C434.909 109.14 434.623 109.547 434.438 110.051C434.252 110.555 434.159 111.098 434.159 111.682C434.159 112.265 434.252 112.807 434.438 113.307C434.623 113.807 434.909 114.21 435.295 114.517C435.682 114.824 436.174 114.977 436.773 114.977ZM446.57 107.273V108.409H442.047V107.273H446.57ZM443.365 105.182H444.706V113.5C444.706 113.879 444.761 114.163 444.871 114.352C444.984 114.538 445.128 114.663 445.303 114.727C445.481 114.788 445.668 114.818 445.865 114.818C446.013 114.818 446.134 114.811 446.229 114.795C446.323 114.777 446.399 114.761 446.456 114.75L446.729 115.955C446.638 115.989 446.511 116.023 446.348 116.057C446.185 116.095 445.979 116.114 445.729 116.114C445.35 116.114 444.979 116.032 444.615 115.869C444.255 115.706 443.956 115.458 443.717 115.125C443.482 114.792 443.365 114.371 443.365 113.864V105.182Z" fill="white" fill-opacity="0.95"/>
</g>
<rect x="562" y="60" width="16" height="16" rx="8" fill="#1170CF"/>
<path d="M571.315 63.2727V72H569.994V64.5938H569.942L567.854 65.9574V64.696L570.032 63.2727H571.315Z" fill="white" fill-opacity="0.95"/>
<g clip-path="url(#clip2_1027_14670)">
<rect x="527.5" y="96" width="85" height="28" rx="14" fill="#7856FF"/>
<path d="M550.136 104.364V116H548.773L542.432 106.864H542.318V116H540.909V104.364H542.273L548.636 113.523H548.75V104.364H550.136ZM558.274 112.432V107.273H559.615V116H558.274V114.523H558.183C557.979 114.966 557.661 115.343 557.229 115.653C556.797 115.96 556.251 116.114 555.592 116.114C555.047 116.114 554.562 115.994 554.138 115.756C553.714 115.513 553.38 115.15 553.138 114.665C552.895 114.176 552.774 113.561 552.774 112.818V107.273H554.115V112.727C554.115 113.364 554.293 113.871 554.649 114.25C555.009 114.629 555.467 114.818 556.024 114.818C556.357 114.818 556.696 114.733 557.041 114.562C557.39 114.392 557.681 114.131 557.916 113.778C558.155 113.426 558.274 112.977 558.274 112.432ZM562.071 116V107.273H563.366V108.636H563.48C563.662 108.17 563.955 107.809 564.361 107.551C564.766 107.29 565.253 107.159 565.821 107.159C566.397 107.159 566.876 107.29 567.259 107.551C567.645 107.809 567.946 108.17 568.162 108.636H568.253C568.476 108.186 568.812 107.828 569.259 107.562C569.705 107.294 570.241 107.159 570.866 107.159C571.647 107.159 572.285 107.403 572.781 107.892C573.277 108.377 573.526 109.133 573.526 110.159V116H572.185V110.159C572.185 109.515 572.009 109.055 571.656 108.778C571.304 108.502 570.889 108.364 570.412 108.364C569.798 108.364 569.323 108.549 568.986 108.92C568.649 109.288 568.48 109.754 568.48 110.318V116H567.116V110.023C567.116 109.527 566.955 109.127 566.634 108.824C566.312 108.517 565.897 108.364 565.389 108.364C565.041 108.364 564.715 108.456 564.412 108.642C564.113 108.828 563.87 109.085 563.685 109.415C563.503 109.741 563.412 110.117 563.412 110.545V116H562.071ZM576.159 116V104.364H577.5V108.659H577.614C577.712 108.508 577.848 108.314 578.023 108.08C578.201 107.841 578.455 107.629 578.784 107.443C579.117 107.254 579.568 107.159 580.136 107.159C580.871 107.159 581.519 107.343 582.08 107.71C582.64 108.078 583.078 108.598 583.392 109.273C583.706 109.947 583.864 110.742 583.864 111.659C583.864 112.583 583.706 113.384 583.392 114.062C583.078 114.737 582.642 115.259 582.085 115.631C581.528 115.998 580.886 116.182 580.159 116.182C579.598 116.182 579.15 116.089 578.812 115.903C578.475 115.714 578.216 115.5 578.034 115.261C577.852 115.019 577.712 114.818 577.614 114.659H577.455V116H576.159ZM577.477 111.636C577.477 112.295 577.574 112.877 577.767 113.381C577.96 113.881 578.242 114.273 578.614 114.557C578.985 114.837 579.439 114.977 579.977 114.977C580.538 114.977 581.006 114.83 581.381 114.534C581.759 114.235 582.044 113.833 582.233 113.33C582.426 112.822 582.523 112.258 582.523 111.636C582.523 111.023 582.428 110.47 582.239 109.977C582.053 109.481 581.771 109.089 581.392 108.801C581.017 108.509 580.545 108.364 579.977 108.364C579.432 108.364 578.973 108.502 578.602 108.778C578.231 109.051 577.951 109.434 577.761 109.926C577.572 110.415 577.477 110.985 577.477 111.636ZM589.574 116.182C588.733 116.182 588.008 115.996 587.398 115.625C586.792 115.25 586.324 114.727 585.994 114.057C585.669 113.383 585.506 112.598 585.506 111.705C585.506 110.811 585.669 110.023 585.994 109.341C586.324 108.655 586.782 108.121 587.369 107.739C587.96 107.352 588.65 107.159 589.438 107.159C589.892 107.159 590.341 107.235 590.784 107.386C591.227 107.538 591.631 107.784 591.994 108.125C592.358 108.462 592.648 108.909 592.864 109.466C593.08 110.023 593.188 110.708 593.188 111.523V112.091H586.46V110.932H591.824C591.824 110.439 591.725 110 591.528 109.614C591.335 109.227 591.059 108.922 590.699 108.699C590.343 108.475 589.922 108.364 589.438 108.364C588.903 108.364 588.441 108.496 588.051 108.761C587.665 109.023 587.367 109.364 587.159 109.784C586.951 110.205 586.847 110.655 586.847 111.136V111.909C586.847 112.568 586.96 113.127 587.188 113.585C587.419 114.04 587.739 114.386 588.148 114.625C588.557 114.86 589.032 114.977 589.574 114.977C589.926 114.977 590.244 114.928 590.528 114.83C590.816 114.727 591.064 114.576 591.273 114.375C591.481 114.17 591.642 113.917 591.756 113.614L593.051 113.977C592.915 114.417 592.686 114.803 592.364 115.136C592.042 115.466 591.644 115.723 591.17 115.909C590.697 116.091 590.165 116.182 589.574 116.182ZM595.227 116V107.273H596.523V108.591H596.614C596.773 108.159 597.061 107.809 597.477 107.54C597.894 107.271 598.364 107.136 598.886 107.136C598.985 107.136 599.108 107.138 599.256 107.142C599.403 107.146 599.515 107.152 599.591 107.159V108.523C599.545 108.511 599.441 108.494 599.278 108.472C599.119 108.445 598.951 108.432 598.773 108.432C598.348 108.432 597.97 108.521 597.636 108.699C597.307 108.873 597.045 109.116 596.852 109.426C596.663 109.733 596.568 110.083 596.568 110.477V116H595.227Z" fill="white" fill-opacity="0.95"/>
</g>
<rect x="698" y="60" width="16" height="16" rx="8" fill="#1170CF"/>
<g clip-path="url(#clip3_1027_14670)">
<path d="M709.169 70.6382C709.784 69.8969 710.121 68.9636 710.121 68C710.121 67.0365 709.784 66.1032 709.169 65.3619L711.14 63.3901C711.176 63.3554 711.204 63.3141 711.223 63.2684C711.243 63.2227 711.253 63.1736 711.253 63.124C711.254 63.0743 711.244 63.0251 711.225 62.9792C711.206 62.9332 711.179 62.8915 711.144 62.8564C711.108 62.8213 711.067 62.7935 711.021 62.7747C710.975 62.7558 710.926 62.7463 710.876 62.7466C710.826 62.7469 710.777 62.7571 710.732 62.7765C710.686 62.7959 710.645 62.8243 710.61 62.8598L708.639 64.8309C707.898 64.2133 706.964 63.875 706 63.875C705.036 63.875 704.102 64.2133 703.361 64.8309L701.39 62.8598C701.32 62.7909 701.225 62.7527 701.126 62.7533C701.027 62.7539 700.933 62.7934 700.863 62.8631C700.794 62.9329 700.754 63.0273 700.753 63.1259C700.753 63.2246 700.791 63.3195 700.86 63.3901L702.831 65.3616C702.216 66.103 701.879 67.0363 701.879 67.9999C701.879 68.9636 702.216 69.8969 702.831 70.6382L700.86 72.6098C700.824 72.6445 700.796 72.6858 700.777 72.7315C700.757 72.7772 700.747 72.8263 700.747 72.8759C700.746 72.9256 700.756 72.9748 700.775 73.0207C700.794 73.0666 700.821 73.1084 700.857 73.1435C700.892 73.1786 700.933 73.2064 700.979 73.2252C701.025 73.2441 701.074 73.2536 701.124 73.2533C701.174 73.253 701.223 73.2428 701.268 73.2234C701.314 73.2039 701.356 73.1756 701.39 73.1401L703.361 71.169C704.102 71.7867 705.036 72.125 706 72.125C706.964 72.125 707.898 71.7867 708.639 71.169L710.61 73.1401C710.681 73.2089 710.775 73.2472 710.874 73.2466C710.973 73.2459 711.067 73.2065 711.137 73.1367C711.207 73.067 711.246 72.9726 711.247 72.874C711.247 72.7753 711.209 72.6804 711.14 72.6098L709.169 70.6382ZM708.636 70.1057L706.53 68L708.636 65.8942C709.113 66.4926 709.372 67.2349 709.372 67.9999C709.372 68.7649 709.113 69.5073 708.636 70.1057ZM706 64.625C706.766 64.6232 707.509 64.8841 708.106 65.364L706 67.4697L703.894 65.3639C704.491 64.884 705.234 64.6232 706 64.625ZM703.364 65.8941L705.47 68L703.364 70.1058C702.887 69.5074 702.628 68.765 702.628 67.9999C702.628 67.2349 702.887 66.4925 703.364 65.8941ZM706 71.375C705.234 71.3767 704.491 71.1159 703.894 70.636L706 68.5302L708.106 70.6359C707.509 71.1158 706.766 71.3767 706 71.375Z" fill="white" fill-opacity="0.95"/>
</g>
<g clip-path="url(#clip4_1027_14670)">
<rect x="677.5" y="96" width="57" height="28" rx="14" fill="#7856FF"/>
<path d="M692.318 104.364V116H690.909V104.364H692.318ZM698.507 116.182C697.689 116.182 696.984 115.989 696.393 115.602C695.803 115.216 695.348 114.684 695.03 114.006C694.712 113.328 694.553 112.553 694.553 111.682C694.553 110.795 694.715 110.013 695.041 109.335C695.371 108.653 695.829 108.121 696.416 107.739C697.007 107.352 697.696 107.159 698.484 107.159C699.098 107.159 699.651 107.273 700.143 107.5C700.636 107.727 701.039 108.045 701.354 108.455C701.668 108.864 701.863 109.341 701.939 109.886H700.598C700.496 109.489 700.268 109.136 699.916 108.83C699.568 108.519 699.098 108.364 698.507 108.364C697.984 108.364 697.526 108.5 697.132 108.773C696.742 109.042 696.437 109.422 696.217 109.915C696.001 110.403 695.893 110.977 695.893 111.636C695.893 112.311 696 112.898 696.212 113.398C696.428 113.898 696.731 114.286 697.121 114.562C697.515 114.839 697.977 114.977 698.507 114.977C698.856 114.977 699.172 114.917 699.456 114.795C699.74 114.674 699.981 114.5 700.178 114.273C700.375 114.045 700.515 113.773 700.598 113.455H701.939C701.863 113.97 701.676 114.434 701.376 114.847C701.081 115.256 700.689 115.581 700.2 115.824C699.715 116.062 699.151 116.182 698.507 116.182ZM707.445 116.182C706.657 116.182 705.965 115.994 705.371 115.619C704.78 115.244 704.318 114.72 703.984 114.045C703.655 113.371 703.49 112.583 703.49 111.682C703.49 110.773 703.655 109.979 703.984 109.301C704.318 108.623 704.78 108.097 705.371 107.722C705.965 107.347 706.657 107.159 707.445 107.159C708.232 107.159 708.922 107.347 709.513 107.722C710.107 108.097 710.57 108.623 710.899 109.301C711.232 109.979 711.399 110.773 711.399 111.682C711.399 112.583 711.232 113.371 710.899 114.045C710.57 114.72 710.107 115.244 709.513 115.619C708.922 115.994 708.232 116.182 707.445 116.182ZM707.445 114.977C708.043 114.977 708.536 114.824 708.922 114.517C709.308 114.21 709.594 113.807 709.78 113.307C709.965 112.807 710.058 112.265 710.058 111.682C710.058 111.098 709.965 110.555 709.78 110.051C709.594 109.547 709.308 109.14 708.922 108.83C708.536 108.519 708.043 108.364 707.445 108.364C706.846 108.364 706.354 108.519 705.967 108.83C705.581 109.14 705.295 109.547 705.109 110.051C704.924 110.555 704.831 111.098 704.831 111.682C704.831 112.265 704.924 112.807 705.109 113.307C705.295 113.807 705.581 114.21 705.967 114.517C706.354 114.824 706.846 114.977 707.445 114.977ZM714.787 110.75V116H713.446V107.273H714.741V108.636H714.855C715.06 108.193 715.37 107.837 715.787 107.568C716.204 107.295 716.741 107.159 717.401 107.159C717.991 107.159 718.509 107.28 718.952 107.523C719.395 107.761 719.74 108.125 719.986 108.614C720.232 109.098 720.355 109.712 720.355 110.455V116H719.014V110.545C719.014 109.86 718.836 109.326 718.48 108.943C718.124 108.557 717.635 108.364 717.014 108.364C716.586 108.364 716.204 108.456 715.866 108.642C715.533 108.828 715.27 109.098 715.077 109.455C714.884 109.811 714.787 110.242 714.787 110.75Z" fill="white" fill-opacity="0.95"/>
</g>
<rect x="834" y="60" width="40" height="16" rx="8" fill="#1170CF"/>
<path d="M839.385 72V63.2727H840.701V70.8665H844.656V72H839.385ZM847.961 72.1449C847.546 72.1449 847.171 72.0682 846.836 71.9148C846.5 71.7585 846.235 71.5327 846.039 71.2372C845.846 70.9418 845.749 70.5795 845.749 70.1506C845.749 69.7812 845.82 69.4773 845.962 69.2386C846.104 69 846.296 68.8111 846.537 68.6719C846.779 68.5327 847.049 68.4276 847.347 68.3565C847.645 68.2855 847.949 68.2315 848.259 68.1946C848.651 68.1491 848.969 68.1122 849.213 68.0838C849.458 68.0526 849.635 68.0028 849.746 67.9347C849.857 67.8665 849.912 67.7557 849.912 67.6023V67.5724C849.912 67.2003 849.807 66.9119 849.597 66.7074C849.39 66.5028 849.08 66.4006 848.668 66.4006C848.239 66.4006 847.901 66.4957 847.654 66.6861C847.409 66.8736 847.24 67.0824 847.147 67.3125L845.949 67.0398C846.091 66.642 846.299 66.321 846.571 66.0767C846.847 65.8295 847.164 65.6506 847.522 65.5398C847.88 65.4261 848.256 65.3693 848.651 65.3693C848.912 65.3693 849.189 65.4006 849.482 65.4631C849.777 65.5227 850.053 65.6335 850.309 65.7955C850.567 65.9574 850.779 66.1889 850.944 66.4901C851.108 66.7884 851.191 67.1761 851.191 67.6534V72H849.946V71.1051H849.895C849.813 71.2699 849.689 71.4318 849.525 71.5909C849.36 71.75 849.148 71.8821 848.89 71.9872C848.631 72.0923 848.321 72.1449 847.961 72.1449ZM848.238 71.1222C848.59 71.1222 848.891 71.0526 849.141 70.9134C849.394 70.7741 849.586 70.5923 849.716 70.3679C849.85 70.1406 849.917 69.8977 849.917 69.6392V68.7955C849.871 68.8409 849.783 68.8835 849.652 68.9233C849.525 68.9602 849.378 68.9929 849.213 69.0213C849.049 69.0469 848.888 69.071 848.732 69.0938C848.576 69.1136 848.445 69.1307 848.34 69.1449C848.093 69.1761 847.867 69.2287 847.662 69.3026C847.461 69.3764 847.299 69.483 847.176 69.6222C847.057 69.7585 846.998 69.9403 846.998 70.1676C846.998 70.483 847.114 70.7216 847.347 70.8835C847.58 71.0426 847.877 71.1222 848.238 71.1222ZM852.99 72V63.2727H854.264V66.5156H854.341C854.415 66.3793 854.521 66.2216 854.661 66.0426C854.8 65.8636 854.993 65.7074 855.24 65.5739C855.487 65.4375 855.814 65.3693 856.22 65.3693C856.749 65.3693 857.22 65.5028 857.635 65.7699C858.05 66.0369 858.375 66.4219 858.611 66.9247C858.849 67.4276 858.969 68.0327 858.969 68.7401C858.969 69.4474 858.851 70.054 858.615 70.5597C858.379 71.0625 858.055 71.4503 857.643 71.723C857.232 71.9929 856.761 72.1278 856.233 72.1278C855.835 72.1278 855.51 72.0611 855.257 71.9276C855.007 71.794 854.811 71.6378 854.669 71.4588C854.527 71.2798 854.418 71.1207 854.341 70.9815H854.234V72H852.99ZM854.239 68.7273C854.239 69.1875 854.305 69.5909 854.439 69.9375C854.572 70.2841 854.766 70.5554 855.018 70.7514C855.271 70.9446 855.581 71.0412 855.947 71.0412C856.328 71.0412 856.646 70.9403 856.902 70.7386C857.158 70.5341 857.351 70.2571 857.482 69.9077C857.615 69.5582 857.682 69.1648 857.682 68.7273C857.682 68.2955 857.616 67.9077 857.486 67.5639C857.358 67.2202 857.165 66.9489 856.906 66.75C856.651 66.5511 856.331 66.4517 855.947 66.4517C855.578 66.4517 855.266 66.5469 855.01 66.7372C854.757 66.9276 854.565 67.1932 854.435 67.5341C854.304 67.875 854.239 68.2727 854.239 68.7273ZM863.221 72.1321C862.576 72.1321 862.02 71.9943 861.554 71.7188C861.091 71.4403 860.733 71.0497 860.48 70.5469C860.23 70.0412 860.105 69.4489 860.105 68.7699C860.105 68.0994 860.23 67.5085 860.48 66.9972C860.733 66.4858 861.086 66.0866 861.537 65.7997C861.992 65.5128 862.523 65.3693 863.131 65.3693C863.5 65.3693 863.858 65.4304 864.205 65.5526C864.551 65.6747 864.863 65.8665 865.138 66.1278C865.414 66.3892 865.631 66.7287 865.79 67.1463C865.949 67.5611 866.029 68.0653 866.029 68.6591V69.1108H860.826V68.1562H864.78C864.78 67.821 864.712 67.5241 864.576 67.2656C864.439 67.0043 864.248 66.7983 864 66.6477C863.756 66.4972 863.469 66.4219 863.14 66.4219C862.782 66.4219 862.469 66.5099 862.202 66.6861C861.938 66.8594 861.733 67.0866 861.588 67.3679C861.446 67.6463 861.375 67.9489 861.375 68.2756V69.0213C861.375 69.4588 861.452 69.831 861.605 70.1378C861.762 70.4446 861.979 70.679 862.257 70.8409C862.536 71 862.861 71.0795 863.233 71.0795C863.475 71.0795 863.695 71.0455 863.894 70.9773C864.093 70.9062 864.265 70.8011 864.409 70.6619C864.554 70.5227 864.665 70.3509 864.742 70.1463L865.948 70.3636C865.851 70.7187 865.678 71.0298 865.428 71.2969C865.181 71.5611 864.87 71.767 864.495 71.9148C864.123 72.0597 863.698 72.1321 863.221 72.1321ZM868.717 63.2727V72H867.442V63.2727H868.717Z" fill="white" fill-opacity="0.95"/>
<g clip-path="url(#clip5_1027_14670)">
<rect x="821" y="96" width="66" height="28" rx="14" fill="#7856FF"/>
<path d="M834.409 116V104.364H835.818V114.75H841.227V116H834.409ZM845.795 116.205C845.242 116.205 844.741 116.1 844.29 115.892C843.839 115.68 843.481 115.375 843.216 114.977C842.951 114.576 842.818 114.091 842.818 113.523C842.818 113.023 842.917 112.617 843.114 112.307C843.311 111.992 843.574 111.746 843.903 111.568C844.233 111.39 844.597 111.258 844.994 111.17C845.396 111.08 845.799 111.008 846.205 110.955C846.735 110.886 847.165 110.835 847.494 110.801C847.828 110.763 848.07 110.701 848.222 110.614C848.377 110.527 848.455 110.375 848.455 110.159V110.114C848.455 109.553 848.301 109.117 847.994 108.807C847.691 108.496 847.231 108.341 846.614 108.341C845.973 108.341 845.472 108.481 845.108 108.761C844.744 109.042 844.489 109.341 844.341 109.659L843.068 109.205C843.295 108.674 843.598 108.261 843.977 107.966C844.36 107.667 844.777 107.458 845.227 107.341C845.682 107.22 846.129 107.159 846.568 107.159C846.848 107.159 847.17 107.193 847.534 107.261C847.902 107.326 848.256 107.46 848.597 107.665C848.941 107.869 849.227 108.178 849.455 108.591C849.682 109.004 849.795 109.557 849.795 110.25V116H848.455V114.818H848.386C848.295 115.008 848.144 115.21 847.932 115.426C847.72 115.642 847.438 115.826 847.085 115.977C846.733 116.129 846.303 116.205 845.795 116.205ZM846 115C846.53 115 846.977 114.896 847.341 114.688C847.708 114.479 847.985 114.21 848.17 113.881C848.36 113.551 848.455 113.205 848.455 112.841V111.614C848.398 111.682 848.273 111.744 848.08 111.801C847.89 111.854 847.67 111.902 847.42 111.943C847.174 111.981 846.934 112.015 846.699 112.045C846.468 112.072 846.28 112.095 846.136 112.114C845.788 112.159 845.462 112.233 845.159 112.335C844.86 112.434 844.617 112.583 844.432 112.784C844.25 112.981 844.159 113.25 844.159 113.591C844.159 114.057 844.331 114.409 844.676 114.648C845.025 114.883 845.466 115 846 115ZM852.425 116V104.364H853.766V108.659H853.879C853.978 108.508 854.114 108.314 854.288 108.08C854.466 107.841 854.72 107.629 855.05 107.443C855.383 107.254 855.834 107.159 856.402 107.159C857.137 107.159 857.785 107.343 858.345 107.71C858.906 108.078 859.343 108.598 859.658 109.273C859.972 109.947 860.129 110.742 860.129 111.659C860.129 112.583 859.972 113.384 859.658 114.062C859.343 114.737 858.908 115.259 858.351 115.631C857.794 115.998 857.152 116.182 856.425 116.182C855.864 116.182 855.415 116.089 855.078 115.903C854.741 115.714 854.482 115.5 854.3 115.261C854.118 115.019 853.978 114.818 853.879 114.659H853.72V116H852.425ZM853.743 111.636C853.743 112.295 853.839 112.877 854.033 113.381C854.226 113.881 854.508 114.273 854.879 114.557C855.25 114.837 855.705 114.977 856.243 114.977C856.804 114.977 857.271 114.83 857.646 114.534C858.025 114.235 858.309 113.833 858.499 113.33C858.692 112.822 858.788 112.258 858.788 111.636C858.788 111.023 858.694 110.47 858.504 109.977C858.319 109.481 858.036 109.089 857.658 108.801C857.283 108.509 856.811 108.364 856.243 108.364C855.697 108.364 855.239 108.502 854.868 108.778C854.497 109.051 854.216 109.434 854.027 109.926C853.838 110.415 853.743 110.985 853.743 111.636ZM865.839 116.182C864.999 116.182 864.273 115.996 863.663 115.625C863.057 115.25 862.589 114.727 862.26 114.057C861.934 113.383 861.771 112.598 861.771 111.705C861.771 110.811 861.934 110.023 862.26 109.341C862.589 108.655 863.048 108.121 863.635 107.739C864.226 107.352 864.915 107.159 865.703 107.159C866.158 107.159 866.607 107.235 867.05 107.386C867.493 107.538 867.896 107.784 868.26 108.125C868.624 108.462 868.913 108.909 869.129 109.466C869.345 110.023 869.453 110.708 869.453 111.523V112.091H862.726V110.932H868.089C868.089 110.439 867.991 110 867.794 109.614C867.601 109.227 867.324 108.922 866.964 108.699C866.608 108.475 866.188 108.364 865.703 108.364C865.169 108.364 864.707 108.496 864.317 108.761C863.93 109.023 863.633 109.364 863.425 109.784C863.216 110.205 863.112 110.655 863.112 111.136V111.909C863.112 112.568 863.226 113.127 863.453 113.585C863.684 114.04 864.004 114.386 864.413 114.625C864.822 114.86 865.298 114.977 865.839 114.977C866.192 114.977 866.51 114.928 866.794 114.83C867.082 114.727 867.33 114.576 867.538 114.375C867.747 114.17 867.908 113.917 868.021 113.614L869.317 113.977C869.18 114.417 868.951 114.803 868.629 115.136C868.307 115.466 867.91 115.723 867.436 115.909C866.963 116.091 866.43 116.182 865.839 116.182ZM872.834 104.364V116H871.493V104.364H872.834Z" fill="white" fill-opacity="0.95"/>
</g>
<defs>
<clipPath id="clip0_1027_14670">
<rect width="12" height="12" fill="white" transform="translate(428 62)"/>
</clipPath>
<clipPath id="clip1_1027_14670">
<rect width="51" height="28" fill="white" transform="translate(408.5 96)"/>
</clipPath>
<clipPath id="clip2_1027_14670">
<rect width="85" height="28" fill="white" transform="translate(527.5 96)"/>
</clipPath>
<clipPath id="clip3_1027_14670">
<rect width="12" height="12" fill="white" transform="translate(700 62)"/>
</clipPath>
<clipPath id="clip4_1027_14670">
<rect width="57" height="28" fill="white" transform="translate(677.5 96)"/>
</clipPath>
<clipPath id="clip5_1027_14670">
<rect width="66" height="28" fill="white" transform="translate(821 96)"/>
</clipPath>
</defs>
</svg>
