<svg width="211" height="208" viewBox="0 0 211 208" fill="none" xmlns="http://www.w3.org/2000/svg">
<mask id="path-1-inside-1_1027_318850" fill="white">
<path d="M0 0H211V208H0V0Z"/>
</mask>
<path d="M0 0H211V208H0V0Z" fill="#1A1A1A"/>
<path d="M211 208V209H212V208H211ZM210 0V208H212V0H210ZM211 207H0V209H211V207Z" fill="white" fill-opacity="0.3" mask="url(#path-1-inside-1_1027_318850)"/>
<path d="M35 110H31.4091V98.3636H35.1591C36.2879 98.3636 37.2538 98.5966 38.0568 99.0625C38.8598 99.5246 39.4754 100.189 39.9034 101.057C40.3314 101.92 40.5455 102.955 40.5455 104.159C40.5455 105.371 40.3295 106.415 39.8977 107.29C39.4659 108.161 38.8371 108.831 38.0114 109.301C37.1856 109.767 36.1818 110 35 110ZM32.8182 108.75H34.9091C35.8712 108.75 36.6686 108.564 37.3011 108.193C37.9337 107.822 38.4053 107.294 38.7159 106.608C39.0265 105.922 39.1818 105.106 39.1818 104.159C39.1818 103.22 39.0284 102.411 38.7216 101.733C38.4148 101.051 37.9564 100.528 37.3466 100.165C36.7367 99.7973 35.9773 99.6136 35.0682 99.6136H32.8182V108.75ZM42.7273 110V101.273H44.0682V110H42.7273ZM43.4091 99.8182C43.1477 99.8182 42.9223 99.7292 42.733 99.5511C42.5473 99.3731 42.4545 99.1591 42.4545 98.9091C42.4545 98.6591 42.5473 98.4451 42.733 98.267C42.9223 98.089 43.1477 98 43.4091 98C43.6705 98 43.8939 98.089 44.0795 98.267C44.2689 98.4451 44.3636 98.6591 44.3636 98.9091C44.3636 99.1591 44.2689 99.3731 44.0795 99.5511C43.8939 99.7292 43.6705 99.8182 43.4091 99.8182ZM49.0923 110.205C48.5393 110.205 48.0374 110.1 47.5866 109.892C47.1359 109.68 46.7779 109.375 46.5128 108.977C46.2476 108.576 46.1151 108.091 46.1151 107.523C46.1151 107.023 46.2135 106.617 46.4105 106.307C46.6075 105.992 46.8707 105.746 47.2003 105.568C47.5298 105.39 47.8935 105.258 48.2912 105.17C48.6927 105.08 49.0961 105.008 49.5014 104.955C50.0317 104.886 50.4616 104.835 50.7912 104.801C51.1245 104.763 51.367 104.701 51.5185 104.614C51.6738 104.527 51.7514 104.375 51.7514 104.159V104.114C51.7514 103.553 51.598 103.117 51.2912 102.807C50.9882 102.496 50.5279 102.341 49.9105 102.341C49.2704 102.341 48.7685 102.481 48.4048 102.761C48.0412 103.042 47.7855 103.341 47.6378 103.659L46.3651 103.205C46.5923 102.674 46.8954 102.261 47.2741 101.966C47.6567 101.667 48.0734 101.458 48.5241 101.341C48.9787 101.22 49.4257 101.159 49.8651 101.159C50.1454 101.159 50.4673 101.193 50.831 101.261C51.1984 101.326 51.5526 101.46 51.8935 101.665C52.2382 101.869 52.5241 102.178 52.7514 102.591C52.9787 103.004 53.0923 103.557 53.0923 104.25V110H51.7514V108.818H51.6832C51.5923 109.008 51.4408 109.21 51.2287 109.426C51.0166 109.642 50.7344 109.826 50.3821 109.977C50.0298 110.129 49.5999 110.205 49.0923 110.205ZM49.2969 109C49.8272 109 50.2741 108.896 50.6378 108.688C51.0052 108.479 51.2817 108.21 51.4673 107.881C51.6567 107.551 51.7514 107.205 51.7514 106.841V105.614C51.6946 105.682 51.5696 105.744 51.3764 105.801C51.187 105.854 50.9673 105.902 50.7173 105.943C50.4711 105.981 50.2306 106.015 49.9957 106.045C49.7647 106.072 49.5772 106.095 49.4332 106.114C49.0848 106.159 48.759 106.233 48.456 106.335C48.1567 106.434 47.9143 106.583 47.7287 106.784C47.5469 106.981 47.456 107.25 47.456 107.591C47.456 108.057 47.6283 108.409 47.973 108.648C48.3215 108.883 48.7628 109 49.2969 109ZM56.8807 98.3636V110H55.5398V98.3636H56.8807ZM62.8821 110.182C62.0942 110.182 61.4029 109.994 60.8082 109.619C60.2173 109.244 59.7552 108.72 59.4219 108.045C59.0923 107.371 58.9276 106.583 58.9276 105.682C58.9276 104.773 59.0923 103.979 59.4219 103.301C59.7552 102.623 60.2173 102.097 60.8082 101.722C61.4029 101.347 62.0942 101.159 62.8821 101.159C63.67 101.159 64.3594 101.347 64.9503 101.722C65.545 102.097 66.0071 102.623 66.3366 103.301C66.67 103.979 66.8366 104.773 66.8366 105.682C66.8366 106.583 66.67 107.371 66.3366 108.045C66.0071 108.72 65.545 109.244 64.9503 109.619C64.3594 109.994 63.67 110.182 62.8821 110.182ZM62.8821 108.977C63.4806 108.977 63.973 108.824 64.3594 108.517C64.7457 108.21 65.0317 107.807 65.2173 107.307C65.4029 106.807 65.4957 106.265 65.4957 105.682C65.4957 105.098 65.4029 104.555 65.2173 104.051C65.0317 103.547 64.7457 103.14 64.3594 102.83C63.973 102.519 63.4806 102.364 62.8821 102.364C62.2836 102.364 61.7912 102.519 61.4048 102.83C61.0185 103.14 60.7325 103.547 60.5469 104.051C60.3613 104.555 60.2685 105.098 60.2685 105.682C60.2685 106.265 60.3613 106.807 60.5469 107.307C60.7325 107.807 61.0185 108.21 61.4048 108.517C61.7912 108.824 62.2836 108.977 62.8821 108.977ZM72.4062 113.455C71.7585 113.455 71.2017 113.371 70.7358 113.205C70.2699 113.042 69.8816 112.826 69.571 112.557C69.2642 112.292 69.0199 112.008 68.8381 111.705L69.9062 110.955C70.0275 111.114 70.1809 111.295 70.3665 111.5C70.5521 111.708 70.8059 111.888 71.1278 112.04C71.4536 112.195 71.8797 112.273 72.4062 112.273C73.1108 112.273 73.6922 112.102 74.1506 111.761C74.6089 111.42 74.8381 110.886 74.8381 110.159V108.386H74.7244C74.6259 108.545 74.4858 108.742 74.304 108.977C74.1259 109.208 73.8684 109.415 73.5312 109.597C73.1979 109.775 72.7472 109.864 72.179 109.864C71.4744 109.864 70.8419 109.697 70.2812 109.364C69.7244 109.03 69.2831 108.545 68.9574 107.909C68.6354 107.273 68.4744 106.5 68.4744 105.591C68.4744 104.697 68.6316 103.919 68.946 103.256C69.2604 102.589 69.6979 102.074 70.2585 101.71C70.8191 101.343 71.4669 101.159 72.2017 101.159C72.7699 101.159 73.2206 101.254 73.554 101.443C73.8911 101.629 74.1487 101.841 74.3267 102.08C74.5085 102.314 74.6487 102.508 74.7472 102.659H74.8835V101.273H76.179V110.25C76.179 111 76.0085 111.61 75.6676 112.08C75.3305 112.553 74.8759 112.9 74.304 113.119C73.7358 113.343 73.1032 113.455 72.4062 113.455ZM72.3608 108.659C72.8987 108.659 73.3532 108.536 73.7244 108.29C74.0956 108.044 74.3778 107.689 74.571 107.227C74.7642 106.765 74.8608 106.212 74.8608 105.568C74.8608 104.939 74.7661 104.384 74.5767 103.903C74.3873 103.422 74.107 103.045 73.7358 102.773C73.3646 102.5 72.9063 102.364 72.3608 102.364C71.7926 102.364 71.3191 102.508 70.9403 102.795C70.5653 103.083 70.2831 103.47 70.0938 103.955C69.9081 104.439 69.8153 104.977 69.8153 105.568C69.8153 106.174 69.91 106.71 70.0994 107.176C70.2926 107.638 70.5767 108.002 70.9517 108.267C71.3305 108.528 71.8002 108.659 72.3608 108.659Z" fill="white" fill-opacity="0.95"/>
</svg>
