<svg width="553" height="184" viewBox="0 0 553 184" fill="none" xmlns="http://www.w3.org/2000/svg">
<rect width="553" height="184" rx="24" fill="#262626"/>
<rect x="260.5" y="84" width="33" height="16" rx="8" fill="#1170CF"/>
<path d="M264.863 96V87.2727H268.059C268.678 87.2727 269.191 87.375 269.597 87.5795C270.004 87.7812 270.308 88.0554 270.509 88.402C270.711 88.7457 270.812 89.1335 270.812 89.5653C270.812 89.929 270.745 90.2358 270.612 90.4858C270.478 90.733 270.299 90.9318 270.075 91.0824C269.853 91.2301 269.609 91.3381 269.342 91.4062V91.4915C269.632 91.5057 269.914 91.5994 270.19 91.7727C270.468 91.9432 270.698 92.1861 270.88 92.5014C271.062 92.8168 271.153 93.2003 271.153 93.652C271.153 94.098 271.048 94.4986 270.838 94.8537C270.63 95.206 270.309 95.4858 269.874 95.6932C269.44 95.8977 268.884 96 268.208 96H264.863ZM266.18 94.8707H268.08C268.711 94.8707 269.163 94.7486 269.436 94.5043C269.708 94.2599 269.845 93.9545 269.845 93.5881C269.845 93.3125 269.775 93.0597 269.636 92.8295C269.497 92.5994 269.298 92.4162 269.039 92.2798C268.784 92.1435 268.48 92.0753 268.127 92.0753H266.18V94.8707ZM266.18 91.0483H267.944C268.24 91.0483 268.505 90.9915 268.741 90.8778C268.98 90.7642 269.169 90.6051 269.308 90.4006C269.45 90.1932 269.521 89.9489 269.521 89.6676C269.521 89.3068 269.394 89.0043 269.142 88.7599C268.889 88.5156 268.501 88.3935 267.978 88.3935H266.18V91.0483ZM275.433 96.1321C274.789 96.1321 274.233 95.9943 273.767 95.7188C273.304 95.4403 272.946 95.0497 272.693 94.5469C272.443 94.0412 272.318 93.4489 272.318 92.7699C272.318 92.0994 272.443 91.5085 272.693 90.9972C272.946 90.4858 273.298 90.0866 273.75 89.7997C274.205 89.5128 274.736 89.3693 275.344 89.3693C275.713 89.3693 276.071 89.4304 276.418 89.5526C276.764 89.6747 277.075 89.8665 277.351 90.1278C277.627 90.3892 277.844 90.7287 278.003 91.1463C278.162 91.5611 278.242 92.0653 278.242 92.6591V93.1108H273.039V92.1562H276.993C276.993 91.821 276.925 91.5241 276.789 91.2656C276.652 91.0043 276.46 90.7983 276.213 90.6477C275.969 90.4972 275.682 90.4219 275.352 90.4219C274.994 90.4219 274.682 90.5099 274.415 90.6861C274.151 90.8594 273.946 91.0866 273.801 91.3679C273.659 91.6463 273.588 91.9489 273.588 92.2756V93.0213C273.588 93.4588 273.665 93.831 273.818 94.1378C273.975 94.4446 274.192 94.679 274.47 94.8409C274.749 95 275.074 95.0795 275.446 95.0795C275.688 95.0795 275.908 95.0455 276.107 94.9773C276.306 94.9062 276.477 94.8011 276.622 94.6619C276.767 94.5227 276.878 94.3509 276.955 94.1463L278.161 94.3636C278.064 94.7187 277.891 95.0298 277.641 95.2969C277.394 95.5611 277.083 95.767 276.708 95.9148C276.335 96.0597 275.911 96.1321 275.433 96.1321ZM282.711 89.4545V90.4773H279.135V89.4545H282.711ZM280.094 87.8864H281.368V94.0781C281.368 94.3253 281.405 94.5114 281.479 94.6364C281.553 94.7585 281.648 94.8423 281.765 94.8878C281.884 94.9304 282.013 94.9517 282.153 94.9517C282.255 94.9517 282.344 94.9446 282.421 94.9304C282.498 94.9162 282.557 94.9048 282.6 94.8963L282.83 95.9489C282.756 95.9773 282.651 96.0057 282.515 96.0341C282.378 96.0653 282.208 96.0824 282.003 96.0852C281.668 96.0909 281.356 96.0312 281.066 95.9062C280.776 95.7812 280.542 95.5881 280.363 95.3267C280.184 95.0653 280.094 94.7372 280.094 94.3423V87.8864ZM286.025 96.1449C285.61 96.1449 285.235 96.0682 284.9 95.9148C284.565 95.7585 284.299 95.5327 284.103 95.2372C283.91 94.9418 283.813 94.5795 283.813 94.1506C283.813 93.7812 283.884 93.4773 284.026 93.2386C284.169 93 284.36 92.8111 284.602 92.6719C284.843 92.5327 285.113 92.4276 285.411 92.3565C285.71 92.2855 286.014 92.2315 286.323 92.1946C286.715 92.1491 287.034 92.1122 287.278 92.0838C287.522 92.0526 287.7 92.0028 287.811 91.9347C287.921 91.8665 287.977 91.7557 287.977 91.6023V91.5724C287.977 91.2003 287.872 90.9119 287.661 90.7074C287.454 90.5028 287.144 90.4006 286.732 90.4006C286.303 90.4006 285.965 90.4957 285.718 90.6861C285.474 90.8736 285.305 91.0824 285.211 91.3125L284.014 91.0398C284.156 90.642 284.363 90.321 284.636 90.0767C284.911 89.8295 285.228 89.6506 285.586 89.5398C285.944 89.4261 286.32 89.3693 286.715 89.3693C286.977 89.3693 287.254 89.4006 287.546 89.4631C287.842 89.5227 288.117 89.6335 288.373 89.7955C288.632 89.9574 288.843 90.1889 289.008 90.4901C289.173 90.7884 289.255 91.1761 289.255 91.6534V96H288.011V95.1051H287.96C287.877 95.2699 287.754 95.4318 287.589 95.5909C287.424 95.75 287.213 95.8821 286.954 95.9872C286.695 96.0923 286.386 96.1449 286.025 96.1449ZM286.302 95.1222C286.654 95.1222 286.955 95.0526 287.205 94.9134C287.458 94.7741 287.65 94.5923 287.781 94.3679C287.914 94.1406 287.981 93.8977 287.981 93.6392V92.7955C287.936 92.8409 287.847 92.8835 287.717 92.9233C287.589 92.9602 287.443 92.9929 287.278 93.0213C287.113 93.0469 286.953 93.071 286.796 93.0938C286.64 93.1136 286.509 93.1307 286.404 93.1449C286.157 93.1761 285.931 93.2287 285.727 93.3026C285.525 93.3764 285.363 93.483 285.241 93.6222C285.122 93.7585 285.062 93.9403 285.062 94.1676C285.062 94.483 285.178 94.7216 285.411 94.8835C285.644 95.0426 285.941 95.1222 286.302 95.1222Z" fill="white" fill-opacity="0.95"/>
</svg>
