<svg width="628" height="184" viewBox="0 0 628 184" fill="none" xmlns="http://www.w3.org/2000/svg">
<rect width="628" height="184" rx="24" fill="#262626"/>
<rect x="295.25" y="84" width="37" height="16" rx="8" fill="#1170CF"/>
<path d="M302.052 87.1321C302.441 87.1349 302.825 87.206 303.203 87.3452C303.58 87.4844 303.921 87.7131 304.225 88.0312C304.532 88.3466 304.776 88.7727 304.958 89.3097C305.143 89.8466 305.237 90.517 305.24 91.321C305.237 92.0852 305.159 92.7656 305.005 93.3622C304.855 93.956 304.636 94.4574 304.349 94.8665C304.062 95.2756 303.715 95.5866 303.309 95.7997C302.906 96.0128 302.45 96.1193 301.941 96.1193C301.421 96.1193 300.96 96.017 300.556 95.8125C300.153 95.608 299.825 95.3253 299.572 94.9645C299.319 94.6009 299.161 94.1832 299.099 93.7116H300.399C300.484 94.0866 300.657 94.3906 300.919 94.6236C301.183 94.8537 301.524 94.9688 301.941 94.9688C302.58 94.9688 303.079 94.6903 303.437 94.1335C303.795 93.5739 303.975 92.7926 303.978 91.7898H303.91C303.762 92.0341 303.578 92.2443 303.356 92.4205C303.137 92.5966 302.892 92.733 302.619 92.8295C302.346 92.9261 302.055 92.9744 301.745 92.9744C301.242 92.9744 300.784 92.8509 300.369 92.6037C299.957 92.3565 299.629 92.017 299.384 91.5852C299.143 91.1534 299.022 90.6591 299.022 90.1023C299.022 89.5455 299.147 89.0426 299.397 88.5938C299.65 88.142 300.002 87.7855 300.454 87.5241C300.909 87.2599 301.441 87.1293 302.052 87.1321ZM302.056 88.2401C301.724 88.2401 301.424 88.3224 301.157 88.4872C300.893 88.652 300.684 88.8736 300.531 89.152C300.377 89.4304 300.301 89.7415 300.301 90.0852C300.301 90.4233 300.374 90.7301 300.522 91.0057C300.673 91.2812 300.877 91.5 301.136 91.6619C301.397 91.821 301.695 91.9006 302.031 91.9006C302.281 91.9006 302.514 91.8523 302.73 91.7557C302.945 91.6591 303.133 91.5256 303.292 91.3551C303.454 91.1818 303.58 90.9858 303.671 90.767C303.765 90.5455 303.812 90.3139 303.812 90.0724C303.812 89.7457 303.735 89.4432 303.582 89.1648C303.431 88.8864 303.224 88.6634 302.96 88.4957C302.695 88.3253 302.394 88.2401 302.056 88.2401ZM309.681 87.1321C310.07 87.1349 310.454 87.206 310.831 87.3452C311.209 87.4844 311.55 87.7131 311.854 88.0312C312.161 88.3466 312.405 88.7727 312.587 89.3097C312.772 89.8466 312.866 90.517 312.868 91.321C312.866 92.0852 312.787 92.7656 312.634 93.3622C312.483 93.956 312.265 94.4574 311.978 94.8665C311.691 95.2756 311.344 95.5866 310.938 95.7997C310.535 96.0128 310.079 96.1193 309.57 96.1193C309.05 96.1193 308.589 96.017 308.185 95.8125C307.782 95.608 307.454 95.3253 307.201 94.9645C306.948 94.6009 306.79 94.1832 306.728 93.7116H308.028C308.113 94.0866 308.286 94.3906 308.547 94.6236C308.812 94.8537 309.153 94.9688 309.57 94.9688C310.209 94.9688 310.708 94.6903 311.066 94.1335C311.424 93.5739 311.604 92.7926 311.607 91.7898H311.539C311.391 92.0341 311.206 92.2443 310.985 92.4205C310.766 92.5966 310.52 92.733 310.248 92.8295C309.975 92.9261 309.684 92.9744 309.374 92.9744C308.871 92.9744 308.412 92.8509 307.998 92.6037C307.586 92.3565 307.258 92.017 307.013 91.5852C306.772 91.1534 306.651 90.6591 306.651 90.1023C306.651 89.5455 306.776 89.0426 307.026 88.5938C307.279 88.142 307.631 87.7855 308.083 87.5241C308.537 87.2599 309.07 87.1293 309.681 87.1321ZM309.685 88.2401C309.353 88.2401 309.053 88.3224 308.786 88.4872C308.522 88.652 308.313 88.8736 308.16 89.152C308.006 89.4304 307.93 89.7415 307.93 90.0852C307.93 90.4233 308.003 90.7301 308.151 91.0057C308.302 91.2812 308.506 91.5 308.765 91.6619C309.026 91.821 309.324 91.9006 309.66 91.9006C309.91 91.9006 310.143 91.8523 310.358 91.7557C310.574 91.6591 310.762 91.5256 310.921 91.3551C311.083 91.1818 311.209 90.9858 311.3 90.767C311.394 90.5455 311.441 90.3139 311.441 90.0724C311.441 89.7457 311.364 89.4432 311.211 89.1648C311.06 88.8864 310.853 88.6634 310.589 88.4957C310.324 88.3253 310.023 88.2401 309.685 88.2401ZM317.31 87.1321C317.699 87.1349 318.083 87.206 318.46 87.3452C318.838 87.4844 319.179 87.7131 319.483 88.0312C319.79 88.3466 320.034 88.7727 320.216 89.3097C320.401 89.8466 320.494 90.517 320.497 91.321C320.494 92.0852 320.416 92.7656 320.263 93.3622C320.112 93.956 319.894 94.4574 319.607 94.8665C319.32 95.2756 318.973 95.5866 318.567 95.7997C318.164 96.0128 317.708 96.1193 317.199 96.1193C316.679 96.1193 316.218 96.017 315.814 95.8125C315.411 95.608 315.083 95.3253 314.83 94.9645C314.577 94.6009 314.419 94.1832 314.357 93.7116H315.656C315.742 94.0866 315.915 94.3906 316.176 94.6236C316.441 94.8537 316.781 94.9688 317.199 94.9688C317.838 94.9688 318.337 94.6903 318.695 94.1335C319.053 93.5739 319.233 92.7926 319.236 91.7898H319.168C319.02 92.0341 318.835 92.2443 318.614 92.4205C318.395 92.5966 318.149 92.733 317.877 92.8295C317.604 92.9261 317.313 92.9744 317.003 92.9744C316.5 92.9744 316.041 92.8509 315.627 92.6037C315.215 92.3565 314.887 92.017 314.642 91.5852C314.401 91.1534 314.28 90.6591 314.28 90.1023C314.28 89.5455 314.405 89.0426 314.655 88.5938C314.908 88.142 315.26 87.7855 315.712 87.5241C316.166 87.2599 316.699 87.1293 317.31 87.1321ZM317.314 88.2401C316.982 88.2401 316.682 88.3224 316.415 88.4872C316.151 88.652 315.942 88.8736 315.789 89.152C315.635 89.4304 315.558 89.7415 315.558 90.0852C315.558 90.4233 315.632 90.7301 315.78 91.0057C315.931 91.2812 316.135 91.5 316.394 91.6619C316.655 91.821 316.953 91.9006 317.289 91.9006C317.539 91.9006 317.771 91.8523 317.987 91.7557C318.203 91.6591 318.391 91.5256 318.55 91.3551C318.712 91.1818 318.838 90.9858 318.929 90.767C319.023 90.5455 319.07 90.3139 319.07 90.0724C319.07 89.7457 318.993 89.4432 318.84 89.1648C318.689 88.8864 318.482 88.6634 318.218 88.4957C317.953 88.3253 317.652 88.2401 317.314 88.2401ZM324.619 94.5341V88.7727H325.765V94.5341H324.619ZM322.314 92.2244V91.0781H328.075V92.2244H322.314Z" fill="white" fill-opacity="0.95"/>
</svg>
