<svg width="559" height="80" viewBox="0 0 559 80" fill="none" xmlns="http://www.w3.org/2000/svg">
<path d="M519 25.9996C516.232 25.9996 513.525 26.8207 511.223 28.3591C508.92 29.8974 507.126 32.0839 506.066 34.6421C505.007 37.2002 504.729 40.0152 505.27 42.7309C505.81 45.4466 507.143 47.9412 509.101 49.8991C511.059 51.8571 513.553 53.1904 516.269 53.7306C518.985 54.2708 521.8 53.9936 524.358 52.9339C526.916 51.8743 529.103 50.0799 530.641 47.7776C532.179 45.4753 533 42.7686 533 39.9996C532.996 36.2879 531.52 32.7293 528.895 30.1047C526.271 27.4801 522.712 26.0038 519 25.9996ZM528.155 47.7404L511.26 30.8449C513.555 28.8984 516.498 27.8864 519.505 28.0097C522.511 28.133 525.362 29.3827 527.49 31.5106C529.617 33.6384 530.867 36.4888 530.99 39.4955C531.114 42.5022 530.102 45.4454 528.155 47.7404ZM509.846 32.2589L526.741 49.1544C524.446 51.1008 521.503 52.1129 518.496 51.9895C515.49 51.8662 512.639 50.6165 510.512 48.4886C508.384 46.3608 507.134 43.5105 507.011 40.5038C506.887 37.4971 507.899 34.5539 509.846 32.2589Z" fill="#FC8B98"/>
</svg>
