<svg width="628" height="236" viewBox="0 0 628 236" fill="none" xmlns="http://www.w3.org/2000/svg">
<rect width="628" height="236" rx="24" fill="#262626"/>
<rect x="220" y="60" width="64" height="64" rx="32" fill="white" fill-opacity="0.95"/>
<path d="M260.105 99.044C261.801 97.089 262.734 94.5879 262.734 91.9999C262.734 89.4118 261.801 86.9107 260.105 84.9557L265.53 79.5299C265.604 79.4612 265.663 79.3784 265.704 79.2864C265.745 79.1944 265.767 79.0951 265.769 78.9944C265.77 78.8937 265.752 78.7937 265.714 78.7003C265.676 78.6069 265.62 78.5221 265.549 78.4509C265.478 78.3797 265.393 78.3235 265.3 78.2858C265.206 78.2481 265.106 78.2295 265.006 78.2313C264.905 78.2331 264.805 78.2551 264.713 78.2961C264.621 78.3371 264.539 78.3962 264.47 78.4699L259.045 83.8941C257.094 82.1895 254.591 81.2501 252 81.2501C249.409 81.2501 246.906 82.1895 244.955 83.8941L239.53 78.4699C239.388 78.3374 239.2 78.2653 239.006 78.2687C238.811 78.2722 238.626 78.3509 238.488 78.4883C238.351 78.6257 238.272 78.8111 238.269 79.0054C238.265 79.1997 238.338 79.3877 238.47 79.5299L243.895 84.9554C242.199 86.9105 241.266 89.4117 241.266 91.9999C241.266 94.588 242.199 97.0892 243.895 99.0443L238.47 104.47C238.396 104.539 238.337 104.621 238.296 104.713C238.255 104.805 238.233 104.905 238.231 105.005C238.23 105.106 238.248 105.206 238.286 105.3C238.324 105.393 238.38 105.478 238.451 105.549C238.522 105.62 238.607 105.676 238.7 105.714C238.794 105.752 238.894 105.77 238.995 105.769C239.095 105.767 239.195 105.745 239.287 105.704C239.379 105.663 239.461 105.604 239.53 105.53L244.955 100.106C246.906 101.811 249.409 102.75 252 102.75C254.591 102.75 257.094 101.811 259.045 100.106L264.47 105.53C264.612 105.662 264.8 105.735 264.995 105.731C265.189 105.728 265.374 105.649 265.512 105.512C265.649 105.374 265.728 105.189 265.731 104.994C265.735 104.8 265.663 104.612 265.53 104.47L260.105 99.044ZM259.044 97.9835L253.061 91.9999L259.044 86.0162C260.461 87.6881 261.238 89.8084 261.238 91.9999C261.238 94.1913 260.461 96.3116 259.044 97.9835ZM252 82.7499C254.194 82.7456 256.318 83.5277 257.985 84.9546L252 90.9393L246.015 84.9544C247.682 83.5277 249.806 82.7456 252 82.7499ZM244.956 86.016L250.94 91.9999L244.956 97.9837C243.539 96.3118 242.761 94.1914 242.761 91.9999C242.761 89.8083 243.539 87.6879 244.956 86.016ZM252 101.25C249.806 101.254 247.682 100.472 246.015 99.0453L252 93.0604L257.985 99.0451C256.318 100.472 254.194 101.254 252 101.25Z" fill="black" fill-opacity="0.95"/>
<g clip-path="url(#clip0_1040_4074)">
<path d="M276 73.0625C278.796 73.0625 281.062 70.7959 281.062 68C281.062 65.2041 278.796 62.9375 276 62.9375C273.204 62.9375 270.938 65.2041 270.938 68C270.938 70.7959 273.204 73.0625 276 73.0625Z" fill="#1170CF"/>
</g>
<rect x="236" y="144" width="32" height="32" rx="16" fill="#7856FF"/>
<path d="M253.755 155.318V165.5H251.602V157.362H251.543L249.211 158.823V156.914L251.732 155.318H253.755Z" fill="white" fill-opacity="0.95"/>
<rect x="344" y="60" width="64" height="64" rx="32" fill="white" fill-opacity="0.95"/>
<path d="M384.105 99.044C385.8 97.089 386.734 94.5879 386.734 91.9999C386.734 89.4118 385.8 86.9107 384.105 84.9557L389.53 79.5299C389.604 79.4612 389.663 79.3784 389.704 79.2864C389.745 79.1944 389.767 79.0951 389.769 78.9944C389.77 78.8937 389.752 78.7937 389.714 78.7003C389.676 78.6069 389.62 78.5221 389.549 78.4509C389.478 78.3797 389.393 78.3235 389.3 78.2858C389.206 78.2481 389.106 78.2295 389.005 78.2313C388.905 78.2331 388.805 78.2551 388.713 78.2961C388.621 78.3371 388.539 78.3962 388.47 78.4699L383.045 83.8941C381.094 82.1895 378.591 81.2501 376 81.2501C373.409 81.2501 370.906 82.1895 368.955 83.8941L363.53 78.4699C363.388 78.3374 363.2 78.2653 363.005 78.2687C362.811 78.2722 362.626 78.3509 362.488 78.4883C362.351 78.6257 362.272 78.8111 362.269 79.0054C362.265 79.1997 362.337 79.3877 362.47 79.5299L367.895 84.9554C366.199 86.9105 365.265 89.4117 365.265 91.9999C365.265 94.588 366.199 97.0892 367.895 99.0443L362.47 104.47C362.396 104.539 362.337 104.621 362.296 104.713C362.255 104.805 362.233 104.905 362.231 105.005C362.23 105.106 362.248 105.206 362.286 105.3C362.324 105.393 362.38 105.478 362.451 105.549C362.522 105.62 362.607 105.676 362.7 105.714C362.794 105.752 362.894 105.77 362.994 105.769C363.095 105.767 363.194 105.745 363.286 105.704C363.378 105.663 363.461 105.604 363.53 105.53L368.955 100.106C370.906 101.811 373.409 102.75 376 102.75C378.591 102.75 381.094 101.811 383.045 100.106L388.47 105.53C388.612 105.662 388.8 105.735 388.994 105.731C389.189 105.728 389.374 105.649 389.512 105.512C389.649 105.374 389.728 105.189 389.731 104.994C389.735 104.8 389.662 104.612 389.53 104.47L384.105 99.044ZM383.044 97.9835L377.061 91.9999L383.044 86.0162C384.461 87.6881 385.238 89.8084 385.238 91.9999C385.238 94.1913 384.461 96.3116 383.044 97.9835ZM376 82.7499C378.194 82.7456 380.318 83.5277 381.985 84.9546L376 90.9393L370.015 84.9544C371.682 83.5277 373.806 82.7456 376 82.7499ZM368.956 86.016L374.94 91.9999L368.956 97.9837C367.539 96.3118 366.761 94.1914 366.761 91.9999C366.761 89.8083 367.539 87.6879 368.956 86.016ZM376 101.25C373.806 101.254 371.682 100.472 370.015 99.0453L376 93.0604L381.985 99.0451C380.318 100.472 378.194 101.254 376 101.25Z" fill="black" fill-opacity="0.95"/>
<rect x="392" y="60" width="16" height="16" rx="8" fill="#1170CF"/>
<g clip-path="url(#clip1_1040_4074)">
<path d="M403.168 70.6382C403.784 69.8969 404.121 68.9636 404.121 68C404.121 67.0365 403.784 66.1032 403.168 65.3619L405.14 63.3901C405.176 63.3554 405.204 63.3141 405.223 63.2684C405.243 63.2227 405.253 63.1736 405.253 63.124C405.254 63.0743 405.244 63.0251 405.225 62.9792C405.206 62.9332 405.179 62.8915 405.143 62.8564C405.108 62.8213 405.067 62.7935 405.021 62.7747C404.975 62.7558 404.926 62.7463 404.876 62.7466C404.826 62.7469 404.777 62.7571 404.732 62.7765C404.686 62.7959 404.644 62.8243 404.61 62.8598L402.639 64.8309C401.898 64.2133 400.964 63.875 400 63.875C399.036 63.875 398.102 64.2133 397.361 64.8309L395.39 62.8598C395.319 62.7909 395.225 62.7527 395.126 62.7533C395.027 62.7539 394.933 62.7934 394.863 62.8631C394.793 62.9329 394.754 63.0273 394.753 63.1259C394.753 63.2246 394.791 63.3195 394.86 63.3901L396.831 65.3616C396.216 66.103 395.879 67.0363 395.879 67.9999C395.879 68.9636 396.216 69.8969 396.831 70.6382L394.86 72.6098C394.824 72.6445 394.796 72.6858 394.777 72.7315C394.757 72.7772 394.747 72.8263 394.747 72.8759C394.746 72.9256 394.756 72.9748 394.775 73.0207C394.794 73.0666 394.821 73.1084 394.856 73.1435C394.892 73.1786 394.933 73.2064 394.979 73.2252C395.025 73.2441 395.074 73.2536 395.124 73.2533C395.174 73.253 395.223 73.2428 395.268 73.2234C395.314 73.2039 395.355 73.1756 395.39 73.1401L397.361 71.169C398.102 71.7867 399.036 72.125 400 72.125C400.964 72.125 401.898 71.7867 402.639 71.169L404.61 73.1401C404.68 73.2089 404.775 73.2472 404.874 73.2466C404.973 73.2459 405.067 73.2065 405.137 73.1367C405.206 73.067 405.246 72.9726 405.247 72.874C405.247 72.7753 405.209 72.6804 405.14 72.6098L403.168 70.6382ZM402.636 70.1057L400.53 68L402.636 65.8942C403.113 66.4926 403.372 67.2349 403.372 67.9999C403.372 68.7649 403.113 69.5073 402.636 70.1057ZM400 64.625C400.766 64.6232 401.509 64.8841 402.106 65.364L400 67.4697L397.894 65.3639C398.491 64.884 399.234 64.6232 400 64.625ZM397.364 65.8941L399.47 68L397.364 70.1058C396.887 69.5074 396.627 68.765 396.627 67.9999C396.627 67.2349 396.887 66.4925 397.364 65.8941ZM400 71.375C399.234 71.3767 398.491 71.1159 397.894 70.636L400 68.5302L402.106 70.6359C401.509 71.1158 400.766 71.3767 400 71.375Z" fill="white" fill-opacity="0.95"/>
</g>
<rect x="360" y="144" width="32" height="32" rx="16" fill="#7856FF"/>
<path d="M372.325 165.5V163.949L375.95 160.593C376.258 160.295 376.516 160.026 376.725 159.788C376.937 159.549 377.098 159.315 377.207 159.087C377.317 158.855 377.371 158.604 377.371 158.336C377.371 158.038 377.304 157.781 377.168 157.565C377.032 157.347 376.846 157.179 376.611 157.063C376.375 156.944 376.109 156.884 375.81 156.884C375.499 156.884 375.227 156.947 374.995 157.073C374.763 157.199 374.584 157.38 374.458 157.615C374.332 157.85 374.269 158.13 374.269 158.455H372.226C372.226 157.789 372.377 157.211 372.678 156.72C372.98 156.23 373.402 155.85 373.946 155.582C374.49 155.313 375.116 155.179 375.825 155.179C376.554 155.179 377.189 155.308 377.729 155.567C378.273 155.822 378.696 156.177 378.997 156.631C379.299 157.085 379.45 157.605 379.45 158.192C379.45 158.576 379.373 158.956 379.221 159.33C379.072 159.705 378.805 160.121 378.42 160.578C378.036 161.032 377.494 161.577 376.795 162.214L375.308 163.67V163.74H379.584V165.5H372.325Z" fill="white" fill-opacity="0.95"/>
<defs>
<clipPath id="clip0_1040_4074">
<rect width="12" height="12" fill="white" transform="translate(270 62)"/>
</clipPath>
<clipPath id="clip1_1040_4074">
<rect width="12" height="12" fill="white" transform="translate(394 62)"/>
</clipPath>
</defs>
</svg>
