<svg width="638" height="246" viewBox="0 0 638 246" fill="none" xmlns="http://www.w3.org/2000/svg">
<rect width="638" height="246" rx="24" fill="#262626"/>
<g filter="url(#filter0_dd_1227_9310)">
<g filter="url(#filter1_dd_1227_9310)">
<rect x="94" y="32" width="450" height="182" rx="8" fill="black"/>
<rect x="94.5" y="32.5" width="449" height="181" rx="7.5" stroke="white" stroke-opacity="0.2"/>
<path d="M118 65H116.208L112.96 56.424V65H111.104V53.48H113.696L117.152 62.84L120.432 53.48H122.976V65H121.088V56.456L118 65ZM126.846 59.032H124.846C124.985 58.168 125.417 57.5067 126.142 57.048C126.793 56.6427 127.609 56.44 128.59 56.44C129.774 56.44 130.681 56.744 131.31 57.352C131.854 57.8747 132.126 58.552 132.126 59.384V65H130.59L130.35 63.976C129.699 64.8187 128.777 65.24 127.582 65.24C126.633 65.24 125.897 64.984 125.374 64.472C124.915 64.024 124.686 63.4533 124.686 62.76C124.686 61.9813 124.969 61.3733 125.534 60.936C126.046 60.5307 126.841 60.2373 127.918 60.056L130.206 59.672V59.272C130.206 58.7707 130.041 58.3973 129.71 58.152C129.422 57.928 129.027 57.816 128.526 57.816C127.534 57.816 126.974 58.2213 126.846 59.032ZM130.206 60.936L128.398 61.256C127.779 61.3733 127.337 61.5387 127.07 61.752C126.803 61.9547 126.67 62.2427 126.67 62.616C126.67 63.3947 127.145 63.784 128.094 63.784C128.713 63.784 129.235 63.5813 129.662 63.176C130.025 62.824 130.206 62.4133 130.206 61.944V60.936ZM136.007 65H134.087V56.68H135.671L135.879 57.672C136.487 56.8507 137.329 56.44 138.407 56.44C139.409 56.44 140.177 56.7493 140.711 57.368C141.18 57.912 141.415 58.6533 141.415 59.592V65H139.495V59.64C139.495 58.4987 138.967 57.928 137.911 57.928C137.335 57.928 136.865 58.1307 136.503 58.536C136.172 58.9093 136.007 59.3787 136.007 59.944V65ZM151.239 65H149.703L149.367 63.928C148.717 64.8027 147.826 65.24 146.695 65.24C145.511 65.24 144.578 64.8133 143.895 63.96C143.277 63.1813 142.967 62.1627 142.967 60.904C142.967 59.3893 143.367 58.232 144.167 57.432C144.829 56.7707 145.687 56.44 146.743 56.44C147.842 56.44 148.701 56.8347 149.319 57.624V53.48H151.239V65ZM144.935 60.92C144.935 61.9013 145.17 62.632 145.639 63.112C146.023 63.5173 146.525 63.72 147.143 63.72C147.901 63.72 148.477 63.4427 148.871 62.888C149.223 62.3973 149.399 61.736 149.399 60.904C149.399 59.8587 149.154 59.08 148.663 58.568C148.279 58.1627 147.773 57.96 147.143 57.96C146.407 57.96 145.847 58.2373 145.463 58.792C145.111 59.2933 144.935 60.0027 144.935 60.92ZM155.034 59.032H153.034C153.172 58.168 153.604 57.5067 154.33 57.048C154.98 56.6427 155.796 56.44 156.778 56.44C157.962 56.44 158.868 56.744 159.498 57.352C160.042 57.8747 160.314 58.552 160.314 59.384V65H158.778L158.538 63.976C157.887 64.8187 156.964 65.24 155.77 65.24C154.82 65.24 154.084 64.984 153.562 64.472C153.103 64.024 152.874 63.4533 152.874 62.76C152.874 61.9813 153.156 61.3733 153.722 60.936C154.234 60.5307 155.028 60.2373 156.106 60.056L158.394 59.672V59.272C158.394 58.7707 158.228 58.3973 157.898 58.152C157.61 57.928 157.215 57.816 156.714 57.816C155.722 57.816 155.162 58.2213 155.034 59.032ZM158.394 60.936L156.586 61.256C155.967 61.3733 155.524 61.5387 155.258 61.752C154.991 61.9547 154.858 62.2427 154.858 62.616C154.858 63.3947 155.332 63.784 156.282 63.784C156.9 63.784 157.423 63.5813 157.85 63.176C158.212 62.824 158.394 62.4133 158.394 61.944V60.936ZM166.402 63.592V65.048C165.954 65.176 165.527 65.24 165.122 65.24C164.301 65.24 163.677 64.9947 163.25 64.504C162.887 64.088 162.706 63.528 162.706 62.824V58.152H161.458V56.68H162.706L162.834 54.68H164.626V56.68H166.386V58.152H164.626V62.888C164.626 63.4427 164.909 63.72 165.474 63.72C165.719 63.72 166.029 63.6773 166.402 63.592ZM167.217 60.824C167.217 59.3093 167.665 58.1627 168.561 57.384C169.297 56.7547 170.257 56.44 171.441 56.44C172.817 56.44 173.879 56.856 174.625 57.688C175.319 58.4453 175.665 59.4907 175.665 60.824C175.665 62.3387 175.228 63.4853 174.353 64.264C173.617 64.9147 172.647 65.24 171.441 65.24C170.076 65.24 169.015 64.8133 168.257 63.96C167.564 63.1813 167.217 62.136 167.217 60.824ZM171.457 63.816C172.215 63.816 172.78 63.5387 173.153 62.984C173.505 62.4827 173.681 61.7627 173.681 60.824C173.681 59.7573 173.447 58.9733 172.977 58.472C172.604 58.0667 172.092 57.864 171.441 57.864C170.695 57.864 170.129 58.136 169.745 58.68C169.383 59.1813 169.201 59.896 169.201 60.824C169.201 61.88 169.436 62.664 169.905 63.176C170.3 63.6027 170.817 63.816 171.457 63.816ZM182.17 56.552V58.408C181.818 58.3013 181.482 58.248 181.162 58.248C180.564 58.248 180.084 58.5093 179.722 59.032C179.38 59.5333 179.21 60.2267 179.21 61.112V65H177.29V56.68H178.874L179.114 57.928C179.583 56.936 180.292 56.44 181.242 56.44C181.583 56.44 181.892 56.4773 182.17 56.552ZM190.683 56.68L187.755 65.144C187.371 66.264 186.965 67.0373 186.539 67.464C186.112 67.9013 185.557 68.12 184.875 68.12C184.533 68.12 184.155 68.0667 183.739 67.96V66.52C184.069 66.6053 184.368 66.648 184.635 66.648C184.976 66.648 185.248 66.4987 185.451 66.2C185.6 65.976 185.771 65.576 185.963 65H185.371L182.347 56.68H184.411L186.555 63.528L188.763 56.68H190.683ZM195.887 61.704H197.919C198.015 62.3547 198.325 62.856 198.847 63.208C199.327 63.528 199.941 63.688 200.687 63.688C201.594 63.688 202.277 63.5013 202.735 63.128C203.098 62.8187 203.279 62.424 203.279 61.944C203.279 61.368 203.002 60.9253 202.447 60.616C201.999 60.3493 201.167 60.056 199.951 59.736C198.607 59.384 197.658 58.9467 197.103 58.424C196.559 57.9013 196.287 57.208 196.287 56.344C196.287 55.3413 196.709 54.5627 197.551 54.008C198.319 53.496 199.343 53.24 200.623 53.24C201.989 53.24 203.082 53.5547 203.903 54.184C204.618 54.7387 205.045 55.4747 205.183 56.392H203.167C203.093 55.848 202.805 55.432 202.303 55.144C201.855 54.8987 201.285 54.776 200.591 54.776C199.781 54.776 199.183 54.9253 198.799 55.224C198.501 55.4587 198.351 55.7733 198.351 56.168C198.351 56.6587 198.559 57.032 198.975 57.288C199.349 57.5227 200.058 57.7733 201.103 58.04C202.671 58.456 203.775 58.952 204.415 59.528C205.034 60.0933 205.343 60.8453 205.343 61.784C205.343 62.8293 204.901 63.672 204.015 64.312C203.173 64.9307 202.069 65.24 200.703 65.24C199.285 65.24 198.133 64.8773 197.247 64.152C196.49 63.5227 196.037 62.7067 195.887 61.704ZM214.089 56.68L211.161 65.144C210.777 66.264 210.372 67.0373 209.945 67.464C209.518 67.9013 208.964 68.12 208.281 68.12C207.94 68.12 207.561 68.0667 207.145 67.96V66.52C207.476 66.6053 207.774 66.648 208.041 66.648C208.382 66.648 208.654 66.4987 208.857 66.2C209.006 65.976 209.177 65.576 209.369 65H208.777L205.753 56.68H207.817L209.961 63.528L212.169 56.68H214.089ZM216.619 62.632C216.768 63.432 217.371 63.832 218.427 63.832C219.013 63.832 219.456 63.72 219.755 63.496C220 63.304 220.123 63.0533 220.123 62.744C220.123 62.3493 219.909 62.056 219.483 61.864C219.237 61.7573 218.699 61.608 217.867 61.416C216.843 61.1813 216.112 60.8613 215.675 60.456C215.237 60.0613 215.019 59.544 215.019 58.904C215.019 58.0933 215.349 57.4693 216.011 57.032C216.597 56.6373 217.403 56.44 218.427 56.44C219.483 56.44 220.331 56.6907 220.971 57.192C221.525 57.6187 221.872 58.1947 222.011 58.92H220.059C219.899 58.2053 219.344 57.848 218.395 57.848C217.435 57.848 216.955 58.1413 216.955 58.728C216.955 59.0267 217.077 59.2507 217.323 59.4C217.568 59.5493 218.064 59.7147 218.811 59.896C219.963 60.1627 220.763 60.4613 221.211 60.792C221.776 61.208 222.059 61.7947 222.059 62.552C222.059 63.416 221.707 64.0933 221.003 64.584C220.363 65.0213 219.499 65.24 218.411 65.24C217.269 65.24 216.357 64.968 215.675 64.424C215.099 63.9653 214.763 63.368 214.667 62.632H216.619ZM227.824 63.592V65.048C227.376 65.176 226.949 65.24 226.544 65.24C225.723 65.24 225.099 64.9947 224.672 64.504C224.309 64.088 224.128 63.528 224.128 62.824V58.152H222.88V56.68H224.128L224.256 54.68H226.048V56.68H227.808V58.152H226.048V62.888C226.048 63.4427 226.331 63.72 226.896 63.72C227.141 63.72 227.451 63.6773 227.824 63.592ZM234.703 62.6H236.719C236.495 63.4533 236.031 64.1147 235.327 64.584C234.655 65.0213 233.829 65.24 232.847 65.24C231.493 65.24 230.437 64.8133 229.679 63.96C228.986 63.1813 228.639 62.1413 228.639 60.84C228.639 59.3467 229.071 58.2053 229.935 57.416C230.661 56.7653 231.605 56.44 232.767 56.44C234.122 56.44 235.146 56.8827 235.839 57.768C236.49 58.5893 236.815 59.7627 236.815 61.288H230.591C230.666 62.184 230.943 62.84 231.423 63.256C231.807 63.5973 232.309 63.768 232.927 63.768C233.365 63.768 233.743 63.6613 234.063 63.448C234.383 63.2347 234.597 62.952 234.703 62.6ZM234.847 59.976C234.805 59.1973 234.57 58.6267 234.143 58.264C233.791 57.9547 233.333 57.8 232.767 57.8C232.149 57.8 231.653 58.0027 231.279 58.408C230.938 58.7707 230.719 59.2933 230.623 59.976H234.847ZM240.382 65H238.462V56.68H239.918L240.19 57.624C240.776 56.8347 241.603 56.44 242.67 56.44C243.832 56.44 244.659 56.856 245.15 57.688C245.747 56.856 246.654 56.44 247.87 56.44C248.83 56.44 249.566 56.7227 250.078 57.288C250.547 57.8107 250.782 58.5467 250.782 59.496V65H248.862V59.544C248.862 58.4667 248.36 57.928 247.358 57.928C246.782 57.928 246.323 58.152 245.982 58.6C245.715 58.9733 245.582 59.416 245.582 59.928V65H243.662V59.544C243.662 58.4667 243.16 57.928 242.158 57.928C241.614 57.928 241.171 58.1413 240.83 58.568C240.531 58.9307 240.382 59.3573 240.382 59.848V65ZM267.354 57.208H265.29C265.162 56.3973 264.81 55.7787 264.234 55.352C263.732 54.9893 263.119 54.808 262.394 54.808C261.295 54.808 260.458 55.2187 259.882 56.04C259.338 56.7973 259.066 57.8587 259.066 59.224C259.066 60.7707 259.412 61.9333 260.106 62.712C260.66 63.3413 261.391 63.656 262.298 63.656C263.226 63.656 263.967 63.3733 264.522 62.808C265.002 62.3173 265.268 61.672 265.322 60.872H267.402C267.284 62.248 266.714 63.3413 265.69 64.152C264.772 64.8773 263.631 65.24 262.266 65.24C260.538 65.24 259.199 64.6587 258.25 63.496C257.386 62.44 256.954 61.016 256.954 59.224C256.954 57.1867 257.519 55.64 258.65 54.584C259.599 53.688 260.847 53.24 262.394 53.24C263.844 53.24 265.039 53.6613 265.978 54.504C266.778 55.2187 267.236 56.12 267.354 57.208ZM270.96 65H269.04V53.48H270.96V57.544C271.557 56.808 272.362 56.44 273.376 56.44C274.378 56.44 275.141 56.7493 275.664 57.368C276.133 57.912 276.368 58.6533 276.368 59.592V65H274.448V59.64C274.448 58.4987 273.92 57.928 272.864 57.928C272.277 57.928 271.808 58.1307 271.456 58.536C271.125 58.9093 270.96 59.384 270.96 59.96V65ZM283.985 62.6H286.001C285.777 63.4533 285.313 64.1147 284.609 64.584C283.937 65.0213 283.11 65.24 282.129 65.24C280.774 65.24 279.718 64.8133 278.961 63.96C278.267 63.1813 277.921 62.1413 277.921 60.84C277.921 59.3467 278.353 58.2053 279.217 57.416C279.942 56.7653 280.886 56.44 282.049 56.44C283.403 56.44 284.427 56.8827 285.121 57.768C285.771 58.5893 286.097 59.7627 286.097 61.288H279.873C279.947 62.184 280.225 62.84 280.705 63.256C281.089 63.5973 281.59 63.768 282.209 63.768C282.646 63.768 283.025 63.6613 283.345 63.448C283.665 63.2347 283.878 62.952 283.985 62.6ZM284.129 59.976C284.086 59.1973 283.851 58.6267 283.425 58.264C283.073 57.9547 282.614 57.8 282.049 57.8C281.43 57.8 280.934 58.0027 280.561 58.408C280.219 58.7707 280.001 59.2933 279.905 59.976H284.129ZM293.183 62.296H295.231C295.071 63.224 294.628 63.9547 293.903 64.488C293.22 64.9893 292.377 65.24 291.375 65.24C290.052 65.24 289.028 64.8187 288.303 63.976C287.652 63.2187 287.327 62.2 287.327 60.92C287.327 59.4267 287.743 58.28 288.575 57.48C289.3 56.7867 290.239 56.44 291.391 56.44C292.468 56.44 293.359 56.7173 294.063 57.272C294.681 57.7627 295.06 58.3973 295.199 59.176H293.119C293.023 58.7813 292.825 58.472 292.527 58.248C292.228 58.0133 291.865 57.896 291.439 57.896C290.745 57.896 290.217 58.1733 289.855 58.728C289.513 59.2507 289.343 59.9973 289.343 60.968C289.343 61.9493 289.572 62.6907 290.031 63.192C290.393 63.5867 290.852 63.784 291.407 63.784C291.876 63.784 292.26 63.656 292.559 63.4C292.868 63.144 293.076 62.776 293.183 62.296ZM298.757 65H296.837V53.48H298.757V59.816L301.845 56.68H304.213L300.613 60.232L304.661 65H302.149L298.757 60.952V65ZM310.858 60.632H304.97V59.032H310.858V60.632ZM313.178 56.68H315.098V62.152C315.098 63.2187 315.621 63.752 316.666 63.752C317.274 63.752 317.749 63.5333 318.09 63.096C318.368 62.7227 318.506 62.264 318.506 61.72V56.68H320.426V65H318.842L318.634 64.072C318.037 64.8507 317.205 65.24 316.138 65.24C315.157 65.24 314.405 64.9413 313.882 64.344C313.413 63.8 313.178 63.0533 313.178 62.104V56.68ZM322.477 56.68H323.997L324.333 57.704C325.005 56.8613 325.917 56.44 327.069 56.44C328.264 56.44 329.192 56.8613 329.853 57.704C330.45 58.472 330.749 59.4853 330.749 60.744C330.749 62.248 330.338 63.4053 329.517 64.216C328.834 64.8987 327.965 65.24 326.909 65.24C325.842 65.24 325.005 64.8507 324.397 64.072V67.88H322.477V56.68ZM328.781 60.76C328.781 59.768 328.546 59.0267 328.077 58.536C327.704 58.152 327.208 57.96 326.589 57.96C325.874 57.96 325.309 58.2213 324.893 58.744C324.509 59.2453 324.317 59.912 324.317 60.744C324.317 61.7893 324.552 62.568 325.021 63.08C325.416 63.5067 325.928 63.72 326.557 63.72C327.293 63.72 327.853 63.448 328.237 62.904C328.6 62.392 328.781 61.6773 328.781 60.76ZM333.759 62.632C333.909 63.432 334.511 63.832 335.567 63.832C336.154 63.832 336.597 63.72 336.895 63.496C337.141 63.304 337.263 63.0533 337.263 62.744C337.263 62.3493 337.05 62.056 336.623 61.864C336.378 61.7573 335.839 61.608 335.007 61.416C333.983 61.1813 333.253 60.8613 332.815 60.456C332.378 60.0613 332.159 59.544 332.159 58.904C332.159 58.0933 332.49 57.4693 333.151 57.032C333.738 56.6373 334.543 56.44 335.567 56.44C336.623 56.44 337.471 56.6907 338.111 57.192C338.666 57.6187 339.013 58.1947 339.151 58.92H337.199C337.039 58.2053 336.485 57.848 335.535 57.848C334.575 57.848 334.095 58.1413 334.095 58.728C334.095 59.0267 334.218 59.2507 334.463 59.4C334.709 59.5493 335.205 59.7147 335.951 59.896C337.103 60.1627 337.903 60.4613 338.351 60.792C338.917 61.208 339.199 61.7947 339.199 62.552C339.199 63.416 338.847 64.0933 338.143 64.584C337.503 65.0213 336.639 65.24 335.551 65.24C334.41 65.24 333.498 64.968 332.815 64.424C332.239 63.9653 331.903 63.368 331.807 62.632H333.759Z" fill="white" fill-opacity="0.95"/>
<path d="M518.707 57.9999L522.853 53.8534C522.9 53.8069 522.937 53.7518 522.962 53.6912C522.987 53.6305 523 53.5655 523 53.4998C523 53.4342 522.987 53.3692 522.962 53.3085C522.937 53.2479 522.9 53.1927 522.853 53.1463C522.807 53.0999 522.752 53.0631 522.691 53.038C522.631 53.0128 522.566 52.9999 522.5 52.9999C522.434 52.9999 522.369 53.0128 522.309 53.038C522.248 53.0631 522.193 53.0999 522.146 53.1463L518 57.2928L513.853 53.1463C513.807 53.0995 513.752 53.0622 513.691 53.0368C513.63 53.0113 513.565 52.9981 513.499 52.9979C513.433 52.9977 513.368 53.0106 513.307 53.0357C513.246 53.0608 513.191 53.0977 513.144 53.1443C513.098 53.1909 513.061 53.2463 513.036 53.3072C513.011 53.3681 512.998 53.4334 512.998 53.4993C512.998 53.5652 513.011 53.6304 513.037 53.6911C513.062 53.7519 513.1 53.807 513.146 53.8534L517.293 57.9999L513.146 62.1464C513.1 62.1928 513.063 62.2479 513.038 62.3086C513.013 62.3692 513 62.4342 513 62.4999C513 62.5655 513.013 62.6306 513.038 62.6912C513.063 62.7519 513.1 62.807 513.146 62.8534C513.193 62.8998 513.248 62.9367 513.309 62.9618C513.369 62.9869 513.434 62.9998 513.5 62.9998C513.566 62.9998 513.631 62.9869 513.691 62.9618C513.752 62.9367 513.807 62.8998 513.853 62.8534L518 58.7069L522.146 62.8534C522.24 62.9472 522.367 62.9998 522.5 62.9998C522.633 62.9998 522.76 62.9472 522.853 62.8534C522.947 62.7596 523 62.6325 523 62.4999C523 62.3673 522.947 62.2401 522.853 62.1464L518.707 57.9999Z" fill="white" fill-opacity="0.95"/>
<path d="M122.096 89.92H123.412L120.752 100H119.1L116.818 91.46L114.466 100H112.716L110.07 89.92H111.526L113.668 98.306L115.978 89.92H117.756L119.94 98.278L122.096 89.92ZM129.061 97.9H130.517C130.312 98.6373 129.906 99.216 129.299 99.636C128.73 100.019 128.048 100.21 127.255 100.21C126.107 100.21 125.211 99.846 124.567 99.118C123.979 98.4367 123.685 97.5173 123.685 96.36C123.685 95.044 124.058 94.0453 124.805 93.364C125.421 92.7947 126.214 92.51 127.185 92.51C128.324 92.51 129.182 92.8787 129.761 93.616C130.321 94.3253 130.601 95.338 130.601 96.654H125.057C125.113 97.5127 125.374 98.152 125.841 98.572C126.224 98.908 126.709 99.076 127.297 99.076C127.754 99.076 128.151 98.95 128.487 98.698C128.767 98.4833 128.958 98.2173 129.061 97.9ZM127.213 93.588C126.616 93.588 126.135 93.7747 125.771 94.148C125.426 94.4933 125.206 94.974 125.113 95.59H129.229C129.182 94.89 128.949 94.3673 128.529 94.022C128.193 93.7327 127.754 93.588 127.213 93.588ZM145.216 92.72H146.56L144.432 100H142.878L141.114 94.246L139.378 100H137.768L135.64 92.72H137.04L138.608 98.572L140.344 92.72H141.954L143.662 98.544L145.216 92.72ZM148.755 94.75H147.327C147.402 94.022 147.747 93.4573 148.363 93.056C148.914 92.692 149.609 92.51 150.449 92.51C151.448 92.51 152.213 92.7713 152.745 93.294C153.193 93.742 153.417 94.3207 153.417 95.03V100H152.311L152.143 99.006C151.574 99.8087 150.762 100.21 149.707 100.21C148.876 100.21 148.228 99.986 147.761 99.538C147.378 99.1647 147.187 98.6933 147.187 98.124C147.187 97.4053 147.434 96.85 147.929 96.458C148.368 96.1127 149.04 95.8607 149.945 95.702L152.073 95.338V94.974C152.073 94.498 151.91 94.1387 151.583 93.896C151.294 93.6813 150.897 93.574 150.393 93.574C149.404 93.574 148.858 93.966 148.755 94.75ZM150.029 99.076C150.598 99.076 151.093 98.8893 151.513 98.516C151.886 98.1707 152.073 97.774 152.073 97.326V96.388L150.267 96.71C149.604 96.822 149.152 96.9947 148.909 97.228C148.713 97.4147 148.615 97.6667 148.615 97.984C148.615 98.3387 148.736 98.6093 148.979 98.796C149.222 98.9827 149.572 99.076 150.029 99.076ZM156.648 100H155.304V92.72H156.41L156.564 93.644C157.106 92.888 157.843 92.51 158.776 92.51C159.635 92.51 160.293 92.776 160.75 93.308C161.152 93.784 161.352 94.4327 161.352 95.254V100H160.008V95.268C160.008 94.1947 159.49 93.658 158.454 93.658C157.913 93.658 157.47 93.8447 157.124 94.218C156.807 94.554 156.648 94.9833 156.648 95.506V100ZM166.496 98.922V100.07C166.15 100.163 165.819 100.21 165.502 100.21C164.83 100.21 164.326 100 163.99 99.58C163.7 99.2347 163.556 98.7727 163.556 98.194V93.868H162.478V92.72H163.556L163.64 90.97H164.9V92.72H166.468V93.868H164.9V98.222C164.9 98.7633 165.156 99.034 165.67 99.034C165.912 99.034 166.188 98.9967 166.496 98.922ZM175.205 98.922V100.07C174.859 100.163 174.528 100.21 174.211 100.21C173.539 100.21 173.035 100 172.699 99.58C172.409 99.2347 172.265 98.7727 172.265 98.194V93.868H171.187V92.72H172.265L172.349 90.97H173.609V92.72H175.177V93.868H173.609V98.222C173.609 98.7633 173.865 99.034 174.379 99.034C174.621 99.034 174.897 98.9967 175.205 98.922ZM175.98 96.36C175.98 95.0253 176.377 94.0173 177.17 93.336C177.805 92.7853 178.607 92.51 179.578 92.51C180.707 92.51 181.594 92.8693 182.238 93.588C182.854 94.26 183.162 95.184 183.162 96.36C183.162 97.676 182.775 98.6793 182 99.37C181.365 99.93 180.553 100.21 179.564 100.21C178.435 100.21 177.543 99.8367 176.89 99.09C176.283 98.4087 175.98 97.4987 175.98 96.36ZM177.38 96.36C177.38 97.2933 177.618 98.0073 178.094 98.502C178.486 98.9127 178.985 99.118 179.592 99.118C180.301 99.118 180.847 98.852 181.23 98.32C181.585 97.8347 181.762 97.1813 181.762 96.36C181.762 95.408 181.529 94.6893 181.062 94.204C180.679 93.8027 180.185 93.602 179.578 93.602C178.878 93.602 178.332 93.868 177.94 94.4C177.567 94.8853 177.38 95.5387 177.38 96.36ZM190.324 91.502H188.812V89.92H190.324V91.502ZM190.24 100H188.896V92.72H190.24V100ZM193.549 100H192.205V92.72H193.311L193.465 93.644C194.006 92.888 194.743 92.51 195.677 92.51C196.535 92.51 197.193 92.776 197.651 93.308C198.052 93.784 198.253 94.4327 198.253 95.254V100H196.909V95.268C196.909 94.1947 196.391 93.658 195.355 93.658C194.813 93.658 194.37 93.8447 194.025 94.218C193.707 94.554 193.549 94.9833 193.549 95.506V100ZM203.746 89.878V91.04C203.298 90.928 202.929 90.872 202.64 90.872C202.397 90.872 202.206 90.9373 202.066 91.068C201.935 91.1987 201.87 91.3807 201.87 91.614V92.72H203.438V93.868H201.87V100H200.526V93.868H199.448V92.72H200.526V91.698C200.526 91.054 200.736 90.55 201.156 90.186C201.529 89.8687 201.996 89.71 202.556 89.71C202.92 89.71 203.317 89.766 203.746 89.878ZM204.24 96.36C204.24 95.0253 204.636 94.0173 205.43 93.336C206.064 92.7853 206.867 92.51 207.838 92.51C208.967 92.51 209.854 92.8693 210.498 93.588C211.114 94.26 211.422 95.184 211.422 96.36C211.422 97.676 211.034 98.6793 210.26 99.37C209.625 99.93 208.813 100.21 207.824 100.21C206.694 100.21 205.803 99.8367 205.15 99.09C204.543 98.4087 204.24 97.4987 204.24 96.36ZM205.64 96.36C205.64 97.2933 205.878 98.0073 206.354 98.502C206.746 98.9127 207.245 99.118 207.852 99.118C208.561 99.118 209.107 98.852 209.49 98.32C209.844 97.8347 210.022 97.1813 210.022 96.36C210.022 95.408 209.788 94.6893 209.322 94.204C208.939 93.8027 208.444 93.602 207.838 93.602C207.138 93.602 206.592 93.868 206.2 94.4C205.826 94.8853 205.64 95.5387 205.64 96.36ZM214.303 100H212.959V92.72H214.065L214.247 93.798C214.657 92.9393 215.273 92.51 216.095 92.51C216.365 92.51 216.631 92.5427 216.893 92.608V93.952C216.575 93.868 216.291 93.826 216.039 93.826C215.497 93.826 215.073 94.0453 214.765 94.484C214.457 94.9227 214.303 95.5433 214.303 96.346V100ZM219.293 100H217.949V92.72H219.055L219.195 93.574C219.689 92.8647 220.403 92.51 221.337 92.51C222.354 92.51 223.068 92.8927 223.479 93.658C223.964 92.8927 224.753 92.51 225.845 92.51C226.657 92.51 227.282 92.7573 227.721 93.252C228.113 93.7093 228.309 94.3347 228.309 95.128V100H226.965V95.226C226.965 94.1807 226.493 93.658 225.551 93.658C224.991 93.658 224.543 93.8773 224.207 94.316C223.936 94.6707 223.801 95.086 223.801 95.562V100H222.457V95.226C222.457 94.1807 221.985 93.658 221.043 93.658C220.52 93.658 220.086 93.8633 219.741 94.274C219.442 94.6193 219.293 95.0347 219.293 95.52V100ZM240.472 92.72L237.938 100.098C237.602 101.078 237.28 101.745 236.972 102.1C236.608 102.52 236.137 102.73 235.558 102.73C235.315 102.73 235.026 102.688 234.69 102.604V101.512C234.951 101.577 235.185 101.61 235.39 101.61C235.679 101.61 235.903 101.507 236.062 101.302C236.221 101.106 236.421 100.672 236.664 100H236.23L233.556 92.72H235.012L237.07 98.908L239.128 92.72H240.472ZM240.894 96.36C240.894 95.0253 241.291 94.0173 242.084 93.336C242.719 92.7853 243.521 92.51 244.492 92.51C245.621 92.51 246.508 92.8693 247.152 93.588C247.768 94.26 248.076 95.184 248.076 96.36C248.076 97.676 247.689 98.6793 246.914 99.37C246.279 99.93 245.467 100.21 244.478 100.21C243.349 100.21 242.457 99.8367 241.804 99.09C241.197 98.4087 240.894 97.4987 240.894 96.36ZM242.294 96.36C242.294 97.2933 242.532 98.0073 243.008 98.502C243.4 98.9127 243.899 99.118 244.506 99.118C245.215 99.118 245.761 98.852 246.144 98.32C246.499 97.8347 246.676 97.1813 246.676 96.36C246.676 95.408 246.443 94.6893 245.976 94.204C245.593 93.8027 245.099 93.602 244.492 93.602C243.792 93.602 243.246 93.868 242.854 94.4C242.481 94.8853 242.294 95.5387 242.294 96.36ZM249.543 92.72H250.887V97.494C250.887 98.5393 251.391 99.062 252.399 99.062C253.015 99.062 253.486 98.8427 253.813 98.404C254.065 98.068 254.191 97.6527 254.191 97.158V92.72H255.535V100H254.429L254.275 99.16C253.761 99.86 253.033 100.21 252.091 100.21C251.26 100.21 250.621 99.9533 250.173 99.44C249.753 98.964 249.543 98.306 249.543 97.466V92.72ZM264.947 98.922V100.07C264.601 100.163 264.27 100.21 263.953 100.21C263.281 100.21 262.777 100 262.441 99.58C262.151 99.2347 262.007 98.7727 262.007 98.194V93.868H260.929V92.72H262.007L262.091 90.97H263.351V92.72H264.919V93.868H263.351V98.222C263.351 98.7633 263.607 99.034 264.121 99.034C264.363 99.034 264.639 98.9967 264.947 98.922ZM267.554 100H266.21V89.92H267.554V93.546C268.086 92.8553 268.796 92.51 269.682 92.51C270.541 92.51 271.199 92.776 271.656 93.308C272.058 93.784 272.258 94.4327 272.258 95.254V100H270.914V95.268C270.914 94.1947 270.396 93.658 269.36 93.658C268.81 93.658 268.362 93.8493 268.016 94.232C267.708 94.5773 267.554 95.0207 267.554 95.562V100ZM275.302 94.75H273.874C273.948 94.022 274.294 93.4573 274.91 93.056C275.46 92.692 276.156 92.51 276.996 92.51C277.994 92.51 278.76 92.7713 279.292 93.294C279.74 93.742 279.964 94.3207 279.964 95.03V100H278.858L278.69 99.006C278.12 99.8087 277.308 100.21 276.254 100.21C275.423 100.21 274.774 99.986 274.308 99.538C273.925 99.1647 273.734 98.6933 273.734 98.124C273.734 97.4053 273.981 96.85 274.476 96.458C274.914 96.1127 275.586 95.8607 276.492 95.702L278.62 95.338V94.974C278.62 94.498 278.456 94.1387 278.13 93.896C277.84 93.6813 277.444 93.574 276.94 93.574C275.95 93.574 275.404 93.966 275.302 94.75ZM276.576 99.076C277.145 99.076 277.64 98.8893 278.06 98.516C278.433 98.1707 278.62 97.774 278.62 97.326V96.388L276.814 96.71C276.151 96.822 275.698 96.9947 275.456 97.228C275.26 97.4147 275.162 97.6667 275.162 97.984C275.162 98.3387 275.283 98.6093 275.526 98.796C275.768 98.9827 276.118 99.076 276.576 99.076ZM285.099 98.922V100.07C284.754 100.163 284.422 100.21 284.105 100.21C283.433 100.21 282.929 100 282.593 99.58C282.304 99.2347 282.159 98.7727 282.159 98.194V93.868H281.081V92.72H282.159L282.243 90.97H283.503V92.72H285.071V93.868H283.503V98.222C283.503 98.7633 283.76 99.034 284.273 99.034C284.516 99.034 284.791 98.9967 285.099 98.922ZM299.366 92.72H300.71L298.582 100H297.028L295.264 94.246L293.528 100H291.918L289.79 92.72H291.19L292.758 98.572L294.494 92.72H296.104L297.812 98.544L299.366 92.72ZM306.686 97.9H308.142C307.937 98.6373 307.531 99.216 306.924 99.636C306.355 100.019 305.673 100.21 304.88 100.21C303.732 100.21 302.836 99.846 302.192 99.118C301.604 98.4367 301.31 97.5173 301.31 96.36C301.31 95.044 301.683 94.0453 302.43 93.364C303.046 92.7947 303.839 92.51 304.81 92.51C305.949 92.51 306.807 92.8787 307.386 93.616C307.946 94.3253 308.226 95.338 308.226 96.654H302.682C302.738 97.5127 302.999 98.152 303.466 98.572C303.849 98.908 304.334 99.076 304.922 99.076C305.379 99.076 305.776 98.95 306.112 98.698C306.392 98.4833 306.583 98.2173 306.686 97.9ZM304.838 93.588C304.241 93.588 303.76 93.7747 303.396 94.148C303.051 94.4933 302.831 94.974 302.738 95.59H306.854C306.807 94.89 306.574 94.3673 306.154 94.022C305.818 93.7327 305.379 93.588 304.838 93.588ZM322.841 92.72H324.185L322.057 100H320.503L318.739 94.246L317.003 100H315.393L313.265 92.72H314.665L316.233 98.572L317.969 92.72H319.579L321.287 98.544L322.841 92.72ZM326.797 91.502H325.285V89.92H326.797V91.502ZM326.713 100H325.369V92.72H326.713V100ZM330.021 89.92V100H328.677V89.92H330.021ZM333.33 89.92V100H331.986V89.92H333.33ZM340.598 100H339.492V89.92H340.836V93.728C341.405 92.916 342.217 92.51 343.272 92.51C344.317 92.51 345.129 92.8833 345.708 93.63C346.221 94.302 346.478 95.1933 346.478 96.304C346.478 97.62 346.128 98.628 345.428 99.328C344.84 99.916 344.088 100.21 343.174 100.21C342.138 100.21 341.349 99.818 340.808 99.034L340.598 100ZM345.078 96.276C345.078 95.3613 344.849 94.6753 344.392 94.218C344.028 93.8447 343.552 93.658 342.964 93.658C342.282 93.658 341.741 93.9053 341.34 94.4C340.957 94.876 340.766 95.5013 340.766 96.276C340.766 97.2093 340.994 97.9233 341.452 98.418C341.834 98.8473 342.338 99.062 342.964 99.062C343.664 99.062 344.196 98.8053 344.56 98.292C344.905 97.816 345.078 97.144 345.078 96.276ZM352.979 97.9H354.435C354.23 98.6373 353.824 99.216 353.217 99.636C352.648 100.019 351.966 100.21 351.173 100.21C350.025 100.21 349.129 99.846 348.485 99.118C347.897 98.4367 347.603 97.5173 347.603 96.36C347.603 95.044 347.976 94.0453 348.723 93.364C349.339 92.7947 350.132 92.51 351.103 92.51C352.242 92.51 353.1 92.8787 353.679 93.616C354.239 94.3253 354.519 95.338 354.519 96.654H348.975C349.031 97.5127 349.292 98.152 349.759 98.572C350.142 98.908 350.627 99.076 351.215 99.076C351.672 99.076 352.069 98.95 352.405 98.698C352.685 98.4833 352.876 98.2173 352.979 97.9ZM351.131 93.588C350.534 93.588 350.053 93.7747 349.689 94.148C349.344 94.4933 349.124 94.974 349.031 95.59H353.147C353.1 94.89 352.867 94.3673 352.447 94.022C352.111 93.7327 351.672 93.588 351.131 93.588ZM365.074 97.662H366.544C366.432 98.446 366.063 99.076 365.438 99.552C364.868 99.9907 364.173 100.21 363.352 100.21C362.278 100.21 361.424 99.8413 360.79 99.104C360.202 98.4227 359.908 97.5267 359.908 96.416C359.908 95.128 360.262 94.1293 360.972 93.42C361.578 92.8133 362.367 92.51 363.338 92.51C364.234 92.51 364.971 92.748 365.55 93.224C366.063 93.644 366.376 94.1947 366.488 94.876H365.004C364.91 94.484 364.719 94.1807 364.43 93.966C364.15 93.7513 363.795 93.644 363.366 93.644C362.703 93.644 362.194 93.9053 361.84 94.428C361.504 94.9133 361.336 95.59 361.336 96.458C361.336 97.3633 361.56 98.0493 362.008 98.516C362.362 98.8893 362.82 99.076 363.38 99.076C363.865 99.076 364.262 98.936 364.57 98.656C364.84 98.4133 365.008 98.082 365.074 97.662ZM367.66 96.36C367.66 95.0253 368.056 94.0173 368.85 93.336C369.484 92.7853 370.287 92.51 371.258 92.51C372.387 92.51 373.274 92.8693 373.918 93.588C374.534 94.26 374.842 95.184 374.842 96.36C374.842 97.676 374.454 98.6793 373.68 99.37C373.045 99.93 372.233 100.21 371.244 100.21C370.114 100.21 369.223 99.8367 368.57 99.09C367.963 98.4087 367.66 97.4987 367.66 96.36ZM369.06 96.36C369.06 97.2933 369.298 98.0073 369.774 98.502C370.166 98.9127 370.665 99.118 371.272 99.118C371.981 99.118 372.527 98.852 372.91 98.32C373.264 97.8347 373.442 97.1813 373.442 96.36C373.442 95.408 373.208 94.6893 372.742 94.204C372.359 93.8027 371.864 93.602 371.258 93.602C370.558 93.602 370.012 93.868 369.62 94.4C369.246 94.8853 369.06 95.5387 369.06 96.36ZM377.722 100H376.378V92.72H377.484L377.638 93.644C378.18 92.888 378.917 92.51 379.85 92.51C380.709 92.51 381.367 92.776 381.824 93.308C382.226 93.784 382.426 94.4327 382.426 95.254V100H381.082V95.268C381.082 94.1947 380.564 93.658 379.528 93.658C378.987 93.658 378.544 93.8447 378.198 94.218C377.881 94.554 377.722 94.9833 377.722 95.506V100ZM390.888 100H389.782L389.544 98.978C388.984 99.7993 388.176 100.21 387.122 100.21C386.104 100.21 385.302 99.8413 384.714 99.104C384.172 98.4227 383.902 97.522 383.902 96.402C383.902 95.0487 384.247 94.0313 384.938 93.35C385.516 92.79 386.272 92.51 387.206 92.51C388.214 92.51 388.993 92.888 389.544 93.644V89.92H390.888V100ZM385.302 96.43C385.302 97.3353 385.526 98.0213 385.974 98.488C386.347 98.8707 386.828 99.062 387.416 99.062C388.144 99.062 388.708 98.7867 389.11 98.236C389.446 97.76 389.614 97.1627 389.614 96.444C389.614 95.5013 389.39 94.7827 388.942 94.288C388.559 93.868 388.05 93.658 387.416 93.658C386.706 93.658 386.17 93.9147 385.806 94.428C385.47 94.8947 385.302 95.562 385.302 96.43ZM392.783 92.72H394.127V97.494C394.127 98.5393 394.631 99.062 395.639 99.062C396.255 99.062 396.726 98.8427 397.053 98.404C397.305 98.068 397.431 97.6527 397.431 97.158V92.72H398.775V100H397.669L397.515 99.16C397.002 99.86 396.274 100.21 395.331 100.21C394.5 100.21 393.861 99.9533 393.413 99.44C392.993 98.964 392.783 98.306 392.783 97.466V92.72ZM405.488 97.662H406.958C406.846 98.446 406.477 99.076 405.852 99.552C405.282 99.9907 404.587 100.21 403.766 100.21C402.692 100.21 401.838 99.8413 401.204 99.104C400.616 98.4227 400.322 97.5267 400.322 96.416C400.322 95.128 400.676 94.1293 401.386 93.42C401.992 92.8133 402.781 92.51 403.752 92.51C404.648 92.51 405.385 92.748 405.964 93.224C406.477 93.644 406.79 94.1947 406.902 94.876H405.418C405.324 94.484 405.133 94.1807 404.844 93.966C404.564 93.7513 404.209 93.644 403.78 93.644C403.117 93.644 402.608 93.9053 402.254 94.428C401.918 94.9133 401.75 95.59 401.75 96.458C401.75 97.3633 401.974 98.0493 402.422 98.516C402.776 98.8893 403.234 99.076 403.794 99.076C404.279 99.076 404.676 98.936 404.984 98.656C405.254 98.4133 405.422 98.082 405.488 97.662ZM411.742 98.922V100.07C411.396 100.163 411.065 100.21 410.748 100.21C410.076 100.21 409.572 100 409.236 99.58C408.946 99.2347 408.802 98.7727 408.802 98.194V93.868H407.724V92.72H408.802L408.886 90.97H410.146V92.72H411.714V93.868H410.146V98.222C410.146 98.7633 410.402 99.034 410.916 99.034C411.158 99.034 411.434 98.9967 411.742 98.922ZM414.433 91.502H412.921V89.92H414.433V91.502ZM414.349 100H413.005V92.72H414.349V100ZM417.658 100H416.314V92.72H417.42L417.574 93.644C418.115 92.888 418.853 92.51 419.786 92.51C420.645 92.51 421.303 92.776 421.76 93.308C422.161 93.784 422.362 94.4327 422.362 95.254V100H421.018V95.268C421.018 94.1947 420.5 93.658 419.464 93.658C418.923 93.658 418.479 93.8447 418.134 94.218C417.817 94.554 417.658 94.9833 417.658 95.506V100ZM424.173 100.49H425.615C425.681 100.863 425.867 101.153 426.175 101.358C426.493 101.563 426.908 101.666 427.421 101.666C428.14 101.666 428.677 101.479 429.031 101.106C429.33 100.789 429.479 100.345 429.479 99.776V98.838C428.938 99.4727 428.131 99.79 427.057 99.79C426.087 99.79 425.298 99.44 424.691 98.74C424.122 98.0867 423.837 97.2373 423.837 96.192C423.837 94.9787 424.183 94.0407 424.873 93.378C425.461 92.7993 426.217 92.51 427.141 92.51C428.187 92.51 428.975 92.902 429.507 93.686L429.717 92.72H430.823V99.846C430.823 100.761 430.492 101.479 429.829 102.002C429.232 102.487 428.443 102.73 427.463 102.73C426.446 102.73 425.648 102.501 425.069 102.044C424.584 101.661 424.285 101.143 424.173 100.49ZM425.237 96.22C425.237 97.0133 425.471 97.634 425.937 98.082C426.32 98.4553 426.791 98.642 427.351 98.642C428.089 98.642 428.653 98.3993 429.045 97.914C429.381 97.5033 429.549 96.9527 429.549 96.262C429.549 95.3753 429.321 94.6987 428.863 94.232C428.481 93.8493 427.977 93.658 427.351 93.658C426.661 93.658 426.129 93.896 425.755 94.372C425.41 94.82 425.237 95.436 425.237 96.22ZM438.134 94.75H436.706C436.781 94.022 437.126 93.4573 437.742 93.056C438.293 92.692 438.988 92.51 439.828 92.51C440.827 92.51 441.592 92.7713 442.124 93.294C442.572 93.742 442.796 94.3207 442.796 95.03V100H441.69L441.522 99.006C440.953 99.8087 440.141 100.21 439.086 100.21C438.255 100.21 437.607 99.986 437.14 99.538C436.757 99.1647 436.566 98.6933 436.566 98.124C436.566 97.4053 436.813 96.85 437.308 96.458C437.747 96.1127 438.419 95.8607 439.324 95.702L441.452 95.338V94.974C441.452 94.498 441.289 94.1387 440.962 93.896C440.673 93.6813 440.276 93.574 439.772 93.574C438.783 93.574 438.237 93.966 438.134 94.75ZM439.408 99.076C439.977 99.076 440.472 98.8893 440.892 98.516C441.265 98.1707 441.452 97.774 441.452 97.326V96.388L439.646 96.71C438.983 96.822 438.531 96.9947 438.288 97.228C438.092 97.4147 437.994 97.6667 437.994 97.984C437.994 98.3387 438.115 98.6093 438.358 98.796C438.601 98.9827 438.951 99.076 439.408 99.076ZM450.224 100H448.88V92.72H449.986L450.126 93.574C450.621 92.8647 451.335 92.51 452.268 92.51C453.286 92.51 454 92.8927 454.41 93.658C454.896 92.8927 455.684 92.51 456.776 92.51C457.588 92.51 458.214 92.7573 458.652 93.252C459.044 93.7093 459.24 94.3347 459.24 95.128V100H457.896V95.226C457.896 94.1807 457.425 93.658 456.482 93.658C455.922 93.658 455.474 93.8773 455.138 94.316C454.868 94.6707 454.732 95.086 454.732 95.562V100H453.388V95.226C453.388 94.1807 452.917 93.658 451.974 93.658C451.452 93.658 451.018 93.8633 450.672 94.274C450.374 94.6193 450.224 95.0347 450.224 95.52V100ZM462.278 94.75H460.85C460.925 94.022 461.27 93.4573 461.886 93.056C462.437 92.692 463.132 92.51 463.972 92.51C464.971 92.51 465.736 92.7713 466.268 93.294C466.716 93.742 466.94 94.3207 466.94 95.03V100H465.834L465.666 99.006C465.097 99.8087 464.285 100.21 463.23 100.21C462.4 100.21 461.751 99.986 461.284 99.538C460.902 99.1647 460.71 98.6933 460.71 98.124C460.71 97.4053 460.958 96.85 461.452 96.458C461.891 96.1127 462.563 95.8607 463.468 95.702L465.596 95.338V94.974C465.596 94.498 465.433 94.1387 465.106 93.896C464.817 93.6813 464.42 93.574 463.916 93.574C462.927 93.574 462.381 93.966 462.278 94.75ZM463.552 99.076C464.122 99.076 464.616 98.8893 465.036 98.516C465.41 98.1707 465.596 97.774 465.596 97.326V96.388L463.79 96.71C463.128 96.822 462.675 96.9947 462.432 97.228C462.236 97.4147 462.138 97.6667 462.138 97.984C462.138 98.3387 462.26 98.6093 462.502 98.796C462.745 98.9827 463.095 99.076 463.552 99.076ZM470.172 100H468.828V92.72H469.934L470.088 93.644C470.629 92.888 471.366 92.51 472.3 92.51C473.158 92.51 473.816 92.776 474.274 93.308C474.675 93.784 474.876 94.4327 474.876 95.254V100H473.532V95.268C473.532 94.1947 473.014 93.658 471.978 93.658C471.436 93.658 470.993 93.8447 470.648 94.218C470.33 94.554 470.172 94.9833 470.172 95.506V100ZM483.337 100H482.231L481.993 98.978C481.433 99.7993 480.626 100.21 479.571 100.21C478.554 100.21 477.751 99.8413 477.163 99.104C476.622 98.4227 476.351 97.522 476.351 96.402C476.351 95.0487 476.696 94.0313 477.387 93.35C477.966 92.79 478.722 92.51 479.655 92.51C480.663 92.51 481.442 92.888 481.993 93.644V89.92H483.337V100ZM477.751 96.43C477.751 97.3353 477.975 98.0213 478.423 98.488C478.796 98.8707 479.277 99.062 479.865 99.062C480.593 99.062 481.158 98.7867 481.559 98.236C481.895 97.76 482.063 97.1627 482.063 96.444C482.063 95.5013 481.839 94.7827 481.391 94.288C481.008 93.868 480.5 93.658 479.865 93.658C479.156 93.658 478.619 93.9147 478.255 94.428C477.919 94.8947 477.751 95.562 477.751 96.43ZM486.45 94.75H485.022C485.097 94.022 485.442 93.4573 486.058 93.056C486.609 92.692 487.304 92.51 488.144 92.51C489.143 92.51 489.908 92.7713 490.44 93.294C490.888 93.742 491.112 94.3207 491.112 95.03V100H490.006L489.838 99.006C489.269 99.8087 488.457 100.21 487.402 100.21C486.572 100.21 485.923 99.986 485.456 99.538C485.074 99.1647 484.882 98.6933 484.882 98.124C484.882 97.4053 485.13 96.85 485.624 96.458C486.063 96.1127 486.735 95.8607 487.64 95.702L489.768 95.338V94.974C489.768 94.498 489.605 94.1387 489.278 93.896C488.989 93.6813 488.592 93.574 488.088 93.574C487.099 93.574 486.553 93.966 486.45 94.75ZM487.724 99.076C488.294 99.076 488.788 98.8893 489.208 98.516C489.582 98.1707 489.768 97.774 489.768 97.326V96.388L487.962 96.71C487.3 96.822 486.847 96.9947 486.604 97.228C486.408 97.4147 486.31 97.6667 486.31 97.984C486.31 98.3387 486.432 98.6093 486.674 98.796C486.917 98.9827 487.267 99.076 487.724 99.076ZM496.248 98.922V100.07C495.902 100.163 495.571 100.21 495.254 100.21C494.582 100.21 494.078 100 493.742 99.58C493.452 99.2347 493.308 98.7727 493.308 98.194V93.868H492.23V92.72H493.308L493.392 90.97H494.652V92.72H496.22V93.868H494.652V98.222C494.652 98.7633 494.908 99.034 495.422 99.034C495.664 99.034 495.94 98.9967 496.248 98.922ZM497.023 96.36C497.023 95.0253 497.42 94.0173 498.213 93.336C498.848 92.7853 499.65 92.51 500.621 92.51C501.75 92.51 502.637 92.8693 503.281 93.588C503.897 94.26 504.205 95.184 504.205 96.36C504.205 97.676 503.818 98.6793 503.043 99.37C502.408 99.93 501.596 100.21 500.607 100.21C499.478 100.21 498.586 99.8367 497.933 99.09C497.326 98.4087 497.023 97.4987 497.023 96.36ZM498.423 96.36C498.423 97.2933 498.661 98.0073 499.137 98.502C499.529 98.9127 500.028 99.118 500.635 99.118C501.344 99.118 501.89 98.852 502.273 98.32C502.628 97.8347 502.805 97.1813 502.805 96.36C502.805 95.408 502.572 94.6893 502.105 94.204C501.722 93.8027 501.228 93.602 500.621 93.602C499.921 93.602 499.375 93.868 498.983 94.4C498.61 94.8853 498.423 95.5387 498.423 96.36ZM507.086 100H505.742V92.72H506.848L507.03 93.798C507.44 92.9393 508.056 92.51 508.878 92.51C509.148 92.51 509.414 92.5427 509.676 92.608V93.952C509.358 93.868 509.074 93.826 508.822 93.826C508.28 93.826 507.856 94.0453 507.548 94.484C507.24 94.9227 507.086 95.5433 507.086 96.346V100ZM516.808 92.72L514.274 100.098C513.938 101.078 513.616 101.745 513.308 102.1C512.944 102.52 512.473 102.73 511.894 102.73C511.651 102.73 511.362 102.688 511.026 102.604V101.512C511.287 101.577 511.521 101.61 511.726 101.61C512.015 101.61 512.239 101.507 512.398 101.302C512.557 101.106 512.757 100.672 513 100H512.566L509.892 92.72H511.348L513.406 98.908L515.464 92.72H516.808ZM115.236 118.026C115.236 117.615 115.021 117.307 114.592 117.102C114.34 116.99 113.85 116.85 113.122 116.682C112.226 116.486 111.587 116.201 111.204 115.828C110.887 115.511 110.728 115.095 110.728 114.582C110.728 113.901 111.003 113.378 111.554 113.014C112.049 112.678 112.716 112.51 113.556 112.51C114.424 112.51 115.129 112.725 115.67 113.154C116.137 113.527 116.426 114.022 116.538 114.638H115.166C115.007 113.929 114.466 113.574 113.542 113.574C113.029 113.574 112.646 113.667 112.394 113.854C112.189 114.013 112.086 114.213 112.086 114.456C112.086 114.755 112.198 114.979 112.422 115.128C112.655 115.277 113.108 115.427 113.78 115.576C114.807 115.8 115.521 116.075 115.922 116.402C116.37 116.766 116.594 117.275 116.594 117.928C116.594 118.656 116.295 119.23 115.698 119.65C115.157 120.023 114.443 120.21 113.556 120.21C112.585 120.21 111.815 119.977 111.246 119.51C110.751 119.099 110.476 118.567 110.42 117.914H111.792C111.941 118.735 112.534 119.146 113.57 119.146C114.13 119.146 114.564 119.025 114.872 118.782C115.115 118.586 115.236 118.334 115.236 118.026ZM124.206 112.72L121.672 120.098C121.336 121.078 121.014 121.745 120.706 122.1C120.342 122.52 119.871 122.73 119.292 122.73C119.05 122.73 118.76 122.688 118.424 122.604V121.512C118.686 121.577 118.919 121.61 119.124 121.61C119.414 121.61 119.638 121.507 119.796 121.302C119.955 121.106 120.156 120.672 120.398 120H119.964L117.29 112.72H118.746L120.804 118.908L122.862 112.72H124.206ZM129.578 118.026C129.578 117.615 129.363 117.307 128.934 117.102C128.682 116.99 128.192 116.85 127.464 116.682C126.568 116.486 125.928 116.201 125.546 115.828C125.228 115.511 125.07 115.095 125.07 114.582C125.07 113.901 125.345 113.378 125.896 113.014C126.39 112.678 127.058 112.51 127.898 112.51C128.766 112.51 129.47 112.725 130.012 113.154C130.478 113.527 130.768 114.022 130.88 114.638H129.508C129.349 113.929 128.808 113.574 127.884 113.574C127.37 113.574 126.988 113.667 126.736 113.854C126.53 114.013 126.428 114.213 126.428 114.456C126.428 114.755 126.54 114.979 126.764 115.128C126.997 115.277 127.45 115.427 128.122 115.576C129.148 115.8 129.862 116.075 130.264 116.402C130.712 116.766 130.936 117.275 130.936 117.928C130.936 118.656 130.637 119.23 130.04 119.65C129.498 120.023 128.784 120.21 127.898 120.21C126.927 120.21 126.157 119.977 125.588 119.51C125.093 119.099 124.818 118.567 124.762 117.914H126.134C126.283 118.735 126.876 119.146 127.912 119.146C128.472 119.146 128.906 119.025 129.214 118.782C129.456 118.586 129.578 118.334 129.578 118.026ZM135.72 118.922V120.07C135.375 120.163 135.044 120.21 134.726 120.21C134.054 120.21 133.55 120 133.214 119.58C132.925 119.235 132.78 118.773 132.78 118.194V113.868H131.702V112.72H132.78L132.864 110.97H134.124V112.72H135.692V113.868H134.124V118.222C134.124 118.763 134.381 119.034 134.894 119.034C135.137 119.034 135.412 118.997 135.72 118.922ZM141.872 117.9H143.328C143.122 118.637 142.716 119.216 142.11 119.636C141.54 120.019 140.859 120.21 140.066 120.21C138.918 120.21 138.022 119.846 137.378 119.118C136.79 118.437 136.496 117.517 136.496 116.36C136.496 115.044 136.869 114.045 137.616 113.364C138.232 112.795 139.025 112.51 139.996 112.51C141.134 112.51 141.993 112.879 142.572 113.616C143.132 114.325 143.412 115.338 143.412 116.654H137.868C137.924 117.513 138.185 118.152 138.652 118.572C139.034 118.908 139.52 119.076 140.108 119.076C140.565 119.076 140.962 118.95 141.298 118.698C141.578 118.483 141.769 118.217 141.872 117.9ZM140.024 113.588C139.426 113.588 138.946 113.775 138.582 114.148C138.236 114.493 138.017 114.974 137.924 115.59H142.04C141.993 114.89 141.76 114.367 141.34 114.022C141.004 113.733 140.565 113.588 140.024 113.588ZM146.367 120H145.023V112.72H146.129L146.269 113.574C146.764 112.865 147.478 112.51 148.411 112.51C149.428 112.51 150.142 112.893 150.553 113.658C151.038 112.893 151.827 112.51 152.919 112.51C153.731 112.51 154.356 112.757 154.795 113.252C155.187 113.709 155.383 114.335 155.383 115.128V120H154.039V115.226C154.039 114.181 153.568 113.658 152.625 113.658C152.065 113.658 151.617 113.877 151.281 114.316C151.01 114.671 150.875 115.086 150.875 115.562V120H149.531V115.226C149.531 114.181 149.06 113.658 148.117 113.658C147.594 113.658 147.16 113.863 146.815 114.274C146.516 114.619 146.367 115.035 146.367 115.52V120ZM166.216 117.662H167.686C167.574 118.446 167.206 119.076 166.58 119.552C166.011 119.991 165.316 120.21 164.494 120.21C163.421 120.21 162.567 119.841 161.932 119.104C161.344 118.423 161.05 117.527 161.05 116.416C161.05 115.128 161.405 114.129 162.114 113.42C162.721 112.813 163.51 112.51 164.48 112.51C165.376 112.51 166.114 112.748 166.692 113.224C167.206 113.644 167.518 114.195 167.63 114.876H166.146C166.053 114.484 165.862 114.181 165.572 113.966C165.292 113.751 164.938 113.644 164.508 113.644C163.846 113.644 163.337 113.905 162.982 114.428C162.646 114.913 162.478 115.59 162.478 116.458C162.478 117.363 162.702 118.049 163.15 118.516C163.505 118.889 163.962 119.076 164.522 119.076C165.008 119.076 165.404 118.936 165.712 118.656C165.983 118.413 166.151 118.082 166.216 117.662ZM170.566 120H169.222V109.92H170.566V113.546C171.098 112.855 171.808 112.51 172.694 112.51C173.553 112.51 174.211 112.776 174.668 113.308C175.07 113.784 175.27 114.433 175.27 115.254V120H173.926V115.268C173.926 114.195 173.408 113.658 172.372 113.658C171.822 113.658 171.374 113.849 171.028 114.232C170.72 114.577 170.566 115.021 170.566 115.562V120ZM182.122 117.9H183.578C183.372 118.637 182.966 119.216 182.36 119.636C181.79 120.019 181.109 120.21 180.316 120.21C179.168 120.21 178.272 119.846 177.628 119.118C177.04 118.437 176.746 117.517 176.746 116.36C176.746 115.044 177.119 114.045 177.866 113.364C178.482 112.795 179.275 112.51 180.246 112.51C181.384 112.51 182.243 112.879 182.822 113.616C183.382 114.325 183.662 115.338 183.662 116.654H178.118C178.174 117.513 178.435 118.152 178.902 118.572C179.284 118.908 179.77 119.076 180.358 119.076C180.815 119.076 181.212 118.95 181.548 118.698C181.828 118.483 182.019 118.217 182.122 117.9ZM180.274 113.588C179.676 113.588 179.196 113.775 178.832 114.148C178.486 114.493 178.267 114.974 178.174 115.59H182.29C182.243 114.89 182.01 114.367 181.59 114.022C181.254 113.733 180.815 113.588 180.274 113.588ZM190.019 117.662H191.489C191.377 118.446 191.008 119.076 190.383 119.552C189.814 119.991 189.118 120.21 188.297 120.21C187.224 120.21 186.37 119.841 185.735 119.104C185.147 118.423 184.853 117.527 184.853 116.416C184.853 115.128 185.208 114.129 185.917 113.42C186.524 112.813 187.312 112.51 188.283 112.51C189.179 112.51 189.916 112.748 190.495 113.224C191.008 113.644 191.321 114.195 191.433 114.876H189.949C189.856 114.484 189.664 114.181 189.375 113.966C189.095 113.751 188.74 113.644 188.311 113.644C187.648 113.644 187.14 113.905 186.785 114.428C186.449 114.913 186.281 115.59 186.281 116.458C186.281 117.363 186.505 118.049 186.953 118.516C187.308 118.889 187.765 119.076 188.325 119.076C188.81 119.076 189.207 118.936 189.515 118.656C189.786 118.413 189.954 118.082 190.019 117.662ZM194.369 120H193.025V109.92H194.369V115.548L197.225 112.72H198.989L195.713 115.884L199.395 120H197.603L194.369 116.332V120ZM204.784 116.08H199.744V114.89H204.784V116.08ZM206.955 112.72H208.299V117.494C208.299 118.539 208.803 119.062 209.811 119.062C210.427 119.062 210.898 118.843 211.225 118.404C211.477 118.068 211.603 117.653 211.603 117.158V112.72H212.947V120H211.841L211.687 119.16C211.174 119.86 210.446 120.21 209.503 120.21C208.672 120.21 208.033 119.953 207.585 119.44C207.165 118.964 206.955 118.306 206.955 117.466V112.72ZM214.914 112.72H216.02L216.23 113.672C216.827 112.897 217.648 112.51 218.694 112.51C219.739 112.51 220.551 112.883 221.13 113.63C221.643 114.302 221.9 115.193 221.9 116.304C221.9 117.62 221.55 118.628 220.85 119.328C220.262 119.916 219.51 120.21 218.596 120.21C217.56 120.21 216.78 119.827 216.258 119.062V122.52H214.914V112.72ZM220.5 116.276C220.5 115.361 220.271 114.675 219.814 114.218C219.45 113.845 218.974 113.658 218.386 113.658C217.704 113.658 217.163 113.905 216.762 114.4C216.379 114.876 216.188 115.501 216.188 116.276C216.188 117.209 216.416 117.923 216.874 118.418C217.256 118.847 217.76 119.062 218.386 119.062C219.086 119.062 219.618 118.805 219.982 118.292C220.327 117.816 220.5 117.144 220.5 116.276ZM230.89 118.922V120.07C230.545 120.163 230.213 120.21 229.896 120.21C229.224 120.21 228.72 120 228.384 119.58C228.095 119.235 227.95 118.773 227.95 118.194V113.868H226.872V112.72H227.95L228.034 110.97H229.294V112.72H230.862V113.868H229.294V118.222C229.294 118.763 229.551 119.034 230.064 119.034C230.307 119.034 230.582 118.997 230.89 118.922ZM231.665 116.36C231.665 115.025 232.062 114.017 232.855 113.336C233.49 112.785 234.293 112.51 235.263 112.51C236.393 112.51 237.279 112.869 237.923 113.588C238.539 114.26 238.847 115.184 238.847 116.36C238.847 117.676 238.46 118.679 237.685 119.37C237.051 119.93 236.239 120.21 235.249 120.21C234.12 120.21 233.229 119.837 232.575 119.09C231.969 118.409 231.665 117.499 231.665 116.36ZM233.065 116.36C233.065 117.293 233.303 118.007 233.779 118.502C234.171 118.913 234.671 119.118 235.277 119.118C235.987 119.118 236.533 118.852 236.915 118.32C237.27 117.835 237.447 117.181 237.447 116.36C237.447 115.408 237.214 114.689 236.747 114.204C236.365 113.803 235.87 113.602 235.263 113.602C234.563 113.602 234.017 113.868 233.625 114.4C233.252 114.885 233.065 115.539 233.065 116.36ZM249.538 117.9H250.994C250.788 118.637 250.382 119.216 249.776 119.636C249.206 120.019 248.525 120.21 247.732 120.21C246.584 120.21 245.688 119.846 245.044 119.118C244.456 118.437 244.162 117.517 244.162 116.36C244.162 115.044 244.535 114.045 245.282 113.364C245.898 112.795 246.691 112.51 247.662 112.51C248.8 112.51 249.659 112.879 250.238 113.616C250.798 114.325 251.078 115.338 251.078 116.654H245.534C245.59 117.513 245.851 118.152 246.318 118.572C246.7 118.908 247.186 119.076 247.774 119.076C248.231 119.076 248.628 118.95 248.964 118.698C249.244 118.483 249.435 118.217 249.538 117.9ZM247.69 113.588C247.092 113.588 246.612 113.775 246.248 114.148C245.902 114.493 245.683 114.974 245.59 115.59H249.706C249.659 114.89 249.426 114.367 249.006 114.022C248.67 113.733 248.231 113.588 247.69 113.588ZM254.033 120H252.689V112.72H253.795L253.949 113.644C254.49 112.888 255.228 112.51 256.161 112.51C257.02 112.51 257.678 112.776 258.135 113.308C258.536 113.784 258.737 114.433 258.737 115.254V120H257.393V115.268C257.393 114.195 256.875 113.658 255.839 113.658C255.298 113.658 254.854 113.845 254.509 114.218C254.192 114.554 254.033 114.983 254.033 115.506V120ZM264.888 118.026C264.888 117.615 264.674 117.307 264.244 117.102C263.992 116.99 263.502 116.85 262.774 116.682C261.878 116.486 261.239 116.201 260.856 115.828C260.539 115.511 260.38 115.095 260.38 114.582C260.38 113.901 260.656 113.378 261.206 113.014C261.701 112.678 262.368 112.51 263.208 112.51C264.076 112.51 264.781 112.725 265.322 113.154C265.789 113.527 266.078 114.022 266.19 114.638H264.818C264.66 113.929 264.118 113.574 263.194 113.574C262.681 113.574 262.298 113.667 262.046 113.854C261.841 114.013 261.738 114.213 261.738 114.456C261.738 114.755 261.85 114.979 262.074 115.128C262.308 115.277 262.76 115.427 263.432 115.576C264.459 115.8 265.173 116.075 265.574 116.402C266.022 116.766 266.246 117.275 266.246 117.928C266.246 118.656 265.948 119.23 265.35 119.65C264.809 120.023 264.095 120.21 263.208 120.21C262.238 120.21 261.468 119.977 260.898 119.51C260.404 119.099 260.128 118.567 260.072 117.914H261.444C261.594 118.735 262.186 119.146 263.222 119.146C263.782 119.146 264.216 119.025 264.524 118.782C264.767 118.586 264.888 118.334 264.888 118.026ZM267.713 112.72H269.057V117.494C269.057 118.539 269.561 119.062 270.569 119.062C271.185 119.062 271.656 118.843 271.983 118.404C272.235 118.068 272.361 117.653 272.361 117.158V112.72H273.705V120H272.599L272.445 119.16C271.931 119.86 271.203 120.21 270.261 120.21C269.43 120.21 268.791 119.953 268.343 119.44C267.923 118.964 267.713 118.306 267.713 117.466V112.72ZM277.015 120H275.671V112.72H276.777L276.959 113.798C277.37 112.939 277.986 112.51 278.807 112.51C279.078 112.51 279.344 112.543 279.605 112.608V113.952C279.288 113.868 279.003 113.826 278.751 113.826C278.21 113.826 277.785 114.045 277.477 114.484C277.169 114.923 277.015 115.543 277.015 116.346V120ZM285.481 117.9H286.937C286.732 118.637 286.326 119.216 285.719 119.636C285.15 120.019 284.468 120.21 283.675 120.21C282.527 120.21 281.631 119.846 280.987 119.118C280.399 118.437 280.105 117.517 280.105 116.36C280.105 115.044 280.478 114.045 281.225 113.364C281.841 112.795 282.634 112.51 283.605 112.51C284.744 112.51 285.602 112.879 286.181 113.616C286.741 114.325 287.021 115.338 287.021 116.654H281.477C281.533 117.513 281.794 118.152 282.261 118.572C282.644 118.908 283.129 119.076 283.717 119.076C284.174 119.076 284.571 118.95 284.907 118.698C285.187 118.483 285.378 118.217 285.481 117.9ZM283.633 113.588C283.036 113.588 282.555 113.775 282.191 114.148C281.846 114.493 281.626 114.974 281.533 115.59H285.649C285.602 114.89 285.369 114.367 284.949 114.022C284.613 113.733 284.174 113.588 283.633 113.588ZM296.078 118.922V120.07C295.732 120.163 295.401 120.21 295.084 120.21C294.412 120.21 293.908 120 293.572 119.58C293.282 119.235 293.138 118.773 293.138 118.194V113.868H292.06V112.72H293.138L293.222 110.97H294.482V112.72H296.05V113.868H294.482V118.222C294.482 118.763 294.738 119.034 295.252 119.034C295.494 119.034 295.77 118.997 296.078 118.922ZM298.685 120H297.341V109.92H298.685V113.546C299.217 112.855 299.927 112.51 300.813 112.51C301.672 112.51 302.33 112.776 302.787 113.308C303.189 113.784 303.389 114.433 303.389 115.254V120H302.045V115.268C302.045 114.195 301.527 113.658 300.491 113.658C299.941 113.658 299.493 113.849 299.147 114.232C298.839 114.577 298.685 115.021 298.685 115.562V120ZM310.241 117.9H311.697C311.491 118.637 311.085 119.216 310.479 119.636C309.909 120.019 309.228 120.21 308.435 120.21C307.287 120.21 306.391 119.846 305.747 119.118C305.159 118.437 304.865 117.517 304.865 116.36C304.865 115.044 305.238 114.045 305.985 113.364C306.601 112.795 307.394 112.51 308.365 112.51C309.503 112.51 310.362 112.879 310.941 113.616C311.501 114.325 311.781 115.338 311.781 116.654H306.237C306.293 117.513 306.554 118.152 307.021 118.572C307.403 118.908 307.889 119.076 308.477 119.076C308.934 119.076 309.331 118.95 309.667 118.698C309.947 118.483 310.138 118.217 310.241 117.9ZM308.393 113.588C307.795 113.588 307.315 113.775 306.951 114.148C306.605 114.493 306.386 114.974 306.293 115.59H310.409C310.362 114.89 310.129 114.367 309.709 114.022C309.373 113.733 308.934 113.588 308.393 113.588ZM317.169 116.36C317.169 115.025 317.566 114.017 318.359 113.336C318.994 112.785 319.797 112.51 320.767 112.51C321.897 112.51 322.783 112.869 323.427 113.588C324.043 114.26 324.351 115.184 324.351 116.36C324.351 117.676 323.964 118.679 323.189 119.37C322.555 119.93 321.743 120.21 320.753 120.21C319.624 120.21 318.733 119.837 318.079 119.09C317.473 118.409 317.169 117.499 317.169 116.36ZM318.569 116.36C318.569 117.293 318.807 118.007 319.283 118.502C319.675 118.913 320.175 119.118 320.781 119.118C321.491 119.118 322.037 118.852 322.419 118.32C322.774 117.835 322.951 117.181 322.951 116.36C322.951 115.408 322.718 114.689 322.251 114.204C321.869 113.803 321.374 113.602 320.767 113.602C320.067 113.602 319.521 113.868 319.129 114.4C318.756 114.885 318.569 115.539 318.569 116.36ZM325.888 112.72H326.994L327.204 113.672C327.802 112.897 328.623 112.51 329.668 112.51C330.714 112.51 331.526 112.883 332.104 113.63C332.618 114.302 332.874 115.193 332.874 116.304C332.874 117.62 332.524 118.628 331.824 119.328C331.236 119.916 330.485 120.21 329.57 120.21C328.534 120.21 327.755 119.827 327.232 119.062V122.52H325.888V112.72ZM331.474 116.276C331.474 115.361 331.246 114.675 330.788 114.218C330.424 113.845 329.948 113.658 329.36 113.658C328.679 113.658 328.138 113.905 327.736 114.4C327.354 114.876 327.162 115.501 327.162 116.276C327.162 117.209 327.391 117.923 327.848 118.418C328.231 118.847 328.735 119.062 329.36 119.062C330.06 119.062 330.592 118.805 330.956 118.292C331.302 117.816 331.474 117.144 331.474 116.276ZM337.667 118.922V120.07C337.322 120.163 336.991 120.21 336.673 120.21C336.001 120.21 335.497 120 335.161 119.58C334.872 119.235 334.727 118.773 334.727 118.194V113.868H333.649V112.72H334.727L334.811 110.97H336.071V112.72H337.639V113.868H336.071V118.222C336.071 118.763 336.328 119.034 336.841 119.034C337.084 119.034 337.359 118.997 337.667 118.922ZM340.359 111.502H338.847V109.92H340.359V111.502ZM340.275 120H338.931V112.72H340.275V120ZM343.584 120H342.24V112.72H343.346L343.486 113.574C343.98 112.865 344.694 112.51 345.628 112.51C346.645 112.51 347.359 112.893 347.77 113.658C348.255 112.893 349.044 112.51 350.136 112.51C350.948 112.51 351.573 112.757 352.012 113.252C352.404 113.709 352.6 114.335 352.6 115.128V120H351.256V115.226C351.256 114.181 350.784 113.658 349.842 113.658C349.282 113.658 348.834 113.877 348.498 114.316C348.227 114.671 348.092 115.086 348.092 115.562V120H346.748V115.226C346.748 114.181 346.276 113.658 345.334 113.658C344.811 113.658 344.377 113.863 344.032 114.274C343.733 114.619 343.584 115.035 343.584 115.52V120ZM355.638 114.75H354.21C354.284 114.022 354.63 113.457 355.246 113.056C355.796 112.692 356.492 112.51 357.332 112.51C358.33 112.51 359.096 112.771 359.628 113.294C360.076 113.742 360.3 114.321 360.3 115.03V120H359.194L359.026 119.006C358.456 119.809 357.644 120.21 356.59 120.21C355.759 120.21 355.11 119.986 354.644 119.538C354.261 119.165 354.07 118.693 354.07 118.124C354.07 117.405 354.317 116.85 354.812 116.458C355.25 116.113 355.922 115.861 356.828 115.702L358.956 115.338V114.974C358.956 114.498 358.792 114.139 358.466 113.896C358.176 113.681 357.78 113.574 357.276 113.574C356.286 113.574 355.74 113.966 355.638 114.75ZM356.912 119.076C357.481 119.076 357.976 118.889 358.396 118.516C358.769 118.171 358.956 117.774 358.956 117.326V116.388L357.15 116.71C356.487 116.822 356.034 116.995 355.792 117.228C355.596 117.415 355.498 117.667 355.498 117.984C355.498 118.339 355.619 118.609 355.862 118.796C356.104 118.983 356.454 119.076 356.912 119.076ZM363.531 109.92V120H362.187V109.92H363.531ZM369.693 112.72H370.799L371.009 113.672C371.606 112.897 372.428 112.51 373.473 112.51C374.518 112.51 375.33 112.883 375.909 113.63C376.422 114.302 376.679 115.193 376.679 116.304C376.679 117.62 376.329 118.628 375.629 119.328C375.041 119.916 374.29 120.21 373.375 120.21C372.339 120.21 371.56 119.827 371.037 119.062V122.52H369.693V112.72ZM375.279 116.276C375.279 115.361 375.05 114.675 374.593 114.218C374.229 113.845 373.753 113.658 373.165 113.658C372.484 113.658 371.942 113.905 371.541 114.4C371.158 114.876 370.967 115.501 370.967 116.276C370.967 117.209 371.196 117.923 371.653 118.418C372.036 118.847 372.54 119.062 373.165 119.062C373.865 119.062 374.397 118.805 374.761 118.292C375.106 117.816 375.279 117.144 375.279 116.276ZM383.18 117.9H384.636C384.431 118.637 384.025 119.216 383.418 119.636C382.849 120.019 382.167 120.21 381.374 120.21C380.226 120.21 379.33 119.846 378.686 119.118C378.098 118.437 377.804 117.517 377.804 116.36C377.804 115.044 378.177 114.045 378.924 113.364C379.54 112.795 380.333 112.51 381.304 112.51C382.443 112.51 383.301 112.879 383.88 113.616C384.44 114.325 384.72 115.338 384.72 116.654H379.176C379.232 117.513 379.493 118.152 379.96 118.572C380.343 118.908 380.828 119.076 381.416 119.076C381.873 119.076 382.27 118.95 382.606 118.698C382.886 118.483 383.077 118.217 383.18 117.9ZM381.332 113.588C380.735 113.588 380.254 113.775 379.89 114.148C379.545 114.493 379.325 114.974 379.232 115.59H383.348C383.301 114.89 383.068 114.367 382.648 114.022C382.312 113.733 381.873 113.588 381.332 113.588ZM387.676 120H386.332V112.72H387.438L387.62 113.798C388.03 112.939 388.646 112.51 389.468 112.51C389.738 112.51 390.004 112.543 390.266 112.608V113.952C389.948 113.868 389.664 113.826 389.412 113.826C388.87 113.826 388.446 114.045 388.138 114.484C387.83 114.923 387.676 115.543 387.676 116.346V120ZM394.92 109.878V111.04C394.472 110.928 394.103 110.872 393.814 110.872C393.571 110.872 393.38 110.937 393.24 111.068C393.109 111.199 393.044 111.381 393.044 111.614V112.72H394.612V113.868H393.044V120H391.7V113.868H390.622V112.72H391.7V111.698C391.7 111.054 391.91 110.55 392.33 110.186C392.703 109.869 393.17 109.71 393.73 109.71C394.094 109.71 394.49 109.766 394.92 109.878ZM395.414 116.36C395.414 115.025 395.81 114.017 396.604 113.336C397.238 112.785 398.041 112.51 399.012 112.51C400.141 112.51 401.028 112.869 401.672 113.588C402.288 114.26 402.596 115.184 402.596 116.36C402.596 117.676 402.208 118.679 401.434 119.37C400.799 119.93 399.987 120.21 398.998 120.21C397.868 120.21 396.977 119.837 396.324 119.09C395.717 118.409 395.414 117.499 395.414 116.36ZM396.814 116.36C396.814 117.293 397.052 118.007 397.528 118.502C397.92 118.913 398.419 119.118 399.026 119.118C399.735 119.118 400.281 118.852 400.664 118.32C401.018 117.835 401.196 117.181 401.196 116.36C401.196 115.408 400.962 114.689 400.496 114.204C400.113 113.803 399.618 113.602 399.012 113.602C398.312 113.602 397.766 113.868 397.374 114.4C397 114.885 396.814 115.539 396.814 116.36ZM405.476 120H404.132V112.72H405.238L405.42 113.798C405.831 112.939 406.447 112.51 407.268 112.51C407.539 112.51 407.805 112.543 408.066 112.608V113.952C407.749 113.868 407.464 113.826 407.212 113.826C406.671 113.826 406.246 114.045 405.938 114.484C405.63 114.923 405.476 115.543 405.476 116.346V120ZM410.467 120H409.123V112.72H410.229L410.369 113.574C410.863 112.865 411.577 112.51 412.511 112.51C413.528 112.51 414.242 112.893 414.653 113.658C415.138 112.893 415.927 112.51 417.019 112.51C417.831 112.51 418.456 112.757 418.895 113.252C419.287 113.709 419.483 114.335 419.483 115.128V120H418.139V115.226C418.139 114.181 417.667 113.658 416.725 113.658C416.165 113.658 415.717 113.877 415.381 114.316C415.11 114.671 414.975 115.086 414.975 115.562V120H413.631V115.226C413.631 114.181 413.159 113.658 412.217 113.658C411.694 113.658 411.26 113.863 410.915 114.274C410.616 114.619 410.467 115.035 410.467 115.52V120ZM422.521 114.75H421.093C421.167 114.022 421.513 113.457 422.129 113.056C422.679 112.692 423.375 112.51 424.215 112.51C425.213 112.51 425.979 112.771 426.511 113.294C426.959 113.742 427.183 114.321 427.183 115.03V120H426.077L425.909 119.006C425.339 119.809 424.527 120.21 423.473 120.21C422.642 120.21 421.993 119.986 421.527 119.538C421.144 119.165 420.953 118.693 420.953 118.124C420.953 117.405 421.2 116.85 421.695 116.458C422.133 116.113 422.805 115.861 423.711 115.702L425.839 115.338V114.974C425.839 114.498 425.675 114.139 425.349 113.896C425.059 113.681 424.663 113.574 424.159 113.574C423.169 113.574 422.623 113.966 422.521 114.75ZM423.795 119.076C424.364 119.076 424.859 118.889 425.279 118.516C425.652 118.171 425.839 117.774 425.839 117.326V116.388L424.033 116.71C423.37 116.822 422.917 116.995 422.675 117.228C422.479 117.415 422.381 117.667 422.381 117.984C422.381 118.339 422.502 118.609 422.745 118.796C422.987 118.983 423.337 119.076 423.795 119.076ZM430.414 120H429.07V112.72H430.176L430.33 113.644C430.871 112.888 431.609 112.51 432.542 112.51C433.401 112.51 434.059 112.776 434.516 113.308C434.917 113.784 435.118 114.433 435.118 115.254V120H433.774V115.268C433.774 114.195 433.256 113.658 432.22 113.658C431.679 113.658 431.235 113.845 430.89 114.218C430.573 114.554 430.414 114.983 430.414 115.506V120ZM441.759 117.662H443.229C443.117 118.446 442.749 119.076 442.123 119.552C441.554 119.991 440.859 120.21 440.037 120.21C438.964 120.21 438.11 119.841 437.475 119.104C436.887 118.423 436.593 117.527 436.593 116.416C436.593 115.128 436.948 114.129 437.657 113.42C438.264 112.813 439.053 112.51 440.023 112.51C440.919 112.51 441.657 112.748 442.235 113.224C442.749 113.644 443.061 114.195 443.173 114.876H441.689C441.596 114.484 441.405 114.181 441.115 113.966C440.835 113.751 440.481 113.644 440.051 113.644C439.389 113.644 438.88 113.905 438.525 114.428C438.189 114.913 438.021 115.59 438.021 116.458C438.021 117.363 438.245 118.049 438.693 118.516C439.048 118.889 439.505 119.076 440.065 119.076C440.551 119.076 440.947 118.936 441.255 118.656C441.526 118.413 441.694 118.082 441.759 117.662ZM449.721 117.9H451.177C450.972 118.637 450.566 119.216 449.959 119.636C449.39 120.019 448.708 120.21 447.915 120.21C446.767 120.21 445.871 119.846 445.227 119.118C444.639 118.437 444.345 117.517 444.345 116.36C444.345 115.044 444.718 114.045 445.465 113.364C446.081 112.795 446.874 112.51 447.845 112.51C448.984 112.51 449.842 112.879 450.421 113.616C450.981 114.325 451.261 115.338 451.261 116.654H445.717C445.773 117.513 446.034 118.152 446.501 118.572C446.884 118.908 447.369 119.076 447.957 119.076C448.414 119.076 448.811 118.95 449.147 118.698C449.427 118.483 449.618 118.217 449.721 117.9ZM447.873 113.588C447.276 113.588 446.795 113.775 446.431 114.148C446.086 114.493 445.866 114.974 445.773 115.59H449.889C449.842 114.89 449.609 114.367 449.189 114.022C448.853 113.733 448.414 113.588 447.873 113.588ZM458.218 114.75H456.79C456.865 114.022 457.21 113.457 457.826 113.056C458.377 112.692 459.072 112.51 459.912 112.51C460.911 112.51 461.676 112.771 462.208 113.294C462.656 113.742 462.88 114.321 462.88 115.03V120H461.774L461.606 119.006C461.037 119.809 460.225 120.21 459.17 120.21C458.339 120.21 457.691 119.986 457.224 119.538C456.841 119.165 456.65 118.693 456.65 118.124C456.65 117.405 456.897 116.85 457.392 116.458C457.831 116.113 458.503 115.861 459.408 115.702L461.536 115.338V114.974C461.536 114.498 461.373 114.139 461.046 113.896C460.757 113.681 460.36 113.574 459.856 113.574C458.867 113.574 458.321 113.966 458.218 114.75ZM459.492 119.076C460.061 119.076 460.556 118.889 460.976 118.516C461.349 118.171 461.536 117.774 461.536 117.326V116.388L459.73 116.71C459.067 116.822 458.615 116.995 458.372 117.228C458.176 117.415 458.078 117.667 458.078 117.984C458.078 118.339 458.199 118.609 458.442 118.796C458.685 118.983 459.035 119.076 459.492 119.076ZM466.111 120H464.767V112.72H465.873L466.027 113.644C466.568 112.888 467.306 112.51 468.239 112.51C469.098 112.51 469.756 112.776 470.213 113.308C470.614 113.784 470.815 114.433 470.815 115.254V120H469.471V115.268C469.471 114.195 468.953 113.658 467.917 113.658C467.376 113.658 466.932 113.845 466.587 114.218C466.27 114.554 466.111 114.983 466.111 115.506V120ZM479.276 120H478.17L477.932 118.978C477.372 119.799 476.565 120.21 475.51 120.21C474.493 120.21 473.69 119.841 473.102 119.104C472.561 118.423 472.29 117.522 472.29 116.402C472.29 115.049 472.636 114.031 473.326 113.35C473.905 112.79 474.661 112.51 475.594 112.51C476.602 112.51 477.382 112.888 477.932 113.644V109.92H479.276V120ZM473.69 116.43C473.69 117.335 473.914 118.021 474.362 118.488C474.736 118.871 475.216 119.062 475.804 119.062C476.532 119.062 477.097 118.787 477.498 118.236C477.834 117.76 478.002 117.163 478.002 116.444C478.002 115.501 477.778 114.783 477.33 114.288C476.948 113.868 476.439 113.658 475.804 113.658C475.095 113.658 474.558 113.915 474.194 114.428C473.858 114.895 473.69 115.562 473.69 116.43ZM115.236 138.026C115.236 137.615 115.021 137.307 114.592 137.102C114.34 136.99 113.85 136.85 113.122 136.682C112.226 136.486 111.587 136.201 111.204 135.828C110.887 135.511 110.728 135.095 110.728 134.582C110.728 133.901 111.003 133.378 111.554 133.014C112.049 132.678 112.716 132.51 113.556 132.51C114.424 132.51 115.129 132.725 115.67 133.154C116.137 133.527 116.426 134.022 116.538 134.638H115.166C115.007 133.929 114.466 133.574 113.542 133.574C113.029 133.574 112.646 133.667 112.394 133.854C112.189 134.013 112.086 134.213 112.086 134.456C112.086 134.755 112.198 134.979 112.422 135.128C112.655 135.277 113.108 135.427 113.78 135.576C114.807 135.8 115.521 136.075 115.922 136.402C116.37 136.766 116.594 137.275 116.594 137.928C116.594 138.656 116.295 139.23 115.698 139.65C115.157 140.023 114.443 140.21 113.556 140.21C112.585 140.21 111.815 139.977 111.246 139.51C110.751 139.099 110.476 138.567 110.42 137.914H111.792C111.941 138.735 112.534 139.146 113.57 139.146C114.13 139.146 114.564 139.025 114.872 138.782C115.115 138.586 115.236 138.334 115.236 138.026ZM123.086 137.9H124.542C124.337 138.637 123.931 139.216 123.324 139.636C122.755 140.019 122.074 140.21 121.28 140.21C120.132 140.21 119.236 139.846 118.592 139.118C118.004 138.437 117.71 137.517 117.71 136.36C117.71 135.044 118.084 134.045 118.83 133.364C119.446 132.795 120.24 132.51 121.21 132.51C122.349 132.51 123.208 132.879 123.786 133.616C124.346 134.325 124.626 135.338 124.626 136.654H119.082C119.138 137.513 119.4 138.152 119.866 138.572C120.249 138.908 120.734 139.076 121.322 139.076C121.78 139.076 122.176 138.95 122.512 138.698C122.792 138.483 122.984 138.217 123.086 137.9ZM121.238 133.588C120.641 133.588 120.16 133.775 119.796 134.148C119.451 134.493 119.232 134.974 119.138 135.59H123.254C123.208 134.89 122.974 134.367 122.554 134.022C122.218 133.733 121.78 133.588 121.238 133.588ZM130.984 137.662H132.454C132.342 138.446 131.973 139.076 131.348 139.552C130.778 139.991 130.083 140.21 129.262 140.21C128.188 140.21 127.334 139.841 126.7 139.104C126.112 138.423 125.818 137.527 125.818 136.416C125.818 135.128 126.172 134.129 126.882 133.42C127.488 132.813 128.277 132.51 129.248 132.51C130.144 132.51 130.881 132.748 131.46 133.224C131.973 133.644 132.286 134.195 132.398 134.876H130.914C130.82 134.484 130.629 134.181 130.34 133.966C130.06 133.751 129.705 133.644 129.276 133.644C128.613 133.644 128.104 133.905 127.75 134.428C127.414 134.913 127.246 135.59 127.246 136.458C127.246 137.363 127.47 138.049 127.918 138.516C128.272 138.889 128.73 139.076 129.29 139.076C129.775 139.076 130.172 138.936 130.48 138.656C130.75 138.413 130.918 138.082 130.984 137.662ZM133.92 132.72H135.264V137.494C135.264 138.539 135.768 139.062 136.776 139.062C137.392 139.062 137.863 138.843 138.19 138.404C138.442 138.068 138.568 137.653 138.568 137.158V132.72H139.912V140H138.806L138.652 139.16C138.138 139.86 137.41 140.21 136.468 140.21C135.637 140.21 134.998 139.953 134.55 139.44C134.13 138.964 133.92 138.306 133.92 137.466V132.72ZM143.222 140H141.878V132.72H142.984L143.166 133.798C143.577 132.939 144.193 132.51 145.014 132.51C145.285 132.51 145.551 132.543 145.812 132.608V133.952C145.495 133.868 145.21 133.826 144.958 133.826C144.417 133.826 143.992 134.045 143.684 134.484C143.376 134.923 143.222 135.543 143.222 136.346V140ZM148.297 131.502H146.785V129.92H148.297V131.502ZM148.213 140H146.869V132.72H148.213V140ZM153.425 138.922V140.07C153.08 140.163 152.749 140.21 152.431 140.21C151.759 140.21 151.255 140 150.919 139.58C150.63 139.235 150.485 138.773 150.485 138.194V133.868H149.407V132.72H150.485L150.569 130.97H151.829V132.72H153.397V133.868H151.829V138.222C151.829 138.763 152.086 139.034 152.599 139.034C152.842 139.034 153.117 138.997 153.425 138.922ZM160.765 132.72L158.231 140.098C157.895 141.078 157.573 141.745 157.265 142.1C156.901 142.52 156.43 142.73 155.851 142.73C155.608 142.73 155.319 142.688 154.983 142.604V141.512C155.244 141.577 155.478 141.61 155.683 141.61C155.972 141.61 156.196 141.507 156.355 141.302C156.514 141.106 156.714 140.672 156.957 140H156.523L153.849 132.72H155.305L157.363 138.908L159.421 132.72H160.765ZM165.658 136.36C165.658 135.025 166.054 134.017 166.848 133.336C167.482 132.785 168.285 132.51 169.256 132.51C170.385 132.51 171.272 132.869 171.916 133.588C172.532 134.26 172.84 135.184 172.84 136.36C172.84 137.676 172.452 138.679 171.678 139.37C171.043 139.93 170.231 140.21 169.242 140.21C168.112 140.21 167.221 139.837 166.568 139.09C165.961 138.409 165.658 137.499 165.658 136.36ZM167.058 136.36C167.058 137.293 167.296 138.007 167.772 138.502C168.164 138.913 168.663 139.118 169.27 139.118C169.979 139.118 170.525 138.852 170.908 138.32C171.262 137.835 171.44 137.181 171.44 136.36C171.44 135.408 171.206 134.689 170.74 134.204C170.357 133.803 169.862 133.602 169.256 133.602C168.556 133.602 168.01 133.868 167.618 134.4C167.244 134.885 167.058 135.539 167.058 136.36ZM177.974 129.878V131.04C177.526 130.928 177.158 130.872 176.868 130.872C176.626 130.872 176.434 130.937 176.294 131.068C176.164 131.199 176.098 131.381 176.098 131.614V132.72H177.666V133.868H176.098V140H174.754V133.868H173.676V132.72H174.754V131.698C174.754 131.054 174.964 130.55 175.384 130.186C175.758 129.869 176.224 129.71 176.784 129.71C177.148 129.71 177.545 129.766 177.974 129.878ZM182.665 136.36C182.665 135.025 183.062 134.017 183.855 133.336C184.49 132.785 185.293 132.51 186.263 132.51C187.393 132.51 188.279 132.869 188.923 133.588C189.539 134.26 189.847 135.184 189.847 136.36C189.847 137.676 189.46 138.679 188.685 139.37C188.051 139.93 187.239 140.21 186.249 140.21C185.12 140.21 184.229 139.837 183.575 139.09C182.969 138.409 182.665 137.499 182.665 136.36ZM184.065 136.36C184.065 137.293 184.303 138.007 184.779 138.502C185.171 138.913 185.671 139.118 186.277 139.118C186.987 139.118 187.533 138.852 187.915 138.32C188.27 137.835 188.447 137.181 188.447 136.36C188.447 135.408 188.214 134.689 187.747 134.204C187.365 133.803 186.87 133.602 186.263 133.602C185.563 133.602 185.017 133.868 184.625 134.4C184.252 134.885 184.065 135.539 184.065 136.36ZM191.314 132.72H192.658V137.494C192.658 138.539 193.162 139.062 194.17 139.062C194.786 139.062 195.258 138.843 195.584 138.404C195.836 138.068 195.962 137.653 195.962 137.158V132.72H197.306V140H196.2L196.046 139.16C195.533 139.86 194.805 140.21 193.862 140.21C193.032 140.21 192.392 139.953 191.944 139.44C191.524 138.964 191.314 138.306 191.314 137.466V132.72ZM200.617 140H199.273V132.72H200.379L200.561 133.798C200.972 132.939 201.588 132.51 202.409 132.51C202.68 132.51 202.946 132.543 203.207 132.608V133.952C202.89 133.868 202.605 133.826 202.353 133.826C201.812 133.826 201.387 134.045 201.079 134.484C200.771 134.923 200.617 135.543 200.617 136.346V140ZM208.46 132.72H209.566L209.776 133.672C210.374 132.897 211.195 132.51 212.24 132.51C213.286 132.51 214.098 132.883 214.676 133.63C215.19 134.302 215.446 135.193 215.446 136.304C215.446 137.62 215.096 138.628 214.396 139.328C213.808 139.916 213.057 140.21 212.142 140.21C211.106 140.21 210.327 139.827 209.804 139.062V142.52H208.46V132.72ZM214.046 136.276C214.046 135.361 213.818 134.675 213.36 134.218C212.996 133.845 212.52 133.658 211.932 133.658C211.251 133.658 210.71 133.905 210.308 134.4C209.926 134.876 209.734 135.501 209.734 136.276C209.734 137.209 209.963 137.923 210.42 138.418C210.803 138.847 211.307 139.062 211.932 139.062C212.632 139.062 213.164 138.805 213.528 138.292C213.874 137.816 214.046 137.144 214.046 136.276ZM218.336 129.92V140H216.992V129.92H218.336ZM221.448 134.75H220.02C220.095 134.022 220.44 133.457 221.056 133.056C221.607 132.692 222.302 132.51 223.142 132.51C224.141 132.51 224.906 132.771 225.438 133.294C225.886 133.742 226.11 134.321 226.11 135.03V140H225.004L224.836 139.006C224.267 139.809 223.455 140.21 222.4 140.21C221.57 140.21 220.921 139.986 220.454 139.538C220.072 139.165 219.88 138.693 219.88 138.124C219.88 137.405 220.128 136.85 220.622 136.458C221.061 136.113 221.733 135.861 222.638 135.702L224.766 135.338V134.974C224.766 134.498 224.603 134.139 224.276 133.896C223.987 133.681 223.59 133.574 223.086 133.574C222.097 133.574 221.551 133.966 221.448 134.75ZM222.722 139.076C223.292 139.076 223.786 138.889 224.206 138.516C224.58 138.171 224.766 137.774 224.766 137.326V136.388L222.96 136.71C222.298 136.822 221.845 136.995 221.602 137.228C221.406 137.415 221.308 137.667 221.308 137.984C221.308 138.339 221.43 138.609 221.672 138.796C221.915 138.983 222.265 139.076 222.722 139.076ZM231.246 138.922V140.07C230.9 140.163 230.569 140.21 230.252 140.21C229.58 140.21 229.076 140 228.74 139.58C228.45 139.235 228.306 138.773 228.306 138.194V133.868H227.228V132.72H228.306L228.39 130.97H229.65V132.72H231.218V133.868H229.65V138.222C229.65 138.763 229.906 139.034 230.42 139.034C230.662 139.034 230.938 138.997 231.246 138.922ZM236.107 129.878V131.04C235.659 130.928 235.291 130.872 235.001 130.872C234.759 130.872 234.567 130.937 234.427 131.068C234.297 131.199 234.231 131.381 234.231 131.614V132.72H235.799V133.868H234.231V140H232.887V133.868H231.809V132.72H232.887V131.698C232.887 131.054 233.097 130.55 233.517 130.186C233.891 129.869 234.357 129.71 234.917 129.71C235.281 129.71 235.678 129.766 236.107 129.878ZM236.601 136.36C236.601 135.025 236.998 134.017 237.791 133.336C238.426 132.785 239.228 132.51 240.199 132.51C241.328 132.51 242.215 132.869 242.859 133.588C243.475 134.26 243.783 135.184 243.783 136.36C243.783 137.676 243.396 138.679 242.621 139.37C241.986 139.93 241.174 140.21 240.185 140.21C239.056 140.21 238.164 139.837 237.511 139.09C236.904 138.409 236.601 137.499 236.601 136.36ZM238.001 136.36C238.001 137.293 238.239 138.007 238.715 138.502C239.107 138.913 239.606 139.118 240.213 139.118C240.922 139.118 241.468 138.852 241.851 138.32C242.206 137.835 242.383 137.181 242.383 136.36C242.383 135.408 242.15 134.689 241.683 134.204C241.3 133.803 240.806 133.602 240.199 133.602C239.499 133.602 238.953 133.868 238.561 134.4C238.188 134.885 238.001 135.539 238.001 136.36ZM246.664 140H245.32V132.72H246.426L246.608 133.798C247.019 132.939 247.635 132.51 248.456 132.51C248.727 132.51 248.993 132.543 249.254 132.608V133.952C248.937 133.868 248.652 133.826 248.4 133.826C247.859 133.826 247.434 134.045 247.126 134.484C246.818 134.923 246.664 135.543 246.664 136.346V140ZM251.654 140H250.31V132.72H251.416L251.556 133.574C252.051 132.865 252.765 132.51 253.698 132.51C254.715 132.51 255.429 132.893 255.84 133.658C256.325 132.893 257.114 132.51 258.206 132.51C259.018 132.51 259.643 132.757 260.082 133.252C260.474 133.709 260.67 134.335 260.67 135.128V140H259.326V135.226C259.326 134.181 258.855 133.658 257.912 133.658C257.352 133.658 256.904 133.877 256.568 134.316C256.297 134.671 256.162 135.086 256.162 135.562V140H254.818V135.226C254.818 134.181 254.347 133.658 253.404 133.658C252.881 133.658 252.447 133.863 252.102 134.274C251.803 134.619 251.654 135.035 251.654 135.52V140ZM264.492 140H262.868V138.376H264.492V140Z" fill="white" fill-opacity="0.95"/>
<rect x="120.5" y="162.5" width="407" height="35" stroke="black" stroke-dasharray="2 2"/>
<rect x="396.5" y="170.5" width="61" height="27" rx="13.5" stroke="white" stroke-opacity="0.2"/>
<path d="M407.409 177.48H409.473V187.32H414.961V189H407.409V177.48ZM418.198 183.032H416.198C416.336 182.168 416.768 181.507 417.494 181.048C418.144 180.643 418.96 180.44 419.942 180.44C421.126 180.44 422.032 180.744 422.662 181.352C423.206 181.875 423.478 182.552 423.478 183.384V189H421.942L421.702 187.976C421.051 188.819 420.128 189.24 418.934 189.24C417.984 189.24 417.248 188.984 416.726 188.472C416.267 188.024 416.038 187.453 416.038 186.76C416.038 185.981 416.32 185.373 416.886 184.936C417.398 184.531 418.192 184.237 419.27 184.056L421.558 183.672V183.272C421.558 182.771 421.392 182.397 421.062 182.152C420.774 181.928 420.379 181.816 419.878 181.816C418.886 181.816 418.326 182.221 418.198 183.032ZM421.558 184.936L419.75 185.256C419.131 185.373 418.688 185.539 418.422 185.752C418.155 185.955 418.022 186.243 418.022 186.616C418.022 187.395 418.496 187.784 419.446 187.784C420.064 187.784 420.587 187.581 421.014 187.176C421.376 186.824 421.558 186.413 421.558 185.944V184.936ZM425.438 177.48H427.358V181.688C428.019 180.856 428.91 180.44 430.03 180.44C431.235 180.44 432.163 180.851 432.814 181.672C433.411 182.419 433.71 183.421 433.71 184.68C433.71 186.216 433.299 187.395 432.478 188.216C431.806 188.899 430.937 189.24 429.87 189.24C428.771 189.24 427.907 188.824 427.278 187.992L426.974 189H425.438V177.48ZM431.742 184.76C431.742 183.757 431.513 183.016 431.054 182.536C430.681 182.152 430.179 181.96 429.55 181.96C428.835 181.96 428.27 182.221 427.854 182.744C427.47 183.245 427.278 183.912 427.278 184.744C427.278 185.789 427.513 186.568 427.982 187.08C428.377 187.507 428.889 187.72 429.518 187.72C430.254 187.72 430.814 187.448 431.198 186.904C431.561 186.392 431.742 185.677 431.742 184.76ZM440.992 186.6H443.008C442.784 187.453 442.32 188.115 441.616 188.584C440.944 189.021 440.118 189.24 439.136 189.24C437.782 189.24 436.726 188.813 435.968 187.96C435.275 187.181 434.928 186.141 434.928 184.84C434.928 183.347 435.36 182.205 436.224 181.416C436.95 180.765 437.894 180.44 439.056 180.44C440.411 180.44 441.435 180.883 442.128 181.768C442.779 182.589 443.104 183.763 443.104 185.288H436.88C436.955 186.184 437.232 186.84 437.712 187.256C438.096 187.597 438.598 187.768 439.216 187.768C439.654 187.768 440.032 187.661 440.352 187.448C440.672 187.235 440.886 186.952 440.992 186.6ZM441.136 183.976C441.094 183.197 440.859 182.627 440.432 182.264C440.08 181.955 439.622 181.8 439.056 181.8C438.438 181.8 437.942 182.003 437.568 182.408C437.227 182.771 437.008 183.293 436.912 183.976H441.136ZM446.671 177.48V189H444.751V177.48H446.671Z" fill="white" fill-opacity="0.95"/>
<rect x="466" y="170" width="62" height="28" rx="14" fill="white" fill-opacity="0.95"/>
<path d="M477.409 177.48H479.473V187.32H484.961V189H477.409V177.48ZM488.198 183.032H486.198C486.336 182.168 486.768 181.507 487.494 181.048C488.144 180.643 488.96 180.44 489.942 180.44C491.126 180.44 492.032 180.744 492.662 181.352C493.206 181.875 493.478 182.552 493.478 183.384V189H491.942L491.702 187.976C491.051 188.819 490.128 189.24 488.934 189.24C487.984 189.24 487.248 188.984 486.726 188.472C486.267 188.024 486.038 187.453 486.038 186.76C486.038 185.981 486.32 185.373 486.886 184.936C487.398 184.531 488.192 184.237 489.27 184.056L491.558 183.672V183.272C491.558 182.771 491.392 182.397 491.062 182.152C490.774 181.928 490.379 181.816 489.878 181.816C488.886 181.816 488.326 182.221 488.198 183.032ZM491.558 184.936L489.75 185.256C489.131 185.373 488.688 185.539 488.422 185.752C488.155 185.955 488.022 186.243 488.022 186.616C488.022 187.395 488.496 187.784 489.446 187.784C490.064 187.784 490.587 187.581 491.014 187.176C491.376 186.824 491.558 186.413 491.558 185.944V184.936ZM495.438 177.48H497.358V181.688C498.019 180.856 498.91 180.44 500.03 180.44C501.235 180.44 502.163 180.851 502.814 181.672C503.411 182.419 503.71 183.421 503.71 184.68C503.71 186.216 503.299 187.395 502.478 188.216C501.806 188.899 500.937 189.24 499.87 189.24C498.771 189.24 497.907 188.824 497.278 187.992L496.974 189H495.438V177.48ZM501.742 184.76C501.742 183.757 501.513 183.016 501.054 182.536C500.681 182.152 500.179 181.96 499.55 181.96C498.835 181.96 498.27 182.221 497.854 182.744C497.47 183.245 497.278 183.912 497.278 184.744C497.278 185.789 497.513 186.568 497.982 187.08C498.377 187.507 498.889 187.72 499.518 187.72C500.254 187.72 500.814 187.448 501.198 186.904C501.561 186.392 501.742 185.677 501.742 184.76ZM510.992 186.6H513.008C512.784 187.453 512.32 188.115 511.616 188.584C510.944 189.021 510.118 189.24 509.136 189.24C507.782 189.24 506.726 188.813 505.968 187.96C505.275 187.181 504.928 186.141 504.928 184.84C504.928 183.347 505.36 182.205 506.224 181.416C506.95 180.765 507.894 180.44 509.056 180.44C510.411 180.44 511.435 180.883 512.128 181.768C512.779 182.589 513.104 183.763 513.104 185.288H506.88C506.955 186.184 507.232 186.84 507.712 187.256C508.096 187.597 508.598 187.768 509.216 187.768C509.654 187.768 510.032 187.661 510.352 187.448C510.672 187.235 510.886 186.952 510.992 186.6ZM511.136 183.976C511.094 183.197 510.859 182.627 510.432 182.264C510.08 181.955 509.622 181.8 509.056 181.8C508.438 181.8 507.942 182.003 507.568 182.408C507.227 182.771 507.008 183.293 506.912 183.976H511.136ZM516.671 177.48V189H514.751V177.48H516.671Z" fill="black" fill-opacity="0.95"/>
</g>
</g>
<defs>
<filter id="filter0_dd_1227_9310" x="86" y="28" width="466" height="198" filterUnits="userSpaceOnUse" color-interpolation-filters="sRGB">
<feFlood flood-opacity="0" result="BackgroundImageFix"/>
<feColorMatrix in="SourceAlpha" type="matrix" values="0 0 0 0 0 0 0 0 0 0 0 0 0 0 0 0 0 0 127 0" result="hardAlpha"/>
<feOffset/>
<feGaussianBlur stdDeviation="0.5"/>
<feColorMatrix type="matrix" values="0 0 0 0 0 0 0 0 0 0 0 0 0 0 0 0 0 0 0.16 0"/>
<feBlend mode="normal" in2="BackgroundImageFix" result="effect1_dropShadow_1227_9310"/>
<feColorMatrix in="SourceAlpha" type="matrix" values="0 0 0 0 0 0 0 0 0 0 0 0 0 0 0 0 0 0 127 0" result="hardAlpha"/>
<feOffset dy="4"/>
<feGaussianBlur stdDeviation="4"/>
<feColorMatrix type="matrix" values="0 0 0 0 0 0 0 0 0 0 0 0 0 0 0 0 0 0 0.16 0"/>
<feBlend mode="normal" in2="effect1_dropShadow_1227_9310" result="effect2_dropShadow_1227_9310"/>
<feBlend mode="normal" in="SourceGraphic" in2="effect2_dropShadow_1227_9310" result="shape"/>
</filter>
<filter id="filter1_dd_1227_9310" x="86" y="28" width="466" height="198" filterUnits="userSpaceOnUse" color-interpolation-filters="sRGB">
<feFlood flood-opacity="0" result="BackgroundImageFix"/>
<feColorMatrix in="SourceAlpha" type="matrix" values="0 0 0 0 0 0 0 0 0 0 0 0 0 0 0 0 0 0 127 0" result="hardAlpha"/>
<feOffset/>
<feGaussianBlur stdDeviation="0.5"/>
<feColorMatrix type="matrix" values="0 0 0 0 0 0 0 0 0 0 0 0 0 0 0 0 0 0 0.16 0"/>
<feBlend mode="normal" in2="BackgroundImageFix" result="effect1_dropShadow_1227_9310"/>
<feColorMatrix in="SourceAlpha" type="matrix" values="0 0 0 0 0 0 0 0 0 0 0 0 0 0 0 0 0 0 127 0" result="hardAlpha"/>
<feOffset dy="4"/>
<feGaussianBlur stdDeviation="4"/>
<feColorMatrix type="matrix" values="0 0 0 0 0 0 0 0 0 0 0 0 0 0 0 0 0 0 0.16 0"/>
<feBlend mode="normal" in2="effect1_dropShadow_1227_9310" result="effect2_dropShadow_1227_9310"/>
<feBlend mode="normal" in="SourceGraphic" in2="effect2_dropShadow_1227_9310" result="shape"/>
</filter>
</defs>
</svg>
