<svg width="555" height="335" viewBox="0 0 555 335" fill="none" xmlns="http://www.w3.org/2000/svg">
<rect width="555" height="334.5" rx="32" fill="#262626"/>
<path d="M115.733 123V112.818H116.966V121.906H121.699V123H115.733ZM125.696 123.179C125.212 123.179 124.773 123.088 124.379 122.906C123.984 122.72 123.671 122.453 123.439 122.105C123.207 121.754 123.091 121.33 123.091 120.832C123.091 120.395 123.177 120.04 123.349 119.768C123.522 119.493 123.752 119.278 124.04 119.122C124.329 118.966 124.647 118.85 124.995 118.774C125.346 118.695 125.699 118.632 126.054 118.585C126.518 118.526 126.894 118.481 127.183 118.451C127.474 118.418 127.686 118.363 127.819 118.287C127.955 118.211 128.023 118.078 128.023 117.889V117.849C128.023 117.359 127.888 116.978 127.62 116.706C127.355 116.434 126.952 116.298 126.412 116.298C125.852 116.298 125.413 116.421 125.094 116.666C124.776 116.911 124.553 117.173 124.423 117.452L123.31 117.054C123.509 116.59 123.774 116.229 124.105 115.97C124.44 115.708 124.804 115.526 125.199 115.423C125.597 115.317 125.988 115.264 126.372 115.264C126.617 115.264 126.899 115.294 127.217 115.354C127.539 115.41 127.849 115.528 128.147 115.707C128.449 115.886 128.699 116.156 128.898 116.517C129.097 116.878 129.196 117.362 129.196 117.969V123H128.023V121.966H127.963C127.884 122.132 127.751 122.309 127.565 122.498C127.38 122.687 127.133 122.848 126.825 122.98C126.516 123.113 126.14 123.179 125.696 123.179ZM125.875 122.125C126.339 122.125 126.73 122.034 127.048 121.852C127.37 121.669 127.612 121.434 127.774 121.146C127.94 120.857 128.023 120.554 128.023 120.236V119.162C127.973 119.222 127.864 119.276 127.695 119.326C127.529 119.372 127.337 119.414 127.118 119.45C126.902 119.483 126.692 119.513 126.487 119.54C126.284 119.563 126.12 119.583 125.994 119.599C125.689 119.639 125.404 119.704 125.139 119.793C124.877 119.879 124.665 120.01 124.503 120.186C124.344 120.358 124.264 120.594 124.264 120.892C124.264 121.3 124.415 121.608 124.717 121.817C125.022 122.022 125.408 122.125 125.875 122.125ZM131.497 123V112.818H132.67V116.577H132.769C132.856 116.444 132.975 116.275 133.127 116.07C133.283 115.861 133.505 115.675 133.794 115.513C134.085 115.347 134.48 115.264 134.977 115.264C135.62 115.264 136.186 115.425 136.677 115.746C137.168 116.068 137.55 116.524 137.825 117.114C138.101 117.704 138.238 118.4 138.238 119.202C138.238 120.01 138.101 120.711 137.825 121.305C137.55 121.895 137.169 122.352 136.682 122.677C136.195 122.998 135.633 123.159 134.997 123.159C134.506 123.159 134.113 123.078 133.818 122.915C133.523 122.75 133.296 122.562 133.137 122.354C132.978 122.142 132.856 121.966 132.769 121.827H132.63V123H131.497ZM132.65 119.182C132.65 119.759 132.735 120.267 132.904 120.708C133.073 121.146 133.32 121.489 133.644 121.737C133.969 121.982 134.367 122.105 134.838 122.105C135.328 122.105 135.737 121.976 136.066 121.717C136.397 121.455 136.646 121.104 136.811 120.663C136.98 120.219 137.065 119.725 137.065 119.182C137.065 118.645 136.982 118.161 136.816 117.73C136.654 117.296 136.407 116.953 136.075 116.701C135.747 116.446 135.335 116.318 134.838 116.318C134.36 116.318 133.959 116.439 133.634 116.681C133.31 116.92 133.064 117.254 132.899 117.685C132.733 118.113 132.65 118.612 132.65 119.182ZM143.235 123.159C142.499 123.159 141.864 122.997 141.33 122.672C140.8 122.344 140.391 121.886 140.102 121.3C139.817 120.71 139.675 120.024 139.675 119.241C139.675 118.459 139.817 117.77 140.102 117.173C140.391 116.573 140.792 116.106 141.306 115.771C141.823 115.433 142.426 115.264 143.115 115.264C143.513 115.264 143.906 115.33 144.294 115.463C144.681 115.596 145.034 115.811 145.352 116.109C145.671 116.404 145.924 116.795 146.113 117.283C146.302 117.77 146.396 118.37 146.396 119.082V119.58H140.51V118.565H145.203C145.203 118.134 145.117 117.75 144.945 117.412C144.776 117.074 144.534 116.807 144.219 116.612C143.907 116.416 143.539 116.318 143.115 116.318C142.648 116.318 142.244 116.434 141.902 116.666C141.564 116.895 141.304 117.193 141.122 117.561C140.939 117.929 140.848 118.323 140.848 118.744V119.42C140.848 119.997 140.948 120.486 141.146 120.887C141.349 121.285 141.629 121.588 141.987 121.797C142.345 122.002 142.761 122.105 143.235 122.105C143.543 122.105 143.821 122.062 144.07 121.976C144.322 121.886 144.539 121.754 144.721 121.578C144.903 121.399 145.044 121.177 145.144 120.912L146.277 121.23C146.158 121.615 145.957 121.953 145.676 122.244C145.394 122.533 145.046 122.758 144.632 122.92C144.217 123.08 143.752 123.159 143.235 123.159ZM149.355 112.818V123H148.181V112.818H149.355Z" fill="white" fill-opacity="0.95"/>
<path d="M159.991 118.705C159.991 117.452 160.154 116.3 160.479 115.249C160.807 114.195 161.274 113.226 161.881 112.341H162.915C162.676 112.669 162.452 113.073 162.244 113.554C162.038 114.031 161.857 114.557 161.702 115.13C161.546 115.7 161.423 116.29 161.334 116.9C161.248 117.51 161.205 118.111 161.205 118.705C161.205 119.493 161.281 120.294 161.433 121.106C161.586 121.918 161.791 122.672 162.05 123.368C162.308 124.064 162.597 124.631 162.915 125.068H161.881C161.274 124.183 160.807 123.215 160.479 122.165C160.154 121.111 159.991 119.957 159.991 118.705ZM164.646 123V115.364H165.78V116.517H165.859C165.998 116.139 166.25 115.833 166.615 115.597C166.979 115.362 167.39 115.244 167.848 115.244C167.934 115.244 168.042 115.246 168.171 115.249C168.3 115.253 168.398 115.258 168.464 115.264V116.457C168.425 116.447 168.333 116.433 168.191 116.413C168.052 116.389 167.904 116.378 167.748 116.378C167.377 116.378 167.046 116.456 166.754 116.612C166.466 116.764 166.237 116.976 166.068 117.248C165.902 117.516 165.819 117.823 165.819 118.168V123H164.646ZM172.824 123.159C172.089 123.159 171.454 122.997 170.92 122.672C170.39 122.344 169.981 121.886 169.692 121.3C169.407 120.71 169.265 120.024 169.265 119.241C169.265 118.459 169.407 117.77 169.692 117.173C169.981 116.573 170.382 116.106 170.895 115.771C171.412 115.433 172.016 115.264 172.705 115.264C173.103 115.264 173.496 115.33 173.883 115.463C174.271 115.596 174.624 115.811 174.942 116.109C175.26 116.404 175.514 116.795 175.703 117.283C175.892 117.77 175.986 118.37 175.986 119.082V119.58H170.1V118.565H174.793C174.793 118.134 174.707 117.75 174.535 117.412C174.366 117.074 174.124 116.807 173.809 116.612C173.497 116.416 173.129 116.318 172.705 116.318C172.238 116.318 171.833 116.434 171.492 116.666C171.154 116.895 170.894 117.193 170.711 117.561C170.529 117.929 170.438 118.323 170.438 118.744V119.42C170.438 119.997 170.537 120.486 170.736 120.887C170.939 121.285 171.219 121.588 171.577 121.797C171.934 122.002 172.35 122.105 172.824 122.105C173.133 122.105 173.411 122.062 173.66 121.976C173.912 121.886 174.129 121.754 174.311 121.578C174.493 121.399 174.634 121.177 174.733 120.912L175.867 121.23C175.748 121.615 175.547 121.953 175.265 122.244C174.984 122.533 174.636 122.758 174.221 122.92C173.807 123.08 173.341 123.159 172.824 123.159ZM184.155 125.864H182.981V121.827H182.882C182.796 121.966 182.673 122.142 182.514 122.354C182.355 122.562 182.128 122.75 181.833 122.915C181.538 123.078 181.145 123.159 180.655 123.159C180.018 123.159 179.456 122.998 178.969 122.677C178.482 122.352 178.101 121.895 177.826 121.305C177.551 120.711 177.413 120.01 177.413 119.202C177.413 118.4 177.551 117.704 177.826 117.114C178.101 116.524 178.484 116.068 178.974 115.746C179.465 115.425 180.032 115.264 180.675 115.264C181.172 115.264 181.564 115.347 181.853 115.513C182.144 115.675 182.367 115.861 182.519 116.07C182.675 116.275 182.796 116.444 182.882 116.577H183.021V115.364H184.155V125.864ZM183.001 119.182C183.001 118.612 182.918 118.113 182.753 117.685C182.587 117.254 182.342 116.92 182.017 116.681C181.692 116.439 181.291 116.318 180.814 116.318C180.317 116.318 179.902 116.446 179.571 116.701C179.243 116.953 178.996 117.296 178.83 117.73C178.668 118.161 178.586 118.645 178.586 119.182C178.586 119.725 178.669 120.219 178.835 120.663C179.004 121.104 179.253 121.455 179.581 121.717C179.912 121.976 180.323 122.105 180.814 122.105C181.284 122.105 181.682 121.982 182.007 121.737C182.332 121.489 182.579 121.146 182.748 120.708C182.917 120.267 183.001 119.759 183.001 119.182ZM191.115 119.878V115.364H192.288V123H191.115V121.707H191.035C190.856 122.095 190.578 122.425 190.2 122.697C189.822 122.965 189.345 123.099 188.768 123.099C188.291 123.099 187.867 122.995 187.496 122.786C187.124 122.574 186.833 122.256 186.621 121.832C186.408 121.404 186.302 120.866 186.302 120.216V115.364H187.476V120.136C187.476 120.693 187.631 121.137 187.943 121.469C188.258 121.8 188.659 121.966 189.146 121.966C189.438 121.966 189.734 121.891 190.036 121.742C190.341 121.593 190.596 121.364 190.802 121.056C191.01 120.748 191.115 120.355 191.115 119.878ZM194.437 123V115.364H195.61V123H194.437ZM195.034 114.091C194.805 114.091 194.608 114.013 194.442 113.857C194.28 113.701 194.199 113.514 194.199 113.295C194.199 113.077 194.28 112.889 194.442 112.734C194.608 112.578 194.805 112.5 195.034 112.5C195.262 112.5 195.458 112.578 195.62 112.734C195.786 112.889 195.869 113.077 195.869 113.295C195.869 113.514 195.786 113.701 195.62 113.857C195.458 114.013 195.262 114.091 195.034 114.091ZM197.759 123V115.364H198.893V116.517H198.972C199.112 116.139 199.364 115.833 199.728 115.597C200.093 115.362 200.504 115.244 200.961 115.244C201.047 115.244 201.155 115.246 201.284 115.249C201.414 115.253 201.511 115.258 201.578 115.264V116.457C201.538 116.447 201.447 116.433 201.304 116.413C201.165 116.389 201.017 116.378 200.862 116.378C200.49 116.378 200.159 116.456 199.867 116.612C199.579 116.764 199.35 116.976 199.181 117.248C199.016 117.516 198.933 117.823 198.933 118.168V123H197.759ZM205.938 123.159C205.202 123.159 204.567 122.997 204.034 122.672C203.503 122.344 203.094 121.886 202.806 121.3C202.521 120.71 202.378 120.024 202.378 119.241C202.378 118.459 202.521 117.77 202.806 117.173C203.094 116.573 203.495 116.106 204.009 115.771C204.526 115.433 205.129 115.264 205.818 115.264C206.216 115.264 206.609 115.33 206.997 115.463C207.384 115.596 207.737 115.811 208.056 116.109C208.374 116.404 208.627 116.795 208.816 117.283C209.005 117.77 209.1 118.37 209.1 119.082V119.58H203.213V118.565H207.906C207.906 118.134 207.82 117.75 207.648 117.412C207.479 117.074 207.237 116.807 206.922 116.612C206.61 116.416 206.243 116.318 205.818 116.318C205.351 116.318 204.947 116.434 204.605 116.666C204.267 116.895 204.007 117.193 203.825 117.561C203.642 117.929 203.551 118.323 203.551 118.744V119.42C203.551 119.997 203.651 120.486 203.85 120.887C204.052 121.285 204.332 121.588 204.69 121.797C205.048 122.002 205.464 122.105 205.938 122.105C206.246 122.105 206.524 122.062 206.773 121.976C207.025 121.886 207.242 121.754 207.424 121.578C207.606 121.399 207.747 121.177 207.847 120.912L208.98 121.23C208.861 121.615 208.66 121.953 208.379 122.244C208.097 122.533 207.749 122.758 207.335 122.92C206.92 123.08 206.455 123.159 205.938 123.159ZM213.768 123.159C213.132 123.159 212.57 122.998 212.083 122.677C211.595 122.352 211.214 121.895 210.939 121.305C210.664 120.711 210.526 120.01 210.526 119.202C210.526 118.4 210.664 117.704 210.939 117.114C211.214 116.524 211.597 116.068 212.088 115.746C212.578 115.425 213.145 115.264 213.788 115.264C214.285 115.264 214.678 115.347 214.966 115.513C215.258 115.675 215.48 115.861 215.632 116.07C215.788 116.275 215.909 116.444 215.995 116.577H216.095V112.818H217.268V123H216.134V121.827H215.995C215.909 121.966 215.786 122.142 215.627 122.354C215.468 122.562 215.241 122.75 214.946 122.915C214.651 123.078 214.258 123.159 213.768 123.159ZM213.927 122.105C214.398 122.105 214.795 121.982 215.12 121.737C215.445 121.489 215.692 121.146 215.861 120.708C216.03 120.267 216.115 119.759 216.115 119.182C216.115 118.612 216.032 118.113 215.866 117.685C215.7 117.254 215.455 116.92 215.13 116.681C214.805 116.439 214.404 116.318 213.927 116.318C213.43 116.318 213.016 116.446 212.684 116.701C212.356 116.953 212.109 117.296 211.943 117.73C211.781 118.161 211.7 118.645 211.7 119.182C211.7 119.725 211.783 120.219 211.948 120.663C212.117 121.104 212.366 121.455 212.694 121.717C213.026 121.976 213.436 122.105 213.927 122.105ZM222.085 118.705C222.085 119.957 221.921 121.111 221.593 122.165C221.268 123.215 220.803 124.183 220.196 125.068H219.162C219.401 124.74 219.623 124.336 219.828 123.855C220.037 123.378 220.219 122.854 220.375 122.284C220.531 121.711 220.652 121.119 220.738 120.509C220.828 119.896 220.872 119.295 220.872 118.705C220.872 117.916 220.796 117.115 220.644 116.303C220.491 115.491 220.286 114.737 220.027 114.041C219.769 113.345 219.48 112.778 219.162 112.341H220.196C220.803 113.226 221.268 114.195 221.593 115.249C221.921 116.3 222.085 117.452 222.085 118.705Z" fill="white" fill-opacity="0.95"/>
<path d="M242.5 124.75C246.228 124.75 249.25 121.728 249.25 118C249.25 114.272 246.228 111.25 242.5 111.25C238.772 111.25 235.75 114.272 235.75 118C235.75 121.728 238.772 124.75 242.5 124.75ZM240.786 113.714C240.786 112.925 241.425 112.286 242.214 112.286C243.003 112.286 243.643 112.925 243.643 113.714C243.643 114.503 243.003 115.143 242.214 115.143C241.425 115.143 240.786 114.503 240.786 113.714ZM241.357 118C240.726 118 240.214 117.488 240.214 116.857C240.214 116.226 240.726 115.714 241.357 115.714H242.5C243.131 115.714 243.643 116.226 243.643 116.857V120.857H244.786C245.417 120.857 245.929 121.369 245.929 122C245.929 122.631 245.417 123.143 244.786 123.143H240.214C239.583 123.143 239.071 122.631 239.071 122C239.071 121.369 239.583 120.857 240.214 120.857H241.357V118Z" fill="white" fill-opacity="0.95"/>
<rect x="115" y="136.5" width="399" height="31" rx="7.5" stroke="white" stroke-opacity="0.5"/>
<path d="M133.301 149.364C133.241 148.86 133 148.469 132.575 148.19C132.151 147.912 131.631 147.773 131.014 147.773C130.563 147.773 130.169 147.846 129.831 147.991C129.496 148.137 129.234 148.338 129.045 148.593C128.86 148.848 128.767 149.138 128.767 149.463C128.767 149.735 128.832 149.969 128.961 150.164C129.094 150.356 129.263 150.517 129.468 150.646C129.674 150.772 129.889 150.877 130.114 150.96C130.34 151.039 130.547 151.104 130.736 151.153L131.77 151.432C132.035 151.501 132.33 151.598 132.655 151.72C132.983 151.843 133.296 152.01 133.594 152.222C133.896 152.431 134.145 152.7 134.34 153.028C134.536 153.356 134.634 153.759 134.634 154.236C134.634 154.786 134.489 155.283 134.201 155.727C133.916 156.171 133.498 156.524 132.948 156.786C132.401 157.048 131.737 157.179 130.955 157.179C130.225 157.179 129.594 157.061 129.06 156.826C128.53 156.591 128.112 156.263 127.808 155.842C127.506 155.421 127.335 154.932 127.295 154.375H128.568C128.601 154.759 128.731 155.078 128.956 155.33C129.185 155.578 129.473 155.764 129.821 155.886C130.172 156.006 130.55 156.065 130.955 156.065C131.425 156.065 131.848 155.989 132.222 155.837C132.597 155.681 132.893 155.465 133.112 155.19C133.331 154.912 133.44 154.587 133.44 154.216C133.44 153.878 133.346 153.603 133.157 153.391C132.968 153.179 132.719 153.006 132.411 152.874C132.103 152.741 131.77 152.625 131.412 152.526L130.159 152.168C129.364 151.939 128.734 151.612 128.27 151.188C127.806 150.764 127.574 150.209 127.574 149.523C127.574 148.953 127.728 148.455 128.036 148.031C128.348 147.604 128.765 147.272 129.289 147.037C129.816 146.798 130.404 146.679 131.054 146.679C131.71 146.679 132.294 146.797 132.804 147.032C133.314 147.264 133.719 147.582 134.017 147.987C134.319 148.391 134.478 148.85 134.494 149.364H133.301ZM139.703 157.159C138.968 157.159 138.333 156.997 137.799 156.672C137.269 156.344 136.86 155.886 136.571 155.3C136.286 154.71 136.144 154.024 136.144 153.241C136.144 152.459 136.286 151.77 136.571 151.173C136.86 150.573 137.261 150.106 137.774 149.771C138.291 149.433 138.895 149.264 139.584 149.264C139.982 149.264 140.374 149.33 140.762 149.463C141.15 149.596 141.503 149.811 141.821 150.109C142.139 150.404 142.393 150.795 142.582 151.283C142.771 151.77 142.865 152.37 142.865 153.082V153.58H136.979V152.565H141.672C141.672 152.134 141.586 151.75 141.414 151.412C141.244 151.074 141.003 150.807 140.688 150.612C140.376 150.416 140.008 150.318 139.584 150.318C139.117 150.318 138.712 150.434 138.371 150.666C138.033 150.895 137.773 151.193 137.59 151.561C137.408 151.929 137.317 152.323 137.317 152.744V153.42C137.317 153.997 137.416 154.486 137.615 154.887C137.817 155.285 138.097 155.588 138.455 155.797C138.813 156.002 139.229 156.105 139.703 156.105C140.012 156.105 140.29 156.062 140.539 155.976C140.79 155.886 141.008 155.754 141.19 155.578C141.372 155.399 141.513 155.177 141.612 154.912L142.746 155.23C142.627 155.615 142.426 155.953 142.144 156.244C141.863 156.533 141.515 156.758 141.1 156.92C140.686 157.08 140.22 157.159 139.703 157.159ZM145.823 146.818V157H144.65V146.818H145.823ZM151.174 157.159C150.438 157.159 149.804 156.997 149.27 156.672C148.74 156.344 148.33 155.886 148.042 155.3C147.757 154.71 147.614 154.024 147.614 153.241C147.614 152.459 147.757 151.77 148.042 151.173C148.33 150.573 148.731 150.106 149.245 149.771C149.762 149.433 150.365 149.264 151.055 149.264C151.452 149.264 151.845 149.33 152.233 149.463C152.621 149.596 152.974 149.811 153.292 150.109C153.61 150.404 153.864 150.795 154.053 151.283C154.241 151.77 154.336 152.37 154.336 153.082V153.58H148.45V152.565H153.143C153.143 152.134 153.057 151.75 152.884 151.412C152.715 151.074 152.473 150.807 152.158 150.612C151.847 150.416 151.479 150.318 151.055 150.318C150.587 150.318 150.183 150.434 149.842 150.666C149.504 150.895 149.243 151.193 149.061 151.561C148.879 151.929 148.788 152.323 148.788 152.744V153.42C148.788 153.997 148.887 154.486 149.086 154.887C149.288 155.285 149.568 155.588 149.926 155.797C150.284 156.002 150.7 156.105 151.174 156.105C151.482 156.105 151.761 156.062 152.009 155.976C152.261 155.886 152.478 155.754 152.661 155.578C152.843 155.399 152.984 155.177 153.083 154.912L154.217 155.23C154.097 155.615 153.897 155.953 153.615 156.244C153.333 156.533 152.985 156.758 152.571 156.92C152.157 157.08 151.691 157.159 151.174 157.159ZM159.223 157.159C158.507 157.159 157.891 156.99 157.374 156.652C156.857 156.314 156.459 155.848 156.18 155.255C155.902 154.662 155.763 153.984 155.763 153.222C155.763 152.446 155.905 151.762 156.19 151.168C156.479 150.572 156.88 150.106 157.393 149.771C157.911 149.433 158.514 149.264 159.203 149.264C159.74 149.264 160.224 149.364 160.655 149.562C161.086 149.761 161.439 150.04 161.714 150.398C161.989 150.756 162.16 151.173 162.226 151.651H161.053C160.963 151.303 160.764 150.994 160.456 150.726C160.151 150.454 159.74 150.318 159.223 150.318C158.766 150.318 158.365 150.437 158.02 150.676C157.679 150.911 157.412 151.245 157.219 151.675C157.031 152.103 156.936 152.605 156.936 153.182C156.936 153.772 157.029 154.286 157.214 154.723C157.403 155.161 157.669 155.5 158.01 155.742C158.355 155.984 158.759 156.105 159.223 156.105C159.528 156.105 159.805 156.052 160.053 155.946C160.302 155.84 160.512 155.688 160.685 155.489C160.857 155.29 160.98 155.051 161.053 154.773H162.226C162.16 155.223 161.996 155.629 161.734 155.991C161.475 156.349 161.132 156.634 160.705 156.846C160.28 157.055 159.786 157.159 159.223 157.159ZM167.262 149.364V150.358H163.305V149.364H167.262ZM164.458 147.534H165.631V154.812C165.631 155.144 165.679 155.393 165.776 155.558C165.875 155.721 166.001 155.83 166.153 155.886C166.309 155.939 166.473 155.966 166.646 155.966C166.775 155.966 166.881 155.959 166.964 155.946C167.047 155.929 167.113 155.916 167.163 155.906L167.401 156.96C167.322 156.99 167.211 157.02 167.068 157.05C166.926 157.083 166.745 157.099 166.526 157.099C166.195 157.099 165.87 157.028 165.552 156.886C165.237 156.743 164.975 156.526 164.766 156.234C164.561 155.943 164.458 155.575 164.458 155.131V147.534ZM172.147 157.159C171.411 157.159 170.776 156.997 170.243 156.672C169.712 156.344 169.303 155.886 169.015 155.3C168.73 154.71 168.587 154.024 168.587 153.241C168.587 152.459 168.73 151.77 169.015 151.173C169.303 150.573 169.704 150.106 170.218 149.771C170.735 149.433 171.338 149.264 172.027 149.264C172.425 149.264 172.818 149.33 173.206 149.463C173.593 149.596 173.946 149.811 174.265 150.109C174.583 150.404 174.836 150.795 175.025 151.283C175.214 151.77 175.309 152.37 175.309 153.082V153.58H169.422V152.565H174.115C174.115 152.134 174.029 151.75 173.857 151.412C173.688 151.074 173.446 150.807 173.131 150.612C172.819 150.416 172.452 150.318 172.027 150.318C171.56 150.318 171.156 150.434 170.814 150.666C170.476 150.895 170.216 151.193 170.034 151.561C169.851 151.929 169.76 152.323 169.76 152.744V153.42C169.76 153.997 169.86 154.486 170.059 154.887C170.261 155.285 170.541 155.588 170.899 155.797C171.257 156.002 171.673 156.105 172.147 156.105C172.455 156.105 172.733 156.062 172.982 155.976C173.234 155.886 173.451 155.754 173.633 155.578C173.815 155.399 173.956 155.177 174.056 154.912L175.189 155.23C175.07 155.615 174.869 155.953 174.588 156.244C174.306 156.533 173.958 156.758 173.544 156.92C173.129 157.08 172.664 157.159 172.147 157.159ZM179.977 157.159C179.341 157.159 178.779 156.998 178.292 156.677C177.804 156.352 177.423 155.895 177.148 155.305C176.873 154.711 176.735 154.01 176.735 153.202C176.735 152.4 176.873 151.704 177.148 151.114C177.423 150.524 177.806 150.068 178.297 149.746C178.787 149.425 179.354 149.264 179.997 149.264C180.494 149.264 180.887 149.347 181.175 149.513C181.467 149.675 181.689 149.861 181.841 150.07C181.997 150.275 182.118 150.444 182.204 150.577H182.304V146.818H183.477V157H182.343V155.827H182.204C182.118 155.966 181.995 156.142 181.836 156.354C181.677 156.562 181.45 156.75 181.155 156.915C180.86 157.078 180.467 157.159 179.977 157.159ZM180.136 156.105C180.607 156.105 181.004 155.982 181.329 155.737C181.654 155.489 181.901 155.146 182.07 154.708C182.239 154.267 182.324 153.759 182.324 153.182C182.324 152.612 182.241 152.113 182.075 151.685C181.909 151.254 181.664 150.92 181.339 150.681C181.014 150.439 180.613 150.318 180.136 150.318C179.639 150.318 179.225 150.446 178.893 150.701C178.565 150.953 178.318 151.296 178.152 151.73C177.99 152.161 177.909 152.645 177.909 153.182C177.909 153.725 177.992 154.219 178.157 154.663C178.326 155.104 178.575 155.455 178.903 155.717C179.234 155.976 179.645 156.105 180.136 156.105ZM193.047 149.364V150.358H189.09V149.364H193.047ZM190.243 147.534H191.417V154.812C191.417 155.144 191.465 155.393 191.561 155.558C191.66 155.721 191.786 155.83 191.939 155.886C192.094 155.939 192.258 155.966 192.431 155.966C192.56 155.966 192.666 155.959 192.749 155.946C192.832 155.929 192.898 155.916 192.948 155.906L193.186 156.96C193.107 156.99 192.996 157.02 192.853 157.05C192.711 157.083 192.53 157.099 192.311 157.099C191.98 157.099 191.655 157.028 191.337 156.886C191.022 156.743 190.76 156.526 190.551 156.234C190.346 155.943 190.243 155.575 190.243 155.131V147.534ZM197.932 157.159C197.196 157.159 196.561 156.997 196.028 156.672C195.497 156.344 195.088 155.886 194.8 155.3C194.515 154.71 194.372 154.024 194.372 153.241C194.372 152.459 194.515 151.77 194.8 151.173C195.088 150.573 195.489 150.106 196.003 149.771C196.52 149.433 197.123 149.264 197.812 149.264C198.21 149.264 198.603 149.33 198.991 149.463C199.379 149.596 199.732 149.811 200.05 150.109C200.368 150.404 200.621 150.795 200.81 151.283C200.999 151.77 201.094 152.37 201.094 153.082V153.58H195.207V152.565H199.901C199.901 152.134 199.814 151.75 199.642 151.412C199.473 151.074 199.231 150.807 198.916 150.612C198.605 150.416 198.237 150.318 197.812 150.318C197.345 150.318 196.941 150.434 196.599 150.666C196.261 150.895 196.001 151.193 195.819 151.561C195.637 151.929 195.545 152.323 195.545 152.744V153.42C195.545 153.997 195.645 154.486 195.844 154.887C196.046 155.285 196.326 155.588 196.684 155.797C197.042 156.002 197.458 156.105 197.932 156.105C198.24 156.105 198.518 156.062 198.767 155.976C199.019 155.886 199.236 155.754 199.418 155.578C199.601 155.399 199.741 155.177 199.841 154.912L200.974 155.23C200.855 155.615 200.655 155.953 200.373 156.244C200.091 156.533 199.743 156.758 199.329 156.92C198.915 157.08 198.449 157.159 197.932 157.159ZM203.548 149.364L205.378 152.486L207.208 149.364H208.56L206.094 153.182L208.56 157H207.208L205.378 154.037L203.548 157H202.196L204.622 153.182L202.196 149.364H203.548ZM213.555 149.364V150.358H209.598V149.364H213.555ZM210.751 147.534H211.924V154.812C211.924 155.144 211.972 155.393 212.069 155.558C212.168 155.721 212.294 155.83 212.446 155.886C212.602 155.939 212.766 155.966 212.939 155.966C213.068 155.966 213.174 155.959 213.257 155.946C213.34 155.929 213.406 155.916 213.456 155.906L213.694 156.96C213.615 156.99 213.504 157.02 213.361 157.05C213.219 157.083 213.038 157.099 212.819 157.099C212.488 157.099 212.163 157.028 211.845 156.886C211.53 156.743 211.268 156.526 211.059 156.234C210.854 155.943 210.751 155.575 210.751 155.131V147.534Z" fill="white" fill-opacity="0.95"/>
<path d="M504.854 148.647C504.76 148.553 504.633 148.5 504.5 148.5C504.368 148.5 504.24 148.553 504.147 148.647L498.5 154.293L492.853 148.647C492.759 148.555 492.633 148.505 492.502 148.506C492.37 148.507 492.245 148.559 492.152 148.652C492.059 148.745 492.006 148.87 492.005 149.002C492.004 149.133 492.055 149.259 492.146 149.354L498.146 155.354C498.24 155.447 498.367 155.5 498.5 155.5C498.633 155.5 498.76 155.447 498.853 155.354L504.853 149.354C504.947 149.26 505 149.133 505 149C505 148.868 504.947 148.74 504.854 148.647Z" fill="white" fill-opacity="0.95"/>
<path d="M115.733 191V180.818H116.966V185.352H122.395V180.818H123.628V191H122.395V186.446H116.966V191H115.733ZM129.139 191.159C128.403 191.159 127.768 190.997 127.235 190.672C126.704 190.344 126.295 189.886 126.007 189.3C125.722 188.71 125.579 188.024 125.579 187.241C125.579 186.459 125.722 185.77 126.007 185.173C126.295 184.573 126.696 184.106 127.21 183.771C127.727 183.433 128.33 183.264 129.02 183.264C129.417 183.264 129.81 183.33 130.198 183.463C130.586 183.596 130.939 183.811 131.257 184.109C131.575 184.404 131.828 184.795 132.017 185.283C132.206 185.77 132.301 186.37 132.301 187.082V187.58H126.414V186.565H131.108C131.108 186.134 131.021 185.75 130.849 185.412C130.68 185.074 130.438 184.807 130.123 184.612C129.812 184.416 129.444 184.318 129.02 184.318C128.552 184.318 128.148 184.434 127.806 184.666C127.468 184.895 127.208 185.193 127.026 185.561C126.844 185.929 126.752 186.323 126.752 186.744V187.42C126.752 187.997 126.852 188.486 127.051 188.887C127.253 189.285 127.533 189.588 127.891 189.797C128.249 190.002 128.665 190.105 129.139 190.105C129.447 190.105 129.725 190.062 129.974 189.976C130.226 189.886 130.443 189.754 130.625 189.578C130.808 189.399 130.949 189.177 131.048 188.912L132.181 189.23C132.062 189.615 131.862 189.953 131.58 190.244C131.298 190.533 130.95 190.758 130.536 190.92C130.122 191.08 129.656 191.159 129.139 191.159ZM135.259 180.818V191H134.086V180.818H135.259ZM137.408 193.864V183.364H138.541V184.577H138.681C138.767 184.444 138.886 184.275 139.039 184.07C139.194 183.861 139.416 183.675 139.705 183.513C139.996 183.347 140.391 183.264 140.888 183.264C141.531 183.264 142.098 183.425 142.588 183.746C143.079 184.068 143.462 184.524 143.737 185.114C144.012 185.704 144.149 186.4 144.149 187.202C144.149 188.01 144.012 188.711 143.737 189.305C143.462 189.895 143.08 190.352 142.593 190.677C142.106 190.998 141.544 191.159 140.908 191.159C140.417 191.159 140.025 191.078 139.73 190.915C139.435 190.75 139.208 190.562 139.048 190.354C138.889 190.142 138.767 189.966 138.681 189.827H138.581V193.864H137.408ZM138.561 187.182C138.561 187.759 138.646 188.267 138.815 188.708C138.984 189.146 139.231 189.489 139.556 189.737C139.88 189.982 140.278 190.105 140.749 190.105C141.239 190.105 141.649 189.976 141.977 189.717C142.308 189.455 142.557 189.104 142.722 188.663C142.892 188.219 142.976 187.725 142.976 187.182C142.976 186.645 142.893 186.161 142.727 185.73C142.565 185.296 142.318 184.953 141.987 184.701C141.659 184.446 141.246 184.318 140.749 184.318C140.271 184.318 139.87 184.439 139.546 184.681C139.221 184.92 138.976 185.254 138.81 185.685C138.644 186.113 138.561 186.612 138.561 187.182ZM149.141 191.159C148.405 191.159 147.77 190.997 147.237 190.672C146.706 190.344 146.297 189.886 146.009 189.3C145.724 188.71 145.581 188.024 145.581 187.241C145.581 186.459 145.724 185.77 146.009 185.173C146.297 184.573 146.698 184.106 147.212 183.771C147.729 183.433 148.332 183.264 149.021 183.264C149.419 183.264 149.812 183.33 150.2 183.463C150.588 183.596 150.941 183.811 151.259 184.109C151.577 184.404 151.83 184.795 152.019 185.283C152.208 185.77 152.303 186.37 152.303 187.082V187.58H146.416V186.565H151.11C151.11 186.134 151.023 185.75 150.851 185.412C150.682 185.074 150.44 184.807 150.125 184.612C149.814 184.416 149.446 184.318 149.021 184.318C148.554 184.318 148.15 184.434 147.808 184.666C147.47 184.895 147.21 185.193 147.028 185.561C146.846 185.929 146.754 186.323 146.754 186.744V187.42C146.754 187.997 146.854 188.486 147.053 188.887C147.255 189.285 147.535 189.588 147.893 189.797C148.251 190.002 148.667 190.105 149.141 190.105C149.449 190.105 149.727 190.062 149.976 189.976C150.228 189.886 150.445 189.754 150.627 189.578C150.81 189.399 150.95 189.177 151.05 188.912L152.183 189.23C152.064 189.615 151.864 189.953 151.582 190.244C151.3 190.533 150.952 190.758 150.538 190.92C150.124 191.08 149.658 191.159 149.141 191.159ZM154.088 191V183.364H155.221V184.517H155.301C155.44 184.139 155.692 183.833 156.056 183.597C156.421 183.362 156.832 183.244 157.289 183.244C157.375 183.244 157.483 183.246 157.612 183.249C157.742 183.253 157.839 183.258 157.906 183.264V184.457C157.866 184.447 157.775 184.433 157.632 184.413C157.493 184.389 157.346 184.378 157.19 184.378C156.819 184.378 156.487 184.456 156.195 184.612C155.907 184.764 155.678 184.976 155.509 185.248C155.344 185.516 155.261 185.823 155.261 186.168V191H154.088ZM166.555 183.364V184.358H162.598V183.364H166.555ZM163.751 181.534H164.924V188.812C164.924 189.144 164.972 189.393 165.069 189.558C165.168 189.721 165.294 189.83 165.446 189.886C165.602 189.939 165.766 189.966 165.939 189.966C166.068 189.966 166.174 189.959 166.257 189.946C166.34 189.929 166.406 189.916 166.456 189.906L166.694 190.96C166.615 190.99 166.504 191.02 166.361 191.05C166.219 191.083 166.038 191.099 165.819 191.099C165.488 191.099 165.163 191.028 164.845 190.886C164.53 190.743 164.268 190.526 164.059 190.234C163.854 189.943 163.751 189.575 163.751 189.131V181.534ZM171.44 191.159C170.704 191.159 170.069 190.997 169.536 190.672C169.005 190.344 168.596 189.886 168.308 189.3C168.022 188.71 167.88 188.024 167.88 187.241C167.88 186.459 168.022 185.77 168.308 185.173C168.596 184.573 168.997 184.106 169.511 183.771C170.028 183.433 170.631 183.264 171.32 183.264C171.718 183.264 172.111 183.33 172.499 183.463C172.886 183.596 173.239 183.811 173.558 184.109C173.876 184.404 174.129 184.795 174.318 185.283C174.507 185.77 174.602 186.37 174.602 187.082V187.58H168.715V186.565H173.408C173.408 186.134 173.322 185.75 173.15 185.412C172.981 185.074 172.739 184.807 172.424 184.612C172.112 184.416 171.745 184.318 171.32 184.318C170.853 184.318 170.449 184.434 170.107 184.666C169.769 184.895 169.509 185.193 169.327 185.561C169.144 185.929 169.053 186.323 169.053 186.744V187.42C169.053 187.997 169.153 188.486 169.352 188.887C169.554 189.285 169.834 189.588 170.192 189.797C170.55 190.002 170.966 190.105 171.44 190.105C171.748 190.105 172.026 190.062 172.275 189.976C172.527 189.886 172.744 189.754 172.926 189.578C173.108 189.399 173.249 189.177 173.349 188.912L174.482 189.23C174.363 189.615 174.162 189.953 173.881 190.244C173.599 190.533 173.251 190.758 172.837 190.92C172.422 191.08 171.957 191.159 171.44 191.159ZM177.056 183.364L178.886 186.486L180.715 183.364H182.068L179.602 187.182L182.068 191H180.715L178.886 188.037L177.056 191H175.704L178.13 187.182L175.704 183.364H177.056ZM187.063 183.364V184.358H183.105V183.364H187.063ZM184.259 181.534H185.432V188.812C185.432 189.144 185.48 189.393 185.576 189.558C185.676 189.721 185.802 189.83 185.954 189.886C186.11 189.939 186.274 189.966 186.446 189.966C186.576 189.966 186.682 189.959 186.765 189.946C186.847 189.929 186.914 189.916 186.963 189.906L187.202 190.96C187.123 190.99 187.011 191.02 186.869 191.05C186.726 191.083 186.546 191.099 186.327 191.099C185.996 191.099 185.671 191.028 185.353 190.886C185.038 190.743 184.776 190.526 184.567 190.234C184.362 189.943 184.259 189.575 184.259 189.131V181.534Z" fill="white" fill-opacity="0.7"/>
<path d="M67.5 153.5H123.5" stroke="#DA0087"/>
<rect x="40.5" y="139.5" width="35" height="28" rx="14" fill="#DA0087"/>
<path d="M53.4318 157.114V155.955L58.5455 147.864H59.3864V149.659H58.8182L54.9545 155.773V155.864H61.8409V157.114H53.4318ZM58.9091 159.5V156.761V156.222V147.864H60.25V159.5H58.9091Z" fill="white"/>
<path d="M150.834 254.5V196.5" stroke="#DA0087"/>
<rect x="133.834" y="246.5" width="34" height="28" rx="14" fill="#DA0087"/>
<path d="M150.675 266.659C150.008 266.659 149.408 266.527 148.874 266.261C148.34 265.996 147.912 265.633 147.59 265.17C147.268 264.708 147.092 264.182 147.061 263.591H148.425C148.478 264.117 148.717 264.553 149.141 264.898C149.569 265.239 150.08 265.409 150.675 265.409C151.152 265.409 151.576 265.297 151.948 265.074C152.323 264.85 152.616 264.544 152.828 264.153C153.044 263.759 153.152 263.314 153.152 262.818C153.152 262.311 153.04 261.858 152.817 261.46C152.597 261.059 152.294 260.742 151.908 260.511C151.521 260.28 151.08 260.163 150.584 260.159C150.228 260.155 149.862 260.21 149.487 260.324C149.112 260.434 148.804 260.576 148.561 260.75L147.243 260.591L147.948 254.864H153.993V256.114H149.129L148.72 259.545H148.789C149.027 259.356 149.326 259.199 149.686 259.074C150.046 258.949 150.421 258.886 150.811 258.886C151.523 258.886 152.158 259.057 152.715 259.398C153.275 259.735 153.715 260.197 154.033 260.784C154.355 261.371 154.516 262.042 154.516 262.795C154.516 263.538 154.349 264.201 154.016 264.784C153.686 265.364 153.232 265.822 152.652 266.159C152.073 266.492 151.414 266.659 150.675 266.659Z" fill="white"/>
<path d="M187.5 80V107" stroke="#DA0087"/>
<rect x="170.5" y="60" width="34" height="28" rx="14" fill="#DA0087"/>
<path d="M183.705 80V78.9773L187.545 74.7727C187.996 74.2803 188.367 73.8523 188.659 73.4886C188.951 73.1212 189.167 72.7765 189.307 72.4545C189.451 72.1288 189.523 71.7879 189.523 71.4318C189.523 71.0227 189.424 70.6686 189.227 70.3693C189.034 70.0701 188.769 69.839 188.432 69.6761C188.095 69.5133 187.716 69.4318 187.295 69.4318C186.848 69.4318 186.458 69.5246 186.125 69.7102C185.795 69.892 185.54 70.1477 185.358 70.4773C185.18 70.8068 185.091 71.1932 185.091 71.6364H183.75C183.75 70.9545 183.907 70.3561 184.222 69.8409C184.536 69.3258 184.964 68.9242 185.506 68.6364C186.051 68.3485 186.663 68.2045 187.341 68.2045C188.023 68.2045 188.627 68.3485 189.153 68.6364C189.68 68.9242 190.093 69.3125 190.392 69.8011C190.691 70.2898 190.841 70.8333 190.841 71.4318C190.841 71.8598 190.763 72.2784 190.608 72.6875C190.456 73.0928 190.191 73.5455 189.812 74.0455C189.438 74.5417 188.917 75.1477 188.25 75.8636L185.636 78.6591V78.75H191.045V80H183.705Z" fill="white"/>
<path d="M136.5 80V107" stroke="#DA0087"/>
<rect x="120.5" y="60" width="32" height="28" rx="14" fill="#DA0087"/>
<path d="M137.795 68.3636V80H136.386V69.8409H136.318L133.477 71.7273V70.2955L136.386 68.3636H137.795Z" fill="white"/>
<path d="M239 80V107" stroke="#DA0087"/>
<rect x="221.5" y="60" width="35" height="28" rx="14" fill="#DA0087"/>
<path d="M238.636 80.1591C237.886 80.1591 237.218 80.0303 236.631 79.7727C236.047 79.5152 235.583 79.1572 235.239 78.6989C234.898 78.2367 234.712 77.7008 234.682 77.0909H236.114C236.144 77.4659 236.273 77.7898 236.5 78.0625C236.727 78.3314 237.025 78.5398 237.392 78.6875C237.759 78.8352 238.167 78.9091 238.614 78.9091C239.114 78.9091 239.557 78.822 239.943 78.6477C240.33 78.4735 240.633 78.2311 240.852 77.9205C241.072 77.6098 241.182 77.25 241.182 76.8409C241.182 76.4129 241.076 76.036 240.864 75.7102C240.652 75.3807 240.341 75.1231 239.932 74.9375C239.523 74.7519 239.023 74.6591 238.432 74.6591H237.5V73.4091H238.432C238.894 73.4091 239.299 73.3258 239.648 73.1591C240 72.9924 240.275 72.7576 240.472 72.4545C240.672 72.1515 240.773 71.7955 240.773 71.3864C240.773 70.9924 240.686 70.6496 240.511 70.358C240.337 70.0663 240.091 69.839 239.773 69.6761C239.458 69.5133 239.087 69.4318 238.659 69.4318C238.258 69.4318 237.879 69.5057 237.523 69.6534C237.17 69.7973 236.883 70.0076 236.659 70.2841C236.436 70.5568 236.314 70.8864 236.295 71.2727H234.932C234.955 70.6629 235.138 70.1288 235.483 69.6705C235.828 69.2083 236.278 68.8485 236.835 68.5909C237.396 68.3333 238.011 68.2045 238.682 68.2045C239.402 68.2045 240.019 68.3504 240.534 68.642C241.049 68.9299 241.445 69.3106 241.722 69.7841C241.998 70.2576 242.136 70.7689 242.136 71.3182C242.136 71.9735 241.964 72.5322 241.619 72.9943C241.278 73.4564 240.814 73.7765 240.227 73.9545V74.0455C240.962 74.1667 241.536 74.4792 241.949 74.983C242.362 75.483 242.568 76.1023 242.568 76.8409C242.568 77.4735 242.396 78.0417 242.051 78.5455C241.71 79.0455 241.244 79.4394 240.653 79.7273C240.063 80.0152 239.39 80.1591 238.636 80.1591Z" fill="white"/>
<rect width="8" height="8" transform="matrix(0 1 1 0 490.5 115)" fill="#DA0087"/>
<path d="M494.5 123V142" stroke="#DA0087"/>
<rect x="477.5" y="95" width="34" height="28" rx="14" fill="#DA0087"/>
<path d="M494.568 115.159C494.091 115.152 493.614 115.061 493.136 114.886C492.659 114.712 492.223 114.419 491.83 114.006C491.436 113.589 491.119 113.027 490.881 112.318C490.642 111.606 490.523 110.712 490.523 109.636C490.523 108.602 490.619 107.686 490.812 106.886C491.006 106.083 491.286 105.407 491.653 104.858C492.021 104.309 492.464 103.892 492.983 103.608C493.506 103.324 494.095 103.182 494.75 103.182C495.402 103.182 495.981 103.312 496.489 103.574C497 103.835 497.417 104.199 497.739 104.665C498.061 105.127 498.269 105.663 498.364 106.273H496.977C496.848 105.739 496.598 105.299 496.227 104.955C495.856 104.606 495.364 104.432 494.75 104.432C493.848 104.432 493.138 104.826 492.619 105.614C492.104 106.398 491.845 107.504 491.841 108.932H491.932C492.144 108.61 492.396 108.335 492.688 108.108C492.983 107.877 493.309 107.699 493.665 107.574C494.021 107.449 494.398 107.386 494.795 107.386C495.462 107.386 496.072 107.553 496.625 107.886C497.178 108.216 497.621 108.672 497.955 109.256C498.288 109.835 498.455 110.5 498.455 111.25C498.455 111.97 498.294 112.629 497.972 113.227C497.65 113.822 497.197 114.295 496.614 114.648C496.034 114.996 495.352 115.167 494.568 115.159ZM494.568 113.909C495.045 113.909 495.473 113.79 495.852 113.551C496.235 113.312 496.536 112.992 496.756 112.591C496.979 112.189 497.091 111.742 497.091 111.25C497.091 110.769 496.983 110.331 496.767 109.938C496.555 109.54 496.261 109.223 495.886 108.989C495.515 108.754 495.091 108.636 494.614 108.636C494.254 108.636 493.919 108.708 493.608 108.852C493.297 108.992 493.025 109.186 492.79 109.432C492.559 109.678 492.377 109.96 492.244 110.278C492.112 110.593 492.045 110.924 492.045 111.273C492.045 111.735 492.153 112.167 492.369 112.568C492.589 112.97 492.888 113.294 493.267 113.54C493.65 113.786 494.083 113.909 494.568 113.909Z" fill="white"/>
</svg>
