<svg width="555" height="334" viewBox="0 0 555 334" fill="none" xmlns="http://www.w3.org/2000/svg">
<rect width="555" height="334" rx="24" fill="#262626"/>
<rect x="226" y="155.5" width="103" height="23" rx="3.5" fill="#1E2B10"/>
<rect x="226" y="155.5" width="103" height="23" rx="3.5" stroke="#93C437"/>
<path d="M243.274 164.182H241.468C241.356 163.473 241.048 162.931 240.544 162.558C240.106 162.241 239.569 162.082 238.934 162.082C237.973 162.082 237.24 162.441 236.736 163.16C236.26 163.823 236.022 164.751 236.022 165.946C236.022 167.299 236.326 168.317 236.932 168.998C237.418 169.549 238.057 169.824 238.85 169.824C239.662 169.824 240.311 169.577 240.796 169.082C241.216 168.653 241.45 168.088 241.496 167.388H243.316C243.214 168.592 242.714 169.549 241.818 170.258C241.016 170.893 240.017 171.21 238.822 171.21C237.31 171.21 236.139 170.701 235.308 169.684C234.552 168.76 234.174 167.514 234.174 165.946C234.174 164.163 234.669 162.81 235.658 161.886C236.489 161.102 237.581 160.71 238.934 160.71C240.204 160.71 241.249 161.079 242.07 161.816C242.77 162.441 243.172 163.23 243.274 164.182ZM244.386 167.346C244.386 166.021 244.778 165.017 245.562 164.336C246.206 163.785 247.046 163.51 248.082 163.51C249.286 163.51 250.214 163.874 250.868 164.602C251.474 165.265 251.778 166.179 251.778 167.346C251.778 168.671 251.395 169.675 250.63 170.356C249.986 170.925 249.136 171.21 248.082 171.21C246.887 171.21 245.958 170.837 245.296 170.09C244.689 169.409 244.386 168.494 244.386 167.346ZM248.096 169.964C248.758 169.964 249.253 169.721 249.58 169.236C249.888 168.797 250.042 168.167 250.042 167.346C250.042 166.413 249.836 165.727 249.426 165.288C249.099 164.933 248.651 164.756 248.082 164.756C247.428 164.756 246.934 164.994 246.598 165.47C246.28 165.909 246.122 166.534 246.122 167.346C246.122 168.27 246.327 168.956 246.738 169.404C247.083 169.777 247.536 169.964 248.096 169.964ZM254.879 171H253.199V163.72H254.473L254.711 164.546C255.224 163.855 255.947 163.51 256.881 163.51C257.898 163.51 258.621 163.874 259.051 164.602C259.573 163.874 260.367 163.51 261.431 163.51C262.271 163.51 262.915 163.757 263.363 164.252C263.773 164.709 263.979 165.353 263.979 166.184V171H262.299V166.226C262.299 165.283 261.86 164.812 260.983 164.812C260.479 164.812 260.077 165.008 259.779 165.4C259.545 165.727 259.429 166.114 259.429 166.562V171H257.749V166.226C257.749 165.283 257.31 164.812 256.433 164.812C255.957 164.812 255.569 164.999 255.271 165.372C255.009 165.689 254.879 166.063 254.879 166.492V171ZM267.459 162.614H265.611V160.92H267.459V162.614ZM267.375 171H265.695V163.72H267.375V171ZM270.847 171H269.167V163.72H270.553L270.735 164.588C271.267 163.869 272.005 163.51 272.947 163.51C273.825 163.51 274.497 163.781 274.963 164.322C275.374 164.798 275.579 165.447 275.579 166.268V171H273.899V166.31C273.899 165.311 273.437 164.812 272.513 164.812C272.009 164.812 271.599 164.989 271.281 165.344C270.992 165.671 270.847 166.081 270.847 166.576V171ZM277.204 171.476H278.968C279.146 172.148 279.701 172.484 280.634 172.484C281.838 172.484 282.44 171.91 282.44 170.762V169.95C281.89 170.51 281.143 170.79 280.2 170.79C279.211 170.79 278.408 170.44 277.792 169.74C277.223 169.087 276.938 168.242 276.938 167.206C276.938 165.983 277.288 165.036 277.988 164.364C278.576 163.795 279.332 163.51 280.256 163.51C281.227 163.51 281.983 163.865 282.524 164.574L282.79 163.72H284.12V170.748C284.12 171.709 283.775 172.461 283.084 173.002C282.468 173.487 281.656 173.73 280.648 173.73C279.566 173.73 278.721 173.501 278.114 173.044C277.62 172.661 277.316 172.139 277.204 171.476ZM278.66 167.22C278.66 167.976 278.87 168.559 279.29 168.97C279.636 169.297 280.07 169.46 280.592 169.46C281.264 169.46 281.773 169.241 282.118 168.802C282.417 168.419 282.566 167.897 282.566 167.234C282.566 166.403 282.361 165.778 281.95 165.358C281.614 165.013 281.162 164.84 280.592 164.84C279.967 164.84 279.482 165.064 279.136 165.512C278.819 165.923 278.66 166.492 278.66 167.22ZM291.098 168.928C291.229 169.628 291.756 169.978 292.68 169.978C293.193 169.978 293.581 169.88 293.842 169.684C294.057 169.516 294.164 169.297 294.164 169.026C294.164 168.681 293.977 168.424 293.604 168.256C293.389 168.163 292.918 168.032 292.19 167.864C291.294 167.659 290.655 167.379 290.272 167.024C289.889 166.679 289.698 166.226 289.698 165.666C289.698 164.957 289.987 164.411 290.566 164.028C291.079 163.683 291.784 163.51 292.68 163.51C293.604 163.51 294.346 163.729 294.906 164.168C295.391 164.541 295.695 165.045 295.816 165.68H294.108C293.968 165.055 293.483 164.742 292.652 164.742C291.812 164.742 291.392 164.999 291.392 165.512C291.392 165.773 291.499 165.969 291.714 166.1C291.929 166.231 292.363 166.375 293.016 166.534C294.024 166.767 294.724 167.029 295.116 167.318C295.611 167.682 295.858 168.195 295.858 168.858C295.858 169.614 295.55 170.207 294.934 170.636C294.374 171.019 293.618 171.21 292.666 171.21C291.667 171.21 290.869 170.972 290.272 170.496C289.768 170.095 289.474 169.572 289.39 168.928H291.098ZM296.927 167.346C296.927 166.021 297.319 165.017 298.103 164.336C298.747 163.785 299.587 163.51 300.623 163.51C301.827 163.51 302.755 163.874 303.409 164.602C304.015 165.265 304.319 166.179 304.319 167.346C304.319 168.671 303.936 169.675 303.171 170.356C302.527 170.925 301.677 171.21 300.623 171.21C299.428 171.21 298.499 170.837 297.837 170.09C297.23 169.409 296.927 168.494 296.927 167.346ZM300.637 169.964C301.299 169.964 301.794 169.721 302.121 169.236C302.429 168.797 302.583 168.167 302.583 167.346C302.583 166.413 302.377 165.727 301.967 165.288C301.64 164.933 301.192 164.756 300.623 164.756C299.969 164.756 299.475 164.994 299.139 165.47C298.821 165.909 298.663 166.534 298.663 167.346C298.663 168.27 298.868 168.956 299.279 169.404C299.624 169.777 300.077 169.964 300.637 169.964ZM305.376 167.346C305.376 166.021 305.768 165.017 306.552 164.336C307.196 163.785 308.036 163.51 309.072 163.51C310.276 163.51 311.204 163.874 311.858 164.602C312.464 165.265 312.768 166.179 312.768 167.346C312.768 168.671 312.385 169.675 311.62 170.356C310.976 170.925 310.126 171.21 309.072 171.21C307.877 171.21 306.948 170.837 306.286 170.09C305.679 169.409 305.376 168.494 305.376 167.346ZM309.086 169.964C309.748 169.964 310.243 169.721 310.57 169.236C310.878 168.797 311.032 168.167 311.032 167.346C311.032 166.413 310.826 165.727 310.416 165.288C310.089 164.933 309.641 164.756 309.072 164.756C308.418 164.756 307.924 164.994 307.588 165.47C307.27 165.909 307.112 166.534 307.112 167.346C307.112 168.27 307.317 168.956 307.728 169.404C308.073 169.777 308.526 169.964 309.086 169.964ZM315.869 171H314.189V163.72H315.575L315.757 164.588C316.289 163.869 317.026 163.51 317.969 163.51C318.846 163.51 319.518 163.781 319.985 164.322C320.396 164.798 320.601 165.447 320.601 166.268V171H318.921V166.31C318.921 165.311 318.459 164.812 317.535 164.812C317.031 164.812 316.62 164.989 316.303 165.344C316.014 165.671 315.869 166.081 315.869 166.576V171Z" fill="white" fill-opacity="0.95"/>
</svg>
