<svg width="1300" height="288" viewBox="0 0 1300 288" fill="none" xmlns="http://www.w3.org/2000/svg">
<rect width="1300" height="288" rx="24" fill="#262626"/>
<path d="M404.582 115L401.798 104.818H403.051L405.179 113.111H405.278L407.446 104.818H408.838L411.006 113.111H411.105L413.233 104.818H414.486L411.702 115H410.429L408.182 106.886H408.102L405.855 115H404.582ZM417.036 110.406V115H415.863V104.818H417.036V108.557H417.136C417.315 108.162 417.583 107.849 417.941 107.617C418.302 107.382 418.783 107.264 419.383 107.264C419.903 107.264 420.359 107.369 420.75 107.577C421.141 107.783 421.444 108.099 421.66 108.527C421.879 108.951 421.988 109.491 421.988 110.148V115H420.815V110.227C420.815 109.621 420.657 109.152 420.342 108.82C420.031 108.486 419.598 108.318 419.045 108.318C418.66 108.318 418.316 108.399 418.011 108.562C417.709 108.724 417.47 108.961 417.295 109.273C417.122 109.584 417.036 109.962 417.036 110.406ZM426.382 115.179C425.898 115.179 425.459 115.088 425.064 114.906C424.67 114.72 424.356 114.453 424.124 114.105C423.892 113.754 423.776 113.33 423.776 112.832C423.776 112.395 423.863 112.04 424.035 111.768C424.207 111.493 424.438 111.278 424.726 111.122C425.014 110.966 425.333 110.85 425.681 110.774C426.032 110.695 426.385 110.632 426.74 110.585C427.204 110.526 427.58 110.481 427.868 110.451C428.16 110.418 428.372 110.363 428.504 110.287C428.64 110.211 428.708 110.078 428.708 109.889V109.849C428.708 109.359 428.574 108.978 428.306 108.706C428.04 108.434 427.638 108.298 427.097 108.298C426.537 108.298 426.098 108.421 425.78 108.666C425.462 108.911 425.238 109.173 425.109 109.452L423.995 109.054C424.194 108.59 424.459 108.229 424.791 107.97C425.125 107.708 425.49 107.526 425.884 107.423C426.282 107.317 426.673 107.264 427.058 107.264C427.303 107.264 427.585 107.294 427.903 107.354C428.224 107.41 428.534 107.528 428.833 107.707C429.134 107.886 429.384 108.156 429.583 108.517C429.782 108.878 429.882 109.362 429.882 109.969V115H428.708V113.966H428.649C428.569 114.132 428.436 114.309 428.251 114.498C428.065 114.687 427.818 114.848 427.51 114.98C427.202 115.113 426.826 115.179 426.382 115.179ZM426.561 114.125C427.025 114.125 427.416 114.034 427.734 113.852C428.055 113.669 428.297 113.434 428.46 113.146C428.625 112.857 428.708 112.554 428.708 112.236V111.162C428.659 111.222 428.549 111.276 428.38 111.326C428.214 111.372 428.022 111.414 427.803 111.45C427.588 111.483 427.378 111.513 427.172 111.54C426.97 111.563 426.806 111.583 426.68 111.599C426.375 111.639 426.09 111.704 425.825 111.793C425.563 111.879 425.351 112.01 425.188 112.186C425.029 112.358 424.95 112.594 424.95 112.892C424.95 113.3 425.101 113.608 425.402 113.817C425.707 114.022 426.093 114.125 426.561 114.125ZM435.344 107.364V108.358H431.387V107.364H435.344ZM432.54 105.534H433.713V112.812C433.713 113.144 433.761 113.393 433.858 113.558C433.957 113.721 434.083 113.83 434.235 113.886C434.391 113.939 434.555 113.966 434.728 113.966C434.857 113.966 434.963 113.959 435.046 113.946C435.129 113.929 435.195 113.916 435.245 113.906L435.483 114.96C435.404 114.99 435.293 115.02 435.15 115.05C435.008 115.083 434.827 115.099 434.608 115.099C434.277 115.099 433.952 115.028 433.634 114.886C433.319 114.743 433.057 114.526 432.848 114.234C432.643 113.943 432.54 113.575 432.54 113.131V105.534ZM444.368 107.364V108.358H440.41V107.364H444.368ZM441.564 105.534H442.737V112.812C442.737 113.144 442.785 113.393 442.881 113.558C442.98 113.721 443.106 113.83 443.259 113.886C443.415 113.939 443.579 113.966 443.751 113.966C443.88 113.966 443.986 113.959 444.069 113.946C444.152 113.929 444.218 113.916 444.268 113.906L444.507 114.96C444.427 114.99 444.316 115.02 444.174 115.05C444.031 115.083 443.85 115.099 443.632 115.099C443.3 115.099 442.975 115.028 442.657 114.886C442.342 114.743 442.081 114.526 441.872 114.234C441.666 113.943 441.564 113.575 441.564 113.131V105.534ZM449.252 115.159C448.516 115.159 447.882 114.997 447.348 114.672C446.818 114.344 446.408 113.886 446.12 113.3C445.835 112.71 445.692 112.024 445.692 111.241C445.692 110.459 445.835 109.77 446.12 109.173C446.408 108.573 446.809 108.106 447.323 107.771C447.84 107.433 448.443 107.264 449.133 107.264C449.531 107.264 449.923 107.33 450.311 107.463C450.699 107.596 451.052 107.811 451.37 108.109C451.688 108.404 451.942 108.795 452.131 109.283C452.32 109.77 452.414 110.37 452.414 111.082V111.58H446.528V110.565H451.221C451.221 110.134 451.135 109.75 450.962 109.412C450.793 109.074 450.551 108.807 450.237 108.612C449.925 108.416 449.557 108.318 449.133 108.318C448.665 108.318 448.261 108.434 447.92 108.666C447.582 108.895 447.321 109.193 447.139 109.561C446.957 109.929 446.866 110.323 446.866 110.744V111.42C446.866 111.997 446.965 112.486 447.164 112.887C447.366 113.285 447.646 113.588 448.004 113.797C448.362 114.002 448.778 114.105 449.252 114.105C449.56 114.105 449.839 114.062 450.087 113.976C450.339 113.886 450.556 113.754 450.739 113.578C450.921 113.399 451.062 113.177 451.161 112.912L452.295 113.23C452.175 113.615 451.975 113.953 451.693 114.244C451.411 114.533 451.063 114.758 450.649 114.92C450.235 115.08 449.769 115.159 449.252 115.159ZM456.446 115.179C455.962 115.179 455.523 115.088 455.129 114.906C454.734 114.72 454.421 114.453 454.189 114.105C453.957 113.754 453.841 113.33 453.841 112.832C453.841 112.395 453.927 112.04 454.099 111.768C454.272 111.493 454.502 111.278 454.79 111.122C455.079 110.966 455.397 110.85 455.745 110.774C456.096 110.695 456.449 110.632 456.804 110.585C457.268 110.526 457.644 110.481 457.933 110.451C458.224 110.418 458.436 110.363 458.569 110.287C458.705 110.211 458.773 110.078 458.773 109.889V109.849C458.773 109.359 458.638 108.978 458.37 108.706C458.105 108.434 457.702 108.298 457.162 108.298C456.602 108.298 456.163 108.421 455.844 108.666C455.526 108.911 455.303 109.173 455.173 109.452L454.06 109.054C454.259 108.59 454.524 108.229 454.855 107.97C455.19 107.708 455.554 107.526 455.949 107.423C456.347 107.317 456.738 107.264 457.122 107.264C457.367 107.264 457.649 107.294 457.967 107.354C458.289 107.41 458.599 107.528 458.897 107.707C459.199 107.886 459.449 108.156 459.648 108.517C459.847 108.878 459.946 109.362 459.946 109.969V115H458.773V113.966H458.713C458.634 114.132 458.501 114.309 458.315 114.498C458.13 114.687 457.883 114.848 457.575 114.98C457.266 115.113 456.89 115.179 456.446 115.179ZM456.625 114.125C457.089 114.125 457.48 114.034 457.798 113.852C458.12 113.669 458.362 113.434 458.524 113.146C458.69 112.857 458.773 112.554 458.773 112.236V111.162C458.723 111.222 458.614 111.276 458.445 111.326C458.279 111.372 458.087 111.414 457.868 111.45C457.652 111.483 457.442 111.513 457.237 111.54C457.034 111.563 456.87 111.583 456.744 111.599C456.439 111.639 456.154 111.704 455.889 111.793C455.627 111.879 455.415 112.01 455.253 112.186C455.094 112.358 455.014 112.594 455.014 112.892C455.014 113.3 455.165 113.608 455.467 113.817C455.772 114.022 456.158 114.125 456.625 114.125ZM462.088 115V107.364H463.221V108.557H463.32C463.48 108.149 463.736 107.833 464.091 107.607C464.446 107.379 464.872 107.264 465.369 107.264C465.873 107.264 466.292 107.379 466.627 107.607C466.965 107.833 467.228 108.149 467.417 108.557H467.497C467.692 108.162 467.985 107.849 468.377 107.617C468.768 107.382 469.237 107.264 469.784 107.264C470.466 107.264 471.025 107.478 471.459 107.906C471.893 108.33 472.11 108.991 472.11 109.889V115H470.937V109.889C470.937 109.326 470.783 108.923 470.475 108.681C470.166 108.439 469.803 108.318 469.386 108.318C468.849 108.318 468.433 108.481 468.138 108.805C467.843 109.127 467.695 109.535 467.695 110.028V115H466.502V109.77C466.502 109.336 466.361 108.986 466.08 108.721C465.798 108.452 465.435 108.318 464.991 108.318C464.686 108.318 464.401 108.399 464.136 108.562C463.874 108.724 463.662 108.95 463.499 109.238C463.34 109.523 463.261 109.853 463.261 110.227V115H462.088ZM480.44 115.179C479.956 115.179 479.517 115.088 479.123 114.906C478.728 114.72 478.415 114.453 478.183 114.105C477.951 113.754 477.835 113.33 477.835 112.832C477.835 112.395 477.921 112.04 478.094 111.768C478.266 111.493 478.496 111.278 478.785 111.122C479.073 110.966 479.391 110.85 479.739 110.774C480.09 110.695 480.443 110.632 480.798 110.585C481.262 110.526 481.638 110.481 481.927 110.451C482.218 110.418 482.43 110.363 482.563 110.287C482.699 110.211 482.767 110.078 482.767 109.889V109.849C482.767 109.359 482.633 108.978 482.364 108.706C482.099 108.434 481.696 108.298 481.156 108.298C480.596 108.298 480.157 108.421 479.839 108.666C479.52 108.911 479.297 109.173 479.167 109.452L478.054 109.054C478.253 108.59 478.518 108.229 478.849 107.97C479.184 107.708 479.549 107.526 479.943 107.423C480.341 107.317 480.732 107.264 481.116 107.264C481.362 107.264 481.643 107.294 481.961 107.354C482.283 107.41 482.593 107.528 482.891 107.707C483.193 107.886 483.443 108.156 483.642 108.517C483.841 108.878 483.94 109.362 483.94 109.969V115H482.767V113.966H482.707C482.628 114.132 482.495 114.309 482.309 114.498C482.124 114.687 481.877 114.848 481.569 114.98C481.26 115.113 480.884 115.179 480.44 115.179ZM480.619 114.125C481.083 114.125 481.474 114.034 481.792 113.852C482.114 113.669 482.356 113.434 482.518 113.146C482.684 112.857 482.767 112.554 482.767 112.236V111.162C482.717 111.222 482.608 111.276 482.439 111.326C482.273 111.372 482.081 111.414 481.862 111.45C481.647 111.483 481.436 111.513 481.231 111.54C481.028 111.563 480.864 111.583 480.738 111.599C480.434 111.639 480.148 111.704 479.883 111.793C479.622 111.879 479.409 112.01 479.247 112.186C479.088 112.358 479.008 112.594 479.008 112.892C479.008 113.3 479.159 113.608 479.461 113.817C479.766 114.022 480.152 114.125 480.619 114.125ZM486.082 115V107.364H487.215V108.517H487.295C487.434 108.139 487.686 107.833 488.05 107.597C488.415 107.362 488.826 107.244 489.283 107.244C489.37 107.244 489.477 107.246 489.607 107.249C489.736 107.253 489.834 107.258 489.9 107.264V108.457C489.86 108.447 489.769 108.433 489.626 108.413C489.487 108.389 489.34 108.378 489.184 108.378C488.813 108.378 488.481 108.456 488.19 108.612C487.901 108.764 487.673 108.976 487.504 109.248C487.338 109.516 487.255 109.823 487.255 110.168V115H486.082ZM494.26 115.159C493.524 115.159 492.889 114.997 492.356 114.672C491.826 114.344 491.416 113.886 491.128 113.3C490.843 112.71 490.7 112.024 490.7 111.241C490.7 110.459 490.843 109.77 491.128 109.173C491.416 108.573 491.817 108.106 492.331 107.771C492.848 107.433 493.451 107.264 494.141 107.264C494.538 107.264 494.931 107.33 495.319 107.463C495.707 107.596 496.06 107.811 496.378 108.109C496.696 108.404 496.95 108.795 497.138 109.283C497.327 109.77 497.422 110.37 497.422 111.082V111.58H491.536V110.565H496.229C496.229 110.134 496.143 109.75 495.97 109.412C495.801 109.074 495.559 108.807 495.244 108.612C494.933 108.416 494.565 108.318 494.141 108.318C493.673 108.318 493.269 108.434 492.928 108.666C492.589 108.895 492.329 109.193 492.147 109.561C491.965 109.929 491.874 110.323 491.874 110.744V111.42C491.874 111.997 491.973 112.486 492.172 112.887C492.374 113.285 492.654 113.588 493.012 113.797C493.37 114.002 493.786 114.105 494.26 114.105C494.568 114.105 494.847 114.062 495.095 113.976C495.347 113.886 495.564 113.754 495.746 113.578C495.929 113.399 496.07 113.177 496.169 112.912L497.303 113.23C497.183 113.615 496.983 113.953 496.701 114.244C496.419 114.533 496.071 114.758 495.657 114.92C495.243 115.08 494.777 115.159 494.26 115.159ZM503.9 117.844C503.701 117.844 503.524 117.827 503.368 117.794C503.212 117.764 503.104 117.734 503.045 117.705L503.343 116.67C503.771 116.78 504.127 116.777 504.412 116.661C504.697 116.548 504.944 116.206 505.153 115.636L505.371 115.04L502.548 107.364H503.82L505.928 113.449H506.008L508.116 107.364L509.398 107.384L506.147 116.114C506.001 116.501 505.821 116.823 505.605 117.078C505.39 117.337 505.139 117.529 504.854 117.655C504.573 117.781 504.254 117.844 503.9 117.844ZM513.78 115.159C513.09 115.159 512.485 114.995 511.965 114.667C511.448 114.339 511.044 113.88 510.752 113.29C510.464 112.7 510.319 112.01 510.319 111.222C510.319 110.426 510.464 109.732 510.752 109.138C511.044 108.545 511.448 108.085 511.965 107.756C512.485 107.428 513.09 107.264 513.78 107.264C514.469 107.264 515.072 107.428 515.589 107.756C516.11 108.085 516.514 108.545 516.802 109.138C517.094 109.732 517.24 110.426 517.24 111.222C517.24 112.01 517.094 112.7 516.802 113.29C516.514 113.88 516.11 114.339 515.589 114.667C515.072 114.995 514.469 115.159 513.78 115.159ZM513.78 114.105C514.303 114.105 514.734 113.971 515.072 113.702C515.41 113.434 515.661 113.081 515.823 112.643C515.985 112.206 516.067 111.732 516.067 111.222C516.067 110.711 515.985 110.236 515.823 109.795C515.661 109.354 515.41 108.998 515.072 108.726C514.734 108.454 514.303 108.318 513.78 108.318C513.256 108.318 512.825 108.454 512.487 108.726C512.149 108.998 511.899 109.354 511.736 109.795C511.574 110.236 511.493 110.711 511.493 111.222C511.493 111.732 511.574 112.206 511.736 112.643C511.899 113.081 512.149 113.434 512.487 113.702C512.825 113.971 513.256 114.105 513.78 114.105ZM523.843 111.878V107.364H525.017V115H523.843V113.707H523.764C523.585 114.095 523.306 114.425 522.929 114.697C522.551 114.965 522.074 115.099 521.497 115.099C521.02 115.099 520.595 114.995 520.224 114.786C519.853 114.574 519.561 114.256 519.349 113.832C519.137 113.404 519.031 112.866 519.031 112.216V107.364H520.204V112.136C520.204 112.693 520.36 113.137 520.672 113.469C520.986 113.8 521.387 113.966 521.875 113.966C522.166 113.966 522.463 113.891 522.765 113.742C523.069 113.593 523.325 113.364 523.53 113.056C523.739 112.748 523.843 112.355 523.843 111.878ZM534.205 115.159C533.516 115.159 532.911 114.995 532.391 114.667C531.874 114.339 531.469 113.88 531.178 113.29C530.889 112.7 530.745 112.01 530.745 111.222C530.745 110.426 530.889 109.732 531.178 109.138C531.469 108.545 531.874 108.085 532.391 107.756C532.911 107.428 533.516 107.264 534.205 107.264C534.895 107.264 535.498 107.428 536.015 107.756C536.535 108.085 536.94 108.545 537.228 109.138C537.52 109.732 537.666 110.426 537.666 111.222C537.666 112.01 537.52 112.7 537.228 113.29C536.94 113.88 536.535 114.339 536.015 114.667C535.498 114.995 534.895 115.159 534.205 115.159ZM534.205 114.105C534.729 114.105 535.16 113.971 535.498 113.702C535.836 113.434 536.086 113.081 536.249 112.643C536.411 112.206 536.492 111.732 536.492 111.222C536.492 110.711 536.411 110.236 536.249 109.795C536.086 109.354 535.836 108.998 535.498 108.726C535.16 108.454 534.729 108.318 534.205 108.318C533.682 108.318 533.251 108.454 532.913 108.726C532.575 108.998 532.325 109.354 532.162 109.795C532 110.236 531.919 110.711 531.919 111.222C531.919 111.732 532 112.206 532.162 112.643C532.325 113.081 532.575 113.434 532.913 113.702C533.251 113.971 533.682 114.105 534.205 114.105ZM540.63 110.406V115H539.457V107.364H540.59V108.557H540.69C540.869 108.169 541.14 107.857 541.505 107.622C541.87 107.384 542.34 107.264 542.917 107.264C543.434 107.264 543.886 107.37 544.274 107.582C544.662 107.791 544.964 108.109 545.179 108.537C545.394 108.961 545.502 109.498 545.502 110.148V115H544.329V110.227C544.329 109.627 544.173 109.16 543.862 108.825C543.55 108.487 543.122 108.318 542.579 108.318C542.204 108.318 541.87 108.399 541.575 108.562C541.283 108.724 541.053 108.961 540.884 109.273C540.714 109.584 540.63 109.962 540.63 110.406ZM549.177 112.136V112.077C549.184 111.444 549.25 110.94 549.376 110.565C549.502 110.191 549.681 109.888 549.913 109.656C550.145 109.424 550.424 109.21 550.748 109.014C550.944 108.895 551.12 108.754 551.275 108.592C551.431 108.426 551.554 108.235 551.643 108.02C551.736 107.804 551.782 107.566 551.782 107.304C551.782 106.979 551.706 106.697 551.554 106.459C551.401 106.22 551.198 106.036 550.942 105.907C550.687 105.778 550.404 105.713 550.092 105.713C549.82 105.713 549.559 105.769 549.307 105.882C549.055 105.995 548.844 106.172 548.675 106.414C548.506 106.656 548.408 106.973 548.382 107.364H547.129C547.156 106.8 547.301 106.318 547.567 105.917C547.835 105.516 548.188 105.209 548.626 104.997C549.066 104.785 549.555 104.679 550.092 104.679C550.675 104.679 551.183 104.795 551.613 105.027C552.048 105.259 552.382 105.577 552.618 105.982C552.856 106.386 552.976 106.847 552.976 107.364C552.976 107.728 552.919 108.058 552.807 108.353C552.697 108.648 552.538 108.911 552.329 109.143C552.124 109.375 551.875 109.581 551.584 109.76C551.292 109.942 551.058 110.134 550.883 110.337C550.707 110.536 550.579 110.772 550.5 111.048C550.42 111.323 550.377 111.666 550.371 112.077V112.136H549.177ZM549.814 115.08C549.568 115.08 549.358 114.992 549.182 114.816C549.007 114.64 548.919 114.43 548.919 114.185C548.919 113.939 549.007 113.729 549.182 113.553C549.358 113.378 549.568 113.29 549.814 113.29C550.059 113.29 550.269 113.378 550.445 113.553C550.621 113.729 550.709 113.939 550.709 114.185C550.709 114.347 550.667 114.496 550.584 114.632C550.505 114.768 550.397 114.877 550.261 114.96C550.129 115.04 549.979 115.08 549.814 115.08Z" fill="white" fill-opacity="0.95"/>
<path d="M563.991 110.705C563.991 109.452 564.154 108.3 564.479 107.249C564.807 106.195 565.274 105.226 565.881 104.341H566.915C566.676 104.669 566.452 105.073 566.244 105.554C566.038 106.031 565.857 106.557 565.702 107.13C565.546 107.7 565.423 108.29 565.334 108.9C565.248 109.51 565.205 110.111 565.205 110.705C565.205 111.493 565.281 112.294 565.433 113.106C565.586 113.918 565.791 114.672 566.05 115.368C566.308 116.064 566.597 116.631 566.915 117.068H565.881C565.274 116.183 564.807 115.215 564.479 114.165C564.154 113.111 563.991 111.957 563.991 110.705ZM568.646 115V107.364H569.78V108.517H569.859C569.998 108.139 570.25 107.833 570.615 107.597C570.979 107.362 571.39 107.244 571.848 107.244C571.934 107.244 572.042 107.246 572.171 107.249C572.3 107.253 572.398 107.258 572.464 107.264V108.457C572.425 108.447 572.333 108.433 572.191 108.413C572.052 108.389 571.904 108.378 571.748 108.378C571.377 108.378 571.046 108.456 570.754 108.612C570.466 108.764 570.237 108.976 570.068 109.248C569.902 109.516 569.819 109.823 569.819 110.168V115H568.646ZM576.824 115.159C576.089 115.159 575.454 114.997 574.92 114.672C574.39 114.344 573.981 113.886 573.692 113.3C573.407 112.71 573.265 112.024 573.265 111.241C573.265 110.459 573.407 109.77 573.692 109.173C573.981 108.573 574.382 108.106 574.895 107.771C575.412 107.433 576.016 107.264 576.705 107.264C577.103 107.264 577.496 107.33 577.883 107.463C578.271 107.596 578.624 107.811 578.942 108.109C579.26 108.404 579.514 108.795 579.703 109.283C579.892 109.77 579.986 110.37 579.986 111.082V111.58H574.1V110.565H578.793C578.793 110.134 578.707 109.75 578.535 109.412C578.366 109.074 578.124 108.807 577.809 108.612C577.497 108.416 577.129 108.318 576.705 108.318C576.238 108.318 575.833 108.434 575.492 108.666C575.154 108.895 574.894 109.193 574.711 109.561C574.529 109.929 574.438 110.323 574.438 110.744V111.42C574.438 111.997 574.537 112.486 574.736 112.887C574.939 113.285 575.219 113.588 575.577 113.797C575.934 114.002 576.35 114.105 576.824 114.105C577.133 114.105 577.411 114.062 577.66 113.976C577.912 113.886 578.129 113.754 578.311 113.578C578.493 113.399 578.634 113.177 578.733 112.912L579.867 113.23C579.748 113.615 579.547 113.953 579.265 114.244C578.984 114.533 578.636 114.758 578.221 114.92C577.807 115.08 577.341 115.159 576.824 115.159ZM588.155 117.864H586.981V113.827H586.882C586.796 113.966 586.673 114.142 586.514 114.354C586.355 114.562 586.128 114.75 585.833 114.915C585.538 115.078 585.145 115.159 584.655 115.159C584.018 115.159 583.456 114.998 582.969 114.677C582.482 114.352 582.101 113.895 581.826 113.305C581.551 112.711 581.413 112.01 581.413 111.202C581.413 110.4 581.551 109.704 581.826 109.114C582.101 108.524 582.484 108.068 582.974 107.746C583.465 107.425 584.032 107.264 584.675 107.264C585.172 107.264 585.564 107.347 585.853 107.513C586.144 107.675 586.367 107.861 586.519 108.07C586.675 108.275 586.796 108.444 586.882 108.577H587.021V107.364H588.155V117.864ZM587.001 111.182C587.001 110.612 586.918 110.113 586.753 109.685C586.587 109.254 586.342 108.92 586.017 108.681C585.692 108.439 585.291 108.318 584.814 108.318C584.317 108.318 583.902 108.446 583.571 108.701C583.243 108.953 582.996 109.296 582.83 109.73C582.668 110.161 582.586 110.645 582.586 111.182C582.586 111.725 582.669 112.219 582.835 112.663C583.004 113.104 583.253 113.455 583.581 113.717C583.912 113.976 584.323 114.105 584.814 114.105C585.284 114.105 585.682 113.982 586.007 113.737C586.332 113.489 586.579 113.146 586.748 112.708C586.917 112.267 587.001 111.759 587.001 111.182ZM595.115 111.878V107.364H596.288V115H595.115V113.707H595.035C594.856 114.095 594.578 114.425 594.2 114.697C593.822 114.965 593.345 115.099 592.768 115.099C592.291 115.099 591.867 114.995 591.496 114.786C591.124 114.574 590.833 114.256 590.621 113.832C590.408 113.404 590.302 112.866 590.302 112.216V107.364H591.476V112.136C591.476 112.693 591.631 113.137 591.943 113.469C592.258 113.8 592.659 113.966 593.146 113.966C593.438 113.966 593.734 113.891 594.036 113.742C594.341 113.593 594.596 113.364 594.802 113.056C595.01 112.748 595.115 112.355 595.115 111.878ZM598.437 115V107.364H599.61V115H598.437ZM599.034 106.091C598.805 106.091 598.608 106.013 598.442 105.857C598.28 105.701 598.199 105.514 598.199 105.295C598.199 105.077 598.28 104.889 598.442 104.734C598.608 104.578 598.805 104.5 599.034 104.5C599.262 104.5 599.458 104.578 599.62 104.734C599.786 104.889 599.869 105.077 599.869 105.295C599.869 105.514 599.786 105.701 599.62 105.857C599.458 106.013 599.262 106.091 599.034 106.091ZM601.759 115V107.364H602.893V108.517H602.972C603.112 108.139 603.364 107.833 603.728 107.597C604.093 107.362 604.504 107.244 604.961 107.244C605.047 107.244 605.155 107.246 605.284 107.249C605.414 107.253 605.511 107.258 605.578 107.264V108.457C605.538 108.447 605.447 108.433 605.304 108.413C605.165 108.389 605.017 108.378 604.862 108.378C604.49 108.378 604.159 108.456 603.867 108.612C603.579 108.764 603.35 108.976 603.181 109.248C603.016 109.516 602.933 109.823 602.933 110.168V115H601.759ZM609.938 115.159C609.202 115.159 608.567 114.997 608.034 114.672C607.503 114.344 607.094 113.886 606.806 113.3C606.521 112.71 606.378 112.024 606.378 111.241C606.378 110.459 606.521 109.77 606.806 109.173C607.094 108.573 607.495 108.106 608.009 107.771C608.526 107.433 609.129 107.264 609.818 107.264C610.216 107.264 610.609 107.33 610.997 107.463C611.384 107.596 611.737 107.811 612.056 108.109C612.374 108.404 612.627 108.795 612.816 109.283C613.005 109.77 613.1 110.37 613.1 111.082V111.58H607.213V110.565H611.906C611.906 110.134 611.82 109.75 611.648 109.412C611.479 109.074 611.237 108.807 610.922 108.612C610.61 108.416 610.243 108.318 609.818 108.318C609.351 108.318 608.947 108.434 608.605 108.666C608.267 108.895 608.007 109.193 607.825 109.561C607.642 109.929 607.551 110.323 607.551 110.744V111.42C607.551 111.997 607.651 112.486 607.85 112.887C608.052 113.285 608.332 113.588 608.69 113.797C609.048 114.002 609.464 114.105 609.938 114.105C610.246 114.105 610.524 114.062 610.773 113.976C611.025 113.886 611.242 113.754 611.424 113.578C611.606 113.399 611.747 113.177 611.847 112.912L612.98 113.23C612.861 113.615 612.66 113.953 612.379 114.244C612.097 114.533 611.749 114.758 611.335 114.92C610.92 115.08 610.455 115.159 609.938 115.159ZM617.768 115.159C617.132 115.159 616.57 114.998 616.083 114.677C615.595 114.352 615.214 113.895 614.939 113.305C614.664 112.711 614.526 112.01 614.526 111.202C614.526 110.4 614.664 109.704 614.939 109.114C615.214 108.524 615.597 108.068 616.088 107.746C616.578 107.425 617.145 107.264 617.788 107.264C618.285 107.264 618.678 107.347 618.966 107.513C619.258 107.675 619.48 107.861 619.632 108.07C619.788 108.275 619.909 108.444 619.995 108.577H620.095V104.818H621.268V115H620.134V113.827H619.995C619.909 113.966 619.786 114.142 619.627 114.354C619.468 114.562 619.241 114.75 618.946 114.915C618.651 115.078 618.258 115.159 617.768 115.159ZM617.927 114.105C618.398 114.105 618.795 113.982 619.12 113.737C619.445 113.489 619.692 113.146 619.861 112.708C620.03 112.267 620.115 111.759 620.115 111.182C620.115 110.612 620.032 110.113 619.866 109.685C619.7 109.254 619.455 108.92 619.13 108.681C618.805 108.439 618.404 108.318 617.927 108.318C617.43 108.318 617.016 108.446 616.684 108.701C616.356 108.953 616.109 109.296 615.943 109.73C615.781 110.161 615.7 110.645 615.7 111.182C615.7 111.725 615.783 112.219 615.948 112.663C616.117 113.104 616.366 113.455 616.694 113.717C617.026 113.976 617.436 114.105 617.927 114.105ZM626.085 110.705C626.085 111.957 625.921 113.111 625.593 114.165C625.268 115.215 624.803 116.183 624.196 117.068H623.162C623.401 116.74 623.623 116.336 623.828 115.855C624.037 115.378 624.219 114.854 624.375 114.284C624.531 113.711 624.652 113.119 624.738 112.509C624.828 111.896 624.872 111.295 624.872 110.705C624.872 109.916 624.796 109.115 624.644 108.303C624.491 107.491 624.286 106.737 624.027 106.041C623.769 105.345 623.48 104.778 623.162 104.341H624.196C624.803 105.226 625.268 106.195 625.593 107.249C625.921 108.3 626.085 109.452 626.085 110.705Z" fill="white" fill-opacity="0.95"/>
<path d="M646.5 116.75C650.228 116.75 653.25 113.728 653.25 110C653.25 106.272 650.228 103.25 646.5 103.25C642.772 103.25 639.75 106.272 639.75 110C639.75 113.728 642.772 116.75 646.5 116.75ZM644.786 105.714C644.786 104.925 645.425 104.286 646.214 104.286C647.003 104.286 647.643 104.925 647.643 105.714C647.643 106.503 647.003 107.143 646.214 107.143C645.425 107.143 644.786 106.503 644.786 105.714ZM645.357 110C644.726 110 644.214 109.488 644.214 108.857C644.214 108.226 644.726 107.714 645.357 107.714H646.5C647.131 107.714 647.643 108.226 647.643 108.857V112.857H648.786C649.417 112.857 649.929 113.369 649.929 114C649.929 114.631 649.417 115.143 648.786 115.143H644.214C643.583 115.143 643.071 114.631 643.071 114C643.071 113.369 643.583 112.857 644.214 112.857H645.357V110Z" fill="white" fill-opacity="0.95"/>
<rect x="402" y="128.5" width="399" height="31" rx="7.5" stroke="white" stroke-opacity="0.5"/>
<path d="M420.301 141.364C420.241 140.86 420 140.469 419.575 140.19C419.151 139.912 418.631 139.773 418.014 139.773C417.563 139.773 417.169 139.846 416.831 139.991C416.496 140.137 416.234 140.338 416.045 140.593C415.86 140.848 415.767 141.138 415.767 141.463C415.767 141.735 415.832 141.969 415.961 142.164C416.094 142.356 416.263 142.517 416.468 142.646C416.674 142.772 416.889 142.877 417.114 142.96C417.34 143.039 417.547 143.104 417.736 143.153L418.77 143.432C419.035 143.501 419.33 143.598 419.655 143.72C419.983 143.843 420.296 144.01 420.594 144.222C420.896 144.431 421.145 144.7 421.34 145.028C421.536 145.356 421.634 145.759 421.634 146.236C421.634 146.786 421.489 147.283 421.201 147.727C420.916 148.171 420.498 148.524 419.948 148.786C419.401 149.048 418.737 149.179 417.955 149.179C417.225 149.179 416.594 149.061 416.06 148.826C415.53 148.591 415.112 148.263 414.808 147.842C414.506 147.421 414.335 146.932 414.295 146.375H415.568C415.601 146.759 415.731 147.078 415.956 147.33C416.185 147.578 416.473 147.764 416.821 147.886C417.172 148.006 417.55 148.065 417.955 148.065C418.425 148.065 418.848 147.989 419.222 147.837C419.597 147.681 419.893 147.465 420.112 147.19C420.331 146.912 420.44 146.587 420.44 146.216C420.44 145.878 420.346 145.603 420.157 145.391C419.968 145.179 419.719 145.006 419.411 144.874C419.103 144.741 418.77 144.625 418.412 144.526L417.159 144.168C416.364 143.939 415.734 143.612 415.27 143.188C414.806 142.764 414.574 142.209 414.574 141.523C414.574 140.953 414.728 140.455 415.036 140.031C415.348 139.604 415.765 139.272 416.289 139.037C416.816 138.798 417.404 138.679 418.054 138.679C418.71 138.679 419.294 138.797 419.804 139.032C420.314 139.264 420.719 139.582 421.017 139.987C421.319 140.391 421.478 140.85 421.494 141.364H420.301ZM426.703 149.159C425.968 149.159 425.333 148.997 424.799 148.672C424.269 148.344 423.86 147.886 423.571 147.3C423.286 146.71 423.144 146.024 423.144 145.241C423.144 144.459 423.286 143.77 423.571 143.173C423.86 142.573 424.261 142.106 424.774 141.771C425.291 141.433 425.895 141.264 426.584 141.264C426.982 141.264 427.374 141.33 427.762 141.463C428.15 141.596 428.503 141.811 428.821 142.109C429.139 142.404 429.393 142.795 429.582 143.283C429.771 143.77 429.865 144.37 429.865 145.082V145.58H423.979V144.565H428.672C428.672 144.134 428.586 143.75 428.414 143.412C428.244 143.074 428.003 142.807 427.688 142.612C427.376 142.416 427.008 142.318 426.584 142.318C426.117 142.318 425.712 142.434 425.371 142.666C425.033 142.895 424.773 143.193 424.59 143.561C424.408 143.929 424.317 144.323 424.317 144.744V145.42C424.317 145.997 424.416 146.486 424.615 146.887C424.817 147.285 425.097 147.588 425.455 147.797C425.813 148.002 426.229 148.105 426.703 148.105C427.012 148.105 427.29 148.062 427.539 147.976C427.79 147.886 428.008 147.754 428.19 147.578C428.372 147.399 428.513 147.177 428.612 146.912L429.746 147.23C429.627 147.615 429.426 147.953 429.144 148.244C428.863 148.533 428.515 148.758 428.1 148.92C427.686 149.08 427.22 149.159 426.703 149.159ZM432.823 138.818V149H431.65V138.818H432.823ZM438.174 149.159C437.438 149.159 436.804 148.997 436.27 148.672C435.74 148.344 435.33 147.886 435.042 147.3C434.757 146.71 434.614 146.024 434.614 145.241C434.614 144.459 434.757 143.77 435.042 143.173C435.33 142.573 435.731 142.106 436.245 141.771C436.762 141.433 437.365 141.264 438.055 141.264C438.452 141.264 438.845 141.33 439.233 141.463C439.621 141.596 439.974 141.811 440.292 142.109C440.61 142.404 440.864 142.795 441.053 143.283C441.241 143.77 441.336 144.37 441.336 145.082V145.58H435.45V144.565H440.143C440.143 144.134 440.057 143.75 439.884 143.412C439.715 143.074 439.473 142.807 439.158 142.612C438.847 142.416 438.479 142.318 438.055 142.318C437.587 142.318 437.183 142.434 436.842 142.666C436.504 142.895 436.243 143.193 436.061 143.561C435.879 143.929 435.788 144.323 435.788 144.744V145.42C435.788 145.997 435.887 146.486 436.086 146.887C436.288 147.285 436.568 147.588 436.926 147.797C437.284 148.002 437.7 148.105 438.174 148.105C438.482 148.105 438.761 148.062 439.009 147.976C439.261 147.886 439.478 147.754 439.661 147.578C439.843 147.399 439.984 147.177 440.083 146.912L441.217 147.23C441.097 147.615 440.897 147.953 440.615 148.244C440.333 148.533 439.985 148.758 439.571 148.92C439.157 149.08 438.691 149.159 438.174 149.159ZM446.223 149.159C445.507 149.159 444.891 148.99 444.374 148.652C443.857 148.314 443.459 147.848 443.18 147.255C442.902 146.662 442.763 145.984 442.763 145.222C442.763 144.446 442.905 143.762 443.19 143.168C443.479 142.572 443.88 142.106 444.393 141.771C444.911 141.433 445.514 141.264 446.203 141.264C446.74 141.264 447.224 141.364 447.655 141.562C448.086 141.761 448.439 142.04 448.714 142.398C448.989 142.756 449.16 143.173 449.226 143.651H448.053C447.963 143.303 447.764 142.994 447.456 142.726C447.151 142.454 446.74 142.318 446.223 142.318C445.766 142.318 445.365 142.437 445.02 142.676C444.679 142.911 444.412 143.245 444.219 143.675C444.031 144.103 443.936 144.605 443.936 145.182C443.936 145.772 444.029 146.286 444.214 146.723C444.403 147.161 444.669 147.5 445.01 147.742C445.355 147.984 445.759 148.105 446.223 148.105C446.528 148.105 446.805 148.052 447.053 147.946C447.302 147.84 447.512 147.688 447.685 147.489C447.857 147.29 447.98 147.051 448.053 146.773H449.226C449.16 147.223 448.996 147.629 448.734 147.991C448.475 148.349 448.132 148.634 447.705 148.846C447.28 149.055 446.786 149.159 446.223 149.159ZM454.262 141.364V142.358H450.305V141.364H454.262ZM451.458 139.534H452.631V146.812C452.631 147.144 452.679 147.393 452.776 147.558C452.875 147.721 453.001 147.83 453.153 147.886C453.309 147.939 453.473 147.966 453.646 147.966C453.775 147.966 453.881 147.959 453.964 147.946C454.047 147.929 454.113 147.916 454.163 147.906L454.401 148.96C454.322 148.99 454.211 149.02 454.068 149.05C453.926 149.083 453.745 149.099 453.526 149.099C453.195 149.099 452.87 149.028 452.552 148.886C452.237 148.743 451.975 148.526 451.766 148.234C451.561 147.943 451.458 147.575 451.458 147.131V139.534ZM460.72 151.844C460.521 151.844 460.344 151.827 460.188 151.794C460.032 151.764 459.925 151.734 459.865 151.705L460.163 150.67C460.591 150.78 460.947 150.777 461.232 150.661C461.517 150.548 461.764 150.206 461.973 149.636L462.192 149.04L459.368 141.364H460.641L462.749 147.449H462.828L464.936 141.364L466.219 141.384L462.967 150.114C462.821 150.501 462.641 150.823 462.425 151.078C462.21 151.337 461.96 151.529 461.675 151.655C461.393 151.781 461.075 151.844 460.72 151.844ZM470.6 149.159C469.911 149.159 469.306 148.995 468.785 148.667C468.268 148.339 467.864 147.88 467.572 147.29C467.284 146.7 467.14 146.01 467.14 145.222C467.14 144.426 467.284 143.732 467.572 143.138C467.864 142.545 468.268 142.085 468.785 141.756C469.306 141.428 469.911 141.264 470.6 141.264C471.289 141.264 471.893 141.428 472.41 141.756C472.93 142.085 473.334 142.545 473.623 143.138C473.914 143.732 474.06 144.426 474.06 145.222C474.06 146.01 473.914 146.7 473.623 147.29C473.334 147.88 472.93 148.339 472.41 148.667C471.893 148.995 471.289 149.159 470.6 149.159ZM470.6 148.105C471.124 148.105 471.555 147.971 471.893 147.702C472.231 147.434 472.481 147.081 472.643 146.643C472.806 146.206 472.887 145.732 472.887 145.222C472.887 144.711 472.806 144.236 472.643 143.795C472.481 143.354 472.231 142.998 471.893 142.726C471.555 142.454 471.124 142.318 470.6 142.318C470.076 142.318 469.645 142.454 469.307 142.726C468.969 142.998 468.719 143.354 468.557 143.795C468.394 144.236 468.313 144.711 468.313 145.222C468.313 145.732 468.394 146.206 468.557 146.643C468.719 147.081 468.969 147.434 469.307 147.702C469.645 147.971 470.076 148.105 470.6 148.105ZM480.664 145.878V141.364H481.837V149H480.664V147.707H480.584C480.405 148.095 480.127 148.425 479.749 148.697C479.371 148.965 478.894 149.099 478.317 149.099C477.84 149.099 477.416 148.995 477.044 148.786C476.673 148.574 476.382 148.256 476.169 147.832C475.957 147.404 475.851 146.866 475.851 146.216V141.364H477.025V146.136C477.025 146.693 477.18 147.137 477.492 147.469C477.807 147.8 478.208 147.966 478.695 147.966C478.987 147.966 479.283 147.891 479.585 147.742C479.89 147.593 480.145 147.364 480.35 147.056C480.559 146.748 480.664 146.355 480.664 145.878ZM483.986 149V141.364H485.119V142.517H485.199C485.338 142.139 485.59 141.833 485.955 141.597C486.319 141.362 486.73 141.244 487.188 141.244C487.274 141.244 487.382 141.246 487.511 141.249C487.64 141.253 487.738 141.258 487.804 141.264V142.457C487.764 142.447 487.673 142.433 487.531 142.413C487.392 142.389 487.244 142.378 487.088 142.378C486.717 142.378 486.386 142.456 486.094 142.612C485.806 142.764 485.577 142.976 485.408 143.248C485.242 143.516 485.159 143.823 485.159 144.168V149H483.986ZM496.453 141.364V142.358H492.496V141.364H496.453ZM493.65 139.534H494.823V146.812C494.823 147.144 494.871 147.393 494.967 147.558C495.066 147.721 495.192 147.83 495.345 147.886C495.501 147.939 495.665 147.966 495.837 147.966C495.966 147.966 496.072 147.959 496.155 147.946C496.238 147.929 496.304 147.916 496.354 147.906L496.593 148.96C496.513 148.99 496.402 149.02 496.26 149.05C496.117 149.083 495.936 149.099 495.718 149.099C495.386 149.099 495.061 149.028 494.743 148.886C494.428 148.743 494.167 148.526 493.958 148.234C493.752 147.943 493.65 147.575 493.65 147.131V139.534ZM501.338 149.159C500.602 149.159 499.968 148.997 499.434 148.672C498.904 148.344 498.494 147.886 498.206 147.3C497.921 146.71 497.778 146.024 497.778 145.241C497.778 144.459 497.921 143.77 498.206 143.173C498.494 142.573 498.895 142.106 499.409 141.771C499.926 141.433 500.529 141.264 501.219 141.264C501.616 141.264 502.009 141.33 502.397 141.463C502.785 141.596 503.138 141.811 503.456 142.109C503.774 142.404 504.028 142.795 504.217 143.283C504.406 143.77 504.5 144.37 504.5 145.082V145.58H498.614V144.565H503.307C503.307 144.134 503.221 143.75 503.048 143.412C502.879 143.074 502.637 142.807 502.322 142.612C502.011 142.416 501.643 142.318 501.219 142.318C500.751 142.318 500.347 142.434 500.006 142.666C499.668 142.895 499.407 143.193 499.225 143.561C499.043 143.929 498.952 144.323 498.952 144.744V145.42C498.952 145.997 499.051 146.486 499.25 146.887C499.452 147.285 499.732 147.588 500.09 147.797C500.448 148.002 500.864 148.105 501.338 148.105C501.646 148.105 501.925 148.062 502.173 147.976C502.425 147.886 502.642 147.754 502.825 147.578C503.007 147.399 503.148 147.177 503.247 146.912L504.381 147.23C504.261 147.615 504.061 147.953 503.779 148.244C503.497 148.533 503.149 148.758 502.735 148.92C502.321 149.08 501.855 149.159 501.338 149.159ZM508.532 149.179C508.048 149.179 507.609 149.088 507.214 148.906C506.82 148.72 506.507 148.453 506.275 148.105C506.043 147.754 505.927 147.33 505.927 146.832C505.927 146.395 506.013 146.04 506.185 145.768C506.358 145.493 506.588 145.278 506.876 145.122C507.165 144.966 507.483 144.85 507.831 144.774C508.182 144.695 508.535 144.632 508.89 144.585C509.354 144.526 509.73 144.481 510.018 144.451C510.31 144.418 510.522 144.363 510.655 144.287C510.791 144.211 510.859 144.078 510.859 143.889V143.849C510.859 143.359 510.724 142.978 510.456 142.706C510.191 142.434 509.788 142.298 509.248 142.298C508.688 142.298 508.249 142.421 507.93 142.666C507.612 142.911 507.388 143.173 507.259 143.452L506.146 143.054C506.344 142.59 506.61 142.229 506.941 141.97C507.276 141.708 507.64 141.526 508.035 141.423C508.433 141.317 508.824 141.264 509.208 141.264C509.453 141.264 509.735 141.294 510.053 141.354C510.375 141.41 510.685 141.528 510.983 141.707C511.285 141.886 511.535 142.156 511.734 142.517C511.933 142.878 512.032 143.362 512.032 143.969V149H510.859V147.966H510.799C510.719 148.132 510.587 148.309 510.401 148.498C510.216 148.687 509.969 148.848 509.661 148.98C509.352 149.113 508.976 149.179 508.532 149.179ZM508.711 148.125C509.175 148.125 509.566 148.034 509.884 147.852C510.206 147.669 510.448 147.434 510.61 147.146C510.776 146.857 510.859 146.554 510.859 146.236V145.162C510.809 145.222 510.7 145.276 510.531 145.326C510.365 145.372 510.173 145.414 509.954 145.45C509.738 145.483 509.528 145.513 509.322 145.54C509.12 145.563 508.956 145.583 508.83 145.599C508.525 145.639 508.24 145.704 507.975 145.793C507.713 145.879 507.501 146.01 507.339 146.186C507.18 146.358 507.1 146.594 507.1 146.892C507.1 147.3 507.251 147.608 507.553 147.817C507.857 148.022 508.244 148.125 508.711 148.125ZM514.173 149V141.364H515.307V142.557H515.406C515.566 142.149 515.822 141.833 516.177 141.607C516.532 141.379 516.958 141.264 517.455 141.264C517.959 141.264 518.378 141.379 518.713 141.607C519.051 141.833 519.314 142.149 519.503 142.557H519.583C519.778 142.162 520.071 141.849 520.463 141.617C520.854 141.382 521.323 141.264 521.869 141.264C522.552 141.264 523.111 141.478 523.545 141.906C523.979 142.33 524.196 142.991 524.196 143.889V149H523.023V143.889C523.023 143.326 522.869 142.923 522.561 142.681C522.252 142.439 521.889 142.318 521.472 142.318C520.935 142.318 520.519 142.481 520.224 142.805C519.929 143.127 519.781 143.535 519.781 144.028V149H518.588V143.77C518.588 143.336 518.447 142.986 518.166 142.721C517.884 142.452 517.521 142.318 517.077 142.318C516.772 142.318 516.487 142.399 516.222 142.562C515.96 142.724 515.748 142.95 515.585 143.238C515.426 143.523 515.347 143.853 515.347 144.227V149H514.173Z" fill="white" fill-opacity="0.7"/>
<path d="M791.854 140.647C791.76 140.553 791.633 140.5 791.5 140.5C791.368 140.5 791.24 140.553 791.147 140.647L785.5 146.293L779.853 140.647C779.759 140.555 779.633 140.505 779.502 140.506C779.37 140.507 779.245 140.559 779.152 140.652C779.059 140.745 779.006 140.87 779.005 141.002C779.004 141.133 779.055 141.259 779.146 141.354L785.146 147.354C785.24 147.447 785.367 147.5 785.5 147.5C785.633 147.5 785.76 147.447 785.853 147.354L791.853 141.354C791.947 141.26 792 141.133 792 141C792 140.868 791.947 140.74 791.854 140.647Z" fill="white" fill-opacity="0.95"/>
<path d="M402.733 183V172.818H408.878V173.912H403.966V177.352H408.56V178.446H403.966V181.906H408.957V183H402.733ZM411.816 175.364L413.646 178.486L415.475 175.364H416.827L414.362 179.182L416.827 183H415.475L413.646 180.037L411.816 183H410.464L412.89 179.182L410.464 175.364H411.816ZM420.749 183.179C420.265 183.179 419.826 183.088 419.431 182.906C419.037 182.72 418.724 182.453 418.492 182.105C418.26 181.754 418.144 181.33 418.144 180.832C418.144 180.395 418.23 180.04 418.402 179.768C418.575 179.493 418.805 179.278 419.093 179.122C419.382 178.966 419.7 178.85 420.048 178.774C420.399 178.695 420.752 178.632 421.107 178.585C421.571 178.526 421.947 178.481 422.235 178.451C422.527 178.418 422.739 178.363 422.872 178.287C423.008 178.211 423.075 178.078 423.075 177.889V177.849C423.075 177.359 422.941 176.978 422.673 176.706C422.408 176.434 422.005 176.298 421.465 176.298C420.905 176.298 420.465 176.421 420.147 176.666C419.829 176.911 419.605 177.173 419.476 177.452L418.362 177.054C418.561 176.59 418.826 176.229 419.158 175.97C419.493 175.708 419.857 175.526 420.252 175.423C420.649 175.317 421.04 175.264 421.425 175.264C421.67 175.264 421.952 175.294 422.27 175.354C422.592 175.41 422.901 175.528 423.2 175.707C423.501 175.886 423.752 176.156 423.95 176.517C424.149 176.878 424.249 177.362 424.249 177.969V183H423.075V181.966H423.016C422.936 182.132 422.804 182.309 422.618 182.498C422.432 182.687 422.186 182.848 421.877 182.98C421.569 183.113 421.193 183.179 420.749 183.179ZM420.928 182.125C421.392 182.125 421.783 182.034 422.101 181.852C422.423 181.669 422.664 181.434 422.827 181.146C422.993 180.857 423.075 180.554 423.075 180.236V179.162C423.026 179.222 422.916 179.276 422.747 179.326C422.582 179.372 422.389 179.414 422.171 179.45C421.955 179.483 421.745 179.513 421.539 179.54C421.337 179.563 421.173 179.583 421.047 179.599C420.742 179.639 420.457 179.704 420.192 179.793C419.93 179.879 419.718 180.01 419.556 180.186C419.396 180.358 419.317 180.594 419.317 180.892C419.317 181.3 419.468 181.608 419.769 181.817C420.074 182.022 420.46 182.125 420.928 182.125ZM426.39 183V175.364H427.524V176.557H427.623C427.782 176.149 428.039 175.833 428.394 175.607C428.748 175.379 429.174 175.264 429.672 175.264C430.175 175.264 430.595 175.379 430.929 175.607C431.267 175.833 431.531 176.149 431.72 176.557H431.799C431.995 176.162 432.288 175.849 432.679 175.617C433.07 175.382 433.539 175.264 434.086 175.264C434.769 175.264 435.328 175.478 435.762 175.906C436.196 176.33 436.413 176.991 436.413 177.889V183H435.24V177.889C435.24 177.326 435.086 176.923 434.777 176.681C434.469 176.439 434.106 176.318 433.689 176.318C433.152 176.318 432.736 176.481 432.441 176.805C432.146 177.127 431.998 177.535 431.998 178.028V183H430.805V177.77C430.805 177.336 430.664 176.986 430.382 176.721C430.101 176.452 429.738 176.318 429.294 176.318C428.989 176.318 428.704 176.399 428.439 176.562C428.177 176.724 427.965 176.95 427.802 177.238C427.643 177.523 427.564 177.853 427.564 178.227V183H426.39ZM438.558 185.864V175.364H439.692V176.577H439.831C439.917 176.444 440.036 176.275 440.189 176.07C440.345 175.861 440.567 175.675 440.855 175.513C441.147 175.347 441.541 175.264 442.038 175.264C442.681 175.264 443.248 175.425 443.739 175.746C444.229 176.068 444.612 176.524 444.887 177.114C445.162 177.704 445.3 178.4 445.3 179.202C445.3 180.01 445.162 180.711 444.887 181.305C444.612 181.895 444.231 182.352 443.744 182.677C443.256 182.998 442.695 183.159 442.058 183.159C441.568 183.159 441.175 183.078 440.88 182.915C440.585 182.75 440.358 182.562 440.199 182.354C440.04 182.142 439.917 181.966 439.831 181.827H439.732V185.864H438.558ZM439.712 179.182C439.712 179.759 439.796 180.267 439.965 180.708C440.134 181.146 440.381 181.489 440.706 181.737C441.031 181.982 441.429 182.105 441.899 182.105C442.39 182.105 442.799 181.976 443.127 181.717C443.459 181.455 443.707 181.104 443.873 180.663C444.042 180.219 444.126 179.725 444.126 179.182C444.126 178.645 444.044 178.161 443.878 177.73C443.715 177.296 443.469 176.953 443.137 176.701C442.809 176.446 442.396 176.318 441.899 176.318C441.422 176.318 441.021 176.439 440.696 176.681C440.371 176.92 440.126 177.254 439.96 177.685C439.795 178.113 439.712 178.612 439.712 179.182ZM448.263 172.818V183H447.089V172.818H448.263ZM453.613 183.159C452.878 183.159 452.243 182.997 451.709 182.672C451.179 182.344 450.77 181.886 450.481 181.3C450.196 180.71 450.054 180.024 450.054 179.241C450.054 178.459 450.196 177.77 450.481 177.173C450.77 176.573 451.171 176.106 451.684 175.771C452.202 175.433 452.805 175.264 453.494 175.264C453.892 175.264 454.285 175.33 454.672 175.463C455.06 175.596 455.413 175.811 455.731 176.109C456.05 176.404 456.303 176.795 456.492 177.283C456.681 177.77 456.775 178.37 456.775 179.082V179.58H450.889V178.565H455.582C455.582 178.134 455.496 177.75 455.324 177.412C455.155 177.074 454.913 176.807 454.598 176.612C454.286 176.416 453.918 176.318 453.494 176.318C453.027 176.318 452.622 176.434 452.281 176.666C451.943 176.895 451.683 177.193 451.501 177.561C451.318 177.929 451.227 178.323 451.227 178.744V179.42C451.227 179.997 451.327 180.486 451.525 180.887C451.728 181.285 452.008 181.588 452.366 181.797C452.724 182.002 453.14 182.105 453.613 182.105C453.922 182.105 454.2 182.062 454.449 181.976C454.701 181.886 454.918 181.754 455.1 181.578C455.282 181.399 455.423 181.177 455.523 180.912L456.656 181.23C456.537 181.615 456.336 181.953 456.055 182.244C455.773 182.533 455.425 182.758 455.01 182.92C454.596 183.08 454.131 183.159 453.613 183.159ZM459.415 183.08C459.17 183.08 458.96 182.992 458.784 182.816C458.608 182.64 458.52 182.43 458.52 182.185C458.52 181.939 458.608 181.729 458.784 181.553C458.96 181.378 459.17 181.29 459.415 181.29C459.661 181.29 459.871 181.378 460.047 181.553C460.222 181.729 460.31 181.939 460.31 182.185C460.31 182.347 460.269 182.496 460.186 182.632C460.106 182.768 459.999 182.877 459.863 182.96C459.73 183.04 459.581 183.08 459.415 183.08ZM459.415 177.412C459.17 177.412 458.96 177.324 458.784 177.148C458.608 176.973 458.52 176.762 458.52 176.517C458.52 176.272 458.608 176.061 458.784 175.886C458.96 175.71 459.17 175.622 459.415 175.622C459.661 175.622 459.871 175.71 460.047 175.886C460.222 176.061 460.31 176.272 460.31 176.517C460.31 176.679 460.269 176.829 460.186 176.964C460.106 177.1 459.999 177.21 459.863 177.293C459.73 177.372 459.581 177.412 459.415 177.412ZM466.93 183H465.637L469.376 172.818H470.649L474.387 183H473.095L470.052 174.429H469.972L466.93 183ZM467.407 179.023H472.617V180.116H467.407V179.023ZM481.101 175.364L478.278 183H477.084L474.26 175.364H475.533L477.641 181.449H477.721L479.829 175.364H481.101ZM485.578 183.159C484.843 183.159 484.208 182.997 483.674 182.672C483.144 182.344 482.735 181.886 482.446 181.3C482.161 180.71 482.019 180.024 482.019 179.241C482.019 178.459 482.161 177.77 482.446 177.173C482.735 176.573 483.136 176.106 483.649 175.771C484.166 175.433 484.77 175.264 485.459 175.264C485.857 175.264 486.249 175.33 486.637 175.463C487.025 175.596 487.378 175.811 487.696 176.109C488.014 176.404 488.268 176.795 488.457 177.283C488.646 177.77 488.74 178.37 488.74 179.082V179.58H482.854V178.565H487.547C487.547 178.134 487.461 177.75 487.289 177.412C487.119 177.074 486.878 176.807 486.563 176.612C486.251 176.416 485.883 176.318 485.459 176.318C484.992 176.318 484.587 176.434 484.246 176.666C483.908 176.895 483.648 177.193 483.465 177.561C483.283 177.929 483.192 178.323 483.192 178.744V179.42C483.192 179.997 483.291 180.486 483.49 180.887C483.692 181.285 483.972 181.588 484.33 181.797C484.688 182.002 485.104 182.105 485.578 182.105C485.887 182.105 486.165 182.062 486.414 181.976C486.665 181.886 486.883 181.754 487.065 181.578C487.247 181.399 487.388 181.177 487.487 180.912L488.621 181.23C488.502 181.615 488.301 181.953 488.019 182.244C487.738 182.533 487.39 182.758 486.975 182.92C486.561 183.08 486.095 183.159 485.578 183.159ZM491.698 178.406V183H490.525V175.364H491.659V176.557H491.758C491.937 176.169 492.209 175.857 492.573 175.622C492.938 175.384 493.409 175.264 493.985 175.264C494.502 175.264 494.955 175.37 495.343 175.582C495.73 175.791 496.032 176.109 496.247 176.537C496.463 176.961 496.57 177.498 496.57 178.148V183H495.397V178.227C495.397 177.627 495.241 177.16 494.93 176.825C494.618 176.487 494.191 176.318 493.647 176.318C493.273 176.318 492.938 176.399 492.643 176.562C492.351 176.724 492.121 176.961 491.952 177.273C491.783 177.584 491.698 177.962 491.698 178.406ZM501.797 186.023C501.23 186.023 500.743 185.95 500.335 185.804C499.928 185.661 499.588 185.473 499.316 185.237C499.048 185.005 498.834 184.757 498.675 184.491L499.609 183.835C499.715 183.974 499.85 184.134 500.012 184.312C500.174 184.495 500.397 184.652 500.678 184.785C500.963 184.921 501.336 184.989 501.797 184.989C502.413 184.989 502.922 184.839 503.323 184.541C503.724 184.243 503.925 183.776 503.925 183.139V181.588H503.825C503.739 181.727 503.616 181.9 503.457 182.105C503.302 182.307 503.076 182.488 502.781 182.647C502.49 182.803 502.095 182.881 501.598 182.881C500.982 182.881 500.428 182.735 499.938 182.443C499.45 182.152 499.064 181.727 498.779 181.17C498.497 180.614 498.357 179.937 498.357 179.142C498.357 178.36 498.494 177.679 498.769 177.099C499.044 176.515 499.427 176.065 499.918 175.746C500.408 175.425 500.975 175.264 501.618 175.264C502.115 175.264 502.509 175.347 502.801 175.513C503.096 175.675 503.321 175.861 503.477 176.07C503.636 176.275 503.759 176.444 503.845 176.577H503.964V175.364H505.098V183.219C505.098 183.875 504.949 184.409 504.651 184.82C504.356 185.234 503.958 185.537 503.457 185.729C502.96 185.925 502.407 186.023 501.797 186.023ZM501.757 181.827C502.228 181.827 502.625 181.719 502.95 181.504C503.275 181.288 503.522 180.978 503.691 180.574C503.86 180.17 503.945 179.686 503.945 179.122C503.945 178.572 503.862 178.086 503.696 177.665C503.53 177.245 503.285 176.915 502.96 176.676C502.635 176.437 502.234 176.318 501.757 176.318C501.26 176.318 500.846 176.444 500.514 176.696C500.186 176.948 499.939 177.286 499.773 177.71C499.611 178.134 499.53 178.605 499.53 179.122C499.53 179.652 499.613 180.121 499.778 180.529C499.947 180.933 500.196 181.252 500.524 181.484C500.856 181.712 501.267 181.827 501.757 181.827ZM510.447 183.159C509.712 183.159 509.077 182.997 508.543 182.672C508.013 182.344 507.604 181.886 507.315 181.3C507.03 180.71 506.888 180.024 506.888 179.241C506.888 178.459 507.03 177.77 507.315 177.173C507.604 176.573 508.005 176.106 508.518 175.771C509.036 175.433 509.639 175.264 510.328 175.264C510.726 175.264 511.119 175.33 511.506 175.463C511.894 175.596 512.247 175.811 512.565 176.109C512.884 176.404 513.137 176.795 513.326 177.283C513.515 177.77 513.609 178.37 513.609 179.082V179.58H507.723V178.565H512.416C512.416 178.134 512.33 177.75 512.158 177.412C511.989 177.074 511.747 176.807 511.432 176.612C511.12 176.416 510.752 176.318 510.328 176.318C509.861 176.318 509.456 176.434 509.115 176.666C508.777 176.895 508.517 177.193 508.335 177.561C508.152 177.929 508.061 178.323 508.061 178.744V179.42C508.061 179.997 508.161 180.486 508.359 180.887C508.562 181.285 508.842 181.588 509.2 181.797C509.558 182.002 509.973 182.105 510.447 182.105C510.756 182.105 511.034 182.062 511.283 181.976C511.535 181.886 511.752 181.754 511.934 181.578C512.116 181.399 512.257 181.177 512.357 180.912L513.49 181.23C513.371 181.615 513.17 181.953 512.888 182.244C512.607 182.533 512.259 182.758 511.844 182.92C511.43 183.08 510.964 183.159 510.447 183.159ZM515.394 183V175.364H516.528V176.517H516.607C516.746 176.139 516.998 175.833 517.363 175.597C517.728 175.362 518.138 175.244 518.596 175.244C518.682 175.244 518.79 175.246 518.919 175.249C519.048 175.253 519.146 175.258 519.212 175.264V176.457C519.173 176.447 519.081 176.433 518.939 176.413C518.8 176.389 518.652 176.378 518.496 176.378C518.125 176.378 517.794 176.456 517.502 176.612C517.214 176.764 516.985 176.976 516.816 177.248C516.65 177.516 516.567 177.823 516.567 178.168V183H515.394ZM526.012 177.074L524.958 177.372C524.892 177.196 524.794 177.026 524.665 176.86C524.539 176.691 524.367 176.552 524.148 176.442C523.929 176.333 523.649 176.278 523.308 176.278C522.84 176.278 522.451 176.386 522.139 176.602C521.831 176.814 521.677 177.084 521.677 177.412C521.677 177.704 521.783 177.934 521.995 178.103C522.207 178.272 522.539 178.413 522.99 178.526L524.123 178.804C524.806 178.97 525.315 179.223 525.649 179.565C525.984 179.903 526.151 180.339 526.151 180.872C526.151 181.31 526.026 181.701 525.774 182.045C525.525 182.39 525.177 182.662 524.73 182.861C524.282 183.06 523.762 183.159 523.169 183.159C522.39 183.159 521.745 182.99 521.235 182.652C520.724 182.314 520.401 181.82 520.265 181.17L521.379 180.892C521.485 181.303 521.685 181.611 521.98 181.817C522.279 182.022 522.668 182.125 523.149 182.125C523.695 182.125 524.13 182.009 524.451 181.777C524.776 181.542 524.938 181.26 524.938 180.932C524.938 180.667 524.846 180.445 524.66 180.266C524.474 180.083 524.189 179.947 523.805 179.858L522.532 179.56C521.833 179.394 521.319 179.137 520.991 178.789C520.666 178.438 520.504 177.999 520.504 177.472C520.504 177.041 520.625 176.66 520.867 176.328C521.112 175.997 521.445 175.737 521.866 175.548C522.29 175.359 522.771 175.264 523.308 175.264C524.063 175.264 524.657 175.43 525.088 175.761C525.522 176.093 525.83 176.53 526.012 177.074ZM529.668 181.608L529.588 182.145C529.532 182.523 529.446 182.927 529.33 183.358C529.217 183.789 529.099 184.195 528.977 184.576C528.854 184.957 528.753 185.26 528.673 185.486H527.778C527.821 185.274 527.878 184.994 527.947 184.646C528.017 184.298 528.087 183.908 528.156 183.477C528.229 183.05 528.289 182.612 528.335 182.165L528.395 181.608H529.668ZM542.898 176C542.789 175.665 542.645 175.365 542.466 175.1C542.29 174.832 542.08 174.603 541.834 174.414C541.592 174.225 541.317 174.081 541.009 173.982C540.701 173.882 540.363 173.832 539.995 173.832C539.392 173.832 538.843 173.988 538.349 174.3C537.855 174.611 537.463 175.07 537.171 175.677C536.879 176.283 536.733 177.027 536.733 177.909C536.733 178.791 536.881 179.535 537.176 180.141C537.471 180.748 537.87 181.207 538.374 181.518C538.878 181.83 539.445 181.986 540.074 181.986C540.658 181.986 541.171 181.862 541.616 181.613C542.063 181.361 542.411 181.006 542.66 180.549C542.912 180.088 543.037 179.546 543.037 178.923L543.415 179.003H540.353V177.909H544.231V179.003C544.231 179.841 544.052 180.571 543.694 181.19C543.339 181.81 542.849 182.291 542.222 182.632C541.599 182.97 540.883 183.139 540.074 183.139C539.173 183.139 538.381 182.927 537.698 182.503C537.019 182.079 536.488 181.475 536.107 180.693C535.729 179.911 535.54 178.983 535.54 177.909C535.54 177.104 535.648 176.379 535.863 175.737C536.082 175.09 536.39 174.54 536.788 174.086C537.186 173.632 537.657 173.284 538.2 173.042C538.744 172.8 539.342 172.679 539.995 172.679C540.532 172.679 541.032 172.76 541.496 172.923C541.964 173.082 542.38 173.309 542.744 173.604C543.112 173.895 543.419 174.245 543.664 174.653C543.909 175.057 544.078 175.506 544.171 176H542.898ZM550.996 179.878V175.364H552.169V183H550.996V181.707H550.916C550.737 182.095 550.459 182.425 550.081 182.697C549.703 182.965 549.226 183.099 548.649 183.099C548.172 183.099 547.748 182.995 547.376 182.786C547.005 182.574 546.714 182.256 546.501 181.832C546.289 181.404 546.183 180.866 546.183 180.216V175.364H547.357V180.136C547.357 180.693 547.512 181.137 547.824 181.469C548.139 181.8 548.54 181.966 549.027 181.966C549.319 181.966 549.615 181.891 549.917 181.742C550.222 181.593 550.477 181.364 550.683 181.056C550.891 180.748 550.996 180.355 550.996 179.878ZM556.565 183.179C556.081 183.179 555.642 183.088 555.248 182.906C554.853 182.72 554.54 182.453 554.308 182.105C554.076 181.754 553.96 181.33 553.96 180.832C553.96 180.395 554.046 180.04 554.219 179.768C554.391 179.493 554.621 179.278 554.91 179.122C555.198 178.966 555.516 178.85 555.864 178.774C556.215 178.695 556.568 178.632 556.923 178.585C557.387 178.526 557.763 178.481 558.052 178.451C558.343 178.418 558.555 178.363 558.688 178.287C558.824 178.211 558.892 178.078 558.892 177.889V177.849C558.892 177.359 558.758 176.978 558.489 176.706C558.224 176.434 557.821 176.298 557.281 176.298C556.721 176.298 556.282 176.421 555.964 176.666C555.645 176.911 555.422 177.173 555.292 177.452L554.179 177.054C554.378 176.59 554.643 176.229 554.974 175.97C555.309 175.708 555.674 175.526 556.068 175.423C556.466 175.317 556.857 175.264 557.241 175.264C557.487 175.264 557.768 175.294 558.086 175.354C558.408 175.41 558.718 175.528 559.016 175.707C559.318 175.886 559.568 176.156 559.767 176.517C559.966 176.878 560.065 177.362 560.065 177.969V183H558.892V181.966H558.832C558.753 182.132 558.62 182.309 558.434 182.498C558.249 182.687 558.002 182.848 557.694 182.98C557.385 183.113 557.009 183.179 556.565 183.179ZM556.744 182.125C557.208 182.125 557.599 182.034 557.917 181.852C558.239 181.669 558.481 181.434 558.643 181.146C558.809 180.857 558.892 180.554 558.892 180.236V179.162C558.842 179.222 558.733 179.276 558.564 179.326C558.398 179.372 558.206 179.414 557.987 179.45C557.772 179.483 557.561 179.513 557.356 179.54C557.153 179.563 556.989 179.583 556.863 179.599C556.559 179.639 556.273 179.704 556.008 179.793C555.747 179.879 555.534 180.01 555.372 180.186C555.213 180.358 555.133 180.594 555.133 180.892C555.133 181.3 555.284 181.608 555.586 181.817C555.891 182.022 556.277 182.125 556.744 182.125ZM562.207 183V175.364H563.34V176.517H563.42C563.559 176.139 563.811 175.833 564.175 175.597C564.54 175.362 564.951 175.244 565.408 175.244C565.495 175.244 565.602 175.246 565.732 175.249C565.861 175.253 565.959 175.258 566.025 175.264V176.457C565.985 176.447 565.894 176.433 565.751 176.413C565.612 176.389 565.465 176.378 565.309 176.378C564.938 176.378 564.606 176.456 564.315 176.612C564.026 176.764 563.798 176.976 563.629 177.248C563.463 177.516 563.38 177.823 563.38 178.168V183H562.207ZM570.067 183.159C569.43 183.159 568.869 182.998 568.381 182.677C567.894 182.352 567.513 181.895 567.238 181.305C566.963 180.711 566.825 180.01 566.825 179.202C566.825 178.4 566.963 177.704 567.238 177.114C567.513 176.524 567.896 176.068 568.386 175.746C568.877 175.425 569.444 175.264 570.087 175.264C570.584 175.264 570.977 175.347 571.265 175.513C571.557 175.675 571.779 175.861 571.931 176.07C572.087 176.275 572.208 176.444 572.294 176.577H572.393V172.818H573.567V183H572.433V181.827H572.294C572.208 181.966 572.085 182.142 571.926 182.354C571.767 182.562 571.54 182.75 571.245 182.915C570.95 183.078 570.557 183.159 570.067 183.159ZM570.226 182.105C570.696 182.105 571.094 181.982 571.419 181.737C571.744 181.489 571.991 181.146 572.16 180.708C572.329 180.267 572.413 179.759 572.413 179.182C572.413 178.612 572.33 178.113 572.165 177.685C571.999 177.254 571.754 176.92 571.429 176.681C571.104 176.439 570.703 176.318 570.226 176.318C569.729 176.318 569.314 176.446 568.983 176.701C568.655 176.953 568.408 177.296 568.242 177.73C568.08 178.161 567.999 178.645 567.999 179.182C567.999 179.725 568.081 180.219 568.247 180.663C568.416 181.104 568.665 181.455 568.993 181.717C569.324 181.976 569.735 182.105 570.226 182.105ZM575.879 183V175.364H577.052V183H575.879ZM576.475 174.091C576.246 174.091 576.049 174.013 575.884 173.857C575.721 173.701 575.64 173.514 575.64 173.295C575.64 173.077 575.721 172.889 575.884 172.734C576.049 172.578 576.246 172.5 576.475 172.5C576.704 172.5 576.899 172.578 577.062 172.734C577.228 172.889 577.31 173.077 577.31 173.295C577.31 173.514 577.228 173.701 577.062 173.857C576.899 174.013 576.704 174.091 576.475 174.091ZM581.448 183.179C580.964 183.179 580.525 183.088 580.131 182.906C579.736 182.72 579.423 182.453 579.191 182.105C578.959 181.754 578.843 181.33 578.843 180.832C578.843 180.395 578.929 180.04 579.101 179.768C579.274 179.493 579.504 179.278 579.792 179.122C580.081 178.966 580.399 178.85 580.747 178.774C581.098 178.695 581.451 178.632 581.806 178.585C582.27 178.526 582.646 178.481 582.934 178.451C583.226 178.418 583.438 178.363 583.571 178.287C583.707 178.211 583.775 178.078 583.775 177.889V177.849C583.775 177.359 583.64 176.978 583.372 176.706C583.107 176.434 582.704 176.298 582.164 176.298C581.604 176.298 581.165 176.421 580.846 176.666C580.528 176.911 580.305 177.173 580.175 177.452L579.062 177.054C579.26 176.59 579.526 176.229 579.857 175.97C580.192 175.708 580.556 175.526 580.951 175.423C581.349 175.317 581.74 175.264 582.124 175.264C582.369 175.264 582.651 175.294 582.969 175.354C583.291 175.41 583.601 175.528 583.899 175.707C584.201 175.886 584.451 176.156 584.65 176.517C584.849 176.878 584.948 177.362 584.948 177.969V183H583.775V181.966H583.715C583.635 182.132 583.503 182.309 583.317 182.498C583.132 182.687 582.885 182.848 582.577 182.98C582.268 183.113 581.892 183.179 581.448 183.179ZM581.627 182.125C582.091 182.125 582.482 182.034 582.8 181.852C583.122 181.669 583.364 181.434 583.526 181.146C583.692 180.857 583.775 180.554 583.775 180.236V179.162C583.725 179.222 583.616 179.276 583.447 179.326C583.281 179.372 583.089 179.414 582.87 179.45C582.654 179.483 582.444 179.513 582.238 179.54C582.036 179.563 581.872 179.583 581.746 179.599C581.441 179.639 581.156 179.704 580.891 179.793C580.629 179.879 580.417 180.01 580.255 180.186C580.096 180.358 580.016 180.594 580.016 180.892C580.016 181.3 580.167 181.608 580.469 181.817C580.773 182.022 581.16 182.125 581.627 182.125ZM588.263 178.406V183H587.089V175.364H588.223V176.557H588.322C588.501 176.169 588.773 175.857 589.138 175.622C589.502 175.384 589.973 175.264 590.55 175.264C591.067 175.264 591.519 175.37 591.907 175.582C592.295 175.791 592.596 176.109 592.812 176.537C593.027 176.961 593.135 177.498 593.135 178.148V183H591.962V178.227C591.962 177.627 591.806 177.16 591.494 176.825C591.183 176.487 590.755 176.318 590.212 176.318C589.837 176.318 589.502 176.399 589.207 176.562C588.916 176.724 588.685 176.961 588.516 177.273C588.347 177.584 588.263 177.962 588.263 178.406ZM600.688 177.074L599.634 177.372C599.568 177.196 599.47 177.026 599.341 176.86C599.215 176.691 599.042 176.552 598.824 176.442C598.605 176.333 598.325 176.278 597.983 176.278C597.516 176.278 597.127 176.386 596.815 176.602C596.507 176.814 596.353 177.084 596.353 177.412C596.353 177.704 596.459 177.934 596.671 178.103C596.883 178.272 597.215 178.413 597.665 178.526L598.799 178.804C599.482 178.97 599.99 179.223 600.325 179.565C600.66 179.903 600.827 180.339 600.827 180.872C600.827 181.31 600.701 181.701 600.449 182.045C600.201 182.39 599.853 182.662 599.405 182.861C598.958 183.06 598.438 183.159 597.844 183.159C597.065 183.159 596.421 182.99 595.91 182.652C595.4 182.314 595.077 181.82 594.941 181.17L596.055 180.892C596.161 181.303 596.361 181.611 596.656 181.817C596.954 182.022 597.344 182.125 597.824 182.125C598.371 182.125 598.805 182.009 599.127 181.777C599.452 181.542 599.614 181.26 599.614 180.932C599.614 180.667 599.521 180.445 599.336 180.266C599.15 180.083 598.865 179.947 598.481 179.858L597.208 179.56C596.509 179.394 595.995 179.137 595.667 178.789C595.342 178.438 595.18 177.999 595.18 177.472C595.18 177.041 595.3 176.66 595.542 176.328C595.788 175.997 596.121 175.737 596.542 175.548C596.966 175.359 597.447 175.264 597.983 175.264C598.739 175.264 599.332 175.43 599.763 175.761C600.198 176.093 600.506 176.53 600.688 177.074ZM609.633 183.159C608.944 183.159 608.339 182.995 607.819 182.667C607.301 182.339 606.897 181.88 606.605 181.29C606.317 180.7 606.173 180.01 606.173 179.222C606.173 178.426 606.317 177.732 606.605 177.138C606.897 176.545 607.301 176.085 607.819 175.756C608.339 175.428 608.944 175.264 609.633 175.264C610.323 175.264 610.926 175.428 611.443 175.756C611.963 176.085 612.368 176.545 612.656 177.138C612.948 177.732 613.093 178.426 613.093 179.222C613.093 180.01 612.948 180.7 612.656 181.29C612.368 181.88 611.963 182.339 611.443 182.667C610.926 182.995 610.323 183.159 609.633 183.159ZM609.633 182.105C610.157 182.105 610.588 181.971 610.926 181.702C611.264 181.434 611.514 181.081 611.676 180.643C611.839 180.206 611.92 179.732 611.92 179.222C611.92 178.711 611.839 178.236 611.676 177.795C611.514 177.354 611.264 176.998 610.926 176.726C610.588 176.454 610.157 176.318 609.633 176.318C609.109 176.318 608.679 176.454 608.341 176.726C608.002 176.998 607.752 177.354 607.59 177.795C607.427 178.236 607.346 178.711 607.346 179.222C607.346 179.732 607.427 180.206 607.59 180.643C607.752 181.081 608.002 181.434 608.341 181.702C608.679 181.971 609.109 182.105 609.633 182.105ZM618.285 175.364V176.358H614.169V175.364H618.285ZM615.401 183V174.31C615.401 173.872 615.504 173.508 615.71 173.216C615.915 172.924 616.182 172.705 616.51 172.56C616.838 172.414 617.185 172.341 617.549 172.341C617.838 172.341 618.073 172.364 618.255 172.411C618.437 172.457 618.573 172.5 618.663 172.54L618.325 173.554C618.265 173.534 618.182 173.509 618.076 173.479C617.973 173.45 617.838 173.435 617.669 173.435C617.281 173.435 617.001 173.532 616.828 173.728C616.659 173.924 616.575 174.21 616.575 174.588V183H615.401ZM627.188 175.364V176.358H623.23V175.364H627.188ZM624.384 173.534H625.557V180.812C625.557 181.144 625.605 181.393 625.701 181.558C625.801 181.721 625.927 181.83 626.079 181.886C626.235 181.939 626.399 181.966 626.571 181.966C626.701 181.966 626.807 181.959 626.89 181.946C626.972 181.929 627.039 181.916 627.088 181.906L627.327 182.96C627.248 182.99 627.136 183.02 626.994 183.05C626.851 183.083 626.671 183.099 626.452 183.099C626.121 183.099 625.796 183.028 625.478 182.886C625.163 182.743 624.901 182.526 624.692 182.234C624.487 181.943 624.384 181.575 624.384 181.131V173.534ZM630.29 178.406V183H629.117V172.818H630.29V176.557H630.39C630.569 176.162 630.837 175.849 631.195 175.617C631.556 175.382 632.037 175.264 632.637 175.264C633.157 175.264 633.613 175.369 634.004 175.577C634.395 175.783 634.698 176.099 634.914 176.527C635.132 176.951 635.242 177.491 635.242 178.148V183H634.069V178.227C634.069 177.621 633.911 177.152 633.596 176.82C633.285 176.486 632.852 176.318 632.299 176.318C631.914 176.318 631.569 176.399 631.265 176.562C630.963 176.724 630.724 176.961 630.549 177.273C630.376 177.584 630.29 177.962 630.29 178.406ZM640.59 183.159C639.854 183.159 639.22 182.997 638.686 182.672C638.156 182.344 637.746 181.886 637.458 181.3C637.173 180.71 637.03 180.024 637.03 179.241C637.03 178.459 637.173 177.77 637.458 177.173C637.746 176.573 638.147 176.106 638.661 175.771C639.178 175.433 639.781 175.264 640.471 175.264C640.868 175.264 641.261 175.33 641.649 175.463C642.037 175.596 642.39 175.811 642.708 176.109C643.026 176.404 643.28 176.795 643.469 177.283C643.657 177.77 643.752 178.37 643.752 179.082V179.58H637.866V178.565H642.559C642.559 178.134 642.473 177.75 642.3 177.412C642.131 177.074 641.889 176.807 641.574 176.612C641.263 176.416 640.895 176.318 640.471 176.318C640.003 176.318 639.599 176.434 639.258 176.666C638.92 176.895 638.659 177.193 638.477 177.561C638.295 177.929 638.204 178.323 638.204 178.744V179.42C638.204 179.997 638.303 180.486 638.502 180.887C638.704 181.285 638.984 181.588 639.342 181.797C639.7 182.002 640.116 182.105 640.59 182.105C640.898 182.105 641.177 182.062 641.425 181.976C641.677 181.886 641.894 181.754 642.077 181.578C642.259 181.399 642.4 181.177 642.499 180.912L643.633 181.23C643.513 181.615 643.313 181.953 643.031 182.244C642.749 182.533 642.401 182.758 641.987 182.92C641.573 183.08 641.107 183.159 640.59 183.159ZM656.594 176C656.484 175.665 656.34 175.365 656.161 175.1C655.985 174.832 655.775 174.603 655.53 174.414C655.288 174.225 655.013 174.081 654.704 173.982C654.396 173.882 654.058 173.832 653.69 173.832C653.087 173.832 652.538 173.988 652.045 174.3C651.551 174.611 651.158 175.07 650.866 175.677C650.575 176.283 650.429 177.027 650.429 177.909C650.429 178.791 650.576 179.535 650.871 180.141C651.166 180.748 651.566 181.207 652.069 181.518C652.573 181.83 653.14 181.986 653.77 181.986C654.353 181.986 654.867 181.862 655.311 181.613C655.758 181.361 656.106 181.006 656.355 180.549C656.607 180.088 656.733 179.546 656.733 178.923L657.111 179.003H654.048V177.909H657.926V179.003C657.926 179.841 657.747 180.571 657.389 181.19C657.034 181.81 656.544 182.291 655.917 182.632C655.294 182.97 654.578 183.139 653.77 183.139C652.868 183.139 652.076 182.927 651.393 182.503C650.714 182.079 650.184 181.475 649.802 180.693C649.425 179.911 649.236 178.983 649.236 177.909C649.236 177.104 649.343 176.379 649.559 175.737C649.778 175.09 650.086 174.54 650.483 174.086C650.881 173.632 651.352 173.284 651.895 173.042C652.439 172.8 653.037 172.679 653.69 172.679C654.227 172.679 654.728 172.76 655.192 172.923C655.659 173.082 656.075 173.309 656.439 173.604C656.807 173.895 657.114 174.245 657.359 174.653C657.604 175.057 657.773 175.506 657.866 176H656.594ZM662.126 183.179C661.642 183.179 661.203 183.088 660.808 182.906C660.414 182.72 660.101 182.453 659.869 182.105C659.637 181.754 659.521 181.33 659.521 180.832C659.521 180.395 659.607 180.04 659.779 179.768C659.951 179.493 660.182 179.278 660.47 179.122C660.759 178.966 661.077 178.85 661.425 178.774C661.776 178.695 662.129 178.632 662.484 178.585C662.948 178.526 663.324 178.481 663.612 178.451C663.904 178.418 664.116 178.363 664.249 178.287C664.384 178.211 664.452 178.078 664.452 177.889V177.849C664.452 177.359 664.318 176.978 664.05 176.706C663.785 176.434 663.382 176.298 662.842 176.298C662.281 176.298 661.842 176.421 661.524 176.666C661.206 176.911 660.982 177.173 660.853 177.452L659.739 177.054C659.938 176.59 660.203 176.229 660.535 175.97C660.87 175.708 661.234 175.526 661.629 175.423C662.026 175.317 662.417 175.264 662.802 175.264C663.047 175.264 663.329 175.294 663.647 175.354C663.969 175.41 664.278 175.528 664.577 175.707C664.878 175.886 665.129 176.156 665.327 176.517C665.526 176.878 665.626 177.362 665.626 177.969V183H664.452V181.966H664.393C664.313 182.132 664.181 182.309 663.995 182.498C663.809 182.687 663.563 182.848 663.254 182.98C662.946 183.113 662.57 183.179 662.126 183.179ZM662.305 182.125C662.769 182.125 663.16 182.034 663.478 181.852C663.799 181.669 664.041 181.434 664.204 181.146C664.37 180.857 664.452 180.554 664.452 180.236V179.162C664.403 179.222 664.293 179.276 664.124 179.326C663.959 179.372 663.766 179.414 663.548 179.45C663.332 179.483 663.122 179.513 662.916 179.54C662.714 179.563 662.55 179.583 662.424 179.599C662.119 179.639 661.834 179.704 661.569 179.793C661.307 179.879 661.095 180.01 660.933 180.186C660.773 180.358 660.694 180.594 660.694 180.892C660.694 181.3 660.845 181.608 661.146 181.817C661.451 182.022 661.837 182.125 662.305 182.125ZM668.941 172.818V183H667.767V172.818H668.941ZM673.337 183.179C672.853 183.179 672.414 183.088 672.019 182.906C671.625 182.72 671.312 182.453 671.08 182.105C670.848 181.754 670.732 181.33 670.732 180.832C670.732 180.395 670.818 180.04 670.99 179.768C671.162 179.493 671.393 179.278 671.681 179.122C671.969 178.966 672.288 178.85 672.636 178.774C672.987 178.695 673.34 178.632 673.695 178.585C674.159 178.526 674.535 178.481 674.823 178.451C675.115 178.418 675.327 178.363 675.46 178.287C675.595 178.211 675.663 178.078 675.663 177.889V177.849C675.663 177.359 675.529 176.978 675.261 176.706C674.996 176.434 674.593 176.298 674.053 176.298C673.492 176.298 673.053 176.421 672.735 176.666C672.417 176.911 672.193 177.173 672.064 177.452L670.95 177.054C671.149 176.59 671.414 176.229 671.746 175.97C672.08 175.708 672.445 175.526 672.839 175.423C673.237 175.317 673.628 175.264 674.013 175.264C674.258 175.264 674.54 175.294 674.858 175.354C675.179 175.41 675.489 175.528 675.788 175.707C676.089 175.886 676.339 176.156 676.538 176.517C676.737 176.878 676.837 177.362 676.837 177.969V183H675.663V181.966H675.604C675.524 182.132 675.392 182.309 675.206 182.498C675.02 182.687 674.773 182.848 674.465 182.98C674.157 183.113 673.781 183.179 673.337 183.179ZM673.516 182.125C673.98 182.125 674.371 182.034 674.689 181.852C675.01 181.669 675.252 181.434 675.415 181.146C675.58 180.857 675.663 180.554 675.663 180.236V179.162C675.614 179.222 675.504 179.276 675.335 179.326C675.17 179.372 674.977 179.414 674.759 179.45C674.543 179.483 674.333 179.513 674.127 179.54C673.925 179.563 673.761 179.583 673.635 179.599C673.33 179.639 673.045 179.704 672.78 179.793C672.518 179.879 672.306 180.01 672.143 180.186C671.984 180.358 671.905 180.594 671.905 180.892C671.905 181.3 672.056 181.608 672.357 181.817C672.662 182.022 673.048 182.125 673.516 182.125ZM679.853 175.364L681.683 178.486L683.512 175.364H684.865L682.399 179.182L684.865 183H683.512L681.683 180.037L679.853 183H678.501L680.927 179.182L678.501 175.364H679.853ZM687.294 185.844C687.096 185.844 686.918 185.827 686.762 185.794C686.607 185.764 686.499 185.734 686.439 185.705L686.738 184.67C687.165 184.78 687.521 184.777 687.806 184.661C688.092 184.548 688.338 184.206 688.547 183.636L688.766 183.04L685.942 175.364H687.215L689.323 181.449H689.402L691.51 175.364L692.793 175.384L689.542 184.114C689.396 184.501 689.215 184.823 689 185.078C688.784 185.337 688.534 185.529 688.249 185.655C687.967 185.781 687.649 185.844 687.294 185.844ZM695.617 181.608L695.537 182.145C695.481 182.523 695.395 182.927 695.279 183.358C695.166 183.789 695.048 184.195 694.926 184.576C694.803 184.957 694.702 185.26 694.623 185.486H693.728C693.771 185.274 693.827 184.994 693.897 184.646C693.966 184.298 694.036 183.908 694.105 183.477C694.178 183.05 694.238 182.612 694.284 182.165L694.344 181.608H695.617ZM707.455 175.364C707.396 174.86 707.154 174.469 706.73 174.19C706.305 173.912 705.785 173.773 705.169 173.773C704.718 173.773 704.323 173.846 703.985 173.991C703.651 174.137 703.389 174.338 703.2 174.593C703.014 174.848 702.921 175.138 702.921 175.463C702.921 175.735 702.986 175.969 703.115 176.164C703.248 176.356 703.417 176.517 703.622 176.646C703.828 176.772 704.043 176.877 704.269 176.96C704.494 177.039 704.701 177.104 704.89 177.153L705.924 177.432C706.189 177.501 706.484 177.598 706.809 177.72C707.137 177.843 707.45 178.01 707.749 178.222C708.05 178.431 708.299 178.7 708.494 179.028C708.69 179.356 708.788 179.759 708.788 180.236C708.788 180.786 708.644 181.283 708.355 181.727C708.07 182.171 707.653 182.524 707.102 182.786C706.556 183.048 705.891 183.179 705.109 183.179C704.38 183.179 703.748 183.061 703.215 182.826C702.684 182.591 702.267 182.263 701.962 181.842C701.66 181.421 701.49 180.932 701.45 180.375H702.722C702.756 180.759 702.885 181.078 703.11 181.33C703.339 181.578 703.627 181.764 703.975 181.886C704.327 182.006 704.704 182.065 705.109 182.065C705.579 182.065 706.002 181.989 706.377 181.837C706.751 181.681 707.048 181.465 707.267 181.19C707.485 180.912 707.595 180.587 707.595 180.216C707.595 179.878 707.5 179.603 707.311 179.391C707.122 179.179 706.874 179.006 706.566 178.874C706.257 178.741 705.924 178.625 705.566 178.526L704.313 178.168C703.518 177.939 702.888 177.612 702.424 177.188C701.96 176.764 701.728 176.209 701.728 175.523C701.728 174.953 701.882 174.455 702.191 174.031C702.502 173.604 702.92 173.272 703.443 173.037C703.97 172.798 704.559 172.679 705.208 172.679C705.865 172.679 706.448 172.797 706.958 173.032C707.469 173.264 707.873 173.582 708.171 173.987C708.473 174.391 708.632 174.85 708.649 175.364H707.455ZM711.511 183.08C711.266 183.08 711.055 182.992 710.88 182.816C710.704 182.64 710.616 182.43 710.616 182.185C710.616 181.939 710.704 181.729 710.88 181.553C711.055 181.378 711.266 181.29 711.511 181.29C711.756 181.29 711.967 181.378 712.142 181.553C712.318 181.729 712.406 181.939 712.406 182.185C712.406 182.347 712.364 182.496 712.282 182.632C712.202 182.768 712.094 182.877 711.958 182.96C711.826 183.04 711.677 183.08 711.511 183.08ZM714.67 183V172.818H715.903V177.352H721.332V172.818H722.565V183H721.332V178.446H715.903V183H714.67ZM725.73 183.08C725.484 183.08 725.274 182.992 725.098 182.816C724.923 182.64 724.835 182.43 724.835 182.185C724.835 181.939 724.923 181.729 725.098 181.553C725.274 181.378 725.484 181.29 725.73 181.29C725.975 181.29 726.185 181.378 726.361 181.553C726.537 181.729 726.625 181.939 726.625 182.185C726.625 182.347 726.583 182.496 726.5 182.632C726.421 182.768 726.313 182.877 726.177 182.96C726.045 183.04 725.895 183.08 725.73 183.08ZM730.122 172.818V183H728.889V172.818H730.122ZM733.29 183.08C733.045 183.08 732.835 182.992 732.659 182.816C732.483 182.64 732.395 182.43 732.395 182.185C732.395 181.939 732.483 181.729 732.659 181.553C732.835 181.378 733.045 181.29 733.29 181.29C733.536 181.29 733.746 181.378 733.922 181.553C734.097 181.729 734.185 181.939 734.185 182.185C734.185 182.347 734.144 182.496 734.061 182.632C733.981 182.768 733.874 182.877 733.738 182.96C733.605 183.04 733.456 183.08 733.29 183.08ZM736.45 183V172.818H742.595V173.912H737.683V177.352H742.276V178.446H737.683V181.906H742.674V183H736.45ZM745.513 183.08C745.268 183.08 745.057 182.992 744.882 182.816C744.706 182.64 744.618 182.43 744.618 182.185C744.618 181.939 744.706 181.729 744.882 181.553C745.057 181.378 745.268 181.29 745.513 181.29C745.758 181.29 745.969 181.378 746.144 181.553C746.32 181.729 746.408 181.939 746.408 182.185C746.408 182.347 746.366 182.496 746.284 182.632C746.204 182.768 746.096 182.877 745.96 182.96C745.828 183.04 745.679 183.08 745.513 183.08ZM748.672 183V172.818H749.905V181.906H754.638V183H748.672ZM757.243 183.08C756.998 183.08 756.788 182.992 756.612 182.816C756.436 182.64 756.349 182.43 756.349 182.185C756.349 181.939 756.436 181.729 756.612 181.553C756.788 181.378 756.998 181.29 757.243 181.29C757.489 181.29 757.699 181.378 757.875 181.553C758.05 181.729 758.138 181.939 758.138 182.185C758.138 182.347 758.097 182.496 758.014 182.632C757.934 182.768 757.827 182.877 757.691 182.96C757.558 183.04 757.409 183.08 757.243 183.08ZM763.545 183H760.403V172.818H763.684C764.672 172.818 765.517 173.022 766.22 173.43C766.922 173.834 767.461 174.416 767.835 175.175C768.21 175.93 768.397 176.835 768.397 177.889C768.397 178.95 768.208 179.863 767.83 180.629C767.453 181.391 766.902 181.978 766.18 182.388C765.457 182.796 764.579 183 763.545 183ZM761.636 181.906H763.465C764.307 181.906 765.005 181.744 765.558 181.419C766.112 181.094 766.525 180.632 766.796 180.032C767.068 179.432 767.204 178.718 767.204 177.889C767.204 177.067 767.07 176.36 766.801 175.766C766.533 175.17 766.132 174.712 765.598 174.394C765.065 174.073 764.4 173.912 763.605 173.912H761.636V181.906ZM770.519 183.08C770.274 183.08 770.063 182.992 769.887 182.816C769.712 182.64 769.624 182.43 769.624 182.185C769.624 181.939 769.712 181.729 769.887 181.553C770.063 181.378 770.274 181.29 770.519 181.29C770.764 181.29 770.975 181.378 771.15 181.553C771.326 181.729 771.414 181.939 771.414 182.185C771.414 182.347 771.372 182.496 771.289 182.632C771.21 182.768 771.102 182.877 770.966 182.96C770.834 183.04 770.685 183.08 770.519 183.08Z" fill="white" fill-opacity="0.7"/>
<path d="M844.5 144.5H814.5" stroke="#DA0087"/>
<path d="M814.5 128.5V144.5L814.5 160.5" stroke="#DA0087"/>
<rect x="836.5" y="130.5" width="62" height="28" rx="14" fill="#DA0087"/>
<path d="M853.636 150.659C852.886 150.659 852.218 150.53 851.631 150.273C851.047 150.015 850.583 149.657 850.239 149.199C849.898 148.737 849.712 148.201 849.682 147.591H851.114C851.144 147.966 851.273 148.29 851.5 148.562C851.727 148.831 852.025 149.04 852.392 149.188C852.759 149.335 853.167 149.409 853.614 149.409C854.114 149.409 854.557 149.322 854.943 149.148C855.33 148.973 855.633 148.731 855.852 148.42C856.072 148.11 856.182 147.75 856.182 147.341C856.182 146.913 856.076 146.536 855.864 146.21C855.652 145.881 855.341 145.623 854.932 145.438C854.523 145.252 854.023 145.159 853.432 145.159H852.5V143.909H853.432C853.894 143.909 854.299 143.826 854.648 143.659C855 143.492 855.275 143.258 855.472 142.955C855.672 142.652 855.773 142.295 855.773 141.886C855.773 141.492 855.686 141.15 855.511 140.858C855.337 140.566 855.091 140.339 854.773 140.176C854.458 140.013 854.087 139.932 853.659 139.932C853.258 139.932 852.879 140.006 852.523 140.153C852.17 140.297 851.883 140.508 851.659 140.784C851.436 141.057 851.314 141.386 851.295 141.773H849.932C849.955 141.163 850.138 140.629 850.483 140.17C850.828 139.708 851.278 139.348 851.835 139.091C852.396 138.833 853.011 138.705 853.682 138.705C854.402 138.705 855.019 138.85 855.534 139.142C856.049 139.43 856.445 139.811 856.722 140.284C856.998 140.758 857.136 141.269 857.136 141.818C857.136 142.473 856.964 143.032 856.619 143.494C856.278 143.956 855.814 144.277 855.227 144.455V144.545C855.962 144.667 856.536 144.979 856.949 145.483C857.362 145.983 857.568 146.602 857.568 147.341C857.568 147.973 857.396 148.542 857.051 149.045C856.71 149.545 856.244 149.939 855.653 150.227C855.063 150.515 854.39 150.659 853.636 150.659ZM859.892 150.5V149.477L863.733 145.273C864.184 144.78 864.555 144.352 864.847 143.989C865.138 143.621 865.354 143.277 865.494 142.955C865.638 142.629 865.71 142.288 865.71 141.932C865.71 141.523 865.612 141.169 865.415 140.869C865.222 140.57 864.956 140.339 864.619 140.176C864.282 140.013 863.903 139.932 863.483 139.932C863.036 139.932 862.646 140.025 862.312 140.21C861.983 140.392 861.727 140.648 861.545 140.977C861.367 141.307 861.278 141.693 861.278 142.136H859.938C859.938 141.455 860.095 140.856 860.409 140.341C860.723 139.826 861.152 139.424 861.693 139.136C862.239 138.848 862.85 138.705 863.528 138.705C864.21 138.705 864.814 138.848 865.341 139.136C865.867 139.424 866.28 139.812 866.58 140.301C866.879 140.79 867.028 141.333 867.028 141.932C867.028 142.36 866.951 142.778 866.795 143.188C866.644 143.593 866.379 144.045 866 144.545C865.625 145.042 865.104 145.648 864.438 146.364L861.824 149.159V149.25H867.233V150.5H859.892ZM869.602 153.773V141.773H870.898V143.159H871.057C871.155 143.008 871.292 142.814 871.466 142.58C871.644 142.341 871.898 142.129 872.227 141.943C872.561 141.754 873.011 141.659 873.58 141.659C874.314 141.659 874.962 141.843 875.523 142.21C876.083 142.578 876.521 143.098 876.835 143.773C877.15 144.447 877.307 145.242 877.307 146.159C877.307 147.083 877.15 147.884 876.835 148.562C876.521 149.237 876.085 149.759 875.528 150.131C874.972 150.498 874.33 150.682 873.602 150.682C873.042 150.682 872.593 150.589 872.256 150.403C871.919 150.214 871.659 150 871.477 149.761C871.295 149.519 871.155 149.318 871.057 149.159H870.943V153.773H869.602ZM870.92 146.136C870.92 146.795 871.017 147.377 871.21 147.881C871.403 148.381 871.686 148.773 872.057 149.057C872.428 149.337 872.883 149.477 873.42 149.477C873.981 149.477 874.449 149.33 874.824 149.034C875.203 148.735 875.487 148.333 875.676 147.83C875.869 147.322 875.966 146.758 875.966 146.136C875.966 145.523 875.871 144.97 875.682 144.477C875.496 143.981 875.214 143.589 874.835 143.301C874.46 143.009 873.989 142.864 873.42 142.864C872.875 142.864 872.417 143.002 872.045 143.278C871.674 143.551 871.394 143.934 871.205 144.426C871.015 144.915 870.92 145.485 870.92 146.136ZM879.993 141.773L882.084 145.341L884.175 141.773H885.72L882.902 146.136L885.72 150.5H884.175L882.084 147.114L879.993 150.5H878.447L881.22 146.136L878.447 141.773H879.993Z" fill="white"/>
</svg>
