<svg width="630" height="152" viewBox="0 0 630 152" fill="none" xmlns="http://www.w3.org/2000/svg">
<rect width="630" height="152" rx="24" fill="#262626"/>
<rect x="190.5" y="60.5" width="249" height="31" rx="7.5" stroke="white" stroke-opacity="0.5"/>
<path d="M215 71.5002H205C204.867 71.5002 204.74 71.5529 204.647 71.6467C204.553 71.7405 204.5 71.8676 204.5 72.0002C204.5 72.1329 204.553 72.26 204.647 72.3538C204.74 72.4476 204.867 72.5002 205 72.5002H215C215.133 72.5002 215.26 72.4476 215.354 72.3538C215.447 72.26 215.5 72.1329 215.5 72.0002C215.5 71.8676 215.447 71.7405 215.354 71.6467C215.26 71.5529 215.133 71.5002 215 71.5002Z" fill="white" fill-opacity="0.95"/>
<path d="M213.5 75.5002H206.5C206.434 75.5002 206.369 75.5132 206.309 75.5383C206.248 75.5634 206.193 75.6003 206.147 75.6467C206.1 75.6931 206.063 75.7482 206.038 75.8089C206.013 75.8696 206 75.9346 206 76.0002C206 76.0659 206.013 76.1309 206.038 76.1916C206.063 76.2522 206.1 76.3074 206.147 76.3538C206.193 76.4002 206.248 76.4371 206.309 76.4622C206.369 76.4873 206.434 76.5002 206.5 76.5002H213.5C213.633 76.5002 213.76 76.4476 213.854 76.3538C213.947 76.26 214 76.1329 214 76.0002C214 75.8676 213.947 75.7405 213.854 75.6467C213.76 75.5529 213.633 75.5002 213.5 75.5002Z" fill="white" fill-opacity="0.95"/>
<path d="M212.5 79.5002H207.5C207.367 79.5002 207.24 79.5529 207.147 79.6467C207.053 79.7405 207 79.8676 207 80.0002C207 80.1329 207.053 80.26 207.147 80.3538C207.24 80.4476 207.367 80.5002 207.5 80.5002H212.5C212.633 80.5002 212.76 80.4476 212.854 80.3538C212.947 80.26 213 80.1329 213 80.0002C213 79.8676 212.947 79.7405 212.854 79.6467C212.76 79.5529 212.633 79.5002 212.5 79.5002Z" fill="white" fill-opacity="0.95"/>
<path d="M225.233 70.8182H226.705L230.165 79.2699H230.284L233.744 70.8182H235.216V81H234.062V73.2642H233.963L230.781 81H229.668L226.486 73.2642H226.386V81H225.233V70.8182ZM239.776 81.179C239.292 81.179 238.853 81.0878 238.459 80.9055C238.064 80.7199 237.751 80.4531 237.519 80.1051C237.287 79.7538 237.171 79.3295 237.171 78.8324C237.171 78.3949 237.257 78.0402 237.43 77.7685C237.602 77.4934 237.832 77.2779 238.121 77.1222C238.409 76.9664 238.727 76.8504 239.075 76.7741C239.426 76.6946 239.779 76.6316 240.134 76.5852C240.598 76.5256 240.974 76.4808 241.263 76.451C241.554 76.4179 241.766 76.3632 241.899 76.2869C242.035 76.2107 242.103 76.0781 242.103 75.8892V75.8494C242.103 75.3589 241.969 74.9777 241.7 74.706C241.435 74.4342 241.032 74.2983 240.492 74.2983C239.932 74.2983 239.493 74.4209 239.175 74.6662C238.856 74.9115 238.633 75.1733 238.503 75.4517L237.39 75.054C237.589 74.59 237.854 74.2287 238.185 73.9702C238.52 73.7083 238.885 73.526 239.279 73.4233C239.677 73.3172 240.068 73.2642 240.452 73.2642C240.698 73.2642 240.979 73.294 241.297 73.3537C241.619 73.41 241.929 73.5277 242.227 73.7067C242.529 73.8857 242.779 74.1558 242.978 74.517C243.177 74.8783 243.276 75.3622 243.276 75.9688V81H242.103V79.9659H242.043C241.964 80.1316 241.831 80.3089 241.645 80.4979C241.46 80.6868 241.213 80.8475 240.905 80.9801C240.596 81.1127 240.22 81.179 239.776 81.179ZM239.955 80.125C240.419 80.125 240.81 80.0339 241.128 79.8516C241.45 79.6693 241.692 79.4339 241.854 79.1456C242.02 78.8572 242.103 78.554 242.103 78.2358V77.1619C242.053 77.2216 241.944 77.2763 241.775 77.326C241.609 77.3724 241.417 77.4138 241.198 77.4503C240.983 77.4834 240.772 77.5133 240.567 77.5398C240.364 77.563 240.2 77.5829 240.074 77.5994C239.769 77.6392 239.484 77.7038 239.219 77.7933C238.957 77.8795 238.745 78.0104 238.583 78.1861C238.424 78.3584 238.344 78.5937 238.344 78.892C238.344 79.2997 238.495 79.608 238.797 79.8168C239.102 80.0223 239.488 80.125 239.955 80.125ZM245.418 81V73.3636H246.551V74.517H246.631C246.77 74.1392 247.022 73.8326 247.386 73.5973C247.751 73.362 248.162 73.2443 248.619 73.2443C248.705 73.2443 248.813 73.246 248.942 73.2493C249.072 73.2526 249.17 73.2576 249.236 73.2642V74.4574C249.196 74.4474 249.105 74.4325 248.962 74.4126C248.823 74.3894 248.676 74.3778 248.52 74.3778C248.149 74.3778 247.817 74.4557 247.526 74.6115C247.237 74.764 247.009 74.9761 246.839 75.2479C246.674 75.5163 246.591 75.8229 246.591 76.1676V81H245.418ZM257.103 73.3636L254.279 81H253.086L250.262 73.3636H251.535L253.643 79.4489H253.723L255.831 73.3636H257.103ZM261.58 81.1591C260.844 81.1591 260.21 80.9967 259.676 80.6719C259.146 80.3438 258.737 79.8864 258.448 79.2997C258.163 78.7098 258.021 78.0237 258.021 77.2415C258.021 76.4593 258.163 75.7699 258.448 75.1733C258.737 74.5734 259.138 74.1061 259.651 73.7713C260.168 73.4332 260.772 73.2642 261.461 73.2642C261.859 73.2642 262.251 73.3305 262.639 73.4631C263.027 73.5956 263.38 73.8111 263.698 74.1094C264.016 74.4044 264.27 74.7955 264.459 75.2827C264.648 75.7699 264.742 76.3698 264.742 77.0824V77.5795H258.856V76.5653H263.549C263.549 76.1345 263.463 75.75 263.29 75.4119C263.121 75.0739 262.879 74.8071 262.565 74.6115C262.253 74.416 261.885 74.3182 261.461 74.3182C260.994 74.3182 260.589 74.4342 260.248 74.6662C259.91 74.8949 259.65 75.1932 259.467 75.5611C259.285 75.929 259.194 76.3234 259.194 76.7443V77.4205C259.194 77.9972 259.293 78.486 259.492 78.8871C259.694 79.2848 259.974 79.5881 260.332 79.7969C260.69 80.0024 261.106 80.1051 261.58 80.1051C261.888 80.1051 262.167 80.062 262.415 79.9759C262.667 79.8864 262.884 79.7538 263.067 79.5781C263.249 79.3991 263.39 79.1771 263.489 78.9119L264.623 79.2301C264.504 79.6146 264.303 79.9527 264.021 80.2443C263.74 80.5327 263.392 80.758 262.977 80.9205C262.563 81.0795 262.097 81.1591 261.58 81.1591ZM267.7 70.8182V81H266.527V70.8182H267.7Z" fill="white" fill-opacity="0.95"/>
<path d="M430.354 72.6467C430.26 72.5529 430.133 72.5002 430 72.5002C429.868 72.5002 429.74 72.5529 429.647 72.6467L424 78.2932L418.353 72.6467C418.259 72.5553 418.133 72.5046 418.002 72.5056C417.87 72.5066 417.745 72.5592 417.652 72.652C417.559 72.7449 417.506 72.8705 417.505 73.0018C417.504 73.1331 417.555 73.2595 417.646 73.3537L423.646 79.3537C423.74 79.4474 423.867 79.5001 424 79.5001C424.133 79.5001 424.26 79.4474 424.353 79.3537L430.353 73.3537C430.447 73.26 430.5 73.1328 430.5 73.0002C430.5 72.8676 430.447 72.7405 430.354 72.6467Z" fill="white" fill-opacity="0.95"/>
</svg>
