<svg width="1300" height="112" viewBox="0 0 1300 112" fill="none" xmlns="http://www.w3.org/2000/svg">
<g clip-path="url(#clip0_1266_48870)">
<mask id="path-3-inside-1_1266_48870" fill="white">
<path d="M0 0H330V56H0V0Z"/>
</mask>
<path d="M0 0H330V56H0V0Z" fill="#262626"/>
<path d="M330 56V57H331V56H330ZM329 0V56H331V0H329ZM330 55H0V57H330V55Z" fill="white" fill-opacity="0.3" mask="url(#path-3-inside-1_1266_48870)"/>
<path d="M31.2642 35V20.4545H34.3395V32.4645H40.5753V35H31.2642ZM45.6658 35.206C44.9698 35.206 44.3496 35.0852 43.805 34.8438C43.2605 34.5975 42.8297 34.2353 42.5124 33.7571C42.1999 33.2741 42.0437 32.6728 42.0437 31.9531C42.0437 31.3471 42.1549 30.8381 42.3775 30.4261C42.6 30.0142 42.9031 29.6828 43.2866 29.4318C43.6701 29.1809 44.1057 28.9915 44.5934 28.8636C45.0858 28.7358 45.6019 28.6458 46.1417 28.5938C46.7762 28.5275 47.2875 28.4659 47.6758 28.4091C48.064 28.3475 48.3458 28.2576 48.521 28.1392C48.6961 28.0208 48.7837 27.8456 48.7837 27.6136V27.571C48.7837 27.1212 48.6417 26.7732 48.3576 26.527C48.0782 26.2808 47.6805 26.1577 47.1644 26.1577C46.6199 26.1577 46.1867 26.2784 45.8647 26.5199C45.5427 26.7566 45.3297 27.0549 45.2255 27.4148L42.4272 27.1875C42.5692 26.5246 42.8486 25.9517 43.2653 25.4688C43.6819 24.9811 44.2193 24.607 44.8775 24.3466C45.5404 24.0814 46.3074 23.9489 47.1786 23.9489C47.7847 23.9489 48.3647 24.0199 48.9187 24.1619C49.4774 24.304 49.9722 24.5241 50.4031 24.8224C50.8387 25.1207 51.1819 25.5043 51.4329 25.973C51.6838 26.437 51.8093 26.9934 51.8093 27.642V35H48.94V33.4872H48.8548C48.6796 33.8281 48.4452 34.1288 48.1516 34.3892C47.8581 34.6449 47.5053 34.8461 47.0934 34.9929C46.6815 35.1349 46.2056 35.206 45.6658 35.206ZM46.5323 33.1179C46.9774 33.1179 47.3704 33.0303 47.7113 32.8551C48.0522 32.6752 48.3197 32.4337 48.5138 32.1307C48.708 31.8277 48.805 31.4844 48.805 31.1009V29.9432C48.7103 30.0047 48.5801 30.0616 48.4144 30.1136C48.2534 30.161 48.0711 30.206 47.8675 30.2486C47.6639 30.2865 47.4603 30.322 47.2567 30.3551C47.0531 30.3835 46.8685 30.4096 46.7028 30.4332C46.3477 30.4853 46.0375 30.5682 45.7724 30.6818C45.5072 30.7955 45.3013 30.9493 45.1545 31.1435C45.0077 31.3329 44.9343 31.5696 44.9343 31.8537C44.9343 32.2656 45.0835 32.5805 45.3817 32.7983C45.6848 33.0114 46.0683 33.1179 46.5323 33.1179ZM55.6339 39.0696C55.2504 39.0696 54.8905 39.0388 54.5543 38.9773C54.2229 38.9205 53.9483 38.8494 53.7305 38.7642L54.4123 36.4986C54.9473 36.6643 55.3971 36.7069 55.7617 36.6264C56.131 36.5507 56.4222 36.2666 56.6353 35.7741L56.8129 35.3125L52.8995 24.0909H56.0813L58.3398 32.1023H58.4535L60.7333 24.0909L63.9364 24.1051L59.6964 36.179C59.4928 36.7614 59.2158 37.268 58.8654 37.6989C58.5198 38.1345 58.0818 38.4706 57.5515 38.7074C57.0212 38.9489 56.382 39.0696 55.6339 39.0696ZM70.0621 35.2131C68.9589 35.2131 68.0049 34.9787 67.1999 34.5099C66.3997 34.0365 65.7818 33.3783 65.3462 32.5355C64.9106 31.688 64.6928 30.7055 64.6928 29.5881C64.6928 28.4612 64.9106 27.4763 65.3462 26.6335C65.7818 25.786 66.3997 25.1278 67.1999 24.6591C68.0049 24.1856 68.9589 23.9489 70.0621 23.9489C71.1654 23.9489 72.1171 24.1856 72.9173 24.6591C73.7222 25.1278 74.3424 25.786 74.7781 26.6335C75.2137 27.4763 75.4315 28.4612 75.4315 29.5881C75.4315 30.7055 75.2137 31.688 74.7781 32.5355C74.3424 33.3783 73.7222 34.0365 72.9173 34.5099C72.1171 34.9787 71.1654 35.2131 70.0621 35.2131ZM70.0763 32.8693C70.5782 32.8693 70.9973 32.7273 71.3335 32.4432C71.6696 32.1544 71.9229 31.7614 72.0934 31.2642C72.2686 30.767 72.3562 30.2012 72.3562 29.5668C72.3562 28.9323 72.2686 28.3665 72.0934 27.8693C71.9229 27.3722 71.6696 26.9792 71.3335 26.6903C70.9973 26.4015 70.5782 26.2571 70.0763 26.2571C69.5697 26.2571 69.1436 26.4015 68.7979 26.6903C68.457 26.9792 68.199 27.3722 68.0238 27.8693C67.8533 28.3665 67.7681 28.9323 67.7681 29.5668C67.7681 30.2012 67.8533 30.767 68.0238 31.2642C68.199 31.7614 68.457 32.1544 68.7979 32.4432C69.1436 32.7273 69.5697 32.8693 70.0763 32.8693ZM84.3945 30.3551V24.0909H87.4201V35H84.5153V33.0185H84.4016C84.1554 33.6577 83.7459 34.1714 83.1729 34.5597C82.6048 34.9479 81.9111 35.142 81.092 35.142C80.3628 35.142 79.7212 34.9763 79.1673 34.6449C78.6133 34.3134 78.18 33.8423 77.8675 33.2315C77.5598 32.6207 77.4035 31.8892 77.3988 31.0369V24.0909H80.4244V30.4972C80.4291 31.1411 80.6019 31.6501 80.9428 32.0241C81.2837 32.3982 81.7406 32.5852 82.3136 32.5852C82.6781 32.5852 83.0191 32.5024 83.3363 32.3366C83.6535 32.1662 83.9092 31.9152 84.1033 31.5838C84.3022 31.2524 84.3993 30.8428 84.3945 30.3551ZM95.6428 24.0909V26.3636H89.0732V24.0909H95.6428ZM90.5646 21.4773H93.5902V31.6477C93.5902 31.9271 93.6328 32.1449 93.718 32.3011C93.8033 32.4527 93.9216 32.5592 94.0732 32.6207C94.2294 32.6823 94.4093 32.7131 94.6129 32.7131C94.755 32.7131 94.897 32.7012 95.0391 32.6776C95.1811 32.6491 95.29 32.6278 95.3658 32.6136L95.8416 34.8651C95.6901 34.9124 95.477 34.9669 95.2024 35.0284C94.9278 35.0947 94.594 35.1349 94.201 35.1491C93.4718 35.1776 92.8326 35.0805 92.2834 34.858C91.7389 34.6354 91.3151 34.2898 91.0121 33.821C90.709 33.3523 90.5599 32.7604 90.5646 32.0455V21.4773ZM105.353 35.206C104.657 35.206 104.037 35.0852 103.493 34.8438C102.948 34.5975 102.517 34.2353 102.2 33.7571C101.887 33.2741 101.731 32.6728 101.731 31.9531C101.731 31.3471 101.842 30.8381 102.065 30.4261C102.288 30.0142 102.591 29.6828 102.974 29.4318C103.358 29.1809 103.793 28.9915 104.281 28.8636C104.773 28.7358 105.289 28.6458 105.829 28.5938C106.464 28.5275 106.975 28.4659 107.363 28.4091C107.752 28.3475 108.033 28.2576 108.208 28.1392C108.384 28.0208 108.471 27.8456 108.471 27.6136V27.571C108.471 27.1212 108.329 26.7732 108.045 26.527C107.766 26.2808 107.368 26.1577 106.852 26.1577C106.307 26.1577 105.874 26.2784 105.552 26.5199C105.23 26.7566 105.017 27.0549 104.913 27.4148L102.115 27.1875C102.257 26.5246 102.536 25.9517 102.953 25.4688C103.369 24.9811 103.907 24.607 104.565 24.3466C105.228 24.0814 105.995 23.9489 106.866 23.9489C107.472 23.9489 108.052 24.0199 108.606 24.1619C109.165 24.304 109.66 24.5241 110.091 24.8224C110.526 25.1207 110.869 25.5043 111.12 25.973C111.371 26.437 111.497 26.9934 111.497 27.642V35H108.627V33.4872H108.542C108.367 33.8281 108.133 34.1288 107.839 34.3892C107.546 34.6449 107.193 34.8461 106.781 34.9929C106.369 35.1349 105.893 35.206 105.353 35.206ZM106.22 33.1179C106.665 33.1179 107.058 33.0303 107.399 32.8551C107.74 32.6752 108.007 32.4337 108.201 32.1307C108.395 31.8277 108.493 31.4844 108.493 31.1009V29.9432C108.398 30.0047 108.268 30.0616 108.102 30.1136C107.941 30.161 107.759 30.206 107.555 30.2486C107.351 30.2865 107.148 30.322 106.944 30.3551C106.741 30.3835 106.556 30.4096 106.39 30.4332C106.035 30.4853 105.725 30.5682 105.46 30.6818C105.195 30.7955 104.989 30.9493 104.842 31.1435C104.695 31.3329 104.622 31.5696 104.622 31.8537C104.622 32.2656 104.771 32.5805 105.069 32.7983C105.372 33.0114 105.756 33.1179 106.22 33.1179ZM119.647 24.0909V26.3636H113.077V24.0909H119.647ZM114.569 21.4773H117.594V31.6477C117.594 31.9271 117.637 32.1449 117.722 32.3011C117.807 32.4527 117.926 32.5592 118.077 32.6207C118.233 32.6823 118.413 32.7131 118.617 32.7131C118.759 32.7131 118.901 32.7012 119.043 32.6776C119.185 32.6491 119.294 32.6278 119.37 32.6136L119.846 34.8651C119.694 34.9124 119.481 34.9669 119.206 35.0284C118.932 35.0947 118.598 35.1349 118.205 35.1491C117.476 35.1776 116.837 35.0805 116.287 34.858C115.743 34.6354 115.319 34.2898 115.016 33.821C114.713 33.3523 114.564 32.7604 114.569 32.0455V21.4773ZM127.42 24.0909V26.3636H120.85V24.0909H127.42ZM122.342 21.4773H125.368V31.6477C125.368 31.9271 125.41 32.1449 125.495 32.3011C125.581 32.4527 125.699 32.5592 125.85 32.6207C126.007 32.6823 126.187 32.7131 126.39 32.7131C126.532 32.7131 126.674 32.7012 126.816 32.6776C126.958 32.6491 127.067 32.6278 127.143 32.6136L127.619 34.8651C127.467 34.9124 127.254 34.9669 126.98 35.0284C126.705 35.0947 126.371 35.1349 125.978 35.1491C125.249 35.1776 124.61 35.0805 124.061 34.858C123.516 34.6354 123.092 34.2898 122.789 33.821C122.486 33.3523 122.337 32.7604 122.342 32.0455V21.4773ZM129.391 35V24.0909H132.324V25.9943H132.438C132.637 25.3172 132.971 24.8059 133.439 24.4602C133.908 24.1098 134.448 23.9347 135.059 23.9347C135.21 23.9347 135.373 23.9441 135.549 23.9631C135.724 23.982 135.878 24.008 136.01 24.0412V26.7259C135.868 26.6832 135.672 26.6454 135.421 26.6122C135.17 26.5791 134.94 26.5625 134.732 26.5625C134.287 26.5625 133.889 26.6596 133.539 26.8537C133.193 27.0431 132.918 27.3082 132.715 27.6491C132.516 27.9901 132.417 28.383 132.417 28.8281V35H129.391ZM137.575 35V24.0909H140.6V35H137.575ZM139.102 22.6847C138.652 22.6847 138.266 22.5355 137.944 22.2372C137.622 21.9342 137.461 21.572 137.461 21.1506C137.461 20.7339 137.622 20.3764 137.944 20.0781C138.266 19.7751 138.649 19.6236 139.094 19.6236C139.549 19.6236 139.935 19.7751 140.252 20.0781C140.574 20.3764 140.735 20.7339 140.735 21.1506C140.735 21.572 140.574 21.9342 140.252 22.2372C139.935 22.5355 139.551 22.6847 139.102 22.6847ZM143.081 35V20.4545H146.106V25.9233H146.199C146.331 25.6297 146.523 25.3314 146.774 25.0284C147.029 24.7206 147.361 24.465 147.768 24.2614C148.18 24.053 148.691 23.9489 149.302 23.9489C150.098 23.9489 150.832 24.1572 151.504 24.5739C152.176 24.9858 152.714 25.6084 153.116 26.4418C153.519 27.2704 153.72 28.3097 153.72 29.5597C153.72 30.7765 153.523 31.804 153.13 32.642C152.742 33.4754 152.212 34.1075 151.539 34.5384C150.872 34.9645 150.124 35.1776 149.295 35.1776C148.708 35.1776 148.208 35.0805 147.797 34.8864C147.389 34.6922 147.056 34.4484 146.795 34.1548C146.535 33.8565 146.336 33.5559 146.199 33.2528H146.064V35H143.081ZM146.042 29.5455C146.042 30.1941 146.132 30.7599 146.312 31.2429C146.492 31.7259 146.752 32.1023 147.093 32.3722C147.434 32.6373 147.849 32.7699 148.336 32.7699C148.829 32.7699 149.245 32.6349 149.586 32.3651C149.927 32.0904 150.185 31.7116 150.36 31.2287C150.54 30.741 150.63 30.1799 150.63 29.5455C150.63 28.9157 150.543 28.3617 150.368 27.8835C150.192 27.4053 149.934 27.0312 149.593 26.7614C149.252 26.4915 148.833 26.3565 148.336 26.3565C147.844 26.3565 147.427 26.4867 147.086 26.7472C146.75 27.0076 146.492 27.3769 146.312 27.8551C146.132 28.3333 146.042 28.8968 146.042 29.5455ZM162.734 30.3551V24.0909H165.76V35H162.855V33.0185H162.741C162.495 33.6577 162.086 34.1714 161.513 34.5597C160.945 34.9479 160.251 35.142 159.432 35.142C158.703 35.142 158.061 34.9763 157.507 34.6449C156.953 34.3134 156.52 33.8423 156.207 33.2315C155.9 32.6207 155.743 31.8892 155.739 31.0369V24.0909H158.764V30.4972C158.769 31.1411 158.942 31.6501 159.283 32.0241C159.624 32.3982 160.08 32.5852 160.653 32.5852C161.018 32.5852 161.359 32.5024 161.676 32.3366C161.993 32.1662 162.249 31.9152 162.443 31.5838C162.642 31.2524 162.739 30.8428 162.734 30.3551ZM173.983 24.0909V26.3636H167.413V24.0909H173.983ZM168.904 21.4773H171.93V31.6477C171.93 31.9271 171.973 32.1449 172.058 32.3011C172.143 32.4527 172.261 32.5592 172.413 32.6207C172.569 32.6823 172.749 32.7131 172.953 32.7131C173.095 32.7131 173.237 32.7012 173.379 32.6776C173.521 32.6491 173.63 32.6278 173.706 32.6136L174.181 34.8651C174.03 34.9124 173.817 34.9669 173.542 35.0284C173.268 35.0947 172.934 35.1349 172.541 35.1491C171.812 35.1776 171.172 35.0805 170.623 34.858C170.079 34.6354 169.655 34.2898 169.352 33.821C169.049 33.3523 168.9 32.7604 168.904 32.0455V21.4773ZM180.808 35.2131C179.686 35.2131 178.72 34.9858 177.91 34.5312C177.105 34.072 176.485 33.4233 176.049 32.5852C175.614 31.7424 175.396 30.7457 175.396 29.5952C175.396 28.473 175.614 27.4882 176.049 26.6406C176.485 25.7931 177.098 25.1326 177.889 24.6591C178.684 24.1856 179.617 23.9489 180.687 23.9489C181.407 23.9489 182.077 24.0649 182.697 24.2969C183.322 24.5241 183.867 24.8674 184.331 25.3267C184.799 25.786 185.164 26.3636 185.424 27.0597C185.685 27.7509 185.815 28.5606 185.815 29.4886V30.3196H176.603V28.4446H182.967C182.967 28.009 182.872 27.6231 182.683 27.2869C182.493 26.9508 182.231 26.688 181.895 26.4986C181.563 26.3045 181.177 26.2074 180.737 26.2074C180.278 26.2074 179.87 26.3139 179.515 26.527C179.165 26.7353 178.89 27.017 178.691 27.3722C178.493 27.7225 178.391 28.1132 178.386 28.544V30.3267C178.386 30.8665 178.485 31.3329 178.684 31.7259C178.888 32.1188 179.174 32.4219 179.544 32.6349C179.913 32.848 180.351 32.9545 180.858 32.9545C181.194 32.9545 181.502 32.9072 181.781 32.8125C182.06 32.7178 182.299 32.5758 182.498 32.3864C182.697 32.197 182.849 31.965 182.953 31.6903L185.751 31.875C185.609 32.5473 185.318 33.1345 184.877 33.6364C184.442 34.1335 183.878 34.5218 183.187 34.8011C182.501 35.0758 181.708 35.2131 180.808 35.2131Z" fill="white" fill-opacity="0.95"/>
<mask id="path-6-inside-2_1266_48870" fill="white">
<path d="M330 0H1300V56H330V0Z"/>
</mask>
<path d="M330 0H1300V56H330V0Z" fill="#262626"/>
<path d="M1300 55H330V57H1300V55Z" fill="white" fill-opacity="0.3" mask="url(#path-6-inside-2_1266_48870)"/>
<path d="M360.71 22.9901V20.4545H372.656V22.9901H368.203V35H365.163V22.9901H360.71ZM377.914 35.2131C376.81 35.2131 375.856 34.9787 375.051 34.5099C374.251 34.0365 373.633 33.3783 373.198 32.5355C372.762 31.688 372.544 30.7055 372.544 29.5881C372.544 28.4612 372.762 27.4763 373.198 26.6335C373.633 25.786 374.251 25.1278 375.051 24.6591C375.856 24.1856 376.81 23.9489 377.914 23.9489C379.017 23.9489 379.969 24.1856 380.769 24.6591C381.574 25.1278 382.194 25.786 382.63 26.6335C383.065 27.4763 383.283 28.4612 383.283 29.5881C383.283 30.7055 383.065 31.688 382.63 32.5355C382.194 33.3783 381.574 34.0365 380.769 34.5099C379.969 34.9787 379.017 35.2131 377.914 35.2131ZM377.928 32.8693C378.43 32.8693 378.849 32.7273 379.185 32.4432C379.521 32.1544 379.775 31.7614 379.945 31.2642C380.12 30.767 380.208 30.2012 380.208 29.5668C380.208 28.9323 380.12 28.3665 379.945 27.8693C379.775 27.3722 379.521 26.9792 379.185 26.6903C378.849 26.4015 378.43 26.2571 377.928 26.2571C377.421 26.2571 376.995 26.4015 376.65 26.6903C376.309 26.9792 376.051 27.3722 375.875 27.8693C375.705 28.3665 375.62 28.9323 375.62 29.5668C375.62 30.2012 375.705 30.767 375.875 31.2642C376.051 31.7614 376.309 32.1544 376.65 32.4432C376.995 32.7273 377.421 32.8693 377.928 32.8693ZM387.992 31.8608L387.999 28.2315H388.439L391.934 24.0909H395.407L390.712 29.5739H389.995L387.992 31.8608ZM385.25 35V20.4545H388.276V35H385.25ZM392.069 35L388.858 30.2486L390.875 28.1108L395.613 35H392.069ZM401.413 35.2131C400.291 35.2131 399.325 34.9858 398.516 34.5312C397.711 34.072 397.09 33.4233 396.655 32.5852C396.219 31.7424 396.001 30.7457 396.001 29.5952C396.001 28.473 396.219 27.4882 396.655 26.6406C397.09 25.7931 397.704 25.1326 398.494 24.6591C399.29 24.1856 400.223 23.9489 401.293 23.9489C402.012 23.9489 402.682 24.0649 403.303 24.2969C403.928 24.5241 404.472 24.8674 404.936 25.3267C405.405 25.786 405.769 26.3636 406.03 27.0597C406.29 27.7509 406.42 28.5606 406.42 29.4886V30.3196H397.209V28.4446H403.572C403.572 28.009 403.478 27.6231 403.288 27.2869C403.099 26.9508 402.836 26.688 402.5 26.4986C402.169 26.3045 401.783 26.2074 401.342 26.2074C400.883 26.2074 400.476 26.3139 400.121 26.527C399.77 26.7353 399.496 27.017 399.297 27.3722C399.098 27.7225 398.996 28.1132 398.991 28.544V30.3267C398.991 30.8665 399.091 31.3329 399.29 31.7259C399.493 32.1188 399.78 32.4219 400.149 32.6349C400.518 32.848 400.956 32.9545 401.463 32.9545C401.799 32.9545 402.107 32.9072 402.386 32.8125C402.666 32.7178 402.905 32.5758 403.104 32.3864C403.303 32.197 403.454 31.965 403.558 31.6903L406.357 31.875C406.214 32.5473 405.923 33.1345 405.483 33.6364C405.047 34.1335 404.484 34.5218 403.793 34.8011C403.106 35.0758 402.313 35.2131 401.413 35.2131ZM411.42 28.6932V35H408.395V24.0909H411.278V26.0156H411.406C411.648 25.3812 412.053 24.8793 412.621 24.5099C413.189 24.1359 413.878 23.9489 414.688 23.9489C415.445 23.9489 416.106 24.1146 416.669 24.446C417.232 24.7775 417.67 25.2509 417.983 25.8665C418.295 26.4773 418.452 27.2064 418.452 28.054V35H415.426V28.5938C415.431 27.9261 415.26 27.4053 414.915 27.0312C414.569 26.6525 414.093 26.4631 413.487 26.4631C413.08 26.4631 412.72 26.5507 412.408 26.7259C412.1 26.901 411.858 27.1567 411.683 27.4929C411.513 27.8243 411.425 28.2244 411.42 28.6932ZM430.394 35.2131C429.291 35.2131 428.337 34.9787 427.532 34.5099C426.732 34.0365 426.114 33.3783 425.678 32.5355C425.243 31.688 425.025 30.7055 425.025 29.5881C425.025 28.4612 425.243 27.4763 425.678 26.6335C426.114 25.786 426.732 25.1278 427.532 24.6591C428.337 24.1856 429.291 23.9489 430.394 23.9489C431.497 23.9489 432.449 24.1856 433.249 24.6591C434.054 25.1278 434.674 25.786 435.11 26.6335C435.546 27.4763 435.763 28.4612 435.763 29.5881C435.763 30.7055 435.546 31.688 435.11 32.5355C434.674 33.3783 434.054 34.0365 433.249 34.5099C432.449 34.9787 431.497 35.2131 430.394 35.2131ZM430.408 32.8693C430.91 32.8693 431.329 32.7273 431.665 32.4432C432.002 32.1544 432.255 31.7614 432.425 31.2642C432.601 30.767 432.688 30.2012 432.688 29.5668C432.688 28.9323 432.601 28.3665 432.425 27.8693C432.255 27.3722 432.002 26.9792 431.665 26.6903C431.329 26.4015 430.91 26.2571 430.408 26.2571C429.902 26.2571 429.476 26.4015 429.13 26.6903C428.789 26.9792 428.531 27.3722 428.356 27.8693C428.185 28.3665 428.1 28.9323 428.1 29.5668C428.1 30.2012 428.185 30.767 428.356 31.2642C428.531 31.7614 428.789 32.1544 429.13 32.4432C429.476 32.7273 429.902 32.8693 430.408 32.8693ZM437.731 35V24.0909H440.664V25.9943H440.778C440.977 25.3172 441.31 24.8059 441.779 24.4602C442.248 24.1098 442.788 23.9347 443.398 23.9347C443.55 23.9347 443.713 23.9441 443.888 23.9631C444.064 23.982 444.218 24.008 444.35 24.0412V26.7259C444.208 26.6832 444.012 26.6454 443.761 26.6122C443.51 26.5791 443.28 26.5625 443.072 26.5625C442.627 26.5625 442.229 26.6596 441.879 26.8537C441.533 27.0431 441.258 27.3082 441.055 27.6491C440.856 27.9901 440.756 28.383 440.756 28.8281V35H437.731ZM460.714 24.0909L456.9 35H453.491L449.677 24.0909H452.873L455.138 31.8963H455.252L457.511 24.0909H460.714ZM465.08 35.206C464.384 35.206 463.764 35.0852 463.219 34.8438C462.675 34.5975 462.244 34.2353 461.926 33.7571C461.614 33.2741 461.458 32.6728 461.458 31.9531C461.458 31.3471 461.569 30.8381 461.792 30.4261C462.014 30.0142 462.317 29.6828 462.701 29.4318C463.084 29.1809 463.52 28.9915 464.007 28.8636C464.5 28.7358 465.016 28.6458 465.556 28.5938C466.19 28.5275 466.702 28.4659 467.09 28.4091C467.478 28.3475 467.76 28.2576 467.935 28.1392C468.11 28.0208 468.198 27.8456 468.198 27.6136V27.571C468.198 27.1212 468.056 26.7732 467.772 26.527C467.492 26.2808 467.095 26.1577 466.578 26.1577C466.034 26.1577 465.601 26.2784 465.279 26.5199C464.957 26.7566 464.744 27.0549 464.64 27.4148L461.841 27.1875C461.983 26.5246 462.263 25.9517 462.679 25.4688C463.096 24.9811 463.633 24.607 464.292 24.3466C464.954 24.0814 465.721 23.9489 466.593 23.9489C467.199 23.9489 467.779 24.0199 468.333 24.1619C468.891 24.304 469.386 24.5241 469.817 24.8224C470.253 25.1207 470.596 25.5043 470.847 25.973C471.098 26.437 471.223 26.9934 471.223 27.642V35H468.354V33.4872H468.269C468.094 33.8281 467.859 34.1288 467.566 34.3892C467.272 34.6449 466.919 34.8461 466.507 34.9929C466.096 35.1349 465.62 35.206 465.08 35.206ZM465.946 33.1179C466.391 33.1179 466.784 33.0303 467.125 32.8551C467.466 32.6752 467.734 32.4337 467.928 32.1307C468.122 31.8277 468.219 31.4844 468.219 31.1009V29.9432C468.124 30.0047 467.994 30.0616 467.828 30.1136C467.667 30.161 467.485 30.206 467.282 30.2486C467.078 30.2865 466.874 30.322 466.671 30.3551C466.467 30.3835 466.283 30.4096 466.117 30.4332C465.762 30.4853 465.452 30.5682 465.186 30.6818C464.921 30.7955 464.715 30.9493 464.569 31.1435C464.422 31.3329 464.348 31.5696 464.348 31.8537C464.348 32.2656 464.498 32.5805 464.796 32.7983C465.099 33.0114 465.482 33.1179 465.946 33.1179ZM476.596 20.4545V35H473.571V20.4545H476.596ZM486.016 30.3551V24.0909H489.041V35H486.136V33.0185H486.023C485.777 33.6577 485.367 34.1714 484.794 34.5597C484.226 34.9479 483.532 35.142 482.713 35.142C481.984 35.142 481.342 34.9763 480.788 34.6449C480.234 34.3134 479.801 33.8423 479.489 33.2315C479.181 32.6207 479.025 31.8892 479.02 31.0369V24.0909H482.045V30.4972C482.05 31.1411 482.223 31.6501 482.564 32.0241C482.905 32.3982 483.362 32.5852 483.935 32.5852C484.299 32.5852 484.64 32.5024 484.957 32.3366C485.275 32.1662 485.53 31.9152 485.724 31.5838C485.923 31.2524 486.02 30.8428 486.016 30.3551ZM496.433 35.2131C495.311 35.2131 494.345 34.9858 493.535 34.5312C492.73 34.072 492.11 33.4233 491.674 32.5852C491.239 31.7424 491.021 30.7457 491.021 29.5952C491.021 28.473 491.239 27.4882 491.674 26.6406C492.11 25.7931 492.723 25.1326 493.514 24.6591C494.309 24.1856 495.242 23.9489 496.312 23.9489C497.032 23.9489 497.702 24.0649 498.322 24.2969C498.947 24.5241 499.492 24.8674 499.956 25.3267C500.424 25.786 500.789 26.3636 501.049 27.0597C501.31 27.7509 501.44 28.5606 501.44 29.4886V30.3196H492.228V28.4446H498.592C498.592 28.009 498.497 27.6231 498.308 27.2869C498.118 26.9508 497.856 26.688 497.52 26.4986C497.188 26.3045 496.802 26.2074 496.362 26.2074C495.903 26.2074 495.495 26.3139 495.14 26.527C494.79 26.7353 494.515 27.017 494.316 27.3722C494.118 27.7225 494.016 28.1132 494.011 28.544V30.3267C494.011 30.8665 494.11 31.3329 494.309 31.7259C494.513 32.1188 494.799 32.4219 495.169 32.6349C495.538 32.848 495.976 32.9545 496.483 32.9545C496.819 32.9545 497.127 32.9072 497.406 32.8125C497.685 32.7178 497.924 32.5758 498.123 32.3864C498.322 32.197 498.474 31.965 498.578 31.6903L501.376 31.875C501.234 32.5473 500.943 33.1345 500.502 33.6364C500.067 34.1335 499.503 34.5218 498.812 34.8011C498.126 35.0758 497.333 35.2131 496.433 35.2131Z" fill="white" fill-opacity="0.95"/>
<mask id="path-9-inside-3_1266_48870" fill="white">
<path d="M0 56H330V112H0V56Z"/>
</mask>
<path d="M0 56H330V112H0V56Z" fill="#1A1A1A"/>
<path d="M329 56V112H331V56H329Z" fill="white" fill-opacity="0.3" mask="url(#path-9-inside-3_1266_48870)"/>
<path d="M35.0227 81.2727V82.4091H30.5V81.2727H35.0227ZM31.8182 79.1818H33.1591V87.5C33.1591 87.8788 33.214 88.1629 33.3239 88.3523C33.4375 88.5379 33.5814 88.6629 33.7557 88.7273C33.9337 88.7879 34.1212 88.8182 34.3182 88.8182C34.4659 88.8182 34.5871 88.8106 34.6818 88.7955C34.7765 88.7765 34.8523 88.7614 34.9091 88.75L35.1818 89.9545C35.0909 89.9886 34.964 90.0227 34.8011 90.0568C34.6383 90.0947 34.4318 90.1136 34.1818 90.1136C33.803 90.1136 33.4318 90.0322 33.0682 89.8693C32.7083 89.7064 32.4091 89.4583 32.1705 89.125C31.9356 88.7917 31.8182 88.3712 31.8182 87.8636V79.1818ZM40.6051 90.1818C39.7642 90.1818 39.0388 89.9962 38.429 89.625C37.8229 89.25 37.3551 88.7273 37.0256 88.0568C36.6998 87.3826 36.5369 86.5985 36.5369 85.7045C36.5369 84.8106 36.6998 84.0227 37.0256 83.3409C37.3551 82.6553 37.8134 82.1212 38.4006 81.7386C38.9915 81.3523 39.6809 81.1591 40.4688 81.1591C40.9233 81.1591 41.3722 81.2348 41.8153 81.3864C42.2585 81.5379 42.6619 81.7841 43.0256 82.125C43.3892 82.4621 43.679 82.9091 43.8949 83.4659C44.1108 84.0227 44.2188 84.7083 44.2188 85.5227V86.0909H37.4915V84.9318H42.8551C42.8551 84.4394 42.7566 84 42.5597 83.6136C42.3665 83.2273 42.09 82.9223 41.7301 82.6989C41.3741 82.4754 40.9536 82.3636 40.4688 82.3636C39.9347 82.3636 39.4725 82.4962 39.0824 82.7614C38.696 83.0227 38.3987 83.3636 38.1903 83.7841C37.982 84.2045 37.8778 84.6553 37.8778 85.1364V85.9091C37.8778 86.5682 37.9915 87.1269 38.2188 87.5852C38.4498 88.0398 38.7699 88.3864 39.179 88.625C39.5881 88.8598 40.0634 88.9773 40.6051 88.9773C40.9574 88.9773 41.2756 88.928 41.5597 88.8295C41.8475 88.7273 42.0956 88.5758 42.304 88.375C42.5123 88.1705 42.6733 87.9167 42.7869 87.6136L44.0824 87.9773C43.946 88.4167 43.7169 88.803 43.3949 89.1364C43.0729 89.4659 42.6752 89.7235 42.2017 89.9091C41.7282 90.0909 41.196 90.1818 40.6051 90.1818ZM47.0241 81.2727L49.1151 84.8409L51.206 81.2727H52.7514L49.9332 85.6364L52.7514 90H51.206L49.1151 86.6136L47.0241 90H45.4787L48.2514 85.6364L45.4787 81.2727H47.0241ZM58.4602 81.2727V82.4091H53.9375V81.2727H58.4602ZM55.2557 79.1818H56.5966V87.5C56.5966 87.8788 56.6515 88.1629 56.7614 88.3523C56.875 88.5379 57.0189 88.6629 57.1932 88.7273C57.3712 88.7879 57.5587 88.8182 57.7557 88.8182C57.9034 88.8182 58.0246 88.8106 58.1193 88.7955C58.214 88.7765 58.2898 88.7614 58.3466 88.75L58.6193 89.9545C58.5284 89.9886 58.4015 90.0227 58.2386 90.0568C58.0758 90.0947 57.8693 90.1136 57.6193 90.1136C57.2405 90.1136 56.8693 90.0322 56.5057 89.8693C56.1458 89.7064 55.8466 89.4583 55.608 89.125C55.3731 88.7917 55.2557 88.3712 55.2557 87.8636V79.1818ZM68.8636 81.2727V82.4091H64.1591V81.2727H68.8636ZM65.5682 90V80.0682C65.5682 79.5682 65.6856 79.1515 65.9205 78.8182C66.1553 78.4848 66.4602 78.2348 66.8352 78.0682C67.2102 77.9015 67.6061 77.8182 68.0227 77.8182C68.3523 77.8182 68.6212 77.8447 68.8295 77.8977C69.0379 77.9508 69.1932 78 69.2955 78.0455L68.9091 79.2045C68.8409 79.1818 68.7462 79.1534 68.625 79.1193C68.5076 79.0852 68.3523 79.0682 68.1591 79.0682C67.7159 79.0682 67.3958 79.1799 67.1989 79.4034C67.0057 79.6269 66.9091 79.9545 66.9091 80.3864V90H65.5682ZM70.7429 90V81.2727H72.0838V90H70.7429ZM71.4247 79.8182C71.1634 79.8182 70.938 79.7292 70.7486 79.5511C70.563 79.3731 70.4702 79.1591 70.4702 78.9091C70.4702 78.6591 70.563 78.4451 70.7486 78.267C70.938 78.089 71.1634 78 71.4247 78C71.6861 78 71.9096 78.089 72.0952 78.267C72.2846 78.4451 72.3793 78.6591 72.3793 78.9091C72.3793 79.1591 72.2846 79.3731 72.0952 79.5511C71.9096 79.7292 71.6861 79.8182 71.4247 79.8182ZM78.1989 90.1818C77.358 90.1818 76.6326 89.9962 76.0227 89.625C75.4167 89.25 74.9489 88.7273 74.6193 88.0568C74.2936 87.3826 74.1307 86.5985 74.1307 85.7045C74.1307 84.8106 74.2936 84.0227 74.6193 83.3409C74.9489 82.6553 75.4072 82.1212 75.9943 81.7386C76.5852 81.3523 77.2746 81.1591 78.0625 81.1591C78.517 81.1591 78.9659 81.2348 79.4091 81.3864C79.8523 81.5379 80.2557 81.7841 80.6193 82.125C80.983 82.4621 81.2727 82.9091 81.4886 83.4659C81.7045 84.0227 81.8125 84.7083 81.8125 85.5227V86.0909H75.0852V84.9318H80.4489C80.4489 84.4394 80.3504 84 80.1534 83.6136C79.9602 83.2273 79.6837 82.9223 79.3239 82.6989C78.9678 82.4754 78.5473 82.3636 78.0625 82.3636C77.5284 82.3636 77.0663 82.4962 76.6761 82.7614C76.2898 83.0227 75.9924 83.3636 75.7841 83.7841C75.5758 84.2045 75.4716 84.6553 75.4716 85.1364V85.9091C75.4716 86.5682 75.5852 87.1269 75.8125 87.5852C76.0436 88.0398 76.3636 88.3864 76.7727 88.625C77.1818 88.8598 77.6572 88.9773 78.1989 88.9773C78.5511 88.9773 78.8693 88.928 79.1534 88.8295C79.4413 88.7273 79.6894 88.5758 79.8977 88.375C80.1061 88.1705 80.267 87.9167 80.3807 87.6136L81.6761 87.9773C81.5398 88.4167 81.3106 88.803 80.9886 89.1364C80.6667 89.4659 80.2689 89.7235 79.7955 89.9091C79.322 90.0909 78.7898 90.1818 78.1989 90.1818ZM85.1932 78.3636V90H83.8523V78.3636H85.1932ZM90.9446 90.1818C90.2173 90.1818 89.5753 89.9981 89.0185 89.6307C88.4616 89.2595 88.026 88.7367 87.7116 88.0625C87.3973 87.3845 87.2401 86.5833 87.2401 85.6591C87.2401 84.7424 87.3973 83.947 87.7116 83.2727C88.026 82.5985 88.4635 82.0777 89.0241 81.7102C89.5848 81.3428 90.2325 81.1591 90.9673 81.1591C91.5355 81.1591 91.9844 81.2538 92.3139 81.4432C92.6473 81.6288 92.901 81.8409 93.0753 82.0795C93.2533 82.3144 93.3916 82.5076 93.4901 82.6591H93.6037V78.3636H94.9446V90H93.6491V88.6591H93.4901C93.3916 88.8182 93.2514 89.0189 93.0696 89.2614C92.8878 89.5 92.6283 89.714 92.2912 89.9034C91.9541 90.089 91.5052 90.1818 90.9446 90.1818ZM91.1264 88.9773C91.6643 88.9773 92.1188 88.8371 92.4901 88.5568C92.8613 88.2727 93.1435 87.8807 93.3366 87.3807C93.5298 86.8769 93.6264 86.2955 93.6264 85.6364C93.6264 84.9848 93.5317 84.4148 93.3423 83.9261C93.1529 83.4337 92.8726 83.0511 92.5014 82.7784C92.1302 82.5019 91.6719 82.3636 91.1264 82.3636C90.5582 82.3636 90.0848 82.5095 89.706 82.8011C89.331 83.089 89.0488 83.4811 88.8594 83.9773C88.6738 84.4697 88.581 85.0227 88.581 85.6364C88.581 86.2576 88.6757 86.822 88.8651 87.3295C89.0582 87.8333 89.3423 88.2348 89.7173 88.5341C90.0961 88.8295 90.5658 88.9773 91.1264 88.9773ZM102.268 90V78.3636H103.609V82.6591H103.723C103.821 82.5076 103.958 82.3144 104.132 82.0795C104.31 81.8409 104.564 81.6288 104.893 81.4432C105.227 81.2538 105.678 81.1591 106.246 81.1591C106.981 81.1591 107.628 81.3428 108.189 81.7102C108.75 82.0777 109.187 82.5985 109.501 83.2727C109.816 83.947 109.973 84.7424 109.973 85.6591C109.973 86.5833 109.816 87.3845 109.501 88.0625C109.187 88.7367 108.751 89.2595 108.195 89.6307C107.638 89.9981 106.996 90.1818 106.268 90.1818C105.708 90.1818 105.259 90.089 104.922 89.9034C104.585 89.714 104.325 89.5 104.143 89.2614C103.962 89.0189 103.821 88.8182 103.723 88.6591H103.564V90H102.268ZM103.587 85.6364C103.587 86.2955 103.683 86.8769 103.876 87.3807C104.07 87.8807 104.352 88.2727 104.723 88.5568C105.094 88.8371 105.549 88.9773 106.087 88.9773C106.647 88.9773 107.115 88.8295 107.49 88.5341C107.869 88.2348 108.153 87.8333 108.342 87.3295C108.536 86.822 108.632 86.2576 108.632 85.6364C108.632 85.0227 108.537 84.4697 108.348 83.9773C108.162 83.4811 107.88 83.089 107.501 82.8011C107.126 82.5095 106.655 82.3636 106.087 82.3636C105.541 82.3636 105.083 82.5019 104.712 82.7784C104.34 83.0511 104.06 83.4337 103.871 83.9261C103.681 84.4148 103.587 84.9848 103.587 85.6364ZM115.57 90.1818C114.782 90.1818 114.09 89.9943 113.496 89.6193C112.905 89.2443 112.443 88.7197 112.109 88.0455C111.78 87.3712 111.615 86.5833 111.615 85.6818C111.615 84.7727 111.78 83.9792 112.109 83.3011C112.443 82.6231 112.905 82.0966 113.496 81.7216C114.09 81.3466 114.782 81.1591 115.57 81.1591C116.357 81.1591 117.047 81.3466 117.638 81.7216C118.232 82.0966 118.695 82.6231 119.024 83.3011C119.357 83.9792 119.524 84.7727 119.524 85.6818C119.524 86.5833 119.357 87.3712 119.024 88.0455C118.695 88.7197 118.232 89.2443 117.638 89.6193C117.047 89.9943 116.357 90.1818 115.57 90.1818ZM115.57 88.9773C116.168 88.9773 116.661 88.8239 117.047 88.517C117.433 88.2102 117.719 87.8068 117.905 87.3068C118.09 86.8068 118.183 86.2652 118.183 85.6818C118.183 85.0985 118.09 84.5549 117.905 84.0511C117.719 83.5473 117.433 83.1402 117.047 82.8295C116.661 82.5189 116.168 82.3636 115.57 82.3636C114.971 82.3636 114.479 82.5189 114.092 82.8295C113.706 83.1402 113.42 83.5473 113.234 84.0511C113.049 84.5549 112.956 85.0985 112.956 85.6818C112.956 86.2652 113.049 86.8068 113.234 87.3068C113.42 87.8068 113.706 88.2102 114.092 88.517C114.479 88.8239 114.971 88.9773 115.57 88.9773ZM121.571 90V81.2727H122.866V82.5909H122.957C123.116 82.1591 123.404 81.8087 123.821 81.5398C124.238 81.2708 124.707 81.1364 125.23 81.1364C125.329 81.1364 125.452 81.1383 125.599 81.142C125.747 81.1458 125.859 81.1515 125.935 81.1591V82.5227C125.889 82.5114 125.785 82.4943 125.622 82.4716C125.463 82.4451 125.295 82.4318 125.116 82.4318C124.692 82.4318 124.313 82.5208 123.98 82.6989C123.651 82.8731 123.389 83.1155 123.196 83.4261C123.007 83.733 122.912 84.0833 122.912 84.4773V90H121.571ZM130.554 90.1818C129.827 90.1818 129.185 89.9981 128.628 89.6307C128.071 89.2595 127.635 88.7367 127.321 88.0625C127.007 87.3845 126.849 86.5833 126.849 85.6591C126.849 84.7424 127.007 83.947 127.321 83.2727C127.635 82.5985 128.073 82.0777 128.634 81.7102C129.194 81.3428 129.842 81.1591 130.577 81.1591C131.145 81.1591 131.594 81.2538 131.923 81.4432C132.257 81.6288 132.51 81.8409 132.685 82.0795C132.863 82.3144 133.001 82.5076 133.099 82.6591H133.213V78.3636H134.554V90H133.259V88.6591H133.099C133.001 88.8182 132.861 89.0189 132.679 89.2614C132.497 89.5 132.238 89.714 131.901 89.9034C131.563 90.089 131.115 90.1818 130.554 90.1818ZM130.736 88.9773C131.274 88.9773 131.728 88.8371 132.099 88.5568C132.471 88.2727 132.753 87.8807 132.946 87.3807C133.139 86.8769 133.236 86.2955 133.236 85.6364C133.236 84.9848 133.141 84.4148 132.952 83.9261C132.762 83.4337 132.482 83.0511 132.111 82.7784C131.74 82.5019 131.281 82.3636 130.736 82.3636C130.168 82.3636 129.694 82.5095 129.315 82.8011C128.94 83.089 128.658 83.4811 128.469 83.9773C128.283 84.4697 128.19 85.0227 128.19 85.6364C128.19 86.2576 128.285 86.822 128.474 87.3295C128.668 87.8333 128.952 88.2348 129.327 88.5341C129.705 88.8295 130.175 88.9773 130.736 88.9773ZM140.855 90.1818C140.014 90.1818 139.289 89.9962 138.679 89.625C138.073 89.25 137.605 88.7273 137.276 88.0568C136.95 87.3826 136.787 86.5985 136.787 85.7045C136.787 84.8106 136.95 84.0227 137.276 83.3409C137.605 82.6553 138.063 82.1212 138.651 81.7386C139.241 81.3523 139.931 81.1591 140.719 81.1591C141.173 81.1591 141.622 81.2348 142.065 81.3864C142.509 81.5379 142.912 81.7841 143.276 82.125C143.639 82.4621 143.929 82.9091 144.145 83.4659C144.361 84.0227 144.469 84.7083 144.469 85.5227V86.0909H137.741V84.9318H143.105C143.105 84.4394 143.007 84 142.81 83.6136C142.616 83.2273 142.34 82.9223 141.98 82.6989C141.624 82.4754 141.204 82.3636 140.719 82.3636C140.185 82.3636 139.723 82.4962 139.332 82.7614C138.946 83.0227 138.649 83.3636 138.44 83.7841C138.232 84.2045 138.128 84.6553 138.128 85.1364V85.9091C138.128 86.5682 138.241 87.1269 138.469 87.5852C138.7 88.0398 139.02 88.3864 139.429 88.625C139.838 88.8598 140.313 88.9773 140.855 88.9773C141.207 88.9773 141.526 88.928 141.81 88.8295C142.098 88.7273 142.346 88.5758 142.554 88.375C142.762 88.1705 142.923 87.9167 143.037 87.6136L144.332 87.9773C144.196 88.4167 143.967 88.803 143.645 89.1364C143.323 89.4659 142.925 89.7235 142.452 89.9091C141.978 90.0909 141.446 90.1818 140.855 90.1818ZM146.509 90V81.2727H147.804V82.5909H147.895C148.054 82.1591 148.342 81.8087 148.759 81.5398C149.175 81.2708 149.645 81.1364 150.168 81.1364C150.266 81.1364 150.389 81.1383 150.537 81.142C150.685 81.1458 150.796 81.1515 150.872 81.1591V82.5227C150.827 82.5114 150.723 82.4943 150.56 82.4716C150.401 82.4451 150.232 82.4318 150.054 82.4318C149.63 82.4318 149.251 82.5208 148.918 82.6989C148.588 82.8731 148.327 83.1155 148.134 83.4261C147.944 83.733 147.849 84.0833 147.849 84.4773V90H146.509ZM156.962 90V81.2727H158.257V82.5909H158.348C158.507 82.1591 158.795 81.8087 159.212 81.5398C159.628 81.2708 160.098 81.1364 160.621 81.1364C160.719 81.1364 160.842 81.1383 160.99 81.142C161.138 81.1458 161.25 81.1515 161.325 81.1591V82.5227C161.28 82.5114 161.176 82.4943 161.013 82.4716C160.854 82.4451 160.685 82.4318 160.507 82.4318C160.083 82.4318 159.704 82.5208 159.371 82.6989C159.041 82.8731 158.78 83.1155 158.587 83.4261C158.397 83.733 158.303 84.0833 158.303 84.4773V90H156.962ZM165.483 90.2045C164.93 90.2045 164.428 90.1004 163.977 89.892C163.527 89.6799 163.169 89.375 162.903 88.9773C162.638 88.5758 162.506 88.0909 162.506 87.5227C162.506 87.0227 162.604 86.6174 162.801 86.3068C162.998 85.9924 163.261 85.7462 163.591 85.5682C163.92 85.3902 164.284 85.2576 164.682 85.1705C165.083 85.0795 165.487 85.0076 165.892 84.9545C166.422 84.8864 166.852 84.8352 167.182 84.8011C167.515 84.7633 167.758 84.7008 167.909 84.6136C168.064 84.5265 168.142 84.375 168.142 84.1591V84.1136C168.142 83.553 167.989 83.1174 167.682 82.8068C167.379 82.4962 166.919 82.3409 166.301 82.3409C165.661 82.3409 165.159 82.4811 164.795 82.7614C164.432 83.0417 164.176 83.3409 164.028 83.6591L162.756 83.2045C162.983 82.6742 163.286 82.2614 163.665 81.9659C164.047 81.6667 164.464 81.4583 164.915 81.3409C165.369 81.2197 165.816 81.1591 166.256 81.1591C166.536 81.1591 166.858 81.1932 167.222 81.2614C167.589 81.3258 167.943 81.4602 168.284 81.6648C168.629 81.8693 168.915 82.178 169.142 82.5909C169.369 83.0038 169.483 83.5568 169.483 84.25V90H168.142V88.8182H168.074C167.983 89.0076 167.831 89.2102 167.619 89.4261C167.407 89.642 167.125 89.8258 166.773 89.9773C166.42 90.1288 165.991 90.2045 165.483 90.2045ZM165.688 89C166.218 89 166.665 88.8958 167.028 88.6875C167.396 88.4792 167.672 88.2102 167.858 87.8807C168.047 87.5511 168.142 87.2045 168.142 86.8409V85.6136C168.085 85.6818 167.96 85.7443 167.767 85.8011C167.578 85.8542 167.358 85.9015 167.108 85.9432C166.862 85.9811 166.621 86.0152 166.386 86.0455C166.155 86.072 165.968 86.0947 165.824 86.1136C165.475 86.1591 165.15 86.233 164.847 86.3352C164.547 86.4337 164.305 86.5833 164.119 86.7841C163.938 86.9811 163.847 87.25 163.847 87.5909C163.847 88.0568 164.019 88.4091 164.364 88.6477C164.712 88.8826 165.153 89 165.688 89ZM175.226 90.1818C174.499 90.1818 173.857 89.9981 173.3 89.6307C172.743 89.2595 172.307 88.7367 171.993 88.0625C171.679 87.3845 171.521 86.5833 171.521 85.6591C171.521 84.7424 171.679 83.947 171.993 83.2727C172.307 82.5985 172.745 82.0777 173.305 81.7102C173.866 81.3428 174.514 81.1591 175.249 81.1591C175.817 81.1591 176.266 81.2538 176.595 81.4432C176.929 81.6288 177.182 81.8409 177.357 82.0795C177.535 82.3144 177.673 82.5076 177.771 82.6591H177.885V78.3636H179.226V90H177.93V88.6591H177.771C177.673 88.8182 177.533 89.0189 177.351 89.2614C177.169 89.5 176.91 89.714 176.572 89.9034C176.235 90.089 175.786 90.1818 175.226 90.1818ZM175.408 88.9773C175.946 88.9773 176.4 88.8371 176.771 88.5568C177.143 88.2727 177.425 87.8807 177.618 87.3807C177.811 86.8769 177.908 86.2955 177.908 85.6364C177.908 84.9848 177.813 84.4148 177.624 83.9261C177.434 83.4337 177.154 83.0511 176.783 82.7784C176.411 82.5019 175.953 82.3636 175.408 82.3636C174.839 82.3636 174.366 82.5095 173.987 82.8011C173.612 83.089 173.33 83.4811 173.141 83.9773C172.955 84.4697 172.862 85.0227 172.862 85.6364C172.862 86.2576 172.957 86.822 173.146 87.3295C173.339 87.8333 173.624 88.2348 173.999 88.5341C174.377 88.8295 174.847 88.9773 175.408 88.9773ZM181.868 90V81.2727H183.209V90H181.868ZM182.55 79.8182C182.288 79.8182 182.063 79.7292 181.874 79.5511C181.688 79.3731 181.595 79.1591 181.595 78.9091C181.595 78.6591 181.688 78.4451 181.874 78.267C182.063 78.089 182.288 78 182.55 78C182.811 78 183.035 78.089 183.22 78.267C183.41 78.4451 183.504 78.6591 183.504 78.9091C183.504 79.1591 183.41 79.3731 183.22 79.5511C183.035 79.7292 182.811 79.8182 182.55 79.8182ZM191.165 86.4318V81.2727H192.506V90H191.165V88.5227H191.074C190.869 88.9659 190.551 89.3428 190.119 89.6534C189.688 89.9602 189.142 90.1136 188.483 90.1136C187.938 90.1136 187.453 89.9943 187.028 89.7557C186.604 89.5133 186.271 89.1496 186.028 88.6648C185.786 88.1761 185.665 87.5606 185.665 86.8182V81.2727H187.006V86.7273C187.006 87.3636 187.184 87.8712 187.54 88.25C187.9 88.6288 188.358 88.8182 188.915 88.8182C189.248 88.8182 189.587 88.733 189.932 88.5625C190.28 88.392 190.572 88.1307 190.807 87.7784C191.045 87.4261 191.165 86.9773 191.165 86.4318ZM201.143 83.2273L199.939 83.5682C199.863 83.3674 199.751 83.1723 199.604 82.983C199.46 82.7898 199.263 82.6307 199.013 82.5057C198.763 82.3807 198.443 82.3182 198.053 82.3182C197.518 82.3182 197.073 82.4413 196.717 82.6875C196.365 82.9299 196.189 83.2386 196.189 83.6136C196.189 83.947 196.31 84.2102 196.553 84.4034C196.795 84.5966 197.174 84.7576 197.689 84.8864L198.984 85.2045C199.765 85.3939 200.346 85.6837 200.729 86.0739C201.111 86.4602 201.303 86.9583 201.303 87.5682C201.303 88.0682 201.159 88.5152 200.871 88.9091C200.587 89.303 200.189 89.6136 199.678 89.8409C199.166 90.0682 198.571 90.1818 197.893 90.1818C197.003 90.1818 196.267 89.9886 195.683 89.6023C195.1 89.2159 194.731 88.6515 194.575 87.9091L195.848 87.5909C195.969 88.0606 196.198 88.4129 196.536 88.6477C196.876 88.8826 197.321 89 197.871 89C198.496 89 198.992 88.8674 199.359 88.6023C199.731 88.3333 199.916 88.0114 199.916 87.6364C199.916 87.3333 199.81 87.0795 199.598 86.875C199.386 86.6667 199.06 86.5114 198.621 86.4091L197.166 86.0682C196.367 85.8788 195.78 85.5852 195.405 85.1875C195.034 84.786 194.848 84.2841 194.848 83.6818C194.848 83.1894 194.986 82.7538 195.263 82.375C195.543 81.9962 195.924 81.6989 196.405 81.483C196.89 81.267 197.439 81.1591 198.053 81.1591C198.916 81.1591 199.594 81.3485 200.087 81.7273C200.583 82.1061 200.935 82.6061 201.143 83.2273Z" fill="white" fill-opacity="0.95"/>
<path d="M330 56H1300V112H330V56Z" fill="#1A1A1A"/>
<path d="M364.932 90.1591C364.152 90.1591 363.462 90.0208 362.864 89.7443C362.269 89.464 361.805 89.0795 361.472 88.5909C361.138 88.0985 360.973 87.5379 360.977 86.9091C360.973 86.4167 361.07 85.9621 361.267 85.5455C361.464 85.125 361.733 84.7746 362.074 84.4943C362.419 84.2102 362.803 84.0303 363.227 83.9545V83.8864C362.67 83.7424 362.227 83.4299 361.898 82.9489C361.568 82.464 361.405 81.9129 361.409 81.2955C361.405 80.7045 361.555 80.1761 361.858 79.7102C362.161 79.2443 362.578 78.8769 363.108 78.608C363.642 78.339 364.25 78.2045 364.932 78.2045C365.606 78.2045 366.208 78.339 366.739 78.608C367.269 78.8769 367.686 79.2443 367.989 79.7102C368.295 80.1761 368.451 80.7045 368.455 81.2955C368.451 81.9129 368.282 82.464 367.949 82.9489C367.619 83.4299 367.182 83.7424 366.636 83.8864V83.9545C367.057 84.0303 367.436 84.2102 367.773 84.4943C368.11 84.7746 368.379 85.125 368.58 85.5455C368.78 85.9621 368.883 86.4167 368.886 86.9091C368.883 87.5379 368.712 88.0985 368.375 88.5909C368.042 89.0795 367.578 89.464 366.983 89.7443C366.392 90.0208 365.708 90.1591 364.932 90.1591ZM364.932 88.9091C365.458 88.9091 365.913 88.8239 366.295 88.6534C366.678 88.483 366.973 88.2424 367.182 87.9318C367.39 87.6212 367.496 87.2576 367.5 86.8409C367.496 86.4015 367.383 86.0133 367.159 85.6761C366.936 85.339 366.631 85.0739 366.244 84.8807C365.862 84.6875 365.424 84.5909 364.932 84.5909C364.436 84.5909 363.992 84.6875 363.602 84.8807C363.216 85.0739 362.911 85.339 362.688 85.6761C362.468 86.0133 362.36 86.4015 362.364 86.8409C362.36 87.2576 362.46 87.6212 362.665 87.9318C362.873 88.2424 363.17 88.483 363.557 88.6534C363.943 88.8239 364.402 88.9091 364.932 88.9091ZM364.932 83.3864C365.348 83.3864 365.718 83.303 366.04 83.1364C366.366 82.9697 366.621 82.7367 366.807 82.4375C366.992 82.1383 367.087 81.7879 367.091 81.3864C367.087 80.9924 366.994 80.6496 366.812 80.358C366.631 80.0625 366.379 79.8352 366.057 79.6761C365.735 79.5133 365.36 79.4318 364.932 79.4318C364.496 79.4318 364.116 79.5133 363.79 79.6761C363.464 79.8352 363.212 80.0625 363.034 80.358C362.856 80.6496 362.769 80.9924 362.773 81.3864C362.769 81.7879 362.858 82.1383 363.04 82.4375C363.225 82.7367 363.481 82.9697 363.807 83.1364C364.133 83.303 364.508 83.3864 364.932 83.3864ZM371.087 93.2727V81.2727H372.382V82.6591H372.541C372.64 82.5076 372.776 82.3144 372.95 82.0795C373.128 81.8409 373.382 81.6288 373.712 81.4432C374.045 81.2538 374.496 81.1591 375.064 81.1591C375.799 81.1591 376.446 81.3428 377.007 81.7102C377.568 82.0777 378.005 82.5985 378.32 83.2727C378.634 83.947 378.791 84.7424 378.791 85.6591C378.791 86.5833 378.634 87.3845 378.32 88.0625C378.005 88.7367 377.57 89.2595 377.013 89.6307C376.456 89.9981 375.814 90.1818 375.087 90.1818C374.526 90.1818 374.077 90.089 373.74 89.9034C373.403 89.714 373.143 89.5 372.962 89.2614C372.78 89.0189 372.64 88.8182 372.541 88.6591H372.428V93.2727H371.087ZM372.405 85.6364C372.405 86.2955 372.501 86.8769 372.695 87.3807C372.888 87.8807 373.17 88.2727 373.541 88.5568C373.912 88.8371 374.367 88.9773 374.905 88.9773C375.465 88.9773 375.933 88.8295 376.308 88.5341C376.687 88.2348 376.971 87.8333 377.161 87.3295C377.354 86.822 377.45 86.2576 377.45 85.6364C377.45 85.0227 377.356 84.4697 377.166 83.9773C376.981 83.4811 376.698 83.089 376.32 82.8011C375.945 82.5095 375.473 82.3636 374.905 82.3636C374.359 82.3636 373.901 82.5019 373.53 82.7784C373.159 83.0511 372.878 83.4337 372.689 83.9261C372.5 84.4148 372.405 84.9848 372.405 85.6364ZM381.477 81.2727L383.568 84.8409L385.659 81.2727H387.205L384.386 85.6364L387.205 90H385.659L383.568 86.6136L381.477 90H379.932L382.705 85.6364L379.932 81.2727H381.477Z" fill="white" fill-opacity="0.95"/>
</g>
<rect x="0.5" y="0.5" width="1299" height="111" rx="23.5" stroke="white" stroke-opacity="0.2"/>
<defs>
<clipPath id="clip0_1266_48870">
<rect width="1300" height="112" rx="24" fill="white"/>
</clipPath>
</defs>
</svg>
