<svg width="555" height="152" viewBox="0 0 555 152" fill="none" xmlns="http://www.w3.org/2000/svg">
<rect width="555" height="152" rx="24" fill="#262626"/>
<rect x="153" y="60.5" width="249" height="31" rx="7.5" stroke="white" stroke-opacity="0.5"/>
<path d="M177.5 71.5002H167.5C167.367 71.5002 167.24 71.5529 167.147 71.6467C167.053 71.7405 167 71.8676 167 72.0002C167 72.1329 167.053 72.26 167.147 72.3538C167.24 72.4476 167.367 72.5002 167.5 72.5002H177.5C177.633 72.5002 177.76 72.4476 177.854 72.3538C177.947 72.26 178 72.1329 178 72.0002C178 71.8676 177.947 71.7405 177.854 71.6467C177.76 71.5529 177.633 71.5002 177.5 71.5002Z" fill="white" fill-opacity="0.95"/>
<path d="M176 75.5002H169C168.934 75.5002 168.869 75.5132 168.809 75.5383C168.748 75.5634 168.693 75.6003 168.647 75.6467C168.6 75.6931 168.563 75.7482 168.538 75.8089C168.513 75.8696 168.5 75.9346 168.5 76.0002C168.5 76.0659 168.513 76.1309 168.538 76.1916C168.563 76.2522 168.6 76.3074 168.647 76.3538C168.693 76.4002 168.748 76.4371 168.809 76.4622C168.869 76.4873 168.934 76.5002 169 76.5002H176C176.133 76.5002 176.26 76.4476 176.354 76.3538C176.447 76.26 176.5 76.1329 176.5 76.0002C176.5 75.8676 176.447 75.7405 176.354 75.6467C176.26 75.5529 176.133 75.5002 176 75.5002Z" fill="white" fill-opacity="0.95"/>
<path d="M175 79.5002H170C169.867 79.5002 169.74 79.5529 169.647 79.6467C169.553 79.7405 169.5 79.8676 169.5 80.0002C169.5 80.1329 169.553 80.26 169.647 80.3538C169.74 80.4476 169.867 80.5002 170 80.5002H175C175.133 80.5002 175.26 80.4476 175.354 80.3538C175.447 80.26 175.5 80.1329 175.5 80.0002C175.5 79.8676 175.447 79.7405 175.354 79.6467C175.26 79.5529 175.133 79.5002 175 79.5002Z" fill="white" fill-opacity="0.95"/>
<path d="M187.733 70.8182H189.205L192.665 79.2699H192.784L196.244 70.8182H197.716V81H196.562V73.2642H196.463L193.281 81H192.168L188.986 73.2642H188.886V81H187.733V70.8182ZM202.276 81.179C201.792 81.179 201.353 81.0878 200.959 80.9055C200.564 80.7199 200.251 80.4531 200.019 80.1051C199.787 79.7538 199.671 79.3295 199.671 78.8324C199.671 78.3949 199.757 78.0402 199.93 77.7685C200.102 77.4934 200.332 77.2779 200.621 77.1222C200.909 76.9664 201.227 76.8504 201.575 76.7741C201.926 76.6946 202.279 76.6316 202.634 76.5852C203.098 76.5256 203.474 76.4808 203.763 76.451C204.054 76.4179 204.266 76.3632 204.399 76.2869C204.535 76.2107 204.603 76.0781 204.603 75.8892V75.8494C204.603 75.3589 204.469 74.9777 204.2 74.706C203.935 74.4342 203.532 74.2983 202.992 74.2983C202.432 74.2983 201.993 74.4209 201.675 74.6662C201.356 74.9115 201.133 75.1733 201.003 75.4517L199.89 75.054C200.089 74.59 200.354 74.2287 200.685 73.9702C201.02 73.7083 201.385 73.526 201.779 73.4233C202.177 73.3172 202.568 73.2642 202.952 73.2642C203.198 73.2642 203.479 73.294 203.797 73.3537C204.119 73.41 204.429 73.5277 204.727 73.7067C205.029 73.8857 205.279 74.1558 205.478 74.517C205.677 74.8783 205.776 75.3622 205.776 75.9688V81H204.603V79.9659H204.543C204.464 80.1316 204.331 80.3089 204.145 80.4979C203.96 80.6868 203.713 80.8475 203.405 80.9801C203.096 81.1127 202.72 81.179 202.276 81.179ZM202.455 80.125C202.919 80.125 203.31 80.0339 203.628 79.8516C203.95 79.6693 204.192 79.4339 204.354 79.1456C204.52 78.8572 204.603 78.554 204.603 78.2358V77.1619C204.553 77.2216 204.444 77.2763 204.275 77.326C204.109 77.3724 203.917 77.4138 203.698 77.4503C203.483 77.4834 203.272 77.5133 203.067 77.5398C202.864 77.563 202.7 77.5829 202.574 77.5994C202.269 77.6392 201.984 77.7038 201.719 77.7933C201.457 77.8795 201.245 78.0104 201.083 78.1861C200.924 78.3584 200.844 78.5937 200.844 78.892C200.844 79.2997 200.995 79.608 201.297 79.8168C201.602 80.0223 201.988 80.125 202.455 80.125ZM207.918 81V73.3636H209.051V74.517H209.131C209.27 74.1392 209.522 73.8326 209.886 73.5973C210.251 73.362 210.662 73.2443 211.119 73.2443C211.205 73.2443 211.313 73.246 211.442 73.2493C211.572 73.2526 211.67 73.2576 211.736 73.2642V74.4574C211.696 74.4474 211.605 74.4325 211.462 74.4126C211.323 74.3894 211.176 74.3778 211.02 74.3778C210.649 74.3778 210.317 74.4557 210.026 74.6115C209.737 74.764 209.509 74.9761 209.339 75.2479C209.174 75.5163 209.091 75.8229 209.091 76.1676V81H207.918ZM219.603 73.3636L216.779 81H215.586L212.762 73.3636H214.035L216.143 79.4489H216.223L218.331 73.3636H219.603ZM224.08 81.1591C223.344 81.1591 222.71 80.9967 222.176 80.6719C221.646 80.3438 221.237 79.8864 220.948 79.2997C220.663 78.7098 220.521 78.0237 220.521 77.2415C220.521 76.4593 220.663 75.7699 220.948 75.1733C221.237 74.5734 221.638 74.1061 222.151 73.7713C222.668 73.4332 223.272 73.2642 223.961 73.2642C224.359 73.2642 224.751 73.3305 225.139 73.4631C225.527 73.5956 225.88 73.8111 226.198 74.1094C226.516 74.4044 226.77 74.7955 226.959 75.2827C227.148 75.7699 227.242 76.3698 227.242 77.0824V77.5795H221.356V76.5653H226.049C226.049 76.1345 225.963 75.75 225.79 75.4119C225.621 75.0739 225.379 74.8071 225.065 74.6115C224.753 74.416 224.385 74.3182 223.961 74.3182C223.494 74.3182 223.089 74.4342 222.748 74.6662C222.41 74.8949 222.15 75.1932 221.967 75.5611C221.785 75.929 221.694 76.3234 221.694 76.7443V77.4205C221.694 77.9972 221.793 78.486 221.992 78.8871C222.194 79.2848 222.474 79.5881 222.832 79.7969C223.19 80.0024 223.606 80.1051 224.08 80.1051C224.388 80.1051 224.667 80.062 224.915 79.9759C225.167 79.8864 225.384 79.7538 225.567 79.5781C225.749 79.3991 225.89 79.1771 225.989 78.9119L227.123 79.2301C227.004 79.6146 226.803 79.9527 226.521 80.2443C226.24 80.5327 225.892 80.758 225.477 80.9205C225.063 81.0795 224.597 81.1591 224.08 81.1591ZM230.2 70.8182V81H229.027V70.8182H230.2Z" fill="white" fill-opacity="0.95"/>
<path d="M392.854 72.6467C392.76 72.5529 392.633 72.5002 392.5 72.5002C392.368 72.5002 392.24 72.5529 392.147 72.6467L386.5 78.2932L380.853 72.6467C380.759 72.5553 380.633 72.5046 380.502 72.5056C380.37 72.5066 380.245 72.5592 380.152 72.652C380.059 72.7449 380.006 72.8705 380.005 73.0018C380.004 73.1331 380.055 73.2595 380.146 73.3537L386.146 79.3537C386.24 79.4474 386.367 79.5001 386.5 79.5001C386.633 79.5001 386.76 79.4474 386.853 79.3537L392.853 73.3537C392.947 73.26 393 73.1328 393 73.0002C393 72.8676 392.947 72.7405 392.854 72.6467Z" fill="white" fill-opacity="0.95"/>
</svg>
