<svg width="245" height="112" viewBox="0 0 245 112" fill="none" xmlns="http://www.w3.org/2000/svg">
<mask id="path-1-inside-1_1267_50310" fill="white">
<path d="M0 0H245V112H0V0Z"/>
</mask>
<path d="M0 0H245V112H0V0Z" fill="#1A1A1A"/>
<path d="M245 112V113H246V112H245ZM244 0V112H246V0H244ZM245 111H0V113H245V111Z" fill="#707070" mask="url(#path-1-inside-1_1267_50310)"/>
<path d="M31.4091 62V50.3636H35.3409C36.2538 50.3636 37 50.5284 37.5795 50.858C38.1629 51.1837 38.5947 51.625 38.875 52.1818C39.1553 52.7386 39.2955 53.3598 39.2955 54.0455C39.2955 54.7311 39.1553 55.3542 38.875 55.9148C38.5985 56.4754 38.1705 56.9223 37.5909 57.2557C37.0114 57.5852 36.2689 57.75 35.3636 57.75H32.5455V56.5H35.3182C35.9432 56.5 36.4451 56.392 36.8239 56.1761C37.2027 55.9602 37.4773 55.6686 37.6477 55.3011C37.822 54.9299 37.9091 54.5114 37.9091 54.0455C37.9091 53.5795 37.822 53.1629 37.6477 52.7955C37.4773 52.428 37.2008 52.1402 36.8182 51.9318C36.4356 51.7197 35.928 51.6136 35.2955 51.6136H32.8182V62H31.4091ZM41.3835 62V53.2727H42.679V54.5909H42.7699C42.929 54.1591 43.2169 53.8087 43.6335 53.5398C44.0502 53.2708 44.5199 53.1364 45.0426 53.1364C45.1411 53.1364 45.2642 53.1383 45.4119 53.142C45.5597 53.1458 45.6714 53.1515 45.7472 53.1591V54.5227C45.7017 54.5114 45.5975 54.4943 45.4347 54.4716C45.2756 54.4451 45.107 54.4318 44.929 54.4318C44.5047 54.4318 44.1259 54.5208 43.7926 54.6989C43.4631 54.8731 43.2017 55.1155 43.0085 55.4261C42.8191 55.733 42.7244 56.0833 42.7244 56.4773V62H41.3835ZM50.7301 62.1818C49.8892 62.1818 49.1638 61.9962 48.554 61.625C47.9479 61.25 47.4801 60.7273 47.1506 60.0568C46.8248 59.3826 46.6619 58.5985 46.6619 57.7045C46.6619 56.8106 46.8248 56.0227 47.1506 55.3409C47.4801 54.6553 47.9384 54.1212 48.5256 53.7386C49.1165 53.3523 49.8059 53.1591 50.5938 53.1591C51.0483 53.1591 51.4972 53.2348 51.9403 53.3864C52.3835 53.5379 52.7869 53.7841 53.1506 54.125C53.5142 54.4621 53.804 54.9091 54.0199 55.4659C54.2358 56.0227 54.3438 56.7083 54.3438 57.5227V58.0909H47.6165V56.9318H52.9801C52.9801 56.4394 52.8816 56 52.6847 55.6136C52.4915 55.2273 52.215 54.9223 51.8551 54.6989C51.4991 54.4754 51.0786 54.3636 50.5938 54.3636C50.0597 54.3636 49.5975 54.4962 49.2074 54.7614C48.821 55.0227 48.5237 55.3636 48.3153 55.7841C48.107 56.2045 48.0028 56.6553 48.0028 57.1364V57.9091C48.0028 58.5682 48.1165 59.1269 48.3438 59.5852C48.5748 60.0398 48.8949 60.3864 49.304 60.625C49.7131 60.8598 50.1884 60.9773 50.7301 60.9773C51.0824 60.9773 51.4006 60.928 51.6847 60.8295C51.9725 60.7273 52.2206 60.5758 52.429 60.375C52.6373 60.1705 52.7983 59.9167 52.9119 59.6136L54.2074 59.9773C54.071 60.4167 53.8419 60.803 53.5199 61.1364C53.1979 61.4659 52.8002 61.7235 52.3267 61.9091C51.8532 62.0909 51.321 62.1818 50.7301 62.1818ZM62.5653 55.2273L61.3608 55.5682C61.285 55.3674 61.1733 55.1723 61.0256 54.983C60.8816 54.7898 60.6847 54.6307 60.4347 54.5057C60.1847 54.3807 59.8646 54.3182 59.4744 54.3182C58.9403 54.3182 58.4953 54.4413 58.1392 54.6875C57.7869 54.9299 57.6108 55.2386 57.6108 55.6136C57.6108 55.947 57.732 56.2102 57.9744 56.4034C58.2169 56.5966 58.5956 56.7576 59.1108 56.8864L60.4062 57.2045C61.1866 57.3939 61.768 57.6837 62.1506 58.0739C62.5331 58.4602 62.7244 58.9583 62.7244 59.5682C62.7244 60.0682 62.5805 60.5152 62.2926 60.9091C62.0085 61.303 61.6108 61.6136 61.0994 61.8409C60.5881 62.0682 59.9934 62.1818 59.3153 62.1818C58.4252 62.1818 57.6884 61.9886 57.1051 61.6023C56.5218 61.2159 56.1525 60.6515 55.9972 59.9091L57.2699 59.5909C57.3911 60.0606 57.6203 60.4129 57.9574 60.6477C58.2983 60.8826 58.7434 61 59.2926 61C59.9176 61 60.4138 60.8674 60.7812 60.6023C61.1525 60.3333 61.3381 60.0114 61.3381 59.6364C61.3381 59.3333 61.232 59.0795 61.0199 58.875C60.8078 58.6667 60.482 58.5114 60.0426 58.4091L58.5881 58.0682C57.7888 57.8788 57.2017 57.5852 56.8267 57.1875C56.4555 56.786 56.2699 56.2841 56.2699 55.6818C56.2699 55.1894 56.4081 54.7538 56.6847 54.375C56.965 53.9962 57.3456 53.6989 57.8267 53.483C58.3116 53.267 58.8608 53.1591 59.4744 53.1591C60.3381 53.1591 61.0161 53.3485 61.5085 53.7273C62.0047 54.1061 62.357 54.6061 62.5653 55.2273ZM70.9247 55.2273L69.7202 55.5682C69.6444 55.3674 69.5327 55.1723 69.3849 54.983C69.241 54.7898 69.044 54.6307 68.794 54.5057C68.544 54.3807 68.224 54.3182 67.8338 54.3182C67.2997 54.3182 66.8546 54.4413 66.4986 54.6875C66.1463 54.9299 65.9702 55.2386 65.9702 55.6136C65.9702 55.947 66.0914 56.2102 66.3338 56.4034C66.5762 56.5966 66.955 56.7576 67.4702 56.8864L68.7656 57.2045C69.5459 57.3939 70.1274 57.6837 70.5099 58.0739C70.8925 58.4602 71.0838 58.9583 71.0838 59.5682C71.0838 60.0682 70.9399 60.5152 70.652 60.9091C70.3679 61.303 69.9702 61.6136 69.4588 61.8409C68.9474 62.0682 68.3527 62.1818 67.6747 62.1818C66.7846 62.1818 66.0478 61.9886 65.4645 61.6023C64.8812 61.2159 64.5118 60.6515 64.3565 59.9091L65.6293 59.5909C65.7505 60.0606 65.9796 60.4129 66.3168 60.6477C66.6577 60.8826 67.1027 61 67.652 61C68.277 61 68.7732 60.8674 69.1406 60.6023C69.5118 60.3333 69.6974 60.0114 69.6974 59.6364C69.6974 59.3333 69.5914 59.0795 69.3793 58.875C69.1671 58.6667 68.8414 58.5114 68.402 58.4091L66.9474 58.0682C66.1482 57.8788 65.5611 57.5852 65.1861 57.1875C64.8149 56.786 64.6293 56.2841 64.6293 55.6818C64.6293 55.1894 64.7675 54.7538 65.044 54.375C65.3243 53.9962 65.705 53.6989 66.1861 53.483C66.6709 53.267 67.2202 53.1591 67.8338 53.1591C68.6974 53.1591 69.3755 53.3485 69.8679 53.7273C70.3641 54.1061 70.7164 54.6061 70.9247 55.2273ZM76.7614 62.1818C75.9205 62.1818 75.1951 61.9962 74.5852 61.625C73.9792 61.25 73.5114 60.7273 73.1818 60.0568C72.8561 59.3826 72.6932 58.5985 72.6932 57.7045C72.6932 56.8106 72.8561 56.0227 73.1818 55.3409C73.5114 54.6553 73.9697 54.1212 74.5568 53.7386C75.1477 53.3523 75.8371 53.1591 76.625 53.1591C77.0795 53.1591 77.5284 53.2348 77.9716 53.3864C78.4148 53.5379 78.8182 53.7841 79.1818 54.125C79.5455 54.4621 79.8352 54.9091 80.0511 55.4659C80.267 56.0227 80.375 56.7083 80.375 57.5227V58.0909H73.6477V56.9318H79.0114C79.0114 56.4394 78.9129 56 78.7159 55.6136C78.5227 55.2273 78.2462 54.9223 77.8864 54.6989C77.5303 54.4754 77.1098 54.3636 76.625 54.3636C76.0909 54.3636 75.6288 54.4962 75.2386 54.7614C74.8523 55.0227 74.5549 55.3636 74.3466 55.7841C74.1383 56.2045 74.0341 56.6553 74.0341 57.1364V57.9091C74.0341 58.5682 74.1477 59.1269 74.375 59.5852C74.6061 60.0398 74.9261 60.3864 75.3352 60.625C75.7443 60.8598 76.2197 60.9773 76.7614 60.9773C77.1136 60.9773 77.4318 60.928 77.7159 60.8295C78.0038 60.7273 78.2519 60.5758 78.4602 60.375C78.6686 60.1705 78.8295 59.9167 78.9432 59.6136L80.2386 59.9773C80.1023 60.4167 79.8731 60.803 79.5511 61.1364C79.2292 61.4659 78.8314 61.7235 78.358 61.9091C77.8845 62.0909 77.3523 62.1818 76.7614 62.1818ZM85.7102 62.1818C84.983 62.1818 84.3409 61.9981 83.7841 61.6307C83.2273 61.2595 82.7917 60.7367 82.4773 60.0625C82.1629 59.3845 82.0057 58.5833 82.0057 57.6591C82.0057 56.7424 82.1629 55.947 82.4773 55.2727C82.7917 54.5985 83.2292 54.0777 83.7898 53.7102C84.3504 53.3428 84.9981 53.1591 85.733 53.1591C86.3011 53.1591 86.75 53.2538 87.0795 53.4432C87.4129 53.6288 87.6667 53.8409 87.8409 54.0795C88.0189 54.3144 88.1572 54.5076 88.2557 54.6591H88.3693V50.3636H89.7102V62H88.4148V60.6591H88.2557C88.1572 60.8182 88.017 61.0189 87.8352 61.2614C87.6534 61.5 87.3939 61.714 87.0568 61.9034C86.7197 62.089 86.2708 62.1818 85.7102 62.1818ZM85.892 60.9773C86.4299 60.9773 86.8845 60.8371 87.2557 60.5568C87.6269 60.2727 87.9091 59.8807 88.1023 59.3807C88.2955 58.8769 88.392 58.2955 88.392 57.6364C88.392 56.9848 88.2973 56.4148 88.108 55.9261C87.9186 55.4337 87.6383 55.0511 87.267 54.7784C86.8958 54.5019 86.4375 54.3636 85.892 54.3636C85.3239 54.3636 84.8504 54.5095 84.4716 54.8011C84.0966 55.089 83.8144 55.4811 83.625 55.9773C83.4394 56.4697 83.3466 57.0227 83.3466 57.6364C83.3466 58.2576 83.4413 58.822 83.6307 59.3295C83.8239 59.8333 84.108 60.2348 84.483 60.5341C84.8617 60.8295 85.3314 60.9773 85.892 60.9773Z" fill="white" fill-opacity="0.95"/>
</svg>
