<svg width="245" height="160" viewBox="0 0 245 160" fill="none" xmlns="http://www.w3.org/2000/svg">
<mask id="path-1-inside-1_1267_50668" fill="white">
<path d="M0 0H245V160H0V0Z"/>
</mask>
<path d="M0 0H245V160H0V0Z" fill="#1A1A1A"/>
<path d="M244 0V160H246V0H244Z" fill="#707070" mask="url(#path-1-inside-1_1267_50668)"/>
<path d="M37.7727 77.2727C37.7045 76.697 37.428 76.25 36.9432 75.9318C36.4583 75.6136 35.8636 75.4545 35.1591 75.4545C34.6439 75.4545 34.1932 75.5379 33.8068 75.7045C33.4242 75.8712 33.125 76.1004 32.9091 76.392C32.697 76.6837 32.5909 77.0152 32.5909 77.3864C32.5909 77.697 32.6648 77.964 32.8125 78.1875C32.964 78.4072 33.1572 78.5909 33.392 78.7386C33.6269 78.8826 33.8731 79.0019 34.1307 79.0966C34.3883 79.1875 34.625 79.2614 34.8409 79.3182L36.0227 79.6364C36.3258 79.7159 36.6629 79.8258 37.0341 79.9659C37.4091 80.1061 37.767 80.2973 38.108 80.5398C38.4527 80.7784 38.7367 81.0852 38.9602 81.4602C39.1837 81.8352 39.2955 82.2955 39.2955 82.8409C39.2955 83.4697 39.1307 84.0379 38.8011 84.5455C38.4754 85.053 37.9981 85.4564 37.3693 85.7557C36.7443 86.0549 35.9848 86.2045 35.0909 86.2045C34.2576 86.2045 33.536 86.0701 32.9261 85.8011C32.3201 85.5322 31.8428 85.1572 31.4943 84.6761C31.1496 84.1951 30.9545 83.6364 30.9091 83H32.3636C32.4015 83.4394 32.5492 83.803 32.8068 84.0909C33.0682 84.375 33.3977 84.5871 33.7955 84.7273C34.197 84.8636 34.6288 84.9318 35.0909 84.9318C35.6288 84.9318 36.1117 84.8447 36.5398 84.6705C36.9678 84.4924 37.3068 84.2462 37.5568 83.9318C37.8068 83.6136 37.9318 83.2424 37.9318 82.8182C37.9318 82.4318 37.8239 82.1174 37.608 81.875C37.392 81.6326 37.108 81.4356 36.7557 81.2841C36.4034 81.1326 36.0227 81 35.6136 80.8864L34.1818 80.4773C33.2727 80.2159 32.553 79.8428 32.0227 79.358C31.4924 78.8731 31.2273 78.2386 31.2273 77.4545C31.2273 76.803 31.4034 76.2348 31.7557 75.75C32.1117 75.2614 32.589 74.8826 33.1875 74.6136C33.7898 74.3409 34.4621 74.2045 35.2045 74.2045C35.9545 74.2045 36.6212 74.339 37.2045 74.608C37.7879 74.8731 38.25 75.2367 38.5909 75.6989C38.9356 76.161 39.1174 76.6856 39.1364 77.2727H37.7727ZM46.9304 82.4318V77.2727H48.2713V86H46.9304V84.5227H46.8395C46.6349 84.9659 46.3168 85.3428 45.8849 85.6534C45.4531 85.9602 44.9077 86.1136 44.2486 86.1136C43.7031 86.1136 43.2183 85.9943 42.794 85.7557C42.3698 85.5133 42.0365 85.1496 41.794 84.6648C41.5516 84.1761 41.4304 83.5606 41.4304 82.8182V77.2727H42.7713V82.7273C42.7713 83.3636 42.9493 83.8712 43.3054 84.25C43.6652 84.6288 44.1236 84.8182 44.6804 84.8182C45.0137 84.8182 45.3527 84.733 45.6974 84.5625C46.0459 84.392 46.3376 84.1307 46.5724 83.7784C46.8111 83.4261 46.9304 82.9773 46.9304 82.4318ZM54.2727 86.1818C53.4545 86.1818 52.75 85.9886 52.1591 85.6023C51.5682 85.2159 51.1136 84.6837 50.7955 84.0057C50.4773 83.3277 50.3182 82.553 50.3182 81.6818C50.3182 80.7955 50.4811 80.0133 50.8068 79.3352C51.1364 78.6534 51.5947 78.1212 52.1818 77.7386C52.7727 77.3523 53.4621 77.1591 54.25 77.1591C54.8636 77.1591 55.4167 77.2727 55.9091 77.5C56.4015 77.7273 56.8049 78.0455 57.1193 78.4545C57.4337 78.8636 57.6288 79.3409 57.7045 79.8864H56.3636C56.2614 79.4886 56.0341 79.1364 55.6818 78.8295C55.3333 78.5189 54.8636 78.3636 54.2727 78.3636C53.75 78.3636 53.2917 78.5 52.8977 78.7727C52.5076 79.0417 52.2027 79.4223 51.983 79.9148C51.767 80.4034 51.6591 80.9773 51.6591 81.6364C51.6591 82.3106 51.7652 82.8977 51.9773 83.3977C52.1932 83.8977 52.4962 84.286 52.8864 84.5625C53.2803 84.839 53.7424 84.9773 54.2727 84.9773C54.6212 84.9773 54.9375 84.9167 55.2216 84.7955C55.5057 84.6742 55.7462 84.5 55.9432 84.2727C56.1402 84.0455 56.2803 83.7727 56.3636 83.4545H57.7045C57.6288 83.9697 57.4413 84.4337 57.142 84.8466C56.8466 85.2557 56.4545 85.5814 55.9659 85.8239C55.4811 86.0625 54.9167 86.1818 54.2727 86.1818ZM63.2102 86.1818C62.392 86.1818 61.6875 85.9886 61.0966 85.6023C60.5057 85.2159 60.0511 84.6837 59.733 84.0057C59.4148 83.3277 59.2557 82.553 59.2557 81.6818C59.2557 80.7955 59.4186 80.0133 59.7443 79.3352C60.0739 78.6534 60.5322 78.1212 61.1193 77.7386C61.7102 77.3523 62.3996 77.1591 63.1875 77.1591C63.8011 77.1591 64.3542 77.2727 64.8466 77.5C65.339 77.7273 65.7424 78.0455 66.0568 78.4545C66.3712 78.8636 66.5663 79.3409 66.642 79.8864H65.3011C65.1989 79.4886 64.9716 79.1364 64.6193 78.8295C64.2708 78.5189 63.8011 78.3636 63.2102 78.3636C62.6875 78.3636 62.2292 78.5 61.8352 78.7727C61.4451 79.0417 61.1402 79.4223 60.9205 79.9148C60.7045 80.4034 60.5966 80.9773 60.5966 81.6364C60.5966 82.3106 60.7027 82.8977 60.9148 83.3977C61.1307 83.8977 61.4337 84.286 61.8239 84.5625C62.2178 84.839 62.6799 84.9773 63.2102 84.9773C63.5587 84.9773 63.875 84.9167 64.1591 84.7955C64.4432 84.6742 64.6837 84.5 64.8807 84.2727C65.0777 84.0455 65.2178 83.7727 65.3011 83.4545H66.642C66.5663 83.9697 66.3788 84.4337 66.0795 84.8466C65.7841 85.2557 65.392 85.5814 64.9034 85.8239C64.4186 86.0625 63.8542 86.1818 63.2102 86.1818ZM72.2614 86.1818C71.4205 86.1818 70.6951 85.9962 70.0852 85.625C69.4792 85.25 69.0114 84.7273 68.6818 84.0568C68.3561 83.3826 68.1932 82.5985 68.1932 81.7045C68.1932 80.8106 68.3561 80.0227 68.6818 79.3409C69.0114 78.6553 69.4697 78.1212 70.0568 77.7386C70.6477 77.3523 71.3371 77.1591 72.125 77.1591C72.5795 77.1591 73.0284 77.2348 73.4716 77.3864C73.9148 77.5379 74.3182 77.7841 74.6818 78.125C75.0455 78.4621 75.3352 78.9091 75.5511 79.4659C75.767 80.0227 75.875 80.7083 75.875 81.5227V82.0909H69.1477V80.9318H74.5114C74.5114 80.4394 74.4129 80 74.2159 79.6136C74.0227 79.2273 73.7462 78.9223 73.3864 78.6989C73.0303 78.4754 72.6098 78.3636 72.125 78.3636C71.5909 78.3636 71.1288 78.4962 70.7386 78.7614C70.3523 79.0227 70.0549 79.3636 69.8466 79.7841C69.6383 80.2045 69.5341 80.6553 69.5341 81.1364V81.9091C69.5341 82.5682 69.6477 83.1269 69.875 83.5852C70.1061 84.0398 70.4261 84.3864 70.8352 84.625C71.2443 84.8598 71.7197 84.9773 72.2614 84.9773C72.6136 84.9773 72.9318 84.928 73.2159 84.8295C73.5038 84.7273 73.7519 84.5758 73.9602 84.375C74.1686 84.1705 74.3295 83.9167 74.4432 83.6136L75.7386 83.9773C75.6023 84.4167 75.3731 84.803 75.0511 85.1364C74.7292 85.4659 74.3314 85.7235 73.858 85.9091C73.3845 86.0909 72.8523 86.1818 72.2614 86.1818ZM84.0966 79.2273L82.892 79.5682C82.8163 79.3674 82.7045 79.1723 82.5568 78.983C82.4129 78.7898 82.2159 78.6307 81.9659 78.5057C81.7159 78.3807 81.3958 78.3182 81.0057 78.3182C80.4716 78.3182 80.0265 78.4413 79.6705 78.6875C79.3182 78.9299 79.142 79.2386 79.142 79.6136C79.142 79.947 79.2633 80.2102 79.5057 80.4034C79.7481 80.5966 80.1269 80.7576 80.642 80.8864L81.9375 81.2045C82.7178 81.3939 83.2992 81.6837 83.6818 82.0739C84.0644 82.4602 84.2557 82.9583 84.2557 83.5682C84.2557 84.0682 84.1117 84.5152 83.8239 84.9091C83.5398 85.303 83.142 85.6136 82.6307 85.8409C82.1193 86.0682 81.5246 86.1818 80.8466 86.1818C79.9564 86.1818 79.2197 85.9886 78.6364 85.6023C78.053 85.2159 77.6837 84.6515 77.5284 83.9091L78.8011 83.5909C78.9223 84.0606 79.1515 84.4129 79.4886 84.6477C79.8295 84.8826 80.2746 85 80.8239 85C81.4489 85 81.9451 84.8674 82.3125 84.6023C82.6837 84.3333 82.8693 84.0114 82.8693 83.6364C82.8693 83.3333 82.7633 83.0795 82.5511 82.875C82.339 82.6667 82.0133 82.5114 81.5739 82.4091L80.1193 82.0682C79.3201 81.8788 78.733 81.5852 78.358 81.1875C77.9867 80.786 77.8011 80.2841 77.8011 79.6818C77.8011 79.1894 77.9394 78.7538 78.2159 78.375C78.4962 77.9962 78.8769 77.6989 79.358 77.483C79.8428 77.267 80.392 77.1591 81.0057 77.1591C81.8693 77.1591 82.5473 77.3485 83.0398 77.7273C83.536 78.1061 83.8883 78.6061 84.0966 79.2273ZM92.456 79.2273L91.2514 79.5682C91.1757 79.3674 91.0639 79.1723 90.9162 78.983C90.7723 78.7898 90.5753 78.6307 90.3253 78.5057C90.0753 78.3807 89.7552 78.3182 89.3651 78.3182C88.831 78.3182 88.3859 78.4413 88.0298 78.6875C87.6776 78.9299 87.5014 79.2386 87.5014 79.6136C87.5014 79.947 87.6226 80.2102 87.8651 80.4034C88.1075 80.5966 88.4863 80.7576 89.0014 80.8864L90.2969 81.2045C91.0772 81.3939 91.6586 81.6837 92.0412 82.0739C92.4238 82.4602 92.6151 82.9583 92.6151 83.5682C92.6151 84.0682 92.4711 84.5152 92.1832 84.9091C91.8991 85.303 91.5014 85.6136 90.9901 85.8409C90.4787 86.0682 89.884 86.1818 89.206 86.1818C88.3158 86.1818 87.5791 85.9886 86.9957 85.6023C86.4124 85.2159 86.0431 84.6515 85.8878 83.9091L87.1605 83.5909C87.2817 84.0606 87.5109 84.4129 87.848 84.6477C88.1889 84.8826 88.634 85 89.1832 85C89.8082 85 90.3045 84.8674 90.6719 84.6023C91.0431 84.3333 91.2287 84.0114 91.2287 83.6364C91.2287 83.3333 91.1226 83.0795 90.9105 82.875C90.6984 82.6667 90.3726 82.5114 89.9332 82.4091L88.4787 82.0682C87.6795 81.8788 87.0923 81.5852 86.7173 81.1875C86.3461 80.786 86.1605 80.2841 86.1605 79.6818C86.1605 79.1894 86.2988 78.7538 86.5753 78.375C86.8556 77.9962 87.2363 77.6989 87.7173 77.483C88.2022 77.267 88.7514 77.1591 89.3651 77.1591C90.2287 77.1591 90.9067 77.3485 91.3991 77.7273C91.8954 78.1061 92.2476 78.6061 92.456 79.2273Z" fill="white" fill-opacity="0.95"/>
</svg>
