<svg width="245" height="160" viewBox="0 0 245 160" fill="none" xmlns="http://www.w3.org/2000/svg">
<mask id="path-1-inside-1_1267_49646" fill="white">
<path d="M0 0H245V160H0V0Z"/>
</mask>
<path d="M0 0H245V160H0V0Z" fill="#1A1A1A"/>
<path d="M245 160V161H246V160H245ZM244 0V160H246V0H244ZM245 159H0V161H245V159Z" fill="#707070" mask="url(#path-1-inside-1_1267_49646)"/>
<path d="M35 86H31.4091V74.3636H35.1591C36.2879 74.3636 37.2538 74.5966 38.0568 75.0625C38.8598 75.5246 39.4754 76.1894 39.9034 77.0568C40.3314 77.9205 40.5455 78.9545 40.5455 80.1591C40.5455 81.3712 40.3295 82.4148 39.8977 83.2898C39.4659 84.161 38.8371 84.8314 38.0114 85.3011C37.1856 85.767 36.1818 86 35 86ZM32.8182 84.75H34.9091C35.8712 84.75 36.6686 84.5644 37.3011 84.1932C37.9337 83.822 38.4053 83.2936 38.7159 82.608C39.0265 81.9223 39.1818 81.1061 39.1818 80.1591C39.1818 79.2197 39.0284 78.411 38.7216 77.733C38.4148 77.0511 37.9564 76.5284 37.3466 76.1648C36.7367 75.7973 35.9773 75.6136 35.0682 75.6136H32.8182V84.75ZM46.3864 86.1818C45.5455 86.1818 44.8201 85.9962 44.2102 85.625C43.6042 85.25 43.1364 84.7273 42.8068 84.0568C42.4811 83.3826 42.3182 82.5985 42.3182 81.7045C42.3182 80.8106 42.4811 80.0227 42.8068 79.3409C43.1364 78.6553 43.5947 78.1212 44.1818 77.7386C44.7727 77.3523 45.4621 77.1591 46.25 77.1591C46.7045 77.1591 47.1534 77.2348 47.5966 77.3864C48.0398 77.5379 48.4432 77.7841 48.8068 78.125C49.1705 78.4621 49.4602 78.9091 49.6761 79.4659C49.892 80.0227 50 80.7083 50 81.5227V82.0909H43.2727V80.9318H48.6364C48.6364 80.4394 48.5379 80 48.3409 79.6136C48.1477 79.2273 47.8712 78.9223 47.5114 78.6989C47.1553 78.4754 46.7348 78.3636 46.25 78.3636C45.7159 78.3636 45.2538 78.4962 44.8636 78.7614C44.4773 79.0227 44.1799 79.3636 43.9716 79.7841C43.7633 80.2045 43.6591 80.6553 43.6591 81.1364V81.9091C43.6591 82.5682 43.7727 83.1269 44 83.5852C44.2311 84.0398 44.5511 84.3864 44.9602 84.625C45.3693 84.8598 45.8447 84.9773 46.3864 84.9773C46.7386 84.9773 47.0568 84.928 47.3409 84.8295C47.6288 84.7273 47.8769 84.5758 48.0852 84.375C48.2936 84.1705 48.4545 83.9167 48.5682 83.6136L49.8636 83.9773C49.7273 84.4167 49.4981 84.803 49.1761 85.1364C48.8542 85.4659 48.4564 85.7235 47.983 85.9091C47.5095 86.0909 46.9773 86.1818 46.3864 86.1818ZM55.9261 77.2727V78.4091H51.2216V77.2727H55.9261ZM52.6307 86V76.0682C52.6307 75.5682 52.7481 75.1515 52.983 74.8182C53.2178 74.4848 53.5227 74.2348 53.8977 74.0682C54.2727 73.9015 54.6686 73.8182 55.0852 73.8182C55.4148 73.8182 55.6837 73.8447 55.892 73.8977C56.1004 73.9508 56.2557 74 56.358 74.0455L55.9716 75.2045C55.9034 75.1818 55.8087 75.1534 55.6875 75.1193C55.5701 75.0852 55.4148 75.0682 55.2216 75.0682C54.7784 75.0682 54.4583 75.1799 54.2614 75.4034C54.0682 75.6269 53.9716 75.9545 53.9716 76.3864V86H52.6307ZM60.1236 86.2045C59.5705 86.2045 59.0687 86.1004 58.6179 85.892C58.1671 85.6799 57.8092 85.375 57.544 84.9773C57.2789 84.5758 57.1463 84.0909 57.1463 83.5227C57.1463 83.0227 57.2448 82.6174 57.4418 82.3068C57.6387 81.9924 57.902 81.7462 58.2315 81.5682C58.5611 81.3902 58.9247 81.2576 59.3224 81.1705C59.724 81.0795 60.1274 81.0076 60.5327 80.9545C61.063 80.8864 61.4929 80.8352 61.8224 80.8011C62.1558 80.7633 62.3982 80.7008 62.5497 80.6136C62.705 80.5265 62.7827 80.375 62.7827 80.1591V80.1136C62.7827 79.553 62.6293 79.1174 62.3224 78.8068C62.0194 78.4962 61.5592 78.3409 60.9418 78.3409C60.3016 78.3409 59.7997 78.4811 59.4361 78.7614C59.0724 79.0417 58.8168 79.3409 58.669 79.6591L57.3963 79.2045C57.6236 78.6742 57.9266 78.2614 58.3054 77.9659C58.688 77.6667 59.1046 77.4583 59.5554 77.3409C60.0099 77.2197 60.4569 77.1591 60.8963 77.1591C61.1766 77.1591 61.4986 77.1932 61.8622 77.2614C62.2296 77.3258 62.5838 77.4602 62.9247 77.6648C63.2694 77.8693 63.5554 78.178 63.7827 78.5909C64.0099 79.0038 64.1236 79.5568 64.1236 80.25V86H62.7827V84.8182H62.7145C62.6236 85.0076 62.4721 85.2102 62.2599 85.4261C62.0478 85.642 61.7656 85.8258 61.4134 85.9773C61.0611 86.1288 60.6312 86.2045 60.1236 86.2045ZM60.3281 85C60.8584 85 61.3054 84.8958 61.669 84.6875C62.0365 84.4792 62.313 84.2102 62.4986 83.8807C62.688 83.5511 62.7827 83.2045 62.7827 82.8409V81.6136C62.7259 81.6818 62.6009 81.7443 62.4077 81.8011C62.2183 81.8542 61.9986 81.9015 61.7486 81.9432C61.5024 81.9811 61.2618 82.0152 61.027 82.0455C60.7959 82.072 60.6084 82.0947 60.4645 82.1136C60.116 82.1591 59.7902 82.233 59.4872 82.3352C59.188 82.4337 58.9455 82.5833 58.7599 82.7841C58.5781 82.9811 58.4872 83.25 58.4872 83.5909C58.4872 84.0568 58.6596 84.4091 59.0043 84.6477C59.3527 84.8826 59.794 85 60.3281 85ZM72.071 82.4318V77.2727H73.4119V86H72.071V84.5227H71.9801C71.7756 84.9659 71.4574 85.3428 71.0256 85.6534C70.5938 85.9602 70.0483 86.1136 69.3892 86.1136C68.8438 86.1136 68.3589 85.9943 67.9347 85.7557C67.5104 85.5133 67.1771 85.1496 66.9347 84.6648C66.6922 84.1761 66.571 83.5606 66.571 82.8182V77.2727H67.9119V82.7273C67.9119 83.3636 68.09 83.8712 68.446 84.25C68.8059 84.6288 69.2642 84.8182 69.821 84.8182C70.1544 84.8182 70.4934 84.733 70.8381 84.5625C71.1866 84.392 71.4782 84.1307 71.7131 83.7784C71.9517 83.4261 72.071 82.9773 72.071 82.4318ZM77.2088 74.3636V86H75.8679V74.3636H77.2088ZM83.4602 77.2727V78.4091H78.9375V77.2727H83.4602ZM80.2557 75.1818H81.5966V83.5C81.5966 83.8788 81.6515 84.1629 81.7614 84.3523C81.875 84.5379 82.0189 84.6629 82.1932 84.7273C82.3712 84.7879 82.5587 84.8182 82.7557 84.8182C82.9034 84.8182 83.0246 84.8106 83.1193 84.7955C83.214 84.7765 83.2898 84.7614 83.3466 84.75L83.6193 85.9545C83.5284 85.9886 83.4015 86.0227 83.2386 86.0568C83.0758 86.0947 82.8693 86.1136 82.6193 86.1136C82.2405 86.1136 81.8693 86.0322 81.5057 85.8693C81.1458 85.7064 80.8466 85.4583 80.608 85.125C80.3731 84.7917 80.2557 84.3712 80.2557 83.8636V75.1818ZM87.4773 84.4091L87.3864 85.0227C87.322 85.4545 87.2235 85.9167 87.0909 86.4091C86.9621 86.9015 86.8277 87.3655 86.6875 87.8011C86.5473 88.2367 86.4318 88.5833 86.3409 88.8409H85.3182C85.3674 88.5985 85.4318 88.2784 85.5114 87.8807C85.5909 87.483 85.6705 87.0379 85.75 86.5455C85.8333 86.0568 85.9015 85.5568 85.9545 85.0455L86.0227 84.4091H87.4773ZM94.6435 86V74.3636H98.5753C99.4844 74.3636 100.231 74.5189 100.814 74.8295C101.397 75.1364 101.829 75.5587 102.109 76.0966C102.39 76.6345 102.53 77.2462 102.53 77.9318C102.53 78.6174 102.39 79.2254 102.109 79.7557C101.829 80.286 101.399 80.7027 100.82 81.0057C100.24 81.3049 99.4995 81.4545 98.598 81.4545H95.4162V80.1818H98.5526C99.1738 80.1818 99.6738 80.0909 100.053 79.9091C100.435 79.7273 100.712 79.4697 100.882 79.1364C101.056 78.7992 101.143 78.3977 101.143 77.9318C101.143 77.4659 101.056 77.0587 100.882 76.7102C100.708 76.3617 100.429 76.0928 100.047 75.9034C99.6643 75.7102 99.1586 75.6136 98.5298 75.6136H96.0526V86H94.6435ZM100.121 80.7727L102.984 86H101.348L98.5298 80.7727H100.121ZM108.261 86.1818C107.42 86.1818 106.695 85.9962 106.085 85.625C105.479 85.25 105.011 84.7273 104.682 84.0568C104.356 83.3826 104.193 82.5985 104.193 81.7045C104.193 80.8106 104.356 80.0227 104.682 79.3409C105.011 78.6553 105.47 78.1212 106.057 77.7386C106.648 77.3523 107.337 77.1591 108.125 77.1591C108.58 77.1591 109.028 77.2348 109.472 77.3864C109.915 77.5379 110.318 77.7841 110.682 78.125C111.045 78.4621 111.335 78.9091 111.551 79.4659C111.767 80.0227 111.875 80.7083 111.875 81.5227V82.0909H105.148V80.9318H110.511C110.511 80.4394 110.413 80 110.216 79.6136C110.023 79.2273 109.746 78.9223 109.386 78.6989C109.03 78.4754 108.61 78.3636 108.125 78.3636C107.591 78.3636 107.129 78.4962 106.739 78.7614C106.352 79.0227 106.055 79.3636 105.847 79.7841C105.638 80.2045 105.534 80.6553 105.534 81.1364V81.9091C105.534 82.5682 105.648 83.1269 105.875 83.5852C106.106 84.0398 106.426 84.3864 106.835 84.625C107.244 84.8598 107.72 84.9773 108.261 84.9773C108.614 84.9773 108.932 84.928 109.216 84.8295C109.504 84.7273 109.752 84.5758 109.96 84.375C110.169 84.1705 110.33 83.9167 110.443 83.6136L111.739 83.9773C111.602 84.4167 111.373 84.803 111.051 85.1364C110.729 85.4659 110.331 85.7235 109.858 85.9091C109.384 86.0909 108.852 86.1818 108.261 86.1818ZM116.483 86.2045C115.93 86.2045 115.428 86.1004 114.977 85.892C114.527 85.6799 114.169 85.375 113.903 84.9773C113.638 84.5758 113.506 84.0909 113.506 83.5227C113.506 83.0227 113.604 82.6174 113.801 82.3068C113.998 81.9924 114.261 81.7462 114.591 81.5682C114.92 81.3902 115.284 81.2576 115.682 81.1705C116.083 81.0795 116.487 81.0076 116.892 80.9545C117.422 80.8864 117.852 80.8352 118.182 80.8011C118.515 80.7633 118.758 80.7008 118.909 80.6136C119.064 80.5265 119.142 80.375 119.142 80.1591V80.1136C119.142 79.553 118.989 79.1174 118.682 78.8068C118.379 78.4962 117.919 78.3409 117.301 78.3409C116.661 78.3409 116.159 78.4811 115.795 78.7614C115.432 79.0417 115.176 79.3409 115.028 79.6591L113.756 79.2045C113.983 78.6742 114.286 78.2614 114.665 77.9659C115.047 77.6667 115.464 77.4583 115.915 77.3409C116.369 77.2197 116.816 77.1591 117.256 77.1591C117.536 77.1591 117.858 77.1932 118.222 77.2614C118.589 77.3258 118.943 77.4602 119.284 77.6648C119.629 77.8693 119.915 78.178 120.142 78.5909C120.369 79.0038 120.483 79.5568 120.483 80.25V86H119.142V84.8182H119.074C118.983 85.0076 118.831 85.2102 118.619 85.4261C118.407 85.642 118.125 85.8258 117.773 85.9773C117.42 86.1288 116.991 86.2045 116.483 86.2045ZM116.688 85C117.218 85 117.665 84.8958 118.028 84.6875C118.396 84.4792 118.672 84.2102 118.858 83.8807C119.047 83.5511 119.142 83.2045 119.142 82.8409V81.6136C119.085 81.6818 118.96 81.7443 118.767 81.8011C118.578 81.8542 118.358 81.9015 118.108 81.9432C117.862 81.9811 117.621 82.0152 117.386 82.0455C117.155 82.072 116.968 82.0947 116.824 82.1136C116.475 82.1591 116.15 82.233 115.847 82.3352C115.547 82.4337 115.305 82.5833 115.119 82.7841C114.938 82.9811 114.847 83.25 114.847 83.5909C114.847 84.0568 115.019 84.4091 115.364 84.6477C115.712 84.8826 116.153 85 116.688 85ZM126.226 86.1818C125.499 86.1818 124.857 85.9981 124.3 85.6307C123.743 85.2595 123.307 84.7367 122.993 84.0625C122.679 83.3845 122.521 82.5833 122.521 81.6591C122.521 80.7424 122.679 79.947 122.993 79.2727C123.307 78.5985 123.745 78.0777 124.305 77.7102C124.866 77.3428 125.514 77.1591 126.249 77.1591C126.817 77.1591 127.266 77.2538 127.595 77.4432C127.929 77.6288 128.182 77.8409 128.357 78.0795C128.535 78.3144 128.673 78.5076 128.771 78.6591H128.885V74.3636H130.226V86H128.93V84.6591H128.771C128.673 84.8182 128.533 85.0189 128.351 85.2614C128.169 85.5 127.91 85.714 127.572 85.9034C127.235 86.089 126.786 86.1818 126.226 86.1818ZM126.408 84.9773C126.946 84.9773 127.4 84.8371 127.771 84.5568C128.143 84.2727 128.425 83.8807 128.618 83.3807C128.811 82.8769 128.908 82.2955 128.908 81.6364C128.908 80.9848 128.813 80.4148 128.624 79.9261C128.434 79.4337 128.154 79.0511 127.783 78.7784C127.411 78.5019 126.953 78.3636 126.408 78.3636C125.839 78.3636 125.366 78.5095 124.987 78.8011C124.612 79.089 124.33 79.4811 124.141 79.9773C123.955 80.4697 123.862 81.0227 123.862 81.6364C123.862 82.2576 123.957 82.822 124.146 83.3295C124.339 83.8333 124.624 84.2348 124.999 84.5341C125.377 84.8295 125.847 84.9773 126.408 84.9773ZM140.913 86.1818C140.125 86.1818 139.434 85.9943 138.839 85.6193C138.249 85.2443 137.786 84.7197 137.453 84.0455C137.124 83.3712 136.959 82.5833 136.959 81.6818C136.959 80.7727 137.124 79.9792 137.453 79.3011C137.786 78.6231 138.249 78.0966 138.839 77.7216C139.434 77.3466 140.125 77.1591 140.913 77.1591C141.701 77.1591 142.391 77.3466 142.982 77.7216C143.576 78.0966 144.038 78.6231 144.368 79.3011C144.701 79.9792 144.868 80.7727 144.868 81.6818C144.868 82.5833 144.701 83.3712 144.368 84.0455C144.038 84.7197 143.576 85.2443 142.982 85.6193C142.391 85.9943 141.701 86.1818 140.913 86.1818ZM140.913 84.9773C141.512 84.9773 142.004 84.8239 142.391 84.517C142.777 84.2102 143.063 83.8068 143.249 83.3068C143.434 82.8068 143.527 82.2652 143.527 81.6818C143.527 81.0985 143.434 80.5549 143.249 80.0511C143.063 79.5473 142.777 79.1402 142.391 78.8295C142.004 78.5189 141.512 78.3636 140.913 78.3636C140.315 78.3636 139.822 78.5189 139.436 78.8295C139.05 79.1402 138.764 79.5473 138.578 80.0511C138.393 80.5549 138.3 81.0985 138.3 81.6818C138.3 82.2652 138.393 82.8068 138.578 83.3068C138.764 83.8068 139.05 84.2102 139.436 84.517C139.822 84.8239 140.315 84.9773 140.913 84.9773ZM148.256 80.75V86H146.915V77.2727H148.21V78.6364H148.324C148.528 78.1932 148.839 77.8371 149.256 77.5682C149.672 77.2955 150.21 77.1591 150.869 77.1591C151.46 77.1591 151.977 77.2803 152.42 77.5227C152.864 77.7614 153.208 78.125 153.455 78.6136C153.701 79.0985 153.824 79.7121 153.824 80.4545V86H152.483V80.5455C152.483 79.8598 152.305 79.3258 151.949 78.9432C151.593 78.5568 151.104 78.3636 150.483 78.3636C150.055 78.3636 149.672 78.4564 149.335 78.642C149.002 78.8277 148.739 79.0985 148.545 79.4545C148.352 79.8106 148.256 80.2424 148.256 80.75ZM157.615 74.3636V86H156.274V74.3636H157.615ZM160.935 89.25C160.707 89.25 160.505 89.2311 160.327 89.1932C160.149 89.1591 160.026 89.125 159.957 89.0909L160.298 87.9091C160.787 88.0341 161.194 88.0303 161.52 87.8977C161.846 87.7689 162.128 87.3788 162.366 86.7273L162.616 86.0455L159.389 77.2727H160.844L163.253 84.2273H163.344L165.753 77.2727L167.219 77.2955L163.503 87.2727C163.336 87.7159 163.13 88.0833 162.884 88.375C162.637 88.6705 162.351 88.8902 162.026 89.0341C161.704 89.178 161.34 89.25 160.935 89.25Z" fill="white" fill-opacity="0.95"/>
</svg>
