<svg width="220" height="112" viewBox="0 0 220 112" fill="none" xmlns="http://www.w3.org/2000/svg">
<mask id="path-1-inside-1_1267_49642" fill="white">
<path d="M0 0H220V112H0V0Z"/>
</mask>
<path d="M0 0H220V112H0V0Z" fill="#1A1A1A"/>
<path d="M220 112V113H221V112H220ZM219 0V112H221V0H219ZM220 111H0V113H220V111Z" fill="white" fill-opacity="0.2" mask="url(#path-1-inside-1_1267_49642)"/>
<g clip-path="url(#clip0_1267_49642)">
<path d="M37.084 57.27C37.084 56.934 37.0093 56.668 36.86 56.472C36.692 56.2387 36.384 56.024 35.936 55.828C35.488 55.632 34.8113 55.408 33.906 55.156C32.6927 54.82 31.8573 54.4047 31.4 53.91C31.0267 53.5087 30.84 52.972 30.84 52.3C30.84 51.488 31.1947 50.844 31.904 50.368C32.5573 49.9293 33.4067 49.71 34.452 49.71C35.6187 49.71 36.566 49.9853 37.294 50.536C37.9473 51.0213 38.33 51.656 38.442 52.44H36.972C36.888 51.908 36.608 51.5113 36.132 51.25C35.712 51.0073 35.152 50.886 34.452 50.886C33.668 50.886 33.0893 51.0353 32.716 51.334C32.4173 51.5673 32.268 51.8707 32.268 52.244C32.268 52.4867 32.3053 52.6873 32.38 52.846C32.464 52.9953 32.604 53.1307 32.8 53.252C33.164 53.4947 33.8687 53.7607 34.914 54.05C36.37 54.4607 37.3547 54.9273 37.868 55.45C38.2973 55.8793 38.512 56.4673 38.512 57.214C38.512 58.1007 38.1247 58.8333 37.35 59.412C36.622 59.944 35.698 60.21 34.578 60.21C33.4113 60.21 32.4453 59.8973 31.68 59.272C31.0173 58.7307 30.6207 58.0307 30.49 57.172H31.96C32.0533 57.788 32.3473 58.2593 32.842 58.586C33.29 58.8847 33.8593 59.034 34.55 59.034C35.4087 59.034 36.0667 58.838 36.524 58.446C36.8973 58.1287 37.084 57.7367 37.084 57.27ZM45.0825 57.9H46.5385C46.3332 58.6373 45.9272 59.216 45.3205 59.636C44.7512 60.0187 44.0698 60.21 43.2765 60.21C42.1285 60.21 41.2325 59.846 40.5885 59.118C40.0005 58.4367 39.7065 57.5173 39.7065 56.36C39.7065 55.044 40.0798 54.0453 40.8265 53.364C41.4425 52.7947 42.2358 52.51 43.2065 52.51C44.3452 52.51 45.2038 52.8787 45.7825 53.616C46.3425 54.3253 46.6225 55.338 46.6225 56.654H41.0785C41.1345 57.5127 41.3958 58.152 41.8625 58.572C42.2452 58.908 42.7305 59.076 43.3185 59.076C43.7758 59.076 44.1725 58.95 44.5085 58.698C44.7885 58.4833 44.9798 58.2173 45.0825 57.9ZM43.2345 53.588C42.6372 53.588 42.1565 53.7747 41.7925 54.148C41.4472 54.4933 41.2278 54.974 41.1345 55.59H45.2505C45.2038 54.89 44.9705 54.3673 44.5505 54.022C44.2145 53.7327 43.7758 53.588 43.2345 53.588ZM49.5779 49.92V60H48.2339V49.92H49.5779ZM56.4985 57.9H57.9545C57.7492 58.6373 57.3432 59.216 56.7365 59.636C56.1672 60.0187 55.4858 60.21 54.6925 60.21C53.5445 60.21 52.6485 59.846 52.0045 59.118C51.4165 58.4367 51.1225 57.5173 51.1225 56.36C51.1225 55.044 51.4958 54.0453 52.2425 53.364C52.8585 52.7947 53.6518 52.51 54.6225 52.51C55.7612 52.51 56.6198 52.8787 57.1985 53.616C57.7585 54.3253 58.0385 55.338 58.0385 56.654H52.4945C52.5505 57.5127 52.8118 58.152 53.2785 58.572C53.6612 58.908 54.1465 59.076 54.7345 59.076C55.1918 59.076 55.5885 58.95 55.9245 58.698C56.2045 58.4833 56.3958 58.2173 56.4985 57.9ZM54.6505 53.588C54.0532 53.588 53.5725 53.7747 53.2085 54.148C52.8632 54.4933 52.6438 54.974 52.5505 55.59H56.6665C56.6198 54.89 56.3865 54.3673 55.9665 54.022C55.6305 53.7327 55.1918 53.588 54.6505 53.588ZM64.3959 57.662H65.8659C65.7539 58.446 65.3853 59.076 64.7599 59.552C64.1906 59.9907 63.4953 60.21 62.6739 60.21C61.6006 60.21 60.7466 59.8413 60.1119 59.104C59.5239 58.4227 59.2299 57.5267 59.2299 56.416C59.2299 55.128 59.5846 54.1293 60.2939 53.42C60.9006 52.8133 61.6893 52.51 62.6599 52.51C63.5559 52.51 64.2933 52.748 64.8719 53.224C65.3853 53.644 65.6979 54.1947 65.8099 54.876H64.3259C64.2326 54.484 64.0413 54.1807 63.7519 53.966C63.4719 53.7513 63.1173 53.644 62.6879 53.644C62.0253 53.644 61.5166 53.9053 61.1619 54.428C60.8259 54.9133 60.6579 55.59 60.6579 56.458C60.6579 57.3633 60.8819 58.0493 61.3299 58.516C61.6846 58.8893 62.1419 59.076 62.7019 59.076C63.1873 59.076 63.5839 58.936 63.8919 58.656C64.1626 58.4133 64.3306 58.082 64.3959 57.662ZM70.6499 58.922V60.07C70.3045 60.1633 69.9732 60.21 69.6559 60.21C68.9839 60.21 68.4799 60 68.1439 59.58C67.8545 59.2347 67.7099 58.7727 67.7099 58.194V53.868H66.6319V52.72H67.7099L67.7939 50.97H69.0539V52.72H70.6219V53.868H69.0539V58.222C69.0539 58.7633 69.3105 59.034 69.8239 59.034C70.0665 59.034 70.3419 58.9967 70.6499 58.922ZM76.8012 57.9H78.2572C78.0519 58.6373 77.6459 59.216 77.0392 59.636C76.4699 60.0187 75.7886 60.21 74.9952 60.21C73.8472 60.21 72.9512 59.846 72.3072 59.118C71.7192 58.4367 71.4252 57.5173 71.4252 56.36C71.4252 55.044 71.7986 54.0453 72.5452 53.364C73.1612 52.7947 73.9546 52.51 74.9252 52.51C76.0639 52.51 76.9226 52.8787 77.5012 53.616C78.0612 54.3253 78.3412 55.338 78.3412 56.654H72.7972C72.8532 57.5127 73.1146 58.152 73.5812 58.572C73.9639 58.908 74.4492 59.076 75.0372 59.076C75.4946 59.076 75.8912 58.95 76.2272 58.698C76.5072 58.4833 76.6986 58.2173 76.8012 57.9ZM74.9532 53.588C74.3559 53.588 73.8752 53.7747 73.5112 54.148C73.1659 54.4933 72.9466 54.974 72.8532 55.59H76.9692C76.9226 54.89 76.6892 54.3673 76.2692 54.022C75.9332 53.7327 75.4946 53.588 74.9532 53.588ZM86.5187 60H85.4127L85.1747 58.978C84.6147 59.7993 83.8073 60.21 82.7527 60.21C81.7353 60.21 80.9327 59.8413 80.3447 59.104C79.8033 58.4227 79.5327 57.522 79.5327 56.402C79.5327 55.0487 79.878 54.0313 80.5687 53.35C81.1473 52.79 81.9033 52.51 82.8367 52.51C83.8447 52.51 84.624 52.888 85.1747 53.644V49.92H86.5187V60ZM80.9327 56.43C80.9327 57.3353 81.1567 58.0213 81.6047 58.488C81.978 58.8707 82.4587 59.062 83.0467 59.062C83.7747 59.062 84.3393 58.7867 84.7407 58.236C85.0767 57.76 85.2447 57.1627 85.2447 56.444C85.2447 55.5013 85.0207 54.7827 84.5727 54.288C84.19 53.868 83.6813 53.658 83.0467 53.658C82.3373 53.658 81.8007 53.9147 81.4367 54.428C81.1007 54.8947 80.9327 55.562 80.9327 56.43ZM95.9292 58.922V60.07C95.5838 60.1633 95.2525 60.21 94.9352 60.21C94.2632 60.21 93.7592 60 93.4232 59.58C93.1338 59.2347 92.9892 58.7727 92.9892 58.194V53.868H91.9112V52.72H92.9892L93.0732 50.97H94.3332V52.72H95.9012V53.868H94.3332V58.222C94.3332 58.7633 94.5898 59.034 95.1032 59.034C95.3458 59.034 95.6212 58.9967 95.9292 58.922ZM102.081 57.9H103.537C103.331 58.6373 102.925 59.216 102.319 59.636C101.749 60.0187 101.068 60.21 100.275 60.21C99.1265 60.21 98.2305 59.846 97.5865 59.118C96.9985 58.4367 96.7045 57.5173 96.7045 56.36C96.7045 55.044 97.0779 54.0453 97.8245 53.364C98.4405 52.7947 99.2339 52.51 100.205 52.51C101.343 52.51 102.202 52.8787 102.781 53.616C103.341 54.3253 103.621 55.338 103.621 56.654H98.0765C98.1325 57.5127 98.3939 58.152 98.8605 58.572C99.2432 58.908 99.7285 59.076 100.317 59.076C100.774 59.076 101.171 58.95 101.507 58.698C101.787 58.4833 101.978 58.2173 102.081 57.9ZM100.233 53.588C99.6352 53.588 99.1545 53.7747 98.7905 54.148C98.4452 54.4933 98.2259 54.974 98.1325 55.59H102.249C102.202 54.89 101.969 54.3673 101.549 54.022C101.213 53.7327 100.774 53.588 100.233 53.588ZM111.098 52.72L108.662 56.122L111.518 60H109.88L107.906 57.186L105.974 60H104.392L107.108 56.22L104.56 52.72H106.17L107.906 55.17L109.558 52.72H111.098ZM115.89 58.922V60.07C115.545 60.1633 115.213 60.21 114.896 60.21C114.224 60.21 113.72 60 113.384 59.58C113.095 59.2347 112.95 58.7727 112.95 58.194V53.868H111.872V52.72H112.95L113.034 50.97H114.294V52.72H115.862V53.868H114.294V58.222C114.294 58.7633 114.551 59.034 115.064 59.034C115.307 59.034 115.582 58.9967 115.89 58.922Z" fill="white" fill-opacity="0.95"/>
</g>
<defs>
<clipPath id="clip0_1267_49642">
<rect width="220" height="52" fill="white" transform="translate(0 30)"/>
</clipPath>
</defs>
</svg>
