<svg width="245" height="112" viewBox="0 0 245 112" fill="none" xmlns="http://www.w3.org/2000/svg">
<mask id="path-1-inside-1_1267_50668" fill="white">
<path d="M0 0H245V112H0V0Z"/>
</mask>
<path d="M0 0H245V112H0V0Z" fill="#1A1A1A"/>
<path d="M244 0V112H246V0H244Z" fill="#707070" mask="url(#path-1-inside-1_1267_50668)"/>
<path d="M37.7727 53.2727C37.7045 52.697 37.428 52.25 36.9432 51.9318C36.4583 51.6136 35.8636 51.4545 35.1591 51.4545C34.6439 51.4545 34.1932 51.5379 33.8068 51.7045C33.4242 51.8712 33.125 52.1004 32.9091 52.392C32.697 52.6837 32.5909 53.0152 32.5909 53.3864C32.5909 53.697 32.6648 53.964 32.8125 54.1875C32.964 54.4072 33.1572 54.5909 33.392 54.7386C33.6269 54.8826 33.8731 55.0019 34.1307 55.0966C34.3883 55.1875 34.625 55.2614 34.8409 55.3182L36.0227 55.6364C36.3258 55.7159 36.6629 55.8258 37.0341 55.9659C37.4091 56.1061 37.767 56.2973 38.108 56.5398C38.4527 56.7784 38.7367 57.0852 38.9602 57.4602C39.1837 57.8352 39.2955 58.2955 39.2955 58.8409C39.2955 59.4697 39.1307 60.0379 38.8011 60.5455C38.4754 61.053 37.9981 61.4564 37.3693 61.7557C36.7443 62.0549 35.9848 62.2045 35.0909 62.2045C34.2576 62.2045 33.536 62.0701 32.9261 61.8011C32.3201 61.5322 31.8428 61.1572 31.4943 60.6761C31.1496 60.1951 30.9545 59.6364 30.9091 59H32.3636C32.4015 59.4394 32.5492 59.803 32.8068 60.0909C33.0682 60.375 33.3977 60.5871 33.7955 60.7273C34.197 60.8636 34.6288 60.9318 35.0909 60.9318C35.6288 60.9318 36.1117 60.8447 36.5398 60.6705C36.9678 60.4924 37.3068 60.2462 37.5568 59.9318C37.8068 59.6136 37.9318 59.2424 37.9318 58.8182C37.9318 58.4318 37.8239 58.1174 37.608 57.875C37.392 57.6326 37.108 57.4356 36.7557 57.2841C36.4034 57.1326 36.0227 57 35.6136 56.8864L34.1818 56.4773C33.2727 56.2159 32.553 55.8428 32.0227 55.358C31.4924 54.8731 31.2273 54.2386 31.2273 53.4545C31.2273 52.803 31.4034 52.2348 31.7557 51.75C32.1117 51.2614 32.589 50.8826 33.1875 50.6136C33.7898 50.3409 34.4621 50.2045 35.2045 50.2045C35.9545 50.2045 36.6212 50.339 37.2045 50.608C37.7879 50.8731 38.25 51.2367 38.5909 51.6989C38.9356 52.161 39.1174 52.6856 39.1364 53.2727H37.7727ZM46.9304 58.4318V53.2727H48.2713V62H46.9304V60.5227H46.8395C46.6349 60.9659 46.3168 61.3428 45.8849 61.6534C45.4531 61.9602 44.9077 62.1136 44.2486 62.1136C43.7031 62.1136 43.2183 61.9943 42.794 61.7557C42.3698 61.5133 42.0365 61.1496 41.794 60.6648C41.5516 60.1761 41.4304 59.5606 41.4304 58.8182V53.2727H42.7713V58.7273C42.7713 59.3636 42.9493 59.8712 43.3054 60.25C43.6652 60.6288 44.1236 60.8182 44.6804 60.8182C45.0137 60.8182 45.3527 60.733 45.6974 60.5625C46.0459 60.392 46.3376 60.1307 46.5724 59.7784C46.8111 59.4261 46.9304 58.9773 46.9304 58.4318ZM54.2727 62.1818C53.4545 62.1818 52.75 61.9886 52.1591 61.6023C51.5682 61.2159 51.1136 60.6837 50.7955 60.0057C50.4773 59.3277 50.3182 58.553 50.3182 57.6818C50.3182 56.7955 50.4811 56.0133 50.8068 55.3352C51.1364 54.6534 51.5947 54.1212 52.1818 53.7386C52.7727 53.3523 53.4621 53.1591 54.25 53.1591C54.8636 53.1591 55.4167 53.2727 55.9091 53.5C56.4015 53.7273 56.8049 54.0455 57.1193 54.4545C57.4337 54.8636 57.6288 55.3409 57.7045 55.8864H56.3636C56.2614 55.4886 56.0341 55.1364 55.6818 54.8295C55.3333 54.5189 54.8636 54.3636 54.2727 54.3636C53.75 54.3636 53.2917 54.5 52.8977 54.7727C52.5076 55.0417 52.2027 55.4223 51.983 55.9148C51.767 56.4034 51.6591 56.9773 51.6591 57.6364C51.6591 58.3106 51.7652 58.8977 51.9773 59.3977C52.1932 59.8977 52.4962 60.286 52.8864 60.5625C53.2803 60.839 53.7424 60.9773 54.2727 60.9773C54.6212 60.9773 54.9375 60.9167 55.2216 60.7955C55.5057 60.6742 55.7462 60.5 55.9432 60.2727C56.1402 60.0455 56.2803 59.7727 56.3636 59.4545H57.7045C57.6288 59.9697 57.4413 60.4337 57.142 60.8466C56.8466 61.2557 56.4545 61.5814 55.9659 61.8239C55.4811 62.0625 54.9167 62.1818 54.2727 62.1818ZM63.2102 62.1818C62.392 62.1818 61.6875 61.9886 61.0966 61.6023C60.5057 61.2159 60.0511 60.6837 59.733 60.0057C59.4148 59.3277 59.2557 58.553 59.2557 57.6818C59.2557 56.7955 59.4186 56.0133 59.7443 55.3352C60.0739 54.6534 60.5322 54.1212 61.1193 53.7386C61.7102 53.3523 62.3996 53.1591 63.1875 53.1591C63.8011 53.1591 64.3542 53.2727 64.8466 53.5C65.339 53.7273 65.7424 54.0455 66.0568 54.4545C66.3712 54.8636 66.5663 55.3409 66.642 55.8864H65.3011C65.1989 55.4886 64.9716 55.1364 64.6193 54.8295C64.2708 54.5189 63.8011 54.3636 63.2102 54.3636C62.6875 54.3636 62.2292 54.5 61.8352 54.7727C61.4451 55.0417 61.1402 55.4223 60.9205 55.9148C60.7045 56.4034 60.5966 56.9773 60.5966 57.6364C60.5966 58.3106 60.7027 58.8977 60.9148 59.3977C61.1307 59.8977 61.4337 60.286 61.8239 60.5625C62.2178 60.839 62.6799 60.9773 63.2102 60.9773C63.5587 60.9773 63.875 60.9167 64.1591 60.7955C64.4432 60.6742 64.6837 60.5 64.8807 60.2727C65.0777 60.0455 65.2178 59.7727 65.3011 59.4545H66.642C66.5663 59.9697 66.3788 60.4337 66.0795 60.8466C65.7841 61.2557 65.392 61.5814 64.9034 61.8239C64.4186 62.0625 63.8542 62.1818 63.2102 62.1818ZM72.2614 62.1818C71.4205 62.1818 70.6951 61.9962 70.0852 61.625C69.4792 61.25 69.0114 60.7273 68.6818 60.0568C68.3561 59.3826 68.1932 58.5985 68.1932 57.7045C68.1932 56.8106 68.3561 56.0227 68.6818 55.3409C69.0114 54.6553 69.4697 54.1212 70.0568 53.7386C70.6477 53.3523 71.3371 53.1591 72.125 53.1591C72.5795 53.1591 73.0284 53.2348 73.4716 53.3864C73.9148 53.5379 74.3182 53.7841 74.6818 54.125C75.0455 54.4621 75.3352 54.9091 75.5511 55.4659C75.767 56.0227 75.875 56.7083 75.875 57.5227V58.0909H69.1477V56.9318H74.5114C74.5114 56.4394 74.4129 56 74.2159 55.6136C74.0227 55.2273 73.7462 54.9223 73.3864 54.6989C73.0303 54.4754 72.6098 54.3636 72.125 54.3636C71.5909 54.3636 71.1288 54.4962 70.7386 54.7614C70.3523 55.0227 70.0549 55.3636 69.8466 55.7841C69.6383 56.2045 69.5341 56.6553 69.5341 57.1364V57.9091C69.5341 58.5682 69.6477 59.1269 69.875 59.5852C70.1061 60.0398 70.4261 60.3864 70.8352 60.625C71.2443 60.8598 71.7197 60.9773 72.2614 60.9773C72.6136 60.9773 72.9318 60.928 73.2159 60.8295C73.5038 60.7273 73.7519 60.5758 73.9602 60.375C74.1686 60.1705 74.3295 59.9167 74.4432 59.6136L75.7386 59.9773C75.6023 60.4167 75.3731 60.803 75.0511 61.1364C74.7292 61.4659 74.3314 61.7235 73.858 61.9091C73.3845 62.0909 72.8523 62.1818 72.2614 62.1818ZM84.0966 55.2273L82.892 55.5682C82.8163 55.3674 82.7045 55.1723 82.5568 54.983C82.4129 54.7898 82.2159 54.6307 81.9659 54.5057C81.7159 54.3807 81.3958 54.3182 81.0057 54.3182C80.4716 54.3182 80.0265 54.4413 79.6705 54.6875C79.3182 54.9299 79.142 55.2386 79.142 55.6136C79.142 55.947 79.2633 56.2102 79.5057 56.4034C79.7481 56.5966 80.1269 56.7576 80.642 56.8864L81.9375 57.2045C82.7178 57.3939 83.2992 57.6837 83.6818 58.0739C84.0644 58.4602 84.2557 58.9583 84.2557 59.5682C84.2557 60.0682 84.1117 60.5152 83.8239 60.9091C83.5398 61.303 83.142 61.6136 82.6307 61.8409C82.1193 62.0682 81.5246 62.1818 80.8466 62.1818C79.9564 62.1818 79.2197 61.9886 78.6364 61.6023C78.053 61.2159 77.6837 60.6515 77.5284 59.9091L78.8011 59.5909C78.9223 60.0606 79.1515 60.4129 79.4886 60.6477C79.8295 60.8826 80.2746 61 80.8239 61C81.4489 61 81.9451 60.8674 82.3125 60.6023C82.6837 60.3333 82.8693 60.0114 82.8693 59.6364C82.8693 59.3333 82.7633 59.0795 82.5511 58.875C82.339 58.6667 82.0133 58.5114 81.5739 58.4091L80.1193 58.0682C79.3201 57.8788 78.733 57.5852 78.358 57.1875C77.9867 56.786 77.8011 56.2841 77.8011 55.6818C77.8011 55.1894 77.9394 54.7538 78.2159 54.375C78.4962 53.9962 78.8769 53.6989 79.358 53.483C79.8428 53.267 80.392 53.1591 81.0057 53.1591C81.8693 53.1591 82.5473 53.3485 83.0398 53.7273C83.536 54.1061 83.8883 54.6061 84.0966 55.2273ZM92.456 55.2273L91.2514 55.5682C91.1757 55.3674 91.0639 55.1723 90.9162 54.983C90.7723 54.7898 90.5753 54.6307 90.3253 54.5057C90.0753 54.3807 89.7552 54.3182 89.3651 54.3182C88.831 54.3182 88.3859 54.4413 88.0298 54.6875C87.6776 54.9299 87.5014 55.2386 87.5014 55.6136C87.5014 55.947 87.6226 56.2102 87.8651 56.4034C88.1075 56.5966 88.4863 56.7576 89.0014 56.8864L90.2969 57.2045C91.0772 57.3939 91.6586 57.6837 92.0412 58.0739C92.4238 58.4602 92.6151 58.9583 92.6151 59.5682C92.6151 60.0682 92.4711 60.5152 92.1832 60.9091C91.8991 61.303 91.5014 61.6136 90.9901 61.8409C90.4787 62.0682 89.884 62.1818 89.206 62.1818C88.3158 62.1818 87.5791 61.9886 86.9957 61.6023C86.4124 61.2159 86.0431 60.6515 85.8878 59.9091L87.1605 59.5909C87.2817 60.0606 87.5109 60.4129 87.848 60.6477C88.1889 60.8826 88.634 61 89.1832 61C89.8082 61 90.3045 60.8674 90.6719 60.6023C91.0431 60.3333 91.2287 60.0114 91.2287 59.6364C91.2287 59.3333 91.1226 59.0795 90.9105 58.875C90.6984 58.6667 90.3726 58.5114 89.9332 58.4091L88.4787 58.0682C87.6795 57.8788 87.0923 57.5852 86.7173 57.1875C86.3461 56.786 86.1605 56.2841 86.1605 55.6818C86.1605 55.1894 86.2988 54.7538 86.5753 54.375C86.8556 53.9962 87.2363 53.6989 87.7173 53.483C88.2022 53.267 88.7514 53.1591 89.3651 53.1591C90.2287 53.1591 90.9067 53.3485 91.3991 53.7273C91.8954 54.1061 92.2476 54.6061 92.456 55.2273Z" fill="white" fill-opacity="0.95"/>
</svg>
