<svg width="220" height="232" viewBox="0 0 220 232" fill="none" xmlns="http://www.w3.org/2000/svg">
<mask id="path-1-inside-1_1267_49615" fill="white">
<path d="M0 0H220V232H0V0Z"/>
</mask>
<path d="M0 0H220V232H0V0Z" fill="#1A1A1A"/>
<path d="M220 232V233H221V232H220ZM219 0V232H221V0H219ZM220 231H0V233H220V231Z" fill="white" fill-opacity="0.2" mask="url(#path-1-inside-1_1267_49615)"/>
<path d="M40 122.75C43.7279 122.75 46.75 119.728 46.75 116C46.75 112.272 43.7279 109.25 40 109.25C36.2721 109.25 33.25 112.272 33.25 116C33.25 119.728 36.2721 122.75 40 122.75ZM38.2857 111.714C38.2857 110.925 38.9253 110.286 39.7143 110.286C40.5033 110.286 41.1429 110.925 41.1429 111.714C41.1429 112.503 40.5033 113.143 39.7143 113.143C38.9253 113.143 38.2857 112.503 38.2857 111.714ZM38.8571 116C38.226 116 37.7143 115.488 37.7143 114.857C37.7143 114.226 38.226 113.714 38.8571 113.714H40C40.6312 113.714 41.1429 114.226 41.1429 114.857V118.857H42.2857C42.9169 118.857 43.4286 119.369 43.4286 120C43.4286 120.631 42.9169 121.143 42.2857 121.143H37.7143C37.0831 121.143 36.5714 120.631 36.5714 120C36.5714 119.369 37.0831 118.857 37.7143 118.857H38.8571V116Z" fill="white" fill-opacity="0.2"/>
</svg>
