<svg width="200" height="112" viewBox="0 0 200 112" fill="none" xmlns="http://www.w3.org/2000/svg">
<mask id="path-1-inside-1_1267_49627" fill="white">
<path d="M0 0H200V112H0V0Z"/>
</mask>
<path d="M0 0H200V112H0V0Z" fill="#1A1A1A"/>
<path d="M200 112V113H201V112H200ZM199 0V112H201V0H199ZM200 111H0V113H200V111Z" fill="#707070" mask="url(#path-1-inside-1_1267_49627)"/>
<path d="M31.4091 62V50.3636H35.3409C36.2538 50.3636 37 50.5284 37.5795 50.858C38.1629 51.1837 38.5947 51.625 38.875 52.1818C39.1553 52.7386 39.2955 53.3598 39.2955 54.0455C39.2955 54.7311 39.1553 55.3542 38.875 55.9148C38.5985 56.4754 38.1705 56.9223 37.5909 57.2557C37.0114 57.5852 36.2689 57.75 35.3636 57.75H32.5455V56.5H35.3182C35.9432 56.5 36.4451 56.392 36.8239 56.1761C37.2027 55.9602 37.4773 55.6686 37.6477 55.3011C37.822 54.9299 37.9091 54.5114 37.9091 54.0455C37.9091 53.5795 37.822 53.1629 37.6477 52.7955C37.4773 52.428 37.2008 52.1402 36.8182 51.9318C36.4356 51.7197 35.928 51.6136 35.2955 51.6136H32.8182V62H31.4091ZM42.7244 50.3636V62H41.3835V50.3636H42.7244ZM47.7486 62.2045C47.1955 62.2045 46.6937 62.1004 46.2429 61.892C45.7921 61.6799 45.4342 61.375 45.169 60.9773C44.9039 60.5758 44.7713 60.0909 44.7713 59.5227C44.7713 59.0227 44.8698 58.6174 45.0668 58.3068C45.2637 57.9924 45.527 57.7462 45.8565 57.5682C46.1861 57.3902 46.5497 57.2576 46.9474 57.1705C47.349 57.0795 47.7524 57.0076 48.1577 56.9545C48.688 56.8864 49.1179 56.8352 49.4474 56.8011C49.7808 56.7633 50.0232 56.7008 50.1747 56.6136C50.33 56.5265 50.4077 56.375 50.4077 56.1591V56.1136C50.4077 55.553 50.2543 55.1174 49.9474 54.8068C49.6444 54.4962 49.1842 54.3409 48.5668 54.3409C47.9266 54.3409 47.4247 54.4811 47.0611 54.7614C46.6974 55.0417 46.4418 55.3409 46.294 55.6591L45.0213 55.2045C45.2486 54.6742 45.5516 54.2614 45.9304 53.9659C46.313 53.6667 46.7296 53.4583 47.1804 53.3409C47.6349 53.2197 48.0819 53.1591 48.5213 53.1591C48.8016 53.1591 49.1236 53.1932 49.4872 53.2614C49.8546 53.3258 50.2088 53.4602 50.5497 53.6648C50.8944 53.8693 51.1804 54.178 51.4077 54.5909C51.6349 55.0038 51.7486 55.5568 51.7486 56.25V62H50.4077V60.8182H50.3395C50.2486 61.0076 50.0971 61.2102 49.8849 61.4261C49.6728 61.642 49.3906 61.8258 49.0384 61.9773C48.6861 62.1288 48.2562 62.2045 47.7486 62.2045ZM47.9531 61C48.4834 61 48.9304 60.8958 49.294 60.6875C49.6615 60.4792 49.938 60.2102 50.1236 59.8807C50.313 59.5511 50.4077 59.2045 50.4077 58.8409V57.6136C50.3509 57.6818 50.2259 57.7443 50.0327 57.8011C49.8433 57.8542 49.6236 57.9015 49.3736 57.9432C49.1274 57.9811 48.8868 58.0152 48.652 58.0455C48.4209 58.072 48.2334 58.0947 48.0895 58.1136C47.741 58.1591 47.4152 58.233 47.1122 58.3352C46.813 58.4337 46.5705 58.5833 46.3849 58.7841C46.2031 58.9811 46.1122 59.25 46.1122 59.5909C46.1122 60.0568 46.2846 60.4091 46.6293 60.6477C46.9777 60.8826 47.419 61 47.9531 61ZM57.7415 62.1818C56.9233 62.1818 56.2188 61.9886 55.6278 61.6023C55.0369 61.2159 54.5824 60.6837 54.2642 60.0057C53.946 59.3277 53.7869 58.553 53.7869 57.6818C53.7869 56.7955 53.9498 56.0133 54.2756 55.3352C54.6051 54.6534 55.0634 54.1212 55.6506 53.7386C56.2415 53.3523 56.9309 53.1591 57.7188 53.1591C58.3324 53.1591 58.8854 53.2727 59.3778 53.5C59.8703 53.7273 60.2737 54.0455 60.5881 54.4545C60.9025 54.8636 61.0975 55.3409 61.1733 55.8864H59.8324C59.7301 55.4886 59.5028 55.1364 59.1506 54.8295C58.8021 54.5189 58.3324 54.3636 57.7415 54.3636C57.2188 54.3636 56.7604 54.5 56.3665 54.7727C55.9763 55.0417 55.6714 55.4223 55.4517 55.9148C55.2358 56.4034 55.1278 56.9773 55.1278 57.6364C55.1278 58.3106 55.2339 58.8977 55.446 59.3977C55.6619 59.8977 55.965 60.286 56.3551 60.5625C56.7491 60.839 57.2112 60.9773 57.7415 60.9773C58.09 60.9773 58.4062 60.9167 58.6903 60.7955C58.9744 60.6742 59.215 60.5 59.4119 60.2727C59.6089 60.0455 59.7491 59.7727 59.8324 59.4545H61.1733C61.0975 59.9697 60.91 60.4337 60.6108 60.8466C60.3153 61.2557 59.9233 61.5814 59.4347 61.8239C58.9498 62.0625 58.3854 62.1818 57.7415 62.1818ZM66.7926 62.1818C65.9517 62.1818 65.2263 61.9962 64.6165 61.625C64.0104 61.25 63.5426 60.7273 63.2131 60.0568C62.8873 59.3826 62.7244 58.5985 62.7244 57.7045C62.7244 56.8106 62.8873 56.0227 63.2131 55.3409C63.5426 54.6553 64.0009 54.1212 64.5881 53.7386C65.179 53.3523 65.8684 53.1591 66.6562 53.1591C67.1108 53.1591 67.5597 53.2348 68.0028 53.3864C68.446 53.5379 68.8494 53.7841 69.2131 54.125C69.5767 54.4621 69.8665 54.9091 70.0824 55.4659C70.2983 56.0227 70.4062 56.7083 70.4062 57.5227V58.0909H63.679V56.9318H69.0426C69.0426 56.4394 68.9441 56 68.7472 55.6136C68.554 55.2273 68.2775 54.9223 67.9176 54.6989C67.5616 54.4754 67.1411 54.3636 66.6562 54.3636C66.1222 54.3636 65.66 54.4962 65.2699 54.7614C64.8835 55.0227 64.5862 55.3636 64.3778 55.7841C64.1695 56.2045 64.0653 56.6553 64.0653 57.1364V57.9091C64.0653 58.5682 64.179 59.1269 64.4062 59.5852C64.6373 60.0398 64.9574 60.3864 65.3665 60.625C65.7756 60.8598 66.2509 60.9773 66.7926 60.9773C67.1449 60.9773 67.4631 60.928 67.7472 60.8295C68.035 60.7273 68.2831 60.5758 68.4915 60.375C68.6998 60.1705 68.8608 59.9167 68.9744 59.6136L70.2699 59.9773C70.1335 60.4167 69.9044 60.803 69.5824 61.1364C69.2604 61.4659 68.8627 61.7235 68.3892 61.9091C67.9157 62.0909 67.3835 62.1818 66.7926 62.1818ZM73.7869 56.75V62H72.446V50.3636H73.7869V54.6364H73.9006C74.1051 54.1856 74.4119 53.8277 74.821 53.5625C75.2339 53.2936 75.7831 53.1591 76.4688 53.1591C77.0634 53.1591 77.5843 53.2784 78.0312 53.517C78.4782 53.7519 78.8248 54.1136 79.071 54.6023C79.321 55.0871 79.446 55.7045 79.446 56.4545V62H78.1051V56.5455C78.1051 55.8523 77.9252 55.3163 77.5653 54.9375C77.2093 54.5549 76.715 54.3636 76.0824 54.3636C75.643 54.3636 75.2491 54.4564 74.9006 54.642C74.5559 54.8277 74.2831 55.0985 74.0824 55.4545C73.8854 55.8106 73.7869 56.2424 73.7869 56.75ZM85.4446 62.1818C84.6567 62.1818 83.9654 61.9943 83.3707 61.6193C82.7798 61.2443 82.3177 60.7197 81.9844 60.0455C81.6548 59.3712 81.4901 58.5833 81.4901 57.6818C81.4901 56.7727 81.6548 55.9792 81.9844 55.3011C82.3177 54.6231 82.7798 54.0966 83.3707 53.7216C83.9654 53.3466 84.6567 53.1591 85.4446 53.1591C86.2325 53.1591 86.9219 53.3466 87.5128 53.7216C88.1075 54.0966 88.5696 54.6231 88.8991 55.3011C89.2325 55.9792 89.3991 56.7727 89.3991 57.6818C89.3991 58.5833 89.2325 59.3712 88.8991 60.0455C88.5696 60.7197 88.1075 61.2443 87.5128 61.6193C86.9219 61.9943 86.2325 62.1818 85.4446 62.1818ZM85.4446 60.9773C86.0431 60.9773 86.5355 60.8239 86.9219 60.517C87.3082 60.2102 87.5942 59.8068 87.7798 59.3068C87.9654 58.8068 88.0582 58.2652 88.0582 57.6818C88.0582 57.0985 87.9654 56.5549 87.7798 56.0511C87.5942 55.5473 87.3082 55.1402 86.9219 54.8295C86.5355 54.5189 86.0431 54.3636 85.4446 54.3636C84.8461 54.3636 84.3537 54.5189 83.9673 54.8295C83.581 55.1402 83.295 55.5473 83.1094 56.0511C82.9238 56.5549 82.831 57.0985 82.831 57.6818C82.831 58.2652 82.9238 58.8068 83.1094 59.3068C83.295 59.8068 83.581 60.2102 83.9673 60.517C84.3537 60.8239 84.8461 60.9773 85.4446 60.9773ZM92.7869 50.3636V62H91.446V50.3636H92.7869ZM98.5384 62.1818C97.8111 62.1818 97.169 61.9981 96.6122 61.6307C96.0554 61.2595 95.6198 60.7367 95.3054 60.0625C94.991 59.3845 94.8338 58.5833 94.8338 57.6591C94.8338 56.7424 94.991 55.947 95.3054 55.2727C95.6198 54.5985 96.0573 54.0777 96.6179 53.7102C97.1785 53.3428 97.8262 53.1591 98.5611 53.1591C99.1293 53.1591 99.5781 53.2538 99.9077 53.4432C100.241 53.6288 100.495 53.8409 100.669 54.0795C100.847 54.3144 100.985 54.5076 101.084 54.6591H101.197V50.3636H102.538V62H101.243V60.6591H101.084C100.985 60.8182 100.845 61.0189 100.663 61.2614C100.482 61.5 100.222 61.714 99.8849 61.9034C99.5478 62.089 99.099 62.1818 98.5384 62.1818ZM98.7202 60.9773C99.258 60.9773 99.7126 60.8371 100.084 60.5568C100.455 60.2727 100.737 59.8807 100.93 59.3807C101.124 58.8769 101.22 58.2955 101.22 57.6364C101.22 56.9848 101.125 56.4148 100.936 55.9261C100.747 55.4337 100.466 55.0511 100.095 54.7784C99.724 54.5019 99.2656 54.3636 98.7202 54.3636C98.152 54.3636 97.6785 54.5095 97.2997 54.8011C96.9247 55.089 96.6425 55.4811 96.4531 55.9773C96.2675 56.4697 96.1747 57.0227 96.1747 57.6364C96.1747 58.2576 96.2694 58.822 96.4588 59.3295C96.652 59.8333 96.9361 60.2348 97.3111 60.5341C97.6899 60.8295 98.1596 60.9773 98.7202 60.9773ZM108.839 62.1818C107.999 62.1818 107.273 61.9962 106.663 61.625C106.057 61.25 105.589 60.7273 105.26 60.0568C104.934 59.3826 104.771 58.5985 104.771 57.7045C104.771 56.8106 104.934 56.0227 105.26 55.3409C105.589 54.6553 106.048 54.1212 106.635 53.7386C107.226 53.3523 107.915 53.1591 108.703 53.1591C109.158 53.1591 109.607 53.2348 110.05 53.3864C110.493 53.5379 110.896 53.7841 111.26 54.125C111.624 54.4621 111.913 54.9091 112.129 55.4659C112.345 56.0227 112.453 56.7083 112.453 57.5227V58.0909H105.726V56.9318H111.089C111.089 56.4394 110.991 56 110.794 55.6136C110.601 55.2273 110.324 54.9223 109.964 54.6989C109.608 54.4754 109.188 54.3636 108.703 54.3636C108.169 54.3636 107.707 54.4962 107.317 54.7614C106.93 55.0227 106.633 55.3636 106.425 55.7841C106.216 56.2045 106.112 56.6553 106.112 57.1364V57.9091C106.112 58.5682 106.226 59.1269 106.453 59.5852C106.684 60.0398 107.004 60.3864 107.413 60.625C107.822 60.8598 108.298 60.9773 108.839 60.9773C109.192 60.9773 109.51 60.928 109.794 60.8295C110.082 60.7273 110.33 60.5758 110.538 60.375C110.747 60.1705 110.908 59.9167 111.021 59.6136L112.317 59.9773C112.18 60.4167 111.951 60.803 111.629 61.1364C111.307 61.4659 110.91 61.7235 110.436 61.9091C109.963 62.0909 109.43 62.1818 108.839 62.1818ZM114.493 62V53.2727H115.788V54.5909H115.879C116.038 54.1591 116.326 53.8087 116.743 53.5398C117.16 53.2708 117.629 53.1364 118.152 53.1364C118.25 53.1364 118.374 53.1383 118.521 53.142C118.669 53.1458 118.781 53.1515 118.857 53.1591V54.5227C118.811 54.5114 118.707 54.4943 118.544 54.4716C118.385 54.4451 118.216 54.4318 118.038 54.4318C117.614 54.4318 117.235 54.5208 116.902 54.6989C116.572 54.8731 116.311 55.1155 116.118 55.4261C115.929 55.733 115.834 56.0833 115.834 56.4773V62H114.493ZM128.741 53.2727V54.4091H124.219V53.2727H128.741ZM125.537 51.1818H126.878V59.5C126.878 59.8788 126.933 60.1629 127.043 60.3523C127.156 60.5379 127.3 60.6629 127.474 60.7273C127.652 60.7879 127.84 60.8182 128.037 60.8182C128.185 60.8182 128.306 60.8106 128.401 60.7955C128.495 60.7765 128.571 60.7614 128.628 60.75L128.901 61.9545C128.81 61.9886 128.683 62.0227 128.52 62.0568C128.357 62.0947 128.151 62.1136 127.901 62.1136C127.522 62.1136 127.151 62.0322 126.787 61.8693C126.427 61.7064 126.128 61.4583 125.889 61.125C125.654 60.7917 125.537 60.3712 125.537 59.8636V51.1818ZM134.324 62.1818C133.483 62.1818 132.758 61.9962 132.148 61.625C131.542 61.25 131.074 60.7273 130.744 60.0568C130.419 59.3826 130.256 58.5985 130.256 57.7045C130.256 56.8106 130.419 56.0227 130.744 55.3409C131.074 54.6553 131.532 54.1212 132.119 53.7386C132.71 53.3523 133.4 53.1591 134.188 53.1591C134.642 53.1591 135.091 53.2348 135.534 53.3864C135.977 53.5379 136.381 53.7841 136.744 54.125C137.108 54.4621 137.398 54.9091 137.614 55.4659C137.83 56.0227 137.938 56.7083 137.938 57.5227V58.0909H131.21V56.9318H136.574C136.574 56.4394 136.475 56 136.278 55.6136C136.085 55.2273 135.809 54.9223 135.449 54.6989C135.093 54.4754 134.672 54.3636 134.188 54.3636C133.653 54.3636 133.191 54.4962 132.801 54.7614C132.415 55.0227 132.117 55.3636 131.909 55.7841C131.701 56.2045 131.597 56.6553 131.597 57.1364V57.9091C131.597 58.5682 131.71 59.1269 131.938 59.5852C132.169 60.0398 132.489 60.3864 132.898 60.625C133.307 60.8598 133.782 60.9773 134.324 60.9773C134.676 60.9773 134.994 60.928 135.278 60.8295C135.566 60.7273 135.814 60.5758 136.023 60.375C136.231 60.1705 136.392 59.9167 136.506 59.6136L137.801 59.9773C137.665 60.4167 137.436 60.803 137.114 61.1364C136.792 61.4659 136.394 61.7235 135.92 61.9091C135.447 62.0909 134.915 62.1818 134.324 62.1818ZM140.743 53.2727L142.834 56.8409L144.925 53.2727H146.47L143.652 57.6364L146.47 62H144.925L142.834 58.6136L140.743 62H139.197L141.97 57.6364L139.197 53.2727H140.743ZM152.179 53.2727V54.4091H147.656V53.2727H152.179ZM148.974 51.1818H150.315V59.5C150.315 59.8788 150.37 60.1629 150.48 60.3523C150.594 60.5379 150.738 60.6629 150.912 60.7273C151.09 60.7879 151.277 60.8182 151.474 60.8182C151.622 60.8182 151.743 60.8106 151.838 60.7955C151.933 60.7765 152.009 60.7614 152.065 60.75L152.338 61.9545C152.247 61.9886 152.12 62.0227 151.957 62.0568C151.795 62.0947 151.588 62.1136 151.338 62.1136C150.959 62.1136 150.588 62.0322 150.224 61.8693C149.865 61.7064 149.565 61.4583 149.327 61.125C149.092 60.7917 148.974 60.3712 148.974 59.8636V51.1818Z" fill="white" fill-opacity="0.95"/>
</svg>
