<svg width="200" height="232" viewBox="0 0 200 232" fill="none" xmlns="http://www.w3.org/2000/svg">
<mask id="path-1-inside-1_1267_49618" fill="white">
<path d="M0 0H200V232H0V0Z"/>
</mask>
<path d="M0 0H200V232H0V0Z" fill="#1A1A1A"/>
<path d="M200 232V233H201V232H200ZM199 0V232H201V0H199ZM200 231H0V233H200V231Z" fill="#707070" mask="url(#path-1-inside-1_1267_49618)"/>
<path d="M32.8182 110.364V122H31.4091V110.364H32.8182ZM36.8026 116.75V122H35.4616V113.273H36.7571V114.636H36.8707C37.0753 114.193 37.3859 113.837 37.8026 113.568C38.2192 113.295 38.7571 113.159 39.4162 113.159C40.0071 113.159 40.5241 113.28 40.9673 113.523C41.4105 113.761 41.7552 114.125 42.0014 114.614C42.2476 115.098 42.3707 115.712 42.3707 116.455V122H41.0298V116.545C41.0298 115.86 40.8518 115.326 40.4957 114.943C40.1397 114.557 39.651 114.364 39.0298 114.364C38.6018 114.364 38.2192 114.456 37.8821 114.642C37.5488 114.828 37.2855 115.098 37.0923 115.455C36.8991 115.811 36.8026 116.242 36.8026 116.75ZM48.7074 113.273V114.409H44.0028V113.273H48.7074ZM45.4119 122V112.068C45.4119 111.568 45.5294 111.152 45.7642 110.818C45.9991 110.485 46.304 110.235 46.679 110.068C47.054 109.902 47.4498 109.818 47.8665 109.818C48.196 109.818 48.465 109.845 48.6733 109.898C48.8816 109.951 49.0369 110 49.1392 110.045L48.7528 111.205C48.6847 111.182 48.59 111.153 48.4688 111.119C48.3513 111.085 48.196 111.068 48.0028 111.068C47.5597 111.068 47.2396 111.18 47.0426 111.403C46.8494 111.627 46.7528 111.955 46.7528 112.386V122H45.4119ZM53.7727 122.182C52.9848 122.182 52.2936 121.994 51.6989 121.619C51.108 121.244 50.6458 120.72 50.3125 120.045C49.983 119.371 49.8182 118.583 49.8182 117.682C49.8182 116.773 49.983 115.979 50.3125 115.301C50.6458 114.623 51.108 114.097 51.6989 113.722C52.2936 113.347 52.9848 113.159 53.7727 113.159C54.5606 113.159 55.25 113.347 55.8409 113.722C56.4356 114.097 56.8977 114.623 57.2273 115.301C57.5606 115.979 57.7273 116.773 57.7273 117.682C57.7273 118.583 57.5606 119.371 57.2273 120.045C56.8977 120.72 56.4356 121.244 55.8409 121.619C55.25 121.994 54.5606 122.182 53.7727 122.182ZM53.7727 120.977C54.3712 120.977 54.8636 120.824 55.25 120.517C55.6364 120.21 55.9223 119.807 56.108 119.307C56.2936 118.807 56.3864 118.265 56.3864 117.682C56.3864 117.098 56.2936 116.555 56.108 116.051C55.9223 115.547 55.6364 115.14 55.25 114.83C54.8636 114.519 54.3712 114.364 53.7727 114.364C53.1742 114.364 52.6818 114.519 52.2955 114.83C51.9091 115.14 51.6231 115.547 51.4375 116.051C51.2519 116.555 51.1591 117.098 51.1591 117.682C51.1591 118.265 51.2519 118.807 51.4375 119.307C51.6231 119.807 51.9091 120.21 52.2955 120.517C52.6818 120.824 53.1742 120.977 53.7727 120.977ZM64.456 122V110.364H65.7969V114.659H65.9105C66.009 114.508 66.1454 114.314 66.3196 114.08C66.4976 113.841 66.7514 113.629 67.081 113.443C67.4143 113.254 67.8651 113.159 68.4332 113.159C69.1681 113.159 69.8158 113.343 70.3764 113.71C70.937 114.078 71.3745 114.598 71.6889 115.273C72.0033 115.947 72.1605 116.742 72.1605 117.659C72.1605 118.583 72.0033 119.384 71.6889 120.062C71.3745 120.737 70.9389 121.259 70.3821 121.631C69.8253 121.998 69.1832 122.182 68.456 122.182C67.8954 122.182 67.4465 122.089 67.1094 121.903C66.7723 121.714 66.5128 121.5 66.331 121.261C66.1491 121.019 66.009 120.818 65.9105 120.659H65.7514V122H64.456ZM65.7741 117.636C65.7741 118.295 65.8707 118.877 66.0639 119.381C66.2571 119.881 66.5393 120.273 66.9105 120.557C67.2817 120.837 67.7363 120.977 68.2741 120.977C68.8348 120.977 69.3026 120.83 69.6776 120.534C70.0563 120.235 70.3404 119.833 70.5298 119.33C70.723 118.822 70.8196 118.258 70.8196 117.636C70.8196 117.023 70.7249 116.47 70.5355 115.977C70.3499 115.481 70.0677 115.089 69.6889 114.801C69.3139 114.509 68.8423 114.364 68.2741 114.364C67.7287 114.364 67.2704 114.502 66.8991 114.778C66.5279 115.051 66.2476 115.434 66.0582 115.926C65.8688 116.415 65.7741 116.985 65.7741 117.636ZM79.7116 118.432V113.273H81.0526V122H79.7116V120.523H79.6207C79.4162 120.966 79.098 121.343 78.6662 121.653C78.2344 121.96 77.6889 122.114 77.0298 122.114C76.4844 122.114 75.9995 121.994 75.5753 121.756C75.151 121.513 74.8177 121.15 74.5753 120.665C74.3329 120.176 74.2116 119.561 74.2116 118.818V113.273H75.5526V118.727C75.5526 119.364 75.7306 119.871 76.0866 120.25C76.4465 120.629 76.9048 120.818 77.4616 120.818C77.795 120.818 78.134 120.733 78.4787 120.562C78.8272 120.392 79.1188 120.131 79.3537 119.778C79.5923 119.426 79.7116 118.977 79.7116 118.432ZM87.304 113.273V114.409H82.7812V113.273H87.304ZM84.0994 111.182H85.4403V119.5C85.4403 119.879 85.4953 120.163 85.6051 120.352C85.7188 120.538 85.8627 120.663 86.0369 120.727C86.215 120.788 86.4025 120.818 86.5994 120.818C86.7472 120.818 86.8684 120.811 86.9631 120.795C87.0578 120.777 87.1335 120.761 87.1903 120.75L87.4631 121.955C87.3722 121.989 87.2453 122.023 87.0824 122.057C86.9195 122.095 86.7131 122.114 86.4631 122.114C86.0843 122.114 85.7131 122.032 85.3494 121.869C84.9896 121.706 84.6903 121.458 84.4517 121.125C84.2169 120.792 84.0994 120.371 84.0994 119.864V111.182ZM93.1165 113.273V114.409H88.5938V113.273H93.1165ZM89.9119 111.182H91.2528V119.5C91.2528 119.879 91.3078 120.163 91.4176 120.352C91.5313 120.538 91.6752 120.663 91.8494 120.727C92.0275 120.788 92.215 120.818 92.4119 120.818C92.5597 120.818 92.6809 120.811 92.7756 120.795C92.8703 120.777 92.946 120.761 93.0028 120.75L93.2756 121.955C93.1847 121.989 93.0578 122.023 92.8949 122.057C92.732 122.095 92.5256 122.114 92.2756 122.114C91.8968 122.114 91.5256 122.032 91.1619 121.869C90.8021 121.706 90.5028 121.458 90.2642 121.125C90.0294 120.792 89.9119 120.371 89.9119 119.864V111.182ZM98.5852 122.182C97.7973 122.182 97.1061 121.994 96.5114 121.619C95.9205 121.244 95.4583 120.72 95.125 120.045C94.7955 119.371 94.6307 118.583 94.6307 117.682C94.6307 116.773 94.7955 115.979 95.125 115.301C95.4583 114.623 95.9205 114.097 96.5114 113.722C97.1061 113.347 97.7973 113.159 98.5852 113.159C99.3731 113.159 100.063 113.347 100.653 113.722C101.248 114.097 101.71 114.623 102.04 115.301C102.373 115.979 102.54 116.773 102.54 117.682C102.54 118.583 102.373 119.371 102.04 120.045C101.71 120.72 101.248 121.244 100.653 121.619C100.063 121.994 99.3731 122.182 98.5852 122.182ZM98.5852 120.977C99.1837 120.977 99.6761 120.824 100.062 120.517C100.449 120.21 100.735 119.807 100.92 119.307C101.106 118.807 101.199 118.265 101.199 117.682C101.199 117.098 101.106 116.555 100.92 116.051C100.735 115.547 100.449 115.14 100.062 114.83C99.6761 114.519 99.1837 114.364 98.5852 114.364C97.9867 114.364 97.4943 114.519 97.108 114.83C96.7216 115.14 96.4356 115.547 96.25 116.051C96.0644 116.555 95.9716 117.098 95.9716 117.682C95.9716 118.265 96.0644 118.807 96.25 119.307C96.4356 119.807 96.7216 120.21 97.108 120.517C97.4943 120.824 97.9867 120.977 98.5852 120.977ZM105.928 116.75V122H104.587V113.273H105.882V114.636H105.996C106.2 114.193 106.511 113.837 106.928 113.568C107.344 113.295 107.882 113.159 108.541 113.159C109.132 113.159 109.649 113.28 110.092 113.523C110.536 113.761 110.88 114.125 111.126 114.614C111.373 115.098 111.496 115.712 111.496 116.455V122H110.155V116.545C110.155 115.86 109.977 115.326 109.621 114.943C109.265 114.557 108.776 114.364 108.155 114.364C107.727 114.364 107.344 114.456 107.007 114.642C106.674 114.828 106.411 115.098 106.217 115.455C106.024 115.811 105.928 116.242 105.928 116.75ZM120.673 116.909L120.764 114.409L118.651 115.75L118.105 114.795L120.332 113.636L118.105 112.477L118.651 111.523L120.764 112.864L120.673 110.364H121.764L121.673 112.864L123.787 111.523L124.332 112.477L122.105 113.636L124.332 114.795L123.787 115.75L121.673 114.409L121.764 116.909H120.673Z" fill="white" fill-opacity="0.95"/>
</svg>
