<svg width="200" height="160" viewBox="0 0 200 160" fill="none" xmlns="http://www.w3.org/2000/svg">
<mask id="path-1-inside-1_1267_50327" fill="white">
<path d="M0 0H200V160H0V0Z"/>
</mask>
<path d="M0 0H200V160H0V0Z" fill="#1A1A1A"/>
<path d="M200 160V161H201V160H200ZM199 0V160H201V0H199ZM200 159H0V161H200V159Z" fill="#707070" mask="url(#path-1-inside-1_1267_50327)"/>
<path d="M30.7727 75.6136V74.3636H39.5V75.6136H35.8409V86H34.4318V75.6136H30.7727ZM43.8864 86.1818C43.0455 86.1818 42.3201 85.9962 41.7102 85.625C41.1042 85.25 40.6364 84.7273 40.3068 84.0568C39.9811 83.3826 39.8182 82.5985 39.8182 81.7045C39.8182 80.8106 39.9811 80.0227 40.3068 79.3409C40.6364 78.6553 41.0947 78.1212 41.6818 77.7386C42.2727 77.3523 42.9621 77.1591 43.75 77.1591C44.2045 77.1591 44.6534 77.2348 45.0966 77.3864C45.5398 77.5379 45.9432 77.7841 46.3068 78.125C46.6705 78.4621 46.9602 78.9091 47.1761 79.4659C47.392 80.0227 47.5 80.7083 47.5 81.5227V82.0909H40.7727V80.9318H46.1364C46.1364 80.4394 46.0379 80 45.8409 79.6136C45.6477 79.2273 45.3712 78.9223 45.0114 78.6989C44.6553 78.4754 44.2348 78.3636 43.75 78.3636C43.2159 78.3636 42.7538 78.4962 42.3636 78.7614C41.9773 79.0227 41.6799 79.3636 41.4716 79.7841C41.2633 80.2045 41.1591 80.6553 41.1591 81.1364V81.9091C41.1591 82.5682 41.2727 83.1269 41.5 83.5852C41.7311 84.0398 42.0511 84.3864 42.4602 84.625C42.8693 84.8598 43.3447 84.9773 43.8864 84.9773C44.2386 84.9773 44.5568 84.928 44.8409 84.8295C45.1288 84.7273 45.3769 84.5758 45.5852 84.375C45.7936 84.1705 45.9545 83.9167 46.0682 83.6136L47.3636 83.9773C47.2273 84.4167 46.9981 84.803 46.6761 85.1364C46.3542 85.4659 45.9564 85.7235 45.483 85.9091C45.0095 86.0909 44.4773 86.1818 43.8864 86.1818ZM50.3054 77.2727L52.3963 80.8409L54.4872 77.2727H56.0327L53.2145 81.6364L56.0327 86H54.4872L52.3963 82.6136L50.3054 86H48.7599L51.5327 81.6364L48.7599 77.2727H50.3054ZM61.7415 77.2727V78.4091H57.2188V77.2727H61.7415ZM58.5369 75.1818H59.8778V83.5C59.8778 83.8788 59.9328 84.1629 60.0426 84.3523C60.1563 84.5379 60.3002 84.6629 60.4744 84.7273C60.6525 84.7879 60.84 84.8182 61.0369 84.8182C61.1847 84.8182 61.3059 84.8106 61.4006 84.7955C61.4953 84.7765 61.571 84.7614 61.6278 84.75L61.9006 85.9545C61.8097 85.9886 61.6828 86.0227 61.5199 86.0568C61.357 86.0947 61.1506 86.1136 60.9006 86.1136C60.5218 86.1136 60.1506 86.0322 59.7869 85.8693C59.4271 85.7064 59.1278 85.4583 58.8892 85.125C58.6544 84.7917 58.5369 84.3712 58.5369 83.8636V75.1818ZM72.1449 77.2727V78.4091H67.4403V77.2727H72.1449ZM68.8494 86V76.0682C68.8494 75.5682 68.9669 75.1515 69.2017 74.8182C69.4366 74.4848 69.7415 74.2348 70.1165 74.0682C70.4915 73.9015 70.8873 73.8182 71.304 73.8182C71.6335 73.8182 71.9025 73.8447 72.1108 73.8977C72.3191 73.9508 72.4744 74 72.5767 74.0455L72.1903 75.2045C72.1222 75.1818 72.0275 75.1534 71.9062 75.1193C71.7888 75.0852 71.6335 75.0682 71.4403 75.0682C70.9972 75.0682 70.6771 75.1799 70.4801 75.4034C70.2869 75.6269 70.1903 75.9545 70.1903 76.3864V86H68.8494ZM74.0241 86V77.2727H75.3651V86H74.0241ZM74.706 75.8182C74.4446 75.8182 74.2192 75.7292 74.0298 75.5511C73.8442 75.3731 73.7514 75.1591 73.7514 74.9091C73.7514 74.6591 73.8442 74.4451 74.0298 74.267C74.2192 74.089 74.4446 74 74.706 74C74.9673 74 75.1908 74.089 75.3764 74.267C75.5658 74.4451 75.6605 74.6591 75.6605 74.9091C75.6605 75.1591 75.5658 75.3731 75.3764 75.5511C75.1908 75.7292 74.9673 75.8182 74.706 75.8182ZM81.4801 86.1818C80.6392 86.1818 79.9138 85.9962 79.304 85.625C78.6979 85.25 78.2301 84.7273 77.9006 84.0568C77.5748 83.3826 77.4119 82.5985 77.4119 81.7045C77.4119 80.8106 77.5748 80.0227 77.9006 79.3409C78.2301 78.6553 78.6884 78.1212 79.2756 77.7386C79.8665 77.3523 80.5559 77.1591 81.3438 77.1591C81.7983 77.1591 82.2472 77.2348 82.6903 77.3864C83.1335 77.5379 83.5369 77.7841 83.9006 78.125C84.2642 78.4621 84.554 78.9091 84.7699 79.4659C84.9858 80.0227 85.0938 80.7083 85.0938 81.5227V82.0909H78.3665V80.9318H83.7301C83.7301 80.4394 83.6316 80 83.4347 79.6136C83.2415 79.2273 82.965 78.9223 82.6051 78.6989C82.2491 78.4754 81.8286 78.3636 81.3438 78.3636C80.8097 78.3636 80.3475 78.4962 79.9574 78.7614C79.571 79.0227 79.2737 79.3636 79.0653 79.7841C78.857 80.2045 78.7528 80.6553 78.7528 81.1364V81.9091C78.7528 82.5682 78.8665 83.1269 79.0938 83.5852C79.3248 84.0398 79.6449 84.3864 80.054 84.625C80.4631 84.8598 80.9384 84.9773 81.4801 84.9773C81.8324 84.9773 82.1506 84.928 82.4347 84.8295C82.7225 84.7273 82.9706 84.5758 83.179 84.375C83.3873 84.1705 83.5483 83.9167 83.6619 83.6136L84.9574 83.9773C84.821 84.4167 84.5919 84.803 84.2699 85.1364C83.9479 85.4659 83.5502 85.7235 83.0767 85.9091C82.6032 86.0909 82.071 86.1818 81.4801 86.1818ZM88.4744 74.3636V86H87.1335V74.3636H88.4744ZM94.2259 86.1818C93.4986 86.1818 92.8565 85.9981 92.2997 85.6307C91.7429 85.2595 91.3073 84.7367 90.9929 84.0625C90.6785 83.3845 90.5213 82.5833 90.5213 81.6591C90.5213 80.7424 90.6785 79.947 90.9929 79.2727C91.3073 78.5985 91.7448 78.0777 92.3054 77.7102C92.866 77.3428 93.5137 77.1591 94.2486 77.1591C94.8168 77.1591 95.2656 77.2538 95.5952 77.4432C95.9285 77.6288 96.1823 77.8409 96.3565 78.0795C96.5346 78.3144 96.6728 78.5076 96.7713 78.6591H96.8849V74.3636H98.2259V86H96.9304V84.6591H96.7713C96.6728 84.8182 96.5327 85.0189 96.3509 85.2614C96.169 85.5 95.9096 85.714 95.5724 85.9034C95.2353 86.089 94.7865 86.1818 94.2259 86.1818ZM94.4077 84.9773C94.9455 84.9773 95.4001 84.8371 95.7713 84.5568C96.1425 84.2727 96.4247 83.8807 96.6179 83.3807C96.8111 82.8769 96.9077 82.2955 96.9077 81.6364C96.9077 80.9848 96.813 80.4148 96.6236 79.9261C96.4342 79.4337 96.1539 79.0511 95.7827 78.7784C95.4115 78.5019 94.9531 78.3636 94.4077 78.3636C93.8395 78.3636 93.366 78.5095 92.9872 78.8011C92.6122 79.089 92.33 79.4811 92.1406 79.9773C91.955 80.4697 91.8622 81.0227 91.8622 81.6364C91.8622 82.2576 91.9569 82.822 92.1463 83.3295C92.3395 83.8333 92.6236 84.2348 92.9986 84.5341C93.3774 84.8295 93.8471 84.9773 94.4077 84.9773ZM102.868 84.4091L102.777 85.0227C102.713 85.4545 102.614 85.9167 102.482 86.4091C102.353 86.9015 102.218 87.3655 102.078 87.8011C101.938 88.2367 101.822 88.5833 101.732 88.8409H100.709C100.758 88.5985 100.822 88.2784 100.902 87.8807C100.982 87.483 101.061 87.0379 101.141 86.5455C101.224 86.0568 101.292 85.5568 101.345 85.0455L101.413 84.4091H102.868ZM116.034 79.2273L114.83 79.5682C114.754 79.3674 114.642 79.1723 114.494 78.983C114.35 78.7898 114.153 78.6307 113.903 78.5057C113.653 78.3807 113.333 78.3182 112.943 78.3182C112.409 78.3182 111.964 78.4413 111.608 78.6875C111.256 78.9299 111.08 79.2386 111.08 79.6136C111.08 79.947 111.201 80.2102 111.443 80.4034C111.686 80.5966 112.064 80.7576 112.58 80.8864L113.875 81.2045C114.655 81.3939 115.237 81.6837 115.619 82.0739C116.002 82.4602 116.193 82.9583 116.193 83.5682C116.193 84.0682 116.049 84.5152 115.761 84.9091C115.477 85.303 115.08 85.6136 114.568 85.8409C114.057 86.0682 113.462 86.1818 112.784 86.1818C111.894 86.1818 111.157 85.9886 110.574 85.6023C109.991 85.2159 109.621 84.6515 109.466 83.9091L110.739 83.5909C110.86 84.0606 111.089 84.4129 111.426 84.6477C111.767 84.8826 112.212 85 112.761 85C113.386 85 113.883 84.8674 114.25 84.6023C114.621 84.3333 114.807 84.0114 114.807 83.6364C114.807 83.3333 114.701 83.0795 114.489 82.875C114.277 82.6667 113.951 82.5114 113.511 82.4091L112.057 82.0682C111.258 81.8788 110.67 81.5852 110.295 81.1875C109.924 80.786 109.739 80.2841 109.739 79.6818C109.739 79.1894 109.877 78.7538 110.153 78.375C110.434 77.9962 110.814 77.6989 111.295 77.483C111.78 77.267 112.33 77.1591 112.943 77.1591C113.807 77.1591 114.485 77.3485 114.977 77.7273C115.473 78.1061 115.826 78.6061 116.034 79.2273ZM121.871 86.1818C121.03 86.1818 120.304 85.9962 119.695 85.625C119.089 85.25 118.621 84.7273 118.291 84.0568C117.965 83.3826 117.803 82.5985 117.803 81.7045C117.803 80.8106 117.965 80.0227 118.291 79.3409C118.621 78.6553 119.079 78.1212 119.666 77.7386C120.257 77.3523 120.946 77.1591 121.734 77.1591C122.189 77.1591 122.638 77.2348 123.081 77.3864C123.524 77.5379 123.928 77.7841 124.291 78.125C124.655 78.4621 124.945 78.9091 125.161 79.4659C125.376 80.0227 125.484 80.7083 125.484 81.5227V82.0909H118.757V80.9318H124.121C124.121 80.4394 124.022 80 123.825 79.6136C123.632 79.2273 123.356 78.9223 122.996 78.6989C122.64 78.4754 122.219 78.3636 121.734 78.3636C121.2 78.3636 120.738 78.4962 120.348 78.7614C119.962 79.0227 119.664 79.3636 119.456 79.7841C119.248 80.2045 119.143 80.6553 119.143 81.1364V81.9091C119.143 82.5682 119.257 83.1269 119.484 83.5852C119.715 84.0398 120.036 84.3864 120.445 84.625C120.854 84.8598 121.329 84.9773 121.871 84.9773C122.223 84.9773 122.541 84.928 122.825 84.8295C123.113 84.7273 123.361 84.5758 123.57 84.375C123.778 84.1705 123.939 83.9167 124.053 83.6136L125.348 83.9773C125.212 84.4167 124.982 84.803 124.661 85.1364C124.339 85.4659 123.941 85.7235 123.467 85.9091C122.994 86.0909 122.462 86.1818 121.871 86.1818ZM128.865 74.3636V86H127.524V74.3636H128.865ZM134.98 86.1818C134.139 86.1818 133.414 85.9962 132.804 85.625C132.198 85.25 131.73 84.7273 131.401 84.0568C131.075 83.3826 130.912 82.5985 130.912 81.7045C130.912 80.8106 131.075 80.0227 131.401 79.3409C131.73 78.6553 132.188 78.1212 132.776 77.7386C133.366 77.3523 134.056 77.1591 134.844 77.1591C135.298 77.1591 135.747 77.2348 136.19 77.3864C136.634 77.5379 137.037 77.7841 137.401 78.125C137.764 78.4621 138.054 78.9091 138.27 79.4659C138.486 80.0227 138.594 80.7083 138.594 81.5227V82.0909H131.866V80.9318H137.23C137.23 80.4394 137.132 80 136.935 79.6136C136.741 79.2273 136.465 78.9223 136.105 78.6989C135.749 78.4754 135.329 78.3636 134.844 78.3636C134.31 78.3636 133.848 78.4962 133.457 78.7614C133.071 79.0227 132.774 79.3636 132.565 79.7841C132.357 80.2045 132.253 80.6553 132.253 81.1364V81.9091C132.253 82.5682 132.366 83.1269 132.594 83.5852C132.825 84.0398 133.145 84.3864 133.554 84.625C133.963 84.8598 134.438 84.9773 134.98 84.9773C135.332 84.9773 135.651 84.928 135.935 84.8295C136.223 84.7273 136.471 84.5758 136.679 84.375C136.887 84.1705 137.048 83.9167 137.162 83.6136L138.457 83.9773C138.321 84.4167 138.092 84.803 137.77 85.1364C137.448 85.4659 137.05 85.7235 136.577 85.9091C136.103 86.0909 135.571 86.1818 134.98 86.1818ZM144.179 86.1818C143.361 86.1818 142.656 85.9886 142.065 85.6023C141.474 85.2159 141.02 84.6837 140.702 84.0057C140.384 83.3277 140.224 82.553 140.224 81.6818C140.224 80.7955 140.387 80.0133 140.713 79.3352C141.043 78.6534 141.501 78.1212 142.088 77.7386C142.679 77.3523 143.368 77.1591 144.156 77.1591C144.77 77.1591 145.323 77.2727 145.815 77.5C146.308 77.7273 146.711 78.0455 147.026 78.4545C147.34 78.8636 147.535 79.3409 147.611 79.8864H146.27C146.168 79.4886 145.94 79.1364 145.588 78.8295C145.24 78.5189 144.77 78.3636 144.179 78.3636C143.656 78.3636 143.198 78.5 142.804 78.7727C142.414 79.0417 142.109 79.4223 141.889 79.9148C141.673 80.4034 141.565 80.9773 141.565 81.6364C141.565 82.3106 141.671 82.8977 141.884 83.3977C142.099 83.8977 142.402 84.286 142.793 84.5625C143.187 84.839 143.649 84.9773 144.179 84.9773C144.527 84.9773 144.844 84.9167 145.128 84.7955C145.412 84.6742 145.652 84.5 145.849 84.2727C146.046 84.0455 146.187 83.7727 146.27 83.4545H147.611C147.535 83.9697 147.348 84.4337 147.048 84.8466C146.753 85.2557 146.361 85.5814 145.872 85.8239C145.387 86.0625 144.823 86.1818 144.179 86.1818ZM153.366 77.2727V78.4091H148.844V77.2727H153.366ZM150.162 75.1818H151.503V83.5C151.503 83.8788 151.558 84.1629 151.668 84.3523C151.781 84.5379 151.925 84.6629 152.099 84.7273C152.277 84.7879 152.465 84.8182 152.662 84.8182C152.81 84.8182 152.931 84.8106 153.026 84.7955C153.12 84.7765 153.196 84.7614 153.253 84.75L153.526 85.9545C153.435 85.9886 153.308 86.0227 153.145 86.0568C152.982 86.0947 152.776 86.1136 152.526 86.1136C152.147 86.1136 151.776 86.0322 151.412 85.8693C151.052 85.7064 150.753 85.4583 150.514 85.125C150.279 84.7917 150.162 84.3712 150.162 83.8636V75.1818Z" fill="white" fill-opacity="0.95"/>
</svg>
