<svg width="245" height="112" viewBox="0 0 245 112" fill="none" xmlns="http://www.w3.org/2000/svg">
<mask id="path-1-inside-1_1267_50650" fill="white">
<path d="M0 0H245V112H0V0Z"/>
</mask>
<path d="M0 0H245V112H0V0Z" fill="#1A1A1A"/>
<path d="M245 112V113H246V112H245ZM244 0V112H246V0H244ZM245 111H0V113H245V111Z" fill="#707070" mask="url(#path-1-inside-1_1267_50650)"/>
<path d="M31.4091 62V50.3636H38.4318V51.6136H32.8182V55.5455H38.0682V56.7955H32.8182V60.75H38.5227V62H31.4091ZM40.7898 62V53.2727H42.0852V54.5909H42.1761C42.3352 54.1591 42.6231 53.8087 43.0398 53.5398C43.4564 53.2708 43.9261 53.1364 44.4489 53.1364C44.5473 53.1364 44.6705 53.1383 44.8182 53.142C44.9659 53.1458 45.0777 53.1515 45.1534 53.1591V54.5227C45.108 54.5114 45.0038 54.4943 44.8409 54.4716C44.6818 54.4451 44.5133 54.4318 44.3352 54.4318C43.911 54.4318 43.5322 54.5208 43.1989 54.6989C42.8693 54.8731 42.608 55.1155 42.4148 55.4261C42.2254 55.733 42.1307 56.0833 42.1307 56.4773V62H40.7898ZM46.7429 62V53.2727H48.0384V54.5909H48.1293C48.2884 54.1591 48.5762 53.8087 48.9929 53.5398C49.4096 53.2708 49.8793 53.1364 50.402 53.1364C50.5005 53.1364 50.6236 53.1383 50.7713 53.142C50.919 53.1458 51.0308 53.1515 51.1065 53.1591V54.5227C51.0611 54.5114 50.9569 54.4943 50.794 54.4716C50.6349 54.4451 50.4664 54.4318 50.2884 54.4318C49.8641 54.4318 49.4853 54.5208 49.152 54.6989C48.8224 54.8731 48.5611 55.1155 48.3679 55.4261C48.1785 55.733 48.0838 56.0833 48.0838 56.4773V62H46.7429ZM55.9759 62.1818C55.188 62.1818 54.4967 61.9943 53.902 61.6193C53.3111 61.2443 52.849 60.7197 52.5156 60.0455C52.1861 59.3712 52.0213 58.5833 52.0213 57.6818C52.0213 56.7727 52.1861 55.9792 52.5156 55.3011C52.849 54.6231 53.3111 54.0966 53.902 53.7216C54.4967 53.3466 55.188 53.1591 55.9759 53.1591C56.7637 53.1591 57.4531 53.3466 58.044 53.7216C58.6387 54.0966 59.1009 54.6231 59.4304 55.3011C59.7637 55.9792 59.9304 56.7727 59.9304 57.6818C59.9304 58.5833 59.7637 59.3712 59.4304 60.0455C59.1009 60.7197 58.6387 61.2443 58.044 61.6193C57.4531 61.9943 56.7637 62.1818 55.9759 62.1818ZM55.9759 60.9773C56.5743 60.9773 57.0668 60.8239 57.4531 60.517C57.8395 60.2102 58.1255 59.8068 58.3111 59.3068C58.4967 58.8068 58.5895 58.2652 58.5895 57.6818C58.5895 57.0985 58.4967 56.5549 58.3111 56.0511C58.1255 55.5473 57.8395 55.1402 57.4531 54.8295C57.0668 54.5189 56.5743 54.3636 55.9759 54.3636C55.3774 54.3636 54.8849 54.5189 54.4986 54.8295C54.1122 55.1402 53.8262 55.5473 53.6406 56.0511C53.455 56.5549 53.3622 57.0985 53.3622 57.6818C53.3622 58.2652 53.455 58.8068 53.6406 59.3068C53.8262 59.8068 54.1122 60.2102 54.4986 60.517C54.8849 60.8239 55.3774 60.9773 55.9759 60.9773ZM61.9773 62V53.2727H63.2727V54.5909H63.3636C63.5227 54.1591 63.8106 53.8087 64.2273 53.5398C64.6439 53.2708 65.1136 53.1364 65.6364 53.1364C65.7348 53.1364 65.858 53.1383 66.0057 53.142C66.1534 53.1458 66.2652 53.1515 66.3409 53.1591V54.5227C66.2955 54.5114 66.1913 54.4943 66.0284 54.4716C65.8693 54.4451 65.7008 54.4318 65.5227 54.4318C65.0985 54.4318 64.7197 54.5208 64.3864 54.6989C64.0568 54.8731 63.7955 55.1155 63.6023 55.4261C63.4129 55.733 63.3182 56.0833 63.3182 56.4773V62H61.9773Z" fill="white" fill-opacity="0.95"/>
</svg>
