<svg width="200" height="112" viewBox="0 0 200 112" fill="none" xmlns="http://www.w3.org/2000/svg">
<mask id="path-1-inside-1_1267_50667" fill="white">
<path d="M0 0H200V112H0V0Z"/>
</mask>
<path d="M0 0H200V112H0V0Z" fill="#1A1A1A"/>
<path d="M199 0V112H201V0H199Z" fill="#707070" mask="url(#path-1-inside-1_1267_50667)"/>
<path d="M30.7727 51.6136V50.3636H39.5V51.6136H35.8409V62H34.4318V51.6136H30.7727ZM43.8864 62.1818C43.0455 62.1818 42.3201 61.9962 41.7102 61.625C41.1042 61.25 40.6364 60.7273 40.3068 60.0568C39.9811 59.3826 39.8182 58.5985 39.8182 57.7045C39.8182 56.8106 39.9811 56.0227 40.3068 55.3409C40.6364 54.6553 41.0947 54.1212 41.6818 53.7386C42.2727 53.3523 42.9621 53.1591 43.75 53.1591C44.2045 53.1591 44.6534 53.2348 45.0966 53.3864C45.5398 53.5379 45.9432 53.7841 46.3068 54.125C46.6705 54.4621 46.9602 54.9091 47.1761 55.4659C47.392 56.0227 47.5 56.7083 47.5 57.5227V58.0909H40.7727V56.9318H46.1364C46.1364 56.4394 46.0379 56 45.8409 55.6136C45.6477 55.2273 45.3712 54.9223 45.0114 54.6989C44.6553 54.4754 44.2348 54.3636 43.75 54.3636C43.2159 54.3636 42.7538 54.4962 42.3636 54.7614C41.9773 55.0227 41.6799 55.3636 41.4716 55.7841C41.2633 56.2045 41.1591 56.6553 41.1591 57.1364V57.9091C41.1591 58.5682 41.2727 59.1269 41.5 59.5852C41.7311 60.0398 42.0511 60.3864 42.4602 60.625C42.8693 60.8598 43.3447 60.9773 43.8864 60.9773C44.2386 60.9773 44.5568 60.928 44.8409 60.8295C45.1288 60.7273 45.3769 60.5758 45.5852 60.375C45.7936 60.1705 45.9545 59.9167 46.0682 59.6136L47.3636 59.9773C47.2273 60.4167 46.9981 60.803 46.6761 61.1364C46.3542 61.4659 45.9564 61.7235 45.483 61.9091C45.0095 62.0909 44.4773 62.1818 43.8864 62.1818ZM50.3054 53.2727L52.3963 56.8409L54.4872 53.2727H56.0327L53.2145 57.6364L56.0327 62H54.4872L52.3963 58.6136L50.3054 62H48.7599L51.5327 57.6364L48.7599 53.2727H50.3054ZM61.7415 53.2727V54.4091H57.2188V53.2727H61.7415ZM58.5369 51.1818H59.8778V59.5C59.8778 59.8788 59.9328 60.1629 60.0426 60.3523C60.1563 60.5379 60.3002 60.6629 60.4744 60.7273C60.6525 60.7879 60.84 60.8182 61.0369 60.8182C61.1847 60.8182 61.3059 60.8106 61.4006 60.7955C61.4953 60.7765 61.571 60.7614 61.6278 60.75L61.9006 61.9545C61.8097 61.9886 61.6828 62.0227 61.5199 62.0568C61.357 62.0947 61.1506 62.1136 60.9006 62.1136C60.5218 62.1136 60.1506 62.0322 59.7869 61.8693C59.4271 61.7064 59.1278 61.4583 58.8892 61.125C58.6544 60.7917 58.5369 60.3712 58.5369 59.8636V51.1818ZM72.1449 53.2727V54.4091H67.4403V53.2727H72.1449ZM68.8494 62V52.0682C68.8494 51.5682 68.9669 51.1515 69.2017 50.8182C69.4366 50.4848 69.7415 50.2348 70.1165 50.0682C70.4915 49.9015 70.8873 49.8182 71.304 49.8182C71.6335 49.8182 71.9025 49.8447 72.1108 49.8977C72.3191 49.9508 72.4744 50 72.5767 50.0455L72.1903 51.2045C72.1222 51.1818 72.0275 51.1534 71.9062 51.1193C71.7888 51.0852 71.6335 51.0682 71.4403 51.0682C70.9972 51.0682 70.6771 51.1799 70.4801 51.4034C70.2869 51.6269 70.1903 51.9545 70.1903 52.3864V62H68.8494ZM74.0241 62V53.2727H75.3651V62H74.0241ZM74.706 51.8182C74.4446 51.8182 74.2192 51.7292 74.0298 51.5511C73.8442 51.3731 73.7514 51.1591 73.7514 50.9091C73.7514 50.6591 73.8442 50.4451 74.0298 50.267C74.2192 50.089 74.4446 50 74.706 50C74.9673 50 75.1908 50.089 75.3764 50.267C75.5658 50.4451 75.6605 50.6591 75.6605 50.9091C75.6605 51.1591 75.5658 51.3731 75.3764 51.5511C75.1908 51.7292 74.9673 51.8182 74.706 51.8182ZM81.4801 62.1818C80.6392 62.1818 79.9138 61.9962 79.304 61.625C78.6979 61.25 78.2301 60.7273 77.9006 60.0568C77.5748 59.3826 77.4119 58.5985 77.4119 57.7045C77.4119 56.8106 77.5748 56.0227 77.9006 55.3409C78.2301 54.6553 78.6884 54.1212 79.2756 53.7386C79.8665 53.3523 80.5559 53.1591 81.3438 53.1591C81.7983 53.1591 82.2472 53.2348 82.6903 53.3864C83.1335 53.5379 83.5369 53.7841 83.9006 54.125C84.2642 54.4621 84.554 54.9091 84.7699 55.4659C84.9858 56.0227 85.0938 56.7083 85.0938 57.5227V58.0909H78.3665V56.9318H83.7301C83.7301 56.4394 83.6316 56 83.4347 55.6136C83.2415 55.2273 82.965 54.9223 82.6051 54.6989C82.2491 54.4754 81.8286 54.3636 81.3438 54.3636C80.8097 54.3636 80.3475 54.4962 79.9574 54.7614C79.571 55.0227 79.2737 55.3636 79.0653 55.7841C78.857 56.2045 78.7528 56.6553 78.7528 57.1364V57.9091C78.7528 58.5682 78.8665 59.1269 79.0938 59.5852C79.3248 60.0398 79.6449 60.3864 80.054 60.625C80.4631 60.8598 80.9384 60.9773 81.4801 60.9773C81.8324 60.9773 82.1506 60.928 82.4347 60.8295C82.7225 60.7273 82.9706 60.5758 83.179 60.375C83.3873 60.1705 83.5483 59.9167 83.6619 59.6136L84.9574 59.9773C84.821 60.4167 84.5919 60.803 84.2699 61.1364C83.9479 61.4659 83.5502 61.7235 83.0767 61.9091C82.6032 62.0909 82.071 62.1818 81.4801 62.1818ZM88.4744 50.3636V62H87.1335V50.3636H88.4744ZM94.2259 62.1818C93.4986 62.1818 92.8565 61.9981 92.2997 61.6307C91.7429 61.2595 91.3073 60.7367 90.9929 60.0625C90.6785 59.3845 90.5213 58.5833 90.5213 57.6591C90.5213 56.7424 90.6785 55.947 90.9929 55.2727C91.3073 54.5985 91.7448 54.0777 92.3054 53.7102C92.866 53.3428 93.5137 53.1591 94.2486 53.1591C94.8168 53.1591 95.2656 53.2538 95.5952 53.4432C95.9285 53.6288 96.1823 53.8409 96.3565 54.0795C96.5346 54.3144 96.6728 54.5076 96.7713 54.6591H96.8849V50.3636H98.2259V62H96.9304V60.6591H96.7713C96.6728 60.8182 96.5327 61.0189 96.3509 61.2614C96.169 61.5 95.9096 61.714 95.5724 61.9034C95.2353 62.089 94.7865 62.1818 94.2259 62.1818ZM94.4077 60.9773C94.9455 60.9773 95.4001 60.8371 95.7713 60.5568C96.1425 60.2727 96.4247 59.8807 96.6179 59.3807C96.8111 58.8769 96.9077 58.2955 96.9077 57.6364C96.9077 56.9848 96.813 56.4148 96.6236 55.9261C96.4342 55.4337 96.1539 55.0511 95.7827 54.7784C95.4115 54.5019 94.9531 54.3636 94.4077 54.3636C93.8395 54.3636 93.366 54.5095 92.9872 54.8011C92.6122 55.089 92.33 55.4811 92.1406 55.9773C91.955 56.4697 91.8622 57.0227 91.8622 57.6364C91.8622 58.2576 91.9569 58.822 92.1463 59.3295C92.3395 59.8333 92.6236 60.2348 92.9986 60.5341C93.3774 60.8295 93.8471 60.9773 94.4077 60.9773Z" fill="white" fill-opacity="0.95"/>
</svg>
