<svg width="172" height="256" viewBox="0 0 172 256" fill="none" xmlns="http://www.w3.org/2000/svg">
<mask id="path-1-inside-1_1267_50320" fill="white">
<path d="M0 0H172V256H0V0Z"/>
</mask>
<path d="M0 0H172V256H0V0Z" fill="#1A1A1A"/>
<path d="M172 256V257H173V256H172ZM171 0V256H173V0H171ZM172 255H0V257H172V255Z" fill="#707070" mask="url(#path-1-inside-1_1267_50320)"/>
<path d="M31.4091 134V122.364H32.8182V127.545H39.0227V122.364H40.4318V134H39.0227V128.795H32.8182V134H31.4091ZM46.9801 134.159C46.2301 134.159 45.5616 134.03 44.9744 133.773C44.3911 133.515 43.9271 133.157 43.5824 132.699C43.2415 132.237 43.0559 131.701 43.0256 131.091H44.4574C44.4877 131.466 44.6165 131.79 44.8438 132.062C45.071 132.331 45.3684 132.54 45.7358 132.688C46.1032 132.835 46.5104 132.909 46.9574 132.909C47.4574 132.909 47.9006 132.822 48.2869 132.648C48.6733 132.473 48.9763 132.231 49.196 131.92C49.4157 131.61 49.5256 131.25 49.5256 130.841C49.5256 130.413 49.4195 130.036 49.2074 129.71C48.9953 129.381 48.6847 129.123 48.2756 128.938C47.8665 128.752 47.3665 128.659 46.7756 128.659H45.8438V127.409H46.7756C47.2377 127.409 47.643 127.326 47.9915 127.159C48.3438 126.992 48.6184 126.758 48.8153 126.455C49.0161 126.152 49.1165 125.795 49.1165 125.386C49.1165 124.992 49.0294 124.65 48.8551 124.358C48.6809 124.066 48.4347 123.839 48.1165 123.676C47.8021 123.513 47.4309 123.432 47.0028 123.432C46.6013 123.432 46.2225 123.506 45.8665 123.653C45.5142 123.797 45.2263 124.008 45.0028 124.284C44.7794 124.557 44.6581 124.886 44.6392 125.273H43.2756C43.2983 124.663 43.482 124.129 43.8267 123.67C44.1714 123.208 44.6222 122.848 45.179 122.591C45.7396 122.333 46.3551 122.205 47.0256 122.205C47.7453 122.205 48.3627 122.35 48.8778 122.642C49.393 122.93 49.7888 123.311 50.0653 123.784C50.3419 124.258 50.4801 124.769 50.4801 125.318C50.4801 125.973 50.3078 126.532 49.9631 126.994C49.6222 127.456 49.1581 127.777 48.571 127.955V128.045C49.3059 128.167 49.8797 128.479 50.2926 128.983C50.7055 129.483 50.9119 130.102 50.9119 130.841C50.9119 131.473 50.7396 132.042 50.3949 132.545C50.054 133.045 49.5881 133.439 48.9972 133.727C48.4063 134.015 47.7339 134.159 46.9801 134.159ZM53.2358 134V132.977L57.0767 128.773C57.5275 128.28 57.8987 127.852 58.1903 127.489C58.482 127.121 58.6979 126.777 58.8381 126.455C58.982 126.129 59.054 125.788 59.054 125.432C59.054 125.023 58.9555 124.669 58.7585 124.369C58.5653 124.07 58.3002 123.839 57.9631 123.676C57.6259 123.513 57.2472 123.432 56.8267 123.432C56.3797 123.432 55.9896 123.525 55.6562 123.71C55.3267 123.892 55.071 124.148 54.8892 124.477C54.7112 124.807 54.6222 125.193 54.6222 125.636H53.2812C53.2812 124.955 53.4384 124.356 53.7528 123.841C54.0672 123.326 54.4953 122.924 55.0369 122.636C55.5824 122.348 56.1941 122.205 56.8722 122.205C57.554 122.205 58.1581 122.348 58.6847 122.636C59.2112 122.924 59.6241 123.312 59.9233 123.801C60.2225 124.29 60.3722 124.833 60.3722 125.432C60.3722 125.86 60.2945 126.278 60.1392 126.688C59.9877 127.093 59.7225 127.545 59.3438 128.045C58.9688 128.542 58.4479 129.148 57.7812 129.864L55.1676 132.659V132.75H60.5767V134H53.2358ZM62.946 137.273V125.273H64.2415V126.659H64.4006C64.4991 126.508 64.6354 126.314 64.8097 126.08C64.9877 125.841 65.2415 125.629 65.571 125.443C65.9044 125.254 66.3551 125.159 66.9233 125.159C67.6581 125.159 68.3059 125.343 68.8665 125.71C69.4271 126.078 69.8646 126.598 70.179 127.273C70.4934 127.947 70.6506 128.742 70.6506 129.659C70.6506 130.583 70.4934 131.384 70.179 132.062C69.8646 132.737 69.429 133.259 68.8722 133.631C68.3153 133.998 67.6733 134.182 66.946 134.182C66.3854 134.182 65.9366 134.089 65.5994 133.903C65.2623 133.714 65.0028 133.5 64.821 133.261C64.6392 133.019 64.4991 132.818 64.4006 132.659H64.2869V137.273H62.946ZM64.2642 129.636C64.2642 130.295 64.3608 130.877 64.554 131.381C64.7472 131.881 65.0294 132.273 65.4006 132.557C65.7718 132.837 66.2263 132.977 66.7642 132.977C67.3248 132.977 67.7926 132.83 68.1676 132.534C68.5464 132.235 68.8305 131.833 69.0199 131.33C69.2131 130.822 69.3097 130.258 69.3097 129.636C69.3097 129.023 69.215 128.47 69.0256 127.977C68.84 127.481 68.5578 127.089 68.179 126.801C67.804 126.509 67.3324 126.364 66.7642 126.364C66.2188 126.364 65.7604 126.502 65.3892 126.778C65.018 127.051 64.7377 127.434 64.5483 127.926C64.3589 128.415 64.2642 128.985 64.2642 129.636ZM73.3366 125.273L75.4276 128.841L77.5185 125.273H79.0639L76.2457 129.636L79.0639 134H77.5185L75.4276 130.614L73.3366 134H71.7912L74.5639 129.636L71.7912 125.273H73.3366Z" fill="white" fill-opacity="0.95"/>
</svg>
