<svg width="245" height="256" viewBox="0 0 245 256" fill="none" xmlns="http://www.w3.org/2000/svg">
<mask id="path-1-inside-1_1267_50319" fill="white">
<path d="M0 0H245V256H0V0Z"/>
</mask>
<path d="M0 0H245V256H0V0Z" fill="#1A1A1A"/>
<path d="M245 256V257H246V256H245ZM244 0V256H246V0H244ZM245 255H0V257H245V255Z" fill="#707070" mask="url(#path-1-inside-1_1267_50319)"/>
<path d="M31.4091 134V122.364H38.3864V123.614H32.8182V127.545H37.8636V128.795H32.8182V134H31.4091ZM43.5227 134.182C42.7348 134.182 42.0436 133.994 41.4489 133.619C40.858 133.244 40.3958 132.72 40.0625 132.045C39.733 131.371 39.5682 130.583 39.5682 129.682C39.5682 128.773 39.733 127.979 40.0625 127.301C40.3958 126.623 40.858 126.097 41.4489 125.722C42.0436 125.347 42.7348 125.159 43.5227 125.159C44.3106 125.159 45 125.347 45.5909 125.722C46.1856 126.097 46.6477 126.623 46.9773 127.301C47.3106 127.979 47.4773 128.773 47.4773 129.682C47.4773 130.583 47.3106 131.371 46.9773 132.045C46.6477 132.72 46.1856 133.244 45.5909 133.619C45 133.994 44.3106 134.182 43.5227 134.182ZM43.5227 132.977C44.1212 132.977 44.6136 132.824 45 132.517C45.3864 132.21 45.6723 131.807 45.858 131.307C46.0436 130.807 46.1364 130.265 46.1364 129.682C46.1364 129.098 46.0436 128.555 45.858 128.051C45.6723 127.547 45.3864 127.14 45 126.83C44.6136 126.519 44.1212 126.364 43.5227 126.364C42.9242 126.364 42.4318 126.519 42.0455 126.83C41.6591 127.14 41.3731 127.547 41.1875 128.051C41.0019 128.555 40.9091 129.098 40.9091 129.682C40.9091 130.265 41.0019 130.807 41.1875 131.307C41.3731 131.807 41.6591 132.21 42.0455 132.517C42.4318 132.824 42.9242 132.977 43.5227 132.977ZM53.0696 134.182C52.2514 134.182 51.5469 133.989 50.956 133.602C50.3651 133.216 49.9105 132.684 49.5923 132.006C49.2741 131.328 49.1151 130.553 49.1151 129.682C49.1151 128.795 49.2779 128.013 49.6037 127.335C49.9332 126.653 50.3916 126.121 50.9787 125.739C51.5696 125.352 52.259 125.159 53.0469 125.159C53.6605 125.159 54.2135 125.273 54.706 125.5C55.1984 125.727 55.6018 126.045 55.9162 126.455C56.2306 126.864 56.4257 127.341 56.5014 127.886H55.1605C55.0582 127.489 54.831 127.136 54.4787 126.83C54.1302 126.519 53.6605 126.364 53.0696 126.364C52.5469 126.364 52.0885 126.5 51.6946 126.773C51.3045 127.042 50.9995 127.422 50.7798 127.915C50.5639 128.403 50.456 128.977 50.456 129.636C50.456 130.311 50.562 130.898 50.7741 131.398C50.9901 131.898 51.2931 132.286 51.6832 132.562C52.0772 132.839 52.5393 132.977 53.0696 132.977C53.4181 132.977 53.7344 132.917 54.0185 132.795C54.3026 132.674 54.5431 132.5 54.7401 132.273C54.937 132.045 55.0772 131.773 55.1605 131.455H56.5014C56.4257 131.97 56.2382 132.434 55.9389 132.847C55.6435 133.256 55.2514 133.581 54.7628 133.824C54.2779 134.062 53.7135 134.182 53.0696 134.182ZM63.9616 130.432V125.273H65.3026V134H63.9616V132.523H63.8707C63.6662 132.966 63.348 133.343 62.9162 133.653C62.4844 133.96 61.9389 134.114 61.2798 134.114C60.7344 134.114 60.2495 133.994 59.8253 133.756C59.401 133.513 59.0677 133.15 58.8253 132.665C58.5829 132.176 58.4616 131.561 58.4616 130.818V125.273H59.8026V130.727C59.8026 131.364 59.9806 131.871 60.3366 132.25C60.6965 132.629 61.1548 132.818 61.7116 132.818C62.045 132.818 62.384 132.733 62.7287 132.562C63.0772 132.392 63.3688 132.131 63.6037 131.778C63.8423 131.426 63.9616 130.977 63.9616 130.432ZM73.9403 127.227L72.7358 127.568C72.66 127.367 72.5483 127.172 72.4006 126.983C72.2566 126.79 72.0597 126.631 71.8097 126.506C71.5597 126.381 71.2396 126.318 70.8494 126.318C70.3153 126.318 69.8703 126.441 69.5142 126.688C69.1619 126.93 68.9858 127.239 68.9858 127.614C68.9858 127.947 69.107 128.21 69.3494 128.403C69.5919 128.597 69.9706 128.758 70.4858 128.886L71.7812 129.205C72.5616 129.394 73.143 129.684 73.5256 130.074C73.9081 130.46 74.0994 130.958 74.0994 131.568C74.0994 132.068 73.9555 132.515 73.6676 132.909C73.3835 133.303 72.9858 133.614 72.4744 133.841C71.9631 134.068 71.3684 134.182 70.6903 134.182C69.8002 134.182 69.0634 133.989 68.4801 133.602C67.8968 133.216 67.5275 132.652 67.3722 131.909L68.6449 131.591C68.7661 132.061 68.9953 132.413 69.3324 132.648C69.6733 132.883 70.1184 133 70.6676 133C71.2926 133 71.7888 132.867 72.1562 132.602C72.5275 132.333 72.7131 132.011 72.7131 131.636C72.7131 131.333 72.607 131.08 72.3949 130.875C72.1828 130.667 71.857 130.511 71.4176 130.409L69.9631 130.068C69.1638 129.879 68.5767 129.585 68.2017 129.188C67.8305 128.786 67.6449 128.284 67.6449 127.682C67.6449 127.189 67.7831 126.754 68.0597 126.375C68.34 125.996 68.7206 125.699 69.2017 125.483C69.6866 125.267 70.2358 125.159 70.8494 125.159C71.7131 125.159 72.3911 125.348 72.8835 125.727C73.3797 126.106 73.732 126.606 73.9403 127.227ZM79.777 134.182C78.9361 134.182 78.2107 133.996 77.6009 133.625C76.9948 133.25 76.527 132.727 76.1974 132.057C75.8717 131.383 75.7088 130.598 75.7088 129.705C75.7088 128.811 75.8717 128.023 76.1974 127.341C76.527 126.655 76.9853 126.121 77.5724 125.739C78.1634 125.352 78.8527 125.159 79.6406 125.159C80.0952 125.159 80.544 125.235 80.9872 125.386C81.4304 125.538 81.8338 125.784 82.1974 126.125C82.5611 126.462 82.8509 126.909 83.0668 127.466C83.2827 128.023 83.3906 128.708 83.3906 129.523V130.091H76.6634V128.932H82.027C82.027 128.439 81.9285 128 81.7315 127.614C81.5384 127.227 81.2618 126.922 80.902 126.699C80.5459 126.475 80.1255 126.364 79.6406 126.364C79.1065 126.364 78.6444 126.496 78.2543 126.761C77.8679 127.023 77.5705 127.364 77.3622 127.784C77.1539 128.205 77.0497 128.655 77.0497 129.136V129.909C77.0497 130.568 77.1634 131.127 77.3906 131.585C77.6217 132.04 77.9418 132.386 78.3509 132.625C78.7599 132.86 79.2353 132.977 79.777 132.977C80.1293 132.977 80.4474 132.928 80.7315 132.83C81.0194 132.727 81.2675 132.576 81.4759 132.375C81.6842 132.17 81.8452 131.917 81.9588 131.614L83.2543 131.977C83.1179 132.417 82.8887 132.803 82.5668 133.136C82.2448 133.466 81.8471 133.723 81.3736 133.909C80.9001 134.091 80.3679 134.182 79.777 134.182ZM88.7259 134.182C87.9986 134.182 87.3565 133.998 86.7997 133.631C86.2429 133.259 85.8073 132.737 85.4929 132.062C85.1785 131.384 85.0213 130.583 85.0213 129.659C85.0213 128.742 85.1785 127.947 85.4929 127.273C85.8073 126.598 86.2448 126.078 86.8054 125.71C87.366 125.343 88.0137 125.159 88.7486 125.159C89.3168 125.159 89.7656 125.254 90.0952 125.443C90.4285 125.629 90.6823 125.841 90.8565 126.08C91.0346 126.314 91.1728 126.508 91.2713 126.659H91.3849V122.364H92.7259V134H91.4304V132.659H91.2713C91.1728 132.818 91.0327 133.019 90.8509 133.261C90.669 133.5 90.4096 133.714 90.0724 133.903C89.7353 134.089 89.2865 134.182 88.7259 134.182ZM88.9077 132.977C89.4455 132.977 89.9001 132.837 90.2713 132.557C90.6425 132.273 90.9247 131.881 91.1179 131.381C91.3111 130.877 91.4077 130.295 91.4077 129.636C91.4077 128.985 91.313 128.415 91.1236 127.926C90.9342 127.434 90.6539 127.051 90.2827 126.778C89.9115 126.502 89.4531 126.364 88.9077 126.364C88.3395 126.364 87.866 126.509 87.4872 126.801C87.1122 127.089 86.83 127.481 86.6406 127.977C86.455 128.47 86.3622 129.023 86.3622 129.636C86.3622 130.258 86.4569 130.822 86.6463 131.33C86.8395 131.833 87.1236 132.235 87.4986 132.534C87.8774 132.83 88.3471 132.977 88.9077 132.977Z" fill="white" fill-opacity="0.95"/>
</svg>
