<svg width="245" height="112" viewBox="0 0 245 112" fill="none" xmlns="http://www.w3.org/2000/svg">
<mask id="path-1-inside-1_1267_49646" fill="white">
<path d="M0 0H245V112H0V0Z"/>
</mask>
<path d="M0 0H245V112H0V0Z" fill="#1A1A1A"/>
<path d="M245 112V113H246V112H245ZM244 0V112H246V0H244ZM245 111H0V113H245V111Z" fill="#707070" mask="url(#path-1-inside-1_1267_49646)"/>
<path d="M35 62H31.4091V50.3636H35.1591C36.2879 50.3636 37.2538 50.5966 38.0568 51.0625C38.8598 51.5246 39.4754 52.1894 39.9034 53.0568C40.3314 53.9205 40.5455 54.9545 40.5455 56.1591C40.5455 57.3712 40.3295 58.4148 39.8977 59.2898C39.4659 60.161 38.8371 60.8314 38.0114 61.3011C37.1856 61.767 36.1818 62 35 62ZM32.8182 60.75H34.9091C35.8712 60.75 36.6686 60.5644 37.3011 60.1932C37.9337 59.822 38.4053 59.2936 38.7159 58.608C39.0265 57.9223 39.1818 57.1061 39.1818 56.1591C39.1818 55.2197 39.0284 54.411 38.7216 53.733C38.4148 53.0511 37.9564 52.5284 37.3466 52.1648C36.7367 51.7973 35.9773 51.6136 35.0682 51.6136H32.8182V60.75ZM46.3864 62.1818C45.5455 62.1818 44.8201 61.9962 44.2102 61.625C43.6042 61.25 43.1364 60.7273 42.8068 60.0568C42.4811 59.3826 42.3182 58.5985 42.3182 57.7045C42.3182 56.8106 42.4811 56.0227 42.8068 55.3409C43.1364 54.6553 43.5947 54.1212 44.1818 53.7386C44.7727 53.3523 45.4621 53.1591 46.25 53.1591C46.7045 53.1591 47.1534 53.2348 47.5966 53.3864C48.0398 53.5379 48.4432 53.7841 48.8068 54.125C49.1705 54.4621 49.4602 54.9091 49.6761 55.4659C49.892 56.0227 50 56.7083 50 57.5227V58.0909H43.2727V56.9318H48.6364C48.6364 56.4394 48.5379 56 48.3409 55.6136C48.1477 55.2273 47.8712 54.9223 47.5114 54.6989C47.1553 54.4754 46.7348 54.3636 46.25 54.3636C45.7159 54.3636 45.2538 54.4962 44.8636 54.7614C44.4773 55.0227 44.1799 55.3636 43.9716 55.7841C43.7633 56.2045 43.6591 56.6553 43.6591 57.1364V57.9091C43.6591 58.5682 43.7727 59.1269 44 59.5852C44.2311 60.0398 44.5511 60.3864 44.9602 60.625C45.3693 60.8598 45.8447 60.9773 46.3864 60.9773C46.7386 60.9773 47.0568 60.928 47.3409 60.8295C47.6288 60.7273 47.8769 60.5758 48.0852 60.375C48.2936 60.1705 48.4545 59.9167 48.5682 59.6136L49.8636 59.9773C49.7273 60.4167 49.4981 60.803 49.1761 61.1364C48.8542 61.4659 48.4564 61.7235 47.983 61.9091C47.5095 62.0909 46.9773 62.1818 46.3864 62.1818ZM55.9261 53.2727V54.4091H51.2216V53.2727H55.9261ZM52.6307 62V52.0682C52.6307 51.5682 52.7481 51.1515 52.983 50.8182C53.2178 50.4848 53.5227 50.2348 53.8977 50.0682C54.2727 49.9015 54.6686 49.8182 55.0852 49.8182C55.4148 49.8182 55.6837 49.8447 55.892 49.8977C56.1004 49.9508 56.2557 50 56.358 50.0455L55.9716 51.2045C55.9034 51.1818 55.8087 51.1534 55.6875 51.1193C55.5701 51.0852 55.4148 51.0682 55.2216 51.0682C54.7784 51.0682 54.4583 51.1799 54.2614 51.4034C54.0682 51.6269 53.9716 51.9545 53.9716 52.3864V62H52.6307ZM60.1236 62.2045C59.5705 62.2045 59.0687 62.1004 58.6179 61.892C58.1671 61.6799 57.8092 61.375 57.544 60.9773C57.2789 60.5758 57.1463 60.0909 57.1463 59.5227C57.1463 59.0227 57.2448 58.6174 57.4418 58.3068C57.6387 57.9924 57.902 57.7462 58.2315 57.5682C58.5611 57.3902 58.9247 57.2576 59.3224 57.1705C59.724 57.0795 60.1274 57.0076 60.5327 56.9545C61.063 56.8864 61.4929 56.8352 61.8224 56.8011C62.1558 56.7633 62.3982 56.7008 62.5497 56.6136C62.705 56.5265 62.7827 56.375 62.7827 56.1591V56.1136C62.7827 55.553 62.6293 55.1174 62.3224 54.8068C62.0194 54.4962 61.5592 54.3409 60.9418 54.3409C60.3016 54.3409 59.7997 54.4811 59.4361 54.7614C59.0724 55.0417 58.8168 55.3409 58.669 55.6591L57.3963 55.2045C57.6236 54.6742 57.9266 54.2614 58.3054 53.9659C58.688 53.6667 59.1046 53.4583 59.5554 53.3409C60.0099 53.2197 60.4569 53.1591 60.8963 53.1591C61.1766 53.1591 61.4986 53.1932 61.8622 53.2614C62.2296 53.3258 62.5838 53.4602 62.9247 53.6648C63.2694 53.8693 63.5554 54.178 63.7827 54.5909C64.0099 55.0038 64.1236 55.5568 64.1236 56.25V62H62.7827V60.8182H62.7145C62.6236 61.0076 62.4721 61.2102 62.2599 61.4261C62.0478 61.642 61.7656 61.8258 61.4134 61.9773C61.0611 62.1288 60.6312 62.2045 60.1236 62.2045ZM60.3281 61C60.8584 61 61.3054 60.8958 61.669 60.6875C62.0365 60.4792 62.313 60.2102 62.4986 59.8807C62.688 59.5511 62.7827 59.2045 62.7827 58.8409V57.6136C62.7259 57.6818 62.6009 57.7443 62.4077 57.8011C62.2183 57.8542 61.9986 57.9015 61.7486 57.9432C61.5024 57.9811 61.2618 58.0152 61.027 58.0455C60.7959 58.072 60.6084 58.0947 60.4645 58.1136C60.116 58.1591 59.7902 58.233 59.4872 58.3352C59.188 58.4337 58.9455 58.5833 58.7599 58.7841C58.5781 58.9811 58.4872 59.25 58.4872 59.5909C58.4872 60.0568 58.6596 60.4091 59.0043 60.6477C59.3527 60.8826 59.794 61 60.3281 61ZM72.071 58.4318V53.2727H73.4119V62H72.071V60.5227H71.9801C71.7756 60.9659 71.4574 61.3428 71.0256 61.6534C70.5938 61.9602 70.0483 62.1136 69.3892 62.1136C68.8438 62.1136 68.3589 61.9943 67.9347 61.7557C67.5104 61.5133 67.1771 61.1496 66.9347 60.6648C66.6922 60.1761 66.571 59.5606 66.571 58.8182V53.2727H67.9119V58.7273C67.9119 59.3636 68.09 59.8712 68.446 60.25C68.8059 60.6288 69.2642 60.8182 69.821 60.8182C70.1544 60.8182 70.4934 60.733 70.8381 60.5625C71.1866 60.392 71.4782 60.1307 71.7131 59.7784C71.9517 59.4261 72.071 58.9773 72.071 58.4318ZM77.2088 50.3636V62H75.8679V50.3636H77.2088ZM83.4602 53.2727V54.4091H78.9375V53.2727H83.4602ZM80.2557 51.1818H81.5966V59.5C81.5966 59.8788 81.6515 60.1629 81.7614 60.3523C81.875 60.5379 82.0189 60.6629 82.1932 60.7273C82.3712 60.7879 82.5587 60.8182 82.7557 60.8182C82.9034 60.8182 83.0246 60.8106 83.1193 60.7955C83.214 60.7765 83.2898 60.7614 83.3466 60.75L83.6193 61.9545C83.5284 61.9886 83.4015 62.0227 83.2386 62.0568C83.0758 62.0947 82.8693 62.1136 82.6193 62.1136C82.2405 62.1136 81.8693 62.0322 81.5057 61.8693C81.1458 61.7064 80.8466 61.4583 80.608 61.125C80.3731 60.7917 80.2557 60.3712 80.2557 59.8636V51.1818ZM87.4773 60.4091L87.3864 61.0227C87.322 61.4545 87.2235 61.9167 87.0909 62.4091C86.9621 62.9015 86.8277 63.3655 86.6875 63.8011C86.5473 64.2367 86.4318 64.5833 86.3409 64.8409H85.3182C85.3674 64.5985 85.4318 64.2784 85.5114 63.8807C85.5909 63.483 85.6705 63.0379 85.75 62.5455C85.8333 62.0568 85.9015 61.5568 85.9545 61.0455L86.0227 60.4091H87.4773ZM94.6435 62V50.3636H98.5753C99.4844 50.3636 100.231 50.5189 100.814 50.8295C101.397 51.1364 101.829 51.5587 102.109 52.0966C102.39 52.6345 102.53 53.2462 102.53 53.9318C102.53 54.6174 102.39 55.2254 102.109 55.7557C101.829 56.286 101.399 56.7027 100.82 57.0057C100.24 57.3049 99.4995 57.4545 98.598 57.4545H95.4162V56.1818H98.5526C99.1738 56.1818 99.6738 56.0909 100.053 55.9091C100.435 55.7273 100.712 55.4697 100.882 55.1364C101.056 54.7992 101.143 54.3977 101.143 53.9318C101.143 53.4659 101.056 53.0587 100.882 52.7102C100.708 52.3617 100.429 52.0928 100.047 51.9034C99.6643 51.7102 99.1586 51.6136 98.5298 51.6136H96.0526V62H94.6435ZM100.121 56.7727L102.984 62H101.348L98.5298 56.7727H100.121ZM108.261 62.1818C107.42 62.1818 106.695 61.9962 106.085 61.625C105.479 61.25 105.011 60.7273 104.682 60.0568C104.356 59.3826 104.193 58.5985 104.193 57.7045C104.193 56.8106 104.356 56.0227 104.682 55.3409C105.011 54.6553 105.47 54.1212 106.057 53.7386C106.648 53.3523 107.337 53.1591 108.125 53.1591C108.58 53.1591 109.028 53.2348 109.472 53.3864C109.915 53.5379 110.318 53.7841 110.682 54.125C111.045 54.4621 111.335 54.9091 111.551 55.4659C111.767 56.0227 111.875 56.7083 111.875 57.5227V58.0909H105.148V56.9318H110.511C110.511 56.4394 110.413 56 110.216 55.6136C110.023 55.2273 109.746 54.9223 109.386 54.6989C109.03 54.4754 108.61 54.3636 108.125 54.3636C107.591 54.3636 107.129 54.4962 106.739 54.7614C106.352 55.0227 106.055 55.3636 105.847 55.7841C105.638 56.2045 105.534 56.6553 105.534 57.1364V57.9091C105.534 58.5682 105.648 59.1269 105.875 59.5852C106.106 60.0398 106.426 60.3864 106.835 60.625C107.244 60.8598 107.72 60.9773 108.261 60.9773C108.614 60.9773 108.932 60.928 109.216 60.8295C109.504 60.7273 109.752 60.5758 109.96 60.375C110.169 60.1705 110.33 59.9167 110.443 59.6136L111.739 59.9773C111.602 60.4167 111.373 60.803 111.051 61.1364C110.729 61.4659 110.331 61.7235 109.858 61.9091C109.384 62.0909 108.852 62.1818 108.261 62.1818ZM116.483 62.2045C115.93 62.2045 115.428 62.1004 114.977 61.892C114.527 61.6799 114.169 61.375 113.903 60.9773C113.638 60.5758 113.506 60.0909 113.506 59.5227C113.506 59.0227 113.604 58.6174 113.801 58.3068C113.998 57.9924 114.261 57.7462 114.591 57.5682C114.92 57.3902 115.284 57.2576 115.682 57.1705C116.083 57.0795 116.487 57.0076 116.892 56.9545C117.422 56.8864 117.852 56.8352 118.182 56.8011C118.515 56.7633 118.758 56.7008 118.909 56.6136C119.064 56.5265 119.142 56.375 119.142 56.1591V56.1136C119.142 55.553 118.989 55.1174 118.682 54.8068C118.379 54.4962 117.919 54.3409 117.301 54.3409C116.661 54.3409 116.159 54.4811 115.795 54.7614C115.432 55.0417 115.176 55.3409 115.028 55.6591L113.756 55.2045C113.983 54.6742 114.286 54.2614 114.665 53.9659C115.047 53.6667 115.464 53.4583 115.915 53.3409C116.369 53.2197 116.816 53.1591 117.256 53.1591C117.536 53.1591 117.858 53.1932 118.222 53.2614C118.589 53.3258 118.943 53.4602 119.284 53.6648C119.629 53.8693 119.915 54.178 120.142 54.5909C120.369 55.0038 120.483 55.5568 120.483 56.25V62H119.142V60.8182H119.074C118.983 61.0076 118.831 61.2102 118.619 61.4261C118.407 61.642 118.125 61.8258 117.773 61.9773C117.42 62.1288 116.991 62.2045 116.483 62.2045ZM116.688 61C117.218 61 117.665 60.8958 118.028 60.6875C118.396 60.4792 118.672 60.2102 118.858 59.8807C119.047 59.5511 119.142 59.2045 119.142 58.8409V57.6136C119.085 57.6818 118.96 57.7443 118.767 57.8011C118.578 57.8542 118.358 57.9015 118.108 57.9432C117.862 57.9811 117.621 58.0152 117.386 58.0455C117.155 58.072 116.968 58.0947 116.824 58.1136C116.475 58.1591 116.15 58.233 115.847 58.3352C115.547 58.4337 115.305 58.5833 115.119 58.7841C114.938 58.9811 114.847 59.25 114.847 59.5909C114.847 60.0568 115.019 60.4091 115.364 60.6477C115.712 60.8826 116.153 61 116.688 61ZM126.226 62.1818C125.499 62.1818 124.857 61.9981 124.3 61.6307C123.743 61.2595 123.307 60.7367 122.993 60.0625C122.679 59.3845 122.521 58.5833 122.521 57.6591C122.521 56.7424 122.679 55.947 122.993 55.2727C123.307 54.5985 123.745 54.0777 124.305 53.7102C124.866 53.3428 125.514 53.1591 126.249 53.1591C126.817 53.1591 127.266 53.2538 127.595 53.4432C127.929 53.6288 128.182 53.8409 128.357 54.0795C128.535 54.3144 128.673 54.5076 128.771 54.6591H128.885V50.3636H130.226V62H128.93V60.6591H128.771C128.673 60.8182 128.533 61.0189 128.351 61.2614C128.169 61.5 127.91 61.714 127.572 61.9034C127.235 62.089 126.786 62.1818 126.226 62.1818ZM126.408 60.9773C126.946 60.9773 127.4 60.8371 127.771 60.5568C128.143 60.2727 128.425 59.8807 128.618 59.3807C128.811 58.8769 128.908 58.2955 128.908 57.6364C128.908 56.9848 128.813 56.4148 128.624 55.9261C128.434 55.4337 128.154 55.0511 127.783 54.7784C127.411 54.5019 126.953 54.3636 126.408 54.3636C125.839 54.3636 125.366 54.5095 124.987 54.8011C124.612 55.089 124.33 55.4811 124.141 55.9773C123.955 56.4697 123.862 57.0227 123.862 57.6364C123.862 58.2576 123.957 58.822 124.146 59.3295C124.339 59.8333 124.624 60.2348 124.999 60.5341C125.377 60.8295 125.847 60.9773 126.408 60.9773ZM140.913 62.1818C140.125 62.1818 139.434 61.9943 138.839 61.6193C138.249 61.2443 137.786 60.7197 137.453 60.0455C137.124 59.3712 136.959 58.5833 136.959 57.6818C136.959 56.7727 137.124 55.9792 137.453 55.3011C137.786 54.6231 138.249 54.0966 138.839 53.7216C139.434 53.3466 140.125 53.1591 140.913 53.1591C141.701 53.1591 142.391 53.3466 142.982 53.7216C143.576 54.0966 144.038 54.6231 144.368 55.3011C144.701 55.9792 144.868 56.7727 144.868 57.6818C144.868 58.5833 144.701 59.3712 144.368 60.0455C144.038 60.7197 143.576 61.2443 142.982 61.6193C142.391 61.9943 141.701 62.1818 140.913 62.1818ZM140.913 60.9773C141.512 60.9773 142.004 60.8239 142.391 60.517C142.777 60.2102 143.063 59.8068 143.249 59.3068C143.434 58.8068 143.527 58.2652 143.527 57.6818C143.527 57.0985 143.434 56.5549 143.249 56.0511C143.063 55.5473 142.777 55.1402 142.391 54.8295C142.004 54.5189 141.512 54.3636 140.913 54.3636C140.315 54.3636 139.822 54.5189 139.436 54.8295C139.05 55.1402 138.764 55.5473 138.578 56.0511C138.393 56.5549 138.3 57.0985 138.3 57.6818C138.3 58.2652 138.393 58.8068 138.578 59.3068C138.764 59.8068 139.05 60.2102 139.436 60.517C139.822 60.8239 140.315 60.9773 140.913 60.9773ZM148.256 56.75V62H146.915V53.2727H148.21V54.6364H148.324C148.528 54.1932 148.839 53.8371 149.256 53.5682C149.672 53.2955 150.21 53.1591 150.869 53.1591C151.46 53.1591 151.977 53.2803 152.42 53.5227C152.864 53.7614 153.208 54.125 153.455 54.6136C153.701 55.0985 153.824 55.7121 153.824 56.4545V62H152.483V56.5455C152.483 55.8598 152.305 55.3258 151.949 54.9432C151.593 54.5568 151.104 54.3636 150.483 54.3636C150.055 54.3636 149.672 54.4564 149.335 54.642C149.002 54.8277 148.739 55.0985 148.545 55.4545C148.352 55.8106 148.256 56.2424 148.256 56.75ZM157.615 50.3636V62H156.274V50.3636H157.615ZM160.935 65.25C160.707 65.25 160.505 65.2311 160.327 65.1932C160.149 65.1591 160.026 65.125 159.957 65.0909L160.298 63.9091C160.787 64.0341 161.194 64.0303 161.52 63.8977C161.846 63.7689 162.128 63.3788 162.366 62.7273L162.616 62.0455L159.389 53.2727H160.844L163.253 60.2273H163.344L165.753 53.2727L167.219 53.2955L163.503 63.2727C163.336 63.7159 163.13 64.0833 162.884 64.375C162.637 64.6705 162.351 64.8902 162.026 65.0341C161.704 65.178 161.34 65.25 160.935 65.25Z" fill="white" fill-opacity="0.95"/>
</svg>
