<svg width="220" height="160" viewBox="0 0 220 160" fill="none" xmlns="http://www.w3.org/2000/svg">
<mask id="path-1-inside-1_1267_49642" fill="white">
<path d="M0 0H220V160H0V0Z"/>
</mask>
<path d="M0 0H220V160H0V0Z" fill="#1A1A1A"/>
<path d="M220 160V161H221V160H220ZM219 0V160H221V0H219ZM220 159H0V161H220V159Z" fill="white" fill-opacity="0.2" mask="url(#path-1-inside-1_1267_49642)"/>
<g clip-path="url(#clip0_1267_49642)">
<path d="M37.084 81.27C37.084 80.934 37.0093 80.668 36.86 80.472C36.692 80.2387 36.384 80.024 35.936 79.828C35.488 79.632 34.8113 79.408 33.906 79.156C32.6927 78.82 31.8573 78.4047 31.4 77.91C31.0267 77.5087 30.84 76.972 30.84 76.3C30.84 75.488 31.1947 74.844 31.904 74.368C32.5573 73.9293 33.4067 73.71 34.452 73.71C35.6187 73.71 36.566 73.9853 37.294 74.536C37.9473 75.0213 38.33 75.656 38.442 76.44H36.972C36.888 75.908 36.608 75.5113 36.132 75.25C35.712 75.0073 35.152 74.886 34.452 74.886C33.668 74.886 33.0893 75.0353 32.716 75.334C32.4173 75.5673 32.268 75.8707 32.268 76.244C32.268 76.4867 32.3053 76.6873 32.38 76.846C32.464 76.9953 32.604 77.1307 32.8 77.252C33.164 77.4947 33.8687 77.7607 34.914 78.05C36.37 78.4607 37.3547 78.9273 37.868 79.45C38.2973 79.8793 38.512 80.4673 38.512 81.214C38.512 82.1007 38.1247 82.8333 37.35 83.412C36.622 83.944 35.698 84.21 34.578 84.21C33.4113 84.21 32.4453 83.8973 31.68 83.272C31.0173 82.7307 30.6207 82.0307 30.49 81.172H31.96C32.0533 81.788 32.3473 82.2593 32.842 82.586C33.29 82.8847 33.8593 83.034 34.55 83.034C35.4087 83.034 36.0667 82.838 36.524 82.446C36.8973 82.1287 37.084 81.7367 37.084 81.27ZM45.0825 81.9H46.5385C46.3332 82.6373 45.9272 83.216 45.3205 83.636C44.7512 84.0187 44.0698 84.21 43.2765 84.21C42.1285 84.21 41.2325 83.846 40.5885 83.118C40.0005 82.4367 39.7065 81.5173 39.7065 80.36C39.7065 79.044 40.0798 78.0453 40.8265 77.364C41.4425 76.7947 42.2358 76.51 43.2065 76.51C44.3452 76.51 45.2038 76.8787 45.7825 77.616C46.3425 78.3253 46.6225 79.338 46.6225 80.654H41.0785C41.1345 81.5127 41.3958 82.152 41.8625 82.572C42.2452 82.908 42.7305 83.076 43.3185 83.076C43.7758 83.076 44.1725 82.95 44.5085 82.698C44.7885 82.4833 44.9798 82.2173 45.0825 81.9ZM43.2345 77.588C42.6372 77.588 42.1565 77.7747 41.7925 78.148C41.4472 78.4933 41.2278 78.974 41.1345 79.59H45.2505C45.2038 78.89 44.9705 78.3673 44.5505 78.022C44.2145 77.7327 43.7758 77.588 43.2345 77.588ZM49.5779 73.92V84H48.2339V73.92H49.5779ZM56.4985 81.9H57.9545C57.7492 82.6373 57.3432 83.216 56.7365 83.636C56.1672 84.0187 55.4858 84.21 54.6925 84.21C53.5445 84.21 52.6485 83.846 52.0045 83.118C51.4165 82.4367 51.1225 81.5173 51.1225 80.36C51.1225 79.044 51.4958 78.0453 52.2425 77.364C52.8585 76.7947 53.6518 76.51 54.6225 76.51C55.7612 76.51 56.6198 76.8787 57.1985 77.616C57.7585 78.3253 58.0385 79.338 58.0385 80.654H52.4945C52.5505 81.5127 52.8118 82.152 53.2785 82.572C53.6612 82.908 54.1465 83.076 54.7345 83.076C55.1918 83.076 55.5885 82.95 55.9245 82.698C56.2045 82.4833 56.3958 82.2173 56.4985 81.9ZM54.6505 77.588C54.0532 77.588 53.5725 77.7747 53.2085 78.148C52.8632 78.4933 52.6438 78.974 52.5505 79.59H56.6665C56.6198 78.89 56.3865 78.3673 55.9665 78.022C55.6305 77.7327 55.1918 77.588 54.6505 77.588ZM64.3959 81.662H65.8659C65.7539 82.446 65.3853 83.076 64.7599 83.552C64.1906 83.9907 63.4953 84.21 62.6739 84.21C61.6006 84.21 60.7466 83.8413 60.1119 83.104C59.5239 82.4227 59.2299 81.5267 59.2299 80.416C59.2299 79.128 59.5846 78.1293 60.2939 77.42C60.9006 76.8133 61.6893 76.51 62.6599 76.51C63.5559 76.51 64.2933 76.748 64.8719 77.224C65.3853 77.644 65.6979 78.1947 65.8099 78.876H64.3259C64.2326 78.484 64.0413 78.1807 63.7519 77.966C63.4719 77.7513 63.1173 77.644 62.6879 77.644C62.0253 77.644 61.5166 77.9053 61.1619 78.428C60.8259 78.9133 60.6579 79.59 60.6579 80.458C60.6579 81.3633 60.8819 82.0493 61.3299 82.516C61.6846 82.8893 62.1419 83.076 62.7019 83.076C63.1873 83.076 63.5839 82.936 63.8919 82.656C64.1626 82.4133 64.3306 82.082 64.3959 81.662ZM70.6499 82.922V84.07C70.3045 84.1633 69.9732 84.21 69.6559 84.21C68.9839 84.21 68.4799 84 68.1439 83.58C67.8545 83.2347 67.7099 82.7727 67.7099 82.194V77.868H66.6319V76.72H67.7099L67.7939 74.97H69.0539V76.72H70.6219V77.868H69.0539V82.222C69.0539 82.7633 69.3105 83.034 69.8239 83.034C70.0665 83.034 70.3419 82.9967 70.6499 82.922ZM76.8012 81.9H78.2572C78.0519 82.6373 77.6459 83.216 77.0392 83.636C76.4699 84.0187 75.7886 84.21 74.9952 84.21C73.8472 84.21 72.9512 83.846 72.3072 83.118C71.7192 82.4367 71.4252 81.5173 71.4252 80.36C71.4252 79.044 71.7986 78.0453 72.5452 77.364C73.1612 76.7947 73.9546 76.51 74.9252 76.51C76.0639 76.51 76.9226 76.8787 77.5012 77.616C78.0612 78.3253 78.3412 79.338 78.3412 80.654H72.7972C72.8532 81.5127 73.1146 82.152 73.5812 82.572C73.9639 82.908 74.4492 83.076 75.0372 83.076C75.4946 83.076 75.8912 82.95 76.2272 82.698C76.5072 82.4833 76.6986 82.2173 76.8012 81.9ZM74.9532 77.588C74.3559 77.588 73.8752 77.7747 73.5112 78.148C73.1659 78.4933 72.9466 78.974 72.8532 79.59H76.9692C76.9226 78.89 76.6892 78.3673 76.2692 78.022C75.9332 77.7327 75.4946 77.588 74.9532 77.588ZM86.5187 84H85.4127L85.1747 82.978C84.6147 83.7993 83.8073 84.21 82.7527 84.21C81.7353 84.21 80.9327 83.8413 80.3447 83.104C79.8033 82.4227 79.5327 81.522 79.5327 80.402C79.5327 79.0487 79.878 78.0313 80.5687 77.35C81.1473 76.79 81.9033 76.51 82.8367 76.51C83.8447 76.51 84.624 76.888 85.1747 77.644V73.92H86.5187V84ZM80.9327 80.43C80.9327 81.3353 81.1567 82.0213 81.6047 82.488C81.978 82.8707 82.4587 83.062 83.0467 83.062C83.7747 83.062 84.3393 82.7867 84.7407 82.236C85.0767 81.76 85.2447 81.1627 85.2447 80.444C85.2447 79.5013 85.0207 78.7827 84.5727 78.288C84.19 77.868 83.6813 77.658 83.0467 77.658C82.3373 77.658 81.8007 77.9147 81.4367 78.428C81.1007 78.8947 80.9327 79.562 80.9327 80.43ZM95.9292 82.922V84.07C95.5838 84.1633 95.2525 84.21 94.9352 84.21C94.2632 84.21 93.7592 84 93.4232 83.58C93.1338 83.2347 92.9892 82.7727 92.9892 82.194V77.868H91.9112V76.72H92.9892L93.0732 74.97H94.3332V76.72H95.9012V77.868H94.3332V82.222C94.3332 82.7633 94.5898 83.034 95.1032 83.034C95.3458 83.034 95.6212 82.9967 95.9292 82.922ZM102.081 81.9H103.537C103.331 82.6373 102.925 83.216 102.319 83.636C101.749 84.0187 101.068 84.21 100.275 84.21C99.1265 84.21 98.2305 83.846 97.5865 83.118C96.9985 82.4367 96.7045 81.5173 96.7045 80.36C96.7045 79.044 97.0779 78.0453 97.8245 77.364C98.4405 76.7947 99.2339 76.51 100.205 76.51C101.343 76.51 102.202 76.8787 102.781 77.616C103.341 78.3253 103.621 79.338 103.621 80.654H98.0765C98.1325 81.5127 98.3939 82.152 98.8605 82.572C99.2432 82.908 99.7285 83.076 100.317 83.076C100.774 83.076 101.171 82.95 101.507 82.698C101.787 82.4833 101.978 82.2173 102.081 81.9ZM100.233 77.588C99.6352 77.588 99.1545 77.7747 98.7905 78.148C98.4452 78.4933 98.2259 78.974 98.1325 79.59H102.249C102.202 78.89 101.969 78.3673 101.549 78.022C101.213 77.7327 100.774 77.588 100.233 77.588ZM111.098 76.72L108.662 80.122L111.518 84H109.88L107.906 81.186L105.974 84H104.392L107.108 80.22L104.56 76.72H106.17L107.906 79.17L109.558 76.72H111.098ZM115.89 82.922V84.07C115.545 84.1633 115.213 84.21 114.896 84.21C114.224 84.21 113.72 84 113.384 83.58C113.095 83.2347 112.95 82.7727 112.95 82.194V77.868H111.872V76.72H112.95L113.034 74.97H114.294V76.72H115.862V77.868H114.294V82.222C114.294 82.7633 114.551 83.034 115.064 83.034C115.307 83.034 115.582 82.9967 115.89 82.922Z" fill="white" fill-opacity="0.95"/>
</g>
<defs>
<clipPath id="clip0_1267_49642">
<rect width="220" height="52" fill="white" transform="translate(0 54)"/>
</clipPath>
</defs>
</svg>
