<svg width="220" height="112" viewBox="0 0 220 112" fill="none" xmlns="http://www.w3.org/2000/svg">
<mask id="path-1-inside-1_1267_49651" fill="white">
<path d="M0 0H220V112H0V0Z"/>
</mask>
<path d="M0 0H220V112H0V0Z" fill="#1A1A1A"/>
<path d="M220 112V113H221V112H220ZM219 0V112H221V0H219ZM220 111H0V113H220V111Z" fill="white" fill-opacity="0.2" mask="url(#path-1-inside-1_1267_49651)"/>
<path d="M44.3537 52.6464C44.26 52.5527 44.1328 52.5 44.0002 52.5C43.8676 52.5 43.7405 52.5527 43.6467 52.6464L38 58.2929L32.3535 52.6464C32.2593 52.555 32.1328 52.5043 32.0016 52.5053C31.8703 52.5063 31.7446 52.5589 31.6518 52.6518C31.559 52.7446 31.5064 52.8702 31.5054 53.0015C31.5044 53.1328 31.5551 53.2592 31.6465 53.3535L37.6465 59.3535C37.7403 59.4472 37.8674 59.4999 38 59.4999C38.1326 59.4999 38.2597 59.4472 38.3535 59.3535L44.3535 53.3535C44.4473 53.2597 44.5 53.1326 44.5 53C44.5001 52.8674 44.4475 52.7402 44.3537 52.6464Z" fill="white" fill-opacity="0.95"/>
</svg>
