<svg width="245" height="232" viewBox="0 0 245 232" fill="none" xmlns="http://www.w3.org/2000/svg">
<mask id="path-1-inside-1_1267_49619" fill="white">
<path d="M0 0H245V232H0V0Z"/>
</mask>
<path d="M0 0H245V232H0V0Z" fill="#1A1A1A"/>
<path d="M245 232V233H246V232H245ZM244 0V232H246V0H244ZM245 231H0V233H245V231Z" fill="#707070" mask="url(#path-1-inside-1_1267_49619)"/>
<path d="M35 122H31.4091V110.364H35.1591C36.2879 110.364 37.2538 110.597 38.0568 111.062C38.8598 111.525 39.4754 112.189 39.9034 113.057C40.3314 113.92 40.5455 114.955 40.5455 116.159C40.5455 117.371 40.3295 118.415 39.8977 119.29C39.4659 120.161 38.8371 120.831 38.0114 121.301C37.1856 121.767 36.1818 122 35 122ZM32.8182 120.75H34.9091C35.8712 120.75 36.6686 120.564 37.3011 120.193C37.9337 119.822 38.4053 119.294 38.7159 118.608C39.0265 117.922 39.1818 117.106 39.1818 116.159C39.1818 115.22 39.0284 114.411 38.7216 113.733C38.4148 113.051 37.9564 112.528 37.3466 112.165C36.7367 111.797 35.9773 111.614 35.0682 111.614H32.8182V120.75ZM42.7273 122V113.273H44.0682V122H42.7273ZM43.4091 111.818C43.1477 111.818 42.9223 111.729 42.733 111.551C42.5473 111.373 42.4545 111.159 42.4545 110.909C42.4545 110.659 42.5473 110.445 42.733 110.267C42.9223 110.089 43.1477 110 43.4091 110C43.6705 110 43.8939 110.089 44.0795 110.267C44.2689 110.445 44.3636 110.659 44.3636 110.909C44.3636 111.159 44.2689 111.373 44.0795 111.551C43.8939 111.729 43.6705 111.818 43.4091 111.818ZM52.706 115.227L51.5014 115.568C51.4257 115.367 51.3139 115.172 51.1662 114.983C51.0223 114.79 50.8253 114.631 50.5753 114.506C50.3253 114.381 50.0052 114.318 49.6151 114.318C49.081 114.318 48.6359 114.441 48.2798 114.688C47.9276 114.93 47.7514 115.239 47.7514 115.614C47.7514 115.947 47.8726 116.21 48.1151 116.403C48.3575 116.597 48.7363 116.758 49.2514 116.886L50.5469 117.205C51.3272 117.394 51.9086 117.684 52.2912 118.074C52.6738 118.46 52.8651 118.958 52.8651 119.568C52.8651 120.068 52.7211 120.515 52.4332 120.909C52.1491 121.303 51.7514 121.614 51.2401 121.841C50.7287 122.068 50.134 122.182 49.456 122.182C48.5658 122.182 47.8291 121.989 47.2457 121.602C46.6624 121.216 46.2931 120.652 46.1378 119.909L47.4105 119.591C47.5317 120.061 47.7609 120.413 48.098 120.648C48.4389 120.883 48.884 121 49.4332 121C50.0582 121 50.5545 120.867 50.9219 120.602C51.2931 120.333 51.4787 120.011 51.4787 119.636C51.4787 119.333 51.3726 119.08 51.1605 118.875C50.9484 118.667 50.6226 118.511 50.1832 118.409L48.7287 118.068C47.9295 117.879 47.3423 117.585 46.9673 117.188C46.5961 116.786 46.4105 116.284 46.4105 115.682C46.4105 115.189 46.5488 114.754 46.8253 114.375C47.1056 113.996 47.4863 113.699 47.9673 113.483C48.4522 113.267 49.0014 113.159 49.6151 113.159C50.4787 113.159 51.1567 113.348 51.6491 113.727C52.1454 114.106 52.4976 114.606 52.706 115.227ZM57.4517 122.205C56.8987 122.205 56.3968 122.1 55.946 121.892C55.4953 121.68 55.1373 121.375 54.8722 120.977C54.607 120.576 54.4744 120.091 54.4744 119.523C54.4744 119.023 54.5729 118.617 54.7699 118.307C54.9669 117.992 55.2301 117.746 55.5597 117.568C55.8892 117.39 56.2528 117.258 56.6506 117.17C57.0521 117.08 57.4555 117.008 57.8608 116.955C58.3911 116.886 58.821 116.835 59.1506 116.801C59.4839 116.763 59.7263 116.701 59.8778 116.614C60.0331 116.527 60.1108 116.375 60.1108 116.159V116.114C60.1108 115.553 59.9574 115.117 59.6506 114.807C59.3475 114.496 58.8873 114.341 58.2699 114.341C57.6297 114.341 57.1278 114.481 56.7642 114.761C56.4006 115.042 56.1449 115.341 55.9972 115.659L54.7244 115.205C54.9517 114.674 55.2547 114.261 55.6335 113.966C56.0161 113.667 56.4328 113.458 56.8835 113.341C57.3381 113.22 57.785 113.159 58.2244 113.159C58.5047 113.159 58.8267 113.193 59.1903 113.261C59.5578 113.326 59.9119 113.46 60.2528 113.665C60.5975 113.869 60.8835 114.178 61.1108 114.591C61.3381 115.004 61.4517 115.557 61.4517 116.25V122H60.1108V120.818H60.0426C59.9517 121.008 59.8002 121.21 59.5881 121.426C59.3759 121.642 59.0938 121.826 58.7415 121.977C58.3892 122.129 57.9593 122.205 57.4517 122.205ZM57.6562 121C58.1866 121 58.6335 120.896 58.9972 120.688C59.3646 120.479 59.6411 120.21 59.8267 119.881C60.0161 119.551 60.1108 119.205 60.1108 118.841V117.614C60.054 117.682 59.929 117.744 59.7358 117.801C59.5464 117.854 59.3267 117.902 59.0767 117.943C58.8305 117.981 58.59 118.015 58.3551 118.045C58.1241 118.072 57.9366 118.095 57.7926 118.114C57.4441 118.159 57.1184 118.233 56.8153 118.335C56.5161 118.434 56.2737 118.583 56.0881 118.784C55.9063 118.981 55.8153 119.25 55.8153 119.591C55.8153 120.057 55.9877 120.409 56.3324 120.648C56.6809 120.883 57.1222 121 57.6562 121ZM64.081 122V110.364H65.4219V114.659H65.5355C65.634 114.508 65.7704 114.314 65.9446 114.08C66.1226 113.841 66.3764 113.629 66.706 113.443C67.0393 113.254 67.4901 113.159 68.0582 113.159C68.7931 113.159 69.4408 113.343 70.0014 113.71C70.562 114.078 70.9995 114.598 71.3139 115.273C71.6283 115.947 71.7855 116.742 71.7855 117.659C71.7855 118.583 71.6283 119.384 71.3139 120.062C70.9995 120.737 70.5639 121.259 70.0071 121.631C69.4503 121.998 68.8082 122.182 68.081 122.182C67.5204 122.182 67.0715 122.089 66.7344 121.903C66.3973 121.714 66.1378 121.5 65.956 121.261C65.7741 121.019 65.634 120.818 65.5355 120.659H65.3764V122H64.081ZM65.3991 117.636C65.3991 118.295 65.4957 118.877 65.6889 119.381C65.8821 119.881 66.1643 120.273 66.5355 120.557C66.9067 120.837 67.3613 120.977 67.8991 120.977C68.4598 120.977 68.9276 120.83 69.3026 120.534C69.6813 120.235 69.9654 119.833 70.1548 119.33C70.348 118.822 70.4446 118.258 70.4446 117.636C70.4446 117.023 70.3499 116.47 70.1605 115.977C69.9749 115.481 69.6927 115.089 69.3139 114.801C68.9389 114.509 68.4673 114.364 67.8991 114.364C67.3537 114.364 66.8954 114.502 66.5241 114.778C66.1529 115.051 65.8726 115.434 65.6832 115.926C65.4938 116.415 65.3991 116.985 65.3991 117.636ZM75.1776 110.364V122H73.8366V110.364H75.1776ZM81.2926 122.182C80.4517 122.182 79.7263 121.996 79.1165 121.625C78.5104 121.25 78.0426 120.727 77.7131 120.057C77.3873 119.383 77.2244 118.598 77.2244 117.705C77.2244 116.811 77.3873 116.023 77.7131 115.341C78.0426 114.655 78.5009 114.121 79.0881 113.739C79.679 113.352 80.3684 113.159 81.1562 113.159C81.6108 113.159 82.0597 113.235 82.5028 113.386C82.946 113.538 83.3494 113.784 83.7131 114.125C84.0767 114.462 84.3665 114.909 84.5824 115.466C84.7983 116.023 84.9062 116.708 84.9062 117.523V118.091H78.179V116.932H83.5426C83.5426 116.439 83.4441 116 83.2472 115.614C83.054 115.227 82.7775 114.922 82.4176 114.699C82.0616 114.475 81.6411 114.364 81.1562 114.364C80.6222 114.364 80.16 114.496 79.7699 114.761C79.3835 115.023 79.0862 115.364 78.8778 115.784C78.6695 116.205 78.5653 116.655 78.5653 117.136V117.909C78.5653 118.568 78.679 119.127 78.9062 119.585C79.1373 120.04 79.4574 120.386 79.8665 120.625C80.2756 120.86 80.7509 120.977 81.2926 120.977C81.6449 120.977 81.9631 120.928 82.2472 120.83C82.535 120.727 82.7831 120.576 82.9915 120.375C83.1998 120.17 83.3608 119.917 83.4744 119.614L84.7699 119.977C84.6335 120.417 84.4044 120.803 84.0824 121.136C83.7604 121.466 83.3627 121.723 82.8892 121.909C82.4157 122.091 81.8835 122.182 81.2926 122.182ZM90.2415 122.182C89.5142 122.182 88.8722 121.998 88.3153 121.631C87.7585 121.259 87.3229 120.737 87.0085 120.062C86.6941 119.384 86.5369 118.583 86.5369 117.659C86.5369 116.742 86.6941 115.947 87.0085 115.273C87.3229 114.598 87.7604 114.078 88.321 113.71C88.8816 113.343 89.5294 113.159 90.2642 113.159C90.8324 113.159 91.2813 113.254 91.6108 113.443C91.9441 113.629 92.1979 113.841 92.3722 114.08C92.5502 114.314 92.6884 114.508 92.7869 114.659H92.9006V110.364H94.2415V122H92.946V120.659H92.7869C92.6884 120.818 92.5483 121.019 92.3665 121.261C92.1847 121.5 91.9252 121.714 91.5881 121.903C91.2509 122.089 90.8021 122.182 90.2415 122.182ZM90.4233 120.977C90.9612 120.977 91.4157 120.837 91.7869 120.557C92.1581 120.273 92.4403 119.881 92.6335 119.381C92.8267 118.877 92.9233 118.295 92.9233 117.636C92.9233 116.985 92.8286 116.415 92.6392 115.926C92.4498 115.434 92.1695 115.051 91.7983 114.778C91.4271 114.502 90.9688 114.364 90.4233 114.364C89.8551 114.364 89.3816 114.509 89.0028 114.801C88.6278 115.089 88.3456 115.481 88.1562 115.977C87.9706 116.47 87.8778 117.023 87.8778 117.636C87.8778 118.258 87.9725 118.822 88.1619 119.33C88.3551 119.833 88.6392 120.235 89.0142 120.534C89.393 120.83 89.8627 120.977 90.4233 120.977Z" fill="white" fill-opacity="0.95"/>
</svg>
