<svg width="172" height="112" viewBox="0 0 172 112" fill="none" xmlns="http://www.w3.org/2000/svg">
<mask id="path-1-inside-1_1267_49647" fill="white">
<path d="M0 0H172V112H0V0Z"/>
</mask>
<path d="M0 0H172V112H0V0Z" fill="#1A1A1A"/>
<path d="M172 112V113H173V112H172ZM171 0V112H173V0H171ZM172 111H0V113H172V111Z" fill="#707070" mask="url(#path-1-inside-1_1267_49647)"/>
<path d="M35.2955 50.3636V62H33.8864V51.8409H33.8182L30.9773 53.7273V52.2955L33.8864 50.3636H35.2955ZM38.3693 59.6136V58.4545L43.483 50.3636H44.3239V52.1591H43.7557L39.892 58.2727V58.3636H46.7784V59.6136H38.3693ZM43.8466 62V59.2614V58.7216V50.3636H45.1875V62H43.8466ZM48.9304 65.2727V53.2727H50.2259V54.6591H50.3849C50.4834 54.5076 50.6198 54.3144 50.794 54.0795C50.9721 53.8409 51.2259 53.6288 51.5554 53.4432C51.8887 53.2538 52.3395 53.1591 52.9077 53.1591C53.6425 53.1591 54.2902 53.3428 54.8509 53.7102C55.4115 54.0777 55.849 54.5985 56.1634 55.2727C56.4777 55.947 56.6349 56.7424 56.6349 57.6591C56.6349 58.5833 56.4777 59.3845 56.1634 60.0625C55.849 60.7367 55.4134 61.2595 54.8565 61.6307C54.2997 61.9981 53.6577 62.1818 52.9304 62.1818C52.3698 62.1818 51.9209 62.089 51.5838 61.9034C51.2467 61.714 50.9872 61.5 50.8054 61.2614C50.6236 61.0189 50.4834 60.8182 50.3849 60.6591H50.2713V65.2727H48.9304ZM50.2486 57.6364C50.2486 58.2955 50.3452 58.8769 50.5384 59.3807C50.7315 59.8807 51.0137 60.2727 51.3849 60.5568C51.7562 60.8371 52.2107 60.9773 52.7486 60.9773C53.3092 60.9773 53.777 60.8295 54.152 60.5341C54.5308 60.2348 54.8149 59.8333 55.0043 59.3295C55.1974 58.822 55.294 58.2576 55.294 57.6364C55.294 57.0227 55.1993 56.4697 55.0099 55.9773C54.8243 55.4811 54.5421 55.089 54.1634 54.8011C53.7884 54.5095 53.3168 54.3636 52.7486 54.3636C52.2031 54.3636 51.7448 54.5019 51.3736 54.7784C51.0024 55.0511 50.7221 55.4337 50.5327 55.9261C50.3433 56.4148 50.2486 56.9848 50.2486 57.6364ZM62.4759 53.2727V54.4091H57.9531V53.2727H62.4759ZM59.2713 51.1818H60.6122V59.5C60.6122 59.8788 60.6671 60.1629 60.777 60.3523C60.8906 60.5379 61.0346 60.6629 61.2088 60.7273C61.3868 60.7879 61.5743 60.8182 61.7713 60.8182C61.919 60.8182 62.0402 60.8106 62.1349 60.7955C62.2296 60.7765 62.3054 60.7614 62.3622 60.75L62.6349 61.9545C62.544 61.9886 62.4171 62.0227 62.2543 62.0568C62.0914 62.0947 61.8849 62.1136 61.6349 62.1136C61.2562 62.1136 60.8849 62.0322 60.5213 61.8693C60.1615 61.7064 59.8622 61.4583 59.6236 61.125C59.3887 60.7917 59.2713 60.3712 59.2713 59.8636V51.1818Z" fill="white" fill-opacity="0.95"/>
</svg>
