<svg width="200" height="376" viewBox="0 0 200 376" fill="none" xmlns="http://www.w3.org/2000/svg">
<mask id="path-1-inside-1_1267_50318" fill="white">
<path d="M0 0H200V376H0V0Z"/>
</mask>
<path d="M0 0H200V376H0V0Z" fill="#1A1A1A"/>
<path d="M200 376V377H201V376H200ZM199 0V376H201V0H199ZM200 375H0V377H200V375Z" fill="#707070" mask="url(#path-1-inside-1_1267_50318)"/>
<path d="M30.7727 183.614V182.364H39.5V183.614H35.8409V194H34.4318V183.614H30.7727ZM43.8864 194.182C43.0455 194.182 42.3201 193.996 41.7102 193.625C41.1042 193.25 40.6364 192.727 40.3068 192.057C39.9811 191.383 39.8182 190.598 39.8182 189.705C39.8182 188.811 39.9811 188.023 40.3068 187.341C40.6364 186.655 41.0947 186.121 41.6818 185.739C42.2727 185.352 42.9621 185.159 43.75 185.159C44.2045 185.159 44.6534 185.235 45.0966 185.386C45.5398 185.538 45.9432 185.784 46.3068 186.125C46.6705 186.462 46.9602 186.909 47.1761 187.466C47.392 188.023 47.5 188.708 47.5 189.523V190.091H40.7727V188.932H46.1364C46.1364 188.439 46.0379 188 45.8409 187.614C45.6477 187.227 45.3712 186.922 45.0114 186.699C44.6553 186.475 44.2348 186.364 43.75 186.364C43.2159 186.364 42.7538 186.496 42.3636 186.761C41.9773 187.023 41.6799 187.364 41.4716 187.784C41.2633 188.205 41.1591 188.655 41.1591 189.136V189.909C41.1591 190.568 41.2727 191.127 41.5 191.585C41.7311 192.04 42.0511 192.386 42.4602 192.625C42.8693 192.86 43.3447 192.977 43.8864 192.977C44.2386 192.977 44.5568 192.928 44.8409 192.83C45.1288 192.727 45.3769 192.576 45.5852 192.375C45.7936 192.17 45.9545 191.917 46.0682 191.614L47.3636 191.977C47.2273 192.417 46.9981 192.803 46.6761 193.136C46.3542 193.466 45.9564 193.723 45.483 193.909C45.0095 194.091 44.4773 194.182 43.8864 194.182ZM50.3054 185.273L52.3963 188.841L54.4872 185.273H56.0327L53.2145 189.636L56.0327 194H54.4872L52.3963 190.614L50.3054 194H48.7599L51.5327 189.636L48.7599 185.273H50.3054ZM61.7415 185.273V186.409H57.2188V185.273H61.7415ZM58.5369 183.182H59.8778V191.5C59.8778 191.879 59.9328 192.163 60.0426 192.352C60.1563 192.538 60.3002 192.663 60.4744 192.727C60.6525 192.788 60.84 192.818 61.0369 192.818C61.1847 192.818 61.3059 192.811 61.4006 192.795C61.4953 192.777 61.571 192.761 61.6278 192.75L61.9006 193.955C61.8097 193.989 61.6828 194.023 61.5199 194.057C61.357 194.095 61.1506 194.114 60.9006 194.114C60.5218 194.114 60.1506 194.032 59.7869 193.869C59.4271 193.706 59.1278 193.458 58.8892 193.125C58.6544 192.792 58.5369 192.371 58.5369 191.864V183.182ZM72.1449 185.273V186.409H67.4403V185.273H72.1449ZM68.8494 194V184.068C68.8494 183.568 68.9669 183.152 69.2017 182.818C69.4366 182.485 69.7415 182.235 70.1165 182.068C70.4915 181.902 70.8873 181.818 71.304 181.818C71.6335 181.818 71.9025 181.845 72.1108 181.898C72.3191 181.951 72.4744 182 72.5767 182.045L72.1903 183.205C72.1222 183.182 72.0275 183.153 71.9062 183.119C71.7888 183.085 71.6335 183.068 71.4403 183.068C70.9972 183.068 70.6771 183.18 70.4801 183.403C70.2869 183.627 70.1903 183.955 70.1903 184.386V194H68.8494ZM74.0241 194V185.273H75.3651V194H74.0241ZM74.706 183.818C74.4446 183.818 74.2192 183.729 74.0298 183.551C73.8442 183.373 73.7514 183.159 73.7514 182.909C73.7514 182.659 73.8442 182.445 74.0298 182.267C74.2192 182.089 74.4446 182 74.706 182C74.9673 182 75.1908 182.089 75.3764 182.267C75.5658 182.445 75.6605 182.659 75.6605 182.909C75.6605 183.159 75.5658 183.373 75.3764 183.551C75.1908 183.729 74.9673 183.818 74.706 183.818ZM81.4801 194.182C80.6392 194.182 79.9138 193.996 79.304 193.625C78.6979 193.25 78.2301 192.727 77.9006 192.057C77.5748 191.383 77.4119 190.598 77.4119 189.705C77.4119 188.811 77.5748 188.023 77.9006 187.341C78.2301 186.655 78.6884 186.121 79.2756 185.739C79.8665 185.352 80.5559 185.159 81.3438 185.159C81.7983 185.159 82.2472 185.235 82.6903 185.386C83.1335 185.538 83.5369 185.784 83.9006 186.125C84.2642 186.462 84.554 186.909 84.7699 187.466C84.9858 188.023 85.0938 188.708 85.0938 189.523V190.091H78.3665V188.932H83.7301C83.7301 188.439 83.6316 188 83.4347 187.614C83.2415 187.227 82.965 186.922 82.6051 186.699C82.2491 186.475 81.8286 186.364 81.3438 186.364C80.8097 186.364 80.3475 186.496 79.9574 186.761C79.571 187.023 79.2737 187.364 79.0653 187.784C78.857 188.205 78.7528 188.655 78.7528 189.136V189.909C78.7528 190.568 78.8665 191.127 79.0938 191.585C79.3248 192.04 79.6449 192.386 80.054 192.625C80.4631 192.86 80.9384 192.977 81.4801 192.977C81.8324 192.977 82.1506 192.928 82.4347 192.83C82.7225 192.727 82.9706 192.576 83.179 192.375C83.3873 192.17 83.5483 191.917 83.6619 191.614L84.9574 191.977C84.821 192.417 84.5919 192.803 84.2699 193.136C83.9479 193.466 83.5502 193.723 83.0767 193.909C82.6032 194.091 82.071 194.182 81.4801 194.182ZM88.4744 182.364V194H87.1335V182.364H88.4744ZM94.2259 194.182C93.4986 194.182 92.8565 193.998 92.2997 193.631C91.7429 193.259 91.3073 192.737 90.9929 192.062C90.6785 191.384 90.5213 190.583 90.5213 189.659C90.5213 188.742 90.6785 187.947 90.9929 187.273C91.3073 186.598 91.7448 186.078 92.3054 185.71C92.866 185.343 93.5137 185.159 94.2486 185.159C94.8168 185.159 95.2656 185.254 95.5952 185.443C95.9285 185.629 96.1823 185.841 96.3565 186.08C96.5346 186.314 96.6728 186.508 96.7713 186.659H96.8849V182.364H98.2259V194H96.9304V192.659H96.7713C96.6728 192.818 96.5327 193.019 96.3509 193.261C96.169 193.5 95.9096 193.714 95.5724 193.903C95.2353 194.089 94.7865 194.182 94.2259 194.182ZM94.4077 192.977C94.9455 192.977 95.4001 192.837 95.7713 192.557C96.1425 192.273 96.4247 191.881 96.6179 191.381C96.8111 190.877 96.9077 190.295 96.9077 189.636C96.9077 188.985 96.813 188.415 96.6236 187.926C96.4342 187.434 96.1539 187.051 95.7827 186.778C95.4115 186.502 94.9531 186.364 94.4077 186.364C93.8395 186.364 93.366 186.509 92.9872 186.801C92.6122 187.089 92.33 187.481 92.1406 187.977C91.955 188.47 91.8622 189.023 91.8622 189.636C91.8622 190.258 91.9569 190.822 92.1463 191.33C92.3395 191.833 92.6236 192.235 92.9986 192.534C93.3774 192.83 93.8471 192.977 94.4077 192.977ZM102.868 192.409L102.777 193.023C102.713 193.455 102.614 193.917 102.482 194.409C102.353 194.902 102.218 195.366 102.078 195.801C101.938 196.237 101.822 196.583 101.732 196.841H100.709C100.758 196.598 100.822 196.278 100.902 195.881C100.982 195.483 101.061 195.038 101.141 194.545C101.224 194.057 101.292 193.557 101.345 193.045L101.413 192.409H102.868ZM116.034 187.227L114.83 187.568C114.754 187.367 114.642 187.172 114.494 186.983C114.35 186.79 114.153 186.631 113.903 186.506C113.653 186.381 113.333 186.318 112.943 186.318C112.409 186.318 111.964 186.441 111.608 186.688C111.256 186.93 111.08 187.239 111.08 187.614C111.08 187.947 111.201 188.21 111.443 188.403C111.686 188.597 112.064 188.758 112.58 188.886L113.875 189.205C114.655 189.394 115.237 189.684 115.619 190.074C116.002 190.46 116.193 190.958 116.193 191.568C116.193 192.068 116.049 192.515 115.761 192.909C115.477 193.303 115.08 193.614 114.568 193.841C114.057 194.068 113.462 194.182 112.784 194.182C111.894 194.182 111.157 193.989 110.574 193.602C109.991 193.216 109.621 192.652 109.466 191.909L110.739 191.591C110.86 192.061 111.089 192.413 111.426 192.648C111.767 192.883 112.212 193 112.761 193C113.386 193 113.883 192.867 114.25 192.602C114.621 192.333 114.807 192.011 114.807 191.636C114.807 191.333 114.701 191.08 114.489 190.875C114.277 190.667 113.951 190.511 113.511 190.409L112.057 190.068C111.258 189.879 110.67 189.585 110.295 189.188C109.924 188.786 109.739 188.284 109.739 187.682C109.739 187.189 109.877 186.754 110.153 186.375C110.434 185.996 110.814 185.699 111.295 185.483C111.78 185.267 112.33 185.159 112.943 185.159C113.807 185.159 114.485 185.348 114.977 185.727C115.473 186.106 115.826 186.606 116.034 187.227ZM121.871 194.182C121.03 194.182 120.304 193.996 119.695 193.625C119.089 193.25 118.621 192.727 118.291 192.057C117.965 191.383 117.803 190.598 117.803 189.705C117.803 188.811 117.965 188.023 118.291 187.341C118.621 186.655 119.079 186.121 119.666 185.739C120.257 185.352 120.946 185.159 121.734 185.159C122.189 185.159 122.638 185.235 123.081 185.386C123.524 185.538 123.928 185.784 124.291 186.125C124.655 186.462 124.945 186.909 125.161 187.466C125.376 188.023 125.484 188.708 125.484 189.523V190.091H118.757V188.932H124.121C124.121 188.439 124.022 188 123.825 187.614C123.632 187.227 123.356 186.922 122.996 186.699C122.64 186.475 122.219 186.364 121.734 186.364C121.2 186.364 120.738 186.496 120.348 186.761C119.962 187.023 119.664 187.364 119.456 187.784C119.248 188.205 119.143 188.655 119.143 189.136V189.909C119.143 190.568 119.257 191.127 119.484 191.585C119.715 192.04 120.036 192.386 120.445 192.625C120.854 192.86 121.329 192.977 121.871 192.977C122.223 192.977 122.541 192.928 122.825 192.83C123.113 192.727 123.361 192.576 123.57 192.375C123.778 192.17 123.939 191.917 124.053 191.614L125.348 191.977C125.212 192.417 124.982 192.803 124.661 193.136C124.339 193.466 123.941 193.723 123.467 193.909C122.994 194.091 122.462 194.182 121.871 194.182ZM128.865 182.364V194H127.524V182.364H128.865ZM134.98 194.182C134.139 194.182 133.414 193.996 132.804 193.625C132.198 193.25 131.73 192.727 131.401 192.057C131.075 191.383 130.912 190.598 130.912 189.705C130.912 188.811 131.075 188.023 131.401 187.341C131.73 186.655 132.188 186.121 132.776 185.739C133.366 185.352 134.056 185.159 134.844 185.159C135.298 185.159 135.747 185.235 136.19 185.386C136.634 185.538 137.037 185.784 137.401 186.125C137.764 186.462 138.054 186.909 138.27 187.466C138.486 188.023 138.594 188.708 138.594 189.523V190.091H131.866V188.932H137.23C137.23 188.439 137.132 188 136.935 187.614C136.741 187.227 136.465 186.922 136.105 186.699C135.749 186.475 135.329 186.364 134.844 186.364C134.31 186.364 133.848 186.496 133.457 186.761C133.071 187.023 132.774 187.364 132.565 187.784C132.357 188.205 132.253 188.655 132.253 189.136V189.909C132.253 190.568 132.366 191.127 132.594 191.585C132.825 192.04 133.145 192.386 133.554 192.625C133.963 192.86 134.438 192.977 134.98 192.977C135.332 192.977 135.651 192.928 135.935 192.83C136.223 192.727 136.471 192.576 136.679 192.375C136.887 192.17 137.048 191.917 137.162 191.614L138.457 191.977C138.321 192.417 138.092 192.803 137.77 193.136C137.448 193.466 137.05 193.723 136.577 193.909C136.103 194.091 135.571 194.182 134.98 194.182ZM144.179 194.182C143.361 194.182 142.656 193.989 142.065 193.602C141.474 193.216 141.02 192.684 140.702 192.006C140.384 191.328 140.224 190.553 140.224 189.682C140.224 188.795 140.387 188.013 140.713 187.335C141.043 186.653 141.501 186.121 142.088 185.739C142.679 185.352 143.368 185.159 144.156 185.159C144.77 185.159 145.323 185.273 145.815 185.5C146.308 185.727 146.711 186.045 147.026 186.455C147.34 186.864 147.535 187.341 147.611 187.886H146.27C146.168 187.489 145.94 187.136 145.588 186.83C145.24 186.519 144.77 186.364 144.179 186.364C143.656 186.364 143.198 186.5 142.804 186.773C142.414 187.042 142.109 187.422 141.889 187.915C141.673 188.403 141.565 188.977 141.565 189.636C141.565 190.311 141.671 190.898 141.884 191.398C142.099 191.898 142.402 192.286 142.793 192.562C143.187 192.839 143.649 192.977 144.179 192.977C144.527 192.977 144.844 192.917 145.128 192.795C145.412 192.674 145.652 192.5 145.849 192.273C146.046 192.045 146.187 191.773 146.27 191.455H147.611C147.535 191.97 147.348 192.434 147.048 192.847C146.753 193.256 146.361 193.581 145.872 193.824C145.387 194.062 144.823 194.182 144.179 194.182ZM153.366 185.273V186.409H148.844V185.273H153.366ZM150.162 183.182H151.503V191.5C151.503 191.879 151.558 192.163 151.668 192.352C151.781 192.538 151.925 192.663 152.099 192.727C152.277 192.788 152.465 192.818 152.662 192.818C152.81 192.818 152.931 192.811 153.026 192.795C153.12 192.777 153.196 192.761 153.253 192.75L153.526 193.955C153.435 193.989 153.308 194.023 153.145 194.057C152.982 194.095 152.776 194.114 152.526 194.114C152.147 194.114 151.776 194.032 151.412 193.869C151.052 193.706 150.753 193.458 150.514 193.125C150.279 192.792 150.162 192.371 150.162 191.864V183.182Z" fill="white" fill-opacity="0.95"/>
</svg>
