<svg width="313" height="160" viewBox="0 0 313 160" fill="none" xmlns="http://www.w3.org/2000/svg">
<mask id="path-1-inside-1_1267_49675" fill="white">
<path d="M0 0H313V160H0V0Z"/>
</mask>
<path d="M0 0H313V160H0V0Z" fill="#1A1A1A"/>
<path d="M313 159H0V161H313V159Z" fill="#707070" mask="url(#path-1-inside-1_1267_49675)"/>
<path d="M40.7727 42H39.3636C39.2803 41.5947 39.1345 41.2386 38.9261 40.9318C38.7216 40.625 38.4716 40.3674 38.1761 40.1591C37.8845 39.947 37.5606 39.7879 37.2045 39.6818C36.8485 39.5758 36.4773 39.5227 36.0909 39.5227C35.3864 39.5227 34.7481 39.7008 34.1761 40.0568C33.608 40.4129 33.1553 40.9375 32.8182 41.6307C32.4848 42.3239 32.3182 43.1742 32.3182 44.1818C32.3182 45.1894 32.4848 46.0398 32.8182 46.733C33.1553 47.4261 33.608 47.9508 34.1761 48.3068C34.7481 48.6629 35.3864 48.8409 36.0909 48.8409C36.4773 48.8409 36.8485 48.7879 37.2045 48.6818C37.5606 48.5758 37.8845 48.4186 38.1761 48.2102C38.4716 47.9981 38.7216 47.7386 38.9261 47.4318C39.1345 47.1212 39.2803 46.7652 39.3636 46.3636H40.7727C40.6667 46.9583 40.4735 47.4905 40.1932 47.9602C39.9129 48.4299 39.5644 48.8295 39.1477 49.1591C38.7311 49.4848 38.2633 49.733 37.7443 49.9034C37.2292 50.0739 36.678 50.1591 36.0909 50.1591C35.0985 50.1591 34.2159 49.9167 33.4432 49.4318C32.6705 48.947 32.0625 48.2576 31.6193 47.3636C31.1761 46.4697 30.9545 45.4091 30.9545 44.1818C30.9545 42.9545 31.1761 41.8939 31.6193 41C32.0625 40.1061 32.6705 39.4167 33.4432 38.9318C34.2159 38.447 35.0985 38.2045 36.0909 38.2045C36.678 38.2045 37.2292 38.2898 37.7443 38.4602C38.2633 38.6307 38.7311 38.8807 39.1477 39.2102C39.5644 39.536 39.9129 39.9337 40.1932 40.4034C40.4735 40.8693 40.6667 41.4015 40.7727 42ZM46.4134 50.1818C45.6255 50.1818 44.9342 49.9943 44.3395 49.6193C43.7486 49.2443 43.2865 48.7197 42.9531 48.0455C42.6236 47.3712 42.4588 46.5833 42.4588 45.6818C42.4588 44.7727 42.6236 43.9792 42.9531 43.3011C43.2865 42.6231 43.7486 42.0966 44.3395 41.7216C44.9342 41.3466 45.6255 41.1591 46.4134 41.1591C47.2012 41.1591 47.8906 41.3466 48.4815 41.7216C49.0762 42.0966 49.5384 42.6231 49.8679 43.3011C50.2012 43.9792 50.3679 44.7727 50.3679 45.6818C50.3679 46.5833 50.2012 47.3712 49.8679 48.0455C49.5384 48.7197 49.0762 49.2443 48.4815 49.6193C47.8906 49.9943 47.2012 50.1818 46.4134 50.1818ZM46.4134 48.9773C47.0118 48.9773 47.5043 48.8239 47.8906 48.517C48.277 48.2102 48.563 47.8068 48.7486 47.3068C48.9342 46.8068 49.027 46.2652 49.027 45.6818C49.027 45.0985 48.9342 44.5549 48.7486 44.0511C48.563 43.5473 48.277 43.1402 47.8906 42.8295C47.5043 42.5189 47.0118 42.3636 46.4134 42.3636C45.8149 42.3636 45.3224 42.5189 44.9361 42.8295C44.5497 43.1402 44.2637 43.5473 44.0781 44.0511C43.8925 44.5549 43.7997 45.0985 43.7997 45.6818C43.7997 46.2652 43.8925 46.8068 44.0781 47.3068C44.2637 47.8068 44.5497 48.2102 44.9361 48.517C45.3224 48.8239 45.8149 48.9773 46.4134 48.9773ZM53.7557 38.3636V50H52.4148V38.3636H53.7557ZM59.7571 50.1818C58.9692 50.1818 58.2779 49.9943 57.6832 49.6193C57.0923 49.2443 56.6302 48.7197 56.2969 48.0455C55.9673 47.3712 55.8026 46.5833 55.8026 45.6818C55.8026 44.7727 55.9673 43.9792 56.2969 43.3011C56.6302 42.6231 57.0923 42.0966 57.6832 41.7216C58.2779 41.3466 58.9692 41.1591 59.7571 41.1591C60.545 41.1591 61.2344 41.3466 61.8253 41.7216C62.42 42.0966 62.8821 42.6231 63.2116 43.3011C63.545 43.9792 63.7116 44.7727 63.7116 45.6818C63.7116 46.5833 63.545 47.3712 63.2116 48.0455C62.8821 48.7197 62.42 49.2443 61.8253 49.6193C61.2344 49.9943 60.545 50.1818 59.7571 50.1818ZM59.7571 48.9773C60.3556 48.9773 60.848 48.8239 61.2344 48.517C61.6207 48.2102 61.9067 47.8068 62.0923 47.3068C62.2779 46.8068 62.3707 46.2652 62.3707 45.6818C62.3707 45.0985 62.2779 44.5549 62.0923 44.0511C61.9067 43.5473 61.6207 43.1402 61.2344 42.8295C60.848 42.5189 60.3556 42.3636 59.7571 42.3636C59.1586 42.3636 58.6662 42.5189 58.2798 42.8295C57.8935 43.1402 57.6075 43.5473 57.4219 44.0511C57.2363 44.5549 57.1435 45.0985 57.1435 45.6818C57.1435 46.2652 57.2363 46.8068 57.4219 47.3068C57.6075 47.8068 57.8935 48.2102 58.2798 48.517C58.6662 48.8239 59.1586 48.9773 59.7571 48.9773ZM65.7585 50V41.2727H67.054V42.5909H67.1449C67.304 42.1591 67.5919 41.8087 68.0085 41.5398C68.4252 41.2708 68.8949 41.1364 69.4176 41.1364C69.5161 41.1364 69.6392 41.1383 69.7869 41.142C69.9347 41.1458 70.0464 41.1515 70.1222 41.1591V42.5227C70.0767 42.5114 69.9725 42.4943 69.8097 42.4716C69.6506 42.4451 69.482 42.4318 69.304 42.4318C68.8797 42.4318 68.5009 42.5208 68.1676 42.6989C67.8381 42.8731 67.5767 43.1155 67.3835 43.4261C67.1941 43.733 67.0994 44.0833 67.0994 44.4773V50H65.7585ZM72.6889 50.0909C72.4086 50.0909 72.1681 49.9905 71.9673 49.7898C71.7666 49.589 71.6662 49.3485 71.6662 49.0682C71.6662 48.7879 71.7666 48.5473 71.9673 48.3466C72.1681 48.1458 72.4086 48.0455 72.6889 48.0455C72.9692 48.0455 73.2098 48.1458 73.4105 48.3466C73.6113 48.5473 73.7116 48.7879 73.7116 49.0682C73.7116 49.2538 73.6643 49.4242 73.5696 49.5795C73.4787 49.7348 73.3556 49.8598 73.2003 49.9545C73.0488 50.0455 72.8783 50.0909 72.6889 50.0909ZM72.6889 43.6136C72.4086 43.6136 72.1681 43.5133 71.9673 43.3125C71.7666 43.1117 71.6662 42.8712 71.6662 42.5909C71.6662 42.3106 71.7666 42.0701 71.9673 41.8693C72.1681 41.6686 72.4086 41.5682 72.6889 41.5682C72.9692 41.5682 73.2098 41.6686 73.4105 41.8693C73.6113 42.0701 73.7116 42.3106 73.7116 42.5909C73.7116 42.7765 73.6643 42.947 73.5696 43.1023C73.4787 43.2576 73.3556 43.3826 73.2003 43.4773C73.0488 43.5682 72.8783 43.6136 72.6889 43.6136ZM84.1634 50.1818C83.3452 50.1818 82.6406 49.9886 82.0497 49.6023C81.4588 49.2159 81.0043 48.6837 80.6861 48.0057C80.3679 47.3277 80.2088 46.553 80.2088 45.6818C80.2088 44.7955 80.3717 44.0133 80.6974 43.3352C81.027 42.6534 81.4853 42.1212 82.0724 41.7386C82.6634 41.3523 83.3527 41.1591 84.1406 41.1591C84.7543 41.1591 85.3073 41.2727 85.7997 41.5C86.2921 41.7273 86.6955 42.0455 87.0099 42.4545C87.3243 42.8636 87.5194 43.3409 87.5952 43.8864H86.2543C86.152 43.4886 85.9247 43.1364 85.5724 42.8295C85.224 42.5189 84.7543 42.3636 84.1634 42.3636C83.6406 42.3636 83.1823 42.5 82.7884 42.7727C82.3982 43.0417 82.0933 43.4223 81.8736 43.9148C81.6577 44.4034 81.5497 44.9773 81.5497 45.6364C81.5497 46.3106 81.6558 46.8977 81.8679 47.3977C82.0838 47.8977 82.3868 48.286 82.777 48.5625C83.1709 48.839 83.633 48.9773 84.1634 48.9773C84.5118 48.9773 84.8281 48.9167 85.1122 48.7955C85.3963 48.6742 85.6368 48.5 85.8338 48.2727C86.0308 48.0455 86.1709 47.7727 86.2543 47.4545H87.5952C87.5194 47.9697 87.3319 48.4337 87.0327 48.8466C86.7372 49.2557 86.3452 49.5814 85.8565 49.8239C85.3717 50.0625 84.8073 50.1818 84.1634 50.1818ZM93.1009 50.1818C92.313 50.1818 91.6217 49.9943 91.027 49.6193C90.4361 49.2443 89.974 48.7197 89.6406 48.0455C89.3111 47.3712 89.1463 46.5833 89.1463 45.6818C89.1463 44.7727 89.3111 43.9792 89.6406 43.3011C89.974 42.6231 90.4361 42.0966 91.027 41.7216C91.6217 41.3466 92.313 41.1591 93.1009 41.1591C93.8887 41.1591 94.5781 41.3466 95.169 41.7216C95.7637 42.0966 96.2259 42.6231 96.5554 43.3011C96.8887 43.9792 97.0554 44.7727 97.0554 45.6818C97.0554 46.5833 96.8887 47.3712 96.5554 48.0455C96.2259 48.7197 95.7637 49.2443 95.169 49.6193C94.5781 49.9943 93.8887 50.1818 93.1009 50.1818ZM93.1009 48.9773C93.6993 48.9773 94.1918 48.8239 94.5781 48.517C94.9645 48.2102 95.2505 47.8068 95.4361 47.3068C95.6217 46.8068 95.7145 46.2652 95.7145 45.6818C95.7145 45.0985 95.6217 44.5549 95.4361 44.0511C95.2505 43.5473 94.9645 43.1402 94.5781 42.8295C94.1918 42.5189 93.6993 42.3636 93.1009 42.3636C92.5024 42.3636 92.0099 42.5189 91.6236 42.8295C91.2372 43.1402 90.9512 43.5473 90.7656 44.0511C90.58 44.5549 90.4872 45.0985 90.4872 45.6818C90.4872 46.2652 90.58 46.8068 90.7656 47.3068C90.9512 47.8068 91.2372 48.2102 91.6236 48.517C92.0099 48.8239 92.5024 48.9773 93.1009 48.9773ZM100.443 38.3636V50H99.1023V38.3636H100.443ZM106.445 50.1818C105.657 50.1818 104.965 49.9943 104.371 49.6193C103.78 49.2443 103.318 48.7197 102.984 48.0455C102.655 47.3712 102.49 46.5833 102.49 45.6818C102.49 44.7727 102.655 43.9792 102.984 43.3011C103.318 42.6231 103.78 42.0966 104.371 41.7216C104.965 41.3466 105.657 41.1591 106.445 41.1591C107.232 41.1591 107.922 41.3466 108.513 41.7216C109.107 42.0966 109.57 42.6231 109.899 43.3011C110.232 43.9792 110.399 44.7727 110.399 45.6818C110.399 46.5833 110.232 47.3712 109.899 48.0455C109.57 48.7197 109.107 49.2443 108.513 49.6193C107.922 49.9943 107.232 50.1818 106.445 50.1818ZM106.445 48.9773C107.043 48.9773 107.536 48.8239 107.922 48.517C108.308 48.2102 108.594 47.8068 108.78 47.3068C108.965 46.8068 109.058 46.2652 109.058 45.6818C109.058 45.0985 108.965 44.5549 108.78 44.0511C108.594 43.5473 108.308 43.1402 107.922 42.8295C107.536 42.5189 107.043 42.3636 106.445 42.3636C105.846 42.3636 105.354 42.5189 104.967 42.8295C104.581 43.1402 104.295 43.5473 104.109 44.0511C103.924 44.5549 103.831 45.0985 103.831 45.6818C103.831 46.2652 103.924 46.8068 104.109 47.3068C104.295 47.8068 104.581 48.2102 104.967 48.517C105.354 48.8239 105.846 48.9773 106.445 48.9773ZM112.446 50V41.2727H113.741V42.5909H113.832C113.991 42.1591 114.279 41.8087 114.696 41.5398C115.113 41.2708 115.582 41.1364 116.105 41.1364C116.204 41.1364 116.327 41.1383 116.474 41.142C116.622 41.1458 116.734 41.1515 116.81 41.1591V42.5227C116.764 42.5114 116.66 42.4943 116.497 42.4716C116.338 42.4451 116.17 42.4318 115.991 42.4318C115.567 42.4318 115.188 42.5208 114.855 42.6989C114.526 42.8731 114.264 43.1155 114.071 43.4261C113.882 43.733 113.787 44.0833 113.787 44.4773V50H112.446ZM121.966 37.8182L118.216 51.75H116.989L120.739 37.8182H121.966ZM127.351 41.2727V42.4091H122.828V41.2727H127.351ZM124.146 39.1818H125.487V47.5C125.487 47.8788 125.542 48.1629 125.652 48.3523C125.766 48.5379 125.91 48.6629 126.084 48.7273C126.262 48.7879 126.449 48.8182 126.646 48.8182C126.794 48.8182 126.915 48.8106 127.01 48.7955C127.105 48.7765 127.18 48.7614 127.237 48.75L127.51 49.9545C127.419 49.9886 127.292 50.0227 127.129 50.0568C126.966 50.0947 126.76 50.1136 126.51 50.1136C126.131 50.1136 125.76 50.0322 125.396 49.8693C125.036 49.7064 124.737 49.4583 124.499 49.125C124.264 48.7917 124.146 48.3712 124.146 47.8636V39.1818ZM130.896 44.75V50H129.555V38.3636H130.896V42.6364H131.01C131.214 42.1856 131.521 41.8277 131.93 41.5625C132.343 41.2936 132.893 41.1591 133.578 41.1591C134.173 41.1591 134.694 41.2784 135.141 41.517C135.588 41.7519 135.934 42.1136 136.18 42.6023C136.43 43.0871 136.555 43.7045 136.555 44.4545V50H135.214V44.5455C135.214 43.8523 135.035 43.3163 134.675 42.9375C134.319 42.5549 133.824 42.3636 133.192 42.3636C132.752 42.3636 132.358 42.4564 132.01 42.642C131.665 42.8277 131.393 43.0985 131.192 43.4545C130.995 43.8106 130.896 44.2424 130.896 44.75ZM142.668 50.1818C141.827 50.1818 141.101 49.9962 140.491 49.625C139.885 49.25 139.418 48.7273 139.088 48.0568C138.762 47.3826 138.599 46.5985 138.599 45.7045C138.599 44.8106 138.762 44.0227 139.088 43.3409C139.418 42.6553 139.876 42.1212 140.463 41.7386C141.054 41.3523 141.743 41.1591 142.531 41.1591C142.986 41.1591 143.435 41.2348 143.878 41.3864C144.321 41.5379 144.724 41.7841 145.088 42.125C145.452 42.4621 145.741 42.9091 145.957 43.4659C146.173 44.0227 146.281 44.7083 146.281 45.5227V46.0909H139.554V44.9318H144.918C144.918 44.4394 144.819 44 144.622 43.6136C144.429 43.2273 144.152 42.9223 143.793 42.6989C143.437 42.4754 143.016 42.3636 142.531 42.3636C141.997 42.3636 141.535 42.4962 141.145 42.7614C140.759 43.0227 140.461 43.3636 140.253 43.7841C140.045 44.2045 139.94 44.6553 139.94 45.1364V45.9091C139.94 46.5682 140.054 47.1269 140.281 47.5852C140.512 48.0398 140.832 48.3864 141.241 48.625C141.651 48.8598 142.126 48.9773 142.668 48.9773C143.02 48.9773 143.338 48.928 143.622 48.8295C143.91 48.7273 144.158 48.5758 144.366 48.375C144.575 48.1705 144.736 47.9167 144.849 47.6136L146.145 47.9773C146.009 48.4167 145.779 48.803 145.457 49.1364C145.135 49.4659 144.738 49.7235 144.264 49.9091C143.791 50.0909 143.259 50.1818 142.668 50.1818ZM148.321 50V41.2727H149.616V42.6364H149.73C149.912 42.1705 150.205 41.8087 150.611 41.5511C151.016 41.2898 151.503 41.1591 152.071 41.1591C152.647 41.1591 153.126 41.2898 153.509 41.5511C153.895 41.8087 154.196 42.1705 154.412 42.6364H154.503C154.726 42.1856 155.062 41.8277 155.509 41.5625C155.955 41.2936 156.491 41.1591 157.116 41.1591C157.897 41.1591 158.535 41.4034 159.031 41.892C159.527 42.3769 159.776 43.1326 159.776 44.1591V50H158.435V44.1591C158.435 43.5152 158.259 43.0549 157.906 42.7784C157.554 42.5019 157.139 42.3636 156.662 42.3636C156.048 42.3636 155.573 42.5492 155.236 42.9205C154.899 43.2879 154.73 43.7538 154.73 44.3182V50H153.366V44.0227C153.366 43.5265 153.205 43.1269 152.884 42.8239C152.562 42.517 152.147 42.3636 151.639 42.3636C151.291 42.3636 150.965 42.4564 150.662 42.642C150.363 42.8277 150.12 43.0852 149.935 43.4148C149.753 43.7405 149.662 44.1174 149.662 44.5455V50H148.321ZM165.886 50.1818C165.045 50.1818 164.32 49.9962 163.71 49.625C163.104 49.25 162.636 48.7273 162.307 48.0568C161.981 47.3826 161.818 46.5985 161.818 45.7045C161.818 44.8106 161.981 44.0227 162.307 43.3409C162.636 42.6553 163.095 42.1212 163.682 41.7386C164.273 41.3523 164.962 41.1591 165.75 41.1591C166.205 41.1591 166.653 41.2348 167.097 41.3864C167.54 41.5379 167.943 41.7841 168.307 42.125C168.67 42.4621 168.96 42.9091 169.176 43.4659C169.392 44.0227 169.5 44.7083 169.5 45.5227V46.0909H162.773V44.9318H168.136C168.136 44.4394 168.038 44 167.841 43.6136C167.648 43.2273 167.371 42.9223 167.011 42.6989C166.655 42.4754 166.235 42.3636 165.75 42.3636C165.216 42.3636 164.754 42.4962 164.364 42.7614C163.977 43.0227 163.68 43.3636 163.472 43.7841C163.263 44.2045 163.159 44.6553 163.159 45.1364V45.9091C163.159 46.5682 163.273 47.1269 163.5 47.5852C163.731 48.0398 164.051 48.3864 164.46 48.625C164.869 48.8598 165.345 48.9773 165.886 48.9773C166.239 48.9773 166.557 48.928 166.841 48.8295C167.129 48.7273 167.377 48.5758 167.585 48.375C167.794 48.1705 167.955 47.9167 168.068 47.6136L169.364 47.9773C169.227 48.4167 168.998 48.803 168.676 49.1364C168.354 49.4659 167.956 49.7235 167.483 49.9091C167.009 50.0909 166.477 50.1818 165.886 50.1818ZM175.653 37.8182L171.903 51.75H170.676L174.426 37.8182H175.653ZM180.788 50.1818C179.97 50.1818 179.266 49.9886 178.675 49.6023C178.084 49.2159 177.629 48.6837 177.311 48.0057C176.993 47.3277 176.834 46.553 176.834 45.6818C176.834 44.7955 176.997 44.0133 177.322 43.3352C177.652 42.6534 178.11 42.1212 178.697 41.7386C179.288 41.3523 179.978 41.1591 180.766 41.1591C181.379 41.1591 181.932 41.2727 182.425 41.5C182.917 41.7273 183.321 42.0455 183.635 42.4545C183.949 42.8636 184.144 43.3409 184.22 43.8864H182.879C182.777 43.4886 182.55 43.1364 182.197 42.8295C181.849 42.5189 181.379 42.3636 180.788 42.3636C180.266 42.3636 179.807 42.5 179.413 42.7727C179.023 43.0417 178.718 43.4223 178.499 43.9148C178.283 44.4034 178.175 44.9773 178.175 45.6364C178.175 46.3106 178.281 46.8977 178.493 47.3977C178.709 47.8977 179.012 48.286 179.402 48.5625C179.796 48.839 180.258 48.9773 180.788 48.9773C181.137 48.9773 181.453 48.9167 181.737 48.7955C182.021 48.6742 182.262 48.5 182.459 48.2727C182.656 48.0455 182.796 47.7727 182.879 47.4545H184.22C184.144 47.9697 183.957 48.4337 183.658 48.8466C183.362 49.2557 182.97 49.5814 182.482 49.8239C181.997 50.0625 181.432 50.1818 180.788 50.1818ZM189.726 50.1818C188.938 50.1818 188.247 49.9943 187.652 49.6193C187.061 49.2443 186.599 48.7197 186.266 48.0455C185.936 47.3712 185.771 46.5833 185.771 45.6818C185.771 44.7727 185.936 43.9792 186.266 43.3011C186.599 42.6231 187.061 42.0966 187.652 41.7216C188.247 41.3466 188.938 41.1591 189.726 41.1591C190.514 41.1591 191.203 41.3466 191.794 41.7216C192.389 42.0966 192.851 42.6231 193.18 43.3011C193.514 43.9792 193.68 44.7727 193.68 45.6818C193.68 46.5833 193.514 47.3712 193.18 48.0455C192.851 48.7197 192.389 49.2443 191.794 49.6193C191.203 49.9943 190.514 50.1818 189.726 50.1818ZM189.726 48.9773C190.324 48.9773 190.817 48.8239 191.203 48.517C191.589 48.2102 191.875 47.8068 192.061 47.3068C192.247 46.8068 192.339 46.2652 192.339 45.6818C192.339 45.0985 192.247 44.5549 192.061 44.0511C191.875 43.5473 191.589 43.1402 191.203 42.8295C190.817 42.5189 190.324 42.3636 189.726 42.3636C189.127 42.3636 188.635 42.5189 188.249 42.8295C187.862 43.1402 187.576 43.5473 187.391 44.0511C187.205 44.5549 187.112 45.0985 187.112 45.6818C187.112 46.2652 187.205 46.8068 187.391 47.3068C187.576 47.8068 187.862 48.2102 188.249 48.517C188.635 48.8239 189.127 48.9773 189.726 48.9773ZM197.068 44.75V50H195.727V41.2727H197.023V42.6364H197.136C197.341 42.1932 197.652 41.8371 198.068 41.5682C198.485 41.2955 199.023 41.1591 199.682 41.1591C200.273 41.1591 200.79 41.2803 201.233 41.5227C201.676 41.7614 202.021 42.125 202.267 42.6136C202.513 43.0985 202.636 43.7121 202.636 44.4545V50H201.295V44.5455C201.295 43.8598 201.117 43.3258 200.761 42.9432C200.405 42.5568 199.917 42.3636 199.295 42.3636C198.867 42.3636 198.485 42.4564 198.148 42.642C197.814 42.8277 197.551 43.0985 197.358 43.4545C197.165 43.8106 197.068 44.2424 197.068 44.75ZM208.882 41.2727V42.4091H204.359V41.2727H208.882ZM205.678 39.1818H207.018V47.5C207.018 47.8788 207.073 48.1629 207.183 48.3523C207.297 48.5379 207.441 48.6629 207.615 48.7273C207.793 48.7879 207.981 48.8182 208.178 48.8182C208.325 48.8182 208.446 48.8106 208.541 48.7955C208.636 48.7765 208.712 48.7614 208.768 48.75L209.041 49.9545C208.95 49.9886 208.823 50.0227 208.661 50.0568C208.498 50.0947 208.291 50.1136 208.041 50.1136C207.662 50.1136 207.291 50.0322 206.928 49.8693C206.568 49.7064 206.268 49.4583 206.03 49.125C205.795 48.7917 205.678 48.3712 205.678 47.8636V39.1818ZM214.464 50.1818C213.624 50.1818 212.898 49.9962 212.288 49.625C211.682 49.25 211.214 48.7273 210.885 48.0568C210.559 47.3826 210.396 46.5985 210.396 45.7045C210.396 44.8106 210.559 44.0227 210.885 43.3409C211.214 42.6553 211.673 42.1212 212.26 41.7386C212.851 41.3523 213.54 41.1591 214.328 41.1591C214.783 41.1591 215.232 41.2348 215.675 41.3864C216.118 41.5379 216.521 41.7841 216.885 42.125C217.249 42.4621 217.538 42.9091 217.754 43.4659C217.97 44.0227 218.078 44.7083 218.078 45.5227V46.0909H211.351V44.9318H216.714C216.714 44.4394 216.616 44 216.419 43.6136C216.226 43.2273 215.949 42.9223 215.589 42.6989C215.233 42.4754 214.813 42.3636 214.328 42.3636C213.794 42.3636 213.332 42.4962 212.942 42.7614C212.555 43.0227 212.258 43.3636 212.05 43.7841C211.841 44.2045 211.737 44.6553 211.737 45.1364V45.9091C211.737 46.5682 211.851 47.1269 212.078 47.5852C212.309 48.0398 212.629 48.3864 213.038 48.625C213.447 48.8598 213.923 48.9773 214.464 48.9773C214.817 48.9773 215.135 48.928 215.419 48.8295C215.707 48.7273 215.955 48.5758 216.163 48.375C216.372 48.1705 216.533 47.9167 216.646 47.6136L217.942 47.9773C217.805 48.4167 217.576 48.803 217.254 49.1364C216.932 49.4659 216.535 49.7235 216.061 49.9091C215.588 50.0909 215.055 50.1818 214.464 50.1818ZM221.459 44.75V50H220.118V41.2727H221.413V42.6364H221.527C221.732 42.1932 222.042 41.8371 222.459 41.5682C222.875 41.2955 223.413 41.1591 224.072 41.1591C224.663 41.1591 225.18 41.2803 225.624 41.5227C226.067 41.7614 226.411 42.125 226.658 42.6136C226.904 43.0985 227.027 43.7121 227.027 44.4545V50H225.686V44.5455C225.686 43.8598 225.508 43.3258 225.152 42.9432C224.796 42.5568 224.307 42.3636 223.686 42.3636C223.258 42.3636 222.875 42.4564 222.538 42.642C222.205 42.8277 221.942 43.0985 221.749 43.4545C221.555 43.8106 221.459 44.2424 221.459 44.75ZM233.273 41.2727V42.4091H228.75V41.2727H233.273ZM230.068 39.1818H231.409V47.5C231.409 47.8788 231.464 48.1629 231.574 48.3523C231.688 48.5379 231.831 48.6629 232.006 48.7273C232.184 48.7879 232.371 48.8182 232.568 48.8182C232.716 48.8182 232.837 48.8106 232.932 48.7955C233.027 48.7765 233.102 48.7614 233.159 48.75L233.432 49.9545C233.341 49.9886 233.214 50.0227 233.051 50.0568C232.888 50.0947 232.682 50.1136 232.432 50.1136C232.053 50.1136 231.682 50.0322 231.318 49.8693C230.958 49.7064 230.659 49.4583 230.42 49.125C230.186 48.7917 230.068 48.3712 230.068 47.8636V39.1818ZM239.403 37.8182L235.653 51.75H234.426L238.176 37.8182H239.403ZM244.788 41.2727V42.4091H240.266V41.2727H244.788ZM241.584 39.1818H242.925V47.5C242.925 47.8788 242.98 48.1629 243.089 48.3523C243.203 48.5379 243.347 48.6629 243.521 48.7273C243.699 48.7879 243.887 48.8182 244.084 48.8182C244.232 48.8182 244.353 48.8106 244.447 48.7955C244.542 48.7765 244.618 48.7614 244.675 48.75L244.947 49.9545C244.857 49.9886 244.73 50.0227 244.567 50.0568C244.404 50.0947 244.197 50.1136 243.947 50.1136C243.569 50.1136 243.197 50.0322 242.834 49.8693C242.474 49.7064 242.175 49.4583 241.936 49.125C241.701 48.7917 241.584 48.3712 241.584 47.8636V39.1818ZM250.371 50.1818C249.53 50.1818 248.804 49.9962 248.195 49.625C247.589 49.25 247.121 48.7273 246.791 48.0568C246.465 47.3826 246.303 46.5985 246.303 45.7045C246.303 44.8106 246.465 44.0227 246.791 43.3409C247.121 42.6553 247.579 42.1212 248.166 41.7386C248.757 41.3523 249.446 41.1591 250.234 41.1591C250.689 41.1591 251.138 41.2348 251.581 41.3864C252.024 41.5379 252.428 41.7841 252.791 42.125C253.155 42.4621 253.445 42.9091 253.661 43.4659C253.876 44.0227 253.984 44.7083 253.984 45.5227V46.0909H247.257V44.9318H252.621C252.621 44.4394 252.522 44 252.325 43.6136C252.132 43.2273 251.856 42.9223 251.496 42.6989C251.14 42.4754 250.719 42.3636 250.234 42.3636C249.7 42.3636 249.238 42.4962 248.848 42.7614C248.462 43.0227 248.164 43.3636 247.956 43.7841C247.748 44.2045 247.643 44.6553 247.643 45.1364V45.9091C247.643 46.5682 247.757 47.1269 247.984 47.5852C248.215 48.0398 248.536 48.3864 248.945 48.625C249.354 48.8598 249.829 48.9773 250.371 48.9773C250.723 48.9773 251.041 48.928 251.325 48.8295C251.613 48.7273 251.861 48.5758 252.07 48.375C252.278 48.1705 252.439 47.9167 252.553 47.6136L253.848 47.9773C253.712 48.4167 253.482 48.803 253.161 49.1364C252.839 49.4659 252.441 49.7235 251.967 49.9091C251.494 50.0909 250.962 50.1818 250.371 50.1818ZM256.79 41.2727L258.881 44.8409L260.972 41.2727H262.517L259.699 45.6364L262.517 50H260.972L258.881 46.6136L256.79 50H255.244L258.017 45.6364L255.244 41.2727H256.79ZM268.226 41.2727V42.4091H263.703V41.2727H268.226ZM265.021 39.1818H266.362V47.5C266.362 47.8788 266.417 48.1629 266.527 48.3523C266.641 48.5379 266.785 48.6629 266.959 48.7273C267.137 48.7879 267.324 48.8182 267.521 48.8182C267.669 48.8182 267.79 48.8106 267.885 48.7955C267.98 48.7765 268.055 48.7614 268.112 48.75L268.385 49.9545C268.294 49.9886 268.167 50.0227 268.004 50.0568C267.841 50.0947 267.635 50.1136 267.385 50.1136C267.006 50.1136 266.635 50.0322 266.271 49.8693C265.911 49.7064 265.612 49.4583 265.374 49.125C265.139 48.7917 265.021 48.3712 265.021 47.8636V39.1818ZM274.357 37.8182L270.607 51.75H269.379L273.129 37.8182H274.357ZM32.5682 68.75V74H31.2273V65.2727H32.5227V66.6364H32.6364C32.8409 66.1932 33.1515 65.8371 33.5682 65.5682C33.9848 65.2955 34.5227 65.1591 35.1818 65.1591C35.7727 65.1591 36.2898 65.2803 36.733 65.5227C37.1761 65.7614 37.5208 66.125 37.767 66.6136C38.0133 67.0985 38.1364 67.7121 38.1364 68.4545V74H36.7955V68.5455C36.7955 67.8598 36.6174 67.3258 36.2614 66.9432C35.9053 66.5568 35.4167 66.3636 34.7955 66.3636C34.3674 66.3636 33.9848 66.4564 33.6477 66.642C33.3144 66.8277 33.0511 67.0985 32.858 67.4545C32.6648 67.8106 32.5682 68.2424 32.5682 68.75ZM44.2457 74.1818C43.4048 74.1818 42.6795 73.9962 42.0696 73.625C41.4635 73.25 40.9957 72.7273 40.6662 72.0568C40.3404 71.3826 40.1776 70.5985 40.1776 69.7045C40.1776 68.8106 40.3404 68.0227 40.6662 67.3409C40.9957 66.6553 41.4541 66.1212 42.0412 65.7386C42.6321 65.3523 43.3215 65.1591 44.1094 65.1591C44.5639 65.1591 45.0128 65.2348 45.456 65.3864C45.8991 65.5379 46.3026 65.7841 46.6662 66.125C47.0298 66.4621 47.3196 66.9091 47.5355 67.4659C47.7514 68.0227 47.8594 68.7083 47.8594 69.5227V70.0909H41.1321V68.9318H46.4957C46.4957 68.4394 46.3973 68 46.2003 67.6136C46.0071 67.2273 45.7306 66.9223 45.3707 66.6989C45.0147 66.4754 44.5942 66.3636 44.1094 66.3636C43.5753 66.3636 43.1132 66.4962 42.723 66.7614C42.3366 67.0227 42.0393 67.3636 41.831 67.7841C41.6226 68.2045 41.5185 68.6553 41.5185 69.1364V69.9091C41.5185 70.5682 41.6321 71.1269 41.8594 71.5852C42.0904 72.0398 42.4105 72.3864 42.8196 72.625C43.2287 72.8598 43.7041 72.9773 44.2457 72.9773C44.598 72.9773 44.9162 72.928 45.2003 72.8295C45.4882 72.7273 45.7363 72.5758 45.9446 72.375C46.1529 72.1705 46.3139 71.9167 46.4276 71.6136L47.723 71.9773C47.5866 72.4167 47.3575 72.803 47.0355 73.1364C46.7135 73.4659 46.3158 73.7235 45.8423 73.9091C45.3688 74.0909 44.8366 74.1818 44.2457 74.1818ZM55.3991 70.4318V65.2727H56.7401V74H55.3991V72.5227H55.3082C55.1037 72.9659 54.7855 73.3428 54.3537 73.6534C53.9219 73.9602 53.3764 74.1136 52.7173 74.1136C52.1719 74.1136 51.687 73.9943 51.2628 73.7557C50.8385 73.5133 50.5052 73.1496 50.2628 72.6648C50.0204 72.1761 49.8991 71.5606 49.8991 70.8182V65.2727H51.2401V70.7273C51.2401 71.3636 51.4181 71.8712 51.7741 72.25C52.134 72.6288 52.5923 72.8182 53.1491 72.8182C53.4825 72.8182 53.8215 72.733 54.1662 72.5625C54.5147 72.392 54.8063 72.1307 55.0412 71.7784C55.2798 71.4261 55.3991 70.9773 55.3991 70.4318ZM62.9915 65.2727V66.4091H58.4688V65.2727H62.9915ZM59.7869 63.1818H61.1278V71.5C61.1278 71.8788 61.1828 72.1629 61.2926 72.3523C61.4063 72.5379 61.5502 72.6629 61.7244 72.7273C61.9025 72.7879 62.09 72.8182 62.2869 72.8182C62.4347 72.8182 62.5559 72.8106 62.6506 72.7955C62.7453 72.7765 62.821 72.7614 62.8778 72.75L63.1506 73.9545C63.0597 73.9886 62.9328 74.0227 62.7699 74.0568C62.607 74.0947 62.4006 74.1136 62.1506 74.1136C61.7718 74.1136 61.4006 74.0322 61.0369 73.8693C60.6771 73.7064 60.3778 73.4583 60.1392 73.125C59.9044 72.7917 59.7869 72.3712 59.7869 71.8636V63.1818ZM65.0085 74V65.2727H66.304V66.5909H66.3949C66.554 66.1591 66.8419 65.8087 67.2585 65.5398C67.6752 65.2708 68.1449 65.1364 68.6676 65.1364C68.7661 65.1364 68.8892 65.1383 69.0369 65.142C69.1847 65.1458 69.2964 65.1515 69.3722 65.1591V66.5227C69.3267 66.5114 69.2225 66.4943 69.0597 66.4716C68.9006 66.4451 68.732 66.4318 68.554 66.4318C68.1297 66.4318 67.7509 66.5208 67.4176 66.6989C67.0881 66.8731 66.8267 67.1155 66.6335 67.4261C66.4441 67.733 66.3494 68.0833 66.3494 68.4773V74H65.0085ZM73.5298 74.2045C72.9768 74.2045 72.4749 74.1004 72.0241 73.892C71.5734 73.6799 71.2154 73.375 70.9503 72.9773C70.6851 72.5758 70.5526 72.0909 70.5526 71.5227C70.5526 71.0227 70.651 70.6174 70.848 70.3068C71.045 69.9924 71.3082 69.7462 71.6378 69.5682C71.9673 69.3902 72.331 69.2576 72.7287 69.1705C73.1302 69.0795 73.5336 69.0076 73.9389 68.9545C74.4692 68.8864 74.8991 68.8352 75.2287 68.8011C75.562 68.7633 75.8045 68.7008 75.956 68.6136C76.1113 68.5265 76.1889 68.375 76.1889 68.1591V68.1136C76.1889 67.553 76.0355 67.1174 75.7287 66.8068C75.4257 66.4962 74.9654 66.3409 74.348 66.3409C73.7079 66.3409 73.206 66.4811 72.8423 66.7614C72.4787 67.0417 72.223 67.3409 72.0753 67.6591L70.8026 67.2045C71.0298 66.6742 71.3329 66.2614 71.7116 65.9659C72.0942 65.6667 72.5109 65.4583 72.9616 65.3409C73.4162 65.2197 73.8632 65.1591 74.3026 65.1591C74.5829 65.1591 74.9048 65.1932 75.2685 65.2614C75.6359 65.3258 75.9901 65.4602 76.331 65.6648C76.6757 65.8693 76.9616 66.178 77.1889 66.5909C77.4162 67.0038 77.5298 67.5568 77.5298 68.25V74H76.1889V72.8182H76.1207C76.0298 73.0076 75.8783 73.2102 75.6662 73.4261C75.4541 73.642 75.1719 73.8258 74.8196 73.9773C74.4673 74.1288 74.0374 74.2045 73.5298 74.2045ZM73.7344 73C74.2647 73 74.7116 72.8958 75.0753 72.6875C75.4427 72.4792 75.7192 72.2102 75.9048 71.8807C76.0942 71.5511 76.1889 71.2045 76.1889 70.8409V69.6136C76.1321 69.6818 76.0071 69.7443 75.8139 69.8011C75.6245 69.8542 75.4048 69.9015 75.1548 69.9432C74.9086 69.9811 74.6681 70.0152 74.4332 70.0455C74.2022 70.072 74.0147 70.0947 73.8707 70.1136C73.5223 70.1591 73.1965 70.233 72.8935 70.3352C72.5942 70.4337 72.3518 70.5833 72.1662 70.7841C71.9844 70.9811 71.8935 71.25 71.8935 71.5909C71.8935 72.0568 72.0658 72.4091 72.4105 72.6477C72.759 72.8826 73.2003 73 73.7344 73ZM81.3182 62.3636V74H79.9773V62.3636H81.3182ZM87.8878 61.8182L84.1378 75.75H82.9105L86.6605 61.8182H87.8878ZM89.4773 77.2727V65.2727H90.7727V66.6591H90.9318C91.0303 66.5076 91.1667 66.3144 91.3409 66.0795C91.5189 65.8409 91.7727 65.6288 92.1023 65.4432C92.4356 65.2538 92.8864 65.1591 93.4545 65.1591C94.1894 65.1591 94.8371 65.3428 95.3977 65.7102C95.9583 66.0777 96.3958 66.5985 96.7102 67.2727C97.0246 67.947 97.1818 68.7424 97.1818 69.6591C97.1818 70.5833 97.0246 71.3845 96.7102 72.0625C96.3958 72.7367 95.9602 73.2595 95.4034 73.6307C94.8466 73.9981 94.2045 74.1818 93.4773 74.1818C92.9167 74.1818 92.4678 74.089 92.1307 73.9034C91.7936 73.714 91.5341 73.5 91.3523 73.2614C91.1705 73.0189 91.0303 72.8182 90.9318 72.6591H90.8182V77.2727H89.4773ZM90.7955 69.6364C90.7955 70.2955 90.892 70.8769 91.0852 71.3807C91.2784 71.8807 91.5606 72.2727 91.9318 72.5568C92.303 72.8371 92.7576 72.9773 93.2955 72.9773C93.8561 72.9773 94.3239 72.8295 94.6989 72.5341C95.0777 72.2348 95.3617 71.8333 95.5511 71.3295C95.7443 70.822 95.8409 70.2576 95.8409 69.6364C95.8409 69.0227 95.7462 68.4697 95.5568 67.9773C95.3712 67.4811 95.089 67.089 94.7102 66.8011C94.3352 66.5095 93.8636 66.3636 93.2955 66.3636C92.75 66.3636 92.2917 66.5019 91.9205 66.7784C91.5492 67.0511 91.2689 67.4337 91.0795 67.9261C90.8902 68.4148 90.7955 68.9848 90.7955 69.6364ZM99.2273 74V65.2727H100.523V66.5909H100.614C100.773 66.1591 101.061 65.8087 101.477 65.5398C101.894 65.2708 102.364 65.1364 102.886 65.1364C102.985 65.1364 103.108 65.1383 103.256 65.142C103.403 65.1458 103.515 65.1515 103.591 65.1591V66.5227C103.545 66.5114 103.441 66.4943 103.278 66.4716C103.119 66.4451 102.951 66.4318 102.773 66.4318C102.348 66.4318 101.97 66.5208 101.636 66.6989C101.307 66.8731 101.045 67.1155 100.852 67.4261C100.663 67.733 100.568 68.0833 100.568 68.4773V74H99.2273ZM105.18 74V65.2727H106.521V74H105.18ZM105.862 63.8182C105.601 63.8182 105.375 63.7292 105.186 63.5511C105 63.3731 104.908 63.1591 104.908 62.9091C104.908 62.6591 105 62.4451 105.186 62.267C105.375 62.089 105.601 62 105.862 62C106.124 62 106.347 62.089 106.533 62.267C106.722 62.4451 106.817 62.6591 106.817 62.9091C106.817 63.1591 106.722 63.3731 106.533 63.5511C106.347 63.7292 106.124 63.8182 105.862 63.8182ZM108.977 74V65.2727H110.273V66.6364H110.386C110.568 66.1705 110.862 65.8087 111.267 65.5511C111.672 65.2898 112.159 65.1591 112.727 65.1591C113.303 65.1591 113.782 65.2898 114.165 65.5511C114.551 65.8087 114.852 66.1705 115.068 66.6364H115.159C115.383 66.1856 115.718 65.8277 116.165 65.5625C116.612 65.2936 117.148 65.1591 117.773 65.1591C118.553 65.1591 119.191 65.4034 119.688 65.892C120.184 66.3769 120.432 67.1326 120.432 68.1591V74H119.091V68.1591C119.091 67.5152 118.915 67.0549 118.562 66.7784C118.21 66.5019 117.795 66.3636 117.318 66.3636C116.705 66.3636 116.229 66.5492 115.892 66.9205C115.555 67.2879 115.386 67.7538 115.386 68.3182V74H114.023V68.0227C114.023 67.5265 113.862 67.1269 113.54 66.8239C113.218 66.517 112.803 66.3636 112.295 66.3636C111.947 66.3636 111.621 66.4564 111.318 66.642C111.019 66.8277 110.777 67.0852 110.591 67.4148C110.409 67.7405 110.318 68.1174 110.318 68.5455V74H108.977ZM125.452 74.2045C124.899 74.2045 124.397 74.1004 123.946 73.892C123.495 73.6799 123.137 73.375 122.872 72.9773C122.607 72.5758 122.474 72.0909 122.474 71.5227C122.474 71.0227 122.573 70.6174 122.77 70.3068C122.967 69.9924 123.23 69.7462 123.56 69.5682C123.889 69.3902 124.253 69.2576 124.651 69.1705C125.052 69.0795 125.455 69.0076 125.861 68.9545C126.391 68.8864 126.821 68.8352 127.151 68.8011C127.484 68.7633 127.726 68.7008 127.878 68.6136C128.033 68.5265 128.111 68.375 128.111 68.1591V68.1136C128.111 67.553 127.957 67.1174 127.651 66.8068C127.348 66.4962 126.887 66.3409 126.27 66.3409C125.63 66.3409 125.128 66.4811 124.764 66.7614C124.401 67.0417 124.145 67.3409 123.997 67.6591L122.724 67.2045C122.952 66.6742 123.255 66.2614 123.634 65.9659C124.016 65.6667 124.433 65.4583 124.884 65.3409C125.338 65.2197 125.785 65.1591 126.224 65.1591C126.505 65.1591 126.827 65.1932 127.19 65.2614C127.558 65.3258 127.912 65.4602 128.253 65.6648C128.598 65.8693 128.884 66.178 129.111 66.5909C129.338 67.0038 129.452 67.5568 129.452 68.25V74H128.111V72.8182H128.043C127.952 73.0076 127.8 73.2102 127.588 73.4261C127.376 73.642 127.094 73.8258 126.741 73.9773C126.389 74.1288 125.959 74.2045 125.452 74.2045ZM125.656 73C126.187 73 126.634 72.8958 126.997 72.6875C127.365 72.4792 127.641 72.2102 127.827 71.8807C128.016 71.5511 128.111 71.2045 128.111 70.8409V69.6136C128.054 69.6818 127.929 69.7443 127.736 69.8011C127.546 69.8542 127.327 69.9015 127.077 69.9432C126.83 69.9811 126.59 70.0152 126.355 70.0455C126.124 70.072 125.937 70.0947 125.793 70.1136C125.444 70.1591 125.118 70.233 124.815 70.3352C124.516 70.4337 124.274 70.5833 124.088 70.7841C123.906 70.9811 123.815 71.25 123.815 71.5909C123.815 72.0568 123.988 72.4091 124.332 72.6477C124.681 72.8826 125.122 73 125.656 73ZM131.899 74V65.2727H133.195V66.5909H133.286C133.445 66.1591 133.732 65.8087 134.149 65.5398C134.566 65.2708 135.036 65.1364 135.558 65.1364C135.657 65.1364 135.78 65.1383 135.928 65.142C136.075 65.1458 136.187 65.1515 136.263 65.1591V66.5227C136.217 66.5114 136.113 66.4943 135.95 66.4716C135.791 66.4451 135.623 66.4318 135.445 66.4318C135.02 66.4318 134.642 66.5208 134.308 66.6989C133.979 66.8731 133.717 67.1155 133.524 67.4261C133.335 67.733 133.24 68.0833 133.24 68.4773V74H131.899ZM138.982 77.25C138.754 77.25 138.552 77.2311 138.374 77.1932C138.196 77.1591 138.072 77.125 138.004 77.0909L138.345 75.9091C138.834 76.0341 139.241 76.0303 139.567 75.8977C139.893 75.7689 140.175 75.3788 140.413 74.7273L140.663 74.0455L137.436 65.2727H138.891L141.3 72.2273H141.391L143.8 65.2727L145.266 65.2955L141.55 75.2727C141.383 75.7159 141.177 76.0833 140.93 76.375C140.684 76.6705 140.398 76.8902 140.072 77.0341C139.75 77.178 139.387 77.25 138.982 77.25ZM30.7727 87.6136V86.3636H39.5V87.6136H35.8409V98H34.4318V87.6136H30.7727ZM43.8864 98.1818C43.0455 98.1818 42.3201 97.9962 41.7102 97.625C41.1042 97.25 40.6364 96.7273 40.3068 96.0568C39.9811 95.3826 39.8182 94.5985 39.8182 93.7045C39.8182 92.8106 39.9811 92.0227 40.3068 91.3409C40.6364 90.6553 41.0947 90.1212 41.6818 89.7386C42.2727 89.3523 42.9621 89.1591 43.75 89.1591C44.2045 89.1591 44.6534 89.2348 45.0966 89.3864C45.5398 89.5379 45.9432 89.7841 46.3068 90.125C46.6705 90.4621 46.9602 90.9091 47.1761 91.4659C47.392 92.0227 47.5 92.7083 47.5 93.5227V94.0909H40.7727V92.9318H46.1364C46.1364 92.4394 46.0379 92 45.8409 91.6136C45.6477 91.2273 45.3712 90.9223 45.0114 90.6989C44.6553 90.4754 44.2348 90.3636 43.75 90.3636C43.2159 90.3636 42.7538 90.4962 42.3636 90.7614C41.9773 91.0227 41.6799 91.3636 41.4716 91.7841C41.2633 92.2045 41.1591 92.6553 41.1591 93.1364V93.9091C41.1591 94.5682 41.2727 95.1269 41.5 95.5852C41.7311 96.0398 42.0511 96.3864 42.4602 96.625C42.8693 96.8598 43.3447 96.9773 43.8864 96.9773C44.2386 96.9773 44.5568 96.928 44.8409 96.8295C45.1288 96.7273 45.3769 96.5758 45.5852 96.375C45.7936 96.1705 45.9545 95.9167 46.0682 95.6136L47.3636 95.9773C47.2273 96.4167 46.9981 96.803 46.6761 97.1364C46.3542 97.4659 45.9564 97.7235 45.483 97.9091C45.0095 98.0909 44.4773 98.1818 43.8864 98.1818ZM50.3054 89.2727L52.3963 92.8409L54.4872 89.2727H56.0327L53.2145 93.6364L56.0327 98H54.4872L52.3963 94.6136L50.3054 98H48.7599L51.5327 93.6364L48.7599 89.2727H50.3054ZM61.7415 89.2727V90.4091H57.2188V89.2727H61.7415ZM58.5369 87.1818H59.8778V95.5C59.8778 95.8788 59.9328 96.1629 60.0426 96.3523C60.1563 96.5379 60.3002 96.6629 60.4744 96.7273C60.6525 96.7879 60.84 96.8182 61.0369 96.8182C61.1847 96.8182 61.3059 96.8106 61.4006 96.7955C61.4953 96.7765 61.571 96.7614 61.6278 96.75L61.9006 97.9545C61.8097 97.9886 61.6828 98.0227 61.5199 98.0568C61.357 98.0947 61.1506 98.1136 60.9006 98.1136C60.5218 98.1136 60.1506 98.0322 59.7869 97.8693C59.4271 97.7064 59.1278 97.4583 58.8892 97.125C58.6544 96.7917 58.5369 96.3712 58.5369 95.8636V87.1818ZM64.7358 98.0909C64.4555 98.0909 64.215 97.9905 64.0142 97.7898C63.8134 97.589 63.7131 97.3485 63.7131 97.0682C63.7131 96.7879 63.8134 96.5473 64.0142 96.3466C64.215 96.1458 64.4555 96.0455 64.7358 96.0455C65.0161 96.0455 65.2566 96.1458 65.4574 96.3466C65.6581 96.5473 65.7585 96.7879 65.7585 97.0682C65.7585 97.2538 65.7112 97.4242 65.6165 97.5795C65.5256 97.7348 65.4025 97.8598 65.2472 97.9545C65.0956 98.0455 64.9252 98.0909 64.7358 98.0909ZM64.7358 91.6136C64.4555 91.6136 64.215 91.5133 64.0142 91.3125C63.8134 91.1117 63.7131 90.8712 63.7131 90.5909C63.7131 90.3106 63.8134 90.0701 64.0142 89.8693C64.215 89.6686 64.4555 89.5682 64.7358 89.5682C65.0161 89.5682 65.2566 89.6686 65.4574 89.8693C65.6581 90.0701 65.7585 90.3106 65.7585 90.5909C65.7585 90.7765 65.7112 90.947 65.6165 91.1023C65.5256 91.2576 65.4025 91.3826 65.2472 91.4773C65.0956 91.5682 64.9252 91.6136 64.7358 91.6136ZM75.233 98.2045C74.6799 98.2045 74.178 98.1004 73.7273 97.892C73.2765 97.6799 72.9186 97.375 72.6534 96.9773C72.3883 96.5758 72.2557 96.0909 72.2557 95.5227C72.2557 95.0227 72.3542 94.6174 72.5511 94.3068C72.7481 93.9924 73.0114 93.7462 73.3409 93.5682C73.6705 93.3902 74.0341 93.2576 74.4318 93.1705C74.8333 93.0795 75.2367 93.0076 75.642 92.9545C76.1723 92.8864 76.6023 92.8352 76.9318 92.8011C77.2652 92.7633 77.5076 92.7008 77.6591 92.6136C77.8144 92.5265 77.892 92.375 77.892 92.1591V92.1136C77.892 91.553 77.7386 91.1174 77.4318 90.8068C77.1288 90.4962 76.6686 90.3409 76.0511 90.3409C75.411 90.3409 74.9091 90.4811 74.5455 90.7614C74.1818 91.0417 73.9261 91.3409 73.7784 91.6591L72.5057 91.2045C72.733 90.6742 73.036 90.2614 73.4148 89.9659C73.7973 89.6667 74.214 89.4583 74.6648 89.3409C75.1193 89.2197 75.5663 89.1591 76.0057 89.1591C76.286 89.1591 76.608 89.1932 76.9716 89.2614C77.339 89.3258 77.6932 89.4602 78.0341 89.6648C78.3788 89.8693 78.6648 90.178 78.892 90.5909C79.1193 91.0038 79.233 91.5568 79.233 92.25V98H77.892V96.8182H77.8239C77.733 97.0076 77.5814 97.2102 77.3693 97.4261C77.1572 97.642 76.875 97.8258 76.5227 97.9773C76.1705 98.1288 75.7405 98.2045 75.233 98.2045ZM75.4375 97C75.9678 97 76.4148 96.8958 76.7784 96.6875C77.1458 96.4792 77.4223 96.2102 77.608 95.8807C77.7973 95.5511 77.892 95.2045 77.892 94.8409V93.6136C77.8352 93.6818 77.7102 93.7443 77.517 93.8011C77.3277 93.8542 77.108 93.9015 76.858 93.9432C76.6117 93.9811 76.3712 94.0152 76.1364 94.0455C75.9053 94.072 75.7178 94.0947 75.5739 94.1136C75.2254 94.1591 74.8996 94.233 74.5966 94.3352C74.2973 94.4337 74.0549 94.5833 73.8693 94.7841C73.6875 94.9811 73.5966 95.25 73.5966 95.5909C73.5966 96.0568 73.7689 96.4091 74.1136 96.6477C74.4621 96.8826 74.9034 97 75.4375 97ZM81.6804 101.273V89.2727H82.9759V90.6591H83.1349C83.2334 90.5076 83.3698 90.3144 83.544 90.0795C83.7221 89.8409 83.9759 89.6288 84.3054 89.4432C84.6387 89.2538 85.0895 89.1591 85.6577 89.1591C86.3925 89.1591 87.0402 89.3428 87.6009 89.7102C88.1615 90.0777 88.599 90.5985 88.9134 91.2727C89.2277 91.947 89.3849 92.7424 89.3849 93.6591C89.3849 94.5833 89.2277 95.3845 88.9134 96.0625C88.599 96.7367 88.1634 97.2595 87.6065 97.6307C87.0497 97.9981 86.4077 98.1818 85.6804 98.1818C85.1198 98.1818 84.6709 98.089 84.3338 97.9034C83.9967 97.714 83.7372 97.5 83.5554 97.2614C83.3736 97.0189 83.2334 96.8182 83.1349 96.6591H83.0213V101.273H81.6804ZM82.9986 93.6364C82.9986 94.2955 83.0952 94.8769 83.2884 95.3807C83.4815 95.8807 83.7637 96.2727 84.1349 96.5568C84.5062 96.8371 84.9607 96.9773 85.4986 96.9773C86.0592 96.9773 86.527 96.8295 86.902 96.5341C87.2808 96.2348 87.5649 95.8333 87.7543 95.3295C87.9474 94.822 88.044 94.2576 88.044 93.6364C88.044 93.0227 87.9493 92.4697 87.7599 91.9773C87.5743 91.4811 87.2921 91.089 86.9134 90.8011C86.5384 90.5095 86.0668 90.3636 85.4986 90.3636C84.9531 90.3636 84.4948 90.5019 84.1236 90.7784C83.7524 91.0511 83.4721 91.4337 83.2827 91.9261C83.0933 92.4148 82.9986 92.9848 82.9986 93.6364ZM91.4304 101.273V89.2727H92.7259V90.6591H92.8849C92.9834 90.5076 93.1198 90.3144 93.294 90.0795C93.4721 89.8409 93.7259 89.6288 94.0554 89.4432C94.3887 89.2538 94.8395 89.1591 95.4077 89.1591C96.1425 89.1591 96.7902 89.3428 97.3509 89.7102C97.9115 90.0777 98.349 90.5985 98.6634 91.2727C98.9777 91.947 99.1349 92.7424 99.1349 93.6591C99.1349 94.5833 98.9777 95.3845 98.6634 96.0625C98.349 96.7367 97.9134 97.2595 97.3565 97.6307C96.7997 97.9981 96.1577 98.1818 95.4304 98.1818C94.8698 98.1818 94.4209 98.089 94.0838 97.9034C93.7467 97.714 93.4872 97.5 93.3054 97.2614C93.1236 97.0189 92.9834 96.8182 92.8849 96.6591H92.7713V101.273H91.4304ZM92.7486 93.6364C92.7486 94.2955 92.8452 94.8769 93.0384 95.3807C93.2315 95.8807 93.5137 96.2727 93.8849 96.5568C94.2562 96.8371 94.7107 96.9773 95.2486 96.9773C95.8092 96.9773 96.277 96.8295 96.652 96.5341C97.0308 96.2348 97.3149 95.8333 97.5043 95.3295C97.6974 94.822 97.794 94.2576 97.794 93.6364C97.794 93.0227 97.6993 92.4697 97.5099 91.9773C97.3243 91.4811 97.0421 91.089 96.6634 90.8011C96.2884 90.5095 95.8168 90.3636 95.2486 90.3636C94.7031 90.3636 94.2448 90.5019 93.8736 90.7784C93.5024 91.0511 93.2221 91.4337 93.0327 91.9261C92.8433 92.4148 92.7486 92.9848 92.7486 93.6364ZM107.362 91.2273L106.158 91.5682C106.082 91.3674 105.97 91.1723 105.822 90.983C105.679 90.7898 105.482 90.6307 105.232 90.5057C104.982 90.3807 104.661 90.3182 104.271 90.3182C103.737 90.3182 103.292 90.4413 102.936 90.6875C102.584 90.9299 102.408 91.2386 102.408 91.6136C102.408 91.947 102.529 92.2102 102.771 92.4034C103.014 92.5966 103.393 92.7576 103.908 92.8864L105.203 93.2045C105.983 93.3939 106.565 93.6837 106.947 94.0739C107.33 94.4602 107.521 94.9583 107.521 95.5682C107.521 96.0682 107.377 96.5152 107.089 96.9091C106.805 97.303 106.408 97.6136 105.896 97.8409C105.385 98.0682 104.79 98.1818 104.112 98.1818C103.222 98.1818 102.485 97.9886 101.902 97.6023C101.319 97.2159 100.949 96.6515 100.794 95.9091L102.067 95.5909C102.188 96.0606 102.417 96.4129 102.754 96.6477C103.095 96.8826 103.54 97 104.089 97C104.714 97 105.211 96.8674 105.578 96.6023C105.949 96.3333 106.135 96.0114 106.135 95.6364C106.135 95.3333 106.029 95.0795 105.817 94.875C105.605 94.6667 105.279 94.5114 104.839 94.4091L103.385 94.0682C102.586 93.8788 101.999 93.5852 101.624 93.1875C101.252 92.786 101.067 92.2841 101.067 91.6818C101.067 91.1894 101.205 90.7538 101.482 90.375C101.762 89.9962 102.143 89.6989 102.624 89.483C103.108 89.267 103.658 89.1591 104.271 89.1591C105.135 89.1591 105.813 89.3485 106.305 89.7273C106.802 90.1061 107.154 90.6061 107.362 91.2273ZM113.653 85.8182L109.903 99.75H108.676L112.426 85.8182H113.653ZM115.425 98V86.3636H116.766V90.6591H116.879C116.978 90.5076 117.114 90.3144 117.288 90.0795C117.466 89.8409 117.72 89.6288 118.05 89.4432C118.383 89.2538 118.834 89.1591 119.402 89.1591C120.137 89.1591 120.785 89.3428 121.345 89.7102C121.906 90.0777 122.343 90.5985 122.658 91.2727C122.972 91.947 123.129 92.7424 123.129 93.6591C123.129 94.5833 122.972 95.3845 122.658 96.0625C122.343 96.7367 121.908 97.2595 121.351 97.6307C120.794 97.9981 120.152 98.1818 119.425 98.1818C118.864 98.1818 118.415 98.089 118.078 97.9034C117.741 97.714 117.482 97.5 117.3 97.2614C117.118 97.0189 116.978 96.8182 116.879 96.6591H116.72V98H115.425ZM116.743 93.6364C116.743 94.2955 116.839 94.8769 117.033 95.3807C117.226 95.8807 117.508 96.2727 117.879 96.5568C118.25 96.8371 118.705 96.9773 119.243 96.9773C119.804 96.9773 120.271 96.8295 120.646 96.5341C121.025 96.2348 121.309 95.8333 121.499 95.3295C121.692 94.822 121.788 94.2576 121.788 93.6364C121.788 93.0227 121.694 92.4697 121.504 91.9773C121.319 91.4811 121.036 91.089 120.658 90.8011C120.283 90.5095 119.811 90.3636 119.243 90.3636C118.697 90.3636 118.239 90.5019 117.868 90.7784C117.497 91.0511 117.216 91.4337 117.027 91.9261C116.838 92.4148 116.743 92.9848 116.743 93.6364ZM128.726 98.1818C127.938 98.1818 127.247 97.9943 126.652 97.6193C126.061 97.2443 125.599 96.7197 125.266 96.0455C124.936 95.3712 124.771 94.5833 124.771 93.6818C124.771 92.7727 124.936 91.9792 125.266 91.3011C125.599 90.6231 126.061 90.0966 126.652 89.7216C127.247 89.3466 127.938 89.1591 128.726 89.1591C129.514 89.1591 130.203 89.3466 130.794 89.7216C131.389 90.0966 131.851 90.6231 132.18 91.3011C132.514 91.9792 132.68 92.7727 132.68 93.6818C132.68 94.5833 132.514 95.3712 132.18 96.0455C131.851 96.7197 131.389 97.2443 130.794 97.6193C130.203 97.9943 129.514 98.1818 128.726 98.1818ZM128.726 96.9773C129.324 96.9773 129.817 96.8239 130.203 96.517C130.589 96.2102 130.875 95.8068 131.061 95.3068C131.247 94.8068 131.339 94.2652 131.339 93.6818C131.339 93.0985 131.247 92.5549 131.061 92.0511C130.875 91.5473 130.589 91.1402 130.203 90.8295C129.817 90.5189 129.324 90.3636 128.726 90.3636C128.127 90.3636 127.635 90.5189 127.249 90.8295C126.862 91.1402 126.576 91.5473 126.391 92.0511C126.205 92.5549 126.112 93.0985 126.112 93.6818C126.112 94.2652 126.205 94.8068 126.391 95.3068C126.576 95.8068 126.862 96.2102 127.249 96.517C127.635 96.8239 128.127 96.9773 128.726 96.9773ZM138.023 98.1818C137.295 98.1818 136.653 97.9981 136.097 97.6307C135.54 97.2595 135.104 96.7367 134.79 96.0625C134.475 95.3845 134.318 94.5833 134.318 93.6591C134.318 92.7424 134.475 91.947 134.79 91.2727C135.104 90.5985 135.542 90.0777 136.102 89.7102C136.663 89.3428 137.311 89.1591 138.045 89.1591C138.614 89.1591 139.063 89.2538 139.392 89.4432C139.725 89.6288 139.979 89.8409 140.153 90.0795C140.331 90.3144 140.47 90.5076 140.568 90.6591H140.682V86.3636H142.023V98H140.727V96.6591H140.568C140.47 96.8182 140.33 97.0189 140.148 97.2614C139.966 97.5 139.706 97.714 139.369 97.9034C139.032 98.089 138.583 98.1818 138.023 98.1818ZM138.205 96.9773C138.742 96.9773 139.197 96.8371 139.568 96.5568C139.939 96.2727 140.222 95.8807 140.415 95.3807C140.608 94.8769 140.705 94.2955 140.705 93.6364C140.705 92.9848 140.61 92.4148 140.42 91.9261C140.231 91.4337 139.951 91.0511 139.58 90.7784C139.208 90.5019 138.75 90.3636 138.205 90.3636C137.636 90.3636 137.163 90.5095 136.784 90.8011C136.409 91.089 136.127 91.4811 135.938 91.9773C135.752 92.4697 135.659 93.0227 135.659 93.6364C135.659 94.2576 135.754 94.822 135.943 95.3295C136.136 95.8333 136.42 96.2348 136.795 96.5341C137.174 96.8295 137.644 96.9773 138.205 96.9773ZM145.528 101.25C145.301 101.25 145.098 101.231 144.92 101.193C144.742 101.159 144.619 101.125 144.551 101.091L144.892 99.9091C145.381 100.034 145.788 100.03 146.114 99.8977C146.439 99.7689 146.722 99.3788 146.96 98.7273L147.21 98.0455L143.983 89.2727H145.438L147.847 96.2273H147.938L150.347 89.2727L151.812 89.2955L148.097 99.2727C147.93 99.7159 147.723 100.083 147.477 100.375C147.231 100.67 146.945 100.89 146.619 101.034C146.297 101.178 145.934 101.25 145.528 101.25ZM156.794 85.8182L153.044 99.75H151.817L155.567 85.8182H156.794ZM158.565 98V86.3636H159.906V90.6591H160.02C160.118 90.5076 160.255 90.3144 160.429 90.0795C160.607 89.8409 160.861 89.6288 161.19 89.4432C161.524 89.2538 161.974 89.1591 162.543 89.1591C163.277 89.1591 163.925 89.3428 164.486 89.7102C165.046 90.0777 165.484 90.5985 165.798 91.2727C166.113 91.947 166.27 92.7424 166.27 93.6591C166.27 94.5833 166.113 95.3845 165.798 96.0625C165.484 96.7367 165.048 97.2595 164.491 97.6307C163.935 97.9981 163.293 98.1818 162.565 98.1818C162.005 98.1818 161.556 98.089 161.219 97.9034C160.882 97.714 160.622 97.5 160.44 97.2614C160.259 97.0189 160.118 96.8182 160.02 96.6591H159.861V98H158.565ZM159.884 93.6364C159.884 94.2955 159.98 94.8769 160.173 95.3807C160.366 95.8807 160.649 96.2727 161.02 96.5568C161.391 96.8371 161.846 96.9773 162.384 96.9773C162.944 96.9773 163.412 96.8295 163.787 96.5341C164.166 96.2348 164.45 95.8333 164.639 95.3295C164.832 94.822 164.929 94.2576 164.929 93.6364C164.929 93.0227 164.834 92.4697 164.645 91.9773C164.459 91.4811 164.177 91.089 163.798 90.8011C163.423 90.5095 162.952 90.3636 162.384 90.3636C161.838 90.3636 161.38 90.5019 161.009 90.7784C160.637 91.0511 160.357 91.4337 160.168 91.9261C159.978 92.4148 159.884 92.9848 159.884 93.6364ZM171.866 98.1818C171.079 98.1818 170.387 97.9943 169.793 97.6193C169.202 97.2443 168.74 96.7197 168.406 96.0455C168.077 95.3712 167.912 94.5833 167.912 93.6818C167.912 92.7727 168.077 91.9792 168.406 91.3011C168.74 90.6231 169.202 90.0966 169.793 89.7216C170.387 89.3466 171.079 89.1591 171.866 89.1591C172.654 89.1591 173.344 89.3466 173.935 89.7216C174.529 90.0966 174.991 90.6231 175.321 91.3011C175.654 91.9792 175.821 92.7727 175.821 93.6818C175.821 94.5833 175.654 95.3712 175.321 96.0455C174.991 96.7197 174.529 97.2443 173.935 97.6193C173.344 97.9943 172.654 98.1818 171.866 98.1818ZM171.866 96.9773C172.465 96.9773 172.957 96.8239 173.344 96.517C173.73 96.2102 174.016 95.8068 174.202 95.3068C174.387 94.8068 174.48 94.2652 174.48 93.6818C174.48 93.0985 174.387 92.5549 174.202 92.0511C174.016 91.5473 173.73 91.1402 173.344 90.8295C172.957 90.5189 172.465 90.3636 171.866 90.3636C171.268 90.3636 170.776 90.5189 170.389 90.8295C170.003 91.1402 169.717 91.5473 169.531 92.0511C169.346 92.5549 169.253 93.0985 169.253 93.6818C169.253 94.2652 169.346 94.8068 169.531 95.3068C169.717 95.8068 170.003 96.2102 170.389 96.517C170.776 96.8239 171.268 96.9773 171.866 96.9773ZM181.163 98.1818C180.436 98.1818 179.794 97.9981 179.237 97.6307C178.68 97.2595 178.245 96.7367 177.93 96.0625C177.616 95.3845 177.459 94.5833 177.459 93.6591C177.459 92.7424 177.616 91.947 177.93 91.2727C178.245 90.5985 178.682 90.0777 179.243 89.7102C179.804 89.3428 180.451 89.1591 181.186 89.1591C181.754 89.1591 182.203 89.2538 182.533 89.4432C182.866 89.6288 183.12 89.8409 183.294 90.0795C183.472 90.3144 183.61 90.5076 183.709 90.6591H183.822V86.3636H185.163V98H183.868V96.6591H183.709C183.61 96.8182 183.47 97.0189 183.288 97.2614C183.107 97.5 182.847 97.714 182.51 97.9034C182.173 98.089 181.724 98.1818 181.163 98.1818ZM181.345 96.9773C181.883 96.9773 182.338 96.8371 182.709 96.5568C183.08 96.2727 183.362 95.8807 183.555 95.3807C183.749 94.8769 183.845 94.2955 183.845 93.6364C183.845 92.9848 183.75 92.4148 183.561 91.9261C183.372 91.4337 183.091 91.0511 182.72 90.7784C182.349 90.5019 181.891 90.3636 181.345 90.3636C180.777 90.3636 180.304 90.5095 179.925 90.8011C179.55 91.089 179.268 91.4811 179.078 91.9773C178.893 92.4697 178.8 93.0227 178.8 93.6364C178.8 94.2576 178.894 94.822 179.084 95.3295C179.277 95.8333 179.561 96.2348 179.936 96.5341C180.315 96.8295 180.785 96.9773 181.345 96.9773ZM188.669 101.25C188.442 101.25 188.239 101.231 188.061 101.193C187.883 101.159 187.76 101.125 187.692 101.091L188.033 99.9091C188.521 100.034 188.929 100.03 189.254 99.8977C189.58 99.7689 189.862 99.3788 190.101 98.7273L190.351 98.0455L187.124 89.2727H188.578L190.987 96.2273H191.078L193.487 89.2727L194.953 89.2955L191.237 99.2727C191.071 99.7159 190.864 100.083 190.618 100.375C190.372 100.67 190.086 100.89 189.76 101.034C189.438 101.178 189.074 101.25 188.669 101.25ZM201.727 92.3864V93.6364H196.636V92.3864H201.727ZM31.2273 122V113.273H32.5227V114.636H32.6364C32.8182 114.17 33.1117 113.809 33.517 113.551C33.9223 113.29 34.4091 113.159 34.9773 113.159C35.553 113.159 36.0322 113.29 36.4148 113.551C36.8011 113.809 37.1023 114.17 37.3182 114.636H37.4091C37.6326 114.186 37.9678 113.828 38.4148 113.562C38.8617 113.294 39.3977 113.159 40.0227 113.159C40.803 113.159 41.4413 113.403 41.9375 113.892C42.4337 114.377 42.6818 115.133 42.6818 116.159V122H41.3409V116.159C41.3409 115.515 41.1648 115.055 40.8125 114.778C40.4602 114.502 40.0455 114.364 39.5682 114.364C38.9545 114.364 38.4792 114.549 38.142 114.92C37.8049 115.288 37.6364 115.754 37.6364 116.318V122H36.2727V116.023C36.2727 115.527 36.1117 115.127 35.7898 114.824C35.4678 114.517 35.053 114.364 34.5455 114.364C34.197 114.364 33.8712 114.456 33.5682 114.642C33.2689 114.828 33.0265 115.085 32.8409 115.415C32.6591 115.741 32.5682 116.117 32.5682 116.545V122H31.2273ZM45.1335 122V113.273H46.4744V122H45.1335ZM45.8153 111.818C45.554 111.818 45.3286 111.729 45.1392 111.551C44.9536 111.373 44.8608 111.159 44.8608 110.909C44.8608 110.659 44.9536 110.445 45.1392 110.267C45.3286 110.089 45.554 110 45.8153 110C46.0767 110 46.3002 110.089 46.4858 110.267C46.6752 110.445 46.7699 110.659 46.7699 110.909C46.7699 111.159 46.6752 111.373 46.4858 111.551C46.3002 111.729 46.0767 111.818 45.8153 111.818ZM52.2259 122.182C51.4986 122.182 50.8565 121.998 50.2997 121.631C49.7429 121.259 49.3073 120.737 48.9929 120.062C48.6785 119.384 48.5213 118.583 48.5213 117.659C48.5213 116.742 48.6785 115.947 48.9929 115.273C49.3073 114.598 49.7448 114.078 50.3054 113.71C50.866 113.343 51.5137 113.159 52.2486 113.159C52.8168 113.159 53.2656 113.254 53.5952 113.443C53.9285 113.629 54.1823 113.841 54.3565 114.08C54.5346 114.314 54.6728 114.508 54.7713 114.659H54.8849V110.364H56.2259V122H54.9304V120.659H54.7713C54.6728 120.818 54.5327 121.019 54.3509 121.261C54.169 121.5 53.9096 121.714 53.5724 121.903C53.2353 122.089 52.7865 122.182 52.2259 122.182ZM52.4077 120.977C52.9455 120.977 53.4001 120.837 53.7713 120.557C54.1425 120.273 54.4247 119.881 54.6179 119.381C54.8111 118.877 54.9077 118.295 54.9077 117.636C54.9077 116.985 54.813 116.415 54.6236 115.926C54.4342 115.434 54.1539 115.051 53.7827 114.778C53.4115 114.502 52.9531 114.364 52.4077 114.364C51.8395 114.364 51.366 114.509 50.9872 114.801C50.6122 115.089 50.33 115.481 50.1406 115.977C49.955 116.47 49.8622 117.023 49.8622 117.636C49.8622 118.258 49.9569 118.822 50.1463 119.33C50.3395 119.833 50.6236 120.235 50.9986 120.534C51.3774 120.83 51.8471 120.977 52.4077 120.977ZM65.0497 115.227L63.8452 115.568C63.7694 115.367 63.6577 115.172 63.5099 114.983C63.366 114.79 63.169 114.631 62.919 114.506C62.669 114.381 62.349 114.318 61.9588 114.318C61.4247 114.318 60.9796 114.441 60.6236 114.688C60.2713 114.93 60.0952 115.239 60.0952 115.614C60.0952 115.947 60.2164 116.21 60.4588 116.403C60.7012 116.597 61.08 116.758 61.5952 116.886L62.8906 117.205C63.6709 117.394 64.2524 117.684 64.6349 118.074C65.0175 118.46 65.2088 118.958 65.2088 119.568C65.2088 120.068 65.0649 120.515 64.777 120.909C64.4929 121.303 64.0952 121.614 63.5838 121.841C63.0724 122.068 62.4777 122.182 61.7997 122.182C60.9096 122.182 60.1728 121.989 59.5895 121.602C59.0062 121.216 58.6368 120.652 58.4815 119.909L59.7543 119.591C59.8755 120.061 60.1046 120.413 60.4418 120.648C60.7827 120.883 61.2277 121 61.777 121C62.402 121 62.8982 120.867 63.2656 120.602C63.6368 120.333 63.8224 120.011 63.8224 119.636C63.8224 119.333 63.7164 119.08 63.5043 118.875C63.2921 118.667 62.9664 118.511 62.527 118.409L61.0724 118.068C60.2732 117.879 59.6861 117.585 59.3111 117.188C58.9399 116.786 58.7543 116.284 58.7543 115.682C58.7543 115.189 58.8925 114.754 59.169 114.375C59.4493 113.996 59.83 113.699 60.3111 113.483C60.7959 113.267 61.3452 113.159 61.9588 113.159C62.8224 113.159 63.5005 113.348 63.9929 113.727C64.4891 114.106 64.8414 114.606 65.0497 115.227ZM67.2273 122V113.273H68.5682V122H67.2273ZM67.9091 111.818C67.6477 111.818 67.4223 111.729 67.233 111.551C67.0473 111.373 66.9545 111.159 66.9545 110.909C66.9545 110.659 67.0473 110.445 67.233 110.267C67.4223 110.089 67.6477 110 67.9091 110C68.1705 110 68.3939 110.089 68.5795 110.267C68.7689 110.445 68.8636 110.659 68.8636 110.909C68.8636 111.159 68.7689 111.373 68.5795 111.551C68.3939 111.729 68.1705 111.818 67.9091 111.818ZM70.7741 122V120.977L75.7287 114.614V114.523H70.9332V113.273H77.456V114.341L72.6378 120.659V120.75H77.6151V122H70.7741ZM83.0895 122.182C82.2486 122.182 81.5232 121.996 80.9134 121.625C80.3073 121.25 79.8395 120.727 79.5099 120.057C79.1842 119.383 79.0213 118.598 79.0213 117.705C79.0213 116.811 79.1842 116.023 79.5099 115.341C79.8395 114.655 80.2978 114.121 80.8849 113.739C81.4759 113.352 82.1652 113.159 82.9531 113.159C83.4077 113.159 83.8565 113.235 84.2997 113.386C84.7429 113.538 85.1463 113.784 85.5099 114.125C85.8736 114.462 86.1634 114.909 86.3793 115.466C86.5952 116.023 86.7031 116.708 86.7031 117.523V118.091H79.9759V116.932H85.3395C85.3395 116.439 85.241 116 85.044 115.614C84.8509 115.227 84.5743 114.922 84.2145 114.699C83.8584 114.475 83.438 114.364 82.9531 114.364C82.419 114.364 81.9569 114.496 81.5668 114.761C81.1804 115.023 80.883 115.364 80.6747 115.784C80.4664 116.205 80.3622 116.655 80.3622 117.136V117.909C80.3622 118.568 80.4759 119.127 80.7031 119.585C80.9342 120.04 81.2543 120.386 81.6634 120.625C82.0724 120.86 82.5478 120.977 83.0895 120.977C83.4418 120.977 83.7599 120.928 84.044 120.83C84.3319 120.727 84.58 120.576 84.7884 120.375C84.9967 120.17 85.1577 119.917 85.2713 119.614L86.5668 119.977C86.4304 120.417 86.2012 120.803 85.8793 121.136C85.5573 121.466 85.1596 121.723 84.6861 121.909C84.2126 122.091 83.6804 122.182 83.0895 122.182ZM94.7656 122V123.25H87.4929V122H94.7656ZM96.7116 122V113.273H98.0071V114.591H98.098C98.2571 114.159 98.545 113.809 98.9616 113.54C99.3783 113.271 99.848 113.136 100.371 113.136C100.469 113.136 100.592 113.138 100.74 113.142C100.888 113.146 101 113.152 101.075 113.159V114.523C101.03 114.511 100.926 114.494 100.763 114.472C100.604 114.445 100.435 114.432 100.257 114.432C99.8329 114.432 99.4541 114.521 99.1207 114.699C98.7912 114.873 98.5298 115.116 98.3366 115.426C98.1473 115.733 98.0526 116.083 98.0526 116.477V122H96.7116ZM106.058 122.182C105.217 122.182 104.492 121.996 103.882 121.625C103.276 121.25 102.808 120.727 102.479 120.057C102.153 119.383 101.99 118.598 101.99 117.705C101.99 116.811 102.153 116.023 102.479 115.341C102.808 114.655 103.267 114.121 103.854 113.739C104.445 113.352 105.134 113.159 105.922 113.159C106.376 113.159 106.825 113.235 107.268 113.386C107.712 113.538 108.115 113.784 108.479 114.125C108.842 114.462 109.132 114.909 109.348 115.466C109.564 116.023 109.672 116.708 109.672 117.523V118.091H102.945V116.932H108.308C108.308 116.439 108.21 116 108.013 115.614C107.82 115.227 107.543 114.922 107.183 114.699C106.827 114.475 106.407 114.364 105.922 114.364C105.388 114.364 104.926 114.496 104.536 114.761C104.149 115.023 103.852 115.364 103.643 115.784C103.435 116.205 103.331 116.655 103.331 117.136V117.909C103.331 118.568 103.445 119.127 103.672 119.585C103.903 120.04 104.223 120.386 104.632 120.625C105.041 120.86 105.517 120.977 106.058 120.977C106.411 120.977 106.729 120.928 107.013 120.83C107.301 120.727 107.549 120.576 107.757 120.375C107.965 120.17 108.126 119.917 108.24 119.614L109.536 119.977C109.399 120.417 109.17 120.803 108.848 121.136C108.526 121.466 108.128 121.723 107.655 121.909C107.181 122.091 106.649 122.182 106.058 122.182ZM115.234 125.455C114.587 125.455 114.03 125.371 113.564 125.205C113.098 125.042 112.71 124.826 112.399 124.557C112.092 124.292 111.848 124.008 111.666 123.705L112.734 122.955C112.856 123.114 113.009 123.295 113.195 123.5C113.38 123.708 113.634 123.888 113.956 124.04C114.282 124.195 114.708 124.273 115.234 124.273C115.939 124.273 116.52 124.102 116.979 123.761C117.437 123.42 117.666 122.886 117.666 122.159V120.386H117.553C117.454 120.545 117.314 120.742 117.132 120.977C116.954 121.208 116.696 121.415 116.359 121.597C116.026 121.775 115.575 121.864 115.007 121.864C114.303 121.864 113.67 121.697 113.109 121.364C112.553 121.03 112.111 120.545 111.786 119.909C111.464 119.273 111.303 118.5 111.303 117.591C111.303 116.697 111.46 115.919 111.774 115.256C112.089 114.589 112.526 114.074 113.087 113.71C113.647 113.343 114.295 113.159 115.03 113.159C115.598 113.159 116.049 113.254 116.382 113.443C116.719 113.629 116.977 113.841 117.155 114.08C117.337 114.314 117.477 114.508 117.575 114.659H117.712V113.273H119.007V122.25C119.007 123 118.837 123.61 118.496 124.08C118.159 124.553 117.704 124.9 117.132 125.119C116.564 125.343 115.931 125.455 115.234 125.455ZM115.189 120.659C115.727 120.659 116.181 120.536 116.553 120.29C116.924 120.044 117.206 119.689 117.399 119.227C117.592 118.765 117.689 118.212 117.689 117.568C117.689 116.939 117.594 116.384 117.405 115.903C117.215 115.422 116.935 115.045 116.564 114.773C116.193 114.5 115.734 114.364 115.189 114.364C114.621 114.364 114.147 114.508 113.768 114.795C113.393 115.083 113.111 115.47 112.922 115.955C112.736 116.439 112.643 116.977 112.643 117.568C112.643 118.174 112.738 118.71 112.928 119.176C113.121 119.638 113.405 120.002 113.78 120.267C114.159 120.528 114.628 120.659 115.189 120.659ZM126.962 118.432V113.273H128.303V122H126.962V120.523H126.871C126.666 120.966 126.348 121.343 125.916 121.653C125.484 121.96 124.939 122.114 124.28 122.114C123.734 122.114 123.25 121.994 122.825 121.756C122.401 121.513 122.068 121.15 121.825 120.665C121.583 120.176 121.462 119.561 121.462 118.818V113.273H122.803V118.727C122.803 119.364 122.981 119.871 123.337 120.25C123.696 120.629 124.155 120.818 124.712 120.818C125.045 120.818 125.384 120.733 125.729 120.562C126.077 120.392 126.369 120.131 126.604 119.778C126.842 119.426 126.962 118.977 126.962 118.432ZM132.099 110.364V122H130.759V110.364H132.099ZM137.124 122.205C136.571 122.205 136.069 122.1 135.618 121.892C135.167 121.68 134.809 121.375 134.544 120.977C134.279 120.576 134.146 120.091 134.146 119.523C134.146 119.023 134.245 118.617 134.442 118.307C134.639 117.992 134.902 117.746 135.232 117.568C135.561 117.39 135.925 117.258 136.322 117.17C136.724 117.08 137.127 117.008 137.533 116.955C138.063 116.886 138.493 116.835 138.822 116.801C139.156 116.763 139.398 116.701 139.55 116.614C139.705 116.527 139.783 116.375 139.783 116.159V116.114C139.783 115.553 139.629 115.117 139.322 114.807C139.019 114.496 138.559 114.341 137.942 114.341C137.302 114.341 136.8 114.481 136.436 114.761C136.072 115.042 135.817 115.341 135.669 115.659L134.396 115.205C134.624 114.674 134.927 114.261 135.305 113.966C135.688 113.667 136.105 113.458 136.555 113.341C137.01 113.22 137.457 113.159 137.896 113.159C138.177 113.159 138.499 113.193 138.862 113.261C139.23 113.326 139.584 113.46 139.925 113.665C140.269 113.869 140.555 114.178 140.783 114.591C141.01 115.004 141.124 115.557 141.124 116.25V122H139.783V120.818H139.714C139.624 121.008 139.472 121.21 139.26 121.426C139.048 121.642 138.766 121.826 138.413 121.977C138.061 122.129 137.631 122.205 137.124 122.205ZM137.328 121C137.858 121 138.305 120.896 138.669 120.688C139.036 120.479 139.313 120.21 139.499 119.881C139.688 119.551 139.783 119.205 139.783 118.841V117.614C139.726 117.682 139.601 117.744 139.408 117.801C139.218 117.854 138.999 117.902 138.749 117.943C138.502 117.981 138.262 118.015 138.027 118.045C137.796 118.072 137.608 118.095 137.464 118.114C137.116 118.159 136.79 118.233 136.487 118.335C136.188 118.434 135.946 118.583 135.76 118.784C135.578 118.981 135.487 119.25 135.487 119.591C135.487 120.057 135.66 120.409 136.004 120.648C136.353 120.883 136.794 121 137.328 121ZM143.571 122V113.273H144.866V114.591H144.957C145.116 114.159 145.404 113.809 145.821 113.54C146.238 113.271 146.707 113.136 147.23 113.136C147.329 113.136 147.452 113.138 147.599 113.142C147.747 113.146 147.859 113.152 147.935 113.159V114.523C147.889 114.511 147.785 114.494 147.622 114.472C147.463 114.445 147.295 114.432 147.116 114.432C146.692 114.432 146.313 114.521 145.98 114.699C145.651 114.873 145.389 115.116 145.196 115.426C145.007 115.733 144.912 116.083 144.912 116.477V122H143.571Z" fill="white" fill-opacity="0.95"/>
</svg>
