<svg width="245" height="160" viewBox="0 0 245 160" fill="none" xmlns="http://www.w3.org/2000/svg">
<mask id="path-1-inside-1_1267_50301" fill="white">
<path d="M0 0H245V160H0V0Z"/>
</mask>
<path d="M0 0H245V160H0V0Z" fill="#1A1A1A"/>
<path d="M245 160V161H246V160H245ZM244 0V160H246V0H244ZM245 159H0V161H245V159Z" fill="#707070" mask="url(#path-1-inside-1_1267_50301)"/>
<path d="M31.4091 86V74.3636H32.8182V79.5455H39.0227V74.3636H40.4318V86H39.0227V80.7955H32.8182V86H31.4091ZM46.6165 86.1818C45.8286 86.1818 45.1373 85.9943 44.5426 85.6193C43.9517 85.2443 43.4896 84.7197 43.1562 84.0455C42.8267 83.3712 42.6619 82.5833 42.6619 81.6818C42.6619 80.7727 42.8267 79.9792 43.1562 79.3011C43.4896 78.6231 43.9517 78.0966 44.5426 77.7216C45.1373 77.3466 45.8286 77.1591 46.6165 77.1591C47.4044 77.1591 48.0938 77.3466 48.6847 77.7216C49.2794 78.0966 49.7415 78.6231 50.071 79.3011C50.4044 79.9792 50.571 80.7727 50.571 81.6818C50.571 82.5833 50.4044 83.3712 50.071 84.0455C49.7415 84.7197 49.2794 85.2443 48.6847 85.6193C48.0938 85.9943 47.4044 86.1818 46.6165 86.1818ZM46.6165 84.9773C47.215 84.9773 47.7074 84.8239 48.0938 84.517C48.4801 84.2102 48.7661 83.8068 48.9517 83.3068C49.1373 82.8068 49.2301 82.2652 49.2301 81.6818C49.2301 81.0985 49.1373 80.5549 48.9517 80.0511C48.7661 79.5473 48.4801 79.1402 48.0938 78.8295C47.7074 78.5189 47.215 78.3636 46.6165 78.3636C46.018 78.3636 45.5256 78.5189 45.1392 78.8295C44.7528 79.1402 44.4669 79.5473 44.2812 80.0511C44.0956 80.5549 44.0028 81.0985 44.0028 81.6818C44.0028 82.2652 44.0956 82.8068 44.2812 83.3068C44.4669 83.8068 44.7528 84.2102 45.1392 84.517C45.5256 84.8239 46.018 84.9773 46.6165 84.9773ZM59.4418 77.2727L56.2145 86H54.8509L51.6236 77.2727H53.0781L55.4872 84.2273H55.5781L57.9872 77.2727H59.4418ZM64.5582 86.1818C63.7173 86.1818 62.992 85.9962 62.3821 85.625C61.776 85.25 61.3082 84.7273 60.9787 84.0568C60.6529 83.3826 60.4901 82.5985 60.4901 81.7045C60.4901 80.8106 60.6529 80.0227 60.9787 79.3409C61.3082 78.6553 61.7666 78.1212 62.3537 77.7386C62.9446 77.3523 63.634 77.1591 64.4219 77.1591C64.8764 77.1591 65.3253 77.2348 65.7685 77.3864C66.2116 77.5379 66.6151 77.7841 66.9787 78.125C67.3423 78.4621 67.6321 78.9091 67.848 79.4659C68.0639 80.0227 68.1719 80.7083 68.1719 81.5227V82.0909H61.4446V80.9318H66.8082C66.8082 80.4394 66.7098 80 66.5128 79.6136C66.3196 79.2273 66.0431 78.9223 65.6832 78.6989C65.3272 78.4754 64.9067 78.3636 64.4219 78.3636C63.8878 78.3636 63.4257 78.4962 63.0355 78.7614C62.6491 79.0227 62.3518 79.3636 62.1435 79.7841C61.9351 80.2045 61.831 80.6553 61.831 81.1364V81.9091C61.831 82.5682 61.9446 83.1269 62.1719 83.5852C62.4029 84.0398 62.723 84.3864 63.1321 84.625C63.5412 84.8598 64.0166 84.9773 64.5582 84.9773C64.9105 84.9773 65.2287 84.928 65.5128 84.8295C65.8007 84.7273 66.0488 84.5758 66.2571 84.375C66.4654 84.1705 66.6264 83.9167 66.7401 83.6136L68.0355 83.9773C67.8991 84.4167 67.67 84.803 67.348 85.1364C67.026 85.4659 66.6283 85.7235 66.1548 85.9091C65.6813 86.0909 65.1491 86.1818 64.5582 86.1818ZM70.2116 86V77.2727H71.5071V78.5909H71.598C71.7571 78.1591 72.045 77.8087 72.4616 77.5398C72.8783 77.2708 73.348 77.1364 73.8707 77.1364C73.9692 77.1364 74.0923 77.1383 74.2401 77.142C74.3878 77.1458 74.4995 77.1515 74.5753 77.1591V78.5227C74.5298 78.5114 74.4257 78.4943 74.2628 78.4716C74.1037 78.4451 73.9351 78.4318 73.7571 78.4318C73.3329 78.4318 72.9541 78.5208 72.6207 78.6989C72.2912 78.8731 72.0298 79.1155 71.8366 79.4261C71.6473 79.733 71.5526 80.0833 71.5526 80.4773V86H70.2116Z" fill="white" fill-opacity="0.95"/>
</svg>
