<svg width="245" height="376" viewBox="0 0 245 376" fill="none" xmlns="http://www.w3.org/2000/svg">
<mask id="path-1-inside-1_1267_50319" fill="white">
<path d="M0 0H245V376H0V0Z"/>
</mask>
<path d="M0 0H245V376H0V0Z" fill="#1A1A1A"/>
<path d="M245 376V377H246V376H245ZM244 0V376H246V0H244ZM245 375H0V377H245V375Z" fill="#707070" mask="url(#path-1-inside-1_1267_50319)"/>
<path d="M31.4091 194V182.364H38.3864V183.614H32.8182V187.545H37.8636V188.795H32.8182V194H31.4091ZM43.5227 194.182C42.7348 194.182 42.0436 193.994 41.4489 193.619C40.858 193.244 40.3958 192.72 40.0625 192.045C39.733 191.371 39.5682 190.583 39.5682 189.682C39.5682 188.773 39.733 187.979 40.0625 187.301C40.3958 186.623 40.858 186.097 41.4489 185.722C42.0436 185.347 42.7348 185.159 43.5227 185.159C44.3106 185.159 45 185.347 45.5909 185.722C46.1856 186.097 46.6477 186.623 46.9773 187.301C47.3106 187.979 47.4773 188.773 47.4773 189.682C47.4773 190.583 47.3106 191.371 46.9773 192.045C46.6477 192.72 46.1856 193.244 45.5909 193.619C45 193.994 44.3106 194.182 43.5227 194.182ZM43.5227 192.977C44.1212 192.977 44.6136 192.824 45 192.517C45.3864 192.21 45.6723 191.807 45.858 191.307C46.0436 190.807 46.1364 190.265 46.1364 189.682C46.1364 189.098 46.0436 188.555 45.858 188.051C45.6723 187.547 45.3864 187.14 45 186.83C44.6136 186.519 44.1212 186.364 43.5227 186.364C42.9242 186.364 42.4318 186.519 42.0455 186.83C41.6591 187.14 41.3731 187.547 41.1875 188.051C41.0019 188.555 40.9091 189.098 40.9091 189.682C40.9091 190.265 41.0019 190.807 41.1875 191.307C41.3731 191.807 41.6591 192.21 42.0455 192.517C42.4318 192.824 42.9242 192.977 43.5227 192.977ZM53.0696 194.182C52.2514 194.182 51.5469 193.989 50.956 193.602C50.3651 193.216 49.9105 192.684 49.5923 192.006C49.2741 191.328 49.1151 190.553 49.1151 189.682C49.1151 188.795 49.2779 188.013 49.6037 187.335C49.9332 186.653 50.3916 186.121 50.9787 185.739C51.5696 185.352 52.259 185.159 53.0469 185.159C53.6605 185.159 54.2135 185.273 54.706 185.5C55.1984 185.727 55.6018 186.045 55.9162 186.455C56.2306 186.864 56.4257 187.341 56.5014 187.886H55.1605C55.0582 187.489 54.831 187.136 54.4787 186.83C54.1302 186.519 53.6605 186.364 53.0696 186.364C52.5469 186.364 52.0885 186.5 51.6946 186.773C51.3045 187.042 50.9995 187.422 50.7798 187.915C50.5639 188.403 50.456 188.977 50.456 189.636C50.456 190.311 50.562 190.898 50.7741 191.398C50.9901 191.898 51.2931 192.286 51.6832 192.562C52.0772 192.839 52.5393 192.977 53.0696 192.977C53.4181 192.977 53.7344 192.917 54.0185 192.795C54.3026 192.674 54.5431 192.5 54.7401 192.273C54.937 192.045 55.0772 191.773 55.1605 191.455H56.5014C56.4257 191.97 56.2382 192.434 55.9389 192.847C55.6435 193.256 55.2514 193.581 54.7628 193.824C54.2779 194.062 53.7135 194.182 53.0696 194.182ZM63.9616 190.432V185.273H65.3026V194H63.9616V192.523H63.8707C63.6662 192.966 63.348 193.343 62.9162 193.653C62.4844 193.96 61.9389 194.114 61.2798 194.114C60.7344 194.114 60.2495 193.994 59.8253 193.756C59.401 193.513 59.0677 193.15 58.8253 192.665C58.5829 192.176 58.4616 191.561 58.4616 190.818V185.273H59.8026V190.727C59.8026 191.364 59.9806 191.871 60.3366 192.25C60.6965 192.629 61.1548 192.818 61.7116 192.818C62.045 192.818 62.384 192.733 62.7287 192.562C63.0772 192.392 63.3688 192.131 63.6037 191.778C63.8423 191.426 63.9616 190.977 63.9616 190.432ZM73.9403 187.227L72.7358 187.568C72.66 187.367 72.5483 187.172 72.4006 186.983C72.2566 186.79 72.0597 186.631 71.8097 186.506C71.5597 186.381 71.2396 186.318 70.8494 186.318C70.3153 186.318 69.8703 186.441 69.5142 186.688C69.1619 186.93 68.9858 187.239 68.9858 187.614C68.9858 187.947 69.107 188.21 69.3494 188.403C69.5919 188.597 69.9706 188.758 70.4858 188.886L71.7812 189.205C72.5616 189.394 73.143 189.684 73.5256 190.074C73.9081 190.46 74.0994 190.958 74.0994 191.568C74.0994 192.068 73.9555 192.515 73.6676 192.909C73.3835 193.303 72.9858 193.614 72.4744 193.841C71.9631 194.068 71.3684 194.182 70.6903 194.182C69.8002 194.182 69.0634 193.989 68.4801 193.602C67.8968 193.216 67.5275 192.652 67.3722 191.909L68.6449 191.591C68.7661 192.061 68.9953 192.413 69.3324 192.648C69.6733 192.883 70.1184 193 70.6676 193C71.2926 193 71.7888 192.867 72.1562 192.602C72.5275 192.333 72.7131 192.011 72.7131 191.636C72.7131 191.333 72.607 191.08 72.3949 190.875C72.1828 190.667 71.857 190.511 71.4176 190.409L69.9631 190.068C69.1638 189.879 68.5767 189.585 68.2017 189.188C67.8305 188.786 67.6449 188.284 67.6449 187.682C67.6449 187.189 67.7831 186.754 68.0597 186.375C68.34 185.996 68.7206 185.699 69.2017 185.483C69.6866 185.267 70.2358 185.159 70.8494 185.159C71.7131 185.159 72.3911 185.348 72.8835 185.727C73.3797 186.106 73.732 186.606 73.9403 187.227ZM79.777 194.182C78.9361 194.182 78.2107 193.996 77.6009 193.625C76.9948 193.25 76.527 192.727 76.1974 192.057C75.8717 191.383 75.7088 190.598 75.7088 189.705C75.7088 188.811 75.8717 188.023 76.1974 187.341C76.527 186.655 76.9853 186.121 77.5724 185.739C78.1634 185.352 78.8527 185.159 79.6406 185.159C80.0952 185.159 80.544 185.235 80.9872 185.386C81.4304 185.538 81.8338 185.784 82.1974 186.125C82.5611 186.462 82.8509 186.909 83.0668 187.466C83.2827 188.023 83.3906 188.708 83.3906 189.523V190.091H76.6634V188.932H82.027C82.027 188.439 81.9285 188 81.7315 187.614C81.5384 187.227 81.2618 186.922 80.902 186.699C80.5459 186.475 80.1255 186.364 79.6406 186.364C79.1065 186.364 78.6444 186.496 78.2543 186.761C77.8679 187.023 77.5705 187.364 77.3622 187.784C77.1539 188.205 77.0497 188.655 77.0497 189.136V189.909C77.0497 190.568 77.1634 191.127 77.3906 191.585C77.6217 192.04 77.9418 192.386 78.3509 192.625C78.7599 192.86 79.2353 192.977 79.777 192.977C80.1293 192.977 80.4474 192.928 80.7315 192.83C81.0194 192.727 81.2675 192.576 81.4759 192.375C81.6842 192.17 81.8452 191.917 81.9588 191.614L83.2543 191.977C83.1179 192.417 82.8887 192.803 82.5668 193.136C82.2448 193.466 81.8471 193.723 81.3736 193.909C80.9001 194.091 80.3679 194.182 79.777 194.182ZM88.7259 194.182C87.9986 194.182 87.3565 193.998 86.7997 193.631C86.2429 193.259 85.8073 192.737 85.4929 192.062C85.1785 191.384 85.0213 190.583 85.0213 189.659C85.0213 188.742 85.1785 187.947 85.4929 187.273C85.8073 186.598 86.2448 186.078 86.8054 185.71C87.366 185.343 88.0137 185.159 88.7486 185.159C89.3168 185.159 89.7656 185.254 90.0952 185.443C90.4285 185.629 90.6823 185.841 90.8565 186.08C91.0346 186.314 91.1728 186.508 91.2713 186.659H91.3849V182.364H92.7259V194H91.4304V192.659H91.2713C91.1728 192.818 91.0327 193.019 90.8509 193.261C90.669 193.5 90.4096 193.714 90.0724 193.903C89.7353 194.089 89.2865 194.182 88.7259 194.182ZM88.9077 192.977C89.4455 192.977 89.9001 192.837 90.2713 192.557C90.6425 192.273 90.9247 191.881 91.1179 191.381C91.3111 190.877 91.4077 190.295 91.4077 189.636C91.4077 188.985 91.313 188.415 91.1236 187.926C90.9342 187.434 90.6539 187.051 90.2827 186.778C89.9115 186.502 89.4531 186.364 88.9077 186.364C88.3395 186.364 87.866 186.509 87.4872 186.801C87.1122 187.089 86.83 187.481 86.6406 187.977C86.455 188.47 86.3622 189.023 86.3622 189.636C86.3622 190.258 86.4569 190.822 86.6463 191.33C86.8395 191.833 87.1236 192.235 87.4986 192.534C87.8774 192.83 88.3471 192.977 88.9077 192.977Z" fill="white" fill-opacity="0.95"/>
</svg>
