<svg width="463" height="112" viewBox="0 0 463 112" fill="none" xmlns="http://www.w3.org/2000/svg">
<mask id="path-1-inside-1_1267_49603" fill="white">
<path d="M0 0H463V112H0V0Z"/>
</mask>
<path d="M0 0H463V112H0V0Z" fill="#1A1A1A"/>
<path d="M463 111H0V113H463V111Z" fill="#707070" mask="url(#path-1-inside-1_1267_49603)"/>
<path d="M40.7727 42H39.3636C39.2803 41.5947 39.1345 41.2386 38.9261 40.9318C38.7216 40.625 38.4716 40.3674 38.1761 40.1591C37.8845 39.947 37.5606 39.7879 37.2045 39.6818C36.8485 39.5758 36.4773 39.5227 36.0909 39.5227C35.3864 39.5227 34.7481 39.7008 34.1761 40.0568C33.608 40.4129 33.1553 40.9375 32.8182 41.6307C32.4848 42.3239 32.3182 43.1742 32.3182 44.1818C32.3182 45.1894 32.4848 46.0398 32.8182 46.733C33.1553 47.4261 33.608 47.9508 34.1761 48.3068C34.7481 48.6629 35.3864 48.8409 36.0909 48.8409C36.4773 48.8409 36.8485 48.7879 37.2045 48.6818C37.5606 48.5758 37.8845 48.4186 38.1761 48.2102C38.4716 47.9981 38.7216 47.7386 38.9261 47.4318C39.1345 47.1212 39.2803 46.7652 39.3636 46.3636H40.7727C40.6667 46.9583 40.4735 47.4905 40.1932 47.9602C39.9129 48.4299 39.5644 48.8295 39.1477 49.1591C38.7311 49.4848 38.2633 49.733 37.7443 49.9034C37.2292 50.0739 36.678 50.1591 36.0909 50.1591C35.0985 50.1591 34.2159 49.9167 33.4432 49.4318C32.6705 48.947 32.0625 48.2576 31.6193 47.3636C31.1761 46.4697 30.9545 45.4091 30.9545 44.1818C30.9545 42.9545 31.1761 41.8939 31.6193 41C32.0625 40.1061 32.6705 39.4167 33.4432 38.9318C34.2159 38.447 35.0985 38.2045 36.0909 38.2045C36.678 38.2045 37.2292 38.2898 37.7443 38.4602C38.2633 38.6307 38.7311 38.8807 39.1477 39.2102C39.5644 39.536 39.9129 39.9337 40.1932 40.4034C40.4735 40.8693 40.6667 41.4015 40.7727 42ZM46.4134 50.1818C45.6255 50.1818 44.9342 49.9943 44.3395 49.6193C43.7486 49.2443 43.2865 48.7197 42.9531 48.0455C42.6236 47.3712 42.4588 46.5833 42.4588 45.6818C42.4588 44.7727 42.6236 43.9792 42.9531 43.3011C43.2865 42.6231 43.7486 42.0966 44.3395 41.7216C44.9342 41.3466 45.6255 41.1591 46.4134 41.1591C47.2012 41.1591 47.8906 41.3466 48.4815 41.7216C49.0762 42.0966 49.5384 42.6231 49.8679 43.3011C50.2012 43.9792 50.3679 44.7727 50.3679 45.6818C50.3679 46.5833 50.2012 47.3712 49.8679 48.0455C49.5384 48.7197 49.0762 49.2443 48.4815 49.6193C47.8906 49.9943 47.2012 50.1818 46.4134 50.1818ZM46.4134 48.9773C47.0118 48.9773 47.5043 48.8239 47.8906 48.517C48.277 48.2102 48.563 47.8068 48.7486 47.3068C48.9342 46.8068 49.027 46.2652 49.027 45.6818C49.027 45.0985 48.9342 44.5549 48.7486 44.0511C48.563 43.5473 48.277 43.1402 47.8906 42.8295C47.5043 42.5189 47.0118 42.3636 46.4134 42.3636C45.8149 42.3636 45.3224 42.5189 44.9361 42.8295C44.5497 43.1402 44.2637 43.5473 44.0781 44.0511C43.8925 44.5549 43.7997 45.0985 43.7997 45.6818C43.7997 46.2652 43.8925 46.8068 44.0781 47.3068C44.2637 47.8068 44.5497 48.2102 44.9361 48.517C45.3224 48.8239 45.8149 48.9773 46.4134 48.9773ZM53.7557 38.3636V50H52.4148V38.3636H53.7557ZM59.7571 50.1818C58.9692 50.1818 58.2779 49.9943 57.6832 49.6193C57.0923 49.2443 56.6302 48.7197 56.2969 48.0455C55.9673 47.3712 55.8026 46.5833 55.8026 45.6818C55.8026 44.7727 55.9673 43.9792 56.2969 43.3011C56.6302 42.6231 57.0923 42.0966 57.6832 41.7216C58.2779 41.3466 58.9692 41.1591 59.7571 41.1591C60.545 41.1591 61.2344 41.3466 61.8253 41.7216C62.42 42.0966 62.8821 42.6231 63.2116 43.3011C63.545 43.9792 63.7116 44.7727 63.7116 45.6818C63.7116 46.5833 63.545 47.3712 63.2116 48.0455C62.8821 48.7197 62.42 49.2443 61.8253 49.6193C61.2344 49.9943 60.545 50.1818 59.7571 50.1818ZM59.7571 48.9773C60.3556 48.9773 60.848 48.8239 61.2344 48.517C61.6207 48.2102 61.9067 47.8068 62.0923 47.3068C62.2779 46.8068 62.3707 46.2652 62.3707 45.6818C62.3707 45.0985 62.2779 44.5549 62.0923 44.0511C61.9067 43.5473 61.6207 43.1402 61.2344 42.8295C60.848 42.5189 60.3556 42.3636 59.7571 42.3636C59.1586 42.3636 58.6662 42.5189 58.2798 42.8295C57.8935 43.1402 57.6075 43.5473 57.4219 44.0511C57.2363 44.5549 57.1435 45.0985 57.1435 45.6818C57.1435 46.2652 57.2363 46.8068 57.4219 47.3068C57.6075 47.8068 57.8935 48.2102 58.2798 48.517C58.6662 48.8239 59.1586 48.9773 59.7571 48.9773ZM65.7585 50V41.2727H67.054V42.5909H67.1449C67.304 42.1591 67.5919 41.8087 68.0085 41.5398C68.4252 41.2708 68.8949 41.1364 69.4176 41.1364C69.5161 41.1364 69.6392 41.1383 69.7869 41.142C69.9347 41.1458 70.0464 41.1515 70.1222 41.1591V42.5227C70.0767 42.5114 69.9725 42.4943 69.8097 42.4716C69.6506 42.4451 69.482 42.4318 69.304 42.4318C68.8797 42.4318 68.5009 42.5208 68.1676 42.6989C67.8381 42.8731 67.5767 43.1155 67.3835 43.4261C67.1941 43.733 67.0994 44.0833 67.0994 44.4773V50H65.7585ZM72.6889 50.0909C72.4086 50.0909 72.1681 49.9905 71.9673 49.7898C71.7666 49.589 71.6662 49.3485 71.6662 49.0682C71.6662 48.7879 71.7666 48.5473 71.9673 48.3466C72.1681 48.1458 72.4086 48.0455 72.6889 48.0455C72.9692 48.0455 73.2098 48.1458 73.4105 48.3466C73.6113 48.5473 73.7116 48.7879 73.7116 49.0682C73.7116 49.2538 73.6643 49.4242 73.5696 49.5795C73.4787 49.7348 73.3556 49.8598 73.2003 49.9545C73.0488 50.0455 72.8783 50.0909 72.6889 50.0909ZM72.6889 43.6136C72.4086 43.6136 72.1681 43.5133 71.9673 43.3125C71.7666 43.1117 71.6662 42.8712 71.6662 42.5909C71.6662 42.3106 71.7666 42.0701 71.9673 41.8693C72.1681 41.6686 72.4086 41.5682 72.6889 41.5682C72.9692 41.5682 73.2098 41.6686 73.4105 41.8693C73.6113 42.0701 73.7116 42.3106 73.7116 42.5909C73.7116 42.7765 73.6643 42.947 73.5696 43.1023C73.4787 43.2576 73.3556 43.3826 73.2003 43.4773C73.0488 43.5682 72.8783 43.6136 72.6889 43.6136ZM84.1634 50.1818C83.3452 50.1818 82.6406 49.9886 82.0497 49.6023C81.4588 49.2159 81.0043 48.6837 80.6861 48.0057C80.3679 47.3277 80.2088 46.553 80.2088 45.6818C80.2088 44.7955 80.3717 44.0133 80.6974 43.3352C81.027 42.6534 81.4853 42.1212 82.0724 41.7386C82.6634 41.3523 83.3527 41.1591 84.1406 41.1591C84.7543 41.1591 85.3073 41.2727 85.7997 41.5C86.2921 41.7273 86.6955 42.0455 87.0099 42.4545C87.3243 42.8636 87.5194 43.3409 87.5952 43.8864H86.2543C86.152 43.4886 85.9247 43.1364 85.5724 42.8295C85.224 42.5189 84.7543 42.3636 84.1634 42.3636C83.6406 42.3636 83.1823 42.5 82.7884 42.7727C82.3982 43.0417 82.0933 43.4223 81.8736 43.9148C81.6577 44.4034 81.5497 44.9773 81.5497 45.6364C81.5497 46.3106 81.6558 46.8977 81.8679 47.3977C82.0838 47.8977 82.3868 48.286 82.777 48.5625C83.1709 48.839 83.633 48.9773 84.1634 48.9773C84.5118 48.9773 84.8281 48.9167 85.1122 48.7955C85.3963 48.6742 85.6368 48.5 85.8338 48.2727C86.0308 48.0455 86.1709 47.7727 86.2543 47.4545H87.5952C87.5194 47.9697 87.3319 48.4337 87.0327 48.8466C86.7372 49.2557 86.3452 49.5814 85.8565 49.8239C85.3717 50.0625 84.8073 50.1818 84.1634 50.1818ZM93.1009 50.1818C92.313 50.1818 91.6217 49.9943 91.027 49.6193C90.4361 49.2443 89.974 48.7197 89.6406 48.0455C89.3111 47.3712 89.1463 46.5833 89.1463 45.6818C89.1463 44.7727 89.3111 43.9792 89.6406 43.3011C89.974 42.6231 90.4361 42.0966 91.027 41.7216C91.6217 41.3466 92.313 41.1591 93.1009 41.1591C93.8887 41.1591 94.5781 41.3466 95.169 41.7216C95.7637 42.0966 96.2259 42.6231 96.5554 43.3011C96.8887 43.9792 97.0554 44.7727 97.0554 45.6818C97.0554 46.5833 96.8887 47.3712 96.5554 48.0455C96.2259 48.7197 95.7637 49.2443 95.169 49.6193C94.5781 49.9943 93.8887 50.1818 93.1009 50.1818ZM93.1009 48.9773C93.6993 48.9773 94.1918 48.8239 94.5781 48.517C94.9645 48.2102 95.2505 47.8068 95.4361 47.3068C95.6217 46.8068 95.7145 46.2652 95.7145 45.6818C95.7145 45.0985 95.6217 44.5549 95.4361 44.0511C95.2505 43.5473 94.9645 43.1402 94.5781 42.8295C94.1918 42.5189 93.6993 42.3636 93.1009 42.3636C92.5024 42.3636 92.0099 42.5189 91.6236 42.8295C91.2372 43.1402 90.9512 43.5473 90.7656 44.0511C90.58 44.5549 90.4872 45.0985 90.4872 45.6818C90.4872 46.2652 90.58 46.8068 90.7656 47.3068C90.9512 47.8068 91.2372 48.2102 91.6236 48.517C92.0099 48.8239 92.5024 48.9773 93.1009 48.9773ZM100.443 38.3636V50H99.1023V38.3636H100.443ZM106.445 50.1818C105.657 50.1818 104.965 49.9943 104.371 49.6193C103.78 49.2443 103.318 48.7197 102.984 48.0455C102.655 47.3712 102.49 46.5833 102.49 45.6818C102.49 44.7727 102.655 43.9792 102.984 43.3011C103.318 42.6231 103.78 42.0966 104.371 41.7216C104.965 41.3466 105.657 41.1591 106.445 41.1591C107.232 41.1591 107.922 41.3466 108.513 41.7216C109.107 42.0966 109.57 42.6231 109.899 43.3011C110.232 43.9792 110.399 44.7727 110.399 45.6818C110.399 46.5833 110.232 47.3712 109.899 48.0455C109.57 48.7197 109.107 49.2443 108.513 49.6193C107.922 49.9943 107.232 50.1818 106.445 50.1818ZM106.445 48.9773C107.043 48.9773 107.536 48.8239 107.922 48.517C108.308 48.2102 108.594 47.8068 108.78 47.3068C108.965 46.8068 109.058 46.2652 109.058 45.6818C109.058 45.0985 108.965 44.5549 108.78 44.0511C108.594 43.5473 108.308 43.1402 107.922 42.8295C107.536 42.5189 107.043 42.3636 106.445 42.3636C105.846 42.3636 105.354 42.5189 104.967 42.8295C104.581 43.1402 104.295 43.5473 104.109 44.0511C103.924 44.5549 103.831 45.0985 103.831 45.6818C103.831 46.2652 103.924 46.8068 104.109 47.3068C104.295 47.8068 104.581 48.2102 104.967 48.517C105.354 48.8239 105.846 48.9773 106.445 48.9773ZM112.446 50V41.2727H113.741V42.5909H113.832C113.991 42.1591 114.279 41.8087 114.696 41.5398C115.113 41.2708 115.582 41.1364 116.105 41.1364C116.204 41.1364 116.327 41.1383 116.474 41.142C116.622 41.1458 116.734 41.1515 116.81 41.1591V42.5227C116.764 42.5114 116.66 42.4943 116.497 42.4716C116.338 42.4451 116.17 42.4318 115.991 42.4318C115.567 42.4318 115.188 42.5208 114.855 42.6989C114.526 42.8731 114.264 43.1155 114.071 43.4261C113.882 43.733 113.787 44.0833 113.787 44.4773V50H112.446ZM121.966 37.8182L118.216 51.75H116.989L120.739 37.8182H121.966ZM127.351 41.2727V42.4091H122.828V41.2727H127.351ZM124.146 39.1818H125.487V47.5C125.487 47.8788 125.542 48.1629 125.652 48.3523C125.766 48.5379 125.91 48.6629 126.084 48.7273C126.262 48.7879 126.449 48.8182 126.646 48.8182C126.794 48.8182 126.915 48.8106 127.01 48.7955C127.105 48.7765 127.18 48.7614 127.237 48.75L127.51 49.9545C127.419 49.9886 127.292 50.0227 127.129 50.0568C126.966 50.0947 126.76 50.1136 126.51 50.1136C126.131 50.1136 125.76 50.0322 125.396 49.8693C125.036 49.7064 124.737 49.4583 124.499 49.125C124.264 48.7917 124.146 48.3712 124.146 47.8636V39.1818ZM130.896 44.75V50H129.555V38.3636H130.896V42.6364H131.01C131.214 42.1856 131.521 41.8277 131.93 41.5625C132.343 41.2936 132.893 41.1591 133.578 41.1591C134.173 41.1591 134.694 41.2784 135.141 41.517C135.588 41.7519 135.934 42.1136 136.18 42.6023C136.43 43.0871 136.555 43.7045 136.555 44.4545V50H135.214V44.5455C135.214 43.8523 135.035 43.3163 134.675 42.9375C134.319 42.5549 133.824 42.3636 133.192 42.3636C132.752 42.3636 132.358 42.4564 132.01 42.642C131.665 42.8277 131.393 43.0985 131.192 43.4545C130.995 43.8106 130.896 44.2424 130.896 44.75ZM142.668 50.1818C141.827 50.1818 141.101 49.9962 140.491 49.625C139.885 49.25 139.418 48.7273 139.088 48.0568C138.762 47.3826 138.599 46.5985 138.599 45.7045C138.599 44.8106 138.762 44.0227 139.088 43.3409C139.418 42.6553 139.876 42.1212 140.463 41.7386C141.054 41.3523 141.743 41.1591 142.531 41.1591C142.986 41.1591 143.435 41.2348 143.878 41.3864C144.321 41.5379 144.724 41.7841 145.088 42.125C145.452 42.4621 145.741 42.9091 145.957 43.4659C146.173 44.0227 146.281 44.7083 146.281 45.5227V46.0909H139.554V44.9318H144.918C144.918 44.4394 144.819 44 144.622 43.6136C144.429 43.2273 144.152 42.9223 143.793 42.6989C143.437 42.4754 143.016 42.3636 142.531 42.3636C141.997 42.3636 141.535 42.4962 141.145 42.7614C140.759 43.0227 140.461 43.3636 140.253 43.7841C140.045 44.2045 139.94 44.6553 139.94 45.1364V45.9091C139.94 46.5682 140.054 47.1269 140.281 47.5852C140.512 48.0398 140.832 48.3864 141.241 48.625C141.651 48.8598 142.126 48.9773 142.668 48.9773C143.02 48.9773 143.338 48.928 143.622 48.8295C143.91 48.7273 144.158 48.5758 144.366 48.375C144.575 48.1705 144.736 47.9167 144.849 47.6136L146.145 47.9773C146.009 48.4167 145.779 48.803 145.457 49.1364C145.135 49.4659 144.738 49.7235 144.264 49.9091C143.791 50.0909 143.259 50.1818 142.668 50.1818ZM148.321 50V41.2727H149.616V42.6364H149.73C149.912 42.1705 150.205 41.8087 150.611 41.5511C151.016 41.2898 151.503 41.1591 152.071 41.1591C152.647 41.1591 153.126 41.2898 153.509 41.5511C153.895 41.8087 154.196 42.1705 154.412 42.6364H154.503C154.726 42.1856 155.062 41.8277 155.509 41.5625C155.955 41.2936 156.491 41.1591 157.116 41.1591C157.897 41.1591 158.535 41.4034 159.031 41.892C159.527 42.3769 159.776 43.1326 159.776 44.1591V50H158.435V44.1591C158.435 43.5152 158.259 43.0549 157.906 42.7784C157.554 42.5019 157.139 42.3636 156.662 42.3636C156.048 42.3636 155.573 42.5492 155.236 42.9205C154.899 43.2879 154.73 43.7538 154.73 44.3182V50H153.366V44.0227C153.366 43.5265 153.205 43.1269 152.884 42.8239C152.562 42.517 152.147 42.3636 151.639 42.3636C151.291 42.3636 150.965 42.4564 150.662 42.642C150.363 42.8277 150.12 43.0852 149.935 43.4148C149.753 43.7405 149.662 44.1174 149.662 44.5455V50H148.321ZM165.886 50.1818C165.045 50.1818 164.32 49.9962 163.71 49.625C163.104 49.25 162.636 48.7273 162.307 48.0568C161.981 47.3826 161.818 46.5985 161.818 45.7045C161.818 44.8106 161.981 44.0227 162.307 43.3409C162.636 42.6553 163.095 42.1212 163.682 41.7386C164.273 41.3523 164.962 41.1591 165.75 41.1591C166.205 41.1591 166.653 41.2348 167.097 41.3864C167.54 41.5379 167.943 41.7841 168.307 42.125C168.67 42.4621 168.96 42.9091 169.176 43.4659C169.392 44.0227 169.5 44.7083 169.5 45.5227V46.0909H162.773V44.9318H168.136C168.136 44.4394 168.038 44 167.841 43.6136C167.648 43.2273 167.371 42.9223 167.011 42.6989C166.655 42.4754 166.235 42.3636 165.75 42.3636C165.216 42.3636 164.754 42.4962 164.364 42.7614C163.977 43.0227 163.68 43.3636 163.472 43.7841C163.263 44.2045 163.159 44.6553 163.159 45.1364V45.9091C163.159 46.5682 163.273 47.1269 163.5 47.5852C163.731 48.0398 164.051 48.3864 164.46 48.625C164.869 48.8598 165.345 48.9773 165.886 48.9773C166.239 48.9773 166.557 48.928 166.841 48.8295C167.129 48.7273 167.377 48.5758 167.585 48.375C167.794 48.1705 167.955 47.9167 168.068 47.6136L169.364 47.9773C169.227 48.4167 168.998 48.803 168.676 49.1364C168.354 49.4659 167.956 49.7235 167.483 49.9091C167.009 50.0909 166.477 50.1818 165.886 50.1818ZM175.653 37.8182L171.903 51.75H170.676L174.426 37.8182H175.653ZM180.788 50.1818C179.97 50.1818 179.266 49.9886 178.675 49.6023C178.084 49.2159 177.629 48.6837 177.311 48.0057C176.993 47.3277 176.834 46.553 176.834 45.6818C176.834 44.7955 176.997 44.0133 177.322 43.3352C177.652 42.6534 178.11 42.1212 178.697 41.7386C179.288 41.3523 179.978 41.1591 180.766 41.1591C181.379 41.1591 181.932 41.2727 182.425 41.5C182.917 41.7273 183.321 42.0455 183.635 42.4545C183.949 42.8636 184.144 43.3409 184.22 43.8864H182.879C182.777 43.4886 182.55 43.1364 182.197 42.8295C181.849 42.5189 181.379 42.3636 180.788 42.3636C180.266 42.3636 179.807 42.5 179.413 42.7727C179.023 43.0417 178.718 43.4223 178.499 43.9148C178.283 44.4034 178.175 44.9773 178.175 45.6364C178.175 46.3106 178.281 46.8977 178.493 47.3977C178.709 47.8977 179.012 48.286 179.402 48.5625C179.796 48.839 180.258 48.9773 180.788 48.9773C181.137 48.9773 181.453 48.9167 181.737 48.7955C182.021 48.6742 182.262 48.5 182.459 48.2727C182.656 48.0455 182.796 47.7727 182.879 47.4545H184.22C184.144 47.9697 183.957 48.4337 183.658 48.8466C183.362 49.2557 182.97 49.5814 182.482 49.8239C181.997 50.0625 181.432 50.1818 180.788 50.1818ZM189.726 50.1818C188.938 50.1818 188.247 49.9943 187.652 49.6193C187.061 49.2443 186.599 48.7197 186.266 48.0455C185.936 47.3712 185.771 46.5833 185.771 45.6818C185.771 44.7727 185.936 43.9792 186.266 43.3011C186.599 42.6231 187.061 42.0966 187.652 41.7216C188.247 41.3466 188.938 41.1591 189.726 41.1591C190.514 41.1591 191.203 41.3466 191.794 41.7216C192.389 42.0966 192.851 42.6231 193.18 43.3011C193.514 43.9792 193.68 44.7727 193.68 45.6818C193.68 46.5833 193.514 47.3712 193.18 48.0455C192.851 48.7197 192.389 49.2443 191.794 49.6193C191.203 49.9943 190.514 50.1818 189.726 50.1818ZM189.726 48.9773C190.324 48.9773 190.817 48.8239 191.203 48.517C191.589 48.2102 191.875 47.8068 192.061 47.3068C192.247 46.8068 192.339 46.2652 192.339 45.6818C192.339 45.0985 192.247 44.5549 192.061 44.0511C191.875 43.5473 191.589 43.1402 191.203 42.8295C190.817 42.5189 190.324 42.3636 189.726 42.3636C189.127 42.3636 188.635 42.5189 188.249 42.8295C187.862 43.1402 187.576 43.5473 187.391 44.0511C187.205 44.5549 187.112 45.0985 187.112 45.6818C187.112 46.2652 187.205 46.8068 187.391 47.3068C187.576 47.8068 187.862 48.2102 188.249 48.517C188.635 48.8239 189.127 48.9773 189.726 48.9773ZM197.068 44.75V50H195.727V41.2727H197.023V42.6364H197.136C197.341 42.1932 197.652 41.8371 198.068 41.5682C198.485 41.2955 199.023 41.1591 199.682 41.1591C200.273 41.1591 200.79 41.2803 201.233 41.5227C201.676 41.7614 202.021 42.125 202.267 42.6136C202.513 43.0985 202.636 43.7121 202.636 44.4545V50H201.295V44.5455C201.295 43.8598 201.117 43.3258 200.761 42.9432C200.405 42.5568 199.917 42.3636 199.295 42.3636C198.867 42.3636 198.485 42.4564 198.148 42.642C197.814 42.8277 197.551 43.0985 197.358 43.4545C197.165 43.8106 197.068 44.2424 197.068 44.75ZM208.882 41.2727V42.4091H204.359V41.2727H208.882ZM205.678 39.1818H207.018V47.5C207.018 47.8788 207.073 48.1629 207.183 48.3523C207.297 48.5379 207.441 48.6629 207.615 48.7273C207.793 48.7879 207.981 48.8182 208.178 48.8182C208.325 48.8182 208.446 48.8106 208.541 48.7955C208.636 48.7765 208.712 48.7614 208.768 48.75L209.041 49.9545C208.95 49.9886 208.823 50.0227 208.661 50.0568C208.498 50.0947 208.291 50.1136 208.041 50.1136C207.662 50.1136 207.291 50.0322 206.928 49.8693C206.568 49.7064 206.268 49.4583 206.03 49.125C205.795 48.7917 205.678 48.3712 205.678 47.8636V39.1818ZM214.464 50.1818C213.624 50.1818 212.898 49.9962 212.288 49.625C211.682 49.25 211.214 48.7273 210.885 48.0568C210.559 47.3826 210.396 46.5985 210.396 45.7045C210.396 44.8106 210.559 44.0227 210.885 43.3409C211.214 42.6553 211.673 42.1212 212.26 41.7386C212.851 41.3523 213.54 41.1591 214.328 41.1591C214.783 41.1591 215.232 41.2348 215.675 41.3864C216.118 41.5379 216.521 41.7841 216.885 42.125C217.249 42.4621 217.538 42.9091 217.754 43.4659C217.97 44.0227 218.078 44.7083 218.078 45.5227V46.0909H211.351V44.9318H216.714C216.714 44.4394 216.616 44 216.419 43.6136C216.226 43.2273 215.949 42.9223 215.589 42.6989C215.233 42.4754 214.813 42.3636 214.328 42.3636C213.794 42.3636 213.332 42.4962 212.942 42.7614C212.555 43.0227 212.258 43.3636 212.05 43.7841C211.841 44.2045 211.737 44.6553 211.737 45.1364V45.9091C211.737 46.5682 211.851 47.1269 212.078 47.5852C212.309 48.0398 212.629 48.3864 213.038 48.625C213.447 48.8598 213.923 48.9773 214.464 48.9773C214.817 48.9773 215.135 48.928 215.419 48.8295C215.707 48.7273 215.955 48.5758 216.163 48.375C216.372 48.1705 216.533 47.9167 216.646 47.6136L217.942 47.9773C217.805 48.4167 217.576 48.803 217.254 49.1364C216.932 49.4659 216.535 49.7235 216.061 49.9091C215.588 50.0909 215.055 50.1818 214.464 50.1818ZM221.459 44.75V50H220.118V41.2727H221.413V42.6364H221.527C221.732 42.1932 222.042 41.8371 222.459 41.5682C222.875 41.2955 223.413 41.1591 224.072 41.1591C224.663 41.1591 225.18 41.2803 225.624 41.5227C226.067 41.7614 226.411 42.125 226.658 42.6136C226.904 43.0985 227.027 43.7121 227.027 44.4545V50H225.686V44.5455C225.686 43.8598 225.508 43.3258 225.152 42.9432C224.796 42.5568 224.307 42.3636 223.686 42.3636C223.258 42.3636 222.875 42.4564 222.538 42.642C222.205 42.8277 221.942 43.0985 221.749 43.4545C221.555 43.8106 221.459 44.2424 221.459 44.75ZM233.273 41.2727V42.4091H228.75V41.2727H233.273ZM230.068 39.1818H231.409V47.5C231.409 47.8788 231.464 48.1629 231.574 48.3523C231.688 48.5379 231.831 48.6629 232.006 48.7273C232.184 48.7879 232.371 48.8182 232.568 48.8182C232.716 48.8182 232.837 48.8106 232.932 48.7955C233.027 48.7765 233.102 48.7614 233.159 48.75L233.432 49.9545C233.341 49.9886 233.214 50.0227 233.051 50.0568C232.888 50.0947 232.682 50.1136 232.432 50.1136C232.053 50.1136 231.682 50.0322 231.318 49.8693C230.958 49.7064 230.659 49.4583 230.42 49.125C230.186 48.7917 230.068 48.3712 230.068 47.8636V39.1818ZM239.403 37.8182L235.653 51.75H234.426L238.176 37.8182H239.403ZM244.788 41.2727V42.4091H240.266V41.2727H244.788ZM241.584 39.1818H242.925V47.5C242.925 47.8788 242.98 48.1629 243.089 48.3523C243.203 48.5379 243.347 48.6629 243.521 48.7273C243.699 48.7879 243.887 48.8182 244.084 48.8182C244.232 48.8182 244.353 48.8106 244.447 48.7955C244.542 48.7765 244.618 48.7614 244.675 48.75L244.947 49.9545C244.857 49.9886 244.73 50.0227 244.567 50.0568C244.404 50.0947 244.197 50.1136 243.947 50.1136C243.569 50.1136 243.197 50.0322 242.834 49.8693C242.474 49.7064 242.175 49.4583 241.936 49.125C241.701 48.7917 241.584 48.3712 241.584 47.8636V39.1818ZM250.371 50.1818C249.53 50.1818 248.804 49.9962 248.195 49.625C247.589 49.25 247.121 48.7273 246.791 48.0568C246.465 47.3826 246.303 46.5985 246.303 45.7045C246.303 44.8106 246.465 44.0227 246.791 43.3409C247.121 42.6553 247.579 42.1212 248.166 41.7386C248.757 41.3523 249.446 41.1591 250.234 41.1591C250.689 41.1591 251.138 41.2348 251.581 41.3864C252.024 41.5379 252.428 41.7841 252.791 42.125C253.155 42.4621 253.445 42.9091 253.661 43.4659C253.876 44.0227 253.984 44.7083 253.984 45.5227V46.0909H247.257V44.9318H252.621C252.621 44.4394 252.522 44 252.325 43.6136C252.132 43.2273 251.856 42.9223 251.496 42.6989C251.14 42.4754 250.719 42.3636 250.234 42.3636C249.7 42.3636 249.238 42.4962 248.848 42.7614C248.462 43.0227 248.164 43.3636 247.956 43.7841C247.748 44.2045 247.643 44.6553 247.643 45.1364V45.9091C247.643 46.5682 247.757 47.1269 247.984 47.5852C248.215 48.0398 248.536 48.3864 248.945 48.625C249.354 48.8598 249.829 48.9773 250.371 48.9773C250.723 48.9773 251.041 48.928 251.325 48.8295C251.613 48.7273 251.861 48.5758 252.07 48.375C252.278 48.1705 252.439 47.9167 252.553 47.6136L253.848 47.9773C253.712 48.4167 253.482 48.803 253.161 49.1364C252.839 49.4659 252.441 49.7235 251.967 49.9091C251.494 50.0909 250.962 50.1818 250.371 50.1818ZM256.79 41.2727L258.881 44.8409L260.972 41.2727H262.517L259.699 45.6364L262.517 50H260.972L258.881 46.6136L256.79 50H255.244L258.017 45.6364L255.244 41.2727H256.79ZM268.226 41.2727V42.4091H263.703V41.2727H268.226ZM265.021 39.1818H266.362V47.5C266.362 47.8788 266.417 48.1629 266.527 48.3523C266.641 48.5379 266.785 48.6629 266.959 48.7273C267.137 48.7879 267.324 48.8182 267.521 48.8182C267.669 48.8182 267.79 48.8106 267.885 48.7955C267.98 48.7765 268.055 48.7614 268.112 48.75L268.385 49.9545C268.294 49.9886 268.167 50.0227 268.004 50.0568C267.841 50.0947 267.635 50.1136 267.385 50.1136C267.006 50.1136 266.635 50.0322 266.271 49.8693C265.911 49.7064 265.612 49.4583 265.374 49.125C265.139 48.7917 265.021 48.3712 265.021 47.8636V39.1818ZM274.357 37.8182L270.607 51.75H269.379L273.129 37.8182H274.357ZM277.287 44.75V50H275.946V41.2727H277.241V42.6364H277.355C277.56 42.1932 277.87 41.8371 278.287 41.5682C278.704 41.2955 279.241 41.1591 279.901 41.1591C280.491 41.1591 281.009 41.2803 281.452 41.5227C281.895 41.7614 282.24 42.125 282.486 42.6136C282.732 43.0985 282.855 43.7121 282.855 44.4545V50H281.514V44.5455C281.514 43.8598 281.336 43.3258 280.98 42.9432C280.624 42.5568 280.135 42.3636 279.514 42.3636C279.086 42.3636 278.704 42.4564 278.366 42.642C278.033 42.8277 277.77 43.0985 277.577 43.4545C277.384 43.8106 277.287 44.2424 277.287 44.75ZM288.964 50.1818C288.124 50.1818 287.398 49.9962 286.788 49.625C286.182 49.25 285.714 48.7273 285.385 48.0568C285.059 47.3826 284.896 46.5985 284.896 45.7045C284.896 44.8106 285.059 44.0227 285.385 43.3409C285.714 42.6553 286.173 42.1212 286.76 41.7386C287.351 41.3523 288.04 41.1591 288.828 41.1591C289.283 41.1591 289.732 41.2348 290.175 41.3864C290.618 41.5379 291.021 41.7841 291.385 42.125C291.749 42.4621 292.038 42.9091 292.254 43.4659C292.47 44.0227 292.578 44.7083 292.578 45.5227V46.0909H285.851V44.9318H291.214C291.214 44.4394 291.116 44 290.919 43.6136C290.726 43.2273 290.449 42.9223 290.089 42.6989C289.733 42.4754 289.313 42.3636 288.828 42.3636C288.294 42.3636 287.832 42.4962 287.442 42.7614C287.055 43.0227 286.758 43.3636 286.55 43.7841C286.341 44.2045 286.237 44.6553 286.237 45.1364V45.9091C286.237 46.5682 286.351 47.1269 286.578 47.5852C286.809 48.0398 287.129 48.3864 287.538 48.625C287.947 48.8598 288.423 48.9773 288.964 48.9773C289.317 48.9773 289.635 48.928 289.919 48.8295C290.207 48.7273 290.455 48.5758 290.663 48.375C290.872 48.1705 291.033 47.9167 291.146 47.6136L292.442 47.9773C292.305 48.4167 292.076 48.803 291.754 49.1364C291.432 49.4659 291.035 49.7235 290.561 49.9091C290.088 50.0909 289.555 50.1818 288.964 50.1818ZM300.118 46.4318V41.2727H301.459V50H300.118V48.5227H300.027C299.822 48.9659 299.504 49.3428 299.072 49.6534C298.641 49.9602 298.095 50.1136 297.436 50.1136C296.891 50.1136 296.406 49.9943 295.982 49.7557C295.557 49.5133 295.224 49.1496 294.982 48.6648C294.739 48.1761 294.618 47.5606 294.618 46.8182V41.2727H295.959V46.7273C295.959 47.3636 296.137 47.8712 296.493 48.25C296.853 48.6288 297.311 48.8182 297.868 48.8182C298.201 48.8182 298.54 48.733 298.885 48.5625C299.233 48.392 299.525 48.1307 299.76 47.7784C299.999 47.4261 300.118 46.9773 300.118 46.4318ZM307.71 41.2727V42.4091H303.188V41.2727H307.71ZM304.506 39.1818H305.847V47.5C305.847 47.8788 305.902 48.1629 306.011 48.3523C306.125 48.5379 306.269 48.6629 306.443 48.7273C306.621 48.7879 306.809 48.8182 307.006 48.8182C307.153 48.8182 307.275 48.8106 307.369 48.7955C307.464 48.7765 307.54 48.7614 307.597 48.75L307.869 49.9545C307.778 49.9886 307.652 50.0227 307.489 50.0568C307.326 50.0947 307.119 50.1136 306.869 50.1136C306.491 50.1136 306.119 50.0322 305.756 49.8693C305.396 49.7064 305.097 49.4583 304.858 49.125C304.623 48.7917 304.506 48.3712 304.506 47.8636V39.1818ZM309.727 50V41.2727H311.023V42.5909H311.114C311.273 42.1591 311.561 41.8087 311.977 41.5398C312.394 41.2708 312.864 41.1364 313.386 41.1364C313.485 41.1364 313.608 41.1383 313.756 41.142C313.903 41.1458 314.015 41.1515 314.091 41.1591V42.5227C314.045 42.5114 313.941 42.4943 313.778 42.4716C313.619 42.4451 313.451 42.4318 313.273 42.4318C312.848 42.4318 312.47 42.5208 312.136 42.6989C311.807 42.8731 311.545 43.1155 311.352 43.4261C311.163 43.733 311.068 44.0833 311.068 44.4773V50H309.727ZM318.249 50.2045C317.696 50.2045 317.194 50.1004 316.743 49.892C316.292 49.6799 315.934 49.375 315.669 48.9773C315.404 48.5758 315.271 48.0909 315.271 47.5227C315.271 47.0227 315.37 46.6174 315.567 46.3068C315.764 45.9924 316.027 45.7462 316.357 45.5682C316.686 45.3902 317.05 45.2576 317.447 45.1705C317.849 45.0795 318.252 45.0076 318.658 44.9545C319.188 44.8864 319.618 44.8352 319.947 44.8011C320.281 44.7633 320.523 44.7008 320.675 44.6136C320.83 44.5265 320.908 44.375 320.908 44.1591V44.1136C320.908 43.553 320.754 43.1174 320.447 42.8068C320.144 42.4962 319.684 42.3409 319.067 42.3409C318.427 42.3409 317.925 42.4811 317.561 42.7614C317.197 43.0417 316.942 43.3409 316.794 43.6591L315.521 43.2045C315.749 42.6742 316.052 42.2614 316.43 41.9659C316.813 41.6667 317.23 41.4583 317.68 41.3409C318.135 41.2197 318.582 41.1591 319.021 41.1591C319.302 41.1591 319.624 41.1932 319.987 41.2614C320.355 41.3258 320.709 41.4602 321.05 41.6648C321.394 41.8693 321.68 42.178 321.908 42.5909C322.135 43.0038 322.249 43.5568 322.249 44.25V50H320.908V48.8182H320.839C320.749 49.0076 320.597 49.2102 320.385 49.4261C320.173 49.642 319.891 49.8258 319.538 49.9773C319.186 50.1288 318.756 50.2045 318.249 50.2045ZM318.453 49C318.983 49 319.43 48.8958 319.794 48.6875C320.161 48.4792 320.438 48.2102 320.624 47.8807C320.813 47.5511 320.908 47.2045 320.908 46.8409V45.6136C320.851 45.6818 320.726 45.7443 320.533 45.8011C320.343 45.8542 320.124 45.9015 319.874 45.9432C319.627 45.9811 319.387 46.0152 319.152 46.0455C318.921 46.072 318.733 46.0947 318.589 46.1136C318.241 46.1591 317.915 46.233 317.612 46.3352C317.313 46.4337 317.071 46.5833 316.885 46.7841C316.703 46.9811 316.612 47.25 316.612 47.5909C316.612 48.0568 316.785 48.4091 317.129 48.6477C317.478 48.8826 317.919 49 318.453 49ZM326.037 38.3636V50H324.696V38.3636H326.037ZM332.607 37.8182L328.857 51.75H327.629L331.379 37.8182H332.607ZM337.491 50.1818C336.764 50.1818 336.122 49.9981 335.565 49.6307C335.009 49.2595 334.573 48.7367 334.259 48.0625C333.944 47.3845 333.787 46.5833 333.787 45.6591C333.787 44.7424 333.944 43.947 334.259 43.2727C334.573 42.5985 335.01 42.0777 335.571 41.7102C336.132 41.3428 336.779 41.1591 337.514 41.1591C338.082 41.1591 338.531 41.2538 338.861 41.4432C339.194 41.6288 339.448 41.8409 339.622 42.0795C339.8 42.3144 339.938 42.5076 340.037 42.6591H340.151V38.3636H341.491V50H340.196V48.6591H340.037C339.938 48.8182 339.798 49.0189 339.616 49.2614C339.435 49.5 339.175 49.714 338.838 49.9034C338.501 50.089 338.052 50.1818 337.491 50.1818ZM337.673 48.9773C338.211 48.9773 338.666 48.8371 339.037 48.5568C339.408 48.2727 339.69 47.8807 339.884 47.3807C340.077 46.8769 340.173 46.2955 340.173 45.6364C340.173 44.9848 340.079 44.4148 339.889 43.9261C339.7 43.4337 339.42 43.0511 339.048 42.7784C338.677 42.5019 338.219 42.3636 337.673 42.3636C337.105 42.3636 336.632 42.5095 336.253 42.8011C335.878 43.089 335.596 43.4811 335.406 43.9773C335.221 44.4697 335.128 45.0227 335.128 45.6364C335.128 46.2576 335.223 46.822 335.412 47.3295C335.605 47.8333 335.889 48.2348 336.264 48.5341C336.643 48.8295 337.113 48.9773 337.673 48.9773ZM344.134 50V41.2727H345.474V50H344.134ZM344.815 39.8182C344.554 39.8182 344.329 39.7292 344.139 39.5511C343.954 39.3731 343.861 39.1591 343.861 38.9091C343.861 38.6591 343.954 38.4451 344.139 38.267C344.329 38.089 344.554 38 344.815 38C345.077 38 345.3 38.089 345.486 38.267C345.675 38.4451 345.77 38.6591 345.77 38.9091C345.77 39.1591 345.675 39.3731 345.486 39.5511C345.3 39.7292 345.077 39.8182 344.815 39.8182ZM354.112 43.2273L352.908 43.5682C352.832 43.3674 352.72 43.1723 352.572 42.983C352.429 42.7898 352.232 42.6307 351.982 42.5057C351.732 42.3807 351.411 42.3182 351.021 42.3182C350.487 42.3182 350.042 42.4413 349.686 42.6875C349.334 42.9299 349.158 43.2386 349.158 43.6136C349.158 43.947 349.279 44.2102 349.521 44.4034C349.764 44.5966 350.143 44.7576 350.658 44.8864L351.953 45.2045C352.733 45.3939 353.315 45.6837 353.697 46.0739C354.08 46.4602 354.271 46.9583 354.271 47.5682C354.271 48.0682 354.127 48.5152 353.839 48.9091C353.555 49.303 353.158 49.6136 352.646 49.8409C352.135 50.0682 351.54 50.1818 350.862 50.1818C349.972 50.1818 349.235 49.9886 348.652 49.6023C348.069 49.2159 347.699 48.6515 347.544 47.9091L348.817 47.5909C348.938 48.0606 349.167 48.4129 349.504 48.6477C349.845 48.8826 350.29 49 350.839 49C351.464 49 351.961 48.8674 352.328 48.6023C352.699 48.3333 352.885 48.0114 352.885 47.6364C352.885 47.3333 352.779 47.0795 352.567 46.875C352.355 46.6667 352.029 46.5114 351.589 46.4091L350.135 46.0682C349.336 45.8788 348.749 45.5852 348.374 45.1875C348.002 44.786 347.817 44.2841 347.817 43.6818C347.817 43.1894 347.955 42.7538 348.232 42.375C348.512 41.9962 348.893 41.6989 349.374 41.483C349.858 41.267 350.408 41.1591 351.021 41.1591C351.885 41.1591 352.563 41.3485 353.055 41.7273C353.552 42.1061 353.904 42.6061 354.112 43.2273ZM358.858 50.2045C358.305 50.2045 357.803 50.1004 357.352 49.892C356.902 49.6799 356.544 49.375 356.278 48.9773C356.013 48.5758 355.881 48.0909 355.881 47.5227C355.881 47.0227 355.979 46.6174 356.176 46.3068C356.373 45.9924 356.636 45.7462 356.966 45.5682C357.295 45.3902 357.659 45.2576 358.057 45.1705C358.458 45.0795 358.862 45.0076 359.267 44.9545C359.797 44.8864 360.227 44.8352 360.557 44.8011C360.89 44.7633 361.133 44.7008 361.284 44.6136C361.439 44.5265 361.517 44.375 361.517 44.1591V44.1136C361.517 43.553 361.364 43.1174 361.057 42.8068C360.754 42.4962 360.294 42.3409 359.676 42.3409C359.036 42.3409 358.534 42.4811 358.17 42.7614C357.807 43.0417 357.551 43.3409 357.403 43.6591L356.131 43.2045C356.358 42.6742 356.661 42.2614 357.04 41.9659C357.422 41.6667 357.839 41.4583 358.29 41.3409C358.744 41.2197 359.191 41.1591 359.631 41.1591C359.911 41.1591 360.233 41.1932 360.597 41.2614C360.964 41.3258 361.318 41.4602 361.659 41.6648C362.004 41.8693 362.29 42.178 362.517 42.5909C362.744 43.0038 362.858 43.5568 362.858 44.25V50H361.517V48.8182H361.449C361.358 49.0076 361.206 49.2102 360.994 49.4261C360.782 49.642 360.5 49.8258 360.148 49.9773C359.795 50.1288 359.366 50.2045 358.858 50.2045ZM359.062 49C359.593 49 360.04 48.8958 360.403 48.6875C360.771 48.4792 361.047 48.2102 361.233 47.8807C361.422 47.5511 361.517 47.2045 361.517 46.8409V45.6136C361.46 45.6818 361.335 45.7443 361.142 45.8011C360.953 45.8542 360.733 45.9015 360.483 45.9432C360.237 45.9811 359.996 46.0152 359.761 46.0455C359.53 46.072 359.343 46.0947 359.199 46.1136C358.85 46.1591 358.525 46.233 358.222 46.3352C357.922 46.4337 357.68 46.5833 357.494 46.7841C357.313 46.9811 357.222 47.25 357.222 47.5909C357.222 48.0568 357.394 48.4091 357.739 48.6477C358.087 48.8826 358.528 49 359.062 49ZM365.487 50V38.3636H366.828V42.6591H366.942C367.04 42.5076 367.177 42.3144 367.351 42.0795C367.529 41.8409 367.783 41.6288 368.112 41.4432C368.446 41.2538 368.896 41.1591 369.464 41.1591C370.199 41.1591 370.847 41.3428 371.408 41.7102C371.968 42.0777 372.406 42.5985 372.72 43.2727C373.035 43.947 373.192 44.7424 373.192 45.6591C373.192 46.5833 373.035 47.3845 372.72 48.0625C372.406 48.7367 371.97 49.2595 371.413 49.6307C370.857 49.9981 370.214 50.1818 369.487 50.1818C368.927 50.1818 368.478 50.089 368.141 49.9034C367.804 49.714 367.544 49.5 367.362 49.2614C367.18 49.0189 367.04 48.8182 366.942 48.6591H366.783V50H365.487ZM366.805 45.6364C366.805 46.2955 366.902 46.8769 367.095 47.3807C367.288 47.8807 367.571 48.2727 367.942 48.5568C368.313 48.8371 368.768 48.9773 369.305 48.9773C369.866 48.9773 370.334 48.8295 370.709 48.5341C371.088 48.2348 371.372 47.8333 371.561 47.3295C371.754 46.822 371.851 46.2576 371.851 45.6364C371.851 45.0227 371.756 44.4697 371.567 43.9773C371.381 43.4811 371.099 43.089 370.72 42.8011C370.345 42.5095 369.874 42.3636 369.305 42.3636C368.76 42.3636 368.302 42.5019 367.93 42.7784C367.559 43.0511 367.279 43.4337 367.089 43.9261C366.9 44.4148 366.805 44.9848 366.805 45.6364ZM376.584 38.3636V50H375.243V38.3636H376.584ZM382.699 50.1818C381.858 50.1818 381.133 49.9962 380.523 49.625C379.917 49.25 379.449 48.7273 379.119 48.0568C378.794 47.3826 378.631 46.5985 378.631 45.7045C378.631 44.8106 378.794 44.0227 379.119 43.3409C379.449 42.6553 379.907 42.1212 380.494 41.7386C381.085 41.3523 381.775 41.1591 382.562 41.1591C383.017 41.1591 383.466 41.2348 383.909 41.3864C384.352 41.5379 384.756 41.7841 385.119 42.125C385.483 42.4621 385.773 42.9091 385.989 43.4659C386.205 44.0227 386.312 44.7083 386.312 45.5227V46.0909H379.585V44.9318H384.949C384.949 44.4394 384.85 44 384.653 43.6136C384.46 43.2273 384.184 42.9223 383.824 42.6989C383.468 42.4754 383.047 42.3636 382.562 42.3636C382.028 42.3636 381.566 42.4962 381.176 42.7614C380.79 43.0227 380.492 43.3636 380.284 43.7841C380.076 44.2045 379.972 44.6553 379.972 45.1364V45.9091C379.972 46.5682 380.085 47.1269 380.312 47.5852C380.544 48.0398 380.864 48.3864 381.273 48.625C381.682 48.8598 382.157 48.9773 382.699 48.9773C383.051 48.9773 383.369 48.928 383.653 48.8295C383.941 48.7273 384.189 48.5758 384.398 48.375C384.606 48.1705 384.767 47.9167 384.881 47.6136L386.176 47.9773C386.04 48.4167 385.811 48.803 385.489 49.1364C385.167 49.4659 384.769 49.7235 384.295 49.9091C383.822 50.0909 383.29 50.1818 382.699 50.1818ZM391.648 50.1818C390.92 50.1818 390.278 49.9981 389.722 49.6307C389.165 49.2595 388.729 48.7367 388.415 48.0625C388.1 47.3845 387.943 46.5833 387.943 45.6591C387.943 44.7424 388.1 43.947 388.415 43.2727C388.729 42.5985 389.167 42.0777 389.727 41.7102C390.288 41.3428 390.936 41.1591 391.67 41.1591C392.239 41.1591 392.688 41.2538 393.017 41.4432C393.35 41.6288 393.604 41.8409 393.778 42.0795C393.956 42.3144 394.095 42.5076 394.193 42.6591H394.307V38.3636H395.648V50H394.352V48.6591H394.193C394.095 48.8182 393.955 49.0189 393.773 49.2614C393.591 49.5 393.331 49.714 392.994 49.9034C392.657 50.089 392.208 50.1818 391.648 50.1818ZM391.83 48.9773C392.367 48.9773 392.822 48.8371 393.193 48.5568C393.564 48.2727 393.847 47.8807 394.04 47.3807C394.233 46.8769 394.33 46.2955 394.33 45.6364C394.33 44.9848 394.235 44.4148 394.045 43.9261C393.856 43.4337 393.576 43.0511 393.205 42.7784C392.833 42.5019 392.375 42.3636 391.83 42.3636C391.261 42.3636 390.788 42.5095 390.409 42.8011C390.034 43.089 389.752 43.4811 389.562 43.9773C389.377 44.4697 389.284 45.0227 389.284 45.6364C389.284 46.2576 389.379 46.822 389.568 47.3295C389.761 47.8333 390.045 48.2348 390.42 48.5341C390.799 48.8295 391.269 48.9773 391.83 48.9773ZM30.7727 63.6136V62.3636H39.5V63.6136H35.8409V74H34.4318V63.6136H30.7727ZM43.8864 74.1818C43.0455 74.1818 42.3201 73.9962 41.7102 73.625C41.1042 73.25 40.6364 72.7273 40.3068 72.0568C39.9811 71.3826 39.8182 70.5985 39.8182 69.7045C39.8182 68.8106 39.9811 68.0227 40.3068 67.3409C40.6364 66.6553 41.0947 66.1212 41.6818 65.7386C42.2727 65.3523 42.9621 65.1591 43.75 65.1591C44.2045 65.1591 44.6534 65.2348 45.0966 65.3864C45.5398 65.5379 45.9432 65.7841 46.3068 66.125C46.6705 66.4621 46.9602 66.9091 47.1761 67.4659C47.392 68.0227 47.5 68.7083 47.5 69.5227V70.0909H40.7727V68.9318H46.1364C46.1364 68.4394 46.0379 68 45.8409 67.6136C45.6477 67.2273 45.3712 66.9223 45.0114 66.6989C44.6553 66.4754 44.2348 66.3636 43.75 66.3636C43.2159 66.3636 42.7538 66.4962 42.3636 66.7614C41.9773 67.0227 41.6799 67.3636 41.4716 67.7841C41.2633 68.2045 41.1591 68.6553 41.1591 69.1364V69.9091C41.1591 70.5682 41.2727 71.1269 41.5 71.5852C41.7311 72.0398 42.0511 72.3864 42.4602 72.625C42.8693 72.8598 43.3447 72.9773 43.8864 72.9773C44.2386 72.9773 44.5568 72.928 44.8409 72.8295C45.1288 72.7273 45.3769 72.5758 45.5852 72.375C45.7936 72.1705 45.9545 71.9167 46.0682 71.6136L47.3636 71.9773C47.2273 72.4167 46.9981 72.803 46.6761 73.1364C46.3542 73.4659 45.9564 73.7235 45.483 73.9091C45.0095 74.0909 44.4773 74.1818 43.8864 74.1818ZM50.3054 65.2727L52.3963 68.8409L54.4872 65.2727H56.0327L53.2145 69.6364L56.0327 74H54.4872L52.3963 70.6136L50.3054 74H48.7599L51.5327 69.6364L48.7599 65.2727H50.3054ZM61.7415 65.2727V66.4091H57.2188V65.2727H61.7415ZM58.5369 63.1818H59.8778V71.5C59.8778 71.8788 59.9328 72.1629 60.0426 72.3523C60.1563 72.5379 60.3002 72.6629 60.4744 72.7273C60.6525 72.7879 60.84 72.8182 61.0369 72.8182C61.1847 72.8182 61.3059 72.8106 61.4006 72.7955C61.4953 72.7765 61.571 72.7614 61.6278 72.75L61.9006 73.9545C61.8097 73.9886 61.6828 74.0227 61.5199 74.0568C61.357 74.0947 61.1506 74.1136 60.9006 74.1136C60.5218 74.1136 60.1506 74.0322 59.7869 73.8693C59.4271 73.7064 59.1278 73.4583 58.8892 73.125C58.6544 72.7917 58.5369 72.3712 58.5369 71.8636V63.1818ZM64.7358 74.0909C64.4555 74.0909 64.215 73.9905 64.0142 73.7898C63.8134 73.589 63.7131 73.3485 63.7131 73.0682C63.7131 72.7879 63.8134 72.5473 64.0142 72.3466C64.215 72.1458 64.4555 72.0455 64.7358 72.0455C65.0161 72.0455 65.2566 72.1458 65.4574 72.3466C65.6581 72.5473 65.7585 72.7879 65.7585 73.0682C65.7585 73.2538 65.7112 73.4242 65.6165 73.5795C65.5256 73.7348 65.4025 73.8598 65.2472 73.9545C65.0956 74.0455 64.9252 74.0909 64.7358 74.0909ZM64.7358 67.6136C64.4555 67.6136 64.215 67.5133 64.0142 67.3125C63.8134 67.1117 63.7131 66.8712 63.7131 66.5909C63.7131 66.3106 63.8134 66.0701 64.0142 65.8693C64.215 65.6686 64.4555 65.5682 64.7358 65.5682C65.0161 65.5682 65.2566 65.6686 65.4574 65.8693C65.6581 66.0701 65.7585 66.3106 65.7585 66.5909C65.7585 66.7765 65.7112 66.947 65.6165 67.1023C65.5256 67.2576 65.4025 67.3826 65.2472 67.4773C65.0956 67.5682 64.9252 67.6136 64.7358 67.6136ZM75.233 74.2045C74.6799 74.2045 74.178 74.1004 73.7273 73.892C73.2765 73.6799 72.9186 73.375 72.6534 72.9773C72.3883 72.5758 72.2557 72.0909 72.2557 71.5227C72.2557 71.0227 72.3542 70.6174 72.5511 70.3068C72.7481 69.9924 73.0114 69.7462 73.3409 69.5682C73.6705 69.3902 74.0341 69.2576 74.4318 69.1705C74.8333 69.0795 75.2367 69.0076 75.642 68.9545C76.1723 68.8864 76.6023 68.8352 76.9318 68.8011C77.2652 68.7633 77.5076 68.7008 77.6591 68.6136C77.8144 68.5265 77.892 68.375 77.892 68.1591V68.1136C77.892 67.553 77.7386 67.1174 77.4318 66.8068C77.1288 66.4962 76.6686 66.3409 76.0511 66.3409C75.411 66.3409 74.9091 66.4811 74.5455 66.7614C74.1818 67.0417 73.9261 67.3409 73.7784 67.6591L72.5057 67.2045C72.733 66.6742 73.036 66.2614 73.4148 65.9659C73.7973 65.6667 74.214 65.4583 74.6648 65.3409C75.1193 65.2197 75.5663 65.1591 76.0057 65.1591C76.286 65.1591 76.608 65.1932 76.9716 65.2614C77.339 65.3258 77.6932 65.4602 78.0341 65.6648C78.3788 65.8693 78.6648 66.178 78.892 66.5909C79.1193 67.0038 79.233 67.5568 79.233 68.25V74H77.892V72.8182H77.8239C77.733 73.0076 77.5814 73.2102 77.3693 73.4261C77.1572 73.642 76.875 73.8258 76.5227 73.9773C76.1705 74.1288 75.7405 74.2045 75.233 74.2045ZM75.4375 73C75.9678 73 76.4148 72.8958 76.7784 72.6875C77.1458 72.4792 77.4223 72.2102 77.608 71.8807C77.7973 71.5511 77.892 71.2045 77.892 70.8409V69.6136C77.8352 69.6818 77.7102 69.7443 77.517 69.8011C77.3277 69.8542 77.108 69.9015 76.858 69.9432C76.6117 69.9811 76.3712 70.0152 76.1364 70.0455C75.9053 70.072 75.7178 70.0947 75.5739 70.1136C75.2254 70.1591 74.8996 70.233 74.5966 70.3352C74.2973 70.4337 74.0549 70.5833 73.8693 70.7841C73.6875 70.9811 73.5966 71.25 73.5966 71.5909C73.5966 72.0568 73.7689 72.4091 74.1136 72.6477C74.4621 72.8826 74.9034 73 75.4375 73ZM81.6804 77.2727V65.2727H82.9759V66.6591H83.1349C83.2334 66.5076 83.3698 66.3144 83.544 66.0795C83.7221 65.8409 83.9759 65.6288 84.3054 65.4432C84.6387 65.2538 85.0895 65.1591 85.6577 65.1591C86.3925 65.1591 87.0402 65.3428 87.6009 65.7102C88.1615 66.0777 88.599 66.5985 88.9134 67.2727C89.2277 67.947 89.3849 68.7424 89.3849 69.6591C89.3849 70.5833 89.2277 71.3845 88.9134 72.0625C88.599 72.7367 88.1634 73.2595 87.6065 73.6307C87.0497 73.9981 86.4077 74.1818 85.6804 74.1818C85.1198 74.1818 84.6709 74.089 84.3338 73.9034C83.9967 73.714 83.7372 73.5 83.5554 73.2614C83.3736 73.0189 83.2334 72.8182 83.1349 72.6591H83.0213V77.2727H81.6804ZM82.9986 69.6364C82.9986 70.2955 83.0952 70.8769 83.2884 71.3807C83.4815 71.8807 83.7637 72.2727 84.1349 72.5568C84.5062 72.8371 84.9607 72.9773 85.4986 72.9773C86.0592 72.9773 86.527 72.8295 86.902 72.5341C87.2808 72.2348 87.5649 71.8333 87.7543 71.3295C87.9474 70.822 88.044 70.2576 88.044 69.6364C88.044 69.0227 87.9493 68.4697 87.7599 67.9773C87.5743 67.4811 87.2921 67.089 86.9134 66.8011C86.5384 66.5095 86.0668 66.3636 85.4986 66.3636C84.9531 66.3636 84.4948 66.5019 84.1236 66.7784C83.7524 67.0511 83.4721 67.4337 83.2827 67.9261C83.0933 68.4148 82.9986 68.9848 82.9986 69.6364ZM91.4304 77.2727V65.2727H92.7259V66.6591H92.8849C92.9834 66.5076 93.1198 66.3144 93.294 66.0795C93.4721 65.8409 93.7259 65.6288 94.0554 65.4432C94.3887 65.2538 94.8395 65.1591 95.4077 65.1591C96.1425 65.1591 96.7902 65.3428 97.3509 65.7102C97.9115 66.0777 98.349 66.5985 98.6634 67.2727C98.9777 67.947 99.1349 68.7424 99.1349 69.6591C99.1349 70.5833 98.9777 71.3845 98.6634 72.0625C98.349 72.7367 97.9134 73.2595 97.3565 73.6307C96.7997 73.9981 96.1577 74.1818 95.4304 74.1818C94.8698 74.1818 94.4209 74.089 94.0838 73.9034C93.7467 73.714 93.4872 73.5 93.3054 73.2614C93.1236 73.0189 92.9834 72.8182 92.8849 72.6591H92.7713V77.2727H91.4304ZM92.7486 69.6364C92.7486 70.2955 92.8452 70.8769 93.0384 71.3807C93.2315 71.8807 93.5137 72.2727 93.8849 72.5568C94.2562 72.8371 94.7107 72.9773 95.2486 72.9773C95.8092 72.9773 96.277 72.8295 96.652 72.5341C97.0308 72.2348 97.3149 71.8333 97.5043 71.3295C97.6974 70.822 97.794 70.2576 97.794 69.6364C97.794 69.0227 97.6993 68.4697 97.5099 67.9773C97.3243 67.4811 97.0421 67.089 96.6634 66.8011C96.2884 66.5095 95.8168 66.3636 95.2486 66.3636C94.7031 66.3636 94.2448 66.5019 93.8736 66.7784C93.5024 67.0511 93.2221 67.4337 93.0327 67.9261C92.8433 68.4148 92.7486 68.9848 92.7486 69.6364ZM107.362 67.2273L106.158 67.5682C106.082 67.3674 105.97 67.1723 105.822 66.983C105.679 66.7898 105.482 66.6307 105.232 66.5057C104.982 66.3807 104.661 66.3182 104.271 66.3182C103.737 66.3182 103.292 66.4413 102.936 66.6875C102.584 66.9299 102.408 67.2386 102.408 67.6136C102.408 67.947 102.529 68.2102 102.771 68.4034C103.014 68.5966 103.393 68.7576 103.908 68.8864L105.203 69.2045C105.983 69.3939 106.565 69.6837 106.947 70.0739C107.33 70.4602 107.521 70.9583 107.521 71.5682C107.521 72.0682 107.377 72.5152 107.089 72.9091C106.805 73.303 106.408 73.6136 105.896 73.8409C105.385 74.0682 104.79 74.1818 104.112 74.1818C103.222 74.1818 102.485 73.9886 101.902 73.6023C101.319 73.2159 100.949 72.6515 100.794 71.9091L102.067 71.5909C102.188 72.0606 102.417 72.4129 102.754 72.6477C103.095 72.8826 103.54 73 104.089 73C104.714 73 105.211 72.8674 105.578 72.6023C105.949 72.3333 106.135 72.0114 106.135 71.6364C106.135 71.3333 106.029 71.0795 105.817 70.875C105.605 70.6667 105.279 70.5114 104.839 70.4091L103.385 70.0682C102.586 69.8788 101.999 69.5852 101.624 69.1875C101.252 68.786 101.067 68.2841 101.067 67.6818C101.067 67.1894 101.205 66.7538 101.482 66.375C101.762 65.9962 102.143 65.6989 102.624 65.483C103.108 65.267 103.658 65.1591 104.271 65.1591C105.135 65.1591 105.813 65.3485 106.305 65.7273C106.802 66.1061 107.154 66.6061 107.362 67.2273ZM113.653 61.8182L109.903 75.75H108.676L112.426 61.8182H113.653ZM115.425 74V62.3636H116.766V66.6591H116.879C116.978 66.5076 117.114 66.3144 117.288 66.0795C117.466 65.8409 117.72 65.6288 118.05 65.4432C118.383 65.2538 118.834 65.1591 119.402 65.1591C120.137 65.1591 120.785 65.3428 121.345 65.7102C121.906 66.0777 122.343 66.5985 122.658 67.2727C122.972 67.947 123.129 68.7424 123.129 69.6591C123.129 70.5833 122.972 71.3845 122.658 72.0625C122.343 72.7367 121.908 73.2595 121.351 73.6307C120.794 73.9981 120.152 74.1818 119.425 74.1818C118.864 74.1818 118.415 74.089 118.078 73.9034C117.741 73.714 117.482 73.5 117.3 73.2614C117.118 73.0189 116.978 72.8182 116.879 72.6591H116.72V74H115.425ZM116.743 69.6364C116.743 70.2955 116.839 70.8769 117.033 71.3807C117.226 71.8807 117.508 72.2727 117.879 72.5568C118.25 72.8371 118.705 72.9773 119.243 72.9773C119.804 72.9773 120.271 72.8295 120.646 72.5341C121.025 72.2348 121.309 71.8333 121.499 71.3295C121.692 70.822 121.788 70.2576 121.788 69.6364C121.788 69.0227 121.694 68.4697 121.504 67.9773C121.319 67.4811 121.036 67.089 120.658 66.8011C120.283 66.5095 119.811 66.3636 119.243 66.3636C118.697 66.3636 118.239 66.5019 117.868 66.7784C117.497 67.0511 117.216 67.4337 117.027 67.9261C116.838 68.4148 116.743 68.9848 116.743 69.6364ZM128.726 74.1818C127.938 74.1818 127.247 73.9943 126.652 73.6193C126.061 73.2443 125.599 72.7197 125.266 72.0455C124.936 71.3712 124.771 70.5833 124.771 69.6818C124.771 68.7727 124.936 67.9792 125.266 67.3011C125.599 66.6231 126.061 66.0966 126.652 65.7216C127.247 65.3466 127.938 65.1591 128.726 65.1591C129.514 65.1591 130.203 65.3466 130.794 65.7216C131.389 66.0966 131.851 66.6231 132.18 67.3011C132.514 67.9792 132.68 68.7727 132.68 69.6818C132.68 70.5833 132.514 71.3712 132.18 72.0455C131.851 72.7197 131.389 73.2443 130.794 73.6193C130.203 73.9943 129.514 74.1818 128.726 74.1818ZM128.726 72.9773C129.324 72.9773 129.817 72.8239 130.203 72.517C130.589 72.2102 130.875 71.8068 131.061 71.3068C131.247 70.8068 131.339 70.2652 131.339 69.6818C131.339 69.0985 131.247 68.5549 131.061 68.0511C130.875 67.5473 130.589 67.1402 130.203 66.8295C129.817 66.5189 129.324 66.3636 128.726 66.3636C128.127 66.3636 127.635 66.5189 127.249 66.8295C126.862 67.1402 126.576 67.5473 126.391 68.0511C126.205 68.5549 126.112 69.0985 126.112 69.6818C126.112 70.2652 126.205 70.8068 126.391 71.3068C126.576 71.8068 126.862 72.2102 127.249 72.517C127.635 72.8239 128.127 72.9773 128.726 72.9773ZM138.023 74.1818C137.295 74.1818 136.653 73.9981 136.097 73.6307C135.54 73.2595 135.104 72.7367 134.79 72.0625C134.475 71.3845 134.318 70.5833 134.318 69.6591C134.318 68.7424 134.475 67.947 134.79 67.2727C135.104 66.5985 135.542 66.0777 136.102 65.7102C136.663 65.3428 137.311 65.1591 138.045 65.1591C138.614 65.1591 139.063 65.2538 139.392 65.4432C139.725 65.6288 139.979 65.8409 140.153 66.0795C140.331 66.3144 140.47 66.5076 140.568 66.6591H140.682V62.3636H142.023V74H140.727V72.6591H140.568C140.47 72.8182 140.33 73.0189 140.148 73.2614C139.966 73.5 139.706 73.714 139.369 73.9034C139.032 74.089 138.583 74.1818 138.023 74.1818ZM138.205 72.9773C138.742 72.9773 139.197 72.8371 139.568 72.5568C139.939 72.2727 140.222 71.8807 140.415 71.3807C140.608 70.8769 140.705 70.2955 140.705 69.6364C140.705 68.9848 140.61 68.4148 140.42 67.9261C140.231 67.4337 139.951 67.0511 139.58 66.7784C139.208 66.5019 138.75 66.3636 138.205 66.3636C137.636 66.3636 137.163 66.5095 136.784 66.8011C136.409 67.089 136.127 67.4811 135.938 67.9773C135.752 68.4697 135.659 69.0227 135.659 69.6364C135.659 70.2576 135.754 70.822 135.943 71.3295C136.136 71.8333 136.42 72.2348 136.795 72.5341C137.174 72.8295 137.644 72.9773 138.205 72.9773ZM145.528 77.25C145.301 77.25 145.098 77.2311 144.92 77.1932C144.742 77.1591 144.619 77.125 144.551 77.0909L144.892 75.9091C145.381 76.0341 145.788 76.0303 146.114 75.8977C146.439 75.7689 146.722 75.3788 146.96 74.7273L147.21 74.0455L143.983 65.2727H145.438L147.847 72.2273H147.938L150.347 65.2727L151.812 65.2955L148.097 75.2727C147.93 75.7159 147.723 76.0833 147.477 76.375C147.231 76.6705 146.945 76.8902 146.619 77.0341C146.297 77.178 145.934 77.25 145.528 77.25ZM156.794 61.8182L153.044 75.75H151.817L155.567 61.8182H156.794ZM158.565 74V62.3636H159.906V66.6591H160.02C160.118 66.5076 160.255 66.3144 160.429 66.0795C160.607 65.8409 160.861 65.6288 161.19 65.4432C161.524 65.2538 161.974 65.1591 162.543 65.1591C163.277 65.1591 163.925 65.3428 164.486 65.7102C165.046 66.0777 165.484 66.5985 165.798 67.2727C166.113 67.947 166.27 68.7424 166.27 69.6591C166.27 70.5833 166.113 71.3845 165.798 72.0625C165.484 72.7367 165.048 73.2595 164.491 73.6307C163.935 73.9981 163.293 74.1818 162.565 74.1818C162.005 74.1818 161.556 74.089 161.219 73.9034C160.882 73.714 160.622 73.5 160.44 73.2614C160.259 73.0189 160.118 72.8182 160.02 72.6591H159.861V74H158.565ZM159.884 69.6364C159.884 70.2955 159.98 70.8769 160.173 71.3807C160.366 71.8807 160.649 72.2727 161.02 72.5568C161.391 72.8371 161.846 72.9773 162.384 72.9773C162.944 72.9773 163.412 72.8295 163.787 72.5341C164.166 72.2348 164.45 71.8333 164.639 71.3295C164.832 70.822 164.929 70.2576 164.929 69.6364C164.929 69.0227 164.834 68.4697 164.645 67.9773C164.459 67.4811 164.177 67.089 163.798 66.8011C163.423 66.5095 162.952 66.3636 162.384 66.3636C161.838 66.3636 161.38 66.5019 161.009 66.7784C160.637 67.0511 160.357 67.4337 160.168 67.9261C159.978 68.4148 159.884 68.9848 159.884 69.6364ZM171.866 74.1818C171.079 74.1818 170.387 73.9943 169.793 73.6193C169.202 73.2443 168.74 72.7197 168.406 72.0455C168.077 71.3712 167.912 70.5833 167.912 69.6818C167.912 68.7727 168.077 67.9792 168.406 67.3011C168.74 66.6231 169.202 66.0966 169.793 65.7216C170.387 65.3466 171.079 65.1591 171.866 65.1591C172.654 65.1591 173.344 65.3466 173.935 65.7216C174.529 66.0966 174.991 66.6231 175.321 67.3011C175.654 67.9792 175.821 68.7727 175.821 69.6818C175.821 70.5833 175.654 71.3712 175.321 72.0455C174.991 72.7197 174.529 73.2443 173.935 73.6193C173.344 73.9943 172.654 74.1818 171.866 74.1818ZM171.866 72.9773C172.465 72.9773 172.957 72.8239 173.344 72.517C173.73 72.2102 174.016 71.8068 174.202 71.3068C174.387 70.8068 174.48 70.2652 174.48 69.6818C174.48 69.0985 174.387 68.5549 174.202 68.0511C174.016 67.5473 173.73 67.1402 173.344 66.8295C172.957 66.5189 172.465 66.3636 171.866 66.3636C171.268 66.3636 170.776 66.5189 170.389 66.8295C170.003 67.1402 169.717 67.5473 169.531 68.0511C169.346 68.5549 169.253 69.0985 169.253 69.6818C169.253 70.2652 169.346 70.8068 169.531 71.3068C169.717 71.8068 170.003 72.2102 170.389 72.517C170.776 72.8239 171.268 72.9773 171.866 72.9773ZM181.163 74.1818C180.436 74.1818 179.794 73.9981 179.237 73.6307C178.68 73.2595 178.245 72.7367 177.93 72.0625C177.616 71.3845 177.459 70.5833 177.459 69.6591C177.459 68.7424 177.616 67.947 177.93 67.2727C178.245 66.5985 178.682 66.0777 179.243 65.7102C179.804 65.3428 180.451 65.1591 181.186 65.1591C181.754 65.1591 182.203 65.2538 182.533 65.4432C182.866 65.6288 183.12 65.8409 183.294 66.0795C183.472 66.3144 183.61 66.5076 183.709 66.6591H183.822V62.3636H185.163V74H183.868V72.6591H183.709C183.61 72.8182 183.47 73.0189 183.288 73.2614C183.107 73.5 182.847 73.714 182.51 73.9034C182.173 74.089 181.724 74.1818 181.163 74.1818ZM181.345 72.9773C181.883 72.9773 182.338 72.8371 182.709 72.5568C183.08 72.2727 183.362 71.8807 183.555 71.3807C183.749 70.8769 183.845 70.2955 183.845 69.6364C183.845 68.9848 183.75 68.4148 183.561 67.9261C183.372 67.4337 183.091 67.0511 182.72 66.7784C182.349 66.5019 181.891 66.3636 181.345 66.3636C180.777 66.3636 180.304 66.5095 179.925 66.8011C179.55 67.089 179.268 67.4811 179.078 67.9773C178.893 68.4697 178.8 69.0227 178.8 69.6364C178.8 70.2576 178.894 70.822 179.084 71.3295C179.277 71.8333 179.561 72.2348 179.936 72.5341C180.315 72.8295 180.785 72.9773 181.345 72.9773ZM188.669 77.25C188.442 77.25 188.239 77.2311 188.061 77.1932C187.883 77.1591 187.76 77.125 187.692 77.0909L188.033 75.9091C188.521 76.0341 188.929 76.0303 189.254 75.8977C189.58 75.7689 189.862 75.3788 190.101 74.7273L190.351 74.0455L187.124 65.2727H188.578L190.987 72.2273H191.078L193.487 65.2727L194.953 65.2955L191.237 75.2727C191.071 75.7159 190.864 76.0833 190.618 76.375C190.372 76.6705 190.086 76.8902 189.76 77.0341C189.438 77.178 189.074 77.25 188.669 77.25ZM201.727 68.3864V69.6364H196.636V68.3864H201.727ZM204.087 74V65.2727H205.382V66.6364H205.496C205.678 66.1705 205.971 65.8087 206.376 65.5511C206.782 65.2898 207.268 65.1591 207.837 65.1591C208.412 65.1591 208.892 65.2898 209.274 65.5511C209.661 65.8087 209.962 66.1705 210.178 66.6364H210.268C210.492 66.1856 210.827 65.8277 211.274 65.5625C211.721 65.2936 212.257 65.1591 212.882 65.1591C213.662 65.1591 214.301 65.4034 214.797 65.892C215.293 66.3769 215.541 67.1326 215.541 68.1591V74H214.2V68.1591C214.2 67.5152 214.024 67.0549 213.672 66.7784C213.32 66.5019 212.905 66.3636 212.428 66.3636C211.814 66.3636 211.339 66.5492 211.001 66.9205C210.664 67.2879 210.496 67.7538 210.496 68.3182V74H209.132V68.0227C209.132 67.5265 208.971 67.1269 208.649 66.8239C208.327 66.517 207.912 66.3636 207.405 66.3636C207.056 66.3636 206.731 66.4564 206.428 66.642C206.128 66.8277 205.886 67.0852 205.7 67.4148C205.518 67.7405 205.428 68.1174 205.428 68.5455V74H204.087ZM217.993 74V65.2727H219.334V74H217.993ZM218.675 63.8182C218.413 63.8182 218.188 63.7292 217.999 63.5511C217.813 63.3731 217.72 63.1591 217.72 62.9091C217.72 62.6591 217.813 62.4451 217.999 62.267C218.188 62.089 218.413 62 218.675 62C218.936 62 219.16 62.089 219.345 62.267C219.535 62.4451 219.629 62.6591 219.629 62.9091C219.629 63.1591 219.535 63.3731 219.345 63.5511C219.16 63.7292 218.936 63.8182 218.675 63.8182ZM225.085 74.1818C224.358 74.1818 223.716 73.9981 223.159 73.6307C222.602 73.2595 222.167 72.7367 221.852 72.0625C221.538 71.3845 221.381 70.5833 221.381 69.6591C221.381 68.7424 221.538 67.947 221.852 67.2727C222.167 66.5985 222.604 66.0777 223.165 65.7102C223.725 65.3428 224.373 65.1591 225.108 65.1591C225.676 65.1591 226.125 65.2538 226.455 65.4432C226.788 65.6288 227.042 65.8409 227.216 66.0795C227.394 66.3144 227.532 66.5076 227.631 66.6591H227.744V62.3636H229.085V74H227.79V72.6591H227.631C227.532 72.8182 227.392 73.0189 227.21 73.2614C227.028 73.5 226.769 73.714 226.432 73.9034C226.095 74.089 225.646 74.1818 225.085 74.1818ZM225.267 72.9773C225.805 72.9773 226.259 72.8371 226.631 72.5568C227.002 72.2727 227.284 71.8807 227.477 71.3807C227.67 70.8769 227.767 70.2955 227.767 69.6364C227.767 68.9848 227.672 68.4148 227.483 67.9261C227.294 67.4337 227.013 67.0511 226.642 66.7784C226.271 66.5019 225.813 66.3636 225.267 66.3636C224.699 66.3636 224.225 66.5095 223.847 66.8011C223.472 67.089 223.189 67.4811 223 67.9773C222.814 68.4697 222.722 69.0227 222.722 69.6364C222.722 70.2576 222.816 70.822 223.006 71.3295C223.199 71.8333 223.483 72.2348 223.858 72.5341C224.237 72.8295 224.706 72.9773 225.267 72.9773ZM237.909 67.2273L236.705 67.5682C236.629 67.3674 236.517 67.1723 236.369 66.983C236.225 66.7898 236.028 66.6307 235.778 66.5057C235.528 66.3807 235.208 66.3182 234.818 66.3182C234.284 66.3182 233.839 66.4413 233.483 66.6875C233.131 66.9299 232.955 67.2386 232.955 67.6136C232.955 67.947 233.076 68.2102 233.318 68.4034C233.561 68.5966 233.939 68.7576 234.455 68.8864L235.75 69.2045C236.53 69.3939 237.112 69.6837 237.494 70.0739C237.877 70.4602 238.068 70.9583 238.068 71.5682C238.068 72.0682 237.924 72.5152 237.636 72.9091C237.352 73.303 236.955 73.6136 236.443 73.8409C235.932 74.0682 235.337 74.1818 234.659 74.1818C233.769 74.1818 233.032 73.9886 232.449 73.6023C231.866 73.2159 231.496 72.6515 231.341 71.9091L232.614 71.5909C232.735 72.0606 232.964 72.4129 233.301 72.6477C233.642 72.8826 234.087 73 234.636 73C235.261 73 235.758 72.8674 236.125 72.6023C236.496 72.3333 236.682 72.0114 236.682 71.6364C236.682 71.3333 236.576 71.0795 236.364 70.875C236.152 70.6667 235.826 70.5114 235.386 70.4091L233.932 70.0682C233.133 69.8788 232.545 69.5852 232.17 69.1875C231.799 68.786 231.614 68.2841 231.614 67.6818C231.614 67.1894 231.752 66.7538 232.028 66.375C232.309 65.9962 232.689 65.6989 233.17 65.483C233.655 65.267 234.205 65.1591 234.818 65.1591C235.682 65.1591 236.36 65.3485 236.852 65.7273C237.348 66.1061 237.701 66.6061 237.909 67.2273ZM240.087 74V65.2727H241.428V74H240.087ZM240.768 63.8182C240.507 63.8182 240.282 63.7292 240.092 63.5511C239.907 63.3731 239.814 63.1591 239.814 62.9091C239.814 62.6591 239.907 62.4451 240.092 62.267C240.282 62.089 240.507 62 240.768 62C241.03 62 241.253 62.089 241.439 62.267C241.628 62.4451 241.723 62.6591 241.723 62.9091C241.723 63.1591 241.628 63.3731 241.439 63.5511C241.253 63.7292 241.03 63.8182 240.768 63.8182ZM243.634 74V72.9773L248.588 66.6136V66.5227H243.793V65.2727H250.315V66.3409L245.497 72.6591V72.75H250.474V74H243.634ZM255.949 74.1818C255.108 74.1818 254.383 73.9962 253.773 73.625C253.167 73.25 252.699 72.7273 252.369 72.0568C252.044 71.3826 251.881 70.5985 251.881 69.7045C251.881 68.8106 252.044 68.0227 252.369 67.3409C252.699 66.6553 253.157 66.1212 253.744 65.7386C254.335 65.3523 255.025 65.1591 255.812 65.1591C256.267 65.1591 256.716 65.2348 257.159 65.3864C257.602 65.5379 258.006 65.7841 258.369 66.125C258.733 66.4621 259.023 66.9091 259.239 67.4659C259.455 68.0227 259.562 68.7083 259.562 69.5227V70.0909H252.835V68.9318H258.199C258.199 68.4394 258.1 68 257.903 67.6136C257.71 67.2273 257.434 66.9223 257.074 66.6989C256.718 66.4754 256.297 66.3636 255.812 66.3636C255.278 66.3636 254.816 66.4962 254.426 66.7614C254.04 67.0227 253.742 67.3636 253.534 67.7841C253.326 68.2045 253.222 68.6553 253.222 69.1364V69.9091C253.222 70.5682 253.335 71.1269 253.562 71.5852C253.794 72.0398 254.114 72.3864 254.523 72.625C254.932 72.8598 255.407 72.9773 255.949 72.9773C256.301 72.9773 256.619 72.928 256.903 72.8295C257.191 72.7273 257.439 72.5758 257.648 72.375C257.856 72.1705 258.017 71.9167 258.131 71.6136L259.426 71.9773C259.29 72.4167 259.061 72.803 258.739 73.1364C258.417 73.4659 258.019 73.7235 257.545 73.9091C257.072 74.0909 256.54 74.1818 255.949 74.1818ZM267.625 74V75.25H260.352V74H267.625ZM269.571 74V65.2727H270.866V66.5909H270.957C271.116 66.1591 271.404 65.8087 271.821 65.5398C272.238 65.2708 272.707 65.1364 273.23 65.1364C273.329 65.1364 273.452 65.1383 273.599 65.142C273.747 65.1458 273.859 65.1515 273.935 65.1591V66.5227C273.889 66.5114 273.785 66.4943 273.622 66.4716C273.463 66.4451 273.295 66.4318 273.116 66.4318C272.692 66.4318 272.313 66.5208 271.98 66.6989C271.651 66.8731 271.389 67.1155 271.196 67.4261C271.007 67.733 270.912 68.0833 270.912 68.4773V74H269.571ZM278.918 74.1818C278.077 74.1818 277.351 73.9962 276.741 73.625C276.135 73.25 275.668 72.7273 275.338 72.0568C275.012 71.3826 274.849 70.5985 274.849 69.7045C274.849 68.8106 275.012 68.0227 275.338 67.3409C275.668 66.6553 276.126 66.1212 276.713 65.7386C277.304 65.3523 277.993 65.1591 278.781 65.1591C279.236 65.1591 279.685 65.2348 280.128 65.3864C280.571 65.5379 280.974 65.7841 281.338 66.125C281.702 66.4621 281.991 66.9091 282.207 67.4659C282.423 68.0227 282.531 68.7083 282.531 69.5227V70.0909H275.804V68.9318H281.168C281.168 68.4394 281.069 68 280.872 67.6136C280.679 67.2273 280.402 66.9223 280.043 66.6989C279.687 66.4754 279.266 66.3636 278.781 66.3636C278.247 66.3636 277.785 66.4962 277.395 66.7614C277.009 67.0227 276.711 67.3636 276.503 67.7841C276.295 68.2045 276.19 68.6553 276.19 69.1364V69.9091C276.19 70.5682 276.304 71.1269 276.531 71.5852C276.762 72.0398 277.082 72.3864 277.491 72.625C277.901 72.8598 278.376 72.9773 278.918 72.9773C279.27 72.9773 279.588 72.928 279.872 72.8295C280.16 72.7273 280.408 72.5758 280.616 72.375C280.825 72.1705 280.986 71.9167 281.099 71.6136L282.395 71.9773C282.259 72.4167 282.029 72.803 281.707 73.1364C281.385 73.4659 280.988 73.7235 280.514 73.9091C280.041 74.0909 279.509 74.1818 278.918 74.1818ZM288.094 77.4545C287.446 77.4545 286.889 77.3712 286.423 77.2045C285.957 77.0417 285.569 76.8258 285.259 76.5568C284.952 76.2917 284.707 76.0076 284.526 75.7045L285.594 74.9545C285.715 75.1136 285.868 75.2955 286.054 75.5C286.24 75.7083 286.493 75.8883 286.815 76.0398C287.141 76.1951 287.567 76.2727 288.094 76.2727C288.798 76.2727 289.38 76.1023 289.838 75.7614C290.296 75.4205 290.526 74.8864 290.526 74.1591V72.3864H290.412C290.313 72.5455 290.173 72.7424 289.991 72.9773C289.813 73.2083 289.556 73.4148 289.219 73.5966C288.885 73.7746 288.435 73.8636 287.866 73.8636C287.162 73.8636 286.529 73.697 285.969 73.3636C285.412 73.0303 284.971 72.5455 284.645 71.9091C284.323 71.2727 284.162 70.5 284.162 69.5909C284.162 68.697 284.319 67.9186 284.634 67.2557C284.948 66.589 285.385 66.0739 285.946 65.7102C286.507 65.3428 287.154 65.1591 287.889 65.1591C288.457 65.1591 288.908 65.2538 289.241 65.4432C289.579 65.6288 289.836 65.8409 290.014 66.0795C290.196 66.3144 290.336 66.5076 290.435 66.6591H290.571V65.2727H291.866V74.25C291.866 75 291.696 75.6098 291.355 76.0795C291.018 76.553 290.563 76.8996 289.991 77.1193C289.423 77.3428 288.791 77.4545 288.094 77.4545ZM288.048 72.6591C288.586 72.6591 289.041 72.536 289.412 72.2898C289.783 72.0436 290.065 71.6894 290.259 71.2273C290.452 70.7652 290.548 70.2121 290.548 69.5682C290.548 68.9394 290.454 68.3845 290.264 67.9034C290.075 67.4223 289.795 67.0455 289.423 66.7727C289.052 66.5 288.594 66.3636 288.048 66.3636C287.48 66.3636 287.007 66.5076 286.628 66.7955C286.253 67.0833 285.971 67.4697 285.781 67.9545C285.596 68.4394 285.503 68.9773 285.503 69.5682C285.503 70.1742 285.598 70.7102 285.787 71.1761C285.98 71.6383 286.264 72.0019 286.639 72.267C287.018 72.5284 287.488 72.6591 288.048 72.6591ZM299.821 70.4318V65.2727H301.162V74H299.821V72.5227H299.73C299.526 72.9659 299.207 73.3428 298.776 73.6534C298.344 73.9602 297.798 74.1136 297.139 74.1136C296.594 74.1136 296.109 73.9943 295.685 73.7557C295.26 73.5133 294.927 73.1496 294.685 72.6648C294.442 72.1761 294.321 71.5606 294.321 70.8182V65.2727H295.662V70.7273C295.662 71.3636 295.84 71.8712 296.196 72.25C296.556 72.6288 297.014 72.8182 297.571 72.8182C297.904 72.8182 298.243 72.733 298.588 72.5625C298.937 72.392 299.228 72.1307 299.463 71.7784C299.702 71.4261 299.821 70.9773 299.821 70.4318ZM304.959 62.3636V74H303.618V62.3636H304.959ZM309.983 74.2045C309.43 74.2045 308.928 74.1004 308.477 73.892C308.027 73.6799 307.669 73.375 307.403 72.9773C307.138 72.5758 307.006 72.0909 307.006 71.5227C307.006 71.0227 307.104 70.6174 307.301 70.3068C307.498 69.9924 307.761 69.7462 308.091 69.5682C308.42 69.3902 308.784 69.2576 309.182 69.1705C309.583 69.0795 309.987 69.0076 310.392 68.9545C310.922 68.8864 311.352 68.8352 311.682 68.8011C312.015 68.7633 312.258 68.7008 312.409 68.6136C312.564 68.5265 312.642 68.375 312.642 68.1591V68.1136C312.642 67.553 312.489 67.1174 312.182 66.8068C311.879 66.4962 311.419 66.3409 310.801 66.3409C310.161 66.3409 309.659 66.4811 309.295 66.7614C308.932 67.0417 308.676 67.3409 308.528 67.6591L307.256 67.2045C307.483 66.6742 307.786 66.2614 308.165 65.9659C308.547 65.6667 308.964 65.4583 309.415 65.3409C309.869 65.2197 310.316 65.1591 310.756 65.1591C311.036 65.1591 311.358 65.1932 311.722 65.2614C312.089 65.3258 312.443 65.4602 312.784 65.6648C313.129 65.8693 313.415 66.178 313.642 66.5909C313.869 67.0038 313.983 67.5568 313.983 68.25V74H312.642V72.8182H312.574C312.483 73.0076 312.331 73.2102 312.119 73.4261C311.907 73.642 311.625 73.8258 311.273 73.9773C310.92 74.1288 310.491 74.2045 309.983 74.2045ZM310.188 73C310.718 73 311.165 72.8958 311.528 72.6875C311.896 72.4792 312.172 72.2102 312.358 71.8807C312.547 71.5511 312.642 71.2045 312.642 70.8409V69.6136C312.585 69.6818 312.46 69.7443 312.267 69.8011C312.078 69.8542 311.858 69.9015 311.608 69.9432C311.362 69.9811 311.121 70.0152 310.886 70.0455C310.655 70.072 310.468 70.0947 310.324 70.1136C309.975 70.1591 309.65 70.233 309.347 70.3352C309.047 70.4337 308.805 70.5833 308.619 70.7841C308.438 70.9811 308.347 71.25 308.347 71.5909C308.347 72.0568 308.519 72.4091 308.864 72.6477C309.212 72.8826 309.653 73 310.188 73ZM316.43 74V65.2727H317.726V66.5909H317.817C317.976 66.1591 318.264 65.8087 318.68 65.5398C319.097 65.2708 319.567 65.1364 320.089 65.1364C320.188 65.1364 320.311 65.1383 320.459 65.142C320.607 65.1458 320.718 65.1515 320.794 65.1591V66.5227C320.749 66.5114 320.644 66.4943 320.482 66.4716C320.322 66.4451 320.154 66.4318 319.976 66.4318C319.552 66.4318 319.173 66.5208 318.839 66.6989C318.51 66.8731 318.249 67.1155 318.055 67.4261C317.866 67.733 317.771 68.0833 317.771 68.4773V74H316.43Z" fill="white" fill-opacity="0.95"/>
</svg>
