<svg width="1150" height="80" viewBox="0 0 1150 80" fill="none" xmlns="http://www.w3.org/2000/svg">
<mask id="path-1-inside-1_1273_55070" fill="white">
<path d="M0 0H575V80H0V0Z"/>
</mask>
<path d="M0 0H575V80H0V0Z" fill="#1A1A1A"/>
<path d="M575 80V81H576V80H575ZM574 0V80H576V0H574ZM575 79H0V81H575V79Z" fill="#707070" mask="url(#path-1-inside-1_1273_55070)"/>
<rect x="30" y="24" width="45" height="32" rx="4" fill="#262626"/>
<path d="M39.0114 46V34.3636H46.8523V36.392H41.4716V39.1648H46.4489V41.1932H41.4716V43.9716H46.875V46H39.0114ZM56.3441 39.7614L54.1282 39.8977C54.0904 39.7083 54.0089 39.5379 53.8839 39.3864C53.7589 39.2311 53.5941 39.108 53.3896 39.017C53.1888 38.9223 52.9483 38.875 52.668 38.875C52.293 38.875 51.9767 38.9545 51.7191 39.1136C51.4616 39.2689 51.3328 39.4773 51.3328 39.7386C51.3328 39.947 51.4161 40.1231 51.5828 40.267C51.7495 40.411 52.0354 40.5265 52.4407 40.6136L54.0203 40.9318C54.8688 41.1061 55.5013 41.3864 55.918 41.7727C56.3347 42.1591 56.543 42.6667 56.543 43.2955C56.543 43.8674 56.3745 44.3693 56.0373 44.8011C55.704 45.233 55.2457 45.5701 54.6623 45.8125C54.0828 46.0511 53.4142 46.1705 52.6566 46.1705C51.5013 46.1705 50.5809 45.9299 49.8953 45.4489C49.2135 44.964 48.8138 44.3049 48.6964 43.4716L51.0771 43.3466C51.1491 43.6989 51.3233 43.9678 51.5998 44.1534C51.8763 44.3352 52.2305 44.4261 52.6623 44.4261C53.0866 44.4261 53.4275 44.3447 53.6851 44.1818C53.9464 44.0152 54.079 43.8011 54.0828 43.5398C54.079 43.3201 53.9862 43.1402 53.8044 43C53.6226 42.8561 53.3423 42.7462 52.9635 42.6705L51.4521 42.3693C50.5998 42.1989 49.9654 41.9034 49.5487 41.483C49.1358 41.0625 48.9294 40.5265 48.9294 39.875C48.9294 39.3144 49.0809 38.8314 49.3839 38.4261C49.6907 38.0208 50.1207 37.7083 50.6737 37.4886C51.2305 37.2689 51.882 37.1591 52.6282 37.1591C53.7305 37.1591 54.5979 37.392 55.2305 37.858C55.8669 38.3239 56.2381 38.9583 56.3441 39.7614ZM62.3303 46.1705C61.4364 46.1705 60.6675 45.9811 60.0235 45.6023C59.3834 45.2197 58.8909 44.6894 58.5462 44.0114C58.2053 43.3333 58.0349 42.553 58.0349 41.6705C58.0349 40.7765 58.2072 39.9924 58.5519 39.3182C58.9004 38.6402 59.3947 38.1117 60.0349 37.733C60.675 37.3504 61.4364 37.1591 62.319 37.1591C63.0803 37.1591 63.747 37.2973 64.319 37.5739C64.8909 37.8504 65.3436 38.2386 65.6769 38.7386C66.0103 39.2386 66.194 39.8258 66.2281 40.5H63.944C63.8796 40.0644 63.7091 39.714 63.4326 39.4489C63.1599 39.1799 62.8019 39.0455 62.3587 39.0455C61.9837 39.0455 61.6561 39.1477 61.3758 39.3523C61.0993 39.553 60.8834 39.8466 60.7281 40.233C60.5728 40.6193 60.4951 41.0871 60.4951 41.6364C60.4951 42.1932 60.5709 42.6667 60.7224 43.0568C60.8777 43.447 61.0955 43.7443 61.3758 43.9489C61.6561 44.1534 61.9837 44.2557 62.3587 44.2557C62.6353 44.2557 62.8834 44.1989 63.1031 44.0852C63.3266 43.9716 63.5103 43.8068 63.6542 43.5909C63.8019 43.3712 63.8985 43.108 63.944 42.8011H66.2281C66.1902 43.4678 66.0084 44.0549 65.6826 44.5625C65.3606 45.0663 64.9156 45.4602 64.3474 45.7443C63.7792 46.0284 63.1069 46.1705 62.3303 46.1705Z" fill="white" fill-opacity="0.7"/>
<path d="M93.6761 30.7727L88.9886 48.1875H87.4545L92.142 30.7727H93.6761Z" fill="white" fill-opacity="0.95"/>
<rect x="107" y="24" width="46" height="32" rx="4" fill="#262626"/>
<path d="M115.568 36.392V34.3636H125.125V36.392H121.562V46H119.131V36.392H115.568ZM128.275 46.1648C127.718 46.1648 127.222 46.0682 126.786 45.875C126.35 45.678 126.006 45.3883 125.752 45.0057C125.502 44.6193 125.377 44.1383 125.377 43.5625C125.377 43.0777 125.466 42.6705 125.644 42.3409C125.822 42.0114 126.064 41.7462 126.371 41.5455C126.678 41.3447 127.026 41.1932 127.417 41.0909C127.811 40.9886 128.223 40.9167 128.655 40.875C129.163 40.822 129.572 40.7727 129.882 40.7273C130.193 40.678 130.418 40.6061 130.559 40.5114C130.699 40.4167 130.769 40.2765 130.769 40.0909V40.0568C130.769 39.697 130.655 39.4186 130.428 39.2216C130.204 39.0246 129.886 38.9261 129.473 38.9261C129.038 38.9261 128.691 39.0227 128.434 39.2159C128.176 39.4053 128.006 39.6439 127.922 39.9318L125.684 39.75C125.797 39.2197 126.021 38.7614 126.354 38.375C126.687 37.9848 127.117 37.6856 127.644 37.4773C128.174 37.2652 128.788 37.1591 129.485 37.1591C129.97 37.1591 130.434 37.2159 130.877 37.3295C131.324 37.4432 131.72 37.6193 132.064 37.858C132.413 38.0966 132.687 38.4034 132.888 38.7784C133.089 39.1496 133.189 39.5947 133.189 40.1136V46H130.894V44.7898H130.826C130.686 45.0625 130.498 45.303 130.263 45.5114C130.028 45.7159 129.746 45.8769 129.417 45.9943C129.087 46.108 128.706 46.1648 128.275 46.1648ZM128.968 44.4943C129.324 44.4943 129.638 44.4242 129.911 44.2841C130.184 44.1402 130.398 43.947 130.553 43.7045C130.708 43.4621 130.786 43.1875 130.786 42.8807V41.9545C130.71 42.0038 130.606 42.0492 130.473 42.0909C130.345 42.1288 130.199 42.1648 130.036 42.1989C129.873 42.2292 129.71 42.2576 129.547 42.2841C129.384 42.3068 129.237 42.3277 129.104 42.3466C128.82 42.3883 128.572 42.4545 128.36 42.5455C128.148 42.6364 127.983 42.7595 127.865 42.9148C127.748 43.0663 127.689 43.2557 127.689 43.483C127.689 43.8125 127.809 44.0644 128.047 44.2386C128.29 44.4091 128.597 44.4943 128.968 44.4943ZM135.433 46V34.3636H137.853V38.7386H137.927C138.033 38.5038 138.186 38.2652 138.387 38.0227C138.592 37.7765 138.857 37.572 139.183 37.4091C139.512 37.2424 139.921 37.1591 140.41 37.1591C141.046 37.1591 141.633 37.3258 142.171 37.6591C142.709 37.9886 143.139 38.4867 143.461 39.1534C143.783 39.8163 143.944 40.6477 143.944 41.6477C143.944 42.6212 143.787 43.4432 143.472 44.1136C143.162 44.7803 142.738 45.286 142.2 45.6307C141.666 45.9716 141.067 46.142 140.404 46.142C139.935 46.142 139.535 46.0644 139.205 45.9091C138.88 45.7538 138.613 45.5587 138.404 45.3239C138.196 45.0852 138.037 44.8447 137.927 44.6023H137.819V46H135.433ZM137.802 41.6364C137.802 42.1553 137.874 42.608 138.018 42.9943C138.162 43.3807 138.37 43.6818 138.643 43.8977C138.916 44.1098 139.247 44.2159 139.637 44.2159C140.031 44.2159 140.364 44.108 140.637 43.892C140.91 43.6723 141.116 43.3693 141.256 42.983C141.4 42.5928 141.472 42.1439 141.472 41.6364C141.472 41.1326 141.402 40.6894 141.262 40.3068C141.122 39.9242 140.916 39.625 140.643 39.4091C140.37 39.1932 140.035 39.0852 139.637 39.0852C139.243 39.0852 138.91 39.1894 138.637 39.3977C138.368 39.6061 138.162 39.9015 138.018 40.2841C137.874 40.6667 137.802 41.1174 137.802 41.6364Z" fill="white" fill-opacity="0.7"/>
<mask id="path-8-inside-2_1273_55070" fill="white">
<path d="M575 0H1150V80H575V0Z"/>
</mask>
<path d="M575 0H1150V80H575V0Z" fill="#1A1A1A"/>
<path d="M1150 79H575V81H1150V79Z" fill="#707070" mask="url(#path-8-inside-2_1273_55070)"/>
<path d="M615.773 38H614.364C614.28 37.5947 614.134 37.2386 613.926 36.9318C613.722 36.625 613.472 36.3674 613.176 36.1591C612.884 35.947 612.561 35.7879 612.205 35.6818C611.848 35.5758 611.477 35.5227 611.091 35.5227C610.386 35.5227 609.748 35.7008 609.176 36.0568C608.608 36.4129 608.155 36.9375 607.818 37.6307C607.485 38.3239 607.318 39.1742 607.318 40.1818C607.318 41.1894 607.485 42.0398 607.818 42.733C608.155 43.4261 608.608 43.9508 609.176 44.3068C609.748 44.6629 610.386 44.8409 611.091 44.8409C611.477 44.8409 611.848 44.7879 612.205 44.6818C612.561 44.5758 612.884 44.4186 613.176 44.2102C613.472 43.9981 613.722 43.7386 613.926 43.4318C614.134 43.1212 614.28 42.7652 614.364 42.3636H615.773C615.667 42.9583 615.473 43.4905 615.193 43.9602C614.913 44.4299 614.564 44.8295 614.148 45.1591C613.731 45.4848 613.263 45.733 612.744 45.9034C612.229 46.0739 611.678 46.1591 611.091 46.1591C610.098 46.1591 609.216 45.9167 608.443 45.4318C607.67 44.947 607.063 44.2576 606.619 43.3636C606.176 42.4697 605.955 41.4091 605.955 40.1818C605.955 38.9545 606.176 37.8939 606.619 37C607.063 36.1061 607.67 35.4167 608.443 34.9318C609.216 34.447 610.098 34.2045 611.091 34.2045C611.678 34.2045 612.229 34.2898 612.744 34.4602C613.263 34.6307 613.731 34.8807 614.148 35.2102C614.564 35.536 614.913 35.9337 615.193 36.4034C615.473 36.8693 615.667 37.4015 615.773 38ZM619.209 34.3636V46H617.868V34.3636H619.209ZM625.21 46.1818C624.422 46.1818 623.731 45.9943 623.136 45.6193C622.545 45.2443 622.083 44.7197 621.75 44.0455C621.42 43.3712 621.256 42.5833 621.256 41.6818C621.256 40.7727 621.42 39.9792 621.75 39.3011C622.083 38.6231 622.545 38.0966 623.136 37.7216C623.731 37.3466 624.422 37.1591 625.21 37.1591C625.998 37.1591 626.688 37.3466 627.278 37.7216C627.873 38.0966 628.335 38.6231 628.665 39.3011C628.998 39.9792 629.165 40.7727 629.165 41.6818C629.165 42.5833 628.998 43.3712 628.665 44.0455C628.335 44.7197 627.873 45.2443 627.278 45.6193C626.688 45.9943 625.998 46.1818 625.21 46.1818ZM625.21 44.9773C625.809 44.9773 626.301 44.8239 626.688 44.517C627.074 44.2102 627.36 43.8068 627.545 43.3068C627.731 42.8068 627.824 42.2652 627.824 41.6818C627.824 41.0985 627.731 40.5549 627.545 40.0511C627.36 39.5473 627.074 39.1402 626.688 38.8295C626.301 38.5189 625.809 38.3636 625.21 38.3636C624.612 38.3636 624.119 38.5189 623.733 38.8295C623.347 39.1402 623.061 39.5473 622.875 40.0511C622.689 40.5549 622.597 41.0985 622.597 41.6818C622.597 42.2652 622.689 42.8068 622.875 43.3068C623.061 43.8068 623.347 44.2102 623.733 44.517C624.119 44.8239 624.612 44.9773 625.21 44.9773ZM637.393 39.2273L636.189 39.5682C636.113 39.3674 636.001 39.1723 635.854 38.983C635.71 38.7898 635.513 38.6307 635.263 38.5057C635.013 38.3807 634.693 38.3182 634.303 38.3182C633.768 38.3182 633.323 38.4413 632.967 38.6875C632.615 38.9299 632.439 39.2386 632.439 39.6136C632.439 39.947 632.56 40.2102 632.803 40.4034C633.045 40.5966 633.424 40.7576 633.939 40.8864L635.234 41.2045C636.015 41.3939 636.596 41.6837 636.979 42.0739C637.361 42.4602 637.553 42.9583 637.553 43.5682C637.553 44.0682 637.409 44.5152 637.121 44.9091C636.837 45.303 636.439 45.6136 635.928 45.8409C635.416 46.0682 634.821 46.1818 634.143 46.1818C633.253 46.1818 632.517 45.9886 631.933 45.6023C631.35 45.2159 630.981 44.6515 630.825 43.9091L632.098 43.5909C632.219 44.0606 632.448 44.4129 632.786 44.6477C633.126 44.8826 633.571 45 634.121 45C634.746 45 635.242 44.8674 635.609 44.6023C635.981 44.3333 636.166 44.0114 636.166 43.6364C636.166 43.3333 636.06 43.0795 635.848 42.875C635.636 42.6667 635.31 42.5114 634.871 42.4091L633.416 42.0682C632.617 41.8788 632.03 41.5852 631.655 41.1875C631.284 40.786 631.098 40.2841 631.098 39.6818C631.098 39.1894 631.236 38.7538 631.513 38.375C631.793 37.9962 632.174 37.6989 632.655 37.483C633.14 37.267 633.689 37.1591 634.303 37.1591C635.166 37.1591 635.844 37.3485 636.337 37.7273C636.833 38.1061 637.185 38.6061 637.393 39.2273ZM643.23 46.1818C642.389 46.1818 641.664 45.9962 641.054 45.625C640.448 45.25 639.98 44.7273 639.651 44.0568C639.325 43.3826 639.162 42.5985 639.162 41.7045C639.162 40.8106 639.325 40.0227 639.651 39.3409C639.98 38.6553 640.438 38.1212 641.026 37.7386C641.616 37.3523 642.306 37.1591 643.094 37.1591C643.548 37.1591 643.997 37.2348 644.44 37.3864C644.884 37.5379 645.287 37.7841 645.651 38.125C646.014 38.4621 646.304 38.9091 646.52 39.4659C646.736 40.0227 646.844 40.7083 646.844 41.5227V42.0909H640.116V40.9318H645.48C645.48 40.4394 645.382 40 645.185 39.6136C644.991 39.2273 644.715 38.9223 644.355 38.6989C643.999 38.4754 643.579 38.3636 643.094 38.3636C642.56 38.3636 642.098 38.4962 641.707 38.7614C641.321 39.0227 641.024 39.3636 640.815 39.7841C640.607 40.2045 640.503 40.6553 640.503 41.1364V41.9091C640.503 42.5682 640.616 43.1269 640.844 43.5852C641.075 44.0398 641.395 44.3864 641.804 44.625C642.213 44.8598 642.688 44.9773 643.23 44.9773C643.582 44.9773 643.901 44.928 644.185 44.8295C644.473 44.7273 644.721 44.5758 644.929 44.375C645.137 44.1705 645.298 43.9167 645.412 43.6136L646.707 43.9773C646.571 44.4167 646.342 44.803 646.02 45.1364C645.698 45.4659 645.3 45.7235 644.827 45.9091C644.353 46.0909 643.821 46.1818 643.23 46.1818ZM655.065 39.2273L653.861 39.5682C653.785 39.3674 653.673 39.1723 653.526 38.983C653.382 38.7898 653.185 38.6307 652.935 38.5057C652.685 38.3807 652.365 38.3182 651.974 38.3182C651.44 38.3182 650.995 38.4413 650.639 38.6875C650.287 38.9299 650.111 39.2386 650.111 39.6136C650.111 39.947 650.232 40.2102 650.474 40.4034C650.717 40.5966 651.096 40.7576 651.611 40.8864L652.906 41.2045C653.687 41.3939 654.268 41.6837 654.651 42.0739C655.033 42.4602 655.224 42.9583 655.224 43.5682C655.224 44.0682 655.08 44.5152 654.793 44.9091C654.509 45.303 654.111 45.6136 653.599 45.8409C653.088 46.0682 652.493 46.1818 651.815 46.1818C650.925 46.1818 650.188 45.9886 649.605 45.6023C649.022 45.2159 648.652 44.6515 648.497 43.9091L649.77 43.5909C649.891 44.0606 650.12 44.4129 650.457 44.6477C650.798 44.8826 651.243 45 651.793 45C652.418 45 652.914 44.8674 653.281 44.6023C653.652 44.3333 653.838 44.0114 653.838 43.6364C653.838 43.3333 653.732 43.0795 653.52 42.875C653.308 42.6667 652.982 42.5114 652.543 42.4091L651.088 42.0682C650.289 41.8788 649.702 41.5852 649.327 41.1875C648.955 40.786 648.77 40.2841 648.77 39.6818C648.77 39.1894 648.908 38.7538 649.185 38.375C649.465 37.9962 649.846 37.6989 650.327 37.483C650.812 37.267 651.361 37.1591 651.974 37.1591C652.838 37.1591 653.516 37.3485 654.009 37.7273C654.505 38.1061 654.857 38.6061 655.065 39.2273ZM665.538 37.2727V38.4091H661.016V37.2727H665.538ZM662.334 35.1818H663.675V43.5C663.675 43.8788 663.73 44.1629 663.839 44.3523C663.953 44.5379 664.097 44.6629 664.271 44.7273C664.449 44.7879 664.637 44.8182 664.834 44.8182C664.982 44.8182 665.103 44.8106 665.197 44.7955C665.292 44.7765 665.368 44.7614 665.425 44.75L665.697 45.9545C665.607 45.9886 665.48 46.0227 665.317 46.0568C665.154 46.0947 664.947 46.1136 664.697 46.1136C664.319 46.1136 663.947 46.0322 663.584 45.8693C663.224 45.7064 662.925 45.4583 662.686 45.125C662.451 44.7917 662.334 44.3712 662.334 43.8636V35.1818ZM669.084 40.75V46H667.743V34.3636H669.084V38.6364H669.197C669.402 38.1856 669.709 37.8277 670.118 37.5625C670.531 37.2936 671.08 37.1591 671.766 37.1591C672.36 37.1591 672.881 37.2784 673.328 37.517C673.775 37.7519 674.122 38.1136 674.368 38.6023C674.618 39.0871 674.743 39.7045 674.743 40.4545V46H673.402V40.5455C673.402 39.8523 673.222 39.3163 672.862 38.9375C672.506 38.5549 672.012 38.3636 671.379 38.3636C670.94 38.3636 670.546 38.4564 670.197 38.642C669.853 38.8277 669.58 39.0985 669.379 39.4545C669.182 39.8106 669.084 40.2424 669.084 40.75ZM680.855 46.1818C680.014 46.1818 679.289 45.9962 678.679 45.625C678.073 45.25 677.605 44.7273 677.276 44.0568C676.95 43.3826 676.787 42.5985 676.787 41.7045C676.787 40.8106 676.95 40.0227 677.276 39.3409C677.605 38.6553 678.063 38.1212 678.651 37.7386C679.241 37.3523 679.931 37.1591 680.719 37.1591C681.173 37.1591 681.622 37.2348 682.065 37.3864C682.509 37.5379 682.912 37.7841 683.276 38.125C683.639 38.4621 683.929 38.9091 684.145 39.4659C684.361 40.0227 684.469 40.7083 684.469 41.5227V42.0909H677.741V40.9318H683.105C683.105 40.4394 683.007 40 682.81 39.6136C682.616 39.2273 682.34 38.9223 681.98 38.6989C681.624 38.4754 681.204 38.3636 680.719 38.3636C680.185 38.3636 679.723 38.4962 679.332 38.7614C678.946 39.0227 678.649 39.3636 678.44 39.7841C678.232 40.2045 678.128 40.6553 678.128 41.1364V41.9091C678.128 42.5682 678.241 43.1269 678.469 43.5852C678.7 44.0398 679.02 44.3864 679.429 44.625C679.838 44.8598 680.313 44.9773 680.855 44.9773C681.207 44.9773 681.526 44.928 681.81 44.8295C682.098 44.7273 682.346 44.5758 682.554 44.375C682.762 44.1705 682.923 43.9167 683.037 43.6136L684.332 43.9773C684.196 44.4167 683.967 44.803 683.645 45.1364C683.323 45.4659 682.925 45.7235 682.452 45.9091C681.978 46.0909 681.446 46.1818 680.855 46.1818ZM694.304 46.1818C693.577 46.1818 692.935 45.9981 692.378 45.6307C691.821 45.2595 691.385 44.7367 691.071 44.0625C690.757 43.3845 690.599 42.5833 690.599 41.6591C690.599 40.7424 690.757 39.947 691.071 39.2727C691.385 38.5985 691.823 38.0777 692.384 37.7102C692.944 37.3428 693.592 37.1591 694.327 37.1591C694.895 37.1591 695.344 37.2538 695.673 37.4432C696.007 37.6288 696.26 37.8409 696.435 38.0795C696.613 38.3144 696.751 38.5076 696.849 38.6591H696.963V34.3636H698.304V46H697.009V44.6591H696.849C696.751 44.8182 696.611 45.0189 696.429 45.2614C696.247 45.5 695.988 45.714 695.651 45.9034C695.313 46.089 694.865 46.1818 694.304 46.1818ZM694.486 44.9773C695.024 44.9773 695.478 44.8371 695.849 44.5568C696.221 44.2727 696.503 43.8807 696.696 43.3807C696.889 42.8769 696.986 42.2955 696.986 41.6364C696.986 40.9848 696.891 40.4148 696.702 39.9261C696.512 39.4337 696.232 39.0511 695.861 38.7784C695.49 38.5019 695.031 38.3636 694.486 38.3636C693.918 38.3636 693.444 38.5095 693.065 38.8011C692.69 39.089 692.408 39.4811 692.219 39.9773C692.033 40.4697 691.94 41.0227 691.94 41.6364C691.94 42.2576 692.035 42.822 692.224 43.3295C692.418 43.8333 692.702 44.2348 693.077 44.5341C693.455 44.8295 693.925 44.9773 694.486 44.9773ZM700.946 46V37.2727H702.241V38.5909H702.332C702.491 38.1591 702.779 37.8087 703.196 37.5398C703.613 37.2708 704.082 37.1364 704.605 37.1364C704.704 37.1364 704.827 37.1383 704.974 37.142C705.122 37.1458 705.234 37.1515 705.31 37.1591V38.5227C705.264 38.5114 705.16 38.4943 704.997 38.4716C704.838 38.4451 704.67 38.4318 704.491 38.4318C704.067 38.4318 703.688 38.5208 703.355 38.6989C703.026 38.8731 702.764 39.1155 702.571 39.4261C702.382 39.733 702.287 40.0833 702.287 40.4773V46H700.946ZM710.179 46.1818C709.391 46.1818 708.7 45.9943 708.105 45.6193C707.514 45.2443 707.052 44.7197 706.719 44.0455C706.389 43.3712 706.224 42.5833 706.224 41.6818C706.224 40.7727 706.389 39.9792 706.719 39.3011C707.052 38.6231 707.514 38.0966 708.105 37.7216C708.7 37.3466 709.391 37.1591 710.179 37.1591C710.967 37.1591 711.656 37.3466 712.247 37.7216C712.842 38.0966 713.304 38.6231 713.634 39.3011C713.967 39.9792 714.134 40.7727 714.134 41.6818C714.134 42.5833 713.967 43.3712 713.634 44.0455C713.304 44.7197 712.842 45.2443 712.247 45.6193C711.656 45.9943 710.967 46.1818 710.179 46.1818ZM710.179 44.9773C710.777 44.9773 711.27 44.8239 711.656 44.517C712.043 44.2102 712.329 43.8068 712.514 43.3068C712.7 42.8068 712.793 42.2652 712.793 41.6818C712.793 41.0985 712.7 40.5549 712.514 40.0511C712.329 39.5473 712.043 39.1402 711.656 38.8295C711.27 38.5189 710.777 38.3636 710.179 38.3636C709.58 38.3636 709.088 38.5189 708.702 38.8295C708.315 39.1402 708.029 39.5473 707.844 40.0511C707.658 40.5549 707.565 41.0985 707.565 41.6818C707.565 42.2652 707.658 42.8068 707.844 43.3068C708.029 43.8068 708.315 44.2102 708.702 44.517C709.088 44.8239 709.58 44.9773 710.179 44.9773ZM716.18 49.2727V37.2727H717.476V38.6591H717.635C717.733 38.5076 717.87 38.3144 718.044 38.0795C718.222 37.8409 718.476 37.6288 718.805 37.4432C719.139 37.2538 719.589 37.1591 720.158 37.1591C720.893 37.1591 721.54 37.3428 722.101 37.7102C722.661 38.0777 723.099 38.5985 723.413 39.2727C723.728 39.947 723.885 40.7424 723.885 41.6591C723.885 42.5833 723.728 43.3845 723.413 44.0625C723.099 44.7367 722.663 45.2595 722.107 45.6307C721.55 45.9981 720.908 46.1818 720.18 46.1818C719.62 46.1818 719.171 46.089 718.834 45.9034C718.497 45.714 718.237 45.5 718.055 45.2614C717.874 45.0189 717.733 44.8182 717.635 44.6591H717.521V49.2727H716.18ZM717.499 41.6364C717.499 42.2955 717.595 42.8769 717.788 43.3807C717.982 43.8807 718.264 44.2727 718.635 44.5568C719.006 44.8371 719.461 44.9773 719.999 44.9773C720.559 44.9773 721.027 44.8295 721.402 44.5341C721.781 44.2348 722.065 43.8333 722.254 43.3295C722.447 42.822 722.544 42.2576 722.544 41.6364C722.544 41.0227 722.449 40.4697 722.26 39.9773C722.074 39.4811 721.792 39.089 721.413 38.8011C721.038 38.5095 720.567 38.3636 719.999 38.3636C719.453 38.3636 718.995 38.5019 718.624 38.7784C718.252 39.0511 717.972 39.4337 717.783 39.9261C717.593 40.4148 717.499 40.9848 717.499 41.6364ZM729.226 46.1818C728.499 46.1818 727.857 45.9981 727.3 45.6307C726.743 45.2595 726.307 44.7367 725.993 44.0625C725.679 43.3845 725.521 42.5833 725.521 41.6591C725.521 40.7424 725.679 39.947 725.993 39.2727C726.307 38.5985 726.745 38.0777 727.305 37.7102C727.866 37.3428 728.514 37.1591 729.249 37.1591C729.817 37.1591 730.266 37.2538 730.595 37.4432C730.929 37.6288 731.182 37.8409 731.357 38.0795C731.535 38.3144 731.673 38.5076 731.771 38.6591H731.885V34.3636H733.226V46H731.93V44.6591H731.771C731.673 44.8182 731.533 45.0189 731.351 45.2614C731.169 45.5 730.91 45.714 730.572 45.9034C730.235 46.089 729.786 46.1818 729.226 46.1818ZM729.408 44.9773C729.946 44.9773 730.4 44.8371 730.771 44.5568C731.143 44.2727 731.425 43.8807 731.618 43.3807C731.811 42.8769 731.908 42.2955 731.908 41.6364C731.908 40.9848 731.813 40.4148 731.624 39.9261C731.434 39.4337 731.154 39.0511 730.783 38.7784C730.411 38.5019 729.953 38.3636 729.408 38.3636C728.839 38.3636 728.366 38.5095 727.987 38.8011C727.612 39.089 727.33 39.4811 727.141 39.9773C726.955 40.4697 726.862 41.0227 726.862 41.6364C726.862 42.2576 726.957 42.822 727.146 43.3295C727.339 43.8333 727.624 44.2348 727.999 44.5341C728.377 44.8295 728.847 44.9773 729.408 44.9773ZM739.413 46.1818C738.625 46.1818 737.934 45.9943 737.339 45.6193C736.749 45.2443 736.286 44.7197 735.953 44.0455C735.624 43.3712 735.459 42.5833 735.459 41.6818C735.459 40.7727 735.624 39.9792 735.953 39.3011C736.286 38.6231 736.749 38.0966 737.339 37.7216C737.934 37.3466 738.625 37.1591 739.413 37.1591C740.201 37.1591 740.891 37.3466 741.482 37.7216C742.076 38.0966 742.538 38.6231 742.868 39.3011C743.201 39.9792 743.368 40.7727 743.368 41.6818C743.368 42.5833 743.201 43.3712 742.868 44.0455C742.538 44.7197 742.076 45.2443 741.482 45.6193C740.891 45.9943 740.201 46.1818 739.413 46.1818ZM739.413 44.9773C740.012 44.9773 740.504 44.8239 740.891 44.517C741.277 44.2102 741.563 43.8068 741.749 43.3068C741.934 42.8068 742.027 42.2652 742.027 41.6818C742.027 41.0985 741.934 40.5549 741.749 40.0511C741.563 39.5473 741.277 39.1402 740.891 38.8295C740.504 38.5189 740.012 38.3636 739.413 38.3636C738.815 38.3636 738.322 38.5189 737.936 38.8295C737.55 39.1402 737.264 39.5473 737.078 40.0511C736.893 40.5549 736.8 41.0985 736.8 41.6818C736.8 42.2652 736.893 42.8068 737.078 43.3068C737.264 43.8068 737.55 44.2102 737.936 44.517C738.322 44.8239 738.815 44.9773 739.413 44.9773ZM747.095 46L744.436 37.2727H745.845L747.732 43.9545H747.822L749.686 37.2727H751.118L752.959 43.9318H753.05L754.936 37.2727H756.345L753.686 46H752.368L750.459 39.2955H750.322L748.413 46H747.095ZM759.459 40.75V46H758.118V37.2727H759.413V38.6364H759.527C759.732 38.1932 760.042 37.8371 760.459 37.5682C760.875 37.2955 761.413 37.1591 762.072 37.1591C762.663 37.1591 763.18 37.2803 763.624 37.5227C764.067 37.7614 764.411 38.125 764.658 38.6136C764.904 39.0985 765.027 39.7121 765.027 40.4545V46H763.686V40.5455C763.686 39.8598 763.508 39.3258 763.152 38.9432C762.796 38.5568 762.307 38.3636 761.686 38.3636C761.258 38.3636 760.875 38.4564 760.538 38.642C760.205 38.8277 759.942 39.0985 759.749 39.4545C759.555 39.8106 759.459 40.2424 759.459 40.75ZM771.977 46V37.2727H773.273V38.6364H773.386C773.568 38.1705 773.862 37.8087 774.267 37.5511C774.672 37.2898 775.159 37.1591 775.727 37.1591C776.303 37.1591 776.782 37.2898 777.165 37.5511C777.551 37.8087 777.852 38.1705 778.068 38.6364H778.159C778.383 38.1856 778.718 37.8277 779.165 37.5625C779.612 37.2936 780.148 37.1591 780.773 37.1591C781.553 37.1591 782.191 37.4034 782.688 37.892C783.184 38.3769 783.432 39.1326 783.432 40.1591V46H782.091V40.1591C782.091 39.5152 781.915 39.0549 781.562 38.7784C781.21 38.5019 780.795 38.3636 780.318 38.3636C779.705 38.3636 779.229 38.5492 778.892 38.9205C778.555 39.2879 778.386 39.7538 778.386 40.3182V46H777.023V40.0227C777.023 39.5265 776.862 39.1269 776.54 38.8239C776.218 38.517 775.803 38.3636 775.295 38.3636C774.947 38.3636 774.621 38.4564 774.318 38.642C774.019 38.8277 773.777 39.0852 773.591 39.4148C773.409 39.7405 773.318 40.1174 773.318 40.5455V46H771.977ZM789.543 46.1818C788.702 46.1818 787.976 45.9962 787.366 45.625C786.76 45.25 786.293 44.7273 785.963 44.0568C785.637 43.3826 785.474 42.5985 785.474 41.7045C785.474 40.8106 785.637 40.0227 785.963 39.3409C786.293 38.6553 786.751 38.1212 787.338 37.7386C787.929 37.3523 788.618 37.1591 789.406 37.1591C789.861 37.1591 790.31 37.2348 790.753 37.3864C791.196 37.5379 791.599 37.7841 791.963 38.125C792.327 38.4621 792.616 38.9091 792.832 39.4659C793.048 40.0227 793.156 40.7083 793.156 41.5227V42.0909H786.429V40.9318H791.793C791.793 40.4394 791.694 40 791.497 39.6136C791.304 39.2273 791.027 38.9223 790.668 38.6989C790.312 38.4754 789.891 38.3636 789.406 38.3636C788.872 38.3636 788.41 38.4962 788.02 38.7614C787.634 39.0227 787.336 39.3636 787.128 39.7841C786.92 40.2045 786.815 40.6553 786.815 41.1364V41.9091C786.815 42.5682 786.929 43.1269 787.156 43.5852C787.387 44.0398 787.707 44.3864 788.116 44.625C788.526 44.8598 789.001 44.9773 789.543 44.9773C789.895 44.9773 790.213 44.928 790.497 44.8295C790.785 44.7273 791.033 44.5758 791.241 44.375C791.45 44.1705 791.611 43.9167 791.724 43.6136L793.02 43.9773C792.884 44.4167 792.654 44.803 792.332 45.1364C792.01 45.4659 791.613 45.7235 791.139 45.9091C790.666 46.0909 790.134 46.1818 789.543 46.1818ZM796.537 40.75V46H795.196V37.2727H796.491V38.6364H796.605C796.81 38.1932 797.12 37.8371 797.537 37.5682C797.954 37.2955 798.491 37.1591 799.151 37.1591C799.741 37.1591 800.259 37.2803 800.702 37.5227C801.145 37.7614 801.49 38.125 801.736 38.6136C801.982 39.0985 802.105 39.7121 802.105 40.4545V46H800.764V40.5455C800.764 39.8598 800.586 39.3258 800.23 38.9432C799.874 38.5568 799.385 38.3636 798.764 38.3636C798.336 38.3636 797.954 38.4564 797.616 38.642C797.283 38.8277 797.02 39.0985 796.827 39.4545C796.634 39.8106 796.537 40.2424 796.537 40.75ZM810.055 42.4318V37.2727H811.396V46H810.055V44.5227H809.964C809.76 44.9659 809.442 45.3428 809.01 45.6534C808.578 45.9602 808.033 46.1136 807.374 46.1136C806.828 46.1136 806.343 45.9943 805.919 45.7557C805.495 45.5133 805.161 45.1496 804.919 44.6648C804.677 44.1761 804.555 43.5606 804.555 42.8182V37.2727H805.896V42.7273C805.896 43.3636 806.074 43.8712 806.43 44.25C806.79 44.6288 807.249 44.8182 807.805 44.8182C808.139 44.8182 808.478 44.733 808.822 44.5625C809.171 44.392 809.463 44.1307 809.697 43.7784C809.936 43.4261 810.055 42.9773 810.055 42.4318ZM820.33 46L817.67 37.2727H819.08L820.966 43.9545H821.057L822.92 37.2727H824.352L826.193 43.9318H826.284L828.17 37.2727H829.58L826.92 46H825.602L823.693 39.2955H823.557L821.648 46H820.33ZM831.352 46V37.2727H832.693V46H831.352ZM832.034 35.8182C831.773 35.8182 831.547 35.7292 831.358 35.5511C831.172 35.3731 831.08 35.1591 831.08 34.9091C831.08 34.6591 831.172 34.4451 831.358 34.267C831.547 34.089 831.773 34 832.034 34C832.295 34 832.519 34.089 832.705 34.267C832.894 34.4451 832.989 34.6591 832.989 34.9091C832.989 35.1591 832.894 35.3731 832.705 35.5511C832.519 35.7292 832.295 35.8182 832.034 35.8182ZM838.945 37.2727V38.4091H834.422V37.2727H838.945ZM835.74 35.1818H837.081V43.5C837.081 43.8788 837.136 44.1629 837.246 44.3523C837.359 44.5379 837.503 44.6629 837.678 44.7273C837.856 44.7879 838.043 44.8182 838.24 44.8182C838.388 44.8182 838.509 44.8106 838.604 44.7955C838.698 44.7765 838.774 44.7614 838.831 44.75L839.104 45.9545C839.013 45.9886 838.886 46.0227 838.723 46.0568C838.56 46.0947 838.354 46.1136 838.104 46.1136C837.725 46.1136 837.354 46.0322 836.99 45.8693C836.63 45.7064 836.331 45.4583 836.092 45.125C835.857 44.7917 835.74 44.3712 835.74 43.8636V35.1818ZM842.49 40.75V46H841.149V34.3636H842.49V38.6364H842.604C842.808 38.1856 843.115 37.8277 843.524 37.5625C843.937 37.2936 844.486 37.1591 845.172 37.1591C845.767 37.1591 846.287 37.2784 846.734 37.517C847.181 37.7519 847.528 38.1136 847.774 38.6023C848.024 39.0871 848.149 39.7045 848.149 40.4545V46H846.808V40.5455C846.808 39.8523 846.628 39.3163 846.268 38.9375C845.912 38.5549 845.418 38.3636 844.786 38.3636C844.346 38.3636 843.952 38.4564 843.604 38.642C843.259 38.8277 842.986 39.0985 842.786 39.4545C842.589 39.8106 842.49 40.2424 842.49 40.75ZM854.148 46.1818C853.36 46.1818 852.669 45.9943 852.074 45.6193C851.483 45.2443 851.021 44.7197 850.688 44.0455C850.358 43.3712 850.193 42.5833 850.193 41.6818C850.193 40.7727 850.358 39.9792 850.688 39.3011C851.021 38.6231 851.483 38.0966 852.074 37.7216C852.669 37.3466 853.36 37.1591 854.148 37.1591C854.936 37.1591 855.625 37.3466 856.216 37.7216C856.811 38.0966 857.273 38.6231 857.602 39.3011C857.936 39.9792 858.102 40.7727 858.102 41.6818C858.102 42.5833 857.936 43.3712 857.602 44.0455C857.273 44.7197 856.811 45.2443 856.216 45.6193C855.625 45.9943 854.936 46.1818 854.148 46.1818ZM854.148 44.9773C854.746 44.9773 855.239 44.8239 855.625 44.517C856.011 44.2102 856.297 43.8068 856.483 43.3068C856.669 42.8068 856.761 42.2652 856.761 41.6818C856.761 41.0985 856.669 40.5549 856.483 40.0511C856.297 39.5473 856.011 39.1402 855.625 38.8295C855.239 38.5189 854.746 38.3636 854.148 38.3636C853.549 38.3636 853.057 38.5189 852.67 38.8295C852.284 39.1402 851.998 39.5473 851.812 40.0511C851.627 40.5549 851.534 41.0985 851.534 41.6818C851.534 42.2652 851.627 42.8068 851.812 43.3068C851.998 43.8068 852.284 44.2102 852.67 44.517C853.057 44.8239 853.549 44.9773 854.148 44.9773ZM865.649 42.4318V37.2727H866.99V46H865.649V44.5227H865.558C865.354 44.9659 865.036 45.3428 864.604 45.6534C864.172 45.9602 863.626 46.1136 862.967 46.1136C862.422 46.1136 861.937 45.9943 861.513 45.7557C861.089 45.5133 860.755 45.1496 860.513 44.6648C860.27 44.1761 860.149 43.5606 860.149 42.8182V37.2727H861.49V42.7273C861.49 43.3636 861.668 43.8712 862.024 44.25C862.384 44.6288 862.842 44.8182 863.399 44.8182C863.732 44.8182 864.071 44.733 864.416 44.5625C864.765 44.392 865.056 44.1307 865.291 43.7784C865.53 43.4261 865.649 42.9773 865.649 42.4318ZM873.241 37.2727V38.4091H868.719V37.2727H873.241ZM870.037 35.1818H871.378V43.5C871.378 43.8788 871.433 44.1629 871.543 44.3523C871.656 44.5379 871.8 44.6629 871.974 44.7273C872.152 44.7879 872.34 44.8182 872.537 44.8182C872.685 44.8182 872.806 44.8106 872.901 44.7955C872.995 44.7765 873.071 44.7614 873.128 44.75L873.401 45.9545C873.31 45.9886 873.183 46.0227 873.02 46.0568C872.857 46.0947 872.651 46.1136 872.401 46.1136C872.022 46.1136 871.651 46.0322 871.287 45.8693C870.927 45.7064 870.628 45.4583 870.389 45.125C870.154 44.7917 870.037 44.3712 870.037 43.8636V35.1818ZM883.304 46.1818C882.486 46.1818 881.781 45.9886 881.19 45.6023C880.599 45.2159 880.145 44.6837 879.827 44.0057C879.509 43.3277 879.349 42.553 879.349 41.6818C879.349 40.7955 879.512 40.0133 879.838 39.3352C880.168 38.6534 880.626 38.1212 881.213 37.7386C881.804 37.3523 882.493 37.1591 883.281 37.1591C883.895 37.1591 884.448 37.2727 884.94 37.5C885.433 37.7273 885.836 38.0455 886.151 38.4545C886.465 38.8636 886.66 39.3409 886.736 39.8864H885.395C885.293 39.4886 885.065 39.1364 884.713 38.8295C884.365 38.5189 883.895 38.3636 883.304 38.3636C882.781 38.3636 882.323 38.5 881.929 38.7727C881.539 39.0417 881.234 39.4223 881.014 39.9148C880.798 40.4034 880.69 40.9773 880.69 41.6364C880.69 42.3106 880.796 42.8977 881.009 43.3977C881.224 43.8977 881.527 44.286 881.918 44.5625C882.312 44.839 882.774 44.9773 883.304 44.9773C883.652 44.9773 883.969 44.9167 884.253 44.7955C884.537 44.6742 884.777 44.5 884.974 44.2727C885.171 44.0455 885.312 43.7727 885.395 43.4545H886.736C886.66 43.9697 886.473 44.4337 886.173 44.8466C885.878 45.2557 885.486 45.5814 884.997 45.8239C884.512 46.0625 883.948 46.1818 883.304 46.1818ZM892.241 46.1818C891.454 46.1818 890.762 45.9943 890.168 45.6193C889.577 45.2443 889.115 44.7197 888.781 44.0455C888.452 43.3712 888.287 42.5833 888.287 41.6818C888.287 40.7727 888.452 39.9792 888.781 39.3011C889.115 38.6231 889.577 38.0966 890.168 37.7216C890.762 37.3466 891.454 37.1591 892.241 37.1591C893.029 37.1591 893.719 37.3466 894.31 37.7216C894.904 38.0966 895.366 38.6231 895.696 39.3011C896.029 39.9792 896.196 40.7727 896.196 41.6818C896.196 42.5833 896.029 43.3712 895.696 44.0455C895.366 44.7197 894.904 45.2443 894.31 45.6193C893.719 45.9943 893.029 46.1818 892.241 46.1818ZM892.241 44.9773C892.84 44.9773 893.332 44.8239 893.719 44.517C894.105 44.2102 894.391 43.8068 894.577 43.3068C894.762 42.8068 894.855 42.2652 894.855 41.6818C894.855 41.0985 894.762 40.5549 894.577 40.0511C894.391 39.5473 894.105 39.1402 893.719 38.8295C893.332 38.5189 892.84 38.3636 892.241 38.3636C891.643 38.3636 891.151 38.5189 890.764 38.8295C890.378 39.1402 890.092 39.5473 889.906 40.0511C889.721 40.5549 889.628 41.0985 889.628 41.6818C889.628 42.2652 889.721 42.8068 889.906 43.3068C890.092 43.8068 890.378 44.2102 890.764 44.517C891.151 44.8239 891.643 44.9773 892.241 44.9773ZM898.243 46V37.2727H899.538V38.6364H899.652C899.834 38.1705 900.127 37.8087 900.533 37.5511C900.938 37.2898 901.425 37.1591 901.993 37.1591C902.569 37.1591 903.048 37.2898 903.43 37.5511C903.817 37.8087 904.118 38.1705 904.334 38.6364H904.425C904.648 38.1856 904.983 37.8277 905.43 37.5625C905.877 37.2936 906.413 37.1591 907.038 37.1591C907.819 37.1591 908.457 37.4034 908.953 37.892C909.449 38.3769 909.697 39.1326 909.697 40.1591V46H908.357V40.1591C908.357 39.5152 908.18 39.0549 907.828 38.7784C907.476 38.5019 907.061 38.3636 906.584 38.3636C905.97 38.3636 905.495 38.5492 905.158 38.9205C904.821 39.2879 904.652 39.7538 904.652 40.3182V46H903.288V40.0227C903.288 39.5265 903.127 39.1269 902.805 38.8239C902.483 38.517 902.069 38.3636 901.561 38.3636C901.213 38.3636 900.887 38.4564 900.584 38.642C900.285 38.8277 900.042 39.0852 899.857 39.4148C899.675 39.7405 899.584 40.1174 899.584 40.5455V46H898.243ZM912.149 46V37.2727H913.445V38.6364H913.558C913.74 38.1705 914.034 37.8087 914.439 37.5511C914.844 37.2898 915.331 37.1591 915.899 37.1591C916.475 37.1591 916.954 37.2898 917.337 37.5511C917.723 37.8087 918.024 38.1705 918.24 38.6364H918.331C918.554 38.1856 918.89 37.8277 919.337 37.5625C919.784 37.2936 920.32 37.1591 920.945 37.1591C921.725 37.1591 922.363 37.4034 922.859 37.892C923.356 38.3769 923.604 39.1326 923.604 40.1591V46H922.263V40.1591C922.263 39.5152 922.087 39.0549 921.734 38.7784C921.382 38.5019 920.967 38.3636 920.49 38.3636C919.876 38.3636 919.401 38.5492 919.064 38.9205C918.727 39.2879 918.558 39.7538 918.558 40.3182V46H917.195V40.0227C917.195 39.5265 917.034 39.1269 916.712 38.8239C916.39 38.517 915.975 38.3636 915.467 38.3636C915.119 38.3636 914.793 38.4564 914.49 38.642C914.191 38.8277 913.948 39.0852 913.763 39.4148C913.581 39.7405 913.49 40.1174 913.49 40.5455V46H912.149ZM926.055 46V37.2727H927.396V46H926.055ZM926.737 35.8182C926.476 35.8182 926.25 35.7292 926.061 35.5511C925.875 35.3731 925.783 35.1591 925.783 34.9091C925.783 34.6591 925.875 34.4451 926.061 34.267C926.25 34.089 926.476 34 926.737 34C926.999 34 927.222 34.089 927.408 34.267C927.597 34.4451 927.692 34.6591 927.692 34.9091C927.692 35.1591 927.597 35.3731 927.408 35.5511C927.222 35.7292 926.999 35.8182 926.737 35.8182ZM933.648 37.2727V38.4091H929.125V37.2727H933.648ZM930.443 35.1818H931.784V43.5C931.784 43.8788 931.839 44.1629 931.949 44.3523C932.063 44.5379 932.206 44.6629 932.381 44.7273C932.559 44.7879 932.746 44.8182 932.943 44.8182C933.091 44.8182 933.212 44.8106 933.307 44.7955C933.402 44.7765 933.477 44.7614 933.534 44.75L933.807 45.9545C933.716 45.9886 933.589 46.0227 933.426 46.0568C933.263 46.0947 933.057 46.1136 932.807 46.1136C932.428 46.1136 932.057 46.0322 931.693 45.8693C931.333 45.7064 931.034 45.4583 930.795 45.125C930.561 44.7917 930.443 44.3712 930.443 43.8636V35.1818ZM939.46 37.2727V38.4091H934.938V37.2727H939.46ZM936.256 35.1818H937.597V43.5C937.597 43.8788 937.652 44.1629 937.761 44.3523C937.875 44.5379 938.019 44.6629 938.193 44.7273C938.371 44.7879 938.559 44.8182 938.756 44.8182C938.903 44.8182 939.025 44.8106 939.119 44.7955C939.214 44.7765 939.29 44.7614 939.347 44.75L939.619 45.9545C939.528 45.9886 939.402 46.0227 939.239 46.0568C939.076 46.0947 938.869 46.1136 938.619 46.1136C938.241 46.1136 937.869 46.0322 937.506 45.8693C937.146 45.7064 936.847 45.4583 936.608 45.125C936.373 44.7917 936.256 44.3712 936.256 43.8636V35.1818ZM941.477 46V37.2727H942.818V46H941.477ZM942.159 35.8182C941.898 35.8182 941.672 35.7292 941.483 35.5511C941.297 35.3731 941.205 35.1591 941.205 34.9091C941.205 34.6591 941.297 34.4451 941.483 34.267C941.672 34.089 941.898 34 942.159 34C942.42 34 942.644 34.089 942.83 34.267C943.019 34.4451 943.114 34.6591 943.114 34.9091C943.114 35.1591 943.019 35.3731 942.83 35.5511C942.644 35.7292 942.42 35.8182 942.159 35.8182ZM946.615 40.75V46H945.274V37.2727H946.57V38.6364H946.683C946.888 38.1932 947.198 37.8371 947.615 37.5682C948.032 37.2955 948.57 37.1591 949.229 37.1591C949.82 37.1591 950.337 37.2803 950.78 37.5227C951.223 37.7614 951.568 38.125 951.814 38.6136C952.06 39.0985 952.183 39.7121 952.183 40.4545V46H950.842V40.5455C950.842 39.8598 950.664 39.3258 950.308 38.9432C949.952 38.5568 949.464 38.3636 948.842 38.3636C948.414 38.3636 948.032 38.4564 947.695 38.642C947.361 38.8277 947.098 39.0985 946.905 39.4545C946.712 39.8106 946.615 40.2424 946.615 40.75ZM958.156 49.4545C957.509 49.4545 956.952 49.3712 956.486 49.2045C956.02 49.0417 955.632 48.8258 955.321 48.5568C955.014 48.2917 954.77 48.0076 954.588 47.7045L955.656 46.9545C955.777 47.1136 955.931 47.2955 956.116 47.5C956.302 47.7083 956.556 47.8883 956.878 48.0398C957.204 48.1951 957.63 48.2727 958.156 48.2727C958.861 48.2727 959.442 48.1023 959.901 47.7614C960.359 47.4205 960.588 46.8864 960.588 46.1591V44.3864H960.474C960.376 44.5455 960.236 44.7424 960.054 44.9773C959.876 45.2083 959.618 45.4148 959.281 45.5966C958.948 45.7746 958.497 45.8636 957.929 45.8636C957.224 45.8636 956.592 45.697 956.031 45.3636C955.474 45.0303 955.033 44.5455 954.707 43.9091C954.385 43.2727 954.224 42.5 954.224 41.5909C954.224 40.697 954.382 39.9186 954.696 39.2557C955.01 38.589 955.448 38.0739 956.009 37.7102C956.569 37.3428 957.217 37.1591 957.952 37.1591C958.52 37.1591 958.971 37.2538 959.304 37.4432C959.641 37.6288 959.899 37.8409 960.077 38.0795C960.259 38.3144 960.399 38.5076 960.497 38.6591H960.634V37.2727H961.929V46.25C961.929 47 961.759 47.6098 961.418 48.0795C961.08 48.553 960.626 48.8996 960.054 49.1193C959.486 49.3428 958.853 49.4545 958.156 49.4545ZM958.111 44.6591C958.649 44.6591 959.103 44.536 959.474 44.2898C959.846 44.0436 960.128 43.6894 960.321 43.2273C960.514 42.7652 960.611 42.2121 960.611 41.5682C960.611 40.9394 960.516 40.3845 960.327 39.9034C960.137 39.4223 959.857 39.0455 959.486 38.7727C959.115 38.5 958.656 38.3636 958.111 38.3636C957.543 38.3636 957.069 38.5076 956.69 38.7955C956.315 39.0833 956.033 39.4697 955.844 39.9545C955.658 40.4394 955.565 40.9773 955.565 41.5682C955.565 42.1742 955.66 42.7102 955.849 43.1761C956.043 43.6383 956.327 44.0019 956.702 44.267C957.08 44.5284 957.55 44.6591 958.111 44.6591ZM972.679 37.2727V38.4091H968.156V37.2727H972.679ZM969.474 35.1818H970.815V43.5C970.815 43.8788 970.87 44.1629 970.98 44.3523C971.094 44.5379 971.238 44.6629 971.412 44.7273C971.59 44.7879 971.777 44.8182 971.974 44.8182C972.122 44.8182 972.243 44.8106 972.338 44.7955C972.433 44.7765 972.509 44.7614 972.565 44.75L972.838 45.9545C972.747 45.9886 972.62 46.0227 972.457 46.0568C972.295 46.0947 972.088 46.1136 971.838 46.1136C971.459 46.1136 971.088 46.0322 970.724 45.8693C970.365 45.7064 970.065 45.4583 969.827 45.125C969.592 44.7917 969.474 44.3712 969.474 43.8636V35.1818ZM978.148 46.1818C977.36 46.1818 976.669 45.9943 976.074 45.6193C975.483 45.2443 975.021 44.7197 974.688 44.0455C974.358 43.3712 974.193 42.5833 974.193 41.6818C974.193 40.7727 974.358 39.9792 974.688 39.3011C975.021 38.6231 975.483 38.0966 976.074 37.7216C976.669 37.3466 977.36 37.1591 978.148 37.1591C978.936 37.1591 979.625 37.3466 980.216 37.7216C980.811 38.0966 981.273 38.6231 981.602 39.3011C981.936 39.9792 982.102 40.7727 982.102 41.6818C982.102 42.5833 981.936 43.3712 981.602 44.0455C981.273 44.7197 980.811 45.2443 980.216 45.6193C979.625 45.9943 978.936 46.1818 978.148 46.1818ZM978.148 44.9773C978.746 44.9773 979.239 44.8239 979.625 44.517C980.011 44.2102 980.297 43.8068 980.483 43.3068C980.669 42.8068 980.761 42.2652 980.761 41.6818C980.761 41.0985 980.669 40.5549 980.483 40.0511C980.297 39.5473 980.011 39.1402 979.625 38.8295C979.239 38.5189 978.746 38.3636 978.148 38.3636C977.549 38.3636 977.057 38.5189 976.67 38.8295C976.284 39.1402 975.998 39.5473 975.812 40.0511C975.627 40.5549 975.534 41.0985 975.534 41.6818C975.534 42.2652 975.627 42.8068 975.812 43.3068C975.998 43.8068 976.284 44.2102 976.67 44.517C977.057 44.8239 977.549 44.9773 978.148 44.9773ZM991.217 46.2045C990.664 46.2045 990.162 46.1004 989.712 45.892C989.261 45.6799 988.903 45.375 988.638 44.9773C988.373 44.5758 988.24 44.0909 988.24 43.5227C988.24 43.0227 988.339 42.6174 988.536 42.3068C988.732 41.9924 988.996 41.7462 989.325 41.5682C989.655 41.3902 990.018 41.2576 990.416 41.1705C990.818 41.0795 991.221 41.0076 991.626 40.9545C992.157 40.8864 992.587 40.8352 992.916 40.8011C993.25 40.7633 993.492 40.7008 993.643 40.6136C993.799 40.5265 993.876 40.375 993.876 40.1591V40.1136C993.876 39.553 993.723 39.1174 993.416 38.8068C993.113 38.4962 992.653 38.3409 992.036 38.3409C991.395 38.3409 990.893 38.4811 990.53 38.7614C990.166 39.0417 989.911 39.3409 989.763 39.6591L988.49 39.2045C988.717 38.6742 989.02 38.2614 989.399 37.9659C989.782 37.6667 990.198 37.4583 990.649 37.3409C991.104 37.2197 991.551 37.1591 991.99 37.1591C992.27 37.1591 992.592 37.1932 992.956 37.2614C993.323 37.3258 993.678 37.4602 994.018 37.6648C994.363 37.8693 994.649 38.178 994.876 38.5909C995.104 39.0038 995.217 39.5568 995.217 40.25V46H993.876V44.8182H993.808C993.717 45.0076 993.566 45.2102 993.354 45.4261C993.142 45.642 992.859 45.8258 992.507 45.9773C992.155 46.1288 991.725 46.2045 991.217 46.2045ZM991.422 45C991.952 45 992.399 44.8958 992.763 44.6875C993.13 44.4792 993.407 44.2102 993.592 43.8807C993.782 43.5511 993.876 43.2045 993.876 42.8409V41.6136C993.82 41.6818 993.695 41.7443 993.501 41.8011C993.312 41.8542 993.092 41.9015 992.842 41.9432C992.596 41.9811 992.356 42.0152 992.121 42.0455C991.89 42.072 991.702 42.0947 991.558 42.1136C991.21 42.1591 990.884 42.233 990.581 42.3352C990.282 42.4337 990.039 42.5833 989.854 42.7841C989.672 42.9811 989.581 43.25 989.581 43.5909C989.581 44.0568 989.753 44.4091 990.098 44.6477C990.446 44.8826 990.888 45 991.422 45ZM1008.35 39.2273L1007.14 39.5682C1007.07 39.3674 1006.95 39.1723 1006.81 38.983C1006.66 38.7898 1006.47 38.6307 1006.22 38.5057C1005.97 38.3807 1005.65 38.3182 1005.26 38.3182C1004.72 38.3182 1004.28 38.4413 1003.92 38.6875C1003.57 38.9299 1003.39 39.2386 1003.39 39.6136C1003.39 39.947 1003.51 40.2102 1003.76 40.4034C1004 40.5966 1004.38 40.7576 1004.89 40.8864L1006.19 41.2045C1006.97 41.3939 1007.55 41.6837 1007.93 42.0739C1008.31 42.4602 1008.51 42.9583 1008.51 43.5682C1008.51 44.0682 1008.36 44.5152 1008.07 44.9091C1007.79 45.303 1007.39 45.6136 1006.88 45.8409C1006.37 46.0682 1005.77 46.1818 1005.1 46.1818C1004.21 46.1818 1003.47 45.9886 1002.89 45.6023C1002.3 45.2159 1001.93 44.6515 1001.78 43.9091L1003.05 43.5909C1003.17 44.0606 1003.4 44.4129 1003.74 44.6477C1004.08 44.8826 1004.52 45 1005.07 45C1005.7 45 1006.2 44.8674 1006.56 44.6023C1006.93 44.3333 1007.12 44.0114 1007.12 43.6364C1007.12 43.3333 1007.01 43.0795 1006.8 42.875C1006.59 42.6667 1006.26 42.5114 1005.82 42.4091L1004.37 42.0682C1003.57 41.8788 1002.98 41.5852 1002.61 41.1875C1002.24 40.786 1002.05 40.2841 1002.05 39.6818C1002.05 39.1894 1002.19 38.7538 1002.47 38.375C1002.75 37.9962 1003.13 37.6989 1003.61 37.483C1004.09 37.267 1004.64 37.1591 1005.26 37.1591C1006.12 37.1591 1006.8 37.3485 1007.29 37.7273C1007.79 38.1061 1008.14 38.6061 1008.35 39.2273ZM1014.18 46.1818C1013.34 46.1818 1012.62 45.9962 1012.01 45.625C1011.4 45.25 1010.93 44.7273 1010.6 44.0568C1010.28 43.3826 1010.12 42.5985 1010.12 41.7045C1010.12 40.8106 1010.28 40.0227 1010.6 39.3409C1010.93 38.6553 1011.39 38.1212 1011.98 37.7386C1012.57 37.3523 1013.26 37.1591 1014.05 37.1591C1014.5 37.1591 1014.95 37.2348 1015.39 37.3864C1015.84 37.5379 1016.24 37.7841 1016.6 38.125C1016.97 38.4621 1017.26 38.9091 1017.47 39.4659C1017.69 40.0227 1017.8 40.7083 1017.8 41.5227V42.0909H1011.07V40.9318H1016.43C1016.43 40.4394 1016.33 40 1016.14 39.6136C1015.94 39.2273 1015.67 38.9223 1015.31 38.6989C1014.95 38.4754 1014.53 38.3636 1014.05 38.3636C1013.51 38.3636 1013.05 38.4962 1012.66 38.7614C1012.27 39.0227 1011.98 39.3636 1011.77 39.7841C1011.56 40.2045 1011.46 40.6553 1011.46 41.1364V41.9091C1011.46 42.5682 1011.57 43.1269 1011.8 43.5852C1012.03 44.0398 1012.35 44.3864 1012.76 44.625C1013.17 44.8598 1013.64 44.9773 1014.18 44.9773C1014.54 44.9773 1014.85 44.928 1015.14 44.8295C1015.43 44.7273 1015.67 44.5758 1015.88 44.375C1016.09 44.1705 1016.25 43.9167 1016.37 43.6136L1017.66 43.9773C1017.52 44.4167 1017.29 44.803 1016.97 45.1364C1016.65 45.4659 1016.25 45.7235 1015.78 45.9091C1015.31 46.0909 1014.77 46.1818 1014.18 46.1818ZM1021.18 34.3636V46H1019.84V34.3636H1021.18ZM1027.29 46.1818C1026.45 46.1818 1025.73 45.9962 1025.12 45.625C1024.51 45.25 1024.04 44.7273 1023.71 44.0568C1023.39 43.3826 1023.22 42.5985 1023.22 41.7045C1023.22 40.8106 1023.39 40.0227 1023.71 39.3409C1024.04 38.6553 1024.5 38.1212 1025.09 37.7386C1025.68 37.3523 1026.37 37.1591 1027.16 37.1591C1027.61 37.1591 1028.06 37.2348 1028.5 37.3864C1028.95 37.5379 1029.35 37.7841 1029.71 38.125C1030.08 38.4621 1030.37 38.9091 1030.58 39.4659C1030.8 40.0227 1030.91 40.7083 1030.91 41.5227V42.0909H1024.18V40.9318H1029.54C1029.54 40.4394 1029.44 40 1029.25 39.6136C1029.05 39.2273 1028.78 38.9223 1028.42 38.6989C1028.06 38.4754 1027.64 38.3636 1027.16 38.3636C1026.62 38.3636 1026.16 38.4962 1025.77 38.7614C1025.38 39.0227 1025.09 39.3636 1024.88 39.7841C1024.67 40.2045 1024.57 40.6553 1024.57 41.1364V41.9091C1024.57 42.5682 1024.68 43.1269 1024.91 43.5852C1025.14 44.0398 1025.46 44.3864 1025.87 44.625C1026.28 44.8598 1026.75 44.9773 1027.29 44.9773C1027.64 44.9773 1027.96 44.928 1028.25 44.8295C1028.54 44.7273 1028.78 44.5758 1028.99 44.375C1029.2 44.1705 1029.36 43.9167 1029.47 43.6136L1030.77 43.9773C1030.63 44.4167 1030.4 44.803 1030.08 45.1364C1029.76 45.4659 1029.36 45.7235 1028.89 45.9091C1028.42 46.0909 1027.88 46.1818 1027.29 46.1818ZM1036.49 46.1818C1035.67 46.1818 1034.97 45.9886 1034.38 45.6023C1033.79 45.2159 1033.33 44.6837 1033.01 44.0057C1032.7 43.3277 1032.54 42.553 1032.54 41.6818C1032.54 40.7955 1032.7 40.0133 1033.03 39.3352C1033.36 38.6534 1033.81 38.1212 1034.4 37.7386C1034.99 37.3523 1035.68 37.1591 1036.47 37.1591C1037.08 37.1591 1037.64 37.2727 1038.13 37.5C1038.62 37.7273 1039.02 38.0455 1039.34 38.4545C1039.65 38.8636 1039.85 39.3409 1039.92 39.8864H1038.58C1038.48 39.4886 1038.25 39.1364 1037.9 38.8295C1037.55 38.5189 1037.08 38.3636 1036.49 38.3636C1035.97 38.3636 1035.51 38.5 1035.12 38.7727C1034.73 39.0417 1034.42 39.4223 1034.2 39.9148C1033.99 40.4034 1033.88 40.9773 1033.88 41.6364C1033.88 42.3106 1033.98 42.8977 1034.2 43.3977C1034.41 43.8977 1034.71 44.286 1035.11 44.5625C1035.5 44.839 1035.96 44.9773 1036.49 44.9773C1036.84 44.9773 1037.16 44.9167 1037.44 44.7955C1037.72 44.6742 1037.96 44.5 1038.16 44.2727C1038.36 44.0455 1038.5 43.7727 1038.58 43.4545H1039.92C1039.85 43.9697 1039.66 44.4337 1039.36 44.8466C1039.07 45.2557 1038.67 45.5814 1038.18 45.8239C1037.7 46.0625 1037.14 46.1818 1036.49 46.1818ZM1045.68 37.2727V38.4091H1041.16V37.2727H1045.68ZM1042.47 35.1818H1043.82V43.5C1043.82 43.8788 1043.87 44.1629 1043.98 44.3523C1044.09 44.5379 1044.24 44.6629 1044.41 44.7273C1044.59 44.7879 1044.78 44.8182 1044.97 44.8182C1045.12 44.8182 1045.24 44.8106 1045.34 44.7955C1045.43 44.7765 1045.51 44.7614 1045.57 44.75L1045.84 45.9545C1045.75 45.9886 1045.62 46.0227 1045.46 46.0568C1045.29 46.0947 1045.09 46.1136 1044.84 46.1136C1044.46 46.1136 1044.09 46.0322 1043.72 45.8693C1043.36 45.7064 1043.07 45.4583 1042.83 45.125C1042.59 44.7917 1042.47 44.3712 1042.47 43.8636V35.1818ZM1047.7 46V37.2727H1049.04V46H1047.7ZM1048.38 35.8182C1048.12 35.8182 1047.89 35.7292 1047.7 35.5511C1047.52 35.3731 1047.42 35.1591 1047.42 34.9091C1047.42 34.6591 1047.52 34.4451 1047.7 34.267C1047.89 34.089 1048.12 34 1048.38 34C1048.64 34 1048.86 34.089 1049.05 34.267C1049.24 34.4451 1049.33 34.6591 1049.33 34.9091C1049.33 35.1591 1049.24 35.3731 1049.05 35.5511C1048.86 35.7292 1048.64 35.8182 1048.38 35.8182ZM1055.04 46.1818C1054.25 46.1818 1053.56 45.9943 1052.96 45.6193C1052.37 45.2443 1051.91 44.7197 1051.58 44.0455C1051.25 43.3712 1051.08 42.5833 1051.08 41.6818C1051.08 40.7727 1051.25 39.9792 1051.58 39.3011C1051.91 38.6231 1052.37 38.0966 1052.96 37.7216C1053.56 37.3466 1054.25 37.1591 1055.04 37.1591C1055.83 37.1591 1056.52 37.3466 1057.11 37.7216C1057.7 38.0966 1058.16 38.6231 1058.49 39.3011C1058.83 39.9792 1058.99 40.7727 1058.99 41.6818C1058.99 42.5833 1058.83 43.3712 1058.49 44.0455C1058.16 44.7197 1057.7 45.2443 1057.11 45.6193C1056.52 45.9943 1055.83 46.1818 1055.04 46.1818ZM1055.04 44.9773C1055.64 44.9773 1056.13 44.8239 1056.52 44.517C1056.9 44.2102 1057.19 43.8068 1057.37 43.3068C1057.56 42.8068 1057.65 42.2652 1057.65 41.6818C1057.65 41.0985 1057.56 40.5549 1057.37 40.0511C1057.19 39.5473 1056.9 39.1402 1056.52 38.8295C1056.13 38.5189 1055.64 38.3636 1055.04 38.3636C1054.44 38.3636 1053.95 38.5189 1053.56 38.8295C1053.17 39.1402 1052.89 39.5473 1052.7 40.0511C1052.52 40.5549 1052.42 41.0985 1052.42 41.6818C1052.42 42.2652 1052.52 42.8068 1052.7 43.3068C1052.89 43.8068 1053.17 44.2102 1053.56 44.517C1053.95 44.8239 1054.44 44.9773 1055.04 44.9773ZM1062.38 40.75V46H1061.04V37.2727H1062.34V38.6364H1062.45C1062.65 38.1932 1062.96 37.8371 1063.38 37.5682C1063.8 37.2955 1064.34 37.1591 1064.99 37.1591C1065.59 37.1591 1066.1 37.2803 1066.55 37.5227C1066.99 37.7614 1067.33 38.125 1067.58 38.6136C1067.83 39.0985 1067.95 39.7121 1067.95 40.4545V46H1066.61V40.5455C1066.61 39.8598 1066.43 39.3258 1066.07 38.9432C1065.72 38.5568 1065.23 38.3636 1064.61 38.3636C1064.18 38.3636 1063.8 38.4564 1063.46 38.642C1063.13 38.8277 1062.86 39.0985 1062.67 39.4545C1062.48 39.8106 1062.38 40.2424 1062.38 40.75Z" fill="white" fill-opacity="0.95"/>
</svg>
