<svg width="1150" height="80" viewBox="0 0 1150 80" fill="none" xmlns="http://www.w3.org/2000/svg">
<mask id="path-1-inside-1_1273_55074" fill="white">
<path d="M0 0H575V80H0V0Z"/>
</mask>
<path d="M0 0H575V80H0V0Z" fill="#1A1A1A"/>
<path d="M575 80V81H576V80H575ZM574 0V80H576V0H574ZM575 79H0V81H575V79Z" fill="#707070" mask="url(#path-1-inside-1_1273_55074)"/>
<rect x="30" y="24" width="102" height="32" rx="4" fill="#262626"/>
<path d="M39.0114 46V34.3636H41.4716V43.9716H46.4602V46H39.0114ZM52.3413 46.1705C51.4436 46.1705 50.6709 45.9886 50.0231 45.625C49.3792 45.2576 48.883 44.7386 48.5345 44.0682C48.186 43.3939 48.0118 42.5966 48.0118 41.6761C48.0118 40.7784 48.186 39.9905 48.5345 39.3125C48.883 38.6345 49.3735 38.1061 50.0061 37.7273C50.6424 37.3485 51.3887 37.1591 52.2447 37.1591C52.8205 37.1591 53.3565 37.2519 53.8527 37.4375C54.3527 37.6193 54.7883 37.8939 55.1595 38.2614C55.5345 38.6288 55.8262 39.0909 56.0345 39.6477C56.2428 40.2008 56.347 40.8485 56.347 41.5909V42.2557H48.9777V40.7557H54.0686C54.0686 40.4072 53.9928 40.0985 53.8413 39.8295C53.6898 39.5606 53.4796 39.3504 53.2106 39.1989C52.9455 39.0436 52.6368 38.9659 52.2845 38.9659C51.9171 38.9659 51.5913 39.0511 51.3072 39.2216C51.0269 39.3883 50.8072 39.6136 50.6481 39.8977C50.489 40.178 50.4076 40.4905 50.4038 40.8352V42.2614C50.4038 42.6932 50.4834 43.0663 50.6424 43.3807C50.8053 43.6951 51.0345 43.9375 51.3299 44.108C51.6254 44.2784 51.9758 44.3636 52.3811 44.3636C52.65 44.3636 52.8962 44.3258 53.1197 44.25C53.3432 44.1742 53.5345 44.0606 53.6936 43.9091C53.8527 43.7576 53.9739 43.572 54.0572 43.3523L56.2959 43.5C56.1822 44.0379 55.9493 44.5076 55.597 44.9091C55.2485 45.3068 54.7977 45.6174 54.2447 45.8409C53.6955 46.0606 53.061 46.1705 52.3413 46.1705ZM62.9397 37.2727V39.0909H57.5534V37.2727H62.9397ZM58.7863 46V36.642C58.7863 36.0095 58.9094 35.4848 59.1556 35.0682C59.4056 34.6515 59.7465 34.339 60.1784 34.1307C60.6102 33.9223 61.1007 33.8182 61.6499 33.8182C62.0212 33.8182 62.3602 33.8466 62.667 33.9034C62.9776 33.9602 63.2087 34.0114 63.3602 34.0568L62.9284 35.875C62.8337 35.8447 62.7162 35.8163 62.5761 35.7898C62.4397 35.7633 62.2996 35.75 62.1556 35.75C61.7996 35.75 61.5515 35.8333 61.4113 36C61.2712 36.1629 61.2011 36.392 61.2011 36.6875V46H58.7863ZM69.3805 37.2727V39.0909H64.1248V37.2727H69.3805ZM65.318 35.1818H67.7384V43.3182C67.7384 43.5417 67.7725 43.7159 67.8407 43.8409C67.9089 43.9621 68.0036 44.0473 68.1248 44.0966C68.2498 44.1458 68.3937 44.1705 68.5566 44.1705C68.6702 44.1705 68.7839 44.161 68.8975 44.142C69.0111 44.1193 69.0983 44.1023 69.1589 44.0909L69.5395 45.892C69.4183 45.9299 69.2479 45.9735 69.0282 46.0227C68.8085 46.0758 68.5414 46.108 68.227 46.1193C67.6437 46.142 67.1323 46.0644 66.693 45.8864C66.2573 45.7083 65.9183 45.4318 65.6759 45.0568C65.4335 44.6818 65.3142 44.2083 65.318 43.6364V35.1818ZM77.3514 46H74.7151L78.7321 34.3636H81.9026L85.9139 46H83.2776L80.3628 37.0227H80.2719L77.3514 46ZM77.1866 41.4261H83.4139V43.3466H77.1866V41.4261ZM87.589 46V37.2727H89.9356V38.7955H90.0265C90.1856 38.2538 90.4527 37.8447 90.8277 37.5682C91.2027 37.2879 91.6345 37.1477 92.1231 37.1477C92.2443 37.1477 92.375 37.1553 92.5152 37.1705C92.6553 37.1856 92.7784 37.2064 92.8845 37.233V39.3807C92.7709 39.3466 92.6137 39.3163 92.4129 39.2898C92.2121 39.2633 92.0284 39.25 91.8618 39.25C91.5057 39.25 91.1875 39.3277 90.9072 39.483C90.6307 39.6345 90.411 39.8466 90.2481 40.1193C90.089 40.392 90.0095 40.7064 90.0095 41.0625V46H87.589ZM94.4559 46V37.2727H96.8025V38.7955H96.8934C97.0525 38.2538 97.3195 37.8447 97.6945 37.5682C98.0695 37.2879 98.5014 37.1477 98.99 37.1477C99.1112 37.1477 99.2419 37.1553 99.382 37.1705C99.5222 37.1856 99.6453 37.2064 99.7514 37.233V39.3807C99.6377 39.3466 99.4805 39.3163 99.2798 39.2898C99.079 39.2633 98.8953 39.25 98.7286 39.25C98.3726 39.25 98.0544 39.3277 97.7741 39.483C97.4976 39.6345 97.2779 39.8466 97.115 40.1193C96.9559 40.392 96.8764 40.7064 96.8764 41.0625V46H94.4559ZM104.86 46.1705C103.977 46.1705 103.214 45.983 102.57 45.608C101.93 45.2292 101.435 44.7027 101.087 44.0284C100.739 43.3504 100.564 42.5644 100.564 41.6705C100.564 40.7689 100.739 39.9811 101.087 39.3068C101.435 38.6288 101.93 38.1023 102.57 37.7273C103.214 37.3485 103.977 37.1591 104.86 37.1591C105.742 37.1591 106.504 37.3485 107.144 37.7273C107.788 38.1023 108.284 38.6288 108.632 39.3068C108.981 39.9811 109.155 40.7689 109.155 41.6705C109.155 42.5644 108.981 43.3504 108.632 44.0284C108.284 44.7027 107.788 45.2292 107.144 45.608C106.504 45.983 105.742 46.1705 104.86 46.1705ZM104.871 44.2955C105.273 44.2955 105.608 44.1818 105.877 43.9545C106.146 43.7235 106.348 43.4091 106.485 43.0114C106.625 42.6136 106.695 42.161 106.695 41.6534C106.695 41.1458 106.625 40.6932 106.485 40.2955C106.348 39.8977 106.146 39.5833 105.877 39.3523C105.608 39.1212 105.273 39.0057 104.871 39.0057C104.466 39.0057 104.125 39.1212 103.848 39.3523C103.576 39.5833 103.369 39.8977 103.229 40.2955C103.093 40.6932 103.024 41.1458 103.024 41.6534C103.024 42.161 103.093 42.6136 103.229 43.0114C103.369 43.4091 103.576 43.7235 103.848 43.9545C104.125 44.1818 104.466 44.2955 104.871 44.2955ZM112.552 46L110.177 37.2727H112.626L113.978 43.1364H114.058L115.467 37.2727H117.87L119.302 43.1023H119.376L120.705 37.2727H123.148L120.779 46H118.217L116.717 40.5114H116.609L115.109 46H112.552Z" fill="white" fill-opacity="0.7"/>
<path d="M150.676 30.7727L145.989 48.1875H144.455L149.142 30.7727H150.676Z" fill="white" fill-opacity="0.95"/>
<rect x="164" y="24" width="112" height="32" rx="4" fill="#262626"/>
<path d="M173.011 46V34.3636H177.602C178.481 34.3636 179.231 34.5208 179.852 34.8352C180.477 35.1458 180.953 35.5871 181.278 36.1591C181.608 36.7273 181.773 37.3958 181.773 38.1648C181.773 38.9375 181.606 39.6023 181.273 40.1591C180.939 40.7121 180.456 41.1364 179.824 41.4318C179.195 41.7273 178.434 41.875 177.54 41.875H174.466V39.8977H177.142C177.612 39.8977 178.002 39.8333 178.312 39.7045C178.623 39.5758 178.854 39.3826 179.006 39.125C179.161 38.8674 179.239 38.5473 179.239 38.1648C179.239 37.7784 179.161 37.4527 179.006 37.1875C178.854 36.9223 178.621 36.7216 178.307 36.5852C177.996 36.4451 177.604 36.375 177.131 36.375H175.472V46H173.011ZM179.295 40.7045L182.188 46H179.472L176.642 40.7045H179.295ZM183.786 46V37.2727H186.206V46H183.786ZM185.007 36.1477C184.648 36.1477 184.339 36.0284 184.081 35.7898C183.824 35.5473 183.695 35.2576 183.695 34.9205C183.695 34.5871 183.824 34.3011 184.081 34.0625C184.339 33.8201 184.646 33.6989 185.002 33.6989C185.365 33.6989 185.674 33.8201 185.928 34.0625C186.186 34.3011 186.314 34.5871 186.314 34.9205C186.314 35.2576 186.186 35.5473 185.928 35.7898C185.674 36.0284 185.367 36.1477 185.007 36.1477ZM192.397 49.3977C191.613 49.3977 190.941 49.2917 190.38 49.0795C189.823 48.8674 189.38 48.5814 189.051 48.2216C188.721 47.8617 188.507 47.4621 188.408 47.0227L190.647 46.7216C190.715 46.8807 190.823 47.0303 190.971 47.1705C191.119 47.3144 191.314 47.4318 191.556 47.5227C191.802 47.6136 192.102 47.6591 192.454 47.6591C192.98 47.6591 193.414 47.5341 193.755 47.2841C194.1 47.0341 194.272 46.6231 194.272 46.0511V44.4545H194.17C194.064 44.697 193.905 44.9261 193.693 45.142C193.48 45.358 193.208 45.5341 192.874 45.6705C192.541 45.8068 192.143 45.875 191.681 45.875C191.026 45.875 190.429 45.7235 189.891 45.4205C189.357 45.1136 188.931 44.6458 188.613 44.017C188.299 43.3845 188.141 42.5852 188.141 41.6193C188.141 40.6307 188.302 39.8049 188.624 39.142C188.946 38.4792 189.374 37.983 189.908 37.6534C190.446 37.3239 191.035 37.1591 191.676 37.1591C192.164 37.1591 192.573 37.2424 192.903 37.4091C193.232 37.572 193.497 37.7765 193.698 38.0227C193.903 38.2652 194.06 38.5038 194.17 38.7386H194.261V37.2727H196.664V46.0852C196.664 46.8125 196.482 47.4205 196.119 47.9091C195.755 48.4015 195.251 48.7727 194.607 49.0227C193.967 49.2727 193.23 49.3977 192.397 49.3977ZM192.448 44.0568C192.838 44.0568 193.168 43.9602 193.437 43.767C193.71 43.5701 193.918 43.2898 194.062 42.9261C194.21 42.5587 194.283 42.1193 194.283 41.608C194.283 41.0966 194.211 40.6534 194.068 40.2784C193.924 39.8996 193.715 39.6061 193.443 39.3977C193.17 39.1894 192.838 39.0852 192.448 39.0852C192.051 39.0852 191.715 39.1932 191.443 39.4091C191.17 39.6212 190.963 39.9167 190.823 40.2955C190.683 40.6742 190.613 41.1117 190.613 41.608C190.613 42.1117 190.683 42.5473 190.823 42.9148C190.967 43.2784 191.174 43.5606 191.443 43.7614C191.715 43.9583 192.051 44.0568 192.448 44.0568ZM201.331 40.9545V46H198.91V34.3636H201.263V38.8125H201.365C201.562 38.2973 201.88 37.8939 202.319 37.6023C202.759 37.3068 203.31 37.1591 203.973 37.1591C204.579 37.1591 205.107 37.2917 205.558 37.5568C206.013 37.8182 206.365 38.1951 206.615 38.6875C206.869 39.1761 206.994 39.7614 206.99 40.4432V46H204.569V40.875C204.573 40.3371 204.437 39.9186 204.16 39.6193C203.888 39.3201 203.505 39.1705 203.013 39.1705C202.683 39.1705 202.391 39.2405 202.138 39.3807C201.888 39.5208 201.691 39.7254 201.547 39.9943C201.406 40.2595 201.335 40.5795 201.331 40.9545ZM213.857 37.2727V39.0909H208.601V37.2727H213.857ZM209.794 35.1818H212.215V43.3182C212.215 43.5417 212.249 43.7159 212.317 43.8409C212.385 43.9621 212.48 44.0473 212.601 44.0966C212.726 44.1458 212.87 44.1705 213.033 44.1705C213.146 44.1705 213.26 44.161 213.374 44.142C213.487 44.1193 213.575 44.1023 213.635 44.0909L214.016 45.892C213.895 45.9299 213.724 45.9735 213.504 46.0227C213.285 46.0758 213.018 46.108 212.703 46.1193C212.12 46.142 211.609 46.0644 211.169 45.8864C210.734 45.7083 210.395 45.4318 210.152 45.0568C209.91 44.6818 209.79 44.2083 209.794 43.6364V35.1818ZM221.828 46H219.191L223.208 34.3636H226.379L230.39 46H227.754L224.839 37.0227H224.748L221.828 46ZM221.663 41.4261H227.89V43.3466H221.663V41.4261ZM232.065 46V37.2727H234.412V38.7955H234.503C234.662 38.2538 234.929 37.8447 235.304 37.5682C235.679 37.2879 236.111 37.1477 236.599 37.1477C236.721 37.1477 236.851 37.1553 236.991 37.1705C237.132 37.1856 237.255 37.2064 237.361 37.233V39.3807C237.247 39.3466 237.09 39.3163 236.889 39.2898C236.688 39.2633 236.505 39.25 236.338 39.25C235.982 39.25 235.664 39.3277 235.383 39.483C235.107 39.6345 234.887 39.8466 234.724 40.1193C234.565 40.392 234.486 40.7064 234.486 41.0625V46H232.065ZM238.932 46V37.2727H241.279V38.7955H241.37C241.529 38.2538 241.796 37.8447 242.171 37.5682C242.546 37.2879 242.978 37.1477 243.466 37.1477C243.587 37.1477 243.718 37.1553 243.858 37.1705C243.998 37.1856 244.122 37.2064 244.228 37.233V39.3807C244.114 39.3466 243.957 39.3163 243.756 39.2898C243.555 39.2633 243.372 39.25 243.205 39.25C242.849 39.25 242.531 39.3277 242.25 39.483C241.974 39.6345 241.754 39.8466 241.591 40.1193C241.432 40.392 241.353 40.7064 241.353 41.0625V46H238.932ZM249.336 46.1705C248.453 46.1705 247.69 45.983 247.046 45.608C246.406 45.2292 245.912 44.7027 245.563 44.0284C245.215 43.3504 245.041 42.5644 245.041 41.6705C245.041 40.7689 245.215 39.9811 245.563 39.3068C245.912 38.6288 246.406 38.1023 247.046 37.7273C247.69 37.3485 248.453 37.1591 249.336 37.1591C250.219 37.1591 250.98 37.3485 251.62 37.7273C252.264 38.1023 252.76 38.6288 253.109 39.3068C253.457 39.9811 253.631 40.7689 253.631 41.6705C253.631 42.5644 253.457 43.3504 253.109 44.0284C252.76 44.7027 252.264 45.2292 251.62 45.608C250.98 45.983 250.219 46.1705 249.336 46.1705ZM249.347 44.2955C249.749 44.2955 250.084 44.1818 250.353 43.9545C250.622 43.7235 250.825 43.4091 250.961 43.0114C251.101 42.6136 251.171 42.161 251.171 41.6534C251.171 41.1458 251.101 40.6932 250.961 40.2955C250.825 39.8977 250.622 39.5833 250.353 39.3523C250.084 39.1212 249.749 39.0057 249.347 39.0057C248.942 39.0057 248.601 39.1212 248.325 39.3523C248.052 39.5833 247.845 39.8977 247.705 40.2955C247.569 40.6932 247.501 41.1458 247.501 41.6534C247.501 42.161 247.569 42.6136 247.705 43.0114C247.845 43.4091 248.052 43.7235 248.325 43.9545C248.601 44.1818 248.942 44.2955 249.347 44.2955ZM257.028 46L254.653 37.2727H257.102L258.454 43.1364H258.534L259.943 37.2727H262.346L263.778 43.1023H263.852L265.182 37.2727H267.625L265.255 46H262.693L261.193 40.5114H261.085L259.585 46H257.028Z" fill="white" fill-opacity="0.7"/>
<mask id="path-8-inside-2_1273_55074" fill="white">
<path d="M575 0H1150V80H575V0Z"/>
</mask>
<path d="M575 0H1150V80H575V0Z" fill="#1A1A1A"/>
<path d="M1150 79H575V81H1150V79Z" fill="#707070" mask="url(#path-8-inside-2_1273_55074)"/>
<path d="M606.409 34.3636H608.091L612.045 44.0227H612.182L616.136 34.3636H617.818V46H616.5V37.1591H616.386L612.75 46H611.477L607.841 37.1591H607.727V46H606.409V34.3636ZM624.007 46.1818C623.219 46.1818 622.528 45.9943 621.933 45.6193C621.342 45.2443 620.88 44.7197 620.547 44.0455C620.217 43.3712 620.053 42.5833 620.053 41.6818C620.053 40.7727 620.217 39.9792 620.547 39.3011C620.88 38.6231 621.342 38.0966 621.933 37.7216C622.528 37.3466 623.219 37.1591 624.007 37.1591C624.795 37.1591 625.484 37.3466 626.075 37.7216C626.67 38.0966 627.132 38.6231 627.462 39.3011C627.795 39.9792 627.962 40.7727 627.962 41.6818C627.962 42.5833 627.795 43.3712 627.462 44.0455C627.132 44.7197 626.67 45.2443 626.075 45.6193C625.484 45.9943 624.795 46.1818 624.007 46.1818ZM624.007 44.9773C624.606 44.9773 625.098 44.8239 625.484 44.517C625.871 44.2102 626.157 43.8068 626.342 43.3068C626.528 42.8068 626.621 42.2652 626.621 41.6818C626.621 41.0985 626.528 40.5549 626.342 40.0511C626.157 39.5473 625.871 39.1402 625.484 38.8295C625.098 38.5189 624.606 38.3636 624.007 38.3636C623.409 38.3636 622.916 38.5189 622.53 38.8295C622.143 39.1402 621.857 39.5473 621.672 40.0511C621.486 40.5549 621.393 41.0985 621.393 41.6818C621.393 42.2652 621.486 42.8068 621.672 43.3068C621.857 43.8068 622.143 44.2102 622.53 44.517C622.916 44.8239 623.409 44.9773 624.007 44.9773ZM636.832 37.2727L633.605 46H632.241L629.014 37.2727H630.469L632.878 44.2273H632.969L635.378 37.2727H636.832ZM641.949 46.1818C641.108 46.1818 640.383 45.9962 639.773 45.625C639.167 45.25 638.699 44.7273 638.369 44.0568C638.044 43.3826 637.881 42.5985 637.881 41.7045C637.881 40.8106 638.044 40.0227 638.369 39.3409C638.699 38.6553 639.157 38.1212 639.744 37.7386C640.335 37.3523 641.025 37.1591 641.812 37.1591C642.267 37.1591 642.716 37.2348 643.159 37.3864C643.602 37.5379 644.006 37.7841 644.369 38.125C644.733 38.4621 645.023 38.9091 645.239 39.4659C645.455 40.0227 645.562 40.7083 645.562 41.5227V42.0909H638.835V40.9318H644.199C644.199 40.4394 644.1 40 643.903 39.6136C643.71 39.2273 643.434 38.9223 643.074 38.6989C642.718 38.4754 642.297 38.3636 641.812 38.3636C641.278 38.3636 640.816 38.4962 640.426 38.7614C640.04 39.0227 639.742 39.3636 639.534 39.7841C639.326 40.2045 639.222 40.6553 639.222 41.1364V41.9091C639.222 42.5682 639.335 43.1269 639.562 43.5852C639.794 44.0398 640.114 44.3864 640.523 44.625C640.932 44.8598 641.407 44.9773 641.949 44.9773C642.301 44.9773 642.619 44.928 642.903 44.8295C643.191 44.7273 643.439 44.5758 643.648 44.375C643.856 44.1705 644.017 43.9167 644.131 43.6136L645.426 43.9773C645.29 44.4167 645.061 44.803 644.739 45.1364C644.417 45.4659 644.019 45.7235 643.545 45.9091C643.072 46.0909 642.54 46.1818 641.949 46.1818ZM653.784 39.2273L652.58 39.5682C652.504 39.3674 652.392 39.1723 652.244 38.983C652.1 38.7898 651.903 38.6307 651.653 38.5057C651.403 38.3807 651.083 38.3182 650.693 38.3182C650.159 38.3182 649.714 38.4413 649.358 38.6875C649.006 38.9299 648.83 39.2386 648.83 39.6136C648.83 39.947 648.951 40.2102 649.193 40.4034C649.436 40.5966 649.814 40.7576 650.33 40.8864L651.625 41.2045C652.405 41.3939 652.987 41.6837 653.369 42.0739C653.752 42.4602 653.943 42.9583 653.943 43.5682C653.943 44.0682 653.799 44.5152 653.511 44.9091C653.227 45.303 652.83 45.6136 652.318 45.8409C651.807 46.0682 651.212 46.1818 650.534 46.1818C649.644 46.1818 648.907 45.9886 648.324 45.6023C647.741 45.2159 647.371 44.6515 647.216 43.9091L648.489 43.5909C648.61 44.0606 648.839 44.4129 649.176 44.6477C649.517 44.8826 649.962 45 650.511 45C651.136 45 651.633 44.8674 652 44.6023C652.371 44.3333 652.557 44.0114 652.557 43.6364C652.557 43.3333 652.451 43.0795 652.239 42.875C652.027 42.6667 651.701 42.5114 651.261 42.4091L649.807 42.0682C649.008 41.8788 648.42 41.5852 648.045 41.1875C647.674 40.786 647.489 40.2841 647.489 39.6818C647.489 39.1894 647.627 38.7538 647.903 38.375C648.184 37.9962 648.564 37.6989 649.045 37.483C649.53 37.267 650.08 37.1591 650.693 37.1591C651.557 37.1591 652.235 37.3485 652.727 37.7273C653.223 38.1061 653.576 38.6061 653.784 39.2273ZM664.257 37.2727V38.4091H659.734V37.2727H664.257ZM661.053 35.1818H662.393V43.5C662.393 43.8788 662.448 44.1629 662.558 44.3523C662.672 44.5379 662.816 44.6629 662.99 44.7273C663.168 44.7879 663.356 44.8182 663.553 44.8182C663.7 44.8182 663.821 44.8106 663.916 44.7955C664.011 44.7765 664.087 44.7614 664.143 44.75L664.416 45.9545C664.325 45.9886 664.198 46.0227 664.036 46.0568C663.873 46.0947 663.666 46.1136 663.416 46.1136C663.037 46.1136 662.666 46.0322 662.303 45.8693C661.943 45.7064 661.643 45.4583 661.405 45.125C661.17 44.7917 661.053 44.3712 661.053 43.8636V35.1818ZM667.803 40.75V46H666.462V34.3636H667.803V38.6364H667.916C668.121 38.1856 668.428 37.8277 668.837 37.5625C669.25 37.2936 669.799 37.1591 670.484 37.1591C671.079 37.1591 671.6 37.2784 672.047 37.517C672.494 37.7519 672.84 38.1136 673.087 38.6023C673.337 39.0871 673.462 39.7045 673.462 40.4545V46H672.121V40.5455C672.121 39.8523 671.941 39.3163 671.581 38.9375C671.225 38.5549 670.731 38.3636 670.098 38.3636C669.659 38.3636 669.265 38.4564 668.916 38.642C668.571 38.8277 668.299 39.0985 668.098 39.4545C667.901 39.8106 667.803 40.2424 667.803 40.75ZM679.574 46.1818C678.733 46.1818 678.008 45.9962 677.398 45.625C676.792 45.25 676.324 44.7273 675.994 44.0568C675.669 43.3826 675.506 42.5985 675.506 41.7045C675.506 40.8106 675.669 40.0227 675.994 39.3409C676.324 38.6553 676.782 38.1212 677.369 37.7386C677.96 37.3523 678.65 37.1591 679.438 37.1591C679.892 37.1591 680.341 37.2348 680.784 37.3864C681.227 37.5379 681.631 37.7841 681.994 38.125C682.358 38.4621 682.648 38.9091 682.864 39.4659C683.08 40.0227 683.188 40.7083 683.188 41.5227V42.0909H676.46V40.9318H681.824C681.824 40.4394 681.725 40 681.528 39.6136C681.335 39.2273 681.059 38.9223 680.699 38.6989C680.343 38.4754 679.922 38.3636 679.438 38.3636C678.903 38.3636 678.441 38.4962 678.051 38.7614C677.665 39.0227 677.367 39.3636 677.159 39.7841C676.951 40.2045 676.847 40.6553 676.847 41.1364V41.9091C676.847 42.5682 676.96 43.1269 677.188 43.5852C677.419 44.0398 677.739 44.3864 678.148 44.625C678.557 44.8598 679.032 44.9773 679.574 44.9773C679.926 44.9773 680.244 44.928 680.528 44.8295C680.816 44.7273 681.064 44.5758 681.273 44.375C681.481 44.1705 681.642 43.9167 681.756 43.6136L683.051 43.9773C682.915 44.4167 682.686 44.803 682.364 45.1364C682.042 45.4659 681.644 45.7235 681.17 45.9091C680.697 46.0909 680.165 46.1818 679.574 46.1818ZM693.273 46.1818C692.455 46.1818 691.75 45.9886 691.159 45.6023C690.568 45.2159 690.114 44.6837 689.795 44.0057C689.477 43.3277 689.318 42.553 689.318 41.6818C689.318 40.7955 689.481 40.0133 689.807 39.3352C690.136 38.6534 690.595 38.1212 691.182 37.7386C691.773 37.3523 692.462 37.1591 693.25 37.1591C693.864 37.1591 694.417 37.2727 694.909 37.5C695.402 37.7273 695.805 38.0455 696.119 38.4545C696.434 38.8636 696.629 39.3409 696.705 39.8864H695.364C695.261 39.4886 695.034 39.1364 694.682 38.8295C694.333 38.5189 693.864 38.3636 693.273 38.3636C692.75 38.3636 692.292 38.5 691.898 38.7727C691.508 39.0417 691.203 39.4223 690.983 39.9148C690.767 40.4034 690.659 40.9773 690.659 41.6364C690.659 42.3106 690.765 42.8977 690.977 43.3977C691.193 43.8977 691.496 44.286 691.886 44.5625C692.28 44.839 692.742 44.9773 693.273 44.9773C693.621 44.9773 693.938 44.9167 694.222 44.7955C694.506 44.6742 694.746 44.5 694.943 44.2727C695.14 44.0455 695.28 43.7727 695.364 43.4545H696.705C696.629 43.9697 696.441 44.4337 696.142 44.8466C695.847 45.2557 695.455 45.5814 694.966 45.8239C694.481 46.0625 693.917 46.1818 693.273 46.1818ZM704.165 42.4318V37.2727H705.506V46H704.165V44.5227H704.074C703.869 44.9659 703.551 45.3428 703.119 45.6534C702.688 45.9602 702.142 46.1136 701.483 46.1136C700.938 46.1136 700.453 45.9943 700.028 45.7557C699.604 45.5133 699.271 45.1496 699.028 44.6648C698.786 44.1761 698.665 43.5606 698.665 42.8182V37.2727H700.006V42.7273C700.006 43.3636 700.184 43.8712 700.54 44.25C700.9 44.6288 701.358 44.8182 701.915 44.8182C702.248 44.8182 702.587 44.733 702.932 44.5625C703.28 44.392 703.572 44.1307 703.807 43.7784C704.045 43.4261 704.165 42.9773 704.165 42.4318ZM707.962 46V37.2727H709.257V38.5909H709.348C709.507 38.1591 709.795 37.8087 710.212 37.5398C710.628 37.2708 711.098 37.1364 711.621 37.1364C711.719 37.1364 711.842 37.1383 711.99 37.142C712.138 37.1458 712.25 37.1515 712.325 37.1591V38.5227C712.28 38.5114 712.176 38.4943 712.013 38.4716C711.854 38.4451 711.685 38.4318 711.507 38.4318C711.083 38.4318 710.704 38.5208 710.371 38.6989C710.041 38.8731 709.78 39.1155 709.587 39.4261C709.397 39.733 709.303 40.0833 709.303 40.4773V46H707.962ZM720.097 39.2273L718.892 39.5682C718.816 39.3674 718.705 39.1723 718.557 38.983C718.413 38.7898 718.216 38.6307 717.966 38.5057C717.716 38.3807 717.396 38.3182 717.006 38.3182C716.472 38.3182 716.027 38.4413 715.67 38.6875C715.318 38.9299 715.142 39.2386 715.142 39.6136C715.142 39.947 715.263 40.2102 715.506 40.4034C715.748 40.5966 716.127 40.7576 716.642 40.8864L717.938 41.2045C718.718 41.3939 719.299 41.6837 719.682 42.0739C720.064 42.4602 720.256 42.9583 720.256 43.5682C720.256 44.0682 720.112 44.5152 719.824 44.9091C719.54 45.303 719.142 45.6136 718.631 45.8409C718.119 46.0682 717.525 46.1818 716.847 46.1818C715.956 46.1818 715.22 45.9886 714.636 45.6023C714.053 45.2159 713.684 44.6515 713.528 43.9091L714.801 43.5909C714.922 44.0606 715.152 44.4129 715.489 44.6477C715.83 44.8826 716.275 45 716.824 45C717.449 45 717.945 44.8674 718.312 44.6023C718.684 44.3333 718.869 44.0114 718.869 43.6364C718.869 43.3333 718.763 43.0795 718.551 42.875C718.339 42.6667 718.013 42.5114 717.574 42.4091L716.119 42.0682C715.32 41.8788 714.733 41.5852 714.358 41.1875C713.987 40.786 713.801 40.2841 713.801 39.6818C713.801 39.1894 713.939 38.7538 714.216 38.375C714.496 37.9962 714.877 37.6989 715.358 37.483C715.843 37.267 716.392 37.1591 717.006 37.1591C717.869 37.1591 718.547 37.3485 719.04 37.7273C719.536 38.1061 719.888 38.6061 720.097 39.2273ZM725.82 46.1818C725.032 46.1818 724.34 45.9943 723.746 45.6193C723.155 45.2443 722.693 44.7197 722.359 44.0455C722.03 43.3712 721.865 42.5833 721.865 41.6818C721.865 40.7727 722.03 39.9792 722.359 39.3011C722.693 38.6231 723.155 38.0966 723.746 37.7216C724.34 37.3466 725.032 37.1591 725.82 37.1591C726.607 37.1591 727.297 37.3466 727.888 37.7216C728.482 38.0966 728.945 38.6231 729.274 39.3011C729.607 39.9792 729.774 40.7727 729.774 41.6818C729.774 42.5833 729.607 43.3712 729.274 44.0455C728.945 44.7197 728.482 45.2443 727.888 45.6193C727.297 45.9943 726.607 46.1818 725.82 46.1818ZM725.82 44.9773C726.418 44.9773 726.911 44.8239 727.297 44.517C727.683 44.2102 727.969 43.8068 728.155 43.3068C728.34 42.8068 728.433 42.2652 728.433 41.6818C728.433 41.0985 728.34 40.5549 728.155 40.0511C727.969 39.5473 727.683 39.1402 727.297 38.8295C726.911 38.5189 726.418 38.3636 725.82 38.3636C725.221 38.3636 724.729 38.5189 724.342 38.8295C723.956 39.1402 723.67 39.5473 723.484 40.0511C723.299 40.5549 723.206 41.0985 723.206 41.6818C723.206 42.2652 723.299 42.8068 723.484 43.3068C723.67 43.8068 723.956 44.2102 724.342 44.517C724.729 44.8239 725.221 44.9773 725.82 44.9773ZM731.821 46V37.2727H733.116V38.5909H733.207C733.366 38.1591 733.654 37.8087 734.071 37.5398C734.488 37.2708 734.957 37.1364 735.48 37.1364C735.579 37.1364 735.702 37.1383 735.849 37.142C735.997 37.1458 736.109 37.1515 736.185 37.1591V38.5227C736.139 38.5114 736.035 38.4943 735.872 38.4716C735.713 38.4451 735.545 38.4318 735.366 38.4318C734.942 38.4318 734.563 38.5208 734.23 38.6989C733.901 38.8731 733.639 39.1155 733.446 39.4261C733.257 39.733 733.162 40.0833 733.162 40.4773V46H731.821ZM742.274 46V37.2727H743.615V46H742.274ZM742.956 35.8182C742.695 35.8182 742.469 35.7292 742.28 35.5511C742.094 35.3731 742.001 35.1591 742.001 34.9091C742.001 34.6591 742.094 34.4451 742.28 34.267C742.469 34.089 742.695 34 742.956 34C743.217 34 743.441 34.089 743.626 34.267C743.816 34.4451 743.911 34.6591 743.911 34.9091C743.911 35.1591 743.816 35.3731 743.626 35.5511C743.441 35.7292 743.217 35.8182 742.956 35.8182ZM747.412 40.75V46H746.071V37.2727H747.366V38.6364H747.48C747.685 38.1932 747.995 37.8371 748.412 37.5682C748.829 37.2955 749.366 37.1591 750.026 37.1591C750.616 37.1591 751.134 37.2803 751.577 37.5227C752.02 37.7614 752.365 38.125 752.611 38.6136C752.857 39.0985 752.98 39.7121 752.98 40.4545V46H751.639V40.5455C751.639 39.8598 751.461 39.3258 751.105 38.9432C750.749 38.5568 750.26 38.3636 749.639 38.3636C749.211 38.3636 748.829 38.4564 748.491 38.642C748.158 38.8277 747.895 39.0985 747.702 39.4545C747.509 39.8106 747.412 40.2424 747.412 40.75ZM763.726 37.2727V38.4091H759.203V37.2727H763.726ZM760.521 35.1818H761.862V43.5C761.862 43.8788 761.917 44.1629 762.027 44.3523C762.141 44.5379 762.285 44.6629 762.459 44.7273C762.637 44.7879 762.824 44.8182 763.021 44.8182C763.169 44.8182 763.29 44.8106 763.385 44.7955C763.48 44.7765 763.555 44.7614 763.612 44.75L763.885 45.9545C763.794 45.9886 763.667 46.0227 763.504 46.0568C763.341 46.0947 763.135 46.1136 762.885 46.1136C762.506 46.1136 762.135 46.0322 761.771 45.8693C761.411 45.7064 761.112 45.4583 760.874 45.125C760.639 44.7917 760.521 44.3712 760.521 43.8636V35.1818ZM767.271 40.75V46H765.93V34.3636H767.271V38.6364H767.385C767.589 38.1856 767.896 37.8277 768.305 37.5625C768.718 37.2936 769.268 37.1591 769.953 37.1591C770.548 37.1591 771.069 37.2784 771.516 37.517C771.963 37.7519 772.309 38.1136 772.555 38.6023C772.805 39.0871 772.93 39.7045 772.93 40.4545V46H771.589V40.5455C771.589 39.8523 771.41 39.3163 771.05 38.9375C770.694 38.5549 770.199 38.3636 769.567 38.3636C769.127 38.3636 768.733 38.4564 768.385 38.642C768.04 38.8277 767.768 39.0985 767.567 39.4545C767.37 39.8106 767.271 40.2424 767.271 40.75ZM779.043 46.1818C778.202 46.1818 777.476 45.9962 776.866 45.625C776.26 45.25 775.793 44.7273 775.463 44.0568C775.137 43.3826 774.974 42.5985 774.974 41.7045C774.974 40.8106 775.137 40.0227 775.463 39.3409C775.793 38.6553 776.251 38.1212 776.838 37.7386C777.429 37.3523 778.118 37.1591 778.906 37.1591C779.361 37.1591 779.81 37.2348 780.253 37.3864C780.696 37.5379 781.099 37.7841 781.463 38.125C781.827 38.4621 782.116 38.9091 782.332 39.4659C782.548 40.0227 782.656 40.7083 782.656 41.5227V42.0909H775.929V40.9318H781.293C781.293 40.4394 781.194 40 780.997 39.6136C780.804 39.2273 780.527 38.9223 780.168 38.6989C779.812 38.4754 779.391 38.3636 778.906 38.3636C778.372 38.3636 777.91 38.4962 777.52 38.7614C777.134 39.0227 776.836 39.3636 776.628 39.7841C776.42 40.2045 776.315 40.6553 776.315 41.1364V41.9091C776.315 42.5682 776.429 43.1269 776.656 43.5852C776.887 44.0398 777.207 44.3864 777.616 44.625C778.026 44.8598 778.501 44.9773 779.043 44.9773C779.395 44.9773 779.713 44.928 779.997 44.8295C780.285 44.7273 780.533 44.5758 780.741 44.375C780.95 44.1705 781.111 43.9167 781.224 43.6136L782.52 43.9773C782.384 44.4167 782.154 44.803 781.832 45.1364C781.51 45.4659 781.113 45.7235 780.639 45.9091C780.166 46.0909 779.634 46.1818 779.043 46.1818ZM792.741 46.1818C791.923 46.1818 791.219 45.9886 790.628 45.6023C790.037 45.2159 789.582 44.6837 789.264 44.0057C788.946 43.3277 788.787 42.553 788.787 41.6818C788.787 40.7955 788.95 40.0133 789.276 39.3352C789.605 38.6534 790.063 38.1212 790.651 37.7386C791.241 37.3523 791.931 37.1591 792.719 37.1591C793.332 37.1591 793.885 37.2727 794.378 37.5C794.87 37.7273 795.274 38.0455 795.588 38.4545C795.902 38.8636 796.098 39.3409 796.173 39.8864H794.832C794.73 39.4886 794.503 39.1364 794.151 38.8295C793.802 38.5189 793.332 38.3636 792.741 38.3636C792.219 38.3636 791.76 38.5 791.366 38.7727C790.976 39.0417 790.671 39.4223 790.452 39.9148C790.236 40.4034 790.128 40.9773 790.128 41.6364C790.128 42.3106 790.234 42.8977 790.446 43.3977C790.662 43.8977 790.965 44.286 791.355 44.5625C791.749 44.839 792.211 44.9773 792.741 44.9773C793.09 44.9773 793.406 44.9167 793.69 44.7955C793.974 44.6742 794.215 44.5 794.412 44.2727C794.609 44.0455 794.749 43.7727 794.832 43.4545H796.173C796.098 43.9697 795.91 44.4337 795.611 44.8466C795.315 45.2557 794.923 45.5814 794.435 45.8239C793.95 46.0625 793.385 46.1818 792.741 46.1818ZM801.679 46.1818C800.891 46.1818 800.2 45.9943 799.605 45.6193C799.014 45.2443 798.552 44.7197 798.219 44.0455C797.889 43.3712 797.724 42.5833 797.724 41.6818C797.724 40.7727 797.889 39.9792 798.219 39.3011C798.552 38.6231 799.014 38.0966 799.605 37.7216C800.2 37.3466 800.891 37.1591 801.679 37.1591C802.467 37.1591 803.156 37.3466 803.747 37.7216C804.342 38.0966 804.804 38.6231 805.134 39.3011C805.467 39.9792 805.634 40.7727 805.634 41.6818C805.634 42.5833 805.467 43.3712 805.134 44.0455C804.804 44.7197 804.342 45.2443 803.747 45.6193C803.156 45.9943 802.467 46.1818 801.679 46.1818ZM801.679 44.9773C802.277 44.9773 802.77 44.8239 803.156 44.517C803.543 44.2102 803.829 43.8068 804.014 43.3068C804.2 42.8068 804.293 42.2652 804.293 41.6818C804.293 41.0985 804.2 40.5549 804.014 40.0511C803.829 39.5473 803.543 39.1402 803.156 38.8295C802.77 38.5189 802.277 38.3636 801.679 38.3636C801.08 38.3636 800.588 38.5189 800.202 38.8295C799.815 39.1402 799.529 39.5473 799.344 40.0511C799.158 40.5549 799.065 41.0985 799.065 41.6818C799.065 42.2652 799.158 42.8068 799.344 43.3068C799.529 43.8068 799.815 44.2102 800.202 44.517C800.588 44.8239 801.08 44.9773 801.679 44.9773ZM807.68 46V37.2727H808.976V38.6364H809.089C809.271 38.1705 809.565 37.8087 809.97 37.5511C810.375 37.2898 810.862 37.1591 811.43 37.1591C812.006 37.1591 812.485 37.2898 812.868 37.5511C813.254 37.8087 813.555 38.1705 813.771 38.6364H813.862C814.086 38.1856 814.421 37.8277 814.868 37.5625C815.315 37.2936 815.851 37.1591 816.476 37.1591C817.256 37.1591 817.894 37.4034 818.391 37.892C818.887 38.3769 819.135 39.1326 819.135 40.1591V46H817.794V40.1591C817.794 39.5152 817.618 39.0549 817.266 38.7784C816.913 38.5019 816.499 38.3636 816.021 38.3636C815.408 38.3636 814.932 38.5492 814.595 38.9205C814.258 39.2879 814.089 39.7538 814.089 40.3182V46H812.726V40.0227C812.726 39.5265 812.565 39.1269 812.243 38.8239C811.921 38.517 811.506 38.3636 810.999 38.3636C810.65 38.3636 810.324 38.4564 810.021 38.642C809.722 38.8277 809.48 39.0852 809.294 39.4148C809.112 39.7405 809.021 40.1174 809.021 40.5455V46H807.68ZM821.768 46V34.3636H823.109V38.6591H823.223C823.321 38.5076 823.458 38.3144 823.632 38.0795C823.81 37.8409 824.064 37.6288 824.393 37.4432C824.727 37.2538 825.178 37.1591 825.746 37.1591C826.481 37.1591 827.128 37.3428 827.689 37.7102C828.25 38.0777 828.687 38.5985 829.001 39.2727C829.316 39.947 829.473 40.7424 829.473 41.6591C829.473 42.5833 829.316 43.3845 829.001 44.0625C828.687 44.7367 828.251 45.2595 827.695 45.6307C827.138 45.9981 826.496 46.1818 825.768 46.1818C825.208 46.1818 824.759 46.089 824.422 45.9034C824.085 45.714 823.825 45.5 823.643 45.2614C823.462 45.0189 823.321 44.8182 823.223 44.6591H823.064V46H821.768ZM823.087 41.6364C823.087 42.2955 823.183 42.8769 823.376 43.3807C823.57 43.8807 823.852 44.2727 824.223 44.5568C824.594 44.8371 825.049 44.9773 825.587 44.9773C826.147 44.9773 826.615 44.8295 826.99 44.5341C827.369 44.2348 827.653 43.8333 827.842 43.3295C828.036 42.822 828.132 42.2576 828.132 41.6364C828.132 41.0227 828.037 40.4697 827.848 39.9773C827.662 39.4811 827.38 39.089 827.001 38.8011C826.626 38.5095 826.155 38.3636 825.587 38.3636C825.041 38.3636 824.583 38.5019 824.212 38.7784C823.84 39.0511 823.56 39.4337 823.371 39.9261C823.181 40.4148 823.087 40.9848 823.087 41.6364ZM835.07 46.1818C834.282 46.1818 833.59 45.9943 832.996 45.6193C832.405 45.2443 831.943 44.7197 831.609 44.0455C831.28 43.3712 831.115 42.5833 831.115 41.6818C831.115 40.7727 831.28 39.9792 831.609 39.3011C831.943 38.6231 832.405 38.0966 832.996 37.7216C833.59 37.3466 834.282 37.1591 835.07 37.1591C835.857 37.1591 836.547 37.3466 837.138 37.7216C837.732 38.0966 838.195 38.6231 838.524 39.3011C838.857 39.9792 839.024 40.7727 839.024 41.6818C839.024 42.5833 838.857 43.3712 838.524 44.0455C838.195 44.7197 837.732 45.2443 837.138 45.6193C836.547 45.9943 835.857 46.1818 835.07 46.1818ZM835.07 44.9773C835.668 44.9773 836.161 44.8239 836.547 44.517C836.933 44.2102 837.219 43.8068 837.405 43.3068C837.59 42.8068 837.683 42.2652 837.683 41.6818C837.683 41.0985 837.59 40.5549 837.405 40.0511C837.219 39.5473 836.933 39.1402 836.547 38.8295C836.161 38.5189 835.668 38.3636 835.07 38.3636C834.471 38.3636 833.979 38.5189 833.592 38.8295C833.206 39.1402 832.92 39.5473 832.734 40.0511C832.549 40.5549 832.456 41.0985 832.456 41.6818C832.456 42.2652 832.549 42.8068 832.734 43.3068C832.92 43.8068 833.206 44.2102 833.592 44.517C833.979 44.8239 834.471 44.9773 835.07 44.9773ZM845.753 46V34.3636H847.094V38.6591H847.207C847.306 38.5076 847.442 38.3144 847.616 38.0795C847.795 37.8409 848.048 37.6288 848.378 37.4432C848.711 37.2538 849.162 37.1591 849.73 37.1591C850.465 37.1591 851.113 37.3428 851.673 37.7102C852.234 38.0777 852.671 38.5985 852.986 39.2727C853.3 39.947 853.457 40.7424 853.457 41.6591C853.457 42.5833 853.3 43.3845 852.986 44.0625C852.671 44.7367 852.236 45.2595 851.679 45.6307C851.122 45.9981 850.48 46.1818 849.753 46.1818C849.192 46.1818 848.743 46.089 848.406 45.9034C848.069 45.714 847.81 45.5 847.628 45.2614C847.446 45.0189 847.306 44.8182 847.207 44.6591H847.048V46H845.753ZM847.071 41.6364C847.071 42.2955 847.168 42.8769 847.361 43.3807C847.554 43.8807 847.836 44.2727 848.207 44.5568C848.579 44.8371 849.033 44.9773 849.571 44.9773C850.132 44.9773 850.599 44.8295 850.974 44.5341C851.353 44.2348 851.637 43.8333 851.827 43.3295C852.02 42.822 852.116 42.2576 852.116 41.6364C852.116 41.0227 852.022 40.4697 851.832 39.9773C851.647 39.4811 851.365 39.089 850.986 38.8011C850.611 38.5095 850.139 38.3636 849.571 38.3636C849.026 38.3636 848.567 38.5019 848.196 38.7784C847.825 39.0511 847.545 39.4337 847.355 39.9261C847.166 40.4148 847.071 40.9848 847.071 41.6364ZM859.054 46.1818C858.266 46.1818 857.575 45.9943 856.98 45.6193C856.389 45.2443 855.927 44.7197 855.594 44.0455C855.264 43.3712 855.099 42.5833 855.099 41.6818C855.099 40.7727 855.264 39.9792 855.594 39.3011C855.927 38.6231 856.389 38.0966 856.98 37.7216C857.575 37.3466 858.266 37.1591 859.054 37.1591C859.842 37.1591 860.531 37.3466 861.122 37.7216C861.717 38.0966 862.179 38.6231 862.509 39.3011C862.842 39.9792 863.009 40.7727 863.009 41.6818C863.009 42.5833 862.842 43.3712 862.509 44.0455C862.179 44.7197 861.717 45.2443 861.122 45.6193C860.531 45.9943 859.842 46.1818 859.054 46.1818ZM859.054 44.9773C859.652 44.9773 860.145 44.8239 860.531 44.517C860.918 44.2102 861.204 43.8068 861.389 43.3068C861.575 42.8068 861.668 42.2652 861.668 41.6818C861.668 41.0985 861.575 40.5549 861.389 40.0511C861.204 39.5473 860.918 39.1402 860.531 38.8295C860.145 38.5189 859.652 38.3636 859.054 38.3636C858.455 38.3636 857.963 38.5189 857.577 38.8295C857.19 39.1402 856.904 39.5473 856.719 40.0511C856.533 40.5549 856.44 41.0985 856.44 41.6818C856.44 42.2652 856.533 42.8068 856.719 43.3068C856.904 43.8068 857.19 44.2102 857.577 44.517C857.963 44.8239 858.455 44.9773 859.054 44.9773ZM865.696 37.2727L867.787 40.8409L869.878 37.2727H871.423L868.605 41.6364L871.423 46H869.878L867.787 42.6136L865.696 46H864.151L866.923 41.6364L864.151 37.2727H865.696ZM881.632 37.2727V38.4091H877.109V37.2727H881.632ZM878.428 35.1818H879.768V43.5C879.768 43.8788 879.823 44.1629 879.933 44.3523C880.047 44.5379 880.191 44.6629 880.365 44.7273C880.543 44.7879 880.731 44.8182 880.928 44.8182C881.075 44.8182 881.196 44.8106 881.291 44.7955C881.386 44.7765 881.462 44.7614 881.518 44.75L881.791 45.9545C881.7 45.9886 881.573 46.0227 881.411 46.0568C881.248 46.0947 881.041 46.1136 880.791 46.1136C880.412 46.1136 880.041 46.0322 879.678 45.8693C879.318 45.7064 879.018 45.4583 878.78 45.125C878.545 44.7917 878.428 44.3712 878.428 43.8636V35.1818ZM887.214 46.1818C886.374 46.1818 885.648 45.9962 885.038 45.625C884.432 45.25 883.964 44.7273 883.635 44.0568C883.309 43.3826 883.146 42.5985 883.146 41.7045C883.146 40.8106 883.309 40.0227 883.635 39.3409C883.964 38.6553 884.423 38.1212 885.01 37.7386C885.601 37.3523 886.29 37.1591 887.078 37.1591C887.533 37.1591 887.982 37.2348 888.425 37.3864C888.868 37.5379 889.271 37.7841 889.635 38.125C889.999 38.4621 890.288 38.9091 890.504 39.4659C890.72 40.0227 890.828 40.7083 890.828 41.5227V42.0909H884.101V40.9318H889.464C889.464 40.4394 889.366 40 889.169 39.6136C888.976 39.2273 888.699 38.9223 888.339 38.6989C887.983 38.4754 887.563 38.3636 887.078 38.3636C886.544 38.3636 886.082 38.4962 885.692 38.7614C885.305 39.0227 885.008 39.3636 884.8 39.7841C884.591 40.2045 884.487 40.6553 884.487 41.1364V41.9091C884.487 42.5682 884.601 43.1269 884.828 43.5852C885.059 44.0398 885.379 44.3864 885.788 44.625C886.197 44.8598 886.673 44.9773 887.214 44.9773C887.567 44.9773 887.885 44.928 888.169 44.8295C888.457 44.7273 888.705 44.5758 888.913 44.375C889.122 44.1705 889.283 43.9167 889.396 43.6136L890.692 43.9773C890.555 44.4167 890.326 44.803 890.004 45.1364C889.682 45.4659 889.285 45.7235 888.811 45.9091C888.338 46.0909 887.805 46.1818 887.214 46.1818ZM893.634 37.2727L895.724 40.8409L897.815 37.2727H899.361L896.543 41.6364L899.361 46H897.815L895.724 42.6136L893.634 46H892.088L894.861 41.6364L892.088 37.2727H893.634ZM905.07 37.2727V38.4091H900.547V37.2727H905.07ZM901.865 35.1818H903.206V43.5C903.206 43.8788 903.261 44.1629 903.371 44.3523C903.484 44.5379 903.628 44.6629 903.803 44.7273C903.981 44.7879 904.168 44.8182 904.365 44.8182C904.513 44.8182 904.634 44.8106 904.729 44.7955C904.823 44.7765 904.899 44.7614 904.956 44.75L905.229 45.9545C905.138 45.9886 905.011 46.0227 904.848 46.0568C904.685 46.0947 904.479 46.1136 904.229 46.1136C903.85 46.1136 903.479 46.0322 903.115 45.8693C902.755 45.7064 902.456 45.4583 902.217 45.125C901.982 44.7917 901.865 44.3712 901.865 43.8636V35.1818ZM915.473 37.2727V38.4091H910.768V37.2727H915.473ZM912.178 46V36.0682C912.178 35.5682 912.295 35.1515 912.53 34.8182C912.765 34.4848 913.07 34.2348 913.445 34.0682C913.82 33.9015 914.215 33.8182 914.632 33.8182C914.962 33.8182 915.231 33.8447 915.439 33.8977C915.647 33.9508 915.803 34 915.905 34.0455L915.518 35.2045C915.45 35.1818 915.356 35.1534 915.234 35.1193C915.117 35.0852 914.962 35.0682 914.768 35.0682C914.325 35.0682 914.005 35.1799 913.808 35.4034C913.615 35.6269 913.518 35.9545 913.518 36.3864V46H912.178ZM917.352 46V37.2727H918.693V46H917.352ZM918.034 35.8182C917.773 35.8182 917.547 35.7292 917.358 35.5511C917.172 35.3731 917.08 35.1591 917.08 34.9091C917.08 34.6591 917.172 34.4451 917.358 34.267C917.547 34.089 917.773 34 918.034 34C918.295 34 918.519 34.089 918.705 34.267C918.894 34.4451 918.989 34.6591 918.989 34.9091C918.989 35.1591 918.894 35.3731 918.705 35.5511C918.519 35.7292 918.295 35.8182 918.034 35.8182ZM924.808 46.1818C923.967 46.1818 923.242 45.9962 922.632 45.625C922.026 45.25 921.558 44.7273 921.229 44.0568C920.903 43.3826 920.74 42.5985 920.74 41.7045C920.74 40.8106 920.903 40.0227 921.229 39.3409C921.558 38.6553 922.017 38.1212 922.604 37.7386C923.195 37.3523 923.884 37.1591 924.672 37.1591C925.126 37.1591 925.575 37.2348 926.018 37.3864C926.462 37.5379 926.865 37.7841 927.229 38.125C927.592 38.4621 927.882 38.9091 928.098 39.4659C928.314 40.0227 928.422 40.7083 928.422 41.5227V42.0909H921.695V40.9318H927.058C927.058 40.4394 926.96 40 926.763 39.6136C926.57 39.2273 926.293 38.9223 925.933 38.6989C925.577 38.4754 925.157 38.3636 924.672 38.3636C924.138 38.3636 923.676 38.4962 923.286 38.7614C922.899 39.0227 922.602 39.3636 922.393 39.7841C922.185 40.2045 922.081 40.6553 922.081 41.1364V41.9091C922.081 42.5682 922.195 43.1269 922.422 43.5852C922.653 44.0398 922.973 44.3864 923.382 44.625C923.791 44.8598 924.267 44.9773 924.808 44.9773C925.161 44.9773 925.479 44.928 925.763 44.8295C926.051 44.7273 926.299 44.5758 926.507 44.375C926.715 44.1705 926.876 43.9167 926.99 43.6136L928.286 43.9773C928.149 44.4167 927.92 44.803 927.598 45.1364C927.276 45.4659 926.878 45.7235 926.405 45.9091C925.931 46.0909 925.399 46.1818 924.808 46.1818ZM931.803 34.3636V46H930.462V34.3636H931.803ZM937.554 46.1818C936.827 46.1818 936.185 45.9981 935.628 45.6307C935.071 45.2595 934.635 44.7367 934.321 44.0625C934.007 43.3845 933.849 42.5833 933.849 41.6591C933.849 40.7424 934.007 39.947 934.321 39.2727C934.635 38.5985 935.073 38.0777 935.634 37.7102C936.194 37.3428 936.842 37.1591 937.577 37.1591C938.145 37.1591 938.594 37.2538 938.923 37.4432C939.257 37.6288 939.51 37.8409 939.685 38.0795C939.863 38.3144 940.001 38.5076 940.099 38.6591H940.213V34.3636H941.554V46H940.259V44.6591H940.099C940.001 44.8182 939.861 45.0189 939.679 45.2614C939.497 45.5 939.238 45.714 938.901 45.9034C938.563 46.089 938.115 46.1818 937.554 46.1818ZM937.736 44.9773C938.274 44.9773 938.728 44.8371 939.099 44.5568C939.471 44.2727 939.753 43.8807 939.946 43.3807C940.139 42.8769 940.236 42.2955 940.236 41.6364C940.236 40.9848 940.141 40.4148 939.952 39.9261C939.762 39.4337 939.482 39.0511 939.111 38.7784C938.74 38.5019 938.281 38.3636 937.736 38.3636C937.168 38.3636 936.694 38.5095 936.315 38.8011C935.94 39.089 935.658 39.4811 935.469 39.9773C935.283 40.4697 935.19 41.0227 935.19 41.6364C935.19 42.2576 935.285 42.822 935.474 43.3295C935.668 43.8333 935.952 44.2348 936.327 44.5341C936.705 44.8295 937.175 44.9773 937.736 44.9773Z" fill="white" fill-opacity="0.95"/>
</svg>
