<svg width="1150" height="104" viewBox="0 0 1150 104" fill="none" xmlns="http://www.w3.org/2000/svg">
<mask id="path-1-inside-1_1273_55066" fill="white">
<path d="M0 0H575V104H0V0Z"/>
</mask>
<path d="M0 0H575V104H0V0Z" fill="#1A1A1A"/>
<path d="M575 104V105H576V104H575ZM574 0V104H576V0H574ZM575 103H0V105H575V103Z" fill="#707070" mask="url(#path-1-inside-1_1273_55066)"/>
<rect x="30" y="36" width="67" height="32" rx="4" fill="#262626"/>
<path d="M45.3239 49.7102C45.2784 49.2519 45.0833 48.8958 44.7386 48.642C44.3939 48.3883 43.9261 48.2614 43.3352 48.2614C42.9337 48.2614 42.5947 48.3182 42.3182 48.4318C42.0417 48.5417 41.8295 48.6951 41.6818 48.892C41.5379 49.089 41.4659 49.3125 41.4659 49.5625C41.4583 49.7708 41.5019 49.9527 41.5966 50.108C41.6951 50.2633 41.8295 50.3977 42 50.5114C42.1705 50.6212 42.3674 50.7178 42.5909 50.8011C42.8144 50.8807 43.053 50.9489 43.3068 51.0057L44.3523 51.2557C44.8598 51.3693 45.3258 51.5208 45.75 51.7102C46.1742 51.8996 46.5417 52.1326 46.8523 52.4091C47.1629 52.6856 47.4034 53.0114 47.5739 53.3864C47.7481 53.7614 47.8371 54.1913 47.8409 54.6761C47.8371 55.3883 47.6553 56.0057 47.2955 56.5284C46.9394 57.0473 46.4242 57.4508 45.75 57.7386C45.0795 58.0227 44.2708 58.1648 43.3239 58.1648C42.3845 58.1648 41.5663 58.0208 40.8693 57.733C40.1761 57.4451 39.6345 57.0189 39.2443 56.4545C38.858 55.8864 38.6553 55.1837 38.6364 54.3466H41.017C41.0436 54.7367 41.1553 55.0625 41.3523 55.3239C41.553 55.5814 41.8201 55.7765 42.1534 55.9091C42.4905 56.0379 42.8712 56.1023 43.2955 56.1023C43.7121 56.1023 44.0739 56.0417 44.3807 55.9205C44.6913 55.7992 44.9318 55.6307 45.1023 55.4148C45.2727 55.1989 45.358 54.9508 45.358 54.6705C45.358 54.4091 45.2803 54.1894 45.125 54.0114C44.9735 53.8333 44.75 53.6818 44.4545 53.5568C44.1629 53.4318 43.8049 53.3182 43.3807 53.2159L42.1136 52.8977C41.1326 52.6591 40.358 52.286 39.7898 51.7784C39.2216 51.2708 38.9394 50.5871 38.9432 49.7273C38.9394 49.0227 39.1269 48.4072 39.5057 47.8807C39.8883 47.3542 40.4129 46.9432 41.0795 46.6477C41.7462 46.3523 42.5038 46.2045 43.3523 46.2045C44.2159 46.2045 44.9697 46.3523 45.6136 46.6477C46.2614 46.9432 46.7652 47.3542 47.125 47.8807C47.4848 48.4072 47.6705 49.017 47.6818 49.7102H45.3239ZM49.7703 61.2727V49.2727H52.1566V50.7386H52.2646C52.3707 50.5038 52.5241 50.2652 52.7248 50.0227C52.9294 49.7765 53.1945 49.572 53.5203 49.4091C53.8498 49.2424 54.2589 49.1591 54.7476 49.1591C55.3839 49.1591 55.971 49.3258 56.5089 49.6591C57.0468 49.9886 57.4767 50.4867 57.7987 51.1534C58.1207 51.8163 58.2816 52.6477 58.2816 53.6477C58.2816 54.6212 58.1245 55.4432 57.8101 56.1136C57.4995 56.7803 57.0752 57.286 56.5373 57.6307C56.0032 57.9716 55.4048 58.142 54.7419 58.142C54.2722 58.142 53.8726 58.0644 53.543 57.9091C53.2173 57.7538 52.9502 57.5587 52.7419 57.3239C52.5335 57.0852 52.3745 56.8447 52.2646 56.6023H52.1907V61.2727H49.7703ZM52.1396 53.6364C52.1396 54.1553 52.2116 54.608 52.3555 54.9943C52.4995 55.3807 52.7078 55.6818 52.9805 55.8977C53.2532 56.1098 53.5847 56.2159 53.9748 56.2159C54.3688 56.2159 54.7021 56.108 54.9748 55.892C55.2476 55.6723 55.454 55.3693 55.5941 54.983C55.7381 54.5928 55.8101 54.1439 55.8101 53.6364C55.8101 53.1326 55.74 52.6894 55.5998 52.3068C55.4597 51.9242 55.2532 51.625 54.9805 51.4091C54.7078 51.1932 54.3726 51.0852 53.9748 51.0852C53.5809 51.0852 53.2476 51.1894 52.9748 51.3977C52.7059 51.6061 52.4995 51.9015 52.3555 52.2841C52.2116 52.6667 52.1396 53.1174 52.1396 53.6364ZM62.7039 58.1648C62.1471 58.1648 61.6509 58.0682 61.2153 57.875C60.7797 57.678 60.435 57.3883 60.1812 57.0057C59.9312 56.6193 59.8062 56.1383 59.8062 55.5625C59.8062 55.0777 59.8952 54.6705 60.0732 54.3409C60.2513 54.0114 60.4937 53.7462 60.8005 53.5455C61.1073 53.3447 61.4558 53.1932 61.846 53.0909C62.2399 52.9886 62.6528 52.9167 63.0846 52.875C63.5922 52.822 64.0013 52.7727 64.3119 52.7273C64.6225 52.678 64.8479 52.6061 64.988 52.5114C65.1282 52.4167 65.1982 52.2765 65.1982 52.0909V52.0568C65.1982 51.697 65.0846 51.4186 64.8573 51.2216C64.6338 51.0246 64.3157 50.9261 63.9028 50.9261C63.4672 50.9261 63.1206 51.0227 62.863 51.2159C62.6054 51.4053 62.435 51.6439 62.3516 51.9318L60.113 51.75C60.2266 51.2197 60.4501 50.7614 60.7835 50.375C61.1168 49.9848 61.5467 49.6856 62.0732 49.4773C62.6035 49.2652 63.2172 49.1591 63.9141 49.1591C64.399 49.1591 64.863 49.2159 65.3062 49.3295C65.7532 49.4432 66.149 49.6193 66.4937 49.858C66.8422 50.0966 67.1168 50.4034 67.3176 50.7784C67.5183 51.1496 67.6187 51.5947 67.6187 52.1136V58H65.3232V56.7898H65.2551C65.1149 57.0625 64.9274 57.303 64.6926 57.5114C64.4577 57.7159 64.1755 57.8769 63.846 57.9943C63.5164 58.108 63.1357 58.1648 62.7039 58.1648ZM63.3971 56.4943C63.7532 56.4943 64.0676 56.4242 64.3403 56.2841C64.613 56.1402 64.827 55.947 64.9823 55.7045C65.1376 55.4621 65.2153 55.1875 65.2153 54.8807V53.9545C65.1395 54.0038 65.0354 54.0492 64.9028 54.0909C64.774 54.1288 64.6282 54.1648 64.4653 54.1989C64.3024 54.2292 64.1395 54.2576 63.9766 54.2841C63.8138 54.3068 63.666 54.3277 63.5335 54.3466C63.2494 54.3883 63.0013 54.4545 62.7891 54.5455C62.577 54.6364 62.4123 54.7595 62.2948 54.9148C62.1774 55.0663 62.1187 55.2557 62.1187 55.483C62.1187 55.8125 62.238 56.0644 62.4766 56.2386C62.7191 56.4091 63.0259 56.4943 63.3971 56.4943ZM73.7597 58.1705C72.8658 58.1705 72.0968 57.9811 71.4529 57.6023C70.8127 57.2197 70.3203 56.6894 69.9756 56.0114C69.6347 55.3333 69.4643 54.553 69.4643 53.6705C69.4643 52.7765 69.6366 51.9924 69.9813 51.3182C70.3298 50.6402 70.8241 50.1117 71.4643 49.733C72.1044 49.3504 72.8658 49.1591 73.7484 49.1591C74.5097 49.1591 75.1764 49.2973 75.7484 49.5739C76.3203 49.8504 76.773 50.2386 77.1063 50.7386C77.4396 51.2386 77.6234 51.8258 77.6574 52.5H75.3734C75.309 52.0644 75.1385 51.714 74.862 51.4489C74.5893 51.1799 74.2313 51.0455 73.7881 51.0455C73.4131 51.0455 73.0855 51.1477 72.8052 51.3523C72.5287 51.553 72.3127 51.8466 72.1574 52.233C72.0021 52.6193 71.9245 53.0871 71.9245 53.6364C71.9245 54.1932 72.0002 54.6667 72.1518 55.0568C72.3071 55.447 72.5249 55.7443 72.8052 55.9489C73.0855 56.1534 73.4131 56.2557 73.7881 56.2557C74.0646 56.2557 74.3127 56.1989 74.5324 56.0852C74.7559 55.9716 74.9396 55.8068 75.0836 55.5909C75.2313 55.3712 75.3279 55.108 75.3734 54.8011H77.6574C77.6196 55.4678 77.4377 56.0549 77.112 56.5625C76.79 57.0663 76.3449 57.4602 75.7768 57.7443C75.2086 58.0284 74.5362 58.1705 73.7597 58.1705ZM83.5044 58.1705C82.6067 58.1705 81.834 57.9886 81.1862 57.625C80.5423 57.2576 80.0461 56.7386 79.6976 56.0682C79.3491 55.3939 79.1749 54.5966 79.1749 53.6761C79.1749 52.7784 79.3491 51.9905 79.6976 51.3125C80.0461 50.6345 80.5366 50.1061 81.1692 49.7273C81.8056 49.3485 82.5518 49.1591 83.4078 49.1591C83.9836 49.1591 84.5196 49.2519 85.0158 49.4375C85.5158 49.6193 85.9514 49.8939 86.3226 50.2614C86.6976 50.6288 86.9893 51.0909 87.1976 51.6477C87.4059 52.2008 87.5101 52.8485 87.5101 53.5909V54.2557H80.1408V52.7557H85.2317C85.2317 52.4072 85.1559 52.0985 85.0044 51.8295C84.8529 51.5606 84.6427 51.3504 84.3737 51.1989C84.1086 51.0436 83.7999 50.9659 83.4476 50.9659C83.0802 50.9659 82.7544 51.0511 82.4703 51.2216C82.19 51.3883 81.9703 51.6136 81.8112 51.8977C81.6522 52.178 81.5707 52.4905 81.5669 52.8352V54.2614C81.5669 54.6932 81.6465 55.0663 81.8056 55.3807C81.9684 55.6951 82.1976 55.9375 82.4931 56.108C82.7885 56.2784 83.1389 56.3636 83.5442 56.3636C83.8131 56.3636 84.0594 56.3258 84.2828 56.25C84.5063 56.1742 84.6976 56.0606 84.8567 55.9091C85.0158 55.7576 85.137 55.572 85.2203 55.3523L87.459 55.5C87.3453 56.0379 87.1124 56.5076 86.7601 56.9091C86.4116 57.3068 85.9609 57.6174 85.4078 57.8409C84.8586 58.0606 84.2241 58.1705 83.5044 58.1705Z" fill="white" fill-opacity="0.7"/>
<mask id="path-5-inside-2_1273_55066" fill="white">
<path d="M575 0H1150V104H575V0Z"/>
</mask>
<path d="M575 0H1150V104H575V0Z" fill="#1A1A1A"/>
<path d="M1150 103H575V105H1150V103Z" fill="#707070" mask="url(#path-5-inside-2_1273_55066)"/>
<path d="M617 31.8636C616.542 31.8636 616.123 31.7519 615.744 31.5284C615.366 31.3011 615.063 30.9981 614.835 30.6193C614.612 30.2405 614.5 29.822 614.5 29.3636C614.5 28.9015 614.612 28.483 614.835 28.108C615.063 27.7292 615.366 27.428 615.744 27.2045C616.123 26.9773 616.542 26.8636 617 26.8636C617.462 26.8636 617.881 26.9773 618.256 27.2045C618.634 27.428 618.936 27.7292 619.159 28.108C619.386 28.483 619.5 28.9015 619.5 29.3636C619.5 29.822 619.386 30.2405 619.159 30.6193C618.936 30.9981 618.634 31.3011 618.256 31.5284C617.881 31.7519 617.462 31.8636 617 31.8636ZM636.773 25.2727C636.705 24.697 636.428 24.25 635.943 23.9318C635.458 23.6136 634.864 23.4545 634.159 23.4545C633.644 23.4545 633.193 23.5379 632.807 23.7045C632.424 23.8712 632.125 24.1004 631.909 24.392C631.697 24.6837 631.591 25.0152 631.591 25.3864C631.591 25.697 631.665 25.964 631.812 26.1875C631.964 26.4072 632.157 26.5909 632.392 26.7386C632.627 26.8826 632.873 27.0019 633.131 27.0966C633.388 27.1875 633.625 27.2614 633.841 27.3182L635.023 27.6364C635.326 27.7159 635.663 27.8258 636.034 27.9659C636.409 28.1061 636.767 28.2973 637.108 28.5398C637.453 28.7784 637.737 29.0852 637.96 29.4602C638.184 29.8352 638.295 30.2955 638.295 30.8409C638.295 31.4697 638.131 32.0379 637.801 32.5455C637.475 33.053 636.998 33.4564 636.369 33.7557C635.744 34.0549 634.985 34.2045 634.091 34.2045C633.258 34.2045 632.536 34.0701 631.926 33.8011C631.32 33.5322 630.843 33.1572 630.494 32.6761C630.15 32.1951 629.955 31.6364 629.909 31H631.364C631.402 31.4394 631.549 31.803 631.807 32.0909C632.068 32.375 632.398 32.5871 632.795 32.7273C633.197 32.8636 633.629 32.9318 634.091 32.9318C634.629 32.9318 635.112 32.8447 635.54 32.6705C635.968 32.4924 636.307 32.2462 636.557 31.9318C636.807 31.6136 636.932 31.2424 636.932 30.8182C636.932 30.4318 636.824 30.1174 636.608 29.875C636.392 29.6326 636.108 29.4356 635.756 29.2841C635.403 29.1326 635.023 29 634.614 28.8864L633.182 28.4773C632.273 28.2159 631.553 27.8428 631.023 27.358C630.492 26.8731 630.227 26.2386 630.227 25.4545C630.227 24.803 630.403 24.2348 630.756 23.75C631.112 23.2614 631.589 22.8826 632.188 22.6136C632.79 22.3409 633.462 22.2045 634.205 22.2045C634.955 22.2045 635.621 22.339 636.205 22.608C636.788 22.8731 637.25 23.2367 637.591 23.6989C637.936 24.161 638.117 24.6856 638.136 25.2727H636.773ZM644.089 34.1818C643.249 34.1818 642.523 33.9962 641.913 33.625C641.307 33.25 640.839 32.7273 640.51 32.0568C640.184 31.3826 640.021 30.5985 640.021 29.7045C640.021 28.8106 640.184 28.0227 640.51 27.3409C640.839 26.6553 641.298 26.1212 641.885 25.7386C642.476 25.3523 643.165 25.1591 643.953 25.1591C644.408 25.1591 644.857 25.2348 645.3 25.3864C645.743 25.5379 646.146 25.7841 646.51 26.125C646.874 26.4621 647.163 26.9091 647.379 27.4659C647.595 28.0227 647.703 28.7083 647.703 29.5227V30.0909H640.976V28.9318H646.339C646.339 28.4394 646.241 28 646.044 27.6136C645.851 27.2273 645.574 26.9223 645.214 26.6989C644.858 26.4754 644.438 26.3636 643.953 26.3636C643.419 26.3636 642.957 26.4962 642.567 26.7614C642.18 27.0227 641.883 27.3636 641.675 27.7841C641.466 28.2045 641.362 28.6553 641.362 29.1364V29.9091C641.362 30.5682 641.476 31.1269 641.703 31.5852C641.934 32.0398 642.254 32.3864 642.663 32.625C643.072 32.8598 643.548 32.9773 644.089 32.9773C644.442 32.9773 644.76 32.928 645.044 32.8295C645.332 32.7273 645.58 32.5758 645.788 32.375C645.997 32.1705 646.158 31.9167 646.271 31.6136L647.567 31.9773C647.43 32.4167 647.201 32.803 646.879 33.1364C646.557 33.4659 646.16 33.7235 645.686 33.9091C645.213 34.0909 644.68 34.1818 644.089 34.1818ZM651.084 22.3636V34H649.743V22.3636H651.084ZM657.199 34.1818C656.358 34.1818 655.633 33.9962 655.023 33.625C654.417 33.25 653.949 32.7273 653.619 32.0568C653.294 31.3826 653.131 30.5985 653.131 29.7045C653.131 28.8106 653.294 28.0227 653.619 27.3409C653.949 26.6553 654.407 26.1212 654.994 25.7386C655.585 25.3523 656.275 25.1591 657.062 25.1591C657.517 25.1591 657.966 25.2348 658.409 25.3864C658.852 25.5379 659.256 25.7841 659.619 26.125C659.983 26.4621 660.273 26.9091 660.489 27.4659C660.705 28.0227 660.812 28.7083 660.812 29.5227V30.0909H654.085V28.9318H659.449C659.449 28.4394 659.35 28 659.153 27.6136C658.96 27.2273 658.684 26.9223 658.324 26.6989C657.968 26.4754 657.547 26.3636 657.062 26.3636C656.528 26.3636 656.066 26.4962 655.676 26.7614C655.29 27.0227 654.992 27.3636 654.784 27.7841C654.576 28.2045 654.472 28.6553 654.472 29.1364V29.9091C654.472 30.5682 654.585 31.1269 654.812 31.5852C655.044 32.0398 655.364 32.3864 655.773 32.625C656.182 32.8598 656.657 32.9773 657.199 32.9773C657.551 32.9773 657.869 32.928 658.153 32.8295C658.441 32.7273 658.689 32.5758 658.898 32.375C659.106 32.1705 659.267 31.9167 659.381 31.6136L660.676 31.9773C660.54 32.4167 660.311 32.803 659.989 33.1364C659.667 33.4659 659.269 33.7235 658.795 33.9091C658.322 34.0909 657.79 34.1818 657.199 34.1818ZM666.398 34.1818C665.58 34.1818 664.875 33.9886 664.284 33.6023C663.693 33.2159 663.239 32.6837 662.92 32.0057C662.602 31.3277 662.443 30.553 662.443 29.6818C662.443 28.7955 662.606 28.0133 662.932 27.3352C663.261 26.6534 663.72 26.1212 664.307 25.7386C664.898 25.3523 665.587 25.1591 666.375 25.1591C666.989 25.1591 667.542 25.2727 668.034 25.5C668.527 25.7273 668.93 26.0455 669.244 26.4545C669.559 26.8636 669.754 27.3409 669.83 27.8864H668.489C668.386 27.4886 668.159 27.1364 667.807 26.8295C667.458 26.5189 666.989 26.3636 666.398 26.3636C665.875 26.3636 665.417 26.5 665.023 26.7727C664.633 27.0417 664.328 27.4223 664.108 27.9148C663.892 28.4034 663.784 28.9773 663.784 29.6364C663.784 30.3106 663.89 30.8977 664.102 31.3977C664.318 31.8977 664.621 32.286 665.011 32.5625C665.405 32.839 665.867 32.9773 666.398 32.9773C666.746 32.9773 667.062 32.9167 667.347 32.7955C667.631 32.6742 667.871 32.5 668.068 32.2727C668.265 32.0455 668.405 31.7727 668.489 31.4545H669.83C669.754 31.9697 669.566 32.4337 669.267 32.8466C668.972 33.2557 668.58 33.5814 668.091 33.8239C667.606 34.0625 667.042 34.1818 666.398 34.1818ZM675.585 25.2727V26.4091H671.062V25.2727H675.585ZM672.381 23.1818H673.722V31.5C673.722 31.8788 673.777 32.1629 673.886 32.3523C674 32.5379 674.144 32.6629 674.318 32.7273C674.496 32.7879 674.684 32.8182 674.881 32.8182C675.028 32.8182 675.15 32.8106 675.244 32.7955C675.339 32.7765 675.415 32.7614 675.472 32.75L675.744 33.9545C675.653 33.9886 675.527 34.0227 675.364 34.0568C675.201 34.0947 674.994 34.1136 674.744 34.1136C674.366 34.1136 673.994 34.0322 673.631 33.8693C673.271 33.7064 672.972 33.4583 672.733 33.125C672.498 32.7917 672.381 32.3712 672.381 31.8636V23.1818ZM683.628 27.2273L682.423 27.5682C682.348 27.3674 682.236 27.1723 682.088 26.983C681.944 26.7898 681.747 26.6307 681.497 26.5057C681.247 26.3807 680.927 26.3182 680.537 26.3182C680.003 26.3182 679.558 26.4413 679.202 26.6875C678.849 26.9299 678.673 27.2386 678.673 27.6136C678.673 27.947 678.795 28.2102 679.037 28.4034C679.279 28.5966 679.658 28.7576 680.173 28.8864L681.469 29.2045C682.249 29.3939 682.83 29.6837 683.213 30.0739C683.596 30.4602 683.787 30.9583 683.787 31.5682C683.787 32.0682 683.643 32.5152 683.355 32.9091C683.071 33.303 682.673 33.6136 682.162 33.8409C681.651 34.0682 681.056 34.1818 680.378 34.1818C679.488 34.1818 678.751 33.9886 678.168 33.6023C677.584 33.2159 677.215 32.6515 677.06 31.9091L678.332 31.5909C678.454 32.0606 678.683 32.4129 679.02 32.6477C679.361 32.8826 679.806 33 680.355 33C680.98 33 681.476 32.8674 681.844 32.6023C682.215 32.3333 682.401 32.0114 682.401 31.6364C682.401 31.3333 682.295 31.0795 682.082 30.875C681.87 30.6667 681.545 30.5114 681.105 30.4091L679.651 30.0682C678.851 29.8788 678.264 29.5852 677.889 29.1875C677.518 28.786 677.332 28.2841 677.332 27.6818C677.332 27.1894 677.471 26.7538 677.747 26.375C678.027 25.9962 678.408 25.6989 678.889 25.483C679.374 25.267 679.923 25.1591 680.537 25.1591C681.401 25.1591 682.079 25.3485 682.571 25.7273C683.067 26.1061 683.42 26.6061 683.628 27.2273ZM692.874 34.2045C692.321 34.2045 691.819 34.1004 691.368 33.892C690.917 33.6799 690.559 33.375 690.294 32.9773C690.029 32.5758 689.896 32.0909 689.896 31.5227C689.896 31.0227 689.995 30.6174 690.192 30.3068C690.389 29.9924 690.652 29.7462 690.982 29.5682C691.311 29.3902 691.675 29.2576 692.072 29.1705C692.474 29.0795 692.877 29.0076 693.283 28.9545C693.813 28.8864 694.243 28.8352 694.572 28.8011C694.906 28.7633 695.148 28.7008 695.3 28.6136C695.455 28.5265 695.533 28.375 695.533 28.1591V28.1136C695.533 27.553 695.379 27.1174 695.072 26.8068C694.769 26.4962 694.309 26.3409 693.692 26.3409C693.052 26.3409 692.55 26.4811 692.186 26.7614C691.822 27.0417 691.567 27.3409 691.419 27.6591L690.146 27.2045C690.374 26.6742 690.677 26.2614 691.055 25.9659C691.438 25.6667 691.855 25.4583 692.305 25.3409C692.76 25.2197 693.207 25.1591 693.646 25.1591C693.927 25.1591 694.249 25.1932 694.612 25.2614C694.98 25.3258 695.334 25.4602 695.675 25.6648C696.019 25.8693 696.305 26.178 696.533 26.5909C696.76 27.0038 696.874 27.5568 696.874 28.25V34H695.533V32.8182H695.464C695.374 33.0076 695.222 33.2102 695.01 33.4261C694.798 33.642 694.516 33.8258 694.163 33.9773C693.811 34.1288 693.381 34.2045 692.874 34.2045ZM693.078 33C693.608 33 694.055 32.8958 694.419 32.6875C694.786 32.4792 695.063 32.2102 695.249 31.8807C695.438 31.5511 695.533 31.2045 695.533 30.8409V29.6136C695.476 29.6818 695.351 29.7443 695.158 29.8011C694.968 29.8542 694.749 29.9015 694.499 29.9432C694.252 29.9811 694.012 30.0152 693.777 30.0455C693.546 30.072 693.358 30.0947 693.214 30.1136C692.866 30.1591 692.54 30.233 692.237 30.3352C691.938 30.4337 691.696 30.5833 691.51 30.7841C691.328 30.9811 691.237 31.25 691.237 31.5909C691.237 32.0568 691.41 32.4091 691.754 32.6477C692.103 32.8826 692.544 33 693.078 33ZM703.821 34V25.2727H705.116V26.6364H705.23C705.412 26.1705 705.705 25.8087 706.111 25.5511C706.516 25.2898 707.003 25.1591 707.571 25.1591C708.147 25.1591 708.626 25.2898 709.009 25.5511C709.395 25.8087 709.696 26.1705 709.912 26.6364H710.003C710.226 26.1856 710.562 25.8277 711.009 25.5625C711.455 25.2936 711.991 25.1591 712.616 25.1591C713.397 25.1591 714.035 25.4034 714.531 25.892C715.027 26.3769 715.276 27.1326 715.276 28.1591V34H713.935V28.1591C713.935 27.5152 713.759 27.0549 713.406 26.7784C713.054 26.5019 712.639 26.3636 712.162 26.3636C711.548 26.3636 711.073 26.5492 710.736 26.9205C710.399 27.2879 710.23 27.7538 710.23 28.3182V34H708.866V28.0227C708.866 27.5265 708.705 27.1269 708.384 26.8239C708.062 26.517 707.647 26.3636 707.139 26.3636C706.791 26.3636 706.465 26.4564 706.162 26.642C705.863 26.8277 705.62 27.0852 705.435 27.4148C705.253 27.7405 705.162 28.1174 705.162 28.5455V34H703.821ZM721.386 34.1818C720.545 34.1818 719.82 33.9962 719.21 33.625C718.604 33.25 718.136 32.7273 717.807 32.0568C717.481 31.3826 717.318 30.5985 717.318 29.7045C717.318 28.8106 717.481 28.0227 717.807 27.3409C718.136 26.6553 718.595 26.1212 719.182 25.7386C719.773 25.3523 720.462 25.1591 721.25 25.1591C721.705 25.1591 722.153 25.2348 722.597 25.3864C723.04 25.5379 723.443 25.7841 723.807 26.125C724.17 26.4621 724.46 26.9091 724.676 27.4659C724.892 28.0227 725 28.7083 725 29.5227V30.0909H718.273V28.9318H723.636C723.636 28.4394 723.538 28 723.341 27.6136C723.148 27.2273 722.871 26.9223 722.511 26.6989C722.155 26.4754 721.735 26.3636 721.25 26.3636C720.716 26.3636 720.254 26.4962 719.864 26.7614C719.477 27.0227 719.18 27.3636 718.972 27.7841C718.763 28.2045 718.659 28.6553 718.659 29.1364V29.9091C718.659 30.5682 718.773 31.1269 719 31.5852C719.231 32.0398 719.551 32.3864 719.96 32.625C720.369 32.8598 720.845 32.9773 721.386 32.9773C721.739 32.9773 722.057 32.928 722.341 32.8295C722.629 32.7273 722.877 32.5758 723.085 32.375C723.294 32.1705 723.455 31.9167 723.568 31.6136L724.864 31.9773C724.727 32.4167 724.498 32.803 724.176 33.1364C723.854 33.4659 723.456 33.7235 722.983 33.9091C722.509 34.0909 721.977 34.1818 721.386 34.1818ZM728.381 28.75V34H727.04V25.2727H728.335V26.6364H728.449C728.653 26.1932 728.964 25.8371 729.381 25.5682C729.797 25.2955 730.335 25.1591 730.994 25.1591C731.585 25.1591 732.102 25.2803 732.545 25.5227C732.989 25.7614 733.333 26.125 733.58 26.6136C733.826 27.0985 733.949 27.7121 733.949 28.4545V34H732.608V28.5455C732.608 27.8598 732.43 27.3258 732.074 26.9432C731.718 26.5568 731.229 26.3636 730.608 26.3636C730.18 26.3636 729.797 26.4564 729.46 26.642C729.127 26.8277 728.864 27.0985 728.67 27.4545C728.477 27.8106 728.381 28.2424 728.381 28.75ZM741.899 30.4318V25.2727H743.24V34H741.899V32.5227H741.808C741.604 32.9659 741.286 33.3428 740.854 33.6534C740.422 33.9602 739.876 34.1136 739.217 34.1136C738.672 34.1136 738.187 33.9943 737.763 33.7557C737.339 33.5133 737.005 33.1496 736.763 32.6648C736.52 32.1761 736.399 31.5606 736.399 30.8182V25.2727H737.74V30.7273C737.74 31.3636 737.918 31.8712 738.274 32.25C738.634 32.6288 739.092 32.8182 739.649 32.8182C739.982 32.8182 740.321 32.733 740.666 32.5625C741.015 32.392 741.306 32.1307 741.541 31.7784C741.78 31.4261 741.899 30.9773 741.899 30.4318ZM751.537 22.3636V34H750.196V22.3636H751.537ZM753.993 34V25.2727H755.334V34H753.993ZM754.675 23.8182C754.413 23.8182 754.188 23.7292 753.999 23.5511C753.813 23.3731 753.72 23.1591 753.72 22.9091C753.72 22.6591 753.813 22.4451 753.999 22.267C754.188 22.089 754.413 22 754.675 22C754.936 22 755.16 22.089 755.345 22.267C755.535 22.4451 755.629 22.6591 755.629 22.9091C755.629 23.1591 755.535 23.3731 755.345 23.5511C755.16 23.7292 754.936 23.8182 754.675 23.8182ZM763.972 27.2273L762.767 27.5682C762.691 27.3674 762.58 27.1723 762.432 26.983C762.288 26.7898 762.091 26.6307 761.841 26.5057C761.591 26.3807 761.271 26.3182 760.881 26.3182C760.347 26.3182 759.902 26.4413 759.545 26.6875C759.193 26.9299 759.017 27.2386 759.017 27.6136C759.017 27.947 759.138 28.2102 759.381 28.4034C759.623 28.5966 760.002 28.7576 760.517 28.8864L761.812 29.2045C762.593 29.3939 763.174 29.6837 763.557 30.0739C763.939 30.4602 764.131 30.9583 764.131 31.5682C764.131 32.0682 763.987 32.5152 763.699 32.9091C763.415 33.303 763.017 33.6136 762.506 33.8409C761.994 34.0682 761.4 34.1818 760.722 34.1818C759.831 34.1818 759.095 33.9886 758.511 33.6023C757.928 33.2159 757.559 32.6515 757.403 31.9091L758.676 31.5909C758.797 32.0606 759.027 32.4129 759.364 32.6477C759.705 32.8826 760.15 33 760.699 33C761.324 33 761.82 32.8674 762.188 32.6023C762.559 32.3333 762.744 32.0114 762.744 31.6364C762.744 31.3333 762.638 31.0795 762.426 30.875C762.214 30.6667 761.888 30.5114 761.449 30.4091L759.994 30.0682C759.195 29.8788 758.608 29.5852 758.233 29.1875C757.862 28.786 757.676 28.2841 757.676 27.6818C757.676 27.1894 757.814 26.7538 758.091 26.375C758.371 25.9962 758.752 25.6989 759.233 25.483C759.718 25.267 760.267 25.1591 760.881 25.1591C761.744 25.1591 762.422 25.3485 762.915 25.7273C763.411 26.1061 763.763 26.6061 763.972 27.2273ZM769.945 25.2727V26.4091H765.422V25.2727H769.945ZM766.74 23.1818H768.081V31.5C768.081 31.8788 768.136 32.1629 768.246 32.3523C768.359 32.5379 768.503 32.6629 768.678 32.7273C768.856 32.7879 769.043 32.8182 769.24 32.8182C769.388 32.8182 769.509 32.8106 769.604 32.7955C769.698 32.7765 769.774 32.7614 769.831 32.75L770.104 33.9545C770.013 33.9886 769.886 34.0227 769.723 34.0568C769.56 34.0947 769.354 34.1136 769.104 34.1136C768.725 34.1136 768.354 34.0322 767.99 33.8693C767.63 33.7064 767.331 33.4583 767.092 33.125C766.857 32.7917 766.74 32.3712 766.74 31.8636V23.1818ZM776.462 34V25.2727H777.803V34H776.462ZM777.143 23.8182C776.882 23.8182 776.657 23.7292 776.467 23.5511C776.282 23.3731 776.189 23.1591 776.189 22.9091C776.189 22.6591 776.282 22.4451 776.467 22.267C776.657 22.089 776.882 22 777.143 22C777.405 22 777.628 22.089 777.814 22.267C778.003 22.4451 778.098 22.6591 778.098 22.9091C778.098 23.1591 778.003 23.3731 777.814 23.5511C777.628 23.7292 777.405 23.8182 777.143 23.8182ZM784.054 25.2727V26.4091H779.531V25.2727H784.054ZM780.849 23.1818H782.19V31.5C782.19 31.8788 782.245 32.1629 782.355 32.3523C782.469 32.5379 782.613 32.6629 782.787 32.7273C782.965 32.7879 783.152 32.8182 783.349 32.8182C783.497 32.8182 783.618 32.8106 783.713 32.7955C783.808 32.7765 783.884 32.7614 783.94 32.75L784.213 33.9545C784.122 33.9886 783.995 34.0227 783.832 34.0568C783.67 34.0947 783.463 34.1136 783.213 34.1136C782.834 34.1136 782.463 34.0322 782.099 33.8693C781.74 33.7064 781.44 33.4583 781.202 33.125C780.967 32.7917 780.849 32.3712 780.849 31.8636V23.1818ZM789.636 34.1818C788.795 34.1818 788.07 33.9962 787.46 33.625C786.854 33.25 786.386 32.7273 786.057 32.0568C785.731 31.3826 785.568 30.5985 785.568 29.7045C785.568 28.8106 785.731 28.0227 786.057 27.3409C786.386 26.6553 786.845 26.1212 787.432 25.7386C788.023 25.3523 788.712 25.1591 789.5 25.1591C789.955 25.1591 790.403 25.2348 790.847 25.3864C791.29 25.5379 791.693 25.7841 792.057 26.125C792.42 26.4621 792.71 26.9091 792.926 27.4659C793.142 28.0227 793.25 28.7083 793.25 29.5227V30.0909H786.523V28.9318H791.886C791.886 28.4394 791.788 28 791.591 27.6136C791.398 27.2273 791.121 26.9223 790.761 26.6989C790.405 26.4754 789.985 26.3636 789.5 26.3636C788.966 26.3636 788.504 26.4962 788.114 26.7614C787.727 27.0227 787.43 27.3636 787.222 27.7841C787.013 28.2045 786.909 28.6553 786.909 29.1364V29.9091C786.909 30.5682 787.023 31.1269 787.25 31.5852C787.481 32.0398 787.801 32.3864 788.21 32.625C788.619 32.8598 789.095 32.9773 789.636 32.9773C789.989 32.9773 790.307 32.928 790.591 32.8295C790.879 32.7273 791.127 32.5758 791.335 32.375C791.544 32.1705 791.705 31.9167 791.818 31.6136L793.114 31.9773C792.977 32.4167 792.748 32.803 792.426 33.1364C792.104 33.4659 791.706 33.7235 791.233 33.9091C790.759 34.0909 790.227 34.1818 789.636 34.1818ZM795.29 34V25.2727H796.585V26.6364H796.699C796.881 26.1705 797.174 25.8087 797.58 25.5511C797.985 25.2898 798.472 25.1591 799.04 25.1591C799.616 25.1591 800.095 25.2898 800.477 25.5511C800.864 25.8087 801.165 26.1705 801.381 26.6364H801.472C801.695 26.1856 802.03 25.8277 802.477 25.5625C802.924 25.2936 803.46 25.1591 804.085 25.1591C804.866 25.1591 805.504 25.4034 806 25.892C806.496 26.3769 806.744 27.1326 806.744 28.1591V34H805.403V28.1591C805.403 27.5152 805.227 27.0549 804.875 26.7784C804.523 26.5019 804.108 26.3636 803.631 26.3636C803.017 26.3636 802.542 26.5492 802.205 26.9205C801.867 27.2879 801.699 27.7538 801.699 28.3182V34H800.335V28.0227C800.335 27.5265 800.174 27.1269 799.852 26.8239C799.53 26.517 799.116 26.3636 798.608 26.3636C798.259 26.3636 797.934 26.4564 797.631 26.642C797.331 26.8277 797.089 27.0852 796.903 27.4148C796.722 27.7405 796.631 28.1174 796.631 28.5455V34H795.29ZM816.264 34.2045C815.711 34.2045 815.209 34.1004 814.759 33.892C814.308 33.6799 813.95 33.375 813.685 32.9773C813.42 32.5758 813.287 32.0909 813.287 31.5227C813.287 31.0227 813.385 30.6174 813.582 30.3068C813.779 29.9924 814.043 29.7462 814.372 29.5682C814.702 29.3902 815.065 29.2576 815.463 29.1705C815.865 29.0795 816.268 29.0076 816.673 28.9545C817.204 28.8864 817.634 28.8352 817.963 28.8011C818.296 28.7633 818.539 28.7008 818.69 28.6136C818.846 28.5265 818.923 28.375 818.923 28.1591V28.1136C818.923 27.553 818.77 27.1174 818.463 26.8068C818.16 26.4962 817.7 26.3409 817.082 26.3409C816.442 26.3409 815.94 26.4811 815.577 26.7614C815.213 27.0417 814.957 27.3409 814.81 27.6591L813.537 27.2045C813.764 26.6742 814.067 26.2614 814.446 25.9659C814.829 25.6667 815.245 25.4583 815.696 25.3409C816.151 25.2197 816.598 25.1591 817.037 25.1591C817.317 25.1591 817.639 25.1932 818.003 25.2614C818.37 25.3258 818.724 25.4602 819.065 25.6648C819.41 25.8693 819.696 26.178 819.923 26.5909C820.151 27.0038 820.264 27.5568 820.264 28.25V34H818.923V32.8182H818.855C818.764 33.0076 818.613 33.2102 818.401 33.4261C818.188 33.642 817.906 33.8258 817.554 33.9773C817.202 34.1288 816.772 34.2045 816.264 34.2045ZM816.469 33C816.999 33 817.446 32.8958 817.81 32.6875C818.177 32.4792 818.454 32.2102 818.639 31.8807C818.829 31.5511 818.923 31.2045 818.923 30.8409V29.6136C818.866 29.6818 818.741 29.7443 818.548 29.8011C818.359 29.8542 818.139 29.9015 817.889 29.9432C817.643 29.9811 817.402 30.0152 817.168 30.0455C816.937 30.072 816.749 30.0947 816.605 30.1136C816.257 30.1591 815.931 30.233 815.628 30.3352C815.329 30.4337 815.086 30.5833 814.901 30.7841C814.719 30.9811 814.628 31.25 814.628 31.5909C814.628 32.0568 814.8 32.4091 815.145 32.6477C815.493 32.8826 815.935 33 816.469 33ZM824.053 28.75V34H822.712V25.2727H824.007V26.6364H824.121C824.325 26.1932 824.636 25.8371 825.053 25.5682C825.469 25.2955 826.007 25.1591 826.666 25.1591C827.257 25.1591 827.774 25.2803 828.217 25.5227C828.661 25.7614 829.005 26.125 829.251 26.6136C829.498 27.0985 829.621 27.7121 829.621 28.4545V34H828.28V28.5455C828.28 27.8598 828.102 27.3258 827.746 26.9432C827.39 26.5568 826.901 26.3636 826.28 26.3636C825.852 26.3636 825.469 26.4564 825.132 26.642C824.799 26.8277 824.536 27.0985 824.342 27.4545C824.149 27.8106 824.053 28.2424 824.053 28.75ZM835.366 34.1818C834.639 34.1818 833.997 33.9981 833.44 33.6307C832.884 33.2595 832.448 32.7367 832.134 32.0625C831.819 31.3845 831.662 30.5833 831.662 29.6591C831.662 28.7424 831.819 27.947 832.134 27.2727C832.448 26.5985 832.885 26.0777 833.446 25.7102C834.007 25.3428 834.654 25.1591 835.389 25.1591C835.957 25.1591 836.406 25.2538 836.736 25.4432C837.069 25.6288 837.323 25.8409 837.497 26.0795C837.675 26.3144 837.813 26.5076 837.912 26.6591H838.026V22.3636H839.366V34H838.071V32.6591H837.912C837.813 32.8182 837.673 33.0189 837.491 33.2614C837.31 33.5 837.05 33.714 836.713 33.9034C836.376 34.089 835.927 34.1818 835.366 34.1818ZM835.548 32.9773C836.086 32.9773 836.541 32.8371 836.912 32.5568C837.283 32.2727 837.565 31.8807 837.759 31.3807C837.952 30.8769 838.048 30.2955 838.048 29.6364C838.048 28.9848 837.954 28.4148 837.764 27.9261C837.575 27.4337 837.295 27.0511 836.923 26.7784C836.552 26.5019 836.094 26.3636 835.548 26.3636C834.98 26.3636 834.507 26.5095 834.128 26.8011C833.753 27.089 833.471 27.4811 833.281 27.9773C833.096 28.4697 833.003 29.0227 833.003 29.6364C833.003 30.2576 833.098 30.822 833.287 31.3295C833.48 31.8333 833.764 32.2348 834.139 32.5341C834.518 32.8295 834.988 32.9773 835.548 32.9773ZM850.304 25.2727V26.4091H845.781V25.2727H850.304ZM847.099 23.1818H848.44V31.5C848.44 31.8788 848.495 32.1629 848.605 32.3523C848.719 32.5379 848.863 32.6629 849.037 32.7273C849.215 32.7879 849.402 32.8182 849.599 32.8182C849.747 32.8182 849.868 32.8106 849.963 32.7955C850.058 32.7765 850.134 32.7614 850.19 32.75L850.463 33.9545C850.372 33.9886 850.245 34.0227 850.082 34.0568C849.92 34.0947 849.713 34.1136 849.463 34.1136C849.084 34.1136 848.713 34.0322 848.349 33.8693C847.99 33.7064 847.69 33.4583 847.452 33.125C847.217 32.7917 847.099 32.3712 847.099 31.8636V23.1818ZM853.849 28.75V34H852.509V22.3636H853.849V26.6364H853.963C854.168 26.1856 854.474 25.8277 854.884 25.5625C855.296 25.2936 855.846 25.1591 856.531 25.1591C857.126 25.1591 857.647 25.2784 858.094 25.517C858.541 25.7519 858.887 26.1136 859.134 26.6023C859.384 27.0871 859.509 27.7045 859.509 28.4545V34H858.168V28.5455C858.168 27.8523 857.988 27.3163 857.628 26.9375C857.272 26.5549 856.777 26.3636 856.145 26.3636C855.705 26.3636 855.312 26.4564 854.963 26.642C854.618 26.8277 854.346 27.0985 854.145 27.4545C853.948 27.8106 853.849 28.2424 853.849 28.75ZM865.621 34.1818C864.78 34.1818 864.054 33.9962 863.445 33.625C862.839 33.25 862.371 32.7273 862.041 32.0568C861.715 31.3826 861.553 30.5985 861.553 29.7045C861.553 28.8106 861.715 28.0227 862.041 27.3409C862.371 26.6553 862.829 26.1212 863.416 25.7386C864.007 25.3523 864.696 25.1591 865.484 25.1591C865.939 25.1591 866.388 25.2348 866.831 25.3864C867.274 25.5379 867.678 25.7841 868.041 26.125C868.405 26.4621 868.695 26.9091 868.911 27.4659C869.126 28.0227 869.234 28.7083 869.234 29.5227V30.0909H862.507V28.9318H867.871C867.871 28.4394 867.772 28 867.575 27.6136C867.382 27.2273 867.106 26.9223 866.746 26.6989C866.39 26.4754 865.969 26.3636 865.484 26.3636C864.95 26.3636 864.488 26.4962 864.098 26.7614C863.712 27.0227 863.414 27.3636 863.206 27.7841C862.998 28.2045 862.893 28.6553 862.893 29.1364V29.9091C862.893 30.5682 863.007 31.1269 863.234 31.5852C863.465 32.0398 863.786 32.3864 864.195 32.625C864.604 32.8598 865.079 32.9773 865.621 32.9773C865.973 32.9773 866.291 32.928 866.575 32.8295C866.863 32.7273 867.111 32.5758 867.32 32.375C867.528 32.1705 867.689 31.9167 867.803 31.6136L869.098 31.9773C868.962 32.4167 868.732 32.803 868.411 33.1364C868.089 33.4659 867.691 33.7235 867.217 33.9091C866.744 34.0909 866.212 34.1818 865.621 34.1818ZM872.615 28.75V34H871.274V25.2727H872.57V26.6364H872.683C872.888 26.1932 873.198 25.8371 873.615 25.5682C874.032 25.2955 874.57 25.1591 875.229 25.1591C875.82 25.1591 876.337 25.2803 876.78 25.5227C877.223 25.7614 877.568 26.125 877.814 26.6136C878.06 27.0985 878.183 27.7121 878.183 28.4545V34H876.842V28.5455C876.842 27.8598 876.664 27.3258 876.308 26.9432C875.952 26.5568 875.464 26.3636 874.842 26.3636C874.414 26.3636 874.032 26.4564 873.695 26.642C873.361 26.8277 873.098 27.0985 872.905 27.4545C872.712 27.8106 872.615 28.2424 872.615 28.75ZM888.679 34.1818C887.861 34.1818 887.156 33.9886 886.565 33.6023C885.974 33.2159 885.52 32.6837 885.202 32.0057C884.884 31.3277 884.724 30.553 884.724 29.6818C884.724 28.7955 884.887 28.0133 885.213 27.3352C885.543 26.6534 886.001 26.1212 886.588 25.7386C887.179 25.3523 887.868 25.1591 888.656 25.1591C889.27 25.1591 889.823 25.2727 890.315 25.5C890.808 25.7273 891.211 26.0455 891.526 26.4545C891.84 26.8636 892.035 27.3409 892.111 27.8864H890.77C890.668 27.4886 890.44 27.1364 890.088 26.8295C889.74 26.5189 889.27 26.3636 888.679 26.3636C888.156 26.3636 887.698 26.5 887.304 26.7727C886.914 27.0417 886.609 27.4223 886.389 27.9148C886.173 28.4034 886.065 28.9773 886.065 29.6364C886.065 30.3106 886.171 30.8977 886.384 31.3977C886.599 31.8977 886.902 32.286 887.293 32.5625C887.687 32.839 888.149 32.9773 888.679 32.9773C889.027 32.9773 889.344 32.9167 889.628 32.7955C889.912 32.6742 890.152 32.5 890.349 32.2727C890.546 32.0455 890.687 31.7727 890.77 31.4545H892.111C892.035 31.9697 891.848 32.4337 891.548 32.8466C891.253 33.2557 890.861 33.5814 890.372 33.8239C889.887 34.0625 889.323 34.1818 888.679 34.1818ZM895.412 22.3636V34H894.071V22.3636H895.412ZM901.413 34.1818C900.625 34.1818 899.934 33.9943 899.339 33.6193C898.749 33.2443 898.286 32.7197 897.953 32.0455C897.624 31.3712 897.459 30.5833 897.459 29.6818C897.459 28.7727 897.624 27.9792 897.953 27.3011C898.286 26.6231 898.749 26.0966 899.339 25.7216C899.934 25.3466 900.625 25.1591 901.413 25.1591C902.201 25.1591 902.891 25.3466 903.482 25.7216C904.076 26.0966 904.538 26.6231 904.868 27.3011C905.201 27.9792 905.368 28.7727 905.368 29.6818C905.368 30.5833 905.201 31.3712 904.868 32.0455C904.538 32.7197 904.076 33.2443 903.482 33.6193C902.891 33.9943 902.201 34.1818 901.413 34.1818ZM901.413 32.9773C902.012 32.9773 902.504 32.8239 902.891 32.517C903.277 32.2102 903.563 31.8068 903.749 31.3068C903.934 30.8068 904.027 30.2652 904.027 29.6818C904.027 29.0985 903.934 28.5549 903.749 28.0511C903.563 27.5473 903.277 27.1402 902.891 26.8295C902.504 26.5189 902.012 26.3636 901.413 26.3636C900.815 26.3636 900.322 26.5189 899.936 26.8295C899.55 27.1402 899.264 27.5473 899.078 28.0511C898.893 28.5549 898.8 29.0985 898.8 29.6818C898.8 30.2652 898.893 30.8068 899.078 31.3068C899.264 31.8068 899.55 32.2102 899.936 32.517C900.322 32.8239 900.815 32.9773 901.413 32.9773ZM913.597 27.2273L912.392 27.5682C912.316 27.3674 912.205 27.1723 912.057 26.983C911.913 26.7898 911.716 26.6307 911.466 26.5057C911.216 26.3807 910.896 26.3182 910.506 26.3182C909.972 26.3182 909.527 26.4413 909.17 26.6875C908.818 26.9299 908.642 27.2386 908.642 27.6136C908.642 27.947 908.763 28.2102 909.006 28.4034C909.248 28.5966 909.627 28.7576 910.142 28.8864L911.438 29.2045C912.218 29.3939 912.799 29.6837 913.182 30.0739C913.564 30.4602 913.756 30.9583 913.756 31.5682C913.756 32.0682 913.612 32.5152 913.324 32.9091C913.04 33.303 912.642 33.6136 912.131 33.8409C911.619 34.0682 911.025 34.1818 910.347 34.1818C909.456 34.1818 908.72 33.9886 908.136 33.6023C907.553 33.2159 907.184 32.6515 907.028 31.9091L908.301 31.5909C908.422 32.0606 908.652 32.4129 908.989 32.6477C909.33 32.8826 909.775 33 910.324 33C910.949 33 911.445 32.8674 911.812 32.6023C912.184 32.3333 912.369 32.0114 912.369 31.6364C912.369 31.3333 912.263 31.0795 912.051 30.875C911.839 30.6667 911.513 30.5114 911.074 30.4091L909.619 30.0682C908.82 29.8788 908.233 29.5852 907.858 29.1875C907.487 28.786 907.301 28.2841 907.301 27.6818C907.301 27.1894 907.439 26.7538 907.716 26.375C907.996 25.9962 908.377 25.6989 908.858 25.483C909.343 25.267 909.892 25.1591 910.506 25.1591C911.369 25.1591 912.047 25.3485 912.54 25.7273C913.036 26.1061 913.388 26.6061 913.597 27.2273ZM919.433 34.1818C918.592 34.1818 917.867 33.9962 917.257 33.625C916.651 33.25 916.183 32.7273 915.854 32.0568C915.528 31.3826 915.365 30.5985 915.365 29.7045C915.365 28.8106 915.528 28.0227 915.854 27.3409C916.183 26.6553 916.642 26.1212 917.229 25.7386C917.82 25.3523 918.509 25.1591 919.297 25.1591C919.751 25.1591 920.2 25.2348 920.643 25.3864C921.087 25.5379 921.49 25.7841 921.854 26.125C922.217 26.4621 922.507 26.9091 922.723 27.4659C922.939 28.0227 923.047 28.7083 923.047 29.5227V30.0909H916.32V28.9318H921.683C921.683 28.4394 921.585 28 921.388 27.6136C921.195 27.2273 920.918 26.9223 920.558 26.6989C920.202 26.4754 919.782 26.3636 919.297 26.3636C918.763 26.3636 918.301 26.4962 917.911 26.7614C917.524 27.0227 917.227 27.3636 917.018 27.7841C916.81 28.2045 916.706 28.6553 916.706 29.1364V29.9091C916.706 30.5682 916.82 31.1269 917.047 31.5852C917.278 32.0398 917.598 32.3864 918.007 32.625C918.416 32.8598 918.892 32.9773 919.433 32.9773C919.786 32.9773 920.104 32.928 920.388 32.8295C920.676 32.7273 920.924 32.5758 921.132 32.375C921.34 32.1705 921.501 31.9167 921.615 31.6136L922.911 31.9773C922.774 32.4167 922.545 32.803 922.223 33.1364C921.901 33.4659 921.503 33.7235 921.03 33.9091C920.556 34.0909 920.024 34.1818 919.433 34.1818ZM931.268 27.2273L930.064 27.5682C929.988 27.3674 929.876 27.1723 929.729 26.983C929.585 26.7898 929.388 26.6307 929.138 26.5057C928.888 26.3807 928.568 26.3182 928.178 26.3182C927.643 26.3182 927.198 26.4413 926.842 26.6875C926.49 26.9299 926.314 27.2386 926.314 27.6136C926.314 27.947 926.435 28.2102 926.678 28.4034C926.92 28.5966 927.299 28.7576 927.814 28.8864L929.109 29.2045C929.89 29.3939 930.471 29.6837 930.854 30.0739C931.236 30.4602 931.428 30.9583 931.428 31.5682C931.428 32.0682 931.284 32.5152 930.996 32.9091C930.712 33.303 930.314 33.6136 929.803 33.8409C929.291 34.0682 928.696 34.1818 928.018 34.1818C927.128 34.1818 926.392 33.9886 925.808 33.6023C925.225 33.2159 924.856 32.6515 924.7 31.9091L925.973 31.5909C926.094 32.0606 926.323 32.4129 926.661 32.6477C927.001 32.8826 927.446 33 927.996 33C928.621 33 929.117 32.8674 929.484 32.6023C929.856 32.3333 930.041 32.0114 930.041 31.6364C930.041 31.3333 929.935 31.0795 929.723 30.875C929.511 30.6667 929.185 30.5114 928.746 30.4091L927.291 30.0682C926.492 29.8788 925.905 29.5852 925.53 29.1875C925.159 28.786 924.973 28.2841 924.973 27.6818C924.973 27.1894 925.111 26.7538 925.388 26.375C925.668 25.9962 926.049 25.6989 926.53 25.483C927.015 25.267 927.564 25.1591 928.178 25.1591C929.041 25.1591 929.719 25.3485 930.212 25.7273C930.708 26.1061 931.06 26.6061 931.268 27.2273ZM941.741 25.2727V26.4091H937.219V25.2727H941.741ZM938.537 23.1818H939.878V31.5C939.878 31.8788 939.933 32.1629 940.043 32.3523C940.156 32.5379 940.3 32.6629 940.474 32.7273C940.652 32.7879 940.84 32.8182 941.037 32.8182C941.185 32.8182 941.306 32.8106 941.401 32.7955C941.495 32.7765 941.571 32.7614 941.628 32.75L941.901 33.9545C941.81 33.9886 941.683 34.0227 941.52 34.0568C941.357 34.0947 941.151 34.1136 940.901 34.1136C940.522 34.1136 940.151 34.0322 939.787 33.8693C939.427 33.7064 939.128 33.4583 938.889 33.125C938.654 32.7917 938.537 32.3712 938.537 31.8636V23.1818ZM945.287 28.75V34H943.946V22.3636H945.287V26.6364H945.401C945.605 26.1856 945.912 25.8277 946.321 25.5625C946.734 25.2936 947.283 25.1591 947.969 25.1591C948.563 25.1591 949.084 25.2784 949.531 25.517C949.978 25.7519 950.325 26.1136 950.571 26.6023C950.821 27.0871 950.946 27.7045 950.946 28.4545V34H949.605V28.5455C949.605 27.8523 949.425 27.3163 949.065 26.9375C948.709 26.5549 948.215 26.3636 947.582 26.3636C947.143 26.3636 946.749 26.4564 946.401 26.642C946.056 26.8277 945.783 27.0985 945.582 27.4545C945.385 27.8106 945.287 28.2424 945.287 28.75ZM957.058 34.1818C956.217 34.1818 955.492 33.9962 954.882 33.625C954.276 33.25 953.808 32.7273 953.479 32.0568C953.153 31.3826 952.99 30.5985 952.99 29.7045C952.99 28.8106 953.153 28.0227 953.479 27.3409C953.808 26.6553 954.267 26.1212 954.854 25.7386C955.445 25.3523 956.134 25.1591 956.922 25.1591C957.376 25.1591 957.825 25.2348 958.268 25.3864C958.712 25.5379 959.115 25.7841 959.479 26.125C959.842 26.4621 960.132 26.9091 960.348 27.4659C960.564 28.0227 960.672 28.7083 960.672 29.5227V30.0909H953.945V28.9318H959.308C959.308 28.4394 959.21 28 959.013 27.6136C958.82 27.2273 958.543 26.9223 958.183 26.6989C957.827 26.4754 957.407 26.3636 956.922 26.3636C956.388 26.3636 955.926 26.4962 955.536 26.7614C955.149 27.0227 954.852 27.3636 954.643 27.7841C954.435 28.2045 954.331 28.6553 954.331 29.1364V29.9091C954.331 30.5682 954.445 31.1269 954.672 31.5852C954.903 32.0398 955.223 32.3864 955.632 32.625C956.041 32.8598 956.517 32.9773 957.058 32.9773C957.411 32.9773 957.729 32.928 958.013 32.8295C958.301 32.7273 958.549 32.5758 958.757 32.375C958.965 32.1705 959.126 31.9167 959.24 31.6136L960.536 31.9773C960.399 32.4167 960.17 32.803 959.848 33.1364C959.526 33.4659 959.128 33.7235 958.655 33.9091C958.181 34.0909 957.649 34.1818 957.058 34.1818ZM970.507 34.1818C969.78 34.1818 969.138 33.9981 968.581 33.6307C968.024 33.2595 967.589 32.7367 967.274 32.0625C966.96 31.3845 966.803 30.5833 966.803 29.6591C966.803 28.7424 966.96 27.947 967.274 27.2727C967.589 26.5985 968.026 26.0777 968.587 25.7102C969.147 25.3428 969.795 25.1591 970.53 25.1591C971.098 25.1591 971.547 25.2538 971.876 25.4432C972.21 25.6288 972.464 25.8409 972.638 26.0795C972.816 26.3144 972.954 26.5076 973.053 26.6591H973.166V22.3636H974.507V34H973.212V32.6591H973.053C972.954 32.8182 972.814 33.0189 972.632 33.2614C972.45 33.5 972.191 33.714 971.854 33.9034C971.517 34.089 971.068 34.1818 970.507 34.1818ZM970.689 32.9773C971.227 32.9773 971.681 32.8371 972.053 32.5568C972.424 32.2727 972.706 31.8807 972.899 31.3807C973.092 30.8769 973.189 30.2955 973.189 29.6364C973.189 28.9848 973.094 28.4148 972.905 27.9261C972.715 27.4337 972.435 27.0511 972.064 26.7784C971.693 26.5019 971.234 26.3636 970.689 26.3636C970.121 26.3636 969.647 26.5095 969.268 26.8011C968.893 27.089 968.611 27.4811 968.422 27.9773C968.236 28.4697 968.143 29.0227 968.143 29.6364C968.143 30.2576 968.238 30.822 968.428 31.3295C968.621 31.8333 968.905 32.2348 969.28 32.5341C969.659 32.8295 970.128 32.9773 970.689 32.9773ZM977.149 34V25.2727H978.445V26.5909H978.536C978.695 26.1591 978.982 25.8087 979.399 25.5398C979.816 25.2708 980.286 25.1364 980.808 25.1364C980.907 25.1364 981.03 25.1383 981.178 25.142C981.325 25.1458 981.437 25.1515 981.513 25.1591V26.5227C981.467 26.5114 981.363 26.4943 981.2 26.4716C981.041 26.4451 980.873 26.4318 980.695 26.4318C980.27 26.4318 979.892 26.5208 979.558 26.6989C979.229 26.8731 978.967 27.1155 978.774 27.4261C978.585 27.733 978.49 28.0833 978.49 28.4773V34H977.149ZM986.382 34.1818C985.594 34.1818 984.903 33.9943 984.308 33.6193C983.717 33.2443 983.255 32.7197 982.922 32.0455C982.592 31.3712 982.428 30.5833 982.428 29.6818C982.428 28.7727 982.592 27.9792 982.922 27.3011C983.255 26.6231 983.717 26.0966 984.308 25.7216C984.903 25.3466 985.594 25.1591 986.382 25.1591C987.17 25.1591 987.859 25.3466 988.45 25.7216C989.045 26.0966 989.507 26.6231 989.837 27.3011C990.17 27.9792 990.337 28.7727 990.337 29.6818C990.337 30.5833 990.17 31.3712 989.837 32.0455C989.507 32.7197 989.045 33.2443 988.45 33.6193C987.859 33.9943 987.17 34.1818 986.382 34.1818ZM986.382 32.9773C986.981 32.9773 987.473 32.8239 987.859 32.517C988.246 32.2102 988.532 31.8068 988.717 31.3068C988.903 30.8068 988.996 30.2652 988.996 29.6818C988.996 29.0985 988.903 28.5549 988.717 28.0511C988.532 27.5473 988.246 27.1402 987.859 26.8295C987.473 26.5189 986.981 26.3636 986.382 26.3636C985.784 26.3636 985.291 26.5189 984.905 26.8295C984.518 27.1402 984.232 27.5473 984.047 28.0511C983.861 28.5549 983.768 29.0985 983.768 29.6818C983.768 30.2652 983.861 30.8068 984.047 31.3068C984.232 31.8068 984.518 32.2102 984.905 32.517C985.291 32.8239 985.784 32.9773 986.382 32.9773ZM992.384 37.2727V25.2727H993.679V26.6591H993.838C993.937 26.5076 994.073 26.3144 994.247 26.0795C994.425 25.8409 994.679 25.6288 995.009 25.4432C995.342 25.2538 995.793 25.1591 996.361 25.1591C997.096 25.1591 997.743 25.3428 998.304 25.7102C998.865 26.0777 999.302 26.5985 999.616 27.2727C999.931 27.947 1000.09 28.7424 1000.09 29.6591C1000.09 30.5833 999.931 31.3845 999.616 32.0625C999.302 32.7367 998.866 33.2595 998.31 33.6307C997.753 33.9981 997.111 34.1818 996.384 34.1818C995.823 34.1818 995.374 34.089 995.037 33.9034C994.7 33.714 994.44 33.5 994.259 33.2614C994.077 33.0189 993.937 32.8182 993.838 32.6591H993.724V37.2727H992.384ZM993.702 29.6364C993.702 30.2955 993.798 30.8769 993.991 31.3807C994.185 31.8807 994.467 32.2727 994.838 32.5568C995.209 32.8371 995.664 32.9773 996.202 32.9773C996.762 32.9773 997.23 32.8295 997.605 32.5341C997.984 32.2348 998.268 31.8333 998.457 31.3295C998.651 30.822 998.747 30.2576 998.747 29.6364C998.747 29.0227 998.652 28.4697 998.463 27.9773C998.277 27.4811 997.995 27.089 997.616 26.8011C997.241 26.5095 996.77 26.3636 996.202 26.3636C995.656 26.3636 995.198 26.5019 994.827 26.7784C994.455 27.0511 994.175 27.4337 993.986 27.9261C993.796 28.4148 993.702 28.9848 993.702 29.6364ZM1005.43 34.1818C1004.7 34.1818 1004.06 33.9981 1003.5 33.6307C1002.95 33.2595 1002.51 32.7367 1002.2 32.0625C1001.88 31.3845 1001.72 30.5833 1001.72 29.6591C1001.72 28.7424 1001.88 27.947 1002.2 27.2727C1002.51 26.5985 1002.95 26.0777 1003.51 25.7102C1004.07 25.3428 1004.72 25.1591 1005.45 25.1591C1006.02 25.1591 1006.47 25.2538 1006.8 25.4432C1007.13 25.6288 1007.39 25.8409 1007.56 26.0795C1007.74 26.3144 1007.88 26.5076 1007.97 26.6591H1008.09V22.3636H1009.43V34H1008.13V32.6591H1007.97C1007.88 32.8182 1007.74 33.0189 1007.55 33.2614C1007.37 33.5 1007.11 33.714 1006.78 33.9034C1006.44 34.089 1005.99 34.1818 1005.43 34.1818ZM1005.61 32.9773C1006.15 32.9773 1006.6 32.8371 1006.97 32.5568C1007.35 32.2727 1007.63 31.8807 1007.82 31.3807C1008.01 30.8769 1008.11 30.2955 1008.11 29.6364C1008.11 28.9848 1008.02 28.4148 1007.83 27.9261C1007.64 27.4337 1007.36 27.0511 1006.99 26.7784C1006.61 26.5019 1006.16 26.3636 1005.61 26.3636C1005.04 26.3636 1004.57 26.5095 1004.19 26.8011C1003.82 27.089 1003.53 27.4811 1003.34 27.9773C1003.16 28.4697 1003.07 29.0227 1003.07 29.6364C1003.07 30.2576 1003.16 30.822 1003.35 31.3295C1003.54 31.8333 1003.83 32.2348 1004.2 32.5341C1004.58 32.8295 1005.05 32.9773 1005.61 32.9773ZM1015.62 34.1818C1014.83 34.1818 1014.14 33.9943 1013.54 33.6193C1012.95 33.2443 1012.49 32.7197 1012.16 32.0455C1011.83 31.3712 1011.66 30.5833 1011.66 29.6818C1011.66 28.7727 1011.83 27.9792 1012.16 27.3011C1012.49 26.6231 1012.95 26.0966 1013.54 25.7216C1014.14 25.3466 1014.83 25.1591 1015.62 25.1591C1016.4 25.1591 1017.09 25.3466 1017.68 25.7216C1018.28 26.0966 1018.74 26.6231 1019.07 27.3011C1019.4 27.9792 1019.57 28.7727 1019.57 29.6818C1019.57 30.5833 1019.4 31.3712 1019.07 32.0455C1018.74 32.7197 1018.28 33.2443 1017.68 33.6193C1017.09 33.9943 1016.4 34.1818 1015.62 34.1818ZM1015.62 32.9773C1016.21 32.9773 1016.71 32.8239 1017.09 32.517C1017.48 32.2102 1017.77 31.8068 1017.95 31.3068C1018.14 30.8068 1018.23 30.2652 1018.23 29.6818C1018.23 29.0985 1018.14 28.5549 1017.95 28.0511C1017.77 27.5473 1017.48 27.1402 1017.09 26.8295C1016.71 26.5189 1016.21 26.3636 1015.62 26.3636C1015.02 26.3636 1014.53 26.5189 1014.14 26.8295C1013.75 27.1402 1013.47 27.5473 1013.28 28.0511C1013.1 28.5549 1013 29.0985 1013 29.6818C1013 30.2652 1013.1 30.8068 1013.28 31.3068C1013.47 31.8068 1013.75 32.2102 1014.14 32.517C1014.53 32.8239 1015.02 32.9773 1015.62 32.9773ZM1023.3 34L1020.64 25.2727H1022.05L1023.93 31.9545H1024.03L1025.89 25.2727H1027.32L1029.16 31.9318H1029.25L1031.14 25.2727H1032.55L1029.89 34H1028.57L1026.66 27.2955H1026.53L1024.62 34H1023.3ZM1035.66 28.75V34H1034.32V25.2727H1035.62V26.6364H1035.73C1035.93 26.1932 1036.25 25.8371 1036.66 25.5682C1037.08 25.2955 1037.62 25.1591 1038.28 25.1591C1038.87 25.1591 1039.38 25.2803 1039.83 25.5227C1040.27 25.7614 1040.61 26.125 1040.86 26.6136C1041.11 27.0985 1041.23 27.7121 1041.23 28.4545V34H1039.89V28.5455C1039.89 27.8598 1039.71 27.3258 1039.36 26.9432C1039 26.5568 1038.51 26.3636 1037.89 26.3636C1037.46 26.3636 1037.08 26.4564 1036.74 26.642C1036.41 26.8277 1036.14 27.0985 1035.95 27.4545C1035.76 27.8106 1035.66 28.2424 1035.66 28.75ZM1048.18 34V25.2727H1049.48V26.6364H1049.59C1049.77 26.1705 1050.06 25.8087 1050.47 25.5511C1050.88 25.2898 1051.36 25.1591 1051.93 25.1591C1052.51 25.1591 1052.99 25.2898 1053.37 25.5511C1053.75 25.8087 1054.06 26.1705 1054.27 26.6364H1054.36C1054.59 26.1856 1054.92 25.8277 1055.37 25.5625C1055.81 25.2936 1056.35 25.1591 1056.98 25.1591C1057.76 25.1591 1058.39 25.4034 1058.89 25.892C1059.39 26.3769 1059.63 27.1326 1059.63 28.1591V34H1058.29V28.1591C1058.29 27.5152 1058.12 27.0549 1057.77 26.7784C1057.41 26.5019 1057 26.3636 1056.52 26.3636C1055.91 26.3636 1055.43 26.5492 1055.1 26.9205C1054.76 27.2879 1054.59 27.7538 1054.59 28.3182V34H1053.23V28.0227C1053.23 27.5265 1053.06 27.1269 1052.74 26.8239C1052.42 26.517 1052.01 26.3636 1051.5 26.3636C1051.15 26.3636 1050.82 26.4564 1050.52 26.642C1050.22 26.8277 1049.98 27.0852 1049.79 27.4148C1049.61 27.7405 1049.52 28.1174 1049.52 28.5455V34H1048.18ZM1065.75 34.1818C1064.9 34.1818 1064.18 33.9962 1063.57 33.625C1062.96 33.25 1062.5 32.7273 1062.17 32.0568C1061.84 31.3826 1061.68 30.5985 1061.68 29.7045C1061.68 28.8106 1061.84 28.0227 1062.17 27.3409C1062.5 26.6553 1062.95 26.1212 1063.54 25.7386C1064.13 25.3523 1064.82 25.1591 1065.61 25.1591C1066.06 25.1591 1066.51 25.2348 1066.96 25.3864C1067.4 25.5379 1067.8 25.7841 1068.17 26.125C1068.53 26.4621 1068.82 26.9091 1069.04 27.4659C1069.25 28.0227 1069.36 28.7083 1069.36 29.5227V30.0909H1062.63V28.9318H1068C1068 28.4394 1067.9 28 1067.7 27.6136C1067.51 27.2273 1067.23 26.9223 1066.87 26.6989C1066.51 26.4754 1066.09 26.3636 1065.61 26.3636C1065.08 26.3636 1064.61 26.4962 1064.22 26.7614C1063.84 27.0227 1063.54 27.3636 1063.33 27.7841C1063.12 28.2045 1063.02 28.6553 1063.02 29.1364V29.9091C1063.02 30.5682 1063.13 31.1269 1063.36 31.5852C1063.59 32.0398 1063.91 32.3864 1064.32 32.625C1064.73 32.8598 1065.2 32.9773 1065.75 32.9773C1066.1 32.9773 1066.42 32.928 1066.7 32.8295C1066.99 32.7273 1067.24 32.5758 1067.44 32.375C1067.65 32.1705 1067.81 31.9167 1067.93 31.6136L1069.22 31.9773C1069.09 32.4167 1068.86 32.803 1068.54 33.1364C1068.21 33.4659 1067.82 33.7235 1067.34 33.9091C1066.87 34.0909 1066.34 34.1818 1065.75 34.1818ZM1072.74 28.75V34H1071.4V25.2727H1072.69V26.6364H1072.81C1073.01 26.1932 1073.32 25.8371 1073.74 25.5682C1074.16 25.2955 1074.69 25.1591 1075.35 25.1591C1075.94 25.1591 1076.46 25.2803 1076.9 25.5227C1077.35 25.7614 1077.69 26.125 1077.94 26.6136C1078.19 27.0985 1078.31 27.7121 1078.31 28.4545V34H1076.97V28.5455C1076.97 27.8598 1076.79 27.3258 1076.43 26.9432C1076.08 26.5568 1075.59 26.3636 1074.97 26.3636C1074.54 26.3636 1074.16 26.4564 1073.82 26.642C1073.49 26.8277 1073.22 27.0985 1073.03 27.4545C1072.84 27.8106 1072.74 28.2424 1072.74 28.75ZM1086.26 30.4318V25.2727H1087.6V34H1086.26V32.5227H1086.17C1085.96 32.9659 1085.64 33.3428 1085.21 33.6534C1084.78 33.9602 1084.24 34.1136 1083.58 34.1136C1083.03 34.1136 1082.55 33.9943 1082.12 33.7557C1081.7 33.5133 1081.36 33.1496 1081.12 32.6648C1080.88 32.1761 1080.76 31.5606 1080.76 30.8182V25.2727H1082.1V30.7273C1082.1 31.3636 1082.28 31.8712 1082.63 32.25C1082.99 32.6288 1083.45 32.8182 1084.01 32.8182C1084.34 32.8182 1084.68 32.733 1085.03 32.5625C1085.37 32.392 1085.67 32.1307 1085.9 31.7784C1086.14 31.4261 1086.26 30.9773 1086.26 30.4318ZM617 55.8636C616.542 55.8636 616.123 55.7519 615.744 55.5284C615.366 55.3011 615.063 54.9981 614.835 54.6193C614.612 54.2405 614.5 53.822 614.5 53.3636C614.5 52.9015 614.612 52.483 614.835 52.108C615.063 51.7292 615.366 51.428 615.744 51.2045C616.123 50.9773 616.542 50.8636 617 50.8636C617.462 50.8636 617.881 50.9773 618.256 51.2045C618.634 51.428 618.936 51.7292 619.159 52.108C619.386 52.483 619.5 52.9015 619.5 53.3636C619.5 53.822 619.386 54.2405 619.159 54.6193C618.936 54.9981 618.634 55.3011 618.256 55.5284C617.881 55.7519 617.462 55.8636 617 55.8636ZM640.227 52.1818C640.227 53.4091 640.006 54.4697 639.562 55.3636C639.119 56.2576 638.511 56.947 637.739 57.4318C636.966 57.9167 636.083 58.1591 635.091 58.1591C634.098 58.1591 633.216 57.9167 632.443 57.4318C631.67 56.947 631.063 56.2576 630.619 55.3636C630.176 54.4697 629.955 53.4091 629.955 52.1818C629.955 50.9545 630.176 49.8939 630.619 49C631.063 48.1061 631.67 47.4167 632.443 46.9318C633.216 46.447 634.098 46.2045 635.091 46.2045C636.083 46.2045 636.966 46.447 637.739 46.9318C638.511 47.4167 639.119 48.1061 639.562 49C640.006 49.8939 640.227 50.9545 640.227 52.1818ZM638.864 52.1818C638.864 51.1742 638.695 50.3239 638.358 49.6307C638.025 48.9375 637.572 48.4129 637 48.0568C636.432 47.7008 635.795 47.5227 635.091 47.5227C634.386 47.5227 633.748 47.7008 633.176 48.0568C632.608 48.4129 632.155 48.9375 631.818 49.6307C631.485 50.3239 631.318 51.1742 631.318 52.1818C631.318 53.1894 631.485 54.0398 631.818 54.733C632.155 55.4261 632.608 55.9508 633.176 56.3068C633.748 56.6629 634.386 56.8409 635.091 56.8409C635.795 56.8409 636.432 56.6629 637 56.3068C637.572 55.9508 638.025 55.4261 638.358 54.733C638.695 54.0398 638.864 53.1894 638.864 52.1818ZM642.415 61.2727V49.2727H643.71V50.6591H643.869C643.968 50.5076 644.104 50.3144 644.278 50.0795C644.456 49.8409 644.71 49.6288 645.04 49.4432C645.373 49.2538 645.824 49.1591 646.392 49.1591C647.127 49.1591 647.775 49.3428 648.335 49.7102C648.896 50.0777 649.333 50.5985 649.648 51.2727C649.962 51.947 650.119 52.7424 650.119 53.6591C650.119 54.5833 649.962 55.3845 649.648 56.0625C649.333 56.7367 648.898 57.2595 648.341 57.6307C647.784 57.9981 647.142 58.1818 646.415 58.1818C645.854 58.1818 645.405 58.089 645.068 57.9034C644.731 57.714 644.472 57.5 644.29 57.2614C644.108 57.0189 643.968 56.8182 643.869 56.6591H643.756V61.2727H642.415ZM643.733 53.6364C643.733 54.2955 643.83 54.8769 644.023 55.3807C644.216 55.8807 644.498 56.2727 644.869 56.5568C645.241 56.8371 645.695 56.9773 646.233 56.9773C646.794 56.9773 647.261 56.8295 647.636 56.5341C648.015 56.2348 648.299 55.8333 648.489 55.3295C648.682 54.822 648.778 54.2576 648.778 53.6364C648.778 53.0227 648.684 52.4697 648.494 51.9773C648.309 51.4811 648.027 51.089 647.648 50.8011C647.273 50.5095 646.801 50.3636 646.233 50.3636C645.688 50.3636 645.229 50.5019 644.858 50.7784C644.487 51.0511 644.206 51.4337 644.017 51.9261C643.828 52.4148 643.733 52.9848 643.733 53.6364ZM655.824 58.1818C654.983 58.1818 654.258 57.9962 653.648 57.625C653.042 57.25 652.574 56.7273 652.244 56.0568C651.919 55.3826 651.756 54.5985 651.756 53.7045C651.756 52.8106 651.919 52.0227 652.244 51.3409C652.574 50.6553 653.032 50.1212 653.619 49.7386C654.21 49.3523 654.9 49.1591 655.688 49.1591C656.142 49.1591 656.591 49.2348 657.034 49.3864C657.477 49.5379 657.881 49.7841 658.244 50.125C658.608 50.4621 658.898 50.9091 659.114 51.4659C659.33 52.0227 659.438 52.7083 659.438 53.5227V54.0909H652.71V52.9318H658.074C658.074 52.4394 657.975 52 657.778 51.6136C657.585 51.2273 657.309 50.9223 656.949 50.6989C656.593 50.4754 656.172 50.3636 655.688 50.3636C655.153 50.3636 654.691 50.4962 654.301 50.7614C653.915 51.0227 653.617 51.3636 653.409 51.7841C653.201 52.2045 653.097 52.6553 653.097 53.1364V53.9091C653.097 54.5682 653.21 55.1269 653.438 55.5852C653.669 56.0398 653.989 56.3864 654.398 56.625C654.807 56.8598 655.282 56.9773 655.824 56.9773C656.176 56.9773 656.494 56.928 656.778 56.8295C657.066 56.7273 657.314 56.5758 657.523 56.375C657.731 56.1705 657.892 55.9167 658.006 55.6136L659.301 55.9773C659.165 56.4167 658.936 56.803 658.614 57.1364C658.292 57.4659 657.894 57.7235 657.42 57.9091C656.947 58.0909 656.415 58.1818 655.824 58.1818ZM662.818 52.75V58H661.477V49.2727H662.773V50.6364H662.886C663.091 50.1932 663.402 49.8371 663.818 49.5682C664.235 49.2955 664.773 49.1591 665.432 49.1591C666.023 49.1591 666.54 49.2803 666.983 49.5227C667.426 49.7614 667.771 50.125 668.017 50.6136C668.263 51.0985 668.386 51.7121 668.386 52.4545V58H667.045V52.5455C667.045 51.8598 666.867 51.3258 666.511 50.9432C666.155 50.5568 665.667 50.3636 665.045 50.3636C664.617 50.3636 664.235 50.4564 663.898 50.642C663.564 50.8277 663.301 51.0985 663.108 51.4545C662.915 51.8106 662.818 52.2424 662.818 52.75ZM677.018 51.2273L675.814 51.5682C675.738 51.3674 675.626 51.1723 675.479 50.983C675.335 50.7898 675.138 50.6307 674.888 50.5057C674.638 50.3807 674.318 50.3182 673.928 50.3182C673.393 50.3182 672.948 50.4413 672.592 50.6875C672.24 50.9299 672.064 51.2386 672.064 51.6136C672.064 51.947 672.185 52.2102 672.428 52.4034C672.67 52.5966 673.049 52.7576 673.564 52.8864L674.859 53.2045C675.64 53.3939 676.221 53.6837 676.604 54.0739C676.986 54.4602 677.178 54.9583 677.178 55.5682C677.178 56.0682 677.034 56.5152 676.746 56.9091C676.462 57.303 676.064 57.6136 675.553 57.8409C675.041 58.0682 674.446 58.1818 673.768 58.1818C672.878 58.1818 672.142 57.9886 671.558 57.6023C670.975 57.2159 670.606 56.6515 670.45 55.9091L671.723 55.5909C671.844 56.0606 672.073 56.4129 672.411 56.6477C672.751 56.8826 673.196 57 673.746 57C674.371 57 674.867 56.8674 675.234 56.6023C675.606 56.3333 675.791 56.0114 675.791 55.6364C675.791 55.3333 675.685 55.0795 675.473 54.875C675.261 54.6667 674.935 54.5114 674.496 54.4091L673.041 54.0682C672.242 53.8788 671.655 53.5852 671.28 53.1875C670.909 52.786 670.723 52.2841 670.723 51.6818C670.723 51.1894 670.861 50.7538 671.138 50.375C671.418 49.9962 671.799 49.6989 672.28 49.483C672.765 49.267 673.314 49.1591 673.928 49.1591C674.791 49.1591 675.469 49.3485 675.962 49.7273C676.458 50.1061 676.81 50.6061 677.018 51.2273ZM687.491 49.2727V50.4091H682.969V49.2727H687.491ZM684.287 47.1818H685.628V55.5C685.628 55.8788 685.683 56.1629 685.793 56.3523C685.906 56.5379 686.05 56.6629 686.224 56.7273C686.402 56.7879 686.59 56.8182 686.787 56.8182C686.935 56.8182 687.056 56.8106 687.151 56.7955C687.245 56.7765 687.321 56.7614 687.378 56.75L687.651 57.9545C687.56 57.9886 687.433 58.0227 687.27 58.0568C687.107 58.0947 686.901 58.1136 686.651 58.1136C686.272 58.1136 685.901 58.0322 685.537 57.8693C685.177 57.7064 684.878 57.4583 684.639 57.125C684.404 56.7917 684.287 56.3712 684.287 55.8636V47.1818ZM691.037 52.75V58H689.696V46.3636H691.037V50.6364H691.151C691.355 50.1856 691.662 49.8277 692.071 49.5625C692.484 49.2936 693.033 49.1591 693.719 49.1591C694.313 49.1591 694.834 49.2784 695.281 49.517C695.728 49.7519 696.075 50.1136 696.321 50.6023C696.571 51.0871 696.696 51.7045 696.696 52.4545V58H695.355V52.5455C695.355 51.8523 695.175 51.3163 694.815 50.9375C694.459 50.5549 693.965 50.3636 693.332 50.3636C692.893 50.3636 692.499 50.4564 692.151 50.642C691.806 50.8277 691.533 51.0985 691.332 51.4545C691.135 51.8106 691.037 52.2424 691.037 52.75ZM702.808 58.1818C701.967 58.1818 701.242 57.9962 700.632 57.625C700.026 57.25 699.558 56.7273 699.229 56.0568C698.903 55.3826 698.74 54.5985 698.74 53.7045C698.74 52.8106 698.903 52.0227 699.229 51.3409C699.558 50.6553 700.017 50.1212 700.604 49.7386C701.195 49.3523 701.884 49.1591 702.672 49.1591C703.126 49.1591 703.575 49.2348 704.018 49.3864C704.462 49.5379 704.865 49.7841 705.229 50.125C705.592 50.4621 705.882 50.9091 706.098 51.4659C706.314 52.0227 706.422 52.7083 706.422 53.5227V54.0909H699.695V52.9318H705.058C705.058 52.4394 704.96 52 704.763 51.6136C704.57 51.2273 704.293 50.9223 703.933 50.6989C703.577 50.4754 703.157 50.3636 702.672 50.3636C702.138 50.3636 701.676 50.4962 701.286 50.7614C700.899 51.0227 700.602 51.3636 700.393 51.7841C700.185 52.2045 700.081 52.6553 700.081 53.1364V53.9091C700.081 54.5682 700.195 55.1269 700.422 55.5852C700.653 56.0398 700.973 56.3864 701.382 56.625C701.791 56.8598 702.267 56.9773 702.808 56.9773C703.161 56.9773 703.479 56.928 703.763 56.8295C704.051 56.7273 704.299 56.5758 704.507 56.375C704.715 56.1705 704.876 55.9167 704.99 55.6136L706.286 55.9773C706.149 56.4167 705.92 56.803 705.598 57.1364C705.276 57.4659 704.878 57.7235 704.405 57.9091C703.931 58.0909 703.399 58.1818 702.808 58.1818ZM716.257 58.1818C715.53 58.1818 714.888 57.9981 714.331 57.6307C713.774 57.2595 713.339 56.7367 713.024 56.0625C712.71 55.3845 712.553 54.5833 712.553 53.6591C712.553 52.7424 712.71 51.947 713.024 51.2727C713.339 50.5985 713.776 50.0777 714.337 49.7102C714.897 49.3428 715.545 49.1591 716.28 49.1591C716.848 49.1591 717.297 49.2538 717.626 49.4432C717.96 49.6288 718.214 49.8409 718.388 50.0795C718.566 50.3144 718.704 50.5076 718.803 50.6591H718.916V46.3636H720.257V58H718.962V56.6591H718.803C718.704 56.8182 718.564 57.0189 718.382 57.2614C718.2 57.5 717.941 57.714 717.604 57.9034C717.267 58.089 716.818 58.1818 716.257 58.1818ZM716.439 56.9773C716.977 56.9773 717.431 56.8371 717.803 56.5568C718.174 56.2727 718.456 55.8807 718.649 55.3807C718.842 54.8769 718.939 54.2955 718.939 53.6364C718.939 52.9848 718.844 52.4148 718.655 51.9261C718.465 51.4337 718.185 51.0511 717.814 50.7784C717.443 50.5019 716.984 50.3636 716.439 50.3636C715.871 50.3636 715.397 50.5095 715.018 50.8011C714.643 51.089 714.361 51.4811 714.172 51.9773C713.986 52.4697 713.893 53.0227 713.893 53.6364C713.893 54.2576 713.988 54.822 714.178 55.3295C714.371 55.8333 714.655 56.2348 715.03 56.5341C715.409 56.8295 715.878 56.9773 716.439 56.9773ZM722.899 58V49.2727H724.195V50.5909H724.286C724.445 50.1591 724.732 49.8087 725.149 49.5398C725.566 49.2708 726.036 49.1364 726.558 49.1364C726.657 49.1364 726.78 49.1383 726.928 49.142C727.075 49.1458 727.187 49.1515 727.263 49.1591V50.5227C727.217 50.5114 727.113 50.4943 726.95 50.4716C726.791 50.4451 726.623 50.4318 726.445 50.4318C726.02 50.4318 725.642 50.5208 725.308 50.6989C724.979 50.8731 724.717 51.1155 724.524 51.4261C724.335 51.733 724.24 52.0833 724.24 52.4773V58H722.899ZM732.132 58.1818C731.344 58.1818 730.653 57.9943 730.058 57.6193C729.467 57.2443 729.005 56.7197 728.672 56.0455C728.342 55.3712 728.178 54.5833 728.178 53.6818C728.178 52.7727 728.342 51.9792 728.672 51.3011C729.005 50.6231 729.467 50.0966 730.058 49.7216C730.653 49.3466 731.344 49.1591 732.132 49.1591C732.92 49.1591 733.609 49.3466 734.2 49.7216C734.795 50.0966 735.257 50.6231 735.587 51.3011C735.92 51.9792 736.087 52.7727 736.087 53.6818C736.087 54.5833 735.92 55.3712 735.587 56.0455C735.257 56.7197 734.795 57.2443 734.2 57.6193C733.609 57.9943 732.92 58.1818 732.132 58.1818ZM732.132 56.9773C732.731 56.9773 733.223 56.8239 733.609 56.517C733.996 56.2102 734.282 55.8068 734.467 55.3068C734.653 54.8068 734.746 54.2652 734.746 53.6818C734.746 53.0985 734.653 52.5549 734.467 52.0511C734.282 51.5473 733.996 51.1402 733.609 50.8295C733.223 50.5189 732.731 50.3636 732.132 50.3636C731.534 50.3636 731.041 50.5189 730.655 50.8295C730.268 51.1402 729.982 51.5473 729.797 52.0511C729.611 52.5549 729.518 53.0985 729.518 53.6818C729.518 54.2652 729.611 54.8068 729.797 55.3068C729.982 55.8068 730.268 56.2102 730.655 56.517C731.041 56.8239 731.534 56.9773 732.132 56.9773ZM738.134 61.2727V49.2727H739.429V50.6591H739.588C739.687 50.5076 739.823 50.3144 739.997 50.0795C740.175 49.8409 740.429 49.6288 740.759 49.4432C741.092 49.2538 741.543 49.1591 742.111 49.1591C742.846 49.1591 743.493 49.3428 744.054 49.7102C744.615 50.0777 745.052 50.5985 745.366 51.2727C745.681 51.947 745.838 52.7424 745.838 53.6591C745.838 54.5833 745.681 55.3845 745.366 56.0625C745.052 56.7367 744.616 57.2595 744.06 57.6307C743.503 57.9981 742.861 58.1818 742.134 58.1818C741.573 58.1818 741.124 58.089 740.787 57.9034C740.45 57.714 740.19 57.5 740.009 57.2614C739.827 57.0189 739.687 56.8182 739.588 56.6591H739.474V61.2727H738.134ZM739.452 53.6364C739.452 54.2955 739.548 54.8769 739.741 55.3807C739.935 55.8807 740.217 56.2727 740.588 56.5568C740.959 56.8371 741.414 56.9773 741.952 56.9773C742.512 56.9773 742.98 56.8295 743.355 56.5341C743.734 56.2348 744.018 55.8333 744.207 55.3295C744.401 54.822 744.497 54.2576 744.497 53.6364C744.497 53.0227 744.402 52.4697 744.213 51.9773C744.027 51.4811 743.745 51.089 743.366 50.8011C742.991 50.5095 742.52 50.3636 741.952 50.3636C741.406 50.3636 740.948 50.5019 740.577 50.7784C740.205 51.0511 739.925 51.4337 739.736 51.9261C739.546 52.4148 739.452 52.9848 739.452 53.6364ZM751.179 58.1818C750.452 58.1818 749.81 57.9981 749.253 57.6307C748.696 57.2595 748.26 56.7367 747.946 56.0625C747.632 55.3845 747.474 54.5833 747.474 53.6591C747.474 52.7424 747.632 51.947 747.946 51.2727C748.26 50.5985 748.698 50.0777 749.259 49.7102C749.819 49.3428 750.467 49.1591 751.202 49.1591C751.77 49.1591 752.219 49.2538 752.548 49.4432C752.882 49.6288 753.135 49.8409 753.31 50.0795C753.488 50.3144 753.626 50.5076 753.724 50.6591H753.838V46.3636H755.179V58H753.884V56.6591H753.724C753.626 56.8182 753.486 57.0189 753.304 57.2614C753.122 57.5 752.863 57.714 752.526 57.9034C752.188 58.089 751.74 58.1818 751.179 58.1818ZM751.361 56.9773C751.899 56.9773 752.353 56.8371 752.724 56.5568C753.096 56.2727 753.378 55.8807 753.571 55.3807C753.764 54.8769 753.861 54.2955 753.861 53.6364C753.861 52.9848 753.766 52.4148 753.577 51.9261C753.387 51.4337 753.107 51.0511 752.736 50.7784C752.365 50.5019 751.906 50.3636 751.361 50.3636C750.793 50.3636 750.319 50.5095 749.94 50.8011C749.565 51.089 749.283 51.4811 749.094 51.9773C748.908 52.4697 748.815 53.0227 748.815 53.6364C748.815 54.2576 748.91 54.822 749.099 55.3295C749.293 55.8333 749.577 56.2348 749.952 56.5341C750.33 56.8295 750.8 56.9773 751.361 56.9773ZM761.366 58.1818C760.579 58.1818 759.887 57.9943 759.293 57.6193C758.702 57.2443 758.24 56.7197 757.906 56.0455C757.577 55.3712 757.412 54.5833 757.412 53.6818C757.412 52.7727 757.577 51.9792 757.906 51.3011C758.24 50.6231 758.702 50.0966 759.293 49.7216C759.887 49.3466 760.579 49.1591 761.366 49.1591C762.154 49.1591 762.844 49.3466 763.435 49.7216C764.029 50.0966 764.491 50.6231 764.821 51.3011C765.154 51.9792 765.321 52.7727 765.321 53.6818C765.321 54.5833 765.154 55.3712 764.821 56.0455C764.491 56.7197 764.029 57.2443 763.435 57.6193C762.844 57.9943 762.154 58.1818 761.366 58.1818ZM761.366 56.9773C761.965 56.9773 762.457 56.8239 762.844 56.517C763.23 56.2102 763.516 55.8068 763.702 55.3068C763.887 54.8068 763.98 54.2652 763.98 53.6818C763.98 53.0985 763.887 52.5549 763.702 52.0511C763.516 51.5473 763.23 51.1402 762.844 50.8295C762.457 50.5189 761.965 50.3636 761.366 50.3636C760.768 50.3636 760.276 50.5189 759.889 50.8295C759.503 51.1402 759.217 51.5473 759.031 52.0511C758.846 52.5549 758.753 53.0985 758.753 53.6818C758.753 54.2652 758.846 54.8068 759.031 55.3068C759.217 55.8068 759.503 56.2102 759.889 56.517C760.276 56.8239 760.768 56.9773 761.366 56.9773ZM769.048 58L766.389 49.2727H767.798L769.685 55.9545H769.776L771.639 49.2727H773.071L774.912 55.9318H775.003L776.889 49.2727H778.298L775.639 58H774.321L772.412 51.2955H772.276L770.366 58H769.048ZM781.412 52.75V58H780.071V49.2727H781.366V50.6364H781.48C781.685 50.1932 781.995 49.8371 782.412 49.5682C782.829 49.2955 783.366 49.1591 784.026 49.1591C784.616 49.1591 785.134 49.2803 785.577 49.5227C786.02 49.7614 786.365 50.125 786.611 50.6136C786.857 51.0985 786.98 51.7121 786.98 52.4545V58H785.639V52.5455C785.639 51.8598 785.461 51.3258 785.105 50.9432C784.749 50.5568 784.26 50.3636 783.639 50.3636C783.211 50.3636 782.829 50.4564 782.491 50.642C782.158 50.8277 781.895 51.0985 781.702 51.4545C781.509 51.8106 781.412 52.2424 781.412 52.75ZM793.93 58V49.2727H795.226V50.6364H795.339C795.521 50.1705 795.815 49.8087 796.22 49.5511C796.625 49.2898 797.112 49.1591 797.68 49.1591C798.256 49.1591 798.735 49.2898 799.118 49.5511C799.504 49.8087 799.805 50.1705 800.021 50.6364H800.112C800.336 50.1856 800.671 49.8277 801.118 49.5625C801.565 49.2936 802.101 49.1591 802.726 49.1591C803.506 49.1591 804.144 49.4034 804.641 49.892C805.137 50.3769 805.385 51.1326 805.385 52.1591V58H804.044V52.1591C804.044 51.5152 803.868 51.0549 803.516 50.7784C803.163 50.5019 802.749 50.3636 802.271 50.3636C801.658 50.3636 801.182 50.5492 800.845 50.9205C800.508 51.2879 800.339 51.7538 800.339 52.3182V58H798.976V52.0227C798.976 51.5265 798.815 51.1269 798.493 50.8239C798.171 50.517 797.756 50.3636 797.249 50.3636C796.9 50.3636 796.574 50.4564 796.271 50.642C795.972 50.8277 795.73 51.0852 795.544 51.4148C795.362 51.7405 795.271 52.1174 795.271 52.5455V58H793.93ZM811.496 58.1818C810.655 58.1818 809.929 57.9962 809.32 57.625C808.714 57.25 808.246 56.7273 807.916 56.0568C807.59 55.3826 807.428 54.5985 807.428 53.7045C807.428 52.8106 807.59 52.0227 807.916 51.3409C808.246 50.6553 808.704 50.1212 809.291 49.7386C809.882 49.3523 810.571 49.1591 811.359 49.1591C811.814 49.1591 812.263 49.2348 812.706 49.3864C813.149 49.5379 813.553 49.7841 813.916 50.125C814.28 50.4621 814.57 50.9091 814.786 51.4659C815.001 52.0227 815.109 52.7083 815.109 53.5227V54.0909H808.382V52.9318H813.746C813.746 52.4394 813.647 52 813.45 51.6136C813.257 51.2273 812.981 50.9223 812.621 50.6989C812.265 50.4754 811.844 50.3636 811.359 50.3636C810.825 50.3636 810.363 50.4962 809.973 50.7614C809.587 51.0227 809.289 51.3636 809.081 51.7841C808.873 52.2045 808.768 52.6553 808.768 53.1364V53.9091C808.768 54.5682 808.882 55.1269 809.109 55.5852C809.34 56.0398 809.661 56.3864 810.07 56.625C810.479 56.8598 810.954 56.9773 811.496 56.9773C811.848 56.9773 812.166 56.928 812.45 56.8295C812.738 56.7273 812.986 56.5758 813.195 56.375C813.403 56.1705 813.564 55.9167 813.678 55.6136L814.973 55.9773C814.837 56.4167 814.607 56.803 814.286 57.1364C813.964 57.4659 813.566 57.7235 813.092 57.9091C812.619 58.0909 812.087 58.1818 811.496 58.1818ZM818.49 52.75V58H817.149V49.2727H818.445V50.6364H818.558C818.763 50.1932 819.073 49.8371 819.49 49.5682C819.907 49.2955 820.445 49.1591 821.104 49.1591C821.695 49.1591 822.212 49.2803 822.655 49.5227C823.098 49.7614 823.443 50.125 823.689 50.6136C823.935 51.0985 824.058 51.7121 824.058 52.4545V58H822.717V52.5455C822.717 51.8598 822.539 51.3258 822.183 50.9432C821.827 50.5568 821.339 50.3636 820.717 50.3636C820.289 50.3636 819.907 50.4564 819.57 50.642C819.236 50.8277 818.973 51.0985 818.78 51.4545C818.587 51.8106 818.49 52.2424 818.49 52.75ZM832.009 54.4318V49.2727H833.349V58H832.009V56.5227H831.918C831.713 56.9659 831.395 57.3428 830.963 57.6534C830.531 57.9602 829.986 58.1136 829.327 58.1136C828.781 58.1136 828.296 57.9943 827.872 57.7557C827.448 57.5133 827.115 57.1496 826.872 56.6648C826.63 56.1761 826.509 55.5606 826.509 54.8182V49.2727H827.849V54.7273C827.849 55.3636 828.027 55.8712 828.384 56.25C828.743 56.6288 829.202 56.8182 829.759 56.8182C830.092 56.8182 830.431 56.733 830.776 56.5625C831.124 56.392 831.416 56.1307 831.651 55.7784C831.889 55.4261 832.009 54.9773 832.009 54.4318ZM842.283 58L839.624 49.2727H841.033L842.919 55.9545H843.01L844.874 49.2727H846.305L848.146 55.9318H848.237L850.124 49.2727H851.533L848.874 58H847.555L845.646 51.2955H845.51L843.601 58H842.283ZM854.646 52.75V58H853.305V46.3636H854.646V50.6364H854.76C854.964 50.1856 855.271 49.8277 855.68 49.5625C856.093 49.2936 856.643 49.1591 857.328 49.1591C857.923 49.1591 858.444 49.2784 858.891 49.517C859.338 49.7519 859.684 50.1136 859.93 50.6023C860.18 51.0871 860.305 51.7045 860.305 52.4545V58H858.964V52.5455C858.964 51.8523 858.785 51.3163 858.425 50.9375C858.069 50.5549 857.574 50.3636 856.942 50.3636C856.502 50.3636 856.108 50.4564 855.76 50.642C855.415 50.8277 855.143 51.0985 854.942 51.4545C854.745 51.8106 854.646 52.2424 854.646 52.75ZM866.418 58.1818C865.577 58.1818 864.851 57.9962 864.241 57.625C863.635 57.25 863.168 56.7273 862.838 56.0568C862.512 55.3826 862.349 54.5985 862.349 53.7045C862.349 52.8106 862.512 52.0227 862.838 51.3409C863.168 50.6553 863.626 50.1212 864.213 49.7386C864.804 49.3523 865.493 49.1591 866.281 49.1591C866.736 49.1591 867.185 49.2348 867.628 49.3864C868.071 49.5379 868.474 49.7841 868.838 50.125C869.202 50.4621 869.491 50.9091 869.707 51.4659C869.923 52.0227 870.031 52.7083 870.031 53.5227V54.0909H863.304V52.9318H868.668C868.668 52.4394 868.569 52 868.372 51.6136C868.179 51.2273 867.902 50.9223 867.543 50.6989C867.187 50.4754 866.766 50.3636 866.281 50.3636C865.747 50.3636 865.285 50.4962 864.895 50.7614C864.509 51.0227 864.211 51.3636 864.003 51.7841C863.795 52.2045 863.69 52.6553 863.69 53.1364V53.9091C863.69 54.5682 863.804 55.1269 864.031 55.5852C864.262 56.0398 864.582 56.3864 864.991 56.625C865.401 56.8598 865.876 56.9773 866.418 56.9773C866.77 56.9773 867.088 56.928 867.372 56.8295C867.66 56.7273 867.908 56.5758 868.116 56.375C868.325 56.1705 868.486 55.9167 868.599 55.6136L869.895 55.9773C869.759 56.4167 869.529 56.803 869.207 57.1364C868.885 57.4659 868.488 57.7235 868.014 57.9091C867.541 58.0909 867.009 58.1818 866.418 58.1818ZM873.412 52.75V58H872.071V49.2727H873.366V50.6364H873.48C873.685 50.1932 873.995 49.8371 874.412 49.5682C874.829 49.2955 875.366 49.1591 876.026 49.1591C876.616 49.1591 877.134 49.2803 877.577 49.5227C878.02 49.7614 878.365 50.125 878.611 50.6136C878.857 51.0985 878.98 51.7121 878.98 52.4545V58H877.639V52.5455C877.639 51.8598 877.461 51.3258 877.105 50.9432C876.749 50.5568 876.26 50.3636 875.639 50.3636C875.211 50.3636 874.829 50.4564 874.491 50.642C874.158 50.8277 873.895 51.0985 873.702 51.4545C873.509 51.8106 873.412 52.2424 873.412 52.75ZM889.726 49.2727V50.4091H885.203V49.2727H889.726ZM886.521 47.1818H887.862V55.5C887.862 55.8788 887.917 56.1629 888.027 56.3523C888.141 56.5379 888.285 56.6629 888.459 56.7273C888.637 56.7879 888.824 56.8182 889.021 56.8182C889.169 56.8182 889.29 56.8106 889.385 56.7955C889.48 56.7765 889.555 56.7614 889.612 56.75L889.885 57.9545C889.794 57.9886 889.667 58.0227 889.504 58.0568C889.341 58.0947 889.135 58.1136 888.885 58.1136C888.506 58.1136 888.135 58.0322 887.771 57.8693C887.411 57.7064 887.112 57.4583 886.874 57.125C886.639 56.7917 886.521 56.3712 886.521 55.8636V47.1818ZM893.271 52.75V58H891.93V46.3636H893.271V50.6364H893.385C893.589 50.1856 893.896 49.8277 894.305 49.5625C894.718 49.2936 895.268 49.1591 895.953 49.1591C896.548 49.1591 897.069 49.2784 897.516 49.517C897.963 49.7519 898.309 50.1136 898.555 50.6023C898.805 51.0871 898.93 51.7045 898.93 52.4545V58H897.589V52.5455C897.589 51.8523 897.41 51.3163 897.05 50.9375C896.694 50.5549 896.199 50.3636 895.567 50.3636C895.127 50.3636 894.733 50.4564 894.385 50.642C894.04 50.8277 893.768 51.0985 893.567 51.4545C893.37 51.8106 893.271 52.2424 893.271 52.75ZM905.043 58.1818C904.202 58.1818 903.476 57.9962 902.866 57.625C902.26 57.25 901.793 56.7273 901.463 56.0568C901.137 55.3826 900.974 54.5985 900.974 53.7045C900.974 52.8106 901.137 52.0227 901.463 51.3409C901.793 50.6553 902.251 50.1212 902.838 49.7386C903.429 49.3523 904.118 49.1591 904.906 49.1591C905.361 49.1591 905.81 49.2348 906.253 49.3864C906.696 49.5379 907.099 49.7841 907.463 50.125C907.827 50.4621 908.116 50.9091 908.332 51.4659C908.548 52.0227 908.656 52.7083 908.656 53.5227V54.0909H901.929V52.9318H907.293C907.293 52.4394 907.194 52 906.997 51.6136C906.804 51.2273 906.527 50.9223 906.168 50.6989C905.812 50.4754 905.391 50.3636 904.906 50.3636C904.372 50.3636 903.91 50.4962 903.52 50.7614C903.134 51.0227 902.836 51.3636 902.628 51.7841C902.42 52.2045 902.315 52.6553 902.315 53.1364V53.9091C902.315 54.5682 902.429 55.1269 902.656 55.5852C902.887 56.0398 903.207 56.3864 903.616 56.625C904.026 56.8598 904.501 56.9773 905.043 56.9773C905.395 56.9773 905.713 56.928 905.997 56.8295C906.285 56.7273 906.533 56.5758 906.741 56.375C906.95 56.1705 907.111 55.9167 907.224 55.6136L908.52 55.9773C908.384 56.4167 908.154 56.803 907.832 57.1364C907.51 57.4659 907.113 57.7235 906.639 57.9091C906.166 58.0909 905.634 58.1818 905.043 58.1818ZM918.491 58.1818C917.764 58.1818 917.122 57.9981 916.565 57.6307C916.009 57.2595 915.573 56.7367 915.259 56.0625C914.944 55.3845 914.787 54.5833 914.787 53.6591C914.787 52.7424 914.944 51.947 915.259 51.2727C915.573 50.5985 916.01 50.0777 916.571 49.7102C917.132 49.3428 917.779 49.1591 918.514 49.1591C919.082 49.1591 919.531 49.2538 919.861 49.4432C920.194 49.6288 920.448 49.8409 920.622 50.0795C920.8 50.3144 920.938 50.5076 921.037 50.6591H921.151V46.3636H922.491V58H921.196V56.6591H921.037C920.938 56.8182 920.798 57.0189 920.616 57.2614C920.435 57.5 920.175 57.714 919.838 57.9034C919.501 58.089 919.052 58.1818 918.491 58.1818ZM918.673 56.9773C919.211 56.9773 919.666 56.8371 920.037 56.5568C920.408 56.2727 920.69 55.8807 920.884 55.3807C921.077 54.8769 921.173 54.2955 921.173 53.6364C921.173 52.9848 921.079 52.4148 920.889 51.9261C920.7 51.4337 920.42 51.0511 920.048 50.7784C919.677 50.5019 919.219 50.3636 918.673 50.3636C918.105 50.3636 917.632 50.5095 917.253 50.8011C916.878 51.089 916.596 51.4811 916.406 51.9773C916.221 52.4697 916.128 53.0227 916.128 53.6364C916.128 54.2576 916.223 54.822 916.412 55.3295C916.605 55.8333 916.889 56.2348 917.264 56.5341C917.643 56.8295 918.113 56.9773 918.673 56.9773ZM928.679 58.1818C927.891 58.1818 927.2 57.9943 926.605 57.6193C926.014 57.2443 925.552 56.7197 925.219 56.0455C924.889 55.3712 924.724 54.5833 924.724 53.6818C924.724 52.7727 924.889 51.9792 925.219 51.3011C925.552 50.6231 926.014 50.0966 926.605 49.7216C927.2 49.3466 927.891 49.1591 928.679 49.1591C929.467 49.1591 930.156 49.3466 930.747 49.7216C931.342 50.0966 931.804 50.6231 932.134 51.3011C932.467 51.9792 932.634 52.7727 932.634 53.6818C932.634 54.5833 932.467 55.3712 932.134 56.0455C931.804 56.7197 931.342 57.2443 930.747 57.6193C930.156 57.9943 929.467 58.1818 928.679 58.1818ZM928.679 56.9773C929.277 56.9773 929.77 56.8239 930.156 56.517C930.543 56.2102 930.829 55.8068 931.014 55.3068C931.2 54.8068 931.293 54.2652 931.293 53.6818C931.293 53.0985 931.2 52.5549 931.014 52.0511C930.829 51.5473 930.543 51.1402 930.156 50.8295C929.77 50.5189 929.277 50.3636 928.679 50.3636C928.08 50.3636 927.588 50.5189 927.202 50.8295C926.815 51.1402 926.529 51.5473 926.344 52.0511C926.158 52.5549 926.065 53.0985 926.065 53.6818C926.065 54.2652 926.158 54.8068 926.344 55.3068C926.529 55.8068 926.815 56.2102 927.202 56.517C927.588 56.8239 928.08 56.9773 928.679 56.9773ZM936.361 58L933.702 49.2727H935.111L936.997 55.9545H937.088L938.952 49.2727H940.384L942.224 55.9318H942.315L944.202 49.2727H945.611L942.952 58H941.634L939.724 51.2955H939.588L937.679 58H936.361ZM948.724 52.75V58H947.384V49.2727H948.679V50.6364H948.793C948.997 50.1932 949.308 49.8371 949.724 49.5682C950.141 49.2955 950.679 49.1591 951.338 49.1591C951.929 49.1591 952.446 49.2803 952.889 49.5227C953.332 49.7614 953.677 50.125 953.923 50.6136C954.17 51.0985 954.293 51.7121 954.293 52.4545V58H952.952V52.5455C952.952 51.8598 952.774 51.3258 952.418 50.9432C952.062 50.5568 951.573 50.3636 950.952 50.3636C950.524 50.3636 950.141 50.4564 949.804 50.642C949.471 50.8277 949.207 51.0985 949.014 51.4545C948.821 51.8106 948.724 52.2424 948.724 52.75ZM963.811 58.2045C963.258 58.2045 962.756 58.1004 962.305 57.892C961.855 57.6799 961.497 57.375 961.232 56.9773C960.966 56.5758 960.834 56.0909 960.834 55.5227C960.834 55.0227 960.932 54.6174 961.129 54.3068C961.326 53.9924 961.589 53.7462 961.919 53.5682C962.249 53.3902 962.612 53.2576 963.01 53.1705C963.411 53.0795 963.815 53.0076 964.22 52.9545C964.75 52.8864 965.18 52.8352 965.51 52.8011C965.843 52.7633 966.086 52.7008 966.237 52.6136C966.393 52.5265 966.47 52.375 966.47 52.1591V52.1136C966.47 51.553 966.317 51.1174 966.01 50.8068C965.707 50.4962 965.247 50.3409 964.629 50.3409C963.989 50.3409 963.487 50.4811 963.124 50.7614C962.76 51.0417 962.504 51.3409 962.357 51.6591L961.084 51.2045C961.311 50.6742 961.614 50.2614 961.993 49.9659C962.375 49.6667 962.792 49.4583 963.243 49.3409C963.697 49.2197 964.144 49.1591 964.584 49.1591C964.864 49.1591 965.186 49.1932 965.55 49.2614C965.917 49.3258 966.271 49.4602 966.612 49.6648C966.957 49.8693 967.243 50.178 967.47 50.5909C967.697 51.0038 967.811 51.5568 967.811 52.25V58H966.47V56.8182H966.402C966.311 57.0076 966.16 57.2102 965.947 57.4261C965.735 57.642 965.453 57.8258 965.101 57.9773C964.749 58.1288 964.319 58.2045 963.811 58.2045ZM964.016 57C964.546 57 964.993 56.8958 965.357 56.6875C965.724 56.4792 966 56.2102 966.186 55.8807C966.375 55.5511 966.47 55.2045 966.47 54.8409V53.6136C966.413 53.6818 966.288 53.7443 966.095 53.8011C965.906 53.8542 965.686 53.9015 965.436 53.9432C965.19 53.9811 964.949 54.0152 964.714 54.0455C964.483 54.072 964.296 54.0947 964.152 54.1136C963.804 54.1591 963.478 54.233 963.175 54.3352C962.875 54.4337 962.633 54.5833 962.447 54.7841C962.266 54.9811 962.175 55.25 962.175 55.5909C962.175 56.0568 962.347 56.4091 962.692 56.6477C963.04 56.8826 963.482 57 964.016 57ZM970.259 58V49.2727H971.554V50.5909H971.645C971.804 50.1591 972.092 49.8087 972.509 49.5398C972.925 49.2708 973.395 49.1364 973.918 49.1364C974.016 49.1364 974.139 49.1383 974.287 49.142C974.435 49.1458 974.546 49.1515 974.622 49.1591V50.5227C974.577 50.5114 974.473 50.4943 974.31 50.4716C974.151 50.4451 973.982 50.4318 973.804 50.4318C973.38 50.4318 973.001 50.5208 972.668 50.6989C972.338 50.8731 972.077 51.1155 971.884 51.4261C971.694 51.733 971.599 52.0833 971.599 52.4773V58H970.259ZM976.212 58V49.2727H977.507V50.5909H977.598C977.757 50.1591 978.045 49.8087 978.462 49.5398C978.878 49.2708 979.348 49.1364 979.871 49.1364C979.969 49.1364 980.092 49.1383 980.24 49.142C980.388 49.1458 980.5 49.1515 980.575 49.1591V50.5227C980.53 50.5114 980.426 50.4943 980.263 50.4716C980.104 50.4451 979.935 50.4318 979.757 50.4318C979.333 50.4318 978.954 50.5208 978.621 50.6989C978.291 50.8731 978.03 51.1155 977.837 51.4261C977.647 51.733 977.553 52.0833 977.553 52.4773V58H976.212ZM985.445 58.1818C984.657 58.1818 983.965 57.9943 983.371 57.6193C982.78 57.2443 982.318 56.7197 981.984 56.0455C981.655 55.3712 981.49 54.5833 981.49 53.6818C981.49 52.7727 981.655 51.9792 981.984 51.3011C982.318 50.6231 982.78 50.0966 983.371 49.7216C983.965 49.3466 984.657 49.1591 985.445 49.1591C986.232 49.1591 986.922 49.3466 987.513 49.7216C988.107 50.0966 988.57 50.6231 988.899 51.3011C989.232 51.9792 989.399 52.7727 989.399 53.6818C989.399 54.5833 989.232 55.3712 988.899 56.0455C988.57 56.7197 988.107 57.2443 987.513 57.6193C986.922 57.9943 986.232 58.1818 985.445 58.1818ZM985.445 56.9773C986.043 56.9773 986.536 56.8239 986.922 56.517C987.308 56.2102 987.594 55.8068 987.78 55.3068C987.965 54.8068 988.058 54.2652 988.058 53.6818C988.058 53.0985 987.965 52.5549 987.78 52.0511C987.594 51.5473 987.308 51.1402 986.922 50.8295C986.536 50.5189 986.043 50.3636 985.445 50.3636C984.846 50.3636 984.354 50.5189 983.967 50.8295C983.581 51.1402 983.295 51.5473 983.109 52.0511C982.924 52.5549 982.831 53.0985 982.831 53.6818C982.831 54.2652 982.924 54.8068 983.109 55.3068C983.295 55.8068 983.581 56.2102 983.967 56.517C984.354 56.8239 984.846 56.9773 985.445 56.9773ZM993.126 58L990.467 49.2727H991.876L993.763 55.9545H993.854L995.717 49.2727H997.149L998.99 55.9318H999.081L1000.97 49.2727H1002.38L999.717 58H998.399L996.49 51.2955H996.354L994.445 58H993.126ZM1008.65 58V49.2727H1009.99V58H1008.65ZM1009.33 47.8182C1009.07 47.8182 1008.84 47.7292 1008.65 47.5511C1008.47 47.3731 1008.38 47.1591 1008.38 46.9091C1008.38 46.6591 1008.47 46.4451 1008.65 46.267C1008.84 46.089 1009.07 46 1009.33 46C1009.59 46 1009.82 46.089 1010 46.267C1010.19 46.4451 1010.29 46.6591 1010.29 46.9091C1010.29 47.1591 1010.19 47.3731 1010 47.5511C1009.82 47.7292 1009.59 47.8182 1009.33 47.8182ZM1015.99 58.1818C1015.17 58.1818 1014.47 57.9886 1013.88 57.6023C1013.29 57.2159 1012.83 56.6837 1012.51 56.0057C1012.2 55.3277 1012.04 54.553 1012.04 53.6818C1012.04 52.7955 1012.2 52.0133 1012.53 51.3352C1012.86 50.6534 1013.31 50.1212 1013.9 49.7386C1014.49 49.3523 1015.18 49.1591 1015.97 49.1591C1016.58 49.1591 1017.14 49.2727 1017.63 49.5C1018.12 49.7273 1018.52 50.0455 1018.84 50.4545C1019.15 50.8636 1019.35 51.3409 1019.42 51.8864H1018.08C1017.98 51.4886 1017.75 51.1364 1017.4 50.8295C1017.05 50.5189 1016.58 50.3636 1015.99 50.3636C1015.47 50.3636 1015.01 50.5 1014.62 50.7727C1014.23 51.0417 1013.92 51.4223 1013.7 51.9148C1013.49 52.4034 1013.38 52.9773 1013.38 53.6364C1013.38 54.3106 1013.48 54.8977 1013.7 55.3977C1013.91 55.8977 1014.21 56.286 1014.61 56.5625C1015 56.839 1015.46 56.9773 1015.99 56.9773C1016.34 56.9773 1016.66 56.9167 1016.94 56.7955C1017.22 56.6742 1017.46 56.5 1017.66 56.2727C1017.86 56.0455 1018 55.7727 1018.08 55.4545H1019.42C1019.35 55.9697 1019.16 56.4337 1018.86 56.8466C1018.57 57.2557 1018.17 57.5814 1017.68 57.8239C1017.2 58.0625 1016.64 58.1818 1015.99 58.1818ZM1024.93 58.1818C1024.14 58.1818 1023.45 57.9943 1022.86 57.6193C1022.26 57.2443 1021.8 56.7197 1021.47 56.0455C1021.14 55.3712 1020.97 54.5833 1020.97 53.6818C1020.97 52.7727 1021.14 51.9792 1021.47 51.3011C1021.8 50.6231 1022.26 50.0966 1022.86 49.7216C1023.45 49.3466 1024.14 49.1591 1024.93 49.1591C1025.72 49.1591 1026.41 49.3466 1027 49.7216C1027.59 50.0966 1028.05 50.6231 1028.38 51.3011C1028.72 51.9792 1028.88 52.7727 1028.88 53.6818C1028.88 54.5833 1028.72 55.3712 1028.38 56.0455C1028.05 56.7197 1027.59 57.2443 1027 57.6193C1026.41 57.9943 1025.72 58.1818 1024.93 58.1818ZM1024.93 56.9773C1025.53 56.9773 1026.02 56.8239 1026.41 56.517C1026.79 56.2102 1027.08 55.8068 1027.26 55.3068C1027.45 54.8068 1027.54 54.2652 1027.54 53.6818C1027.54 53.0985 1027.45 52.5549 1027.26 52.0511C1027.08 51.5473 1026.79 51.1402 1026.41 50.8295C1026.02 50.5189 1025.53 50.3636 1024.93 50.3636C1024.33 50.3636 1023.84 50.5189 1023.45 50.8295C1023.07 51.1402 1022.78 51.5473 1022.59 52.0511C1022.41 52.5549 1022.32 53.0985 1022.32 53.6818C1022.32 54.2652 1022.41 54.8068 1022.59 55.3068C1022.78 55.8068 1023.07 56.2102 1023.45 56.517C1023.84 56.8239 1024.33 56.9773 1024.93 56.9773ZM1032.27 52.75V58H1030.93V49.2727H1032.23V50.6364H1032.34C1032.54 50.1932 1032.85 49.8371 1033.27 49.5682C1033.69 49.2955 1034.23 49.1591 1034.88 49.1591C1035.48 49.1591 1035.99 49.2803 1036.44 49.5227C1036.88 49.7614 1037.22 50.125 1037.47 50.6136C1037.72 51.0985 1037.84 51.7121 1037.84 52.4545V58H1036.5V52.5455C1036.5 51.8598 1036.32 51.3258 1035.96 50.9432C1035.61 50.5568 1035.12 50.3636 1034.5 50.3636C1034.07 50.3636 1033.69 50.4564 1033.35 50.642C1033.02 50.8277 1032.75 51.0985 1032.56 51.4545C1032.37 51.8106 1032.27 52.2424 1032.27 52.75ZM1044.79 58V49.2727H1046.13V58H1044.79ZM1045.47 47.8182C1045.21 47.8182 1044.98 47.7292 1044.8 47.5511C1044.61 47.3731 1044.52 47.1591 1044.52 46.9091C1044.52 46.6591 1044.61 46.4451 1044.8 46.267C1044.98 46.089 1045.21 46 1045.47 46C1045.73 46 1045.96 46.089 1046.14 46.267C1046.33 46.4451 1046.43 46.6591 1046.43 46.9091C1046.43 47.1591 1046.33 47.3731 1046.14 47.5511C1045.96 47.7292 1045.73 47.8182 1045.47 47.8182ZM1054.77 51.2273L1053.56 51.5682C1053.49 51.3674 1053.38 51.1723 1053.23 50.983C1053.08 50.7898 1052.89 50.6307 1052.64 50.5057C1052.39 50.3807 1052.07 50.3182 1051.68 50.3182C1051.14 50.3182 1050.7 50.4413 1050.34 50.6875C1049.99 50.9299 1049.81 51.2386 1049.81 51.6136C1049.81 51.947 1049.94 52.2102 1050.18 52.4034C1050.42 52.5966 1050.8 52.7576 1051.31 52.8864L1052.61 53.2045C1053.39 53.3939 1053.97 53.6837 1054.35 54.0739C1054.74 54.4602 1054.93 54.9583 1054.93 55.5682C1054.93 56.0682 1054.78 56.5152 1054.5 56.9091C1054.21 57.303 1053.81 57.6136 1053.3 57.8409C1052.79 58.0682 1052.2 58.1818 1051.52 58.1818C1050.63 58.1818 1049.89 57.9886 1049.31 57.6023C1048.72 57.2159 1048.36 56.6515 1048.2 55.9091L1049.47 55.5909C1049.59 56.0606 1049.82 56.4129 1050.16 56.6477C1050.5 56.8826 1050.95 57 1051.5 57C1052.12 57 1052.62 56.8674 1052.98 56.6023C1053.36 56.3333 1053.54 56.0114 1053.54 55.6364C1053.54 55.3333 1053.44 55.0795 1053.22 54.875C1053.01 54.6667 1052.69 54.5114 1052.25 54.4091L1050.79 54.0682C1049.99 53.8788 1049.4 53.5852 1049.03 53.1875C1048.66 52.786 1048.47 52.2841 1048.47 51.6818C1048.47 51.1894 1048.61 50.7538 1048.89 50.375C1049.17 49.9962 1049.55 49.6989 1050.03 49.483C1050.51 49.267 1051.06 49.1591 1051.68 49.1591C1052.54 49.1591 1053.22 49.3485 1053.71 49.7273C1054.21 50.1061 1054.56 50.6061 1054.77 51.2273ZM634.114 73.2727V74.4091H629.409V73.2727H634.114ZM630.818 82V72.0682C630.818 71.5682 630.936 71.1515 631.17 70.8182C631.405 70.4848 631.71 70.2348 632.085 70.0682C632.46 69.9015 632.856 69.8182 633.273 69.8182C633.602 69.8182 633.871 69.8447 634.08 69.8977C634.288 69.9508 634.443 70 634.545 70.0455L634.159 71.2045C634.091 71.1818 633.996 71.1534 633.875 71.1193C633.758 71.0852 633.602 71.0682 633.409 71.0682C632.966 71.0682 632.646 71.1799 632.449 71.4034C632.256 71.6269 632.159 71.9545 632.159 72.3864V82H630.818ZM639.179 82.1818C638.391 82.1818 637.7 81.9943 637.105 81.6193C636.514 81.2443 636.052 80.7197 635.719 80.0455C635.389 79.3712 635.224 78.5833 635.224 77.6818C635.224 76.7727 635.389 75.9792 635.719 75.3011C636.052 74.6231 636.514 74.0966 637.105 73.7216C637.7 73.3466 638.391 73.1591 639.179 73.1591C639.967 73.1591 640.656 73.3466 641.247 73.7216C641.842 74.0966 642.304 74.6231 642.634 75.3011C642.967 75.9792 643.134 76.7727 643.134 77.6818C643.134 78.5833 642.967 79.3712 642.634 80.0455C642.304 80.7197 641.842 81.2443 641.247 81.6193C640.656 81.9943 639.967 82.1818 639.179 82.1818ZM639.179 80.9773C639.777 80.9773 640.27 80.8239 640.656 80.517C641.043 80.2102 641.329 79.8068 641.514 79.3068C641.7 78.8068 641.793 78.2652 641.793 77.6818C641.793 77.0985 641.7 76.5549 641.514 76.0511C641.329 75.5473 641.043 75.1402 640.656 74.8295C640.27 74.5189 639.777 74.3636 639.179 74.3636C638.58 74.3636 638.088 74.5189 637.702 74.8295C637.315 75.1402 637.029 75.5473 636.844 76.0511C636.658 76.5549 636.565 77.0985 636.565 77.6818C636.565 78.2652 636.658 78.8068 636.844 79.3068C637.029 79.8068 637.315 80.2102 637.702 80.517C638.088 80.8239 638.58 80.9773 639.179 80.9773ZM648.726 82.1818C647.908 82.1818 647.203 81.9886 646.612 81.6023C646.021 81.2159 645.567 80.6837 645.249 80.0057C644.93 79.3277 644.771 78.553 644.771 77.6818C644.771 76.7955 644.934 76.0133 645.26 75.3352C645.589 74.6534 646.048 74.1212 646.635 73.7386C647.226 73.3523 647.915 73.1591 648.703 73.1591C649.317 73.1591 649.87 73.2727 650.362 73.5C650.855 73.7273 651.258 74.0455 651.572 74.4545C651.887 74.8636 652.082 75.3409 652.158 75.8864H650.817C650.714 75.4886 650.487 75.1364 650.135 74.8295C649.786 74.5189 649.317 74.3636 648.726 74.3636C648.203 74.3636 647.745 74.5 647.351 74.7727C646.961 75.0417 646.656 75.4223 646.436 75.9148C646.22 76.4034 646.112 76.9773 646.112 77.6364C646.112 78.3106 646.218 78.8977 646.43 79.3977C646.646 79.8977 646.949 80.286 647.339 80.5625C647.733 80.839 648.196 80.9773 648.726 80.9773C649.074 80.9773 649.391 80.9167 649.675 80.7955C649.959 80.6742 650.199 80.5 650.396 80.2727C650.593 80.0455 650.733 79.7727 650.817 79.4545H652.158C652.082 79.9697 651.894 80.4337 651.595 80.8466C651.3 81.2557 650.908 81.5814 650.419 81.8239C649.934 82.0625 649.37 82.1818 648.726 82.1818ZM659.618 78.4318V73.2727H660.959V82H659.618V80.5227H659.527C659.322 80.9659 659.004 81.3428 658.572 81.6534C658.141 81.9602 657.595 82.1136 656.936 82.1136C656.391 82.1136 655.906 81.9943 655.482 81.7557C655.057 81.5133 654.724 81.1496 654.482 80.6648C654.239 80.1761 654.118 79.5606 654.118 78.8182V73.2727H655.459V78.7273C655.459 79.3636 655.637 79.8712 655.993 80.25C656.353 80.6288 656.811 80.8182 657.368 80.8182C657.701 80.8182 658.04 80.733 658.385 80.5625C658.733 80.392 659.025 80.1307 659.26 79.7784C659.499 79.4261 659.618 78.9773 659.618 78.4318ZM669.597 75.2273L668.392 75.5682C668.316 75.3674 668.205 75.1723 668.057 74.983C667.913 74.7898 667.716 74.6307 667.466 74.5057C667.216 74.3807 666.896 74.3182 666.506 74.3182C665.972 74.3182 665.527 74.4413 665.17 74.6875C664.818 74.9299 664.642 75.2386 664.642 75.6136C664.642 75.947 664.763 76.2102 665.006 76.4034C665.248 76.5966 665.627 76.7576 666.142 76.8864L667.438 77.2045C668.218 77.3939 668.799 77.6837 669.182 78.0739C669.564 78.4602 669.756 78.9583 669.756 79.5682C669.756 80.0682 669.612 80.5152 669.324 80.9091C669.04 81.303 668.642 81.6136 668.131 81.8409C667.619 82.0682 667.025 82.1818 666.347 82.1818C665.456 82.1818 664.72 81.9886 664.136 81.6023C663.553 81.2159 663.184 80.6515 663.028 79.9091L664.301 79.5909C664.422 80.0606 664.652 80.4129 664.989 80.6477C665.33 80.8826 665.775 81 666.324 81C666.949 81 667.445 80.8674 667.812 80.6023C668.184 80.3333 668.369 80.0114 668.369 79.6364C668.369 79.3333 668.263 79.0795 668.051 78.875C667.839 78.6667 667.513 78.5114 667.074 78.4091L665.619 78.0682C664.82 77.8788 664.233 77.5852 663.858 77.1875C663.487 76.786 663.301 76.2841 663.301 75.6818C663.301 75.1894 663.439 74.7538 663.716 74.375C663.996 73.9962 664.377 73.6989 664.858 73.483C665.343 73.267 665.892 73.1591 666.506 73.1591C667.369 73.1591 668.047 73.3485 668.54 73.7273C669.036 74.1061 669.388 74.6061 669.597 75.2273ZM675.433 82.1818C674.592 82.1818 673.867 81.9962 673.257 81.625C672.651 81.25 672.183 80.7273 671.854 80.0568C671.528 79.3826 671.365 78.5985 671.365 77.7045C671.365 76.8106 671.528 76.0227 671.854 75.3409C672.183 74.6553 672.642 74.1212 673.229 73.7386C673.82 73.3523 674.509 73.1591 675.297 73.1591C675.751 73.1591 676.2 73.2348 676.643 73.3864C677.087 73.5379 677.49 73.7841 677.854 74.125C678.217 74.4621 678.507 74.9091 678.723 75.4659C678.939 76.0227 679.047 76.7083 679.047 77.5227V78.0909H672.32V76.9318H677.683C677.683 76.4394 677.585 76 677.388 75.6136C677.195 75.2273 676.918 74.9223 676.558 74.6989C676.202 74.4754 675.782 74.3636 675.297 74.3636C674.763 74.3636 674.301 74.4962 673.911 74.7614C673.524 75.0227 673.227 75.3636 673.018 75.7841C672.81 76.2045 672.706 76.6553 672.706 77.1364V77.9091C672.706 78.5682 672.82 79.1269 673.047 79.5852C673.278 80.0398 673.598 80.3864 674.007 80.625C674.416 80.8598 674.892 80.9773 675.433 80.9773C675.786 80.9773 676.104 80.928 676.388 80.8295C676.676 80.7273 676.924 80.5758 677.132 80.375C677.34 80.1705 677.501 79.9167 677.615 79.6136L678.911 79.9773C678.774 80.4167 678.545 80.803 678.223 81.1364C677.901 81.4659 677.503 81.7235 677.03 81.9091C676.556 82.0909 676.024 82.1818 675.433 82.1818ZM684.382 82.1818C683.655 82.1818 683.013 81.9981 682.456 81.6307C681.899 81.2595 681.464 80.7367 681.149 80.0625C680.835 79.3845 680.678 78.5833 680.678 77.6591C680.678 76.7424 680.835 75.947 681.149 75.2727C681.464 74.5985 681.901 74.0777 682.462 73.7102C683.022 73.3428 683.67 73.1591 684.405 73.1591C684.973 73.1591 685.422 73.2538 685.751 73.4432C686.085 73.6288 686.339 73.8409 686.513 74.0795C686.691 74.3144 686.829 74.5076 686.928 74.6591H687.041V70.3636H688.382V82H687.087V80.6591H686.928C686.829 80.8182 686.689 81.0189 686.507 81.2614C686.325 81.5 686.066 81.714 685.729 81.9034C685.392 82.089 684.943 82.1818 684.382 82.1818ZM684.564 80.9773C685.102 80.9773 685.556 80.8371 685.928 80.5568C686.299 80.2727 686.581 79.8807 686.774 79.3807C686.967 78.8769 687.064 78.2955 687.064 77.6364C687.064 76.9848 686.969 76.4148 686.78 75.9261C686.59 75.4337 686.31 75.0511 685.939 74.7784C685.568 74.5019 685.109 74.3636 684.564 74.3636C683.996 74.3636 683.522 74.5095 683.143 74.8011C682.768 75.089 682.486 75.4811 682.297 75.9773C682.111 76.4697 682.018 77.0227 682.018 77.6364C682.018 78.2576 682.113 78.822 682.303 79.3295C682.496 79.8333 682.78 80.2348 683.155 80.5341C683.534 80.8295 684.003 80.9773 684.564 80.9773Z" fill="white" fill-opacity="0.95"/>
</svg>
