<svg width="35" height="64" viewBox="0 0 35 64" fill="none" xmlns="http://www.w3.org/2000/svg">
<rect x="9.5" width="16" height="16" rx="8" fill="#1170CF"/>
<g clip-path="url(#clip0_1275_485109)">
<path d="M20.6685 10.6382C21.2841 9.89687 21.6211 8.96362 21.6211 8.00004C21.6211 7.03645 21.2841 6.10321 20.6685 5.36191L22.6402 3.39009C22.6758 3.35543 22.7041 3.31406 22.7235 3.26837C22.7429 3.22269 22.7531 3.1736 22.7534 3.12396C22.7537 3.07431 22.7442 3.0251 22.7253 2.97917C22.7065 2.93325 22.6787 2.89152 22.6436 2.85642C22.6085 2.82131 22.5668 2.79353 22.5208 2.77467C22.4749 2.75582 22.4257 2.74627 22.376 2.74659C22.3264 2.7469 22.2773 2.75707 22.2316 2.77651C22.1859 2.79594 22.1446 2.82425 22.1099 2.8598L20.1388 4.83091C19.3982 4.21327 18.4644 3.87499 17.5 3.87499C16.5357 3.87499 15.6018 4.21327 14.8612 4.83091L12.8902 2.8598C12.8196 2.79094 12.7247 2.75269 12.626 2.75331C12.5274 2.75394 12.433 2.79339 12.3633 2.86314C12.2935 2.93288 12.2541 3.0273 12.2534 3.12593C12.2528 3.22456 12.2911 3.31946 12.3599 3.39009L14.3315 5.36165C13.7158 6.10297 13.3787 7.03628 13.3787 7.99994C13.3787 8.9636 13.7158 9.89692 14.3315 10.6382L12.3599 12.6098C12.3244 12.6445 12.2961 12.6858 12.2766 12.7315C12.2572 12.7772 12.247 12.8263 12.2467 12.8759C12.2464 12.9256 12.2559 12.9748 12.2748 13.0207C12.2936 13.0666 12.3214 13.1084 12.3565 13.1435C12.3916 13.1786 12.4334 13.2064 12.4793 13.2252C12.5252 13.2441 12.5744 13.2536 12.6241 13.2533C12.6737 13.253 12.7228 13.2428 12.7685 13.2234C12.8142 13.2039 12.8556 13.1756 12.8902 13.1401L14.8612 11.169C15.6018 11.7867 16.5357 12.125 17.5 12.125C18.4644 12.125 19.3982 11.7867 20.1388 11.169L22.1099 13.1401C22.1805 13.2089 22.2754 13.2472 22.3741 13.2466C22.4727 13.2459 22.5671 13.2065 22.6369 13.1367C22.7066 13.067 22.7461 12.9726 22.7467 12.874C22.7473 12.7753 22.7091 12.6804 22.6402 12.6098L20.6685 10.6382ZM20.136 10.1057L18.0303 7.99996L20.136 5.89422C20.6127 6.49258 20.8722 7.23495 20.8722 7.99994C20.8722 8.76494 20.6127 9.5073 20.136 10.1057ZM17.5 4.62496C18.2658 4.62324 19.009 4.88407 19.6058 5.36397L17.5 7.46967L15.3943 5.3639C15.9911 4.88402 16.7343 4.62321 17.5 4.62496ZM14.8638 5.89411L16.9698 7.99996L14.8638 10.1058C14.3871 9.50738 14.1276 8.76498 14.1276 7.99994C14.1276 7.23491 14.3871 6.49251 14.8638 5.89411ZM17.5 11.375C16.7343 11.3767 15.9911 11.1159 15.3943 10.636L17.5 8.53021L19.6058 10.6359C19.009 11.1158 18.2658 11.3767 17.5 11.375Z" fill="white" fill-opacity="0.95"/>
</g>
<g clip-path="url(#clip1_1275_485109)">
<rect y="36" width="35" height="28" rx="14" fill="#7856FF"/>
<path d="M17.1364 56.1591C16.3864 56.1591 15.7178 56.0303 15.1307 55.7727C14.5473 55.5152 14.0833 55.1572 13.7386 54.6989C13.3977 54.2367 13.2121 53.7008 13.1818 53.0909H14.6136C14.6439 53.4659 14.7727 53.7898 15 54.0625C15.2273 54.3314 15.5246 54.5398 15.892 54.6875C16.2595 54.8352 16.6667 54.9091 17.1136 54.9091C17.6136 54.9091 18.0568 54.822 18.4432 54.6477C18.8295 54.4735 19.1326 54.2311 19.3523 53.9205C19.572 53.6098 19.6818 53.25 19.6818 52.8409C19.6818 52.4129 19.5758 52.036 19.3636 51.7102C19.1515 51.3807 18.8409 51.1231 18.4318 50.9375C18.0227 50.7519 17.5227 50.6591 16.9318 50.6591H16V49.4091H16.9318C17.3939 49.4091 17.7992 49.3258 18.1477 49.1591C18.5 48.9924 18.7746 48.7576 18.9716 48.4545C19.1723 48.1515 19.2727 47.7955 19.2727 47.3864C19.2727 46.9924 19.1856 46.6496 19.0114 46.358C18.8371 46.0663 18.5909 45.839 18.2727 45.6761C17.9583 45.5133 17.5871 45.4318 17.1591 45.4318C16.7576 45.4318 16.3788 45.5057 16.0227 45.6534C15.6705 45.7973 15.3826 46.0076 15.1591 46.2841C14.9356 46.5568 14.8144 46.8864 14.7955 47.2727H13.4318C13.4545 46.6629 13.6383 46.1288 13.983 45.6705C14.3277 45.2083 14.7784 44.8485 15.3352 44.5909C15.8958 44.3333 16.5114 44.2045 17.1818 44.2045C17.9015 44.2045 18.5189 44.3504 19.0341 44.642C19.5492 44.9299 19.9451 45.3106 20.2216 45.7841C20.4981 46.2576 20.6364 46.7689 20.6364 47.3182C20.6364 47.9735 20.464 48.5322 20.1193 48.9943C19.7784 49.4564 19.3144 49.7765 18.7273 49.9545V50.0455C19.4621 50.1667 20.036 50.4792 20.4489 50.983C20.8617 51.483 21.0682 52.1023 21.0682 52.8409C21.0682 53.4735 20.8958 54.0417 20.5511 54.5455C20.2102 55.0455 19.7443 55.4394 19.1534 55.7273C18.5625 56.0152 17.8902 56.1591 17.1364 56.1591Z" fill="white" fill-opacity="0.95"/>
</g>
<defs>
<clipPath id="clip0_1275_485109">
<rect width="12" height="12" fill="white" transform="translate(11.5 2)"/>
</clipPath>
<clipPath id="clip1_1275_485109">
<rect width="35" height="28" fill="white" transform="translate(0 36)"/>
</clipPath>
</defs>
</svg>
