<svg width="555" height="189" viewBox="0 0 555 189" fill="none" xmlns="http://www.w3.org/2000/svg">
<rect width="555" height="189" rx="16" fill="#262626"/>
<path d="M510.201 48.2001C510.069 48.2004 509.938 48.1744 509.816 48.1238C509.695 48.0732 509.584 47.9989 509.492 47.9051L502.291 40.6698C502.199 40.5767 502.125 40.4663 502.076 40.3448C502.026 40.2233 502 40.0933 502 39.9619C502.001 39.8306 502.027 39.7007 502.078 39.5795C502.128 39.4583 502.202 39.3483 502.295 39.2557C502.388 39.1631 502.499 39.0898 502.62 39.0399C502.742 38.9899 502.872 38.9644 503.003 38.9648C503.134 38.9652 503.264 38.9914 503.386 39.042C503.507 39.0926 503.617 39.1665 503.709 39.2596L510.254 45.8368L526.35 32.0419C526.551 31.8694 526.813 31.7839 527.077 31.8042C527.341 31.8245 527.587 31.949 527.759 32.1503C527.932 32.3515 528.017 32.613 527.997 32.8773C527.976 33.1416 527.852 33.387 527.651 33.5594L510.851 47.9589C510.67 48.1147 510.439 48.2003 510.201 48.2001Z" fill="url(#paint0_linear_1283_24221)"/>
<rect x="221" y="80" width="48" height="24" rx="12" fill="#64B4FA"/>
<rect x="247" y="82" width="20" height="20" rx="10" fill="white"/>
<path d="M255.183 95.0748C255.133 95.075 255.084 95.0652 255.039 95.0462C254.993 95.0273 254.952 94.9994 254.917 94.9642L252.217 92.251C252.182 92.2161 252.155 92.1747 252.136 92.1291C252.117 92.0836 252.108 92.0348 252.108 91.9855C252.108 91.9363 252.118 91.8876 252.137 91.8421C252.156 91.7967 252.183 91.7554 252.218 91.7207C252.253 91.686 252.295 91.6585 252.34 91.6398C252.386 91.621 252.434 91.6115 252.484 91.6116C252.533 91.6118 252.582 91.6216 252.627 91.6406C252.673 91.6595 252.714 91.6873 252.749 91.7222L255.203 94.1886L261.239 89.0155C261.314 88.9508 261.412 88.9188 261.511 88.9264C261.61 88.934 261.702 88.9807 261.767 89.0562C261.832 89.1316 261.864 89.2297 261.856 89.3288C261.849 89.4279 261.802 89.5199 261.727 89.5846L255.427 94.9844C255.359 95.0428 255.272 95.0749 255.183 95.0748Z" fill="black" fill-opacity="0.95"/>
<path d="M290.824 91.9091C290.824 92.983 290.63 93.911 290.242 94.6932C289.854 95.4754 289.322 96.0786 288.646 96.5028C287.97 96.9271 287.198 97.1392 286.33 97.1392C285.461 97.1392 284.689 96.9271 284.013 96.5028C283.337 96.0786 282.805 95.4754 282.417 94.6932C282.029 93.911 281.835 92.983 281.835 91.9091C281.835 90.8352 282.029 89.9072 282.417 89.125C282.805 88.3428 283.337 87.7396 284.013 87.3153C284.689 86.8911 285.461 86.679 286.33 86.679C287.198 86.679 287.97 86.8911 288.646 87.3153C289.322 87.7396 289.854 88.3428 290.242 89.125C290.63 89.9072 290.824 90.8352 290.824 91.9091ZM289.631 91.9091C289.631 91.0275 289.483 90.2834 289.188 89.6768C288.897 89.0703 288.5 88.6113 288 88.2997C287.503 87.9882 286.946 87.8324 286.33 87.8324C285.713 87.8324 285.155 87.9882 284.654 88.2997C284.157 88.6113 283.761 89.0703 283.466 89.6768C283.174 90.2834 283.028 91.0275 283.028 91.9091C283.028 92.7907 283.174 93.5348 283.466 94.1413C283.761 94.7479 284.157 95.2069 284.654 95.5185C285.155 95.83 285.713 95.9858 286.33 95.9858C286.946 95.9858 287.503 95.83 288 95.5185C288.5 95.2069 288.897 94.7479 289.188 94.1413C289.483 93.5348 289.631 92.7907 289.631 91.9091ZM293.911 92.4062V97H292.738V89.3636H293.871V90.5568H293.971C294.15 90.169 294.422 89.8575 294.786 89.6222C295.151 89.3835 295.621 89.2642 296.198 89.2642C296.715 89.2642 297.168 89.3703 297.555 89.5824C297.943 89.7912 298.245 90.1094 298.46 90.5369C298.676 90.9612 298.783 91.4981 298.783 92.1477V97H297.61V92.2273C297.61 91.6274 297.454 91.16 297.143 90.8253C296.831 90.4872 296.404 90.3182 295.86 90.3182C295.486 90.3182 295.151 90.3994 294.856 90.5618C294.564 90.7242 294.334 90.9612 294.165 91.2727C293.996 91.5843 293.911 91.9621 293.911 92.4062ZM305.024 97V86.8182H308.464C309.26 86.8182 309.913 86.9541 310.423 87.2259C310.934 87.4943 311.311 87.8639 311.557 88.3345C311.802 88.8052 311.925 89.3404 311.925 89.9403C311.925 90.5402 311.802 91.0722 311.557 91.5362C311.311 92.0002 310.935 92.3648 310.428 92.63C309.921 92.8918 309.273 93.0227 308.484 93.0227H305.7V91.9091H308.444C308.988 91.9091 309.425 91.8295 309.757 91.6705C310.092 91.5114 310.334 91.286 310.483 90.9943C310.635 90.6993 310.711 90.348 310.711 89.9403C310.711 89.5327 310.635 89.1764 310.483 88.8714C310.33 88.5665 310.087 88.3312 309.752 88.1655C309.417 87.9964 308.975 87.9119 308.425 87.9119H306.257V97H305.024ZM309.817 92.4261L312.322 97H310.89L308.425 92.4261H309.817ZM316.94 97.1591C316.204 97.1591 315.569 96.9967 315.036 96.6719C314.505 96.3438 314.096 95.8864 313.808 95.2997C313.522 94.7098 313.38 94.0237 313.38 93.2415C313.38 92.4593 313.522 91.7699 313.808 91.1733C314.096 90.5734 314.497 90.1061 315.011 89.7713C315.528 89.4332 316.131 89.2642 316.82 89.2642C317.218 89.2642 317.611 89.3305 317.999 89.4631C318.386 89.5956 318.739 89.8111 319.058 90.1094C319.376 90.4044 319.629 90.7955 319.818 91.2827C320.007 91.7699 320.102 92.3698 320.102 93.0824V93.5795H314.215V92.5653H318.908C318.908 92.1345 318.822 91.75 318.65 91.4119C318.481 91.0739 318.239 90.8071 317.924 90.6115C317.612 90.416 317.245 90.3182 316.82 90.3182C316.353 90.3182 315.949 90.4342 315.607 90.6662C315.269 90.8949 315.009 91.1932 314.827 91.5611C314.644 91.929 314.553 92.3234 314.553 92.7443V93.4205C314.553 93.9972 314.653 94.486 314.852 94.8871C315.054 95.2848 315.334 95.5881 315.692 95.7969C316.05 96.0024 316.466 96.1051 316.94 96.1051C317.248 96.1051 317.526 96.062 317.775 95.9759C318.027 95.8864 318.244 95.7538 318.426 95.5781C318.608 95.3991 318.749 95.1771 318.849 94.9119L319.982 95.2301C319.863 95.6146 319.662 95.9527 319.381 96.2443C319.099 96.5327 318.751 96.758 318.337 96.9205C317.922 97.0795 317.457 97.1591 316.94 97.1591ZM327.295 91.0739L326.241 91.3722C326.175 91.1965 326.077 91.0258 325.948 90.8601C325.822 90.6911 325.65 90.5518 325.431 90.4425C325.212 90.3331 324.932 90.2784 324.591 90.2784C324.124 90.2784 323.734 90.3861 323.423 90.6016C323.114 90.8137 322.96 91.0838 322.96 91.4119C322.96 91.7036 323.066 91.9339 323.278 92.103C323.491 92.272 323.822 92.4129 324.273 92.5256L325.406 92.804C326.089 92.9697 326.598 93.2232 326.933 93.5646C327.267 93.9027 327.435 94.3385 327.435 94.8722C327.435 95.3097 327.309 95.7008 327.057 96.0455C326.808 96.3902 326.46 96.6619 326.013 96.8608C325.565 97.0597 325.045 97.1591 324.452 97.1591C323.673 97.1591 323.028 96.9901 322.518 96.652C322.007 96.3139 321.684 95.8201 321.548 95.1705L322.662 94.892C322.768 95.303 322.969 95.6113 323.263 95.8168C323.562 96.0223 323.951 96.125 324.432 96.125C324.979 96.125 325.413 96.009 325.734 95.777C326.059 95.5417 326.222 95.2599 326.222 94.9318C326.222 94.6667 326.129 94.4446 325.943 94.2656C325.758 94.0833 325.473 93.9474 325.088 93.858L323.815 93.5597C323.116 93.3939 322.602 93.1371 322.274 92.7891C321.949 92.4377 321.787 91.9986 321.787 91.4716C321.787 91.0407 321.908 90.6596 322.15 90.3281C322.395 89.9967 322.728 89.7365 323.149 89.5476C323.573 89.3587 324.054 89.2642 324.591 89.2642C325.347 89.2642 325.94 89.4299 326.371 89.7614C326.805 90.0928 327.113 90.5303 327.295 91.0739ZM332.522 89.3636V90.358H328.564V89.3636H332.522ZM329.718 87.5341H330.891V94.8125C330.891 95.1439 330.939 95.3925 331.035 95.5582C331.135 95.7206 331.261 95.83 331.413 95.8864C331.569 95.9394 331.733 95.9659 331.905 95.9659C332.035 95.9659 332.141 95.9593 332.224 95.946C332.306 95.9295 332.373 95.9162 332.422 95.9062L332.661 96.9602C332.581 96.9901 332.47 97.0199 332.328 97.0497C332.185 97.0829 332.005 97.0994 331.786 97.0994C331.455 97.0994 331.13 97.0282 330.812 96.8857C330.497 96.7431 330.235 96.526 330.026 96.2344C329.821 95.9427 329.718 95.5748 329.718 95.1307V87.5341Z" fill="white" fill-opacity="0.95"/>
<path d="M0 166H555C555 178.703 544.703 189 532 189H23C10.2975 189 0 178.703 0 166Z" fill="url(#paint1_linear_1283_24221)"/>
<defs>
<linearGradient id="paint0_linear_1283_24221" x1="515" y1="31.8013" x2="515" y2="48.2001" gradientUnits="userSpaceOnUse">
<stop stop-color="#3CC29A"/>
<stop offset="1" stop-color="#93C437"/>
</linearGradient>
<linearGradient id="paint1_linear_1283_24221" x1="277.5" y1="166" x2="277.5" y2="189" gradientUnits="userSpaceOnUse">
<stop stop-color="#3CC29A"/>
<stop offset="1" stop-color="#93C437"/>
</linearGradient>
</defs>
</svg>
