<svg width="559" height="260" viewBox="0 0 559 260" fill="none" xmlns="http://www.w3.org/2000/svg">
<rect width="559" height="260" rx="24" fill="#262626"/>
<path d="M80.733 115V104.818H81.9659V113.906H86.6989V115H80.733ZM90.696 115.179C90.2121 115.179 89.773 115.088 89.3786 114.906C88.9841 114.72 88.6709 114.453 88.4389 114.105C88.2069 113.754 88.0909 113.33 88.0909 112.832C88.0909 112.395 88.1771 112.04 88.3494 111.768C88.5218 111.493 88.7521 111.278 89.0405 111.122C89.3288 110.966 89.647 110.85 89.995 110.774C90.3464 110.695 90.6993 110.632 91.054 110.585C91.518 110.526 91.8942 110.481 92.1825 110.451C92.4742 110.418 92.6863 110.363 92.8189 110.287C92.9548 110.211 93.0227 110.078 93.0227 109.889V109.849C93.0227 109.359 92.8885 108.978 92.62 108.706C92.3549 108.434 91.9522 108.298 91.4119 108.298C90.8518 108.298 90.4126 108.421 90.0945 108.666C89.7763 108.911 89.5526 109.173 89.4233 109.452L88.3097 109.054C88.5085 108.59 88.7737 108.229 89.1051 107.97C89.4399 107.708 89.8045 107.526 90.1989 107.423C90.5966 107.317 90.9877 107.264 91.3722 107.264C91.6174 107.264 91.8991 107.294 92.2173 107.354C92.5388 107.41 92.8487 107.528 93.147 107.707C93.4486 107.886 93.6989 108.156 93.8977 108.517C94.0966 108.878 94.196 109.362 94.196 109.969V115H93.0227V113.966H92.9631C92.8835 114.132 92.7509 114.309 92.5653 114.498C92.3797 114.687 92.1328 114.848 91.8246 114.98C91.5163 115.113 91.1402 115.179 90.696 115.179ZM90.875 114.125C91.339 114.125 91.7301 114.034 92.0483 113.852C92.3698 113.669 92.6117 113.434 92.7741 113.146C92.9399 112.857 93.0227 112.554 93.0227 112.236V111.162C92.973 111.222 92.8636 111.276 92.6946 111.326C92.5289 111.372 92.3366 111.414 92.1179 111.45C91.9025 111.483 91.692 111.513 91.4865 111.54C91.2843 111.563 91.1203 111.583 90.9943 111.599C90.6894 111.639 90.4044 111.704 90.1392 111.793C89.8774 111.879 89.6652 112.01 89.5028 112.186C89.3438 112.358 89.2642 112.594 89.2642 112.892C89.2642 113.3 89.415 113.608 89.7166 113.817C90.0215 114.022 90.4077 114.125 90.875 114.125ZM96.4966 115V104.818H97.6699V108.577H97.7694C97.8555 108.444 97.9748 108.275 98.1273 108.07C98.2831 107.861 98.5051 107.675 98.7935 107.513C99.0852 107.347 99.4796 107.264 99.9767 107.264C100.62 107.264 101.186 107.425 101.677 107.746C102.168 108.068 102.55 108.524 102.825 109.114C103.101 109.704 103.238 110.4 103.238 111.202C103.238 112.01 103.101 112.711 102.825 113.305C102.55 113.895 102.169 114.352 101.682 114.677C101.195 114.998 100.633 115.159 99.9966 115.159C99.5061 115.159 99.1133 115.078 98.8184 114.915C98.5234 114.75 98.2963 114.562 98.1373 114.354C97.9782 114.142 97.8555 113.966 97.7694 113.827H97.6301V115H96.4966ZM97.65 111.182C97.65 111.759 97.7346 112.267 97.9036 112.708C98.0726 113.146 98.3195 113.489 98.6444 113.737C98.9692 113.982 99.3669 114.105 99.8375 114.105C100.328 114.105 100.737 113.976 101.066 113.717C101.397 113.455 101.646 113.104 101.811 112.663C101.98 112.219 102.065 111.725 102.065 111.182C102.065 110.645 101.982 110.161 101.816 109.73C101.654 109.296 101.407 108.953 101.075 108.701C100.747 108.446 100.335 108.318 99.8375 108.318C99.3603 108.318 98.9592 108.439 98.6344 108.681C98.3096 108.92 98.0643 109.254 97.8986 109.685C97.7329 110.113 97.65 110.612 97.65 111.182ZM108.235 115.159C107.499 115.159 106.864 114.997 106.33 114.672C105.8 114.344 105.391 113.886 105.102 113.3C104.817 112.71 104.675 112.024 104.675 111.241C104.675 110.459 104.817 109.77 105.102 109.173C105.391 108.573 105.792 108.106 106.306 107.771C106.823 107.433 107.426 107.264 108.115 107.264C108.513 107.264 108.906 107.33 109.294 107.463C109.681 107.596 110.034 107.811 110.352 108.109C110.671 108.404 110.924 108.795 111.113 109.283C111.302 109.77 111.396 110.37 111.396 111.082V111.58H105.51V110.565H110.203C110.203 110.134 110.117 109.75 109.945 109.412C109.776 109.074 109.534 108.807 109.219 108.612C108.907 108.416 108.539 108.318 108.115 108.318C107.648 108.318 107.244 108.434 106.902 108.666C106.564 108.895 106.304 109.193 106.122 109.561C105.939 109.929 105.848 110.323 105.848 110.744V111.42C105.848 111.997 105.948 112.486 106.146 112.887C106.349 113.285 106.629 113.588 106.987 113.797C107.345 114.002 107.761 114.105 108.235 114.105C108.543 114.105 108.821 114.062 109.07 113.976C109.322 113.886 109.539 113.754 109.721 113.578C109.903 113.399 110.044 113.177 110.144 112.912L111.277 113.23C111.158 113.615 110.957 113.953 110.676 114.244C110.394 114.533 110.046 114.758 109.632 114.92C109.217 115.08 108.752 115.159 108.235 115.159ZM114.355 104.818V115H113.181V104.818H114.355Z" fill="white" fill-opacity="0.95"/>
<rect x="80" y="128.5" width="399" height="31" rx="7.5" stroke="white" stroke-opacity="0.5"/>
<path d="M98 137C94.9624 137 92.5 139.462 92.5 142.5C92.5 145.538 94.9624 148 98 148C99.3388 148 100.566 147.522 101.52 146.727L105.646 150.854C105.842 151.049 106.158 151.049 106.354 150.854C106.549 150.658 106.549 150.342 106.354 150.146L102.227 146.02C103.022 145.066 103.5 143.839 103.5 142.5C103.5 139.462 101.038 137 98 137ZM93.5 142.5C93.5 140.015 95.5147 138 98 138C100.485 138 102.5 140.015 102.5 142.5C102.5 144.985 100.485 147 98 147C95.5147 147 93.5 144.985 93.5 142.5Z" fill="white" fill-opacity="0.95"/>
<path d="M114.176 139.912V138.818H121.812V139.912H118.611V149H117.378V139.912H114.176ZM123.437 151.844C123.238 151.844 123.061 151.827 122.905 151.794C122.749 151.764 122.642 151.734 122.582 151.705L122.88 150.67C123.308 150.78 123.664 150.777 123.949 150.661C124.234 150.548 124.481 150.206 124.69 149.636L124.909 149.04L122.085 141.364H123.357L125.465 147.449H125.545L127.653 141.364L128.936 141.384L125.684 150.114C125.538 150.501 125.358 150.823 125.142 151.078C124.927 151.337 124.677 151.529 124.392 151.655C124.11 151.781 123.792 151.844 123.437 151.844ZM130.488 151.864V141.364H131.621V142.577H131.761C131.847 142.444 131.966 142.275 132.119 142.07C132.274 141.861 132.496 141.675 132.785 141.513C133.076 141.347 133.471 141.264 133.968 141.264C134.611 141.264 135.178 141.425 135.668 141.746C136.159 142.068 136.542 142.524 136.817 143.114C137.092 143.704 137.229 144.4 137.229 145.202C137.229 146.01 137.092 146.711 136.817 147.305C136.542 147.895 136.161 148.352 135.673 148.677C135.186 148.998 134.624 149.159 133.988 149.159C133.497 149.159 133.105 149.078 132.81 148.915C132.515 148.75 132.288 148.562 132.129 148.354C131.969 148.142 131.847 147.966 131.761 147.827H131.661V151.864H130.488ZM131.641 145.182C131.641 145.759 131.726 146.267 131.895 146.708C132.064 147.146 132.311 147.489 132.636 147.737C132.96 147.982 133.358 148.105 133.829 148.105C134.319 148.105 134.729 147.976 135.057 147.717C135.388 147.455 135.637 147.104 135.803 146.663C135.972 146.219 136.056 145.725 136.056 145.182C136.056 144.645 135.973 144.161 135.808 143.73C135.645 143.296 135.398 142.953 135.067 142.701C134.739 142.446 134.326 142.318 133.829 142.318C133.352 142.318 132.951 142.439 132.626 142.681C132.301 142.92 132.056 143.254 131.89 143.685C131.724 144.113 131.641 144.612 131.641 145.182ZM142.221 149.159C141.485 149.159 140.85 148.997 140.317 148.672C139.786 148.344 139.377 147.886 139.089 147.3C138.804 146.71 138.661 146.024 138.661 145.241C138.661 144.459 138.804 143.77 139.089 143.173C139.377 142.573 139.778 142.106 140.292 141.771C140.809 141.433 141.412 141.264 142.102 141.264C142.499 141.264 142.892 141.33 143.28 141.463C143.668 141.596 144.021 141.811 144.339 142.109C144.657 142.404 144.911 142.795 145.099 143.283C145.288 143.77 145.383 144.37 145.383 145.082V145.58H139.496V144.565H144.19C144.19 144.134 144.103 143.75 143.931 143.412C143.762 143.074 143.52 142.807 143.205 142.612C142.894 142.416 142.526 142.318 142.102 142.318C141.634 142.318 141.23 142.434 140.888 142.666C140.55 142.895 140.29 143.193 140.108 143.561C139.926 143.929 139.835 144.323 139.835 144.744V145.42C139.835 145.997 139.934 146.486 140.133 146.887C140.335 147.285 140.615 147.588 140.973 147.797C141.331 148.002 141.747 148.105 142.221 148.105C142.529 148.105 142.808 148.062 143.056 147.976C143.308 147.886 143.525 147.754 143.707 147.578C143.89 147.399 144.031 147.177 144.13 146.912L145.263 147.23C145.144 147.615 144.944 147.953 144.662 148.244C144.38 148.533 144.032 148.758 143.618 148.92C143.204 149.08 142.738 149.159 142.221 149.159ZM150.051 149.159C149.415 149.159 148.853 148.998 148.366 148.677C147.879 148.352 147.497 147.895 147.222 147.305C146.947 146.711 146.81 146.01 146.81 145.202C146.81 144.4 146.947 143.704 147.222 143.114C147.497 142.524 147.88 142.068 148.371 141.746C148.861 141.425 149.428 141.264 150.071 141.264C150.568 141.264 150.961 141.347 151.249 141.513C151.541 141.675 151.763 141.861 151.915 142.07C152.071 142.275 152.192 142.444 152.278 142.577H152.378V138.818H153.551V149H152.418V147.827H152.278C152.192 147.966 152.07 148.142 151.911 148.354C151.751 148.562 151.524 148.75 151.229 148.915C150.934 149.078 150.542 149.159 150.051 149.159ZM150.21 148.105C150.681 148.105 151.079 147.982 151.403 147.737C151.728 147.489 151.975 147.146 152.144 146.708C152.313 146.267 152.398 145.759 152.398 145.182C152.398 144.612 152.315 144.113 152.149 143.685C151.983 143.254 151.738 142.92 151.413 142.681C151.089 142.439 150.688 142.318 150.21 142.318C149.713 142.318 149.299 142.446 148.967 142.701C148.639 142.953 148.392 143.296 148.227 143.73C148.064 144.161 147.983 144.645 147.983 145.182C147.983 145.725 148.066 146.219 148.232 146.663C148.401 147.104 148.649 147.455 148.977 147.717C149.309 147.976 149.72 148.105 150.21 148.105ZM163.121 141.364V142.358H159.164V141.364H163.121ZM160.317 139.534H161.491V146.812C161.491 147.144 161.539 147.393 161.635 147.558C161.734 147.721 161.86 147.83 162.013 147.886C162.169 147.939 162.333 147.966 162.505 147.966C162.634 147.966 162.74 147.959 162.823 147.946C162.906 147.929 162.972 147.916 163.022 147.906L163.261 148.96C163.181 148.99 163.07 149.02 162.928 149.05C162.785 149.083 162.604 149.099 162.386 149.099C162.054 149.099 161.729 149.028 161.411 148.886C161.096 148.743 160.835 148.526 160.626 148.234C160.42 147.943 160.317 147.575 160.317 147.131V139.534ZM168.006 149.159C167.27 149.159 166.636 148.997 166.102 148.672C165.572 148.344 165.162 147.886 164.874 147.3C164.589 146.71 164.446 146.024 164.446 145.241C164.446 144.459 164.589 143.77 164.874 143.173C165.162 142.573 165.563 142.106 166.077 141.771C166.594 141.433 167.197 141.264 167.887 141.264C168.284 141.264 168.677 141.33 169.065 141.463C169.453 141.596 169.806 141.811 170.124 142.109C170.442 142.404 170.696 142.795 170.885 143.283C171.074 143.77 171.168 144.37 171.168 145.082V145.58H165.282V144.565H169.975C169.975 144.134 169.889 143.75 169.716 143.412C169.547 143.074 169.305 142.807 168.99 142.612C168.679 142.416 168.311 142.318 167.887 142.318C167.419 142.318 167.015 142.434 166.674 142.666C166.336 142.895 166.075 143.193 165.893 143.561C165.711 143.929 165.62 144.323 165.62 144.744V145.42C165.62 145.997 165.719 146.486 165.918 146.887C166.12 147.285 166.4 147.588 166.758 147.797C167.116 148.002 167.532 148.105 168.006 148.105C168.314 148.105 168.593 148.062 168.841 147.976C169.093 147.886 169.31 147.754 169.493 147.578C169.675 147.399 169.816 147.177 169.915 146.912L171.049 147.23C170.929 147.615 170.729 147.953 170.447 148.244C170.165 148.533 169.817 148.758 169.403 148.92C168.989 149.08 168.523 149.159 168.006 149.159ZM173.623 141.364L175.452 144.486L177.282 141.364H178.634L176.168 145.182L178.634 149H177.282L175.452 146.037L173.623 149H172.27L174.697 145.182L172.27 141.364H173.623ZM183.629 141.364V142.358H179.672V141.364H183.629ZM180.825 139.534H181.999V146.812C181.999 147.144 182.047 147.393 182.143 147.558C182.242 147.721 182.368 147.83 182.521 147.886C182.676 147.939 182.84 147.966 183.013 147.966C183.142 147.966 183.248 147.959 183.331 147.946C183.414 147.929 183.48 147.916 183.53 147.906L183.768 148.96C183.689 148.99 183.578 149.02 183.435 149.05C183.293 149.083 183.112 149.099 182.893 149.099C182.562 149.099 182.237 149.028 181.919 148.886C181.604 148.743 181.342 148.526 181.134 148.234C180.928 147.943 180.825 147.575 180.825 147.131V139.534Z" fill="white" fill-opacity="0.95"/>
<path d="M464.207 144L468.354 139.854C468.4 139.807 468.437 139.752 468.462 139.691C468.487 139.631 468.5 139.566 468.5 139.5C468.5 139.434 468.487 139.369 468.462 139.309C468.437 139.248 468.4 139.193 468.354 139.146C468.307 139.1 468.252 139.063 468.191 139.038C468.131 139.013 468.066 139 468 139C467.934 139 467.869 139.013 467.809 139.038C467.748 139.063 467.693 139.1 467.647 139.146L463.5 143.293L459.354 139.146C459.307 139.1 459.252 139.062 459.191 139.037C459.131 139.011 459.065 138.998 458.999 138.998C458.934 138.998 458.868 139.011 458.807 139.036C458.746 139.061 458.691 139.098 458.644 139.144C458.598 139.191 458.561 139.246 458.536 139.307C458.511 139.368 458.498 139.434 458.498 139.499C458.498 139.565 458.511 139.631 458.537 139.691C458.562 139.752 458.6 139.807 458.647 139.854L462.793 144L458.647 148.147C458.6 148.193 458.563 148.248 458.538 148.309C458.513 148.369 458.5 148.434 458.5 148.5C458.5 148.566 458.513 148.631 458.538 148.691C458.563 148.752 458.6 148.807 458.647 148.854C458.693 148.9 458.748 148.937 458.809 148.962C458.869 148.987 458.934 149 459 149C459.066 149 459.131 148.987 459.191 148.962C459.252 148.937 459.307 148.9 459.354 148.854L463.5 144.707L467.647 148.854C467.74 148.947 467.867 149 468 149C468.133 149 468.26 148.947 468.354 148.854C468.447 148.76 468.5 148.633 468.5 148.5C468.5 148.367 468.447 148.24 468.354 148.147L464.207 144Z" fill="white" fill-opacity="0.95"/>
<path d="M45.5 142H75.5" stroke="#DA0087"/>
<rect x="21.5" y="128" width="32" height="28" rx="14" fill="#DA0087"/>
<path d="M38.7955 136.364V148H37.3864V137.841H37.3182L34.4773 139.727V138.295L37.3864 136.364H38.7955Z" fill="white"/>
<path d="M149 107V134" stroke="#DA0087"/>
<rect x="131.5" y="87" width="35" height="28" rx="14" fill="#DA0087"/>
<path d="M144.432 104.614V103.455L149.545 95.3636H150.386V97.1591H149.818L145.955 103.273V103.364H152.841V104.614H144.432ZM149.909 107V104.261V103.722V95.3636H151.25V107H149.909Z" fill="white"/>
<path d="M99.5 77V104" stroke="#DA0087"/>
<rect x="82.5" y="57" width="34" height="28" rx="14" fill="#DA0087"/>
<path d="M95.7045 77V75.9773L99.5455 71.7727C99.9962 71.2803 100.367 70.8523 100.659 70.4886C100.951 70.1212 101.167 69.7765 101.307 69.4545C101.451 69.1288 101.523 68.7879 101.523 68.4318C101.523 68.0227 101.424 67.6686 101.227 67.3693C101.034 67.0701 100.769 66.839 100.432 66.6761C100.095 66.5133 99.7159 66.4318 99.2955 66.4318C98.8485 66.4318 98.4583 66.5246 98.125 66.7102C97.7955 66.892 97.5398 67.1477 97.358 67.4773C97.1799 67.8068 97.0909 68.1932 97.0909 68.6364H95.75C95.75 67.9545 95.9072 67.3561 96.2216 66.8409C96.536 66.3258 96.964 65.9242 97.5057 65.6364C98.0511 65.3485 98.6629 65.2045 99.3409 65.2045C100.023 65.2045 100.627 65.3485 101.153 65.6364C101.68 65.9242 102.093 66.3125 102.392 66.8011C102.691 67.2898 102.841 67.8333 102.841 68.4318C102.841 68.8598 102.763 69.2784 102.608 69.6875C102.456 70.0928 102.191 70.5455 101.812 71.0455C101.438 71.5417 100.917 72.1477 100.25 72.8636L97.6364 75.6591V75.75H103.045V77H95.7045Z" fill="white"/>
<path d="M100 193V166" stroke="#DA0087"/>
<rect x="82.5" y="185" width="35" height="28" rx="14" fill="#DA0087"/>
<path d="M99.6364 205.159C98.8864 205.159 98.2178 205.03 97.6307 204.773C97.0473 204.515 96.5833 204.157 96.2386 203.699C95.8977 203.237 95.7121 202.701 95.6818 202.091H97.1136C97.1439 202.466 97.2727 202.79 97.5 203.062C97.7273 203.331 98.0246 203.54 98.392 203.688C98.7595 203.835 99.1667 203.909 99.6136 203.909C100.114 203.909 100.557 203.822 100.943 203.648C101.33 203.473 101.633 203.231 101.852 202.92C102.072 202.61 102.182 202.25 102.182 201.841C102.182 201.413 102.076 201.036 101.864 200.71C101.652 200.381 101.341 200.123 100.932 199.938C100.523 199.752 100.023 199.659 99.4318 199.659H98.5V198.409H99.4318C99.8939 198.409 100.299 198.326 100.648 198.159C101 197.992 101.275 197.758 101.472 197.455C101.672 197.152 101.773 196.795 101.773 196.386C101.773 195.992 101.686 195.65 101.511 195.358C101.337 195.066 101.091 194.839 100.773 194.676C100.458 194.513 100.087 194.432 99.6591 194.432C99.2576 194.432 98.8788 194.506 98.5227 194.653C98.1705 194.797 97.8826 195.008 97.6591 195.284C97.4356 195.557 97.3144 195.886 97.2955 196.273H95.9318C95.9545 195.663 96.1383 195.129 96.483 194.67C96.8277 194.208 97.2784 193.848 97.8352 193.591C98.3958 193.333 99.0114 193.205 99.6818 193.205C100.402 193.205 101.019 193.35 101.534 193.642C102.049 193.93 102.445 194.311 102.722 194.784C102.998 195.258 103.136 195.769 103.136 196.318C103.136 196.973 102.964 197.532 102.619 197.994C102.278 198.456 101.814 198.777 101.227 198.955V199.045C101.962 199.167 102.536 199.479 102.949 199.983C103.362 200.483 103.568 201.102 103.568 201.841C103.568 202.473 103.396 203.042 103.051 203.545C102.71 204.045 102.244 204.439 101.653 204.727C101.063 205.015 100.39 205.159 99.6364 205.159Z" fill="white"/>
<rect width="8" height="8" transform="matrix(0 1 1 0 455.5 107)" fill="#DA0087"/>
<path d="M459.5 115V134" stroke="#DA0087"/>
<rect x="442.5" y="87" width="34" height="28" rx="14" fill="#DA0087"/>
<path d="M459.341 107.159C458.674 107.159 458.074 107.027 457.54 106.761C457.006 106.496 456.578 106.133 456.256 105.67C455.934 105.208 455.758 104.682 455.727 104.091H457.091C457.144 104.617 457.383 105.053 457.807 105.398C458.235 105.739 458.746 105.909 459.341 105.909C459.818 105.909 460.242 105.797 460.614 105.574C460.989 105.35 461.282 105.044 461.494 104.653C461.71 104.259 461.818 103.814 461.818 103.318C461.818 102.811 461.706 102.358 461.483 101.96C461.263 101.559 460.96 101.242 460.574 101.011C460.188 100.78 459.746 100.663 459.25 100.659C458.894 100.655 458.528 100.71 458.153 100.824C457.778 100.934 457.47 101.076 457.227 101.25L455.909 101.091L456.614 95.3636H462.659V96.6136H457.795L457.386 100.045H457.455C457.693 99.8561 457.992 99.6989 458.352 99.5739C458.712 99.4489 459.087 99.3864 459.477 99.3864C460.189 99.3864 460.824 99.5568 461.381 99.8977C461.941 100.235 462.381 100.697 462.699 101.284C463.021 101.871 463.182 102.542 463.182 103.295C463.182 104.038 463.015 104.701 462.682 105.284C462.352 105.864 461.898 106.322 461.318 106.659C460.739 106.992 460.08 107.159 459.341 107.159Z" fill="white"/>
</svg>
