<svg width="1300" height="352" viewBox="0 0 1300 352" fill="none" xmlns="http://www.w3.org/2000/svg">
<rect width="1300" height="352" rx="24" fill="#262626"/>
<rect x="450" y="100" width="400" height="32" rx="16" fill="white" fill-opacity="0.11"/>
<path d="M468.5 109C465.462 109 463 111.462 463 114.5C463 117.538 465.462 120 468.5 120C469.839 120 471.066 119.522 472.02 118.727L476.146 122.854C476.342 123.049 476.658 123.049 476.854 122.854C477.049 122.658 477.049 122.342 476.854 122.146L472.727 118.02C473.522 117.066 474 115.839 474 114.5C474 111.462 471.538 109 468.5 109ZM464 114.5C464 112.015 466.015 110 468.5 110C470.985 110 473 112.015 473 114.5C473 116.985 470.985 119 468.5 119C466.015 119 464 116.985 464 114.5Z" fill="white" fill-opacity="0.95"/>
<path d="M485.233 121V110.818H488.673C489.472 110.818 490.125 110.962 490.632 111.251C491.143 111.536 491.52 111.922 491.766 112.409C492.011 112.896 492.134 113.44 492.134 114.04C492.134 114.64 492.011 115.185 491.766 115.675C491.524 116.166 491.149 116.557 490.642 116.849C490.135 117.137 489.485 117.281 488.693 117.281H486.227V116.188H488.653C489.2 116.188 489.639 116.093 489.971 115.904C490.302 115.715 490.543 115.46 490.692 115.138C490.844 114.814 490.92 114.447 490.92 114.04C490.92 113.632 490.844 113.268 490.692 112.946C490.543 112.625 490.301 112.373 489.966 112.19C489.631 112.005 489.187 111.912 488.634 111.912H486.466V121H485.233ZM495.134 110.818V121H493.961V110.818H495.134ZM499.53 121.179C499.046 121.179 498.607 121.088 498.213 120.906C497.818 120.72 497.505 120.453 497.273 120.105C497.041 119.754 496.925 119.33 496.925 118.832C496.925 118.395 497.011 118.04 497.183 117.768C497.356 117.493 497.586 117.278 497.874 117.122C498.163 116.966 498.481 116.85 498.829 116.774C499.18 116.695 499.533 116.632 499.888 116.585C500.352 116.526 500.728 116.481 501.017 116.451C501.308 116.418 501.52 116.363 501.653 116.287C501.789 116.211 501.857 116.078 501.857 115.889V115.849C501.857 115.359 501.722 114.978 501.454 114.706C501.189 114.434 500.786 114.298 500.246 114.298C499.686 114.298 499.247 114.421 498.928 114.666C498.61 114.911 498.387 115.173 498.257 115.452L497.144 115.054C497.343 114.59 497.608 114.229 497.939 113.97C498.274 113.708 498.638 113.526 499.033 113.423C499.431 113.317 499.822 113.264 500.206 113.264C500.451 113.264 500.733 113.294 501.051 113.354C501.373 113.41 501.683 113.528 501.981 113.707C502.283 113.886 502.533 114.156 502.732 114.517C502.931 114.878 503.03 115.362 503.03 115.969V121H501.857V119.966H501.797C501.718 120.132 501.585 120.309 501.399 120.498C501.214 120.687 500.967 120.848 500.659 120.98C500.35 121.113 499.974 121.179 499.53 121.179ZM499.709 120.125C500.173 120.125 500.564 120.034 500.882 119.852C501.204 119.669 501.446 119.434 501.608 119.146C501.774 118.857 501.857 118.554 501.857 118.236V117.162C501.807 117.222 501.698 117.276 501.529 117.326C501.363 117.372 501.171 117.414 500.952 117.45C500.736 117.483 500.526 117.513 500.32 117.54C500.118 117.563 499.954 117.583 499.828 117.599C499.523 117.639 499.238 117.704 498.973 117.793C498.711 117.879 498.499 118.01 498.337 118.186C498.178 118.358 498.098 118.594 498.098 118.892C498.098 119.3 498.249 119.608 498.551 119.817C498.856 120.022 499.242 120.125 499.709 120.125ZM508.274 121.159C507.558 121.159 506.941 120.99 506.424 120.652C505.907 120.314 505.51 119.848 505.231 119.255C504.953 118.662 504.814 117.984 504.814 117.222C504.814 116.446 504.956 115.762 505.241 115.168C505.529 114.572 505.931 114.106 506.444 113.771C506.961 113.433 507.565 113.264 508.254 113.264C508.791 113.264 509.275 113.364 509.706 113.562C510.136 113.761 510.489 114.04 510.765 114.398C511.04 114.756 511.21 115.173 511.277 115.651H510.103C510.014 115.303 509.815 114.994 509.507 114.726C509.202 114.454 508.791 114.318 508.274 114.318C507.816 114.318 507.415 114.437 507.071 114.676C506.729 114.911 506.462 115.245 506.27 115.675C506.081 116.103 505.987 116.605 505.987 117.182C505.987 117.772 506.08 118.286 506.265 118.723C506.454 119.161 506.719 119.5 507.061 119.742C507.405 119.984 507.81 120.105 508.274 120.105C508.579 120.105 508.855 120.052 509.104 119.946C509.353 119.84 509.563 119.688 509.735 119.489C509.908 119.29 510.03 119.051 510.103 118.773H511.277C511.21 119.223 511.046 119.629 510.784 119.991C510.526 120.349 510.183 120.634 509.755 120.846C509.331 121.055 508.837 121.159 508.274 121.159ZM516.194 121.159C515.458 121.159 514.823 120.997 514.289 120.672C513.759 120.344 513.35 119.886 513.061 119.3C512.776 118.71 512.634 118.024 512.634 117.241C512.634 116.459 512.776 115.77 513.061 115.173C513.35 114.573 513.751 114.106 514.265 113.771C514.782 113.433 515.385 113.264 516.074 113.264C516.472 113.264 516.865 113.33 517.252 113.463C517.64 113.596 517.993 113.811 518.311 114.109C518.63 114.404 518.883 114.795 519.072 115.283C519.261 115.77 519.355 116.37 519.355 117.082V117.58H513.469V116.565H518.162C518.162 116.134 518.076 115.75 517.904 115.412C517.735 115.074 517.493 114.807 517.178 114.612C516.866 114.416 516.498 114.318 516.074 114.318C515.607 114.318 515.203 114.434 514.861 114.666C514.523 114.895 514.263 115.193 514.081 115.561C513.898 115.929 513.807 116.323 513.807 116.744V117.42C513.807 117.997 513.907 118.486 514.105 118.887C514.308 119.285 514.588 119.588 514.946 119.797C515.304 120.002 515.72 120.105 516.194 120.105C516.502 120.105 516.78 120.062 517.029 119.976C517.281 119.886 517.498 119.754 517.68 119.578C517.862 119.399 518.003 119.177 518.103 118.912L519.236 119.23C519.117 119.615 518.916 119.953 518.635 120.244C518.353 120.533 518.005 120.758 517.591 120.92C517.176 121.08 516.711 121.159 516.194 121.159ZM522.314 116.406V121H521.14V110.818H522.314V114.557H522.413C522.592 114.162 522.86 113.849 523.218 113.617C523.58 113.382 524.06 113.264 524.66 113.264C525.181 113.264 525.636 113.369 526.027 113.577C526.418 113.783 526.722 114.099 526.937 114.527C527.156 114.951 527.265 115.491 527.265 116.148V121H526.092V116.227C526.092 115.621 525.935 115.152 525.62 114.82C525.308 114.486 524.876 114.318 524.322 114.318C523.938 114.318 523.593 114.399 523.288 114.562C522.986 114.724 522.748 114.961 522.572 115.273C522.4 115.584 522.314 115.962 522.314 116.406ZM532.514 121.159C531.825 121.159 531.22 120.995 530.699 120.667C530.182 120.339 529.778 119.88 529.486 119.29C529.198 118.7 529.054 118.01 529.054 117.222C529.054 116.426 529.198 115.732 529.486 115.138C529.778 114.545 530.182 114.085 530.699 113.756C531.22 113.428 531.825 113.264 532.514 113.264C533.203 113.264 533.807 113.428 534.324 113.756C534.844 114.085 535.248 114.545 535.537 115.138C535.828 115.732 535.974 116.426 535.974 117.222C535.974 118.01 535.828 118.7 535.537 119.29C535.248 119.88 534.844 120.339 534.324 120.667C533.807 120.995 533.203 121.159 532.514 121.159ZM532.514 120.105C533.038 120.105 533.469 119.971 533.807 119.702C534.145 119.434 534.395 119.081 534.557 118.643C534.72 118.206 534.801 117.732 534.801 117.222C534.801 116.711 534.72 116.236 534.557 115.795C534.395 115.354 534.145 114.998 533.807 114.726C533.469 114.454 533.038 114.318 532.514 114.318C531.99 114.318 531.559 114.454 531.221 114.726C530.883 114.998 530.633 115.354 530.471 115.795C530.308 116.236 530.227 116.711 530.227 117.222C530.227 117.732 530.308 118.206 530.471 118.643C530.633 119.081 530.883 119.434 531.221 119.702C531.559 119.971 531.99 120.105 532.514 120.105ZM538.939 110.818V121H537.765V110.818H538.939ZM543.971 121.159C543.335 121.159 542.773 120.998 542.286 120.677C541.798 120.352 541.417 119.895 541.142 119.305C540.867 118.711 540.73 118.01 540.73 117.202C540.73 116.4 540.867 115.704 541.142 115.114C541.417 114.524 541.8 114.068 542.291 113.746C542.781 113.425 543.348 113.264 543.991 113.264C544.488 113.264 544.881 113.347 545.169 113.513C545.461 113.675 545.683 113.861 545.835 114.07C545.991 114.275 546.112 114.444 546.198 114.577H546.298V110.818H547.471V121H546.338V119.827H546.198C546.112 119.966 545.99 120.142 545.83 120.354C545.671 120.562 545.444 120.75 545.149 120.915C544.854 121.078 544.462 121.159 543.971 121.159ZM544.13 120.105C544.601 120.105 544.999 119.982 545.323 119.737C545.648 119.489 545.895 119.146 546.064 118.708C546.233 118.267 546.318 117.759 546.318 117.182C546.318 116.612 546.235 116.113 546.069 115.685C545.903 115.254 545.658 114.92 545.333 114.681C545.008 114.439 544.607 114.318 544.13 114.318C543.633 114.318 543.219 114.446 542.887 114.701C542.559 114.953 542.312 115.296 542.146 115.73C541.984 116.161 541.903 116.645 541.903 117.182C541.903 117.725 541.986 118.219 542.151 118.663C542.32 119.104 542.569 119.455 542.897 119.717C543.229 119.976 543.64 120.105 544.13 120.105ZM552.985 121.159C552.249 121.159 551.614 120.997 551.08 120.672C550.55 120.344 550.141 119.886 549.852 119.3C549.567 118.71 549.425 118.024 549.425 117.241C549.425 116.459 549.567 115.77 549.852 115.173C550.141 114.573 550.542 114.106 551.056 113.771C551.573 113.433 552.176 113.264 552.865 113.264C553.263 113.264 553.656 113.33 554.044 113.463C554.431 113.596 554.784 113.811 555.102 114.109C555.421 114.404 555.674 114.795 555.863 115.283C556.052 115.77 556.146 116.37 556.146 117.082V117.58H550.26V116.565H554.953C554.953 116.134 554.867 115.75 554.695 115.412C554.526 115.074 554.284 114.807 553.969 114.612C553.657 114.416 553.289 114.318 552.865 114.318C552.398 114.318 551.994 114.434 551.652 114.666C551.314 114.895 551.054 115.193 550.872 115.561C550.689 115.929 550.598 116.323 550.598 116.744V117.42C550.598 117.997 550.698 118.486 550.896 118.887C551.099 119.285 551.379 119.588 551.737 119.797C552.095 120.002 552.511 120.105 552.985 120.105C553.293 120.105 553.571 120.062 553.82 119.976C554.072 119.886 554.289 119.754 554.471 119.578C554.653 119.399 554.794 119.177 554.894 118.912L556.027 119.23C555.908 119.615 555.707 119.953 555.426 120.244C555.144 120.533 554.796 120.758 554.382 120.92C553.967 121.08 553.502 121.159 552.985 121.159ZM557.931 121V113.364H559.065V114.517H559.144C559.284 114.139 559.535 113.833 559.9 113.597C560.265 113.362 560.676 113.244 561.133 113.244C561.219 113.244 561.327 113.246 561.456 113.249C561.585 113.253 561.683 113.258 561.749 113.264V114.457C561.71 114.447 561.619 114.433 561.476 114.413C561.337 114.389 561.189 114.378 561.034 114.378C560.662 114.378 560.331 114.456 560.039 114.612C559.751 114.764 559.522 114.976 559.353 115.248C559.187 115.516 559.105 115.823 559.105 116.168V121H557.931ZM570.399 113.364V114.358H566.441V113.364H570.399ZM567.595 111.534H568.768V118.812C568.768 119.144 568.816 119.393 568.912 119.558C569.012 119.721 569.138 119.83 569.29 119.886C569.446 119.939 569.61 119.966 569.782 119.966C569.912 119.966 570.018 119.959 570.1 119.946C570.183 119.929 570.25 119.916 570.299 119.906L570.538 120.96C570.458 120.99 570.347 121.02 570.205 121.05C570.062 121.083 569.882 121.099 569.663 121.099C569.332 121.099 569.007 121.028 568.689 120.886C568.374 120.743 568.112 120.526 567.903 120.234C567.698 119.943 567.595 119.575 567.595 119.131V111.534ZM575.283 121.159C574.548 121.159 573.913 120.997 573.379 120.672C572.849 120.344 572.44 119.886 572.151 119.3C571.866 118.71 571.724 118.024 571.724 117.241C571.724 116.459 571.866 115.77 572.151 115.173C572.44 114.573 572.841 114.106 573.354 113.771C573.871 113.433 574.475 113.264 575.164 113.264C575.562 113.264 575.955 113.33 576.342 113.463C576.73 113.596 577.083 113.811 577.401 114.109C577.719 114.404 577.973 114.795 578.162 115.283C578.351 115.77 578.445 116.37 578.445 117.082V117.58H572.559V116.565H577.252C577.252 116.134 577.166 115.75 576.994 115.412C576.825 115.074 576.583 114.807 576.268 114.612C575.956 114.416 575.588 114.318 575.164 114.318C574.697 114.318 574.292 114.434 573.951 114.666C573.613 114.895 573.353 115.193 573.17 115.561C572.988 115.929 572.897 116.323 572.897 116.744V117.42C572.897 117.997 572.996 118.486 573.195 118.887C573.397 119.285 573.678 119.588 574.036 119.797C574.393 120.002 574.809 120.105 575.283 120.105C575.592 120.105 575.87 120.062 576.119 119.976C576.371 119.886 576.588 119.754 576.77 119.578C576.952 119.399 577.093 119.177 577.192 118.912L578.326 119.23C578.207 119.615 578.006 119.953 577.724 120.244C577.443 120.533 577.095 120.758 576.68 120.92C576.266 121.08 575.8 121.159 575.283 121.159ZM580.9 113.364L582.73 116.486L584.559 113.364H585.911L583.445 117.182L585.911 121H584.559L582.73 118.037L580.9 121H579.548L581.974 117.182L579.548 113.364H580.9ZM590.907 113.364V114.358H586.949V113.364H590.907ZM588.103 111.534H589.276V118.812C589.276 119.144 589.324 119.393 589.42 119.558C589.52 119.721 589.645 119.83 589.798 119.886C589.954 119.939 590.118 119.966 590.29 119.966C590.419 119.966 590.525 119.959 590.608 119.946C590.691 119.929 590.757 119.916 590.807 119.906L591.046 120.96C590.966 120.99 590.855 121.02 590.713 121.05C590.57 121.083 590.39 121.099 590.171 121.099C589.839 121.099 589.515 121.028 589.196 120.886C588.882 120.743 588.62 120.526 588.411 120.234C588.205 119.943 588.103 119.575 588.103 119.131V111.534Z" fill="white" fill-opacity="0.7"/>
<path d="M893 115.5H863" stroke="#DA0087"/>
<path d="M863 99.5V115.5L863 131.5" stroke="#DA0087"/>
<rect x="885" y="101.5" width="62" height="28" rx="14" fill="#DA0087"/>
<path d="M902.136 121.659C901.386 121.659 900.718 121.53 900.131 121.273C899.547 121.015 899.083 120.657 898.739 120.199C898.398 119.737 898.212 119.201 898.182 118.591H899.614C899.644 118.966 899.773 119.29 900 119.562C900.227 119.831 900.525 120.04 900.892 120.188C901.259 120.335 901.667 120.409 902.114 120.409C902.614 120.409 903.057 120.322 903.443 120.148C903.83 119.973 904.133 119.731 904.352 119.42C904.572 119.11 904.682 118.75 904.682 118.341C904.682 117.913 904.576 117.536 904.364 117.21C904.152 116.881 903.841 116.623 903.432 116.438C903.023 116.252 902.523 116.159 901.932 116.159H901V114.909H901.932C902.394 114.909 902.799 114.826 903.148 114.659C903.5 114.492 903.775 114.258 903.972 113.955C904.172 113.652 904.273 113.295 904.273 112.886C904.273 112.492 904.186 112.15 904.011 111.858C903.837 111.566 903.591 111.339 903.273 111.176C902.958 111.013 902.587 110.932 902.159 110.932C901.758 110.932 901.379 111.006 901.023 111.153C900.67 111.297 900.383 111.508 900.159 111.784C899.936 112.057 899.814 112.386 899.795 112.773H898.432C898.455 112.163 898.638 111.629 898.983 111.17C899.328 110.708 899.778 110.348 900.335 110.091C900.896 109.833 901.511 109.705 902.182 109.705C902.902 109.705 903.519 109.85 904.034 110.142C904.549 110.43 904.945 110.811 905.222 111.284C905.498 111.758 905.636 112.269 905.636 112.818C905.636 113.473 905.464 114.032 905.119 114.494C904.778 114.956 904.314 115.277 903.727 115.455V115.545C904.462 115.667 905.036 115.979 905.449 116.483C905.862 116.983 906.068 117.602 906.068 118.341C906.068 118.973 905.896 119.542 905.551 120.045C905.21 120.545 904.744 120.939 904.153 121.227C903.563 121.515 902.89 121.659 902.136 121.659ZM908.392 121.5V120.477L912.233 116.273C912.684 115.78 913.055 115.352 913.347 114.989C913.638 114.621 913.854 114.277 913.994 113.955C914.138 113.629 914.21 113.288 914.21 112.932C914.21 112.523 914.112 112.169 913.915 111.869C913.722 111.57 913.456 111.339 913.119 111.176C912.782 111.013 912.403 110.932 911.983 110.932C911.536 110.932 911.146 111.025 910.812 111.21C910.483 111.392 910.227 111.648 910.045 111.977C909.867 112.307 909.778 112.693 909.778 113.136H908.438C908.438 112.455 908.595 111.856 908.909 111.341C909.223 110.826 909.652 110.424 910.193 110.136C910.739 109.848 911.35 109.705 912.028 109.705C912.71 109.705 913.314 109.848 913.841 110.136C914.367 110.424 914.78 110.812 915.08 111.301C915.379 111.79 915.528 112.333 915.528 112.932C915.528 113.36 915.451 113.778 915.295 114.188C915.144 114.593 914.879 115.045 914.5 115.545C914.125 116.042 913.604 116.648 912.938 117.364L910.324 120.159V120.25H915.733V121.5H908.392ZM918.102 124.773V112.773H919.398V114.159H919.557C919.655 114.008 919.792 113.814 919.966 113.58C920.144 113.341 920.398 113.129 920.727 112.943C921.061 112.754 921.511 112.659 922.08 112.659C922.814 112.659 923.462 112.843 924.023 113.21C924.583 113.578 925.021 114.098 925.335 114.773C925.65 115.447 925.807 116.242 925.807 117.159C925.807 118.083 925.65 118.884 925.335 119.562C925.021 120.237 924.585 120.759 924.028 121.131C923.472 121.498 922.83 121.682 922.102 121.682C921.542 121.682 921.093 121.589 920.756 121.403C920.419 121.214 920.159 121 919.977 120.761C919.795 120.519 919.655 120.318 919.557 120.159H919.443V124.773H918.102ZM919.42 117.136C919.42 117.795 919.517 118.377 919.71 118.881C919.903 119.381 920.186 119.773 920.557 120.057C920.928 120.337 921.383 120.477 921.92 120.477C922.481 120.477 922.949 120.33 923.324 120.034C923.703 119.735 923.987 119.333 924.176 118.83C924.369 118.322 924.466 117.758 924.466 117.136C924.466 116.523 924.371 115.97 924.182 115.477C923.996 114.981 923.714 114.589 923.335 114.301C922.96 114.009 922.489 113.864 921.92 113.864C921.375 113.864 920.917 114.002 920.545 114.278C920.174 114.551 919.894 114.934 919.705 115.426C919.515 115.915 919.42 116.485 919.42 117.136ZM928.493 112.773L930.584 116.341L932.675 112.773H934.22L931.402 117.136L934.22 121.5H932.675L930.584 118.114L928.493 121.5H926.947L929.72 117.136L926.947 112.773H928.493Z" fill="white"/>
<path d="M451.733 207V196.818H452.966V205.906H457.699V207H451.733ZM461.696 207.179C461.212 207.179 460.773 207.088 460.379 206.906C459.984 206.72 459.671 206.453 459.439 206.105C459.207 205.754 459.091 205.33 459.091 204.832C459.091 204.395 459.177 204.04 459.349 203.768C459.522 203.493 459.752 203.278 460.04 203.122C460.329 202.966 460.647 202.85 460.995 202.774C461.346 202.695 461.699 202.632 462.054 202.585C462.518 202.526 462.894 202.481 463.183 202.451C463.474 202.418 463.686 202.363 463.819 202.287C463.955 202.211 464.023 202.078 464.023 201.889V201.849C464.023 201.359 463.888 200.978 463.62 200.706C463.355 200.434 462.952 200.298 462.412 200.298C461.852 200.298 461.413 200.421 461.094 200.666C460.776 200.911 460.553 201.173 460.423 201.452L459.31 201.054C459.509 200.59 459.774 200.229 460.105 199.97C460.44 199.708 460.804 199.526 461.199 199.423C461.597 199.317 461.988 199.264 462.372 199.264C462.617 199.264 462.899 199.294 463.217 199.354C463.539 199.41 463.849 199.528 464.147 199.707C464.449 199.886 464.699 200.156 464.898 200.517C465.097 200.878 465.196 201.362 465.196 201.969V207H464.023V205.966H463.963C463.884 206.132 463.751 206.309 463.565 206.498C463.38 206.687 463.133 206.848 462.825 206.98C462.516 207.113 462.14 207.179 461.696 207.179ZM461.875 206.125C462.339 206.125 462.73 206.034 463.048 205.852C463.37 205.669 463.612 205.434 463.774 205.146C463.94 204.857 464.023 204.554 464.023 204.236V203.162C463.973 203.222 463.864 203.276 463.695 203.326C463.529 203.372 463.337 203.414 463.118 203.45C462.902 203.483 462.692 203.513 462.487 203.54C462.284 203.563 462.12 203.583 461.994 203.599C461.689 203.639 461.404 203.704 461.139 203.793C460.877 203.879 460.665 204.01 460.503 204.186C460.344 204.358 460.264 204.594 460.264 204.892C460.264 205.3 460.415 205.608 460.717 205.817C461.022 206.022 461.408 206.125 461.875 206.125ZM467.497 207V196.818H468.67V200.577H468.769C468.856 200.444 468.975 200.275 469.127 200.07C469.283 199.861 469.505 199.675 469.794 199.513C470.085 199.347 470.48 199.264 470.977 199.264C471.62 199.264 472.186 199.425 472.677 199.746C473.168 200.068 473.55 200.524 473.825 201.114C474.101 201.704 474.238 202.4 474.238 203.202C474.238 204.01 474.101 204.711 473.825 205.305C473.55 205.895 473.169 206.352 472.682 206.677C472.195 206.998 471.633 207.159 470.997 207.159C470.506 207.159 470.113 207.078 469.818 206.915C469.523 206.75 469.296 206.562 469.137 206.354C468.978 206.142 468.856 205.966 468.769 205.827H468.63V207H467.497ZM468.65 203.182C468.65 203.759 468.735 204.267 468.904 204.708C469.073 205.146 469.32 205.489 469.644 205.737C469.969 205.982 470.367 206.105 470.838 206.105C471.328 206.105 471.737 205.976 472.066 205.717C472.397 205.455 472.646 205.104 472.811 204.663C472.98 204.219 473.065 203.725 473.065 203.182C473.065 202.645 472.982 202.161 472.816 201.73C472.654 201.296 472.407 200.953 472.075 200.701C471.747 200.446 471.335 200.318 470.838 200.318C470.36 200.318 469.959 200.439 469.634 200.681C469.31 200.92 469.064 201.254 468.899 201.685C468.733 202.113 468.65 202.612 468.65 203.182ZM479.235 207.159C478.499 207.159 477.864 206.997 477.33 206.672C476.8 206.344 476.391 205.886 476.102 205.3C475.817 204.71 475.675 204.024 475.675 203.241C475.675 202.459 475.817 201.77 476.102 201.173C476.391 200.573 476.792 200.106 477.306 199.771C477.823 199.433 478.426 199.264 479.115 199.264C479.513 199.264 479.906 199.33 480.294 199.463C480.681 199.596 481.034 199.811 481.352 200.109C481.671 200.404 481.924 200.795 482.113 201.283C482.302 201.77 482.396 202.37 482.396 203.082V203.58H476.51V202.565H481.203C481.203 202.134 481.117 201.75 480.945 201.412C480.776 201.074 480.534 200.807 480.219 200.612C479.907 200.416 479.539 200.318 479.115 200.318C478.648 200.318 478.244 200.434 477.902 200.666C477.564 200.895 477.304 201.193 477.122 201.561C476.939 201.929 476.848 202.323 476.848 202.744V203.42C476.848 203.997 476.948 204.486 477.146 204.887C477.349 205.285 477.629 205.588 477.987 205.797C478.345 206.002 478.761 206.105 479.235 206.105C479.543 206.105 479.821 206.062 480.07 205.976C480.322 205.886 480.539 205.754 480.721 205.578C480.903 205.399 481.044 205.177 481.144 204.912L482.277 205.23C482.158 205.615 481.957 205.953 481.676 206.244C481.394 206.533 481.046 206.758 480.632 206.92C480.217 207.08 479.752 207.159 479.235 207.159ZM485.355 196.818V207H484.181V196.818H485.355Z" fill="white" fill-opacity="0.95"/>
<rect x="451" y="220.5" width="399" height="31" rx="7.5" stroke="white" stroke-opacity="0.5"/>
<path d="M469 229C465.962 229 463.5 231.462 463.5 234.5C463.5 237.538 465.962 240 469 240C470.339 240 471.566 239.522 472.52 238.727L476.646 242.854C476.842 243.049 477.158 243.049 477.354 242.854C477.549 242.658 477.549 242.342 477.354 242.146L473.227 238.02C474.022 237.066 474.5 235.839 474.5 234.5C474.5 231.462 472.038 229 469 229ZM464.5 234.5C464.5 232.015 466.515 230 469 230C471.485 230 473.5 232.015 473.5 234.5C473.5 236.985 471.485 239 469 239C466.515 239 464.5 236.985 464.5 234.5Z" fill="white" fill-opacity="0.95"/>
<path d="M485.733 241V230.818H489.173C489.972 230.818 490.625 230.962 491.132 231.251C491.643 231.536 492.02 231.922 492.266 232.409C492.511 232.896 492.634 233.44 492.634 234.04C492.634 234.64 492.511 235.185 492.266 235.675C492.024 236.166 491.649 236.557 491.142 236.849C490.635 237.137 489.985 237.281 489.193 237.281H486.727V236.188H489.153C489.7 236.188 490.139 236.093 490.471 235.904C490.802 235.715 491.043 235.46 491.192 235.138C491.344 234.814 491.42 234.447 491.42 234.04C491.42 233.632 491.344 233.268 491.192 232.946C491.043 232.625 490.801 232.373 490.466 232.19C490.131 232.005 489.687 231.912 489.134 231.912H486.966V241H485.733ZM495.634 230.818V241H494.461V230.818H495.634ZM500.03 241.179C499.546 241.179 499.107 241.088 498.713 240.906C498.318 240.72 498.005 240.453 497.773 240.105C497.541 239.754 497.425 239.33 497.425 238.832C497.425 238.395 497.511 238.04 497.683 237.768C497.856 237.493 498.086 237.278 498.374 237.122C498.663 236.966 498.981 236.85 499.329 236.774C499.68 236.695 500.033 236.632 500.388 236.585C500.852 236.526 501.228 236.481 501.517 236.451C501.808 236.418 502.02 236.363 502.153 236.287C502.289 236.211 502.357 236.078 502.357 235.889V235.849C502.357 235.359 502.222 234.978 501.954 234.706C501.689 234.434 501.286 234.298 500.746 234.298C500.186 234.298 499.747 234.421 499.428 234.666C499.11 234.911 498.887 235.173 498.757 235.452L497.644 235.054C497.843 234.59 498.108 234.229 498.439 233.97C498.774 233.708 499.138 233.526 499.533 233.423C499.931 233.317 500.322 233.264 500.706 233.264C500.951 233.264 501.233 233.294 501.551 233.354C501.873 233.41 502.183 233.528 502.481 233.707C502.783 233.886 503.033 234.156 503.232 234.517C503.431 234.878 503.53 235.362 503.53 235.969V241H502.357V239.966H502.297C502.218 240.132 502.085 240.309 501.899 240.498C501.714 240.687 501.467 240.848 501.159 240.98C500.85 241.113 500.474 241.179 500.03 241.179ZM500.209 240.125C500.673 240.125 501.064 240.034 501.382 239.852C501.704 239.669 501.946 239.434 502.108 239.146C502.274 238.857 502.357 238.554 502.357 238.236V237.162C502.307 237.222 502.198 237.276 502.029 237.326C501.863 237.372 501.671 237.414 501.452 237.45C501.236 237.483 501.026 237.513 500.82 237.54C500.618 237.563 500.454 237.583 500.328 237.599C500.023 237.639 499.738 237.704 499.473 237.793C499.211 237.879 498.999 238.01 498.837 238.186C498.678 238.358 498.598 238.594 498.598 238.892C498.598 239.3 498.749 239.608 499.051 239.817C499.356 240.022 499.742 240.125 500.209 240.125ZM508.774 241.159C508.058 241.159 507.441 240.99 506.924 240.652C506.407 240.314 506.01 239.848 505.731 239.255C505.453 238.662 505.314 237.984 505.314 237.222C505.314 236.446 505.456 235.762 505.741 235.168C506.029 234.572 506.431 234.106 506.944 233.771C507.461 233.433 508.065 233.264 508.754 233.264C509.291 233.264 509.775 233.364 510.206 233.562C510.636 233.761 510.989 234.04 511.265 234.398C511.54 234.756 511.71 235.173 511.777 235.651H510.603C510.514 235.303 510.315 234.994 510.007 234.726C509.702 234.454 509.291 234.318 508.774 234.318C508.316 234.318 507.915 234.437 507.571 234.676C507.229 234.911 506.962 235.245 506.77 235.675C506.581 236.103 506.487 236.605 506.487 237.182C506.487 237.772 506.58 238.286 506.765 238.723C506.954 239.161 507.219 239.5 507.561 239.742C507.905 239.984 508.31 240.105 508.774 240.105C509.079 240.105 509.355 240.052 509.604 239.946C509.853 239.84 510.063 239.688 510.235 239.489C510.408 239.29 510.53 239.051 510.603 238.773H511.777C511.71 239.223 511.546 239.629 511.284 239.991C511.026 240.349 510.683 240.634 510.255 240.846C509.831 241.055 509.337 241.159 508.774 241.159ZM516.694 241.159C515.958 241.159 515.323 240.997 514.789 240.672C514.259 240.344 513.85 239.886 513.561 239.3C513.276 238.71 513.134 238.024 513.134 237.241C513.134 236.459 513.276 235.77 513.561 235.173C513.85 234.573 514.251 234.106 514.765 233.771C515.282 233.433 515.885 233.264 516.574 233.264C516.972 233.264 517.365 233.33 517.752 233.463C518.14 233.596 518.493 233.811 518.811 234.109C519.13 234.404 519.383 234.795 519.572 235.283C519.761 235.77 519.855 236.37 519.855 237.082V237.58H513.969V236.565H518.662C518.662 236.134 518.576 235.75 518.404 235.412C518.235 235.074 517.993 234.807 517.678 234.612C517.366 234.416 516.998 234.318 516.574 234.318C516.107 234.318 515.703 234.434 515.361 234.666C515.023 234.895 514.763 235.193 514.581 235.561C514.398 235.929 514.307 236.323 514.307 236.744V237.42C514.307 237.997 514.407 238.486 514.605 238.887C514.808 239.285 515.088 239.588 515.446 239.797C515.804 240.002 516.22 240.105 516.694 240.105C517.002 240.105 517.28 240.062 517.529 239.976C517.781 239.886 517.998 239.754 518.18 239.578C518.362 239.399 518.503 239.177 518.603 238.912L519.736 239.23C519.617 239.615 519.416 239.953 519.135 240.244C518.853 240.533 518.505 240.758 518.091 240.92C517.676 241.08 517.211 241.159 516.694 241.159ZM522.814 236.406V241H521.64V230.818H522.814V234.557H522.913C523.092 234.162 523.36 233.849 523.718 233.617C524.08 233.382 524.56 233.264 525.16 233.264C525.681 233.264 526.136 233.369 526.527 233.577C526.918 233.783 527.222 234.099 527.437 234.527C527.656 234.951 527.765 235.491 527.765 236.148V241H526.592V236.227C526.592 235.621 526.435 235.152 526.12 234.82C525.808 234.486 525.376 234.318 524.822 234.318C524.438 234.318 524.093 234.399 523.788 234.562C523.486 234.724 523.248 234.961 523.072 235.273C522.9 235.584 522.814 235.962 522.814 236.406ZM533.014 241.159C532.325 241.159 531.72 240.995 531.199 240.667C530.682 240.339 530.278 239.88 529.986 239.29C529.698 238.7 529.554 238.01 529.554 237.222C529.554 236.426 529.698 235.732 529.986 235.138C530.278 234.545 530.682 234.085 531.199 233.756C531.72 233.428 532.325 233.264 533.014 233.264C533.703 233.264 534.307 233.428 534.824 233.756C535.344 234.085 535.748 234.545 536.037 235.138C536.328 235.732 536.474 236.426 536.474 237.222C536.474 238.01 536.328 238.7 536.037 239.29C535.748 239.88 535.344 240.339 534.824 240.667C534.307 240.995 533.703 241.159 533.014 241.159ZM533.014 240.105C533.538 240.105 533.969 239.971 534.307 239.702C534.645 239.434 534.895 239.081 535.057 238.643C535.22 238.206 535.301 237.732 535.301 237.222C535.301 236.711 535.22 236.236 535.057 235.795C534.895 235.354 534.645 234.998 534.307 234.726C533.969 234.454 533.538 234.318 533.014 234.318C532.49 234.318 532.059 234.454 531.721 234.726C531.383 234.998 531.133 235.354 530.971 235.795C530.808 236.236 530.727 236.711 530.727 237.222C530.727 237.732 530.808 238.206 530.971 238.643C531.133 239.081 531.383 239.434 531.721 239.702C532.059 239.971 532.49 240.105 533.014 240.105ZM539.439 230.818V241H538.265V230.818H539.439ZM544.471 241.159C543.835 241.159 543.273 240.998 542.786 240.677C542.298 240.352 541.917 239.895 541.642 239.305C541.367 238.711 541.23 238.01 541.23 237.202C541.23 236.4 541.367 235.704 541.642 235.114C541.917 234.524 542.3 234.068 542.791 233.746C543.281 233.425 543.848 233.264 544.491 233.264C544.988 233.264 545.381 233.347 545.669 233.513C545.961 233.675 546.183 233.861 546.335 234.07C546.491 234.275 546.612 234.444 546.698 234.577H546.798V230.818H547.971V241H546.838V239.827H546.698C546.612 239.966 546.49 240.142 546.33 240.354C546.171 240.562 545.944 240.75 545.649 240.915C545.354 241.078 544.962 241.159 544.471 241.159ZM544.63 240.105C545.101 240.105 545.499 239.982 545.823 239.737C546.148 239.489 546.395 239.146 546.564 238.708C546.733 238.267 546.818 237.759 546.818 237.182C546.818 236.612 546.735 236.113 546.569 235.685C546.403 235.254 546.158 234.92 545.833 234.681C545.508 234.439 545.107 234.318 544.63 234.318C544.133 234.318 543.719 234.446 543.387 234.701C543.059 234.953 542.812 235.296 542.646 235.73C542.484 236.161 542.403 236.645 542.403 237.182C542.403 237.725 542.486 238.219 542.651 238.663C542.82 239.104 543.069 239.455 543.397 239.717C543.729 239.976 544.14 240.105 544.63 240.105ZM553.485 241.159C552.749 241.159 552.114 240.997 551.58 240.672C551.05 240.344 550.641 239.886 550.352 239.3C550.067 238.71 549.925 238.024 549.925 237.241C549.925 236.459 550.067 235.77 550.352 235.173C550.641 234.573 551.042 234.106 551.556 233.771C552.073 233.433 552.676 233.264 553.365 233.264C553.763 233.264 554.156 233.33 554.544 233.463C554.931 233.596 555.284 233.811 555.602 234.109C555.921 234.404 556.174 234.795 556.363 235.283C556.552 235.77 556.646 236.37 556.646 237.082V237.58H550.76V236.565H555.453C555.453 236.134 555.367 235.75 555.195 235.412C555.026 235.074 554.784 234.807 554.469 234.612C554.157 234.416 553.789 234.318 553.365 234.318C552.898 234.318 552.494 234.434 552.152 234.666C551.814 234.895 551.554 235.193 551.372 235.561C551.189 235.929 551.098 236.323 551.098 236.744V237.42C551.098 237.997 551.198 238.486 551.396 238.887C551.599 239.285 551.879 239.588 552.237 239.797C552.595 240.002 553.011 240.105 553.485 240.105C553.793 240.105 554.071 240.062 554.32 239.976C554.572 239.886 554.789 239.754 554.971 239.578C555.153 239.399 555.294 239.177 555.394 238.912L556.527 239.23C556.408 239.615 556.207 239.953 555.926 240.244C555.644 240.533 555.296 240.758 554.882 240.92C554.467 241.08 554.002 241.159 553.485 241.159ZM558.431 241V233.364H559.565V234.517H559.644C559.784 234.139 560.035 233.833 560.4 233.597C560.765 233.362 561.176 233.244 561.633 233.244C561.719 233.244 561.827 233.246 561.956 233.249C562.085 233.253 562.183 233.258 562.249 233.264V234.457C562.21 234.447 562.119 234.433 561.976 234.413C561.837 234.389 561.689 234.378 561.534 234.378C561.162 234.378 560.831 234.456 560.539 234.612C560.251 234.764 560.022 234.976 559.853 235.248C559.687 235.516 559.605 235.823 559.605 236.168V241H558.431ZM570.899 233.364V234.358H566.941V233.364H570.899ZM568.095 231.534H569.268V238.812C569.268 239.144 569.316 239.393 569.412 239.558C569.512 239.721 569.638 239.83 569.79 239.886C569.946 239.939 570.11 239.966 570.282 239.966C570.412 239.966 570.518 239.959 570.6 239.946C570.683 239.929 570.75 239.916 570.799 239.906L571.038 240.96C570.958 240.99 570.847 241.02 570.705 241.05C570.562 241.083 570.382 241.099 570.163 241.099C569.832 241.099 569.507 241.028 569.189 240.886C568.874 240.743 568.612 240.526 568.403 240.234C568.198 239.943 568.095 239.575 568.095 239.131V231.534ZM575.783 241.159C575.048 241.159 574.413 240.997 573.879 240.672C573.349 240.344 572.94 239.886 572.651 239.3C572.366 238.71 572.224 238.024 572.224 237.241C572.224 236.459 572.366 235.77 572.651 235.173C572.94 234.573 573.341 234.106 573.854 233.771C574.371 233.433 574.975 233.264 575.664 233.264C576.062 233.264 576.455 233.33 576.842 233.463C577.23 233.596 577.583 233.811 577.901 234.109C578.219 234.404 578.473 234.795 578.662 235.283C578.851 235.77 578.945 236.37 578.945 237.082V237.58H573.059V236.565H577.752C577.752 236.134 577.666 235.75 577.494 235.412C577.325 235.074 577.083 234.807 576.768 234.612C576.456 234.416 576.088 234.318 575.664 234.318C575.197 234.318 574.792 234.434 574.451 234.666C574.113 234.895 573.853 235.193 573.67 235.561C573.488 235.929 573.397 236.323 573.397 236.744V237.42C573.397 237.997 573.496 238.486 573.695 238.887C573.897 239.285 574.178 239.588 574.536 239.797C574.893 240.002 575.309 240.105 575.783 240.105C576.092 240.105 576.37 240.062 576.619 239.976C576.871 239.886 577.088 239.754 577.27 239.578C577.452 239.399 577.593 239.177 577.692 238.912L578.826 239.23C578.707 239.615 578.506 239.953 578.224 240.244C577.943 240.533 577.595 240.758 577.18 240.92C576.766 241.08 576.3 241.159 575.783 241.159ZM581.4 233.364L583.23 236.486L585.059 233.364H586.411L583.945 237.182L586.411 241H585.059L583.23 238.037L581.4 241H580.048L582.474 237.182L580.048 233.364H581.4ZM591.407 233.364V234.358H587.449V233.364H591.407ZM588.603 231.534H589.776V238.812C589.776 239.144 589.824 239.393 589.92 239.558C590.02 239.721 590.145 239.83 590.298 239.886C590.454 239.939 590.618 239.966 590.79 239.966C590.919 239.966 591.025 239.959 591.108 239.946C591.191 239.929 591.257 239.916 591.307 239.906L591.546 240.96C591.466 240.99 591.355 241.02 591.213 241.05C591.07 241.083 590.89 241.099 590.671 241.099C590.339 241.099 590.015 241.028 589.696 240.886C589.382 240.743 589.12 240.526 588.911 240.234C588.705 239.943 588.603 239.575 588.603 239.131V231.534Z" fill="white" fill-opacity="0.7"/>
<path d="M893.5 236H863.5" stroke="#DA0087"/>
<path d="M863.5 220V236L863.5 252" stroke="#DA0087"/>
<rect x="885.5" y="222" width="62" height="28" rx="14" fill="#DA0087"/>
<path d="M902.636 242.159C901.886 242.159 901.218 242.03 900.631 241.773C900.047 241.515 899.583 241.157 899.239 240.699C898.898 240.237 898.712 239.701 898.682 239.091H900.114C900.144 239.466 900.273 239.79 900.5 240.062C900.727 240.331 901.025 240.54 901.392 240.688C901.759 240.835 902.167 240.909 902.614 240.909C903.114 240.909 903.557 240.822 903.943 240.648C904.33 240.473 904.633 240.231 904.852 239.92C905.072 239.61 905.182 239.25 905.182 238.841C905.182 238.413 905.076 238.036 904.864 237.71C904.652 237.381 904.341 237.123 903.932 236.938C903.523 236.752 903.023 236.659 902.432 236.659H901.5V235.409H902.432C902.894 235.409 903.299 235.326 903.648 235.159C904 234.992 904.275 234.758 904.472 234.455C904.672 234.152 904.773 233.795 904.773 233.386C904.773 232.992 904.686 232.65 904.511 232.358C904.337 232.066 904.091 231.839 903.773 231.676C903.458 231.513 903.087 231.432 902.659 231.432C902.258 231.432 901.879 231.506 901.523 231.653C901.17 231.797 900.883 232.008 900.659 232.284C900.436 232.557 900.314 232.886 900.295 233.273H898.932C898.955 232.663 899.138 232.129 899.483 231.67C899.828 231.208 900.278 230.848 900.835 230.591C901.396 230.333 902.011 230.205 902.682 230.205C903.402 230.205 904.019 230.35 904.534 230.642C905.049 230.93 905.445 231.311 905.722 231.784C905.998 232.258 906.136 232.769 906.136 233.318C906.136 233.973 905.964 234.532 905.619 234.994C905.278 235.456 904.814 235.777 904.227 235.955V236.045C904.962 236.167 905.536 236.479 905.949 236.983C906.362 237.483 906.568 238.102 906.568 238.841C906.568 239.473 906.396 240.042 906.051 240.545C905.71 241.045 905.244 241.439 904.653 241.727C904.063 242.015 903.39 242.159 902.636 242.159ZM908.892 242V240.977L912.733 236.773C913.184 236.28 913.555 235.852 913.847 235.489C914.138 235.121 914.354 234.777 914.494 234.455C914.638 234.129 914.71 233.788 914.71 233.432C914.71 233.023 914.612 232.669 914.415 232.369C914.222 232.07 913.956 231.839 913.619 231.676C913.282 231.513 912.903 231.432 912.483 231.432C912.036 231.432 911.646 231.525 911.312 231.71C910.983 231.892 910.727 232.148 910.545 232.477C910.367 232.807 910.278 233.193 910.278 233.636H908.938C908.938 232.955 909.095 232.356 909.409 231.841C909.723 231.326 910.152 230.924 910.693 230.636C911.239 230.348 911.85 230.205 912.528 230.205C913.21 230.205 913.814 230.348 914.341 230.636C914.867 230.924 915.28 231.312 915.58 231.801C915.879 232.29 916.028 232.833 916.028 233.432C916.028 233.86 915.951 234.278 915.795 234.688C915.644 235.093 915.379 235.545 915 236.045C914.625 236.542 914.104 237.148 913.438 237.864L910.824 240.659V240.75H916.233V242H908.892ZM918.602 245.273V233.273H919.898V234.659H920.057C920.155 234.508 920.292 234.314 920.466 234.08C920.644 233.841 920.898 233.629 921.227 233.443C921.561 233.254 922.011 233.159 922.58 233.159C923.314 233.159 923.962 233.343 924.523 233.71C925.083 234.078 925.521 234.598 925.835 235.273C926.15 235.947 926.307 236.742 926.307 237.659C926.307 238.583 926.15 239.384 925.835 240.062C925.521 240.737 925.085 241.259 924.528 241.631C923.972 241.998 923.33 242.182 922.602 242.182C922.042 242.182 921.593 242.089 921.256 241.903C920.919 241.714 920.659 241.5 920.477 241.261C920.295 241.019 920.155 240.818 920.057 240.659H919.943V245.273H918.602ZM919.92 237.636C919.92 238.295 920.017 238.877 920.21 239.381C920.403 239.881 920.686 240.273 921.057 240.557C921.428 240.837 921.883 240.977 922.42 240.977C922.981 240.977 923.449 240.83 923.824 240.534C924.203 240.235 924.487 239.833 924.676 239.33C924.869 238.822 924.966 238.258 924.966 237.636C924.966 237.023 924.871 236.47 924.682 235.977C924.496 235.481 924.214 235.089 923.835 234.801C923.46 234.509 922.989 234.364 922.42 234.364C921.875 234.364 921.417 234.502 921.045 234.778C920.674 235.051 920.394 235.434 920.205 235.926C920.015 236.415 919.92 236.985 919.92 237.636ZM928.993 233.273L931.084 236.841L933.175 233.273H934.72L931.902 237.636L934.72 242H933.175L931.084 238.614L928.993 242H927.447L930.22 237.636L927.447 233.273H928.993Z" fill="white"/>
</svg>
