<svg width="634" height="483" viewBox="0 0 634 483" fill="none" xmlns="http://www.w3.org/2000/svg">
<path d="M0 24C0 10.7452 10.7452 0 24 0H610C623.255 0 634 10.7452 634 24V459C634 472.255 623.255 483 610 483H24C10.7452 483 0 472.255 0 459V24Z" fill="#262626"/>
<path d="M594 25.9995C591.231 25.9995 588.524 26.8206 586.222 28.3589C583.92 29.8973 582.125 32.0838 581.066 34.6419C580.006 37.2001 579.729 40.015 580.269 42.7308C580.809 45.4465 582.143 47.9411 584.101 49.899C586.058 51.8569 588.553 53.1903 591.269 53.7305C593.984 54.2707 596.799 53.9935 599.358 52.9338C601.916 51.8742 604.102 50.0798 605.641 47.7775C607.179 45.4752 608 42.7684 608 39.9995C607.996 36.2878 606.52 32.7292 603.895 30.1046C601.27 27.48 597.712 26.0037 594 25.9995ZM603.155 47.7402L586.259 30.8447C588.554 28.8983 591.497 27.8862 594.504 28.0096C597.511 28.1329 600.361 29.3826 602.489 31.5105C604.617 33.6383 605.867 36.4887 605.99 39.4954C606.113 42.5021 605.101 45.4453 603.155 47.7402ZM584.845 32.2588L601.741 49.1543C599.446 51.1007 596.503 52.1127 593.496 51.9894C590.489 51.866 587.639 50.6164 585.511 48.4885C583.383 46.3607 582.134 43.5103 582.01 40.5036C581.887 37.4969 582.899 34.5538 584.845 32.2588Z" fill="#FC8B98"/>
<path d="M124.084 213.77C124.084 213.434 124.009 213.168 123.86 212.972C123.692 212.739 123.384 212.524 122.936 212.328C122.488 212.132 121.811 211.908 120.906 211.656C119.693 211.32 118.857 210.905 118.4 210.41C118.027 210.009 117.84 209.472 117.84 208.8C117.84 207.988 118.195 207.344 118.904 206.868C119.557 206.429 120.407 206.21 121.452 206.21C122.619 206.21 123.566 206.485 124.294 207.036C124.947 207.521 125.33 208.156 125.442 208.94H123.972C123.888 208.408 123.608 208.011 123.132 207.75C122.712 207.507 122.152 207.386 121.452 207.386C120.668 207.386 120.089 207.535 119.716 207.834C119.417 208.067 119.268 208.371 119.268 208.744C119.268 208.987 119.305 209.187 119.38 209.346C119.464 209.495 119.604 209.631 119.8 209.752C120.164 209.995 120.869 210.261 121.914 210.55C123.37 210.961 124.355 211.427 124.868 211.95C125.297 212.379 125.512 212.967 125.512 213.714C125.512 214.601 125.125 215.333 124.35 215.912C123.622 216.444 122.698 216.71 121.578 216.71C120.411 216.71 119.445 216.397 118.68 215.772C118.017 215.231 117.621 214.531 117.49 213.672H118.96C119.053 214.288 119.347 214.759 119.842 215.086C120.29 215.385 120.859 215.534 121.55 215.534C122.409 215.534 123.067 215.338 123.524 214.946C123.897 214.629 124.084 214.237 124.084 213.77ZM132.082 214.4H133.538C133.333 215.137 132.927 215.716 132.32 216.136C131.751 216.519 131.07 216.71 130.276 216.71C129.128 216.71 128.232 216.346 127.588 215.618C127 214.937 126.706 214.017 126.706 212.86C126.706 211.544 127.08 210.545 127.826 209.864C128.442 209.295 129.236 209.01 130.206 209.01C131.345 209.01 132.204 209.379 132.782 210.116C133.342 210.825 133.622 211.838 133.622 213.154H128.078C128.134 214.013 128.396 214.652 128.862 215.072C129.245 215.408 129.73 215.576 130.318 215.576C130.776 215.576 131.172 215.45 131.508 215.198C131.788 214.983 131.98 214.717 132.082 214.4ZM130.234 210.088C129.637 210.088 129.156 210.275 128.792 210.648C128.447 210.993 128.228 211.474 128.134 212.09H132.25C132.204 211.39 131.97 210.867 131.55 210.522C131.214 210.233 130.776 210.088 130.234 210.088ZM136.382 211.25H134.954C135.029 210.522 135.374 209.957 135.99 209.556C136.541 209.192 137.236 209.01 138.076 209.01C139.075 209.01 139.84 209.271 140.372 209.794C140.82 210.242 141.044 210.821 141.044 211.53V216.5H139.938L139.77 215.506C139.201 216.309 138.389 216.71 137.334 216.71C136.503 216.71 135.855 216.486 135.388 216.038C135.005 215.665 134.814 215.193 134.814 214.624C134.814 213.905 135.061 213.35 135.556 212.958C135.995 212.613 136.667 212.361 137.572 212.202L139.7 211.838V211.474C139.7 210.998 139.537 210.639 139.21 210.396C138.921 210.181 138.524 210.074 138.02 210.074C137.031 210.074 136.485 210.466 136.382 211.25ZM137.656 215.576C138.225 215.576 138.72 215.389 139.14 215.016C139.513 214.671 139.7 214.274 139.7 213.826V212.888L137.894 213.21C137.231 213.322 136.779 213.495 136.536 213.728C136.34 213.915 136.242 214.167 136.242 214.484C136.242 214.839 136.363 215.109 136.606 215.296C136.849 215.483 137.199 215.576 137.656 215.576ZM144.275 216.5H142.931V209.22H144.037L144.219 210.298C144.63 209.439 145.246 209.01 146.067 209.01C146.338 209.01 146.604 209.043 146.865 209.108V210.452C146.548 210.368 146.263 210.326 146.011 210.326C145.47 210.326 145.045 210.545 144.737 210.984C144.429 211.423 144.275 212.043 144.275 212.846V216.5ZM152.531 214.162H154.001C153.889 214.946 153.52 215.576 152.895 216.052C152.325 216.491 151.63 216.71 150.809 216.71C149.735 216.71 148.881 216.341 148.247 215.604C147.659 214.923 147.365 214.027 147.365 212.916C147.365 211.628 147.719 210.629 148.429 209.92C149.035 209.313 149.824 209.01 150.795 209.01C151.691 209.01 152.428 209.248 153.007 209.724C153.52 210.144 153.833 210.695 153.945 211.376H152.461C152.367 210.984 152.176 210.681 151.887 210.466C151.607 210.251 151.252 210.144 150.823 210.144C150.16 210.144 149.651 210.405 149.297 210.928C148.961 211.413 148.793 212.09 148.793 212.958C148.793 213.863 149.017 214.549 149.465 215.016C149.819 215.389 150.277 215.576 150.837 215.576C151.322 215.576 151.719 215.436 152.027 215.156C152.297 214.913 152.465 214.582 152.531 214.162ZM156.881 216.5H155.537V206.42H156.881V210.046C157.413 209.355 158.122 209.01 159.009 209.01C159.867 209.01 160.525 209.276 160.983 209.808C161.384 210.284 161.585 210.933 161.585 211.754V216.5H160.241V211.768C160.241 210.695 159.723 210.158 158.687 210.158C158.136 210.158 157.688 210.349 157.343 210.732C157.035 211.077 156.881 211.521 156.881 212.062V216.5Z" fill="white" fill-opacity="0.95"/>
<rect x="117" y="232.5" width="400" height="32" rx="16" fill="white" fill-opacity="0.11"/>
<path d="M135.5 241.5C132.462 241.5 130 243.962 130 247C130 250.038 132.462 252.5 135.5 252.5C136.839 252.5 138.066 252.022 139.02 251.227L143.146 255.354C143.342 255.549 143.658 255.549 143.854 255.354C144.049 255.158 144.049 254.842 143.854 254.646L139.727 250.52C140.522 249.566 141 248.339 141 247C141 243.962 138.538 241.5 135.5 241.5ZM131 247C131 244.515 133.015 242.5 135.5 242.5C137.985 242.5 140 244.515 140 247C140 249.485 137.985 251.5 135.5 251.5C133.015 251.5 131 249.485 131 247Z" fill="white" fill-opacity="0.95"/>
<path d="M157.801 245.864C157.741 245.36 157.5 244.969 157.075 244.69C156.651 244.412 156.131 244.273 155.514 244.273C155.063 244.273 154.669 244.346 154.331 244.491C153.996 244.637 153.734 244.838 153.545 245.093C153.36 245.348 153.267 245.638 153.267 245.963C153.267 246.235 153.332 246.469 153.461 246.664C153.594 246.856 153.763 247.017 153.968 247.146C154.174 247.272 154.389 247.377 154.614 247.46C154.84 247.539 155.047 247.604 155.236 247.653L156.27 247.932C156.535 248.001 156.83 248.098 157.155 248.22C157.483 248.343 157.796 248.51 158.094 248.722C158.396 248.931 158.645 249.2 158.84 249.528C159.036 249.856 159.134 250.259 159.134 250.736C159.134 251.286 158.989 251.783 158.701 252.227C158.416 252.671 157.998 253.024 157.448 253.286C156.901 253.548 156.237 253.679 155.455 253.679C154.725 253.679 154.094 253.561 153.56 253.326C153.03 253.091 152.612 252.763 152.308 252.342C152.006 251.921 151.835 251.432 151.795 250.875H153.068C153.101 251.259 153.231 251.578 153.456 251.83C153.685 252.078 153.973 252.264 154.321 252.386C154.672 252.506 155.05 252.565 155.455 252.565C155.925 252.565 156.348 252.489 156.722 252.337C157.097 252.181 157.393 251.965 157.612 251.69C157.831 251.412 157.94 251.087 157.94 250.716C157.94 250.378 157.846 250.103 157.657 249.891C157.468 249.679 157.219 249.506 156.911 249.374C156.603 249.241 156.27 249.125 155.912 249.026L154.659 248.668C153.864 248.439 153.234 248.112 152.77 247.688C152.306 247.264 152.074 246.709 152.074 246.023C152.074 245.453 152.228 244.955 152.536 244.531C152.848 244.104 153.265 243.772 153.789 243.537C154.316 243.298 154.904 243.179 155.554 243.179C156.21 243.179 156.794 243.297 157.304 243.532C157.814 243.764 158.219 244.082 158.517 244.487C158.819 244.891 158.978 245.35 158.994 245.864H157.801ZM164.203 253.659C163.468 253.659 162.833 253.497 162.299 253.172C161.769 252.844 161.36 252.386 161.071 251.8C160.786 251.21 160.644 250.524 160.644 249.741C160.644 248.959 160.786 248.27 161.071 247.673C161.36 247.073 161.761 246.606 162.274 246.271C162.791 245.933 163.395 245.764 164.084 245.764C164.482 245.764 164.874 245.83 165.262 245.963C165.65 246.096 166.003 246.311 166.321 246.609C166.639 246.904 166.893 247.295 167.082 247.783C167.271 248.27 167.365 248.87 167.365 249.582V250.08H161.479V249.065H166.172C166.172 248.634 166.086 248.25 165.914 247.912C165.744 247.574 165.503 247.307 165.188 247.112C164.876 246.916 164.508 246.818 164.084 246.818C163.617 246.818 163.212 246.934 162.871 247.166C162.533 247.395 162.273 247.693 162.09 248.061C161.908 248.429 161.817 248.823 161.817 249.244V249.92C161.817 250.497 161.916 250.986 162.115 251.387C162.317 251.785 162.597 252.088 162.955 252.297C163.313 252.502 163.729 252.605 164.203 252.605C164.512 252.605 164.79 252.562 165.039 252.476C165.29 252.386 165.508 252.254 165.69 252.078C165.872 251.899 166.013 251.677 166.112 251.412L167.246 251.73C167.127 252.115 166.926 252.453 166.644 252.744C166.363 253.033 166.015 253.258 165.6 253.42C165.186 253.58 164.72 253.659 164.203 253.659ZM171.397 253.679C170.913 253.679 170.474 253.588 170.08 253.406C169.685 253.22 169.372 252.953 169.14 252.605C168.908 252.254 168.792 251.83 168.792 251.332C168.792 250.895 168.878 250.54 169.051 250.268C169.223 249.993 169.453 249.778 169.742 249.622C170.03 249.466 170.348 249.35 170.696 249.274C171.048 249.195 171.401 249.132 171.755 249.085C172.219 249.026 172.595 248.981 172.884 248.951C173.175 248.918 173.387 248.863 173.52 248.787C173.656 248.711 173.724 248.578 173.724 248.389V248.349C173.724 247.859 173.59 247.478 173.321 247.206C173.056 246.934 172.653 246.798 172.113 246.798C171.553 246.798 171.114 246.921 170.796 247.166C170.477 247.411 170.254 247.673 170.124 247.952L169.011 247.554C169.21 247.09 169.475 246.729 169.806 246.47C170.141 246.208 170.506 246.026 170.9 245.923C171.298 245.817 171.689 245.764 172.073 245.764C172.319 245.764 172.6 245.794 172.919 245.854C173.24 245.91 173.55 246.028 173.848 246.207C174.15 246.386 174.4 246.656 174.599 247.017C174.798 247.378 174.897 247.862 174.897 248.469V253.5H173.724V252.466H173.664C173.585 252.632 173.452 252.809 173.267 252.998C173.081 253.187 172.834 253.348 172.526 253.48C172.218 253.613 171.841 253.679 171.397 253.679ZM171.576 252.625C172.04 252.625 172.431 252.534 172.749 252.352C173.071 252.169 173.313 251.934 173.475 251.646C173.641 251.357 173.724 251.054 173.724 250.736V249.662C173.674 249.722 173.565 249.776 173.396 249.826C173.23 249.872 173.038 249.914 172.819 249.95C172.604 249.983 172.393 250.013 172.188 250.04C171.985 250.063 171.821 250.083 171.695 250.099C171.391 250.139 171.106 250.204 170.84 250.293C170.579 250.379 170.366 250.51 170.204 250.686C170.045 250.858 169.965 251.094 169.965 251.392C169.965 251.8 170.116 252.108 170.418 252.317C170.723 252.522 171.109 252.625 171.576 252.625ZM177.039 253.5V245.864H178.172V247.017H178.252C178.391 246.639 178.643 246.333 179.007 246.097C179.372 245.862 179.783 245.744 180.24 245.744C180.327 245.744 180.434 245.746 180.564 245.749C180.693 245.753 180.791 245.758 180.857 245.764V246.957C180.817 246.947 180.726 246.933 180.583 246.913C180.444 246.889 180.297 246.878 180.141 246.878C179.77 246.878 179.438 246.956 179.147 247.112C178.858 247.264 178.63 247.476 178.461 247.748C178.295 248.016 178.212 248.323 178.212 248.668V253.5H177.039ZM185.118 253.659C184.402 253.659 183.785 253.49 183.268 253.152C182.751 252.814 182.353 252.348 182.075 251.755C181.797 251.162 181.657 250.484 181.657 249.722C181.657 248.946 181.8 248.262 182.085 247.668C182.373 247.072 182.774 246.606 183.288 246.271C183.805 245.933 184.408 245.764 185.098 245.764C185.635 245.764 186.118 245.864 186.549 246.062C186.98 246.261 187.333 246.54 187.608 246.898C187.883 247.256 188.054 247.673 188.12 248.151H186.947C186.858 247.803 186.659 247.494 186.35 247.226C186.046 246.954 185.635 246.818 185.118 246.818C184.66 246.818 184.259 246.937 183.914 247.176C183.573 247.411 183.306 247.745 183.114 248.175C182.925 248.603 182.831 249.105 182.831 249.682C182.831 250.272 182.923 250.786 183.109 251.223C183.298 251.661 183.563 252 183.904 252.242C184.249 252.484 184.654 252.605 185.118 252.605C185.422 252.605 185.699 252.552 185.948 252.446C186.196 252.34 186.407 252.188 186.579 251.989C186.752 251.79 186.874 251.551 186.947 251.273H188.12C188.054 251.723 187.89 252.129 187.628 252.491C187.37 252.849 187.027 253.134 186.599 253.346C186.175 253.555 185.681 253.659 185.118 253.659ZM191.009 248.906V253.5H189.836V243.318H191.009V247.057H191.108C191.287 246.662 191.556 246.349 191.914 246.117C192.275 245.882 192.756 245.764 193.355 245.764C193.876 245.764 194.332 245.869 194.723 246.077C195.114 246.283 195.417 246.599 195.632 247.027C195.851 247.451 195.961 247.991 195.961 248.648V253.5H194.787V248.727C194.787 248.121 194.63 247.652 194.315 247.32C194.003 246.986 193.571 246.818 193.017 246.818C192.633 246.818 192.288 246.899 191.983 247.062C191.682 247.224 191.443 247.461 191.267 247.773C191.095 248.084 191.009 248.462 191.009 248.906ZM203.218 248.906V253.5H202.045V245.864H203.178V247.057H203.278C203.456 246.669 203.728 246.357 204.093 246.122C204.457 245.884 204.928 245.764 205.505 245.764C206.022 245.764 206.474 245.87 206.862 246.082C207.25 246.291 207.551 246.609 207.767 247.037C207.982 247.461 208.09 247.998 208.09 248.648V253.5H206.917V248.727C206.917 248.127 206.761 247.66 206.449 247.325C206.138 246.987 205.71 246.818 205.167 246.818C204.792 246.818 204.457 246.899 204.162 247.062C203.871 247.224 203.64 247.461 203.471 247.773C203.302 248.084 203.218 248.462 203.218 248.906ZM212.481 253.679C211.997 253.679 211.558 253.588 211.164 253.406C210.769 253.22 210.456 252.953 210.224 252.605C209.992 252.254 209.876 251.83 209.876 251.332C209.876 250.895 209.962 250.54 210.135 250.268C210.307 249.993 210.537 249.778 210.826 249.622C211.114 249.466 211.432 249.35 211.78 249.274C212.132 249.195 212.484 249.132 212.839 249.085C213.303 249.026 213.679 248.981 213.968 248.951C214.259 248.918 214.471 248.863 214.604 248.787C214.74 248.711 214.808 248.578 214.808 248.389V248.349C214.808 247.859 214.674 247.478 214.405 247.206C214.14 246.934 213.737 246.798 213.197 246.798C212.637 246.798 212.198 246.921 211.88 247.166C211.561 247.411 211.338 247.673 211.208 247.952L210.095 247.554C210.294 247.09 210.559 246.729 210.89 246.47C211.225 246.208 211.59 246.026 211.984 245.923C212.382 245.817 212.773 245.764 213.157 245.764C213.403 245.764 213.684 245.794 214.002 245.854C214.324 245.91 214.634 246.028 214.932 246.207C215.234 246.386 215.484 246.656 215.683 247.017C215.882 247.378 215.981 247.862 215.981 248.469V253.5H214.808V252.466H214.748C214.669 252.632 214.536 252.809 214.35 252.998C214.165 253.187 213.918 253.348 213.61 253.48C213.301 253.613 212.925 253.679 212.481 253.679ZM212.66 252.625C213.124 252.625 213.515 252.534 213.833 252.352C214.155 252.169 214.397 251.934 214.559 251.646C214.725 251.357 214.808 251.054 214.808 250.736V249.662C214.758 249.722 214.649 249.776 214.48 249.826C214.314 249.872 214.122 249.914 213.903 249.95C213.688 249.983 213.477 250.013 213.272 250.04C213.069 250.063 212.905 250.083 212.779 250.099C212.475 250.139 212.19 250.204 211.924 250.293C211.663 250.379 211.45 250.51 211.288 250.686C211.129 250.858 211.049 251.094 211.049 251.392C211.049 251.8 211.2 252.108 211.502 252.317C211.807 252.522 212.193 252.625 212.66 252.625ZM218.123 253.5V245.864H219.256V247.057H219.356C219.515 246.649 219.772 246.333 220.126 246.107C220.481 245.879 220.907 245.764 221.404 245.764C221.908 245.764 222.327 245.879 222.662 246.107C223 246.333 223.263 246.649 223.452 247.057H223.532C223.727 246.662 224.021 246.349 224.412 246.117C224.803 245.882 225.272 245.764 225.819 245.764C226.501 245.764 227.06 245.978 227.494 246.406C227.928 246.83 228.145 247.491 228.145 248.389V253.5H226.972V248.389C226.972 247.826 226.818 247.423 226.51 247.181C226.202 246.939 225.839 246.818 225.421 246.818C224.884 246.818 224.468 246.981 224.173 247.305C223.878 247.627 223.731 248.035 223.731 248.528V253.5H222.537V248.27C222.537 247.836 222.397 247.486 222.115 247.221C221.833 246.952 221.47 246.818 221.026 246.818C220.721 246.818 220.436 246.899 220.171 247.062C219.909 247.224 219.697 247.45 219.535 247.738C219.376 248.023 219.296 248.353 219.296 248.727V253.5H218.123ZM233.492 253.659C232.757 253.659 232.122 253.497 231.588 253.172C231.058 252.844 230.649 252.386 230.36 251.8C230.075 251.21 229.933 250.524 229.933 249.741C229.933 248.959 230.075 248.27 230.36 247.673C230.649 247.073 231.05 246.606 231.563 246.271C232.08 245.933 232.684 245.764 233.373 245.764C233.771 245.764 234.164 245.83 234.551 245.963C234.939 246.096 235.292 246.311 235.61 246.609C235.928 246.904 236.182 247.295 236.371 247.783C236.56 248.27 236.654 248.87 236.654 249.582V250.08H230.768V249.065H235.461C235.461 248.634 235.375 248.25 235.203 247.912C235.034 247.574 234.792 247.307 234.477 247.112C234.165 246.916 233.797 246.818 233.373 246.818C232.906 246.818 232.501 246.934 232.16 247.166C231.822 247.395 231.562 247.693 231.379 248.061C231.197 248.429 231.106 248.823 231.106 249.244V249.92C231.106 250.497 231.205 250.986 231.404 251.387C231.606 251.785 231.887 252.088 232.244 252.297C232.602 252.502 233.018 252.605 233.492 252.605C233.801 252.605 234.079 252.562 234.328 252.476C234.579 252.386 234.797 252.254 234.979 252.078C235.161 251.899 235.302 251.677 235.401 251.412L236.535 251.73C236.416 252.115 236.215 252.453 235.933 252.744C235.652 253.033 235.304 253.258 234.889 253.42C234.475 253.58 234.009 253.659 233.492 253.659ZM243.848 247.574L242.794 247.872C242.728 247.696 242.63 247.526 242.501 247.36C242.375 247.191 242.203 247.052 241.984 246.942C241.765 246.833 241.485 246.778 241.144 246.778C240.676 246.778 240.287 246.886 239.975 247.102C239.667 247.314 239.513 247.584 239.513 247.912C239.513 248.204 239.619 248.434 239.831 248.603C240.043 248.772 240.375 248.913 240.825 249.026L241.959 249.304C242.642 249.47 243.151 249.723 243.485 250.065C243.82 250.403 243.987 250.839 243.987 251.372C243.987 251.81 243.861 252.201 243.61 252.545C243.361 252.89 243.013 253.162 242.566 253.361C242.118 253.56 241.598 253.659 241.004 253.659C240.226 253.659 239.581 253.49 239.07 253.152C238.56 252.814 238.237 252.32 238.101 251.67L239.215 251.392C239.321 251.803 239.521 252.111 239.816 252.317C240.115 252.522 240.504 252.625 240.985 252.625C241.531 252.625 241.966 252.509 242.287 252.277C242.612 252.042 242.774 251.76 242.774 251.432C242.774 251.167 242.682 250.945 242.496 250.766C242.31 250.583 242.025 250.447 241.641 250.358L240.368 250.06C239.669 249.894 239.155 249.637 238.827 249.289C238.502 248.938 238.34 248.499 238.34 247.972C238.34 247.541 238.461 247.16 238.703 246.828C238.948 246.497 239.281 246.237 239.702 246.048C240.126 245.859 240.607 245.764 241.144 245.764C241.899 245.764 242.493 245.93 242.923 246.261C243.358 246.593 243.666 247.03 243.848 247.574ZM247.504 252.108L247.424 252.645C247.368 253.023 247.281 253.427 247.165 253.858C247.053 254.289 246.935 254.695 246.812 255.076C246.69 255.457 246.589 255.76 246.509 255.986H245.614C245.657 255.774 245.714 255.494 245.783 255.146C245.853 254.798 245.923 254.408 245.992 253.977C246.065 253.55 246.125 253.112 246.171 252.665L246.231 252.108H247.504ZM256.817 253.659C256.081 253.659 255.446 253.497 254.912 253.172C254.382 252.844 253.973 252.386 253.684 251.8C253.399 251.21 253.257 250.524 253.257 249.741C253.257 248.959 253.399 248.27 253.684 247.673C253.973 247.073 254.374 246.606 254.888 246.271C255.405 245.933 256.008 245.764 256.697 245.764C257.095 245.764 257.488 245.83 257.876 245.963C258.263 246.096 258.616 246.311 258.934 246.609C259.253 246.904 259.506 247.295 259.695 247.783C259.884 248.27 259.979 248.87 259.979 249.582V250.08H254.092V249.065H258.785C258.785 248.634 258.699 248.25 258.527 247.912C258.358 247.574 258.116 247.307 257.801 247.112C257.489 246.916 257.122 246.818 256.697 246.818C256.23 246.818 255.826 246.934 255.484 247.166C255.146 247.395 254.886 247.693 254.704 248.061C254.521 248.429 254.43 248.823 254.43 249.244V249.92C254.43 250.497 254.53 250.986 254.729 251.387C254.931 251.785 255.211 252.088 255.569 252.297C255.927 252.502 256.343 252.605 256.817 252.605C257.125 252.605 257.403 252.562 257.652 252.476C257.904 252.386 258.121 252.254 258.303 252.078C258.485 251.899 258.626 251.677 258.726 251.412L259.859 251.73C259.74 252.115 259.539 252.453 259.258 252.744C258.976 253.033 258.628 253.258 258.214 253.42C257.799 253.58 257.334 253.659 256.817 253.659ZM261.763 253.5V245.864H262.897V247.057H262.996C263.155 246.649 263.412 246.333 263.767 246.107C264.122 245.879 264.547 245.764 265.045 245.764C265.548 245.764 265.968 245.879 266.302 246.107C266.64 246.333 266.904 246.649 267.093 247.057H267.172C267.368 246.662 267.661 246.349 268.052 246.117C268.443 245.882 268.912 245.764 269.459 245.764C270.142 245.764 270.701 245.978 271.135 246.406C271.569 246.83 271.786 247.491 271.786 248.389V253.5H270.613V248.389C270.613 247.826 270.459 247.423 270.15 247.181C269.842 246.939 269.479 246.818 269.062 246.818C268.525 246.818 268.109 246.981 267.814 247.305C267.519 247.627 267.371 248.035 267.371 248.528V253.5H266.178V248.27C266.178 247.836 266.037 247.486 265.756 247.221C265.474 246.952 265.111 246.818 264.667 246.818C264.362 246.818 264.077 246.899 263.812 247.062C263.55 247.224 263.338 247.45 263.175 247.738C263.016 248.023 262.937 248.353 262.937 248.727V253.5H261.763ZM276.178 253.679C275.695 253.679 275.255 253.588 274.861 253.406C274.467 253.22 274.153 252.953 273.921 252.605C273.689 252.254 273.573 251.83 273.573 251.332C273.573 250.895 273.66 250.54 273.832 250.268C274.004 249.993 274.235 249.778 274.523 249.622C274.811 249.466 275.129 249.35 275.477 249.274C275.829 249.195 276.182 249.132 276.536 249.085C277 249.026 277.377 248.981 277.665 248.951C277.957 248.918 278.169 248.863 278.301 248.787C278.437 248.711 278.505 248.578 278.505 248.389V248.349C278.505 247.859 278.371 247.478 278.102 247.206C277.837 246.934 277.435 246.798 276.894 246.798C276.334 246.798 275.895 246.921 275.577 247.166C275.259 247.411 275.035 247.673 274.906 247.952L273.792 247.554C273.991 247.09 274.256 246.729 274.588 246.47C274.922 246.208 275.287 246.026 275.681 245.923C276.079 245.817 276.47 245.764 276.855 245.764C277.1 245.764 277.382 245.794 277.7 245.854C278.021 245.91 278.331 246.028 278.629 246.207C278.931 246.386 279.181 246.656 279.38 247.017C279.579 247.378 279.678 247.862 279.678 248.469V253.5H278.505V252.466H278.445C278.366 252.632 278.233 252.809 278.048 252.998C277.862 253.187 277.615 253.348 277.307 253.48C276.999 253.613 276.623 253.679 276.178 253.679ZM276.357 252.625C276.821 252.625 277.213 252.534 277.531 252.352C277.852 252.169 278.094 251.934 278.257 251.646C278.422 251.357 278.505 251.054 278.505 250.736V249.662C278.455 249.722 278.346 249.776 278.177 249.826C278.011 249.872 277.819 249.914 277.6 249.95C277.385 249.983 277.174 250.013 276.969 250.04C276.767 250.063 276.603 250.083 276.477 250.099C276.172 250.139 275.887 250.204 275.622 250.293C275.36 250.379 275.148 250.51 274.985 250.686C274.826 250.858 274.747 251.094 274.747 251.392C274.747 251.8 274.897 252.108 275.199 252.317C275.504 252.522 275.89 252.625 276.357 252.625ZM281.82 253.5V245.864H282.993V253.5H281.82ZM282.417 244.591C282.188 244.591 281.991 244.513 281.825 244.357C281.663 244.201 281.581 244.014 281.581 243.795C281.581 243.577 281.663 243.389 281.825 243.234C281.991 243.078 282.188 243 282.417 243C282.645 243 282.841 243.078 283.003 243.234C283.169 243.389 283.252 243.577 283.252 243.795C283.252 244.014 283.169 244.201 283.003 244.357C282.841 244.513 282.645 244.591 282.417 244.591ZM286.316 243.318V253.5H285.142V243.318H286.316ZM293.874 247.574L292.82 247.872C292.753 247.696 292.656 247.526 292.526 247.36C292.4 247.191 292.228 247.052 292.009 246.942C291.79 246.833 291.51 246.778 291.169 246.778C290.702 246.778 290.312 246.886 290.001 247.102C289.692 247.314 289.538 247.584 289.538 247.912C289.538 248.204 289.644 248.434 289.857 248.603C290.069 248.772 290.4 248.913 290.851 249.026L291.984 249.304C292.667 249.47 293.176 249.723 293.511 250.065C293.845 250.403 294.013 250.839 294.013 251.372C294.013 251.81 293.887 252.201 293.635 252.545C293.386 252.89 293.038 253.162 292.591 253.361C292.143 253.56 291.623 253.659 291.03 253.659C290.251 253.659 289.606 253.49 289.096 253.152C288.585 252.814 288.262 252.32 288.126 251.67L289.24 251.392C289.346 251.803 289.547 252.111 289.842 252.317C290.14 252.522 290.529 252.625 291.01 252.625C291.557 252.625 291.991 252.509 292.312 252.277C292.637 252.042 292.8 251.76 292.8 251.432C292.8 251.167 292.707 250.945 292.521 250.766C292.336 250.583 292.051 250.447 291.666 250.358L290.393 250.06C289.694 249.894 289.18 249.637 288.852 249.289C288.527 248.938 288.365 248.499 288.365 247.972C288.365 247.541 288.486 247.16 288.728 246.828C288.973 246.497 289.306 246.237 289.727 246.048C290.152 245.859 290.632 245.764 291.169 245.764C291.925 245.764 292.518 245.93 292.949 246.261C293.383 246.593 293.691 247.03 293.874 247.574ZM297.529 252.108L297.449 252.645C297.393 253.023 297.307 253.427 297.191 253.858C297.078 254.289 296.961 254.695 296.838 255.076C296.715 255.457 296.614 255.76 296.535 255.986H295.64C295.683 255.774 295.739 255.494 295.809 255.146C295.878 254.798 295.948 254.408 296.018 253.977C296.09 253.55 296.15 253.112 296.197 252.665L296.256 252.108H297.529ZM306.743 253.659C306.053 253.659 305.448 253.495 304.928 253.167C304.411 252.839 304.007 252.38 303.715 251.79C303.426 251.2 303.282 250.51 303.282 249.722C303.282 248.926 303.426 248.232 303.715 247.638C304.007 247.045 304.411 246.585 304.928 246.256C305.448 245.928 306.053 245.764 306.743 245.764C307.432 245.764 308.035 245.928 308.552 246.256C309.073 246.585 309.477 247.045 309.765 247.638C310.057 248.232 310.203 248.926 310.203 249.722C310.203 250.51 310.057 251.2 309.765 251.79C309.477 252.38 309.073 252.839 308.552 253.167C308.035 253.495 307.432 253.659 306.743 253.659ZM306.743 252.605C307.266 252.605 307.697 252.471 308.035 252.202C308.373 251.934 308.623 251.581 308.786 251.143C308.948 250.706 309.029 250.232 309.029 249.722C309.029 249.211 308.948 248.736 308.786 248.295C308.623 247.854 308.373 247.498 308.035 247.226C307.697 246.954 307.266 246.818 306.743 246.818C306.219 246.818 305.788 246.954 305.45 247.226C305.112 247.498 304.862 247.854 304.699 248.295C304.537 248.736 304.456 249.211 304.456 249.722C304.456 250.232 304.537 250.706 304.699 251.143C304.862 251.581 305.112 251.934 305.45 252.202C305.788 252.471 306.219 252.605 306.743 252.605ZM311.994 253.5V245.864H313.127V247.017H313.207C313.346 246.639 313.598 246.333 313.963 246.097C314.327 245.862 314.738 245.744 315.195 245.744C315.282 245.744 315.389 245.746 315.519 245.749C315.648 245.753 315.746 245.758 315.812 245.764V246.957C315.772 246.947 315.681 246.933 315.539 246.913C315.399 246.889 315.252 246.878 315.096 246.878C314.725 246.878 314.393 246.956 314.102 247.112C313.813 247.264 313.585 247.476 313.416 247.748C313.25 248.016 313.167 248.323 313.167 248.668V253.5H311.994ZM324.461 245.864V246.858H320.504V245.864H324.461ZM321.657 244.034H322.831V251.312C322.831 251.644 322.879 251.893 322.975 252.058C323.074 252.221 323.2 252.33 323.353 252.386C323.508 252.439 323.672 252.466 323.845 252.466C323.974 252.466 324.08 252.459 324.163 252.446C324.246 252.429 324.312 252.416 324.362 252.406L324.6 253.46C324.521 253.49 324.41 253.52 324.267 253.55C324.125 253.583 323.944 253.599 323.725 253.599C323.394 253.599 323.069 253.528 322.751 253.386C322.436 253.243 322.174 253.026 321.966 252.734C321.76 252.443 321.657 252.075 321.657 251.631V244.034ZM326.226 253.5V245.864H327.4V253.5H326.226ZM326.823 244.591C326.594 244.591 326.397 244.513 326.231 244.357C326.069 244.201 325.988 244.014 325.988 243.795C325.988 243.577 326.069 243.389 326.231 243.234C326.397 243.078 326.594 243 326.823 243C327.051 243 327.247 243.078 327.409 243.234C327.575 243.389 327.658 243.577 327.658 243.795C327.658 244.014 327.575 244.201 327.409 244.357C327.247 244.513 327.051 244.591 326.823 244.591ZM332.869 245.864V246.858H328.912V245.864H332.869ZM330.066 244.034H331.239V251.312C331.239 251.644 331.287 251.893 331.383 252.058C331.482 252.221 331.608 252.33 331.761 252.386C331.917 252.439 332.081 252.466 332.253 252.466C332.382 252.466 332.488 252.459 332.571 252.446C332.654 252.429 332.72 252.416 332.77 252.406L333.009 253.46C332.929 253.49 332.818 253.52 332.676 253.55C332.533 253.583 332.352 253.599 332.134 253.599C331.802 253.599 331.477 253.528 331.159 253.386C330.844 253.243 330.583 253.026 330.374 252.734C330.168 252.443 330.066 252.075 330.066 251.631V244.034ZM335.972 243.318V253.5H334.798V243.318H335.972ZM341.322 253.659C340.587 253.659 339.952 253.497 339.418 253.172C338.888 252.844 338.479 252.386 338.19 251.8C337.905 251.21 337.763 250.524 337.763 249.741C337.763 248.959 337.905 248.27 338.19 247.673C338.479 247.073 338.88 246.606 339.393 246.271C339.911 245.933 340.514 245.764 341.203 245.764C341.601 245.764 341.994 245.83 342.381 245.963C342.769 246.096 343.122 246.311 343.44 246.609C343.759 246.904 344.012 247.295 344.201 247.783C344.39 248.27 344.484 248.87 344.484 249.582V250.08H338.598V249.065H343.291C343.291 248.634 343.205 248.25 343.033 247.912C342.864 247.574 342.622 247.307 342.307 247.112C341.995 246.916 341.627 246.818 341.203 246.818C340.736 246.818 340.331 246.934 339.99 247.166C339.652 247.395 339.392 247.693 339.21 248.061C339.027 248.429 338.936 248.823 338.936 249.244V249.92C338.936 250.497 339.036 250.986 339.234 251.387C339.437 251.785 339.717 252.088 340.075 252.297C340.433 252.502 340.848 252.605 341.322 252.605C341.631 252.605 341.909 252.562 342.158 252.476C342.41 252.386 342.627 252.254 342.809 252.078C342.991 251.899 343.132 251.677 343.232 251.412L344.365 251.73C344.246 252.115 344.045 252.453 343.763 252.744C343.482 253.033 343.134 253.258 342.719 253.42C342.305 253.58 341.839 253.659 341.322 253.659ZM351.678 247.574L350.624 247.872C350.558 247.696 350.46 247.526 350.331 247.36C350.205 247.191 350.033 247.052 349.814 246.942C349.595 246.833 349.315 246.778 348.974 246.778C348.506 246.778 348.117 246.886 347.805 247.102C347.497 247.314 347.343 247.584 347.343 247.912C347.343 248.204 347.449 248.434 347.661 248.603C347.873 248.772 348.205 248.913 348.656 249.026L349.789 249.304C350.472 249.47 350.981 249.723 351.315 250.065C351.65 250.403 351.817 250.839 351.817 251.372C351.817 251.81 351.692 252.201 351.44 252.545C351.191 252.89 350.843 253.162 350.396 253.361C349.948 253.56 349.428 253.659 348.835 253.659C348.056 253.659 347.411 253.49 346.901 253.152C346.39 252.814 346.067 252.32 345.931 251.67L347.045 251.392C347.151 251.803 347.351 252.111 347.646 252.317C347.945 252.522 348.334 252.625 348.815 252.625C349.362 252.625 349.796 252.509 350.117 252.277C350.442 252.042 350.604 251.76 350.604 251.432C350.604 251.167 350.512 250.945 350.326 250.766C350.14 250.583 349.855 250.447 349.471 250.358L348.198 250.06C347.499 249.894 346.985 249.637 346.657 249.289C346.332 248.938 346.17 248.499 346.17 247.972C346.17 247.541 346.291 247.16 346.533 246.828C346.778 246.497 347.111 246.237 347.532 246.048C347.956 245.859 348.437 245.764 348.974 245.764C349.729 245.764 350.323 245.93 350.754 246.261C351.188 246.593 351.496 247.03 351.678 247.574Z" fill="white" fill-opacity="0.7"/>
<path d="M0 460H634C634 472.703 623.703 483 611 483H23C10.2974 483 0 472.703 0 460Z" fill="url(#paint0_linear_1310_26857)"/>
<defs>
<linearGradient id="paint0_linear_1310_26857" x1="317" y1="460" x2="317" y2="483" gradientUnits="userSpaceOnUse">
<stop stop-color="#F0677E"/>
<stop offset="1" stop-color="#DB1F2E"/>
</linearGradient>
</defs>
</svg>
