<svg width="407" height="242" viewBox="0 0 407 242" fill="none" xmlns="http://www.w3.org/2000/svg">
<rect width="406.667" height="208" rx="20" fill="#262626"/>
<g filter="url(#filter0_d_1311_36223)">
<mask id="path-2-inside-1_1311_36223" fill="white">
<path d="M65.333 46C65.333 41.5817 68.9147 38 73.333 38H333.333C337.751 38 341.333 41.5817 341.333 46V162C341.333 166.418 337.751 170 333.333 170H73.333C68.9147 170 65.333 166.418 65.333 162V46Z"/>
</mask>
<path d="M65.333 46C65.333 41.5817 68.9147 38 73.333 38H333.333C337.751 38 341.333 41.5817 341.333 46V162C341.333 166.418 337.751 170 333.333 170H73.333C68.9147 170 65.333 166.418 65.333 162V46Z" fill="black"/>
<path d="M73.333 39H333.333V37H73.333V39ZM340.333 46V162H342.333V46H340.333ZM333.333 169H73.333V171H333.333V169ZM66.333 162V46H64.333V162H66.333ZM73.333 169C69.467 169 66.333 165.866 66.333 162H64.333C64.333 166.971 68.3624 171 73.333 171V169ZM340.333 162C340.333 165.866 337.199 169 333.333 169V171C338.304 171 342.333 166.971 342.333 162H340.333ZM333.333 39C337.199 39 340.333 42.134 340.333 46H342.333C342.333 41.0294 338.304 37 333.333 37V39ZM73.333 37C68.3624 37 64.333 41.0294 64.333 46H66.333C66.333 42.134 69.467 39 73.333 39V37Z" fill="white" fill-opacity="0.2" mask="url(#path-2-inside-1_1311_36223)"/>
</g>
<path d="M86.566 73V62.8182H90.0063C90.8051 62.8182 91.458 62.9624 91.9651 63.2507C92.4755 63.5357 92.8534 63.9219 93.0986 64.4091C93.3439 64.8963 93.4665 65.4399 93.4665 66.0398C93.4665 66.6397 93.3439 67.1849 93.0986 67.6754C92.8567 68.166 92.4822 68.5571 91.9751 68.8487C91.468 69.1371 90.8183 69.2812 90.0262 69.2812H87.5603V68.1875H89.9864C90.5333 68.1875 90.9724 68.093 91.3039 67.9041C91.6353 67.7152 91.8756 67.46 92.0248 67.1385C92.1772 66.8137 92.2535 66.4474 92.2535 66.0398C92.2535 65.6321 92.1772 65.2675 92.0248 64.946C91.8756 64.6245 91.6337 64.3726 91.2989 64.1903C90.9642 64.0047 90.52 63.9119 89.9665 63.9119H87.7989V73H86.566ZM95.2936 73V65.3636H96.4271V66.517H96.5067C96.6459 66.1392 96.8978 65.8326 97.2623 65.5973C97.6269 65.362 98.0379 65.2443 98.4953 65.2443C98.5815 65.2443 98.6892 65.246 98.8184 65.2493C98.9477 65.2526 99.0455 65.2576 99.1118 65.2642V66.4574C99.072 66.4474 98.9809 66.4325 98.8383 66.4126C98.6991 66.3894 98.5516 66.3778 98.3959 66.3778C98.0247 66.3778 97.6932 66.4557 97.4015 66.6115C97.1132 66.764 96.8845 66.9761 96.7155 67.2479C96.5497 67.5163 96.4669 67.8229 96.4669 68.1676V73H95.2936ZM100.503 73V65.3636H101.676V73H100.503ZM101.099 64.0909C100.87 64.0909 100.673 64.013 100.508 63.8572C100.345 63.7015 100.264 63.5142 100.264 63.2955C100.264 63.0767 100.345 62.8894 100.508 62.7337C100.673 62.5779 100.87 62.5 101.099 62.5C101.328 62.5 101.523 62.5779 101.686 62.7337C101.852 62.8894 101.934 63.0767 101.934 63.2955C101.934 63.5142 101.852 63.7015 101.686 63.8572C101.523 64.013 101.328 64.0909 101.099 64.0909ZM103.825 73V65.3636H104.958V66.5568H105.058C105.217 66.1491 105.474 65.8326 105.828 65.6072C106.183 65.3786 106.609 65.2642 107.106 65.2642C107.61 65.2642 108.029 65.3786 108.364 65.6072C108.702 65.8326 108.965 66.1491 109.154 66.5568H109.234C109.429 66.1624 109.723 65.8492 110.114 65.6172C110.505 65.3819 110.974 65.2642 111.521 65.2642C112.204 65.2642 112.762 65.478 113.196 65.9055C113.63 66.3298 113.848 66.991 113.848 67.8892V73H112.674V67.8892C112.674 67.3258 112.52 66.9231 112.212 66.6811C111.904 66.4392 111.541 66.3182 111.123 66.3182C110.586 66.3182 110.17 66.4806 109.875 66.8054C109.58 67.1269 109.433 67.5346 109.433 68.0284V73H108.24V67.7699C108.24 67.3357 108.099 66.986 107.817 66.7209C107.535 66.4524 107.172 66.3182 106.728 66.3182C106.423 66.3182 106.138 66.3994 105.873 66.5618C105.611 66.7242 105.399 66.9496 105.237 67.2379C105.078 67.523 104.998 67.8527 104.998 68.2273V73H103.825ZM118.24 73.179C117.756 73.179 117.317 73.0878 116.922 72.9055C116.528 72.7199 116.215 72.4531 115.983 72.1051C115.751 71.7538 115.635 71.3295 115.635 70.8324C115.635 70.3949 115.721 70.0402 115.893 69.7685C116.066 69.4934 116.296 69.2779 116.584 69.1222C116.873 68.9664 117.191 68.8504 117.539 68.7741C117.89 68.6946 118.243 68.6316 118.598 68.5852C119.062 68.5256 119.438 68.4808 119.726 68.451C120.018 68.4179 120.23 68.3632 120.363 68.2869C120.499 68.2107 120.567 68.0781 120.567 67.8892V67.8494C120.567 67.3589 120.432 66.9777 120.164 66.706C119.899 66.4342 119.496 66.2983 118.956 66.2983C118.396 66.2983 117.957 66.4209 117.638 66.6662C117.32 66.9115 117.097 67.1733 116.967 67.4517L115.854 67.054C116.052 66.59 116.318 66.2287 116.649 65.9702C116.984 65.7083 117.348 65.526 117.743 65.4233C118.141 65.3172 118.532 65.2642 118.916 65.2642C119.161 65.2642 119.443 65.294 119.761 65.3537C120.083 65.41 120.393 65.5277 120.691 65.7067C120.993 65.8857 121.243 66.1558 121.442 66.517C121.641 66.8783 121.74 67.3622 121.74 67.9688V73H120.567V71.9659H120.507C120.427 72.1316 120.295 72.3089 120.109 72.4979C119.924 72.6868 119.677 72.8475 119.369 72.9801C119.06 73.1127 118.684 73.179 118.24 73.179ZM118.419 72.125C118.883 72.125 119.274 72.0339 119.592 71.8516C119.914 71.6693 120.156 71.4339 120.318 71.1456C120.484 70.8572 120.567 70.554 120.567 70.2358V69.1619C120.517 69.2216 120.408 69.2763 120.239 69.326C120.073 69.3724 119.881 69.4138 119.662 69.4503C119.446 69.4834 119.236 69.5133 119.03 69.5398C118.828 69.563 118.664 69.5829 118.538 69.5994C118.233 69.6392 117.948 69.7038 117.683 69.7933C117.421 69.8795 117.209 70.0104 117.047 70.1861C116.888 70.3584 116.808 70.5937 116.808 70.892C116.808 71.2997 116.959 71.608 117.261 71.8168C117.565 72.0223 117.952 72.125 118.419 72.125ZM123.881 73V65.3636H125.015V66.517H125.095C125.234 66.1392 125.486 65.8326 125.85 65.5973C126.215 65.362 126.626 65.2443 127.083 65.2443C127.169 65.2443 127.277 65.246 127.406 65.2493C127.536 65.2526 127.633 65.2576 127.7 65.2642V66.4574C127.66 66.4474 127.569 66.4325 127.426 66.4126C127.287 66.3894 127.14 66.3778 126.984 66.3778C126.613 66.3778 126.281 66.4557 125.989 66.6115C125.701 66.764 125.472 66.9761 125.303 67.2479C125.138 67.5163 125.055 67.8229 125.055 68.1676V73H123.881ZM130.079 75.8438C129.88 75.8438 129.702 75.8272 129.547 75.794C129.391 75.7642 129.283 75.7344 129.223 75.7045L129.522 74.6705C129.949 74.7798 130.306 74.7765 130.591 74.6605C130.876 74.5478 131.123 74.2064 131.331 73.6364L131.55 73.0398L128.726 65.3636H129.999L132.107 71.4489H132.187L134.294 65.3636L135.577 65.3835L132.326 74.1136C132.18 74.5014 131.999 74.8229 131.784 75.0781C131.568 75.3366 131.318 75.5289 131.033 75.6548C130.751 75.7808 130.433 75.8438 130.079 75.8438ZM142.24 62.8182V73H141.067V62.8182H142.24ZM146.636 73.179C146.153 73.179 145.713 73.0878 145.319 72.9055C144.925 72.7199 144.611 72.4531 144.379 72.1051C144.147 71.7538 144.031 71.3295 144.031 70.8324C144.031 70.3949 144.118 70.0402 144.29 69.7685C144.462 69.4934 144.693 69.2779 144.981 69.1222C145.269 68.9664 145.587 68.8504 145.935 68.7741C146.287 68.6946 146.64 68.6316 146.994 68.5852C147.458 68.5256 147.835 68.4808 148.123 68.451C148.415 68.4179 148.627 68.3632 148.759 68.2869C148.895 68.2107 148.963 68.0781 148.963 67.8892V67.8494C148.963 67.3589 148.829 66.9777 148.56 66.706C148.295 66.4342 147.893 66.2983 147.352 66.2983C146.792 66.2983 146.353 66.4209 146.035 66.6662C145.717 66.9115 145.493 67.1733 145.364 67.4517L144.25 67.054C144.449 66.59 144.714 66.2287 145.046 65.9702C145.38 65.7083 145.745 65.526 146.139 65.4233C146.537 65.3172 146.928 65.2642 147.313 65.2642C147.558 65.2642 147.84 65.294 148.158 65.3537C148.479 65.41 148.789 65.5277 149.087 65.7067C149.389 65.8857 149.639 66.1558 149.838 66.517C150.037 66.8783 150.136 67.3622 150.136 67.9688V73H148.963V71.9659H148.903C148.824 72.1316 148.691 72.3089 148.506 72.4979C148.32 72.6868 148.073 72.8475 147.765 72.9801C147.457 73.1127 147.081 73.179 146.636 73.179ZM146.815 72.125C147.279 72.125 147.671 72.0339 147.989 71.8516C148.31 71.6693 148.552 71.4339 148.715 71.1456C148.88 70.8572 148.963 70.554 148.963 70.2358V69.1619C148.913 69.2216 148.804 69.2763 148.635 69.326C148.469 69.3724 148.277 69.4138 148.058 69.4503C147.843 69.4834 147.632 69.5133 147.427 69.5398C147.225 69.563 147.061 69.5829 146.935 69.5994C146.63 69.6392 146.345 69.7038 146.08 69.7933C145.818 69.8795 145.606 70.0104 145.443 70.1861C145.284 70.3584 145.205 70.5937 145.205 70.892C145.205 71.2997 145.355 71.608 145.657 71.8168C145.962 72.0223 146.348 72.125 146.815 72.125ZM152.437 73V62.8182H153.61V66.5767H153.71C153.796 66.4441 153.915 66.2751 154.068 66.0696C154.224 65.8608 154.446 65.6752 154.734 65.5128C155.026 65.3471 155.42 65.2642 155.917 65.2642C156.56 65.2642 157.127 65.425 157.617 65.7464C158.108 66.0679 158.491 66.5237 158.766 67.1136C159.041 67.7036 159.179 68.3996 159.179 69.2017C159.179 70.0104 159.041 70.7114 158.766 71.3047C158.491 71.8946 158.11 72.352 157.622 72.6768C157.135 72.9983 156.573 73.1591 155.937 73.1591C155.447 73.1591 155.054 73.0779 154.759 72.9155C154.464 72.7498 154.237 72.5625 154.078 72.3537C153.919 72.1416 153.796 71.9659 153.71 71.8267H153.571V73H152.437ZM153.59 69.1818C153.59 69.7585 153.675 70.2673 153.844 70.7081C154.013 71.1456 154.26 71.4886 154.585 71.7372C154.91 71.9825 155.307 72.1051 155.778 72.1051C156.268 72.1051 156.678 71.9759 157.006 71.7173C157.337 71.4555 157.586 71.1042 157.752 70.6634C157.921 70.2192 158.005 69.7254 158.005 69.1818C158.005 68.6449 157.922 68.161 157.757 67.7301C157.594 67.2959 157.347 66.9529 157.016 66.701C156.688 66.4458 156.275 66.3182 155.778 66.3182C155.301 66.3182 154.9 66.4392 154.575 66.6811C154.25 66.9197 154.005 67.2545 153.839 67.6854C153.673 68.1129 153.59 68.6117 153.59 69.1818ZM164.175 73.1591C163.439 73.1591 162.804 72.9967 162.271 72.6719C161.741 72.3438 161.331 71.8864 161.043 71.2997C160.758 70.7098 160.615 70.0237 160.615 69.2415C160.615 68.4593 160.758 67.7699 161.043 67.1733C161.331 66.5734 161.732 66.1061 162.246 65.7713C162.763 65.4332 163.366 65.2642 164.056 65.2642C164.453 65.2642 164.846 65.3305 165.234 65.4631C165.622 65.5956 165.975 65.8111 166.293 66.1094C166.611 66.4044 166.865 66.7955 167.054 67.2827C167.242 67.7699 167.337 68.3698 167.337 69.0824V69.5795H161.451V68.5653H166.144C166.144 68.1345 166.058 67.75 165.885 67.4119C165.716 67.0739 165.474 66.8071 165.159 66.6115C164.848 66.416 164.48 66.3182 164.056 66.3182C163.588 66.3182 163.184 66.4342 162.843 66.6662C162.505 66.8949 162.244 67.1932 162.062 67.5611C161.88 67.929 161.789 68.3234 161.789 68.7443V69.4205C161.789 69.9972 161.888 70.486 162.087 70.8871C162.289 71.2848 162.569 71.5881 162.927 71.7969C163.285 72.0024 163.701 72.1051 164.175 72.1051C164.483 72.1051 164.762 72.062 165.01 71.9759C165.262 71.8864 165.479 71.7538 165.661 71.5781C165.844 71.3991 165.985 71.1771 166.084 70.9119L167.218 71.2301C167.098 71.6146 166.898 71.9527 166.616 72.2443C166.334 72.5327 165.986 72.758 165.572 72.9205C165.158 73.0795 164.692 73.1591 164.175 73.1591ZM170.295 62.8182V73H169.122V62.8182H170.295Z" fill="white" fill-opacity="0.95"/>
<path d="M86.566 109V98.8182H90.0063C90.8051 98.8182 91.458 98.9624 91.9651 99.2507C92.4755 99.5357 92.8534 99.9219 93.0986 100.409C93.3439 100.896 93.4665 101.44 93.4665 102.04C93.4665 102.64 93.3439 103.185 93.0986 103.675C92.8567 104.166 92.4822 104.557 91.9751 104.849C91.468 105.137 90.8183 105.281 90.0262 105.281H87.5603V104.188H89.9864C90.5333 104.188 90.9724 104.093 91.3039 103.904C91.6353 103.715 91.8756 103.46 92.0248 103.138C92.1772 102.814 92.2535 102.447 92.2535 102.04C92.2535 101.632 92.1772 101.268 92.0248 100.946C91.8756 100.625 91.6337 100.373 91.2989 100.19C90.9642 100.005 90.52 99.9119 89.9665 99.9119H87.7989V109H86.566ZM95.2936 109V101.364H96.4271V102.517H96.5067C96.6459 102.139 96.8978 101.833 97.2623 101.597C97.6269 101.362 98.0379 101.244 98.4953 101.244C98.5815 101.244 98.6892 101.246 98.8184 101.249C98.9477 101.253 99.0455 101.258 99.1118 101.264V102.457C99.072 102.447 98.9809 102.433 98.8383 102.413C98.6991 102.389 98.5516 102.378 98.3959 102.378C98.0247 102.378 97.6932 102.456 97.4015 102.612C97.1132 102.764 96.8845 102.976 96.7155 103.248C96.5497 103.516 96.4669 103.823 96.4669 104.168V109H95.2936ZM100.503 109V101.364H101.676V109H100.503ZM101.099 100.091C100.87 100.091 100.673 100.013 100.508 99.8572C100.345 99.7015 100.264 99.5142 100.264 99.2955C100.264 99.0767 100.345 98.8894 100.508 98.7337C100.673 98.5779 100.87 98.5 101.099 98.5C101.328 98.5 101.523 98.5779 101.686 98.7337C101.852 98.8894 101.934 99.0767 101.934 99.2955C101.934 99.5142 101.852 99.7015 101.686 99.8572C101.523 100.013 101.328 100.091 101.099 100.091ZM103.825 109V101.364H104.958V102.557H105.058C105.217 102.149 105.474 101.833 105.828 101.607C106.183 101.379 106.609 101.264 107.106 101.264C107.61 101.264 108.029 101.379 108.364 101.607C108.702 101.833 108.965 102.149 109.154 102.557H109.234C109.429 102.162 109.723 101.849 110.114 101.617C110.505 101.382 110.974 101.264 111.521 101.264C112.204 101.264 112.762 101.478 113.196 101.906C113.63 102.33 113.848 102.991 113.848 103.889V109H112.674V103.889C112.674 103.326 112.52 102.923 112.212 102.681C111.904 102.439 111.541 102.318 111.123 102.318C110.586 102.318 110.17 102.481 109.875 102.805C109.58 103.127 109.433 103.535 109.433 104.028V109H108.24V103.77C108.24 103.336 108.099 102.986 107.817 102.721C107.535 102.452 107.172 102.318 106.728 102.318C106.423 102.318 106.138 102.399 105.873 102.562C105.611 102.724 105.399 102.95 105.237 103.238C105.078 103.523 104.998 103.853 104.998 104.227V109H103.825ZM118.24 109.179C117.756 109.179 117.317 109.088 116.922 108.906C116.528 108.72 116.215 108.453 115.983 108.105C115.751 107.754 115.635 107.33 115.635 106.832C115.635 106.395 115.721 106.04 115.893 105.768C116.066 105.493 116.296 105.278 116.584 105.122C116.873 104.966 117.191 104.85 117.539 104.774C117.89 104.695 118.243 104.632 118.598 104.585C119.062 104.526 119.438 104.481 119.726 104.451C120.018 104.418 120.23 104.363 120.363 104.287C120.499 104.211 120.567 104.078 120.567 103.889V103.849C120.567 103.359 120.432 102.978 120.164 102.706C119.899 102.434 119.496 102.298 118.956 102.298C118.396 102.298 117.957 102.421 117.638 102.666C117.32 102.911 117.097 103.173 116.967 103.452L115.854 103.054C116.052 102.59 116.318 102.229 116.649 101.97C116.984 101.708 117.348 101.526 117.743 101.423C118.141 101.317 118.532 101.264 118.916 101.264C119.161 101.264 119.443 101.294 119.761 101.354C120.083 101.41 120.393 101.528 120.691 101.707C120.993 101.886 121.243 102.156 121.442 102.517C121.641 102.878 121.74 103.362 121.74 103.969V109H120.567V107.966H120.507C120.427 108.132 120.295 108.309 120.109 108.498C119.924 108.687 119.677 108.848 119.369 108.98C119.06 109.113 118.684 109.179 118.24 109.179ZM118.419 108.125C118.883 108.125 119.274 108.034 119.592 107.852C119.914 107.669 120.156 107.434 120.318 107.146C120.484 106.857 120.567 106.554 120.567 106.236V105.162C120.517 105.222 120.408 105.276 120.239 105.326C120.073 105.372 119.881 105.414 119.662 105.45C119.446 105.483 119.236 105.513 119.03 105.54C118.828 105.563 118.664 105.583 118.538 105.599C118.233 105.639 117.948 105.704 117.683 105.793C117.421 105.879 117.209 106.01 117.047 106.186C116.888 106.358 116.808 106.594 116.808 106.892C116.808 107.3 116.959 107.608 117.261 107.817C117.565 108.022 117.952 108.125 118.419 108.125ZM123.881 109V101.364H125.015V102.517H125.095C125.234 102.139 125.486 101.833 125.85 101.597C126.215 101.362 126.626 101.244 127.083 101.244C127.169 101.244 127.277 101.246 127.406 101.249C127.536 101.253 127.633 101.258 127.7 101.264V102.457C127.66 102.447 127.569 102.433 127.426 102.413C127.287 102.389 127.14 102.378 126.984 102.378C126.613 102.378 126.281 102.456 125.989 102.612C125.701 102.764 125.472 102.976 125.303 103.248C125.138 103.516 125.055 103.823 125.055 104.168V109H123.881ZM130.079 111.844C129.88 111.844 129.702 111.827 129.547 111.794C129.391 111.764 129.283 111.734 129.223 111.705L129.522 110.67C129.949 110.78 130.306 110.777 130.591 110.661C130.876 110.548 131.123 110.206 131.331 109.636L131.55 109.04L128.726 101.364H129.999L132.107 107.449H132.187L134.294 101.364L135.577 101.384L132.326 110.114C132.18 110.501 131.999 110.823 131.784 111.078C131.568 111.337 131.318 111.529 131.033 111.655C130.751 111.781 130.433 111.844 130.079 111.844ZM142.24 98.8182V109H141.067V98.8182H142.24ZM146.636 109.179C146.153 109.179 145.713 109.088 145.319 108.906C144.925 108.72 144.611 108.453 144.379 108.105C144.147 107.754 144.031 107.33 144.031 106.832C144.031 106.395 144.118 106.04 144.29 105.768C144.462 105.493 144.693 105.278 144.981 105.122C145.269 104.966 145.587 104.85 145.935 104.774C146.287 104.695 146.64 104.632 146.994 104.585C147.458 104.526 147.835 104.481 148.123 104.451C148.415 104.418 148.627 104.363 148.759 104.287C148.895 104.211 148.963 104.078 148.963 103.889V103.849C148.963 103.359 148.829 102.978 148.56 102.706C148.295 102.434 147.893 102.298 147.352 102.298C146.792 102.298 146.353 102.421 146.035 102.666C145.717 102.911 145.493 103.173 145.364 103.452L144.25 103.054C144.449 102.59 144.714 102.229 145.046 101.97C145.38 101.708 145.745 101.526 146.139 101.423C146.537 101.317 146.928 101.264 147.313 101.264C147.558 101.264 147.84 101.294 148.158 101.354C148.479 101.41 148.789 101.528 149.087 101.707C149.389 101.886 149.639 102.156 149.838 102.517C150.037 102.878 150.136 103.362 150.136 103.969V109H148.963V107.966H148.903C148.824 108.132 148.691 108.309 148.506 108.498C148.32 108.687 148.073 108.848 147.765 108.98C147.457 109.113 147.081 109.179 146.636 109.179ZM146.815 108.125C147.279 108.125 147.671 108.034 147.989 107.852C148.31 107.669 148.552 107.434 148.715 107.146C148.88 106.857 148.963 106.554 148.963 106.236V105.162C148.913 105.222 148.804 105.276 148.635 105.326C148.469 105.372 148.277 105.414 148.058 105.45C147.843 105.483 147.632 105.513 147.427 105.54C147.225 105.563 147.061 105.583 146.935 105.599C146.63 105.639 146.345 105.704 146.08 105.793C145.818 105.879 145.606 106.01 145.443 106.186C145.284 106.358 145.205 106.594 145.205 106.892C145.205 107.3 145.355 107.608 145.657 107.817C145.962 108.022 146.348 108.125 146.815 108.125ZM152.437 109V98.8182H153.61V102.577H153.71C153.796 102.444 153.915 102.275 154.068 102.07C154.224 101.861 154.446 101.675 154.734 101.513C155.026 101.347 155.42 101.264 155.917 101.264C156.56 101.264 157.127 101.425 157.617 101.746C158.108 102.068 158.491 102.524 158.766 103.114C159.041 103.704 159.179 104.4 159.179 105.202C159.179 106.01 159.041 106.711 158.766 107.305C158.491 107.895 158.11 108.352 157.622 108.677C157.135 108.998 156.573 109.159 155.937 109.159C155.447 109.159 155.054 109.078 154.759 108.915C154.464 108.75 154.237 108.562 154.078 108.354C153.919 108.142 153.796 107.966 153.71 107.827H153.571V109H152.437ZM153.59 105.182C153.59 105.759 153.675 106.267 153.844 106.708C154.013 107.146 154.26 107.489 154.585 107.737C154.91 107.982 155.307 108.105 155.778 108.105C156.268 108.105 156.678 107.976 157.006 107.717C157.337 107.455 157.586 107.104 157.752 106.663C157.921 106.219 158.005 105.725 158.005 105.182C158.005 104.645 157.922 104.161 157.757 103.73C157.594 103.296 157.347 102.953 157.016 102.701C156.688 102.446 156.275 102.318 155.778 102.318C155.301 102.318 154.9 102.439 154.575 102.681C154.25 102.92 154.005 103.254 153.839 103.685C153.673 104.113 153.59 104.612 153.59 105.182ZM164.175 109.159C163.439 109.159 162.804 108.997 162.271 108.672C161.741 108.344 161.331 107.886 161.043 107.3C160.758 106.71 160.615 106.024 160.615 105.241C160.615 104.459 160.758 103.77 161.043 103.173C161.331 102.573 161.732 102.106 162.246 101.771C162.763 101.433 163.366 101.264 164.056 101.264C164.453 101.264 164.846 101.33 165.234 101.463C165.622 101.596 165.975 101.811 166.293 102.109C166.611 102.404 166.865 102.795 167.054 103.283C167.242 103.77 167.337 104.37 167.337 105.082V105.58H161.451V104.565H166.144C166.144 104.134 166.058 103.75 165.885 103.412C165.716 103.074 165.474 102.807 165.159 102.612C164.848 102.416 164.48 102.318 164.056 102.318C163.588 102.318 163.184 102.434 162.843 102.666C162.505 102.895 162.244 103.193 162.062 103.561C161.88 103.929 161.789 104.323 161.789 104.744V105.42C161.789 105.997 161.888 106.486 162.087 106.887C162.289 107.285 162.569 107.588 162.927 107.797C163.285 108.002 163.701 108.105 164.175 108.105C164.483 108.105 164.762 108.062 165.01 107.976C165.262 107.886 165.479 107.754 165.661 107.578C165.844 107.399 165.985 107.177 166.084 106.912L167.218 107.23C167.098 107.615 166.898 107.953 166.616 108.244C166.334 108.533 165.986 108.758 165.572 108.92C165.158 109.08 164.692 109.159 164.175 109.159ZM170.295 98.8182V109H169.122V98.8182H170.295Z" fill="white" fill-opacity="0.95"/>
<path d="M86.566 145V134.818H90.0063C90.8051 134.818 91.458 134.962 91.9651 135.251C92.4755 135.536 92.8534 135.922 93.0986 136.409C93.3439 136.896 93.4665 137.44 93.4665 138.04C93.4665 138.64 93.3439 139.185 93.0986 139.675C92.8567 140.166 92.4822 140.557 91.9751 140.849C91.468 141.137 90.8183 141.281 90.0262 141.281H87.5603V140.188H89.9864C90.5333 140.188 90.9724 140.093 91.3039 139.904C91.6353 139.715 91.8756 139.46 92.0248 139.138C92.1772 138.814 92.2535 138.447 92.2535 138.04C92.2535 137.632 92.1772 137.268 92.0248 136.946C91.8756 136.625 91.6337 136.373 91.2989 136.19C90.9642 136.005 90.52 135.912 89.9665 135.912H87.7989V145H86.566ZM95.2936 145V137.364H96.4271V138.517H96.5067C96.6459 138.139 96.8978 137.833 97.2623 137.597C97.6269 137.362 98.0379 137.244 98.4953 137.244C98.5815 137.244 98.6892 137.246 98.8184 137.249C98.9477 137.253 99.0455 137.258 99.1118 137.264V138.457C99.072 138.447 98.9809 138.433 98.8383 138.413C98.6991 138.389 98.5516 138.378 98.3959 138.378C98.0247 138.378 97.6932 138.456 97.4015 138.612C97.1132 138.764 96.8845 138.976 96.7155 139.248C96.5497 139.516 96.4669 139.823 96.4669 140.168V145H95.2936ZM100.503 145V137.364H101.676V145H100.503ZM101.099 136.091C100.87 136.091 100.673 136.013 100.508 135.857C100.345 135.701 100.264 135.514 100.264 135.295C100.264 135.077 100.345 134.889 100.508 134.734C100.673 134.578 100.87 134.5 101.099 134.5C101.328 134.5 101.523 134.578 101.686 134.734C101.852 134.889 101.934 135.077 101.934 135.295C101.934 135.514 101.852 135.701 101.686 135.857C101.523 136.013 101.328 136.091 101.099 136.091ZM103.825 145V137.364H104.958V138.557H105.058C105.217 138.149 105.474 137.833 105.828 137.607C106.183 137.379 106.609 137.264 107.106 137.264C107.61 137.264 108.029 137.379 108.364 137.607C108.702 137.833 108.965 138.149 109.154 138.557H109.234C109.429 138.162 109.723 137.849 110.114 137.617C110.505 137.382 110.974 137.264 111.521 137.264C112.204 137.264 112.762 137.478 113.196 137.906C113.63 138.33 113.848 138.991 113.848 139.889V145H112.674V139.889C112.674 139.326 112.52 138.923 112.212 138.681C111.904 138.439 111.541 138.318 111.123 138.318C110.586 138.318 110.17 138.481 109.875 138.805C109.58 139.127 109.433 139.535 109.433 140.028V145H108.24V139.77C108.24 139.336 108.099 138.986 107.817 138.721C107.535 138.452 107.172 138.318 106.728 138.318C106.423 138.318 106.138 138.399 105.873 138.562C105.611 138.724 105.399 138.95 105.237 139.238C105.078 139.523 104.998 139.853 104.998 140.227V145H103.825ZM118.24 145.179C117.756 145.179 117.317 145.088 116.922 144.906C116.528 144.72 116.215 144.453 115.983 144.105C115.751 143.754 115.635 143.33 115.635 142.832C115.635 142.395 115.721 142.04 115.893 141.768C116.066 141.493 116.296 141.278 116.584 141.122C116.873 140.966 117.191 140.85 117.539 140.774C117.89 140.695 118.243 140.632 118.598 140.585C119.062 140.526 119.438 140.481 119.726 140.451C120.018 140.418 120.23 140.363 120.363 140.287C120.499 140.211 120.567 140.078 120.567 139.889V139.849C120.567 139.359 120.432 138.978 120.164 138.706C119.899 138.434 119.496 138.298 118.956 138.298C118.396 138.298 117.957 138.421 117.638 138.666C117.32 138.911 117.097 139.173 116.967 139.452L115.854 139.054C116.052 138.59 116.318 138.229 116.649 137.97C116.984 137.708 117.348 137.526 117.743 137.423C118.141 137.317 118.532 137.264 118.916 137.264C119.161 137.264 119.443 137.294 119.761 137.354C120.083 137.41 120.393 137.528 120.691 137.707C120.993 137.886 121.243 138.156 121.442 138.517C121.641 138.878 121.74 139.362 121.74 139.969V145H120.567V143.966H120.507C120.427 144.132 120.295 144.309 120.109 144.498C119.924 144.687 119.677 144.848 119.369 144.98C119.06 145.113 118.684 145.179 118.24 145.179ZM118.419 144.125C118.883 144.125 119.274 144.034 119.592 143.852C119.914 143.669 120.156 143.434 120.318 143.146C120.484 142.857 120.567 142.554 120.567 142.236V141.162C120.517 141.222 120.408 141.276 120.239 141.326C120.073 141.372 119.881 141.414 119.662 141.45C119.446 141.483 119.236 141.513 119.03 141.54C118.828 141.563 118.664 141.583 118.538 141.599C118.233 141.639 117.948 141.704 117.683 141.793C117.421 141.879 117.209 142.01 117.047 142.186C116.888 142.358 116.808 142.594 116.808 142.892C116.808 143.3 116.959 143.608 117.261 143.817C117.565 144.022 117.952 144.125 118.419 144.125ZM123.881 145V137.364H125.015V138.517H125.095C125.234 138.139 125.486 137.833 125.85 137.597C126.215 137.362 126.626 137.244 127.083 137.244C127.169 137.244 127.277 137.246 127.406 137.249C127.536 137.253 127.633 137.258 127.7 137.264V138.457C127.66 138.447 127.569 138.433 127.426 138.413C127.287 138.389 127.14 138.378 126.984 138.378C126.613 138.378 126.281 138.456 125.989 138.612C125.701 138.764 125.472 138.976 125.303 139.248C125.138 139.516 125.055 139.823 125.055 140.168V145H123.881ZM130.079 147.844C129.88 147.844 129.702 147.827 129.547 147.794C129.391 147.764 129.283 147.734 129.223 147.705L129.522 146.67C129.949 146.78 130.306 146.777 130.591 146.661C130.876 146.548 131.123 146.206 131.331 145.636L131.55 145.04L128.726 137.364H129.999L132.107 143.449H132.187L134.294 137.364L135.577 137.384L132.326 146.114C132.18 146.501 131.999 146.823 131.784 147.078C131.568 147.337 131.318 147.529 131.033 147.655C130.751 147.781 130.433 147.844 130.079 147.844ZM142.24 134.818V145H141.067V134.818H142.24ZM146.636 145.179C146.153 145.179 145.713 145.088 145.319 144.906C144.925 144.72 144.611 144.453 144.379 144.105C144.147 143.754 144.031 143.33 144.031 142.832C144.031 142.395 144.118 142.04 144.29 141.768C144.462 141.493 144.693 141.278 144.981 141.122C145.269 140.966 145.587 140.85 145.935 140.774C146.287 140.695 146.64 140.632 146.994 140.585C147.458 140.526 147.835 140.481 148.123 140.451C148.415 140.418 148.627 140.363 148.759 140.287C148.895 140.211 148.963 140.078 148.963 139.889V139.849C148.963 139.359 148.829 138.978 148.56 138.706C148.295 138.434 147.893 138.298 147.352 138.298C146.792 138.298 146.353 138.421 146.035 138.666C145.717 138.911 145.493 139.173 145.364 139.452L144.25 139.054C144.449 138.59 144.714 138.229 145.046 137.97C145.38 137.708 145.745 137.526 146.139 137.423C146.537 137.317 146.928 137.264 147.313 137.264C147.558 137.264 147.84 137.294 148.158 137.354C148.479 137.41 148.789 137.528 149.087 137.707C149.389 137.886 149.639 138.156 149.838 138.517C150.037 138.878 150.136 139.362 150.136 139.969V145H148.963V143.966H148.903C148.824 144.132 148.691 144.309 148.506 144.498C148.32 144.687 148.073 144.848 147.765 144.98C147.457 145.113 147.081 145.179 146.636 145.179ZM146.815 144.125C147.279 144.125 147.671 144.034 147.989 143.852C148.31 143.669 148.552 143.434 148.715 143.146C148.88 142.857 148.963 142.554 148.963 142.236V141.162C148.913 141.222 148.804 141.276 148.635 141.326C148.469 141.372 148.277 141.414 148.058 141.45C147.843 141.483 147.632 141.513 147.427 141.54C147.225 141.563 147.061 141.583 146.935 141.599C146.63 141.639 146.345 141.704 146.08 141.793C145.818 141.879 145.606 142.01 145.443 142.186C145.284 142.358 145.205 142.594 145.205 142.892C145.205 143.3 145.355 143.608 145.657 143.817C145.962 144.022 146.348 144.125 146.815 144.125ZM152.437 145V134.818H153.61V138.577H153.71C153.796 138.444 153.915 138.275 154.068 138.07C154.224 137.861 154.446 137.675 154.734 137.513C155.026 137.347 155.42 137.264 155.917 137.264C156.56 137.264 157.127 137.425 157.617 137.746C158.108 138.068 158.491 138.524 158.766 139.114C159.041 139.704 159.179 140.4 159.179 141.202C159.179 142.01 159.041 142.711 158.766 143.305C158.491 143.895 158.11 144.352 157.622 144.677C157.135 144.998 156.573 145.159 155.937 145.159C155.447 145.159 155.054 145.078 154.759 144.915C154.464 144.75 154.237 144.562 154.078 144.354C153.919 144.142 153.796 143.966 153.71 143.827H153.571V145H152.437ZM153.59 141.182C153.59 141.759 153.675 142.267 153.844 142.708C154.013 143.146 154.26 143.489 154.585 143.737C154.91 143.982 155.307 144.105 155.778 144.105C156.268 144.105 156.678 143.976 157.006 143.717C157.337 143.455 157.586 143.104 157.752 142.663C157.921 142.219 158.005 141.725 158.005 141.182C158.005 140.645 157.922 140.161 157.757 139.73C157.594 139.296 157.347 138.953 157.016 138.701C156.688 138.446 156.275 138.318 155.778 138.318C155.301 138.318 154.9 138.439 154.575 138.681C154.25 138.92 154.005 139.254 153.839 139.685C153.673 140.113 153.59 140.612 153.59 141.182ZM164.175 145.159C163.439 145.159 162.804 144.997 162.271 144.672C161.741 144.344 161.331 143.886 161.043 143.3C160.758 142.71 160.615 142.024 160.615 141.241C160.615 140.459 160.758 139.77 161.043 139.173C161.331 138.573 161.732 138.106 162.246 137.771C162.763 137.433 163.366 137.264 164.056 137.264C164.453 137.264 164.846 137.33 165.234 137.463C165.622 137.596 165.975 137.811 166.293 138.109C166.611 138.404 166.865 138.795 167.054 139.283C167.242 139.77 167.337 140.37 167.337 141.082V141.58H161.451V140.565H166.144C166.144 140.134 166.058 139.75 165.885 139.412C165.716 139.074 165.474 138.807 165.159 138.612C164.848 138.416 164.48 138.318 164.056 138.318C163.588 138.318 163.184 138.434 162.843 138.666C162.505 138.895 162.244 139.193 162.062 139.561C161.88 139.929 161.789 140.323 161.789 140.744V141.42C161.789 141.997 161.888 142.486 162.087 142.887C162.289 143.285 162.569 143.588 162.927 143.797C163.285 144.002 163.701 144.105 164.175 144.105C164.483 144.105 164.762 144.062 165.01 143.976C165.262 143.886 165.479 143.754 165.661 143.578C165.844 143.399 165.985 143.177 166.084 142.912L167.218 143.23C167.098 143.615 166.898 143.953 166.616 144.244C166.334 144.533 165.986 144.758 165.572 144.92C165.158 145.08 164.692 145.159 164.175 145.159ZM170.295 134.818V145H169.122V134.818H170.295Z" fill="white" fill-opacity="0.95"/>
<defs>
<filter id="filter0_d_1311_36223" x="17.333" y="14" width="372" height="228" filterUnits="userSpaceOnUse" color-interpolation-filters="sRGB">
<feFlood flood-opacity="0" result="BackgroundImageFix"/>
<feColorMatrix in="SourceAlpha" type="matrix" values="0 0 0 0 0 0 0 0 0 0 0 0 0 0 0 0 0 0 127 0" result="hardAlpha"/>
<feOffset dy="24"/>
<feGaussianBlur stdDeviation="24"/>
<feComposite in2="hardAlpha" operator="out"/>
<feColorMatrix type="matrix" values="0 0 0 0 0 0 0 0 0 0 0 0 0 0 0 0 0 0 0.2 0"/>
<feBlend mode="normal" in2="BackgroundImageFix" result="effect1_dropShadow_1311_36223"/>
<feBlend mode="normal" in="SourceGraphic" in2="effect1_dropShadow_1311_36223" result="shape"/>
</filter>
</defs>
</svg>
