<svg width="220" height="256" viewBox="0 0 220 256" fill="none" xmlns="http://www.w3.org/2000/svg">
<mask id="path-1-inside-1_1437_19655" fill="white">
<path d="M0 0H220V256H0V0Z"/>
</mask>
<path d="M0 0H220V256H0V0Z" fill="#1A1A1A"/>
<path d="M219 0V256H221V0H219Z" fill="#707070" mask="url(#path-1-inside-1_1437_19655)"/>
<path d="M33.5227 134L30.3409 122.364H31.7727L34.2045 131.841H34.3182L36.7955 122.364H38.3864L40.8636 131.841H40.9773L43.4091 122.364H44.8409L41.6591 134H40.2045L37.6364 124.727H37.5455L34.9773 134H33.5227ZM46.392 134V132.977L50.233 128.773C50.6837 128.28 51.0549 127.852 51.3466 127.489C51.6383 127.121 51.8542 126.777 51.9943 126.455C52.1383 126.129 52.2102 125.788 52.2102 125.432C52.2102 125.023 52.1117 124.669 51.9148 124.369C51.7216 124.07 51.4564 123.839 51.1193 123.676C50.7822 123.513 50.4034 123.432 49.983 123.432C49.536 123.432 49.1458 123.525 48.8125 123.71C48.483 123.892 48.2273 124.148 48.0455 124.477C47.8674 124.807 47.7784 125.193 47.7784 125.636H46.4375C46.4375 124.955 46.5947 124.356 46.9091 123.841C47.2235 123.326 47.6515 122.924 48.1932 122.636C48.7386 122.348 49.3504 122.205 50.0284 122.205C50.7102 122.205 51.3144 122.348 51.8409 122.636C52.3674 122.924 52.7803 123.312 53.0795 123.801C53.3788 124.29 53.5284 124.833 53.5284 125.432C53.5284 125.86 53.4508 126.278 53.2955 126.688C53.1439 127.093 52.8788 127.545 52.5 128.045C52.125 128.542 51.6042 129.148 50.9375 129.864L48.3239 132.659V132.75H53.733V134H46.392ZM59.875 134.159C59.0189 134.159 58.2898 133.926 57.6875 133.46C57.0852 132.991 56.625 132.311 56.3068 131.42C55.9886 130.527 55.8295 129.447 55.8295 128.182C55.8295 126.924 55.9886 125.85 56.3068 124.96C56.6288 124.066 57.0909 123.384 57.6932 122.915C58.2992 122.441 59.0265 122.205 59.875 122.205C60.7235 122.205 61.4489 122.441 62.0511 122.915C62.6572 123.384 63.1193 124.066 63.4375 124.96C63.7595 125.85 63.9205 126.924 63.9205 128.182C63.9205 129.447 63.7614 130.527 63.4432 131.42C63.125 132.311 62.6648 132.991 62.0625 133.46C61.4602 133.926 60.7311 134.159 59.875 134.159ZM59.875 132.909C60.7235 132.909 61.3826 132.5 61.8523 131.682C62.322 130.864 62.5568 129.697 62.5568 128.182C62.5568 127.174 62.4489 126.316 62.233 125.608C62.0208 124.9 61.714 124.36 61.3125 123.989C60.9148 123.617 60.4356 123.432 59.875 123.432C59.0341 123.432 58.3769 123.847 57.9034 124.676C57.4299 125.502 57.1932 126.67 57.1932 128.182C57.1932 129.189 57.2992 130.045 57.5114 130.75C57.7235 131.455 58.0284 131.991 58.4261 132.358C58.8277 132.725 59.3106 132.909 59.875 132.909ZM66.1023 137.273V125.273H67.3977V126.659H67.5568C67.6553 126.508 67.7917 126.314 67.9659 126.08C68.1439 125.841 68.3977 125.629 68.7273 125.443C69.0606 125.254 69.5114 125.159 70.0795 125.159C70.8144 125.159 71.4621 125.343 72.0227 125.71C72.5833 126.078 73.0208 126.598 73.3352 127.273C73.6496 127.947 73.8068 128.742 73.8068 129.659C73.8068 130.583 73.6496 131.384 73.3352 132.062C73.0208 132.737 72.5852 133.259 72.0284 133.631C71.4716 133.998 70.8295 134.182 70.1023 134.182C69.5417 134.182 69.0928 134.089 68.7557 133.903C68.4186 133.714 68.1591 133.5 67.9773 133.261C67.7955 133.019 67.6553 132.818 67.5568 132.659H67.4432V137.273H66.1023ZM67.4205 129.636C67.4205 130.295 67.517 130.877 67.7102 131.381C67.9034 131.881 68.1856 132.273 68.5568 132.557C68.928 132.837 69.3826 132.977 69.9205 132.977C70.4811 132.977 70.9489 132.83 71.3239 132.534C71.7027 132.235 71.9867 131.833 72.1761 131.33C72.3693 130.822 72.4659 130.258 72.4659 129.636C72.4659 129.023 72.3712 128.47 72.1818 127.977C71.9962 127.481 71.714 127.089 71.3352 126.801C70.9602 126.509 70.4886 126.364 69.9205 126.364C69.375 126.364 68.9167 126.502 68.5455 126.778C68.1742 127.051 67.8939 127.434 67.7045 127.926C67.5152 128.415 67.4205 128.985 67.4205 129.636ZM76.4929 125.273L78.5838 128.841L80.6747 125.273H82.2202L79.402 129.636L82.2202 134H80.6747L78.5838 130.614L76.4929 134H74.9474L77.7202 129.636L74.9474 125.273H76.4929ZM89.6335 125.273L91.7244 128.841L93.8153 125.273H95.3608L92.5426 129.636L95.3608 134H93.8153L91.7244 130.614L89.6335 134H88.0881L90.8608 129.636L88.0881 125.273H89.6335ZM101.956 134V122.364H103.365V127.545H109.57V122.364H110.979V134H109.57V128.795H103.365V134H101.956ZM113.595 134V132.977L117.436 128.773C117.887 128.28 118.258 127.852 118.55 127.489C118.841 127.121 119.057 126.777 119.197 126.455C119.341 126.129 119.413 125.788 119.413 125.432C119.413 125.023 119.315 124.669 119.118 124.369C118.925 124.07 118.66 123.839 118.322 123.676C117.985 123.513 117.607 123.432 117.186 123.432C116.739 123.432 116.349 123.525 116.016 123.71C115.686 123.892 115.43 124.148 115.249 124.477C115.071 124.807 114.982 125.193 114.982 125.636H113.641C113.641 124.955 113.798 124.356 114.112 123.841C114.427 123.326 114.855 122.924 115.396 122.636C115.942 122.348 116.554 122.205 117.232 122.205C117.913 122.205 118.518 122.348 119.044 122.636C119.571 122.924 119.983 123.312 120.283 123.801C120.582 124.29 120.732 124.833 120.732 125.432C120.732 125.86 120.654 126.278 120.499 126.688C120.347 127.093 120.082 127.545 119.703 128.045C119.328 128.542 118.807 129.148 118.141 129.864L115.527 132.659V132.75H120.936V134H113.595ZM127.078 134.159C126.222 134.159 125.493 133.926 124.891 133.46C124.288 132.991 123.828 132.311 123.51 131.42C123.192 130.527 123.033 129.447 123.033 128.182C123.033 126.924 123.192 125.85 123.51 124.96C123.832 124.066 124.294 123.384 124.896 122.915C125.502 122.441 126.23 122.205 127.078 122.205C127.927 122.205 128.652 122.441 129.254 122.915C129.86 123.384 130.322 124.066 130.641 124.96C130.963 125.85 131.124 126.924 131.124 128.182C131.124 129.447 130.964 130.527 130.646 131.42C130.328 132.311 129.868 132.991 129.266 133.46C128.663 133.926 127.934 134.159 127.078 134.159ZM127.078 132.909C127.927 132.909 128.586 132.5 129.055 131.682C129.525 130.864 129.76 129.697 129.76 128.182C129.76 127.174 129.652 126.316 129.436 125.608C129.224 124.9 128.917 124.36 128.516 123.989C128.118 123.617 127.639 123.432 127.078 123.432C126.237 123.432 125.58 123.847 125.107 124.676C124.633 125.502 124.396 126.67 124.396 128.182C124.396 129.189 124.502 130.045 124.714 130.75C124.927 131.455 125.232 131.991 125.629 132.358C126.031 132.725 126.514 132.909 127.078 132.909ZM133.305 137.273V125.273H134.601V126.659H134.76C134.858 126.508 134.995 126.314 135.169 126.08C135.347 125.841 135.601 125.629 135.93 125.443C136.264 125.254 136.714 125.159 137.283 125.159C138.018 125.159 138.665 125.343 139.226 125.71C139.786 126.078 140.224 126.598 140.538 127.273C140.853 127.947 141.01 128.742 141.01 129.659C141.01 130.583 140.853 131.384 140.538 132.062C140.224 132.737 139.788 133.259 139.232 133.631C138.675 133.998 138.033 134.182 137.305 134.182C136.745 134.182 136.296 134.089 135.959 133.903C135.622 133.714 135.362 133.5 135.18 133.261C134.999 133.019 134.858 132.818 134.76 132.659H134.646V137.273H133.305ZM134.624 129.636C134.624 130.295 134.72 130.877 134.913 131.381C135.107 131.881 135.389 132.273 135.76 132.557C136.131 132.837 136.586 132.977 137.124 132.977C137.684 132.977 138.152 132.83 138.527 132.534C138.906 132.235 139.19 131.833 139.379 131.33C139.572 130.822 139.669 130.258 139.669 129.636C139.669 129.023 139.574 128.47 139.385 127.977C139.199 127.481 138.917 127.089 138.538 126.801C138.163 126.509 137.692 126.364 137.124 126.364C136.578 126.364 136.12 126.502 135.749 126.778C135.377 127.051 135.097 127.434 134.908 127.926C134.718 128.415 134.624 128.985 134.624 129.636ZM143.696 125.273L145.787 128.841L147.878 125.273H149.423L146.605 129.636L149.423 134H147.878L145.787 130.614L143.696 134H142.151L144.923 129.636L142.151 125.273H143.696Z" fill="white" fill-opacity="0.95"/>
</svg>
