<svg width="320" height="256" viewBox="0 0 320 256" fill="none" xmlns="http://www.w3.org/2000/svg">
<mask id="path-1-inside-1_1437_19650" fill="white">
<path d="M0 0H320V256H0V0Z"/>
</mask>
<path d="M0 0H320V256H0V0Z" fill="#1A1A1A"/>
<path d="M319 0V256H321V0H319Z" fill="white" fill-opacity="0.2" mask="url(#path-1-inside-1_1437_19650)"/>
<path d="M40.7071 128L44.8536 123.853C44.9 123.807 44.9368 123.752 44.9619 123.691C44.987 123.63 45 123.565 45 123.5C45 123.434 44.987 123.369 44.9619 123.308C44.9368 123.248 44.9 123.193 44.8535 123.146C44.8071 123.1 44.752 123.063 44.6913 123.038C44.6307 123.013 44.5657 123 44.5 123C44.4344 123 44.3694 123.013 44.3087 123.038C44.248 123.063 44.1929 123.1 44.1465 123.146L40 127.293L35.8535 123.146C35.8072 123.099 35.752 123.062 35.6913 123.037C35.6305 123.011 35.5653 122.998 35.4994 122.998C35.4335 122.998 35.3682 123.011 35.3073 123.036C35.2464 123.061 35.1911 123.098 35.1445 123.144C35.0979 123.191 35.061 123.246 35.0358 123.307C35.0107 123.368 34.9979 123.433 34.998 123.499C34.9982 123.565 35.0115 123.63 35.0369 123.691C35.0624 123.752 35.0996 123.807 35.1465 123.853L39.293 128L35.1465 132.146C35.1001 132.193 35.0633 132.248 35.0381 132.309C35.013 132.369 35.0001 132.434 35.0001 132.5C35.0001 132.566 35.013 132.631 35.0381 132.691C35.0633 132.752 35.1001 132.807 35.1465 132.853C35.1929 132.9 35.248 132.937 35.3087 132.962C35.3694 132.987 35.4344 133 35.5 133C35.5657 133 35.6307 132.987 35.6913 132.962C35.752 132.937 35.8071 132.9 35.8535 132.853L40 128.707L44.1465 132.853C44.2403 132.947 44.3675 133 44.5001 133C44.6326 133 44.7598 132.947 44.8536 132.853C44.9473 132.76 45 132.632 45 132.5C45 132.367 44.9473 132.24 44.8536 132.146L40.7071 128Z" fill="white" fill-opacity="0.95"/>
</svg>
