<svg width="220" height="112" viewBox="0 0 220 112" fill="none" xmlns="http://www.w3.org/2000/svg">
<mask id="path-1-inside-1_1437_19623" fill="white">
<path d="M0 0H220V112H0V0Z"/>
</mask>
<path d="M0 0H220V112H0V0Z" fill="#1A1A1A"/>
<path d="M220 112V113H221V112H220ZM219 0V112H221V0H219ZM220 111H0V113H220V111Z" fill="#707070" mask="url(#path-1-inside-1_1437_19623)"/>
<path d="M33.5227 62L30.3409 50.3636H31.7727L34.2045 59.8409H34.3182L36.7955 50.3636H38.3864L40.8636 59.8409H40.9773L43.4091 50.3636H44.8409L41.6591 62H40.2045L37.6364 52.7273H37.5455L34.9773 62H33.5227ZM50.483 50.3636V62H49.0739V51.8409H49.0057L46.1648 53.7273V52.2955L49.0739 50.3636H50.483ZM57.6932 62.1591C57.2159 62.1515 56.7386 62.0606 56.2614 61.8864C55.7841 61.7121 55.3485 61.4186 54.9545 61.0057C54.5606 60.589 54.2443 60.0265 54.0057 59.3182C53.767 58.6061 53.6477 57.7121 53.6477 56.6364C53.6477 55.6023 53.7443 54.6856 53.9375 53.8864C54.1307 53.0833 54.411 52.4072 54.7784 51.858C55.1458 51.3087 55.589 50.892 56.108 50.608C56.6307 50.3239 57.2197 50.1818 57.875 50.1818C58.5265 50.1818 59.1061 50.3125 59.6136 50.5739C60.125 50.8352 60.5417 51.1989 60.8636 51.6648C61.1856 52.1269 61.3939 52.6629 61.4886 53.2727H60.1023C59.9735 52.7386 59.7235 52.2992 59.3523 51.9545C58.9811 51.6061 58.4886 51.4318 57.875 51.4318C56.9735 51.4318 56.2633 51.8258 55.7443 52.6136C55.2292 53.3977 54.9697 54.5038 54.9659 55.9318H55.0568C55.2689 55.6098 55.5208 55.3352 55.8125 55.108C56.108 54.8769 56.4337 54.6989 56.7898 54.5739C57.1458 54.4489 57.5227 54.3864 57.9205 54.3864C58.5871 54.3864 59.197 54.553 59.75 54.8864C60.303 55.2159 60.7462 55.6723 61.0795 56.2557C61.4129 56.8352 61.5795 57.5 61.5795 58.25C61.5795 58.9697 61.4186 59.6288 61.0966 60.2273C60.7746 60.822 60.322 61.2955 59.7386 61.6477C59.1591 61.9962 58.4773 62.1667 57.6932 62.1591ZM57.6932 60.9091C58.1705 60.9091 58.5985 60.7898 58.9773 60.5511C59.3598 60.3125 59.661 59.9924 59.8807 59.5909C60.1042 59.1894 60.2159 58.7424 60.2159 58.25C60.2159 57.7689 60.108 57.3314 59.892 56.9375C59.6799 56.5398 59.3864 56.2235 59.0114 55.9886C58.6402 55.7538 58.2159 55.6364 57.7386 55.6364C57.3788 55.6364 57.0436 55.7083 56.733 55.8523C56.4223 55.9924 56.1496 56.1856 55.9148 56.4318C55.6837 56.678 55.5019 56.9602 55.3693 57.2784C55.2367 57.5928 55.1705 57.9242 55.1705 58.2727C55.1705 58.7348 55.2784 59.1667 55.4943 59.5682C55.714 59.9697 56.0133 60.2936 56.392 60.5398C56.7746 60.786 57.2083 60.9091 57.6932 60.9091ZM63.8366 65.2727V53.2727H65.1321V54.6591H65.2912C65.3897 54.5076 65.526 54.3144 65.7003 54.0795C65.8783 53.8409 66.1321 53.6288 66.4616 53.4432C66.795 53.2538 67.2457 53.1591 67.8139 53.1591C68.5488 53.1591 69.1965 53.3428 69.7571 53.7102C70.3177 54.0777 70.7552 54.5985 71.0696 55.2727C71.384 55.947 71.5412 56.7424 71.5412 57.6591C71.5412 58.5833 71.384 59.3845 71.0696 60.0625C70.7552 60.7367 70.3196 61.2595 69.7628 61.6307C69.206 61.9981 68.5639 62.1818 67.8366 62.1818C67.276 62.1818 66.8272 62.089 66.4901 61.9034C66.1529 61.714 65.8935 61.5 65.7116 61.2614C65.5298 61.0189 65.3897 60.8182 65.2912 60.6591H65.1776V65.2727H63.8366ZM65.1548 57.6364C65.1548 58.2955 65.2514 58.8769 65.4446 59.3807C65.6378 59.8807 65.92 60.2727 66.2912 60.5568C66.6624 60.8371 67.117 60.9773 67.6548 60.9773C68.2154 60.9773 68.6832 60.8295 69.0582 60.5341C69.437 60.2348 69.7211 59.8333 69.9105 59.3295C70.1037 58.822 70.2003 58.2576 70.2003 57.6364C70.2003 57.0227 70.1056 56.4697 69.9162 55.9773C69.7306 55.4811 69.4484 55.089 69.0696 54.8011C68.6946 54.5095 68.223 54.3636 67.6548 54.3636C67.1094 54.3636 66.651 54.5019 66.2798 54.7784C65.9086 55.0511 65.6283 55.4337 65.4389 55.9261C65.2495 56.4148 65.1548 56.9848 65.1548 57.6364ZM74.2273 53.2727L76.3182 56.8409L78.4091 53.2727H79.9545L77.1364 57.6364L79.9545 62H78.4091L76.3182 58.6136L74.2273 62H72.6818L75.4545 57.6364L72.6818 53.2727H74.2273ZM87.3679 53.2727L89.4588 56.8409L91.5497 53.2727H93.0952L90.277 57.6364L93.0952 62H91.5497L89.4588 58.6136L87.3679 62H85.8224L88.5952 57.6364L85.8224 53.2727H87.3679ZM99.6903 62V50.3636H101.099V55.5455H107.304V50.3636H108.713V62H107.304V56.7955H101.099V62H99.6903ZM115.42 50.3636V62H114.011V51.8409H113.943L111.102 53.7273V52.2955L114.011 50.3636H115.42ZM122.631 62.1591C122.153 62.1515 121.676 62.0606 121.199 61.8864C120.722 61.7121 120.286 61.4186 119.892 61.0057C119.498 60.589 119.182 60.0265 118.943 59.3182C118.705 58.6061 118.585 57.7121 118.585 56.6364C118.585 55.6023 118.682 54.6856 118.875 53.8864C119.068 53.0833 119.348 52.4072 119.716 51.858C120.083 51.3087 120.527 50.892 121.045 50.608C121.568 50.3239 122.157 50.1818 122.812 50.1818C123.464 50.1818 124.044 50.3125 124.551 50.5739C125.063 50.8352 125.479 51.1989 125.801 51.6648C126.123 52.1269 126.331 52.6629 126.426 53.2727H125.04C124.911 52.7386 124.661 52.2992 124.29 51.9545C123.919 51.6061 123.426 51.4318 122.812 51.4318C121.911 51.4318 121.201 51.8258 120.682 52.6136C120.167 53.3977 119.907 54.5038 119.903 55.9318H119.994C120.206 55.6098 120.458 55.3352 120.75 55.108C121.045 54.8769 121.371 54.6989 121.727 54.5739C122.083 54.4489 122.46 54.3864 122.858 54.3864C123.525 54.3864 124.134 54.553 124.688 54.8864C125.241 55.2159 125.684 55.6723 126.017 56.2557C126.35 56.8352 126.517 57.5 126.517 58.25C126.517 58.9697 126.356 59.6288 126.034 60.2273C125.712 60.822 125.259 61.2955 124.676 61.6477C124.097 61.9962 123.415 62.1667 122.631 62.1591ZM122.631 60.9091C123.108 60.9091 123.536 60.7898 123.915 60.5511C124.297 60.3125 124.598 59.9924 124.818 59.5909C125.042 59.1894 125.153 58.7424 125.153 58.25C125.153 57.7689 125.045 57.3314 124.83 56.9375C124.617 56.5398 124.324 56.2235 123.949 55.9886C123.578 55.7538 123.153 55.6364 122.676 55.6364C122.316 55.6364 121.981 55.7083 121.67 55.8523C121.36 55.9924 121.087 56.1856 120.852 56.4318C120.621 56.678 120.439 56.9602 120.307 57.2784C120.174 57.5928 120.108 57.9242 120.108 58.2727C120.108 58.7348 120.216 59.1667 120.432 59.5682C120.652 59.9697 120.951 60.2936 121.33 60.5398C121.712 60.786 122.146 60.9091 122.631 60.9091ZM128.774 65.2727V53.2727H130.07V54.6591H130.229C130.327 54.5076 130.464 54.3144 130.638 54.0795C130.816 53.8409 131.07 53.6288 131.399 53.4432C131.732 53.2538 132.183 53.1591 132.751 53.1591C133.486 53.1591 134.134 53.3428 134.695 53.7102C135.255 54.0777 135.693 54.5985 136.007 55.2727C136.321 55.947 136.479 56.7424 136.479 57.6591C136.479 58.5833 136.321 59.3845 136.007 60.0625C135.693 60.7367 135.257 61.2595 134.7 61.6307C134.143 61.9981 133.501 62.1818 132.774 62.1818C132.214 62.1818 131.765 62.089 131.428 61.9034C131.09 61.714 130.831 61.5 130.649 61.2614C130.467 61.0189 130.327 60.8182 130.229 60.6591H130.115V65.2727H128.774ZM130.092 57.6364C130.092 58.2955 130.189 58.8769 130.382 59.3807C130.575 59.8807 130.857 60.2727 131.229 60.5568C131.6 60.8371 132.054 60.9773 132.592 60.9773C133.153 60.9773 133.621 60.8295 133.996 60.5341C134.375 60.2348 134.659 59.8333 134.848 59.3295C135.041 58.822 135.138 58.2576 135.138 57.6364C135.138 57.0227 135.043 56.4697 134.854 55.9773C134.668 55.4811 134.386 55.089 134.007 54.8011C133.632 54.5095 133.161 54.3636 132.592 54.3636C132.047 54.3636 131.589 54.5019 131.217 54.7784C130.846 55.0511 130.566 55.4337 130.376 55.9261C130.187 56.4148 130.092 56.9848 130.092 57.6364ZM139.165 53.2727L141.256 56.8409L143.347 53.2727H144.892L142.074 57.6364L144.892 62H143.347L141.256 58.6136L139.165 62H137.619L140.392 57.6364L137.619 53.2727H139.165Z" fill="white" fill-opacity="0.95"/>
</svg>
