<svg width="244" height="232" viewBox="0 0 244 232" fill="none" xmlns="http://www.w3.org/2000/svg">
<mask id="path-1-inside-1_1437_19630" fill="white">
<path d="M0 0H244V232H0V0Z"/>
</mask>
<path d="M0 0H244V232H0V0Z" fill="#1A1A1A"/>
<path d="M244 232V233H245V232H244ZM243 0V232H245V0H243ZM244 231H0V233H244V231Z" fill="#707070" mask="url(#path-1-inside-1_1437_19630)"/>
<path d="M32.8182 110.364V122H31.4091V110.364H32.8182ZM36.8026 116.75V122H35.4616V113.273H36.7571V114.636H36.8707C37.0753 114.193 37.3859 113.837 37.8026 113.568C38.2192 113.295 38.7571 113.159 39.4162 113.159C40.0071 113.159 40.5241 113.28 40.9673 113.523C41.4105 113.761 41.7552 114.125 42.0014 114.614C42.2476 115.098 42.3707 115.712 42.3707 116.455V122H41.0298V116.545C41.0298 115.86 40.8518 115.326 40.4957 114.943C40.1397 114.557 39.651 114.364 39.0298 114.364C38.6018 114.364 38.2192 114.456 37.8821 114.642C37.5488 114.828 37.2855 115.098 37.0923 115.455C36.8991 115.811 36.8026 116.242 36.8026 116.75ZM44.821 125.273V113.273H46.1165V114.659H46.2756C46.3741 114.508 46.5104 114.314 46.6847 114.08C46.8627 113.841 47.1165 113.629 47.446 113.443C47.7794 113.254 48.2301 113.159 48.7983 113.159C49.5331 113.159 50.1809 113.343 50.7415 113.71C51.3021 114.078 51.7396 114.598 52.054 115.273C52.3684 115.947 52.5256 116.742 52.5256 117.659C52.5256 118.583 52.3684 119.384 52.054 120.062C51.7396 120.737 51.304 121.259 50.7472 121.631C50.1903 121.998 49.5483 122.182 48.821 122.182C48.2604 122.182 47.8116 122.089 47.4744 121.903C47.1373 121.714 46.8778 121.5 46.696 121.261C46.5142 121.019 46.3741 120.818 46.2756 120.659H46.1619V125.273H44.821ZM46.1392 117.636C46.1392 118.295 46.2358 118.877 46.429 119.381C46.6222 119.881 46.9044 120.273 47.2756 120.557C47.6468 120.837 48.1013 120.977 48.6392 120.977C49.1998 120.977 49.6676 120.83 50.0426 120.534C50.4214 120.235 50.7055 119.833 50.8949 119.33C51.0881 118.822 51.1847 118.258 51.1847 117.636C51.1847 117.023 51.09 116.47 50.9006 115.977C50.715 115.481 50.4328 115.089 50.054 114.801C49.679 114.509 49.2074 114.364 48.6392 114.364C48.0938 114.364 47.6354 114.502 47.2642 114.778C46.893 115.051 46.6127 115.434 46.4233 115.926C46.2339 116.415 46.1392 116.985 46.1392 117.636ZM60.071 118.432V113.273H61.4119V122H60.071V120.523H59.9801C59.7756 120.966 59.4574 121.343 59.0256 121.653C58.5938 121.96 58.0483 122.114 57.3892 122.114C56.8438 122.114 56.3589 121.994 55.9347 121.756C55.5104 121.513 55.1771 121.15 54.9347 120.665C54.6922 120.176 54.571 119.561 54.571 118.818V113.273H55.9119V118.727C55.9119 119.364 56.09 119.871 56.446 120.25C56.8059 120.629 57.2642 120.818 57.821 120.818C58.1544 120.818 58.4934 120.733 58.8381 120.562C59.1866 120.392 59.4782 120.131 59.7131 119.778C59.9517 119.426 60.071 118.977 60.071 118.432ZM67.6634 113.273V114.409H63.1406V113.273H67.6634ZM64.4588 111.182H65.7997V119.5C65.7997 119.879 65.8546 120.163 65.9645 120.352C66.0781 120.538 66.2221 120.663 66.3963 120.727C66.5743 120.788 66.7618 120.818 66.9588 120.818C67.1065 120.818 67.2277 120.811 67.3224 120.795C67.4171 120.777 67.4929 120.761 67.5497 120.75L67.8224 121.955C67.7315 121.989 67.6046 122.023 67.4418 122.057C67.2789 122.095 67.0724 122.114 66.8224 122.114C66.4437 122.114 66.0724 122.032 65.7088 121.869C65.349 121.706 65.0497 121.458 64.8111 121.125C64.5762 120.792 64.4588 120.371 64.4588 119.864V111.182ZM83.7259 114H82.3168C82.2334 113.595 82.0876 113.239 81.8793 112.932C81.6747 112.625 81.4247 112.367 81.1293 112.159C80.8376 111.947 80.5137 111.788 80.1577 111.682C79.8016 111.576 79.4304 111.523 79.044 111.523C78.3395 111.523 77.7012 111.701 77.1293 112.057C76.5611 112.413 76.1084 112.938 75.7713 113.631C75.438 114.324 75.2713 115.174 75.2713 116.182C75.2713 117.189 75.438 118.04 75.7713 118.733C76.1084 119.426 76.5611 119.951 77.1293 120.307C77.7012 120.663 78.3395 120.841 79.044 120.841C79.4304 120.841 79.8016 120.788 80.1577 120.682C80.5137 120.576 80.8376 120.419 81.1293 120.21C81.4247 119.998 81.6747 119.739 81.8793 119.432C82.0876 119.121 82.2334 118.765 82.3168 118.364H83.7259C83.6198 118.958 83.4266 119.491 83.1463 119.96C82.866 120.43 82.5175 120.83 82.1009 121.159C81.6842 121.485 81.2164 121.733 80.6974 121.903C80.1823 122.074 79.6312 122.159 79.044 122.159C78.0516 122.159 77.169 121.917 76.3963 121.432C75.6236 120.947 75.0156 120.258 74.5724 119.364C74.1293 118.47 73.9077 117.409 73.9077 116.182C73.9077 114.955 74.1293 113.894 74.5724 113C75.0156 112.106 75.6236 111.417 76.3963 110.932C77.169 110.447 78.0516 110.205 79.044 110.205C79.6312 110.205 80.1823 110.29 80.6974 110.46C81.2164 110.631 81.6842 110.881 82.1009 111.21C82.5175 111.536 82.866 111.934 83.1463 112.403C83.4266 112.869 83.6198 113.402 83.7259 114ZM87.1619 116.75V122H85.821V110.364H87.1619V114.636H87.2756C87.4801 114.186 87.7869 113.828 88.196 113.562C88.6089 113.294 89.1581 113.159 89.8438 113.159C90.4384 113.159 90.9593 113.278 91.4062 113.517C91.8532 113.752 92.1998 114.114 92.446 114.602C92.696 115.087 92.821 115.705 92.821 116.455V122H91.4801V116.545C91.4801 115.852 91.3002 115.316 90.9403 114.938C90.5843 114.555 90.09 114.364 89.4574 114.364C89.018 114.364 88.6241 114.456 88.2756 114.642C87.9309 114.828 87.6581 115.098 87.4574 115.455C87.2604 115.811 87.1619 116.242 87.1619 116.75ZM95.2741 122V113.273H96.6151V122H95.2741ZM95.956 111.818C95.6946 111.818 95.4692 111.729 95.2798 111.551C95.0942 111.373 95.0014 111.159 95.0014 110.909C95.0014 110.659 95.0942 110.445 95.2798 110.267C95.4692 110.089 95.6946 110 95.956 110C96.2173 110 96.4408 110.089 96.6264 110.267C96.8158 110.445 96.9105 110.659 96.9105 110.909C96.9105 111.159 96.8158 111.373 96.6264 111.551C96.4408 111.729 96.2173 111.818 95.956 111.818ZM99.071 125.273V113.273H100.366V114.659H100.526C100.624 114.508 100.76 114.314 100.935 114.08C101.113 113.841 101.366 113.629 101.696 113.443C102.029 113.254 102.48 113.159 103.048 113.159C103.783 113.159 104.431 113.343 104.991 113.71C105.552 114.078 105.99 114.598 106.304 115.273C106.618 115.947 106.776 116.742 106.776 117.659C106.776 118.583 106.618 119.384 106.304 120.062C105.99 120.737 105.554 121.259 104.997 121.631C104.44 121.998 103.798 122.182 103.071 122.182C102.51 122.182 102.062 122.089 101.724 121.903C101.387 121.714 101.128 121.5 100.946 121.261C100.764 121.019 100.624 120.818 100.526 120.659H100.412V125.273H99.071ZM100.389 117.636C100.389 118.295 100.486 118.877 100.679 119.381C100.872 119.881 101.154 120.273 101.526 120.557C101.897 120.837 102.351 120.977 102.889 120.977C103.45 120.977 103.918 120.83 104.293 120.534C104.671 120.235 104.955 119.833 105.145 119.33C105.338 118.822 105.435 118.258 105.435 117.636C105.435 117.023 105.34 116.47 105.151 115.977C104.965 115.481 104.683 115.089 104.304 114.801C103.929 114.509 103.457 114.364 102.889 114.364C102.344 114.364 101.885 114.502 101.514 114.778C101.143 115.051 100.863 115.434 100.673 115.926C100.484 116.415 100.389 116.985 100.389 117.636Z" fill="white" fill-opacity="0.95"/>
</svg>
