<svg width="320" height="160" viewBox="0 0 320 160" fill="none" xmlns="http://www.w3.org/2000/svg">
<mask id="path-1-inside-1_1437_19643" fill="white">
<path d="M0 0H320V160H0V0Z"/>
</mask>
<path d="M0 0H320V160H0V0Z" fill="#1A1A1A"/>
<path d="M320 160V161H321V160H320ZM319 0V160H321V0H319ZM320 159H0V161H320V159Z" fill="#707070" mask="url(#path-1-inside-1_1437_19643)"/>
<path d="M30.6761 75.9119V74.8182H38.3125V75.9119H35.1108V85H33.8778V75.9119H30.6761ZM39.937 87.8438C39.7381 87.8438 39.5608 87.8272 39.405 87.794C39.2492 87.7642 39.1415 87.7344 39.0819 87.7045L39.3801 86.6705C39.8077 86.7798 40.164 86.7765 40.449 86.6605C40.7341 86.5478 40.981 86.2064 41.1898 85.6364L41.4086 85.0398L38.5847 77.3636H39.8574L41.9654 83.4489H42.0449L44.1529 77.3636L45.4355 77.3835L42.1841 86.1136C42.0383 86.5014 41.8577 86.8229 41.6422 87.0781C41.4268 87.3366 41.1766 87.5289 40.8915 87.6548C40.6098 87.7808 40.2916 87.8438 39.937 87.8438ZM46.9879 87.8636V77.3636H48.1214V78.5767H48.2607C48.3468 78.4441 48.4661 78.2751 48.6186 78.0696C48.7744 77.8608 48.9964 77.6752 49.2848 77.5128C49.5765 77.3471 49.9709 77.2642 50.468 77.2642C51.111 77.2642 51.6778 77.425 52.1683 77.7464C52.6589 78.0679 53.0417 78.5237 53.3168 79.1136C53.5919 79.7036 53.7294 80.3996 53.7294 81.2017C53.7294 82.0104 53.5919 82.7114 53.3168 83.3047C53.0417 83.8946 52.6605 84.352 52.1733 84.6768C51.6861 84.9983 51.1243 85.1591 50.4879 85.1591C49.9974 85.1591 49.6046 85.0779 49.3097 84.9155C49.0147 84.7498 48.7876 84.5625 48.6286 84.3537C48.4695 84.1416 48.3468 83.9659 48.2607 83.8267H48.1612V87.8636H46.9879ZM48.1413 81.1818C48.1413 81.7585 48.2259 82.2673 48.3949 82.7081C48.5639 83.1456 48.8108 83.4886 49.1357 83.7372C49.4605 83.9825 49.8582 84.1051 50.3288 84.1051C50.8194 84.1051 51.2287 83.9759 51.5568 83.7173C51.8883 83.4555 52.1368 83.1042 52.3026 82.6634C52.4716 82.2192 52.5561 81.7254 52.5561 81.1818C52.5561 80.6449 52.4732 80.161 52.3075 79.7301C52.1451 79.2959 51.8982 78.9529 51.5668 78.701C51.2386 78.4458 50.826 78.3182 50.3288 78.3182C49.8516 78.3182 49.4505 78.4392 49.1257 78.6811C48.8009 78.9197 48.5556 79.2545 48.3899 79.6854C48.2242 80.1129 48.1413 80.6117 48.1413 81.1818ZM58.7209 85.1591C57.9851 85.1591 57.3504 84.9967 56.8168 84.6719C56.2865 84.3438 55.8771 83.8864 55.5888 83.2997C55.3037 82.7098 55.1612 82.0237 55.1612 81.2415C55.1612 80.4593 55.3037 79.7699 55.5888 79.1733C55.8771 78.5734 56.2782 78.1061 56.7919 77.7713C57.3089 77.4332 57.9122 77.2642 58.6016 77.2642C58.9993 77.2642 59.392 77.3305 59.7798 77.4631C60.1676 77.5956 60.5206 77.8111 60.8388 78.1094C61.157 78.4044 61.4105 78.7955 61.5994 79.2827C61.7884 79.7699 61.8828 80.3698 61.8828 81.0824V81.5795H55.9964V80.5653H60.6896C60.6896 80.1345 60.6035 79.75 60.4311 79.4119C60.2621 79.0739 60.0201 78.8071 59.7053 78.6115C59.3937 78.416 59.0258 78.3182 58.6016 78.3182C58.1342 78.3182 57.7299 78.4342 57.3885 78.6662C57.0504 78.8949 56.7902 79.1932 56.608 79.5611C56.4257 79.929 56.3345 80.3234 56.3345 80.7443V81.4205C56.3345 81.9972 56.4339 82.486 56.6328 82.8871C56.835 83.2848 57.1151 83.5881 57.473 83.7969C57.831 84.0024 58.2469 84.1051 58.7209 84.1051C59.0291 84.1051 59.3075 84.062 59.5561 83.9759C59.808 83.8864 60.0251 83.7538 60.2074 83.5781C60.3897 83.3991 60.5305 83.1771 60.63 82.9119L61.7635 83.2301C61.6442 83.6146 61.4437 83.9527 61.1619 84.2443C60.8802 84.5327 60.5322 84.758 60.1179 84.9205C59.7036 85.0795 59.2379 85.1591 58.7209 85.1591ZM66.5511 85.1591C65.9148 85.1591 65.353 84.9983 64.8658 84.6768C64.3786 84.352 63.9974 83.8946 63.7223 83.3047C63.4472 82.7114 63.3097 82.0104 63.3097 81.2017C63.3097 80.3996 63.4472 79.7036 63.7223 79.1136C63.9974 78.5237 64.3802 78.0679 64.8707 77.7464C65.3613 77.425 65.928 77.2642 66.571 77.2642C67.0682 77.2642 67.4609 77.3471 67.7493 77.5128C68.041 77.6752 68.263 77.8608 68.4155 78.0696C68.5713 78.2751 68.6922 78.4441 68.7784 78.5767H68.8778V74.8182H70.0511V85H68.9176V83.8267H68.7784C68.6922 83.9659 68.5696 84.1416 68.4105 84.3537C68.2514 84.5625 68.0244 84.7498 67.7294 84.9155C67.4344 85.0779 67.0417 85.1591 66.5511 85.1591ZM66.7102 84.1051C67.1809 84.1051 67.5786 83.9825 67.9034 83.7372C68.2282 83.4886 68.4751 83.1456 68.6442 82.7081C68.8132 82.2673 68.8977 81.7585 68.8977 81.1818C68.8977 80.6117 68.8149 80.1129 68.6491 79.6854C68.4834 79.2545 68.2382 78.9197 67.9134 78.6811C67.5885 78.4392 67.1875 78.3182 66.7102 78.3182C66.2131 78.3182 65.7988 78.4458 65.4673 78.701C65.1392 78.9529 64.8923 79.2959 64.7266 79.7301C64.5642 80.161 64.483 80.6449 64.483 81.1818C64.483 81.7254 64.5658 82.2192 64.7315 82.6634C64.9006 83.1042 65.1491 83.4555 65.4773 83.7173C65.8087 83.9759 66.2197 84.1051 66.7102 84.1051ZM79.6214 77.3636V78.358H75.6641V77.3636H79.6214ZM76.8175 75.5341H77.9908V82.8125C77.9908 83.1439 78.0388 83.3925 78.1349 83.5582C78.2344 83.7206 78.3603 83.83 78.5128 83.8864C78.6686 83.9394 78.8326 83.9659 79.005 83.9659C79.1342 83.9659 79.2403 83.9593 79.3232 83.946C79.406 83.9295 79.4723 83.9162 79.522 83.9062L79.7607 84.9602C79.6811 84.9901 79.5701 85.0199 79.4276 85.0497C79.285 85.0829 79.1044 85.0994 78.8857 85.0994C78.5542 85.0994 78.2294 85.0282 77.9112 84.8857C77.5964 84.7431 77.3345 84.526 77.1257 84.2344C76.9202 83.9427 76.8175 83.5748 76.8175 83.1307V75.5341ZM84.506 85.1591C83.7702 85.1591 83.1355 84.9967 82.6019 84.6719C82.0716 84.3438 81.6623 83.8864 81.3739 83.2997C81.0889 82.7098 80.9464 82.0237 80.9464 81.2415C80.9464 80.4593 81.0889 79.7699 81.3739 79.1733C81.6623 78.5734 82.0633 78.1061 82.5771 77.7713C83.0941 77.4332 83.6973 77.2642 84.3867 77.2642C84.7844 77.2642 85.1772 77.3305 85.565 77.4631C85.9528 77.5956 86.3058 77.8111 86.6239 78.1094C86.9421 78.4044 87.1957 78.7955 87.3846 79.2827C87.5735 79.7699 87.668 80.3698 87.668 81.0824V81.5795H81.7816V80.5653H86.4748C86.4748 80.1345 86.3886 79.75 86.2163 79.4119C86.0472 79.0739 85.8053 78.8071 85.4904 78.6115C85.1789 78.416 84.811 78.3182 84.3867 78.3182C83.9194 78.3182 83.515 78.4342 83.1737 78.6662C82.8356 78.8949 82.5754 79.1932 82.3931 79.5611C82.2108 79.929 82.1197 80.3234 82.1197 80.7443V81.4205C82.1197 81.9972 82.2191 82.486 82.418 82.8871C82.6201 83.2848 82.9002 83.5881 83.2582 83.7969C83.6161 84.0024 84.0321 84.1051 84.506 84.1051C84.8143 84.1051 85.0927 84.062 85.3413 83.9759C85.5932 83.8864 85.8103 83.7538 85.9925 83.5781C86.1748 83.3991 86.3157 83.1771 86.4151 82.9119L87.5487 83.2301C87.4293 83.6146 87.2288 83.9527 86.9471 84.2443C86.6654 84.5327 86.3174 84.758 85.9031 84.9205C85.4888 85.0795 85.0231 85.1591 84.506 85.1591ZM90.1227 77.3636L91.9522 80.4858L93.7818 77.3636H95.1341L92.6681 81.1818L95.1341 85H93.7818L91.9522 82.0369L90.1227 85H88.7704L91.1966 81.1818L88.7704 77.3636H90.1227ZM100.129 77.3636V78.358H96.1719V77.3636H100.129ZM97.3253 75.5341H98.4986V82.8125C98.4986 83.1439 98.5466 83.3925 98.6428 83.5582C98.7422 83.7206 98.8681 83.83 99.0206 83.8864C99.1764 83.9394 99.3404 83.9659 99.5128 83.9659C99.642 83.9659 99.7481 83.9593 99.831 83.946C99.9138 83.9295 99.9801 83.9162 100.03 83.9062L100.268 84.9602C100.189 84.9901 100.078 85.0199 99.9354 85.0497C99.7929 85.0829 99.6122 85.0994 99.3935 85.0994C99.062 85.0994 98.7372 85.0282 98.419 84.8857C98.1042 84.7431 97.8423 84.526 97.6335 84.2344C97.428 83.9427 97.3253 83.5748 97.3253 83.1307V75.5341Z" fill="white" fill-opacity="0.95"/>
</svg>
