<svg width="1300" height="80" viewBox="0 0 1300 80" fill="none" xmlns="http://www.w3.org/2000/svg">
<mask id="path-1-inside-1_1437_25612" fill="white">
<path d="M0 0H650V80H0V0Z"/>
</mask>
<path d="M0 0H650V80H0V0Z" fill="#1A1A1A"/>
<path d="M650 80V81H651V80H650ZM649 0V80H651V0H649ZM650 79H0V81H650V79Z" fill="#707070" mask="url(#path-1-inside-1_1437_25612)"/>
<rect x="30" y="24" width="63" height="32" rx="4" fill="#262626"/>
<path d="M39.0114 46V34.3636H41.4716V39.1648H46.4659V34.3636H48.9205V46H46.4659V41.1932H41.4716V46H39.0114ZM55.1666 46.1705C54.284 46.1705 53.5208 45.983 52.8768 45.608C52.2367 45.2292 51.7423 44.7027 51.3939 44.0284C51.0454 43.3504 50.8711 42.5644 50.8711 41.6705C50.8711 40.7689 51.0454 39.9811 51.3939 39.3068C51.7423 38.6288 52.2367 38.1023 52.8768 37.7273C53.5208 37.3485 54.284 37.1591 55.1666 37.1591C56.0492 37.1591 56.8105 37.3485 57.4507 37.7273C58.0946 38.1023 58.5908 38.6288 58.9393 39.3068C59.2878 39.9811 59.462 40.7689 59.462 41.6705C59.462 42.5644 59.2878 43.3504 58.9393 44.0284C58.5908 44.7027 58.0946 45.2292 57.4507 45.608C56.8105 45.983 56.0492 46.1705 55.1666 46.1705ZM55.178 44.2955C55.5795 44.2955 55.9147 44.1818 56.1836 43.9545C56.4526 43.7235 56.6552 43.4091 56.7916 43.0114C56.9317 42.6136 57.0018 42.161 57.0018 41.6534C57.0018 41.1458 56.9317 40.6932 56.7916 40.2955C56.6552 39.8977 56.4526 39.5833 56.1836 39.3523C55.9147 39.1212 55.5795 39.0057 55.178 39.0057C54.7727 39.0057 54.4317 39.1212 54.1552 39.3523C53.8825 39.5833 53.6761 39.8977 53.5359 40.2955C53.3995 40.6932 53.3314 41.1458 53.3314 41.6534C53.3314 42.161 53.3995 42.6136 53.5359 43.0114C53.6761 43.4091 53.8825 43.7235 54.1552 43.9545C54.4317 44.1818 54.7727 44.2955 55.178 44.2955ZM61.3559 46V37.2727H63.6627V38.8125H63.765C63.9468 38.3011 64.2498 37.8977 64.6741 37.6023C65.0983 37.3068 65.6059 37.1591 66.1968 37.1591C66.7953 37.1591 67.3048 37.3087 67.7252 37.608C68.1457 37.9034 68.426 38.3049 68.5661 38.8125H68.657C68.8351 38.3125 69.157 37.9129 69.623 37.6136C70.0927 37.3106 70.6476 37.1591 71.2877 37.1591C72.1021 37.1591 72.7631 37.4186 73.2707 37.9375C73.782 38.4527 74.0377 39.1837 74.0377 40.1307V46H71.623V40.608C71.623 40.1231 71.4942 39.7595 71.2366 39.517C70.979 39.2746 70.657 39.1534 70.2707 39.1534C69.8313 39.1534 69.4885 39.2936 69.2423 39.5739C68.9961 39.8504 68.873 40.2159 68.873 40.6705V46H66.5264V40.5568C66.5264 40.1288 66.4033 39.7879 66.157 39.5341C65.9146 39.2803 65.5945 39.1534 65.1968 39.1534C64.9279 39.1534 64.6855 39.2216 64.4695 39.358C64.2574 39.4905 64.0889 39.678 63.9639 39.9205C63.8389 40.1591 63.7764 40.4394 63.7764 40.7614V46H61.3559ZM80.2469 46.1705C79.3492 46.1705 78.5765 45.9886 77.9287 45.625C77.2848 45.2576 76.7886 44.7386 76.4401 44.0682C76.0916 43.3939 75.9174 42.5966 75.9174 41.6761C75.9174 40.7784 76.0916 39.9905 76.4401 39.3125C76.7886 38.6345 77.2791 38.1061 77.9117 37.7273C78.5481 37.3485 79.2943 37.1591 80.1503 37.1591C80.7261 37.1591 81.2621 37.2519 81.7583 37.4375C82.2583 37.6193 82.6939 37.8939 83.0651 38.2614C83.4401 38.6288 83.7318 39.0909 83.9401 39.6477C84.1484 40.2008 84.2526 40.8485 84.2526 41.5909V42.2557H76.8833V40.7557H81.9742C81.9742 40.4072 81.8984 40.0985 81.7469 39.8295C81.5954 39.5606 81.3852 39.3504 81.1162 39.1989C80.8511 39.0436 80.5424 38.9659 80.1901 38.9659C79.8227 38.9659 79.4969 39.0511 79.2128 39.2216C78.9325 39.3883 78.7128 39.6136 78.5537 39.8977C78.3947 40.178 78.3132 40.4905 78.3094 40.8352V42.2614C78.3094 42.6932 78.389 43.0663 78.5481 43.3807C78.7109 43.6951 78.9401 43.9375 79.2356 44.108C79.531 44.2784 79.8814 44.3636 80.2867 44.3636C80.5556 44.3636 80.8019 44.3258 81.0253 44.25C81.2488 44.1742 81.4401 44.0606 81.5992 43.9091C81.7583 43.7576 81.8795 43.572 81.9628 43.3523L84.2015 43.5C84.0878 44.0379 83.8549 44.5076 83.5026 44.9091C83.1541 45.3068 82.7034 45.6174 82.1503 45.8409C81.6011 46.0606 80.9666 46.1705 80.2469 46.1705Z" fill="white" fill-opacity="0.7"/>
<path d="M111.676 30.7727L106.989 48.1875H105.455L110.142 30.7727H111.676Z" fill="white" fill-opacity="0.95"/>
<rect x="125" y="24" width="47" height="32" rx="4" fill="#262626"/>
<path d="M134.011 46V34.3636H141.852V36.392H136.472V39.1648H141.449V41.1932H136.472V43.9716H141.875V46H134.011ZM146.503 40.9545V46H144.083V37.2727H146.39V38.8125H146.492C146.685 38.3049 147.009 37.9034 147.463 37.608C147.918 37.3087 148.469 37.1591 149.117 37.1591C149.723 37.1591 150.251 37.2917 150.702 37.5568C151.153 37.822 151.503 38.2008 151.753 38.6932C152.003 39.1818 152.128 39.7652 152.128 40.4432V46H149.708V40.875C149.712 40.3409 149.575 39.9242 149.299 39.625C149.022 39.322 148.641 39.1705 148.157 39.1705C147.831 39.1705 147.543 39.2405 147.293 39.3807C147.047 39.5208 146.854 39.7254 146.713 39.9943C146.577 40.2595 146.507 40.5795 146.503 40.9545ZM157.572 46.142C156.909 46.142 156.309 45.9716 155.771 45.6307C155.237 45.286 154.812 44.7803 154.498 44.1136C154.187 43.4432 154.032 42.6212 154.032 41.6477C154.032 40.6477 154.193 39.8163 154.515 39.1534C154.837 38.4867 155.265 37.9886 155.799 37.6591C156.337 37.3258 156.926 37.1591 157.566 37.1591C158.055 37.1591 158.462 37.2424 158.788 37.4091C159.117 37.572 159.382 37.7765 159.583 38.0227C159.788 38.2652 159.943 38.5038 160.049 38.7386H160.123V34.3636H162.538V46H160.151V44.6023H160.049C159.935 44.8447 159.774 45.0852 159.566 45.3239C159.362 45.5587 159.095 45.7538 158.765 45.9091C158.439 46.0644 158.042 46.142 157.572 46.142ZM158.339 44.2159C158.729 44.2159 159.059 44.1098 159.327 43.8977C159.6 43.6818 159.809 43.3807 159.952 42.9943C160.1 42.608 160.174 42.1553 160.174 41.6364C160.174 41.1174 160.102 40.6667 159.958 40.2841C159.814 39.9015 159.606 39.6061 159.333 39.3977C159.06 39.1894 158.729 39.0852 158.339 39.0852C157.941 39.0852 157.606 39.1932 157.333 39.4091C157.06 39.625 156.854 39.9242 156.714 40.3068C156.574 40.6894 156.504 41.1326 156.504 41.6364C156.504 42.1439 156.574 42.5928 156.714 42.983C156.858 43.3693 157.064 43.6723 157.333 43.892C157.606 44.108 157.941 44.2159 158.339 44.2159Z" fill="white" fill-opacity="0.7"/>
<mask id="path-8-inside-2_1437_25612" fill="white">
<path d="M650 0H1300V80H650V0Z"/>
</mask>
<path d="M650 0H1300V80H650V0Z" fill="#1A1A1A"/>
<path d="M1300 79H650V81H1300V79Z" fill="#707070" mask="url(#path-8-inside-2_1437_25612)"/>
<path d="M681.409 34.3636H683.091L687.045 44.0227H687.182L691.136 34.3636H692.818V46H691.5V37.1591H691.386L687.75 46H686.477L682.841 37.1591H682.727V46H681.409V34.3636ZM699.007 46.1818C698.219 46.1818 697.528 45.9943 696.933 45.6193C696.342 45.2443 695.88 44.7197 695.547 44.0455C695.217 43.3712 695.053 42.5833 695.053 41.6818C695.053 40.7727 695.217 39.9792 695.547 39.3011C695.88 38.6231 696.342 38.0966 696.933 37.7216C697.528 37.3466 698.219 37.1591 699.007 37.1591C699.795 37.1591 700.484 37.3466 701.075 37.7216C701.67 38.0966 702.132 38.6231 702.462 39.3011C702.795 39.9792 702.962 40.7727 702.962 41.6818C702.962 42.5833 702.795 43.3712 702.462 44.0455C702.132 44.7197 701.67 45.2443 701.075 45.6193C700.484 45.9943 699.795 46.1818 699.007 46.1818ZM699.007 44.9773C699.606 44.9773 700.098 44.8239 700.484 44.517C700.871 44.2102 701.157 43.8068 701.342 43.3068C701.528 42.8068 701.621 42.2652 701.621 41.6818C701.621 41.0985 701.528 40.5549 701.342 40.0511C701.157 39.5473 700.871 39.1402 700.484 38.8295C700.098 38.5189 699.606 38.3636 699.007 38.3636C698.409 38.3636 697.916 38.5189 697.53 38.8295C697.143 39.1402 696.857 39.5473 696.672 40.0511C696.486 40.5549 696.393 41.0985 696.393 41.6818C696.393 42.2652 696.486 42.8068 696.672 43.3068C696.857 43.8068 697.143 44.2102 697.53 44.517C697.916 44.8239 698.409 44.9773 699.007 44.9773ZM711.832 37.2727L708.605 46H707.241L704.014 37.2727H705.469L707.878 44.2273H707.969L710.378 37.2727H711.832ZM716.949 46.1818C716.108 46.1818 715.383 45.9962 714.773 45.625C714.167 45.25 713.699 44.7273 713.369 44.0568C713.044 43.3826 712.881 42.5985 712.881 41.7045C712.881 40.8106 713.044 40.0227 713.369 39.3409C713.699 38.6553 714.157 38.1212 714.744 37.7386C715.335 37.3523 716.025 37.1591 716.812 37.1591C717.267 37.1591 717.716 37.2348 718.159 37.3864C718.602 37.5379 719.006 37.7841 719.369 38.125C719.733 38.4621 720.023 38.9091 720.239 39.4659C720.455 40.0227 720.562 40.7083 720.562 41.5227V42.0909H713.835V40.9318H719.199C719.199 40.4394 719.1 40 718.903 39.6136C718.71 39.2273 718.434 38.9223 718.074 38.6989C717.718 38.4754 717.297 38.3636 716.812 38.3636C716.278 38.3636 715.816 38.4962 715.426 38.7614C715.04 39.0227 714.742 39.3636 714.534 39.7841C714.326 40.2045 714.222 40.6553 714.222 41.1364V41.9091C714.222 42.5682 714.335 43.1269 714.562 43.5852C714.794 44.0398 715.114 44.3864 715.523 44.625C715.932 44.8598 716.407 44.9773 716.949 44.9773C717.301 44.9773 717.619 44.928 717.903 44.8295C718.191 44.7273 718.439 44.5758 718.648 44.375C718.856 44.1705 719.017 43.9167 719.131 43.6136L720.426 43.9773C720.29 44.4167 720.061 44.803 719.739 45.1364C719.417 45.4659 719.019 45.7235 718.545 45.9091C718.072 46.0909 717.54 46.1818 716.949 46.1818ZM728.784 39.2273L727.58 39.5682C727.504 39.3674 727.392 39.1723 727.244 38.983C727.1 38.7898 726.903 38.6307 726.653 38.5057C726.403 38.3807 726.083 38.3182 725.693 38.3182C725.159 38.3182 724.714 38.4413 724.358 38.6875C724.006 38.9299 723.83 39.2386 723.83 39.6136C723.83 39.947 723.951 40.2102 724.193 40.4034C724.436 40.5966 724.814 40.7576 725.33 40.8864L726.625 41.2045C727.405 41.3939 727.987 41.6837 728.369 42.0739C728.752 42.4602 728.943 42.9583 728.943 43.5682C728.943 44.0682 728.799 44.5152 728.511 44.9091C728.227 45.303 727.83 45.6136 727.318 45.8409C726.807 46.0682 726.212 46.1818 725.534 46.1818C724.644 46.1818 723.907 45.9886 723.324 45.6023C722.741 45.2159 722.371 44.6515 722.216 43.9091L723.489 43.5909C723.61 44.0606 723.839 44.4129 724.176 44.6477C724.517 44.8826 724.962 45 725.511 45C726.136 45 726.633 44.8674 727 44.6023C727.371 44.3333 727.557 44.0114 727.557 43.6364C727.557 43.3333 727.451 43.0795 727.239 42.875C727.027 42.6667 726.701 42.5114 726.261 42.4091L724.807 42.0682C724.008 41.8788 723.42 41.5852 723.045 41.1875C722.674 40.786 722.489 40.2841 722.489 39.6818C722.489 39.1894 722.627 38.7538 722.903 38.375C723.184 37.9962 723.564 37.6989 724.045 37.483C724.53 37.267 725.08 37.1591 725.693 37.1591C726.557 37.1591 727.235 37.3485 727.727 37.7273C728.223 38.1061 728.576 38.6061 728.784 39.2273ZM739.257 37.2727V38.4091H734.734V37.2727H739.257ZM736.053 35.1818H737.393V43.5C737.393 43.8788 737.448 44.1629 737.558 44.3523C737.672 44.5379 737.816 44.6629 737.99 44.7273C738.168 44.7879 738.356 44.8182 738.553 44.8182C738.7 44.8182 738.821 44.8106 738.916 44.7955C739.011 44.7765 739.087 44.7614 739.143 44.75L739.416 45.9545C739.325 45.9886 739.198 46.0227 739.036 46.0568C738.873 46.0947 738.666 46.1136 738.416 46.1136C738.037 46.1136 737.666 46.0322 737.303 45.8693C736.943 45.7064 736.643 45.4583 736.405 45.125C736.17 44.7917 736.053 44.3712 736.053 43.8636V35.1818ZM744.726 46.1818C743.938 46.1818 743.247 45.9943 742.652 45.6193C742.061 45.2443 741.599 44.7197 741.266 44.0455C740.936 43.3712 740.771 42.5833 740.771 41.6818C740.771 40.7727 740.936 39.9792 741.266 39.3011C741.599 38.6231 742.061 38.0966 742.652 37.7216C743.247 37.3466 743.938 37.1591 744.726 37.1591C745.514 37.1591 746.203 37.3466 746.794 37.7216C747.389 38.0966 747.851 38.6231 748.18 39.3011C748.514 39.9792 748.68 40.7727 748.68 41.6818C748.68 42.5833 748.514 43.3712 748.18 44.0455C747.851 44.7197 747.389 45.2443 746.794 45.6193C746.203 45.9943 745.514 46.1818 744.726 46.1818ZM744.726 44.9773C745.324 44.9773 745.817 44.8239 746.203 44.517C746.589 44.2102 746.875 43.8068 747.061 43.3068C747.247 42.8068 747.339 42.2652 747.339 41.6818C747.339 41.0985 747.247 40.5549 747.061 40.0511C746.875 39.5473 746.589 39.1402 746.203 38.8295C745.817 38.5189 745.324 38.3636 744.726 38.3636C744.127 38.3636 743.635 38.5189 743.249 38.8295C742.862 39.1402 742.576 39.5473 742.391 40.0511C742.205 40.5549 742.112 41.0985 742.112 41.6818C742.112 42.2652 742.205 42.8068 742.391 43.3068C742.576 43.8068 742.862 44.2102 743.249 44.517C743.635 44.8239 744.127 44.9773 744.726 44.9773ZM759.023 37.2727V38.4091H754.5V37.2727H759.023ZM755.818 35.1818H757.159V43.5C757.159 43.8788 757.214 44.1629 757.324 44.3523C757.438 44.5379 757.581 44.6629 757.756 44.7273C757.934 44.7879 758.121 44.8182 758.318 44.8182C758.466 44.8182 758.587 44.8106 758.682 44.7955C758.777 44.7765 758.852 44.7614 758.909 44.75L759.182 45.9545C759.091 45.9886 758.964 46.0227 758.801 46.0568C758.638 46.0947 758.432 46.1136 758.182 46.1136C757.803 46.1136 757.432 46.0322 757.068 45.8693C756.708 45.7064 756.409 45.4583 756.17 45.125C755.936 44.7917 755.818 44.3712 755.818 43.8636V35.1818ZM762.568 40.75V46H761.227V34.3636H762.568V38.6364H762.682C762.886 38.1856 763.193 37.8277 763.602 37.5625C764.015 37.2936 764.564 37.1591 765.25 37.1591C765.845 37.1591 766.366 37.2784 766.812 37.517C767.259 37.7519 767.606 38.1136 767.852 38.6023C768.102 39.0871 768.227 39.7045 768.227 40.4545V46H766.886V40.5455C766.886 39.8523 766.706 39.3163 766.347 38.9375C765.991 38.5549 765.496 38.3636 764.864 38.3636C764.424 38.3636 764.03 38.4564 763.682 38.642C763.337 38.8277 763.064 39.0985 762.864 39.4545C762.667 39.8106 762.568 40.2424 762.568 40.75ZM774.339 46.1818C773.499 46.1818 772.773 45.9962 772.163 45.625C771.557 45.25 771.089 44.7273 770.76 44.0568C770.434 43.3826 770.271 42.5985 770.271 41.7045C770.271 40.8106 770.434 40.0227 770.76 39.3409C771.089 38.6553 771.548 38.1212 772.135 37.7386C772.726 37.3523 773.415 37.1591 774.203 37.1591C774.658 37.1591 775.107 37.2348 775.55 37.3864C775.993 37.5379 776.396 37.7841 776.76 38.125C777.124 38.4621 777.413 38.9091 777.629 39.4659C777.845 40.0227 777.953 40.7083 777.953 41.5227V42.0909H771.226V40.9318H776.589C776.589 40.4394 776.491 40 776.294 39.6136C776.101 39.2273 775.824 38.9223 775.464 38.6989C775.108 38.4754 774.688 38.3636 774.203 38.3636C773.669 38.3636 773.207 38.4962 772.817 38.7614C772.43 39.0227 772.133 39.3636 771.925 39.7841C771.716 40.2045 771.612 40.6553 771.612 41.1364V41.9091C771.612 42.5682 771.726 43.1269 771.953 43.5852C772.184 44.0398 772.504 44.3864 772.913 44.625C773.322 44.8598 773.798 44.9773 774.339 44.9773C774.692 44.9773 775.01 44.928 775.294 44.8295C775.582 44.7273 775.83 44.5758 776.038 44.375C776.247 44.1705 776.408 43.9167 776.521 43.6136L777.817 43.9773C777.68 44.4167 777.451 44.803 777.129 45.1364C776.807 45.4659 776.41 45.7235 775.936 45.9091C775.463 46.0909 774.93 46.1818 774.339 46.1818ZM784.675 46V34.3636H786.016V38.6591H786.129C786.228 38.5076 786.364 38.3144 786.538 38.0795C786.716 37.8409 786.97 37.6288 787.3 37.4432C787.633 37.2538 788.084 37.1591 788.652 37.1591C789.387 37.1591 790.035 37.3428 790.595 37.7102C791.156 38.0777 791.593 38.5985 791.908 39.2727C792.222 39.947 792.379 40.7424 792.379 41.6591C792.379 42.5833 792.222 43.3845 791.908 44.0625C791.593 44.7367 791.158 45.2595 790.601 45.6307C790.044 45.9981 789.402 46.1818 788.675 46.1818C788.114 46.1818 787.665 46.089 787.328 45.9034C786.991 45.714 786.732 45.5 786.55 45.2614C786.368 45.0189 786.228 44.8182 786.129 44.6591H785.97V46H784.675ZM785.993 41.6364C785.993 42.2955 786.089 42.8769 786.283 43.3807C786.476 43.8807 786.758 44.2727 787.129 44.5568C787.5 44.8371 787.955 44.9773 788.493 44.9773C789.054 44.9773 789.521 44.8295 789.896 44.5341C790.275 44.2348 790.559 43.8333 790.749 43.3295C790.942 42.822 791.038 42.2576 791.038 41.6364C791.038 41.0227 790.944 40.4697 790.754 39.9773C790.569 39.4811 790.286 39.089 789.908 38.8011C789.533 38.5095 789.061 38.3636 788.493 38.3636C787.947 38.3636 787.489 38.5019 787.118 38.7784C786.747 39.0511 786.466 39.4337 786.277 39.9261C786.088 40.4148 785.993 40.9848 785.993 41.6364ZM798.089 46.1818C797.249 46.1818 796.523 45.9962 795.913 45.625C795.307 45.25 794.839 44.7273 794.51 44.0568C794.184 43.3826 794.021 42.5985 794.021 41.7045C794.021 40.8106 794.184 40.0227 794.51 39.3409C794.839 38.6553 795.298 38.1212 795.885 37.7386C796.476 37.3523 797.165 37.1591 797.953 37.1591C798.408 37.1591 798.857 37.2348 799.3 37.3864C799.743 37.5379 800.146 37.7841 800.51 38.125C800.874 38.4621 801.163 38.9091 801.379 39.4659C801.595 40.0227 801.703 40.7083 801.703 41.5227V42.0909H794.976V40.9318H800.339C800.339 40.4394 800.241 40 800.044 39.6136C799.851 39.2273 799.574 38.9223 799.214 38.6989C798.858 38.4754 798.438 38.3636 797.953 38.3636C797.419 38.3636 796.957 38.4962 796.567 38.7614C796.18 39.0227 795.883 39.3636 795.675 39.7841C795.466 40.2045 795.362 40.6553 795.362 41.1364V41.9091C795.362 42.5682 795.476 43.1269 795.703 43.5852C795.934 44.0398 796.254 44.3864 796.663 44.625C797.072 44.8598 797.548 44.9773 798.089 44.9773C798.442 44.9773 798.76 44.928 799.044 44.8295C799.332 44.7273 799.58 44.5758 799.788 44.375C799.997 44.1705 800.158 43.9167 800.271 43.6136L801.567 43.9773C801.43 44.4167 801.201 44.803 800.879 45.1364C800.557 45.4659 800.16 45.7235 799.686 45.9091C799.213 46.0909 798.68 46.1818 798.089 46.1818ZM807.266 49.4545C806.618 49.4545 806.061 49.3712 805.595 49.2045C805.129 49.0417 804.741 48.8258 804.43 48.5568C804.124 48.2917 803.879 48.0076 803.697 47.7045L804.766 46.9545C804.887 47.1136 805.04 47.2955 805.226 47.5C805.411 47.7083 805.665 47.8883 805.987 48.0398C806.313 48.1951 806.739 48.2727 807.266 48.2727C807.97 48.2727 808.552 48.1023 809.01 47.7614C809.468 47.4205 809.697 46.8864 809.697 46.1591V44.3864H809.584C809.485 44.5455 809.345 44.7424 809.163 44.9773C808.985 45.2083 808.728 45.4148 808.391 45.5966C808.057 45.7746 807.607 45.8636 807.038 45.8636C806.334 45.8636 805.701 45.697 805.141 45.3636C804.584 45.0303 804.143 44.5455 803.817 43.9091C803.495 43.2727 803.334 42.5 803.334 41.5909C803.334 40.697 803.491 39.9186 803.805 39.2557C804.12 38.589 804.557 38.0739 805.118 37.7102C805.679 37.3428 806.326 37.1591 807.061 37.1591C807.629 37.1591 808.08 37.2538 808.413 37.4432C808.75 37.6288 809.008 37.8409 809.186 38.0795C809.368 38.3144 809.508 38.5076 809.607 38.6591H809.743V37.2727H811.038V46.25C811.038 47 810.868 47.6098 810.527 48.0795C810.19 48.553 809.735 48.8996 809.163 49.1193C808.595 49.3428 807.963 49.4545 807.266 49.4545ZM807.22 44.6591C807.758 44.6591 808.213 44.536 808.584 44.2898C808.955 44.0436 809.237 43.6894 809.43 43.2273C809.624 42.7652 809.72 42.2121 809.72 41.5682C809.72 40.9394 809.625 40.3845 809.436 39.9034C809.247 39.4223 808.966 39.0455 808.595 38.7727C808.224 38.5 807.766 38.3636 807.22 38.3636C806.652 38.3636 806.179 38.5076 805.8 38.7955C805.425 39.0833 805.143 39.4697 804.953 39.9545C804.768 40.4394 804.675 40.9773 804.675 41.5682C804.675 42.1742 804.769 42.7102 804.959 43.1761C805.152 43.6383 805.436 44.0019 805.811 44.267C806.19 44.5284 806.66 44.6591 807.22 44.6591ZM813.493 46V37.2727H814.834V46H813.493ZM814.175 35.8182C813.913 35.8182 813.688 35.7292 813.499 35.5511C813.313 35.3731 813.22 35.1591 813.22 34.9091C813.22 34.6591 813.313 34.4451 813.499 34.267C813.688 34.089 813.913 34 814.175 34C814.436 34 814.66 34.089 814.845 34.267C815.035 34.4451 815.129 34.6591 815.129 34.9091C815.129 35.1591 815.035 35.3731 814.845 35.5511C814.66 35.7292 814.436 35.8182 814.175 35.8182ZM818.631 40.75V46H817.29V37.2727H818.585V38.6364H818.699C818.903 38.1932 819.214 37.8371 819.631 37.5682C820.047 37.2955 820.585 37.1591 821.244 37.1591C821.835 37.1591 822.352 37.2803 822.795 37.5227C823.239 37.7614 823.583 38.125 823.83 38.6136C824.076 39.0985 824.199 39.7121 824.199 40.4545V46H822.858V40.5455C822.858 39.8598 822.68 39.3258 822.324 38.9432C821.968 38.5568 821.479 38.3636 820.858 38.3636C820.43 38.3636 820.047 38.4564 819.71 38.642C819.377 38.8277 819.114 39.0985 818.92 39.4545C818.727 39.8106 818.631 40.2424 818.631 40.75ZM827.99 40.75V46H826.649V37.2727H827.945V38.6364H828.058C828.263 38.1932 828.573 37.8371 828.99 37.5682C829.407 37.2955 829.945 37.1591 830.604 37.1591C831.195 37.1591 831.712 37.2803 832.155 37.5227C832.598 37.7614 832.943 38.125 833.189 38.6136C833.435 39.0985 833.558 39.7121 833.558 40.4545V46H832.217V40.5455C832.217 39.8598 832.039 39.3258 831.683 38.9432C831.327 38.5568 830.839 38.3636 830.217 38.3636C829.789 38.3636 829.407 38.4564 829.07 38.642C828.736 38.8277 828.473 39.0985 828.28 39.4545C828.087 39.8106 827.99 40.2424 827.99 40.75ZM836.009 46V37.2727H837.349V46H836.009ZM836.69 35.8182C836.429 35.8182 836.204 35.7292 836.014 35.5511C835.829 35.3731 835.736 35.1591 835.736 34.9091C835.736 34.6591 835.829 34.4451 836.014 34.267C836.204 34.089 836.429 34 836.69 34C836.952 34 837.175 34.089 837.361 34.267C837.55 34.4451 837.645 34.6591 837.645 34.9091C837.645 35.1591 837.55 35.3731 837.361 35.5511C837.175 35.7292 836.952 35.8182 836.69 35.8182ZM841.146 40.75V46H839.805V37.2727H841.101V38.6364H841.214C841.419 38.1932 841.73 37.8371 842.146 37.5682C842.563 37.2955 843.101 37.1591 843.76 37.1591C844.351 37.1591 844.868 37.2803 845.311 37.5227C845.754 37.7614 846.099 38.125 846.345 38.6136C846.591 39.0985 846.714 39.7121 846.714 40.4545V46H845.374V40.5455C845.374 39.8598 845.196 39.3258 844.839 38.9432C844.483 38.5568 843.995 38.3636 843.374 38.3636C842.946 38.3636 842.563 38.4564 842.226 38.642C841.893 38.8277 841.629 39.0985 841.436 39.4545C841.243 39.8106 841.146 40.2424 841.146 40.75ZM852.688 49.4545C852.04 49.4545 851.483 49.3712 851.017 49.2045C850.551 49.0417 850.163 48.8258 849.852 48.5568C849.545 48.2917 849.301 48.0076 849.119 47.7045L850.188 46.9545C850.309 47.1136 850.462 47.2955 850.648 47.5C850.833 47.7083 851.087 47.8883 851.409 48.0398C851.735 48.1951 852.161 48.2727 852.688 48.2727C853.392 48.2727 853.973 48.1023 854.432 47.7614C854.89 47.4205 855.119 46.8864 855.119 46.1591V44.3864H855.006C854.907 44.5455 854.767 44.7424 854.585 44.9773C854.407 45.2083 854.15 45.4148 853.812 45.5966C853.479 45.7746 853.028 45.8636 852.46 45.8636C851.756 45.8636 851.123 45.697 850.562 45.3636C850.006 45.0303 849.564 44.5455 849.239 43.9091C848.917 43.2727 848.756 42.5 848.756 41.5909C848.756 40.697 848.913 39.9186 849.227 39.2557C849.542 38.589 849.979 38.0739 850.54 37.7102C851.1 37.3428 851.748 37.1591 852.483 37.1591C853.051 37.1591 853.502 37.2538 853.835 37.4432C854.172 37.6288 854.43 37.8409 854.608 38.0795C854.79 38.3144 854.93 38.5076 855.028 38.6591H855.165V37.2727H856.46V46.25C856.46 47 856.29 47.6098 855.949 48.0795C855.612 48.553 855.157 48.8996 854.585 49.1193C854.017 49.3428 853.384 49.4545 852.688 49.4545ZM852.642 44.6591C853.18 44.6591 853.634 44.536 854.006 44.2898C854.377 44.0436 854.659 43.6894 854.852 43.2273C855.045 42.7652 855.142 42.2121 855.142 41.5682C855.142 40.9394 855.047 40.3845 854.858 39.9034C854.669 39.4223 854.388 39.0455 854.017 38.7727C853.646 38.5 853.188 38.3636 852.642 38.3636C852.074 38.3636 851.6 38.5076 851.222 38.7955C850.847 39.0833 850.564 39.4697 850.375 39.9545C850.189 40.4394 850.097 40.9773 850.097 41.5682C850.097 42.1742 850.191 42.7102 850.381 43.1761C850.574 43.6383 850.858 44.0019 851.233 44.267C851.612 44.5284 852.081 44.6591 852.642 44.6591ZM867.528 33.8182L863.778 47.75H862.551L866.301 33.8182H867.528ZM877.277 46.1818C876.436 46.1818 875.711 45.9962 875.101 45.625C874.495 45.25 874.027 44.7273 873.697 44.0568C873.372 43.3826 873.209 42.5985 873.209 41.7045C873.209 40.8106 873.372 40.0227 873.697 39.3409C874.027 38.6553 874.485 38.1212 875.072 37.7386C875.663 37.3523 876.353 37.1591 877.141 37.1591C877.595 37.1591 878.044 37.2348 878.487 37.3864C878.93 37.5379 879.334 37.7841 879.697 38.125C880.061 38.4621 880.351 38.9091 880.567 39.4659C880.783 40.0227 880.891 40.7083 880.891 41.5227V42.0909H874.163V40.9318H879.527C879.527 40.4394 879.429 40 879.232 39.6136C879.038 39.2273 878.762 38.9223 878.402 38.6989C878.046 38.4754 877.625 38.3636 877.141 38.3636C876.607 38.3636 876.144 38.4962 875.754 38.7614C875.368 39.0227 875.071 39.3636 874.862 39.7841C874.654 40.2045 874.55 40.6553 874.55 41.1364V41.9091C874.55 42.5682 874.663 43.1269 874.891 43.5852C875.122 44.0398 875.442 44.3864 875.851 44.625C876.26 44.8598 876.735 44.9773 877.277 44.9773C877.629 44.9773 877.947 44.928 878.232 44.8295C878.519 44.7273 878.768 44.5758 878.976 44.375C879.184 44.1705 879.345 43.9167 879.459 43.6136L880.754 43.9773C880.618 44.4167 880.389 44.803 880.067 45.1364C879.745 45.4659 879.347 45.7235 878.874 45.9091C878.4 46.0909 877.868 46.1818 877.277 46.1818ZM884.271 40.75V46H882.93V37.2727H884.226V38.6364H884.339C884.544 38.1932 884.855 37.8371 885.271 37.5682C885.688 37.2955 886.226 37.1591 886.885 37.1591C887.476 37.1591 887.993 37.2803 888.436 37.5227C888.879 37.7614 889.224 38.125 889.47 38.6136C889.716 39.0985 889.839 39.7121 889.839 40.4545V46H888.499V40.5455C888.499 39.8598 888.321 39.3258 887.964 38.9432C887.608 38.5568 887.12 38.3636 886.499 38.3636C886.071 38.3636 885.688 38.4564 885.351 38.642C885.018 38.8277 884.754 39.0985 884.561 39.4545C884.368 39.8106 884.271 40.2424 884.271 40.75ZM895.585 46.1818C894.858 46.1818 894.216 45.9981 893.659 45.6307C893.102 45.2595 892.667 44.7367 892.352 44.0625C892.038 43.3845 891.881 42.5833 891.881 41.6591C891.881 40.7424 892.038 39.947 892.352 39.2727C892.667 38.5985 893.104 38.0777 893.665 37.7102C894.225 37.3428 894.873 37.1591 895.608 37.1591C896.176 37.1591 896.625 37.2538 896.955 37.4432C897.288 37.6288 897.542 37.8409 897.716 38.0795C897.894 38.3144 898.032 38.5076 898.131 38.6591H898.244V34.3636H899.585V46H898.29V44.6591H898.131C898.032 44.8182 897.892 45.0189 897.71 45.2614C897.528 45.5 897.269 45.714 896.932 45.9034C896.595 46.089 896.146 46.1818 895.585 46.1818ZM895.767 44.9773C896.305 44.9773 896.759 44.8371 897.131 44.5568C897.502 44.2727 897.784 43.8807 897.977 43.3807C898.17 42.8769 898.267 42.2955 898.267 41.6364C898.267 40.9848 898.172 40.4148 897.983 39.9261C897.794 39.4337 897.513 39.0511 897.142 38.7784C896.771 38.5019 896.313 38.3636 895.767 38.3636C895.199 38.3636 894.725 38.5095 894.347 38.8011C893.972 39.089 893.689 39.4811 893.5 39.9773C893.314 40.4697 893.222 41.0227 893.222 41.6364C893.222 42.2576 893.316 42.822 893.506 43.3295C893.699 43.8333 893.983 44.2348 894.358 44.5341C894.737 44.8295 895.206 44.9773 895.767 44.9773ZM910.273 46.1818C909.485 46.1818 908.794 45.9943 908.199 45.6193C907.608 45.2443 907.146 44.7197 906.812 44.0455C906.483 43.3712 906.318 42.5833 906.318 41.6818C906.318 40.7727 906.483 39.9792 906.812 39.3011C907.146 38.6231 907.608 38.0966 908.199 37.7216C908.794 37.3466 909.485 37.1591 910.273 37.1591C911.061 37.1591 911.75 37.3466 912.341 37.7216C912.936 38.0966 913.398 38.6231 913.727 39.3011C914.061 39.9792 914.227 40.7727 914.227 41.6818C914.227 42.5833 914.061 43.3712 913.727 44.0455C913.398 44.7197 912.936 45.2443 912.341 45.6193C911.75 45.9943 911.061 46.1818 910.273 46.1818ZM910.273 44.9773C910.871 44.9773 911.364 44.8239 911.75 44.517C912.136 44.2102 912.422 43.8068 912.608 43.3068C912.794 42.8068 912.886 42.2652 912.886 41.6818C912.886 41.0985 912.794 40.5549 912.608 40.0511C912.422 39.5473 912.136 39.1402 911.75 38.8295C911.364 38.5189 910.871 38.3636 910.273 38.3636C909.674 38.3636 909.182 38.5189 908.795 38.8295C908.409 39.1402 908.123 39.5473 907.938 40.0511C907.752 40.5549 907.659 41.0985 907.659 41.6818C907.659 42.2652 907.752 42.8068 907.938 43.3068C908.123 43.8068 908.409 44.2102 908.795 44.517C909.182 44.8239 909.674 44.9773 910.273 44.9773ZM920.161 37.2727V38.4091H915.456V37.2727H920.161ZM916.865 46V36.0682C916.865 35.5682 916.982 35.1515 917.217 34.8182C917.452 34.4848 917.757 34.2348 918.132 34.0682C918.507 33.9015 918.903 33.8182 919.32 33.8182C919.649 33.8182 919.918 33.8447 920.126 33.8977C920.335 33.9508 920.49 34 920.592 34.0455L920.206 35.2045C920.138 35.1818 920.043 35.1534 919.922 35.1193C919.804 35.0852 919.649 35.0682 919.456 35.0682C919.013 35.0682 918.693 35.1799 918.496 35.4034C918.303 35.6269 918.206 35.9545 918.206 36.3864V46H916.865ZM930.335 37.2727V38.4091H925.812V37.2727H930.335ZM927.131 35.1818H928.472V43.5C928.472 43.8788 928.527 44.1629 928.636 44.3523C928.75 44.5379 928.894 44.6629 929.068 44.7273C929.246 44.7879 929.434 44.8182 929.631 44.8182C929.778 44.8182 929.9 44.8106 929.994 44.7955C930.089 44.7765 930.165 44.7614 930.222 44.75L930.494 45.9545C930.403 45.9886 930.277 46.0227 930.114 46.0568C929.951 46.0947 929.744 46.1136 929.494 46.1136C929.116 46.1136 928.744 46.0322 928.381 45.8693C928.021 45.7064 927.722 45.4583 927.483 45.125C927.248 44.7917 927.131 44.3712 927.131 43.8636V35.1818ZM933.881 40.75V46H932.54V34.3636H933.881V38.6364H933.994C934.199 38.1856 934.506 37.8277 934.915 37.5625C935.328 37.2936 935.877 37.1591 936.562 37.1591C937.157 37.1591 937.678 37.2784 938.125 37.517C938.572 37.7519 938.919 38.1136 939.165 38.6023C939.415 39.0871 939.54 39.7045 939.54 40.4545V46H938.199V40.5455C938.199 39.8523 938.019 39.3163 937.659 38.9375C937.303 38.5549 936.809 38.3636 936.176 38.3636C935.737 38.3636 935.343 38.4564 934.994 38.642C934.65 38.8277 934.377 39.0985 934.176 39.4545C933.979 39.8106 933.881 40.2424 933.881 40.75ZM945.652 46.1818C944.811 46.1818 944.086 45.9962 943.476 45.625C942.87 45.25 942.402 44.7273 942.072 44.0568C941.747 43.3826 941.584 42.5985 941.584 41.7045C941.584 40.8106 941.747 40.0227 942.072 39.3409C942.402 38.6553 942.86 38.1212 943.447 37.7386C944.038 37.3523 944.728 37.1591 945.516 37.1591C945.97 37.1591 946.419 37.2348 946.862 37.3864C947.305 37.5379 947.709 37.7841 948.072 38.125C948.436 38.4621 948.726 38.9091 948.942 39.4659C949.158 40.0227 949.266 40.7083 949.266 41.5227V42.0909H942.538V40.9318H947.902C947.902 40.4394 947.804 40 947.607 39.6136C947.413 39.2273 947.137 38.9223 946.777 38.6989C946.421 38.4754 946 38.3636 945.516 38.3636C944.982 38.3636 944.519 38.4962 944.129 38.7614C943.743 39.0227 943.446 39.3636 943.237 39.7841C943.029 40.2045 942.925 40.6553 942.925 41.1364V41.9091C942.925 42.5682 943.038 43.1269 943.266 43.5852C943.497 44.0398 943.817 44.3864 944.226 44.625C944.635 44.8598 945.11 44.9773 945.652 44.9773C946.004 44.9773 946.322 44.928 946.607 44.8295C946.894 44.7273 947.143 44.5758 947.351 44.375C947.559 44.1705 947.72 43.9167 947.834 43.6136L949.129 43.9773C948.993 44.4167 948.764 44.803 948.442 45.1364C948.12 45.4659 947.722 45.7235 947.249 45.9091C946.775 46.0909 946.243 46.1818 945.652 46.1818ZM959.601 37.2727V38.4091H955.078V37.2727H959.601ZM956.396 35.1818H957.737V43.5C957.737 43.8788 957.792 44.1629 957.902 44.3523C958.016 44.5379 958.16 44.6629 958.334 44.7273C958.512 44.7879 958.699 44.8182 958.896 44.8182C959.044 44.8182 959.165 44.8106 959.26 44.7955C959.355 44.7765 959.43 44.7614 959.487 44.75L959.76 45.9545C959.669 45.9886 959.542 46.0227 959.379 46.0568C959.216 46.0947 959.01 46.1136 958.76 46.1136C958.381 46.1136 958.01 46.0322 957.646 45.8693C957.286 45.7064 956.987 45.4583 956.749 45.125C956.514 44.7917 956.396 44.3712 956.396 43.8636V35.1818ZM965.183 46.1818C964.342 46.1818 963.617 45.9962 963.007 45.625C962.401 45.25 961.933 44.7273 961.604 44.0568C961.278 43.3826 961.115 42.5985 961.115 41.7045C961.115 40.8106 961.278 40.0227 961.604 39.3409C961.933 38.6553 962.392 38.1212 962.979 37.7386C963.57 37.3523 964.259 37.1591 965.047 37.1591C965.501 37.1591 965.95 37.2348 966.393 37.3864C966.837 37.5379 967.24 37.7841 967.604 38.125C967.967 38.4621 968.257 38.9091 968.473 39.4659C968.689 40.0227 968.797 40.7083 968.797 41.5227V42.0909H962.07V40.9318H967.433C967.433 40.4394 967.335 40 967.138 39.6136C966.945 39.2273 966.668 38.9223 966.308 38.6989C965.952 38.4754 965.532 38.3636 965.047 38.3636C964.513 38.3636 964.051 38.4962 963.661 38.7614C963.274 39.0227 962.977 39.3636 962.768 39.7841C962.56 40.2045 962.456 40.6553 962.456 41.1364V41.9091C962.456 42.5682 962.57 43.1269 962.797 43.5852C963.028 44.0398 963.348 44.3864 963.757 44.625C964.166 44.8598 964.642 44.9773 965.183 44.9773C965.536 44.9773 965.854 44.928 966.138 44.8295C966.426 44.7273 966.674 44.5758 966.882 44.375C967.09 44.1705 967.251 43.9167 967.365 43.6136L968.661 43.9773C968.524 44.4167 968.295 44.803 967.973 45.1364C967.651 45.4659 967.253 45.7235 966.78 45.9091C966.306 46.0909 965.774 46.1818 965.183 46.1818ZM971.602 37.2727L973.693 40.8409L975.784 37.2727H977.33L974.511 41.6364L977.33 46H975.784L973.693 42.6136L971.602 46H970.057L972.83 41.6364L970.057 37.2727H971.602ZM983.038 37.2727V38.4091H978.516V37.2727H983.038ZM979.834 35.1818H981.175V43.5C981.175 43.8788 981.23 44.1629 981.339 44.3523C981.453 44.5379 981.597 44.6629 981.771 44.7273C981.949 44.7879 982.137 44.8182 982.334 44.8182C982.482 44.8182 982.603 44.8106 982.697 44.7955C982.792 44.7765 982.868 44.7614 982.925 44.75L983.197 45.9545C983.107 45.9886 982.98 46.0227 982.817 46.0568C982.654 46.0947 982.447 46.1136 982.197 46.1136C981.819 46.1136 981.447 46.0322 981.084 45.8693C980.724 45.7064 980.425 45.4583 980.186 45.125C979.951 44.7917 979.834 44.3712 979.834 43.8636V35.1818ZM993.442 37.2727V38.4091H988.737V37.2727H993.442ZM990.146 46V36.0682C990.146 35.5682 990.264 35.1515 990.499 34.8182C990.733 34.4848 991.038 34.2348 991.413 34.0682C991.788 33.9015 992.184 33.8182 992.601 33.8182C992.93 33.8182 993.199 33.8447 993.408 33.8977C993.616 33.9508 993.771 34 993.874 34.0455L993.487 35.2045C993.419 35.1818 993.324 35.1534 993.203 35.1193C993.086 35.0852 992.93 35.0682 992.737 35.0682C992.294 35.0682 991.974 35.1799 991.777 35.4034C991.584 35.6269 991.487 35.9545 991.487 36.3864V46H990.146ZM995.321 46V37.2727H996.662V46H995.321ZM996.003 35.8182C995.741 35.8182 995.516 35.7292 995.327 35.5511C995.141 35.3731 995.048 35.1591 995.048 34.9091C995.048 34.6591 995.141 34.4451 995.327 34.267C995.516 34.089 995.741 34 996.003 34C996.264 34 996.488 34.089 996.673 34.267C996.863 34.4451 996.957 34.6591 996.957 34.9091C996.957 35.1591 996.863 35.3731 996.673 35.5511C996.488 35.7292 996.264 35.8182 996.003 35.8182ZM1002.78 46.1818C1001.94 46.1818 1001.21 45.9962 1000.6 45.625C999.995 45.25 999.527 44.7273 999.197 44.0568C998.872 43.3826 998.709 42.5985 998.709 41.7045C998.709 40.8106 998.872 40.0227 999.197 39.3409C999.527 38.6553 999.985 38.1212 1000.57 37.7386C1001.16 37.3523 1001.85 37.1591 1002.64 37.1591C1003.1 37.1591 1003.54 37.2348 1003.99 37.3864C1004.43 37.5379 1004.83 37.7841 1005.2 38.125C1005.56 38.4621 1005.85 38.9091 1006.07 39.4659C1006.28 40.0227 1006.39 40.7083 1006.39 41.5227V42.0909H999.663V40.9318H1005.03C1005.03 40.4394 1004.93 40 1004.73 39.6136C1004.54 39.2273 1004.26 38.9223 1003.9 38.6989C1003.55 38.4754 1003.13 38.3636 1002.64 38.3636C1002.11 38.3636 1001.64 38.4962 1001.25 38.7614C1000.87 39.0227 1000.57 39.3636 1000.36 39.7841C1000.15 40.2045 1000.05 40.6553 1000.05 41.1364V41.9091C1000.05 42.5682 1000.16 43.1269 1000.39 43.5852C1000.62 44.0398 1000.94 44.3864 1001.35 44.625C1001.76 44.8598 1002.24 44.9773 1002.78 44.9773C1003.13 44.9773 1003.45 44.928 1003.73 44.8295C1004.02 44.7273 1004.27 44.5758 1004.48 44.375C1004.68 44.1705 1004.85 43.9167 1004.96 43.6136L1006.25 43.9773C1006.12 44.4167 1005.89 44.803 1005.57 45.1364C1005.24 45.4659 1004.85 45.7235 1004.37 45.9091C1003.9 46.0909 1003.37 46.1818 1002.78 46.1818ZM1009.77 34.3636V46H1008.43V34.3636H1009.77ZM1015.52 46.1818C1014.8 46.1818 1014.15 45.9981 1013.6 45.6307C1013.04 45.2595 1012.6 44.7367 1012.29 44.0625C1011.98 43.3845 1011.82 42.5833 1011.82 41.6591C1011.82 40.7424 1011.98 39.947 1012.29 39.2727C1012.6 38.5985 1013.04 38.0777 1013.6 37.7102C1014.16 37.3428 1014.81 37.1591 1015.55 37.1591C1016.11 37.1591 1016.56 37.2538 1016.89 37.4432C1017.23 37.6288 1017.48 37.8409 1017.65 38.0795C1017.83 38.3144 1017.97 38.5076 1018.07 38.6591H1018.18V34.3636H1019.52V46H1018.23V44.6591H1018.07C1017.97 44.8182 1017.83 45.0189 1017.65 45.2614C1017.47 45.5 1017.21 45.714 1016.87 45.9034C1016.53 46.089 1016.08 46.1818 1015.52 46.1818ZM1015.7 44.9773C1016.24 44.9773 1016.7 44.8371 1017.07 44.5568C1017.44 44.2727 1017.72 43.8807 1017.91 43.3807C1018.11 42.8769 1018.2 42.2955 1018.2 41.6364C1018.2 40.9848 1018.11 40.4148 1017.92 39.9261C1017.73 39.4337 1017.45 39.0511 1017.08 38.7784C1016.71 38.5019 1016.25 38.3636 1015.7 38.3636C1015.14 38.3636 1014.66 38.5095 1014.28 38.8011C1013.91 39.089 1013.63 39.4811 1013.44 39.9773C1013.25 40.4697 1013.16 41.0227 1013.16 41.6364C1013.16 42.2576 1013.25 42.822 1013.44 43.3295C1013.64 43.8333 1013.92 44.2348 1014.3 44.5341C1014.67 44.8295 1015.14 44.9773 1015.7 44.9773Z" fill="white" fill-opacity="0.95"/>
</svg>
