<svg width="1150" height="56" viewBox="0 0 1150 56" fill="none" xmlns="http://www.w3.org/2000/svg">
<mask id="path-1-inside-1_1437_19853" fill="white">
<path d="M0 0H250V56H0V0Z"/>
</mask>
<path d="M0 0H250V56H0V0Z" fill="#262626"/>
<path d="M250 56V57H251V56H250ZM249 0V56H251V0H249ZM250 55H0V57H250V55Z" fill="#707070" mask="url(#path-1-inside-1_1437_19853)"/>
<path d="M31.2642 35V20.4545H41.0653V22.9901H34.3395V26.456H40.5611V28.9915H34.3395V32.4645H41.0938V35H31.2642ZM46.479 20.4545V35H43.4535V20.4545H46.479ZM53.8743 35.2131C52.7521 35.2131 51.7862 34.9858 50.9766 34.5312C50.1716 34.072 49.5514 33.4233 49.1158 32.5852C48.6802 31.7424 48.4624 30.7457 48.4624 29.5952C48.4624 28.473 48.6802 27.4882 49.1158 26.6406C49.5514 25.7931 50.1645 25.1326 50.9553 24.6591C51.7507 24.1856 52.6835 23.9489 53.7536 23.9489C54.4732 23.9489 55.1432 24.0649 55.7635 24.2969C56.3885 24.5241 56.933 24.8674 57.397 25.3267C57.8658 25.786 58.2304 26.3636 58.4908 27.0597C58.7512 27.7509 58.8814 28.5606 58.8814 29.4886V30.3196H49.6697V28.4446H56.0334C56.0334 28.009 55.9387 27.6231 55.7493 27.2869C55.5599 26.9508 55.2971 26.688 54.9609 26.4986C54.6295 26.3045 54.2436 26.2074 53.8033 26.2074C53.344 26.2074 52.9368 26.3139 52.5817 26.527C52.2313 26.7353 51.9567 27.017 51.7578 27.3722C51.5589 27.7225 51.4571 28.1132 51.4524 28.544V30.3267C51.4524 30.8665 51.5518 31.3329 51.7507 31.7259C51.9543 32.1188 52.2408 32.4219 52.6101 32.6349C52.9794 32.848 53.4174 32.9545 53.924 32.9545C54.2602 32.9545 54.5679 32.9072 54.8473 32.8125C55.1267 32.7178 55.3658 32.5758 55.5646 32.3864C55.7635 32.197 55.915 31.965 56.0192 31.6903L58.8175 31.875C58.6754 32.5473 58.3842 33.1345 57.9439 33.6364C57.5083 34.1335 56.9448 34.5218 56.2536 34.8011C55.567 35.0758 54.7739 35.2131 53.8743 35.2131ZM60.8558 35V24.0909H63.7393V26.0156H63.8672C64.0945 25.3764 64.4732 24.8722 65.0036 24.5028C65.5339 24.1335 66.1683 23.9489 66.907 23.9489C67.6551 23.9489 68.2919 24.1359 68.8175 24.5099C69.343 24.8793 69.6934 25.3812 69.8686 26.0156H69.9822C70.2048 25.3906 70.6072 24.8911 71.1896 24.517C71.7768 24.1383 72.4704 23.9489 73.2706 23.9489C74.2886 23.9489 75.1148 24.2732 75.7493 24.9219C76.3885 25.5658 76.7081 26.4796 76.7081 27.6634V35H73.6896V28.2599C73.6896 27.6539 73.5286 27.1993 73.2067 26.8963C72.8847 26.5933 72.4822 26.4418 71.9993 26.4418C71.45 26.4418 71.0215 26.617 70.7138 26.9673C70.406 27.313 70.2521 27.7699 70.2521 28.3381V35H67.3189V28.196C67.3189 27.661 67.165 27.2348 66.8572 26.9176C66.5542 26.6004 66.1541 26.4418 65.657 26.4418C65.3208 26.4418 65.0178 26.527 64.7479 26.6974C64.4827 26.8632 64.272 27.0975 64.1158 27.4006C63.9595 27.6989 63.8814 28.0492 63.8814 28.4517V35H60.8558ZM84.0696 35.2131C82.9474 35.2131 81.9815 34.9858 81.1719 34.5312C80.367 34.072 79.7467 33.4233 79.3111 32.5852C78.8755 31.7424 78.6577 30.7457 78.6577 29.5952C78.6577 28.473 78.8755 27.4882 79.3111 26.6406C79.7467 25.7931 80.3598 25.1326 81.1506 24.6591C81.946 24.1856 82.8788 23.9489 83.9489 23.9489C84.6686 23.9489 85.3385 24.0649 85.9588 24.2969C86.5838 24.5241 87.1283 24.8674 87.5923 25.3267C88.0611 25.786 88.4257 26.3636 88.6861 27.0597C88.9465 27.7509 89.0767 28.5606 89.0767 29.4886V30.3196H79.8651V28.4446H86.2287C86.2287 28.009 86.134 27.6231 85.9446 27.2869C85.7552 26.9508 85.4924 26.688 85.1562 26.4986C84.8248 26.3045 84.4389 26.2074 83.9986 26.2074C83.5393 26.2074 83.1321 26.3139 82.777 26.527C82.4266 26.7353 82.152 27.017 81.9531 27.3722C81.7543 27.7225 81.6525 28.1132 81.6477 28.544V30.3267C81.6477 30.8665 81.7472 31.3329 81.946 31.7259C82.1496 32.1188 82.4361 32.4219 82.8054 32.6349C83.1747 32.848 83.6127 32.9545 84.1193 32.9545C84.4555 32.9545 84.7633 32.9072 85.0426 32.8125C85.322 32.7178 85.5611 32.5758 85.7599 32.3864C85.9588 32.197 86.1103 31.965 86.2145 31.6903L89.0128 31.875C88.8707 32.5473 88.5795 33.1345 88.1392 33.6364C87.7036 34.1335 87.1402 34.5218 86.4489 34.8011C85.7623 35.0758 84.9692 35.2131 84.0696 35.2131ZM94.0767 28.6932V35H91.0511V24.0909H93.9347V26.0156H94.0625C94.304 25.3812 94.7088 24.8793 95.277 24.5099C95.8452 24.1359 96.5341 23.9489 97.3438 23.9489C98.1013 23.9489 98.7618 24.1146 99.3253 24.446C99.8887 24.7775 100.327 25.2509 100.639 25.8665C100.952 26.4773 101.108 27.2064 101.108 28.054V35H98.0824V28.5938C98.0871 27.9261 97.9167 27.4053 97.571 27.0312C97.2254 26.6525 96.7495 26.4631 96.1435 26.4631C95.7363 26.4631 95.3764 26.5507 95.0639 26.7259C94.7562 26.901 94.5147 27.1567 94.3395 27.4929C94.169 27.8243 94.0814 28.2244 94.0767 28.6932ZM109.295 24.0909V26.3636H102.725V24.0909H109.295ZM104.217 21.4773H107.243V31.6477C107.243 31.9271 107.285 32.1449 107.37 32.3011C107.456 32.4527 107.574 32.5592 107.725 32.6207C107.882 32.6823 108.062 32.7131 108.265 32.7131C108.407 32.7131 108.549 32.7012 108.691 32.6776C108.833 32.6491 108.942 32.6278 109.018 32.6136L109.494 34.8651C109.342 34.9124 109.129 34.9669 108.855 35.0284C108.58 35.0947 108.246 35.1349 107.853 35.1491C107.124 35.1776 106.485 35.0805 105.936 34.858C105.391 34.6354 104.967 34.2898 104.664 33.821C104.361 33.3523 104.212 32.7604 104.217 32.0455V21.4773Z" fill="white" fill-opacity="0.95"/>
<mask id="path-4-inside-2_1437_19853" fill="white">
<path d="M250 0H450V56H250V0Z"/>
</mask>
<path d="M250 0H450V56H250V0Z" fill="#262626"/>
<path d="M450 56V57H451V56H450ZM449 0V56H451V0H449ZM450 55H250V57H450V55Z" fill="#707070" mask="url(#path-4-inside-2_1437_19853)"/>
<path d="M293.43 20.4545V35H290.774L284.446 25.8452H284.339V35H281.264V20.4545H283.963L290.241 29.6023H290.369V20.4545H293.43ZM299.025 35.206C298.329 35.206 297.709 35.0852 297.164 34.8438C296.62 34.5975 296.189 34.2353 295.872 33.7571C295.559 33.2741 295.403 32.6728 295.403 31.9531C295.403 31.3471 295.514 30.8381 295.737 30.4261C295.959 30.0142 296.262 29.6828 296.646 29.4318C297.029 29.1809 297.465 28.9915 297.953 28.8636C298.445 28.7358 298.961 28.6458 299.501 28.5938C300.136 28.5275 300.647 28.4659 301.035 28.4091C301.423 28.3475 301.705 28.2576 301.88 28.1392C302.056 28.0208 302.143 27.8456 302.143 27.6136V27.571C302.143 27.1212 302.001 26.7732 301.717 26.527C301.438 26.2808 301.04 26.1577 300.524 26.1577C299.979 26.1577 299.546 26.2784 299.224 26.5199C298.902 26.7566 298.689 27.0549 298.585 27.4148L295.787 27.1875C295.929 26.5246 296.208 25.9517 296.625 25.4688C297.041 24.9811 297.579 24.607 298.237 24.3466C298.9 24.0814 299.667 23.9489 300.538 23.9489C301.144 23.9489 301.724 24.0199 302.278 24.1619C302.837 24.304 303.332 24.5241 303.762 24.8224C304.198 25.1207 304.541 25.5043 304.792 25.973C305.043 26.437 305.169 26.9934 305.169 27.642V35H302.299V33.4872H302.214C302.039 33.8281 301.805 34.1288 301.511 34.3892C301.217 34.6449 300.865 34.8461 300.453 34.9929C300.041 35.1349 299.565 35.206 299.025 35.206ZM299.892 33.1179C300.337 33.1179 300.73 33.0303 301.071 32.8551C301.412 32.6752 301.679 32.4337 301.873 32.1307C302.067 31.8277 302.164 31.4844 302.164 31.1009V29.9432C302.07 30.0047 301.94 30.0616 301.774 30.1136C301.613 30.161 301.431 30.206 301.227 30.2486C301.023 30.2865 300.82 30.322 300.616 30.3551C300.413 30.3835 300.228 30.4096 300.062 30.4332C299.707 30.4853 299.397 30.5682 299.132 30.6818C298.867 30.7955 298.661 30.9493 298.514 31.1435C298.367 31.3329 298.294 31.5696 298.294 31.8537C298.294 32.2656 298.443 32.5805 298.741 32.7983C299.044 33.0114 299.428 33.1179 299.892 33.1179ZM307.516 35V24.0909H310.4V26.0156H310.527C310.755 25.3764 311.133 24.8722 311.664 24.5028C312.194 24.1335 312.828 23.9489 313.567 23.9489C314.315 23.9489 314.952 24.1359 315.478 24.5099C316.003 24.8793 316.354 25.3812 316.529 26.0156H316.642C316.865 25.3906 317.267 24.8911 317.85 24.517C318.437 24.1383 319.131 23.9489 319.931 23.9489C320.949 23.9489 321.775 24.2732 322.409 24.9219C323.049 25.5658 323.368 26.4796 323.368 27.6634V35H320.35V28.2599C320.35 27.6539 320.189 27.1993 319.867 26.8963C319.545 26.5933 319.142 26.4418 318.659 26.4418C318.11 26.4418 317.682 26.617 317.374 26.9673C317.066 27.313 316.912 27.7699 316.912 28.3381V35H313.979V28.196C313.979 27.661 313.825 27.2348 313.517 26.9176C313.214 26.6004 312.814 26.4418 312.317 26.4418C311.981 26.4418 311.678 26.527 311.408 26.6974C311.143 26.8632 310.932 27.0975 310.776 27.4006C310.62 27.6989 310.542 28.0492 310.542 28.4517V35H307.516ZM330.73 35.2131C329.608 35.2131 328.642 34.9858 327.832 34.5312C327.027 34.072 326.407 33.4233 325.971 32.5852C325.536 31.7424 325.318 30.7457 325.318 29.5952C325.318 28.473 325.536 27.4882 325.971 26.6406C326.407 25.7931 327.02 25.1326 327.811 24.6591C328.606 24.1856 329.539 23.9489 330.609 23.9489C331.329 23.9489 331.999 24.0649 332.619 24.2969C333.244 24.5241 333.788 24.8674 334.252 25.3267C334.721 25.786 335.086 26.3636 335.346 27.0597C335.607 27.7509 335.737 28.5606 335.737 29.4886V30.3196H326.525V28.4446H332.889C332.889 28.009 332.794 27.6231 332.605 27.2869C332.415 26.9508 332.153 26.688 331.816 26.4986C331.485 26.3045 331.099 26.2074 330.659 26.2074C330.199 26.2074 329.792 26.3139 329.437 26.527C329.087 26.7353 328.812 27.017 328.613 27.3722C328.414 27.7225 328.313 28.1132 328.308 28.544V30.3267C328.308 30.8665 328.407 31.3329 328.606 31.7259C328.81 32.1188 329.096 32.4219 329.466 32.6349C329.835 32.848 330.273 32.9545 330.779 32.9545C331.116 32.9545 331.423 32.9072 331.703 32.8125C331.982 32.7178 332.221 32.5758 332.42 32.3864C332.619 32.197 332.77 31.965 332.875 31.6903L335.673 31.875C335.531 32.5473 335.24 33.1345 334.799 33.6364C334.364 34.1335 333.8 34.5218 333.109 34.8011C332.422 35.0758 331.629 35.2131 330.73 35.2131Z" fill="white" fill-opacity="0.95"/>
<mask id="path-7-inside-3_1437_19853" fill="white">
<path d="M450 0H650V56H450V0Z"/>
</mask>
<path d="M450 0H650V56H450V0Z" fill="#262626"/>
<path d="M650 56V57H651V56H650ZM649 0V56H651V0H649ZM650 55H450V57H650V55Z" fill="#707070" mask="url(#path-7-inside-3_1437_19853)"/>
<path d="M489.155 24.6378C489.098 24.0649 488.854 23.6198 488.423 23.3026C487.992 22.9853 487.408 22.8267 486.669 22.8267C486.167 22.8267 485.743 22.8977 485.398 23.0398C485.052 23.1771 484.787 23.3688 484.602 23.6151C484.422 23.8613 484.332 24.1406 484.332 24.4531C484.323 24.7135 484.377 24.9408 484.496 25.1349C484.619 25.3291 484.787 25.4972 485 25.6392C485.213 25.7765 485.459 25.8973 485.739 26.0014C486.018 26.1009 486.316 26.1861 486.634 26.2571L487.94 26.5696C488.575 26.7116 489.157 26.901 489.688 27.1378C490.218 27.3745 490.677 27.6657 491.065 28.0114C491.454 28.357 491.754 28.7642 491.967 29.233C492.185 29.7017 492.296 30.2391 492.301 30.8452C492.296 31.7353 492.069 32.5071 491.619 33.1605C491.174 33.8092 490.53 34.3134 489.688 34.6733C488.849 35.0284 487.839 35.206 486.655 35.206C485.481 35.206 484.458 35.026 483.587 34.6662C482.72 34.3063 482.043 33.7737 481.555 33.0682C481.072 32.358 480.819 31.4796 480.795 30.4332H483.771C483.804 30.9209 483.944 31.3281 484.19 31.6548C484.441 31.9768 484.775 32.2206 485.192 32.3864C485.613 32.5473 486.089 32.6278 486.619 32.6278C487.14 32.6278 487.592 32.5521 487.976 32.4006C488.364 32.2491 488.665 32.0384 488.878 31.7685C489.091 31.4986 489.197 31.1884 489.197 30.8381C489.197 30.5114 489.1 30.2367 488.906 30.0142C488.717 29.7917 488.438 29.6023 488.068 29.446C487.704 29.2898 487.256 29.1477 486.726 29.0199L485.142 28.6222C483.916 28.3239 482.947 27.8575 482.237 27.223C481.527 26.5885 481.174 25.7339 481.179 24.6591C481.174 23.7784 481.409 23.009 481.882 22.3509C482.36 21.6927 483.016 21.179 483.849 20.8097C484.683 20.4403 485.63 20.2557 486.69 20.2557C487.77 20.2557 488.712 20.4403 489.517 20.8097C490.327 21.179 490.956 21.6927 491.406 22.3509C491.856 23.009 492.088 23.7713 492.102 24.6378H489.155ZM500.115 24.0909V26.3636H493.546V24.0909H500.115ZM495.037 21.4773H498.063V31.6477C498.063 31.9271 498.105 32.1449 498.191 32.3011C498.276 32.4527 498.394 32.5592 498.546 32.6207C498.702 32.6823 498.882 32.7131 499.086 32.7131C499.228 32.7131 499.37 32.7012 499.512 32.6776C499.654 32.6491 499.763 32.6278 499.838 32.6136L500.314 34.8651C500.163 34.9124 499.95 34.9669 499.675 35.0284C499.4 35.0947 499.067 35.1349 498.674 35.1491C497.944 35.1776 497.305 35.0805 496.756 34.858C496.212 34.6354 495.788 34.2898 495.485 33.821C495.182 33.3523 495.033 32.7604 495.037 32.0455V21.4773ZM505.197 35.206C504.501 35.206 503.881 35.0852 503.336 34.8438C502.792 34.5975 502.361 34.2353 502.044 33.7571C501.731 33.2741 501.575 32.6728 501.575 31.9531C501.575 31.3471 501.686 30.8381 501.909 30.4261C502.131 30.0142 502.434 29.6828 502.818 29.4318C503.201 29.1809 503.637 28.9915 504.125 28.8636C504.617 28.7358 505.133 28.6458 505.673 28.5938C506.307 28.5275 506.819 28.4659 507.207 28.4091C507.595 28.3475 507.877 28.2576 508.052 28.1392C508.227 28.0208 508.315 27.8456 508.315 27.6136V27.571C508.315 27.1212 508.173 26.7732 507.889 26.527C507.609 26.2808 507.212 26.1577 506.696 26.1577C506.151 26.1577 505.718 26.2784 505.396 26.5199C505.074 26.7566 504.861 27.0549 504.757 27.4148L501.958 27.1875C502.1 26.5246 502.38 25.9517 502.797 25.4688C503.213 24.9811 503.751 24.607 504.409 24.3466C505.072 24.0814 505.839 23.9489 506.71 23.9489C507.316 23.9489 507.896 24.0199 508.45 24.1619C509.009 24.304 509.503 24.5241 509.934 24.8224C510.37 25.1207 510.713 25.5043 510.964 25.973C511.215 26.437 511.341 26.9934 511.341 27.642V35H508.471V33.4872H508.386C508.211 33.8281 507.976 34.1288 507.683 34.3892C507.389 34.6449 507.037 34.8461 506.625 34.9929C506.213 35.1349 505.737 35.206 505.197 35.206ZM506.064 33.1179C506.509 33.1179 506.902 33.0303 507.243 32.8551C507.583 32.6752 507.851 32.4337 508.045 32.1307C508.239 31.8277 508.336 31.4844 508.336 31.1009V29.9432C508.242 30.0047 508.111 30.0616 507.946 30.1136C507.785 30.161 507.602 30.206 507.399 30.2486C507.195 30.2865 506.992 30.322 506.788 30.3551C506.584 30.3835 506.4 30.4096 506.234 30.4332C505.879 30.4853 505.569 30.5682 505.304 30.6818C505.038 30.7955 504.833 30.9493 504.686 31.1435C504.539 31.3329 504.466 31.5696 504.466 31.8537C504.466 32.2656 504.615 32.5805 504.913 32.7983C505.216 33.0114 505.6 33.1179 506.064 33.1179ZM519.49 24.0909V26.3636H512.921V24.0909H519.49ZM514.412 21.4773H517.438V31.6477C517.438 31.9271 517.48 32.1449 517.566 32.3011C517.651 32.4527 517.769 32.5592 517.921 32.6207C518.077 32.6823 518.257 32.7131 518.461 32.7131C518.603 32.7131 518.745 32.7012 518.887 32.6776C519.029 32.6491 519.138 32.6278 519.213 32.6136L519.689 34.8651C519.538 34.9124 519.325 34.9669 519.05 35.0284C518.775 35.0947 518.442 35.1349 518.049 35.1491C517.319 35.1776 516.68 35.0805 516.131 34.858C515.587 34.6354 515.163 34.2898 514.86 33.821C514.557 33.3523 514.408 32.7604 514.412 32.0455V21.4773ZM526.316 35.2131C525.194 35.2131 524.228 34.9858 523.418 34.5312C522.613 34.072 521.993 33.4233 521.557 32.5852C521.122 31.7424 520.904 30.7457 520.904 29.5952C520.904 28.473 521.122 27.4882 521.557 26.6406C521.993 25.7931 522.606 25.1326 523.397 24.6591C524.192 24.1856 525.125 23.9489 526.195 23.9489C526.915 23.9489 527.585 24.0649 528.205 24.2969C528.83 24.5241 529.374 24.8674 529.838 25.3267C530.307 25.786 530.672 26.3636 530.932 27.0597C531.193 27.7509 531.323 28.5606 531.323 29.4886V30.3196H522.111V28.4446H528.475C528.475 28.009 528.38 27.6231 528.191 27.2869C528.001 26.9508 527.739 26.688 527.402 26.4986C527.071 26.3045 526.685 26.2074 526.245 26.2074C525.785 26.2074 525.378 26.3139 525.023 26.527C524.673 26.7353 524.398 27.017 524.199 27.3722C524 27.7225 523.899 28.1132 523.894 28.544V30.3267C523.894 30.8665 523.993 31.3329 524.192 31.7259C524.396 32.1188 524.682 32.4219 525.051 32.6349C525.421 32.848 525.859 32.9545 526.365 32.9545C526.702 32.9545 527.009 32.9072 527.289 32.8125C527.568 32.7178 527.807 32.5758 528.006 32.3864C528.205 32.197 528.356 31.965 528.461 31.6903L531.259 31.875C531.117 32.5473 530.826 33.1345 530.385 33.6364C529.95 34.1335 529.386 34.5218 528.695 34.8011C528.008 35.0758 527.215 35.2131 526.316 35.2131Z" fill="white" fill-opacity="0.95"/>
<mask id="path-10-inside-4_1437_19853" fill="white">
<path d="M650 0H850V56H650V0Z"/>
</mask>
<path d="M650 0H850V56H650V0Z" fill="#262626"/>
<path d="M850 56V57H851V56H850ZM849 0V56H851V0H849ZM850 55H650V57H850V55Z" fill="#707070" mask="url(#path-10-inside-4_1437_19853)"/>
<path d="M689.155 24.6378C689.098 24.0649 688.854 23.6198 688.423 23.3026C687.992 22.9853 687.408 22.8267 686.669 22.8267C686.167 22.8267 685.743 22.8977 685.398 23.0398C685.052 23.1771 684.787 23.3688 684.602 23.6151C684.422 23.8613 684.332 24.1406 684.332 24.4531C684.323 24.7135 684.377 24.9408 684.496 25.1349C684.619 25.3291 684.787 25.4972 685 25.6392C685.213 25.7765 685.459 25.8973 685.739 26.0014C686.018 26.1009 686.316 26.1861 686.634 26.2571L687.94 26.5696C688.575 26.7116 689.157 26.901 689.688 27.1378C690.218 27.3745 690.677 27.6657 691.065 28.0114C691.454 28.357 691.754 28.7642 691.967 29.233C692.185 29.7017 692.296 30.2391 692.301 30.8452C692.296 31.7353 692.069 32.5071 691.619 33.1605C691.174 33.8092 690.53 34.3134 689.688 34.6733C688.849 35.0284 687.839 35.206 686.655 35.206C685.481 35.206 684.458 35.026 683.587 34.6662C682.72 34.3063 682.043 33.7737 681.555 33.0682C681.072 32.358 680.819 31.4796 680.795 30.4332H683.771C683.804 30.9209 683.944 31.3281 684.19 31.6548C684.441 31.9768 684.775 32.2206 685.192 32.3864C685.613 32.5473 686.089 32.6278 686.619 32.6278C687.14 32.6278 687.592 32.5521 687.976 32.4006C688.364 32.2491 688.665 32.0384 688.878 31.7685C689.091 31.4986 689.197 31.1884 689.197 30.8381C689.197 30.5114 689.1 30.2367 688.906 30.0142C688.717 29.7917 688.438 29.6023 688.068 29.446C687.704 29.2898 687.256 29.1477 686.726 29.0199L685.142 28.6222C683.916 28.3239 682.947 27.8575 682.237 27.223C681.527 26.5885 681.174 25.7339 681.179 24.6591C681.174 23.7784 681.409 23.009 681.882 22.3509C682.36 21.6927 683.016 21.179 683.849 20.8097C684.683 20.4403 685.63 20.2557 686.69 20.2557C687.77 20.2557 688.712 20.4403 689.517 20.8097C690.327 21.179 690.956 21.6927 691.406 22.3509C691.856 23.009 692.088 23.7713 692.102 24.6378H689.155ZM694.313 35V24.0909H697.338V35H694.313ZM695.84 22.6847C695.39 22.6847 695.004 22.5355 694.682 22.2372C694.36 21.9342 694.199 21.572 694.199 21.1506C694.199 20.7339 694.36 20.3764 694.682 20.0781C695.004 19.7751 695.388 19.6236 695.833 19.6236C696.287 19.6236 696.673 19.7751 696.99 20.0781C697.312 20.3764 697.473 20.7339 697.473 21.1506C697.473 21.572 697.312 21.9342 696.99 22.2372C696.673 22.5355 696.29 22.6847 695.84 22.6847ZM699.705 35V33.196L705.046 26.5838V26.5057H699.89V24.0909H708.69V26.0582L703.675 32.5071V32.5852H708.874V35H699.705ZM715.847 35.2131C714.725 35.2131 713.759 34.9858 712.949 34.5312C712.144 34.072 711.524 33.4233 711.088 32.5852C710.653 31.7424 710.435 30.7457 710.435 29.5952C710.435 28.473 710.653 27.4882 711.088 26.6406C711.524 25.7931 712.137 25.1326 712.928 24.6591C713.723 24.1856 714.656 23.9489 715.726 23.9489C716.446 23.9489 717.116 24.0649 717.736 24.2969C718.361 24.5241 718.906 24.8674 719.37 25.3267C719.838 25.786 720.203 26.3636 720.463 27.0597C720.724 27.7509 720.854 28.5606 720.854 29.4886V30.3196H711.642V28.4446H718.006C718.006 28.009 717.911 27.6231 717.722 27.2869C717.533 26.9508 717.27 26.688 716.934 26.4986C716.602 26.3045 716.216 26.2074 715.776 26.2074C715.317 26.2074 714.909 26.3139 714.554 26.527C714.204 26.7353 713.929 27.017 713.73 27.3722C713.532 27.7225 713.43 28.1132 713.425 28.544V30.3267C713.425 30.8665 713.525 31.3329 713.723 31.7259C713.927 32.1188 714.213 32.4219 714.583 32.6349C714.952 32.848 715.39 32.9545 715.897 32.9545C716.233 32.9545 716.541 32.9072 716.82 32.8125C717.099 32.7178 717.338 32.5758 717.537 32.3864C717.736 32.197 717.888 31.965 717.992 31.6903L720.79 31.875C720.648 32.5473 720.357 33.1345 719.917 33.6364C719.481 34.1335 718.917 34.5218 718.226 34.8011C717.54 35.0758 716.747 35.2131 715.847 35.2131Z" fill="white" fill-opacity="0.95"/>
<mask id="path-13-inside-5_1437_19853" fill="white">
<path d="M850 0H1150V56H850V0Z"/>
</mask>
<path d="M850 0H1150V56H850V0Z" fill="#262626"/>
<path d="M1150 55H850V57H1150V55Z" fill="#707070" mask="url(#path-13-inside-5_1437_19853)"/>
<path d="M880.71 22.9901V20.4545H892.656V22.9901H888.203V35H885.163V22.9901H880.71ZM897.914 35.2131C896.81 35.2131 895.856 34.9787 895.051 34.5099C894.251 34.0365 893.633 33.3783 893.198 32.5355C892.762 31.688 892.544 30.7055 892.544 29.5881C892.544 28.4612 892.762 27.4763 893.198 26.6335C893.633 25.786 894.251 25.1278 895.051 24.6591C895.856 24.1856 896.81 23.9489 897.914 23.9489C899.017 23.9489 899.969 24.1856 900.769 24.6591C901.574 25.1278 902.194 25.786 902.63 26.6335C903.065 27.4763 903.283 28.4612 903.283 29.5881C903.283 30.7055 903.065 31.688 902.63 32.5355C902.194 33.3783 901.574 34.0365 900.769 34.5099C899.969 34.9787 899.017 35.2131 897.914 35.2131ZM897.928 32.8693C898.43 32.8693 898.849 32.7273 899.185 32.4432C899.521 32.1544 899.775 31.7614 899.945 31.2642C900.12 30.767 900.208 30.2012 900.208 29.5668C900.208 28.9323 900.12 28.3665 899.945 27.8693C899.775 27.3722 899.521 26.9792 899.185 26.6903C898.849 26.4015 898.43 26.2571 897.928 26.2571C897.421 26.2571 896.995 26.4015 896.65 26.6903C896.309 26.9792 896.051 27.3722 895.875 27.8693C895.705 28.3665 895.62 28.9323 895.62 29.5668C895.62 30.2012 895.705 30.767 895.875 31.2642C896.051 31.7614 896.309 32.1544 896.65 32.4432C896.995 32.7273 897.421 32.8693 897.928 32.8693ZM907.992 31.8608L907.999 28.2315H908.439L911.934 24.0909H915.407L910.712 29.5739H909.995L907.992 31.8608ZM905.25 35V20.4545H908.276V35H905.25ZM912.069 35L908.858 30.2486L910.875 28.1108L915.613 35H912.069ZM921.413 35.2131C920.291 35.2131 919.325 34.9858 918.516 34.5312C917.711 34.072 917.09 33.4233 916.655 32.5852C916.219 31.7424 916.001 30.7457 916.001 29.5952C916.001 28.473 916.219 27.4882 916.655 26.6406C917.09 25.7931 917.704 25.1326 918.494 24.6591C919.29 24.1856 920.223 23.9489 921.293 23.9489C922.012 23.9489 922.682 24.0649 923.303 24.2969C923.928 24.5241 924.472 24.8674 924.936 25.3267C925.405 25.786 925.769 26.3636 926.03 27.0597C926.29 27.7509 926.42 28.5606 926.42 29.4886V30.3196H917.209V28.4446H923.572C923.572 28.009 923.478 27.6231 923.288 27.2869C923.099 26.9508 922.836 26.688 922.5 26.4986C922.169 26.3045 921.783 26.2074 921.342 26.2074C920.883 26.2074 920.476 26.3139 920.121 26.527C919.77 26.7353 919.496 27.017 919.297 27.3722C919.098 27.7225 918.996 28.1132 918.991 28.544V30.3267C918.991 30.8665 919.091 31.3329 919.29 31.7259C919.493 32.1188 919.78 32.4219 920.149 32.6349C920.518 32.848 920.956 32.9545 921.463 32.9545C921.799 32.9545 922.107 32.9072 922.386 32.8125C922.666 32.7178 922.905 32.5758 923.104 32.3864C923.303 32.197 923.454 31.965 923.558 31.6903L926.357 31.875C926.214 32.5473 925.923 33.1345 925.483 33.6364C925.047 34.1335 924.484 34.5218 923.793 34.8011C923.106 35.0758 922.313 35.2131 921.413 35.2131ZM931.42 28.6932V35H928.395V24.0909H931.278V26.0156H931.406C931.648 25.3812 932.053 24.8793 932.621 24.5099C933.189 24.1359 933.878 23.9489 934.688 23.9489C935.445 23.9489 936.106 24.1146 936.669 24.446C937.232 24.7775 937.67 25.2509 937.983 25.8665C938.295 26.4773 938.452 27.2064 938.452 28.054V35H935.426V28.5938C935.431 27.9261 935.26 27.4053 934.915 27.0312C934.569 26.6525 934.093 26.4631 933.487 26.4631C933.08 26.4631 932.72 26.5507 932.408 26.7259C932.1 26.901 931.858 27.1567 931.683 27.4929C931.513 27.8243 931.425 28.2244 931.42 28.6932Z" fill="white" fill-opacity="0.95"/>
</svg>
