<svg width="320" height="112" viewBox="0 0 320 112" fill="none" xmlns="http://www.w3.org/2000/svg">
<mask id="path-1-inside-1_1437_19618" fill="white">
<path d="M0 0H320V112H0V0Z"/>
</mask>
<path d="M0 0H320V112H0V0Z" fill="#1A1A1A"/>
<path d="M320 112V113H321V112H320ZM319 0V112H321V0H319ZM320 111H0V113H320V111Z" fill="white" fill-opacity="0.2" mask="url(#path-1-inside-1_1437_19618)"/>
<path d="M36.5 49C33.4624 49 31 51.4624 31 54.5C31 57.5376 33.4624 60 36.5 60C37.8388 60 39.0658 59.5217 40.0195 58.7266L44.1465 62.8536C44.3417 63.0488 44.6583 63.0488 44.8536 62.8536C45.0488 62.6583 45.0488 62.3417 44.8536 62.1464L40.7266 58.0195C41.5217 57.0658 42 55.8387 42 54.5C42 51.4624 39.5376 49 36.5 49ZM32 54.5C32 52.0147 34.0147 50 36.5 50C38.9853 50 41 52.0147 41 54.5C41 56.9853 38.9853 59 36.5 59C34.0147 59 32 56.9853 32 54.5Z" fill="white" fill-opacity="0.95"/>
</svg>
