<svg width="320" height="160" viewBox="0 0 320 160" fill="none" xmlns="http://www.w3.org/2000/svg">
<mask id="path-1-inside-1_1437_19636" fill="white">
<path d="M0 0H320V160H0V0Z"/>
</mask>
<path d="M0 0H320V160H0V0Z" fill="#1A1A1A"/>
<path d="M320 160V161H321V160H320ZM319 0V160H321V0H319ZM320 159H0V161H320V159Z" fill="#707070" mask="url(#path-1-inside-1_1437_19636)"/>
<path d="M31.233 85V74.8182H34.6733C35.4721 74.8182 36.125 74.9624 36.6321 75.2507C37.1425 75.5357 37.5204 75.9219 37.7656 76.4091C38.0109 76.8963 38.1335 77.4399 38.1335 78.0398C38.1335 78.6397 38.0109 79.1849 37.7656 79.6754C37.5237 80.166 37.1491 80.5571 36.642 80.8487C36.1349 81.1371 35.4853 81.2812 34.6932 81.2812H32.2273V80.1875H34.6534C35.2003 80.1875 35.6394 80.093 35.9709 79.9041C36.3023 79.7152 36.5426 79.46 36.6918 79.1385C36.8442 78.8137 36.9205 78.4474 36.9205 78.0398C36.9205 77.6321 36.8442 77.2675 36.6918 76.946C36.5426 76.6245 36.3007 76.3726 35.9659 76.1903C35.6312 76.0047 35.187 75.9119 34.6335 75.9119H32.4659V85H31.233ZM41.1339 74.8182V85H39.9606V74.8182H41.1339ZM45.53 85.179C45.0461 85.179 44.6069 85.0878 44.2125 84.9055C43.8181 84.7199 43.5049 84.4531 43.2729 84.1051C43.0409 83.7538 42.9249 83.3295 42.9249 82.8324C42.9249 82.3949 43.0111 82.0402 43.1834 81.7685C43.3558 81.4934 43.5861 81.2779 43.8745 81.1222C44.1628 80.9664 44.481 80.8504 44.829 80.7741C45.1803 80.6946 45.5333 80.6316 45.888 80.5852C46.352 80.5256 46.7282 80.4808 47.0165 80.451C47.3082 80.4179 47.5203 80.3632 47.6529 80.2869C47.7888 80.2107 47.8567 80.0781 47.8567 79.8892V79.8494C47.8567 79.3589 47.7225 78.9777 47.454 78.706C47.1889 78.4342 46.7862 78.2983 46.2459 78.2983C45.6858 78.2983 45.2466 78.4209 44.9284 78.6662C44.6103 78.9115 44.3865 79.1733 44.2573 79.4517L43.1436 79.054C43.3425 78.59 43.6077 78.2287 43.9391 77.9702C44.2739 77.7083 44.6384 77.526 45.0328 77.4233C45.4306 77.3172 45.8217 77.2642 46.2061 77.2642C46.4514 77.2642 46.7331 77.294 47.0513 77.3537C47.3728 77.41 47.6827 77.5277 47.981 77.7067C48.2826 77.8857 48.5328 78.1558 48.7317 78.517C48.9306 78.8783 49.03 79.3622 49.03 79.9688V85H47.8567V83.9659H47.7971C47.7175 84.1316 47.5849 84.3089 47.3993 84.4979C47.2137 84.6868 46.9668 84.8475 46.6586 84.9801C46.3503 85.1127 45.9741 85.179 45.53 85.179ZM45.709 84.125C46.173 84.125 46.5641 84.0339 46.8823 83.8516C47.2038 83.6693 47.4457 83.4339 47.6081 83.1456C47.7739 82.8572 47.8567 82.554 47.8567 82.2358V81.1619C47.807 81.2216 47.6976 81.2763 47.5286 81.326C47.3629 81.3724 47.1706 81.4138 46.9519 81.4503C46.7364 81.4834 46.526 81.5133 46.3205 81.5398C46.1183 81.563 45.9542 81.5829 45.8283 81.5994C45.5234 81.6392 45.2383 81.7038 44.9732 81.7933C44.7114 81.8795 44.4992 82.0104 44.3368 82.1861C44.1777 82.3584 44.0982 82.5937 44.0982 82.892C44.0982 83.2997 44.249 83.608 44.5506 83.8168C44.8555 84.0223 45.2417 84.125 45.709 84.125ZM54.2738 85.1591C53.5579 85.1591 52.9414 84.9901 52.4244 84.652C51.9073 84.3139 51.5096 83.8482 51.2312 83.255C50.9528 82.6617 50.8136 81.9839 50.8136 81.2216C50.8136 80.446 50.9561 79.7616 51.2411 79.1683C51.5295 78.5717 51.9305 78.1061 52.4442 77.7713C52.9613 77.4332 53.5645 77.2642 54.2539 77.2642C54.7908 77.2642 55.2747 77.3636 55.7056 77.5625C56.1365 77.7614 56.4895 78.0398 56.7646 78.3977C57.0397 78.7557 57.2103 79.1733 57.2766 79.6506H56.1033C56.0138 79.3026 55.815 78.9943 55.5067 78.7259C55.2018 78.4541 54.7908 78.3182 54.2738 78.3182C53.8164 78.3182 53.4154 78.4375 53.0707 78.6761C52.7293 78.9115 52.4625 79.2446 52.2702 79.6754C52.0813 80.103 51.9869 80.6051 51.9869 81.1818C51.9869 81.7718 52.0797 82.2855 52.2653 82.723C52.4542 83.1605 52.7193 83.5002 53.0607 83.7422C53.4054 83.9841 53.8098 84.1051 54.2738 84.1051C54.5787 84.1051 54.8555 84.0521 55.104 83.946C55.3526 83.84 55.5631 83.6875 55.7354 83.4886C55.9078 83.2898 56.0304 83.0511 56.1033 82.7727H57.2766C57.2103 83.2235 57.0463 83.6295 56.7844 83.9908C56.5259 84.3487 56.1829 84.6338 55.7553 84.8459C55.3311 85.0547 54.8372 85.1591 54.2738 85.1591ZM62.1935 85.1591C61.4577 85.1591 60.823 84.9967 60.2894 84.6719C59.7591 84.3438 59.3498 83.8864 59.0614 83.2997C58.7764 82.7098 58.6339 82.0237 58.6339 81.2415C58.6339 80.4593 58.7764 79.7699 59.0614 79.1733C59.3498 78.5734 59.7508 78.1061 60.2646 77.7713C60.7816 77.4332 61.3848 77.2642 62.0742 77.2642C62.4719 77.2642 62.8647 77.3305 63.2525 77.4631C63.6403 77.5956 63.9933 77.8111 64.3114 78.1094C64.6296 78.4044 64.8832 78.7955 65.0721 79.2827C65.261 79.7699 65.3555 80.3698 65.3555 81.0824V81.5795H59.4691V80.5653H64.1623C64.1623 80.1345 64.0761 79.75 63.9038 79.4119C63.7347 79.0739 63.4928 78.8071 63.1779 78.6115C62.8664 78.416 62.4985 78.3182 62.0742 78.3182C61.6069 78.3182 61.2025 78.4342 60.8612 78.6662C60.5231 78.8949 60.2629 79.1932 60.0806 79.5611C59.8983 79.929 59.8072 80.3234 59.8072 80.7443V81.4205C59.8072 81.9972 59.9066 82.486 60.1055 82.8871C60.3076 83.2848 60.5877 83.5881 60.9457 83.7969C61.3036 84.0024 61.7196 84.1051 62.1935 84.1051C62.5018 84.1051 62.7802 84.062 63.0288 83.9759C63.2807 83.8864 63.4978 83.7538 63.68 83.5781C63.8623 83.3991 64.0032 83.1771 64.1026 82.9119L65.2362 83.2301C65.1168 83.6146 64.9163 83.9527 64.6346 84.2443C64.3529 84.5327 64.0049 84.758 63.5906 84.9205C63.1763 85.0795 62.7106 85.1591 62.1935 85.1591ZM68.3136 80.4062V85H67.1403V74.8182H68.3136V78.5568H68.413C68.592 78.1624 68.8604 77.8492 69.2184 77.6172C69.5797 77.3819 70.0603 77.2642 70.6602 77.2642C71.1805 77.2642 71.6362 77.3686 72.0273 77.5774C72.4184 77.7829 72.7217 78.0994 72.9371 78.527C73.1559 78.9512 73.2653 79.4915 73.2653 80.1477V85H72.092V80.2273C72.092 79.6207 71.9345 79.1518 71.6197 78.8203C71.3081 78.4856 70.8756 78.3182 70.3221 78.3182C69.9376 78.3182 69.5929 78.3994 69.288 78.5618C68.9864 78.7242 68.7478 78.9612 68.5721 79.2727C68.3997 79.5843 68.3136 79.9621 68.3136 80.4062ZM78.514 85.1591C77.8246 85.1591 77.2198 84.995 76.6994 84.6669C76.1824 84.3388 75.778 83.8797 75.4863 83.2898C75.198 82.6998 75.0538 82.0104 75.0538 81.2216C75.0538 80.4261 75.198 79.7318 75.4863 79.1385C75.778 78.5452 76.1824 78.0845 76.6994 77.7564C77.2198 77.4283 77.8246 77.2642 78.514 77.2642C79.2034 77.2642 79.8066 77.4283 80.3237 77.7564C80.844 78.0845 81.2484 78.5452 81.5368 79.1385C81.8284 79.7318 81.9743 80.4261 81.9743 81.2216C81.9743 82.0104 81.8284 82.6998 81.5368 83.2898C81.2484 83.8797 80.844 84.3388 80.3237 84.6669C79.8066 84.995 79.2034 85.1591 78.514 85.1591ZM78.514 84.1051C79.0377 84.1051 79.4686 83.9709 79.8066 83.7024C80.1447 83.4339 80.3949 83.081 80.5574 82.6435C80.7198 82.206 80.801 81.732 80.801 81.2216C80.801 80.7112 80.7198 80.2356 80.5574 79.7947C80.3949 79.3539 80.1447 78.9976 79.8066 78.7259C79.4686 78.4541 79.0377 78.3182 78.514 78.3182C77.9904 78.3182 77.5595 78.4541 77.2214 78.7259C76.8833 78.9976 76.6331 79.3539 76.4707 79.7947C76.3083 80.2356 76.2271 80.7112 76.2271 81.2216C76.2271 81.732 76.3083 82.206 76.4707 82.6435C76.6331 83.081 76.8833 83.4339 77.2214 83.7024C77.5595 83.9709 77.9904 84.1051 78.514 84.1051ZM84.9386 74.8182V85H83.7653V74.8182H84.9386ZM89.9711 85.1591C89.3347 85.1591 88.7729 84.9983 88.2857 84.6768C87.7985 84.352 87.4173 83.8946 87.1422 83.3047C86.8671 82.7114 86.7296 82.0104 86.7296 81.2017C86.7296 80.3996 86.8671 79.7036 87.1422 79.1136C87.4173 78.5237 87.8001 78.0679 88.2907 77.7464C88.7812 77.425 89.348 77.2642 89.9909 77.2642C90.4881 77.2642 90.8809 77.3471 91.1692 77.5128C91.4609 77.6752 91.6829 77.8608 91.8354 78.0696C91.9912 78.2751 92.1122 78.4441 92.1983 78.5767H92.2978V74.8182H93.4711V85H92.3375V83.8267H92.1983C92.1122 83.9659 91.9895 84.1416 91.8304 84.3537C91.6713 84.5625 91.4443 84.7498 91.1493 84.9155C90.8543 85.0779 90.4616 85.1591 89.9711 85.1591ZM90.1301 84.1051C90.6008 84.1051 90.9985 83.9825 91.3233 83.7372C91.6481 83.4886 91.8951 83.1456 92.0641 82.7081C92.2331 82.2673 92.3176 81.7585 92.3176 81.1818C92.3176 80.6117 92.2348 80.1129 92.0691 79.6854C91.9034 79.2545 91.6581 78.9197 91.3333 78.6811C91.0085 78.4392 90.6074 78.3182 90.1301 78.3182C89.633 78.3182 89.2187 78.4458 88.8873 78.701C88.5591 78.9529 88.3122 79.2959 88.1465 79.7301C87.9841 80.161 87.9029 80.6449 87.9029 81.1818C87.9029 81.7254 87.9857 82.2192 88.1515 82.6634C88.3205 83.1042 88.5691 83.4555 88.8972 83.7173C89.2286 83.9759 89.6396 84.1051 90.1301 84.1051ZM98.9846 85.1591C98.2488 85.1591 97.6141 84.9967 97.0804 84.6719C96.5501 84.3438 96.1408 83.8864 95.8525 83.2997C95.5674 82.7098 95.4249 82.0237 95.4249 81.2415C95.4249 80.4593 95.5674 79.7699 95.8525 79.1733C96.1408 78.5734 96.5418 78.1061 97.0556 77.7713C97.5726 77.4332 98.1758 77.2642 98.8652 77.2642C99.263 77.2642 99.6557 77.3305 100.044 77.4631C100.431 77.5956 100.784 77.8111 101.102 78.1094C101.421 78.4044 101.674 78.7955 101.863 79.2827C102.052 79.7699 102.146 80.3698 102.146 81.0824V81.5795H96.2601V80.5653H100.953C100.953 80.1345 100.867 79.75 100.695 79.4119C100.526 79.0739 100.284 78.8071 99.9689 78.6115C99.6574 78.416 99.2895 78.3182 98.8652 78.3182C98.3979 78.3182 97.9935 78.4342 97.6522 78.6662C97.3141 78.8949 97.0539 79.1932 96.8716 79.5611C96.6893 79.929 96.5982 80.3234 96.5982 80.7443V81.4205C96.5982 81.9972 96.6976 82.486 96.8965 82.8871C97.0987 83.2848 97.3787 83.5881 97.7367 83.7969C98.0946 84.0024 98.5106 84.1051 98.9846 84.1051C99.2928 84.1051 99.5712 84.062 99.8198 83.9759C100.072 83.8864 100.289 83.7538 100.471 83.5781C100.653 83.3991 100.794 83.1771 100.894 82.9119L102.027 83.2301C101.908 83.6146 101.707 83.9527 101.426 84.2443C101.144 84.5327 100.796 84.758 100.382 84.9205C99.9673 85.0795 99.5016 85.1591 98.9846 85.1591ZM103.931 85V77.3636H105.065V78.517H105.144C105.284 78.1392 105.535 77.8326 105.9 77.5973C106.265 77.362 106.676 77.2443 107.133 77.2443C107.219 77.2443 107.327 77.246 107.456 77.2493C107.585 77.2526 107.683 77.2576 107.749 77.2642V78.4574C107.71 78.4474 107.619 78.4325 107.476 78.4126C107.337 78.3894 107.189 78.3778 107.034 78.3778C106.662 78.3778 106.331 78.4557 106.039 78.6115C105.751 78.764 105.522 78.9761 105.353 79.2479C105.187 79.5163 105.105 79.8229 105.105 80.1676V85H103.931ZM116.399 77.3636V78.358H112.441V77.3636H116.399ZM113.595 75.5341H114.768V82.8125C114.768 83.1439 114.816 83.3925 114.912 83.5582C115.012 83.7206 115.138 83.83 115.29 83.8864C115.446 83.9394 115.61 83.9659 115.782 83.9659C115.912 83.9659 116.018 83.9593 116.1 83.946C116.183 83.9295 116.25 83.9162 116.299 83.9062L116.538 84.9602C116.458 84.9901 116.347 85.0199 116.205 85.0497C116.062 85.0829 115.882 85.0994 115.663 85.0994C115.332 85.0994 115.007 85.0282 114.689 84.8857C114.374 84.7431 114.112 84.526 113.903 84.2344C113.698 83.9427 113.595 83.5748 113.595 83.1307V75.5341ZM121.283 85.1591C120.548 85.1591 119.913 84.9967 119.379 84.6719C118.849 84.3438 118.44 83.8864 118.151 83.2997C117.866 82.7098 117.724 82.0237 117.724 81.2415C117.724 80.4593 117.866 79.7699 118.151 79.1733C118.44 78.5734 118.841 78.1061 119.354 77.7713C119.871 77.4332 120.475 77.2642 121.164 77.2642C121.562 77.2642 121.955 77.3305 122.342 77.4631C122.73 77.5956 123.083 77.8111 123.401 78.1094C123.719 78.4044 123.973 78.7955 124.162 79.2827C124.351 79.7699 124.445 80.3698 124.445 81.0824V81.5795H118.559V80.5653H123.252C123.252 80.1345 123.166 79.75 122.994 79.4119C122.825 79.0739 122.583 78.8071 122.268 78.6115C121.956 78.416 121.588 78.3182 121.164 78.3182C120.697 78.3182 120.292 78.4342 119.951 78.6662C119.613 78.8949 119.353 79.1932 119.17 79.5611C118.988 79.929 118.897 80.3234 118.897 80.7443V81.4205C118.897 81.9972 118.996 82.486 119.195 82.8871C119.397 83.2848 119.678 83.5881 120.036 83.7969C120.393 84.0024 120.809 84.1051 121.283 84.1051C121.592 84.1051 121.87 84.062 122.119 83.9759C122.371 83.8864 122.588 83.7538 122.77 83.5781C122.952 83.3991 123.093 83.1771 123.192 82.9119L124.326 83.2301C124.207 83.6146 124.006 83.9527 123.724 84.2443C123.443 84.5327 123.095 84.758 122.68 84.9205C122.266 85.0795 121.8 85.1591 121.283 85.1591ZM126.9 77.3636L128.73 80.4858L130.559 77.3636H131.911L129.445 81.1818L131.911 85H130.559L128.73 82.0369L126.9 85H125.548L127.974 81.1818L125.548 77.3636H126.9ZM136.907 77.3636V78.358H132.949V77.3636H136.907ZM134.103 75.5341H135.276V82.8125C135.276 83.1439 135.324 83.3925 135.42 83.5582C135.52 83.7206 135.645 83.83 135.798 83.8864C135.954 83.9394 136.118 83.9659 136.29 83.9659C136.419 83.9659 136.525 83.9593 136.608 83.946C136.691 83.9295 136.757 83.9162 136.807 83.9062L137.046 84.9602C136.966 84.9901 136.855 85.0199 136.713 85.0497C136.57 85.0829 136.39 85.0994 136.171 85.0994C135.839 85.0994 135.515 85.0282 135.196 84.8857C134.882 84.7431 134.62 84.526 134.411 84.2344C134.205 83.9427 134.103 83.5748 134.103 83.1307V75.5341Z" fill="white" fill-opacity="0.7"/>
</svg>
