<svg width="220" height="160" viewBox="0 0 220 160" fill="none" xmlns="http://www.w3.org/2000/svg">
<mask id="path-1-inside-1_1437_19623" fill="white">
<path d="M0 0H220V160H0V0Z"/>
</mask>
<path d="M0 0H220V160H0V0Z" fill="#1A1A1A"/>
<path d="M220 160V161H221V160H220ZM219 0V160H221V0H219ZM220 159H0V161H220V159Z" fill="#707070" mask="url(#path-1-inside-1_1437_19623)"/>
<path d="M33.5227 86L30.3409 74.3636H31.7727L34.2045 83.8409H34.3182L36.7955 74.3636H38.3864L40.8636 83.8409H40.9773L43.4091 74.3636H44.8409L41.6591 86H40.2045L37.6364 76.7273H37.5455L34.9773 86H33.5227ZM50.483 74.3636V86H49.0739V75.8409H49.0057L46.1648 77.7273V76.2955L49.0739 74.3636H50.483ZM57.6932 86.1591C57.2159 86.1515 56.7386 86.0606 56.2614 85.8864C55.7841 85.7121 55.3485 85.4186 54.9545 85.0057C54.5606 84.589 54.2443 84.0265 54.0057 83.3182C53.767 82.6061 53.6477 81.7121 53.6477 80.6364C53.6477 79.6023 53.7443 78.6856 53.9375 77.8864C54.1307 77.0833 54.411 76.4072 54.7784 75.858C55.1458 75.3087 55.589 74.892 56.108 74.608C56.6307 74.3239 57.2197 74.1818 57.875 74.1818C58.5265 74.1818 59.1061 74.3125 59.6136 74.5739C60.125 74.8352 60.5417 75.1989 60.8636 75.6648C61.1856 76.1269 61.3939 76.6629 61.4886 77.2727H60.1023C59.9735 76.7386 59.7235 76.2992 59.3523 75.9545C58.9811 75.6061 58.4886 75.4318 57.875 75.4318C56.9735 75.4318 56.2633 75.8258 55.7443 76.6136C55.2292 77.3977 54.9697 78.5038 54.9659 79.9318H55.0568C55.2689 79.6098 55.5208 79.3352 55.8125 79.108C56.108 78.8769 56.4337 78.6989 56.7898 78.5739C57.1458 78.4489 57.5227 78.3864 57.9205 78.3864C58.5871 78.3864 59.197 78.553 59.75 78.8864C60.303 79.2159 60.7462 79.6723 61.0795 80.2557C61.4129 80.8352 61.5795 81.5 61.5795 82.25C61.5795 82.9697 61.4186 83.6288 61.0966 84.2273C60.7746 84.822 60.322 85.2955 59.7386 85.6477C59.1591 85.9962 58.4773 86.1667 57.6932 86.1591ZM57.6932 84.9091C58.1705 84.9091 58.5985 84.7898 58.9773 84.5511C59.3598 84.3125 59.661 83.9924 59.8807 83.5909C60.1042 83.1894 60.2159 82.7424 60.2159 82.25C60.2159 81.7689 60.108 81.3314 59.892 80.9375C59.6799 80.5398 59.3864 80.2235 59.0114 79.9886C58.6402 79.7538 58.2159 79.6364 57.7386 79.6364C57.3788 79.6364 57.0436 79.7083 56.733 79.8523C56.4223 79.9924 56.1496 80.1856 55.9148 80.4318C55.6837 80.678 55.5019 80.9602 55.3693 81.2784C55.2367 81.5928 55.1705 81.9242 55.1705 82.2727C55.1705 82.7348 55.2784 83.1667 55.4943 83.5682C55.714 83.9697 56.0133 84.2936 56.392 84.5398C56.7746 84.786 57.2083 84.9091 57.6932 84.9091ZM63.8366 89.2727V77.2727H65.1321V78.6591H65.2912C65.3897 78.5076 65.526 78.3144 65.7003 78.0795C65.8783 77.8409 66.1321 77.6288 66.4616 77.4432C66.795 77.2538 67.2457 77.1591 67.8139 77.1591C68.5488 77.1591 69.1965 77.3428 69.7571 77.7102C70.3177 78.0777 70.7552 78.5985 71.0696 79.2727C71.384 79.947 71.5412 80.7424 71.5412 81.6591C71.5412 82.5833 71.384 83.3845 71.0696 84.0625C70.7552 84.7367 70.3196 85.2595 69.7628 85.6307C69.206 85.9981 68.5639 86.1818 67.8366 86.1818C67.276 86.1818 66.8272 86.089 66.4901 85.9034C66.1529 85.714 65.8935 85.5 65.7116 85.2614C65.5298 85.0189 65.3897 84.8182 65.2912 84.6591H65.1776V89.2727H63.8366ZM65.1548 81.6364C65.1548 82.2955 65.2514 82.8769 65.4446 83.3807C65.6378 83.8807 65.92 84.2727 66.2912 84.5568C66.6624 84.8371 67.117 84.9773 67.6548 84.9773C68.2154 84.9773 68.6832 84.8295 69.0582 84.5341C69.437 84.2348 69.7211 83.8333 69.9105 83.3295C70.1037 82.822 70.2003 82.2576 70.2003 81.6364C70.2003 81.0227 70.1056 80.4697 69.9162 79.9773C69.7306 79.4811 69.4484 79.089 69.0696 78.8011C68.6946 78.5095 68.223 78.3636 67.6548 78.3636C67.1094 78.3636 66.651 78.5019 66.2798 78.7784C65.9086 79.0511 65.6283 79.4337 65.4389 79.9261C65.2495 80.4148 65.1548 80.9848 65.1548 81.6364ZM74.2273 77.2727L76.3182 80.8409L78.4091 77.2727H79.9545L77.1364 81.6364L79.9545 86H78.4091L76.3182 82.6136L74.2273 86H72.6818L75.4545 81.6364L72.6818 77.2727H74.2273ZM87.3679 77.2727L89.4588 80.8409L91.5497 77.2727H93.0952L90.277 81.6364L93.0952 86H91.5497L89.4588 82.6136L87.3679 86H85.8224L88.5952 81.6364L85.8224 77.2727H87.3679ZM99.6903 86V74.3636H101.099V79.5455H107.304V74.3636H108.713V86H107.304V80.7955H101.099V86H99.6903ZM115.42 74.3636V86H114.011V75.8409H113.943L111.102 77.7273V76.2955L114.011 74.3636H115.42ZM122.631 86.1591C122.153 86.1515 121.676 86.0606 121.199 85.8864C120.722 85.7121 120.286 85.4186 119.892 85.0057C119.498 84.589 119.182 84.0265 118.943 83.3182C118.705 82.6061 118.585 81.7121 118.585 80.6364C118.585 79.6023 118.682 78.6856 118.875 77.8864C119.068 77.0833 119.348 76.4072 119.716 75.858C120.083 75.3087 120.527 74.892 121.045 74.608C121.568 74.3239 122.157 74.1818 122.812 74.1818C123.464 74.1818 124.044 74.3125 124.551 74.5739C125.063 74.8352 125.479 75.1989 125.801 75.6648C126.123 76.1269 126.331 76.6629 126.426 77.2727H125.04C124.911 76.7386 124.661 76.2992 124.29 75.9545C123.919 75.6061 123.426 75.4318 122.812 75.4318C121.911 75.4318 121.201 75.8258 120.682 76.6136C120.167 77.3977 119.907 78.5038 119.903 79.9318H119.994C120.206 79.6098 120.458 79.3352 120.75 79.108C121.045 78.8769 121.371 78.6989 121.727 78.5739C122.083 78.4489 122.46 78.3864 122.858 78.3864C123.525 78.3864 124.134 78.553 124.688 78.8864C125.241 79.2159 125.684 79.6723 126.017 80.2557C126.35 80.8352 126.517 81.5 126.517 82.25C126.517 82.9697 126.356 83.6288 126.034 84.2273C125.712 84.822 125.259 85.2955 124.676 85.6477C124.097 85.9962 123.415 86.1667 122.631 86.1591ZM122.631 84.9091C123.108 84.9091 123.536 84.7898 123.915 84.5511C124.297 84.3125 124.598 83.9924 124.818 83.5909C125.042 83.1894 125.153 82.7424 125.153 82.25C125.153 81.7689 125.045 81.3314 124.83 80.9375C124.617 80.5398 124.324 80.2235 123.949 79.9886C123.578 79.7538 123.153 79.6364 122.676 79.6364C122.316 79.6364 121.981 79.7083 121.67 79.8523C121.36 79.9924 121.087 80.1856 120.852 80.4318C120.621 80.678 120.439 80.9602 120.307 81.2784C120.174 81.5928 120.108 81.9242 120.108 82.2727C120.108 82.7348 120.216 83.1667 120.432 83.5682C120.652 83.9697 120.951 84.2936 121.33 84.5398C121.712 84.786 122.146 84.9091 122.631 84.9091ZM128.774 89.2727V77.2727H130.07V78.6591H130.229C130.327 78.5076 130.464 78.3144 130.638 78.0795C130.816 77.8409 131.07 77.6288 131.399 77.4432C131.732 77.2538 132.183 77.1591 132.751 77.1591C133.486 77.1591 134.134 77.3428 134.695 77.7102C135.255 78.0777 135.693 78.5985 136.007 79.2727C136.321 79.947 136.479 80.7424 136.479 81.6591C136.479 82.5833 136.321 83.3845 136.007 84.0625C135.693 84.7367 135.257 85.2595 134.7 85.6307C134.143 85.9981 133.501 86.1818 132.774 86.1818C132.214 86.1818 131.765 86.089 131.428 85.9034C131.09 85.714 130.831 85.5 130.649 85.2614C130.467 85.0189 130.327 84.8182 130.229 84.6591H130.115V89.2727H128.774ZM130.092 81.6364C130.092 82.2955 130.189 82.8769 130.382 83.3807C130.575 83.8807 130.857 84.2727 131.229 84.5568C131.6 84.8371 132.054 84.9773 132.592 84.9773C133.153 84.9773 133.621 84.8295 133.996 84.5341C134.375 84.2348 134.659 83.8333 134.848 83.3295C135.041 82.822 135.138 82.2576 135.138 81.6364C135.138 81.0227 135.043 80.4697 134.854 79.9773C134.668 79.4811 134.386 79.089 134.007 78.8011C133.632 78.5095 133.161 78.3636 132.592 78.3636C132.047 78.3636 131.589 78.5019 131.217 78.7784C130.846 79.0511 130.566 79.4337 130.376 79.9261C130.187 80.4148 130.092 80.9848 130.092 81.6364ZM139.165 77.2727L141.256 80.8409L143.347 77.2727H144.892L142.074 81.6364L144.892 86H143.347L141.256 82.6136L139.165 86H137.619L140.392 81.6364L137.619 77.2727H139.165Z" fill="white" fill-opacity="0.95"/>
</svg>
