<svg width="250" height="352" viewBox="0 0 250 352" fill="none" xmlns="http://www.w3.org/2000/svg">
<mask id="path-1-inside-1_1437_19650" fill="white">
<path d="M0 0H250V352H0V0Z"/>
</mask>
<path d="M0 0H250V352H0V0Z" fill="#1A1A1A"/>
<path d="M249 0V352H251V0H249Z" fill="white" fill-opacity="0.2" mask="url(#path-1-inside-1_1437_19650)"/>
<path d="M40.7071 176L44.8536 171.853C44.9 171.807 44.9368 171.752 44.9619 171.691C44.987 171.631 45 171.566 45 171.5C45 171.434 44.987 171.369 44.9619 171.309C44.9368 171.248 44.9 171.193 44.8535 171.146C44.8071 171.1 44.752 171.063 44.6913 171.038C44.6307 171.013 44.5657 171 44.5 171C44.4344 171 44.3694 171.013 44.3087 171.038C44.248 171.063 44.1929 171.1 44.1465 171.146L40 175.293L35.8535 171.146C35.8072 171.1 35.752 171.062 35.6913 171.037C35.6305 171.011 35.5653 170.998 35.4994 170.998C35.4335 170.998 35.3682 171.011 35.3073 171.036C35.2464 171.061 35.1911 171.098 35.1445 171.144C35.0979 171.191 35.061 171.246 35.0358 171.307C35.0107 171.368 34.9979 171.433 34.998 171.499C34.9982 171.565 35.0115 171.63 35.0369 171.691C35.0624 171.752 35.0996 171.807 35.1465 171.853L39.293 176L35.1465 180.146C35.1001 180.193 35.0633 180.248 35.0381 180.309C35.013 180.369 35.0001 180.434 35.0001 180.5C35.0001 180.566 35.013 180.631 35.0381 180.691C35.0633 180.752 35.1001 180.807 35.1465 180.853C35.1929 180.9 35.248 180.937 35.3087 180.962C35.3694 180.987 35.4344 181 35.5 181C35.5657 181 35.6307 180.987 35.6913 180.962C35.752 180.937 35.8071 180.9 35.8535 180.853L40 176.707L44.1465 180.853C44.2403 180.947 44.3675 181 44.5001 181C44.6326 181 44.7598 180.947 44.8536 180.853C44.9473 180.76 45 180.633 45 180.5C45 180.367 44.9473 180.24 44.8536 180.146L40.7071 176Z" fill="white" fill-opacity="0.95"/>
</svg>
