<svg width="559" height="320" viewBox="0 0 559 320" fill="none" xmlns="http://www.w3.org/2000/svg">
<path d="M0 24C0 10.7452 10.7452 0 24 0H535C548.255 0 559 10.7452 559 24V296C559 309.255 548.255 320 535 320H24C10.7452 320 0 309.255 0 296V24Z" fill="#262626"/>
<path d="M519 25.9997C516.232 25.9997 513.525 26.8208 511.223 28.3591C508.92 29.8975 507.126 32.084 506.066 34.6421C505.007 37.2003 504.729 40.0152 505.27 42.731C505.81 45.4467 507.143 47.9413 509.101 49.8992C511.059 51.8571 513.553 53.1905 516.269 53.7307C518.985 54.2709 521.8 53.9936 524.358 52.934C526.916 51.8744 529.103 50.08 530.641 47.7777C532.179 45.4754 533 42.7686 533 39.9997C532.996 36.2879 531.52 32.7294 528.895 30.1048C526.271 27.4802 522.712 26.0039 519 25.9997ZM528.155 47.7404L511.26 30.8449C513.555 28.8985 516.498 27.8864 519.505 28.0097C522.511 28.1331 525.362 29.3828 527.49 31.5106C529.617 33.6385 530.867 36.4889 530.99 39.4956C531.114 42.5023 530.102 45.4454 528.155 47.7404ZM509.846 32.259L526.741 49.1545C524.446 51.1009 521.503 52.1129 518.496 51.9896C515.49 51.8662 512.639 50.6165 510.512 48.4887C508.384 46.3608 507.134 43.5105 507.011 40.5038C506.887 37.4971 507.899 34.554 509.846 32.259Z" fill="url(#paint0_linear_144_5559)"/>
<rect x="80" y="161" width="190" height="24" rx="4" fill="#1A1A1A"/>
<path d="M100.221 166.92H101.901L99.395 177H97.295L95.181 168.768L93.053 177H90.939L88.377 166.92H90.225L92.115 174.928L94.187 166.92H96.301L98.345 174.928L100.221 166.92ZM107.421 174.9H109.185C108.989 175.647 108.583 176.225 107.967 176.636C107.379 177.019 106.656 177.21 105.797 177.21C104.612 177.21 103.688 176.837 103.025 176.09C102.418 175.409 102.115 174.499 102.115 173.36C102.115 172.053 102.493 171.055 103.249 170.364C103.884 169.795 104.71 169.51 105.727 169.51C106.912 169.51 107.808 169.897 108.415 170.672C108.984 171.391 109.269 172.417 109.269 173.752H103.823C103.888 174.536 104.131 175.11 104.551 175.474C104.887 175.773 105.326 175.922 105.867 175.922C106.25 175.922 106.581 175.829 106.861 175.642C107.141 175.455 107.328 175.208 107.421 174.9ZM107.547 172.604C107.51 171.923 107.304 171.423 106.931 171.106C106.623 170.835 106.222 170.7 105.727 170.7C105.186 170.7 104.752 170.877 104.425 171.232C104.126 171.549 103.935 172.007 103.851 172.604H107.547ZM110.709 166.92H112.389V170.602C112.968 169.874 113.747 169.51 114.727 169.51C115.782 169.51 116.594 169.869 117.163 170.588C117.686 171.241 117.947 172.119 117.947 173.22C117.947 174.564 117.588 175.595 116.869 176.314C116.281 176.911 115.521 177.21 114.587 177.21C113.626 177.21 112.87 176.846 112.319 176.118L112.053 177H110.709V166.92ZM116.225 173.29C116.225 172.413 116.025 171.764 115.623 171.344C115.297 171.008 114.858 170.84 114.307 170.84C113.682 170.84 113.187 171.069 112.823 171.526C112.487 171.965 112.319 172.548 112.319 173.276C112.319 174.191 112.525 174.872 112.935 175.32C113.281 175.693 113.729 175.88 114.279 175.88C114.923 175.88 115.413 175.642 115.749 175.166C116.067 174.718 116.225 174.093 116.225 173.29ZM124.319 174.9H126.083C125.887 175.647 125.481 176.225 124.865 176.636C124.277 177.019 123.554 177.21 122.695 177.21C121.51 177.21 120.586 176.837 119.923 176.09C119.317 175.409 119.013 174.499 119.013 173.36C119.013 172.053 119.391 171.055 120.147 170.364C120.782 169.795 121.608 169.51 122.625 169.51C123.811 169.51 124.707 169.897 125.313 170.672C125.883 171.391 126.167 172.417 126.167 173.752H120.721C120.787 174.536 121.029 175.11 121.449 175.474C121.785 175.773 122.224 175.922 122.765 175.922C123.148 175.922 123.479 175.829 123.759 175.642C124.039 175.455 124.226 175.208 124.319 174.9ZM124.445 172.604C124.408 171.923 124.203 171.423 123.829 171.106C123.521 170.835 123.12 170.7 122.625 170.7C122.084 170.7 121.65 170.877 121.323 171.232C121.025 171.549 120.833 172.007 120.749 172.604H124.445ZM133.852 169.72L131.43 173.122L134.258 177H132.228L130.464 174.41L128.7 177H126.824L129.54 173.192L126.978 169.72H128.966L130.52 171.946L132.018 169.72H133.852ZM145.347 177H143.779L140.937 169.496V177H139.313V166.92H141.581L144.605 175.11L147.475 166.92H149.701V177H148.049V169.524L145.347 177ZM156.503 174.9H158.267C158.071 175.647 157.665 176.225 157.049 176.636C156.461 177.019 155.738 177.21 154.879 177.21C153.694 177.21 152.77 176.837 152.107 176.09C151.5 175.409 151.197 174.499 151.197 173.36C151.197 172.053 151.575 171.055 152.331 170.364C152.966 169.795 153.792 169.51 154.809 169.51C155.994 169.51 156.89 169.897 157.497 170.672C158.066 171.391 158.351 172.417 158.351 173.752H152.905C152.97 174.536 153.213 175.11 153.633 175.474C153.969 175.773 154.408 175.922 154.949 175.922C155.332 175.922 155.663 175.829 155.943 175.642C156.223 175.455 156.41 175.208 156.503 174.9ZM156.629 172.604C156.592 171.923 156.386 171.423 156.013 171.106C155.705 170.835 155.304 170.7 154.809 170.7C154.268 170.7 153.834 170.877 153.507 171.232C153.208 171.549 153.017 172.007 152.933 172.604H156.629ZM164.734 174.9H166.498C166.302 175.647 165.896 176.225 165.28 176.636C164.692 177.019 163.968 177.21 163.11 177.21C161.924 177.21 161 176.837 160.338 176.09C159.731 175.409 159.428 174.499 159.428 173.36C159.428 172.053 159.806 171.055 160.562 170.364C161.196 169.795 162.022 169.51 163.04 169.51C164.225 169.51 165.121 169.897 165.728 170.672C166.297 171.391 166.582 172.417 166.582 173.752H161.136C161.201 174.536 161.444 175.11 161.864 175.474C162.2 175.773 162.638 175.922 163.18 175.922C163.562 175.922 163.894 175.829 164.174 175.642C164.454 175.455 164.64 175.208 164.734 174.9ZM164.86 172.604C164.822 171.923 164.617 171.423 164.244 171.106C163.936 170.835 163.534 170.7 163.04 170.7C162.498 170.7 162.064 170.877 161.738 171.232C161.439 171.549 161.248 172.007 161.164 172.604H164.86ZM171.634 175.768V177.042C171.242 177.154 170.869 177.21 170.514 177.21C169.795 177.21 169.249 176.995 168.876 176.566C168.559 176.202 168.4 175.712 168.4 175.096V171.008H167.308V169.72H168.4L168.512 167.97H170.08V169.72H171.62V171.008H170.08V175.152C170.08 175.637 170.327 175.88 170.822 175.88C171.037 175.88 171.307 175.843 171.634 175.768ZM174.544 168.614H172.696V166.92H174.544V168.614ZM174.46 177H172.78V169.72H174.46V177ZM177.932 177H176.252V169.72H177.638L177.82 170.588C178.352 169.869 179.09 169.51 180.032 169.51C180.91 169.51 181.582 169.781 182.048 170.322C182.459 170.798 182.664 171.447 182.664 172.268V177H180.984V172.31C180.984 171.311 180.522 170.812 179.598 170.812C179.094 170.812 178.684 170.989 178.366 171.344C178.077 171.671 177.932 172.081 177.932 172.576V177ZM184.289 177.476H186.053C186.231 178.148 186.786 178.484 187.719 178.484C188.923 178.484 189.525 177.91 189.525 176.762V175.95C188.975 176.51 188.228 176.79 187.285 176.79C186.296 176.79 185.493 176.44 184.877 175.74C184.308 175.087 184.023 174.242 184.023 173.206C184.023 171.983 184.373 171.036 185.073 170.364C185.661 169.795 186.417 169.51 187.341 169.51C188.312 169.51 189.068 169.865 189.609 170.574L189.875 169.72H191.205V176.748C191.205 177.709 190.86 178.461 190.169 179.002C189.553 179.487 188.741 179.73 187.733 179.73C186.651 179.73 185.806 179.501 185.199 179.044C184.705 178.661 184.401 178.139 184.289 177.476ZM185.745 173.22C185.745 173.976 185.955 174.559 186.375 174.97C186.721 175.297 187.155 175.46 187.677 175.46C188.349 175.46 188.858 175.241 189.203 174.802C189.502 174.419 189.651 173.897 189.651 173.234C189.651 172.403 189.446 171.778 189.035 171.358C188.699 171.013 188.247 170.84 187.677 170.84C187.052 170.84 186.567 171.064 186.221 171.512C185.904 171.923 185.745 172.492 185.745 173.22ZM194.204 174.928C194.335 175.628 194.862 175.978 195.786 175.978C196.3 175.978 196.687 175.88 196.948 175.684C197.163 175.516 197.27 175.297 197.27 175.026C197.27 174.681 197.084 174.424 196.71 174.256C196.496 174.163 196.024 174.032 195.296 173.864C194.4 173.659 193.761 173.379 193.378 173.024C192.996 172.679 192.804 172.226 192.804 171.666C192.804 170.957 193.094 170.411 193.672 170.028C194.186 169.683 194.89 169.51 195.786 169.51C196.71 169.51 197.452 169.729 198.012 170.168C198.498 170.541 198.801 171.045 198.922 171.68H197.214C197.074 171.055 196.589 170.742 195.758 170.742C194.918 170.742 194.498 170.999 194.498 171.512C194.498 171.773 194.606 171.969 194.82 172.1C195.035 172.231 195.469 172.375 196.122 172.534C197.13 172.767 197.83 173.029 198.222 173.318C198.717 173.682 198.964 174.195 198.964 174.858C198.964 175.614 198.656 176.207 198.04 176.636C197.48 177.019 196.724 177.21 195.772 177.21C194.774 177.21 193.976 176.972 193.378 176.496C192.874 176.095 192.58 175.572 192.496 174.928H194.204ZM204.375 166.92H206.167V173.766C206.167 174.447 206.391 174.97 206.839 175.334C207.241 175.661 207.782 175.824 208.463 175.824C209.257 175.824 209.859 175.614 210.269 175.194C210.624 174.83 210.801 174.354 210.801 173.766V166.92H212.537V173.626C212.537 174.821 212.122 175.735 211.291 176.37C210.573 176.93 209.625 177.21 208.449 177.21C207.096 177.21 206.055 176.846 205.327 176.118C204.693 175.483 204.375 174.653 204.375 173.626V166.92ZM215.533 174.928C215.663 175.628 216.191 175.978 217.115 175.978C217.628 175.978 218.015 175.88 218.277 175.684C218.491 175.516 218.599 175.297 218.599 175.026C218.599 174.681 218.412 174.424 218.039 174.256C217.824 174.163 217.353 174.032 216.625 173.864C215.729 173.659 215.089 173.379 214.707 173.024C214.324 172.679 214.133 172.226 214.133 171.666C214.133 170.957 214.422 170.411 215.001 170.028C215.514 169.683 216.219 169.51 217.115 169.51C218.039 169.51 218.781 169.729 219.341 170.168C219.826 170.541 220.129 171.045 220.251 171.68H218.543C218.403 171.055 217.917 170.742 217.087 170.742C216.247 170.742 215.827 170.999 215.827 171.512C215.827 171.773 215.934 171.969 216.149 172.1C216.363 172.231 216.797 172.375 217.451 172.534C218.459 172.767 219.159 173.029 219.551 173.318C220.045 173.682 220.293 174.195 220.293 174.858C220.293 175.614 219.985 176.207 219.369 176.636C218.809 177.019 218.053 177.21 217.101 177.21C216.102 177.21 215.304 176.972 214.707 176.496C214.203 176.095 213.909 175.572 213.825 174.928H215.533ZM226.667 174.9H228.431C228.235 175.647 227.829 176.225 227.213 176.636C226.625 177.019 225.902 177.21 225.043 177.21C223.858 177.21 222.934 176.837 222.271 176.09C221.664 175.409 221.361 174.499 221.361 173.36C221.361 172.053 221.739 171.055 222.495 170.364C223.13 169.795 223.956 169.51 224.973 169.51C226.158 169.51 227.054 169.897 227.661 170.672C228.23 171.391 228.515 172.417 228.515 173.752H223.069C223.134 174.536 223.377 175.11 223.797 175.474C224.133 175.773 224.572 175.922 225.113 175.922C225.496 175.922 225.827 175.829 226.107 175.642C226.387 175.455 226.574 175.208 226.667 174.9ZM226.793 172.604C226.756 171.923 226.55 171.423 226.177 171.106C225.869 170.835 225.468 170.7 224.973 170.7C224.432 170.7 223.998 170.877 223.671 171.232C223.372 171.549 223.181 172.007 223.097 172.604H226.793ZM234.226 169.608V171.232C233.918 171.139 233.624 171.092 233.344 171.092C232.821 171.092 232.401 171.321 232.084 171.778C231.785 172.217 231.636 172.823 231.636 173.598V177H229.956V169.72H231.342L231.552 170.812C231.962 169.944 232.583 169.51 233.414 169.51C233.712 169.51 233.983 169.543 234.226 169.608ZM236.369 174.928C236.499 175.628 237.027 175.978 237.951 175.978C238.464 175.978 238.851 175.88 239.113 175.684C239.327 175.516 239.435 175.297 239.435 175.026C239.435 174.681 239.248 174.424 238.875 174.256C238.66 174.163 238.189 174.032 237.461 173.864C236.565 173.659 235.925 173.379 235.543 173.024C235.16 172.679 234.969 172.226 234.969 171.666C234.969 170.957 235.258 170.411 235.837 170.028C236.35 169.683 237.055 169.51 237.951 169.51C238.875 169.51 239.617 169.729 240.177 170.168C240.662 170.541 240.965 171.045 241.087 171.68H239.379C239.239 171.055 238.753 170.742 237.923 170.742C237.083 170.742 236.663 170.999 236.663 171.512C236.663 171.773 236.77 171.969 236.985 172.1C237.199 172.231 237.633 172.375 238.287 172.534C239.295 172.767 239.995 173.029 240.387 173.318C240.881 173.682 241.129 174.195 241.129 174.858C241.129 175.614 240.821 176.207 240.205 176.636C239.645 177.019 238.889 177.21 237.937 177.21C236.938 177.21 236.14 176.972 235.543 176.496C235.039 176.095 234.745 175.572 234.661 174.928H236.369Z" fill="white" fill-opacity="0.95"/>
<path d="M254.707 173L258.853 168.853C258.9 168.807 258.937 168.752 258.962 168.691C258.987 168.63 259 168.565 259 168.5C259 168.434 258.987 168.369 258.962 168.308C258.937 168.248 258.9 168.193 258.853 168.146C258.807 168.1 258.752 168.063 258.691 168.038C258.631 168.013 258.566 168 258.5 168C258.434 168 258.369 168.013 258.309 168.038C258.248 168.063 258.193 168.1 258.146 168.146L254 172.293L249.853 168.146C249.807 168.099 249.752 168.062 249.691 168.037C249.63 168.011 249.565 167.998 249.499 167.998C249.433 167.998 249.368 168.011 249.307 168.036C249.246 168.061 249.191 168.098 249.144 168.144C249.098 168.191 249.061 168.246 249.036 168.307C249.011 168.368 248.998 168.433 248.998 168.499C248.998 168.565 249.011 168.63 249.037 168.691C249.062 168.752 249.1 168.807 249.146 168.853L253.293 173L249.146 177.146C249.1 177.193 249.063 177.248 249.038 177.309C249.013 177.369 249 177.434 249 177.5C249 177.566 249.013 177.631 249.038 177.691C249.063 177.752 249.1 177.807 249.146 177.853C249.193 177.9 249.248 177.937 249.309 177.962C249.369 177.987 249.434 178 249.5 178C249.566 178 249.631 177.987 249.691 177.962C249.752 177.937 249.807 177.9 249.853 177.853L254 173.707L258.146 177.853C258.24 177.947 258.367 178 258.5 178C258.633 178 258.76 177.947 258.853 177.853C258.947 177.76 259 177.632 259 177.5C259 177.367 258.947 177.24 258.853 177.146L254.707 173Z" fill="white" fill-opacity="0.95"/>
<rect x="80.5" y="161.5" width="189" height="23" rx="3.5" stroke="white" stroke-opacity="0.3"/>
<rect x="278" y="161" width="201" height="24" rx="4" fill="#1A1A1A"/>
<path d="M298.327 166.92H300.007L297.501 177H295.401L293.287 168.768L291.159 177H289.045L286.483 166.92H288.331L290.221 174.928L292.293 166.92H294.407L296.451 174.928L298.327 166.92ZM305.527 174.9H307.291C307.095 175.647 306.689 176.225 306.073 176.636C305.485 177.019 304.762 177.21 303.903 177.21C302.718 177.21 301.794 176.837 301.131 176.09C300.525 175.409 300.221 174.499 300.221 173.36C300.221 172.053 300.599 171.055 301.355 170.364C301.99 169.795 302.816 169.51 303.833 169.51C305.019 169.51 305.915 169.897 306.521 170.672C307.091 171.391 307.375 172.417 307.375 173.752H301.929C301.995 174.536 302.237 175.11 302.657 175.474C302.993 175.773 303.432 175.922 303.973 175.922C304.356 175.922 304.687 175.829 304.967 175.642C305.247 175.455 305.434 175.208 305.527 174.9ZM305.653 172.604C305.616 171.923 305.411 171.423 305.037 171.106C304.729 170.835 304.328 170.7 303.833 170.7C303.292 170.7 302.858 170.877 302.531 171.232C302.233 171.549 302.041 172.007 301.957 172.604H305.653ZM308.816 166.92H310.496V170.602C311.075 169.874 311.854 169.51 312.834 169.51C313.889 169.51 314.701 169.869 315.27 170.588C315.793 171.241 316.054 172.119 316.054 173.22C316.054 174.564 315.695 175.595 314.976 176.314C314.388 176.911 313.627 177.21 312.694 177.21C311.733 177.21 310.977 176.846 310.426 176.118L310.16 177H308.816V166.92ZM314.332 173.29C314.332 172.413 314.131 171.764 313.73 171.344C313.403 171.008 312.965 170.84 312.414 170.84C311.789 170.84 311.294 171.069 310.93 171.526C310.594 171.965 310.426 172.548 310.426 173.276C310.426 174.191 310.631 174.872 311.042 175.32C311.387 175.693 311.835 175.88 312.386 175.88C313.03 175.88 313.52 175.642 313.856 175.166C314.173 174.718 314.332 174.093 314.332 173.29ZM322.426 174.9H324.19C323.994 175.647 323.588 176.225 322.972 176.636C322.384 177.019 321.661 177.21 320.802 177.21C319.617 177.21 318.693 176.837 318.03 176.09C317.423 175.409 317.12 174.499 317.12 173.36C317.12 172.053 317.498 171.055 318.254 170.364C318.889 169.795 319.715 169.51 320.732 169.51C321.917 169.51 322.813 169.897 323.42 170.672C323.989 171.391 324.274 172.417 324.274 173.752H318.828C318.893 174.536 319.136 175.11 319.556 175.474C319.892 175.773 320.331 175.922 320.872 175.922C321.255 175.922 321.586 175.829 321.866 175.642C322.146 175.455 322.333 175.208 322.426 174.9ZM322.552 172.604C322.515 171.923 322.309 171.423 321.936 171.106C321.628 170.835 321.227 170.7 320.732 170.7C320.191 170.7 319.757 170.877 319.43 171.232C319.131 171.549 318.94 172.007 318.856 172.604H322.552ZM331.958 169.72L329.536 173.122L332.364 177H330.334L328.57 174.41L326.806 177H324.93L327.646 173.192L325.084 169.72H327.072L328.626 171.946L330.124 169.72H331.958ZM343.453 177H341.885L339.043 169.496V177H337.419V166.92H339.687L342.711 175.11L345.581 166.92H347.807V177H346.155V169.524L343.453 177ZM354.609 174.9H356.373C356.177 175.647 355.771 176.225 355.155 176.636C354.567 177.019 353.844 177.21 352.985 177.21C351.8 177.21 350.876 176.837 350.213 176.09C349.607 175.409 349.303 174.499 349.303 173.36C349.303 172.053 349.681 171.055 350.437 170.364C351.072 169.795 351.898 169.51 352.915 169.51C354.101 169.51 354.997 169.897 355.603 170.672C356.173 171.391 356.457 172.417 356.457 173.752H351.011C351.077 174.536 351.319 175.11 351.739 175.474C352.075 175.773 352.514 175.922 353.055 175.922C353.438 175.922 353.769 175.829 354.049 175.642C354.329 175.455 354.516 175.208 354.609 174.9ZM354.735 172.604C354.698 171.923 354.493 171.423 354.119 171.106C353.811 170.835 353.41 170.7 352.915 170.7C352.374 170.7 351.94 170.877 351.613 171.232C351.315 171.549 351.123 172.007 351.039 172.604H354.735ZM359.102 174.928C359.233 175.628 359.76 175.978 360.684 175.978C361.197 175.978 361.585 175.88 361.846 175.684C362.061 175.516 362.168 175.297 362.168 175.026C362.168 174.681 361.981 174.424 361.608 174.256C361.393 174.163 360.922 174.032 360.194 173.864C359.298 173.659 358.659 173.379 358.276 173.024C357.893 172.679 357.702 172.226 357.702 171.666C357.702 170.957 357.991 170.411 358.57 170.028C359.083 169.683 359.788 169.51 360.684 169.51C361.608 169.51 362.35 169.729 362.91 170.168C363.395 170.541 363.699 171.045 363.82 171.68H362.112C361.972 171.055 361.487 170.742 360.656 170.742C359.816 170.742 359.396 170.999 359.396 171.512C359.396 171.773 359.503 171.969 359.718 172.1C359.933 172.231 360.367 172.375 361.02 172.534C362.028 172.767 362.728 173.029 363.12 173.318C363.615 173.682 363.862 174.195 363.862 174.858C363.862 175.614 363.554 176.207 362.938 176.636C362.378 177.019 361.622 177.21 360.67 177.21C359.671 177.21 358.873 176.972 358.276 176.496C357.772 176.095 357.478 175.572 357.394 174.928H359.102ZM366.403 174.928C366.533 175.628 367.061 175.978 367.985 175.978C368.498 175.978 368.885 175.88 369.147 175.684C369.361 175.516 369.469 175.297 369.469 175.026C369.469 174.681 369.282 174.424 368.909 174.256C368.694 174.163 368.223 174.032 367.495 173.864C366.599 173.659 365.959 173.379 365.577 173.024C365.194 172.679 365.003 172.226 365.003 171.666C365.003 170.957 365.292 170.411 365.871 170.028C366.384 169.683 367.089 169.51 367.985 169.51C368.909 169.51 369.651 169.729 370.211 170.168C370.696 170.541 370.999 171.045 371.121 171.68H369.413C369.273 171.055 368.787 170.742 367.957 170.742C367.117 170.742 366.697 170.999 366.697 171.512C366.697 171.773 366.804 171.969 367.019 172.1C367.233 172.231 367.667 172.375 368.321 172.534C369.329 172.767 370.029 173.029 370.421 173.318C370.915 173.682 371.163 174.195 371.163 174.858C371.163 175.614 370.855 176.207 370.239 176.636C369.679 177.019 368.923 177.21 367.971 177.21C366.972 177.21 366.174 176.972 365.577 176.496C365.073 176.095 364.779 175.572 364.695 174.928H366.403ZM374.121 171.778H372.371C372.493 171.022 372.871 170.443 373.505 170.042C374.075 169.687 374.789 169.51 375.647 169.51C376.683 169.51 377.477 169.776 378.027 170.308C378.503 170.765 378.741 171.358 378.741 172.086V177H377.397L377.187 176.104C376.618 176.841 375.811 177.21 374.765 177.21C373.935 177.21 373.291 176.986 372.833 176.538C372.432 176.146 372.231 175.647 372.231 175.04C372.231 174.359 372.479 173.827 372.973 173.444C373.421 173.089 374.117 172.833 375.059 172.674L377.061 172.338V171.988C377.061 171.549 376.917 171.223 376.627 171.008C376.375 170.812 376.03 170.714 375.591 170.714C374.723 170.714 374.233 171.069 374.121 171.778ZM377.061 173.444L375.479 173.724C374.938 173.827 374.551 173.971 374.317 174.158C374.084 174.335 373.967 174.587 373.967 174.914C373.967 175.595 374.383 175.936 375.213 175.936C375.755 175.936 376.212 175.759 376.585 175.404C376.903 175.096 377.061 174.737 377.061 174.326V173.444ZM380.359 177.476H382.123C382.3 178.148 382.855 178.484 383.789 178.484C384.993 178.484 385.595 177.91 385.595 176.762V175.95C385.044 176.51 384.297 176.79 383.355 176.79C382.365 176.79 381.563 176.44 380.947 175.74C380.377 175.087 380.093 174.242 380.093 173.206C380.093 171.983 380.443 171.036 381.143 170.364C381.731 169.795 382.487 169.51 383.411 169.51C384.381 169.51 385.137 169.865 385.679 170.574L385.945 169.72H387.275V176.748C387.275 177.709 386.929 178.461 386.239 179.002C385.623 179.487 384.811 179.73 383.803 179.73C382.72 179.73 381.875 179.501 381.269 179.044C380.774 178.661 380.471 178.139 380.359 177.476ZM381.815 173.22C381.815 173.976 382.025 174.559 382.445 174.97C382.79 175.297 383.224 175.46 383.747 175.46C384.419 175.46 384.927 175.241 385.273 174.802C385.571 174.419 385.721 173.897 385.721 173.234C385.721 172.403 385.515 171.778 385.105 171.358C384.769 171.013 384.316 170.84 383.747 170.84C383.121 170.84 382.636 171.064 382.291 171.512C381.973 171.923 381.815 172.492 381.815 173.22ZM390.834 168.614H388.986V166.92H390.834V168.614ZM390.75 177H389.07V169.72H390.75V177ZM394.222 177H392.542V169.72H393.928L394.11 170.588C394.642 169.869 395.38 169.51 396.322 169.51C397.2 169.51 397.872 169.781 398.338 170.322C398.749 170.798 398.954 171.447 398.954 172.268V177H397.274V172.31C397.274 171.311 396.812 170.812 395.888 170.812C395.384 170.812 394.974 170.989 394.656 171.344C394.367 171.671 394.222 172.081 394.222 172.576V177ZM400.579 177.476H402.343C402.521 178.148 403.076 178.484 404.009 178.484C405.213 178.484 405.815 177.91 405.815 176.762V175.95C405.265 176.51 404.518 176.79 403.575 176.79C402.586 176.79 401.783 176.44 401.167 175.74C400.598 175.087 400.313 174.242 400.313 173.206C400.313 171.983 400.663 171.036 401.363 170.364C401.951 169.795 402.707 169.51 403.631 169.51C404.602 169.51 405.358 169.865 405.899 170.574L406.165 169.72H407.495V176.748C407.495 177.709 407.15 178.461 406.459 179.002C405.843 179.487 405.031 179.73 404.023 179.73C402.941 179.73 402.096 179.501 401.489 179.044C400.995 178.661 400.691 178.139 400.579 177.476ZM402.035 173.22C402.035 173.976 402.245 174.559 402.665 174.97C403.011 175.297 403.445 175.46 403.967 175.46C404.639 175.46 405.148 175.241 405.493 174.802C405.792 174.419 405.941 173.897 405.941 173.234C405.941 172.403 405.736 171.778 405.325 171.358C404.989 171.013 404.537 170.84 403.967 170.84C403.342 170.84 402.857 171.064 402.511 171.512C402.194 171.923 402.035 172.492 402.035 173.22ZM413.269 166.92H415.061V173.766C415.061 174.447 415.285 174.97 415.733 175.334C416.134 175.661 416.676 175.824 417.357 175.824C418.15 175.824 418.752 175.614 419.163 175.194C419.518 174.83 419.695 174.354 419.695 173.766V166.92H421.431V173.626C421.431 174.821 421.016 175.735 420.185 176.37C419.466 176.93 418.519 177.21 417.343 177.21C415.99 177.21 414.949 176.846 414.221 176.118C413.586 175.483 413.269 174.653 413.269 173.626V166.92ZM424.426 174.928C424.557 175.628 425.084 175.978 426.008 175.978C426.522 175.978 426.909 175.88 427.17 175.684C427.385 175.516 427.492 175.297 427.492 175.026C427.492 174.681 427.306 174.424 426.932 174.256C426.718 174.163 426.246 174.032 425.518 173.864C424.622 173.659 423.983 173.379 423.6 173.024C423.218 172.679 423.026 172.226 423.026 171.666C423.026 170.957 423.316 170.411 423.894 170.028C424.408 169.683 425.112 169.51 426.008 169.51C426.932 169.51 427.674 169.729 428.234 170.168C428.72 170.541 429.023 171.045 429.144 171.68H427.436C427.296 171.055 426.811 170.742 425.98 170.742C425.14 170.742 424.72 170.999 424.72 171.512C424.72 171.773 424.828 171.969 425.042 172.1C425.257 172.231 425.691 172.375 426.344 172.534C427.352 172.767 428.052 173.029 428.444 173.318C428.939 173.682 429.186 174.195 429.186 174.858C429.186 175.614 428.878 176.207 428.262 176.636C427.702 177.019 426.946 177.21 425.994 177.21C424.996 177.21 424.198 176.972 423.6 176.496C423.096 176.095 422.802 175.572 422.718 174.928H424.426ZM435.561 174.9H437.325C437.129 175.647 436.723 176.225 436.107 176.636C435.519 177.019 434.795 177.21 433.937 177.21C432.751 177.21 431.827 176.837 431.165 176.09C430.558 175.409 430.255 174.499 430.255 173.36C430.255 172.053 430.633 171.055 431.389 170.364C432.023 169.795 432.849 169.51 433.867 169.51C435.052 169.51 435.948 169.897 436.555 170.672C437.124 171.391 437.409 172.417 437.409 173.752H431.963C432.028 174.536 432.271 175.11 432.691 175.474C433.027 175.773 433.465 175.922 434.007 175.922C434.389 175.922 434.721 175.829 435.001 175.642C435.281 175.455 435.467 175.208 435.561 174.9ZM435.687 172.604C435.649 171.923 435.444 171.423 435.071 171.106C434.763 170.835 434.361 170.7 433.867 170.7C433.325 170.7 432.891 170.877 432.565 171.232C432.266 171.549 432.075 172.007 431.991 172.604H435.687ZM443.119 169.608V171.232C442.811 171.139 442.517 171.092 442.237 171.092C441.714 171.092 441.294 171.321 440.977 171.778C440.678 172.217 440.529 172.823 440.529 173.598V177H438.849V169.72H440.235L440.445 170.812C440.856 169.944 441.476 169.51 442.307 169.51C442.606 169.51 442.876 169.543 443.119 169.608ZM445.262 174.928C445.393 175.628 445.92 175.978 446.844 175.978C447.357 175.978 447.745 175.88 448.006 175.684C448.221 175.516 448.328 175.297 448.328 175.026C448.328 174.681 448.141 174.424 447.768 174.256C447.553 174.163 447.082 174.032 446.354 173.864C445.458 173.659 444.819 173.379 444.436 173.024C444.053 172.679 443.862 172.226 443.862 171.666C443.862 170.957 444.151 170.411 444.73 170.028C445.243 169.683 445.948 169.51 446.844 169.51C447.768 169.51 448.51 169.729 449.07 170.168C449.555 170.541 449.859 171.045 449.98 171.68H448.272C448.132 171.055 447.647 170.742 446.816 170.742C445.976 170.742 445.556 170.999 445.556 171.512C445.556 171.773 445.663 171.969 445.878 172.1C446.093 172.231 446.527 172.375 447.18 172.534C448.188 172.767 448.888 173.029 449.28 173.318C449.775 173.682 450.022 174.195 450.022 174.858C450.022 175.614 449.714 176.207 449.098 176.636C448.538 177.019 447.782 177.21 446.83 177.21C445.831 177.21 445.033 176.972 444.436 176.496C443.932 176.095 443.638 175.572 443.554 174.928H445.262Z" fill="white" fill-opacity="0.95"/>
<path d="M463.707 173L467.853 168.853C467.9 168.807 467.937 168.752 467.962 168.691C467.987 168.63 468 168.565 468 168.5C468 168.434 467.987 168.369 467.962 168.308C467.937 168.248 467.9 168.193 467.853 168.146C467.807 168.1 467.752 168.063 467.691 168.038C467.631 168.013 467.566 168 467.5 168C467.434 168 467.369 168.013 467.309 168.038C467.248 168.063 467.193 168.1 467.146 168.146L463 172.293L458.853 168.146C458.807 168.099 458.752 168.062 458.691 168.037C458.63 168.011 458.565 167.998 458.499 167.998C458.433 167.998 458.368 168.011 458.307 168.036C458.246 168.061 458.191 168.098 458.144 168.144C458.098 168.191 458.061 168.246 458.036 168.307C458.011 168.368 457.998 168.433 457.998 168.499C457.998 168.565 458.011 168.63 458.037 168.691C458.062 168.752 458.1 168.807 458.146 168.853L462.293 173L458.146 177.146C458.1 177.193 458.063 177.248 458.038 177.309C458.013 177.369 458 177.434 458 177.5C458 177.566 458.013 177.631 458.038 177.691C458.063 177.752 458.1 177.807 458.146 177.853C458.193 177.9 458.248 177.937 458.309 177.962C458.369 177.987 458.434 178 458.5 178C458.566 178 458.631 177.987 458.691 177.962C458.752 177.937 458.807 177.9 458.853 177.853L463 173.707L467.146 177.853C467.24 177.947 467.367 178 467.5 178C467.633 178 467.76 177.947 467.853 177.853C467.947 177.76 468 177.632 468 177.5C468 177.367 467.947 177.24 467.853 177.146L463.707 173Z" fill="white" fill-opacity="0.95"/>
<rect x="278.5" y="161.5" width="200" height="23" rx="3.5" stroke="white" stroke-opacity="0.3"/>
<path d="M0 297H559C559 309.703 548.703 320 536 320H23C10.2975 320 0 309.703 0 297Z" fill="url(#paint1_linear_144_5559)"/>
<defs>
<linearGradient id="paint0_linear_144_5559" x1="519" y1="25.9997" x2="519" y2="53.9997" gradientUnits="userSpaceOnUse">
<stop stop-color="#F0677E"/>
<stop offset="1" stop-color="#DB1F2E"/>
</linearGradient>
<linearGradient id="paint1_linear_144_5559" x1="279.5" y1="297" x2="279.5" y2="320" gradientUnits="userSpaceOnUse">
<stop stop-color="#F0677E"/>
<stop offset="1" stop-color="#DB1F2E"/>
</linearGradient>
</defs>
</svg>
