<svg width="1151" height="320" viewBox="0 0 1151 320" fill="none" xmlns="http://www.w3.org/2000/svg">
<rect width="559" height="320" rx="24" fill="#262626"/>
<path d="M189.276 113.488V115.344H185.148V120H182.46V108.48H189.772V110.416H185.148V113.488H189.276ZM193.722 110.608H191.034V108.48H193.722V110.608ZM193.626 120H191.13V111.68H193.626V120ZM197.876 108.48V120H195.38V108.48H197.876ZM204.398 118.32V120.016C203.875 120.165 203.369 120.24 202.878 120.24C201.971 120.24 201.278 119.989 200.798 119.488C200.382 119.051 200.174 118.448 200.174 117.68V113.408H198.91V111.68H200.174L200.334 109.68H202.67V111.68H204.382V113.408H202.67V117.76C202.67 117.984 202.739 118.16 202.878 118.288C203.027 118.405 203.23 118.464 203.486 118.464C203.689 118.464 203.993 118.416 204.398 118.32ZM211.075 117.584H213.619C213.405 118.459 212.941 119.125 212.227 119.584C211.523 120.021 210.616 120.24 209.507 120.24C208.099 120.24 206.995 119.803 206.195 118.928C205.48 118.139 205.123 117.109 205.123 115.84C205.123 114.347 205.565 113.211 206.451 112.432C207.208 111.771 208.2 111.44 209.427 111.44C210.877 111.44 211.971 111.909 212.707 112.848C213.379 113.701 213.715 114.901 213.715 116.448H207.651C207.811 117.813 208.472 118.496 209.635 118.496C210.008 118.496 210.323 118.416 210.579 118.256C210.835 118.096 211 117.872 211.075 117.584ZM209.379 113.008C208.365 113.008 207.789 113.669 207.651 114.992H211.155C211.091 113.669 210.499 113.008 209.379 113.008ZM217.564 120H215.068V111.68H217.148L217.42 112.944C217.878 111.941 218.604 111.44 219.596 111.44C219.969 111.44 220.284 111.477 220.54 111.552V113.872C220.198 113.765 219.841 113.712 219.468 113.712C218.902 113.712 218.438 113.984 218.076 114.528C217.734 115.04 217.564 115.712 217.564 116.544V120ZM224.915 118.544C225.843 118.544 226.307 118.283 226.307 117.76C226.307 117.504 226.2 117.323 225.987 117.216C225.784 117.109 225.23 116.944 224.323 116.72C223.288 116.475 222.547 116.171 222.099 115.808C221.566 115.371 221.299 114.779 221.299 114.032C221.299 113.179 221.651 112.523 222.355 112.064C222.984 111.648 223.859 111.44 224.979 111.44C226.12 111.44 227.032 111.696 227.715 112.208C228.302 112.645 228.664 113.237 228.803 113.984H226.291C226.163 113.419 225.704 113.136 224.915 113.136C224.168 113.136 223.795 113.365 223.795 113.824C223.795 114.048 223.902 114.224 224.115 114.352C224.328 114.469 224.798 114.619 225.523 114.8L225.827 114.88C226.787 115.125 227.47 115.381 227.875 115.648C228.515 116.064 228.835 116.656 228.835 117.424C228.835 118.341 228.472 119.051 227.747 119.552C227.064 120.011 226.126 120.24 224.931 120.24C223.736 120.24 222.776 119.968 222.051 119.424C221.443 118.965 221.075 118.373 220.947 117.648H223.459C223.512 117.915 223.672 118.133 223.939 118.304C224.206 118.464 224.531 118.544 224.915 118.544Z" fill="white" fill-opacity="0.95"/>
<g filter="url(#filter0_ddd_144_7104)">
<rect x="181.5" y="151" width="73" height="24" rx="4" fill="#102B2A"/>
<path d="M190.501 156.92H192.307V165.53H197.109V167H190.501V156.92ZM197.915 163.346C197.915 162.021 198.307 161.017 199.091 160.336C199.735 159.785 200.575 159.51 201.611 159.51C202.815 159.51 203.743 159.874 204.397 160.602C205.003 161.265 205.307 162.179 205.307 163.346C205.307 164.671 204.924 165.675 204.159 166.356C203.515 166.925 202.665 167.21 201.611 167.21C200.416 167.21 199.487 166.837 198.825 166.09C198.218 165.409 197.915 164.494 197.915 163.346ZM201.625 165.964C202.287 165.964 202.782 165.721 203.109 165.236C203.417 164.797 203.571 164.167 203.571 163.346C203.571 162.413 203.365 161.727 202.955 161.288C202.628 160.933 202.18 160.756 201.611 160.756C200.957 160.756 200.463 160.994 200.127 161.47C199.809 161.909 199.651 162.534 199.651 163.346C199.651 164.27 199.856 164.956 200.267 165.404C200.612 165.777 201.065 165.964 201.625 165.964ZM211.488 164.634H213.28C213.14 165.446 212.753 166.085 212.118 166.552C211.521 166.991 210.783 167.21 209.906 167.21C208.749 167.21 207.853 166.841 207.218 166.104C206.649 165.441 206.364 164.55 206.364 163.43C206.364 162.123 206.728 161.12 207.456 160.42C208.091 159.813 208.912 159.51 209.92 159.51C210.863 159.51 211.642 159.753 212.258 160.238C212.799 160.667 213.131 161.223 213.252 161.904H211.432C211.348 161.559 211.175 161.288 210.914 161.092C210.653 160.887 210.335 160.784 209.962 160.784C209.355 160.784 208.893 161.027 208.576 161.512C208.277 161.969 208.128 162.623 208.128 163.472C208.128 164.331 208.329 164.979 208.73 165.418C209.047 165.763 209.449 165.936 209.934 165.936C210.345 165.936 210.681 165.824 210.942 165.6C211.213 165.376 211.395 165.054 211.488 164.634ZM216.211 161.778H214.461C214.582 161.022 214.96 160.443 215.595 160.042C216.164 159.687 216.878 159.51 217.737 159.51C218.773 159.51 219.566 159.776 220.117 160.308C220.593 160.765 220.831 161.358 220.831 162.086V167H219.487L219.277 166.104C218.708 166.841 217.9 167.21 216.855 167.21C216.024 167.21 215.38 166.986 214.923 166.538C214.522 166.146 214.321 165.647 214.321 165.04C214.321 164.359 214.568 163.827 215.063 163.444C215.511 163.089 216.206 162.833 217.149 162.674L219.151 162.338V161.988C219.151 161.549 219.006 161.223 218.717 161.008C218.465 160.812 218.12 160.714 217.681 160.714C216.813 160.714 216.323 161.069 216.211 161.778ZM219.151 163.444L217.569 163.724C217.028 163.827 216.64 163.971 216.407 164.158C216.174 164.335 216.057 164.587 216.057 164.914C216.057 165.595 216.472 165.936 217.303 165.936C217.844 165.936 218.302 165.759 218.675 165.404C218.992 165.096 219.151 164.737 219.151 164.326V163.444ZM226.158 165.768V167.042C225.766 167.154 225.393 167.21 225.038 167.21C224.32 167.21 223.774 166.995 223.4 166.566C223.083 166.202 222.924 165.712 222.924 165.096V161.008H221.832V159.72H222.924L223.036 157.97H224.604V159.72H226.144V161.008H224.604V165.152C224.604 165.637 224.852 165.88 225.346 165.88C225.561 165.88 225.832 165.843 226.158 165.768ZM229.068 158.614H227.22V156.92H229.068V158.614ZM228.984 167H227.304V159.72H228.984V167ZM230.413 163.346C230.413 162.021 230.805 161.017 231.589 160.336C232.233 159.785 233.073 159.51 234.109 159.51C235.313 159.51 236.242 159.874 236.895 160.602C237.502 161.265 237.805 162.179 237.805 163.346C237.805 164.671 237.422 165.675 236.657 166.356C236.013 166.925 235.164 167.21 234.109 167.21C232.914 167.21 231.986 166.837 231.323 166.09C230.716 165.409 230.413 164.494 230.413 163.346ZM234.123 165.964C234.786 165.964 235.28 165.721 235.607 165.236C235.915 164.797 236.069 164.167 236.069 163.346C236.069 162.413 235.864 161.727 235.453 161.288C235.126 160.933 234.678 160.756 234.109 160.756C233.456 160.756 232.961 160.994 232.625 161.47C232.308 161.909 232.149 162.534 232.149 163.346C232.149 164.27 232.354 164.956 232.765 165.404C233.11 165.777 233.563 165.964 234.123 165.964ZM240.906 167H239.226V159.72H240.612L240.794 160.588C241.326 159.869 242.063 159.51 243.006 159.51C243.883 159.51 244.555 159.781 245.022 160.322C245.433 160.798 245.638 161.447 245.638 162.268V167H243.958V162.31C243.958 161.311 243.496 160.812 242.572 160.812C242.068 160.812 241.657 160.989 241.34 161.344C241.051 161.671 240.906 162.081 240.906 162.576V167Z" fill="white" fill-opacity="0.95"/>
<rect x="182" y="151.5" width="72" height="23" rx="3.5" stroke="#30C9B0"/>
</g>
<rect x="271" y="151.5" width="49" height="23" rx="3.5" fill="#102B2A"/>
<path d="M279.52 156.92H282.936C285.68 156.92 287.052 158.026 287.052 160.238C287.052 162.413 285.68 163.5 282.936 163.5H281.312V167H279.52V156.92ZM281.312 162.156H282.964C284.448 162.156 285.19 161.517 285.19 160.238C285.19 159.547 284.975 159.034 284.546 158.698C284.163 158.409 283.636 158.264 282.964 158.264H281.312V162.156ZM292.743 159.608V161.232C292.435 161.139 292.141 161.092 291.861 161.092C291.338 161.092 290.918 161.321 290.601 161.778C290.302 162.217 290.153 162.823 290.153 163.598V167H288.473V159.72H289.859L290.069 160.812C290.48 159.944 291.1 159.51 291.931 159.51C292.23 159.51 292.5 159.543 292.743 159.608ZM295.446 158.614H293.598V156.92H295.446V158.614ZM295.362 167H293.682V159.72H295.362V167ZM301.915 164.634H303.707C303.567 165.446 303.179 166.085 302.545 166.552C301.947 166.991 301.21 167.21 300.333 167.21C299.175 167.21 298.279 166.841 297.645 166.104C297.075 165.441 296.791 164.55 296.791 163.43C296.791 162.123 297.155 161.12 297.883 160.42C298.517 159.813 299.339 159.51 300.347 159.51C301.289 159.51 302.069 159.753 302.685 160.238C303.226 160.667 303.557 161.223 303.679 161.904H301.859C301.775 161.559 301.602 161.288 301.341 161.092C301.079 160.887 300.762 160.784 300.389 160.784C299.782 160.784 299.32 161.027 299.003 161.512C298.704 161.969 298.555 162.623 298.555 163.472C298.555 164.331 298.755 164.979 299.157 165.418C299.474 165.763 299.875 165.936 300.361 165.936C300.771 165.936 301.107 165.824 301.369 165.6C301.639 165.376 301.821 165.054 301.915 164.634ZM310.054 164.9H311.818C311.622 165.647 311.216 166.225 310.6 166.636C310.012 167.019 309.288 167.21 308.43 167.21C307.244 167.21 306.32 166.837 305.658 166.09C305.051 165.409 304.748 164.499 304.748 163.36C304.748 162.053 305.126 161.055 305.882 160.364C306.516 159.795 307.342 159.51 308.36 159.51C309.545 159.51 310.441 159.897 311.048 160.672C311.617 161.391 311.902 162.417 311.902 163.752H306.456C306.521 164.536 306.764 165.11 307.184 165.474C307.52 165.773 307.958 165.922 308.5 165.922C308.882 165.922 309.214 165.829 309.494 165.642C309.774 165.455 309.96 165.208 310.054 164.9ZM310.18 162.604C310.142 161.923 309.937 161.423 309.564 161.106C309.256 160.835 308.854 160.7 308.36 160.7C307.818 160.7 307.384 160.877 307.058 161.232C306.759 161.549 306.568 162.007 306.484 162.604H310.18Z" fill="white" fill-opacity="0.95"/>
<rect x="271" y="151.5" width="49" height="23" rx="3.5" stroke="#30C9B0"/>
<rect x="337" y="151.5" width="48" height="23" rx="3.5" fill="#102B2A"/>
<path d="M352.903 156.92V158.39H349.669V167H347.877V158.39H344.685V156.92H352.903ZM360.415 159.72L357.853 167.126C357.517 168.106 357.162 168.783 356.789 169.156C356.415 169.539 355.93 169.73 355.333 169.73C355.034 169.73 354.703 169.683 354.339 169.59V168.33C354.628 168.405 354.889 168.442 355.123 168.442C355.421 168.442 355.659 168.311 355.837 168.05C355.967 167.854 356.117 167.504 356.285 167H355.767L353.121 159.72H354.927L356.803 165.712L358.735 159.72H360.415ZM361.424 159.72H362.754L363.048 160.616C363.636 159.879 364.434 159.51 365.442 159.51C366.488 159.51 367.3 159.879 367.878 160.616C368.401 161.288 368.662 162.175 368.662 163.276C368.662 164.592 368.303 165.605 367.584 166.314C366.987 166.911 366.226 167.21 365.302 167.21C364.369 167.21 363.636 166.869 363.104 166.188V169.52H361.424V159.72ZM366.94 163.29C366.94 162.422 366.735 161.773 366.324 161.344C365.998 161.008 365.564 160.84 365.022 160.84C364.397 160.84 363.902 161.069 363.538 161.526C363.202 161.965 363.034 162.548 363.034 163.276C363.034 164.191 363.24 164.872 363.65 165.32C363.996 165.693 364.444 165.88 364.994 165.88C365.638 165.88 366.128 165.642 366.464 165.166C366.782 164.718 366.94 164.093 366.94 163.29ZM375.034 164.9H376.798C376.602 165.647 376.196 166.225 375.58 166.636C374.992 167.019 374.269 167.21 373.41 167.21C372.225 167.21 371.301 166.837 370.638 166.09C370.032 165.409 369.728 164.499 369.728 163.36C369.728 162.053 370.106 161.055 370.862 160.364C371.497 159.795 372.323 159.51 373.34 159.51C374.526 159.51 375.422 159.897 376.028 160.672C376.598 161.391 376.882 162.417 376.882 163.752H371.436C371.502 164.536 371.744 165.11 372.164 165.474C372.5 165.773 372.939 165.922 373.48 165.922C373.863 165.922 374.194 165.829 374.474 165.642C374.754 165.455 374.941 165.208 375.034 164.9ZM375.16 162.604C375.123 161.923 374.918 161.423 374.544 161.106C374.236 160.835 373.835 160.7 373.34 160.7C372.799 160.7 372.365 160.877 372.038 161.232C371.74 161.549 371.548 162.007 371.464 162.604H375.16Z" fill="white" fill-opacity="0.95"/>
<rect x="337" y="151.5" width="48" height="23" rx="3.5" stroke="#30C9B0"/>
<rect x="172.5" y="142" width="91" height="42" rx="5" stroke="#DA0087" stroke-width="2"/>
<rect x="174.5" y="144" width="87" height="38" rx="3" stroke="white" stroke-width="2"/>
<rect x="266.5" y="142" width="59" height="42" rx="5" stroke="#DA0087" stroke-width="2"/>
<rect x="268.5" y="144" width="55" height="38" rx="3" stroke="white" stroke-width="2"/>
<path d="M338 124V123" stroke="#DA0087"/>
<path d="M338 115L334 123H342L338 115Z" fill="#DA0087"/>
<rect x="312.5" y="116" width="51" height="28" rx="14" fill="#DA0087"/>
<path d="M333.988 123.48V124.936H330.116V135H328.484V124.936H324.66V123.48H333.988ZM335.291 129H333.659C333.745 128.168 334.139 127.523 334.843 127.064C335.473 126.648 336.267 126.44 337.227 126.44C338.369 126.44 339.243 126.739 339.851 127.336C340.363 127.848 340.619 128.509 340.619 129.32V135H339.355L339.163 133.864C338.513 134.781 337.585 135.24 336.379 135.24C335.43 135.24 334.689 134.984 334.155 134.472C333.718 134.045 333.499 133.507 333.499 132.856C333.499 132.035 333.782 131.4 334.347 130.952C334.849 130.557 335.617 130.269 336.651 130.088L339.083 129.672V129.256C339.083 128.712 338.897 128.301 338.523 128.024C338.193 127.779 337.739 127.656 337.163 127.656C336.033 127.656 335.409 128.104 335.291 129ZM336.747 133.944C337.398 133.944 337.963 133.731 338.443 133.304C338.87 132.909 339.083 132.456 339.083 131.944V130.872L337.019 131.24C336.262 131.368 335.745 131.565 335.467 131.832C335.243 132.045 335.131 132.333 335.131 132.696C335.131 133.101 335.27 133.411 335.547 133.624C335.825 133.837 336.225 133.944 336.747 133.944ZM344.04 135H342.776V123.48H344.312V127.832C344.963 126.904 345.891 126.44 347.096 126.44C348.291 126.44 349.219 126.867 349.88 127.72C350.467 128.488 350.76 129.507 350.76 130.776C350.76 132.28 350.36 133.432 349.56 134.232C348.888 134.904 348.03 135.24 346.984 135.24C345.8 135.24 344.899 134.792 344.28 133.896L344.04 135ZM349.16 130.744C349.16 129.699 348.899 128.915 348.376 128.392C347.96 127.965 347.416 127.752 346.744 127.752C345.966 127.752 345.347 128.035 344.888 128.6C344.451 129.144 344.232 129.859 344.232 130.744C344.232 131.811 344.494 132.627 345.016 133.192C345.454 133.683 346.03 133.928 346.744 133.928C347.544 133.928 348.152 133.635 348.568 133.048C348.963 132.504 349.16 131.736 349.16 130.744Z" fill="white"/>
<path d="M604.195 26.515C606.365 26.515 608.15 25.8267 609.55 24.45C610.763 23.26 611.417 21.8133 611.51 20.11H615.115C615.022 21.7667 614.508 23.3067 613.575 24.73C612.618 26.1767 611.347 27.32 609.76 28.16C608.057 29.07 606.178 29.525 604.125 29.525C600.322 29.525 597.382 28.23 595.305 25.64C593.485 23.3533 592.575 20.2733 592.575 16.4C592.575 11.9667 593.823 8.57167 596.32 6.215C598.397 4.255 601.092 3.275 604.405 3.275C607.555 3.275 610.168 4.24333 612.245 6.18C613.972 7.76667 614.917 9.66833 615.08 11.885H611.475C611.242 10.0417 610.413 8.60667 608.99 7.58C607.73 6.69333 606.202 6.25 604.405 6.25C601.722 6.25 599.657 7.20667 598.21 9.12C596.88 10.87 596.215 13.2967 596.215 16.4C596.215 19.8067 597.055 22.42 598.735 24.24C600.135 25.7567 601.955 26.515 604.195 26.515ZM616.498 19.9C616.498 16.5633 617.49 14.0433 619.473 12.34C621.06 10.9633 623.066 10.275 625.493 10.275C628.316 10.275 630.533 11.1733 632.143 12.97C633.683 14.65 634.453 16.96 634.453 19.9C634.453 23.19 633.485 25.6983 631.548 27.425C629.961 28.825 627.931 29.525 625.458 29.525C622.635 29.525 620.406 28.5917 618.773 26.725C617.256 25.0217 616.498 22.7467 616.498 19.9ZM619.998 19.9C619.998 22.2333 620.593 24.0183 621.783 25.255C622.763 26.2817 624.011 26.795 625.528 26.795C627.301 26.795 628.666 26.13 629.623 24.8C630.51 23.5867 630.953 21.9533 630.953 19.9C630.953 17.52 630.37 15.7233 629.203 14.51C628.246 13.5067 627.01 13.005 625.493 13.005C623.743 13.005 622.378 13.67 621.398 15C620.465 16.2133 619.998 17.8467 619.998 19.9ZM640.255 29H636.895V10.8H639.66L640.045 13.11C641.398 11.22 643.242 10.275 645.575 10.275C647.722 10.275 649.367 10.94 650.51 12.27C651.513 13.46 652.015 15.0817 652.015 17.135V29H648.655V17.17C648.655 14.4867 647.36 13.145 644.77 13.145C643.417 13.145 642.308 13.6117 641.445 14.545C640.652 15.385 640.255 16.4583 640.255 17.765V29ZM663.474 26.305V29.175C662.61 29.4083 661.782 29.525 660.989 29.525C659.309 29.525 658.049 29 657.209 27.95C656.485 27.0867 656.124 25.9317 656.124 24.485V13.67H653.429V10.8H656.124L656.334 6.425H659.484V10.8H663.404V13.67H659.484V24.555C659.484 25.9083 660.125 26.585 661.409 26.585C662.015 26.585 662.704 26.4917 663.474 26.305ZM668.593 29H665.233V10.8H667.998L668.453 13.495C669.479 11.3483 671.019 10.275 673.073 10.275C673.749 10.275 674.414 10.3567 675.068 10.52V13.88C674.274 13.67 673.563 13.565 672.933 13.565C671.579 13.565 670.518 14.1133 669.748 15.21C668.978 16.3067 668.593 17.8583 668.593 19.865V29ZM674.917 19.9C674.917 16.5633 675.908 14.0433 677.892 12.34C679.478 10.9633 681.485 10.275 683.912 10.275C686.735 10.275 688.952 11.1733 690.562 12.97C692.102 14.65 692.872 16.96 692.872 19.9C692.872 23.19 691.903 25.6983 689.967 27.425C688.38 28.825 686.35 29.525 683.877 29.525C681.053 29.525 678.825 28.5917 677.192 26.725C675.675 25.0217 674.917 22.7467 674.917 19.9ZM678.417 19.9C678.417 22.2333 679.012 24.0183 680.202 25.255C681.182 26.2817 682.43 26.795 683.947 26.795C685.72 26.795 687.085 26.13 688.042 24.8C688.928 23.5867 689.372 21.9533 689.372 19.9C689.372 17.52 688.788 15.7233 687.622 14.51C686.665 13.5067 685.428 13.005 683.912 13.005C682.162 13.005 680.797 13.67 679.817 15C678.883 16.2133 678.417 17.8467 678.417 19.9ZM698.674 3.8V29H695.314V3.8H698.674ZM712.825 24.065C712.825 23.0383 712.288 22.2683 711.215 21.755C710.585 21.475 709.36 21.125 707.54 20.705C705.3 20.215 703.702 19.5033 702.745 18.57C701.952 17.7767 701.555 16.7383 701.555 15.455C701.555 13.7517 702.243 12.445 703.62 11.535C704.857 10.695 706.525 10.275 708.625 10.275C710.795 10.275 712.557 10.8117 713.91 11.885C715.077 12.8183 715.8 14.055 716.08 15.595H712.65C712.253 13.8217 710.9 12.935 708.59 12.935C707.307 12.935 706.35 13.1683 705.72 13.635C705.207 14.0317 704.95 14.5333 704.95 15.14C704.95 15.8867 705.23 16.4467 705.79 16.82C706.373 17.1933 707.505 17.5667 709.185 17.94C711.752 18.5 713.537 19.1883 714.54 20.005C715.66 20.915 716.22 22.1867 716.22 23.82C716.22 25.64 715.473 27.075 713.98 28.125C712.627 29.0583 710.842 29.525 708.625 29.525C706.198 29.525 704.273 28.9417 702.85 27.775C701.613 26.7483 700.925 25.4183 700.785 23.785H704.215C704.588 25.8383 706.07 26.865 708.66 26.865C710.06 26.865 711.145 26.5617 711.915 25.955C712.522 25.465 712.825 24.835 712.825 24.065Z" fill="white" fill-opacity="0.95"/>
<rect x="590" y="66" width="90" height="72" rx="9" fill="#08599C"/>
<path d="M612.568 83.48V85.496H609.144V95H606.456V85.496H603.08V83.48H612.568ZM614.959 89.08H612.399C612.613 88.184 613.098 87.5067 613.855 87.048C614.538 86.6427 615.391 86.44 616.415 86.44C617.653 86.44 618.607 86.7493 619.279 87.368C619.866 87.9013 620.159 88.6107 620.159 89.496V95H618.207L617.903 94.136C617.263 94.872 616.346 95.24 615.151 95.24C614.223 95.24 613.493 94.9787 612.959 94.456C612.479 93.9973 612.239 93.3787 612.239 92.6C612.239 91.8747 612.522 91.304 613.087 90.888C613.631 90.4827 614.469 90.184 615.599 89.992L617.663 89.656V89.288C617.663 88.4667 617.221 88.056 616.335 88.056C615.557 88.056 615.098 88.3973 614.959 89.08ZM615.871 93.528C616.447 93.528 616.906 93.352 617.247 93C617.525 92.7013 617.663 92.344 617.663 91.928V91.016L616.239 91.304C615.695 91.4107 615.306 91.56 615.071 91.752C614.847 91.9333 614.735 92.1787 614.735 92.488C614.735 93.1813 615.114 93.528 615.871 93.528ZM624.113 95H622.161V83.48H624.657V87.464C625.318 86.7813 626.155 86.44 627.169 86.44C628.395 86.44 629.334 86.8293 629.985 87.608C630.582 88.3227 630.881 89.304 630.881 90.552C630.881 92.1307 630.459 93.3413 629.617 94.184C628.923 94.888 628.033 95.24 626.945 95.24C625.953 95.24 625.142 94.872 624.513 94.136L624.113 95ZM628.369 90.776C628.369 89.1013 627.75 88.264 626.513 88.264C625.883 88.264 625.398 88.4933 625.057 88.952C624.737 89.3893 624.577 89.9867 624.577 90.744C624.577 92.5253 625.195 93.416 626.433 93.416C627.062 93.416 627.547 93.1707 627.889 92.68C628.209 92.2213 628.369 91.5867 628.369 90.776Z" fill="#C7EEFF"/>
<path d="M633.986 107.405C633.985 107.184 634.164 107.005 634.385 107.004L635.585 107.001C635.806 107 635.985 107.179 635.986 107.4L636.015 118.6C636.015 118.821 635.837 119 635.616 119.001L634.416 119.004C634.195 119.005 634.015 118.826 634.015 118.605L634.005 114.964C634.004 114.609 633.574 114.431 633.322 114.683L629.583 118.422C629.331 118.674 628.9 118.496 628.9 118.139V114.405C628.9 114.184 628.721 114.005 628.5 114.005H603.4C603.179 114.005 603 113.826 603 113.605V112.405C603 112.184 603.179 112.005 603.4 112.005H628.5C628.721 112.005 628.9 111.826 628.9 111.605V107.96C628.9 107.605 629.327 107.426 629.58 107.674L633.315 111.348C633.568 111.597 633.996 111.417 633.995 111.061L633.986 107.405Z" fill="#C7EEFF"/>
<rect x="590" y="66" width="90" height="72" rx="9" stroke="#5EBFF7" stroke-width="2"/>
<path d="M704.488 95.48V96.936H700.616V107H698.984V96.936H695.16V95.48H704.488ZM703.999 102.84C703.999 99.848 705.855 98.44 708.111 98.44C710.383 98.44 712.207 99.848 712.207 102.84C712.207 105.752 710.447 107.24 708.095 107.24C705.775 107.24 703.999 105.72 703.999 102.84ZM705.599 102.84C705.599 104.904 706.687 105.992 708.127 105.992C709.599 105.992 710.607 104.904 710.607 102.84C710.607 100.728 709.535 99.688 708.111 99.688C706.687 99.688 705.599 100.76 705.599 102.84ZM720.297 107H718.761V98.68H720.025L720.185 99.656C720.793 98.776 721.705 98.44 722.633 98.44C723.737 98.44 724.617 98.888 725.081 99.752C725.721 98.744 726.777 98.44 727.785 98.44C729.481 98.44 730.601 99.448 730.601 101.432V107H729.065V101.544C729.065 100.28 728.521 99.752 727.449 99.752C726.217 99.752 725.449 100.792 725.449 101.928V107H723.913V101.544C723.913 100.264 723.353 99.752 722.297 99.752C721.177 99.752 720.297 100.696 720.297 101.88V107ZM732.281 102.84C732.281 99.848 734.137 98.44 736.393 98.44C738.665 98.44 740.489 99.848 740.489 102.84C740.489 105.752 738.729 107.24 736.377 107.24C734.057 107.24 732.281 105.72 732.281 102.84ZM733.881 102.84C733.881 104.904 734.969 105.992 736.409 105.992C737.881 105.992 738.889 104.904 738.889 102.84C738.889 100.728 737.817 99.688 736.393 99.688C734.969 99.688 733.881 100.76 733.881 102.84ZM747.277 98.68H748.877L745.949 107H743.869L740.973 98.68H742.653L744.957 105.752L747.277 98.68ZM755.503 104.6H757.167C756.751 106.12 755.439 107.24 753.439 107.24C751.071 107.24 749.359 105.768 749.359 102.84C749.359 99.944 751.055 98.44 753.359 98.44C755.663 98.44 757.263 99.816 757.263 103.176H750.927C751.055 105.096 752.095 105.944 753.487 105.944C754.495 105.944 755.263 105.368 755.503 104.6ZM750.991 101.96H755.695C755.583 100.408 754.671 99.672 753.391 99.672C752.159 99.672 751.231 100.424 750.991 101.96ZM768.013 95.432V96.76C767.501 96.632 767.117 96.568 766.749 96.568C766.189 96.568 765.869 96.904 765.869 97.416V98.68H767.661V99.992H765.869V107H764.333V99.992H763.101V98.68H764.333V97.512C764.333 96.136 765.277 95.24 766.653 95.24C767.213 95.24 767.581 95.32 768.013 95.432ZM768.578 102.84C768.578 99.848 770.434 98.44 772.69 98.44C774.962 98.44 776.786 99.848 776.786 102.84C776.786 105.752 775.026 107.24 772.674 107.24C770.354 107.24 768.578 105.72 768.578 102.84ZM770.178 102.84C770.178 104.904 771.266 105.992 772.706 105.992C774.178 105.992 775.186 104.904 775.186 102.84C775.186 100.728 774.114 99.688 772.69 99.688C771.266 99.688 770.178 100.76 770.178 102.84ZM783.966 104.328H785.646C785.422 105.944 784.062 107.24 781.998 107.24C779.79 107.24 778.062 105.72 778.062 102.904C778.062 100.12 779.63 98.44 781.982 98.44C783.87 98.44 785.31 99.448 785.582 101.144H783.886C783.678 100.232 782.99 99.736 782.014 99.736C780.654 99.736 779.694 100.744 779.694 102.952C779.694 104.984 780.734 105.944 782.03 105.944C783.054 105.944 783.806 105.368 783.966 104.328ZM787.321 98.68H788.857V104.136C788.857 105.368 789.513 105.928 790.585 105.928C791.977 105.928 792.633 104.888 792.633 103.752V98.68H794.169V107H792.905L792.729 106.04C792.137 106.84 791.241 107.24 790.233 107.24C788.521 107.24 787.321 106.232 787.321 104.104V98.68ZM795.777 104.616H797.345C797.521 105.608 798.209 106.024 799.377 106.024C800.625 106.024 801.281 105.464 801.281 104.744C801.281 103.768 800.353 103.544 798.865 103.208C796.913 102.776 796.129 102.04 796.129 100.808C796.129 99.384 797.265 98.44 799.361 98.44C801.217 98.44 802.497 99.352 802.769 100.872H801.201C801.025 100.104 800.401 99.656 799.345 99.656C798.193 99.656 797.681 100.088 797.681 100.664C797.681 101.304 798.017 101.592 799.617 101.944C801.553 102.376 802.833 102.92 802.833 104.632C802.833 106.152 801.569 107.24 799.361 107.24C797.281 107.24 795.921 106.216 795.777 104.616ZM813.098 105.768V107.08C812.682 107.192 812.346 107.24 811.962 107.24C810.49 107.24 809.738 106.312 809.738 104.936V99.992H808.506V98.68H809.738L809.834 96.68H811.274V98.68H813.066V99.992H811.274V104.968C811.274 105.592 811.578 105.896 812.154 105.896C812.426 105.896 812.634 105.88 813.098 105.768ZM813.984 102.84C813.984 99.848 815.84 98.44 818.096 98.44C820.368 98.44 822.192 99.848 822.192 102.84C822.192 105.752 820.432 107.24 818.08 107.24C815.76 107.24 813.984 105.72 813.984 102.84ZM815.584 102.84C815.584 104.904 816.672 105.992 818.112 105.992C819.584 105.992 820.592 104.904 820.592 102.84C820.592 100.728 819.52 99.688 818.096 99.688C816.672 99.688 815.584 100.76 815.584 102.84ZM830.281 107H828.745V98.68H830.009L830.185 99.736C830.793 98.888 831.721 98.44 832.713 98.44C834.521 98.44 835.657 99.544 835.657 101.576V107H834.121V101.592C834.121 100.344 833.481 99.752 832.345 99.752C831.241 99.752 830.281 100.552 830.281 101.864V107ZM843.487 104.6H845.151C844.735 106.12 843.423 107.24 841.423 107.24C839.055 107.24 837.343 105.768 837.343 102.84C837.343 99.944 839.039 98.44 841.343 98.44C843.647 98.44 845.247 99.816 845.247 103.176H838.911C839.039 105.096 840.079 105.944 841.471 105.944C842.479 105.944 843.247 105.368 843.487 104.6ZM838.975 101.96H843.679C843.567 100.408 842.655 99.672 841.375 99.672C840.143 99.672 839.215 100.424 838.975 101.96ZM853.793 98.68L851.009 102.568L854.273 107H852.401L850.145 103.784L847.937 107H846.129L849.233 102.68L846.321 98.68H848.161L850.145 101.48L852.033 98.68H853.793ZM859.27 105.768V107.08C858.854 107.192 858.518 107.24 858.134 107.24C856.662 107.24 855.91 106.312 855.91 104.936V99.992H854.678V98.68H855.91L856.006 96.68H857.446V98.68H859.238V99.992H857.446V104.968C857.446 105.592 857.75 105.896 858.326 105.896C858.598 105.896 858.806 105.88 859.27 105.768ZM871.175 104.6H872.839C872.423 106.12 871.111 107.24 869.111 107.24C866.743 107.24 865.031 105.768 865.031 102.84C865.031 99.944 866.727 98.44 869.031 98.44C871.335 98.44 872.935 99.816 872.935 103.176H866.599C866.727 105.096 867.767 105.944 869.159 105.944C870.167 105.944 870.935 105.368 871.175 104.6ZM866.663 101.96H871.367C871.255 100.408 870.343 99.672 869.063 99.672C867.831 99.672 866.903 100.424 866.663 101.96ZM876.312 95.48V107H874.776V95.48H876.312ZM884.222 104.6H885.885C885.47 106.12 884.158 107.24 882.158 107.24C879.789 107.24 878.078 105.768 878.078 102.84C878.078 99.944 879.774 98.44 882.078 98.44C884.382 98.44 885.982 99.816 885.982 103.176H879.646C879.774 105.096 880.814 105.944 882.206 105.944C883.214 105.944 883.982 105.368 884.222 104.6ZM879.71 101.96H884.414C884.302 100.408 883.39 99.672 882.11 99.672C880.878 99.672 879.95 100.424 879.71 101.96ZM889.359 107H887.823V98.68H889.087L889.247 99.656C889.855 98.776 890.767 98.44 891.695 98.44C892.799 98.44 893.679 98.888 894.143 99.752C894.783 98.744 895.839 98.44 896.847 98.44C898.543 98.44 899.663 99.448 899.663 101.432V107H898.127V101.544C898.127 100.28 897.583 99.752 896.511 99.752C895.279 99.752 894.511 100.792 894.511 101.928V107H892.975V101.544C892.975 100.264 892.415 99.752 891.359 99.752C890.239 99.752 889.359 100.696 889.359 101.88V107ZM907.487 104.6H909.151C908.735 106.12 907.423 107.24 905.423 107.24C903.055 107.24 901.343 105.768 901.343 102.84C901.343 99.944 903.039 98.44 905.343 98.44C907.647 98.44 909.247 99.816 909.247 103.176H902.911C903.039 105.096 904.079 105.944 905.471 105.944C906.479 105.944 907.247 105.368 907.487 104.6ZM902.975 101.96H907.679C907.567 100.408 906.655 99.672 905.375 99.672C904.143 99.672 903.215 100.424 902.975 101.96ZM912.625 107H911.089V98.68H912.353L912.529 99.736C913.137 98.888 914.065 98.44 915.057 98.44C916.865 98.44 918.001 99.544 918.001 101.576V107H916.465V101.592C916.465 100.344 915.825 99.752 914.689 99.752C913.585 99.752 912.625 100.552 912.625 101.864V107ZM923.879 105.768V107.08C923.463 107.192 923.127 107.24 922.743 107.24C921.271 107.24 920.519 106.312 920.519 104.936V99.992H919.287V98.68H920.519L920.615 96.68H922.055V98.68H923.847V99.992H922.055V104.968C922.055 105.592 922.359 105.896 922.935 105.896C923.207 105.896 923.415 105.88 923.879 105.768Z" fill="white" fill-opacity="0.95"/>
<defs>
<filter id="filter0_ddd_144_7104" x="176.5" y="146" width="83" height="34" filterUnits="userSpaceOnUse" color-interpolation-filters="sRGB">
<feFlood flood-opacity="0" result="BackgroundImageFix"/>
<feColorMatrix in="SourceAlpha" type="matrix" values="0 0 0 0 0 0 0 0 0 0 0 0 0 0 0 0 0 0 127 0" result="hardAlpha"/>
<feMorphology radius="4" operator="dilate" in="SourceAlpha" result="effect1_dropShadow_144_7104"/>
<feOffset/>
<feComposite in2="hardAlpha" operator="out"/>
<feColorMatrix type="matrix" values="0 0 0 0 0.392157 0 0 0 0 0.705882 0 0 0 0 0.980392 0 0 0 1 0"/>
<feBlend mode="normal" in2="BackgroundImageFix" result="effect1_dropShadow_144_7104"/>
<feColorMatrix in="SourceAlpha" type="matrix" values="0 0 0 0 0 0 0 0 0 0 0 0 0 0 0 0 0 0 127 0" result="hardAlpha"/>
<feMorphology radius="5" operator="dilate" in="SourceAlpha" result="effect2_dropShadow_144_7104"/>
<feOffset/>
<feComposite in2="hardAlpha" operator="out"/>
<feColorMatrix type="matrix" values="0 0 0 0 0.392157 0 0 0 0 0.705882 0 0 0 0 0.980392 0 0 0 0.3 0"/>
<feBlend mode="normal" in2="effect1_dropShadow_144_7104" result="effect2_dropShadow_144_7104"/>
<feColorMatrix in="SourceAlpha" type="matrix" values="0 0 0 0 0 0 0 0 0 0 0 0 0 0 0 0 0 0 127 0" result="hardAlpha"/>
<feMorphology radius="2" operator="dilate" in="SourceAlpha" result="effect3_dropShadow_144_7104"/>
<feOffset/>
<feComposite in2="hardAlpha" operator="out"/>
<feColorMatrix type="matrix" values="0 0 0 0 0 0 0 0 0 0 0 0 0 0 0 0 0 0 1 0"/>
<feBlend mode="normal" in2="effect2_dropShadow_144_7104" result="effect3_dropShadow_144_7104"/>
<feBlend mode="normal" in="SourceGraphic" in2="effect3_dropShadow_144_7104" result="shape"/>
</filter>
</defs>
</svg>
