<svg width="1150" height="300" viewBox="0 0 1150 300" fill="none" xmlns="http://www.w3.org/2000/svg">
<rect width="1150" height="300" rx="20" fill="#262626"/>
<rect x="211" y="112.5" width="63" height="23" rx="3.5" fill="#0A274A"/>
<path d="M224.1 128.1C224.034 128.1 223.969 128.087 223.908 128.062C223.847 128.037 223.792 127.999 223.746 127.953L220.146 124.335C220.099 124.288 220.063 124.233 220.038 124.172C220.013 124.112 220 124.047 220 123.981C220 123.915 220.014 123.85 220.039 123.79C220.064 123.729 220.101 123.674 220.148 123.628C220.194 123.582 220.249 123.545 220.31 123.52C220.371 123.495 220.436 123.482 220.502 123.482C220.567 123.483 220.632 123.496 220.693 123.521C220.753 123.546 220.808 123.583 220.855 123.63L224.127 126.918L232.175 120.021C232.276 119.935 232.406 119.892 232.539 119.902C232.671 119.912 232.793 119.975 232.88 120.075C232.966 120.176 233.009 120.307 232.998 120.439C232.988 120.571 232.926 120.693 232.825 120.78L224.425 127.979C224.335 128.057 224.22 128.1 224.1 128.1Z" fill="white" fill-opacity="0.95"/>
<path d="M246.851 117.92V119.39H243.617V128H241.825V119.39H238.633V117.92H246.851ZM251.673 125.9H253.437C253.241 126.647 252.835 127.225 252.219 127.636C251.631 128.019 250.908 128.21 250.049 128.21C248.864 128.21 247.94 127.837 247.277 127.09C246.67 126.409 246.367 125.499 246.367 124.36C246.367 123.053 246.745 122.055 247.501 121.364C248.136 120.795 248.962 120.51 249.979 120.51C251.164 120.51 252.06 120.897 252.667 121.672C253.236 122.391 253.521 123.417 253.521 124.752H248.075C248.14 125.536 248.383 126.11 248.803 126.474C249.139 126.773 249.578 126.922 250.119 126.922C250.502 126.922 250.833 126.829 251.113 126.642C251.393 126.455 251.58 126.208 251.673 125.9ZM251.799 123.604C251.762 122.923 251.556 122.423 251.183 122.106C250.875 121.835 250.474 121.7 249.979 121.7C249.438 121.7 249.004 121.877 248.677 122.232C248.378 122.549 248.187 123.007 248.103 123.604H251.799ZM261.205 120.72L258.783 124.122L261.611 128H259.581L257.817 125.41L256.053 128H254.177L256.893 124.192L254.331 120.72H256.319L257.873 122.946L259.371 120.72H261.205ZM266.23 126.768V128.042C265.838 128.154 265.464 128.21 265.11 128.21C264.391 128.21 263.845 127.995 263.472 127.566C263.154 127.202 262.996 126.712 262.996 126.096V122.008H261.904V120.72H262.996L263.108 118.97H264.676V120.72H266.216V122.008H264.676V126.152C264.676 126.637 264.923 126.88 265.418 126.88C265.632 126.88 265.903 126.843 266.23 126.768Z" fill="white" fill-opacity="0.95"/>
<rect x="211" y="112.5" width="63" height="23" rx="3.5" stroke="#5EBFF7"/>
<rect x="307" y="112.5" width="63" height="23" rx="3.5" fill="#1E2B10"/>
<path d="M320.1 128.1C320.034 128.1 319.969 128.087 319.908 128.062C319.847 128.037 319.792 127.999 319.746 127.953L316.146 124.335C316.099 124.288 316.063 124.233 316.038 124.172C316.013 124.112 316 124.047 316 123.981C316 123.915 316.014 123.85 316.039 123.79C316.064 123.729 316.101 123.674 316.148 123.628C316.194 123.582 316.249 123.545 316.31 123.52C316.371 123.495 316.436 123.482 316.502 123.482C316.567 123.483 316.632 123.496 316.693 123.521C316.753 123.546 316.808 123.583 316.855 123.63L320.127 126.918L328.175 120.021C328.276 119.935 328.406 119.892 328.539 119.902C328.671 119.912 328.793 119.975 328.88 120.075C328.966 120.176 329.009 120.307 328.998 120.439C328.988 120.571 328.926 120.693 328.825 120.78L320.425 127.979C320.335 128.057 320.22 128.1 320.1 128.1Z" fill="white" fill-opacity="0.95"/>
<path d="M342.851 117.92V119.39H339.617V128H337.825V119.39H334.633V117.92H342.851ZM347.673 125.9H349.437C349.241 126.647 348.835 127.225 348.219 127.636C347.631 128.019 346.908 128.21 346.049 128.21C344.864 128.21 343.94 127.837 343.277 127.09C342.67 126.409 342.367 125.499 342.367 124.36C342.367 123.053 342.745 122.055 343.501 121.364C344.136 120.795 344.962 120.51 345.979 120.51C347.164 120.51 348.06 120.897 348.667 121.672C349.236 122.391 349.521 123.417 349.521 124.752H344.075C344.14 125.536 344.383 126.11 344.803 126.474C345.139 126.773 345.578 126.922 346.119 126.922C346.502 126.922 346.833 126.829 347.113 126.642C347.393 126.455 347.58 126.208 347.673 125.9ZM347.799 123.604C347.762 122.923 347.556 122.423 347.183 122.106C346.875 121.835 346.474 121.7 345.979 121.7C345.438 121.7 345.004 121.877 344.677 122.232C344.378 122.549 344.187 123.007 344.103 123.604H347.799ZM357.205 120.72L354.783 124.122L357.611 128H355.581L353.817 125.41L352.053 128H350.177L352.893 124.192L350.331 120.72H352.319L353.873 122.946L355.371 120.72H357.205ZM362.23 126.768V128.042C361.838 128.154 361.464 128.21 361.11 128.21C360.391 128.21 359.845 127.995 359.472 127.566C359.154 127.202 358.996 126.712 358.996 126.096V122.008H357.904V120.72H358.996L359.108 118.97H360.676V120.72H362.216V122.008H360.676V126.152C360.676 126.637 360.923 126.88 361.418 126.88C361.632 126.88 361.903 126.843 362.23 126.768Z" fill="white" fill-opacity="0.95"/>
<rect x="307" y="112.5" width="63" height="23" rx="3.5" stroke="#93C437"/>
<rect x="403" y="112.5" width="63" height="23" rx="3.5" fill="#102B2A"/>
<path d="M416.1 128.1C416.034 128.1 415.969 128.087 415.908 128.062C415.847 128.037 415.792 127.999 415.746 127.953L412.146 124.335C412.099 124.288 412.063 124.233 412.038 124.172C412.013 124.112 412 124.047 412 123.981C412 123.915 412.014 123.85 412.039 123.79C412.064 123.729 412.101 123.674 412.148 123.628C412.194 123.582 412.249 123.545 412.31 123.52C412.371 123.495 412.436 123.482 412.502 123.482C412.567 123.483 412.632 123.496 412.693 123.521C412.753 123.546 412.808 123.583 412.855 123.63L416.127 126.918L424.175 120.021C424.276 119.935 424.406 119.892 424.539 119.902C424.671 119.912 424.793 119.975 424.88 120.075C424.966 120.176 425.009 120.307 424.998 120.439C424.988 120.571 424.926 120.693 424.825 120.78L416.425 127.979C416.335 128.057 416.22 128.1 416.1 128.1Z" fill="white" fill-opacity="0.95"/>
<path d="M438.851 117.92V119.39H435.617V128H433.825V119.39H430.633V117.92H438.851ZM443.673 125.9H445.437C445.241 126.647 444.835 127.225 444.219 127.636C443.631 128.019 442.908 128.21 442.049 128.21C440.864 128.21 439.94 127.837 439.277 127.09C438.67 126.409 438.367 125.499 438.367 124.36C438.367 123.053 438.745 122.055 439.501 121.364C440.136 120.795 440.962 120.51 441.979 120.51C443.164 120.51 444.06 120.897 444.667 121.672C445.236 122.391 445.521 123.417 445.521 124.752H440.075C440.14 125.536 440.383 126.11 440.803 126.474C441.139 126.773 441.578 126.922 442.119 126.922C442.502 126.922 442.833 126.829 443.113 126.642C443.393 126.455 443.58 126.208 443.673 125.9ZM443.799 123.604C443.762 122.923 443.556 122.423 443.183 122.106C442.875 121.835 442.474 121.7 441.979 121.7C441.438 121.7 441.004 121.877 440.677 122.232C440.378 122.549 440.187 123.007 440.103 123.604H443.799ZM453.205 120.72L450.783 124.122L453.611 128H451.581L449.817 125.41L448.053 128H446.177L448.893 124.192L446.331 120.72H448.319L449.873 122.946L451.371 120.72H453.205ZM458.23 126.768V128.042C457.838 128.154 457.464 128.21 457.11 128.21C456.391 128.21 455.845 127.995 455.472 127.566C455.154 127.202 454.996 126.712 454.996 126.096V122.008H453.904V120.72H454.996L455.108 118.97H456.676V120.72H458.216V122.008H456.676V126.152C456.676 126.637 456.923 126.88 457.418 126.88C457.632 126.88 457.903 126.843 458.23 126.768Z" fill="white" fill-opacity="0.95"/>
<rect x="403" y="112.5" width="63" height="23" rx="3.5" stroke="#30C9B0"/>
<rect x="499" y="112.5" width="63" height="23" rx="3.5" fill="#26262B"/>
<path d="M512.1 128.1C512.034 128.1 511.969 128.087 511.908 128.062C511.847 128.037 511.792 127.999 511.746 127.953L508.146 124.335C508.099 124.288 508.063 124.233 508.038 124.172C508.013 124.112 508 124.047 508 123.981C508 123.915 508.014 123.85 508.039 123.79C508.064 123.729 508.101 123.674 508.148 123.628C508.194 123.582 508.249 123.545 508.31 123.52C508.371 123.495 508.436 123.482 508.502 123.482C508.567 123.483 508.632 123.496 508.693 123.521C508.753 123.546 508.808 123.583 508.855 123.63L512.127 126.918L520.175 120.021C520.276 119.935 520.406 119.892 520.539 119.902C520.671 119.912 520.793 119.975 520.88 120.075C520.966 120.176 521.009 120.307 520.998 120.439C520.988 120.571 520.926 120.693 520.825 120.78L512.425 127.979C512.335 128.057 512.22 128.1 512.1 128.1Z" fill="white" fill-opacity="0.95"/>
<path d="M534.851 117.92V119.39H531.617V128H529.825V119.39H526.633V117.92H534.851ZM539.673 125.9H541.437C541.241 126.647 540.835 127.225 540.219 127.636C539.631 128.019 538.908 128.21 538.049 128.21C536.864 128.21 535.94 127.837 535.277 127.09C534.67 126.409 534.367 125.499 534.367 124.36C534.367 123.053 534.745 122.055 535.501 121.364C536.136 120.795 536.962 120.51 537.979 120.51C539.164 120.51 540.06 120.897 540.667 121.672C541.236 122.391 541.521 123.417 541.521 124.752H536.075C536.14 125.536 536.383 126.11 536.803 126.474C537.139 126.773 537.578 126.922 538.119 126.922C538.502 126.922 538.833 126.829 539.113 126.642C539.393 126.455 539.58 126.208 539.673 125.9ZM539.799 123.604C539.762 122.923 539.556 122.423 539.183 122.106C538.875 121.835 538.474 121.7 537.979 121.7C537.438 121.7 537.004 121.877 536.677 122.232C536.378 122.549 536.187 123.007 536.103 123.604H539.799ZM549.205 120.72L546.783 124.122L549.611 128H547.581L545.817 125.41L544.053 128H542.177L544.893 124.192L542.331 120.72H544.319L545.873 122.946L547.371 120.72H549.205ZM554.23 126.768V128.042C553.838 128.154 553.464 128.21 553.11 128.21C552.391 128.21 551.845 127.995 551.472 127.566C551.154 127.202 550.996 126.712 550.996 126.096V122.008H549.904V120.72H550.996L551.108 118.97H552.676V120.72H554.216V122.008H552.676V126.152C552.676 126.637 552.923 126.88 553.418 126.88C553.632 126.88 553.903 126.843 554.23 126.768Z" fill="white" fill-opacity="0.95"/>
<rect x="499" y="112.5" width="63" height="23" rx="3.5" stroke="#B0B4D9"/>
<rect x="595" y="112.5" width="63" height="23" rx="3.5" fill="#29223D"/>
<path d="M608.1 128.1C608.034 128.1 607.969 128.087 607.908 128.062C607.847 128.037 607.792 127.999 607.746 127.953L604.146 124.335C604.099 124.288 604.063 124.233 604.038 124.172C604.013 124.112 604 124.047 604 123.981C604 123.915 604.014 123.85 604.039 123.79C604.064 123.729 604.101 123.674 604.148 123.628C604.194 123.582 604.249 123.545 604.31 123.52C604.371 123.495 604.436 123.482 604.502 123.482C604.567 123.483 604.632 123.496 604.693 123.521C604.753 123.546 604.808 123.583 604.855 123.63L608.127 126.918L616.175 120.021C616.276 119.935 616.406 119.892 616.539 119.902C616.671 119.912 616.793 119.975 616.88 120.075C616.966 120.176 617.009 120.307 616.998 120.439C616.988 120.571 616.926 120.693 616.825 120.78L608.425 127.979C608.335 128.057 608.22 128.1 608.1 128.1Z" fill="white" fill-opacity="0.95"/>
<path d="M630.851 117.92V119.39H627.617V128H625.825V119.39H622.633V117.92H630.851ZM635.673 125.9H637.437C637.241 126.647 636.835 127.225 636.219 127.636C635.631 128.019 634.908 128.21 634.049 128.21C632.864 128.21 631.94 127.837 631.277 127.09C630.67 126.409 630.367 125.499 630.367 124.36C630.367 123.053 630.745 122.055 631.501 121.364C632.136 120.795 632.962 120.51 633.979 120.51C635.164 120.51 636.06 120.897 636.667 121.672C637.236 122.391 637.521 123.417 637.521 124.752H632.075C632.14 125.536 632.383 126.11 632.803 126.474C633.139 126.773 633.578 126.922 634.119 126.922C634.502 126.922 634.833 126.829 635.113 126.642C635.393 126.455 635.58 126.208 635.673 125.9ZM635.799 123.604C635.762 122.923 635.556 122.423 635.183 122.106C634.875 121.835 634.474 121.7 633.979 121.7C633.438 121.7 633.004 121.877 632.677 122.232C632.378 122.549 632.187 123.007 632.103 123.604H635.799ZM645.205 120.72L642.783 124.122L645.611 128H643.581L641.817 125.41L640.053 128H638.177L640.893 124.192L638.331 120.72H640.319L641.873 122.946L643.371 120.72H645.205ZM650.23 126.768V128.042C649.838 128.154 649.464 128.21 649.11 128.21C648.391 128.21 647.845 127.995 647.472 127.566C647.154 127.202 646.996 126.712 646.996 126.096V122.008H645.904V120.72H646.996L647.108 118.97H648.676V120.72H650.216V122.008H648.676V126.152C648.676 126.637 648.923 126.88 649.418 126.88C649.632 126.88 649.903 126.843 650.23 126.768Z" fill="white" fill-opacity="0.95"/>
<rect x="595" y="112.5" width="63" height="23" rx="3.5" stroke="#C7A5FA"/>
<rect x="691" y="112.5" width="63" height="23" rx="3.5" fill="#3B1840"/>
<path d="M704.1 128.1C704.034 128.1 703.969 128.087 703.908 128.062C703.847 128.037 703.792 127.999 703.746 127.953L700.146 124.335C700.099 124.288 700.063 124.233 700.038 124.172C700.013 124.112 700 124.047 700 123.981C700 123.915 700.014 123.85 700.039 123.79C700.064 123.729 700.101 123.674 700.148 123.628C700.194 123.582 700.249 123.545 700.31 123.52C700.371 123.495 700.436 123.482 700.502 123.482C700.567 123.483 700.632 123.496 700.693 123.521C700.753 123.546 700.808 123.583 700.855 123.63L704.127 126.918L712.175 120.021C712.276 119.935 712.406 119.892 712.539 119.902C712.671 119.912 712.793 119.975 712.88 120.075C712.966 120.176 713.009 120.307 712.998 120.439C712.988 120.571 712.926 120.693 712.825 120.78L704.425 127.979C704.335 128.057 704.22 128.1 704.1 128.1Z" fill="white" fill-opacity="0.95"/>
<path d="M726.851 117.92V119.39H723.617V128H721.825V119.39H718.633V117.92H726.851ZM731.673 125.9H733.437C733.241 126.647 732.835 127.225 732.219 127.636C731.631 128.019 730.908 128.21 730.049 128.21C728.864 128.21 727.94 127.837 727.277 127.09C726.67 126.409 726.367 125.499 726.367 124.36C726.367 123.053 726.745 122.055 727.501 121.364C728.136 120.795 728.962 120.51 729.979 120.51C731.164 120.51 732.06 120.897 732.667 121.672C733.236 122.391 733.521 123.417 733.521 124.752H728.075C728.14 125.536 728.383 126.11 728.803 126.474C729.139 126.773 729.578 126.922 730.119 126.922C730.502 126.922 730.833 126.829 731.113 126.642C731.393 126.455 731.58 126.208 731.673 125.9ZM731.799 123.604C731.762 122.923 731.556 122.423 731.183 122.106C730.875 121.835 730.474 121.7 729.979 121.7C729.438 121.7 729.004 121.877 728.677 122.232C728.378 122.549 728.187 123.007 728.103 123.604H731.799ZM741.205 120.72L738.783 124.122L741.611 128H739.581L737.817 125.41L736.053 128H734.177L736.893 124.192L734.331 120.72H736.319L737.873 122.946L739.371 120.72H741.205ZM746.23 126.768V128.042C745.838 128.154 745.464 128.21 745.11 128.21C744.391 128.21 743.845 127.995 743.472 127.566C743.154 127.202 742.996 126.712 742.996 126.096V122.008H741.904V120.72H742.996L743.108 118.97H744.676V120.72H746.216V122.008H744.676V126.152C744.676 126.637 744.923 126.88 745.418 126.88C745.632 126.88 745.903 126.843 746.23 126.768Z" fill="white" fill-opacity="0.95"/>
<rect x="691" y="112.5" width="63" height="23" rx="3.5" stroke="#F294F1"/>
<rect x="787" y="112.5" width="63" height="23" rx="3.5" fill="#33221B"/>
<path d="M800.1 128.1C800.034 128.1 799.969 128.087 799.908 128.062C799.847 128.037 799.792 127.999 799.746 127.953L796.146 124.335C796.099 124.288 796.063 124.233 796.038 124.172C796.013 124.112 796 124.047 796 123.981C796 123.915 796.014 123.85 796.039 123.79C796.064 123.729 796.101 123.674 796.148 123.628C796.194 123.582 796.249 123.545 796.31 123.52C796.371 123.495 796.436 123.482 796.502 123.482C796.567 123.483 796.632 123.496 796.693 123.521C796.753 123.546 796.808 123.583 796.855 123.63L800.127 126.918L808.175 120.021C808.276 119.935 808.406 119.892 808.539 119.902C808.671 119.912 808.793 119.975 808.88 120.075C808.966 120.176 809.009 120.307 808.998 120.439C808.988 120.571 808.926 120.693 808.825 120.78L800.425 127.979C800.335 128.057 800.22 128.1 800.1 128.1Z" fill="white" fill-opacity="0.95"/>
<path d="M822.851 117.92V119.39H819.617V128H817.825V119.39H814.633V117.92H822.851ZM827.673 125.9H829.437C829.241 126.647 828.835 127.225 828.219 127.636C827.631 128.019 826.908 128.21 826.049 128.21C824.864 128.21 823.94 127.837 823.277 127.09C822.67 126.409 822.367 125.499 822.367 124.36C822.367 123.053 822.745 122.055 823.501 121.364C824.136 120.795 824.962 120.51 825.979 120.51C827.164 120.51 828.06 120.897 828.667 121.672C829.236 122.391 829.521 123.417 829.521 124.752H824.075C824.14 125.536 824.383 126.11 824.803 126.474C825.139 126.773 825.578 126.922 826.119 126.922C826.502 126.922 826.833 126.829 827.113 126.642C827.393 126.455 827.58 126.208 827.673 125.9ZM827.799 123.604C827.762 122.923 827.556 122.423 827.183 122.106C826.875 121.835 826.474 121.7 825.979 121.7C825.438 121.7 825.004 121.877 824.677 122.232C824.378 122.549 824.187 123.007 824.103 123.604H827.799ZM837.205 120.72L834.783 124.122L837.611 128H835.581L833.817 125.41L832.053 128H830.177L832.893 124.192L830.331 120.72H832.319L833.873 122.946L835.371 120.72H837.205ZM842.23 126.768V128.042C841.838 128.154 841.464 128.21 841.11 128.21C840.391 128.21 839.845 127.995 839.472 127.566C839.154 127.202 838.996 126.712 838.996 126.096V122.008H837.904V120.72H838.996L839.108 118.97H840.676V120.72H842.216V122.008H840.676V126.152C840.676 126.637 840.923 126.88 841.418 126.88C841.632 126.88 841.903 126.843 842.23 126.768Z" fill="white" fill-opacity="0.95"/>
<rect x="787" y="112.5" width="63" height="23" rx="3.5" stroke="#FF9D52"/>
<rect x="883" y="112.5" width="63" height="23" rx="3.5" fill="#30240D"/>
<path d="M896.1 128.1C896.034 128.1 895.969 128.087 895.908 128.062C895.847 128.037 895.792 127.999 895.746 127.953L892.146 124.335C892.099 124.288 892.063 124.233 892.038 124.172C892.013 124.112 892 124.047 892 123.981C892 123.915 892.014 123.85 892.039 123.79C892.064 123.729 892.101 123.674 892.148 123.628C892.194 123.582 892.249 123.545 892.31 123.52C892.371 123.495 892.436 123.482 892.502 123.482C892.567 123.483 892.632 123.496 892.693 123.521C892.753 123.546 892.808 123.583 892.855 123.63L896.127 126.918L904.175 120.021C904.276 119.935 904.406 119.892 904.539 119.902C904.671 119.912 904.793 119.975 904.88 120.075C904.966 120.176 905.009 120.307 904.998 120.439C904.988 120.571 904.926 120.693 904.825 120.78L896.425 127.979C896.335 128.057 896.22 128.1 896.1 128.1Z" fill="white" fill-opacity="0.95"/>
<path d="M918.851 117.92V119.39H915.617V128H913.825V119.39H910.633V117.92H918.851ZM923.673 125.9H925.437C925.241 126.647 924.835 127.225 924.219 127.636C923.631 128.019 922.908 128.21 922.049 128.21C920.864 128.21 919.94 127.837 919.277 127.09C918.67 126.409 918.367 125.499 918.367 124.36C918.367 123.053 918.745 122.055 919.501 121.364C920.136 120.795 920.962 120.51 921.979 120.51C923.164 120.51 924.06 120.897 924.667 121.672C925.236 122.391 925.521 123.417 925.521 124.752H920.075C920.14 125.536 920.383 126.11 920.803 126.474C921.139 126.773 921.578 126.922 922.119 126.922C922.502 126.922 922.833 126.829 923.113 126.642C923.393 126.455 923.58 126.208 923.673 125.9ZM923.799 123.604C923.762 122.923 923.556 122.423 923.183 122.106C922.875 121.835 922.474 121.7 921.979 121.7C921.438 121.7 921.004 121.877 920.677 122.232C920.378 122.549 920.187 123.007 920.103 123.604H923.799ZM933.205 120.72L930.783 124.122L933.611 128H931.581L929.817 125.41L928.053 128H926.177L928.893 124.192L926.331 120.72H928.319L929.873 122.946L931.371 120.72H933.205ZM938.23 126.768V128.042C937.838 128.154 937.464 128.21 937.11 128.21C936.391 128.21 935.845 127.995 935.472 127.566C935.154 127.202 934.996 126.712 934.996 126.096V122.008H933.904V120.72H934.996L935.108 118.97H936.676V120.72H938.216V122.008H936.676V126.152C936.676 126.637 936.923 126.88 937.418 126.88C937.632 126.88 937.903 126.843 938.23 126.768Z" fill="white" fill-opacity="0.95"/>
<rect x="883" y="112.5" width="63" height="23" rx="3.5" stroke="#D6B220"/>
<rect x="205" y="160" width="74" height="28" rx="14" fill="#7856FF"/>
<path d="M227.773 172H226.364C226.28 171.595 226.134 171.239 225.926 170.932C225.722 170.625 225.472 170.367 225.176 170.159C224.884 169.947 224.561 169.788 224.205 169.682C223.848 169.576 223.477 169.523 223.091 169.523C222.386 169.523 221.748 169.701 221.176 170.057C220.608 170.413 220.155 170.938 219.818 171.631C219.485 172.324 219.318 173.174 219.318 174.182C219.318 175.189 219.485 176.04 219.818 176.733C220.155 177.426 220.608 177.951 221.176 178.307C221.748 178.663 222.386 178.841 223.091 178.841C223.477 178.841 223.848 178.788 224.205 178.682C224.561 178.576 224.884 178.419 225.176 178.21C225.472 177.998 225.722 177.739 225.926 177.432C226.134 177.121 226.28 176.765 226.364 176.364H227.773C227.667 176.958 227.473 177.491 227.193 177.96C226.913 178.43 226.564 178.83 226.148 179.159C225.731 179.485 225.263 179.733 224.744 179.903C224.229 180.074 223.678 180.159 223.091 180.159C222.098 180.159 221.216 179.917 220.443 179.432C219.67 178.947 219.063 178.258 218.619 177.364C218.176 176.47 217.955 175.409 217.955 174.182C217.955 172.955 218.176 171.894 218.619 171C219.063 170.106 219.67 169.417 220.443 168.932C221.216 168.447 222.098 168.205 223.091 168.205C223.678 168.205 224.229 168.29 224.744 168.46C225.263 168.631 225.731 168.881 226.148 169.21C226.564 169.536 226.913 169.934 227.193 170.403C227.473 170.869 227.667 171.402 227.773 172ZM233.413 180.182C232.625 180.182 231.934 179.994 231.339 179.619C230.749 179.244 230.286 178.72 229.953 178.045C229.624 177.371 229.459 176.583 229.459 175.682C229.459 174.773 229.624 173.979 229.953 173.301C230.286 172.623 230.749 172.097 231.339 171.722C231.934 171.347 232.625 171.159 233.413 171.159C234.201 171.159 234.891 171.347 235.482 171.722C236.076 172.097 236.538 172.623 236.868 173.301C237.201 173.979 237.368 174.773 237.368 175.682C237.368 176.583 237.201 177.371 236.868 178.045C236.538 178.72 236.076 179.244 235.482 179.619C234.891 179.994 234.201 180.182 233.413 180.182ZM233.413 178.977C234.012 178.977 234.504 178.824 234.891 178.517C235.277 178.21 235.563 177.807 235.749 177.307C235.934 176.807 236.027 176.265 236.027 175.682C236.027 175.098 235.934 174.555 235.749 174.051C235.563 173.547 235.277 173.14 234.891 172.83C234.504 172.519 234.012 172.364 233.413 172.364C232.815 172.364 232.322 172.519 231.936 172.83C231.55 173.14 231.264 173.547 231.078 174.051C230.893 174.555 230.8 175.098 230.8 175.682C230.8 176.265 230.893 176.807 231.078 177.307C231.264 177.807 231.55 178.21 231.936 178.517C232.322 178.824 232.815 178.977 233.413 178.977ZM239.597 180V168.364H240.938V172.659H241.051C241.15 172.508 241.286 172.314 241.46 172.08C241.638 171.841 241.892 171.629 242.222 171.443C242.555 171.254 243.006 171.159 243.574 171.159C244.309 171.159 244.956 171.343 245.517 171.71C246.078 172.078 246.515 172.598 246.83 173.273C247.144 173.947 247.301 174.742 247.301 175.659C247.301 176.583 247.144 177.384 246.83 178.062C246.515 178.737 246.08 179.259 245.523 179.631C244.966 179.998 244.324 180.182 243.597 180.182C243.036 180.182 242.587 180.089 242.25 179.903C241.913 179.714 241.653 179.5 241.472 179.261C241.29 179.019 241.15 178.818 241.051 178.659H240.892V180H239.597ZM240.915 175.636C240.915 176.295 241.011 176.877 241.205 177.381C241.398 177.881 241.68 178.273 242.051 178.557C242.422 178.837 242.877 178.977 243.415 178.977C243.975 178.977 244.443 178.83 244.818 178.534C245.197 178.235 245.481 177.833 245.67 177.33C245.864 176.822 245.96 176.258 245.96 175.636C245.96 175.023 245.866 174.47 245.676 173.977C245.491 173.481 245.208 173.089 244.83 172.801C244.455 172.509 243.983 172.364 243.415 172.364C242.869 172.364 242.411 172.502 242.04 172.778C241.669 173.051 241.388 173.434 241.199 173.926C241.009 174.415 240.915 174.985 240.915 175.636ZM251.92 180.205C251.367 180.205 250.866 180.1 250.415 179.892C249.964 179.68 249.606 179.375 249.341 178.977C249.076 178.576 248.943 178.091 248.943 177.523C248.943 177.023 249.042 176.617 249.239 176.307C249.436 175.992 249.699 175.746 250.028 175.568C250.358 175.39 250.722 175.258 251.119 175.17C251.521 175.08 251.924 175.008 252.33 174.955C252.86 174.886 253.29 174.835 253.619 174.801C253.953 174.763 254.195 174.701 254.347 174.614C254.502 174.527 254.58 174.375 254.58 174.159V174.114C254.58 173.553 254.426 173.117 254.119 172.807C253.816 172.496 253.356 172.341 252.739 172.341C252.098 172.341 251.597 172.481 251.233 172.761C250.869 173.042 250.614 173.341 250.466 173.659L249.193 173.205C249.42 172.674 249.723 172.261 250.102 171.966C250.485 171.667 250.902 171.458 251.352 171.341C251.807 171.22 252.254 171.159 252.693 171.159C252.973 171.159 253.295 171.193 253.659 171.261C254.027 171.326 254.381 171.46 254.722 171.665C255.066 171.869 255.352 172.178 255.58 172.591C255.807 173.004 255.92 173.557 255.92 174.25V180H254.58V178.818H254.511C254.42 179.008 254.269 179.21 254.057 179.426C253.845 179.642 253.563 179.826 253.21 179.977C252.858 180.129 252.428 180.205 251.92 180.205ZM252.125 179C252.655 179 253.102 178.896 253.466 178.688C253.833 178.479 254.11 178.21 254.295 177.881C254.485 177.551 254.58 177.205 254.58 176.841V175.614C254.523 175.682 254.398 175.744 254.205 175.801C254.015 175.854 253.795 175.902 253.545 175.943C253.299 175.981 253.059 176.015 252.824 176.045C252.593 176.072 252.405 176.095 252.261 176.114C251.913 176.159 251.587 176.233 251.284 176.335C250.985 176.434 250.742 176.583 250.557 176.784C250.375 176.981 250.284 177.25 250.284 177.591C250.284 178.057 250.456 178.409 250.801 178.648C251.15 178.883 251.591 179 252.125 179ZM259.709 168.364V180H258.368V168.364H259.709ZM265.96 171.273V172.409H261.438V171.273H265.96ZM262.756 169.182H264.097V177.5C264.097 177.879 264.152 178.163 264.261 178.352C264.375 178.538 264.519 178.663 264.693 178.727C264.871 178.788 265.059 178.818 265.256 178.818C265.403 178.818 265.525 178.811 265.619 178.795C265.714 178.777 265.79 178.761 265.847 178.75L266.119 179.955C266.028 179.989 265.902 180.023 265.739 180.057C265.576 180.095 265.369 180.114 265.119 180.114C264.741 180.114 264.369 180.032 264.006 179.869C263.646 179.706 263.347 179.458 263.108 179.125C262.873 178.792 262.756 178.371 262.756 177.864V169.182Z" fill="white"/>
<g clip-path="url(#clip0_144_3433)">
<rect x="307.5" y="160" width="61" height="28" rx="14" fill="#7856FF"/>
<path d="M320.909 180V168.364H322.318V178.75H327.727V180H320.909ZM329.727 180V171.273H331.068V180H329.727ZM330.409 169.818C330.148 169.818 329.922 169.729 329.733 169.551C329.547 169.373 329.455 169.159 329.455 168.909C329.455 168.659 329.547 168.445 329.733 168.267C329.922 168.089 330.148 168 330.409 168C330.67 168 330.894 168.089 331.08 168.267C331.269 168.445 331.364 168.659 331.364 168.909C331.364 169.159 331.269 169.373 331.08 169.551C330.894 169.729 330.67 169.818 330.409 169.818ZM333.524 180V171.273H334.82V172.636H334.933C335.115 172.17 335.409 171.809 335.814 171.551C336.219 171.29 336.706 171.159 337.274 171.159C337.85 171.159 338.329 171.29 338.712 171.551C339.098 171.809 339.399 172.17 339.615 172.636H339.706C339.929 172.186 340.265 171.828 340.712 171.562C341.159 171.294 341.695 171.159 342.32 171.159C343.1 171.159 343.738 171.403 344.234 171.892C344.731 172.377 344.979 173.133 344.979 174.159V180H343.638V174.159C343.638 173.515 343.462 173.055 343.109 172.778C342.757 172.502 342.342 172.364 341.865 172.364C341.251 172.364 340.776 172.549 340.439 172.92C340.102 173.288 339.933 173.754 339.933 174.318V180H338.57V174.023C338.57 173.527 338.409 173.127 338.087 172.824C337.765 172.517 337.35 172.364 336.842 172.364C336.494 172.364 336.168 172.456 335.865 172.642C335.566 172.828 335.323 173.085 335.138 173.415C334.956 173.741 334.865 174.117 334.865 174.545V180H333.524ZM351.089 180.182C350.249 180.182 349.523 179.996 348.913 179.625C348.307 179.25 347.839 178.727 347.51 178.057C347.184 177.383 347.021 176.598 347.021 175.705C347.021 174.811 347.184 174.023 347.51 173.341C347.839 172.655 348.298 172.121 348.885 171.739C349.476 171.352 350.165 171.159 350.953 171.159C351.408 171.159 351.857 171.235 352.3 171.386C352.743 171.538 353.146 171.784 353.51 172.125C353.874 172.462 354.163 172.909 354.379 173.466C354.595 174.023 354.703 174.708 354.703 175.523V176.091H347.976V174.932H353.339C353.339 174.439 353.241 174 353.044 173.614C352.851 173.227 352.574 172.922 352.214 172.699C351.858 172.475 351.438 172.364 350.953 172.364C350.419 172.364 349.957 172.496 349.567 172.761C349.18 173.023 348.883 173.364 348.675 173.784C348.466 174.205 348.362 174.655 348.362 175.136V175.909C348.362 176.568 348.476 177.127 348.703 177.585C348.934 178.04 349.254 178.386 349.663 178.625C350.072 178.86 350.548 178.977 351.089 178.977C351.442 178.977 351.76 178.928 352.044 178.83C352.332 178.727 352.58 178.576 352.788 178.375C352.997 178.17 353.158 177.917 353.271 177.614L354.567 177.977C354.43 178.417 354.201 178.803 353.879 179.136C353.557 179.466 353.16 179.723 352.686 179.909C352.213 180.091 351.68 180.182 351.089 180.182Z" fill="white"/>
</g>
<g clip-path="url(#clip1_144_3433)">
<rect x="404.821" y="160" width="58" height="28" rx="14" fill="#7856FF"/>
<path d="M418.23 168.364H419.911L423.866 178.023H424.002L427.957 168.364H429.639V180H428.321V171.159H428.207L424.571 180H423.298L419.661 171.159H419.548V180H418.23V168.364ZM432.282 180V171.273H433.623V180H432.282ZM432.964 169.818C432.703 169.818 432.477 169.729 432.288 169.551C432.102 169.373 432.009 169.159 432.009 168.909C432.009 168.659 432.102 168.445 432.288 168.267C432.477 168.089 432.703 168 432.964 168C433.225 168 433.449 168.089 433.634 168.267C433.824 168.445 433.919 168.659 433.919 168.909C433.919 169.159 433.824 169.373 433.634 169.551C433.449 169.729 433.225 169.818 432.964 169.818ZM437.42 174.75V180H436.079V171.273H437.375V172.636H437.488C437.693 172.193 438.003 171.837 438.42 171.568C438.837 171.295 439.375 171.159 440.034 171.159C440.625 171.159 441.142 171.28 441.585 171.523C442.028 171.761 442.373 172.125 442.619 172.614C442.865 173.098 442.988 173.712 442.988 174.455V180H441.647V174.545C441.647 173.86 441.469 173.326 441.113 172.943C440.757 172.557 440.268 172.364 439.647 172.364C439.219 172.364 438.837 172.456 438.5 172.642C438.166 172.828 437.903 173.098 437.71 173.455C437.517 173.811 437.42 174.242 437.42 174.75ZM449.234 171.273V172.409H444.711V171.273H449.234ZM446.029 169.182H447.37V177.5C447.37 177.879 447.425 178.163 447.535 178.352C447.649 178.538 447.793 178.663 447.967 178.727C448.145 178.788 448.332 178.818 448.529 178.818C448.677 178.818 448.798 178.811 448.893 178.795C448.988 178.777 449.063 178.761 449.12 178.75L449.393 179.955C449.302 179.989 449.175 180.023 449.012 180.057C448.849 180.095 448.643 180.114 448.393 180.114C448.014 180.114 447.643 180.032 447.279 179.869C446.92 179.706 446.62 179.458 446.382 179.125C446.147 178.792 446.029 178.371 446.029 177.864V169.182Z" fill="white"/>
</g>
<g clip-path="url(#clip2_144_3433)">
<rect x="498.5" y="160" width="63" height="28" rx="14" fill="#7856FF"/>
<path d="M518.273 171.273C518.205 170.697 517.928 170.25 517.443 169.932C516.958 169.614 516.364 169.455 515.659 169.455C515.144 169.455 514.693 169.538 514.307 169.705C513.924 169.871 513.625 170.1 513.409 170.392C513.197 170.684 513.091 171.015 513.091 171.386C513.091 171.697 513.165 171.964 513.312 172.188C513.464 172.407 513.657 172.591 513.892 172.739C514.127 172.883 514.373 173.002 514.631 173.097C514.888 173.187 515.125 173.261 515.341 173.318L516.523 173.636C516.826 173.716 517.163 173.826 517.534 173.966C517.909 174.106 518.267 174.297 518.608 174.54C518.953 174.778 519.237 175.085 519.46 175.46C519.684 175.835 519.795 176.295 519.795 176.841C519.795 177.47 519.631 178.038 519.301 178.545C518.975 179.053 518.498 179.456 517.869 179.756C517.244 180.055 516.485 180.205 515.591 180.205C514.758 180.205 514.036 180.07 513.426 179.801C512.82 179.532 512.343 179.157 511.994 178.676C511.65 178.195 511.455 177.636 511.409 177H512.864C512.902 177.439 513.049 177.803 513.307 178.091C513.568 178.375 513.898 178.587 514.295 178.727C514.697 178.864 515.129 178.932 515.591 178.932C516.129 178.932 516.612 178.845 517.04 178.67C517.468 178.492 517.807 178.246 518.057 177.932C518.307 177.614 518.432 177.242 518.432 176.818C518.432 176.432 518.324 176.117 518.108 175.875C517.892 175.633 517.608 175.436 517.256 175.284C516.903 175.133 516.523 175 516.114 174.886L514.682 174.477C513.773 174.216 513.053 173.843 512.523 173.358C511.992 172.873 511.727 172.239 511.727 171.455C511.727 170.803 511.903 170.235 512.256 169.75C512.612 169.261 513.089 168.883 513.688 168.614C514.29 168.341 514.962 168.205 515.705 168.205C516.455 168.205 517.121 168.339 517.705 168.608C518.288 168.873 518.75 169.237 519.091 169.699C519.436 170.161 519.617 170.686 519.636 171.273H518.273ZM523.271 168.364V180H521.93V168.364H523.271ZM528.295 180.205C527.742 180.205 527.241 180.1 526.79 179.892C526.339 179.68 525.981 179.375 525.716 178.977C525.451 178.576 525.318 178.091 525.318 177.523C525.318 177.023 525.417 176.617 525.614 176.307C525.811 175.992 526.074 175.746 526.403 175.568C526.733 175.39 527.097 175.258 527.494 175.17C527.896 175.08 528.299 175.008 528.705 174.955C529.235 174.886 529.665 174.835 529.994 174.801C530.328 174.763 530.57 174.701 530.722 174.614C530.877 174.527 530.955 174.375 530.955 174.159V174.114C530.955 173.553 530.801 173.117 530.494 172.807C530.191 172.496 529.731 172.341 529.114 172.341C528.473 172.341 527.972 172.481 527.608 172.761C527.244 173.042 526.989 173.341 526.841 173.659L525.568 173.205C525.795 172.674 526.098 172.261 526.477 171.966C526.86 171.667 527.277 171.458 527.727 171.341C528.182 171.22 528.629 171.159 529.068 171.159C529.348 171.159 529.67 171.193 530.034 171.261C530.402 171.326 530.756 171.46 531.097 171.665C531.441 171.869 531.727 172.178 531.955 172.591C532.182 173.004 532.295 173.557 532.295 174.25V180H530.955V178.818H530.886C530.795 179.008 530.644 179.21 530.432 179.426C530.22 179.642 529.938 179.826 529.585 179.977C529.233 180.129 528.803 180.205 528.295 180.205ZM528.5 179C529.03 179 529.477 178.896 529.841 178.688C530.208 178.479 530.485 178.21 530.67 177.881C530.86 177.551 530.955 177.205 530.955 176.841V175.614C530.898 175.682 530.773 175.744 530.58 175.801C530.39 175.854 530.17 175.902 529.92 175.943C529.674 175.981 529.434 176.015 529.199 176.045C528.968 176.072 528.78 176.095 528.636 176.114C528.288 176.159 527.962 176.233 527.659 176.335C527.36 176.434 527.117 176.583 526.932 176.784C526.75 176.981 526.659 177.25 526.659 177.591C526.659 178.057 526.831 178.409 527.176 178.648C527.525 178.883 527.966 179 528.5 179ZM538.538 171.273V172.409H534.016V171.273H538.538ZM535.334 169.182H536.675V177.5C536.675 177.879 536.73 178.163 536.839 178.352C536.953 178.538 537.097 178.663 537.271 178.727C537.449 178.788 537.637 178.818 537.834 178.818C537.982 178.818 538.103 178.811 538.197 178.795C538.292 178.777 538.368 178.761 538.425 178.75L538.697 179.955C538.607 179.989 538.48 180.023 538.317 180.057C538.154 180.095 537.947 180.114 537.697 180.114C537.319 180.114 536.947 180.032 536.584 179.869C536.224 179.706 535.925 179.458 535.686 179.125C535.451 178.792 535.334 178.371 535.334 177.864V169.182ZM544.121 180.182C543.28 180.182 542.554 179.996 541.945 179.625C541.339 179.25 540.871 178.727 540.541 178.057C540.215 177.383 540.053 176.598 540.053 175.705C540.053 174.811 540.215 174.023 540.541 173.341C540.871 172.655 541.329 172.121 541.916 171.739C542.507 171.352 543.196 171.159 543.984 171.159C544.439 171.159 544.888 171.235 545.331 171.386C545.774 171.538 546.178 171.784 546.541 172.125C546.905 172.462 547.195 172.909 547.411 173.466C547.626 174.023 547.734 174.708 547.734 175.523V176.091H541.007V174.932H546.371C546.371 174.439 546.272 174 546.075 173.614C545.882 173.227 545.606 172.922 545.246 172.699C544.89 172.475 544.469 172.364 543.984 172.364C543.45 172.364 542.988 172.496 542.598 172.761C542.212 173.023 541.914 173.364 541.706 173.784C541.498 174.205 541.393 174.655 541.393 175.136V175.909C541.393 176.568 541.507 177.127 541.734 177.585C541.965 178.04 542.286 178.386 542.695 178.625C543.104 178.86 543.579 178.977 544.121 178.977C544.473 178.977 544.791 178.928 545.075 178.83C545.363 178.727 545.611 178.576 545.82 178.375C546.028 178.17 546.189 177.917 546.303 177.614L547.598 177.977C547.462 178.417 547.232 178.803 546.911 179.136C546.589 179.466 546.191 179.723 545.717 179.909C545.244 180.091 544.712 180.182 544.121 180.182Z" fill="white"/>
</g>
<rect x="592" y="160" width="68" height="28" rx="14" fill="#7856FF"/>
<path d="M605.886 168.364L609.341 178.159H609.477L612.932 168.364H614.409L610.136 180H608.682L604.409 168.364H605.886ZM616.04 180V171.273H617.381V180H616.04ZM616.722 169.818C616.46 169.818 616.235 169.729 616.045 169.551C615.86 169.373 615.767 169.159 615.767 168.909C615.767 168.659 615.86 168.445 616.045 168.267C616.235 168.089 616.46 168 616.722 168C616.983 168 617.206 168.089 617.392 168.267C617.581 168.445 617.676 168.659 617.676 168.909C617.676 169.159 617.581 169.373 617.392 169.551C617.206 169.729 616.983 169.818 616.722 169.818ZM623.382 180.182C622.594 180.182 621.903 179.994 621.308 179.619C620.717 179.244 620.255 178.72 619.922 178.045C619.592 177.371 619.428 176.583 619.428 175.682C619.428 174.773 619.592 173.979 619.922 173.301C620.255 172.623 620.717 172.097 621.308 171.722C621.903 171.347 622.594 171.159 623.382 171.159C624.17 171.159 624.859 171.347 625.45 171.722C626.045 172.097 626.507 172.623 626.837 173.301C627.17 173.979 627.337 174.773 627.337 175.682C627.337 176.583 627.17 177.371 626.837 178.045C626.507 178.72 626.045 179.244 625.45 179.619C624.859 179.994 624.17 180.182 623.382 180.182ZM623.382 178.977C623.981 178.977 624.473 178.824 624.859 178.517C625.246 178.21 625.532 177.807 625.717 177.307C625.903 176.807 625.996 176.265 625.996 175.682C625.996 175.098 625.903 174.555 625.717 174.051C625.532 173.547 625.246 173.14 624.859 172.83C624.473 172.519 623.981 172.364 623.382 172.364C622.784 172.364 622.291 172.519 621.905 172.83C621.518 173.14 621.232 173.547 621.047 174.051C620.861 174.555 620.768 175.098 620.768 175.682C620.768 176.265 620.861 176.807 621.047 177.307C621.232 177.807 621.518 178.21 621.905 178.517C622.291 178.824 622.784 178.977 623.382 178.977ZM630.724 168.364V180H629.384V168.364H630.724ZM636.839 180.182C635.999 180.182 635.273 179.996 634.663 179.625C634.057 179.25 633.589 178.727 633.26 178.057C632.934 177.383 632.771 176.598 632.771 175.705C632.771 174.811 632.934 174.023 633.26 173.341C633.589 172.655 634.048 172.121 634.635 171.739C635.226 171.352 635.915 171.159 636.703 171.159C637.158 171.159 637.607 171.235 638.05 171.386C638.493 171.538 638.896 171.784 639.26 172.125C639.624 172.462 639.913 172.909 640.129 173.466C640.345 174.023 640.453 174.708 640.453 175.523V176.091H633.726V174.932H639.089C639.089 174.439 638.991 174 638.794 173.614C638.601 173.227 638.324 172.922 637.964 172.699C637.608 172.475 637.188 172.364 636.703 172.364C636.169 172.364 635.707 172.496 635.317 172.761C634.93 173.023 634.633 173.364 634.425 173.784C634.216 174.205 634.112 174.655 634.112 175.136V175.909C634.112 176.568 634.226 177.127 634.453 177.585C634.684 178.04 635.004 178.386 635.413 178.625C635.822 178.86 636.298 178.977 636.839 178.977C637.192 178.977 637.51 178.928 637.794 178.83C638.082 178.727 638.33 178.576 638.538 178.375C638.747 178.17 638.908 177.917 639.021 177.614L640.317 177.977C640.18 178.417 639.951 178.803 639.629 179.136C639.307 179.466 638.91 179.723 638.436 179.909C637.963 180.091 637.43 180.182 636.839 180.182ZM646.288 171.273V172.409H641.766V171.273H646.288ZM643.084 169.182H644.425V177.5C644.425 177.879 644.48 178.163 644.589 178.352C644.703 178.538 644.847 178.663 645.021 178.727C645.199 178.788 645.387 178.818 645.584 178.818C645.732 178.818 645.853 178.811 645.947 178.795C646.042 178.777 646.118 178.761 646.175 178.75L646.447 179.955C646.357 179.989 646.23 180.023 646.067 180.057C645.904 180.095 645.697 180.114 645.447 180.114C645.069 180.114 644.697 180.032 644.334 179.869C643.974 179.706 643.675 179.458 643.436 179.125C643.201 178.792 643.084 178.371 643.084 177.864V169.182Z" fill="white"/>
<rect x="685" y="160" width="73" height="28" rx="14" fill="#7856FF"/>
<path d="M698.409 180V168.364H702.341C703.254 168.364 704 168.528 704.58 168.858C705.163 169.184 705.595 169.625 705.875 170.182C706.155 170.739 706.295 171.36 706.295 172.045C706.295 172.731 706.155 173.354 705.875 173.915C705.598 174.475 705.17 174.922 704.591 175.256C704.011 175.585 703.269 175.75 702.364 175.75H699.545V174.5H702.318C702.943 174.5 703.445 174.392 703.824 174.176C704.203 173.96 704.477 173.669 704.648 173.301C704.822 172.93 704.909 172.511 704.909 172.045C704.909 171.58 704.822 171.163 704.648 170.795C704.477 170.428 704.201 170.14 703.818 169.932C703.436 169.72 702.928 169.614 702.295 169.614H699.818V180H698.409ZM713.884 176.432V171.273H715.224V180H713.884V178.523H713.793C713.588 178.966 713.27 179.343 712.838 179.653C712.406 179.96 711.861 180.114 711.202 180.114C710.656 180.114 710.171 179.994 709.747 179.756C709.323 179.513 708.99 179.15 708.747 178.665C708.505 178.176 708.384 177.561 708.384 176.818V171.273H709.724V176.727C709.724 177.364 709.902 177.871 710.259 178.25C710.618 178.629 711.077 178.818 711.634 178.818C711.967 178.818 712.306 178.733 712.651 178.562C712.999 178.392 713.291 178.131 713.526 177.778C713.764 177.426 713.884 176.977 713.884 176.432ZM717.68 180V171.273H718.976V172.591H719.067C719.226 172.159 719.514 171.809 719.93 171.54C720.347 171.271 720.817 171.136 721.339 171.136C721.438 171.136 721.561 171.138 721.709 171.142C721.857 171.146 721.968 171.152 722.044 171.159V172.523C721.999 172.511 721.894 172.494 721.732 172.472C721.572 172.445 721.404 172.432 721.226 172.432C720.802 172.432 720.423 172.521 720.089 172.699C719.76 172.873 719.499 173.116 719.305 173.426C719.116 173.733 719.021 174.083 719.021 174.477V180H717.68ZM723.634 183.273V171.273H724.929V172.659H725.088C725.187 172.508 725.323 172.314 725.497 172.08C725.675 171.841 725.929 171.629 726.259 171.443C726.592 171.254 727.043 171.159 727.611 171.159C728.346 171.159 728.993 171.343 729.554 171.71C730.115 172.078 730.552 172.598 730.866 173.273C731.181 173.947 731.338 174.742 731.338 175.659C731.338 176.583 731.181 177.384 730.866 178.062C730.552 178.737 730.116 179.259 729.56 179.631C729.003 179.998 728.361 180.182 727.634 180.182C727.073 180.182 726.624 180.089 726.287 179.903C725.95 179.714 725.69 179.5 725.509 179.261C725.327 179.019 725.187 178.818 725.088 178.659H724.974V183.273H723.634ZM724.952 175.636C724.952 176.295 725.048 176.877 725.241 177.381C725.435 177.881 725.717 178.273 726.088 178.557C726.459 178.837 726.914 178.977 727.452 178.977C728.012 178.977 728.48 178.83 728.855 178.534C729.234 178.235 729.518 177.833 729.707 177.33C729.901 176.822 729.997 176.258 729.997 175.636C729.997 175.023 729.902 174.47 729.713 173.977C729.527 173.481 729.245 173.089 728.866 172.801C728.491 172.509 728.02 172.364 727.452 172.364C726.906 172.364 726.448 172.502 726.077 172.778C725.705 173.051 725.425 173.434 725.236 173.926C725.046 174.415 724.952 174.985 724.952 175.636ZM734.724 168.364V180H733.384V168.364H734.724ZM740.839 180.182C739.999 180.182 739.273 179.996 738.663 179.625C738.057 179.25 737.589 178.727 737.26 178.057C736.934 177.383 736.771 176.598 736.771 175.705C736.771 174.811 736.934 174.023 737.26 173.341C737.589 172.655 738.048 172.121 738.635 171.739C739.226 171.352 739.915 171.159 740.703 171.159C741.158 171.159 741.607 171.235 742.05 171.386C742.493 171.538 742.896 171.784 743.26 172.125C743.624 172.462 743.913 172.909 744.129 173.466C744.345 174.023 744.453 174.708 744.453 175.523V176.091H737.726V174.932H743.089C743.089 174.439 742.991 174 742.794 173.614C742.601 173.227 742.324 172.922 741.964 172.699C741.608 172.475 741.188 172.364 740.703 172.364C740.169 172.364 739.707 172.496 739.317 172.761C738.93 173.023 738.633 173.364 738.425 173.784C738.216 174.205 738.112 174.655 738.112 175.136V175.909C738.112 176.568 738.226 177.127 738.453 177.585C738.684 178.04 739.004 178.386 739.413 178.625C739.822 178.86 740.298 178.977 740.839 178.977C741.192 178.977 741.51 178.928 741.794 178.83C742.082 178.727 742.33 178.576 742.538 178.375C742.747 178.17 742.908 177.917 743.021 177.614L744.317 177.977C744.18 178.417 743.951 178.803 743.629 179.136C743.307 179.466 742.91 179.723 742.436 179.909C741.963 180.091 741.43 180.182 740.839 180.182Z" fill="white"/>
<rect x="778" y="160" width="80" height="28" rx="14" fill="#7856FF"/>
<path d="M801.227 174.182C801.227 175.409 801.006 176.47 800.562 177.364C800.119 178.258 799.511 178.947 798.739 179.432C797.966 179.917 797.083 180.159 796.091 180.159C795.098 180.159 794.216 179.917 793.443 179.432C792.67 178.947 792.063 178.258 791.619 177.364C791.176 176.47 790.955 175.409 790.955 174.182C790.955 172.955 791.176 171.894 791.619 171C792.063 170.106 792.67 169.417 793.443 168.932C794.216 168.447 795.098 168.205 796.091 168.205C797.083 168.205 797.966 168.447 798.739 168.932C799.511 169.417 800.119 170.106 800.562 171C801.006 171.894 801.227 172.955 801.227 174.182ZM799.864 174.182C799.864 173.174 799.695 172.324 799.358 171.631C799.025 170.938 798.572 170.413 798 170.057C797.432 169.701 796.795 169.523 796.091 169.523C795.386 169.523 794.748 169.701 794.176 170.057C793.608 170.413 793.155 170.938 792.818 171.631C792.485 172.324 792.318 173.174 792.318 174.182C792.318 175.189 792.485 176.04 792.818 176.733C793.155 177.426 793.608 177.951 794.176 178.307C794.748 178.663 795.386 178.841 796.091 178.841C796.795 178.841 797.432 178.663 798 178.307C798.572 177.951 799.025 177.426 799.358 176.733C799.695 176.04 799.864 175.189 799.864 174.182ZM803.415 180V171.273H804.71V172.591H804.801C804.96 172.159 805.248 171.809 805.665 171.54C806.081 171.271 806.551 171.136 807.074 171.136C807.172 171.136 807.295 171.138 807.443 171.142C807.591 171.146 807.703 171.152 807.778 171.159V172.523C807.733 172.511 807.629 172.494 807.466 172.472C807.307 172.445 807.138 172.432 806.96 172.432C806.536 172.432 806.157 172.521 805.824 172.699C805.494 172.873 805.233 173.116 805.04 173.426C804.85 173.733 804.756 174.083 804.756 174.477V180H803.415ZM811.936 180.205C811.383 180.205 810.881 180.1 810.43 179.892C809.98 179.68 809.622 179.375 809.357 178.977C809.091 178.576 808.959 178.091 808.959 177.523C808.959 177.023 809.057 176.617 809.254 176.307C809.451 175.992 809.714 175.746 810.044 175.568C810.374 175.39 810.737 175.258 811.135 175.17C811.536 175.08 811.94 175.008 812.345 174.955C812.875 174.886 813.305 174.835 813.635 174.801C813.968 174.763 814.211 174.701 814.362 174.614C814.518 174.527 814.595 174.375 814.595 174.159V174.114C814.595 173.553 814.442 173.117 814.135 172.807C813.832 172.496 813.372 172.341 812.754 172.341C812.114 172.341 811.612 172.481 811.249 172.761C810.885 173.042 810.629 173.341 810.482 173.659L809.209 173.205C809.436 172.674 809.739 172.261 810.118 171.966C810.5 171.667 810.917 171.458 811.368 171.341C811.822 171.22 812.269 171.159 812.709 171.159C812.989 171.159 813.311 171.193 813.675 171.261C814.042 171.326 814.396 171.46 814.737 171.665C815.082 171.869 815.368 172.178 815.595 172.591C815.822 173.004 815.936 173.557 815.936 174.25V180H814.595V178.818H814.527C814.436 179.008 814.285 179.21 814.072 179.426C813.86 179.642 813.578 179.826 813.226 179.977C812.874 180.129 812.444 180.205 811.936 180.205ZM812.141 179C812.671 179 813.118 178.896 813.482 178.688C813.849 178.479 814.125 178.21 814.311 177.881C814.5 177.551 814.595 177.205 814.595 176.841V175.614C814.538 175.682 814.413 175.744 814.22 175.801C814.031 175.854 813.811 175.902 813.561 175.943C813.315 175.981 813.074 176.015 812.839 176.045C812.608 176.072 812.421 176.095 812.277 176.114C811.929 176.159 811.603 176.233 811.3 176.335C811 176.434 810.758 176.583 810.572 176.784C810.391 176.981 810.3 177.25 810.3 177.591C810.3 178.057 810.472 178.409 810.817 178.648C811.165 178.883 811.607 179 812.141 179ZM819.724 174.75V180H818.384V171.273H819.679V172.636H819.793C819.997 172.193 820.308 171.837 820.724 171.568C821.141 171.295 821.679 171.159 822.338 171.159C822.929 171.159 823.446 171.28 823.889 171.523C824.332 171.761 824.677 172.125 824.923 172.614C825.17 173.098 825.293 173.712 825.293 174.455V180H823.952V174.545C823.952 173.86 823.774 173.326 823.418 172.943C823.062 172.557 822.573 172.364 821.952 172.364C821.524 172.364 821.141 172.456 820.804 172.642C820.471 172.828 820.207 173.098 820.014 173.455C819.821 173.811 819.724 174.242 819.724 174.75ZM831.266 183.455C830.618 183.455 830.061 183.371 829.595 183.205C829.129 183.042 828.741 182.826 828.43 182.557C828.124 182.292 827.879 182.008 827.697 181.705L828.766 180.955C828.887 181.114 829.04 181.295 829.226 181.5C829.411 181.708 829.665 181.888 829.987 182.04C830.313 182.195 830.739 182.273 831.266 182.273C831.97 182.273 832.552 182.102 833.01 181.761C833.468 181.42 833.697 180.886 833.697 180.159V178.386H833.584C833.485 178.545 833.345 178.742 833.163 178.977C832.985 179.208 832.728 179.415 832.391 179.597C832.057 179.775 831.607 179.864 831.038 179.864C830.334 179.864 829.701 179.697 829.141 179.364C828.584 179.03 828.143 178.545 827.817 177.909C827.495 177.273 827.334 176.5 827.334 175.591C827.334 174.697 827.491 173.919 827.805 173.256C828.12 172.589 828.557 172.074 829.118 171.71C829.679 171.343 830.326 171.159 831.061 171.159C831.629 171.159 832.08 171.254 832.413 171.443C832.75 171.629 833.008 171.841 833.186 172.08C833.368 172.314 833.508 172.508 833.607 172.659H833.743V171.273H835.038V180.25C835.038 181 834.868 181.61 834.527 182.08C834.19 182.553 833.735 182.9 833.163 183.119C832.595 183.343 831.963 183.455 831.266 183.455ZM831.22 178.659C831.758 178.659 832.213 178.536 832.584 178.29C832.955 178.044 833.237 177.689 833.43 177.227C833.624 176.765 833.72 176.212 833.72 175.568C833.72 174.939 833.625 174.384 833.436 173.903C833.247 173.422 832.966 173.045 832.595 172.773C832.224 172.5 831.766 172.364 831.22 172.364C830.652 172.364 830.179 172.508 829.8 172.795C829.425 173.083 829.143 173.47 828.953 173.955C828.768 174.439 828.675 174.977 828.675 175.568C828.675 176.174 828.769 176.71 828.959 177.176C829.152 177.638 829.436 178.002 829.811 178.267C830.19 178.528 830.66 178.659 831.22 178.659ZM841.152 180.182C840.311 180.182 839.586 179.996 838.976 179.625C838.37 179.25 837.902 178.727 837.572 178.057C837.247 177.383 837.084 176.598 837.084 175.705C837.084 174.811 837.247 174.023 837.572 173.341C837.902 172.655 838.36 172.121 838.947 171.739C839.538 171.352 840.228 171.159 841.016 171.159C841.47 171.159 841.919 171.235 842.362 171.386C842.805 171.538 843.209 171.784 843.572 172.125C843.936 172.462 844.226 172.909 844.442 173.466C844.658 174.023 844.766 174.708 844.766 175.523V176.091H838.038V174.932H843.402C843.402 174.439 843.304 174 843.107 173.614C842.913 173.227 842.637 172.922 842.277 172.699C841.921 172.475 841.5 172.364 841.016 172.364C840.482 172.364 840.019 172.496 839.629 172.761C839.243 173.023 838.946 173.364 838.737 173.784C838.529 174.205 838.425 174.655 838.425 175.136V175.909C838.425 176.568 838.538 177.127 838.766 177.585C838.997 178.04 839.317 178.386 839.726 178.625C840.135 178.86 840.61 178.977 841.152 178.977C841.504 178.977 841.822 178.928 842.107 178.83C842.394 178.727 842.643 178.576 842.851 178.375C843.059 178.17 843.22 177.917 843.334 177.614L844.629 177.977C844.493 178.417 844.264 178.803 843.942 179.136C843.62 179.466 843.222 179.723 842.749 179.909C842.275 180.091 841.743 180.182 841.152 180.182Z" fill="white"/>
<rect x="884" y="160" width="60" height="28" rx="14" fill="#7856FF"/>
<path d="M905.364 172C905.239 171.617 905.074 171.275 904.869 170.972C904.669 170.665 904.428 170.403 904.148 170.188C903.871 169.972 903.557 169.807 903.205 169.693C902.852 169.58 902.466 169.523 902.045 169.523C901.356 169.523 900.729 169.701 900.165 170.057C899.6 170.413 899.152 170.938 898.818 171.631C898.485 172.324 898.318 173.174 898.318 174.182C898.318 175.189 898.487 176.04 898.824 176.733C899.161 177.426 899.617 177.951 900.193 178.307C900.769 178.663 901.417 178.841 902.136 178.841C902.803 178.841 903.39 178.699 903.898 178.415C904.409 178.127 904.807 177.722 905.091 177.199C905.379 176.672 905.523 176.053 905.523 175.341L905.955 175.432H902.455V174.182H906.886V175.432C906.886 176.39 906.682 177.223 906.273 177.932C905.867 178.64 905.307 179.189 904.591 179.58C903.879 179.966 903.061 180.159 902.136 180.159C901.106 180.159 900.201 179.917 899.42 179.432C898.644 178.947 898.038 178.258 897.602 177.364C897.17 176.47 896.955 175.409 896.955 174.182C896.955 173.261 897.078 172.434 897.324 171.699C897.574 170.96 897.926 170.331 898.381 169.812C898.835 169.294 899.373 168.896 899.994 168.619C900.616 168.343 901.299 168.205 902.045 168.205C902.659 168.205 903.231 168.297 903.761 168.483C904.295 168.665 904.771 168.924 905.188 169.261C905.608 169.595 905.958 169.994 906.239 170.46C906.519 170.922 906.712 171.436 906.818 172H905.364ZM912.663 180.182C911.875 180.182 911.184 179.994 910.589 179.619C909.999 179.244 909.536 178.72 909.203 178.045C908.874 177.371 908.709 176.583 908.709 175.682C908.709 174.773 908.874 173.979 909.203 173.301C909.536 172.623 909.999 172.097 910.589 171.722C911.184 171.347 911.875 171.159 912.663 171.159C913.451 171.159 914.141 171.347 914.732 171.722C915.326 172.097 915.788 172.623 916.118 173.301C916.451 173.979 916.618 174.773 916.618 175.682C916.618 176.583 916.451 177.371 916.118 178.045C915.788 178.72 915.326 179.244 914.732 179.619C914.141 179.994 913.451 180.182 912.663 180.182ZM912.663 178.977C913.262 178.977 913.754 178.824 914.141 178.517C914.527 178.21 914.813 177.807 914.999 177.307C915.184 176.807 915.277 176.265 915.277 175.682C915.277 175.098 915.184 174.555 914.999 174.051C914.813 173.547 914.527 173.14 914.141 172.83C913.754 172.519 913.262 172.364 912.663 172.364C912.065 172.364 911.572 172.519 911.186 172.83C910.8 173.14 910.514 173.547 910.328 174.051C910.143 174.555 910.05 175.098 910.05 175.682C910.05 176.265 910.143 176.807 910.328 177.307C910.514 177.807 910.8 178.21 911.186 178.517C911.572 178.824 912.065 178.977 912.663 178.977ZM920.006 168.364V180H918.665V168.364H920.006ZM925.757 180.182C925.03 180.182 924.388 179.998 923.831 179.631C923.274 179.259 922.839 178.737 922.524 178.062C922.21 177.384 922.053 176.583 922.053 175.659C922.053 174.742 922.21 173.947 922.524 173.273C922.839 172.598 923.276 172.078 923.837 171.71C924.397 171.343 925.045 171.159 925.78 171.159C926.348 171.159 926.797 171.254 927.126 171.443C927.46 171.629 927.714 171.841 927.888 172.08C928.066 172.314 928.204 172.508 928.303 172.659H928.416V168.364H929.757V180H928.462V178.659H928.303C928.204 178.818 928.064 179.019 927.882 179.261C927.7 179.5 927.441 179.714 927.104 179.903C926.767 180.089 926.318 180.182 925.757 180.182ZM925.939 178.977C926.477 178.977 926.931 178.837 927.303 178.557C927.674 178.273 927.956 177.881 928.149 177.381C928.342 176.877 928.439 176.295 928.439 175.636C928.439 174.985 928.344 174.415 928.155 173.926C927.965 173.434 927.685 173.051 927.314 172.778C926.943 172.502 926.484 172.364 925.939 172.364C925.371 172.364 924.897 172.509 924.518 172.801C924.143 173.089 923.861 173.481 923.672 173.977C923.486 174.47 923.393 175.023 923.393 175.636C923.393 176.258 923.488 176.822 923.678 177.33C923.871 177.833 924.155 178.235 924.53 178.534C924.909 178.83 925.378 178.977 925.939 178.977Z" fill="white"/>
<defs>
<clipPath id="clip0_144_3433">
<rect width="62" height="28" fill="white" transform="translate(307.5 160)"/>
</clipPath>
<clipPath id="clip1_144_3433">
<rect width="59" height="28" fill="white" transform="translate(404.821 160)"/>
</clipPath>
<clipPath id="clip2_144_3433">
<rect width="64" height="28" fill="white" transform="translate(498.5 160)"/>
</clipPath>
</defs>
</svg>
