<svg width="1151" height="320" viewBox="0 0 1151 320" fill="none" xmlns="http://www.w3.org/2000/svg">
<rect width="559" height="320" rx="24" fill="#262626"/>
<path d="M182.511 121V109.364H190.216V111.392H184.972V114.165H189.705V116.193H184.972V121H182.511ZM191.825 121V112.273H194.246V121H191.825ZM193.047 111.148C192.687 111.148 192.378 111.028 192.121 110.79C191.863 110.547 191.734 110.258 191.734 109.92C191.734 109.587 191.863 109.301 192.121 109.062C192.378 108.82 192.685 108.699 193.041 108.699C193.405 108.699 193.714 108.82 193.967 109.062C194.225 109.301 194.354 109.587 194.354 109.92C194.354 110.258 194.225 110.547 193.967 110.79C193.714 111.028 193.407 111.148 193.047 111.148ZM198.605 109.364V121H196.185V109.364H198.605ZM205.186 112.273V114.091H199.93V112.273H205.186ZM201.124 110.182H203.544V118.318C203.544 118.542 203.578 118.716 203.646 118.841C203.714 118.962 203.809 119.047 203.93 119.097C204.055 119.146 204.199 119.17 204.362 119.17C204.476 119.17 204.589 119.161 204.703 119.142C204.817 119.119 204.904 119.102 204.964 119.091L205.345 120.892C205.224 120.93 205.054 120.973 204.834 121.023C204.614 121.076 204.347 121.108 204.033 121.119C203.449 121.142 202.938 121.064 202.499 120.886C202.063 120.708 201.724 120.432 201.482 120.057C201.239 119.682 201.12 119.208 201.124 118.636V110.182ZM210.646 121.17C209.749 121.17 208.976 120.989 208.328 120.625C207.684 120.258 207.188 119.739 206.839 119.068C206.491 118.394 206.317 117.597 206.317 116.676C206.317 115.778 206.491 114.991 206.839 114.312C207.188 113.634 207.679 113.106 208.311 112.727C208.947 112.348 209.694 112.159 210.55 112.159C211.125 112.159 211.661 112.252 212.158 112.438C212.658 112.619 213.093 112.894 213.464 113.261C213.839 113.629 214.131 114.091 214.339 114.648C214.548 115.201 214.652 115.848 214.652 116.591V117.256H207.283V115.756H212.374C212.374 115.407 212.298 115.098 212.146 114.83C211.995 114.561 211.785 114.35 211.516 114.199C211.25 114.044 210.942 113.966 210.589 113.966C210.222 113.966 209.896 114.051 209.612 114.222C209.332 114.388 209.112 114.614 208.953 114.898C208.794 115.178 208.713 115.491 208.709 115.835V117.261C208.709 117.693 208.788 118.066 208.947 118.381C209.11 118.695 209.339 118.938 209.635 119.108C209.93 119.278 210.281 119.364 210.686 119.364C210.955 119.364 211.201 119.326 211.425 119.25C211.648 119.174 211.839 119.061 211.999 118.909C212.158 118.758 212.279 118.572 212.362 118.352L214.601 118.5C214.487 119.038 214.254 119.508 213.902 119.909C213.554 120.307 213.103 120.617 212.55 120.841C212 121.061 211.366 121.17 210.646 121.17ZM216.232 121V112.273H218.578V113.795H218.669C218.828 113.254 219.095 112.845 219.47 112.568C219.845 112.288 220.277 112.148 220.766 112.148C220.887 112.148 221.018 112.155 221.158 112.17C221.298 112.186 221.421 112.206 221.527 112.233V114.381C221.413 114.347 221.256 114.316 221.055 114.29C220.855 114.263 220.671 114.25 220.504 114.25C220.148 114.25 219.83 114.328 219.55 114.483C219.273 114.634 219.054 114.847 218.891 115.119C218.732 115.392 218.652 115.706 218.652 116.062V121H216.232ZM230.04 114.761L227.824 114.898C227.786 114.708 227.705 114.538 227.58 114.386C227.455 114.231 227.29 114.108 227.085 114.017C226.884 113.922 226.644 113.875 226.364 113.875C225.989 113.875 225.672 113.955 225.415 114.114C225.157 114.269 225.028 114.477 225.028 114.739C225.028 114.947 225.112 115.123 225.278 115.267C225.445 115.411 225.731 115.527 226.136 115.614L227.716 115.932C228.564 116.106 229.197 116.386 229.614 116.773C230.03 117.159 230.239 117.667 230.239 118.295C230.239 118.867 230.07 119.369 229.733 119.801C229.4 120.233 228.941 120.57 228.358 120.812C227.778 121.051 227.11 121.17 226.352 121.17C225.197 121.17 224.277 120.93 223.591 120.449C222.909 119.964 222.509 119.305 222.392 118.472L224.773 118.347C224.845 118.699 225.019 118.968 225.295 119.153C225.572 119.335 225.926 119.426 226.358 119.426C226.782 119.426 227.123 119.345 227.381 119.182C227.642 119.015 227.775 118.801 227.778 118.54C227.775 118.32 227.682 118.14 227.5 118C227.318 117.856 227.038 117.746 226.659 117.67L225.148 117.369C224.295 117.199 223.661 116.903 223.244 116.483C222.831 116.062 222.625 115.527 222.625 114.875C222.625 114.314 222.777 113.831 223.08 113.426C223.386 113.021 223.816 112.708 224.369 112.489C224.926 112.269 225.578 112.159 226.324 112.159C227.426 112.159 228.294 112.392 228.926 112.858C229.563 113.324 229.934 113.958 230.04 114.761Z" fill="white" fill-opacity="0.95"/>
<g filter="url(#filter0_ddd_144_7126)">
<rect x="181.5" y="151" width="56" height="24" rx="4" fill="#102B2A"/>
<rect x="182" y="151.5" width="55" height="23" rx="3.5" stroke="#30C9B0"/>
<path d="M192.768 168V157.818H194.001V166.906H198.734V168H192.768ZM202.731 168.179C202.247 168.179 201.808 168.088 201.414 167.906C201.019 167.72 200.706 167.453 200.474 167.105C200.242 166.754 200.126 166.33 200.126 165.832C200.126 165.395 200.212 165.04 200.385 164.768C200.557 164.493 200.787 164.278 201.076 164.122C201.364 163.966 201.682 163.85 202.03 163.774C202.382 163.695 202.734 163.632 203.089 163.585C203.553 163.526 203.929 163.481 204.218 163.451C204.509 163.418 204.721 163.363 204.854 163.287C204.99 163.211 205.058 163.078 205.058 162.889V162.849C205.058 162.359 204.924 161.978 204.655 161.706C204.39 161.434 203.987 161.298 203.447 161.298C202.887 161.298 202.448 161.421 202.13 161.666C201.811 161.911 201.588 162.173 201.458 162.452L200.345 162.054C200.544 161.59 200.809 161.229 201.14 160.97C201.475 160.708 201.84 160.526 202.234 160.423C202.632 160.317 203.023 160.264 203.407 160.264C203.653 160.264 203.934 160.294 204.252 160.354C204.574 160.41 204.884 160.528 205.182 160.707C205.484 160.886 205.734 161.156 205.933 161.517C206.132 161.878 206.231 162.362 206.231 162.969V168H205.058V166.966H204.998C204.919 167.132 204.786 167.309 204.6 167.498C204.415 167.687 204.168 167.848 203.86 167.98C203.551 168.113 203.175 168.179 202.731 168.179ZM202.91 167.125C203.374 167.125 203.765 167.034 204.083 166.852C204.405 166.669 204.647 166.434 204.809 166.146C204.975 165.857 205.058 165.554 205.058 165.236V164.162C205.008 164.222 204.899 164.276 204.73 164.326C204.564 164.372 204.372 164.414 204.153 164.45C203.938 164.483 203.727 164.513 203.522 164.54C203.319 164.563 203.155 164.583 203.029 164.599C202.725 164.639 202.44 164.704 202.174 164.793C201.913 164.879 201.7 165.01 201.538 165.186C201.379 165.358 201.299 165.594 201.299 165.892C201.299 166.3 201.45 166.608 201.752 166.817C202.057 167.022 202.443 167.125 202.91 167.125ZM208.532 168V157.818H209.705V161.577H209.805C209.891 161.444 210.01 161.275 210.162 161.07C210.318 160.861 210.54 160.675 210.829 160.513C211.12 160.347 211.515 160.264 212.012 160.264C212.655 160.264 213.222 160.425 213.712 160.746C214.203 161.068 214.586 161.524 214.861 162.114C215.136 162.704 215.273 163.4 215.273 164.202C215.273 165.01 215.136 165.711 214.861 166.305C214.586 166.895 214.204 167.352 213.717 167.677C213.23 167.998 212.668 168.159 212.032 168.159C211.541 168.159 211.148 168.078 210.854 167.915C210.559 167.75 210.331 167.562 210.172 167.354C210.013 167.142 209.891 166.966 209.805 166.827H209.665V168H208.532ZM209.685 164.182C209.685 164.759 209.77 165.267 209.939 165.708C210.108 166.146 210.355 166.489 210.68 166.737C211.004 166.982 211.402 167.105 211.873 167.105C212.363 167.105 212.773 166.976 213.101 166.717C213.432 166.455 213.681 166.104 213.846 165.663C214.015 165.219 214.1 164.725 214.1 164.182C214.1 163.645 214.017 163.161 213.851 162.73C213.689 162.296 213.442 161.953 213.111 161.701C212.782 161.446 212.37 161.318 211.873 161.318C211.395 161.318 210.994 161.439 210.67 161.681C210.345 161.92 210.099 162.254 209.934 162.685C209.768 163.113 209.685 163.612 209.685 164.182ZM220.27 168.159C219.534 168.159 218.899 167.997 218.366 167.672C217.835 167.344 217.426 166.886 217.138 166.3C216.853 165.71 216.71 165.024 216.71 164.241C216.71 163.459 216.853 162.77 217.138 162.173C217.426 161.573 217.827 161.106 218.341 160.771C218.858 160.433 219.461 160.264 220.15 160.264C220.548 160.264 220.941 160.33 221.329 160.463C221.716 160.596 222.069 160.811 222.388 161.109C222.706 161.404 222.959 161.795 223.148 162.283C223.337 162.77 223.432 163.37 223.432 164.082V164.58H217.545V163.565H222.238C222.238 163.134 222.152 162.75 221.98 162.412C221.811 162.074 221.569 161.807 221.254 161.612C220.943 161.416 220.575 161.318 220.15 161.318C219.683 161.318 219.279 161.434 218.937 161.666C218.599 161.895 218.339 162.193 218.157 162.561C217.974 162.929 217.883 163.323 217.883 163.744V164.42C217.883 164.997 217.983 165.486 218.182 165.887C218.384 166.285 218.664 166.588 219.022 166.797C219.38 167.002 219.796 167.105 220.27 167.105C220.578 167.105 220.856 167.062 221.105 166.976C221.357 166.886 221.574 166.754 221.756 166.578C221.939 166.399 222.079 166.177 222.179 165.912L223.312 166.23C223.193 166.615 222.992 166.953 222.711 167.244C222.429 167.533 222.081 167.758 221.667 167.92C221.252 168.08 220.787 168.159 220.27 168.159ZM226.39 157.818V168H225.216V157.818H226.39Z" fill="white" fill-opacity="0.95"/>
</g>
<rect x="254" y="151.5" width="55" height="23" rx="3.5" fill="#102B2A"/>
<rect x="254" y="151.5" width="55" height="23" rx="3.5" stroke="#30C9B0"/>
<path d="M264.768 168V157.818H266.001V166.906H270.734V168H264.768ZM274.731 168.179C274.247 168.179 273.808 168.088 273.414 167.906C273.019 167.72 272.706 167.453 272.474 167.105C272.242 166.754 272.126 166.33 272.126 165.832C272.126 165.395 272.212 165.04 272.385 164.768C272.557 164.493 272.787 164.278 273.076 164.122C273.364 163.966 273.682 163.85 274.03 163.774C274.382 163.695 274.734 163.632 275.089 163.585C275.553 163.526 275.929 163.481 276.218 163.451C276.509 163.418 276.721 163.363 276.854 163.287C276.99 163.211 277.058 163.078 277.058 162.889V162.849C277.058 162.359 276.924 161.978 276.655 161.706C276.39 161.434 275.987 161.298 275.447 161.298C274.887 161.298 274.448 161.421 274.13 161.666C273.811 161.911 273.588 162.173 273.458 162.452L272.345 162.054C272.544 161.59 272.809 161.229 273.14 160.97C273.475 160.708 273.84 160.526 274.234 160.423C274.632 160.317 275.023 160.264 275.407 160.264C275.653 160.264 275.934 160.294 276.252 160.354C276.574 160.41 276.884 160.528 277.182 160.707C277.484 160.886 277.734 161.156 277.933 161.517C278.132 161.878 278.231 162.362 278.231 162.969V168H277.058V166.966H276.998C276.919 167.132 276.786 167.309 276.6 167.498C276.415 167.687 276.168 167.848 275.86 167.98C275.551 168.113 275.175 168.179 274.731 168.179ZM274.91 167.125C275.374 167.125 275.765 167.034 276.083 166.852C276.405 166.669 276.647 166.434 276.809 166.146C276.975 165.857 277.058 165.554 277.058 165.236V164.162C277.008 164.222 276.899 164.276 276.73 164.326C276.564 164.372 276.372 164.414 276.153 164.45C275.938 164.483 275.727 164.513 275.522 164.54C275.319 164.563 275.155 164.583 275.029 164.599C274.725 164.639 274.44 164.704 274.174 164.793C273.913 164.879 273.7 165.01 273.538 165.186C273.379 165.358 273.299 165.594 273.299 165.892C273.299 166.3 273.45 166.608 273.752 166.817C274.057 167.022 274.443 167.125 274.91 167.125ZM280.532 168V157.818H281.705V161.577H281.805C281.891 161.444 282.01 161.275 282.162 161.07C282.318 160.861 282.54 160.675 282.829 160.513C283.12 160.347 283.515 160.264 284.012 160.264C284.655 160.264 285.222 160.425 285.712 160.746C286.203 161.068 286.586 161.524 286.861 162.114C287.136 162.704 287.273 163.4 287.273 164.202C287.273 165.01 287.136 165.711 286.861 166.305C286.586 166.895 286.204 167.352 285.717 167.677C285.23 167.998 284.668 168.159 284.032 168.159C283.541 168.159 283.148 168.078 282.854 167.915C282.559 167.75 282.331 167.562 282.172 167.354C282.013 167.142 281.891 166.966 281.805 166.827H281.665V168H280.532ZM281.685 164.182C281.685 164.759 281.77 165.267 281.939 165.708C282.108 166.146 282.355 166.489 282.68 166.737C283.004 166.982 283.402 167.105 283.873 167.105C284.363 167.105 284.773 166.976 285.101 166.717C285.432 166.455 285.681 166.104 285.846 165.663C286.015 165.219 286.1 164.725 286.1 164.182C286.1 163.645 286.017 163.161 285.851 162.73C285.689 162.296 285.442 161.953 285.111 161.701C284.782 161.446 284.37 161.318 283.873 161.318C283.395 161.318 282.994 161.439 282.67 161.681C282.345 161.92 282.099 162.254 281.934 162.685C281.768 163.113 281.685 163.612 281.685 164.182ZM292.27 168.159C291.534 168.159 290.899 167.997 290.366 167.672C289.835 167.344 289.426 166.886 289.138 166.3C288.853 165.71 288.71 165.024 288.71 164.241C288.71 163.459 288.853 162.77 289.138 162.173C289.426 161.573 289.827 161.106 290.341 160.771C290.858 160.433 291.461 160.264 292.15 160.264C292.548 160.264 292.941 160.33 293.329 160.463C293.716 160.596 294.069 160.811 294.388 161.109C294.706 161.404 294.959 161.795 295.148 162.283C295.337 162.77 295.432 163.37 295.432 164.082V164.58H289.545V163.565H294.238C294.238 163.134 294.152 162.75 293.98 162.412C293.811 162.074 293.569 161.807 293.254 161.612C292.943 161.416 292.575 161.318 292.15 161.318C291.683 161.318 291.279 161.434 290.937 161.666C290.599 161.895 290.339 162.193 290.157 162.561C289.974 162.929 289.883 163.323 289.883 163.744V164.42C289.883 164.997 289.983 165.486 290.182 165.887C290.384 166.285 290.664 166.588 291.022 166.797C291.38 167.002 291.796 167.105 292.27 167.105C292.578 167.105 292.856 167.062 293.105 166.976C293.357 166.886 293.574 166.754 293.756 166.578C293.939 166.399 294.079 166.177 294.179 165.912L295.312 166.23C295.193 166.615 294.992 166.953 294.711 167.244C294.429 167.533 294.081 167.758 293.667 167.92C293.252 168.08 292.787 168.159 292.27 168.159ZM298.39 157.818V168H297.216V157.818H298.39Z" fill="white" fill-opacity="0.95"/>
<rect x="326" y="151.5" width="55" height="23" rx="3.5" fill="#102B2A"/>
<rect x="326" y="151.5" width="55" height="23" rx="3.5" stroke="#30C9B0"/>
<path d="M336.768 168V157.818H338.001V166.906H342.734V168H336.768ZM346.731 168.179C346.247 168.179 345.808 168.088 345.414 167.906C345.019 167.72 344.706 167.453 344.474 167.105C344.242 166.754 344.126 166.33 344.126 165.832C344.126 165.395 344.212 165.04 344.385 164.768C344.557 164.493 344.787 164.278 345.076 164.122C345.364 163.966 345.682 163.85 346.03 163.774C346.382 163.695 346.734 163.632 347.089 163.585C347.553 163.526 347.929 163.481 348.218 163.451C348.509 163.418 348.721 163.363 348.854 163.287C348.99 163.211 349.058 163.078 349.058 162.889V162.849C349.058 162.359 348.924 161.978 348.655 161.706C348.39 161.434 347.987 161.298 347.447 161.298C346.887 161.298 346.448 161.421 346.13 161.666C345.811 161.911 345.588 162.173 345.458 162.452L344.345 162.054C344.544 161.59 344.809 161.229 345.14 160.97C345.475 160.708 345.84 160.526 346.234 160.423C346.632 160.317 347.023 160.264 347.407 160.264C347.653 160.264 347.934 160.294 348.252 160.354C348.574 160.41 348.884 160.528 349.182 160.707C349.484 160.886 349.734 161.156 349.933 161.517C350.132 161.878 350.231 162.362 350.231 162.969V168H349.058V166.966H348.998C348.919 167.132 348.786 167.309 348.6 167.498C348.415 167.687 348.168 167.848 347.86 167.98C347.551 168.113 347.175 168.179 346.731 168.179ZM346.91 167.125C347.374 167.125 347.765 167.034 348.083 166.852C348.405 166.669 348.647 166.434 348.809 166.146C348.975 165.857 349.058 165.554 349.058 165.236V164.162C349.008 164.222 348.899 164.276 348.73 164.326C348.564 164.372 348.372 164.414 348.153 164.45C347.938 164.483 347.727 164.513 347.522 164.54C347.319 164.563 347.155 164.583 347.029 164.599C346.725 164.639 346.44 164.704 346.174 164.793C345.913 164.879 345.7 165.01 345.538 165.186C345.379 165.358 345.299 165.594 345.299 165.892C345.299 166.3 345.45 166.608 345.752 166.817C346.057 167.022 346.443 167.125 346.91 167.125ZM352.532 168V157.818H353.705V161.577H353.805C353.891 161.444 354.01 161.275 354.162 161.07C354.318 160.861 354.54 160.675 354.829 160.513C355.12 160.347 355.515 160.264 356.012 160.264C356.655 160.264 357.222 160.425 357.712 160.746C358.203 161.068 358.586 161.524 358.861 162.114C359.136 162.704 359.273 163.4 359.273 164.202C359.273 165.01 359.136 165.711 358.861 166.305C358.586 166.895 358.204 167.352 357.717 167.677C357.23 167.998 356.668 168.159 356.032 168.159C355.541 168.159 355.148 168.078 354.854 167.915C354.559 167.75 354.331 167.562 354.172 167.354C354.013 167.142 353.891 166.966 353.805 166.827H353.665V168H352.532ZM353.685 164.182C353.685 164.759 353.77 165.267 353.939 165.708C354.108 166.146 354.355 166.489 354.68 166.737C355.004 166.982 355.402 167.105 355.873 167.105C356.363 167.105 356.773 166.976 357.101 166.717C357.432 166.455 357.681 166.104 357.846 165.663C358.015 165.219 358.1 164.725 358.1 164.182C358.1 163.645 358.017 163.161 357.851 162.73C357.689 162.296 357.442 161.953 357.111 161.701C356.782 161.446 356.37 161.318 355.873 161.318C355.395 161.318 354.994 161.439 354.67 161.681C354.345 161.92 354.099 162.254 353.934 162.685C353.768 163.113 353.685 163.612 353.685 164.182ZM364.27 168.159C363.534 168.159 362.899 167.997 362.366 167.672C361.835 167.344 361.426 166.886 361.138 166.3C360.853 165.71 360.71 165.024 360.71 164.241C360.71 163.459 360.853 162.77 361.138 162.173C361.426 161.573 361.827 161.106 362.341 160.771C362.858 160.433 363.461 160.264 364.15 160.264C364.548 160.264 364.941 160.33 365.329 160.463C365.716 160.596 366.069 160.811 366.388 161.109C366.706 161.404 366.959 161.795 367.148 162.283C367.337 162.77 367.432 163.37 367.432 164.082V164.58H361.545V163.565H366.238C366.238 163.134 366.152 162.75 365.98 162.412C365.811 162.074 365.569 161.807 365.254 161.612C364.943 161.416 364.575 161.318 364.15 161.318C363.683 161.318 363.279 161.434 362.937 161.666C362.599 161.895 362.339 162.193 362.157 162.561C361.974 162.929 361.883 163.323 361.883 163.744V164.42C361.883 164.997 361.983 165.486 362.182 165.887C362.384 166.285 362.664 166.588 363.022 166.797C363.38 167.002 363.796 167.105 364.27 167.105C364.578 167.105 364.856 167.062 365.105 166.976C365.357 166.886 365.574 166.754 365.756 166.578C365.939 166.399 366.079 166.177 366.179 165.912L367.312 166.23C367.193 166.615 366.992 166.953 366.711 167.244C366.429 167.533 366.081 167.758 365.667 167.92C365.252 168.08 364.787 168.159 364.27 168.159ZM370.39 157.818V168H369.216V157.818H370.39Z" fill="white" fill-opacity="0.95"/>
<rect x="172.5" y="142" width="91" height="42" rx="5" stroke="#DA0087" stroke-width="2"/>
<rect x="174.5" y="144" width="87" height="38" rx="3" stroke="white" stroke-width="2"/>
<rect x="266.5" y="142" width="59" height="42" rx="5" stroke="#DA0087" stroke-width="2"/>
<rect x="268.5" y="144" width="55" height="38" rx="3" stroke="white" stroke-width="2"/>
<path d="M338 124V123" stroke="#DA0087"/>
<path d="M338 115L334 123H342L338 115Z" fill="#DA0087"/>
<rect x="312.5" y="116" width="51" height="28" rx="14" fill="#DA0087"/>
<path d="M333.988 123.48V124.936H330.116V135H328.484V124.936H324.66V123.48H333.988ZM335.291 129H333.659C333.745 128.168 334.139 127.523 334.843 127.064C335.473 126.648 336.267 126.44 337.227 126.44C338.369 126.44 339.243 126.739 339.851 127.336C340.363 127.848 340.619 128.509 340.619 129.32V135H339.355L339.163 133.864C338.513 134.781 337.585 135.24 336.379 135.24C335.43 135.24 334.689 134.984 334.155 134.472C333.718 134.045 333.499 133.507 333.499 132.856C333.499 132.035 333.782 131.4 334.347 130.952C334.849 130.557 335.617 130.269 336.651 130.088L339.083 129.672V129.256C339.083 128.712 338.897 128.301 338.523 128.024C338.193 127.779 337.739 127.656 337.163 127.656C336.033 127.656 335.409 128.104 335.291 129ZM336.747 133.944C337.398 133.944 337.963 133.731 338.443 133.304C338.87 132.909 339.083 132.456 339.083 131.944V130.872L337.019 131.24C336.262 131.368 335.745 131.565 335.467 131.832C335.243 132.045 335.131 132.333 335.131 132.696C335.131 133.101 335.27 133.411 335.547 133.624C335.825 133.837 336.225 133.944 336.747 133.944ZM344.04 135H342.776V123.48H344.312V127.832C344.963 126.904 345.891 126.44 347.096 126.44C348.291 126.44 349.219 126.867 349.88 127.72C350.467 128.488 350.76 129.507 350.76 130.776C350.76 132.28 350.36 133.432 349.56 134.232C348.888 134.904 348.03 135.24 346.984 135.24C345.8 135.24 344.899 134.792 344.28 133.896L344.04 135ZM349.16 130.744C349.16 129.699 348.899 128.915 348.376 128.392C347.96 127.965 347.416 127.752 346.744 127.752C345.966 127.752 345.347 128.035 344.888 128.6C344.451 129.144 344.232 129.859 344.232 130.744C344.232 131.811 344.494 132.627 345.016 133.192C345.454 133.683 346.03 133.928 346.744 133.928C347.544 133.928 348.152 133.635 348.568 133.048C348.963 132.504 349.16 131.736 349.16 130.744Z" fill="white"/>
<path d="M604.195 26.515C606.365 26.515 608.15 25.8267 609.55 24.45C610.763 23.26 611.417 21.8133 611.51 20.11H615.115C615.022 21.7667 614.508 23.3067 613.575 24.73C612.618 26.1767 611.347 27.32 609.76 28.16C608.057 29.07 606.178 29.525 604.125 29.525C600.322 29.525 597.382 28.23 595.305 25.64C593.485 23.3533 592.575 20.2733 592.575 16.4C592.575 11.9667 593.823 8.57167 596.32 6.215C598.397 4.255 601.092 3.275 604.405 3.275C607.555 3.275 610.168 4.24333 612.245 6.18C613.972 7.76667 614.917 9.66833 615.08 11.885H611.475C611.242 10.0417 610.413 8.60667 608.99 7.58C607.73 6.69333 606.202 6.25 604.405 6.25C601.722 6.25 599.657 7.20667 598.21 9.12C596.88 10.87 596.215 13.2967 596.215 16.4C596.215 19.8067 597.055 22.42 598.735 24.24C600.135 25.7567 601.955 26.515 604.195 26.515ZM616.498 19.9C616.498 16.5633 617.49 14.0433 619.473 12.34C621.06 10.9633 623.066 10.275 625.493 10.275C628.316 10.275 630.533 11.1733 632.143 12.97C633.683 14.65 634.453 16.96 634.453 19.9C634.453 23.19 633.485 25.6983 631.548 27.425C629.961 28.825 627.931 29.525 625.458 29.525C622.635 29.525 620.406 28.5917 618.773 26.725C617.256 25.0217 616.498 22.7467 616.498 19.9ZM619.998 19.9C619.998 22.2333 620.593 24.0183 621.783 25.255C622.763 26.2817 624.011 26.795 625.528 26.795C627.301 26.795 628.666 26.13 629.623 24.8C630.51 23.5867 630.953 21.9533 630.953 19.9C630.953 17.52 630.37 15.7233 629.203 14.51C628.246 13.5067 627.01 13.005 625.493 13.005C623.743 13.005 622.378 13.67 621.398 15C620.465 16.2133 619.998 17.8467 619.998 19.9ZM640.255 29H636.895V10.8H639.66L640.045 13.11C641.398 11.22 643.242 10.275 645.575 10.275C647.722 10.275 649.367 10.94 650.51 12.27C651.513 13.46 652.015 15.0817 652.015 17.135V29H648.655V17.17C648.655 14.4867 647.36 13.145 644.77 13.145C643.417 13.145 642.308 13.6117 641.445 14.545C640.652 15.385 640.255 16.4583 640.255 17.765V29ZM663.474 26.305V29.175C662.61 29.4083 661.782 29.525 660.989 29.525C659.309 29.525 658.049 29 657.209 27.95C656.485 27.0867 656.124 25.9317 656.124 24.485V13.67H653.429V10.8H656.124L656.334 6.425H659.484V10.8H663.404V13.67H659.484V24.555C659.484 25.9083 660.125 26.585 661.409 26.585C662.015 26.585 662.704 26.4917 663.474 26.305ZM668.593 29H665.233V10.8H667.998L668.453 13.495C669.479 11.3483 671.019 10.275 673.073 10.275C673.749 10.275 674.414 10.3567 675.068 10.52V13.88C674.274 13.67 673.563 13.565 672.933 13.565C671.579 13.565 670.518 14.1133 669.748 15.21C668.978 16.3067 668.593 17.8583 668.593 19.865V29ZM674.917 19.9C674.917 16.5633 675.908 14.0433 677.892 12.34C679.478 10.9633 681.485 10.275 683.912 10.275C686.735 10.275 688.952 11.1733 690.562 12.97C692.102 14.65 692.872 16.96 692.872 19.9C692.872 23.19 691.903 25.6983 689.967 27.425C688.38 28.825 686.35 29.525 683.877 29.525C681.053 29.525 678.825 28.5917 677.192 26.725C675.675 25.0217 674.917 22.7467 674.917 19.9ZM678.417 19.9C678.417 22.2333 679.012 24.0183 680.202 25.255C681.182 26.2817 682.43 26.795 683.947 26.795C685.72 26.795 687.085 26.13 688.042 24.8C688.928 23.5867 689.372 21.9533 689.372 19.9C689.372 17.52 688.788 15.7233 687.622 14.51C686.665 13.5067 685.428 13.005 683.912 13.005C682.162 13.005 680.797 13.67 679.817 15C678.883 16.2133 678.417 17.8467 678.417 19.9ZM698.674 3.8V29H695.314V3.8H698.674ZM712.825 24.065C712.825 23.0383 712.288 22.2683 711.215 21.755C710.585 21.475 709.36 21.125 707.54 20.705C705.3 20.215 703.702 19.5033 702.745 18.57C701.952 17.7767 701.555 16.7383 701.555 15.455C701.555 13.7517 702.243 12.445 703.62 11.535C704.857 10.695 706.525 10.275 708.625 10.275C710.795 10.275 712.557 10.8117 713.91 11.885C715.077 12.8183 715.8 14.055 716.08 15.595H712.65C712.253 13.8217 710.9 12.935 708.59 12.935C707.307 12.935 706.35 13.1683 705.72 13.635C705.207 14.0317 704.95 14.5333 704.95 15.14C704.95 15.8867 705.23 16.4467 705.79 16.82C706.373 17.1933 707.505 17.5667 709.185 17.94C711.752 18.5 713.537 19.1883 714.54 20.005C715.66 20.915 716.22 22.1867 716.22 23.82C716.22 25.64 715.473 27.075 713.98 28.125C712.627 29.0583 710.842 29.525 708.625 29.525C706.198 29.525 704.273 28.9417 702.85 27.775C701.613 26.7483 700.925 25.4183 700.785 23.785H704.215C704.588 25.8383 706.07 26.865 708.66 26.865C710.06 26.865 711.145 26.5617 711.915 25.955C712.522 25.465 712.825 24.835 712.825 24.065Z" fill="white" fill-opacity="0.95"/>
<rect x="590" y="67" width="102" height="72" rx="9" fill="#08599C"/>
<rect x="590" y="67" width="102" height="72" rx="9" stroke="#5EBFF7" stroke-width="2"/>
<path d="M608.504 96.24C606.957 96.24 605.736 95.8667 604.84 95.12C604.083 94.4907 603.629 93.6533 603.48 92.608H606.024C606.12 93.1733 606.397 93.6107 606.856 93.92C607.293 94.2187 607.853 94.368 608.536 94.368C609.965 94.368 610.68 93.9253 610.68 93.04C610.68 92.4747 610.371 92.0427 609.752 91.744C609.4 91.5733 608.749 91.376 607.8 91.152C606.499 90.8533 605.56 90.4693 604.984 90C604.259 89.4027 603.896 88.592 603.896 87.568C603.896 86.4587 604.339 85.6107 605.224 85.024C606.024 84.5013 607.123 84.24 608.52 84.24C609.939 84.24 611.048 84.56 611.848 85.2C612.541 85.7547 612.957 86.5013 613.096 87.44H610.584C610.52 86.9813 610.269 86.6293 609.832 86.384C609.459 86.1813 609 86.08 608.456 86.08C607.219 86.08 606.6 86.4693 606.6 87.248C606.6 87.6747 606.76 87.9947 607.08 88.208C607.4 88.4213 608.019 88.6293 608.936 88.832C610.376 89.1413 611.448 89.5787 612.152 90.144C612.973 90.7947 613.384 91.6587 613.384 92.736C613.384 93.8133 612.941 94.672 612.056 95.312C611.203 95.9307 610.019 96.24 608.504 96.24ZM619.765 96.24C618.859 96.24 618.096 95.92 617.477 95.28V98.88H614.981V87.68H616.869L617.349 88.608C618.021 87.8293 618.901 87.44 619.989 87.44C621.205 87.44 622.144 87.856 622.805 88.688C623.403 89.4453 623.701 90.4533 623.701 91.712C623.701 93.2053 623.275 94.368 622.421 95.2C621.717 95.8933 620.832 96.24 619.765 96.24ZM621.189 91.776C621.189 90.1013 620.571 89.264 619.333 89.264C618.704 89.264 618.219 89.4933 617.877 89.952C617.557 90.3893 617.397 90.9867 617.397 91.744C617.397 93.5253 618.016 94.416 619.253 94.416C619.883 94.416 620.368 94.1707 620.709 93.68C621.029 93.2213 621.189 92.5867 621.189 91.776ZM627.857 90.08H625.297C625.511 89.184 625.996 88.5067 626.753 88.048C627.436 87.6427 628.289 87.44 629.313 87.44C630.551 87.44 631.505 87.7493 632.177 88.368C632.764 88.9013 633.057 89.6107 633.057 90.496V96H631.105L630.801 95.136C630.161 95.872 629.244 96.24 628.049 96.24C627.121 96.24 626.391 95.9787 625.857 95.456C625.377 94.9973 625.137 94.3787 625.137 93.6C625.137 92.8747 625.42 92.304 625.985 91.888C626.529 91.4827 627.367 91.184 628.497 90.992L630.561 90.656V90.288C630.561 89.4667 630.119 89.056 629.233 89.056C628.455 89.056 627.996 89.3973 627.857 90.08ZM628.769 94.528C629.345 94.528 629.804 94.352 630.145 94C630.423 93.7013 630.561 93.344 630.561 92.928V92.016L629.137 92.304C628.593 92.4107 628.204 92.56 627.969 92.752C627.745 92.9333 627.633 93.1787 627.633 93.488C627.633 94.1813 628.012 94.528 628.769 94.528ZM640.515 93.232H643.139C642.915 94.2133 642.429 94.9653 641.683 95.488C640.979 95.9893 640.072 96.24 638.963 96.24C637.501 96.24 636.408 95.8133 635.683 94.96C635.053 94.224 634.739 93.2107 634.739 91.92C634.739 90.4267 635.176 89.28 636.051 88.48C636.797 87.7867 637.784 87.44 639.011 87.44C640.173 87.44 641.139 87.7333 641.907 88.32C642.557 88.8213 642.963 89.4613 643.123 90.24H640.499C640.403 89.9093 640.227 89.6427 639.971 89.44C639.715 89.2373 639.421 89.136 639.091 89.136C637.917 89.136 637.331 90.08 637.331 91.968C637.331 92.8747 637.512 93.5573 637.875 94.016C638.173 94.368 638.547 94.544 638.995 94.544C639.752 94.544 640.259 94.1067 640.515 93.232ZM650.448 93.584H652.992C652.779 94.4587 652.315 95.1253 651.6 95.584C650.896 96.0213 649.99 96.24 648.88 96.24C647.472 96.24 646.368 95.8027 645.568 94.928C644.854 94.1387 644.496 93.1093 644.496 91.84C644.496 90.3467 644.939 89.2107 645.824 88.432C646.582 87.7707 647.574 87.44 648.8 87.44C650.251 87.44 651.344 87.9093 652.08 88.848C652.752 89.7013 653.088 90.9013 653.088 92.448H647.024C647.184 93.8133 647.846 94.496 649.008 94.496C649.382 94.496 649.696 94.416 649.952 94.256C650.208 94.096 650.374 93.872 650.448 93.584ZM648.752 89.008C647.739 89.008 647.163 89.6693 647.024 90.992H650.528C650.464 89.6693 649.872 89.008 648.752 89.008Z" fill="#C7EEFF"/>
<path d="M718.705 103.182C718.705 104.451 718.464 105.53 717.983 106.42C717.506 107.311 716.854 107.991 716.028 108.46C715.206 108.926 714.282 109.159 713.256 109.159C712.222 109.159 711.294 108.924 710.472 108.455C709.65 107.985 709 107.305 708.523 106.415C708.045 105.525 707.807 104.447 707.807 103.182C707.807 101.913 708.045 100.833 708.523 99.9432C709 99.053 709.65 98.375 710.472 97.9091C711.294 97.4394 712.222 97.2045 713.256 97.2045C714.282 97.2045 715.206 97.4394 716.028 97.9091C716.854 98.375 717.506 99.053 717.983 99.9432C718.464 100.833 718.705 101.913 718.705 103.182ZM716.21 103.182C716.21 102.36 716.087 101.667 715.841 101.102C715.598 100.538 715.256 100.11 714.812 99.8182C714.369 99.5265 713.85 99.3807 713.256 99.3807C712.661 99.3807 712.142 99.5265 711.699 99.8182C711.256 100.11 710.911 100.538 710.665 101.102C710.422 101.667 710.301 102.36 710.301 103.182C710.301 104.004 710.422 104.697 710.665 105.261C710.911 105.826 711.256 106.254 711.699 106.545C712.142 106.837 712.661 106.983 713.256 106.983C713.85 106.983 714.369 106.837 714.812 106.545C715.256 106.254 715.598 105.826 715.841 105.261C716.087 104.697 716.21 104.004 716.21 103.182ZM720.802 109V100.273H723.148V101.795H723.239C723.398 101.254 723.665 100.845 724.04 100.568C724.415 100.288 724.847 100.148 725.336 100.148C725.457 100.148 725.588 100.155 725.728 100.17C725.868 100.186 725.991 100.206 726.097 100.233V102.381C725.983 102.347 725.826 102.316 725.625 102.29C725.425 102.263 725.241 102.25 725.074 102.25C724.718 102.25 724.4 102.328 724.12 102.483C723.843 102.634 723.624 102.847 723.461 103.119C723.302 103.392 723.222 103.706 723.222 104.062V109H720.802Z" fill="white" fill-opacity="0.95"/>
<rect x="742" y="67" width="102" height="72" rx="9" fill="#08599C"/>
<rect x="742" y="67" width="102" height="72" rx="9" stroke="#5EBFF7" stroke-width="2"/>
<path d="M765.528 96H762.344L759.8 91.792H758.328V96H755.64V84.48H759.88C761.587 84.48 762.856 84.832 763.688 85.536C764.403 86.1547 764.76 87.0187 764.76 88.128C764.76 89.696 763.997 90.7627 762.472 91.328L765.528 96ZM759.912 86.336H758.328V89.936H760.008C760.637 89.936 761.133 89.76 761.496 89.408C761.816 89.088 761.976 88.6613 761.976 88.128C761.976 86.9333 761.288 86.336 759.912 86.336ZM772.207 93.584H774.751C774.538 94.4587 774.074 95.1253 773.359 95.584C772.655 96.0213 771.748 96.24 770.639 96.24C769.231 96.24 768.127 95.8027 767.327 94.928C766.612 94.1387 766.255 93.1093 766.255 91.84C766.255 90.3467 766.698 89.2107 767.583 88.432C768.34 87.7707 769.332 87.44 770.559 87.44C772.01 87.44 773.103 87.9093 773.839 88.848C774.511 89.7013 774.847 90.9013 774.847 92.448H768.783C768.943 93.8133 769.604 94.496 770.767 94.496C771.14 94.496 771.455 94.416 771.711 94.256C771.967 94.096 772.132 93.872 772.207 93.584ZM770.511 89.008C769.498 89.008 768.922 89.6693 768.783 90.992H772.287C772.223 89.6693 771.631 89.008 770.511 89.008ZM781.288 94.32V96.016C780.765 96.1653 780.259 96.24 779.768 96.24C778.861 96.24 778.168 95.9893 777.688 95.488C777.272 95.0507 777.064 94.448 777.064 93.68V89.408H775.8V87.68H777.064L777.224 85.68H779.56V87.68H781.272V89.408H779.56V93.76C779.56 93.984 779.629 94.16 779.768 94.288C779.917 94.4053 780.12 94.464 780.376 94.464C780.579 94.464 780.883 94.416 781.288 94.32ZM782.651 87.68H785.147V93.184C785.147 93.6 785.259 93.92 785.483 94.144C785.717 94.368 786.048 94.48 786.475 94.48C786.955 94.48 787.339 94.304 787.627 93.952C787.883 93.6213 788.011 93.1947 788.011 92.672V87.68H790.507V96H788.443L788.203 95.12C787.595 95.8667 786.757 96.24 785.691 96.24C784.667 96.24 783.888 95.9307 783.355 95.312C782.885 94.768 782.651 94.0267 782.651 93.088V87.68ZM795.078 96H792.582V87.68H794.662L794.934 88.944C795.393 87.9413 796.118 87.44 797.11 87.44C797.483 87.44 797.798 87.4773 798.054 87.552V89.872C797.713 89.7653 797.355 89.712 796.982 89.712C796.417 89.712 795.953 89.984 795.59 90.528C795.249 91.04 795.078 91.712 795.078 92.544V96ZM801.757 96H799.261V87.68H801.325L801.565 88.592C802.173 87.824 803.021 87.44 804.109 87.44C805.144 87.44 805.933 87.7547 806.477 88.384C806.957 88.9387 807.197 89.6853 807.197 90.624V96H804.701V90.72C804.701 89.7067 804.275 89.2 803.421 89.2C802.899 89.2 802.483 89.392 802.173 89.776C801.896 90.1067 801.757 90.5387 801.757 91.072V96ZM813.751 84.24L810.519 97.44H808.311L811.543 84.24H813.751ZM763.272 113.264V115.12H758.648V118.064H763.736V120H755.96V108.48H763.736V110.448H758.648V113.264H763.272ZM767.993 120H765.497V111.68H767.561L767.801 112.592C768.409 111.824 769.257 111.44 770.345 111.44C771.38 111.44 772.169 111.755 772.713 112.384C773.193 112.939 773.433 113.685 773.433 114.624V120H770.937V114.72C770.937 113.707 770.51 113.2 769.657 113.2C769.134 113.2 768.718 113.392 768.409 113.776C768.132 114.107 767.993 114.539 767.993 115.072V120ZM780.194 118.32V120.016C779.672 120.165 779.165 120.24 778.674 120.24C777.768 120.24 777.074 119.989 776.594 119.488C776.178 119.051 775.97 118.448 775.97 117.68V113.408H774.706V111.68H775.97L776.13 109.68H778.466V111.68H780.178V113.408H778.466V117.76C778.466 117.984 778.536 118.16 778.674 118.288C778.824 118.405 779.026 118.464 779.282 118.464C779.485 118.464 779.789 118.416 780.194 118.32ZM787.191 117.584H789.735C789.521 118.459 789.057 119.125 788.343 119.584C787.639 120.021 786.732 120.24 785.623 120.24C784.215 120.24 783.111 119.803 782.311 118.928C781.596 118.139 781.239 117.109 781.239 115.84C781.239 114.347 781.681 113.211 782.567 112.432C783.324 111.771 784.316 111.44 785.543 111.44C786.993 111.44 788.087 111.909 788.823 112.848C789.495 113.701 789.831 114.901 789.831 116.448H783.767C783.927 117.813 784.588 118.496 785.751 118.496C786.124 118.496 786.439 118.416 786.695 118.256C786.951 118.096 787.116 117.872 787.191 117.584ZM785.495 113.008C784.481 113.008 783.905 113.669 783.767 114.992H787.271C787.207 113.669 786.615 113.008 785.495 113.008ZM794 120H791.504V111.68H793.584L793.856 112.944C794.314 111.941 795.04 111.44 796.032 111.44C796.405 111.44 796.72 111.477 796.976 111.552V113.872C796.634 113.765 796.277 113.712 795.904 113.712C795.338 113.712 794.874 113.984 794.512 114.528C794.17 115.04 794 115.712 794 116.544V120Z" fill="#C7EEFF"/>
<path d="M867.096 80.88C867.096 80.496 867.011 80.192 866.84 79.968C866.648 79.7013 866.296 79.456 865.784 79.232C865.272 79.008 864.499 78.752 863.464 78.464C862.077 78.08 861.123 77.6053 860.6 77.04C860.173 76.5813 859.96 75.968 859.96 75.2C859.96 74.272 860.365 73.536 861.176 72.992C861.923 72.4907 862.893 72.24 864.088 72.24C865.421 72.24 866.504 72.5547 867.336 73.184C868.083 73.7387 868.52 74.464 868.648 75.36H866.968C866.872 74.752 866.552 74.2987 866.008 74C865.528 73.7227 864.888 73.584 864.088 73.584C863.192 73.584 862.531 73.7547 862.104 74.096C861.763 74.3627 861.592 74.7093 861.592 75.136C861.592 75.4133 861.635 75.6427 861.72 75.824C861.816 75.9947 861.976 76.1493 862.2 76.288C862.616 76.5653 863.421 76.8693 864.616 77.2C866.28 77.6693 867.405 78.2027 867.992 78.8C868.483 79.2907 868.728 79.9627 868.728 80.816C868.728 81.8293 868.285 82.6667 867.4 83.328C866.568 83.936 865.512 84.24 864.232 84.24C862.899 84.24 861.795 83.8827 860.92 83.168C860.163 82.5493 859.709 81.7493 859.56 80.768H861.24C861.347 81.472 861.683 82.0107 862.248 82.384C862.76 82.7253 863.411 82.896 864.2 82.896C865.181 82.896 865.933 82.672 866.456 82.224C866.883 81.8613 867.096 81.4133 867.096 80.88ZM870.573 75.68H871.837L872.077 76.768C872.76 75.8827 873.698 75.44 874.893 75.44C876.088 75.44 877.016 75.8667 877.677 76.72C878.264 77.488 878.557 78.5067 878.557 79.776C878.557 81.28 878.157 82.432 877.357 83.232C876.685 83.904 875.826 84.24 874.781 84.24C873.597 84.24 872.706 83.8027 872.109 82.928V86.88H870.573V75.68ZM876.957 79.744C876.957 78.6987 876.696 77.9147 876.173 77.392C875.757 76.9653 875.213 76.752 874.541 76.752C873.762 76.752 873.144 77.0347 872.685 77.6C872.248 78.144 872.029 78.8587 872.029 79.744C872.029 80.8107 872.29 81.6267 872.813 82.192C873.25 82.6827 873.826 82.928 874.541 82.928C875.341 82.928 875.949 82.6347 876.365 82.048C876.76 81.504 876.957 80.736 876.957 79.744ZM881.635 78H880.003C880.088 77.168 880.483 76.5227 881.187 76.064C881.816 75.648 882.611 75.44 883.571 75.44C884.712 75.44 885.587 75.7387 886.195 76.336C886.707 76.848 886.963 77.5093 886.963 78.32V84H885.699L885.507 82.864C884.856 83.7813 883.928 84.24 882.723 84.24C881.774 84.24 881.032 83.984 880.499 83.472C880.062 83.0453 879.843 82.5067 879.843 81.856C879.843 81.0347 880.126 80.4 880.691 79.952C881.192 79.5573 881.96 79.2693 882.995 79.088L885.427 78.672V78.256C885.427 77.712 885.24 77.3013 884.867 77.024C884.536 76.7787 884.083 76.656 883.507 76.656C882.376 76.656 881.752 77.104 881.635 78ZM883.091 82.944C883.742 82.944 884.307 82.7307 884.787 82.304C885.214 81.9093 885.427 81.456 885.427 80.944V79.872L883.363 80.24C882.606 80.368 882.088 80.5653 881.811 80.832C881.587 81.0453 881.475 81.3333 881.475 81.696C881.475 82.1013 881.614 82.4107 881.891 82.624C882.168 82.8373 882.568 82.944 883.091 82.944ZM894.544 81.328H896.224C896.096 82.224 895.675 82.944 894.96 83.488C894.309 83.9893 893.515 84.24 892.576 84.24C891.349 84.24 890.373 83.8187 889.648 82.976C888.976 82.1973 888.64 81.1733 888.64 79.904C888.64 78.432 889.045 77.2907 889.856 76.48C890.549 75.7867 891.451 75.44 892.56 75.44C893.584 75.44 894.427 75.712 895.088 76.256C895.675 76.736 896.032 77.3653 896.16 78.144H894.464C894.357 77.696 894.139 77.3493 893.808 77.104C893.488 76.8587 893.083 76.736 892.592 76.736C891.835 76.736 891.253 77.0347 890.848 77.632C890.464 78.1867 890.272 78.96 890.272 79.952C890.272 80.9867 890.528 81.7707 891.04 82.304C891.445 82.7307 891.968 82.944 892.608 82.944C893.163 82.944 893.616 82.784 893.968 82.464C894.277 82.1867 894.469 81.808 894.544 81.328ZM903.643 81.6H905.307C905.073 82.4427 904.609 83.104 903.915 83.584C903.265 84.0213 902.486 84.24 901.579 84.24C900.267 84.24 899.243 83.824 898.507 82.992C897.835 82.2133 897.499 81.1627 897.499 79.84C897.499 78.336 897.926 77.1947 898.779 76.416C899.483 75.7653 900.39 75.44 901.499 75.44C902.801 75.44 903.782 75.8613 904.443 76.704C905.083 77.5147 905.403 78.672 905.403 80.176H899.067C899.131 81.1573 899.43 81.888 899.963 82.368C900.401 82.752 900.955 82.944 901.627 82.944C902.15 82.944 902.603 82.8 902.987 82.512C903.307 82.2667 903.526 81.9627 903.643 81.6ZM901.531 76.672C900.849 76.672 900.299 76.8853 899.883 77.312C899.489 77.7067 899.238 78.256 899.131 78.96H903.835C903.782 78.16 903.515 77.5627 903.035 77.168C902.651 76.8373 902.15 76.672 901.531 76.672ZM906.605 85.44L910.589 72.24H912.045L908.061 85.44H906.605ZM920.451 77.472V78.816H915.363V82.624H920.915V84H913.731V72.48H920.915V73.856H915.363V77.472H920.451ZM924.375 84H922.839V75.68H924.103L924.279 76.736C924.897 75.872 925.74 75.44 926.807 75.44C927.788 75.44 928.54 75.744 929.063 76.352C929.521 76.896 929.751 77.6373 929.751 78.576V84H928.215V78.592C928.215 77.3653 927.623 76.752 926.439 76.752C925.82 76.752 925.313 76.9653 924.919 77.392C924.556 77.776 924.375 78.2667 924.375 78.864V84ZM935.629 82.768V84.08C935.234 84.1867 934.856 84.24 934.493 84.24C933.725 84.24 933.149 84 932.765 83.52C932.434 83.1253 932.269 82.5973 932.269 81.936V76.992H931.037V75.68H932.269L932.365 73.68H933.805V75.68H935.597V76.992H933.805V81.968C933.805 82.5867 934.098 82.896 934.685 82.896C934.962 82.896 935.277 82.8533 935.629 82.768ZM942.659 81.6H944.323C944.088 82.4427 943.624 83.104 942.931 83.584C942.28 84.0213 941.502 84.24 940.595 84.24C939.283 84.24 938.259 83.824 937.523 82.992C936.851 82.2133 936.515 81.1627 936.515 79.84C936.515 78.336 936.942 77.1947 937.795 76.416C938.499 75.7653 939.406 75.44 940.515 75.44C941.816 75.44 942.798 75.8613 943.459 76.704C944.099 77.5147 944.419 78.672 944.419 80.176H938.083C938.147 81.1573 938.446 81.888 938.979 82.368C939.416 82.752 939.971 82.944 940.643 82.944C941.166 82.944 941.619 82.8 942.003 82.512C942.323 82.2667 942.542 81.9627 942.659 81.6ZM940.547 76.672C939.864 76.672 939.315 76.8853 938.899 77.312C938.504 77.7067 938.254 78.256 938.147 78.96H942.851C942.798 78.16 942.531 77.5627 942.051 77.168C941.667 76.8373 941.166 76.672 940.547 76.672ZM947.797 84H946.261V75.68H947.525L947.733 76.912C948.202 75.9307 948.906 75.44 949.845 75.44C950.154 75.44 950.458 75.4773 950.757 75.552V77.088C950.394 76.992 950.069 76.944 949.781 76.944C949.162 76.944 948.677 77.1947 948.325 77.696C947.973 78.1973 947.797 78.9067 947.797 79.824V84ZM966.825 75.68H968.361L965.929 84H964.153L962.137 77.424L960.153 84H958.313L955.881 75.68H957.481L959.273 82.368L961.257 75.68H963.097L965.049 82.336L966.825 75.68ZM971.346 74.288H969.618V72.48H971.346V74.288ZM971.25 84H969.714V75.68H971.25V84ZM975.031 72.48V84H973.495V72.48H975.031ZM978.812 72.48V84H977.276V72.48H978.812ZM990.718 81.744C990.718 81.2747 990.473 80.9227 989.982 80.688C989.694 80.56 989.134 80.4 988.302 80.208C987.278 79.984 986.548 79.6587 986.11 79.232C985.748 78.8693 985.566 78.3947 985.566 77.808C985.566 77.0293 985.881 76.432 986.51 76.016C987.076 75.632 987.838 75.44 988.798 75.44C989.79 75.44 990.596 75.6853 991.214 76.176C991.748 76.6027 992.078 77.168 992.206 77.872H990.638C990.457 77.0613 989.838 76.656 988.782 76.656C988.196 76.656 987.758 76.7627 987.47 76.976C987.236 77.1573 987.118 77.3867 987.118 77.664C987.118 78.0053 987.246 78.2613 987.502 78.432C987.769 78.6027 988.286 78.7733 989.054 78.944C990.228 79.2 991.044 79.5147 991.502 79.888C992.014 80.304 992.27 80.8853 992.27 81.632C992.27 82.464 991.929 83.12 991.246 83.6C990.628 84.0267 989.812 84.24 988.798 84.24C987.689 84.24 986.809 83.9733 986.158 83.44C985.593 82.9707 985.278 82.3627 985.214 81.616H986.782C986.953 82.5547 987.63 83.024 988.814 83.024C989.454 83.024 989.95 82.8853 990.302 82.608C990.58 82.384 990.718 82.096 990.718 81.744ZM999.69 81.6H1001.35C1001.12 82.4427 1000.66 83.104 999.962 83.584C999.312 84.0213 998.533 84.24 997.626 84.24C996.314 84.24 995.29 83.824 994.554 82.992C993.882 82.2133 993.546 81.1627 993.546 79.84C993.546 78.336 993.973 77.1947 994.826 76.416C995.53 75.7653 996.437 75.44 997.546 75.44C998.848 75.44 999.829 75.8613 1000.49 76.704C1001.13 77.5147 1001.45 78.672 1001.45 80.176H995.114C995.178 81.1573 995.477 81.888 996.01 82.368C996.448 82.752 997.002 82.944 997.674 82.944C998.197 82.944 998.65 82.8 999.034 82.512C999.354 82.2667 999.573 81.9627 999.69 81.6ZM997.578 76.672C996.896 76.672 996.346 76.8853 995.93 77.312C995.536 77.7067 995.285 78.256 995.178 78.96H999.882C999.829 78.16 999.562 77.5627 999.082 77.168C998.698 76.8373 998.197 76.672 997.578 76.672ZM1004.83 72.48V84H1003.29V72.48H1004.83ZM1012.74 81.6H1014.4C1014.17 82.4427 1013.7 83.104 1013.01 83.584C1012.36 84.0213 1011.58 84.24 1010.67 84.24C1009.36 84.24 1008.34 83.824 1007.6 82.992C1006.93 82.2133 1006.59 81.1627 1006.59 79.84C1006.59 78.336 1007.02 77.1947 1007.87 76.416C1008.58 75.7653 1009.48 75.44 1010.59 75.44C1011.89 75.44 1012.88 75.8613 1013.54 76.704C1014.18 77.5147 1014.5 78.672 1014.5 80.176H1008.16C1008.23 81.1573 1008.52 81.888 1009.06 82.368C1009.49 82.752 1010.05 82.944 1010.72 82.944C1011.24 82.944 1011.7 82.8 1012.08 82.512C1012.4 82.2667 1012.62 81.9627 1012.74 81.6ZM1010.63 76.672C1009.94 76.672 1009.39 76.8853 1008.98 77.312C1008.58 77.7067 1008.33 78.256 1008.23 78.96H1012.93C1012.88 78.16 1012.61 77.5627 1012.13 77.168C1011.75 76.8373 1011.24 76.672 1010.63 76.672ZM1021.76 81.328H1023.44C1023.31 82.224 1022.89 82.944 1022.18 83.488C1021.53 83.9893 1020.73 84.24 1019.79 84.24C1018.57 84.24 1017.59 83.8187 1016.87 82.976C1016.19 82.1973 1015.86 81.1733 1015.86 79.904C1015.86 78.432 1016.26 77.2907 1017.07 76.48C1017.77 75.7867 1018.67 75.44 1019.78 75.44C1020.8 75.44 1021.65 75.712 1022.31 76.256C1022.89 76.736 1023.25 77.3653 1023.38 78.144H1021.68C1021.58 77.696 1021.36 77.3493 1021.03 77.104C1020.71 76.8587 1020.3 76.736 1019.81 76.736C1019.05 76.736 1018.47 77.0347 1018.07 77.632C1017.68 78.1867 1017.49 78.96 1017.49 79.952C1017.49 80.9867 1017.75 81.7707 1018.26 82.304C1018.66 82.7307 1019.19 82.944 1019.83 82.944C1020.38 82.944 1020.83 82.784 1021.19 82.464C1021.5 82.1867 1021.69 81.808 1021.76 81.328ZM1028.91 82.768V84.08C1028.52 84.1867 1028.14 84.24 1027.77 84.24C1027.01 84.24 1026.43 84 1026.05 83.52C1025.72 83.1253 1025.55 82.5973 1025.55 81.936V76.992H1024.32V75.68H1025.55L1025.65 73.68H1027.09V75.68H1028.88V76.992H1027.09V81.968C1027.09 82.5867 1027.38 82.896 1027.97 82.896C1028.24 82.896 1028.56 82.8533 1028.91 82.768ZM1036.46 78H1034.83C1034.92 77.168 1035.31 76.5227 1036.02 76.064C1036.64 75.648 1037.44 75.44 1038.4 75.44C1039.54 75.44 1040.42 75.7387 1041.02 76.336C1041.54 76.848 1041.79 77.5093 1041.79 78.32V84H1040.53L1040.34 82.864C1039.68 83.7813 1038.76 84.24 1037.55 84.24C1036.6 84.24 1035.86 83.984 1035.33 83.472C1034.89 83.0453 1034.67 82.5067 1034.67 81.856C1034.67 81.0347 1034.95 80.4 1035.52 79.952C1036.02 79.5573 1036.79 79.2693 1037.82 79.088L1040.26 78.672V78.256C1040.26 77.712 1040.07 77.3013 1039.7 77.024C1039.36 76.7787 1038.91 76.656 1038.34 76.656C1037.2 76.656 1036.58 77.104 1036.46 78ZM1037.92 82.944C1038.57 82.944 1039.14 82.7307 1039.62 82.304C1040.04 81.9093 1040.26 81.456 1040.26 80.944V79.872L1038.19 80.24C1037.43 80.368 1036.92 80.5653 1036.64 80.832C1036.42 81.0453 1036.3 81.3333 1036.3 81.696C1036.3 82.1013 1036.44 82.4107 1036.72 82.624C1037 82.8373 1037.4 82.944 1037.92 82.944ZM1045.48 84H1043.95V75.68H1045.21L1045.39 76.736C1046.01 75.872 1046.85 75.44 1047.92 75.44C1048.9 75.44 1049.65 75.744 1050.17 76.352C1050.63 76.896 1050.86 77.6373 1050.86 78.576V84H1049.32V78.592C1049.32 77.3653 1048.73 76.752 1047.55 76.752C1046.93 76.752 1046.42 76.9653 1046.03 77.392C1045.67 77.776 1045.48 78.2667 1045.48 78.864V84ZM1060.53 84H1059.27L1058.99 82.832C1058.35 83.7707 1057.43 84.24 1056.23 84.24C1055.06 84.24 1054.15 83.8187 1053.47 82.976C1052.86 82.1973 1052.55 81.168 1052.55 79.888C1052.55 78.3413 1052.94 77.1787 1053.73 76.4C1054.39 75.76 1055.26 75.44 1056.32 75.44C1057.47 75.44 1058.36 75.872 1058.99 76.736V72.48H1060.53V84ZM1054.15 79.92C1054.15 80.9547 1054.4 81.7387 1054.91 82.272C1055.34 82.7093 1055.89 82.928 1056.56 82.928C1057.39 82.928 1058.04 82.6133 1058.5 81.984C1058.88 81.44 1059.07 80.7573 1059.07 79.936C1059.07 78.8587 1058.82 78.0373 1058.31 77.472C1057.87 76.992 1057.29 76.752 1056.56 76.752C1055.75 76.752 1055.14 77.0453 1054.72 77.632C1054.34 78.1653 1054.15 78.928 1054.15 79.92ZM1067.49 75.68H1069.03V81.136C1069.03 82.3307 1069.61 82.928 1070.76 82.928C1071.46 82.928 1072 82.6773 1072.37 82.176C1072.66 81.792 1072.81 81.3173 1072.81 80.752V75.68H1074.34V84H1073.08L1072.9 83.04C1072.31 83.84 1071.48 84.24 1070.41 84.24C1069.46 84.24 1068.73 83.9467 1068.21 83.36C1067.73 82.816 1067.49 82.064 1067.49 81.104V75.68ZM1078.12 84H1076.59V75.68H1077.85L1078.03 76.736C1078.65 75.872 1079.49 75.44 1080.56 75.44C1081.54 75.44 1082.29 75.744 1082.81 76.352C1083.27 76.896 1083.5 77.6373 1083.5 78.576V84H1081.96V78.592C1081.96 77.3653 1081.37 76.752 1080.19 76.752C1079.57 76.752 1079.06 76.9653 1078.67 77.392C1078.31 77.776 1078.12 78.2667 1078.12 78.864V84ZM1091.75 79.52H1085.99V78.16H1091.75V79.52ZM1099.17 81.744C1099.17 81.2747 1098.93 80.9227 1098.44 80.688C1098.15 80.56 1097.59 80.4 1096.76 80.208C1095.73 79.984 1095 79.6587 1094.56 79.232C1094.2 78.8693 1094.02 78.3947 1094.02 77.808C1094.02 77.0293 1094.33 76.432 1094.96 76.016C1095.53 75.632 1096.29 75.44 1097.25 75.44C1098.24 75.44 1099.05 75.6853 1099.67 76.176C1100.2 76.6027 1100.53 77.168 1100.66 77.872H1099.09C1098.91 77.0613 1098.29 76.656 1097.24 76.656C1096.65 76.656 1096.21 76.7627 1095.92 76.976C1095.69 77.1573 1095.57 77.3867 1095.57 77.664C1095.57 78.0053 1095.7 78.2613 1095.96 78.432C1096.22 78.6027 1096.74 78.7733 1097.51 78.944C1098.68 79.2 1099.5 79.5147 1099.96 79.888C1100.47 80.304 1100.72 80.8853 1100.72 81.632C1100.72 82.464 1100.38 83.12 1099.7 83.6C1099.08 84.0267 1098.26 84.24 1097.25 84.24C1096.14 84.24 1095.26 83.9733 1094.61 83.44C1094.05 82.9707 1093.73 82.3627 1093.67 81.616H1095.24C1095.41 82.5547 1096.08 83.024 1097.27 83.024C1097.91 83.024 1098.4 82.8853 1098.76 82.608C1099.03 82.384 1099.17 82.096 1099.17 81.744ZM1108.14 81.6H1109.81C1109.57 82.4427 1109.11 83.104 1108.42 83.584C1107.76 84.0213 1106.99 84.24 1106.08 84.24C1104.77 84.24 1103.74 83.824 1103.01 82.992C1102.34 82.2133 1102 81.1627 1102 79.84C1102 78.336 1102.43 77.1947 1103.28 76.416C1103.98 75.7653 1104.89 75.44 1106 75.44C1107.3 75.44 1108.28 75.8613 1108.94 76.704C1109.58 77.5147 1109.9 78.672 1109.9 80.176H1103.57C1103.63 81.1573 1103.93 81.888 1104.46 82.368C1104.9 82.752 1105.46 82.944 1106.13 82.944C1106.65 82.944 1107.1 82.8 1107.49 82.512C1107.81 82.2667 1108.03 81.9627 1108.14 81.6ZM1106.03 76.672C1105.35 76.672 1104.8 76.8853 1104.38 77.312C1103.99 77.7067 1103.74 78.256 1103.63 78.96H1108.34C1108.28 78.16 1108.02 77.5627 1107.54 77.168C1107.15 76.8373 1106.65 76.672 1106.03 76.672ZM1113.28 72.48V84H1111.75V72.48H1113.28ZM1121.19 81.6H1122.85C1122.62 82.4427 1122.16 83.104 1121.46 83.584C1120.81 84.0213 1120.03 84.24 1119.13 84.24C1117.81 84.24 1116.79 83.824 1116.05 82.992C1115.38 82.2133 1115.05 81.1627 1115.05 79.84C1115.05 78.336 1115.47 77.1947 1116.33 76.416C1117.03 75.7653 1117.94 75.44 1119.05 75.44C1120.35 75.44 1121.33 75.8613 1121.99 76.704C1122.63 77.5147 1122.95 78.672 1122.95 80.176H1116.61C1116.68 81.1573 1116.98 81.888 1117.51 82.368C1117.95 82.752 1118.5 82.944 1119.17 82.944C1119.7 82.944 1120.15 82.8 1120.53 82.512C1120.85 82.2667 1121.07 81.9627 1121.19 81.6ZM1119.08 76.672C1118.4 76.672 1117.85 76.8853 1117.43 77.312C1117.04 77.7067 1116.78 78.256 1116.68 78.96H1121.38C1121.33 78.16 1121.06 77.5627 1120.58 77.168C1120.2 76.8373 1119.7 76.672 1119.08 76.672ZM1130.22 81.328H1131.9C1131.77 82.224 1131.35 82.944 1130.63 83.488C1129.98 83.9893 1129.19 84.24 1128.25 84.24C1127.02 84.24 1126.05 83.8187 1125.32 82.976C1124.65 82.1973 1124.31 81.1733 1124.31 79.904C1124.31 78.432 1124.72 77.2907 1125.53 76.48C1126.22 75.7867 1127.12 75.44 1128.23 75.44C1129.26 75.44 1130.1 75.712 1130.76 76.256C1131.35 76.736 1131.7 77.3653 1131.83 78.144H1130.14C1130.03 77.696 1129.81 77.3493 1129.48 77.104C1129.16 76.8587 1128.75 76.736 1128.26 76.736C1127.51 76.736 1126.93 77.0347 1126.52 77.632C1126.14 78.1867 1125.94 78.96 1125.94 79.952C1125.94 80.9867 1126.2 81.7707 1126.71 82.304C1127.12 82.7307 1127.64 82.944 1128.28 82.944C1128.83 82.944 1129.29 82.784 1129.64 82.464C1129.95 82.1867 1130.14 81.808 1130.22 81.328ZM1137.36 82.768V84.08C1136.97 84.1867 1136.59 84.24 1136.23 84.24C1135.46 84.24 1134.88 84 1134.5 83.52C1134.17 83.1253 1134 82.5973 1134 81.936V76.992H1132.77V75.68H1134L1134.1 73.68H1135.54V75.68H1137.33V76.992H1135.54V81.968C1135.54 82.5867 1135.83 82.896 1136.42 82.896C1136.7 82.896 1137.01 82.8533 1137.36 82.768ZM864.232 96.432V97.76C863.72 97.632 863.299 97.568 862.968 97.568C862.691 97.568 862.472 97.6427 862.312 97.792C862.163 97.9413 862.088 98.1493 862.088 98.416V99.68H863.88V100.992H862.088V108H860.552V100.992H859.32V99.68H860.552V98.512C860.552 97.776 860.792 97.2 861.272 96.784C861.699 96.4213 862.232 96.24 862.872 96.24C863.288 96.24 863.741 96.304 864.232 96.432ZM864.796 103.84C864.796 102.315 865.25 101.163 866.156 100.384C866.882 99.7547 867.799 99.44 868.908 99.44C870.199 99.44 871.212 99.8507 871.948 100.672C872.652 101.44 873.004 102.496 873.004 103.84C873.004 105.344 872.562 106.491 871.676 107.28C870.951 107.92 870.023 108.24 868.892 108.24C867.602 108.24 866.583 107.813 865.836 106.96C865.143 106.181 864.796 105.141 864.796 103.84ZM866.396 103.84C866.396 104.907 866.668 105.723 867.212 106.288C867.66 106.757 868.231 106.992 868.924 106.992C869.735 106.992 870.359 106.688 870.796 106.08C871.202 105.525 871.404 104.779 871.404 103.84C871.404 102.752 871.138 101.931 870.604 101.376C870.167 100.917 869.602 100.688 868.908 100.688C868.108 100.688 867.484 100.992 867.036 101.6C866.61 102.155 866.396 102.901 866.396 103.84ZM880.185 105.328H881.865C881.737 106.224 881.315 106.944 880.601 107.488C879.95 107.989 879.155 108.24 878.217 108.24C876.99 108.24 876.014 107.819 875.289 106.976C874.617 106.197 874.281 105.173 874.281 103.904C874.281 102.432 874.686 101.291 875.497 100.48C876.19 99.7867 877.091 99.44 878.201 99.44C879.225 99.44 880.067 99.712 880.729 100.256C881.315 100.736 881.673 101.365 881.801 102.144H880.105C879.998 101.696 879.779 101.349 879.449 101.104C879.129 100.859 878.723 100.736 878.233 100.736C877.475 100.736 876.894 101.035 876.489 101.632C876.105 102.187 875.913 102.96 875.913 103.952C875.913 104.987 876.169 105.771 876.681 106.304C877.086 106.731 877.609 106.944 878.249 106.944C878.803 106.944 879.257 106.784 879.609 106.464C879.918 106.187 880.11 105.808 880.185 105.328ZM883.54 99.68H885.076V105.136C885.076 106.331 885.652 106.928 886.804 106.928C887.508 106.928 888.047 106.677 888.42 106.176C888.708 105.792 888.852 105.317 888.852 104.752V99.68H890.388V108H889.124L888.948 107.04C888.361 107.84 887.529 108.24 886.452 108.24C885.503 108.24 884.772 107.947 884.26 107.36C883.78 106.816 883.54 106.064 883.54 105.104V99.68ZM897.5 105.744C897.5 105.275 897.254 104.923 896.764 104.688C896.476 104.56 895.916 104.4 895.084 104.208C894.06 103.984 893.329 103.659 892.892 103.232C892.529 102.869 892.348 102.395 892.348 101.808C892.348 101.029 892.662 100.432 893.292 100.016C893.857 99.632 894.62 99.44 895.58 99.44C896.572 99.44 897.377 99.6853 897.996 100.176C898.529 100.603 898.86 101.168 898.988 101.872H897.42C897.238 101.061 896.62 100.656 895.564 100.656C894.977 100.656 894.54 100.763 894.252 100.976C894.017 101.157 893.9 101.387 893.9 101.664C893.9 102.005 894.028 102.261 894.284 102.432C894.55 102.603 895.068 102.773 895.836 102.944C897.009 103.2 897.825 103.515 898.284 103.888C898.796 104.304 899.052 104.885 899.052 105.632C899.052 106.464 898.71 107.12 898.028 107.6C897.409 108.027 896.593 108.24 895.58 108.24C894.47 108.24 893.59 107.973 892.94 107.44C892.374 106.971 892.06 106.363 891.996 105.616H893.564C893.734 106.555 894.412 107.024 895.596 107.024C896.236 107.024 896.732 106.885 897.084 106.608C897.361 106.384 897.5 106.096 897.5 105.744ZM906.472 105.6H908.135C907.901 106.443 907.437 107.104 906.744 107.584C906.093 108.021 905.314 108.24 904.408 108.24C903.096 108.24 902.072 107.824 901.336 106.992C900.664 106.213 900.328 105.163 900.328 103.84C900.328 102.336 900.754 101.195 901.608 100.416C902.312 99.7653 903.218 99.44 904.328 99.44C905.629 99.44 906.61 99.8613 907.272 100.704C907.912 101.515 908.232 102.672 908.232 104.176H901.896C901.96 105.157 902.258 105.888 902.792 106.368C903.229 106.752 903.784 106.944 904.456 106.944C904.978 106.944 905.432 106.8 905.816 106.512C906.136 106.267 906.354 105.963 906.472 105.6ZM904.36 100.672C903.677 100.672 903.128 100.885 902.712 101.312C902.317 101.707 902.066 102.256 901.96 102.96H906.664C906.61 102.16 906.344 101.563 905.864 101.168C905.48 100.837 904.978 100.672 904.36 100.672ZM917.577 108H916.313L916.041 106.832C915.401 107.771 914.478 108.24 913.273 108.24C912.11 108.24 911.193 107.819 910.521 106.976C909.902 106.197 909.593 105.168 909.593 103.888C909.593 102.341 909.988 101.179 910.777 100.4C911.438 99.76 912.302 99.44 913.369 99.44C914.521 99.44 915.412 99.872 916.041 100.736V96.48H917.577V108ZM911.193 103.92C911.193 104.955 911.449 105.739 911.961 106.272C912.388 106.709 912.937 106.928 913.609 106.928C914.441 106.928 915.086 106.613 915.545 105.984C915.929 105.44 916.121 104.757 916.121 103.936C916.121 102.859 915.865 102.037 915.353 101.472C914.916 100.992 914.334 100.752 913.609 100.752C912.798 100.752 912.185 101.045 911.769 101.632C911.385 102.165 911.193 102.928 911.193 103.92ZM930.044 105.328H931.724C931.596 106.224 931.175 106.944 930.46 107.488C929.809 107.989 929.015 108.24 928.076 108.24C926.849 108.24 925.873 107.819 925.148 106.976C924.476 106.197 924.14 105.173 924.14 103.904C924.14 102.432 924.545 101.291 925.356 100.48C926.049 99.7867 926.951 99.44 928.06 99.44C929.084 99.44 929.927 99.712 930.588 100.256C931.175 100.736 931.532 101.365 931.66 102.144H929.964C929.857 101.696 929.639 101.349 929.308 101.104C928.988 100.859 928.583 100.736 928.092 100.736C927.335 100.736 926.753 101.035 926.348 101.632C925.964 102.187 925.772 102.96 925.772 103.952C925.772 104.987 926.028 105.771 926.54 106.304C926.945 106.731 927.468 106.944 928.108 106.944C928.663 106.944 929.116 106.784 929.468 106.464C929.777 106.187 929.969 105.808 930.044 105.328ZM935.015 108H933.479V96.48H935.015V100.624C935.623 99.8347 936.434 99.44 937.447 99.44C938.429 99.44 939.181 99.744 939.703 100.352C940.162 100.896 940.391 101.637 940.391 102.576V108H938.855V102.592C938.855 101.365 938.263 100.752 937.079 100.752C936.45 100.752 935.938 100.971 935.543 101.408C935.191 101.803 935.015 102.309 935.015 102.928V108ZM944.19 98.288H942.462V96.48H944.19V98.288ZM944.094 108H942.558V99.68H944.094V108ZM946.339 99.68H947.603L947.843 100.768C948.525 99.8827 949.464 99.44 950.659 99.44C951.853 99.44 952.781 99.8667 953.443 100.72C954.029 101.488 954.323 102.507 954.323 103.776C954.323 105.28 953.923 106.432 953.123 107.232C952.451 107.904 951.592 108.24 950.547 108.24C949.363 108.24 948.472 107.803 947.875 106.928V110.88H946.339V99.68ZM952.723 103.744C952.723 102.699 952.461 101.915 951.939 101.392C951.523 100.965 950.979 100.752 950.307 100.752C949.528 100.752 948.909 101.035 948.451 101.6C948.013 102.144 947.795 102.859 947.795 103.744C947.795 104.811 948.056 105.627 948.579 106.192C949.016 106.683 949.592 106.928 950.307 106.928C951.107 106.928 951.715 106.635 952.131 106.048C952.525 105.504 952.723 104.736 952.723 103.744ZM958.062 108H956.206V106.144H958.062V108ZM972.2 108H970.664L967.112 98.976V108H965.528V96.48H967.8L971.464 106.08L974.92 96.48H977.064V108H975.528V99.056L972.2 108ZM979.306 99.68H980.842V105.136C980.842 106.331 981.418 106.928 982.57 106.928C983.274 106.928 983.812 106.677 984.186 106.176C984.474 105.792 984.618 105.317 984.618 104.752V99.68H986.154V108H984.89L984.714 107.04C984.127 107.84 983.295 108.24 982.218 108.24C981.268 108.24 980.538 107.947 980.026 107.36C979.546 106.816 979.306 106.064 979.306 105.104V99.68ZM989.937 96.48V108H988.401V96.48H989.937ZM995.895 106.768V108.08C995.5 108.187 995.121 108.24 994.759 108.24C993.991 108.24 993.415 108 993.031 107.52C992.7 107.125 992.535 106.597 992.535 105.936V100.992H991.303V99.68H992.535L992.631 97.68H994.071V99.68H995.863V100.992H994.071V105.968C994.071 106.587 994.364 106.896 994.951 106.896C995.228 106.896 995.543 106.853 995.895 106.768ZM998.971 98.288H997.243V96.48H998.971V98.288ZM998.875 108H997.339V99.68H998.875V108ZM1001.12 99.68H1002.38L1002.62 100.768C1003.31 99.8827 1004.25 99.44 1005.44 99.44C1006.63 99.44 1007.56 99.8667 1008.22 100.72C1008.81 101.488 1009.1 102.507 1009.1 103.776C1009.1 105.28 1008.7 106.432 1007.9 107.232C1007.23 107.904 1006.37 108.24 1005.33 108.24C1004.14 108.24 1003.25 107.803 1002.66 106.928V110.88H1001.12V99.68ZM1007.5 103.744C1007.5 102.699 1007.24 101.915 1006.72 101.392C1006.3 100.965 1005.76 100.752 1005.09 100.752C1004.31 100.752 1003.69 101.035 1003.23 101.6C1002.79 102.144 1002.58 102.859 1002.58 103.744C1002.58 104.811 1002.84 105.627 1003.36 106.192C1003.8 106.683 1004.37 106.928 1005.09 106.928C1005.89 106.928 1006.5 106.635 1006.91 106.048C1007.31 105.504 1007.5 104.736 1007.5 103.744ZM1012.41 96.48V108H1010.87V96.48H1012.41ZM1020.32 105.6H1021.98C1021.74 106.443 1021.28 107.104 1020.59 107.584C1019.94 108.021 1019.16 108.24 1018.25 108.24C1016.94 108.24 1015.92 107.824 1015.18 106.992C1014.51 106.213 1014.17 105.163 1014.17 103.84C1014.17 102.336 1014.6 101.195 1015.45 100.416C1016.16 99.7653 1017.06 99.44 1018.17 99.44C1019.47 99.44 1020.45 99.8613 1021.12 100.704C1021.76 101.515 1022.08 102.672 1022.08 104.176H1015.74C1015.8 105.157 1016.1 105.888 1016.64 106.368C1017.07 106.752 1017.63 106.944 1018.3 106.944C1018.82 106.944 1019.28 106.8 1019.66 106.512C1019.98 106.267 1020.2 105.963 1020.32 105.6ZM1018.2 100.672C1017.52 100.672 1016.97 100.885 1016.56 101.312C1016.16 101.707 1015.91 102.256 1015.8 102.96H1020.51C1020.45 102.16 1020.19 101.563 1019.71 101.168C1019.32 100.837 1018.82 100.672 1018.2 100.672ZM1033.58 105.744C1033.58 105.275 1033.33 104.923 1032.84 104.688C1032.55 104.56 1031.99 104.4 1031.16 104.208C1030.14 103.984 1029.41 103.659 1028.97 103.232C1028.61 102.869 1028.43 102.395 1028.43 101.808C1028.43 101.029 1028.74 100.432 1029.37 100.016C1029.94 99.632 1030.7 99.44 1031.66 99.44C1032.65 99.44 1033.46 99.6853 1034.07 100.176C1034.61 100.603 1034.94 101.168 1035.07 101.872H1033.5C1033.32 101.061 1032.7 100.656 1031.64 100.656C1031.06 100.656 1030.62 100.763 1030.33 100.976C1030.1 101.157 1029.98 101.387 1029.98 101.664C1029.98 102.005 1030.11 102.261 1030.36 102.432C1030.63 102.603 1031.15 102.773 1031.91 102.944C1033.09 103.2 1033.9 103.515 1034.36 103.888C1034.87 104.304 1035.13 104.885 1035.13 105.632C1035.13 106.464 1034.79 107.12 1034.11 107.6C1033.49 108.027 1032.67 108.24 1031.66 108.24C1030.55 108.24 1029.67 107.973 1029.02 107.44C1028.45 106.971 1028.14 106.363 1028.07 105.616H1029.64C1029.81 106.555 1030.49 107.024 1031.67 107.024C1032.31 107.024 1032.81 106.885 1033.16 106.608C1033.44 106.384 1033.58 106.096 1033.58 105.744ZM1042.55 105.6H1044.21C1043.98 106.443 1043.51 107.104 1042.82 107.584C1042.17 108.021 1041.39 108.24 1040.49 108.24C1039.17 108.24 1038.15 107.824 1037.41 106.992C1036.74 106.213 1036.41 105.163 1036.41 103.84C1036.41 102.336 1036.83 101.195 1037.69 100.416C1038.39 99.7653 1039.3 99.44 1040.41 99.44C1041.71 99.44 1042.69 99.8613 1043.35 100.704C1043.99 101.515 1044.31 102.672 1044.31 104.176H1037.97C1038.04 105.157 1038.34 105.888 1038.87 106.368C1039.31 106.752 1039.86 106.944 1040.53 106.944C1041.06 106.944 1041.51 106.8 1041.89 106.512C1042.21 106.267 1042.43 105.963 1042.55 105.6ZM1040.44 100.672C1039.75 100.672 1039.21 100.885 1038.79 101.312C1038.39 101.707 1038.14 102.256 1038.04 102.96H1042.74C1042.69 102.16 1042.42 101.563 1041.94 101.168C1041.56 100.837 1041.06 100.672 1040.44 100.672ZM1047.69 96.48V108H1046.15V96.48H1047.69ZM1055.6 105.6H1057.26C1057.03 106.443 1056.56 107.104 1055.87 107.584C1055.22 108.021 1054.44 108.24 1053.53 108.24C1052.22 108.24 1051.2 107.824 1050.46 106.992C1049.79 106.213 1049.45 105.163 1049.45 103.84C1049.45 102.336 1049.88 101.195 1050.73 100.416C1051.44 99.7653 1052.34 99.44 1053.45 99.44C1054.75 99.44 1055.74 99.8613 1056.4 100.704C1057.04 101.515 1057.36 102.672 1057.36 104.176H1051.02C1051.08 105.157 1051.38 105.888 1051.92 106.368C1052.35 106.752 1052.91 106.944 1053.58 106.944C1054.1 106.944 1054.56 106.8 1054.94 106.512C1055.26 106.267 1055.48 105.963 1055.6 105.6ZM1053.48 100.672C1052.8 100.672 1052.25 100.885 1051.84 101.312C1051.44 101.707 1051.19 102.256 1051.08 102.96H1055.79C1055.74 102.16 1055.47 101.563 1054.99 101.168C1054.6 100.837 1054.1 100.672 1053.48 100.672ZM1064.62 105.328H1066.3C1066.17 106.224 1065.75 106.944 1065.04 107.488C1064.39 107.989 1063.59 108.24 1062.65 108.24C1061.43 108.24 1060.45 107.819 1059.73 106.976C1059.05 106.197 1058.72 105.173 1058.72 103.904C1058.72 102.432 1059.12 101.291 1059.93 100.48C1060.63 99.7867 1061.53 99.44 1062.64 99.44C1063.66 99.44 1064.5 99.712 1065.17 100.256C1065.75 100.736 1066.11 101.365 1066.24 102.144H1064.54C1064.44 101.696 1064.22 101.349 1063.89 101.104C1063.57 100.859 1063.16 100.736 1062.67 100.736C1061.91 100.736 1061.33 101.035 1060.93 101.632C1060.54 102.187 1060.35 102.96 1060.35 103.952C1060.35 104.987 1060.61 105.771 1061.12 106.304C1061.52 106.731 1062.05 106.944 1062.69 106.944C1063.24 106.944 1063.69 106.784 1064.05 106.464C1064.36 106.187 1064.55 105.808 1064.62 105.328ZM1071.77 106.768V108.08C1071.37 108.187 1071 108.24 1070.63 108.24C1069.87 108.24 1069.29 108 1068.91 107.52C1068.57 107.125 1068.41 106.597 1068.41 105.936V100.992H1067.18V99.68H1068.41L1068.51 97.68H1069.95V99.68H1071.74V100.992H1069.95V105.968C1069.95 106.587 1070.24 106.896 1070.83 106.896C1071.1 106.896 1071.42 106.853 1071.77 106.768ZM1074.85 98.288H1073.12V96.48H1074.85V98.288ZM1074.75 108H1073.21V99.68H1074.75V108ZM1076.52 103.84C1076.52 102.315 1076.97 101.163 1077.88 100.384C1078.6 99.7547 1079.52 99.44 1080.63 99.44C1081.92 99.44 1082.93 99.8507 1083.67 100.672C1084.37 101.44 1084.72 102.496 1084.72 103.84C1084.72 105.344 1084.28 106.491 1083.4 107.28C1082.67 107.92 1081.74 108.24 1080.61 108.24C1079.32 108.24 1078.3 107.813 1077.56 106.96C1076.86 106.181 1076.52 105.141 1076.52 103.84ZM1078.12 103.84C1078.12 104.907 1078.39 105.723 1078.93 106.288C1079.38 106.757 1079.95 106.992 1080.64 106.992C1081.45 106.992 1082.08 106.688 1082.52 106.08C1082.92 105.525 1083.12 104.779 1083.12 103.84C1083.12 102.752 1082.86 101.931 1082.32 101.376C1081.89 100.917 1081.32 100.688 1080.63 100.688C1079.83 100.688 1079.2 100.992 1078.76 101.6C1078.33 102.155 1078.12 102.901 1078.12 103.84ZM1088.02 108H1086.48V99.68H1087.74L1087.92 100.736C1088.54 99.872 1089.38 99.44 1090.45 99.44C1091.43 99.44 1092.18 99.744 1092.7 100.352C1093.16 100.896 1093.39 101.637 1093.39 102.576V108H1091.86V102.592C1091.86 101.365 1091.26 100.752 1090.08 100.752C1089.46 100.752 1088.95 100.965 1088.56 101.392C1088.2 101.776 1088.02 102.267 1088.02 102.864V108ZM1101.99 98.288H1100.26V96.48H1101.99V98.288ZM1101.89 108H1100.35V99.68H1101.89V108ZM1109 105.744C1109 105.275 1108.75 104.923 1108.26 104.688C1107.98 104.56 1107.42 104.4 1106.58 104.208C1105.56 103.984 1104.83 103.659 1104.39 103.232C1104.03 102.869 1103.85 102.395 1103.85 101.808C1103.85 101.029 1104.16 100.432 1104.79 100.016C1105.36 99.632 1106.12 99.44 1107.08 99.44C1108.07 99.44 1108.88 99.6853 1109.5 100.176C1110.03 100.603 1110.36 101.168 1110.49 101.872H1108.92C1108.74 101.061 1108.12 100.656 1107.06 100.656C1106.48 100.656 1106.04 100.763 1105.75 100.976C1105.52 101.157 1105.4 101.387 1105.4 101.664C1105.4 102.005 1105.53 102.261 1105.78 102.432C1106.05 102.603 1106.57 102.773 1107.34 102.944C1108.51 103.2 1109.32 103.515 1109.78 103.888C1110.3 104.304 1110.55 104.885 1110.55 105.632C1110.55 106.464 1110.21 107.12 1109.53 107.6C1108.91 108.027 1108.09 108.24 1107.08 108.24C1105.97 108.24 1105.09 107.973 1104.44 107.44C1103.87 106.971 1103.56 106.363 1103.5 105.616H1105.06C1105.23 106.555 1105.91 107.024 1107.1 107.024C1107.74 107.024 1108.23 106.885 1108.58 106.608C1108.86 106.384 1109 106.096 1109 105.744ZM860.12 123.68H861.384L861.624 124.768C862.307 123.883 863.245 123.44 864.44 123.44C865.635 123.44 866.563 123.867 867.224 124.72C867.811 125.488 868.104 126.507 868.104 127.776C868.104 129.28 867.704 130.432 866.904 131.232C866.232 131.904 865.373 132.24 864.328 132.24C863.144 132.24 862.253 131.803 861.656 130.928V134.88H860.12V123.68ZM866.504 127.744C866.504 126.699 866.243 125.915 865.72 125.392C865.304 124.965 864.76 124.752 864.088 124.752C863.309 124.752 862.691 125.035 862.232 125.6C861.795 126.144 861.576 126.859 861.576 127.744C861.576 128.811 861.837 129.627 862.36 130.192C862.797 130.683 863.373 130.928 864.088 130.928C864.888 130.928 865.496 130.635 865.912 130.048C866.307 129.504 866.504 128.736 866.504 127.744ZM869.39 127.84C869.39 126.315 869.843 125.163 870.75 124.384C871.475 123.755 872.393 123.44 873.502 123.44C874.793 123.44 875.806 123.851 876.542 124.672C877.246 125.44 877.598 126.496 877.598 127.84C877.598 129.344 877.155 130.491 876.27 131.28C875.545 131.92 874.617 132.24 873.486 132.24C872.195 132.24 871.177 131.813 870.43 130.96C869.737 130.181 869.39 129.141 869.39 127.84ZM870.99 127.84C870.99 128.907 871.262 129.723 871.806 130.288C872.254 130.757 872.825 130.992 873.518 130.992C874.329 130.992 874.953 130.688 875.39 130.08C875.795 129.525 875.998 128.779 875.998 127.84C875.998 126.752 875.731 125.931 875.198 125.376C874.761 124.917 874.195 124.688 873.502 124.688C872.702 124.688 872.078 124.992 871.63 125.6C871.203 126.155 870.99 126.901 870.99 127.84ZM884.218 129.744C884.218 129.275 883.973 128.923 883.482 128.688C883.194 128.56 882.634 128.4 881.802 128.208C880.778 127.984 880.048 127.659 879.61 127.232C879.248 126.869 879.066 126.395 879.066 125.808C879.066 125.029 879.381 124.432 880.01 124.016C880.576 123.632 881.338 123.44 882.298 123.44C883.29 123.44 884.096 123.685 884.714 124.176C885.248 124.603 885.578 125.168 885.706 125.872H884.138C883.957 125.061 883.338 124.656 882.282 124.656C881.696 124.656 881.258 124.763 880.97 124.976C880.736 125.157 880.618 125.387 880.618 125.664C880.618 126.005 880.746 126.261 881.002 126.432C881.269 126.603 881.786 126.773 882.554 126.944C883.728 127.2 884.544 127.515 885.002 127.888C885.514 128.304 885.77 128.885 885.77 129.632C885.77 130.464 885.429 131.12 884.746 131.6C884.128 132.027 883.312 132.24 882.298 132.24C881.189 132.24 880.309 131.973 879.658 131.44C879.093 130.971 878.778 130.363 878.714 129.616H880.282C880.453 130.555 881.13 131.024 882.314 131.024C882.954 131.024 883.45 130.885 883.802 130.608C884.08 130.384 884.218 130.096 884.218 129.744ZM892.281 129.744C892.281 129.275 892.036 128.923 891.545 128.688C891.257 128.56 890.697 128.4 889.865 128.208C888.841 127.984 888.11 127.659 887.673 127.232C887.31 126.869 887.129 126.395 887.129 125.808C887.129 125.029 887.444 124.432 888.073 124.016C888.638 123.632 889.401 123.44 890.361 123.44C891.353 123.44 892.158 123.685 892.777 124.176C893.31 124.603 893.641 125.168 893.769 125.872H892.201C892.02 125.061 891.401 124.656 890.345 124.656C889.758 124.656 889.321 124.763 889.033 124.976C888.798 125.157 888.681 125.387 888.681 125.664C888.681 126.005 888.809 126.261 889.065 126.432C889.332 126.603 889.849 126.773 890.617 126.944C891.79 127.2 892.606 127.515 893.065 127.888C893.577 128.304 893.833 128.885 893.833 129.632C893.833 130.464 893.492 131.12 892.809 131.6C892.19 132.027 891.374 132.24 890.361 132.24C889.252 132.24 888.372 131.973 887.721 131.44C887.156 130.971 886.841 130.363 886.777 129.616H888.345C888.516 130.555 889.193 131.024 890.377 131.024C891.017 131.024 891.513 130.885 891.865 130.608C892.142 130.384 892.281 130.096 892.281 129.744ZM897.221 122.288H895.493V120.48H897.221V122.288ZM897.125 132H895.589V123.68H897.125V132ZM900.634 132H899.37V120.48H900.906V124.832C901.557 123.904 902.485 123.44 903.69 123.44C904.885 123.44 905.813 123.867 906.474 124.72C907.061 125.488 907.354 126.507 907.354 127.776C907.354 129.28 906.954 130.432 906.154 131.232C905.482 131.904 904.623 132.24 903.578 132.24C902.394 132.24 901.493 131.792 900.874 130.896L900.634 132ZM905.754 127.744C905.754 126.699 905.493 125.915 904.97 125.392C904.554 124.965 904.01 124.752 903.338 124.752C902.559 124.752 901.941 125.035 901.482 125.6C901.045 126.144 900.826 126.859 900.826 127.744C900.826 128.811 901.087 129.627 901.61 130.192C902.047 130.683 902.623 130.928 903.338 130.928C904.138 130.928 904.746 130.635 905.162 130.048C905.557 129.504 905.754 128.736 905.754 127.744ZM910.656 120.48V132H909.12V120.48H910.656ZM918.565 129.6H920.229C919.995 130.443 919.531 131.104 918.837 131.584C918.187 132.021 917.408 132.24 916.501 132.24C915.189 132.24 914.165 131.824 913.429 130.992C912.757 130.213 912.421 129.163 912.421 127.84C912.421 126.336 912.848 125.195 913.701 124.416C914.405 123.765 915.312 123.44 916.421 123.44C917.723 123.44 918.704 123.861 919.365 124.704C920.005 125.515 920.325 126.672 920.325 128.176H913.989C914.053 129.157 914.352 129.888 914.885 130.368C915.323 130.752 915.877 130.944 916.549 130.944C917.072 130.944 917.525 130.8 917.909 130.512C918.229 130.267 918.448 129.963 918.565 129.6ZM916.453 124.672C915.771 124.672 915.221 124.885 914.805 125.312C914.411 125.707 914.16 126.256 914.053 126.96H918.757C918.704 126.16 918.437 125.563 917.957 125.168C917.573 124.837 917.072 124.672 916.453 124.672ZM924.375 132H922.519V130.144H924.375V132Z" fill="white" fill-opacity="0.95"/>
<defs>
<filter id="filter0_ddd_144_7126" x="176.5" y="146" width="66" height="34" filterUnits="userSpaceOnUse" color-interpolation-filters="sRGB">
<feFlood flood-opacity="0" result="BackgroundImageFix"/>
<feColorMatrix in="SourceAlpha" type="matrix" values="0 0 0 0 0 0 0 0 0 0 0 0 0 0 0 0 0 0 127 0" result="hardAlpha"/>
<feMorphology radius="4" operator="dilate" in="SourceAlpha" result="effect1_dropShadow_144_7126"/>
<feOffset/>
<feComposite in2="hardAlpha" operator="out"/>
<feColorMatrix type="matrix" values="0 0 0 0 0.392157 0 0 0 0 0.705882 0 0 0 0 0.980392 0 0 0 1 0"/>
<feBlend mode="normal" in2="BackgroundImageFix" result="effect1_dropShadow_144_7126"/>
<feColorMatrix in="SourceAlpha" type="matrix" values="0 0 0 0 0 0 0 0 0 0 0 0 0 0 0 0 0 0 127 0" result="hardAlpha"/>
<feMorphology radius="5" operator="dilate" in="SourceAlpha" result="effect2_dropShadow_144_7126"/>
<feOffset/>
<feComposite in2="hardAlpha" operator="out"/>
<feColorMatrix type="matrix" values="0 0 0 0 0.392157 0 0 0 0 0.705882 0 0 0 0 0.980392 0 0 0 0.3 0"/>
<feBlend mode="normal" in2="effect1_dropShadow_144_7126" result="effect2_dropShadow_144_7126"/>
<feColorMatrix in="SourceAlpha" type="matrix" values="0 0 0 0 0 0 0 0 0 0 0 0 0 0 0 0 0 0 127 0" result="hardAlpha"/>
<feMorphology radius="2" operator="dilate" in="SourceAlpha" result="effect3_dropShadow_144_7126"/>
<feOffset/>
<feComposite in2="hardAlpha" operator="out"/>
<feColorMatrix type="matrix" values="0 0 0 0 0 0 0 0 0 0 0 0 0 0 0 0 0 0 1 0"/>
<feBlend mode="normal" in2="effect2_dropShadow_144_7126" result="effect3_dropShadow_144_7126"/>
<feBlend mode="normal" in="SourceGraphic" in2="effect3_dropShadow_144_7126" result="shape"/>
</filter>
</defs>
</svg>
