<svg width="1151" height="320" viewBox="0 0 1151 320" fill="none" xmlns="http://www.w3.org/2000/svg">
<rect width="559" height="320" rx="24" fill="#262626"/>
<path d="M189.276 113.488V115.344H185.148V120H182.46V108.48H189.772V110.416H185.148V113.488H189.276ZM193.722 110.608H191.034V108.48H193.722V110.608ZM193.626 120H191.13V111.68H193.626V120ZM197.876 108.48V120H195.38V108.48H197.876ZM204.398 118.32V120.016C203.875 120.165 203.369 120.24 202.878 120.24C201.971 120.24 201.278 119.989 200.798 119.488C200.382 119.051 200.174 118.448 200.174 117.68V113.408H198.91V111.68H200.174L200.334 109.68H202.67V111.68H204.382V113.408H202.67V117.76C202.67 117.984 202.739 118.16 202.878 118.288C203.027 118.405 203.23 118.464 203.486 118.464C203.689 118.464 203.993 118.416 204.398 118.32ZM211.075 117.584H213.619C213.405 118.459 212.941 119.125 212.227 119.584C211.523 120.021 210.616 120.24 209.507 120.24C208.099 120.24 206.995 119.803 206.195 118.928C205.48 118.139 205.123 117.109 205.123 115.84C205.123 114.347 205.565 113.211 206.451 112.432C207.208 111.771 208.2 111.44 209.427 111.44C210.877 111.44 211.971 111.909 212.707 112.848C213.379 113.701 213.715 114.901 213.715 116.448H207.651C207.811 117.813 208.472 118.496 209.635 118.496C210.008 118.496 210.323 118.416 210.579 118.256C210.835 118.096 211 117.872 211.075 117.584ZM209.379 113.008C208.365 113.008 207.789 113.669 207.651 114.992H211.155C211.091 113.669 210.499 113.008 209.379 113.008ZM217.564 120H215.068V111.68H217.148L217.42 112.944C217.878 111.941 218.604 111.44 219.596 111.44C219.969 111.44 220.284 111.477 220.54 111.552V113.872C220.198 113.765 219.841 113.712 219.468 113.712C218.902 113.712 218.438 113.984 218.076 114.528C217.734 115.04 217.564 115.712 217.564 116.544V120ZM224.915 118.544C225.843 118.544 226.307 118.283 226.307 117.76C226.307 117.504 226.2 117.323 225.987 117.216C225.784 117.109 225.23 116.944 224.323 116.72C223.288 116.475 222.547 116.171 222.099 115.808C221.566 115.371 221.299 114.779 221.299 114.032C221.299 113.179 221.651 112.523 222.355 112.064C222.984 111.648 223.859 111.44 224.979 111.44C226.12 111.44 227.032 111.696 227.715 112.208C228.302 112.645 228.664 113.237 228.803 113.984H226.291C226.163 113.419 225.704 113.136 224.915 113.136C224.168 113.136 223.795 113.365 223.795 113.824C223.795 114.048 223.902 114.224 224.115 114.352C224.328 114.469 224.798 114.619 225.523 114.8L225.827 114.88C226.787 115.125 227.47 115.381 227.875 115.648C228.515 116.064 228.835 116.656 228.835 117.424C228.835 118.341 228.472 119.051 227.747 119.552C227.064 120.011 226.126 120.24 224.931 120.24C223.736 120.24 222.776 119.968 222.051 119.424C221.443 118.965 221.075 118.373 220.947 117.648H223.459C223.512 117.915 223.672 118.133 223.939 118.304C224.206 118.464 224.531 118.544 224.915 118.544Z" fill="white" fill-opacity="0.95"/>
<g filter="url(#filter0_ddd_144_7126)">
<rect x="181.5" y="151" width="73" height="24" rx="4" fill="#102B2A"/>
<path d="M190.501 156.92H192.307V165.53H197.109V167H190.501V156.92ZM197.915 163.346C197.915 162.021 198.307 161.017 199.091 160.336C199.735 159.785 200.575 159.51 201.611 159.51C202.815 159.51 203.743 159.874 204.397 160.602C205.003 161.265 205.307 162.179 205.307 163.346C205.307 164.671 204.924 165.675 204.159 166.356C203.515 166.925 202.665 167.21 201.611 167.21C200.416 167.21 199.487 166.837 198.825 166.09C198.218 165.409 197.915 164.494 197.915 163.346ZM201.625 165.964C202.287 165.964 202.782 165.721 203.109 165.236C203.417 164.797 203.571 164.167 203.571 163.346C203.571 162.413 203.365 161.727 202.955 161.288C202.628 160.933 202.18 160.756 201.611 160.756C200.957 160.756 200.463 160.994 200.127 161.47C199.809 161.909 199.651 162.534 199.651 163.346C199.651 164.27 199.856 164.956 200.267 165.404C200.612 165.777 201.065 165.964 201.625 165.964ZM211.488 164.634H213.28C213.14 165.446 212.753 166.085 212.118 166.552C211.521 166.991 210.783 167.21 209.906 167.21C208.749 167.21 207.853 166.841 207.218 166.104C206.649 165.441 206.364 164.55 206.364 163.43C206.364 162.123 206.728 161.12 207.456 160.42C208.091 159.813 208.912 159.51 209.92 159.51C210.863 159.51 211.642 159.753 212.258 160.238C212.799 160.667 213.131 161.223 213.252 161.904H211.432C211.348 161.559 211.175 161.288 210.914 161.092C210.653 160.887 210.335 160.784 209.962 160.784C209.355 160.784 208.893 161.027 208.576 161.512C208.277 161.969 208.128 162.623 208.128 163.472C208.128 164.331 208.329 164.979 208.73 165.418C209.047 165.763 209.449 165.936 209.934 165.936C210.345 165.936 210.681 165.824 210.942 165.6C211.213 165.376 211.395 165.054 211.488 164.634ZM216.211 161.778H214.461C214.582 161.022 214.96 160.443 215.595 160.042C216.164 159.687 216.878 159.51 217.737 159.51C218.773 159.51 219.566 159.776 220.117 160.308C220.593 160.765 220.831 161.358 220.831 162.086V167H219.487L219.277 166.104C218.708 166.841 217.9 167.21 216.855 167.21C216.024 167.21 215.38 166.986 214.923 166.538C214.522 166.146 214.321 165.647 214.321 165.04C214.321 164.359 214.568 163.827 215.063 163.444C215.511 163.089 216.206 162.833 217.149 162.674L219.151 162.338V161.988C219.151 161.549 219.006 161.223 218.717 161.008C218.465 160.812 218.12 160.714 217.681 160.714C216.813 160.714 216.323 161.069 216.211 161.778ZM219.151 163.444L217.569 163.724C217.028 163.827 216.64 163.971 216.407 164.158C216.174 164.335 216.057 164.587 216.057 164.914C216.057 165.595 216.472 165.936 217.303 165.936C217.844 165.936 218.302 165.759 218.675 165.404C218.992 165.096 219.151 164.737 219.151 164.326V163.444ZM226.158 165.768V167.042C225.766 167.154 225.393 167.21 225.038 167.21C224.32 167.21 223.774 166.995 223.4 166.566C223.083 166.202 222.924 165.712 222.924 165.096V161.008H221.832V159.72H222.924L223.036 157.97H224.604V159.72H226.144V161.008H224.604V165.152C224.604 165.637 224.852 165.88 225.346 165.88C225.561 165.88 225.832 165.843 226.158 165.768ZM229.068 158.614H227.22V156.92H229.068V158.614ZM228.984 167H227.304V159.72H228.984V167ZM230.413 163.346C230.413 162.021 230.805 161.017 231.589 160.336C232.233 159.785 233.073 159.51 234.109 159.51C235.313 159.51 236.242 159.874 236.895 160.602C237.502 161.265 237.805 162.179 237.805 163.346C237.805 164.671 237.422 165.675 236.657 166.356C236.013 166.925 235.164 167.21 234.109 167.21C232.914 167.21 231.986 166.837 231.323 166.09C230.716 165.409 230.413 164.494 230.413 163.346ZM234.123 165.964C234.786 165.964 235.28 165.721 235.607 165.236C235.915 164.797 236.069 164.167 236.069 163.346C236.069 162.413 235.864 161.727 235.453 161.288C235.126 160.933 234.678 160.756 234.109 160.756C233.456 160.756 232.961 160.994 232.625 161.47C232.308 161.909 232.149 162.534 232.149 163.346C232.149 164.27 232.354 164.956 232.765 165.404C233.11 165.777 233.563 165.964 234.123 165.964ZM240.906 167H239.226V159.72H240.612L240.794 160.588C241.326 159.869 242.063 159.51 243.006 159.51C243.883 159.51 244.555 159.781 245.022 160.322C245.433 160.798 245.638 161.447 245.638 162.268V167H243.958V162.31C243.958 161.311 243.496 160.812 242.572 160.812C242.068 160.812 241.657 160.989 241.34 161.344C241.051 161.671 240.906 162.081 240.906 162.576V167Z" fill="white" fill-opacity="0.95"/>
<rect x="182" y="151.5" width="72" height="23" rx="3.5" stroke="#30C9B0"/>
</g>
<rect x="271" y="151.5" width="49" height="23" rx="3.5" fill="#102B2A"/>
<path d="M279.52 156.92H282.936C285.68 156.92 287.052 158.026 287.052 160.238C287.052 162.413 285.68 163.5 282.936 163.5H281.312V167H279.52V156.92ZM281.312 162.156H282.964C284.448 162.156 285.19 161.517 285.19 160.238C285.19 159.547 284.975 159.034 284.546 158.698C284.163 158.409 283.636 158.264 282.964 158.264H281.312V162.156ZM292.743 159.608V161.232C292.435 161.139 292.141 161.092 291.861 161.092C291.338 161.092 290.918 161.321 290.601 161.778C290.302 162.217 290.153 162.823 290.153 163.598V167H288.473V159.72H289.859L290.069 160.812C290.48 159.944 291.1 159.51 291.931 159.51C292.23 159.51 292.5 159.543 292.743 159.608ZM295.446 158.614H293.598V156.92H295.446V158.614ZM295.362 167H293.682V159.72H295.362V167ZM301.915 164.634H303.707C303.567 165.446 303.179 166.085 302.545 166.552C301.947 166.991 301.21 167.21 300.333 167.21C299.175 167.21 298.279 166.841 297.645 166.104C297.075 165.441 296.791 164.55 296.791 163.43C296.791 162.123 297.155 161.12 297.883 160.42C298.517 159.813 299.339 159.51 300.347 159.51C301.289 159.51 302.069 159.753 302.685 160.238C303.226 160.667 303.557 161.223 303.679 161.904H301.859C301.775 161.559 301.602 161.288 301.341 161.092C301.079 160.887 300.762 160.784 300.389 160.784C299.782 160.784 299.32 161.027 299.003 161.512C298.704 161.969 298.555 162.623 298.555 163.472C298.555 164.331 298.755 164.979 299.157 165.418C299.474 165.763 299.875 165.936 300.361 165.936C300.771 165.936 301.107 165.824 301.369 165.6C301.639 165.376 301.821 165.054 301.915 164.634ZM310.054 164.9H311.818C311.622 165.647 311.216 166.225 310.6 166.636C310.012 167.019 309.288 167.21 308.43 167.21C307.244 167.21 306.32 166.837 305.658 166.09C305.051 165.409 304.748 164.499 304.748 163.36C304.748 162.053 305.126 161.055 305.882 160.364C306.516 159.795 307.342 159.51 308.36 159.51C309.545 159.51 310.441 159.897 311.048 160.672C311.617 161.391 311.902 162.417 311.902 163.752H306.456C306.521 164.536 306.764 165.11 307.184 165.474C307.52 165.773 307.958 165.922 308.5 165.922C308.882 165.922 309.214 165.829 309.494 165.642C309.774 165.455 309.96 165.208 310.054 164.9ZM310.18 162.604C310.142 161.923 309.937 161.423 309.564 161.106C309.256 160.835 308.854 160.7 308.36 160.7C307.818 160.7 307.384 160.877 307.058 161.232C306.759 161.549 306.568 162.007 306.484 162.604H310.18Z" fill="white" fill-opacity="0.95"/>
<rect x="271" y="151.5" width="49" height="23" rx="3.5" stroke="#30C9B0"/>
<rect x="337" y="151.5" width="48" height="23" rx="3.5" fill="#102B2A"/>
<path d="M352.903 156.92V158.39H349.669V167H347.877V158.39H344.685V156.92H352.903ZM360.415 159.72L357.853 167.126C357.517 168.106 357.162 168.783 356.789 169.156C356.415 169.539 355.93 169.73 355.333 169.73C355.034 169.73 354.703 169.683 354.339 169.59V168.33C354.628 168.405 354.889 168.442 355.123 168.442C355.421 168.442 355.659 168.311 355.837 168.05C355.967 167.854 356.117 167.504 356.285 167H355.767L353.121 159.72H354.927L356.803 165.712L358.735 159.72H360.415ZM361.424 159.72H362.754L363.048 160.616C363.636 159.879 364.434 159.51 365.442 159.51C366.488 159.51 367.3 159.879 367.878 160.616C368.401 161.288 368.662 162.175 368.662 163.276C368.662 164.592 368.303 165.605 367.584 166.314C366.987 166.911 366.226 167.21 365.302 167.21C364.369 167.21 363.636 166.869 363.104 166.188V169.52H361.424V159.72ZM366.94 163.29C366.94 162.422 366.735 161.773 366.324 161.344C365.998 161.008 365.564 160.84 365.022 160.84C364.397 160.84 363.902 161.069 363.538 161.526C363.202 161.965 363.034 162.548 363.034 163.276C363.034 164.191 363.24 164.872 363.65 165.32C363.996 165.693 364.444 165.88 364.994 165.88C365.638 165.88 366.128 165.642 366.464 165.166C366.782 164.718 366.94 164.093 366.94 163.29ZM375.034 164.9H376.798C376.602 165.647 376.196 166.225 375.58 166.636C374.992 167.019 374.269 167.21 373.41 167.21C372.225 167.21 371.301 166.837 370.638 166.09C370.032 165.409 369.728 164.499 369.728 163.36C369.728 162.053 370.106 161.055 370.862 160.364C371.497 159.795 372.323 159.51 373.34 159.51C374.526 159.51 375.422 159.897 376.028 160.672C376.598 161.391 376.882 162.417 376.882 163.752H371.436C371.502 164.536 371.744 165.11 372.164 165.474C372.5 165.773 372.939 165.922 373.48 165.922C373.863 165.922 374.194 165.829 374.474 165.642C374.754 165.455 374.941 165.208 375.034 164.9ZM375.16 162.604C375.123 161.923 374.918 161.423 374.544 161.106C374.236 160.835 373.835 160.7 373.34 160.7C372.799 160.7 372.365 160.877 372.038 161.232C371.74 161.549 371.548 162.007 371.464 162.604H375.16Z" fill="white" fill-opacity="0.95"/>
<rect x="337" y="151.5" width="48" height="23" rx="3.5" stroke="#30C9B0"/>
<rect x="172.5" y="142" width="91" height="42" rx="5" stroke="#DA0087" stroke-width="2"/>
<rect x="174.5" y="144" width="87" height="38" rx="3" stroke="white" stroke-width="2"/>
<rect x="266.5" y="142" width="59" height="42" rx="5" stroke="#DA0087" stroke-width="2"/>
<rect x="268.5" y="144" width="55" height="38" rx="3" stroke="white" stroke-width="2"/>
<path d="M338 124V123" stroke="#DA0087"/>
<path d="M338 115L334 123H342L338 115Z" fill="#DA0087"/>
<rect x="312.5" y="116" width="51" height="28" rx="14" fill="#DA0087"/>
<path d="M333.988 123.48V124.936H330.116V135H328.484V124.936H324.66V123.48H333.988ZM335.291 129H333.659C333.745 128.168 334.139 127.523 334.843 127.064C335.473 126.648 336.267 126.44 337.227 126.44C338.369 126.44 339.243 126.739 339.851 127.336C340.363 127.848 340.619 128.509 340.619 129.32V135H339.355L339.163 133.864C338.513 134.781 337.585 135.24 336.379 135.24C335.43 135.24 334.689 134.984 334.155 134.472C333.718 134.045 333.499 133.507 333.499 132.856C333.499 132.035 333.782 131.4 334.347 130.952C334.849 130.557 335.617 130.269 336.651 130.088L339.083 129.672V129.256C339.083 128.712 338.897 128.301 338.523 128.024C338.193 127.779 337.739 127.656 337.163 127.656C336.033 127.656 335.409 128.104 335.291 129ZM336.747 133.944C337.398 133.944 337.963 133.731 338.443 133.304C338.87 132.909 339.083 132.456 339.083 131.944V130.872L337.019 131.24C336.262 131.368 335.745 131.565 335.467 131.832C335.243 132.045 335.131 132.333 335.131 132.696C335.131 133.101 335.27 133.411 335.547 133.624C335.825 133.837 336.225 133.944 336.747 133.944ZM344.04 135H342.776V123.48H344.312V127.832C344.963 126.904 345.891 126.44 347.096 126.44C348.291 126.44 349.219 126.867 349.88 127.72C350.467 128.488 350.76 129.507 350.76 130.776C350.76 132.28 350.36 133.432 349.56 134.232C348.888 134.904 348.03 135.24 346.984 135.24C345.8 135.24 344.899 134.792 344.28 133.896L344.04 135ZM349.16 130.744C349.16 129.699 348.899 128.915 348.376 128.392C347.96 127.965 347.416 127.752 346.744 127.752C345.966 127.752 345.347 128.035 344.888 128.6C344.451 129.144 344.232 129.859 344.232 130.744C344.232 131.811 344.494 132.627 345.016 133.192C345.454 133.683 346.03 133.928 346.744 133.928C347.544 133.928 348.152 133.635 348.568 133.048C348.963 132.504 349.16 131.736 349.16 130.744Z" fill="white"/>
<path d="M604.195 26.515C606.365 26.515 608.15 25.8267 609.55 24.45C610.763 23.26 611.417 21.8133 611.51 20.11H615.115C615.022 21.7667 614.508 23.3067 613.575 24.73C612.618 26.1767 611.347 27.32 609.76 28.16C608.057 29.07 606.178 29.525 604.125 29.525C600.322 29.525 597.382 28.23 595.305 25.64C593.485 23.3533 592.575 20.2733 592.575 16.4C592.575 11.9667 593.823 8.57167 596.32 6.215C598.397 4.255 601.092 3.275 604.405 3.275C607.555 3.275 610.168 4.24333 612.245 6.18C613.972 7.76667 614.917 9.66833 615.08 11.885H611.475C611.242 10.0417 610.413 8.60667 608.99 7.58C607.73 6.69333 606.202 6.25 604.405 6.25C601.722 6.25 599.657 7.20667 598.21 9.12C596.88 10.87 596.215 13.2967 596.215 16.4C596.215 19.8067 597.055 22.42 598.735 24.24C600.135 25.7567 601.955 26.515 604.195 26.515ZM616.498 19.9C616.498 16.5633 617.49 14.0433 619.473 12.34C621.06 10.9633 623.066 10.275 625.493 10.275C628.316 10.275 630.533 11.1733 632.143 12.97C633.683 14.65 634.453 16.96 634.453 19.9C634.453 23.19 633.485 25.6983 631.548 27.425C629.961 28.825 627.931 29.525 625.458 29.525C622.635 29.525 620.406 28.5917 618.773 26.725C617.256 25.0217 616.498 22.7467 616.498 19.9ZM619.998 19.9C619.998 22.2333 620.593 24.0183 621.783 25.255C622.763 26.2817 624.011 26.795 625.528 26.795C627.301 26.795 628.666 26.13 629.623 24.8C630.51 23.5867 630.953 21.9533 630.953 19.9C630.953 17.52 630.37 15.7233 629.203 14.51C628.246 13.5067 627.01 13.005 625.493 13.005C623.743 13.005 622.378 13.67 621.398 15C620.465 16.2133 619.998 17.8467 619.998 19.9ZM640.255 29H636.895V10.8H639.66L640.045 13.11C641.398 11.22 643.242 10.275 645.575 10.275C647.722 10.275 649.367 10.94 650.51 12.27C651.513 13.46 652.015 15.0817 652.015 17.135V29H648.655V17.17C648.655 14.4867 647.36 13.145 644.77 13.145C643.417 13.145 642.308 13.6117 641.445 14.545C640.652 15.385 640.255 16.4583 640.255 17.765V29ZM663.474 26.305V29.175C662.61 29.4083 661.782 29.525 660.989 29.525C659.309 29.525 658.049 29 657.209 27.95C656.485 27.0867 656.124 25.9317 656.124 24.485V13.67H653.429V10.8H656.124L656.334 6.425H659.484V10.8H663.404V13.67H659.484V24.555C659.484 25.9083 660.125 26.585 661.409 26.585C662.015 26.585 662.704 26.4917 663.474 26.305ZM668.593 29H665.233V10.8H667.998L668.453 13.495C669.479 11.3483 671.019 10.275 673.073 10.275C673.749 10.275 674.414 10.3567 675.068 10.52V13.88C674.274 13.67 673.563 13.565 672.933 13.565C671.579 13.565 670.518 14.1133 669.748 15.21C668.978 16.3067 668.593 17.8583 668.593 19.865V29ZM674.917 19.9C674.917 16.5633 675.908 14.0433 677.892 12.34C679.478 10.9633 681.485 10.275 683.912 10.275C686.735 10.275 688.952 11.1733 690.562 12.97C692.102 14.65 692.872 16.96 692.872 19.9C692.872 23.19 691.903 25.6983 689.967 27.425C688.38 28.825 686.35 29.525 683.877 29.525C681.053 29.525 678.825 28.5917 677.192 26.725C675.675 25.0217 674.917 22.7467 674.917 19.9ZM678.417 19.9C678.417 22.2333 679.012 24.0183 680.202 25.255C681.182 26.2817 682.43 26.795 683.947 26.795C685.72 26.795 687.085 26.13 688.042 24.8C688.928 23.5867 689.372 21.9533 689.372 19.9C689.372 17.52 688.788 15.7233 687.622 14.51C686.665 13.5067 685.428 13.005 683.912 13.005C682.162 13.005 680.797 13.67 679.817 15C678.883 16.2133 678.417 17.8467 678.417 19.9ZM698.674 3.8V29H695.314V3.8H698.674ZM712.825 24.065C712.825 23.0383 712.288 22.2683 711.215 21.755C710.585 21.475 709.36 21.125 707.54 20.705C705.3 20.215 703.702 19.5033 702.745 18.57C701.952 17.7767 701.555 16.7383 701.555 15.455C701.555 13.7517 702.243 12.445 703.62 11.535C704.857 10.695 706.525 10.275 708.625 10.275C710.795 10.275 712.557 10.8117 713.91 11.885C715.077 12.8183 715.8 14.055 716.08 15.595H712.65C712.253 13.8217 710.9 12.935 708.59 12.935C707.307 12.935 706.35 13.1683 705.72 13.635C705.207 14.0317 704.95 14.5333 704.95 15.14C704.95 15.8867 705.23 16.4467 705.79 16.82C706.373 17.1933 707.505 17.5667 709.185 17.94C711.752 18.5 713.537 19.1883 714.54 20.005C715.66 20.915 716.22 22.1867 716.22 23.82C716.22 25.64 715.473 27.075 713.98 28.125C712.627 29.0583 710.842 29.525 708.625 29.525C706.198 29.525 704.273 28.9417 702.85 27.775C701.613 26.7483 700.925 25.4183 700.785 23.785H704.215C704.588 25.8383 706.07 26.865 708.66 26.865C710.06 26.865 711.145 26.5617 711.915 25.955C712.522 25.465 712.825 24.835 712.825 24.065Z" fill="white" fill-opacity="0.95"/>
<rect x="590" y="67" width="102" height="72" rx="9" fill="#08599C"/>
<path d="M608.504 96.24C606.957 96.24 605.736 95.8667 604.84 95.12C604.083 94.4907 603.629 93.6533 603.48 92.608H606.024C606.12 93.1733 606.397 93.6107 606.856 93.92C607.293 94.2187 607.853 94.368 608.536 94.368C609.965 94.368 610.68 93.9253 610.68 93.04C610.68 92.4747 610.371 92.0427 609.752 91.744C609.4 91.5733 608.749 91.376 607.8 91.152C606.499 90.8533 605.56 90.4693 604.984 90C604.259 89.4027 603.896 88.592 603.896 87.568C603.896 86.4587 604.339 85.6107 605.224 85.024C606.024 84.5013 607.123 84.24 608.52 84.24C609.939 84.24 611.048 84.56 611.848 85.2C612.541 85.7547 612.957 86.5013 613.096 87.44H610.584C610.52 86.9813 610.269 86.6293 609.832 86.384C609.459 86.1813 609 86.08 608.456 86.08C607.219 86.08 606.6 86.4693 606.6 87.248C606.6 87.6747 606.76 87.9947 607.08 88.208C607.4 88.4213 608.019 88.6293 608.936 88.832C610.376 89.1413 611.448 89.5787 612.152 90.144C612.973 90.7947 613.384 91.6587 613.384 92.736C613.384 93.8133 612.941 94.672 612.056 95.312C611.203 95.9307 610.019 96.24 608.504 96.24ZM619.765 96.24C618.859 96.24 618.096 95.92 617.477 95.28V98.88H614.981V87.68H616.869L617.349 88.608C618.021 87.8293 618.901 87.44 619.989 87.44C621.205 87.44 622.144 87.856 622.805 88.688C623.403 89.4453 623.701 90.4533 623.701 91.712C623.701 93.2053 623.275 94.368 622.421 95.2C621.717 95.8933 620.832 96.24 619.765 96.24ZM621.189 91.776C621.189 90.1013 620.571 89.264 619.333 89.264C618.704 89.264 618.219 89.4933 617.877 89.952C617.557 90.3893 617.397 90.9867 617.397 91.744C617.397 93.5253 618.016 94.416 619.253 94.416C619.883 94.416 620.368 94.1707 620.709 93.68C621.029 93.2213 621.189 92.5867 621.189 91.776ZM627.857 90.08H625.297C625.511 89.184 625.996 88.5067 626.753 88.048C627.436 87.6427 628.289 87.44 629.313 87.44C630.551 87.44 631.505 87.7493 632.177 88.368C632.764 88.9013 633.057 89.6107 633.057 90.496V96H631.105L630.801 95.136C630.161 95.872 629.244 96.24 628.049 96.24C627.121 96.24 626.391 95.9787 625.857 95.456C625.377 94.9973 625.137 94.3787 625.137 93.6C625.137 92.8747 625.42 92.304 625.985 91.888C626.529 91.4827 627.367 91.184 628.497 90.992L630.561 90.656V90.288C630.561 89.4667 630.119 89.056 629.233 89.056C628.455 89.056 627.996 89.3973 627.857 90.08ZM628.769 94.528C629.345 94.528 629.804 94.352 630.145 94C630.423 93.7013 630.561 93.344 630.561 92.928V92.016L629.137 92.304C628.593 92.4107 628.204 92.56 627.969 92.752C627.745 92.9333 627.633 93.1787 627.633 93.488C627.633 94.1813 628.012 94.528 628.769 94.528ZM640.515 93.232H643.139C642.915 94.2133 642.429 94.9653 641.683 95.488C640.979 95.9893 640.072 96.24 638.963 96.24C637.501 96.24 636.408 95.8133 635.683 94.96C635.053 94.224 634.739 93.2107 634.739 91.92C634.739 90.4267 635.176 89.28 636.051 88.48C636.797 87.7867 637.784 87.44 639.011 87.44C640.173 87.44 641.139 87.7333 641.907 88.32C642.557 88.8213 642.963 89.4613 643.123 90.24H640.499C640.403 89.9093 640.227 89.6427 639.971 89.44C639.715 89.2373 639.421 89.136 639.091 89.136C637.917 89.136 637.331 90.08 637.331 91.968C637.331 92.8747 637.512 93.5573 637.875 94.016C638.173 94.368 638.547 94.544 638.995 94.544C639.752 94.544 640.259 94.1067 640.515 93.232ZM650.448 93.584H652.992C652.779 94.4587 652.315 95.1253 651.6 95.584C650.896 96.0213 649.99 96.24 648.88 96.24C647.472 96.24 646.368 95.8027 645.568 94.928C644.854 94.1387 644.496 93.1093 644.496 91.84C644.496 90.3467 644.939 89.2107 645.824 88.432C646.582 87.7707 647.574 87.44 648.8 87.44C650.251 87.44 651.344 87.9093 652.08 88.848C652.752 89.7013 653.088 90.9013 653.088 92.448H647.024C647.184 93.8133 647.846 94.496 649.008 94.496C649.382 94.496 649.696 94.416 649.952 94.256C650.208 94.096 650.374 93.872 650.448 93.584ZM648.752 89.008C647.739 89.008 647.163 89.6693 647.024 90.992H650.528C650.464 89.6693 649.872 89.008 648.752 89.008Z" fill="#C7EEFF"/>
<rect x="590" y="67" width="102" height="72" rx="9" stroke="#5EBFF7" stroke-width="2"/>
<path d="M713.272 106.336C714.168 106.336 714.872 106 715.384 105.328C715.917 104.624 716.184 103.595 716.184 102.24C716.184 100.715 715.843 99.6 715.16 98.896C714.659 98.384 714.029 98.128 713.272 98.128C712.365 98.128 711.661 98.4693 711.16 99.152C710.627 99.8667 710.36 100.901 710.36 102.256C710.36 103.781 710.707 104.891 711.4 105.584C711.891 106.085 712.515 106.336 713.272 106.336ZM713.272 108.24C711.555 108.24 710.195 107.733 709.192 106.72C708.157 105.685 707.64 104.197 707.64 102.256C707.64 100.091 708.296 98.48 709.608 97.424C710.589 96.6347 711.811 96.24 713.272 96.24C714.989 96.24 716.349 96.7467 717.352 97.76C718.387 98.8053 718.904 100.299 718.904 102.24C718.904 104.405 718.248 106.016 716.936 107.072C715.955 107.851 714.733 108.24 713.272 108.24ZM723.243 108H720.747V99.68H722.827L723.099 100.944C723.558 99.9413 724.283 99.44 725.275 99.44C725.648 99.44 725.963 99.4773 726.219 99.552V101.872C725.878 101.765 725.52 101.712 725.147 101.712C724.582 101.712 724.118 101.984 723.755 102.528C723.414 103.04 723.243 103.712 723.243 104.544V108Z" fill="white" fill-opacity="0.95"/>
<rect x="742" y="67" width="102" height="72" rx="9" fill="#08599C"/>
<path d="M765.528 96H762.344L759.8 91.792H758.328V96H755.64V84.48H759.88C761.587 84.48 762.856 84.832 763.688 85.536C764.403 86.1547 764.76 87.0187 764.76 88.128C764.76 89.696 763.997 90.7627 762.472 91.328L765.528 96ZM759.912 86.336H758.328V89.936H760.008C760.637 89.936 761.133 89.76 761.496 89.408C761.816 89.088 761.976 88.6613 761.976 88.128C761.976 86.9333 761.288 86.336 759.912 86.336ZM772.207 93.584H774.751C774.538 94.4587 774.074 95.1253 773.359 95.584C772.655 96.0213 771.748 96.24 770.639 96.24C769.231 96.24 768.127 95.8027 767.327 94.928C766.612 94.1387 766.255 93.1093 766.255 91.84C766.255 90.3467 766.698 89.2107 767.583 88.432C768.34 87.7707 769.332 87.44 770.559 87.44C772.01 87.44 773.103 87.9093 773.839 88.848C774.511 89.7013 774.847 90.9013 774.847 92.448H768.783C768.943 93.8133 769.604 94.496 770.767 94.496C771.14 94.496 771.455 94.416 771.711 94.256C771.967 94.096 772.132 93.872 772.207 93.584ZM770.511 89.008C769.498 89.008 768.922 89.6693 768.783 90.992H772.287C772.223 89.6693 771.631 89.008 770.511 89.008ZM781.288 94.32V96.016C780.765 96.1653 780.259 96.24 779.768 96.24C778.861 96.24 778.168 95.9893 777.688 95.488C777.272 95.0507 777.064 94.448 777.064 93.68V89.408H775.8V87.68H777.064L777.224 85.68H779.56V87.68H781.272V89.408H779.56V93.76C779.56 93.984 779.629 94.16 779.768 94.288C779.917 94.4053 780.12 94.464 780.376 94.464C780.579 94.464 780.883 94.416 781.288 94.32ZM782.651 87.68H785.147V93.184C785.147 93.6 785.259 93.92 785.483 94.144C785.717 94.368 786.048 94.48 786.475 94.48C786.955 94.48 787.339 94.304 787.627 93.952C787.883 93.6213 788.011 93.1947 788.011 92.672V87.68H790.507V96H788.443L788.203 95.12C787.595 95.8667 786.757 96.24 785.691 96.24C784.667 96.24 783.888 95.9307 783.355 95.312C782.885 94.768 782.651 94.0267 782.651 93.088V87.68ZM795.078 96H792.582V87.68H794.662L794.934 88.944C795.393 87.9413 796.118 87.44 797.11 87.44C797.483 87.44 797.798 87.4773 798.054 87.552V89.872C797.713 89.7653 797.355 89.712 796.982 89.712C796.417 89.712 795.953 89.984 795.59 90.528C795.249 91.04 795.078 91.712 795.078 92.544V96ZM801.757 96H799.261V87.68H801.325L801.565 88.592C802.173 87.824 803.021 87.44 804.109 87.44C805.144 87.44 805.933 87.7547 806.477 88.384C806.957 88.9387 807.197 89.6853 807.197 90.624V96H804.701V90.72C804.701 89.7067 804.275 89.2 803.421 89.2C802.899 89.2 802.483 89.392 802.173 89.776C801.896 90.1067 801.757 90.5387 801.757 91.072V96ZM813.751 84.24L810.519 97.44H808.311L811.543 84.24H813.751ZM763.272 113.264V115.12H758.648V118.064H763.736V120H755.96V108.48H763.736V110.448H758.648V113.264H763.272ZM767.993 120H765.497V111.68H767.561L767.801 112.592C768.409 111.824 769.257 111.44 770.345 111.44C771.38 111.44 772.169 111.755 772.713 112.384C773.193 112.939 773.433 113.685 773.433 114.624V120H770.937V114.72C770.937 113.707 770.51 113.2 769.657 113.2C769.134 113.2 768.718 113.392 768.409 113.776C768.132 114.107 767.993 114.539 767.993 115.072V120ZM780.194 118.32V120.016C779.672 120.165 779.165 120.24 778.674 120.24C777.768 120.24 777.074 119.989 776.594 119.488C776.178 119.051 775.97 118.448 775.97 117.68V113.408H774.706V111.68H775.97L776.13 109.68H778.466V111.68H780.178V113.408H778.466V117.76C778.466 117.984 778.536 118.16 778.674 118.288C778.824 118.405 779.026 118.464 779.282 118.464C779.485 118.464 779.789 118.416 780.194 118.32ZM787.191 117.584H789.735C789.521 118.459 789.057 119.125 788.343 119.584C787.639 120.021 786.732 120.24 785.623 120.24C784.215 120.24 783.111 119.803 782.311 118.928C781.596 118.139 781.239 117.109 781.239 115.84C781.239 114.347 781.681 113.211 782.567 112.432C783.324 111.771 784.316 111.44 785.543 111.44C786.993 111.44 788.087 111.909 788.823 112.848C789.495 113.701 789.831 114.901 789.831 116.448H783.767C783.927 117.813 784.588 118.496 785.751 118.496C786.124 118.496 786.439 118.416 786.695 118.256C786.951 118.096 787.116 117.872 787.191 117.584ZM785.495 113.008C784.481 113.008 783.905 113.669 783.767 114.992H787.271C787.207 113.669 786.615 113.008 785.495 113.008ZM794 120H791.504V111.68H793.584L793.856 112.944C794.314 111.941 795.04 111.44 796.032 111.44C796.405 111.44 796.72 111.477 796.976 111.552V113.872C796.634 113.765 796.277 113.712 795.904 113.712C795.338 113.712 794.874 113.984 794.512 114.528C794.17 115.04 794 115.712 794 116.544V120Z" fill="#C7EEFF"/>
<rect x="742" y="67" width="102" height="72" rx="9" stroke="#5EBFF7" stroke-width="2"/>
<path d="M867.096 80.88C867.096 80.496 867.011 80.192 866.84 79.968C866.648 79.7013 866.296 79.456 865.784 79.232C865.272 79.008 864.499 78.752 863.464 78.464C862.077 78.08 861.123 77.6053 860.6 77.04C860.173 76.5813 859.96 75.968 859.96 75.2C859.96 74.272 860.365 73.536 861.176 72.992C861.923 72.4907 862.893 72.24 864.088 72.24C865.421 72.24 866.504 72.5547 867.336 73.184C868.083 73.7387 868.52 74.464 868.648 75.36H866.968C866.872 74.752 866.552 74.2987 866.008 74C865.528 73.7227 864.888 73.584 864.088 73.584C863.192 73.584 862.531 73.7547 862.104 74.096C861.763 74.3627 861.592 74.7093 861.592 75.136C861.592 75.4133 861.635 75.6427 861.72 75.824C861.816 75.9947 861.976 76.1493 862.2 76.288C862.616 76.5653 863.421 76.8693 864.616 77.2C866.28 77.6693 867.405 78.2027 867.992 78.8C868.483 79.2907 868.728 79.9627 868.728 80.816C868.728 81.8293 868.285 82.6667 867.4 83.328C866.568 83.936 865.512 84.24 864.232 84.24C862.899 84.24 861.795 83.8827 860.92 83.168C860.163 82.5493 859.709 81.7493 859.56 80.768H861.24C861.347 81.472 861.683 82.0107 862.248 82.384C862.76 82.7253 863.411 82.896 864.2 82.896C865.181 82.896 865.933 82.672 866.456 82.224C866.883 81.8613 867.096 81.4133 867.096 80.88ZM870.573 75.68H871.837L872.077 76.768C872.76 75.8827 873.698 75.44 874.893 75.44C876.088 75.44 877.016 75.8667 877.677 76.72C878.264 77.488 878.557 78.5067 878.557 79.776C878.557 81.28 878.157 82.432 877.357 83.232C876.685 83.904 875.826 84.24 874.781 84.24C873.597 84.24 872.706 83.8027 872.109 82.928V86.88H870.573V75.68ZM876.957 79.744C876.957 78.6987 876.696 77.9147 876.173 77.392C875.757 76.9653 875.213 76.752 874.541 76.752C873.762 76.752 873.144 77.0347 872.685 77.6C872.248 78.144 872.029 78.8587 872.029 79.744C872.029 80.8107 872.29 81.6267 872.813 82.192C873.25 82.6827 873.826 82.928 874.541 82.928C875.341 82.928 875.949 82.6347 876.365 82.048C876.76 81.504 876.957 80.736 876.957 79.744ZM881.635 78H880.003C880.088 77.168 880.483 76.5227 881.187 76.064C881.816 75.648 882.611 75.44 883.571 75.44C884.712 75.44 885.587 75.7387 886.195 76.336C886.707 76.848 886.963 77.5093 886.963 78.32V84H885.699L885.507 82.864C884.856 83.7813 883.928 84.24 882.723 84.24C881.774 84.24 881.032 83.984 880.499 83.472C880.062 83.0453 879.843 82.5067 879.843 81.856C879.843 81.0347 880.126 80.4 880.691 79.952C881.192 79.5573 881.96 79.2693 882.995 79.088L885.427 78.672V78.256C885.427 77.712 885.24 77.3013 884.867 77.024C884.536 76.7787 884.083 76.656 883.507 76.656C882.376 76.656 881.752 77.104 881.635 78ZM883.091 82.944C883.742 82.944 884.307 82.7307 884.787 82.304C885.214 81.9093 885.427 81.456 885.427 80.944V79.872L883.363 80.24C882.606 80.368 882.088 80.5653 881.811 80.832C881.587 81.0453 881.475 81.3333 881.475 81.696C881.475 82.1013 881.614 82.4107 881.891 82.624C882.168 82.8373 882.568 82.944 883.091 82.944ZM894.544 81.328H896.224C896.096 82.224 895.675 82.944 894.96 83.488C894.309 83.9893 893.515 84.24 892.576 84.24C891.349 84.24 890.373 83.8187 889.648 82.976C888.976 82.1973 888.64 81.1733 888.64 79.904C888.64 78.432 889.045 77.2907 889.856 76.48C890.549 75.7867 891.451 75.44 892.56 75.44C893.584 75.44 894.427 75.712 895.088 76.256C895.675 76.736 896.032 77.3653 896.16 78.144H894.464C894.357 77.696 894.139 77.3493 893.808 77.104C893.488 76.8587 893.083 76.736 892.592 76.736C891.835 76.736 891.253 77.0347 890.848 77.632C890.464 78.1867 890.272 78.96 890.272 79.952C890.272 80.9867 890.528 81.7707 891.04 82.304C891.445 82.7307 891.968 82.944 892.608 82.944C893.163 82.944 893.616 82.784 893.968 82.464C894.277 82.1867 894.469 81.808 894.544 81.328ZM903.643 81.6H905.307C905.073 82.4427 904.609 83.104 903.915 83.584C903.265 84.0213 902.486 84.24 901.579 84.24C900.267 84.24 899.243 83.824 898.507 82.992C897.835 82.2133 897.499 81.1627 897.499 79.84C897.499 78.336 897.926 77.1947 898.779 76.416C899.483 75.7653 900.39 75.44 901.499 75.44C902.801 75.44 903.782 75.8613 904.443 76.704C905.083 77.5147 905.403 78.672 905.403 80.176H899.067C899.131 81.1573 899.43 81.888 899.963 82.368C900.401 82.752 900.955 82.944 901.627 82.944C902.15 82.944 902.603 82.8 902.987 82.512C903.307 82.2667 903.526 81.9627 903.643 81.6ZM901.531 76.672C900.849 76.672 900.299 76.8853 899.883 77.312C899.489 77.7067 899.238 78.256 899.131 78.96H903.835C903.782 78.16 903.515 77.5627 903.035 77.168C902.651 76.8373 902.15 76.672 901.531 76.672ZM906.605 85.44L910.589 72.24H912.045L908.061 85.44H906.605ZM920.451 77.472V78.816H915.363V82.624H920.915V84H913.731V72.48H920.915V73.856H915.363V77.472H920.451ZM924.375 84H922.839V75.68H924.103L924.279 76.736C924.897 75.872 925.74 75.44 926.807 75.44C927.788 75.44 928.54 75.744 929.063 76.352C929.521 76.896 929.751 77.6373 929.751 78.576V84H928.215V78.592C928.215 77.3653 927.623 76.752 926.439 76.752C925.82 76.752 925.313 76.9653 924.919 77.392C924.556 77.776 924.375 78.2667 924.375 78.864V84ZM935.629 82.768V84.08C935.234 84.1867 934.856 84.24 934.493 84.24C933.725 84.24 933.149 84 932.765 83.52C932.434 83.1253 932.269 82.5973 932.269 81.936V76.992H931.037V75.68H932.269L932.365 73.68H933.805V75.68H935.597V76.992H933.805V81.968C933.805 82.5867 934.098 82.896 934.685 82.896C934.962 82.896 935.277 82.8533 935.629 82.768ZM942.659 81.6H944.323C944.088 82.4427 943.624 83.104 942.931 83.584C942.28 84.0213 941.502 84.24 940.595 84.24C939.283 84.24 938.259 83.824 937.523 82.992C936.851 82.2133 936.515 81.1627 936.515 79.84C936.515 78.336 936.942 77.1947 937.795 76.416C938.499 75.7653 939.406 75.44 940.515 75.44C941.816 75.44 942.798 75.8613 943.459 76.704C944.099 77.5147 944.419 78.672 944.419 80.176H938.083C938.147 81.1573 938.446 81.888 938.979 82.368C939.416 82.752 939.971 82.944 940.643 82.944C941.166 82.944 941.619 82.8 942.003 82.512C942.323 82.2667 942.542 81.9627 942.659 81.6ZM940.547 76.672C939.864 76.672 939.315 76.8853 938.899 77.312C938.504 77.7067 938.254 78.256 938.147 78.96H942.851C942.798 78.16 942.531 77.5627 942.051 77.168C941.667 76.8373 941.166 76.672 940.547 76.672ZM947.797 84H946.261V75.68H947.525L947.733 76.912C948.202 75.9307 948.906 75.44 949.845 75.44C950.154 75.44 950.458 75.4773 950.757 75.552V77.088C950.394 76.992 950.069 76.944 949.781 76.944C949.162 76.944 948.677 77.1947 948.325 77.696C947.973 78.1973 947.797 78.9067 947.797 79.824V84ZM966.825 75.68H968.361L965.929 84H964.153L962.137 77.424L960.153 84H958.313L955.881 75.68H957.481L959.273 82.368L961.257 75.68H963.097L965.049 82.336L966.825 75.68ZM971.346 74.288H969.618V72.48H971.346V74.288ZM971.25 84H969.714V75.68H971.25V84ZM975.031 72.48V84H973.495V72.48H975.031ZM978.812 72.48V84H977.276V72.48H978.812ZM990.718 81.744C990.718 81.2747 990.473 80.9227 989.982 80.688C989.694 80.56 989.134 80.4 988.302 80.208C987.278 79.984 986.548 79.6587 986.11 79.232C985.748 78.8693 985.566 78.3947 985.566 77.808C985.566 77.0293 985.881 76.432 986.51 76.016C987.076 75.632 987.838 75.44 988.798 75.44C989.79 75.44 990.596 75.6853 991.214 76.176C991.748 76.6027 992.078 77.168 992.206 77.872H990.638C990.457 77.0613 989.838 76.656 988.782 76.656C988.196 76.656 987.758 76.7627 987.47 76.976C987.236 77.1573 987.118 77.3867 987.118 77.664C987.118 78.0053 987.246 78.2613 987.502 78.432C987.769 78.6027 988.286 78.7733 989.054 78.944C990.228 79.2 991.044 79.5147 991.502 79.888C992.014 80.304 992.27 80.8853 992.27 81.632C992.27 82.464 991.929 83.12 991.246 83.6C990.628 84.0267 989.812 84.24 988.798 84.24C987.689 84.24 986.809 83.9733 986.158 83.44C985.593 82.9707 985.278 82.3627 985.214 81.616H986.782C986.953 82.5547 987.63 83.024 988.814 83.024C989.454 83.024 989.95 82.8853 990.302 82.608C990.58 82.384 990.718 82.096 990.718 81.744ZM999.69 81.6H1001.35C1001.12 82.4427 1000.66 83.104 999.962 83.584C999.312 84.0213 998.533 84.24 997.626 84.24C996.314 84.24 995.29 83.824 994.554 82.992C993.882 82.2133 993.546 81.1627 993.546 79.84C993.546 78.336 993.973 77.1947 994.826 76.416C995.53 75.7653 996.437 75.44 997.546 75.44C998.848 75.44 999.829 75.8613 1000.49 76.704C1001.13 77.5147 1001.45 78.672 1001.45 80.176H995.114C995.178 81.1573 995.477 81.888 996.01 82.368C996.448 82.752 997.002 82.944 997.674 82.944C998.197 82.944 998.65 82.8 999.034 82.512C999.354 82.2667 999.573 81.9627 999.69 81.6ZM997.578 76.672C996.896 76.672 996.346 76.8853 995.93 77.312C995.536 77.7067 995.285 78.256 995.178 78.96H999.882C999.829 78.16 999.562 77.5627 999.082 77.168C998.698 76.8373 998.197 76.672 997.578 76.672ZM1004.83 72.48V84H1003.29V72.48H1004.83ZM1012.74 81.6H1014.4C1014.17 82.4427 1013.7 83.104 1013.01 83.584C1012.36 84.0213 1011.58 84.24 1010.67 84.24C1009.36 84.24 1008.34 83.824 1007.6 82.992C1006.93 82.2133 1006.59 81.1627 1006.59 79.84C1006.59 78.336 1007.02 77.1947 1007.87 76.416C1008.58 75.7653 1009.48 75.44 1010.59 75.44C1011.89 75.44 1012.88 75.8613 1013.54 76.704C1014.18 77.5147 1014.5 78.672 1014.5 80.176H1008.16C1008.23 81.1573 1008.52 81.888 1009.06 82.368C1009.49 82.752 1010.05 82.944 1010.72 82.944C1011.24 82.944 1011.7 82.8 1012.08 82.512C1012.4 82.2667 1012.62 81.9627 1012.74 81.6ZM1010.63 76.672C1009.94 76.672 1009.39 76.8853 1008.98 77.312C1008.58 77.7067 1008.33 78.256 1008.23 78.96H1012.93C1012.88 78.16 1012.61 77.5627 1012.13 77.168C1011.75 76.8373 1011.24 76.672 1010.63 76.672ZM1021.76 81.328H1023.44C1023.31 82.224 1022.89 82.944 1022.18 83.488C1021.53 83.9893 1020.73 84.24 1019.79 84.24C1018.57 84.24 1017.59 83.8187 1016.87 82.976C1016.19 82.1973 1015.86 81.1733 1015.86 79.904C1015.86 78.432 1016.26 77.2907 1017.07 76.48C1017.77 75.7867 1018.67 75.44 1019.78 75.44C1020.8 75.44 1021.65 75.712 1022.31 76.256C1022.89 76.736 1023.25 77.3653 1023.38 78.144H1021.68C1021.58 77.696 1021.36 77.3493 1021.03 77.104C1020.71 76.8587 1020.3 76.736 1019.81 76.736C1019.05 76.736 1018.47 77.0347 1018.07 77.632C1017.68 78.1867 1017.49 78.96 1017.49 79.952C1017.49 80.9867 1017.75 81.7707 1018.26 82.304C1018.66 82.7307 1019.19 82.944 1019.83 82.944C1020.38 82.944 1020.83 82.784 1021.19 82.464C1021.5 82.1867 1021.69 81.808 1021.76 81.328ZM1028.91 82.768V84.08C1028.52 84.1867 1028.14 84.24 1027.77 84.24C1027.01 84.24 1026.43 84 1026.05 83.52C1025.72 83.1253 1025.55 82.5973 1025.55 81.936V76.992H1024.32V75.68H1025.55L1025.65 73.68H1027.09V75.68H1028.88V76.992H1027.09V81.968C1027.09 82.5867 1027.38 82.896 1027.97 82.896C1028.24 82.896 1028.56 82.8533 1028.91 82.768ZM1036.46 78H1034.83C1034.92 77.168 1035.31 76.5227 1036.02 76.064C1036.64 75.648 1037.44 75.44 1038.4 75.44C1039.54 75.44 1040.42 75.7387 1041.02 76.336C1041.54 76.848 1041.79 77.5093 1041.79 78.32V84H1040.53L1040.34 82.864C1039.68 83.7813 1038.76 84.24 1037.55 84.24C1036.6 84.24 1035.86 83.984 1035.33 83.472C1034.89 83.0453 1034.67 82.5067 1034.67 81.856C1034.67 81.0347 1034.95 80.4 1035.52 79.952C1036.02 79.5573 1036.79 79.2693 1037.82 79.088L1040.26 78.672V78.256C1040.26 77.712 1040.07 77.3013 1039.7 77.024C1039.36 76.7787 1038.91 76.656 1038.34 76.656C1037.2 76.656 1036.58 77.104 1036.46 78ZM1037.92 82.944C1038.57 82.944 1039.14 82.7307 1039.62 82.304C1040.04 81.9093 1040.26 81.456 1040.26 80.944V79.872L1038.19 80.24C1037.43 80.368 1036.92 80.5653 1036.64 80.832C1036.42 81.0453 1036.3 81.3333 1036.3 81.696C1036.3 82.1013 1036.44 82.4107 1036.72 82.624C1037 82.8373 1037.4 82.944 1037.92 82.944ZM1045.48 84H1043.95V75.68H1045.21L1045.39 76.736C1046.01 75.872 1046.85 75.44 1047.92 75.44C1048.9 75.44 1049.65 75.744 1050.17 76.352C1050.63 76.896 1050.86 77.6373 1050.86 78.576V84H1049.32V78.592C1049.32 77.3653 1048.73 76.752 1047.55 76.752C1046.93 76.752 1046.42 76.9653 1046.03 77.392C1045.67 77.776 1045.48 78.2667 1045.48 78.864V84ZM1060.53 84H1059.27L1058.99 82.832C1058.35 83.7707 1057.43 84.24 1056.23 84.24C1055.06 84.24 1054.15 83.8187 1053.47 82.976C1052.86 82.1973 1052.55 81.168 1052.55 79.888C1052.55 78.3413 1052.94 77.1787 1053.73 76.4C1054.39 75.76 1055.26 75.44 1056.32 75.44C1057.47 75.44 1058.36 75.872 1058.99 76.736V72.48H1060.53V84ZM1054.15 79.92C1054.15 80.9547 1054.4 81.7387 1054.91 82.272C1055.34 82.7093 1055.89 82.928 1056.56 82.928C1057.39 82.928 1058.04 82.6133 1058.5 81.984C1058.88 81.44 1059.07 80.7573 1059.07 79.936C1059.07 78.8587 1058.82 78.0373 1058.31 77.472C1057.87 76.992 1057.29 76.752 1056.56 76.752C1055.75 76.752 1055.14 77.0453 1054.72 77.632C1054.34 78.1653 1054.15 78.928 1054.15 79.92ZM1067.49 75.68H1069.03V81.136C1069.03 82.3307 1069.61 82.928 1070.76 82.928C1071.46 82.928 1072 82.6773 1072.37 82.176C1072.66 81.792 1072.81 81.3173 1072.81 80.752V75.68H1074.34V84H1073.08L1072.9 83.04C1072.31 83.84 1071.48 84.24 1070.41 84.24C1069.46 84.24 1068.73 83.9467 1068.21 83.36C1067.73 82.816 1067.49 82.064 1067.49 81.104V75.68ZM1078.12 84H1076.59V75.68H1077.85L1078.03 76.736C1078.65 75.872 1079.49 75.44 1080.56 75.44C1081.54 75.44 1082.29 75.744 1082.81 76.352C1083.27 76.896 1083.5 77.6373 1083.5 78.576V84H1081.96V78.592C1081.96 77.3653 1081.37 76.752 1080.19 76.752C1079.57 76.752 1079.06 76.9653 1078.67 77.392C1078.31 77.776 1078.12 78.2667 1078.12 78.864V84ZM1091.75 79.52H1085.99V78.16H1091.75V79.52ZM1099.17 81.744C1099.17 81.2747 1098.93 80.9227 1098.44 80.688C1098.15 80.56 1097.59 80.4 1096.76 80.208C1095.73 79.984 1095 79.6587 1094.56 79.232C1094.2 78.8693 1094.02 78.3947 1094.02 77.808C1094.02 77.0293 1094.33 76.432 1094.96 76.016C1095.53 75.632 1096.29 75.44 1097.25 75.44C1098.24 75.44 1099.05 75.6853 1099.67 76.176C1100.2 76.6027 1100.53 77.168 1100.66 77.872H1099.09C1098.91 77.0613 1098.29 76.656 1097.24 76.656C1096.65 76.656 1096.21 76.7627 1095.92 76.976C1095.69 77.1573 1095.57 77.3867 1095.57 77.664C1095.57 78.0053 1095.7 78.2613 1095.96 78.432C1096.22 78.6027 1096.74 78.7733 1097.51 78.944C1098.68 79.2 1099.5 79.5147 1099.96 79.888C1100.47 80.304 1100.72 80.8853 1100.72 81.632C1100.72 82.464 1100.38 83.12 1099.7 83.6C1099.08 84.0267 1098.26 84.24 1097.25 84.24C1096.14 84.24 1095.26 83.9733 1094.61 83.44C1094.05 82.9707 1093.73 82.3627 1093.67 81.616H1095.24C1095.41 82.5547 1096.08 83.024 1097.27 83.024C1097.91 83.024 1098.4 82.8853 1098.76 82.608C1099.03 82.384 1099.17 82.096 1099.17 81.744ZM1108.14 81.6H1109.81C1109.57 82.4427 1109.11 83.104 1108.42 83.584C1107.76 84.0213 1106.99 84.24 1106.08 84.24C1104.77 84.24 1103.74 83.824 1103.01 82.992C1102.34 82.2133 1102 81.1627 1102 79.84C1102 78.336 1102.43 77.1947 1103.28 76.416C1103.98 75.7653 1104.89 75.44 1106 75.44C1107.3 75.44 1108.28 75.8613 1108.94 76.704C1109.58 77.5147 1109.9 78.672 1109.9 80.176H1103.57C1103.63 81.1573 1103.93 81.888 1104.46 82.368C1104.9 82.752 1105.46 82.944 1106.13 82.944C1106.65 82.944 1107.1 82.8 1107.49 82.512C1107.81 82.2667 1108.03 81.9627 1108.14 81.6ZM1106.03 76.672C1105.35 76.672 1104.8 76.8853 1104.38 77.312C1103.99 77.7067 1103.74 78.256 1103.63 78.96H1108.34C1108.28 78.16 1108.02 77.5627 1107.54 77.168C1107.15 76.8373 1106.65 76.672 1106.03 76.672ZM1113.28 72.48V84H1111.75V72.48H1113.28ZM1121.19 81.6H1122.85C1122.62 82.4427 1122.16 83.104 1121.46 83.584C1120.81 84.0213 1120.03 84.24 1119.13 84.24C1117.81 84.24 1116.79 83.824 1116.05 82.992C1115.38 82.2133 1115.05 81.1627 1115.05 79.84C1115.05 78.336 1115.47 77.1947 1116.33 76.416C1117.03 75.7653 1117.94 75.44 1119.05 75.44C1120.35 75.44 1121.33 75.8613 1121.99 76.704C1122.63 77.5147 1122.95 78.672 1122.95 80.176H1116.61C1116.68 81.1573 1116.98 81.888 1117.51 82.368C1117.95 82.752 1118.5 82.944 1119.17 82.944C1119.7 82.944 1120.15 82.8 1120.53 82.512C1120.85 82.2667 1121.07 81.9627 1121.19 81.6ZM1119.08 76.672C1118.4 76.672 1117.85 76.8853 1117.43 77.312C1117.04 77.7067 1116.78 78.256 1116.68 78.96H1121.38C1121.33 78.16 1121.06 77.5627 1120.58 77.168C1120.2 76.8373 1119.7 76.672 1119.08 76.672ZM1130.22 81.328H1131.9C1131.77 82.224 1131.35 82.944 1130.63 83.488C1129.98 83.9893 1129.19 84.24 1128.25 84.24C1127.02 84.24 1126.05 83.8187 1125.32 82.976C1124.65 82.1973 1124.31 81.1733 1124.31 79.904C1124.31 78.432 1124.72 77.2907 1125.53 76.48C1126.22 75.7867 1127.12 75.44 1128.23 75.44C1129.26 75.44 1130.1 75.712 1130.76 76.256C1131.35 76.736 1131.7 77.3653 1131.83 78.144H1130.14C1130.03 77.696 1129.81 77.3493 1129.48 77.104C1129.16 76.8587 1128.75 76.736 1128.26 76.736C1127.51 76.736 1126.93 77.0347 1126.52 77.632C1126.14 78.1867 1125.94 78.96 1125.94 79.952C1125.94 80.9867 1126.2 81.7707 1126.71 82.304C1127.12 82.7307 1127.64 82.944 1128.28 82.944C1128.83 82.944 1129.29 82.784 1129.64 82.464C1129.95 82.1867 1130.14 81.808 1130.22 81.328ZM1137.36 82.768V84.08C1136.97 84.1867 1136.59 84.24 1136.23 84.24C1135.46 84.24 1134.88 84 1134.5 83.52C1134.17 83.1253 1134 82.5973 1134 81.936V76.992H1132.77V75.68H1134L1134.1 73.68H1135.54V75.68H1137.33V76.992H1135.54V81.968C1135.54 82.5867 1135.83 82.896 1136.42 82.896C1136.7 82.896 1137.01 82.8533 1137.36 82.768ZM864.232 96.432V97.76C863.72 97.632 863.299 97.568 862.968 97.568C862.691 97.568 862.472 97.6427 862.312 97.792C862.163 97.9413 862.088 98.1493 862.088 98.416V99.68H863.88V100.992H862.088V108H860.552V100.992H859.32V99.68H860.552V98.512C860.552 97.776 860.792 97.2 861.272 96.784C861.699 96.4213 862.232 96.24 862.872 96.24C863.288 96.24 863.741 96.304 864.232 96.432ZM864.796 103.84C864.796 102.315 865.25 101.163 866.156 100.384C866.882 99.7547 867.799 99.44 868.908 99.44C870.199 99.44 871.212 99.8507 871.948 100.672C872.652 101.44 873.004 102.496 873.004 103.84C873.004 105.344 872.562 106.491 871.676 107.28C870.951 107.92 870.023 108.24 868.892 108.24C867.602 108.24 866.583 107.813 865.836 106.96C865.143 106.181 864.796 105.141 864.796 103.84ZM866.396 103.84C866.396 104.907 866.668 105.723 867.212 106.288C867.66 106.757 868.231 106.992 868.924 106.992C869.735 106.992 870.359 106.688 870.796 106.08C871.202 105.525 871.404 104.779 871.404 103.84C871.404 102.752 871.138 101.931 870.604 101.376C870.167 100.917 869.602 100.688 868.908 100.688C868.108 100.688 867.484 100.992 867.036 101.6C866.61 102.155 866.396 102.901 866.396 103.84ZM880.185 105.328H881.865C881.737 106.224 881.315 106.944 880.601 107.488C879.95 107.989 879.155 108.24 878.217 108.24C876.99 108.24 876.014 107.819 875.289 106.976C874.617 106.197 874.281 105.173 874.281 103.904C874.281 102.432 874.686 101.291 875.497 100.48C876.19 99.7867 877.091 99.44 878.201 99.44C879.225 99.44 880.067 99.712 880.729 100.256C881.315 100.736 881.673 101.365 881.801 102.144H880.105C879.998 101.696 879.779 101.349 879.449 101.104C879.129 100.859 878.723 100.736 878.233 100.736C877.475 100.736 876.894 101.035 876.489 101.632C876.105 102.187 875.913 102.96 875.913 103.952C875.913 104.987 876.169 105.771 876.681 106.304C877.086 106.731 877.609 106.944 878.249 106.944C878.803 106.944 879.257 106.784 879.609 106.464C879.918 106.187 880.11 105.808 880.185 105.328ZM883.54 99.68H885.076V105.136C885.076 106.331 885.652 106.928 886.804 106.928C887.508 106.928 888.047 106.677 888.42 106.176C888.708 105.792 888.852 105.317 888.852 104.752V99.68H890.388V108H889.124L888.948 107.04C888.361 107.84 887.529 108.24 886.452 108.24C885.503 108.24 884.772 107.947 884.26 107.36C883.78 106.816 883.54 106.064 883.54 105.104V99.68ZM897.5 105.744C897.5 105.275 897.254 104.923 896.764 104.688C896.476 104.56 895.916 104.4 895.084 104.208C894.06 103.984 893.329 103.659 892.892 103.232C892.529 102.869 892.348 102.395 892.348 101.808C892.348 101.029 892.662 100.432 893.292 100.016C893.857 99.632 894.62 99.44 895.58 99.44C896.572 99.44 897.377 99.6853 897.996 100.176C898.529 100.603 898.86 101.168 898.988 101.872H897.42C897.238 101.061 896.62 100.656 895.564 100.656C894.977 100.656 894.54 100.763 894.252 100.976C894.017 101.157 893.9 101.387 893.9 101.664C893.9 102.005 894.028 102.261 894.284 102.432C894.55 102.603 895.068 102.773 895.836 102.944C897.009 103.2 897.825 103.515 898.284 103.888C898.796 104.304 899.052 104.885 899.052 105.632C899.052 106.464 898.71 107.12 898.028 107.6C897.409 108.027 896.593 108.24 895.58 108.24C894.47 108.24 893.59 107.973 892.94 107.44C892.374 106.971 892.06 106.363 891.996 105.616H893.564C893.734 106.555 894.412 107.024 895.596 107.024C896.236 107.024 896.732 106.885 897.084 106.608C897.361 106.384 897.5 106.096 897.5 105.744ZM906.472 105.6H908.135C907.901 106.443 907.437 107.104 906.744 107.584C906.093 108.021 905.314 108.24 904.408 108.24C903.096 108.24 902.072 107.824 901.336 106.992C900.664 106.213 900.328 105.163 900.328 103.84C900.328 102.336 900.754 101.195 901.608 100.416C902.312 99.7653 903.218 99.44 904.328 99.44C905.629 99.44 906.61 99.8613 907.272 100.704C907.912 101.515 908.232 102.672 908.232 104.176H901.896C901.96 105.157 902.258 105.888 902.792 106.368C903.229 106.752 903.784 106.944 904.456 106.944C904.978 106.944 905.432 106.8 905.816 106.512C906.136 106.267 906.354 105.963 906.472 105.6ZM904.36 100.672C903.677 100.672 903.128 100.885 902.712 101.312C902.317 101.707 902.066 102.256 901.96 102.96H906.664C906.61 102.16 906.344 101.563 905.864 101.168C905.48 100.837 904.978 100.672 904.36 100.672ZM917.577 108H916.313L916.041 106.832C915.401 107.771 914.478 108.24 913.273 108.24C912.11 108.24 911.193 107.819 910.521 106.976C909.902 106.197 909.593 105.168 909.593 103.888C909.593 102.341 909.988 101.179 910.777 100.4C911.438 99.76 912.302 99.44 913.369 99.44C914.521 99.44 915.412 99.872 916.041 100.736V96.48H917.577V108ZM911.193 103.92C911.193 104.955 911.449 105.739 911.961 106.272C912.388 106.709 912.937 106.928 913.609 106.928C914.441 106.928 915.086 106.613 915.545 105.984C915.929 105.44 916.121 104.757 916.121 103.936C916.121 102.859 915.865 102.037 915.353 101.472C914.916 100.992 914.334 100.752 913.609 100.752C912.798 100.752 912.185 101.045 911.769 101.632C911.385 102.165 911.193 102.928 911.193 103.92ZM930.044 105.328H931.724C931.596 106.224 931.175 106.944 930.46 107.488C929.809 107.989 929.015 108.24 928.076 108.24C926.849 108.24 925.873 107.819 925.148 106.976C924.476 106.197 924.14 105.173 924.14 103.904C924.14 102.432 924.545 101.291 925.356 100.48C926.049 99.7867 926.951 99.44 928.06 99.44C929.084 99.44 929.927 99.712 930.588 100.256C931.175 100.736 931.532 101.365 931.66 102.144H929.964C929.857 101.696 929.639 101.349 929.308 101.104C928.988 100.859 928.583 100.736 928.092 100.736C927.335 100.736 926.753 101.035 926.348 101.632C925.964 102.187 925.772 102.96 925.772 103.952C925.772 104.987 926.028 105.771 926.54 106.304C926.945 106.731 927.468 106.944 928.108 106.944C928.663 106.944 929.116 106.784 929.468 106.464C929.777 106.187 929.969 105.808 930.044 105.328ZM935.015 108H933.479V96.48H935.015V100.624C935.623 99.8347 936.434 99.44 937.447 99.44C938.429 99.44 939.181 99.744 939.703 100.352C940.162 100.896 940.391 101.637 940.391 102.576V108H938.855V102.592C938.855 101.365 938.263 100.752 937.079 100.752C936.45 100.752 935.938 100.971 935.543 101.408C935.191 101.803 935.015 102.309 935.015 102.928V108ZM944.19 98.288H942.462V96.48H944.19V98.288ZM944.094 108H942.558V99.68H944.094V108ZM946.339 99.68H947.603L947.843 100.768C948.525 99.8827 949.464 99.44 950.659 99.44C951.853 99.44 952.781 99.8667 953.443 100.72C954.029 101.488 954.323 102.507 954.323 103.776C954.323 105.28 953.923 106.432 953.123 107.232C952.451 107.904 951.592 108.24 950.547 108.24C949.363 108.24 948.472 107.803 947.875 106.928V110.88H946.339V99.68ZM952.723 103.744C952.723 102.699 952.461 101.915 951.939 101.392C951.523 100.965 950.979 100.752 950.307 100.752C949.528 100.752 948.909 101.035 948.451 101.6C948.013 102.144 947.795 102.859 947.795 103.744C947.795 104.811 948.056 105.627 948.579 106.192C949.016 106.683 949.592 106.928 950.307 106.928C951.107 106.928 951.715 106.635 952.131 106.048C952.525 105.504 952.723 104.736 952.723 103.744ZM958.062 108H956.206V106.144H958.062V108ZM972.2 108H970.664L967.112 98.976V108H965.528V96.48H967.8L971.464 106.08L974.92 96.48H977.064V108H975.528V99.056L972.2 108ZM979.306 99.68H980.842V105.136C980.842 106.331 981.418 106.928 982.57 106.928C983.274 106.928 983.812 106.677 984.186 106.176C984.474 105.792 984.618 105.317 984.618 104.752V99.68H986.154V108H984.89L984.714 107.04C984.127 107.84 983.295 108.24 982.218 108.24C981.268 108.24 980.538 107.947 980.026 107.36C979.546 106.816 979.306 106.064 979.306 105.104V99.68ZM989.937 96.48V108H988.401V96.48H989.937ZM995.895 106.768V108.08C995.5 108.187 995.121 108.24 994.759 108.24C993.991 108.24 993.415 108 993.031 107.52C992.7 107.125 992.535 106.597 992.535 105.936V100.992H991.303V99.68H992.535L992.631 97.68H994.071V99.68H995.863V100.992H994.071V105.968C994.071 106.587 994.364 106.896 994.951 106.896C995.228 106.896 995.543 106.853 995.895 106.768ZM998.971 98.288H997.243V96.48H998.971V98.288ZM998.875 108H997.339V99.68H998.875V108ZM1001.12 99.68H1002.38L1002.62 100.768C1003.31 99.8827 1004.25 99.44 1005.44 99.44C1006.63 99.44 1007.56 99.8667 1008.22 100.72C1008.81 101.488 1009.1 102.507 1009.1 103.776C1009.1 105.28 1008.7 106.432 1007.9 107.232C1007.23 107.904 1006.37 108.24 1005.33 108.24C1004.14 108.24 1003.25 107.803 1002.66 106.928V110.88H1001.12V99.68ZM1007.5 103.744C1007.5 102.699 1007.24 101.915 1006.72 101.392C1006.3 100.965 1005.76 100.752 1005.09 100.752C1004.31 100.752 1003.69 101.035 1003.23 101.6C1002.79 102.144 1002.58 102.859 1002.58 103.744C1002.58 104.811 1002.84 105.627 1003.36 106.192C1003.8 106.683 1004.37 106.928 1005.09 106.928C1005.89 106.928 1006.5 106.635 1006.91 106.048C1007.31 105.504 1007.5 104.736 1007.5 103.744ZM1012.41 96.48V108H1010.87V96.48H1012.41ZM1020.32 105.6H1021.98C1021.74 106.443 1021.28 107.104 1020.59 107.584C1019.94 108.021 1019.16 108.24 1018.25 108.24C1016.94 108.24 1015.92 107.824 1015.18 106.992C1014.51 106.213 1014.17 105.163 1014.17 103.84C1014.17 102.336 1014.6 101.195 1015.45 100.416C1016.16 99.7653 1017.06 99.44 1018.17 99.44C1019.47 99.44 1020.45 99.8613 1021.12 100.704C1021.76 101.515 1022.08 102.672 1022.08 104.176H1015.74C1015.8 105.157 1016.1 105.888 1016.64 106.368C1017.07 106.752 1017.63 106.944 1018.3 106.944C1018.82 106.944 1019.28 106.8 1019.66 106.512C1019.98 106.267 1020.2 105.963 1020.32 105.6ZM1018.2 100.672C1017.52 100.672 1016.97 100.885 1016.56 101.312C1016.16 101.707 1015.91 102.256 1015.8 102.96H1020.51C1020.45 102.16 1020.19 101.563 1019.71 101.168C1019.32 100.837 1018.82 100.672 1018.2 100.672ZM1033.58 105.744C1033.58 105.275 1033.33 104.923 1032.84 104.688C1032.55 104.56 1031.99 104.4 1031.16 104.208C1030.14 103.984 1029.41 103.659 1028.97 103.232C1028.61 102.869 1028.43 102.395 1028.43 101.808C1028.43 101.029 1028.74 100.432 1029.37 100.016C1029.94 99.632 1030.7 99.44 1031.66 99.44C1032.65 99.44 1033.46 99.6853 1034.07 100.176C1034.61 100.603 1034.94 101.168 1035.07 101.872H1033.5C1033.32 101.061 1032.7 100.656 1031.64 100.656C1031.06 100.656 1030.62 100.763 1030.33 100.976C1030.1 101.157 1029.98 101.387 1029.98 101.664C1029.98 102.005 1030.11 102.261 1030.36 102.432C1030.63 102.603 1031.15 102.773 1031.91 102.944C1033.09 103.2 1033.9 103.515 1034.36 103.888C1034.87 104.304 1035.13 104.885 1035.13 105.632C1035.13 106.464 1034.79 107.12 1034.11 107.6C1033.49 108.027 1032.67 108.24 1031.66 108.24C1030.55 108.24 1029.67 107.973 1029.02 107.44C1028.45 106.971 1028.14 106.363 1028.07 105.616H1029.64C1029.81 106.555 1030.49 107.024 1031.67 107.024C1032.31 107.024 1032.81 106.885 1033.16 106.608C1033.44 106.384 1033.58 106.096 1033.58 105.744ZM1042.55 105.6H1044.21C1043.98 106.443 1043.51 107.104 1042.82 107.584C1042.17 108.021 1041.39 108.24 1040.49 108.24C1039.17 108.24 1038.15 107.824 1037.41 106.992C1036.74 106.213 1036.41 105.163 1036.41 103.84C1036.41 102.336 1036.83 101.195 1037.69 100.416C1038.39 99.7653 1039.3 99.44 1040.41 99.44C1041.71 99.44 1042.69 99.8613 1043.35 100.704C1043.99 101.515 1044.31 102.672 1044.31 104.176H1037.97C1038.04 105.157 1038.34 105.888 1038.87 106.368C1039.31 106.752 1039.86 106.944 1040.53 106.944C1041.06 106.944 1041.51 106.8 1041.89 106.512C1042.21 106.267 1042.43 105.963 1042.55 105.6ZM1040.44 100.672C1039.75 100.672 1039.21 100.885 1038.79 101.312C1038.39 101.707 1038.14 102.256 1038.04 102.96H1042.74C1042.69 102.16 1042.42 101.563 1041.94 101.168C1041.56 100.837 1041.06 100.672 1040.44 100.672ZM1047.69 96.48V108H1046.15V96.48H1047.69ZM1055.6 105.6H1057.26C1057.03 106.443 1056.56 107.104 1055.87 107.584C1055.22 108.021 1054.44 108.24 1053.53 108.24C1052.22 108.24 1051.2 107.824 1050.46 106.992C1049.79 106.213 1049.45 105.163 1049.45 103.84C1049.45 102.336 1049.88 101.195 1050.73 100.416C1051.44 99.7653 1052.34 99.44 1053.45 99.44C1054.75 99.44 1055.74 99.8613 1056.4 100.704C1057.04 101.515 1057.36 102.672 1057.36 104.176H1051.02C1051.08 105.157 1051.38 105.888 1051.92 106.368C1052.35 106.752 1052.91 106.944 1053.58 106.944C1054.1 106.944 1054.56 106.8 1054.94 106.512C1055.26 106.267 1055.48 105.963 1055.6 105.6ZM1053.48 100.672C1052.8 100.672 1052.25 100.885 1051.84 101.312C1051.44 101.707 1051.19 102.256 1051.08 102.96H1055.79C1055.74 102.16 1055.47 101.563 1054.99 101.168C1054.6 100.837 1054.1 100.672 1053.48 100.672ZM1064.62 105.328H1066.3C1066.17 106.224 1065.75 106.944 1065.04 107.488C1064.39 107.989 1063.59 108.24 1062.65 108.24C1061.43 108.24 1060.45 107.819 1059.73 106.976C1059.05 106.197 1058.72 105.173 1058.72 103.904C1058.72 102.432 1059.12 101.291 1059.93 100.48C1060.63 99.7867 1061.53 99.44 1062.64 99.44C1063.66 99.44 1064.5 99.712 1065.17 100.256C1065.75 100.736 1066.11 101.365 1066.24 102.144H1064.54C1064.44 101.696 1064.22 101.349 1063.89 101.104C1063.57 100.859 1063.16 100.736 1062.67 100.736C1061.91 100.736 1061.33 101.035 1060.93 101.632C1060.54 102.187 1060.35 102.96 1060.35 103.952C1060.35 104.987 1060.61 105.771 1061.12 106.304C1061.52 106.731 1062.05 106.944 1062.69 106.944C1063.24 106.944 1063.69 106.784 1064.05 106.464C1064.36 106.187 1064.55 105.808 1064.62 105.328ZM1071.77 106.768V108.08C1071.37 108.187 1071 108.24 1070.63 108.24C1069.87 108.24 1069.29 108 1068.91 107.52C1068.57 107.125 1068.41 106.597 1068.41 105.936V100.992H1067.18V99.68H1068.41L1068.51 97.68H1069.95V99.68H1071.74V100.992H1069.95V105.968C1069.95 106.587 1070.24 106.896 1070.83 106.896C1071.1 106.896 1071.42 106.853 1071.77 106.768ZM1074.85 98.288H1073.12V96.48H1074.85V98.288ZM1074.75 108H1073.21V99.68H1074.75V108ZM1076.52 103.84C1076.52 102.315 1076.97 101.163 1077.88 100.384C1078.6 99.7547 1079.52 99.44 1080.63 99.44C1081.92 99.44 1082.93 99.8507 1083.67 100.672C1084.37 101.44 1084.72 102.496 1084.72 103.84C1084.72 105.344 1084.28 106.491 1083.4 107.28C1082.67 107.92 1081.74 108.24 1080.61 108.24C1079.32 108.24 1078.3 107.813 1077.56 106.96C1076.86 106.181 1076.52 105.141 1076.52 103.84ZM1078.12 103.84C1078.12 104.907 1078.39 105.723 1078.93 106.288C1079.38 106.757 1079.95 106.992 1080.64 106.992C1081.45 106.992 1082.08 106.688 1082.52 106.08C1082.92 105.525 1083.12 104.779 1083.12 103.84C1083.12 102.752 1082.86 101.931 1082.32 101.376C1081.89 100.917 1081.32 100.688 1080.63 100.688C1079.83 100.688 1079.2 100.992 1078.76 101.6C1078.33 102.155 1078.12 102.901 1078.12 103.84ZM1088.02 108H1086.48V99.68H1087.74L1087.92 100.736C1088.54 99.872 1089.38 99.44 1090.45 99.44C1091.43 99.44 1092.18 99.744 1092.7 100.352C1093.16 100.896 1093.39 101.637 1093.39 102.576V108H1091.86V102.592C1091.86 101.365 1091.26 100.752 1090.08 100.752C1089.46 100.752 1088.95 100.965 1088.56 101.392C1088.2 101.776 1088.02 102.267 1088.02 102.864V108ZM1101.99 98.288H1100.26V96.48H1101.99V98.288ZM1101.89 108H1100.35V99.68H1101.89V108ZM1109 105.744C1109 105.275 1108.75 104.923 1108.26 104.688C1107.98 104.56 1107.42 104.4 1106.58 104.208C1105.56 103.984 1104.83 103.659 1104.39 103.232C1104.03 102.869 1103.85 102.395 1103.85 101.808C1103.85 101.029 1104.16 100.432 1104.79 100.016C1105.36 99.632 1106.12 99.44 1107.08 99.44C1108.07 99.44 1108.88 99.6853 1109.5 100.176C1110.03 100.603 1110.36 101.168 1110.49 101.872H1108.92C1108.74 101.061 1108.12 100.656 1107.06 100.656C1106.48 100.656 1106.04 100.763 1105.75 100.976C1105.52 101.157 1105.4 101.387 1105.4 101.664C1105.4 102.005 1105.53 102.261 1105.78 102.432C1106.05 102.603 1106.57 102.773 1107.34 102.944C1108.51 103.2 1109.32 103.515 1109.78 103.888C1110.3 104.304 1110.55 104.885 1110.55 105.632C1110.55 106.464 1110.21 107.12 1109.53 107.6C1108.91 108.027 1108.09 108.24 1107.08 108.24C1105.97 108.24 1105.09 107.973 1104.44 107.44C1103.87 106.971 1103.56 106.363 1103.5 105.616H1105.06C1105.23 106.555 1105.91 107.024 1107.1 107.024C1107.74 107.024 1108.23 106.885 1108.58 106.608C1108.86 106.384 1109 106.096 1109 105.744ZM860.12 123.68H861.384L861.624 124.768C862.307 123.883 863.245 123.44 864.44 123.44C865.635 123.44 866.563 123.867 867.224 124.72C867.811 125.488 868.104 126.507 868.104 127.776C868.104 129.28 867.704 130.432 866.904 131.232C866.232 131.904 865.373 132.24 864.328 132.24C863.144 132.24 862.253 131.803 861.656 130.928V134.88H860.12V123.68ZM866.504 127.744C866.504 126.699 866.243 125.915 865.72 125.392C865.304 124.965 864.76 124.752 864.088 124.752C863.309 124.752 862.691 125.035 862.232 125.6C861.795 126.144 861.576 126.859 861.576 127.744C861.576 128.811 861.837 129.627 862.36 130.192C862.797 130.683 863.373 130.928 864.088 130.928C864.888 130.928 865.496 130.635 865.912 130.048C866.307 129.504 866.504 128.736 866.504 127.744ZM869.39 127.84C869.39 126.315 869.843 125.163 870.75 124.384C871.475 123.755 872.393 123.44 873.502 123.44C874.793 123.44 875.806 123.851 876.542 124.672C877.246 125.44 877.598 126.496 877.598 127.84C877.598 129.344 877.155 130.491 876.27 131.28C875.545 131.92 874.617 132.24 873.486 132.24C872.195 132.24 871.177 131.813 870.43 130.96C869.737 130.181 869.39 129.141 869.39 127.84ZM870.99 127.84C870.99 128.907 871.262 129.723 871.806 130.288C872.254 130.757 872.825 130.992 873.518 130.992C874.329 130.992 874.953 130.688 875.39 130.08C875.795 129.525 875.998 128.779 875.998 127.84C875.998 126.752 875.731 125.931 875.198 125.376C874.761 124.917 874.195 124.688 873.502 124.688C872.702 124.688 872.078 124.992 871.63 125.6C871.203 126.155 870.99 126.901 870.99 127.84ZM884.218 129.744C884.218 129.275 883.973 128.923 883.482 128.688C883.194 128.56 882.634 128.4 881.802 128.208C880.778 127.984 880.048 127.659 879.61 127.232C879.248 126.869 879.066 126.395 879.066 125.808C879.066 125.029 879.381 124.432 880.01 124.016C880.576 123.632 881.338 123.44 882.298 123.44C883.29 123.44 884.096 123.685 884.714 124.176C885.248 124.603 885.578 125.168 885.706 125.872H884.138C883.957 125.061 883.338 124.656 882.282 124.656C881.696 124.656 881.258 124.763 880.97 124.976C880.736 125.157 880.618 125.387 880.618 125.664C880.618 126.005 880.746 126.261 881.002 126.432C881.269 126.603 881.786 126.773 882.554 126.944C883.728 127.2 884.544 127.515 885.002 127.888C885.514 128.304 885.77 128.885 885.77 129.632C885.77 130.464 885.429 131.12 884.746 131.6C884.128 132.027 883.312 132.24 882.298 132.24C881.189 132.24 880.309 131.973 879.658 131.44C879.093 130.971 878.778 130.363 878.714 129.616H880.282C880.453 130.555 881.13 131.024 882.314 131.024C882.954 131.024 883.45 130.885 883.802 130.608C884.08 130.384 884.218 130.096 884.218 129.744ZM892.281 129.744C892.281 129.275 892.036 128.923 891.545 128.688C891.257 128.56 890.697 128.4 889.865 128.208C888.841 127.984 888.11 127.659 887.673 127.232C887.31 126.869 887.129 126.395 887.129 125.808C887.129 125.029 887.444 124.432 888.073 124.016C888.638 123.632 889.401 123.44 890.361 123.44C891.353 123.44 892.158 123.685 892.777 124.176C893.31 124.603 893.641 125.168 893.769 125.872H892.201C892.02 125.061 891.401 124.656 890.345 124.656C889.758 124.656 889.321 124.763 889.033 124.976C888.798 125.157 888.681 125.387 888.681 125.664C888.681 126.005 888.809 126.261 889.065 126.432C889.332 126.603 889.849 126.773 890.617 126.944C891.79 127.2 892.606 127.515 893.065 127.888C893.577 128.304 893.833 128.885 893.833 129.632C893.833 130.464 893.492 131.12 892.809 131.6C892.19 132.027 891.374 132.24 890.361 132.24C889.252 132.24 888.372 131.973 887.721 131.44C887.156 130.971 886.841 130.363 886.777 129.616H888.345C888.516 130.555 889.193 131.024 890.377 131.024C891.017 131.024 891.513 130.885 891.865 130.608C892.142 130.384 892.281 130.096 892.281 129.744ZM897.221 122.288H895.493V120.48H897.221V122.288ZM897.125 132H895.589V123.68H897.125V132ZM900.634 132H899.37V120.48H900.906V124.832C901.557 123.904 902.485 123.44 903.69 123.44C904.885 123.44 905.813 123.867 906.474 124.72C907.061 125.488 907.354 126.507 907.354 127.776C907.354 129.28 906.954 130.432 906.154 131.232C905.482 131.904 904.623 132.24 903.578 132.24C902.394 132.24 901.493 131.792 900.874 130.896L900.634 132ZM905.754 127.744C905.754 126.699 905.493 125.915 904.97 125.392C904.554 124.965 904.01 124.752 903.338 124.752C902.559 124.752 901.941 125.035 901.482 125.6C901.045 126.144 900.826 126.859 900.826 127.744C900.826 128.811 901.087 129.627 901.61 130.192C902.047 130.683 902.623 130.928 903.338 130.928C904.138 130.928 904.746 130.635 905.162 130.048C905.557 129.504 905.754 128.736 905.754 127.744ZM910.656 120.48V132H909.12V120.48H910.656ZM918.565 129.6H920.229C919.995 130.443 919.531 131.104 918.837 131.584C918.187 132.021 917.408 132.24 916.501 132.24C915.189 132.24 914.165 131.824 913.429 130.992C912.757 130.213 912.421 129.163 912.421 127.84C912.421 126.336 912.848 125.195 913.701 124.416C914.405 123.765 915.312 123.44 916.421 123.44C917.723 123.44 918.704 123.861 919.365 124.704C920.005 125.515 920.325 126.672 920.325 128.176H913.989C914.053 129.157 914.352 129.888 914.885 130.368C915.323 130.752 915.877 130.944 916.549 130.944C917.072 130.944 917.525 130.8 917.909 130.512C918.229 130.267 918.448 129.963 918.565 129.6ZM916.453 124.672C915.771 124.672 915.221 124.885 914.805 125.312C914.411 125.707 914.16 126.256 914.053 126.96H918.757C918.704 126.16 918.437 125.563 917.957 125.168C917.573 124.837 917.072 124.672 916.453 124.672ZM924.375 132H922.519V130.144H924.375V132Z" fill="white" fill-opacity="0.95"/>
<defs>
<filter id="filter0_ddd_144_7126" x="176.5" y="146" width="83" height="34" filterUnits="userSpaceOnUse" color-interpolation-filters="sRGB">
<feFlood flood-opacity="0" result="BackgroundImageFix"/>
<feColorMatrix in="SourceAlpha" type="matrix" values="0 0 0 0 0 0 0 0 0 0 0 0 0 0 0 0 0 0 127 0" result="hardAlpha"/>
<feMorphology radius="4" operator="dilate" in="SourceAlpha" result="effect1_dropShadow_144_7126"/>
<feOffset/>
<feComposite in2="hardAlpha" operator="out"/>
<feColorMatrix type="matrix" values="0 0 0 0 0.392157 0 0 0 0 0.705882 0 0 0 0 0.980392 0 0 0 1 0"/>
<feBlend mode="normal" in2="BackgroundImageFix" result="effect1_dropShadow_144_7126"/>
<feColorMatrix in="SourceAlpha" type="matrix" values="0 0 0 0 0 0 0 0 0 0 0 0 0 0 0 0 0 0 127 0" result="hardAlpha"/>
<feMorphology radius="5" operator="dilate" in="SourceAlpha" result="effect2_dropShadow_144_7126"/>
<feOffset/>
<feComposite in2="hardAlpha" operator="out"/>
<feColorMatrix type="matrix" values="0 0 0 0 0.392157 0 0 0 0 0.705882 0 0 0 0 0.980392 0 0 0 0.3 0"/>
<feBlend mode="normal" in2="effect1_dropShadow_144_7126" result="effect2_dropShadow_144_7126"/>
<feColorMatrix in="SourceAlpha" type="matrix" values="0 0 0 0 0 0 0 0 0 0 0 0 0 0 0 0 0 0 127 0" result="hardAlpha"/>
<feMorphology radius="2" operator="dilate" in="SourceAlpha" result="effect3_dropShadow_144_7126"/>
<feOffset/>
<feComposite in2="hardAlpha" operator="out"/>
<feColorMatrix type="matrix" values="0 0 0 0 0 0 0 0 0 0 0 0 0 0 0 0 0 0 1 0"/>
<feBlend mode="normal" in2="effect2_dropShadow_144_7126" result="effect3_dropShadow_144_7126"/>
<feBlend mode="normal" in="SourceGraphic" in2="effect3_dropShadow_144_7126" result="shape"/>
</filter>
</defs>
</svg>
