<svg width="205" height="34" viewBox="0 0 205 34" fill="none" xmlns="http://www.w3.org/2000/svg">
<g filter="url(#filter0_ddd_144_7111)">
<rect x="5" y="5" width="56" height="24" rx="4" fill="#102B2A"/>
<rect x="5.5" y="5.5" width="55" height="23" rx="3.5" stroke="#30C9B0"/>
<path d="M16.2681 22V11.8182H17.5011V20.9062H22.234V22H16.2681ZM26.2312 22.179C25.7473 22.179 25.3081 22.0878 24.9137 21.9055C24.5193 21.7199 24.2061 21.4531 23.9741 21.1051C23.7421 20.7538 23.6261 20.3295 23.6261 19.8324C23.6261 19.3949 23.7122 19.0402 23.8846 18.7685C24.0569 18.4934 24.2873 18.2779 24.5756 18.1222C24.864 17.9664 25.1822 17.8504 25.5302 17.7741C25.8815 17.6946 26.2345 17.6316 26.5891 17.5852C27.0531 17.5256 27.4293 17.4808 27.7177 17.451C28.0094 17.4179 28.2215 17.3632 28.354 17.2869C28.4899 17.2107 28.5579 17.0781 28.5579 16.8892V16.8494C28.5579 16.3589 28.4237 15.9777 28.1552 15.706C27.89 15.4342 27.4873 15.2983 26.9471 15.2983C26.387 15.2983 25.9478 15.4209 25.6296 15.6662C25.3114 15.9115 25.0877 16.1733 24.9585 16.4517L23.8448 16.054C24.0437 15.59 24.3088 15.2287 24.6403 14.9702C24.975 14.7083 25.3396 14.526 25.734 14.4233C26.1317 14.3172 26.5228 14.2642 26.9073 14.2642C27.1526 14.2642 27.4343 14.294 27.7525 14.3537C28.074 14.41 28.3839 14.5277 28.6822 14.7067C28.9838 14.8857 29.234 15.1558 29.4329 15.517C29.6317 15.8783 29.7312 16.3622 29.7312 16.9688V22H28.5579V20.9659H28.4982C28.4187 21.1316 28.2861 21.3089 28.1005 21.4979C27.9149 21.6868 27.668 21.8475 27.3597 21.9801C27.0515 22.1127 26.6753 22.179 26.2312 22.179ZM26.4102 21.125C26.8742 21.125 27.2653 21.0339 27.5835 20.8516C27.9049 20.6693 28.1469 20.4339 28.3093 20.1456C28.475 19.8572 28.5579 19.554 28.5579 19.2358V18.1619C28.5082 18.2216 28.3988 18.2763 28.2298 18.326C28.064 18.3724 27.8718 18.4138 27.6531 18.4503C27.4376 18.4834 27.2272 18.5133 27.0217 18.5398C26.8195 18.563 26.6554 18.5829 26.5295 18.5994C26.2246 18.6392 25.9395 18.7038 25.6744 18.7933C25.4125 18.8795 25.2004 19.0104 25.038 19.1861C24.8789 19.3584 24.7994 19.5937 24.7994 19.892C24.7994 20.2997 24.9502 20.608 25.2518 20.8168C25.5567 21.0223 25.9428 21.125 26.4102 21.125ZM32.0318 22V11.8182H33.2051V15.5767H33.3045C33.3907 15.4441 33.51 15.2751 33.6625 15.0696C33.8182 14.8608 34.0403 14.6752 34.3287 14.5128C34.6203 14.3471 35.0147 14.2642 35.5119 14.2642C36.1549 14.2642 36.7217 14.425 37.2122 14.7464C37.7027 15.0679 38.0855 15.5237 38.3606 16.1136C38.6357 16.7036 38.7733 17.3996 38.7733 18.2017C38.7733 19.0104 38.6357 19.7114 38.3606 20.3047C38.0855 20.8946 37.7044 21.352 37.2172 21.6768C36.7299 21.9983 36.1681 22.1591 35.5318 22.1591C35.0413 22.1591 34.6485 22.0779 34.3535 21.9155C34.0585 21.7498 33.8315 21.5625 33.6724 21.3537C33.5133 21.1416 33.3907 20.9659 33.3045 20.8267H33.1653V22H32.0318ZM33.1852 18.1818C33.1852 18.7585 33.2697 19.2673 33.4387 19.7081C33.6078 20.1456 33.8547 20.4886 34.1795 20.7372C34.5043 20.9825 34.902 21.1051 35.3727 21.1051C35.8632 21.1051 36.2725 20.9759 36.6007 20.7173C36.9321 20.4555 37.1807 20.1042 37.3464 19.6634C37.5154 19.2192 37.6 18.7254 37.6 18.1818C37.6 17.6449 37.5171 17.161 37.3514 16.7301C37.189 16.2959 36.9421 15.9529 36.6106 15.701C36.2825 15.4458 35.8699 15.3182 35.3727 15.3182C34.8954 15.3182 34.4944 15.4392 34.1696 15.6811C33.8448 15.9197 33.5995 16.2545 33.4338 16.6854C33.2681 17.1129 33.1852 17.6117 33.1852 18.1818ZM43.7697 22.1591C43.0339 22.1591 42.3992 21.9967 41.8656 21.6719C41.3353 21.3438 40.926 20.8864 40.6376 20.2997C40.3526 19.7098 40.21 19.0237 40.21 18.2415C40.21 17.4593 40.3526 16.7699 40.6376 16.1733C40.926 15.5734 41.327 15.1061 41.8407 14.7713C42.3578 14.4332 42.961 14.2642 43.6504 14.2642C44.0481 14.2642 44.4409 14.3305 44.8287 14.4631C45.2164 14.5956 45.5694 14.8111 45.8876 15.1094C46.2058 15.4044 46.4593 15.7955 46.6483 16.2827C46.8372 16.7699 46.9316 17.3698 46.9316 18.0824V18.5795H41.0453V17.5653H45.7385C45.7385 17.1345 45.6523 16.75 45.4799 16.4119C45.3109 16.0739 45.069 15.8071 44.7541 15.6115C44.4425 15.416 44.0746 15.3182 43.6504 15.3182C43.1831 15.3182 42.7787 15.4342 42.4373 15.6662C42.0993 15.8949 41.8391 16.1932 41.6568 16.5611C41.4745 16.929 41.3833 17.3234 41.3833 17.7443V18.4205C41.3833 18.9972 41.4828 19.486 41.6816 19.8871C41.8838 20.2848 42.1639 20.5881 42.5218 20.7969C42.8798 21.0024 43.2958 21.1051 43.7697 21.1051C44.0779 21.1051 44.3564 21.062 44.6049 20.9759C44.8568 20.8864 45.0739 20.7538 45.2562 20.5781C45.4385 20.3991 45.5794 20.1771 45.6788 19.9119L46.8123 20.2301C46.693 20.6146 46.4925 20.9527 46.2108 21.2443C45.929 21.5327 45.581 21.758 45.1667 21.9205C44.7524 22.0795 44.2868 22.1591 43.7697 22.1591ZM49.8897 11.8182V22H48.7164V11.8182H49.8897Z" fill="white" fill-opacity="0.95"/>
</g>
<rect x="77.5" y="5.5" width="55" height="23" rx="3.5" fill="#102B2A"/>
<rect x="77.5" y="5.5" width="55" height="23" rx="3.5" stroke="#30C9B0"/>
<path d="M88.2681 22V11.8182H89.5011V20.9062H94.234V22H88.2681ZM98.2312 22.179C97.7473 22.179 97.3081 22.0878 96.9137 21.9055C96.5193 21.7199 96.2061 21.4531 95.9741 21.1051C95.7421 20.7538 95.6261 20.3295 95.6261 19.8324C95.6261 19.3949 95.7122 19.0402 95.8846 18.7685C96.0569 18.4934 96.2873 18.2779 96.5756 18.1222C96.864 17.9664 97.1822 17.8504 97.5302 17.7741C97.8815 17.6946 98.2345 17.6316 98.5891 17.5852C99.0531 17.5256 99.4293 17.4808 99.7177 17.451C100.009 17.4179 100.221 17.3632 100.354 17.2869C100.49 17.2107 100.558 17.0781 100.558 16.8892V16.8494C100.558 16.3589 100.424 15.9777 100.155 15.706C99.89 15.4342 99.4873 15.2983 98.9471 15.2983C98.387 15.2983 97.9478 15.4209 97.6296 15.6662C97.3114 15.9115 97.0877 16.1733 96.9585 16.4517L95.8448 16.054C96.0437 15.59 96.3088 15.2287 96.6403 14.9702C96.975 14.7083 97.3396 14.526 97.734 14.4233C98.1317 14.3172 98.5228 14.2642 98.9073 14.2642C99.1526 14.2642 99.4343 14.294 99.7525 14.3537C100.074 14.41 100.384 14.5277 100.682 14.7067C100.984 14.8857 101.234 15.1558 101.433 15.517C101.632 15.8783 101.731 16.3622 101.731 16.9688V22H100.558V20.9659H100.498C100.419 21.1316 100.286 21.3089 100.1 21.4979C99.9149 21.6868 99.668 21.8475 99.3597 21.9801C99.0515 22.1127 98.6753 22.179 98.2312 22.179ZM98.4102 21.125C98.8742 21.125 99.2653 21.0339 99.5835 20.8516C99.9049 20.6693 100.147 20.4339 100.309 20.1456C100.475 19.8572 100.558 19.554 100.558 19.2358V18.1619C100.508 18.2216 100.399 18.2763 100.23 18.326C100.064 18.3724 99.8718 18.4138 99.6531 18.4503C99.4376 18.4834 99.2272 18.5133 99.0217 18.5398C98.8195 18.563 98.6554 18.5829 98.5295 18.5994C98.2246 18.6392 97.9395 18.7038 97.6744 18.7933C97.4125 18.8795 97.2004 19.0104 97.038 19.1861C96.8789 19.3584 96.7994 19.5937 96.7994 19.892C96.7994 20.2997 96.9502 20.608 97.2518 20.8168C97.5567 21.0223 97.9428 21.125 98.4102 21.125ZM104.032 22V11.8182H105.205V15.5767H105.305C105.391 15.4441 105.51 15.2751 105.662 15.0696C105.818 14.8608 106.04 14.6752 106.329 14.5128C106.62 14.3471 107.015 14.2642 107.512 14.2642C108.155 14.2642 108.722 14.425 109.212 14.7464C109.703 15.0679 110.086 15.5237 110.361 16.1136C110.636 16.7036 110.773 17.3996 110.773 18.2017C110.773 19.0104 110.636 19.7114 110.361 20.3047C110.086 20.8946 109.704 21.352 109.217 21.6768C108.73 21.9983 108.168 22.1591 107.532 22.1591C107.041 22.1591 106.648 22.0779 106.354 21.9155C106.059 21.7498 105.831 21.5625 105.672 21.3537C105.513 21.1416 105.391 20.9659 105.305 20.8267H105.165V22H104.032ZM105.185 18.1818C105.185 18.7585 105.27 19.2673 105.439 19.7081C105.608 20.1456 105.855 20.4886 106.18 20.7372C106.504 20.9825 106.902 21.1051 107.373 21.1051C107.863 21.1051 108.273 20.9759 108.601 20.7173C108.932 20.4555 109.181 20.1042 109.346 19.6634C109.515 19.2192 109.6 18.7254 109.6 18.1818C109.6 17.6449 109.517 17.161 109.351 16.7301C109.189 16.2959 108.942 15.9529 108.611 15.701C108.282 15.4458 107.87 15.3182 107.373 15.3182C106.895 15.3182 106.494 15.4392 106.17 15.6811C105.845 15.9197 105.599 16.2545 105.434 16.6854C105.268 17.1129 105.185 17.6117 105.185 18.1818ZM115.77 22.1591C115.034 22.1591 114.399 21.9967 113.866 21.6719C113.335 21.3438 112.926 20.8864 112.638 20.2997C112.353 19.7098 112.21 19.0237 112.21 18.2415C112.21 17.4593 112.353 16.7699 112.638 16.1733C112.926 15.5734 113.327 15.1061 113.841 14.7713C114.358 14.4332 114.961 14.2642 115.65 14.2642C116.048 14.2642 116.441 14.3305 116.829 14.4631C117.216 14.5956 117.569 14.8111 117.888 15.1094C118.206 15.4044 118.459 15.7955 118.648 16.2827C118.837 16.7699 118.932 17.3698 118.932 18.0824V18.5795H113.045V17.5653H117.738C117.738 17.1345 117.652 16.75 117.48 16.4119C117.311 16.0739 117.069 15.8071 116.754 15.6115C116.443 15.416 116.075 15.3182 115.65 15.3182C115.183 15.3182 114.779 15.4342 114.437 15.6662C114.099 15.8949 113.839 16.1932 113.657 16.5611C113.474 16.929 113.383 17.3234 113.383 17.7443V18.4205C113.383 18.9972 113.483 19.486 113.682 19.8871C113.884 20.2848 114.164 20.5881 114.522 20.7969C114.88 21.0024 115.296 21.1051 115.77 21.1051C116.078 21.1051 116.356 21.062 116.605 20.9759C116.857 20.8864 117.074 20.7538 117.256 20.5781C117.439 20.3991 117.579 20.1771 117.679 19.9119L118.812 20.2301C118.693 20.6146 118.492 20.9527 118.211 21.2443C117.929 21.5327 117.581 21.758 117.167 21.9205C116.752 22.0795 116.287 22.1591 115.77 22.1591ZM121.89 11.8182V22H120.716V11.8182H121.89Z" fill="white" fill-opacity="0.95"/>
<rect x="149.5" y="5.5" width="55" height="23" rx="3.5" fill="#102B2A"/>
<rect x="149.5" y="5.5" width="55" height="23" rx="3.5" stroke="#30C9B0"/>
<path d="M160.268 22V11.8182H161.501V20.9062H166.234V22H160.268ZM170.231 22.179C169.747 22.179 169.308 22.0878 168.914 21.9055C168.519 21.7199 168.206 21.4531 167.974 21.1051C167.742 20.7538 167.626 20.3295 167.626 19.8324C167.626 19.3949 167.712 19.0402 167.885 18.7685C168.057 18.4934 168.287 18.2779 168.576 18.1222C168.864 17.9664 169.182 17.8504 169.53 17.7741C169.882 17.6946 170.234 17.6316 170.589 17.5852C171.053 17.5256 171.429 17.4808 171.718 17.451C172.009 17.4179 172.221 17.3632 172.354 17.2869C172.49 17.2107 172.558 17.0781 172.558 16.8892V16.8494C172.558 16.3589 172.424 15.9777 172.155 15.706C171.89 15.4342 171.487 15.2983 170.947 15.2983C170.387 15.2983 169.948 15.4209 169.63 15.6662C169.311 15.9115 169.088 16.1733 168.958 16.4517L167.845 16.054C168.044 15.59 168.309 15.2287 168.64 14.9702C168.975 14.7083 169.34 14.526 169.734 14.4233C170.132 14.3172 170.523 14.2642 170.907 14.2642C171.153 14.2642 171.434 14.294 171.752 14.3537C172.074 14.41 172.384 14.5277 172.682 14.7067C172.984 14.8857 173.234 15.1558 173.433 15.517C173.632 15.8783 173.731 16.3622 173.731 16.9688V22H172.558V20.9659H172.498C172.419 21.1316 172.286 21.3089 172.1 21.4979C171.915 21.6868 171.668 21.8475 171.36 21.9801C171.051 22.1127 170.675 22.179 170.231 22.179ZM170.41 21.125C170.874 21.125 171.265 21.0339 171.583 20.8516C171.905 20.6693 172.147 20.4339 172.309 20.1456C172.475 19.8572 172.558 19.554 172.558 19.2358V18.1619C172.508 18.2216 172.399 18.2763 172.23 18.326C172.064 18.3724 171.872 18.4138 171.653 18.4503C171.438 18.4834 171.227 18.5133 171.022 18.5398C170.819 18.563 170.655 18.5829 170.529 18.5994C170.225 18.6392 169.94 18.7038 169.674 18.7933C169.413 18.8795 169.2 19.0104 169.038 19.1861C168.879 19.3584 168.799 19.5937 168.799 19.892C168.799 20.2997 168.95 20.608 169.252 20.8168C169.557 21.0223 169.943 21.125 170.41 21.125ZM176.032 22V11.8182H177.205V15.5767H177.305C177.391 15.4441 177.51 15.2751 177.662 15.0696C177.818 14.8608 178.04 14.6752 178.329 14.5128C178.62 14.3471 179.015 14.2642 179.512 14.2642C180.155 14.2642 180.722 14.425 181.212 14.7464C181.703 15.0679 182.086 15.5237 182.361 16.1136C182.636 16.7036 182.773 17.3996 182.773 18.2017C182.773 19.0104 182.636 19.7114 182.361 20.3047C182.086 20.8946 181.704 21.352 181.217 21.6768C180.73 21.9983 180.168 22.1591 179.532 22.1591C179.041 22.1591 178.648 22.0779 178.354 21.9155C178.059 21.7498 177.831 21.5625 177.672 21.3537C177.513 21.1416 177.391 20.9659 177.305 20.8267H177.165V22H176.032ZM177.185 18.1818C177.185 18.7585 177.27 19.2673 177.439 19.7081C177.608 20.1456 177.855 20.4886 178.18 20.7372C178.504 20.9825 178.902 21.1051 179.373 21.1051C179.863 21.1051 180.273 20.9759 180.601 20.7173C180.932 20.4555 181.181 20.1042 181.346 19.6634C181.515 19.2192 181.6 18.7254 181.6 18.1818C181.6 17.6449 181.517 17.161 181.351 16.7301C181.189 16.2959 180.942 15.9529 180.611 15.701C180.282 15.4458 179.87 15.3182 179.373 15.3182C178.895 15.3182 178.494 15.4392 178.17 15.6811C177.845 15.9197 177.599 16.2545 177.434 16.6854C177.268 17.1129 177.185 17.6117 177.185 18.1818ZM187.77 22.1591C187.034 22.1591 186.399 21.9967 185.866 21.6719C185.335 21.3438 184.926 20.8864 184.638 20.2997C184.353 19.7098 184.21 19.0237 184.21 18.2415C184.21 17.4593 184.353 16.7699 184.638 16.1733C184.926 15.5734 185.327 15.1061 185.841 14.7713C186.358 14.4332 186.961 14.2642 187.65 14.2642C188.048 14.2642 188.441 14.3305 188.829 14.4631C189.216 14.5956 189.569 14.8111 189.888 15.1094C190.206 15.4044 190.459 15.7955 190.648 16.2827C190.837 16.7699 190.932 17.3698 190.932 18.0824V18.5795H185.045V17.5653H189.738C189.738 17.1345 189.652 16.75 189.48 16.4119C189.311 16.0739 189.069 15.8071 188.754 15.6115C188.443 15.416 188.075 15.3182 187.65 15.3182C187.183 15.3182 186.779 15.4342 186.437 15.6662C186.099 15.8949 185.839 16.1932 185.657 16.5611C185.474 16.929 185.383 17.3234 185.383 17.7443V18.4205C185.383 18.9972 185.483 19.486 185.682 19.8871C185.884 20.2848 186.164 20.5881 186.522 20.7969C186.88 21.0024 187.296 21.1051 187.77 21.1051C188.078 21.1051 188.356 21.062 188.605 20.9759C188.857 20.8864 189.074 20.7538 189.256 20.5781C189.439 20.3991 189.579 20.1771 189.679 19.9119L190.812 20.2301C190.693 20.6146 190.492 20.9527 190.211 21.2443C189.929 21.5327 189.581 21.758 189.167 21.9205C188.752 22.0795 188.287 22.1591 187.77 22.1591ZM193.89 11.8182V22H192.716V11.8182H193.89Z" fill="white" fill-opacity="0.95"/>
<defs>
<filter id="filter0_ddd_144_7111" x="0" y="0" width="66" height="34" filterUnits="userSpaceOnUse" color-interpolation-filters="sRGB">
<feFlood flood-opacity="0" result="BackgroundImageFix"/>
<feColorMatrix in="SourceAlpha" type="matrix" values="0 0 0 0 0 0 0 0 0 0 0 0 0 0 0 0 0 0 127 0" result="hardAlpha"/>
<feMorphology radius="4" operator="dilate" in="SourceAlpha" result="effect1_dropShadow_144_7111"/>
<feOffset/>
<feComposite in2="hardAlpha" operator="out"/>
<feColorMatrix type="matrix" values="0 0 0 0 0.392157 0 0 0 0 0.705882 0 0 0 0 0.980392 0 0 0 1 0"/>
<feBlend mode="normal" in2="BackgroundImageFix" result="effect1_dropShadow_144_7111"/>
<feColorMatrix in="SourceAlpha" type="matrix" values="0 0 0 0 0 0 0 0 0 0 0 0 0 0 0 0 0 0 127 0" result="hardAlpha"/>
<feMorphology radius="5" operator="dilate" in="SourceAlpha" result="effect2_dropShadow_144_7111"/>
<feOffset/>
<feComposite in2="hardAlpha" operator="out"/>
<feColorMatrix type="matrix" values="0 0 0 0 0.392157 0 0 0 0 0.705882 0 0 0 0 0.980392 0 0 0 0.3 0"/>
<feBlend mode="normal" in2="effect1_dropShadow_144_7111" result="effect2_dropShadow_144_7111"/>
<feColorMatrix in="SourceAlpha" type="matrix" values="0 0 0 0 0 0 0 0 0 0 0 0 0 0 0 0 0 0 127 0" result="hardAlpha"/>
<feMorphology radius="2" operator="dilate" in="SourceAlpha" result="effect3_dropShadow_144_7111"/>
<feOffset/>
<feComposite in2="hardAlpha" operator="out"/>
<feColorMatrix type="matrix" values="0 0 0 0 0 0 0 0 0 0 0 0 0 0 0 0 0 0 1 0"/>
<feBlend mode="normal" in2="effect2_dropShadow_144_7111" result="effect3_dropShadow_144_7111"/>
<feBlend mode="normal" in="SourceGraphic" in2="effect3_dropShadow_144_7111" result="shape"/>
</filter>
</defs>
</svg>
