<svg width="1300" height="68" viewBox="0 0 1300 68" fill="none" xmlns="http://www.w3.org/2000/svg">
<rect width="1300" height="68" fill="#1A1A1A"/>
<mask id="path-1-inside-1_1508_5582" fill="white">
<path d="M0 0H433.333V68H0V0Z"/>
</mask>
<path d="M433.333 68V69H434.333V68H433.333ZM432.333 0V68H434.333V0H432.333ZM433.333 67H0V69H433.333V67Z" fill="#707070" mask="url(#path-1-inside-1_1508_5582)"/>
<mask id="path-3-inside-2_1508_5582" fill="white">
<path d="M433.333 0H866.667V68H433.333V0Z"/>
</mask>
<path d="M866.667 0H867.667V-1H866.667V0ZM866.667 68V69H867.667V68H866.667ZM433.333 1H866.667V-1H433.333V1ZM865.667 0V68H867.667V0H865.667ZM866.667 67H433.333V69H866.667V67Z" fill="#707070" mask="url(#path-3-inside-2_1508_5582)"/>
<path d="M471.106 31.2727C471.038 30.697 470.761 30.25 470.276 29.9318C469.792 29.6136 469.197 29.4545 468.492 29.4545C467.977 29.4545 467.526 29.5379 467.14 29.7045C466.757 29.8712 466.458 30.1004 466.242 30.392C466.03 30.6837 465.924 31.0152 465.924 31.3864C465.924 31.697 465.998 31.964 466.146 32.1875C466.297 32.4072 466.49 32.5909 466.725 32.7386C466.96 32.8826 467.206 33.0019 467.464 33.0966C467.722 33.1875 467.958 33.2614 468.174 33.3182L469.356 33.6364C469.659 33.7159 469.996 33.8258 470.367 33.9659C470.742 34.1061 471.1 34.2973 471.441 34.5398C471.786 34.7784 472.07 35.0852 472.293 35.4602C472.517 35.8352 472.629 36.2955 472.629 36.8409C472.629 37.4697 472.464 38.0379 472.134 38.5455C471.809 39.053 471.331 39.4564 470.703 39.7557C470.078 40.0549 469.318 40.2045 468.424 40.2045C467.591 40.2045 466.869 40.0701 466.259 39.8011C465.653 39.5322 465.176 39.1572 464.828 38.6761C464.483 38.1951 464.288 37.6364 464.242 37H465.697C465.735 37.4394 465.882 37.803 466.14 38.0909C466.401 38.375 466.731 38.5871 467.129 38.7273C467.53 38.8636 467.962 38.9318 468.424 38.9318C468.962 38.9318 469.445 38.8447 469.873 38.6705C470.301 38.4924 470.64 38.2462 470.89 37.9318C471.14 37.6136 471.265 37.2424 471.265 36.8182C471.265 36.4318 471.157 36.1174 470.941 35.875C470.725 35.6326 470.441 35.4356 470.089 35.2841C469.737 35.1326 469.356 35 468.947 34.8864L467.515 34.4773C466.606 34.2159 465.886 33.8428 465.356 33.358C464.826 32.8731 464.561 32.2386 464.561 31.4545C464.561 30.803 464.737 30.2348 465.089 29.75C465.445 29.2614 465.922 28.8826 466.521 28.6136C467.123 28.3409 467.795 28.2045 468.538 28.2045C469.288 28.2045 469.954 28.339 470.538 28.608C471.121 28.8731 471.583 29.2367 471.924 29.6989C472.269 30.161 472.451 30.6856 472.47 31.2727H471.106ZM474.764 43.2727V31.2727H476.059V32.6591H476.218C476.317 32.5076 476.453 32.3144 476.627 32.0795C476.805 31.8409 477.059 31.6288 477.389 31.4432C477.722 31.2538 478.173 31.1591 478.741 31.1591C479.476 31.1591 480.123 31.3428 480.684 31.7102C481.245 32.0777 481.682 32.5985 481.997 33.2727C482.311 33.947 482.468 34.7424 482.468 35.6591C482.468 36.5833 482.311 37.3845 481.997 38.0625C481.682 38.7367 481.247 39.2595 480.69 39.6307C480.133 39.9981 479.491 40.1818 478.764 40.1818C478.203 40.1818 477.754 40.089 477.417 39.9034C477.08 39.714 476.82 39.5 476.639 39.2614C476.457 39.0189 476.317 38.8182 476.218 38.6591H476.105V43.2727H474.764ZM476.082 35.6364C476.082 36.2955 476.178 36.8769 476.372 37.3807C476.565 37.8807 476.847 38.2727 477.218 38.5568C477.589 38.8371 478.044 38.9773 478.582 38.9773C479.142 38.9773 479.61 38.8295 479.985 38.5341C480.364 38.2348 480.648 37.8333 480.838 37.3295C481.031 36.822 481.127 36.2576 481.127 35.6364C481.127 35.0227 481.033 34.4697 480.843 33.9773C480.658 33.4811 480.375 33.089 479.997 32.8011C479.622 32.5095 479.15 32.3636 478.582 32.3636C478.036 32.3636 477.578 32.5019 477.207 32.7784C476.836 33.0511 476.555 33.4337 476.366 33.9261C476.177 34.4148 476.082 34.9848 476.082 35.6364ZM484.514 40V31.2727H485.855V40H484.514ZM485.195 29.8182C484.934 29.8182 484.709 29.7292 484.519 29.5511C484.334 29.3731 484.241 29.1591 484.241 28.9091C484.241 28.6591 484.334 28.4451 484.519 28.267C484.709 28.089 484.934 28 485.195 28C485.457 28 485.68 28.089 485.866 28.267C486.055 28.4451 486.15 28.6591 486.15 28.9091C486.15 29.1591 486.055 29.3731 485.866 29.5511C485.68 29.7292 485.457 29.8182 485.195 29.8182ZM489.651 34.75V40H488.311V31.2727H489.606V32.6364H489.72C489.924 32.1932 490.235 31.8371 490.651 31.5682C491.068 31.2955 491.606 31.1591 492.265 31.1591C492.856 31.1591 493.373 31.2803 493.816 31.5227C494.259 31.7614 494.604 32.125 494.85 32.6136C495.097 33.0985 495.22 33.7121 495.22 34.4545V40H493.879V34.5455C493.879 33.8598 493.701 33.3258 493.345 32.9432C492.989 32.5568 492.5 32.3636 491.879 32.3636C491.451 32.3636 491.068 32.4564 490.731 32.642C490.398 32.8277 490.134 33.0985 489.941 33.4545C489.748 33.8106 489.651 34.2424 489.651 34.75ZM499.011 34.75V40H497.67V31.2727H498.965V32.6364H499.079C499.284 32.1932 499.594 31.8371 500.011 31.5682C500.427 31.2955 500.965 31.1591 501.624 31.1591C502.215 31.1591 502.732 31.2803 503.176 31.5227C503.619 31.7614 503.963 32.125 504.21 32.6136C504.456 33.0985 504.579 33.7121 504.579 34.4545V40H503.238V34.5455C503.238 33.8598 503.06 33.3258 502.704 32.9432C502.348 32.5568 501.859 32.3636 501.238 32.3636C500.81 32.3636 500.427 32.4564 500.09 32.642C499.757 32.8277 499.494 33.0985 499.301 33.4545C499.107 33.8106 499.011 34.2424 499.011 34.75ZM510.688 40.1818C509.847 40.1818 509.122 39.9962 508.512 39.625C507.906 39.25 507.438 38.7273 507.109 38.0568C506.783 37.3826 506.62 36.5985 506.62 35.7045C506.62 34.8106 506.783 34.0227 507.109 33.3409C507.438 32.6553 507.897 32.1212 508.484 31.7386C509.075 31.3523 509.764 31.1591 510.552 31.1591C511.007 31.1591 511.455 31.2348 511.899 31.3864C512.342 31.5379 512.745 31.7841 513.109 32.125C513.472 32.4621 513.762 32.9091 513.978 33.4659C514.194 34.0227 514.302 34.7083 514.302 35.5227V36.0909H507.575V34.9318H512.938C512.938 34.4394 512.84 34 512.643 33.6136C512.45 33.2273 512.173 32.9223 511.813 32.6989C511.457 32.4754 511.037 32.3636 510.552 32.3636C510.018 32.3636 509.556 32.4962 509.166 32.7614C508.779 33.0227 508.482 33.3636 508.274 33.7841C508.065 34.2045 507.961 34.6553 507.961 35.1364V35.9091C507.961 36.5682 508.075 37.1269 508.302 37.5852C508.533 38.0398 508.853 38.3864 509.262 38.625C509.671 38.8598 510.147 38.9773 510.688 38.9773C511.041 38.9773 511.359 38.928 511.643 38.8295C511.931 38.7273 512.179 38.5758 512.387 38.375C512.596 38.1705 512.757 37.9167 512.87 37.6136L514.166 37.9773C514.029 38.4167 513.8 38.803 513.478 39.1364C513.156 39.4659 512.758 39.7235 512.285 39.9091C511.811 40.0909 511.279 40.1818 510.688 40.1818ZM516.342 40V31.2727H517.637V32.5909H517.728C517.887 32.1591 518.175 31.8087 518.592 31.5398C519.008 31.2708 519.478 31.1364 520.001 31.1364C520.099 31.1364 520.222 31.1383 520.37 31.142C520.518 31.1458 520.63 31.1515 520.705 31.1591V32.5227C520.66 32.5114 520.556 32.4943 520.393 32.4716C520.234 32.4451 520.065 32.4318 519.887 32.4318C519.463 32.4318 519.084 32.5208 518.751 32.6989C518.421 32.8731 518.16 33.1155 517.967 33.4261C517.777 33.733 517.683 34.0833 517.683 34.4773V40H516.342ZM526.795 43.2727V31.2727H528.09V32.6591H528.249C528.348 32.5076 528.484 32.3144 528.659 32.0795C528.837 31.8409 529.09 31.6288 529.42 31.4432C529.753 31.2538 530.204 31.1591 530.772 31.1591C531.507 31.1591 532.155 31.3428 532.715 31.7102C533.276 32.0777 533.713 32.5985 534.028 33.2727C534.342 33.947 534.499 34.7424 534.499 35.6591C534.499 36.5833 534.342 37.3845 534.028 38.0625C533.713 38.7367 533.278 39.2595 532.721 39.6307C532.164 39.9981 531.522 40.1818 530.795 40.1818C530.234 40.1818 529.785 40.089 529.448 39.9034C529.111 39.714 528.852 39.5 528.67 39.2614C528.488 39.0189 528.348 38.8182 528.249 38.6591H528.136V43.2727H526.795ZM528.113 35.6364C528.113 36.2955 528.21 36.8769 528.403 37.3807C528.596 37.8807 528.878 38.2727 529.249 38.5568C529.621 38.8371 530.075 38.9773 530.613 38.9773C531.174 38.9773 531.641 38.8295 532.016 38.5341C532.395 38.2348 532.679 37.8333 532.869 37.3295C533.062 36.822 533.159 36.2576 533.159 35.6364C533.159 35.0227 533.064 34.4697 532.874 33.9773C532.689 33.4811 532.407 33.089 532.028 32.8011C531.653 32.5095 531.181 32.3636 530.613 32.3636C530.068 32.3636 529.609 32.5019 529.238 32.7784C528.867 33.0511 528.587 33.4337 528.397 33.9261C528.208 34.4148 528.113 34.9848 528.113 35.6364ZM536.545 40V31.2727H537.84V32.5909H537.931C538.09 32.1591 538.378 31.8087 538.795 31.5398C539.212 31.2708 539.681 31.1364 540.204 31.1364C540.302 31.1364 540.426 31.1383 540.573 31.142C540.721 31.1458 540.833 31.1515 540.909 31.1591V32.5227C540.863 32.5114 540.759 32.4943 540.596 32.4716C540.437 32.4451 540.268 32.4318 540.09 32.4318C539.666 32.4318 539.287 32.5208 538.954 32.6989C538.624 32.8731 538.363 33.1155 538.17 33.4261C537.981 33.733 537.886 34.0833 537.886 34.4773V40H536.545ZM545.778 40.1818C544.99 40.1818 544.299 39.9943 543.704 39.6193C543.113 39.2443 542.651 38.7197 542.318 38.0455C541.988 37.3712 541.823 36.5833 541.823 35.6818C541.823 34.7727 541.988 33.9792 542.318 33.3011C542.651 32.6231 543.113 32.0966 543.704 31.7216C544.299 31.3466 544.99 31.1591 545.778 31.1591C546.566 31.1591 547.255 31.3466 547.846 31.7216C548.441 32.0966 548.903 32.6231 549.232 33.3011C549.566 33.9792 549.732 34.7727 549.732 35.6818C549.732 36.5833 549.566 37.3712 549.232 38.0455C548.903 38.7197 548.441 39.2443 547.846 39.6193C547.255 39.9943 546.566 40.1818 545.778 40.1818ZM545.778 38.9773C546.376 38.9773 546.869 38.8239 547.255 38.517C547.641 38.2102 547.927 37.8068 548.113 37.3068C548.299 36.8068 548.391 36.2652 548.391 35.6818C548.391 35.0985 548.299 34.5549 548.113 34.0511C547.927 33.5473 547.641 33.1402 547.255 32.8295C546.869 32.5189 546.376 32.3636 545.778 32.3636C545.179 32.3636 544.687 32.5189 544.301 32.8295C543.914 33.1402 543.628 33.5473 543.443 34.0511C543.257 34.5549 543.164 35.0985 543.164 35.6818C543.164 36.2652 543.257 36.8068 543.443 37.3068C543.628 37.8068 543.914 38.2102 544.301 38.517C544.687 38.8239 545.179 38.9773 545.778 38.9773ZM555.302 43.4545C554.654 43.4545 554.097 43.3712 553.632 43.2045C553.166 43.0417 552.777 42.8258 552.467 42.5568C552.16 42.2917 551.916 42.0076 551.734 41.7045L552.802 40.9545C552.923 41.1136 553.077 41.2955 553.262 41.5C553.448 41.7083 553.702 41.8883 554.024 42.0398C554.349 42.1951 554.775 42.2727 555.302 42.2727C556.007 42.2727 556.588 42.1023 557.046 41.7614C557.505 41.4205 557.734 40.8864 557.734 40.1591V38.3864H557.62C557.522 38.5455 557.382 38.7424 557.2 38.9773C557.022 39.2083 556.764 39.4148 556.427 39.5966C556.094 39.7746 555.643 39.8636 555.075 39.8636C554.37 39.8636 553.738 39.697 553.177 39.3636C552.62 39.0303 552.179 38.5455 551.853 37.9091C551.531 37.2727 551.37 36.5 551.37 35.5909C551.37 34.697 551.527 33.9186 551.842 33.2557C552.156 32.589 552.594 32.0739 553.154 31.7102C553.715 31.3428 554.363 31.1591 555.097 31.1591C555.666 31.1591 556.116 31.2538 556.45 31.4432C556.787 31.6288 557.044 31.8409 557.222 32.0795C557.404 32.3144 557.544 32.5076 557.643 32.6591H557.779V31.2727H559.075V40.25C559.075 41 558.904 41.6098 558.563 42.0795C558.226 42.553 557.772 42.8996 557.2 43.1193C556.632 43.3428 555.999 43.4545 555.302 43.4545ZM555.257 38.6591C555.794 38.6591 556.249 38.536 556.62 38.2898C556.991 38.0436 557.274 37.6894 557.467 37.2273C557.66 36.7652 557.757 36.2121 557.757 35.5682C557.757 34.9394 557.662 34.3845 557.472 33.9034C557.283 33.4223 557.003 33.0455 556.632 32.7727C556.26 32.5 555.802 32.3636 555.257 32.3636C554.688 32.3636 554.215 32.5076 553.836 32.7955C553.461 33.0833 553.179 33.4697 552.99 33.9545C552.804 34.4394 552.711 34.9773 552.711 35.5682C552.711 36.1742 552.806 36.7102 552.995 37.1761C553.188 37.6383 553.472 38.0019 553.847 38.267C554.226 38.5284 554.696 38.6591 555.257 38.6591ZM561.529 40V31.2727H562.825V32.5909H562.916C563.075 32.1591 563.363 31.8087 563.779 31.5398C564.196 31.2708 564.666 31.1364 565.188 31.1364C565.287 31.1364 565.41 31.1383 565.558 31.142C565.705 31.1458 565.817 31.1515 565.893 31.1591V32.5227C565.847 32.5114 565.743 32.4943 565.58 32.4716C565.421 32.4451 565.253 32.4318 565.075 32.4318C564.65 32.4318 564.272 32.5208 563.938 32.6989C563.609 32.8731 563.347 33.1155 563.154 33.4261C562.965 33.733 562.87 34.0833 562.87 34.4773V40H561.529ZM570.876 40.1818C570.035 40.1818 569.31 39.9962 568.7 39.625C568.094 39.25 567.626 38.7273 567.296 38.0568C566.971 37.3826 566.808 36.5985 566.808 35.7045C566.808 34.8106 566.971 34.0227 567.296 33.3409C567.626 32.6553 568.084 32.1212 568.671 31.7386C569.262 31.3523 569.952 31.1591 570.74 31.1591C571.194 31.1591 571.643 31.2348 572.086 31.3864C572.529 31.5379 572.933 31.7841 573.296 32.125C573.66 32.4621 573.95 32.9091 574.166 33.4659C574.382 34.0227 574.49 34.7083 574.49 35.5227V36.0909H567.762V34.9318H573.126C573.126 34.4394 573.027 34 572.83 33.6136C572.637 33.2273 572.361 32.9223 572.001 32.6989C571.645 32.4754 571.224 32.3636 570.74 32.3636C570.205 32.3636 569.743 32.4962 569.353 32.7614C568.967 33.0227 568.669 33.3636 568.461 33.7841C568.253 34.2045 568.149 34.6553 568.149 35.1364V35.9091C568.149 36.5682 568.262 37.1269 568.49 37.5852C568.721 38.0398 569.041 38.3864 569.45 38.625C569.859 38.8598 570.334 38.9773 570.876 38.9773C571.228 38.9773 571.546 38.928 571.83 38.8295C572.118 38.7273 572.366 38.5758 572.575 38.375C572.783 38.1705 572.944 37.9167 573.058 37.6136L574.353 37.9773C574.217 38.4167 573.988 38.803 573.666 39.1364C573.344 39.4659 572.946 39.7235 572.472 39.9091C571.999 40.0909 571.467 40.1818 570.876 40.1818ZM582.711 33.2273L581.507 33.5682C581.431 33.3674 581.319 33.1723 581.171 32.983C581.027 32.7898 580.83 32.6307 580.58 32.5057C580.33 32.3807 580.01 32.3182 579.62 32.3182C579.086 32.3182 578.641 32.4413 578.285 32.6875C577.933 32.9299 577.757 33.2386 577.757 33.6136C577.757 33.947 577.878 34.2102 578.12 34.4034C578.363 34.5966 578.741 34.7576 579.257 34.8864L580.552 35.2045C581.332 35.3939 581.914 35.6837 582.296 36.0739C582.679 36.4602 582.87 36.9583 582.87 37.5682C582.87 38.0682 582.726 38.5152 582.438 38.9091C582.154 39.303 581.757 39.6136 581.245 39.8409C580.734 40.0682 580.139 40.1818 579.461 40.1818C578.571 40.1818 577.834 39.9886 577.251 39.6023C576.668 39.2159 576.298 38.6515 576.143 37.9091L577.416 37.5909C577.537 38.0606 577.766 38.4129 578.103 38.6477C578.444 38.8826 578.889 39 579.438 39C580.063 39 580.56 38.8674 580.927 38.6023C581.298 38.3333 581.484 38.0114 581.484 37.6364C581.484 37.3333 581.378 37.0795 581.166 36.875C580.954 36.6667 580.628 36.5114 580.188 36.4091L578.734 36.0682C577.935 35.8788 577.347 35.5852 576.972 35.1875C576.601 34.786 576.416 34.2841 576.416 33.6818C576.416 33.1894 576.554 32.7538 576.83 32.375C577.111 31.9962 577.491 31.6989 577.972 31.483C578.457 31.267 579.007 31.1591 579.62 31.1591C580.484 31.1591 581.162 31.3485 581.654 31.7273C582.15 32.1061 582.503 32.6061 582.711 33.2273ZM591.07 33.2273L589.866 33.5682C589.79 33.3674 589.678 33.1723 589.531 32.983C589.387 32.7898 589.19 32.6307 588.94 32.5057C588.69 32.3807 588.37 32.3182 587.98 32.3182C587.445 32.3182 587 32.4413 586.644 32.6875C586.292 32.9299 586.116 33.2386 586.116 33.6136C586.116 33.947 586.237 34.2102 586.48 34.4034C586.722 34.5966 587.101 34.7576 587.616 34.8864L588.911 35.2045C589.692 35.3939 590.273 35.6837 590.656 36.0739C591.038 36.4602 591.23 36.9583 591.23 37.5682C591.23 38.0682 591.086 38.5152 590.798 38.9091C590.514 39.303 590.116 39.6136 589.605 39.8409C589.093 40.0682 588.498 40.1818 587.82 40.1818C586.93 40.1818 586.194 39.9886 585.61 39.6023C585.027 39.2159 584.658 38.6515 584.502 37.9091L585.775 37.5909C585.896 38.0606 586.125 38.4129 586.463 38.6477C586.803 38.8826 587.248 39 587.798 39C588.423 39 588.919 38.8674 589.286 38.6023C589.658 38.3333 589.843 38.0114 589.843 37.6364C589.843 37.3333 589.737 37.0795 589.525 36.875C589.313 36.6667 588.987 36.5114 588.548 36.4091L587.093 36.0682C586.294 35.8788 585.707 35.5852 585.332 35.1875C584.961 34.786 584.775 34.2841 584.775 33.6818C584.775 33.1894 584.913 32.7538 585.19 32.375C585.47 31.9962 585.851 31.6989 586.332 31.483C586.817 31.267 587.366 31.1591 587.98 31.1591C588.843 31.1591 589.521 31.3485 590.014 31.7273C590.51 32.1061 590.862 32.6061 591.07 33.2273Z" fill="white" fill-opacity="0.95"/>
<mask id="path-6-inside-3_1508_5582" fill="white">
<path d="M866.667 0H1300V68H866.667V0Z"/>
</mask>
<path d="M1300 68V69H1301V68H1300ZM1299 0V68H1301V0H1299ZM1300 67H866.667V69H1300V67Z" fill="white" fill-opacity="0.3" mask="url(#path-6-inside-3_1508_5582)"/>
<path d="M901.439 40.1818C900.621 40.1818 899.917 39.9886 899.326 39.6023C898.735 39.2159 898.28 38.6837 897.962 38.0057C897.644 37.3277 897.485 36.553 897.485 35.6818C897.485 34.7955 897.648 34.0133 897.973 33.3352C898.303 32.6534 898.761 32.1212 899.348 31.7386C899.939 31.3523 900.629 31.1591 901.417 31.1591C902.03 31.1591 902.583 31.2727 903.076 31.5C903.568 31.7273 903.971 32.0455 904.286 32.4545C904.6 32.8636 904.795 33.3409 904.871 33.8864H903.53C903.428 33.4886 903.201 33.1364 902.848 32.8295C902.5 32.5189 902.03 32.3636 901.439 32.3636C900.917 32.3636 900.458 32.5 900.064 32.7727C899.674 33.0417 899.369 33.4223 899.149 33.9148C898.934 34.4034 898.826 34.9773 898.826 35.6364C898.826 36.3106 898.932 36.8977 899.144 37.3977C899.36 37.8977 899.663 38.286 900.053 38.5625C900.447 38.839 900.909 38.9773 901.439 38.9773C901.788 38.9773 902.104 38.9167 902.388 38.7955C902.672 38.6742 902.913 38.5 903.11 38.2727C903.307 38.0455 903.447 37.7727 903.53 37.4545H904.871C904.795 37.9697 904.608 38.4337 904.309 38.8466C904.013 39.2557 903.621 39.5814 903.132 39.8239C902.648 40.0625 902.083 40.1818 901.439 40.1818ZM910.377 40.1818C909.589 40.1818 908.898 39.9943 908.303 39.6193C907.712 39.2443 907.25 38.7197 906.917 38.0455C906.587 37.3712 906.422 36.5833 906.422 35.6818C906.422 34.7727 906.587 33.9792 906.917 33.3011C907.25 32.6231 907.712 32.0966 908.303 31.7216C908.898 31.3466 909.589 31.1591 910.377 31.1591C911.165 31.1591 911.854 31.3466 912.445 31.7216C913.04 32.0966 913.502 32.6231 913.831 33.3011C914.165 33.9792 914.331 34.7727 914.331 35.6818C914.331 36.5833 914.165 37.3712 913.831 38.0455C913.502 38.7197 913.04 39.2443 912.445 39.6193C911.854 39.9943 911.165 40.1818 910.377 40.1818ZM910.377 38.9773C910.975 38.9773 911.468 38.8239 911.854 38.517C912.24 38.2102 912.526 37.8068 912.712 37.3068C912.898 36.8068 912.99 36.2652 912.99 35.6818C912.99 35.0985 912.898 34.5549 912.712 34.0511C912.526 33.5473 912.24 33.1402 911.854 32.8295C911.468 32.5189 910.975 32.3636 910.377 32.3636C909.778 32.3636 909.286 32.5189 908.899 32.8295C908.513 33.1402 908.227 33.5473 908.042 34.0511C907.856 34.5549 907.763 35.0985 907.763 35.6818C907.763 36.2652 907.856 36.8068 908.042 37.3068C908.227 37.8068 908.513 38.2102 908.899 38.517C909.286 38.8239 909.778 38.9773 910.377 38.9773ZM917.719 28.3636V40H916.378V28.3636H917.719ZM923.72 40.1818C922.933 40.1818 922.241 39.9943 921.647 39.6193C921.056 39.2443 920.594 38.7197 920.26 38.0455C919.931 37.3712 919.766 36.5833 919.766 35.6818C919.766 34.7727 919.931 33.9792 920.26 33.3011C920.594 32.6231 921.056 32.0966 921.647 31.7216C922.241 31.3466 922.933 31.1591 923.72 31.1591C924.508 31.1591 925.198 31.3466 925.789 31.7216C926.383 32.0966 926.845 32.6231 927.175 33.3011C927.508 33.9792 927.675 34.7727 927.675 35.6818C927.675 36.5833 927.508 37.3712 927.175 38.0455C926.845 38.7197 926.383 39.2443 925.789 39.6193C925.198 39.9943 924.508 40.1818 923.72 40.1818ZM923.72 38.9773C924.319 38.9773 924.811 38.8239 925.198 38.517C925.584 38.2102 925.87 37.8068 926.056 37.3068C926.241 36.8068 926.334 36.2652 926.334 35.6818C926.334 35.0985 926.241 34.5549 926.056 34.0511C925.87 33.5473 925.584 33.1402 925.198 32.8295C924.811 32.5189 924.319 32.3636 923.72 32.3636C923.122 32.3636 922.63 32.5189 922.243 32.8295C921.857 33.1402 921.571 33.5473 921.385 34.0511C921.2 34.5549 921.107 35.0985 921.107 35.6818C921.107 36.2652 921.2 36.8068 921.385 37.3068C921.571 37.8068 921.857 38.2102 922.243 38.517C922.63 38.8239 923.122 38.9773 923.72 38.9773ZM929.722 40V31.2727H931.017V32.5909H931.108C931.267 32.1591 931.555 31.8087 931.972 31.5398C932.389 31.2708 932.858 31.1364 933.381 31.1364C933.479 31.1364 933.603 31.1383 933.75 31.142C933.898 31.1458 934.01 31.1515 934.086 31.1591V32.5227C934.04 32.5114 933.936 32.4943 933.773 32.4716C933.614 32.4451 933.445 32.4318 933.267 32.4318C932.843 32.4318 932.464 32.5208 932.131 32.6989C931.801 32.8731 931.54 33.1155 931.347 33.4261C931.158 33.733 931.063 34.0833 931.063 34.4773V40H929.722ZM935.652 40.0909C935.372 40.0909 935.131 39.9905 934.931 39.7898C934.73 39.589 934.63 39.3485 934.63 39.0682C934.63 38.7879 934.73 38.5473 934.931 38.3466C935.131 38.1458 935.372 38.0455 935.652 38.0455C935.933 38.0455 936.173 38.1458 936.374 38.3466C936.575 38.5473 936.675 38.7879 936.675 39.0682C936.675 39.2538 936.628 39.4242 936.533 39.5795C936.442 39.7348 936.319 39.8598 936.164 39.9545C936.012 40.0455 935.842 40.0909 935.652 40.0909ZM942.877 31.2727V32.4091H938.354V31.2727H942.877ZM939.672 29.1818H941.013V37.5C941.013 37.8788 941.068 38.1629 941.178 38.3523C941.292 38.5379 941.435 38.6629 941.61 38.7273C941.788 38.7879 941.975 38.8182 942.172 38.8182C942.32 38.8182 942.441 38.8106 942.536 38.7955C942.631 38.7765 942.706 38.7614 942.763 38.75L943.036 39.9545C942.945 39.9886 942.818 40.0227 942.655 40.0568C942.492 40.0947 942.286 40.1136 942.036 40.1136C941.657 40.1136 941.286 40.0322 940.922 39.8693C940.562 39.7064 940.263 39.4583 940.024 39.125C939.79 38.7917 939.672 38.3712 939.672 37.8636V29.1818ZM946.422 34.75V40H945.081V28.3636H946.422V32.6364H946.536C946.74 32.1856 947.047 31.8277 947.456 31.5625C947.869 31.2936 948.418 31.1591 949.104 31.1591C949.699 31.1591 950.22 31.2784 950.667 31.517C951.113 31.7519 951.46 32.1136 951.706 32.6023C951.956 33.0871 952.081 33.7045 952.081 34.4545V40H950.74V34.5455C950.74 33.8523 950.56 33.3163 950.201 32.9375C949.845 32.5549 949.35 32.3636 948.718 32.3636C948.278 32.3636 947.884 32.4564 947.536 32.642C947.191 32.8277 946.918 33.0985 946.718 33.4545C946.521 33.8106 946.422 34.2424 946.422 34.75ZM958.193 40.1818C957.353 40.1818 956.627 39.9962 956.017 39.625C955.411 39.25 954.943 38.7273 954.614 38.0568C954.288 37.3826 954.125 36.5985 954.125 35.7045C954.125 34.8106 954.288 34.0227 954.614 33.3409C954.943 32.6553 955.402 32.1212 955.989 31.7386C956.58 31.3523 957.269 31.1591 958.057 31.1591C958.512 31.1591 958.961 31.2348 959.404 31.3864C959.847 31.5379 960.25 31.7841 960.614 32.125C960.978 32.4621 961.267 32.9091 961.483 33.4659C961.699 34.0227 961.807 34.7083 961.807 35.5227V36.0909H955.08V34.9318H960.443C960.443 34.4394 960.345 34 960.148 33.6136C959.955 33.2273 959.678 32.9223 959.318 32.6989C958.962 32.4754 958.542 32.3636 958.057 32.3636C957.523 32.3636 957.061 32.4962 956.671 32.7614C956.284 33.0227 955.987 33.3636 955.779 33.7841C955.57 34.2045 955.466 34.6553 955.466 35.1364V35.9091C955.466 36.5682 955.58 37.1269 955.807 37.5852C956.038 38.0398 956.358 38.3864 956.767 38.625C957.176 38.8598 957.652 38.9773 958.193 38.9773C958.546 38.9773 958.864 38.928 959.148 38.8295C959.436 38.7273 959.684 38.5758 959.892 38.375C960.101 38.1705 960.262 37.9167 960.375 37.6136L961.671 37.9773C961.534 38.4167 961.305 38.803 960.983 39.1364C960.661 39.4659 960.264 39.7235 959.79 39.9091C959.317 40.0909 958.784 40.1818 958.193 40.1818ZM963.847 40V31.2727H965.142V32.6364H965.256C965.438 32.1705 965.731 31.8087 966.137 31.5511C966.542 31.2898 967.029 31.1591 967.597 31.1591C968.173 31.1591 968.652 31.2898 969.034 31.5511C969.421 31.8087 969.722 32.1705 969.938 32.6364H970.029C970.252 32.1856 970.587 31.8277 971.034 31.5625C971.481 31.2936 972.017 31.1591 972.642 31.1591C973.423 31.1591 974.061 31.4034 974.557 31.892C975.053 32.3769 975.301 33.1326 975.301 34.1591V40H973.961V34.1591C973.961 33.5152 973.784 33.0549 973.432 32.7784C973.08 32.5019 972.665 32.3636 972.188 32.3636C971.574 32.3636 971.099 32.5492 970.762 32.9205C970.425 33.2879 970.256 33.7538 970.256 34.3182V40H968.892V34.0227C968.892 33.5265 968.731 33.1269 968.409 32.8239C968.087 32.517 967.673 32.3636 967.165 32.3636C966.817 32.3636 966.491 32.4564 966.188 32.642C965.889 32.8277 965.646 33.0852 965.461 33.4148C965.279 33.7405 965.188 34.1174 965.188 34.5455V40H963.847ZM981.412 40.1818C980.571 40.1818 979.846 39.9962 979.236 39.625C978.63 39.25 978.162 38.7273 977.833 38.0568C977.507 37.3826 977.344 36.5985 977.344 35.7045C977.344 34.8106 977.507 34.0227 977.833 33.3409C978.162 32.6553 978.621 32.1212 979.208 31.7386C979.799 31.3523 980.488 31.1591 981.276 31.1591C981.73 31.1591 982.179 31.2348 982.622 31.3864C983.066 31.5379 983.469 31.7841 983.833 32.125C984.196 32.4621 984.486 32.9091 984.702 33.4659C984.918 34.0227 985.026 34.7083 985.026 35.5227V36.0909H978.299V34.9318H983.662C983.662 34.4394 983.564 34 983.367 33.6136C983.174 33.2273 982.897 32.9223 982.537 32.6989C982.181 32.4754 981.761 32.3636 981.276 32.3636C980.742 32.3636 980.28 32.4962 979.89 32.7614C979.503 33.0227 979.206 33.3636 978.997 33.7841C978.789 34.2045 978.685 34.6553 978.685 35.1364V35.9091C978.685 36.5682 978.799 37.1269 979.026 37.5852C979.257 38.0398 979.577 38.3864 979.986 38.625C980.395 38.8598 980.871 38.9773 981.412 38.9773C981.765 38.9773 982.083 38.928 982.367 38.8295C982.655 38.7273 982.903 38.5758 983.111 38.375C983.319 38.1705 983.48 37.9167 983.594 37.6136L984.89 37.9773C984.753 38.4167 984.524 38.803 984.202 39.1364C983.88 39.4659 983.482 39.7235 983.009 39.9091C982.535 40.0909 982.003 40.1818 981.412 40.1818ZM988.043 40.0909C987.763 40.0909 987.522 39.9905 987.321 39.7898C987.121 39.589 987.02 39.3485 987.02 39.0682C987.02 38.7879 987.121 38.5473 987.321 38.3466C987.522 38.1458 987.763 38.0455 988.043 38.0455C988.323 38.0455 988.564 38.1458 988.765 38.3466C988.965 38.5473 989.066 38.7879 989.066 39.0682C989.066 39.2538 989.018 39.4242 988.924 39.5795C988.833 39.7348 988.71 39.8598 988.554 39.9545C988.403 40.0455 988.232 40.0909 988.043 40.0909ZM994.04 40.2045C993.487 40.2045 992.985 40.1004 992.534 39.892C992.084 39.6799 991.726 39.375 991.461 38.9773C991.195 38.5758 991.063 38.0909 991.063 37.5227C991.063 37.0227 991.161 36.6174 991.358 36.3068C991.555 35.9924 991.818 35.7462 992.148 35.5682C992.478 35.3902 992.841 35.2576 993.239 35.1705C993.64 35.0795 994.044 35.0076 994.449 34.9545C994.979 34.8864 995.409 34.8352 995.739 34.8011C996.072 34.7633 996.315 34.7008 996.466 34.6136C996.622 34.5265 996.699 34.375 996.699 34.1591V34.1136C996.699 33.553 996.546 33.1174 996.239 32.8068C995.936 32.4962 995.476 32.3409 994.858 32.3409C994.218 32.3409 993.716 32.4811 993.353 32.7614C992.989 33.0417 992.733 33.3409 992.586 33.6591L991.313 33.2045C991.54 32.6742 991.843 32.2614 992.222 31.9659C992.604 31.6667 993.021 31.4583 993.472 31.3409C993.926 31.2197 994.373 31.1591 994.813 31.1591C995.093 31.1591 995.415 31.1932 995.779 31.2614C996.146 31.3258 996.5 31.4602 996.841 31.6648C997.186 31.8693 997.472 32.178 997.699 32.5909C997.926 33.0038 998.04 33.5568 998.04 34.25V40H996.699V38.8182H996.631C996.54 39.0076 996.389 39.2102 996.176 39.4261C995.964 39.642 995.682 39.8258 995.33 39.9773C994.978 40.1288 994.548 40.2045 994.04 40.2045ZM994.245 39C994.775 39 995.222 38.8958 995.586 38.6875C995.953 38.4792 996.229 38.2102 996.415 37.8807C996.604 37.5511 996.699 37.2045 996.699 36.8409V35.6136C996.642 35.6818 996.517 35.7443 996.324 35.8011C996.135 35.8542 995.915 35.9015 995.665 35.9432C995.419 35.9811 995.178 36.0152 994.943 36.0455C994.712 36.072 994.525 36.0947 994.381 36.1136C994.033 36.1591 993.707 36.233 993.404 36.3352C993.104 36.4337 992.862 36.5833 992.676 36.7841C992.495 36.9811 992.404 37.25 992.404 37.5909C992.404 38.0568 992.576 38.4091 992.921 38.6477C993.269 38.8826 993.711 39 994.245 39ZM1004.03 40.1818C1003.21 40.1818 1002.51 39.9886 1001.92 39.6023C1001.33 39.2159 1000.87 38.6837 1000.56 38.0057C1000.24 37.3277 1000.08 36.553 1000.08 35.6818C1000.08 34.7955 1000.24 34.0133 1000.57 33.3352C1000.9 32.6534 1001.35 32.1212 1001.94 31.7386C1002.53 31.3523 1003.22 31.1591 1004.01 31.1591C1004.62 31.1591 1005.18 31.2727 1005.67 31.5C1006.16 31.7273 1006.57 32.0455 1006.88 32.4545C1007.19 32.8636 1007.39 33.3409 1007.46 33.8864H1006.12C1006.02 33.4886 1005.79 33.1364 1005.44 32.8295C1005.09 32.5189 1004.62 32.3636 1004.03 32.3636C1003.51 32.3636 1003.05 32.5 1002.66 32.7727C1002.27 33.0417 1001.96 33.4223 1001.74 33.9148C1001.53 34.4034 1001.42 34.9773 1001.42 35.6364C1001.42 36.3106 1001.53 36.8977 1001.74 37.3977C1001.95 37.8977 1002.26 38.286 1002.65 38.5625C1003.04 38.839 1003.5 38.9773 1004.03 38.9773C1004.38 38.9773 1004.7 38.9167 1004.98 38.7955C1005.27 38.6742 1005.51 38.5 1005.7 38.2727C1005.9 38.0455 1006.04 37.7727 1006.12 37.4545H1007.46C1007.39 37.9697 1007.2 38.4337 1006.9 38.8466C1006.61 39.2557 1006.21 39.5814 1005.73 39.8239C1005.24 40.0625 1004.68 40.1818 1004.03 40.1818ZM1012.97 40.1818C1012.15 40.1818 1011.45 39.9886 1010.86 39.6023C1010.27 39.2159 1009.81 38.6837 1009.49 38.0057C1009.18 37.3277 1009.02 36.553 1009.02 35.6818C1009.02 34.7955 1009.18 34.0133 1009.5 33.3352C1009.83 32.6534 1010.29 32.1212 1010.88 31.7386C1011.47 31.3523 1012.16 31.1591 1012.95 31.1591C1013.56 31.1591 1014.11 31.2727 1014.61 31.5C1015.1 31.7273 1015.5 32.0455 1015.82 32.4545C1016.13 32.8636 1016.33 33.3409 1016.4 33.8864H1015.06C1014.96 33.4886 1014.73 33.1364 1014.38 32.8295C1014.03 32.5189 1013.56 32.3636 1012.97 32.3636C1012.45 32.3636 1011.99 32.5 1011.6 32.7727C1011.21 33.0417 1010.9 33.4223 1010.68 33.9148C1010.46 34.4034 1010.36 34.9773 1010.36 35.6364C1010.36 36.3106 1010.46 36.8977 1010.68 37.3977C1010.89 37.8977 1011.19 38.286 1011.58 38.5625C1011.98 38.839 1012.44 38.9773 1012.97 38.9773C1013.32 38.9773 1013.64 38.9167 1013.92 38.7955C1014.2 38.6742 1014.44 38.5 1014.64 38.2727C1014.84 38.0455 1014.98 37.7727 1015.06 37.4545H1016.4C1016.33 37.9697 1016.14 38.4337 1015.84 38.8466C1015.54 39.2557 1015.15 39.5814 1014.66 39.8239C1014.18 40.0625 1013.61 40.1818 1012.97 40.1818ZM1022.02 40.1818C1021.18 40.1818 1020.46 39.9962 1019.85 39.625C1019.24 39.25 1018.77 38.7273 1018.44 38.0568C1018.12 37.3826 1017.95 36.5985 1017.95 35.7045C1017.95 34.8106 1018.12 34.0227 1018.44 33.3409C1018.77 32.6553 1019.23 32.1212 1019.82 31.7386C1020.41 31.3523 1021.1 31.1591 1021.89 31.1591C1022.34 31.1591 1022.79 31.2348 1023.23 31.3864C1023.68 31.5379 1024.08 31.7841 1024.44 32.125C1024.81 32.4621 1025.1 32.9091 1025.31 33.4659C1025.53 34.0227 1025.64 34.7083 1025.64 35.5227V36.0909H1018.91V34.9318H1024.27C1024.27 34.4394 1024.17 34 1023.98 33.6136C1023.78 33.2273 1023.51 32.9223 1023.15 32.6989C1022.79 32.4754 1022.37 32.3636 1021.89 32.3636C1021.35 32.3636 1020.89 32.4962 1020.5 32.7614C1020.11 33.0227 1019.82 33.3636 1019.61 33.7841C1019.4 34.2045 1019.29 34.6553 1019.29 35.1364V35.9091C1019.29 36.5682 1019.41 37.1269 1019.64 37.5852C1019.87 38.0398 1020.19 38.3864 1020.6 38.625C1021 38.8598 1021.48 38.9773 1022.02 38.9773C1022.37 38.9773 1022.69 38.928 1022.98 38.8295C1023.26 38.7273 1023.51 38.5758 1023.72 38.375C1023.93 38.1705 1024.09 37.9167 1024.2 37.6136L1025.5 37.9773C1025.36 38.4167 1025.13 38.803 1024.81 39.1364C1024.49 39.4659 1024.09 39.7235 1023.62 39.9091C1023.14 40.0909 1022.61 40.1818 1022.02 40.1818ZM1029.02 34.75V40H1027.68V31.2727H1028.97V32.6364H1029.08C1029.29 32.1932 1029.6 31.8371 1030.02 31.5682C1030.43 31.2955 1030.97 31.1591 1031.63 31.1591C1032.22 31.1591 1032.74 31.2803 1033.18 31.5227C1033.62 31.7614 1033.97 32.125 1034.21 32.6136C1034.46 33.0985 1034.58 33.7121 1034.58 34.4545V40H1033.24V34.5455C1033.24 33.8598 1033.07 33.3258 1032.71 32.9432C1032.35 32.5568 1031.86 32.3636 1031.24 32.3636C1030.82 32.3636 1030.43 32.4564 1030.1 32.642C1029.76 32.8277 1029.5 33.0985 1029.31 33.4545C1029.11 33.8106 1029.02 34.2424 1029.02 34.75ZM1040.83 31.2727V32.4091H1036.31V31.2727H1040.83ZM1037.63 29.1818H1038.97V37.5C1038.97 37.8788 1039.02 38.1629 1039.13 38.3523C1039.24 38.5379 1039.39 38.6629 1039.56 38.7273C1039.74 38.7879 1039.93 38.8182 1040.13 38.8182C1040.27 38.8182 1040.39 38.8106 1040.49 38.7955C1040.58 38.7765 1040.66 38.7614 1040.72 38.75L1040.99 39.9545C1040.9 39.9886 1040.77 40.0227 1040.61 40.0568C1040.45 40.0947 1040.24 40.1136 1039.99 40.1136C1039.61 40.1136 1039.24 40.0322 1038.88 39.8693C1038.52 39.7064 1038.22 39.4583 1037.98 39.125C1037.74 38.7917 1037.63 38.3712 1037.63 37.8636V29.1818ZM1043.82 40.0909C1043.54 40.0909 1043.3 39.9905 1043.1 39.7898C1042.9 39.589 1042.8 39.3485 1042.8 39.0682C1042.8 38.7879 1042.9 38.5473 1043.1 38.3466C1043.3 38.1458 1043.54 38.0455 1043.82 38.0455C1044.1 38.0455 1044.35 38.1458 1044.55 38.3466C1044.75 38.5473 1044.85 38.7879 1044.85 39.0682C1044.85 39.2538 1044.8 39.4242 1044.7 39.5795C1044.61 39.7348 1044.49 39.8598 1044.34 39.9545C1044.18 40.0455 1044.01 40.0909 1043.82 40.0909ZM1047.25 40V31.2727H1048.59V40H1047.25ZM1047.93 29.8182C1047.67 29.8182 1047.45 29.7292 1047.26 29.5511C1047.07 29.3731 1046.98 29.1591 1046.98 28.9091C1046.98 28.6591 1047.07 28.4451 1047.26 28.267C1047.45 28.089 1047.67 28 1047.93 28C1048.2 28 1048.42 28.089 1048.61 28.267C1048.79 28.4451 1048.89 28.6591 1048.89 28.9091C1048.89 29.1591 1048.79 29.3731 1048.61 29.5511C1048.42 29.7292 1048.2 29.8182 1047.93 29.8182ZM1052.39 34.75V40H1051.05V31.2727H1052.35V32.6364H1052.46C1052.66 32.1932 1052.97 31.8371 1053.39 31.5682C1053.81 31.2955 1054.35 31.1591 1055 31.1591C1055.6 31.1591 1056.11 31.2803 1056.56 31.5227C1057 31.7614 1057.34 32.125 1057.59 32.6136C1057.84 33.0985 1057.96 33.7121 1057.96 34.4545V40H1056.62V34.5455C1056.62 33.8598 1056.44 33.3258 1056.08 32.9432C1055.73 32.5568 1055.24 32.3636 1054.62 32.3636C1054.19 32.3636 1053.81 32.4564 1053.47 32.642C1053.14 32.8277 1052.87 33.0985 1052.68 33.4545C1052.49 33.8106 1052.39 34.2424 1052.39 34.75ZM1063.7 40.1818C1062.98 40.1818 1062.34 39.9981 1061.78 39.6307C1061.22 39.2595 1060.79 38.7367 1060.47 38.0625C1060.16 37.3845 1060 36.5833 1060 35.6591C1060 34.7424 1060.16 33.947 1060.47 33.2727C1060.79 32.5985 1061.22 32.0777 1061.78 31.7102C1062.35 31.3428 1062.99 31.1591 1063.73 31.1591C1064.3 31.1591 1064.74 31.2538 1065.07 31.4432C1065.41 31.6288 1065.66 31.8409 1065.84 32.0795C1066.01 32.3144 1066.15 32.5076 1066.25 32.6591H1066.36V28.3636H1067.7V40H1066.41V38.6591H1066.25C1066.15 38.8182 1066.01 39.0189 1065.83 39.2614C1065.65 39.5 1065.39 39.714 1065.05 39.9034C1064.71 40.089 1064.27 40.1818 1063.7 40.1818ZM1063.89 38.9773C1064.42 38.9773 1064.88 38.8371 1065.25 38.5568C1065.62 38.2727 1065.9 37.8807 1066.1 37.3807C1066.29 36.8769 1066.39 36.2955 1066.39 35.6364C1066.39 34.9848 1066.29 34.4148 1066.1 33.9261C1065.91 33.4337 1065.63 33.0511 1065.26 32.7784C1064.89 32.5019 1064.43 32.3636 1063.89 32.3636C1063.32 32.3636 1062.85 32.5095 1062.47 32.8011C1062.09 33.089 1061.81 33.4811 1061.62 33.9773C1061.43 34.4697 1061.34 35.0227 1061.34 35.6364C1061.34 36.2576 1061.44 36.822 1061.63 37.3295C1061.82 37.8333 1062.1 38.2348 1062.48 38.5341C1062.86 38.8295 1063.33 38.9773 1063.89 38.9773ZM1070.35 40V31.2727H1071.69V40H1070.35ZM1071.03 29.8182C1070.77 29.8182 1070.54 29.7292 1070.35 29.5511C1070.17 29.3731 1070.07 29.1591 1070.07 28.9091C1070.07 28.6591 1070.17 28.4451 1070.35 28.267C1070.54 28.089 1070.77 28 1071.03 28C1071.29 28 1071.51 28.089 1071.7 28.267C1071.89 28.4451 1071.98 28.6591 1071.98 28.9091C1071.98 29.1591 1071.89 29.3731 1071.7 29.5511C1071.51 29.7292 1071.29 29.8182 1071.03 29.8182ZM1077.69 40.1818C1076.87 40.1818 1076.17 39.9886 1075.58 39.6023C1074.98 39.2159 1074.53 38.6837 1074.21 38.0057C1073.89 37.3277 1073.73 36.553 1073.73 35.6818C1073.73 34.7955 1073.9 34.0133 1074.22 33.3352C1074.55 32.6534 1075.01 32.1212 1075.6 31.7386C1076.19 31.3523 1076.88 31.1591 1077.67 31.1591C1078.28 31.1591 1078.83 31.2727 1079.33 31.5C1079.82 31.7273 1080.22 32.0455 1080.54 32.4545C1080.85 32.8636 1081.05 33.3409 1081.12 33.8864H1079.78C1079.68 33.4886 1079.45 33.1364 1079.1 32.8295C1078.75 32.5189 1078.28 32.3636 1077.69 32.3636C1077.17 32.3636 1076.71 32.5 1076.31 32.7727C1075.92 33.0417 1075.62 33.4223 1075.4 33.9148C1075.18 34.4034 1075.08 34.9773 1075.08 35.6364C1075.08 36.3106 1075.18 36.8977 1075.39 37.3977C1075.61 37.8977 1075.91 38.286 1076.3 38.5625C1076.7 38.839 1077.16 38.9773 1077.69 38.9773C1078.04 38.9773 1078.35 38.9167 1078.64 38.7955C1078.92 38.6742 1079.16 38.5 1079.36 38.2727C1079.56 38.0455 1079.7 37.7727 1079.78 37.4545H1081.12C1081.05 37.9697 1080.86 38.4337 1080.56 38.8466C1080.26 39.2557 1079.87 39.5814 1079.38 39.8239C1078.9 40.0625 1078.33 40.1818 1077.69 40.1818ZM1085.65 40.2045C1085.1 40.2045 1084.59 40.1004 1084.14 39.892C1083.69 39.6799 1083.34 39.375 1083.07 38.9773C1082.8 38.5758 1082.67 38.0909 1082.67 37.5227C1082.67 37.0227 1082.77 36.6174 1082.97 36.3068C1083.16 35.9924 1083.43 35.7462 1083.76 35.5682C1084.09 35.3902 1084.45 35.2576 1084.85 35.1705C1085.25 35.0795 1085.65 35.0076 1086.06 34.9545C1086.59 34.8864 1087.02 34.8352 1087.35 34.8011C1087.68 34.7633 1087.92 34.7008 1088.08 34.6136C1088.23 34.5265 1088.31 34.375 1088.31 34.1591V34.1136C1088.31 33.553 1088.16 33.1174 1087.85 32.8068C1087.55 32.4962 1087.09 32.3409 1086.47 32.3409C1085.83 32.3409 1085.33 32.4811 1084.96 32.7614C1084.6 33.0417 1084.34 33.3409 1084.19 33.6591L1082.92 33.2045C1083.15 32.6742 1083.45 32.2614 1083.83 31.9659C1084.21 31.6667 1084.63 31.4583 1085.08 31.3409C1085.54 31.2197 1085.98 31.1591 1086.42 31.1591C1086.7 31.1591 1087.02 31.1932 1087.39 31.2614C1087.76 31.3258 1088.11 31.4602 1088.45 31.6648C1088.8 31.8693 1089.08 32.178 1089.31 32.5909C1089.54 33.0038 1089.65 33.5568 1089.65 34.25V40H1088.31V38.8182H1088.24C1088.15 39.0076 1088 39.2102 1087.79 39.4261C1087.57 39.642 1087.29 39.8258 1086.94 39.9773C1086.59 40.1288 1086.16 40.2045 1085.65 40.2045ZM1085.85 39C1086.38 39 1086.83 38.8958 1087.19 38.6875C1087.56 38.4792 1087.84 38.2102 1088.02 37.8807C1088.21 37.5511 1088.31 37.2045 1088.31 36.8409V35.6136C1088.25 35.6818 1088.13 35.7443 1087.93 35.8011C1087.74 35.8542 1087.52 35.9015 1087.27 35.9432C1087.03 35.9811 1086.79 36.0152 1086.55 36.0455C1086.32 36.072 1086.13 36.0947 1085.99 36.1136C1085.64 36.1591 1085.32 36.233 1085.01 36.3352C1084.71 36.4337 1084.47 36.5833 1084.29 36.7841C1084.1 36.9811 1084.01 37.25 1084.01 37.5909C1084.01 38.0568 1084.19 38.4091 1084.53 38.6477C1084.88 38.8826 1085.32 39 1085.85 39ZM1095.89 31.2727V32.4091H1091.37V31.2727H1095.89ZM1092.69 29.1818H1094.03V37.5C1094.03 37.8788 1094.08 38.1629 1094.19 38.3523C1094.31 38.5379 1094.45 38.6629 1094.63 38.7273C1094.8 38.7879 1094.99 38.8182 1095.19 38.8182C1095.34 38.8182 1095.46 38.8106 1095.55 38.7955C1095.65 38.7765 1095.72 38.7614 1095.78 38.75L1096.05 39.9545C1095.96 39.9886 1095.83 40.0227 1095.67 40.0568C1095.51 40.0947 1095.3 40.1136 1095.05 40.1136C1094.67 40.1136 1094.3 40.0322 1093.94 39.8693C1093.58 39.7064 1093.28 39.4583 1093.04 39.125C1092.81 38.7917 1092.69 38.3712 1092.69 37.8636V29.1818ZM1101.36 40.1818C1100.57 40.1818 1099.88 39.9943 1099.29 39.6193C1098.7 39.2443 1098.23 38.7197 1097.9 38.0455C1097.57 37.3712 1097.41 36.5833 1097.41 35.6818C1097.41 34.7727 1097.57 33.9792 1097.9 33.3011C1098.23 32.6231 1098.7 32.0966 1099.29 31.7216C1099.88 31.3466 1100.57 31.1591 1101.36 31.1591C1102.15 31.1591 1102.84 31.3466 1103.43 31.7216C1104.02 32.0966 1104.49 32.6231 1104.82 33.3011C1105.15 33.9792 1105.32 34.7727 1105.32 35.6818C1105.32 36.5833 1105.15 37.3712 1104.82 38.0455C1104.49 38.7197 1104.02 39.2443 1103.43 39.6193C1102.84 39.9943 1102.15 40.1818 1101.36 40.1818ZM1101.36 38.9773C1101.96 38.9773 1102.45 38.8239 1102.84 38.517C1103.22 38.2102 1103.51 37.8068 1103.7 37.3068C1103.88 36.8068 1103.97 36.2652 1103.97 35.6818C1103.97 35.0985 1103.88 34.5549 1103.7 34.0511C1103.51 33.5473 1103.22 33.1402 1102.84 32.8295C1102.45 32.5189 1101.96 32.3636 1101.36 32.3636C1100.76 32.3636 1100.27 32.5189 1099.88 32.8295C1099.5 33.1402 1099.21 33.5473 1099.03 34.0511C1098.84 34.5549 1098.75 35.0985 1098.75 35.6818C1098.75 36.2652 1098.84 36.8068 1099.03 37.3068C1099.21 37.8068 1099.5 38.2102 1099.88 38.517C1100.27 38.8239 1100.76 38.9773 1101.36 38.9773ZM1107.36 40V31.2727H1108.66V32.5909H1108.75C1108.91 32.1591 1109.2 31.8087 1109.61 31.5398C1110.03 31.2708 1110.5 31.1364 1111.02 31.1364C1111.12 31.1364 1111.24 31.1383 1111.39 31.142C1111.54 31.1458 1111.65 31.1515 1111.73 31.1591V32.5227C1111.68 32.5114 1111.58 32.4943 1111.41 32.4716C1111.25 32.4451 1111.09 32.4318 1110.91 32.4318C1110.48 32.4318 1110.1 32.5208 1109.77 32.6989C1109.44 32.8731 1109.18 33.1155 1108.99 33.4261C1108.8 33.733 1108.7 34.0833 1108.7 34.4773V40H1107.36ZM1113.29 40.0909C1113.01 40.0909 1112.77 39.9905 1112.57 39.7898C1112.37 39.589 1112.27 39.3485 1112.27 39.0682C1112.27 38.7879 1112.37 38.5473 1112.57 38.3466C1112.77 38.1458 1113.01 38.0455 1113.29 38.0455C1113.57 38.0455 1113.81 38.1458 1114.01 38.3466C1114.22 38.5473 1114.32 38.7879 1114.32 39.0682C1114.32 39.2538 1114.27 39.4242 1114.17 39.5795C1114.08 39.7348 1113.96 39.8598 1113.8 39.9545C1113.65 40.0455 1113.48 40.0909 1113.29 40.0909ZM1120.02 40.1818C1119.29 40.1818 1118.65 39.9981 1118.09 39.6307C1117.53 39.2595 1117.1 38.7367 1116.78 38.0625C1116.47 37.3845 1116.31 36.5833 1116.31 35.6591C1116.31 34.7424 1116.47 33.947 1116.78 33.2727C1117.1 32.5985 1117.54 32.0777 1118.1 31.7102C1118.66 31.3428 1119.31 31.1591 1120.04 31.1591C1120.61 31.1591 1121.06 31.2538 1121.39 31.4432C1121.72 31.6288 1121.97 31.8409 1122.15 32.0795C1122.33 32.3144 1122.46 32.5076 1122.56 32.6591H1122.68V28.3636H1124.02V40H1122.72V38.6591H1122.56C1122.46 38.8182 1122.32 39.0189 1122.14 39.2614C1121.96 39.5 1121.7 39.714 1121.36 39.9034C1121.03 40.089 1120.58 40.1818 1120.02 40.1818ZM1120.2 38.9773C1120.74 38.9773 1121.19 38.8371 1121.56 38.5568C1121.93 38.2727 1122.22 37.8807 1122.41 37.3807C1122.6 36.8769 1122.7 36.2955 1122.7 35.6364C1122.7 34.9848 1122.6 34.4148 1122.42 33.9261C1122.23 33.4337 1121.95 33.0511 1121.57 32.7784C1121.2 32.5019 1120.74 32.3636 1120.2 32.3636C1119.63 32.3636 1119.16 32.5095 1118.78 32.8011C1118.4 33.089 1118.12 33.4811 1117.93 33.9773C1117.75 34.4697 1117.65 35.0227 1117.65 35.6364C1117.65 36.2576 1117.75 36.822 1117.94 37.3295C1118.13 37.8333 1118.42 38.2348 1118.79 38.5341C1119.17 38.8295 1119.64 38.9773 1120.2 38.9773ZM1130.32 40.1818C1129.48 40.1818 1128.75 39.9962 1128.14 39.625C1127.54 39.25 1127.07 38.7273 1126.74 38.0568C1126.41 37.3826 1126.25 36.5985 1126.25 35.7045C1126.25 34.8106 1126.41 34.0227 1126.74 33.3409C1127.07 32.6553 1127.53 32.1212 1128.11 31.7386C1128.7 31.3523 1129.39 31.1591 1130.18 31.1591C1130.64 31.1591 1131.09 31.2348 1131.53 31.3864C1131.97 31.5379 1132.38 31.7841 1132.74 32.125C1133.1 32.4621 1133.39 32.9091 1133.61 33.4659C1133.82 34.0227 1133.93 34.7083 1133.93 35.5227V36.0909H1127.2V34.9318H1132.57C1132.57 34.4394 1132.47 34 1132.27 33.6136C1132.08 33.2273 1131.8 32.9223 1131.44 32.6989C1131.09 32.4754 1130.67 32.3636 1130.18 32.3636C1129.65 32.3636 1129.19 32.4962 1128.8 32.7614C1128.41 33.0227 1128.11 33.3636 1127.9 33.7841C1127.7 34.2045 1127.59 34.6553 1127.59 35.1364V35.9091C1127.59 36.5682 1127.7 37.1269 1127.93 37.5852C1128.16 38.0398 1128.48 38.3864 1128.89 38.625C1129.3 38.8598 1129.78 38.9773 1130.32 38.9773C1130.67 38.9773 1130.99 38.928 1131.27 38.8295C1131.56 38.7273 1131.81 38.5758 1132.02 38.375C1132.23 38.1705 1132.39 37.9167 1132.5 37.6136L1133.8 37.9773C1133.66 38.4167 1133.43 38.803 1133.11 39.1364C1132.79 39.4659 1132.39 39.7235 1131.92 39.9091C1131.44 40.0909 1130.91 40.1818 1130.32 40.1818ZM1139.86 31.2727V32.4091H1135.15V31.2727H1139.86ZM1136.56 40V30.0682C1136.56 29.5682 1136.68 29.1515 1136.92 28.8182C1137.15 28.4848 1137.45 28.2348 1137.83 28.0682C1138.2 27.9015 1138.6 27.8182 1139.02 27.8182C1139.35 27.8182 1139.62 27.8447 1139.82 27.8977C1140.03 27.9508 1140.19 28 1140.29 28.0455L1139.9 29.2045C1139.84 29.1818 1139.74 29.1534 1139.62 29.1193C1139.5 29.0852 1139.35 29.0682 1139.15 29.0682C1138.71 29.0682 1138.39 29.1799 1138.19 29.4034C1138 29.6269 1137.9 29.9545 1137.9 30.3864V40H1136.56ZM1144.06 40.2045C1143.5 40.2045 1143 40.1004 1142.55 39.892C1142.1 39.6799 1141.74 39.375 1141.48 38.9773C1141.21 38.5758 1141.08 38.0909 1141.08 37.5227C1141.08 37.0227 1141.18 36.6174 1141.37 36.3068C1141.57 35.9924 1141.83 35.7462 1142.16 35.5682C1142.49 35.3902 1142.86 35.2576 1143.25 35.1705C1143.66 35.0795 1144.06 35.0076 1144.46 34.9545C1145 34.8864 1145.43 34.8352 1145.75 34.8011C1146.09 34.7633 1146.33 34.7008 1146.48 34.6136C1146.64 34.5265 1146.71 34.375 1146.71 34.1591V34.1136C1146.71 33.553 1146.56 33.1174 1146.25 32.8068C1145.95 32.4962 1145.49 32.3409 1144.87 32.3409C1144.23 32.3409 1143.73 32.4811 1143.37 32.7614C1143 33.0417 1142.75 33.3409 1142.6 33.6591L1141.33 33.2045C1141.56 32.6742 1141.86 32.2614 1142.24 31.9659C1142.62 31.6667 1143.04 31.4583 1143.49 31.3409C1143.94 31.2197 1144.39 31.1591 1144.83 31.1591C1145.11 31.1591 1145.43 31.1932 1145.79 31.2614C1146.16 31.3258 1146.52 31.4602 1146.86 31.6648C1147.2 31.8693 1147.49 32.178 1147.71 32.5909C1147.94 33.0038 1148.06 33.5568 1148.06 34.25V40H1146.71V38.8182H1146.65C1146.56 39.0076 1146.4 39.2102 1146.19 39.4261C1145.98 39.642 1145.7 39.8258 1145.35 39.9773C1144.99 40.1288 1144.56 40.2045 1144.06 40.2045ZM1144.26 39C1144.79 39 1145.24 38.8958 1145.6 38.6875C1145.97 38.4792 1146.25 38.2102 1146.43 37.8807C1146.62 37.5511 1146.71 37.2045 1146.71 36.8409V35.6136C1146.66 35.6818 1146.53 35.7443 1146.34 35.8011C1146.15 35.8542 1145.93 35.9015 1145.68 35.9432C1145.43 35.9811 1145.19 36.0152 1144.96 36.0455C1144.73 36.072 1144.54 36.0947 1144.4 36.1136C1144.05 36.1591 1143.72 36.233 1143.42 36.3352C1143.12 36.4337 1142.88 36.5833 1142.69 36.7841C1142.51 36.9811 1142.42 37.25 1142.42 37.5909C1142.42 38.0568 1142.59 38.4091 1142.94 38.6477C1143.28 38.8826 1143.73 39 1144.26 39ZM1156 36.4318V31.2727H1157.34V40H1156V38.5227H1155.91C1155.71 38.9659 1155.39 39.3428 1154.96 39.6534C1154.53 39.9602 1153.98 40.1136 1153.32 40.1136C1152.78 40.1136 1152.29 39.9943 1151.87 39.7557C1151.44 39.5133 1151.11 39.1496 1150.87 38.6648C1150.62 38.1761 1150.5 37.5606 1150.5 36.8182V31.2727H1151.84V36.7273C1151.84 37.3636 1152.02 37.8712 1152.38 38.25C1152.74 38.6288 1153.2 38.8182 1153.75 38.8182C1154.09 38.8182 1154.43 38.733 1154.77 38.5625C1155.12 38.392 1155.41 38.1307 1155.65 37.7784C1155.88 37.4261 1156 36.9773 1156 36.4318ZM1161.14 28.3636V40H1159.8V28.3636H1161.14ZM1167.39 31.2727V32.4091H1162.87V31.2727H1167.39ZM1164.19 29.1818H1165.53V37.5C1165.53 37.8788 1165.58 38.1629 1165.69 38.3523C1165.81 38.5379 1165.95 38.6629 1166.13 38.7273C1166.3 38.7879 1166.49 38.8182 1166.69 38.8182C1166.84 38.8182 1166.96 38.8106 1167.05 38.7955C1167.15 38.7765 1167.22 38.7614 1167.28 38.75L1167.55 39.9545C1167.46 39.9886 1167.33 40.0227 1167.17 40.0568C1167.01 40.0947 1166.8 40.1136 1166.55 40.1136C1166.17 40.1136 1165.8 40.0322 1165.44 39.8693C1165.08 39.7064 1164.78 39.4583 1164.54 39.125C1164.31 38.7917 1164.19 38.3712 1164.19 37.8636V29.1818Z" fill="white" fill-opacity="0.95"/>
</svg>
