<svg width="1300" height="68" viewBox="0 0 1300 68" fill="none" xmlns="http://www.w3.org/2000/svg">
<rect width="1300" height="68" fill="#1A1A1A"/>
<mask id="path-1-inside-1_1508_5586" fill="white">
<path d="M0 0H433.333V68H0V0Z"/>
</mask>
<path d="M432.333 0V68H434.333V0H432.333Z" fill="#707070" mask="url(#path-1-inside-1_1508_5586)"/>
<path d="M37.7727 31.2727C37.7045 30.697 37.428 30.25 36.9432 29.9318C36.4583 29.6136 35.8636 29.4545 35.1591 29.4545C34.6439 29.4545 34.1932 29.5379 33.8068 29.7045C33.4242 29.8712 33.125 30.1004 32.9091 30.392C32.697 30.6837 32.5909 31.0152 32.5909 31.3864C32.5909 31.697 32.6648 31.964 32.8125 32.1875C32.964 32.4072 33.1572 32.5909 33.392 32.7386C33.6269 32.8826 33.8731 33.0019 34.1307 33.0966C34.3883 33.1875 34.625 33.2614 34.8409 33.3182L36.0227 33.6364C36.3258 33.7159 36.6629 33.8258 37.0341 33.9659C37.4091 34.1061 37.767 34.2973 38.108 34.5398C38.4527 34.7784 38.7367 35.0852 38.9602 35.4602C39.1837 35.8352 39.2955 36.2955 39.2955 36.8409C39.2955 37.4697 39.1307 38.0379 38.8011 38.5455C38.4754 39.053 37.9981 39.4564 37.3693 39.7557C36.7443 40.0549 35.9848 40.2045 35.0909 40.2045C34.2576 40.2045 33.536 40.0701 32.9261 39.8011C32.3201 39.5322 31.8428 39.1572 31.4943 38.6761C31.1496 38.1951 30.9545 37.6364 30.9091 37H32.3636C32.4015 37.4394 32.5492 37.803 32.8068 38.0909C33.0682 38.375 33.3977 38.5871 33.7955 38.7273C34.197 38.8636 34.6288 38.9318 35.0909 38.9318C35.6288 38.9318 36.1117 38.8447 36.5398 38.6705C36.9678 38.4924 37.3068 38.2462 37.5568 37.9318C37.8068 37.6136 37.9318 37.2424 37.9318 36.8182C37.9318 36.4318 37.8239 36.1174 37.608 35.875C37.392 35.6326 37.108 35.4356 36.7557 35.2841C36.4034 35.1326 36.0227 35 35.6136 34.8864L34.1818 34.4773C33.2727 34.2159 32.553 33.8428 32.0227 33.358C31.4924 32.8731 31.2273 32.2386 31.2273 31.4545C31.2273 30.803 31.4034 30.2348 31.7557 29.75C32.1117 29.2614 32.589 28.8826 33.1875 28.6136C33.7898 28.3409 34.4621 28.2045 35.2045 28.2045C35.9545 28.2045 36.6212 28.339 37.2045 28.608C37.7879 28.8731 38.25 29.2367 38.5909 29.6989C38.9356 30.161 39.1174 30.6856 39.1364 31.2727H37.7727ZM41.4304 43.2727V31.2727H42.7259V32.6591H42.8849C42.9834 32.5076 43.1198 32.3144 43.294 32.0795C43.4721 31.8409 43.7259 31.6288 44.0554 31.4432C44.3887 31.2538 44.8395 31.1591 45.4077 31.1591C46.1425 31.1591 46.7902 31.3428 47.3509 31.7102C47.9115 32.0777 48.349 32.5985 48.6634 33.2727C48.9777 33.947 49.1349 34.7424 49.1349 35.6591C49.1349 36.5833 48.9777 37.3845 48.6634 38.0625C48.349 38.7367 47.9134 39.2595 47.3565 39.6307C46.7997 39.9981 46.1577 40.1818 45.4304 40.1818C44.8698 40.1818 44.4209 40.089 44.0838 39.9034C43.7467 39.714 43.4872 39.5 43.3054 39.2614C43.1236 39.0189 42.9834 38.8182 42.8849 38.6591H42.7713V43.2727H41.4304ZM42.7486 35.6364C42.7486 36.2955 42.8452 36.8769 43.0384 37.3807C43.2315 37.8807 43.5137 38.2727 43.8849 38.5568C44.2562 38.8371 44.7107 38.9773 45.2486 38.9773C45.8092 38.9773 46.277 38.8295 46.652 38.5341C47.0308 38.2348 47.3149 37.8333 47.5043 37.3295C47.6974 36.822 47.794 36.2576 47.794 35.6364C47.794 35.0227 47.6993 34.4697 47.5099 33.9773C47.3243 33.4811 47.0421 33.089 46.6634 32.8011C46.2884 32.5095 45.8168 32.3636 45.2486 32.3636C44.7031 32.3636 44.2448 32.5019 43.8736 32.7784C43.5024 33.0511 43.2221 33.4337 43.0327 33.9261C42.8433 34.4148 42.7486 34.9848 42.7486 35.6364ZM51.1804 40V31.2727H52.5213V40H51.1804ZM51.8622 29.8182C51.6009 29.8182 51.3755 29.7292 51.1861 29.5511C51.0005 29.3731 50.9077 29.1591 50.9077 28.9091C50.9077 28.6591 51.0005 28.4451 51.1861 28.267C51.3755 28.089 51.6009 28 51.8622 28C52.1236 28 52.3471 28.089 52.5327 28.267C52.7221 28.4451 52.8168 28.6591 52.8168 28.9091C52.8168 29.1591 52.7221 29.3731 52.5327 29.5511C52.3471 29.7292 52.1236 29.8182 51.8622 29.8182ZM56.3182 34.75V40H54.9773V31.2727H56.2727V32.6364H56.3864C56.5909 32.1932 56.9015 31.8371 57.3182 31.5682C57.7348 31.2955 58.2727 31.1591 58.9318 31.1591C59.5227 31.1591 60.0398 31.2803 60.483 31.5227C60.9261 31.7614 61.2708 32.125 61.517 32.6136C61.7633 33.0985 61.8864 33.7121 61.8864 34.4545V40H60.5455V34.5455C60.5455 33.8598 60.3674 33.3258 60.0114 32.9432C59.6553 32.5568 59.1667 32.3636 58.5455 32.3636C58.1174 32.3636 57.7348 32.4564 57.3977 32.642C57.0644 32.8277 56.8011 33.0985 56.608 33.4545C56.4148 33.8106 56.3182 34.2424 56.3182 34.75ZM65.6776 34.75V40H64.3366V31.2727H65.6321V32.6364H65.7457C65.9503 32.1932 66.2609 31.8371 66.6776 31.5682C67.0942 31.2955 67.6321 31.1591 68.2912 31.1591C68.8821 31.1591 69.3991 31.2803 69.8423 31.5227C70.2855 31.7614 70.6302 32.125 70.8764 32.6136C71.1226 33.0985 71.2457 33.7121 71.2457 34.4545V40H69.9048V34.5455C69.9048 33.8598 69.7268 33.3258 69.3707 32.9432C69.0147 32.5568 68.526 32.3636 67.9048 32.3636C67.4768 32.3636 67.0942 32.4564 66.7571 32.642C66.4238 32.8277 66.1605 33.0985 65.9673 33.4545C65.7741 33.8106 65.6776 34.2424 65.6776 34.75ZM77.3551 40.1818C76.5142 40.1818 75.7888 39.9962 75.179 39.625C74.5729 39.25 74.1051 38.7273 73.7756 38.0568C73.4498 37.3826 73.2869 36.5985 73.2869 35.7045C73.2869 34.8106 73.4498 34.0227 73.7756 33.3409C74.1051 32.6553 74.5634 32.1212 75.1506 31.7386C75.7415 31.3523 76.4309 31.1591 77.2188 31.1591C77.6733 31.1591 78.1222 31.2348 78.5653 31.3864C79.0085 31.5379 79.4119 31.7841 79.7756 32.125C80.1392 32.4621 80.429 32.9091 80.6449 33.4659C80.8608 34.0227 80.9688 34.7083 80.9688 35.5227V36.0909H74.2415V34.9318H79.6051C79.6051 34.4394 79.5066 34 79.3097 33.6136C79.1165 33.2273 78.84 32.9223 78.4801 32.6989C78.1241 32.4754 77.7036 32.3636 77.2188 32.3636C76.6847 32.3636 76.2225 32.4962 75.8324 32.7614C75.446 33.0227 75.1487 33.3636 74.9403 33.7841C74.732 34.2045 74.6278 34.6553 74.6278 35.1364V35.9091C74.6278 36.5682 74.7415 37.1269 74.9688 37.5852C75.1998 38.0398 75.5199 38.3864 75.929 38.625C76.3381 38.8598 76.8134 38.9773 77.3551 38.9773C77.7074 38.9773 78.0256 38.928 78.3097 38.8295C78.5975 38.7273 78.8456 38.5758 79.054 38.375C79.2623 38.1705 79.4233 37.9167 79.5369 37.6136L80.8324 37.9773C80.696 38.4167 80.4669 38.803 80.1449 39.1364C79.8229 39.4659 79.4252 39.7235 78.9517 39.9091C78.4782 40.0909 77.946 40.1818 77.3551 40.1818ZM83.0085 40V31.2727H84.304V32.5909H84.3949C84.554 32.1591 84.8419 31.8087 85.2585 31.5398C85.6752 31.2708 86.1449 31.1364 86.6676 31.1364C86.7661 31.1364 86.8892 31.1383 87.0369 31.142C87.1847 31.1458 87.2964 31.1515 87.3722 31.1591V32.5227C87.3267 32.5114 87.2225 32.4943 87.0597 32.4716C86.9006 32.4451 86.732 32.4318 86.554 32.4318C86.1297 32.4318 85.7509 32.5208 85.4176 32.6989C85.0881 32.8731 84.8267 33.1155 84.6335 33.4261C84.4441 33.733 84.3494 34.0833 84.3494 34.4773V40H83.0085ZM98.4616 34.3864V35.6364H93.3707V34.3864H98.4616ZM106.912 28.3636V40H105.503V28.3636H106.912ZM110.896 34.75V40H109.555V31.2727H110.851V32.6364H110.964C111.169 32.1932 111.48 31.8371 111.896 31.5682C112.313 31.2955 112.851 31.1591 113.51 31.1591C114.101 31.1591 114.618 31.2803 115.061 31.5227C115.504 31.7614 115.849 32.125 116.095 32.6136C116.341 33.0985 116.464 33.7121 116.464 34.4545V40H115.124V34.5455C115.124 33.8598 114.946 33.3258 114.589 32.9432C114.233 32.5568 113.745 32.3636 113.124 32.3636C112.696 32.3636 112.313 32.4564 111.976 32.642C111.643 32.8277 111.379 33.0985 111.186 33.4545C110.993 33.8106 110.896 34.2424 110.896 34.75ZM122.21 40.1818C121.483 40.1818 120.841 39.9981 120.284 39.6307C119.727 39.2595 119.292 38.7367 118.977 38.0625C118.663 37.3845 118.506 36.5833 118.506 35.6591C118.506 34.7424 118.663 33.947 118.977 33.2727C119.292 32.5985 119.729 32.0777 120.29 31.7102C120.85 31.3428 121.498 31.1591 122.233 31.1591C122.801 31.1591 123.25 31.2538 123.58 31.4432C123.913 31.6288 124.167 31.8409 124.341 32.0795C124.519 32.3144 124.657 32.5076 124.756 32.6591H124.869V28.3636H126.21V40H124.915V38.6591H124.756C124.657 38.8182 124.517 39.0189 124.335 39.2614C124.153 39.5 123.894 39.714 123.557 39.9034C123.22 40.089 122.771 40.1818 122.21 40.1818ZM122.392 38.9773C122.93 38.9773 123.384 38.8371 123.756 38.5568C124.127 38.2727 124.409 37.8807 124.602 37.3807C124.795 36.8769 124.892 36.2955 124.892 35.6364C124.892 34.9848 124.797 34.4148 124.608 33.9261C124.419 33.4337 124.138 33.0511 123.767 32.7784C123.396 32.5019 122.938 32.3636 122.392 32.3636C121.824 32.3636 121.35 32.5095 120.972 32.8011C120.597 33.089 120.314 33.4811 120.125 33.9773C119.939 34.4697 119.847 35.0227 119.847 35.6364C119.847 36.2576 119.941 36.822 120.131 37.3295C120.324 37.8333 120.608 38.2348 120.983 38.5341C121.362 38.8295 121.831 38.9773 122.392 38.9773ZM132.511 40.1818C131.67 40.1818 130.945 39.9962 130.335 39.625C129.729 39.25 129.261 38.7273 128.932 38.0568C128.606 37.3826 128.443 36.5985 128.443 35.7045C128.443 34.8106 128.606 34.0227 128.932 33.3409C129.261 32.6553 129.72 32.1212 130.307 31.7386C130.898 31.3523 131.587 31.1591 132.375 31.1591C132.83 31.1591 133.278 31.2348 133.722 31.3864C134.165 31.5379 134.568 31.7841 134.932 32.125C135.295 32.4621 135.585 32.9091 135.801 33.4659C136.017 34.0227 136.125 34.7083 136.125 35.5227V36.0909H129.398V34.9318H134.761C134.761 34.4394 134.663 34 134.466 33.6136C134.273 33.2273 133.996 32.9223 133.636 32.6989C133.28 32.4754 132.86 32.3636 132.375 32.3636C131.841 32.3636 131.379 32.4962 130.989 32.7614C130.602 33.0227 130.305 33.3636 130.097 33.7841C129.888 34.2045 129.784 34.6553 129.784 35.1364V35.9091C129.784 36.5682 129.898 37.1269 130.125 37.5852C130.356 38.0398 130.676 38.3864 131.085 38.625C131.494 38.8598 131.97 38.9773 132.511 38.9773C132.864 38.9773 133.182 38.928 133.466 38.8295C133.754 38.7273 134.002 38.5758 134.21 38.375C134.419 38.1705 134.58 37.9167 134.693 37.6136L135.989 37.9773C135.852 38.4167 135.623 38.803 135.301 39.1364C134.979 39.4659 134.581 39.7235 134.108 39.9091C133.634 40.0909 133.102 40.1818 132.511 40.1818ZM141.96 31.2727V32.4091H137.438V31.2727H141.96ZM138.756 29.1818H140.097V37.5C140.097 37.8788 140.152 38.1629 140.261 38.3523C140.375 38.5379 140.519 38.6629 140.693 38.7273C140.871 38.7879 141.059 38.8182 141.256 38.8182C141.403 38.8182 141.525 38.8106 141.619 38.7955C141.714 38.7765 141.79 38.7614 141.847 38.75L142.119 39.9545C142.028 39.9886 141.902 40.0227 141.739 40.0568C141.576 40.0947 141.369 40.1136 141.119 40.1136C140.741 40.1136 140.369 40.0322 140.006 39.8693C139.646 39.7064 139.347 39.4583 139.108 39.125C138.873 38.7917 138.756 38.3712 138.756 37.8636V29.1818ZM147.543 40.1818C146.702 40.1818 145.976 39.9962 145.366 39.625C144.76 39.25 144.293 38.7273 143.963 38.0568C143.637 37.3826 143.474 36.5985 143.474 35.7045C143.474 34.8106 143.637 34.0227 143.963 33.3409C144.293 32.6553 144.751 32.1212 145.338 31.7386C145.929 31.3523 146.618 31.1591 147.406 31.1591C147.861 31.1591 148.31 31.2348 148.753 31.3864C149.196 31.5379 149.599 31.7841 149.963 32.125C150.327 32.4621 150.616 32.9091 150.832 33.4659C151.048 34.0227 151.156 34.7083 151.156 35.5227V36.0909H144.429V34.9318H149.793C149.793 34.4394 149.694 34 149.497 33.6136C149.304 33.2273 149.027 32.9223 148.668 32.6989C148.312 32.4754 147.891 32.3636 147.406 32.3636C146.872 32.3636 146.41 32.4962 146.02 32.7614C145.634 33.0227 145.336 33.3636 145.128 33.7841C144.92 34.2045 144.815 34.6553 144.815 35.1364V35.9091C144.815 36.5682 144.929 37.1269 145.156 37.5852C145.387 38.0398 145.707 38.3864 146.116 38.625C146.526 38.8598 147.001 38.9773 147.543 38.9773C147.895 38.9773 148.213 38.928 148.497 38.8295C148.785 38.7273 149.033 38.5758 149.241 38.375C149.45 38.1705 149.611 37.9167 149.724 37.6136L151.02 37.9773C150.884 38.4167 150.654 38.803 150.332 39.1364C150.01 39.4659 149.613 39.7235 149.139 39.9091C148.666 40.0909 148.134 40.1818 147.543 40.1818ZM153.196 40V31.2727H154.491V32.5909H154.582C154.741 32.1591 155.029 31.8087 155.446 31.5398C155.863 31.2708 156.332 31.1364 156.855 31.1364C156.954 31.1364 157.077 31.1383 157.224 31.142C157.372 31.1458 157.484 31.1515 157.56 31.1591V32.5227C157.514 32.5114 157.41 32.4943 157.247 32.4716C157.088 32.4451 156.92 32.4318 156.741 32.4318C156.317 32.4318 155.938 32.5208 155.605 32.6989C155.276 32.8731 155.014 33.1155 154.821 33.4261C154.632 33.733 154.537 34.0833 154.537 34.4773V40H153.196ZM159.149 40V31.2727H160.445V32.6364H160.558C160.74 32.1705 161.034 31.8087 161.439 31.5511C161.844 31.2898 162.331 31.1591 162.899 31.1591C163.475 31.1591 163.954 31.2898 164.337 31.5511C164.723 31.8087 165.024 32.1705 165.24 32.6364H165.331C165.554 32.1856 165.89 31.8277 166.337 31.5625C166.784 31.2936 167.32 31.1591 167.945 31.1591C168.725 31.1591 169.363 31.4034 169.859 31.892C170.356 32.3769 170.604 33.1326 170.604 34.1591V40H169.263V34.1591C169.263 33.5152 169.087 33.0549 168.734 32.7784C168.382 32.5019 167.967 32.3636 167.49 32.3636C166.876 32.3636 166.401 32.5492 166.064 32.9205C165.727 33.2879 165.558 33.7538 165.558 34.3182V40H164.195V34.0227C164.195 33.5265 164.034 33.1269 163.712 32.8239C163.39 32.517 162.975 32.3636 162.467 32.3636C162.119 32.3636 161.793 32.4564 161.49 32.642C161.191 32.8277 160.948 33.0852 160.763 33.4148C160.581 33.7405 160.49 34.1174 160.49 34.5455V40H159.149ZM173.055 40V31.2727H174.396V40H173.055ZM173.737 29.8182C173.476 29.8182 173.25 29.7292 173.061 29.5511C172.875 29.3731 172.783 29.1591 172.783 28.9091C172.783 28.6591 172.875 28.4451 173.061 28.267C173.25 28.089 173.476 28 173.737 28C173.999 28 174.222 28.089 174.408 28.267C174.597 28.4451 174.692 28.6591 174.692 28.9091C174.692 29.1591 174.597 29.3731 174.408 29.5511C174.222 29.7292 173.999 29.8182 173.737 29.8182ZM178.193 34.75V40H176.852V31.2727H178.148V32.6364H178.261C178.466 32.1932 178.777 31.8371 179.193 31.5682C179.61 31.2955 180.148 31.1591 180.807 31.1591C181.398 31.1591 181.915 31.2803 182.358 31.5227C182.801 31.7614 183.146 32.125 183.392 32.6136C183.638 33.0985 183.761 33.7121 183.761 34.4545V40H182.42V34.5455C182.42 33.8598 182.242 33.3258 181.886 32.9432C181.53 32.5568 181.042 32.3636 180.42 32.3636C179.992 32.3636 179.61 32.4564 179.273 32.642C178.939 32.8277 178.676 33.0985 178.483 33.4545C178.29 33.8106 178.193 34.2424 178.193 34.75ZM188.78 40.2045C188.227 40.2045 187.725 40.1004 187.274 39.892C186.823 39.6799 186.465 39.375 186.2 38.9773C185.935 38.5758 185.803 38.0909 185.803 37.5227C185.803 37.0227 185.901 36.6174 186.098 36.3068C186.295 35.9924 186.558 35.7462 186.888 35.5682C187.217 35.3902 187.581 35.2576 187.979 35.1705C188.38 35.0795 188.784 35.0076 189.189 34.9545C189.719 34.8864 190.149 34.8352 190.479 34.8011C190.812 34.7633 191.054 34.7008 191.206 34.6136C191.361 34.5265 191.439 34.375 191.439 34.1591V34.1136C191.439 33.553 191.286 33.1174 190.979 32.8068C190.676 32.4962 190.215 32.3409 189.598 32.3409C188.958 32.3409 188.456 32.4811 188.092 32.7614C187.729 33.0417 187.473 33.3409 187.325 33.6591L186.053 33.2045C186.28 32.6742 186.583 32.2614 186.962 31.9659C187.344 31.6667 187.761 31.4583 188.212 31.3409C188.666 31.2197 189.113 31.1591 189.553 31.1591C189.833 31.1591 190.155 31.1932 190.518 31.2614C190.886 31.3258 191.24 31.4602 191.581 31.6648C191.926 31.8693 192.212 32.178 192.439 32.5909C192.666 33.0038 192.78 33.5568 192.78 34.25V40H191.439V38.8182H191.371C191.28 39.0076 191.128 39.2102 190.916 39.4261C190.704 39.642 190.422 39.8258 190.07 39.9773C189.717 40.1288 189.287 40.2045 188.78 40.2045ZM188.984 39C189.515 39 189.962 38.8958 190.325 38.6875C190.693 38.4792 190.969 38.2102 191.155 37.8807C191.344 37.5511 191.439 37.2045 191.439 36.8409V35.6136C191.382 35.6818 191.257 35.7443 191.064 35.8011C190.875 35.8542 190.655 35.9015 190.405 35.9432C190.159 35.9811 189.918 36.0152 189.683 36.0455C189.452 36.072 189.265 36.0947 189.121 36.1136C188.772 36.1591 188.446 36.233 188.143 36.3352C187.844 36.4337 187.602 36.5833 187.416 36.7841C187.234 36.9811 187.143 37.25 187.143 37.5909C187.143 38.0568 187.316 38.4091 187.661 38.6477C188.009 38.8826 188.45 39 188.984 39ZM199.023 31.2727V32.4091H194.5V31.2727H199.023ZM195.818 29.1818H197.159V37.5C197.159 37.8788 197.214 38.1629 197.324 38.3523C197.438 38.5379 197.581 38.6629 197.756 38.7273C197.934 38.7879 198.121 38.8182 198.318 38.8182C198.466 38.8182 198.587 38.8106 198.682 38.7955C198.777 38.7765 198.852 38.7614 198.909 38.75L199.182 39.9545C199.091 39.9886 198.964 40.0227 198.801 40.0568C198.638 40.0947 198.432 40.1136 198.182 40.1136C197.803 40.1136 197.432 40.0322 197.068 39.8693C196.708 39.7064 196.409 39.4583 196.17 39.125C195.936 38.7917 195.818 38.3712 195.818 37.8636V29.1818ZM204.605 40.1818C203.764 40.1818 203.039 39.9962 202.429 39.625C201.823 39.25 201.355 38.7273 201.026 38.0568C200.7 37.3826 200.537 36.5985 200.537 35.7045C200.537 34.8106 200.7 34.0227 201.026 33.3409C201.355 32.6553 201.813 32.1212 202.401 31.7386C202.991 31.3523 203.681 31.1591 204.469 31.1591C204.923 31.1591 205.372 31.2348 205.815 31.3864C206.259 31.5379 206.662 31.7841 207.026 32.125C207.389 32.4621 207.679 32.9091 207.895 33.4659C208.111 34.0227 208.219 34.7083 208.219 35.5227V36.0909H201.491V34.9318H206.855C206.855 34.4394 206.757 34 206.56 33.6136C206.366 33.2273 206.09 32.9223 205.73 32.6989C205.374 32.4754 204.954 32.3636 204.469 32.3636C203.935 32.3636 203.473 32.4962 203.082 32.7614C202.696 33.0227 202.399 33.3636 202.19 33.7841C201.982 34.2045 201.878 34.6553 201.878 35.1364V35.9091C201.878 36.5682 201.991 37.1269 202.219 37.5852C202.45 38.0398 202.77 38.3864 203.179 38.625C203.588 38.8598 204.063 38.9773 204.605 38.9773C204.957 38.9773 205.276 38.928 205.56 38.8295C205.848 38.7273 206.096 38.5758 206.304 38.375C206.512 38.1705 206.673 37.9167 206.787 37.6136L208.082 37.9773C207.946 38.4167 207.717 38.803 207.395 39.1364C207.073 39.4659 206.675 39.7235 206.202 39.9091C205.728 40.0909 205.196 40.1818 204.605 40.1818Z" fill="white" fill-opacity="0.95"/>
<mask id="path-4-inside-2_1508_5586" fill="white">
<path d="M433.333 0H866.667V68H433.333V0Z"/>
</mask>
<path d="M865.667 0V68H867.667V0H865.667Z" fill="#707070" mask="url(#path-4-inside-2_1508_5586)"/>
<path d="M471.106 31.2727C471.038 30.697 470.761 30.25 470.276 29.9318C469.792 29.6136 469.197 29.4545 468.492 29.4545C467.977 29.4545 467.526 29.5379 467.14 29.7045C466.757 29.8712 466.458 30.1004 466.242 30.392C466.03 30.6837 465.924 31.0152 465.924 31.3864C465.924 31.697 465.998 31.964 466.146 32.1875C466.297 32.4072 466.49 32.5909 466.725 32.7386C466.96 32.8826 467.206 33.0019 467.464 33.0966C467.722 33.1875 467.958 33.2614 468.174 33.3182L469.356 33.6364C469.659 33.7159 469.996 33.8258 470.367 33.9659C470.742 34.1061 471.1 34.2973 471.441 34.5398C471.786 34.7784 472.07 35.0852 472.293 35.4602C472.517 35.8352 472.629 36.2955 472.629 36.8409C472.629 37.4697 472.464 38.0379 472.134 38.5455C471.809 39.053 471.331 39.4564 470.703 39.7557C470.078 40.0549 469.318 40.2045 468.424 40.2045C467.591 40.2045 466.869 40.0701 466.259 39.8011C465.653 39.5322 465.176 39.1572 464.828 38.6761C464.483 38.1951 464.288 37.6364 464.242 37H465.697C465.735 37.4394 465.882 37.803 466.14 38.0909C466.401 38.375 466.731 38.5871 467.129 38.7273C467.53 38.8636 467.962 38.9318 468.424 38.9318C468.962 38.9318 469.445 38.8447 469.873 38.6705C470.301 38.4924 470.64 38.2462 470.89 37.9318C471.14 37.6136 471.265 37.2424 471.265 36.8182C471.265 36.4318 471.157 36.1174 470.941 35.875C470.725 35.6326 470.441 35.4356 470.089 35.2841C469.737 35.1326 469.356 35 468.947 34.8864L467.515 34.4773C466.606 34.2159 465.886 33.8428 465.356 33.358C464.826 32.8731 464.561 32.2386 464.561 31.4545C464.561 30.803 464.737 30.2348 465.089 29.75C465.445 29.2614 465.922 28.8826 466.521 28.6136C467.123 28.3409 467.795 28.2045 468.538 28.2045C469.288 28.2045 469.954 28.339 470.538 28.608C471.121 28.8731 471.583 29.2367 471.924 29.6989C472.269 30.161 472.451 30.6856 472.47 31.2727H471.106ZM474.764 43.2727V31.2727H476.059V32.6591H476.218C476.317 32.5076 476.453 32.3144 476.627 32.0795C476.805 31.8409 477.059 31.6288 477.389 31.4432C477.722 31.2538 478.173 31.1591 478.741 31.1591C479.476 31.1591 480.123 31.3428 480.684 31.7102C481.245 32.0777 481.682 32.5985 481.997 33.2727C482.311 33.947 482.468 34.7424 482.468 35.6591C482.468 36.5833 482.311 37.3845 481.997 38.0625C481.682 38.7367 481.247 39.2595 480.69 39.6307C480.133 39.9981 479.491 40.1818 478.764 40.1818C478.203 40.1818 477.754 40.089 477.417 39.9034C477.08 39.714 476.82 39.5 476.639 39.2614C476.457 39.0189 476.317 38.8182 476.218 38.6591H476.105V43.2727H474.764ZM476.082 35.6364C476.082 36.2955 476.178 36.8769 476.372 37.3807C476.565 37.8807 476.847 38.2727 477.218 38.5568C477.589 38.8371 478.044 38.9773 478.582 38.9773C479.142 38.9773 479.61 38.8295 479.985 38.5341C480.364 38.2348 480.648 37.8333 480.838 37.3295C481.031 36.822 481.127 36.2576 481.127 35.6364C481.127 35.0227 481.033 34.4697 480.843 33.9773C480.658 33.4811 480.375 33.089 479.997 32.8011C479.622 32.5095 479.15 32.3636 478.582 32.3636C478.036 32.3636 477.578 32.5019 477.207 32.7784C476.836 33.0511 476.555 33.4337 476.366 33.9261C476.177 34.4148 476.082 34.9848 476.082 35.6364ZM484.514 40V31.2727H485.855V40H484.514ZM485.195 29.8182C484.934 29.8182 484.709 29.7292 484.519 29.5511C484.334 29.3731 484.241 29.1591 484.241 28.9091C484.241 28.6591 484.334 28.4451 484.519 28.267C484.709 28.089 484.934 28 485.195 28C485.457 28 485.68 28.089 485.866 28.267C486.055 28.4451 486.15 28.6591 486.15 28.9091C486.15 29.1591 486.055 29.3731 485.866 29.5511C485.68 29.7292 485.457 29.8182 485.195 29.8182ZM489.651 34.75V40H488.311V31.2727H489.606V32.6364H489.72C489.924 32.1932 490.235 31.8371 490.651 31.5682C491.068 31.2955 491.606 31.1591 492.265 31.1591C492.856 31.1591 493.373 31.2803 493.816 31.5227C494.259 31.7614 494.604 32.125 494.85 32.6136C495.097 33.0985 495.22 33.7121 495.22 34.4545V40H493.879V34.5455C493.879 33.8598 493.701 33.3258 493.345 32.9432C492.989 32.5568 492.5 32.3636 491.879 32.3636C491.451 32.3636 491.068 32.4564 490.731 32.642C490.398 32.8277 490.134 33.0985 489.941 33.4545C489.748 33.8106 489.651 34.2424 489.651 34.75ZM499.011 34.75V40H497.67V31.2727H498.965V32.6364H499.079C499.284 32.1932 499.594 31.8371 500.011 31.5682C500.427 31.2955 500.965 31.1591 501.624 31.1591C502.215 31.1591 502.732 31.2803 503.176 31.5227C503.619 31.7614 503.963 32.125 504.21 32.6136C504.456 33.0985 504.579 33.7121 504.579 34.4545V40H503.238V34.5455C503.238 33.8598 503.06 33.3258 502.704 32.9432C502.348 32.5568 501.859 32.3636 501.238 32.3636C500.81 32.3636 500.427 32.4564 500.09 32.642C499.757 32.8277 499.494 33.0985 499.301 33.4545C499.107 33.8106 499.011 34.2424 499.011 34.75ZM510.688 40.1818C509.847 40.1818 509.122 39.9962 508.512 39.625C507.906 39.25 507.438 38.7273 507.109 38.0568C506.783 37.3826 506.62 36.5985 506.62 35.7045C506.62 34.8106 506.783 34.0227 507.109 33.3409C507.438 32.6553 507.897 32.1212 508.484 31.7386C509.075 31.3523 509.764 31.1591 510.552 31.1591C511.007 31.1591 511.455 31.2348 511.899 31.3864C512.342 31.5379 512.745 31.7841 513.109 32.125C513.472 32.4621 513.762 32.9091 513.978 33.4659C514.194 34.0227 514.302 34.7083 514.302 35.5227V36.0909H507.575V34.9318H512.938C512.938 34.4394 512.84 34 512.643 33.6136C512.45 33.2273 512.173 32.9223 511.813 32.6989C511.457 32.4754 511.037 32.3636 510.552 32.3636C510.018 32.3636 509.556 32.4962 509.166 32.7614C508.779 33.0227 508.482 33.3636 508.274 33.7841C508.065 34.2045 507.961 34.6553 507.961 35.1364V35.9091C507.961 36.5682 508.075 37.1269 508.302 37.5852C508.533 38.0398 508.853 38.3864 509.262 38.625C509.671 38.8598 510.147 38.9773 510.688 38.9773C511.041 38.9773 511.359 38.928 511.643 38.8295C511.931 38.7273 512.179 38.5758 512.387 38.375C512.596 38.1705 512.757 37.9167 512.87 37.6136L514.166 37.9773C514.029 38.4167 513.8 38.803 513.478 39.1364C513.156 39.4659 512.758 39.7235 512.285 39.9091C511.811 40.0909 511.279 40.1818 510.688 40.1818ZM516.342 40V31.2727H517.637V32.5909H517.728C517.887 32.1591 518.175 31.8087 518.592 31.5398C519.008 31.2708 519.478 31.1364 520.001 31.1364C520.099 31.1364 520.222 31.1383 520.37 31.142C520.518 31.1458 520.63 31.1515 520.705 31.1591V32.5227C520.66 32.5114 520.556 32.4943 520.393 32.4716C520.234 32.4451 520.065 32.4318 519.887 32.4318C519.463 32.4318 519.084 32.5208 518.751 32.6989C518.421 32.8731 518.16 33.1155 517.967 33.4261C517.777 33.733 517.683 34.0833 517.683 34.4773V40H516.342Z" fill="white" fill-opacity="0.95"/>
<mask id="path-7-inside-3_1508_5586" fill="white">
<path d="M866.667 0H1300V68H866.667V0Z"/>
</mask>
<path d="M1300 0H1301V-1H1300V0ZM1300 68V69H1301V68H1300ZM866.667 1H1300V-1H866.667V1ZM1299 0V68H1301V0H1299ZM1300 67H866.667V69H1300V67Z" fill="white" fill-opacity="0.3" mask="url(#path-7-inside-3_1508_5586)"/>
<path d="M901.439 40.1818C900.621 40.1818 899.917 39.9886 899.326 39.6023C898.735 39.2159 898.28 38.6837 897.962 38.0057C897.644 37.3277 897.485 36.553 897.485 35.6818C897.485 34.7955 897.648 34.0133 897.973 33.3352C898.303 32.6534 898.761 32.1212 899.348 31.7386C899.939 31.3523 900.629 31.1591 901.417 31.1591C902.03 31.1591 902.583 31.2727 903.076 31.5C903.568 31.7273 903.971 32.0455 904.286 32.4545C904.6 32.8636 904.795 33.3409 904.871 33.8864H903.53C903.428 33.4886 903.201 33.1364 902.848 32.8295C902.5 32.5189 902.03 32.3636 901.439 32.3636C900.917 32.3636 900.458 32.5 900.064 32.7727C899.674 33.0417 899.369 33.4223 899.149 33.9148C898.934 34.4034 898.826 34.9773 898.826 35.6364C898.826 36.3106 898.932 36.8977 899.144 37.3977C899.36 37.8977 899.663 38.286 900.053 38.5625C900.447 38.839 900.909 38.9773 901.439 38.9773C901.788 38.9773 902.104 38.9167 902.388 38.7955C902.672 38.6742 902.913 38.5 903.11 38.2727C903.307 38.0455 903.447 37.7727 903.53 37.4545H904.871C904.795 37.9697 904.608 38.4337 904.309 38.8466C904.013 39.2557 903.621 39.5814 903.132 39.8239C902.648 40.0625 902.083 40.1818 901.439 40.1818ZM910.377 40.1818C909.589 40.1818 908.898 39.9943 908.303 39.6193C907.712 39.2443 907.25 38.7197 906.917 38.0455C906.587 37.3712 906.422 36.5833 906.422 35.6818C906.422 34.7727 906.587 33.9792 906.917 33.3011C907.25 32.6231 907.712 32.0966 908.303 31.7216C908.898 31.3466 909.589 31.1591 910.377 31.1591C911.165 31.1591 911.854 31.3466 912.445 31.7216C913.04 32.0966 913.502 32.6231 913.831 33.3011C914.165 33.9792 914.331 34.7727 914.331 35.6818C914.331 36.5833 914.165 37.3712 913.831 38.0455C913.502 38.7197 913.04 39.2443 912.445 39.6193C911.854 39.9943 911.165 40.1818 910.377 40.1818ZM910.377 38.9773C910.975 38.9773 911.468 38.8239 911.854 38.517C912.24 38.2102 912.526 37.8068 912.712 37.3068C912.898 36.8068 912.99 36.2652 912.99 35.6818C912.99 35.0985 912.898 34.5549 912.712 34.0511C912.526 33.5473 912.24 33.1402 911.854 32.8295C911.468 32.5189 910.975 32.3636 910.377 32.3636C909.778 32.3636 909.286 32.5189 908.899 32.8295C908.513 33.1402 908.227 33.5473 908.042 34.0511C907.856 34.5549 907.763 35.0985 907.763 35.6818C907.763 36.2652 907.856 36.8068 908.042 37.3068C908.227 37.8068 908.513 38.2102 908.899 38.517C909.286 38.8239 909.778 38.9773 910.377 38.9773ZM917.719 28.3636V40H916.378V28.3636H917.719ZM923.72 40.1818C922.933 40.1818 922.241 39.9943 921.647 39.6193C921.056 39.2443 920.594 38.7197 920.26 38.0455C919.931 37.3712 919.766 36.5833 919.766 35.6818C919.766 34.7727 919.931 33.9792 920.26 33.3011C920.594 32.6231 921.056 32.0966 921.647 31.7216C922.241 31.3466 922.933 31.1591 923.72 31.1591C924.508 31.1591 925.198 31.3466 925.789 31.7216C926.383 32.0966 926.845 32.6231 927.175 33.3011C927.508 33.9792 927.675 34.7727 927.675 35.6818C927.675 36.5833 927.508 37.3712 927.175 38.0455C926.845 38.7197 926.383 39.2443 925.789 39.6193C925.198 39.9943 924.508 40.1818 923.72 40.1818ZM923.72 38.9773C924.319 38.9773 924.811 38.8239 925.198 38.517C925.584 38.2102 925.87 37.8068 926.056 37.3068C926.241 36.8068 926.334 36.2652 926.334 35.6818C926.334 35.0985 926.241 34.5549 926.056 34.0511C925.87 33.5473 925.584 33.1402 925.198 32.8295C924.811 32.5189 924.319 32.3636 923.72 32.3636C923.122 32.3636 922.63 32.5189 922.243 32.8295C921.857 33.1402 921.571 33.5473 921.385 34.0511C921.2 34.5549 921.107 35.0985 921.107 35.6818C921.107 36.2652 921.2 36.8068 921.385 37.3068C921.571 37.8068 921.857 38.2102 922.243 38.517C922.63 38.8239 923.122 38.9773 923.72 38.9773ZM929.722 40V31.2727H931.017V32.5909H931.108C931.267 32.1591 931.555 31.8087 931.972 31.5398C932.389 31.2708 932.858 31.1364 933.381 31.1364C933.479 31.1364 933.603 31.1383 933.75 31.142C933.898 31.1458 934.01 31.1515 934.086 31.1591V32.5227C934.04 32.5114 933.936 32.4943 933.773 32.4716C933.614 32.4451 933.445 32.4318 933.267 32.4318C932.843 32.4318 932.464 32.5208 932.131 32.6989C931.801 32.8731 931.54 33.1155 931.347 33.4261C931.158 33.733 931.063 34.0833 931.063 34.4773V40H929.722ZM935.652 40.0909C935.372 40.0909 935.131 39.9905 934.931 39.7898C934.73 39.589 934.63 39.3485 934.63 39.0682C934.63 38.7879 934.73 38.5473 934.931 38.3466C935.131 38.1458 935.372 38.0455 935.652 38.0455C935.933 38.0455 936.173 38.1458 936.374 38.3466C936.575 38.5473 936.675 38.7879 936.675 39.0682C936.675 39.2538 936.628 39.4242 936.533 39.5795C936.442 39.7348 936.319 39.8598 936.164 39.9545C936.012 40.0455 935.842 40.0909 935.652 40.0909ZM942.877 31.2727V32.4091H938.354V31.2727H942.877ZM939.672 29.1818H941.013V37.5C941.013 37.8788 941.068 38.1629 941.178 38.3523C941.292 38.5379 941.435 38.6629 941.61 38.7273C941.788 38.7879 941.975 38.8182 942.172 38.8182C942.32 38.8182 942.441 38.8106 942.536 38.7955C942.631 38.7765 942.706 38.7614 942.763 38.75L943.036 39.9545C942.945 39.9886 942.818 40.0227 942.655 40.0568C942.492 40.0947 942.286 40.1136 942.036 40.1136C941.657 40.1136 941.286 40.0322 940.922 39.8693C940.562 39.7064 940.263 39.4583 940.024 39.125C939.79 38.7917 939.672 38.3712 939.672 37.8636V29.1818ZM946.422 34.75V40H945.081V28.3636H946.422V32.6364H946.536C946.74 32.1856 947.047 31.8277 947.456 31.5625C947.869 31.2936 948.418 31.1591 949.104 31.1591C949.699 31.1591 950.22 31.2784 950.667 31.517C951.113 31.7519 951.46 32.1136 951.706 32.6023C951.956 33.0871 952.081 33.7045 952.081 34.4545V40H950.74V34.5455C950.74 33.8523 950.56 33.3163 950.201 32.9375C949.845 32.5549 949.35 32.3636 948.718 32.3636C948.278 32.3636 947.884 32.4564 947.536 32.642C947.191 32.8277 946.918 33.0985 946.718 33.4545C946.521 33.8106 946.422 34.2424 946.422 34.75ZM958.193 40.1818C957.353 40.1818 956.627 39.9962 956.017 39.625C955.411 39.25 954.943 38.7273 954.614 38.0568C954.288 37.3826 954.125 36.5985 954.125 35.7045C954.125 34.8106 954.288 34.0227 954.614 33.3409C954.943 32.6553 955.402 32.1212 955.989 31.7386C956.58 31.3523 957.269 31.1591 958.057 31.1591C958.512 31.1591 958.961 31.2348 959.404 31.3864C959.847 31.5379 960.25 31.7841 960.614 32.125C960.978 32.4621 961.267 32.9091 961.483 33.4659C961.699 34.0227 961.807 34.7083 961.807 35.5227V36.0909H955.08V34.9318H960.443C960.443 34.4394 960.345 34 960.148 33.6136C959.955 33.2273 959.678 32.9223 959.318 32.6989C958.962 32.4754 958.542 32.3636 958.057 32.3636C957.523 32.3636 957.061 32.4962 956.671 32.7614C956.284 33.0227 955.987 33.3636 955.779 33.7841C955.57 34.2045 955.466 34.6553 955.466 35.1364V35.9091C955.466 36.5682 955.58 37.1269 955.807 37.5852C956.038 38.0398 956.358 38.3864 956.767 38.625C957.176 38.8598 957.652 38.9773 958.193 38.9773C958.546 38.9773 958.864 38.928 959.148 38.8295C959.436 38.7273 959.684 38.5758 959.892 38.375C960.101 38.1705 960.262 37.9167 960.375 37.6136L961.671 37.9773C961.534 38.4167 961.305 38.803 960.983 39.1364C960.661 39.4659 960.264 39.7235 959.79 39.9091C959.317 40.0909 958.784 40.1818 958.193 40.1818ZM963.847 40V31.2727H965.142V32.6364H965.256C965.438 32.1705 965.731 31.8087 966.137 31.5511C966.542 31.2898 967.029 31.1591 967.597 31.1591C968.173 31.1591 968.652 31.2898 969.034 31.5511C969.421 31.8087 969.722 32.1705 969.938 32.6364H970.029C970.252 32.1856 970.587 31.8277 971.034 31.5625C971.481 31.2936 972.017 31.1591 972.642 31.1591C973.423 31.1591 974.061 31.4034 974.557 31.892C975.053 32.3769 975.301 33.1326 975.301 34.1591V40H973.961V34.1591C973.961 33.5152 973.784 33.0549 973.432 32.7784C973.08 32.5019 972.665 32.3636 972.188 32.3636C971.574 32.3636 971.099 32.5492 970.762 32.9205C970.425 33.2879 970.256 33.7538 970.256 34.3182V40H968.892V34.0227C968.892 33.5265 968.731 33.1269 968.409 32.8239C968.087 32.517 967.673 32.3636 967.165 32.3636C966.817 32.3636 966.491 32.4564 966.188 32.642C965.889 32.8277 965.646 33.0852 965.461 33.4148C965.279 33.7405 965.188 34.1174 965.188 34.5455V40H963.847ZM981.412 40.1818C980.571 40.1818 979.846 39.9962 979.236 39.625C978.63 39.25 978.162 38.7273 977.833 38.0568C977.507 37.3826 977.344 36.5985 977.344 35.7045C977.344 34.8106 977.507 34.0227 977.833 33.3409C978.162 32.6553 978.621 32.1212 979.208 31.7386C979.799 31.3523 980.488 31.1591 981.276 31.1591C981.73 31.1591 982.179 31.2348 982.622 31.3864C983.066 31.5379 983.469 31.7841 983.833 32.125C984.196 32.4621 984.486 32.9091 984.702 33.4659C984.918 34.0227 985.026 34.7083 985.026 35.5227V36.0909H978.299V34.9318H983.662C983.662 34.4394 983.564 34 983.367 33.6136C983.174 33.2273 982.897 32.9223 982.537 32.6989C982.181 32.4754 981.761 32.3636 981.276 32.3636C980.742 32.3636 980.28 32.4962 979.89 32.7614C979.503 33.0227 979.206 33.3636 978.997 33.7841C978.789 34.2045 978.685 34.6553 978.685 35.1364V35.9091C978.685 36.5682 978.799 37.1269 979.026 37.5852C979.257 38.0398 979.577 38.3864 979.986 38.625C980.395 38.8598 980.871 38.9773 981.412 38.9773C981.765 38.9773 982.083 38.928 982.367 38.8295C982.655 38.7273 982.903 38.5758 983.111 38.375C983.319 38.1705 983.48 37.9167 983.594 37.6136L984.89 37.9773C984.753 38.4167 984.524 38.803 984.202 39.1364C983.88 39.4659 983.482 39.7235 983.009 39.9091C982.535 40.0909 982.003 40.1818 981.412 40.1818ZM988.043 40.0909C987.763 40.0909 987.522 39.9905 987.321 39.7898C987.121 39.589 987.02 39.3485 987.02 39.0682C987.02 38.7879 987.121 38.5473 987.321 38.3466C987.522 38.1458 987.763 38.0455 988.043 38.0455C988.323 38.0455 988.564 38.1458 988.765 38.3466C988.965 38.5473 989.066 38.7879 989.066 39.0682C989.066 39.2538 989.018 39.4242 988.924 39.5795C988.833 39.7348 988.71 39.8598 988.554 39.9545C988.403 40.0455 988.232 40.0909 988.043 40.0909ZM995.017 40.1818C994.199 40.1818 993.495 39.9886 992.904 39.6023C992.313 39.2159 991.858 38.6837 991.54 38.0057C991.222 37.3277 991.063 36.553 991.063 35.6818C991.063 34.7955 991.226 34.0133 991.551 33.3352C991.881 32.6534 992.339 32.1212 992.926 31.7386C993.517 31.3523 994.207 31.1591 994.995 31.1591C995.608 31.1591 996.161 31.2727 996.654 31.5C997.146 31.7273 997.55 32.0455 997.864 32.4545C998.178 32.8636 998.373 33.3409 998.449 33.8864H997.108C997.006 33.4886 996.779 33.1364 996.426 32.8295C996.078 32.5189 995.608 32.3636 995.017 32.3636C994.495 32.3636 994.036 32.5 993.642 32.7727C993.252 33.0417 992.947 33.4223 992.728 33.9148C992.512 34.4034 992.404 34.9773 992.404 35.6364C992.404 36.3106 992.51 36.8977 992.722 37.3977C992.938 37.8977 993.241 38.286 993.631 38.5625C994.025 38.839 994.487 38.9773 995.017 38.9773C995.366 38.9773 995.682 38.9167 995.966 38.7955C996.25 38.6742 996.491 38.5 996.688 38.2727C996.885 38.0455 997.025 37.7727 997.108 37.4545H998.449C998.373 37.9697 998.186 38.4337 997.887 38.8466C997.591 39.2557 997.199 39.5814 996.711 39.8239C996.226 40.0625 995.661 40.1818 995.017 40.1818ZM1003.95 40.1818C1003.17 40.1818 1002.48 39.9943 1001.88 39.6193C1001.29 39.2443 1000.83 38.7197 1000.49 38.0455C1000.17 37.3712 1000 36.5833 1000 35.6818C1000 34.7727 1000.17 33.9792 1000.49 33.3011C1000.83 32.6231 1001.29 32.0966 1001.88 31.7216C1002.48 31.3466 1003.17 31.1591 1003.95 31.1591C1004.74 31.1591 1005.43 31.3466 1006.02 31.7216C1006.62 32.0966 1007.08 32.6231 1007.41 33.3011C1007.74 33.9792 1007.91 34.7727 1007.91 35.6818C1007.91 36.5833 1007.74 37.3712 1007.41 38.0455C1007.08 38.7197 1006.62 39.2443 1006.02 39.6193C1005.43 39.9943 1004.74 40.1818 1003.95 40.1818ZM1003.95 38.9773C1004.55 38.9773 1005.05 38.8239 1005.43 38.517C1005.82 38.2102 1006.1 37.8068 1006.29 37.3068C1006.48 36.8068 1006.57 36.2652 1006.57 35.6818C1006.57 35.0985 1006.48 34.5549 1006.29 34.0511C1006.1 33.5473 1005.82 33.1402 1005.43 32.8295C1005.05 32.5189 1004.55 32.3636 1003.95 32.3636C1003.36 32.3636 1002.86 32.5189 1002.48 32.8295C1002.09 33.1402 1001.81 33.5473 1001.62 34.0511C1001.43 34.5549 1001.34 35.0985 1001.34 35.6818C1001.34 36.2652 1001.43 36.8068 1001.62 37.3068C1001.81 37.8068 1002.09 38.2102 1002.48 38.517C1002.86 38.8239 1003.36 38.9773 1003.95 38.9773ZM1011.3 34.75V40H1009.96V31.2727H1011.25V32.6364H1011.37C1011.57 32.1932 1011.88 31.8371 1012.3 31.5682C1012.71 31.2955 1013.25 31.1591 1013.91 31.1591C1014.5 31.1591 1015.02 31.2803 1015.46 31.5227C1015.91 31.7614 1016.25 32.125 1016.5 32.6136C1016.74 33.0985 1016.87 33.7121 1016.87 34.4545V40H1015.52V34.5455C1015.52 33.8598 1015.35 33.3258 1014.99 32.9432C1014.63 32.5568 1014.15 32.3636 1013.52 32.3636C1013.1 32.3636 1012.71 32.4564 1012.38 32.642C1012.04 32.8277 1011.78 33.0985 1011.59 33.4545C1011.39 33.8106 1011.3 34.2424 1011.3 34.75ZM1023.11 31.2727V32.4091H1018.59V31.2727H1023.11ZM1019.91 29.1818H1021.25V37.5C1021.25 37.8788 1021.3 38.1629 1021.41 38.3523C1021.53 38.5379 1021.67 38.6629 1021.84 38.7273C1022.02 38.7879 1022.21 38.8182 1022.41 38.8182C1022.55 38.8182 1022.68 38.8106 1022.77 38.7955C1022.86 38.7765 1022.94 38.7614 1023 38.75L1023.27 39.9545C1023.18 39.9886 1023.05 40.0227 1022.89 40.0568C1022.73 40.0947 1022.52 40.1136 1022.27 40.1136C1021.89 40.1136 1021.52 40.0322 1021.16 39.8693C1020.8 39.7064 1020.5 39.4583 1020.26 39.125C1020.02 38.7917 1019.91 38.3712 1019.91 37.8636V29.1818ZM1028.69 40.1818C1027.85 40.1818 1027.13 39.9962 1026.52 39.625C1025.91 39.25 1025.44 38.7273 1025.11 38.0568C1024.79 37.3826 1024.63 36.5985 1024.63 35.7045C1024.63 34.8106 1024.79 34.0227 1025.11 33.3409C1025.44 32.6553 1025.9 32.1212 1026.49 31.7386C1027.08 31.3523 1027.77 31.1591 1028.56 31.1591C1029.01 31.1591 1029.46 31.2348 1029.9 31.3864C1030.35 31.5379 1030.75 31.7841 1031.11 32.125C1031.48 32.4621 1031.77 32.9091 1031.98 33.4659C1032.2 34.0227 1032.31 34.7083 1032.31 35.5227V36.0909H1025.58V34.9318H1030.94C1030.94 34.4394 1030.85 34 1030.65 33.6136C1030.45 33.2273 1030.18 32.9223 1029.82 32.6989C1029.46 32.4754 1029.04 32.3636 1028.56 32.3636C1028.02 32.3636 1027.56 32.4962 1027.17 32.7614C1026.78 33.0227 1026.49 33.3636 1026.28 33.7841C1026.07 34.2045 1025.97 34.6553 1025.97 35.1364V35.9091C1025.97 36.5682 1026.08 37.1269 1026.31 37.5852C1026.54 38.0398 1026.86 38.3864 1027.27 38.625C1027.68 38.8598 1028.15 38.9773 1028.69 38.9773C1029.05 38.9773 1029.36 38.928 1029.65 38.8295C1029.94 38.7273 1030.18 38.5758 1030.39 38.375C1030.6 38.1705 1030.76 37.9167 1030.88 37.6136L1032.17 37.9773C1032.03 38.4167 1031.81 38.803 1031.48 39.1364C1031.16 39.4659 1030.76 39.7235 1030.29 39.9091C1029.82 40.0909 1029.28 40.1818 1028.69 40.1818ZM1035.69 34.75V40H1034.35V31.2727H1035.64V32.6364H1035.76C1035.96 32.1932 1036.27 31.8371 1036.69 31.5682C1037.1 31.2955 1037.64 31.1591 1038.3 31.1591C1038.89 31.1591 1039.41 31.2803 1039.85 31.5227C1040.3 31.7614 1040.64 32.125 1040.89 32.6136C1041.13 33.0985 1041.26 33.7121 1041.26 34.4545V40H1039.92V34.5455C1039.92 33.8598 1039.74 33.3258 1039.38 32.9432C1039.02 32.5568 1038.54 32.3636 1037.92 32.3636C1037.49 32.3636 1037.1 32.4564 1036.77 32.642C1036.43 32.8277 1036.17 33.0985 1035.98 33.4545C1035.78 33.8106 1035.69 34.2424 1035.69 34.75ZM1047.5 31.2727V32.4091H1042.98V31.2727H1047.5ZM1044.3 29.1818H1045.64V37.5C1045.64 37.8788 1045.69 38.1629 1045.8 38.3523C1045.92 38.5379 1046.06 38.6629 1046.23 38.7273C1046.41 38.7879 1046.6 38.8182 1046.8 38.8182C1046.94 38.8182 1047.07 38.8106 1047.16 38.7955C1047.26 38.7765 1047.33 38.7614 1047.39 38.75L1047.66 39.9545C1047.57 39.9886 1047.44 40.0227 1047.28 40.0568C1047.12 40.0947 1046.91 40.1136 1046.66 40.1136C1046.28 40.1136 1045.91 40.0322 1045.55 39.8693C1045.19 39.7064 1044.89 39.4583 1044.65 39.125C1044.41 38.7917 1044.3 38.3712 1044.3 37.8636V29.1818ZM1050.5 40.0909C1050.22 40.0909 1049.98 39.9905 1049.77 39.7898C1049.57 39.589 1049.47 39.3485 1049.47 39.0682C1049.47 38.7879 1049.57 38.5473 1049.77 38.3466C1049.98 38.1458 1050.22 38.0455 1050.5 38.0455C1050.78 38.0455 1051.02 38.1458 1051.22 38.3466C1051.42 38.5473 1051.52 38.7879 1051.52 39.0682C1051.52 39.2538 1051.47 39.4242 1051.38 39.5795C1051.29 39.7348 1051.16 39.8598 1051.01 39.9545C1050.86 40.0455 1050.69 40.0909 1050.5 40.0909ZM1057.47 40.1818C1056.65 40.1818 1055.95 39.9886 1055.36 39.6023C1054.77 39.2159 1054.31 38.6837 1053.99 38.0057C1053.68 37.3277 1053.52 36.553 1053.52 35.6818C1053.52 34.7955 1053.68 34.0133 1054 33.3352C1054.33 32.6534 1054.79 32.1212 1055.38 31.7386C1055.97 31.3523 1056.66 31.1591 1057.45 31.1591C1058.06 31.1591 1058.61 31.2727 1059.11 31.5C1059.6 31.7273 1060 32.0455 1060.32 32.4545C1060.63 32.8636 1060.83 33.3409 1060.9 33.8864H1059.56C1059.46 33.4886 1059.23 33.1364 1058.88 32.8295C1058.53 32.5189 1058.06 32.3636 1057.47 32.3636C1056.95 32.3636 1056.49 32.5 1056.1 32.7727C1055.71 33.0417 1055.4 33.4223 1055.18 33.9148C1054.96 34.4034 1054.86 34.9773 1054.86 35.6364C1054.86 36.3106 1054.96 36.8977 1055.18 37.3977C1055.39 37.8977 1055.69 38.286 1056.08 38.5625C1056.48 38.839 1056.94 38.9773 1057.47 38.9773C1057.82 38.9773 1058.14 38.9167 1058.42 38.7955C1058.7 38.6742 1058.94 38.5 1059.14 38.2727C1059.34 38.0455 1059.48 37.7727 1059.56 37.4545H1060.9C1060.83 37.9697 1060.64 38.4337 1060.34 38.8466C1060.04 39.2557 1059.65 39.5814 1059.16 39.8239C1058.68 40.0625 1058.11 40.1818 1057.47 40.1818ZM1066.41 40.1818C1065.62 40.1818 1064.93 39.9943 1064.33 39.6193C1063.74 39.2443 1063.28 38.7197 1062.95 38.0455C1062.62 37.3712 1062.45 36.5833 1062.45 35.6818C1062.45 34.7727 1062.62 33.9792 1062.95 33.3011C1063.28 32.6231 1063.74 32.0966 1064.33 31.7216C1064.93 31.3466 1065.62 31.1591 1066.41 31.1591C1067.2 31.1591 1067.89 31.3466 1068.48 31.7216C1069.07 32.0966 1069.53 32.6231 1069.86 33.3011C1070.2 33.9792 1070.36 34.7727 1070.36 35.6818C1070.36 36.5833 1070.2 37.3712 1069.86 38.0455C1069.53 38.7197 1069.07 39.2443 1068.48 39.6193C1067.89 39.9943 1067.2 40.1818 1066.41 40.1818ZM1066.41 38.9773C1067.01 38.9773 1067.5 38.8239 1067.89 38.517C1068.27 38.2102 1068.56 37.8068 1068.74 37.3068C1068.93 36.8068 1069.02 36.2652 1069.02 35.6818C1069.02 35.0985 1068.93 34.5549 1068.74 34.0511C1068.56 33.5473 1068.27 33.1402 1067.89 32.8295C1067.5 32.5189 1067.01 32.3636 1066.41 32.3636C1065.81 32.3636 1065.32 32.5189 1064.93 32.8295C1064.54 33.1402 1064.26 33.5473 1064.07 34.0511C1063.89 34.5549 1063.79 35.0985 1063.79 35.6818C1063.79 36.2652 1063.89 36.8068 1064.07 37.3068C1064.26 37.8068 1064.54 38.2102 1064.93 38.517C1065.32 38.8239 1065.81 38.9773 1066.41 38.9773ZM1073.75 34.75V40H1072.41V31.2727H1073.7V32.6364H1073.82C1074.02 32.1932 1074.33 31.8371 1074.75 31.5682C1075.17 31.2955 1075.7 31.1591 1076.36 31.1591C1076.95 31.1591 1077.47 31.2803 1077.92 31.5227C1078.36 31.7614 1078.7 32.125 1078.95 32.6136C1079.2 33.0985 1079.32 33.7121 1079.32 34.4545V40H1077.98V34.5455C1077.98 33.8598 1077.8 33.3258 1077.44 32.9432C1077.09 32.5568 1076.6 32.3636 1075.98 32.3636C1075.55 32.3636 1075.17 32.4564 1074.83 32.642C1074.5 32.8277 1074.23 33.0985 1074.04 33.4545C1073.85 33.8106 1073.75 34.2424 1073.75 34.75ZM1085.56 31.2727V32.4091H1081.04V31.2727H1085.56ZM1082.36 29.1818H1083.7V37.5C1083.7 37.8788 1083.76 38.1629 1083.87 38.3523C1083.98 38.5379 1084.12 38.6629 1084.3 38.7273C1084.48 38.7879 1084.66 38.8182 1084.86 38.8182C1085.01 38.8182 1085.13 38.8106 1085.22 38.7955C1085.32 38.7765 1085.39 38.7614 1085.45 38.75L1085.72 39.9545C1085.63 39.9886 1085.51 40.0227 1085.34 40.0568C1085.18 40.0947 1084.97 40.1136 1084.72 40.1136C1084.34 40.1136 1083.97 40.0322 1083.61 39.8693C1083.25 39.7064 1082.95 39.4583 1082.71 39.125C1082.48 38.7917 1082.36 38.3712 1082.36 37.8636V29.1818ZM1087.58 40V31.2727H1088.88V32.5909H1088.97C1089.13 32.1591 1089.41 31.8087 1089.83 31.5398C1090.25 31.2708 1090.72 31.1364 1091.24 31.1364C1091.34 31.1364 1091.46 31.1383 1091.61 31.142C1091.76 31.1458 1091.87 31.1515 1091.94 31.1591V32.5227C1091.9 32.5114 1091.8 32.4943 1091.63 32.4716C1091.47 32.4451 1091.3 32.4318 1091.13 32.4318C1090.7 32.4318 1090.32 32.5208 1089.99 32.6989C1089.66 32.8731 1089.4 33.1155 1089.21 33.4261C1089.02 33.733 1088.92 34.0833 1088.92 34.4773V40H1087.58ZM1096.81 40.1818C1096.03 40.1818 1095.34 39.9943 1094.74 39.6193C1094.15 39.2443 1093.69 38.7197 1093.35 38.0455C1093.02 37.3712 1092.86 36.5833 1092.86 35.6818C1092.86 34.7727 1093.02 33.9792 1093.35 33.3011C1093.69 32.6231 1094.15 32.0966 1094.74 31.7216C1095.34 31.3466 1096.03 31.1591 1096.81 31.1591C1097.6 31.1591 1098.29 31.3466 1098.88 31.7216C1099.48 32.0966 1099.94 32.6231 1100.27 33.3011C1100.6 33.9792 1100.77 34.7727 1100.77 35.6818C1100.77 36.5833 1100.6 37.3712 1100.27 38.0455C1099.94 38.7197 1099.48 39.2443 1098.88 39.6193C1098.29 39.9943 1097.6 40.1818 1096.81 40.1818ZM1096.81 38.9773C1097.41 38.9773 1097.91 38.8239 1098.29 38.517C1098.68 38.2102 1098.96 37.8068 1099.15 37.3068C1099.34 36.8068 1099.43 36.2652 1099.43 35.6818C1099.43 35.0985 1099.34 34.5549 1099.15 34.0511C1098.96 33.5473 1098.68 33.1402 1098.29 32.8295C1097.91 32.5189 1097.41 32.3636 1096.81 32.3636C1096.22 32.3636 1095.72 32.5189 1095.34 32.8295C1094.95 33.1402 1094.66 33.5473 1094.48 34.0511C1094.29 34.5549 1094.2 35.0985 1094.2 35.6818C1094.2 36.2652 1094.29 36.8068 1094.48 37.3068C1094.66 37.8068 1094.95 38.2102 1095.34 38.517C1095.72 38.8239 1096.22 38.9773 1096.81 38.9773ZM1104.16 28.3636V40H1102.82V28.3636H1104.16ZM1107.59 40.0909C1107.31 40.0909 1107.07 39.9905 1106.87 39.7898C1106.67 39.589 1106.57 39.3485 1106.57 39.0682C1106.57 38.7879 1106.67 38.5473 1106.87 38.3466C1107.07 38.1458 1107.31 38.0455 1107.59 38.0455C1107.87 38.0455 1108.11 38.1458 1108.31 38.3466C1108.51 38.5473 1108.61 38.7879 1108.61 39.0682C1108.61 39.2538 1108.57 39.4242 1108.47 39.5795C1108.38 39.7348 1108.26 39.8598 1108.1 39.9545C1107.95 40.0455 1107.78 40.0909 1107.59 40.0909ZM1112.36 34.75V40H1111.02V31.2727H1112.31V32.6364H1112.43C1112.63 32.1932 1112.94 31.8371 1113.36 31.5682C1113.78 31.2955 1114.31 31.1591 1114.97 31.1591C1115.56 31.1591 1116.08 31.2803 1116.52 31.5227C1116.97 31.7614 1117.31 32.125 1117.56 32.6136C1117.8 33.0985 1117.93 33.7121 1117.93 34.4545V40H1116.59V34.5455C1116.59 33.8598 1116.41 33.3258 1116.05 32.9432C1115.7 32.5568 1115.21 32.3636 1114.59 32.3636C1114.16 32.3636 1113.78 32.4564 1113.44 32.642C1113.11 32.8277 1112.84 33.0985 1112.65 33.4545C1112.46 33.8106 1112.36 34.2424 1112.36 34.75ZM1124.04 40.1818C1123.2 40.1818 1122.47 39.9962 1121.86 39.625C1121.26 39.25 1120.79 38.7273 1120.46 38.0568C1120.13 37.3826 1119.97 36.5985 1119.97 35.7045C1119.97 34.8106 1120.13 34.0227 1120.46 33.3409C1120.79 32.6553 1121.25 32.1212 1121.83 31.7386C1122.42 31.3523 1123.11 31.1591 1123.9 31.1591C1124.36 31.1591 1124.8 31.2348 1125.25 31.3864C1125.69 31.5379 1126.09 31.7841 1126.46 32.125C1126.82 32.4621 1127.11 32.9091 1127.33 33.4659C1127.54 34.0227 1127.65 34.7083 1127.65 35.5227V36.0909H1120.92V34.9318H1126.29C1126.29 34.4394 1126.19 34 1125.99 33.6136C1125.8 33.2273 1125.52 32.9223 1125.16 32.6989C1124.81 32.4754 1124.39 32.3636 1123.9 32.3636C1123.37 32.3636 1122.9 32.4962 1122.51 32.7614C1122.13 33.0227 1121.83 33.3636 1121.62 33.7841C1121.41 34.2045 1121.31 34.6553 1121.31 35.1364V35.9091C1121.31 36.5682 1121.42 37.1269 1121.65 37.5852C1121.88 38.0398 1122.2 38.3864 1122.61 38.625C1123.02 38.8598 1123.5 38.9773 1124.04 38.9773C1124.39 38.9773 1124.71 38.928 1124.99 38.8295C1125.28 38.7273 1125.53 38.5758 1125.74 38.375C1125.94 38.1705 1126.11 37.9167 1126.22 37.6136L1127.51 37.9773C1127.38 38.4167 1127.15 38.803 1126.83 39.1364C1126.51 39.4659 1126.11 39.7235 1125.63 39.9091C1125.16 40.0909 1124.63 40.1818 1124.04 40.1818ZM1135.19 36.4318V31.2727H1136.53V40H1135.19V38.5227H1135.1C1134.9 38.9659 1134.58 39.3428 1134.15 39.6534C1133.71 39.9602 1133.17 40.1136 1132.51 40.1136C1131.96 40.1136 1131.48 39.9943 1131.05 39.7557C1130.63 39.5133 1130.3 39.1496 1130.05 38.6648C1129.81 38.1761 1129.69 37.5606 1129.69 36.8182V31.2727H1131.03V36.7273C1131.03 37.3636 1131.21 37.8712 1131.57 38.25C1131.93 38.6288 1132.38 38.8182 1132.94 38.8182C1133.27 38.8182 1133.61 38.733 1133.96 38.5625C1134.31 38.392 1134.6 38.1307 1134.83 37.7784C1135.07 37.4261 1135.19 36.9773 1135.19 36.4318ZM1142.78 31.2727V32.4091H1138.26V31.2727H1142.78ZM1139.58 29.1818H1140.92V37.5C1140.92 37.8788 1140.97 38.1629 1141.08 38.3523C1141.2 38.5379 1141.34 38.6629 1141.52 38.7273C1141.69 38.7879 1141.88 38.8182 1142.08 38.8182C1142.23 38.8182 1142.35 38.8106 1142.44 38.7955C1142.54 38.7765 1142.61 38.7614 1142.67 38.75L1142.94 39.9545C1142.85 39.9886 1142.72 40.0227 1142.56 40.0568C1142.4 40.0947 1142.19 40.1136 1141.94 40.1136C1141.56 40.1136 1141.19 40.0322 1140.83 39.8693C1140.47 39.7064 1140.17 39.4583 1139.93 39.125C1139.7 38.7917 1139.58 38.3712 1139.58 37.8636V29.1818ZM1144.8 40V31.2727H1146.1V32.5909H1146.19C1146.35 32.1591 1146.63 31.8087 1147.05 31.5398C1147.47 31.2708 1147.94 31.1364 1148.46 31.1364C1148.56 31.1364 1148.68 31.1383 1148.83 31.142C1148.98 31.1458 1149.09 31.1515 1149.16 31.1591V32.5227C1149.12 32.5114 1149.01 32.4943 1148.85 32.4716C1148.69 32.4451 1148.52 32.4318 1148.35 32.4318C1147.92 32.4318 1147.54 32.5208 1147.21 32.6989C1146.88 32.8731 1146.62 33.1155 1146.43 33.4261C1146.24 33.733 1146.14 34.0833 1146.14 34.4773V40H1144.8ZM1153.32 40.2045C1152.77 40.2045 1152.27 40.1004 1151.82 39.892C1151.36 39.6799 1151.01 39.375 1150.74 38.9773C1150.48 38.5758 1150.34 38.0909 1150.34 37.5227C1150.34 37.0227 1150.44 36.6174 1150.64 36.3068C1150.84 35.9924 1151.1 35.7462 1151.43 35.5682C1151.76 35.3902 1152.12 35.2576 1152.52 35.1705C1152.92 35.0795 1153.33 35.0076 1153.73 34.9545C1154.26 34.8864 1154.69 34.8352 1155.02 34.8011C1155.35 34.7633 1155.6 34.7008 1155.75 34.6136C1155.9 34.5265 1155.98 34.375 1155.98 34.1591V34.1136C1155.98 33.553 1155.83 33.1174 1155.52 32.8068C1155.22 32.4962 1154.76 32.3409 1154.14 32.3409C1153.5 32.3409 1153 32.4811 1152.63 32.7614C1152.27 33.0417 1152.01 33.3409 1151.87 33.6591L1150.59 33.2045C1150.82 32.6742 1151.12 32.2614 1151.5 31.9659C1151.89 31.6667 1152.3 31.4583 1152.75 31.3409C1153.21 31.2197 1153.65 31.1591 1154.09 31.1591C1154.37 31.1591 1154.7 31.1932 1155.06 31.2614C1155.43 31.3258 1155.78 31.4602 1156.12 31.6648C1156.47 31.8693 1156.75 32.178 1156.98 32.5909C1157.21 33.0038 1157.32 33.5568 1157.32 34.25V40H1155.98V38.8182H1155.91C1155.82 39.0076 1155.67 39.2102 1155.46 39.4261C1155.25 39.642 1154.96 39.8258 1154.61 39.9773C1154.26 40.1288 1153.83 40.2045 1153.32 40.2045ZM1153.53 39C1154.06 39 1154.5 38.8958 1154.87 38.6875C1155.23 38.4792 1155.51 38.2102 1155.7 37.8807C1155.89 37.5511 1155.98 37.2045 1155.98 36.8409V35.6136C1155.92 35.6818 1155.8 35.7443 1155.61 35.8011C1155.42 35.8542 1155.2 35.9015 1154.95 35.9432C1154.7 35.9811 1154.46 36.0152 1154.22 36.0455C1153.99 36.072 1153.81 36.0947 1153.66 36.1136C1153.31 36.1591 1152.99 36.233 1152.68 36.3352C1152.39 36.4337 1152.14 36.5833 1151.96 36.7841C1151.78 36.9811 1151.68 37.25 1151.68 37.5909C1151.68 38.0568 1151.86 38.4091 1152.2 38.6477C1152.55 38.8826 1152.99 39 1153.53 39ZM1161.11 28.3636V40H1159.77V28.3636H1161.11ZM1164.54 40.0909C1164.26 40.0909 1164.02 39.9905 1163.82 39.7898C1163.62 39.589 1163.52 39.3485 1163.52 39.0682C1163.52 38.7879 1163.62 38.5473 1163.82 38.3466C1164.02 38.1458 1164.26 38.0455 1164.54 38.0455C1164.82 38.0455 1165.06 38.1458 1165.26 38.3466C1165.47 38.5473 1165.57 38.7879 1165.57 39.0682C1165.57 39.2538 1165.52 39.4242 1165.42 39.5795C1165.33 39.7348 1165.21 39.8598 1165.05 39.9545C1164.9 40.0455 1164.73 40.0909 1164.54 40.0909ZM1171.34 40.1591C1170.48 40.1591 1169.75 39.9261 1169.15 39.4602C1168.55 38.9905 1168.09 38.3106 1167.77 37.4205C1167.45 36.5265 1167.29 35.447 1167.29 34.1818C1167.29 32.9242 1167.45 31.8504 1167.77 30.9602C1168.09 30.0663 1168.55 29.3845 1169.16 28.9148C1169.76 28.4413 1170.49 28.2045 1171.34 28.2045C1172.19 28.2045 1172.91 28.4413 1173.51 28.9148C1174.12 29.3845 1174.58 30.0663 1174.9 30.9602C1175.22 31.8504 1175.38 32.9242 1175.38 34.1818C1175.38 35.447 1175.22 36.5265 1174.91 37.4205C1174.59 38.3106 1174.13 38.9905 1173.53 39.4602C1172.92 39.9261 1172.19 40.1591 1171.34 40.1591ZM1171.34 38.9091C1172.19 38.9091 1172.85 38.5 1173.32 37.6818C1173.79 36.8636 1174.02 35.697 1174.02 34.1818C1174.02 33.1742 1173.91 32.3163 1173.7 31.608C1173.48 30.8996 1173.18 30.3598 1172.78 29.9886C1172.38 29.6174 1171.9 29.4318 1171.34 29.4318C1170.5 29.4318 1169.84 29.8466 1169.37 30.6761C1168.89 31.5019 1168.66 32.6705 1168.66 34.1818C1168.66 35.1894 1168.76 36.0455 1168.97 36.75C1169.19 37.4545 1169.49 37.9905 1169.89 38.358C1170.29 38.7254 1170.77 38.9091 1171.34 38.9091ZM1181.34 40.1591C1180.48 40.1591 1179.75 39.9261 1179.15 39.4602C1178.55 38.9905 1178.09 38.3106 1177.77 37.4205C1177.45 36.5265 1177.29 35.447 1177.29 34.1818C1177.29 32.9242 1177.45 31.8504 1177.77 30.9602C1178.09 30.0663 1178.55 29.3845 1179.16 28.9148C1179.76 28.4413 1180.49 28.2045 1181.34 28.2045C1182.19 28.2045 1182.91 28.4413 1183.51 28.9148C1184.12 29.3845 1184.58 30.0663 1184.9 30.9602C1185.22 31.8504 1185.38 32.9242 1185.38 34.1818C1185.38 35.447 1185.22 36.5265 1184.91 37.4205C1184.59 38.3106 1184.13 38.9905 1183.53 39.4602C1182.92 39.9261 1182.19 40.1591 1181.34 40.1591ZM1181.34 38.9091C1182.19 38.9091 1182.85 38.5 1183.32 37.6818C1183.79 36.8636 1184.02 35.697 1184.02 34.1818C1184.02 33.1742 1183.91 32.3163 1183.7 31.608C1183.48 30.8996 1183.18 30.3598 1182.78 29.9886C1182.38 29.6174 1181.9 29.4318 1181.34 29.4318C1180.5 29.4318 1179.84 29.8466 1179.37 30.6761C1178.89 31.5019 1178.66 32.6705 1178.66 34.1818C1178.66 35.1894 1178.76 36.0455 1178.97 36.75C1179.19 37.4545 1179.49 37.9905 1179.89 38.358C1180.29 38.7254 1180.77 38.9091 1181.34 38.9091ZM1189.79 34.9091L1189.88 32.4091L1187.77 33.75L1187.22 32.7955L1189.45 31.6364L1187.22 30.4773L1187.77 29.5227L1189.88 30.8636L1189.79 28.3636H1190.88L1190.79 30.8636L1192.91 29.5227L1193.45 30.4773L1191.22 31.6364L1193.45 32.7955L1192.91 33.75L1190.79 32.4091L1190.88 34.9091H1189.79Z" fill="white" fill-opacity="0.95"/>
</svg>
