<svg width="64" height="24" viewBox="0 0 64 24" fill="none" xmlns="http://www.w3.org/2000/svg">
<rect width="64" height="24" rx="4" fill="#262626"/>
<rect x="0.5" y="0.5" width="63" height="23" rx="3.5" stroke="white" stroke-opacity="0.5"/>
<path d="M9.60023 16.1C9.53431 16.1001 9.46903 16.0872 9.40817 16.0618C9.34731 16.0365 9.29209 15.9994 9.24573 15.9525L5.64564 12.3348C5.59934 12.2883 5.56267 12.2331 5.53771 12.1723C5.51275 12.1116 5.5 12.0466 5.50019 11.9809C5.50037 11.9153 5.51348 11.8503 5.53877 11.7897C5.56407 11.7291 5.60104 11.6741 5.6476 11.6278C5.69415 11.5815 5.74937 11.5448 5.81009 11.5199C5.87082 11.4949 5.93587 11.4822 6.00152 11.4823C6.06718 11.4825 6.13215 11.4956 6.19274 11.5209C6.25333 11.5462 6.30834 11.5832 6.35464 11.6298L9.6271 14.9183L17.6749 8.02087C17.7756 7.93462 17.9063 7.89188 18.0385 7.90205C18.1706 7.91221 18.2933 7.97445 18.3795 8.07507C18.4658 8.17569 18.5085 8.30646 18.4983 8.43859C18.4882 8.57073 18.4259 8.69341 18.3253 8.77966L9.92542 15.9794C9.835 16.0573 9.71958 16.1001 9.60023 16.1Z" fill="white" fill-opacity="0.95"/>
<path d="M25.2681 17V6.81818H26.5011V15.9062H31.234V17H25.2681ZM35.2312 17.179C34.7473 17.179 34.3081 17.0878 33.9137 16.9055C33.5193 16.7199 33.2061 16.4531 32.9741 16.1051C32.7421 15.7538 32.6261 15.3295 32.6261 14.8324C32.6261 14.3949 32.7122 14.0402 32.8846 13.7685C33.0569 13.4934 33.2873 13.2779 33.5756 13.1222C33.864 12.9664 34.1822 12.8504 34.5302 12.7741C34.8815 12.6946 35.2345 12.6316 35.5891 12.5852C36.0531 12.5256 36.4293 12.4808 36.7177 12.451C37.0094 12.4179 37.2215 12.3632 37.354 12.2869C37.4899 12.2107 37.5579 12.0781 37.5579 11.8892V11.8494C37.5579 11.3589 37.4237 10.9777 37.1552 10.706C36.89 10.4342 36.4873 10.2983 35.9471 10.2983C35.387 10.2983 34.9478 10.4209 34.6296 10.6662C34.3114 10.9115 34.0877 11.1733 33.9585 11.4517L32.8448 11.054C33.0437 10.59 33.3088 10.2287 33.6403 9.97017C33.975 9.70833 34.3396 9.52604 34.734 9.4233C35.1317 9.31723 35.5228 9.2642 35.9073 9.2642C36.1526 9.2642 36.4343 9.29403 36.7525 9.35369C37.074 9.41004 37.3839 9.5277 37.6822 9.70668C37.9838 9.88565 38.234 10.1558 38.4329 10.517C38.6317 10.8783 38.7312 11.3622 38.7312 11.9688V17H37.5579V15.9659H37.4982C37.4187 16.1316 37.2861 16.3089 37.1005 16.4979C36.9149 16.6868 36.668 16.8475 36.3597 16.9801C36.0515 17.1127 35.6753 17.179 35.2312 17.179ZM35.4102 16.125C35.8742 16.125 36.2653 16.0339 36.5835 15.8516C36.9049 15.6693 37.1469 15.4339 37.3093 15.1456C37.475 14.8572 37.5579 14.554 37.5579 14.2358V13.1619C37.5082 13.2216 37.3988 13.2763 37.2298 13.326C37.064 13.3724 36.8718 13.4138 36.6531 13.4503C36.4376 13.4834 36.2272 13.5133 36.0217 13.5398C35.8195 13.563 35.6554 13.5829 35.5295 13.5994C35.2246 13.6392 34.9395 13.7038 34.6744 13.7933C34.4125 13.8795 34.2004 14.0104 34.038 14.1861C33.8789 14.3584 33.7994 14.5937 33.7994 14.892C33.7994 15.2997 33.9502 15.608 34.2518 15.8168C34.5567 16.0223 34.9428 16.125 35.4102 16.125ZM41.0318 17V6.81818H42.2051V10.5767H42.3045C42.3907 10.4441 42.51 10.2751 42.6625 10.0696C42.8182 9.8608 43.0403 9.67519 43.3287 9.51278C43.6203 9.34706 44.0147 9.2642 44.5119 9.2642C45.1549 9.2642 45.7217 9.42495 46.2122 9.74645C46.7027 10.0679 47.0855 10.5237 47.3606 11.1136C47.6357 11.7036 47.7733 12.3996 47.7733 13.2017C47.7733 14.0104 47.6357 14.7114 47.3606 15.3047C47.0855 15.8946 46.7044 16.352 46.2172 16.6768C45.7299 16.9983 45.1681 17.1591 44.5318 17.1591C44.0413 17.1591 43.6485 17.0779 43.3535 16.9155C43.0585 16.7498 42.8315 16.5625 42.6724 16.3537C42.5133 16.1416 42.3907 15.9659 42.3045 15.8267H42.1653V17H41.0318ZM42.1852 13.1818C42.1852 13.7585 42.2697 14.2673 42.4387 14.7081C42.6078 15.1456 42.8547 15.4886 43.1795 15.7372C43.5043 15.9825 43.902 16.1051 44.3727 16.1051C44.8632 16.1051 45.2725 15.9759 45.6007 15.7173C45.9321 15.4555 46.1807 15.1042 46.3464 14.6634C46.5154 14.2192 46.6 13.7254 46.6 13.1818C46.6 12.6449 46.5171 12.161 46.3514 11.7301C46.189 11.2959 45.9421 10.9529 45.6106 10.701C45.2825 10.4458 44.8699 10.3182 44.3727 10.3182C43.8954 10.3182 43.4944 10.4392 43.1696 10.6811C42.8448 10.9197 42.5995 11.2545 42.4338 11.6854C42.2681 12.1129 42.1852 12.6117 42.1852 13.1818ZM52.7697 17.1591C52.0339 17.1591 51.3992 16.9967 50.8656 16.6719C50.3353 16.3438 49.926 15.8864 49.6376 15.2997C49.3526 14.7098 49.21 14.0237 49.21 13.2415C49.21 12.4593 49.3526 11.7699 49.6376 11.1733C49.926 10.5734 50.327 10.1061 50.8407 9.77131C51.3578 9.43324 51.961 9.2642 52.6504 9.2642C53.0481 9.2642 53.4409 9.33049 53.8287 9.46307C54.2164 9.59564 54.5694 9.81108 54.8876 10.1094C55.2058 10.4044 55.4593 10.7955 55.6483 11.2827C55.8372 11.7699 55.9316 12.3698 55.9316 13.0824V13.5795H50.0453V12.5653H54.7385C54.7385 12.1345 54.6523 11.75 54.4799 11.4119C54.3109 11.0739 54.069 10.8071 53.7541 10.6115C53.4425 10.416 53.0746 10.3182 52.6504 10.3182C52.1831 10.3182 51.7787 10.4342 51.4373 10.6662C51.0993 10.8949 50.8391 11.1932 50.6568 11.5611C50.4745 11.929 50.3833 12.3234 50.3833 12.7443V13.4205C50.3833 13.9972 50.4828 14.486 50.6816 14.8871C50.8838 15.2848 51.1639 15.5881 51.5218 15.7969C51.8798 16.0024 52.2958 16.1051 52.7697 16.1051C53.0779 16.1051 53.3564 16.062 53.6049 15.9759C53.8568 15.8864 54.0739 15.7538 54.2562 15.5781C54.4385 15.3991 54.5794 15.1771 54.6788 14.9119L55.8123 15.2301C55.693 15.6146 55.4925 15.9527 55.2108 16.2443C54.929 16.5327 54.581 16.758 54.1667 16.9205C53.7524 17.0795 53.2868 17.1591 52.7697 17.1591ZM58.8897 6.81818V17H57.7164V6.81818H58.8897Z" fill="white" fill-opacity="0.95"/>
</svg>
