<svg width="1300" height="68" viewBox="0 0 1300 68" fill="none" xmlns="http://www.w3.org/2000/svg">
<rect width="1300" height="68" fill="#1A1A1A"/>
<mask id="path-1-inside-1_1622_6667" fill="white">
<path d="M0 0H433.333V68H0V0Z"/>
</mask>
<path d="M432.333 0V68H434.333V0H432.333Z" fill="#707070" mask="url(#path-1-inside-1_1622_6667)"/>
<path d="M40.6454 28.3636V40H38.884V30.125H38.8159L36.0318 31.9432V30.2614L38.9352 28.3636H40.6454ZM46.4139 40.108C46.1033 40.108 45.8362 39.9981 45.6127 39.7784C45.3893 39.5549 45.2775 39.286 45.2775 38.9716C45.2775 38.661 45.3893 38.3958 45.6127 38.1761C45.8362 37.9527 46.1033 37.8409 46.4139 37.8409C46.7245 37.8409 46.9915 37.9527 47.215 38.1761C47.4385 38.3958 47.5502 38.661 47.5502 38.9716C47.5502 39.1799 47.4972 39.3712 47.3912 39.5455C47.2889 39.7159 47.1525 39.8523 46.9821 39.9545C46.8116 40.0568 46.6222 40.108 46.4139 40.108ZM64.9432 32.1477H63.1705C63.1023 31.7689 62.9754 31.4356 62.7898 31.1477C62.6042 30.8598 62.3769 30.6155 62.108 30.4148C61.839 30.214 61.5379 30.0625 61.2045 29.9602C60.875 29.858 60.5246 29.8068 60.1534 29.8068C59.483 29.8068 58.8826 29.9754 58.3523 30.3125C57.8258 30.6496 57.4091 31.1439 57.1023 31.7955C56.7992 32.447 56.6477 33.2424 56.6477 34.1818C56.6477 35.1288 56.7992 35.928 57.1023 36.5795C57.4091 37.2311 57.8277 37.7235 58.358 38.0568C58.8883 38.3902 59.4848 38.5568 60.1477 38.5568C60.5152 38.5568 60.8636 38.5076 61.1932 38.4091C61.5265 38.3068 61.8277 38.1572 62.0966 37.9602C62.3655 37.7633 62.5928 37.5227 62.7784 37.2386C62.9678 36.9508 63.0985 36.6212 63.1705 36.25L64.9432 36.2557C64.8485 36.8277 64.6648 37.3542 64.392 37.8352C64.1231 38.3125 63.7765 38.7254 63.3523 39.0739C62.9318 39.4186 62.4508 39.6856 61.9091 39.875C61.3674 40.0644 60.7765 40.1591 60.1364 40.1591C59.1288 40.1591 58.2311 39.9205 57.4432 39.4432C56.6553 38.9621 56.0341 38.2746 55.5795 37.3807C55.1288 36.4867 54.9034 35.4205 54.9034 34.1818C54.9034 32.9394 55.1307 31.8731 55.5852 30.983C56.0398 30.089 56.661 29.4034 57.4489 28.9261C58.2367 28.4451 59.1326 28.2045 60.1364 28.2045C60.7538 28.2045 61.3295 28.2936 61.8636 28.4716C62.4015 28.6458 62.8845 28.9034 63.3125 29.2443C63.7405 29.5814 64.0947 29.9943 64.375 30.483C64.6553 30.9678 64.8447 31.5227 64.9432 32.1477ZM70.5838 40.1761C69.7656 40.1761 69.0516 39.9886 68.4418 39.6136C67.8319 39.2386 67.3584 38.714 67.0213 38.0398C66.6842 37.3655 66.5156 36.5777 66.5156 35.6761C66.5156 34.7708 66.6842 33.9792 67.0213 33.3011C67.3584 32.6231 67.8319 32.0966 68.4418 31.7216C69.0516 31.3466 69.7656 31.1591 70.5838 31.1591C71.402 31.1591 72.116 31.3466 72.7259 31.7216C73.3357 32.0966 73.8092 32.6231 74.1463 33.3011C74.4834 33.9792 74.652 34.7708 74.652 35.6761C74.652 36.5777 74.4834 37.3655 74.1463 38.0398C73.8092 38.714 73.3357 39.2386 72.7259 39.6136C72.116 39.9886 71.402 40.1761 70.5838 40.1761ZM70.5895 38.75C71.1198 38.75 71.5592 38.6098 71.9077 38.3295C72.2562 38.0492 72.5137 37.6761 72.6804 37.2102C72.8509 36.7443 72.9361 36.2311 72.9361 35.6705C72.9361 35.1136 72.8509 34.6023 72.6804 34.1364C72.5137 33.6667 72.2562 33.2898 71.9077 33.0057C71.5592 32.7216 71.1198 32.5795 70.5895 32.5795C70.0554 32.5795 69.6122 32.7216 69.2599 33.0057C68.9115 33.2898 68.652 33.6667 68.4815 34.1364C68.3149 34.6023 68.2315 35.1136 68.2315 35.6705C68.2315 36.2311 68.3149 36.7443 68.4815 37.2102C68.652 37.6761 68.9115 38.0492 69.2599 38.3295C69.6122 38.6098 70.0554 38.75 70.5895 38.75ZM78.2472 34.8182V40H76.5483V31.2727H78.179V32.6932H78.2869C78.4877 32.2311 78.8021 31.8598 79.2301 31.5795C79.6619 31.2992 80.2055 31.1591 80.8608 31.1591C81.4555 31.1591 81.9763 31.2841 82.4233 31.5341C82.8703 31.7803 83.2169 32.1477 83.4631 32.6364C83.7093 33.125 83.8324 33.7292 83.8324 34.4489V40H82.1335V34.6534C82.1335 34.0208 81.9688 33.5265 81.6392 33.1705C81.3097 32.8106 80.857 32.6307 80.2812 32.6307C79.8873 32.6307 79.5369 32.7159 79.2301 32.8864C78.9271 33.0568 78.6866 33.3068 78.5085 33.6364C78.3343 33.9621 78.2472 34.3561 78.2472 34.8182ZM90.1847 31.2727V32.6364H85.4176V31.2727H90.1847ZM86.696 29.1818H88.3949V37.4375C88.3949 37.767 88.4441 38.0152 88.5426 38.1818C88.6411 38.3447 88.768 38.4564 88.9233 38.517C89.0824 38.5739 89.2547 38.6023 89.4403 38.6023C89.5767 38.6023 89.696 38.5928 89.7983 38.5739C89.9006 38.5549 89.9801 38.5398 90.0369 38.5284L90.3438 39.9318C90.2453 39.9697 90.1051 40.0076 89.9233 40.0455C89.7415 40.0871 89.5142 40.1098 89.2415 40.1136C88.7945 40.1212 88.3778 40.0417 87.9915 39.875C87.6051 39.7083 87.2926 39.4508 87.054 39.1023C86.8153 38.7538 86.696 38.3163 86.696 37.7898V29.1818ZM94.6037 40.1932C94.0507 40.1932 93.5507 40.0909 93.1037 39.8864C92.6567 39.678 92.3026 39.3769 92.0412 38.983C91.7836 38.589 91.6548 38.1061 91.6548 37.5341C91.6548 37.0417 91.7495 36.6364 91.9389 36.3182C92.1283 36 92.384 35.7481 92.706 35.5625C93.0279 35.3769 93.3878 35.2367 93.7855 35.142C94.1832 35.0473 94.5885 34.9754 95.0014 34.9261C95.5241 34.8655 95.9484 34.8163 96.2741 34.7784C96.5999 34.7367 96.8366 34.6705 96.9844 34.5795C97.1321 34.4886 97.206 34.3409 97.206 34.1364V34.0966C97.206 33.6004 97.0658 33.2159 96.7855 32.9432C96.509 32.6705 96.0961 32.5341 95.5469 32.5341C94.9749 32.5341 94.5241 32.661 94.1946 32.9148C93.8688 33.1648 93.6435 33.4432 93.5185 33.75L91.9219 33.3864C92.1113 32.8561 92.3878 32.428 92.7514 32.1023C93.1188 31.7727 93.5412 31.5341 94.0185 31.3864C94.4957 31.2348 94.9976 31.1591 95.5241 31.1591C95.8726 31.1591 96.242 31.2008 96.6321 31.2841C97.026 31.3636 97.3935 31.5114 97.7344 31.7273C98.0791 31.9432 98.3613 32.2519 98.581 32.6534C98.8007 33.0511 98.9105 33.5682 98.9105 34.2045V40H97.2514V38.8068H97.1832C97.0734 39.0265 96.9086 39.2424 96.6889 39.4545C96.4692 39.6667 96.187 39.8428 95.8423 39.983C95.4976 40.1231 95.0848 40.1932 94.6037 40.1932ZM94.973 38.8295C95.4427 38.8295 95.8442 38.7367 96.1776 38.5511C96.5147 38.3655 96.7704 38.1231 96.9446 37.8239C97.1226 37.5208 97.2116 37.197 97.2116 36.8523V35.7273C97.151 35.7879 97.0336 35.8447 96.8594 35.8977C96.6889 35.947 96.4938 35.9905 96.2741 36.0284C96.0545 36.0625 95.8404 36.0947 95.6321 36.125C95.4238 36.1515 95.2495 36.1742 95.1094 36.1932C94.7798 36.2348 94.4787 36.3049 94.206 36.4034C93.937 36.5019 93.7211 36.6439 93.5582 36.8295C93.3991 37.0114 93.3196 37.2538 93.3196 37.5568C93.3196 37.9773 93.4749 38.2955 93.7855 38.5114C94.0961 38.7235 94.492 38.8295 94.973 38.8295ZM101.173 40V31.2727H102.872V40H101.173ZM102.031 29.9261C101.736 29.9261 101.482 29.8277 101.27 29.6307C101.062 29.4299 100.957 29.1913 100.957 28.9148C100.957 28.6345 101.062 28.3958 101.27 28.1989C101.482 27.9981 101.736 27.8977 102.031 27.8977C102.327 27.8977 102.579 27.9981 102.787 28.1989C102.999 28.3958 103.105 28.6345 103.105 28.9148C103.105 29.1913 102.999 29.4299 102.787 29.6307C102.579 29.8277 102.327 29.9261 102.031 29.9261ZM106.857 34.8182V40H105.158V31.2727H106.788V32.6932H106.896C107.097 32.2311 107.411 31.8598 107.839 31.5795C108.271 31.2992 108.815 31.1591 109.47 31.1591C110.065 31.1591 110.586 31.2841 111.033 31.5341C111.48 31.7803 111.826 32.1477 112.072 32.6364C112.319 33.125 112.442 33.7292 112.442 34.4489V40H110.743V34.6534C110.743 34.0208 110.578 33.5265 110.249 33.1705C109.919 32.8106 109.466 32.6307 108.891 32.6307C108.497 32.6307 108.146 32.7159 107.839 32.8864C107.536 33.0568 107.296 33.3068 107.118 33.6364C106.944 33.9621 106.857 34.3561 106.857 34.8182ZM118.482 40.1761C117.622 40.1761 116.881 39.9924 116.26 39.625C115.643 39.2538 115.165 38.733 114.828 38.0625C114.495 37.3883 114.328 36.5985 114.328 35.6932C114.328 34.7992 114.495 34.0114 114.828 33.3295C115.165 32.6477 115.635 32.1155 116.237 31.733C116.843 31.3504 117.552 31.1591 118.362 31.1591C118.855 31.1591 119.332 31.2405 119.794 31.4034C120.256 31.5663 120.671 31.822 121.038 32.1705C121.406 32.5189 121.696 32.9716 121.908 33.5284C122.12 34.0814 122.226 34.7538 122.226 35.5455V36.1477H115.288V34.875H120.561C120.561 34.428 120.47 34.0322 120.288 33.6875C120.107 33.339 119.851 33.0644 119.521 32.8636C119.196 32.6629 118.813 32.5625 118.374 32.5625C117.896 32.5625 117.48 32.6799 117.124 32.9148C116.771 33.1458 116.499 33.4489 116.305 33.8239C116.116 34.1951 116.021 34.5985 116.021 35.0341V36.0284C116.021 36.6117 116.124 37.108 116.328 37.517C116.536 37.9261 116.826 38.2386 117.197 38.4545C117.569 38.6667 118.002 38.7727 118.499 38.7727C118.821 38.7727 119.114 38.7273 119.379 38.6364C119.644 38.5417 119.874 38.4015 120.067 38.2159C120.26 38.0303 120.408 37.8011 120.51 37.5284L122.118 37.8182C121.989 38.2917 121.758 38.7064 121.425 39.0625C121.095 39.4148 120.68 39.6894 120.18 39.8864C119.684 40.0795 119.118 40.1761 118.482 40.1761ZM124.111 40V31.2727H125.753V32.6591H125.844C126.003 32.1894 126.283 31.8201 126.685 31.5511C127.09 31.2784 127.548 31.142 128.06 31.142C128.166 31.142 128.291 31.1458 128.435 31.1534C128.582 31.161 128.698 31.1705 128.781 31.1818V32.8068C128.713 32.7879 128.592 32.767 128.418 32.7443C128.243 32.7178 128.069 32.7045 127.895 32.7045C127.493 32.7045 127.135 32.7898 126.821 32.9602C126.51 33.1269 126.264 33.3598 126.082 33.6591C125.901 33.9545 125.81 34.2917 125.81 34.6705V40H124.111Z" fill="white" fill-opacity="0.95"/>
<mask id="path-4-inside-2_1622_6667" fill="white">
<path d="M433.333 0H866.667V68H433.333V0Z"/>
</mask>
<path d="M865.667 0V68H867.667V0H865.667Z" fill="#707070" mask="url(#path-4-inside-2_1622_6667)"/>
<path d="M468.333 40H464.742V28.3636H468.492C469.621 28.3636 470.587 28.5966 471.39 29.0625C472.193 29.5246 472.809 30.1894 473.237 31.0568C473.665 31.9205 473.879 32.9545 473.879 34.1591C473.879 35.3712 473.663 36.4148 473.231 37.2898C472.799 38.161 472.17 38.8314 471.345 39.3011C470.519 39.767 469.515 40 468.333 40ZM466.152 38.75H468.242C469.205 38.75 470.002 38.5644 470.634 38.1932C471.267 37.822 471.739 37.2936 472.049 36.608C472.36 35.9223 472.515 35.1061 472.515 34.1591C472.515 33.2197 472.362 32.411 472.055 31.733C471.748 31.0511 471.29 30.5284 470.68 30.1648C470.07 29.7973 469.311 29.6136 468.402 29.6136H466.152V38.75ZM479.72 40.1818C478.879 40.1818 478.153 39.9962 477.544 39.625C476.938 39.25 476.47 38.7273 476.14 38.0568C475.814 37.3826 475.652 36.5985 475.652 35.7045C475.652 34.8106 475.814 34.0227 476.14 33.3409C476.47 32.6553 476.928 32.1212 477.515 31.7386C478.106 31.3523 478.795 31.1591 479.583 31.1591C480.038 31.1591 480.487 31.2348 480.93 31.3864C481.373 31.5379 481.777 31.7841 482.14 32.125C482.504 32.4621 482.794 32.9091 483.009 33.4659C483.225 34.0227 483.333 34.7083 483.333 35.5227V36.0909H476.606V34.9318H481.97C481.97 34.4394 481.871 34 481.674 33.6136C481.481 33.2273 481.205 32.9223 480.845 32.6989C480.489 32.4754 480.068 32.3636 479.583 32.3636C479.049 32.3636 478.587 32.4962 478.197 32.7614C477.811 33.0227 477.513 33.3636 477.305 33.7841C477.097 34.2045 476.992 34.6553 476.992 35.1364V35.9091C476.992 36.5682 477.106 37.1269 477.333 37.5852C477.564 38.0398 477.884 38.3864 478.294 38.625C478.703 38.8598 479.178 38.9773 479.72 38.9773C480.072 38.9773 480.39 38.928 480.674 38.8295C480.962 38.7273 481.21 38.5758 481.419 38.375C481.627 38.1705 481.788 37.9167 481.902 37.6136L483.197 37.9773C483.061 38.4167 482.831 38.803 482.509 39.1364C482.188 39.4659 481.79 39.7235 481.316 39.9091C480.843 40.0909 480.311 40.1818 479.72 40.1818ZM489.259 31.2727V32.4091H484.555V31.2727H489.259ZM485.964 40V30.0682C485.964 29.5682 486.081 29.1515 486.316 28.8182C486.551 28.4848 486.856 28.2348 487.231 28.0682C487.606 27.9015 488.002 27.8182 488.419 27.8182C488.748 27.8182 489.017 27.8447 489.225 27.8977C489.434 27.9508 489.589 28 489.691 28.0455L489.305 29.2045C489.237 29.1818 489.142 29.1534 489.021 29.1193C488.903 29.0852 488.748 29.0682 488.555 29.0682C488.112 29.0682 487.792 29.1799 487.595 29.4034C487.402 29.6269 487.305 29.9545 487.305 30.3864V40H485.964ZM493.457 40.2045C492.904 40.2045 492.402 40.1004 491.951 39.892C491.5 39.6799 491.143 39.375 490.877 38.9773C490.612 38.5758 490.48 38.0909 490.48 37.5227C490.48 37.0227 490.578 36.6174 490.775 36.3068C490.972 35.9924 491.235 35.7462 491.565 35.5682C491.894 35.3902 492.258 35.2576 492.656 35.1705C493.057 35.0795 493.461 35.0076 493.866 34.9545C494.396 34.8864 494.826 34.8352 495.156 34.8011C495.489 34.7633 495.732 34.7008 495.883 34.6136C496.038 34.5265 496.116 34.375 496.116 34.1591V34.1136C496.116 33.553 495.963 33.1174 495.656 32.8068C495.353 32.4962 494.893 32.3409 494.275 32.3409C493.635 32.3409 493.133 32.4811 492.769 32.7614C492.406 33.0417 492.15 33.3409 492.002 33.6591L490.73 33.2045C490.957 32.6742 491.26 32.2614 491.639 31.9659C492.021 31.6667 492.438 31.4583 492.889 31.3409C493.343 31.2197 493.79 31.1591 494.23 31.1591C494.51 31.1591 494.832 31.1932 495.196 31.2614C495.563 31.3258 495.917 31.4602 496.258 31.6648C496.603 31.8693 496.889 32.178 497.116 32.5909C497.343 33.0038 497.457 33.5568 497.457 34.25V40H496.116V38.8182H496.048C495.957 39.0076 495.805 39.2102 495.593 39.4261C495.381 39.642 495.099 39.8258 494.747 39.9773C494.394 40.1288 493.964 40.2045 493.457 40.2045ZM493.661 39C494.192 39 494.639 38.8958 495.002 38.6875C495.37 38.4792 495.646 38.2102 495.832 37.8807C496.021 37.5511 496.116 37.2045 496.116 36.8409V35.6136C496.059 35.6818 495.934 35.7443 495.741 35.8011C495.552 35.8542 495.332 35.9015 495.082 35.9432C494.836 35.9811 494.595 36.0152 494.36 36.0455C494.129 36.072 493.942 36.0947 493.798 36.1136C493.449 36.1591 493.124 36.233 492.821 36.3352C492.521 36.4337 492.279 36.5833 492.093 36.7841C491.911 36.9811 491.821 37.25 491.821 37.5909C491.821 38.0568 491.993 38.4091 492.338 38.6477C492.686 38.8826 493.127 39 493.661 39ZM505.404 36.4318V31.2727H506.745V40H505.404V38.5227H505.313C505.109 38.9659 504.791 39.3428 504.359 39.6534C503.927 39.9602 503.382 40.1136 502.723 40.1136C502.177 40.1136 501.692 39.9943 501.268 39.7557C500.844 39.5133 500.51 39.1496 500.268 38.6648C500.026 38.1761 499.904 37.5606 499.904 36.8182V31.2727H501.245V36.7273C501.245 37.3636 501.423 37.8712 501.779 38.25C502.139 38.6288 502.598 38.8182 503.154 38.8182C503.488 38.8182 503.827 38.733 504.171 38.5625C504.52 38.392 504.812 38.1307 505.046 37.7784C505.285 37.4261 505.404 36.9773 505.404 36.4318ZM510.542 28.3636V40H509.201V28.3636H510.542ZM516.794 31.2727V32.4091H512.271V31.2727H516.794ZM513.589 29.1818H514.93V37.5C514.93 37.8788 514.985 38.1629 515.095 38.3523C515.208 38.5379 515.352 38.6629 515.527 38.7273C515.705 38.7879 515.892 38.8182 516.089 38.8182C516.237 38.8182 516.358 38.8106 516.453 38.7955C516.547 38.7765 516.623 38.7614 516.68 38.75L516.953 39.9545C516.862 39.9886 516.735 40.0227 516.572 40.0568C516.409 40.0947 516.203 40.1136 515.953 40.1136C515.574 40.1136 515.203 40.0322 514.839 39.8693C514.479 39.7064 514.18 39.4583 513.941 39.125C513.706 38.7917 513.589 38.3712 513.589 37.8636V29.1818ZM523.492 40V28.3636H524.833V32.6591H524.947C525.045 32.5076 525.182 32.3144 525.356 32.0795C525.534 31.8409 525.788 31.6288 526.117 31.4432C526.451 31.2538 526.902 31.1591 527.47 31.1591C528.205 31.1591 528.852 31.3428 529.413 31.7102C529.973 32.0777 530.411 32.5985 530.725 33.2727C531.04 33.947 531.197 34.7424 531.197 35.6591C531.197 36.5833 531.04 37.3845 530.725 38.0625C530.411 38.7367 529.975 39.2595 529.419 39.6307C528.862 39.9981 528.22 40.1818 527.492 40.1818C526.932 40.1818 526.483 40.089 526.146 39.9034C525.809 39.714 525.549 39.5 525.367 39.2614C525.186 39.0189 525.045 38.8182 524.947 38.6591H524.788V40H523.492ZM524.811 35.6364C524.811 36.2955 524.907 36.8769 525.1 37.3807C525.294 37.8807 525.576 38.2727 525.947 38.5568C526.318 38.8371 526.773 38.9773 527.311 38.9773C527.871 38.9773 528.339 38.8295 528.714 38.5341C529.093 38.2348 529.377 37.8333 529.566 37.3295C529.759 36.822 529.856 36.2576 529.856 35.6364C529.856 35.0227 529.761 34.4697 529.572 33.9773C529.386 33.4811 529.104 33.089 528.725 32.8011C528.35 32.5095 527.879 32.3636 527.311 32.3636C526.765 32.3636 526.307 32.5019 525.936 32.7784C525.564 33.0511 525.284 33.4337 525.095 33.9261C524.905 34.4148 524.811 34.9848 524.811 35.6364ZM535.816 40.2045C535.263 40.2045 534.761 40.1004 534.311 39.892C533.86 39.6799 533.502 39.375 533.237 38.9773C532.972 38.5758 532.839 38.0909 532.839 37.5227C532.839 37.0227 532.938 36.6174 533.134 36.3068C533.331 35.9924 533.595 35.7462 533.924 35.5682C534.254 35.3902 534.617 35.2576 535.015 35.1705C535.417 35.0795 535.82 35.0076 536.225 34.9545C536.756 34.8864 537.186 34.8352 537.515 34.8011C537.848 34.7633 538.091 34.7008 538.242 34.6136C538.398 34.5265 538.475 34.375 538.475 34.1591V34.1136C538.475 33.553 538.322 33.1174 538.015 32.8068C537.712 32.4962 537.252 32.3409 536.634 32.3409C535.994 32.3409 535.492 32.4811 535.129 32.7614C534.765 33.0417 534.509 33.3409 534.362 33.6591L533.089 33.2045C533.316 32.6742 533.619 32.2614 533.998 31.9659C534.381 31.6667 534.797 31.4583 535.248 31.3409C535.703 31.2197 536.15 31.1591 536.589 31.1591C536.869 31.1591 537.191 31.1932 537.555 31.2614C537.922 31.3258 538.277 31.4602 538.617 31.6648C538.962 31.8693 539.248 32.178 539.475 32.5909C539.703 33.0038 539.816 33.5568 539.816 34.25V40H538.475V38.8182H538.407C538.316 39.0076 538.165 39.2102 537.953 39.4261C537.741 39.642 537.458 39.8258 537.106 39.9773C536.754 40.1288 536.324 40.2045 535.816 40.2045ZM536.021 39C536.551 39 536.998 38.8958 537.362 38.6875C537.729 38.4792 538.006 38.2102 538.191 37.8807C538.381 37.5511 538.475 37.2045 538.475 36.8409V35.6136C538.419 35.6818 538.294 35.7443 538.1 35.8011C537.911 35.8542 537.691 35.9015 537.441 35.9432C537.195 35.9811 536.955 36.0152 536.72 36.0455C536.489 36.072 536.301 36.0947 536.157 36.1136C535.809 36.1591 535.483 36.233 535.18 36.3352C534.881 36.4337 534.638 36.5833 534.453 36.7841C534.271 36.9811 534.18 37.25 534.18 37.5909C534.18 38.0568 534.352 38.4091 534.697 38.6477C535.045 38.8826 535.487 39 536.021 39ZM545.809 40.1818C544.991 40.1818 544.286 39.9886 543.696 39.6023C543.105 39.2159 542.65 38.6837 542.332 38.0057C542.014 37.3277 541.855 36.553 541.855 35.6818C541.855 34.7955 542.018 34.0133 542.343 33.3352C542.673 32.6534 543.131 32.1212 543.718 31.7386C544.309 31.3523 544.999 31.1591 545.786 31.1591C546.4 31.1591 546.953 31.2727 547.446 31.5C547.938 31.7273 548.341 32.0455 548.656 32.4545C548.97 32.8636 549.165 33.3409 549.241 33.8864H547.9C547.798 33.4886 547.571 33.1364 547.218 32.8295C546.87 32.5189 546.4 32.3636 545.809 32.3636C545.286 32.3636 544.828 32.5 544.434 32.7727C544.044 33.0417 543.739 33.4223 543.519 33.9148C543.304 34.4034 543.196 34.9773 543.196 35.6364C543.196 36.3106 543.302 36.8977 543.514 37.3977C543.73 37.8977 544.033 38.286 544.423 38.5625C544.817 38.839 545.279 38.9773 545.809 38.9773C546.158 38.9773 546.474 38.9167 546.758 38.7955C547.042 38.6742 547.283 38.5 547.48 38.2727C547.677 38.0455 547.817 37.7727 547.9 37.4545H549.241C549.165 37.9697 548.978 38.4337 548.679 38.8466C548.383 39.2557 547.991 39.5814 547.502 39.8239C547.018 40.0625 546.453 40.1818 545.809 40.1818ZM552.451 36.8182L552.429 35.1591H552.701L556.519 31.2727H558.179L554.11 35.3864H553.997L552.451 36.8182ZM551.201 40V28.3636H552.542V40H551.201ZM556.747 40L553.338 35.6818L554.292 34.75L558.451 40H556.747ZM563.068 43.4545C562.42 43.4545 561.863 43.3712 561.397 43.2045C560.931 43.0417 560.543 42.8258 560.232 42.5568C559.926 42.2917 559.681 42.0076 559.5 41.7045L560.568 40.9545C560.689 41.1136 560.842 41.2955 561.028 41.5C561.214 41.7083 561.467 41.8883 561.789 42.0398C562.115 42.1951 562.541 42.2727 563.068 42.2727C563.772 42.2727 564.354 42.1023 564.812 41.7614C565.27 41.4205 565.5 40.8864 565.5 40.1591V38.3864H565.386C565.287 38.5455 565.147 38.7424 564.965 38.9773C564.787 39.2083 564.53 39.4148 564.193 39.5966C563.859 39.7746 563.409 39.8636 562.84 39.8636C562.136 39.8636 561.503 39.697 560.943 39.3636C560.386 39.0303 559.945 38.5455 559.619 37.9091C559.297 37.2727 559.136 36.5 559.136 35.5909C559.136 34.697 559.293 33.9186 559.607 33.2557C559.922 32.589 560.359 32.0739 560.92 31.7102C561.481 31.3428 562.128 31.1591 562.863 31.1591C563.431 31.1591 563.882 31.2538 564.215 31.4432C564.553 31.6288 564.81 31.8409 564.988 32.0795C565.17 32.3144 565.31 32.5076 565.409 32.6591H565.545V31.2727H566.84V40.25C566.84 41 566.67 41.6098 566.329 42.0795C565.992 42.553 565.537 42.8996 564.965 43.1193C564.397 43.3428 563.765 43.4545 563.068 43.4545ZM563.022 38.6591C563.56 38.6591 564.015 38.536 564.386 38.2898C564.757 38.0436 565.039 37.6894 565.232 37.2273C565.426 36.7652 565.522 36.2121 565.522 35.5682C565.522 34.9394 565.428 34.3845 565.238 33.9034C565.049 33.4223 564.768 33.0455 564.397 32.7727C564.026 32.5 563.568 32.3636 563.022 32.3636C562.454 32.3636 561.981 32.5076 561.602 32.7955C561.227 33.0833 560.945 33.4697 560.755 33.9545C560.57 34.4394 560.477 34.9773 560.477 35.5682C560.477 36.1742 560.572 36.7102 560.761 37.1761C560.954 37.6383 561.238 38.0019 561.613 38.267C561.992 38.5284 562.462 38.6591 563.022 38.6591ZM569.295 40V31.2727H570.59V32.5909H570.681C570.84 32.1591 571.128 31.8087 571.545 31.5398C571.962 31.2708 572.431 31.1364 572.954 31.1364C573.053 31.1364 573.176 31.1383 573.323 31.142C573.471 31.1458 573.583 31.1515 573.659 31.1591V32.5227C573.613 32.5114 573.509 32.4943 573.346 32.4716C573.187 32.4451 573.018 32.4318 572.84 32.4318C572.416 32.4318 572.037 32.5208 571.704 32.6989C571.375 32.8731 571.113 33.1155 570.92 33.4261C570.731 33.733 570.636 34.0833 570.636 34.4773V40H569.295ZM578.528 40.1818C577.74 40.1818 577.049 39.9943 576.454 39.6193C575.863 39.2443 575.401 38.7197 575.068 38.0455C574.738 37.3712 574.573 36.5833 574.573 35.6818C574.573 34.7727 574.738 33.9792 575.068 33.3011C575.401 32.6231 575.863 32.0966 576.454 31.7216C577.049 31.3466 577.74 31.1591 578.528 31.1591C579.316 31.1591 580.005 31.3466 580.596 31.7216C581.191 32.0966 581.653 32.6231 581.982 33.3011C582.316 33.9792 582.482 34.7727 582.482 35.6818C582.482 36.5833 582.316 37.3712 581.982 38.0455C581.653 38.7197 581.191 39.2443 580.596 39.6193C580.005 39.9943 579.316 40.1818 578.528 40.1818ZM578.528 38.9773C579.126 38.9773 579.619 38.8239 580.005 38.517C580.392 38.2102 580.678 37.8068 580.863 37.3068C581.049 36.8068 581.142 36.2652 581.142 35.6818C581.142 35.0985 581.049 34.5549 580.863 34.0511C580.678 33.5473 580.392 33.1402 580.005 32.8295C579.619 32.5189 579.126 32.3636 578.528 32.3636C577.929 32.3636 577.437 32.5189 577.051 32.8295C576.664 33.1402 576.378 33.5473 576.193 34.0511C576.007 34.5549 575.914 35.0985 575.914 35.6818C575.914 36.2652 576.007 36.8068 576.193 37.3068C576.378 37.8068 576.664 38.2102 577.051 38.517C577.437 38.8239 577.929 38.9773 578.528 38.9773ZM590.029 36.4318V31.2727H591.37V40H590.029V38.5227H589.938C589.734 38.9659 589.416 39.3428 588.984 39.6534C588.552 39.9602 588.007 40.1136 587.348 40.1136C586.802 40.1136 586.317 39.9943 585.893 39.7557C585.469 39.5133 585.135 39.1496 584.893 38.6648C584.651 38.1761 584.529 37.5606 584.529 36.8182V31.2727H585.87V36.7273C585.87 37.3636 586.048 37.8712 586.404 38.25C586.764 38.6288 587.223 38.8182 587.779 38.8182C588.113 38.8182 588.452 38.733 588.796 38.5625C589.145 38.392 589.437 38.1307 589.671 37.7784C589.91 37.4261 590.029 36.9773 590.029 36.4318ZM595.167 34.75V40H593.826V31.2727H595.122V32.6364H595.235C595.44 32.1932 595.75 31.8371 596.167 31.5682C596.584 31.2955 597.122 31.1591 597.781 31.1591C598.372 31.1591 598.889 31.2803 599.332 31.5227C599.775 31.7614 600.12 32.125 600.366 32.6136C600.612 33.0985 600.735 33.7121 600.735 34.4545V40H599.394V34.5455C599.394 33.8598 599.216 33.3258 598.86 32.9432C598.504 32.5568 598.016 32.3636 597.394 32.3636C596.966 32.3636 596.584 32.4564 596.247 32.642C595.913 32.8277 595.65 33.0985 595.457 33.4545C595.264 33.8106 595.167 34.2424 595.167 34.75ZM606.481 40.1818C605.754 40.1818 605.112 39.9981 604.555 39.6307C603.998 39.2595 603.563 38.7367 603.248 38.0625C602.934 37.3845 602.777 36.5833 602.777 35.6591C602.777 34.7424 602.934 33.947 603.248 33.2727C603.563 32.5985 604 32.0777 604.561 31.7102C605.121 31.3428 605.769 31.1591 606.504 31.1591C607.072 31.1591 607.521 31.2538 607.85 31.4432C608.184 31.6288 608.438 31.8409 608.612 32.0795C608.79 32.3144 608.928 32.5076 609.027 32.6591H609.14V28.3636H610.481V40H609.186V38.6591H609.027C608.928 38.8182 608.788 39.0189 608.606 39.2614C608.424 39.5 608.165 39.714 607.828 39.9034C607.491 40.089 607.042 40.1818 606.481 40.1818ZM606.663 38.9773C607.201 38.9773 607.655 38.8371 608.027 38.5568C608.398 38.2727 608.68 37.8807 608.873 37.3807C609.066 36.8769 609.163 36.2955 609.163 35.6364C609.163 34.9848 609.068 34.4148 608.879 33.9261C608.689 33.4337 608.409 33.0511 608.038 32.7784C607.667 32.5019 607.208 32.3636 606.663 32.3636C606.095 32.3636 605.621 32.5095 605.242 32.8011C604.867 33.089 604.585 33.4811 604.396 33.9773C604.21 34.4697 604.117 35.0227 604.117 35.6364C604.117 36.2576 604.212 36.822 604.402 37.3295C604.595 37.8333 604.879 38.2348 605.254 38.5341C605.633 38.8295 606.102 38.9773 606.663 38.9773ZM621.509 31.2727V32.4091H616.805V31.2727H621.509ZM618.214 40V30.0682C618.214 29.5682 618.331 29.1515 618.566 28.8182C618.801 28.4848 619.106 28.2348 619.481 28.0682C619.856 27.9015 620.252 27.8182 620.669 27.8182C620.998 27.8182 621.267 27.8447 621.475 27.8977C621.684 27.9508 621.839 28 621.941 28.0455L621.555 29.2045C621.487 29.1818 621.392 29.1534 621.271 29.1193C621.153 29.0852 620.998 29.0682 620.805 29.0682C620.362 29.0682 620.042 29.1799 619.845 29.4034C619.652 29.6269 619.555 29.9545 619.555 30.3864V40H618.214ZM623.389 40V31.2727H624.73V40H623.389ZM624.071 29.8182C623.809 29.8182 623.584 29.7292 623.394 29.5511C623.209 29.3731 623.116 29.1591 623.116 28.9091C623.116 28.6591 623.209 28.4451 623.394 28.267C623.584 28.089 623.809 28 624.071 28C624.332 28 624.555 28.089 624.741 28.267C624.93 28.4451 625.025 28.6591 625.025 28.9091C625.025 29.1591 624.93 29.3731 624.741 29.5511C624.555 29.7292 624.332 29.8182 624.071 29.8182ZM628.527 28.3636V40H627.186V28.3636H628.527ZM632.323 28.3636V40H630.982V28.3636H632.323Z" fill="white" fill-opacity="0.95"/>
<mask id="path-7-inside-3_1622_6667" fill="white">
<path d="M866.667 0H1300V68H866.667V0Z"/>
</mask>
<path d="M1300 0H1301V-1H1300V0ZM1300 68V69H1301V68H1300ZM866.667 1H1300V-1H866.667V1ZM1299 0V68H1301V0H1299ZM1300 67H866.667V69H1300V67Z" fill="white" fill-opacity="0.3" mask="url(#path-7-inside-3_1622_6667)"/>
<path d="M901.439 40.1818C900.621 40.1818 899.917 39.9886 899.326 39.6023C898.735 39.2159 898.28 38.6837 897.962 38.0057C897.644 37.3277 897.485 36.553 897.485 35.6818C897.485 34.7955 897.648 34.0133 897.973 33.3352C898.303 32.6534 898.761 32.1212 899.348 31.7386C899.939 31.3523 900.629 31.1591 901.417 31.1591C902.03 31.1591 902.583 31.2727 903.076 31.5C903.568 31.7273 903.972 32.0455 904.286 32.4545C904.6 32.8636 904.795 33.3409 904.871 33.8864H903.53C903.428 33.4886 903.201 33.1364 902.848 32.8295C902.5 32.5189 902.03 32.3636 901.439 32.3636C900.917 32.3636 900.458 32.5 900.064 32.7727C899.674 33.0417 899.369 33.4223 899.15 33.9148C898.934 34.4034 898.826 34.9773 898.826 35.6364C898.826 36.3106 898.932 36.8977 899.144 37.3977C899.36 37.8977 899.663 38.286 900.053 38.5625C900.447 38.839 900.909 38.9773 901.439 38.9773C901.788 38.9773 902.104 38.9167 902.388 38.7955C902.672 38.6742 902.913 38.5 903.11 38.2727C903.307 38.0455 903.447 37.7727 903.53 37.4545H904.871C904.795 37.9697 904.608 38.4337 904.309 38.8466C904.013 39.2557 903.621 39.5814 903.133 39.8239C902.648 40.0625 902.083 40.1818 901.439 40.1818ZM910.377 40.1818C909.589 40.1818 908.898 39.9943 908.303 39.6193C907.712 39.2443 907.25 38.7197 906.917 38.0455C906.587 37.3712 906.422 36.5833 906.422 35.6818C906.422 34.7727 906.587 33.9792 906.917 33.3011C907.25 32.6231 907.712 32.0966 908.303 31.7216C908.898 31.3466 909.589 31.1591 910.377 31.1591C911.165 31.1591 911.854 31.3466 912.445 31.7216C913.04 32.0966 913.502 32.6231 913.831 33.3011C914.165 33.9792 914.331 34.7727 914.331 35.6818C914.331 36.5833 914.165 37.3712 913.831 38.0455C913.502 38.7197 913.04 39.2443 912.445 39.6193C911.854 39.9943 911.165 40.1818 910.377 40.1818ZM910.377 38.9773C910.975 38.9773 911.468 38.8239 911.854 38.517C912.24 38.2102 912.526 37.8068 912.712 37.3068C912.898 36.8068 912.99 36.2652 912.99 35.6818C912.99 35.0985 912.898 34.5549 912.712 34.0511C912.526 33.5473 912.24 33.1402 911.854 32.8295C911.468 32.5189 910.975 32.3636 910.377 32.3636C909.778 32.3636 909.286 32.5189 908.9 32.8295C908.513 33.1402 908.227 33.5473 908.042 34.0511C907.856 34.5549 907.763 35.0985 907.763 35.6818C907.763 36.2652 907.856 36.8068 908.042 37.3068C908.227 37.8068 908.513 38.2102 908.9 38.517C909.286 38.8239 909.778 38.9773 910.377 38.9773ZM917.719 28.3636V40H916.378V28.3636H917.719ZM923.721 40.1818C922.933 40.1818 922.241 39.9943 921.647 39.6193C921.056 39.2443 920.594 38.7197 920.26 38.0455C919.931 37.3712 919.766 36.5833 919.766 35.6818C919.766 34.7727 919.931 33.9792 920.26 33.3011C920.594 32.6231 921.056 32.0966 921.647 31.7216C922.241 31.3466 922.933 31.1591 923.721 31.1591C924.508 31.1591 925.198 31.3466 925.789 31.7216C926.383 32.0966 926.846 32.6231 927.175 33.3011C927.508 33.9792 927.675 34.7727 927.675 35.6818C927.675 36.5833 927.508 37.3712 927.175 38.0455C926.846 38.7197 926.383 39.2443 925.789 39.6193C925.198 39.9943 924.508 40.1818 923.721 40.1818ZM923.721 38.9773C924.319 38.9773 924.812 38.8239 925.198 38.517C925.584 38.2102 925.87 37.8068 926.056 37.3068C926.241 36.8068 926.334 36.2652 926.334 35.6818C926.334 35.0985 926.241 34.5549 926.056 34.0511C925.87 33.5473 925.584 33.1402 925.198 32.8295C924.812 32.5189 924.319 32.3636 923.721 32.3636C923.122 32.3636 922.63 32.5189 922.243 32.8295C921.857 33.1402 921.571 33.5473 921.385 34.0511C921.2 34.5549 921.107 35.0985 921.107 35.6818C921.107 36.2652 921.2 36.8068 921.385 37.3068C921.571 37.8068 921.857 38.2102 922.243 38.517C922.63 38.8239 923.122 38.9773 923.721 38.9773ZM929.722 40V31.2727H931.017V32.5909H931.108C931.267 32.1591 931.555 31.8087 931.972 31.5398C932.389 31.2708 932.858 31.1364 933.381 31.1364C933.48 31.1364 933.603 31.1383 933.75 31.142C933.898 31.1458 934.01 31.1515 934.086 31.1591V32.5227C934.04 32.5114 933.936 32.4943 933.773 32.4716C933.614 32.4451 933.446 32.4318 933.267 32.4318C932.843 32.4318 932.464 32.5208 932.131 32.6989C931.802 32.8731 931.54 33.1155 931.347 33.4261C931.158 33.733 931.063 34.0833 931.063 34.4773V40H929.722ZM935.652 40.0909C935.372 40.0909 935.132 39.9905 934.931 39.7898C934.73 39.589 934.63 39.3485 934.63 39.0682C934.63 38.7879 934.73 38.5473 934.931 38.3466C935.132 38.1458 935.372 38.0455 935.652 38.0455C935.933 38.0455 936.173 38.1458 936.374 38.3466C936.575 38.5473 936.675 38.7879 936.675 39.0682C936.675 39.2538 936.628 39.4242 936.533 39.5795C936.442 39.7348 936.319 39.8598 936.164 39.9545C936.012 40.0455 935.842 40.0909 935.652 40.0909ZM942.877 31.2727V32.4091H938.354V31.2727H942.877ZM939.672 29.1818H941.013V37.5C941.013 37.8788 941.068 38.1629 941.178 38.3523C941.292 38.5379 941.436 38.6629 941.61 38.7273C941.788 38.7879 941.975 38.8182 942.172 38.8182C942.32 38.8182 942.441 38.8106 942.536 38.7955C942.631 38.7765 942.706 38.7614 942.763 38.75L943.036 39.9545C942.945 39.9886 942.818 40.0227 942.655 40.0568C942.492 40.0947 942.286 40.1136 942.036 40.1136C941.657 40.1136 941.286 40.0322 940.922 39.8693C940.562 39.7064 940.263 39.4583 940.025 39.125C939.79 38.7917 939.672 38.3712 939.672 37.8636V29.1818ZM946.422 34.75V40H945.081V28.3636H946.422V32.6364H946.536C946.74 32.1856 947.047 31.8277 947.456 31.5625C947.869 31.2936 948.419 31.1591 949.104 31.1591C949.699 31.1591 950.22 31.2784 950.667 31.517C951.114 31.7519 951.46 32.1136 951.706 32.6023C951.956 33.0871 952.081 33.7045 952.081 34.4545V40H950.74V34.5455C950.74 33.8523 950.561 33.3163 950.201 32.9375C949.845 32.5549 949.35 32.3636 948.718 32.3636C948.278 32.3636 947.884 32.4564 947.536 32.642C947.191 32.8277 946.919 33.0985 946.718 33.4545C946.521 33.8106 946.422 34.2424 946.422 34.75ZM958.194 40.1818C957.353 40.1818 956.627 39.9962 956.017 39.625C955.411 39.25 954.944 38.7273 954.614 38.0568C954.288 37.3826 954.125 36.5985 954.125 35.7045C954.125 34.8106 954.288 34.0227 954.614 33.3409C954.944 32.6553 955.402 32.1212 955.989 31.7386C956.58 31.3523 957.269 31.1591 958.057 31.1591C958.512 31.1591 958.961 31.2348 959.404 31.3864C959.847 31.5379 960.25 31.7841 960.614 32.125C960.978 32.4621 961.267 32.9091 961.483 33.4659C961.699 34.0227 961.807 34.7083 961.807 35.5227V36.0909H955.08V34.9318H960.444C960.444 34.4394 960.345 34 960.148 33.6136C959.955 33.2273 959.678 32.9223 959.319 32.6989C958.963 32.4754 958.542 32.3636 958.057 32.3636C957.523 32.3636 957.061 32.4962 956.671 32.7614C956.285 33.0227 955.987 33.3636 955.779 33.7841C955.571 34.2045 955.466 34.6553 955.466 35.1364V35.9091C955.466 36.5682 955.58 37.1269 955.807 37.5852C956.038 38.0398 956.358 38.3864 956.767 38.625C957.177 38.8598 957.652 38.9773 958.194 38.9773C958.546 38.9773 958.864 38.928 959.148 38.8295C959.436 38.7273 959.684 38.5758 959.892 38.375C960.101 38.1705 960.262 37.9167 960.375 37.6136L961.671 37.9773C961.535 38.4167 961.305 38.803 960.983 39.1364C960.661 39.4659 960.264 39.7235 959.79 39.9091C959.317 40.0909 958.785 40.1818 958.194 40.1818ZM963.847 40V31.2727H965.142V32.6364H965.256C965.438 32.1705 965.731 31.8087 966.137 31.5511C966.542 31.2898 967.029 31.1591 967.597 31.1591C968.173 31.1591 968.652 31.2898 969.035 31.5511C969.421 31.8087 969.722 32.1705 969.938 32.6364H970.029C970.252 32.1856 970.588 31.8277 971.035 31.5625C971.481 31.2936 972.017 31.1591 972.642 31.1591C973.423 31.1591 974.061 31.4034 974.557 31.892C975.053 32.3769 975.302 33.1326 975.302 34.1591V40H973.961V34.1591C973.961 33.5152 973.785 33.0549 973.432 32.7784C973.08 32.5019 972.665 32.3636 972.188 32.3636C971.574 32.3636 971.099 32.5492 970.762 32.9205C970.425 33.2879 970.256 33.7538 970.256 34.3182V40H968.892V34.0227C968.892 33.5265 968.731 33.1269 968.41 32.8239C968.088 32.517 967.673 32.3636 967.165 32.3636C966.817 32.3636 966.491 32.4564 966.188 32.642C965.889 32.8277 965.646 33.0852 965.461 33.4148C965.279 33.7405 965.188 34.1174 965.188 34.5455V40H963.847ZM981.412 40.1818C980.571 40.1818 979.846 39.9962 979.236 39.625C978.63 39.25 978.162 38.7273 977.833 38.0568C977.507 37.3826 977.344 36.5985 977.344 35.7045C977.344 34.8106 977.507 34.0227 977.833 33.3409C978.162 32.6553 978.621 32.1212 979.208 31.7386C979.799 31.3523 980.488 31.1591 981.276 31.1591C981.731 31.1591 982.179 31.2348 982.623 31.3864C983.066 31.5379 983.469 31.7841 983.833 32.125C984.196 32.4621 984.486 32.9091 984.702 33.4659C984.918 34.0227 985.026 34.7083 985.026 35.5227V36.0909H978.299V34.9318H983.662C983.662 34.4394 983.564 34 983.367 33.6136C983.174 33.2273 982.897 32.9223 982.537 32.6989C982.181 32.4754 981.761 32.3636 981.276 32.3636C980.742 32.3636 980.28 32.4962 979.89 32.7614C979.503 33.0227 979.206 33.3636 978.998 33.7841C978.789 34.2045 978.685 34.6553 978.685 35.1364V35.9091C978.685 36.5682 978.799 37.1269 979.026 37.5852C979.257 38.0398 979.577 38.3864 979.986 38.625C980.395 38.8598 980.871 38.9773 981.412 38.9773C981.765 38.9773 982.083 38.928 982.367 38.8295C982.655 38.7273 982.903 38.5758 983.111 38.375C983.32 38.1705 983.481 37.9167 983.594 37.6136L984.89 37.9773C984.753 38.4167 984.524 38.803 984.202 39.1364C983.88 39.4659 983.482 39.7235 983.009 39.9091C982.535 40.0909 982.003 40.1818 981.412 40.1818ZM988.043 40.0909C987.763 40.0909 987.522 39.9905 987.321 39.7898C987.121 39.589 987.02 39.3485 987.02 39.0682C987.02 38.7879 987.121 38.5473 987.321 38.3466C987.522 38.1458 987.763 38.0455 988.043 38.0455C988.323 38.0455 988.564 38.1458 988.765 38.3466C988.965 38.5473 989.066 38.7879 989.066 39.0682C989.066 39.2538 989.018 39.4242 988.924 39.5795C988.833 39.7348 988.71 39.8598 988.554 39.9545C988.403 40.0455 988.232 40.0909 988.043 40.0909ZM995.017 40.1818C994.199 40.1818 993.495 39.9886 992.904 39.6023C992.313 39.2159 991.858 38.6837 991.54 38.0057C991.222 37.3277 991.063 36.553 991.063 35.6818C991.063 34.7955 991.226 34.0133 991.552 33.3352C991.881 32.6534 992.339 32.1212 992.927 31.7386C993.517 31.3523 994.207 31.1591 994.995 31.1591C995.608 31.1591 996.161 31.2727 996.654 31.5C997.146 31.7273 997.55 32.0455 997.864 32.4545C998.178 32.8636 998.374 33.3409 998.449 33.8864H997.108C997.006 33.4886 996.779 33.1364 996.427 32.8295C996.078 32.5189 995.608 32.3636 995.017 32.3636C994.495 32.3636 994.036 32.5 993.642 32.7727C993.252 33.0417 992.947 33.4223 992.728 33.9148C992.512 34.4034 992.404 34.9773 992.404 35.6364C992.404 36.3106 992.51 36.8977 992.722 37.3977C992.938 37.8977 993.241 38.286 993.631 38.5625C994.025 38.839 994.487 38.9773 995.017 38.9773C995.366 38.9773 995.682 38.9167 995.966 38.7955C996.25 38.6742 996.491 38.5 996.688 38.2727C996.885 38.0455 997.025 37.7727 997.108 37.4545H998.449C998.374 37.9697 998.186 38.4337 997.887 38.8466C997.591 39.2557 997.199 39.5814 996.711 39.8239C996.226 40.0625 995.661 40.1818 995.017 40.1818ZM1003.95 40.1818C1003.17 40.1818 1002.48 39.9943 1001.88 39.6193C1001.29 39.2443 1000.83 38.7197 1000.49 38.0455C1000.17 37.3712 1000 36.5833 1000 35.6818C1000 34.7727 1000.17 33.9792 1000.49 33.3011C1000.83 32.6231 1001.29 32.0966 1001.88 31.7216C1002.48 31.3466 1003.17 31.1591 1003.95 31.1591C1004.74 31.1591 1005.43 31.3466 1006.02 31.7216C1006.62 32.0966 1007.08 32.6231 1007.41 33.3011C1007.74 33.9792 1007.91 34.7727 1007.91 35.6818C1007.91 36.5833 1007.74 37.3712 1007.41 38.0455C1007.08 38.7197 1006.62 39.2443 1006.02 39.6193C1005.43 39.9943 1004.74 40.1818 1003.95 40.1818ZM1003.95 38.9773C1004.55 38.9773 1005.05 38.8239 1005.43 38.517C1005.82 38.2102 1006.1 37.8068 1006.29 37.3068C1006.48 36.8068 1006.57 36.2652 1006.57 35.6818C1006.57 35.0985 1006.48 34.5549 1006.29 34.0511C1006.1 33.5473 1005.82 33.1402 1005.43 32.8295C1005.05 32.5189 1004.55 32.3636 1003.95 32.3636C1003.36 32.3636 1002.86 32.5189 1002.48 32.8295C1002.09 33.1402 1001.81 33.5473 1001.62 34.0511C1001.43 34.5549 1001.34 35.0985 1001.34 35.6818C1001.34 36.2652 1001.43 36.8068 1001.62 37.3068C1001.81 37.8068 1002.09 38.2102 1002.48 38.517C1002.86 38.8239 1003.36 38.9773 1003.95 38.9773ZM1011.3 34.75V40H1009.96V31.2727H1011.25V32.6364H1011.37C1011.57 32.1932 1011.88 31.8371 1012.3 31.5682C1012.71 31.2955 1013.25 31.1591 1013.91 31.1591C1014.5 31.1591 1015.02 31.2803 1015.46 31.5227C1015.91 31.7614 1016.25 32.125 1016.5 32.6136C1016.74 33.0985 1016.87 33.7121 1016.87 34.4545V40H1015.52V34.5455C1015.52 33.8598 1015.35 33.3258 1014.99 32.9432C1014.63 32.5568 1014.15 32.3636 1013.52 32.3636C1013.1 32.3636 1012.71 32.4564 1012.38 32.642C1012.04 32.8277 1011.78 33.0985 1011.59 33.4545C1011.39 33.8106 1011.3 34.2424 1011.3 34.75ZM1023.11 31.2727V32.4091H1018.59V31.2727H1023.11ZM1019.91 29.1818H1021.25V37.5C1021.25 37.8788 1021.3 38.1629 1021.41 38.3523C1021.53 38.5379 1021.67 38.6629 1021.84 38.7273C1022.02 38.7879 1022.21 38.8182 1022.41 38.8182C1022.55 38.8182 1022.68 38.8106 1022.77 38.7955C1022.87 38.7765 1022.94 38.7614 1023 38.75L1023.27 39.9545C1023.18 39.9886 1023.05 40.0227 1022.89 40.0568C1022.73 40.0947 1022.52 40.1136 1022.27 40.1136C1021.89 40.1136 1021.52 40.0322 1021.16 39.8693C1020.8 39.7064 1020.5 39.4583 1020.26 39.125C1020.02 38.7917 1019.91 38.3712 1019.91 37.8636V29.1818ZM1028.69 40.1818C1027.85 40.1818 1027.13 39.9962 1026.52 39.625C1025.91 39.25 1025.44 38.7273 1025.11 38.0568C1024.79 37.3826 1024.63 36.5985 1024.63 35.7045C1024.63 34.8106 1024.79 34.0227 1025.11 33.3409C1025.44 32.6553 1025.9 32.1212 1026.49 31.7386C1027.08 31.3523 1027.77 31.1591 1028.56 31.1591C1029.01 31.1591 1029.46 31.2348 1029.9 31.3864C1030.35 31.5379 1030.75 31.7841 1031.11 32.125C1031.48 32.4621 1031.77 32.9091 1031.98 33.4659C1032.2 34.0227 1032.31 34.7083 1032.31 35.5227V36.0909H1025.58V34.9318H1030.94C1030.94 34.4394 1030.85 34 1030.65 33.6136C1030.45 33.2273 1030.18 32.9223 1029.82 32.6989C1029.46 32.4754 1029.04 32.3636 1028.56 32.3636C1028.02 32.3636 1027.56 32.4962 1027.17 32.7614C1026.78 33.0227 1026.49 33.3636 1026.28 33.7841C1026.07 34.2045 1025.97 34.6553 1025.97 35.1364V35.9091C1025.97 36.5682 1026.08 37.1269 1026.31 37.5852C1026.54 38.0398 1026.86 38.3864 1027.27 38.625C1027.68 38.8598 1028.15 38.9773 1028.69 38.9773C1029.05 38.9773 1029.36 38.928 1029.65 38.8295C1029.94 38.7273 1030.18 38.5758 1030.39 38.375C1030.6 38.1705 1030.76 37.9167 1030.88 37.6136L1032.17 37.9773C1032.03 38.4167 1031.81 38.803 1031.48 39.1364C1031.16 39.4659 1030.76 39.7235 1030.29 39.9091C1029.82 40.0909 1029.28 40.1818 1028.69 40.1818ZM1035.69 34.75V40H1034.35V31.2727H1035.64V32.6364H1035.76C1035.96 32.1932 1036.27 31.8371 1036.69 31.5682C1037.1 31.2955 1037.64 31.1591 1038.3 31.1591C1038.89 31.1591 1039.41 31.2803 1039.85 31.5227C1040.3 31.7614 1040.64 32.125 1040.89 32.6136C1041.13 33.0985 1041.26 33.7121 1041.26 34.4545V40H1039.92V34.5455C1039.92 33.8598 1039.74 33.3258 1039.38 32.9432C1039.03 32.5568 1038.54 32.3636 1037.92 32.3636C1037.49 32.3636 1037.1 32.4564 1036.77 32.642C1036.43 32.8277 1036.17 33.0985 1035.98 33.4545C1035.78 33.8106 1035.69 34.2424 1035.69 34.75ZM1047.5 31.2727V32.4091H1042.98V31.2727H1047.5ZM1044.3 29.1818H1045.64V37.5C1045.64 37.8788 1045.69 38.1629 1045.8 38.3523C1045.92 38.5379 1046.06 38.6629 1046.23 38.7273C1046.41 38.7879 1046.6 38.8182 1046.8 38.8182C1046.95 38.8182 1047.07 38.8106 1047.16 38.7955C1047.26 38.7765 1047.33 38.7614 1047.39 38.75L1047.66 39.9545C1047.57 39.9886 1047.44 40.0227 1047.28 40.0568C1047.12 40.0947 1046.91 40.1136 1046.66 40.1136C1046.28 40.1136 1045.91 40.0322 1045.55 39.8693C1045.19 39.7064 1044.89 39.4583 1044.65 39.125C1044.41 38.7917 1044.3 38.3712 1044.3 37.8636V29.1818ZM1050.5 40.0909C1050.22 40.0909 1049.98 39.9905 1049.77 39.7898C1049.57 39.589 1049.47 39.3485 1049.47 39.0682C1049.47 38.7879 1049.57 38.5473 1049.77 38.3466C1049.98 38.1458 1050.22 38.0455 1050.5 38.0455C1050.78 38.0455 1051.02 38.1458 1051.22 38.3466C1051.42 38.5473 1051.52 38.7879 1051.52 39.0682C1051.52 39.2538 1051.47 39.4242 1051.38 39.5795C1051.29 39.7348 1051.16 39.8598 1051.01 39.9545C1050.86 40.0455 1050.69 40.0909 1050.5 40.0909ZM1053.93 40V31.2727H1055.27V40H1053.93ZM1054.61 29.8182C1054.35 29.8182 1054.12 29.7292 1053.93 29.5511C1053.75 29.3731 1053.65 29.1591 1053.65 28.9091C1053.65 28.6591 1053.75 28.4451 1053.93 28.267C1054.12 28.089 1054.35 28 1054.61 28C1054.87 28 1055.09 28.089 1055.28 28.267C1055.47 28.4451 1055.56 28.6591 1055.56 28.9091C1055.56 29.1591 1055.47 29.3731 1055.28 29.5511C1055.09 29.7292 1054.87 29.8182 1054.61 29.8182ZM1059.06 34.75V40H1057.72V31.2727H1059.02V32.6364H1059.13C1059.34 32.1932 1059.65 31.8371 1060.06 31.5682C1060.48 31.2955 1061.02 31.1591 1061.68 31.1591C1062.27 31.1591 1062.78 31.2803 1063.23 31.5227C1063.67 31.7614 1064.02 32.125 1064.26 32.6136C1064.51 33.0985 1064.63 33.7121 1064.63 34.4545V40H1063.29V34.5455C1063.29 33.8598 1063.11 33.3258 1062.76 32.9432C1062.4 32.5568 1061.91 32.3636 1061.29 32.3636C1060.86 32.3636 1060.48 32.4564 1060.14 32.642C1059.81 32.8277 1059.55 33.0985 1059.35 33.4545C1059.16 33.8106 1059.06 34.2424 1059.06 34.75ZM1070.38 40.1818C1069.65 40.1818 1069.01 39.9981 1068.45 39.6307C1067.89 39.2595 1067.46 38.7367 1067.14 38.0625C1066.83 37.3845 1066.67 36.5833 1066.67 35.6591C1066.67 34.7424 1066.83 33.947 1067.14 33.2727C1067.46 32.5985 1067.9 32.0777 1068.46 31.7102C1069.02 31.3428 1069.66 31.1591 1070.4 31.1591C1070.97 31.1591 1071.42 31.2538 1071.75 31.4432C1072.08 31.6288 1072.33 31.8409 1072.51 32.0795C1072.69 32.3144 1072.82 32.5076 1072.92 32.6591H1073.04V28.3636H1074.38V40H1073.08V38.6591H1072.92C1072.82 38.8182 1072.68 39.0189 1072.5 39.2614C1072.32 39.5 1072.06 39.714 1071.72 39.9034C1071.39 40.089 1070.94 40.1818 1070.38 40.1818ZM1070.56 38.9773C1071.1 38.9773 1071.55 38.8371 1071.92 38.5568C1072.29 38.2727 1072.58 37.8807 1072.77 37.3807C1072.96 36.8769 1073.06 36.2955 1073.06 35.6364C1073.06 34.9848 1072.96 34.4148 1072.77 33.9261C1072.59 33.4337 1072.3 33.0511 1071.93 32.7784C1071.56 32.5019 1071.1 32.3636 1070.56 32.3636C1069.99 32.3636 1069.52 32.5095 1069.14 32.8011C1068.76 33.089 1068.48 33.4811 1068.29 33.9773C1068.11 34.4697 1068.01 35.0227 1068.01 35.6364C1068.01 36.2576 1068.11 36.822 1068.3 37.3295C1068.49 37.8333 1068.77 38.2348 1069.15 38.5341C1069.53 38.8295 1070 38.9773 1070.56 38.9773ZM1077.02 40V31.2727H1078.36V40H1077.02ZM1077.7 29.8182C1077.44 29.8182 1077.21 29.7292 1077.02 29.5511C1076.84 29.3731 1076.75 29.1591 1076.75 28.9091C1076.75 28.6591 1076.84 28.4451 1077.02 28.267C1077.21 28.089 1077.44 28 1077.7 28C1077.96 28 1078.19 28.089 1078.37 28.267C1078.56 28.4451 1078.66 28.6591 1078.66 28.9091C1078.66 29.1591 1078.56 29.3731 1078.37 29.5511C1078.19 29.7292 1077.96 29.8182 1077.7 29.8182ZM1084.36 40.1818C1083.54 40.1818 1082.84 39.9886 1082.25 39.6023C1081.66 39.2159 1081.2 38.6837 1080.88 38.0057C1080.57 37.3277 1080.41 36.553 1080.41 35.6818C1080.41 34.7955 1080.57 34.0133 1080.9 33.3352C1081.22 32.6534 1081.68 32.1212 1082.27 31.7386C1082.86 31.3523 1083.55 31.1591 1084.34 31.1591C1084.95 31.1591 1085.51 31.2727 1086 31.5C1086.49 31.7273 1086.89 32.0455 1087.21 32.4545C1087.52 32.8636 1087.72 33.3409 1087.79 33.8864H1086.45C1086.35 33.4886 1086.12 33.1364 1085.77 32.8295C1085.42 32.5189 1084.95 32.3636 1084.36 32.3636C1083.84 32.3636 1083.38 32.5 1082.99 32.7727C1082.6 33.0417 1082.29 33.4223 1082.07 33.9148C1081.86 34.4034 1081.75 34.9773 1081.75 35.6364C1081.75 36.3106 1081.85 36.8977 1082.07 37.3977C1082.28 37.8977 1082.58 38.286 1082.97 38.5625C1083.37 38.839 1083.83 38.9773 1084.36 38.9773C1084.71 38.9773 1085.03 38.9167 1085.31 38.7955C1085.59 38.6742 1085.83 38.5 1086.03 38.2727C1086.23 38.0455 1086.37 37.7727 1086.45 37.4545H1087.79C1087.72 37.9697 1087.53 38.4337 1087.23 38.8466C1086.94 39.2557 1086.54 39.5814 1086.05 39.8239C1085.57 40.0625 1085.01 40.1818 1084.36 40.1818ZM1092.32 40.2045C1091.77 40.2045 1091.27 40.1004 1090.82 39.892C1090.37 39.6799 1090.01 39.375 1089.74 38.9773C1089.48 38.5758 1089.34 38.0909 1089.34 37.5227C1089.34 37.0227 1089.44 36.6174 1089.64 36.3068C1089.84 35.9924 1090.1 35.7462 1090.43 35.5682C1090.76 35.3902 1091.12 35.2576 1091.52 35.1705C1091.92 35.0795 1092.33 35.0076 1092.73 34.9545C1093.26 34.8864 1093.69 34.8352 1094.02 34.8011C1094.35 34.7633 1094.6 34.7008 1094.75 34.6136C1094.9 34.5265 1094.98 34.375 1094.98 34.1591V34.1136C1094.98 33.553 1094.83 33.1174 1094.52 32.8068C1094.22 32.4962 1093.76 32.3409 1093.14 32.3409C1092.5 32.3409 1092 32.4811 1091.63 32.7614C1091.27 33.0417 1091.01 33.3409 1090.87 33.6591L1089.59 33.2045C1089.82 32.6742 1090.12 32.2614 1090.5 31.9659C1090.89 31.6667 1091.3 31.4583 1091.75 31.3409C1092.21 31.2197 1092.65 31.1591 1093.09 31.1591C1093.37 31.1591 1093.7 31.1932 1094.06 31.2614C1094.43 31.3258 1094.78 31.4602 1095.12 31.6648C1095.47 31.8693 1095.75 32.178 1095.98 32.5909C1096.21 33.0038 1096.32 33.5568 1096.32 34.25V40H1094.98V38.8182H1094.91C1094.82 39.0076 1094.67 39.2102 1094.46 39.4261C1094.25 39.642 1093.96 39.8258 1093.61 39.9773C1093.26 40.1288 1092.83 40.2045 1092.32 40.2045ZM1092.53 39C1093.06 39 1093.5 38.8958 1093.87 38.6875C1094.23 38.4792 1094.51 38.2102 1094.7 37.8807C1094.89 37.5511 1094.98 37.2045 1094.98 36.8409V35.6136C1094.92 35.6818 1094.8 35.7443 1094.61 35.8011C1094.42 35.8542 1094.2 35.9015 1093.95 35.9432C1093.7 35.9811 1093.46 36.0152 1093.22 36.0455C1092.99 36.072 1092.81 36.0947 1092.66 36.1136C1092.31 36.1591 1091.99 36.233 1091.69 36.3352C1091.39 36.4337 1091.14 36.5833 1090.96 36.7841C1090.78 36.9811 1090.69 37.25 1090.69 37.5909C1090.69 38.0568 1090.86 38.4091 1091.2 38.6477C1091.55 38.8826 1091.99 39 1092.53 39ZM1102.56 31.2727V32.4091H1098.04V31.2727H1102.56ZM1099.36 29.1818H1100.7V37.5C1100.7 37.8788 1100.76 38.1629 1100.87 38.3523C1100.98 38.5379 1101.12 38.6629 1101.3 38.7273C1101.48 38.7879 1101.66 38.8182 1101.86 38.8182C1102.01 38.8182 1102.13 38.8106 1102.22 38.7955C1102.32 38.7765 1102.39 38.7614 1102.45 38.75L1102.72 39.9545C1102.63 39.9886 1102.51 40.0227 1102.34 40.0568C1102.18 40.0947 1101.97 40.1136 1101.72 40.1136C1101.34 40.1136 1100.97 40.0322 1100.61 39.8693C1100.25 39.7064 1099.95 39.4583 1099.71 39.125C1099.48 38.7917 1099.36 38.3712 1099.36 37.8636V29.1818ZM1108.03 40.1818C1107.25 40.1818 1106.55 39.9943 1105.96 39.6193C1105.37 39.2443 1104.91 38.7197 1104.57 38.0455C1104.24 37.3712 1104.08 36.5833 1104.08 35.6818C1104.08 34.7727 1104.24 33.9792 1104.57 33.3011C1104.91 32.6231 1105.37 32.0966 1105.96 31.7216C1106.55 31.3466 1107.25 31.1591 1108.03 31.1591C1108.82 31.1591 1109.51 31.3466 1110.1 31.7216C1110.7 32.0966 1111.16 32.6231 1111.49 33.3011C1111.82 33.9792 1111.99 34.7727 1111.99 35.6818C1111.99 36.5833 1111.82 37.3712 1111.49 38.0455C1111.16 38.7197 1110.7 39.2443 1110.1 39.6193C1109.51 39.9943 1108.82 40.1818 1108.03 40.1818ZM1108.03 38.9773C1108.63 38.9773 1109.12 38.8239 1109.51 38.517C1109.9 38.2102 1110.18 37.8068 1110.37 37.3068C1110.55 36.8068 1110.65 36.2652 1110.65 35.6818C1110.65 35.0985 1110.55 34.5549 1110.37 34.0511C1110.18 33.5473 1109.9 33.1402 1109.51 32.8295C1109.12 32.5189 1108.63 32.3636 1108.03 32.3636C1107.43 32.3636 1106.94 32.5189 1106.56 32.8295C1106.17 33.1402 1105.88 33.5473 1105.7 34.0511C1105.51 34.5549 1105.42 35.0985 1105.42 35.6818C1105.42 36.2652 1105.51 36.8068 1105.7 37.3068C1105.88 37.8068 1106.17 38.2102 1106.56 38.517C1106.94 38.8239 1107.43 38.9773 1108.03 38.9773ZM1114.03 40V31.2727H1115.33V32.5909H1115.42C1115.58 32.1591 1115.87 31.8087 1116.28 31.5398C1116.7 31.2708 1117.17 31.1364 1117.69 31.1364C1117.79 31.1364 1117.92 31.1383 1118.06 31.142C1118.21 31.1458 1118.32 31.1515 1118.4 31.1591V32.5227C1118.35 32.5114 1118.25 32.4943 1118.09 32.4716C1117.93 32.4451 1117.76 32.4318 1117.58 32.4318C1117.16 32.4318 1116.78 32.5208 1116.44 32.6989C1116.11 32.8731 1115.85 33.1155 1115.66 33.4261C1115.47 33.733 1115.38 34.0833 1115.38 34.4773V40H1114.03ZM1119.96 40.0909C1119.68 40.0909 1119.44 39.9905 1119.24 39.7898C1119.04 39.589 1118.94 39.3485 1118.94 39.0682C1118.94 38.7879 1119.04 38.5473 1119.24 38.3466C1119.44 38.1458 1119.68 38.0455 1119.96 38.0455C1120.25 38.0455 1120.49 38.1458 1120.69 38.3466C1120.89 38.5473 1120.99 38.7879 1120.99 39.0682C1120.99 39.2538 1120.94 39.4242 1120.85 39.5795C1120.75 39.7348 1120.63 39.8598 1120.48 39.9545C1120.32 40.0455 1120.15 40.0909 1119.96 40.0909ZM1124.73 34.75V40H1123.39V31.2727H1124.69V32.6364H1124.8C1125.01 32.1932 1125.32 31.8371 1125.73 31.5682C1126.15 31.2955 1126.69 31.1591 1127.35 31.1591C1127.94 31.1591 1128.46 31.2803 1128.9 31.5227C1129.34 31.7614 1129.69 32.125 1129.93 32.6136C1130.18 33.0985 1130.3 33.7121 1130.3 34.4545V40H1128.96V34.5455C1128.96 33.8598 1128.78 33.3258 1128.43 32.9432C1128.07 32.5568 1127.58 32.3636 1126.96 32.3636C1126.53 32.3636 1126.15 32.4564 1125.81 32.642C1125.48 32.8277 1125.22 33.0985 1125.02 33.4545C1124.83 33.8106 1124.73 34.2424 1124.73 34.75ZM1136.41 40.1818C1135.57 40.1818 1134.85 39.9962 1134.24 39.625C1133.63 39.25 1133.16 38.7273 1132.83 38.0568C1132.51 37.3826 1132.34 36.5985 1132.34 35.7045C1132.34 34.8106 1132.51 34.0227 1132.83 33.3409C1133.16 32.6553 1133.62 32.1212 1134.21 31.7386C1134.8 31.3523 1135.49 31.1591 1136.28 31.1591C1136.73 31.1591 1137.18 31.2348 1137.62 31.3864C1138.07 31.5379 1138.47 31.7841 1138.83 32.125C1139.2 32.4621 1139.49 32.9091 1139.7 33.4659C1139.92 34.0227 1140.03 34.7083 1140.03 35.5227V36.0909H1133.3V34.9318H1138.66C1138.66 34.4394 1138.56 34 1138.37 33.6136C1138.17 33.2273 1137.9 32.9223 1137.54 32.6989C1137.18 32.4754 1136.76 32.3636 1136.28 32.3636C1135.74 32.3636 1135.28 32.4962 1134.89 32.7614C1134.5 33.0227 1134.21 33.3636 1134 33.7841C1133.79 34.2045 1133.69 34.6553 1133.69 35.1364V35.9091C1133.69 36.5682 1133.8 37.1269 1134.03 37.5852C1134.26 38.0398 1134.58 38.3864 1134.99 38.625C1135.4 38.8598 1135.87 38.9773 1136.41 38.9773C1136.76 38.9773 1137.08 38.928 1137.37 38.8295C1137.65 38.7273 1137.9 38.5758 1138.11 38.375C1138.32 38.1705 1138.48 37.9167 1138.59 37.6136L1139.89 37.9773C1139.75 38.4167 1139.52 38.803 1139.2 39.1364C1138.88 39.4659 1138.48 39.7235 1138.01 39.9091C1137.54 40.0909 1137 40.1818 1136.41 40.1818ZM1147.57 36.4318V31.2727H1148.91V40H1147.57V38.5227H1147.47C1147.27 38.9659 1146.95 39.3428 1146.52 39.6534C1146.09 39.9602 1145.54 40.1136 1144.88 40.1136C1144.34 40.1136 1143.85 39.9943 1143.43 39.7557C1143.01 39.5133 1142.67 39.1496 1142.43 38.6648C1142.19 38.1761 1142.07 37.5606 1142.07 36.8182V31.2727H1143.41V36.7273C1143.41 37.3636 1143.58 37.8712 1143.94 38.25C1144.3 38.6288 1144.76 38.8182 1145.32 38.8182C1145.65 38.8182 1145.99 38.733 1146.33 38.5625C1146.68 38.392 1146.97 38.1307 1147.21 37.7784C1147.45 37.4261 1147.57 36.9773 1147.57 36.4318ZM1155.16 31.2727V32.4091H1150.64V31.2727H1155.16ZM1151.95 29.1818H1153.29V37.5C1153.29 37.8788 1153.35 38.1629 1153.46 38.3523C1153.57 38.5379 1153.72 38.6629 1153.89 38.7273C1154.07 38.7879 1154.26 38.8182 1154.45 38.8182C1154.6 38.8182 1154.72 38.8106 1154.82 38.7955C1154.91 38.7765 1154.99 38.7614 1155.04 38.75L1155.32 39.9545C1155.23 39.9886 1155.1 40.0227 1154.94 40.0568C1154.77 40.0947 1154.57 40.1136 1154.32 40.1136C1153.94 40.1136 1153.57 40.0322 1153.2 39.8693C1152.84 39.7064 1152.54 39.4583 1152.31 39.125C1152.07 38.7917 1151.95 38.3712 1151.95 37.8636V29.1818ZM1157.18 40V31.2727H1158.47V32.5909H1158.56C1158.72 32.1591 1159.01 31.8087 1159.43 31.5398C1159.84 31.2708 1160.31 31.1364 1160.83 31.1364C1160.93 31.1364 1161.06 31.1383 1161.2 31.142C1161.35 31.1458 1161.46 31.1515 1161.54 31.1591V32.5227C1161.49 32.5114 1161.39 32.4943 1161.23 32.4716C1161.07 32.4451 1160.9 32.4318 1160.72 32.4318C1160.3 32.4318 1159.92 32.5208 1159.58 32.6989C1159.25 32.8731 1158.99 33.1155 1158.8 33.4261C1158.61 33.733 1158.52 34.0833 1158.52 34.4773V40H1157.18ZM1165.7 40.2045C1165.14 40.2045 1164.64 40.1004 1164.19 39.892C1163.74 39.6799 1163.38 39.375 1163.12 38.9773C1162.85 38.5758 1162.72 38.0909 1162.72 37.5227C1162.72 37.0227 1162.82 36.6174 1163.01 36.3068C1163.21 35.9924 1163.47 35.7462 1163.8 35.5682C1164.13 35.3902 1164.5 35.2576 1164.9 35.1705C1165.3 35.0795 1165.7 35.0076 1166.11 34.9545C1166.64 34.8864 1167.07 34.8352 1167.4 34.8011C1167.73 34.7633 1167.97 34.7008 1168.12 34.6136C1168.28 34.5265 1168.36 34.375 1168.36 34.1591V34.1136C1168.36 33.553 1168.2 33.1174 1167.9 32.8068C1167.59 32.4962 1167.13 32.3409 1166.51 32.3409C1165.87 32.3409 1165.37 32.4811 1165.01 32.7614C1164.65 33.0417 1164.39 33.3409 1164.24 33.6591L1162.97 33.2045C1163.2 32.6742 1163.5 32.2614 1163.88 31.9659C1164.26 31.6667 1164.68 31.4583 1165.13 31.3409C1165.58 31.2197 1166.03 31.1591 1166.47 31.1591C1166.75 31.1591 1167.07 31.1932 1167.44 31.2614C1167.8 31.3258 1168.16 31.4602 1168.5 31.6648C1168.84 31.8693 1169.13 32.178 1169.36 32.5909C1169.58 33.0038 1169.7 33.5568 1169.7 34.25V40H1168.36V38.8182H1168.29C1168.2 39.0076 1168.04 39.2102 1167.83 39.4261C1167.62 39.642 1167.34 39.8258 1166.99 39.9773C1166.63 40.1288 1166.2 40.2045 1165.7 40.2045ZM1165.9 39C1166.43 39 1166.88 38.8958 1167.24 38.6875C1167.61 38.4792 1167.89 38.2102 1168.07 37.8807C1168.26 37.5511 1168.36 37.2045 1168.36 36.8409V35.6136C1168.3 35.6818 1168.17 35.7443 1167.98 35.8011C1167.79 35.8542 1167.57 35.9015 1167.32 35.9432C1167.08 35.9811 1166.83 36.0152 1166.6 36.0455C1166.37 36.072 1166.18 36.0947 1166.04 36.1136C1165.69 36.1591 1165.36 36.233 1165.06 36.3352C1164.76 36.4337 1164.52 36.5833 1164.33 36.7841C1164.15 36.9811 1164.06 37.25 1164.06 37.5909C1164.06 38.0568 1164.23 38.4091 1164.58 38.6477C1164.93 38.8826 1165.37 39 1165.9 39ZM1173.48 28.3636V40H1172.14V28.3636H1173.48ZM1176.92 40.0909C1176.64 40.0909 1176.4 39.9905 1176.2 39.7898C1176 39.589 1175.9 39.3485 1175.9 39.0682C1175.9 38.7879 1176 38.5473 1176.2 38.3466C1176.4 38.1458 1176.64 38.0455 1176.92 38.0455C1177.2 38.0455 1177.44 38.1458 1177.64 38.3466C1177.84 38.5473 1177.94 38.7879 1177.94 39.0682C1177.94 39.2538 1177.89 39.4242 1177.8 39.5795C1177.71 39.7348 1177.58 39.8598 1177.43 39.9545C1177.28 40.0455 1177.11 40.0909 1176.92 40.0909ZM1183.82 40.1591C1183.07 40.1591 1182.4 40.0303 1181.81 39.7727C1181.23 39.5152 1180.77 39.1572 1180.42 38.6989C1180.08 38.2367 1179.89 37.7008 1179.86 37.0909H1181.3C1181.33 37.4659 1181.45 37.7898 1181.68 38.0625C1181.91 38.3314 1182.21 38.5398 1182.57 38.6875C1182.94 38.8352 1183.35 38.9091 1183.8 38.9091C1184.3 38.9091 1184.74 38.822 1185.13 38.6477C1185.51 38.4735 1185.81 38.2311 1186.03 37.9205C1186.25 37.6098 1186.36 37.25 1186.36 36.8409C1186.36 36.4129 1186.26 36.036 1186.05 35.7102C1185.83 35.3807 1185.52 35.1231 1185.11 34.9375C1184.7 34.7519 1184.2 34.6591 1183.61 34.6591H1182.68V33.4091H1183.61C1184.08 33.4091 1184.48 33.3258 1184.83 33.1591C1185.18 32.9924 1185.46 32.7576 1185.65 32.4545C1185.85 32.1515 1185.95 31.7955 1185.95 31.3864C1185.95 30.9924 1185.87 30.6496 1185.69 30.358C1185.52 30.0663 1185.27 29.839 1184.95 29.6761C1184.64 29.5133 1184.27 29.4318 1183.84 29.4318C1183.44 29.4318 1183.06 29.5057 1182.7 29.6534C1182.35 29.7973 1182.06 30.0076 1181.84 30.2841C1181.62 30.5568 1181.5 30.8864 1181.48 31.2727H1180.11C1180.14 30.6629 1180.32 30.1288 1180.67 29.6705C1181.01 29.2083 1181.46 28.8485 1182.02 28.5909C1182.58 28.3333 1183.19 28.2045 1183.86 28.2045C1184.58 28.2045 1185.2 28.3504 1185.72 28.642C1186.23 28.9299 1186.63 29.3106 1186.9 29.7841C1187.18 30.2576 1187.32 30.7689 1187.32 31.3182C1187.32 31.9735 1187.15 32.5322 1186.8 32.9943C1186.46 33.4564 1186 33.7765 1185.41 33.9545V34.0455C1186.14 34.1667 1186.72 34.4792 1187.13 34.983C1187.54 35.483 1187.75 36.1023 1187.75 36.8409C1187.75 37.4735 1187.58 38.0417 1187.23 38.5455C1186.89 39.0455 1186.43 39.4394 1185.84 39.7273C1185.24 40.0152 1184.57 40.1591 1183.82 40.1591Z" fill="white" fill-opacity="0.95"/>
</svg>
