<svg width="1300" height="68" viewBox="0 0 1300 68" fill="none" xmlns="http://www.w3.org/2000/svg">
<mask id="path-1-inside-1_1622_6663" fill="white">
<path d="M0 0H433.333V68H0V0Z"/>
</mask>
<path d="M0 0H433.333V68H0V0Z" fill="#262626"/>
<path d="M433.333 68V69H434.333V68H433.333ZM432.333 0V68H434.333V0H432.333ZM433.333 67H0V69H433.333V67Z" fill="white" fill-opacity="0.3" mask="url(#path-1-inside-1_1622_6663)"/>
<path d="M31.2642 41V26.4545H41.0653V28.9901H34.3395V32.456H40.5611V34.9915H34.3395V38.4645H41.0938V41H31.2642ZM46.479 26.4545V41H43.4535V26.4545H46.479ZM53.8743 41.2131C52.7521 41.2131 51.7862 40.9858 50.9766 40.5312C50.1716 40.072 49.5514 39.4233 49.1158 38.5852C48.6802 37.7424 48.4624 36.7457 48.4624 35.5952C48.4624 34.473 48.6802 33.4882 49.1158 32.6406C49.5514 31.7931 50.1645 31.1326 50.9553 30.6591C51.7507 30.1856 52.6835 29.9489 53.7536 29.9489C54.4732 29.9489 55.1432 30.0649 55.7635 30.2969C56.3885 30.5241 56.933 30.8674 57.397 31.3267C57.8658 31.786 58.2304 32.3636 58.4908 33.0597C58.7512 33.7509 58.8814 34.5606 58.8814 35.4886V36.3196H49.6697V34.4446H56.0334C56.0334 34.009 55.9387 33.6231 55.7493 33.2869C55.5599 32.9508 55.2971 32.688 54.9609 32.4986C54.6295 32.3045 54.2436 32.2074 53.8033 32.2074C53.344 32.2074 52.9368 32.3139 52.5817 32.527C52.2313 32.7353 51.9567 33.017 51.7578 33.3722C51.5589 33.7225 51.4571 34.1132 51.4524 34.544V36.3267C51.4524 36.8665 51.5518 37.3329 51.7507 37.7259C51.9543 38.1188 52.2408 38.4219 52.6101 38.6349C52.9794 38.848 53.4174 38.9545 53.924 38.9545C54.2602 38.9545 54.5679 38.9072 54.8473 38.8125C55.1267 38.7178 55.3658 38.5758 55.5646 38.3864C55.7635 38.197 55.915 37.965 56.0192 37.6903L58.8175 37.875C58.6754 38.5473 58.3842 39.1345 57.9439 39.6364C57.5083 40.1335 56.9448 40.5218 56.2536 40.8011C55.567 41.0758 54.7739 41.2131 53.8743 41.2131ZM60.8558 41V30.0909H63.7393V32.0156H63.8672C64.0945 31.3764 64.4732 30.8722 65.0036 30.5028C65.5339 30.1335 66.1683 29.9489 66.907 29.9489C67.6551 29.9489 68.2919 30.1359 68.8175 30.5099C69.343 30.8793 69.6934 31.3812 69.8686 32.0156H69.9822C70.2048 31.3906 70.6072 30.8911 71.1896 30.517C71.7768 30.1383 72.4704 29.9489 73.2706 29.9489C74.2886 29.9489 75.1148 30.2732 75.7493 30.9219C76.3885 31.5658 76.7081 32.4796 76.7081 33.6634V41H73.6896V34.2599C73.6896 33.6539 73.5286 33.1993 73.2067 32.8963C72.8847 32.5933 72.4822 32.4418 71.9993 32.4418C71.45 32.4418 71.0215 32.617 70.7138 32.9673C70.406 33.313 70.2521 33.7699 70.2521 34.3381V41H67.3189V34.196C67.3189 33.661 67.165 33.2348 66.8572 32.9176C66.5542 32.6004 66.1541 32.4418 65.657 32.4418C65.3208 32.4418 65.0178 32.527 64.7479 32.6974C64.4827 32.8632 64.272 33.0975 64.1158 33.4006C63.9595 33.6989 63.8814 34.0492 63.8814 34.4517V41H60.8558ZM84.0696 41.2131C82.9474 41.2131 81.9815 40.9858 81.1719 40.5312C80.367 40.072 79.7467 39.4233 79.3111 38.5852C78.8755 37.7424 78.6577 36.7457 78.6577 35.5952C78.6577 34.473 78.8755 33.4882 79.3111 32.6406C79.7467 31.7931 80.3598 31.1326 81.1506 30.6591C81.946 30.1856 82.8788 29.9489 83.9489 29.9489C84.6686 29.9489 85.3385 30.0649 85.9588 30.2969C86.5838 30.5241 87.1283 30.8674 87.5923 31.3267C88.0611 31.786 88.4257 32.3636 88.6861 33.0597C88.9465 33.7509 89.0767 34.5606 89.0767 35.4886V36.3196H79.8651V34.4446H86.2287C86.2287 34.009 86.134 33.6231 85.9446 33.2869C85.7552 32.9508 85.4924 32.688 85.1562 32.4986C84.8248 32.3045 84.4389 32.2074 83.9986 32.2074C83.5393 32.2074 83.1321 32.3139 82.777 32.527C82.4266 32.7353 82.152 33.017 81.9531 33.3722C81.7543 33.7225 81.6525 34.1132 81.6477 34.544V36.3267C81.6477 36.8665 81.7472 37.3329 81.946 37.7259C82.1496 38.1188 82.4361 38.4219 82.8054 38.6349C83.1747 38.848 83.6127 38.9545 84.1193 38.9545C84.4555 38.9545 84.7633 38.9072 85.0426 38.8125C85.322 38.7178 85.5611 38.5758 85.7599 38.3864C85.9588 38.197 86.1103 37.965 86.2145 37.6903L89.0128 37.875C88.8707 38.5473 88.5795 39.1345 88.1392 39.6364C87.7036 40.1335 87.1402 40.5218 86.4489 40.8011C85.7623 41.0758 84.9692 41.2131 84.0696 41.2131ZM94.0767 34.6932V41H91.0511V30.0909H93.9347V32.0156H94.0625C94.304 31.3812 94.7088 30.8793 95.277 30.5099C95.8452 30.1359 96.5341 29.9489 97.3438 29.9489C98.1013 29.9489 98.7618 30.1146 99.3253 30.446C99.8887 30.7775 100.327 31.2509 100.639 31.8665C100.952 32.4773 101.108 33.2064 101.108 34.054V41H98.0824V34.5938C98.0871 33.9261 97.9167 33.4053 97.571 33.0312C97.2254 32.6525 96.7495 32.4631 96.1435 32.4631C95.7363 32.4631 95.3764 32.5507 95.0639 32.7259C94.7562 32.901 94.5147 33.1567 94.3395 33.4929C94.169 33.8243 94.0814 34.2244 94.0767 34.6932ZM109.295 30.0909V32.3636H102.725V30.0909H109.295ZM104.217 27.4773H107.243V37.6477C107.243 37.9271 107.285 38.1449 107.37 38.3011C107.456 38.4527 107.574 38.5592 107.725 38.6207C107.882 38.6823 108.062 38.7131 108.265 38.7131C108.407 38.7131 108.549 38.7012 108.691 38.6776C108.833 38.6491 108.942 38.6278 109.018 38.6136L109.494 40.8651C109.342 40.9124 109.129 40.9669 108.855 41.0284C108.58 41.0947 108.246 41.1349 107.853 41.1491C107.124 41.1776 106.485 41.0805 105.936 40.858C105.391 40.6354 104.967 40.2898 104.664 39.821C104.361 39.3523 104.212 38.7604 104.217 38.0455V27.4773Z" fill="white" fill-opacity="0.95"/>
<mask id="path-4-inside-2_1622_6663" fill="white">
<path d="M433.333 0H866.667V68H433.333V0Z"/>
</mask>
<path d="M433.333 0H866.667V68H433.333V0Z" fill="#262626"/>
<path d="M866.667 68V69H867.667V68H866.667ZM865.667 0V68H867.667V0H865.667ZM866.667 67H433.333V69H866.667V67Z" fill="white" fill-opacity="0.3" mask="url(#path-4-inside-2_1622_6663)"/>
<path d="M469.754 41H464.598V26.4545H469.796C471.259 26.4545 472.519 26.7457 473.575 27.3281C474.631 27.9058 475.443 28.7367 476.011 29.821C476.584 30.9053 476.87 32.2027 476.87 33.7131C476.87 35.2282 476.584 36.5303 476.011 37.6193C475.443 38.7083 474.626 39.544 473.561 40.1264C472.5 40.7088 471.231 41 469.754 41ZM467.673 38.3651H469.626C470.535 38.3651 471.3 38.2041 471.92 37.8821C472.545 37.5554 473.014 37.0511 473.326 36.3693C473.643 35.6828 473.802 34.7973 473.802 33.7131C473.802 32.6383 473.643 31.7599 473.326 31.0781C473.014 30.3963 472.547 29.8944 471.927 29.5724C471.307 29.2505 470.542 29.0895 469.633 29.0895H467.673V38.3651ZM484.063 41.2131C482.941 41.2131 481.975 40.9858 481.165 40.5312C480.36 40.072 479.74 39.4233 479.305 38.5852C478.869 37.7424 478.651 36.7457 478.651 35.5952C478.651 34.473 478.869 33.4882 479.305 32.6406C479.74 31.7931 480.353 31.1326 481.144 30.6591C481.94 30.1856 482.872 29.9489 483.942 29.9489C484.662 29.9489 485.332 30.0649 485.952 30.2969C486.577 30.5241 487.122 30.8674 487.586 31.3267C488.055 31.786 488.419 32.3636 488.68 33.0597C488.94 33.7509 489.07 34.5606 489.07 35.4886V36.3196H479.859V34.4446H486.222C486.222 34.009 486.127 33.6231 485.938 33.2869C485.749 32.9508 485.486 32.688 485.15 32.4986C484.818 32.3045 484.432 32.2074 483.992 32.2074C483.533 32.2074 483.126 32.3139 482.77 32.527C482.42 32.7353 482.145 33.017 481.947 33.3722C481.748 33.7225 481.646 34.1132 481.641 34.544V36.3267C481.641 36.8665 481.741 37.3329 481.94 37.7259C482.143 38.1188 482.43 38.4219 482.799 38.6349C483.168 38.848 483.606 38.9545 484.113 38.9545C484.449 38.9545 484.757 38.9072 485.036 38.8125C485.315 38.7178 485.555 38.5758 485.753 38.3864C485.952 38.197 486.104 37.965 486.208 37.6903L489.006 37.875C488.864 38.5473 488.573 39.1345 488.133 39.6364C487.697 40.1335 487.134 40.5218 486.442 40.8011C485.756 41.0758 484.963 41.2131 484.063 41.2131ZM500.121 33.2017L497.351 33.3722C497.304 33.1354 497.202 32.9223 497.046 32.733C496.89 32.5388 496.684 32.3849 496.428 32.2713C496.177 32.1529 495.877 32.0938 495.526 32.0938C495.057 32.0938 494.662 32.1932 494.34 32.392C494.018 32.5862 493.857 32.8466 493.857 33.1733C493.857 33.4337 493.961 33.6539 494.17 33.8338C494.378 34.0137 494.735 34.1581 495.242 34.267L497.217 34.6648C498.277 34.8826 499.068 35.233 499.589 35.7159C500.11 36.1989 500.37 36.8333 500.37 37.6193C500.37 38.3343 500.159 38.9616 499.738 39.5014C499.321 40.0412 498.748 40.4626 498.019 40.7656C497.295 41.0639 496.459 41.2131 495.512 41.2131C494.068 41.2131 492.917 40.9124 492.06 40.3111C491.208 39.705 490.708 38.8812 490.562 37.8395L493.538 37.6832C493.627 38.1236 493.845 38.4598 494.191 38.6918C494.537 38.919 494.979 39.0327 495.519 39.0327C496.049 39.0327 496.476 38.9309 496.797 38.7273C497.124 38.5189 497.29 38.2514 497.295 37.9247C497.29 37.6501 497.174 37.4252 496.947 37.25C496.719 37.0701 496.369 36.9328 495.895 36.8381L494.006 36.4616C492.941 36.2486 492.148 35.8793 491.627 35.3537C491.111 34.8281 490.853 34.1581 490.853 33.3438C490.853 32.643 491.042 32.0393 491.421 31.5327C491.805 31.026 492.342 30.6354 493.033 30.3608C493.729 30.0862 494.544 29.9489 495.476 29.9489C496.854 29.9489 497.939 30.2401 498.729 30.8224C499.525 31.4048 499.989 32.1979 500.121 33.2017ZM502.275 41V30.0909H505.301V41H502.275ZM503.802 28.6847C503.352 28.6847 502.966 28.5355 502.644 28.2372C502.322 27.9342 502.161 27.572 502.161 27.1506C502.161 26.7339 502.322 26.3764 502.644 26.0781C502.966 25.7751 503.35 25.6236 503.795 25.6236C504.25 25.6236 504.635 25.7751 504.953 26.0781C505.275 26.3764 505.436 26.7339 505.436 27.1506C505.436 27.572 505.275 27.9342 504.953 28.2372C504.635 28.5355 504.252 28.6847 503.802 28.6847ZM512.639 45.2472C511.659 45.2472 510.819 45.1146 510.118 44.8494C509.422 44.5843 508.868 44.2268 508.456 43.777C508.044 43.3272 507.776 42.8277 507.653 42.2784L510.452 41.902C510.537 42.1009 510.672 42.2879 510.856 42.4631C511.041 42.643 511.285 42.7898 511.588 42.9034C511.896 43.017 512.27 43.0739 512.71 43.0739C513.368 43.0739 513.91 42.9176 514.337 42.6051C514.767 42.2926 514.983 41.7789 514.983 41.0639V39.0682H514.855C514.722 39.3712 514.524 39.6577 514.258 39.9276C513.993 40.1974 513.652 40.4176 513.236 40.5881C512.819 40.7585 512.322 40.8438 511.744 40.8438C510.925 40.8438 510.179 40.6544 509.507 40.2756C508.839 39.892 508.307 39.3073 507.909 38.5213C507.516 37.7306 507.319 36.7315 507.319 35.5241C507.319 34.2884 507.521 33.2562 507.923 32.4276C508.326 31.599 508.861 30.9787 509.528 30.5668C510.201 30.1548 510.937 29.9489 511.737 29.9489C512.348 29.9489 512.859 30.053 513.271 30.2614C513.683 30.465 514.015 30.7206 514.266 31.0284C514.521 31.3314 514.718 31.6297 514.855 31.9233H514.969V30.0909H517.973V41.1065C517.973 42.0156 517.746 42.7756 517.291 43.3864C516.837 44.0019 516.207 44.4659 515.402 44.7784C514.602 45.0909 513.681 45.2472 512.639 45.2472ZM512.703 38.571C513.191 38.571 513.603 38.4503 513.939 38.2088C514.28 37.9626 514.54 37.6122 514.72 37.1577C514.905 36.6984 514.997 36.1491 514.997 35.5099C514.997 34.8707 514.907 34.3168 514.727 33.848C514.547 33.3745 514.287 33.0076 513.946 32.7472C513.605 32.4867 513.191 32.3565 512.703 32.3565C512.206 32.3565 511.787 32.4915 511.446 32.7614C511.105 33.0265 510.847 33.3958 510.672 33.8693C510.497 34.3428 510.409 34.8897 510.409 35.5099C510.409 36.1397 510.497 36.6842 510.672 37.1435C510.852 37.598 511.11 37.9508 511.446 38.2017C511.787 38.4479 512.206 38.571 512.703 38.571ZM523.406 34.6932V41H520.381V30.0909H523.264V32.0156H523.392C523.633 31.3812 524.038 30.8793 524.606 30.5099C525.175 30.1359 525.864 29.9489 526.673 29.9489C527.431 29.9489 528.091 30.1146 528.655 30.446C529.218 30.7775 529.656 31.2509 529.969 31.8665C530.281 32.4773 530.437 33.2064 530.437 34.054V41H527.412V34.5938C527.417 33.9261 527.246 33.4053 526.9 33.0312C526.555 32.6525 526.079 32.4631 525.473 32.4631C525.066 32.4631 524.706 32.5507 524.393 32.7259C524.086 32.901 523.844 33.1567 523.669 33.4929C523.498 33.8243 523.411 34.2244 523.406 34.6932ZM540.015 41H536.719L541.741 26.4545H545.704L550.718 41H547.422L543.779 29.7784H543.665L540.015 41ZM539.809 35.2827H547.593V37.6832H539.809V35.2827ZM557.531 30.0909V32.3636H550.961V30.0909H557.531ZM552.453 27.4773H555.478V37.6477C555.478 37.9271 555.521 38.1449 555.606 38.3011C555.691 38.4527 555.81 38.5592 555.961 38.6207C556.117 38.6823 556.297 38.7131 556.501 38.7131C556.643 38.7131 556.785 38.7012 556.927 38.6776C557.069 38.6491 557.178 38.6278 557.254 38.6136L557.73 40.8651C557.578 40.9124 557.365 40.9669 557.09 41.0284C556.816 41.0947 556.482 41.1349 556.089 41.1491C555.36 41.1776 554.721 41.0805 554.171 40.858C553.627 40.6354 553.203 40.2898 552.9 39.821C552.597 39.3523 552.448 38.7604 552.453 38.0455V27.4773ZM565.304 30.0909V32.3636H558.735V30.0909H565.304ZM560.226 27.4773H563.252V37.6477C563.252 37.9271 563.294 38.1449 563.38 38.3011C563.465 38.4527 563.583 38.5592 563.735 38.6207C563.891 38.6823 564.071 38.7131 564.274 38.7131C564.416 38.7131 564.558 38.7012 564.701 38.6776C564.843 38.6491 564.951 38.6278 565.027 38.6136L565.503 40.8651C565.352 40.9124 565.139 40.9669 564.864 41.0284C564.589 41.0947 564.255 41.1349 563.862 41.1491C563.133 41.1776 562.494 41.0805 561.945 40.858C561.4 40.6354 560.977 40.2898 560.674 39.821C560.371 39.3523 560.221 38.7604 560.226 38.0455V27.4773ZM567.275 41V30.0909H570.208V31.9943H570.322C570.521 31.3172 570.855 30.8059 571.323 30.4602C571.792 30.1098 572.332 29.9347 572.943 29.9347C573.094 29.9347 573.258 29.9441 573.433 29.9631C573.608 29.982 573.762 30.008 573.894 30.0412V32.7259C573.752 32.6832 573.556 32.6454 573.305 32.6122C573.054 32.5791 572.824 32.5625 572.616 32.5625C572.171 32.5625 571.773 32.6596 571.423 32.8537C571.077 33.0431 570.803 33.3082 570.599 33.6491C570.4 33.9901 570.301 34.383 570.301 34.8281V41H567.275ZM575.459 41V30.0909H578.484V41H575.459ZM576.986 28.6847C576.536 28.6847 576.15 28.5355 575.828 28.2372C575.506 27.9342 575.345 27.572 575.345 27.1506C575.345 26.7339 575.506 26.3764 575.828 26.0781C576.15 25.7751 576.534 25.6236 576.979 25.6236C577.433 25.6236 577.819 25.7751 578.136 26.0781C578.458 26.3764 578.619 26.7339 578.619 27.1506C578.619 27.572 578.458 27.9342 578.136 28.2372C577.819 28.5355 577.435 28.6847 576.986 28.6847ZM580.965 41V26.4545H583.99V31.9233H584.083C584.215 31.6297 584.407 31.3314 584.658 31.0284C584.914 30.7206 585.245 30.465 585.652 30.2614C586.064 30.053 586.576 29.9489 587.186 29.9489C587.982 29.9489 588.716 30.1572 589.388 30.5739C590.06 30.9858 590.598 31.6084 591 32.4418C591.403 33.2704 591.604 34.3097 591.604 35.5597C591.604 36.7765 591.407 37.804 591.014 38.642C590.626 39.4754 590.096 40.1075 589.424 40.5384C588.756 40.9645 588.008 41.1776 587.179 41.1776C586.592 41.1776 586.093 41.0805 585.681 40.8864C585.273 40.6922 584.94 40.4484 584.679 40.1548C584.419 39.8565 584.22 39.5559 584.083 39.2528H583.948V41H580.965ZM583.926 35.5455C583.926 36.1941 584.016 36.7599 584.196 37.2429C584.376 37.7259 584.637 38.1023 584.978 38.3722C585.318 38.6373 585.733 38.7699 586.22 38.7699C586.713 38.7699 587.13 38.6349 587.47 38.3651C587.811 38.0904 588.069 37.7116 588.245 37.2287C588.424 36.741 588.514 36.1799 588.514 35.5455C588.514 34.9157 588.427 34.3617 588.252 33.8835C588.076 33.4053 587.818 33.0312 587.478 32.7614C587.137 32.4915 586.718 32.3565 586.22 32.3565C585.728 32.3565 585.311 32.4867 584.97 32.7472C584.634 33.0076 584.376 33.3769 584.196 33.8551C584.016 34.3333 583.926 34.8968 583.926 35.5455ZM600.618 36.3551V30.0909H603.644V41H600.739V39.0185H600.626C600.379 39.6577 599.97 40.1714 599.397 40.5597C598.829 40.9479 598.135 41.142 597.316 41.142C596.587 41.142 595.945 40.9763 595.391 40.6449C594.837 40.3134 594.404 39.8423 594.092 39.2315C593.784 38.6207 593.627 37.8892 593.623 37.0369V30.0909H596.648V36.4972C596.653 37.1411 596.826 37.6501 597.167 38.0241C597.508 38.3982 597.965 38.5852 598.538 38.5852C598.902 38.5852 599.243 38.5024 599.56 38.3366C599.877 38.1662 600.133 37.9152 600.327 37.5838C600.526 37.2524 600.623 36.8428 600.618 36.3551ZM611.867 30.0909V32.3636H605.297V30.0909H611.867ZM606.789 27.4773H609.814V37.6477C609.814 37.9271 609.857 38.1449 609.942 38.3011C610.027 38.4527 610.146 38.5592 610.297 38.6207C610.453 38.6823 610.633 38.7131 610.837 38.7131C610.979 38.7131 611.121 38.7012 611.263 38.6776C611.405 38.6491 611.514 38.6278 611.59 38.6136L612.066 40.8651C611.914 40.9124 611.701 40.9669 611.426 41.0284C611.152 41.0947 610.818 41.1349 610.425 41.1491C609.696 41.1776 609.057 41.0805 608.507 40.858C607.963 40.6354 607.539 40.2898 607.236 39.821C606.933 39.3523 606.784 38.7604 606.789 38.0455V27.4773ZM618.692 41.2131C617.57 41.2131 616.604 40.9858 615.794 40.5312C614.989 40.072 614.369 39.4233 613.933 38.5852C613.498 37.7424 613.28 36.7457 613.28 35.5952C613.28 34.473 613.498 33.4882 613.933 32.6406C614.369 31.7931 614.982 31.1326 615.773 30.6591C616.568 30.1856 617.501 29.9489 618.571 29.9489C619.291 29.9489 619.961 30.0649 620.581 30.2969C621.206 30.5241 621.751 30.8674 622.215 31.3267C622.683 31.786 623.048 32.3636 623.308 33.0597C623.569 33.7509 623.699 34.5606 623.699 35.4886V36.3196H614.487V34.4446H620.851C620.851 34.009 620.756 33.6231 620.567 33.2869C620.378 32.9508 620.115 32.688 619.779 32.4986C619.447 32.3045 619.061 32.2074 618.621 32.2074C618.162 32.2074 617.755 32.3139 617.399 32.527C617.049 32.7353 616.774 33.017 616.576 33.3722C616.377 33.7225 616.275 34.1132 616.27 34.544V36.3267C616.27 36.8665 616.37 37.3329 616.568 37.7259C616.772 38.1188 617.058 38.4219 617.428 38.6349C617.797 38.848 618.235 38.9545 618.742 38.9545C619.078 38.9545 619.386 38.9072 619.665 38.8125C619.944 38.7178 620.183 38.5758 620.382 38.3864C620.581 38.197 620.733 37.965 620.837 37.6903L623.635 37.875C623.493 38.5473 623.202 39.1345 622.762 39.6364C622.326 40.1335 621.763 40.5218 621.071 40.8011C620.385 41.0758 619.592 41.2131 618.692 41.2131Z" fill="white" fill-opacity="0.95"/>
<mask id="path-7-inside-3_1622_6663" fill="white">
<path d="M866.667 0H1300V68H866.667V0Z"/>
</mask>
<path d="M866.667 0H1300V68H866.667V0Z" fill="#262626"/>
<path d="M1300 67H866.667V69H1300V67Z" fill="white" fill-opacity="0.3" mask="url(#path-7-inside-3_1622_6663)"/>
<path d="M897.377 28.9901V26.4545H909.323V28.9901H904.87V41H901.83V28.9901H897.377ZM914.58 41.2131C913.477 41.2131 912.523 40.9787 911.718 40.5099C910.918 40.0365 910.3 39.3783 909.864 38.5355C909.429 37.688 909.211 36.7055 909.211 35.5881C909.211 34.4612 909.429 33.4763 909.864 32.6335C910.3 31.786 910.918 31.1278 911.718 30.6591C912.523 30.1856 913.477 29.9489 914.58 29.9489C915.684 29.9489 916.635 30.1856 917.435 30.6591C918.24 31.1278 918.861 31.786 919.296 32.6335C919.732 33.4763 919.95 34.4612 919.95 35.5881C919.95 36.7055 919.732 37.688 919.296 38.5355C918.861 39.3783 918.24 40.0365 917.435 40.5099C916.635 40.9787 915.684 41.2131 914.58 41.2131ZM914.595 38.8693C915.096 38.8693 915.515 38.7273 915.852 38.4432C916.188 38.1544 916.441 37.7614 916.612 37.2642C916.787 36.767 916.874 36.2012 916.874 35.5668C916.874 34.9323 916.787 34.3665 916.612 33.8693C916.441 33.3722 916.188 32.9792 915.852 32.6903C915.515 32.4015 915.096 32.2571 914.595 32.2571C914.088 32.2571 913.662 32.4015 913.316 32.6903C912.975 32.9792 912.717 33.3722 912.542 33.8693C912.372 34.3665 912.286 34.9323 912.286 35.5668C912.286 36.2012 912.372 36.767 912.542 37.2642C912.717 37.7614 912.975 38.1544 913.316 38.4432C913.662 38.7273 914.088 38.8693 914.595 38.8693ZM924.658 37.8608L924.666 34.2315H925.106L928.6 30.0909H932.073L927.379 35.5739H926.661L924.658 37.8608ZM921.917 41V26.4545H924.943V41H921.917ZM928.735 41L925.525 36.2486L927.542 34.1108L932.279 41H928.735ZM938.08 41.2131C936.958 41.2131 935.992 40.9858 935.182 40.5312C934.377 40.072 933.757 39.4233 933.321 38.5852C932.886 37.7424 932.668 36.7457 932.668 35.5952C932.668 34.473 932.886 33.4882 933.321 32.6406C933.757 31.7931 934.37 31.1326 935.161 30.6591C935.956 30.1856 936.889 29.9489 937.959 29.9489C938.679 29.9489 939.349 30.0649 939.969 30.2969C940.594 30.5241 941.139 30.8674 941.603 31.3267C942.071 31.786 942.436 32.3636 942.696 33.0597C942.957 33.7509 943.087 34.5606 943.087 35.4886V36.3196H933.875V34.4446H940.239C940.239 34.009 940.144 33.6231 939.955 33.2869C939.766 32.9508 939.503 32.688 939.167 32.4986C938.835 32.3045 938.449 32.2074 938.009 32.2074C937.55 32.2074 937.142 32.3139 936.787 32.527C936.437 32.7353 936.162 33.017 935.964 33.3722C935.765 33.7225 935.663 34.1132 935.658 34.544V36.3267C935.658 36.8665 935.758 37.3329 935.956 37.7259C936.16 38.1188 936.446 38.4219 936.816 38.6349C937.185 38.848 937.623 38.9545 938.13 38.9545C938.466 38.9545 938.774 38.9072 939.053 38.8125C939.332 38.7178 939.571 38.5758 939.77 38.3864C939.969 38.197 940.121 37.965 940.225 37.6903L943.023 37.875C942.881 38.5473 942.59 39.1345 942.15 39.6364C941.714 40.1335 941.151 40.5218 940.459 40.8011C939.773 41.0758 938.98 41.2131 938.08 41.2131ZM948.087 34.6932V41H945.062V30.0909H947.945V32.0156H948.073C948.314 31.3812 948.719 30.8793 949.287 30.5099C949.856 30.1359 950.544 29.9489 951.354 29.9489C952.112 29.9489 952.772 30.1146 953.336 30.446C953.899 30.7775 954.337 31.2509 954.65 31.8665C954.962 32.4773 955.118 33.2064 955.118 34.054V41H952.093V34.5938C952.097 33.9261 951.927 33.4053 951.581 33.0312C951.236 32.6525 950.76 32.4631 950.154 32.4631C949.747 32.4631 949.387 32.5507 949.074 32.7259C948.767 32.901 948.525 33.1567 948.35 33.4929C948.179 33.8243 948.092 34.2244 948.087 34.6932Z" fill="white" fill-opacity="0.95"/>
</svg>
