<svg width="1300" height="80" viewBox="0 0 1300 80" fill="none" xmlns="http://www.w3.org/2000/svg">
<rect width="1300" height="68" transform="translate(0 6)" fill="#1A1A1A"/>
<mask id="path-1-inside-1_1637_12126" fill="white">
<path d="M0 6H433.333V74H0V6Z"/>
</mask>
<path d="M433.333 74V75H434.333V74H433.333ZM432.333 6V74H434.333V6H432.333ZM433.333 73H0V75H433.333V73Z" fill="#707070" mask="url(#path-1-inside-1_1637_12126)"/>
<path d="M31.2784 46V34.3636H33.0341V39.4205H38.8352V34.3636H40.5966V46H38.8352V40.9261H33.0341V46H31.2784ZM46.6932 46.1761C45.875 46.1761 45.161 45.9886 44.5511 45.6136C43.9413 45.2386 43.4678 44.714 43.1307 44.0398C42.7936 43.3655 42.625 42.5777 42.625 41.6761C42.625 40.7708 42.7936 39.9792 43.1307 39.3011C43.4678 38.6231 43.9413 38.0966 44.5511 37.7216C45.161 37.3466 45.875 37.1591 46.6932 37.1591C47.5114 37.1591 48.2254 37.3466 48.8352 37.7216C49.4451 38.0966 49.9186 38.6231 50.2557 39.3011C50.5928 39.9792 50.7614 40.7708 50.7614 41.6761C50.7614 42.5777 50.5928 43.3655 50.2557 44.0398C49.9186 44.714 49.4451 45.2386 48.8352 45.6136C48.2254 45.9886 47.5114 46.1761 46.6932 46.1761ZM46.6989 44.75C47.2292 44.75 47.6686 44.6098 48.017 44.3295C48.3655 44.0492 48.6231 43.6761 48.7898 43.2102C48.9602 42.7443 49.0455 42.2311 49.0455 41.6705C49.0455 41.1136 48.9602 40.6023 48.7898 40.1364C48.6231 39.6667 48.3655 39.2898 48.017 39.0057C47.6686 38.7216 47.2292 38.5795 46.6989 38.5795C46.1648 38.5795 45.7216 38.7216 45.3693 39.0057C45.0208 39.2898 44.7614 39.6667 44.5909 40.1364C44.4242 40.6023 44.3409 41.1136 44.3409 41.6705C44.3409 42.2311 44.4242 42.7443 44.5909 43.2102C44.7614 43.6761 45.0208 44.0492 45.3693 44.3295C45.7216 44.6098 46.1648 44.75 46.6989 44.75ZM52.6577 46V37.2727H54.2997V38.6591H54.3906C54.5497 38.1894 54.83 37.8201 55.2315 37.5511C55.6368 37.2784 56.0952 37.142 56.6065 37.142C56.7126 37.142 56.8376 37.1458 56.9815 37.1534C57.1293 37.161 57.2448 37.1705 57.3281 37.1818V38.8068C57.2599 38.7879 57.1387 38.767 56.9645 38.7443C56.7902 38.7178 56.616 38.7045 56.4418 38.7045C56.0402 38.7045 55.6823 38.7898 55.3679 38.9602C55.0573 39.1269 54.8111 39.3598 54.6293 39.6591C54.4474 39.9545 54.3565 40.2917 54.3565 40.6705V46H52.6577ZM58.7983 46V37.2727H60.4972V46H58.7983ZM59.6562 35.9261C59.3608 35.9261 59.107 35.8277 58.8949 35.6307C58.6866 35.4299 58.5824 35.1913 58.5824 34.9148C58.5824 34.6345 58.6866 34.3958 58.8949 34.1989C59.107 33.9981 59.3608 33.8977 59.6562 33.8977C59.9517 33.8977 60.2036 33.9981 60.4119 34.1989C60.6241 34.3958 60.7301 34.6345 60.7301 34.9148C60.7301 35.1913 60.6241 35.4299 60.4119 35.6307C60.2036 35.8277 59.9517 35.9261 59.6562 35.9261ZM62.6009 46V44.8352L67.3281 38.8295V38.75H62.7543V37.2727H69.4474V38.5114L64.902 44.4432V44.5227H69.6065V46H62.6009ZM75.0369 46.1761C74.2188 46.1761 73.5047 45.9886 72.8949 45.6136C72.285 45.2386 71.8116 44.714 71.4744 44.0398C71.1373 43.3655 70.9688 42.5777 70.9688 41.6761C70.9688 40.7708 71.1373 39.9792 71.4744 39.3011C71.8116 38.6231 72.285 38.0966 72.8949 37.7216C73.5047 37.3466 74.2188 37.1591 75.0369 37.1591C75.8551 37.1591 76.5691 37.3466 77.179 37.7216C77.7888 38.0966 78.2623 38.6231 78.5994 39.3011C78.9366 39.9792 79.1051 40.7708 79.1051 41.6761C79.1051 42.5777 78.9366 43.3655 78.5994 44.0398C78.2623 44.714 77.7888 45.2386 77.179 45.6136C76.5691 45.9886 75.8551 46.1761 75.0369 46.1761ZM75.0426 44.75C75.5729 44.75 76.0123 44.6098 76.3608 44.3295C76.7093 44.0492 76.9669 43.6761 77.1335 43.2102C77.304 42.7443 77.3892 42.2311 77.3892 41.6705C77.3892 41.1136 77.304 40.6023 77.1335 40.1364C76.9669 39.6667 76.7093 39.2898 76.3608 39.0057C76.0123 38.7216 75.5729 38.5795 75.0426 38.5795C74.5085 38.5795 74.0653 38.7216 73.7131 39.0057C73.3646 39.2898 73.1051 39.6667 72.9347 40.1364C72.768 40.6023 72.6847 41.1136 72.6847 41.6705C72.6847 42.2311 72.768 42.7443 72.9347 43.2102C73.1051 43.6761 73.3646 44.0492 73.7131 44.3295C74.0653 44.6098 74.5085 44.75 75.0426 44.75ZM82.7003 40.8182V46H81.0014V37.2727H82.6321V38.6932H82.7401C82.9408 38.2311 83.2552 37.8598 83.6832 37.5795C84.1151 37.2992 84.6586 37.1591 85.3139 37.1591C85.9086 37.1591 86.4295 37.2841 86.8764 37.5341C87.3234 37.7803 87.67 38.1477 87.9162 38.6364C88.1624 39.125 88.2855 39.7292 88.2855 40.4489V46H86.5866V40.6534C86.5866 40.0208 86.4219 39.5265 86.0923 39.1705C85.7628 38.8106 85.3101 38.6307 84.7344 38.6307C84.3404 38.6307 83.9901 38.7159 83.6832 38.8864C83.3802 39.0568 83.1397 39.3068 82.9616 39.6364C82.7874 39.9621 82.7003 40.3561 82.7003 40.8182ZM94.6378 37.2727V38.6364H89.8707V37.2727H94.6378ZM91.1491 35.1818H92.848V43.4375C92.848 43.767 92.8973 44.0152 92.9957 44.1818C93.0942 44.3447 93.2211 44.4564 93.3764 44.517C93.5355 44.5739 93.7079 44.6023 93.8935 44.6023C94.0298 44.6023 94.1491 44.5928 94.2514 44.5739C94.3537 44.5549 94.4332 44.5398 94.4901 44.5284L94.7969 45.9318C94.6984 45.9697 94.5582 46.0076 94.3764 46.0455C94.1946 46.0871 93.9673 46.1098 93.6946 46.1136C93.2476 46.1212 92.831 46.0417 92.4446 45.875C92.0582 45.7083 91.7457 45.4508 91.5071 45.1023C91.2685 44.7538 91.1491 44.3163 91.1491 43.7898V35.1818ZM99.0568 46.1932C98.5038 46.1932 98.0038 46.0909 97.5568 45.8864C97.1098 45.678 96.7557 45.3769 96.4943 44.983C96.2367 44.589 96.108 44.1061 96.108 43.5341C96.108 43.0417 96.2027 42.6364 96.392 42.3182C96.5814 42 96.8371 41.7481 97.1591 41.5625C97.4811 41.3769 97.8409 41.2367 98.2386 41.142C98.6364 41.0473 99.0417 40.9754 99.4545 40.9261C99.9773 40.8655 100.402 40.8163 100.727 40.7784C101.053 40.7367 101.29 40.6705 101.438 40.5795C101.585 40.4886 101.659 40.3409 101.659 40.1364V40.0966C101.659 39.6004 101.519 39.2159 101.239 38.9432C100.962 38.6705 100.549 38.5341 100 38.5341C99.428 38.5341 98.9773 38.661 98.6477 38.9148C98.322 39.1648 98.0966 39.4432 97.9716 39.75L96.375 39.3864C96.5644 38.8561 96.8409 38.428 97.2045 38.1023C97.572 37.7727 97.9943 37.5341 98.4716 37.3864C98.9489 37.2348 99.4508 37.1591 99.9773 37.1591C100.326 37.1591 100.695 37.2008 101.085 37.2841C101.479 37.3636 101.847 37.5114 102.188 37.7273C102.532 37.9432 102.814 38.2519 103.034 38.6534C103.254 39.0511 103.364 39.5682 103.364 40.2045V46H101.705V44.8068H101.636C101.527 45.0265 101.362 45.2424 101.142 45.4545C100.922 45.6667 100.64 45.8428 100.295 45.983C99.9508 46.1231 99.5379 46.1932 99.0568 46.1932ZM99.4261 44.8295C99.8958 44.8295 100.297 44.7367 100.631 44.5511C100.968 44.3655 101.223 44.1231 101.398 43.8239C101.576 43.5208 101.665 43.197 101.665 42.8523V41.7273C101.604 41.7879 101.487 41.8447 101.312 41.8977C101.142 41.947 100.947 41.9905 100.727 42.0284C100.508 42.0625 100.294 42.0947 100.085 42.125C99.8769 42.1515 99.7027 42.1742 99.5625 42.1932C99.233 42.2348 98.9318 42.3049 98.6591 42.4034C98.3902 42.5019 98.1742 42.6439 98.0114 42.8295C97.8523 43.0114 97.7727 43.2538 97.7727 43.5568C97.7727 43.9773 97.928 44.2955 98.2386 44.5114C98.5492 44.7235 98.9451 44.8295 99.4261 44.8295ZM107.325 34.3636V46H105.626V34.3636H107.325ZM117.112 46.1705C116.408 46.1705 115.779 45.9905 115.226 45.6307C114.677 45.267 114.245 44.75 113.93 44.0795C113.62 43.4053 113.464 42.5966 113.464 41.6534C113.464 40.7102 113.622 39.9034 113.936 39.233C114.254 38.5625 114.69 38.0492 115.243 37.6932C115.796 37.3371 116.423 37.1591 117.124 37.1591C117.665 37.1591 118.101 37.25 118.43 37.4318C118.764 37.6098 119.021 37.8182 119.203 38.0568C119.389 38.2955 119.533 38.5057 119.635 38.6875H119.737V34.3636H121.436V46H119.777V44.642H119.635C119.533 44.8277 119.385 45.0398 119.192 45.2784C119.002 45.517 118.741 45.7254 118.408 45.9034C118.074 46.0814 117.643 46.1705 117.112 46.1705ZM117.487 44.7216C117.976 44.7216 118.389 44.5928 118.726 44.3352C119.067 44.0739 119.324 43.7121 119.499 43.25C119.677 42.7879 119.766 42.25 119.766 41.6364C119.766 41.0303 119.679 40.5 119.504 40.0455C119.33 39.5909 119.074 39.2367 118.737 38.983C118.4 38.7292 117.983 38.6023 117.487 38.6023C116.976 38.6023 116.55 38.7348 116.209 39C115.868 39.2652 115.61 39.6269 115.436 40.0852C115.266 40.5436 115.18 41.0606 115.18 41.6364C115.18 42.2197 115.268 42.7443 115.442 43.2102C115.616 43.6761 115.874 44.0455 116.214 44.3182C116.559 44.5871 116.983 44.7216 117.487 44.7216ZM123.861 46V37.2727H125.56V46H123.861ZM124.719 35.9261C124.423 35.9261 124.17 35.8277 123.957 35.6307C123.749 35.4299 123.645 35.1913 123.645 34.9148C123.645 34.6345 123.749 34.3958 123.957 34.1989C124.17 33.9981 124.423 33.8977 124.719 33.8977C125.014 33.8977 125.266 33.9981 125.474 34.1989C125.687 34.3958 125.793 34.6345 125.793 34.9148C125.793 35.1913 125.687 35.4299 125.474 35.6307C125.266 35.8277 125.014 35.9261 124.719 35.9261ZM135.311 37.2727L132.146 46H130.328L127.158 37.2727H128.982L131.192 43.9886H131.283L133.487 37.2727H135.311ZM136.908 46V37.2727H138.607V46H136.908ZM137.766 35.9261C137.47 35.9261 137.216 35.8277 137.004 35.6307C136.796 35.4299 136.692 35.1913 136.692 34.9148C136.692 34.6345 136.796 34.3958 137.004 34.1989C137.216 33.9981 137.47 33.8977 137.766 33.8977C138.061 33.8977 138.313 33.9981 138.521 34.1989C138.733 34.3958 138.839 34.6345 138.839 34.9148C138.839 35.1913 138.733 35.4299 138.521 35.6307C138.313 35.8277 138.061 35.9261 137.766 35.9261ZM144.159 46.1705C143.455 46.1705 142.826 45.9905 142.273 45.6307C141.723 45.267 141.292 44.75 140.977 44.0795C140.667 43.4053 140.511 42.5966 140.511 41.6534C140.511 40.7102 140.669 39.9034 140.983 39.233C141.301 38.5625 141.737 38.0492 142.29 37.6932C142.843 37.3371 143.47 37.1591 144.17 37.1591C144.712 37.1591 145.148 37.25 145.477 37.4318C145.811 37.6098 146.068 37.8182 146.25 38.0568C146.436 38.2955 146.58 38.5057 146.682 38.6875H146.784V34.3636H148.483V46H146.824V44.642H146.682C146.58 44.8277 146.432 45.0398 146.239 45.2784C146.049 45.517 145.788 45.7254 145.455 45.9034C145.121 46.0814 144.689 46.1705 144.159 46.1705ZM144.534 44.7216C145.023 44.7216 145.436 44.5928 145.773 44.3352C146.114 44.0739 146.371 43.7121 146.545 43.25C146.723 42.7879 146.812 42.25 146.812 41.6364C146.812 41.0303 146.725 40.5 146.551 40.0455C146.377 39.5909 146.121 39.2367 145.784 38.983C145.447 38.7292 145.03 38.6023 144.534 38.6023C144.023 38.6023 143.597 38.7348 143.256 39C142.915 39.2652 142.657 39.6269 142.483 40.0852C142.313 40.5436 142.227 41.0606 142.227 41.6364C142.227 42.2197 142.314 42.7443 142.489 43.2102C142.663 43.6761 142.92 44.0455 143.261 44.3182C143.606 44.5871 144.03 44.7216 144.534 44.7216ZM154.669 46.1761C153.809 46.1761 153.069 45.9924 152.447 45.625C151.83 45.2538 151.353 44.733 151.016 44.0625C150.682 43.3883 150.516 42.5985 150.516 41.6932C150.516 40.7992 150.682 40.0114 151.016 39.3295C151.353 38.6477 151.822 38.1155 152.425 37.733C153.031 37.3504 153.739 37.1591 154.55 37.1591C155.042 37.1591 155.519 37.2405 155.982 37.4034C156.444 37.5663 156.858 37.822 157.226 38.1705C157.593 38.5189 157.883 38.9716 158.095 39.5284C158.307 40.0814 158.413 40.7538 158.413 41.5455V42.1477H151.476V40.875H156.749C156.749 40.428 156.658 40.0322 156.476 39.6875C156.294 39.339 156.038 39.0644 155.709 38.8636C155.383 38.6629 155 38.5625 154.561 38.5625C154.084 38.5625 153.667 38.6799 153.311 38.9148C152.959 39.1458 152.686 39.4489 152.493 39.8239C152.304 40.1951 152.209 40.5985 152.209 41.0341V42.0284C152.209 42.6117 152.311 43.108 152.516 43.517C152.724 43.9261 153.014 44.2386 153.385 44.4545C153.756 44.6667 154.19 44.7727 154.686 44.7727C155.008 44.7727 155.302 44.7273 155.567 44.6364C155.832 44.5417 156.061 44.4015 156.254 44.2159C156.447 44.0303 156.595 43.8011 156.697 43.5284L158.305 43.8182C158.177 44.2917 157.946 44.7064 157.612 45.0625C157.283 45.4148 156.868 45.6894 156.368 45.8864C155.872 46.0795 155.305 46.1761 154.669 46.1761ZM160.298 46V37.2727H161.94V38.6591H162.031C162.19 38.1894 162.471 37.8201 162.872 37.5511C163.277 37.2784 163.736 37.142 164.247 37.142C164.353 37.142 164.478 37.1458 164.622 37.1534C164.77 37.161 164.885 37.1705 164.969 37.1818V38.8068C164.901 38.7879 164.779 38.767 164.605 38.7443C164.431 38.7178 164.257 38.7045 164.082 38.7045C163.681 38.7045 163.323 38.7898 163.009 38.9602C162.698 39.1269 162.452 39.3598 162.27 39.6591C162.088 39.9545 161.997 40.2917 161.997 40.6705V46H160.298Z" fill="white" fill-opacity="0.95"/>
<mask id="path-4-inside-2_1637_12126" fill="white">
<path d="M433.333 6H866.667V74H433.333V6Z"/>
</mask>
<path d="M866.667 74V75H867.667V74H866.667ZM865.667 6V74H867.667V6H865.667ZM866.667 73H433.333V75H866.667V73Z" fill="#707070" mask="url(#path-4-inside-2_1637_12126)"/>
<path d="M474.106 26H472.697C472.614 25.5947 472.468 25.2386 472.259 24.9318C472.055 24.625 471.805 24.3674 471.509 24.1591C471.218 23.947 470.894 23.7879 470.538 23.6818C470.182 23.5758 469.811 23.5227 469.424 23.5227C468.72 23.5227 468.081 23.7008 467.509 24.0568C466.941 24.4129 466.489 24.9375 466.152 25.6307C465.818 26.3239 465.652 27.1742 465.652 28.1818C465.652 29.1894 465.818 30.0398 466.152 30.733C466.489 31.4261 466.941 31.9508 467.509 32.3068C468.081 32.6629 468.72 32.8409 469.424 32.8409C469.811 32.8409 470.182 32.7879 470.538 32.6818C470.894 32.5758 471.218 32.4186 471.509 32.2102C471.805 31.9981 472.055 31.7386 472.259 31.4318C472.468 31.1212 472.614 30.7652 472.697 30.3636H474.106C474 30.9583 473.807 31.4905 473.527 31.9602C473.246 32.4299 472.898 32.8295 472.481 33.1591C472.064 33.4848 471.597 33.733 471.078 33.9034C470.563 34.0739 470.011 34.1591 469.424 34.1591C468.432 34.1591 467.549 33.9167 466.777 33.4318C466.004 32.947 465.396 32.2576 464.953 31.3636C464.509 30.4697 464.288 29.4091 464.288 28.1818C464.288 26.9545 464.509 25.8939 464.953 25C465.396 24.1061 466.004 23.4167 466.777 22.9318C467.549 22.447 468.432 22.2045 469.424 22.2045C470.011 22.2045 470.563 22.2898 471.078 22.4602C471.597 22.6307 472.064 22.8807 472.481 23.2102C472.898 23.536 473.246 23.9337 473.527 24.4034C473.807 24.8693 474 25.4015 474.106 26ZM479.747 34.1818C478.959 34.1818 478.268 33.9943 477.673 33.6193C477.082 33.2443 476.62 32.7197 476.286 32.0455C475.957 31.3712 475.792 30.5833 475.792 29.6818C475.792 28.7727 475.957 27.9792 476.286 27.3011C476.62 26.6231 477.082 26.0966 477.673 25.7216C478.268 25.3466 478.959 25.1591 479.747 25.1591C480.535 25.1591 481.224 25.3466 481.815 25.7216C482.41 26.0966 482.872 26.6231 483.201 27.3011C483.535 27.9792 483.701 28.7727 483.701 29.6818C483.701 30.5833 483.535 31.3712 483.201 32.0455C482.872 32.7197 482.41 33.2443 481.815 33.6193C481.224 33.9943 480.535 34.1818 479.747 34.1818ZM479.747 32.9773C480.345 32.9773 480.838 32.8239 481.224 32.517C481.61 32.2102 481.896 31.8068 482.082 31.3068C482.268 30.8068 482.36 30.2652 482.36 29.6818C482.36 29.0985 482.268 28.5549 482.082 28.0511C481.896 27.5473 481.61 27.1402 481.224 26.8295C480.838 26.5189 480.345 26.3636 479.747 26.3636C479.148 26.3636 478.656 26.5189 478.269 26.8295C477.883 27.1402 477.597 27.5473 477.411 28.0511C477.226 28.5549 477.133 29.0985 477.133 29.6818C477.133 30.2652 477.226 30.8068 477.411 31.3068C477.597 31.8068 477.883 32.2102 478.269 32.517C478.656 32.8239 479.148 32.9773 479.747 32.9773ZM485.748 34V25.2727H487.044V26.5909H487.134C487.294 26.1591 487.581 25.8087 487.998 25.5398C488.415 25.2708 488.884 25.1364 489.407 25.1364C489.506 25.1364 489.629 25.1383 489.777 25.142C489.924 25.1458 490.036 25.1515 490.112 25.1591V26.5227C490.066 26.5114 489.962 26.4943 489.799 26.4716C489.64 26.4451 489.472 26.4318 489.294 26.4318C488.869 26.4318 488.491 26.5208 488.157 26.6989C487.828 26.8731 487.566 27.1155 487.373 27.4261C487.184 27.733 487.089 28.0833 487.089 28.4773V34H485.748ZM495.095 34.1818C494.254 34.1818 493.528 33.9962 492.919 33.625C492.313 33.25 491.845 32.7273 491.515 32.0568C491.189 31.3826 491.027 30.5985 491.027 29.7045C491.027 28.8106 491.189 28.0227 491.515 27.3409C491.845 26.6553 492.303 26.1212 492.89 25.7386C493.481 25.3523 494.17 25.1591 494.958 25.1591C495.413 25.1591 495.862 25.2348 496.305 25.3864C496.748 25.5379 497.152 25.7841 497.515 26.125C497.879 26.4621 498.169 26.9091 498.384 27.4659C498.6 28.0227 498.708 28.7083 498.708 29.5227V30.0909H491.981V28.9318H497.345C497.345 28.4394 497.246 28 497.049 27.6136C496.856 27.2273 496.58 26.9223 496.22 26.6989C495.864 26.4754 495.443 26.3636 494.958 26.3636C494.424 26.3636 493.962 26.4962 493.572 26.7614C493.186 27.0227 492.888 27.3636 492.68 27.7841C492.472 28.2045 492.367 28.6553 492.367 29.1364V29.9091C492.367 30.5682 492.481 31.1269 492.708 31.5852C492.939 32.0398 493.259 32.3864 493.669 32.625C494.078 32.8598 494.553 32.9773 495.095 32.9773C495.447 32.9773 495.765 32.928 496.049 32.8295C496.337 32.7273 496.585 32.5758 496.794 32.375C497.002 32.1705 497.163 31.9167 497.277 31.6136L498.572 31.9773C498.436 32.4167 498.206 32.803 497.884 33.1364C497.563 33.4659 497.165 33.7235 496.691 33.9091C496.218 34.0909 495.686 34.1818 495.095 34.1818ZM504.794 23.6136V22.3636H513.521V23.6136H509.862V34H508.453V23.6136H504.794ZM517.794 34.1818C517.006 34.1818 516.314 33.9943 515.72 33.6193C515.129 33.2443 514.667 32.7197 514.333 32.0455C514.004 31.3712 513.839 30.5833 513.839 29.6818C513.839 28.7727 514.004 27.9792 514.333 27.3011C514.667 26.6231 515.129 26.0966 515.72 25.7216C516.314 25.3466 517.006 25.1591 517.794 25.1591C518.581 25.1591 519.271 25.3466 519.862 25.7216C520.456 26.0966 520.919 26.6231 521.248 27.3011C521.581 27.9792 521.748 28.7727 521.748 29.6818C521.748 30.5833 521.581 31.3712 521.248 32.0455C520.919 32.7197 520.456 33.2443 519.862 33.6193C519.271 33.9943 518.581 34.1818 517.794 34.1818ZM517.794 32.9773C518.392 32.9773 518.884 32.8239 519.271 32.517C519.657 32.2102 519.943 31.8068 520.129 31.3068C520.314 30.8068 520.407 30.2652 520.407 29.6818C520.407 29.0985 520.314 28.5549 520.129 28.0511C519.943 27.5473 519.657 27.1402 519.271 26.8295C518.884 26.5189 518.392 26.3636 517.794 26.3636C517.195 26.3636 516.703 26.5189 516.316 26.8295C515.93 27.1402 515.644 27.5473 515.458 28.0511C515.273 28.5549 515.18 29.0985 515.18 29.6818C515.18 30.2652 515.273 30.8068 515.458 31.3068C515.644 31.8068 515.93 32.2102 516.316 32.517C516.703 32.8239 517.195 32.9773 517.794 32.9773ZM525.045 30.8182L525.022 29.1591H525.295L529.113 25.2727H530.772L526.704 29.3864H526.59L525.045 30.8182ZM523.795 34V22.3636H525.136V34H523.795ZM529.34 34L525.931 29.6818L526.886 28.75L531.045 34H529.34ZM535.798 34.1818C534.957 34.1818 534.232 33.9962 533.622 33.625C533.016 33.25 532.548 32.7273 532.218 32.0568C531.893 31.3826 531.73 30.5985 531.73 29.7045C531.73 28.8106 531.893 28.0227 532.218 27.3409C532.548 26.6553 533.006 26.1212 533.593 25.7386C534.184 25.3523 534.874 25.1591 535.661 25.1591C536.116 25.1591 536.565 25.2348 537.008 25.3864C537.451 25.5379 537.855 25.7841 538.218 26.125C538.582 26.4621 538.872 26.9091 539.088 27.4659C539.304 28.0227 539.411 28.7083 539.411 29.5227V30.0909H532.684V28.9318H538.048C538.048 28.4394 537.949 28 537.752 27.6136C537.559 27.2273 537.283 26.9223 536.923 26.6989C536.567 26.4754 536.146 26.3636 535.661 26.3636C535.127 26.3636 534.665 26.4962 534.275 26.7614C533.889 27.0227 533.591 27.3636 533.383 27.7841C533.175 28.2045 533.071 28.6553 533.071 29.1364V29.9091C533.071 30.5682 533.184 31.1269 533.411 31.5852C533.643 32.0398 533.963 32.3864 534.372 32.625C534.781 32.8598 535.256 32.9773 535.798 32.9773C536.15 32.9773 536.468 32.928 536.752 32.8295C537.04 32.7273 537.288 32.5758 537.497 32.375C537.705 32.1705 537.866 31.9167 537.98 31.6136L539.275 31.9773C539.139 32.4167 538.91 32.803 538.588 33.1364C538.266 33.4659 537.868 33.7235 537.394 33.9091C536.921 34.0909 536.389 34.1818 535.798 34.1818ZM542.792 28.75V34H541.451V25.2727H542.747V26.6364H542.86C543.065 26.1932 543.375 25.8371 543.792 25.5682C544.209 25.2955 544.747 25.1591 545.406 25.1591C545.997 25.1591 546.514 25.2803 546.957 25.5227C547.4 25.7614 547.745 26.125 547.991 26.6136C548.237 27.0985 548.36 27.7121 548.36 28.4545V34H547.019V28.5455C547.019 27.8598 546.841 27.3258 546.485 26.9432C546.129 26.5568 545.641 26.3636 545.019 26.3636C544.591 26.3636 544.209 26.4564 543.872 26.642C543.538 26.8277 543.275 27.0985 543.082 27.4545C542.889 27.8106 542.792 28.2424 542.792 28.75ZM551.788 34.0909C551.508 34.0909 551.267 33.9905 551.066 33.7898C550.866 33.589 550.765 33.3485 550.765 33.0682C550.765 32.7879 550.866 32.5473 551.066 32.3466C551.267 32.1458 551.508 32.0455 551.788 32.0455C552.068 32.0455 552.309 32.1458 552.509 32.3466C552.71 32.5473 552.811 32.7879 552.811 33.0682C552.811 33.2538 552.763 33.4242 552.669 33.5795C552.578 33.7348 552.455 33.8598 552.299 33.9545C552.148 34.0455 551.977 34.0909 551.788 34.0909ZM551.788 27.6136C551.508 27.6136 551.267 27.5133 551.066 27.3125C550.866 27.1117 550.765 26.8712 550.765 26.5909C550.765 26.3106 550.866 26.0701 551.066 25.8693C551.267 25.6686 551.508 25.5682 551.788 25.5682C552.068 25.5682 552.309 25.6686 552.509 25.8693C552.71 26.0701 552.811 26.3106 552.811 26.5909C552.811 26.7765 552.763 26.947 552.669 27.1023C552.578 27.2576 552.455 27.3826 552.299 27.4773C552.148 27.5682 551.977 27.6136 551.788 27.6136ZM563.262 34.1818C562.444 34.1818 561.74 33.9886 561.149 33.6023C560.558 33.2159 560.103 32.6837 559.785 32.0057C559.467 31.3277 559.308 30.553 559.308 29.6818C559.308 28.7955 559.471 28.0133 559.796 27.3352C560.126 26.6534 560.584 26.1212 561.171 25.7386C561.762 25.3523 562.452 25.1591 563.24 25.1591C563.853 25.1591 564.406 25.2727 564.899 25.5C565.391 25.7273 565.795 26.0455 566.109 26.4545C566.423 26.8636 566.618 27.3409 566.694 27.8864H565.353C565.251 27.4886 565.024 27.1364 564.671 26.8295C564.323 26.5189 563.853 26.3636 563.262 26.3636C562.74 26.3636 562.281 26.5 561.887 26.7727C561.497 27.0417 561.192 27.4223 560.973 27.9148C560.757 28.4034 560.649 28.9773 560.649 29.6364C560.649 30.3106 560.755 30.8977 560.967 31.3977C561.183 31.8977 561.486 32.286 561.876 32.5625C562.27 32.839 562.732 32.9773 563.262 32.9773C563.611 32.9773 563.927 32.9167 564.211 32.7955C564.495 32.6742 564.736 32.5 564.933 32.2727C565.13 32.0455 565.27 31.7727 565.353 31.4545H566.694C566.618 31.9697 566.431 32.4337 566.132 32.8466C565.836 33.2557 565.444 33.5814 564.956 33.8239C564.471 34.0625 563.906 34.1818 563.262 34.1818ZM572.2 34.1818C571.412 34.1818 570.721 33.9943 570.126 33.6193C569.535 33.2443 569.073 32.7197 568.74 32.0455C568.41 31.3712 568.245 30.5833 568.245 29.6818C568.245 28.7727 568.41 27.9792 568.74 27.3011C569.073 26.6231 569.535 26.0966 570.126 25.7216C570.721 25.3466 571.412 25.1591 572.2 25.1591C572.988 25.1591 573.677 25.3466 574.268 25.7216C574.863 26.0966 575.325 26.6231 575.654 27.3011C575.988 27.9792 576.154 28.7727 576.154 29.6818C576.154 30.5833 575.988 31.3712 575.654 32.0455C575.325 32.7197 574.863 33.2443 574.268 33.6193C573.677 33.9943 572.988 34.1818 572.2 34.1818ZM572.2 32.9773C572.798 32.9773 573.291 32.8239 573.677 32.517C574.063 32.2102 574.349 31.8068 574.535 31.3068C574.721 30.8068 574.813 30.2652 574.813 29.6818C574.813 29.0985 574.721 28.5549 574.535 28.0511C574.349 27.5473 574.063 27.1402 573.677 26.8295C573.291 26.5189 572.798 26.3636 572.2 26.3636C571.601 26.3636 571.109 26.5189 570.723 26.8295C570.336 27.1402 570.05 27.5473 569.865 28.0511C569.679 28.5549 569.586 29.0985 569.586 29.6818C569.586 30.2652 569.679 30.8068 569.865 31.3068C570.05 31.8068 570.336 32.2102 570.723 32.517C571.109 32.8239 571.601 32.9773 572.2 32.9773ZM578.201 34V25.2727H579.497V26.5909H579.588C579.747 26.1591 580.035 25.8087 580.451 25.5398C580.868 25.2708 581.338 25.1364 581.86 25.1364C581.959 25.1364 582.082 25.1383 582.23 25.142C582.377 25.1458 582.489 25.1515 582.565 25.1591V26.5227C582.519 26.5114 582.415 26.4943 582.252 26.4716C582.093 26.4451 581.925 26.4318 581.747 26.4318C581.322 26.4318 580.944 26.5208 580.61 26.6989C580.281 26.8731 580.019 27.1155 579.826 27.4261C579.637 27.733 579.542 28.0833 579.542 28.4773V34H578.201ZM587.548 34.1818C586.707 34.1818 585.982 33.9962 585.372 33.625C584.766 33.25 584.298 32.7273 583.968 32.0568C583.643 31.3826 583.48 30.5985 583.48 29.7045C583.48 28.8106 583.643 28.0227 583.968 27.3409C584.298 26.6553 584.756 26.1212 585.343 25.7386C585.934 25.3523 586.624 25.1591 587.411 25.1591C587.866 25.1591 588.315 25.2348 588.758 25.3864C589.201 25.5379 589.605 25.7841 589.968 26.125C590.332 26.4621 590.622 26.9091 590.838 27.4659C591.054 28.0227 591.161 28.7083 591.161 29.5227V30.0909H584.434V28.9318H589.798C589.798 28.4394 589.699 28 589.502 27.6136C589.309 27.2273 589.033 26.9223 588.673 26.6989C588.317 26.4754 587.896 26.3636 587.411 26.3636C586.877 26.3636 586.415 26.4962 586.025 26.7614C585.639 27.0227 585.341 27.3636 585.133 27.7841C584.925 28.2045 584.821 28.6553 584.821 29.1364V29.9091C584.821 30.5682 584.934 31.1269 585.161 31.5852C585.393 32.0398 585.713 32.3864 586.122 32.625C586.531 32.8598 587.006 32.9773 587.548 32.9773C587.9 32.9773 588.218 32.928 588.502 32.8295C588.79 32.7273 589.038 32.5758 589.247 32.375C589.455 32.1705 589.616 31.9167 589.73 31.6136L591.025 31.9773C590.889 32.4167 590.66 32.803 590.338 33.1364C590.016 33.4659 589.618 33.7235 589.144 33.9091C588.671 34.0909 588.139 34.1818 587.548 34.1818ZM594.179 34.0909C593.898 34.0909 593.658 33.9905 593.457 33.7898C593.256 33.589 593.156 33.3485 593.156 33.0682C593.156 32.7879 593.256 32.5473 593.457 32.3466C593.658 32.1458 593.898 32.0455 594.179 32.0455C594.459 32.0455 594.699 32.1458 594.9 32.3466C595.101 32.5473 595.201 32.7879 595.201 33.0682C595.201 33.2538 595.154 33.4242 595.059 33.5795C594.968 33.7348 594.845 33.8598 594.69 33.9545C594.538 34.0455 594.368 34.0909 594.179 34.0909ZM599.585 34L596.926 25.2727H598.335L600.221 31.9545H600.312L602.176 25.2727H603.607L605.448 31.9318H605.539L607.426 25.2727H608.835L606.176 34H604.857L602.948 27.2955H602.812L600.903 34H599.585ZM611.948 28.75V34H610.607V22.3636H611.948V26.6364H612.062C612.267 26.1856 612.573 25.8277 612.982 25.5625C613.395 25.2936 613.945 25.1591 614.63 25.1591C615.225 25.1591 615.746 25.2784 616.193 25.517C616.64 25.7519 616.986 26.1136 617.232 26.6023C617.482 27.0871 617.607 27.7045 617.607 28.4545V34H616.267V28.5455C616.267 27.8523 616.087 27.3163 615.727 26.9375C615.371 26.5549 614.876 26.3636 614.244 26.3636C613.804 26.3636 613.411 26.4564 613.062 26.642C612.717 26.8277 612.445 27.0985 612.244 27.4545C612.047 27.8106 611.948 28.2424 611.948 28.75ZM620.061 34V25.2727H621.402V34H620.061ZM620.742 23.8182C620.481 23.8182 620.256 23.7292 620.066 23.5511C619.881 23.3731 619.788 23.1591 619.788 22.9091C619.788 22.6591 619.881 22.4451 620.066 22.267C620.256 22.089 620.481 22 620.742 22C621.004 22 621.227 22.089 621.413 22.267C621.602 22.4451 621.697 22.6591 621.697 22.9091C621.697 23.1591 621.602 23.3731 621.413 23.5511C621.227 23.7292 621.004 23.8182 620.742 23.8182ZM627.653 25.2727V26.4091H623.13V25.2727H627.653ZM624.448 23.1818H625.789V31.5C625.789 31.8788 625.844 32.1629 625.954 32.3523C626.068 32.5379 626.212 32.6629 626.386 32.7273C626.564 32.7879 626.751 32.8182 626.948 32.8182C627.096 32.8182 627.217 32.8106 627.312 32.7955C627.407 32.7765 627.482 32.7614 627.539 32.75L627.812 33.9545C627.721 33.9886 627.594 34.0227 627.431 34.0568C627.268 34.0947 627.062 34.1136 626.812 34.1136C626.433 34.1136 626.062 34.0322 625.698 33.8693C625.339 33.7064 625.039 33.4583 624.801 33.125C624.566 32.7917 624.448 32.3712 624.448 31.8636V23.1818ZM633.235 34.1818C632.394 34.1818 631.669 33.9962 631.059 33.625C630.453 33.25 629.985 32.7273 629.656 32.0568C629.33 31.3826 629.167 30.5985 629.167 29.7045C629.167 28.8106 629.33 28.0227 629.656 27.3409C629.985 26.6553 630.444 26.1212 631.031 25.7386C631.622 25.3523 632.311 25.1591 633.099 25.1591C633.554 25.1591 634.002 25.2348 634.446 25.3864C634.889 25.5379 635.292 25.7841 635.656 26.125C636.019 26.4621 636.309 26.9091 636.525 27.4659C636.741 28.0227 636.849 28.7083 636.849 29.5227V30.0909H630.122V28.9318H635.485C635.485 28.4394 635.387 28 635.19 27.6136C634.997 27.2273 634.72 26.9223 634.36 26.6989C634.004 26.4754 633.584 26.3636 633.099 26.3636C632.565 26.3636 632.103 26.4962 631.713 26.7614C631.326 27.0227 631.029 27.3636 630.821 27.7841C630.612 28.2045 630.508 28.6553 630.508 29.1364V29.9091C630.508 30.5682 630.622 31.1269 630.849 31.5852C631.08 32.0398 631.4 32.3864 631.809 32.625C632.218 32.8598 632.694 32.9773 633.235 32.9773C633.588 32.9773 633.906 32.928 634.19 32.8295C634.478 32.7273 634.726 32.5758 634.934 32.375C635.143 32.1705 635.304 31.9167 635.417 31.6136L636.713 31.9773C636.576 32.4167 636.347 32.803 636.025 33.1364C635.703 33.4659 635.305 33.7235 634.832 33.9091C634.358 34.0909 633.826 34.1818 633.235 34.1818ZM643.889 28.3864V29.6364H638.798V28.3864H643.889ZM648.816 34.2045C648.263 34.2045 647.761 34.1004 647.311 33.892C646.86 33.6799 646.502 33.375 646.237 32.9773C645.972 32.5758 645.839 32.0909 645.839 31.5227C645.839 31.0227 645.938 30.6174 646.134 30.3068C646.331 29.9924 646.595 29.7462 646.924 29.5682C647.254 29.3902 647.617 29.2576 648.015 29.1705C648.417 29.0795 648.82 29.0076 649.225 28.9545C649.756 28.8864 650.186 28.8352 650.515 28.8011C650.848 28.7633 651.091 28.7008 651.242 28.6136C651.398 28.5265 651.475 28.375 651.475 28.1591V28.1136C651.475 27.553 651.322 27.1174 651.015 26.8068C650.712 26.4962 650.252 26.3409 649.634 26.3409C648.994 26.3409 648.492 26.4811 648.129 26.7614C647.765 27.0417 647.509 27.3409 647.362 27.6591L646.089 27.2045C646.316 26.6742 646.619 26.2614 646.998 25.9659C647.381 25.6667 647.797 25.4583 648.248 25.3409C648.703 25.2197 649.15 25.1591 649.589 25.1591C649.869 25.1591 650.191 25.1932 650.555 25.2614C650.922 25.3258 651.277 25.4602 651.617 25.6648C651.962 25.8693 652.248 26.178 652.475 26.5909C652.703 27.0038 652.816 27.5568 652.816 28.25V34H651.475V32.8182H651.407C651.316 33.0076 651.165 33.2102 650.953 33.4261C650.741 33.642 650.458 33.8258 650.106 33.9773C649.754 34.1288 649.324 34.2045 648.816 34.2045ZM649.021 33C649.551 33 649.998 32.8958 650.362 32.6875C650.729 32.4792 651.006 32.2102 651.191 31.8807C651.381 31.5511 651.475 31.2045 651.475 30.8409V29.6136C651.419 29.6818 651.294 29.7443 651.1 29.8011C650.911 29.8542 650.691 29.9015 650.441 29.9432C650.195 29.9811 649.955 30.0152 649.72 30.0455C649.489 30.072 649.301 30.0947 649.157 30.1136C648.809 30.1591 648.483 30.233 648.18 30.3352C647.881 30.4337 647.638 30.5833 647.453 30.7841C647.271 30.9811 647.18 31.25 647.18 31.5909C647.18 32.0568 647.352 32.4091 647.697 32.6477C648.045 32.8826 648.487 33 649.021 33ZM656.605 22.3636V34H655.264V22.3636H656.605ZM659.061 37.2727V25.2727H660.356V26.6591H660.515C660.614 26.5076 660.75 26.3144 660.924 26.0795C661.102 25.8409 661.356 25.6288 661.686 25.4432C662.019 25.2538 662.47 25.1591 663.038 25.1591C663.773 25.1591 664.42 25.3428 664.981 25.7102C665.542 26.0777 665.979 26.5985 666.294 27.2727C666.608 27.947 666.765 28.7424 666.765 29.6591C666.765 30.5833 666.608 31.3845 666.294 32.0625C665.979 32.7367 665.544 33.2595 664.987 33.6307C664.43 33.9981 663.788 34.1818 663.061 34.1818C662.5 34.1818 662.051 34.089 661.714 33.9034C661.377 33.714 661.117 33.5 660.936 33.2614C660.754 33.0189 660.614 32.8182 660.515 32.6591H660.402V37.2727H659.061ZM660.379 29.6364C660.379 30.2955 660.475 30.8769 660.669 31.3807C660.862 31.8807 661.144 32.2727 661.515 32.5568C661.886 32.8371 662.341 32.9773 662.879 32.9773C663.439 32.9773 663.907 32.8295 664.282 32.5341C664.661 32.2348 664.945 31.8333 665.134 31.3295C665.328 30.822 665.424 30.2576 665.424 29.6364C665.424 29.0227 665.33 28.4697 665.14 27.9773C664.955 27.4811 664.672 27.089 664.294 26.8011C663.919 26.5095 663.447 26.3636 662.879 26.3636C662.333 26.3636 661.875 26.5019 661.504 26.7784C661.133 27.0511 660.852 27.4337 660.663 27.9261C660.473 28.4148 660.379 28.9848 660.379 29.6364ZM670.152 28.75V34H668.811V22.3636H670.152V26.6364H670.265C670.47 26.1856 670.777 25.8277 671.186 25.5625C671.598 25.2936 672.148 25.1591 672.833 25.1591C673.428 25.1591 673.949 25.2784 674.396 25.517C674.843 25.7519 675.189 26.1136 675.436 26.6023C675.686 27.0871 675.811 27.7045 675.811 28.4545V34H674.47V28.5455C674.47 27.8523 674.29 27.3163 673.93 26.9375C673.574 26.5549 673.08 26.3636 672.447 26.3636C672.008 26.3636 671.614 26.4564 671.265 26.642C670.92 26.8277 670.648 27.0985 670.447 27.4545C670.25 27.8106 670.152 28.2424 670.152 28.75ZM680.832 34.2045C680.279 34.2045 679.777 34.1004 679.326 33.892C678.875 33.6799 678.518 33.375 678.252 32.9773C677.987 32.5758 677.855 32.0909 677.855 31.5227C677.855 31.0227 677.953 30.6174 678.15 30.3068C678.347 29.9924 678.61 29.7462 678.94 29.5682C679.269 29.3902 679.633 29.2576 680.031 29.1705C680.432 29.0795 680.836 29.0076 681.241 28.9545C681.771 28.8864 682.201 28.8352 682.531 28.8011C682.864 28.7633 683.107 28.7008 683.258 28.6136C683.413 28.5265 683.491 28.375 683.491 28.1591V28.1136C683.491 27.553 683.338 27.1174 683.031 26.8068C682.728 26.4962 682.268 26.3409 681.65 26.3409C681.01 26.3409 680.508 26.4811 680.144 26.7614C679.781 27.0417 679.525 27.3409 679.377 27.6591L678.105 27.2045C678.332 26.6742 678.635 26.2614 679.014 25.9659C679.396 25.6667 679.813 25.4583 680.264 25.3409C680.718 25.2197 681.165 25.1591 681.605 25.1591C681.885 25.1591 682.207 25.1932 682.571 25.2614C682.938 25.3258 683.292 25.4602 683.633 25.6648C683.978 25.8693 684.264 26.178 684.491 26.5909C684.718 27.0038 684.832 27.5568 684.832 28.25V34H683.491V32.8182H683.423C683.332 33.0076 683.18 33.2102 682.968 33.4261C682.756 33.642 682.474 33.8258 682.122 33.9773C681.769 34.1288 681.339 34.2045 680.832 34.2045ZM681.036 33C681.567 33 682.014 32.8958 682.377 32.6875C682.745 32.4792 683.021 32.2102 683.207 31.8807C683.396 31.5511 683.491 31.2045 683.491 30.8409V29.6136C683.434 29.6818 683.309 29.7443 683.116 29.8011C682.927 29.8542 682.707 29.9015 682.457 29.9432C682.211 29.9811 681.97 30.0152 681.735 30.0455C681.504 30.072 681.317 30.0947 681.173 30.1136C680.824 30.1591 680.499 30.233 680.196 30.3352C679.896 30.4337 679.654 30.5833 679.468 30.7841C679.286 30.9811 679.196 31.25 679.196 31.5909C679.196 32.0568 679.368 32.4091 679.713 32.6477C680.061 32.8826 680.502 33 681.036 33ZM692.279 28.3864V29.6364H687.188V28.3864H692.279ZM694.069 34V32.9773L697.91 28.7727C698.361 28.2803 698.732 27.8523 699.024 27.4886C699.315 27.1212 699.531 26.7765 699.671 26.4545C699.815 26.1288 699.887 25.7879 699.887 25.4318C699.887 25.0227 699.789 24.6686 699.592 24.3693C699.399 24.0701 699.134 23.839 698.796 23.6761C698.459 23.5133 698.081 23.4318 697.66 23.4318C697.213 23.4318 696.823 23.5246 696.49 23.7102C696.16 23.892 695.904 24.1477 695.723 24.4773C695.545 24.8068 695.456 25.1932 695.456 25.6364H694.115C694.115 24.9545 694.272 24.3561 694.586 23.8409C694.901 23.3258 695.329 22.9242 695.87 22.6364C696.416 22.3485 697.027 22.2045 697.706 22.2045C698.387 22.2045 698.991 22.3485 699.518 22.6364C700.045 22.9242 700.457 23.3125 700.757 23.8011C701.056 24.2898 701.206 24.8333 701.206 25.4318C701.206 25.8598 701.128 26.2784 700.973 26.6875C700.821 27.0928 700.556 27.5455 700.177 28.0455C699.802 28.5417 699.281 29.1477 698.615 29.8636L696.001 32.6591V32.75H701.41V34H694.069ZM707.552 34.1591C706.696 34.1591 705.967 33.9261 705.365 33.4602C704.762 32.9905 704.302 32.3106 703.984 31.4205C703.666 30.5265 703.507 29.447 703.507 28.1818C703.507 26.9242 703.666 25.8504 703.984 24.9602C704.306 24.0663 704.768 23.3845 705.37 22.9148C705.976 22.4413 706.704 22.2045 707.552 22.2045C708.401 22.2045 709.126 22.4413 709.728 22.9148C710.334 23.3845 710.796 24.0663 711.115 24.9602C711.437 25.8504 711.598 26.9242 711.598 28.1818C711.598 29.447 711.438 30.5265 711.12 31.4205C710.802 32.3106 710.342 32.9905 709.74 33.4602C709.137 33.9261 708.408 34.1591 707.552 34.1591ZM707.552 32.9091C708.401 32.9091 709.06 32.5 709.529 31.6818C709.999 30.8636 710.234 29.697 710.234 28.1818C710.234 27.1742 710.126 26.3163 709.91 25.608C709.698 24.8996 709.391 24.3598 708.99 23.9886C708.592 23.6174 708.113 23.4318 707.552 23.4318C706.711 23.4318 706.054 23.8466 705.581 24.6761C705.107 25.5019 704.87 26.6705 704.87 28.1818C704.87 29.1894 704.976 30.0455 705.188 30.75C705.401 31.4545 705.706 31.9905 706.103 32.358C706.505 32.7254 706.988 32.9091 707.552 32.9091ZM464.742 58V46.3636H466.152V51.5455H472.356V46.3636H473.765V58H472.356V52.7955H466.152V58H464.742ZM476.586 58V46.3636H483.609V47.6136H477.995V51.5455H483.245V52.7955H477.995V56.75H483.7V58H476.586ZM486.831 46.3636L489.831 51.2045H489.921L492.921 46.3636H494.581L490.921 52.1818L494.581 58H492.921L489.921 53.25H489.831L486.831 58H485.171L488.921 52.1818L485.171 46.3636H486.831ZM497.21 56.5114C496.929 56.5114 496.689 56.411 496.488 56.2102C496.287 56.0095 496.187 55.7689 496.187 55.4886C496.187 55.2083 496.287 54.9678 496.488 54.767C496.689 54.5663 496.929 54.4659 497.21 54.4659C497.49 54.4659 497.731 54.5663 497.931 54.767C498.132 54.9678 498.232 55.2083 498.232 55.4886C498.232 55.6742 498.185 55.8447 498.09 56C498 56.1553 497.876 56.2803 497.721 56.375C497.57 56.4659 497.399 56.5114 497.21 56.5114ZM497.21 50.625C496.929 50.625 496.689 50.5246 496.488 50.3239C496.287 50.1231 496.187 49.8826 496.187 49.6023C496.187 49.322 496.287 49.0814 496.488 48.8807C496.689 48.6799 496.929 48.5795 497.21 48.5795C497.49 48.5795 497.731 48.6799 497.931 48.8807C498.132 49.0814 498.232 49.322 498.232 49.6023C498.232 49.7879 498.185 49.9583 498.09 50.1136C498 50.2689 497.876 50.3939 497.721 50.4886C497.57 50.5795 497.399 50.625 497.21 50.625ZM508.911 58.1591C508.055 58.1591 507.326 57.9261 506.724 57.4602C506.122 56.9905 505.661 56.3106 505.343 55.4205C505.025 54.5265 504.866 53.447 504.866 52.1818C504.866 50.9242 505.025 49.8504 505.343 48.9602C505.665 48.0663 506.127 47.3845 506.73 46.9148C507.336 46.4413 508.063 46.2045 508.911 46.2045C509.76 46.2045 510.485 46.4413 511.088 46.9148C511.694 47.3845 512.156 48.0663 512.474 48.9602C512.796 49.8504 512.957 50.9242 512.957 52.1818C512.957 53.447 512.798 54.5265 512.48 55.4205C512.161 56.3106 511.701 56.9905 511.099 57.4602C510.497 57.9261 509.768 58.1591 508.911 58.1591ZM508.911 56.9091C509.76 56.9091 510.419 56.5 510.889 55.6818C511.358 54.8636 511.593 53.697 511.593 52.1818C511.593 51.1742 511.485 50.3163 511.269 49.608C511.057 48.8996 510.75 48.3598 510.349 47.9886C509.951 47.6174 509.472 47.4318 508.911 47.4318C508.071 47.4318 507.413 47.8466 506.94 48.6761C506.466 49.5019 506.23 50.6705 506.23 52.1818C506.23 53.1894 506.336 54.0455 506.548 54.75C506.76 55.4545 507.065 55.9905 507.463 56.358C507.864 56.7254 508.347 56.9091 508.911 56.9091ZM518.911 58.1591C518.055 58.1591 517.326 57.9261 516.724 57.4602C516.122 56.9905 515.661 56.3106 515.343 55.4205C515.025 54.5265 514.866 53.447 514.866 52.1818C514.866 50.9242 515.025 49.8504 515.343 48.9602C515.665 48.0663 516.127 47.3845 516.73 46.9148C517.336 46.4413 518.063 46.2045 518.911 46.2045C519.76 46.2045 520.485 46.4413 521.088 46.9148C521.694 47.3845 522.156 48.0663 522.474 48.9602C522.796 49.8504 522.957 50.9242 522.957 52.1818C522.957 53.447 522.798 54.5265 522.48 55.4205C522.161 56.3106 521.701 56.9905 521.099 57.4602C520.497 57.9261 519.768 58.1591 518.911 58.1591ZM518.911 56.9091C519.76 56.9091 520.419 56.5 520.889 55.6818C521.358 54.8636 521.593 53.697 521.593 52.1818C521.593 51.1742 521.485 50.3163 521.269 49.608C521.057 48.8996 520.75 48.3598 520.349 47.9886C519.951 47.6174 519.472 47.4318 518.911 47.4318C518.071 47.4318 517.413 47.8466 516.94 48.6761C516.466 49.5019 516.23 50.6705 516.23 52.1818C516.23 53.1894 516.336 54.0455 516.548 54.75C516.76 55.4545 517.065 55.9905 517.463 56.358C517.864 56.7254 518.347 56.9091 518.911 56.9091ZM528.911 58.1591C528.055 58.1591 527.326 57.9261 526.724 57.4602C526.122 56.9905 525.661 56.3106 525.343 55.4205C525.025 54.5265 524.866 53.447 524.866 52.1818C524.866 50.9242 525.025 49.8504 525.343 48.9602C525.665 48.0663 526.127 47.3845 526.73 46.9148C527.336 46.4413 528.063 46.2045 528.911 46.2045C529.76 46.2045 530.485 46.4413 531.088 46.9148C531.694 47.3845 532.156 48.0663 532.474 48.9602C532.796 49.8504 532.957 50.9242 532.957 52.1818C532.957 53.447 532.798 54.5265 532.48 55.4205C532.161 56.3106 531.701 56.9905 531.099 57.4602C530.497 57.9261 529.768 58.1591 528.911 58.1591ZM528.911 56.9091C529.76 56.9091 530.419 56.5 530.889 55.6818C531.358 54.8636 531.593 53.697 531.593 52.1818C531.593 51.1742 531.485 50.3163 531.269 49.608C531.057 48.8996 530.75 48.3598 530.349 47.9886C529.951 47.6174 529.472 47.4318 528.911 47.4318C528.071 47.4318 527.413 47.8466 526.94 48.6761C526.466 49.5019 526.23 50.6705 526.23 52.1818C526.23 53.1894 526.336 54.0455 526.548 54.75C526.76 55.4545 527.065 55.9905 527.463 56.358C527.864 56.7254 528.347 56.9091 528.911 56.9091ZM538.911 58.1591C538.055 58.1591 537.326 57.9261 536.724 57.4602C536.122 56.9905 535.661 56.3106 535.343 55.4205C535.025 54.5265 534.866 53.447 534.866 52.1818C534.866 50.9242 535.025 49.8504 535.343 48.9602C535.665 48.0663 536.127 47.3845 536.73 46.9148C537.336 46.4413 538.063 46.2045 538.911 46.2045C539.76 46.2045 540.485 46.4413 541.088 46.9148C541.694 47.3845 542.156 48.0663 542.474 48.9602C542.796 49.8504 542.957 50.9242 542.957 52.1818C542.957 53.447 542.798 54.5265 542.48 55.4205C542.161 56.3106 541.701 56.9905 541.099 57.4602C540.497 57.9261 539.768 58.1591 538.911 58.1591ZM538.911 56.9091C539.76 56.9091 540.419 56.5 540.889 55.6818C541.358 54.8636 541.593 53.697 541.593 52.1818C541.593 51.1742 541.485 50.3163 541.269 49.608C541.057 48.8996 540.75 48.3598 540.349 47.9886C539.951 47.6174 539.472 47.4318 538.911 47.4318C538.071 47.4318 537.413 47.8466 536.94 48.6761C536.466 49.5019 536.23 50.6705 536.23 52.1818C536.23 53.1894 536.336 54.0455 536.548 54.75C536.76 55.4545 537.065 55.9905 537.463 56.358C537.864 56.7254 538.347 56.9091 538.911 56.9091ZM548.911 58.1591C548.055 58.1591 547.326 57.9261 546.724 57.4602C546.122 56.9905 545.661 56.3106 545.343 55.4205C545.025 54.5265 544.866 53.447 544.866 52.1818C544.866 50.9242 545.025 49.8504 545.343 48.9602C545.665 48.0663 546.127 47.3845 546.73 46.9148C547.336 46.4413 548.063 46.2045 548.911 46.2045C549.76 46.2045 550.485 46.4413 551.088 46.9148C551.694 47.3845 552.156 48.0663 552.474 48.9602C552.796 49.8504 552.957 50.9242 552.957 52.1818C552.957 53.447 552.798 54.5265 552.48 55.4205C552.161 56.3106 551.701 56.9905 551.099 57.4602C550.497 57.9261 549.768 58.1591 548.911 58.1591ZM548.911 56.9091C549.76 56.9091 550.419 56.5 550.889 55.6818C551.358 54.8636 551.593 53.697 551.593 52.1818C551.593 51.1742 551.485 50.3163 551.269 49.608C551.057 48.8996 550.75 48.3598 550.349 47.9886C549.951 47.6174 549.472 47.4318 548.911 47.4318C548.071 47.4318 547.413 47.8466 546.94 48.6761C546.466 49.5019 546.23 50.6705 546.23 52.1818C546.23 53.1894 546.336 54.0455 546.548 54.75C546.76 55.4545 547.065 55.9905 547.463 56.358C547.864 56.7254 548.347 56.9091 548.911 56.9091ZM558.911 58.1591C558.055 58.1591 557.326 57.9261 556.724 57.4602C556.122 56.9905 555.661 56.3106 555.343 55.4205C555.025 54.5265 554.866 53.447 554.866 52.1818C554.866 50.9242 555.025 49.8504 555.343 48.9602C555.665 48.0663 556.127 47.3845 556.73 46.9148C557.336 46.4413 558.063 46.2045 558.911 46.2045C559.76 46.2045 560.485 46.4413 561.088 46.9148C561.694 47.3845 562.156 48.0663 562.474 48.9602C562.796 49.8504 562.957 50.9242 562.957 52.1818C562.957 53.447 562.798 54.5265 562.48 55.4205C562.161 56.3106 561.701 56.9905 561.099 57.4602C560.497 57.9261 559.768 58.1591 558.911 58.1591ZM558.911 56.9091C559.76 56.9091 560.419 56.5 560.889 55.6818C561.358 54.8636 561.593 53.697 561.593 52.1818C561.593 51.1742 561.485 50.3163 561.269 49.608C561.057 48.8996 560.75 48.3598 560.349 47.9886C559.951 47.6174 559.472 47.4318 558.911 47.4318C558.071 47.4318 557.413 47.8466 556.94 48.6761C556.466 49.5019 556.23 50.6705 556.23 52.1818C556.23 53.1894 556.336 54.0455 556.548 54.75C556.76 55.4545 557.065 55.9905 557.463 56.358C557.864 56.7254 558.347 56.9091 558.911 56.9091ZM569.616 58V56.9773L573.457 52.7727C573.908 52.2803 574.279 51.8523 574.571 51.4886C574.862 51.1212 575.078 50.7765 575.218 50.4545C575.362 50.1288 575.434 49.7879 575.434 49.4318C575.434 49.0227 575.336 48.6686 575.139 48.3693C574.946 48.0701 574.68 47.839 574.343 47.6761C574.006 47.5133 573.627 47.4318 573.207 47.4318C572.76 47.4318 572.37 47.5246 572.036 47.7102C571.707 47.892 571.451 48.1477 571.269 48.4773C571.091 48.8068 571.002 49.1932 571.002 49.6364H569.661C569.661 48.9545 569.819 48.3561 570.133 47.8409C570.447 47.3258 570.875 46.9242 571.417 46.6364C571.963 46.3485 572.574 46.2045 573.252 46.2045C573.934 46.2045 574.538 46.3485 575.065 46.6364C575.591 46.9242 576.004 47.3125 576.304 47.8011C576.603 48.2898 576.752 48.8333 576.752 49.4318C576.752 49.8598 576.675 50.2784 576.519 50.6875C576.368 51.0928 576.103 51.5455 575.724 52.0455C575.349 52.5417 574.828 53.1477 574.161 53.8636L571.548 56.6591V56.75H576.957V58H569.616ZM583.099 58.1591C582.243 58.1591 581.514 57.9261 580.911 57.4602C580.309 56.9905 579.849 56.3106 579.531 55.4205C579.213 54.5265 579.054 53.447 579.054 52.1818C579.054 50.9242 579.213 49.8504 579.531 48.9602C579.853 48.0663 580.315 47.3845 580.917 46.9148C581.523 46.4413 582.25 46.2045 583.099 46.2045C583.947 46.2045 584.673 46.4413 585.275 46.9148C585.881 47.3845 586.343 48.0663 586.661 48.9602C586.983 49.8504 587.144 50.9242 587.144 52.1818C587.144 53.447 586.985 54.5265 586.667 55.4205C586.349 56.3106 585.889 56.9905 585.286 57.4602C584.684 57.9261 583.955 58.1591 583.099 58.1591ZM583.099 56.9091C583.947 56.9091 584.607 56.5 585.076 55.6818C585.546 54.8636 585.781 53.697 585.781 52.1818C585.781 51.1742 585.673 50.3163 585.457 49.608C585.245 48.8996 584.938 48.3598 584.536 47.9886C584.139 47.6174 583.66 47.4318 583.099 47.4318C582.258 47.4318 581.601 47.8466 581.127 48.6761C580.654 49.5019 580.417 50.6705 580.417 52.1818C580.417 53.1894 580.523 54.0455 580.735 54.75C580.947 55.4545 581.252 55.9905 581.65 56.358C582.052 56.7254 582.535 56.9091 583.099 56.9091ZM595.235 55.8182V55.2045C595.235 54.7803 595.322 54.392 595.497 54.0398C595.675 53.6837 595.932 53.3996 596.269 53.1875C596.61 52.9716 597.023 52.8636 597.508 52.8636C598 52.8636 598.413 52.9716 598.747 53.1875C599.08 53.3996 599.332 53.6837 599.502 54.0398C599.673 54.392 599.758 54.7803 599.758 55.2045V55.8182C599.758 56.2424 599.671 56.6326 599.497 56.9886C599.326 57.3409 599.072 57.625 598.735 57.8409C598.402 58.053 597.993 58.1591 597.508 58.1591C597.016 58.1591 596.601 58.053 596.264 57.8409C595.927 57.625 595.671 57.3409 595.497 56.9886C595.322 56.6326 595.235 56.2424 595.235 55.8182ZM596.394 55.2045V55.8182C596.394 56.1705 596.478 56.4867 596.644 56.767C596.811 57.0436 597.099 57.1818 597.508 57.1818C597.906 57.1818 598.186 57.0436 598.349 56.767C598.516 56.4867 598.599 56.1705 598.599 55.8182V55.2045C598.599 54.8523 598.519 54.5379 598.36 54.2614C598.201 53.9811 597.917 53.8409 597.508 53.8409C597.11 53.8409 596.824 53.9811 596.65 54.2614C596.48 54.5379 596.394 54.8523 596.394 55.2045ZM589.44 49.1591V48.5455C589.44 48.1212 589.527 47.733 589.701 47.3807C589.879 47.0246 590.137 46.7405 590.474 46.5284C590.815 46.3125 591.228 46.2045 591.713 46.2045C592.205 46.2045 592.618 46.3125 592.951 46.5284C593.285 46.7405 593.536 47.0246 593.707 47.3807C593.877 47.733 593.963 48.1212 593.963 48.5455V49.1591C593.963 49.5833 593.875 49.9735 593.701 50.3295C593.531 50.6818 593.277 50.9659 592.94 51.1818C592.607 51.3939 592.197 51.5 591.713 51.5C591.22 51.5 590.805 51.3939 590.468 51.1818C590.131 50.9659 589.875 50.6818 589.701 50.3295C589.527 49.9735 589.44 49.5833 589.44 49.1591ZM590.599 48.5455V49.1591C590.599 49.5114 590.682 49.8277 590.849 50.108C591.016 50.3845 591.304 50.5227 591.713 50.5227C592.11 50.5227 592.391 50.3845 592.554 50.108C592.72 49.8277 592.804 49.5114 592.804 49.1591V48.5455C592.804 48.1932 592.724 47.8788 592.565 47.6023C592.406 47.322 592.122 47.1818 591.713 47.1818C591.315 47.1818 591.029 47.322 590.855 47.6023C590.684 47.8788 590.599 48.1932 590.599 48.5455ZM589.872 58L597.872 46.3636H599.167L591.167 58H589.872Z" fill="white" fill-opacity="0.95"/>
<mask id="path-7-inside-3_1637_12126" fill="white">
<path d="M866.667 6H1300V74H866.667V6Z"/>
</mask>
<path d="M1300 74V75H1301V74H1300ZM1299 6V74H1301V6H1299ZM1300 73H866.667V75H1300V73Z" fill="white" fill-opacity="0.3" mask="url(#path-7-inside-3_1637_12126)"/>
<path d="M901.439 46.1818C900.621 46.1818 899.917 45.9886 899.326 45.6023C898.735 45.2159 898.28 44.6837 897.962 44.0057C897.644 43.3277 897.485 42.553 897.485 41.6818C897.485 40.7955 897.648 40.0133 897.973 39.3352C898.303 38.6534 898.761 38.1212 899.348 37.7386C899.939 37.3523 900.629 37.1591 901.417 37.1591C902.03 37.1591 902.583 37.2727 903.076 37.5C903.568 37.7273 903.972 38.0455 904.286 38.4545C904.6 38.8636 904.795 39.3409 904.871 39.8864H903.53C903.428 39.4886 903.201 39.1364 902.848 38.8295C902.5 38.5189 902.03 38.3636 901.439 38.3636C900.917 38.3636 900.458 38.5 900.064 38.7727C899.674 39.0417 899.369 39.4223 899.15 39.9148C898.934 40.4034 898.826 40.9773 898.826 41.6364C898.826 42.3106 898.932 42.8977 899.144 43.3977C899.36 43.8977 899.663 44.286 900.053 44.5625C900.447 44.839 900.909 44.9773 901.439 44.9773C901.788 44.9773 902.104 44.9167 902.388 44.7955C902.672 44.6742 902.913 44.5 903.11 44.2727C903.307 44.0455 903.447 43.7727 903.53 43.4545H904.871C904.795 43.9697 904.608 44.4337 904.309 44.8466C904.013 45.2557 903.621 45.5814 903.133 45.8239C902.648 46.0625 902.083 46.1818 901.439 46.1818ZM910.377 46.1818C909.589 46.1818 908.898 45.9943 908.303 45.6193C907.712 45.2443 907.25 44.7197 906.917 44.0455C906.587 43.3712 906.422 42.5833 906.422 41.6818C906.422 40.7727 906.587 39.9792 906.917 39.3011C907.25 38.6231 907.712 38.0966 908.303 37.7216C908.898 37.3466 909.589 37.1591 910.377 37.1591C911.165 37.1591 911.854 37.3466 912.445 37.7216C913.04 38.0966 913.502 38.6231 913.831 39.3011C914.165 39.9792 914.331 40.7727 914.331 41.6818C914.331 42.5833 914.165 43.3712 913.831 44.0455C913.502 44.7197 913.04 45.2443 912.445 45.6193C911.854 45.9943 911.165 46.1818 910.377 46.1818ZM910.377 44.9773C910.975 44.9773 911.468 44.8239 911.854 44.517C912.24 44.2102 912.526 43.8068 912.712 43.3068C912.898 42.8068 912.99 42.2652 912.99 41.6818C912.99 41.0985 912.898 40.5549 912.712 40.0511C912.526 39.5473 912.24 39.1402 911.854 38.8295C911.468 38.5189 910.975 38.3636 910.377 38.3636C909.778 38.3636 909.286 38.5189 908.9 38.8295C908.513 39.1402 908.227 39.5473 908.042 40.0511C907.856 40.5549 907.763 41.0985 907.763 41.6818C907.763 42.2652 907.856 42.8068 908.042 43.3068C908.227 43.8068 908.513 44.2102 908.9 44.517C909.286 44.8239 909.778 44.9773 910.377 44.9773ZM917.719 34.3636V46H916.378V34.3636H917.719ZM923.721 46.1818C922.933 46.1818 922.241 45.9943 921.647 45.6193C921.056 45.2443 920.594 44.7197 920.26 44.0455C919.931 43.3712 919.766 42.5833 919.766 41.6818C919.766 40.7727 919.931 39.9792 920.26 39.3011C920.594 38.6231 921.056 38.0966 921.647 37.7216C922.241 37.3466 922.933 37.1591 923.721 37.1591C924.508 37.1591 925.198 37.3466 925.789 37.7216C926.383 38.0966 926.846 38.6231 927.175 39.3011C927.508 39.9792 927.675 40.7727 927.675 41.6818C927.675 42.5833 927.508 43.3712 927.175 44.0455C926.846 44.7197 926.383 45.2443 925.789 45.6193C925.198 45.9943 924.508 46.1818 923.721 46.1818ZM923.721 44.9773C924.319 44.9773 924.812 44.8239 925.198 44.517C925.584 44.2102 925.87 43.8068 926.056 43.3068C926.241 42.8068 926.334 42.2652 926.334 41.6818C926.334 41.0985 926.241 40.5549 926.056 40.0511C925.87 39.5473 925.584 39.1402 925.198 38.8295C924.812 38.5189 924.319 38.3636 923.721 38.3636C923.122 38.3636 922.63 38.5189 922.243 38.8295C921.857 39.1402 921.571 39.5473 921.385 40.0511C921.2 40.5549 921.107 41.0985 921.107 41.6818C921.107 42.2652 921.2 42.8068 921.385 43.3068C921.571 43.8068 921.857 44.2102 922.243 44.517C922.63 44.8239 923.122 44.9773 923.721 44.9773ZM929.722 46V37.2727H931.017V38.5909H931.108C931.267 38.1591 931.555 37.8087 931.972 37.5398C932.389 37.2708 932.858 37.1364 933.381 37.1364C933.48 37.1364 933.603 37.1383 933.75 37.142C933.898 37.1458 934.01 37.1515 934.086 37.1591V38.5227C934.04 38.5114 933.936 38.4943 933.773 38.4716C933.614 38.4451 933.446 38.4318 933.267 38.4318C932.843 38.4318 932.464 38.5208 932.131 38.6989C931.802 38.8731 931.54 39.1155 931.347 39.4261C931.158 39.733 931.063 40.0833 931.063 40.4773V46H929.722ZM935.652 46.0909C935.372 46.0909 935.132 45.9905 934.931 45.7898C934.73 45.589 934.63 45.3485 934.63 45.0682C934.63 44.7879 934.73 44.5473 934.931 44.3466C935.132 44.1458 935.372 44.0455 935.652 44.0455C935.933 44.0455 936.173 44.1458 936.374 44.3466C936.575 44.5473 936.675 44.7879 936.675 45.0682C936.675 45.2538 936.628 45.4242 936.533 45.5795C936.442 45.7348 936.319 45.8598 936.164 45.9545C936.012 46.0455 935.842 46.0909 935.652 46.0909ZM942.877 37.2727V38.4091H938.354V37.2727H942.877ZM939.672 35.1818H941.013V43.5C941.013 43.8788 941.068 44.1629 941.178 44.3523C941.292 44.5379 941.436 44.6629 941.61 44.7273C941.788 44.7879 941.975 44.8182 942.172 44.8182C942.32 44.8182 942.441 44.8106 942.536 44.7955C942.631 44.7765 942.706 44.7614 942.763 44.75L943.036 45.9545C942.945 45.9886 942.818 46.0227 942.655 46.0568C942.492 46.0947 942.286 46.1136 942.036 46.1136C941.657 46.1136 941.286 46.0322 940.922 45.8693C940.562 45.7064 940.263 45.4583 940.025 45.125C939.79 44.7917 939.672 44.3712 939.672 43.8636V35.1818ZM946.422 40.75V46H945.081V34.3636H946.422V38.6364H946.536C946.74 38.1856 947.047 37.8277 947.456 37.5625C947.869 37.2936 948.419 37.1591 949.104 37.1591C949.699 37.1591 950.22 37.2784 950.667 37.517C951.114 37.7519 951.46 38.1136 951.706 38.6023C951.956 39.0871 952.081 39.7045 952.081 40.4545V46H950.74V40.5455C950.74 39.8523 950.561 39.3163 950.201 38.9375C949.845 38.5549 949.35 38.3636 948.718 38.3636C948.278 38.3636 947.884 38.4564 947.536 38.642C947.191 38.8277 946.919 39.0985 946.718 39.4545C946.521 39.8106 946.422 40.2424 946.422 40.75ZM958.194 46.1818C957.353 46.1818 956.627 45.9962 956.017 45.625C955.411 45.25 954.944 44.7273 954.614 44.0568C954.288 43.3826 954.125 42.5985 954.125 41.7045C954.125 40.8106 954.288 40.0227 954.614 39.3409C954.944 38.6553 955.402 38.1212 955.989 37.7386C956.58 37.3523 957.269 37.1591 958.057 37.1591C958.512 37.1591 958.961 37.2348 959.404 37.3864C959.847 37.5379 960.25 37.7841 960.614 38.125C960.978 38.4621 961.267 38.9091 961.483 39.4659C961.699 40.0227 961.807 40.7083 961.807 41.5227V42.0909H955.08V40.9318H960.444C960.444 40.4394 960.345 40 960.148 39.6136C959.955 39.2273 959.678 38.9223 959.319 38.6989C958.963 38.4754 958.542 38.3636 958.057 38.3636C957.523 38.3636 957.061 38.4962 956.671 38.7614C956.285 39.0227 955.987 39.3636 955.779 39.7841C955.571 40.2045 955.466 40.6553 955.466 41.1364V41.9091C955.466 42.5682 955.58 43.1269 955.807 43.5852C956.038 44.0398 956.358 44.3864 956.767 44.625C957.177 44.8598 957.652 44.9773 958.194 44.9773C958.546 44.9773 958.864 44.928 959.148 44.8295C959.436 44.7273 959.684 44.5758 959.892 44.375C960.101 44.1705 960.262 43.9167 960.375 43.6136L961.671 43.9773C961.535 44.4167 961.305 44.803 960.983 45.1364C960.661 45.4659 960.264 45.7235 959.79 45.9091C959.317 46.0909 958.785 46.1818 958.194 46.1818ZM963.847 46V37.2727H965.142V38.6364H965.256C965.438 38.1705 965.731 37.8087 966.137 37.5511C966.542 37.2898 967.029 37.1591 967.597 37.1591C968.173 37.1591 968.652 37.2898 969.035 37.5511C969.421 37.8087 969.722 38.1705 969.938 38.6364H970.029C970.252 38.1856 970.588 37.8277 971.035 37.5625C971.481 37.2936 972.017 37.1591 972.642 37.1591C973.423 37.1591 974.061 37.4034 974.557 37.892C975.053 38.3769 975.302 39.1326 975.302 40.1591V46H973.961V40.1591C973.961 39.5152 973.785 39.0549 973.432 38.7784C973.08 38.5019 972.665 38.3636 972.188 38.3636C971.574 38.3636 971.099 38.5492 970.762 38.9205C970.425 39.2879 970.256 39.7538 970.256 40.3182V46H968.892V40.0227C968.892 39.5265 968.731 39.1269 968.41 38.8239C968.088 38.517 967.673 38.3636 967.165 38.3636C966.817 38.3636 966.491 38.4564 966.188 38.642C965.889 38.8277 965.646 39.0852 965.461 39.4148C965.279 39.7405 965.188 40.1174 965.188 40.5455V46H963.847ZM981.412 46.1818C980.571 46.1818 979.846 45.9962 979.236 45.625C978.63 45.25 978.162 44.7273 977.833 44.0568C977.507 43.3826 977.344 42.5985 977.344 41.7045C977.344 40.8106 977.507 40.0227 977.833 39.3409C978.162 38.6553 978.621 38.1212 979.208 37.7386C979.799 37.3523 980.488 37.1591 981.276 37.1591C981.731 37.1591 982.179 37.2348 982.623 37.3864C983.066 37.5379 983.469 37.7841 983.833 38.125C984.196 38.4621 984.486 38.9091 984.702 39.4659C984.918 40.0227 985.026 40.7083 985.026 41.5227V42.0909H978.299V40.9318H983.662C983.662 40.4394 983.564 40 983.367 39.6136C983.174 39.2273 982.897 38.9223 982.537 38.6989C982.181 38.4754 981.761 38.3636 981.276 38.3636C980.742 38.3636 980.28 38.4962 979.89 38.7614C979.503 39.0227 979.206 39.3636 978.998 39.7841C978.789 40.2045 978.685 40.6553 978.685 41.1364V41.9091C978.685 42.5682 978.799 43.1269 979.026 43.5852C979.257 44.0398 979.577 44.3864 979.986 44.625C980.395 44.8598 980.871 44.9773 981.412 44.9773C981.765 44.9773 982.083 44.928 982.367 44.8295C982.655 44.7273 982.903 44.5758 983.111 44.375C983.32 44.1705 983.481 43.9167 983.594 43.6136L984.89 43.9773C984.753 44.4167 984.524 44.803 984.202 45.1364C983.88 45.4659 983.482 45.7235 983.009 45.9091C982.535 46.0909 982.003 46.1818 981.412 46.1818ZM988.043 46.0909C987.763 46.0909 987.522 45.9905 987.321 45.7898C987.121 45.589 987.02 45.3485 987.02 45.0682C987.02 44.7879 987.121 44.5473 987.321 44.3466C987.522 44.1458 987.763 44.0455 988.043 44.0455C988.323 44.0455 988.564 44.1458 988.765 44.3466C988.965 44.5473 989.066 44.7879 989.066 45.0682C989.066 45.2538 989.018 45.4242 988.924 45.5795C988.833 45.7348 988.71 45.8598 988.554 45.9545C988.403 46.0455 988.232 46.0909 988.043 46.0909ZM991.654 46V34.3636H992.995V38.6591H993.108C993.207 38.5076 993.343 38.3144 993.517 38.0795C993.696 37.8409 993.949 37.6288 994.279 37.4432C994.612 37.2538 995.063 37.1591 995.631 37.1591C996.366 37.1591 997.014 37.3428 997.574 37.7102C998.135 38.0777 998.572 38.5985 998.887 39.2727C999.201 39.947 999.358 40.7424 999.358 41.6591C999.358 42.5833 999.201 43.3845 998.887 44.0625C998.572 44.7367 998.137 45.2595 997.58 45.6307C997.023 45.9981 996.381 46.1818 995.654 46.1818C995.093 46.1818 994.644 46.089 994.307 45.9034C993.97 45.714 993.711 45.5 993.529 45.2614C993.347 45.0189 993.207 44.8182 993.108 44.6591H992.949V46H991.654ZM992.972 41.6364C992.972 42.2955 993.069 42.8769 993.262 43.3807C993.455 43.8807 993.737 44.2727 994.108 44.5568C994.48 44.8371 994.934 44.9773 995.472 44.9773C996.033 44.9773 996.5 44.8295 996.875 44.5341C997.254 44.2348 997.538 43.8333 997.728 43.3295C997.921 42.822 998.017 42.2576 998.017 41.6364C998.017 41.0227 997.923 40.4697 997.733 39.9773C997.548 39.4811 997.266 39.089 996.887 38.8011C996.512 38.5095 996.04 38.3636 995.472 38.3636C994.927 38.3636 994.468 38.5019 994.097 38.7784C993.726 39.0511 993.446 39.4337 993.256 39.9261C993.067 40.4148 992.972 40.9848 992.972 41.6364ZM1004.95 46.1818C1004.17 46.1818 1003.48 45.9943 1002.88 45.6193C1002.29 45.2443 1001.83 44.7197 1001.49 44.0455C1001.17 43.3712 1001 42.5833 1001 41.6818C1001 40.7727 1001.17 39.9792 1001.49 39.3011C1001.83 38.6231 1002.29 38.0966 1002.88 37.7216C1003.48 37.3466 1004.17 37.1591 1004.95 37.1591C1005.74 37.1591 1006.43 37.3466 1007.02 37.7216C1007.62 38.0966 1008.08 38.6231 1008.41 39.3011C1008.74 39.9792 1008.91 40.7727 1008.91 41.6818C1008.91 42.5833 1008.74 43.3712 1008.41 44.0455C1008.08 44.7197 1007.62 45.2443 1007.02 45.6193C1006.43 45.9943 1005.74 46.1818 1004.95 46.1818ZM1004.95 44.9773C1005.55 44.9773 1006.05 44.8239 1006.43 44.517C1006.82 44.2102 1007.1 43.8068 1007.29 43.3068C1007.48 42.8068 1007.57 42.2652 1007.57 41.6818C1007.57 41.0985 1007.48 40.5549 1007.29 40.0511C1007.1 39.5473 1006.82 39.1402 1006.43 38.8295C1006.05 38.5189 1005.55 38.3636 1004.95 38.3636C1004.36 38.3636 1003.86 38.5189 1003.48 38.8295C1003.09 39.1402 1002.81 39.5473 1002.62 40.0511C1002.43 40.5549 1002.34 41.0985 1002.34 41.6818C1002.34 42.2652 1002.43 42.8068 1002.62 43.3068C1002.81 43.8068 1003.09 44.2102 1003.48 44.517C1003.86 44.8239 1004.36 44.9773 1004.95 44.9773ZM1010.96 46V37.2727H1012.25V38.5909H1012.34C1012.5 38.1591 1012.79 37.8087 1013.21 37.5398C1013.62 37.2708 1014.09 37.1364 1014.62 37.1364C1014.71 37.1364 1014.84 37.1383 1014.98 37.142C1015.13 37.1458 1015.24 37.1515 1015.32 37.1591V38.5227C1015.27 38.5114 1015.17 38.4943 1015.01 38.4716C1014.85 38.4451 1014.68 38.4318 1014.5 38.4318C1014.08 38.4318 1013.7 38.5208 1013.37 38.6989C1013.04 38.8731 1012.77 39.1155 1012.58 39.4261C1012.39 39.733 1012.3 40.0833 1012.3 40.4773V46H1010.96ZM1019.94 46.1818C1019.21 46.1818 1018.57 45.9981 1018.01 45.6307C1017.46 45.2595 1017.02 44.7367 1016.71 44.0625C1016.39 43.3845 1016.23 42.5833 1016.23 41.6591C1016.23 40.7424 1016.39 39.947 1016.71 39.2727C1017.02 38.5985 1017.46 38.0777 1018.02 37.7102C1018.58 37.3428 1019.23 37.1591 1019.96 37.1591C1020.53 37.1591 1020.98 37.2538 1021.31 37.4432C1021.64 37.6288 1021.9 37.8409 1022.07 38.0795C1022.25 38.3144 1022.39 38.5076 1022.48 38.6591H1022.6V34.3636H1023.94V46H1022.64V44.6591H1022.48C1022.39 44.8182 1022.25 45.0189 1022.06 45.2614C1021.88 45.5 1021.62 45.714 1021.29 45.9034C1020.95 46.089 1020.5 46.1818 1019.94 46.1818ZM1020.12 44.9773C1020.66 44.9773 1021.11 44.8371 1021.48 44.5568C1021.86 44.2727 1022.14 43.8807 1022.33 43.3807C1022.52 42.8769 1022.62 42.2955 1022.62 41.6364C1022.62 40.9848 1022.53 40.4148 1022.34 39.9261C1022.15 39.4337 1021.87 39.0511 1021.5 38.7784C1021.12 38.5019 1020.67 38.3636 1020.12 38.3636C1019.55 38.3636 1019.08 38.5095 1018.7 38.8011C1018.33 39.089 1018.04 39.4811 1017.85 39.9773C1017.67 40.4697 1017.58 41.0227 1017.58 41.6364C1017.58 42.2576 1017.67 42.822 1017.86 43.3295C1018.05 43.8333 1018.34 44.2348 1018.71 44.5341C1019.09 44.8295 1019.56 44.9773 1020.12 44.9773ZM1030.24 46.1818C1029.4 46.1818 1028.67 45.9962 1028.06 45.625C1027.46 45.25 1026.99 44.7273 1026.66 44.0568C1026.34 43.3826 1026.17 42.5985 1026.17 41.7045C1026.17 40.8106 1026.34 40.0227 1026.66 39.3409C1026.99 38.6553 1027.45 38.1212 1028.04 37.7386C1028.63 37.3523 1029.32 37.1591 1030.1 37.1591C1030.56 37.1591 1031.01 37.2348 1031.45 37.3864C1031.89 37.5379 1032.3 37.7841 1032.66 38.125C1033.02 38.4621 1033.31 38.9091 1033.53 39.4659C1033.75 40.0227 1033.85 40.7083 1033.85 41.5227V42.0909H1027.13V40.9318H1032.49C1032.49 40.4394 1032.39 40 1032.2 39.6136C1032 39.2273 1031.73 38.9223 1031.37 38.6989C1031.01 38.4754 1030.59 38.3636 1030.1 38.3636C1029.57 38.3636 1029.11 38.4962 1028.72 38.7614C1028.33 39.0227 1028.03 39.3636 1027.83 39.7841C1027.62 40.2045 1027.51 40.6553 1027.51 41.1364V41.9091C1027.51 42.5682 1027.63 43.1269 1027.85 43.5852C1028.09 44.0398 1028.41 44.3864 1028.81 44.625C1029.22 44.8598 1029.7 44.9773 1030.24 44.9773C1030.59 44.9773 1030.91 44.928 1031.2 44.8295C1031.48 44.7273 1031.73 44.5758 1031.94 44.375C1032.15 44.1705 1032.31 43.9167 1032.42 43.6136L1033.72 43.9773C1033.58 44.4167 1033.35 44.803 1033.03 45.1364C1032.71 45.4659 1032.31 45.7235 1031.84 45.9091C1031.36 46.0909 1030.83 46.1818 1030.24 46.1818ZM1035.89 46V37.2727H1037.19V38.5909H1037.28C1037.44 38.1591 1037.73 37.8087 1038.14 37.5398C1038.56 37.2708 1039.03 37.1364 1039.55 37.1364C1039.65 37.1364 1039.77 37.1383 1039.92 37.142C1040.07 37.1458 1040.18 37.1515 1040.26 37.1591V38.5227C1040.21 38.5114 1040.11 38.4943 1039.95 38.4716C1039.79 38.4451 1039.62 38.4318 1039.44 38.4318C1039.02 38.4318 1038.64 38.5208 1038.3 38.6989C1037.97 38.8731 1037.71 39.1155 1037.52 39.4261C1037.33 39.733 1037.23 40.0833 1037.23 40.4773V46H1035.89ZM1041.82 46.0909C1041.54 46.0909 1041.3 45.9905 1041.1 45.7898C1040.9 45.589 1040.8 45.3485 1040.8 45.0682C1040.8 44.7879 1040.9 44.5473 1041.1 44.3466C1041.3 44.1458 1041.54 44.0455 1041.82 44.0455C1042.1 44.0455 1042.35 44.1458 1042.55 44.3466C1042.75 44.5473 1042.85 44.7879 1042.85 45.0682C1042.85 45.2538 1042.8 45.4242 1042.7 45.5795C1042.61 45.7348 1042.49 45.8598 1042.34 45.9545C1042.18 46.0455 1042.01 46.0909 1041.82 46.0909ZM1046.59 40.75V46H1045.25V37.2727H1046.55V38.6364H1046.66C1046.87 38.1932 1047.18 37.8371 1047.59 37.5682C1048.01 37.2955 1048.55 37.1591 1049.21 37.1591C1049.8 37.1591 1050.32 37.2803 1050.76 37.5227C1051.2 37.7614 1051.55 38.125 1051.79 38.6136C1052.04 39.0985 1052.16 39.7121 1052.16 40.4545V46H1050.82V40.5455C1050.82 39.8598 1050.64 39.3258 1050.29 38.9432C1049.93 38.5568 1049.44 38.3636 1048.82 38.3636C1048.39 38.3636 1048.01 38.4564 1047.67 38.642C1047.34 38.8277 1047.08 39.0985 1046.88 39.4545C1046.69 39.8106 1046.59 40.2424 1046.59 40.75ZM1058.27 46.1818C1057.43 46.1818 1056.71 45.9962 1056.1 45.625C1055.49 45.25 1055.02 44.7273 1054.69 44.0568C1054.37 43.3826 1054.2 42.5985 1054.2 41.7045C1054.2 40.8106 1054.37 40.0227 1054.69 39.3409C1055.02 38.6553 1055.48 38.1212 1056.07 37.7386C1056.66 37.3523 1057.35 37.1591 1058.14 37.1591C1058.59 37.1591 1059.04 37.2348 1059.48 37.3864C1059.93 37.5379 1060.33 37.7841 1060.69 38.125C1061.06 38.4621 1061.35 38.9091 1061.56 39.4659C1061.78 40.0227 1061.89 40.7083 1061.89 41.5227V42.0909H1055.16V40.9318H1060.52C1060.52 40.4394 1060.42 40 1060.23 39.6136C1060.03 39.2273 1059.76 38.9223 1059.4 38.6989C1059.04 38.4754 1058.62 38.3636 1058.14 38.3636C1057.6 38.3636 1057.14 38.4962 1056.75 38.7614C1056.36 39.0227 1056.07 39.3636 1055.86 39.7841C1055.65 40.2045 1055.54 40.6553 1055.54 41.1364V41.9091C1055.54 42.5682 1055.66 43.1269 1055.89 43.5852C1056.12 44.0398 1056.44 44.3864 1056.85 44.625C1057.25 44.8598 1057.73 44.9773 1058.27 44.9773C1058.62 44.9773 1058.94 44.928 1059.23 44.8295C1059.51 44.7273 1059.76 44.5758 1059.97 44.375C1060.18 44.1705 1060.34 43.9167 1060.45 43.6136L1061.75 43.9773C1061.61 44.4167 1061.38 44.803 1061.06 45.1364C1060.74 45.4659 1060.34 45.7235 1059.87 45.9091C1059.39 46.0909 1058.86 46.1818 1058.27 46.1818ZM1069.43 42.4318V37.2727H1070.77V46H1069.43V44.5227H1069.33C1069.13 44.9659 1068.81 45.3428 1068.38 45.6534C1067.95 45.9602 1067.4 46.1136 1066.74 46.1136C1066.2 46.1136 1065.71 45.9943 1065.29 45.7557C1064.86 45.5133 1064.53 45.1496 1064.29 44.6648C1064.05 44.1761 1063.93 43.5606 1063.93 42.8182V37.2727H1065.27V42.7273C1065.27 43.3636 1065.44 43.8712 1065.8 44.25C1066.16 44.6288 1066.62 44.8182 1067.18 44.8182C1067.51 44.8182 1067.85 44.733 1068.19 44.5625C1068.54 44.392 1068.83 44.1307 1069.07 43.7784C1069.31 43.4261 1069.43 42.9773 1069.43 42.4318ZM1077.02 37.2727V38.4091H1072.49V37.2727H1077.02ZM1073.81 35.1818H1075.15V43.5C1075.15 43.8788 1075.21 44.1629 1075.32 44.3523C1075.43 44.5379 1075.58 44.6629 1075.75 44.7273C1075.93 44.7879 1076.12 44.8182 1076.31 44.8182C1076.46 44.8182 1076.58 44.8106 1076.68 44.7955C1076.77 44.7765 1076.85 44.7614 1076.9 44.75L1077.18 45.9545C1077.09 45.9886 1076.96 46.0227 1076.8 46.0568C1076.63 46.0947 1076.43 46.1136 1076.18 46.1136C1075.8 46.1136 1075.43 46.0322 1075.06 45.8693C1074.7 45.7064 1074.4 45.4583 1074.17 45.125C1073.93 44.7917 1073.81 44.3712 1073.81 43.8636V35.1818ZM1079.03 46V37.2727H1080.33V38.5909H1080.42C1080.58 38.1591 1080.87 37.8087 1081.28 37.5398C1081.7 37.2708 1082.17 37.1364 1082.69 37.1364C1082.79 37.1364 1082.92 37.1383 1083.06 37.142C1083.21 37.1458 1083.32 37.1515 1083.4 37.1591V38.5227C1083.35 38.5114 1083.25 38.4943 1083.09 38.4716C1082.93 38.4451 1082.76 38.4318 1082.58 38.4318C1082.16 38.4318 1081.78 38.5208 1081.44 38.6989C1081.11 38.8731 1080.85 39.1155 1080.66 39.4261C1080.47 39.733 1080.38 40.0833 1080.38 40.4773V46H1079.03ZM1087.56 46.2045C1087 46.2045 1086.5 46.1004 1086.05 45.892C1085.6 45.6799 1085.24 45.375 1084.98 44.9773C1084.71 44.5758 1084.58 44.0909 1084.58 43.5227C1084.58 43.0227 1084.68 42.6174 1084.87 42.3068C1085.07 41.9924 1085.33 41.7462 1085.66 41.5682C1085.99 41.3902 1086.36 41.2576 1086.75 41.1705C1087.16 41.0795 1087.56 41.0076 1087.96 40.9545C1088.5 40.8864 1088.93 40.8352 1089.25 40.8011C1089.59 40.7633 1089.83 40.7008 1089.98 40.6136C1090.14 40.5265 1090.21 40.375 1090.21 40.1591V40.1136C1090.21 39.553 1090.06 39.1174 1089.75 38.8068C1089.45 38.4962 1088.99 38.3409 1088.37 38.3409C1087.73 38.3409 1087.23 38.4811 1086.87 38.7614C1086.5 39.0417 1086.25 39.3409 1086.1 39.6591L1084.83 39.2045C1085.06 38.6742 1085.36 38.2614 1085.74 37.9659C1086.12 37.6667 1086.54 37.4583 1086.99 37.3409C1087.44 37.2197 1087.89 37.1591 1088.33 37.1591C1088.61 37.1591 1088.93 37.1932 1089.29 37.2614C1089.66 37.3258 1090.02 37.4602 1090.36 37.6648C1090.7 37.8693 1090.99 38.178 1091.21 38.5909C1091.44 39.0038 1091.56 39.5568 1091.56 40.25V46H1090.21V44.8182H1090.15C1090.06 45.0076 1089.9 45.2102 1089.69 45.4261C1089.48 45.642 1089.2 45.8258 1088.85 45.9773C1088.49 46.1288 1088.06 46.2045 1087.56 46.2045ZM1087.76 45C1088.29 45 1088.74 44.8958 1089.1 44.6875C1089.47 44.4792 1089.75 44.2102 1089.93 43.8807C1090.12 43.5511 1090.21 43.2045 1090.21 42.8409V41.6136C1090.16 41.6818 1090.03 41.7443 1089.84 41.8011C1089.65 41.8542 1089.43 41.9015 1089.18 41.9432C1088.93 41.9811 1088.69 42.0152 1088.46 42.0455C1088.23 42.072 1088.04 42.0947 1087.9 42.1136C1087.55 42.1591 1087.22 42.233 1086.92 42.3352C1086.62 42.4337 1086.38 42.5833 1086.19 42.7841C1086.01 42.9811 1085.92 43.25 1085.92 43.5909C1085.92 44.0568 1086.09 44.4091 1086.44 44.6477C1086.78 44.8826 1087.23 45 1087.76 45ZM1095.34 34.3636V46H1094V34.3636H1095.34ZM1098.78 46.0909C1098.5 46.0909 1098.26 45.9905 1098.06 45.7898C1097.86 45.589 1097.75 45.3485 1097.75 45.0682C1097.75 44.7879 1097.86 44.5473 1098.06 44.3466C1098.26 44.1458 1098.5 44.0455 1098.78 44.0455C1099.06 44.0455 1099.3 44.1458 1099.5 44.3466C1099.7 44.5473 1099.8 44.7879 1099.8 45.0682C1099.8 45.2538 1099.75 45.4242 1099.66 45.5795C1099.57 45.7348 1099.44 45.8598 1099.29 45.9545C1099.14 46.0455 1098.97 46.0909 1098.78 46.0909ZM1105.57 46.1591C1104.72 46.1591 1103.99 45.9261 1103.39 45.4602C1102.78 44.9905 1102.32 44.3106 1102 43.4205C1101.69 42.5265 1101.53 41.447 1101.53 40.1818C1101.53 38.9242 1101.69 37.8504 1102 36.9602C1102.33 36.0663 1102.79 35.3845 1103.39 34.9148C1104 34.4413 1104.72 34.2045 1105.57 34.2045C1106.42 34.2045 1107.15 34.4413 1107.75 34.9148C1108.36 35.3845 1108.82 36.0663 1109.14 36.9602C1109.46 37.8504 1109.62 38.9242 1109.62 40.1818C1109.62 41.447 1109.46 42.5265 1109.14 43.4205C1108.82 44.3106 1108.36 44.9905 1107.76 45.4602C1107.16 45.9261 1106.43 46.1591 1105.57 46.1591ZM1105.57 44.9091C1106.42 44.9091 1107.08 44.5 1107.55 43.6818C1108.02 42.8636 1108.25 41.697 1108.25 40.1818C1108.25 39.1742 1108.15 38.3163 1107.93 37.608C1107.72 36.8996 1107.41 36.3598 1107.01 35.9886C1106.61 35.6174 1106.13 35.4318 1105.57 35.4318C1104.73 35.4318 1104.07 35.8466 1103.6 36.6761C1103.13 37.5019 1102.89 38.6705 1102.89 40.1818C1102.89 41.1894 1103 42.0455 1103.21 42.75C1103.42 43.4545 1103.73 43.9905 1104.12 44.358C1104.53 44.7254 1105.01 44.9091 1105.57 44.9091ZM1115.57 46.1591C1114.72 46.1591 1113.99 45.9261 1113.39 45.4602C1112.78 44.9905 1112.32 44.3106 1112 43.4205C1111.69 42.5265 1111.53 41.447 1111.53 40.1818C1111.53 38.9242 1111.69 37.8504 1112 36.9602C1112.33 36.0663 1112.79 35.3845 1113.39 34.9148C1114 34.4413 1114.72 34.2045 1115.57 34.2045C1116.42 34.2045 1117.15 34.4413 1117.75 34.9148C1118.36 35.3845 1118.82 36.0663 1119.14 36.9602C1119.46 37.8504 1119.62 38.9242 1119.62 40.1818C1119.62 41.447 1119.46 42.5265 1119.14 43.4205C1118.82 44.3106 1118.36 44.9905 1117.76 45.4602C1117.16 45.9261 1116.43 46.1591 1115.57 46.1591ZM1115.57 44.9091C1116.42 44.9091 1117.08 44.5 1117.55 43.6818C1118.02 42.8636 1118.25 41.697 1118.25 40.1818C1118.25 39.1742 1118.15 38.3163 1117.93 37.608C1117.72 36.8996 1117.41 36.3598 1117.01 35.9886C1116.61 35.6174 1116.13 35.4318 1115.57 35.4318C1114.73 35.4318 1114.07 35.8466 1113.6 36.6761C1113.13 37.5019 1112.89 38.6705 1112.89 40.1818C1112.89 41.1894 1113 42.0455 1113.21 42.75C1113.42 43.4545 1113.73 43.9905 1114.12 44.358C1114.53 44.7254 1115.01 44.9091 1115.57 44.9091Z" fill="white" fill-opacity="0.95"/>
</svg>
