<svg width="768" height="204" viewBox="0 0 768 204" fill="none" xmlns="http://www.w3.org/2000/svg">
<g clip-path="url(#clip0_1637_12029)">
<mask id="path-3-inside-1_1637_12029" fill="white">
<path d="M0 0H256V68H0V0Z"/>
</mask>
<path d="M0 0H256V68H0V0Z" fill="#262626"/>
<path d="M256 68V69H257V68H256ZM255 0V68H257V0H255ZM256 67H0V69H256V67Z" fill="white" fill-opacity="0.3" mask="url(#path-3-inside-1_1637_12029)"/>
<path d="M31.2642 41V26.4545H41.0653V28.9901H34.3395V32.456H40.5611V34.9915H34.3395V38.4645H41.0938V41H31.2642ZM46.479 26.4545V41H43.4535V26.4545H46.479ZM53.8743 41.2131C52.7521 41.2131 51.7862 40.9858 50.9766 40.5312C50.1716 40.072 49.5514 39.4233 49.1158 38.5852C48.6802 37.7424 48.4624 36.7457 48.4624 35.5952C48.4624 34.473 48.6802 33.4882 49.1158 32.6406C49.5514 31.7931 50.1645 31.1326 50.9553 30.6591C51.7507 30.1856 52.6835 29.9489 53.7536 29.9489C54.4732 29.9489 55.1432 30.0649 55.7635 30.2969C56.3885 30.5241 56.933 30.8674 57.397 31.3267C57.8658 31.786 58.2304 32.3636 58.4908 33.0597C58.7512 33.7509 58.8814 34.5606 58.8814 35.4886V36.3196H49.6697V34.4446H56.0334C56.0334 34.009 55.9387 33.6231 55.7493 33.2869C55.5599 32.9508 55.2971 32.688 54.9609 32.4986C54.6295 32.3045 54.2436 32.2074 53.8033 32.2074C53.344 32.2074 52.9368 32.3139 52.5817 32.527C52.2313 32.7353 51.9567 33.017 51.7578 33.3722C51.5589 33.7225 51.4571 34.1132 51.4524 34.544V36.3267C51.4524 36.8665 51.5518 37.3329 51.7507 37.7259C51.9543 38.1188 52.2408 38.4219 52.6101 38.6349C52.9794 38.848 53.4174 38.9545 53.924 38.9545C54.2602 38.9545 54.5679 38.9072 54.8473 38.8125C55.1267 38.7178 55.3658 38.5758 55.5646 38.3864C55.7635 38.197 55.915 37.965 56.0192 37.6903L58.8175 37.875C58.6754 38.5473 58.3842 39.1345 57.9439 39.6364C57.5083 40.1335 56.9448 40.5218 56.2536 40.8011C55.567 41.0758 54.7739 41.2131 53.8743 41.2131ZM60.8558 41V30.0909H63.7393V32.0156H63.8672C64.0945 31.3764 64.4732 30.8722 65.0036 30.5028C65.5339 30.1335 66.1683 29.9489 66.907 29.9489C67.6551 29.9489 68.2919 30.1359 68.8175 30.5099C69.343 30.8793 69.6934 31.3812 69.8686 32.0156H69.9822C70.2048 31.3906 70.6072 30.8911 71.1896 30.517C71.7768 30.1383 72.4704 29.9489 73.2706 29.9489C74.2886 29.9489 75.1148 30.2732 75.7493 30.9219C76.3885 31.5658 76.7081 32.4796 76.7081 33.6634V41H73.6896V34.2599C73.6896 33.6539 73.5286 33.1993 73.2067 32.8963C72.8847 32.5933 72.4822 32.4418 71.9993 32.4418C71.45 32.4418 71.0215 32.617 70.7138 32.9673C70.406 33.313 70.2521 33.7699 70.2521 34.3381V41H67.3189V34.196C67.3189 33.661 67.165 33.2348 66.8572 32.9176C66.5542 32.6004 66.1541 32.4418 65.657 32.4418C65.3208 32.4418 65.0178 32.527 64.7479 32.6974C64.4827 32.8632 64.272 33.0975 64.1158 33.4006C63.9595 33.6989 63.8814 34.0492 63.8814 34.4517V41H60.8558ZM84.0696 41.2131C82.9474 41.2131 81.9815 40.9858 81.1719 40.5312C80.367 40.072 79.7467 39.4233 79.3111 38.5852C78.8755 37.7424 78.6577 36.7457 78.6577 35.5952C78.6577 34.473 78.8755 33.4882 79.3111 32.6406C79.7467 31.7931 80.3598 31.1326 81.1506 30.6591C81.946 30.1856 82.8788 29.9489 83.9489 29.9489C84.6686 29.9489 85.3385 30.0649 85.9588 30.2969C86.5838 30.5241 87.1283 30.8674 87.5923 31.3267C88.0611 31.786 88.4257 32.3636 88.6861 33.0597C88.9465 33.7509 89.0767 34.5606 89.0767 35.4886V36.3196H79.8651V34.4446H86.2287C86.2287 34.009 86.134 33.6231 85.9446 33.2869C85.7552 32.9508 85.4924 32.688 85.1562 32.4986C84.8248 32.3045 84.4389 32.2074 83.9986 32.2074C83.5393 32.2074 83.1321 32.3139 82.777 32.527C82.4266 32.7353 82.152 33.017 81.9531 33.3722C81.7543 33.7225 81.6525 34.1132 81.6477 34.544V36.3267C81.6477 36.8665 81.7472 37.3329 81.946 37.7259C82.1496 38.1188 82.4361 38.4219 82.8054 38.6349C83.1747 38.848 83.6127 38.9545 84.1193 38.9545C84.4555 38.9545 84.7633 38.9072 85.0426 38.8125C85.322 38.7178 85.5611 38.5758 85.7599 38.3864C85.9588 38.197 86.1103 37.965 86.2145 37.6903L89.0128 37.875C88.8707 38.5473 88.5795 39.1345 88.1392 39.6364C87.7036 40.1335 87.1402 40.5218 86.4489 40.8011C85.7623 41.0758 84.9692 41.2131 84.0696 41.2131ZM94.0767 34.6932V41H91.0511V30.0909H93.9347V32.0156H94.0625C94.304 31.3812 94.7088 30.8793 95.277 30.5099C95.8452 30.1359 96.5341 29.9489 97.3438 29.9489C98.1013 29.9489 98.7618 30.1146 99.3253 30.446C99.8887 30.7775 100.327 31.2509 100.639 31.8665C100.952 32.4773 101.108 33.2064 101.108 34.054V41H98.0824V34.5938C98.0871 33.9261 97.9167 33.4053 97.571 33.0312C97.2254 32.6525 96.7495 32.4631 96.1435 32.4631C95.7363 32.4631 95.3764 32.5507 95.0639 32.7259C94.7562 32.901 94.5147 33.1567 94.3395 33.4929C94.169 33.8243 94.0814 34.2244 94.0767 34.6932ZM109.295 30.0909V32.3636H102.725V30.0909H109.295ZM104.217 27.4773H107.243V37.6477C107.243 37.9271 107.285 38.1449 107.37 38.3011C107.456 38.4527 107.574 38.5592 107.725 38.6207C107.882 38.6823 108.062 38.7131 108.265 38.7131C108.407 38.7131 108.549 38.7012 108.691 38.6776C108.833 38.6491 108.942 38.6278 109.018 38.6136L109.494 40.8651C109.342 40.9124 109.129 40.9669 108.855 41.0284C108.58 41.0947 108.246 41.1349 107.853 41.1491C107.124 41.1776 106.485 41.0805 105.936 40.858C105.391 40.6354 104.967 40.2898 104.664 39.821C104.361 39.3523 104.212 38.7604 104.217 38.0455V27.4773Z" fill="white" fill-opacity="0.95"/>
<mask id="path-6-inside-2_1637_12029" fill="white">
<path d="M256 0H512V68H256V0Z"/>
</mask>
<path d="M256 0H512V68H256V0Z" fill="#262626"/>
<path d="M512 68V69H513V68H512ZM511 0V68H513V0H511ZM512 67H256V69H512V67Z" fill="white" fill-opacity="0.3" mask="url(#path-6-inside-2_1637_12029)"/>
<path d="M292.42 41H287.264V26.4545H292.463C293.926 26.4545 295.186 26.7457 296.241 27.3281C297.297 27.9058 298.109 28.7367 298.678 29.821C299.25 30.9053 299.537 32.2027 299.537 33.7131C299.537 35.2282 299.25 36.5303 298.678 37.6193C298.109 38.7083 297.293 39.544 296.227 40.1264C295.167 40.7088 293.898 41 292.42 41ZM290.339 38.3651H292.293C293.202 38.3651 293.966 38.2041 294.587 37.8821C295.212 37.5554 295.68 37.0511 295.993 36.3693C296.31 35.6828 296.469 34.7973 296.469 33.7131C296.469 32.6383 296.31 31.7599 295.993 31.0781C295.68 30.3963 295.214 29.8944 294.594 29.5724C293.973 29.2505 293.209 29.0895 292.3 29.0895H290.339V38.3651ZM306.73 41.2131C305.608 41.2131 304.642 40.9858 303.832 40.5312C303.027 40.072 302.407 39.4233 301.971 38.5852C301.536 37.7424 301.318 36.7457 301.318 35.5952C301.318 34.473 301.536 33.4882 301.971 32.6406C302.407 31.7931 303.02 31.1326 303.811 30.6591C304.606 30.1856 305.539 29.9489 306.609 29.9489C307.329 29.9489 307.999 30.0649 308.619 30.2969C309.244 30.5241 309.788 30.8674 310.252 31.3267C310.721 31.786 311.086 32.3636 311.346 33.0597C311.607 33.7509 311.737 34.5606 311.737 35.4886V36.3196H302.525V34.4446H308.889C308.889 34.009 308.794 33.6231 308.605 33.2869C308.415 32.9508 308.153 32.688 307.816 32.4986C307.485 32.3045 307.099 32.2074 306.659 32.2074C306.199 32.2074 305.792 32.3139 305.437 32.527C305.087 32.7353 304.812 33.017 304.613 33.3722C304.414 33.7225 304.313 34.1132 304.308 34.544V36.3267C304.308 36.8665 304.407 37.3329 304.606 37.7259C304.81 38.1188 305.096 38.4219 305.466 38.6349C305.835 38.848 306.273 38.9545 306.779 38.9545C307.116 38.9545 307.423 38.9072 307.703 38.8125C307.982 38.7178 308.221 38.5758 308.42 38.3864C308.619 38.197 308.77 37.965 308.875 37.6903L311.673 37.875C311.531 38.5473 311.24 39.1345 310.799 39.6364C310.364 40.1335 309.8 40.5218 309.109 40.8011C308.422 41.0758 307.629 41.2131 306.73 41.2131ZM322.788 33.2017L320.018 33.3722C319.971 33.1354 319.869 32.9223 319.713 32.733C319.556 32.5388 319.35 32.3849 319.095 32.2713C318.844 32.1529 318.543 32.0938 318.193 32.0938C317.724 32.0938 317.329 32.1932 317.007 32.392C316.685 32.5862 316.524 32.8466 316.524 33.1733C316.524 33.4337 316.628 33.6539 316.836 33.8338C317.045 34.0137 317.402 34.1581 317.909 34.267L319.883 34.6648C320.944 34.8826 321.734 35.233 322.255 35.7159C322.776 36.1989 323.037 36.8333 323.037 37.6193C323.037 38.3343 322.826 38.9616 322.404 39.5014C321.988 40.0412 321.415 40.4626 320.686 40.7656C319.961 41.0639 319.126 41.2131 318.179 41.2131C316.734 41.2131 315.584 40.9124 314.727 40.3111C313.875 39.705 313.375 38.8812 313.228 37.8395L316.204 37.6832C316.294 38.1236 316.512 38.4598 316.858 38.6918C317.203 38.919 317.646 39.0327 318.186 39.0327C318.716 39.0327 319.142 38.9309 319.464 38.7273C319.791 38.5189 319.957 38.2514 319.961 37.9247C319.957 37.6501 319.841 37.4252 319.613 37.25C319.386 37.0701 319.036 36.9328 318.562 36.8381L316.673 36.4616C315.608 36.2486 314.815 35.8793 314.294 35.3537C313.778 34.8281 313.52 34.1581 313.52 33.3438C313.52 32.643 313.709 32.0393 314.088 31.5327C314.471 31.026 315.009 30.6354 315.7 30.3608C316.396 30.0862 317.21 29.9489 318.143 29.9489C319.521 29.9489 320.605 30.2401 321.396 30.8224C322.191 31.4048 322.655 32.1979 322.788 33.2017ZM324.942 41V30.0909H327.967V41H324.942ZM326.469 28.6847C326.019 28.6847 325.633 28.5355 325.311 28.2372C324.989 27.9342 324.828 27.572 324.828 27.1506C324.828 26.7339 324.989 26.3764 325.311 26.0781C325.633 25.7751 326.017 25.6236 326.462 25.6236C326.916 25.6236 327.302 25.7751 327.619 26.0781C327.941 26.3764 328.102 26.7339 328.102 27.1506C328.102 27.572 327.941 27.9342 327.619 28.2372C327.302 28.5355 326.919 28.6847 326.469 28.6847ZM335.306 45.2472C334.326 45.2472 333.485 45.1146 332.784 44.8494C332.088 44.5843 331.534 44.2268 331.123 43.777C330.711 43.3272 330.443 42.8277 330.32 42.2784L333.118 41.902C333.203 42.1009 333.338 42.2879 333.523 42.4631C333.708 42.643 333.952 42.7898 334.255 42.9034C334.562 43.017 334.936 43.0739 335.377 43.0739C336.035 43.0739 336.577 42.9176 337.003 42.6051C337.434 42.2926 337.65 41.7789 337.65 41.0639V39.0682H337.522C337.389 39.3712 337.19 39.6577 336.925 39.9276C336.66 40.1974 336.319 40.4176 335.902 40.5881C335.486 40.7585 334.989 40.8438 334.411 40.8438C333.592 40.8438 332.846 40.6544 332.174 40.2756C331.506 39.892 330.973 39.3073 330.576 38.5213C330.183 37.7306 329.986 36.7315 329.986 35.5241C329.986 34.2884 330.187 33.2562 330.59 32.4276C330.992 31.599 331.527 30.9787 332.195 30.5668C332.867 30.1548 333.604 29.9489 334.404 29.9489C335.015 29.9489 335.526 30.053 335.938 30.2614C336.35 30.465 336.681 30.7206 336.932 31.0284C337.188 31.3314 337.384 31.6297 337.522 31.9233H337.635V30.0909H340.64V41.1065C340.64 42.0156 340.412 42.7756 339.958 43.3864C339.503 44.0019 338.873 44.4659 338.069 44.7784C337.268 45.0909 336.347 45.2472 335.306 45.2472ZM335.37 38.571C335.857 38.571 336.269 38.4503 336.605 38.2088C336.946 37.9626 337.207 37.6122 337.387 37.1577C337.571 36.6984 337.664 36.1491 337.664 35.5099C337.664 34.8707 337.574 34.3168 337.394 33.848C337.214 33.3745 336.953 33.0076 336.613 32.7472C336.272 32.4867 335.857 32.3565 335.37 32.3565C334.873 32.3565 334.453 32.4915 334.113 32.7614C333.772 33.0265 333.514 33.3958 333.338 33.8693C333.163 34.3428 333.076 34.8897 333.076 35.5099C333.076 36.1397 333.163 36.6842 333.338 37.1435C333.518 37.598 333.776 37.9508 334.113 38.2017C334.453 38.4479 334.873 38.571 335.37 38.571ZM346.073 34.6932V41H343.047V30.0909H345.931V32.0156H346.059C346.3 31.3812 346.705 30.8793 347.273 30.5099C347.841 30.1359 348.53 29.9489 349.34 29.9489C350.097 29.9489 350.758 30.1146 351.321 30.446C351.885 30.7775 352.323 31.2509 352.635 31.8665C352.948 32.4773 353.104 33.2064 353.104 34.054V41H350.078V34.5938C350.083 33.9261 349.913 33.4053 349.567 33.0312C349.221 32.6525 348.746 32.4631 348.14 32.4631C347.732 32.4631 347.373 32.5507 347.06 32.7259C346.752 32.901 346.511 33.1567 346.336 33.4929C346.165 33.8243 346.078 34.2244 346.073 34.6932ZM362.681 41H359.386L364.407 26.4545H368.37L373.385 41H370.089L366.446 29.7784H366.332L362.681 41ZM362.475 35.2827H370.26V37.6832H362.475V35.2827ZM380.197 30.0909V32.3636H373.628V30.0909H380.197ZM375.119 27.4773H378.145V37.6477C378.145 37.9271 378.188 38.1449 378.273 38.3011C378.358 38.4527 378.476 38.5592 378.628 38.6207C378.784 38.6823 378.964 38.7131 379.168 38.7131C379.31 38.7131 379.452 38.7012 379.594 38.6776C379.736 38.6491 379.845 38.6278 379.92 38.6136L380.396 40.8651C380.245 40.9124 380.032 40.9669 379.757 41.0284C379.482 41.0947 379.149 41.1349 378.756 41.1491C378.027 41.1776 377.387 41.0805 376.838 40.858C376.294 40.6354 375.87 40.2898 375.567 39.821C375.264 39.3523 375.115 38.7604 375.119 38.0455V27.4773ZM387.971 30.0909V32.3636H381.401V30.0909H387.971ZM382.893 27.4773H385.918V37.6477C385.918 37.9271 385.961 38.1449 386.046 38.3011C386.131 38.4527 386.25 38.5592 386.401 38.6207C386.558 38.6823 386.737 38.7131 386.941 38.7131C387.083 38.7131 387.225 38.7012 387.367 38.6776C387.509 38.6491 387.618 38.6278 387.694 38.6136L388.17 40.8651C388.018 40.9124 387.805 40.9669 387.531 41.0284C387.256 41.0947 386.922 41.1349 386.529 41.1491C385.8 41.1776 385.161 41.0805 384.612 40.858C384.067 40.6354 383.643 40.2898 383.34 39.821C383.037 39.3523 382.888 38.7604 382.893 38.0455V27.4773ZM389.942 41V30.0909H392.875V31.9943H392.989C393.188 31.3172 393.521 30.8059 393.99 30.4602C394.459 30.1098 394.999 29.9347 395.609 29.9347C395.761 29.9347 395.924 29.9441 396.099 29.9631C396.275 29.982 396.429 30.008 396.561 30.0412V32.7259C396.419 32.6832 396.223 32.6454 395.972 32.6122C395.721 32.5791 395.491 32.5625 395.283 32.5625C394.838 32.5625 394.44 32.6596 394.089 32.8537C393.744 33.0431 393.469 33.3082 393.266 33.6491C393.067 33.9901 392.967 34.383 392.967 34.8281V41H389.942ZM398.125 41V30.0909H401.151V41H398.125ZM399.652 28.6847C399.203 28.6847 398.817 28.5355 398.495 28.2372C398.173 27.9342 398.012 27.572 398.012 27.1506C398.012 26.7339 398.173 26.3764 398.495 26.0781C398.817 25.7751 399.2 25.6236 399.645 25.6236C400.1 25.6236 400.486 25.7751 400.803 26.0781C401.125 26.3764 401.286 26.7339 401.286 27.1506C401.286 27.572 401.125 27.9342 400.803 28.2372C400.486 28.5355 400.102 28.6847 399.652 28.6847ZM403.631 41V26.4545H406.657V31.9233H406.749C406.882 31.6297 407.074 31.3314 407.325 31.0284C407.58 30.7206 407.912 30.465 408.319 30.2614C408.731 30.053 409.242 29.9489 409.853 29.9489C410.648 29.9489 411.382 30.1572 412.055 30.5739C412.727 30.9858 413.264 31.6084 413.667 32.4418C414.069 33.2704 414.271 34.3097 414.271 35.5597C414.271 36.7765 414.074 37.804 413.681 38.642C413.293 39.4754 412.763 40.1075 412.09 40.5384C411.423 40.9645 410.674 41.1776 409.846 41.1776C409.259 41.1776 408.759 41.0805 408.347 40.8864C407.94 40.6922 407.606 40.4484 407.346 40.1548C407.085 39.8565 406.887 39.5559 406.749 39.2528H406.614V41H403.631ZM406.593 35.5455C406.593 36.1941 406.683 36.7599 406.863 37.2429C407.043 37.7259 407.303 38.1023 407.644 38.3722C407.985 38.6373 408.399 38.7699 408.887 38.7699C409.379 38.7699 409.796 38.6349 410.137 38.3651C410.478 38.0904 410.736 37.7116 410.911 37.2287C411.091 36.741 411.181 36.1799 411.181 35.5455C411.181 34.9157 411.094 34.3617 410.918 33.8835C410.743 33.4053 410.485 33.0312 410.144 32.7614C409.803 32.4915 409.384 32.3565 408.887 32.3565C408.395 32.3565 407.978 32.4867 407.637 32.7472C407.301 33.0076 407.043 33.3769 406.863 33.8551C406.683 34.3333 406.593 34.8968 406.593 35.5455ZM423.285 36.3551V30.0909H426.311V41H423.406V39.0185H423.292C423.046 39.6577 422.636 40.1714 422.064 40.5597C421.495 40.9479 420.802 41.142 419.983 41.142C419.253 41.142 418.612 40.9763 418.058 40.6449C417.504 40.3134 417.071 39.8423 416.758 39.2315C416.45 38.6207 416.294 37.8892 416.289 37.0369V30.0909H419.315V36.4972C419.32 37.1411 419.493 37.6501 419.833 38.0241C420.174 38.3982 420.631 38.5852 421.204 38.5852C421.569 38.5852 421.91 38.5024 422.227 38.3366C422.544 38.1662 422.8 37.9152 422.994 37.5838C423.193 37.2524 423.29 36.8428 423.285 36.3551ZM434.533 30.0909V32.3636H427.964V30.0909H434.533ZM429.455 27.4773H432.481V37.6477C432.481 37.9271 432.523 38.1449 432.609 38.3011C432.694 38.4527 432.812 38.5592 432.964 38.6207C433.12 38.6823 433.3 38.7131 433.504 38.7131C433.646 38.7131 433.788 38.7012 433.93 38.6776C434.072 38.6491 434.181 38.6278 434.256 38.6136L434.732 40.8651C434.581 40.9124 434.368 40.9669 434.093 41.0284C433.818 41.0947 433.485 41.1349 433.092 41.1491C432.362 41.1776 431.723 41.0805 431.174 40.858C430.629 40.6354 430.206 40.2898 429.903 39.821C429.6 39.3523 429.451 38.7604 429.455 38.0455V27.4773ZM441.359 41.2131C440.237 41.2131 439.271 40.9858 438.461 40.5312C437.656 40.072 437.036 39.4233 436.6 38.5852C436.165 37.7424 435.947 36.7457 435.947 35.5952C435.947 34.473 436.165 33.4882 436.6 32.6406C437.036 31.7931 437.649 31.1326 438.44 30.6591C439.235 30.1856 440.168 29.9489 441.238 29.9489C441.958 29.9489 442.628 30.0649 443.248 30.2969C443.873 30.5241 444.417 30.8674 444.881 31.3267C445.35 31.786 445.715 32.3636 445.975 33.0597C446.236 33.7509 446.366 34.5606 446.366 35.4886V36.3196H437.154V34.4446H443.518C443.518 34.009 443.423 33.6231 443.234 33.2869C443.044 32.9508 442.781 32.688 442.445 32.4986C442.114 32.3045 441.728 32.2074 441.288 32.2074C440.828 32.2074 440.421 32.3139 440.066 32.527C439.716 32.7353 439.441 33.017 439.242 33.3722C439.043 33.7225 438.942 34.1132 438.937 34.544V36.3267C438.937 36.8665 439.036 37.3329 439.235 37.7259C439.439 38.1188 439.725 38.4219 440.094 38.6349C440.464 38.848 440.902 38.9545 441.408 38.9545C441.745 38.9545 442.052 38.9072 442.332 38.8125C442.611 38.7178 442.85 38.5758 443.049 38.3864C443.248 38.197 443.399 37.965 443.504 37.6903L446.302 37.875C446.16 38.5473 445.869 39.1345 445.428 39.6364C444.993 40.1335 444.429 40.5218 443.738 40.8011C443.051 41.0758 442.258 41.2131 441.359 41.2131Z" fill="white" fill-opacity="0.95"/>
<mask id="path-9-inside-3_1637_12029" fill="white">
<path d="M512 0H768V68H512V0Z"/>
</mask>
<path d="M512 0H768V68H512V0Z" fill="#262626"/>
<path d="M768 67H512V69H768V67Z" fill="white" fill-opacity="0.3" mask="url(#path-9-inside-3_1637_12029)"/>
<path d="M542.71 28.9901V26.4545H554.656V28.9901H550.203V41H547.163V28.9901H542.71ZM559.914 41.2131C558.81 41.2131 557.856 40.9787 557.051 40.5099C556.251 40.0365 555.633 39.3783 555.198 38.5355C554.762 37.688 554.544 36.7055 554.544 35.5881C554.544 34.4612 554.762 33.4763 555.198 32.6335C555.633 31.786 556.251 31.1278 557.051 30.6591C557.856 30.1856 558.81 29.9489 559.914 29.9489C561.017 29.9489 561.969 30.1856 562.769 30.6591C563.574 31.1278 564.194 31.786 564.63 32.6335C565.065 33.4763 565.283 34.4612 565.283 35.5881C565.283 36.7055 565.065 37.688 564.63 38.5355C564.194 39.3783 563.574 40.0365 562.769 40.5099C561.969 40.9787 561.017 41.2131 559.914 41.2131ZM559.928 38.8693C560.43 38.8693 560.849 38.7273 561.185 38.4432C561.521 38.1544 561.775 37.7614 561.945 37.2642C562.12 36.767 562.208 36.2012 562.208 35.5668C562.208 34.9323 562.12 34.3665 561.945 33.8693C561.775 33.3722 561.521 32.9792 561.185 32.6903C560.849 32.4015 560.43 32.2571 559.928 32.2571C559.421 32.2571 558.995 32.4015 558.65 32.6903C558.309 32.9792 558.051 33.3722 557.875 33.8693C557.705 34.3665 557.62 34.9323 557.62 35.5668C557.62 36.2012 557.705 36.767 557.875 37.2642C558.051 37.7614 558.309 38.1544 558.65 38.4432C558.995 38.7273 559.421 38.8693 559.928 38.8693ZM569.992 37.8608L569.999 34.2315H570.439L573.934 30.0909H577.407L572.712 35.5739H571.995L569.992 37.8608ZM567.25 41V26.4545H570.276V41H567.25ZM574.069 41L570.858 36.2486L572.875 34.1108L577.613 41H574.069ZM583.413 41.2131C582.291 41.2131 581.325 40.9858 580.516 40.5312C579.711 40.072 579.09 39.4233 578.655 38.5852C578.219 37.7424 578.001 36.7457 578.001 35.5952C578.001 34.473 578.219 33.4882 578.655 32.6406C579.09 31.7931 579.704 31.1326 580.494 30.6591C581.29 30.1856 582.223 29.9489 583.293 29.9489C584.012 29.9489 584.682 30.0649 585.303 30.2969C585.928 30.5241 586.472 30.8674 586.936 31.3267C587.405 31.786 587.769 32.3636 588.03 33.0597C588.29 33.7509 588.42 34.5606 588.42 35.4886V36.3196H579.209V34.4446H585.572C585.572 34.009 585.478 33.6231 585.288 33.2869C585.099 32.9508 584.836 32.688 584.5 32.4986C584.169 32.3045 583.783 32.2074 583.342 32.2074C582.883 32.2074 582.476 32.3139 582.121 32.527C581.77 32.7353 581.496 33.017 581.297 33.3722C581.098 33.7225 580.996 34.1132 580.991 34.544V36.3267C580.991 36.8665 581.091 37.3329 581.29 37.7259C581.493 38.1188 581.78 38.4219 582.149 38.6349C582.518 38.848 582.956 38.9545 583.463 38.9545C583.799 38.9545 584.107 38.9072 584.386 38.8125C584.666 38.7178 584.905 38.5758 585.104 38.3864C585.303 38.197 585.454 37.965 585.558 37.6903L588.357 37.875C588.214 38.5473 587.923 39.1345 587.483 39.6364C587.047 40.1335 586.484 40.5218 585.793 40.8011C585.106 41.0758 584.313 41.2131 583.413 41.2131ZM593.42 34.6932V41H590.395V30.0909H593.278V32.0156H593.406C593.648 31.3812 594.053 30.8793 594.621 30.5099C595.189 30.1359 595.878 29.9489 596.688 29.9489C597.445 29.9489 598.106 30.1146 598.669 30.446C599.232 30.7775 599.67 31.2509 599.983 31.8665C600.295 32.4773 600.452 33.2064 600.452 34.054V41H597.426V34.5938C597.431 33.9261 597.26 33.4053 596.915 33.0312C596.569 32.6525 596.093 32.4631 595.487 32.4631C595.08 32.4631 594.72 32.5507 594.408 32.7259C594.1 32.901 593.858 33.1567 593.683 33.4929C593.513 33.8243 593.425 34.2244 593.42 34.6932Z" fill="white" fill-opacity="0.95"/>
<rect width="768" height="68" transform="translate(0 68)" fill="#1A1A1A"/>
<path d="M256 136V137H257V136H256ZM255 68V136H257V68H255ZM256 135H0V137H256V135Z" fill="#707070" mask="url(#path-12-inside-4_1637_12029)"/>
<path d="M31.2784 96.3636H33.4091L37.1136 105.409H37.25L40.9545 96.3636H43.0852V108H41.4148V99.5795H41.3068L37.875 107.983H36.4886L33.0568 99.5739H32.9489V108H31.2784V96.3636ZM48.0412 108.193C47.4882 108.193 46.9882 108.091 46.5412 107.886C46.0942 107.678 45.7401 107.377 45.4787 106.983C45.2211 106.589 45.0923 106.106 45.0923 105.534C45.0923 105.042 45.187 104.636 45.3764 104.318C45.5658 104 45.8215 103.748 46.1435 103.562C46.4654 103.377 46.8253 103.237 47.223 103.142C47.6207 103.047 48.026 102.975 48.4389 102.926C48.9616 102.866 49.3859 102.816 49.7116 102.778C50.0374 102.737 50.2741 102.67 50.4219 102.58C50.5696 102.489 50.6435 102.341 50.6435 102.136V102.097C50.6435 101.6 50.5033 101.216 50.223 100.943C49.9465 100.67 49.5336 100.534 48.9844 100.534C48.4124 100.534 47.9616 100.661 47.6321 100.915C47.3063 101.165 47.081 101.443 46.956 101.75L45.3594 101.386C45.5488 100.856 45.8253 100.428 46.1889 100.102C46.5563 99.7727 46.9787 99.5341 47.456 99.3864C47.9332 99.2348 48.4351 99.1591 48.9616 99.1591C49.3101 99.1591 49.6795 99.2008 50.0696 99.2841C50.4635 99.3636 50.831 99.5114 51.1719 99.7273C51.5166 99.9432 51.7988 100.252 52.0185 100.653C52.2382 101.051 52.348 101.568 52.348 102.205V108H50.6889V106.807H50.6207C50.5109 107.027 50.3461 107.242 50.1264 107.455C49.9067 107.667 49.6245 107.843 49.2798 107.983C48.9351 108.123 48.5223 108.193 48.0412 108.193ZM48.4105 106.83C48.8802 106.83 49.2817 106.737 49.6151 106.551C49.9522 106.366 50.2079 106.123 50.3821 105.824C50.5601 105.521 50.6491 105.197 50.6491 104.852V103.727C50.5885 103.788 50.4711 103.845 50.2969 103.898C50.1264 103.947 49.9313 103.991 49.7116 104.028C49.492 104.062 49.2779 104.095 49.0696 104.125C48.8613 104.152 48.687 104.174 48.5469 104.193C48.2173 104.235 47.9162 104.305 47.6435 104.403C47.3745 104.502 47.1586 104.644 46.9957 104.83C46.8366 105.011 46.7571 105.254 46.7571 105.557C46.7571 105.977 46.9124 106.295 47.223 106.511C47.5336 106.723 47.9295 106.83 48.4105 106.83ZM54.6108 108V99.2727H56.2528V100.659H56.3438C56.5028 100.189 56.7831 99.8201 57.1847 99.5511C57.59 99.2784 58.0483 99.142 58.5597 99.142C58.6657 99.142 58.7907 99.1458 58.9347 99.1534C59.0824 99.161 59.1979 99.1705 59.2812 99.1818V100.807C59.2131 100.788 59.0919 100.767 58.9176 100.744C58.7434 100.718 58.5691 100.705 58.3949 100.705C57.9934 100.705 57.6354 100.79 57.321 100.96C57.0104 101.127 56.7642 101.36 56.5824 101.659C56.4006 101.955 56.3097 102.292 56.3097 102.67V108H54.6108ZM62.3139 105.04L62.3026 102.966H62.598L66.0753 99.2727H68.1094L64.1435 103.477H63.8764L62.3139 105.04ZM60.7514 108V96.3636H62.4503V108H60.7514ZM66.2628 108L63.1378 103.852L64.3082 102.665L68.348 108H66.2628ZM73.0597 108.176C72.1998 108.176 71.4593 107.992 70.8381 107.625C70.2206 107.254 69.7434 106.733 69.4062 106.062C69.0729 105.388 68.9062 104.598 68.9062 103.693C68.9062 102.799 69.0729 102.011 69.4062 101.33C69.7434 100.648 70.2131 100.116 70.8153 99.733C71.4214 99.3504 72.1297 99.1591 72.9403 99.1591C73.4328 99.1591 73.91 99.2405 74.3722 99.4034C74.8343 99.5663 75.2491 99.822 75.6165 100.17C75.9839 100.519 76.2737 100.972 76.4858 101.528C76.6979 102.081 76.804 102.754 76.804 103.545V104.148H69.8665V102.875H75.1392C75.1392 102.428 75.0483 102.032 74.8665 101.688C74.6847 101.339 74.429 101.064 74.0994 100.864C73.7737 100.663 73.3911 100.562 72.9517 100.562C72.4744 100.562 72.0578 100.68 71.7017 100.915C71.3494 101.146 71.0767 101.449 70.8835 101.824C70.6941 102.195 70.5994 102.598 70.5994 103.034V104.028C70.5994 104.612 70.7017 105.108 70.9062 105.517C71.1146 105.926 71.4044 106.239 71.7756 106.455C72.1468 106.667 72.5805 106.773 73.0767 106.773C73.3987 106.773 73.6922 106.727 73.9574 106.636C74.2225 106.542 74.4517 106.402 74.6449 106.216C74.8381 106.03 74.9858 105.801 75.0881 105.528L76.696 105.818C76.5672 106.292 76.3362 106.706 76.0028 107.062C75.6733 107.415 75.2585 107.689 74.7585 107.886C74.2623 108.08 73.696 108.176 73.0597 108.176ZM78.6889 108V99.2727H80.331V100.659H80.4219C80.581 100.189 80.8613 99.8201 81.2628 99.5511C81.6681 99.2784 82.1264 99.142 82.6378 99.142C82.7438 99.142 82.8688 99.1458 83.0128 99.1534C83.1605 99.161 83.276 99.1705 83.3594 99.1818V100.807C83.2912 100.788 83.17 100.767 82.9957 100.744C82.8215 100.718 82.6473 100.705 82.473 100.705C82.0715 100.705 81.7135 100.79 81.3991 100.96C81.0885 101.127 80.8423 101.36 80.6605 101.659C80.4787 101.955 80.3878 102.292 80.3878 102.67V108H78.6889Z" fill="white" fill-opacity="0.95"/>
<path d="M512 136V137H513V136H512ZM511 68V136H513V68H511ZM512 135H256V137H512V135Z" fill="#707070" mask="url(#path-15-inside-5_1637_12029)"/>
<path d="M293.773 99.2727C293.705 98.697 293.428 98.25 292.943 97.9318C292.458 97.6136 291.864 97.4545 291.159 97.4545C290.644 97.4545 290.193 97.5379 289.807 97.7045C289.424 97.8712 289.125 98.1004 288.909 98.392C288.697 98.6837 288.591 99.0152 288.591 99.3864C288.591 99.697 288.665 99.964 288.812 100.188C288.964 100.407 289.157 100.591 289.392 100.739C289.627 100.883 289.873 101.002 290.131 101.097C290.388 101.187 290.625 101.261 290.841 101.318L292.023 101.636C292.326 101.716 292.663 101.826 293.034 101.966C293.409 102.106 293.767 102.297 294.108 102.54C294.453 102.778 294.737 103.085 294.96 103.46C295.184 103.835 295.295 104.295 295.295 104.841C295.295 105.47 295.131 106.038 294.801 106.545C294.475 107.053 293.998 107.456 293.369 107.756C292.744 108.055 291.985 108.205 291.091 108.205C290.258 108.205 289.536 108.07 288.926 107.801C288.32 107.532 287.843 107.157 287.494 106.676C287.15 106.195 286.955 105.636 286.909 105H288.364C288.402 105.439 288.549 105.803 288.807 106.091C289.068 106.375 289.398 106.587 289.795 106.727C290.197 106.864 290.629 106.932 291.091 106.932C291.629 106.932 292.112 106.845 292.54 106.67C292.968 106.492 293.307 106.246 293.557 105.932C293.807 105.614 293.932 105.242 293.932 104.818C293.932 104.432 293.824 104.117 293.608 103.875C293.392 103.633 293.108 103.436 292.756 103.284C292.403 103.133 292.023 103 291.614 102.886L290.182 102.477C289.273 102.216 288.553 101.843 288.023 101.358C287.492 100.873 287.227 100.239 287.227 99.4545C287.227 98.803 287.403 98.2348 287.756 97.75C288.112 97.2614 288.589 96.8826 289.188 96.6136C289.79 96.3409 290.462 96.2045 291.205 96.2045C291.955 96.2045 292.621 96.339 293.205 96.608C293.788 96.8731 294.25 97.2367 294.591 97.6989C294.936 98.161 295.117 98.6856 295.136 99.2727H293.773ZM301.226 99.2727V100.409H296.703V99.2727H301.226ZM298.021 97.1818H299.362V105.5C299.362 105.879 299.417 106.163 299.527 106.352C299.641 106.538 299.785 106.663 299.959 106.727C300.137 106.788 300.324 106.818 300.521 106.818C300.669 106.818 300.79 106.811 300.885 106.795C300.98 106.777 301.055 106.761 301.112 106.75L301.385 107.955C301.294 107.989 301.167 108.023 301.004 108.057C300.841 108.095 300.635 108.114 300.385 108.114C300.006 108.114 299.635 108.032 299.271 107.869C298.911 107.706 298.612 107.458 298.374 107.125C298.139 106.792 298.021 106.371 298.021 105.864V97.1818ZM304.107 111.25C303.879 111.25 303.677 111.231 303.499 111.193C303.321 111.159 303.197 111.125 303.129 111.091L303.47 109.909C303.959 110.034 304.366 110.03 304.692 109.898C305.018 109.769 305.3 109.379 305.538 108.727L305.788 108.045L302.561 99.2727H304.016L306.425 106.227H306.516L308.925 99.2727L310.391 99.2955L306.675 109.273C306.508 109.716 306.302 110.083 306.055 110.375C305.809 110.67 305.523 110.89 305.197 111.034C304.875 111.178 304.512 111.25 304.107 111.25ZM313.506 96.3636V108H312.165V96.3636H313.506ZM319.621 108.182C318.78 108.182 318.054 107.996 317.445 107.625C316.839 107.25 316.371 106.727 316.041 106.057C315.715 105.383 315.553 104.598 315.553 103.705C315.553 102.811 315.715 102.023 316.041 101.341C316.371 100.655 316.829 100.121 317.416 99.7386C318.007 99.3523 318.696 99.1591 319.484 99.1591C319.939 99.1591 320.388 99.2348 320.831 99.3864C321.274 99.5379 321.678 99.7841 322.041 100.125C322.405 100.462 322.695 100.909 322.911 101.466C323.126 102.023 323.234 102.708 323.234 103.523V104.091H316.507V102.932H321.871C321.871 102.439 321.772 102 321.575 101.614C321.382 101.227 321.106 100.922 320.746 100.699C320.39 100.475 319.969 100.364 319.484 100.364C318.95 100.364 318.488 100.496 318.098 100.761C317.712 101.023 317.414 101.364 317.206 101.784C316.998 102.205 316.893 102.655 316.893 103.136V103.909C316.893 104.568 317.007 105.127 317.234 105.585C317.465 106.04 317.786 106.386 318.195 106.625C318.604 106.86 319.079 106.977 319.621 106.977C319.973 106.977 320.291 106.928 320.575 106.83C320.863 106.727 321.111 106.576 321.32 106.375C321.528 106.17 321.689 105.917 321.803 105.614L323.098 105.977C322.962 106.417 322.732 106.803 322.411 107.136C322.089 107.466 321.691 107.723 321.217 107.909C320.744 108.091 320.212 108.182 319.621 108.182ZM326.251 108.091C325.971 108.091 325.731 107.991 325.53 107.79C325.329 107.589 325.229 107.348 325.229 107.068C325.229 106.788 325.329 106.547 325.53 106.347C325.731 106.146 325.971 106.045 326.251 106.045C326.532 106.045 326.772 106.146 326.973 106.347C327.174 106.547 327.274 106.788 327.274 107.068C327.274 107.254 327.227 107.424 327.132 107.58C327.041 107.735 326.918 107.86 326.763 107.955C326.611 108.045 326.441 108.091 326.251 108.091ZM326.251 101.614C325.971 101.614 325.731 101.513 325.53 101.312C325.329 101.112 325.229 100.871 325.229 100.591C325.229 100.311 325.329 100.07 325.53 99.8693C325.731 99.6686 325.971 99.5682 326.251 99.5682C326.532 99.5682 326.772 99.6686 326.973 99.8693C327.174 100.07 327.274 100.311 327.274 100.591C327.274 100.777 327.227 100.947 327.132 101.102C327.041 101.258 326.918 101.383 326.763 101.477C326.611 101.568 326.441 101.614 326.251 101.614ZM340.726 99.2727C340.658 98.697 340.381 98.25 339.896 97.9318C339.411 97.6136 338.817 97.4545 338.112 97.4545C337.597 97.4545 337.146 97.5379 336.76 97.7045C336.377 97.8712 336.078 98.1004 335.862 98.392C335.65 98.6837 335.544 99.0152 335.544 99.3864C335.544 99.697 335.618 99.964 335.766 100.188C335.917 100.407 336.11 100.591 336.345 100.739C336.58 100.883 336.826 101.002 337.084 101.097C337.341 101.187 337.578 101.261 337.794 101.318L338.976 101.636C339.279 101.716 339.616 101.826 339.987 101.966C340.362 102.106 340.72 102.297 341.061 102.54C341.406 102.778 341.69 103.085 341.913 103.46C342.137 103.835 342.249 104.295 342.249 104.841C342.249 105.47 342.084 106.038 341.754 106.545C341.429 107.053 340.951 107.456 340.322 107.756C339.697 108.055 338.938 108.205 338.044 108.205C337.211 108.205 336.489 108.07 335.879 107.801C335.273 107.532 334.796 107.157 334.447 106.676C334.103 106.195 333.908 105.636 333.862 105H335.317C335.355 105.439 335.502 105.803 335.76 106.091C336.021 106.375 336.351 106.587 336.749 106.727C337.15 106.864 337.582 106.932 338.044 106.932C338.582 106.932 339.065 106.845 339.493 106.67C339.921 106.492 340.26 106.246 340.51 105.932C340.76 105.614 340.885 105.242 340.885 104.818C340.885 104.432 340.777 104.117 340.561 103.875C340.345 103.633 340.061 103.436 339.709 103.284C339.357 103.133 338.976 103 338.567 102.886L337.135 102.477C336.226 102.216 335.506 101.843 334.976 101.358C334.446 100.873 334.18 100.239 334.18 99.4545C334.18 98.803 334.357 98.2348 334.709 97.75C335.065 97.2614 335.542 96.8826 336.141 96.6136C336.743 96.3409 337.415 96.2045 338.158 96.2045C338.908 96.2045 339.574 96.339 340.158 96.608C340.741 96.8731 341.203 97.2367 341.544 97.6989C341.889 98.161 342.071 98.6856 342.089 99.2727H340.726ZM347.929 108.182C347.141 108.182 346.45 107.994 345.855 107.619C345.264 107.244 344.802 106.72 344.469 106.045C344.139 105.371 343.974 104.583 343.974 103.682C343.974 102.773 344.139 101.979 344.469 101.301C344.802 100.623 345.264 100.097 345.855 99.7216C346.45 99.3466 347.141 99.1591 347.929 99.1591C348.717 99.1591 349.406 99.3466 349.997 99.7216C350.592 100.097 351.054 100.623 351.384 101.301C351.717 101.979 351.884 102.773 351.884 103.682C351.884 104.583 351.717 105.371 351.384 106.045C351.054 106.72 350.592 107.244 349.997 107.619C349.406 107.994 348.717 108.182 347.929 108.182ZM347.929 106.977C348.527 106.977 349.02 106.824 349.406 106.517C349.793 106.21 350.079 105.807 350.264 105.307C350.45 104.807 350.543 104.265 350.543 103.682C350.543 103.098 350.45 102.555 350.264 102.051C350.079 101.547 349.793 101.14 349.406 100.83C349.02 100.519 348.527 100.364 347.929 100.364C347.33 100.364 346.838 100.519 346.452 100.83C346.065 101.14 345.779 101.547 345.594 102.051C345.408 102.555 345.315 103.098 345.315 103.682C345.315 104.265 345.408 104.807 345.594 105.307C345.779 105.807 346.065 106.21 346.452 106.517C346.838 106.824 347.33 106.977 347.929 106.977ZM355.271 96.3636V108H353.93V96.3636H355.271ZM357.727 108V99.2727H359.068V108H357.727ZM358.409 97.8182C358.148 97.8182 357.922 97.7292 357.733 97.5511C357.547 97.3731 357.455 97.1591 357.455 96.9091C357.455 96.6591 357.547 96.4451 357.733 96.267C357.922 96.089 358.148 96 358.409 96C358.67 96 358.894 96.089 359.08 96.267C359.269 96.4451 359.364 96.6591 359.364 96.9091C359.364 97.1591 359.269 97.3731 359.08 97.5511C358.894 97.7292 358.67 97.8182 358.409 97.8182ZM364.82 108.182C364.092 108.182 363.45 107.998 362.893 107.631C362.337 107.259 361.901 106.737 361.587 106.062C361.272 105.384 361.115 104.583 361.115 103.659C361.115 102.742 361.272 101.947 361.587 101.273C361.901 100.598 362.339 100.078 362.899 99.7102C363.46 99.3428 364.107 99.1591 364.842 99.1591C365.411 99.1591 365.859 99.2538 366.189 99.4432C366.522 99.6288 366.776 99.8409 366.95 100.08C367.128 100.314 367.267 100.508 367.365 100.659H367.479V96.3636H368.82V108H367.524V106.659H367.365C367.267 106.818 367.126 107.019 366.945 107.261C366.763 107.5 366.503 107.714 366.166 107.903C365.829 108.089 365.38 108.182 364.82 108.182ZM365.001 106.977C365.539 106.977 365.994 106.837 366.365 106.557C366.736 106.273 367.018 105.881 367.212 105.381C367.405 104.877 367.501 104.295 367.501 103.636C367.501 102.985 367.407 102.415 367.217 101.926C367.028 101.434 366.748 101.051 366.376 100.778C366.005 100.502 365.547 100.364 365.001 100.364C364.433 100.364 363.96 100.509 363.581 100.801C363.206 101.089 362.924 101.481 362.734 101.977C362.549 102.47 362.456 103.023 362.456 103.636C362.456 104.258 362.551 104.822 362.74 105.33C362.933 105.833 363.217 106.235 363.592 106.534C363.971 106.83 364.441 106.977 365.001 106.977Z" fill="white" fill-opacity="0.95"/>
<path d="M768 136V137H769V136H768ZM767 68V136H769V68H767ZM768 135H512V137H768V135Z" fill="white" fill-opacity="0.3" mask="url(#path-18-inside-6_1637_12029)"/>
<path d="M547.295 96.3636V108H545.886V97.8409H545.818L542.977 99.7273V98.2955L545.886 96.3636H547.295ZM550.665 111.273V99.2727H551.96V100.659H552.119C552.218 100.508 552.354 100.314 552.528 100.08C552.706 99.8409 552.96 99.6288 553.29 99.4432C553.623 99.2538 554.074 99.1591 554.642 99.1591C555.377 99.1591 556.025 99.3428 556.585 99.7102C557.146 100.078 557.583 100.598 557.898 101.273C558.212 101.947 558.369 102.742 558.369 103.659C558.369 104.583 558.212 105.384 557.898 106.062C557.583 106.737 557.148 107.259 556.591 107.631C556.034 107.998 555.392 108.182 554.665 108.182C554.104 108.182 553.655 108.089 553.318 107.903C552.981 107.714 552.722 107.5 552.54 107.261C552.358 107.019 552.218 106.818 552.119 106.659H552.006V111.273H550.665ZM551.983 103.636C551.983 104.295 552.08 104.877 552.273 105.381C552.466 105.881 552.748 106.273 553.119 106.557C553.491 106.837 553.945 106.977 554.483 106.977C555.044 106.977 555.511 106.83 555.886 106.534C556.265 106.235 556.549 105.833 556.739 105.33C556.932 104.822 557.028 104.258 557.028 103.636C557.028 103.023 556.934 102.47 556.744 101.977C556.559 101.481 556.277 101.089 555.898 100.801C555.523 100.509 555.051 100.364 554.483 100.364C553.938 100.364 553.479 100.502 553.108 100.778C552.737 101.051 552.456 101.434 552.267 101.926C552.078 102.415 551.983 102.985 551.983 103.636ZM561.055 99.2727L563.146 102.841L565.237 99.2727H566.783L563.964 103.636L566.783 108H565.237L563.146 104.614L561.055 108H559.51L562.283 103.636L559.51 99.2727H561.055Z" fill="white" fill-opacity="0.95"/>
<rect width="768" height="68" transform="translate(0 136)" fill="#1A1A1A"/>
<path d="M256 204V205H257V204H256ZM255 136V204H257V136H255ZM256 203H0V205H256V203Z" fill="#707070" mask="url(#path-21-inside-7_1637_12029)"/>
<path d="M31.2784 164.364H33.4091L37.1136 173.409H37.25L40.9545 164.364H43.0852V176H41.4148V167.58H41.3068L37.875 175.983H36.4886L33.0568 167.574H32.9489V176H31.2784V164.364ZM48.0412 176.193C47.4882 176.193 46.9882 176.091 46.5412 175.886C46.0942 175.678 45.7401 175.377 45.4787 174.983C45.2211 174.589 45.0923 174.106 45.0923 173.534C45.0923 173.042 45.187 172.636 45.3764 172.318C45.5658 172 45.8215 171.748 46.1435 171.562C46.4654 171.377 46.8253 171.237 47.223 171.142C47.6207 171.047 48.026 170.975 48.4389 170.926C48.9616 170.866 49.3859 170.816 49.7116 170.778C50.0374 170.737 50.2741 170.67 50.4219 170.58C50.5696 170.489 50.6435 170.341 50.6435 170.136V170.097C50.6435 169.6 50.5033 169.216 50.223 168.943C49.9465 168.67 49.5336 168.534 48.9844 168.534C48.4124 168.534 47.9616 168.661 47.6321 168.915C47.3063 169.165 47.081 169.443 46.956 169.75L45.3594 169.386C45.5488 168.856 45.8253 168.428 46.1889 168.102C46.5563 167.773 46.9787 167.534 47.456 167.386C47.9332 167.235 48.4351 167.159 48.9616 167.159C49.3101 167.159 49.6795 167.201 50.0696 167.284C50.4635 167.364 50.831 167.511 51.1719 167.727C51.5166 167.943 51.7988 168.252 52.0185 168.653C52.2382 169.051 52.348 169.568 52.348 170.205V176H50.6889V174.807H50.6207C50.5109 175.027 50.3461 175.242 50.1264 175.455C49.9067 175.667 49.6245 175.843 49.2798 175.983C48.9351 176.123 48.5223 176.193 48.0412 176.193ZM48.4105 174.83C48.8802 174.83 49.2817 174.737 49.6151 174.551C49.9522 174.366 50.2079 174.123 50.3821 173.824C50.5601 173.521 50.6491 173.197 50.6491 172.852V171.727C50.5885 171.788 50.4711 171.845 50.2969 171.898C50.1264 171.947 49.9313 171.991 49.7116 172.028C49.492 172.062 49.2779 172.095 49.0696 172.125C48.8613 172.152 48.687 172.174 48.5469 172.193C48.2173 172.235 47.9162 172.305 47.6435 172.403C47.3745 172.502 47.1586 172.644 46.9957 172.83C46.8366 173.011 46.7571 173.254 46.7571 173.557C46.7571 173.977 46.9124 174.295 47.223 174.511C47.5336 174.723 47.9295 174.83 48.4105 174.83ZM54.6108 176V167.273H56.2528V168.659H56.3438C56.5028 168.189 56.7831 167.82 57.1847 167.551C57.59 167.278 58.0483 167.142 58.5597 167.142C58.6657 167.142 58.7907 167.146 58.9347 167.153C59.0824 167.161 59.1979 167.17 59.2812 167.182V168.807C59.2131 168.788 59.0919 168.767 58.9176 168.744C58.7434 168.718 58.5691 168.705 58.3949 168.705C57.9934 168.705 57.6354 168.79 57.321 168.96C57.0104 169.127 56.7642 169.36 56.5824 169.659C56.4006 169.955 56.3097 170.292 56.3097 170.67V176H54.6108ZM62.3139 173.04L62.3026 170.966H62.598L66.0753 167.273H68.1094L64.1435 171.477H63.8764L62.3139 173.04ZM60.7514 176V164.364H62.4503V176H60.7514ZM66.2628 176L63.1378 171.852L64.3082 170.665L68.348 176H66.2628ZM73.0597 176.176C72.1998 176.176 71.4593 175.992 70.8381 175.625C70.2206 175.254 69.7434 174.733 69.4062 174.062C69.0729 173.388 68.9062 172.598 68.9062 171.693C68.9062 170.799 69.0729 170.011 69.4062 169.33C69.7434 168.648 70.2131 168.116 70.8153 167.733C71.4214 167.35 72.1297 167.159 72.9403 167.159C73.4328 167.159 73.91 167.241 74.3722 167.403C74.8343 167.566 75.2491 167.822 75.6165 168.17C75.9839 168.519 76.2737 168.972 76.4858 169.528C76.6979 170.081 76.804 170.754 76.804 171.545V172.148H69.8665V170.875H75.1392C75.1392 170.428 75.0483 170.032 74.8665 169.688C74.6847 169.339 74.429 169.064 74.0994 168.864C73.7737 168.663 73.3911 168.562 72.9517 168.562C72.4744 168.562 72.0578 168.68 71.7017 168.915C71.3494 169.146 71.0767 169.449 70.8835 169.824C70.6941 170.195 70.5994 170.598 70.5994 171.034V172.028C70.5994 172.612 70.7017 173.108 70.9062 173.517C71.1146 173.926 71.4044 174.239 71.7756 174.455C72.1468 174.667 72.5805 174.773 73.0767 174.773C73.3987 174.773 73.6922 174.727 73.9574 174.636C74.2225 174.542 74.4517 174.402 74.6449 174.216C74.8381 174.03 74.9858 173.801 75.0881 173.528L76.696 173.818C76.5672 174.292 76.3362 174.706 76.0028 175.062C75.6733 175.415 75.2585 175.689 74.7585 175.886C74.2623 176.08 73.696 176.176 73.0597 176.176ZM78.6889 176V167.273H80.331V168.659H80.4219C80.581 168.189 80.8613 167.82 81.2628 167.551C81.6681 167.278 82.1264 167.142 82.6378 167.142C82.7438 167.142 82.8688 167.146 83.0128 167.153C83.1605 167.161 83.276 167.17 83.3594 167.182V168.807C83.2912 168.788 83.17 168.767 82.9957 168.744C82.8215 168.718 82.6473 168.705 82.473 168.705C82.0715 168.705 81.7135 168.79 81.3991 168.96C81.0885 169.127 80.8423 169.36 80.6605 169.659C80.4787 169.955 80.3878 170.292 80.3878 170.67V176H78.6889Z" fill="white" fill-opacity="0.95"/>
<path d="M512 204V205H513V204H512ZM511 136V204H513V136H511ZM512 203H256V205H512V203Z" fill="#707070" mask="url(#path-24-inside-8_1637_12029)"/>
<path d="M293.773 167.273C293.705 166.697 293.428 166.25 292.943 165.932C292.458 165.614 291.864 165.455 291.159 165.455C290.644 165.455 290.193 165.538 289.807 165.705C289.424 165.871 289.125 166.1 288.909 166.392C288.697 166.684 288.591 167.015 288.591 167.386C288.591 167.697 288.665 167.964 288.812 168.188C288.964 168.407 289.157 168.591 289.392 168.739C289.627 168.883 289.873 169.002 290.131 169.097C290.388 169.187 290.625 169.261 290.841 169.318L292.023 169.636C292.326 169.716 292.663 169.826 293.034 169.966C293.409 170.106 293.767 170.297 294.108 170.54C294.453 170.778 294.737 171.085 294.96 171.46C295.184 171.835 295.295 172.295 295.295 172.841C295.295 173.47 295.131 174.038 294.801 174.545C294.475 175.053 293.998 175.456 293.369 175.756C292.744 176.055 291.985 176.205 291.091 176.205C290.258 176.205 289.536 176.07 288.926 175.801C288.32 175.532 287.843 175.157 287.494 174.676C287.15 174.195 286.955 173.636 286.909 173H288.364C288.402 173.439 288.549 173.803 288.807 174.091C289.068 174.375 289.398 174.587 289.795 174.727C290.197 174.864 290.629 174.932 291.091 174.932C291.629 174.932 292.112 174.845 292.54 174.67C292.968 174.492 293.307 174.246 293.557 173.932C293.807 173.614 293.932 173.242 293.932 172.818C293.932 172.432 293.824 172.117 293.608 171.875C293.392 171.633 293.108 171.436 292.756 171.284C292.403 171.133 292.023 171 291.614 170.886L290.182 170.477C289.273 170.216 288.553 169.843 288.023 169.358C287.492 168.873 287.227 168.239 287.227 167.455C287.227 166.803 287.403 166.235 287.756 165.75C288.112 165.261 288.589 164.883 289.188 164.614C289.79 164.341 290.462 164.205 291.205 164.205C291.955 164.205 292.621 164.339 293.205 164.608C293.788 164.873 294.25 165.237 294.591 165.699C294.936 166.161 295.117 166.686 295.136 167.273H293.773ZM301.226 167.273V168.409H296.703V167.273H301.226ZM298.021 165.182H299.362V173.5C299.362 173.879 299.417 174.163 299.527 174.352C299.641 174.538 299.785 174.663 299.959 174.727C300.137 174.788 300.324 174.818 300.521 174.818C300.669 174.818 300.79 174.811 300.885 174.795C300.98 174.777 301.055 174.761 301.112 174.75L301.385 175.955C301.294 175.989 301.167 176.023 301.004 176.057C300.841 176.095 300.635 176.114 300.385 176.114C300.006 176.114 299.635 176.032 299.271 175.869C298.911 175.706 298.612 175.458 298.374 175.125C298.139 174.792 298.021 174.371 298.021 173.864V165.182ZM304.107 179.25C303.879 179.25 303.677 179.231 303.499 179.193C303.321 179.159 303.197 179.125 303.129 179.091L303.47 177.909C303.959 178.034 304.366 178.03 304.692 177.898C305.018 177.769 305.3 177.379 305.538 176.727L305.788 176.045L302.561 167.273H304.016L306.425 174.227H306.516L308.925 167.273L310.391 167.295L306.675 177.273C306.508 177.716 306.302 178.083 306.055 178.375C305.809 178.67 305.523 178.89 305.197 179.034C304.875 179.178 304.512 179.25 304.107 179.25ZM313.506 164.364V176H312.165V164.364H313.506ZM319.621 176.182C318.78 176.182 318.054 175.996 317.445 175.625C316.839 175.25 316.371 174.727 316.041 174.057C315.715 173.383 315.553 172.598 315.553 171.705C315.553 170.811 315.715 170.023 316.041 169.341C316.371 168.655 316.829 168.121 317.416 167.739C318.007 167.352 318.696 167.159 319.484 167.159C319.939 167.159 320.388 167.235 320.831 167.386C321.274 167.538 321.678 167.784 322.041 168.125C322.405 168.462 322.695 168.909 322.911 169.466C323.126 170.023 323.234 170.708 323.234 171.523V172.091H316.507V170.932H321.871C321.871 170.439 321.772 170 321.575 169.614C321.382 169.227 321.106 168.922 320.746 168.699C320.39 168.475 319.969 168.364 319.484 168.364C318.95 168.364 318.488 168.496 318.098 168.761C317.712 169.023 317.414 169.364 317.206 169.784C316.998 170.205 316.893 170.655 316.893 171.136V171.909C316.893 172.568 317.007 173.127 317.234 173.585C317.465 174.04 317.786 174.386 318.195 174.625C318.604 174.86 319.079 174.977 319.621 174.977C319.973 174.977 320.291 174.928 320.575 174.83C320.863 174.727 321.111 174.576 321.32 174.375C321.528 174.17 321.689 173.917 321.803 173.614L323.098 173.977C322.962 174.417 322.732 174.803 322.411 175.136C322.089 175.466 321.691 175.723 321.217 175.909C320.744 176.091 320.212 176.182 319.621 176.182ZM326.251 176.091C325.971 176.091 325.731 175.991 325.53 175.79C325.329 175.589 325.229 175.348 325.229 175.068C325.229 174.788 325.329 174.547 325.53 174.347C325.731 174.146 325.971 174.045 326.251 174.045C326.532 174.045 326.772 174.146 326.973 174.347C327.174 174.547 327.274 174.788 327.274 175.068C327.274 175.254 327.227 175.424 327.132 175.58C327.041 175.735 326.918 175.86 326.763 175.955C326.611 176.045 326.441 176.091 326.251 176.091ZM326.251 169.614C325.971 169.614 325.731 169.513 325.53 169.312C325.329 169.112 325.229 168.871 325.229 168.591C325.229 168.311 325.329 168.07 325.53 167.869C325.731 167.669 325.971 167.568 326.251 167.568C326.532 167.568 326.772 167.669 326.973 167.869C327.174 168.07 327.274 168.311 327.274 168.591C327.274 168.777 327.227 168.947 327.132 169.102C327.041 169.258 326.918 169.383 326.763 169.477C326.611 169.568 326.441 169.614 326.251 169.614ZM340.726 167.273C340.658 166.697 340.381 166.25 339.896 165.932C339.411 165.614 338.817 165.455 338.112 165.455C337.597 165.455 337.146 165.538 336.76 165.705C336.377 165.871 336.078 166.1 335.862 166.392C335.65 166.684 335.544 167.015 335.544 167.386C335.544 167.697 335.618 167.964 335.766 168.188C335.917 168.407 336.11 168.591 336.345 168.739C336.58 168.883 336.826 169.002 337.084 169.097C337.341 169.187 337.578 169.261 337.794 169.318L338.976 169.636C339.279 169.716 339.616 169.826 339.987 169.966C340.362 170.106 340.72 170.297 341.061 170.54C341.406 170.778 341.69 171.085 341.913 171.46C342.137 171.835 342.249 172.295 342.249 172.841C342.249 173.47 342.084 174.038 341.754 174.545C341.429 175.053 340.951 175.456 340.322 175.756C339.697 176.055 338.938 176.205 338.044 176.205C337.211 176.205 336.489 176.07 335.879 175.801C335.273 175.532 334.796 175.157 334.447 174.676C334.103 174.195 333.908 173.636 333.862 173H335.317C335.355 173.439 335.502 173.803 335.76 174.091C336.021 174.375 336.351 174.587 336.749 174.727C337.15 174.864 337.582 174.932 338.044 174.932C338.582 174.932 339.065 174.845 339.493 174.67C339.921 174.492 340.26 174.246 340.51 173.932C340.76 173.614 340.885 173.242 340.885 172.818C340.885 172.432 340.777 172.117 340.561 171.875C340.345 171.633 340.061 171.436 339.709 171.284C339.357 171.133 338.976 171 338.567 170.886L337.135 170.477C336.226 170.216 335.506 169.843 334.976 169.358C334.446 168.873 334.18 168.239 334.18 167.455C334.18 166.803 334.357 166.235 334.709 165.75C335.065 165.261 335.542 164.883 336.141 164.614C336.743 164.341 337.415 164.205 338.158 164.205C338.908 164.205 339.574 164.339 340.158 164.608C340.741 164.873 341.203 165.237 341.544 165.699C341.889 166.161 342.071 166.686 342.089 167.273H340.726ZM348.179 167.273V168.409H343.656V167.273H348.179ZM344.974 165.182H346.315V173.5C346.315 173.879 346.37 174.163 346.48 174.352C346.594 174.538 346.738 174.663 346.912 174.727C347.09 174.788 347.277 174.818 347.474 174.818C347.622 174.818 347.743 174.811 347.838 174.795C347.933 174.777 348.009 174.761 348.065 174.75L348.338 175.955C348.247 175.989 348.12 176.023 347.957 176.057C347.795 176.095 347.588 176.114 347.338 176.114C346.959 176.114 346.588 176.032 346.224 175.869C345.865 175.706 345.565 175.458 345.327 175.125C345.092 174.792 344.974 174.371 344.974 173.864V165.182ZM350.196 176V167.273H351.491V168.591H351.582C351.741 168.159 352.029 167.809 352.446 167.54C352.863 167.271 353.332 167.136 353.855 167.136C353.954 167.136 354.077 167.138 354.224 167.142C354.372 167.146 354.484 167.152 354.56 167.159V168.523C354.514 168.511 354.41 168.494 354.247 168.472C354.088 168.445 353.92 168.432 353.741 168.432C353.317 168.432 352.938 168.521 352.605 168.699C352.276 168.873 352.014 169.116 351.821 169.426C351.632 169.733 351.537 170.083 351.537 170.477V176H350.196ZM356.149 176V167.273H357.49V176H356.149ZM356.831 165.818C356.57 165.818 356.344 165.729 356.155 165.551C355.969 165.373 355.876 165.159 355.876 164.909C355.876 164.659 355.969 164.445 356.155 164.267C356.344 164.089 356.57 164 356.831 164C357.092 164 357.316 164.089 357.501 164.267C357.691 164.445 357.786 164.659 357.786 164.909C357.786 165.159 357.691 165.373 357.501 165.551C357.316 165.729 357.092 165.818 356.831 165.818ZM359.946 179.273V167.273H361.241V168.659H361.401C361.499 168.508 361.635 168.314 361.81 168.08C361.988 167.841 362.241 167.629 362.571 167.443C362.904 167.254 363.355 167.159 363.923 167.159C364.658 167.159 365.306 167.343 365.866 167.71C366.427 168.078 366.865 168.598 367.179 169.273C367.493 169.947 367.651 170.742 367.651 171.659C367.651 172.583 367.493 173.384 367.179 174.062C366.865 174.737 366.429 175.259 365.872 175.631C365.315 175.998 364.673 176.182 363.946 176.182C363.385 176.182 362.937 176.089 362.599 175.903C362.262 175.714 362.003 175.5 361.821 175.261C361.639 175.019 361.499 174.818 361.401 174.659H361.287V179.273H359.946ZM361.264 171.636C361.264 172.295 361.361 172.877 361.554 173.381C361.747 173.881 362.029 174.273 362.401 174.557C362.772 174.837 363.226 174.977 363.764 174.977C364.325 174.977 364.793 174.83 365.168 174.534C365.546 174.235 365.83 173.833 366.02 173.33C366.213 172.822 366.31 172.258 366.31 171.636C366.31 171.023 366.215 170.47 366.026 169.977C365.84 169.481 365.558 169.089 365.179 168.801C364.804 168.509 364.332 168.364 363.764 168.364C363.219 168.364 362.76 168.502 362.389 168.778C362.018 169.051 361.738 169.434 361.548 169.926C361.359 170.415 361.264 170.985 361.264 171.636ZM373.355 176.182C372.514 176.182 371.789 175.996 371.179 175.625C370.573 175.25 370.105 174.727 369.776 174.057C369.45 173.383 369.287 172.598 369.287 171.705C369.287 170.811 369.45 170.023 369.776 169.341C370.105 168.655 370.563 168.121 371.151 167.739C371.741 167.352 372.431 167.159 373.219 167.159C373.673 167.159 374.122 167.235 374.565 167.386C375.009 167.538 375.412 167.784 375.776 168.125C376.139 168.462 376.429 168.909 376.645 169.466C376.861 170.023 376.969 170.708 376.969 171.523V172.091H370.241V170.932H375.605C375.605 170.439 375.507 170 375.31 169.614C375.116 169.227 374.84 168.922 374.48 168.699C374.124 168.475 373.704 168.364 373.219 168.364C372.685 168.364 372.223 168.496 371.832 168.761C371.446 169.023 371.149 169.364 370.94 169.784C370.732 170.205 370.628 170.655 370.628 171.136V171.909C370.628 172.568 370.741 173.127 370.969 173.585C371.2 174.04 371.52 174.386 371.929 174.625C372.338 174.86 372.813 174.977 373.355 174.977C373.707 174.977 374.026 174.928 374.31 174.83C374.598 174.727 374.846 174.576 375.054 174.375C375.262 174.17 375.423 173.917 375.537 173.614L376.832 173.977C376.696 174.417 376.467 174.803 376.145 175.136C375.823 175.466 375.425 175.723 374.952 175.909C374.478 176.091 373.946 176.182 373.355 176.182ZM382.304 176.182C381.577 176.182 380.935 175.998 380.378 175.631C379.821 175.259 379.385 174.737 379.071 174.062C378.757 173.384 378.599 172.583 378.599 171.659C378.599 170.742 378.757 169.947 379.071 169.273C379.385 168.598 379.823 168.078 380.384 167.71C380.944 167.343 381.592 167.159 382.327 167.159C382.895 167.159 383.344 167.254 383.673 167.443C384.007 167.629 384.26 167.841 384.435 168.08C384.613 168.314 384.751 168.508 384.849 168.659H384.963V164.364H386.304V176H385.009V174.659H384.849C384.751 174.818 384.611 175.019 384.429 175.261C384.247 175.5 383.988 175.714 383.651 175.903C383.313 176.089 382.865 176.182 382.304 176.182ZM382.486 174.977C383.024 174.977 383.478 174.837 383.849 174.557C384.221 174.273 384.503 173.881 384.696 173.381C384.889 172.877 384.986 172.295 384.986 171.636C384.986 170.985 384.891 170.415 384.702 169.926C384.512 169.434 384.232 169.051 383.861 168.778C383.49 168.502 383.031 168.364 382.486 168.364C381.918 168.364 381.444 168.509 381.065 168.801C380.69 169.089 380.408 169.481 380.219 169.977C380.033 170.47 379.94 171.023 379.94 171.636C379.94 172.258 380.035 172.822 380.224 173.33C380.418 173.833 380.702 174.235 381.077 174.534C381.455 174.83 381.925 174.977 382.486 174.977Z" fill="white" fill-opacity="0.95"/>
<path d="M768 204V205H769V204H768ZM767 136V204H769V136H767ZM768 203H512V205H768V203Z" fill="white" fill-opacity="0.3" mask="url(#path-27-inside-9_1637_12029)"/>
<path d="M543.205 176V174.977L547.045 170.773C547.496 170.28 547.867 169.852 548.159 169.489C548.451 169.121 548.667 168.777 548.807 168.455C548.951 168.129 549.023 167.788 549.023 167.432C549.023 167.023 548.924 166.669 548.727 166.369C548.534 166.07 548.269 165.839 547.932 165.676C547.595 165.513 547.216 165.432 546.795 165.432C546.348 165.432 545.958 165.525 545.625 165.71C545.295 165.892 545.04 166.148 544.858 166.477C544.68 166.807 544.591 167.193 544.591 167.636H543.25C543.25 166.955 543.407 166.356 543.722 165.841C544.036 165.326 544.464 164.924 545.006 164.636C545.551 164.348 546.163 164.205 546.841 164.205C547.523 164.205 548.127 164.348 548.653 164.636C549.18 164.924 549.593 165.312 549.892 165.801C550.191 166.29 550.341 166.833 550.341 167.432C550.341 167.86 550.263 168.278 550.108 168.688C549.956 169.093 549.691 169.545 549.312 170.045C548.938 170.542 548.417 171.148 547.75 171.864L545.136 174.659V174.75H550.545V176H543.205ZM552.915 179.273V167.273H554.21V168.659H554.369C554.468 168.508 554.604 168.314 554.778 168.08C554.956 167.841 555.21 167.629 555.54 167.443C555.873 167.254 556.324 167.159 556.892 167.159C557.627 167.159 558.275 167.343 558.835 167.71C559.396 168.078 559.833 168.598 560.148 169.273C560.462 169.947 560.619 170.742 560.619 171.659C560.619 172.583 560.462 173.384 560.148 174.062C559.833 174.737 559.398 175.259 558.841 175.631C558.284 175.998 557.642 176.182 556.915 176.182C556.354 176.182 555.905 176.089 555.568 175.903C555.231 175.714 554.972 175.5 554.79 175.261C554.608 175.019 554.468 174.818 554.369 174.659H554.256V179.273H552.915ZM554.233 171.636C554.233 172.295 554.33 172.877 554.523 173.381C554.716 173.881 554.998 174.273 555.369 174.557C555.741 174.837 556.195 174.977 556.733 174.977C557.294 174.977 557.761 174.83 558.136 174.534C558.515 174.235 558.799 173.833 558.989 173.33C559.182 172.822 559.278 172.258 559.278 171.636C559.278 171.023 559.184 170.47 558.994 169.977C558.809 169.481 558.527 169.089 558.148 168.801C557.773 168.509 557.301 168.364 556.733 168.364C556.188 168.364 555.729 168.502 555.358 168.778C554.987 169.051 554.706 169.434 554.517 169.926C554.328 170.415 554.233 170.985 554.233 171.636ZM563.305 167.273L565.396 170.841L567.487 167.273H569.033L566.214 171.636L569.033 176H567.487L565.396 172.614L563.305 176H561.76L564.533 171.636L561.76 167.273H563.305Z" fill="white" fill-opacity="0.95"/>
</g>
<rect x="0.5" y="0.5" width="767" height="203" rx="23.5" stroke="white" stroke-opacity="0.3"/>
<defs>
<clipPath id="clip0_1637_12029">
<rect width="768" height="204" rx="24" fill="white"/>
</clipPath>
</defs>
</svg>
