<svg width="1300" height="68" viewBox="0 0 1300 68" fill="none" xmlns="http://www.w3.org/2000/svg">
<rect width="1300" height="68" fill="#1A1A1A"/>
<mask id="path-1-inside-1_1637_11629" fill="white">
<path d="M0 0H433.333V68H0V0Z"/>
</mask>
<path d="M433.333 68V69H434.333V68H433.333ZM432.333 0V68H434.333V0H432.333ZM433.333 67H0V69H433.333V67Z" fill="#707070" mask="url(#path-1-inside-1_1637_11629)"/>
<path d="M31.2784 40V28.3636H33.0341V33.4205H38.8352V28.3636H40.5966V40H38.8352V34.9261H33.0341V40H31.2784ZM46.6932 40.1761C45.875 40.1761 45.161 39.9886 44.5511 39.6136C43.9413 39.2386 43.4678 38.714 43.1307 38.0398C42.7936 37.3655 42.625 36.5777 42.625 35.6761C42.625 34.7708 42.7936 33.9792 43.1307 33.3011C43.4678 32.6231 43.9413 32.0966 44.5511 31.7216C45.161 31.3466 45.875 31.1591 46.6932 31.1591C47.5114 31.1591 48.2254 31.3466 48.8352 31.7216C49.4451 32.0966 49.9186 32.6231 50.2557 33.3011C50.5928 33.9792 50.7614 34.7708 50.7614 35.6761C50.7614 36.5777 50.5928 37.3655 50.2557 38.0398C49.9186 38.714 49.4451 39.2386 48.8352 39.6136C48.2254 39.9886 47.5114 40.1761 46.6932 40.1761ZM46.6989 38.75C47.2292 38.75 47.6686 38.6098 48.017 38.3295C48.3655 38.0492 48.6231 37.6761 48.7898 37.2102C48.9602 36.7443 49.0455 36.2311 49.0455 35.6705C49.0455 35.1136 48.9602 34.6023 48.7898 34.1364C48.6231 33.6667 48.3655 33.2898 48.017 33.0057C47.6686 32.7216 47.2292 32.5795 46.6989 32.5795C46.1648 32.5795 45.7216 32.7216 45.3693 33.0057C45.0208 33.2898 44.7614 33.6667 44.5909 34.1364C44.4242 34.6023 44.3409 35.1136 44.3409 35.6705C44.3409 36.2311 44.4242 36.7443 44.5909 37.2102C44.7614 37.6761 45.0208 38.0492 45.3693 38.3295C45.7216 38.6098 46.1648 38.75 46.6989 38.75ZM52.6577 40V31.2727H54.2997V32.6591H54.3906C54.5497 32.1894 54.83 31.8201 55.2315 31.5511C55.6368 31.2784 56.0952 31.142 56.6065 31.142C56.7126 31.142 56.8376 31.1458 56.9815 31.1534C57.1293 31.161 57.2448 31.1705 57.3281 31.1818V32.8068C57.2599 32.7879 57.1387 32.767 56.9645 32.7443C56.7902 32.7178 56.616 32.7045 56.4418 32.7045C56.0402 32.7045 55.6823 32.7898 55.3679 32.9602C55.0573 33.1269 54.8111 33.3598 54.6293 33.6591C54.4474 33.9545 54.3565 34.2917 54.3565 34.6705V40H52.6577ZM58.7983 40V31.2727H60.4972V40H58.7983ZM59.6562 29.9261C59.3608 29.9261 59.107 29.8277 58.8949 29.6307C58.6866 29.4299 58.5824 29.1913 58.5824 28.9148C58.5824 28.6345 58.6866 28.3958 58.8949 28.1989C59.107 27.9981 59.3608 27.8977 59.6562 27.8977C59.9517 27.8977 60.2036 27.9981 60.4119 28.1989C60.6241 28.3958 60.7301 28.6345 60.7301 28.9148C60.7301 29.1913 60.6241 29.4299 60.4119 29.6307C60.2036 29.8277 59.9517 29.9261 59.6562 29.9261ZM62.6009 40V38.8352L67.3281 32.8295V32.75H62.7543V31.2727H69.4474V32.5114L64.902 38.4432V38.5227H69.6065V40H62.6009ZM75.0369 40.1761C74.2188 40.1761 73.5047 39.9886 72.8949 39.6136C72.285 39.2386 71.8116 38.714 71.4744 38.0398C71.1373 37.3655 70.9688 36.5777 70.9688 35.6761C70.9688 34.7708 71.1373 33.9792 71.4744 33.3011C71.8116 32.6231 72.285 32.0966 72.8949 31.7216C73.5047 31.3466 74.2188 31.1591 75.0369 31.1591C75.8551 31.1591 76.5691 31.3466 77.179 31.7216C77.7888 32.0966 78.2623 32.6231 78.5994 33.3011C78.9366 33.9792 79.1051 34.7708 79.1051 35.6761C79.1051 36.5777 78.9366 37.3655 78.5994 38.0398C78.2623 38.714 77.7888 39.2386 77.179 39.6136C76.5691 39.9886 75.8551 40.1761 75.0369 40.1761ZM75.0426 38.75C75.5729 38.75 76.0123 38.6098 76.3608 38.3295C76.7093 38.0492 76.9669 37.6761 77.1335 37.2102C77.304 36.7443 77.3892 36.2311 77.3892 35.6705C77.3892 35.1136 77.304 34.6023 77.1335 34.1364C76.9669 33.6667 76.7093 33.2898 76.3608 33.0057C76.0123 32.7216 75.5729 32.5795 75.0426 32.5795C74.5085 32.5795 74.0653 32.7216 73.7131 33.0057C73.3646 33.2898 73.1051 33.6667 72.9347 34.1364C72.768 34.6023 72.6847 35.1136 72.6847 35.6705C72.6847 36.2311 72.768 36.7443 72.9347 37.2102C73.1051 37.6761 73.3646 38.0492 73.7131 38.3295C74.0653 38.6098 74.5085 38.75 75.0426 38.75ZM82.7003 34.8182V40H81.0014V31.2727H82.6321V32.6932H82.7401C82.9408 32.2311 83.2552 31.8598 83.6832 31.5795C84.1151 31.2992 84.6586 31.1591 85.3139 31.1591C85.9086 31.1591 86.4295 31.2841 86.8764 31.5341C87.3234 31.7803 87.67 32.1477 87.9162 32.6364C88.1624 33.125 88.2855 33.7292 88.2855 34.4489V40H86.5866V34.6534C86.5866 34.0208 86.4219 33.5265 86.0923 33.1705C85.7628 32.8106 85.3101 32.6307 84.7344 32.6307C84.3404 32.6307 83.9901 32.7159 83.6832 32.8864C83.3802 33.0568 83.1397 33.3068 82.9616 33.6364C82.7874 33.9621 82.7003 34.3561 82.7003 34.8182ZM94.6378 31.2727V32.6364H89.8707V31.2727H94.6378ZM91.1491 29.1818H92.848V37.4375C92.848 37.767 92.8973 38.0152 92.9957 38.1818C93.0942 38.3447 93.2211 38.4564 93.3764 38.517C93.5355 38.5739 93.7079 38.6023 93.8935 38.6023C94.0298 38.6023 94.1491 38.5928 94.2514 38.5739C94.3537 38.5549 94.4332 38.5398 94.4901 38.5284L94.7969 39.9318C94.6984 39.9697 94.5582 40.0076 94.3764 40.0455C94.1946 40.0871 93.9673 40.1098 93.6946 40.1136C93.2476 40.1212 92.831 40.0417 92.4446 39.875C92.0582 39.7083 91.7457 39.4508 91.5071 39.1023C91.2685 38.7538 91.1491 38.3163 91.1491 37.7898V29.1818ZM99.0568 40.1932C98.5038 40.1932 98.0038 40.0909 97.5568 39.8864C97.1098 39.678 96.7557 39.3769 96.4943 38.983C96.2367 38.589 96.108 38.1061 96.108 37.5341C96.108 37.0417 96.2027 36.6364 96.392 36.3182C96.5814 36 96.8371 35.7481 97.1591 35.5625C97.4811 35.3769 97.8409 35.2367 98.2386 35.142C98.6364 35.0473 99.0417 34.9754 99.4545 34.9261C99.9773 34.8655 100.402 34.8163 100.727 34.7784C101.053 34.7367 101.29 34.6705 101.438 34.5795C101.585 34.4886 101.659 34.3409 101.659 34.1364V34.0966C101.659 33.6004 101.519 33.2159 101.239 32.9432C100.962 32.6705 100.549 32.5341 100 32.5341C99.428 32.5341 98.9773 32.661 98.6477 32.9148C98.322 33.1648 98.0966 33.4432 97.9716 33.75L96.375 33.3864C96.5644 32.8561 96.8409 32.428 97.2045 32.1023C97.572 31.7727 97.9943 31.5341 98.4716 31.3864C98.9489 31.2348 99.4508 31.1591 99.9773 31.1591C100.326 31.1591 100.695 31.2008 101.085 31.2841C101.479 31.3636 101.847 31.5114 102.188 31.7273C102.532 31.9432 102.814 32.2519 103.034 32.6534C103.254 33.0511 103.364 33.5682 103.364 34.2045V40H101.705V38.8068H101.636C101.527 39.0265 101.362 39.2424 101.142 39.4545C100.922 39.6667 100.64 39.8428 100.295 39.983C99.9508 40.1231 99.5379 40.1932 99.0568 40.1932ZM99.4261 38.8295C99.8958 38.8295 100.297 38.7367 100.631 38.5511C100.968 38.3655 101.223 38.1231 101.398 37.8239C101.576 37.5208 101.665 37.197 101.665 36.8523V35.7273C101.604 35.7879 101.487 35.8447 101.312 35.8977C101.142 35.947 100.947 35.9905 100.727 36.0284C100.508 36.0625 100.294 36.0947 100.085 36.125C99.8769 36.1515 99.7027 36.1742 99.5625 36.1932C99.233 36.2348 98.9318 36.3049 98.6591 36.4034C98.3902 36.5019 98.1742 36.6439 98.0114 36.8295C97.8523 37.0114 97.7727 37.2538 97.7727 37.5568C97.7727 37.9773 97.928 38.2955 98.2386 38.5114C98.5492 38.7235 98.9451 38.8295 99.4261 38.8295ZM107.325 28.3636V40H105.626V28.3636H107.325ZM117.112 40.1705C116.408 40.1705 115.779 39.9905 115.226 39.6307C114.677 39.267 114.245 38.75 113.93 38.0795C113.62 37.4053 113.464 36.5966 113.464 35.6534C113.464 34.7102 113.622 33.9034 113.936 33.233C114.254 32.5625 114.69 32.0492 115.243 31.6932C115.796 31.3371 116.423 31.1591 117.124 31.1591C117.665 31.1591 118.101 31.25 118.43 31.4318C118.764 31.6098 119.021 31.8182 119.203 32.0568C119.389 32.2955 119.533 32.5057 119.635 32.6875H119.737V28.3636H121.436V40H119.777V38.642H119.635C119.533 38.8277 119.385 39.0398 119.192 39.2784C119.002 39.517 118.741 39.7254 118.408 39.9034C118.074 40.0814 117.643 40.1705 117.112 40.1705ZM117.487 38.7216C117.976 38.7216 118.389 38.5928 118.726 38.3352C119.067 38.0739 119.324 37.7121 119.499 37.25C119.677 36.7879 119.766 36.25 119.766 35.6364C119.766 35.0303 119.679 34.5 119.504 34.0455C119.33 33.5909 119.074 33.2367 118.737 32.983C118.4 32.7292 117.983 32.6023 117.487 32.6023C116.976 32.6023 116.55 32.7348 116.209 33C115.868 33.2652 115.61 33.6269 115.436 34.0852C115.266 34.5436 115.18 35.0606 115.18 35.6364C115.18 36.2197 115.268 36.7443 115.442 37.2102C115.616 37.6761 115.874 38.0455 116.214 38.3182C116.559 38.5871 116.983 38.7216 117.487 38.7216ZM123.861 40V31.2727H125.56V40H123.861ZM124.719 29.9261C124.423 29.9261 124.17 29.8277 123.957 29.6307C123.749 29.4299 123.645 29.1913 123.645 28.9148C123.645 28.6345 123.749 28.3958 123.957 28.1989C124.17 27.9981 124.423 27.8977 124.719 27.8977C125.014 27.8977 125.266 27.9981 125.474 28.1989C125.687 28.3958 125.793 28.6345 125.793 28.9148C125.793 29.1913 125.687 29.4299 125.474 29.6307C125.266 29.8277 125.014 29.9261 124.719 29.9261ZM135.311 31.2727L132.146 40H130.328L127.158 31.2727H128.982L131.192 37.9886H131.283L133.487 31.2727H135.311ZM136.908 40V31.2727H138.607V40H136.908ZM137.766 29.9261C137.47 29.9261 137.216 29.8277 137.004 29.6307C136.796 29.4299 136.692 29.1913 136.692 28.9148C136.692 28.6345 136.796 28.3958 137.004 28.1989C137.216 27.9981 137.47 27.8977 137.766 27.8977C138.061 27.8977 138.313 27.9981 138.521 28.1989C138.733 28.3958 138.839 28.6345 138.839 28.9148C138.839 29.1913 138.733 29.4299 138.521 29.6307C138.313 29.8277 138.061 29.9261 137.766 29.9261ZM144.159 40.1705C143.455 40.1705 142.826 39.9905 142.273 39.6307C141.723 39.267 141.292 38.75 140.977 38.0795C140.667 37.4053 140.511 36.5966 140.511 35.6534C140.511 34.7102 140.669 33.9034 140.983 33.233C141.301 32.5625 141.737 32.0492 142.29 31.6932C142.843 31.3371 143.47 31.1591 144.17 31.1591C144.712 31.1591 145.148 31.25 145.477 31.4318C145.811 31.6098 146.068 31.8182 146.25 32.0568C146.436 32.2955 146.58 32.5057 146.682 32.6875H146.784V28.3636H148.483V40H146.824V38.642H146.682C146.58 38.8277 146.432 39.0398 146.239 39.2784C146.049 39.517 145.788 39.7254 145.455 39.9034C145.121 40.0814 144.689 40.1705 144.159 40.1705ZM144.534 38.7216C145.023 38.7216 145.436 38.5928 145.773 38.3352C146.114 38.0739 146.371 37.7121 146.545 37.25C146.723 36.7879 146.812 36.25 146.812 35.6364C146.812 35.0303 146.725 34.5 146.551 34.0455C146.377 33.5909 146.121 33.2367 145.784 32.983C145.447 32.7292 145.03 32.6023 144.534 32.6023C144.023 32.6023 143.597 32.7348 143.256 33C142.915 33.2652 142.657 33.6269 142.483 34.0852C142.313 34.5436 142.227 35.0606 142.227 35.6364C142.227 36.2197 142.314 36.7443 142.489 37.2102C142.663 37.6761 142.92 38.0455 143.261 38.3182C143.606 38.5871 144.03 38.7216 144.534 38.7216ZM154.669 40.1761C153.809 40.1761 153.069 39.9924 152.447 39.625C151.83 39.2538 151.353 38.733 151.016 38.0625C150.682 37.3883 150.516 36.5985 150.516 35.6932C150.516 34.7992 150.682 34.0114 151.016 33.3295C151.353 32.6477 151.822 32.1155 152.425 31.733C153.031 31.3504 153.739 31.1591 154.55 31.1591C155.042 31.1591 155.519 31.2405 155.982 31.4034C156.444 31.5663 156.858 31.822 157.226 32.1705C157.593 32.5189 157.883 32.9716 158.095 33.5284C158.307 34.0814 158.413 34.7538 158.413 35.5455V36.1477H151.476V34.875H156.749C156.749 34.428 156.658 34.0322 156.476 33.6875C156.294 33.339 156.038 33.0644 155.709 32.8636C155.383 32.6629 155 32.5625 154.561 32.5625C154.084 32.5625 153.667 32.6799 153.311 32.9148C152.959 33.1458 152.686 33.4489 152.493 33.8239C152.304 34.1951 152.209 34.5985 152.209 35.0341V36.0284C152.209 36.6117 152.311 37.108 152.516 37.517C152.724 37.9261 153.014 38.2386 153.385 38.4545C153.756 38.6667 154.19 38.7727 154.686 38.7727C155.008 38.7727 155.302 38.7273 155.567 38.6364C155.832 38.5417 156.061 38.4015 156.254 38.2159C156.447 38.0303 156.595 37.8011 156.697 37.5284L158.305 37.8182C158.177 38.2917 157.946 38.7064 157.612 39.0625C157.283 39.4148 156.868 39.6894 156.368 39.8864C155.872 40.0795 155.305 40.1761 154.669 40.1761ZM160.298 40V31.2727H161.94V32.6591H162.031C162.19 32.1894 162.471 31.8201 162.872 31.5511C163.277 31.2784 163.736 31.142 164.247 31.142C164.353 31.142 164.478 31.1458 164.622 31.1534C164.77 31.161 164.885 31.1705 164.969 31.1818V32.8068C164.901 32.7879 164.779 32.767 164.605 32.7443C164.431 32.7178 164.257 32.7045 164.082 32.7045C163.681 32.7045 163.323 32.7898 163.009 32.9602C162.698 33.1269 162.452 33.3598 162.27 33.6591C162.088 33.9545 161.997 34.2917 161.997 34.6705V40H160.298Z" fill="white" fill-opacity="0.95"/>
<mask id="path-4-inside-2_1637_11629" fill="white">
<path d="M433.333 0H866.667V68H433.333V0Z"/>
</mask>
<path d="M866.667 68V69H867.667V68H866.667ZM865.667 0V68H867.667V0H865.667ZM866.667 67H433.333V69H866.667V67Z" fill="#707070" mask="url(#path-4-inside-2_1637_11629)"/>
<path d="M466.856 40L463.674 28.3636H465.106L467.538 37.8409H467.652L470.129 28.3636H471.72L474.197 37.8409H474.311L476.742 28.3636H478.174L474.992 40H473.538L470.97 30.7273H470.879L468.311 40H466.856ZM482.595 40.1818C481.754 40.1818 481.028 39.9962 480.419 39.625C479.813 39.25 479.345 38.7273 479.015 38.0568C478.689 37.3826 478.527 36.5985 478.527 35.7045C478.527 34.8106 478.689 34.0227 479.015 33.3409C479.345 32.6553 479.803 32.1212 480.39 31.7386C480.981 31.3523 481.67 31.1591 482.458 31.1591C482.913 31.1591 483.362 31.2348 483.805 31.3864C484.248 31.5379 484.652 31.7841 485.015 32.125C485.379 32.4621 485.669 32.9091 485.884 33.4659C486.1 34.0227 486.208 34.7083 486.208 35.5227V36.0909H479.481V34.9318H484.845C484.845 34.4394 484.746 34 484.549 33.6136C484.356 33.2273 484.08 32.9223 483.72 32.6989C483.364 32.4754 482.943 32.3636 482.458 32.3636C481.924 32.3636 481.462 32.4962 481.072 32.7614C480.686 33.0227 480.388 33.3636 480.18 33.7841C479.972 34.2045 479.867 34.6553 479.867 35.1364V35.9091C479.867 36.5682 479.981 37.1269 480.208 37.5852C480.439 38.0398 480.759 38.3864 481.169 38.625C481.578 38.8598 482.053 38.9773 482.595 38.9773C482.947 38.9773 483.265 38.928 483.549 38.8295C483.837 38.7273 484.085 38.5758 484.294 38.375C484.502 38.1705 484.663 37.9167 484.777 37.6136L486.072 37.9773C485.936 38.4167 485.706 38.803 485.384 39.1364C485.063 39.4659 484.665 39.7235 484.191 39.9091C483.718 40.0909 483.186 40.1818 482.595 40.1818ZM488.248 40V31.2727H489.589V40H488.248ZM488.93 29.8182C488.669 29.8182 488.443 29.7292 488.254 29.5511C488.068 29.3731 487.975 29.1591 487.975 28.9091C487.975 28.6591 488.068 28.4451 488.254 28.267C488.443 28.089 488.669 28 488.93 28C489.191 28 489.415 28.089 489.6 28.267C489.79 28.4451 489.884 28.6591 489.884 28.9091C489.884 29.1591 489.79 29.3731 489.6 29.5511C489.415 29.7292 489.191 29.8182 488.93 29.8182ZM495.568 43.4545C494.92 43.4545 494.363 43.3712 493.897 43.2045C493.431 43.0417 493.043 42.8258 492.732 42.5568C492.426 42.2917 492.181 42.0076 492 41.7045L493.068 40.9545C493.189 41.1136 493.342 41.2955 493.528 41.5C493.714 41.7083 493.967 41.8883 494.289 42.0398C494.615 42.1951 495.041 42.2727 495.568 42.2727C496.272 42.2727 496.854 42.1023 497.312 41.7614C497.77 41.4205 498 40.8864 498 40.1591V38.3864H497.886C497.787 38.5455 497.647 38.7424 497.465 38.9773C497.287 39.2083 497.03 39.4148 496.693 39.5966C496.359 39.7746 495.909 39.8636 495.34 39.8636C494.636 39.8636 494.003 39.697 493.443 39.3636C492.886 39.0303 492.445 38.5455 492.119 37.9091C491.797 37.2727 491.636 36.5 491.636 35.5909C491.636 34.697 491.793 33.9186 492.107 33.2557C492.422 32.589 492.859 32.0739 493.42 31.7102C493.981 31.3428 494.628 31.1591 495.363 31.1591C495.931 31.1591 496.382 31.2538 496.715 31.4432C497.053 31.6288 497.31 31.8409 497.488 32.0795C497.67 32.3144 497.81 32.5076 497.909 32.6591H498.045V31.2727H499.34V40.25C499.34 41 499.17 41.6098 498.829 42.0795C498.492 42.553 498.037 42.8996 497.465 43.1193C496.897 43.3428 496.265 43.4545 495.568 43.4545ZM495.522 38.6591C496.06 38.6591 496.515 38.536 496.886 38.2898C497.257 38.0436 497.539 37.6894 497.732 37.2273C497.926 36.7652 498.022 36.2121 498.022 35.5682C498.022 34.9394 497.928 34.3845 497.738 33.9034C497.549 33.4223 497.268 33.0455 496.897 32.7727C496.526 32.5 496.068 32.3636 495.522 32.3636C494.954 32.3636 494.481 32.5076 494.102 32.7955C493.727 33.0833 493.445 33.4697 493.255 33.9545C493.07 34.4394 492.977 34.9773 492.977 35.5682C492.977 36.1742 493.072 36.7102 493.261 37.1761C493.454 37.6383 493.738 38.0019 494.113 38.267C494.492 38.5284 494.962 38.6591 495.522 38.6591ZM503.136 34.75V40H501.795V28.3636H503.136V32.6364H503.25C503.454 32.1856 503.761 31.8277 504.17 31.5625C504.583 31.2936 505.132 31.1591 505.818 31.1591C506.412 31.1591 506.933 31.2784 507.38 31.517C507.827 31.7519 508.174 32.1136 508.42 32.6023C508.67 33.0871 508.795 33.7045 508.795 34.4545V40H507.454V34.5455C507.454 33.8523 507.274 33.3163 506.914 32.9375C506.558 32.5549 506.064 32.3636 505.431 32.3636C504.992 32.3636 504.598 32.4564 504.25 32.642C503.905 32.8277 503.632 33.0985 503.431 33.4545C503.234 33.8106 503.136 34.2424 503.136 34.75ZM515.044 31.2727V32.4091H510.521V31.2727H515.044ZM511.839 29.1818H513.18V37.5C513.18 37.8788 513.235 38.1629 513.345 38.3523C513.458 38.5379 513.602 38.6629 513.777 38.7273C513.955 38.7879 514.142 38.8182 514.339 38.8182C514.487 38.8182 514.608 38.8106 514.703 38.7955C514.797 38.7765 514.873 38.7614 514.93 38.75L515.203 39.9545C515.112 39.9886 514.985 40.0227 514.822 40.0568C514.659 40.0947 514.453 40.1136 514.203 40.1136C513.824 40.1136 513.453 40.0322 513.089 39.8693C512.729 39.7064 512.43 39.4583 512.191 39.125C511.956 38.7917 511.839 38.3712 511.839 37.8636V29.1818ZM518.038 40.0909C517.758 40.0909 517.517 39.9905 517.316 39.7898C517.116 39.589 517.015 39.3485 517.015 39.0682C517.015 38.7879 517.116 38.5473 517.316 38.3466C517.517 38.1458 517.758 38.0455 518.038 38.0455C518.318 38.0455 518.559 38.1458 518.759 38.3466C518.96 38.5473 519.061 38.7879 519.061 39.0682C519.061 39.2538 519.013 39.4242 518.919 39.5795C518.828 39.7348 518.705 39.8598 518.549 39.9545C518.398 40.0455 518.227 40.0909 518.038 40.0909ZM518.038 33.6136C517.758 33.6136 517.517 33.5133 517.316 33.3125C517.116 33.1117 517.015 32.8712 517.015 32.5909C517.015 32.3106 517.116 32.0701 517.316 31.8693C517.517 31.6686 517.758 31.5682 518.038 31.5682C518.318 31.5682 518.559 31.6686 518.759 31.8693C518.96 32.0701 519.061 32.3106 519.061 32.5909C519.061 32.7765 519.013 32.947 518.919 33.1023C518.828 33.2576 518.705 33.3826 518.549 33.4773C518.398 33.5682 518.227 33.6136 518.038 33.6136ZM526.149 28.3636H527.831L531.785 38.0227H531.921L535.876 28.3636H537.558V40H536.24V31.1591H536.126L532.49 40H531.217L527.581 31.1591H527.467V40H526.149V28.3636ZM543.86 40.1818C543.019 40.1818 542.294 39.9962 541.684 39.625C541.078 39.25 540.61 38.7273 540.281 38.0568C539.955 37.3826 539.792 36.5985 539.792 35.7045C539.792 34.8106 539.955 34.0227 540.281 33.3409C540.61 32.6553 541.069 32.1212 541.656 31.7386C542.247 31.3523 542.936 31.1591 543.724 31.1591C544.179 31.1591 544.627 31.2348 545.071 31.3864C545.514 31.5379 545.917 31.7841 546.281 32.125C546.644 32.4621 546.934 32.9091 547.15 33.4659C547.366 34.0227 547.474 34.7083 547.474 35.5227V36.0909H540.747V34.9318H546.11C546.11 34.4394 546.012 34 545.815 33.6136C545.622 33.2273 545.345 32.9223 544.985 32.6989C544.629 32.4754 544.209 32.3636 543.724 32.3636C543.19 32.3636 542.728 32.4962 542.338 32.7614C541.951 33.0227 541.654 33.3636 541.446 33.7841C541.237 34.2045 541.133 34.6553 541.133 35.1364V35.9091C541.133 36.5682 541.247 37.1269 541.474 37.5852C541.705 38.0398 542.025 38.3864 542.434 38.625C542.843 38.8598 543.319 38.9773 543.86 38.9773C544.213 38.9773 544.531 38.928 544.815 38.8295C545.103 38.7273 545.351 38.5758 545.559 38.375C545.768 38.1705 545.929 37.9167 546.042 37.6136L547.338 37.9773C547.201 38.4167 546.972 38.803 546.65 39.1364C546.328 39.4659 545.93 39.7235 545.457 39.9091C544.983 40.0909 544.451 40.1818 543.86 40.1818ZM552.809 40.1818C552.082 40.1818 551.44 39.9981 550.883 39.6307C550.326 39.2595 549.891 38.7367 549.576 38.0625C549.262 37.3845 549.105 36.5833 549.105 35.6591C549.105 34.7424 549.262 33.947 549.576 33.2727C549.891 32.5985 550.328 32.0777 550.889 31.7102C551.449 31.3428 552.097 31.1591 552.832 31.1591C553.4 31.1591 553.849 31.2538 554.179 31.4432C554.512 31.6288 554.766 31.8409 554.94 32.0795C555.118 32.3144 555.256 32.5076 555.355 32.6591H555.468V28.3636H556.809V40H555.514V38.6591H555.355C555.256 38.8182 555.116 39.0189 554.934 39.2614C554.752 39.5 554.493 39.714 554.156 39.9034C553.819 40.089 553.37 40.1818 552.809 40.1818ZM552.991 38.9773C553.529 38.9773 553.983 38.8371 554.355 38.5568C554.726 38.2727 555.008 37.8807 555.201 37.3807C555.394 36.8769 555.491 36.2955 555.491 35.6364C555.491 34.9848 555.396 34.4148 555.207 33.9261C555.018 33.4337 554.737 33.0511 554.366 32.7784C553.995 32.5019 553.536 32.3636 552.991 32.3636C552.423 32.3636 551.949 32.5095 551.571 32.8011C551.196 33.089 550.913 33.4811 550.724 33.9773C550.538 34.4697 550.446 35.0227 550.446 35.6364C550.446 36.2576 550.54 36.822 550.73 37.3295C550.923 37.8333 551.207 38.2348 551.582 38.5341C551.961 38.8295 552.43 38.9773 552.991 38.9773ZM559.451 40V31.2727H560.792V40H559.451ZM560.133 29.8182C559.872 29.8182 559.646 29.7292 559.457 29.5511C559.271 29.3731 559.179 29.1591 559.179 28.9091C559.179 28.6591 559.271 28.4451 559.457 28.267C559.646 28.089 559.872 28 560.133 28C560.394 28 560.618 28.089 560.804 28.267C560.993 28.4451 561.088 28.6591 561.088 28.9091C561.088 29.1591 560.993 29.3731 560.804 29.5511C560.618 29.7292 560.394 29.8182 560.133 29.8182ZM568.748 36.4318V31.2727H570.089V40H568.748V38.5227H568.657C568.453 38.9659 568.134 39.3428 567.703 39.6534C567.271 39.9602 566.725 40.1136 566.066 40.1136C565.521 40.1136 565.036 39.9943 564.612 39.7557C564.188 39.5133 563.854 39.1496 563.612 38.6648C563.369 38.1761 563.248 37.5606 563.248 36.8182V31.2727H564.589V36.7273C564.589 37.3636 564.767 37.8712 565.123 38.25C565.483 38.6288 565.941 38.8182 566.498 38.8182C566.831 38.8182 567.17 38.733 567.515 38.5625C567.864 38.392 568.155 38.1307 568.39 37.7784C568.629 37.4261 568.748 36.9773 568.748 36.4318ZM572.545 40V31.2727H573.84V32.6364H573.954C574.136 32.1705 574.429 31.8087 574.835 31.5511C575.24 31.2898 575.727 31.1591 576.295 31.1591C576.871 31.1591 577.35 31.2898 577.732 31.5511C578.119 31.8087 578.42 32.1705 578.636 32.6364H578.727C578.95 32.1856 579.286 31.8277 579.732 31.5625C580.179 31.2936 580.715 31.1591 581.34 31.1591C582.121 31.1591 582.759 31.4034 583.255 31.892C583.751 32.3769 584 33.1326 584 34.1591V40H582.659V34.1591C582.659 33.5152 582.482 33.0549 582.13 32.7784C581.778 32.5019 581.363 32.3636 580.886 32.3636C580.272 32.3636 579.797 32.5492 579.46 32.9205C579.123 33.2879 578.954 33.7538 578.954 34.3182V40H577.59V34.0227C577.59 33.5265 577.429 33.1269 577.107 32.8239C576.786 32.517 576.371 32.3636 575.863 32.3636C575.515 32.3636 575.189 32.4564 574.886 32.642C574.587 32.8277 574.344 33.0852 574.159 33.4148C573.977 33.7405 573.886 34.1174 573.886 34.5455V40H572.545Z" fill="white" fill-opacity="0.95"/>
<mask id="path-7-inside-3_1637_11629" fill="white">
<path d="M866.667 0H1300V68H866.667V0Z"/>
</mask>
<path d="M1300 68V69H1301V68H1300ZM1299 0V68H1301V0H1299ZM1300 67H866.667V69H1300V67Z" fill="white" fill-opacity="0.3" mask="url(#path-7-inside-3_1637_11629)"/>
<path d="M897.871 40V38.9773L901.712 34.7727C902.163 34.2803 902.534 33.8523 902.826 33.4886C903.117 33.1212 903.333 32.7765 903.473 32.4545C903.617 32.1288 903.689 31.7879 903.689 31.4318C903.689 31.0227 903.591 30.6686 903.394 30.3693C903.201 30.0701 902.936 29.839 902.598 29.6761C902.261 29.5133 901.883 29.4318 901.462 29.4318C901.015 29.4318 900.625 29.5246 900.292 29.7102C899.962 29.892 899.706 30.1477 899.525 30.4773C899.347 30.8068 899.258 31.1932 899.258 31.6364H897.917C897.917 30.9545 898.074 30.3561 898.388 29.8409C898.703 29.3258 899.131 28.9242 899.672 28.6364C900.218 28.3485 900.83 28.2045 901.508 28.2045C902.189 28.2045 902.794 28.3485 903.32 28.6364C903.847 28.9242 904.259 29.3125 904.559 29.8011C904.858 30.2898 905.008 30.8333 905.008 31.4318C905.008 31.8598 904.93 32.2784 904.775 32.6875C904.623 33.0928 904.358 33.5455 903.979 34.0455C903.604 34.5417 903.083 35.1477 902.417 35.8636L899.803 38.6591V38.75H905.212V40H897.871ZM907.581 43.2727V31.2727H908.877V32.6591H909.036C909.134 32.5076 909.271 32.3144 909.445 32.0795C909.623 31.8409 909.877 31.6288 910.206 31.4432C910.54 31.2538 910.99 31.1591 911.559 31.1591C912.294 31.1591 912.941 31.3428 913.502 31.7102C914.062 32.0777 914.5 32.5985 914.814 33.2727C915.129 33.947 915.286 34.7424 915.286 35.6591C915.286 36.5833 915.129 37.3845 914.814 38.0625C914.5 38.7367 914.064 39.2595 913.508 39.6307C912.951 39.9981 912.309 40.1818 911.581 40.1818C911.021 40.1818 910.572 40.089 910.235 39.9034C909.898 39.714 909.638 39.5 909.456 39.2614C909.275 39.0189 909.134 38.8182 909.036 38.6591H908.922V43.2727H907.581ZM908.9 35.6364C908.9 36.2955 908.996 36.8769 909.189 37.3807C909.383 37.8807 909.665 38.2727 910.036 38.5568C910.407 38.8371 910.862 38.9773 911.4 38.9773C911.96 38.9773 912.428 38.8295 912.803 38.5341C913.182 38.2348 913.466 37.8333 913.655 37.3295C913.848 36.822 913.945 36.2576 913.945 35.6364C913.945 35.0227 913.85 34.4697 913.661 33.9773C913.475 33.4811 913.193 33.089 912.814 32.8011C912.439 32.5095 911.968 32.3636 911.4 32.3636C910.854 32.3636 910.396 32.5019 910.025 32.7784C909.653 33.0511 909.373 33.4337 909.184 33.9261C908.994 34.4148 908.9 34.9848 908.9 35.6364ZM917.972 31.2727L920.063 34.8409L922.154 31.2727H923.699L920.881 35.6364L923.699 40H922.154L920.063 36.6136L917.972 40H916.427L919.199 35.6364L916.427 31.2727H917.972Z" fill="white" fill-opacity="0.95"/>
</svg>
