<svg width="1300" height="68" viewBox="0 0 1300 68" fill="none" xmlns="http://www.w3.org/2000/svg">
<rect width="1300" height="68" fill="#1A1A1A"/>
<mask id="path-1-inside-1_1637_8876" fill="white">
<path d="M0 0H433.333V68H0V0Z"/>
</mask>
<path d="M432.333 0V68H434.333V0H432.333Z" fill="#707070" mask="url(#path-1-inside-1_1637_8876)"/>
<mask id="path-3-inside-2_1637_8876" fill="white">
<path d="M433.333 0H866.667V68H433.333V0Z"/>
</mask>
<path d="M866.667 68V69H867.667V68H866.667ZM865.667 0V68H867.667V0H865.667ZM866.667 67H433.333V69H866.667V67Z" fill="#707070" mask="url(#path-3-inside-2_1637_8876)"/>
<path d="M464.742 40V28.3636H468.811C469.621 28.3636 470.29 28.5038 470.816 28.7841C471.343 29.0606 471.735 29.4337 471.992 29.9034C472.25 30.3693 472.379 30.8864 472.379 31.4545C472.379 31.9545 472.29 32.3674 472.112 32.6932C471.938 33.0189 471.706 33.2765 471.419 33.4659C471.134 33.6553 470.826 33.7955 470.492 33.8864V34C470.848 34.0227 471.206 34.1477 471.566 34.375C471.926 34.6023 472.227 34.928 472.47 35.3523C472.712 35.7765 472.833 36.2955 472.833 36.9091C472.833 37.4924 472.701 38.017 472.436 38.483C472.17 38.9489 471.752 39.3182 471.18 39.5909C470.608 39.8636 469.864 40 468.947 40H464.742ZM466.152 38.75H468.947C469.867 38.75 470.521 38.572 470.907 38.2159C471.297 37.8561 471.492 37.4205 471.492 36.9091C471.492 36.5152 471.392 36.1515 471.191 35.8182C470.991 35.4811 470.705 35.2121 470.333 35.0114C469.962 34.8068 469.523 34.7045 469.015 34.7045H466.152V38.75ZM466.152 33.4773H468.765C469.189 33.4773 469.572 33.3939 469.913 33.2273C470.258 33.0606 470.53 32.8258 470.731 32.5227C470.936 32.2197 471.038 31.8636 471.038 31.4545C471.038 30.9432 470.86 30.5095 470.504 30.1534C470.148 29.7936 469.583 29.6136 468.811 29.6136H466.152V33.4773ZM477.535 40.2045C476.982 40.2045 476.48 40.1004 476.029 39.892C475.579 39.6799 475.221 39.375 474.956 38.9773C474.69 38.5758 474.558 38.0909 474.558 37.5227C474.558 37.0227 474.656 36.6174 474.853 36.3068C475.05 35.9924 475.313 35.7462 475.643 35.5682C475.973 35.3902 476.336 35.2576 476.734 35.1705C477.135 35.0795 477.539 35.0076 477.944 34.9545C478.474 34.8864 478.904 34.8352 479.234 34.8011C479.567 34.7633 479.81 34.7008 479.961 34.6136C480.116 34.5265 480.194 34.375 480.194 34.1591V34.1136C480.194 33.553 480.041 33.1174 479.734 32.8068C479.431 32.4962 478.971 32.3409 478.353 32.3409C477.713 32.3409 477.211 32.4811 476.848 32.7614C476.484 33.0417 476.228 33.3409 476.081 33.6591L474.808 33.2045C475.035 32.6742 475.338 32.2614 475.717 31.9659C476.099 31.6667 476.516 31.4583 476.967 31.3409C477.421 31.2197 477.868 31.1591 478.308 31.1591C478.588 31.1591 478.91 31.1932 479.274 31.2614C479.641 31.3258 479.995 31.4602 480.336 31.6648C480.681 31.8693 480.967 32.178 481.194 32.5909C481.421 33.0038 481.535 33.5568 481.535 34.25V40H480.194V38.8182H480.126C480.035 39.0076 479.884 39.2102 479.671 39.4261C479.459 39.642 479.177 39.8258 478.825 39.9773C478.473 40.1288 478.043 40.2045 477.535 40.2045ZM477.74 39C478.27 39 478.717 38.8958 479.081 38.6875C479.448 38.4792 479.724 38.2102 479.91 37.8807C480.099 37.5511 480.194 37.2045 480.194 36.8409V35.6136C480.137 35.6818 480.012 35.7443 479.819 35.8011C479.63 35.8542 479.41 35.9015 479.16 35.9432C478.914 35.9811 478.673 36.0152 478.438 36.0455C478.207 36.072 478.02 36.0947 477.876 36.1136C477.527 36.1591 477.202 36.233 476.899 36.3352C476.599 36.4337 476.357 36.5833 476.171 36.7841C475.99 36.9811 475.899 37.25 475.899 37.5909C475.899 38.0568 476.071 38.4091 476.416 38.6477C476.764 38.8826 477.206 39 477.74 39ZM487.528 40.1818C486.71 40.1818 486.005 39.9886 485.414 39.6023C484.823 39.2159 484.369 38.6837 484.051 38.0057C483.732 37.3277 483.573 36.553 483.573 35.6818C483.573 34.7955 483.736 34.0133 484.062 33.3352C484.392 32.6534 484.85 32.1212 485.437 31.7386C486.028 31.3523 486.717 31.1591 487.505 31.1591C488.119 31.1591 488.672 31.2727 489.164 31.5C489.657 31.7273 490.06 32.0455 490.375 32.4545C490.689 32.8636 490.884 33.3409 490.96 33.8864H489.619C489.517 33.4886 489.289 33.1364 488.937 32.8295C488.589 32.5189 488.119 32.3636 487.528 32.3636C487.005 32.3636 486.547 32.5 486.153 32.7727C485.763 33.0417 485.458 33.4223 485.238 33.9148C485.022 34.4034 484.914 34.9773 484.914 35.6364C484.914 36.3106 485.02 36.8977 485.232 37.3977C485.448 37.8977 485.751 38.286 486.142 38.5625C486.536 38.839 486.998 38.9773 487.528 38.9773C487.876 38.9773 488.193 38.9167 488.477 38.7955C488.761 38.6742 489.001 38.5 489.198 38.2727C489.395 38.0455 489.536 37.7727 489.619 37.4545H490.96C490.884 37.9697 490.697 38.4337 490.397 38.8466C490.102 39.2557 489.71 39.5814 489.221 39.8239C488.736 40.0625 488.172 40.1818 487.528 40.1818ZM494.17 36.8182L494.147 35.1591H494.42L498.238 31.2727H499.897L495.829 35.3864H495.715L494.17 36.8182ZM492.92 40V28.3636H494.261V40H492.92ZM498.465 40L495.056 35.6818L496.011 34.75L500.17 40H498.465ZM504.786 43.4545C504.139 43.4545 503.582 43.3712 503.116 43.2045C502.65 43.0417 502.262 42.8258 501.951 42.5568C501.644 42.2917 501.4 42.0076 501.218 41.7045L502.286 40.9545C502.408 41.1136 502.561 41.2955 502.747 41.5C502.932 41.7083 503.186 41.8883 503.508 42.0398C503.834 42.1951 504.26 42.2727 504.786 42.2727C505.491 42.2727 506.072 42.1023 506.531 41.7614C506.989 41.4205 507.218 40.8864 507.218 40.1591V38.3864H507.105C507.006 38.5455 506.866 38.7424 506.684 38.9773C506.506 39.2083 506.249 39.4148 505.911 39.5966C505.578 39.7746 505.127 39.8636 504.559 39.8636C503.855 39.8636 503.222 39.697 502.661 39.3636C502.105 39.0303 501.663 38.5455 501.338 37.9091C501.016 37.2727 500.855 36.5 500.855 35.5909C500.855 34.697 501.012 33.9186 501.326 33.2557C501.641 32.589 502.078 32.0739 502.639 31.7102C503.199 31.3428 503.847 31.1591 504.582 31.1591C505.15 31.1591 505.601 31.2538 505.934 31.4432C506.271 31.6288 506.529 31.8409 506.707 32.0795C506.889 32.3144 507.029 32.5076 507.127 32.6591H507.264V31.2727H508.559V40.25C508.559 41 508.389 41.6098 508.048 42.0795C507.711 42.553 507.256 42.8996 506.684 43.1193C506.116 43.3428 505.483 43.4545 504.786 43.4545ZM504.741 38.6591C505.279 38.6591 505.733 38.536 506.105 38.2898C506.476 38.0436 506.758 37.6894 506.951 37.2273C507.144 36.7652 507.241 36.2121 507.241 35.5682C507.241 34.9394 507.146 34.3845 506.957 33.9034C506.768 33.4223 506.487 33.0455 506.116 32.7727C505.745 32.5 505.286 32.3636 504.741 32.3636C504.173 32.3636 503.699 32.5076 503.321 32.7955C502.946 33.0833 502.663 33.4697 502.474 33.9545C502.288 34.4394 502.196 34.9773 502.196 35.5682C502.196 36.1742 502.29 36.7102 502.48 37.1761C502.673 37.6383 502.957 38.0019 503.332 38.267C503.711 38.5284 504.18 38.6591 504.741 38.6591ZM511.014 40V31.2727H512.309V32.5909H512.4C512.559 32.1591 512.847 31.8087 513.264 31.5398C513.68 31.2708 514.15 31.1364 514.673 31.1364C514.771 31.1364 514.894 31.1383 515.042 31.142C515.19 31.1458 515.302 31.1515 515.377 31.1591V32.5227C515.332 32.5114 515.228 32.4943 515.065 32.4716C514.906 32.4451 514.737 32.4318 514.559 32.4318C514.135 32.4318 513.756 32.5208 513.423 32.6989C513.093 32.8731 512.832 33.1155 512.639 33.4261C512.449 33.733 512.355 34.0833 512.355 34.4773V40H511.014ZM520.247 40.1818C519.459 40.1818 518.768 39.9943 518.173 39.6193C517.582 39.2443 517.12 38.7197 516.786 38.0455C516.457 37.3712 516.292 36.5833 516.292 35.6818C516.292 34.7727 516.457 33.9792 516.786 33.3011C517.12 32.6231 517.582 32.0966 518.173 31.7216C518.768 31.3466 519.459 31.1591 520.247 31.1591C521.035 31.1591 521.724 31.3466 522.315 31.7216C522.91 32.0966 523.372 32.6231 523.701 33.3011C524.035 33.9792 524.201 34.7727 524.201 35.6818C524.201 36.5833 524.035 37.3712 523.701 38.0455C523.372 38.7197 522.91 39.2443 522.315 39.6193C521.724 39.9943 521.035 40.1818 520.247 40.1818ZM520.247 38.9773C520.845 38.9773 521.338 38.8239 521.724 38.517C522.11 38.2102 522.396 37.8068 522.582 37.3068C522.768 36.8068 522.86 36.2652 522.86 35.6818C522.86 35.0985 522.768 34.5549 522.582 34.0511C522.396 33.5473 522.11 33.1402 521.724 32.8295C521.338 32.5189 520.845 32.3636 520.247 32.3636C519.648 32.3636 519.156 32.5189 518.769 32.8295C518.383 33.1402 518.097 33.5473 517.911 34.0511C517.726 34.5549 517.633 35.0985 517.633 35.6818C517.633 36.2652 517.726 36.8068 517.911 37.3068C518.097 37.8068 518.383 38.2102 518.769 38.517C519.156 38.8239 519.648 38.9773 520.247 38.9773ZM531.748 36.4318V31.2727H533.089V40H531.748V38.5227H531.657C531.453 38.9659 531.134 39.3428 530.703 39.6534C530.271 39.9602 529.725 40.1136 529.066 40.1136C528.521 40.1136 528.036 39.9943 527.612 39.7557C527.188 39.5133 526.854 39.1496 526.612 38.6648C526.369 38.1761 526.248 37.5606 526.248 36.8182V31.2727H527.589V36.7273C527.589 37.3636 527.767 37.8712 528.123 38.25C528.483 38.6288 528.941 38.8182 529.498 38.8182C529.831 38.8182 530.17 38.733 530.515 38.5625C530.864 38.392 531.155 38.1307 531.39 37.7784C531.629 37.4261 531.748 36.9773 531.748 36.4318ZM536.886 34.75V40H535.545V31.2727H536.84V32.6364H536.954C537.159 32.1932 537.469 31.8371 537.886 31.5682C538.303 31.2955 538.84 31.1591 539.5 31.1591C540.09 31.1591 540.607 31.2803 541.051 31.5227C541.494 31.7614 541.839 32.125 542.085 32.6136C542.331 33.0985 542.454 33.7121 542.454 34.4545V40H541.113V34.5455C541.113 33.8598 540.935 33.3258 540.579 32.9432C540.223 32.5568 539.734 32.3636 539.113 32.3636C538.685 32.3636 538.303 32.4564 537.965 32.642C537.632 32.8277 537.369 33.0985 537.176 33.4545C536.982 33.8106 536.886 34.2424 536.886 34.75ZM548.2 40.1818C547.473 40.1818 546.831 39.9981 546.274 39.6307C545.717 39.2595 545.281 38.7367 544.967 38.0625C544.652 37.3845 544.495 36.5833 544.495 35.6591C544.495 34.7424 544.652 33.947 544.967 33.2727C545.281 32.5985 545.719 32.0777 546.279 31.7102C546.84 31.3428 547.488 31.1591 548.223 31.1591C548.791 31.1591 549.24 31.2538 549.569 31.4432C549.902 31.6288 550.156 31.8409 550.331 32.0795C550.509 32.3144 550.647 32.5076 550.745 32.6591H550.859V28.3636H552.2V40H550.904V38.6591H550.745C550.647 38.8182 550.507 39.0189 550.325 39.2614C550.143 39.5 549.884 39.714 549.546 39.9034C549.209 40.089 548.76 40.1818 548.2 40.1818ZM548.382 38.9773C548.92 38.9773 549.374 38.8371 549.745 38.5568C550.116 38.2727 550.399 37.8807 550.592 37.3807C550.785 36.8769 550.882 36.2955 550.882 35.6364C550.882 34.9848 550.787 34.4148 550.598 33.9261C550.408 33.4337 550.128 33.0511 549.757 32.7784C549.385 32.5019 548.927 32.3636 548.382 32.3636C547.813 32.3636 547.34 32.5095 546.961 32.8011C546.586 33.089 546.304 33.4811 546.115 33.9773C545.929 34.4697 545.836 35.0227 545.836 35.6364C545.836 36.2576 545.931 36.822 546.12 37.3295C546.313 37.8333 546.598 38.2348 546.973 38.5341C547.351 38.8295 547.821 38.9773 548.382 38.9773Z" fill="white" fill-opacity="0.95"/>
<mask id="path-6-inside-3_1637_8876" fill="white">
<path d="M866.667 0H1300V68H866.667V0Z"/>
</mask>
<path d="M1300 68V69H1301V68H1300ZM1299 0V68H1301V0H1299ZM1300 67H866.667V69H1300V67Z" fill="white" fill-opacity="0.3" mask="url(#path-6-inside-3_1637_8876)"/>
<path d="M901.439 40.1818C900.621 40.1818 899.917 39.9886 899.326 39.6023C898.735 39.2159 898.28 38.6837 897.962 38.0057C897.644 37.3277 897.485 36.553 897.485 35.6818C897.485 34.7955 897.648 34.0133 897.973 33.3352C898.303 32.6534 898.761 32.1212 899.348 31.7386C899.939 31.3523 900.629 31.1591 901.417 31.1591C902.03 31.1591 902.583 31.2727 903.076 31.5C903.568 31.7273 903.972 32.0455 904.286 32.4545C904.6 32.8636 904.795 33.3409 904.871 33.8864H903.53C903.428 33.4886 903.201 33.1364 902.848 32.8295C902.5 32.5189 902.03 32.3636 901.439 32.3636C900.917 32.3636 900.458 32.5 900.064 32.7727C899.674 33.0417 899.369 33.4223 899.15 33.9148C898.934 34.4034 898.826 34.9773 898.826 35.6364C898.826 36.3106 898.932 36.8977 899.144 37.3977C899.36 37.8977 899.663 38.286 900.053 38.5625C900.447 38.839 900.909 38.9773 901.439 38.9773C901.788 38.9773 902.104 38.9167 902.388 38.7955C902.672 38.6742 902.913 38.5 903.11 38.2727C903.307 38.0455 903.447 37.7727 903.53 37.4545H904.871C904.795 37.9697 904.608 38.4337 904.309 38.8466C904.013 39.2557 903.621 39.5814 903.133 39.8239C902.648 40.0625 902.083 40.1818 901.439 40.1818ZM910.377 40.1818C909.589 40.1818 908.898 39.9943 908.303 39.6193C907.712 39.2443 907.25 38.7197 906.917 38.0455C906.587 37.3712 906.422 36.5833 906.422 35.6818C906.422 34.7727 906.587 33.9792 906.917 33.3011C907.25 32.6231 907.712 32.0966 908.303 31.7216C908.898 31.3466 909.589 31.1591 910.377 31.1591C911.165 31.1591 911.854 31.3466 912.445 31.7216C913.04 32.0966 913.502 32.6231 913.831 33.3011C914.165 33.9792 914.331 34.7727 914.331 35.6818C914.331 36.5833 914.165 37.3712 913.831 38.0455C913.502 38.7197 913.04 39.2443 912.445 39.6193C911.854 39.9943 911.165 40.1818 910.377 40.1818ZM910.377 38.9773C910.975 38.9773 911.468 38.8239 911.854 38.517C912.24 38.2102 912.526 37.8068 912.712 37.3068C912.898 36.8068 912.99 36.2652 912.99 35.6818C912.99 35.0985 912.898 34.5549 912.712 34.0511C912.526 33.5473 912.24 33.1402 911.854 32.8295C911.468 32.5189 910.975 32.3636 910.377 32.3636C909.778 32.3636 909.286 32.5189 908.9 32.8295C908.513 33.1402 908.227 33.5473 908.042 34.0511C907.856 34.5549 907.763 35.0985 907.763 35.6818C907.763 36.2652 907.856 36.8068 908.042 37.3068C908.227 37.8068 908.513 38.2102 908.9 38.517C909.286 38.8239 909.778 38.9773 910.377 38.9773ZM917.719 28.3636V40H916.378V28.3636H917.719ZM923.721 40.1818C922.933 40.1818 922.241 39.9943 921.647 39.6193C921.056 39.2443 920.594 38.7197 920.26 38.0455C919.931 37.3712 919.766 36.5833 919.766 35.6818C919.766 34.7727 919.931 33.9792 920.26 33.3011C920.594 32.6231 921.056 32.0966 921.647 31.7216C922.241 31.3466 922.933 31.1591 923.721 31.1591C924.508 31.1591 925.198 31.3466 925.789 31.7216C926.383 32.0966 926.846 32.6231 927.175 33.3011C927.508 33.9792 927.675 34.7727 927.675 35.6818C927.675 36.5833 927.508 37.3712 927.175 38.0455C926.846 38.7197 926.383 39.2443 925.789 39.6193C925.198 39.9943 924.508 40.1818 923.721 40.1818ZM923.721 38.9773C924.319 38.9773 924.812 38.8239 925.198 38.517C925.584 38.2102 925.87 37.8068 926.056 37.3068C926.241 36.8068 926.334 36.2652 926.334 35.6818C926.334 35.0985 926.241 34.5549 926.056 34.0511C925.87 33.5473 925.584 33.1402 925.198 32.8295C924.812 32.5189 924.319 32.3636 923.721 32.3636C923.122 32.3636 922.63 32.5189 922.243 32.8295C921.857 33.1402 921.571 33.5473 921.385 34.0511C921.2 34.5549 921.107 35.0985 921.107 35.6818C921.107 36.2652 921.2 36.8068 921.385 37.3068C921.571 37.8068 921.857 38.2102 922.243 38.517C922.63 38.8239 923.122 38.9773 923.721 38.9773ZM929.722 40V31.2727H931.017V32.5909H931.108C931.267 32.1591 931.555 31.8087 931.972 31.5398C932.389 31.2708 932.858 31.1364 933.381 31.1364C933.48 31.1364 933.603 31.1383 933.75 31.142C933.898 31.1458 934.01 31.1515 934.086 31.1591V32.5227C934.04 32.5114 933.936 32.4943 933.773 32.4716C933.614 32.4451 933.446 32.4318 933.267 32.4318C932.843 32.4318 932.464 32.5208 932.131 32.6989C931.802 32.8731 931.54 33.1155 931.347 33.4261C931.158 33.733 931.063 34.0833 931.063 34.4773V40H929.722ZM935.652 40.0909C935.372 40.0909 935.132 39.9905 934.931 39.7898C934.73 39.589 934.63 39.3485 934.63 39.0682C934.63 38.7879 934.73 38.5473 934.931 38.3466C935.132 38.1458 935.372 38.0455 935.652 38.0455C935.933 38.0455 936.173 38.1458 936.374 38.3466C936.575 38.5473 936.675 38.7879 936.675 39.0682C936.675 39.2538 936.628 39.4242 936.533 39.5795C936.442 39.7348 936.319 39.8598 936.164 39.9545C936.012 40.0455 935.842 40.0909 935.652 40.0909ZM942.877 31.2727V32.4091H938.354V31.2727H942.877ZM939.672 29.1818H941.013V37.5C941.013 37.8788 941.068 38.1629 941.178 38.3523C941.292 38.5379 941.436 38.6629 941.61 38.7273C941.788 38.7879 941.975 38.8182 942.172 38.8182C942.32 38.8182 942.441 38.8106 942.536 38.7955C942.631 38.7765 942.706 38.7614 942.763 38.75L943.036 39.9545C942.945 39.9886 942.818 40.0227 942.655 40.0568C942.492 40.0947 942.286 40.1136 942.036 40.1136C941.657 40.1136 941.286 40.0322 940.922 39.8693C940.562 39.7064 940.263 39.4583 940.025 39.125C939.79 38.7917 939.672 38.3712 939.672 37.8636V29.1818ZM946.422 34.75V40H945.081V28.3636H946.422V32.6364H946.536C946.74 32.1856 947.047 31.8277 947.456 31.5625C947.869 31.2936 948.419 31.1591 949.104 31.1591C949.699 31.1591 950.22 31.2784 950.667 31.517C951.114 31.7519 951.46 32.1136 951.706 32.6023C951.956 33.0871 952.081 33.7045 952.081 34.4545V40H950.74V34.5455C950.74 33.8523 950.561 33.3163 950.201 32.9375C949.845 32.5549 949.35 32.3636 948.718 32.3636C948.278 32.3636 947.884 32.4564 947.536 32.642C947.191 32.8277 946.919 33.0985 946.718 33.4545C946.521 33.8106 946.422 34.2424 946.422 34.75ZM958.194 40.1818C957.353 40.1818 956.627 39.9962 956.017 39.625C955.411 39.25 954.944 38.7273 954.614 38.0568C954.288 37.3826 954.125 36.5985 954.125 35.7045C954.125 34.8106 954.288 34.0227 954.614 33.3409C954.944 32.6553 955.402 32.1212 955.989 31.7386C956.58 31.3523 957.269 31.1591 958.057 31.1591C958.512 31.1591 958.961 31.2348 959.404 31.3864C959.847 31.5379 960.25 31.7841 960.614 32.125C960.978 32.4621 961.267 32.9091 961.483 33.4659C961.699 34.0227 961.807 34.7083 961.807 35.5227V36.0909H955.08V34.9318H960.444C960.444 34.4394 960.345 34 960.148 33.6136C959.955 33.2273 959.678 32.9223 959.319 32.6989C958.963 32.4754 958.542 32.3636 958.057 32.3636C957.523 32.3636 957.061 32.4962 956.671 32.7614C956.285 33.0227 955.987 33.3636 955.779 33.7841C955.571 34.2045 955.466 34.6553 955.466 35.1364V35.9091C955.466 36.5682 955.58 37.1269 955.807 37.5852C956.038 38.0398 956.358 38.3864 956.767 38.625C957.177 38.8598 957.652 38.9773 958.194 38.9773C958.546 38.9773 958.864 38.928 959.148 38.8295C959.436 38.7273 959.684 38.5758 959.892 38.375C960.101 38.1705 960.262 37.9167 960.375 37.6136L961.671 37.9773C961.535 38.4167 961.305 38.803 960.983 39.1364C960.661 39.4659 960.264 39.7235 959.79 39.9091C959.317 40.0909 958.785 40.1818 958.194 40.1818ZM963.847 40V31.2727H965.142V32.6364H965.256C965.438 32.1705 965.731 31.8087 966.137 31.5511C966.542 31.2898 967.029 31.1591 967.597 31.1591C968.173 31.1591 968.652 31.2898 969.035 31.5511C969.421 31.8087 969.722 32.1705 969.938 32.6364H970.029C970.252 32.1856 970.588 31.8277 971.035 31.5625C971.481 31.2936 972.017 31.1591 972.642 31.1591C973.423 31.1591 974.061 31.4034 974.557 31.892C975.053 32.3769 975.302 33.1326 975.302 34.1591V40H973.961V34.1591C973.961 33.5152 973.785 33.0549 973.432 32.7784C973.08 32.5019 972.665 32.3636 972.188 32.3636C971.574 32.3636 971.099 32.5492 970.762 32.9205C970.425 33.2879 970.256 33.7538 970.256 34.3182V40H968.892V34.0227C968.892 33.5265 968.731 33.1269 968.41 32.8239C968.088 32.517 967.673 32.3636 967.165 32.3636C966.817 32.3636 966.491 32.4564 966.188 32.642C965.889 32.8277 965.646 33.0852 965.461 33.4148C965.279 33.7405 965.188 34.1174 965.188 34.5455V40H963.847ZM981.412 40.1818C980.571 40.1818 979.846 39.9962 979.236 39.625C978.63 39.25 978.162 38.7273 977.833 38.0568C977.507 37.3826 977.344 36.5985 977.344 35.7045C977.344 34.8106 977.507 34.0227 977.833 33.3409C978.162 32.6553 978.621 32.1212 979.208 31.7386C979.799 31.3523 980.488 31.1591 981.276 31.1591C981.731 31.1591 982.179 31.2348 982.623 31.3864C983.066 31.5379 983.469 31.7841 983.833 32.125C984.196 32.4621 984.486 32.9091 984.702 33.4659C984.918 34.0227 985.026 34.7083 985.026 35.5227V36.0909H978.299V34.9318H983.662C983.662 34.4394 983.564 34 983.367 33.6136C983.174 33.2273 982.897 32.9223 982.537 32.6989C982.181 32.4754 981.761 32.3636 981.276 32.3636C980.742 32.3636 980.28 32.4962 979.89 32.7614C979.503 33.0227 979.206 33.3636 978.998 33.7841C978.789 34.2045 978.685 34.6553 978.685 35.1364V35.9091C978.685 36.5682 978.799 37.1269 979.026 37.5852C979.257 38.0398 979.577 38.3864 979.986 38.625C980.395 38.8598 980.871 38.9773 981.412 38.9773C981.765 38.9773 982.083 38.928 982.367 38.8295C982.655 38.7273 982.903 38.5758 983.111 38.375C983.32 38.1705 983.481 37.9167 983.594 37.6136L984.89 37.9773C984.753 38.4167 984.524 38.803 984.202 39.1364C983.88 39.4659 983.482 39.7235 983.009 39.9091C982.535 40.0909 982.003 40.1818 981.412 40.1818ZM988.043 40.0909C987.763 40.0909 987.522 39.9905 987.321 39.7898C987.121 39.589 987.02 39.3485 987.02 39.0682C987.02 38.7879 987.121 38.5473 987.321 38.3466C987.522 38.1458 987.763 38.0455 988.043 38.0455C988.323 38.0455 988.564 38.1458 988.765 38.3466C988.965 38.5473 989.066 38.7879 989.066 39.0682C989.066 39.2538 989.018 39.4242 988.924 39.5795C988.833 39.7348 988.71 39.8598 988.554 39.9545C988.403 40.0455 988.232 40.0909 988.043 40.0909ZM995.017 40.1818C994.199 40.1818 993.495 39.9886 992.904 39.6023C992.313 39.2159 991.858 38.6837 991.54 38.0057C991.222 37.3277 991.063 36.553 991.063 35.6818C991.063 34.7955 991.226 34.0133 991.552 33.3352C991.881 32.6534 992.339 32.1212 992.927 31.7386C993.517 31.3523 994.207 31.1591 994.995 31.1591C995.608 31.1591 996.161 31.2727 996.654 31.5C997.146 31.7273 997.55 32.0455 997.864 32.4545C998.178 32.8636 998.374 33.3409 998.449 33.8864H997.108C997.006 33.4886 996.779 33.1364 996.427 32.8295C996.078 32.5189 995.608 32.3636 995.017 32.3636C994.495 32.3636 994.036 32.5 993.642 32.7727C993.252 33.0417 992.947 33.4223 992.728 33.9148C992.512 34.4034 992.404 34.9773 992.404 35.6364C992.404 36.3106 992.51 36.8977 992.722 37.3977C992.938 37.8977 993.241 38.286 993.631 38.5625C994.025 38.839 994.487 38.9773 995.017 38.9773C995.366 38.9773 995.682 38.9167 995.966 38.7955C996.25 38.6742 996.491 38.5 996.688 38.2727C996.885 38.0455 997.025 37.7727 997.108 37.4545H998.449C998.374 37.9697 998.186 38.4337 997.887 38.8466C997.591 39.2557 997.199 39.5814 996.711 39.8239C996.226 40.0625 995.661 40.1818 995.017 40.1818ZM1003.95 40.1818C1003.17 40.1818 1002.48 39.9943 1001.88 39.6193C1001.29 39.2443 1000.83 38.7197 1000.49 38.0455C1000.17 37.3712 1000 36.5833 1000 35.6818C1000 34.7727 1000.17 33.9792 1000.49 33.3011C1000.83 32.6231 1001.29 32.0966 1001.88 31.7216C1002.48 31.3466 1003.17 31.1591 1003.95 31.1591C1004.74 31.1591 1005.43 31.3466 1006.02 31.7216C1006.62 32.0966 1007.08 32.6231 1007.41 33.3011C1007.74 33.9792 1007.91 34.7727 1007.91 35.6818C1007.91 36.5833 1007.74 37.3712 1007.41 38.0455C1007.08 38.7197 1006.62 39.2443 1006.02 39.6193C1005.43 39.9943 1004.74 40.1818 1003.95 40.1818ZM1003.95 38.9773C1004.55 38.9773 1005.05 38.8239 1005.43 38.517C1005.82 38.2102 1006.1 37.8068 1006.29 37.3068C1006.48 36.8068 1006.57 36.2652 1006.57 35.6818C1006.57 35.0985 1006.48 34.5549 1006.29 34.0511C1006.1 33.5473 1005.82 33.1402 1005.43 32.8295C1005.05 32.5189 1004.55 32.3636 1003.95 32.3636C1003.36 32.3636 1002.86 32.5189 1002.48 32.8295C1002.09 33.1402 1001.81 33.5473 1001.62 34.0511C1001.43 34.5549 1001.34 35.0985 1001.34 35.6818C1001.34 36.2652 1001.43 36.8068 1001.62 37.3068C1001.81 37.8068 1002.09 38.2102 1002.48 38.517C1002.86 38.8239 1003.36 38.9773 1003.95 38.9773ZM1011.3 34.75V40H1009.96V31.2727H1011.25V32.6364H1011.37C1011.57 32.1932 1011.88 31.8371 1012.3 31.5682C1012.71 31.2955 1013.25 31.1591 1013.91 31.1591C1014.5 31.1591 1015.02 31.2803 1015.46 31.5227C1015.91 31.7614 1016.25 32.125 1016.5 32.6136C1016.74 33.0985 1016.87 33.7121 1016.87 34.4545V40H1015.52V34.5455C1015.52 33.8598 1015.35 33.3258 1014.99 32.9432C1014.63 32.5568 1014.15 32.3636 1013.52 32.3636C1013.1 32.3636 1012.71 32.4564 1012.38 32.642C1012.04 32.8277 1011.78 33.0985 1011.59 33.4545C1011.39 33.8106 1011.3 34.2424 1011.3 34.75ZM1023.11 31.2727V32.4091H1018.59V31.2727H1023.11ZM1019.91 29.1818H1021.25V37.5C1021.25 37.8788 1021.3 38.1629 1021.41 38.3523C1021.53 38.5379 1021.67 38.6629 1021.84 38.7273C1022.02 38.7879 1022.21 38.8182 1022.41 38.8182C1022.55 38.8182 1022.68 38.8106 1022.77 38.7955C1022.87 38.7765 1022.94 38.7614 1023 38.75L1023.27 39.9545C1023.18 39.9886 1023.05 40.0227 1022.89 40.0568C1022.73 40.0947 1022.52 40.1136 1022.27 40.1136C1021.89 40.1136 1021.52 40.0322 1021.16 39.8693C1020.8 39.7064 1020.5 39.4583 1020.26 39.125C1020.02 38.7917 1019.91 38.3712 1019.91 37.8636V29.1818ZM1028.69 40.1818C1027.85 40.1818 1027.13 39.9962 1026.52 39.625C1025.91 39.25 1025.44 38.7273 1025.11 38.0568C1024.79 37.3826 1024.63 36.5985 1024.63 35.7045C1024.63 34.8106 1024.79 34.0227 1025.11 33.3409C1025.44 32.6553 1025.9 32.1212 1026.49 31.7386C1027.08 31.3523 1027.77 31.1591 1028.56 31.1591C1029.01 31.1591 1029.46 31.2348 1029.9 31.3864C1030.35 31.5379 1030.75 31.7841 1031.11 32.125C1031.48 32.4621 1031.77 32.9091 1031.98 33.4659C1032.2 34.0227 1032.31 34.7083 1032.31 35.5227V36.0909H1025.58V34.9318H1030.94C1030.94 34.4394 1030.85 34 1030.65 33.6136C1030.45 33.2273 1030.18 32.9223 1029.82 32.6989C1029.46 32.4754 1029.04 32.3636 1028.56 32.3636C1028.02 32.3636 1027.56 32.4962 1027.17 32.7614C1026.78 33.0227 1026.49 33.3636 1026.28 33.7841C1026.07 34.2045 1025.97 34.6553 1025.97 35.1364V35.9091C1025.97 36.5682 1026.08 37.1269 1026.31 37.5852C1026.54 38.0398 1026.86 38.3864 1027.27 38.625C1027.68 38.8598 1028.15 38.9773 1028.69 38.9773C1029.05 38.9773 1029.36 38.928 1029.65 38.8295C1029.94 38.7273 1030.18 38.5758 1030.39 38.375C1030.6 38.1705 1030.76 37.9167 1030.88 37.6136L1032.17 37.9773C1032.03 38.4167 1031.81 38.803 1031.48 39.1364C1031.16 39.4659 1030.76 39.7235 1030.29 39.9091C1029.82 40.0909 1029.28 40.1818 1028.69 40.1818ZM1035.69 34.75V40H1034.35V31.2727H1035.64V32.6364H1035.76C1035.96 32.1932 1036.27 31.8371 1036.69 31.5682C1037.1 31.2955 1037.64 31.1591 1038.3 31.1591C1038.89 31.1591 1039.41 31.2803 1039.85 31.5227C1040.3 31.7614 1040.64 32.125 1040.89 32.6136C1041.13 33.0985 1041.26 33.7121 1041.26 34.4545V40H1039.92V34.5455C1039.92 33.8598 1039.74 33.3258 1039.38 32.9432C1039.03 32.5568 1038.54 32.3636 1037.92 32.3636C1037.49 32.3636 1037.1 32.4564 1036.77 32.642C1036.43 32.8277 1036.17 33.0985 1035.98 33.4545C1035.78 33.8106 1035.69 34.2424 1035.69 34.75ZM1047.5 31.2727V32.4091H1042.98V31.2727H1047.5ZM1044.3 29.1818H1045.64V37.5C1045.64 37.8788 1045.69 38.1629 1045.8 38.3523C1045.92 38.5379 1046.06 38.6629 1046.23 38.7273C1046.41 38.7879 1046.6 38.8182 1046.8 38.8182C1046.95 38.8182 1047.07 38.8106 1047.16 38.7955C1047.26 38.7765 1047.33 38.7614 1047.39 38.75L1047.66 39.9545C1047.57 39.9886 1047.44 40.0227 1047.28 40.0568C1047.12 40.0947 1046.91 40.1136 1046.66 40.1136C1046.28 40.1136 1045.91 40.0322 1045.55 39.8693C1045.19 39.7064 1044.89 39.4583 1044.65 39.125C1044.41 38.7917 1044.3 38.3712 1044.3 37.8636V29.1818ZM1050.5 40.0909C1050.22 40.0909 1049.98 39.9905 1049.77 39.7898C1049.57 39.589 1049.47 39.3485 1049.47 39.0682C1049.47 38.7879 1049.57 38.5473 1049.77 38.3466C1049.98 38.1458 1050.22 38.0455 1050.5 38.0455C1050.78 38.0455 1051.02 38.1458 1051.22 38.3466C1051.42 38.5473 1051.52 38.7879 1051.52 39.0682C1051.52 39.2538 1051.47 39.4242 1051.38 39.5795C1051.29 39.7348 1051.16 39.8598 1051.01 39.9545C1050.86 40.0455 1050.69 40.0909 1050.5 40.0909ZM1053.93 40V31.2727H1055.27V40H1053.93ZM1054.61 29.8182C1054.35 29.8182 1054.12 29.7292 1053.93 29.5511C1053.75 29.3731 1053.65 29.1591 1053.65 28.9091C1053.65 28.6591 1053.75 28.4451 1053.93 28.267C1054.12 28.089 1054.35 28 1054.61 28C1054.87 28 1055.09 28.089 1055.28 28.267C1055.47 28.4451 1055.56 28.6591 1055.56 28.9091C1055.56 29.1591 1055.47 29.3731 1055.28 29.5511C1055.09 29.7292 1054.87 29.8182 1054.61 29.8182ZM1059.06 34.75V40H1057.72V31.2727H1059.02V32.6364H1059.13C1059.34 32.1932 1059.65 31.8371 1060.06 31.5682C1060.48 31.2955 1061.02 31.1591 1061.68 31.1591C1062.27 31.1591 1062.78 31.2803 1063.23 31.5227C1063.67 31.7614 1064.02 32.125 1064.26 32.6136C1064.51 33.0985 1064.63 33.7121 1064.63 34.4545V40H1063.29V34.5455C1063.29 33.8598 1063.11 33.3258 1062.76 32.9432C1062.4 32.5568 1061.91 32.3636 1061.29 32.3636C1060.86 32.3636 1060.48 32.4564 1060.14 32.642C1059.81 32.8277 1059.55 33.0985 1059.35 33.4545C1059.16 33.8106 1059.06 34.2424 1059.06 34.75ZM1070.38 40.1818C1069.65 40.1818 1069.01 39.9981 1068.45 39.6307C1067.89 39.2595 1067.46 38.7367 1067.14 38.0625C1066.83 37.3845 1066.67 36.5833 1066.67 35.6591C1066.67 34.7424 1066.83 33.947 1067.14 33.2727C1067.46 32.5985 1067.9 32.0777 1068.46 31.7102C1069.02 31.3428 1069.66 31.1591 1070.4 31.1591C1070.97 31.1591 1071.42 31.2538 1071.75 31.4432C1072.08 31.6288 1072.33 31.8409 1072.51 32.0795C1072.69 32.3144 1072.82 32.5076 1072.92 32.6591H1073.04V28.3636H1074.38V40H1073.08V38.6591H1072.92C1072.82 38.8182 1072.68 39.0189 1072.5 39.2614C1072.32 39.5 1072.06 39.714 1071.72 39.9034C1071.39 40.089 1070.94 40.1818 1070.38 40.1818ZM1070.56 38.9773C1071.1 38.9773 1071.55 38.8371 1071.92 38.5568C1072.29 38.2727 1072.58 37.8807 1072.77 37.3807C1072.96 36.8769 1073.06 36.2955 1073.06 35.6364C1073.06 34.9848 1072.96 34.4148 1072.77 33.9261C1072.59 33.4337 1072.3 33.0511 1071.93 32.7784C1071.56 32.5019 1071.1 32.3636 1070.56 32.3636C1069.99 32.3636 1069.52 32.5095 1069.14 32.8011C1068.76 33.089 1068.48 33.4811 1068.29 33.9773C1068.11 34.4697 1068.01 35.0227 1068.01 35.6364C1068.01 36.2576 1068.11 36.822 1068.3 37.3295C1068.49 37.8333 1068.77 38.2348 1069.15 38.5341C1069.53 38.8295 1070 38.9773 1070.56 38.9773ZM1077.02 40V31.2727H1078.36V40H1077.02ZM1077.7 29.8182C1077.44 29.8182 1077.21 29.7292 1077.02 29.5511C1076.84 29.3731 1076.75 29.1591 1076.75 28.9091C1076.75 28.6591 1076.84 28.4451 1077.02 28.267C1077.21 28.089 1077.44 28 1077.7 28C1077.96 28 1078.19 28.089 1078.37 28.267C1078.56 28.4451 1078.66 28.6591 1078.66 28.9091C1078.66 29.1591 1078.56 29.3731 1078.37 29.5511C1078.19 29.7292 1077.96 29.8182 1077.7 29.8182ZM1084.36 40.1818C1083.54 40.1818 1082.84 39.9886 1082.25 39.6023C1081.66 39.2159 1081.2 38.6837 1080.88 38.0057C1080.57 37.3277 1080.41 36.553 1080.41 35.6818C1080.41 34.7955 1080.57 34.0133 1080.9 33.3352C1081.22 32.6534 1081.68 32.1212 1082.27 31.7386C1082.86 31.3523 1083.55 31.1591 1084.34 31.1591C1084.95 31.1591 1085.51 31.2727 1086 31.5C1086.49 31.7273 1086.89 32.0455 1087.21 32.4545C1087.52 32.8636 1087.72 33.3409 1087.79 33.8864H1086.45C1086.35 33.4886 1086.12 33.1364 1085.77 32.8295C1085.42 32.5189 1084.95 32.3636 1084.36 32.3636C1083.84 32.3636 1083.38 32.5 1082.99 32.7727C1082.6 33.0417 1082.29 33.4223 1082.07 33.9148C1081.86 34.4034 1081.75 34.9773 1081.75 35.6364C1081.75 36.3106 1081.85 36.8977 1082.07 37.3977C1082.28 37.8977 1082.58 38.286 1082.97 38.5625C1083.37 38.839 1083.83 38.9773 1084.36 38.9773C1084.71 38.9773 1085.03 38.9167 1085.31 38.7955C1085.59 38.6742 1085.83 38.5 1086.03 38.2727C1086.23 38.0455 1086.37 37.7727 1086.45 37.4545H1087.79C1087.72 37.9697 1087.53 38.4337 1087.23 38.8466C1086.94 39.2557 1086.54 39.5814 1086.05 39.8239C1085.57 40.0625 1085.01 40.1818 1084.36 40.1818ZM1092.32 40.2045C1091.77 40.2045 1091.27 40.1004 1090.82 39.892C1090.37 39.6799 1090.01 39.375 1089.74 38.9773C1089.48 38.5758 1089.34 38.0909 1089.34 37.5227C1089.34 37.0227 1089.44 36.6174 1089.64 36.3068C1089.84 35.9924 1090.1 35.7462 1090.43 35.5682C1090.76 35.3902 1091.12 35.2576 1091.52 35.1705C1091.92 35.0795 1092.33 35.0076 1092.73 34.9545C1093.26 34.8864 1093.69 34.8352 1094.02 34.8011C1094.35 34.7633 1094.6 34.7008 1094.75 34.6136C1094.9 34.5265 1094.98 34.375 1094.98 34.1591V34.1136C1094.98 33.553 1094.83 33.1174 1094.52 32.8068C1094.22 32.4962 1093.76 32.3409 1093.14 32.3409C1092.5 32.3409 1092 32.4811 1091.63 32.7614C1091.27 33.0417 1091.01 33.3409 1090.87 33.6591L1089.59 33.2045C1089.82 32.6742 1090.12 32.2614 1090.5 31.9659C1090.89 31.6667 1091.3 31.4583 1091.75 31.3409C1092.21 31.2197 1092.65 31.1591 1093.09 31.1591C1093.37 31.1591 1093.7 31.1932 1094.06 31.2614C1094.43 31.3258 1094.78 31.4602 1095.12 31.6648C1095.47 31.8693 1095.75 32.178 1095.98 32.5909C1096.21 33.0038 1096.32 33.5568 1096.32 34.25V40H1094.98V38.8182H1094.91C1094.82 39.0076 1094.67 39.2102 1094.46 39.4261C1094.25 39.642 1093.96 39.8258 1093.61 39.9773C1093.26 40.1288 1092.83 40.2045 1092.32 40.2045ZM1092.53 39C1093.06 39 1093.5 38.8958 1093.87 38.6875C1094.23 38.4792 1094.51 38.2102 1094.7 37.8807C1094.89 37.5511 1094.98 37.2045 1094.98 36.8409V35.6136C1094.92 35.6818 1094.8 35.7443 1094.61 35.8011C1094.42 35.8542 1094.2 35.9015 1093.95 35.9432C1093.7 35.9811 1093.46 36.0152 1093.22 36.0455C1092.99 36.072 1092.81 36.0947 1092.66 36.1136C1092.31 36.1591 1091.99 36.233 1091.69 36.3352C1091.39 36.4337 1091.14 36.5833 1090.96 36.7841C1090.78 36.9811 1090.69 37.25 1090.69 37.5909C1090.69 38.0568 1090.86 38.4091 1091.2 38.6477C1091.55 38.8826 1091.99 39 1092.53 39ZM1102.56 31.2727V32.4091H1098.04V31.2727H1102.56ZM1099.36 29.1818H1100.7V37.5C1100.7 37.8788 1100.76 38.1629 1100.87 38.3523C1100.98 38.5379 1101.12 38.6629 1101.3 38.7273C1101.48 38.7879 1101.66 38.8182 1101.86 38.8182C1102.01 38.8182 1102.13 38.8106 1102.22 38.7955C1102.32 38.7765 1102.39 38.7614 1102.45 38.75L1102.72 39.9545C1102.63 39.9886 1102.51 40.0227 1102.34 40.0568C1102.18 40.0947 1101.97 40.1136 1101.72 40.1136C1101.34 40.1136 1100.97 40.0322 1100.61 39.8693C1100.25 39.7064 1099.95 39.4583 1099.71 39.125C1099.48 38.7917 1099.36 38.3712 1099.36 37.8636V29.1818ZM1108.03 40.1818C1107.25 40.1818 1106.55 39.9943 1105.96 39.6193C1105.37 39.2443 1104.91 38.7197 1104.57 38.0455C1104.24 37.3712 1104.08 36.5833 1104.08 35.6818C1104.08 34.7727 1104.24 33.9792 1104.57 33.3011C1104.91 32.6231 1105.37 32.0966 1105.96 31.7216C1106.55 31.3466 1107.25 31.1591 1108.03 31.1591C1108.82 31.1591 1109.51 31.3466 1110.1 31.7216C1110.7 32.0966 1111.16 32.6231 1111.49 33.3011C1111.82 33.9792 1111.99 34.7727 1111.99 35.6818C1111.99 36.5833 1111.82 37.3712 1111.49 38.0455C1111.16 38.7197 1110.7 39.2443 1110.1 39.6193C1109.51 39.9943 1108.82 40.1818 1108.03 40.1818ZM1108.03 38.9773C1108.63 38.9773 1109.12 38.8239 1109.51 38.517C1109.9 38.2102 1110.18 37.8068 1110.37 37.3068C1110.55 36.8068 1110.65 36.2652 1110.65 35.6818C1110.65 35.0985 1110.55 34.5549 1110.37 34.0511C1110.18 33.5473 1109.9 33.1402 1109.51 32.8295C1109.12 32.5189 1108.63 32.3636 1108.03 32.3636C1107.43 32.3636 1106.94 32.5189 1106.56 32.8295C1106.17 33.1402 1105.88 33.5473 1105.7 34.0511C1105.51 34.5549 1105.42 35.0985 1105.42 35.6818C1105.42 36.2652 1105.51 36.8068 1105.7 37.3068C1105.88 37.8068 1106.17 38.2102 1106.56 38.517C1106.94 38.8239 1107.43 38.9773 1108.03 38.9773ZM1114.03 40V31.2727H1115.33V32.5909H1115.42C1115.58 32.1591 1115.87 31.8087 1116.28 31.5398C1116.7 31.2708 1117.17 31.1364 1117.69 31.1364C1117.79 31.1364 1117.92 31.1383 1118.06 31.142C1118.21 31.1458 1118.32 31.1515 1118.4 31.1591V32.5227C1118.35 32.5114 1118.25 32.4943 1118.09 32.4716C1117.93 32.4451 1117.76 32.4318 1117.58 32.4318C1117.16 32.4318 1116.78 32.5208 1116.44 32.6989C1116.11 32.8731 1115.85 33.1155 1115.66 33.4261C1115.47 33.733 1115.38 34.0833 1115.38 34.4773V40H1114.03ZM1119.96 40.0909C1119.68 40.0909 1119.44 39.9905 1119.24 39.7898C1119.04 39.589 1118.94 39.3485 1118.94 39.0682C1118.94 38.7879 1119.04 38.5473 1119.24 38.3466C1119.44 38.1458 1119.68 38.0455 1119.96 38.0455C1120.25 38.0455 1120.49 38.1458 1120.69 38.3466C1120.89 38.5473 1120.99 38.7879 1120.99 39.0682C1120.99 39.2538 1120.94 39.4242 1120.85 39.5795C1120.75 39.7348 1120.63 39.8598 1120.48 39.9545C1120.32 40.0455 1120.15 40.0909 1119.96 40.0909ZM1125.96 40.2045C1125.41 40.2045 1124.91 40.1004 1124.46 39.892C1124.01 39.6799 1123.65 39.375 1123.38 38.9773C1123.12 38.5758 1122.98 38.0909 1122.98 37.5227C1122.98 37.0227 1123.08 36.6174 1123.28 36.3068C1123.48 35.9924 1123.74 35.7462 1124.07 35.5682C1124.4 35.3902 1124.76 35.2576 1125.16 35.1705C1125.56 35.0795 1125.97 35.0076 1126.37 34.9545C1126.9 34.8864 1127.33 34.8352 1127.66 34.8011C1127.99 34.7633 1128.24 34.7008 1128.39 34.6136C1128.54 34.5265 1128.62 34.375 1128.62 34.1591V34.1136C1128.62 33.553 1128.47 33.1174 1128.16 32.8068C1127.86 32.4962 1127.4 32.3409 1126.78 32.3409C1126.14 32.3409 1125.64 32.4811 1125.27 32.7614C1124.91 33.0417 1124.66 33.3409 1124.51 33.6591L1123.23 33.2045C1123.46 32.6742 1123.77 32.2614 1124.14 31.9659C1124.53 31.6667 1124.94 31.4583 1125.39 31.3409C1125.85 31.2197 1126.3 31.1591 1126.73 31.1591C1127.02 31.1591 1127.34 31.1932 1127.7 31.2614C1128.07 31.3258 1128.42 31.4602 1128.76 31.6648C1129.11 31.8693 1129.39 32.178 1129.62 32.5909C1129.85 33.0038 1129.96 33.5568 1129.96 34.25V40H1128.62V38.8182H1128.55C1128.46 39.0076 1128.31 39.2102 1128.1 39.4261C1127.89 39.642 1127.6 39.8258 1127.25 39.9773C1126.9 40.1288 1126.47 40.2045 1125.96 40.2045ZM1126.17 39C1126.7 39 1127.14 38.8958 1127.51 38.6875C1127.87 38.4792 1128.15 38.2102 1128.34 37.8807C1128.53 37.5511 1128.62 37.2045 1128.62 36.8409V35.6136C1128.56 35.6818 1128.44 35.7443 1128.25 35.8011C1128.06 35.8542 1127.84 35.9015 1127.59 35.9432C1127.34 35.9811 1127.1 36.0152 1126.87 36.0455C1126.63 36.072 1126.45 36.0947 1126.3 36.1136C1125.95 36.1591 1125.63 36.233 1125.33 36.3352C1125.03 36.4337 1124.78 36.5833 1124.6 36.7841C1124.42 36.9811 1124.33 37.25 1124.33 37.5909C1124.33 38.0568 1124.5 38.4091 1124.84 38.6477C1125.19 38.8826 1125.63 39 1126.17 39ZM1135.95 40.1818C1135.14 40.1818 1134.43 39.9886 1133.84 39.6023C1133.25 39.2159 1132.8 38.6837 1132.48 38.0057C1132.16 37.3277 1132 36.553 1132 35.6818C1132 34.7955 1132.16 34.0133 1132.49 33.3352C1132.82 32.6534 1133.28 32.1212 1133.86 31.7386C1134.45 31.3523 1135.14 31.1591 1135.93 31.1591C1136.55 31.1591 1137.1 31.2727 1137.59 31.5C1138.08 31.7273 1138.49 32.0455 1138.8 32.4545C1139.12 32.8636 1139.31 33.3409 1139.39 33.8864H1138.05C1137.94 33.4886 1137.72 33.1364 1137.36 32.8295C1137.02 32.5189 1136.55 32.3636 1135.95 32.3636C1135.43 32.3636 1134.97 32.5 1134.58 32.7727C1134.19 33.0417 1133.88 33.4223 1133.67 33.9148C1133.45 34.4034 1133.34 34.9773 1133.34 35.6364C1133.34 36.3106 1133.45 36.8977 1133.66 37.3977C1133.88 37.8977 1134.18 38.286 1134.57 38.5625C1134.96 38.839 1135.42 38.9773 1135.95 38.9773C1136.3 38.9773 1136.62 38.9167 1136.9 38.7955C1137.19 38.6742 1137.43 38.5 1137.63 38.2727C1137.82 38.0455 1137.96 37.7727 1138.05 37.4545H1139.39C1139.31 37.9697 1139.12 38.4337 1138.82 38.8466C1138.53 39.2557 1138.14 39.5814 1137.65 39.8239C1137.16 40.0625 1136.6 40.1818 1135.95 40.1818ZM1144.89 40.1818C1144.07 40.1818 1143.37 39.9886 1142.78 39.6023C1142.19 39.2159 1141.73 38.6837 1141.42 38.0057C1141.1 37.3277 1140.94 36.553 1140.94 35.6818C1140.94 34.7955 1141.1 34.0133 1141.43 33.3352C1141.76 32.6534 1142.21 32.1212 1142.8 31.7386C1143.39 31.3523 1144.08 31.1591 1144.87 31.1591C1145.48 31.1591 1146.04 31.2727 1146.53 31.5C1147.02 31.7273 1147.42 32.0455 1147.74 32.4545C1148.05 32.8636 1148.25 33.3409 1148.32 33.8864H1146.98C1146.88 33.4886 1146.65 33.1364 1146.3 32.8295C1145.95 32.5189 1145.48 32.3636 1144.89 32.3636C1144.37 32.3636 1143.91 32.5 1143.52 32.7727C1143.13 33.0417 1142.82 33.4223 1142.6 33.9148C1142.39 34.4034 1142.28 34.9773 1142.28 35.6364C1142.28 36.3106 1142.38 36.8977 1142.6 37.3977C1142.81 37.8977 1143.12 38.286 1143.51 38.5625C1143.9 38.839 1144.36 38.9773 1144.89 38.9773C1145.24 38.9773 1145.56 38.9167 1145.84 38.7955C1146.13 38.6742 1146.37 38.5 1146.56 38.2727C1146.76 38.0455 1146.9 37.7727 1146.98 37.4545H1148.32C1148.25 37.9697 1148.06 38.4337 1147.76 38.8466C1147.47 39.2557 1147.07 39.5814 1146.59 39.8239C1146.1 40.0625 1145.54 40.1818 1144.89 40.1818ZM1153.94 40.1818C1153.1 40.1818 1152.38 39.9962 1151.77 39.625C1151.16 39.25 1150.69 38.7273 1150.36 38.0568C1150.04 37.3826 1149.88 36.5985 1149.88 35.7045C1149.88 34.8106 1150.04 34.0227 1150.36 33.3409C1150.69 32.6553 1151.15 32.1212 1151.74 31.7386C1152.33 31.3523 1153.02 31.1591 1153.81 31.1591C1154.26 31.1591 1154.71 31.2348 1155.15 31.3864C1155.6 31.5379 1156 31.7841 1156.36 32.125C1156.73 32.4621 1157.02 32.9091 1157.23 33.4659C1157.45 34.0227 1157.56 34.7083 1157.56 35.5227V36.0909H1150.83V34.9318H1156.19C1156.19 34.4394 1156.1 34 1155.9 33.6136C1155.7 33.2273 1155.43 32.9223 1155.07 32.6989C1154.71 32.4754 1154.29 32.3636 1153.81 32.3636C1153.27 32.3636 1152.81 32.4962 1152.42 32.7614C1152.03 33.0227 1151.74 33.3636 1151.53 33.7841C1151.32 34.2045 1151.22 34.6553 1151.22 35.1364V35.9091C1151.22 36.5682 1151.33 37.1269 1151.56 37.5852C1151.79 38.0398 1152.11 38.3864 1152.52 38.625C1152.93 38.8598 1153.4 38.9773 1153.94 38.9773C1154.3 38.9773 1154.61 38.928 1154.9 38.8295C1155.19 38.7273 1155.43 38.5758 1155.64 38.375C1155.85 38.1705 1156.01 37.9167 1156.13 37.6136L1157.42 37.9773C1157.28 38.4167 1157.06 38.803 1156.73 39.1364C1156.41 39.4659 1156.01 39.7235 1155.54 39.9091C1155.07 40.0909 1154.53 40.1818 1153.94 40.1818ZM1160.94 34.75V40H1159.6V31.2727H1160.89V32.6364H1161.01C1161.21 32.1932 1161.52 31.8371 1161.94 31.5682C1162.35 31.2955 1162.89 31.1591 1163.55 31.1591C1164.14 31.1591 1164.66 31.2803 1165.1 31.5227C1165.55 31.7614 1165.89 32.125 1166.14 32.6136C1166.38 33.0985 1166.51 33.7121 1166.51 34.4545V40H1165.17V34.5455C1165.17 33.8598 1164.99 33.3258 1164.63 32.9432C1164.28 32.5568 1163.79 32.3636 1163.17 32.3636C1162.74 32.3636 1162.35 32.4564 1162.02 32.642C1161.68 32.8277 1161.42 33.0985 1161.23 33.4545C1161.03 33.8106 1160.94 34.2424 1160.94 34.75ZM1172.75 31.2727V32.4091H1168.23V31.2727H1172.75ZM1169.55 29.1818H1170.89V37.5C1170.89 37.8788 1170.94 38.1629 1171.05 38.3523C1171.17 38.5379 1171.31 38.6629 1171.48 38.7273C1171.66 38.7879 1171.85 38.8182 1172.05 38.8182C1172.2 38.8182 1172.32 38.8106 1172.41 38.7955C1172.51 38.7765 1172.58 38.7614 1172.64 38.75L1172.91 39.9545C1172.82 39.9886 1172.69 40.0227 1172.53 40.0568C1172.37 40.0947 1172.16 40.1136 1171.91 40.1136C1171.53 40.1136 1171.16 40.0322 1170.8 39.8693C1170.44 39.7064 1170.14 39.4583 1169.9 39.125C1169.66 38.7917 1169.55 38.3712 1169.55 37.8636V29.1818ZM1175.75 40.0909C1175.47 40.0909 1175.23 39.9905 1175.02 39.7898C1174.82 39.589 1174.72 39.3485 1174.72 39.0682C1174.72 38.7879 1174.82 38.5473 1175.02 38.3466C1175.23 38.1458 1175.47 38.0455 1175.75 38.0455C1176.03 38.0455 1176.27 38.1458 1176.47 38.3466C1176.67 38.5473 1176.77 38.7879 1176.77 39.0682C1176.77 39.2538 1176.72 39.4242 1176.63 39.5795C1176.54 39.7348 1176.41 39.8598 1176.26 39.9545C1176.11 40.0455 1175.94 40.0909 1175.75 40.0909ZM1182.54 40.1591C1181.69 40.1591 1180.96 39.9261 1180.35 39.4602C1179.75 38.9905 1179.29 38.3106 1178.97 37.4205C1178.66 36.5265 1178.5 35.447 1178.5 34.1818C1178.5 32.9242 1178.66 31.8504 1178.97 30.9602C1179.3 30.0663 1179.76 29.3845 1180.36 28.9148C1180.97 28.4413 1181.69 28.2045 1182.54 28.2045C1183.39 28.2045 1184.12 28.4413 1184.72 28.9148C1185.32 29.3845 1185.79 30.0663 1186.1 30.9602C1186.43 31.8504 1186.59 32.9242 1186.59 34.1818C1186.59 35.447 1186.43 36.5265 1186.11 37.4205C1185.79 38.3106 1185.33 38.9905 1184.73 39.4602C1184.13 39.9261 1183.4 40.1591 1182.54 40.1591ZM1182.54 38.9091C1183.39 38.9091 1184.05 38.5 1184.52 37.6818C1184.99 36.8636 1185.22 35.697 1185.22 34.1818C1185.22 33.1742 1185.12 32.3163 1184.9 31.608C1184.69 30.8996 1184.38 30.3598 1183.98 29.9886C1183.58 29.6174 1183.1 29.4318 1182.54 29.4318C1181.7 29.4318 1181.04 29.8466 1180.57 30.6761C1180.1 31.5019 1179.86 32.6705 1179.86 34.1818C1179.86 35.1894 1179.97 36.0455 1180.18 36.75C1180.39 37.4545 1180.7 37.9905 1181.09 38.358C1181.49 38.7254 1181.98 38.9091 1182.54 38.9091ZM1192.84 28.3636V40H1191.43V29.8409H1191.36L1188.52 31.7273V30.2955L1191.43 28.3636H1192.84Z" fill="white" fill-opacity="0.95"/>
</svg>
