<svg width="1300" height="68" viewBox="0 0 1300 68" fill="none" xmlns="http://www.w3.org/2000/svg">
<rect width="1300" height="68" fill="#1A1A1A"/>
<mask id="path-1-inside-1_1637_6907" fill="white">
<path d="M0 0H250V68H0V0Z"/>
</mask>
<path d="M249 0V68H251V0H249Z" fill="#707070" mask="url(#path-1-inside-1_1637_6907)"/>
<mask id="path-3-inside-2_1637_6907" fill="white">
<path d="M250 0H500V68H250V0Z"/>
</mask>
<path d="M499 0V68H501V0H499Z" fill="#707070" mask="url(#path-3-inside-2_1637_6907)"/>
<path d="M281.409 40V28.3636H282.818V38.75H288.227V40H281.409ZM290.227 40V31.2727H291.568V40H290.227ZM290.909 29.8182C290.648 29.8182 290.422 29.7292 290.233 29.5511C290.047 29.3731 289.955 29.1591 289.955 28.9091C289.955 28.6591 290.047 28.4451 290.233 28.267C290.422 28.089 290.648 28 290.909 28C291.17 28 291.394 28.089 291.58 28.267C291.769 28.4451 291.864 28.6591 291.864 28.9091C291.864 29.1591 291.769 29.3731 291.58 29.5511C291.394 29.7292 291.17 29.8182 290.909 29.8182ZM294.024 40V31.2727H295.32V32.6364H295.433C295.615 32.1705 295.909 31.8087 296.314 31.5511C296.719 31.2898 297.206 31.1591 297.774 31.1591C298.35 31.1591 298.829 31.2898 299.212 31.5511C299.598 31.8087 299.899 32.1705 300.115 32.6364H300.206C300.429 32.1856 300.765 31.8277 301.212 31.5625C301.659 31.2936 302.195 31.1591 302.82 31.1591C303.6 31.1591 304.238 31.4034 304.734 31.892C305.231 32.3769 305.479 33.1326 305.479 34.1591V40H304.138V34.1591C304.138 33.5152 303.962 33.0549 303.609 32.7784C303.257 32.5019 302.842 32.3636 302.365 32.3636C301.751 32.3636 301.276 32.5492 300.939 32.9205C300.602 33.2879 300.433 33.7538 300.433 34.3182V40H299.07V34.0227C299.07 33.5265 298.909 33.1269 298.587 32.8239C298.265 32.517 297.85 32.3636 297.342 32.3636C296.994 32.3636 296.668 32.4564 296.365 32.642C296.066 32.8277 295.823 33.0852 295.638 33.4148C295.456 33.7405 295.365 34.1174 295.365 34.5455V40H294.024ZM311.589 40.1818C310.749 40.1818 310.023 39.9962 309.413 39.625C308.807 39.25 308.339 38.7273 308.01 38.0568C307.684 37.3826 307.521 36.5985 307.521 35.7045C307.521 34.8106 307.684 34.0227 308.01 33.3409C308.339 32.6553 308.798 32.1212 309.385 31.7386C309.976 31.3523 310.665 31.1591 311.453 31.1591C311.908 31.1591 312.357 31.2348 312.8 31.3864C313.243 31.5379 313.646 31.7841 314.01 32.125C314.374 32.4621 314.663 32.9091 314.879 33.4659C315.095 34.0227 315.203 34.7083 315.203 35.5227V36.0909H308.476V34.9318H313.839C313.839 34.4394 313.741 34 313.544 33.6136C313.351 33.2273 313.074 32.9223 312.714 32.6989C312.358 32.4754 311.938 32.3636 311.453 32.3636C310.919 32.3636 310.457 32.4962 310.067 32.7614C309.68 33.0227 309.383 33.3636 309.175 33.7841C308.966 34.2045 308.862 34.6553 308.862 35.1364V35.9091C308.862 36.5682 308.976 37.1269 309.203 37.5852C309.434 38.0398 309.754 38.3864 310.163 38.625C310.572 38.8598 311.048 38.9773 311.589 38.9773C311.942 38.9773 312.26 38.928 312.544 38.8295C312.832 38.7273 313.08 38.5758 313.288 38.375C313.497 38.1705 313.658 37.9167 313.771 37.6136L315.067 37.9773C314.93 38.4167 314.701 38.803 314.379 39.1364C314.057 39.4659 313.66 39.7235 313.186 39.9091C312.713 40.0909 312.18 40.1818 311.589 40.1818Z" fill="white" fill-opacity="0.95"/>
<mask id="path-6-inside-3_1637_6907" fill="white">
<path d="M500 0H800V68H500V0Z"/>
</mask>
<path d="M800 68V69H801V68H800ZM799 0V68H801V0H799ZM800 67H500V69H800V67Z" fill="#707070" mask="url(#path-6-inside-3_1637_6907)"/>
<path d="M531.409 40V28.3636H535.341C536.25 28.3636 536.996 28.5189 537.58 28.8295C538.163 29.1364 538.595 29.5587 538.875 30.0966C539.155 30.6345 539.295 31.2462 539.295 31.9318C539.295 32.6174 539.155 33.2254 538.875 33.7557C538.595 34.286 538.165 34.7027 537.585 35.0057C537.006 35.3049 536.265 35.4545 535.364 35.4545H532.182V34.1818H535.318C535.939 34.1818 536.439 34.0909 536.818 33.9091C537.201 33.7273 537.477 33.4697 537.648 33.1364C537.822 32.7992 537.909 32.3977 537.909 31.9318C537.909 31.4659 537.822 31.0587 537.648 30.7102C537.473 30.3617 537.195 30.0928 536.812 29.9034C536.43 29.7102 535.924 29.6136 535.295 29.6136H532.818V40H531.409ZM536.886 34.7727L539.75 40H538.114L535.295 34.7727H536.886ZM545.027 40.1818C544.186 40.1818 543.461 39.9962 542.851 39.625C542.245 39.25 541.777 38.7273 541.447 38.0568C541.122 37.3826 540.959 36.5985 540.959 35.7045C540.959 34.8106 541.122 34.0227 541.447 33.3409C541.777 32.6553 542.235 32.1212 542.822 31.7386C543.413 31.3523 544.103 31.1591 544.891 31.1591C545.345 31.1591 545.794 31.2348 546.237 31.3864C546.68 31.5379 547.084 31.7841 547.447 32.125C547.811 32.4621 548.101 32.9091 548.317 33.4659C548.533 34.0227 548.641 34.7083 548.641 35.5227V36.0909H541.913V34.9318H547.277C547.277 34.4394 547.179 34 546.982 33.6136C546.788 33.2273 546.512 32.9223 546.152 32.6989C545.796 32.4754 545.375 32.3636 544.891 32.3636C544.357 32.3636 543.894 32.4962 543.504 32.7614C543.118 33.0227 542.821 33.3636 542.612 33.7841C542.404 34.2045 542.3 34.6553 542.3 35.1364V35.9091C542.3 36.5682 542.413 37.1269 542.641 37.5852C542.872 38.0398 543.192 38.3864 543.601 38.625C544.01 38.8598 544.485 38.9773 545.027 38.9773C545.379 38.9773 545.697 38.928 545.982 38.8295C546.269 38.7273 546.518 38.5758 546.726 38.375C546.934 38.1705 547.095 37.9167 547.209 37.6136L548.504 37.9773C548.368 38.4167 548.139 38.803 547.817 39.1364C547.495 39.4659 547.097 39.7235 546.624 39.9091C546.15 40.0909 545.618 40.1818 545.027 40.1818ZM556.862 33.2273L555.658 33.5682C555.582 33.3674 555.47 33.1723 555.322 32.983C555.179 32.7898 554.982 32.6307 554.732 32.5057C554.482 32.3807 554.161 32.3182 553.771 32.3182C553.237 32.3182 552.792 32.4413 552.436 32.6875C552.084 32.9299 551.908 33.2386 551.908 33.6136C551.908 33.947 552.029 34.2102 552.271 34.4034C552.514 34.5966 552.893 34.7576 553.408 34.8864L554.703 35.2045C555.483 35.3939 556.065 35.6837 556.447 36.0739C556.83 36.4602 557.021 36.9583 557.021 37.5682C557.021 38.0682 556.877 38.5152 556.589 38.9091C556.305 39.303 555.908 39.6136 555.396 39.8409C554.885 40.0682 554.29 40.1818 553.612 40.1818C552.722 40.1818 551.985 39.9886 551.402 39.6023C550.819 39.2159 550.449 38.6515 550.294 37.9091L551.567 37.5909C551.688 38.0606 551.917 38.4129 552.254 38.6477C552.595 38.8826 553.04 39 553.589 39C554.214 39 554.711 38.8674 555.078 38.6023C555.449 38.3333 555.635 38.0114 555.635 37.6364C555.635 37.3333 555.529 37.0795 555.317 36.875C555.105 36.6667 554.779 36.5114 554.339 36.4091L552.885 36.0682C552.086 35.8788 551.499 35.5852 551.124 35.1875C550.752 34.786 550.567 34.2841 550.567 33.6818C550.567 33.1894 550.705 32.7538 550.982 32.375C551.262 31.9962 551.643 31.6989 552.124 31.483C552.608 31.267 553.158 31.1591 553.771 31.1591C554.635 31.1591 555.313 31.3485 555.805 31.7273C556.302 32.1061 556.654 32.6061 556.862 33.2273ZM562.835 31.2727V32.4091H558.312V31.2727H562.835ZM559.631 29.1818H560.972V37.5C560.972 37.8788 561.027 38.1629 561.136 38.3523C561.25 38.5379 561.394 38.6629 561.568 38.7273C561.746 38.7879 561.934 38.8182 562.131 38.8182C562.278 38.8182 562.4 38.8106 562.494 38.7955C562.589 38.7765 562.665 38.7614 562.722 38.75L562.994 39.9545C562.903 39.9886 562.777 40.0227 562.614 40.0568C562.451 40.0947 562.244 40.1136 561.994 40.1136C561.616 40.1136 561.244 40.0322 560.881 39.8693C560.521 39.7064 560.222 39.4583 559.983 39.125C559.748 38.7917 559.631 38.3712 559.631 37.8636V29.1818ZM568.966 27.8182L565.216 41.75H563.989L567.739 27.8182H568.966ZM570.737 40V28.3636H577.714V29.6136H572.146V33.5455H577.192V34.7955H572.146V40H570.737ZM582.851 40.1818C582.063 40.1818 581.372 39.9943 580.777 39.6193C580.186 39.2443 579.724 38.7197 579.391 38.0455C579.061 37.3712 578.896 36.5833 578.896 35.6818C578.896 34.7727 579.061 33.9792 579.391 33.3011C579.724 32.6231 580.186 32.0966 580.777 31.7216C581.372 31.3466 582.063 31.1591 582.851 31.1591C583.639 31.1591 584.328 31.3466 584.919 31.7216C585.514 32.0966 585.976 32.6231 586.305 33.3011C586.639 33.9792 586.805 34.7727 586.805 35.6818C586.805 36.5833 586.639 37.3712 586.305 38.0455C585.976 38.7197 585.514 39.2443 584.919 39.6193C584.328 39.9943 583.639 40.1818 582.851 40.1818ZM582.851 38.9773C583.449 38.9773 583.942 38.8239 584.328 38.517C584.714 38.2102 585 37.8068 585.186 37.3068C585.372 36.8068 585.464 36.2652 585.464 35.6818C585.464 35.0985 585.372 34.5549 585.186 34.0511C585 33.5473 584.714 33.1402 584.328 32.8295C583.942 32.5189 583.449 32.3636 582.851 32.3636C582.252 32.3636 581.76 32.5189 581.374 32.8295C580.987 33.1402 580.701 33.5473 580.516 34.0511C580.33 34.5549 580.237 35.0985 580.237 35.6818C580.237 36.2652 580.33 36.8068 580.516 37.3068C580.701 37.8068 580.987 38.2102 581.374 38.517C581.76 38.8239 582.252 38.9773 582.851 38.9773ZM592.398 40.1818C591.58 40.1818 590.875 39.9886 590.284 39.6023C589.693 39.2159 589.239 38.6837 588.92 38.0057C588.602 37.3277 588.443 36.553 588.443 35.6818C588.443 34.7955 588.606 34.0133 588.932 33.3352C589.261 32.6534 589.72 32.1212 590.307 31.7386C590.898 31.3523 591.587 31.1591 592.375 31.1591C592.989 31.1591 593.542 31.2727 594.034 31.5C594.527 31.7273 594.93 32.0455 595.244 32.4545C595.559 32.8636 595.754 33.3409 595.83 33.8864H594.489C594.386 33.4886 594.159 33.1364 593.807 32.8295C593.458 32.5189 592.989 32.3636 592.398 32.3636C591.875 32.3636 591.417 32.5 591.023 32.7727C590.633 33.0417 590.328 33.4223 590.108 33.9148C589.892 34.4034 589.784 34.9773 589.784 35.6364C589.784 36.3106 589.89 36.8977 590.102 37.3977C590.318 37.8977 590.621 38.286 591.011 38.5625C591.405 38.839 591.867 38.9773 592.398 38.9773C592.746 38.9773 593.062 38.9167 593.347 38.7955C593.631 38.6742 593.871 38.5 594.068 38.2727C594.265 38.0455 594.405 37.7727 594.489 37.4545H595.83C595.754 37.9697 595.566 38.4337 595.267 38.8466C594.972 39.2557 594.58 39.5814 594.091 39.8239C593.606 40.0625 593.042 40.1818 592.398 40.1818ZM603.29 36.4318V31.2727H604.631V40H603.29V38.5227H603.199C602.994 38.9659 602.676 39.3428 602.244 39.6534C601.813 39.9602 601.267 40.1136 600.608 40.1136C600.062 40.1136 599.578 39.9943 599.153 39.7557C598.729 39.5133 598.396 39.1496 598.153 38.6648C597.911 38.1761 597.79 37.5606 597.79 36.8182V31.2727H599.131V36.7273C599.131 37.3636 599.309 37.8712 599.665 38.25C600.025 38.6288 600.483 38.8182 601.04 38.8182C601.373 38.8182 601.712 38.733 602.057 38.5625C602.405 38.392 602.697 38.1307 602.932 37.7784C603.17 37.4261 603.29 36.9773 603.29 36.4318ZM613.268 33.2273L612.064 33.5682C611.988 33.3674 611.876 33.1723 611.729 32.983C611.585 32.7898 611.388 32.6307 611.138 32.5057C610.888 32.3807 610.568 32.3182 610.178 32.3182C609.643 32.3182 609.198 32.4413 608.842 32.6875C608.49 32.9299 608.314 33.2386 608.314 33.6136C608.314 33.947 608.435 34.2102 608.678 34.4034C608.92 34.5966 609.299 34.7576 609.814 34.8864L611.109 35.2045C611.89 35.3939 612.471 35.6837 612.854 36.0739C613.236 36.4602 613.428 36.9583 613.428 37.5682C613.428 38.0682 613.284 38.5152 612.996 38.9091C612.712 39.303 612.314 39.6136 611.803 39.8409C611.291 40.0682 610.696 40.1818 610.018 40.1818C609.128 40.1818 608.392 39.9886 607.808 39.6023C607.225 39.2159 606.856 38.6515 606.7 37.9091L607.973 37.5909C608.094 38.0606 608.323 38.4129 608.661 38.6477C609.001 38.8826 609.446 39 609.996 39C610.621 39 611.117 38.8674 611.484 38.6023C611.856 38.3333 612.041 38.0114 612.041 37.6364C612.041 37.3333 611.935 37.0795 611.723 36.875C611.511 36.6667 611.185 36.5114 610.746 36.4091L609.291 36.0682C608.492 35.8788 607.905 35.5852 607.53 35.1875C607.159 34.786 606.973 34.2841 606.973 33.6818C606.973 33.1894 607.111 32.7538 607.388 32.375C607.668 31.9962 608.049 31.6989 608.53 31.483C609.015 31.267 609.564 31.1591 610.178 31.1591C611.041 31.1591 611.719 31.3485 612.212 31.7273C612.708 32.1061 613.06 32.6061 613.268 33.2273Z" fill="white" fill-opacity="0.95"/>
<mask id="path-9-inside-4_1637_6907" fill="white">
<path d="M800 0H1300V68H800V0Z"/>
</mask>
<path d="M1300 0H1301V-1H1300V0ZM1300 68V69H1301V68H1300ZM800 1H1300V-1H800V1ZM1299 0V68H1301V0H1299ZM1300 67H800V69H1300V67Z" fill="white" fill-opacity="0.3" mask="url(#path-9-inside-4_1637_6907)"/>
<path d="M834.773 40.1818C833.955 40.1818 833.25 39.9886 832.659 39.6023C832.068 39.2159 831.614 38.6837 831.295 38.0057C830.977 37.3277 830.818 36.553 830.818 35.6818C830.818 34.7955 830.981 34.0133 831.307 33.3352C831.636 32.6534 832.095 32.1212 832.682 31.7386C833.273 31.3523 833.962 31.1591 834.75 31.1591C835.364 31.1591 835.917 31.2727 836.409 31.5C836.902 31.7273 837.305 32.0455 837.619 32.4545C837.934 32.8636 838.129 33.3409 838.205 33.8864H836.864C836.761 33.4886 836.534 33.1364 836.182 32.8295C835.833 32.5189 835.364 32.3636 834.773 32.3636C834.25 32.3636 833.792 32.5 833.398 32.7727C833.008 33.0417 832.703 33.4223 832.483 33.9148C832.267 34.4034 832.159 34.9773 832.159 35.6364C832.159 36.3106 832.265 36.8977 832.477 37.3977C832.693 37.8977 832.996 38.286 833.386 38.5625C833.78 38.839 834.242 38.9773 834.773 38.9773C835.121 38.9773 835.438 38.9167 835.722 38.7955C836.006 38.6742 836.246 38.5 836.443 38.2727C836.64 38.0455 836.78 37.7727 836.864 37.4545H838.205C838.129 37.9697 837.941 38.4337 837.642 38.8466C837.347 39.2557 836.955 39.5814 836.466 39.8239C835.981 40.0625 835.417 40.1818 834.773 40.1818ZM843.71 40.1818C842.922 40.1818 842.231 39.9943 841.636 39.6193C841.045 39.2443 840.583 38.7197 840.25 38.0455C839.92 37.3712 839.756 36.5833 839.756 35.6818C839.756 34.7727 839.92 33.9792 840.25 33.3011C840.583 32.6231 841.045 32.0966 841.636 31.7216C842.231 31.3466 842.922 31.1591 843.71 31.1591C844.498 31.1591 845.188 31.3466 845.778 31.7216C846.373 32.0966 846.835 32.6231 847.165 33.3011C847.498 33.9792 847.665 34.7727 847.665 35.6818C847.665 36.5833 847.498 37.3712 847.165 38.0455C846.835 38.7197 846.373 39.2443 845.778 39.6193C845.188 39.9943 844.498 40.1818 843.71 40.1818ZM843.71 38.9773C844.309 38.9773 844.801 38.8239 845.188 38.517C845.574 38.2102 845.86 37.8068 846.045 37.3068C846.231 36.8068 846.324 36.2652 846.324 35.6818C846.324 35.0985 846.231 34.5549 846.045 34.0511C845.86 33.5473 845.574 33.1402 845.188 32.8295C844.801 32.5189 844.309 32.3636 843.71 32.3636C843.112 32.3636 842.619 32.5189 842.233 32.8295C841.847 33.1402 841.561 33.5473 841.375 34.0511C841.189 34.5549 841.097 35.0985 841.097 35.6818C841.097 36.2652 841.189 36.8068 841.375 37.3068C841.561 37.8068 841.847 38.2102 842.233 38.517C842.619 38.8239 843.112 38.9773 843.71 38.9773ZM851.053 28.3636V40H849.712V28.3636H851.053ZM857.054 40.1818C856.266 40.1818 855.575 39.9943 854.98 39.6193C854.389 39.2443 853.927 38.7197 853.594 38.0455C853.264 37.3712 853.099 36.5833 853.099 35.6818C853.099 34.7727 853.264 33.9792 853.594 33.3011C853.927 32.6231 854.389 32.0966 854.98 31.7216C855.575 31.3466 856.266 31.1591 857.054 31.1591C857.842 31.1591 858.531 31.3466 859.122 31.7216C859.717 32.0966 860.179 32.6231 860.509 33.3011C860.842 33.9792 861.009 34.7727 861.009 35.6818C861.009 36.5833 860.842 37.3712 860.509 38.0455C860.179 38.7197 859.717 39.2443 859.122 39.6193C858.531 39.9943 857.842 40.1818 857.054 40.1818ZM857.054 38.9773C857.652 38.9773 858.145 38.8239 858.531 38.517C858.918 38.2102 859.204 37.8068 859.389 37.3068C859.575 36.8068 859.668 36.2652 859.668 35.6818C859.668 35.0985 859.575 34.5549 859.389 34.0511C859.204 33.5473 858.918 33.1402 858.531 32.8295C858.145 32.5189 857.652 32.3636 857.054 32.3636C856.455 32.3636 855.963 32.5189 855.577 32.8295C855.19 33.1402 854.904 33.5473 854.719 34.0511C854.533 34.5549 854.44 35.0985 854.44 35.6818C854.44 36.2652 854.533 36.8068 854.719 37.3068C854.904 37.8068 855.19 38.2102 855.577 38.517C855.963 38.8239 856.455 38.9773 857.054 38.9773ZM863.055 40V31.2727H864.351V32.5909H864.442C864.601 32.1591 864.889 31.8087 865.305 31.5398C865.722 31.2708 866.192 31.1364 866.714 31.1364C866.813 31.1364 866.936 31.1383 867.084 31.142C867.232 31.1458 867.343 31.1515 867.419 31.1591V32.5227C867.374 32.5114 867.269 32.4943 867.107 32.4716C866.947 32.4451 866.779 32.4318 866.601 32.4318C866.177 32.4318 865.798 32.5208 865.464 32.6989C865.135 32.8731 864.874 33.1155 864.68 33.4261C864.491 33.733 864.396 34.0833 864.396 34.4773V40H863.055ZM868.986 40.0909C868.705 40.0909 868.465 39.9905 868.264 39.7898C868.063 39.589 867.963 39.3485 867.963 39.0682C867.963 38.7879 868.063 38.5473 868.264 38.3466C868.465 38.1458 868.705 38.0455 868.986 38.0455C869.266 38.0455 869.507 38.1458 869.707 38.3466C869.908 38.5473 870.009 38.7879 870.009 39.0682C870.009 39.2538 869.961 39.4242 869.866 39.5795C869.776 39.7348 869.652 39.8598 869.497 39.9545C869.346 40.0455 869.175 40.0909 868.986 40.0909ZM876.21 31.2727V32.4091H871.688V31.2727H876.21ZM873.006 29.1818H874.347V37.5C874.347 37.8788 874.402 38.1629 874.511 38.3523C874.625 38.5379 874.769 38.6629 874.943 38.7273C875.121 38.7879 875.309 38.8182 875.506 38.8182C875.653 38.8182 875.775 38.8106 875.869 38.7955C875.964 38.7765 876.04 38.7614 876.097 38.75L876.369 39.9545C876.278 39.9886 876.152 40.0227 875.989 40.0568C875.826 40.0947 875.619 40.1136 875.369 40.1136C874.991 40.1136 874.619 40.0322 874.256 39.8693C873.896 39.7064 873.597 39.4583 873.358 39.125C873.123 38.7917 873.006 38.3712 873.006 37.8636V29.1818ZM879.756 34.75V40H878.415V28.3636H879.756V32.6364H879.869C880.074 32.1856 880.381 31.8277 880.79 31.5625C881.203 31.2936 881.752 31.1591 882.438 31.1591C883.032 31.1591 883.553 31.2784 884 31.517C884.447 31.7519 884.794 32.1136 885.04 32.6023C885.29 33.0871 885.415 33.7045 885.415 34.4545V40H884.074V34.5455C884.074 33.8523 883.894 33.3163 883.534 32.9375C883.178 32.5549 882.684 32.3636 882.051 32.3636C881.612 32.3636 881.218 32.4564 880.869 32.642C880.525 32.8277 880.252 33.0985 880.051 33.4545C879.854 33.8106 879.756 34.2424 879.756 34.75ZM891.527 40.1818C890.686 40.1818 889.961 39.9962 889.351 39.625C888.745 39.25 888.277 38.7273 887.947 38.0568C887.622 37.3826 887.459 36.5985 887.459 35.7045C887.459 34.8106 887.622 34.0227 887.947 33.3409C888.277 32.6553 888.735 32.1212 889.322 31.7386C889.913 31.3523 890.603 31.1591 891.391 31.1591C891.845 31.1591 892.294 31.2348 892.737 31.3864C893.18 31.5379 893.584 31.7841 893.947 32.125C894.311 32.4621 894.601 32.9091 894.817 33.4659C895.033 34.0227 895.141 34.7083 895.141 35.5227V36.0909H888.413V34.9318H893.777C893.777 34.4394 893.679 34 893.482 33.6136C893.288 33.2273 893.012 32.9223 892.652 32.6989C892.296 32.4754 891.875 32.3636 891.391 32.3636C890.857 32.3636 890.394 32.4962 890.004 32.7614C889.618 33.0227 889.321 33.3636 889.112 33.7841C888.904 34.2045 888.8 34.6553 888.8 35.1364V35.9091C888.8 36.5682 888.913 37.1269 889.141 37.5852C889.372 38.0398 889.692 38.3864 890.101 38.625C890.51 38.8598 890.985 38.9773 891.527 38.9773C891.879 38.9773 892.197 38.928 892.482 38.8295C892.769 38.7273 893.018 38.5758 893.226 38.375C893.434 38.1705 893.595 37.9167 893.709 37.6136L895.004 37.9773C894.868 38.4167 894.639 38.803 894.317 39.1364C893.995 39.4659 893.597 39.7235 893.124 39.9091C892.65 40.0909 892.118 40.1818 891.527 40.1818ZM897.18 40V31.2727H898.476V32.6364H898.589C898.771 32.1705 899.065 31.8087 899.47 31.5511C899.875 31.2898 900.362 31.1591 900.93 31.1591C901.506 31.1591 901.985 31.2898 902.368 31.5511C902.754 31.8087 903.055 32.1705 903.271 32.6364H903.362C903.586 32.1856 903.921 31.8277 904.368 31.5625C904.815 31.2936 905.351 31.1591 905.976 31.1591C906.756 31.1591 907.394 31.4034 907.891 31.892C908.387 32.3769 908.635 33.1326 908.635 34.1591V40H907.294V34.1591C907.294 33.5152 907.118 33.0549 906.766 32.7784C906.413 32.5019 905.999 32.3636 905.521 32.3636C904.908 32.3636 904.432 32.5492 904.095 32.9205C903.758 33.2879 903.589 33.7538 903.589 34.3182V40H902.226V34.0227C902.226 33.5265 902.065 33.1269 901.743 32.8239C901.421 32.517 901.006 32.3636 900.499 32.3636C900.15 32.3636 899.824 32.4564 899.521 32.642C899.222 32.8277 898.98 33.0852 898.794 33.4148C898.612 33.7405 898.521 34.1174 898.521 34.5455V40H897.18ZM914.746 40.1818C913.905 40.1818 913.179 39.9962 912.57 39.625C911.964 39.25 911.496 38.7273 911.166 38.0568C910.84 37.3826 910.678 36.5985 910.678 35.7045C910.678 34.8106 910.84 34.0227 911.166 33.3409C911.496 32.6553 911.954 32.1212 912.541 31.7386C913.132 31.3523 913.821 31.1591 914.609 31.1591C915.064 31.1591 915.513 31.2348 915.956 31.3864C916.399 31.5379 916.803 31.7841 917.166 32.125C917.53 32.4621 917.82 32.9091 918.036 33.4659C918.251 34.0227 918.359 34.7083 918.359 35.5227V36.0909H911.632V34.9318H916.996C916.996 34.4394 916.897 34 916.7 33.6136C916.507 33.2273 916.231 32.9223 915.871 32.6989C915.515 32.4754 915.094 32.3636 914.609 32.3636C914.075 32.3636 913.613 32.4962 913.223 32.7614C912.837 33.0227 912.539 33.3636 912.331 33.7841C912.123 34.2045 912.018 34.6553 912.018 35.1364V35.9091C912.018 36.5682 912.132 37.1269 912.359 37.5852C912.59 38.0398 912.911 38.3864 913.32 38.625C913.729 38.8598 914.204 38.9773 914.746 38.9773C915.098 38.9773 915.416 38.928 915.7 38.8295C915.988 38.7273 916.236 38.5758 916.445 38.375C916.653 38.1705 916.814 37.9167 916.928 37.6136L918.223 37.9773C918.087 38.4167 917.857 38.803 917.536 39.1364C917.214 39.4659 916.816 39.7235 916.342 39.9091C915.869 40.0909 915.337 40.1818 914.746 40.1818ZM921.376 40.0909C921.096 40.0909 920.856 39.9905 920.655 39.7898C920.454 39.589 920.354 39.3485 920.354 39.0682C920.354 38.7879 920.454 38.5473 920.655 38.3466C920.856 38.1458 921.096 38.0455 921.376 38.0455C921.657 38.0455 921.897 38.1458 922.098 38.3466C922.299 38.5473 922.399 38.7879 922.399 39.0682C922.399 39.2538 922.352 39.4242 922.257 39.5795C922.166 39.7348 922.043 39.8598 921.888 39.9545C921.736 40.0455 921.566 40.0909 921.376 40.0909ZM928.351 40.1818C927.533 40.1818 926.828 39.9886 926.237 39.6023C925.646 39.2159 925.192 38.6837 924.874 38.0057C924.555 37.3277 924.396 36.553 924.396 35.6818C924.396 34.7955 924.559 34.0133 924.885 33.3352C925.214 32.6534 925.673 32.1212 926.26 31.7386C926.851 31.3523 927.54 31.1591 928.328 31.1591C928.942 31.1591 929.495 31.2727 929.987 31.5C930.48 31.7273 930.883 32.0455 931.197 32.4545C931.512 32.8636 931.707 33.3409 931.783 33.8864H930.442C930.339 33.4886 930.112 33.1364 929.76 32.8295C929.411 32.5189 928.942 32.3636 928.351 32.3636C927.828 32.3636 927.37 32.5 926.976 32.7727C926.586 33.0417 926.281 33.4223 926.061 33.9148C925.845 34.4034 925.737 34.9773 925.737 35.6364C925.737 36.3106 925.843 36.8977 926.055 37.3977C926.271 37.8977 926.574 38.286 926.964 38.5625C927.358 38.839 927.821 38.9773 928.351 38.9773C928.699 38.9773 929.016 38.9167 929.3 38.7955C929.584 38.6742 929.824 38.5 930.021 38.2727C930.218 38.0455 930.358 37.7727 930.442 37.4545H931.783C931.707 37.9697 931.519 38.4337 931.22 38.8466C930.925 39.2557 930.533 39.5814 930.044 39.8239C929.559 40.0625 928.995 40.1818 928.351 40.1818ZM937.288 40.1818C936.5 40.1818 935.809 39.9943 935.214 39.6193C934.624 39.2443 934.161 38.7197 933.828 38.0455C933.499 37.3712 933.334 36.5833 933.334 35.6818C933.334 34.7727 933.499 33.9792 933.828 33.3011C934.161 32.6231 934.624 32.0966 935.214 31.7216C935.809 31.3466 936.5 31.1591 937.288 31.1591C938.076 31.1591 938.766 31.3466 939.357 31.7216C939.951 32.0966 940.413 32.6231 940.743 33.3011C941.076 33.9792 941.243 34.7727 941.243 35.6818C941.243 36.5833 941.076 37.3712 940.743 38.0455C940.413 38.7197 939.951 39.2443 939.357 39.6193C938.766 39.9943 938.076 40.1818 937.288 40.1818ZM937.288 38.9773C937.887 38.9773 938.379 38.8239 938.766 38.517C939.152 38.2102 939.438 37.8068 939.624 37.3068C939.809 36.8068 939.902 36.2652 939.902 35.6818C939.902 35.0985 939.809 34.5549 939.624 34.0511C939.438 33.5473 939.152 33.1402 938.766 32.8295C938.379 32.5189 937.887 32.3636 937.288 32.3636C936.69 32.3636 936.197 32.5189 935.811 32.8295C935.425 33.1402 935.139 33.5473 934.953 34.0511C934.768 34.5549 934.675 35.0985 934.675 35.6818C934.675 36.2652 934.768 36.8068 934.953 37.3068C935.139 37.8068 935.425 38.2102 935.811 38.517C936.197 38.8239 936.69 38.9773 937.288 38.9773ZM944.631 34.75V40H943.29V31.2727H944.585V32.6364H944.699C944.903 32.1932 945.214 31.8371 945.631 31.5682C946.047 31.2955 946.585 31.1591 947.244 31.1591C947.835 31.1591 948.352 31.2803 948.795 31.5227C949.239 31.7614 949.583 32.125 949.83 32.6136C950.076 33.0985 950.199 33.7121 950.199 34.4545V40H948.858V34.5455C948.858 33.8598 948.68 33.3258 948.324 32.9432C947.968 32.5568 947.479 32.3636 946.858 32.3636C946.43 32.3636 946.047 32.4564 945.71 32.642C945.377 32.8277 945.114 33.0985 944.92 33.4545C944.727 33.8106 944.631 34.2424 944.631 34.75ZM956.445 31.2727V32.4091H951.922V31.2727H956.445ZM953.24 29.1818H954.581V37.5C954.581 37.8788 954.636 38.1629 954.746 38.3523C954.859 38.5379 955.003 38.6629 955.178 38.7273C955.356 38.7879 955.543 38.8182 955.74 38.8182C955.888 38.8182 956.009 38.8106 956.104 38.7955C956.198 38.7765 956.274 38.7614 956.331 38.75L956.604 39.9545C956.513 39.9886 956.386 40.0227 956.223 40.0568C956.06 40.0947 955.854 40.1136 955.604 40.1136C955.225 40.1136 954.854 40.0322 954.49 39.8693C954.13 39.7064 953.831 39.4583 953.592 39.125C953.357 38.7917 953.24 38.3712 953.24 37.8636V29.1818ZM962.027 40.1818C961.186 40.1818 960.461 39.9962 959.851 39.625C959.245 39.25 958.777 38.7273 958.447 38.0568C958.122 37.3826 957.959 36.5985 957.959 35.7045C957.959 34.8106 958.122 34.0227 958.447 33.3409C958.777 32.6553 959.235 32.1212 959.822 31.7386C960.413 31.3523 961.103 31.1591 961.891 31.1591C962.345 31.1591 962.794 31.2348 963.237 31.3864C963.68 31.5379 964.084 31.7841 964.447 32.125C964.811 32.4621 965.101 32.9091 965.317 33.4659C965.533 34.0227 965.641 34.7083 965.641 35.5227V36.0909H958.913V34.9318H964.277C964.277 34.4394 964.179 34 963.982 33.6136C963.788 33.2273 963.512 32.9223 963.152 32.6989C962.796 32.4754 962.375 32.3636 961.891 32.3636C961.357 32.3636 960.894 32.4962 960.504 32.7614C960.118 33.0227 959.821 33.3636 959.612 33.7841C959.404 34.2045 959.3 34.6553 959.3 35.1364V35.9091C959.3 36.5682 959.413 37.1269 959.641 37.5852C959.872 38.0398 960.192 38.3864 960.601 38.625C961.01 38.8598 961.485 38.9773 962.027 38.9773C962.379 38.9773 962.697 38.928 962.982 38.8295C963.269 38.7273 963.518 38.5758 963.726 38.375C963.934 38.1705 964.095 37.9167 964.209 37.6136L965.504 37.9773C965.368 38.4167 965.139 38.803 964.817 39.1364C964.495 39.4659 964.097 39.7235 963.624 39.9091C963.15 40.0909 962.618 40.1818 962.027 40.1818ZM969.021 34.75V40H967.68V31.2727H968.976V32.6364H969.089C969.294 32.1932 969.605 31.8371 970.021 31.5682C970.438 31.2955 970.976 31.1591 971.635 31.1591C972.226 31.1591 972.743 31.2803 973.186 31.5227C973.629 31.7614 973.974 32.125 974.22 32.6136C974.466 33.0985 974.589 33.7121 974.589 34.4545V40H973.249V34.5455C973.249 33.8598 973.071 33.3258 972.714 32.9432C972.358 32.5568 971.87 32.3636 971.249 32.3636C970.821 32.3636 970.438 32.4564 970.101 32.642C969.768 32.8277 969.504 33.0985 969.311 33.4545C969.118 33.8106 969.021 34.2424 969.021 34.75ZM980.835 31.2727V32.4091H976.312V31.2727H980.835ZM977.631 29.1818H978.972V37.5C978.972 37.8788 979.027 38.1629 979.136 38.3523C979.25 38.5379 979.394 38.6629 979.568 38.7273C979.746 38.7879 979.934 38.8182 980.131 38.8182C980.278 38.8182 980.4 38.8106 980.494 38.7955C980.589 38.7765 980.665 38.7614 980.722 38.75L980.994 39.9545C980.903 39.9886 980.777 40.0227 980.614 40.0568C980.451 40.0947 980.244 40.1136 979.994 40.1136C979.616 40.1136 979.244 40.0322 978.881 39.8693C978.521 39.7064 978.222 39.4583 977.983 39.125C977.748 38.7917 977.631 38.3712 977.631 37.8636V29.1818ZM983.83 40.0909C983.549 40.0909 983.309 39.9905 983.108 39.7898C982.907 39.589 982.807 39.3485 982.807 39.0682C982.807 38.7879 982.907 38.5473 983.108 38.3466C983.309 38.1458 983.549 38.0455 983.83 38.0455C984.11 38.0455 984.35 38.1458 984.551 38.3466C984.752 38.5473 984.852 38.7879 984.852 39.0682C984.852 39.2538 984.805 39.4242 984.71 39.5795C984.619 39.7348 984.496 39.8598 984.341 39.9545C984.189 40.0455 984.019 40.0909 983.83 40.0909ZM987.259 40V31.2727H988.599V40H987.259ZM987.94 29.8182C987.679 29.8182 987.454 29.7292 987.264 29.5511C987.079 29.3731 986.986 29.1591 986.986 28.9091C986.986 28.6591 987.079 28.4451 987.264 28.267C987.454 28.089 987.679 28 987.94 28C988.202 28 988.425 28.089 988.611 28.267C988.8 28.4451 988.895 28.6591 988.895 28.9091C988.895 29.1591 988.8 29.3731 988.611 29.5511C988.425 29.7292 988.202 29.8182 987.94 29.8182ZM992.396 34.75V40H991.055V31.2727H992.351V32.6364H992.464C992.669 32.1932 992.98 31.8371 993.396 31.5682C993.813 31.2955 994.351 31.1591 995.01 31.1591C995.601 31.1591 996.118 31.2803 996.561 31.5227C997.004 31.7614 997.349 32.125 997.595 32.6136C997.841 33.0985 997.964 33.7121 997.964 34.4545V40H996.624V34.5455C996.624 33.8598 996.446 33.3258 996.089 32.9432C995.733 32.5568 995.245 32.3636 994.624 32.3636C994.196 32.3636 993.813 32.4564 993.476 32.642C993.143 32.8277 992.879 33.0985 992.686 33.4545C992.493 33.8106 992.396 34.2424 992.396 34.75ZM1003.71 40.1818C1002.98 40.1818 1002.34 39.9981 1001.78 39.6307C1001.23 39.2595 1000.79 38.7367 1000.48 38.0625C1000.16 37.3845 1000.01 36.5833 1000.01 35.6591C1000.01 34.7424 1000.16 33.947 1000.48 33.2727C1000.79 32.5985 1001.23 32.0777 1001.79 31.7102C1002.35 31.3428 1003 31.1591 1003.73 31.1591C1004.3 31.1591 1004.75 31.2538 1005.08 31.4432C1005.41 31.6288 1005.67 31.8409 1005.84 32.0795C1006.02 32.3144 1006.16 32.5076 1006.26 32.6591H1006.37V28.3636H1007.71V40H1006.41V38.6591H1006.26C1006.16 38.8182 1006.02 39.0189 1005.84 39.2614C1005.65 39.5 1005.39 39.714 1005.06 39.9034C1004.72 40.089 1004.27 40.1818 1003.71 40.1818ZM1003.89 38.9773C1004.43 38.9773 1004.88 38.8371 1005.26 38.5568C1005.63 38.2727 1005.91 37.8807 1006.1 37.3807C1006.3 36.8769 1006.39 36.2955 1006.39 35.6364C1006.39 34.9848 1006.3 34.4148 1006.11 33.9261C1005.92 33.4337 1005.64 33.0511 1005.27 32.7784C1004.9 32.5019 1004.44 32.3636 1003.89 32.3636C1003.32 32.3636 1002.85 32.5095 1002.47 32.8011C1002.1 33.089 1001.81 33.4811 1001.62 33.9773C1001.44 34.4697 1001.35 35.0227 1001.35 35.6364C1001.35 36.2576 1001.44 36.822 1001.63 37.3295C1001.82 37.8333 1002.11 38.2348 1002.48 38.5341C1002.86 38.8295 1003.33 38.9773 1003.89 38.9773ZM1010.35 40V31.2727H1011.69V40H1010.35ZM1011.03 29.8182C1010.77 29.8182 1010.55 29.7292 1010.36 29.5511C1010.17 29.3731 1010.08 29.1591 1010.08 28.9091C1010.08 28.6591 1010.17 28.4451 1010.36 28.267C1010.55 28.089 1010.77 28 1011.03 28C1011.3 28 1011.52 28.089 1011.7 28.267C1011.89 28.4451 1011.99 28.6591 1011.99 28.9091C1011.99 29.1591 1011.89 29.3731 1011.7 29.5511C1011.52 29.7292 1011.3 29.8182 1011.03 29.8182ZM1017.69 40.1818C1016.88 40.1818 1016.17 39.9886 1015.58 39.6023C1014.99 39.2159 1014.54 38.6837 1014.22 38.0057C1013.9 37.3277 1013.74 36.553 1013.74 35.6818C1013.74 34.7955 1013.9 34.0133 1014.23 33.3352C1014.56 32.6534 1015.02 32.1212 1015.6 31.7386C1016.19 31.3523 1016.88 31.1591 1017.67 31.1591C1018.29 31.1591 1018.84 31.2727 1019.33 31.5C1019.82 31.7273 1020.23 32.0455 1020.54 32.4545C1020.86 32.8636 1021.05 33.3409 1021.13 33.8864H1019.79C1019.68 33.4886 1019.46 33.1364 1019.1 32.8295C1018.76 32.5189 1018.29 32.3636 1017.69 32.3636C1017.17 32.3636 1016.71 32.5 1016.32 32.7727C1015.93 33.0417 1015.62 33.4223 1015.4 33.9148C1015.19 34.4034 1015.08 34.9773 1015.08 35.6364C1015.08 36.3106 1015.19 36.8977 1015.4 37.3977C1015.62 37.8977 1015.92 38.286 1016.31 38.5625C1016.7 38.839 1017.16 38.9773 1017.69 38.9773C1018.04 38.9773 1018.36 38.9167 1018.64 38.7955C1018.93 38.6742 1019.17 38.5 1019.37 38.2727C1019.56 38.0455 1019.7 37.7727 1019.79 37.4545H1021.13C1021.05 37.9697 1020.86 38.4337 1020.56 38.8466C1020.27 39.2557 1019.88 39.5814 1019.39 39.8239C1018.9 40.0625 1018.34 40.1818 1017.69 40.1818ZM1025.65 40.2045C1025.1 40.2045 1024.6 40.1004 1024.15 39.892C1023.7 39.6799 1023.34 39.375 1023.08 38.9773C1022.81 38.5758 1022.68 38.0909 1022.68 37.5227C1022.68 37.0227 1022.78 36.6174 1022.97 36.3068C1023.17 35.9924 1023.43 35.7462 1023.76 35.5682C1024.09 35.3902 1024.46 35.2576 1024.85 35.1705C1025.26 35.0795 1025.66 35.0076 1026.06 34.9545C1026.59 34.8864 1027.02 34.8352 1027.35 34.8011C1027.69 34.7633 1027.93 34.7008 1028.08 34.6136C1028.24 34.5265 1028.31 34.375 1028.31 34.1591V34.1136C1028.31 33.553 1028.16 33.1174 1027.85 32.8068C1027.55 32.4962 1027.09 32.3409 1026.47 32.3409C1025.83 32.3409 1025.33 32.4811 1024.97 32.7614C1024.6 33.0417 1024.35 33.3409 1024.2 33.6591L1022.93 33.2045C1023.15 32.6742 1023.46 32.2614 1023.84 31.9659C1024.22 31.6667 1024.64 31.4583 1025.09 31.3409C1025.54 31.2197 1025.99 31.1591 1026.43 31.1591C1026.71 31.1591 1027.03 31.1932 1027.39 31.2614C1027.76 31.3258 1028.12 31.4602 1028.46 31.6648C1028.8 31.8693 1029.09 32.178 1029.31 32.5909C1029.54 33.0038 1029.65 33.5568 1029.65 34.25V40H1028.31V38.8182H1028.25C1028.15 39.0076 1028 39.2102 1027.79 39.4261C1027.58 39.642 1027.3 39.8258 1026.94 39.9773C1026.59 40.1288 1026.16 40.2045 1025.65 40.2045ZM1025.86 39C1026.39 39 1026.84 38.8958 1027.2 38.6875C1027.57 38.4792 1027.84 38.2102 1028.03 37.8807C1028.22 37.5511 1028.31 37.2045 1028.31 36.8409V35.6136C1028.26 35.6818 1028.13 35.7443 1027.94 35.8011C1027.75 35.8542 1027.53 35.9015 1027.28 35.9432C1027.03 35.9811 1026.79 36.0152 1026.56 36.0455C1026.33 36.072 1026.14 36.0947 1026 36.1136C1025.65 36.1591 1025.32 36.233 1025.02 36.3352C1024.72 36.4337 1024.48 36.5833 1024.29 36.7841C1024.11 36.9811 1024.02 37.25 1024.02 37.5909C1024.02 38.0568 1024.19 38.4091 1024.54 38.6477C1024.88 38.8826 1025.33 39 1025.86 39ZM1035.9 31.2727V32.4091H1031.38V31.2727H1035.9ZM1032.69 29.1818H1034.03V37.5C1034.03 37.8788 1034.09 38.1629 1034.2 38.3523C1034.31 38.5379 1034.46 38.6629 1034.63 38.7273C1034.81 38.7879 1035 38.8182 1035.19 38.8182C1035.34 38.8182 1035.46 38.8106 1035.56 38.7955C1035.65 38.7765 1035.73 38.7614 1035.78 38.75L1036.06 39.9545C1035.97 39.9886 1035.84 40.0227 1035.68 40.0568C1035.51 40.0947 1035.31 40.1136 1035.06 40.1136C1034.68 40.1136 1034.31 40.0322 1033.94 39.8693C1033.58 39.7064 1033.28 39.4583 1033.05 39.125C1032.81 38.7917 1032.69 38.3712 1032.69 37.8636V29.1818ZM1041.37 40.1818C1040.58 40.1818 1039.89 39.9943 1039.29 39.6193C1038.7 39.2443 1038.24 38.7197 1037.91 38.0455C1037.58 37.3712 1037.41 36.5833 1037.41 35.6818C1037.41 34.7727 1037.58 33.9792 1037.91 33.3011C1038.24 32.6231 1038.7 32.0966 1039.29 31.7216C1039.89 31.3466 1040.58 31.1591 1041.37 31.1591C1042.15 31.1591 1042.84 31.3466 1043.43 31.7216C1044.03 32.0966 1044.49 32.6231 1044.82 33.3011C1045.15 33.9792 1045.32 34.7727 1045.32 35.6818C1045.32 36.5833 1045.15 37.3712 1044.82 38.0455C1044.49 38.7197 1044.03 39.2443 1043.43 39.6193C1042.84 39.9943 1042.15 40.1818 1041.37 40.1818ZM1041.37 38.9773C1041.96 38.9773 1042.46 38.8239 1042.84 38.517C1043.23 38.2102 1043.52 37.8068 1043.7 37.3068C1043.89 36.8068 1043.98 36.2652 1043.98 35.6818C1043.98 35.0985 1043.89 34.5549 1043.7 34.0511C1043.52 33.5473 1043.23 33.1402 1042.84 32.8295C1042.46 32.5189 1041.96 32.3636 1041.37 32.3636C1040.77 32.3636 1040.28 32.5189 1039.89 32.8295C1039.5 33.1402 1039.22 33.5473 1039.03 34.0511C1038.85 34.5549 1038.75 35.0985 1038.75 35.6818C1038.75 36.2652 1038.85 36.8068 1039.03 37.3068C1039.22 37.8068 1039.5 38.2102 1039.89 38.517C1040.28 38.8239 1040.77 38.9773 1041.37 38.9773ZM1047.37 40V31.2727H1048.66V32.5909H1048.75C1048.91 32.1591 1049.2 31.8087 1049.62 31.5398C1050.03 31.2708 1050.5 31.1364 1051.03 31.1364C1051.13 31.1364 1051.25 31.1383 1051.4 31.142C1051.54 31.1458 1051.66 31.1515 1051.73 31.1591V32.5227C1051.69 32.5114 1051.58 32.4943 1051.42 32.4716C1051.26 32.4451 1051.09 32.4318 1050.91 32.4318C1050.49 32.4318 1050.11 32.5208 1049.78 32.6989C1049.45 32.8731 1049.19 33.1155 1048.99 33.4261C1048.8 33.733 1048.71 34.0833 1048.71 34.4773V40H1047.37ZM1053.3 40.0909C1053.02 40.0909 1052.78 39.9905 1052.58 39.7898C1052.38 39.589 1052.28 39.3485 1052.28 39.0682C1052.28 38.7879 1052.38 38.5473 1052.58 38.3466C1052.78 38.1458 1053.02 38.0455 1053.3 38.0455C1053.58 38.0455 1053.82 38.1458 1054.02 38.3466C1054.22 38.5473 1054.32 38.7879 1054.32 39.0682C1054.32 39.2538 1054.27 39.4242 1054.18 39.5795C1054.09 39.7348 1053.96 39.8598 1053.81 39.9545C1053.66 40.0455 1053.49 40.0909 1053.3 40.0909ZM1060.02 40.1818C1059.3 40.1818 1058.65 39.9981 1058.1 39.6307C1057.54 39.2595 1057.1 38.7367 1056.79 38.0625C1056.48 37.3845 1056.32 36.5833 1056.32 35.6591C1056.32 34.7424 1056.48 33.947 1056.79 33.2727C1057.1 32.5985 1057.54 32.0777 1058.1 31.7102C1058.66 31.3428 1059.31 31.1591 1060.05 31.1591C1060.61 31.1591 1061.06 31.2538 1061.39 31.4432C1061.73 31.6288 1061.98 31.8409 1062.15 32.0795C1062.33 32.3144 1062.47 32.5076 1062.57 32.6591H1062.68V28.3636H1064.02V40H1062.73V38.6591H1062.57C1062.47 38.8182 1062.33 39.0189 1062.15 39.2614C1061.97 39.5 1061.71 39.714 1061.37 39.9034C1061.03 40.089 1060.58 40.1818 1060.02 40.1818ZM1060.2 38.9773C1060.74 38.9773 1061.2 38.8371 1061.57 38.5568C1061.94 38.2727 1062.22 37.8807 1062.41 37.3807C1062.61 36.8769 1062.7 36.2955 1062.7 35.6364C1062.7 34.9848 1062.61 34.4148 1062.42 33.9261C1062.23 33.4337 1061.95 33.0511 1061.58 32.7784C1061.21 32.5019 1060.75 32.3636 1060.2 32.3636C1059.64 32.3636 1059.16 32.5095 1058.78 32.8011C1058.41 33.089 1058.13 33.4811 1057.94 33.9773C1057.75 34.4697 1057.66 35.0227 1057.66 35.6364C1057.66 36.2576 1057.75 36.822 1057.94 37.3295C1058.14 37.8333 1058.42 38.2348 1058.8 38.5341C1059.17 38.8295 1059.64 38.9773 1060.2 38.9773ZM1070.32 40.1818C1069.48 40.1818 1068.76 39.9962 1068.15 39.625C1067.54 39.25 1067.07 38.7273 1066.74 38.0568C1066.42 37.3826 1066.26 36.5985 1066.26 35.7045C1066.26 34.8106 1066.42 34.0227 1066.74 33.3409C1067.07 32.6553 1067.53 32.1212 1068.12 31.7386C1068.71 31.3523 1069.4 31.1591 1070.19 31.1591C1070.64 31.1591 1071.09 31.2348 1071.53 31.3864C1071.98 31.5379 1072.38 31.7841 1072.74 32.125C1073.11 32.4621 1073.4 32.9091 1073.61 33.4659C1073.83 34.0227 1073.94 34.7083 1073.94 35.5227V36.0909H1067.21V34.9318H1072.57C1072.57 34.4394 1072.48 34 1072.28 33.6136C1072.09 33.2273 1071.81 32.9223 1071.45 32.6989C1071.09 32.4754 1070.67 32.3636 1070.19 32.3636C1069.65 32.3636 1069.19 32.4962 1068.8 32.7614C1068.41 33.0227 1068.12 33.3636 1067.91 33.7841C1067.7 34.2045 1067.6 34.6553 1067.6 35.1364V35.9091C1067.6 36.5682 1067.71 37.1269 1067.94 37.5852C1068.17 38.0398 1068.49 38.3864 1068.9 38.625C1069.31 38.8598 1069.78 38.9773 1070.32 38.9773C1070.68 38.9773 1070.99 38.928 1071.28 38.8295C1071.57 38.7273 1071.81 38.5758 1072.02 38.375C1072.23 38.1705 1072.39 37.9167 1072.51 37.6136L1073.8 37.9773C1073.66 38.4167 1073.44 38.803 1073.11 39.1364C1072.79 39.4659 1072.39 39.7235 1071.92 39.9091C1071.45 40.0909 1070.91 40.1818 1070.32 40.1818ZM1079.52 40.1818C1078.7 40.1818 1078 39.9886 1077.41 39.6023C1076.82 39.2159 1076.36 38.6837 1076.05 38.0057C1075.73 37.3277 1075.57 36.553 1075.57 35.6818C1075.57 34.7955 1075.73 34.0133 1076.06 33.3352C1076.39 32.6534 1076.84 32.1212 1077.43 31.7386C1078.02 31.3523 1078.71 31.1591 1079.5 31.1591C1080.11 31.1591 1080.67 31.2727 1081.16 31.5C1081.65 31.7273 1082.05 32.0455 1082.37 32.4545C1082.68 32.8636 1082.88 33.3409 1082.95 33.8864H1081.61C1081.51 33.4886 1081.28 33.1364 1080.93 32.8295C1080.58 32.5189 1080.11 32.3636 1079.52 32.3636C1079 32.3636 1078.54 32.5 1078.15 32.7727C1077.76 33.0417 1077.45 33.4223 1077.23 33.9148C1077.02 34.4034 1076.91 34.9773 1076.91 35.6364C1076.91 36.3106 1077.02 36.8977 1077.23 37.3977C1077.44 37.8977 1077.75 38.286 1078.14 38.5625C1078.53 38.839 1078.99 38.9773 1079.52 38.9773C1079.87 38.9773 1080.19 38.9167 1080.47 38.7955C1080.76 38.6742 1081 38.5 1081.19 38.2727C1081.39 38.0455 1081.53 37.7727 1081.61 37.4545H1082.95C1082.88 37.9697 1082.69 38.4337 1082.39 38.8466C1082.1 39.2557 1081.7 39.5814 1081.22 39.8239C1080.73 40.0625 1080.17 40.1818 1079.52 40.1818ZM1088.46 40.1818C1087.67 40.1818 1086.98 39.9943 1086.39 39.6193C1085.8 39.2443 1085.33 38.7197 1085 38.0455C1084.67 37.3712 1084.51 36.5833 1084.51 35.6818C1084.51 34.7727 1084.67 33.9792 1085 33.3011C1085.33 32.6231 1085.8 32.0966 1086.39 31.7216C1086.98 31.3466 1087.67 31.1591 1088.46 31.1591C1089.25 31.1591 1089.94 31.3466 1090.53 31.7216C1091.12 32.0966 1091.59 32.6231 1091.91 33.3011C1092.25 33.9792 1092.41 34.7727 1092.41 35.6818C1092.41 36.5833 1092.25 37.3712 1091.91 38.0455C1091.59 38.7197 1091.12 39.2443 1090.53 39.6193C1089.94 39.9943 1089.25 40.1818 1088.46 40.1818ZM1088.46 38.9773C1089.06 38.9773 1089.55 38.8239 1089.94 38.517C1090.32 38.2102 1090.61 37.8068 1090.8 37.3068C1090.98 36.8068 1091.07 36.2652 1091.07 35.6818C1091.07 35.0985 1090.98 34.5549 1090.8 34.0511C1090.61 33.5473 1090.32 33.1402 1089.94 32.8295C1089.55 32.5189 1089.06 32.3636 1088.46 32.3636C1087.86 32.3636 1087.37 32.5189 1086.98 32.8295C1086.6 33.1402 1086.31 33.5473 1086.12 34.0511C1085.94 34.5549 1085.85 35.0985 1085.85 35.6818C1085.85 36.2652 1085.94 36.8068 1086.12 37.3068C1086.31 37.8068 1086.6 38.2102 1086.98 38.517C1087.37 38.8239 1087.86 38.9773 1088.46 38.9773ZM1094.46 40V31.2727H1095.76V32.5909H1095.85C1096.01 32.1591 1096.29 31.8087 1096.71 31.5398C1097.13 31.2708 1097.6 31.1364 1098.12 31.1364C1098.22 31.1364 1098.34 31.1383 1098.49 31.142C1098.64 31.1458 1098.75 31.1515 1098.83 31.1591V32.5227C1098.78 32.5114 1098.68 32.4943 1098.51 32.4716C1098.35 32.4451 1098.19 32.4318 1098.01 32.4318C1097.58 32.4318 1097.2 32.5208 1096.87 32.6989C1096.54 32.8731 1096.28 33.1155 1096.09 33.4261C1095.9 33.733 1095.8 34.0833 1095.8 34.4773V40H1094.46ZM1102.98 40.2045C1102.43 40.2045 1101.93 40.1004 1101.48 39.892C1101.03 39.6799 1100.67 39.375 1100.4 38.9773C1100.14 38.5758 1100.01 38.0909 1100.01 37.5227C1100.01 37.0227 1100.1 36.6174 1100.3 36.3068C1100.5 35.9924 1100.76 35.7462 1101.09 35.5682C1101.42 35.3902 1101.78 35.2576 1102.18 35.1705C1102.58 35.0795 1102.99 35.0076 1103.39 34.9545C1103.92 34.8864 1104.35 34.8352 1104.68 34.8011C1105.02 34.7633 1105.26 34.7008 1105.41 34.6136C1105.56 34.5265 1105.64 34.375 1105.64 34.1591V34.1136C1105.64 33.553 1105.49 33.1174 1105.18 32.8068C1104.88 32.4962 1104.42 32.3409 1103.8 32.3409C1103.16 32.3409 1102.66 32.4811 1102.3 32.7614C1101.93 33.0417 1101.68 33.3409 1101.53 33.6591L1100.26 33.2045C1100.48 32.6742 1100.79 32.2614 1101.16 31.9659C1101.55 31.6667 1101.96 31.4583 1102.41 31.3409C1102.87 31.2197 1103.32 31.1591 1103.76 31.1591C1104.04 31.1591 1104.36 31.1932 1104.72 31.2614C1105.09 31.3258 1105.44 31.4602 1105.78 31.6648C1106.13 31.8693 1106.41 32.178 1106.64 32.5909C1106.87 33.0038 1106.98 33.5568 1106.98 34.25V40H1105.64V38.8182H1105.57C1105.48 39.0076 1105.33 39.2102 1105.12 39.4261C1104.91 39.642 1104.63 39.8258 1104.27 39.9773C1103.92 40.1288 1103.49 40.2045 1102.98 40.2045ZM1103.19 39C1103.72 39 1104.16 38.8958 1104.53 38.6875C1104.9 38.4792 1105.17 38.2102 1105.36 37.8807C1105.55 37.5511 1105.64 37.2045 1105.64 36.8409V35.6136C1105.59 35.6818 1105.46 35.7443 1105.27 35.8011C1105.08 35.8542 1104.86 35.9015 1104.61 35.9432C1104.36 35.9811 1104.12 36.0152 1103.89 36.0455C1103.66 36.072 1103.47 36.0947 1103.32 36.1136C1102.98 36.1591 1102.65 36.233 1102.35 36.3352C1102.05 36.4337 1101.8 36.5833 1101.62 36.7841C1101.44 36.9811 1101.35 37.25 1101.35 37.5909C1101.35 38.0568 1101.52 38.4091 1101.86 38.6477C1102.21 38.8826 1102.65 39 1103.19 39ZM1113.23 31.2727V32.4091H1108.7V31.2727H1113.23ZM1110.02 29.1818H1111.36V37.5C1111.36 37.8788 1111.42 38.1629 1111.53 38.3523C1111.64 38.5379 1111.78 38.6629 1111.96 38.7273C1112.14 38.7879 1112.32 38.8182 1112.52 38.8182C1112.67 38.8182 1112.79 38.8106 1112.88 38.7955C1112.98 38.7765 1113.06 38.7614 1113.11 38.75L1113.38 39.9545C1113.29 39.9886 1113.17 40.0227 1113 40.0568C1112.84 40.0947 1112.63 40.1136 1112.38 40.1136C1112.01 40.1136 1111.63 40.0322 1111.27 39.8693C1110.91 39.7064 1110.61 39.4583 1110.37 39.125C1110.14 38.7917 1110.02 38.3712 1110.02 37.8636V29.1818ZM1115.24 40V31.2727H1116.58V40H1115.24ZM1115.92 29.8182C1115.66 29.8182 1115.44 29.7292 1115.25 29.5511C1115.06 29.3731 1114.97 29.1591 1114.97 28.9091C1114.97 28.6591 1115.06 28.4451 1115.25 28.267C1115.44 28.089 1115.66 28 1115.92 28C1116.19 28 1116.41 28.089 1116.6 28.267C1116.78 28.4451 1116.88 28.6591 1116.88 28.9091C1116.88 29.1591 1116.78 29.3731 1116.6 29.5511C1116.41 29.7292 1116.19 29.8182 1115.92 29.8182ZM1126.18 31.2727L1122.95 40H1121.59L1118.36 31.2727H1119.81L1122.22 38.2273H1122.31L1124.72 31.2727H1126.18ZM1131.29 40.1818C1130.45 40.1818 1129.73 39.9962 1129.12 39.625C1128.51 39.25 1128.04 38.7273 1127.71 38.0568C1127.39 37.3826 1127.22 36.5985 1127.22 35.7045C1127.22 34.8106 1127.39 34.0227 1127.71 33.3409C1128.04 32.6553 1128.5 32.1212 1129.09 31.7386C1129.68 31.3523 1130.37 31.1591 1131.16 31.1591C1131.61 31.1591 1132.06 31.2348 1132.5 31.3864C1132.95 31.5379 1133.35 31.7841 1133.71 32.125C1134.08 32.4621 1134.37 32.9091 1134.58 33.4659C1134.8 34.0227 1134.91 34.7083 1134.91 35.5227V36.0909H1128.18V34.9318H1133.54C1133.54 34.4394 1133.44 34 1133.25 33.6136C1133.05 33.2273 1132.78 32.9223 1132.42 32.6989C1132.06 32.4754 1131.64 32.3636 1131.16 32.3636C1130.62 32.3636 1130.16 32.4962 1129.77 32.7614C1129.38 33.0227 1129.09 33.3636 1128.88 33.7841C1128.67 34.2045 1128.57 34.6553 1128.57 35.1364V35.9091C1128.57 36.5682 1128.68 37.1269 1128.91 37.5852C1129.14 38.0398 1129.46 38.3864 1129.87 38.625C1130.28 38.8598 1130.75 38.9773 1131.29 38.9773C1131.64 38.9773 1131.96 38.928 1132.25 38.8295C1132.54 38.7273 1132.78 38.5758 1132.99 38.375C1133.2 38.1705 1133.36 37.9167 1133.47 37.6136L1134.77 37.9773C1134.63 38.4167 1134.4 38.803 1134.08 39.1364C1133.76 39.4659 1133.36 39.7235 1132.89 39.9091C1132.42 40.0909 1131.88 40.1818 1131.29 40.1818ZM1137.92 40.0909C1137.64 40.0909 1137.4 39.9905 1137.2 39.7898C1137 39.589 1136.9 39.3485 1136.9 39.0682C1136.9 38.7879 1137 38.5473 1137.2 38.3466C1137.4 38.1458 1137.64 38.0455 1137.92 38.0455C1138.2 38.0455 1138.44 38.1458 1138.64 38.3466C1138.85 38.5473 1138.95 38.7879 1138.95 39.0682C1138.95 39.2538 1138.9 39.4242 1138.8 39.5795C1138.71 39.7348 1138.59 39.8598 1138.43 39.9545C1138.28 40.0455 1138.11 40.0909 1137.92 40.0909ZM1142.69 28.3636V40H1141.35V28.3636H1142.69ZM1145.15 40V31.2727H1146.49V40H1145.15ZM1145.83 29.8182C1145.57 29.8182 1145.34 29.7292 1145.15 29.5511C1144.97 29.3731 1144.88 29.1591 1144.88 28.9091C1144.88 28.6591 1144.97 28.4451 1145.15 28.267C1145.34 28.089 1145.57 28 1145.83 28C1146.09 28 1146.32 28.089 1146.5 28.267C1146.69 28.4451 1146.79 28.6591 1146.79 28.9091C1146.79 29.1591 1146.69 29.3731 1146.5 29.5511C1146.32 29.7292 1146.09 29.8182 1145.83 29.8182ZM1148.95 40V31.2727H1150.24V32.6364H1150.36C1150.54 32.1705 1150.83 31.8087 1151.24 31.5511C1151.64 31.2898 1152.13 31.1591 1152.7 31.1591C1153.27 31.1591 1153.75 31.2898 1154.13 31.5511C1154.52 31.8087 1154.82 32.1705 1155.04 32.6364H1155.13C1155.35 32.1856 1155.69 31.8277 1156.13 31.5625C1156.58 31.2936 1157.12 31.1591 1157.74 31.1591C1158.52 31.1591 1159.16 31.4034 1159.66 31.892C1160.15 32.3769 1160.4 33.1326 1160.4 34.1591V40H1159.06V34.1591C1159.06 33.5152 1158.88 33.0549 1158.53 32.7784C1158.18 32.5019 1157.76 32.3636 1157.29 32.3636C1156.67 32.3636 1156.2 32.5492 1155.86 32.9205C1155.52 33.2879 1155.36 33.7538 1155.36 34.3182V40H1153.99V34.0227C1153.99 33.5265 1153.83 33.1269 1153.51 32.8239C1153.19 32.517 1152.77 32.3636 1152.26 32.3636C1151.92 32.3636 1151.59 32.4564 1151.29 32.642C1150.99 32.8277 1150.75 33.0852 1150.56 33.4148C1150.38 33.7405 1150.29 34.1174 1150.29 34.5455V40H1148.95ZM1166.51 40.1818C1165.67 40.1818 1164.95 39.9962 1164.34 39.625C1163.73 39.25 1163.26 38.7273 1162.93 38.0568C1162.61 37.3826 1162.44 36.5985 1162.44 35.7045C1162.44 34.8106 1162.61 34.0227 1162.93 33.3409C1163.26 32.6553 1163.72 32.1212 1164.31 31.7386C1164.9 31.3523 1165.59 31.1591 1166.38 31.1591C1166.83 31.1591 1167.28 31.2348 1167.72 31.3864C1168.16 31.5379 1168.57 31.7841 1168.93 32.125C1169.3 32.4621 1169.59 32.9091 1169.8 33.4659C1170.02 34.0227 1170.12 34.7083 1170.12 35.5227V36.0909H1163.4V34.9318H1168.76C1168.76 34.4394 1168.66 34 1168.47 33.6136C1168.27 33.2273 1168 32.9223 1167.64 32.6989C1167.28 32.4754 1166.86 32.3636 1166.38 32.3636C1165.84 32.3636 1165.38 32.4962 1164.99 32.7614C1164.6 33.0227 1164.3 33.3636 1164.1 33.7841C1163.89 34.2045 1163.78 34.6553 1163.78 35.1364V35.9091C1163.78 36.5682 1163.9 37.1269 1164.12 37.5852C1164.36 38.0398 1164.68 38.3864 1165.09 38.625C1165.49 38.8598 1165.97 38.9773 1166.51 38.9773C1166.86 38.9773 1167.18 38.928 1167.47 38.8295C1167.75 38.7273 1168 38.5758 1168.21 38.375C1168.42 38.1705 1168.58 37.9167 1168.69 37.6136L1169.99 37.9773C1169.85 38.4167 1169.62 38.803 1169.3 39.1364C1168.98 39.4659 1168.58 39.7235 1168.11 39.9091C1167.63 40.0909 1167.1 40.1818 1166.51 40.1818ZM1173.14 40.0909C1172.86 40.0909 1172.62 39.9905 1172.42 39.7898C1172.22 39.589 1172.12 39.3485 1172.12 39.0682C1172.12 38.7879 1172.22 38.5473 1172.42 38.3466C1172.62 38.1458 1172.86 38.0455 1173.14 38.0455C1173.42 38.0455 1173.66 38.1458 1173.86 38.3466C1174.06 38.5473 1174.16 38.7879 1174.16 39.0682C1174.16 39.2538 1174.12 39.4242 1174.02 39.5795C1173.93 39.7348 1173.81 39.8598 1173.65 39.9545C1173.5 40.0455 1173.33 40.0909 1173.14 40.0909ZM1180.04 40.1591C1179.29 40.1591 1178.62 40.0303 1178.04 39.7727C1177.45 39.5152 1176.99 39.1572 1176.64 38.6989C1176.3 38.2367 1176.12 37.7008 1176.09 37.0909H1177.52C1177.55 37.4659 1177.68 37.7898 1177.91 38.0625C1178.13 38.3314 1178.43 38.5398 1178.8 38.6875C1179.17 38.8352 1179.57 38.9091 1180.02 38.9091C1180.52 38.9091 1180.96 38.822 1181.35 38.6477C1181.74 38.4735 1182.04 38.2311 1182.26 37.9205C1182.48 37.6098 1182.59 37.25 1182.59 36.8409C1182.59 36.4129 1182.48 36.036 1182.27 35.7102C1182.06 35.3807 1181.75 35.1231 1181.34 34.9375C1180.93 34.7519 1180.43 34.6591 1179.84 34.6591H1178.91V33.4091H1179.84C1180.3 33.4091 1180.71 33.3258 1181.05 33.1591C1181.41 32.9924 1181.68 32.7576 1181.88 32.4545C1182.08 32.1515 1182.18 31.7955 1182.18 31.3864C1182.18 30.9924 1182.09 30.6496 1181.92 30.358C1181.74 30.0663 1181.5 29.839 1181.18 29.6761C1180.86 29.5133 1180.49 29.4318 1180.07 29.4318C1179.66 29.4318 1179.29 29.5057 1178.93 29.6534C1178.58 29.7973 1178.29 30.0076 1178.07 30.2841C1177.84 30.5568 1177.72 30.8864 1177.7 31.2727H1176.34C1176.36 30.6629 1176.54 30.1288 1176.89 29.6705C1177.23 29.2083 1177.68 28.8485 1178.24 28.5909C1178.8 28.3333 1179.42 28.2045 1180.09 28.2045C1180.81 28.2045 1181.43 28.3504 1181.94 28.642C1182.46 28.9299 1182.85 29.3106 1183.13 29.7841C1183.4 30.2576 1183.54 30.7689 1183.54 31.3182C1183.54 31.9735 1183.37 32.5322 1183.03 32.9943C1182.68 33.4564 1182.22 33.7765 1181.63 33.9545V34.0455C1182.37 34.1667 1182.94 34.4792 1183.36 34.983C1183.77 35.483 1183.97 36.1023 1183.97 36.8409C1183.97 37.4735 1183.8 38.0417 1183.46 38.5455C1183.12 39.0455 1182.65 39.4394 1182.06 39.7273C1181.47 40.0152 1180.8 40.1591 1180.04 40.1591Z" fill="white" fill-opacity="0.95"/>
</svg>
