<svg width="1300" height="68" viewBox="0 0 1300 68" fill="none" xmlns="http://www.w3.org/2000/svg">
<rect width="1300" height="68" fill="#1A1A1A"/>
<mask id="path-1-inside-1_1637_5684" fill="white">
<path d="M0 0H433.333V68H0V0Z"/>
</mask>
<path d="M432.333 0V68H434.333V0H432.333Z" fill="#707070" mask="url(#path-1-inside-1_1637_5684)"/>
<mask id="path-3-inside-2_1637_5684" fill="white">
<path d="M433.333 0H866.667V68H433.333V0Z"/>
</mask>
<path d="M866.667 0H867.667V-1H866.667V0ZM866.667 68V69H867.667V68H866.667ZM433.333 1H866.667V-1H433.333V1ZM865.667 0V68H867.667V0H865.667ZM866.667 67H433.333V69H866.667V67Z" fill="#707070" mask="url(#path-3-inside-2_1637_5684)"/>
<path d="M464.742 40V28.3636H466.152V33.5455H472.356V28.3636H473.765V40H472.356V34.7955H466.152V40H464.742ZM479.95 40.1818C479.162 40.1818 478.471 39.9943 477.876 39.6193C477.285 39.2443 476.823 38.7197 476.49 38.0455C476.16 37.3712 475.995 36.5833 475.995 35.6818C475.995 34.7727 476.16 33.9792 476.49 33.3011C476.823 32.6231 477.285 32.0966 477.876 31.7216C478.471 31.3466 479.162 31.1591 479.95 31.1591C480.738 31.1591 481.427 31.3466 482.018 31.7216C482.613 32.0966 483.075 32.6231 483.404 33.3011C483.738 33.9792 483.904 34.7727 483.904 35.6818C483.904 36.5833 483.738 37.3712 483.404 38.0455C483.075 38.7197 482.613 39.2443 482.018 39.6193C481.427 39.9943 480.738 40.1818 479.95 40.1818ZM479.95 38.9773C480.548 38.9773 481.041 38.8239 481.427 38.517C481.813 38.2102 482.099 37.8068 482.285 37.3068C482.471 36.8068 482.563 36.2652 482.563 35.6818C482.563 35.0985 482.471 34.5549 482.285 34.0511C482.099 33.5473 481.813 33.1402 481.427 32.8295C481.041 32.5189 480.548 32.3636 479.95 32.3636C479.351 32.3636 478.859 32.5189 478.473 32.8295C478.086 33.1402 477.8 33.5473 477.615 34.0511C477.429 34.5549 477.336 35.0985 477.336 35.6818C477.336 36.2652 477.429 36.8068 477.615 37.3068C477.8 37.8068 478.086 38.2102 478.473 38.517C478.859 38.8239 479.351 38.9773 479.95 38.9773ZM492.775 31.2727L489.548 40H488.184L484.957 31.2727H486.411L488.821 38.2273H488.911L491.321 31.2727H492.775ZM497.892 40.1818C497.051 40.1818 496.325 39.9962 495.715 39.625C495.109 39.25 494.642 38.7273 494.312 38.0568C493.986 37.3826 493.823 36.5985 493.823 35.7045C493.823 34.8106 493.986 34.0227 494.312 33.3409C494.642 32.6553 495.1 32.1212 495.687 31.7386C496.278 31.3523 496.967 31.1591 497.755 31.1591C498.21 31.1591 498.659 31.2348 499.102 31.3864C499.545 31.5379 499.948 31.7841 500.312 32.125C500.676 32.4621 500.965 32.9091 501.181 33.4659C501.397 34.0227 501.505 34.7083 501.505 35.5227V36.0909H494.778V34.9318H500.142C500.142 34.4394 500.043 34 499.846 33.6136C499.653 33.2273 499.376 32.9223 499.017 32.6989C498.661 32.4754 498.24 32.3636 497.755 32.3636C497.221 32.3636 496.759 32.4962 496.369 32.7614C495.982 33.0227 495.685 33.3636 495.477 33.7841C495.268 34.2045 495.164 34.6553 495.164 35.1364V35.9091C495.164 36.5682 495.278 37.1269 495.505 37.5852C495.736 38.0398 496.056 38.3864 496.465 38.625C496.875 38.8598 497.35 38.9773 497.892 38.9773C498.244 38.9773 498.562 38.928 498.846 38.8295C499.134 38.7273 499.382 38.5758 499.59 38.375C499.799 38.1705 499.96 37.9167 500.073 37.6136L501.369 37.9773C501.232 38.4167 501.003 38.803 500.681 39.1364C500.359 39.4659 499.962 39.7235 499.488 39.9091C499.015 40.0909 498.482 40.1818 497.892 40.1818ZM503.545 40V31.2727H504.84V32.5909H504.931C505.09 32.1591 505.378 31.8087 505.795 31.5398C506.212 31.2708 506.681 31.1364 507.204 31.1364C507.303 31.1364 507.426 31.1383 507.573 31.142C507.721 31.1458 507.833 31.1515 507.909 31.1591V32.5227C507.863 32.5114 507.759 32.4943 507.596 32.4716C507.437 32.4451 507.268 32.4318 507.09 32.4318C506.666 32.4318 506.287 32.5208 505.954 32.6989C505.625 32.8731 505.363 33.1155 505.17 33.4261C504.981 33.733 504.886 34.0833 504.886 34.4773V40H503.545Z" fill="white" fill-opacity="0.95"/>
<mask id="path-6-inside-3_1637_5684" fill="white">
<path d="M866.667 0H1300V68H866.667V0Z"/>
</mask>
<path d="M1300 68V69H1301V68H1300ZM1299 0V68H1301V0H1299ZM1300 67H866.667V69H1300V67Z" fill="white" fill-opacity="0.3" mask="url(#path-6-inside-3_1637_5684)"/>
<path d="M901.689 31.2727V32.4091H897.167V31.2727H901.689ZM898.485 29.1818H899.826V37.5C899.826 37.8788 899.881 38.1629 899.99 38.3523C900.104 38.5379 900.248 38.6629 900.422 38.7273C900.6 38.7879 900.788 38.8182 900.985 38.8182C901.133 38.8182 901.254 38.8106 901.348 38.7955C901.443 38.7765 901.519 38.7614 901.576 38.75L901.848 39.9545C901.758 39.9886 901.631 40.0227 901.468 40.0568C901.305 40.0947 901.098 40.1136 900.848 40.1136C900.47 40.1136 900.098 40.0322 899.735 39.8693C899.375 39.7064 899.076 39.4583 898.837 39.125C898.602 38.7917 898.485 38.3712 898.485 37.8636V29.1818ZM905.235 34.75V40H903.894V28.3636H905.235V32.6364H905.348C905.553 32.1856 905.86 31.8277 906.269 31.5625C906.682 31.2936 907.231 31.1591 907.917 31.1591C908.511 31.1591 909.032 31.2784 909.479 31.517C909.926 31.7519 910.273 32.1136 910.519 32.6023C910.769 33.0871 910.894 33.7045 910.894 34.4545V40H909.553V34.5455C909.553 33.8523 909.373 33.3163 909.013 32.9375C908.657 32.5549 908.163 32.3636 907.53 32.3636C907.091 32.3636 906.697 32.4564 906.348 32.642C906.004 32.8277 905.731 33.0985 905.53 33.4545C905.333 33.8106 905.235 34.2424 905.235 34.75ZM917.006 40.1818C916.165 40.1818 915.44 39.9962 914.83 39.625C914.224 39.25 913.756 38.7273 913.427 38.0568C913.101 37.3826 912.938 36.5985 912.938 35.7045C912.938 34.8106 913.101 34.0227 913.427 33.3409C913.756 32.6553 914.214 32.1212 914.802 31.7386C915.392 31.3523 916.082 31.1591 916.87 31.1591C917.324 31.1591 917.773 31.2348 918.216 31.3864C918.66 31.5379 919.063 31.7841 919.427 32.125C919.79 32.4621 920.08 32.9091 920.296 33.4659C920.512 34.0227 920.62 34.7083 920.62 35.5227V36.0909H913.892V34.9318H919.256C919.256 34.4394 919.158 34 918.961 33.6136C918.767 33.2273 918.491 32.9223 918.131 32.6989C917.775 32.4754 917.355 32.3636 916.87 32.3636C916.336 32.3636 915.874 32.4962 915.483 32.7614C915.097 33.0227 914.8 33.3636 914.591 33.7841C914.383 34.2045 914.279 34.6553 914.279 35.1364V35.9091C914.279 36.5682 914.392 37.1269 914.62 37.5852C914.851 38.0398 915.171 38.3864 915.58 38.625C915.989 38.8598 916.464 38.9773 917.006 38.9773C917.358 38.9773 917.677 38.928 917.961 38.8295C918.249 38.7273 918.497 38.5758 918.705 38.375C918.913 38.1705 919.074 37.9167 919.188 37.6136L920.483 37.9773C920.347 38.4167 920.118 38.803 919.796 39.1364C919.474 39.4659 919.076 39.7235 918.603 39.9091C918.129 40.0909 917.597 40.1818 917.006 40.1818ZM922.66 40V31.2727H923.955V32.6364H924.069C924.25 32.1705 924.544 31.8087 924.949 31.5511C925.355 31.2898 925.841 31.1591 926.41 31.1591C926.985 31.1591 927.464 31.2898 927.847 31.5511C928.233 31.8087 928.535 32.1705 928.75 32.6364H928.841C929.065 32.1856 929.4 31.8277 929.847 31.5625C930.294 31.2936 930.83 31.1591 931.455 31.1591C932.235 31.1591 932.874 31.4034 933.37 31.892C933.866 32.3769 934.114 33.1326 934.114 34.1591V40H932.773V34.1591C932.773 33.5152 932.597 33.0549 932.245 32.7784C931.892 32.5019 931.478 32.3636 931 32.3636C930.387 32.3636 929.911 32.5492 929.574 32.9205C929.237 33.2879 929.069 33.7538 929.069 34.3182V40H927.705V34.0227C927.705 33.5265 927.544 33.1269 927.222 32.8239C926.9 32.517 926.485 32.3636 925.978 32.3636C925.629 32.3636 925.303 32.4564 925 32.642C924.701 32.8277 924.459 33.0852 924.273 33.4148C924.091 33.7405 924 34.1174 924 34.5455V40H922.66ZM940.225 40.1818C939.384 40.1818 938.659 39.9962 938.049 39.625C937.443 39.25 936.975 38.7273 936.645 38.0568C936.32 37.3826 936.157 36.5985 936.157 35.7045C936.157 34.8106 936.32 34.0227 936.645 33.3409C936.975 32.6553 937.433 32.1212 938.02 31.7386C938.611 31.3523 939.301 31.1591 940.089 31.1591C940.543 31.1591 940.992 31.2348 941.435 31.3864C941.878 31.5379 942.282 31.7841 942.645 32.125C943.009 32.4621 943.299 32.9091 943.515 33.4659C943.731 34.0227 943.839 34.7083 943.839 35.5227V36.0909H937.111V34.9318H942.475C942.475 34.4394 942.376 34 942.179 33.6136C941.986 33.2273 941.71 32.9223 941.35 32.6989C940.994 32.4754 940.573 32.3636 940.089 32.3636C939.554 32.3636 939.092 32.4962 938.702 32.7614C938.316 33.0227 938.018 33.3636 937.81 33.7841C937.602 34.2045 937.498 34.6553 937.498 35.1364V35.9091C937.498 36.5682 937.611 37.1269 937.839 37.5852C938.07 38.0398 938.39 38.3864 938.799 38.625C939.208 38.8598 939.683 38.9773 940.225 38.9773C940.577 38.9773 940.895 38.928 941.179 38.8295C941.467 38.7273 941.715 38.5758 941.924 38.375C942.132 38.1705 942.293 37.9167 942.407 37.6136L943.702 37.9773C943.566 38.4167 943.337 38.803 943.015 39.1364C942.693 39.4659 942.295 39.7235 941.821 39.9091C941.348 40.0909 940.816 40.1818 940.225 40.1818ZM949.992 27.8182L946.242 41.75H945.015L948.765 27.8182H949.992ZM952.922 34.75V40H951.581V31.2727H952.877V32.6364H952.99C953.195 32.1932 953.506 31.8371 953.922 31.5682C954.339 31.2955 954.877 31.1591 955.536 31.1591C956.127 31.1591 956.644 31.2803 957.087 31.5227C957.53 31.7614 957.875 32.125 958.121 32.6136C958.367 33.0985 958.49 33.7121 958.49 34.4545V40H957.15V34.5455C957.15 33.8598 956.972 33.3258 956.615 32.9432C956.259 32.5568 955.771 32.3636 955.15 32.3636C954.722 32.3636 954.339 32.4564 954.002 32.642C953.669 32.8277 953.405 33.0985 953.212 33.4545C953.019 33.8106 952.922 34.2424 952.922 34.75ZM964.6 40.1818C963.759 40.1818 963.034 39.9962 962.424 39.625C961.818 39.25 961.35 38.7273 961.02 38.0568C960.695 37.3826 960.532 36.5985 960.532 35.7045C960.532 34.8106 960.695 34.0227 961.02 33.3409C961.35 32.6553 961.808 32.1212 962.395 31.7386C962.986 31.3523 963.676 31.1591 964.464 31.1591C964.918 31.1591 965.367 31.2348 965.81 31.3864C966.253 31.5379 966.657 31.7841 967.02 32.125C967.384 32.4621 967.674 32.9091 967.89 33.4659C968.106 34.0227 968.214 34.7083 968.214 35.5227V36.0909H961.486V34.9318H966.85C966.85 34.4394 966.751 34 966.554 33.6136C966.361 33.2273 966.085 32.9223 965.725 32.6989C965.369 32.4754 964.948 32.3636 964.464 32.3636C963.929 32.3636 963.467 32.4962 963.077 32.7614C962.691 33.0227 962.393 33.3636 962.185 33.7841C961.977 34.2045 961.873 34.6553 961.873 35.1364V35.9091C961.873 36.5682 961.986 37.1269 962.214 37.5852C962.445 38.0398 962.765 38.3864 963.174 38.625C963.583 38.8598 964.058 38.9773 964.6 38.9773C964.952 38.9773 965.27 38.928 965.554 38.8295C965.842 38.7273 966.09 38.5758 966.299 38.375C966.507 38.1705 966.668 37.9167 966.782 37.6136L968.077 37.9773C967.941 38.4167 967.712 38.803 967.39 39.1364C967.068 39.4659 966.67 39.7235 966.196 39.9091C965.723 40.0909 965.191 40.1818 964.6 40.1818ZM975.753 36.4318V31.2727H977.094V40H975.753V38.5227H975.662C975.458 38.9659 975.14 39.3428 974.708 39.6534C974.276 39.9602 973.731 40.1136 973.071 40.1136C972.526 40.1136 972.041 39.9943 971.617 39.7557C971.193 39.5133 970.859 39.1496 970.617 38.6648C970.374 38.1761 970.253 37.5606 970.253 36.8182V31.2727H971.594V36.7273C971.594 37.3636 971.772 37.8712 972.128 38.25C972.488 38.6288 972.946 38.8182 973.503 38.8182C973.837 38.8182 974.176 38.733 974.52 38.5625C974.869 38.392 975.16 38.1307 975.395 37.7784C975.634 37.4261 975.753 36.9773 975.753 36.4318ZM983.346 31.2727V32.4091H978.823V31.2727H983.346ZM980.141 29.1818H981.482V37.5C981.482 37.8788 981.537 38.1629 981.647 38.3523C981.76 38.5379 981.904 38.6629 982.079 38.7273C982.257 38.7879 982.444 38.8182 982.641 38.8182C982.789 38.8182 982.91 38.8106 983.005 38.7955C983.099 38.7765 983.175 38.7614 983.232 38.75L983.505 39.9545C983.414 39.9886 983.287 40.0227 983.124 40.0568C982.961 40.0947 982.755 40.1136 982.505 40.1136C982.126 40.1136 981.755 40.0322 981.391 39.8693C981.031 39.7064 980.732 39.4583 980.493 39.125C980.258 38.7917 980.141 38.3712 980.141 37.8636V29.1818ZM985.363 40V31.2727H986.658V32.5909H986.749C986.908 32.1591 987.196 31.8087 987.613 31.5398C988.029 31.2708 988.499 31.1364 989.022 31.1364C989.12 31.1364 989.243 31.1383 989.391 31.142C989.539 31.1458 989.651 31.1515 989.726 31.1591V32.5227C989.681 32.5114 989.577 32.4943 989.414 32.4716C989.255 32.4451 989.086 32.4318 988.908 32.4318C988.484 32.4318 988.105 32.5208 987.772 32.6989C987.442 32.8731 987.181 33.1155 986.988 33.4261C986.798 33.733 986.704 34.0833 986.704 34.4773V40H985.363ZM993.884 40.2045C993.331 40.2045 992.829 40.1004 992.378 39.892C991.928 39.6799 991.57 39.375 991.304 38.9773C991.039 38.5758 990.907 38.0909 990.907 37.5227C990.907 37.0227 991.005 36.6174 991.202 36.3068C991.399 35.9924 991.662 35.7462 991.992 35.5682C992.321 35.3902 992.685 35.2576 993.083 35.1705C993.484 35.0795 993.888 35.0076 994.293 34.9545C994.823 34.8864 995.253 34.8352 995.583 34.8011C995.916 34.7633 996.159 34.7008 996.31 34.6136C996.465 34.5265 996.543 34.375 996.543 34.1591V34.1136C996.543 33.553 996.39 33.1174 996.083 32.8068C995.78 32.4962 995.32 32.3409 994.702 32.3409C994.062 32.3409 993.56 32.4811 993.196 32.7614C992.833 33.0417 992.577 33.3409 992.429 33.6591L991.157 33.2045C991.384 32.6742 991.687 32.2614 992.066 31.9659C992.448 31.6667 992.865 31.4583 993.316 31.3409C993.77 31.2197 994.217 31.1591 994.657 31.1591C994.937 31.1591 995.259 31.1932 995.623 31.2614C995.99 31.3258 996.344 31.4602 996.685 31.6648C997.03 31.8693 997.316 32.178 997.543 32.5909C997.77 33.0038 997.884 33.5568 997.884 34.25V40H996.543V38.8182H996.475C996.384 39.0076 996.232 39.2102 996.02 39.4261C995.808 39.642 995.526 39.8258 995.174 39.9773C994.821 40.1288 994.392 40.2045 993.884 40.2045ZM994.089 39C994.619 39 995.066 38.8958 995.429 38.6875C995.797 38.4792 996.073 38.2102 996.259 37.8807C996.448 37.5511 996.543 37.2045 996.543 36.8409V35.6136C996.486 35.6818 996.361 35.7443 996.168 35.8011C995.979 35.8542 995.759 35.9015 995.509 35.9432C995.263 35.9811 995.022 36.0152 994.787 36.0455C994.556 36.072 994.369 36.0947 994.225 36.1136C993.876 36.1591 993.551 36.233 993.248 36.3352C992.948 36.4337 992.706 36.5833 992.52 36.7841C992.339 36.9811 992.248 37.25 992.248 37.5909C992.248 38.0568 992.42 38.4091 992.765 38.6477C993.113 38.8826 993.554 39 994.089 39ZM1001.67 28.3636V40H1000.33V28.3636H1001.67ZM1008.24 27.8182L1004.49 41.75H1003.26L1007.01 27.8182H1008.24ZM1013.63 31.2727V32.4091H1009.1V31.2727H1013.63ZM1010.42 29.1818H1011.76V37.5C1011.76 37.8788 1011.82 38.1629 1011.93 38.3523C1012.04 38.5379 1012.19 38.6629 1012.36 38.7273C1012.54 38.7879 1012.73 38.8182 1012.92 38.8182C1013.07 38.8182 1013.19 38.8106 1013.29 38.7955C1013.38 38.7765 1013.46 38.7614 1013.51 38.75L1013.79 39.9545C1013.7 39.9886 1013.57 40.0227 1013.41 40.0568C1013.24 40.0947 1013.04 40.1136 1012.79 40.1136C1012.41 40.1136 1012.04 40.0322 1011.67 39.8693C1011.31 39.7064 1011.01 39.4583 1010.77 39.125C1010.54 38.7917 1010.42 38.3712 1010.42 37.8636V29.1818ZM1019.21 40.1818C1018.37 40.1818 1017.64 39.9962 1017.03 39.625C1016.43 39.25 1015.96 38.7273 1015.63 38.0568C1015.3 37.3826 1015.14 36.5985 1015.14 35.7045C1015.14 34.8106 1015.3 34.0227 1015.63 33.3409C1015.96 32.6553 1016.42 32.1212 1017 31.7386C1017.6 31.3523 1018.28 31.1591 1019.07 31.1591C1019.53 31.1591 1019.98 31.2348 1020.42 31.3864C1020.86 31.5379 1021.27 31.7841 1021.63 32.125C1021.99 32.4621 1022.28 32.9091 1022.5 33.4659C1022.71 34.0227 1022.82 34.7083 1022.82 35.5227V36.0909H1016.1V34.9318H1021.46C1021.46 34.4394 1021.36 34 1021.16 33.6136C1020.97 33.2273 1020.69 32.9223 1020.33 32.6989C1019.98 32.4754 1019.56 32.3636 1019.07 32.3636C1018.54 32.3636 1018.08 32.4962 1017.69 32.7614C1017.3 33.0227 1017 33.3636 1016.79 33.7841C1016.59 34.2045 1016.48 34.6553 1016.48 35.1364V35.9091C1016.48 36.5682 1016.6 37.1269 1016.82 37.5852C1017.05 38.0398 1017.37 38.3864 1017.78 38.625C1018.19 38.8598 1018.67 38.9773 1019.21 38.9773C1019.56 38.9773 1019.88 38.928 1020.16 38.8295C1020.45 38.7273 1020.7 38.5758 1020.91 38.375C1021.12 38.1705 1021.28 37.9167 1021.39 37.6136L1022.69 37.9773C1022.55 38.4167 1022.32 38.803 1022 39.1364C1021.68 39.4659 1021.28 39.7235 1020.81 39.9091C1020.33 40.0909 1019.8 40.1818 1019.21 40.1818ZM1025.63 31.2727L1027.72 34.8409L1029.81 31.2727H1031.36L1028.54 35.6364L1031.36 40H1029.81L1027.72 36.6136L1025.63 40H1024.08L1026.86 35.6364L1024.08 31.2727H1025.63ZM1037.06 31.2727V32.4091H1032.54V31.2727H1037.06ZM1033.86 29.1818H1035.2V37.5C1035.2 37.8788 1035.26 38.1629 1035.37 38.3523C1035.48 38.5379 1035.62 38.6629 1035.8 38.7273C1035.98 38.7879 1036.16 38.8182 1036.36 38.8182C1036.51 38.8182 1036.63 38.8106 1036.72 38.7955C1036.82 38.7765 1036.89 38.7614 1036.95 38.75L1037.22 39.9545C1037.13 39.9886 1037.01 40.0227 1036.84 40.0568C1036.68 40.0947 1036.47 40.1136 1036.22 40.1136C1035.84 40.1136 1035.47 40.0322 1035.11 39.8693C1034.75 39.7064 1034.45 39.4583 1034.21 39.125C1033.98 38.7917 1033.86 38.3712 1033.86 37.8636V29.1818ZM1043.2 27.8182L1039.45 41.75H1038.22L1041.97 27.8182H1043.2ZM1044.78 43.2727V31.2727H1046.08V32.6591H1046.24C1046.34 32.5076 1046.47 32.3144 1046.65 32.0795C1046.83 31.8409 1047.08 31.6288 1047.41 31.4432C1047.74 31.2538 1048.19 31.1591 1048.76 31.1591C1049.5 31.1591 1050.14 31.3428 1050.7 31.7102C1051.27 32.0777 1051.7 32.5985 1052.02 33.2727C1052.33 33.947 1052.49 34.7424 1052.49 35.6591C1052.49 36.5833 1052.33 37.3845 1052.02 38.0625C1051.7 38.7367 1051.27 39.2595 1050.71 39.6307C1050.15 39.9981 1049.51 40.1818 1048.78 40.1818C1048.22 40.1818 1047.78 40.089 1047.44 39.9034C1047.1 39.714 1046.84 39.5 1046.66 39.2614C1046.48 39.0189 1046.34 38.8182 1046.24 38.6591H1046.13V43.2727H1044.78ZM1046.1 35.6364C1046.1 36.2955 1046.2 36.8769 1046.39 37.3807C1046.59 37.8807 1046.87 38.2727 1047.24 38.5568C1047.61 38.8371 1048.06 38.9773 1048.6 38.9773C1049.16 38.9773 1049.63 38.8295 1050.01 38.5341C1050.38 38.2348 1050.67 37.8333 1050.86 37.3295C1051.05 36.822 1051.15 36.2576 1051.15 35.6364C1051.15 35.0227 1051.05 34.4697 1050.86 33.9773C1050.68 33.4811 1050.4 33.089 1050.02 32.8011C1049.64 32.5095 1049.17 32.3636 1048.6 32.3636C1048.06 32.3636 1047.6 32.5019 1047.23 32.7784C1046.86 33.0511 1046.58 33.4337 1046.39 33.9261C1046.2 34.4148 1046.1 34.9848 1046.1 35.6364ZM1054.53 40V31.2727H1055.83V32.5909H1055.92C1056.08 32.1591 1056.37 31.8087 1056.78 31.5398C1057.2 31.2708 1057.67 31.1364 1058.19 31.1364C1058.29 31.1364 1058.42 31.1383 1058.56 31.142C1058.71 31.1458 1058.82 31.1515 1058.9 31.1591V32.5227C1058.85 32.5114 1058.75 32.4943 1058.59 32.4716C1058.43 32.4451 1058.26 32.4318 1058.08 32.4318C1057.66 32.4318 1057.28 32.5208 1056.94 32.6989C1056.61 32.8731 1056.35 33.1155 1056.16 33.4261C1055.97 33.733 1055.88 34.0833 1055.88 34.4773V40H1054.53ZM1060.49 40V31.2727H1061.83V40H1060.49ZM1061.17 29.8182C1060.91 29.8182 1060.68 29.7292 1060.49 29.5511C1060.31 29.3731 1060.21 29.1591 1060.21 28.9091C1060.21 28.6591 1060.31 28.4451 1060.49 28.267C1060.68 28.089 1060.91 28 1061.17 28C1061.43 28 1061.65 28.089 1061.84 28.267C1062.03 28.4451 1062.12 28.6591 1062.12 28.9091C1062.12 29.1591 1062.03 29.3731 1061.84 29.5511C1061.65 29.7292 1061.43 29.8182 1061.17 29.8182ZM1064.28 40V31.2727H1065.58V32.6364H1065.69C1065.88 32.1705 1066.17 31.8087 1066.57 31.5511C1066.98 31.2898 1067.47 31.1591 1068.03 31.1591C1068.61 31.1591 1069.09 31.2898 1069.47 31.5511C1069.86 31.8087 1070.16 32.1705 1070.38 32.6364H1070.47C1070.69 32.1856 1071.03 31.8277 1071.47 31.5625C1071.92 31.2936 1072.45 31.1591 1073.08 31.1591C1073.86 31.1591 1074.5 31.4034 1074.99 31.892C1075.49 32.3769 1075.74 33.1326 1075.74 34.1591V40H1074.4V34.1591C1074.4 33.5152 1074.22 33.0549 1073.87 32.7784C1073.52 32.5019 1073.1 32.3636 1072.63 32.3636C1072.01 32.3636 1071.54 32.5492 1071.2 32.9205C1070.86 33.2879 1070.69 33.7538 1070.69 34.3182V40H1069.33V34.0227C1069.33 33.5265 1069.17 33.1269 1068.85 32.8239C1068.53 32.517 1068.11 32.3636 1067.6 32.3636C1067.25 32.3636 1066.93 32.4564 1066.63 32.642C1066.33 32.8277 1066.08 33.0852 1065.9 33.4148C1065.72 33.7405 1065.63 34.1174 1065.63 34.5455V40H1064.28ZM1080.76 40.2045C1080.21 40.2045 1079.7 40.1004 1079.25 39.892C1078.8 39.6799 1078.44 39.375 1078.18 38.9773C1077.91 38.5758 1077.78 38.0909 1077.78 37.5227C1077.78 37.0227 1077.88 36.6174 1078.08 36.3068C1078.27 35.9924 1078.54 35.7462 1078.87 35.5682C1079.2 35.3902 1079.56 35.2576 1079.96 35.1705C1080.36 35.0795 1080.76 35.0076 1081.17 34.9545C1081.7 34.8864 1082.13 34.8352 1082.46 34.8011C1082.79 34.7633 1083.03 34.7008 1083.19 34.6136C1083.34 34.5265 1083.42 34.375 1083.42 34.1591V34.1136C1083.42 33.553 1083.26 33.1174 1082.96 32.8068C1082.65 32.4962 1082.19 32.3409 1081.58 32.3409C1080.94 32.3409 1080.44 32.4811 1080.07 32.7614C1079.71 33.0417 1079.45 33.3409 1079.3 33.6591L1078.03 33.2045C1078.26 32.6742 1078.56 32.2614 1078.94 31.9659C1079.32 31.6667 1079.74 31.4583 1080.19 31.3409C1080.65 31.2197 1081.09 31.1591 1081.53 31.1591C1081.81 31.1591 1082.13 31.1932 1082.5 31.2614C1082.87 31.3258 1083.22 31.4602 1083.56 31.6648C1083.9 31.8693 1084.19 32.178 1084.42 32.5909C1084.65 33.0038 1084.76 33.5568 1084.76 34.25V40H1083.42V38.8182H1083.35C1083.26 39.0076 1083.11 39.2102 1082.9 39.4261C1082.68 39.642 1082.4 39.8258 1082.05 39.9773C1081.7 40.1288 1081.27 40.2045 1080.76 40.2045ZM1080.96 39C1081.49 39 1081.94 38.8958 1082.3 38.6875C1082.67 38.4792 1082.95 38.2102 1083.13 37.8807C1083.32 37.5511 1083.42 37.2045 1083.42 36.8409V35.6136C1083.36 35.6818 1083.24 35.7443 1083.04 35.8011C1082.85 35.8542 1082.63 35.9015 1082.38 35.9432C1082.14 35.9811 1081.9 36.0152 1081.66 36.0455C1081.43 36.072 1081.24 36.0947 1081.1 36.1136C1080.75 36.1591 1080.43 36.233 1080.12 36.3352C1079.82 36.4337 1079.58 36.5833 1079.4 36.7841C1079.21 36.9811 1079.12 37.25 1079.12 37.5909C1079.12 38.0568 1079.29 38.4091 1079.64 38.6477C1079.99 38.8826 1080.43 39 1080.96 39ZM1087.21 40V31.2727H1088.5V32.5909H1088.59C1088.75 32.1591 1089.04 31.8087 1089.46 31.5398C1089.87 31.2708 1090.34 31.1364 1090.87 31.1364C1090.96 31.1364 1091.09 31.1383 1091.23 31.142C1091.38 31.1458 1091.49 31.1515 1091.57 31.1591V32.5227C1091.52 32.5114 1091.42 32.4943 1091.26 32.4716C1091.1 32.4451 1090.93 32.4318 1090.75 32.4318C1090.33 32.4318 1089.95 32.5208 1089.62 32.6989C1089.29 32.8731 1089.02 33.1155 1088.83 33.4261C1088.64 33.733 1088.55 34.0833 1088.55 34.4773V40H1087.21ZM1094.29 43.25C1094.06 43.25 1093.86 43.2311 1093.68 43.1932C1093.5 43.1591 1093.38 43.125 1093.31 43.0909L1093.65 41.9091C1094.14 42.0341 1094.55 42.0303 1094.87 41.8977C1095.2 41.7689 1095.48 41.3788 1095.72 40.7273L1095.97 40.0455L1092.74 31.2727H1094.2L1096.61 38.2273H1096.7L1099.11 31.2727L1100.57 31.2955L1096.86 41.2727C1096.69 41.7159 1096.48 42.0833 1096.24 42.375C1095.99 42.6705 1095.71 42.8902 1095.38 43.0341C1095.06 43.178 1094.69 43.25 1094.29 43.25ZM1105.55 27.8182L1101.8 41.75H1100.58L1104.33 27.8182H1105.55ZM1110.44 40.1818C1109.71 40.1818 1109.07 39.9981 1108.51 39.6307C1107.96 39.2595 1107.52 38.7367 1107.21 38.0625C1106.89 37.3845 1106.73 36.5833 1106.73 35.6591C1106.73 34.7424 1106.89 33.947 1107.21 33.2727C1107.52 32.5985 1107.96 32.0777 1108.52 31.7102C1109.08 31.3428 1109.73 31.1591 1110.46 31.1591C1111.03 31.1591 1111.48 31.2538 1111.81 31.4432C1112.14 31.6288 1112.4 31.8409 1112.57 32.0795C1112.75 32.3144 1112.89 32.5076 1112.98 32.6591H1113.1V28.3636H1114.44V40H1113.14V38.6591H1112.98C1112.89 38.8182 1112.75 39.0189 1112.56 39.2614C1112.38 39.5 1112.12 39.714 1111.79 39.9034C1111.45 40.089 1111 40.1818 1110.44 40.1818ZM1110.62 38.9773C1111.16 38.9773 1111.61 38.8371 1111.98 38.5568C1112.36 38.2727 1112.64 37.8807 1112.83 37.3807C1113.02 36.8769 1113.12 36.2955 1113.12 35.6364C1113.12 34.9848 1113.03 34.4148 1112.84 33.9261C1112.65 33.4337 1112.37 33.0511 1112 32.7784C1111.62 32.5019 1111.17 32.3636 1110.62 32.3636C1110.05 32.3636 1109.58 32.5095 1109.2 32.8011C1108.83 33.089 1108.54 33.4811 1108.35 33.9773C1108.17 34.4697 1108.08 35.0227 1108.08 35.6364C1108.08 36.2576 1108.17 36.822 1108.36 37.3295C1108.55 37.8333 1108.84 38.2348 1109.21 38.5341C1109.59 38.8295 1110.06 38.9773 1110.62 38.9773ZM1120.74 40.1818C1119.9 40.1818 1119.17 39.9962 1118.56 39.625C1117.96 39.25 1117.49 38.7273 1117.16 38.0568C1116.84 37.3826 1116.67 36.5985 1116.67 35.7045C1116.67 34.8106 1116.84 34.0227 1117.16 33.3409C1117.49 32.6553 1117.95 32.1212 1118.54 31.7386C1119.13 31.3523 1119.82 31.1591 1120.6 31.1591C1121.06 31.1591 1121.51 31.2348 1121.95 31.3864C1122.39 31.5379 1122.8 31.7841 1123.16 32.125C1123.52 32.4621 1123.81 32.9091 1124.03 33.4659C1124.25 34.0227 1124.35 34.7083 1124.35 35.5227V36.0909H1117.63V34.9318H1122.99C1122.99 34.4394 1122.89 34 1122.7 33.6136C1122.5 33.2273 1122.23 32.9223 1121.87 32.6989C1121.51 32.4754 1121.09 32.3636 1120.6 32.3636C1120.07 32.3636 1119.61 32.4962 1119.22 32.7614C1118.83 33.0227 1118.53 33.3636 1118.33 33.7841C1118.12 34.2045 1118.01 34.6553 1118.01 35.1364V35.9091C1118.01 36.5682 1118.13 37.1269 1118.35 37.5852C1118.59 38.0398 1118.91 38.3864 1119.31 38.625C1119.72 38.8598 1120.2 38.9773 1120.74 38.9773C1121.09 38.9773 1121.41 38.928 1121.7 38.8295C1121.98 38.7273 1122.23 38.5758 1122.44 38.375C1122.65 38.1705 1122.81 37.9167 1122.92 37.6136L1124.22 37.9773C1124.08 38.4167 1123.85 38.803 1123.53 39.1364C1123.21 39.4659 1122.81 39.7235 1122.34 39.9091C1121.86 40.0909 1121.33 40.1818 1120.74 40.1818ZM1130.28 31.2727V32.4091H1125.58V31.2727H1130.28ZM1126.98 40V30.0682C1126.98 29.5682 1127.1 29.1515 1127.34 28.8182C1127.57 28.4848 1127.88 28.2348 1128.25 28.0682C1128.63 27.9015 1129.02 27.8182 1129.44 27.8182C1129.77 27.8182 1130.04 27.8447 1130.25 27.8977C1130.45 27.9508 1130.61 28 1130.71 28.0455L1130.33 29.2045C1130.26 29.1818 1130.16 29.1534 1130.04 29.1193C1129.92 29.0852 1129.77 29.0682 1129.58 29.0682C1129.13 29.0682 1128.81 29.1799 1128.62 29.4034C1128.42 29.6269 1128.33 29.9545 1128.33 30.3864V40H1126.98ZM1134.48 40.2045C1133.92 40.2045 1133.42 40.1004 1132.97 39.892C1132.52 39.6799 1132.16 39.375 1131.9 38.9773C1131.63 38.5758 1131.5 38.0909 1131.5 37.5227C1131.5 37.0227 1131.6 36.6174 1131.8 36.3068C1131.99 35.9924 1132.26 35.7462 1132.59 35.5682C1132.92 35.3902 1133.28 35.2576 1133.68 35.1705C1134.08 35.0795 1134.48 35.0076 1134.89 34.9545C1135.42 34.8864 1135.85 34.8352 1136.18 34.8011C1136.51 34.7633 1136.75 34.7008 1136.9 34.6136C1137.06 34.5265 1137.14 34.375 1137.14 34.1591V34.1136C1137.14 33.553 1136.98 33.1174 1136.68 32.8068C1136.37 32.4962 1135.91 32.3409 1135.3 32.3409C1134.66 32.3409 1134.15 32.4811 1133.79 32.7614C1133.43 33.0417 1133.17 33.3409 1133.02 33.6591L1131.75 33.2045C1131.98 32.6742 1132.28 32.2614 1132.66 31.9659C1133.04 31.6667 1133.46 31.4583 1133.91 31.3409C1134.36 31.2197 1134.81 31.1591 1135.25 31.1591C1135.53 31.1591 1135.85 31.1932 1136.22 31.2614C1136.58 31.3258 1136.94 31.4602 1137.28 31.6648C1137.62 31.8693 1137.91 32.178 1138.14 32.5909C1138.36 33.0038 1138.48 33.5568 1138.48 34.25V40H1137.14V38.8182H1137.07C1136.98 39.0076 1136.83 39.2102 1136.61 39.4261C1136.4 39.642 1136.12 39.8258 1135.77 39.9773C1135.42 40.1288 1134.99 40.2045 1134.48 40.2045ZM1134.68 39C1135.21 39 1135.66 38.8958 1136.02 38.6875C1136.39 38.4792 1136.67 38.2102 1136.85 37.8807C1137.04 37.5511 1137.14 37.2045 1137.14 36.8409V35.6136C1137.08 35.6818 1136.95 35.7443 1136.76 35.8011C1136.57 35.8542 1136.35 35.9015 1136.1 35.9432C1135.86 35.9811 1135.62 36.0152 1135.38 36.0455C1135.15 36.072 1134.96 36.0947 1134.82 36.1136C1134.47 36.1591 1134.14 36.233 1133.84 36.3352C1133.54 36.4337 1133.3 36.5833 1133.11 36.7841C1132.93 36.9811 1132.84 37.25 1132.84 37.5909C1132.84 38.0568 1133.01 38.4091 1133.36 38.6477C1133.71 38.8826 1134.15 39 1134.68 39ZM1146.43 36.4318V31.2727H1147.77V40H1146.43V38.5227H1146.33C1146.13 38.9659 1145.81 39.3428 1145.38 39.6534C1144.95 39.9602 1144.4 40.1136 1143.74 40.1136C1143.2 40.1136 1142.71 39.9943 1142.29 39.7557C1141.86 39.5133 1141.53 39.1496 1141.29 38.6648C1141.05 38.1761 1140.93 37.5606 1140.93 36.8182V31.2727H1142.27V36.7273C1142.27 37.3636 1142.44 37.8712 1142.8 38.25C1143.16 38.6288 1143.62 38.8182 1144.18 38.8182C1144.51 38.8182 1144.85 38.733 1145.19 38.5625C1145.54 38.392 1145.83 38.1307 1146.07 37.7784C1146.31 37.4261 1146.43 36.9773 1146.43 36.4318ZM1151.56 28.3636V40H1150.22V28.3636H1151.56ZM1157.81 31.2727V32.4091H1153.29V31.2727H1157.81ZM1154.61 29.1818H1155.95V37.5C1155.95 37.8788 1156.01 38.1629 1156.12 38.3523C1156.23 38.5379 1156.37 38.6629 1156.55 38.7273C1156.73 38.7879 1156.91 38.8182 1157.11 38.8182C1157.26 38.8182 1157.38 38.8106 1157.47 38.7955C1157.57 38.7765 1157.64 38.7614 1157.7 38.75L1157.97 39.9545C1157.88 39.9886 1157.76 40.0227 1157.59 40.0568C1157.43 40.0947 1157.22 40.1136 1156.97 40.1136C1156.59 40.1136 1156.22 40.0322 1155.86 39.8693C1155.5 39.7064 1155.2 39.4583 1154.96 39.125C1154.73 38.7917 1154.61 38.3712 1154.61 37.8636V29.1818Z" fill="white" fill-opacity="0.95"/>
</svg>
