<svg width="768" height="136" viewBox="0 0 768 136" fill="none" xmlns="http://www.w3.org/2000/svg">
<g clip-path="url(#clip0_1637_12192)">
<mask id="path-3-inside-1_1637_12192" fill="white">
<path d="M0 0H256V68H0V0Z"/>
</mask>
<path d="M0 0H256V68H0V0Z" fill="#262626"/>
<path d="M256 68V69H257V68H256ZM255 0V68H257V0H255ZM256 67H0V69H256V67Z" fill="white" fill-opacity="0.3" mask="url(#path-3-inside-1_1637_12192)"/>
<path d="M31.2642 41V26.4545H41.0653V28.9901H34.3395V32.456H40.5611V34.9915H34.3395V38.4645H41.0938V41H31.2642ZM46.479 26.4545V41H43.4535V26.4545H46.479ZM53.8743 41.2131C52.7521 41.2131 51.7862 40.9858 50.9766 40.5312C50.1716 40.072 49.5514 39.4233 49.1158 38.5852C48.6802 37.7424 48.4624 36.7457 48.4624 35.5952C48.4624 34.473 48.6802 33.4882 49.1158 32.6406C49.5514 31.7931 50.1645 31.1326 50.9553 30.6591C51.7507 30.1856 52.6835 29.9489 53.7536 29.9489C54.4732 29.9489 55.1432 30.0649 55.7635 30.2969C56.3885 30.5241 56.933 30.8674 57.397 31.3267C57.8658 31.786 58.2304 32.3636 58.4908 33.0597C58.7512 33.7509 58.8814 34.5606 58.8814 35.4886V36.3196H49.6697V34.4446H56.0334C56.0334 34.009 55.9387 33.6231 55.7493 33.2869C55.5599 32.9508 55.2971 32.688 54.9609 32.4986C54.6295 32.3045 54.2436 32.2074 53.8033 32.2074C53.344 32.2074 52.9368 32.3139 52.5817 32.527C52.2313 32.7353 51.9567 33.017 51.7578 33.3722C51.5589 33.7225 51.4571 34.1132 51.4524 34.544V36.3267C51.4524 36.8665 51.5518 37.3329 51.7507 37.7259C51.9543 38.1188 52.2408 38.4219 52.6101 38.6349C52.9794 38.848 53.4174 38.9545 53.924 38.9545C54.2602 38.9545 54.5679 38.9072 54.8473 38.8125C55.1267 38.7178 55.3658 38.5758 55.5646 38.3864C55.7635 38.197 55.915 37.965 56.0192 37.6903L58.8175 37.875C58.6754 38.5473 58.3842 39.1345 57.9439 39.6364C57.5083 40.1335 56.9448 40.5218 56.2536 40.8011C55.567 41.0758 54.7739 41.2131 53.8743 41.2131ZM60.8558 41V30.0909H63.7393V32.0156H63.8672C64.0945 31.3764 64.4732 30.8722 65.0036 30.5028C65.5339 30.1335 66.1683 29.9489 66.907 29.9489C67.6551 29.9489 68.2919 30.1359 68.8175 30.5099C69.343 30.8793 69.6934 31.3812 69.8686 32.0156H69.9822C70.2048 31.3906 70.6072 30.8911 71.1896 30.517C71.7768 30.1383 72.4704 29.9489 73.2706 29.9489C74.2886 29.9489 75.1148 30.2732 75.7493 30.9219C76.3885 31.5658 76.7081 32.4796 76.7081 33.6634V41H73.6896V34.2599C73.6896 33.6539 73.5286 33.1993 73.2067 32.8963C72.8847 32.5933 72.4822 32.4418 71.9993 32.4418C71.45 32.4418 71.0215 32.617 70.7138 32.9673C70.406 33.313 70.2521 33.7699 70.2521 34.3381V41H67.3189V34.196C67.3189 33.661 67.165 33.2348 66.8572 32.9176C66.5542 32.6004 66.1541 32.4418 65.657 32.4418C65.3208 32.4418 65.0178 32.527 64.7479 32.6974C64.4827 32.8632 64.272 33.0975 64.1158 33.4006C63.9595 33.6989 63.8814 34.0492 63.8814 34.4517V41H60.8558ZM84.0696 41.2131C82.9474 41.2131 81.9815 40.9858 81.1719 40.5312C80.367 40.072 79.7467 39.4233 79.3111 38.5852C78.8755 37.7424 78.6577 36.7457 78.6577 35.5952C78.6577 34.473 78.8755 33.4882 79.3111 32.6406C79.7467 31.7931 80.3598 31.1326 81.1506 30.6591C81.946 30.1856 82.8788 29.9489 83.9489 29.9489C84.6686 29.9489 85.3385 30.0649 85.9588 30.2969C86.5838 30.5241 87.1283 30.8674 87.5923 31.3267C88.0611 31.786 88.4257 32.3636 88.6861 33.0597C88.9465 33.7509 89.0767 34.5606 89.0767 35.4886V36.3196H79.8651V34.4446H86.2287C86.2287 34.009 86.134 33.6231 85.9446 33.2869C85.7552 32.9508 85.4924 32.688 85.1562 32.4986C84.8248 32.3045 84.4389 32.2074 83.9986 32.2074C83.5393 32.2074 83.1321 32.3139 82.777 32.527C82.4266 32.7353 82.152 33.017 81.9531 33.3722C81.7543 33.7225 81.6525 34.1132 81.6477 34.544V36.3267C81.6477 36.8665 81.7472 37.3329 81.946 37.7259C82.1496 38.1188 82.4361 38.4219 82.8054 38.6349C83.1747 38.848 83.6127 38.9545 84.1193 38.9545C84.4555 38.9545 84.7633 38.9072 85.0426 38.8125C85.322 38.7178 85.5611 38.5758 85.7599 38.3864C85.9588 38.197 86.1103 37.965 86.2145 37.6903L89.0128 37.875C88.8707 38.5473 88.5795 39.1345 88.1392 39.6364C87.7036 40.1335 87.1402 40.5218 86.4489 40.8011C85.7623 41.0758 84.9692 41.2131 84.0696 41.2131ZM94.0767 34.6932V41H91.0511V30.0909H93.9347V32.0156H94.0625C94.304 31.3812 94.7088 30.8793 95.277 30.5099C95.8452 30.1359 96.5341 29.9489 97.3438 29.9489C98.1013 29.9489 98.7618 30.1146 99.3253 30.446C99.8887 30.7775 100.327 31.2509 100.639 31.8665C100.952 32.4773 101.108 33.2064 101.108 34.054V41H98.0824V34.5938C98.0871 33.9261 97.9167 33.4053 97.571 33.0312C97.2254 32.6525 96.7495 32.4631 96.1435 32.4631C95.7363 32.4631 95.3764 32.5507 95.0639 32.7259C94.7562 32.901 94.5147 33.1567 94.3395 33.4929C94.169 33.8243 94.0814 34.2244 94.0767 34.6932ZM109.295 30.0909V32.3636H102.725V30.0909H109.295ZM104.217 27.4773H107.243V37.6477C107.243 37.9271 107.285 38.1449 107.37 38.3011C107.456 38.4527 107.574 38.5592 107.725 38.6207C107.882 38.6823 108.062 38.7131 108.265 38.7131C108.407 38.7131 108.549 38.7012 108.691 38.6776C108.833 38.6491 108.942 38.6278 109.018 38.6136L109.494 40.8651C109.342 40.9124 109.129 40.9669 108.855 41.0284C108.58 41.0947 108.246 41.1349 107.853 41.1491C107.124 41.1776 106.485 41.0805 105.936 40.858C105.391 40.6354 104.967 40.2898 104.664 39.821C104.361 39.3523 104.212 38.7604 104.217 38.0455V27.4773Z" fill="white" fill-opacity="0.95"/>
<mask id="path-6-inside-2_1637_12192" fill="white">
<path d="M256 0H512V68H256V0Z"/>
</mask>
<path d="M256 0H512V68H256V0Z" fill="#262626"/>
<path d="M512 68V69H513V68H512ZM511 0V68H513V0H511ZM512 67H256V69H512V67Z" fill="white" fill-opacity="0.3" mask="url(#path-6-inside-2_1637_12192)"/>
<path d="M286.71 28.9901V26.4545H298.656V28.9901H294.203V41H291.163V28.9901H286.71ZM303.956 41.2131C302.834 41.2131 301.868 40.9858 301.059 40.5312C300.254 40.072 299.633 39.4233 299.198 38.5852C298.762 37.7424 298.544 36.7457 298.544 35.5952C298.544 34.473 298.762 33.4882 299.198 32.6406C299.633 31.7931 300.247 31.1326 301.037 30.6591C301.833 30.1856 302.766 29.9489 303.836 29.9489C304.555 29.9489 305.225 30.0649 305.846 30.2969C306.471 30.5241 307.015 30.8674 307.479 31.3267C307.948 31.786 308.312 32.3636 308.573 33.0597C308.833 33.7509 308.963 34.5606 308.963 35.4886V36.3196H299.752V34.4446H306.115C306.115 34.009 306.021 33.6231 305.831 33.2869C305.642 32.9508 305.379 32.688 305.043 32.4986C304.712 32.3045 304.326 32.2074 303.885 32.2074C303.426 32.2074 303.019 32.3139 302.664 32.527C302.313 32.7353 302.039 33.017 301.84 33.3722C301.641 33.7225 301.539 34.1132 301.534 34.544V36.3267C301.534 36.8665 301.634 37.3329 301.833 37.7259C302.036 38.1188 302.323 38.4219 302.692 38.6349C303.061 38.848 303.499 38.9545 304.006 38.9545C304.342 38.9545 304.65 38.9072 304.929 38.8125C305.209 38.7178 305.448 38.5758 305.647 38.3864C305.846 38.197 305.997 37.965 306.101 37.6903L308.9 37.875C308.757 38.5473 308.466 39.1345 308.026 39.6364C307.59 40.1335 307.027 40.5218 306.336 40.8011C305.649 41.0758 304.856 41.2131 303.956 41.2131ZM313.271 30.0909L315.274 33.9048L317.326 30.0909H320.43L317.27 35.5455L320.515 41H317.426L315.274 37.2287L313.157 41H310.032L313.271 35.5455L310.146 30.0909H313.271ZM328.029 30.0909V32.3636H321.46V30.0909H328.029ZM322.951 27.4773H325.977V37.6477C325.977 37.9271 326.02 38.1449 326.105 38.3011C326.19 38.4527 326.308 38.5592 326.46 38.6207C326.616 38.6823 326.796 38.7131 327 38.7131C327.142 38.7131 327.284 38.7012 327.426 38.6776C327.568 38.6491 327.677 38.6278 327.752 38.6136L328.228 40.8651C328.077 40.9124 327.864 40.9669 327.589 41.0284C327.315 41.0947 326.981 41.1349 326.588 41.1491C325.859 41.1776 325.219 41.0805 324.67 40.858C324.126 40.6354 323.702 40.2898 323.399 39.821C323.096 39.3523 322.947 38.7604 322.951 38.0455V27.4773ZM342.577 30.6378C342.52 30.0649 342.276 29.6198 341.845 29.3026C341.414 28.9853 340.83 28.8267 340.091 28.8267C339.589 28.8267 339.165 28.8977 338.82 29.0398C338.474 29.1771 338.209 29.3688 338.024 29.6151C337.844 29.8613 337.754 30.1406 337.754 30.4531C337.745 30.7135 337.799 30.9408 337.918 31.1349C338.041 31.3291 338.209 31.4972 338.422 31.6392C338.635 31.7765 338.881 31.8973 339.161 32.0014C339.44 32.1009 339.738 32.1861 340.055 32.2571L341.362 32.5696C341.997 32.7116 342.579 32.901 343.109 33.1378C343.64 33.3745 344.099 33.6657 344.487 34.0114C344.875 34.357 345.176 34.7642 345.389 35.233C345.607 35.7017 345.718 36.2391 345.723 36.8452C345.718 37.7353 345.491 38.5071 345.041 39.1605C344.596 39.8092 343.952 40.3134 343.109 40.6733C342.271 41.0284 341.26 41.206 340.077 41.206C338.902 41.206 337.88 41.026 337.009 40.6662C336.142 40.3063 335.465 39.7737 334.977 39.0682C334.494 38.358 334.241 37.4796 334.217 36.4332H337.193C337.226 36.9209 337.366 37.3281 337.612 37.6548C337.863 37.9768 338.197 38.2206 338.614 38.3864C339.035 38.5473 339.511 38.6278 340.041 38.6278C340.562 38.6278 341.014 38.5521 341.398 38.4006C341.786 38.2491 342.087 38.0384 342.3 37.7685C342.513 37.4986 342.619 37.1884 342.619 36.8381C342.619 36.5114 342.522 36.2367 342.328 36.0142C342.139 35.7917 341.859 35.6023 341.49 35.446C341.125 35.2898 340.678 35.1477 340.148 35.0199L338.564 34.6222C337.338 34.3239 336.369 33.8575 335.659 33.223C334.949 32.5885 334.596 31.7339 334.601 30.6591C334.596 29.7784 334.83 29.009 335.304 28.3509C335.782 27.6927 336.438 27.179 337.271 26.8097C338.105 26.4403 339.052 26.2557 340.112 26.2557C341.192 26.2557 342.134 26.4403 342.939 26.8097C343.749 27.179 344.378 27.6927 344.828 28.3509C345.278 29.009 345.51 29.7713 345.524 30.6378H342.577ZM347.735 41V30.0909H350.76V41H347.735ZM349.262 28.6847C348.812 28.6847 348.426 28.5355 348.104 28.2372C347.782 27.9342 347.621 27.572 347.621 27.1506C347.621 26.7339 347.782 26.3764 348.104 26.0781C348.426 25.7751 348.81 25.6236 349.255 25.6236C349.709 25.6236 350.095 25.7751 350.412 26.0781C350.734 26.3764 350.895 26.7339 350.895 27.1506C350.895 27.572 350.734 27.9342 350.412 28.2372C350.095 28.5355 349.712 28.6847 349.262 28.6847ZM353.127 41V39.196L358.468 32.5838V32.5057H353.312V30.0909H362.112V32.0582L357.097 38.5071V38.5852H362.296V41H353.127ZM369.269 41.2131C368.147 41.2131 367.181 40.9858 366.371 40.5312C365.566 40.072 364.946 39.4233 364.51 38.5852C364.075 37.7424 363.857 36.7457 363.857 35.5952C363.857 34.473 364.075 33.4882 364.51 32.6406C364.946 31.7931 365.559 31.1326 366.35 30.6591C367.145 30.1856 368.078 29.9489 369.148 29.9489C369.868 29.9489 370.538 30.0649 371.158 30.2969C371.783 30.5241 372.328 30.8674 372.792 31.3267C373.26 31.786 373.625 32.3636 373.885 33.0597C374.146 33.7509 374.276 34.5606 374.276 35.4886V36.3196H365.064V34.4446H371.428C371.428 34.009 371.333 33.6231 371.144 33.2869C370.954 32.9508 370.692 32.688 370.355 32.4986C370.024 32.3045 369.638 32.2074 369.198 32.2074C368.739 32.2074 368.331 32.3139 367.976 32.527C367.626 32.7353 367.351 33.017 367.152 33.3722C366.953 33.7225 366.852 34.1132 366.847 34.544V36.3267C366.847 36.8665 366.946 37.3329 367.145 37.7259C367.349 38.1188 367.635 38.4219 368.005 38.6349C368.374 38.848 368.812 38.9545 369.319 38.9545C369.655 38.9545 369.962 38.9072 370.242 38.8125C370.521 38.7178 370.76 38.5758 370.959 38.3864C371.158 38.197 371.31 37.965 371.414 37.6903L374.212 37.875C374.07 38.5473 373.779 39.1345 373.338 39.6364C372.903 40.1335 372.339 40.5218 371.648 40.8011C370.962 41.0758 370.168 41.2131 369.269 41.2131Z" fill="white" fill-opacity="0.95"/>
<mask id="path-9-inside-3_1637_12192" fill="white">
<path d="M512 0H768V68H512V0Z"/>
</mask>
<path d="M512 0H768V68H512V0Z" fill="#262626"/>
<path d="M768 67H512V69H768V67Z" fill="white" fill-opacity="0.3" mask="url(#path-9-inside-3_1637_12192)"/>
<path d="M542.71 28.9901V26.4545H554.656V28.9901H550.203V41H547.163V28.9901H542.71ZM559.914 41.2131C558.81 41.2131 557.856 40.9787 557.051 40.5099C556.251 40.0365 555.633 39.3783 555.198 38.5355C554.762 37.688 554.544 36.7055 554.544 35.5881C554.544 34.4612 554.762 33.4763 555.198 32.6335C555.633 31.786 556.251 31.1278 557.051 30.6591C557.856 30.1856 558.81 29.9489 559.914 29.9489C561.017 29.9489 561.969 30.1856 562.769 30.6591C563.574 31.1278 564.194 31.786 564.63 32.6335C565.065 33.4763 565.283 34.4612 565.283 35.5881C565.283 36.7055 565.065 37.688 564.63 38.5355C564.194 39.3783 563.574 40.0365 562.769 40.5099C561.969 40.9787 561.017 41.2131 559.914 41.2131ZM559.928 38.8693C560.43 38.8693 560.849 38.7273 561.185 38.4432C561.521 38.1544 561.775 37.7614 561.945 37.2642C562.12 36.767 562.208 36.2012 562.208 35.5668C562.208 34.9323 562.12 34.3665 561.945 33.8693C561.775 33.3722 561.521 32.9792 561.185 32.6903C560.849 32.4015 560.43 32.2571 559.928 32.2571C559.421 32.2571 558.995 32.4015 558.65 32.6903C558.309 32.9792 558.051 33.3722 557.875 33.8693C557.705 34.3665 557.62 34.9323 557.62 35.5668C557.62 36.2012 557.705 36.767 557.875 37.2642C558.051 37.7614 558.309 38.1544 558.65 38.4432C558.995 38.7273 559.421 38.8693 559.928 38.8693ZM569.992 37.8608L569.999 34.2315H570.439L573.934 30.0909H577.407L572.712 35.5739H571.995L569.992 37.8608ZM567.25 41V26.4545H570.276V41H567.25ZM574.069 41L570.858 36.2486L572.875 34.1108L577.613 41H574.069ZM583.413 41.2131C582.291 41.2131 581.325 40.9858 580.516 40.5312C579.711 40.072 579.09 39.4233 578.655 38.5852C578.219 37.7424 578.001 36.7457 578.001 35.5952C578.001 34.473 578.219 33.4882 578.655 32.6406C579.09 31.7931 579.704 31.1326 580.494 30.6591C581.29 30.1856 582.223 29.9489 583.293 29.9489C584.012 29.9489 584.682 30.0649 585.303 30.2969C585.928 30.5241 586.472 30.8674 586.936 31.3267C587.405 31.786 587.769 32.3636 588.03 33.0597C588.29 33.7509 588.42 34.5606 588.42 35.4886V36.3196H579.209V34.4446H585.572C585.572 34.009 585.478 33.6231 585.288 33.2869C585.099 32.9508 584.836 32.688 584.5 32.4986C584.169 32.3045 583.783 32.2074 583.342 32.2074C582.883 32.2074 582.476 32.3139 582.121 32.527C581.77 32.7353 581.496 33.017 581.297 33.3722C581.098 33.7225 580.996 34.1132 580.991 34.544V36.3267C580.991 36.8665 581.091 37.3329 581.29 37.7259C581.493 38.1188 581.78 38.4219 582.149 38.6349C582.518 38.848 582.956 38.9545 583.463 38.9545C583.799 38.9545 584.107 38.9072 584.386 38.8125C584.666 38.7178 584.905 38.5758 585.104 38.3864C585.303 38.197 585.454 37.965 585.558 37.6903L588.357 37.875C588.214 38.5473 587.923 39.1345 587.483 39.6364C587.047 40.1335 586.484 40.5218 585.793 40.8011C585.106 41.0758 584.313 41.2131 583.413 41.2131ZM593.42 34.6932V41H590.395V30.0909H593.278V32.0156H593.406C593.648 31.3812 594.053 30.8793 594.621 30.5099C595.189 30.1359 595.878 29.9489 596.688 29.9489C597.445 29.9489 598.106 30.1146 598.669 30.446C599.232 30.7775 599.67 31.2509 599.983 31.8665C600.295 32.4773 600.452 33.2064 600.452 34.054V41H597.426V34.5938C597.431 33.9261 597.26 33.4053 596.915 33.0312C596.569 32.6525 596.093 32.4631 595.487 32.4631C595.08 32.4631 594.72 32.5507 594.408 32.7259C594.1 32.901 593.858 33.1567 593.683 33.4929C593.513 33.8243 593.425 34.2244 593.42 34.6932ZM606.968 28.9901V26.4545H618.914V28.9901H614.461V41H611.421V28.9901H606.968ZM624.172 41.2131C623.068 41.2131 622.114 40.9787 621.309 40.5099C620.509 40.0365 619.891 39.3783 619.456 38.5355C619.02 37.688 618.802 36.7055 618.802 35.5881C618.802 34.4612 619.02 33.4763 619.456 32.6335C619.891 31.786 620.509 31.1278 621.309 30.6591C622.114 30.1856 623.068 29.9489 624.172 29.9489C625.275 29.9489 626.226 30.1856 627.027 30.6591C627.832 31.1278 628.452 31.786 628.887 32.6335C629.323 33.4763 629.541 34.4612 629.541 35.5881C629.541 36.7055 629.323 37.688 628.887 38.5355C628.452 39.3783 627.832 40.0365 627.027 40.5099C626.226 40.9787 625.275 41.2131 624.172 41.2131ZM624.186 38.8693C624.688 38.8693 625.107 38.7273 625.443 38.4432C625.779 38.1544 626.032 37.7614 626.203 37.2642C626.378 36.767 626.466 36.2012 626.466 35.5668C626.466 34.9323 626.378 34.3665 626.203 33.8693C626.032 33.3722 625.779 32.9792 625.443 32.6903C625.107 32.4015 624.688 32.2571 624.186 32.2571C623.679 32.2571 623.253 32.4015 622.907 32.6903C622.566 32.9792 622.308 33.3722 622.133 33.8693C621.963 34.3665 621.877 34.9323 621.877 35.5668C621.877 36.2012 621.963 36.767 622.133 37.2642C622.308 37.7614 622.566 38.1544 622.907 38.4432C623.253 38.7273 623.679 38.8693 624.186 38.8693ZM634.25 37.8608L634.257 34.2315H634.697L638.191 30.0909H641.664L636.97 35.5739H636.252L634.25 37.8608ZM631.508 41V26.4545H634.534V41H631.508ZM638.326 41L635.116 36.2486L637.133 34.1108L641.87 41H638.326ZM647.671 41.2131C646.549 41.2131 645.583 40.9858 644.773 40.5312C643.969 40.072 643.348 39.4233 642.913 38.5852C642.477 37.7424 642.259 36.7457 642.259 35.5952C642.259 34.473 642.477 33.4882 642.913 32.6406C643.348 31.7931 643.961 31.1326 644.752 30.6591C645.548 30.1856 646.48 29.9489 647.55 29.9489C648.27 29.9489 648.94 30.0649 649.56 30.2969C650.185 30.5241 650.73 30.8674 651.194 31.3267C651.663 31.786 652.027 32.3636 652.288 33.0597C652.548 33.7509 652.678 34.5606 652.678 35.4886V36.3196H643.467V34.4446H649.83C649.83 34.009 649.736 33.6231 649.546 33.2869C649.357 32.9508 649.094 32.688 648.758 32.4986C648.426 32.3045 648.04 32.2074 647.6 32.2074C647.141 32.2074 646.734 32.3139 646.379 32.527C646.028 32.7353 645.754 33.017 645.555 33.3722C645.356 33.7225 645.254 34.1132 645.249 34.544V36.3267C645.249 36.8665 645.349 37.3329 645.548 37.7259C645.751 38.1188 646.038 38.4219 646.407 38.6349C646.776 38.848 647.214 38.9545 647.721 38.9545C648.057 38.9545 648.365 38.9072 648.644 38.8125C648.924 38.7178 649.163 38.5758 649.362 38.3864C649.56 38.197 649.712 37.965 649.816 37.6903L652.614 37.875C652.472 38.5473 652.181 39.1345 651.741 39.6364C651.305 40.1335 650.742 40.5218 650.05 40.8011C649.364 41.0758 648.571 41.2131 647.671 41.2131ZM657.678 34.6932V41H654.653V30.0909H657.536V32.0156H657.664C657.906 31.3812 658.31 30.8793 658.879 30.5099C659.447 30.1359 660.136 29.9489 660.945 29.9489C661.703 29.9489 662.363 30.1146 662.927 30.446C663.49 30.7775 663.928 31.2509 664.241 31.8665C664.553 32.4773 664.71 33.2064 664.71 34.054V41H661.684V34.5938C661.689 33.9261 661.518 33.4053 661.173 33.0312C660.827 32.6525 660.351 32.4631 659.745 32.4631C659.338 32.4631 658.978 32.5507 658.665 32.7259C658.358 32.901 658.116 33.1567 657.941 33.4929C657.771 33.8243 657.683 34.2244 657.678 34.6932Z" fill="white" fill-opacity="0.95"/>
<rect width="768" height="68" transform="translate(0 68)" fill="#1A1A1A"/>
<path d="M256 136V137H257V136H256ZM255 68V136H257V68H255ZM256 135H0V137H256V135Z" fill="#707070" mask="url(#path-12-inside-4_1637_12192)"/>
<path d="M31.2784 96V84.3636H33.0341V89.4205H38.8352V84.3636H40.5966V96H38.8352V90.9261H33.0341V96H31.2784ZM46.6932 96.1761C45.875 96.1761 45.161 95.9886 44.5511 95.6136C43.9413 95.2386 43.4678 94.714 43.1307 94.0398C42.7936 93.3655 42.625 92.5777 42.625 91.6761C42.625 90.7708 42.7936 89.9792 43.1307 89.3011C43.4678 88.6231 43.9413 88.0966 44.5511 87.7216C45.161 87.3466 45.875 87.1591 46.6932 87.1591C47.5114 87.1591 48.2254 87.3466 48.8352 87.7216C49.4451 88.0966 49.9186 88.6231 50.2557 89.3011C50.5928 89.9792 50.7614 90.7708 50.7614 91.6761C50.7614 92.5777 50.5928 93.3655 50.2557 94.0398C49.9186 94.714 49.4451 95.2386 48.8352 95.6136C48.2254 95.9886 47.5114 96.1761 46.6932 96.1761ZM46.6989 94.75C47.2292 94.75 47.6686 94.6098 48.017 94.3295C48.3655 94.0492 48.6231 93.6761 48.7898 93.2102C48.9602 92.7443 49.0455 92.2311 49.0455 91.6705C49.0455 91.1136 48.9602 90.6023 48.7898 90.1364C48.6231 89.6667 48.3655 89.2898 48.017 89.0057C47.6686 88.7216 47.2292 88.5795 46.6989 88.5795C46.1648 88.5795 45.7216 88.7216 45.3693 89.0057C45.0208 89.2898 44.7614 89.6667 44.5909 90.1364C44.4242 90.6023 44.3409 91.1136 44.3409 91.6705C44.3409 92.2311 44.4242 92.7443 44.5909 93.2102C44.7614 93.6761 45.0208 94.0492 45.3693 94.3295C45.7216 94.6098 46.1648 94.75 46.6989 94.75ZM52.6577 96V87.2727H54.2997V88.6591H54.3906C54.5497 88.1894 54.83 87.8201 55.2315 87.5511C55.6368 87.2784 56.0952 87.142 56.6065 87.142C56.7126 87.142 56.8376 87.1458 56.9815 87.1534C57.1293 87.161 57.2448 87.1705 57.3281 87.1818V88.8068C57.2599 88.7879 57.1387 88.767 56.9645 88.7443C56.7902 88.7178 56.616 88.7045 56.4418 88.7045C56.0402 88.7045 55.6823 88.7898 55.3679 88.9602C55.0573 89.1269 54.8111 89.3598 54.6293 89.6591C54.4474 89.9545 54.3565 90.2917 54.3565 90.6705V96H52.6577ZM58.7983 96V87.2727H60.4972V96H58.7983ZM59.6562 85.9261C59.3608 85.9261 59.107 85.8277 58.8949 85.6307C58.6866 85.4299 58.5824 85.1913 58.5824 84.9148C58.5824 84.6345 58.6866 84.3958 58.8949 84.1989C59.107 83.9981 59.3608 83.8977 59.6562 83.8977C59.9517 83.8977 60.2036 83.9981 60.4119 84.1989C60.6241 84.3958 60.7301 84.6345 60.7301 84.9148C60.7301 85.1913 60.6241 85.4299 60.4119 85.6307C60.2036 85.8277 59.9517 85.9261 59.6562 85.9261ZM62.6009 96V94.8352L67.3281 88.8295V88.75H62.7543V87.2727H69.4474V88.5114L64.902 94.4432V94.5227H69.6065V96H62.6009ZM75.0369 96.1761C74.2188 96.1761 73.5047 95.9886 72.8949 95.6136C72.285 95.2386 71.8116 94.714 71.4744 94.0398C71.1373 93.3655 70.9688 92.5777 70.9688 91.6761C70.9688 90.7708 71.1373 89.9792 71.4744 89.3011C71.8116 88.6231 72.285 88.0966 72.8949 87.7216C73.5047 87.3466 74.2188 87.1591 75.0369 87.1591C75.8551 87.1591 76.5691 87.3466 77.179 87.7216C77.7888 88.0966 78.2623 88.6231 78.5994 89.3011C78.9366 89.9792 79.1051 90.7708 79.1051 91.6761C79.1051 92.5777 78.9366 93.3655 78.5994 94.0398C78.2623 94.714 77.7888 95.2386 77.179 95.6136C76.5691 95.9886 75.8551 96.1761 75.0369 96.1761ZM75.0426 94.75C75.5729 94.75 76.0123 94.6098 76.3608 94.3295C76.7093 94.0492 76.9669 93.6761 77.1335 93.2102C77.304 92.7443 77.3892 92.2311 77.3892 91.6705C77.3892 91.1136 77.304 90.6023 77.1335 90.1364C76.9669 89.6667 76.7093 89.2898 76.3608 89.0057C76.0123 88.7216 75.5729 88.5795 75.0426 88.5795C74.5085 88.5795 74.0653 88.7216 73.7131 89.0057C73.3646 89.2898 73.1051 89.6667 72.9347 90.1364C72.768 90.6023 72.6847 91.1136 72.6847 91.6705C72.6847 92.2311 72.768 92.7443 72.9347 93.2102C73.1051 93.6761 73.3646 94.0492 73.7131 94.3295C74.0653 94.6098 74.5085 94.75 75.0426 94.75ZM82.7003 90.8182V96H81.0014V87.2727H82.6321V88.6932H82.7401C82.9408 88.2311 83.2552 87.8598 83.6832 87.5795C84.1151 87.2992 84.6586 87.1591 85.3139 87.1591C85.9086 87.1591 86.4295 87.2841 86.8764 87.5341C87.3234 87.7803 87.67 88.1477 87.9162 88.6364C88.1624 89.125 88.2855 89.7292 88.2855 90.4489V96H86.5866V90.6534C86.5866 90.0208 86.4219 89.5265 86.0923 89.1705C85.7628 88.8106 85.3101 88.6307 84.7344 88.6307C84.3404 88.6307 83.9901 88.7159 83.6832 88.8864C83.3802 89.0568 83.1397 89.3068 82.9616 89.6364C82.7874 89.9621 82.7003 90.3561 82.7003 90.8182ZM94.6378 87.2727V88.6364H89.8707V87.2727H94.6378ZM91.1491 85.1818H92.848V93.4375C92.848 93.767 92.8973 94.0152 92.9957 94.1818C93.0942 94.3447 93.2211 94.4564 93.3764 94.517C93.5355 94.5739 93.7079 94.6023 93.8935 94.6023C94.0298 94.6023 94.1491 94.5928 94.2514 94.5739C94.3537 94.5549 94.4332 94.5398 94.4901 94.5284L94.7969 95.9318C94.6984 95.9697 94.5582 96.0076 94.3764 96.0455C94.1946 96.0871 93.9673 96.1098 93.6946 96.1136C93.2476 96.1212 92.831 96.0417 92.4446 95.875C92.0582 95.7083 91.7457 95.4508 91.5071 95.1023C91.2685 94.7538 91.1491 94.3163 91.1491 93.7898V85.1818ZM99.0568 96.1932C98.5038 96.1932 98.0038 96.0909 97.5568 95.8864C97.1098 95.678 96.7557 95.3769 96.4943 94.983C96.2367 94.589 96.108 94.1061 96.108 93.5341C96.108 93.0417 96.2027 92.6364 96.392 92.3182C96.5814 92 96.8371 91.7481 97.1591 91.5625C97.4811 91.3769 97.8409 91.2367 98.2386 91.142C98.6364 91.0473 99.0417 90.9754 99.4545 90.9261C99.9773 90.8655 100.402 90.8163 100.727 90.7784C101.053 90.7367 101.29 90.6705 101.438 90.5795C101.585 90.4886 101.659 90.3409 101.659 90.1364V90.0966C101.659 89.6004 101.519 89.2159 101.239 88.9432C100.962 88.6705 100.549 88.5341 100 88.5341C99.428 88.5341 98.9773 88.661 98.6477 88.9148C98.322 89.1648 98.0966 89.4432 97.9716 89.75L96.375 89.3864C96.5644 88.8561 96.8409 88.428 97.2045 88.1023C97.572 87.7727 97.9943 87.5341 98.4716 87.3864C98.9489 87.2348 99.4508 87.1591 99.9773 87.1591C100.326 87.1591 100.695 87.2008 101.085 87.2841C101.479 87.3636 101.847 87.5114 102.188 87.7273C102.532 87.9432 102.814 88.2519 103.034 88.6534C103.254 89.0511 103.364 89.5682 103.364 90.2045V96H101.705V94.8068H101.636C101.527 95.0265 101.362 95.2424 101.142 95.4545C100.922 95.6667 100.64 95.8428 100.295 95.983C99.9508 96.1231 99.5379 96.1932 99.0568 96.1932ZM99.4261 94.8295C99.8958 94.8295 100.297 94.7367 100.631 94.5511C100.968 94.3655 101.223 94.1231 101.398 93.8239C101.576 93.5208 101.665 93.197 101.665 92.8523V91.7273C101.604 91.7879 101.487 91.8447 101.312 91.8977C101.142 91.947 100.947 91.9905 100.727 92.0284C100.508 92.0625 100.294 92.0947 100.085 92.125C99.8769 92.1515 99.7027 92.1742 99.5625 92.1932C99.233 92.2348 98.9318 92.3049 98.6591 92.4034C98.3902 92.5019 98.1742 92.6439 98.0114 92.8295C97.8523 93.0114 97.7727 93.2538 97.7727 93.5568C97.7727 93.9773 97.928 94.2955 98.2386 94.5114C98.5492 94.7235 98.9451 94.8295 99.4261 94.8295ZM107.325 84.3636V96H105.626V84.3636H107.325ZM117.112 96.1705C116.408 96.1705 115.779 95.9905 115.226 95.6307C114.677 95.267 114.245 94.75 113.93 94.0795C113.62 93.4053 113.464 92.5966 113.464 91.6534C113.464 90.7102 113.622 89.9034 113.936 89.233C114.254 88.5625 114.69 88.0492 115.243 87.6932C115.796 87.3371 116.423 87.1591 117.124 87.1591C117.665 87.1591 118.101 87.25 118.43 87.4318C118.764 87.6098 119.021 87.8182 119.203 88.0568C119.389 88.2955 119.533 88.5057 119.635 88.6875H119.737V84.3636H121.436V96H119.777V94.642H119.635C119.533 94.8277 119.385 95.0398 119.192 95.2784C119.002 95.517 118.741 95.7254 118.408 95.9034C118.074 96.0814 117.643 96.1705 117.112 96.1705ZM117.487 94.7216C117.976 94.7216 118.389 94.5928 118.726 94.3352C119.067 94.0739 119.324 93.7121 119.499 93.25C119.677 92.7879 119.766 92.25 119.766 91.6364C119.766 91.0303 119.679 90.5 119.504 90.0455C119.33 89.5909 119.074 89.2367 118.737 88.983C118.4 88.7292 117.983 88.6023 117.487 88.6023C116.976 88.6023 116.55 88.7348 116.209 89C115.868 89.2652 115.61 89.6269 115.436 90.0852C115.266 90.5436 115.18 91.0606 115.18 91.6364C115.18 92.2197 115.268 92.7443 115.442 93.2102C115.616 93.6761 115.874 94.0455 116.214 94.3182C116.559 94.5871 116.983 94.7216 117.487 94.7216ZM123.861 96V87.2727H125.56V96H123.861ZM124.719 85.9261C124.423 85.9261 124.17 85.8277 123.957 85.6307C123.749 85.4299 123.645 85.1913 123.645 84.9148C123.645 84.6345 123.749 84.3958 123.957 84.1989C124.17 83.9981 124.423 83.8977 124.719 83.8977C125.014 83.8977 125.266 83.9981 125.474 84.1989C125.687 84.3958 125.793 84.6345 125.793 84.9148C125.793 85.1913 125.687 85.4299 125.474 85.6307C125.266 85.8277 125.014 85.9261 124.719 85.9261ZM135.311 87.2727L132.146 96H130.328L127.158 87.2727H128.982L131.192 93.9886H131.283L133.487 87.2727H135.311ZM136.908 96V87.2727H138.607V96H136.908ZM137.766 85.9261C137.47 85.9261 137.216 85.8277 137.004 85.6307C136.796 85.4299 136.692 85.1913 136.692 84.9148C136.692 84.6345 136.796 84.3958 137.004 84.1989C137.216 83.9981 137.47 83.8977 137.766 83.8977C138.061 83.8977 138.313 83.9981 138.521 84.1989C138.733 84.3958 138.839 84.6345 138.839 84.9148C138.839 85.1913 138.733 85.4299 138.521 85.6307C138.313 85.8277 138.061 85.9261 137.766 85.9261ZM144.159 96.1705C143.455 96.1705 142.826 95.9905 142.273 95.6307C141.723 95.267 141.292 94.75 140.977 94.0795C140.667 93.4053 140.511 92.5966 140.511 91.6534C140.511 90.7102 140.669 89.9034 140.983 89.233C141.301 88.5625 141.737 88.0492 142.29 87.6932C142.843 87.3371 143.47 87.1591 144.17 87.1591C144.712 87.1591 145.148 87.25 145.477 87.4318C145.811 87.6098 146.068 87.8182 146.25 88.0568C146.436 88.2955 146.58 88.5057 146.682 88.6875H146.784V84.3636H148.483V96H146.824V94.642H146.682C146.58 94.8277 146.432 95.0398 146.239 95.2784C146.049 95.517 145.788 95.7254 145.455 95.9034C145.121 96.0814 144.689 96.1705 144.159 96.1705ZM144.534 94.7216C145.023 94.7216 145.436 94.5928 145.773 94.3352C146.114 94.0739 146.371 93.7121 146.545 93.25C146.723 92.7879 146.812 92.25 146.812 91.6364C146.812 91.0303 146.725 90.5 146.551 90.0455C146.377 89.5909 146.121 89.2367 145.784 88.983C145.447 88.7292 145.03 88.6023 144.534 88.6023C144.023 88.6023 143.597 88.7348 143.256 89C142.915 89.2652 142.657 89.6269 142.483 90.0852C142.313 90.5436 142.227 91.0606 142.227 91.6364C142.227 92.2197 142.314 92.7443 142.489 93.2102C142.663 93.6761 142.92 94.0455 143.261 94.3182C143.606 94.5871 144.03 94.7216 144.534 94.7216ZM154.669 96.1761C153.809 96.1761 153.069 95.9924 152.447 95.625C151.83 95.2538 151.353 94.733 151.016 94.0625C150.682 93.3883 150.516 92.5985 150.516 91.6932C150.516 90.7992 150.682 90.0114 151.016 89.3295C151.353 88.6477 151.822 88.1155 152.425 87.733C153.031 87.3504 153.739 87.1591 154.55 87.1591C155.042 87.1591 155.519 87.2405 155.982 87.4034C156.444 87.5663 156.858 87.822 157.226 88.1705C157.593 88.5189 157.883 88.9716 158.095 89.5284C158.307 90.0814 158.413 90.7538 158.413 91.5455V92.1477H151.476V90.875H156.749C156.749 90.428 156.658 90.0322 156.476 89.6875C156.294 89.339 156.038 89.0644 155.709 88.8636C155.383 88.6629 155 88.5625 154.561 88.5625C154.084 88.5625 153.667 88.6799 153.311 88.9148C152.959 89.1458 152.686 89.4489 152.493 89.8239C152.304 90.1951 152.209 90.5985 152.209 91.0341V92.0284C152.209 92.6117 152.311 93.108 152.516 93.517C152.724 93.9261 153.014 94.2386 153.385 94.4545C153.756 94.6667 154.19 94.7727 154.686 94.7727C155.008 94.7727 155.302 94.7273 155.567 94.6364C155.832 94.5417 156.061 94.4015 156.254 94.2159C156.447 94.0303 156.595 93.8011 156.697 93.5284L158.305 93.8182C158.177 94.2917 157.946 94.7064 157.612 95.0625C157.283 95.4148 156.868 95.6894 156.368 95.8864C155.872 96.0795 155.305 96.1761 154.669 96.1761ZM160.298 96V87.2727H161.94V88.6591H162.031C162.19 88.1894 162.471 87.8201 162.872 87.5511C163.277 87.2784 163.736 87.142 164.247 87.142C164.353 87.142 164.478 87.1458 164.622 87.1534C164.77 87.161 164.885 87.1705 164.969 87.1818V88.8068C164.901 88.7879 164.779 88.767 164.605 88.7443C164.431 88.7178 164.257 88.7045 164.082 88.7045C163.681 88.7045 163.323 88.7898 163.009 88.9602C162.698 89.1269 162.452 89.3598 162.27 89.6591C162.088 89.9545 161.997 90.2917 161.997 90.6705V96H160.298ZM172.565 96L169.997 87.2727H171.753L173.463 93.6818H173.548L175.264 87.2727H177.02L178.724 93.6534H178.81L180.509 87.2727H182.264L179.702 96H177.969L176.196 89.6989H176.065L174.293 96H172.565ZM183.876 96V87.2727H185.575V96H183.876ZM184.734 85.9261C184.439 85.9261 184.185 85.8277 183.973 85.6307C183.765 85.4299 183.661 85.1913 183.661 84.9148C183.661 84.6345 183.765 84.3958 183.973 84.1989C184.185 83.9981 184.439 83.8977 184.734 83.8977C185.03 83.8977 185.282 83.9981 185.49 84.1989C185.702 84.3958 185.808 84.6345 185.808 84.9148C185.808 85.1913 185.702 85.4299 185.49 85.6307C185.282 85.8277 185.03 85.9261 184.734 85.9261ZM191.935 87.2727V88.6364H187.168V87.2727H191.935ZM188.446 85.1818H190.145V93.4375C190.145 93.767 190.194 94.0152 190.293 94.1818C190.391 94.3447 190.518 94.4564 190.673 94.517C190.832 94.5739 191.005 94.6023 191.19 94.6023C191.327 94.6023 191.446 94.5928 191.548 94.5739C191.651 94.5549 191.73 94.5398 191.787 94.5284L192.094 95.9318C191.995 95.9697 191.855 96.0076 191.673 96.0455C191.491 96.0871 191.264 96.1098 190.991 96.1136C190.545 96.1212 190.128 96.0417 189.741 95.875C189.355 95.7083 189.043 95.4508 188.804 95.1023C188.565 94.7538 188.446 94.3163 188.446 93.7898V85.1818ZM195.7 90.8182V96H194.001V84.3636H195.678V88.6932H195.786C195.99 88.2235 196.303 87.8504 196.723 87.5739C197.143 87.2973 197.693 87.1591 198.371 87.1591C198.969 87.1591 199.492 87.2822 199.939 87.5284C200.39 87.7746 200.738 88.142 200.984 88.6307C201.234 89.1155 201.359 89.7216 201.359 90.4489V96H199.661V90.6534C199.661 90.0133 199.496 89.517 199.166 89.1648C198.837 88.8087 198.378 88.6307 197.791 88.6307C197.39 88.6307 197.03 88.7159 196.712 88.8864C196.397 89.0568 196.149 89.3068 195.967 89.6364C195.789 89.9621 195.7 90.3561 195.7 90.8182ZM34.4091 120.17C33.7045 120.17 33.0758 119.991 32.5227 119.631C31.9735 119.267 31.5417 118.75 31.2273 118.08C30.9167 117.405 30.7614 116.597 30.7614 115.653C30.7614 114.71 30.9186 113.903 31.233 113.233C31.5511 112.562 31.9867 112.049 32.5398 111.693C33.0928 111.337 33.7197 111.159 34.4205 111.159C34.9621 111.159 35.3977 111.25 35.7273 111.432C36.0606 111.61 36.3182 111.818 36.5 112.057C36.6856 112.295 36.8295 112.506 36.9318 112.688H37.0341V108.364H38.733V120H37.0739V118.642H36.9318C36.8295 118.828 36.6818 119.04 36.4886 119.278C36.2992 119.517 36.0379 119.725 35.7045 119.903C35.3712 120.081 34.9394 120.17 34.4091 120.17ZM34.7841 118.722C35.2727 118.722 35.6856 118.593 36.0227 118.335C36.3636 118.074 36.6212 117.712 36.7955 117.25C36.9735 116.788 37.0625 116.25 37.0625 115.636C37.0625 115.03 36.9754 114.5 36.8011 114.045C36.6269 113.591 36.3712 113.237 36.0341 112.983C35.697 112.729 35.2803 112.602 34.7841 112.602C34.2727 112.602 33.8466 112.735 33.5057 113C33.1648 113.265 32.9072 113.627 32.733 114.085C32.5625 114.544 32.4773 115.061 32.4773 115.636C32.4773 116.22 32.5644 116.744 32.7386 117.21C32.9129 117.676 33.1705 118.045 33.5114 118.318C33.8561 118.587 34.2803 118.722 34.7841 118.722ZM44.919 120.176C44.0592 120.176 43.3187 119.992 42.6974 119.625C42.08 119.254 41.6027 118.733 41.2656 118.062C40.9323 117.388 40.7656 116.598 40.7656 115.693C40.7656 114.799 40.9323 114.011 41.2656 113.33C41.6027 112.648 42.0724 112.116 42.6747 111.733C43.2808 111.35 43.9891 111.159 44.7997 111.159C45.2921 111.159 45.7694 111.241 46.2315 111.403C46.6937 111.566 47.1084 111.822 47.4759 112.17C47.8433 112.519 48.133 112.972 48.3452 113.528C48.5573 114.081 48.6634 114.754 48.6634 115.545V116.148H41.7259V114.875H46.9986C46.9986 114.428 46.9077 114.032 46.7259 113.688C46.544 113.339 46.2884 113.064 45.9588 112.864C45.633 112.663 45.2505 112.562 44.8111 112.562C44.3338 112.562 43.9171 112.68 43.5611 112.915C43.2088 113.146 42.9361 113.449 42.7429 113.824C42.5535 114.195 42.4588 114.598 42.4588 115.034V116.028C42.4588 116.612 42.5611 117.108 42.7656 117.517C42.974 117.926 43.2637 118.239 43.6349 118.455C44.0062 118.667 44.4399 118.773 44.9361 118.773C45.258 118.773 45.5516 118.727 45.8168 118.636C46.0819 118.542 46.3111 118.402 46.5043 118.216C46.6974 118.03 46.8452 117.801 46.9474 117.528L48.5554 117.818C48.4266 118.292 48.1955 118.706 47.8622 119.062C47.5327 119.415 47.1179 119.689 46.6179 119.886C46.1217 120.08 45.5554 120.176 44.919 120.176ZM57.0881 113.403L55.5483 113.676C55.4839 113.479 55.3816 113.292 55.2415 113.114C55.1051 112.936 54.9195 112.79 54.6847 112.676C54.4498 112.562 54.1563 112.506 53.804 112.506C53.3229 112.506 52.9214 112.614 52.5994 112.83C52.2775 113.042 52.1165 113.316 52.1165 113.653C52.1165 113.945 52.2244 114.18 52.4403 114.358C52.6563 114.536 53.0047 114.682 53.4858 114.795L54.8722 115.114C55.6752 115.299 56.2737 115.585 56.6676 115.972C57.0616 116.358 57.2585 116.86 57.2585 117.477C57.2585 118 57.107 118.466 56.804 118.875C56.5047 119.28 56.0862 119.598 55.5483 119.83C55.0142 120.061 54.3949 120.176 53.6903 120.176C52.7131 120.176 51.9157 119.968 51.2983 119.551C50.6809 119.131 50.3021 118.534 50.1619 117.761L51.804 117.511C51.9063 117.939 52.1165 118.263 52.4347 118.483C52.7528 118.699 53.1676 118.807 53.679 118.807C54.2358 118.807 54.6809 118.691 55.0142 118.46C55.3475 118.225 55.5142 117.939 55.5142 117.602C55.5142 117.33 55.4119 117.1 55.2074 116.915C55.0066 116.729 54.6979 116.589 54.2812 116.494L52.804 116.17C51.9896 115.985 51.3873 115.689 50.9972 115.284C50.6108 114.879 50.4176 114.366 50.4176 113.744C50.4176 113.229 50.5616 112.778 50.8494 112.392C51.1373 112.006 51.535 111.705 52.0426 111.489C52.5502 111.269 53.1316 111.159 53.7869 111.159C54.7301 111.159 55.4725 111.364 56.0142 111.773C56.5559 112.178 56.9138 112.722 57.0881 113.403ZM62.8026 120.176C61.9579 120.176 61.2306 119.985 60.6207 119.602C60.0147 119.216 59.5488 118.684 59.223 118.006C58.8973 117.328 58.7344 116.551 58.7344 115.676C58.7344 114.79 58.901 114.008 59.2344 113.33C59.5677 112.648 60.0374 112.116 60.6435 111.733C61.2495 111.35 61.9635 111.159 62.7855 111.159C63.4484 111.159 64.0393 111.282 64.5582 111.528C65.0772 111.771 65.4957 112.112 65.8139 112.551C66.1359 112.991 66.3272 113.504 66.3878 114.091H64.7344C64.6435 113.682 64.4351 113.33 64.1094 113.034C63.7874 112.739 63.3556 112.591 62.8139 112.591C62.3404 112.591 61.9257 112.716 61.5696 112.966C61.2173 113.212 60.9427 113.564 60.7457 114.023C60.5488 114.477 60.4503 115.015 60.4503 115.636C60.4503 116.273 60.5469 116.822 60.7401 117.284C60.9332 117.746 61.206 118.104 61.5582 118.358C61.9143 118.612 62.3329 118.739 62.8139 118.739C63.1359 118.739 63.4276 118.68 63.6889 118.562C63.9541 118.441 64.1757 118.269 64.3537 118.045C64.5355 117.822 64.6624 117.553 64.7344 117.239H66.3878C66.3272 117.803 66.1435 118.307 65.8366 118.75C65.5298 119.193 65.1188 119.542 64.6037 119.795C64.0923 120.049 63.492 120.176 62.8026 120.176ZM68.2045 120V111.273H69.8466V112.659H69.9375C70.0966 112.189 70.3769 111.82 70.7784 111.551C71.1837 111.278 71.642 111.142 72.1534 111.142C72.2595 111.142 72.3845 111.146 72.5284 111.153C72.6761 111.161 72.7917 111.17 72.875 111.182V112.807C72.8068 112.788 72.6856 112.767 72.5114 112.744C72.3371 112.718 72.1629 112.705 71.9886 112.705C71.5871 112.705 71.2292 112.79 70.9148 112.96C70.6042 113.127 70.358 113.36 70.1761 113.659C69.9943 113.955 69.9034 114.292 69.9034 114.67V120H68.2045ZM74.3452 120V111.273H76.044V120H74.3452ZM75.2031 109.926C74.9077 109.926 74.6539 109.828 74.4418 109.631C74.2334 109.43 74.1293 109.191 74.1293 108.915C74.1293 108.634 74.2334 108.396 74.4418 108.199C74.6539 107.998 74.9077 107.898 75.2031 107.898C75.4986 107.898 75.7505 107.998 75.9588 108.199C76.1709 108.396 76.277 108.634 76.277 108.915C76.277 109.191 76.1709 109.43 75.9588 109.631C75.7505 109.828 75.4986 109.926 75.2031 109.926ZM78.3295 123.273V111.273H79.9886V112.688H80.1307C80.2292 112.506 80.3712 112.295 80.5568 112.057C80.7424 111.818 81 111.61 81.3295 111.432C81.6591 111.25 82.0947 111.159 82.6364 111.159C83.3409 111.159 83.9697 111.337 84.5227 111.693C85.0758 112.049 85.5095 112.562 85.8239 113.233C86.142 113.903 86.3011 114.71 86.3011 115.653C86.3011 116.597 86.1439 117.405 85.8295 118.08C85.5152 118.75 85.0833 119.267 84.5341 119.631C83.9848 119.991 83.358 120.17 82.6534 120.17C82.1231 120.17 81.6894 120.081 81.3523 119.903C81.0189 119.725 80.7576 119.517 80.5682 119.278C80.3788 119.04 80.233 118.828 80.1307 118.642H80.0284V123.273H78.3295ZM79.9943 115.636C79.9943 116.25 80.0833 116.788 80.2614 117.25C80.4394 117.712 80.697 118.074 81.0341 118.335C81.3712 118.593 81.7841 118.722 82.2727 118.722C82.7803 118.722 83.2045 118.587 83.5455 118.318C83.8864 118.045 84.1439 117.676 84.3182 117.21C84.4962 116.744 84.5852 116.22 84.5852 115.636C84.5852 115.061 84.4981 114.544 84.3239 114.085C84.1534 113.627 83.8958 113.265 83.5511 113C83.2102 112.735 82.7841 112.602 82.2727 112.602C81.7803 112.602 81.3636 112.729 81.0227 112.983C80.6856 113.237 80.4299 113.591 80.2557 114.045C80.0814 114.5 79.9943 115.03 79.9943 115.636ZM92.2784 111.273V112.636H87.5114V111.273H92.2784ZM88.7898 109.182H90.4886V117.438C90.4886 117.767 90.5379 118.015 90.6364 118.182C90.7348 118.345 90.8617 118.456 91.017 118.517C91.1761 118.574 91.3485 118.602 91.5341 118.602C91.6705 118.602 91.7898 118.593 91.892 118.574C91.9943 118.555 92.0739 118.54 92.1307 118.528L92.4375 119.932C92.339 119.97 92.1989 120.008 92.017 120.045C91.8352 120.087 91.608 120.11 91.3352 120.114C90.8883 120.121 90.4716 120.042 90.0852 119.875C89.6989 119.708 89.3864 119.451 89.1477 119.102C88.9091 118.754 88.7898 118.316 88.7898 117.79V109.182ZM94.1577 120V111.273H95.8565V120H94.1577ZM95.0156 109.926C94.7202 109.926 94.4664 109.828 94.2543 109.631C94.0459 109.43 93.9418 109.191 93.9418 108.915C93.9418 108.634 94.0459 108.396 94.2543 108.199C94.4664 107.998 94.7202 107.898 95.0156 107.898C95.3111 107.898 95.563 107.998 95.7713 108.199C95.9834 108.396 96.0895 108.634 96.0895 108.915C96.0895 109.191 95.9834 109.43 95.7713 109.631C95.563 109.828 95.3111 109.926 95.0156 109.926ZM101.818 120.176C101 120.176 100.286 119.989 99.6761 119.614C99.0663 119.239 98.5928 118.714 98.2557 118.04C97.9186 117.366 97.75 116.578 97.75 115.676C97.75 114.771 97.9186 113.979 98.2557 113.301C98.5928 112.623 99.0663 112.097 99.6761 111.722C100.286 111.347 101 111.159 101.818 111.159C102.636 111.159 103.35 111.347 103.96 111.722C104.57 112.097 105.044 112.623 105.381 113.301C105.718 113.979 105.886 114.771 105.886 115.676C105.886 116.578 105.718 117.366 105.381 118.04C105.044 118.714 104.57 119.239 103.96 119.614C103.35 119.989 102.636 120.176 101.818 120.176ZM101.824 118.75C102.354 118.75 102.794 118.61 103.142 118.33C103.491 118.049 103.748 117.676 103.915 117.21C104.085 116.744 104.17 116.231 104.17 115.67C104.17 115.114 104.085 114.602 103.915 114.136C103.748 113.667 103.491 113.29 103.142 113.006C102.794 112.722 102.354 112.58 101.824 112.58C101.29 112.58 100.847 112.722 100.494 113.006C100.146 113.29 99.8864 113.667 99.7159 114.136C99.5492 114.602 99.4659 115.114 99.4659 115.67C99.4659 116.231 99.5492 116.744 99.7159 117.21C99.8864 117.676 100.146 118.049 100.494 118.33C100.847 118.61 101.29 118.75 101.824 118.75ZM109.482 114.818V120H107.783V111.273H109.413V112.693H109.521C109.722 112.231 110.036 111.86 110.464 111.58C110.896 111.299 111.44 111.159 112.095 111.159C112.69 111.159 113.211 111.284 113.658 111.534C114.105 111.78 114.451 112.148 114.697 112.636C114.944 113.125 115.067 113.729 115.067 114.449V120H113.368V114.653C113.368 114.021 113.203 113.527 112.874 113.17C112.544 112.811 112.091 112.631 111.516 112.631C111.122 112.631 110.771 112.716 110.464 112.886C110.161 113.057 109.921 113.307 109.743 113.636C109.569 113.962 109.482 114.356 109.482 114.818Z" fill="white" fill-opacity="0.95"/>
<path d="M512 136V137H513V136H512ZM511 68V136H513V68H511ZM512 135H256V137H512V135Z" fill="#707070" mask="url(#path-15-inside-5_1637_12192)"/>
<path d="M291.295 96.3636V108H289.886V97.8409H289.818L286.977 99.7273V98.2955L289.886 96.3636H291.295ZM294.369 105.614V104.455L299.483 96.3636H300.324V98.1591H299.756L295.892 104.273V104.364H302.778V105.614H294.369ZM299.847 108V105.261V104.722V96.3636H301.188V108H299.847ZM309.044 95.8182L305.294 109.75H304.067L307.817 95.8182H309.044ZM310.611 108V106.977L314.452 102.773C314.902 102.28 315.274 101.852 315.565 101.489C315.857 101.121 316.073 100.777 316.213 100.455C316.357 100.129 316.429 99.7879 316.429 99.4318C316.429 99.0227 316.33 98.6686 316.134 98.3693C315.94 98.0701 315.675 97.839 315.338 97.6761C315.001 97.5133 314.622 97.4318 314.202 97.4318C313.755 97.4318 313.365 97.5246 313.031 97.7102C312.702 97.892 312.446 98.1477 312.264 98.4773C312.086 98.8068 311.997 99.1932 311.997 99.6364H310.656C310.656 98.9545 310.813 98.3561 311.128 97.8409C311.442 97.3258 311.87 96.9242 312.412 96.6364C312.957 96.3485 313.569 96.2045 314.247 96.2045C314.929 96.2045 315.533 96.3485 316.06 96.6364C316.586 96.9242 316.999 97.3125 317.298 97.8011C317.598 98.2898 317.747 98.8333 317.747 99.4318C317.747 99.8598 317.67 100.278 317.514 100.688C317.363 101.093 317.098 101.545 316.719 102.045C316.344 102.542 315.823 103.148 315.156 103.864L312.543 106.659V106.75H317.952V108H310.611ZM324.094 108.159C323.238 108.159 322.509 107.926 321.906 107.46C321.304 106.991 320.844 106.311 320.526 105.42C320.207 104.527 320.048 103.447 320.048 102.182C320.048 100.924 320.207 99.8504 320.526 98.9602C320.848 98.0663 321.31 97.3845 321.912 96.9148C322.518 96.4413 323.245 96.2045 324.094 96.2045C324.942 96.2045 325.668 96.4413 326.27 96.9148C326.876 97.3845 327.338 98.0663 327.656 98.9602C327.978 99.8504 328.139 100.924 328.139 102.182C328.139 103.447 327.98 104.527 327.662 105.42C327.344 106.311 326.884 106.991 326.281 107.46C325.679 107.926 324.95 108.159 324.094 108.159ZM324.094 106.909C324.942 106.909 325.601 106.5 326.071 105.682C326.541 104.864 326.776 103.697 326.776 102.182C326.776 101.174 326.668 100.316 326.452 99.608C326.24 98.8996 325.933 98.3598 325.531 97.9886C325.134 97.6174 324.654 97.4318 324.094 97.4318C323.253 97.4318 322.596 97.8466 322.122 98.6761C321.649 99.5019 321.412 100.67 321.412 102.182C321.412 103.189 321.518 104.045 321.73 104.75C321.942 105.455 322.247 105.991 322.645 106.358C323.046 106.725 323.529 106.909 324.094 106.909Z" fill="white" fill-opacity="0.95"/>
<path d="M768 136V137H769V136H768ZM767 68V136H769V68H767ZM768 135H512V137H768V135Z" fill="white" fill-opacity="0.3" mask="url(#path-18-inside-6_1637_12192)"/>
<path d="M545.795 96.2045C545.242 96.2045 544.741 96.1004 544.29 95.892C543.839 95.6799 543.481 95.375 543.216 94.9773C542.951 94.5758 542.818 94.0909 542.818 93.5227C542.818 93.0227 542.917 92.6174 543.114 92.3068C543.311 91.9924 543.574 91.7462 543.903 91.5682C544.233 91.3902 544.597 91.2576 544.994 91.1705C545.396 91.0795 545.799 91.0076 546.205 90.9545C546.735 90.8864 547.165 90.8352 547.494 90.8011C547.828 90.7633 548.07 90.7008 548.222 90.6136C548.377 90.5265 548.455 90.375 548.455 90.1591V90.1136C548.455 89.553 548.301 89.1174 547.994 88.8068C547.691 88.4962 547.231 88.3409 546.614 88.3409C545.973 88.3409 545.472 88.4811 545.108 88.7614C544.744 89.0417 544.489 89.3409 544.341 89.6591L543.068 89.2045C543.295 88.6742 543.598 88.2614 543.977 87.9659C544.36 87.6667 544.777 87.4583 545.227 87.3409C545.682 87.2197 546.129 87.1591 546.568 87.1591C546.848 87.1591 547.17 87.1932 547.534 87.2614C547.902 87.3258 548.256 87.4602 548.597 87.6648C548.941 87.8693 549.227 88.178 549.455 88.5909C549.682 89.0038 549.795 89.5568 549.795 90.25V96H548.455V94.8182H548.386C548.295 95.0076 548.144 95.2102 547.932 95.4261C547.72 95.642 547.438 95.8258 547.085 95.9773C546.733 96.1288 546.303 96.2045 545.795 96.2045ZM546 95C546.53 95 546.977 94.8958 547.341 94.6875C547.708 94.4792 547.985 94.2102 548.17 93.8807C548.36 93.5511 548.455 93.2045 548.455 92.8409V91.6136C548.398 91.6818 548.273 91.7443 548.08 91.8011C547.89 91.8542 547.67 91.9015 547.42 91.9432C547.174 91.9811 546.934 92.0152 546.699 92.0455C546.468 92.072 546.28 92.0947 546.136 92.1136C545.788 92.1591 545.462 92.233 545.159 92.3352C544.86 92.4337 544.617 92.5833 544.432 92.7841C544.25 92.9811 544.159 93.25 544.159 93.5909C544.159 94.0568 544.331 94.4091 544.676 94.6477C545.025 94.8826 545.466 95 546 95ZM552.243 99.2727V87.2727H553.538V88.6591H553.697C553.796 88.5076 553.932 88.3144 554.107 88.0795C554.285 87.8409 554.538 87.6288 554.868 87.4432C555.201 87.2538 555.652 87.1591 556.22 87.1591C556.955 87.1591 557.603 87.3428 558.163 87.7102C558.724 88.0777 559.161 88.5985 559.476 89.2727C559.79 89.947 559.947 90.7424 559.947 91.6591C559.947 92.5833 559.79 93.3845 559.476 94.0625C559.161 94.7367 558.726 95.2595 558.169 95.6307C557.612 95.9981 556.97 96.1818 556.243 96.1818C555.682 96.1818 555.233 96.089 554.896 95.9034C554.559 95.714 554.3 95.5 554.118 95.2614C553.936 95.0189 553.796 94.8182 553.697 94.6591H553.584V99.2727H552.243ZM553.561 91.6364C553.561 92.2955 553.658 92.8769 553.851 93.3807C554.044 93.8807 554.326 94.2727 554.697 94.5568C555.069 94.8371 555.523 94.9773 556.061 94.9773C556.622 94.9773 557.089 94.8295 557.464 94.5341C557.843 94.2348 558.127 93.8333 558.317 93.3295C558.51 92.822 558.607 92.2576 558.607 91.6364C558.607 91.0227 558.512 90.4697 558.322 89.9773C558.137 89.4811 557.855 89.089 557.476 88.8011C557.101 88.5095 556.629 88.3636 556.061 88.3636C555.516 88.3636 555.057 88.5019 554.686 88.7784C554.315 89.0511 554.035 89.4337 553.845 89.9261C553.656 90.4148 553.561 90.9848 553.561 91.6364ZM561.993 99.2727V87.2727H563.288V88.6591H563.447C563.546 88.5076 563.682 88.3144 563.857 88.0795C564.035 87.8409 564.288 87.6288 564.618 87.4432C564.951 87.2538 565.402 87.1591 565.97 87.1591C566.705 87.1591 567.353 87.3428 567.913 87.7102C568.474 88.0777 568.911 88.5985 569.226 89.2727C569.54 89.947 569.697 90.7424 569.697 91.6591C569.697 92.5833 569.54 93.3845 569.226 94.0625C568.911 94.7367 568.476 95.2595 567.919 95.6307C567.362 95.9981 566.72 96.1818 565.993 96.1818C565.432 96.1818 564.983 96.089 564.646 95.9034C564.309 95.714 564.05 95.5 563.868 95.2614C563.686 95.0189 563.546 94.8182 563.447 94.6591H563.334V99.2727H561.993ZM563.311 91.6364C563.311 92.2955 563.408 92.8769 563.601 93.3807C563.794 93.8807 564.076 94.2727 564.447 94.5568C564.819 94.8371 565.273 94.9773 565.811 94.9773C566.372 94.9773 566.839 94.8295 567.214 94.5341C567.593 94.2348 567.877 93.8333 568.067 93.3295C568.26 92.822 568.357 92.2576 568.357 91.6364C568.357 91.0227 568.262 90.4697 568.072 89.9773C567.887 89.4811 567.605 89.089 567.226 88.8011C566.851 88.5095 566.379 88.3636 565.811 88.3636C565.266 88.3636 564.807 88.5019 564.436 88.7784C564.065 89.0511 563.785 89.4337 563.595 89.9261C563.406 90.4148 563.311 90.9848 563.311 91.6364ZM577.925 89.2273L576.72 89.5682C576.644 89.3674 576.533 89.1723 576.385 88.983C576.241 88.7898 576.044 88.6307 575.794 88.5057C575.544 88.3807 575.224 88.3182 574.834 88.3182C574.3 88.3182 573.855 88.4413 573.499 88.6875C573.146 88.9299 572.97 89.2386 572.97 89.6136C572.97 89.947 573.091 90.2102 573.334 90.4034C573.576 90.5966 573.955 90.7576 574.47 90.8864L575.766 91.2045C576.546 91.3939 577.127 91.6837 577.51 92.0739C577.893 92.4602 578.084 92.9583 578.084 93.5682C578.084 94.0682 577.94 94.5152 577.652 94.9091C577.368 95.303 576.97 95.6136 576.459 95.8409C575.947 96.0682 575.353 96.1818 574.675 96.1818C573.785 96.1818 573.048 95.9886 572.464 95.6023C571.881 95.2159 571.512 94.6515 571.357 93.9091L572.629 93.5909C572.75 94.0606 572.98 94.4129 573.317 94.6477C573.658 94.8826 574.103 95 574.652 95C575.277 95 575.773 94.8674 576.141 94.6023C576.512 94.3333 576.697 94.0114 576.697 93.6364C576.697 93.3333 576.591 93.0795 576.379 92.875C576.167 92.6667 575.841 92.5114 575.402 92.4091L573.947 92.0682C573.148 91.8788 572.561 91.5852 572.186 91.1875C571.815 90.786 571.629 90.2841 571.629 89.6818C571.629 89.1894 571.768 88.7538 572.044 88.375C572.324 87.9962 572.705 87.6989 573.186 87.483C573.671 87.267 574.22 87.1591 574.834 87.1591C575.697 87.1591 576.375 87.3485 576.868 87.7273C577.364 88.1061 577.716 88.6061 577.925 89.2273ZM581.08 96.0909C580.799 96.0909 580.559 95.9905 580.358 95.7898C580.157 95.589 580.057 95.3485 580.057 95.0682C580.057 94.7879 580.157 94.5473 580.358 94.3466C580.559 94.1458 580.799 94.0455 581.08 94.0455C581.36 94.0455 581.6 94.1458 581.801 94.3466C582.002 94.5473 582.102 94.7879 582.102 95.0682C582.102 95.2538 582.055 95.4242 581.96 95.5795C581.869 95.7348 581.746 95.8598 581.591 95.9545C581.439 96.0455 581.269 96.0909 581.08 96.0909ZM584.69 96V84.3636H586.031V88.6591H586.145C586.243 88.5076 586.38 88.3144 586.554 88.0795C586.732 87.8409 586.986 87.6288 587.315 87.4432C587.649 87.2538 588.099 87.1591 588.668 87.1591C589.402 87.1591 590.05 87.3428 590.611 87.7102C591.171 88.0777 591.609 88.5985 591.923 89.2727C592.238 89.947 592.395 90.7424 592.395 91.6591C592.395 92.5833 592.238 93.3845 591.923 94.0625C591.609 94.7367 591.173 95.2595 590.616 95.6307C590.06 95.9981 589.418 96.1818 588.69 96.1818C588.13 96.1818 587.681 96.089 587.344 95.9034C587.007 95.714 586.747 95.5 586.565 95.2614C586.384 95.0189 586.243 94.8182 586.145 94.6591H585.986V96H584.69ZM586.009 91.6364C586.009 92.2955 586.105 92.8769 586.298 93.3807C586.491 93.8807 586.774 94.2727 587.145 94.5568C587.516 94.8371 587.971 94.9773 588.509 94.9773C589.069 94.9773 589.537 94.8295 589.912 94.5341C590.291 94.2348 590.575 93.8333 590.764 93.3295C590.957 92.822 591.054 92.2576 591.054 91.6364C591.054 91.0227 590.959 90.4697 590.77 89.9773C590.584 89.4811 590.302 89.089 589.923 88.8011C589.548 88.5095 589.077 88.3636 588.509 88.3636C587.963 88.3636 587.505 88.5019 587.134 88.7784C586.762 89.0511 586.482 89.4337 586.293 89.9261C586.103 90.4148 586.009 90.9848 586.009 91.6364ZM597.991 96.1818C597.204 96.1818 596.512 95.9943 595.918 95.6193C595.327 95.2443 594.865 94.7197 594.531 94.0455C594.202 93.3712 594.037 92.5833 594.037 91.6818C594.037 90.7727 594.202 89.9792 594.531 89.3011C594.865 88.6231 595.327 88.0966 595.918 87.7216C596.512 87.3466 597.204 87.1591 597.991 87.1591C598.779 87.1591 599.469 87.3466 600.06 87.7216C600.654 88.0966 601.116 88.6231 601.446 89.3011C601.779 89.9792 601.946 90.7727 601.946 91.6818C601.946 92.5833 601.779 93.3712 601.446 94.0455C601.116 94.7197 600.654 95.2443 600.06 95.6193C599.469 95.9943 598.779 96.1818 597.991 96.1818ZM597.991 94.9773C598.59 94.9773 599.082 94.8239 599.469 94.517C599.855 94.2102 600.141 93.8068 600.327 93.3068C600.512 92.8068 600.605 92.2652 600.605 91.6818C600.605 91.0985 600.512 90.5549 600.327 90.0511C600.141 89.5473 599.855 89.1402 599.469 88.8295C599.082 88.5189 598.59 88.3636 597.991 88.3636C597.393 88.3636 596.901 88.5189 596.514 88.8295C596.128 89.1402 595.842 89.5473 595.656 90.0511C595.471 90.5549 595.378 91.0985 595.378 91.6818C595.378 92.2652 595.471 92.8068 595.656 93.3068C595.842 93.8068 596.128 94.2102 596.514 94.517C596.901 94.8239 597.393 94.9773 597.991 94.9773ZM607.288 96.1818C606.561 96.1818 605.919 95.9981 605.362 95.6307C604.805 95.2595 604.37 94.7367 604.055 94.0625C603.741 93.3845 603.584 92.5833 603.584 91.6591C603.584 90.7424 603.741 89.947 604.055 89.2727C604.37 88.5985 604.807 88.0777 605.368 87.7102C605.929 87.3428 606.576 87.1591 607.311 87.1591C607.879 87.1591 608.328 87.2538 608.658 87.4432C608.991 87.6288 609.245 87.8409 609.419 88.0795C609.597 88.3144 609.735 88.5076 609.834 88.6591H609.947V84.3636H611.288V96H609.993V94.6591H609.834C609.735 94.8182 609.595 95.0189 609.413 95.2614C609.232 95.5 608.972 95.714 608.635 95.9034C608.298 96.089 607.849 96.1818 607.288 96.1818ZM607.47 94.9773C608.008 94.9773 608.463 94.8371 608.834 94.5568C609.205 94.2727 609.487 93.8807 609.68 93.3807C609.874 92.8769 609.97 92.2955 609.97 91.6364C609.97 90.9848 609.875 90.4148 609.686 89.9261C609.497 89.4337 609.216 89.0511 608.845 88.7784C608.474 88.5019 608.016 88.3636 607.47 88.3636C606.902 88.3636 606.429 88.5095 606.05 88.8011C605.675 89.089 605.393 89.4811 605.203 89.9773C605.018 90.4697 604.925 91.0227 604.925 91.6364C604.925 92.2576 605.019 92.822 605.209 93.3295C605.402 93.8333 605.686 94.2348 606.061 94.5341C606.44 94.8295 606.91 94.9773 607.47 94.9773ZM614.794 99.25C614.567 99.25 614.364 99.2311 614.186 99.1932C614.008 99.1591 613.885 99.125 613.817 99.0909L614.158 97.9091C614.646 98.0341 615.054 98.0303 615.379 97.8977C615.705 97.7689 615.987 97.3788 616.226 96.7273L616.476 96.0455L613.249 87.2727H614.703L617.112 94.2273H617.203L619.612 87.2727L621.078 87.2955L617.362 97.2727C617.196 97.7159 616.989 98.0833 616.743 98.375C616.497 98.6705 616.211 98.8902 615.885 99.0341C615.563 99.178 615.199 99.25 614.794 99.25ZM627.852 90.3864V91.6364H622.761V90.3864H627.852ZM543.227 120V111.273H544.523V112.636H544.636C544.818 112.17 545.112 111.809 545.517 111.551C545.922 111.29 546.409 111.159 546.977 111.159C547.553 111.159 548.032 111.29 548.415 111.551C548.801 111.809 549.102 112.17 549.318 112.636H549.409C549.633 112.186 549.968 111.828 550.415 111.562C550.862 111.294 551.398 111.159 552.023 111.159C552.803 111.159 553.441 111.403 553.938 111.892C554.434 112.377 554.682 113.133 554.682 114.159V120H553.341V114.159C553.341 113.515 553.165 113.055 552.812 112.778C552.46 112.502 552.045 112.364 551.568 112.364C550.955 112.364 550.479 112.549 550.142 112.92C549.805 113.288 549.636 113.754 549.636 114.318V120H548.273V114.023C548.273 113.527 548.112 113.127 547.79 112.824C547.468 112.517 547.053 112.364 546.545 112.364C546.197 112.364 545.871 112.456 545.568 112.642C545.269 112.828 545.027 113.085 544.841 113.415C544.659 113.741 544.568 114.117 544.568 114.545V120H543.227ZM557.134 120V111.273H558.474V120H557.134ZM557.815 109.818C557.554 109.818 557.329 109.729 557.139 109.551C556.954 109.373 556.861 109.159 556.861 108.909C556.861 108.659 556.954 108.445 557.139 108.267C557.329 108.089 557.554 108 557.815 108C558.077 108 558.3 108.089 558.486 108.267C558.675 108.445 558.77 108.659 558.77 108.909C558.77 109.159 558.675 109.373 558.486 109.551C558.3 109.729 558.077 109.818 557.815 109.818ZM564.226 120.182C563.499 120.182 562.857 119.998 562.3 119.631C561.743 119.259 561.307 118.737 560.993 118.062C560.679 117.384 560.521 116.583 560.521 115.659C560.521 114.742 560.679 113.947 560.993 113.273C561.307 112.598 561.745 112.078 562.305 111.71C562.866 111.343 563.514 111.159 564.249 111.159C564.817 111.159 565.266 111.254 565.595 111.443C565.929 111.629 566.182 111.841 566.357 112.08C566.535 112.314 566.673 112.508 566.771 112.659H566.885V108.364H568.226V120H566.93V118.659H566.771C566.673 118.818 566.533 119.019 566.351 119.261C566.169 119.5 565.91 119.714 565.572 119.903C565.235 120.089 564.786 120.182 564.226 120.182ZM564.408 118.977C564.946 118.977 565.4 118.837 565.771 118.557C566.143 118.273 566.425 117.881 566.618 117.381C566.811 116.877 566.908 116.295 566.908 115.636C566.908 114.985 566.813 114.415 566.624 113.926C566.434 113.434 566.154 113.051 565.783 112.778C565.411 112.502 564.953 112.364 564.408 112.364C563.839 112.364 563.366 112.509 562.987 112.801C562.612 113.089 562.33 113.481 562.141 113.977C561.955 114.47 561.862 115.023 561.862 115.636C561.862 116.258 561.957 116.822 562.146 117.33C562.339 117.833 562.624 118.235 562.999 118.534C563.377 118.83 563.847 118.977 564.408 118.977ZM577.05 113.227L575.845 113.568C575.769 113.367 575.658 113.172 575.51 112.983C575.366 112.79 575.169 112.631 574.919 112.506C574.669 112.381 574.349 112.318 573.959 112.318C573.425 112.318 572.98 112.441 572.624 112.688C572.271 112.93 572.095 113.239 572.095 113.614C572.095 113.947 572.216 114.21 572.459 114.403C572.701 114.597 573.08 114.758 573.595 114.886L574.891 115.205C575.671 115.394 576.252 115.684 576.635 116.074C577.018 116.46 577.209 116.958 577.209 117.568C577.209 118.068 577.065 118.515 576.777 118.909C576.493 119.303 576.095 119.614 575.584 119.841C575.072 120.068 574.478 120.182 573.8 120.182C572.91 120.182 572.173 119.989 571.589 119.602C571.006 119.216 570.637 118.652 570.482 117.909L571.754 117.591C571.875 118.061 572.105 118.413 572.442 118.648C572.783 118.883 573.228 119 573.777 119C574.402 119 574.898 118.867 575.266 118.602C575.637 118.333 575.822 118.011 575.822 117.636C575.822 117.333 575.716 117.08 575.504 116.875C575.292 116.667 574.966 116.511 574.527 116.409L573.072 116.068C572.273 115.879 571.686 115.585 571.311 115.188C570.94 114.786 570.754 114.284 570.754 113.682C570.754 113.189 570.893 112.754 571.169 112.375C571.449 111.996 571.83 111.699 572.311 111.483C572.796 111.267 573.345 111.159 573.959 111.159C574.822 111.159 575.5 111.348 575.993 111.727C576.489 112.106 576.841 112.606 577.05 113.227ZM579.227 120V111.273H580.568V120H579.227ZM579.909 109.818C579.648 109.818 579.422 109.729 579.233 109.551C579.047 109.373 578.955 109.159 578.955 108.909C578.955 108.659 579.047 108.445 579.233 108.267C579.422 108.089 579.648 108 579.909 108C580.17 108 580.394 108.089 580.58 108.267C580.769 108.445 580.864 108.659 580.864 108.909C580.864 109.159 580.769 109.373 580.58 109.551C580.394 109.729 580.17 109.818 579.909 109.818ZM582.774 120V118.977L587.729 112.614V112.523H582.933V111.273H589.456V112.341L584.638 118.659V118.75H589.615V120H582.774ZM595.089 120.182C594.249 120.182 593.523 119.996 592.913 119.625C592.307 119.25 591.839 118.727 591.51 118.057C591.184 117.383 591.021 116.598 591.021 115.705C591.021 114.811 591.184 114.023 591.51 113.341C591.839 112.655 592.298 112.121 592.885 111.739C593.476 111.352 594.165 111.159 594.953 111.159C595.408 111.159 595.857 111.235 596.3 111.386C596.743 111.538 597.146 111.784 597.51 112.125C597.874 112.462 598.163 112.909 598.379 113.466C598.595 114.023 598.703 114.708 598.703 115.523V116.091H591.976V114.932H597.339C597.339 114.439 597.241 114 597.044 113.614C596.851 113.227 596.574 112.922 596.214 112.699C595.858 112.475 595.438 112.364 594.953 112.364C594.419 112.364 593.957 112.496 593.567 112.761C593.18 113.023 592.883 113.364 592.675 113.784C592.466 114.205 592.362 114.655 592.362 115.136V115.909C592.362 116.568 592.476 117.127 592.703 117.585C592.934 118.04 593.254 118.386 593.663 118.625C594.072 118.86 594.548 118.977 595.089 118.977C595.442 118.977 595.76 118.928 596.044 118.83C596.332 118.727 596.58 118.576 596.788 118.375C596.997 118.17 597.158 117.917 597.271 117.614L598.567 117.977C598.43 118.417 598.201 118.803 597.879 119.136C597.557 119.466 597.16 119.723 596.686 119.909C596.213 120.091 595.68 120.182 595.089 120.182ZM606.766 120V121.25H599.493V120H606.766ZM608.712 120V111.273H610.007V112.591H610.098C610.257 112.159 610.545 111.809 610.962 111.54C611.378 111.271 611.848 111.136 612.371 111.136C612.469 111.136 612.592 111.138 612.74 111.142C612.888 111.146 613 111.152 613.075 111.159V112.523C613.03 112.511 612.926 112.494 612.763 112.472C612.604 112.445 612.435 112.432 612.257 112.432C611.833 112.432 611.454 112.521 611.121 112.699C610.791 112.873 610.53 113.116 610.337 113.426C610.147 113.733 610.053 114.083 610.053 114.477V120H608.712ZM618.058 120.182C617.217 120.182 616.492 119.996 615.882 119.625C615.276 119.25 614.808 118.727 614.479 118.057C614.153 117.383 613.99 116.598 613.99 115.705C613.99 114.811 614.153 114.023 614.479 113.341C614.808 112.655 615.267 112.121 615.854 111.739C616.445 111.352 617.134 111.159 617.922 111.159C618.376 111.159 618.825 111.235 619.268 111.386C619.712 111.538 620.115 111.784 620.479 112.125C620.842 112.462 621.132 112.909 621.348 113.466C621.564 114.023 621.672 114.708 621.672 115.523V116.091H614.945V114.932H620.308C620.308 114.439 620.21 114 620.013 113.614C619.82 113.227 619.543 112.922 619.183 112.699C618.827 112.475 618.407 112.364 617.922 112.364C617.388 112.364 616.926 112.496 616.536 112.761C616.149 113.023 615.852 113.364 615.643 113.784C615.435 114.205 615.331 114.655 615.331 115.136V115.909C615.331 116.568 615.445 117.127 615.672 117.585C615.903 118.04 616.223 118.386 616.632 118.625C617.041 118.86 617.517 118.977 618.058 118.977C618.411 118.977 618.729 118.928 619.013 118.83C619.301 118.727 619.549 118.576 619.757 118.375C619.965 118.17 620.126 117.917 620.24 117.614L621.536 117.977C621.399 118.417 621.17 118.803 620.848 119.136C620.526 119.466 620.128 119.723 619.655 119.909C619.181 120.091 618.649 120.182 618.058 120.182ZM627.234 123.455C626.587 123.455 626.03 123.371 625.564 123.205C625.098 123.042 624.71 122.826 624.399 122.557C624.092 122.292 623.848 122.008 623.666 121.705L624.734 120.955C624.856 121.114 625.009 121.295 625.195 121.5C625.38 121.708 625.634 121.888 625.956 122.04C626.282 122.195 626.708 122.273 627.234 122.273C627.939 122.273 628.52 122.102 628.979 121.761C629.437 121.42 629.666 120.886 629.666 120.159V118.386H629.553C629.454 118.545 629.314 118.742 629.132 118.977C628.954 119.208 628.696 119.415 628.359 119.597C628.026 119.775 627.575 119.864 627.007 119.864C626.303 119.864 625.67 119.697 625.109 119.364C624.553 119.03 624.111 118.545 623.786 117.909C623.464 117.273 623.303 116.5 623.303 115.591C623.303 114.697 623.46 113.919 623.774 113.256C624.089 112.589 624.526 112.074 625.087 111.71C625.647 111.343 626.295 111.159 627.03 111.159C627.598 111.159 628.049 111.254 628.382 111.443C628.719 111.629 628.977 111.841 629.155 112.08C629.337 112.314 629.477 112.508 629.575 112.659H629.712V111.273H631.007V120.25C631.007 121 630.837 121.61 630.496 122.08C630.159 122.553 629.704 122.9 629.132 123.119C628.564 123.343 627.931 123.455 627.234 123.455ZM627.189 118.659C627.727 118.659 628.181 118.536 628.553 118.29C628.924 118.044 629.206 117.689 629.399 117.227C629.592 116.765 629.689 116.212 629.689 115.568C629.689 114.939 629.594 114.384 629.405 113.903C629.215 113.422 628.935 113.045 628.564 112.773C628.193 112.5 627.734 112.364 627.189 112.364C626.621 112.364 626.147 112.508 625.768 112.795C625.393 113.083 625.111 113.47 624.922 113.955C624.736 114.439 624.643 114.977 624.643 115.568C624.643 116.174 624.738 116.71 624.928 117.176C625.121 117.638 625.405 118.002 625.78 118.267C626.159 118.528 626.628 118.659 627.189 118.659ZM638.962 116.432V111.273H640.303V120H638.962V118.523H638.871C638.666 118.966 638.348 119.343 637.916 119.653C637.484 119.96 636.939 120.114 636.28 120.114C635.734 120.114 635.25 119.994 634.825 119.756C634.401 119.513 634.068 119.15 633.825 118.665C633.583 118.176 633.462 117.561 633.462 116.818V111.273H634.803V116.727C634.803 117.364 634.981 117.871 635.337 118.25C635.696 118.629 636.155 118.818 636.712 118.818C637.045 118.818 637.384 118.733 637.729 118.562C638.077 118.392 638.369 118.131 638.604 117.778C638.842 117.426 638.962 116.977 638.962 116.432ZM644.099 108.364V120H642.759V108.364H644.099ZM649.124 120.205C648.571 120.205 648.069 120.1 647.618 119.892C647.167 119.68 646.809 119.375 646.544 118.977C646.279 118.576 646.146 118.091 646.146 117.523C646.146 117.023 646.245 116.617 646.442 116.307C646.639 115.992 646.902 115.746 647.232 115.568C647.561 115.39 647.925 115.258 648.322 115.17C648.724 115.08 649.127 115.008 649.533 114.955C650.063 114.886 650.493 114.835 650.822 114.801C651.156 114.763 651.398 114.701 651.55 114.614C651.705 114.527 651.783 114.375 651.783 114.159V114.114C651.783 113.553 651.629 113.117 651.322 112.807C651.019 112.496 650.559 112.341 649.942 112.341C649.302 112.341 648.8 112.481 648.436 112.761C648.072 113.042 647.817 113.341 647.669 113.659L646.396 113.205C646.624 112.674 646.927 112.261 647.305 111.966C647.688 111.667 648.105 111.458 648.555 111.341C649.01 111.22 649.457 111.159 649.896 111.159C650.177 111.159 650.499 111.193 650.862 111.261C651.23 111.326 651.584 111.46 651.925 111.665C652.269 111.869 652.555 112.178 652.783 112.591C653.01 113.004 653.124 113.557 653.124 114.25V120H651.783V118.818H651.714C651.624 119.008 651.472 119.21 651.26 119.426C651.048 119.642 650.766 119.826 650.413 119.977C650.061 120.129 649.631 120.205 649.124 120.205ZM649.328 119C649.858 119 650.305 118.896 650.669 118.688C651.036 118.479 651.313 118.21 651.499 117.881C651.688 117.551 651.783 117.205 651.783 116.841V115.614C651.726 115.682 651.601 115.744 651.408 115.801C651.218 115.854 650.999 115.902 650.749 115.943C650.502 115.981 650.262 116.015 650.027 116.045C649.796 116.072 649.608 116.095 649.464 116.114C649.116 116.159 648.79 116.233 648.487 116.335C648.188 116.434 647.946 116.583 647.76 116.784C647.578 116.981 647.487 117.25 647.487 117.591C647.487 118.057 647.66 118.409 648.004 118.648C648.353 118.883 648.794 119 649.328 119ZM655.571 120V111.273H656.866V112.591H656.957C657.116 112.159 657.404 111.809 657.821 111.54C658.238 111.271 658.707 111.136 659.23 111.136C659.329 111.136 659.452 111.138 659.599 111.142C659.747 111.146 659.859 111.152 659.935 111.159V112.523C659.889 112.511 659.785 112.494 659.622 112.472C659.463 112.445 659.295 112.432 659.116 112.432C658.692 112.432 658.313 112.521 657.98 112.699C657.651 112.873 657.389 113.116 657.196 113.426C657.007 113.733 656.912 114.083 656.912 114.477V120H655.571Z" fill="white" fill-opacity="0.95"/>
</g>
<rect x="0.5" y="0.5" width="767" height="135" rx="23.5" stroke="white" stroke-opacity="0.3"/>
<defs>
<clipPath id="clip0_1637_12192">
<rect width="768" height="136" rx="24" fill="white"/>
</clipPath>
</defs>
</svg>
