<svg width="1300" height="62" viewBox="0 0 1300 62" fill="none" xmlns="http://www.w3.org/2000/svg">
<mask id="path-1-inside-1_1703_15700" fill="white">
<path d="M0 0H320V62H0V0Z"/>
</mask>
<path d="M0 0H320V62H0V0Z" fill="#1A1A1A"/>
<path d="M319 0V62H321V0H319Z" fill="#707070" mask="url(#path-1-inside-1_1703_15700)"/>
<mask id="path-3-inside-2_1703_15700" fill="white">
<path d="M320 0H600V62H320V0Z"/>
</mask>
<path d="M320 0H600V62H320V0Z" fill="#1A1A1A"/>
<path d="M600 62V63H601V62H600ZM599 0V62H601V0H599ZM600 61H320V63H600V61Z" fill="#707070" mask="url(#path-3-inside-2_1703_15700)"/>
<path d="M359.716 27.0909C359.631 26.3712 359.285 25.8125 358.679 25.4148C358.073 25.017 357.33 24.8182 356.449 24.8182C355.805 24.8182 355.241 24.9223 354.759 25.1307C354.28 25.339 353.906 25.6255 353.636 25.9901C353.371 26.3546 353.239 26.7689 353.239 27.233C353.239 27.6212 353.331 27.955 353.516 28.2344C353.705 28.509 353.946 28.7386 354.24 28.9233C354.534 29.1032 354.841 29.2524 355.163 29.3707C355.485 29.4844 355.781 29.5767 356.051 29.6477L357.528 30.0455C357.907 30.1449 358.329 30.2822 358.793 30.4574C359.261 30.6326 359.709 30.8717 360.135 31.1747C360.566 31.473 360.921 31.8565 361.2 32.3253C361.48 32.794 361.619 33.3693 361.619 34.0511C361.619 34.8371 361.413 35.5473 361.001 36.1818C360.594 36.8163 359.998 37.3205 359.212 37.6946C358.43 38.0687 357.481 38.2557 356.364 38.2557C355.322 38.2557 354.42 38.0876 353.658 37.7514C352.9 37.4152 352.304 36.9465 351.868 36.3452C351.437 35.7438 351.193 35.0455 351.136 34.25H352.955C353.002 34.7992 353.187 35.2538 353.509 35.6136C353.835 35.9687 354.247 36.2339 354.744 36.4091C355.246 36.5795 355.786 36.6648 356.364 36.6648C357.036 36.6648 357.64 36.5559 358.175 36.3381C358.71 36.1155 359.134 35.8078 359.446 35.4148C359.759 35.017 359.915 34.553 359.915 34.0227C359.915 33.5398 359.78 33.1468 359.51 32.8438C359.24 32.5407 358.885 32.2945 358.445 32.1051C358.004 31.9157 357.528 31.75 357.017 31.608L355.227 31.0966C354.091 30.7699 353.191 30.3035 352.528 29.6974C351.866 29.0914 351.534 28.2983 351.534 27.3182C351.534 26.5038 351.754 25.7936 352.195 25.1875C352.64 24.5767 353.236 24.1032 353.984 23.767C354.737 23.4261 355.578 23.2557 356.506 23.2557C357.443 23.2557 358.277 23.4238 359.006 23.7599C359.735 24.0914 360.313 24.5459 360.739 25.1236C361.17 25.7012 361.397 26.357 361.42 27.0909H359.716ZM371.163 33.5398V27.0909H372.839V38H371.163V36.1534H371.049C370.794 36.7074 370.396 37.1785 369.856 37.5668C369.316 37.9503 368.635 38.142 367.811 38.142C367.129 38.142 366.523 37.9929 365.993 37.6946C365.462 37.3916 365.046 36.937 364.743 36.331C364.44 35.7202 364.288 34.9508 364.288 34.0227V27.0909H365.964V33.9091C365.964 34.7045 366.187 35.339 366.632 35.8125C367.082 36.286 367.654 36.5227 368.35 36.5227C368.767 36.5227 369.191 36.4162 369.622 36.2031C370.057 35.9901 370.422 35.6634 370.716 35.223C371.014 34.7827 371.163 34.2216 371.163 33.5398ZM376.136 38V23.4545H377.812V28.8239H377.955C378.078 28.6345 378.248 28.393 378.466 28.0994C378.688 27.8011 379.006 27.536 379.418 27.304C379.834 27.0672 380.398 26.9489 381.108 26.9489C382.027 26.9489 382.836 27.1785 383.537 27.6378C384.238 28.0971 384.785 28.7481 385.178 29.5909C385.571 30.4337 385.767 31.428 385.767 32.5739C385.767 33.7292 385.571 34.7306 385.178 35.5781C384.785 36.4209 384.24 37.0743 383.544 37.5384C382.848 37.9976 382.045 38.2273 381.136 38.2273C380.436 38.2273 379.875 38.1113 379.453 37.8793C379.032 37.6425 378.707 37.375 378.48 37.0767C378.253 36.7737 378.078 36.5227 377.955 36.3239H377.756V38H376.136ZM377.784 32.5455C377.784 33.3693 377.905 34.0961 378.146 34.7259C378.388 35.3509 378.741 35.8409 379.205 36.196C379.669 36.5464 380.237 36.7216 380.909 36.7216C381.61 36.7216 382.195 36.5369 382.663 36.1676C383.137 35.7936 383.492 35.2917 383.729 34.6619C383.97 34.0275 384.091 33.322 384.091 32.5455C384.091 31.7784 383.973 31.0871 383.736 30.4716C383.504 29.8513 383.151 29.3613 382.678 29.0014C382.209 28.6368 381.619 28.4545 380.909 28.4545C380.227 28.4545 379.654 28.6274 379.19 28.973C378.726 29.3139 378.376 29.7921 378.139 30.4077C377.902 31.0185 377.784 31.7311 377.784 32.5455ZM390.007 23.4545V38H388.331V23.4545H390.007ZM393.077 38V27.0909H394.753V38H393.077ZM393.929 25.2727C393.603 25.2727 393.321 25.1615 393.084 24.9389C392.852 24.7164 392.736 24.4489 392.736 24.1364C392.736 23.8239 392.852 23.5563 393.084 23.3338C393.321 23.1113 393.603 23 393.929 23C394.256 23 394.535 23.1113 394.767 23.3338C395.004 23.5563 395.123 23.8239 395.123 24.1364C395.123 24.4489 395.004 24.7164 394.767 24.9389C394.535 25.1615 394.256 25.2727 393.929 25.2727ZM399.499 31.4375V38H397.823V27.0909H399.442V28.7955H399.585C399.84 28.2415 400.228 27.7964 400.749 27.4602C401.27 27.1193 401.942 26.9489 402.766 26.9489C403.505 26.9489 404.151 27.1004 404.705 27.4034C405.259 27.7017 405.69 28.1562 405.998 28.767C406.306 29.3731 406.46 30.1402 406.46 31.0682V38H404.783V31.1818C404.783 30.3248 404.561 29.6572 404.116 29.179C403.671 28.696 403.06 28.4545 402.283 28.4545C401.748 28.4545 401.27 28.5705 400.849 28.8026C400.432 29.0346 400.103 29.3731 399.862 29.8182C399.62 30.2633 399.499 30.803 399.499 31.4375ZM414.096 38.2273C413.045 38.2273 412.138 37.9953 411.376 37.5312C410.618 37.0625 410.034 36.4091 409.622 35.571C409.215 34.7282 409.011 33.7481 409.011 32.6307C409.011 31.5133 409.215 30.5284 409.622 29.6761C410.034 28.8191 410.607 28.1515 411.341 27.6733C412.079 27.1903 412.941 26.9489 413.926 26.9489C414.494 26.9489 415.055 27.0436 415.609 27.233C416.163 27.4223 416.667 27.7301 417.122 28.1562C417.576 28.5777 417.939 29.1364 418.208 29.8324C418.478 30.5284 418.613 31.3854 418.613 32.4034V33.1136H410.204V31.6648H416.909C416.909 31.0492 416.786 30.5 416.539 30.017C416.298 29.5341 415.952 29.1529 415.502 28.8736C415.057 28.5942 414.532 28.4545 413.926 28.4545C413.258 28.4545 412.681 28.6203 412.193 28.9517C411.71 29.2784 411.338 29.7045 411.078 30.2301C410.817 30.7557 410.687 31.3191 410.687 31.9205V32.8864C410.687 33.7102 410.829 34.4086 411.113 34.9815C411.402 35.5497 411.802 35.983 412.314 36.2812C412.825 36.5748 413.419 36.7216 414.096 36.7216C414.537 36.7216 414.934 36.66 415.289 36.5369C415.649 36.4091 415.959 36.2197 416.22 35.9688C416.48 35.7131 416.681 35.3958 416.824 35.017L418.443 35.4716C418.272 36.0208 417.986 36.5038 417.583 36.9205C417.181 37.3324 416.684 37.6544 416.092 37.8864C415.5 38.1136 414.835 38.2273 414.096 38.2273Z" fill="white" fill-opacity="0.95"/>
<mask id="path-6-inside-3_1703_15700" fill="white">
<path d="M600 0H900V62H600V0Z"/>
</mask>
<path d="M600 0H900V62H600V0Z" fill="#1A1A1A"/>
<path d="M900 62V63H901V62H900ZM899 0V62H901V0H899ZM900 61H600V63H900V61Z" fill="#707070" mask="url(#path-6-inside-3_1703_15700)"/>
<path d="M643.466 28H641.705C641.6 27.4934 641.418 27.0483 641.158 26.6648C640.902 26.2812 640.589 25.9593 640.22 25.6989C639.856 25.4337 639.451 25.2348 639.006 25.1023C638.561 24.9697 638.097 24.9034 637.614 24.9034C636.733 24.9034 635.935 25.1259 635.22 25.571C634.51 26.0161 633.944 26.6719 633.523 27.5384C633.106 28.4048 632.898 29.4678 632.898 30.7273C632.898 31.9867 633.106 33.0497 633.523 33.9162C633.944 34.7827 634.51 35.4384 635.22 35.8835C635.935 36.3286 636.733 36.5511 637.614 36.5511C638.097 36.5511 638.561 36.4848 639.006 36.3523C639.451 36.2197 639.856 36.0232 640.22 35.7628C640.589 35.4976 640.902 35.1733 641.158 34.7898C641.418 34.4015 641.6 33.9564 641.705 33.4545H643.466C643.333 34.1979 643.092 34.8632 642.741 35.4503C642.391 36.0374 641.955 36.5369 641.435 36.9489C640.914 37.3561 640.329 37.6662 639.68 37.8793C639.036 38.0923 638.348 38.1989 637.614 38.1989C636.373 38.1989 635.27 37.8958 634.304 37.2898C633.338 36.6837 632.578 35.822 632.024 34.7045C631.47 33.5871 631.193 32.2614 631.193 30.7273C631.193 29.1932 631.47 27.8674 632.024 26.75C632.578 25.6326 633.338 24.7708 634.304 24.1648C635.27 23.5587 636.373 23.2557 637.614 23.2557C638.348 23.2557 639.036 23.3622 639.68 23.5753C640.329 23.7884 640.914 24.1009 641.435 24.5128C641.955 24.92 642.391 25.4171 642.741 26.0043C643.092 26.5866 643.333 27.2519 643.466 28ZM650.517 38.2273C649.532 38.2273 648.668 37.9929 647.924 37.5241C647.186 37.0554 646.608 36.3996 646.191 35.5568C645.779 34.714 645.574 33.7292 645.574 32.6023C645.574 31.4659 645.779 30.474 646.191 29.6264C646.608 28.7789 647.186 28.1207 647.924 27.652C648.668 27.1832 649.532 26.9489 650.517 26.9489C651.502 26.9489 652.363 27.1832 653.102 27.652C653.845 28.1207 654.423 28.7789 654.835 29.6264C655.252 30.474 655.46 31.4659 655.46 32.6023C655.46 33.7292 655.252 34.714 654.835 35.5568C654.423 36.3996 653.845 37.0554 653.102 37.5241C652.363 37.9929 651.502 38.2273 650.517 38.2273ZM650.517 36.7216C651.265 36.7216 651.88 36.5298 652.363 36.1463C652.846 35.7628 653.204 35.2585 653.436 34.6335C653.668 34.0085 653.784 33.3314 653.784 32.6023C653.784 31.8731 653.668 31.1937 653.436 30.5639C653.204 29.9342 652.846 29.4252 652.363 29.0369C651.88 28.6487 651.265 28.4545 650.517 28.4545C649.769 28.4545 649.153 28.6487 648.67 29.0369C648.187 29.4252 647.83 29.9342 647.598 30.5639C647.366 31.1937 647.25 31.8731 647.25 32.6023C647.25 33.3314 647.366 34.0085 647.598 34.6335C647.83 35.2585 648.187 35.7628 648.67 36.1463C649.153 36.5298 649.769 36.7216 650.517 36.7216ZM659.695 23.4545V38H658.018V23.4545H659.695ZM667.196 38.2273C666.212 38.2273 665.347 37.9929 664.604 37.5241C663.865 37.0554 663.288 36.3996 662.871 35.5568C662.459 34.714 662.253 33.7292 662.253 32.6023C662.253 31.4659 662.459 30.474 662.871 29.6264C663.288 28.7789 663.865 28.1207 664.604 27.652C665.347 27.1832 666.212 26.9489 667.196 26.9489C668.181 26.9489 669.043 27.1832 669.782 27.652C670.525 28.1207 671.103 28.7789 671.515 29.6264C671.931 30.474 672.14 31.4659 672.14 32.6023C672.14 33.7292 671.931 34.714 671.515 35.5568C671.103 36.3996 670.525 37.0554 669.782 37.5241C669.043 37.9929 668.181 38.2273 667.196 38.2273ZM667.196 36.7216C667.944 36.7216 668.56 36.5298 669.043 36.1463C669.526 35.7628 669.883 35.2585 670.115 34.6335C670.347 34.0085 670.463 33.3314 670.463 32.6023C670.463 31.8731 670.347 31.1937 670.115 30.5639C669.883 29.9342 669.526 29.4252 669.043 29.0369C668.56 28.6487 667.944 28.4545 667.196 28.4545C666.448 28.4545 665.833 28.6487 665.35 29.0369C664.867 29.4252 664.509 29.9342 664.277 30.5639C664.045 31.1937 663.929 31.8731 663.929 32.6023C663.929 33.3314 664.045 34.0085 664.277 34.6335C664.509 35.2585 664.867 35.7628 665.35 36.1463C665.833 36.5298 666.448 36.7216 667.196 36.7216ZM674.698 38V27.0909H676.317V28.7386H676.431C676.63 28.1989 676.99 27.7609 677.511 27.4247C678.031 27.0885 678.619 26.9205 679.272 26.9205C679.395 26.9205 679.549 26.9228 679.734 26.9276C679.918 26.9323 680.058 26.9394 680.153 26.9489V28.6534C680.096 28.6392 679.966 28.6179 679.762 28.5895C679.563 28.5563 679.353 28.5398 679.13 28.5398C678.6 28.5398 678.126 28.651 677.71 28.8736C677.298 29.0914 676.971 29.3944 676.729 29.7827C676.493 30.1662 676.374 30.6042 676.374 31.0966V38H674.698Z" fill="white" fill-opacity="0.95"/>
<mask id="path-9-inside-4_1703_15700" fill="white">
<path d="M900 0H1300V62H900V0Z"/>
</mask>
<path d="M900 0H1300V62H900V0Z" fill="#1A1A1A"/>
<path d="M1300 61H900V63H1300V61Z" fill="#707070" mask="url(#path-9-inside-4_1703_15700)"/>
<path d="M934.832 34.768V36.08C934.437 36.1867 934.059 36.24 933.696 36.24C932.928 36.24 932.352 36 931.968 35.52C931.637 35.1253 931.472 34.5973 931.472 33.936V28.992H930.24V27.68H931.472L931.568 25.68H933.008V27.68H934.8V28.992H933.008V33.968C933.008 34.5867 933.301 34.896 933.888 34.896C934.165 34.896 934.48 34.8533 934.832 34.768ZM938.132 36H936.596V24.48H938.132V28.624C938.74 27.8347 939.551 27.44 940.564 27.44C941.546 27.44 942.298 27.744 942.82 28.352C943.279 28.896 943.508 29.6373 943.508 30.576V36H941.972V30.592C941.972 29.3653 941.38 28.752 940.196 28.752C939.567 28.752 939.055 28.9707 938.66 29.408C938.308 29.8027 938.132 30.3093 938.132 30.928V36ZM951.658 33.6H953.322C953.088 34.4427 952.624 35.104 951.93 35.584C951.28 36.0213 950.501 36.24 949.594 36.24C948.282 36.24 947.258 35.824 946.522 34.992C945.85 34.2133 945.514 33.1627 945.514 31.84C945.514 30.336 945.941 29.1947 946.794 28.416C947.498 27.7653 948.405 27.44 949.514 27.44C950.816 27.44 951.797 27.8613 952.458 28.704C953.098 29.5147 953.418 30.672 953.418 32.176H947.082C947.146 33.1573 947.445 33.888 947.978 34.368C948.416 34.752 948.97 34.944 949.642 34.944C950.165 34.944 950.618 34.8 951.002 34.512C951.322 34.2667 951.541 33.9627 951.658 33.6ZM949.546 28.672C948.864 28.672 948.314 28.8853 947.898 29.312C947.504 29.7067 947.253 30.256 947.146 30.96H951.85C951.797 30.16 951.53 29.5627 951.05 29.168C950.666 28.8373 950.165 28.672 949.546 28.672ZM957.116 36H955.58V27.68H956.844L957.004 28.656C957.569 27.8453 958.385 27.44 959.452 27.44C960.615 27.44 961.431 27.8773 961.9 28.752C962.455 27.8773 963.356 27.44 964.604 27.44C965.532 27.44 966.247 27.7227 966.748 28.288C967.196 28.8107 967.42 29.5253 967.42 30.432V36H965.884V30.544C965.884 29.3493 965.345 28.752 964.268 28.752C963.628 28.752 963.116 29.0027 962.732 29.504C962.423 29.9093 962.268 30.384 962.268 30.928V36H960.732V30.544C960.732 29.3493 960.193 28.752 959.116 28.752C958.519 28.752 958.023 28.9867 957.628 29.456C957.287 29.8507 957.116 30.3253 957.116 30.88V36ZM975.564 33.6H977.228C976.993 34.4427 976.529 35.104 975.836 35.584C975.185 36.0213 974.407 36.24 973.5 36.24C972.188 36.24 971.164 35.824 970.428 34.992C969.756 34.2133 969.42 33.1627 969.42 31.84C969.42 30.336 969.847 29.1947 970.7 28.416C971.404 27.7653 972.311 27.44 973.42 27.44C974.721 27.44 975.703 27.8613 976.364 28.704C977.004 29.5147 977.324 30.672 977.324 32.176H970.988C971.052 33.1573 971.351 33.888 971.884 34.368C972.321 34.752 972.876 34.944 973.548 34.944C974.071 34.944 974.524 34.8 974.908 34.512C975.228 34.2667 975.447 33.9627 975.564 33.6ZM973.452 28.672C972.769 28.672 972.22 28.8853 971.804 29.312C971.409 29.7067 971.159 30.256 971.052 30.96H975.756C975.703 30.16 975.436 29.5627 974.956 29.168C974.572 28.8373 974.071 28.672 973.452 28.672ZM978.846 37.44L982.83 24.24H984.286L980.302 37.44H978.846ZM987.748 36H986.212V27.68H987.476L987.652 28.736C988.271 27.872 989.113 27.44 990.18 27.44C991.161 27.44 991.913 27.744 992.436 28.352C992.895 28.896 993.124 29.6373 993.124 30.576V36H991.588V30.592C991.588 29.3653 990.996 28.752 989.812 28.752C989.193 28.752 988.687 28.9653 988.292 29.392C987.929 29.776 987.748 30.2667 987.748 30.864V36ZM1001.27 33.6H1002.94C1002.7 34.4427 1002.24 35.104 1001.55 35.584C1000.9 36.0213 1000.12 36.24 999.21 36.24C997.898 36.24 996.874 35.824 996.138 34.992C995.466 34.2133 995.13 33.1627 995.13 31.84C995.13 30.336 995.557 29.1947 996.41 28.416C997.114 27.7653 998.021 27.44 999.13 27.44C1000.43 27.44 1001.41 27.8613 1002.07 28.704C1002.71 29.5147 1003.03 30.672 1003.03 32.176H996.698C996.762 33.1573 997.061 33.888 997.594 34.368C998.031 34.752 998.586 34.944 999.258 34.944C999.781 34.944 1000.23 34.8 1000.62 34.512C1000.94 34.2667 1001.16 33.9627 1001.27 33.6ZM999.162 28.672C998.479 28.672 997.93 28.8853 997.514 29.312C997.119 29.7067 996.869 30.256 996.762 30.96H1001.47C1001.41 30.16 1001.15 29.5627 1000.67 29.168C1000.28 28.8373 999.781 28.672 999.162 28.672ZM1005.12 27.68H1006.65V33.136C1006.65 34.3307 1007.23 34.928 1008.38 34.928C1009.08 34.928 1009.62 34.6773 1010 34.176C1010.28 33.792 1010.43 33.3173 1010.43 32.752V27.68H1011.96V36H1010.7L1010.52 35.04C1009.94 35.84 1009.1 36.24 1008.03 36.24C1007.08 36.24 1006.35 35.9467 1005.84 35.36C1005.36 34.816 1005.12 34.064 1005.12 33.104V27.68ZM1018.24 34.768V36.08C1017.85 36.1867 1017.47 36.24 1017.11 36.24C1016.34 36.24 1015.76 36 1015.38 35.52C1015.05 35.1253 1014.88 34.5973 1014.88 33.936V28.992H1013.65V27.68H1014.88L1014.98 25.68H1016.42V27.68H1018.21V28.992H1016.42V33.968C1016.42 34.5867 1016.71 34.896 1017.3 34.896C1017.58 34.896 1017.89 34.8533 1018.24 34.768ZM1021.54 36H1020.01V27.68H1021.27L1021.48 28.912C1021.95 27.9307 1022.65 27.44 1023.59 27.44C1023.9 27.44 1024.2 27.4773 1024.5 27.552V29.088C1024.14 28.992 1023.82 28.944 1023.53 28.944C1022.91 28.944 1022.42 29.1947 1022.07 29.696C1021.72 30.1973 1021.54 30.9067 1021.54 31.824V36ZM1027.34 30H1025.71C1025.8 29.168 1026.19 28.5227 1026.89 28.064C1027.52 27.648 1028.32 27.44 1029.28 27.44C1030.42 27.44 1031.29 27.7387 1031.9 28.336C1032.41 28.848 1032.67 29.5093 1032.67 30.32V36H1031.41L1031.21 34.864C1030.56 35.7813 1029.64 36.24 1028.43 36.24C1027.48 36.24 1026.74 35.984 1026.21 35.472C1025.77 35.0453 1025.55 34.5067 1025.55 33.856C1025.55 33.0347 1025.83 32.4 1026.4 31.952C1026.9 31.5573 1027.67 31.2693 1028.7 31.088L1031.13 30.672V30.256C1031.13 29.712 1030.95 29.3013 1030.57 29.024C1030.24 28.7787 1029.79 28.656 1029.21 28.656C1028.08 28.656 1027.46 29.104 1027.34 30ZM1028.8 34.944C1029.45 34.944 1030.01 34.7307 1030.49 34.304C1030.92 33.9093 1031.13 33.456 1031.13 32.944V31.872L1029.07 32.24C1028.31 32.368 1027.8 32.5653 1027.52 32.832C1027.29 33.0453 1027.18 33.3333 1027.18 33.696C1027.18 34.1013 1027.32 34.4107 1027.6 34.624C1027.88 34.8373 1028.28 34.944 1028.8 34.944ZM1036.68 24.48V36H1035.15V24.48H1036.68ZM1038.61 37.44L1042.59 24.24H1044.05L1040.06 37.44H1038.61ZM1049.69 34.768V36.08C1049.29 36.1867 1048.91 36.24 1048.55 36.24C1047.78 36.24 1047.21 36 1046.82 35.52C1046.49 35.1253 1046.33 34.5973 1046.33 33.936V28.992H1045.1V27.68H1046.33L1046.42 25.68H1047.86V27.68H1049.66V28.992H1047.86V33.968C1047.86 34.5867 1048.16 34.896 1048.74 34.896C1049.02 34.896 1049.34 34.8533 1049.69 34.768ZM1057.04 33.6H1058.7C1058.47 34.4427 1058 35.104 1057.31 35.584C1056.66 36.0213 1055.88 36.24 1054.97 36.24C1053.66 36.24 1052.64 35.824 1051.9 34.992C1051.23 34.2133 1050.89 33.1627 1050.89 31.84C1050.89 30.336 1051.32 29.1947 1052.17 28.416C1052.88 27.7653 1053.78 27.44 1054.89 27.44C1056.19 27.44 1057.18 27.8613 1057.84 28.704C1058.48 29.5147 1058.8 30.672 1058.8 32.176H1052.46C1052.53 33.1573 1052.82 33.888 1053.36 34.368C1053.79 34.752 1054.35 34.944 1055.02 34.944C1055.54 34.944 1056 34.8 1056.38 34.512C1056.7 34.2667 1056.92 33.9627 1057.04 33.6ZM1054.93 28.672C1054.24 28.672 1053.69 28.8853 1053.28 29.312C1052.88 29.7067 1052.63 30.256 1052.53 30.96H1057.23C1057.18 30.16 1056.91 29.5627 1056.43 29.168C1056.05 28.8373 1055.54 28.672 1054.93 28.672ZM1067.66 27.68L1064.88 31.568L1068.14 36H1066.27L1064.01 32.784L1061.81 36H1060L1063.1 31.68L1060.19 27.68H1062.03L1064.01 30.48L1065.9 27.68H1067.66ZM1073.46 34.768V36.08C1073.06 36.1867 1072.69 36.24 1072.32 36.24C1071.56 36.24 1070.98 36 1070.6 35.52C1070.26 35.1253 1070.1 34.5973 1070.1 33.936V28.992H1068.87V27.68H1070.1L1070.2 25.68H1071.64V27.68H1073.43V28.992H1071.64V33.968C1071.64 34.5867 1071.93 34.896 1072.52 34.896C1072.79 34.896 1073.11 34.8533 1073.46 34.768ZM1074.58 37.44L1078.57 24.24H1080.02L1076.04 37.44H1074.58ZM1081.95 27.68H1083.21L1083.45 28.768C1084.14 27.8827 1085.08 27.44 1086.27 27.44C1087.46 27.44 1088.39 27.8667 1089.05 28.72C1089.64 29.488 1089.93 30.5067 1089.93 31.776C1089.93 33.28 1089.53 34.432 1088.73 35.232C1088.06 35.904 1087.2 36.24 1086.16 36.24C1084.97 36.24 1084.08 35.8027 1083.49 34.928V38.88H1081.95V27.68ZM1088.33 31.744C1088.33 30.6987 1088.07 29.9147 1087.55 29.392C1087.13 28.9653 1086.59 28.752 1085.92 28.752C1085.14 28.752 1084.52 29.0347 1084.06 29.6C1083.62 30.144 1083.41 30.8587 1083.41 31.744C1083.41 32.8107 1083.67 33.6267 1084.19 34.192C1084.63 34.6827 1085.2 34.928 1085.92 34.928C1086.72 34.928 1087.33 34.6347 1087.74 34.048C1088.14 33.504 1088.33 32.736 1088.33 31.744ZM1093.56 36H1092.02V27.68H1093.28L1093.49 28.912C1093.96 27.9307 1094.67 27.44 1095.6 27.44C1095.91 27.44 1096.22 27.4773 1096.52 27.552V29.088C1096.15 28.992 1095.83 28.944 1095.54 28.944C1094.92 28.944 1094.44 29.1947 1094.08 29.696C1093.73 30.1973 1093.56 30.9067 1093.56 31.824V36ZM1099.68 26.288H1097.95V24.48H1099.68V26.288ZM1099.58 36H1098.04V27.68H1099.58V36ZM1103.68 36H1102.14V27.68H1103.41L1103.57 28.656C1104.13 27.8453 1104.95 27.44 1106.02 27.44C1107.18 27.44 1108 27.8773 1108.46 28.752C1109.02 27.8773 1109.92 27.44 1111.17 27.44C1112.1 27.44 1112.81 27.7227 1113.31 28.288C1113.76 28.8107 1113.98 29.5253 1113.98 30.432V36H1112.45V30.544C1112.45 29.3493 1111.91 28.752 1110.83 28.752C1110.19 28.752 1109.68 29.0027 1109.3 29.504C1108.99 29.9093 1108.83 30.384 1108.83 30.928V36H1107.3V30.544C1107.3 29.3493 1106.76 28.752 1105.68 28.752C1105.08 28.752 1104.59 28.9867 1104.19 29.456C1103.85 29.8507 1103.68 30.3253 1103.68 30.88V36ZM1117.78 30H1116.14C1116.23 29.168 1116.62 28.5227 1117.33 28.064C1117.96 27.648 1118.75 27.44 1119.71 27.44C1120.85 27.44 1121.73 27.7387 1122.34 28.336C1122.85 28.848 1123.1 29.5093 1123.1 30.32V36H1121.84L1121.65 34.864C1121 35.7813 1120.07 36.24 1118.86 36.24C1117.92 36.24 1117.17 35.984 1116.64 35.472C1116.2 35.0453 1115.98 34.5067 1115.98 33.856C1115.98 33.0347 1116.27 32.4 1116.83 31.952C1117.33 31.5573 1118.1 31.2693 1119.14 31.088L1121.57 30.672V30.256C1121.57 29.712 1121.38 29.3013 1121.01 29.024C1120.68 28.7787 1120.22 28.656 1119.65 28.656C1118.52 28.656 1117.89 29.104 1117.78 30ZM1119.23 34.944C1119.88 34.944 1120.45 34.7307 1120.93 34.304C1121.36 33.9093 1121.57 33.456 1121.57 32.944V31.872L1119.5 32.24C1118.75 32.368 1118.23 32.5653 1117.95 32.832C1117.73 33.0453 1117.62 33.3333 1117.62 33.696C1117.62 34.1013 1117.76 34.4107 1118.03 34.624C1118.31 34.8373 1118.71 34.944 1119.23 34.944ZM1127.12 36H1125.58V27.68H1126.85L1127.05 28.912C1127.52 27.9307 1128.23 27.44 1129.17 27.44C1129.47 27.44 1129.78 27.4773 1130.08 27.552V29.088C1129.71 28.992 1129.39 28.944 1129.1 28.944C1128.48 28.944 1128 29.1947 1127.65 29.696C1127.29 30.1973 1127.12 30.9067 1127.12 31.824V36ZM1138.55 27.68L1135.65 36.112C1135.27 37.232 1134.9 37.9947 1134.55 38.4C1134.13 38.88 1133.59 39.12 1132.93 39.12C1132.66 39.12 1132.32 39.072 1131.94 38.976V37.728C1132.24 37.8027 1132.51 37.84 1132.74 37.84C1133.07 37.84 1133.33 37.7227 1133.51 37.488C1133.69 37.264 1133.92 36.768 1134.2 36H1133.7L1130.64 27.68H1132.31L1134.66 34.752L1137.01 27.68H1138.55ZM1139.5 37.44L1143.49 24.24H1144.94L1140.96 37.44H1139.5ZM1154.37 36H1153.11L1152.84 34.832C1152.2 35.7707 1151.27 36.24 1150.07 36.24C1148.91 36.24 1147.99 35.8187 1147.32 34.976C1146.7 34.1973 1146.39 33.168 1146.39 31.888C1146.39 30.3413 1146.78 29.1787 1147.57 28.4C1148.23 27.76 1149.1 27.44 1150.17 27.44C1151.32 27.44 1152.21 27.872 1152.84 28.736V24.48H1154.37V36ZM1147.99 31.92C1147.99 32.9547 1148.25 33.7387 1148.76 34.272C1149.18 34.7093 1149.73 34.928 1150.41 34.928C1151.24 34.928 1151.88 34.6133 1152.34 33.984C1152.73 33.44 1152.92 32.7573 1152.92 31.936C1152.92 30.8587 1152.66 30.0373 1152.15 29.472C1151.71 28.992 1151.13 28.752 1150.41 28.752C1149.59 28.752 1148.98 29.0453 1148.57 29.632C1148.18 30.1653 1147.99 30.928 1147.99 31.92ZM1162.6 33.6H1164.27C1164.03 34.4427 1163.57 35.104 1162.88 35.584C1162.22 36.0213 1161.45 36.24 1160.54 36.24C1159.23 36.24 1158.2 35.824 1157.47 34.992C1156.8 34.2133 1156.46 33.1627 1156.46 31.84C1156.46 30.336 1156.89 29.1947 1157.74 28.416C1158.44 27.7653 1159.35 27.44 1160.46 27.44C1161.76 27.44 1162.74 27.8613 1163.4 28.704C1164.04 29.5147 1164.36 30.672 1164.36 32.176H1158.03C1158.09 33.1573 1158.39 33.888 1158.92 34.368C1159.36 34.752 1159.92 34.944 1160.59 34.944C1161.11 34.944 1161.56 34.8 1161.95 34.512C1162.27 34.2667 1162.49 33.9627 1162.6 33.6ZM1160.49 28.672C1159.81 28.672 1159.26 28.8853 1158.84 29.312C1158.45 29.7067 1158.2 30.256 1158.09 30.96H1162.8C1162.74 30.16 1162.48 29.5627 1162 29.168C1161.61 28.8373 1161.11 28.672 1160.49 28.672ZM1170.64 24.432V25.76C1170.12 25.632 1169.7 25.568 1169.37 25.568C1169.1 25.568 1168.88 25.6427 1168.72 25.792C1168.57 25.9413 1168.49 26.1493 1168.49 26.416V27.68H1170.28V28.992H1168.49V36H1166.96V28.992H1165.72V27.68H1166.96V26.512C1166.96 25.776 1167.2 25.2 1167.68 24.784C1168.1 24.4213 1168.64 24.24 1169.28 24.24C1169.69 24.24 1170.15 24.304 1170.64 24.432ZM1173.31 30H1171.68C1171.77 29.168 1172.16 28.5227 1172.87 28.064C1173.49 27.648 1174.29 27.44 1175.25 27.44C1176.39 27.44 1177.27 27.7387 1177.87 28.336C1178.39 28.848 1178.64 29.5093 1178.64 30.32V36H1177.38L1177.19 34.864C1176.53 35.7813 1175.61 36.24 1174.4 36.24C1173.45 36.24 1172.71 35.984 1172.18 35.472C1171.74 35.0453 1171.52 34.5067 1171.52 33.856C1171.52 33.0347 1171.8 32.4 1172.37 31.952C1172.87 31.5573 1173.64 31.2693 1174.67 31.088L1177.11 30.672V30.256C1177.11 29.712 1176.92 29.3013 1176.55 29.024C1176.21 28.7787 1175.76 28.656 1175.19 28.656C1174.05 28.656 1173.43 29.104 1173.31 30ZM1174.77 34.944C1175.42 34.944 1175.99 34.7307 1176.47 34.304C1176.89 33.9093 1177.11 33.456 1177.11 32.944V31.872L1175.04 32.24C1174.28 32.368 1173.77 32.5653 1173.49 32.832C1173.27 33.0453 1173.15 33.3333 1173.15 33.696C1173.15 34.1013 1173.29 34.4107 1173.57 34.624C1173.85 34.8373 1174.25 34.944 1174.77 34.944ZM1181.04 27.68H1182.57V33.136C1182.57 34.3307 1183.15 34.928 1184.3 34.928C1185.01 34.928 1185.54 34.6773 1185.92 34.176C1186.21 33.792 1186.35 33.3173 1186.35 32.752V27.68H1187.89V36H1186.62L1186.45 35.04C1185.86 35.84 1185.03 36.24 1183.95 36.24C1183 36.24 1182.27 35.9467 1181.76 35.36C1181.28 34.816 1181.04 34.064 1181.04 33.104V27.68ZM1191.99 24.48V36H1190.45V24.48H1191.99ZM1198.27 34.768V36.08C1197.87 36.1867 1197.49 36.24 1197.13 36.24C1196.36 36.24 1195.79 36 1195.4 35.52C1195.07 35.1253 1194.91 34.5973 1194.91 33.936V28.992H1193.67V27.68H1194.91L1195 25.68H1196.44V27.68H1198.23V28.992H1196.44V33.968C1196.44 34.5867 1196.74 34.896 1197.32 34.896C1197.6 34.896 1197.91 34.8533 1198.27 34.768Z" fill="white" fill-opacity="0.95"/>
</svg>
