<svg width="1300" height="62" viewBox="0 0 1300 62" fill="none" xmlns="http://www.w3.org/2000/svg">
<mask id="path-1-inside-1_1703_15670" fill="white">
<path d="M0 0H320V62H0V0Z"/>
</mask>
<path d="M0 0H320V62H0V0Z" fill="#1A1A1A"/>
<path d="M319 0V62H321V0H319Z" fill="#707070" mask="url(#path-1-inside-1_1703_15670)"/>
<mask id="path-3-inside-2_1703_15670" fill="white">
<path d="M320 0H600V62H320V0Z"/>
</mask>
<path d="M320 0H600V62H320V0Z" fill="#1A1A1A"/>
<path d="M600 62V63H601V62H600ZM599 0V62H601V0H599ZM600 61H320V63H600V61Z" fill="#707070" mask="url(#path-3-inside-2_1703_15670)"/>
<path d="M351.761 38V23.4545H353.523V36.4375H360.284V38H351.761ZM367.358 38.2273C366.307 38.2273 365.4 37.9953 364.638 37.5312C363.88 37.0625 363.295 36.4091 362.884 35.571C362.476 34.7282 362.273 33.7481 362.273 32.6307C362.273 31.5133 362.476 30.5284 362.884 29.6761C363.295 28.8191 363.868 28.1515 364.602 27.6733C365.341 27.1903 366.203 26.9489 367.188 26.9489C367.756 26.9489 368.317 27.0436 368.871 27.233C369.425 27.4223 369.929 27.7301 370.384 28.1562C370.838 28.5777 371.2 29.1364 371.47 29.8324C371.74 30.5284 371.875 31.3854 371.875 32.4034V33.1136H363.466V31.6648H370.17C370.17 31.0492 370.047 30.5 369.801 30.017C369.56 29.5341 369.214 29.1529 368.764 28.8736C368.319 28.5942 367.794 28.4545 367.188 28.4545C366.52 28.4545 365.942 28.6203 365.455 28.9517C364.972 29.2784 364.6 29.7045 364.339 30.2301C364.079 30.7557 363.949 31.3191 363.949 31.9205V32.8864C363.949 33.7102 364.091 34.4086 364.375 34.9815C364.664 35.5497 365.064 35.983 365.575 36.2812C366.087 36.5748 366.681 36.7216 367.358 36.7216C367.798 36.7216 368.196 36.66 368.551 36.5369C368.911 36.4091 369.221 36.2197 369.482 35.9688C369.742 35.7131 369.943 35.3958 370.085 35.017L371.705 35.4716C371.534 36.0208 371.248 36.5038 370.845 36.9205C370.443 37.3324 369.946 37.6544 369.354 37.8864C368.762 38.1136 368.097 38.2273 367.358 38.2273ZM379.283 27.0909V28.5114H373.402V27.0909H379.283ZM375.163 38V25.5852C375.163 24.9602 375.31 24.4394 375.604 24.0227C375.897 23.6061 376.278 23.2936 376.747 23.0852C377.216 22.8769 377.711 22.7727 378.232 22.7727C378.643 22.7727 378.98 22.8059 379.24 22.8722C379.5 22.9384 379.695 23 379.822 23.0568L379.339 24.5057C379.254 24.4773 379.136 24.4418 378.984 24.3991C378.838 24.3565 378.643 24.3352 378.402 24.3352C377.848 24.3352 377.448 24.4749 377.202 24.7543C376.96 25.0336 376.839 25.4432 376.839 25.983V38H375.163ZM386.376 27.0909V28.5114H380.723V27.0909H386.376ZM382.37 24.4773H384.047V34.875C384.047 35.3485 384.115 35.7036 384.252 35.9403C384.395 36.1723 384.574 36.3286 384.792 36.4091C385.015 36.4848 385.249 36.5227 385.495 36.5227C385.68 36.5227 385.832 36.5133 385.95 36.4943C386.068 36.4706 386.163 36.4517 386.234 36.4375L386.575 37.9432C386.461 37.9858 386.303 38.0284 386.099 38.071C385.895 38.1184 385.637 38.142 385.325 38.142C384.851 38.142 384.387 38.0402 383.933 37.8366C383.483 37.633 383.109 37.3229 382.811 36.9062C382.517 36.4896 382.37 35.964 382.37 35.3295V24.4773ZM398.954 38.2273C397.931 38.2273 397.051 37.9858 396.312 37.5028C395.574 37.0199 395.005 36.3546 394.608 35.5071C394.21 34.6596 394.011 33.6913 394.011 32.6023C394.011 31.4943 394.215 30.5166 394.622 29.669C395.034 28.8168 395.607 28.1515 396.341 27.6733C397.079 27.1903 397.941 26.9489 398.926 26.9489C399.693 26.9489 400.384 27.0909 401 27.375C401.615 27.6591 402.119 28.0568 402.512 28.5682C402.905 29.0795 403.149 29.6761 403.244 30.358H401.568C401.44 29.8608 401.156 29.4205 400.716 29.0369C400.28 28.6487 399.693 28.4545 398.954 28.4545C398.301 28.4545 397.728 28.625 397.235 28.9659C396.748 29.3021 396.367 29.7779 396.092 30.3935C395.822 31.0043 395.687 31.7216 395.687 32.5455C395.687 33.3883 395.82 34.1222 396.085 34.7472C396.355 35.3722 396.734 35.8575 397.221 36.2031C397.714 36.5488 398.291 36.7216 398.954 36.7216C399.39 36.7216 399.785 36.6458 400.14 36.4943C400.495 36.3428 400.796 36.125 401.042 35.8409C401.288 35.5568 401.464 35.2159 401.568 34.8182H403.244C403.149 35.4621 402.915 36.0421 402.541 36.5582C402.172 37.0696 401.681 37.4768 401.071 37.7798C400.465 38.0781 399.759 38.2273 398.954 38.2273ZM410.126 38.2273C409.141 38.2273 408.277 37.9929 407.534 37.5241C406.795 37.0554 406.217 36.3996 405.801 35.5568C405.389 34.714 405.183 33.7292 405.183 32.6023C405.183 31.4659 405.389 30.474 405.801 29.6264C406.217 28.7789 406.795 28.1207 407.534 27.652C408.277 27.1832 409.141 26.9489 410.126 26.9489C411.111 26.9489 411.973 27.1832 412.711 27.652C413.455 28.1207 414.032 28.7789 414.444 29.6264C414.861 30.474 415.069 31.4659 415.069 32.6023C415.069 33.7292 414.861 34.714 414.444 35.5568C414.032 36.3996 413.455 37.0554 412.711 37.5241C411.973 37.9929 411.111 38.2273 410.126 38.2273ZM410.126 36.7216C410.874 36.7216 411.49 36.5298 411.973 36.1463C412.456 35.7628 412.813 35.2585 413.045 34.6335C413.277 34.0085 413.393 33.3314 413.393 32.6023C413.393 31.8731 413.277 31.1937 413.045 30.5639C412.813 29.9342 412.456 29.4252 411.973 29.0369C411.49 28.6487 410.874 28.4545 410.126 28.4545C409.378 28.4545 408.762 28.6487 408.279 29.0369C407.797 29.4252 407.439 29.9342 407.207 30.5639C406.975 31.1937 406.859 31.8731 406.859 32.6023C406.859 33.3314 406.975 34.0085 407.207 34.6335C407.439 35.2585 407.797 35.7628 408.279 36.1463C408.762 36.5298 409.378 36.7216 410.126 36.7216ZM419.304 31.4375V38H417.628V27.0909H419.247V28.7955H419.389C419.645 28.2415 420.033 27.7964 420.554 27.4602C421.075 27.1193 421.747 26.9489 422.571 26.9489C423.31 26.9489 423.956 27.1004 424.51 27.4034C425.064 27.7017 425.495 28.1562 425.803 28.767C426.11 29.3731 426.264 30.1402 426.264 31.0682V38H424.588V31.1818C424.588 30.3248 424.366 29.6572 423.92 29.179C423.475 28.696 422.865 28.4545 422.088 28.4545C421.553 28.4545 421.075 28.5705 420.653 28.8026C420.237 29.0346 419.908 29.3731 419.666 29.8182C419.425 30.2633 419.304 30.803 419.304 31.4375ZM434.071 27.0909V28.5114H428.418V27.0909H434.071ZM430.066 24.4773H431.742V34.875C431.742 35.3485 431.81 35.7036 431.948 35.9403C432.09 36.1723 432.27 36.3286 432.488 36.4091C432.71 36.4848 432.944 36.5227 433.191 36.5227C433.375 36.5227 433.527 36.5133 433.645 36.4943C433.764 36.4706 433.858 36.4517 433.929 36.4375L434.27 37.9432C434.157 37.9858 433.998 38.0284 433.794 38.071C433.591 38.1184 433.333 38.142 433.02 38.142C432.547 38.142 432.083 38.0402 431.628 37.8366C431.178 37.633 430.804 37.3229 430.506 36.9062C430.212 36.4896 430.066 35.964 430.066 35.3295V24.4773ZM436.593 38V27.0909H438.212V28.7386H438.326C438.525 28.1989 438.884 27.7609 439.405 27.4247C439.926 27.0885 440.513 26.9205 441.167 26.9205C441.29 26.9205 441.444 26.9228 441.628 26.9276C441.813 26.9323 441.953 26.9394 442.047 26.9489V28.6534C441.99 28.6392 441.86 28.6179 441.657 28.5895C441.458 28.5563 441.247 28.5398 441.025 28.5398C440.494 28.5398 440.021 28.651 439.604 28.8736C439.192 29.0914 438.865 29.3944 438.624 29.7827C438.387 30.1662 438.269 30.6042 438.269 31.0966V38H436.593ZM448.134 38.2273C447.149 38.2273 446.285 37.9929 445.542 37.5241C444.803 37.0554 444.225 36.3996 443.809 35.5568C443.397 34.714 443.191 33.7292 443.191 32.6023C443.191 31.4659 443.397 30.474 443.809 29.6264C444.225 28.7789 444.803 28.1207 445.542 27.652C446.285 27.1832 447.149 26.9489 448.134 26.9489C449.119 26.9489 449.98 27.1832 450.719 27.652C451.462 28.1207 452.04 28.7789 452.452 29.6264C452.869 30.474 453.077 31.4659 453.077 32.6023C453.077 33.7292 452.869 34.714 452.452 35.5568C452.04 36.3996 451.462 37.0554 450.719 37.5241C449.98 37.9929 449.119 38.2273 448.134 38.2273ZM448.134 36.7216C448.882 36.7216 449.498 36.5298 449.98 36.1463C450.463 35.7628 450.821 35.2585 451.053 34.6335C451.285 34.0085 451.401 33.3314 451.401 32.6023C451.401 31.8731 451.285 31.1937 451.053 30.5639C450.821 29.9342 450.463 29.4252 449.98 29.0369C449.498 28.6487 448.882 28.4545 448.134 28.4545C447.386 28.4545 446.77 28.6487 446.287 29.0369C445.804 29.4252 445.447 29.9342 445.215 30.5639C444.983 31.1937 444.867 31.8731 444.867 32.6023C444.867 33.3314 444.983 34.0085 445.215 34.6335C445.447 35.2585 445.804 35.7628 446.287 36.1463C446.77 36.5298 447.386 36.7216 448.134 36.7216ZM457.312 23.4545V38H455.636V23.4545H457.312Z" fill="white" fill-opacity="0.95"/>
<mask id="path-6-inside-3_1703_15670" fill="white">
<path d="M600 0H900V62H600V0Z"/>
</mask>
<path d="M600 0H900V62H600V0Z" fill="#1A1A1A"/>
<path d="M900 62V63H901V62H900ZM899 0V62H901V0H899ZM900 61H600V63H900V61Z" fill="#707070" mask="url(#path-6-inside-3_1703_15670)"/>
<path d="M643.295 23.4545V38H641.591L633.665 26.5795H633.523V38H631.761V23.4545H633.466L641.42 34.9034H641.562V23.4545H643.295ZM651.735 22.7727L647.047 40.1875H645.513L650.201 22.7727H651.735ZM654.545 38H652.699L658.04 23.4545H659.858L665.199 38H663.352L659.006 25.7557H658.892L654.545 38ZM655.227 32.3182H662.67V33.8807H655.227V32.3182Z" fill="white" fill-opacity="0.95"/>
<mask id="path-9-inside-4_1703_15670" fill="white">
<path d="M900 0H1300V62H900V0Z"/>
</mask>
<path d="M900 0H1300V62H900V0Z" fill="#1A1A1A"/>
<path d="M1300 61H900V63H1300V61Z" fill="#707070" mask="url(#path-9-inside-4_1703_15670)"/>
<path d="M931.2 24.48H934.944C936.832 24.48 938.267 25.0133 939.248 26.08C940.155 27.0613 940.608 28.448 940.608 30.24C940.608 32.1813 940 33.6693 938.784 34.704C937.76 35.568 936.443 36 934.832 36H931.2V24.48ZM934.96 25.776H932.832V34.656H934.992C936.357 34.656 937.376 34.2293 938.048 33.376C938.656 32.6293 938.96 31.584 938.96 30.24C938.96 28.6613 938.555 27.4933 937.744 26.736C937.061 26.096 936.133 25.776 934.96 25.776ZM948.432 33.6H950.096C949.861 34.4427 949.397 35.104 948.704 35.584C948.053 36.0213 947.275 36.24 946.368 36.24C945.056 36.24 944.032 35.824 943.296 34.992C942.624 34.2133 942.288 33.1627 942.288 31.84C942.288 30.336 942.715 29.1947 943.568 28.416C944.272 27.7653 945.179 27.44 946.288 27.44C947.589 27.44 948.571 27.8613 949.232 28.704C949.872 29.5147 950.192 30.672 950.192 32.176H943.856C943.92 33.1573 944.219 33.888 944.752 34.368C945.189 34.752 945.744 34.944 946.416 34.944C946.939 34.944 947.392 34.8 947.776 34.512C948.096 34.2667 948.315 33.9627 948.432 33.6ZM946.32 28.672C945.637 28.672 945.088 28.8853 944.672 29.312C944.277 29.7067 944.027 30.256 943.92 30.96H948.624C948.571 30.16 948.304 29.5627 947.824 29.168C947.44 28.8373 946.939 28.672 946.32 28.672ZM952.354 27.68H953.618L953.858 28.768C954.54 27.8827 955.479 27.44 956.674 27.44C957.868 27.44 958.796 27.8667 959.458 28.72C960.044 29.488 960.338 30.5067 960.338 31.776C960.338 33.28 959.938 34.432 959.138 35.232C958.466 35.904 957.607 36.24 956.562 36.24C955.378 36.24 954.487 35.8027 953.89 34.928V38.88H952.354V27.68ZM958.738 31.744C958.738 30.6987 958.476 29.9147 957.954 29.392C957.538 28.9653 956.994 28.752 956.322 28.752C955.543 28.752 954.924 29.0347 954.466 29.6C954.028 30.144 953.81 30.8587 953.81 31.744C953.81 32.8107 954.071 33.6267 954.594 34.192C955.031 34.6827 955.607 34.928 956.322 34.928C957.122 34.928 957.73 34.6347 958.146 34.048C958.54 33.504 958.738 32.736 958.738 31.744ZM968.088 33.6H969.752C969.517 34.4427 969.053 35.104 968.36 35.584C967.709 36.0213 966.93 36.24 966.024 36.24C964.712 36.24 963.688 35.824 962.952 34.992C962.28 34.2133 961.944 33.1627 961.944 31.84C961.944 30.336 962.37 29.1947 963.224 28.416C963.928 27.7653 964.834 27.44 965.944 27.44C967.245 27.44 968.226 27.8613 968.888 28.704C969.528 29.5147 969.848 30.672 969.848 32.176H963.512C963.576 33.1573 963.874 33.888 964.408 34.368C964.845 34.752 965.4 34.944 966.072 34.944C966.594 34.944 967.048 34.8 967.432 34.512C967.752 34.2667 967.97 33.9627 968.088 33.6ZM965.976 28.672C965.293 28.672 964.744 28.8853 964.328 29.312C963.933 29.7067 963.682 30.256 963.576 30.96H968.28C968.226 30.16 967.96 29.5627 967.48 29.168C967.096 28.8373 966.594 28.672 965.976 28.672ZM973.545 36H972.009V27.68H973.273L973.449 28.736C974.068 27.872 974.911 27.44 975.977 27.44C976.959 27.44 977.711 27.744 978.233 28.352C978.692 28.896 978.921 29.6373 978.921 30.576V36H977.385V30.592C977.385 29.3653 976.793 28.752 975.609 28.752C974.991 28.752 974.484 28.9653 974.089 29.392C973.727 29.776 973.545 30.2667 973.545 30.864V36ZM988.911 36H987.647L987.375 34.832C986.735 35.7707 985.813 36.24 984.607 36.24C983.445 36.24 982.527 35.8187 981.855 34.976C981.237 34.1973 980.927 33.168 980.927 31.888C980.927 30.3413 981.322 29.1787 982.111 28.4C982.773 27.76 983.637 27.44 984.703 27.44C985.855 27.44 986.746 27.872 987.375 28.736V24.48H988.911V36ZM982.527 31.92C982.527 32.9547 982.783 33.7387 983.295 34.272C983.722 34.7093 984.271 34.928 984.943 34.928C985.775 34.928 986.421 34.6133 986.879 33.984C987.263 33.44 987.455 32.7573 987.455 31.936C987.455 30.8587 987.199 30.0373 986.687 29.472C986.25 28.992 985.669 28.752 984.943 28.752C984.133 28.752 983.519 29.0453 983.103 29.632C982.719 30.1653 982.527 30.928 982.527 31.92ZM997.141 33.6H998.805C998.571 34.4427 998.107 35.104 997.413 35.584C996.763 36.0213 995.984 36.24 995.077 36.24C993.765 36.24 992.741 35.824 992.005 34.992C991.333 34.2133 990.997 33.1627 990.997 31.84C990.997 30.336 991.424 29.1947 992.277 28.416C992.981 27.7653 993.888 27.44 994.997 27.44C996.299 27.44 997.28 27.8613 997.941 28.704C998.581 29.5147 998.901 30.672 998.901 32.176H992.565C992.629 33.1573 992.928 33.888 993.461 34.368C993.899 34.752 994.453 34.944 995.125 34.944C995.648 34.944 996.101 34.8 996.485 34.512C996.805 34.2667 997.024 33.9627 997.141 33.6ZM995.029 28.672C994.347 28.672 993.797 28.8853 993.381 29.312C992.987 29.7067 992.736 30.256 992.629 30.96H997.333C997.28 30.16 997.013 29.5627 996.533 29.168C996.149 28.8373 995.648 28.672 995.029 28.672ZM1002.6 36H1001.06V27.68H1002.33L1002.5 28.736C1003.12 27.872 1003.96 27.44 1005.03 27.44C1006.01 27.44 1006.76 27.744 1007.29 28.352C1007.75 28.896 1007.98 29.6373 1007.98 30.576V36H1006.44V30.592C1006.44 29.3653 1005.85 28.752 1004.66 28.752C1004.04 28.752 1003.54 28.9653 1003.14 29.392C1002.78 29.776 1002.6 30.2667 1002.6 30.864V36ZM1014.17 34.768V36.08C1013.78 36.1867 1013.4 36.24 1013.04 36.24C1012.27 36.24 1011.69 36 1011.31 35.52C1010.98 35.1253 1010.81 34.5973 1010.81 33.936V28.992H1009.58V27.68H1010.81L1010.91 25.68H1012.35V27.68H1014.14V28.992H1012.35V33.968C1012.35 34.5867 1012.64 34.896 1013.23 34.896C1013.51 34.896 1013.82 34.8533 1014.17 34.768ZM1020.57 31.84C1020.57 30.3147 1021.03 29.1627 1021.93 28.384C1022.66 27.7547 1023.58 27.44 1024.69 27.44C1025.98 27.44 1026.99 27.8507 1027.73 28.672C1028.43 29.44 1028.78 30.496 1028.78 31.84C1028.78 33.344 1028.34 34.4907 1027.45 35.28C1026.73 35.92 1025.8 36.24 1024.67 36.24C1023.38 36.24 1022.36 35.8133 1021.61 34.96C1020.92 34.1813 1020.57 33.1413 1020.57 31.84ZM1022.17 31.84C1022.17 32.9067 1022.45 33.7227 1022.99 34.288C1023.44 34.7573 1024.01 34.992 1024.7 34.992C1025.51 34.992 1026.14 34.688 1026.57 34.08C1026.98 33.5253 1027.18 32.7787 1027.18 31.84C1027.18 30.752 1026.92 29.9307 1026.38 29.376C1025.95 28.9173 1025.38 28.688 1024.69 28.688C1023.89 28.688 1023.26 28.992 1022.81 29.6C1022.39 30.1547 1022.17 30.9013 1022.17 31.84ZM1032.39 36H1030.86V27.68H1032.12L1032.3 28.736C1032.92 27.872 1033.76 27.44 1034.83 27.44C1035.81 27.44 1036.56 27.744 1037.08 28.352C1037.54 28.896 1037.77 29.6373 1037.77 30.576V36H1036.23V30.592C1036.23 29.3653 1035.64 28.752 1034.46 28.752C1033.84 28.752 1033.33 28.9653 1032.94 29.392C1032.58 29.776 1032.39 30.2667 1032.39 30.864V36ZM1049.09 34.768V36.08C1048.69 36.1867 1048.31 36.24 1047.95 36.24C1047.18 36.24 1046.61 36 1046.22 35.52C1045.89 35.1253 1045.73 34.5973 1045.73 33.936V28.992H1044.49V27.68H1045.73L1045.82 25.68H1047.26V27.68H1049.05V28.992H1047.26V33.968C1047.26 34.5867 1047.56 34.896 1048.14 34.896C1048.42 34.896 1048.73 34.8533 1049.09 34.768ZM1052.39 36H1050.85V24.48H1052.39V28.624C1052.99 27.8347 1053.8 27.44 1054.82 27.44C1055.8 27.44 1056.55 27.744 1057.07 28.352C1057.53 28.896 1057.76 29.6373 1057.76 30.576V36H1056.23V30.592C1056.23 29.3653 1055.63 28.752 1054.45 28.752C1053.82 28.752 1053.31 28.9707 1052.91 29.408C1052.56 29.8027 1052.39 30.3093 1052.39 30.928V36ZM1065.91 33.6H1067.58C1067.34 34.4427 1066.88 35.104 1066.18 35.584C1065.53 36.0213 1064.75 36.24 1063.85 36.24C1062.54 36.24 1061.51 35.824 1060.78 34.992C1060.1 34.2133 1059.77 33.1627 1059.77 31.84C1059.77 30.336 1060.19 29.1947 1061.05 28.416C1061.75 27.7653 1062.66 27.44 1063.77 27.44C1065.07 27.44 1066.05 27.8613 1066.71 28.704C1067.35 29.5147 1067.67 30.672 1067.67 32.176H1061.34C1061.4 33.1573 1061.7 33.888 1062.23 34.368C1062.67 34.752 1063.22 34.944 1063.9 34.944C1064.42 34.944 1064.87 34.8 1065.26 34.512C1065.58 34.2667 1065.79 33.9627 1065.91 33.6ZM1063.8 28.672C1063.12 28.672 1062.57 28.8853 1062.15 29.312C1061.76 29.7067 1061.51 30.256 1061.4 30.96H1066.1C1066.05 30.16 1065.78 29.5627 1065.3 29.168C1064.92 28.8373 1064.42 28.672 1063.8 28.672ZM1080.37 33.328H1082.05C1081.93 34.224 1081.51 34.944 1080.79 35.488C1080.14 35.9893 1079.35 36.24 1078.41 36.24C1077.18 36.24 1076.2 35.8187 1075.48 34.976C1074.81 34.1973 1074.47 33.1733 1074.47 31.904C1074.47 30.432 1074.88 29.2907 1075.69 28.48C1076.38 27.7867 1077.28 27.44 1078.39 27.44C1079.41 27.44 1080.26 27.712 1080.92 28.256C1081.51 28.736 1081.86 29.3653 1081.99 30.144H1080.29C1080.19 29.696 1079.97 29.3493 1079.64 29.104C1079.32 28.8587 1078.91 28.736 1078.42 28.736C1077.67 28.736 1077.08 29.0347 1076.68 29.632C1076.29 30.1867 1076.1 30.96 1076.1 31.952C1076.1 32.9867 1076.36 33.7707 1076.87 34.304C1077.28 34.7307 1077.8 34.944 1078.44 34.944C1078.99 34.944 1079.45 34.784 1079.8 34.464C1080.11 34.1867 1080.3 33.808 1080.37 33.328ZM1083.65 31.84C1083.65 30.3147 1084.1 29.1627 1085.01 28.384C1085.74 27.7547 1086.65 27.44 1087.76 27.44C1089.05 27.44 1090.07 27.8507 1090.8 28.672C1091.51 29.44 1091.86 30.496 1091.86 31.84C1091.86 33.344 1091.42 34.4907 1090.53 35.28C1089.8 35.92 1088.88 36.24 1087.75 36.24C1086.46 36.24 1085.44 35.8133 1084.69 34.96C1084 34.1813 1083.65 33.1413 1083.65 31.84ZM1085.25 31.84C1085.25 32.9067 1085.52 33.7227 1086.07 34.288C1086.51 34.7573 1087.08 34.992 1087.78 34.992C1088.59 34.992 1089.21 34.688 1089.65 34.08C1090.06 33.5253 1090.26 32.7787 1090.26 31.84C1090.26 30.752 1089.99 29.9307 1089.46 29.376C1089.02 28.9173 1088.46 28.688 1087.76 28.688C1086.96 28.688 1086.34 28.992 1085.89 29.6C1085.46 30.1547 1085.25 30.9013 1085.25 31.84ZM1095.47 36H1093.93V27.68H1095.2L1095.36 28.656C1095.92 27.8453 1096.74 27.44 1097.81 27.44C1098.97 27.44 1099.79 27.8773 1100.25 28.752C1100.81 27.8773 1101.71 27.44 1102.96 27.44C1103.89 27.44 1104.6 27.7227 1105.1 28.288C1105.55 28.8107 1105.77 29.5253 1105.77 30.432V36H1104.24V30.544C1104.24 29.3493 1103.7 28.752 1102.62 28.752C1101.98 28.752 1101.47 29.0027 1101.09 29.504C1100.78 29.9093 1100.62 30.384 1100.62 30.928V36H1099.09V30.544C1099.09 29.3493 1098.55 28.752 1097.47 28.752C1096.87 28.752 1096.38 28.9867 1095.98 29.456C1095.64 29.8507 1095.47 30.3253 1095.47 30.88V36ZM1108.25 27.68H1109.52L1109.76 28.768C1110.44 27.8827 1111.38 27.44 1112.57 27.44C1113.77 27.44 1114.7 27.8667 1115.36 28.72C1115.95 29.488 1116.24 30.5067 1116.24 31.776C1116.24 33.28 1115.84 34.432 1115.04 35.232C1114.37 35.904 1113.51 36.24 1112.46 36.24C1111.28 36.24 1110.39 35.8027 1109.79 34.928V38.88H1108.25V27.68ZM1114.64 31.744C1114.64 30.6987 1114.38 29.9147 1113.85 29.392C1113.44 28.9653 1112.89 28.752 1112.22 28.752C1111.44 28.752 1110.83 29.0347 1110.37 29.6C1109.93 30.144 1109.71 30.8587 1109.71 31.744C1109.71 32.8107 1109.97 33.6267 1110.49 34.192C1110.93 34.6827 1111.51 34.928 1112.22 34.928C1113.02 34.928 1113.63 34.6347 1114.05 34.048C1114.44 33.504 1114.64 32.736 1114.64 31.744ZM1117.84 31.84C1117.84 30.3147 1118.3 29.1627 1119.2 28.384C1119.93 27.7547 1120.85 27.44 1121.96 27.44C1123.25 27.44 1124.26 27.8507 1125 28.672C1125.7 29.44 1126.05 30.496 1126.05 31.84C1126.05 33.344 1125.61 34.4907 1124.72 35.28C1124 35.92 1123.07 36.24 1121.94 36.24C1120.65 36.24 1119.63 35.8133 1118.88 34.96C1118.19 34.1813 1117.84 33.1413 1117.84 31.84ZM1119.44 31.84C1119.44 32.9067 1119.72 33.7227 1120.26 34.288C1120.71 34.7573 1121.28 34.992 1121.97 34.992C1122.78 34.992 1123.41 34.688 1123.84 34.08C1124.25 33.5253 1124.45 32.7787 1124.45 31.84C1124.45 30.752 1124.19 29.9307 1123.65 29.376C1123.22 28.9173 1122.65 28.688 1121.96 28.688C1121.16 28.688 1120.53 28.992 1120.08 29.6C1119.66 30.1547 1119.44 30.9013 1119.44 31.84ZM1129.66 36H1128.13V27.68H1129.39L1129.57 28.736C1130.19 27.872 1131.03 27.44 1132.1 27.44C1133.08 27.44 1133.83 27.744 1134.35 28.352C1134.81 28.896 1135.04 29.6373 1135.04 30.576V36H1133.5V30.592C1133.5 29.3653 1132.91 28.752 1131.73 28.752C1131.11 28.752 1130.6 28.9653 1130.21 29.392C1129.85 29.776 1129.66 30.2667 1129.66 30.864V36ZM1143.19 33.6H1144.85C1144.62 34.4427 1144.16 35.104 1143.46 35.584C1142.81 36.0213 1142.03 36.24 1141.13 36.24C1139.81 36.24 1138.79 35.824 1138.05 34.992C1137.38 34.2133 1137.05 33.1627 1137.05 31.84C1137.05 30.336 1137.47 29.1947 1138.33 28.416C1139.03 27.7653 1139.94 27.44 1141.05 27.44C1142.35 27.44 1143.33 27.8613 1143.99 28.704C1144.63 29.5147 1144.95 30.672 1144.95 32.176H1138.61C1138.68 33.1573 1138.98 33.888 1139.51 34.368C1139.95 34.752 1140.5 34.944 1141.17 34.944C1141.7 34.944 1142.15 34.8 1142.53 34.512C1142.85 34.2667 1143.07 33.9627 1143.19 33.6ZM1141.08 28.672C1140.4 28.672 1139.85 28.8853 1139.43 29.312C1139.04 29.7067 1138.79 30.256 1138.68 30.96H1143.38C1143.33 30.16 1143.06 29.5627 1142.58 29.168C1142.2 28.8373 1141.7 28.672 1141.08 28.672ZM1148.65 36H1147.11V27.68H1148.38L1148.55 28.736C1149.17 27.872 1150.01 27.44 1151.08 27.44C1152.06 27.44 1152.81 27.744 1153.34 28.352C1153.8 28.896 1154.02 29.6373 1154.02 30.576V36H1152.49V30.592C1152.49 29.3653 1151.9 28.752 1150.71 28.752C1150.09 28.752 1149.59 28.9653 1149.19 29.392C1148.83 29.776 1148.65 30.2667 1148.65 30.864V36ZM1160.22 34.768V36.08C1159.83 36.1867 1159.45 36.24 1159.09 36.24C1158.32 36.24 1157.74 36 1157.36 35.52C1157.03 35.1253 1156.86 34.5973 1156.86 33.936V28.992H1155.63V27.68H1156.86L1156.96 25.68H1158.4V27.68H1160.19V28.992H1158.4V33.968C1158.4 34.5867 1158.69 34.896 1159.28 34.896C1159.56 34.896 1159.87 34.8533 1160.22 34.768Z" fill="white" fill-opacity="0.95"/>
</svg>
