<svg width="1300" height="62" viewBox="0 0 1300 62" fill="none" xmlns="http://www.w3.org/2000/svg">
<mask id="path-1-inside-1_1703_15805" fill="white">
<path d="M0 0H320V62H0V0Z"/>
</mask>
<path d="M0 0H320V62H0V0Z" fill="#1A1A1A"/>
<path d="M319 0V62H321V0H319Z" fill="#707070" mask="url(#path-1-inside-1_1703_15805)"/>
<mask id="path-3-inside-2_1703_15805" fill="white">
<path d="M320 0H600V62H320V0Z"/>
</mask>
<path d="M320 0H600V62H320V0Z" fill="#1A1A1A"/>
<path d="M600 62V63H601V62H600ZM599 0V62H601V0H599ZM600 61H320V63H600V61Z" fill="#707070" mask="url(#path-3-inside-2_1703_15805)"/>
<path d="M351.761 38V23.4545H356.676C357.813 23.4545 358.745 23.6487 359.474 24.0369C360.204 24.4205 360.743 24.9484 361.094 25.6207C361.444 26.2931 361.619 27.0578 361.619 27.9148C361.619 28.7718 361.444 29.5317 361.094 30.1946C360.743 30.8575 360.206 31.3783 359.482 31.7571C358.757 32.1312 357.831 32.3182 356.705 32.3182H352.727V30.7273H356.648C357.424 30.7273 358.049 30.6136 358.523 30.3864C359.001 30.1591 359.347 29.8371 359.56 29.4205C359.777 28.9991 359.886 28.4972 359.886 27.9148C359.886 27.3324 359.777 26.8234 359.56 26.3878C359.342 25.9522 358.994 25.616 358.516 25.3793C358.037 25.1378 357.405 25.017 356.619 25.017H353.523V38H351.761ZM358.608 31.4659L362.188 38H360.142L356.619 31.4659H358.608ZM364.327 38V27.0909H366.003V38H364.327ZM365.179 25.2727C364.853 25.2727 364.571 25.1615 364.334 24.9389C364.102 24.7164 363.986 24.4489 363.986 24.1364C363.986 23.8239 364.102 23.5563 364.334 23.3338C364.571 23.1113 364.853 23 365.179 23C365.506 23 365.785 23.1113 366.017 23.3338C366.254 23.5563 366.373 23.8239 366.373 24.1364C366.373 24.4489 366.254 24.7164 366.017 24.9389C365.785 25.1615 365.506 25.2727 365.179 25.2727ZM373.477 42.3182C372.667 42.3182 371.971 42.214 371.388 42.0057C370.806 41.8021 370.321 41.5322 369.933 41.196C369.549 40.8646 369.244 40.5095 369.016 40.1307L370.352 39.1932C370.503 39.392 370.695 39.6193 370.927 39.875C371.159 40.1354 371.476 40.3603 371.879 40.5497C372.286 40.7438 372.818 40.8409 373.477 40.8409C374.357 40.8409 375.084 40.6278 375.657 40.2017C376.23 39.7756 376.516 39.108 376.516 38.1989V35.983H376.374C376.251 36.1818 376.076 36.428 375.849 36.7216C375.626 37.0104 375.304 37.2685 374.883 37.4957C374.466 37.7183 373.903 37.8295 373.192 37.8295C372.312 37.8295 371.521 37.6212 370.82 37.2045C370.124 36.7879 369.573 36.1818 369.165 35.3864C368.763 34.5909 368.562 33.625 368.562 32.4886C368.562 31.3712 368.758 30.3982 369.151 29.5696C369.544 28.7363 370.091 28.0923 370.792 27.6378C371.493 27.1785 372.302 26.9489 373.221 26.9489C373.931 26.9489 374.495 27.0672 374.911 27.304C375.333 27.536 375.655 27.8011 375.877 28.0994C376.104 28.393 376.28 28.6345 376.403 28.8239H376.573V27.0909H378.192V38.3125C378.192 39.25 377.979 40.0123 377.553 40.5994C377.132 41.1913 376.564 41.6245 375.849 41.8991C375.138 42.1785 374.348 42.3182 373.477 42.3182ZM373.42 36.3239C374.092 36.3239 374.66 36.17 375.124 35.8622C375.588 35.5545 375.941 35.1117 376.183 34.5341C376.424 33.9564 376.545 33.2652 376.545 32.4602C376.545 31.6742 376.426 30.9806 376.19 30.3793C375.953 29.7779 375.603 29.3068 375.138 28.9659C374.674 28.625 374.102 28.4545 373.42 28.4545C372.71 28.4545 372.118 28.6345 371.644 28.9943C371.175 29.3542 370.823 29.8371 370.586 30.4432C370.354 31.0492 370.238 31.7216 370.238 32.4602C370.238 33.2178 370.356 33.8878 370.593 34.4702C370.835 35.0478 371.19 35.5024 371.658 35.8338C372.132 36.1605 372.719 36.3239 373.42 36.3239ZM382.937 31.4375V38H381.261V23.4545H382.937V28.7955H383.079C383.335 28.232 383.718 27.7846 384.229 27.4531C384.746 27.117 385.432 26.9489 386.289 26.9489C387.032 26.9489 387.683 27.098 388.242 27.3963C388.801 27.6899 389.234 28.142 389.542 28.7528C389.854 29.3589 390.011 30.1307 390.011 31.0682V38H388.335V31.1818C388.335 30.3153 388.11 29.6454 387.66 29.1719C387.215 28.6937 386.597 28.4545 385.806 28.4545C385.257 28.4545 384.764 28.5705 384.329 28.8026C383.898 29.0346 383.557 29.3731 383.306 29.8182C383.06 30.2633 382.937 30.803 382.937 31.4375ZM397.821 27.0909V28.5114H392.168V27.0909H397.821ZM393.816 24.4773H395.492V34.875C395.492 35.3485 395.56 35.7036 395.698 35.9403C395.84 36.1723 396.02 36.3286 396.238 36.4091C396.46 36.4848 396.694 36.5227 396.941 36.5227C397.125 36.5227 397.277 36.5133 397.395 36.4943C397.514 36.4706 397.608 36.4517 397.679 36.4375L398.02 37.9432C397.907 37.9858 397.748 38.0284 397.544 38.071C397.341 38.1184 397.083 38.142 396.77 38.142C396.297 38.142 395.833 38.0402 395.378 37.8366C394.928 37.633 394.554 37.3229 394.256 36.9062C393.962 36.4896 393.816 35.964 393.816 35.3295V24.4773ZM407.644 31.4375V38H405.968V23.4545H407.644V28.7955H407.786C408.042 28.232 408.425 27.7846 408.936 27.4531C409.453 27.117 410.139 26.9489 410.996 26.9489C411.739 26.9489 412.391 27.098 412.949 27.3963C413.508 27.6899 413.941 28.142 414.249 28.7528C414.561 29.3589 414.718 30.1307 414.718 31.0682V38H413.042V31.1818C413.042 30.3153 412.817 29.6454 412.367 29.1719C411.922 28.6937 411.304 28.4545 410.513 28.4545C409.964 28.4545 409.471 28.5705 409.036 28.8026C408.605 29.0346 408.264 29.3731 408.013 29.8182C407.767 30.2633 407.644 30.803 407.644 31.4375ZM422.358 38.2273C421.307 38.2273 420.4 37.9953 419.638 37.5312C418.88 37.0625 418.295 36.4091 417.884 35.571C417.476 34.7282 417.273 33.7481 417.273 32.6307C417.273 31.5133 417.476 30.5284 417.884 29.6761C418.295 28.8191 418.868 28.1515 419.602 27.6733C420.341 27.1903 421.203 26.9489 422.188 26.9489C422.756 26.9489 423.317 27.0436 423.871 27.233C424.425 27.4223 424.929 27.7301 425.384 28.1562C425.838 28.5777 426.2 29.1364 426.47 29.8324C426.74 30.5284 426.875 31.3854 426.875 32.4034V33.1136H418.466V31.6648H425.17C425.17 31.0492 425.047 30.5 424.801 30.017C424.56 29.5341 424.214 29.1529 423.764 28.8736C423.319 28.5942 422.794 28.4545 422.188 28.4545C421.52 28.4545 420.942 28.6203 420.455 28.9517C419.972 29.2784 419.6 29.7045 419.339 30.2301C419.079 30.7557 418.949 31.3191 418.949 31.9205V32.8864C418.949 33.7102 419.091 34.4086 419.375 34.9815C419.664 35.5497 420.064 35.983 420.575 36.2812C421.087 36.5748 421.681 36.7216 422.358 36.7216C422.798 36.7216 423.196 36.66 423.551 36.5369C423.911 36.4091 424.221 36.2197 424.482 35.9688C424.742 35.7131 424.943 35.3958 425.085 35.017L426.705 35.4716C426.534 36.0208 426.248 36.5038 425.845 36.9205C425.443 37.3324 424.946 37.6544 424.354 37.8864C423.762 38.1136 423.097 38.2273 422.358 38.2273ZM432.635 38.2557C431.944 38.2557 431.316 38.1255 430.753 37.8651C430.189 37.5999 429.742 37.2188 429.411 36.7216C429.079 36.2197 428.913 35.6136 428.913 34.9034C428.913 34.2784 429.036 33.7718 429.283 33.3835C429.529 32.9905 429.858 32.6828 430.27 32.4602C430.682 32.2377 431.136 32.072 431.634 31.9631C432.135 31.8494 432.64 31.7595 433.146 31.6932C433.809 31.608 434.347 31.544 434.759 31.5014C435.175 31.4541 435.478 31.3759 435.668 31.267C435.862 31.1581 435.959 30.9687 435.959 30.6989V30.642C435.959 29.9413 435.767 29.3968 435.384 29.0085C435.005 28.6203 434.429 28.4261 433.658 28.4261C432.857 28.4261 432.23 28.6013 431.776 28.9517C431.321 29.3021 431.001 29.6761 430.817 30.0739L429.226 29.5057C429.51 28.8428 429.889 28.3267 430.362 27.9574C430.84 27.5833 431.361 27.3229 431.925 27.1761C432.493 27.0246 433.052 26.9489 433.601 26.9489C433.951 26.9489 434.354 26.9915 434.808 27.0767C435.268 27.1572 435.71 27.3253 436.136 27.581C436.567 27.8366 436.925 28.2225 437.209 28.7386C437.493 29.2547 437.635 29.946 437.635 30.8125V38H435.959V36.5227H435.874C435.76 36.7595 435.571 37.0128 435.305 37.2827C435.04 37.5526 434.688 37.7822 434.247 37.9716C433.807 38.161 433.269 38.2557 432.635 38.2557ZM432.891 36.75C433.554 36.75 434.112 36.6198 434.567 36.3594C435.026 36.099 435.372 35.7628 435.604 35.3509C435.84 34.9389 435.959 34.5057 435.959 34.0511V32.517C435.888 32.6023 435.732 32.6804 435.49 32.7514C435.253 32.8177 434.979 32.8769 434.666 32.929C434.358 32.9763 434.058 33.0189 433.764 33.0568C433.475 33.09 433.241 33.1184 433.061 33.142C432.625 33.1989 432.218 33.2912 431.839 33.419C431.465 33.5421 431.162 33.7292 430.93 33.9801C430.703 34.2263 430.589 34.5625 430.589 34.9886C430.589 35.571 430.805 36.0114 431.236 36.3097C431.671 36.6032 432.223 36.75 432.891 36.75ZM444.814 38.2273C443.904 38.2273 443.102 37.9976 442.406 37.5384C441.71 37.0743 441.165 36.4209 440.772 35.5781C440.379 34.7306 440.183 33.7292 440.183 32.5739C440.183 31.428 440.379 30.4337 440.772 29.5909C441.165 28.7481 441.712 28.0971 442.413 27.6378C443.114 27.1785 443.923 26.9489 444.842 26.9489C445.552 26.9489 446.113 27.0672 446.525 27.304C446.942 27.536 447.259 27.8011 447.477 28.0994C447.699 28.393 447.872 28.6345 447.995 28.8239H448.137V23.4545H449.814V38H448.194V36.3239H447.995C447.872 36.5227 447.697 36.7737 447.47 37.0767C447.243 37.375 446.918 37.6425 446.497 37.8793C446.075 38.1113 445.514 38.2273 444.814 38.2273ZM445.041 36.7216C445.713 36.7216 446.281 36.5464 446.745 36.196C447.209 35.8409 447.562 35.3509 447.804 34.7259C448.045 34.0961 448.166 33.3693 448.166 32.5455C448.166 31.7311 448.047 31.0185 447.811 30.4077C447.574 29.7921 447.224 29.3139 446.76 28.973C446.296 28.6274 445.723 28.4545 445.041 28.4545C444.331 28.4545 443.739 28.6368 443.265 29.0014C442.797 29.3613 442.444 29.8513 442.207 30.4716C441.975 31.0871 441.859 31.7784 441.859 32.5455C441.859 33.322 441.977 34.0275 442.214 34.6619C442.456 35.2917 442.811 35.7936 443.279 36.1676C443.753 36.5369 444.34 36.7216 445.041 36.7216ZM457.69 38.2273C456.639 38.2273 455.732 37.9953 454.97 37.5312C454.212 37.0625 453.627 36.4091 453.216 35.571C452.808 34.7282 452.605 33.7481 452.605 32.6307C452.605 31.5133 452.808 30.5284 453.216 29.6761C453.627 28.8191 454.2 28.1515 454.934 27.6733C455.673 27.1903 456.535 26.9489 457.52 26.9489C458.088 26.9489 458.649 27.0436 459.203 27.233C459.757 27.4223 460.261 27.7301 460.716 28.1562C461.17 28.5777 461.532 29.1364 461.802 29.8324C462.072 30.5284 462.207 31.3854 462.207 32.4034V33.1136H453.798V31.6648H460.502C460.502 31.0492 460.379 30.5 460.133 30.017C459.892 29.5341 459.546 29.1529 459.096 28.8736C458.651 28.5942 458.126 28.4545 457.52 28.4545C456.852 28.4545 456.274 28.6203 455.787 28.9517C455.304 29.2784 454.932 29.7045 454.672 30.2301C454.411 30.7557 454.281 31.3191 454.281 31.9205V32.8864C454.281 33.7102 454.423 34.4086 454.707 34.9815C454.996 35.5497 455.396 35.983 455.907 36.2812C456.419 36.5748 457.013 36.7216 457.69 36.7216C458.13 36.7216 458.528 36.66 458.883 36.5369C459.243 36.4091 459.553 36.2197 459.814 35.9688C460.074 35.7131 460.275 35.3958 460.417 35.017L462.037 35.4716C461.866 36.0208 461.58 36.5038 461.177 36.9205C460.775 37.3324 460.278 37.6544 459.686 37.8864C459.094 38.1136 458.429 38.2273 457.69 38.2273ZM464.757 38V27.0909H466.376V28.7386H466.49C466.689 28.1989 467.048 27.7609 467.569 27.4247C468.09 27.0885 468.677 26.9205 469.331 26.9205C469.454 26.9205 469.608 26.9228 469.792 26.9276C469.977 26.9323 470.117 26.9394 470.211 26.9489V28.6534C470.154 28.6392 470.024 28.6179 469.821 28.5895C469.622 28.5563 469.411 28.5398 469.189 28.5398C468.658 28.5398 468.185 28.651 467.768 28.8736C467.356 29.0914 467.029 29.3944 466.788 29.7827C466.551 30.1662 466.433 30.6042 466.433 31.0966V38H464.757Z" fill="white" fill-opacity="0.95"/>
<mask id="path-6-inside-3_1703_15805" fill="white">
<path d="M600 0H900V62H600V0Z"/>
</mask>
<path d="M600 0H900V62H600V0Z" fill="#1A1A1A"/>
<path d="M900 62V63H901V62H900ZM899 0V62H901V0H899ZM900 61H600V63H900V61Z" fill="#707070" mask="url(#path-6-inside-3_1703_15805)"/>
<path d="M643.466 28H641.705C641.6 27.4934 641.418 27.0483 641.158 26.6648C640.902 26.2812 640.589 25.9593 640.22 25.6989C639.856 25.4337 639.451 25.2348 639.006 25.1023C638.561 24.9697 638.097 24.9034 637.614 24.9034C636.733 24.9034 635.935 25.1259 635.22 25.571C634.51 26.0161 633.944 26.6719 633.523 27.5384C633.106 28.4048 632.898 29.4678 632.898 30.7273C632.898 31.9867 633.106 33.0497 633.523 33.9162C633.944 34.7827 634.51 35.4384 635.22 35.8835C635.935 36.3286 636.733 36.5511 637.614 36.5511C638.097 36.5511 638.561 36.4848 639.006 36.3523C639.451 36.2197 639.856 36.0232 640.22 35.7628C640.589 35.4976 640.902 35.1733 641.158 34.7898C641.418 34.4015 641.6 33.9564 641.705 33.4545H643.466C643.333 34.1979 643.092 34.8632 642.741 35.4503C642.391 36.0374 641.955 36.5369 641.435 36.9489C640.914 37.3561 640.329 37.6662 639.68 37.8793C639.036 38.0923 638.348 38.1989 637.614 38.1989C636.373 38.1989 635.27 37.8958 634.304 37.2898C633.338 36.6837 632.578 35.822 632.024 34.7045C631.47 33.5871 631.193 32.2614 631.193 30.7273C631.193 29.1932 631.47 27.8674 632.024 26.75C632.578 25.6326 633.338 24.7708 634.304 24.1648C635.27 23.5587 636.373 23.2557 637.614 23.2557C638.348 23.2557 639.036 23.3622 639.68 23.5753C640.329 23.7884 640.914 24.1009 641.435 24.5128C641.955 24.92 642.391 25.4171 642.741 26.0043C643.092 26.5866 643.333 27.2519 643.466 28ZM650.517 38.2273C649.532 38.2273 648.668 37.9929 647.924 37.5241C647.186 37.0554 646.608 36.3996 646.191 35.5568C645.779 34.714 645.574 33.7292 645.574 32.6023C645.574 31.4659 645.779 30.474 646.191 29.6264C646.608 28.7789 647.186 28.1207 647.924 27.652C648.668 27.1832 649.532 26.9489 650.517 26.9489C651.502 26.9489 652.363 27.1832 653.102 27.652C653.845 28.1207 654.423 28.7789 654.835 29.6264C655.252 30.474 655.46 31.4659 655.46 32.6023C655.46 33.7292 655.252 34.714 654.835 35.5568C654.423 36.3996 653.845 37.0554 653.102 37.5241C652.363 37.9929 651.502 38.2273 650.517 38.2273ZM650.517 36.7216C651.265 36.7216 651.88 36.5298 652.363 36.1463C652.846 35.7628 653.204 35.2585 653.436 34.6335C653.668 34.0085 653.784 33.3314 653.784 32.6023C653.784 31.8731 653.668 31.1937 653.436 30.5639C653.204 29.9342 652.846 29.4252 652.363 29.0369C651.88 28.6487 651.265 28.4545 650.517 28.4545C649.769 28.4545 649.153 28.6487 648.67 29.0369C648.187 29.4252 647.83 29.9342 647.598 30.5639C647.366 31.1937 647.25 31.8731 647.25 32.6023C647.25 33.3314 647.366 34.0085 647.598 34.6335C647.83 35.2585 648.187 35.7628 648.67 36.1463C649.153 36.5298 649.769 36.7216 650.517 36.7216ZM659.695 23.4545V38H658.018V23.4545H659.695ZM667.196 38.2273C666.212 38.2273 665.347 37.9929 664.604 37.5241C663.865 37.0554 663.288 36.3996 662.871 35.5568C662.459 34.714 662.253 33.7292 662.253 32.6023C662.253 31.4659 662.459 30.474 662.871 29.6264C663.288 28.7789 663.865 28.1207 664.604 27.652C665.347 27.1832 666.212 26.9489 667.196 26.9489C668.181 26.9489 669.043 27.1832 669.782 27.652C670.525 28.1207 671.103 28.7789 671.515 29.6264C671.931 30.474 672.14 31.4659 672.14 32.6023C672.14 33.7292 671.931 34.714 671.515 35.5568C671.103 36.3996 670.525 37.0554 669.782 37.5241C669.043 37.9929 668.181 38.2273 667.196 38.2273ZM667.196 36.7216C667.944 36.7216 668.56 36.5298 669.043 36.1463C669.526 35.7628 669.883 35.2585 670.115 34.6335C670.347 34.0085 670.463 33.3314 670.463 32.6023C670.463 31.8731 670.347 31.1937 670.115 30.5639C669.883 29.9342 669.526 29.4252 669.043 29.0369C668.56 28.6487 667.944 28.4545 667.196 28.4545C666.448 28.4545 665.833 28.6487 665.35 29.0369C664.867 29.4252 664.509 29.9342 664.277 30.5639C664.045 31.1937 663.929 31.8731 663.929 32.6023C663.929 33.3314 664.045 34.0085 664.277 34.6335C664.509 35.2585 664.867 35.7628 665.35 36.1463C665.833 36.5298 666.448 36.7216 667.196 36.7216ZM674.698 38V27.0909H676.317V28.7386H676.431C676.63 28.1989 676.99 27.7609 677.511 27.4247C678.031 27.0885 678.619 26.9205 679.272 26.9205C679.395 26.9205 679.549 26.9228 679.734 26.9276C679.918 26.9323 680.058 26.9394 680.153 26.9489V28.6534C680.096 28.6392 679.966 28.6179 679.762 28.5895C679.563 28.5563 679.353 28.5398 679.13 28.5398C678.6 28.5398 678.126 28.651 677.71 28.8736C677.298 29.0914 676.971 29.3944 676.729 29.7827C676.493 30.1662 676.374 30.6042 676.374 31.0966V38H674.698Z" fill="white" fill-opacity="0.95"/>
<mask id="path-9-inside-4_1703_15805" fill="white">
<path d="M900 0H1300V62H900V0Z"/>
</mask>
<path d="M900 0H1300V62H900V0Z" fill="#1A1A1A"/>
<path d="M1300 61H900V63H1300V61Z" fill="#707070" mask="url(#path-9-inside-4_1703_15805)"/>
<path d="M934.832 34.768V36.08C934.437 36.1867 934.059 36.24 933.696 36.24C932.928 36.24 932.352 36 931.968 35.52C931.637 35.1253 931.472 34.5973 931.472 33.936V28.992H930.24V27.68H931.472L931.568 25.68H933.008V27.68H934.8V28.992H933.008V33.968C933.008 34.5867 933.301 34.896 933.888 34.896C934.165 34.896 934.48 34.8533 934.832 34.768ZM938.132 36H936.596V24.48H938.132V28.624C938.74 27.8347 939.551 27.44 940.564 27.44C941.546 27.44 942.298 27.744 942.82 28.352C943.279 28.896 943.508 29.6373 943.508 30.576V36H941.972V30.592C941.972 29.3653 941.38 28.752 940.196 28.752C939.567 28.752 939.055 28.9707 938.66 29.408C938.308 29.8027 938.132 30.3093 938.132 30.928V36ZM951.658 33.6H953.322C953.088 34.4427 952.624 35.104 951.93 35.584C951.28 36.0213 950.501 36.24 949.594 36.24C948.282 36.24 947.258 35.824 946.522 34.992C945.85 34.2133 945.514 33.1627 945.514 31.84C945.514 30.336 945.941 29.1947 946.794 28.416C947.498 27.7653 948.405 27.44 949.514 27.44C950.816 27.44 951.797 27.8613 952.458 28.704C953.098 29.5147 953.418 30.672 953.418 32.176H947.082C947.146 33.1573 947.445 33.888 947.978 34.368C948.416 34.752 948.97 34.944 949.642 34.944C950.165 34.944 950.618 34.8 951.002 34.512C951.322 34.2667 951.541 33.9627 951.658 33.6ZM949.546 28.672C948.864 28.672 948.314 28.8853 947.898 29.312C947.504 29.7067 947.253 30.256 947.146 30.96H951.85C951.797 30.16 951.53 29.5627 951.05 29.168C950.666 28.8373 950.165 28.672 949.546 28.672ZM957.116 36H955.58V27.68H956.844L957.004 28.656C957.569 27.8453 958.385 27.44 959.452 27.44C960.615 27.44 961.431 27.8773 961.9 28.752C962.455 27.8773 963.356 27.44 964.604 27.44C965.532 27.44 966.247 27.7227 966.748 28.288C967.196 28.8107 967.42 29.5253 967.42 30.432V36H965.884V30.544C965.884 29.3493 965.345 28.752 964.268 28.752C963.628 28.752 963.116 29.0027 962.732 29.504C962.423 29.9093 962.268 30.384 962.268 30.928V36H960.732V30.544C960.732 29.3493 960.193 28.752 959.116 28.752C958.519 28.752 958.023 28.9867 957.628 29.456C957.287 29.8507 957.116 30.3253 957.116 30.88V36ZM975.564 33.6H977.228C976.993 34.4427 976.529 35.104 975.836 35.584C975.185 36.0213 974.407 36.24 973.5 36.24C972.188 36.24 971.164 35.824 970.428 34.992C969.756 34.2133 969.42 33.1627 969.42 31.84C969.42 30.336 969.847 29.1947 970.7 28.416C971.404 27.7653 972.311 27.44 973.42 27.44C974.721 27.44 975.703 27.8613 976.364 28.704C977.004 29.5147 977.324 30.672 977.324 32.176H970.988C971.052 33.1573 971.351 33.888 971.884 34.368C972.321 34.752 972.876 34.944 973.548 34.944C974.071 34.944 974.524 34.8 974.908 34.512C975.228 34.2667 975.447 33.9627 975.564 33.6ZM973.452 28.672C972.769 28.672 972.22 28.8853 971.804 29.312C971.409 29.7067 971.159 30.256 971.052 30.96H975.756C975.703 30.16 975.436 29.5627 974.956 29.168C974.572 28.8373 974.071 28.672 973.452 28.672ZM978.846 37.44L982.83 24.24H984.286L980.302 37.44H978.846ZM987.748 36H986.212V27.68H987.476L987.652 28.736C988.271 27.872 989.113 27.44 990.18 27.44C991.161 27.44 991.913 27.744 992.436 28.352C992.895 28.896 993.124 29.6373 993.124 30.576V36H991.588V30.592C991.588 29.3653 990.996 28.752 989.812 28.752C989.193 28.752 988.687 28.9653 988.292 29.392C987.929 29.776 987.748 30.2667 987.748 30.864V36ZM1001.27 33.6H1002.94C1002.7 34.4427 1002.24 35.104 1001.55 35.584C1000.9 36.0213 1000.12 36.24 999.21 36.24C997.898 36.24 996.874 35.824 996.138 34.992C995.466 34.2133 995.13 33.1627 995.13 31.84C995.13 30.336 995.557 29.1947 996.41 28.416C997.114 27.7653 998.021 27.44 999.13 27.44C1000.43 27.44 1001.41 27.8613 1002.07 28.704C1002.71 29.5147 1003.03 30.672 1003.03 32.176H996.698C996.762 33.1573 997.061 33.888 997.594 34.368C998.031 34.752 998.586 34.944 999.258 34.944C999.781 34.944 1000.23 34.8 1000.62 34.512C1000.94 34.2667 1001.16 33.9627 1001.27 33.6ZM999.162 28.672C998.479 28.672 997.93 28.8853 997.514 29.312C997.119 29.7067 996.869 30.256 996.762 30.96H1001.47C1001.41 30.16 1001.15 29.5627 1000.67 29.168C1000.28 28.8373 999.781 28.672 999.162 28.672ZM1005.12 27.68H1006.65V33.136C1006.65 34.3307 1007.23 34.928 1008.38 34.928C1009.08 34.928 1009.62 34.6773 1010 34.176C1010.28 33.792 1010.43 33.3173 1010.43 32.752V27.68H1011.96V36H1010.7L1010.52 35.04C1009.94 35.84 1009.1 36.24 1008.03 36.24C1007.08 36.24 1006.35 35.9467 1005.84 35.36C1005.36 34.816 1005.12 34.064 1005.12 33.104V27.68ZM1018.24 34.768V36.08C1017.85 36.1867 1017.47 36.24 1017.11 36.24C1016.34 36.24 1015.76 36 1015.38 35.52C1015.05 35.1253 1014.88 34.5973 1014.88 33.936V28.992H1013.65V27.68H1014.88L1014.98 25.68H1016.42V27.68H1018.21V28.992H1016.42V33.968C1016.42 34.5867 1016.71 34.896 1017.3 34.896C1017.58 34.896 1017.89 34.8533 1018.24 34.768ZM1021.54 36H1020.01V27.68H1021.27L1021.48 28.912C1021.95 27.9307 1022.65 27.44 1023.59 27.44C1023.9 27.44 1024.2 27.4773 1024.5 27.552V29.088C1024.14 28.992 1023.82 28.944 1023.53 28.944C1022.91 28.944 1022.42 29.1947 1022.07 29.696C1021.72 30.1973 1021.54 30.9067 1021.54 31.824V36ZM1027.34 30H1025.71C1025.8 29.168 1026.19 28.5227 1026.89 28.064C1027.52 27.648 1028.32 27.44 1029.28 27.44C1030.42 27.44 1031.29 27.7387 1031.9 28.336C1032.41 28.848 1032.67 29.5093 1032.67 30.32V36H1031.41L1031.21 34.864C1030.56 35.7813 1029.64 36.24 1028.43 36.24C1027.48 36.24 1026.74 35.984 1026.21 35.472C1025.77 35.0453 1025.55 34.5067 1025.55 33.856C1025.55 33.0347 1025.83 32.4 1026.4 31.952C1026.9 31.5573 1027.67 31.2693 1028.7 31.088L1031.13 30.672V30.256C1031.13 29.712 1030.95 29.3013 1030.57 29.024C1030.24 28.7787 1029.79 28.656 1029.21 28.656C1028.08 28.656 1027.46 29.104 1027.34 30ZM1028.8 34.944C1029.45 34.944 1030.01 34.7307 1030.49 34.304C1030.92 33.9093 1031.13 33.456 1031.13 32.944V31.872L1029.07 32.24C1028.31 32.368 1027.8 32.5653 1027.52 32.832C1027.29 33.0453 1027.18 33.3333 1027.18 33.696C1027.18 34.1013 1027.32 34.4107 1027.6 34.624C1027.88 34.8373 1028.28 34.944 1028.8 34.944ZM1036.68 24.48V36H1035.15V24.48H1036.68ZM1038.61 37.44L1042.59 24.24H1044.05L1040.06 37.44H1038.61ZM1049.69 34.768V36.08C1049.29 36.1867 1048.91 36.24 1048.55 36.24C1047.78 36.24 1047.21 36 1046.82 35.52C1046.49 35.1253 1046.33 34.5973 1046.33 33.936V28.992H1045.1V27.68H1046.33L1046.42 25.68H1047.86V27.68H1049.66V28.992H1047.86V33.968C1047.86 34.5867 1048.16 34.896 1048.74 34.896C1049.02 34.896 1049.34 34.8533 1049.69 34.768ZM1057.04 33.6H1058.7C1058.47 34.4427 1058 35.104 1057.31 35.584C1056.66 36.0213 1055.88 36.24 1054.97 36.24C1053.66 36.24 1052.64 35.824 1051.9 34.992C1051.23 34.2133 1050.89 33.1627 1050.89 31.84C1050.89 30.336 1051.32 29.1947 1052.17 28.416C1052.88 27.7653 1053.78 27.44 1054.89 27.44C1056.19 27.44 1057.18 27.8613 1057.84 28.704C1058.48 29.5147 1058.8 30.672 1058.8 32.176H1052.46C1052.53 33.1573 1052.82 33.888 1053.36 34.368C1053.79 34.752 1054.35 34.944 1055.02 34.944C1055.54 34.944 1056 34.8 1056.38 34.512C1056.7 34.2667 1056.92 33.9627 1057.04 33.6ZM1054.93 28.672C1054.24 28.672 1053.69 28.8853 1053.28 29.312C1052.88 29.7067 1052.63 30.256 1052.53 30.96H1057.23C1057.18 30.16 1056.91 29.5627 1056.43 29.168C1056.05 28.8373 1055.54 28.672 1054.93 28.672ZM1067.66 27.68L1064.88 31.568L1068.14 36H1066.27L1064.01 32.784L1061.81 36H1060L1063.1 31.68L1060.19 27.68H1062.03L1064.01 30.48L1065.9 27.68H1067.66ZM1073.46 34.768V36.08C1073.06 36.1867 1072.69 36.24 1072.32 36.24C1071.56 36.24 1070.98 36 1070.6 35.52C1070.26 35.1253 1070.1 34.5973 1070.1 33.936V28.992H1068.87V27.68H1070.1L1070.2 25.68H1071.64V27.68H1073.43V28.992H1071.64V33.968C1071.64 34.5867 1071.93 34.896 1072.52 34.896C1072.79 34.896 1073.11 34.8533 1073.46 34.768ZM1074.58 37.44L1078.57 24.24H1080.02L1076.04 37.44H1074.58ZM1081.95 27.68H1083.21L1083.45 28.768C1084.14 27.8827 1085.08 27.44 1086.27 27.44C1087.46 27.44 1088.39 27.8667 1089.05 28.72C1089.64 29.488 1089.93 30.5067 1089.93 31.776C1089.93 33.28 1089.53 34.432 1088.73 35.232C1088.06 35.904 1087.2 36.24 1086.16 36.24C1084.97 36.24 1084.08 35.8027 1083.49 34.928V38.88H1081.95V27.68ZM1088.33 31.744C1088.33 30.6987 1088.07 29.9147 1087.55 29.392C1087.13 28.9653 1086.59 28.752 1085.92 28.752C1085.14 28.752 1084.52 29.0347 1084.06 29.6C1083.62 30.144 1083.41 30.8587 1083.41 31.744C1083.41 32.8107 1083.67 33.6267 1084.19 34.192C1084.63 34.6827 1085.2 34.928 1085.92 34.928C1086.72 34.928 1087.33 34.6347 1087.74 34.048C1088.14 33.504 1088.33 32.736 1088.33 31.744ZM1093.56 36H1092.02V27.68H1093.28L1093.49 28.912C1093.96 27.9307 1094.67 27.44 1095.6 27.44C1095.91 27.44 1096.22 27.4773 1096.52 27.552V29.088C1096.15 28.992 1095.83 28.944 1095.54 28.944C1094.92 28.944 1094.44 29.1947 1094.08 29.696C1093.73 30.1973 1093.56 30.9067 1093.56 31.824V36ZM1099.68 26.288H1097.95V24.48H1099.68V26.288ZM1099.58 36H1098.04V27.68H1099.58V36ZM1103.68 36H1102.14V27.68H1103.41L1103.57 28.656C1104.13 27.8453 1104.95 27.44 1106.02 27.44C1107.18 27.44 1108 27.8773 1108.46 28.752C1109.02 27.8773 1109.92 27.44 1111.17 27.44C1112.1 27.44 1112.81 27.7227 1113.31 28.288C1113.76 28.8107 1113.98 29.5253 1113.98 30.432V36H1112.45V30.544C1112.45 29.3493 1111.91 28.752 1110.83 28.752C1110.19 28.752 1109.68 29.0027 1109.3 29.504C1108.99 29.9093 1108.83 30.384 1108.83 30.928V36H1107.3V30.544C1107.3 29.3493 1106.76 28.752 1105.68 28.752C1105.08 28.752 1104.59 28.9867 1104.19 29.456C1103.85 29.8507 1103.68 30.3253 1103.68 30.88V36ZM1117.78 30H1116.14C1116.23 29.168 1116.62 28.5227 1117.33 28.064C1117.96 27.648 1118.75 27.44 1119.71 27.44C1120.85 27.44 1121.73 27.7387 1122.34 28.336C1122.85 28.848 1123.1 29.5093 1123.1 30.32V36H1121.84L1121.65 34.864C1121 35.7813 1120.07 36.24 1118.86 36.24C1117.92 36.24 1117.17 35.984 1116.64 35.472C1116.2 35.0453 1115.98 34.5067 1115.98 33.856C1115.98 33.0347 1116.27 32.4 1116.83 31.952C1117.33 31.5573 1118.1 31.2693 1119.14 31.088L1121.57 30.672V30.256C1121.57 29.712 1121.38 29.3013 1121.01 29.024C1120.68 28.7787 1120.22 28.656 1119.65 28.656C1118.52 28.656 1117.89 29.104 1117.78 30ZM1119.23 34.944C1119.88 34.944 1120.45 34.7307 1120.93 34.304C1121.36 33.9093 1121.57 33.456 1121.57 32.944V31.872L1119.5 32.24C1118.75 32.368 1118.23 32.5653 1117.95 32.832C1117.73 33.0453 1117.62 33.3333 1117.62 33.696C1117.62 34.1013 1117.76 34.4107 1118.03 34.624C1118.31 34.8373 1118.71 34.944 1119.23 34.944ZM1127.12 36H1125.58V27.68H1126.85L1127.05 28.912C1127.52 27.9307 1128.23 27.44 1129.17 27.44C1129.47 27.44 1129.78 27.4773 1130.08 27.552V29.088C1129.71 28.992 1129.39 28.944 1129.1 28.944C1128.48 28.944 1128 29.1947 1127.65 29.696C1127.29 30.1973 1127.12 30.9067 1127.12 31.824V36ZM1138.55 27.68L1135.65 36.112C1135.27 37.232 1134.9 37.9947 1134.55 38.4C1134.13 38.88 1133.59 39.12 1132.93 39.12C1132.66 39.12 1132.32 39.072 1131.94 38.976V37.728C1132.24 37.8027 1132.51 37.84 1132.74 37.84C1133.07 37.84 1133.33 37.7227 1133.51 37.488C1133.69 37.264 1133.92 36.768 1134.2 36H1133.7L1130.64 27.68H1132.31L1134.66 34.752L1137.01 27.68H1138.55ZM1139.5 37.44L1143.49 24.24H1144.94L1140.96 37.44H1139.5ZM1154.37 36H1153.11L1152.84 34.832C1152.2 35.7707 1151.27 36.24 1150.07 36.24C1148.91 36.24 1147.99 35.8187 1147.32 34.976C1146.7 34.1973 1146.39 33.168 1146.39 31.888C1146.39 30.3413 1146.78 29.1787 1147.57 28.4C1148.23 27.76 1149.1 27.44 1150.17 27.44C1151.32 27.44 1152.21 27.872 1152.84 28.736V24.48H1154.37V36ZM1147.99 31.92C1147.99 32.9547 1148.25 33.7387 1148.76 34.272C1149.18 34.7093 1149.73 34.928 1150.41 34.928C1151.24 34.928 1151.88 34.6133 1152.34 33.984C1152.73 33.44 1152.92 32.7573 1152.92 31.936C1152.92 30.8587 1152.66 30.0373 1152.15 29.472C1151.71 28.992 1151.13 28.752 1150.41 28.752C1149.59 28.752 1148.98 29.0453 1148.57 29.632C1148.18 30.1653 1147.99 30.928 1147.99 31.92ZM1162.6 33.6H1164.27C1164.03 34.4427 1163.57 35.104 1162.88 35.584C1162.22 36.0213 1161.45 36.24 1160.54 36.24C1159.23 36.24 1158.2 35.824 1157.47 34.992C1156.8 34.2133 1156.46 33.1627 1156.46 31.84C1156.46 30.336 1156.89 29.1947 1157.74 28.416C1158.44 27.7653 1159.35 27.44 1160.46 27.44C1161.76 27.44 1162.74 27.8613 1163.4 28.704C1164.04 29.5147 1164.36 30.672 1164.36 32.176H1158.03C1158.09 33.1573 1158.39 33.888 1158.92 34.368C1159.36 34.752 1159.92 34.944 1160.59 34.944C1161.11 34.944 1161.56 34.8 1161.95 34.512C1162.27 34.2667 1162.49 33.9627 1162.6 33.6ZM1160.49 28.672C1159.81 28.672 1159.26 28.8853 1158.84 29.312C1158.45 29.7067 1158.2 30.256 1158.09 30.96H1162.8C1162.74 30.16 1162.48 29.5627 1162 29.168C1161.61 28.8373 1161.11 28.672 1160.49 28.672ZM1170.64 24.432V25.76C1170.12 25.632 1169.7 25.568 1169.37 25.568C1169.1 25.568 1168.88 25.6427 1168.72 25.792C1168.57 25.9413 1168.49 26.1493 1168.49 26.416V27.68H1170.28V28.992H1168.49V36H1166.96V28.992H1165.72V27.68H1166.96V26.512C1166.96 25.776 1167.2 25.2 1167.68 24.784C1168.1 24.4213 1168.64 24.24 1169.28 24.24C1169.69 24.24 1170.15 24.304 1170.64 24.432ZM1173.31 30H1171.68C1171.77 29.168 1172.16 28.5227 1172.87 28.064C1173.49 27.648 1174.29 27.44 1175.25 27.44C1176.39 27.44 1177.27 27.7387 1177.87 28.336C1178.39 28.848 1178.64 29.5093 1178.64 30.32V36H1177.38L1177.19 34.864C1176.53 35.7813 1175.61 36.24 1174.4 36.24C1173.45 36.24 1172.71 35.984 1172.18 35.472C1171.74 35.0453 1171.52 34.5067 1171.52 33.856C1171.52 33.0347 1171.8 32.4 1172.37 31.952C1172.87 31.5573 1173.64 31.2693 1174.67 31.088L1177.11 30.672V30.256C1177.11 29.712 1176.92 29.3013 1176.55 29.024C1176.21 28.7787 1175.76 28.656 1175.19 28.656C1174.05 28.656 1173.43 29.104 1173.31 30ZM1174.77 34.944C1175.42 34.944 1175.99 34.7307 1176.47 34.304C1176.89 33.9093 1177.11 33.456 1177.11 32.944V31.872L1175.04 32.24C1174.28 32.368 1173.77 32.5653 1173.49 32.832C1173.27 33.0453 1173.15 33.3333 1173.15 33.696C1173.15 34.1013 1173.29 34.4107 1173.57 34.624C1173.85 34.8373 1174.25 34.944 1174.77 34.944ZM1181.04 27.68H1182.57V33.136C1182.57 34.3307 1183.15 34.928 1184.3 34.928C1185.01 34.928 1185.54 34.6773 1185.92 34.176C1186.21 33.792 1186.35 33.3173 1186.35 32.752V27.68H1187.89V36H1186.62L1186.45 35.04C1185.86 35.84 1185.03 36.24 1183.95 36.24C1183 36.24 1182.27 35.9467 1181.76 35.36C1181.28 34.816 1181.04 34.064 1181.04 33.104V27.68ZM1191.99 24.48V36H1190.45V24.48H1191.99ZM1198.27 34.768V36.08C1197.87 36.1867 1197.49 36.24 1197.13 36.24C1196.36 36.24 1195.79 36 1195.4 35.52C1195.07 35.1253 1194.91 34.5973 1194.91 33.936V28.992H1193.67V27.68H1194.91L1195 25.68H1196.44V27.68H1198.23V28.992H1196.44V33.968C1196.44 34.5867 1196.74 34.896 1197.32 34.896C1197.6 34.896 1197.91 34.8533 1198.27 34.768Z" fill="white" fill-opacity="0.95"/>
</svg>
