<svg width="514" height="178" viewBox="0 0 514 178" fill="none" xmlns="http://www.w3.org/2000/svg">
<g filter="url(#filter0_dd_1703_15944)">
<mask id="path-1-outside-1_1703_15944" maskUnits="userSpaceOnUse" x="16" y="8" width="482" height="146" fill="black">
<rect fill="white" x="16" y="8" width="482" height="146"/>
<path d="M17 21C17 14.3726 22.3726 9 29 9H485C491.627 9 497 14.3726 497 21V141C497 147.627 491.627 153 485 153H29C22.3726 153 17 147.627 17 141V21Z"/>
</mask>
<path d="M17 21C17 14.3726 22.3726 9 29 9H485C491.627 9 497 14.3726 497 21V141C497 147.627 491.627 153 485 153H29C22.3726 153 17 147.627 17 141V21Z" fill="black"/>
<path d="M29 10H485V8H29V10ZM496 21V141H498V21H496ZM485 152H29V154H485V152ZM18 141V21H16V141H18ZM29 152C22.9249 152 18 147.075 18 141H16C16 148.18 21.8203 154 29 154V152ZM496 141C496 147.075 491.075 152 485 152V154C492.18 154 498 148.18 498 141H496ZM485 10C491.075 10 496 14.9249 496 21H498C498 13.8203 492.18 8 485 8V10ZM29 8C21.8203 8 16 13.8203 16 21H18C18 14.9249 22.9249 10 29 10V8Z" fill="white" fill-opacity="0.2" mask="url(#path-1-outside-1_1703_15944)"/>
</g>
<rect x="25" y="21" width="464" height="40" rx="8" stroke="#F294F1" stroke-dasharray="2 2"/>
<path d="M34.2 34.48H37.944C40.84 34.48 42.456 35.792 42.456 38.224C42.456 40.56 40.904 41.888 37.88 41.888H35.832V46H34.2V34.48ZM37.976 35.808H35.832V40.56H37.912C39.944 40.56 40.76 39.728 40.76 38.224C40.76 36.704 39.784 35.808 37.976 35.808ZM45.7498 46H44.2138V37.68H45.4778L45.6858 38.912C46.1498 37.952 46.8698 37.44 47.7977 37.44C48.1978 37.44 48.5178 37.504 48.7098 37.552V39.088C48.4058 39.008 48.1018 38.944 47.7338 38.944C46.6778 38.944 45.7498 39.728 45.7498 41.824V46ZM51.5489 36.288H49.8209V34.48H51.5489V36.288ZM51.4529 46H49.9169V37.68H51.4529V46ZM55.2341 46H53.6981V37.68H54.9621L55.1221 38.656C55.7301 37.776 56.6421 37.44 57.5701 37.44C58.6741 37.44 59.5541 37.888 60.0181 38.752C60.6581 37.744 61.7141 37.44 62.7221 37.44C64.4181 37.44 65.5381 38.448 65.5381 40.432V46H64.0021V40.544C64.0021 39.28 63.4581 38.752 62.3861 38.752C61.1541 38.752 60.3861 39.792 60.3861 40.928V46H58.8501V40.544C58.8501 39.264 58.2901 38.752 57.2341 38.752C56.1141 38.752 55.2341 39.696 55.2341 40.88V46ZM69.0101 40H67.3781C67.5381 38.464 68.8661 37.44 70.9461 37.44C73.1221 37.44 74.3381 38.608 74.3381 40.32V46H73.0741L72.8821 44.864C72.3381 45.632 71.4421 46.24 70.0981 46.24C68.2741 46.24 67.2181 45.216 67.2181 43.856C67.2181 42.336 68.1301 41.472 70.3701 41.088L72.8021 40.672V40.256C72.8021 39.232 72.1141 38.656 70.8821 38.656C69.6981 38.656 69.1221 39.168 69.0101 40ZM72.8021 41.872L70.7381 42.24C69.2501 42.496 68.8501 42.96 68.8501 43.696C68.8501 44.496 69.4261 44.944 70.4661 44.944C71.6341 44.944 72.8021 44.08 72.8021 42.944V41.872ZM78.031 46H76.495V37.68H77.759L77.967 38.912C78.431 37.952 79.151 37.44 80.079 37.44C80.479 37.44 80.799 37.504 80.991 37.552V39.088C80.687 39.008 80.383 38.944 80.015 38.944C78.959 38.944 78.031 39.728 78.031 41.824V46ZM89.1421 37.68L86.2461 46.112C85.6221 47.936 85.0621 49.12 83.5261 49.12C83.1901 49.12 82.9821 49.088 82.5341 48.976V47.728C82.8541 47.808 83.0781 47.84 83.3341 47.84C84.0701 47.84 84.3101 47.312 84.7901 46H84.2941L81.2381 37.68H82.9021L85.2541 44.752L87.6061 37.68H89.1421ZM96.7498 34.48V46H95.2138V34.48H96.7498ZM100.307 40H98.675C98.835 38.464 100.163 37.44 102.243 37.44C104.419 37.44 105.635 38.608 105.635 40.32V46H104.371L104.179 44.864C103.635 45.632 102.739 46.24 101.395 46.24C99.571 46.24 98.515 45.216 98.515 43.856C98.515 42.336 99.427 41.472 101.667 41.088L104.099 40.672V40.256C104.099 39.232 103.411 38.656 102.179 38.656C100.995 38.656 100.419 39.168 100.307 40ZM104.099 41.872L102.035 42.24C100.547 42.496 100.147 42.96 100.147 43.696C100.147 44.496 100.723 44.944 101.763 44.944C102.931 44.944 104.099 44.08 104.099 42.944V41.872ZM109.056 46H107.792V34.48H109.328V38.832C109.888 38.032 110.816 37.44 112.112 37.44C114.304 37.44 115.776 39.008 115.776 41.776C115.776 44.656 114.192 46.24 112 46.24C110.72 46.24 109.84 45.68 109.296 44.896L109.056 46ZM114.176 41.744C114.176 39.696 113.136 38.752 111.76 38.752C110.384 38.752 109.248 39.76 109.248 41.744C109.248 43.76 110.256 44.928 111.76 44.928C113.2 44.928 114.176 43.936 114.176 41.744ZM123.206 43.6H124.87C124.454 45.12 123.142 46.24 121.142 46.24C118.774 46.24 117.062 44.768 117.062 41.84C117.062 38.944 118.758 37.44 121.062 37.44C123.366 37.44 124.966 38.816 124.966 42.176H118.63C118.758 44.096 119.798 44.944 121.19 44.944C122.198 44.944 122.966 44.368 123.206 43.6ZM118.694 40.96H123.398C123.286 39.408 122.374 38.672 121.094 38.672C119.862 38.672 118.934 39.424 118.694 40.96ZM128.344 34.48V46H126.808V34.48H128.344Z" fill="white" fill-opacity="0.95"/>
<rect x="25" y="61" width="464" height="40" rx="8" stroke="#F294F1" stroke-dasharray="2 2"/>
<path d="M34.2 74.48H37.944C40.84 74.48 42.456 75.792 42.456 78.224C42.456 80.56 40.904 81.888 37.88 81.888H35.832V86H34.2V74.48ZM37.976 75.808H35.832V80.56H37.912C39.944 80.56 40.76 79.728 40.76 78.224C40.76 76.704 39.784 75.808 37.976 75.808ZM45.7498 86H44.2138V77.68H45.4778L45.6858 78.912C46.1498 77.952 46.8698 77.44 47.7977 77.44C48.1978 77.44 48.5178 77.504 48.7098 77.552V79.088C48.4058 79.008 48.1018 78.944 47.7338 78.944C46.6778 78.944 45.7498 79.728 45.7498 81.824V86ZM51.5489 76.288H49.8209V74.48H51.5489V76.288ZM51.4529 86H49.9169V77.68H51.4529V86ZM55.2341 86H53.6981V77.68H54.9621L55.1221 78.656C55.7301 77.776 56.6421 77.44 57.5701 77.44C58.6741 77.44 59.5541 77.888 60.0181 78.752C60.6581 77.744 61.7141 77.44 62.7221 77.44C64.4181 77.44 65.5381 78.448 65.5381 80.432V86H64.0021V80.544C64.0021 79.28 63.4581 78.752 62.3861 78.752C61.1541 78.752 60.3861 79.792 60.3861 80.928V86H58.8501V80.544C58.8501 79.264 58.2901 78.752 57.2341 78.752C56.1141 78.752 55.2341 79.696 55.2341 80.88V86ZM69.0101 80H67.3781C67.5381 78.464 68.8661 77.44 70.9461 77.44C73.1221 77.44 74.3381 78.608 74.3381 80.32V86H73.0741L72.8821 84.864C72.3381 85.632 71.4421 86.24 70.0981 86.24C68.2741 86.24 67.2181 85.216 67.2181 83.856C67.2181 82.336 68.1301 81.472 70.3701 81.088L72.8021 80.672V80.256C72.8021 79.232 72.1141 78.656 70.8821 78.656C69.6981 78.656 69.1221 79.168 69.0101 80ZM72.8021 81.872L70.7381 82.24C69.2501 82.496 68.8501 82.96 68.8501 83.696C68.8501 84.496 69.4261 84.944 70.4661 84.944C71.6341 84.944 72.8021 84.08 72.8021 82.944V81.872ZM78.031 86H76.495V77.68H77.759L77.967 78.912C78.431 77.952 79.151 77.44 80.079 77.44C80.479 77.44 80.799 77.504 80.991 77.552V79.088C80.687 79.008 80.383 78.944 80.015 78.944C78.959 78.944 78.031 79.728 78.031 81.824V86ZM89.1421 77.68L86.2461 86.112C85.6221 87.936 85.0621 89.12 83.5261 89.12C83.1901 89.12 82.9821 89.088 82.5341 88.976V87.728C82.8541 87.808 83.0781 87.84 83.3341 87.84C84.0701 87.84 84.3101 87.312 84.7901 86H84.2941L81.2381 77.68H82.9021L85.2541 84.752L87.6061 77.68H89.1421ZM96.7498 74.48V86H95.2138V74.48H96.7498ZM100.307 80H98.675C98.835 78.464 100.163 77.44 102.243 77.44C104.419 77.44 105.635 78.608 105.635 80.32V86H104.371L104.179 84.864C103.635 85.632 102.739 86.24 101.395 86.24C99.571 86.24 98.515 85.216 98.515 83.856C98.515 82.336 99.427 81.472 101.667 81.088L104.099 80.672V80.256C104.099 79.232 103.411 78.656 102.179 78.656C100.995 78.656 100.419 79.168 100.307 80ZM104.099 81.872L102.035 82.24C100.547 82.496 100.147 82.96 100.147 83.696C100.147 84.496 100.723 84.944 101.763 84.944C102.931 84.944 104.099 84.08 104.099 82.944V81.872ZM109.056 86H107.792V74.48H109.328V78.832C109.888 78.032 110.816 77.44 112.112 77.44C114.304 77.44 115.776 79.008 115.776 81.776C115.776 84.656 114.192 86.24 112 86.24C110.72 86.24 109.84 85.68 109.296 84.896L109.056 86ZM114.176 81.744C114.176 79.696 113.136 78.752 111.76 78.752C110.384 78.752 109.248 79.76 109.248 81.744C109.248 83.76 110.256 84.928 111.76 84.928C113.2 84.928 114.176 83.936 114.176 81.744ZM123.206 83.6H124.87C124.454 85.12 123.142 86.24 121.142 86.24C118.774 86.24 117.062 84.768 117.062 81.84C117.062 78.944 118.758 77.44 121.062 77.44C123.366 77.44 124.966 78.816 124.966 82.176H118.63C118.758 84.096 119.798 84.944 121.19 84.944C122.198 84.944 122.966 84.368 123.206 83.6ZM118.694 80.96H123.398C123.286 79.408 122.374 78.672 121.094 78.672C119.862 78.672 118.934 79.424 118.694 80.96ZM128.344 74.48V86H126.808V74.48H128.344Z" fill="white" fill-opacity="0.95"/>
<rect x="25" y="101" width="464" height="40" rx="8" stroke="#F294F1" stroke-dasharray="2 2"/>
<path d="M34.2 114.48H37.944C40.84 114.48 42.456 115.792 42.456 118.224C42.456 120.56 40.904 121.888 37.88 121.888H35.832V126H34.2V114.48ZM37.976 115.808H35.832V120.56H37.912C39.944 120.56 40.76 119.728 40.76 118.224C40.76 116.704 39.784 115.808 37.976 115.808ZM45.7498 126H44.2138V117.68H45.4778L45.6858 118.912C46.1498 117.952 46.8698 117.44 47.7977 117.44C48.1978 117.44 48.5178 117.504 48.7098 117.552V119.088C48.4058 119.008 48.1018 118.944 47.7338 118.944C46.6778 118.944 45.7498 119.728 45.7498 121.824V126ZM51.5489 116.288H49.8209V114.48H51.5489V116.288ZM51.4529 126H49.9169V117.68H51.4529V126ZM55.2341 126H53.6981V117.68H54.9621L55.1221 118.656C55.7301 117.776 56.6421 117.44 57.5701 117.44C58.6741 117.44 59.5541 117.888 60.0181 118.752C60.6581 117.744 61.7141 117.44 62.7221 117.44C64.4181 117.44 65.5381 118.448 65.5381 120.432V126H64.0021V120.544C64.0021 119.28 63.4581 118.752 62.3861 118.752C61.1541 118.752 60.3861 119.792 60.3861 120.928V126H58.8501V120.544C58.8501 119.264 58.2901 118.752 57.2341 118.752C56.1141 118.752 55.2341 119.696 55.2341 120.88V126ZM69.0101 120H67.3781C67.5381 118.464 68.8661 117.44 70.9461 117.44C73.1221 117.44 74.3381 118.608 74.3381 120.32V126H73.0741L72.8821 124.864C72.3381 125.632 71.4421 126.24 70.0981 126.24C68.2741 126.24 67.2181 125.216 67.2181 123.856C67.2181 122.336 68.1301 121.472 70.3701 121.088L72.8021 120.672V120.256C72.8021 119.232 72.1141 118.656 70.8821 118.656C69.6981 118.656 69.1221 119.168 69.0101 120ZM72.8021 121.872L70.7381 122.24C69.2501 122.496 68.8501 122.96 68.8501 123.696C68.8501 124.496 69.4261 124.944 70.4661 124.944C71.6341 124.944 72.8021 124.08 72.8021 122.944V121.872ZM78.031 126H76.495V117.68H77.759L77.967 118.912C78.431 117.952 79.151 117.44 80.079 117.44C80.479 117.44 80.799 117.504 80.991 117.552V119.088C80.687 119.008 80.383 118.944 80.015 118.944C78.959 118.944 78.031 119.728 78.031 121.824V126ZM89.1421 117.68L86.2461 126.112C85.6221 127.936 85.0621 129.12 83.5261 129.12C83.1901 129.12 82.9821 129.088 82.5341 128.976V127.728C82.8541 127.808 83.0781 127.84 83.3341 127.84C84.0701 127.84 84.3101 127.312 84.7901 126H84.2941L81.2381 117.68H82.9021L85.2541 124.752L87.6061 117.68H89.1421ZM96.7498 114.48V126H95.2138V114.48H96.7498ZM100.307 120H98.675C98.835 118.464 100.163 117.44 102.243 117.44C104.419 117.44 105.635 118.608 105.635 120.32V126H104.371L104.179 124.864C103.635 125.632 102.739 126.24 101.395 126.24C99.571 126.24 98.515 125.216 98.515 123.856C98.515 122.336 99.427 121.472 101.667 121.088L104.099 120.672V120.256C104.099 119.232 103.411 118.656 102.179 118.656C100.995 118.656 100.419 119.168 100.307 120ZM104.099 121.872L102.035 122.24C100.547 122.496 100.147 122.96 100.147 123.696C100.147 124.496 100.723 124.944 101.763 124.944C102.931 124.944 104.099 124.08 104.099 122.944V121.872ZM109.056 126H107.792V114.48H109.328V118.832C109.888 118.032 110.816 117.44 112.112 117.44C114.304 117.44 115.776 119.008 115.776 121.776C115.776 124.656 114.192 126.24 112 126.24C110.72 126.24 109.84 125.68 109.296 124.896L109.056 126ZM114.176 121.744C114.176 119.696 113.136 118.752 111.76 118.752C110.384 118.752 109.248 119.76 109.248 121.744C109.248 123.76 110.256 124.928 111.76 124.928C113.2 124.928 114.176 123.936 114.176 121.744ZM123.206 123.6H124.87C124.454 125.12 123.142 126.24 121.142 126.24C118.774 126.24 117.062 124.768 117.062 121.84C117.062 118.944 118.758 117.44 121.062 117.44C123.366 117.44 124.966 118.816 124.966 122.176H118.63C118.758 124.096 119.798 124.944 121.19 124.944C122.198 124.944 122.966 124.368 123.206 123.6ZM118.694 120.96H123.398C123.286 119.408 122.374 118.672 121.094 118.672C119.862 118.672 118.934 119.424 118.694 120.96ZM128.344 114.48V126H126.808V114.48H128.344Z" fill="white" fill-opacity="0.95"/>
<defs>
<filter id="filter0_dd_1703_15944" x="0" y="0" width="514" height="178" filterUnits="userSpaceOnUse" color-interpolation-filters="sRGB">
<feFlood flood-opacity="0" result="BackgroundImageFix"/>
<feColorMatrix in="SourceAlpha" type="matrix" values="0 0 0 0 0 0 0 0 0 0 0 0 0 0 0 0 0 0 127 0" result="hardAlpha"/>
<feOffset/>
<feGaussianBlur stdDeviation="0.5"/>
<feColorMatrix type="matrix" values="0 0 0 0 0 0 0 0 0 0 0 0 0 0 0 0 0 0 0.14 0"/>
<feBlend mode="normal" in2="BackgroundImageFix" result="effect1_dropShadow_1703_15944"/>
<feColorMatrix in="SourceAlpha" type="matrix" values="0 0 0 0 0 0 0 0 0 0 0 0 0 0 0 0 0 0 127 0" result="hardAlpha"/>
<feOffset dy="8"/>
<feGaussianBlur stdDeviation="8"/>
<feColorMatrix type="matrix" values="0 0 0 0 0 0 0 0 0 0 0 0 0 0 0 0 0 0 0.16 0"/>
<feBlend mode="normal" in2="effect1_dropShadow_1703_15944" result="effect2_dropShadow_1703_15944"/>
<feBlend mode="normal" in="SourceGraphic" in2="effect2_dropShadow_1703_15944" result="shape"/>
</filter>
</defs>
</svg>
