<svg width="1300" height="62" viewBox="0 0 1300 62" fill="none" xmlns="http://www.w3.org/2000/svg">
<mask id="path-1-inside-1_1703_15685" fill="white">
<path d="M0 0H320V62H0V0Z"/>
</mask>
<path d="M0 0H320V62H0V0Z" fill="#1A1A1A"/>
<path d="M319 0V62H321V0H319Z" fill="#707070" mask="url(#path-1-inside-1_1703_15685)"/>
<mask id="path-3-inside-2_1703_15685" fill="white">
<path d="M320 0H600V62H320V0Z"/>
</mask>
<path d="M320 0H600V62H320V0Z" fill="#1A1A1A"/>
<path d="M600 62V63H601V62H600ZM599 0V62H601V0H599ZM600 61H320V63H600V61Z" fill="#707070" mask="url(#path-3-inside-2_1703_15685)"/>
<path d="M351.761 38V23.4545H356.676C357.817 23.4545 358.75 23.6605 359.474 24.0724C360.204 24.4796 360.743 25.0312 361.094 25.7273C361.444 26.4233 361.619 27.1998 361.619 28.0568C361.619 28.9138 361.444 29.6927 361.094 30.3935C360.748 31.0942 360.213 31.6529 359.489 32.0696C358.764 32.4815 357.836 32.6875 356.705 32.6875H353.182V31.125H356.648C357.429 31.125 358.056 30.9901 358.53 30.7202C359.003 30.4503 359.347 30.0857 359.56 29.6264C359.777 29.1624 359.886 28.6392 359.886 28.0568C359.886 27.4744 359.777 26.9536 359.56 26.4943C359.347 26.035 359.001 25.6752 358.523 25.4148C358.045 25.1496 357.41 25.017 356.619 25.017H353.523V38H351.761ZM364.229 38V27.0909H365.849V28.7386H365.962C366.161 28.1989 366.521 27.7609 367.042 27.4247C367.563 27.0885 368.15 26.9205 368.803 26.9205C368.926 26.9205 369.08 26.9228 369.265 26.9276C369.45 26.9323 369.589 26.9394 369.684 26.9489V28.6534C369.627 28.6392 369.497 28.6179 369.293 28.5895C369.094 28.5563 368.884 28.5398 368.661 28.5398C368.131 28.5398 367.657 28.651 367.241 28.8736C366.829 29.0914 366.502 29.3944 366.261 29.7827C366.024 30.1662 365.906 30.6042 365.906 31.0966V38H364.229ZM371.671 38V27.0909H373.347V38H371.671ZM372.523 25.2727C372.196 25.2727 371.915 25.1615 371.678 24.9389C371.446 24.7164 371.33 24.4489 371.33 24.1364C371.33 23.8239 371.446 23.5563 371.678 23.3338C371.915 23.1113 372.196 23 372.523 23C372.85 23 373.129 23.1113 373.361 23.3338C373.598 23.5563 373.716 23.8239 373.716 24.1364C373.716 24.4489 373.598 24.7164 373.361 24.9389C373.129 25.1615 372.85 25.2727 372.523 25.2727ZM376.417 38V27.0909H378.036V28.7955H378.178C378.406 28.2131 378.772 27.7609 379.279 27.4389C379.786 27.1122 380.394 26.9489 381.104 26.9489C381.824 26.9489 382.423 27.1122 382.901 27.4389C383.384 27.7609 383.761 28.2131 384.031 28.7955H384.144C384.424 28.232 384.843 27.7846 385.401 27.4531C385.96 27.117 386.63 26.9489 387.411 26.9489C388.387 26.9489 389.184 27.2543 389.805 27.8651C390.425 28.4711 390.735 29.4157 390.735 30.6989V38H389.059V30.6989C389.059 29.8939 388.839 29.3187 388.398 28.973C387.958 28.6274 387.44 28.4545 386.843 28.4545C386.076 28.4545 385.482 28.6866 385.06 29.1506C384.639 29.6098 384.428 30.1922 384.428 30.8977V38H382.724V30.5284C382.724 29.9081 382.522 29.4086 382.12 29.0298C381.718 28.6463 381.199 28.4545 380.565 28.4545C380.129 28.4545 379.722 28.5705 379.343 28.8026C378.969 29.0346 378.666 29.3565 378.434 29.7685C378.207 30.1757 378.093 30.6468 378.093 31.1818V38H376.417ZM397.01 38.2557C396.319 38.2557 395.691 38.1255 395.128 37.8651C394.564 37.5999 394.117 37.2188 393.786 36.7216C393.454 36.2197 393.288 35.6136 393.288 34.9034C393.288 34.2784 393.411 33.7718 393.658 33.3835C393.904 32.9905 394.233 32.6828 394.645 32.4602C395.057 32.2377 395.511 32.072 396.009 31.9631C396.51 31.8494 397.015 31.7595 397.521 31.6932C398.184 31.608 398.722 31.544 399.134 31.5014C399.55 31.4541 399.853 31.3759 400.043 31.267C400.237 31.1581 400.334 30.9687 400.334 30.6989V30.642C400.334 29.9413 400.142 29.3968 399.759 29.0085C399.38 28.6203 398.804 28.4261 398.033 28.4261C397.232 28.4261 396.605 28.6013 396.151 28.9517C395.696 29.3021 395.376 29.6761 395.192 30.0739L393.601 29.5057C393.885 28.8428 394.264 28.3267 394.737 27.9574C395.215 27.5833 395.736 27.3229 396.3 27.1761C396.868 27.0246 397.427 26.9489 397.976 26.9489C398.326 26.9489 398.729 26.9915 399.183 27.0767C399.643 27.1572 400.085 27.3253 400.511 27.581C400.942 27.8366 401.3 28.2225 401.584 28.7386C401.868 29.2547 402.01 29.946 402.01 30.8125V38H400.334V36.5227H400.249C400.135 36.7595 399.946 37.0128 399.68 37.2827C399.415 37.5526 399.063 37.7822 398.622 37.9716C398.182 38.161 397.644 38.2557 397.01 38.2557ZM397.266 36.75C397.929 36.75 398.487 36.6198 398.942 36.3594C399.401 36.099 399.747 35.7628 399.979 35.3509C400.215 34.9389 400.334 34.5057 400.334 34.0511V32.517C400.263 32.6023 400.107 32.6804 399.865 32.7514C399.628 32.8177 399.354 32.8769 399.041 32.929C398.733 32.9763 398.433 33.0189 398.139 33.0568C397.85 33.09 397.616 33.1184 397.436 33.142C397 33.1989 396.593 33.2912 396.214 33.419C395.84 33.5421 395.537 33.7292 395.305 33.9801C395.078 34.2263 394.964 34.5625 394.964 34.9886C394.964 35.571 395.18 36.0114 395.611 36.3097C396.046 36.6032 396.598 36.75 397.266 36.75ZM405.069 38V27.0909H406.689V28.7386H406.802C407.001 28.1989 407.361 27.7609 407.882 27.4247C408.403 27.0885 408.99 26.9205 409.643 26.9205C409.766 26.9205 409.92 26.9228 410.105 26.9276C410.289 26.9323 410.429 26.9394 410.524 26.9489V28.6534C410.467 28.6392 410.337 28.6179 410.133 28.5895C409.934 28.5563 409.724 28.5398 409.501 28.5398C408.971 28.5398 408.497 28.651 408.081 28.8736C407.669 29.0914 407.342 29.3944 407.1 29.7827C406.864 30.1662 406.745 30.6042 406.745 31.0966V38H405.069ZM413.922 42.0625C413.638 42.0625 413.385 42.0388 413.162 41.9915C412.94 41.9489 412.786 41.9063 412.701 41.8636L413.127 40.3864C413.738 40.5426 414.247 40.5379 414.654 40.3722C415.061 40.2112 415.414 39.7235 415.712 38.9091L416.025 38.0568L411.99 27.0909H413.809L416.82 35.7841H416.934L419.945 27.0909L421.777 27.1193L417.132 39.5909C416.924 40.1449 416.666 40.6042 416.358 40.9688C416.051 41.3381 415.693 41.6127 415.286 41.7926C414.883 41.9725 414.429 42.0625 413.922 42.0625ZM431.296 23.4545V38H429.62V23.4545H431.296ZM437.576 38.2557C436.885 38.2557 436.258 38.1255 435.694 37.8651C435.131 37.5999 434.683 37.2188 434.352 36.7216C434.02 36.2197 433.855 35.6136 433.855 34.9034C433.855 34.2784 433.978 33.7718 434.224 33.3835C434.47 32.9905 434.799 32.6828 435.211 32.4602C435.623 32.2377 436.078 32.072 436.575 31.9631C437.077 31.8494 437.581 31.7595 438.088 31.6932C438.751 31.608 439.288 31.544 439.7 31.5014C440.117 31.4541 440.42 31.3759 440.609 31.267C440.803 31.1581 440.9 30.9687 440.9 30.6989V30.642C440.9 29.9413 440.708 29.3968 440.325 29.0085C439.946 28.6203 439.371 28.4261 438.599 28.4261C437.799 28.4261 437.172 28.6013 436.717 28.9517C436.262 29.3021 435.943 29.6761 435.758 30.0739L434.167 29.5057C434.451 28.8428 434.83 28.3267 435.304 27.9574C435.782 27.5833 436.303 27.3229 436.866 27.1761C437.434 27.0246 437.993 26.9489 438.542 26.9489C438.893 26.9489 439.295 26.9915 439.75 27.0767C440.209 27.1572 440.652 27.3253 441.078 27.581C441.509 27.8366 441.866 28.2225 442.15 28.7386C442.434 29.2547 442.576 29.946 442.576 30.8125V38H440.9V36.5227H440.815C440.701 36.7595 440.512 37.0128 440.247 37.2827C439.982 37.5526 439.629 37.7822 439.189 37.9716C438.748 38.161 438.211 38.2557 437.576 38.2557ZM437.832 36.75C438.495 36.75 439.054 36.6198 439.508 36.3594C439.967 36.099 440.313 35.7628 440.545 35.3509C440.782 34.9389 440.9 34.5057 440.9 34.0511V32.517C440.829 32.6023 440.673 32.6804 440.431 32.7514C440.195 32.8177 439.92 32.8769 439.608 32.929C439.3 32.9763 438.999 33.0189 438.706 33.0568C438.417 33.09 438.182 33.1184 438.002 33.142C437.567 33.1989 437.16 33.2912 436.781 33.419C436.407 33.5421 436.104 33.7292 435.872 33.9801C435.645 34.2263 435.531 34.5625 435.531 34.9886C435.531 35.571 435.746 36.0114 436.177 36.3097C436.613 36.6032 437.164 36.75 437.832 36.75ZM445.863 38V23.4545H447.539V28.8239H447.681C447.804 28.6345 447.975 28.393 448.192 28.0994C448.415 27.8011 448.732 27.536 449.144 27.304C449.561 27.0672 450.124 26.9489 450.835 26.9489C451.753 26.9489 452.563 27.1785 453.263 27.6378C453.964 28.0971 454.511 28.7481 454.904 29.5909C455.297 30.4337 455.494 31.428 455.494 32.5739C455.494 33.7292 455.297 34.7306 454.904 35.5781C454.511 36.4209 453.967 37.0743 453.271 37.5384C452.575 37.9976 451.772 38.2273 450.863 38.2273C450.162 38.2273 449.601 38.1113 449.18 37.8793C448.758 37.6425 448.434 37.375 448.207 37.0767C447.979 36.7737 447.804 36.5227 447.681 36.3239H447.482V38H445.863ZM447.511 32.5455C447.511 33.3693 447.631 34.0961 447.873 34.7259C448.114 35.3509 448.467 35.8409 448.931 36.196C449.395 36.5464 449.963 36.7216 450.636 36.7216C451.336 36.7216 451.921 36.5369 452.39 36.1676C452.863 35.7936 453.219 35.2917 453.455 34.6619C453.697 34.0275 453.817 33.322 453.817 32.5455C453.817 31.7784 453.699 31.0871 453.462 30.4716C453.23 29.8513 452.878 29.3613 452.404 29.0014C451.935 28.6368 451.346 28.4545 450.636 28.4545C449.954 28.4545 449.381 28.6274 448.917 28.973C448.453 29.3139 448.103 29.7921 447.866 30.4077C447.629 31.0185 447.511 31.7311 447.511 32.5455ZM462.631 38.2273C461.58 38.2273 460.674 37.9953 459.911 37.5312C459.154 37.0625 458.569 36.4091 458.157 35.571C457.75 34.7282 457.546 33.7481 457.546 32.6307C457.546 31.5133 457.75 30.5284 458.157 29.6761C458.569 28.8191 459.142 28.1515 459.876 27.6733C460.614 27.1903 461.476 26.9489 462.461 26.9489C463.029 26.9489 463.59 27.0436 464.144 27.233C464.698 27.4223 465.202 27.7301 465.657 28.1562C466.112 28.5777 466.474 29.1364 466.744 29.8324C467.013 30.5284 467.148 31.3854 467.148 32.4034V33.1136H458.739V31.6648H465.444C465.444 31.0492 465.321 30.5 465.075 30.017C464.833 29.5341 464.487 29.1529 464.038 28.8736C463.593 28.5942 463.067 28.4545 462.461 28.4545C461.793 28.4545 461.216 28.6203 460.728 28.9517C460.245 29.2784 459.873 29.7045 459.613 30.2301C459.353 30.7557 459.222 31.3191 459.222 31.9205V32.8864C459.222 33.7102 459.364 34.4086 459.648 34.9815C459.937 35.5497 460.337 35.983 460.849 36.2812C461.36 36.5748 461.954 36.7216 462.631 36.7216C463.072 36.7216 463.469 36.66 463.825 36.5369C464.184 36.4091 464.495 36.2197 464.755 35.9688C465.015 35.7131 465.217 35.3958 465.359 35.017L466.978 35.4716C466.808 36.0208 466.521 36.5038 466.119 36.9205C465.716 37.3324 465.219 37.6544 464.627 37.8864C464.035 38.1136 463.37 38.2273 462.631 38.2273ZM471.374 23.4545V38H469.698V23.4545H471.374Z" fill="white" fill-opacity="0.95"/>
<mask id="path-6-inside-3_1703_15685" fill="white">
<path d="M600 0H900V62H600V0Z"/>
</mask>
<path d="M600 0H900V62H600V0Z" fill="#1A1A1A"/>
<path d="M900 62V63H901V62H900ZM899 0V62H901V0H899ZM900 61H600V63H900V61Z" fill="#707070" mask="url(#path-6-inside-3_1703_15685)"/>
<path d="M643.466 28H641.705C641.6 27.4934 641.418 27.0483 641.158 26.6648C640.902 26.2812 640.589 25.9593 640.22 25.6989C639.856 25.4337 639.451 25.2348 639.006 25.1023C638.561 24.9697 638.097 24.9034 637.614 24.9034C636.733 24.9034 635.935 25.1259 635.22 25.571C634.51 26.0161 633.944 26.6719 633.523 27.5384C633.106 28.4048 632.898 29.4678 632.898 30.7273C632.898 31.9867 633.106 33.0497 633.523 33.9162C633.944 34.7827 634.51 35.4384 635.22 35.8835C635.935 36.3286 636.733 36.5511 637.614 36.5511C638.097 36.5511 638.561 36.4848 639.006 36.3523C639.451 36.2197 639.856 36.0232 640.22 35.7628C640.589 35.4976 640.902 35.1733 641.158 34.7898C641.418 34.4015 641.6 33.9564 641.705 33.4545H643.466C643.333 34.1979 643.092 34.8632 642.741 35.4503C642.391 36.0374 641.955 36.5369 641.435 36.9489C640.914 37.3561 640.329 37.6662 639.68 37.8793C639.036 38.0923 638.348 38.1989 637.614 38.1989C636.373 38.1989 635.27 37.8958 634.304 37.2898C633.338 36.6837 632.578 35.822 632.024 34.7045C631.47 33.5871 631.193 32.2614 631.193 30.7273C631.193 29.1932 631.47 27.8674 632.024 26.75C632.578 25.6326 633.338 24.7708 634.304 24.1648C635.27 23.5587 636.373 23.2557 637.614 23.2557C638.348 23.2557 639.036 23.3622 639.68 23.5753C640.329 23.7884 640.914 24.1009 641.435 24.5128C641.955 24.92 642.391 25.4171 642.741 26.0043C643.092 26.5866 643.333 27.2519 643.466 28ZM650.517 38.2273C649.532 38.2273 648.668 37.9929 647.924 37.5241C647.186 37.0554 646.608 36.3996 646.191 35.5568C645.779 34.714 645.574 33.7292 645.574 32.6023C645.574 31.4659 645.779 30.474 646.191 29.6264C646.608 28.7789 647.186 28.1207 647.924 27.652C648.668 27.1832 649.532 26.9489 650.517 26.9489C651.502 26.9489 652.363 27.1832 653.102 27.652C653.845 28.1207 654.423 28.7789 654.835 29.6264C655.252 30.474 655.46 31.4659 655.46 32.6023C655.46 33.7292 655.252 34.714 654.835 35.5568C654.423 36.3996 653.845 37.0554 653.102 37.5241C652.363 37.9929 651.502 38.2273 650.517 38.2273ZM650.517 36.7216C651.265 36.7216 651.88 36.5298 652.363 36.1463C652.846 35.7628 653.204 35.2585 653.436 34.6335C653.668 34.0085 653.784 33.3314 653.784 32.6023C653.784 31.8731 653.668 31.1937 653.436 30.5639C653.204 29.9342 652.846 29.4252 652.363 29.0369C651.88 28.6487 651.265 28.4545 650.517 28.4545C649.769 28.4545 649.153 28.6487 648.67 29.0369C648.187 29.4252 647.83 29.9342 647.598 30.5639C647.366 31.1937 647.25 31.8731 647.25 32.6023C647.25 33.3314 647.366 34.0085 647.598 34.6335C647.83 35.2585 648.187 35.7628 648.67 36.1463C649.153 36.5298 649.769 36.7216 650.517 36.7216ZM659.695 23.4545V38H658.018V23.4545H659.695ZM667.196 38.2273C666.212 38.2273 665.347 37.9929 664.604 37.5241C663.865 37.0554 663.288 36.3996 662.871 35.5568C662.459 34.714 662.253 33.7292 662.253 32.6023C662.253 31.4659 662.459 30.474 662.871 29.6264C663.288 28.7789 663.865 28.1207 664.604 27.652C665.347 27.1832 666.212 26.9489 667.196 26.9489C668.181 26.9489 669.043 27.1832 669.782 27.652C670.525 28.1207 671.103 28.7789 671.515 29.6264C671.931 30.474 672.14 31.4659 672.14 32.6023C672.14 33.7292 671.931 34.714 671.515 35.5568C671.103 36.3996 670.525 37.0554 669.782 37.5241C669.043 37.9929 668.181 38.2273 667.196 38.2273ZM667.196 36.7216C667.944 36.7216 668.56 36.5298 669.043 36.1463C669.526 35.7628 669.883 35.2585 670.115 34.6335C670.347 34.0085 670.463 33.3314 670.463 32.6023C670.463 31.8731 670.347 31.1937 670.115 30.5639C669.883 29.9342 669.526 29.4252 669.043 29.0369C668.56 28.6487 667.944 28.4545 667.196 28.4545C666.448 28.4545 665.833 28.6487 665.35 29.0369C664.867 29.4252 664.509 29.9342 664.277 30.5639C664.045 31.1937 663.929 31.8731 663.929 32.6023C663.929 33.3314 664.045 34.0085 664.277 34.6335C664.509 35.2585 664.867 35.7628 665.35 36.1463C665.833 36.5298 666.448 36.7216 667.196 36.7216ZM674.698 38V27.0909H676.317V28.7386H676.431C676.63 28.1989 676.99 27.7609 677.511 27.4247C678.031 27.0885 678.619 26.9205 679.272 26.9205C679.395 26.9205 679.549 26.9228 679.734 26.9276C679.918 26.9323 680.058 26.9394 680.153 26.9489V28.6534C680.096 28.6392 679.966 28.6179 679.762 28.5895C679.563 28.5563 679.353 28.5398 679.13 28.5398C678.6 28.5398 678.126 28.651 677.71 28.8736C677.298 29.0914 676.971 29.3944 676.729 29.7827C676.493 30.1662 676.374 30.6042 676.374 31.0966V38H674.698Z" fill="white" fill-opacity="0.95"/>
<mask id="path-9-inside-4_1703_15685" fill="white">
<path d="M900 0H1300V62H900V0Z"/>
</mask>
<path d="M900 0H1300V62H900V0Z" fill="#1A1A1A"/>
<path d="M1300 61H900V63H1300V61Z" fill="#707070" mask="url(#path-9-inside-4_1703_15685)"/>
<path d="M934.832 34.768V36.08C934.437 36.1867 934.059 36.24 933.696 36.24C932.928 36.24 932.352 36 931.968 35.52C931.637 35.1253 931.472 34.5973 931.472 33.936V28.992H930.24V27.68H931.472L931.568 25.68H933.008V27.68H934.8V28.992H933.008V33.968C933.008 34.5867 933.301 34.896 933.888 34.896C934.165 34.896 934.48 34.8533 934.832 34.768ZM938.132 36H936.596V24.48H938.132V28.624C938.74 27.8347 939.551 27.44 940.564 27.44C941.546 27.44 942.298 27.744 942.82 28.352C943.279 28.896 943.508 29.6373 943.508 30.576V36H941.972V30.592C941.972 29.3653 941.38 28.752 940.196 28.752C939.567 28.752 939.055 28.9707 938.66 29.408C938.308 29.8027 938.132 30.3093 938.132 30.928V36ZM951.658 33.6H953.322C953.088 34.4427 952.624 35.104 951.93 35.584C951.28 36.0213 950.501 36.24 949.594 36.24C948.282 36.24 947.258 35.824 946.522 34.992C945.85 34.2133 945.514 33.1627 945.514 31.84C945.514 30.336 945.941 29.1947 946.794 28.416C947.498 27.7653 948.405 27.44 949.514 27.44C950.816 27.44 951.797 27.8613 952.458 28.704C953.098 29.5147 953.418 30.672 953.418 32.176H947.082C947.146 33.1573 947.445 33.888 947.978 34.368C948.416 34.752 948.97 34.944 949.642 34.944C950.165 34.944 950.618 34.8 951.002 34.512C951.322 34.2667 951.541 33.9627 951.658 33.6ZM949.546 28.672C948.864 28.672 948.314 28.8853 947.898 29.312C947.504 29.7067 947.253 30.256 947.146 30.96H951.85C951.797 30.16 951.53 29.5627 951.05 29.168C950.666 28.8373 950.165 28.672 949.546 28.672ZM957.116 36H955.58V27.68H956.844L957.004 28.656C957.569 27.8453 958.385 27.44 959.452 27.44C960.615 27.44 961.431 27.8773 961.9 28.752C962.455 27.8773 963.356 27.44 964.604 27.44C965.532 27.44 966.247 27.7227 966.748 28.288C967.196 28.8107 967.42 29.5253 967.42 30.432V36H965.884V30.544C965.884 29.3493 965.345 28.752 964.268 28.752C963.628 28.752 963.116 29.0027 962.732 29.504C962.423 29.9093 962.268 30.384 962.268 30.928V36H960.732V30.544C960.732 29.3493 960.193 28.752 959.116 28.752C958.519 28.752 958.023 28.9867 957.628 29.456C957.287 29.8507 957.116 30.3253 957.116 30.88V36ZM975.564 33.6H977.228C976.993 34.4427 976.529 35.104 975.836 35.584C975.185 36.0213 974.407 36.24 973.5 36.24C972.188 36.24 971.164 35.824 970.428 34.992C969.756 34.2133 969.42 33.1627 969.42 31.84C969.42 30.336 969.847 29.1947 970.7 28.416C971.404 27.7653 972.311 27.44 973.42 27.44C974.721 27.44 975.703 27.8613 976.364 28.704C977.004 29.5147 977.324 30.672 977.324 32.176H970.988C971.052 33.1573 971.351 33.888 971.884 34.368C972.321 34.752 972.876 34.944 973.548 34.944C974.071 34.944 974.524 34.8 974.908 34.512C975.228 34.2667 975.447 33.9627 975.564 33.6ZM973.452 28.672C972.769 28.672 972.22 28.8853 971.804 29.312C971.409 29.7067 971.159 30.256 971.052 30.96H975.756C975.703 30.16 975.436 29.5627 974.956 29.168C974.572 28.8373 974.071 28.672 973.452 28.672ZM978.846 37.44L982.83 24.24H984.286L980.302 37.44H978.846ZM987.748 36H986.212V27.68H987.476L987.652 28.736C988.271 27.872 989.113 27.44 990.18 27.44C991.161 27.44 991.913 27.744 992.436 28.352C992.895 28.896 993.124 29.6373 993.124 30.576V36H991.588V30.592C991.588 29.3653 990.996 28.752 989.812 28.752C989.193 28.752 988.687 28.9653 988.292 29.392C987.929 29.776 987.748 30.2667 987.748 30.864V36ZM1001.27 33.6H1002.94C1002.7 34.4427 1002.24 35.104 1001.55 35.584C1000.9 36.0213 1000.12 36.24 999.21 36.24C997.898 36.24 996.874 35.824 996.138 34.992C995.466 34.2133 995.13 33.1627 995.13 31.84C995.13 30.336 995.557 29.1947 996.41 28.416C997.114 27.7653 998.021 27.44 999.13 27.44C1000.43 27.44 1001.41 27.8613 1002.07 28.704C1002.71 29.5147 1003.03 30.672 1003.03 32.176H996.698C996.762 33.1573 997.061 33.888 997.594 34.368C998.031 34.752 998.586 34.944 999.258 34.944C999.781 34.944 1000.23 34.8 1000.62 34.512C1000.94 34.2667 1001.16 33.9627 1001.27 33.6ZM999.162 28.672C998.479 28.672 997.93 28.8853 997.514 29.312C997.119 29.7067 996.869 30.256 996.762 30.96H1001.47C1001.41 30.16 1001.15 29.5627 1000.67 29.168C1000.28 28.8373 999.781 28.672 999.162 28.672ZM1005.12 27.68H1006.65V33.136C1006.65 34.3307 1007.23 34.928 1008.38 34.928C1009.08 34.928 1009.62 34.6773 1010 34.176C1010.28 33.792 1010.43 33.3173 1010.43 32.752V27.68H1011.96V36H1010.7L1010.52 35.04C1009.94 35.84 1009.1 36.24 1008.03 36.24C1007.08 36.24 1006.35 35.9467 1005.84 35.36C1005.36 34.816 1005.12 34.064 1005.12 33.104V27.68ZM1018.24 34.768V36.08C1017.85 36.1867 1017.47 36.24 1017.11 36.24C1016.34 36.24 1015.76 36 1015.38 35.52C1015.05 35.1253 1014.88 34.5973 1014.88 33.936V28.992H1013.65V27.68H1014.88L1014.98 25.68H1016.42V27.68H1018.21V28.992H1016.42V33.968C1016.42 34.5867 1016.71 34.896 1017.3 34.896C1017.58 34.896 1017.89 34.8533 1018.24 34.768ZM1021.54 36H1020.01V27.68H1021.27L1021.48 28.912C1021.95 27.9307 1022.65 27.44 1023.59 27.44C1023.9 27.44 1024.2 27.4773 1024.5 27.552V29.088C1024.14 28.992 1023.82 28.944 1023.53 28.944C1022.91 28.944 1022.42 29.1947 1022.07 29.696C1021.72 30.1973 1021.54 30.9067 1021.54 31.824V36ZM1027.34 30H1025.71C1025.8 29.168 1026.19 28.5227 1026.89 28.064C1027.52 27.648 1028.32 27.44 1029.28 27.44C1030.42 27.44 1031.29 27.7387 1031.9 28.336C1032.41 28.848 1032.67 29.5093 1032.67 30.32V36H1031.41L1031.21 34.864C1030.56 35.7813 1029.64 36.24 1028.43 36.24C1027.48 36.24 1026.74 35.984 1026.21 35.472C1025.77 35.0453 1025.55 34.5067 1025.55 33.856C1025.55 33.0347 1025.83 32.4 1026.4 31.952C1026.9 31.5573 1027.67 31.2693 1028.7 31.088L1031.13 30.672V30.256C1031.13 29.712 1030.95 29.3013 1030.57 29.024C1030.24 28.7787 1029.79 28.656 1029.21 28.656C1028.08 28.656 1027.46 29.104 1027.34 30ZM1028.8 34.944C1029.45 34.944 1030.01 34.7307 1030.49 34.304C1030.92 33.9093 1031.13 33.456 1031.13 32.944V31.872L1029.07 32.24C1028.31 32.368 1027.8 32.5653 1027.52 32.832C1027.29 33.0453 1027.18 33.3333 1027.18 33.696C1027.18 34.1013 1027.32 34.4107 1027.6 34.624C1027.88 34.8373 1028.28 34.944 1028.8 34.944ZM1036.68 24.48V36H1035.15V24.48H1036.68ZM1038.61 37.44L1042.59 24.24H1044.05L1040.06 37.44H1038.61ZM1049.69 34.768V36.08C1049.29 36.1867 1048.91 36.24 1048.55 36.24C1047.78 36.24 1047.21 36 1046.82 35.52C1046.49 35.1253 1046.33 34.5973 1046.33 33.936V28.992H1045.1V27.68H1046.33L1046.42 25.68H1047.86V27.68H1049.66V28.992H1047.86V33.968C1047.86 34.5867 1048.16 34.896 1048.74 34.896C1049.02 34.896 1049.34 34.8533 1049.69 34.768ZM1057.04 33.6H1058.7C1058.47 34.4427 1058 35.104 1057.31 35.584C1056.66 36.0213 1055.88 36.24 1054.97 36.24C1053.66 36.24 1052.64 35.824 1051.9 34.992C1051.23 34.2133 1050.89 33.1627 1050.89 31.84C1050.89 30.336 1051.32 29.1947 1052.17 28.416C1052.88 27.7653 1053.78 27.44 1054.89 27.44C1056.19 27.44 1057.18 27.8613 1057.84 28.704C1058.48 29.5147 1058.8 30.672 1058.8 32.176H1052.46C1052.53 33.1573 1052.82 33.888 1053.36 34.368C1053.79 34.752 1054.35 34.944 1055.02 34.944C1055.54 34.944 1056 34.8 1056.38 34.512C1056.7 34.2667 1056.92 33.9627 1057.04 33.6ZM1054.93 28.672C1054.24 28.672 1053.69 28.8853 1053.28 29.312C1052.88 29.7067 1052.63 30.256 1052.53 30.96H1057.23C1057.18 30.16 1056.91 29.5627 1056.43 29.168C1056.05 28.8373 1055.54 28.672 1054.93 28.672ZM1067.66 27.68L1064.88 31.568L1068.14 36H1066.27L1064.01 32.784L1061.81 36H1060L1063.1 31.68L1060.19 27.68H1062.03L1064.01 30.48L1065.9 27.68H1067.66ZM1073.46 34.768V36.08C1073.06 36.1867 1072.69 36.24 1072.32 36.24C1071.56 36.24 1070.98 36 1070.6 35.52C1070.26 35.1253 1070.1 34.5973 1070.1 33.936V28.992H1068.87V27.68H1070.1L1070.2 25.68H1071.64V27.68H1073.43V28.992H1071.64V33.968C1071.64 34.5867 1071.93 34.896 1072.52 34.896C1072.79 34.896 1073.11 34.8533 1073.46 34.768ZM1074.58 37.44L1078.57 24.24H1080.02L1076.04 37.44H1074.58ZM1081.95 27.68H1083.21L1083.45 28.768C1084.14 27.8827 1085.08 27.44 1086.27 27.44C1087.46 27.44 1088.39 27.8667 1089.05 28.72C1089.64 29.488 1089.93 30.5067 1089.93 31.776C1089.93 33.28 1089.53 34.432 1088.73 35.232C1088.06 35.904 1087.2 36.24 1086.16 36.24C1084.97 36.24 1084.08 35.8027 1083.49 34.928V38.88H1081.95V27.68ZM1088.33 31.744C1088.33 30.6987 1088.07 29.9147 1087.55 29.392C1087.13 28.9653 1086.59 28.752 1085.92 28.752C1085.14 28.752 1084.52 29.0347 1084.06 29.6C1083.62 30.144 1083.41 30.8587 1083.41 31.744C1083.41 32.8107 1083.67 33.6267 1084.19 34.192C1084.63 34.6827 1085.2 34.928 1085.92 34.928C1086.72 34.928 1087.33 34.6347 1087.74 34.048C1088.14 33.504 1088.33 32.736 1088.33 31.744ZM1093.56 36H1092.02V27.68H1093.28L1093.49 28.912C1093.96 27.9307 1094.67 27.44 1095.6 27.44C1095.91 27.44 1096.22 27.4773 1096.52 27.552V29.088C1096.15 28.992 1095.83 28.944 1095.54 28.944C1094.92 28.944 1094.44 29.1947 1094.08 29.696C1093.73 30.1973 1093.56 30.9067 1093.56 31.824V36ZM1099.68 26.288H1097.95V24.48H1099.68V26.288ZM1099.58 36H1098.04V27.68H1099.58V36ZM1103.68 36H1102.14V27.68H1103.41L1103.57 28.656C1104.13 27.8453 1104.95 27.44 1106.02 27.44C1107.18 27.44 1108 27.8773 1108.46 28.752C1109.02 27.8773 1109.92 27.44 1111.17 27.44C1112.1 27.44 1112.81 27.7227 1113.31 28.288C1113.76 28.8107 1113.98 29.5253 1113.98 30.432V36H1112.45V30.544C1112.45 29.3493 1111.91 28.752 1110.83 28.752C1110.19 28.752 1109.68 29.0027 1109.3 29.504C1108.99 29.9093 1108.83 30.384 1108.83 30.928V36H1107.3V30.544C1107.3 29.3493 1106.76 28.752 1105.68 28.752C1105.08 28.752 1104.59 28.9867 1104.19 29.456C1103.85 29.8507 1103.68 30.3253 1103.68 30.88V36ZM1117.78 30H1116.14C1116.23 29.168 1116.62 28.5227 1117.33 28.064C1117.96 27.648 1118.75 27.44 1119.71 27.44C1120.85 27.44 1121.73 27.7387 1122.34 28.336C1122.85 28.848 1123.1 29.5093 1123.1 30.32V36H1121.84L1121.65 34.864C1121 35.7813 1120.07 36.24 1118.86 36.24C1117.92 36.24 1117.17 35.984 1116.64 35.472C1116.2 35.0453 1115.98 34.5067 1115.98 33.856C1115.98 33.0347 1116.27 32.4 1116.83 31.952C1117.33 31.5573 1118.1 31.2693 1119.14 31.088L1121.57 30.672V30.256C1121.57 29.712 1121.38 29.3013 1121.01 29.024C1120.68 28.7787 1120.22 28.656 1119.65 28.656C1118.52 28.656 1117.89 29.104 1117.78 30ZM1119.23 34.944C1119.88 34.944 1120.45 34.7307 1120.93 34.304C1121.36 33.9093 1121.57 33.456 1121.57 32.944V31.872L1119.5 32.24C1118.75 32.368 1118.23 32.5653 1117.95 32.832C1117.73 33.0453 1117.62 33.3333 1117.62 33.696C1117.62 34.1013 1117.76 34.4107 1118.03 34.624C1118.31 34.8373 1118.71 34.944 1119.23 34.944ZM1127.12 36H1125.58V27.68H1126.85L1127.05 28.912C1127.52 27.9307 1128.23 27.44 1129.17 27.44C1129.47 27.44 1129.78 27.4773 1130.08 27.552V29.088C1129.71 28.992 1129.39 28.944 1129.1 28.944C1128.48 28.944 1128 29.1947 1127.65 29.696C1127.29 30.1973 1127.12 30.9067 1127.12 31.824V36ZM1138.55 27.68L1135.65 36.112C1135.27 37.232 1134.9 37.9947 1134.55 38.4C1134.13 38.88 1133.59 39.12 1132.93 39.12C1132.66 39.12 1132.32 39.072 1131.94 38.976V37.728C1132.24 37.8027 1132.51 37.84 1132.74 37.84C1133.07 37.84 1133.33 37.7227 1133.51 37.488C1133.69 37.264 1133.92 36.768 1134.2 36H1133.7L1130.64 27.68H1132.31L1134.66 34.752L1137.01 27.68H1138.55ZM1139.5 37.44L1143.49 24.24H1144.94L1140.96 37.44H1139.5ZM1154.37 36H1153.11L1152.84 34.832C1152.2 35.7707 1151.27 36.24 1150.07 36.24C1148.91 36.24 1147.99 35.8187 1147.32 34.976C1146.7 34.1973 1146.39 33.168 1146.39 31.888C1146.39 30.3413 1146.78 29.1787 1147.57 28.4C1148.23 27.76 1149.1 27.44 1150.17 27.44C1151.32 27.44 1152.21 27.872 1152.84 28.736V24.48H1154.37V36ZM1147.99 31.92C1147.99 32.9547 1148.25 33.7387 1148.76 34.272C1149.18 34.7093 1149.73 34.928 1150.41 34.928C1151.24 34.928 1151.88 34.6133 1152.34 33.984C1152.73 33.44 1152.92 32.7573 1152.92 31.936C1152.92 30.8587 1152.66 30.0373 1152.15 29.472C1151.71 28.992 1151.13 28.752 1150.41 28.752C1149.59 28.752 1148.98 29.0453 1148.57 29.632C1148.18 30.1653 1147.99 30.928 1147.99 31.92ZM1162.6 33.6H1164.27C1164.03 34.4427 1163.57 35.104 1162.88 35.584C1162.22 36.0213 1161.45 36.24 1160.54 36.24C1159.23 36.24 1158.2 35.824 1157.47 34.992C1156.8 34.2133 1156.46 33.1627 1156.46 31.84C1156.46 30.336 1156.89 29.1947 1157.74 28.416C1158.44 27.7653 1159.35 27.44 1160.46 27.44C1161.76 27.44 1162.74 27.8613 1163.4 28.704C1164.04 29.5147 1164.36 30.672 1164.36 32.176H1158.03C1158.09 33.1573 1158.39 33.888 1158.92 34.368C1159.36 34.752 1159.92 34.944 1160.59 34.944C1161.11 34.944 1161.56 34.8 1161.95 34.512C1162.27 34.2667 1162.49 33.9627 1162.6 33.6ZM1160.49 28.672C1159.81 28.672 1159.26 28.8853 1158.84 29.312C1158.45 29.7067 1158.2 30.256 1158.09 30.96H1162.8C1162.74 30.16 1162.48 29.5627 1162 29.168C1161.61 28.8373 1161.11 28.672 1160.49 28.672ZM1170.64 24.432V25.76C1170.12 25.632 1169.7 25.568 1169.37 25.568C1169.1 25.568 1168.88 25.6427 1168.72 25.792C1168.57 25.9413 1168.49 26.1493 1168.49 26.416V27.68H1170.28V28.992H1168.49V36H1166.96V28.992H1165.72V27.68H1166.96V26.512C1166.96 25.776 1167.2 25.2 1167.68 24.784C1168.1 24.4213 1168.64 24.24 1169.28 24.24C1169.69 24.24 1170.15 24.304 1170.64 24.432ZM1173.31 30H1171.68C1171.77 29.168 1172.16 28.5227 1172.87 28.064C1173.49 27.648 1174.29 27.44 1175.25 27.44C1176.39 27.44 1177.27 27.7387 1177.87 28.336C1178.39 28.848 1178.64 29.5093 1178.64 30.32V36H1177.38L1177.19 34.864C1176.53 35.7813 1175.61 36.24 1174.4 36.24C1173.45 36.24 1172.71 35.984 1172.18 35.472C1171.74 35.0453 1171.52 34.5067 1171.52 33.856C1171.52 33.0347 1171.8 32.4 1172.37 31.952C1172.87 31.5573 1173.64 31.2693 1174.67 31.088L1177.11 30.672V30.256C1177.11 29.712 1176.92 29.3013 1176.55 29.024C1176.21 28.7787 1175.76 28.656 1175.19 28.656C1174.05 28.656 1173.43 29.104 1173.31 30ZM1174.77 34.944C1175.42 34.944 1175.99 34.7307 1176.47 34.304C1176.89 33.9093 1177.11 33.456 1177.11 32.944V31.872L1175.04 32.24C1174.28 32.368 1173.77 32.5653 1173.49 32.832C1173.27 33.0453 1173.15 33.3333 1173.15 33.696C1173.15 34.1013 1173.29 34.4107 1173.57 34.624C1173.85 34.8373 1174.25 34.944 1174.77 34.944ZM1181.04 27.68H1182.57V33.136C1182.57 34.3307 1183.15 34.928 1184.3 34.928C1185.01 34.928 1185.54 34.6773 1185.92 34.176C1186.21 33.792 1186.35 33.3173 1186.35 32.752V27.68H1187.89V36H1186.62L1186.45 35.04C1185.86 35.84 1185.03 36.24 1183.95 36.24C1183 36.24 1182.27 35.9467 1181.76 35.36C1181.28 34.816 1181.04 34.064 1181.04 33.104V27.68ZM1191.99 24.48V36H1190.45V24.48H1191.99ZM1198.27 34.768V36.08C1197.87 36.1867 1197.49 36.24 1197.13 36.24C1196.36 36.24 1195.79 36 1195.4 35.52C1195.07 35.1253 1194.91 34.5973 1194.91 33.936V28.992H1193.67V27.68H1194.91L1195 25.68H1196.44V27.68H1198.23V28.992H1196.44V33.968C1196.44 34.5867 1196.74 34.896 1197.32 34.896C1197.6 34.896 1197.91 34.8533 1198.27 34.768Z" fill="white" fill-opacity="0.95"/>
</svg>
