<svg width="1300" height="68" viewBox="0 0 1300 68" fill="none" xmlns="http://www.w3.org/2000/svg">
<rect width="1300" height="68" fill="#1A1A1A"/>
<mask id="path-1-inside-1_1743_37440" fill="white">
<path d="M0 0H433.333V68H0V0Z"/>
</mask>
<path d="M433.333 68V69H434.333V68H433.333ZM432.333 0V68H434.333V0H432.333ZM433.333 67H0V69H433.333V67Z" fill="#707070" mask="url(#path-1-inside-1_1743_37440)"/>
<path d="M39.0375 40.1591C38.3708 40.1591 37.7704 40.0265 37.2363 39.7614C36.7022 39.4962 36.2742 39.1326 35.9522 38.6705C35.6303 38.2083 35.4541 37.6818 35.4238 37.0909H36.7875C36.8405 37.6174 37.0791 38.053 37.5034 38.3977C37.9314 38.7386 38.4428 38.9091 39.0375 38.9091C39.5147 38.9091 39.939 38.7973 40.3102 38.5739C40.6852 38.3504 40.9787 38.0436 41.1909 37.6534C41.4068 37.2595 41.5147 36.8144 41.5147 36.3182C41.5147 35.8106 41.403 35.358 41.1795 34.9602C40.9598 34.5587 40.6568 34.2424 40.2704 34.0114C39.884 33.7803 39.4428 33.6629 38.9465 33.6591C38.5905 33.6553 38.225 33.7102 37.85 33.8239C37.475 33.9337 37.1662 34.0758 36.9238 34.25L35.6056 34.0909L36.3102 28.3636H42.3556V29.6136H37.492L37.0829 33.0455H37.1511C37.3897 32.8561 37.689 32.6989 38.0488 32.5739C38.4087 32.4489 38.7837 32.3864 39.1738 32.3864C39.8859 32.3864 40.5204 32.5568 41.0772 32.8977C41.6378 33.2348 42.0772 33.697 42.3954 34.2841C42.7174 34.8712 42.8784 35.5417 42.8784 36.2955C42.8784 37.0379 42.7117 37.7008 42.3784 38.2841C42.0488 38.8636 41.5943 39.322 41.0147 39.6591C40.4352 39.9924 39.7761 40.1591 39.0375 40.1591ZM46.465 40.0909C46.1847 40.0909 45.9442 39.9905 45.7434 39.7898C45.5427 39.589 45.4423 39.3485 45.4423 39.0682C45.4423 38.7879 45.5427 38.5473 45.7434 38.3466C45.9442 38.1458 46.1847 38.0455 46.465 38.0455C46.7453 38.0455 46.9858 38.1458 47.1866 38.3466C47.3874 38.5473 47.4877 38.7879 47.4877 39.0682C47.4877 39.2538 47.4404 39.4242 47.3457 39.5795C47.2548 39.7348 47.1317 39.8598 46.9764 39.9545C46.8249 40.0455 46.6544 40.0909 46.465 40.0909ZM55.8864 40H54.4091L58.6818 28.3636H60.1364L64.4091 40H62.9318L59.4545 30.2045H59.3636L55.8864 40ZM56.4318 35.4545H62.3864V36.7045H56.4318V35.4545ZM72.0824 31.2727L68.8551 40H67.4915L64.2642 31.2727H65.7188L68.1278 38.2273H68.2188L70.6278 31.2727H72.0824ZM76.1548 40.2045C75.6018 40.2045 75.0999 40.1004 74.6491 39.892C74.1984 39.6799 73.8404 39.375 73.5753 38.9773C73.3101 38.5758 73.1776 38.0909 73.1776 37.5227C73.1776 37.0227 73.276 36.6174 73.473 36.3068C73.67 35.9924 73.9332 35.7462 74.2628 35.5682C74.5923 35.3902 74.956 35.2576 75.3537 35.1705C75.7552 35.0795 76.1586 35.0076 76.5639 34.9545C77.0942 34.8864 77.5241 34.8352 77.8537 34.8011C78.187 34.7633 78.4295 34.7008 78.581 34.6136C78.7363 34.5265 78.8139 34.375 78.8139 34.1591V34.1136C78.8139 33.553 78.6605 33.1174 78.3537 32.8068C78.0507 32.4962 77.5904 32.3409 76.973 32.3409C76.3329 32.3409 75.831 32.4811 75.4673 32.7614C75.1037 33.0417 74.848 33.3409 74.7003 33.6591L73.4276 33.2045C73.6548 32.6742 73.9579 32.2614 74.3366 31.9659C74.7192 31.6667 75.1359 31.4583 75.5866 31.3409C76.0412 31.2197 76.4882 31.1591 76.9276 31.1591C77.2079 31.1591 77.5298 31.1932 77.8935 31.2614C78.2609 31.3258 78.6151 31.4602 78.956 31.6648C79.3007 31.8693 79.5866 32.178 79.8139 32.5909C80.0412 33.0038 80.1548 33.5568 80.1548 34.25V40H78.8139V38.8182H78.7457C78.6548 39.0076 78.5033 39.2102 78.2912 39.4261C78.0791 39.642 77.7969 39.8258 77.4446 39.9773C77.0923 40.1288 76.6624 40.2045 76.1548 40.2045ZM76.3594 39C76.8897 39 77.3366 38.8958 77.7003 38.6875C78.0677 38.4792 78.3442 38.2102 78.5298 37.8807C78.7192 37.5511 78.8139 37.2045 78.8139 36.8409V35.6136C78.7571 35.6818 78.6321 35.7443 78.4389 35.8011C78.2495 35.8542 78.0298 35.9015 77.7798 35.9432C77.5336 35.9811 77.2931 36.0152 77.0582 36.0455C76.8272 36.072 76.6397 36.0947 76.4957 36.1136C76.1473 36.1591 75.8215 36.233 75.5185 36.3352C75.2192 36.4337 74.9768 36.5833 74.7912 36.7841C74.6094 36.9811 74.5185 37.25 74.5185 37.5909C74.5185 38.0568 74.6908 38.4091 75.0355 38.6477C75.384 38.8826 75.8253 39 76.3594 39ZM86.3977 31.2727V32.4091H81.875V31.2727H86.3977ZM83.1932 29.1818H84.5341V37.5C84.5341 37.8788 84.589 38.1629 84.6989 38.3523C84.8125 38.5379 84.9564 38.6629 85.1307 38.7273C85.3087 38.7879 85.4962 38.8182 85.6932 38.8182C85.8409 38.8182 85.9621 38.8106 86.0568 38.7955C86.1515 38.7765 86.2273 38.7614 86.2841 38.75L86.5568 39.9545C86.4659 39.9886 86.339 40.0227 86.1761 40.0568C86.0133 40.0947 85.8068 40.1136 85.5568 40.1136C85.178 40.1136 84.8068 40.0322 84.4432 39.8693C84.0833 39.7064 83.7841 39.4583 83.5455 39.125C83.3106 38.7917 83.1932 38.3712 83.1932 37.8636V29.1818ZM90.983 40.2045C90.4299 40.2045 89.928 40.1004 89.4773 39.892C89.0265 39.6799 88.6686 39.375 88.4034 38.9773C88.1383 38.5758 88.0057 38.0909 88.0057 37.5227C88.0057 37.0227 88.1042 36.6174 88.3011 36.3068C88.4981 35.9924 88.7614 35.7462 89.0909 35.5682C89.4205 35.3902 89.7841 35.2576 90.1818 35.1705C90.5833 35.0795 90.9867 35.0076 91.392 34.9545C91.9223 34.8864 92.3523 34.8352 92.6818 34.8011C93.0152 34.7633 93.2576 34.7008 93.4091 34.6136C93.5644 34.5265 93.642 34.375 93.642 34.1591V34.1136C93.642 33.553 93.4886 33.1174 93.1818 32.8068C92.8788 32.4962 92.4186 32.3409 91.8011 32.3409C91.161 32.3409 90.6591 32.4811 90.2955 32.7614C89.9318 33.0417 89.6761 33.3409 89.5284 33.6591L88.2557 33.2045C88.483 32.6742 88.786 32.2614 89.1648 31.9659C89.5473 31.6667 89.964 31.4583 90.4148 31.3409C90.8693 31.2197 91.3163 31.1591 91.7557 31.1591C92.036 31.1591 92.358 31.1932 92.7216 31.2614C93.089 31.3258 93.4432 31.4602 93.7841 31.6648C94.1288 31.8693 94.4148 32.178 94.642 32.5909C94.8693 33.0038 94.983 33.5568 94.983 34.25V40H93.642V38.8182H93.5739C93.483 39.0076 93.3314 39.2102 93.1193 39.4261C92.9072 39.642 92.625 39.8258 92.2727 39.9773C91.9205 40.1288 91.4905 40.2045 90.983 40.2045ZM91.1875 39C91.7178 39 92.1648 38.8958 92.5284 38.6875C92.8958 38.4792 93.1723 38.2102 93.358 37.8807C93.5473 37.5511 93.642 37.2045 93.642 36.8409V35.6136C93.5852 35.6818 93.4602 35.7443 93.267 35.8011C93.0777 35.8542 92.858 35.9015 92.608 35.9432C92.3617 35.9811 92.1212 36.0152 91.8864 36.0455C91.6553 36.072 91.4678 36.0947 91.3239 36.1136C90.9754 36.1591 90.6496 36.233 90.3466 36.3352C90.0473 36.4337 89.8049 36.5833 89.6193 36.7841C89.4375 36.9811 89.3466 37.25 89.3466 37.5909C89.3466 38.0568 89.5189 38.4091 89.8636 38.6477C90.2121 38.8826 90.6534 39 91.1875 39ZM97.4304 40V31.2727H98.7259V32.5909H98.8168C98.9759 32.1591 99.2637 31.8087 99.6804 31.5398C100.097 31.2708 100.567 31.1364 101.089 31.1364C101.188 31.1364 101.311 31.1383 101.459 31.142C101.607 31.1458 101.718 31.1515 101.794 31.1591V32.5227C101.749 32.5114 101.644 32.4943 101.482 32.4716C101.322 32.4451 101.154 32.4318 100.976 32.4318C100.552 32.4318 100.173 32.5208 99.8395 32.6989C99.5099 32.8731 99.2486 33.1155 99.0554 33.4261C98.866 33.733 98.7713 34.0833 98.7713 34.4773V40H97.4304Z" fill="white" fill-opacity="0.95"/>
<mask id="path-4-inside-2_1743_37440" fill="white">
<path d="M433.333 0H866.666V68H433.333V0Z"/>
</mask>
<path d="M866.666 68V69H867.666V68H866.666ZM865.666 0V68H867.666V0H865.666ZM866.666 67H433.333V69H866.666V67Z" fill="#707070" mask="url(#path-4-inside-2_1743_37440)"/>
<path d="M464.742 40V28.3636H468.81C469.621 28.3636 470.289 28.5038 470.816 28.7841C471.342 29.0606 471.735 29.4337 471.992 29.9034C472.25 30.3693 472.378 30.8864 472.378 31.4545C472.378 31.9545 472.289 32.3674 472.111 32.6932C471.937 33.0189 471.706 33.2765 471.418 33.4659C471.134 33.6553 470.825 33.7955 470.492 33.8864V34C470.848 34.0227 471.206 34.1477 471.566 34.375C471.926 34.6023 472.227 34.928 472.469 35.3523C472.712 35.7765 472.833 36.2955 472.833 36.9091C472.833 37.4924 472.7 38.017 472.435 38.483C472.17 38.9489 471.752 39.3182 471.18 39.5909C470.608 39.8636 469.863 40 468.947 40H464.742ZM466.151 38.75H468.947C469.867 38.75 470.521 38.572 470.907 38.2159C471.297 37.8561 471.492 37.4205 471.492 36.9091C471.492 36.5152 471.392 36.1515 471.191 35.8182C470.99 35.4811 470.704 35.2121 470.333 35.0114C469.962 34.8068 469.522 34.7045 469.015 34.7045H466.151V38.75ZM466.151 33.4773H468.765C469.189 33.4773 469.572 33.3939 469.913 33.2273C470.257 33.0606 470.53 32.8258 470.731 32.5227C470.935 32.2197 471.038 31.8636 471.038 31.4545C471.038 30.9432 470.86 30.5095 470.503 30.1534C470.147 29.7936 469.583 29.6136 468.81 29.6136H466.151V33.4773ZM478.512 40.1818C477.724 40.1818 477.033 39.9943 476.438 39.6193C475.847 39.2443 475.385 38.7197 475.052 38.0455C474.722 37.3712 474.557 36.5833 474.557 35.6818C474.557 34.7727 474.722 33.9792 475.052 33.3011C475.385 32.6231 475.847 32.0966 476.438 31.7216C477.033 31.3466 477.724 31.1591 478.512 31.1591C479.3 31.1591 479.989 31.3466 480.58 31.7216C481.175 32.0966 481.637 32.6231 481.967 33.3011C482.3 33.9792 482.467 34.7727 482.467 35.6818C482.467 36.5833 482.3 37.3712 481.967 38.0455C481.637 38.7197 481.175 39.2443 480.58 39.6193C479.989 39.9943 479.3 40.1818 478.512 40.1818ZM478.512 38.9773C479.11 38.9773 479.603 38.8239 479.989 38.517C480.376 38.2102 480.662 37.8068 480.847 37.3068C481.033 36.8068 481.126 36.2652 481.126 35.6818C481.126 35.0985 481.033 34.5549 480.847 34.0511C480.662 33.5473 480.376 33.1402 479.989 32.8295C479.603 32.5189 479.11 32.3636 478.512 32.3636C477.914 32.3636 477.421 32.5189 477.035 32.8295C476.648 33.1402 476.362 33.5473 476.177 34.0511C475.991 34.5549 475.898 35.0985 475.898 35.6818C475.898 36.2652 475.991 36.8068 476.177 37.3068C476.362 37.8068 476.648 38.2102 477.035 38.517C477.421 38.8239 477.914 38.9773 478.512 38.9773ZM487.809 40.1818C487.082 40.1818 486.44 39.9981 485.883 39.6307C485.326 39.2595 484.89 38.7367 484.576 38.0625C484.262 37.3845 484.104 36.5833 484.104 35.6591C484.104 34.7424 484.262 33.947 484.576 33.2727C484.89 32.5985 485.328 32.0777 485.888 31.7102C486.449 31.3428 487.097 31.1591 487.832 31.1591C488.4 31.1591 488.849 31.2538 489.178 31.4432C489.512 31.6288 489.765 31.8409 489.94 32.0795C490.118 32.3144 490.256 32.5076 490.354 32.6591H490.468V28.3636H491.809V40H490.513V38.6591H490.354C490.256 38.8182 490.116 39.0189 489.934 39.2614C489.752 39.5 489.493 39.714 489.155 39.9034C488.818 40.089 488.369 40.1818 487.809 40.1818ZM487.991 38.9773C488.529 38.9773 488.983 38.8371 489.354 38.5568C489.726 38.2727 490.008 37.8807 490.201 37.3807C490.394 36.8769 490.491 36.2955 490.491 35.6364C490.491 34.9848 490.396 34.4148 490.207 33.9261C490.017 33.4337 489.737 33.0511 489.366 32.7784C488.994 32.5019 488.536 32.3636 487.991 32.3636C487.422 32.3636 486.949 32.5095 486.57 32.8011C486.195 33.089 485.913 33.4811 485.724 33.9773C485.538 34.4697 485.445 35.0227 485.445 35.6364C485.445 36.2576 485.54 36.822 485.729 37.3295C485.922 37.8333 486.207 38.2348 486.582 38.5341C486.96 38.8295 487.43 38.9773 487.991 38.9773ZM495.315 43.25C495.087 43.25 494.885 43.2311 494.707 43.1932C494.529 43.1591 494.405 43.125 494.337 43.0909L494.678 41.9091C495.167 42.0341 495.574 42.0303 495.9 41.8977C496.226 41.7689 496.508 41.3788 496.746 40.7273L496.996 40.0455L493.769 31.2727H495.224L497.633 38.2273H497.724L500.133 31.2727L501.599 31.2955L497.883 41.2727C497.716 41.7159 497.51 42.0833 497.263 42.375C497.017 42.6705 496.731 42.8902 496.405 43.0341C496.083 43.178 495.72 43.25 495.315 43.25Z" fill="white" fill-opacity="0.95"/>
<mask id="path-7-inside-3_1743_37440" fill="white">
<path d="M866.667 0H1300V68H866.667V0Z"/>
</mask>
<path d="M1300 68V69H1301V68H1300ZM1299 0V68H1301V0H1299ZM1300 67H866.667V69H1300V67Z" fill="white" fill-opacity="0.3" mask="url(#path-7-inside-3_1743_37440)"/>
<path d="M901.962 28.3636V40H900.553V29.8409H900.485L897.644 31.7273V30.2955L900.553 28.3636H901.962ZM909.173 40.1591C908.695 40.1515 908.218 40.0606 907.741 39.8864C907.264 39.7121 906.828 39.4186 906.434 39.0057C906.04 38.589 905.724 38.0265 905.485 37.3182C905.247 36.6061 905.127 35.7121 905.127 34.6364C905.127 33.6023 905.224 32.6856 905.417 31.8864C905.61 31.0833 905.89 30.4072 906.258 29.858C906.625 29.3087 907.069 28.892 907.587 28.608C908.11 28.3239 908.699 28.1818 909.354 28.1818C910.006 28.1818 910.586 28.3125 911.093 28.5739C911.604 28.8352 912.021 29.1989 912.343 29.6648C912.665 30.1269 912.873 30.6629 912.968 31.2727H911.582C911.453 30.7386 911.203 30.2992 910.832 29.9545C910.461 29.6061 909.968 29.4318 909.354 29.4318C908.453 29.4318 907.743 29.8258 907.224 30.6136C906.709 31.3977 906.449 32.5038 906.445 33.9318H906.536C906.748 33.6098 907 33.3352 907.292 33.108C907.587 32.8769 907.913 32.6989 908.269 32.5739C908.625 32.4489 909.002 32.3864 909.4 32.3864C910.067 32.3864 910.676 32.553 911.229 32.8864C911.783 33.2159 912.226 33.6723 912.559 34.2557C912.892 34.8352 913.059 35.5 913.059 36.25C913.059 36.9697 912.898 37.6288 912.576 38.2273C912.254 38.822 911.801 39.2955 911.218 39.6477C910.639 39.9962 909.957 40.1667 909.173 40.1591ZM909.173 38.9091C909.65 38.9091 910.078 38.7898 910.457 38.5511C910.839 38.3125 911.14 37.9924 911.36 37.5909C911.584 37.1894 911.695 36.7424 911.695 36.25C911.695 35.7689 911.587 35.3314 911.372 34.9375C911.159 34.5398 910.866 34.2235 910.491 33.9886C910.12 33.7538 909.695 33.6364 909.218 33.6364C908.858 33.6364 908.523 33.7083 908.212 33.8523C907.902 33.9924 907.629 34.1856 907.394 34.4318C907.163 34.678 906.981 34.9602 906.849 35.2784C906.716 35.5928 906.65 35.9242 906.65 36.2727C906.65 36.7348 906.758 37.1667 906.974 37.5682C907.194 37.9697 907.493 38.2936 907.872 38.5398C908.254 38.786 908.688 38.9091 909.173 38.9091ZM915.316 43.2727V31.2727H916.612V32.6591H916.771C916.869 32.5076 917.006 32.3144 917.18 32.0795C917.358 31.8409 917.612 31.6288 917.941 31.4432C918.274 31.2538 918.725 31.1591 919.293 31.1591C920.028 31.1591 920.676 31.3428 921.237 31.7102C921.797 32.0777 922.235 32.5985 922.549 33.2727C922.863 33.947 923.021 34.7424 923.021 35.6591C923.021 36.5833 922.863 37.3845 922.549 38.0625C922.235 38.7367 921.799 39.2595 921.242 39.6307C920.685 39.9981 920.043 40.1818 919.316 40.1818C918.756 40.1818 918.307 40.089 917.97 39.9034C917.632 39.714 917.373 39.5 917.191 39.2614C917.009 39.0189 916.869 38.8182 916.771 38.6591H916.657V43.2727H915.316ZM916.634 35.6364C916.634 36.2955 916.731 36.8769 916.924 37.3807C917.117 37.8807 917.399 38.2727 917.771 38.5568C918.142 38.8371 918.596 38.9773 919.134 38.9773C919.695 38.9773 920.163 38.8295 920.538 38.5341C920.917 38.2348 921.201 37.8333 921.39 37.3295C921.583 36.822 921.68 36.2576 921.68 35.6364C921.68 35.0227 921.585 34.4697 921.396 33.9773C921.21 33.4811 920.928 33.089 920.549 32.8011C920.174 32.5095 919.703 32.3636 919.134 32.3636C918.589 32.3636 918.131 32.5019 917.759 32.7784C917.388 33.0511 917.108 33.4337 916.918 33.9261C916.729 34.4148 916.634 34.9848 916.634 35.6364ZM925.707 31.2727L927.798 34.8409L929.889 31.2727H931.434L928.616 35.6364L931.434 40H929.889L927.798 36.6136L925.707 40H924.161L926.934 35.6364L924.161 31.2727H925.707ZM938.029 40V28.3636H939.37V32.6591H939.484C939.582 32.5076 939.719 32.3144 939.893 32.0795C940.071 31.8409 940.325 31.6288 940.654 31.4432C940.988 31.2538 941.438 31.1591 942.006 31.1591C942.741 31.1591 943.389 31.3428 943.95 31.7102C944.51 32.0777 944.948 32.5985 945.262 33.2727C945.577 33.947 945.734 34.7424 945.734 35.6591C945.734 36.5833 945.577 37.3845 945.262 38.0625C944.948 38.7367 944.512 39.2595 943.955 39.6307C943.399 39.9981 942.756 40.1818 942.029 40.1818C941.469 40.1818 941.02 40.089 940.683 39.9034C940.345 39.714 940.086 39.5 939.904 39.2614C939.722 39.0189 939.582 38.8182 939.484 38.6591H939.325V40H938.029ZM939.347 35.6364C939.347 36.2955 939.444 36.8769 939.637 37.3807C939.83 37.8807 940.113 38.2727 940.484 38.5568C940.855 38.8371 941.31 38.9773 941.847 38.9773C942.408 38.9773 942.876 38.8295 943.251 38.5341C943.63 38.2348 943.914 37.8333 944.103 37.3295C944.296 36.822 944.393 36.2576 944.393 35.6364C944.393 35.0227 944.298 34.4697 944.109 33.9773C943.923 33.4811 943.641 33.089 943.262 32.8011C942.887 32.5095 942.416 32.3636 941.847 32.3636C941.302 32.3636 940.844 32.5019 940.472 32.7784C940.101 33.0511 939.821 33.4337 939.631 33.9261C939.442 34.4148 939.347 34.9848 939.347 35.6364ZM948.336 43.25C948.109 43.25 947.906 43.2311 947.728 43.1932C947.55 43.1591 947.427 43.125 947.359 43.0909L947.7 41.9091C948.188 42.0341 948.595 42.0303 948.921 41.8977C949.247 41.7689 949.529 41.3788 949.768 40.7273L950.018 40.0455L946.791 31.2727H948.245L950.654 38.2273H950.745L953.154 31.2727L954.62 31.2955L950.904 41.2727C950.738 41.7159 950.531 42.0833 950.285 42.375C950.039 42.6705 949.753 42.8902 949.427 43.0341C949.105 43.178 948.741 43.25 948.336 43.25ZM964.962 28.3636V40H963.553V29.8409H963.485L960.644 31.7273V30.2955L963.553 28.3636H964.962ZM972.173 40.1591C971.695 40.1515 971.218 40.0606 970.741 39.8864C970.264 39.7121 969.828 39.4186 969.434 39.0057C969.04 38.589 968.724 38.0265 968.485 37.3182C968.247 36.6061 968.127 35.7121 968.127 34.6364C968.127 33.6023 968.224 32.6856 968.417 31.8864C968.61 31.0833 968.89 30.4072 969.258 29.858C969.625 29.3087 970.069 28.892 970.587 28.608C971.11 28.3239 971.699 28.1818 972.354 28.1818C973.006 28.1818 973.586 28.3125 974.093 28.5739C974.604 28.8352 975.021 29.1989 975.343 29.6648C975.665 30.1269 975.873 30.6629 975.968 31.2727H974.582C974.453 30.7386 974.203 30.2992 973.832 29.9545C973.461 29.6061 972.968 29.4318 972.354 29.4318C971.453 29.4318 970.743 29.8258 970.224 30.6136C969.709 31.3977 969.449 32.5038 969.445 33.9318H969.536C969.748 33.6098 970 33.3352 970.292 33.108C970.587 32.8769 970.913 32.6989 971.269 32.5739C971.625 32.4489 972.002 32.3864 972.4 32.3864C973.067 32.3864 973.676 32.553 974.229 32.8864C974.783 33.2159 975.226 33.6723 975.559 34.2557C975.892 34.8352 976.059 35.5 976.059 36.25C976.059 36.9697 975.898 37.6288 975.576 38.2273C975.254 38.822 974.801 39.2955 974.218 39.6477C973.639 39.9962 972.957 40.1667 972.173 40.1591ZM972.173 38.9091C972.65 38.9091 973.078 38.7898 973.457 38.5511C973.839 38.3125 974.14 37.9924 974.36 37.5909C974.584 37.1894 974.695 36.7424 974.695 36.25C974.695 35.7689 974.587 35.3314 974.372 34.9375C974.159 34.5398 973.866 34.2235 973.491 33.9886C973.12 33.7538 972.695 33.6364 972.218 33.6364C971.858 33.6364 971.523 33.7083 971.212 33.8523C970.902 33.9924 970.629 34.1856 970.394 34.4318C970.163 34.678 969.981 34.9602 969.849 35.2784C969.716 35.5928 969.65 35.9242 969.65 36.2727C969.65 36.7348 969.758 37.1667 969.974 37.5682C970.194 37.9697 970.493 38.2936 970.872 38.5398C971.254 38.786 971.688 38.9091 972.173 38.9091ZM978.316 43.2727V31.2727H979.612V32.6591H979.771C979.869 32.5076 980.006 32.3144 980.18 32.0795C980.358 31.8409 980.612 31.6288 980.941 31.4432C981.274 31.2538 981.725 31.1591 982.293 31.1591C983.028 31.1591 983.676 31.3428 984.237 31.7102C984.797 32.0777 985.235 32.5985 985.549 33.2727C985.863 33.947 986.021 34.7424 986.021 35.6591C986.021 36.5833 985.863 37.3845 985.549 38.0625C985.235 38.7367 984.799 39.2595 984.242 39.6307C983.685 39.9981 983.043 40.1818 982.316 40.1818C981.756 40.1818 981.307 40.089 980.97 39.9034C980.632 39.714 980.373 39.5 980.191 39.2614C980.009 39.0189 979.869 38.8182 979.771 38.6591H979.657V43.2727H978.316ZM979.634 35.6364C979.634 36.2955 979.731 36.8769 979.924 37.3807C980.117 37.8807 980.399 38.2727 980.771 38.5568C981.142 38.8371 981.596 38.9773 982.134 38.9773C982.695 38.9773 983.163 38.8295 983.538 38.5341C983.917 38.2348 984.201 37.8333 984.39 37.3295C984.583 36.822 984.68 36.2576 984.68 35.6364C984.68 35.0227 984.585 34.4697 984.396 33.9773C984.21 33.4811 983.928 33.089 983.549 32.8011C983.174 32.5095 982.703 32.3636 982.134 32.3636C981.589 32.3636 981.131 32.5019 980.759 32.7784C980.388 33.0511 980.108 33.4337 979.918 33.9261C979.729 34.4148 979.634 34.9848 979.634 35.6364ZM988.707 31.2727L990.798 34.8409L992.889 31.2727H994.434L991.616 35.6364L994.434 40H992.889L990.798 36.6136L988.707 40H987.161L989.934 35.6364L987.161 31.2727H988.707Z" fill="white" fill-opacity="0.95"/>
</svg>
