<svg width="1300" height="68" viewBox="0 0 1300 68" fill="none" xmlns="http://www.w3.org/2000/svg">
<rect width="1300" height="68" fill="#1A1A1A"/>
<mask id="path-1-inside-1_1743_37428" fill="white">
<path d="M0 0H433.333V68H0V0Z"/>
</mask>
<path d="M433.333 68V69H434.333V68H433.333ZM432.333 0V68H434.333V0H432.333ZM433.333 67H0V69H433.333V67Z" fill="#707070" mask="url(#path-1-inside-1_1743_37428)"/>
<mask id="path-3-inside-2_1743_37428" fill="white">
<path d="M433.333 0H866.666V68H433.333V0Z"/>
</mask>
<path d="M866.666 68V69H867.666V68H866.666ZM865.666 0V68H867.666V0H865.666ZM866.666 67H433.333V69H866.666V67Z" fill="#707070" mask="url(#path-3-inside-2_1743_37428)"/>
<path d="M466.151 28.3636V40H464.742V28.3636H466.151ZM472.34 40.1818C471.522 40.1818 470.817 39.9886 470.226 39.6023C469.636 39.2159 469.181 38.6837 468.863 38.0057C468.545 37.3277 468.386 36.553 468.386 35.6818C468.386 34.7955 468.548 34.0133 468.874 33.3352C469.204 32.6534 469.662 32.1212 470.249 31.7386C470.84 31.3523 471.53 31.1591 472.317 31.1591C472.931 31.1591 473.484 31.2727 473.976 31.5C474.469 31.7273 474.872 32.0455 475.187 32.4545C475.501 32.8636 475.696 33.3409 475.772 33.8864H474.431C474.329 33.4886 474.101 33.1364 473.749 32.8295C473.401 32.5189 472.931 32.3636 472.34 32.3636C471.817 32.3636 471.359 32.5 470.965 32.7727C470.575 33.0417 470.27 33.4223 470.05 33.9148C469.834 34.4034 469.726 34.9773 469.726 35.6364C469.726 36.3106 469.833 36.8977 470.045 37.3977C470.261 37.8977 470.564 38.286 470.954 38.5625C471.348 38.839 471.81 38.9773 472.34 38.9773C472.689 38.9773 473.005 38.9167 473.289 38.7955C473.573 38.6742 473.814 38.5 474.011 38.2727C474.208 38.0455 474.348 37.7727 474.431 37.4545H475.772C475.696 37.9697 475.509 38.4337 475.209 38.8466C474.914 39.2557 474.522 39.5814 474.033 39.8239C473.548 40.0625 472.984 40.1818 472.34 40.1818ZM481.278 40.1818C480.49 40.1818 479.798 39.9943 479.204 39.6193C478.613 39.2443 478.151 38.7197 477.817 38.0455C477.488 37.3712 477.323 36.5833 477.323 35.6818C477.323 34.7727 477.488 33.9792 477.817 33.3011C478.151 32.6231 478.613 32.0966 479.204 31.7216C479.798 31.3466 480.49 31.1591 481.278 31.1591C482.065 31.1591 482.755 31.3466 483.346 31.7216C483.94 32.0966 484.403 32.6231 484.732 33.3011C485.065 33.9792 485.232 34.7727 485.232 35.6818C485.232 36.5833 485.065 37.3712 484.732 38.0455C484.403 38.7197 483.94 39.2443 483.346 39.6193C482.755 39.9943 482.065 40.1818 481.278 40.1818ZM481.278 38.9773C481.876 38.9773 482.369 38.8239 482.755 38.517C483.141 38.2102 483.427 37.8068 483.613 37.3068C483.798 36.8068 483.891 36.2652 483.891 35.6818C483.891 35.0985 483.798 34.5549 483.613 34.0511C483.427 33.5473 483.141 33.1402 482.755 32.8295C482.369 32.5189 481.876 32.3636 481.278 32.3636C480.679 32.3636 480.187 32.5189 479.8 32.8295C479.414 33.1402 479.128 33.5473 478.942 34.0511C478.757 34.5549 478.664 35.0985 478.664 35.6818C478.664 36.2652 478.757 36.8068 478.942 37.3068C479.128 37.8068 479.414 38.2102 479.8 38.517C480.187 38.8239 480.679 38.9773 481.278 38.9773ZM488.62 34.75V40H487.279V31.2727H488.574V32.6364H488.688C488.893 32.1932 489.203 31.8371 489.62 31.5682C490.037 31.2955 490.574 31.1591 491.234 31.1591C491.824 31.1591 492.342 31.2803 492.785 31.5227C493.228 31.7614 493.573 32.125 493.819 32.6136C494.065 33.0985 494.188 33.7121 494.188 34.4545V40H492.847V34.5455C492.847 33.8598 492.669 33.3258 492.313 32.9432C491.957 32.5568 491.468 32.3636 490.847 32.3636C490.419 32.3636 490.037 32.4564 489.699 32.642C489.366 32.8277 489.103 33.0985 488.91 33.4545C488.717 33.8106 488.62 34.2424 488.62 34.75ZM507.32 33.2273L506.116 33.5682C506.04 33.3674 505.928 33.1723 505.78 32.983C505.637 32.7898 505.44 32.6307 505.19 32.5057C504.94 32.3807 504.619 32.3182 504.229 32.3182C503.695 32.3182 503.25 32.4413 502.894 32.6875C502.542 32.9299 502.366 33.2386 502.366 33.6136C502.366 33.947 502.487 34.2102 502.729 34.4034C502.972 34.5966 503.351 34.7576 503.866 34.8864L505.161 35.2045C505.941 35.3939 506.523 35.6837 506.905 36.0739C507.288 36.4602 507.479 36.9583 507.479 37.5682C507.479 38.0682 507.335 38.5152 507.047 38.9091C506.763 39.303 506.366 39.6136 505.854 39.8409C505.343 40.0682 504.748 40.1818 504.07 40.1818C503.18 40.1818 502.443 39.9886 501.86 39.6023C501.277 39.2159 500.907 38.6515 500.752 37.9091L502.025 37.5909C502.146 38.0606 502.375 38.4129 502.712 38.6477C503.053 38.8826 503.498 39 504.047 39C504.672 39 505.169 38.8674 505.536 38.6023C505.907 38.3333 506.093 38.0114 506.093 37.6364C506.093 37.3333 505.987 37.0795 505.775 36.875C505.563 36.6667 505.237 36.5114 504.797 36.4091L503.343 36.0682C502.544 35.8788 501.957 35.5852 501.582 35.1875C501.21 34.786 501.025 34.2841 501.025 33.6818C501.025 33.1894 501.163 32.7538 501.44 32.375C501.72 31.9962 502.101 31.6989 502.582 31.483C503.066 31.267 503.616 31.1591 504.229 31.1591C505.093 31.1591 505.771 31.3485 506.263 31.7273C506.76 32.1061 507.112 32.6061 507.32 33.2273ZM509.498 40V31.2727H510.839V40H509.498ZM510.18 29.8182C509.918 29.8182 509.693 29.7292 509.503 29.5511C509.318 29.3731 509.225 29.1591 509.225 28.9091C509.225 28.6591 509.318 28.4451 509.503 28.267C509.693 28.089 509.918 28 510.18 28C510.441 28 510.664 28.089 510.85 28.267C511.039 28.4451 511.134 28.6591 511.134 28.9091C511.134 29.1591 511.039 29.3731 510.85 29.5511C510.664 29.7292 510.441 29.8182 510.18 29.8182ZM513.045 40V38.9773L517.999 32.6136V32.5227H513.204V31.2727H519.726V32.3409L514.908 38.6591V38.75H519.886V40H513.045ZM525.36 40.1818C524.519 40.1818 523.794 39.9962 523.184 39.625C522.578 39.25 522.11 38.7273 521.78 38.0568C521.455 37.3826 521.292 36.5985 521.292 35.7045C521.292 34.8106 521.455 34.0227 521.78 33.3409C522.11 32.6553 522.568 32.1212 523.155 31.7386C523.746 31.3523 524.436 31.1591 525.224 31.1591C525.678 31.1591 526.127 31.2348 526.57 31.3864C527.013 31.5379 527.417 31.7841 527.78 32.125C528.144 32.4621 528.434 32.9091 528.65 33.4659C528.866 34.0227 528.974 34.7083 528.974 35.5227V36.0909H522.246V34.9318H527.61C527.61 34.4394 527.512 34 527.315 33.6136C527.121 33.2273 526.845 32.9223 526.485 32.6989C526.129 32.4754 525.708 32.3636 525.224 32.3636C524.69 32.3636 524.227 32.4962 523.837 32.7614C523.451 33.0227 523.154 33.3636 522.945 33.7841C522.737 34.2045 522.633 34.6553 522.633 35.1364V35.9091C522.633 36.5682 522.746 37.1269 522.974 37.5852C523.205 38.0398 523.525 38.3864 523.934 38.625C524.343 38.8598 524.818 38.9773 525.36 38.9773C525.712 38.9773 526.03 38.928 526.315 38.8295C526.602 38.7273 526.851 38.5758 527.059 38.375C527.267 38.1705 527.428 37.9167 527.542 37.6136L528.837 37.9773C528.701 38.4167 528.472 38.803 528.15 39.1364C527.828 39.4659 527.43 39.7235 526.957 39.9091C526.483 40.0909 525.951 40.1818 525.36 40.1818Z" fill="white" fill-opacity="0.95"/>
<mask id="path-6-inside-3_1743_37428" fill="white">
<path d="M866.667 0H1300V68H866.667V0Z"/>
</mask>
<path d="M1300 68V69H1301V68H1300ZM1299 0V68H1301V0H1299ZM1300 67H866.667V69H1300V67Z" fill="white" fill-opacity="0.3" mask="url(#path-6-inside-3_1743_37428)"/>
<path d="M901.962 28.3636V40H900.553V29.8409H900.485L897.644 31.7273V30.2955L900.553 28.3636H901.962ZM909.173 40.1591C908.695 40.1515 908.218 40.0606 907.741 39.8864C907.264 39.7121 906.828 39.4186 906.434 39.0057C906.04 38.589 905.724 38.0265 905.485 37.3182C905.247 36.6061 905.127 35.7121 905.127 34.6364C905.127 33.6023 905.224 32.6856 905.417 31.8864C905.61 31.0833 905.89 30.4072 906.258 29.858C906.625 29.3087 907.069 28.892 907.587 28.608C908.11 28.3239 908.699 28.1818 909.354 28.1818C910.006 28.1818 910.586 28.3125 911.093 28.5739C911.604 28.8352 912.021 29.1989 912.343 29.6648C912.665 30.1269 912.873 30.6629 912.968 31.2727H911.582C911.453 30.7386 911.203 30.2992 910.832 29.9545C910.461 29.6061 909.968 29.4318 909.354 29.4318C908.453 29.4318 907.743 29.8258 907.224 30.6136C906.709 31.3977 906.449 32.5038 906.445 33.9318H906.536C906.748 33.6098 907 33.3352 907.292 33.108C907.587 32.8769 907.913 32.6989 908.269 32.5739C908.625 32.4489 909.002 32.3864 909.4 32.3864C910.067 32.3864 910.676 32.553 911.229 32.8864C911.783 33.2159 912.226 33.6723 912.559 34.2557C912.892 34.8352 913.059 35.5 913.059 36.25C913.059 36.9697 912.898 37.6288 912.576 38.2273C912.254 38.822 911.801 39.2955 911.218 39.6477C910.639 39.9962 909.957 40.1667 909.173 40.1591ZM909.173 38.9091C909.65 38.9091 910.078 38.7898 910.457 38.5511C910.839 38.3125 911.14 37.9924 911.36 37.5909C911.584 37.1894 911.695 36.7424 911.695 36.25C911.695 35.7689 911.587 35.3314 911.372 34.9375C911.159 34.5398 910.866 34.2235 910.491 33.9886C910.12 33.7538 909.695 33.6364 909.218 33.6364C908.858 33.6364 908.523 33.7083 908.212 33.8523C907.902 33.9924 907.629 34.1856 907.394 34.4318C907.163 34.678 906.981 34.9602 906.849 35.2784C906.716 35.5928 906.65 35.9242 906.65 36.2727C906.65 36.7348 906.758 37.1667 906.974 37.5682C907.194 37.9697 907.493 38.2936 907.872 38.5398C908.254 38.786 908.688 38.9091 909.173 38.9091ZM915.316 43.2727V31.2727H916.612V32.6591H916.771C916.869 32.5076 917.006 32.3144 917.18 32.0795C917.358 31.8409 917.612 31.6288 917.941 31.4432C918.274 31.2538 918.725 31.1591 919.293 31.1591C920.028 31.1591 920.676 31.3428 921.237 31.7102C921.797 32.0777 922.235 32.5985 922.549 33.2727C922.863 33.947 923.021 34.7424 923.021 35.6591C923.021 36.5833 922.863 37.3845 922.549 38.0625C922.235 38.7367 921.799 39.2595 921.242 39.6307C920.685 39.9981 920.043 40.1818 919.316 40.1818C918.756 40.1818 918.307 40.089 917.97 39.9034C917.632 39.714 917.373 39.5 917.191 39.2614C917.009 39.0189 916.869 38.8182 916.771 38.6591H916.657V43.2727H915.316ZM916.634 35.6364C916.634 36.2955 916.731 36.8769 916.924 37.3807C917.117 37.8807 917.399 38.2727 917.771 38.5568C918.142 38.8371 918.596 38.9773 919.134 38.9773C919.695 38.9773 920.163 38.8295 920.538 38.5341C920.917 38.2348 921.201 37.8333 921.39 37.3295C921.583 36.822 921.68 36.2576 921.68 35.6364C921.68 35.0227 921.585 34.4697 921.396 33.9773C921.21 33.4811 920.928 33.089 920.549 32.8011C920.174 32.5095 919.703 32.3636 919.134 32.3636C918.589 32.3636 918.131 32.5019 917.759 32.7784C917.388 33.0511 917.108 33.4337 916.918 33.9261C916.729 34.4148 916.634 34.9848 916.634 35.6364ZM925.707 31.2727L927.798 34.8409L929.889 31.2727H931.434L928.616 35.6364L931.434 40H929.889L927.798 36.6136L925.707 40H924.161L926.934 35.6364L924.161 31.2727H925.707ZM938.029 40V28.3636H939.37V32.6591H939.484C939.582 32.5076 939.719 32.3144 939.893 32.0795C940.071 31.8409 940.325 31.6288 940.654 31.4432C940.988 31.2538 941.438 31.1591 942.006 31.1591C942.741 31.1591 943.389 31.3428 943.95 31.7102C944.51 32.0777 944.948 32.5985 945.262 33.2727C945.577 33.947 945.734 34.7424 945.734 35.6591C945.734 36.5833 945.577 37.3845 945.262 38.0625C944.948 38.7367 944.512 39.2595 943.955 39.6307C943.399 39.9981 942.756 40.1818 942.029 40.1818C941.469 40.1818 941.02 40.089 940.683 39.9034C940.345 39.714 940.086 39.5 939.904 39.2614C939.722 39.0189 939.582 38.8182 939.484 38.6591H939.325V40H938.029ZM939.347 35.6364C939.347 36.2955 939.444 36.8769 939.637 37.3807C939.83 37.8807 940.113 38.2727 940.484 38.5568C940.855 38.8371 941.31 38.9773 941.847 38.9773C942.408 38.9773 942.876 38.8295 943.251 38.5341C943.63 38.2348 943.914 37.8333 944.103 37.3295C944.296 36.822 944.393 36.2576 944.393 35.6364C944.393 35.0227 944.298 34.4697 944.109 33.9773C943.923 33.4811 943.641 33.089 943.262 32.8011C942.887 32.5095 942.416 32.3636 941.847 32.3636C941.302 32.3636 940.844 32.5019 940.472 32.7784C940.101 33.0511 939.821 33.4337 939.631 33.9261C939.442 34.4148 939.347 34.9848 939.347 35.6364ZM948.336 43.25C948.109 43.25 947.906 43.2311 947.728 43.1932C947.55 43.1591 947.427 43.125 947.359 43.0909L947.7 41.9091C948.188 42.0341 948.595 42.0303 948.921 41.8977C949.247 41.7689 949.529 41.3788 949.768 40.7273L950.018 40.0455L946.791 31.2727H948.245L950.654 38.2273H950.745L953.154 31.2727L954.62 31.2955L950.904 41.2727C950.738 41.7159 950.531 42.0833 950.285 42.375C950.039 42.6705 949.753 42.8902 949.427 43.0341C949.105 43.178 948.741 43.25 948.336 43.25ZM964.962 28.3636V40H963.553V29.8409H963.485L960.644 31.7273V30.2955L963.553 28.3636H964.962ZM972.173 40.1591C971.695 40.1515 971.218 40.0606 970.741 39.8864C970.264 39.7121 969.828 39.4186 969.434 39.0057C969.04 38.589 968.724 38.0265 968.485 37.3182C968.247 36.6061 968.127 35.7121 968.127 34.6364C968.127 33.6023 968.224 32.6856 968.417 31.8864C968.61 31.0833 968.89 30.4072 969.258 29.858C969.625 29.3087 970.069 28.892 970.587 28.608C971.11 28.3239 971.699 28.1818 972.354 28.1818C973.006 28.1818 973.586 28.3125 974.093 28.5739C974.604 28.8352 975.021 29.1989 975.343 29.6648C975.665 30.1269 975.873 30.6629 975.968 31.2727H974.582C974.453 30.7386 974.203 30.2992 973.832 29.9545C973.461 29.6061 972.968 29.4318 972.354 29.4318C971.453 29.4318 970.743 29.8258 970.224 30.6136C969.709 31.3977 969.449 32.5038 969.445 33.9318H969.536C969.748 33.6098 970 33.3352 970.292 33.108C970.587 32.8769 970.913 32.6989 971.269 32.5739C971.625 32.4489 972.002 32.3864 972.4 32.3864C973.067 32.3864 973.676 32.553 974.229 32.8864C974.783 33.2159 975.226 33.6723 975.559 34.2557C975.892 34.8352 976.059 35.5 976.059 36.25C976.059 36.9697 975.898 37.6288 975.576 38.2273C975.254 38.822 974.801 39.2955 974.218 39.6477C973.639 39.9962 972.957 40.1667 972.173 40.1591ZM972.173 38.9091C972.65 38.9091 973.078 38.7898 973.457 38.5511C973.839 38.3125 974.14 37.9924 974.36 37.5909C974.584 37.1894 974.695 36.7424 974.695 36.25C974.695 35.7689 974.587 35.3314 974.372 34.9375C974.159 34.5398 973.866 34.2235 973.491 33.9886C973.12 33.7538 972.695 33.6364 972.218 33.6364C971.858 33.6364 971.523 33.7083 971.212 33.8523C970.902 33.9924 970.629 34.1856 970.394 34.4318C970.163 34.678 969.981 34.9602 969.849 35.2784C969.716 35.5928 969.65 35.9242 969.65 36.2727C969.65 36.7348 969.758 37.1667 969.974 37.5682C970.194 37.9697 970.493 38.2936 970.872 38.5398C971.254 38.786 971.688 38.9091 972.173 38.9091ZM978.316 43.2727V31.2727H979.612V32.6591H979.771C979.869 32.5076 980.006 32.3144 980.18 32.0795C980.358 31.8409 980.612 31.6288 980.941 31.4432C981.274 31.2538 981.725 31.1591 982.293 31.1591C983.028 31.1591 983.676 31.3428 984.237 31.7102C984.797 32.0777 985.235 32.5985 985.549 33.2727C985.863 33.947 986.021 34.7424 986.021 35.6591C986.021 36.5833 985.863 37.3845 985.549 38.0625C985.235 38.7367 984.799 39.2595 984.242 39.6307C983.685 39.9981 983.043 40.1818 982.316 40.1818C981.756 40.1818 981.307 40.089 980.97 39.9034C980.632 39.714 980.373 39.5 980.191 39.2614C980.009 39.0189 979.869 38.8182 979.771 38.6591H979.657V43.2727H978.316ZM979.634 35.6364C979.634 36.2955 979.731 36.8769 979.924 37.3807C980.117 37.8807 980.399 38.2727 980.771 38.5568C981.142 38.8371 981.596 38.9773 982.134 38.9773C982.695 38.9773 983.163 38.8295 983.538 38.5341C983.917 38.2348 984.201 37.8333 984.39 37.3295C984.583 36.822 984.68 36.2576 984.68 35.6364C984.68 35.0227 984.585 34.4697 984.396 33.9773C984.21 33.4811 983.928 33.089 983.549 32.8011C983.174 32.5095 982.703 32.3636 982.134 32.3636C981.589 32.3636 981.131 32.5019 980.759 32.7784C980.388 33.0511 980.108 33.4337 979.918 33.9261C979.729 34.4148 979.634 34.9848 979.634 35.6364ZM988.707 31.2727L990.798 34.8409L992.889 31.2727H994.434L991.616 35.6364L994.434 40H992.889L990.798 36.6136L988.707 40H987.161L989.934 35.6364L987.161 31.2727H988.707Z" fill="white" fill-opacity="0.95"/>
</svg>
