<svg width="1300" height="68" viewBox="0 0 1300 68" fill="none" xmlns="http://www.w3.org/2000/svg">
<rect width="1300" height="68" fill="#1A1A1A"/>
<mask id="path-1-inside-1_1743_37408" fill="white">
<path d="M0 0H433.333V68H0V0Z"/>
</mask>
<path d="M432.333 0V68H434.333V0H432.333Z" fill="#707070" mask="url(#path-1-inside-1_1743_37408)"/>
<mask id="path-3-inside-2_1743_37408" fill="white">
<path d="M433.333 0H866.666V68H433.333V0Z"/>
</mask>
<path d="M866.666 68V69H867.666V68H866.666ZM865.666 0V68H867.666V0H865.666ZM866.666 67H433.333V69H866.666V67Z" fill="#707070" mask="url(#path-3-inside-2_1743_37408)"/>
<path d="M474.56 34.1818C474.56 35.4091 474.339 36.4697 473.896 37.3636C473.452 38.2576 472.844 38.947 472.072 39.4318C471.299 39.9167 470.416 40.1591 469.424 40.1591C468.431 40.1591 467.549 39.9167 466.776 39.4318C466.003 38.947 465.396 38.2576 464.952 37.3636C464.509 36.4697 464.288 35.4091 464.288 34.1818C464.288 32.9545 464.509 31.8939 464.952 31C465.396 30.1061 466.003 29.4167 466.776 28.9318C467.549 28.447 468.431 28.2045 469.424 28.2045C470.416 28.2045 471.299 28.447 472.072 28.9318C472.844 29.4167 473.452 30.1061 473.896 31C474.339 31.8939 474.56 32.9545 474.56 34.1818ZM473.197 34.1818C473.197 33.1742 473.028 32.3239 472.691 31.6307C472.358 30.9375 471.905 30.4129 471.333 30.0568C470.765 29.7008 470.128 29.5227 469.424 29.5227C468.719 29.5227 468.081 29.7008 467.509 30.0568C466.941 30.4129 466.488 30.9375 466.151 31.6307C465.818 32.3239 465.651 33.1742 465.651 34.1818C465.651 35.1894 465.818 36.0398 466.151 36.733C466.488 37.4261 466.941 37.9508 467.509 38.3068C468.081 38.6629 468.719 38.8409 469.424 38.8409C470.128 38.8409 470.765 38.6629 471.333 38.3068C471.905 37.9508 472.358 37.4261 472.691 36.733C473.028 36.0398 473.197 35.1894 473.197 34.1818ZM482.248 36.4318V31.2727H483.589V40H482.248V38.5227H482.157C481.952 38.9659 481.634 39.3428 481.202 39.6534C480.771 39.9602 480.225 40.1136 479.566 40.1136C479.021 40.1136 478.536 39.9943 478.111 39.7557C477.687 39.5133 477.354 39.1496 477.111 38.6648C476.869 38.1761 476.748 37.5606 476.748 36.8182V31.2727H478.089V36.7273C478.089 37.3636 478.267 37.8712 478.623 38.25C478.983 38.6288 479.441 38.8182 479.998 38.8182C480.331 38.8182 480.67 38.733 481.015 38.5625C481.363 38.392 481.655 38.1307 481.89 37.7784C482.128 37.4261 482.248 36.9773 482.248 36.4318ZM489.84 31.2727V32.4091H485.317V31.2727H489.84ZM486.636 29.1818H487.976V37.5C487.976 37.8788 488.031 38.1629 488.141 38.3523C488.255 38.5379 488.399 38.6629 488.573 38.7273C488.751 38.7879 488.939 38.8182 489.136 38.8182C489.283 38.8182 489.405 38.8106 489.499 38.7955C489.594 38.7765 489.67 38.7614 489.726 38.75L489.999 39.9545C489.908 39.9886 489.781 40.0227 489.619 40.0568C489.456 40.0947 489.249 40.1136 488.999 40.1136C488.62 40.1136 488.249 40.0322 487.886 39.8693C487.526 39.7064 487.226 39.4583 486.988 39.125C486.753 38.7917 486.636 38.3712 486.636 37.8636V29.1818ZM493.386 28.3636V40H492.045V28.3636H493.386ZM495.842 40V31.2727H497.182V40H495.842ZM496.523 29.8182C496.262 29.8182 496.037 29.7292 495.847 29.5511C495.662 29.3731 495.569 29.1591 495.569 28.9091C495.569 28.6591 495.662 28.4451 495.847 28.267C496.037 28.089 496.262 28 496.523 28C496.785 28 497.008 28.089 497.194 28.267C497.383 28.4451 497.478 28.6591 497.478 28.9091C497.478 29.1591 497.383 29.3731 497.194 29.5511C497.008 29.7292 496.785 29.8182 496.523 29.8182ZM500.979 34.75V40H499.638V31.2727H500.934V32.6364H501.047C501.252 32.1932 501.563 31.8371 501.979 31.5682C502.396 31.2955 502.934 31.1591 503.593 31.1591C504.184 31.1591 504.701 31.2803 505.144 31.5227C505.587 31.7614 505.932 32.125 506.178 32.6136C506.424 33.0985 506.547 33.7121 506.547 34.4545V40H505.207V34.5455C505.207 33.8598 505.029 33.3258 504.672 32.9432C504.316 32.5568 503.828 32.3636 503.207 32.3636C502.779 32.3636 502.396 32.4564 502.059 32.642C501.726 32.8277 501.462 33.0985 501.269 33.4545C501.076 33.8106 500.979 34.2424 500.979 34.75ZM512.657 40.1818C511.816 40.1818 511.091 39.9962 510.481 39.625C509.875 39.25 509.407 38.7273 509.077 38.0568C508.752 37.3826 508.589 36.5985 508.589 35.7045C508.589 34.8106 508.752 34.0227 509.077 33.3409C509.407 32.6553 509.865 32.1212 510.452 31.7386C511.043 31.3523 511.733 31.1591 512.521 31.1591C512.975 31.1591 513.424 31.2348 513.867 31.3864C514.31 31.5379 514.714 31.7841 515.077 32.125C515.441 32.4621 515.731 32.9091 515.947 33.4659C516.163 34.0227 516.271 34.7083 516.271 35.5227V36.0909H509.543V34.9318H514.907C514.907 34.4394 514.808 34 514.611 33.6136C514.418 33.2273 514.142 32.9223 513.782 32.6989C513.426 32.4754 513.005 32.3636 512.521 32.3636C511.986 32.3636 511.524 32.4962 511.134 32.7614C510.748 33.0227 510.45 33.3636 510.242 33.7841C510.034 34.2045 509.93 34.6553 509.93 35.1364V35.9091C509.93 36.5682 510.043 37.1269 510.271 37.5852C510.502 38.0398 510.822 38.3864 511.231 38.625C511.64 38.8598 512.115 38.9773 512.657 38.9773C513.009 38.9773 513.327 38.928 513.611 38.8295C513.899 38.7273 514.147 38.5758 514.356 38.375C514.564 38.1705 514.725 37.9167 514.839 37.6136L516.134 37.9773C515.998 38.4167 515.769 38.803 515.447 39.1364C515.125 39.4659 514.727 39.7235 514.253 39.9091C513.78 40.0909 513.248 40.1818 512.657 40.1818ZM528.992 33.2273L527.788 33.5682C527.712 33.3674 527.6 33.1723 527.452 32.983C527.308 32.7898 527.111 32.6307 526.861 32.5057C526.611 32.3807 526.291 32.3182 525.901 32.3182C525.367 32.3182 524.922 32.4413 524.566 32.6875C524.214 32.9299 524.038 33.2386 524.038 33.6136C524.038 33.947 524.159 34.2102 524.401 34.4034C524.644 34.5966 525.022 34.7576 525.538 34.8864L526.833 35.2045C527.613 35.3939 528.195 35.6837 528.577 36.0739C528.96 36.4602 529.151 36.9583 529.151 37.5682C529.151 38.0682 529.007 38.5152 528.719 38.9091C528.435 39.303 528.038 39.6136 527.526 39.8409C527.015 40.0682 526.42 40.1818 525.742 40.1818C524.852 40.1818 524.115 39.9886 523.532 39.6023C522.949 39.2159 522.579 38.6515 522.424 37.9091L523.697 37.5909C523.818 38.0606 524.047 38.4129 524.384 38.6477C524.725 38.8826 525.17 39 525.719 39C526.344 39 526.841 38.8674 527.208 38.6023C527.579 38.3333 527.765 38.0114 527.765 37.6364C527.765 37.3333 527.659 37.0795 527.447 36.875C527.235 36.6667 526.909 36.5114 526.469 36.4091L525.015 36.0682C524.216 35.8788 523.628 35.5852 523.253 35.1875C522.882 34.786 522.697 34.2841 522.697 33.6818C522.697 33.1894 522.835 32.7538 523.111 32.375C523.392 31.9962 523.772 31.6989 524.253 31.483C524.738 31.267 525.288 31.1591 525.901 31.1591C526.765 31.1591 527.443 31.3485 527.935 31.7273C528.431 32.1061 528.784 32.6061 528.992 33.2273ZM534.965 31.2727V32.4091H530.442V31.2727H534.965ZM531.761 29.1818H533.101V37.5C533.101 37.8788 533.156 38.1629 533.266 38.3523C533.38 38.5379 533.524 38.6629 533.698 38.7273C533.876 38.7879 534.064 38.8182 534.261 38.8182C534.408 38.8182 534.53 38.8106 534.624 38.7955C534.719 38.7765 534.795 38.7614 534.851 38.75L535.124 39.9545C535.033 39.9886 534.906 40.0227 534.744 40.0568C534.581 40.0947 534.374 40.1136 534.124 40.1136C533.745 40.1136 533.374 40.0322 533.011 39.8693C532.651 39.7064 532.351 39.4583 532.113 39.125C531.878 38.7917 531.761 38.3712 531.761 37.8636V29.1818ZM536.982 40V31.2727H538.278V32.5909H538.369C538.528 32.1591 538.815 31.8087 539.232 31.5398C539.649 31.2708 540.119 31.1364 540.641 31.1364C540.74 31.1364 540.863 31.1383 541.011 31.142C541.158 31.1458 541.27 31.1515 541.346 31.1591V32.5227C541.3 32.5114 541.196 32.4943 541.033 32.4716C540.874 32.4451 540.706 32.4318 540.528 32.4318C540.103 32.4318 539.725 32.5208 539.391 32.6989C539.062 32.8731 538.8 33.1155 538.607 33.4261C538.418 33.733 538.323 34.0833 538.323 34.4773V40H536.982ZM546.215 40.1818C545.427 40.1818 544.736 39.9943 544.141 39.6193C543.55 39.2443 543.088 38.7197 542.755 38.0455C542.425 37.3712 542.261 36.5833 542.261 35.6818C542.261 34.7727 542.425 33.9792 542.755 33.3011C543.088 32.6231 543.55 32.0966 544.141 31.7216C544.736 31.3466 545.427 31.1591 546.215 31.1591C547.003 31.1591 547.692 31.3466 548.283 31.7216C548.878 32.0966 549.34 32.6231 549.67 33.3011C550.003 33.9792 550.17 34.7727 550.17 35.6818C550.17 36.5833 550.003 37.3712 549.67 38.0455C549.34 38.7197 548.878 39.2443 548.283 39.6193C547.692 39.9943 547.003 40.1818 546.215 40.1818ZM546.215 38.9773C546.814 38.9773 547.306 38.8239 547.692 38.517C548.079 38.2102 548.365 37.8068 548.55 37.3068C548.736 36.8068 548.829 36.2652 548.829 35.6818C548.829 35.0985 548.736 34.5549 548.55 34.0511C548.365 33.5473 548.079 33.1402 547.692 32.8295C547.306 32.5189 546.814 32.3636 546.215 32.3636C545.617 32.3636 545.124 32.5189 544.738 32.8295C544.351 33.1402 544.065 33.5473 543.88 34.0511C543.694 34.5549 543.601 35.0985 543.601 35.6818C543.601 36.2652 543.694 36.8068 543.88 37.3068C544.065 37.8068 544.351 38.2102 544.738 38.517C545.124 38.8239 545.617 38.9773 546.215 38.9773ZM553.467 36.8182L553.444 35.1591H553.717L557.535 31.2727H559.194L555.126 35.3864H555.012L553.467 36.8182ZM552.217 40V28.3636H553.557V40H552.217ZM557.762 40L554.353 35.6818L555.307 34.75L559.467 40H557.762ZM564.219 40.1818C563.378 40.1818 562.653 39.9962 562.043 39.625C561.437 39.25 560.969 38.7273 560.64 38.0568C560.314 37.3826 560.151 36.5985 560.151 35.7045C560.151 34.8106 560.314 34.0227 560.64 33.3409C560.969 32.6553 561.428 32.1212 562.015 31.7386C562.606 31.3523 563.295 31.1591 564.083 31.1591C564.538 31.1591 564.986 31.2348 565.43 31.3864C565.873 31.5379 566.276 31.7841 566.64 32.125C567.003 32.4621 567.293 32.9091 567.509 33.4659C567.725 34.0227 567.833 34.7083 567.833 35.5227V36.0909H561.106V34.9318H566.469C566.469 34.4394 566.371 34 566.174 33.6136C565.981 33.2273 565.704 32.9223 565.344 32.6989C564.988 32.4754 564.568 32.3636 564.083 32.3636C563.549 32.3636 563.087 32.4962 562.697 32.7614C562.31 33.0227 562.013 33.3636 561.805 33.7841C561.596 34.2045 561.492 34.6553 561.492 35.1364V35.9091C561.492 36.5682 561.606 37.1269 561.833 37.5852C562.064 38.0398 562.384 38.3864 562.793 38.625C563.202 38.8598 563.678 38.9773 564.219 38.9773C564.572 38.9773 564.89 38.928 565.174 38.8295C565.462 38.7273 565.71 38.5758 565.918 38.375C566.127 38.1705 566.288 37.9167 566.401 37.6136L567.697 37.9773C567.56 38.4167 567.331 38.803 567.009 39.1364C566.687 39.4659 566.289 39.7235 565.816 39.9091C565.342 40.0909 564.81 40.1818 564.219 40.1818Z" fill="white" fill-opacity="0.95"/>
<mask id="path-6-inside-3_1743_37408" fill="white">
<path d="M866.667 0H1300V68H866.667V0Z"/>
</mask>
<path d="M1300 68V69H1301V68H1300ZM1299 0V68H1301V0H1299ZM1300 67H866.667V69H1300V67Z" fill="white" fill-opacity="0.3" mask="url(#path-6-inside-3_1743_37408)"/>
<path d="M901.962 28.3636V40H900.553V29.8409H900.485L897.644 31.7273V30.2955L900.553 28.3636H901.962ZM905.332 43.2727V31.2727H906.627V32.6591H906.786C906.885 32.5076 907.021 32.3144 907.195 32.0795C907.373 31.8409 907.627 31.6288 907.957 31.4432C908.29 31.2538 908.741 31.1591 909.309 31.1591C910.044 31.1591 910.692 31.3428 911.252 31.7102C911.813 32.0777 912.25 32.5985 912.565 33.2727C912.879 33.947 913.036 34.7424 913.036 35.6591C913.036 36.5833 912.879 37.3845 912.565 38.0625C912.25 38.7367 911.815 39.2595 911.258 39.6307C910.701 39.9981 910.059 40.1818 909.332 40.1818C908.771 40.1818 908.322 40.089 907.985 39.9034C907.648 39.714 907.389 39.5 907.207 39.2614C907.025 39.0189 906.885 38.8182 906.786 38.6591H906.673V43.2727H905.332ZM906.65 35.6364C906.65 36.2955 906.747 36.8769 906.94 37.3807C907.133 37.8807 907.415 38.2727 907.786 38.5568C908.158 38.8371 908.612 38.9773 909.15 38.9773C909.711 38.9773 910.178 38.8295 910.553 38.5341C910.932 38.2348 911.216 37.8333 911.406 37.3295C911.599 36.822 911.695 36.2576 911.695 35.6364C911.695 35.0227 911.601 34.4697 911.411 33.9773C911.226 33.4811 910.944 33.089 910.565 32.8011C910.19 32.5095 909.718 32.3636 909.15 32.3636C908.604 32.3636 908.146 32.5019 907.775 32.7784C907.404 33.0511 907.123 33.4337 906.934 33.9261C906.745 34.4148 906.65 34.9848 906.65 35.6364ZM915.722 31.2727L917.813 34.8409L919.904 31.2727H921.45L918.631 35.6364L921.45 40H919.904L917.813 36.6136L915.722 40H914.177L916.95 35.6364L914.177 31.2727H915.722Z" fill="white" fill-opacity="0.95"/>
</svg>
