<svg width="1300" height="56" viewBox="0 0 1300 56" fill="none" xmlns="http://www.w3.org/2000/svg">
<mask id="path-1-inside-1_1745_40296" fill="white">
<path d="M0 0H325V56H0V0Z"/>
</mask>
<path d="M0 0H325V56H0V0Z" fill="#1A1A1A"/>
<path d="M324 0V56H326V0H324Z" fill="#707070" mask="url(#path-1-inside-1_1745_40296)"/>
<path d="M31.2045 34V32.9773L35.0455 28.7727C35.4962 28.2803 35.8674 27.8523 36.1591 27.4886C36.4508 27.1212 36.6667 26.7765 36.8068 26.4545C36.9508 26.1288 37.0227 25.7879 37.0227 25.4318C37.0227 25.0227 36.9242 24.6686 36.7273 24.3693C36.5341 24.0701 36.2689 23.839 35.9318 23.6761C35.5947 23.5133 35.2159 23.4318 34.7955 23.4318C34.3485 23.4318 33.9583 23.5246 33.625 23.7102C33.2955 23.892 33.0398 24.1477 32.858 24.4773C32.6799 24.8068 32.5909 25.1932 32.5909 25.6364H31.25C31.25 24.9545 31.4072 24.3561 31.7216 23.8409C32.036 23.3258 32.464 22.9242 33.0057 22.6364C33.5511 22.3485 34.1629 22.2045 34.8409 22.2045C35.5227 22.2045 36.1269 22.3485 36.6534 22.6364C37.1799 22.9242 37.5928 23.3125 37.892 23.8011C38.1913 24.2898 38.3409 24.8333 38.3409 25.4318C38.3409 25.8598 38.2633 26.2784 38.108 26.6875C37.9564 27.0928 37.6913 27.5455 37.3125 28.0455C36.9375 28.5417 36.4167 29.1477 35.75 29.8636L33.1364 32.6591V32.75H38.5455V34H31.2045ZM41.892 34.0909C41.6117 34.0909 41.3712 33.9905 41.1705 33.7898C40.9697 33.589 40.8693 33.3485 40.8693 33.0682C40.8693 32.7879 40.9697 32.5473 41.1705 32.3466C41.3712 32.1458 41.6117 32.0455 41.892 32.0455C42.1723 32.0455 42.4129 32.1458 42.6136 32.3466C42.8144 32.5473 42.9148 32.7879 42.9148 33.0682C42.9148 33.2538 42.8674 33.4242 42.7727 33.5795C42.6818 33.7348 42.5587 33.8598 42.4034 33.9545C42.2519 34.0455 42.0814 34.0909 41.892 34.0909ZM56.3665 25.2727C56.2983 24.697 56.0218 24.25 55.5369 23.9318C55.0521 23.6136 54.4574 23.4545 53.7528 23.4545C53.2377 23.4545 52.7869 23.5379 52.4006 23.7045C52.018 23.8712 51.7188 24.1004 51.5028 24.392C51.2907 24.6837 51.1847 25.0152 51.1847 25.3864C51.1847 25.697 51.2585 25.964 51.4062 26.1875C51.5578 26.4072 51.7509 26.5909 51.9858 26.7386C52.2206 26.8826 52.4669 27.0019 52.7244 27.0966C52.982 27.1875 53.2188 27.2614 53.4347 27.3182L54.6165 27.6364C54.9195 27.7159 55.2566 27.8258 55.6278 27.9659C56.0028 28.1061 56.3608 28.2973 56.7017 28.5398C57.0464 28.7784 57.3305 29.0852 57.554 29.4602C57.7775 29.8352 57.8892 30.2955 57.8892 30.8409C57.8892 31.4697 57.7244 32.0379 57.3949 32.5455C57.0691 33.053 56.5919 33.4564 55.9631 33.7557C55.3381 34.0549 54.5786 34.2045 53.6847 34.2045C52.8513 34.2045 52.1297 34.0701 51.5199 33.8011C50.9138 33.5322 50.4366 33.1572 50.0881 32.6761C49.7434 32.1951 49.5483 31.6364 49.5028 31H50.9574C50.9953 31.4394 51.143 31.803 51.4006 32.0909C51.6619 32.375 51.9915 32.5871 52.3892 32.7273C52.7907 32.8636 53.2225 32.9318 53.6847 32.9318C54.2225 32.9318 54.7055 32.8447 55.1335 32.6705C55.5616 32.4924 55.9006 32.2462 56.1506 31.9318C56.4006 31.6136 56.5256 31.2424 56.5256 30.8182C56.5256 30.4318 56.4176 30.1174 56.2017 29.875C55.9858 29.6326 55.7017 29.4356 55.3494 29.2841C54.9972 29.1326 54.6165 29 54.2074 28.8864L52.7756 28.4773C51.8665 28.2159 51.1468 27.8428 50.6165 27.358C50.0862 26.8731 49.821 26.2386 49.821 25.4545C49.821 24.803 49.9972 24.2348 50.3494 23.75C50.7055 23.2614 51.1828 22.8826 51.7812 22.6136C52.3835 22.3409 53.0559 22.2045 53.7983 22.2045C54.5483 22.2045 55.215 22.339 55.7983 22.608C56.3816 22.8731 56.8438 23.2367 57.1847 23.6989C57.5294 24.161 57.7112 24.6856 57.7301 25.2727H56.3665ZM63.8196 25.2727V26.4091H59.2969V25.2727H63.8196ZM60.6151 23.1818H61.956V31.5C61.956 31.8788 62.0109 32.1629 62.1207 32.3523C62.2344 32.5379 62.3783 32.6629 62.5526 32.7273C62.7306 32.7879 62.9181 32.8182 63.1151 32.8182C63.2628 32.8182 63.384 32.8106 63.4787 32.7955C63.5734 32.7765 63.6491 32.7614 63.706 32.75L63.9787 33.9545C63.8878 33.9886 63.7609 34.0227 63.598 34.0568C63.4351 34.0947 63.2287 34.1136 62.9787 34.1136C62.5999 34.1136 62.2287 34.0322 61.8651 33.8693C61.5052 33.7064 61.206 33.4583 60.9673 33.125C60.7325 32.7917 60.6151 32.3712 60.6151 31.8636V23.1818ZM68.4048 34.2045C67.8518 34.2045 67.3499 34.1004 66.8991 33.892C66.4484 33.6799 66.0904 33.375 65.8253 32.9773C65.5601 32.5758 65.4276 32.0909 65.4276 31.5227C65.4276 31.0227 65.526 30.6174 65.723 30.3068C65.92 29.9924 66.1832 29.7462 66.5128 29.5682C66.8423 29.3902 67.206 29.2576 67.6037 29.1705C68.0052 29.0795 68.4086 29.0076 68.8139 28.9545C69.3442 28.8864 69.7741 28.8352 70.1037 28.8011C70.437 28.7633 70.6795 28.7008 70.831 28.6136C70.9863 28.5265 71.0639 28.375 71.0639 28.1591V28.1136C71.0639 27.553 70.9105 27.1174 70.6037 26.8068C70.3007 26.4962 69.8404 26.3409 69.223 26.3409C68.5829 26.3409 68.081 26.4811 67.7173 26.7614C67.3537 27.0417 67.098 27.3409 66.9503 27.6591L65.6776 27.2045C65.9048 26.6742 66.2079 26.2614 66.5866 25.9659C66.9692 25.6667 67.3859 25.4583 67.8366 25.3409C68.2912 25.2197 68.7382 25.1591 69.1776 25.1591C69.4579 25.1591 69.7798 25.1932 70.1435 25.2614C70.5109 25.3258 70.8651 25.4602 71.206 25.6648C71.5507 25.8693 71.8366 26.178 72.0639 26.5909C72.2912 27.0038 72.4048 27.5568 72.4048 28.25V34H71.0639V32.8182H70.9957C70.9048 33.0076 70.7533 33.2102 70.5412 33.4261C70.3291 33.642 70.0469 33.8258 69.6946 33.9773C69.3423 34.1288 68.9124 34.2045 68.4048 34.2045ZM68.6094 33C69.1397 33 69.5866 32.8958 69.9503 32.6875C70.3177 32.4792 70.5942 32.2102 70.7798 31.8807C70.9692 31.5511 71.0639 31.2045 71.0639 30.8409V29.6136C71.0071 29.6818 70.8821 29.7443 70.6889 29.8011C70.4995 29.8542 70.2798 29.9015 70.0298 29.9432C69.7836 29.9811 69.5431 30.0152 69.3082 30.0455C69.0772 30.072 68.8897 30.0947 68.7457 30.1136C68.3973 30.1591 68.0715 30.233 67.7685 30.3352C67.4692 30.4337 67.2268 30.5833 67.0412 30.7841C66.8594 30.9811 66.7685 31.25 66.7685 31.5909C66.7685 32.0568 66.9408 32.4091 67.2855 32.6477C67.634 32.8826 68.0753 33 68.6094 33ZM78.6477 25.2727V26.4091H74.125V25.2727H78.6477ZM75.4432 23.1818H76.7841V31.5C76.7841 31.8788 76.839 32.1629 76.9489 32.3523C77.0625 32.5379 77.2064 32.6629 77.3807 32.7273C77.5587 32.7879 77.7462 32.8182 77.9432 32.8182C78.0909 32.8182 78.2121 32.8106 78.3068 32.7955C78.4015 32.7765 78.4773 32.7614 78.5341 32.75L78.8068 33.9545C78.7159 33.9886 78.589 34.0227 78.4261 34.0568C78.2633 34.0947 78.0568 34.1136 77.8068 34.1136C77.428 34.1136 77.0568 34.0322 76.6932 33.8693C76.3333 33.7064 76.0341 33.4583 75.7955 33.125C75.5606 32.7917 75.4432 32.3712 75.4432 31.8636V23.1818ZM84.2301 34.1818C83.3892 34.1818 82.6638 33.9962 82.054 33.625C81.4479 33.25 80.9801 32.7273 80.6506 32.0568C80.3248 31.3826 80.1619 30.5985 80.1619 29.7045C80.1619 28.8106 80.3248 28.0227 80.6506 27.3409C80.9801 26.6553 81.4384 26.1212 82.0256 25.7386C82.6165 25.3523 83.3059 25.1591 84.0938 25.1591C84.5483 25.1591 84.9972 25.2348 85.4403 25.3864C85.8835 25.5379 86.2869 25.7841 86.6506 26.125C87.0142 26.4621 87.304 26.9091 87.5199 27.4659C87.7358 28.0227 87.8438 28.7083 87.8438 29.5227V30.0909H81.1165V28.9318H86.4801C86.4801 28.4394 86.3816 28 86.1847 27.6136C85.9915 27.2273 85.715 26.9223 85.3551 26.6989C84.9991 26.4754 84.5786 26.3636 84.0938 26.3636C83.5597 26.3636 83.0975 26.4962 82.7074 26.7614C82.321 27.0227 82.0237 27.3636 81.8153 27.7841C81.607 28.2045 81.5028 28.6553 81.5028 29.1364V29.9091C81.5028 30.5682 81.6165 31.1269 81.8438 31.5852C82.0748 32.0398 82.3949 32.3864 82.804 32.625C83.2131 32.8598 83.6884 32.9773 84.2301 32.9773C84.5824 32.9773 84.9006 32.928 85.1847 32.8295C85.4725 32.7273 85.7206 32.5758 85.929 32.375C86.1373 32.1705 86.2983 31.9167 86.4119 31.6136L87.7074 31.9773C87.571 32.4167 87.3419 32.803 87.0199 33.1364C86.6979 33.4659 86.3002 33.7235 85.8267 33.9091C85.3532 34.0909 84.821 34.1818 84.2301 34.1818ZM103.793 22.3636V34H102.429L96.0881 24.8636H95.9744V34H94.5653V22.3636H95.929L102.293 31.5227H102.406V22.3636H103.793ZM108.999 34.2045C108.446 34.2045 107.944 34.1004 107.493 33.892C107.042 33.6799 106.684 33.375 106.419 32.9773C106.154 32.5758 106.021 32.0909 106.021 31.5227C106.021 31.0227 106.12 30.6174 106.317 30.3068C106.514 29.9924 106.777 29.7462 107.107 29.5682C107.436 29.3902 107.8 29.2576 108.197 29.1705C108.599 29.0795 109.002 29.0076 109.408 28.9545C109.938 28.8864 110.368 28.8352 110.697 28.8011C111.031 28.7633 111.273 28.7008 111.425 28.6136C111.58 28.5265 111.658 28.375 111.658 28.1591V28.1136C111.658 27.553 111.504 27.1174 111.197 26.8068C110.894 26.4962 110.434 26.3409 109.817 26.3409C109.177 26.3409 108.675 26.4811 108.311 26.7614C107.947 27.0417 107.692 27.3409 107.544 27.6591L106.271 27.2045C106.499 26.6742 106.802 26.2614 107.18 25.9659C107.563 25.6667 107.98 25.4583 108.43 25.3409C108.885 25.2197 109.332 25.1591 109.771 25.1591C110.052 25.1591 110.374 25.1932 110.737 25.2614C111.105 25.3258 111.459 25.4602 111.8 25.6648C112.144 25.8693 112.43 26.178 112.658 26.5909C112.885 27.0038 112.999 27.5568 112.999 28.25V34H111.658V32.8182H111.589C111.499 33.0076 111.347 33.2102 111.135 33.4261C110.923 33.642 110.641 33.8258 110.288 33.9773C109.936 34.1288 109.506 34.2045 108.999 34.2045ZM109.203 33C109.733 33 110.18 32.8958 110.544 32.6875C110.911 32.4792 111.188 32.2102 111.374 31.8807C111.563 31.5511 111.658 31.2045 111.658 30.8409V29.6136C111.601 29.6818 111.476 29.7443 111.283 29.8011C111.093 29.8542 110.874 29.9015 110.624 29.9432C110.377 29.9811 110.137 30.0152 109.902 30.0455C109.671 30.072 109.483 30.0947 109.339 30.1136C108.991 30.1591 108.665 30.233 108.362 30.3352C108.063 30.4337 107.821 30.5833 107.635 30.7841C107.453 30.9811 107.362 31.25 107.362 31.5909C107.362 32.0568 107.535 32.4091 107.879 32.6477C108.228 32.8826 108.669 33 109.203 33ZM115.446 34V25.2727H116.741V26.6364H116.855C117.037 26.1705 117.33 25.8087 117.736 25.5511C118.141 25.2898 118.628 25.1591 119.196 25.1591C119.772 25.1591 120.251 25.2898 120.634 25.5511C121.02 25.8087 121.321 26.1705 121.537 26.6364H121.628C121.851 26.1856 122.187 25.8277 122.634 25.5625C123.08 25.2936 123.616 25.1591 124.241 25.1591C125.022 25.1591 125.66 25.4034 126.156 25.892C126.652 26.3769 126.901 27.1326 126.901 28.1591V34H125.56V28.1591C125.56 27.5152 125.384 27.0549 125.031 26.7784C124.679 26.5019 124.264 26.3636 123.787 26.3636C123.173 26.3636 122.698 26.5492 122.361 26.9205C122.024 27.2879 121.855 27.7538 121.855 28.3182V34H120.491V28.0227C120.491 27.5265 120.33 27.1269 120.009 26.8239C119.687 26.517 119.272 26.3636 118.764 26.3636C118.416 26.3636 118.09 26.4564 117.787 26.642C117.488 26.8277 117.245 27.0852 117.06 27.4148C116.878 27.7405 116.787 28.1174 116.787 28.5455V34H115.446ZM133.011 34.1818C132.17 34.1818 131.445 33.9962 130.835 33.625C130.229 33.25 129.761 32.7273 129.432 32.0568C129.106 31.3826 128.943 30.5985 128.943 29.7045C128.943 28.8106 129.106 28.0227 129.432 27.3409C129.761 26.6553 130.22 26.1212 130.807 25.7386C131.398 25.3523 132.087 25.1591 132.875 25.1591C133.33 25.1591 133.778 25.2348 134.222 25.3864C134.665 25.5379 135.068 25.7841 135.432 26.125C135.795 26.4621 136.085 26.9091 136.301 27.4659C136.517 28.0227 136.625 28.7083 136.625 29.5227V30.0909H129.898V28.9318H135.261C135.261 28.4394 135.163 28 134.966 27.6136C134.773 27.2273 134.496 26.9223 134.136 26.6989C133.78 26.4754 133.36 26.3636 132.875 26.3636C132.341 26.3636 131.879 26.4962 131.489 26.7614C131.102 27.0227 130.805 27.3636 130.597 27.7841C130.388 28.2045 130.284 28.6553 130.284 29.1364V29.9091C130.284 30.5682 130.398 31.1269 130.625 31.5852C130.856 32.0398 131.176 32.3864 131.585 32.625C131.994 32.8598 132.47 32.9773 133.011 32.9773C133.364 32.9773 133.682 32.928 133.966 32.8295C134.254 32.7273 134.502 32.5758 134.71 32.375C134.919 32.1705 135.08 31.9167 135.193 31.6136L136.489 31.9773C136.352 32.4167 136.123 32.803 135.801 33.1364C135.479 33.4659 135.081 33.7235 134.608 33.9091C134.134 34.0909 133.602 34.1818 133.011 34.1818Z" fill="white" fill-opacity="0.95"/>
<mask id="path-4-inside-2_1745_40296" fill="white">
<path d="M325 0H650V56H325V0Z"/>
</mask>
<path d="M325 0H650V56H325V0Z" fill="#1A1A1A"/>
<path d="M650 56V57H651V56H650ZM649 0V56H651V0H649ZM650 55H325V57H650V55Z" fill="#707070" mask="url(#path-4-inside-2_1745_40296)"/>
<path d="M356.409 34V22.3636H360.477C361.288 22.3636 361.956 22.5038 362.483 22.7841C363.009 23.0606 363.402 23.4337 363.659 23.9034C363.917 24.3693 364.045 24.8864 364.045 25.4545C364.045 25.9545 363.956 26.3674 363.778 26.6932C363.604 27.0189 363.373 27.2765 363.085 27.4659C362.801 27.6553 362.492 27.7955 362.159 27.8864V28C362.515 28.0227 362.873 28.1477 363.233 28.375C363.593 28.6023 363.894 28.928 364.136 29.3523C364.379 29.7765 364.5 30.2955 364.5 30.9091C364.5 31.4924 364.367 32.017 364.102 32.483C363.837 32.9489 363.419 33.3182 362.847 33.5909C362.275 33.8636 361.53 34 360.614 34H356.409ZM357.818 32.75H360.614C361.534 32.75 362.188 32.572 362.574 32.2159C362.964 31.8561 363.159 31.4205 363.159 30.9091C363.159 30.5152 363.059 30.1515 362.858 29.8182C362.657 29.4811 362.371 29.2121 362 29.0114C361.629 28.8068 361.189 28.7045 360.682 28.7045H357.818V32.75ZM357.818 27.4773H360.432C360.856 27.4773 361.239 27.3939 361.58 27.2273C361.924 27.0606 362.197 26.8258 362.398 26.5227C362.602 26.2197 362.705 25.8636 362.705 25.4545C362.705 24.9432 362.527 24.5095 362.17 24.1534C361.814 23.7936 361.25 23.6136 360.477 23.6136H357.818V27.4773ZM370.179 34.1818C369.391 34.1818 368.7 33.9943 368.105 33.6193C367.514 33.2443 367.052 32.7197 366.719 32.0455C366.389 31.3712 366.224 30.5833 366.224 29.6818C366.224 28.7727 366.389 27.9792 366.719 27.3011C367.052 26.6231 367.514 26.0966 368.105 25.7216C368.7 25.3466 369.391 25.1591 370.179 25.1591C370.967 25.1591 371.656 25.3466 372.247 25.7216C372.842 26.0966 373.304 26.6231 373.634 27.3011C373.967 27.9792 374.134 28.7727 374.134 29.6818C374.134 30.5833 373.967 31.3712 373.634 32.0455C373.304 32.7197 372.842 33.2443 372.247 33.6193C371.656 33.9943 370.967 34.1818 370.179 34.1818ZM370.179 32.9773C370.777 32.9773 371.27 32.8239 371.656 32.517C372.043 32.2102 372.329 31.8068 372.514 31.3068C372.7 30.8068 372.793 30.2652 372.793 29.6818C372.793 29.0985 372.7 28.5549 372.514 28.0511C372.329 27.5473 372.043 27.1402 371.656 26.8295C371.27 26.5189 370.777 26.3636 370.179 26.3636C369.58 26.3636 369.088 26.5189 368.702 26.8295C368.315 27.1402 368.029 27.5473 367.844 28.0511C367.658 28.5549 367.565 29.0985 367.565 29.6818C367.565 30.2652 367.658 30.8068 367.844 31.3068C368.029 31.8068 368.315 32.2102 368.702 32.517C369.088 32.8239 369.58 32.9773 370.179 32.9773ZM379.476 34.1818C378.749 34.1818 378.107 33.9981 377.55 33.6307C376.993 33.2595 376.557 32.7367 376.243 32.0625C375.929 31.3845 375.771 30.5833 375.771 29.6591C375.771 28.7424 375.929 27.947 376.243 27.2727C376.557 26.5985 376.995 26.0777 377.555 25.7102C378.116 25.3428 378.764 25.1591 379.499 25.1591C380.067 25.1591 380.516 25.2538 380.845 25.4432C381.179 25.6288 381.432 25.8409 381.607 26.0795C381.785 26.3144 381.923 26.5076 382.021 26.6591H382.135V22.3636H383.476V34H382.18V32.6591H382.021C381.923 32.8182 381.783 33.0189 381.601 33.2614C381.419 33.5 381.16 33.714 380.822 33.9034C380.485 34.089 380.036 34.1818 379.476 34.1818ZM379.658 32.9773C380.196 32.9773 380.65 32.8371 381.021 32.5568C381.393 32.2727 381.675 31.8807 381.868 31.3807C382.061 30.8769 382.158 30.2955 382.158 29.6364C382.158 28.9848 382.063 28.4148 381.874 27.9261C381.684 27.4337 381.404 27.0511 381.033 26.7784C380.661 26.5019 380.203 26.3636 379.658 26.3636C379.089 26.3636 378.616 26.5095 378.237 26.8011C377.862 27.089 377.58 27.4811 377.391 27.9773C377.205 28.4697 377.112 29.0227 377.112 29.6364C377.112 30.2576 377.207 30.822 377.396 31.3295C377.589 31.8333 377.874 32.2348 378.249 32.5341C378.627 32.8295 379.097 32.9773 379.658 32.9773ZM386.982 37.2727C386.754 37.2727 386.552 37.2538 386.374 37.2159C386.196 37.1818 386.072 37.1477 386.004 37.1136L386.345 35.9318C386.671 36.0152 386.959 36.0455 387.209 36.0227C387.459 36 387.68 35.8883 387.874 35.6875C388.071 35.4905 388.25 35.1705 388.413 34.7273L388.663 34.0455L385.436 25.2727H386.891L389.3 32.2273H389.391L391.8 25.2727H393.254L389.55 35.2727C389.383 35.7235 389.177 36.0966 388.93 36.392C388.684 36.6913 388.398 36.9129 388.072 37.0568C387.75 37.2008 387.387 37.2727 386.982 37.2727ZM409.07 26H407.661C407.577 25.5947 407.431 25.2386 407.223 24.9318C407.018 24.625 406.768 24.3674 406.473 24.1591C406.181 23.947 405.857 23.7879 405.501 23.6818C405.145 23.5758 404.774 23.5227 404.388 23.5227C403.683 23.5227 403.045 23.7008 402.473 24.0568C401.905 24.4129 401.452 24.9375 401.115 25.6307C400.782 26.3239 400.615 27.1742 400.615 28.1818C400.615 29.1894 400.782 30.0398 401.115 30.733C401.452 31.4261 401.905 31.9508 402.473 32.3068C403.045 32.6629 403.683 32.8409 404.388 32.8409C404.774 32.8409 405.145 32.7879 405.501 32.6818C405.857 32.5758 406.181 32.4186 406.473 32.2102C406.768 31.9981 407.018 31.7386 407.223 31.4318C407.431 31.1212 407.577 30.7652 407.661 30.3636H409.07C408.964 30.9583 408.77 31.4905 408.49 31.9602C408.21 32.4299 407.861 32.8295 407.445 33.1591C407.028 33.4848 406.56 33.733 406.041 33.9034C405.526 34.0739 404.975 34.1591 404.388 34.1591C403.395 34.1591 402.513 33.9167 401.74 33.4318C400.967 32.947 400.359 32.2576 399.916 31.3636C399.473 30.4697 399.251 29.4091 399.251 28.1818C399.251 26.9545 399.473 25.8939 399.916 25C400.359 24.1061 400.967 23.4167 401.74 22.9318C402.513 22.447 403.395 22.2045 404.388 22.2045C404.975 22.2045 405.526 22.2898 406.041 22.4602C406.56 22.6307 407.028 22.8807 407.445 23.2102C407.861 23.536 408.21 23.9337 408.49 24.4034C408.77 24.8693 408.964 25.4015 409.07 26ZM414.824 34.1818C413.983 34.1818 413.258 33.9962 412.648 33.625C412.042 33.25 411.574 32.7273 411.244 32.0568C410.919 31.3826 410.756 30.5985 410.756 29.7045C410.756 28.8106 410.919 28.0227 411.244 27.3409C411.574 26.6553 412.032 26.1212 412.619 25.7386C413.21 25.3523 413.9 25.1591 414.688 25.1591C415.142 25.1591 415.591 25.2348 416.034 25.3864C416.477 25.5379 416.881 25.7841 417.244 26.125C417.608 26.4621 417.898 26.9091 418.114 27.4659C418.33 28.0227 418.438 28.7083 418.438 29.5227V30.0909H411.71V28.9318H417.074C417.074 28.4394 416.975 28 416.778 27.6136C416.585 27.2273 416.309 26.9223 415.949 26.6989C415.593 26.4754 415.172 26.3636 414.688 26.3636C414.153 26.3636 413.691 26.4962 413.301 26.7614C412.915 27.0227 412.617 27.3636 412.409 27.7841C412.201 28.2045 412.097 28.6553 412.097 29.1364V29.9091C412.097 30.5682 412.21 31.1269 412.438 31.5852C412.669 32.0398 412.989 32.3864 413.398 32.625C413.807 32.8598 414.282 32.9773 414.824 32.9773C415.176 32.9773 415.494 32.928 415.778 32.8295C416.066 32.7273 416.314 32.5758 416.523 32.375C416.731 32.1705 416.892 31.9167 417.006 31.6136L418.301 31.9773C418.165 32.4167 417.936 32.803 417.614 33.1364C417.292 33.4659 416.894 33.7235 416.42 33.9091C415.947 34.0909 415.415 34.1818 414.824 34.1818ZM421.818 22.3636V34H420.477V22.3636H421.818ZM425.615 22.3636V34H424.274V22.3636H425.615Z" fill="white" fill-opacity="0.95"/>
<mask id="path-7-inside-3_1745_40296" fill="white">
<path d="M650 0H975V56H650V0Z"/>
</mask>
<path d="M650 0H975V56H650V0Z" fill="#1A1A1A"/>
<path d="M975 56V57H976V56H975ZM974 0V56H976V0H974ZM975 55H650V57H975V55Z" fill="#707070" mask="url(#path-7-inside-3_1745_40296)"/>
<path d="M681.409 34V22.3636H685.477C686.288 22.3636 686.956 22.5038 687.483 22.7841C688.009 23.0606 688.402 23.4337 688.659 23.9034C688.917 24.3693 689.045 24.8864 689.045 25.4545C689.045 25.9545 688.956 26.3674 688.778 26.6932C688.604 27.0189 688.373 27.2765 688.085 27.4659C687.801 27.6553 687.492 27.7955 687.159 27.8864V28C687.515 28.0227 687.873 28.1477 688.233 28.375C688.593 28.6023 688.894 28.928 689.136 29.3523C689.379 29.7765 689.5 30.2955 689.5 30.9091C689.5 31.4924 689.367 32.017 689.102 32.483C688.837 32.9489 688.419 33.3182 687.847 33.5909C687.275 33.8636 686.53 34 685.614 34H681.409ZM682.818 32.75H685.614C686.534 32.75 687.188 32.572 687.574 32.2159C687.964 31.8561 688.159 31.4205 688.159 30.9091C688.159 30.5152 688.059 30.1515 687.858 29.8182C687.657 29.4811 687.371 29.2121 687 29.0114C686.629 28.8068 686.189 28.7045 685.682 28.7045H682.818V32.75ZM682.818 27.4773H685.432C685.856 27.4773 686.239 27.3939 686.58 27.2273C686.924 27.0606 687.197 26.8258 687.398 26.5227C687.602 26.2197 687.705 25.8636 687.705 25.4545C687.705 24.9432 687.527 24.5095 687.17 24.1534C686.814 23.7936 686.25 23.6136 685.477 23.6136H682.818V27.4773ZM695.179 34.1818C694.391 34.1818 693.7 33.9943 693.105 33.6193C692.514 33.2443 692.052 32.7197 691.719 32.0455C691.389 31.3712 691.224 30.5833 691.224 29.6818C691.224 28.7727 691.389 27.9792 691.719 27.3011C692.052 26.6231 692.514 26.0966 693.105 25.7216C693.7 25.3466 694.391 25.1591 695.179 25.1591C695.967 25.1591 696.656 25.3466 697.247 25.7216C697.842 26.0966 698.304 26.6231 698.634 27.3011C698.967 27.9792 699.134 28.7727 699.134 29.6818C699.134 30.5833 698.967 31.3712 698.634 32.0455C698.304 32.7197 697.842 33.2443 697.247 33.6193C696.656 33.9943 695.967 34.1818 695.179 34.1818ZM695.179 32.9773C695.777 32.9773 696.27 32.8239 696.656 32.517C697.043 32.2102 697.329 31.8068 697.514 31.3068C697.7 30.8068 697.793 30.2652 697.793 29.6818C697.793 29.0985 697.7 28.5549 697.514 28.0511C697.329 27.5473 697.043 27.1402 696.656 26.8295C696.27 26.5189 695.777 26.3636 695.179 26.3636C694.58 26.3636 694.088 26.5189 693.702 26.8295C693.315 27.1402 693.029 27.5473 692.844 28.0511C692.658 28.5549 692.565 29.0985 692.565 29.6818C692.565 30.2652 692.658 30.8068 692.844 31.3068C693.029 31.8068 693.315 32.2102 693.702 32.517C694.088 32.8239 694.58 32.9773 695.179 32.9773ZM704.476 34.1818C703.749 34.1818 703.107 33.9981 702.55 33.6307C701.993 33.2595 701.557 32.7367 701.243 32.0625C700.929 31.3845 700.771 30.5833 700.771 29.6591C700.771 28.7424 700.929 27.947 701.243 27.2727C701.557 26.5985 701.995 26.0777 702.555 25.7102C703.116 25.3428 703.764 25.1591 704.499 25.1591C705.067 25.1591 705.516 25.2538 705.845 25.4432C706.179 25.6288 706.432 25.8409 706.607 26.0795C706.785 26.3144 706.923 26.5076 707.021 26.6591H707.135V22.3636H708.476V34H707.18V32.6591H707.021C706.923 32.8182 706.783 33.0189 706.601 33.2614C706.419 33.5 706.16 33.714 705.822 33.9034C705.485 34.089 705.036 34.1818 704.476 34.1818ZM704.658 32.9773C705.196 32.9773 705.65 32.8371 706.021 32.5568C706.393 32.2727 706.675 31.8807 706.868 31.3807C707.061 30.8769 707.158 30.2955 707.158 29.6364C707.158 28.9848 707.063 28.4148 706.874 27.9261C706.684 27.4337 706.404 27.0511 706.033 26.7784C705.661 26.5019 705.203 26.3636 704.658 26.3636C704.089 26.3636 703.616 26.5095 703.237 26.8011C702.862 27.089 702.58 27.4811 702.391 27.9773C702.205 28.4697 702.112 29.0227 702.112 29.6364C702.112 30.2576 702.207 30.822 702.396 31.3295C702.589 31.8333 702.874 32.2348 703.249 32.5341C703.627 32.8295 704.097 32.9773 704.658 32.9773ZM711.982 37.2727C711.754 37.2727 711.552 37.2538 711.374 37.2159C711.196 37.1818 711.072 37.1477 711.004 37.1136L711.345 35.9318C711.671 36.0152 711.959 36.0455 712.209 36.0227C712.459 36 712.68 35.8883 712.874 35.6875C713.071 35.4905 713.25 35.1705 713.413 34.7273L713.663 34.0455L710.436 25.2727H711.891L714.3 32.2273H714.391L716.8 25.2727H718.254L714.55 35.2727C714.383 35.7235 714.177 36.0966 713.93 36.392C713.684 36.6913 713.398 36.9129 713.072 37.0568C712.75 37.2008 712.387 37.2727 711.982 37.2727ZM734.07 26H732.661C732.577 25.5947 732.431 25.2386 732.223 24.9318C732.018 24.625 731.768 24.3674 731.473 24.1591C731.181 23.947 730.857 23.7879 730.501 23.6818C730.145 23.5758 729.774 23.5227 729.388 23.5227C728.683 23.5227 728.045 23.7008 727.473 24.0568C726.905 24.4129 726.452 24.9375 726.115 25.6307C725.782 26.3239 725.615 27.1742 725.615 28.1818C725.615 29.1894 725.782 30.0398 726.115 30.733C726.452 31.4261 726.905 31.9508 727.473 32.3068C728.045 32.6629 728.683 32.8409 729.388 32.8409C729.774 32.8409 730.145 32.7879 730.501 32.6818C730.857 32.5758 731.181 32.4186 731.473 32.2102C731.768 31.9981 732.018 31.7386 732.223 31.4318C732.431 31.1212 732.577 30.7652 732.661 30.3636H734.07C733.964 30.9583 733.77 31.4905 733.49 31.9602C733.21 32.4299 732.861 32.8295 732.445 33.1591C732.028 33.4848 731.56 33.733 731.041 33.9034C730.526 34.0739 729.975 34.1591 729.388 34.1591C728.395 34.1591 727.513 33.9167 726.74 33.4318C725.967 32.947 725.359 32.2576 724.916 31.3636C724.473 30.4697 724.251 29.4091 724.251 28.1818C724.251 26.9545 724.473 25.8939 724.916 25C725.359 24.1061 725.967 23.4167 726.74 22.9318C727.513 22.447 728.395 22.2045 729.388 22.2045C729.975 22.2045 730.526 22.2898 731.041 22.4602C731.56 22.6307 732.028 22.8807 732.445 23.2102C732.861 23.536 733.21 23.9337 733.49 24.4034C733.77 24.8693 733.964 25.4015 734.07 26ZM739.824 34.1818C738.983 34.1818 738.258 33.9962 737.648 33.625C737.042 33.25 736.574 32.7273 736.244 32.0568C735.919 31.3826 735.756 30.5985 735.756 29.7045C735.756 28.8106 735.919 28.0227 736.244 27.3409C736.574 26.6553 737.032 26.1212 737.619 25.7386C738.21 25.3523 738.9 25.1591 739.688 25.1591C740.142 25.1591 740.591 25.2348 741.034 25.3864C741.477 25.5379 741.881 25.7841 742.244 26.125C742.608 26.4621 742.898 26.9091 743.114 27.4659C743.33 28.0227 743.438 28.7083 743.438 29.5227V30.0909H736.71V28.9318H742.074C742.074 28.4394 741.975 28 741.778 27.6136C741.585 27.2273 741.309 26.9223 740.949 26.6989C740.593 26.4754 740.172 26.3636 739.688 26.3636C739.153 26.3636 738.691 26.4962 738.301 26.7614C737.915 27.0227 737.617 27.3636 737.409 27.7841C737.201 28.2045 737.097 28.6553 737.097 29.1364V29.9091C737.097 30.5682 737.21 31.1269 737.438 31.5852C737.669 32.0398 737.989 32.3864 738.398 32.625C738.807 32.8598 739.282 32.9773 739.824 32.9773C740.176 32.9773 740.494 32.928 740.778 32.8295C741.066 32.7273 741.314 32.5758 741.523 32.375C741.731 32.1705 741.892 31.9167 742.006 31.6136L743.301 31.9773C743.165 32.4167 742.936 32.803 742.614 33.1364C742.292 33.4659 741.894 33.7235 741.42 33.9091C740.947 34.0909 740.415 34.1818 739.824 34.1818ZM746.818 22.3636V34H745.477V22.3636H746.818ZM750.615 22.3636V34H749.274V22.3636H750.615Z" fill="white" fill-opacity="0.95"/>
<mask id="path-10-inside-4_1745_40296" fill="white">
<path d="M975 0H1300V56H975V0Z"/>
</mask>
<path d="M975 0H1300V56H975V0Z" fill="#1A1A1A"/>
<path d="M1300 55H975V57H1300V55Z" fill="#707070" mask="url(#path-10-inside-4_1745_40296)"/>
<path d="M1006.41 34V22.3636H1010.48C1011.29 22.3636 1011.96 22.5038 1012.48 22.7841C1013.01 23.0606 1013.4 23.4337 1013.66 23.9034C1013.92 24.3693 1014.05 24.8864 1014.05 25.4545C1014.05 25.9545 1013.96 26.3674 1013.78 26.6932C1013.6 27.0189 1013.37 27.2765 1013.09 27.4659C1012.8 27.6553 1012.49 27.7955 1012.16 27.8864V28C1012.52 28.0227 1012.87 28.1477 1013.23 28.375C1013.59 28.6023 1013.89 28.928 1014.14 29.3523C1014.38 29.7765 1014.5 30.2955 1014.5 30.9091C1014.5 31.4924 1014.37 32.017 1014.1 32.483C1013.84 32.9489 1013.42 33.3182 1012.85 33.5909C1012.27 33.8636 1011.53 34 1010.61 34H1006.41ZM1007.82 32.75H1010.61C1011.53 32.75 1012.19 32.572 1012.57 32.2159C1012.96 31.8561 1013.16 31.4205 1013.16 30.9091C1013.16 30.5152 1013.06 30.1515 1012.86 29.8182C1012.66 29.4811 1012.37 29.2121 1012 29.0114C1011.63 28.8068 1011.19 28.7045 1010.68 28.7045H1007.82V32.75ZM1007.82 27.4773H1010.43C1010.86 27.4773 1011.24 27.3939 1011.58 27.2273C1011.92 27.0606 1012.2 26.8258 1012.4 26.5227C1012.6 26.2197 1012.7 25.8636 1012.7 25.4545C1012.7 24.9432 1012.53 24.5095 1012.17 24.1534C1011.81 23.7936 1011.25 23.6136 1010.48 23.6136H1007.82V27.4773ZM1020.18 34.1818C1019.39 34.1818 1018.7 33.9943 1018.11 33.6193C1017.51 33.2443 1017.05 32.7197 1016.72 32.0455C1016.39 31.3712 1016.22 30.5833 1016.22 29.6818C1016.22 28.7727 1016.39 27.9792 1016.72 27.3011C1017.05 26.6231 1017.51 26.0966 1018.11 25.7216C1018.7 25.3466 1019.39 25.1591 1020.18 25.1591C1020.97 25.1591 1021.66 25.3466 1022.25 25.7216C1022.84 26.0966 1023.3 26.6231 1023.63 27.3011C1023.97 27.9792 1024.13 28.7727 1024.13 29.6818C1024.13 30.5833 1023.97 31.3712 1023.63 32.0455C1023.3 32.7197 1022.84 33.2443 1022.25 33.6193C1021.66 33.9943 1020.97 34.1818 1020.18 34.1818ZM1020.18 32.9773C1020.78 32.9773 1021.27 32.8239 1021.66 32.517C1022.04 32.2102 1022.33 31.8068 1022.51 31.3068C1022.7 30.8068 1022.79 30.2652 1022.79 29.6818C1022.79 29.0985 1022.7 28.5549 1022.51 28.0511C1022.33 27.5473 1022.04 27.1402 1021.66 26.8295C1021.27 26.5189 1020.78 26.3636 1020.18 26.3636C1019.58 26.3636 1019.09 26.5189 1018.7 26.8295C1018.32 27.1402 1018.03 27.5473 1017.84 28.0511C1017.66 28.5549 1017.57 29.0985 1017.57 29.6818C1017.57 30.2652 1017.66 30.8068 1017.84 31.3068C1018.03 31.8068 1018.32 32.2102 1018.7 32.517C1019.09 32.8239 1019.58 32.9773 1020.18 32.9773ZM1029.48 34.1818C1028.75 34.1818 1028.11 33.9981 1027.55 33.6307C1026.99 33.2595 1026.56 32.7367 1026.24 32.0625C1025.93 31.3845 1025.77 30.5833 1025.77 29.6591C1025.77 28.7424 1025.93 27.947 1026.24 27.2727C1026.56 26.5985 1026.99 26.0777 1027.56 25.7102C1028.12 25.3428 1028.76 25.1591 1029.5 25.1591C1030.07 25.1591 1030.52 25.2538 1030.85 25.4432C1031.18 25.6288 1031.43 25.8409 1031.61 26.0795C1031.78 26.3144 1031.92 26.5076 1032.02 26.6591H1032.13V22.3636H1033.48V34H1032.18V32.6591H1032.02C1031.92 32.8182 1031.78 33.0189 1031.6 33.2614C1031.42 33.5 1031.16 33.714 1030.82 33.9034C1030.49 34.089 1030.04 34.1818 1029.48 34.1818ZM1029.66 32.9773C1030.2 32.9773 1030.65 32.8371 1031.02 32.5568C1031.39 32.2727 1031.67 31.8807 1031.87 31.3807C1032.06 30.8769 1032.16 30.2955 1032.16 29.6364C1032.16 28.9848 1032.06 28.4148 1031.87 27.9261C1031.68 27.4337 1031.4 27.0511 1031.03 26.7784C1030.66 26.5019 1030.2 26.3636 1029.66 26.3636C1029.09 26.3636 1028.62 26.5095 1028.24 26.8011C1027.86 27.089 1027.58 27.4811 1027.39 27.9773C1027.21 28.4697 1027.11 29.0227 1027.11 29.6364C1027.11 30.2576 1027.21 30.822 1027.4 31.3295C1027.59 31.8333 1027.87 32.2348 1028.25 32.5341C1028.63 32.8295 1029.1 32.9773 1029.66 32.9773ZM1036.98 37.2727C1036.75 37.2727 1036.55 37.2538 1036.37 37.2159C1036.2 37.1818 1036.07 37.1477 1036 37.1136L1036.35 35.9318C1036.67 36.0152 1036.96 36.0455 1037.21 36.0227C1037.46 36 1037.68 35.8883 1037.87 35.6875C1038.07 35.4905 1038.25 35.1705 1038.41 34.7273L1038.66 34.0455L1035.44 25.2727H1036.89L1039.3 32.2273H1039.39L1041.8 25.2727H1043.25L1039.55 35.2727C1039.38 35.7235 1039.18 36.0966 1038.93 36.392C1038.68 36.6913 1038.4 36.9129 1038.07 37.0568C1037.75 37.2008 1037.39 37.2727 1036.98 37.2727ZM1059.07 26H1057.66C1057.58 25.5947 1057.43 25.2386 1057.22 24.9318C1057.02 24.625 1056.77 24.3674 1056.47 24.1591C1056.18 23.947 1055.86 23.7879 1055.5 23.6818C1055.15 23.5758 1054.77 23.5227 1054.39 23.5227C1053.68 23.5227 1053.04 23.7008 1052.47 24.0568C1051.9 24.4129 1051.45 24.9375 1051.12 25.6307C1050.78 26.3239 1050.62 27.1742 1050.62 28.1818C1050.62 29.1894 1050.78 30.0398 1051.12 30.733C1051.45 31.4261 1051.9 31.9508 1052.47 32.3068C1053.04 32.6629 1053.68 32.8409 1054.39 32.8409C1054.77 32.8409 1055.15 32.7879 1055.5 32.6818C1055.86 32.5758 1056.18 32.4186 1056.47 32.2102C1056.77 31.9981 1057.02 31.7386 1057.22 31.4318C1057.43 31.1212 1057.58 30.7652 1057.66 30.3636H1059.07C1058.96 30.9583 1058.77 31.4905 1058.49 31.9602C1058.21 32.4299 1057.86 32.8295 1057.44 33.1591C1057.03 33.4848 1056.56 33.733 1056.04 33.9034C1055.53 34.0739 1054.97 34.1591 1054.39 34.1591C1053.4 34.1591 1052.51 33.9167 1051.74 33.4318C1050.97 32.947 1050.36 32.2576 1049.92 31.3636C1049.47 30.4697 1049.25 29.4091 1049.25 28.1818C1049.25 26.9545 1049.47 25.8939 1049.92 25C1050.36 24.1061 1050.97 23.4167 1051.74 22.9318C1052.51 22.447 1053.4 22.2045 1054.39 22.2045C1054.97 22.2045 1055.53 22.2898 1056.04 22.4602C1056.56 22.6307 1057.03 22.8807 1057.44 23.2102C1057.86 23.536 1058.21 23.9337 1058.49 24.4034C1058.77 24.8693 1058.96 25.4015 1059.07 26ZM1064.82 34.1818C1063.98 34.1818 1063.26 33.9962 1062.65 33.625C1062.04 33.25 1061.57 32.7273 1061.24 32.0568C1060.92 31.3826 1060.76 30.5985 1060.76 29.7045C1060.76 28.8106 1060.92 28.0227 1061.24 27.3409C1061.57 26.6553 1062.03 26.1212 1062.62 25.7386C1063.21 25.3523 1063.9 25.1591 1064.69 25.1591C1065.14 25.1591 1065.59 25.2348 1066.03 25.3864C1066.48 25.5379 1066.88 25.7841 1067.24 26.125C1067.61 26.4621 1067.9 26.9091 1068.11 27.4659C1068.33 28.0227 1068.44 28.7083 1068.44 29.5227V30.0909H1061.71V28.9318H1067.07C1067.07 28.4394 1066.98 28 1066.78 27.6136C1066.59 27.2273 1066.31 26.9223 1065.95 26.6989C1065.59 26.4754 1065.17 26.3636 1064.69 26.3636C1064.15 26.3636 1063.69 26.4962 1063.3 26.7614C1062.91 27.0227 1062.62 27.3636 1062.41 27.7841C1062.2 28.2045 1062.1 28.6553 1062.1 29.1364V29.9091C1062.1 30.5682 1062.21 31.1269 1062.44 31.5852C1062.67 32.0398 1062.99 32.3864 1063.4 32.625C1063.81 32.8598 1064.28 32.9773 1064.82 32.9773C1065.18 32.9773 1065.49 32.928 1065.78 32.8295C1066.07 32.7273 1066.31 32.5758 1066.52 32.375C1066.73 32.1705 1066.89 31.9167 1067.01 31.6136L1068.3 31.9773C1068.16 32.4167 1067.94 32.803 1067.61 33.1364C1067.29 33.4659 1066.89 33.7235 1066.42 33.9091C1065.95 34.0909 1065.41 34.1818 1064.82 34.1818ZM1071.82 22.3636V34H1070.48V22.3636H1071.82ZM1075.62 22.3636V34H1074.27V22.3636H1075.62Z" fill="white" fill-opacity="0.95"/>
</svg>
