<svg width="1300" height="62" viewBox="0 0 1300 62" fill="none" xmlns="http://www.w3.org/2000/svg">
<mask id="path-1-inside-1_1745_40306" fill="white">
<path d="M0 0H325V62H0V0Z"/>
</mask>
<path d="M0 0H325V62H0V0Z" fill="#1A1A1A"/>
<path d="M324 0V62H326V0H324Z" fill="#707070" mask="url(#path-1-inside-1_1745_40306)"/>
<mask id="path-3-inside-2_1745_40306" fill="white">
<path d="M325 0H650V62H325V0Z"/>
</mask>
<path d="M325 0H650V62H325V0Z" fill="#1A1A1A"/>
<path d="M650 62V63H651V62H650ZM649 0V62H651V0H649ZM650 61H325V63H650V61Z" fill="#707070" mask="url(#path-3-inside-2_1745_40306)"/>
<path d="M356.409 37V25.3636H360.477C361.288 25.3636 361.956 25.5038 362.483 25.7841C363.009 26.0606 363.402 26.4337 363.659 26.9034C363.917 27.3693 364.045 27.8864 364.045 28.4545C364.045 28.9545 363.956 29.3674 363.778 29.6932C363.604 30.0189 363.373 30.2765 363.085 30.4659C362.801 30.6553 362.492 30.7955 362.159 30.8864V31C362.515 31.0227 362.873 31.1477 363.233 31.375C363.593 31.6023 363.894 31.928 364.136 32.3523C364.379 32.7765 364.5 33.2955 364.5 33.9091C364.5 34.4924 364.367 35.017 364.102 35.483C363.837 35.9489 363.419 36.3182 362.847 36.5909C362.275 36.8636 361.53 37 360.614 37H356.409ZM357.818 35.75H360.614C361.534 35.75 362.188 35.572 362.574 35.2159C362.964 34.8561 363.159 34.4205 363.159 33.9091C363.159 33.5152 363.059 33.1515 362.858 32.8182C362.657 32.4811 362.371 32.2121 362 32.0114C361.629 31.8068 361.189 31.7045 360.682 31.7045H357.818V35.75ZM357.818 30.4773H360.432C360.856 30.4773 361.239 30.3939 361.58 30.2273C361.924 30.0606 362.197 29.8258 362.398 29.5227C362.602 29.2197 362.705 28.8636 362.705 28.4545C362.705 27.9432 362.527 27.5095 362.17 27.1534C361.814 26.7936 361.25 26.6136 360.477 26.6136H357.818V30.4773ZM370.179 37.1818C369.391 37.1818 368.7 36.9943 368.105 36.6193C367.514 36.2443 367.052 35.7197 366.719 35.0455C366.389 34.3712 366.224 33.5833 366.224 32.6818C366.224 31.7727 366.389 30.9792 366.719 30.3011C367.052 29.6231 367.514 29.0966 368.105 28.7216C368.7 28.3466 369.391 28.1591 370.179 28.1591C370.967 28.1591 371.656 28.3466 372.247 28.7216C372.842 29.0966 373.304 29.6231 373.634 30.3011C373.967 30.9792 374.134 31.7727 374.134 32.6818C374.134 33.5833 373.967 34.3712 373.634 35.0455C373.304 35.7197 372.842 36.2443 372.247 36.6193C371.656 36.9943 370.967 37.1818 370.179 37.1818ZM370.179 35.9773C370.777 35.9773 371.27 35.8239 371.656 35.517C372.043 35.2102 372.329 34.8068 372.514 34.3068C372.7 33.8068 372.793 33.2652 372.793 32.6818C372.793 32.0985 372.7 31.5549 372.514 31.0511C372.329 30.5473 372.043 30.1402 371.656 29.8295C371.27 29.5189 370.777 29.3636 370.179 29.3636C369.58 29.3636 369.088 29.5189 368.702 29.8295C368.315 30.1402 368.029 30.5473 367.844 31.0511C367.658 31.5549 367.565 32.0985 367.565 32.6818C367.565 33.2652 367.658 33.8068 367.844 34.3068C368.029 34.8068 368.315 35.2102 368.702 35.517C369.088 35.8239 369.58 35.9773 370.179 35.9773ZM379.476 37.1818C378.749 37.1818 378.107 36.9981 377.55 36.6307C376.993 36.2595 376.557 35.7367 376.243 35.0625C375.929 34.3845 375.771 33.5833 375.771 32.6591C375.771 31.7424 375.929 30.947 376.243 30.2727C376.557 29.5985 376.995 29.0777 377.555 28.7102C378.116 28.3428 378.764 28.1591 379.499 28.1591C380.067 28.1591 380.516 28.2538 380.845 28.4432C381.179 28.6288 381.432 28.8409 381.607 29.0795C381.785 29.3144 381.923 29.5076 382.021 29.6591H382.135V25.3636H383.476V37H382.18V35.6591H382.021C381.923 35.8182 381.783 36.0189 381.601 36.2614C381.419 36.5 381.16 36.714 380.822 36.9034C380.485 37.089 380.036 37.1818 379.476 37.1818ZM379.658 35.9773C380.196 35.9773 380.65 35.8371 381.021 35.5568C381.393 35.2727 381.675 34.8807 381.868 34.3807C382.061 33.8769 382.158 33.2955 382.158 32.6364C382.158 31.9848 382.063 31.4148 381.874 30.9261C381.684 30.4337 381.404 30.0511 381.033 29.7784C380.661 29.5019 380.203 29.3636 379.658 29.3636C379.089 29.3636 378.616 29.5095 378.237 29.8011C377.862 30.089 377.58 30.4811 377.391 30.9773C377.205 31.4697 377.112 32.0227 377.112 32.6364C377.112 33.2576 377.207 33.822 377.396 34.3295C377.589 34.8333 377.874 35.2348 378.249 35.5341C378.627 35.8295 379.097 35.9773 379.658 35.9773ZM386.982 40.2727C386.754 40.2727 386.552 40.2538 386.374 40.2159C386.196 40.1818 386.072 40.1477 386.004 40.1136L386.345 38.9318C386.671 39.0152 386.959 39.0455 387.209 39.0227C387.459 39 387.68 38.8883 387.874 38.6875C388.071 38.4905 388.25 38.1705 388.413 37.7273L388.663 37.0455L385.436 28.2727H386.891L389.3 35.2273H389.391L391.8 28.2727H393.254L389.55 38.2727C389.383 38.7235 389.177 39.0966 388.93 39.392C388.684 39.6913 388.398 39.9129 388.072 40.0568C387.75 40.2008 387.387 40.2727 386.982 40.2727ZM409.07 29H407.661C407.577 28.5947 407.431 28.2386 407.223 27.9318C407.018 27.625 406.768 27.3674 406.473 27.1591C406.181 26.947 405.857 26.7879 405.501 26.6818C405.145 26.5758 404.774 26.5227 404.388 26.5227C403.683 26.5227 403.045 26.7008 402.473 27.0568C401.905 27.4129 401.452 27.9375 401.115 28.6307C400.782 29.3239 400.615 30.1742 400.615 31.1818C400.615 32.1894 400.782 33.0398 401.115 33.733C401.452 34.4261 401.905 34.9508 402.473 35.3068C403.045 35.6629 403.683 35.8409 404.388 35.8409C404.774 35.8409 405.145 35.7879 405.501 35.6818C405.857 35.5758 406.181 35.4186 406.473 35.2102C406.768 34.9981 407.018 34.7386 407.223 34.4318C407.431 34.1212 407.577 33.7652 407.661 33.3636H409.07C408.964 33.9583 408.77 34.4905 408.49 34.9602C408.21 35.4299 407.861 35.8295 407.445 36.1591C407.028 36.4848 406.56 36.733 406.041 36.9034C405.526 37.0739 404.975 37.1591 404.388 37.1591C403.395 37.1591 402.513 36.9167 401.74 36.4318C400.967 35.947 400.359 35.2576 399.916 34.3636C399.473 33.4697 399.251 32.4091 399.251 31.1818C399.251 29.9545 399.473 28.8939 399.916 28C400.359 27.1061 400.967 26.4167 401.74 25.9318C402.513 25.447 403.395 25.2045 404.388 25.2045C404.975 25.2045 405.526 25.2898 406.041 25.4602C406.56 25.6307 407.028 25.8807 407.445 26.2102C407.861 26.536 408.21 26.9337 408.49 27.4034C408.77 27.8693 408.964 28.4015 409.07 29ZM414.824 37.1818C413.983 37.1818 413.258 36.9962 412.648 36.625C412.042 36.25 411.574 35.7273 411.244 35.0568C410.919 34.3826 410.756 33.5985 410.756 32.7045C410.756 31.8106 410.919 31.0227 411.244 30.3409C411.574 29.6553 412.032 29.1212 412.619 28.7386C413.21 28.3523 413.9 28.1591 414.688 28.1591C415.142 28.1591 415.591 28.2348 416.034 28.3864C416.477 28.5379 416.881 28.7841 417.244 29.125C417.608 29.4621 417.898 29.9091 418.114 30.4659C418.33 31.0227 418.438 31.7083 418.438 32.5227V33.0909H411.71V31.9318H417.074C417.074 31.4394 416.975 31 416.778 30.6136C416.585 30.2273 416.309 29.9223 415.949 29.6989C415.593 29.4754 415.172 29.3636 414.688 29.3636C414.153 29.3636 413.691 29.4962 413.301 29.7614C412.915 30.0227 412.617 30.3636 412.409 30.7841C412.201 31.2045 412.097 31.6553 412.097 32.1364V32.9091C412.097 33.5682 412.21 34.1269 412.438 34.5852C412.669 35.0398 412.989 35.3864 413.398 35.625C413.807 35.8598 414.282 35.9773 414.824 35.9773C415.176 35.9773 415.494 35.928 415.778 35.8295C416.066 35.7273 416.314 35.5758 416.523 35.375C416.731 35.1705 416.892 34.9167 417.006 34.6136L418.301 34.9773C418.165 35.4167 417.936 35.803 417.614 36.1364C417.292 36.4659 416.894 36.7235 416.42 36.9091C415.947 37.0909 415.415 37.1818 414.824 37.1818ZM421.818 25.3636V37H420.477V25.3636H421.818ZM425.615 25.3636V37H424.274V25.3636H425.615Z" fill="white" fill-opacity="0.95"/>
<mask id="path-6-inside-3_1745_40306" fill="white">
<path d="M650 0H975V62H650V0Z"/>
</mask>
<path d="M650 0H975V62H650V0Z" fill="#1A1A1A"/>
<path d="M975 62V63H976V62H975ZM974 0V62H976V0H974ZM975 61H650V63H975V61Z" fill="#707070" mask="url(#path-6-inside-3_1745_40306)"/>
<path d="M681.409 37V25.3636H685.477C686.288 25.3636 686.956 25.5038 687.483 25.7841C688.009 26.0606 688.402 26.4337 688.659 26.9034C688.917 27.3693 689.045 27.8864 689.045 28.4545C689.045 28.9545 688.956 29.3674 688.778 29.6932C688.604 30.0189 688.373 30.2765 688.085 30.4659C687.801 30.6553 687.492 30.7955 687.159 30.8864V31C687.515 31.0227 687.873 31.1477 688.233 31.375C688.593 31.6023 688.894 31.928 689.136 32.3523C689.379 32.7765 689.5 33.2955 689.5 33.9091C689.5 34.4924 689.367 35.017 689.102 35.483C688.837 35.9489 688.419 36.3182 687.847 36.5909C687.275 36.8636 686.53 37 685.614 37H681.409ZM682.818 35.75H685.614C686.534 35.75 687.188 35.572 687.574 35.2159C687.964 34.8561 688.159 34.4205 688.159 33.9091C688.159 33.5152 688.059 33.1515 687.858 32.8182C687.657 32.4811 687.371 32.2121 687 32.0114C686.629 31.8068 686.189 31.7045 685.682 31.7045H682.818V35.75ZM682.818 30.4773H685.432C685.856 30.4773 686.239 30.3939 686.58 30.2273C686.924 30.0606 687.197 29.8258 687.398 29.5227C687.602 29.2197 687.705 28.8636 687.705 28.4545C687.705 27.9432 687.527 27.5095 687.17 27.1534C686.814 26.7936 686.25 26.6136 685.477 26.6136H682.818V30.4773ZM695.179 37.1818C694.391 37.1818 693.7 36.9943 693.105 36.6193C692.514 36.2443 692.052 35.7197 691.719 35.0455C691.389 34.3712 691.224 33.5833 691.224 32.6818C691.224 31.7727 691.389 30.9792 691.719 30.3011C692.052 29.6231 692.514 29.0966 693.105 28.7216C693.7 28.3466 694.391 28.1591 695.179 28.1591C695.967 28.1591 696.656 28.3466 697.247 28.7216C697.842 29.0966 698.304 29.6231 698.634 30.3011C698.967 30.9792 699.134 31.7727 699.134 32.6818C699.134 33.5833 698.967 34.3712 698.634 35.0455C698.304 35.7197 697.842 36.2443 697.247 36.6193C696.656 36.9943 695.967 37.1818 695.179 37.1818ZM695.179 35.9773C695.777 35.9773 696.27 35.8239 696.656 35.517C697.043 35.2102 697.329 34.8068 697.514 34.3068C697.7 33.8068 697.793 33.2652 697.793 32.6818C697.793 32.0985 697.7 31.5549 697.514 31.0511C697.329 30.5473 697.043 30.1402 696.656 29.8295C696.27 29.5189 695.777 29.3636 695.179 29.3636C694.58 29.3636 694.088 29.5189 693.702 29.8295C693.315 30.1402 693.029 30.5473 692.844 31.0511C692.658 31.5549 692.565 32.0985 692.565 32.6818C692.565 33.2652 692.658 33.8068 692.844 34.3068C693.029 34.8068 693.315 35.2102 693.702 35.517C694.088 35.8239 694.58 35.9773 695.179 35.9773ZM704.476 37.1818C703.749 37.1818 703.107 36.9981 702.55 36.6307C701.993 36.2595 701.557 35.7367 701.243 35.0625C700.929 34.3845 700.771 33.5833 700.771 32.6591C700.771 31.7424 700.929 30.947 701.243 30.2727C701.557 29.5985 701.995 29.0777 702.555 28.7102C703.116 28.3428 703.764 28.1591 704.499 28.1591C705.067 28.1591 705.516 28.2538 705.845 28.4432C706.179 28.6288 706.432 28.8409 706.607 29.0795C706.785 29.3144 706.923 29.5076 707.021 29.6591H707.135V25.3636H708.476V37H707.18V35.6591H707.021C706.923 35.8182 706.783 36.0189 706.601 36.2614C706.419 36.5 706.16 36.714 705.822 36.9034C705.485 37.089 705.036 37.1818 704.476 37.1818ZM704.658 35.9773C705.196 35.9773 705.65 35.8371 706.021 35.5568C706.393 35.2727 706.675 34.8807 706.868 34.3807C707.061 33.8769 707.158 33.2955 707.158 32.6364C707.158 31.9848 707.063 31.4148 706.874 30.9261C706.684 30.4337 706.404 30.0511 706.033 29.7784C705.661 29.5019 705.203 29.3636 704.658 29.3636C704.089 29.3636 703.616 29.5095 703.237 29.8011C702.862 30.089 702.58 30.4811 702.391 30.9773C702.205 31.4697 702.112 32.0227 702.112 32.6364C702.112 33.2576 702.207 33.822 702.396 34.3295C702.589 34.8333 702.874 35.2348 703.249 35.5341C703.627 35.8295 704.097 35.9773 704.658 35.9773ZM711.982 40.2727C711.754 40.2727 711.552 40.2538 711.374 40.2159C711.196 40.1818 711.072 40.1477 711.004 40.1136L711.345 38.9318C711.671 39.0152 711.959 39.0455 712.209 39.0227C712.459 39 712.68 38.8883 712.874 38.6875C713.071 38.4905 713.25 38.1705 713.413 37.7273L713.663 37.0455L710.436 28.2727H711.891L714.3 35.2273H714.391L716.8 28.2727H718.254L714.55 38.2727C714.383 38.7235 714.177 39.0966 713.93 39.392C713.684 39.6913 713.398 39.9129 713.072 40.0568C712.75 40.2008 712.387 40.2727 711.982 40.2727ZM734.07 29H732.661C732.577 28.5947 732.431 28.2386 732.223 27.9318C732.018 27.625 731.768 27.3674 731.473 27.1591C731.181 26.947 730.857 26.7879 730.501 26.6818C730.145 26.5758 729.774 26.5227 729.388 26.5227C728.683 26.5227 728.045 26.7008 727.473 27.0568C726.905 27.4129 726.452 27.9375 726.115 28.6307C725.782 29.3239 725.615 30.1742 725.615 31.1818C725.615 32.1894 725.782 33.0398 726.115 33.733C726.452 34.4261 726.905 34.9508 727.473 35.3068C728.045 35.6629 728.683 35.8409 729.388 35.8409C729.774 35.8409 730.145 35.7879 730.501 35.6818C730.857 35.5758 731.181 35.4186 731.473 35.2102C731.768 34.9981 732.018 34.7386 732.223 34.4318C732.431 34.1212 732.577 33.7652 732.661 33.3636H734.07C733.964 33.9583 733.77 34.4905 733.49 34.9602C733.21 35.4299 732.861 35.8295 732.445 36.1591C732.028 36.4848 731.56 36.733 731.041 36.9034C730.526 37.0739 729.975 37.1591 729.388 37.1591C728.395 37.1591 727.513 36.9167 726.74 36.4318C725.967 35.947 725.359 35.2576 724.916 34.3636C724.473 33.4697 724.251 32.4091 724.251 31.1818C724.251 29.9545 724.473 28.8939 724.916 28C725.359 27.1061 725.967 26.4167 726.74 25.9318C727.513 25.447 728.395 25.2045 729.388 25.2045C729.975 25.2045 730.526 25.2898 731.041 25.4602C731.56 25.6307 732.028 25.8807 732.445 26.2102C732.861 26.536 733.21 26.9337 733.49 27.4034C733.77 27.8693 733.964 28.4015 734.07 29ZM739.824 37.1818C738.983 37.1818 738.258 36.9962 737.648 36.625C737.042 36.25 736.574 35.7273 736.244 35.0568C735.919 34.3826 735.756 33.5985 735.756 32.7045C735.756 31.8106 735.919 31.0227 736.244 30.3409C736.574 29.6553 737.032 29.1212 737.619 28.7386C738.21 28.3523 738.9 28.1591 739.688 28.1591C740.142 28.1591 740.591 28.2348 741.034 28.3864C741.477 28.5379 741.881 28.7841 742.244 29.125C742.608 29.4621 742.898 29.9091 743.114 30.4659C743.33 31.0227 743.438 31.7083 743.438 32.5227V33.0909H736.71V31.9318H742.074C742.074 31.4394 741.975 31 741.778 30.6136C741.585 30.2273 741.309 29.9223 740.949 29.6989C740.593 29.4754 740.172 29.3636 739.688 29.3636C739.153 29.3636 738.691 29.4962 738.301 29.7614C737.915 30.0227 737.617 30.3636 737.409 30.7841C737.201 31.2045 737.097 31.6553 737.097 32.1364V32.9091C737.097 33.5682 737.21 34.1269 737.438 34.5852C737.669 35.0398 737.989 35.3864 738.398 35.625C738.807 35.8598 739.282 35.9773 739.824 35.9773C740.176 35.9773 740.494 35.928 740.778 35.8295C741.066 35.7273 741.314 35.5758 741.523 35.375C741.731 35.1705 741.892 34.9167 742.006 34.6136L743.301 34.9773C743.165 35.4167 742.936 35.803 742.614 36.1364C742.292 36.4659 741.894 36.7235 741.42 36.9091C740.947 37.0909 740.415 37.1818 739.824 37.1818ZM746.818 25.3636V37H745.477V25.3636H746.818ZM750.615 25.3636V37H749.274V25.3636H750.615Z" fill="white" fill-opacity="0.95"/>
<mask id="path-9-inside-4_1745_40306" fill="white">
<path d="M975 0H1300V62H975V0Z"/>
</mask>
<path d="M975 0H1300V62H975V0Z" fill="#1A1A1A"/>
<path d="M1300 61H975V63H1300V61Z" fill="#707070" mask="url(#path-9-inside-4_1745_40306)"/>
<path d="M1006.41 37V25.3636H1010.48C1011.29 25.3636 1011.96 25.5038 1012.48 25.7841C1013.01 26.0606 1013.4 26.4337 1013.66 26.9034C1013.92 27.3693 1014.05 27.8864 1014.05 28.4545C1014.05 28.9545 1013.96 29.3674 1013.78 29.6932C1013.6 30.0189 1013.37 30.2765 1013.09 30.4659C1012.8 30.6553 1012.49 30.7955 1012.16 30.8864V31C1012.52 31.0227 1012.87 31.1477 1013.23 31.375C1013.59 31.6023 1013.89 31.928 1014.14 32.3523C1014.38 32.7765 1014.5 33.2955 1014.5 33.9091C1014.5 34.4924 1014.37 35.017 1014.1 35.483C1013.84 35.9489 1013.42 36.3182 1012.85 36.5909C1012.27 36.8636 1011.53 37 1010.61 37H1006.41ZM1007.82 35.75H1010.61C1011.53 35.75 1012.19 35.572 1012.57 35.2159C1012.96 34.8561 1013.16 34.4205 1013.16 33.9091C1013.16 33.5152 1013.06 33.1515 1012.86 32.8182C1012.66 32.4811 1012.37 32.2121 1012 32.0114C1011.63 31.8068 1011.19 31.7045 1010.68 31.7045H1007.82V35.75ZM1007.82 30.4773H1010.43C1010.86 30.4773 1011.24 30.3939 1011.58 30.2273C1011.92 30.0606 1012.2 29.8258 1012.4 29.5227C1012.6 29.2197 1012.7 28.8636 1012.7 28.4545C1012.7 27.9432 1012.53 27.5095 1012.17 27.1534C1011.81 26.7936 1011.25 26.6136 1010.48 26.6136H1007.82V30.4773ZM1020.18 37.1818C1019.39 37.1818 1018.7 36.9943 1018.11 36.6193C1017.51 36.2443 1017.05 35.7197 1016.72 35.0455C1016.39 34.3712 1016.22 33.5833 1016.22 32.6818C1016.22 31.7727 1016.39 30.9792 1016.72 30.3011C1017.05 29.6231 1017.51 29.0966 1018.11 28.7216C1018.7 28.3466 1019.39 28.1591 1020.18 28.1591C1020.97 28.1591 1021.66 28.3466 1022.25 28.7216C1022.84 29.0966 1023.3 29.6231 1023.63 30.3011C1023.97 30.9792 1024.13 31.7727 1024.13 32.6818C1024.13 33.5833 1023.97 34.3712 1023.63 35.0455C1023.3 35.7197 1022.84 36.2443 1022.25 36.6193C1021.66 36.9943 1020.97 37.1818 1020.18 37.1818ZM1020.18 35.9773C1020.78 35.9773 1021.27 35.8239 1021.66 35.517C1022.04 35.2102 1022.33 34.8068 1022.51 34.3068C1022.7 33.8068 1022.79 33.2652 1022.79 32.6818C1022.79 32.0985 1022.7 31.5549 1022.51 31.0511C1022.33 30.5473 1022.04 30.1402 1021.66 29.8295C1021.27 29.5189 1020.78 29.3636 1020.18 29.3636C1019.58 29.3636 1019.09 29.5189 1018.7 29.8295C1018.32 30.1402 1018.03 30.5473 1017.84 31.0511C1017.66 31.5549 1017.57 32.0985 1017.57 32.6818C1017.57 33.2652 1017.66 33.8068 1017.84 34.3068C1018.03 34.8068 1018.32 35.2102 1018.7 35.517C1019.09 35.8239 1019.58 35.9773 1020.18 35.9773ZM1029.48 37.1818C1028.75 37.1818 1028.11 36.9981 1027.55 36.6307C1026.99 36.2595 1026.56 35.7367 1026.24 35.0625C1025.93 34.3845 1025.77 33.5833 1025.77 32.6591C1025.77 31.7424 1025.93 30.947 1026.24 30.2727C1026.56 29.5985 1026.99 29.0777 1027.56 28.7102C1028.12 28.3428 1028.76 28.1591 1029.5 28.1591C1030.07 28.1591 1030.52 28.2538 1030.85 28.4432C1031.18 28.6288 1031.43 28.8409 1031.61 29.0795C1031.78 29.3144 1031.92 29.5076 1032.02 29.6591H1032.13V25.3636H1033.48V37H1032.18V35.6591H1032.02C1031.92 35.8182 1031.78 36.0189 1031.6 36.2614C1031.42 36.5 1031.16 36.714 1030.82 36.9034C1030.49 37.089 1030.04 37.1818 1029.48 37.1818ZM1029.66 35.9773C1030.2 35.9773 1030.65 35.8371 1031.02 35.5568C1031.39 35.2727 1031.67 34.8807 1031.87 34.3807C1032.06 33.8769 1032.16 33.2955 1032.16 32.6364C1032.16 31.9848 1032.06 31.4148 1031.87 30.9261C1031.68 30.4337 1031.4 30.0511 1031.03 29.7784C1030.66 29.5019 1030.2 29.3636 1029.66 29.3636C1029.09 29.3636 1028.62 29.5095 1028.24 29.8011C1027.86 30.089 1027.58 30.4811 1027.39 30.9773C1027.21 31.4697 1027.11 32.0227 1027.11 32.6364C1027.11 33.2576 1027.21 33.822 1027.4 34.3295C1027.59 34.8333 1027.87 35.2348 1028.25 35.5341C1028.63 35.8295 1029.1 35.9773 1029.66 35.9773ZM1036.98 40.2727C1036.75 40.2727 1036.55 40.2538 1036.37 40.2159C1036.2 40.1818 1036.07 40.1477 1036 40.1136L1036.35 38.9318C1036.67 39.0152 1036.96 39.0455 1037.21 39.0227C1037.46 39 1037.68 38.8883 1037.87 38.6875C1038.07 38.4905 1038.25 38.1705 1038.41 37.7273L1038.66 37.0455L1035.44 28.2727H1036.89L1039.3 35.2273H1039.39L1041.8 28.2727H1043.25L1039.55 38.2727C1039.38 38.7235 1039.18 39.0966 1038.93 39.392C1038.68 39.6913 1038.4 39.9129 1038.07 40.0568C1037.75 40.2008 1037.39 40.2727 1036.98 40.2727ZM1059.07 29H1057.66C1057.58 28.5947 1057.43 28.2386 1057.22 27.9318C1057.02 27.625 1056.77 27.3674 1056.47 27.1591C1056.18 26.947 1055.86 26.7879 1055.5 26.6818C1055.15 26.5758 1054.77 26.5227 1054.39 26.5227C1053.68 26.5227 1053.04 26.7008 1052.47 27.0568C1051.9 27.4129 1051.45 27.9375 1051.12 28.6307C1050.78 29.3239 1050.62 30.1742 1050.62 31.1818C1050.62 32.1894 1050.78 33.0398 1051.12 33.733C1051.45 34.4261 1051.9 34.9508 1052.47 35.3068C1053.04 35.6629 1053.68 35.8409 1054.39 35.8409C1054.77 35.8409 1055.15 35.7879 1055.5 35.6818C1055.86 35.5758 1056.18 35.4186 1056.47 35.2102C1056.77 34.9981 1057.02 34.7386 1057.22 34.4318C1057.43 34.1212 1057.58 33.7652 1057.66 33.3636H1059.07C1058.96 33.9583 1058.77 34.4905 1058.49 34.9602C1058.21 35.4299 1057.86 35.8295 1057.44 36.1591C1057.03 36.4848 1056.56 36.733 1056.04 36.9034C1055.53 37.0739 1054.97 37.1591 1054.39 37.1591C1053.4 37.1591 1052.51 36.9167 1051.74 36.4318C1050.97 35.947 1050.36 35.2576 1049.92 34.3636C1049.47 33.4697 1049.25 32.4091 1049.25 31.1818C1049.25 29.9545 1049.47 28.8939 1049.92 28C1050.36 27.1061 1050.97 26.4167 1051.74 25.9318C1052.51 25.447 1053.4 25.2045 1054.39 25.2045C1054.97 25.2045 1055.53 25.2898 1056.04 25.4602C1056.56 25.6307 1057.03 25.8807 1057.44 26.2102C1057.86 26.536 1058.21 26.9337 1058.49 27.4034C1058.77 27.8693 1058.96 28.4015 1059.07 29ZM1064.82 37.1818C1063.98 37.1818 1063.26 36.9962 1062.65 36.625C1062.04 36.25 1061.57 35.7273 1061.24 35.0568C1060.92 34.3826 1060.76 33.5985 1060.76 32.7045C1060.76 31.8106 1060.92 31.0227 1061.24 30.3409C1061.57 29.6553 1062.03 29.1212 1062.62 28.7386C1063.21 28.3523 1063.9 28.1591 1064.69 28.1591C1065.14 28.1591 1065.59 28.2348 1066.03 28.3864C1066.48 28.5379 1066.88 28.7841 1067.24 29.125C1067.61 29.4621 1067.9 29.9091 1068.11 30.4659C1068.33 31.0227 1068.44 31.7083 1068.44 32.5227V33.0909H1061.71V31.9318H1067.07C1067.07 31.4394 1066.98 31 1066.78 30.6136C1066.59 30.2273 1066.31 29.9223 1065.95 29.6989C1065.59 29.4754 1065.17 29.3636 1064.69 29.3636C1064.15 29.3636 1063.69 29.4962 1063.3 29.7614C1062.91 30.0227 1062.62 30.3636 1062.41 30.7841C1062.2 31.2045 1062.1 31.6553 1062.1 32.1364V32.9091C1062.1 33.5682 1062.21 34.1269 1062.44 34.5852C1062.67 35.0398 1062.99 35.3864 1063.4 35.625C1063.81 35.8598 1064.28 35.9773 1064.82 35.9773C1065.18 35.9773 1065.49 35.928 1065.78 35.8295C1066.07 35.7273 1066.31 35.5758 1066.52 35.375C1066.73 35.1705 1066.89 34.9167 1067.01 34.6136L1068.3 34.9773C1068.16 35.4167 1067.94 35.803 1067.61 36.1364C1067.29 36.4659 1066.89 36.7235 1066.42 36.9091C1065.95 37.0909 1065.41 37.1818 1064.82 37.1818ZM1071.82 25.3636V37H1070.48V25.3636H1071.82ZM1075.62 25.3636V37H1074.27V25.3636H1075.62Z" fill="white" fill-opacity="0.95"/>
</svg>
