<svg width="853" height="250" viewBox="0 0 853 250" fill="none" xmlns="http://www.w3.org/2000/svg">
<rect width="500" height="250" rx="24" fill="#262626"/>
<rect x="301.5" y="84" width="32" height="32" rx="16" fill="#DA0087"/>
<path d="M316.626 104.5V96.716L314.386 97.864V95.89L316.64 94.7H318.81V104.5H316.626Z" fill="white" fill-opacity="0.95"/>
<rect x="436.5" y="84" width="32" height="32" rx="16" fill="#DA0087"/>
<path d="M450.898 97.388H448.616C448.756 96.4173 449.241 95.666 450.072 95.134C450.735 94.7047 451.505 94.49 452.382 94.49C453.437 94.49 454.281 94.784 454.916 95.372C455.476 95.8853 455.756 96.5247 455.756 97.29C455.756 98.046 455.532 98.732 455.084 99.348C454.795 99.7307 454.141 100.417 453.124 101.406L451.766 102.722H455.686V104.5H448.896V102.722L451.262 100.398L451.584 100.076C452.424 99.2453 452.956 98.6667 453.18 98.34C453.413 98.0133 453.53 97.6633 453.53 97.29C453.53 96.898 453.404 96.5947 453.152 96.38C452.937 96.2027 452.657 96.114 452.312 96.114C451.957 96.114 451.654 96.226 451.402 96.45C451.159 96.674 450.991 96.9867 450.898 97.388Z" fill="white" fill-opacity="0.95"/>
<rect x="590.844" y="84" width="32" height="32" rx="16" fill="#DA0087"/>
<path d="M606.376 103.128C606.824 103.128 607.174 102.993 607.426 102.722C607.659 102.47 607.776 102.129 607.776 101.7C607.776 100.627 607.211 100.09 606.082 100.09H605.228V98.592H606.194C606.604 98.592 606.945 98.4567 607.216 98.186C607.468 97.9433 607.594 97.6307 607.594 97.248C607.594 96.856 607.468 96.548 607.216 96.324C607.001 96.1467 606.74 96.058 606.432 96.058C605.741 96.058 605.326 96.38 605.186 97.024H603.058C603.188 96.1933 603.599 95.5493 604.29 95.092C604.906 94.6907 605.662 94.49 606.558 94.49C607.556 94.49 608.354 94.728 608.952 95.204C609.521 95.652 609.806 96.2727 609.806 97.066C609.806 97.6353 609.586 98.1347 609.148 98.564C608.765 98.928 608.308 99.152 607.776 99.236C608.448 99.3107 609.003 99.6047 609.442 100.118C609.834 100.575 610.03 101.089 610.03 101.658C610.03 102.638 609.656 103.413 608.91 103.982C608.256 104.467 607.421 104.71 606.404 104.71C605.321 104.71 604.448 104.416 603.786 103.828C603.216 103.333 602.899 102.722 602.834 101.994H605.004C605.06 102.349 605.204 102.629 605.438 102.834C605.68 103.03 605.993 103.128 606.376 103.128Z" fill="white" fill-opacity="0.95"/>
<rect x="754.5" y="84" width="32" height="32" rx="16" fill="#DA0087"/>
<path d="M770.69 94.7H772.888V101.042H773.994V102.652H772.888V104.5H770.816V102.652H766.574V100.804L770.69 94.7ZM768.604 101.042H770.816V97.626L768.604 101.042Z" fill="white" fill-opacity="0.95"/>
<path d="M339.813 130.562C339.739 130.563 339.665 130.548 339.597 130.52C339.529 130.492 339.467 130.45 339.415 130.398C339.362 130.346 339.321 130.284 339.293 130.215C339.264 130.147 339.25 130.074 339.25 130C339.25 131.335 338.854 132.64 338.112 133.75C337.371 134.86 336.317 135.725 335.083 136.236C333.85 136.747 332.493 136.881 331.183 136.62C329.874 136.36 328.671 135.717 327.727 134.773C326.783 133.829 326.14 132.626 325.88 131.317C325.619 130.007 325.753 128.65 326.264 127.417C326.775 126.183 327.64 125.129 328.75 124.388C329.86 123.646 331.165 123.25 332.5 123.25C332.351 123.25 332.208 123.191 332.102 123.085C331.997 122.98 331.938 122.837 331.938 122.688C331.938 122.538 331.997 122.395 332.102 122.29C332.208 122.184 332.351 122.125 332.5 122.125C330.942 122.125 329.42 122.587 328.125 123.452C326.83 124.317 325.82 125.547 325.224 126.986C324.628 128.425 324.472 130.009 324.776 131.536C325.08 133.064 325.83 134.467 326.932 135.568C328.033 136.67 329.436 137.42 330.964 137.724C332.491 138.028 334.075 137.872 335.514 137.276C336.953 136.68 338.183 135.67 339.048 134.375C339.913 133.08 340.375 131.558 340.375 130C340.375 130.074 340.361 130.147 340.332 130.215C340.304 130.284 340.263 130.346 340.21 130.398C340.158 130.45 340.096 130.492 340.028 130.52C339.96 130.548 339.886 130.563 339.813 130.562Z" fill="#3B3B3B"/>
<path d="M331.938 122.688C331.937 122.761 331.952 122.835 331.98 122.903C332.008 122.971 332.05 123.033 332.102 123.085C332.154 123.138 332.216 123.179 332.285 123.207C332.353 123.236 332.426 123.25 332.5 123.25C334.29 123.252 336.005 123.964 337.271 125.229C338.536 126.495 339.248 128.21 339.25 130C339.25 130.149 339.309 130.292 339.415 130.398C339.52 130.503 339.663 130.562 339.812 130.562C339.962 130.562 340.105 130.503 340.21 130.398C340.316 130.292 340.375 130.149 340.375 130C340.373 127.912 339.542 125.91 338.066 124.434C336.59 122.958 334.588 122.127 332.5 122.125C332.426 122.125 332.353 122.139 332.285 122.168C332.216 122.196 332.154 122.237 332.102 122.29C332.05 122.342 332.008 122.404 331.98 122.472C331.952 122.54 331.937 122.614 331.938 122.688Z" fill="#3492EB"/>
<path d="M491.125 131.125C490.977 131.125 490.831 131.096 490.694 131.04C490.558 130.983 490.434 130.9 490.329 130.796C490.225 130.691 490.142 130.567 490.085 130.431C490.029 130.294 490 130.148 490 130C490 132.67 489.208 135.28 487.725 137.5C486.241 139.72 484.133 141.451 481.666 142.472C479.199 143.494 476.485 143.762 473.866 143.241C471.248 142.72 468.842 141.434 466.954 139.546C465.066 137.658 463.78 135.252 463.259 132.634C462.739 130.015 463.006 127.301 464.028 124.834C465.049 122.367 466.78 120.259 469 118.775C471.22 117.292 473.83 116.5 476.5 116.5C476.202 116.5 475.915 116.381 475.705 116.17C475.494 115.96 475.375 115.673 475.375 115.375C475.375 115.077 475.494 114.79 475.705 114.58C475.915 114.369 476.202 114.25 476.5 114.25C473.385 114.25 470.34 115.174 467.75 116.904C465.16 118.635 463.141 121.095 461.949 123.973C460.757 126.851 460.445 130.017 461.053 133.073C461.66 136.128 463.16 138.934 465.363 141.137C467.566 143.34 470.372 144.84 473.427 145.447C476.483 146.055 479.649 145.743 482.527 144.551C485.405 143.359 487.865 141.34 489.596 138.75C491.326 136.16 492.25 133.115 492.25 130C492.25 130.148 492.221 130.294 492.165 130.431C492.108 130.567 492.025 130.691 491.921 130.796C491.816 130.9 491.692 130.983 491.556 131.04C491.419 131.096 491.273 131.125 491.125 131.125Z" fill="#3B3B3B"/>
<path d="M475.375 115.375C475.375 115.523 475.404 115.669 475.46 115.806C475.517 115.942 475.6 116.066 475.704 116.171C475.809 116.275 475.933 116.358 476.069 116.415C476.206 116.471 476.352 116.5 476.5 116.5C480.079 116.504 483.511 117.927 486.042 120.458C488.573 122.989 489.996 126.421 490 130C490 130.298 490.119 130.585 490.33 130.795C490.54 131.006 490.827 131.125 491.125 131.125C491.423 131.125 491.71 131.006 491.92 130.795C492.131 130.585 492.25 130.298 492.25 130C492.245 125.824 490.584 121.821 487.632 118.868C484.679 115.916 480.676 114.255 476.5 114.25C476.352 114.25 476.206 114.279 476.069 114.335C475.933 114.392 475.809 114.475 475.704 114.579C475.6 114.684 475.517 114.808 475.46 114.944C475.404 115.081 475.375 115.227 475.375 115.375Z" fill="#3492EB"/>
<path d="M491.125 128.88C490.977 128.88 490.831 128.909 490.694 128.965C490.558 129.022 490.434 129.105 490.329 129.209C490.225 129.314 490.142 129.438 490.085 129.574C490.029 129.711 490 129.857 490 130.005C489.996 133.584 488.573 137.016 486.042 139.547C483.511 142.077 480.079 143.501 476.5 143.505C476.202 143.505 475.915 143.623 475.705 143.834C475.494 144.045 475.375 144.332 475.375 144.63C475.375 144.928 475.494 145.214 475.705 145.425C475.915 145.636 476.202 145.755 476.5 145.755C480.676 145.75 484.679 144.089 487.632 141.137C490.584 138.184 492.245 134.181 492.25 130.005C492.25 129.857 492.221 129.711 492.165 129.574C492.108 129.438 492.025 129.314 491.921 129.209C491.816 129.105 491.692 129.022 491.556 128.965C491.419 128.909 491.273 128.88 491.125 128.88Z" fill="#3492EB"/>
<path d="M461.885 128.88C462.033 128.88 462.179 128.909 462.316 128.965C462.452 129.022 462.576 129.105 462.681 129.209C462.785 129.314 462.868 129.438 462.925 129.574C462.981 129.711 463.01 129.857 463.01 130.005C463.014 133.584 464.437 137.016 466.968 139.547C469.499 142.077 472.931 143.501 476.51 143.505C476.808 143.505 477.095 143.623 477.306 143.834C477.516 144.045 477.635 144.332 477.635 144.63C477.635 144.928 477.516 145.214 477.306 145.425C477.095 145.636 476.808 145.755 476.51 145.755C472.334 145.75 468.331 144.089 465.378 141.137C462.426 138.184 460.765 134.181 460.76 130.005C460.76 129.857 460.789 129.711 460.845 129.574C460.902 129.438 460.985 129.314 461.089 129.209C461.194 129.105 461.318 129.022 461.454 128.965C461.591 128.909 461.737 128.88 461.885 128.88Z" fill="#3492EB"/>
<path d="M654.61 131.547C654.406 131.547 654.205 131.507 654.018 131.429C653.83 131.352 653.659 131.238 653.516 131.094C653.372 130.95 653.258 130.78 653.18 130.592C653.103 130.404 653.063 130.203 653.063 130C653.063 133.671 651.974 137.26 649.934 140.313C647.895 143.365 644.996 145.745 641.604 147.15C638.212 148.554 634.48 148.922 630.879 148.206C627.278 147.49 623.971 145.722 621.375 143.126C618.779 140.53 617.011 137.222 616.294 133.621C615.578 130.021 615.946 126.288 617.351 122.896C618.756 119.505 621.135 116.606 624.187 114.566C627.24 112.526 630.829 111.438 634.5 111.438C634.09 111.438 633.697 111.275 633.406 110.984C633.116 110.694 632.953 110.301 632.953 109.891C632.953 109.48 633.116 109.087 633.406 108.797C633.697 108.507 634.09 108.344 634.5 108.344C630.217 108.344 626.03 109.614 622.469 111.993C618.907 114.373 616.132 117.755 614.492 121.713C612.853 125.67 612.425 130.024 613.26 134.225C614.096 138.426 616.158 142.285 619.187 145.313C622.216 148.342 626.074 150.405 630.275 151.24C634.476 152.076 638.831 151.647 642.788 150.008C646.745 148.369 650.127 145.593 652.507 142.032C654.886 138.47 656.157 134.283 656.157 130C656.157 130.203 656.117 130.404 656.039 130.592C655.961 130.78 655.847 130.95 655.704 131.094C655.56 131.238 655.389 131.352 655.202 131.429C655.014 131.507 654.813 131.547 654.61 131.547Z" fill="#3B3B3B"/>
<path d="M632.953 109.891C632.953 110.094 632.993 110.295 633.071 110.483C633.149 110.67 633.263 110.841 633.406 110.985C633.55 111.128 633.72 111.242 633.908 111.32C634.096 111.398 634.297 111.438 634.5 111.438C639.422 111.443 644.14 113.4 647.62 116.88C651.1 120.36 653.057 125.079 653.063 130C653.063 130.41 653.226 130.804 653.516 131.094C653.806 131.384 654.199 131.547 654.61 131.547C655.02 131.547 655.413 131.384 655.703 131.094C655.994 130.804 656.156 130.41 656.156 130C656.15 124.258 653.866 118.754 649.806 114.694C645.746 110.634 640.242 108.35 634.5 108.344C634.297 108.344 634.096 108.384 633.908 108.461C633.72 108.539 633.55 108.653 633.406 108.797C633.263 108.94 633.149 109.111 633.071 109.299C632.993 109.486 632.953 109.687 632.953 109.891Z" fill="#3492EB"/>
<path d="M845.407 132.531C845.074 132.531 844.745 132.466 844.438 132.339C844.13 132.212 843.851 132.025 843.616 131.79C843.381 131.555 843.195 131.276 843.068 130.969C842.94 130.662 842.875 130.332 842.875 130C842.875 136.008 841.094 141.88 837.756 146.875C834.419 151.871 829.675 155.764 824.124 158.063C818.574 160.362 812.467 160.963 806.574 159.791C800.682 158.619 795.27 155.726 791.022 151.478C786.774 147.23 783.881 141.818 782.709 135.926C781.537 130.034 782.138 123.926 784.437 118.376C786.736 112.826 790.63 108.082 795.625 104.744C800.62 101.406 806.493 99.625 812.5 99.625C811.829 99.625 811.185 99.3583 810.71 98.8836C810.236 98.4089 809.969 97.7651 809.969 97.0938C809.969 96.4224 810.236 95.7786 810.71 95.3039C811.185 94.8292 811.829 94.5625 812.5 94.5625C805.491 94.5625 798.64 96.6409 792.812 100.535C786.985 104.429 782.442 109.963 779.76 116.439C777.078 122.914 776.376 130.039 777.744 136.914C779.111 143.788 782.486 150.102 787.442 155.058C792.398 160.014 798.713 163.389 805.587 164.757C812.461 166.124 819.586 165.422 826.062 162.74C832.537 160.058 838.072 155.516 841.965 149.688C845.859 143.86 847.938 137.009 847.938 130C847.938 130.332 847.873 130.662 847.745 130.969C847.618 131.276 847.432 131.555 847.197 131.79C846.962 132.025 846.683 132.212 846.375 132.339C846.068 132.466 845.739 132.531 845.407 132.531Z" fill="#3B3B3B"/>
<path d="M809.969 97.0938C809.969 97.4262 810.034 97.7555 810.161 98.0626C810.288 98.3698 810.475 98.649 810.71 98.884C810.945 99.1191 811.224 99.3056 811.531 99.4327C811.839 99.5599 812.168 99.6252 812.5 99.625C820.553 99.6338 828.274 102.837 833.969 108.531C839.663 114.226 842.866 121.947 842.875 130C842.875 130.671 843.142 131.315 843.617 131.79C844.091 132.265 844.735 132.531 845.406 132.531C846.078 132.531 846.722 132.265 847.196 131.79C847.671 131.315 847.938 130.671 847.938 130C847.927 120.605 844.19 111.597 837.547 104.954C830.903 98.31 821.896 94.573 812.5 94.5625C812.168 94.5623 811.839 94.6276 811.531 94.7548C811.224 94.8819 810.945 95.0684 810.71 95.3035C810.475 95.5385 810.288 95.8177 810.161 96.1249C810.034 96.432 809.969 96.7613 809.969 97.0938Z" fill="#3492EB"/>
<path d="M845.406 127.48C845.074 127.48 844.745 127.545 844.437 127.672C844.13 127.799 843.851 127.986 843.616 128.221C843.381 128.456 843.194 128.735 843.067 129.042C842.94 129.35 842.875 129.679 842.875 130.011C842.866 138.064 839.663 145.785 833.969 151.48C828.274 157.174 820.553 160.377 812.5 160.386C811.829 160.386 811.185 160.653 810.71 161.128C810.235 161.602 809.969 162.246 809.969 162.917C809.969 163.589 810.235 164.233 810.71 164.707C811.185 165.182 811.829 165.449 812.5 165.449C821.895 165.438 830.903 161.701 837.546 155.058C844.19 148.414 847.927 139.407 847.937 130.011C847.938 129.679 847.872 129.35 847.745 129.042C847.618 128.735 847.432 128.456 847.197 128.221C846.961 127.986 846.682 127.799 846.375 127.672C846.068 127.545 845.739 127.48 845.406 127.48Z" fill="#3492EB"/>
<path d="M779.616 127.48C779.949 127.48 780.278 127.545 780.585 127.672C780.892 127.799 781.171 127.986 781.407 128.221C781.642 128.456 781.828 128.735 781.955 129.042C782.082 129.35 782.148 129.679 782.147 130.011C782.156 138.064 785.359 145.785 791.054 151.48C796.748 157.174 804.469 160.377 812.522 160.386C813.194 160.386 813.838 160.653 814.312 161.128C814.787 161.602 815.054 162.246 815.054 162.917C815.054 163.589 814.787 164.233 814.312 164.707C813.838 165.182 813.194 165.449 812.522 165.449C803.127 165.438 794.12 161.701 787.476 155.058C780.832 148.414 777.096 139.407 777.085 130.011C777.085 129.679 777.15 129.35 777.277 129.042C777.404 128.735 777.591 128.456 777.826 128.221C778.061 127.986 778.34 127.799 778.647 127.672C778.955 127.545 779.284 127.48 779.616 127.48Z" fill="#3492EB"/>
</svg>
