<svg width="1300" height="110" viewBox="0 0 1300 110" fill="none" xmlns="http://www.w3.org/2000/svg">
<mask id="path-1-inside-1_1818_12072" fill="white">
<path d="M0 0H250V110H0V0Z"/>
</mask>
<path d="M0 0H250V110H0V0Z" fill="#1A1A1A"/>
<path d="M250 110V111H251V110H250ZM249 0V110H251V0H249ZM250 109H0V111H250V109Z" fill="white" fill-opacity="0.2" mask="url(#path-1-inside-1_1818_12072)"/>
<path d="M31.4091 61V49.3636H35.3409C36.2538 49.3636 37 49.5284 37.5795 49.858C38.1629 50.1837 38.5947 50.625 38.875 51.1818C39.1553 51.7386 39.2955 52.3598 39.2955 53.0455C39.2955 53.7311 39.1553 54.3542 38.875 54.9148C38.5985 55.4754 38.1705 55.9223 37.5909 56.2557C37.0114 56.5852 36.2689 56.75 35.3636 56.75H32.5455V55.5H35.3182C35.9432 55.5 36.4451 55.392 36.8239 55.1761C37.2027 54.9602 37.4773 54.6686 37.6477 54.3011C37.822 53.9299 37.9091 53.5114 37.9091 53.0455C37.9091 52.5795 37.822 52.1629 37.6477 51.7955C37.4773 51.428 37.2008 51.1402 36.8182 50.9318C36.4356 50.7197 35.928 50.6136 35.2955 50.6136H32.8182V61H31.4091ZM44.9489 61.1818C44.108 61.1818 43.3826 60.9962 42.7727 60.625C42.1667 60.25 41.6989 59.7273 41.3693 59.0568C41.0436 58.3826 40.8807 57.5985 40.8807 56.7045C40.8807 55.8106 41.0436 55.0227 41.3693 54.3409C41.6989 53.6553 42.1572 53.1212 42.7443 52.7386C43.3352 52.3523 44.0246 52.1591 44.8125 52.1591C45.267 52.1591 45.7159 52.2348 46.1591 52.3864C46.6023 52.5379 47.0057 52.7841 47.3693 53.125C47.733 53.4621 48.0227 53.9091 48.2386 54.4659C48.4545 55.0227 48.5625 55.7083 48.5625 56.5227V57.0909H41.8352V55.9318H47.1989C47.1989 55.4394 47.1004 55 46.9034 54.6136C46.7102 54.2273 46.4337 53.9223 46.0739 53.6989C45.7178 53.4754 45.2973 53.3636 44.8125 53.3636C44.2784 53.3636 43.8163 53.4962 43.4261 53.7614C43.0398 54.0227 42.7424 54.3636 42.5341 54.7841C42.3258 55.2045 42.2216 55.6553 42.2216 56.1364V56.9091C42.2216 57.5682 42.3352 58.1269 42.5625 58.5852C42.7936 59.0398 43.1136 59.3864 43.5227 59.625C43.9318 59.8598 44.4072 59.9773 44.9489 59.9773C45.3011 59.9773 45.6193 59.928 45.9034 59.8295C46.1913 59.7273 46.4394 59.5758 46.6477 59.375C46.8561 59.1705 47.017 58.9167 47.1307 58.6136L48.4261 58.9773C48.2898 59.4167 48.0606 59.803 47.7386 60.1364C47.4167 60.4659 47.0189 60.7235 46.5455 60.9091C46.072 61.0909 45.5398 61.1818 44.9489 61.1818ZM50.6023 61V52.2727H51.8977V53.5909H51.9886C52.1477 53.1591 52.4356 52.8087 52.8523 52.5398C53.2689 52.2708 53.7386 52.1364 54.2614 52.1364C54.3598 52.1364 54.483 52.1383 54.6307 52.142C54.7784 52.1458 54.8902 52.1515 54.9659 52.1591V53.5227C54.9205 53.5114 54.8163 53.4943 54.6534 53.4716C54.4943 53.4451 54.3258 53.4318 54.1477 53.4318C53.7235 53.4318 53.3447 53.5208 53.0114 53.6989C52.6818 53.8731 52.4205 54.1155 52.2273 54.4261C52.0379 54.733 51.9432 55.0833 51.9432 55.4773V61H50.6023ZM59.8352 61.1818C59.017 61.1818 58.3125 60.9886 57.7216 60.6023C57.1307 60.2159 56.6761 59.6837 56.358 59.0057C56.0398 58.3277 55.8807 57.553 55.8807 56.6818C55.8807 55.7955 56.0436 55.0133 56.3693 54.3352C56.6989 53.6534 57.1572 53.1212 57.7443 52.7386C58.3352 52.3523 59.0246 52.1591 59.8125 52.1591C60.4261 52.1591 60.9792 52.2727 61.4716 52.5C61.964 52.7273 62.3674 53.0455 62.6818 53.4545C62.9962 53.8636 63.1913 54.3409 63.267 54.8864H61.9261C61.8239 54.4886 61.5966 54.1364 61.2443 53.8295C60.8958 53.5189 60.4261 53.3636 59.8352 53.3636C59.3125 53.3636 58.8542 53.5 58.4602 53.7727C58.0701 54.0417 57.7652 54.4223 57.5455 54.9148C57.3295 55.4034 57.2216 55.9773 57.2216 56.6364C57.2216 57.3106 57.3277 57.8977 57.5398 58.3977C57.7557 58.8977 58.0587 59.286 58.4489 59.5625C58.8428 59.839 59.3049 59.9773 59.8352 59.9773C60.1837 59.9773 60.5 59.9167 60.7841 59.7955C61.0682 59.6742 61.3087 59.5 61.5057 59.2727C61.7027 59.0455 61.8428 58.7727 61.9261 58.4545H63.267C63.1913 58.9697 63.0038 59.4337 62.7045 59.8466C62.4091 60.2557 62.017 60.5814 61.5284 60.8239C61.0436 61.0625 60.4792 61.1818 59.8352 61.1818ZM68.8864 61.1818C68.0455 61.1818 67.3201 60.9962 66.7102 60.625C66.1042 60.25 65.6364 59.7273 65.3068 59.0568C64.9811 58.3826 64.8182 57.5985 64.8182 56.7045C64.8182 55.8106 64.9811 55.0227 65.3068 54.3409C65.6364 53.6553 66.0947 53.1212 66.6818 52.7386C67.2727 52.3523 67.9621 52.1591 68.75 52.1591C69.2045 52.1591 69.6534 52.2348 70.0966 52.3864C70.5398 52.5379 70.9432 52.7841 71.3068 53.125C71.6705 53.4621 71.9602 53.9091 72.1761 54.4659C72.392 55.0227 72.5 55.7083 72.5 56.5227V57.0909H65.7727V55.9318H71.1364C71.1364 55.4394 71.0379 55 70.8409 54.6136C70.6477 54.2273 70.3712 53.9223 70.0114 53.6989C69.6553 53.4754 69.2348 53.3636 68.75 53.3636C68.2159 53.3636 67.7538 53.4962 67.3636 53.7614C66.9773 54.0227 66.6799 54.3636 66.4716 54.7841C66.2633 55.2045 66.1591 55.6553 66.1591 56.1364V56.9091C66.1591 57.5682 66.2727 58.1269 66.5 58.5852C66.7311 59.0398 67.0511 59.3864 67.4602 59.625C67.8693 59.8598 68.3447 59.9773 68.8864 59.9773C69.2386 59.9773 69.5568 59.928 69.8409 59.8295C70.1288 59.7273 70.3769 59.5758 70.5852 59.375C70.7936 59.1705 70.9545 58.9167 71.0682 58.6136L72.3636 58.9773C72.2273 59.4167 71.9981 59.803 71.6761 60.1364C71.3542 60.4659 70.9564 60.7235 70.483 60.9091C70.0095 61.0909 69.4773 61.1818 68.8864 61.1818ZM75.8807 55.75V61H74.5398V52.2727H75.8352V53.6364H75.9489C76.1534 53.1932 76.464 52.8371 76.8807 52.5682C77.2973 52.2955 77.8352 52.1591 78.4943 52.1591C79.0852 52.1591 79.6023 52.2803 80.0455 52.5227C80.4886 52.7614 80.8333 53.125 81.0795 53.6136C81.3258 54.0985 81.4489 54.7121 81.4489 55.4545V61H80.108V55.5455C80.108 54.8598 79.9299 54.3258 79.5739 53.9432C79.2178 53.5568 78.7292 53.3636 78.108 53.3636C77.6799 53.3636 77.2973 53.4564 76.9602 53.642C76.6269 53.8277 76.3636 54.0985 76.1705 54.4545C75.9773 54.8106 75.8807 55.2424 75.8807 55.75ZM87.6946 52.2727V53.4091H83.1719V52.2727H87.6946ZM84.4901 50.1818H85.831V58.5C85.831 58.8788 85.8859 59.1629 85.9957 59.3523C86.1094 59.5379 86.2533 59.6629 86.4276 59.7273C86.6056 59.7879 86.7931 59.8182 86.9901 59.8182C87.1378 59.8182 87.259 59.8106 87.3537 59.7955C87.4484 59.7765 87.5241 59.7614 87.581 59.75L87.8537 60.9545C87.7628 60.9886 87.6359 61.0227 87.473 61.0568C87.3101 61.0947 87.1037 61.1136 86.8537 61.1136C86.4749 61.1136 86.1037 61.0322 85.7401 60.8693C85.3802 60.7064 85.081 60.4583 84.8423 60.125C84.6075 59.7917 84.4901 59.3712 84.4901 58.8636V50.1818ZM92.2798 61.2045C91.7268 61.2045 91.2249 61.1004 90.7741 60.892C90.3234 60.6799 89.9654 60.375 89.7003 59.9773C89.4351 59.5758 89.3026 59.0909 89.3026 58.5227C89.3026 58.0227 89.401 57.6174 89.598 57.3068C89.795 56.9924 90.0582 56.7462 90.3878 56.5682C90.7173 56.3902 91.081 56.2576 91.4787 56.1705C91.8802 56.0795 92.2836 56.0076 92.6889 55.9545C93.2192 55.8864 93.6491 55.8352 93.9787 55.8011C94.312 55.7633 94.5545 55.7008 94.706 55.6136C94.8613 55.5265 94.9389 55.375 94.9389 55.1591V55.1136C94.9389 54.553 94.7855 54.1174 94.4787 53.8068C94.1757 53.4962 93.7154 53.3409 93.098 53.3409C92.4579 53.3409 91.956 53.4811 91.5923 53.7614C91.2287 54.0417 90.973 54.3409 90.8253 54.6591L89.5526 54.2045C89.7798 53.6742 90.0829 53.2614 90.4616 52.9659C90.8442 52.6667 91.2609 52.4583 91.7116 52.3409C92.1662 52.2197 92.6132 52.1591 93.0526 52.1591C93.3329 52.1591 93.6548 52.1932 94.0185 52.2614C94.3859 52.3258 94.7401 52.4602 95.081 52.6648C95.4257 52.8693 95.7116 53.178 95.9389 53.5909C96.1662 54.0038 96.2798 54.5568 96.2798 55.25V61H94.9389V59.8182H94.8707C94.7798 60.0076 94.6283 60.2102 94.4162 60.4261C94.2041 60.642 93.9219 60.8258 93.5696 60.9773C93.2173 61.1288 92.7874 61.2045 92.2798 61.2045ZM92.4844 60C93.0147 60 93.4616 59.8958 93.8253 59.6875C94.1927 59.4792 94.4692 59.2102 94.6548 58.8807C94.8442 58.5511 94.9389 58.2045 94.9389 57.8409V56.6136C94.8821 56.6818 94.7571 56.7443 94.5639 56.8011C94.3745 56.8542 94.1548 56.9015 93.9048 56.9432C93.6586 56.9811 93.4181 57.0152 93.1832 57.0455C92.9522 57.072 92.7647 57.0947 92.6207 57.1136C92.2723 57.1591 91.9465 57.233 91.6435 57.3352C91.3442 57.4337 91.1018 57.5833 90.9162 57.7841C90.7344 57.9811 90.6435 58.25 90.6435 58.5909C90.6435 59.0568 90.8158 59.4091 91.1605 59.6477C91.509 59.8826 91.9503 60 92.4844 60ZM102.25 64.4545C101.602 64.4545 101.045 64.3712 100.58 64.2045C100.114 64.0417 99.7254 63.8258 99.4148 63.5568C99.108 63.2917 98.8636 63.0076 98.6818 62.7045L99.75 61.9545C99.8712 62.1136 100.025 62.2955 100.21 62.5C100.396 62.7083 100.65 62.8883 100.972 63.0398C101.297 63.1951 101.723 63.2727 102.25 63.2727C102.955 63.2727 103.536 63.1023 103.994 62.7614C104.453 62.4205 104.682 61.8864 104.682 61.1591V59.3864H104.568C104.47 59.5455 104.33 59.7424 104.148 59.9773C103.97 60.2083 103.712 60.4148 103.375 60.5966C103.042 60.7746 102.591 60.8636 102.023 60.8636C101.318 60.8636 100.686 60.697 100.125 60.3636C99.5682 60.0303 99.1269 59.5455 98.8011 58.9091C98.4792 58.2727 98.3182 57.5 98.3182 56.5909C98.3182 55.697 98.4754 54.9186 98.7898 54.2557C99.1042 53.589 99.5417 53.0739 100.102 52.7102C100.663 52.3428 101.311 52.1591 102.045 52.1591C102.614 52.1591 103.064 52.2538 103.398 52.4432C103.735 52.6288 103.992 52.8409 104.17 53.0795C104.352 53.3144 104.492 53.5076 104.591 53.6591H104.727V52.2727H106.023V61.25C106.023 62 105.852 62.6098 105.511 63.0795C105.174 63.553 104.72 63.8996 104.148 64.1193C103.58 64.3428 102.947 64.4545 102.25 64.4545ZM102.205 59.6591C102.742 59.6591 103.197 59.536 103.568 59.2898C103.939 59.0436 104.222 58.6894 104.415 58.2273C104.608 57.7652 104.705 57.2121 104.705 56.5682C104.705 55.9394 104.61 55.3845 104.42 54.9034C104.231 54.4223 103.951 54.0455 103.58 53.7727C103.208 53.5 102.75 53.3636 102.205 53.3636C101.636 53.3636 101.163 53.5076 100.784 53.7955C100.409 54.0833 100.127 54.4697 99.9375 54.9545C99.7519 55.4394 99.6591 55.9773 99.6591 56.5682C99.6591 57.1742 99.7538 57.7102 99.9432 58.1761C100.136 58.6383 100.42 59.0019 100.795 59.267C101.174 59.5284 101.644 59.6591 102.205 59.6591ZM112.136 61.1818C111.295 61.1818 110.57 60.9962 109.96 60.625C109.354 60.25 108.886 59.7273 108.557 59.0568C108.231 58.3826 108.068 57.5985 108.068 56.7045C108.068 55.8106 108.231 55.0227 108.557 54.3409C108.886 53.6553 109.345 53.1212 109.932 52.7386C110.523 52.3523 111.212 52.1591 112 52.1591C112.455 52.1591 112.903 52.2348 113.347 52.3864C113.79 52.5379 114.193 52.7841 114.557 53.125C114.92 53.4621 115.21 53.9091 115.426 54.4659C115.642 55.0227 115.75 55.7083 115.75 56.5227V57.0909H109.023V55.9318H114.386C114.386 55.4394 114.288 55 114.091 54.6136C113.898 54.2273 113.621 53.9223 113.261 53.6989C112.905 53.4754 112.485 53.3636 112 53.3636C111.466 53.3636 111.004 53.4962 110.614 53.7614C110.227 54.0227 109.93 54.3636 109.722 54.7841C109.513 55.2045 109.409 55.6553 109.409 56.1364V56.9091C109.409 57.5682 109.523 58.1269 109.75 58.5852C109.981 59.0398 110.301 59.3864 110.71 59.625C111.119 59.8598 111.595 59.9773 112.136 59.9773C112.489 59.9773 112.807 59.928 113.091 59.8295C113.379 59.7273 113.627 59.5758 113.835 59.375C114.044 59.1705 114.205 58.9167 114.318 58.6136L115.614 58.9773C115.477 59.4167 115.248 59.803 114.926 60.1364C114.604 60.4659 114.206 60.7235 113.733 60.9091C113.259 61.0909 112.727 61.1818 112.136 61.1818Z" fill="white" fill-opacity="0.95"/>
<mask id="path-4-inside-2_1818_12072" fill="white">
<path d="M250 0H500V110H250V0Z"/>
</mask>
<path d="M250 0H500V110H250V0Z" fill="#1A1A1A"/>
<path d="M500 110V111H501V110H500ZM499 0V110H501V0H499ZM500 109H250V111H500V109Z" fill="white" fill-opacity="0.2" mask="url(#path-4-inside-2_1818_12072)"/>
<path d="M280.773 50.6136V49.3636H289.5V50.6136H285.841V61H284.432V50.6136H280.773ZM293.886 61.1818C293.045 61.1818 292.32 60.9962 291.71 60.625C291.104 60.25 290.636 59.7273 290.307 59.0568C289.981 58.3826 289.818 57.5985 289.818 56.7045C289.818 55.8106 289.981 55.0227 290.307 54.3409C290.636 53.6553 291.095 53.1212 291.682 52.7386C292.273 52.3523 292.962 52.1591 293.75 52.1591C294.205 52.1591 294.653 52.2348 295.097 52.3864C295.54 52.5379 295.943 52.7841 296.307 53.125C296.67 53.4621 296.96 53.9091 297.176 54.4659C297.392 55.0227 297.5 55.7083 297.5 56.5227V57.0909H290.773V55.9318H296.136C296.136 55.4394 296.038 55 295.841 54.6136C295.648 54.2273 295.371 53.9223 295.011 53.6989C294.655 53.4754 294.235 53.3636 293.75 53.3636C293.216 53.3636 292.754 53.4962 292.364 53.7614C291.977 54.0227 291.68 54.3636 291.472 54.7841C291.263 55.2045 291.159 55.6553 291.159 56.1364V56.9091C291.159 57.5682 291.273 58.1269 291.5 58.5852C291.731 59.0398 292.051 59.3864 292.46 59.625C292.869 59.8598 293.345 59.9773 293.886 59.9773C294.239 59.9773 294.557 59.928 294.841 59.8295C295.129 59.7273 295.377 59.5758 295.585 59.375C295.794 59.1705 295.955 58.9167 296.068 58.6136L297.364 58.9773C297.227 59.4167 296.998 59.803 296.676 60.1364C296.354 60.4659 295.956 60.7235 295.483 60.9091C295.009 61.0909 294.477 61.1818 293.886 61.1818ZM300.305 52.2727L302.396 55.8409L304.487 52.2727H306.033L303.214 56.6364L306.033 61H304.487L302.396 57.6136L300.305 61H298.76L301.533 56.6364L298.76 52.2727H300.305ZM311.741 52.2727V53.4091H307.219V52.2727H311.741ZM308.537 50.1818H309.878V58.5C309.878 58.8788 309.933 59.1629 310.043 59.3523C310.156 59.5379 310.3 59.6629 310.474 59.7273C310.652 59.7879 310.84 59.8182 311.037 59.8182C311.185 59.8182 311.306 59.8106 311.401 59.7955C311.495 59.7765 311.571 59.7614 311.628 59.75L311.901 60.9545C311.81 60.9886 311.683 61.0227 311.52 61.0568C311.357 61.0947 311.151 61.1136 310.901 61.1136C310.522 61.1136 310.151 61.0322 309.787 60.8693C309.427 60.7064 309.128 60.4583 308.889 60.125C308.654 59.7917 308.537 59.3712 308.537 58.8636V50.1818ZM318.44 61V49.3636H325.418V50.6136H319.849V54.5455H324.895V55.7955H319.849V61H318.44ZM327.649 61V52.2727H328.99V61H327.649ZM328.331 50.8182C328.07 50.8182 327.844 50.7292 327.655 50.5511C327.469 50.3731 327.376 50.1591 327.376 49.9091C327.376 49.6591 327.469 49.4451 327.655 49.267C327.844 49.089 328.07 49 328.331 49C328.592 49 328.816 49.089 329.001 49.267C329.191 49.4451 329.286 49.6591 329.286 49.9091C329.286 50.1591 329.191 50.3731 329.001 50.5511C328.816 50.7292 328.592 50.8182 328.331 50.8182ZM332.787 49.3636V61H331.446V49.3636H332.787ZM336.584 49.3636V61H335.243V49.3636H336.584Z" fill="white" fill-opacity="0.95"/>
<mask id="path-7-inside-3_1818_12072" fill="white">
<path d="M500 0H750V110H500V0Z"/>
</mask>
<path d="M500 0H750V110H500V0Z" fill="#1A1A1A"/>
<path d="M750 110V111H751V110H750ZM749 0V110H751V0H749ZM750 109H500V111H750V109Z" fill="white" fill-opacity="0.2" mask="url(#path-7-inside-3_1818_12072)"/>
<path d="M535.295 49.3636V61H533.886V50.8409H533.818L530.977 52.7273V51.2955L533.886 49.3636H535.295ZM538.369 58.6136V57.4545L543.483 49.3636H544.324V51.1591H543.756L539.892 57.2727V57.3636H546.778V58.6136H538.369ZM543.847 61V58.2614V57.7216V49.3636H545.188V61H543.847ZM548.93 64.2727V52.2727H550.226V53.6591H550.385C550.483 53.5076 550.62 53.3144 550.794 53.0795C550.972 52.8409 551.226 52.6288 551.555 52.4432C551.889 52.2538 552.339 52.1591 552.908 52.1591C553.643 52.1591 554.29 52.3428 554.851 52.7102C555.411 53.0777 555.849 53.5985 556.163 54.2727C556.478 54.947 556.635 55.7424 556.635 56.6591C556.635 57.5833 556.478 58.3845 556.163 59.0625C555.849 59.7367 555.413 60.2595 554.857 60.6307C554.3 60.9981 553.658 61.1818 552.93 61.1818C552.37 61.1818 551.921 61.089 551.584 60.9034C551.247 60.714 550.987 60.5 550.805 60.2614C550.624 60.0189 550.483 59.8182 550.385 59.6591H550.271V64.2727H548.93ZM550.249 56.6364C550.249 57.2955 550.345 57.8769 550.538 58.3807C550.732 58.8807 551.014 59.2727 551.385 59.5568C551.756 59.8371 552.211 59.9773 552.749 59.9773C553.309 59.9773 553.777 59.8295 554.152 59.5341C554.531 59.2348 554.815 58.8333 555.004 58.3295C555.197 57.822 555.294 57.2576 555.294 56.6364C555.294 56.0227 555.199 55.4697 555.01 54.9773C554.824 54.4811 554.542 54.089 554.163 53.8011C553.788 53.5095 553.317 53.3636 552.749 53.3636C552.203 53.3636 551.745 53.5019 551.374 53.7784C551.002 54.0511 550.722 54.4337 550.533 54.9261C550.343 55.4148 550.249 55.9848 550.249 56.6364ZM559.321 52.2727L561.412 55.8409L563.503 52.2727H565.048L562.23 56.6364L565.048 61H563.503L561.412 57.6136L559.321 61H557.776L560.548 56.6364L557.776 52.2727H559.321Z" fill="white" fill-opacity="0.95"/>
<mask id="path-10-inside-4_1818_12072" fill="white">
<path d="M750 0H1300V110H750V0Z"/>
</mask>
<path d="M750 0H1300V110H750V0Z" fill="#1A1A1A"/>
<path d="M1300 109H750V111H1300V109Z" fill="white" fill-opacity="0.2" mask="url(#path-10-inside-4_1818_12072)"/>
<path d="M781.409 37V25.3636H788.386V26.6136H782.818V30.5455H787.864V31.7955H782.818V37H781.409ZM790.618 37V28.2727H791.959V37H790.618ZM791.3 26.8182C791.038 26.8182 790.813 26.7292 790.624 26.5511C790.438 26.3731 790.345 26.1591 790.345 25.9091C790.345 25.6591 790.438 25.4451 790.624 25.267C790.813 25.089 791.038 25 791.3 25C791.561 25 791.785 25.089 791.97 25.267C792.16 25.4451 792.254 25.6591 792.254 25.9091C792.254 26.1591 792.16 26.3731 791.97 26.5511C791.785 26.7292 791.561 26.8182 791.3 26.8182ZM795.756 25.3636V37H794.415V25.3636H795.756ZM799.553 25.3636V37H798.212V25.3636H799.553ZM802.986 37.0909C802.705 37.0909 802.465 36.9905 802.264 36.7898C802.063 36.589 801.963 36.3485 801.963 36.0682C801.963 35.7879 802.063 35.5473 802.264 35.3466C802.465 35.1458 802.705 35.0455 802.986 35.0455C803.266 35.0455 803.507 35.1458 803.707 35.3466C803.908 35.5473 804.009 35.7879 804.009 36.0682C804.009 36.2538 803.961 36.4242 803.866 36.5795C803.776 36.7348 803.652 36.8598 803.497 36.9545C803.346 37.0455 803.175 37.0909 802.986 37.0909ZM802.986 30.6136C802.705 30.6136 802.465 30.5133 802.264 30.3125C802.063 30.1117 801.963 29.8712 801.963 29.5909C801.963 29.3106 802.063 29.0701 802.264 28.8693C802.465 28.6686 802.705 28.5682 802.986 28.5682C803.266 28.5682 803.507 28.6686 803.707 28.8693C803.908 29.0701 804.009 29.3106 804.009 29.5909C804.009 29.7765 803.961 29.947 803.866 30.1023C803.776 30.2576 803.652 30.3826 803.497 30.4773C803.346 30.5682 803.175 30.6136 802.986 30.6136ZM814.46 37.1818C813.642 37.1818 812.938 36.9886 812.347 36.6023C811.756 36.2159 811.301 35.6837 810.983 35.0057C810.665 34.3277 810.506 33.553 810.506 32.6818C810.506 31.7955 810.669 31.0133 810.994 30.3352C811.324 29.6534 811.782 29.1212 812.369 28.7386C812.96 28.3523 813.65 28.1591 814.438 28.1591C815.051 28.1591 815.604 28.2727 816.097 28.5C816.589 28.7273 816.992 29.0455 817.307 29.4545C817.621 29.8636 817.816 30.3409 817.892 30.8864H816.551C816.449 30.4886 816.222 30.1364 815.869 29.8295C815.521 29.5189 815.051 29.3636 814.46 29.3636C813.938 29.3636 813.479 29.5 813.085 29.7727C812.695 30.0417 812.39 30.4223 812.17 30.9148C811.955 31.4034 811.847 31.9773 811.847 32.6364C811.847 33.3106 811.953 33.8977 812.165 34.3977C812.381 34.8977 812.684 35.286 813.074 35.5625C813.468 35.839 813.93 35.9773 814.46 35.9773C814.809 35.9773 815.125 35.9167 815.409 35.7955C815.693 35.6742 815.934 35.5 816.131 35.2727C816.328 35.0455 816.468 34.7727 816.551 34.4545H817.892C817.816 34.9697 817.629 35.4337 817.33 35.8466C817.034 36.2557 816.642 36.5814 816.153 36.8239C815.669 37.0625 815.104 37.1818 814.46 37.1818ZM823.398 37.1818C822.61 37.1818 821.919 36.9943 821.324 36.6193C820.733 36.2443 820.271 35.7197 819.938 35.0455C819.608 34.3712 819.443 33.5833 819.443 32.6818C819.443 31.7727 819.608 30.9792 819.938 30.3011C820.271 29.6231 820.733 29.0966 821.324 28.7216C821.919 28.3466 822.61 28.1591 823.398 28.1591C824.186 28.1591 824.875 28.3466 825.466 28.7216C826.061 29.0966 826.523 29.6231 826.852 30.3011C827.186 30.9792 827.352 31.7727 827.352 32.6818C827.352 33.5833 827.186 34.3712 826.852 35.0455C826.523 35.7197 826.061 36.2443 825.466 36.6193C824.875 36.9943 824.186 37.1818 823.398 37.1818ZM823.398 35.9773C823.996 35.9773 824.489 35.8239 824.875 35.517C825.261 35.2102 825.547 34.8068 825.733 34.3068C825.919 33.8068 826.011 33.2652 826.011 32.6818C826.011 32.0985 825.919 31.5549 825.733 31.0511C825.547 30.5473 825.261 30.1402 824.875 29.8295C824.489 29.5189 823.996 29.3636 823.398 29.3636C822.799 29.3636 822.307 29.5189 821.92 29.8295C821.534 30.1402 821.248 30.5473 821.062 31.0511C820.877 31.5549 820.784 32.0985 820.784 32.6818C820.784 33.2652 820.877 33.8068 821.062 34.3068C821.248 34.8068 821.534 35.2102 821.92 35.517C822.307 35.8239 822.799 35.9773 823.398 35.9773ZM830.74 25.3636V37H829.399V25.3636H830.74ZM836.741 37.1818C835.954 37.1818 835.262 36.9943 834.668 36.6193C834.077 36.2443 833.615 35.7197 833.281 35.0455C832.952 34.3712 832.787 33.5833 832.787 32.6818C832.787 31.7727 832.952 30.9792 833.281 30.3011C833.615 29.6231 834.077 29.0966 834.668 28.7216C835.262 28.3466 835.954 28.1591 836.741 28.1591C837.529 28.1591 838.219 28.3466 838.81 28.7216C839.404 29.0966 839.866 29.6231 840.196 30.3011C840.529 30.9792 840.696 31.7727 840.696 32.6818C840.696 33.5833 840.529 34.3712 840.196 35.0455C839.866 35.7197 839.404 36.2443 838.81 36.6193C838.219 36.9943 837.529 37.1818 836.741 37.1818ZM836.741 35.9773C837.34 35.9773 837.832 35.8239 838.219 35.517C838.605 35.2102 838.891 34.8068 839.077 34.3068C839.262 33.8068 839.355 33.2652 839.355 32.6818C839.355 32.0985 839.262 31.5549 839.077 31.0511C838.891 30.5473 838.605 30.1402 838.219 29.8295C837.832 29.5189 837.34 29.3636 836.741 29.3636C836.143 29.3636 835.651 29.5189 835.264 29.8295C834.878 30.1402 834.592 30.5473 834.406 31.0511C834.221 31.5549 834.128 32.0985 834.128 32.6818C834.128 33.2652 834.221 33.8068 834.406 34.3068C834.592 34.8068 834.878 35.2102 835.264 35.517C835.651 35.8239 836.143 35.9773 836.741 35.9773ZM842.743 37V28.2727H844.038V29.5909H844.129C844.288 29.1591 844.576 28.8087 844.993 28.5398C845.41 28.2708 845.879 28.1364 846.402 28.1364C846.5 28.1364 846.624 28.1383 846.771 28.142C846.919 28.1458 847.031 28.1515 847.107 28.1591V29.5227C847.061 29.5114 846.957 29.4943 846.794 29.4716C846.635 29.4451 846.466 29.4318 846.288 29.4318C845.864 29.4318 845.485 29.5208 845.152 29.6989C844.822 29.8731 844.561 30.1155 844.368 30.4261C844.179 30.733 844.084 31.0833 844.084 31.4773V37H842.743ZM848.673 37.0909C848.393 37.0909 848.152 36.9905 847.952 36.7898C847.751 36.589 847.651 36.3485 847.651 36.0682C847.651 35.7879 847.751 35.5473 847.952 35.3466C848.152 35.1458 848.393 35.0455 848.673 35.0455C848.954 35.0455 849.194 35.1458 849.395 35.3466C849.596 35.5473 849.696 35.7879 849.696 36.0682C849.696 36.2538 849.649 36.4242 849.554 36.5795C849.463 36.7348 849.34 36.8598 849.185 36.9545C849.033 37.0455 848.863 37.0909 848.673 37.0909ZM855.898 28.2727V29.4091H851.375V28.2727H855.898ZM852.693 26.1818H854.034V34.5C854.034 34.8788 854.089 35.1629 854.199 35.3523C854.313 35.5379 854.456 35.6629 854.631 35.7273C854.809 35.7879 854.996 35.8182 855.193 35.8182C855.341 35.8182 855.462 35.8106 855.557 35.7955C855.652 35.7765 855.727 35.7614 855.784 35.75L856.057 36.9545C855.966 36.9886 855.839 37.0227 855.676 37.0568C855.513 37.0947 855.307 37.1136 855.057 37.1136C854.678 37.1136 854.307 37.0322 853.943 36.8693C853.583 36.7064 853.284 36.4583 853.045 36.125C852.811 35.7917 852.693 35.3712 852.693 34.8636V26.1818ZM859.443 31.75V37H858.102V25.3636H859.443V29.6364H859.557C859.761 29.1856 860.068 28.8277 860.477 28.5625C860.89 28.2936 861.439 28.1591 862.125 28.1591C862.72 28.1591 863.241 28.2784 863.688 28.517C864.134 28.7519 864.481 29.1136 864.727 29.6023C864.977 30.0871 865.102 30.7045 865.102 31.4545V37H863.761V31.5455C863.761 30.8523 863.581 30.3163 863.222 29.9375C862.866 29.5549 862.371 29.3636 861.739 29.3636C861.299 29.3636 860.905 29.4564 860.557 29.642C860.212 29.8277 859.939 30.0985 859.739 30.4545C859.542 30.8106 859.443 31.2424 859.443 31.75ZM871.214 37.1818C870.374 37.1818 869.648 36.9962 869.038 36.625C868.432 36.25 867.964 35.7273 867.635 35.0568C867.309 34.3826 867.146 33.5985 867.146 32.7045C867.146 31.8106 867.309 31.0227 867.635 30.3409C867.964 29.6553 868.423 29.1212 869.01 28.7386C869.601 28.3523 870.29 28.1591 871.078 28.1591C871.533 28.1591 871.982 28.2348 872.425 28.3864C872.868 28.5379 873.271 28.7841 873.635 29.125C873.999 29.4621 874.288 29.9091 874.504 30.4659C874.72 31.0227 874.828 31.7083 874.828 32.5227V33.0909H868.101V31.9318H873.464C873.464 31.4394 873.366 31 873.169 30.6136C872.976 30.2273 872.699 29.9223 872.339 29.6989C871.983 29.4754 871.563 29.3636 871.078 29.3636C870.544 29.3636 870.082 29.4962 869.692 29.7614C869.305 30.0227 869.008 30.3636 868.8 30.7841C868.591 31.2045 868.487 31.6553 868.487 32.1364V32.9091C868.487 33.5682 868.601 34.1269 868.828 34.5852C869.059 35.0398 869.379 35.3864 869.788 35.625C870.197 35.8598 870.673 35.9773 871.214 35.9773C871.567 35.9773 871.885 35.928 872.169 35.8295C872.457 35.7273 872.705 35.5758 872.913 35.375C873.122 35.1705 873.283 34.9167 873.396 34.6136L874.692 34.9773C874.555 35.4167 874.326 35.803 874.004 36.1364C873.682 36.4659 873.285 36.7235 872.811 36.9091C872.338 37.0909 871.805 37.1818 871.214 37.1818ZM876.868 37V28.2727H878.163V29.6364H878.277C878.459 29.1705 878.752 28.8087 879.158 28.5511C879.563 28.2898 880.05 28.1591 880.618 28.1591C881.194 28.1591 881.673 28.2898 882.055 28.5511C882.442 28.8087 882.743 29.1705 882.959 29.6364H883.05C883.273 29.1856 883.608 28.8277 884.055 28.5625C884.502 28.2936 885.038 28.1591 885.663 28.1591C886.444 28.1591 887.082 28.4034 887.578 28.892C888.074 29.3769 888.322 30.1326 888.322 31.1591V37H886.982V31.1591C886.982 30.5152 886.805 30.0549 886.453 29.7784C886.101 29.5019 885.686 29.3636 885.209 29.3636C884.595 29.3636 884.12 29.5492 883.783 29.9205C883.446 30.2879 883.277 30.7538 883.277 31.3182V37H881.913V31.0227C881.913 30.5265 881.752 30.1269 881.43 29.8239C881.108 29.517 880.694 29.3636 880.186 29.3636C879.838 29.3636 879.512 29.4564 879.209 29.642C878.91 29.8277 878.667 30.0852 878.482 30.4148C878.3 30.7405 878.209 31.1174 878.209 31.5455V37H876.868ZM894.433 37.1818C893.592 37.1818 892.867 36.9962 892.257 36.625C891.651 36.25 891.183 35.7273 890.854 35.0568C890.528 34.3826 890.365 33.5985 890.365 32.7045C890.365 31.8106 890.528 31.0227 890.854 30.3409C891.183 29.6553 891.642 29.1212 892.229 28.7386C892.82 28.3523 893.509 28.1591 894.297 28.1591C894.751 28.1591 895.2 28.2348 895.643 28.3864C896.087 28.5379 896.49 28.7841 896.854 29.125C897.217 29.4621 897.507 29.9091 897.723 30.4659C897.939 31.0227 898.047 31.7083 898.047 32.5227V33.0909H891.32V31.9318H896.683C896.683 31.4394 896.585 31 896.388 30.6136C896.195 30.2273 895.918 29.9223 895.558 29.6989C895.202 29.4754 894.782 29.3636 894.297 29.3636C893.763 29.3636 893.301 29.4962 892.911 29.7614C892.524 30.0227 892.227 30.3636 892.018 30.7841C891.81 31.2045 891.706 31.6553 891.706 32.1364V32.9091C891.706 33.5682 891.82 34.1269 892.047 34.5852C892.278 35.0398 892.598 35.3864 893.007 35.625C893.416 35.8598 893.892 35.9773 894.433 35.9773C894.786 35.9773 895.104 35.928 895.388 35.8295C895.676 35.7273 895.924 35.5758 896.132 35.375C896.34 35.1705 896.501 34.9167 896.615 34.6136L897.911 34.9773C897.774 35.4167 897.545 35.803 897.223 36.1364C896.901 36.4659 896.503 36.7235 896.03 36.9091C895.556 37.0909 895.024 37.1818 894.433 37.1818ZM901.064 37.0909C900.784 37.0909 900.543 36.9905 900.342 36.7898C900.142 36.589 900.041 36.3485 900.041 36.0682C900.041 35.7879 900.142 35.5473 900.342 35.3466C900.543 35.1458 900.784 35.0455 901.064 35.0455C901.344 35.0455 901.585 35.1458 901.786 35.3466C901.986 35.5473 902.087 35.7879 902.087 36.0682C902.087 36.2538 902.039 36.4242 901.945 36.5795C901.854 36.7348 901.731 36.8598 901.575 36.9545C901.424 37.0455 901.253 37.0909 901.064 37.0909ZM905.834 31.75V37H904.493V28.2727H905.788V29.6364H905.902C906.107 29.1932 906.417 28.8371 906.834 28.5682C907.25 28.2955 907.788 28.1591 908.447 28.1591C909.038 28.1591 909.555 28.2803 909.999 28.5227C910.442 28.7614 910.786 29.125 911.033 29.6136C911.279 30.0985 911.402 30.7121 911.402 31.4545V37H910.061V31.5455C910.061 30.8598 909.883 30.3258 909.527 29.9432C909.171 29.5568 908.682 29.3636 908.061 29.3636C907.633 29.3636 907.25 29.4564 906.913 29.642C906.58 29.8277 906.317 30.0985 906.124 30.4545C905.93 30.8106 905.834 31.2424 905.834 31.75ZM917.511 37.1818C916.67 37.1818 915.945 36.9962 915.335 36.625C914.729 36.25 914.261 35.7273 913.932 35.0568C913.606 34.3826 913.443 33.5985 913.443 32.7045C913.443 31.8106 913.606 31.0227 913.932 30.3409C914.261 29.6553 914.72 29.1212 915.307 28.7386C915.898 28.3523 916.587 28.1591 917.375 28.1591C917.83 28.1591 918.278 28.2348 918.722 28.3864C919.165 28.5379 919.568 28.7841 919.932 29.125C920.295 29.4621 920.585 29.9091 920.801 30.4659C921.017 31.0227 921.125 31.7083 921.125 32.5227V33.0909H914.398V31.9318H919.761C919.761 31.4394 919.663 31 919.466 30.6136C919.273 30.2273 918.996 29.9223 918.636 29.6989C918.28 29.4754 917.86 29.3636 917.375 29.3636C916.841 29.3636 916.379 29.4962 915.989 29.7614C915.602 30.0227 915.305 30.3636 915.097 30.7841C914.888 31.2045 914.784 31.6553 914.784 32.1364V32.9091C914.784 33.5682 914.898 34.1269 915.125 34.5852C915.356 35.0398 915.676 35.3864 916.085 35.625C916.494 35.8598 916.97 35.9773 917.511 35.9773C917.864 35.9773 918.182 35.928 918.466 35.8295C918.754 35.7273 919.002 35.5758 919.21 35.375C919.419 35.1705 919.58 34.9167 919.693 34.6136L920.989 34.9773C920.852 35.4167 920.623 35.803 920.301 36.1364C919.979 36.4659 919.581 36.7235 919.108 36.9091C918.634 37.0909 918.102 37.1818 917.511 37.1818ZM928.665 33.4318V28.2727H930.006V37H928.665V35.5227H928.574C928.369 35.9659 928.051 36.3428 927.619 36.6534C927.188 36.9602 926.642 37.1136 925.983 37.1136C925.438 37.1136 924.953 36.9943 924.528 36.7557C924.104 36.5133 923.771 36.1496 923.528 35.6648C923.286 35.1761 923.165 34.5606 923.165 33.8182V28.2727H924.506V33.7273C924.506 34.3636 924.684 34.8712 925.04 35.25C925.4 35.6288 925.858 35.8182 926.415 35.8182C926.748 35.8182 927.087 35.733 927.432 35.5625C927.78 35.392 928.072 35.1307 928.307 34.7784C928.545 34.4261 928.665 33.9773 928.665 33.4318ZM936.257 28.2727V29.4091H931.734V28.2727H936.257ZM933.053 26.1818H934.393V34.5C934.393 34.8788 934.448 35.1629 934.558 35.3523C934.672 35.5379 934.816 35.6629 934.99 35.7273C935.168 35.7879 935.356 35.8182 935.553 35.8182C935.7 35.8182 935.821 35.8106 935.916 35.7955C936.011 35.7765 936.087 35.7614 936.143 35.75L936.416 36.9545C936.325 36.9886 936.198 37.0227 936.036 37.0568C935.873 37.0947 935.666 37.1136 935.416 37.1136C935.037 37.1136 934.666 37.0322 934.303 36.8693C933.943 36.7064 933.643 36.4583 933.405 36.125C933.17 35.7917 933.053 35.3712 933.053 34.8636V26.1818ZM938.274 37V28.2727H939.57V29.5909H939.661C939.82 29.1591 940.107 28.8087 940.524 28.5398C940.941 28.2708 941.411 28.1364 941.933 28.1364C942.032 28.1364 942.155 28.1383 942.303 28.142C942.45 28.1458 942.562 28.1515 942.638 28.1591V29.5227C942.592 29.5114 942.488 29.4943 942.325 29.4716C942.166 29.4451 941.998 29.4318 941.82 29.4318C941.395 29.4318 941.017 29.5208 940.683 29.6989C940.354 29.8731 940.092 30.1155 939.899 30.4261C939.71 30.733 939.615 31.0833 939.615 31.4773V37H938.274ZM946.795 37.2045C946.242 37.2045 945.741 37.1004 945.29 36.892C944.839 36.6799 944.481 36.375 944.216 35.9773C943.951 35.5758 943.818 35.0909 943.818 34.5227C943.818 34.0227 943.917 33.6174 944.114 33.3068C944.311 32.9924 944.574 32.7462 944.903 32.5682C945.233 32.3902 945.597 32.2576 945.994 32.1705C946.396 32.0795 946.799 32.0076 947.205 31.9545C947.735 31.8864 948.165 31.8352 948.494 31.8011C948.828 31.7633 949.07 31.7008 949.222 31.6136C949.377 31.5265 949.455 31.375 949.455 31.1591V31.1136C949.455 30.553 949.301 30.1174 948.994 29.8068C948.691 29.4962 948.231 29.3409 947.614 29.3409C946.973 29.3409 946.472 29.4811 946.108 29.7614C945.744 30.0417 945.489 30.3409 945.341 30.6591L944.068 30.2045C944.295 29.6742 944.598 29.2614 944.977 28.9659C945.36 28.6667 945.777 28.4583 946.227 28.3409C946.682 28.2197 947.129 28.1591 947.568 28.1591C947.848 28.1591 948.17 28.1932 948.534 28.2614C948.902 28.3258 949.256 28.4602 949.597 28.6648C949.941 28.8693 950.227 29.178 950.455 29.5909C950.682 30.0038 950.795 30.5568 950.795 31.25V37H949.455V35.8182H949.386C949.295 36.0076 949.144 36.2102 948.932 36.4261C948.72 36.642 948.438 36.8258 948.085 36.9773C947.733 37.1288 947.303 37.2045 946.795 37.2045ZM947 36C947.53 36 947.977 35.8958 948.341 35.6875C948.708 35.4792 948.985 35.2102 949.17 34.8807C949.36 34.5511 949.455 34.2045 949.455 33.8409V32.6136C949.398 32.6818 949.273 32.7443 949.08 32.8011C948.89 32.8542 948.67 32.9015 948.42 32.9432C948.174 32.9811 947.934 33.0152 947.699 33.0455C947.468 33.072 947.28 33.0947 947.136 33.1136C946.788 33.1591 946.462 33.233 946.159 33.3352C945.86 33.4337 945.617 33.5833 945.432 33.7841C945.25 33.9811 945.159 34.25 945.159 34.5909C945.159 35.0568 945.331 35.4091 945.676 35.6477C946.025 35.8826 946.466 36 947 36ZM954.584 25.3636V37H953.243V25.3636H954.584ZM958.017 37.0909C957.737 37.0909 957.496 36.9905 957.295 36.7898C957.095 36.589 956.994 36.3485 956.994 36.0682C956.994 35.7879 957.095 35.5473 957.295 35.3466C957.496 35.1458 957.737 35.0455 958.017 35.0455C958.297 35.0455 958.538 35.1458 958.739 35.3466C958.939 35.5473 959.04 35.7879 959.04 36.0682C959.04 36.2538 958.992 36.4242 958.898 36.5795C958.807 36.7348 958.684 36.8598 958.528 36.9545C958.377 37.0455 958.206 37.0909 958.017 37.0909ZM965.241 28.2727V29.4091H960.719V28.2727H965.241ZM962.037 26.1818H963.378V34.5C963.378 34.8788 963.433 35.1629 963.543 35.3523C963.656 35.5379 963.8 35.6629 963.974 35.7273C964.152 35.7879 964.34 35.8182 964.537 35.8182C964.685 35.8182 964.806 35.8106 964.901 35.7955C964.995 35.7765 965.071 35.7614 965.128 35.75L965.401 36.9545C965.31 36.9886 965.183 37.0227 965.02 37.0568C964.857 37.0947 964.651 37.1136 964.401 37.1136C964.022 37.1136 963.651 37.0322 963.287 36.8693C962.927 36.7064 962.628 36.4583 962.389 36.125C962.154 35.7917 962.037 35.3712 962.037 34.8636V26.1818ZM970.824 37.1818C969.983 37.1818 969.258 36.9962 968.648 36.625C968.042 36.25 967.574 35.7273 967.244 35.0568C966.919 34.3826 966.756 33.5985 966.756 32.7045C966.756 31.8106 966.919 31.0227 967.244 30.3409C967.574 29.6553 968.032 29.1212 968.619 28.7386C969.21 28.3523 969.9 28.1591 970.688 28.1591C971.142 28.1591 971.591 28.2348 972.034 28.3864C972.477 28.5379 972.881 28.7841 973.244 29.125C973.608 29.4621 973.898 29.9091 974.114 30.4659C974.33 31.0227 974.438 31.7083 974.438 32.5227V33.0909H967.71V31.9318H973.074C973.074 31.4394 972.975 31 972.778 30.6136C972.585 30.2273 972.309 29.9223 971.949 29.6989C971.593 29.4754 971.172 29.3636 970.688 29.3636C970.153 29.3636 969.691 29.4962 969.301 29.7614C968.915 30.0227 968.617 30.3636 968.409 30.7841C968.201 31.2045 968.097 31.6553 968.097 32.1364V32.9091C968.097 33.5682 968.21 34.1269 968.438 34.5852C968.669 35.0398 968.989 35.3864 969.398 35.625C969.807 35.8598 970.282 35.9773 970.824 35.9773C971.176 35.9773 971.494 35.928 971.778 35.8295C972.066 35.7273 972.314 35.5758 972.523 35.375C972.731 35.1705 972.892 34.9167 973.006 34.6136L974.301 34.9773C974.165 35.4167 973.936 35.803 973.614 36.1364C973.292 36.4659 972.894 36.7235 972.42 36.9091C971.947 37.0909 971.415 37.1818 970.824 37.1818ZM977.243 28.2727L979.334 31.8409L981.425 28.2727H982.97L980.152 32.6364L982.97 37H981.425L979.334 33.6136L977.243 37H975.697L978.47 32.6364L975.697 28.2727H977.243ZM988.679 28.2727V29.4091H984.156V28.2727H988.679ZM985.474 26.1818H986.815V34.5C986.815 34.8788 986.87 35.1629 986.98 35.3523C987.094 35.5379 987.238 35.6629 987.412 35.7273C987.59 35.7879 987.777 35.8182 987.974 35.8182C988.122 35.8182 988.243 35.8106 988.338 35.7955C988.433 35.7765 988.509 35.7614 988.565 35.75L988.838 36.9545C988.747 36.9886 988.62 37.0227 988.457 37.0568C988.295 37.0947 988.088 37.1136 987.838 37.1136C987.459 37.1136 987.088 37.0322 986.724 36.8693C986.365 36.7064 986.065 36.4583 985.827 36.125C985.592 35.7917 985.474 35.3712 985.474 34.8636V26.1818ZM991.673 37.0909C991.393 37.0909 991.152 36.9905 990.952 36.7898C990.751 36.589 990.651 36.3485 990.651 36.0682C990.651 35.7879 990.751 35.5473 990.952 35.3466C991.152 35.1458 991.393 35.0455 991.673 35.0455C991.954 35.0455 992.194 35.1458 992.395 35.3466C992.596 35.5473 992.696 35.7879 992.696 36.0682C992.696 36.2538 992.649 36.4242 992.554 36.5795C992.463 36.7348 992.34 36.8598 992.185 36.9545C992.033 37.0455 991.863 37.0909 991.673 37.0909ZM995.102 40.2727V28.2727H996.398V29.6591H996.557C996.655 29.5076 996.792 29.3144 996.966 29.0795C997.144 28.8409 997.398 28.6288 997.727 28.4432C998.061 28.2538 998.511 28.1591 999.08 28.1591C999.814 28.1591 1000.46 28.3428 1001.02 28.7102C1001.58 29.0777 1002.02 29.5985 1002.34 30.2727C1002.65 30.947 1002.81 31.7424 1002.81 32.6591C1002.81 33.5833 1002.65 34.3845 1002.34 35.0625C1002.02 35.7367 1001.59 36.2595 1001.03 36.6307C1000.47 36.9981 999.83 37.1818 999.102 37.1818C998.542 37.1818 998.093 37.089 997.756 36.9034C997.419 36.714 997.159 36.5 996.977 36.2614C996.795 36.0189 996.655 35.8182 996.557 35.6591H996.443V40.2727H995.102ZM996.42 32.6364C996.42 33.2955 996.517 33.8769 996.71 34.3807C996.903 34.8807 997.186 35.2727 997.557 35.5568C997.928 35.8371 998.383 35.9773 998.92 35.9773C999.481 35.9773 999.949 35.8295 1000.32 35.5341C1000.7 35.2348 1000.99 34.8333 1001.18 34.3295C1001.37 33.822 1001.47 33.2576 1001.47 32.6364C1001.47 32.0227 1001.37 31.4697 1001.18 30.9773C1001 30.4811 1000.71 30.089 1000.34 29.8011C999.96 29.5095 999.489 29.3636 998.92 29.3636C998.375 29.3636 997.917 29.5019 997.545 29.7784C997.174 30.0511 996.894 30.4337 996.705 30.9261C996.515 31.4148 996.42 31.9848 996.42 32.6364ZM1004.85 37V28.2727H1006.15V29.5909H1006.24C1006.4 29.1591 1006.69 28.8087 1007.1 28.5398C1007.52 28.2708 1007.99 28.1364 1008.51 28.1364C1008.61 28.1364 1008.73 28.1383 1008.88 28.142C1009.03 28.1458 1009.14 28.1515 1009.22 28.1591V29.5227C1009.17 29.5114 1009.07 29.4943 1008.9 29.4716C1008.74 29.4451 1008.58 29.4318 1008.4 29.4318C1007.97 29.4318 1007.59 29.5208 1007.26 29.6989C1006.93 29.8731 1006.67 30.1155 1006.48 30.4261C1006.29 30.733 1006.19 31.0833 1006.19 31.4773V37H1004.85ZM1010.81 37V28.2727H1012.15V37H1010.81ZM1011.49 26.8182C1011.23 26.8182 1011 26.7292 1010.81 26.5511C1010.63 26.3731 1010.53 26.1591 1010.53 25.9091C1010.53 25.6591 1010.63 25.4451 1010.81 25.267C1011 25.089 1011.23 25 1011.49 25C1011.75 25 1011.97 25.089 1012.16 25.267C1012.35 25.4451 1012.44 25.6591 1012.44 25.9091C1012.44 26.1591 1012.35 26.3731 1012.16 26.5511C1011.97 26.7292 1011.75 26.8182 1011.49 26.8182ZM1014.6 37V28.2727H1015.9V29.6364H1016.01C1016.19 29.1705 1016.49 28.8087 1016.89 28.5511C1017.3 28.2898 1017.78 28.1591 1018.35 28.1591C1018.93 28.1591 1019.41 28.2898 1019.79 28.5511C1020.18 28.8087 1020.48 29.1705 1020.69 29.6364H1020.78C1021.01 29.1856 1021.34 28.8277 1021.79 28.5625C1022.24 28.2936 1022.77 28.1591 1023.4 28.1591C1024.18 28.1591 1024.82 28.4034 1025.31 28.892C1025.81 29.3769 1026.06 30.1326 1026.06 31.1591V37H1024.72V31.1591C1024.72 30.5152 1024.54 30.0549 1024.19 29.7784C1023.84 29.5019 1023.42 29.3636 1022.94 29.3636C1022.33 29.3636 1021.85 29.5492 1021.52 29.9205C1021.18 30.2879 1021.01 30.7538 1021.01 31.3182V37H1019.65V31.0227C1019.65 30.5265 1019.49 30.1269 1019.16 29.8239C1018.84 29.517 1018.43 29.3636 1017.92 29.3636C1017.57 29.3636 1017.25 29.4564 1016.94 29.642C1016.64 29.8277 1016.4 30.0852 1016.22 30.4148C1016.03 30.7405 1015.94 31.1174 1015.94 31.5455V37H1014.6ZM1031.08 37.2045C1030.52 37.2045 1030.02 37.1004 1029.57 36.892C1029.12 36.6799 1028.76 36.375 1028.5 35.9773C1028.23 35.5758 1028.1 35.0909 1028.1 34.5227C1028.1 34.0227 1028.2 33.6174 1028.39 33.3068C1028.59 32.9924 1028.86 32.7462 1029.18 32.5682C1029.51 32.3902 1029.88 32.2576 1030.28 32.1705C1030.68 32.0795 1031.08 32.0076 1031.49 31.9545C1032.02 31.8864 1032.45 31.8352 1032.78 31.8011C1033.11 31.7633 1033.35 31.7008 1033.5 31.6136C1033.66 31.5265 1033.74 31.375 1033.74 31.1591V31.1136C1033.74 30.553 1033.58 30.1174 1033.28 29.8068C1032.97 29.4962 1032.51 29.3409 1031.89 29.3409C1031.25 29.3409 1030.75 29.4811 1030.39 29.7614C1030.03 30.0417 1029.77 30.3409 1029.62 30.6591L1028.35 30.2045C1028.58 29.6742 1028.88 29.2614 1029.26 28.9659C1029.64 28.6667 1030.06 28.4583 1030.51 28.3409C1030.96 28.2197 1031.41 28.1591 1031.85 28.1591C1032.13 28.1591 1032.45 28.1932 1032.82 28.2614C1033.18 28.3258 1033.54 28.4602 1033.88 28.6648C1034.22 28.8693 1034.51 29.178 1034.74 29.5909C1034.96 30.0038 1035.08 30.5568 1035.08 31.25V37H1033.74V35.8182H1033.67C1033.58 36.0076 1033.43 36.2102 1033.21 36.4261C1033 36.642 1032.72 36.8258 1032.37 36.9773C1032.01 37.1288 1031.58 37.2045 1031.08 37.2045ZM1031.28 36C1031.81 36 1032.26 35.8958 1032.62 35.6875C1032.99 35.4792 1033.27 35.2102 1033.45 34.8807C1033.64 34.5511 1033.74 34.2045 1033.74 33.8409V32.6136C1033.68 32.6818 1033.55 32.7443 1033.36 32.8011C1033.17 32.8542 1032.95 32.9015 1032.7 32.9432C1032.46 32.9811 1032.21 33.0152 1031.98 33.0455C1031.75 33.072 1031.56 33.0947 1031.42 33.1136C1031.07 33.1591 1030.74 33.233 1030.44 33.3352C1030.14 33.4337 1029.9 33.5833 1029.71 33.7841C1029.53 33.9811 1029.44 34.25 1029.44 34.5909C1029.44 35.0568 1029.61 35.4091 1029.96 35.6477C1030.31 35.8826 1030.75 36 1031.28 36ZM1037.52 37V28.2727H1038.82V29.5909H1038.91C1039.07 29.1591 1039.36 28.8087 1039.77 28.5398C1040.19 28.2708 1040.66 28.1364 1041.18 28.1364C1041.28 28.1364 1041.4 28.1383 1041.55 28.142C1041.7 28.1458 1041.81 28.1515 1041.89 28.1591V29.5227C1041.84 29.5114 1041.74 29.4943 1041.58 29.4716C1041.42 29.4451 1041.25 29.4318 1041.07 29.4318C1040.65 29.4318 1040.27 29.5208 1039.93 29.6989C1039.6 29.8731 1039.34 30.1155 1039.15 30.4261C1038.96 30.733 1038.87 31.0833 1038.87 31.4773V37H1037.52ZM1044.61 40.25C1044.38 40.25 1044.18 40.2311 1044 40.1932C1043.82 40.1591 1043.7 40.125 1043.63 40.0909L1043.97 38.9091C1044.46 39.0341 1044.87 39.0303 1045.19 38.8977C1045.52 38.7689 1045.8 38.3788 1046.04 37.7273L1046.29 37.0455L1043.06 28.2727H1044.52L1046.92 35.2273H1047.02L1049.42 28.2727L1050.89 28.2955L1047.17 38.2727C1047.01 38.7159 1046.8 39.0833 1046.56 39.375C1046.31 39.6705 1046.02 39.8902 1045.7 40.0341C1045.38 40.178 1045.01 40.25 1044.61 40.25ZM787.773 52.2727C787.705 51.697 787.428 51.25 786.943 50.9318C786.458 50.6136 785.864 50.4545 785.159 50.4545C784.644 50.4545 784.193 50.5379 783.807 50.7045C783.424 50.8712 783.125 51.1004 782.909 51.392C782.697 51.6837 782.591 52.0152 782.591 52.3864C782.591 52.697 782.665 52.964 782.812 53.1875C782.964 53.4072 783.157 53.5909 783.392 53.7386C783.627 53.8826 783.873 54.0019 784.131 54.0966C784.388 54.1875 784.625 54.2614 784.841 54.3182L786.023 54.6364C786.326 54.7159 786.663 54.8258 787.034 54.9659C787.409 55.1061 787.767 55.2973 788.108 55.5398C788.453 55.7784 788.737 56.0852 788.96 56.4602C789.184 56.8352 789.295 57.2955 789.295 57.8409C789.295 58.4697 789.131 59.0379 788.801 59.5455C788.475 60.053 787.998 60.4564 787.369 60.7557C786.744 61.0549 785.985 61.2045 785.091 61.2045C784.258 61.2045 783.536 61.0701 782.926 60.8011C782.32 60.5322 781.843 60.1572 781.494 59.6761C781.15 59.1951 780.955 58.6364 780.909 58H782.364C782.402 58.4394 782.549 58.803 782.807 59.0909C783.068 59.375 783.398 59.5871 783.795 59.7273C784.197 59.8636 784.629 59.9318 785.091 59.9318C785.629 59.9318 786.112 59.8447 786.54 59.6705C786.968 59.4924 787.307 59.2462 787.557 58.9318C787.807 58.6136 787.932 58.2424 787.932 57.8182C787.932 57.4318 787.824 57.1174 787.608 56.875C787.392 56.6326 787.108 56.4356 786.756 56.2841C786.403 56.1326 786.023 56 785.614 55.8864L784.182 55.4773C783.273 55.2159 782.553 54.8428 782.023 54.358C781.492 53.8731 781.227 53.2386 781.227 52.4545C781.227 51.803 781.403 51.2348 781.756 50.75C782.112 50.2614 782.589 49.8826 783.188 49.6136C783.79 49.3409 784.462 49.2045 785.205 49.2045C785.955 49.2045 786.621 49.339 787.205 49.608C787.788 49.8731 788.25 50.2367 788.591 50.6989C788.936 51.161 789.117 51.6856 789.136 52.2727H787.773ZM795.226 52.2727V53.4091H790.703V52.2727H795.226ZM792.021 50.1818H793.362V58.5C793.362 58.8788 793.417 59.1629 793.527 59.3523C793.641 59.5379 793.785 59.6629 793.959 59.7273C794.137 59.7879 794.324 59.8182 794.521 59.8182C794.669 59.8182 794.79 59.8106 794.885 59.7955C794.98 59.7765 795.055 59.7614 795.112 59.75L795.385 60.9545C795.294 60.9886 795.167 61.0227 795.004 61.0568C794.841 61.0947 794.635 61.1136 794.385 61.1136C794.006 61.1136 793.635 61.0322 793.271 60.8693C792.911 60.7064 792.612 60.4583 792.374 60.125C792.139 59.7917 792.021 59.3712 792.021 58.8636V50.1818ZM797.243 61V52.2727H798.538V53.5909H798.629C798.788 53.1591 799.076 52.8087 799.493 52.5398C799.91 52.2708 800.379 52.1364 800.902 52.1364C801 52.1364 801.124 52.1383 801.271 52.142C801.419 52.1458 801.531 52.1515 801.607 52.1591V53.5227C801.561 53.5114 801.457 53.4943 801.294 53.4716C801.135 53.4451 800.966 53.4318 800.788 53.4318C800.364 53.4318 799.985 53.5208 799.652 53.6989C799.322 53.8731 799.061 54.1155 798.868 54.4261C798.679 54.733 798.584 55.0833 798.584 55.4773V61H797.243ZM806.476 61.1818C805.688 61.1818 804.997 60.9943 804.402 60.6193C803.811 60.2443 803.349 59.7197 803.016 59.0455C802.686 58.3712 802.521 57.5833 802.521 56.6818C802.521 55.7727 802.686 54.9792 803.016 54.3011C803.349 53.6231 803.811 53.0966 804.402 52.7216C804.997 52.3466 805.688 52.1591 806.476 52.1591C807.264 52.1591 807.953 52.3466 808.544 52.7216C809.139 53.0966 809.601 53.6231 809.93 54.3011C810.264 54.9792 810.43 55.7727 810.43 56.6818C810.43 57.5833 810.264 58.3712 809.93 59.0455C809.601 59.7197 809.139 60.2443 808.544 60.6193C807.953 60.9943 807.264 61.1818 806.476 61.1818ZM806.476 59.9773C807.074 59.9773 807.567 59.8239 807.953 59.517C808.339 59.2102 808.625 58.8068 808.811 58.3068C808.997 57.8068 809.089 57.2652 809.089 56.6818C809.089 56.0985 808.997 55.5549 808.811 55.0511C808.625 54.5473 808.339 54.1402 807.953 53.8295C807.567 53.5189 807.074 53.3636 806.476 53.3636C805.877 53.3636 805.385 53.5189 804.999 53.8295C804.612 54.1402 804.326 54.5473 804.141 55.0511C803.955 55.5549 803.862 56.0985 803.862 56.6818C803.862 57.2652 803.955 57.8068 804.141 58.3068C804.326 58.8068 804.612 59.2102 804.999 59.517C805.385 59.8239 805.877 59.9773 806.476 59.9773ZM813.727 57.8182L813.705 56.1591H813.977L817.795 52.2727H819.455L815.386 56.3864H815.273L813.727 57.8182ZM812.477 61V49.3636H813.818V61H812.477ZM818.023 61L814.614 56.6818L815.568 55.75L819.727 61H818.023ZM824.48 61.1818C823.639 61.1818 822.914 60.9962 822.304 60.625C821.698 60.25 821.23 59.7273 820.901 59.0568C820.575 58.3826 820.412 57.5985 820.412 56.7045C820.412 55.8106 820.575 55.0227 820.901 54.3409C821.23 53.6553 821.688 53.1212 822.276 52.7386C822.866 52.3523 823.556 52.1591 824.344 52.1591C824.798 52.1591 825.247 52.2348 825.69 52.3864C826.134 52.5379 826.537 52.7841 826.901 53.125C827.264 53.4621 827.554 53.9091 827.77 54.4659C827.986 55.0227 828.094 55.7083 828.094 56.5227V57.0909H821.366V55.9318H826.73C826.73 55.4394 826.632 55 826.435 54.6136C826.241 54.2273 825.965 53.9223 825.605 53.6989C825.249 53.4754 824.829 53.3636 824.344 53.3636C823.81 53.3636 823.348 53.4962 822.957 53.7614C822.571 54.0227 822.274 54.3636 822.065 54.7841C821.857 55.2045 821.753 55.6553 821.753 56.1364V56.9091C821.753 57.5682 821.866 58.1269 822.094 58.5852C822.325 59.0398 822.645 59.3864 823.054 59.625C823.463 59.8598 823.938 59.9773 824.48 59.9773C824.832 59.9773 825.151 59.928 825.435 59.8295C825.723 59.7273 825.971 59.5758 826.179 59.375C826.387 59.1705 826.548 58.9167 826.662 58.6136L827.957 58.9773C827.821 59.4167 827.592 59.803 827.27 60.1364C826.948 60.4659 826.55 60.7235 826.077 60.9091C825.603 61.0909 825.071 61.1818 824.48 61.1818ZM831.111 61.0909C830.83 61.0909 830.59 60.9905 830.389 60.7898C830.188 60.589 830.088 60.3485 830.088 60.0682C830.088 59.7879 830.188 59.5473 830.389 59.3466C830.59 59.1458 830.83 59.0455 831.111 59.0455C831.391 59.0455 831.632 59.1458 831.832 59.3466C832.033 59.5473 832.134 59.7879 832.134 60.0682C832.134 60.2538 832.086 60.4242 831.991 60.5795C831.901 60.7348 831.777 60.8598 831.622 60.9545C831.471 61.0455 831.3 61.0909 831.111 61.0909ZM831.111 54.6136C830.83 54.6136 830.59 54.5133 830.389 54.3125C830.188 54.1117 830.088 53.8712 830.088 53.5909C830.088 53.3106 830.188 53.0701 830.389 52.8693C830.59 52.6686 830.83 52.5682 831.111 52.5682C831.391 52.5682 831.632 52.6686 831.832 52.8693C832.033 53.0701 832.134 53.3106 832.134 53.5909C832.134 53.7765 832.086 53.947 831.991 54.1023C831.901 54.2576 831.777 54.3826 831.622 54.4773C831.471 54.5682 831.3 54.6136 831.111 54.6136ZM848.449 49.3636V61H847.085L840.744 51.8636H840.631V61H839.222V49.3636H840.585L846.949 58.5227H847.062V49.3636H848.449ZM854.632 61.1818C853.844 61.1818 853.153 60.9943 852.558 60.6193C851.967 60.2443 851.505 59.7197 851.172 59.0455C850.842 58.3712 850.678 57.5833 850.678 56.6818C850.678 55.7727 850.842 54.9792 851.172 54.3011C851.505 53.6231 851.967 53.0966 852.558 52.7216C853.153 52.3466 853.844 52.1591 854.632 52.1591C855.42 52.1591 856.109 52.3466 856.7 52.7216C857.295 53.0966 857.757 53.6231 858.087 54.3011C858.42 54.9792 858.587 55.7727 858.587 56.6818C858.587 57.5833 858.42 58.3712 858.087 59.0455C857.757 59.7197 857.295 60.2443 856.7 60.6193C856.109 60.9943 855.42 61.1818 854.632 61.1818ZM854.632 59.9773C855.231 59.9773 855.723 59.8239 856.109 59.517C856.496 59.2102 856.782 58.8068 856.967 58.3068C857.153 57.8068 857.246 57.2652 857.246 56.6818C857.246 56.0985 857.153 55.5549 856.967 55.0511C856.782 54.5473 856.496 54.1402 856.109 53.8295C855.723 53.5189 855.231 53.3636 854.632 53.3636C854.034 53.3636 853.541 53.5189 853.155 53.8295C852.768 54.1402 852.482 54.5473 852.297 55.0511C852.111 55.5549 852.018 56.0985 852.018 56.6818C852.018 57.2652 852.111 57.8068 852.297 58.3068C852.482 58.8068 852.768 59.2102 853.155 59.517C853.541 59.8239 854.034 59.9773 854.632 59.9773ZM861.974 55.75V61H860.634V52.2727H861.929V53.6364H862.043C862.247 53.1932 862.558 52.8371 862.974 52.5682C863.391 52.2955 863.929 52.1591 864.588 52.1591C865.179 52.1591 865.696 52.2803 866.139 52.5227C866.582 52.7614 866.927 53.125 867.173 53.6136C867.42 54.0985 867.543 54.7121 867.543 55.4545V61H866.202V55.5455C866.202 54.8598 866.024 54.3258 865.668 53.9432C865.312 53.5568 864.823 53.3636 864.202 53.3636C863.774 53.3636 863.391 53.4564 863.054 53.642C862.721 53.8277 862.457 54.0985 862.264 54.4545C862.071 54.8106 861.974 55.2424 861.974 55.75ZM873.652 61.1818C872.811 61.1818 872.086 60.9962 871.476 60.625C870.87 60.25 870.402 59.7273 870.072 59.0568C869.747 58.3826 869.584 57.5985 869.584 56.7045C869.584 55.8106 869.747 55.0227 870.072 54.3409C870.402 53.6553 870.86 53.1212 871.447 52.7386C872.038 52.3523 872.728 52.1591 873.516 52.1591C873.97 52.1591 874.419 52.2348 874.862 52.3864C875.305 52.5379 875.709 52.7841 876.072 53.125C876.436 53.4621 876.726 53.9091 876.942 54.4659C877.158 55.0227 877.266 55.7083 877.266 56.5227V57.0909H870.538V55.9318H875.902C875.902 55.4394 875.804 55 875.607 54.6136C875.413 54.2273 875.137 53.9223 874.777 53.6989C874.421 53.4754 874 53.3636 873.516 53.3636C872.982 53.3636 872.519 53.4962 872.129 53.7614C871.743 54.0227 871.446 54.3636 871.237 54.7841C871.029 55.2045 870.925 55.6553 870.925 56.1364V56.9091C870.925 57.5682 871.038 58.1269 871.266 58.5852C871.497 59.0398 871.817 59.3864 872.226 59.625C872.635 59.8598 873.11 59.9773 873.652 59.9773C874.004 59.9773 874.322 59.928 874.607 59.8295C874.894 59.7273 875.143 59.5758 875.351 59.375C875.559 59.1705 875.72 58.9167 875.834 58.6136L877.129 58.9773C876.993 59.4167 876.764 59.803 876.442 60.1364C876.12 60.4659 875.722 60.7235 875.249 60.9091C874.775 61.0909 874.243 61.1818 873.652 61.1818ZM780.773 74.6136V73.3636H789.5V74.6136H785.841V85H784.432V74.6136H780.773ZM793.886 85.1818C793.045 85.1818 792.32 84.9962 791.71 84.625C791.104 84.25 790.636 83.7273 790.307 83.0568C789.981 82.3826 789.818 81.5985 789.818 80.7045C789.818 79.8106 789.981 79.0227 790.307 78.3409C790.636 77.6553 791.095 77.1212 791.682 76.7386C792.273 76.3523 792.962 76.1591 793.75 76.1591C794.205 76.1591 794.653 76.2348 795.097 76.3864C795.54 76.5379 795.943 76.7841 796.307 77.125C796.67 77.4621 796.96 77.9091 797.176 78.4659C797.392 79.0227 797.5 79.7083 797.5 80.5227V81.0909H790.773V79.9318H796.136C796.136 79.4394 796.038 79 795.841 78.6136C795.648 78.2273 795.371 77.9223 795.011 77.6989C794.655 77.4754 794.235 77.3636 793.75 77.3636C793.216 77.3636 792.754 77.4962 792.364 77.7614C791.977 78.0227 791.68 78.3636 791.472 78.7841C791.263 79.2045 791.159 79.6553 791.159 80.1364V80.9091C791.159 81.5682 791.273 82.1269 791.5 82.5852C791.731 83.0398 792.051 83.3864 792.46 83.625C792.869 83.8598 793.345 83.9773 793.886 83.9773C794.239 83.9773 794.557 83.928 794.841 83.8295C795.129 83.7273 795.377 83.5758 795.585 83.375C795.794 83.1705 795.955 82.9167 796.068 82.6136L797.364 82.9773C797.227 83.4167 796.998 83.803 796.676 84.1364C796.354 84.4659 795.956 84.7235 795.483 84.9091C795.009 85.0909 794.477 85.1818 793.886 85.1818ZM800.305 76.2727L802.396 79.8409L804.487 76.2727H806.033L803.214 80.6364L806.033 85H804.487L802.396 81.6136L800.305 85H798.76L801.533 80.6364L798.76 76.2727H800.305ZM811.741 76.2727V77.4091H807.219V76.2727H811.741ZM808.537 74.1818H809.878V82.5C809.878 82.8788 809.933 83.1629 810.043 83.3523C810.156 83.5379 810.3 83.6629 810.474 83.7273C810.652 83.7879 810.84 83.8182 811.037 83.8182C811.185 83.8182 811.306 83.8106 811.401 83.7955C811.495 83.7765 811.571 83.7614 811.628 83.75L811.901 84.9545C811.81 84.9886 811.683 85.0227 811.52 85.0568C811.357 85.0947 811.151 85.1136 810.901 85.1136C810.522 85.1136 810.151 85.0322 809.787 84.8693C809.427 84.7064 809.128 84.4583 808.889 84.125C808.654 83.7917 808.537 83.3712 808.537 82.8636V74.1818ZM814.736 85.0909C814.455 85.0909 814.215 84.9905 814.014 84.7898C813.813 84.589 813.713 84.3485 813.713 84.0682C813.713 83.7879 813.813 83.5473 814.014 83.3466C814.215 83.1458 814.455 83.0455 814.736 83.0455C815.016 83.0455 815.257 83.1458 815.457 83.3466C815.658 83.5473 815.759 83.7879 815.759 84.0682C815.759 84.2538 815.711 84.4242 815.616 84.5795C815.526 84.7348 815.402 84.8598 815.247 84.9545C815.096 85.0455 814.925 85.0909 814.736 85.0909ZM814.736 78.6136C814.455 78.6136 814.215 78.5133 814.014 78.3125C813.813 78.1117 813.713 77.8712 813.713 77.5909C813.713 77.3106 813.813 77.0701 814.014 76.8693C814.215 76.6686 814.455 76.5682 814.736 76.5682C815.016 76.5682 815.257 76.6686 815.457 76.8693C815.658 77.0701 815.759 77.3106 815.759 77.5909C815.759 77.7765 815.711 77.947 815.616 78.1023C815.526 78.2576 815.402 78.3826 815.247 78.4773C815.096 78.5682 814.925 78.6136 814.736 78.6136ZM825.233 85.2045C824.68 85.2045 824.178 85.1004 823.727 84.892C823.277 84.6799 822.919 84.375 822.653 83.9773C822.388 83.5758 822.256 83.0909 822.256 82.5227C822.256 82.0227 822.354 81.6174 822.551 81.3068C822.748 80.9924 823.011 80.7462 823.341 80.5682C823.67 80.3902 824.034 80.2576 824.432 80.1705C824.833 80.0795 825.237 80.0076 825.642 79.9545C826.172 79.8864 826.602 79.8352 826.932 79.8011C827.265 79.7633 827.508 79.7008 827.659 79.6136C827.814 79.5265 827.892 79.375 827.892 79.1591V79.1136C827.892 78.553 827.739 78.1174 827.432 77.8068C827.129 77.4962 826.669 77.3409 826.051 77.3409C825.411 77.3409 824.909 77.4811 824.545 77.7614C824.182 78.0417 823.926 78.3409 823.778 78.6591L822.506 78.2045C822.733 77.6742 823.036 77.2614 823.415 76.9659C823.797 76.6667 824.214 76.4583 824.665 76.3409C825.119 76.2197 825.566 76.1591 826.006 76.1591C826.286 76.1591 826.608 76.1932 826.972 76.2614C827.339 76.3258 827.693 76.4602 828.034 76.6648C828.379 76.8693 828.665 77.178 828.892 77.5909C829.119 78.0038 829.233 78.5568 829.233 79.25V85H827.892V83.8182H827.824C827.733 84.0076 827.581 84.2102 827.369 84.4261C827.157 84.642 826.875 84.8258 826.523 84.9773C826.17 85.1288 825.741 85.2045 825.233 85.2045ZM825.438 84C825.968 84 826.415 83.8958 826.778 83.6875C827.146 83.4792 827.422 83.2102 827.608 82.8807C827.797 82.5511 827.892 82.2045 827.892 81.8409V80.6136C827.835 80.6818 827.71 80.7443 827.517 80.8011C827.328 80.8542 827.108 80.9015 826.858 80.9432C826.612 80.9811 826.371 81.0152 826.136 81.0455C825.905 81.072 825.718 81.0947 825.574 81.1136C825.225 81.1591 824.9 81.233 824.597 81.3352C824.297 81.4337 824.055 81.5833 823.869 81.7841C823.688 81.9811 823.597 82.25 823.597 82.5909C823.597 83.0568 823.769 83.4091 824.114 83.6477C824.462 83.8826 824.903 84 825.438 84ZM831.68 88.2727V76.2727H832.976V77.6591H833.135C833.233 77.5076 833.37 77.3144 833.544 77.0795C833.722 76.8409 833.976 76.6288 834.305 76.4432C834.639 76.2538 835.089 76.1591 835.658 76.1591C836.393 76.1591 837.04 76.3428 837.601 76.7102C838.161 77.0777 838.599 77.5985 838.913 78.2727C839.228 78.947 839.385 79.7424 839.385 80.6591C839.385 81.5833 839.228 82.3845 838.913 83.0625C838.599 83.7367 838.163 84.2595 837.607 84.6307C837.05 84.9981 836.408 85.1818 835.68 85.1818C835.12 85.1818 834.671 85.089 834.334 84.9034C833.997 84.714 833.737 84.5 833.555 84.2614C833.374 84.0189 833.233 83.8182 833.135 83.6591H833.021V88.2727H831.68ZM832.999 80.6364C832.999 81.2955 833.095 81.8769 833.288 82.3807C833.482 82.8807 833.764 83.2727 834.135 83.5568C834.506 83.8371 834.961 83.9773 835.499 83.9773C836.059 83.9773 836.527 83.8295 836.902 83.5341C837.281 83.2348 837.565 82.8333 837.754 82.3295C837.947 81.822 838.044 81.2576 838.044 80.6364C838.044 80.0227 837.949 79.4697 837.76 78.9773C837.574 78.4811 837.292 78.089 836.913 77.8011C836.538 77.5095 836.067 77.3636 835.499 77.3636C834.953 77.3636 834.495 77.5019 834.124 77.7784C833.752 78.0511 833.472 78.4337 833.283 78.9261C833.093 79.4148 832.999 79.9848 832.999 80.6364ZM841.43 88.2727V76.2727H842.726V77.6591H842.885C842.983 77.5076 843.12 77.3144 843.294 77.0795C843.472 76.8409 843.726 76.6288 844.055 76.4432C844.389 76.2538 844.839 76.1591 845.408 76.1591C846.143 76.1591 846.79 76.3428 847.351 76.7102C847.911 77.0777 848.349 77.5985 848.663 78.2727C848.978 78.947 849.135 79.7424 849.135 80.6591C849.135 81.5833 848.978 82.3845 848.663 83.0625C848.349 83.7367 847.913 84.2595 847.357 84.6307C846.8 84.9981 846.158 85.1818 845.43 85.1818C844.87 85.1818 844.421 85.089 844.084 84.9034C843.747 84.714 843.487 84.5 843.305 84.2614C843.124 84.0189 842.983 83.8182 842.885 83.6591H842.771V88.2727H841.43ZM842.749 80.6364C842.749 81.2955 842.845 81.8769 843.038 82.3807C843.232 82.8807 843.514 83.2727 843.885 83.5568C844.256 83.8371 844.711 83.9773 845.249 83.9773C845.809 83.9773 846.277 83.8295 846.652 83.5341C847.031 83.2348 847.315 82.8333 847.504 82.3295C847.697 81.822 847.794 81.2576 847.794 80.6364C847.794 80.0227 847.699 79.4697 847.51 78.9773C847.324 78.4811 847.042 78.089 846.663 77.8011C846.288 77.5095 845.817 77.3636 845.249 77.3636C844.703 77.3636 844.245 77.5019 843.874 77.7784C843.502 78.0511 843.222 78.4337 843.033 78.9261C842.843 79.4148 842.749 79.9848 842.749 80.6364ZM857.362 78.2273L856.158 78.5682C856.082 78.3674 855.97 78.1723 855.822 77.983C855.679 77.7898 855.482 77.6307 855.232 77.5057C854.982 77.3807 854.661 77.3182 854.271 77.3182C853.737 77.3182 853.292 77.4413 852.936 77.6875C852.584 77.9299 852.408 78.2386 852.408 78.6136C852.408 78.947 852.529 79.2102 852.771 79.4034C853.014 79.5966 853.393 79.7576 853.908 79.8864L855.203 80.2045C855.983 80.3939 856.565 80.6837 856.947 81.0739C857.33 81.4602 857.521 81.9583 857.521 82.5682C857.521 83.0682 857.377 83.5152 857.089 83.9091C856.805 84.303 856.408 84.6136 855.896 84.8409C855.385 85.0682 854.79 85.1818 854.112 85.1818C853.222 85.1818 852.485 84.9886 851.902 84.6023C851.319 84.2159 850.949 83.6515 850.794 82.9091L852.067 82.5909C852.188 83.0606 852.417 83.4129 852.754 83.6477C853.095 83.8826 853.54 84 854.089 84C854.714 84 855.211 83.8674 855.578 83.6023C855.949 83.3333 856.135 83.0114 856.135 82.6364C856.135 82.3333 856.029 82.0795 855.817 81.875C855.605 81.6667 855.279 81.5114 854.839 81.4091L853.385 81.0682C852.586 80.8788 851.999 80.5852 851.624 80.1875C851.252 79.786 851.067 79.2841 851.067 78.6818C851.067 78.1894 851.205 77.7538 851.482 77.375C851.762 76.9962 852.143 76.6989 852.624 76.483C853.108 76.267 853.658 76.1591 854.271 76.1591C855.135 76.1591 855.813 76.3485 856.305 76.7273C856.802 77.1061 857.154 77.6061 857.362 78.2273ZM863.653 72.8182L859.903 86.75H858.676L862.426 72.8182H863.653ZM865.425 85V73.3636H866.766V77.6591H866.879C866.978 77.5076 867.114 77.3144 867.288 77.0795C867.466 76.8409 867.72 76.6288 868.05 76.4432C868.383 76.2538 868.834 76.1591 869.402 76.1591C870.137 76.1591 870.785 76.3428 871.345 76.7102C871.906 77.0777 872.343 77.5985 872.658 78.2727C872.972 78.947 873.129 79.7424 873.129 80.6591C873.129 81.5833 872.972 82.3845 872.658 83.0625C872.343 83.7367 871.908 84.2595 871.351 84.6307C870.794 84.9981 870.152 85.1818 869.425 85.1818C868.864 85.1818 868.415 85.089 868.078 84.9034C867.741 84.714 867.482 84.5 867.3 84.2614C867.118 84.0189 866.978 83.8182 866.879 83.6591H866.72V85H865.425ZM866.743 80.6364C866.743 81.2955 866.839 81.8769 867.033 82.3807C867.226 82.8807 867.508 83.2727 867.879 83.5568C868.25 83.8371 868.705 83.9773 869.243 83.9773C869.804 83.9773 870.271 83.8295 870.646 83.5341C871.025 83.2348 871.309 82.8333 871.499 82.3295C871.692 81.822 871.788 81.2576 871.788 80.6364C871.788 80.0227 871.694 79.4697 871.504 78.9773C871.319 78.4811 871.036 78.089 870.658 77.8011C870.283 77.5095 869.811 77.3636 869.243 77.3636C868.697 77.3636 868.239 77.5019 867.868 77.7784C867.497 78.0511 867.216 78.4337 867.027 78.9261C866.838 79.4148 866.743 79.9848 866.743 80.6364ZM878.726 85.1818C877.938 85.1818 877.247 84.9943 876.652 84.6193C876.061 84.2443 875.599 83.7197 875.266 83.0455C874.936 82.3712 874.771 81.5833 874.771 80.6818C874.771 79.7727 874.936 78.9792 875.266 78.3011C875.599 77.6231 876.061 77.0966 876.652 76.7216C877.247 76.3466 877.938 76.1591 878.726 76.1591C879.514 76.1591 880.203 76.3466 880.794 76.7216C881.389 77.0966 881.851 77.6231 882.18 78.3011C882.514 78.9792 882.68 79.7727 882.68 80.6818C882.68 81.5833 882.514 82.3712 882.18 83.0455C881.851 83.7197 881.389 84.2443 880.794 84.6193C880.203 84.9943 879.514 85.1818 878.726 85.1818ZM878.726 83.9773C879.324 83.9773 879.817 83.8239 880.203 83.517C880.589 83.2102 880.875 82.8068 881.061 82.3068C881.247 81.8068 881.339 81.2652 881.339 80.6818C881.339 80.0985 881.247 79.5549 881.061 79.0511C880.875 78.5473 880.589 78.1402 880.203 77.8295C879.817 77.5189 879.324 77.3636 878.726 77.3636C878.127 77.3636 877.635 77.5189 877.249 77.8295C876.862 78.1402 876.576 78.5473 876.391 79.0511C876.205 79.5549 876.112 80.0985 876.112 80.6818C876.112 81.2652 876.205 81.8068 876.391 82.3068C876.576 82.8068 876.862 83.2102 877.249 83.517C877.635 83.8239 878.127 83.9773 878.726 83.9773ZM888.023 85.1818C887.295 85.1818 886.653 84.9981 886.097 84.6307C885.54 84.2595 885.104 83.7367 884.79 83.0625C884.475 82.3845 884.318 81.5833 884.318 80.6591C884.318 79.7424 884.475 78.947 884.79 78.2727C885.104 77.5985 885.542 77.0777 886.102 76.7102C886.663 76.3428 887.311 76.1591 888.045 76.1591C888.614 76.1591 889.063 76.2538 889.392 76.4432C889.725 76.6288 889.979 76.8409 890.153 77.0795C890.331 77.3144 890.47 77.5076 890.568 77.6591H890.682V73.3636H892.023V85H890.727V83.6591H890.568C890.47 83.8182 890.33 84.0189 890.148 84.2614C889.966 84.5 889.706 84.714 889.369 84.9034C889.032 85.089 888.583 85.1818 888.023 85.1818ZM888.205 83.9773C888.742 83.9773 889.197 83.8371 889.568 83.5568C889.939 83.2727 890.222 82.8807 890.415 82.3807C890.608 81.8769 890.705 81.2955 890.705 80.6364C890.705 79.9848 890.61 79.4148 890.42 78.9261C890.231 78.4337 889.951 78.0511 889.58 77.7784C889.208 77.5019 888.75 77.3636 888.205 77.3636C887.636 77.3636 887.163 77.5095 886.784 77.8011C886.409 78.089 886.127 78.4811 885.938 78.9773C885.752 79.4697 885.659 80.0227 885.659 80.6364C885.659 81.2576 885.754 81.822 885.943 82.3295C886.136 82.8333 886.42 83.2348 886.795 83.5341C887.174 83.8295 887.644 83.9773 888.205 83.9773ZM895.528 88.25C895.301 88.25 895.098 88.2311 894.92 88.1932C894.742 88.1591 894.619 88.125 894.551 88.0909L894.892 86.9091C895.381 87.0341 895.788 87.0303 896.114 86.8977C896.439 86.7689 896.722 86.3788 896.96 85.7273L897.21 85.0455L893.983 76.2727H895.438L897.847 83.2273H897.938L900.347 76.2727L901.812 76.2955L898.097 86.2727C897.93 86.7159 897.723 87.0833 897.477 87.375C897.231 87.6705 896.945 87.8902 896.619 88.0341C896.297 88.178 895.934 88.25 895.528 88.25ZM906.794 72.8182L903.044 86.75H901.817L905.567 72.8182H906.794ZM908.565 85V73.3636H909.906V77.6591H910.02C910.118 77.5076 910.255 77.3144 910.429 77.0795C910.607 76.8409 910.861 76.6288 911.19 76.4432C911.524 76.2538 911.974 76.1591 912.543 76.1591C913.277 76.1591 913.925 76.3428 914.486 76.7102C915.046 77.0777 915.484 77.5985 915.798 78.2727C916.113 78.947 916.27 79.7424 916.27 80.6591C916.27 81.5833 916.113 82.3845 915.798 83.0625C915.484 83.7367 915.048 84.2595 914.491 84.6307C913.935 84.9981 913.293 85.1818 912.565 85.1818C912.005 85.1818 911.556 85.089 911.219 84.9034C910.882 84.714 910.622 84.5 910.44 84.2614C910.259 84.0189 910.118 83.8182 910.02 83.6591H909.861V85H908.565ZM909.884 80.6364C909.884 81.2955 909.98 81.8769 910.173 82.3807C910.366 82.8807 910.649 83.2727 911.02 83.5568C911.391 83.8371 911.846 83.9773 912.384 83.9773C912.944 83.9773 913.412 83.8295 913.787 83.5341C914.166 83.2348 914.45 82.8333 914.639 82.3295C914.832 81.822 914.929 81.2576 914.929 80.6364C914.929 80.0227 914.834 79.4697 914.645 78.9773C914.459 78.4811 914.177 78.089 913.798 77.8011C913.423 77.5095 912.952 77.3636 912.384 77.3636C911.838 77.3636 911.38 77.5019 911.009 77.7784C910.637 78.0511 910.357 78.4337 910.168 78.9261C909.978 79.4148 909.884 79.9848 909.884 80.6364ZM921.866 85.1818C921.079 85.1818 920.387 84.9943 919.793 84.6193C919.202 84.2443 918.74 83.7197 918.406 83.0455C918.077 82.3712 917.912 81.5833 917.912 80.6818C917.912 79.7727 918.077 78.9792 918.406 78.3011C918.74 77.6231 919.202 77.0966 919.793 76.7216C920.387 76.3466 921.079 76.1591 921.866 76.1591C922.654 76.1591 923.344 76.3466 923.935 76.7216C924.529 77.0966 924.991 77.6231 925.321 78.3011C925.654 78.9792 925.821 79.7727 925.821 80.6818C925.821 81.5833 925.654 82.3712 925.321 83.0455C924.991 83.7197 924.529 84.2443 923.935 84.6193C923.344 84.9943 922.654 85.1818 921.866 85.1818ZM921.866 83.9773C922.465 83.9773 922.957 83.8239 923.344 83.517C923.73 83.2102 924.016 82.8068 924.202 82.3068C924.387 81.8068 924.48 81.2652 924.48 80.6818C924.48 80.0985 924.387 79.5549 924.202 79.0511C924.016 78.5473 923.73 78.1402 923.344 77.8295C922.957 77.5189 922.465 77.3636 921.866 77.3636C921.268 77.3636 920.776 77.5189 920.389 77.8295C920.003 78.1402 919.717 78.5473 919.531 79.0511C919.346 79.5549 919.253 80.0985 919.253 80.6818C919.253 81.2652 919.346 81.8068 919.531 82.3068C919.717 82.8068 920.003 83.2102 920.389 83.517C920.776 83.8239 921.268 83.9773 921.866 83.9773ZM931.163 85.1818C930.436 85.1818 929.794 84.9981 929.237 84.6307C928.68 84.2595 928.245 83.7367 927.93 83.0625C927.616 82.3845 927.459 81.5833 927.459 80.6591C927.459 79.7424 927.616 78.947 927.93 78.2727C928.245 77.5985 928.682 77.0777 929.243 76.7102C929.804 76.3428 930.451 76.1591 931.186 76.1591C931.754 76.1591 932.203 76.2538 932.533 76.4432C932.866 76.6288 933.12 76.8409 933.294 77.0795C933.472 77.3144 933.61 77.5076 933.709 77.6591H933.822V73.3636H935.163V85H933.868V83.6591H933.709C933.61 83.8182 933.47 84.0189 933.288 84.2614C933.107 84.5 932.847 84.714 932.51 84.9034C932.173 85.089 931.724 85.1818 931.163 85.1818ZM931.345 83.9773C931.883 83.9773 932.338 83.8371 932.709 83.5568C933.08 83.2727 933.362 82.8807 933.555 82.3807C933.749 81.8769 933.845 81.2955 933.845 80.6364C933.845 79.9848 933.75 79.4148 933.561 78.9261C933.372 78.4337 933.091 78.0511 932.72 77.7784C932.349 77.5019 931.891 77.3636 931.345 77.3636C930.777 77.3636 930.304 77.5095 929.925 77.8011C929.55 78.089 929.268 78.4811 929.078 78.9773C928.893 79.4697 928.8 80.0227 928.8 80.6364C928.8 81.2576 928.894 81.822 929.084 82.3295C929.277 82.8333 929.561 83.2348 929.936 83.5341C930.315 83.8295 930.785 83.9773 931.345 83.9773ZM938.669 88.25C938.442 88.25 938.239 88.2311 938.061 88.1932C937.883 88.1591 937.76 88.125 937.692 88.0909L938.033 86.9091C938.521 87.0341 938.929 87.0303 939.254 86.8977C939.58 86.7689 939.862 86.3788 940.101 85.7273L940.351 85.0455L937.124 76.2727H938.578L940.987 83.2273H941.078L943.487 76.2727L944.953 76.2955L941.237 86.2727C941.071 86.7159 940.864 87.0833 940.618 87.375C940.372 87.6705 940.086 87.8902 939.76 88.0341C939.438 88.178 939.074 88.25 938.669 88.25ZM951.727 79.3864V80.6364H946.636V79.3864H951.727ZM954.087 85V76.2727H955.382V77.6364H955.496C955.678 77.1705 955.971 76.8087 956.376 76.5511C956.782 76.2898 957.268 76.1591 957.837 76.1591C958.412 76.1591 958.892 76.2898 959.274 76.5511C959.661 76.8087 959.962 77.1705 960.178 77.6364H960.268C960.492 77.1856 960.827 76.8277 961.274 76.5625C961.721 76.2936 962.257 76.1591 962.882 76.1591C963.662 76.1591 964.301 76.4034 964.797 76.892C965.293 77.3769 965.541 78.1326 965.541 79.1591V85H964.2V79.1591C964.2 78.5152 964.024 78.0549 963.672 77.7784C963.32 77.5019 962.905 77.3636 962.428 77.3636C961.814 77.3636 961.339 77.5492 961.001 77.9205C960.664 78.2879 960.496 78.7538 960.496 79.3182V85H959.132V79.0227C959.132 78.5265 958.971 78.1269 958.649 77.8239C958.327 77.517 957.912 77.3636 957.405 77.3636C957.056 77.3636 956.731 77.4564 956.428 77.642C956.128 77.8277 955.886 78.0852 955.7 78.4148C955.518 78.7405 955.428 79.1174 955.428 79.5455V85H954.087ZM967.993 85V76.2727H969.334V85H967.993ZM968.675 74.8182C968.413 74.8182 968.188 74.7292 967.999 74.5511C967.813 74.3731 967.72 74.1591 967.72 73.9091C967.72 73.6591 967.813 73.4451 967.999 73.267C968.188 73.089 968.413 73 968.675 73C968.936 73 969.16 73.089 969.345 73.267C969.535 73.4451 969.629 73.6591 969.629 73.9091C969.629 74.1591 969.535 74.3731 969.345 74.5511C969.16 74.7292 968.936 74.8182 968.675 74.8182ZM975.085 85.1818C974.358 85.1818 973.716 84.9981 973.159 84.6307C972.602 84.2595 972.167 83.7367 971.852 83.0625C971.538 82.3845 971.381 81.5833 971.381 80.6591C971.381 79.7424 971.538 78.947 971.852 78.2727C972.167 77.5985 972.604 77.0777 973.165 76.7102C973.725 76.3428 974.373 76.1591 975.108 76.1591C975.676 76.1591 976.125 76.2538 976.455 76.4432C976.788 76.6288 977.042 76.8409 977.216 77.0795C977.394 77.3144 977.532 77.5076 977.631 77.6591H977.744V73.3636H979.085V85H977.79V83.6591H977.631C977.532 83.8182 977.392 84.0189 977.21 84.2614C977.028 84.5 976.769 84.714 976.432 84.9034C976.095 85.089 975.646 85.1818 975.085 85.1818ZM975.267 83.9773C975.805 83.9773 976.259 83.8371 976.631 83.5568C977.002 83.2727 977.284 82.8807 977.477 82.3807C977.67 81.8769 977.767 81.2955 977.767 80.6364C977.767 79.9848 977.672 79.4148 977.483 78.9261C977.294 78.4337 977.013 78.0511 976.642 77.7784C976.271 77.5019 975.813 77.3636 975.267 77.3636C974.699 77.3636 974.225 77.5095 973.847 77.8011C973.472 78.089 973.189 78.4811 973 78.9773C972.814 79.4697 972.722 80.0227 972.722 80.6364C972.722 81.2576 972.816 81.822 973.006 82.3295C973.199 82.8333 973.483 83.2348 973.858 83.5341C974.237 83.8295 974.706 83.9773 975.267 83.9773ZM987.909 78.2273L986.705 78.5682C986.629 78.3674 986.517 78.1723 986.369 77.983C986.225 77.7898 986.028 77.6307 985.778 77.5057C985.528 77.3807 985.208 77.3182 984.818 77.3182C984.284 77.3182 983.839 77.4413 983.483 77.6875C983.131 77.9299 982.955 78.2386 982.955 78.6136C982.955 78.947 983.076 79.2102 983.318 79.4034C983.561 79.5966 983.939 79.7576 984.455 79.8864L985.75 80.2045C986.53 80.3939 987.112 80.6837 987.494 81.0739C987.877 81.4602 988.068 81.9583 988.068 82.5682C988.068 83.0682 987.924 83.5152 987.636 83.9091C987.352 84.303 986.955 84.6136 986.443 84.8409C985.932 85.0682 985.337 85.1818 984.659 85.1818C983.769 85.1818 983.032 84.9886 982.449 84.6023C981.866 84.2159 981.496 83.6515 981.341 82.9091L982.614 82.5909C982.735 83.0606 982.964 83.4129 983.301 83.6477C983.642 83.8826 984.087 84 984.636 84C985.261 84 985.758 83.8674 986.125 83.6023C986.496 83.3333 986.682 83.0114 986.682 82.6364C986.682 82.3333 986.576 82.0795 986.364 81.875C986.152 81.6667 985.826 81.5114 985.386 81.4091L983.932 81.0682C983.133 80.8788 982.545 80.5852 982.17 80.1875C981.799 79.786 981.614 79.2841 981.614 78.6818C981.614 78.1894 981.752 77.7538 982.028 77.375C982.309 76.9962 982.689 76.6989 983.17 76.483C983.655 76.267 984.205 76.1591 984.818 76.1591C985.682 76.1591 986.36 76.3485 986.852 76.7273C987.348 77.1061 987.701 77.6061 987.909 78.2273ZM990.087 85V76.2727H991.428V85H990.087ZM990.768 74.8182C990.507 74.8182 990.282 74.7292 990.092 74.5511C989.907 74.3731 989.814 74.1591 989.814 73.9091C989.814 73.6591 989.907 73.4451 990.092 73.267C990.282 73.089 990.507 73 990.768 73C991.03 73 991.253 73.089 991.439 73.267C991.628 73.4451 991.723 73.6591 991.723 73.9091C991.723 74.1591 991.628 74.3731 991.439 74.5511C991.253 74.7292 991.03 74.8182 990.768 74.8182ZM993.634 85V83.9773L998.588 77.6136V77.5227H993.793V76.2727H1000.32V77.3409L995.497 83.6591V83.75H1000.47V85H993.634ZM1005.95 85.1818C1005.11 85.1818 1004.38 84.9962 1003.77 84.625C1003.17 84.25 1002.7 83.7273 1002.37 83.0568C1002.04 82.3826 1001.88 81.5985 1001.88 80.7045C1001.88 79.8106 1002.04 79.0227 1002.37 78.3409C1002.7 77.6553 1003.16 77.1212 1003.74 76.7386C1004.34 76.3523 1005.02 76.1591 1005.81 76.1591C1006.27 76.1591 1006.72 76.2348 1007.16 76.3864C1007.6 76.5379 1008.01 76.7841 1008.37 77.125C1008.73 77.4621 1009.02 77.9091 1009.24 78.4659C1009.45 79.0227 1009.56 79.7083 1009.56 80.5227V81.0909H1002.84V79.9318H1008.2C1008.2 79.4394 1008.1 79 1007.9 78.6136C1007.71 78.2273 1007.43 77.9223 1007.07 77.6989C1006.72 77.4754 1006.3 77.3636 1005.81 77.3636C1005.28 77.3636 1004.82 77.4962 1004.43 77.7614C1004.04 78.0227 1003.74 78.3636 1003.53 78.7841C1003.33 79.2045 1003.22 79.6553 1003.22 80.1364V80.9091C1003.22 81.5682 1003.34 82.1269 1003.56 82.5852C1003.79 83.0398 1004.11 83.3864 1004.52 83.625C1004.93 83.8598 1005.41 83.9773 1005.95 83.9773C1006.3 83.9773 1006.62 83.928 1006.9 83.8295C1007.19 83.7273 1007.44 83.5758 1007.65 83.375C1007.86 83.1705 1008.02 82.9167 1008.13 82.6136L1009.43 82.9773C1009.29 83.4167 1009.06 83.803 1008.74 84.1364C1008.42 84.4659 1008.02 84.7235 1007.55 84.9091C1007.07 85.0909 1006.54 85.1818 1005.95 85.1818ZM1017.62 85V86.25H1010.35V85H1017.62ZM1019.57 85V76.2727H1020.87V77.5909H1020.96C1021.12 77.1591 1021.4 76.8087 1021.82 76.5398C1022.24 76.2708 1022.71 76.1364 1023.23 76.1364C1023.33 76.1364 1023.45 76.1383 1023.6 76.142C1023.75 76.1458 1023.86 76.1515 1023.93 76.1591V77.5227C1023.89 77.5114 1023.79 77.4943 1023.62 77.4716C1023.46 77.4451 1023.29 77.4318 1023.12 77.4318C1022.69 77.4318 1022.31 77.5208 1021.98 77.6989C1021.65 77.8731 1021.39 78.1155 1021.2 78.4261C1021.01 78.733 1020.91 79.0833 1020.91 79.4773V85H1019.57ZM1028.92 85.1818C1028.08 85.1818 1027.35 84.9962 1026.74 84.625C1026.14 84.25 1025.67 83.7273 1025.34 83.0568C1025.01 82.3826 1024.85 81.5985 1024.85 80.7045C1024.85 79.8106 1025.01 79.0227 1025.34 78.3409C1025.67 77.6553 1026.13 77.1212 1026.71 76.7386C1027.3 76.3523 1027.99 76.1591 1028.78 76.1591C1029.24 76.1591 1029.68 76.2348 1030.13 76.3864C1030.57 76.5379 1030.97 76.7841 1031.34 77.125C1031.7 77.4621 1031.99 77.9091 1032.21 78.4659C1032.42 79.0227 1032.53 79.7083 1032.53 80.5227V81.0909H1025.8V79.9318H1031.17C1031.17 79.4394 1031.07 79 1030.87 78.6136C1030.68 78.2273 1030.4 77.9223 1030.04 77.6989C1029.69 77.4754 1029.27 77.3636 1028.78 77.3636C1028.25 77.3636 1027.79 77.4962 1027.39 77.7614C1027.01 78.0227 1026.71 78.3636 1026.5 78.7841C1026.29 79.2045 1026.19 79.6553 1026.19 80.1364V80.9091C1026.19 81.5682 1026.3 82.1269 1026.53 82.5852C1026.76 83.0398 1027.08 83.3864 1027.49 83.625C1027.9 83.8598 1028.38 83.9773 1028.92 83.9773C1029.27 83.9773 1029.59 83.928 1029.87 83.8295C1030.16 83.7273 1030.41 83.5758 1030.62 83.375C1030.82 83.1705 1030.99 82.9167 1031.1 82.6136L1032.39 82.9773C1032.26 83.4167 1032.03 83.803 1031.71 84.1364C1031.39 84.4659 1030.99 84.7235 1030.51 84.9091C1030.04 85.0909 1029.51 85.1818 1028.92 85.1818ZM1038.09 88.4545C1037.45 88.4545 1036.89 88.3712 1036.42 88.2045C1035.96 88.0417 1035.57 87.8258 1035.26 87.5568C1034.95 87.2917 1034.71 87.0076 1034.53 86.7045L1035.59 85.9545C1035.71 86.1136 1035.87 86.2955 1036.05 86.5C1036.24 86.7083 1036.49 86.8883 1036.82 87.0398C1037.14 87.1951 1037.57 87.2727 1038.09 87.2727C1038.8 87.2727 1039.38 87.1023 1039.84 86.7614C1040.3 86.4205 1040.53 85.8864 1040.53 85.1591V83.3864H1040.41C1040.31 83.5455 1040.17 83.7424 1039.99 83.9773C1039.81 84.2083 1039.56 84.4148 1039.22 84.5966C1038.89 84.7746 1038.43 84.8636 1037.87 84.8636C1037.16 84.8636 1036.53 84.697 1035.97 84.3636C1035.41 84.0303 1034.97 83.5455 1034.64 82.9091C1034.32 82.2727 1034.16 81.5 1034.16 80.5909C1034.16 79.697 1034.32 78.9186 1034.63 78.2557C1034.95 77.589 1035.39 77.0739 1035.95 76.7102C1036.51 76.3428 1037.15 76.1591 1037.89 76.1591C1038.46 76.1591 1038.91 76.2538 1039.24 76.4432C1039.58 76.6288 1039.84 76.8409 1040.01 77.0795C1040.2 77.3144 1040.34 77.5076 1040.43 77.6591H1040.57V76.2727H1041.87V85.25C1041.87 86 1041.7 86.6098 1041.36 87.0795C1041.02 87.553 1040.56 87.8996 1039.99 88.1193C1039.42 88.3428 1038.79 88.4545 1038.09 88.4545ZM1038.05 83.6591C1038.59 83.6591 1039.04 83.536 1039.41 83.2898C1039.78 83.0436 1040.07 82.6894 1040.26 82.2273C1040.45 81.7652 1040.55 81.2121 1040.55 80.5682C1040.55 79.9394 1040.45 79.3845 1040.26 78.9034C1040.07 78.4223 1039.79 78.0455 1039.42 77.7727C1039.05 77.5 1038.59 77.3636 1038.05 77.3636C1037.48 77.3636 1037.01 77.5076 1036.63 77.7955C1036.25 78.0833 1035.97 78.4697 1035.78 78.9545C1035.6 79.4394 1035.5 79.9773 1035.5 80.5682C1035.5 81.1742 1035.6 81.7102 1035.79 82.1761C1035.98 82.6383 1036.26 83.0019 1036.64 83.267C1037.02 83.5284 1037.49 83.6591 1038.05 83.6591ZM1049.82 81.4318V76.2727H1051.16V85H1049.82V83.5227H1049.73C1049.53 83.9659 1049.21 84.3428 1048.78 84.6534C1048.34 84.9602 1047.8 85.1136 1047.14 85.1136C1046.59 85.1136 1046.11 84.9943 1045.68 84.7557C1045.26 84.5133 1044.93 84.1496 1044.68 83.6648C1044.44 83.1761 1044.32 82.5606 1044.32 81.8182V76.2727H1045.66V81.7273C1045.66 82.3636 1045.84 82.8712 1046.2 83.25C1046.56 83.6288 1047.01 83.8182 1047.57 83.8182C1047.9 83.8182 1048.24 83.733 1048.59 83.5625C1048.94 83.392 1049.23 83.1307 1049.46 82.7784C1049.7 82.4261 1049.82 81.9773 1049.82 81.4318ZM1054.96 73.3636V85H1053.62V73.3636H1054.96ZM1059.98 85.2045C1059.43 85.2045 1058.93 85.1004 1058.48 84.892C1058.03 84.6799 1057.67 84.375 1057.4 83.9773C1057.14 83.5758 1057.01 83.0909 1057.01 82.5227C1057.01 82.0227 1057.1 81.6174 1057.3 81.3068C1057.5 80.9924 1057.76 80.7462 1058.09 80.5682C1058.42 80.3902 1058.78 80.2576 1059.18 80.1705C1059.58 80.0795 1059.99 80.0076 1060.39 79.9545C1060.92 79.8864 1061.35 79.8352 1061.68 79.8011C1062.02 79.7633 1062.26 79.7008 1062.41 79.6136C1062.56 79.5265 1062.64 79.375 1062.64 79.1591V79.1136C1062.64 78.553 1062.49 78.1174 1062.18 77.8068C1061.88 77.4962 1061.42 77.3409 1060.8 77.3409C1060.16 77.3409 1059.66 77.4811 1059.3 77.7614C1058.93 78.0417 1058.68 78.3409 1058.53 78.6591L1057.26 78.2045C1057.48 77.6742 1057.79 77.2614 1058.16 76.9659C1058.55 76.6667 1058.96 76.4583 1059.41 76.3409C1059.87 76.2197 1060.32 76.1591 1060.76 76.1591C1061.04 76.1591 1061.36 76.1932 1061.72 76.2614C1062.09 76.3258 1062.44 76.4602 1062.78 76.6648C1063.13 76.8693 1063.41 77.178 1063.64 77.5909C1063.87 78.0038 1063.98 78.5568 1063.98 79.25V85H1062.64V83.8182H1062.57C1062.48 84.0076 1062.33 84.2102 1062.12 84.4261C1061.91 84.642 1061.63 84.8258 1061.27 84.9773C1060.92 85.1288 1060.49 85.2045 1059.98 85.2045ZM1060.19 84C1060.72 84 1061.16 83.8958 1061.53 83.6875C1061.9 83.4792 1062.17 83.2102 1062.36 82.8807C1062.55 82.5511 1062.64 82.2045 1062.64 81.8409V80.6136C1062.59 80.6818 1062.46 80.7443 1062.27 80.8011C1062.08 80.8542 1061.86 80.9015 1061.61 80.9432C1061.36 80.9811 1061.12 81.0152 1060.89 81.0455C1060.66 81.072 1060.47 81.0947 1060.32 81.1136C1059.98 81.1591 1059.65 81.233 1059.35 81.3352C1059.05 81.4337 1058.8 81.5833 1058.62 81.7841C1058.44 81.9811 1058.35 82.25 1058.35 82.5909C1058.35 83.0568 1058.52 83.4091 1058.86 83.6477C1059.21 83.8826 1059.65 84 1060.19 84ZM1066.43 85V76.2727H1067.73V77.5909H1067.82C1067.98 77.1591 1068.26 76.8087 1068.68 76.5398C1069.1 76.2708 1069.57 76.1364 1070.09 76.1364C1070.19 76.1364 1070.31 76.1383 1070.46 76.142C1070.61 76.1458 1070.72 76.1515 1070.79 76.1591V77.5227C1070.75 77.5114 1070.64 77.4943 1070.48 77.4716C1070.32 77.4451 1070.15 77.4318 1069.98 77.4318C1069.55 77.4318 1069.17 77.5208 1068.84 77.6989C1068.51 77.8731 1068.25 78.1155 1068.06 78.4261C1067.87 78.733 1067.77 79.0833 1067.77 79.4773V85H1066.43Z" fill="white" fill-opacity="0.95"/>
</svg>
