<svg width="1300" height="252" viewBox="0 0 1300 252" fill="none" xmlns="http://www.w3.org/2000/svg">
<rect width="1300" height="252" rx="24" fill="#262626"/>
<rect x="250" y="100" width="32" height="32" rx="16" fill="#DA0087"/>
<path d="M265.126 120.5V112.716L262.886 113.864V111.89L265.14 110.7H267.31V120.5H265.126Z" fill="white" fill-opacity="0.95"/>
<rect x="250" y="144" width="300" height="8" rx="4" fill="#8F8F8F"/>
<rect x="250" y="144" width="75" height="8" rx="4" fill="#3492EB"/>
<rect x="750" y="100" width="32" height="32" rx="16" fill="#DA0087"/>
<path d="M764.398 113.388H762.116C762.256 112.417 762.741 111.666 763.572 111.134C764.235 110.705 765.005 110.49 765.882 110.49C766.937 110.49 767.781 110.784 768.416 111.372C768.976 111.885 769.256 112.525 769.256 113.29C769.256 114.046 769.032 114.732 768.584 115.348C768.295 115.731 767.641 116.417 766.624 117.406L765.266 118.722H769.186V120.5H762.396V118.722L764.762 116.398L765.084 116.076C765.924 115.245 766.456 114.667 766.68 114.34C766.913 114.013 767.03 113.663 767.03 113.29C767.03 112.898 766.904 112.595 766.652 112.38C766.437 112.203 766.157 112.114 765.812 112.114C765.457 112.114 765.154 112.226 764.902 112.45C764.659 112.674 764.491 112.987 764.398 113.388Z" fill="white" fill-opacity="0.95"/>
<rect x="750" y="144" width="300" height="8" rx="4" fill="#8F8F8F"/>
<rect x="750" y="144" width="225" height="8" rx="4" fill="#3492EB"/>
</svg>
