<svg width="1150" height="304" viewBox="0 0 1150 304" fill="none" xmlns="http://www.w3.org/2000/svg">
<rect width="1150" height="304" rx="16" fill="#262626"/>
<path d="M321.313 136.562C321.239 136.563 321.165 136.548 321.097 136.52C321.029 136.492 320.967 136.45 320.915 136.398C320.862 136.346 320.821 136.284 320.793 136.215C320.764 136.147 320.75 136.074 320.75 136C320.75 137.335 320.354 138.64 319.612 139.75C318.871 140.86 317.817 141.725 316.583 142.236C315.35 142.747 313.993 142.881 312.683 142.62C311.374 142.36 310.171 141.717 309.227 140.773C308.283 139.829 307.64 138.626 307.38 137.317C307.119 136.007 307.253 134.65 307.764 133.417C308.275 132.183 309.14 131.129 310.25 130.388C311.36 129.646 312.665 129.25 314 129.25C313.851 129.25 313.708 129.191 313.602 129.085C313.497 128.98 313.438 128.837 313.438 128.688C313.438 128.538 313.497 128.395 313.602 128.29C313.708 128.184 313.851 128.125 314 128.125C312.442 128.125 310.92 128.587 309.625 129.452C308.33 130.317 307.32 131.547 306.724 132.986C306.128 134.425 305.972 136.009 306.276 137.536C306.58 139.064 307.33 140.467 308.432 141.568C309.533 142.67 310.936 143.42 312.464 143.724C313.991 144.028 315.575 143.872 317.014 143.276C318.453 142.68 319.683 141.67 320.548 140.375C321.413 139.08 321.875 137.558 321.875 136C321.875 136.074 321.861 136.147 321.832 136.215C321.804 136.284 321.763 136.346 321.71 136.398C321.658 136.45 321.596 136.492 321.528 136.52C321.46 136.548 321.386 136.563 321.313 136.562Z" fill="white" fill-opacity="0.2"/>
<path d="M313.438 128.688C313.437 128.761 313.452 128.835 313.48 128.903C313.508 128.971 313.55 129.033 313.602 129.085C313.654 129.138 313.716 129.179 313.785 129.207C313.853 129.236 313.926 129.25 314 129.25C315.79 129.252 317.505 129.964 318.771 131.229C320.036 132.495 320.748 134.21 320.75 136C320.75 136.149 320.809 136.292 320.915 136.398C321.02 136.503 321.163 136.562 321.312 136.562C321.462 136.562 321.605 136.503 321.71 136.398C321.816 136.292 321.875 136.149 321.875 136C321.873 133.912 321.042 131.91 319.566 130.434C318.09 128.958 316.088 128.127 314 128.125C313.926 128.125 313.853 128.139 313.785 128.168C313.716 128.196 313.654 128.237 313.602 128.29C313.55 128.342 313.508 128.404 313.48 128.472C313.452 128.54 313.437 128.614 313.438 128.688Z" fill="#3492EB"/>
<path d="M322 128H326L330 128" stroke="#DB1F2E" stroke-linecap="round" stroke-dasharray="0.01 4"/>
<path d="M322 144H326L330 144" stroke="#DB1F2E" stroke-linecap="round" stroke-dasharray="0.01 4"/>
<path d="M338 128H346L354 128" stroke="#DB1F2E"/>
<path d="M346 129V128" stroke="#DB1F2E"/>
<path d="M343.865 132.727V140H342.985V133.651H342.942L341.166 134.83V133.935L342.985 132.727H343.865ZM348.372 140.099C348.073 140.095 347.775 140.038 347.477 139.929C347.179 139.82 346.906 139.637 346.66 139.379C346.414 139.118 346.216 138.767 346.067 138.324C345.918 137.879 345.843 137.32 345.843 136.648C345.843 136.001 345.904 135.429 346.024 134.929C346.145 134.427 346.32 134.004 346.55 133.661C346.78 133.318 347.057 133.058 347.381 132.88C347.708 132.702 348.076 132.614 348.485 132.614C348.893 132.614 349.255 132.695 349.572 132.859C349.892 133.022 350.152 133.249 350.353 133.54C350.554 133.829 350.685 134.164 350.744 134.545H349.877C349.797 134.212 349.641 133.937 349.409 133.722C349.177 133.504 348.869 133.395 348.485 133.395C347.922 133.395 347.478 133.641 347.154 134.134C346.832 134.624 346.67 135.315 346.667 136.207H346.724C346.857 136.006 347.014 135.835 347.196 135.692C347.381 135.548 347.585 135.437 347.807 135.359C348.03 135.281 348.265 135.241 348.514 135.241C348.93 135.241 349.312 135.346 349.657 135.554C350.003 135.76 350.28 136.045 350.488 136.41C350.697 136.772 350.801 137.188 350.801 137.656C350.801 138.106 350.7 138.518 350.499 138.892C350.298 139.264 350.015 139.56 349.65 139.78C349.288 139.998 348.862 140.104 348.372 140.099ZM348.372 139.318C348.67 139.318 348.938 139.244 349.174 139.094C349.413 138.945 349.602 138.745 349.739 138.494C349.879 138.243 349.948 137.964 349.948 137.656C349.948 137.356 349.881 137.082 349.746 136.836C349.613 136.587 349.43 136.39 349.196 136.243C348.964 136.096 348.698 136.023 348.4 136.023C348.175 136.023 347.966 136.068 347.772 136.158C347.577 136.245 347.407 136.366 347.26 136.52C347.116 136.674 347.002 136.85 346.919 137.049C346.836 137.246 346.795 137.453 346.795 137.67C346.795 137.959 346.862 138.229 346.997 138.48C347.135 138.731 347.322 138.933 347.559 139.087C347.798 139.241 348.069 139.318 348.372 139.318Z" fill="white" fill-opacity="0.95"/>
<path d="M346 145V144" stroke="#DB1F2E"/>
<path d="M338 145H346L354 145" stroke="#DB1F2E"/>
<path d="M306 144V148L306 152" stroke="#FF634E" stroke-linecap="round" stroke-dasharray="0.01 4"/>
<path d="M322 144V148L322 152" stroke="#DB1F2E" stroke-linecap="round" stroke-dasharray="0.01 4"/>
<path d="M306 160V168L306 176" stroke="#DB1F2E"/>
<path d="M306 168H307" stroke="#DB1F2E"/>
<path d="M311.865 164.227V171.5H310.985V165.151H310.942L309.166 166.33V165.435L310.985 164.227H311.865ZM316.372 171.599C316.073 171.595 315.775 171.538 315.477 171.429C315.179 171.32 314.906 171.137 314.66 170.879C314.414 170.618 314.216 170.267 314.067 169.824C313.918 169.379 313.843 168.82 313.843 168.148C313.843 167.501 313.904 166.929 314.024 166.429C314.145 165.927 314.32 165.504 314.55 165.161C314.78 164.818 315.057 164.558 315.381 164.38C315.708 164.202 316.076 164.114 316.485 164.114C316.893 164.114 317.255 164.195 317.572 164.359C317.892 164.522 318.152 164.749 318.353 165.04C318.554 165.329 318.685 165.664 318.744 166.045H317.877C317.797 165.712 317.641 165.437 317.409 165.222C317.177 165.004 316.869 164.895 316.485 164.895C315.922 164.895 315.478 165.141 315.154 165.634C314.832 166.124 314.67 166.815 314.667 167.707H314.724C314.857 167.506 315.014 167.335 315.196 167.192C315.381 167.048 315.585 166.937 315.807 166.859C316.03 166.781 316.265 166.741 316.514 166.741C316.93 166.741 317.312 166.846 317.657 167.054C318.003 167.26 318.28 167.545 318.488 167.91C318.697 168.272 318.801 168.688 318.801 169.156C318.801 169.606 318.7 170.018 318.499 170.392C318.298 170.764 318.015 171.06 317.65 171.28C317.288 171.498 316.862 171.604 316.372 171.599ZM316.372 170.818C316.67 170.818 316.938 170.744 317.174 170.594C317.413 170.445 317.602 170.245 317.739 169.994C317.879 169.743 317.948 169.464 317.948 169.156C317.948 168.856 317.881 168.582 317.746 168.336C317.613 168.087 317.43 167.89 317.196 167.743C316.964 167.596 316.698 167.523 316.4 167.523C316.175 167.523 315.966 167.568 315.772 167.658C315.577 167.745 315.407 167.866 315.26 168.02C315.116 168.174 315.002 168.35 314.919 168.549C314.836 168.746 314.795 168.953 314.795 169.17C314.795 169.459 314.862 169.729 314.997 169.98C315.135 170.231 315.322 170.433 315.559 170.587C315.798 170.741 316.069 170.818 316.372 170.818Z" fill="white" fill-opacity="0.95"/>
<path d="M321 168H322" stroke="#DB1F2E"/>
<path d="M322 160V168L322 176" stroke="#DB1F2E"/>
<path d="M466.625 137.125C466.477 137.125 466.331 137.096 466.194 137.04C466.058 136.983 465.934 136.9 465.829 136.796C465.725 136.691 465.642 136.567 465.585 136.431C465.529 136.294 465.5 136.148 465.5 136C465.5 138.67 464.708 141.28 463.225 143.5C461.741 145.72 459.633 147.451 457.166 148.472C454.699 149.494 451.985 149.762 449.366 149.241C446.748 148.72 444.342 147.434 442.454 145.546C440.566 143.658 439.28 141.252 438.759 138.634C438.239 136.015 438.506 133.301 439.528 130.834C440.549 128.367 442.28 126.259 444.5 124.775C446.72 123.292 449.33 122.5 452 122.5C451.702 122.5 451.415 122.381 451.205 122.17C450.994 121.96 450.875 121.673 450.875 121.375C450.875 121.077 450.994 120.79 451.205 120.58C451.415 120.369 451.702 120.25 452 120.25C448.885 120.25 445.84 121.174 443.25 122.904C440.66 124.635 438.641 127.095 437.449 129.973C436.257 132.851 435.945 136.017 436.553 139.073C437.16 142.128 438.66 144.934 440.863 147.137C443.066 149.34 445.872 150.84 448.927 151.447C451.983 152.055 455.149 151.743 458.027 150.551C460.905 149.359 463.365 147.34 465.096 144.75C466.826 142.16 467.75 139.115 467.75 136C467.75 136.148 467.721 136.294 467.665 136.431C467.608 136.567 467.525 136.691 467.421 136.796C467.316 136.9 467.192 136.983 467.056 137.04C466.919 137.096 466.773 137.125 466.625 137.125Z" fill="white" fill-opacity="0.2"/>
<path d="M450.875 121.375C450.875 121.523 450.904 121.669 450.96 121.806C451.017 121.942 451.1 122.066 451.204 122.171C451.309 122.275 451.433 122.358 451.569 122.415C451.706 122.471 451.852 122.5 452 122.5C455.579 122.504 459.011 123.927 461.542 126.458C464.073 128.989 465.496 132.421 465.5 136C465.5 136.298 465.619 136.585 465.83 136.795C466.04 137.006 466.327 137.125 466.625 137.125C466.923 137.125 467.21 137.006 467.42 136.795C467.631 136.585 467.75 136.298 467.75 136C467.745 131.824 466.084 127.821 463.132 124.868C460.179 121.916 456.176 120.255 452 120.25C451.852 120.25 451.706 120.279 451.569 120.335C451.433 120.392 451.309 120.475 451.204 120.579C451.1 120.684 451.017 120.808 450.96 120.944C450.904 121.081 450.875 121.227 450.875 121.375Z" fill="#3492EB"/>
<path d="M468 120.046H472L476 120.046" stroke="#DB1F2E" stroke-linecap="round" stroke-dasharray="0.01 4"/>
<path d="M468 152.046H472L476 152.046" stroke="#DB1F2E" stroke-linecap="round" stroke-dasharray="0.01 4"/>
<path d="M484 120.046H492L500 120.046" stroke="#DB1F2E"/>
<path d="M492 128.546V120.046" stroke="#DB1F2E"/>
<path d="M488.999 139.645C488.531 139.645 488.113 139.565 487.746 139.404C487.381 139.243 487.091 139.019 486.876 138.733C486.663 138.444 486.547 138.109 486.528 137.728H487.423C487.442 137.962 487.522 138.165 487.664 138.335C487.806 138.503 487.992 138.633 488.222 138.726C488.451 138.818 488.706 138.864 488.985 138.864C489.298 138.864 489.575 138.81 489.816 138.701C490.058 138.592 490.247 138.44 490.384 138.246C490.522 138.052 490.59 137.827 490.59 137.571C490.59 137.304 490.524 137.068 490.391 136.865C490.259 136.659 490.065 136.498 489.809 136.382C489.553 136.266 489.241 136.208 488.871 136.208H488.289V135.427H488.871C489.16 135.427 489.414 135.374 489.631 135.27C489.852 135.166 490.023 135.019 490.146 134.83C490.272 134.641 490.335 134.418 490.335 134.162C490.335 133.916 490.28 133.702 490.171 133.52C490.062 133.337 489.908 133.195 489.71 133.093C489.513 132.992 489.281 132.941 489.013 132.941C488.763 132.941 488.526 132.987 488.303 133.079C488.083 133.169 487.903 133.301 487.763 133.473C487.624 133.644 487.548 133.85 487.536 134.091H486.684C486.698 133.71 486.813 133.376 487.028 133.09C487.244 132.801 487.526 132.576 487.874 132.415C488.224 132.254 488.609 132.174 489.028 132.174C489.478 132.174 489.863 132.265 490.185 132.447C490.507 132.627 490.755 132.865 490.928 133.161C491.1 133.457 491.187 133.776 491.187 134.12C491.187 134.529 491.079 134.879 490.864 135.167C490.651 135.456 490.361 135.656 489.994 135.767V135.824C490.453 135.9 490.812 136.095 491.07 136.41C491.328 136.723 491.457 137.11 491.457 137.571C491.457 137.967 491.349 138.322 491.134 138.637C490.92 138.949 490.629 139.196 490.26 139.375C489.891 139.555 489.47 139.645 488.999 139.645ZM492.909 139.546V138.907L495.31 136.279C495.591 135.971 495.823 135.704 496.006 135.476C496.188 135.247 496.323 135.031 496.411 134.83C496.5 134.626 496.545 134.413 496.545 134.191C496.545 133.935 496.484 133.714 496.361 133.527C496.24 133.34 496.074 133.195 495.864 133.093C495.653 132.992 495.416 132.941 495.153 132.941C494.874 132.941 494.63 132.999 494.422 133.115C494.216 133.228 494.056 133.388 493.942 133.594C493.831 133.8 493.776 134.042 493.776 134.319H492.938C492.938 133.892 493.036 133.518 493.232 133.196C493.429 132.874 493.696 132.624 494.035 132.444C494.376 132.264 494.758 132.174 495.182 132.174C495.608 132.174 495.986 132.264 496.315 132.444C496.644 132.624 496.902 132.866 497.089 133.172C497.276 133.477 497.369 133.817 497.369 134.191C497.369 134.458 497.321 134.72 497.224 134.976C497.129 135.229 496.963 135.512 496.727 135.824C496.492 136.134 496.167 136.513 495.75 136.961L494.116 138.708V138.765H497.497V139.546H492.909Z" fill="white" fill-opacity="0.95"/>
<path d="M492 152.046V143.546" stroke="#DB1F2E"/>
<path d="M484 152.046H492L500 152.046" stroke="#DB1F2E"/>
<path d="M436 152V156L436 160" stroke="#DB1F2E" stroke-linecap="round" stroke-dasharray="0.01 4"/>
<path d="M468 152V156L468 160" stroke="#DB1F2E" stroke-linecap="round" stroke-dasharray="0.01 4"/>
<path d="M436 168V176L436 184" stroke="#DB1F2E"/>
<path d="M436 176H441.5" stroke="#DB1F2E"/>
<path d="M448.999 179.599C448.531 179.599 448.113 179.519 447.746 179.358C447.381 179.197 447.091 178.973 446.876 178.687C446.663 178.398 446.547 178.063 446.528 177.682H447.423C447.442 177.916 447.522 178.119 447.664 178.289C447.806 178.457 447.992 178.587 448.222 178.68C448.451 178.772 448.706 178.818 448.985 178.818C449.298 178.818 449.575 178.764 449.816 178.655C450.058 178.546 450.247 178.394 450.384 178.2C450.522 178.006 450.59 177.781 450.59 177.526C450.59 177.258 450.524 177.022 450.391 176.819C450.259 176.613 450.065 176.452 449.809 176.336C449.553 176.22 449.241 176.162 448.871 176.162H448.289V175.381H448.871C449.16 175.381 449.414 175.329 449.631 175.224C449.852 175.12 450.023 174.973 450.146 174.784C450.272 174.595 450.335 174.372 450.335 174.116C450.335 173.87 450.28 173.656 450.171 173.474C450.062 173.291 449.908 173.149 449.71 173.048C449.513 172.946 449.281 172.895 449.013 172.895C448.763 172.895 448.526 172.941 448.303 173.033C448.083 173.123 447.903 173.255 447.763 173.428C447.624 173.598 447.548 173.804 447.536 174.045H446.684C446.698 173.664 446.813 173.33 447.028 173.044C447.244 172.755 447.526 172.53 447.874 172.369C448.224 172.208 448.609 172.128 449.028 172.128C449.478 172.128 449.863 172.219 450.185 172.401C450.507 172.581 450.755 172.819 450.928 173.115C451.1 173.411 451.187 173.731 451.187 174.074C451.187 174.483 451.079 174.833 450.864 175.121C450.651 175.41 450.361 175.61 449.994 175.722V175.778C450.453 175.854 450.812 176.049 451.07 176.364C451.328 176.677 451.457 177.064 451.457 177.526C451.457 177.921 451.349 178.276 451.134 178.591C450.92 178.903 450.629 179.15 450.26 179.33C449.891 179.509 449.47 179.599 448.999 179.599ZM452.909 179.5V178.861L455.31 176.233C455.591 175.925 455.823 175.658 456.006 175.43C456.188 175.201 456.323 174.985 456.411 174.784C456.5 174.58 456.545 174.367 456.545 174.145C456.545 173.889 456.484 173.668 456.361 173.481C456.24 173.294 456.074 173.149 455.864 173.048C455.653 172.946 455.416 172.895 455.153 172.895C454.874 172.895 454.63 172.953 454.422 173.069C454.216 173.183 454.056 173.342 453.942 173.548C453.831 173.754 453.776 173.996 453.776 174.273H452.938C452.938 173.847 453.036 173.473 453.232 173.151C453.429 172.829 453.696 172.578 454.035 172.398C454.376 172.218 454.758 172.128 455.182 172.128C455.608 172.128 455.986 172.218 456.315 172.398C456.644 172.578 456.902 172.82 457.089 173.126C457.276 173.431 457.369 173.771 457.369 174.145C457.369 174.412 457.321 174.674 457.224 174.93C457.129 175.183 456.963 175.466 456.727 175.778C456.492 176.089 456.167 176.467 455.75 176.915L454.116 178.662V178.719H457.497V179.5H452.909Z" fill="white" fill-opacity="0.95"/>
<path d="M462.5 176H468" stroke="#DB1F2E"/>
<path d="M468 168V176L468 184" stroke="#DB1F2E"/>
<path d="M624.11 137.547C623.906 137.547 623.705 137.507 623.518 137.429C623.33 137.352 623.159 137.238 623.016 137.094C622.872 136.95 622.758 136.78 622.68 136.592C622.603 136.404 622.563 136.203 622.563 136C622.563 139.671 621.474 143.26 619.434 146.313C617.395 149.365 614.496 151.745 611.104 153.15C607.712 154.554 603.98 154.922 600.379 154.206C596.778 153.49 593.471 151.722 590.875 149.126C588.279 146.53 586.511 143.222 585.794 139.621C585.078 136.021 585.446 132.288 586.851 128.896C588.256 125.505 590.635 122.606 593.687 120.566C596.74 118.526 600.329 117.438 604 117.438C603.59 117.438 603.197 117.275 602.906 116.984C602.616 116.694 602.453 116.301 602.453 115.891C602.453 115.48 602.616 115.087 602.906 114.797C603.197 114.507 603.59 114.344 604 114.344C599.717 114.344 595.53 115.614 591.969 117.993C588.407 120.373 585.632 123.755 583.992 127.713C582.353 131.67 581.925 136.024 582.76 140.225C583.596 144.426 585.658 148.285 588.687 151.313C591.716 154.342 595.574 156.405 599.775 157.24C603.976 158.076 608.331 157.647 612.288 156.008C616.245 154.369 619.627 151.593 622.007 148.032C624.386 144.47 625.657 140.283 625.657 136C625.657 136.203 625.617 136.404 625.539 136.592C625.461 136.78 625.347 136.95 625.204 137.094C625.06 137.238 624.889 137.352 624.702 137.429C624.514 137.507 624.313 137.547 624.11 137.547Z" fill="white" fill-opacity="0.2"/>
<path d="M602.453 115.891C602.453 116.094 602.493 116.295 602.571 116.483C602.649 116.67 602.763 116.841 602.906 116.985C603.05 117.128 603.22 117.242 603.408 117.32C603.596 117.398 603.797 117.438 604 117.438C608.922 117.443 613.64 119.4 617.12 122.88C620.6 126.36 622.557 131.079 622.563 136C622.563 136.41 622.726 136.804 623.016 137.094C623.306 137.384 623.699 137.547 624.11 137.547C624.52 137.547 624.913 137.384 625.203 137.094C625.494 136.804 625.656 136.41 625.656 136C625.65 130.258 623.366 124.754 619.306 120.694C615.246 116.634 609.742 114.35 604 114.344C603.797 114.344 603.596 114.384 603.408 114.461C603.22 114.539 603.05 114.653 602.906 114.797C602.763 114.94 602.649 115.111 602.571 115.299C602.493 115.486 602.453 115.687 602.453 115.891Z" fill="#3492EB"/>
<path d="M626 114.046H630L634 114.046" stroke="#DB1F2E" stroke-linecap="round" stroke-dasharray="0.01 4"/>
<path d="M626 158.046H630L634 158.046" stroke="#DB1F2E" stroke-linecap="round" stroke-dasharray="0.01 4"/>
<path d="M642 114.046H650L658 114.046" stroke="#DB1F2E"/>
<path d="M650 128.546V114.046" stroke="#DB1F2E"/>
<path d="M644.166 138.054V137.33L647.362 132.273H647.888V133.395H647.533L645.118 137.216V137.273H649.422V138.054H644.166ZM647.59 139.546V137.834V137.497V132.273H648.428V139.546H647.59ZM650.582 138.054V137.33L653.778 132.273H654.304V133.395H653.949L651.534 137.216V137.273H655.838V138.054H650.582ZM654.006 139.546V137.834V137.497V132.273H654.844V139.546H654.006Z" fill="white" fill-opacity="0.95"/>
<path d="M650 158.046V143.546" stroke="#DB1F2E"/>
<path d="M642 158.046H650L658 158.046" stroke="#DB1F2E"/>
<path d="M582 158V162L582 166" stroke="#DB1F2E" stroke-linecap="round" stroke-dasharray="0.01 4"/>
<path d="M626 158V162L626 166" stroke="#DB1F2E" stroke-linecap="round" stroke-dasharray="0.01 4"/>
<path d="M582 174V182L582 190" stroke="#DB1F2E"/>
<path d="M582 182H593.5" stroke="#DB1F2E"/>
<path d="M598.166 184.009V183.284L601.362 178.227H601.888V179.349H601.533L599.118 183.17V183.227H603.422V184.009H598.166ZM601.59 185.5V183.788V183.451V178.227H602.428V185.5H601.59ZM604.582 184.009V183.284L607.778 178.227H608.304V179.349H607.949L605.534 183.17V183.227H609.838V184.009H604.582ZM608.006 185.5V183.788V183.451V178.227H608.844V185.5H608.006Z" fill="white" fill-opacity="0.95"/>
<path d="M614.5 182H626" stroke="#DB1F2E"/>
<path d="M626 174V182L626 190" stroke="#DB1F2E"/>
<path d="M808.907 138.531C808.574 138.531 808.245 138.466 807.938 138.339C807.63 138.212 807.351 138.025 807.116 137.79C806.881 137.555 806.695 137.276 806.568 136.969C806.44 136.662 806.375 136.332 806.375 136C806.375 142.008 804.594 147.88 801.256 152.875C797.919 157.871 793.175 161.764 787.624 164.063C782.074 166.362 775.967 166.963 770.074 165.791C764.182 164.619 758.77 161.726 754.522 157.478C750.274 153.23 747.381 147.818 746.209 141.926C745.037 136.034 745.638 129.926 747.937 124.376C750.236 118.826 754.13 114.082 759.125 110.744C764.12 107.406 769.993 105.625 776 105.625C775.329 105.625 774.685 105.358 774.21 104.884C773.736 104.409 773.469 103.765 773.469 103.094C773.469 102.422 773.736 101.779 774.21 101.304C774.685 100.829 775.329 100.562 776 100.562C768.991 100.562 762.14 102.641 756.312 106.535C750.485 110.429 745.942 115.963 743.26 122.439C740.578 128.914 739.876 136.039 741.244 142.914C742.611 149.788 745.986 156.102 750.942 161.058C755.898 166.014 762.213 169.389 769.087 170.757C775.961 172.124 783.086 171.422 789.562 168.74C796.037 166.058 801.572 161.516 805.465 155.688C809.359 149.86 811.438 143.009 811.438 136C811.438 136.332 811.373 136.662 811.245 136.969C811.118 137.276 810.932 137.555 810.697 137.79C810.462 138.025 810.183 138.212 809.875 138.339C809.568 138.466 809.239 138.531 808.907 138.531Z" fill="white" fill-opacity="0.2"/>
<path d="M773.469 103.094C773.469 103.426 773.534 103.755 773.661 104.063C773.788 104.37 773.975 104.649 774.21 104.884C774.445 105.119 774.724 105.306 775.031 105.433C775.339 105.56 775.668 105.625 776 105.625C784.053 105.634 791.774 108.837 797.469 114.531C803.163 120.226 806.366 127.947 806.375 136C806.375 136.671 806.642 137.315 807.117 137.79C807.591 138.265 808.235 138.531 808.906 138.531C809.578 138.531 810.222 138.265 810.696 137.79C811.171 137.315 811.438 136.671 811.438 136C811.427 126.605 807.69 117.597 801.047 110.954C794.403 104.31 785.396 100.573 776 100.563C775.668 100.562 775.339 100.628 775.031 100.755C774.724 100.882 774.445 101.068 774.21 101.303C773.975 101.539 773.788 101.818 773.661 102.125C773.534 102.432 773.469 102.761 773.469 103.094Z" fill="#3492EB"/>
<path d="M812 100.046H816L820 100.046" stroke="#DB1F2E" stroke-linecap="round" stroke-dasharray="0.01 4"/>
<path d="M812 172.046H816L820 172.046" stroke="#DB1F2E" stroke-linecap="round" stroke-dasharray="0.01 4"/>
<path d="M828 100.046H836L844 100.046" stroke="#DB1F2E"/>
<path d="M836 128.546V100.046" stroke="#DB1F2E"/>
<path d="M831.096 139.546L834.349 133.111V133.054H830.599V132.273H835.258V133.097L832.02 139.546H831.096ZM836.582 139.546V138.907L838.983 136.279C839.264 135.971 839.496 135.704 839.679 135.476C839.861 135.247 839.996 135.031 840.083 134.83C840.173 134.626 840.218 134.413 840.218 134.191C840.218 133.935 840.157 133.714 840.034 133.527C839.913 133.34 839.747 133.195 839.536 133.093C839.326 132.992 839.089 132.941 838.826 132.941C838.547 132.941 838.303 132.999 838.095 133.115C837.889 133.228 837.729 133.388 837.615 133.594C837.504 133.8 837.448 134.042 837.448 134.319H836.61C836.61 133.892 836.709 133.518 836.905 133.196C837.102 132.874 837.369 132.624 837.708 132.444C838.049 132.264 838.431 132.174 838.855 132.174C839.281 132.174 839.658 132.264 839.987 132.444C840.317 132.624 840.575 132.866 840.762 133.172C840.949 133.477 841.042 133.817 841.042 134.191C841.042 134.458 840.994 134.72 840.897 134.976C840.802 135.229 840.636 135.512 840.399 135.824C840.165 136.134 839.84 136.513 839.423 136.961L837.789 138.708V138.765H841.17V139.546H836.582Z" fill="white" fill-opacity="0.95"/>
<path d="M836 172.046V143.546" stroke="#DB1F2E"/>
<path d="M828 172.046H836L844 172.046" stroke="#DB1F2E"/>
<path d="M740 172V176L740 180" stroke="#DB1F2E" stroke-linecap="round" stroke-dasharray="0.01 4"/>
<path d="M812 172V176L812 180" stroke="#DB1F2E" stroke-linecap="round" stroke-dasharray="0.01 4"/>
<path d="M740 188V196L740 204" stroke="#DB1F2E"/>
<path d="M740 196H766" stroke="#DB1F2E"/>
<path d="M771.096 199.5L774.349 193.065V193.009H770.599V192.227H775.258V193.051L772.02 199.5H771.096ZM776.582 199.5V198.861L778.983 196.233C779.264 195.925 779.496 195.658 779.679 195.43C779.861 195.201 779.996 194.985 780.083 194.784C780.173 194.58 780.218 194.367 780.218 194.145C780.218 193.889 780.157 193.668 780.034 193.481C779.913 193.294 779.747 193.149 779.536 193.048C779.326 192.946 779.089 192.895 778.826 192.895C778.547 192.895 778.303 192.953 778.095 193.069C777.889 193.183 777.729 193.342 777.615 193.548C777.504 193.754 777.448 193.996 777.448 194.273H776.61C776.61 193.847 776.709 193.473 776.905 193.151C777.102 192.829 777.369 192.578 777.708 192.398C778.049 192.218 778.431 192.128 778.855 192.128C779.281 192.128 779.658 192.218 779.987 192.398C780.317 192.578 780.575 192.82 780.762 193.126C780.949 193.431 781.042 193.771 781.042 194.145C781.042 194.412 780.994 194.674 780.897 194.93C780.802 195.183 780.636 195.466 780.399 195.778C780.165 196.089 779.84 196.467 779.423 196.915L777.789 198.662V198.719H781.17V199.5H776.582Z" fill="white" fill-opacity="0.95"/>
<path d="M786 196H812" stroke="#DB1F2E"/>
<path d="M812 188V196L812 204" stroke="#DB1F2E"/>
</svg>
