<svg width="1300" height="304" viewBox="0 0 1300 304" fill="none" xmlns="http://www.w3.org/2000/svg">
<rect width="1300" height="304" rx="24" fill="#262626"/>
<path d="M396.313 136.562C396.239 136.563 396.165 136.548 396.097 136.52C396.029 136.492 395.967 136.45 395.915 136.398C395.862 136.346 395.821 136.284 395.793 136.215C395.764 136.147 395.75 136.074 395.75 136C395.75 137.335 395.354 138.64 394.612 139.75C393.871 140.86 392.817 141.725 391.583 142.236C390.35 142.747 388.993 142.881 387.683 142.62C386.374 142.36 385.171 141.717 384.227 140.773C383.283 139.829 382.64 138.626 382.38 137.317C382.119 136.007 382.253 134.65 382.764 133.417C383.275 132.183 384.14 131.129 385.25 130.388C386.36 129.646 387.665 129.25 389 129.25C388.851 129.25 388.708 129.191 388.602 129.085C388.497 128.98 388.438 128.837 388.438 128.688C388.438 128.538 388.497 128.395 388.602 128.29C388.708 128.184 388.851 128.125 389 128.125C387.442 128.125 385.92 128.587 384.625 129.452C383.33 130.317 382.32 131.547 381.724 132.986C381.128 134.425 380.972 136.009 381.276 137.536C381.58 139.064 382.33 140.467 383.432 141.568C384.533 142.67 385.936 143.42 387.464 143.724C388.991 144.028 390.575 143.872 392.014 143.276C393.453 142.68 394.683 141.67 395.548 140.375C396.413 139.08 396.875 137.558 396.875 136C396.875 136.074 396.861 136.147 396.832 136.215C396.804 136.284 396.763 136.346 396.71 136.398C396.658 136.45 396.596 136.492 396.528 136.52C396.46 136.548 396.386 136.563 396.313 136.562Z" fill="#3B3B3B"/>
<path d="M388.438 128.688C388.437 128.761 388.452 128.835 388.48 128.903C388.508 128.971 388.55 129.033 388.602 129.085C388.654 129.138 388.716 129.179 388.785 129.207C388.853 129.236 388.926 129.25 389 129.25C390.79 129.252 392.505 129.964 393.771 131.229C395.036 132.495 395.748 134.21 395.75 136C395.75 136.149 395.809 136.292 395.915 136.398C396.02 136.503 396.163 136.562 396.312 136.562C396.462 136.562 396.605 136.503 396.71 136.398C396.816 136.292 396.875 136.149 396.875 136C396.873 133.912 396.042 131.91 394.566 130.434C393.09 128.958 391.088 128.127 389 128.125C388.926 128.125 388.853 128.139 388.785 128.168C388.716 128.196 388.654 128.237 388.602 128.29C388.55 128.342 388.508 128.404 388.48 128.472C388.452 128.54 388.437 128.614 388.438 128.688Z" fill="#3492EB"/>
<path d="M397 128H401L405 128" stroke="#DB1F2E" stroke-linecap="round" stroke-dasharray="0.01 4"/>
<path d="M397 144H401L405 144" stroke="#DB1F2E" stroke-linecap="round" stroke-dasharray="0.01 4"/>
<path d="M413 128H421L429 128" stroke="#DB1F2E"/>
<path d="M421 129V128" stroke="#DB1F2E"/>
<path d="M418.854 140H417.904V134L416.334 134.81V133.82L417.914 133H418.854V140ZM424.32 135.42C425.04 135.42 425.6 135.67 426 136.17C426.333 136.59 426.5 137.123 426.5 137.77C426.5 138.577 426.223 139.2 425.67 139.64C425.243 139.98 424.74 140.15 424.16 140.15C423.3 140.15 422.66 139.82 422.24 139.16C421.88 138.593 421.7 137.8 421.7 136.78C421.7 135.253 421.997 134.167 422.59 133.52C423.003 133.073 423.557 132.85 424.25 132.85C424.817 132.85 425.297 133 425.69 133.3C426.037 133.567 426.26 133.91 426.36 134.33H425.3C425.24 134.11 425.117 133.94 424.93 133.82C424.743 133.693 424.513 133.63 424.24 133.63C423.273 133.63 422.743 134.53 422.65 136.33C422.83 136.043 423.067 135.82 423.36 135.66C423.653 135.5 423.973 135.42 424.32 135.42ZM422.75 137.74C422.75 138.28 422.903 138.697 423.21 138.99C423.457 139.23 423.773 139.35 424.16 139.35C424.587 139.35 424.927 139.2 425.18 138.9C425.413 138.62 425.53 138.26 425.53 137.82C425.53 137.293 425.39 136.887 425.11 136.6C424.863 136.347 424.543 136.22 424.15 136.22C423.67 136.22 423.303 136.39 423.05 136.73C422.85 137.003 422.75 137.34 422.75 137.74Z" fill="white" fill-opacity="0.95"/>
<path d="M421 145V144" stroke="#DB1F2E"/>
<path d="M413 145H421L429 145" stroke="#DB1F2E"/>
<path d="M381 144V148L381 152" stroke="#FF634E" stroke-linecap="round" stroke-dasharray="0.01 4"/>
<path d="M397 144V148L397 152" stroke="#DB1F2E" stroke-linecap="round" stroke-dasharray="0.01 4"/>
<path d="M381 160V168L381 176" stroke="#DB1F2E"/>
<path d="M381 168H382" stroke="#DB1F2E"/>
<path d="M386.854 171.5H385.904V165.5L384.334 166.31V165.32L385.914 164.5H386.854V171.5ZM392.32 166.92C393.04 166.92 393.6 167.17 394 167.67C394.333 168.09 394.5 168.623 394.5 169.27C394.5 170.077 394.223 170.7 393.67 171.14C393.243 171.48 392.74 171.65 392.16 171.65C391.3 171.65 390.66 171.32 390.24 170.66C389.88 170.093 389.7 169.3 389.7 168.28C389.7 166.753 389.997 165.667 390.59 165.02C391.003 164.573 391.557 164.35 392.25 164.35C392.817 164.35 393.297 164.5 393.69 164.8C394.037 165.067 394.26 165.41 394.36 165.83H393.3C393.24 165.61 393.117 165.44 392.93 165.32C392.743 165.193 392.513 165.13 392.24 165.13C391.273 165.13 390.743 166.03 390.65 167.83C390.83 167.543 391.067 167.32 391.36 167.16C391.653 167 391.973 166.92 392.32 166.92ZM390.75 169.24C390.75 169.78 390.903 170.197 391.21 170.49C391.457 170.73 391.773 170.85 392.16 170.85C392.587 170.85 392.927 170.7 393.18 170.4C393.413 170.12 393.53 169.76 393.53 169.32C393.53 168.793 393.39 168.387 393.11 168.1C392.863 167.847 392.543 167.72 392.15 167.72C391.67 167.72 391.303 167.89 391.05 168.23C390.85 168.503 390.75 168.84 390.75 169.24Z" fill="white" fill-opacity="0.95"/>
<path d="M396 168H397" stroke="#DB1F2E"/>
<path d="M397 160V168L397 176" stroke="#DB1F2E"/>
<path d="M541.625 137.125C541.477 137.125 541.331 137.096 541.194 137.04C541.058 136.983 540.934 136.9 540.829 136.796C540.725 136.691 540.642 136.567 540.585 136.431C540.529 136.294 540.5 136.148 540.5 136C540.5 138.67 539.708 141.28 538.225 143.5C536.741 145.72 534.633 147.451 532.166 148.472C529.699 149.494 526.985 149.762 524.366 149.241C521.748 148.72 519.342 147.434 517.454 145.546C515.566 143.658 514.28 141.252 513.759 138.634C513.239 136.015 513.506 133.301 514.528 130.834C515.549 128.367 517.28 126.259 519.5 124.775C521.72 123.292 524.33 122.5 527 122.5C526.702 122.5 526.415 122.381 526.205 122.17C525.994 121.96 525.875 121.673 525.875 121.375C525.875 121.077 525.994 120.79 526.205 120.58C526.415 120.369 526.702 120.25 527 120.25C523.885 120.25 520.84 121.174 518.25 122.904C515.66 124.635 513.641 127.095 512.449 129.973C511.257 132.851 510.945 136.017 511.553 139.073C512.16 142.128 513.66 144.934 515.863 147.137C518.066 149.34 520.872 150.84 523.927 151.447C526.983 152.055 530.149 151.743 533.027 150.551C535.905 149.359 538.365 147.34 540.096 144.75C541.826 142.16 542.75 139.115 542.75 136C542.75 136.148 542.721 136.294 542.665 136.431C542.608 136.567 542.525 136.691 542.421 136.796C542.316 136.9 542.192 136.983 542.056 137.04C541.919 137.096 541.773 137.125 541.625 137.125Z" fill="#3B3B3B"/>
<path d="M525.875 121.375C525.875 121.523 525.904 121.669 525.96 121.806C526.017 121.942 526.1 122.066 526.204 122.171C526.309 122.275 526.433 122.358 526.569 122.415C526.706 122.471 526.852 122.5 527 122.5C530.579 122.504 534.011 123.927 536.542 126.458C539.073 128.989 540.496 132.421 540.5 136C540.5 136.298 540.619 136.585 540.83 136.795C541.04 137.006 541.327 137.125 541.625 137.125C541.923 137.125 542.21 137.006 542.42 136.795C542.631 136.585 542.75 136.298 542.75 136C542.745 131.824 541.084 127.821 538.132 124.868C535.179 121.916 531.176 120.255 527 120.25C526.852 120.25 526.706 120.279 526.569 120.335C526.433 120.392 526.309 120.475 526.204 120.579C526.1 120.684 526.017 120.808 525.96 120.944C525.904 121.081 525.875 121.227 525.875 121.375Z" fill="#3492EB"/>
<path d="M543 120.046H547L551 120.046" stroke="#DB1F2E" stroke-linecap="round" stroke-dasharray="0.01 4"/>
<path d="M543 152.046H547L551 152.046" stroke="#DB1F2E" stroke-linecap="round" stroke-dasharray="0.01 4"/>
<path d="M559 120.046H567L575 120.046" stroke="#DB1F2E"/>
<path d="M567 128.546V120.046" stroke="#DB1F2E"/>
<path d="M566.494 137.636C566.494 138.283 566.237 138.799 565.724 139.186C565.277 139.519 564.707 139.686 564.014 139.686C563.247 139.686 562.637 139.489 562.184 139.096C561.797 138.769 561.567 138.339 561.494 137.806H562.514C562.681 138.526 563.174 138.886 563.994 138.886C564.501 138.886 564.891 138.753 565.164 138.486C565.397 138.259 565.514 137.969 565.514 137.616C565.514 137.149 565.347 136.796 565.014 136.556C564.767 136.383 564.474 136.296 564.134 136.296H563.554V135.466H564.114C564.441 135.466 564.714 135.359 564.934 135.146C565.161 134.933 565.274 134.649 565.274 134.296C565.274 133.923 565.117 133.633 564.804 133.426C564.564 133.273 564.274 133.196 563.934 133.196C563.521 133.196 563.184 133.299 562.924 133.506C562.704 133.686 562.571 133.916 562.524 134.196H561.514C561.607 133.609 561.904 133.153 562.404 132.826C562.837 132.539 563.364 132.396 563.984 132.396C564.664 132.396 565.217 132.566 565.644 132.906C566.051 133.233 566.254 133.673 566.254 134.226C566.254 134.626 566.121 134.976 565.854 135.276C565.627 135.536 565.341 135.719 564.994 135.826C565.454 135.926 565.821 136.139 566.094 136.466C566.361 136.786 566.494 137.176 566.494 137.636ZM568.61 134.376H567.6C567.68 133.756 567.967 133.263 568.46 132.896C568.9 132.563 569.433 132.396 570.06 132.396C570.773 132.396 571.343 132.596 571.77 132.996C572.15 133.363 572.34 133.826 572.34 134.386C572.34 134.879 572.2 135.336 571.92 135.756C571.693 136.109 571.277 136.573 570.67 137.146L569.07 138.666H572.31V139.546H567.77V138.666L570.05 136.476C570.557 135.989 570.9 135.603 571.08 135.316C571.267 135.023 571.36 134.716 571.36 134.396C571.36 134.009 571.227 133.709 570.96 133.496C570.727 133.303 570.42 133.206 570.04 133.206C569.613 133.206 569.27 133.323 569.01 133.556C568.783 133.763 568.65 134.036 568.61 134.376Z" fill="white" fill-opacity="0.95"/>
<path d="M567 152.046V143.546" stroke="#DB1F2E"/>
<path d="M559 152.046H567L575 152.046" stroke="#DB1F2E"/>
<path d="M511 152V156L511 160" stroke="#DB1F2E" stroke-linecap="round" stroke-dasharray="0.01 4"/>
<path d="M543 152V156L543 160" stroke="#DB1F2E" stroke-linecap="round" stroke-dasharray="0.01 4"/>
<path d="M511 168V176L511 184" stroke="#DB1F2E"/>
<path d="M511 176H517" stroke="#DB1F2E"/>
<path d="M526.494 177.59C526.494 178.237 526.237 178.753 525.724 179.14C525.277 179.473 524.707 179.64 524.014 179.64C523.247 179.64 522.637 179.443 522.184 179.05C521.797 178.723 521.567 178.293 521.494 177.76H522.514C522.681 178.48 523.174 178.84 523.994 178.84C524.501 178.84 524.891 178.707 525.164 178.44C525.397 178.213 525.514 177.923 525.514 177.57C525.514 177.103 525.347 176.75 525.014 176.51C524.767 176.337 524.474 176.25 524.134 176.25H523.554V175.42H524.114C524.441 175.42 524.714 175.313 524.934 175.1C525.161 174.887 525.274 174.603 525.274 174.25C525.274 173.877 525.117 173.587 524.804 173.38C524.564 173.227 524.274 173.15 523.934 173.15C523.521 173.15 523.184 173.253 522.924 173.46C522.704 173.64 522.571 173.87 522.524 174.15H521.514C521.607 173.563 521.904 173.107 522.404 172.78C522.837 172.493 523.364 172.35 523.984 172.35C524.664 172.35 525.217 172.52 525.644 172.86C526.051 173.187 526.254 173.627 526.254 174.18C526.254 174.58 526.121 174.93 525.854 175.23C525.627 175.49 525.341 175.673 524.994 175.78C525.454 175.88 525.821 176.093 526.094 176.42C526.361 176.74 526.494 177.13 526.494 177.59ZM528.61 174.33H527.6C527.68 173.71 527.967 173.217 528.46 172.85C528.9 172.517 529.433 172.35 530.06 172.35C530.773 172.35 531.343 172.55 531.77 172.95C532.15 173.317 532.34 173.78 532.34 174.34C532.34 174.833 532.2 175.29 531.92 175.71C531.693 176.063 531.277 176.527 530.67 177.1L529.07 178.62H532.31V179.5H527.77V178.62L530.05 176.43C530.557 175.943 530.9 175.557 531.08 175.27C531.267 174.977 531.36 174.67 531.36 174.35C531.36 173.963 531.227 173.663 530.96 173.45C530.727 173.257 530.42 173.16 530.04 173.16C529.613 173.16 529.27 173.277 529.01 173.51C528.783 173.717 528.65 173.99 528.61 174.33Z" fill="white" fill-opacity="0.95"/>
<path d="M537 176H543" stroke="#DB1F2E"/>
<path d="M543 168V176L543 184" stroke="#DB1F2E"/>
<path d="M699.11 137.547C698.906 137.547 698.705 137.507 698.518 137.429C698.33 137.352 698.159 137.238 698.016 137.094C697.872 136.95 697.758 136.78 697.68 136.592C697.603 136.404 697.563 136.203 697.563 136C697.563 139.671 696.474 143.26 694.434 146.313C692.395 149.365 689.496 151.745 686.104 153.15C682.712 154.554 678.98 154.922 675.379 154.206C671.778 153.49 668.471 151.722 665.875 149.126C663.279 146.53 661.511 143.222 660.794 139.621C660.078 136.021 660.446 132.288 661.851 128.896C663.256 125.505 665.635 122.606 668.687 120.566C671.74 118.526 675.329 117.438 679 117.438C678.59 117.438 678.197 117.275 677.906 116.984C677.616 116.694 677.453 116.301 677.453 115.891C677.453 115.48 677.616 115.087 677.906 114.797C678.197 114.507 678.59 114.344 679 114.344C674.717 114.344 670.53 115.614 666.969 117.993C663.407 120.373 660.632 123.755 658.992 127.713C657.353 131.67 656.925 136.024 657.76 140.225C658.596 144.426 660.658 148.285 663.687 151.313C666.716 154.342 670.574 156.405 674.775 157.24C678.976 158.076 683.331 157.647 687.288 156.008C691.245 154.369 694.627 151.593 697.007 148.032C699.386 144.47 700.657 140.283 700.657 136C700.657 136.203 700.617 136.404 700.539 136.592C700.461 136.78 700.347 136.95 700.204 137.094C700.06 137.238 699.889 137.352 699.702 137.429C699.514 137.507 699.313 137.547 699.11 137.547Z" fill="#3B3B3B"/>
<path d="M677.453 115.891C677.453 116.094 677.493 116.295 677.571 116.483C677.649 116.67 677.763 116.841 677.906 116.985C678.05 117.128 678.22 117.242 678.408 117.32C678.596 117.398 678.797 117.438 679 117.438C683.922 117.443 688.64 119.4 692.12 122.88C695.6 126.36 697.557 131.079 697.563 136C697.563 136.41 697.726 136.804 698.016 137.094C698.306 137.384 698.699 137.547 699.11 137.547C699.52 137.547 699.913 137.384 700.203 137.094C700.494 136.804 700.656 136.41 700.656 136C700.65 130.258 698.366 124.754 694.306 120.694C690.246 116.634 684.742 114.35 679 114.344C678.797 114.344 678.596 114.384 678.408 114.461C678.22 114.539 678.05 114.653 677.906 114.797C677.763 114.94 677.649 115.111 677.571 115.299C677.493 115.486 677.453 115.687 677.453 115.891Z" fill="#3492EB"/>
<path d="M701 114.046H705L709 114.046" stroke="#DB1F2E" stroke-linecap="round" stroke-dasharray="0.01 4"/>
<path d="M701 158.046H705L709 158.046" stroke="#DB1F2E" stroke-linecap="round" stroke-dasharray="0.01 4"/>
<path d="M717 114.046H725L733 114.046" stroke="#DB1F2E"/>
<path d="M725 128.546V114.046" stroke="#DB1F2E"/>
<path d="M722.444 132.546H723.444V137.406H724.574V138.226H723.444V139.546H722.514V138.226H719.444V137.336L722.444 132.546ZM720.514 137.406H722.514V134.096L720.514 137.406ZM728.44 132.546H729.44V137.406H730.57V138.226H729.44V139.546H728.51V138.226H725.44V137.336L728.44 132.546ZM726.51 137.406H728.51V134.096L726.51 137.406Z" fill="white" fill-opacity="0.95"/>
<path d="M725 158.046V143.546" stroke="#DB1F2E"/>
<path d="M717 158.046H725L733 158.046" stroke="#DB1F2E"/>
<path d="M657 158V162L657 166" stroke="#DB1F2E" stroke-linecap="round" stroke-dasharray="0.01 4"/>
<path d="M701 158V162L701 166" stroke="#DB1F2E" stroke-linecap="round" stroke-dasharray="0.01 4"/>
<path d="M657 174V182L657 190" stroke="#DB1F2E"/>
<path d="M657 182H669" stroke="#DB1F2E"/>
<path d="M676.444 178.5H677.444V183.36H678.574V184.18H677.444V185.5H676.514V184.18H673.444V183.29L676.444 178.5ZM674.514 183.36H676.514V180.05L674.514 183.36ZM682.44 178.5H683.44V183.36H684.57V184.18H683.44V185.5H682.51V184.18H679.44V183.29L682.44 178.5ZM680.51 183.36H682.51V180.05L680.51 183.36Z" fill="white" fill-opacity="0.95"/>
<path d="M689 182H701" stroke="#DB1F2E"/>
<path d="M701 174V182L701 190" stroke="#DB1F2E"/>
<path d="M883.907 138.531C883.574 138.531 883.245 138.466 882.938 138.339C882.63 138.212 882.351 138.025 882.116 137.79C881.881 137.555 881.695 137.276 881.568 136.969C881.44 136.662 881.375 136.332 881.375 136C881.375 142.008 879.594 147.88 876.256 152.875C872.919 157.871 868.175 161.764 862.624 164.063C857.074 166.362 850.967 166.963 845.074 165.791C839.182 164.619 833.77 161.726 829.522 157.478C825.274 153.23 822.381 147.818 821.209 141.926C820.037 136.034 820.638 129.926 822.937 124.376C825.236 118.826 829.13 114.082 834.125 110.744C839.12 107.406 844.993 105.625 851 105.625C850.329 105.625 849.685 105.358 849.21 104.884C848.736 104.409 848.469 103.765 848.469 103.094C848.469 102.422 848.736 101.779 849.21 101.304C849.685 100.829 850.329 100.562 851 100.562C843.991 100.562 837.14 102.641 831.312 106.535C825.485 110.429 820.942 115.963 818.26 122.439C815.578 128.914 814.876 136.039 816.244 142.914C817.611 149.788 820.986 156.102 825.942 161.058C830.898 166.014 837.213 169.389 844.087 170.757C850.961 172.124 858.086 171.422 864.562 168.74C871.037 166.058 876.572 161.516 880.465 155.688C884.359 149.86 886.438 143.009 886.438 136C886.438 136.332 886.373 136.662 886.245 136.969C886.118 137.276 885.932 137.555 885.697 137.79C885.462 138.025 885.183 138.212 884.875 138.339C884.568 138.466 884.239 138.531 883.907 138.531Z" fill="#3B3B3B"/>
<path d="M848.469 103.094C848.469 103.426 848.534 103.755 848.661 104.063C848.788 104.37 848.975 104.649 849.21 104.884C849.445 105.119 849.724 105.306 850.031 105.433C850.339 105.56 850.668 105.625 851 105.625C859.053 105.634 866.774 108.837 872.469 114.531C878.163 120.226 881.366 127.947 881.375 136C881.375 136.671 881.642 137.315 882.117 137.79C882.591 138.265 883.235 138.531 883.906 138.531C884.578 138.531 885.222 138.265 885.696 137.79C886.171 137.315 886.438 136.671 886.438 136C886.427 126.605 882.69 117.597 876.047 110.954C869.403 104.31 860.396 100.573 851 100.563C850.668 100.562 850.339 100.628 850.031 100.755C849.724 100.882 849.445 101.068 849.21 101.303C848.975 101.539 848.788 101.818 848.661 102.125C848.534 102.432 848.469 102.761 848.469 103.094Z" fill="#3492EB"/>
<path d="M887 100.046H891L895 100.046" stroke="#DB1F2E" stroke-linecap="round" stroke-dasharray="0.01 4"/>
<path d="M887 172.046H891L895 172.046" stroke="#DB1F2E" stroke-linecap="round" stroke-dasharray="0.01 4"/>
<path d="M903 100.046H911L919 100.046" stroke="#DB1F2E"/>
<path d="M911 128.546V100.046" stroke="#DB1F2E"/>
<path d="M910.204 133.406L907.344 139.546H906.254L909.184 133.406H905.754V132.546H910.204V133.406ZM912.61 134.376H911.6C911.68 133.756 911.967 133.263 912.46 132.896C912.9 132.563 913.433 132.396 914.06 132.396C914.773 132.396 915.343 132.596 915.77 132.996C916.15 133.363 916.34 133.826 916.34 134.386C916.34 134.879 916.2 135.336 915.92 135.756C915.693 136.109 915.277 136.573 914.67 137.146L913.07 138.666H916.31V139.546H911.77V138.666L914.05 136.476C914.557 135.989 914.9 135.603 915.08 135.316C915.267 135.023 915.36 134.716 915.36 134.396C915.36 134.009 915.227 133.709 914.96 133.496C914.727 133.303 914.42 133.206 914.04 133.206C913.613 133.206 913.27 133.323 913.01 133.556C912.783 133.763 912.65 134.036 912.61 134.376Z" fill="white" fill-opacity="0.95"/>
<path d="M911 172.046V143.546" stroke="#DB1F2E"/>
<path d="M903 172.046H911L919 172.046" stroke="#DB1F2E"/>
<path d="M815 172V176L815 180" stroke="#DB1F2E" stroke-linecap="round" stroke-dasharray="0.01 4"/>
<path d="M887 172V176L887 180" stroke="#DB1F2E" stroke-linecap="round" stroke-dasharray="0.01 4"/>
<path d="M815 188V196L815 204" stroke="#DB1F2E"/>
<path d="M815 196H841" stroke="#DB1F2E"/>
<path d="M850.204 193.36L847.344 199.5H846.254L849.184 193.36H845.754V192.5H850.204V193.36ZM852.61 194.33H851.6C851.68 193.71 851.967 193.217 852.46 192.85C852.9 192.517 853.433 192.35 854.06 192.35C854.773 192.35 855.343 192.55 855.77 192.95C856.15 193.317 856.34 193.78 856.34 194.34C856.34 194.833 856.2 195.29 855.92 195.71C855.693 196.063 855.277 196.527 854.67 197.1L853.07 198.62H856.31V199.5H851.77V198.62L854.05 196.43C854.557 195.943 854.9 195.557 855.08 195.27C855.267 194.977 855.36 194.67 855.36 194.35C855.36 193.963 855.227 193.663 854.96 193.45C854.727 193.257 854.42 193.16 854.04 193.16C853.613 193.16 853.27 193.277 853.01 193.51C852.783 193.717 852.65 193.99 852.61 194.33Z" fill="white" fill-opacity="0.95"/>
<path d="M861 196H887" stroke="#DB1F2E"/>
<path d="M887 188V196L887 204" stroke="#DB1F2E"/>
</svg>
