<svg width="1300" height="282" viewBox="0 0 1300 282" fill="none" xmlns="http://www.w3.org/2000/svg">
<rect width="1300" height="282" rx="24" fill="#262626"/>
<rect x="376.5" y="100" width="32" height="32" rx="16" fill="#DA0087"/>
<path d="M391.626 120.5V112.716L389.386 113.864V111.89L391.64 110.7H393.81V120.5H391.626Z" fill="white" fill-opacity="0.95"/>
<rect x="511.5" y="100" width="32" height="32" rx="16" fill="#DA0087"/>
<path d="M525.898 113.388H523.616C523.756 112.417 524.241 111.666 525.072 111.134C525.735 110.705 526.505 110.49 527.382 110.49C528.437 110.49 529.281 110.784 529.916 111.372C530.476 111.885 530.756 112.525 530.756 113.29C530.756 114.046 530.532 114.732 530.084 115.348C529.795 115.731 529.141 116.417 528.124 117.406L526.766 118.722H530.686V120.5H523.896V118.722L526.262 116.398L526.584 116.076C527.424 115.245 527.956 114.667 528.18 114.34C528.413 114.013 528.53 113.663 528.53 113.29C528.53 112.898 528.404 112.595 528.152 112.38C527.937 112.203 527.657 112.114 527.312 112.114C526.957 112.114 526.654 112.226 526.402 112.45C526.159 112.674 525.991 112.987 525.898 113.388Z" fill="white" fill-opacity="0.95"/>
<rect x="665.844" y="100" width="32" height="32" rx="16" fill="#DA0087"/>
<path d="M681.376 119.128C681.824 119.128 682.174 118.993 682.426 118.722C682.659 118.47 682.776 118.129 682.776 117.7C682.776 116.627 682.211 116.09 681.082 116.09H680.228V114.592H681.194C681.604 114.592 681.945 114.457 682.216 114.186C682.468 113.943 682.594 113.631 682.594 113.248C682.594 112.856 682.468 112.548 682.216 112.324C682.001 112.147 681.74 112.058 681.432 112.058C680.741 112.058 680.326 112.38 680.186 113.024H678.058C678.188 112.193 678.599 111.549 679.29 111.092C679.906 110.691 680.662 110.49 681.558 110.49C682.556 110.49 683.354 110.728 683.952 111.204C684.521 111.652 684.806 112.273 684.806 113.066C684.806 113.635 684.586 114.135 684.148 114.564C683.765 114.928 683.308 115.152 682.776 115.236C683.448 115.311 684.003 115.605 684.442 116.118C684.834 116.575 685.03 117.089 685.03 117.658C685.03 118.638 684.656 119.413 683.91 119.982C683.256 120.467 682.421 120.71 681.404 120.71C680.321 120.71 679.448 120.416 678.786 119.828C678.216 119.333 677.899 118.722 677.834 117.994H680.004C680.06 118.349 680.204 118.629 680.438 118.834C680.68 119.03 680.993 119.128 681.376 119.128Z" fill="white" fill-opacity="0.95"/>
<rect x="829.5" y="100" width="32" height="32" rx="16" fill="#DA0087"/>
<path d="M845.69 110.7H847.888V117.042H848.994V118.652H847.888V120.5H845.816V118.652H841.574V116.804L845.69 110.7ZM843.604 117.042H845.816V113.626L843.604 117.042Z" fill="white" fill-opacity="0.95"/>
<path d="M414.813 146.562C414.739 146.563 414.665 146.548 414.597 146.52C414.529 146.492 414.467 146.45 414.415 146.398C414.362 146.346 414.321 146.284 414.293 146.215C414.264 146.147 414.25 146.074 414.25 146C414.25 147.335 413.854 148.64 413.112 149.75C412.371 150.86 411.317 151.725 410.083 152.236C408.85 152.747 407.493 152.881 406.183 152.62C404.874 152.36 403.671 151.717 402.727 150.773C401.783 149.829 401.14 148.626 400.88 147.317C400.619 146.007 400.753 144.65 401.264 143.417C401.775 142.183 402.64 141.129 403.75 140.388C404.86 139.646 406.165 139.25 407.5 139.25C407.351 139.25 407.208 139.191 407.102 139.085C406.997 138.98 406.938 138.837 406.938 138.688C406.938 138.538 406.997 138.395 407.102 138.29C407.208 138.184 407.351 138.125 407.5 138.125C405.942 138.125 404.42 138.587 403.125 139.452C401.83 140.317 400.82 141.547 400.224 142.986C399.628 144.425 399.472 146.009 399.776 147.536C400.08 149.064 400.83 150.467 401.932 151.568C403.033 152.67 404.436 153.42 405.964 153.724C407.491 154.028 409.075 153.872 410.514 153.276C411.953 152.68 413.183 151.67 414.048 150.375C414.913 149.08 415.375 147.558 415.375 146C415.375 146.074 415.361 146.147 415.332 146.215C415.304 146.284 415.263 146.346 415.21 146.398C415.158 146.45 415.096 146.492 415.028 146.52C414.96 146.548 414.886 146.563 414.813 146.562Z" fill="#3B3B3B"/>
<path d="M406.938 138.688C406.937 138.761 406.952 138.835 406.98 138.903C407.008 138.971 407.05 139.033 407.102 139.085C407.154 139.138 407.216 139.179 407.285 139.207C407.353 139.236 407.426 139.25 407.5 139.25C409.29 139.252 411.005 139.964 412.271 141.229C413.536 142.495 414.248 144.21 414.25 146C414.25 146.149 414.309 146.292 414.415 146.398C414.52 146.503 414.663 146.562 414.812 146.562C414.962 146.562 415.105 146.503 415.21 146.398C415.316 146.292 415.375 146.149 415.375 146C415.373 143.912 414.542 141.91 413.066 140.434C411.59 138.958 409.588 138.127 407.5 138.125C407.426 138.125 407.353 138.139 407.285 138.168C407.216 138.196 407.154 138.237 407.102 138.29C407.05 138.342 407.008 138.404 406.98 138.472C406.952 138.54 406.937 138.614 406.938 138.688Z" fill="#3492EB"/>
<path d="M566.125 147.125C565.977 147.125 565.831 147.096 565.694 147.04C565.558 146.983 565.434 146.9 565.329 146.796C565.225 146.691 565.142 146.567 565.085 146.431C565.029 146.294 565 146.148 565 146C565 148.67 564.208 151.28 562.725 153.5C561.241 155.72 559.133 157.451 556.666 158.472C554.199 159.494 551.485 159.762 548.866 159.241C546.248 158.72 543.842 157.434 541.954 155.546C540.066 153.658 538.78 151.252 538.259 148.634C537.739 146.015 538.006 143.301 539.028 140.834C540.049 138.367 541.78 136.259 544 134.775C546.22 133.292 548.83 132.5 551.5 132.5C551.202 132.5 550.915 132.381 550.705 132.17C550.494 131.96 550.375 131.673 550.375 131.375C550.375 131.077 550.494 130.79 550.705 130.58C550.915 130.369 551.202 130.25 551.5 130.25C548.385 130.25 545.34 131.174 542.75 132.904C540.16 134.635 538.141 137.095 536.949 139.973C535.757 142.851 535.445 146.017 536.053 149.073C536.66 152.128 538.16 154.934 540.363 157.137C542.566 159.34 545.372 160.84 548.427 161.447C551.483 162.055 554.649 161.743 557.527 160.551C560.405 159.359 562.865 157.34 564.596 154.75C566.326 152.16 567.25 149.115 567.25 146C567.25 146.148 567.221 146.294 567.165 146.431C567.108 146.567 567.025 146.691 566.921 146.796C566.816 146.9 566.692 146.983 566.556 147.04C566.419 147.096 566.273 147.125 566.125 147.125Z" fill="#3B3B3B"/>
<path d="M550.375 131.375C550.375 131.523 550.404 131.669 550.46 131.806C550.517 131.942 550.6 132.066 550.704 132.171C550.809 132.275 550.933 132.358 551.069 132.415C551.206 132.471 551.352 132.5 551.5 132.5C555.079 132.504 558.511 133.927 561.042 136.458C563.573 138.989 564.996 142.421 565 146C565 146.298 565.119 146.585 565.33 146.795C565.54 147.006 565.827 147.125 566.125 147.125C566.423 147.125 566.71 147.006 566.92 146.795C567.131 146.585 567.25 146.298 567.25 146C567.245 141.824 565.584 137.821 562.632 134.868C559.679 131.916 555.676 130.255 551.5 130.25C551.352 130.25 551.206 130.279 551.069 130.335C550.933 130.392 550.809 130.475 550.704 130.579C550.6 130.684 550.517 130.808 550.46 130.944C550.404 131.081 550.375 131.227 550.375 131.375Z" fill="#3492EB"/>
<path d="M566.125 144.88C565.977 144.88 565.831 144.909 565.694 144.965C565.558 145.022 565.434 145.105 565.329 145.209C565.225 145.314 565.142 145.438 565.085 145.574C565.029 145.711 565 145.857 565 146.005C564.996 149.584 563.573 153.016 561.042 155.547C558.511 158.077 555.079 159.501 551.5 159.505C551.202 159.505 550.915 159.623 550.705 159.834C550.494 160.045 550.375 160.332 550.375 160.63C550.375 160.928 550.494 161.214 550.705 161.425C550.915 161.636 551.202 161.755 551.5 161.755C555.676 161.75 559.679 160.089 562.632 157.137C565.584 154.184 567.245 150.181 567.25 146.005C567.25 145.857 567.221 145.711 567.165 145.574C567.108 145.438 567.025 145.314 566.921 145.209C566.816 145.105 566.692 145.022 566.556 144.965C566.419 144.909 566.273 144.88 566.125 144.88Z" fill="#3492EB"/>
<path d="M536.885 144.88C537.033 144.88 537.179 144.909 537.316 144.965C537.452 145.022 537.576 145.105 537.681 145.209C537.785 145.314 537.868 145.438 537.925 145.574C537.981 145.711 538.01 145.857 538.01 146.005C538.014 149.584 539.437 153.016 541.968 155.547C544.499 158.077 547.931 159.501 551.51 159.505C551.808 159.505 552.095 159.623 552.306 159.834C552.516 160.045 552.635 160.332 552.635 160.63C552.635 160.928 552.516 161.214 552.306 161.425C552.095 161.636 551.808 161.755 551.51 161.755C547.334 161.75 543.331 160.089 540.378 157.137C537.426 154.184 535.765 150.181 535.76 146.005C535.76 145.857 535.789 145.711 535.845 145.574C535.902 145.438 535.985 145.314 536.089 145.209C536.194 145.105 536.318 145.022 536.454 144.965C536.591 144.909 536.737 144.88 536.885 144.88Z" fill="#3492EB"/>
<path d="M729.61 147.547C729.406 147.547 729.205 147.507 729.018 147.429C728.83 147.352 728.659 147.238 728.516 147.094C728.372 146.95 728.258 146.78 728.18 146.592C728.103 146.404 728.063 146.203 728.063 146C728.063 149.671 726.974 153.26 724.934 156.313C722.895 159.365 719.996 161.745 716.604 163.15C713.212 164.554 709.48 164.922 705.879 164.206C702.278 163.49 698.971 161.722 696.375 159.126C693.779 156.53 692.011 153.222 691.294 149.621C690.578 146.021 690.946 142.288 692.351 138.896C693.756 135.505 696.135 132.606 699.187 130.566C702.24 128.526 705.829 127.438 709.5 127.438C709.09 127.438 708.697 127.275 708.406 126.984C708.116 126.694 707.953 126.301 707.953 125.891C707.953 125.48 708.116 125.087 708.406 124.797C708.697 124.507 709.09 124.344 709.5 124.344C705.217 124.344 701.03 125.614 697.469 127.993C693.907 130.373 691.132 133.755 689.492 137.713C687.853 141.67 687.425 146.024 688.26 150.225C689.096 154.426 691.158 158.285 694.187 161.313C697.216 164.342 701.074 166.405 705.275 167.24C709.476 168.076 713.831 167.647 717.788 166.008C721.745 164.369 725.127 161.593 727.507 158.032C729.886 154.47 731.157 150.283 731.157 146C731.157 146.203 731.117 146.404 731.039 146.592C730.961 146.78 730.847 146.95 730.704 147.094C730.56 147.238 730.389 147.352 730.202 147.429C730.014 147.507 729.813 147.547 729.61 147.547Z" fill="#3B3B3B"/>
<path d="M707.953 125.891C707.953 126.094 707.993 126.295 708.071 126.483C708.149 126.67 708.263 126.841 708.406 126.985C708.55 127.128 708.72 127.242 708.908 127.32C709.096 127.398 709.297 127.438 709.5 127.438C714.422 127.443 719.14 129.4 722.62 132.88C726.1 136.36 728.057 141.079 728.063 146C728.063 146.41 728.226 146.804 728.516 147.094C728.806 147.384 729.199 147.547 729.61 147.547C730.02 147.547 730.413 147.384 730.703 147.094C730.994 146.804 731.156 146.41 731.156 146C731.15 140.258 728.866 134.754 724.806 130.694C720.746 126.634 715.242 124.35 709.5 124.344C709.297 124.344 709.096 124.384 708.908 124.461C708.72 124.539 708.55 124.653 708.406 124.797C708.263 124.94 708.149 125.111 708.071 125.299C707.993 125.486 707.953 125.687 707.953 125.891Z" fill="#3492EB"/>
<path d="M920.407 148.531C920.074 148.531 919.745 148.466 919.438 148.339C919.13 148.212 918.851 148.025 918.616 147.79C918.381 147.555 918.195 147.276 918.068 146.969C917.94 146.662 917.875 146.332 917.875 146C917.875 152.008 916.094 157.88 912.756 162.875C909.419 167.871 904.675 171.764 899.124 174.063C893.574 176.362 887.467 176.963 881.574 175.791C875.682 174.619 870.27 171.726 866.022 167.478C861.774 163.23 858.881 157.818 857.709 151.926C856.537 146.034 857.138 139.926 859.437 134.376C861.736 128.826 865.63 124.082 870.625 120.744C875.62 117.406 881.493 115.625 887.5 115.625C886.829 115.625 886.185 115.358 885.71 114.884C885.236 114.409 884.969 113.765 884.969 113.094C884.969 112.422 885.236 111.779 885.71 111.304C886.185 110.829 886.829 110.562 887.5 110.562C880.491 110.562 873.64 112.641 867.812 116.535C861.985 120.429 857.442 125.963 854.76 132.439C852.078 138.914 851.376 146.039 852.744 152.914C854.111 159.788 857.486 166.102 862.442 171.058C867.398 176.014 873.713 179.389 880.587 180.757C887.461 182.124 894.586 181.422 901.062 178.74C907.537 176.058 913.072 171.516 916.965 165.688C920.859 159.86 922.938 153.009 922.938 146C922.938 146.332 922.873 146.662 922.745 146.969C922.618 147.276 922.432 147.555 922.197 147.79C921.962 148.025 921.683 148.212 921.375 148.339C921.068 148.466 920.739 148.531 920.407 148.531Z" fill="#3B3B3B"/>
<path d="M884.969 113.094C884.969 113.426 885.034 113.755 885.161 114.063C885.288 114.37 885.475 114.649 885.71 114.884C885.945 115.119 886.224 115.306 886.531 115.433C886.839 115.56 887.168 115.625 887.5 115.625C895.553 115.634 903.274 118.837 908.969 124.531C914.663 130.226 917.866 137.947 917.875 146C917.875 146.671 918.142 147.315 918.617 147.79C919.091 148.265 919.735 148.531 920.406 148.531C921.078 148.531 921.722 148.265 922.196 147.79C922.671 147.315 922.938 146.671 922.938 146C922.927 136.605 919.19 127.597 912.547 120.954C905.903 114.31 896.896 110.573 887.5 110.563C887.168 110.562 886.839 110.628 886.531 110.755C886.224 110.882 885.945 111.068 885.71 111.303C885.475 111.539 885.288 111.818 885.161 112.125C885.034 112.432 884.969 112.761 884.969 113.094Z" fill="#3492EB"/>
<path d="M920.406 143.48C920.074 143.48 919.745 143.545 919.437 143.672C919.13 143.799 918.851 143.986 918.616 144.221C918.381 144.456 918.194 144.735 918.067 145.042C917.94 145.35 917.875 145.679 917.875 146.011C917.866 154.064 914.663 161.785 908.969 167.48C903.274 173.174 895.553 176.377 887.5 176.386C886.829 176.386 886.185 176.653 885.71 177.128C885.235 177.602 884.969 178.246 884.969 178.917C884.969 179.589 885.235 180.233 885.71 180.707C886.185 181.182 886.829 181.449 887.5 181.449C896.895 181.438 905.903 177.701 912.546 171.058C919.19 164.414 922.927 155.407 922.937 146.011C922.938 145.679 922.872 145.35 922.745 145.042C922.618 144.735 922.432 144.456 922.197 144.221C921.961 143.986 921.682 143.799 921.375 143.672C921.068 143.545 920.739 143.48 920.406 143.48Z" fill="#3492EB"/>
<path d="M854.616 143.48C854.949 143.48 855.278 143.545 855.585 143.672C855.892 143.799 856.171 143.986 856.407 144.221C856.642 144.456 856.828 144.735 856.955 145.042C857.082 145.35 857.148 145.679 857.147 146.011C857.156 154.064 860.359 161.785 866.054 167.48C871.748 173.174 879.469 176.377 887.522 176.386C888.194 176.386 888.838 176.653 889.312 177.128C889.787 177.602 890.054 178.246 890.054 178.917C890.054 179.589 889.787 180.233 889.312 180.707C888.838 181.182 888.194 181.449 887.522 181.449C878.127 181.438 869.12 177.701 862.476 171.058C855.832 164.414 852.096 155.407 852.085 146.011C852.085 145.679 852.15 145.35 852.277 145.042C852.404 144.735 852.591 144.456 852.826 144.221C853.061 143.986 853.34 143.799 853.647 143.672C853.955 143.545 854.284 143.48 854.616 143.48Z" fill="#3492EB"/>
</svg>
