<svg width="1300" height="256" viewBox="0 0 1300 256" fill="none" xmlns="http://www.w3.org/2000/svg">
<rect width="1300" height="256" rx="24" fill="#262626"/>
<path d="M501.233 115V104.818H502.466V113.906H507.199V115H501.233ZM511.196 115.179C510.712 115.179 510.273 115.088 509.879 114.906C509.484 114.72 509.171 114.453 508.939 114.105C508.707 113.754 508.591 113.33 508.591 112.832C508.591 112.395 508.677 112.04 508.849 111.768C509.022 111.493 509.252 111.278 509.54 111.122C509.829 110.966 510.147 110.85 510.495 110.774C510.846 110.695 511.199 110.632 511.554 110.585C512.018 110.526 512.394 110.481 512.683 110.451C512.974 110.418 513.186 110.363 513.319 110.287C513.455 110.211 513.523 110.078 513.523 109.889V109.849C513.523 109.359 513.388 108.978 513.12 108.706C512.855 108.434 512.452 108.298 511.912 108.298C511.352 108.298 510.913 108.421 510.594 108.666C510.276 108.911 510.053 109.173 509.923 109.452L508.81 109.054C509.009 108.59 509.274 108.229 509.605 107.97C509.94 107.708 510.304 107.526 510.699 107.423C511.097 107.317 511.488 107.264 511.872 107.264C512.117 107.264 512.399 107.294 512.717 107.354C513.039 107.41 513.349 107.528 513.647 107.707C513.949 107.886 514.199 108.156 514.398 108.517C514.597 108.878 514.696 109.362 514.696 109.969V115H513.523V113.966H513.463C513.384 114.132 513.251 114.309 513.065 114.498C512.88 114.687 512.633 114.848 512.325 114.98C512.016 115.113 511.64 115.179 511.196 115.179ZM511.375 114.125C511.839 114.125 512.23 114.034 512.548 113.852C512.87 113.669 513.112 113.434 513.274 113.146C513.44 112.857 513.523 112.554 513.523 112.236V111.162C513.473 111.222 513.364 111.276 513.195 111.326C513.029 111.372 512.837 111.414 512.618 111.45C512.402 111.483 512.192 111.513 511.987 111.54C511.784 111.563 511.62 111.583 511.494 111.599C511.189 111.639 510.904 111.704 510.639 111.793C510.377 111.879 510.165 112.01 510.003 112.186C509.844 112.358 509.764 112.594 509.764 112.892C509.764 113.3 509.915 113.608 510.217 113.817C510.522 114.022 510.908 114.125 511.375 114.125ZM516.997 115V104.818H518.17V108.577H518.269C518.356 108.444 518.475 108.275 518.627 108.07C518.783 107.861 519.005 107.675 519.294 107.513C519.585 107.347 519.98 107.264 520.477 107.264C521.12 107.264 521.686 107.425 522.177 107.746C522.668 108.068 523.05 108.524 523.325 109.114C523.601 109.704 523.738 110.4 523.738 111.202C523.738 112.01 523.601 112.711 523.325 113.305C523.05 113.895 522.669 114.352 522.182 114.677C521.695 114.998 521.133 115.159 520.497 115.159C520.006 115.159 519.613 115.078 519.318 114.915C519.023 114.75 518.796 114.562 518.637 114.354C518.478 114.142 518.356 113.966 518.269 113.827H518.13V115H516.997ZM518.15 111.182C518.15 111.759 518.235 112.267 518.404 112.708C518.573 113.146 518.82 113.489 519.144 113.737C519.469 113.982 519.867 114.105 520.338 114.105C520.828 114.105 521.237 113.976 521.566 113.717C521.897 113.455 522.146 113.104 522.311 112.663C522.48 112.219 522.565 111.725 522.565 111.182C522.565 110.645 522.482 110.161 522.316 109.73C522.154 109.296 521.907 108.953 521.575 108.701C521.247 108.446 520.835 108.318 520.338 108.318C519.86 108.318 519.459 108.439 519.134 108.681C518.81 108.92 518.564 109.254 518.399 109.685C518.233 110.113 518.15 110.612 518.15 111.182ZM528.735 115.159C527.999 115.159 527.364 114.997 526.83 114.672C526.3 114.344 525.891 113.886 525.602 113.3C525.317 112.71 525.175 112.024 525.175 111.241C525.175 110.459 525.317 109.77 525.602 109.173C525.891 108.573 526.292 108.106 526.806 107.771C527.323 107.433 527.926 107.264 528.615 107.264C529.013 107.264 529.406 107.33 529.794 107.463C530.181 107.596 530.534 107.811 530.852 108.109C531.171 108.404 531.424 108.795 531.613 109.283C531.802 109.77 531.896 110.37 531.896 111.082V111.58H526.01V110.565H530.703C530.703 110.134 530.617 109.75 530.445 109.412C530.276 109.074 530.034 108.807 529.719 108.612C529.407 108.416 529.039 108.318 528.615 108.318C528.148 108.318 527.744 108.434 527.402 108.666C527.064 108.895 526.804 109.193 526.622 109.561C526.439 109.929 526.348 110.323 526.348 110.744V111.42C526.348 111.997 526.448 112.486 526.646 112.887C526.849 113.285 527.129 113.588 527.487 113.797C527.845 114.002 528.261 114.105 528.735 114.105C529.043 114.105 529.321 114.062 529.57 113.976C529.822 113.886 530.039 113.754 530.221 113.578C530.403 113.399 530.544 113.177 530.644 112.912L531.777 113.23C531.658 113.615 531.457 113.953 531.176 114.244C530.894 114.533 530.546 114.758 530.132 114.92C529.717 115.08 529.252 115.159 528.735 115.159ZM534.855 104.818V115H533.681V104.818H534.855ZM540.543 105.912V104.818H548.18V105.912H544.978V115H543.745V105.912H540.543ZM552.018 115.159C551.282 115.159 550.647 114.997 550.114 114.672C549.583 114.344 549.174 113.886 548.886 113.3C548.601 112.71 548.458 112.024 548.458 111.241C548.458 110.459 548.601 109.77 548.886 109.173C549.174 108.573 549.575 108.106 550.089 107.771C550.606 107.433 551.209 107.264 551.898 107.264C552.296 107.264 552.689 107.33 553.077 107.463C553.464 107.596 553.817 107.811 554.136 108.109C554.454 108.404 554.707 108.795 554.896 109.283C555.085 109.77 555.18 110.37 555.18 111.082V111.58H549.293V110.565H553.987C553.987 110.134 553.9 109.75 553.728 109.412C553.559 109.074 553.317 108.807 553.002 108.612C552.691 108.416 552.323 108.318 551.898 108.318C551.431 108.318 551.027 108.434 550.685 108.666C550.347 108.895 550.087 109.193 549.905 109.561C549.723 109.929 549.631 110.323 549.631 110.744V111.42C549.631 111.997 549.731 112.486 549.93 112.887C550.132 113.285 550.412 113.588 550.77 113.797C551.128 114.002 551.544 114.105 552.018 114.105C552.326 114.105 552.604 114.062 552.853 113.976C553.105 113.886 553.322 113.754 553.504 113.578C553.687 113.399 553.827 113.177 553.927 112.912L555.06 113.23C554.941 113.615 554.741 113.953 554.459 114.244C554.177 114.533 553.829 114.758 553.415 114.92C553 115.08 552.535 115.159 552.018 115.159ZM557.634 107.364L559.464 110.486L561.294 107.364H562.646L560.18 111.182L562.646 115H561.294L559.464 112.037L557.634 115H556.282L558.708 111.182L556.282 107.364H557.634ZM567.641 107.364V108.358H563.684V107.364H567.641ZM564.837 105.534H566.01V112.812C566.01 113.144 566.058 113.393 566.154 113.558C566.254 113.721 566.38 113.83 566.532 113.886C566.688 113.939 566.852 113.966 567.025 113.966C567.154 113.966 567.26 113.959 567.343 113.946C567.426 113.929 567.492 113.916 567.542 113.906L567.78 114.96C567.701 114.99 567.59 115.02 567.447 115.05C567.305 115.083 567.124 115.099 566.905 115.099C566.574 115.099 566.249 115.028 565.931 114.886C565.616 114.743 565.354 114.526 565.145 114.234C564.94 113.943 564.837 113.575 564.837 113.131V105.534Z" fill="white" fill-opacity="0.95"/>
<path d="M773.618 115L778.172 105.991V105.912H772.922V104.818H779.445V105.972L774.911 115H773.618ZM784.343 115.139C783.76 115.139 783.235 115.023 782.767 114.791C782.3 114.559 781.925 114.241 781.644 113.837C781.362 113.432 781.208 112.972 781.181 112.455H782.374C782.421 112.915 782.63 113.296 783.001 113.598C783.375 113.896 783.823 114.045 784.343 114.045C784.761 114.045 785.132 113.948 785.457 113.752C785.785 113.557 786.042 113.288 786.227 112.947C786.416 112.602 786.511 112.213 786.511 111.778C786.511 111.334 786.413 110.938 786.218 110.59C786.025 110.239 785.76 109.962 785.422 109.76C785.084 109.558 784.698 109.455 784.264 109.452C783.952 109.448 783.632 109.496 783.304 109.596C782.976 109.692 782.706 109.816 782.494 109.969L781.34 109.83L781.957 104.818H787.247V105.912H782.991L782.633 108.915H782.693C782.901 108.749 783.163 108.612 783.478 108.502C783.793 108.393 784.121 108.338 784.463 108.338C785.086 108.338 785.641 108.487 786.128 108.786C786.619 109.08 787.003 109.485 787.281 109.999C787.563 110.512 787.704 111.099 787.704 111.759C787.704 112.408 787.558 112.988 787.267 113.499C786.978 114.006 786.58 114.407 786.073 114.702C785.566 114.993 784.99 115.139 784.343 115.139ZM794.869 113.091V112.554C794.869 112.183 794.946 111.843 795.098 111.535C795.254 111.223 795.479 110.975 795.774 110.789C796.072 110.6 796.434 110.506 796.858 110.506C797.289 110.506 797.65 110.6 797.942 110.789C798.233 110.975 798.454 111.223 798.603 111.535C798.752 111.843 798.827 112.183 798.827 112.554V113.091C798.827 113.462 798.75 113.804 798.598 114.115C798.449 114.423 798.227 114.672 797.932 114.861C797.64 115.046 797.282 115.139 796.858 115.139C796.427 115.139 796.064 115.046 795.769 114.861C795.474 114.672 795.25 114.423 795.098 114.115C794.946 113.804 794.869 113.462 794.869 113.091ZM795.884 112.554V113.091C795.884 113.399 795.956 113.676 796.102 113.921C796.248 114.163 796.5 114.284 796.858 114.284C797.206 114.284 797.451 114.163 797.594 113.921C797.74 113.676 797.812 113.399 797.812 113.091V112.554C797.812 112.246 797.743 111.971 797.604 111.729C797.464 111.483 797.216 111.361 796.858 111.361C796.51 111.361 796.26 111.483 796.107 111.729C795.958 111.971 795.884 112.246 795.884 112.554ZM789.798 107.264V106.727C789.798 106.356 789.875 106.016 790.027 105.708C790.183 105.397 790.408 105.148 790.703 104.962C791.001 104.773 791.363 104.679 791.787 104.679C792.218 104.679 792.579 104.773 792.871 104.962C793.162 105.148 793.383 105.397 793.532 105.708C793.681 106.016 793.756 106.356 793.756 106.727V107.264C793.756 107.635 793.679 107.977 793.527 108.288C793.378 108.597 793.156 108.845 792.861 109.034C792.569 109.22 792.211 109.312 791.787 109.312C791.356 109.312 790.993 109.22 790.698 109.034C790.403 108.845 790.179 108.597 790.027 108.288C789.875 107.977 789.798 107.635 789.798 107.264ZM790.812 106.727V107.264C790.812 107.572 790.885 107.849 791.031 108.094C791.177 108.336 791.429 108.457 791.787 108.457C792.135 108.457 792.38 108.336 792.523 108.094C792.669 107.849 792.741 107.572 792.741 107.264V106.727C792.741 106.419 792.672 106.144 792.533 105.902C792.393 105.657 792.145 105.534 791.787 105.534C791.439 105.534 791.189 105.657 791.036 105.902C790.887 106.144 790.812 106.419 790.812 106.727ZM790.176 115L797.176 104.818H798.31L791.31 115H790.176Z" fill="white" fill-opacity="0.95"/>
<rect x="500" y="126" width="300" height="4" rx="2" fill="#8F8F8F"/>
<rect x="500" y="126" width="225" height="4" rx="2" fill="#3492EB"/>
<path d="M501.233 153V142.818H502.466V147.352H507.895V142.818H509.128V153H507.895V148.446H502.466V153H501.233ZM514.639 153.159C513.903 153.159 513.268 152.997 512.735 152.672C512.204 152.344 511.795 151.886 511.507 151.3C511.222 150.71 511.079 150.024 511.079 149.241C511.079 148.459 511.222 147.77 511.507 147.173C511.795 146.573 512.196 146.106 512.71 145.771C513.227 145.433 513.83 145.264 514.52 145.264C514.917 145.264 515.31 145.33 515.698 145.463C516.086 145.596 516.439 145.811 516.757 146.109C517.075 146.404 517.328 146.795 517.517 147.283C517.706 147.77 517.801 148.37 517.801 149.082V149.58H511.914V148.565H516.608C516.608 148.134 516.521 147.75 516.349 147.412C516.18 147.074 515.938 146.807 515.623 146.612C515.312 146.416 514.944 146.318 514.52 146.318C514.052 146.318 513.648 146.434 513.306 146.666C512.968 146.895 512.708 147.193 512.526 147.561C512.344 147.929 512.252 148.323 512.252 148.744V149.42C512.252 149.997 512.352 150.486 512.551 150.887C512.753 151.285 513.033 151.588 513.391 151.797C513.749 152.002 514.165 152.105 514.639 152.105C514.947 152.105 515.225 152.062 515.474 151.976C515.726 151.886 515.943 151.754 516.125 151.578C516.308 151.399 516.449 151.177 516.548 150.912L517.681 151.23C517.562 151.615 517.362 151.953 517.08 152.244C516.798 152.533 516.45 152.758 516.036 152.92C515.622 153.08 515.156 153.159 514.639 153.159ZM520.759 142.818V153H519.586V142.818H520.759ZM522.908 155.864V145.364H524.041V146.577H524.181C524.267 146.444 524.386 146.275 524.539 146.07C524.694 145.861 524.916 145.675 525.205 145.513C525.496 145.347 525.891 145.264 526.388 145.264C527.031 145.264 527.598 145.425 528.088 145.746C528.579 146.068 528.962 146.524 529.237 147.114C529.512 147.704 529.649 148.4 529.649 149.202C529.649 150.01 529.512 150.711 529.237 151.305C528.962 151.895 528.58 152.352 528.093 152.677C527.606 152.998 527.044 153.159 526.408 153.159C525.917 153.159 525.525 153.078 525.23 152.915C524.935 152.75 524.708 152.562 524.548 152.354C524.389 152.142 524.267 151.966 524.181 151.827H524.081V155.864H522.908ZM524.061 149.182C524.061 149.759 524.146 150.267 524.315 150.708C524.484 151.146 524.731 151.489 525.056 151.737C525.38 151.982 525.778 152.105 526.249 152.105C526.739 152.105 527.149 151.976 527.477 151.717C527.808 151.455 528.057 151.104 528.222 150.663C528.392 150.219 528.476 149.725 528.476 149.182C528.476 148.645 528.393 148.161 528.227 147.73C528.065 147.296 527.818 146.953 527.487 146.701C527.159 146.446 526.746 146.318 526.249 146.318C525.771 146.318 525.37 146.439 525.046 146.681C524.721 146.92 524.476 147.254 524.31 147.685C524.144 148.113 524.061 148.612 524.061 149.182ZM534.641 153.159C533.905 153.159 533.27 152.997 532.737 152.672C532.206 152.344 531.797 151.886 531.509 151.3C531.224 150.71 531.081 150.024 531.081 149.241C531.081 148.459 531.224 147.77 531.509 147.173C531.797 146.573 532.198 146.106 532.712 145.771C533.229 145.433 533.832 145.264 534.521 145.264C534.919 145.264 535.312 145.33 535.7 145.463C536.088 145.596 536.441 145.811 536.759 146.109C537.077 146.404 537.33 146.795 537.519 147.283C537.708 147.77 537.803 148.37 537.803 149.082V149.58H531.916V148.565H536.61C536.61 148.134 536.523 147.75 536.351 147.412C536.182 147.074 535.94 146.807 535.625 146.612C535.314 146.416 534.946 146.318 534.521 146.318C534.054 146.318 533.65 146.434 533.308 146.666C532.97 146.895 532.71 147.193 532.528 147.561C532.346 147.929 532.254 148.323 532.254 148.744V149.42C532.254 149.997 532.354 150.486 532.553 150.887C532.755 151.285 533.035 151.588 533.393 151.797C533.751 152.002 534.167 152.105 534.641 152.105C534.949 152.105 535.227 152.062 535.476 151.976C535.728 151.886 535.945 151.754 536.127 151.578C536.31 151.399 536.45 151.177 536.55 150.912L537.683 151.23C537.564 151.615 537.364 151.953 537.082 152.244C536.8 152.533 536.452 152.758 536.038 152.92C535.624 153.08 535.158 153.159 534.641 153.159ZM539.588 153V145.364H540.721V146.517H540.801C540.94 146.139 541.192 145.833 541.556 145.597C541.921 145.362 542.332 145.244 542.789 145.244C542.875 145.244 542.983 145.246 543.112 145.249C543.242 145.253 543.339 145.258 543.406 145.264V146.457C543.366 146.447 543.275 146.433 543.132 146.413C542.993 146.389 542.846 146.378 542.69 146.378C542.319 146.378 541.987 146.456 541.695 146.612C541.407 146.764 541.178 146.976 541.009 147.248C540.844 147.516 540.761 147.823 540.761 148.168V153H539.588ZM548.336 143.912V142.818H555.973V143.912H552.771V153H551.538V143.912H548.336ZM559.811 153.159C559.075 153.159 558.44 152.997 557.907 152.672C557.376 152.344 556.967 151.886 556.679 151.3C556.394 150.71 556.251 150.024 556.251 149.241C556.251 148.459 556.394 147.77 556.679 147.173C556.967 146.573 557.368 146.106 557.882 145.771C558.399 145.433 559.002 145.264 559.691 145.264C560.089 145.264 560.482 145.33 560.87 145.463C561.257 145.596 561.61 145.811 561.929 146.109C562.247 146.404 562.5 146.795 562.689 147.283C562.878 147.77 562.973 148.37 562.973 149.082V149.58H557.086V148.565H561.779C561.779 148.134 561.693 147.75 561.521 147.412C561.352 147.074 561.11 146.807 560.795 146.612C560.484 146.416 560.116 146.318 559.691 146.318C559.224 146.318 558.82 146.434 558.478 146.666C558.14 146.895 557.88 147.193 557.698 147.561C557.516 147.929 557.424 148.323 557.424 148.744V149.42C557.424 149.997 557.524 150.486 557.723 150.887C557.925 151.285 558.205 151.588 558.563 151.797C558.921 152.002 559.337 152.105 559.811 152.105C560.119 152.105 560.397 152.062 560.646 151.976C560.898 151.886 561.115 151.754 561.297 151.578C561.48 151.399 561.62 151.177 561.72 150.912L562.853 151.23C562.734 151.615 562.533 151.953 562.252 152.244C561.97 152.533 561.622 152.758 561.208 152.92C560.793 153.08 560.328 153.159 559.811 153.159ZM565.427 145.364L567.257 148.486L569.086 145.364H570.439L567.973 149.182L570.439 153H569.086L567.257 150.037L565.427 153H564.075L566.501 149.182L564.075 145.364H565.427ZM575.434 145.364V146.358H571.477V145.364H575.434ZM572.63 143.534H573.803V150.812C573.803 151.144 573.851 151.393 573.947 151.558C574.047 151.721 574.173 151.83 574.325 151.886C574.481 151.939 574.645 151.966 574.817 151.966C574.947 151.966 575.053 151.959 575.136 151.946C575.219 151.929 575.285 151.916 575.335 151.906L575.573 152.96C575.494 152.99 575.383 153.02 575.24 153.05C575.098 153.083 574.917 153.099 574.698 153.099C574.367 153.099 574.042 153.028 573.724 152.886C573.409 152.743 573.147 152.526 572.938 152.234C572.733 151.943 572.63 151.575 572.63 151.131V143.534Z" fill="white" fill-opacity="0.7"/>
</svg>
