<svg width="1150" height="256" viewBox="0 0 1150 256" fill="none" xmlns="http://www.w3.org/2000/svg">
<rect width="1150" height="256" rx="24" fill="#262626"/>
<path d="M426.233 115V104.818H427.466V113.906H432.199V115H426.233ZM436.196 115.179C435.712 115.179 435.273 115.088 434.879 114.906C434.484 114.72 434.171 114.453 433.939 114.105C433.707 113.754 433.591 113.33 433.591 112.832C433.591 112.395 433.677 112.04 433.849 111.768C434.022 111.493 434.252 111.278 434.54 111.122C434.829 110.966 435.147 110.85 435.495 110.774C435.846 110.695 436.199 110.632 436.554 110.585C437.018 110.526 437.394 110.481 437.683 110.451C437.974 110.418 438.186 110.363 438.319 110.287C438.455 110.211 438.523 110.078 438.523 109.889V109.849C438.523 109.359 438.388 108.978 438.12 108.706C437.855 108.434 437.452 108.298 436.912 108.298C436.352 108.298 435.913 108.421 435.594 108.666C435.276 108.911 435.053 109.173 434.923 109.452L433.81 109.054C434.009 108.59 434.274 108.229 434.605 107.97C434.94 107.708 435.304 107.526 435.699 107.423C436.097 107.317 436.488 107.264 436.872 107.264C437.117 107.264 437.399 107.294 437.717 107.354C438.039 107.41 438.349 107.528 438.647 107.707C438.949 107.886 439.199 108.156 439.398 108.517C439.597 108.878 439.696 109.362 439.696 109.969V115H438.523V113.966H438.463C438.384 114.132 438.251 114.309 438.065 114.498C437.88 114.687 437.633 114.848 437.325 114.98C437.016 115.113 436.64 115.179 436.196 115.179ZM436.375 114.125C436.839 114.125 437.23 114.034 437.548 113.852C437.87 113.669 438.112 113.434 438.274 113.146C438.44 112.857 438.523 112.554 438.523 112.236V111.162C438.473 111.222 438.364 111.276 438.195 111.326C438.029 111.372 437.837 111.414 437.618 111.45C437.402 111.483 437.192 111.513 436.987 111.54C436.784 111.563 436.62 111.583 436.494 111.599C436.189 111.639 435.904 111.704 435.639 111.793C435.377 111.879 435.165 112.01 435.003 112.186C434.844 112.358 434.764 112.594 434.764 112.892C434.764 113.3 434.915 113.608 435.217 113.817C435.522 114.022 435.908 114.125 436.375 114.125ZM441.997 115V104.818H443.17V108.577H443.269C443.356 108.444 443.475 108.275 443.627 108.07C443.783 107.861 444.005 107.675 444.294 107.513C444.585 107.347 444.98 107.264 445.477 107.264C446.12 107.264 446.686 107.425 447.177 107.746C447.668 108.068 448.05 108.524 448.325 109.114C448.601 109.704 448.738 110.4 448.738 111.202C448.738 112.01 448.601 112.711 448.325 113.305C448.05 113.895 447.669 114.352 447.182 114.677C446.695 114.998 446.133 115.159 445.497 115.159C445.006 115.159 444.613 115.078 444.318 114.915C444.023 114.75 443.796 114.562 443.637 114.354C443.478 114.142 443.356 113.966 443.269 113.827H443.13V115H441.997ZM443.15 111.182C443.15 111.759 443.235 112.267 443.404 112.708C443.573 113.146 443.82 113.489 444.144 113.737C444.469 113.982 444.867 114.105 445.338 114.105C445.828 114.105 446.237 113.976 446.566 113.717C446.897 113.455 447.146 113.104 447.311 112.663C447.48 112.219 447.565 111.725 447.565 111.182C447.565 110.645 447.482 110.161 447.316 109.73C447.154 109.296 446.907 108.953 446.575 108.701C446.247 108.446 445.835 108.318 445.338 108.318C444.86 108.318 444.459 108.439 444.134 108.681C443.81 108.92 443.564 109.254 443.399 109.685C443.233 110.113 443.15 110.612 443.15 111.182ZM453.735 115.159C452.999 115.159 452.364 114.997 451.83 114.672C451.3 114.344 450.891 113.886 450.602 113.3C450.317 112.71 450.175 112.024 450.175 111.241C450.175 110.459 450.317 109.77 450.602 109.173C450.891 108.573 451.292 108.106 451.806 107.771C452.323 107.433 452.926 107.264 453.615 107.264C454.013 107.264 454.406 107.33 454.794 107.463C455.181 107.596 455.534 107.811 455.852 108.109C456.171 108.404 456.424 108.795 456.613 109.283C456.802 109.77 456.896 110.37 456.896 111.082V111.58H451.01V110.565H455.703C455.703 110.134 455.617 109.75 455.445 109.412C455.276 109.074 455.034 108.807 454.719 108.612C454.407 108.416 454.039 108.318 453.615 108.318C453.148 108.318 452.744 108.434 452.402 108.666C452.064 108.895 451.804 109.193 451.622 109.561C451.439 109.929 451.348 110.323 451.348 110.744V111.42C451.348 111.997 451.448 112.486 451.646 112.887C451.849 113.285 452.129 113.588 452.487 113.797C452.845 114.002 453.261 114.105 453.735 114.105C454.043 114.105 454.321 114.062 454.57 113.976C454.822 113.886 455.039 113.754 455.221 113.578C455.403 113.399 455.544 113.177 455.644 112.912L456.777 113.23C456.658 113.615 456.457 113.953 456.176 114.244C455.894 114.533 455.546 114.758 455.132 114.92C454.717 115.08 454.252 115.159 453.735 115.159ZM459.855 104.818V115H458.681V104.818H459.855ZM465.543 105.912V104.818H473.18V105.912H469.978V115H468.745V105.912H465.543ZM477.018 115.159C476.282 115.159 475.647 114.997 475.114 114.672C474.583 114.344 474.174 113.886 473.886 113.3C473.601 112.71 473.458 112.024 473.458 111.241C473.458 110.459 473.601 109.77 473.886 109.173C474.174 108.573 474.575 108.106 475.089 107.771C475.606 107.433 476.209 107.264 476.898 107.264C477.296 107.264 477.689 107.33 478.077 107.463C478.464 107.596 478.817 107.811 479.136 108.109C479.454 108.404 479.707 108.795 479.896 109.283C480.085 109.77 480.18 110.37 480.18 111.082V111.58H474.293V110.565H478.987C478.987 110.134 478.9 109.75 478.728 109.412C478.559 109.074 478.317 108.807 478.002 108.612C477.691 108.416 477.323 108.318 476.898 108.318C476.431 108.318 476.027 108.434 475.685 108.666C475.347 108.895 475.087 109.193 474.905 109.561C474.723 109.929 474.631 110.323 474.631 110.744V111.42C474.631 111.997 474.731 112.486 474.93 112.887C475.132 113.285 475.412 113.588 475.77 113.797C476.128 114.002 476.544 114.105 477.018 114.105C477.326 114.105 477.604 114.062 477.853 113.976C478.105 113.886 478.322 113.754 478.504 113.578C478.687 113.399 478.827 113.177 478.927 112.912L480.06 113.23C479.941 113.615 479.741 113.953 479.459 114.244C479.177 114.533 478.829 114.758 478.415 114.92C478 115.08 477.535 115.159 477.018 115.159ZM482.634 107.364L484.464 110.486L486.294 107.364H487.646L485.18 111.182L487.646 115H486.294L484.464 112.037L482.634 115H481.282L483.708 111.182L481.282 107.364H482.634ZM492.641 107.364V108.358H488.684V107.364H492.641ZM489.837 105.534H491.01V112.812C491.01 113.144 491.058 113.393 491.154 113.558C491.254 113.721 491.38 113.83 491.532 113.886C491.688 113.939 491.852 113.966 492.025 113.966C492.154 113.966 492.26 113.959 492.343 113.946C492.426 113.929 492.492 113.916 492.542 113.906L492.78 114.96C492.701 114.99 492.59 115.02 492.447 115.05C492.305 115.083 492.124 115.099 491.905 115.099C491.574 115.099 491.249 115.028 490.931 114.886C490.616 114.743 490.354 114.526 490.145 114.234C489.94 113.943 489.837 113.575 489.837 113.131V105.534Z" fill="white" fill-opacity="0.95"/>
<path d="M698.618 115L703.172 105.991V105.912H697.922V104.818H704.445V105.972L699.911 115H698.618ZM709.343 115.139C708.76 115.139 708.235 115.023 707.767 114.791C707.3 114.559 706.925 114.241 706.644 113.837C706.362 113.432 706.208 112.972 706.181 112.455H707.374C707.421 112.915 707.63 113.296 708.001 113.598C708.375 113.896 708.823 114.045 709.343 114.045C709.761 114.045 710.132 113.948 710.457 113.752C710.785 113.557 711.042 113.288 711.227 112.947C711.416 112.602 711.511 112.213 711.511 111.778C711.511 111.334 711.413 110.938 711.218 110.59C711.025 110.239 710.76 109.962 710.422 109.76C710.084 109.558 709.698 109.455 709.264 109.452C708.952 109.448 708.632 109.496 708.304 109.596C707.976 109.692 707.706 109.816 707.494 109.969L706.34 109.83L706.957 104.818H712.247V105.912H707.991L707.633 108.915H707.693C707.901 108.749 708.163 108.612 708.478 108.502C708.793 108.393 709.121 108.338 709.463 108.338C710.086 108.338 710.641 108.487 711.128 108.786C711.619 109.08 712.003 109.485 712.281 109.999C712.563 110.512 712.704 111.099 712.704 111.759C712.704 112.408 712.558 112.988 712.267 113.499C711.978 114.006 711.58 114.407 711.073 114.702C710.566 114.993 709.99 115.139 709.343 115.139ZM719.869 113.091V112.554C719.869 112.183 719.946 111.843 720.098 111.535C720.254 111.223 720.479 110.975 720.774 110.789C721.072 110.6 721.434 110.506 721.858 110.506C722.289 110.506 722.65 110.6 722.942 110.789C723.233 110.975 723.454 111.223 723.603 111.535C723.752 111.843 723.827 112.183 723.827 112.554V113.091C723.827 113.462 723.75 113.804 723.598 114.115C723.449 114.423 723.227 114.672 722.932 114.861C722.64 115.046 722.282 115.139 721.858 115.139C721.427 115.139 721.064 115.046 720.769 114.861C720.474 114.672 720.25 114.423 720.098 114.115C719.946 113.804 719.869 113.462 719.869 113.091ZM720.884 112.554V113.091C720.884 113.399 720.956 113.676 721.102 113.921C721.248 114.163 721.5 114.284 721.858 114.284C722.206 114.284 722.451 114.163 722.594 113.921C722.74 113.676 722.812 113.399 722.812 113.091V112.554C722.812 112.246 722.743 111.971 722.604 111.729C722.464 111.483 722.216 111.361 721.858 111.361C721.51 111.361 721.26 111.483 721.107 111.729C720.958 111.971 720.884 112.246 720.884 112.554ZM714.798 107.264V106.727C714.798 106.356 714.875 106.016 715.027 105.708C715.183 105.397 715.408 105.148 715.703 104.962C716.001 104.773 716.363 104.679 716.787 104.679C717.218 104.679 717.579 104.773 717.871 104.962C718.162 105.148 718.383 105.397 718.532 105.708C718.681 106.016 718.756 106.356 718.756 106.727V107.264C718.756 107.635 718.679 107.977 718.527 108.288C718.378 108.597 718.156 108.845 717.861 109.034C717.569 109.22 717.211 109.312 716.787 109.312C716.356 109.312 715.993 109.22 715.698 109.034C715.403 108.845 715.179 108.597 715.027 108.288C714.875 107.977 714.798 107.635 714.798 107.264ZM715.812 106.727V107.264C715.812 107.572 715.885 107.849 716.031 108.094C716.177 108.336 716.429 108.457 716.787 108.457C717.135 108.457 717.38 108.336 717.523 108.094C717.669 107.849 717.741 107.572 717.741 107.264V106.727C717.741 106.419 717.672 106.144 717.533 105.902C717.393 105.657 717.145 105.534 716.787 105.534C716.439 105.534 716.189 105.657 716.036 105.902C715.887 106.144 715.812 106.419 715.812 106.727ZM715.176 115L722.176 104.818H723.31L716.31 115H715.176Z" fill="white" fill-opacity="0.95"/>
<rect x="425" y="126" width="300" height="4" rx="2" fill="#8F8F8F"/>
<rect x="425" y="126" width="225" height="4" rx="2" fill="#3492EB"/>
<path d="M426.233 153V142.818H427.466V147.352H432.895V142.818H434.128V153H432.895V148.446H427.466V153H426.233ZM439.639 153.159C438.903 153.159 438.268 152.997 437.735 152.672C437.204 152.344 436.795 151.886 436.507 151.3C436.222 150.71 436.079 150.024 436.079 149.241C436.079 148.459 436.222 147.77 436.507 147.173C436.795 146.573 437.196 146.106 437.71 145.771C438.227 145.433 438.83 145.264 439.52 145.264C439.917 145.264 440.31 145.33 440.698 145.463C441.086 145.596 441.439 145.811 441.757 146.109C442.075 146.404 442.328 146.795 442.517 147.283C442.706 147.77 442.801 148.37 442.801 149.082V149.58H436.914V148.565H441.608C441.608 148.134 441.521 147.75 441.349 147.412C441.18 147.074 440.938 146.807 440.623 146.612C440.312 146.416 439.944 146.318 439.52 146.318C439.052 146.318 438.648 146.434 438.306 146.666C437.968 146.895 437.708 147.193 437.526 147.561C437.344 147.929 437.252 148.323 437.252 148.744V149.42C437.252 149.997 437.352 150.486 437.551 150.887C437.753 151.285 438.033 151.588 438.391 151.797C438.749 152.002 439.165 152.105 439.639 152.105C439.947 152.105 440.225 152.062 440.474 151.976C440.726 151.886 440.943 151.754 441.125 151.578C441.308 151.399 441.449 151.177 441.548 150.912L442.681 151.23C442.562 151.615 442.362 151.953 442.08 152.244C441.798 152.533 441.45 152.758 441.036 152.92C440.622 153.08 440.156 153.159 439.639 153.159ZM445.759 142.818V153H444.586V142.818H445.759ZM447.908 155.864V145.364H449.041V146.577H449.181C449.267 146.444 449.386 146.275 449.539 146.07C449.694 145.861 449.916 145.675 450.205 145.513C450.496 145.347 450.891 145.264 451.388 145.264C452.031 145.264 452.598 145.425 453.088 145.746C453.579 146.068 453.962 146.524 454.237 147.114C454.512 147.704 454.649 148.4 454.649 149.202C454.649 150.01 454.512 150.711 454.237 151.305C453.962 151.895 453.58 152.352 453.093 152.677C452.606 152.998 452.044 153.159 451.408 153.159C450.917 153.159 450.525 153.078 450.23 152.915C449.935 152.75 449.708 152.562 449.548 152.354C449.389 152.142 449.267 151.966 449.181 151.827H449.081V155.864H447.908ZM449.061 149.182C449.061 149.759 449.146 150.267 449.315 150.708C449.484 151.146 449.731 151.489 450.056 151.737C450.38 151.982 450.778 152.105 451.249 152.105C451.739 152.105 452.149 151.976 452.477 151.717C452.808 151.455 453.057 151.104 453.222 150.663C453.392 150.219 453.476 149.725 453.476 149.182C453.476 148.645 453.393 148.161 453.227 147.73C453.065 147.296 452.818 146.953 452.487 146.701C452.159 146.446 451.746 146.318 451.249 146.318C450.771 146.318 450.37 146.439 450.046 146.681C449.721 146.92 449.476 147.254 449.31 147.685C449.144 148.113 449.061 148.612 449.061 149.182ZM459.641 153.159C458.905 153.159 458.27 152.997 457.737 152.672C457.206 152.344 456.797 151.886 456.509 151.3C456.224 150.71 456.081 150.024 456.081 149.241C456.081 148.459 456.224 147.77 456.509 147.173C456.797 146.573 457.198 146.106 457.712 145.771C458.229 145.433 458.832 145.264 459.521 145.264C459.919 145.264 460.312 145.33 460.7 145.463C461.088 145.596 461.441 145.811 461.759 146.109C462.077 146.404 462.33 146.795 462.519 147.283C462.708 147.77 462.803 148.37 462.803 149.082V149.58H456.916V148.565H461.61C461.61 148.134 461.523 147.75 461.351 147.412C461.182 147.074 460.94 146.807 460.625 146.612C460.314 146.416 459.946 146.318 459.521 146.318C459.054 146.318 458.65 146.434 458.308 146.666C457.97 146.895 457.71 147.193 457.528 147.561C457.346 147.929 457.254 148.323 457.254 148.744V149.42C457.254 149.997 457.354 150.486 457.553 150.887C457.755 151.285 458.035 151.588 458.393 151.797C458.751 152.002 459.167 152.105 459.641 152.105C459.949 152.105 460.227 152.062 460.476 151.976C460.728 151.886 460.945 151.754 461.127 151.578C461.31 151.399 461.45 151.177 461.55 150.912L462.683 151.23C462.564 151.615 462.364 151.953 462.082 152.244C461.8 152.533 461.452 152.758 461.038 152.92C460.624 153.08 460.158 153.159 459.641 153.159ZM464.588 153V145.364H465.721V146.517H465.801C465.94 146.139 466.192 145.833 466.556 145.597C466.921 145.362 467.332 145.244 467.789 145.244C467.875 145.244 467.983 145.246 468.112 145.249C468.242 145.253 468.339 145.258 468.406 145.264V146.457C468.366 146.447 468.275 146.433 468.132 146.413C467.993 146.389 467.846 146.378 467.69 146.378C467.319 146.378 466.987 146.456 466.695 146.612C466.407 146.764 466.178 146.976 466.009 147.248C465.844 147.516 465.761 147.823 465.761 148.168V153H464.588ZM473.336 143.912V142.818H480.973V143.912H477.771V153H476.538V143.912H473.336ZM484.811 153.159C484.075 153.159 483.44 152.997 482.907 152.672C482.376 152.344 481.967 151.886 481.679 151.3C481.394 150.71 481.251 150.024 481.251 149.241C481.251 148.459 481.394 147.77 481.679 147.173C481.967 146.573 482.368 146.106 482.882 145.771C483.399 145.433 484.002 145.264 484.691 145.264C485.089 145.264 485.482 145.33 485.87 145.463C486.257 145.596 486.61 145.811 486.929 146.109C487.247 146.404 487.5 146.795 487.689 147.283C487.878 147.77 487.973 148.37 487.973 149.082V149.58H482.086V148.565H486.779C486.779 148.134 486.693 147.75 486.521 147.412C486.352 147.074 486.11 146.807 485.795 146.612C485.484 146.416 485.116 146.318 484.691 146.318C484.224 146.318 483.82 146.434 483.478 146.666C483.14 146.895 482.88 147.193 482.698 147.561C482.516 147.929 482.424 148.323 482.424 148.744V149.42C482.424 149.997 482.524 150.486 482.723 150.887C482.925 151.285 483.205 151.588 483.563 151.797C483.921 152.002 484.337 152.105 484.811 152.105C485.119 152.105 485.397 152.062 485.646 151.976C485.898 151.886 486.115 151.754 486.297 151.578C486.48 151.399 486.62 151.177 486.72 150.912L487.853 151.23C487.734 151.615 487.533 151.953 487.252 152.244C486.97 152.533 486.622 152.758 486.208 152.92C485.793 153.08 485.328 153.159 484.811 153.159ZM490.427 145.364L492.257 148.486L494.086 145.364H495.439L492.973 149.182L495.439 153H494.086L492.257 150.037L490.427 153H489.075L491.501 149.182L489.075 145.364H490.427ZM500.434 145.364V146.358H496.477V145.364H500.434ZM497.63 143.534H498.803V150.812C498.803 151.144 498.851 151.393 498.947 151.558C499.047 151.721 499.173 151.83 499.325 151.886C499.481 151.939 499.645 151.966 499.817 151.966C499.947 151.966 500.053 151.959 500.136 151.946C500.219 151.929 500.285 151.916 500.335 151.906L500.573 152.96C500.494 152.99 500.383 153.02 500.24 153.05C500.098 153.083 499.917 153.099 499.698 153.099C499.367 153.099 499.042 153.028 498.724 152.886C498.409 152.743 498.147 152.526 497.938 152.234C497.733 151.943 497.63 151.575 497.63 151.131V143.534Z" fill="white" fill-opacity="0.7"/>
</svg>
