<svg width="450" height="404" viewBox="0 0 450 404" fill="none" xmlns="http://www.w3.org/2000/svg">
<path d="M0 24C0 10.7452 10.7452 0 24 0H426C439.255 0 450 10.7452 450 24V296C450 309.255 439.255 320 426 320H24C10.7452 320 0 309.255 0 296V24Z" fill="#262626"/>
<path d="M405.2 48.1999C405.069 48.2002 404.938 48.1743 404.816 48.1236C404.695 48.073 404.584 47.9987 404.491 47.905L397.291 40.6696C397.199 40.5765 397.125 40.4661 397.075 40.3446C397.026 40.2232 397 40.0931 397 39.9618C397.001 39.8305 397.027 39.7005 397.078 39.5793C397.128 39.4581 397.202 39.3481 397.295 39.2555C397.388 39.1629 397.499 39.0896 397.62 39.0397C397.742 38.9898 397.872 38.9643 398.003 38.9646C398.134 38.965 398.264 38.9912 398.385 39.0418C398.507 39.0924 398.617 39.1663 398.709 39.2595L405.254 45.8366L421.35 32.0417C421.551 31.8692 421.813 31.7837 422.077 31.804C422.341 31.8244 422.587 31.9488 422.759 32.1501C422.932 32.3513 423.017 32.6129 422.997 32.8771C422.976 33.1414 422.852 33.3868 422.651 33.5593L405.851 47.9587C405.67 48.1145 405.439 48.2001 405.2 48.1999Z" fill="url(#paint0_linear_201_3864)"/>
<rect x="4.5" y="161" width="146" height="24" rx="4" fill="#1A1A1A"/>
<path d="M13.5701 169.72H15.2501V174.508C15.2501 175.441 15.7075 175.908 16.6221 175.908C17.1541 175.908 17.5695 175.717 17.8681 175.334C18.1108 175.007 18.2321 174.606 18.2321 174.13V169.72H19.9121V177H18.5261L18.3441 176.188C17.8215 176.869 17.0935 177.21 16.1601 177.21C15.3015 177.21 14.6435 176.949 14.1861 176.426C13.7755 175.95 13.5701 175.297 13.5701 174.466V169.72ZM22.9105 174.928C23.0412 175.628 23.5685 175.978 24.4925 175.978C25.0059 175.978 25.3932 175.88 25.6545 175.684C25.8692 175.516 25.9765 175.297 25.9765 175.026C25.9765 174.681 25.7899 174.424 25.4165 174.256C25.2019 174.163 24.7305 174.032 24.0025 173.864C23.1065 173.659 22.4672 173.379 22.0845 173.024C21.7019 172.679 21.5105 172.226 21.5105 171.666C21.5105 170.957 21.7999 170.411 22.3785 170.028C22.8919 169.683 23.5965 169.51 24.4925 169.51C25.4165 169.51 26.1585 169.729 26.7185 170.168C27.2039 170.541 27.5072 171.045 27.6285 171.68H25.9205C25.7805 171.055 25.2952 170.742 24.4645 170.742C23.6245 170.742 23.2045 170.999 23.2045 171.512C23.2045 171.773 23.3119 171.969 23.5265 172.1C23.7412 172.231 24.1752 172.375 24.8285 172.534C25.8365 172.767 26.5365 173.029 26.9285 173.318C27.4232 173.682 27.6705 174.195 27.6705 174.858C27.6705 175.614 27.3625 176.207 26.7465 176.636C26.1865 177.019 25.4305 177.21 24.4785 177.21C23.4799 177.21 22.6819 176.972 22.0845 176.496C21.5805 176.095 21.2865 175.572 21.2025 174.928H22.9105ZM34.045 174.9H35.809C35.613 175.647 35.207 176.225 34.591 176.636C34.003 177.019 33.2797 177.21 32.421 177.21C31.2357 177.21 30.3117 176.837 29.649 176.09C29.0424 175.409 28.739 174.499 28.739 173.36C28.739 172.053 29.117 171.055 29.873 170.364C30.5077 169.795 31.3337 169.51 32.351 169.51C33.5364 169.51 34.4324 169.897 35.039 170.672C35.6084 171.391 35.893 172.417 35.893 173.752H30.447C30.5124 174.536 30.755 175.11 31.175 175.474C31.511 175.773 31.9497 175.922 32.491 175.922C32.8737 175.922 33.205 175.829 33.485 175.642C33.765 175.455 33.9517 175.208 34.045 174.9ZM34.171 172.604C34.1337 171.923 33.9284 171.423 33.555 171.106C33.247 170.835 32.8457 170.7 32.351 170.7C31.8097 170.7 31.3757 170.877 31.049 171.232C30.7504 171.549 30.559 172.007 30.475 172.604H34.171ZM41.6035 169.608V171.232C41.2955 171.139 41.0015 171.092 40.7215 171.092C40.1988 171.092 39.7788 171.321 39.4615 171.778C39.1628 172.217 39.0135 172.823 39.0135 173.598V177H37.3335V169.72H38.7195L38.9295 170.812C39.3402 169.944 39.9608 169.51 40.7915 169.51C41.0902 169.51 41.3608 169.543 41.6035 169.608ZM50.5925 177.882C49.8738 178.143 49.0665 178.274 48.1705 178.274C47.1438 178.274 46.1965 178.069 45.3285 177.658C44.4045 177.21 43.6812 176.58 43.1585 175.768C42.5798 174.872 42.2905 173.817 42.2905 172.604C42.2905 170.495 43.0325 168.908 44.5165 167.844C45.5805 167.088 46.8078 166.71 48.1985 166.71C49.1972 166.71 50.1118 166.892 50.9425 167.256C51.8012 167.629 52.4732 168.161 52.9585 168.852C53.4812 169.589 53.7425 170.448 53.7425 171.428C53.7425 172.744 53.4345 173.808 52.8185 174.62C52.2772 175.32 51.6145 175.67 50.8305 175.67C50.3825 175.67 50.0045 175.521 49.6965 175.222C49.4538 174.979 49.3138 174.704 49.2765 174.396C49.1272 174.713 48.8612 174.984 48.4785 175.208C48.1052 175.423 47.7178 175.53 47.3165 175.53C46.6352 175.53 46.0938 175.287 45.6925 174.802C45.3192 174.354 45.1325 173.757 45.1325 173.01C45.1325 171.825 45.4358 170.882 46.0425 170.182C46.5838 169.566 47.2652 169.258 48.0865 169.258C48.3665 169.258 48.6185 169.328 48.8425 169.468C49.0758 169.599 49.2345 169.771 49.3185 169.986L49.5705 169.356H50.7465L50.2425 173.22C50.2052 173.491 50.1865 173.696 50.1865 173.836C50.1865 174.303 50.3872 174.536 50.7885 174.536C51.2272 174.536 51.5818 174.223 51.8525 173.598C52.0858 173.029 52.2025 172.31 52.2025 171.442C52.2025 170.257 51.7965 169.351 50.9845 168.726C50.2845 168.185 49.3558 167.914 48.1985 167.914C47.5078 167.914 46.8545 168.059 46.2385 168.348C45.5198 168.693 44.9552 169.188 44.5445 169.832C44.0685 170.597 43.8305 171.526 43.8305 172.618C43.8305 174.186 44.3485 175.362 45.3845 176.146C46.1685 176.743 47.1345 177.042 48.2825 177.042C48.9638 177.042 49.6872 176.921 50.4525 176.678L50.5925 177.882ZM47.6245 174.382C48.0632 174.382 48.4178 174.055 48.6885 173.402C48.9125 172.861 49.0245 172.221 49.0245 171.484C49.0245 170.747 48.7492 170.378 48.1985 170.378C47.6665 170.378 47.2605 170.658 46.9805 171.218C46.7472 171.694 46.6305 172.324 46.6305 173.108C46.6305 173.537 46.7378 173.864 46.9525 174.088C47.1205 174.284 47.3445 174.382 47.6245 174.382ZM60.0447 174.634H61.8367C61.6967 175.446 61.3093 176.085 60.6747 176.552C60.0773 176.991 59.34 177.21 58.4627 177.21C57.3053 177.21 56.4093 176.841 55.7747 176.104C55.2053 175.441 54.9207 174.55 54.9207 173.43C54.9207 172.123 55.2847 171.12 56.0127 170.42C56.6473 169.813 57.4687 169.51 58.4767 169.51C59.4193 169.51 60.1987 169.753 60.8147 170.238C61.356 170.667 61.6873 171.223 61.8087 171.904H59.9887C59.9047 171.559 59.732 171.288 59.4707 171.092C59.2093 170.887 58.892 170.784 58.5187 170.784C57.912 170.784 57.45 171.027 57.1327 171.512C56.834 171.969 56.6847 172.623 56.6847 173.472C56.6847 174.331 56.8853 174.979 57.2867 175.418C57.604 175.763 58.0053 175.936 58.4907 175.936C58.9013 175.936 59.2373 175.824 59.4987 175.6C59.7693 175.376 59.9513 175.054 60.0447 174.634ZM65.0057 168.614H63.1577V166.92H65.0057V168.614ZM64.9217 177H63.2417V169.72H64.9217V177ZM67.9184 174.928C68.049 175.628 68.5764 175.978 69.5004 175.978C70.0137 175.978 70.401 175.88 70.6624 175.684C70.877 175.516 70.9844 175.297 70.9844 175.026C70.9844 174.681 70.7977 174.424 70.4244 174.256C70.2097 174.163 69.7384 174.032 69.0104 173.864C68.1144 173.659 67.475 173.379 67.0924 173.024C66.7097 172.679 66.5184 172.226 66.5184 171.666C66.5184 170.957 66.8077 170.411 67.3864 170.028C67.8997 169.683 68.6044 169.51 69.5004 169.51C70.4244 169.51 71.1664 169.729 71.7264 170.168C72.2117 170.541 72.515 171.045 72.6364 171.68H70.9284C70.7884 171.055 70.303 170.742 69.4724 170.742C68.6324 170.742 68.2124 170.999 68.2124 171.512C68.2124 171.773 68.3197 171.969 68.5344 172.1C68.749 172.231 69.183 172.375 69.8364 172.534C70.8444 172.767 71.5444 173.029 71.9364 173.318C72.431 173.682 72.6784 174.195 72.6784 174.858C72.6784 175.614 72.3704 176.207 71.7544 176.636C71.1944 177.019 70.4384 177.21 69.4864 177.21C68.4877 177.21 67.6897 176.972 67.0924 176.496C66.5884 176.095 66.2944 175.572 66.2104 174.928H67.9184ZM78.8708 174.634H80.6628C80.5228 175.446 80.1355 176.085 79.5008 176.552C78.9035 176.991 78.1662 177.21 77.2888 177.21C76.1315 177.21 75.2355 176.841 74.6008 176.104C74.0315 175.441 73.7468 174.55 73.7468 173.43C73.7468 172.123 74.1108 171.12 74.8388 170.42C75.4735 169.813 76.2948 169.51 77.3028 169.51C78.2455 169.51 79.0248 169.753 79.6408 170.238C80.1822 170.667 80.5135 171.223 80.6348 171.904H78.8148C78.7308 171.559 78.5582 171.288 78.2968 171.092C78.0355 170.887 77.7182 170.784 77.3448 170.784C76.7382 170.784 76.2762 171.027 75.9588 171.512C75.6602 171.969 75.5108 172.623 75.5108 173.472C75.5108 174.331 75.7115 174.979 76.1128 175.418C76.4302 175.763 76.8315 175.936 77.3168 175.936C77.7275 175.936 78.0635 175.824 78.3248 175.6C78.5955 175.376 78.7775 175.054 78.8708 174.634ZM81.7039 173.346C81.7039 172.021 82.0959 171.017 82.8799 170.336C83.5239 169.785 84.3639 169.51 85.3999 169.51C86.6039 169.51 87.5325 169.874 88.1859 170.602C88.7925 171.265 89.0959 172.179 89.0959 173.346C89.0959 174.671 88.7132 175.675 87.9479 176.356C87.3039 176.925 86.4545 177.21 85.3999 177.21C84.2052 177.21 83.2765 176.837 82.6139 176.09C82.0072 175.409 81.7039 174.494 81.7039 173.346ZM85.4139 175.964C86.0765 175.964 86.5712 175.721 86.8979 175.236C87.2059 174.797 87.3599 174.167 87.3599 173.346C87.3599 172.413 87.1545 171.727 86.7439 171.288C86.4172 170.933 85.9692 170.756 85.3999 170.756C84.7465 170.756 84.2519 170.994 83.9159 171.47C83.5985 171.909 83.4399 172.534 83.4399 173.346C83.4399 174.27 83.6452 174.956 84.0559 175.404C84.4012 175.777 84.8539 175.964 85.4139 175.964ZM92.468 177H90.508V175.152H92.468V177ZM99.0095 174.634H100.802C100.662 175.446 100.274 176.085 99.6395 176.552C99.0422 176.991 98.3048 177.21 97.4275 177.21C96.2702 177.21 95.3742 176.841 94.7395 176.104C94.1702 175.441 93.8855 174.55 93.8855 173.43C93.8855 172.123 94.2495 171.12 94.9775 170.42C95.6122 169.813 96.4335 169.51 97.4415 169.51C98.3842 169.51 99.1635 169.753 99.7795 170.238C100.321 170.667 100.652 171.223 100.774 171.904H98.9535C98.8695 171.559 98.6968 171.288 98.4355 171.092C98.1742 170.887 97.8568 170.784 97.4835 170.784C96.8768 170.784 96.4148 171.027 96.0975 171.512C95.7988 171.969 95.6495 172.623 95.6495 173.472C95.6495 174.331 95.8502 174.979 96.2515 175.418C96.5688 175.763 96.9702 175.936 97.4555 175.936C97.8662 175.936 98.2022 175.824 98.4635 175.6C98.7342 175.376 98.9162 175.054 99.0095 174.634ZM101.843 173.346C101.843 172.021 102.235 171.017 103.019 170.336C103.663 169.785 104.503 169.51 105.539 169.51C106.743 169.51 107.671 169.874 108.325 170.602C108.931 171.265 109.235 172.179 109.235 173.346C109.235 174.671 108.852 175.675 108.087 176.356C107.443 176.925 106.593 177.21 105.539 177.21C104.344 177.21 103.415 176.837 102.753 176.09C102.146 175.409 101.843 174.494 101.843 173.346ZM105.553 175.964C106.215 175.964 106.71 175.721 107.037 175.236C107.345 174.797 107.499 174.167 107.499 173.346C107.499 172.413 107.293 171.727 106.883 171.288C106.556 170.933 106.108 170.756 105.539 170.756C104.885 170.756 104.391 170.994 104.055 171.47C103.737 171.909 103.579 172.534 103.579 173.346C103.579 174.27 103.784 174.956 104.195 175.404C104.54 175.777 104.993 175.964 105.553 175.964ZM112.336 177H110.656V169.72H111.93L112.168 170.546C112.681 169.855 113.404 169.51 114.338 169.51C115.355 169.51 116.078 169.874 116.508 170.602C117.03 169.874 117.824 169.51 118.888 169.51C119.728 169.51 120.372 169.757 120.82 170.252C121.23 170.709 121.436 171.353 121.436 172.184V177H119.756V172.226C119.756 171.283 119.317 170.812 118.44 170.812C117.936 170.812 117.534 171.008 117.236 171.4C117.002 171.727 116.886 172.114 116.886 172.562V177H115.206V172.226C115.206 171.283 114.767 170.812 113.89 170.812C113.414 170.812 113.026 170.999 112.728 171.372C112.466 171.689 112.336 172.063 112.336 172.492V177Z" fill="white" fill-opacity="0.95"/>
<path d="M12.7441 172.632H122.262V173.822H12.7441V172.632Z" fill="white" fill-opacity="0.95"/>
<path d="M135.207 173L139.353 168.853C139.4 168.807 139.437 168.752 139.462 168.691C139.487 168.631 139.5 168.566 139.5 168.5C139.5 168.434 139.487 168.369 139.462 168.309C139.437 168.248 139.4 168.193 139.353 168.146C139.307 168.1 139.252 168.063 139.191 168.038C139.131 168.013 139.066 168 139 168C138.934 168 138.869 168.013 138.809 168.038C138.748 168.063 138.693 168.1 138.646 168.146L134.5 172.293L130.353 168.146C130.307 168.1 130.252 168.062 130.191 168.037C130.13 168.011 130.065 167.998 129.999 167.998C129.933 167.998 129.868 168.011 129.807 168.036C129.746 168.061 129.691 168.098 129.644 168.144C129.598 168.191 129.561 168.246 129.536 168.307C129.511 168.368 129.498 168.433 129.498 168.499C129.498 168.565 129.511 168.63 129.537 168.691C129.562 168.752 129.6 168.807 129.646 168.853L133.793 173L129.646 177.146C129.6 177.193 129.563 177.248 129.538 177.309C129.513 177.369 129.5 177.434 129.5 177.5C129.5 177.566 129.513 177.631 129.538 177.691C129.563 177.752 129.6 177.807 129.646 177.853C129.693 177.9 129.748 177.937 129.809 177.962C129.869 177.987 129.934 178 130 178C130.066 178 130.131 177.987 130.191 177.962C130.252 177.937 130.307 177.9 130.353 177.853L134.5 173.707L138.646 177.853C138.74 177.947 138.867 178 139 178C139.133 178 139.26 177.947 139.353 177.853C139.447 177.76 139.5 177.633 139.5 177.5C139.5 177.367 139.447 177.24 139.353 177.146L135.207 173Z" fill="white" fill-opacity="0.95"/>
<rect x="5" y="161.5" width="145" height="23" rx="3.5" stroke="white" stroke-opacity="0.3"/>
<rect x="158.5" y="161" width="175" height="24" rx="4" fill="#1A1A1A"/>
<path d="M174.488 177H173.144L172.85 176.062C172.28 176.827 171.501 177.21 170.512 177.21C169.476 177.21 168.659 176.837 168.062 176.09C167.52 175.409 167.25 174.517 167.25 173.416C167.25 172.091 167.6 171.078 168.3 170.378C168.878 169.799 169.63 169.51 170.554 169.51C171.515 169.51 172.266 169.855 172.808 170.546V166.92H174.488V177ZM168.972 173.43C168.972 174.289 169.177 174.928 169.588 175.348C169.924 175.703 170.362 175.88 170.904 175.88C171.566 175.88 172.07 175.637 172.416 175.152C172.724 174.723 172.878 174.144 172.878 173.416C172.878 172.501 172.663 171.82 172.234 171.372C171.898 171.017 171.454 170.84 170.904 170.84C170.26 170.84 169.77 171.083 169.434 171.568C169.126 172.007 168.972 172.627 168.972 173.43ZM181.224 174.9H182.988C182.792 175.647 182.386 176.225 181.77 176.636C181.182 177.019 180.458 177.21 179.6 177.21C178.414 177.21 177.49 176.837 176.828 176.09C176.221 175.409 175.918 174.499 175.918 173.36C175.918 172.053 176.296 171.055 177.052 170.364C177.686 169.795 178.512 169.51 179.53 169.51C180.715 169.51 181.611 169.897 182.218 170.672C182.787 171.391 183.072 172.417 183.072 173.752H177.626C177.691 174.536 177.934 175.11 178.354 175.474C178.69 175.773 179.128 175.922 179.67 175.922C180.052 175.922 180.384 175.829 180.664 175.642C180.944 175.455 181.13 175.208 181.224 174.9ZM181.35 172.604C181.312 171.923 181.107 171.423 180.734 171.106C180.426 170.835 180.024 170.7 179.53 170.7C178.988 170.7 178.554 170.877 178.228 171.232C177.929 171.549 177.738 172.007 177.654 172.604H181.35ZM185.716 174.928C185.847 175.628 186.374 175.978 187.298 175.978C187.812 175.978 188.199 175.88 188.46 175.684C188.675 175.516 188.782 175.297 188.782 175.026C188.782 174.681 188.596 174.424 188.222 174.256C188.008 174.163 187.536 174.032 186.808 173.864C185.912 173.659 185.273 173.379 184.89 173.024C184.508 172.679 184.316 172.226 184.316 171.666C184.316 170.957 184.606 170.411 185.184 170.028C185.698 169.683 186.402 169.51 187.298 169.51C188.222 169.51 188.964 169.729 189.524 170.168C190.01 170.541 190.313 171.045 190.434 171.68H188.726C188.586 171.055 188.101 170.742 187.27 170.742C186.43 170.742 186.01 170.999 186.01 171.512C186.01 171.773 186.118 171.969 186.332 172.1C186.547 172.231 186.981 172.375 187.634 172.534C188.642 172.767 189.342 173.029 189.734 173.318C190.229 173.682 190.476 174.195 190.476 174.858C190.476 175.614 190.168 176.207 189.552 176.636C188.992 177.019 188.236 177.21 187.284 177.21C186.286 177.21 185.488 176.972 184.89 176.496C184.386 176.095 184.092 175.572 184.008 174.928H185.716ZM193.673 168.614H191.825V166.92H193.673V168.614ZM193.589 177H191.909V169.72H193.589V177ZM195.283 177.476H197.047C197.225 178.148 197.78 178.484 198.713 178.484C199.917 178.484 200.519 177.91 200.519 176.762V175.95C199.969 176.51 199.222 176.79 198.279 176.79C197.29 176.79 196.487 176.44 195.871 175.74C195.302 175.087 195.017 174.242 195.017 173.206C195.017 171.983 195.367 171.036 196.067 170.364C196.655 169.795 197.411 169.51 198.335 169.51C199.306 169.51 200.062 169.865 200.603 170.574L200.869 169.72H202.199V176.748C202.199 177.709 201.854 178.461 201.163 179.002C200.547 179.487 199.735 179.73 198.727 179.73C197.645 179.73 196.8 179.501 196.193 179.044C195.699 178.661 195.395 178.139 195.283 177.476ZM196.739 173.22C196.739 173.976 196.949 174.559 197.369 174.97C197.715 175.297 198.149 175.46 198.671 175.46C199.343 175.46 199.852 175.241 200.197 174.802C200.496 174.419 200.645 173.897 200.645 173.234C200.645 172.403 200.44 171.778 200.029 171.358C199.693 171.013 199.241 170.84 198.671 170.84C198.046 170.84 197.561 171.064 197.215 171.512C196.898 171.923 196.739 172.492 196.739 173.22ZM205.675 177H203.995V169.72H205.381L205.563 170.588C206.095 169.869 206.832 169.51 207.775 169.51C208.652 169.51 209.324 169.781 209.791 170.322C210.201 170.798 210.407 171.447 210.407 172.268V177H208.727V172.31C208.727 171.311 208.265 170.812 207.341 170.812C206.837 170.812 206.426 170.989 206.109 171.344C205.819 171.671 205.675 172.081 205.675 172.576V177ZM217.071 174.9H218.835C218.639 175.647 218.233 176.225 217.617 176.636C217.029 177.019 216.306 177.21 215.447 177.21C214.262 177.21 213.338 176.837 212.675 176.09C212.069 175.409 211.765 174.499 211.765 173.36C211.765 172.053 212.143 171.055 212.899 170.364C213.534 169.795 214.36 169.51 215.377 169.51C216.563 169.51 217.459 169.897 218.065 170.672C218.635 171.391 218.919 172.417 218.919 173.752H213.473C213.539 174.536 213.781 175.11 214.201 175.474C214.537 175.773 214.976 175.922 215.517 175.922C215.9 175.922 216.231 175.829 216.511 175.642C216.791 175.455 216.978 175.208 217.071 174.9ZM217.197 172.604C217.16 171.923 216.955 171.423 216.581 171.106C216.273 170.835 215.872 170.7 215.377 170.7C214.836 170.7 214.402 170.877 214.075 171.232C213.777 171.549 213.585 172.007 213.501 172.604H217.197ZM224.63 169.608V171.232C224.322 171.139 224.028 171.092 223.748 171.092C223.225 171.092 222.805 171.321 222.488 171.778C222.189 172.217 222.04 172.823 222.04 173.598V177H220.36V169.72H221.746L221.956 170.812C222.367 169.944 222.987 169.51 223.818 169.51C224.117 169.51 224.387 169.543 224.63 169.608ZM233.619 177.882C232.9 178.143 232.093 178.274 231.197 178.274C230.17 178.274 229.223 178.069 228.355 177.658C227.431 177.21 226.708 176.58 226.185 175.768C225.606 174.872 225.317 173.817 225.317 172.604C225.317 170.495 226.059 168.908 227.543 167.844C228.607 167.088 229.834 166.71 231.225 166.71C232.224 166.71 233.138 166.892 233.969 167.256C234.828 167.629 235.5 168.161 235.985 168.852C236.508 169.589 236.769 170.448 236.769 171.428C236.769 172.744 236.461 173.808 235.845 174.62C235.304 175.32 234.641 175.67 233.857 175.67C233.409 175.67 233.031 175.521 232.723 175.222C232.48 174.979 232.34 174.704 232.303 174.396C232.154 174.713 231.888 174.984 231.505 175.208C231.132 175.423 230.744 175.53 230.343 175.53C229.662 175.53 229.12 175.287 228.719 174.802C228.346 174.354 228.159 173.757 228.159 173.01C228.159 171.825 228.462 170.882 229.069 170.182C229.61 169.566 230.292 169.258 231.113 169.258C231.393 169.258 231.645 169.328 231.869 169.468C232.102 169.599 232.261 169.771 232.345 169.986L232.597 169.356H233.773L233.269 173.22C233.232 173.491 233.213 173.696 233.213 173.836C233.213 174.303 233.414 174.536 233.815 174.536C234.254 174.536 234.608 174.223 234.879 173.598C235.112 173.029 235.229 172.31 235.229 171.442C235.229 170.257 234.823 169.351 234.011 168.726C233.311 168.185 232.382 167.914 231.225 167.914C230.534 167.914 229.881 168.059 229.265 168.348C228.546 168.693 227.982 169.188 227.571 169.832C227.095 170.597 226.857 171.526 226.857 172.618C226.857 174.186 227.375 175.362 228.411 176.146C229.195 176.743 230.161 177.042 231.309 177.042C231.99 177.042 232.714 176.921 233.479 176.678L233.619 177.882ZM230.651 174.382C231.09 174.382 231.444 174.055 231.715 173.402C231.939 172.861 232.051 172.221 232.051 171.484C232.051 170.747 231.776 170.378 231.225 170.378C230.693 170.378 230.287 170.658 230.007 171.218C229.774 171.694 229.657 172.324 229.657 173.108C229.657 173.537 229.764 173.864 229.979 174.088C230.147 174.284 230.371 174.382 230.651 174.382ZM243.071 174.634H244.863C244.723 175.446 244.336 176.085 243.701 176.552C243.104 176.991 242.366 177.21 241.489 177.21C240.332 177.21 239.436 176.841 238.801 176.104C238.232 175.441 237.947 174.55 237.947 173.43C237.947 172.123 238.311 171.12 239.039 170.42C239.674 169.813 240.495 169.51 241.503 169.51C242.446 169.51 243.225 169.753 243.841 170.238C244.382 170.667 244.714 171.223 244.835 171.904H243.015C242.931 171.559 242.758 171.288 242.497 171.092C242.236 170.887 241.918 170.784 241.545 170.784C240.938 170.784 240.476 171.027 240.159 171.512C239.86 171.969 239.711 172.623 239.711 173.472C239.711 174.331 239.912 174.979 240.313 175.418C240.63 175.763 241.032 175.936 241.517 175.936C241.928 175.936 242.264 175.824 242.525 175.6C242.796 175.376 242.978 175.054 243.071 174.634ZM248.032 168.614H246.184V166.92H248.032V168.614ZM247.948 177H246.268V169.72H247.948V177ZM250.945 174.928C251.075 175.628 251.603 175.978 252.527 175.978C253.04 175.978 253.427 175.88 253.689 175.684C253.903 175.516 254.011 175.297 254.011 175.026C254.011 174.681 253.824 174.424 253.451 174.256C253.236 174.163 252.765 174.032 252.037 173.864C251.141 173.659 250.501 173.379 250.119 173.024C249.736 172.679 249.545 172.226 249.545 171.666C249.545 170.957 249.834 170.411 250.413 170.028C250.926 169.683 251.631 169.51 252.527 169.51C253.451 169.51 254.193 169.729 254.753 170.168C255.238 170.541 255.541 171.045 255.663 171.68H253.955C253.815 171.055 253.329 170.742 252.499 170.742C251.659 170.742 251.239 170.999 251.239 171.512C251.239 171.773 251.346 171.969 251.561 172.1C251.775 172.231 252.209 172.375 252.863 172.534C253.871 172.767 254.571 173.029 254.963 173.318C255.457 173.682 255.705 174.195 255.705 174.858C255.705 175.614 255.397 176.207 254.781 176.636C254.221 177.019 253.465 177.21 252.513 177.21C251.514 177.21 250.716 176.972 250.119 176.496C249.615 176.095 249.321 175.572 249.237 174.928H250.945ZM261.897 174.634H263.689C263.549 175.446 263.162 176.085 262.527 176.552C261.93 176.991 261.193 177.21 260.315 177.21C259.158 177.21 258.262 176.841 257.627 176.104C257.058 175.441 256.773 174.55 256.773 173.43C256.773 172.123 257.137 171.12 257.865 170.42C258.5 169.813 259.321 169.51 260.329 169.51C261.272 169.51 262.051 169.753 262.667 170.238C263.209 170.667 263.54 171.223 263.661 171.904H261.841C261.757 171.559 261.585 171.288 261.323 171.092C261.062 170.887 260.745 170.784 260.371 170.784C259.765 170.784 259.303 171.027 258.985 171.512C258.687 171.969 258.537 172.623 258.537 173.472C258.537 174.331 258.738 174.979 259.139 175.418C259.457 175.763 259.858 175.936 260.343 175.936C260.754 175.936 261.09 175.824 261.351 175.6C261.622 175.376 261.804 175.054 261.897 174.634ZM264.73 173.346C264.73 172.021 265.122 171.017 265.906 170.336C266.55 169.785 267.39 169.51 268.426 169.51C269.63 169.51 270.559 169.874 271.212 170.602C271.819 171.265 272.122 172.179 272.122 173.346C272.122 174.671 271.74 175.675 270.974 176.356C270.33 176.925 269.481 177.21 268.426 177.21C267.232 177.21 266.303 176.837 265.64 176.09C265.034 175.409 264.73 174.494 264.73 173.346ZM268.44 175.964C269.103 175.964 269.598 175.721 269.924 175.236C270.232 174.797 270.386 174.167 270.386 173.346C270.386 172.413 270.181 171.727 269.77 171.288C269.444 170.933 268.996 170.756 268.426 170.756C267.773 170.756 267.278 170.994 266.942 171.47C266.625 171.909 266.466 172.534 266.466 173.346C266.466 174.27 266.672 174.956 267.082 175.404C267.428 175.777 267.88 175.964 268.44 175.964ZM275.494 177H273.534V175.152H275.494V177ZM282.036 174.634H283.828C283.688 175.446 283.301 176.085 282.666 176.552C282.069 176.991 281.331 177.21 280.454 177.21C279.297 177.21 278.401 176.841 277.766 176.104C277.197 175.441 276.912 174.55 276.912 173.43C276.912 172.123 277.276 171.12 278.004 170.42C278.639 169.813 279.46 169.51 280.468 169.51C281.411 169.51 282.19 169.753 282.806 170.238C283.347 170.667 283.679 171.223 283.8 171.904H281.98C281.896 171.559 281.723 171.288 281.462 171.092C281.201 170.887 280.883 170.784 280.51 170.784C279.903 170.784 279.441 171.027 279.124 171.512C278.825 171.969 278.676 172.623 278.676 173.472C278.676 174.331 278.877 174.979 279.278 175.418C279.595 175.763 279.997 175.936 280.482 175.936C280.893 175.936 281.229 175.824 281.49 175.6C281.761 175.376 281.943 175.054 282.036 174.634ZM284.869 173.346C284.869 172.021 285.261 171.017 286.045 170.336C286.689 169.785 287.529 169.51 288.565 169.51C289.769 169.51 290.698 169.874 291.351 170.602C291.958 171.265 292.261 172.179 292.261 173.346C292.261 174.671 291.878 175.675 291.113 176.356C290.469 176.925 289.62 177.21 288.565 177.21C287.37 177.21 286.442 176.837 285.779 176.09C285.172 175.409 284.869 174.494 284.869 173.346ZM288.579 175.964C289.242 175.964 289.736 175.721 290.063 175.236C290.371 174.797 290.525 174.167 290.525 173.346C290.525 172.413 290.32 171.727 289.909 171.288C289.582 170.933 289.134 170.756 288.565 170.756C287.912 170.756 287.417 170.994 287.081 171.47C286.764 171.909 286.605 172.534 286.605 173.346C286.605 174.27 286.81 174.956 287.221 175.404C287.566 175.777 288.019 175.964 288.579 175.964ZM295.362 177H293.682V169.72H294.956L295.194 170.546C295.707 169.855 296.431 169.51 297.364 169.51C298.381 169.51 299.105 169.874 299.534 170.602C300.057 169.874 300.85 169.51 301.914 169.51C302.754 169.51 303.398 169.757 303.846 170.252C304.257 170.709 304.462 171.353 304.462 172.184V177H302.782V172.226C302.782 171.283 302.343 170.812 301.466 170.812C300.962 170.812 300.561 171.008 300.262 171.4C300.029 171.727 299.912 172.114 299.912 172.562V177H298.232V172.226C298.232 171.283 297.793 170.812 296.916 170.812C296.44 170.812 296.053 170.999 295.754 171.372C295.493 171.689 295.362 172.063 295.362 172.492V177Z" fill="white" fill-opacity="0.95"/>
<path d="M166.718 172.632H305.288V173.822H166.718V172.632Z" fill="white" fill-opacity="0.95"/>
<path d="M318.207 173L322.353 168.853C322.4 168.807 322.437 168.752 322.462 168.691C322.487 168.631 322.5 168.566 322.5 168.5C322.5 168.434 322.487 168.369 322.462 168.309C322.437 168.248 322.4 168.193 322.353 168.146C322.307 168.1 322.252 168.063 322.191 168.038C322.131 168.013 322.066 168 322 168C321.934 168 321.869 168.013 321.809 168.038C321.748 168.063 321.693 168.1 321.646 168.146L317.5 172.293L313.353 168.146C313.307 168.1 313.252 168.062 313.191 168.037C313.13 168.011 313.065 167.998 312.999 167.998C312.933 167.998 312.868 168.011 312.807 168.036C312.746 168.061 312.691 168.098 312.644 168.144C312.598 168.191 312.561 168.246 312.536 168.307C312.511 168.368 312.498 168.433 312.498 168.499C312.498 168.565 312.511 168.63 312.537 168.691C312.562 168.752 312.6 168.807 312.646 168.853L316.793 173L312.646 177.146C312.6 177.193 312.563 177.248 312.538 177.309C312.513 177.369 312.5 177.434 312.5 177.5C312.5 177.566 312.513 177.631 312.538 177.691C312.563 177.752 312.6 177.807 312.646 177.853C312.693 177.9 312.748 177.937 312.809 177.962C312.869 177.987 312.934 178 313 178C313.066 178 313.131 177.987 313.191 177.962C313.252 177.937 313.307 177.9 313.353 177.853L317.5 173.707L321.646 177.853C321.74 177.947 321.867 178 322 178C322.133 178 322.26 177.947 322.353 177.853C322.447 177.76 322.5 177.633 322.5 177.5C322.5 177.367 322.447 177.24 322.353 177.146L318.207 173Z" fill="white" fill-opacity="0.95"/>
<rect x="159" y="161.5" width="174" height="23" rx="3.5" stroke="white" stroke-opacity="0.3"/>
<path d="M0 297H450C450 309.703 439.703 320 427 320H23C10.2974 320 0 309.703 0 297Z" fill="url(#paint1_linear_201_3864)"/>
<path d="M1.5 350.6H6.18C8.54 350.6 10.3333 351.267 11.56 352.6C12.6933 353.827 13.26 355.56 13.26 357.8C13.26 360.227 12.5 362.087 10.98 363.38C9.7 364.46 8.05333 365 6.04 365H1.5V350.6ZM6.2 352.22H3.54V363.32H6.24C7.94667 363.32 9.22 362.787 10.06 361.72C10.82 360.787 11.2 359.48 11.2 357.8C11.2 355.827 10.6933 354.367 9.68 353.42C8.82667 352.62 7.66667 352.22 6.2 352.22ZM22.6402 362H24.7202C24.4268 363.053 23.8468 363.88 22.9802 364.48C22.1668 365.027 21.1935 365.3 20.0602 365.3C18.4202 365.3 17.1402 364.78 16.2202 363.74C15.3802 362.767 14.9602 361.453 14.9602 359.8C14.9602 357.92 15.4935 356.493 16.5602 355.52C17.4402 354.707 18.5735 354.3 19.9602 354.3C21.5868 354.3 22.8135 354.827 23.6402 355.88C24.4402 356.893 24.8402 358.34 24.8402 360.22H16.9202C17.0002 361.447 17.3735 362.36 18.0402 362.96C18.5868 363.44 19.2802 363.68 20.1202 363.68C20.7735 363.68 21.3402 363.5 21.8202 363.14C22.2202 362.833 22.4935 362.453 22.6402 362ZM20.0002 355.84C19.1468 355.84 18.4602 356.107 17.9402 356.64C17.4468 357.133 17.1335 357.82 17.0002 358.7H22.8802C22.8135 357.7 22.4802 356.953 21.8802 356.46C21.4002 356.047 20.7735 355.84 20.0002 355.84ZM32.2822 350.54V352.2C31.6422 352.04 31.1155 351.96 30.7022 351.96C30.3555 351.96 30.0822 352.053 29.8822 352.24C29.6955 352.427 29.6022 352.687 29.6022 353.02V354.6H31.8422V356.24H29.6022V365H27.6822V356.24H26.1422V354.6H27.6822V353.14C27.6822 352.22 27.9822 351.5 28.5822 350.98C29.1155 350.527 29.7822 350.3 30.5822 350.3C31.1022 350.3 31.6689 350.38 32.2822 350.54ZM35.2275 357.5H33.1875C33.2942 356.46 33.7875 355.653 34.6675 355.08C35.4542 354.56 36.4475 354.3 37.6475 354.3C39.0742 354.3 40.1675 354.673 40.9275 355.42C41.5675 356.06 41.8875 356.887 41.8875 357.9V365H40.3075L40.0675 363.58C39.2542 364.727 38.0942 365.3 36.5875 365.3C35.4008 365.3 34.4742 364.98 33.8075 364.34C33.2608 363.807 32.9875 363.133 32.9875 362.32C32.9875 361.293 33.3408 360.5 34.0475 359.94C34.6742 359.447 35.6342 359.087 36.9275 358.86L39.9675 358.34V357.82C39.9675 357.14 39.7342 356.627 39.2675 356.28C38.8542 355.973 38.2875 355.82 37.5675 355.82C36.1542 355.82 35.3742 356.38 35.2275 357.5ZM37.0475 363.68C37.8608 363.68 38.5675 363.413 39.1675 362.88C39.7008 362.387 39.9675 361.82 39.9675 361.18V359.84L37.3875 360.3C36.4408 360.46 35.7942 360.707 35.4475 361.04C35.1675 361.307 35.0275 361.667 35.0275 362.12C35.0275 362.627 35.2008 363.013 35.5475 363.28C35.8942 363.547 36.3942 363.68 37.0475 363.68ZM44.4836 354.6H46.4036V361.42C46.4036 362.913 47.1236 363.66 48.5636 363.66C49.4436 363.66 50.1169 363.347 50.5836 362.72C50.9436 362.24 51.1236 361.647 51.1236 360.94V354.6H53.0436V365H51.4636L51.2436 363.8C50.5103 364.8 49.4703 365.3 48.1236 365.3C46.9369 365.3 46.0236 364.933 45.3836 364.2C44.7836 363.52 44.4836 362.58 44.4836 361.38V354.6ZM57.7731 350.6V365H55.8531V350.6H57.7731ZM65.2197 363.46V365.1C64.7264 365.233 64.253 365.3 63.7997 365.3C62.8397 365.3 62.1197 365 61.6397 364.4C61.2264 363.907 61.0197 363.247 61.0197 362.42V356.24H59.4797V354.6H61.0197L61.1397 352.1H62.9397V354.6H65.1797V356.24H62.9397V362.46C62.9397 363.233 63.3064 363.62 64.0397 363.62C64.3864 363.62 64.7797 363.567 65.2197 363.46ZM79.8011 361.66H81.9011C81.7411 362.78 81.2144 363.68 80.3211 364.36C79.5078 364.987 78.5144 365.3 77.3411 365.3C75.8078 365.3 74.5878 364.773 73.6811 363.72C72.8411 362.747 72.4211 361.467 72.4211 359.88C72.4211 358.04 72.9278 356.613 73.9411 355.6C74.8078 354.733 75.9344 354.3 77.3211 354.3C78.6011 354.3 79.6544 354.64 80.4811 355.32C81.2144 355.92 81.6611 356.707 81.8211 357.68H79.7011C79.5678 357.12 79.2944 356.687 78.8811 356.38C78.4811 356.073 77.9744 355.92 77.3611 355.92C76.4144 355.92 75.6878 356.293 75.1811 357.04C74.7011 357.733 74.4611 358.7 74.4611 359.94C74.4611 361.233 74.7811 362.213 75.4211 362.88C75.9278 363.413 76.5811 363.68 77.3811 363.68C78.0744 363.68 78.6411 363.48 79.0811 363.08C79.4678 362.733 79.7078 362.26 79.8011 361.66ZM86.0153 365H84.0953V350.6H86.0153V355.78C86.7753 354.793 87.7886 354.3 89.0553 354.3C90.282 354.3 91.222 354.68 91.8753 355.44C92.4486 356.12 92.7353 357.047 92.7353 358.22V365H90.8153V358.24C90.8153 356.707 90.0753 355.94 88.5953 355.94C87.8086 355.94 87.1686 356.213 86.6753 356.76C86.2353 357.253 86.0153 357.887 86.0153 358.66V365ZM97.483 352.86H95.323V350.6H97.483V352.86ZM97.363 365H95.443V354.6H97.363V365ZM100.17 354.6H101.75L102.05 355.96C102.903 354.853 104.076 354.3 105.57 354.3C107.063 354.3 108.223 354.833 109.05 355.9C109.783 356.86 110.15 358.133 110.15 359.72C110.15 361.6 109.65 363.04 108.65 364.04C107.81 364.88 106.736 365.3 105.43 365.3C103.95 365.3 102.836 364.753 102.09 363.66V368.6H100.17V354.6ZM108.15 359.68C108.15 358.373 107.823 357.393 107.17 356.74C106.65 356.207 105.97 355.94 105.13 355.94C104.156 355.94 103.383 356.293 102.81 357C102.263 357.68 101.99 358.573 101.99 359.68C101.99 361.013 102.316 362.033 102.97 362.74C103.516 363.353 104.236 363.66 105.13 363.66C106.13 363.66 106.89 363.293 107.41 362.56C107.903 361.88 108.15 360.92 108.15 359.68ZM118.437 362.18C118.437 361.593 118.13 361.153 117.517 360.86C117.157 360.7 116.457 360.5 115.417 360.26C114.137 359.98 113.224 359.573 112.677 359.04C112.224 358.587 111.997 357.993 111.997 357.26C111.997 356.287 112.39 355.54 113.177 355.02C113.884 354.54 114.837 354.3 116.037 354.3C117.277 354.3 118.284 354.607 119.057 355.22C119.724 355.753 120.137 356.46 120.297 357.34H118.337C118.11 356.327 117.337 355.82 116.017 355.82C115.284 355.82 114.737 355.953 114.377 356.22C114.084 356.447 113.937 356.733 113.937 357.08C113.937 357.507 114.097 357.827 114.417 358.04C114.75 358.253 115.397 358.467 116.357 358.68C117.824 359 118.844 359.393 119.417 359.86C120.057 360.38 120.377 361.107 120.377 362.04C120.377 363.08 119.95 363.9 119.097 364.5C118.324 365.033 117.304 365.3 116.037 365.3C114.65 365.3 113.55 364.967 112.737 364.3C112.03 363.713 111.637 362.953 111.557 362.02H113.517C113.73 363.193 114.577 363.78 116.057 363.78C116.857 363.78 117.477 363.607 117.917 363.26C118.264 362.98 118.437 362.62 118.437 362.18ZM134.648 362.18C134.648 361.593 134.341 361.153 133.728 360.86C133.368 360.7 132.668 360.5 131.628 360.26C130.348 359.98 129.435 359.573 128.888 359.04C128.435 358.587 128.208 357.993 128.208 357.26C128.208 356.287 128.601 355.54 129.388 355.02C130.095 354.54 131.048 354.3 132.248 354.3C133.488 354.3 134.495 354.607 135.268 355.22C135.935 355.753 136.348 356.46 136.508 357.34H134.548C134.321 356.327 133.548 355.82 132.228 355.82C131.495 355.82 130.948 355.953 130.588 356.22C130.295 356.447 130.148 356.733 130.148 357.08C130.148 357.507 130.308 357.827 130.628 358.04C130.961 358.253 131.608 358.467 132.568 358.68C134.035 359 135.055 359.393 135.628 359.86C136.268 360.38 136.588 361.107 136.588 362.04C136.588 363.08 136.161 363.9 135.308 364.5C134.535 365.033 133.515 365.3 132.248 365.3C130.861 365.3 129.761 364.967 128.948 364.3C128.241 363.713 127.848 362.953 127.768 362.02H129.728C129.941 363.193 130.788 363.78 132.268 363.78C133.068 363.78 133.688 363.607 134.128 363.26C134.475 362.98 134.648 362.62 134.648 362.18ZM140.703 365H138.783V350.6H140.703V355.78C141.463 354.793 142.476 354.3 143.743 354.3C144.969 354.3 145.909 354.68 146.563 355.44C147.136 356.12 147.423 357.047 147.423 358.22V365H145.503V358.24C145.503 356.707 144.763 355.94 143.283 355.94C142.496 355.94 141.856 356.213 141.363 356.76C140.923 357.253 140.703 357.887 140.703 358.66V365ZM149.53 359.8C149.53 357.893 150.097 356.453 151.23 355.48C152.137 354.693 153.284 354.3 154.67 354.3C156.284 354.3 157.55 354.813 158.47 355.84C159.35 356.8 159.79 358.12 159.79 359.8C159.79 361.68 159.237 363.113 158.13 364.1C157.224 364.9 156.064 365.3 154.65 365.3C153.037 365.3 151.764 364.767 150.83 363.7C149.964 362.727 149.53 361.427 149.53 359.8ZM151.53 359.8C151.53 361.133 151.87 362.153 152.55 362.86C153.11 363.447 153.824 363.74 154.69 363.74C155.704 363.74 156.484 363.36 157.03 362.6C157.537 361.907 157.79 360.973 157.79 359.8C157.79 358.44 157.457 357.413 156.79 356.72C156.244 356.147 155.537 355.86 154.67 355.86C153.67 355.86 152.89 356.24 152.33 357C151.797 357.693 151.53 358.627 151.53 359.8ZM161.886 354.6H163.806V361.42C163.806 362.913 164.526 363.66 165.966 363.66C166.846 363.66 167.519 363.347 167.986 362.72C168.346 362.24 168.526 361.647 168.526 360.94V354.6H170.446V365H168.866L168.646 363.8C167.913 364.8 166.873 365.3 165.526 365.3C164.339 365.3 163.426 364.933 162.786 364.2C162.186 363.52 161.886 362.58 161.886 361.38V354.6ZM175.175 350.6V365H173.255V350.6H175.175ZM187.362 365H185.782L185.442 363.54C184.642 364.713 183.489 365.3 181.982 365.3C180.529 365.3 179.382 364.773 178.542 363.72C177.769 362.747 177.382 361.46 177.382 359.86C177.382 357.927 177.875 356.473 178.862 355.5C179.689 354.7 180.769 354.3 182.102 354.3C183.542 354.3 184.655 354.84 185.442 355.92V350.6H187.362V365ZM179.382 359.9C179.382 361.193 179.702 362.173 180.342 362.84C180.875 363.387 181.562 363.66 182.402 363.66C183.442 363.66 184.249 363.267 184.822 362.48C185.302 361.8 185.542 360.947 185.542 359.92C185.542 358.573 185.222 357.547 184.582 356.84C184.035 356.24 183.309 355.94 182.402 355.94C181.389 355.94 180.622 356.307 180.102 357.04C179.622 357.707 179.382 358.66 179.382 359.9ZM197.746 365H196.166V350.6H198.086V356.04C198.899 354.88 200.059 354.3 201.566 354.3C203.059 354.3 204.219 354.833 205.046 355.9C205.779 356.86 206.146 358.133 206.146 359.72C206.146 361.6 205.646 363.04 204.646 364.04C203.806 364.88 202.732 365.3 201.426 365.3C199.946 365.3 198.819 364.74 198.046 363.62L197.746 365ZM204.146 359.68C204.146 358.373 203.819 357.393 203.166 356.74C202.646 356.207 201.966 355.94 201.126 355.94C200.152 355.94 199.379 356.293 198.806 357C198.259 357.68 197.986 358.573 197.986 359.68C197.986 361.013 198.312 362.033 198.966 362.74C199.512 363.353 200.232 363.66 201.126 363.66C202.126 363.66 202.886 363.293 203.406 362.56C203.899 361.88 204.146 360.92 204.146 359.68ZM215.433 362H217.513C217.22 363.053 216.64 363.88 215.773 364.48C214.96 365.027 213.986 365.3 212.853 365.3C211.213 365.3 209.933 364.78 209.013 363.74C208.173 362.767 207.753 361.453 207.753 359.8C207.753 357.92 208.286 356.493 209.353 355.52C210.233 354.707 211.366 354.3 212.753 354.3C214.38 354.3 215.606 354.827 216.433 355.88C217.233 356.893 217.633 358.34 217.633 360.22H209.713C209.793 361.447 210.166 362.36 210.833 362.96C211.38 363.44 212.073 363.68 212.913 363.68C213.566 363.68 214.133 363.5 214.613 363.14C215.013 362.833 215.286 362.453 215.433 362ZM212.793 355.84C211.94 355.84 211.253 356.107 210.733 356.64C210.24 357.133 209.926 357.82 209.793 358.7H215.673C215.606 357.7 215.273 356.953 214.673 356.46C214.193 356.047 213.566 355.84 212.793 355.84ZM225.831 354.6H227.751V361.42C227.751 362.913 228.471 363.66 229.911 363.66C230.791 363.66 231.465 363.347 231.931 362.72C232.291 362.24 232.471 361.647 232.471 360.94V354.6H234.391V365H232.811L232.591 363.8C231.858 364.8 230.818 365.3 229.471 365.3C228.285 365.3 227.371 364.933 226.731 364.2C226.131 363.52 225.831 362.58 225.831 361.38V354.6ZM243.281 362.18C243.281 361.593 242.974 361.153 242.361 360.86C242.001 360.7 241.301 360.5 240.261 360.26C238.981 359.98 238.067 359.573 237.521 359.04C237.067 358.587 236.841 357.993 236.841 357.26C236.841 356.287 237.234 355.54 238.021 355.02C238.727 354.54 239.681 354.3 240.881 354.3C242.121 354.3 243.127 354.607 243.901 355.22C244.567 355.753 244.981 356.46 245.141 357.34H243.181C242.954 356.327 242.181 355.82 240.861 355.82C240.127 355.82 239.581 355.953 239.221 356.22C238.927 356.447 238.781 356.733 238.781 357.08C238.781 357.507 238.941 357.827 239.261 358.04C239.594 358.253 240.241 358.467 241.201 358.68C242.667 359 243.687 359.393 244.261 359.86C244.901 360.38 245.221 361.107 245.221 362.04C245.221 363.08 244.794 363.9 243.941 364.5C243.167 365.033 242.147 365.3 240.881 365.3C239.494 365.3 238.394 364.967 237.581 364.3C236.874 363.713 236.481 362.953 236.401 362.02H238.361C238.574 363.193 239.421 363.78 240.901 363.78C241.701 363.78 242.321 363.607 242.761 363.26C243.107 362.98 243.281 362.62 243.281 362.18ZM254.496 362H256.576C256.282 363.053 255.702 363.88 254.836 364.48C254.022 365.027 253.049 365.3 251.916 365.3C250.276 365.3 248.996 364.78 248.076 363.74C247.236 362.767 246.816 361.453 246.816 359.8C246.816 357.92 247.349 356.493 248.416 355.52C249.296 354.707 250.429 354.3 251.816 354.3C253.442 354.3 254.669 354.827 255.496 355.88C256.296 356.893 256.696 358.34 256.696 360.22H248.776C248.856 361.447 249.229 362.36 249.896 362.96C250.442 363.44 251.136 363.68 251.976 363.68C252.629 363.68 253.196 363.5 253.676 363.14C254.076 362.833 254.349 362.453 254.496 362ZM251.856 355.84C251.002 355.84 250.316 356.107 249.796 356.64C249.302 357.133 248.989 357.82 248.856 358.7H254.736C254.669 357.7 254.336 356.953 253.736 356.46C253.256 356.047 252.629 355.84 251.856 355.84ZM268.378 365H266.798L266.458 363.54C265.658 364.713 264.504 365.3 262.998 365.3C261.544 365.3 260.398 364.773 259.558 363.72C258.784 362.747 258.398 361.46 258.398 359.86C258.398 357.927 258.891 356.473 259.878 355.5C260.704 354.7 261.784 354.3 263.118 354.3C264.558 354.3 265.671 354.84 266.458 355.92V350.6H268.378V365ZM260.398 359.9C260.398 361.193 260.718 362.173 261.358 362.84C261.891 363.387 262.578 363.66 263.418 363.66C264.458 363.66 265.264 363.267 265.838 362.48C266.318 361.8 266.558 360.947 266.558 359.92C266.558 358.573 266.238 357.547 265.598 356.84C265.051 356.24 264.324 355.94 263.418 355.94C262.404 355.94 261.638 356.307 261.118 357.04C260.638 357.707 260.398 358.66 260.398 359.9ZM289.761 354.6H291.681L288.641 365H286.421L283.901 356.78L281.421 365H279.121L276.081 354.6H278.081L280.321 362.96L282.801 354.6H285.101L287.541 362.92L289.761 354.6ZM295.413 352.86H293.253V350.6H295.413V352.86ZM295.293 365H293.373V354.6H295.293V365ZM302.739 363.46V365.1C302.246 365.233 301.773 365.3 301.319 365.3C300.359 365.3 299.639 365 299.159 364.4C298.746 363.907 298.539 363.247 298.539 362.42V356.24H296.999V354.6H298.539L298.659 352.1H300.459V354.6H302.699V356.24H300.459V362.46C300.459 363.233 300.826 363.62 301.559 363.62C301.906 363.62 302.299 363.567 302.739 363.46ZM306.465 365H304.545V350.6H306.465V355.78C307.225 354.793 308.238 354.3 309.505 354.3C310.731 354.3 311.671 354.68 312.325 355.44C312.898 356.12 313.185 357.047 313.185 358.22V365H311.265V358.24C311.265 356.707 310.525 355.94 309.045 355.94C308.258 355.94 307.618 356.213 307.125 356.76C306.685 357.253 306.465 357.887 306.465 358.66V365ZM323.808 365H321.888V354.6H323.468L323.668 355.82C324.375 354.807 325.395 354.3 326.728 354.3C328.182 354.3 329.202 354.847 329.788 355.94C330.482 354.847 331.608 354.3 333.168 354.3C334.328 354.3 335.222 354.653 335.848 355.36C336.408 356.013 336.688 356.907 336.688 358.04V365H334.768V358.18C334.768 356.687 334.095 355.94 332.748 355.94C331.948 355.94 331.308 356.253 330.828 356.88C330.442 357.387 330.248 357.98 330.248 358.66V365H328.328V358.18C328.328 356.687 327.655 355.94 326.308 355.94C325.562 355.94 324.942 356.233 324.448 356.82C324.022 357.313 323.808 357.907 323.808 358.6V365ZM341.428 352.86H339.268V350.6H341.428V352.86ZM341.308 365H339.388V354.6H341.308V365ZM346.035 365H344.115V354.6H345.695L345.915 355.92C346.688 354.84 347.742 354.3 349.075 354.3C350.302 354.3 351.242 354.68 351.895 355.44C352.468 356.12 352.755 357.047 352.755 358.22V365H350.835V358.24C350.835 356.707 350.095 355.94 348.615 355.94C347.842 355.94 347.208 356.207 346.715 356.74C346.262 357.22 346.035 357.833 346.035 358.58V365ZM357.503 352.86H355.343V350.6H357.503V352.86ZM357.383 365H355.463V354.6H357.383V365ZM362.109 365H360.189V354.6H361.769L361.969 355.82C362.676 354.807 363.696 354.3 365.029 354.3C366.482 354.3 367.502 354.847 368.089 355.94C368.782 354.847 369.909 354.3 371.469 354.3C372.629 354.3 373.522 354.653 374.149 355.36C374.709 356.013 374.989 356.907 374.989 358.04V365H373.069V358.18C373.069 356.687 372.396 355.94 371.049 355.94C370.249 355.94 369.609 356.253 369.129 356.88C368.742 357.387 368.549 357.98 368.549 358.66V365H366.629V358.18C366.629 356.687 365.956 355.94 364.609 355.94C363.862 355.94 363.242 356.233 362.749 356.82C362.322 357.313 362.109 357.907 362.109 358.6V365ZM379.329 357.5H377.289C377.396 356.46 377.889 355.653 378.769 355.08C379.556 354.56 380.549 354.3 381.749 354.3C383.176 354.3 384.269 354.673 385.029 355.42C385.669 356.06 385.989 356.887 385.989 357.9V365H384.409L384.169 363.58C383.356 364.727 382.196 365.3 380.689 365.3C379.502 365.3 378.576 364.98 377.909 364.34C377.362 363.807 377.089 363.133 377.089 362.32C377.089 361.293 377.442 360.5 378.149 359.94C378.776 359.447 379.736 359.087 381.029 358.86L384.069 358.34V357.82C384.069 357.14 383.836 356.627 383.369 356.28C382.956 355.973 382.389 355.82 381.669 355.82C380.256 355.82 379.476 356.38 379.329 357.5ZM381.149 363.68C381.962 363.68 382.669 363.413 383.269 362.88C383.802 362.387 384.069 361.82 384.069 361.18V359.84L381.489 360.3C380.542 360.46 379.896 360.707 379.549 361.04C379.269 361.307 379.129 361.667 379.129 362.12C379.129 362.627 379.302 363.013 379.649 363.28C379.996 363.547 380.496 363.68 381.149 363.68ZM390.605 350.6V365H388.685V350.6H390.605ZM3.32 395H1.4V384.6H2.98L3.2 385.92C3.97333 384.84 5.02667 384.3 6.36 384.3C7.58667 384.3 8.52667 384.68 9.18 385.44C9.75333 386.12 10.04 387.047 10.04 388.22V395H8.12V388.24C8.12 386.707 7.38 385.94 5.9 385.94C5.12667 385.94 4.49333 386.207 4 386.74C3.54667 387.22 3.32 387.833 3.32 388.58V395ZM19.8277 392H21.9077C21.6143 393.053 21.0343 393.88 20.1677 394.48C19.3543 395.027 18.381 395.3 17.2477 395.3C15.6077 395.3 14.3277 394.78 13.4077 393.74C12.5677 392.767 12.1477 391.453 12.1477 389.8C12.1477 387.92 12.681 386.493 13.7477 385.52C14.6277 384.707 15.761 384.3 17.1477 384.3C18.7743 384.3 20.001 384.827 20.8277 385.88C21.6277 386.893 22.0277 388.34 22.0277 390.22H14.1077C14.1877 391.447 14.561 392.36 15.2277 392.96C15.7743 393.44 16.4677 393.68 17.3077 393.68C17.961 393.68 18.5277 393.5 19.0077 393.14C19.4077 392.833 19.681 392.453 19.8277 392ZM17.1877 385.84C16.3343 385.84 15.6477 386.107 15.1277 386.64C14.6343 387.133 14.321 387.82 14.1877 388.7H20.0677C20.001 387.7 19.6677 386.953 19.0677 386.46C18.5877 386.047 17.961 385.84 17.1877 385.84ZM31.1097 391.66H33.2097C33.0497 392.78 32.523 393.68 31.6297 394.36C30.8164 394.987 29.823 395.3 28.6497 395.3C27.1164 395.3 25.8964 394.773 24.9897 393.72C24.1497 392.747 23.7297 391.467 23.7297 389.88C23.7297 388.04 24.2364 386.613 25.2497 385.6C26.1164 384.733 27.243 384.3 28.6297 384.3C29.9097 384.3 30.963 384.64 31.7897 385.32C32.523 385.92 32.9697 386.707 33.1297 387.68H31.0097C30.8764 387.12 30.603 386.687 30.1897 386.38C29.7897 386.073 29.283 385.92 28.6697 385.92C27.723 385.92 26.9964 386.293 26.4897 387.04C26.0097 387.733 25.7697 388.7 25.7697 389.94C25.7697 391.233 26.0897 392.213 26.7297 392.88C27.2364 393.413 27.8897 393.68 28.6897 393.68C29.383 393.68 29.9497 393.48 30.3897 393.08C30.7764 392.733 31.0164 392.26 31.1097 391.66ZM42.4839 392H44.5639C44.2706 393.053 43.6906 393.88 42.8239 394.48C42.0106 395.027 41.0372 395.3 39.9039 395.3C38.2639 395.3 36.9839 394.78 36.0639 393.74C35.2239 392.767 34.8039 391.453 34.8039 389.8C34.8039 387.92 35.3372 386.493 36.4039 385.52C37.2839 384.707 38.4172 384.3 39.8039 384.3C41.4306 384.3 42.6572 384.827 43.4839 385.88C44.2839 386.893 44.6839 388.34 44.6839 390.22H36.7639C36.8439 391.447 37.2172 392.36 37.8839 392.96C38.4306 393.44 39.1239 393.68 39.9639 393.68C40.6172 393.68 41.1839 393.5 41.6639 393.14C42.0639 392.833 42.3372 392.453 42.4839 392ZM39.8439 385.84C38.9906 385.84 38.3039 386.107 37.7839 386.64C37.2906 387.133 36.9772 387.82 36.8439 388.7H42.7239C42.6572 387.7 42.3239 386.953 41.7239 386.46C41.2439 386.047 40.6172 385.84 39.8439 385.84ZM53.0659 392.18C53.0659 391.593 52.7593 391.153 52.1459 390.86C51.7859 390.7 51.0859 390.5 50.0459 390.26C48.7659 389.98 47.8526 389.573 47.3059 389.04C46.8526 388.587 46.6259 387.993 46.6259 387.26C46.6259 386.287 47.0193 385.54 47.8059 385.02C48.5126 384.54 49.4659 384.3 50.6659 384.3C51.9059 384.3 52.9126 384.607 53.6859 385.22C54.3526 385.753 54.7659 386.46 54.9259 387.34H52.9659C52.7393 386.327 51.9659 385.82 50.6459 385.82C49.9126 385.82 49.3659 385.953 49.0059 386.22C48.7126 386.447 48.5659 386.733 48.5659 387.08C48.5659 387.507 48.7259 387.827 49.0459 388.04C49.3793 388.253 50.0259 388.467 50.9859 388.68C52.4526 389 53.4726 389.393 54.0459 389.86C54.6859 390.38 55.0059 391.107 55.0059 392.04C55.0059 393.08 54.5793 393.9 53.7259 394.5C52.9526 395.033 51.9326 395.3 50.6659 395.3C49.2793 395.3 48.1793 394.967 47.3659 394.3C46.6593 393.713 46.2659 392.953 46.1859 392.02H48.1459C48.3593 393.193 49.2059 393.78 50.6859 393.78C51.4859 393.78 52.1059 393.607 52.5459 393.26C52.8926 392.98 53.0659 392.62 53.0659 392.18ZM63.1441 392.18C63.1441 391.593 62.8374 391.153 62.2241 390.86C61.8641 390.7 61.1641 390.5 60.1241 390.26C58.8441 389.98 57.9307 389.573 57.3841 389.04C56.9307 388.587 56.7041 387.993 56.7041 387.26C56.7041 386.287 57.0974 385.54 57.8841 385.02C58.5907 384.54 59.5441 384.3 60.7441 384.3C61.9841 384.3 62.9907 384.607 63.7641 385.22C64.4307 385.753 64.8441 386.46 65.0041 387.34H63.0441C62.8174 386.327 62.0441 385.82 60.7241 385.82C59.9907 385.82 59.4441 385.953 59.0841 386.22C58.7907 386.447 58.6441 386.733 58.6441 387.08C58.6441 387.507 58.8041 387.827 59.1241 388.04C59.4574 388.253 60.1041 388.467 61.0641 388.68C62.5307 389 63.5507 389.393 64.1241 389.86C64.7641 390.38 65.0841 391.107 65.0841 392.04C65.0841 393.08 64.6574 393.9 63.8041 394.5C63.0307 395.033 62.0107 395.3 60.7441 395.3C59.3574 395.3 58.2574 394.967 57.4441 394.3C56.7374 393.713 56.3441 392.953 56.2641 392.02H58.2241C58.4374 393.193 59.2841 393.78 60.7641 393.78C61.5641 393.78 62.1841 393.607 62.6241 393.26C62.9707 392.98 63.1441 392.62 63.1441 392.18ZM68.9189 387.5H66.8789C66.9856 386.46 67.4789 385.653 68.3589 385.08C69.1456 384.56 70.1389 384.3 71.3389 384.3C72.7656 384.3 73.8589 384.673 74.6189 385.42C75.2589 386.06 75.5789 386.887 75.5789 387.9V395H73.9989L73.7589 393.58C72.9456 394.727 71.7856 395.3 70.2789 395.3C69.0922 395.3 68.1656 394.98 67.4989 394.34C66.9522 393.807 66.6789 393.133 66.6789 392.32C66.6789 391.293 67.0322 390.5 67.7389 389.94C68.3656 389.447 69.3256 389.087 70.6189 388.86L73.6589 388.34V387.82C73.6589 387.14 73.4256 386.627 72.9589 386.28C72.5456 385.973 71.9789 385.82 71.2589 385.82C69.8456 385.82 69.0656 386.38 68.9189 387.5ZM70.7389 393.68C71.5522 393.68 72.2589 393.413 72.8589 392.88C73.3922 392.387 73.6589 391.82 73.6589 391.18V389.84L71.0789 390.3C70.1322 390.46 69.4856 390.707 69.1389 391.04C68.8589 391.307 68.7189 391.667 68.7189 392.12C68.7189 392.627 68.8922 393.013 69.2389 393.28C69.5856 393.547 70.0856 393.68 70.7389 393.68ZM80.195 395H78.275V384.6H79.855L80.115 386.14C80.7017 384.913 81.5817 384.3 82.755 384.3C83.1417 384.3 83.5217 384.347 83.895 384.44V386.36C83.4417 386.24 83.035 386.18 82.675 386.18C81.9017 386.18 81.295 386.493 80.855 387.12C80.415 387.747 80.195 388.633 80.195 389.78V395ZM94.0839 384.6L90.4639 395.14C89.9839 396.54 89.5239 397.493 89.0839 398C88.5639 398.6 87.8906 398.9 87.0639 398.9C86.7172 398.9 86.3039 398.84 85.8239 398.72V397.16C86.1972 397.253 86.5306 397.3 86.8239 397.3C87.2372 397.3 87.5572 397.153 87.7839 396.86C88.0106 396.58 88.2972 395.96 88.6439 395H88.0239L84.2039 384.6H86.2839L89.2239 393.44L92.1639 384.6H94.0839ZM108.753 392H110.833C110.54 393.053 109.96 393.88 109.093 394.48C108.28 395.027 107.307 395.3 106.173 395.3C104.533 395.3 103.253 394.78 102.333 393.74C101.493 392.767 101.073 391.453 101.073 389.8C101.073 387.92 101.607 386.493 102.673 385.52C103.553 384.707 104.687 384.3 106.073 384.3C107.7 384.3 108.927 384.827 109.753 385.88C110.553 386.893 110.953 388.34 110.953 390.22H103.033C103.113 391.447 103.487 392.36 104.153 392.96C104.7 393.44 105.393 393.68 106.233 393.68C106.887 393.68 107.453 393.5 107.933 393.14C108.333 392.833 108.607 392.453 108.753 392ZM106.113 385.84C105.26 385.84 104.573 386.107 104.053 386.64C103.56 387.133 103.247 387.82 103.113 388.7H108.993C108.927 387.7 108.593 386.953 107.993 386.46C107.513 386.047 106.887 385.84 106.113 385.84ZM115.175 380.6V395H113.255V380.6H115.175ZM125.062 392H127.142C126.849 393.053 126.269 393.88 125.402 394.48C124.589 395.027 123.615 395.3 122.482 395.3C120.842 395.3 119.562 394.78 118.642 393.74C117.802 392.767 117.382 391.453 117.382 389.8C117.382 387.92 117.915 386.493 118.982 385.52C119.862 384.707 120.995 384.3 122.382 384.3C124.009 384.3 125.235 384.827 126.062 385.88C126.862 386.893 127.262 388.34 127.262 390.22H119.342C119.422 391.447 119.795 392.36 120.462 392.96C121.009 393.44 121.702 393.68 122.542 393.68C123.195 393.68 123.762 393.5 124.242 393.14C124.642 392.833 124.915 392.453 125.062 392ZM122.422 385.84C121.569 385.84 120.882 386.107 120.362 386.64C119.869 387.133 119.555 387.82 119.422 388.7H125.302C125.235 387.7 124.902 386.953 124.302 386.46C123.822 386.047 123.195 385.84 122.422 385.84ZM131.484 395H129.564V384.6H131.144L131.344 385.82C132.051 384.807 133.071 384.3 134.404 384.3C135.857 384.3 136.877 384.847 137.464 385.94C138.157 384.847 139.284 384.3 140.844 384.3C142.004 384.3 142.897 384.653 143.524 385.36C144.084 386.013 144.364 386.907 144.364 388.04V395H142.444V388.18C142.444 386.687 141.771 385.94 140.424 385.94C139.624 385.94 138.984 386.253 138.504 386.88C138.117 387.387 137.924 387.98 137.924 388.66V395H136.004V388.18C136.004 386.687 135.331 385.94 133.984 385.94C133.237 385.94 132.617 386.233 132.124 386.82C131.697 387.313 131.484 387.907 131.484 388.6V395ZM154.144 392H156.224C155.931 393.053 155.351 393.88 154.484 394.48C153.671 395.027 152.697 395.3 151.564 395.3C149.924 395.3 148.644 394.78 147.724 393.74C146.884 392.767 146.464 391.453 146.464 389.8C146.464 387.92 146.997 386.493 148.064 385.52C148.944 384.707 150.077 384.3 151.464 384.3C153.091 384.3 154.317 384.827 155.144 385.88C155.944 386.893 156.344 388.34 156.344 390.22H148.424C148.504 391.447 148.877 392.36 149.544 392.96C150.091 393.44 150.784 393.68 151.624 393.68C152.277 393.68 152.844 393.5 153.324 393.14C153.724 392.833 153.997 392.453 154.144 392ZM151.504 385.84C150.651 385.84 149.964 386.107 149.444 386.64C148.951 387.133 148.637 387.82 148.504 388.7H154.384C154.317 387.7 153.984 386.953 153.384 386.46C152.904 386.047 152.277 385.84 151.504 385.84ZM160.566 395H158.646V384.6H160.226L160.446 385.92C161.219 384.84 162.273 384.3 163.606 384.3C164.833 384.3 165.773 384.68 166.426 385.44C166.999 386.12 167.286 387.047 167.286 388.22V395H165.366V388.24C165.366 386.707 164.626 385.94 163.146 385.94C162.373 385.94 161.739 386.207 161.246 386.74C160.793 387.22 160.566 387.833 160.566 388.58V395ZM174.634 393.46V395.1C174.14 395.233 173.667 395.3 173.214 395.3C172.254 395.3 171.534 395 171.054 394.4C170.64 393.907 170.434 393.247 170.434 392.42V386.24H168.894V384.6H170.434L170.554 382.1H172.354V384.6H174.594V386.24H172.354V392.46C172.354 393.233 172.72 393.62 173.454 393.62C173.8 393.62 174.194 393.567 174.634 393.46ZM182.519 392.18C182.519 391.593 182.212 391.153 181.599 390.86C181.239 390.7 180.539 390.5 179.499 390.26C178.219 389.98 177.306 389.573 176.759 389.04C176.306 388.587 176.079 387.993 176.079 387.26C176.079 386.287 176.472 385.54 177.259 385.02C177.966 384.54 178.919 384.3 180.119 384.3C181.359 384.3 182.366 384.607 183.139 385.22C183.806 385.753 184.219 386.46 184.379 387.34H182.419C182.192 386.327 181.419 385.82 180.099 385.82C179.366 385.82 178.819 385.953 178.459 386.22C178.166 386.447 178.019 386.733 178.019 387.08C178.019 387.507 178.179 387.827 178.499 388.04C178.832 388.253 179.479 388.467 180.439 388.68C181.906 389 182.926 389.393 183.499 389.86C184.139 390.38 184.459 391.107 184.459 392.04C184.459 393.08 184.032 393.9 183.179 394.5C182.406 395.033 181.386 395.3 180.119 395.3C178.732 395.3 177.632 394.967 176.819 394.3C176.112 393.713 175.719 392.953 175.639 392.02H177.599C177.812 393.193 178.659 393.78 180.139 393.78C180.939 393.78 181.559 393.607 181.999 393.26C182.346 392.98 182.519 392.62 182.519 392.18ZM189.219 395H186.899V392.68H189.219V395Z" fill="white" fill-opacity="0.7"/>
<defs>
<linearGradient id="paint0_linear_201_3864" x1="410" y1="31.8011" x2="410" y2="48.1999" gradientUnits="userSpaceOnUse">
<stop stop-color="#3CC29A"/>
<stop offset="1" stop-color="#93C437"/>
</linearGradient>
<linearGradient id="paint1_linear_201_3864" x1="225" y1="297" x2="225" y2="320" gradientUnits="userSpaceOnUse">
<stop stop-color="#3CC29A"/>
<stop offset="1" stop-color="#93C437"/>
</linearGradient>
</defs>
</svg>
