<svg width="650" height="64" viewBox="0 0 650 64" fill="none" xmlns="http://www.w3.org/2000/svg">
<mask id="path-1-inside-1_2029_8925" fill="white">
<path d="M0 0H650V64H0V0Z"/>
</mask>
<path d="M0 0H650V64H0V0Z" fill="#1A1A1A"/>
<path d="M650 63H0V65H650V63Z" fill="white" fill-opacity="0.3" mask="url(#path-1-inside-1_2029_8925)"/>
<path d="M39.7159 28.0909C39.6307 27.3712 39.285 26.8125 38.679 26.4148C38.0729 26.017 37.3295 25.8182 36.4489 25.8182C35.8049 25.8182 35.2415 25.9223 34.7585 26.1307C34.2803 26.339 33.9063 26.6255 33.6364 26.9901C33.3712 27.3546 33.2386 27.7689 33.2386 28.233C33.2386 28.6212 33.331 28.955 33.5156 29.2344C33.705 29.509 33.9465 29.7386 34.2401 29.9233C34.5336 30.1032 34.8414 30.2524 35.1634 30.3707C35.4853 30.4844 35.7812 30.5767 36.0511 30.6477L37.5284 31.0455C37.9072 31.1449 38.3286 31.2822 38.7926 31.4574C39.2614 31.6326 39.7088 31.8717 40.1349 32.1747C40.5658 32.473 40.9209 32.8565 41.2003 33.3253C41.4796 33.794 41.6193 34.3693 41.6193 35.0511C41.6193 35.8371 41.4134 36.5473 41.0014 37.1818C40.5942 37.8163 39.9976 38.3205 39.2116 38.6946C38.4304 39.0687 37.4811 39.2557 36.3636 39.2557C35.322 39.2557 34.42 39.0876 33.6577 38.7514C32.9001 38.4152 32.3035 37.9465 31.8679 37.3452C31.437 36.7438 31.1932 36.0455 31.1364 35.25H32.9545C33.0019 35.7992 33.1866 36.2538 33.5085 36.6136C33.8352 36.9687 34.2472 37.2339 34.7443 37.4091C35.2462 37.5795 35.786 37.6648 36.3636 37.6648C37.036 37.6648 37.6397 37.5559 38.1747 37.3381C38.7098 37.1155 39.1335 36.8078 39.446 36.4148C39.7585 36.017 39.9148 35.553 39.9148 35.0227C39.9148 34.5398 39.7798 34.1468 39.5099 33.8438C39.2401 33.5407 38.8849 33.2945 38.4446 33.1051C38.0043 32.9157 37.5284 32.75 37.017 32.608L35.2273 32.0966C34.0909 31.7699 33.1913 31.3035 32.5284 30.6974C31.8655 30.0914 31.5341 29.2983 31.5341 28.3182C31.5341 27.5038 31.7543 26.7936 32.1946 26.1875C32.6397 25.5767 33.2363 25.1032 33.9844 24.767C34.7372 24.4261 35.5777 24.2557 36.5057 24.2557C37.4432 24.2557 38.2765 24.4238 39.0057 24.7599C39.7348 25.0914 40.3125 25.5459 40.7386 26.1236C41.1695 26.7012 41.3968 27.357 41.4205 28.0909H39.7159ZM44.288 43.0909V28.0909H45.9073V29.8239H46.1062C46.2293 29.6345 46.3997 29.393 46.6175 29.0994C46.8401 28.8011 47.1573 28.536 47.5692 28.304C47.9859 28.0672 48.5494 27.9489 49.2596 27.9489C50.1781 27.9489 50.9878 28.1785 51.6886 28.6378C52.3893 29.0971 52.9362 29.7481 53.3292 30.5909C53.7222 31.4337 53.9187 32.428 53.9187 33.5739C53.9187 34.7292 53.7222 35.7306 53.3292 36.5781C52.9362 37.4209 52.3917 38.0743 51.6957 38.5384C50.9996 38.9976 50.1971 39.2273 49.288 39.2273C48.5872 39.2273 48.0262 39.1113 47.6048 38.8793C47.1834 38.6425 46.859 38.375 46.6317 38.0767C46.4045 37.7737 46.2293 37.5227 46.1062 37.3239H45.9641V43.0909H44.288ZM45.9357 33.5455C45.9357 34.3693 46.0565 35.0961 46.2979 35.7259C46.5394 36.3509 46.8922 36.8409 47.3562 37.196C47.8202 37.5464 48.3884 37.7216 49.0607 37.7216C49.7615 37.7216 50.3462 37.5369 50.815 37.1676C51.2885 36.7936 51.6436 36.2917 51.8803 35.6619C52.1218 35.0275 52.2425 34.322 52.2425 33.5455C52.2425 32.7784 52.1242 32.0871 51.8874 31.4716C51.6554 30.8513 51.3027 30.3613 50.8292 30.0014C50.3604 29.6368 49.771 29.4545 49.0607 29.4545C48.3789 29.4545 47.806 29.6274 47.342 29.973C46.878 30.3139 46.5276 30.7921 46.2908 31.4077C46.0541 32.0185 45.9357 32.7311 45.9357 33.5455ZM59.6857 39.2557C58.9944 39.2557 58.3671 39.1255 57.8036 38.8651C57.2402 38.5999 56.7927 38.2188 56.4613 37.7216C56.1299 37.2197 55.9641 36.6136 55.9641 35.9034C55.9641 35.2784 56.0872 34.7718 56.3335 34.3835C56.5797 33.9905 56.9087 33.6828 57.3207 33.4602C57.7326 33.2377 58.1871 33.072 58.6843 32.9631C59.1862 32.8494 59.6905 32.7595 60.1971 32.6932C60.86 32.608 61.3974 32.544 61.8093 32.5014C62.226 32.4541 62.529 32.3759 62.7184 32.267C62.9125 32.1581 63.0096 31.9687 63.0096 31.6989V31.642C63.0096 30.9413 62.8178 30.3968 62.4343 30.0085C62.0555 29.6203 61.4802 29.4261 60.7085 29.4261C59.9083 29.4261 59.2809 29.6013 58.8263 29.9517C58.3718 30.3021 58.0522 30.6761 57.8675 31.0739L56.2766 30.5057C56.5607 29.8428 56.9395 29.3267 57.413 28.9574C57.8912 28.5833 58.4121 28.3229 58.9755 28.1761C59.5437 28.0246 60.1024 27.9489 60.6516 27.9489C61.002 27.9489 61.4045 27.9915 61.859 28.0767C62.3183 28.1572 62.761 28.3253 63.1871 28.581C63.618 28.8366 63.9755 29.2225 64.2596 29.7386C64.5437 30.2547 64.6857 30.946 64.6857 31.8125V39H63.0096V37.5227H62.9244C62.8107 37.7595 62.6213 38.0128 62.3562 38.2827C62.091 38.5526 61.7383 38.7822 61.2979 38.9716C60.8576 39.161 60.3202 39.2557 59.6857 39.2557ZM59.9414 37.75C60.6043 37.75 61.163 37.6198 61.6175 37.3594C62.0768 37.099 62.4225 36.7628 62.6545 36.3509C62.8912 35.9389 63.0096 35.5057 63.0096 35.0511V33.517C62.9386 33.6023 62.7823 33.6804 62.5408 33.7514C62.3041 33.8177 62.0295 33.8769 61.717 33.929C61.4092 33.9763 61.1085 34.0189 60.815 34.0568C60.5262 34.09 60.2918 34.1184 60.1119 34.142C59.6763 34.1989 59.2691 34.2912 58.8903 34.419C58.5162 34.5421 58.2132 34.7292 57.9812 34.9801C57.7539 35.2263 57.6403 35.5625 57.6403 35.9886C57.6403 36.571 57.8557 37.0114 58.2866 37.3097C58.7222 37.6032 59.2738 37.75 59.9414 37.75ZM72.1768 39.2273C71.1541 39.2273 70.2734 38.9858 69.5348 38.5028C68.7962 38.0199 68.228 37.3546 67.8303 36.5071C67.4325 35.6596 67.2337 34.6913 67.2337 33.6023C67.2337 32.4943 67.4373 31.5166 67.8445 30.669C68.2564 29.8168 68.8293 29.1515 69.5632 28.6733C70.3018 28.1903 71.1636 27.9489 72.1484 27.9489C72.9155 27.9489 73.6068 28.0909 74.2223 28.375C74.8378 28.6591 75.3421 29.0568 75.7351 29.5682C76.1281 30.0795 76.3719 30.6761 76.4666 31.358H74.7905C74.6626 30.8608 74.3786 30.4205 73.9382 30.0369C73.5026 29.6487 72.9155 29.4545 72.1768 29.4545C71.5234 29.4545 70.9505 29.625 70.4581 29.9659C69.9704 30.3021 69.5893 30.7779 69.3146 31.3935C69.0447 32.0043 68.9098 32.7216 68.9098 33.5455C68.9098 34.3883 69.0424 35.1222 69.3075 35.7472C69.5774 36.3722 69.9562 36.8575 70.4439 37.2031C70.9363 37.5488 71.514 37.7216 72.1768 37.7216C72.6125 37.7216 73.0078 37.6458 73.3629 37.4943C73.718 37.3428 74.0187 37.125 74.2649 36.8409C74.5111 36.5568 74.6863 36.2159 74.7905 35.8182H76.4666C76.3719 36.4621 76.1375 37.0421 75.7635 37.5582C75.3942 38.0696 74.9041 38.4768 74.2933 38.7798C73.6873 39.0781 72.9818 39.2273 72.1768 39.2273ZM83.4908 39.2273C82.4396 39.2273 81.5329 38.9953 80.7706 38.5312C80.013 38.0625 79.4283 37.4091 79.0163 36.571C78.6091 35.7282 78.4055 34.7481 78.4055 33.6307C78.4055 32.5133 78.6091 31.5284 79.0163 30.6761C79.4283 29.8191 80.0012 29.1515 80.7351 28.6733C81.4737 28.1903 82.3355 27.9489 83.3203 27.9489C83.8885 27.9489 84.4496 28.0436 85.0036 28.233C85.5575 28.4223 86.0618 28.7301 86.5163 29.1562C86.9709 29.5777 87.3331 30.1364 87.603 30.8324C87.8729 31.5284 88.0078 32.3854 88.0078 33.4034V34.1136H79.5987V32.6648H86.3033C86.3033 32.0492 86.1802 31.5 85.9339 31.017C85.6925 30.5341 85.3468 30.1529 84.897 29.8736C84.4519 29.5942 83.9264 29.4545 83.3203 29.4545C82.6527 29.4545 82.075 29.6203 81.5874 29.9517C81.1044 30.2784 80.7327 30.7045 80.4723 31.2301C80.2119 31.7557 80.0817 32.3191 80.0817 32.9205V33.8864C80.0817 34.7102 80.2237 35.4086 80.5078 35.9815C80.7966 36.5497 81.1967 36.983 81.7081 37.2812C82.2195 37.5748 82.8137 37.7216 83.4908 37.7216C83.9311 37.7216 84.3288 37.66 84.6839 37.5369C85.0438 37.4091 85.3539 37.2197 85.6143 36.9688C85.8748 36.7131 86.076 36.3958 86.218 36.017L87.8374 36.4716C87.6669 37.0208 87.3804 37.5038 86.978 37.9205C86.5755 38.3324 86.0784 38.6544 85.4865 38.8864C84.8946 39.1136 84.2294 39.2273 83.4908 39.2273ZM101.325 23.7727L96.6371 41.1875H95.103L99.7905 23.7727H101.325ZM109.164 39V24.4545H117.942V26.017H110.925V30.9318H117.488V32.4943H110.925V37.4375H118.056V39H109.164ZM122.566 32.4375V39H120.89V28.0909H122.509V29.7955H122.651C122.907 29.2415 123.295 28.7964 123.816 28.4602C124.337 28.1193 125.009 27.9489 125.833 27.9489C126.571 27.9489 127.218 28.1004 127.772 28.4034C128.326 28.7017 128.757 29.1562 129.064 29.767C129.372 30.3731 129.526 31.1402 129.526 32.0682V39H127.85V32.1818C127.85 31.3248 127.627 30.6572 127.182 30.179C126.737 29.696 126.126 29.4545 125.35 29.4545C124.815 29.4545 124.337 29.5705 123.915 29.8026C123.498 30.0346 123.169 30.3731 122.928 30.8182C122.686 31.2633 122.566 31.803 122.566 32.4375ZM137.333 28.0909V29.5114H131.68V28.0909H137.333ZM133.327 25.4773H135.004V35.875C135.004 36.3485 135.072 36.7036 135.21 36.9403C135.352 37.1723 135.531 37.3286 135.749 37.4091C135.972 37.4848 136.206 37.5227 136.452 37.5227C136.637 37.5227 136.789 37.5133 136.907 37.4943C137.025 37.4706 137.12 37.4517 137.191 37.4375L137.532 38.9432C137.418 38.9858 137.26 39.0284 137.056 39.071C136.853 39.1184 136.594 39.142 136.282 39.142C135.808 39.142 135.344 39.0402 134.89 38.8366C134.44 38.633 134.066 38.3229 133.768 37.9062C133.474 37.4896 133.327 36.964 133.327 36.3295V25.4773ZM144.311 39.2273C143.26 39.2273 142.353 38.9953 141.591 38.5312C140.833 38.0625 140.249 37.4091 139.837 36.571C139.429 35.7282 139.226 34.7481 139.226 33.6307C139.226 32.5133 139.429 31.5284 139.837 30.6761C140.249 29.8191 140.821 29.1515 141.555 28.6733C142.294 28.1903 143.156 27.9489 144.141 27.9489C144.709 27.9489 145.27 28.0436 145.824 28.233C146.378 28.4223 146.882 28.7301 147.337 29.1562C147.791 29.5777 148.153 30.1364 148.423 30.8324C148.693 31.5284 148.828 32.3854 148.828 33.4034V34.1136H140.419V32.6648H147.124C147.124 32.0492 147 31.5 146.754 31.017C146.513 30.5341 146.167 30.1529 145.717 29.8736C145.272 29.5942 144.747 29.4545 144.141 29.4545C143.473 29.4545 142.895 29.6203 142.408 29.9517C141.925 30.2784 141.553 30.7045 141.293 31.2301C141.032 31.7557 140.902 32.3191 140.902 32.9205V33.8864C140.902 34.7102 141.044 35.4086 141.328 35.9815C141.617 36.5497 142.017 36.983 142.528 37.2812C143.04 37.5748 143.634 37.7216 144.311 37.7216C144.751 37.7216 145.149 37.66 145.504 37.5369C145.864 37.4091 146.174 37.2197 146.435 36.9688C146.695 36.7131 146.896 36.3958 147.038 36.017L148.658 36.4716C148.487 37.0208 148.201 37.5038 147.798 37.9205C147.396 38.3324 146.899 38.6544 146.307 38.8864C145.715 39.1136 145.05 39.2273 144.311 39.2273ZM151.378 39V28.0909H152.997V29.7386H153.111C153.31 29.1989 153.67 28.7609 154.19 28.4247C154.711 28.0885 155.298 27.9205 155.952 27.9205C156.075 27.9205 156.229 27.9228 156.413 27.9276C156.598 27.9323 156.738 27.9394 156.832 27.9489V29.6534C156.776 29.6392 156.645 29.6179 156.442 29.5895C156.243 29.5563 156.032 29.5398 155.81 29.5398C155.279 29.5398 154.806 29.651 154.389 29.8736C153.977 30.0914 153.651 30.3944 153.409 30.7827C153.172 31.1662 153.054 31.6042 153.054 32.0966V39H151.378ZM166.916 39L163.592 28.0909H165.353L167.711 36.4432H167.825L170.154 28.0909H171.944L174.245 36.4148H174.359L176.717 28.0909H178.478L175.154 39H173.507L171.12 30.6193H170.95L168.564 39H166.916ZM180.694 39V28.0909H182.37V39H180.694ZM181.547 26.2727C181.22 26.2727 180.938 26.1615 180.701 25.9389C180.469 25.7164 180.353 25.4489 180.353 25.1364C180.353 24.8239 180.469 24.5563 180.701 24.3338C180.938 24.1113 181.22 24 181.547 24C181.873 24 182.153 24.1113 182.385 24.3338C182.621 24.5563 182.74 24.8239 182.74 25.1364C182.74 25.4489 182.621 25.7164 182.385 25.9389C182.153 26.1615 181.873 26.2727 181.547 26.2727ZM187.116 24.4545V39H185.44V24.4545H187.116ZM191.863 24.4545V39H190.186V24.4545H191.863ZM200.558 39V28.0909H202.234V39H200.558ZM201.41 26.2727C201.083 26.2727 200.801 26.1615 200.565 25.9389C200.333 25.7164 200.217 25.4489 200.217 25.1364C200.217 24.8239 200.333 24.5563 200.565 24.3338C200.801 24.1113 201.083 24 201.41 24C201.737 24 202.016 24.1113 202.248 24.3338C202.485 24.5563 202.603 24.8239 202.603 25.1364C202.603 25.4489 202.485 25.7164 202.248 25.9389C202.016 26.1615 201.737 26.2727 201.41 26.2727ZM206.98 32.4375V39H205.304V28.0909H206.923V29.7955H207.065C207.321 29.2415 207.709 28.7964 208.23 28.4602C208.751 28.1193 209.423 27.9489 210.247 27.9489C210.985 27.9489 211.632 28.1004 212.186 28.4034C212.74 28.7017 213.171 29.1562 213.478 29.767C213.786 30.3731 213.94 31.1402 213.94 32.0682V39H212.264V32.1818C212.264 31.3248 212.041 30.6572 211.596 30.179C211.151 29.696 210.54 29.4545 209.764 29.4545C209.229 29.4545 208.751 29.5705 208.329 29.8026C207.913 30.0346 207.583 30.3731 207.342 30.8182C207.1 31.2633 206.98 31.803 206.98 32.4375ZM217.003 39V28.0909H218.679V39H217.003ZM217.855 26.2727C217.528 26.2727 217.247 26.1615 217.01 25.9389C216.778 25.7164 216.662 25.4489 216.662 25.1364C216.662 24.8239 216.778 24.5563 217.01 24.3338C217.247 24.1113 217.528 24 217.855 24C218.182 24 218.461 24.1113 218.693 24.3338C218.93 24.5563 219.048 24.8239 219.048 25.1364C219.048 25.4489 218.93 25.7164 218.693 25.9389C218.461 26.1615 218.182 26.2727 217.855 26.2727ZM226.493 28.0909V29.5114H220.84V28.0909H226.493ZM222.488 25.4773H224.164V35.875C224.164 36.3485 224.232 36.7036 224.37 36.9403C224.512 37.1723 224.692 37.3286 224.909 37.4091C225.132 37.4848 225.366 37.5227 225.613 37.5227C225.797 37.5227 225.949 37.5133 226.067 37.4943C226.185 37.4706 226.28 37.4517 226.351 37.4375L226.692 38.9432C226.578 38.9858 226.42 39.0284 226.216 39.071C226.013 39.1184 225.755 39.142 225.442 39.142C224.969 39.142 224.505 39.0402 224.05 38.8366C223.6 38.633 223.226 38.3229 222.928 37.9062C222.634 37.4896 222.488 36.964 222.488 36.3295V25.4773ZM229.015 39V28.0909H230.691V39H229.015ZM229.867 26.2727C229.54 26.2727 229.258 26.1615 229.022 25.9389C228.79 25.7164 228.674 25.4489 228.674 25.1364C228.674 24.8239 228.79 24.5563 229.022 24.3338C229.258 24.1113 229.54 24 229.867 24C230.194 24 230.473 24.1113 230.705 24.3338C230.942 24.5563 231.06 24.8239 231.06 25.1364C231.06 25.4489 230.942 25.7164 230.705 25.9389C230.473 26.1615 230.194 26.2727 229.867 26.2727ZM236.971 39.2557C236.28 39.2557 235.652 39.1255 235.089 38.8651C234.525 38.5999 234.078 38.2188 233.746 37.7216C233.415 37.2197 233.249 36.6136 233.249 35.9034C233.249 35.2784 233.372 34.7718 233.619 34.3835C233.865 33.9905 234.194 33.6828 234.606 33.4602C235.018 33.2377 235.472 33.072 235.969 32.9631C236.471 32.8494 236.976 32.7595 237.482 32.6932C238.145 32.608 238.683 32.544 239.094 32.5014C239.511 32.4541 239.814 32.3759 240.004 32.267C240.198 32.1581 240.295 31.9687 240.295 31.6989V31.642C240.295 30.9413 240.103 30.3968 239.719 30.0085C239.341 29.6203 238.765 29.4261 237.994 29.4261C237.193 29.4261 236.566 29.6013 236.112 29.9517C235.657 30.3021 235.337 30.6761 235.153 31.0739L233.562 30.5057C233.846 29.8428 234.225 29.3267 234.698 28.9574C235.176 28.5833 235.697 28.3229 236.261 28.1761C236.829 28.0246 237.388 27.9489 237.937 27.9489C238.287 27.9489 238.69 27.9915 239.144 28.0767C239.603 28.1572 240.046 28.3253 240.472 28.581C240.903 28.8366 241.261 29.2225 241.545 29.7386C241.829 30.2547 241.971 30.946 241.971 31.8125V39H240.295V37.5227H240.21C240.096 37.7595 239.906 38.0128 239.641 38.2827C239.376 38.5526 239.023 38.7822 238.583 38.9716C238.143 39.161 237.605 39.2557 236.971 39.2557ZM237.227 37.75C237.889 37.75 238.448 37.6198 238.903 37.3594C239.362 37.099 239.708 36.7628 239.94 36.3509C240.176 35.9389 240.295 35.5057 240.295 35.0511V33.517C240.224 33.6023 240.067 33.6804 239.826 33.7514C239.589 33.8177 239.315 33.8769 239.002 33.929C238.694 33.9763 238.394 34.0189 238.1 34.0568C237.811 34.09 237.577 34.1184 237.397 34.142C236.961 34.1989 236.554 34.2912 236.175 34.419C235.801 34.5421 235.498 34.7292 235.266 34.9801C235.039 35.2263 234.925 35.5625 234.925 35.9886C234.925 36.571 235.141 37.0114 235.572 37.3097C236.007 37.6032 236.559 37.75 237.227 37.75ZM249.775 28.0909V29.5114H244.121V28.0909H249.775ZM245.769 25.4773H247.445V35.875C247.445 36.3485 247.514 36.7036 247.651 36.9403C247.793 37.1723 247.973 37.3286 248.191 37.4091C248.413 37.4848 248.648 37.5227 248.894 37.5227C249.078 37.5227 249.23 37.5133 249.348 37.4943C249.467 37.4706 249.561 37.4517 249.632 37.4375L249.973 38.9432C249.86 38.9858 249.701 39.0284 249.498 39.071C249.294 39.1184 249.036 39.142 248.723 39.142C248.25 39.142 247.786 39.0402 247.331 38.8366C246.882 38.633 246.507 38.3229 246.209 37.9062C245.916 37.4896 245.769 36.964 245.769 36.3295V25.4773ZM256.752 39.2273C255.701 39.2273 254.795 38.9953 254.032 38.5312C253.275 38.0625 252.69 37.4091 252.278 36.571C251.871 35.7282 251.667 34.7481 251.667 33.6307C251.667 32.5133 251.871 31.5284 252.278 30.6761C252.69 29.8191 253.263 29.1515 253.997 28.6733C254.735 28.1903 255.597 27.9489 256.582 27.9489C257.15 27.9489 257.711 28.0436 258.265 28.233C258.819 28.4223 259.324 28.7301 259.778 29.1562C260.233 29.5777 260.595 30.1364 260.865 30.8324C261.135 31.5284 261.27 32.3854 261.27 33.4034V34.1136H252.86V32.6648H259.565C259.565 32.0492 259.442 31.5 259.196 31.017C258.954 30.5341 258.609 30.1529 258.159 29.8736C257.714 29.5942 257.188 29.4545 256.582 29.4545C255.914 29.4545 255.337 29.6203 254.849 29.9517C254.366 30.2784 253.994 30.7045 253.734 31.2301C253.474 31.7557 253.343 32.3191 253.343 32.9205V33.8864C253.343 34.7102 253.485 35.4086 253.77 35.9815C254.058 36.5497 254.458 36.983 254.97 37.2812C255.481 37.5748 256.075 37.7216 256.752 37.7216C257.193 37.7216 257.591 37.66 257.946 37.5369C258.306 37.4091 258.616 37.2197 258.876 36.9688C259.136 36.7131 259.338 36.3958 259.48 36.017L261.099 36.4716C260.929 37.0208 260.642 37.5038 260.24 37.9205C259.837 38.3324 259.34 38.6544 258.748 38.8864C258.156 39.1136 257.491 39.2273 256.752 39.2273ZM274.189 28.0909V29.5114H268.535V28.0909H274.189ZM270.183 25.4773H271.859V35.875C271.859 36.3485 271.928 36.7036 272.065 36.9403C272.207 37.1723 272.387 37.3286 272.605 37.4091C272.827 37.4848 273.062 37.5227 273.308 37.5227C273.493 37.5227 273.644 37.5133 273.762 37.4943C273.881 37.4706 273.975 37.4517 274.047 37.4375L274.387 38.9432C274.274 38.9858 274.115 39.0284 273.912 39.071C273.708 39.1184 273.45 39.142 273.137 39.142C272.664 39.142 272.2 39.0402 271.745 38.8366C271.296 38.633 270.922 38.3229 270.623 37.9062C270.33 37.4896 270.183 36.964 270.183 36.3295V25.4773ZM278.62 32.4375V39H276.944V24.4545H278.62V29.7955H278.762C279.018 29.232 279.402 28.7846 279.913 28.4531C280.429 28.117 281.116 27.9489 281.973 27.9489C282.716 27.9489 283.367 28.098 283.926 28.3963C284.484 28.6899 284.918 29.142 285.225 29.7528C285.538 30.3589 285.694 31.1307 285.694 32.0682V39H284.018V32.1818C284.018 31.3153 283.793 30.6454 283.343 30.1719C282.898 29.6937 282.28 29.4545 281.49 29.4545C280.94 29.4545 280.448 29.5705 280.012 29.8026C279.582 30.0346 279.241 30.3731 278.99 30.8182C278.743 31.2633 278.62 31.803 278.62 32.4375ZM293.335 39.2273C292.283 39.2273 291.377 38.9953 290.614 38.5312C289.857 38.0625 289.272 37.4091 288.86 36.571C288.453 35.7282 288.249 34.7481 288.249 33.6307C288.249 32.5133 288.453 31.5284 288.86 30.6761C289.272 29.8191 289.845 29.1515 290.579 28.6733C291.317 28.1903 292.179 27.9489 293.164 27.9489C293.732 27.9489 294.293 28.0436 294.847 28.233C295.401 28.4223 295.906 28.7301 296.36 29.1562C296.815 29.5777 297.177 30.1364 297.447 30.8324C297.717 31.5284 297.852 32.3854 297.852 33.4034V34.1136H289.442V32.6648H296.147C296.147 32.0492 296.024 31.5 295.778 31.017C295.536 30.5341 295.191 30.1529 294.741 29.8736C294.296 29.5942 293.77 29.4545 293.164 29.4545C292.496 29.4545 291.919 29.6203 291.431 29.9517C290.948 30.2784 290.576 30.7045 290.316 31.2301C290.056 31.7557 289.925 32.3191 289.925 32.9205V33.8864C289.925 34.7102 290.067 35.4086 290.352 35.9815C290.64 36.5497 291.04 36.983 291.552 37.2812C292.063 37.5748 292.657 37.7216 293.335 37.7216C293.775 37.7216 294.173 37.66 294.528 37.5369C294.888 37.4091 295.198 37.2197 295.458 36.9688C295.719 36.7131 295.92 36.3958 296.062 36.017L297.681 36.4716C297.511 37.0208 297.224 37.5038 296.822 37.9205C296.419 38.3324 295.922 38.6544 295.33 38.8864C294.738 39.1136 294.073 39.2273 293.335 39.2273ZM309.237 39.2557C308.545 39.2557 307.918 39.1255 307.354 38.8651C306.791 38.5999 306.344 38.2188 306.012 37.7216C305.681 37.2197 305.515 36.6136 305.515 35.9034C305.515 35.2784 305.638 34.7718 305.884 34.3835C306.13 33.9905 306.46 33.6828 306.871 33.4602C307.283 33.2377 307.738 33.072 308.235 32.9631C308.737 32.8494 309.241 32.7595 309.748 32.6932C310.411 32.608 310.948 32.544 311.36 32.5014C311.777 32.4541 312.08 32.3759 312.269 32.267C312.463 32.1581 312.56 31.9687 312.56 31.6989V31.642C312.56 30.9413 312.369 30.3968 311.985 30.0085C311.606 29.6203 311.031 29.4261 310.259 29.4261C309.459 29.4261 308.832 29.6013 308.377 29.9517C307.923 30.3021 307.603 30.6761 307.418 31.0739L305.827 30.5057C306.112 29.8428 306.49 29.3267 306.964 28.9574C307.442 28.5833 307.963 28.3229 308.526 28.1761C309.094 28.0246 309.653 27.9489 310.202 27.9489C310.553 27.9489 310.955 27.9915 311.41 28.0767C311.869 28.1572 312.312 28.3253 312.738 28.581C313.169 28.8366 313.526 29.2225 313.81 29.7386C314.094 30.2547 314.237 30.946 314.237 31.8125V39H312.56V37.5227H312.475C312.362 37.7595 312.172 38.0128 311.907 38.2827C311.642 38.5526 311.289 38.7822 310.849 38.9716C310.408 39.161 309.871 39.2557 309.237 39.2557ZM309.492 37.75C310.155 37.75 310.714 37.6198 311.168 37.3594C311.628 37.099 311.973 36.7628 312.205 36.3509C312.442 35.9389 312.56 35.5057 312.56 35.0511V33.517C312.489 33.6023 312.333 33.6804 312.092 33.7514C311.855 33.8177 311.58 33.8769 311.268 33.929C310.96 33.9763 310.659 34.0189 310.366 34.0568C310.077 34.09 309.843 34.1184 309.663 34.142C309.227 34.1989 308.82 34.2912 308.441 34.419C308.067 34.5421 307.764 34.7292 307.532 34.9801C307.305 35.2263 307.191 35.5625 307.191 35.9886C307.191 36.571 307.406 37.0114 307.837 37.3097C308.273 37.6032 308.825 37.75 309.492 37.75ZM321.728 39.2273C320.705 39.2273 319.824 38.9858 319.086 38.5028C318.347 38.0199 317.779 37.3546 317.381 36.5071C316.983 35.6596 316.784 34.6913 316.784 33.6023C316.784 32.4943 316.988 31.5166 317.395 30.669C317.807 29.8168 318.38 29.1515 319.114 28.6733C319.853 28.1903 320.714 27.9489 321.699 27.9489C322.466 27.9489 323.158 28.0909 323.773 28.375C324.389 28.6591 324.893 29.0568 325.286 29.5682C325.679 30.0795 325.923 30.6761 326.017 31.358H324.341C324.213 30.8608 323.929 30.4205 323.489 30.0369C323.053 29.6487 322.466 29.4545 321.728 29.4545C321.074 29.4545 320.501 29.625 320.009 29.9659C319.521 30.3021 319.14 30.7779 318.865 31.3935C318.596 32.0043 318.461 32.7216 318.461 33.5455C318.461 34.3883 318.593 35.1222 318.858 35.7472C319.128 36.3722 319.507 36.8575 319.995 37.2031C320.487 37.5488 321.065 37.7216 321.728 37.7216C322.163 37.7216 322.559 37.6458 322.914 37.4943C323.269 37.3428 323.569 37.125 323.816 36.8409C324.062 36.5568 324.237 36.2159 324.341 35.8182H326.017C325.923 36.4621 325.688 37.0421 325.314 37.5582C324.945 38.0696 324.455 38.4768 323.844 38.7798C323.238 39.0781 322.533 39.2273 321.728 39.2273ZM333.212 28.0909V29.5114H327.559V28.0909H333.212ZM329.206 25.4773H330.882V35.875C330.882 36.3485 330.951 36.7036 331.088 36.9403C331.23 37.1723 331.41 37.3286 331.628 37.4091C331.851 37.4848 332.085 37.5227 332.331 37.5227C332.516 37.5227 332.667 37.5133 332.786 37.4943C332.904 37.4706 332.999 37.4517 333.07 37.4375L333.411 38.9432C333.297 38.9858 333.139 39.0284 332.935 39.071C332.731 39.1184 332.473 39.142 332.161 39.142C331.687 39.142 331.223 39.0402 330.769 38.8366C330.319 38.633 329.945 38.3229 329.647 37.9062C329.353 37.4896 329.206 36.964 329.206 36.3295V25.4773ZM335.733 39V28.0909H337.409V39H335.733ZM336.586 26.2727C336.259 26.2727 335.977 26.1615 335.74 25.9389C335.508 25.7164 335.392 25.4489 335.392 25.1364C335.392 24.8239 335.508 24.5563 335.74 24.3338C335.977 24.1113 336.259 24 336.586 24C336.912 24 337.192 24.1113 337.424 24.3338C337.66 24.5563 337.779 24.8239 337.779 25.1364C337.779 25.4489 337.66 25.7164 337.424 25.9389C337.192 26.1615 336.912 26.2727 336.586 26.2727ZM344.911 39.2273C343.926 39.2273 343.062 38.9929 342.319 38.5241C341.58 38.0554 341.003 37.3996 340.586 36.5568C340.174 35.714 339.968 34.7292 339.968 33.6023C339.968 32.4659 340.174 31.474 340.586 30.6264C341.003 29.7789 341.58 29.1207 342.319 28.652C343.062 28.1832 343.926 27.9489 344.911 27.9489C345.896 27.9489 346.758 28.1832 347.496 28.652C348.24 29.1207 348.817 29.7789 349.229 30.6264C349.646 31.474 349.854 32.4659 349.854 33.6023C349.854 34.7292 349.646 35.714 349.229 36.5568C348.817 37.3996 348.24 38.0554 347.496 38.5241C346.758 38.9929 345.896 39.2273 344.911 39.2273ZM344.911 37.7216C345.659 37.7216 346.275 37.5298 346.758 37.1463C347.241 36.7628 347.598 36.2585 347.83 35.6335C348.062 35.0085 348.178 34.3314 348.178 33.6023C348.178 32.8731 348.062 32.1937 347.83 31.5639C347.598 30.9342 347.241 30.4252 346.758 30.0369C346.275 29.6487 345.659 29.4545 344.911 29.4545C344.163 29.4545 343.548 29.6487 343.065 30.0369C342.582 30.4252 342.224 30.9342 341.992 31.5639C341.76 32.1937 341.644 32.8731 341.644 33.6023C341.644 34.3314 341.76 35.0085 341.992 35.6335C342.224 36.2585 342.582 36.7628 343.065 37.1463C343.548 37.5298 344.163 37.7216 344.911 37.7216ZM354.089 32.4375V39H352.413V28.0909H354.032V29.7955H354.174C354.43 29.2415 354.818 28.7964 355.339 28.4602C355.86 28.1193 356.532 27.9489 357.356 27.9489C358.095 27.9489 358.741 28.1004 359.295 28.4034C359.849 28.7017 360.28 29.1562 360.588 29.767C360.895 30.3731 361.049 31.1402 361.049 32.0682V39H359.373V32.1818C359.373 31.3248 359.151 30.6572 358.706 30.179C358.261 29.696 357.65 29.4545 356.873 29.4545C356.338 29.4545 355.86 29.5705 355.439 29.8026C355.022 30.0346 354.693 30.3731 354.451 30.8182C354.21 31.2633 354.089 31.803 354.089 32.4375ZM374.169 39.2273C373.184 39.2273 372.32 38.9929 371.577 38.5241C370.838 38.0554 370.26 37.3996 369.844 36.5568C369.432 35.714 369.226 34.7292 369.226 33.6023C369.226 32.4659 369.432 31.474 369.844 30.6264C370.26 29.7789 370.838 29.1207 371.577 28.652C372.32 28.1832 373.184 27.9489 374.169 27.9489C375.154 27.9489 376.016 28.1832 376.754 28.652C377.498 29.1207 378.075 29.7789 378.487 30.6264C378.904 31.474 379.112 32.4659 379.112 33.6023C379.112 34.7292 378.904 35.714 378.487 36.5568C378.075 37.3996 377.498 38.0554 376.754 38.5241C376.016 38.9929 375.154 39.2273 374.169 39.2273ZM374.169 37.7216C374.917 37.7216 375.533 37.5298 376.016 37.1463C376.499 36.7628 376.856 36.2585 377.088 35.6335C377.32 35.0085 377.436 34.3314 377.436 33.6023C377.436 32.8731 377.32 32.1937 377.088 31.5639C376.856 30.9342 376.499 30.4252 376.016 30.0369C375.533 29.6487 374.917 29.4545 374.169 29.4545C373.421 29.4545 372.805 29.6487 372.322 30.0369C371.839 30.4252 371.482 30.9342 371.25 31.5639C371.018 32.1937 370.902 32.8731 370.902 33.6023C370.902 34.3314 371.018 35.0085 371.25 35.6335C371.482 36.2585 371.839 36.7628 372.322 37.1463C372.805 37.5298 373.421 37.7216 374.169 37.7216ZM386.529 28.0909V29.5114H380.648V28.0909H386.529ZM382.409 39V26.5852C382.409 25.9602 382.556 25.4394 382.85 25.0227C383.143 24.6061 383.525 24.2936 383.993 24.0852C384.462 23.8769 384.957 23.7727 385.478 23.7727C385.89 23.7727 386.226 23.8059 386.486 23.8722C386.747 23.9384 386.941 24 387.069 24.0568L386.586 25.5057C386.5 25.4773 386.382 25.4418 386.23 25.3991C386.084 25.3565 385.89 25.3352 385.648 25.3352C385.094 25.3352 384.694 25.4749 384.448 25.7543C384.206 26.0336 384.086 26.4432 384.086 26.983V39H382.409ZM399.247 28.0909V29.5114H393.594V28.0909H399.247ZM395.241 25.4773H396.918V35.875C396.918 36.3485 396.986 36.7036 397.124 36.9403C397.266 37.1723 397.446 37.3286 397.663 37.4091C397.886 37.4848 398.12 37.5227 398.366 37.5227C398.551 37.5227 398.703 37.5133 398.821 37.4943C398.939 37.4706 399.034 37.4517 399.105 37.4375L399.446 38.9432C399.332 38.9858 399.174 39.0284 398.97 39.071C398.767 39.1184 398.509 39.142 398.196 39.142C397.723 39.142 397.259 39.0402 396.804 38.8366C396.354 38.633 395.98 38.3229 395.682 37.9062C395.388 37.4896 395.241 36.964 395.241 36.3295V25.4773ZM403.679 32.4375V39H402.003V24.4545H403.679V29.7955H403.821C404.077 29.232 404.46 28.7846 404.972 28.4531C405.488 28.117 406.174 27.9489 407.031 27.9489C407.775 27.9489 408.426 28.098 408.984 28.3963C409.543 28.6899 409.976 29.142 410.284 29.7528C410.597 30.3589 410.753 31.1307 410.753 32.0682V39H409.077V32.1818C409.077 31.3153 408.852 30.6454 408.402 30.1719C407.957 29.6937 407.339 29.4545 406.548 29.4545C405.999 29.4545 405.507 29.5705 405.071 29.8026C404.64 30.0346 404.299 30.3731 404.048 30.8182C403.802 31.2633 403.679 31.803 403.679 32.4375ZM418.393 39.2273C417.342 39.2273 416.435 38.9953 415.673 38.5312C414.915 38.0625 414.331 37.4091 413.919 36.571C413.511 35.7282 413.308 34.7481 413.308 33.6307C413.308 32.5133 413.511 31.5284 413.919 30.6761C414.331 29.8191 414.904 29.1515 415.637 28.6733C416.376 28.1903 417.238 27.9489 418.223 27.9489C418.791 27.9489 419.352 28.0436 419.906 28.233C420.46 28.4223 420.964 28.7301 421.419 29.1562C421.873 29.5777 422.235 30.1364 422.505 30.8324C422.775 31.5284 422.91 32.3854 422.91 33.4034V34.1136H414.501V32.6648H421.206C421.206 32.0492 421.083 31.5 420.836 31.017C420.595 30.5341 420.249 30.1529 419.799 29.8736C419.354 29.5942 418.829 29.4545 418.223 29.4545C417.555 29.4545 416.977 29.6203 416.49 29.9517C416.007 30.2784 415.635 30.7045 415.375 31.2301C415.114 31.7557 414.984 32.3191 414.984 32.9205V33.8864C414.984 34.7102 415.126 35.4086 415.41 35.9815C415.699 36.5497 416.099 36.983 416.61 37.2812C417.122 37.5748 417.716 37.7216 418.393 37.7216C418.833 37.7216 419.231 37.66 419.586 37.5369C419.946 37.4091 420.256 37.2197 420.517 36.9688C420.777 36.7131 420.978 36.3958 421.12 36.017L422.74 36.4716C422.569 37.0208 422.283 37.5038 421.88 37.9205C421.478 38.3324 420.981 38.6544 420.389 38.8864C419.797 39.1136 419.132 39.2273 418.393 39.2273ZM435.943 28.0909V29.5114H430.062V28.0909H435.943ZM431.824 39V26.5852C431.824 25.9602 431.97 25.4394 432.264 25.0227C432.557 24.6061 432.939 24.2936 433.407 24.0852C433.876 23.8769 434.371 23.7727 434.892 23.7727C435.304 23.7727 435.64 23.8059 435.9 23.8722C436.161 23.9384 436.355 24 436.483 24.0568L436 25.5057C435.914 25.4773 435.796 25.4418 435.645 25.3991C435.498 25.3565 435.304 25.3352 435.062 25.3352C434.508 25.3352 434.108 25.4749 433.862 25.7543C433.62 26.0336 433.5 26.4432 433.5 26.983V39H431.824ZM442.275 39.2273C441.29 39.2273 440.426 38.9929 439.682 38.5241C438.944 38.0554 438.366 37.3996 437.949 36.5568C437.537 35.714 437.331 34.7292 437.331 33.6023C437.331 32.4659 437.537 31.474 437.949 30.6264C438.366 29.7789 438.944 29.1207 439.682 28.652C440.426 28.1832 441.29 27.9489 442.275 27.9489C443.259 27.9489 444.121 28.1832 444.86 28.652C445.603 29.1207 446.181 29.7789 446.593 30.6264C447.009 31.474 447.218 32.4659 447.218 33.6023C447.218 34.7292 447.009 35.714 446.593 36.5568C446.181 37.3996 445.603 38.0554 444.86 38.5241C444.121 38.9929 443.259 39.2273 442.275 39.2273ZM442.275 37.7216C443.023 37.7216 443.638 37.5298 444.121 37.1463C444.604 36.7628 444.962 36.2585 445.194 35.6335C445.426 35.0085 445.542 34.3314 445.542 33.6023C445.542 32.8731 445.426 32.1937 445.194 31.5639C444.962 30.9342 444.604 30.4252 444.121 30.0369C443.638 29.6487 443.023 29.4545 442.275 29.4545C441.526 29.4545 440.911 29.6487 440.428 30.0369C439.945 30.4252 439.587 30.9342 439.355 31.5639C439.123 32.1937 439.007 32.8731 439.007 33.6023C439.007 34.3314 439.123 35.0085 439.355 35.6335C439.587 36.2585 439.945 36.7628 440.428 37.1463C440.911 37.5298 441.526 37.7216 442.275 37.7216ZM454.208 39.2273C453.185 39.2273 452.305 38.9858 451.566 38.5028C450.827 38.0199 450.259 37.3546 449.862 36.5071C449.464 35.6596 449.265 34.6913 449.265 33.6023C449.265 32.4943 449.469 31.5166 449.876 30.669C450.288 29.8168 450.861 29.1515 451.594 28.6733C452.333 28.1903 453.195 27.9489 454.18 27.9489C454.947 27.9489 455.638 28.0909 456.254 28.375C456.869 28.6591 457.373 29.0568 457.766 29.5682C458.159 30.0795 458.403 30.6761 458.498 31.358H456.822C456.694 30.8608 456.41 30.4205 455.969 30.0369C455.534 29.6487 454.947 29.4545 454.208 29.4545C453.555 29.4545 452.982 29.625 452.489 29.9659C452.002 30.3021 451.621 30.7779 451.346 31.3935C451.076 32.0043 450.941 32.7216 450.941 33.5455C450.941 34.3883 451.074 35.1222 451.339 35.7472C451.609 36.3722 451.987 36.8575 452.475 37.2031C452.968 37.5488 453.545 37.7216 454.208 37.7216C454.644 37.7216 455.039 37.6458 455.394 37.4943C455.749 37.3428 456.05 37.125 456.296 36.8409C456.542 36.5568 456.718 36.2159 456.822 35.8182H458.498C458.403 36.4621 458.169 37.0421 457.795 37.5582C457.425 38.0696 456.935 38.4768 456.325 38.7798C455.719 39.0781 455.013 39.2273 454.208 39.2273ZM467.823 34.5398V28.0909H469.499V39H467.823V37.1534H467.71C467.454 37.7074 467.056 38.1785 466.516 38.5668C465.977 38.9503 465.295 39.142 464.471 39.142C463.789 39.142 463.183 38.9929 462.653 38.6946C462.122 38.3916 461.706 37.937 461.403 37.331C461.1 36.7202 460.948 35.9508 460.948 35.0227V28.0909H462.624V34.9091C462.624 35.7045 462.847 36.339 463.292 36.8125C463.742 37.286 464.315 37.5227 465.011 37.5227C465.427 37.5227 465.851 37.4162 466.282 37.2031C466.718 36.9901 467.082 36.6634 467.376 36.223C467.674 35.7827 467.823 35.2216 467.823 34.5398ZM480.297 30.5341L478.791 30.9602C478.696 30.7093 478.556 30.4654 478.372 30.2287C478.192 29.9872 477.946 29.7884 477.633 29.6321C477.321 29.4759 476.921 29.3977 476.433 29.3977C475.765 29.3977 475.209 29.5516 474.764 29.8594C474.324 30.1624 474.103 30.5483 474.103 31.017C474.103 31.4337 474.255 31.7628 474.558 32.0043C474.861 32.2457 475.334 32.447 475.978 32.608L477.598 33.0057C478.573 33.2424 479.3 33.6046 479.778 34.0923C480.256 34.5753 480.495 35.1979 480.495 35.9602C480.495 36.5852 480.315 37.1439 479.956 37.6364C479.6 38.1288 479.103 38.517 478.464 38.8011C477.825 39.0852 477.082 39.2273 476.234 39.2273C475.121 39.2273 474.2 38.9858 473.471 38.5028C472.742 38.0199 472.28 37.3144 472.086 36.3864L473.677 35.9886C473.829 36.5758 474.115 37.0161 474.537 37.3097C474.963 37.6032 475.519 37.75 476.206 37.75C476.987 37.75 477.607 37.5843 478.066 37.2528C478.53 36.9167 478.762 36.5142 478.762 36.0455C478.762 35.6667 478.63 35.3494 478.365 35.0938C478.1 34.8333 477.692 34.6392 477.143 34.5114L475.325 34.0852C474.326 33.8485 473.592 33.4815 473.123 32.9844C472.659 32.4825 472.427 31.8551 472.427 31.1023C472.427 30.4867 472.6 29.9422 472.946 29.4688C473.296 28.9953 473.772 28.6236 474.373 28.3537C474.979 28.0838 475.666 27.9489 476.433 27.9489C477.512 27.9489 478.36 28.1856 478.975 28.6591C479.596 29.1326 480.036 29.7576 480.297 30.5341ZM487.592 39.2273C486.541 39.2273 485.634 38.9953 484.872 38.5312C484.115 38.0625 483.53 37.4091 483.118 36.571C482.711 35.7282 482.507 34.7481 482.507 33.6307C482.507 32.5133 482.711 31.5284 483.118 30.6761C483.53 29.8191 484.103 29.1515 484.837 28.6733C485.575 28.1903 486.437 27.9489 487.422 27.9489C487.99 27.9489 488.551 28.0436 489.105 28.233C489.659 28.4223 490.163 28.7301 490.618 29.1562C491.072 29.5777 491.435 30.1364 491.705 30.8324C491.974 31.5284 492.109 32.3854 492.109 33.4034V34.1136H483.7V32.6648H490.405C490.405 32.0492 490.282 31.5 490.036 31.017C489.794 30.5341 489.448 30.1529 488.999 29.8736C488.554 29.5942 488.028 29.4545 487.422 29.4545C486.754 29.4545 486.177 29.6203 485.689 29.9517C485.206 30.2784 484.834 30.7045 484.574 31.2301C484.313 31.7557 484.183 32.3191 484.183 32.9205V33.8864C484.183 34.7102 484.325 35.4086 484.609 35.9815C484.898 36.5497 485.298 36.983 485.81 37.2812C486.321 37.5748 486.915 37.7216 487.592 37.7216C488.033 37.7216 488.43 37.66 488.786 37.5369C489.145 37.4091 489.455 37.2197 489.716 36.9688C489.976 36.7131 490.178 36.3958 490.32 36.017L491.939 36.4716C491.768 37.0208 491.482 37.5038 491.08 37.9205C490.677 38.3324 490.18 38.6544 489.588 38.8864C488.996 39.1136 488.331 39.2273 487.592 39.2273ZM498.778 39.2273C497.869 39.2273 497.067 38.9976 496.371 38.5384C495.675 38.0743 495.13 37.4209 494.737 36.5781C494.344 35.7306 494.148 34.7292 494.148 33.5739C494.148 32.428 494.344 31.4337 494.737 30.5909C495.13 29.7481 495.677 29.0971 496.378 28.6378C497.079 28.1785 497.888 27.9489 498.807 27.9489C499.517 27.9489 500.078 28.0672 500.49 28.304C500.907 28.536 501.224 28.8011 501.442 29.0994C501.664 29.393 501.837 29.6345 501.96 29.8239H502.102V24.4545H503.778V39H502.159V37.3239H501.96C501.837 37.5227 501.662 37.7737 501.435 38.0767C501.207 38.375 500.883 38.6425 500.462 38.8793C500.04 39.1113 499.479 39.2273 498.778 39.2273ZM499.006 37.7216C499.678 37.7216 500.246 37.5464 500.71 37.196C501.174 36.8409 501.527 36.3509 501.768 35.7259C502.01 35.0961 502.131 34.3693 502.131 33.5455C502.131 32.7311 502.012 32.0185 501.776 31.4077C501.539 30.7921 501.188 30.3139 500.724 29.973C500.26 29.6274 499.688 29.4545 499.006 29.4545C498.295 29.4545 497.704 29.6368 497.23 30.0014C496.761 30.3613 496.409 30.8513 496.172 31.4716C495.94 32.0871 495.824 32.7784 495.824 33.5455C495.824 34.322 495.942 35.0275 496.179 35.6619C496.42 36.2917 496.776 36.7936 497.244 37.1676C497.718 37.5369 498.305 37.7216 499.006 37.7216ZM517.28 39.2273C516.229 39.2273 515.322 38.9953 514.56 38.5312C513.802 38.0625 513.217 37.4091 512.805 36.571C512.398 35.7282 512.195 34.7481 512.195 33.6307C512.195 32.5133 512.398 31.5284 512.805 30.6761C513.217 29.8191 513.79 29.1515 514.524 28.6733C515.263 28.1903 516.125 27.9489 517.109 27.9489C517.678 27.9489 518.239 28.0436 518.793 28.233C519.347 28.4223 519.851 28.7301 520.305 29.1562C520.76 29.5777 521.122 30.1364 521.392 30.8324C521.662 31.5284 521.797 32.3854 521.797 33.4034V34.1136H513.388V32.6648H520.092C520.092 32.0492 519.969 31.5 519.723 31.017C519.482 30.5341 519.136 30.1529 518.686 29.8736C518.241 29.5942 517.715 29.4545 517.109 29.4545C516.442 29.4545 515.864 29.6203 515.376 29.9517C514.893 30.2784 514.522 30.7045 514.261 31.2301C514.001 31.7557 513.871 32.3191 513.871 32.9205V33.8864C513.871 34.7102 514.013 35.4086 514.297 35.9815C514.586 36.5497 514.986 36.983 515.497 37.2812C516.009 37.5748 516.603 37.7216 517.28 37.7216C517.72 37.7216 518.118 37.66 518.473 37.5369C518.833 37.4091 519.143 37.2197 519.403 36.9688C519.664 36.7131 519.865 36.3958 520.007 36.017L521.626 36.4716C521.456 37.0208 521.17 37.5038 520.767 37.9205C520.365 38.3324 519.867 38.6544 519.276 38.8864C518.684 39.1136 518.018 39.2273 517.28 39.2273ZM526.023 24.4545V39H524.347V24.4545H526.023ZM533.667 39.2273C532.615 39.2273 531.709 38.9953 530.946 38.5312C530.189 38.0625 529.604 37.4091 529.192 36.571C528.785 35.7282 528.581 34.7481 528.581 33.6307C528.581 32.5133 528.785 31.5284 529.192 30.6761C529.604 29.8191 530.177 29.1515 530.911 28.6733C531.65 28.1903 532.511 27.9489 533.496 27.9489C534.064 27.9489 534.625 28.0436 535.179 28.233C535.733 28.4223 536.238 28.7301 536.692 29.1562C537.147 29.5777 537.509 30.1364 537.779 30.8324C538.049 31.5284 538.184 32.3854 538.184 33.4034V34.1136H529.775V32.6648H536.479C536.479 32.0492 536.356 31.5 536.11 31.017C535.868 30.5341 535.523 30.1529 535.073 29.8736C534.628 29.5942 534.102 29.4545 533.496 29.4545C532.828 29.4545 532.251 29.6203 531.763 29.9517C531.28 30.2784 530.908 30.7045 530.648 31.2301C530.388 31.7557 530.257 32.3191 530.257 32.9205V33.8864C530.257 34.7102 530.4 35.4086 530.684 35.9815C530.972 36.5497 531.373 36.983 531.884 37.2812C532.395 37.5748 532.989 37.7216 533.667 37.7216C534.107 37.7216 534.505 37.66 534.86 37.5369C535.22 37.4091 535.53 37.2197 535.79 36.9688C536.051 36.7131 536.252 36.3958 536.394 36.017L538.013 36.4716C537.843 37.0208 537.556 37.5038 537.154 37.9205C536.751 38.3324 536.254 38.6544 535.662 38.8864C535.07 39.1136 534.405 39.2273 533.667 39.2273ZM540.733 39V28.0909H542.353V29.7955H542.495C542.722 29.2131 543.089 28.7609 543.596 28.4389C544.102 28.1122 544.711 27.9489 545.421 27.9489C546.141 27.9489 546.739 28.1122 547.218 28.4389C547.701 28.7609 548.077 29.2131 548.347 29.7955H548.461C548.74 29.232 549.159 28.7846 549.718 28.4531C550.276 28.117 550.946 27.9489 551.728 27.9489C552.703 27.9489 553.501 28.2543 554.121 28.8651C554.741 29.4711 555.051 30.4157 555.051 31.6989V39H553.375V31.6989C553.375 30.8939 553.155 30.3187 552.715 29.973C552.275 29.6274 551.756 29.4545 551.159 29.4545C550.392 29.4545 549.798 29.6866 549.377 30.1506C548.955 30.6098 548.745 31.1922 548.745 31.8977V39H547.04V31.5284C547.04 30.9081 546.839 30.4086 546.436 30.0298C546.034 29.6463 545.516 29.4545 544.881 29.4545C544.445 29.4545 544.038 29.5705 543.659 29.8026C543.285 30.0346 542.982 30.3565 542.75 30.7685C542.523 31.1757 542.409 31.6468 542.409 32.1818V39H540.733ZM562.69 39.2273C561.639 39.2273 560.732 38.9953 559.97 38.5312C559.212 38.0625 558.627 37.4091 558.216 36.571C557.808 35.7282 557.605 34.7481 557.605 33.6307C557.605 32.5133 557.808 31.5284 558.216 30.6761C558.627 29.8191 559.2 29.1515 559.934 28.6733C560.673 28.1903 561.535 27.9489 562.52 27.9489C563.088 27.9489 563.649 28.0436 564.203 28.233C564.757 28.4223 565.261 28.7301 565.716 29.1562C566.17 29.5777 566.532 30.1364 566.802 30.8324C567.072 31.5284 567.207 32.3854 567.207 33.4034V34.1136H558.798V32.6648H565.502C565.502 32.0492 565.379 31.5 565.133 31.017C564.892 30.5341 564.546 30.1529 564.096 29.8736C563.651 29.5942 563.126 29.4545 562.52 29.4545C561.852 29.4545 561.274 29.6203 560.787 29.9517C560.304 30.2784 559.932 30.7045 559.672 31.2301C559.411 31.7557 559.281 32.3191 559.281 32.9205V33.8864C559.281 34.7102 559.423 35.4086 559.707 35.9815C559.996 36.5497 560.396 36.983 560.907 37.2812C561.419 37.5748 562.013 37.7216 562.69 37.7216C563.13 37.7216 563.528 37.66 563.883 37.5369C564.243 37.4091 564.553 37.2197 564.814 36.9688C565.074 36.7131 565.275 36.3958 565.417 36.017L567.037 36.4716C566.866 37.0208 566.58 37.5038 566.177 37.9205C565.775 38.3324 565.278 38.6544 564.686 38.8864C564.094 39.1136 563.429 39.2273 562.69 39.2273ZM571.433 32.4375V39H569.757V28.0909H571.376V29.7955H571.518C571.774 29.2415 572.162 28.7964 572.683 28.4602C573.204 28.1193 573.876 27.9489 574.7 27.9489C575.439 27.9489 576.085 28.1004 576.639 28.4034C577.193 28.7017 577.624 29.1562 577.931 29.767C578.239 30.3731 578.393 31.1402 578.393 32.0682V39H576.717V32.1818C576.717 31.3248 576.494 30.6572 576.049 30.179C575.604 29.696 574.993 29.4545 574.217 29.4545C573.682 29.4545 573.204 29.5705 572.782 29.8026C572.366 30.0346 572.037 30.3731 571.795 30.8182C571.554 31.2633 571.433 31.803 571.433 32.4375ZM586.2 28.0909V29.5114H580.547V28.0909H586.2ZM582.195 25.4773H583.871V35.875C583.871 36.3485 583.939 36.7036 584.077 36.9403C584.219 37.1723 584.399 37.3286 584.616 37.4091C584.839 37.4848 585.073 37.5227 585.32 37.5227C585.504 37.5227 585.656 37.5133 585.774 37.4943C585.893 37.4706 585.987 37.4517 586.058 37.4375L586.399 38.9432C586.286 38.9858 586.127 39.0284 585.923 39.071C585.72 39.1184 585.462 39.142 585.149 39.142C584.676 39.142 584.212 39.0402 583.757 38.8366C583.307 38.633 582.933 38.3229 582.635 37.9062C582.341 37.4896 582.195 36.964 582.195 36.3295V25.4773ZM589.943 39.1136C589.593 39.1136 589.292 38.9882 589.041 38.7372C588.79 38.4863 588.665 38.1856 588.665 37.8352C588.665 37.4848 588.79 37.1842 589.041 36.9332C589.292 36.6823 589.593 36.5568 589.943 36.5568C590.294 36.5568 590.594 36.6823 590.845 36.9332C591.096 37.1842 591.222 37.4848 591.222 37.8352C591.222 38.0672 591.162 38.2803 591.044 38.4744C590.93 38.6686 590.777 38.8248 590.582 38.9432C590.393 39.0568 590.18 39.1136 589.943 39.1136Z" fill="white" fill-opacity="0.95"/>
</svg>
