<svg width="300" height="94" viewBox="0 0 300 94" fill="none" xmlns="http://www.w3.org/2000/svg">
<mask id="path-1-inside-1_2029_9200" fill="white">
<path d="M0 0H300V94H0V0Z"/>
</mask>
<path d="M0 0H300V94H0V0Z" fill="#1A1A1A"/>
<path d="M300 94V95H301V94H300ZM299 0V94H301V0H299ZM300 93H0V95H300V93Z" fill="#707070" mask="url(#path-1-inside-1_2029_9200)"/>
<path d="M43.4659 44H41.7045C41.6004 43.4934 41.4181 43.0483 41.1577 42.6648C40.902 42.2812 40.5895 41.9593 40.2202 41.6989C39.8556 41.4337 39.4508 41.2348 39.0057 41.1023C38.5606 40.9697 38.0966 40.9034 37.6136 40.9034C36.733 40.9034 35.9351 41.1259 35.2202 41.571C34.5099 42.0161 33.9441 42.6719 33.5227 43.5384C33.1061 44.4048 32.8977 45.4678 32.8977 46.7273C32.8977 47.9867 33.1061 49.0497 33.5227 49.9162C33.9441 50.7827 34.5099 51.4384 35.2202 51.8835C35.9351 52.3286 36.733 52.5511 37.6136 52.5511C38.0966 52.5511 38.5606 52.4848 39.0057 52.3523C39.4508 52.2197 39.8556 52.0232 40.2202 51.7628C40.5895 51.4976 40.902 51.1733 41.1577 50.7898C41.4181 50.4015 41.6004 49.9564 41.7045 49.4545H43.4659C43.3333 50.1979 43.0919 50.8632 42.7415 51.4503C42.3911 52.0374 41.9555 52.5369 41.4347 52.9489C40.9138 53.3561 40.3291 53.6662 39.6804 53.8793C39.0365 54.0923 38.3475 54.1989 37.6136 54.1989C36.3731 54.1989 35.2699 53.8958 34.304 53.2898C33.3381 52.6837 32.5781 51.822 32.0241 50.7045C31.4702 49.5871 31.1932 48.2614 31.1932 46.7273C31.1932 45.1932 31.4702 43.8674 32.0241 42.75C32.5781 41.6326 33.3381 40.7708 34.304 40.1648C35.2699 39.5587 36.3731 39.2557 37.6136 39.2557C38.3475 39.2557 39.0365 39.3622 39.6804 39.5753C40.3291 39.7884 40.9138 40.1009 41.4347 40.5128C41.9555 40.92 42.3911 41.4171 42.7415 42.0043C43.0919 42.5866 43.3333 43.2519 43.4659 44ZM50.5167 54.2273C49.5318 54.2273 48.6677 53.9929 47.9244 53.5241C47.1857 53.0554 46.6081 52.3996 46.1914 51.5568C45.7795 50.714 45.5735 49.7292 45.5735 48.6023C45.5735 47.4659 45.7795 46.474 46.1914 45.6264C46.6081 44.7789 47.1857 44.1207 47.9244 43.652C48.6677 43.1832 49.5318 42.9489 50.5167 42.9489C51.5015 42.9489 52.3633 43.1832 53.1019 43.652C53.8453 44.1207 54.4229 44.7789 54.8349 45.6264C55.2515 46.474 55.4599 47.4659 55.4599 48.6023C55.4599 49.7292 55.2515 50.714 54.8349 51.5568C54.4229 52.3996 53.8453 53.0554 53.1019 53.5241C52.3633 53.9929 51.5015 54.2273 50.5167 54.2273ZM50.5167 52.7216C51.2648 52.7216 51.8803 52.5298 52.3633 52.1463C52.8462 51.7628 53.2037 51.2585 53.4357 50.6335C53.6677 50.0085 53.7837 49.3314 53.7837 48.6023C53.7837 47.8731 53.6677 47.1937 53.4357 46.5639C53.2037 45.9342 52.8462 45.4252 52.3633 45.0369C51.8803 44.6487 51.2648 44.4545 50.5167 44.4545C49.7686 44.4545 49.1531 44.6487 48.6701 45.0369C48.1871 45.4252 47.8297 45.9342 47.5977 46.5639C47.3656 47.1937 47.2496 47.8731 47.2496 48.6023C47.2496 49.3314 47.3656 50.0085 47.5977 50.6335C47.8297 51.2585 48.1871 51.7628 48.6701 52.1463C49.1531 52.5298 49.7686 52.7216 50.5167 52.7216ZM58.0185 54V43.0909H59.6378V44.7955H59.7798C60.0071 44.2131 60.3741 43.7609 60.8807 43.4389C61.3873 43.1122 61.9957 42.9489 62.706 42.9489C63.4257 42.9489 64.0246 43.1122 64.5028 43.4389C64.9858 43.7609 65.3622 44.2131 65.6321 44.7955H65.7457C66.0251 44.232 66.4441 43.7846 67.0028 43.4531C67.5616 43.117 68.2315 42.9489 69.0128 42.9489C69.9882 42.9489 70.786 43.2543 71.4062 43.8651C72.0265 44.4711 72.3366 45.4157 72.3366 46.6989V54H70.6605V46.6989C70.6605 45.8939 70.4403 45.3187 70 44.973C69.5597 44.6274 69.0412 44.4545 68.4446 44.4545C67.6776 44.4545 67.0833 44.6866 66.6619 45.1506C66.2405 45.6098 66.0298 46.1922 66.0298 46.8977V54H64.3253V46.5284C64.3253 45.9081 64.1241 45.4086 63.7216 45.0298C63.3191 44.6463 62.8007 44.4545 62.1662 44.4545C61.7306 44.4545 61.3234 44.5705 60.9446 44.8026C60.5705 45.0346 60.2675 45.3565 60.0355 45.7685C59.8082 46.1757 59.6946 46.6468 59.6946 47.1818V54H58.0185ZM75.4013 58.0909V43.0909H77.0206V44.8239H77.2195C77.3426 44.6345 77.513 44.393 77.7308 44.0994C77.9534 43.8011 78.2706 43.536 78.6825 43.304C79.0992 43.0672 79.6626 42.9489 80.3729 42.9489C81.2914 42.9489 82.1011 43.1785 82.8018 43.6378C83.5026 44.0971 84.0495 44.7481 84.4425 45.5909C84.8355 46.4337 85.032 47.428 85.032 48.5739C85.032 49.7292 84.8355 50.7306 84.4425 51.5781C84.0495 52.4209 83.505 53.0743 82.8089 53.5384C82.1129 53.9976 81.3104 54.2273 80.4013 54.2273C79.7005 54.2273 79.1394 54.1113 78.718 53.8793C78.2966 53.6425 77.9723 53.375 77.745 53.0767C77.5178 52.7737 77.3426 52.5227 77.2195 52.3239H77.0774V58.0909H75.4013ZM77.049 48.5455C77.049 49.3693 77.1697 50.0961 77.4112 50.7259C77.6527 51.3509 78.0054 51.8409 78.4695 52.196C78.9335 52.5464 79.5017 52.7216 80.174 52.7216C80.8748 52.7216 81.4595 52.5369 81.9283 52.1676C82.4018 51.7936 82.7569 51.2917 82.9936 50.6619C83.2351 50.0275 83.3558 49.322 83.3558 48.5455C83.3558 47.7784 83.2375 47.0871 83.0007 46.4716C82.7687 45.8513 82.416 45.3613 81.9425 45.0014C81.4737 44.6368 80.8842 44.4545 80.174 44.4545C79.4922 44.4545 78.9193 44.6274 78.4553 44.973C77.9912 45.3139 77.6409 45.7921 77.4041 46.4077C77.1674 47.0185 77.049 47.7311 77.049 48.5455ZM89.2649 39.4545V54H87.5888V39.4545H89.2649ZM96.9087 54.2273C95.8576 54.2273 94.9509 53.9953 94.1886 53.5312C93.431 53.0625 92.8462 52.4091 92.4343 51.571C92.0271 50.7282 91.8235 49.7481 91.8235 48.6307C91.8235 47.5133 92.0271 46.5284 92.4343 45.6761C92.8462 44.8191 93.4192 44.1515 94.1531 43.6733C94.8917 43.1903 95.7534 42.9489 96.7383 42.9489C97.3065 42.9489 97.8675 43.0436 98.4215 43.233C98.9755 43.4223 99.4798 43.7301 99.9343 44.1562C100.389 44.5777 100.751 45.1364 101.021 45.8324C101.291 46.5284 101.426 47.3854 101.426 48.4034V49.1136H93.0167V47.6648H99.7212C99.7212 47.0492 99.5981 46.5 99.3519 46.017C99.1104 45.5341 98.7648 45.1529 98.315 44.8736C97.8699 44.5942 97.3443 44.4545 96.7383 44.4545C96.0707 44.4545 95.493 44.6203 95.0053 44.9517C94.5224 45.2784 94.1507 45.7045 93.8903 46.2301C93.6299 46.7557 93.4996 47.3191 93.4996 47.9205V48.8864C93.4996 49.7102 93.6417 50.4086 93.9258 50.9815C94.2146 51.5497 94.6147 51.983 95.1261 52.2812C95.6374 52.5748 96.2317 52.7216 96.9087 52.7216C97.3491 52.7216 97.7468 52.66 98.1019 52.5369C98.4618 52.4091 98.7719 52.2197 99.0323 51.9688C99.2927 51.7131 99.494 51.3958 99.636 51.017L101.255 51.4716C101.085 52.0208 100.798 52.5038 100.396 52.9205C99.9935 53.3324 99.4963 53.6544 98.9045 53.8864C98.3126 54.1136 97.6474 54.2273 96.9087 54.2273ZM108.72 43.0909V44.5114H103.066V43.0909H108.72ZM104.714 40.4773H106.39V50.875C106.39 51.3485 106.459 51.7036 106.596 51.9403C106.738 52.1723 106.918 52.3286 107.136 52.4091C107.359 52.4848 107.593 52.5227 107.839 52.5227C108.024 52.5227 108.175 52.5133 108.294 52.4943C108.412 52.4706 108.507 52.4517 108.578 52.4375L108.919 53.9432C108.805 53.9858 108.646 54.0284 108.443 54.071C108.239 54.1184 107.981 54.142 107.669 54.142C107.195 54.142 106.731 54.0402 106.277 53.8366C105.827 53.633 105.453 53.3229 105.154 52.9062C104.861 52.4896 104.714 51.964 104.714 51.3295V40.4773ZM115.698 54.2273C114.647 54.2273 113.74 53.9953 112.978 53.5312C112.22 53.0625 111.635 52.4091 111.223 51.571C110.816 50.7282 110.613 49.7481 110.613 48.6307C110.613 47.5133 110.816 46.5284 111.223 45.6761C111.635 44.8191 112.208 44.1515 112.942 43.6733C113.681 43.1903 114.542 42.9489 115.527 42.9489C116.096 42.9489 116.657 43.0436 117.211 43.233C117.765 43.4223 118.269 43.7301 118.723 44.1562C119.178 44.5777 119.54 45.1364 119.81 45.8324C120.08 46.5284 120.215 47.3854 120.215 48.4034V49.1136H111.806V47.6648H118.51C118.51 47.0492 118.387 46.5 118.141 46.017C117.9 45.5341 117.554 45.1529 117.104 44.8736C116.659 44.5942 116.133 44.4545 115.527 44.4545C114.86 44.4545 114.282 44.6203 113.794 44.9517C113.311 45.2784 112.94 45.7045 112.679 46.2301C112.419 46.7557 112.289 47.3191 112.289 47.9205V48.8864C112.289 49.7102 112.431 50.4086 112.715 50.9815C113.004 51.5497 113.404 51.983 113.915 52.2812C114.426 52.5748 115.021 52.7216 115.698 52.7216C116.138 52.7216 116.536 52.66 116.891 52.5369C117.251 52.4091 117.561 52.2197 117.821 51.9688C118.082 51.7131 118.283 51.3958 118.425 51.017L120.044 51.4716C119.874 52.0208 119.587 52.5038 119.185 52.9205C118.783 53.3324 118.285 53.6544 117.694 53.8864C117.102 54.1136 116.436 54.2273 115.698 54.2273Z" fill="white" fill-opacity="0.95"/>
</svg>
