<svg width="1300" height="300" viewBox="0 0 1300 300" fill="none" xmlns="http://www.w3.org/2000/svg">
<rect width="1300" height="300" rx="20" fill="#262626"/>
<g opacity="0.5">
<g clip-path="url(#clip0_2029_9012)">
<rect x="443.445" y="149.75" width="449.555" height="8" fill="#30C9B0" fill-opacity="0.5"/>
</g>
</g>
<g clip-path="url(#clip1_2029_9012)">
<line x1="420.445" y1="150.25" x2="435.445" y2="150.25" stroke="#30C9B0"/>
<line x1="427.945" y1="159.75" x2="427.945" y2="151.75" stroke="#30C9B0"/>
<line x1="420.445" y1="157.25" x2="435.445" y2="157.25" stroke="#30C9B0"/>
</g>
<path d="M415.29 151.422C415.29 151.723 415.24 152.003 415.14 152.263C415.044 152.522 414.907 152.755 414.729 152.96C414.62 153.092 414.495 153.215 414.354 153.329C414.212 153.443 414.055 153.543 413.882 153.63C414.087 153.726 414.276 153.837 414.449 153.965C414.627 154.088 414.782 154.231 414.914 154.396C415.101 154.614 415.247 154.863 415.352 155.141C415.456 155.419 415.509 155.719 415.509 156.043C415.509 156.503 415.424 156.911 415.256 157.267C415.087 157.622 414.857 157.918 414.565 158.155C414.269 158.397 413.923 158.579 413.526 158.702C413.134 158.825 412.711 158.887 412.255 158.887C411.79 158.887 411.357 158.825 410.956 158.702C410.56 158.579 410.215 158.397 409.924 158.155C409.628 157.918 409.395 157.624 409.227 157.273C409.062 156.918 408.98 156.508 408.98 156.043C408.98 155.77 409.017 155.51 409.09 155.264C409.167 155.018 409.277 154.79 409.418 154.58C409.559 154.38 409.728 154.2 409.924 154.04C410.124 153.876 410.348 153.737 410.594 153.623C410.384 153.518 410.193 153.391 410.02 153.24C409.851 153.09 409.707 152.924 409.589 152.741C409.466 152.554 409.37 152.349 409.302 152.126C409.233 151.903 409.199 151.668 409.199 151.422C409.199 150.98 409.274 150.588 409.425 150.246C409.58 149.904 409.792 149.615 410.061 149.378C410.325 149.141 410.642 148.963 411.011 148.845C411.384 148.722 411.792 148.66 412.234 148.66C412.672 148.66 413.075 148.722 413.444 148.845C413.818 148.963 414.144 149.141 414.422 149.378C414.691 149.61 414.903 149.9 415.058 150.246C415.213 150.588 415.29 150.98 415.29 151.422ZM413.875 155.954C413.875 155.708 413.834 155.485 413.752 155.284C413.674 155.079 413.565 154.901 413.424 154.751C413.278 154.61 413.105 154.5 412.904 154.423C412.704 154.345 412.483 154.307 412.241 154.307C411.991 154.307 411.765 154.345 411.564 154.423C411.368 154.5 411.2 154.61 411.059 154.751C410.917 154.901 410.808 155.079 410.73 155.284C410.658 155.485 410.621 155.71 410.621 155.961C410.621 156.216 410.66 156.446 410.737 156.651C410.815 156.852 410.926 157.021 411.072 157.157C411.214 157.289 411.382 157.392 411.578 157.465C411.779 157.533 412.004 157.567 412.255 157.567C412.492 157.567 412.708 157.531 412.904 157.458C413.105 157.385 413.278 157.28 413.424 157.144C413.561 157.002 413.67 156.834 413.752 156.638C413.834 156.437 413.875 156.209 413.875 155.954ZM413.663 151.483C413.663 151.26 413.627 151.057 413.554 150.875C413.485 150.693 413.39 150.533 413.267 150.396C413.139 150.269 412.989 150.169 412.815 150.096C412.642 150.023 412.446 149.986 412.228 149.986C412.013 149.986 411.82 150.023 411.646 150.096C411.478 150.164 411.332 150.262 411.209 150.39C411.09 150.517 410.999 150.674 410.936 150.861C410.872 151.048 410.84 151.256 410.84 151.483C410.84 151.707 410.872 151.912 410.936 152.099C410.999 152.281 411.095 152.436 411.223 152.563C411.346 152.696 411.494 152.798 411.667 152.871C411.84 152.944 412.034 152.98 412.248 152.98C412.462 152.98 412.656 152.944 412.829 152.871C413.002 152.798 413.15 152.696 413.273 152.563C413.396 152.436 413.492 152.281 413.561 152.099C413.629 151.912 413.663 151.707 413.663 151.483Z" fill="#30C9B0"/>
<path d="M861.555 141.75C861.555 145.616 858.421 148.75 854.555 148.75C850.689 148.75 847.555 145.616 847.555 141.75C847.555 137.884 850.689 134.75 854.555 134.75C858.421 134.75 861.555 137.884 861.555 141.75Z" stroke="white" stroke-opacity="0.4" stroke-width="2"/>
<g clip-path="url(#clip2_2029_9012)">
<path d="M823.098 170.02C823.098 169.684 823.023 169.418 822.874 169.222C822.706 168.989 822.398 168.774 821.95 168.578C821.502 168.382 820.825 168.158 819.92 167.906C818.706 167.57 817.871 167.155 817.414 166.66C817.04 166.259 816.854 165.722 816.854 165.05C816.854 164.238 817.208 163.594 817.918 163.118C818.571 162.679 819.42 162.46 820.466 162.46C821.632 162.46 822.58 162.735 823.308 163.286C823.961 163.771 824.344 164.406 824.456 165.19H822.986C822.902 164.658 822.622 164.261 822.146 164C821.726 163.757 821.166 163.636 820.466 163.636C819.682 163.636 819.103 163.785 818.73 164.084C818.431 164.317 818.282 164.621 818.282 164.994C818.282 165.237 818.319 165.437 818.394 165.596C818.478 165.745 818.618 165.881 818.814 166.002C819.178 166.245 819.882 166.511 820.928 166.8C822.384 167.211 823.368 167.677 823.882 168.2C824.311 168.629 824.526 169.217 824.526 169.964C824.526 170.851 824.138 171.583 823.364 172.162C822.636 172.694 821.712 172.96 820.592 172.96C819.425 172.96 818.459 172.647 817.694 172.022C817.031 171.481 816.634 170.781 816.504 169.922H817.974C818.067 170.538 818.361 171.009 818.856 171.336C819.304 171.635 819.873 171.784 820.564 171.784C821.422 171.784 822.08 171.588 822.538 171.196C822.911 170.879 823.098 170.487 823.098 170.02ZM831.096 170.65H832.552C832.347 171.387 831.941 171.966 831.334 172.386C830.765 172.769 830.083 172.96 829.29 172.96C828.142 172.96 827.246 172.596 826.602 171.868C826.014 171.187 825.72 170.267 825.72 169.11C825.72 167.794 826.093 166.795 826.84 166.114C827.456 165.545 828.249 165.26 829.22 165.26C830.359 165.26 831.217 165.629 831.796 166.366C832.356 167.075 832.636 168.088 832.636 169.404H827.092C827.148 170.263 827.409 170.902 827.876 171.322C828.259 171.658 828.744 171.826 829.332 171.826C829.789 171.826 830.186 171.7 830.522 171.448C830.802 171.233 830.993 170.967 831.096 170.65ZM829.248 166.338C828.651 166.338 828.17 166.525 827.806 166.898C827.461 167.243 827.241 167.724 827.148 168.34H831.264C831.217 167.64 830.984 167.117 830.564 166.772C830.228 166.483 829.789 166.338 829.248 166.338ZM837.496 171.672V172.82C837.15 172.913 836.819 172.96 836.502 172.96C835.83 172.96 835.326 172.75 834.99 172.33C834.7 171.985 834.556 171.523 834.556 170.944V166.618H833.478V165.47H834.556L834.64 163.72H835.9V165.47H837.468V166.618H835.9V170.972C835.9 171.513 836.156 171.784 836.67 171.784C836.912 171.784 837.188 171.747 837.496 171.672ZM844.301 162.67V172.75H842.957V162.67H844.301ZM845.845 169.11C845.845 167.775 846.242 166.767 847.035 166.086C847.67 165.535 848.472 165.26 849.443 165.26C850.572 165.26 851.459 165.619 852.103 166.338C852.719 167.01 853.027 167.934 853.027 169.11C853.027 170.426 852.64 171.429 851.865 172.12C851.23 172.68 850.418 172.96 849.429 172.96C848.3 172.96 847.408 172.587 846.755 171.84C846.148 171.159 845.845 170.249 845.845 169.11ZM847.245 169.11C847.245 170.043 847.483 170.757 847.959 171.252C848.351 171.663 848.85 171.868 849.457 171.868C850.166 171.868 850.712 171.602 851.095 171.07C851.45 170.585 851.627 169.931 851.627 169.11C851.627 168.158 851.394 167.439 850.927 166.954C850.544 166.553 850.05 166.352 849.443 166.352C848.743 166.352 848.197 166.618 847.805 167.15C847.432 167.635 847.245 168.289 847.245 169.11ZM859.31 170.412H860.78C860.668 171.196 860.299 171.826 859.674 172.302C859.105 172.741 858.409 172.96 857.588 172.96C856.515 172.96 855.661 172.591 855.026 171.854C854.438 171.173 854.144 170.277 854.144 169.166C854.144 167.878 854.499 166.879 855.208 166.17C855.815 165.563 856.603 165.26 857.574 165.26C858.47 165.26 859.207 165.498 859.786 165.974C860.299 166.394 860.612 166.945 860.724 167.626H859.24C859.147 167.234 858.955 166.931 858.666 166.716C858.386 166.501 858.031 166.394 857.602 166.394C856.939 166.394 856.431 166.655 856.076 167.178C855.74 167.663 855.572 168.34 855.572 169.208C855.572 170.113 855.796 170.799 856.244 171.266C856.599 171.639 857.056 171.826 857.616 171.826C858.101 171.826 858.498 171.686 858.806 171.406C859.077 171.163 859.245 170.832 859.31 170.412ZM863.464 167.5H862.036C862.111 166.772 862.456 166.207 863.072 165.806C863.623 165.442 864.318 165.26 865.158 165.26C866.157 165.26 866.922 165.521 867.454 166.044C867.902 166.492 868.126 167.071 868.126 167.78V172.75H867.02L866.852 171.756C866.283 172.559 865.471 172.96 864.416 172.96C863.585 172.96 862.937 172.736 862.47 172.288C862.087 171.915 861.896 171.443 861.896 170.874C861.896 170.155 862.143 169.6 862.638 169.208C863.077 168.863 863.749 168.611 864.654 168.452L866.782 168.088V167.724C866.782 167.248 866.619 166.889 866.292 166.646C866.003 166.431 865.606 166.324 865.102 166.324C864.113 166.324 863.567 166.716 863.464 167.5ZM864.738 171.826C865.307 171.826 865.802 171.639 866.222 171.266C866.595 170.921 866.782 170.524 866.782 170.076V169.138L864.976 169.46C864.313 169.572 863.861 169.745 863.618 169.978C863.422 170.165 863.324 170.417 863.324 170.734C863.324 171.089 863.445 171.359 863.688 171.546C863.931 171.733 864.281 171.826 864.738 171.826ZM873.261 171.672V172.82C872.916 172.913 872.585 172.96 872.267 172.96C871.595 172.96 871.091 172.75 870.755 172.33C870.466 171.985 870.321 171.523 870.321 170.944V166.618H869.243V165.47H870.321L870.405 163.72H871.665V165.47H873.233V166.618H871.665V170.972C871.665 171.513 871.922 171.784 872.435 171.784C872.678 171.784 872.953 171.747 873.261 171.672ZM875.953 164.252H874.441V162.67H875.953V164.252ZM875.869 172.75H874.525V165.47H875.869V172.75ZM877.414 169.11C877.414 167.775 877.81 166.767 878.604 166.086C879.238 165.535 880.041 165.26 881.012 165.26C882.141 165.26 883.028 165.619 883.672 166.338C884.288 167.01 884.596 167.934 884.596 169.11C884.596 170.426 884.208 171.429 883.434 172.12C882.799 172.68 881.987 172.96 880.998 172.96C879.868 172.96 878.977 172.587 878.324 171.84C877.717 171.159 877.414 170.249 877.414 169.11ZM878.814 169.11C878.814 170.043 879.052 170.757 879.528 171.252C879.92 171.663 880.419 171.868 881.026 171.868C881.735 171.868 882.281 171.602 882.664 171.07C883.018 170.585 883.196 169.931 883.196 169.11C883.196 168.158 882.962 167.439 882.496 166.954C882.113 166.553 881.618 166.352 881.012 166.352C880.312 166.352 879.766 166.618 879.374 167.15C879 167.635 878.814 168.289 878.814 169.11ZM887.476 172.75H886.132V165.47H887.238L887.392 166.394C887.934 165.638 888.671 165.26 889.604 165.26C890.463 165.26 891.121 165.526 891.578 166.058C891.98 166.534 892.18 167.183 892.18 168.004V172.75H890.836V168.018C890.836 166.945 890.318 166.408 889.282 166.408C888.741 166.408 888.298 166.595 887.952 166.968C887.635 167.304 887.476 167.733 887.476 168.256V172.75Z" fill="white" fill-opacity="0.7"/>
</g>
<rect x="688.555" y="140.75" width="150" height="2" fill="#8F8F8F"/>
<path d="M679.555 141.75C679.555 145.616 676.421 148.75 672.555 148.75C668.689 148.75 665.555 145.616 665.555 141.75C665.555 137.884 668.689 134.75 672.555 134.75C676.421 134.75 679.555 137.884 679.555 141.75Z" stroke="#3492EB" stroke-width="2"/>
<g clip-path="url(#clip3_2029_9012)">
<path d="M641.723 172.75H639.777L638.895 170.3H634.583L633.701 172.75H631.867L635.787 162.67H637.803L641.723 172.75ZM636.767 164.294L635.059 168.984H638.433L636.767 164.294ZM643.825 170.678C643.955 171.378 644.483 171.728 645.407 171.728C645.92 171.728 646.307 171.63 646.569 171.434C646.783 171.266 646.891 171.047 646.891 170.776C646.891 170.431 646.704 170.174 646.331 170.006C646.116 169.913 645.645 169.782 644.917 169.614C644.021 169.409 643.381 169.129 642.999 168.774C642.616 168.429 642.425 167.976 642.425 167.416C642.425 166.707 642.714 166.161 643.293 165.778C643.806 165.433 644.511 165.26 645.407 165.26C646.331 165.26 647.073 165.479 647.633 165.918C648.118 166.291 648.421 166.795 648.543 167.43H646.835C646.695 166.805 646.209 166.492 645.379 166.492C644.539 166.492 644.119 166.749 644.119 167.262C644.119 167.523 644.226 167.719 644.441 167.85C644.655 167.981 645.089 168.125 645.743 168.284C646.751 168.517 647.451 168.779 647.843 169.068C648.337 169.432 648.585 169.945 648.585 170.608C648.585 171.364 648.277 171.957 647.661 172.386C647.101 172.769 646.345 172.96 645.393 172.96C644.394 172.96 643.596 172.722 642.999 172.246C642.495 171.845 642.201 171.322 642.117 170.678H643.825ZM651.125 170.678C651.256 171.378 651.783 171.728 652.707 171.728C653.221 171.728 653.608 171.63 653.869 171.434C654.084 171.266 654.191 171.047 654.191 170.776C654.191 170.431 654.005 170.174 653.631 170.006C653.417 169.913 652.945 169.782 652.217 169.614C651.321 169.409 650.682 169.129 650.299 168.774C649.917 168.429 649.725 167.976 649.725 167.416C649.725 166.707 650.015 166.161 650.593 165.778C651.107 165.433 651.811 165.26 652.707 165.26C653.631 165.26 654.373 165.479 654.933 165.918C655.419 166.291 655.722 166.795 655.843 167.43H654.135C653.995 166.805 653.51 166.492 652.679 166.492C651.839 166.492 651.419 166.749 651.419 167.262C651.419 167.523 651.527 167.719 651.741 167.85C651.956 167.981 652.39 168.125 653.043 168.284C654.051 168.517 654.751 168.779 655.143 169.068C655.638 169.432 655.885 169.945 655.885 170.608C655.885 171.364 655.577 171.957 654.961 172.386C654.401 172.769 653.645 172.96 652.693 172.96C651.695 172.96 650.897 172.722 650.299 172.246C649.795 171.845 649.501 171.322 649.417 170.678H651.125ZM659.082 164.364H657.234V162.67H659.082V164.364ZM658.998 172.75H657.318V165.47H658.998V172.75ZM660.693 173.226H662.457C662.634 173.898 663.189 174.234 664.123 174.234C665.327 174.234 665.929 173.66 665.929 172.512V171.7C665.378 172.26 664.631 172.54 663.689 172.54C662.699 172.54 661.897 172.19 661.281 171.49C660.711 170.837 660.427 169.992 660.427 168.956C660.427 167.733 660.777 166.786 661.477 166.114C662.065 165.545 662.821 165.26 663.745 165.26C664.715 165.26 665.471 165.615 666.013 166.324L666.279 165.47H667.609V172.498C667.609 173.459 667.263 174.211 666.573 174.752C665.957 175.237 665.145 175.48 664.137 175.48C663.054 175.48 662.209 175.251 661.603 174.794C661.108 174.411 660.805 173.889 660.693 173.226ZM662.149 168.97C662.149 169.726 662.359 170.309 662.779 170.72C663.124 171.047 663.558 171.21 664.081 171.21C664.753 171.21 665.261 170.991 665.607 170.552C665.905 170.169 666.055 169.647 666.055 168.984C666.055 168.153 665.849 167.528 665.439 167.108C665.103 166.763 664.65 166.59 664.081 166.59C663.455 166.59 662.97 166.814 662.625 167.262C662.307 167.673 662.149 168.242 662.149 168.97ZM671.084 172.75H669.404V165.47H670.79L670.972 166.338C671.504 165.619 672.241 165.26 673.184 165.26C674.061 165.26 674.733 165.531 675.2 166.072C675.61 166.548 675.816 167.197 675.816 168.018V172.75H674.136V168.06C674.136 167.061 673.674 166.562 672.75 166.562C672.246 166.562 671.835 166.739 671.518 167.094C671.228 167.421 671.084 167.831 671.084 168.326V172.75ZM685.787 165.358V166.982C685.479 166.889 685.185 166.842 684.905 166.842C684.382 166.842 683.962 167.071 683.645 167.528C683.346 167.967 683.197 168.573 683.197 169.348V172.75H681.517V165.47H682.903L683.113 166.562C683.524 165.694 684.144 165.26 684.975 165.26C685.274 165.26 685.544 165.293 685.787 165.358ZM686.225 169.096C686.225 167.771 686.617 166.767 687.401 166.086C688.045 165.535 688.885 165.26 689.921 165.26C691.125 165.26 692.054 165.624 692.707 166.352C693.314 167.015 693.617 167.929 693.617 169.096C693.617 170.421 693.235 171.425 692.469 172.106C691.825 172.675 690.976 172.96 689.921 172.96C688.727 172.96 687.798 172.587 687.135 171.84C686.529 171.159 686.225 170.244 686.225 169.096ZM689.935 171.714C690.598 171.714 691.093 171.471 691.419 170.986C691.727 170.547 691.881 169.917 691.881 169.096C691.881 168.163 691.676 167.477 691.265 167.038C690.939 166.683 690.491 166.506 689.921 166.506C689.268 166.506 688.773 166.744 688.437 167.22C688.12 167.659 687.961 168.284 687.961 169.096C687.961 170.02 688.167 170.706 688.577 171.154C688.923 171.527 689.375 171.714 689.935 171.714ZM696.719 162.67V172.75H695.039V162.67H696.719ZM703.453 170.65H705.217C705.021 171.397 704.615 171.975 703.999 172.386C703.411 172.769 702.688 172.96 701.829 172.96C700.644 172.96 699.72 172.587 699.057 171.84C698.451 171.159 698.147 170.249 698.147 169.11C698.147 167.803 698.525 166.805 699.281 166.114C699.916 165.545 700.742 165.26 701.759 165.26C702.945 165.26 703.841 165.647 704.447 166.422C705.017 167.141 705.301 168.167 705.301 169.502H699.855C699.921 170.286 700.163 170.86 700.583 171.224C700.919 171.523 701.358 171.672 701.899 171.672C702.282 171.672 702.613 171.579 702.893 171.392C703.173 171.205 703.36 170.958 703.453 170.65ZM703.579 168.354C703.542 167.673 703.337 167.173 702.963 166.856C702.655 166.585 702.254 166.45 701.759 166.45C701.218 166.45 700.784 166.627 700.457 166.982C700.159 167.299 699.967 167.757 699.883 168.354H703.579ZM707.946 170.678C708.076 171.378 708.604 171.728 709.528 171.728C710.041 171.728 710.428 171.63 710.69 171.434C710.904 171.266 711.012 171.047 711.012 170.776C711.012 170.431 710.825 170.174 710.452 170.006C710.237 169.913 709.766 169.782 709.038 169.614C708.142 169.409 707.502 169.129 707.12 168.774C706.737 168.429 706.546 167.976 706.546 167.416C706.546 166.707 706.835 166.161 707.414 165.778C707.927 165.433 708.632 165.26 709.528 165.26C710.452 165.26 711.194 165.479 711.754 165.918C712.239 166.291 712.542 166.795 712.664 167.43H710.956C710.816 166.805 710.33 166.492 709.5 166.492C708.66 166.492 708.24 166.749 708.24 167.262C708.24 167.523 708.347 167.719 708.562 167.85C708.776 167.981 709.21 168.125 709.864 168.284C710.872 168.517 711.572 168.779 711.964 169.068C712.458 169.432 712.706 169.945 712.706 170.608C712.706 171.364 712.398 171.957 711.782 172.386C711.222 172.769 710.466 172.96 709.514 172.96C708.515 172.96 707.717 172.722 707.12 172.246C706.616 171.845 706.322 171.322 706.238 170.678H707.946Z" fill="white" fill-opacity="0.95"/>
</g>
<rect x="506.555" y="140.75" width="150" height="2" fill="#3492EB"/>
<path fill-rule="evenodd" clip-rule="evenodd" d="M490.555 149.75C494.973 149.75 498.555 146.168 498.555 141.75C498.555 137.332 494.973 133.75 490.555 133.75C486.136 133.75 482.555 137.332 482.555 141.75C482.555 146.168 486.136 149.75 490.555 149.75Z" fill="#3492EB"/>
<g clip-path="url(#clip4_2029_9012)">
<path d="M453.017 172.75H451.337L448.901 168.914H446.507V172.75H445.079V162.67H448.341C449.713 162.67 450.74 162.983 451.421 163.608C452.028 164.149 452.331 164.891 452.331 165.834C452.331 167.178 451.655 168.107 450.301 168.62L453.017 172.75ZM448.369 163.832H446.507V167.752H448.411C449.242 167.752 449.872 167.556 450.301 167.164C450.665 166.828 450.847 166.385 450.847 165.834C450.847 164.499 450.021 163.832 448.369 163.832ZM458.893 170.65H460.349C460.144 171.387 459.738 171.966 459.131 172.386C458.562 172.769 457.88 172.96 457.087 172.96C455.939 172.96 455.043 172.596 454.399 171.868C453.811 171.187 453.517 170.267 453.517 169.11C453.517 167.794 453.89 166.795 454.637 166.114C455.253 165.545 456.046 165.26 457.017 165.26C458.156 165.26 459.014 165.629 459.593 166.366C460.153 167.075 460.433 168.088 460.433 169.404H454.889C454.945 170.263 455.206 170.902 455.673 171.322C456.056 171.658 456.541 171.826 457.129 171.826C457.586 171.826 457.983 171.7 458.319 171.448C458.599 171.233 458.79 170.967 458.893 170.65ZM457.045 166.338C456.448 166.338 455.967 166.525 455.603 166.898C455.258 167.243 455.038 167.724 454.945 168.34H459.061C459.014 167.64 458.781 167.117 458.361 166.772C458.025 166.483 457.586 166.338 457.045 166.338ZM461.96 173.24H463.402C463.468 173.613 463.654 173.903 463.962 174.108C464.28 174.313 464.695 174.416 465.208 174.416C465.927 174.416 466.464 174.229 466.818 173.856C467.117 173.539 467.266 173.095 467.266 172.526V171.588C466.725 172.223 465.918 172.54 464.844 172.54C463.874 172.54 463.085 172.19 462.478 171.49C461.909 170.837 461.624 169.987 461.624 168.942C461.624 167.729 461.97 166.791 462.66 166.128C463.248 165.549 464.004 165.26 464.928 165.26C465.974 165.26 466.762 165.652 467.294 166.436L467.504 165.47H468.61V172.596C468.61 173.511 468.279 174.229 467.616 174.752C467.019 175.237 466.23 175.48 465.25 175.48C464.233 175.48 463.435 175.251 462.856 174.794C462.371 174.411 462.072 173.893 461.96 173.24ZM463.024 168.97C463.024 169.763 463.258 170.384 463.724 170.832C464.107 171.205 464.578 171.392 465.138 171.392C465.876 171.392 466.44 171.149 466.832 170.664C467.168 170.253 467.336 169.703 467.336 169.012C467.336 168.125 467.108 167.449 466.65 166.982C466.268 166.599 465.764 166.408 465.138 166.408C464.448 166.408 463.916 166.646 463.542 167.122C463.197 167.57 463.024 168.186 463.024 168.97ZM472.004 164.252H470.492V162.67H472.004V164.252ZM471.92 172.75H470.576V165.47H471.92V172.75ZM478.14 170.776C478.14 170.365 477.926 170.057 477.496 169.852C477.244 169.74 476.754 169.6 476.026 169.432C475.13 169.236 474.491 168.951 474.108 168.578C473.791 168.261 473.632 167.845 473.632 167.332C473.632 166.651 473.908 166.128 474.458 165.764C474.953 165.428 475.62 165.26 476.46 165.26C477.328 165.26 478.033 165.475 478.574 165.904C479.041 166.277 479.33 166.772 479.442 167.388H478.07C477.912 166.679 477.37 166.324 476.446 166.324C475.933 166.324 475.55 166.417 475.298 166.604C475.093 166.763 474.99 166.963 474.99 167.206C474.99 167.505 475.102 167.729 475.326 167.878C475.56 168.027 476.012 168.177 476.684 168.326C477.711 168.55 478.425 168.825 478.826 169.152C479.274 169.516 479.498 170.025 479.498 170.678C479.498 171.406 479.2 171.98 478.602 172.4C478.061 172.773 477.347 172.96 476.46 172.96C475.49 172.96 474.72 172.727 474.15 172.26C473.656 171.849 473.38 171.317 473.324 170.664H474.696C474.846 171.485 475.438 171.896 476.474 171.896C477.034 171.896 477.468 171.775 477.776 171.532C478.019 171.336 478.14 171.084 478.14 170.776ZM484.283 171.672V172.82C483.937 172.913 483.606 172.96 483.289 172.96C482.617 172.96 482.113 172.75 481.777 172.33C481.487 171.985 481.343 171.523 481.343 170.944V166.618H480.265V165.47H481.343L481.427 163.72H482.687V165.47H484.255V166.618H482.687V170.972C482.687 171.513 482.943 171.784 483.457 171.784C483.699 171.784 483.975 171.747 484.283 171.672ZM490.434 170.65H491.89C491.685 171.387 491.279 171.966 490.672 172.386C490.103 172.769 489.421 172.96 488.628 172.96C487.48 172.96 486.584 172.596 485.94 171.868C485.352 171.187 485.058 170.267 485.058 169.11C485.058 167.794 485.431 166.795 486.178 166.114C486.794 165.545 487.587 165.26 488.558 165.26C489.697 165.26 490.555 165.629 491.134 166.366C491.694 167.075 491.974 168.088 491.974 169.404H486.43C486.486 170.263 486.747 170.902 487.214 171.322C487.597 171.658 488.082 171.826 488.67 171.826C489.127 171.826 489.524 171.7 489.86 171.448C490.14 171.233 490.331 170.967 490.434 170.65ZM488.586 166.338C487.989 166.338 487.508 166.525 487.144 166.898C486.799 167.243 486.579 167.724 486.486 168.34H490.602C490.555 167.64 490.322 167.117 489.902 166.772C489.566 166.483 489.127 166.338 488.586 166.338ZM494.929 172.75H493.585V165.47H494.691L494.873 166.548C495.284 165.689 495.9 165.26 496.721 165.26C496.992 165.26 497.258 165.293 497.519 165.358V166.702C497.202 166.618 496.917 166.576 496.665 166.576C496.124 166.576 495.699 166.795 495.391 167.234C495.083 167.673 494.929 168.293 494.929 169.096V172.75ZM502.703 165.47H504.047V170.244C504.047 171.289 504.551 171.812 505.559 171.812C506.175 171.812 506.646 171.593 506.973 171.154C507.225 170.818 507.351 170.403 507.351 169.908V165.47H508.695V172.75H507.589L507.435 171.91C506.922 172.61 506.194 172.96 505.251 172.96C504.42 172.96 503.781 172.703 503.333 172.19C502.913 171.714 502.703 171.056 502.703 170.216V165.47ZM514.918 170.776C514.918 170.365 514.703 170.057 514.274 169.852C514.022 169.74 513.532 169.6 512.804 169.432C511.908 169.236 511.268 168.951 510.886 168.578C510.568 168.261 510.41 167.845 510.41 167.332C510.41 166.651 510.685 166.128 511.236 165.764C511.73 165.428 512.398 165.26 513.238 165.26C514.106 165.26 514.81 165.475 515.352 165.904C515.818 166.277 516.108 166.772 516.22 167.388H514.848C514.689 166.679 514.148 166.324 513.224 166.324C512.71 166.324 512.328 166.417 512.076 166.604C511.87 166.763 511.768 166.963 511.768 167.206C511.768 167.505 511.88 167.729 512.104 167.878C512.337 168.027 512.79 168.177 513.462 168.326C514.488 168.55 515.202 168.825 515.604 169.152C516.052 169.516 516.276 170.025 516.276 170.678C516.276 171.406 515.977 171.98 515.38 172.4C514.838 172.773 514.124 172.96 513.238 172.96C512.267 172.96 511.497 172.727 510.928 172.26C510.433 171.849 510.158 171.317 510.102 170.664H511.474C511.623 171.485 512.216 171.896 513.252 171.896C513.812 171.896 514.246 171.775 514.554 171.532C514.796 171.336 514.918 171.084 514.918 170.776ZM522.768 170.65H524.224C524.019 171.387 523.613 171.966 523.006 172.386C522.437 172.769 521.755 172.96 520.962 172.96C519.814 172.96 518.918 172.596 518.274 171.868C517.686 171.187 517.392 170.267 517.392 169.11C517.392 167.794 517.765 166.795 518.512 166.114C519.128 165.545 519.921 165.26 520.892 165.26C522.031 165.26 522.889 165.629 523.468 166.366C524.028 167.075 524.308 168.088 524.308 169.404H518.764C518.82 170.263 519.081 170.902 519.548 171.322C519.931 171.658 520.416 171.826 521.004 171.826C521.461 171.826 521.858 171.7 522.194 171.448C522.474 171.233 522.665 170.967 522.768 170.65ZM520.92 166.338C520.323 166.338 519.842 166.525 519.478 166.898C519.133 167.243 518.913 167.724 518.82 168.34H522.936C522.889 167.64 522.656 167.117 522.236 166.772C521.9 166.483 521.461 166.338 520.92 166.338ZM527.263 172.75H525.919V165.47H527.025L527.207 166.548C527.618 165.689 528.234 165.26 529.055 165.26C529.326 165.26 529.592 165.293 529.853 165.358V166.702C529.536 166.618 529.251 166.576 528.999 166.576C528.458 166.576 528.033 166.795 527.725 167.234C527.417 167.673 527.263 168.293 527.263 169.096V172.75ZM535.166 170.776C535.166 170.365 534.951 170.057 534.522 169.852C534.27 169.74 533.78 169.6 533.052 169.432C532.156 169.236 531.516 168.951 531.134 168.578C530.816 168.261 530.658 167.845 530.658 167.332C530.658 166.651 530.933 166.128 531.484 165.764C531.978 165.428 532.646 165.26 533.486 165.26C534.354 165.26 535.058 165.475 535.6 165.904C536.066 166.277 536.356 166.772 536.468 167.388H535.096C534.937 166.679 534.396 166.324 533.472 166.324C532.958 166.324 532.576 166.417 532.324 166.604C532.118 166.763 532.016 166.963 532.016 167.206C532.016 167.505 532.128 167.729 532.352 167.878C532.585 168.027 533.038 168.177 533.71 168.326C534.736 168.55 535.45 168.825 535.852 169.152C536.3 169.516 536.524 170.025 536.524 170.678C536.524 171.406 536.225 171.98 535.628 172.4C535.086 172.773 534.372 172.96 533.486 172.96C532.515 172.96 531.745 172.727 531.176 172.26C530.681 171.849 530.406 171.317 530.35 170.664H531.722C531.871 171.485 532.464 171.896 533.5 171.896C534.06 171.896 534.494 171.775 534.802 171.532C535.044 171.336 535.166 171.084 535.166 170.776Z" fill="white" fill-opacity="0.95"/>
</g>
<g clip-path="url(#clip5_2029_9012)">
<line x1="482.97" y1="130" x2="482.97" y2="115" stroke="#C7A5FA"/>
<line x1="482.47" y1="122.5" x2="498.47" y2="122.5" stroke="#C7A5FA"/>
<line x1="497.97" y1="130" x2="497.97" y2="115" stroke="#C7A5FA"/>
</g>
<path d="M488.114 108H486.466V100.07L483.917 101.007V99.5645L488.011 98.0469H488.114V108ZM496.84 97.999V99.3867H496.731C496.188 99.3867 495.717 99.4619 495.316 99.6123C494.919 99.7581 494.584 99.9632 494.311 100.228C494.033 100.492 493.816 100.809 493.661 101.178C493.511 101.547 493.418 101.943 493.381 102.367C493.491 102.244 493.618 102.126 493.764 102.012C493.91 101.893 494.072 101.788 494.249 101.697C494.418 101.611 494.605 101.542 494.81 101.492C495.015 101.438 495.231 101.41 495.459 101.41C495.942 101.41 496.362 101.501 496.717 101.684C497.077 101.866 497.373 102.112 497.606 102.422C497.843 102.732 498.016 103.087 498.125 103.488C498.239 103.889 498.296 104.306 498.296 104.739C498.296 105.213 498.223 105.658 498.077 106.072C497.936 106.482 497.729 106.84 497.455 107.146C497.177 107.455 496.838 107.699 496.437 107.877C496.04 108.05 495.587 108.137 495.076 108.137C494.552 108.137 494.085 108.036 493.675 107.836C493.265 107.635 492.919 107.364 492.636 107.022C492.335 106.667 492.107 106.25 491.952 105.771C491.798 105.288 491.72 104.78 491.72 104.247V103.57C491.72 102.768 491.823 102.005 492.028 101.28C492.237 100.551 492.584 99.9245 493.067 99.4004C493.477 98.9492 493.983 98.6029 494.584 98.3613C495.186 98.1198 495.874 97.999 496.649 97.999H496.84ZM495.056 102.736C494.86 102.736 494.673 102.766 494.495 102.825C494.318 102.884 494.154 102.966 494.003 103.071C493.867 103.176 493.743 103.297 493.634 103.434C493.525 103.57 493.434 103.723 493.361 103.892V104.397C493.361 104.794 493.404 105.143 493.491 105.443C493.582 105.744 493.705 105.995 493.86 106.195C494.015 106.396 494.195 106.549 494.4 106.653C494.605 106.758 494.824 106.811 495.056 106.811C495.311 106.811 495.539 106.76 495.74 106.66C495.94 106.555 496.111 106.414 496.252 106.236C496.394 106.054 496.501 105.84 496.574 105.594C496.646 105.343 496.683 105.072 496.683 104.78C496.683 104.502 496.646 104.24 496.574 103.994C496.505 103.743 496.403 103.525 496.266 103.338C496.129 103.151 495.958 103.005 495.753 102.9C495.553 102.791 495.32 102.736 495.056 102.736Z" fill="#C7A5FA"/>
<g clip-path="url(#clip6_2029_9012)">
<rect x="482.97" y="134.5" width="15" height="15" stroke="#C7A5FA" stroke-opacity="0.5" stroke-dasharray="4 4"/>
</g>
<g clip-path="url(#clip7_2029_9012)">
<line x1="506.329" y1="130" x2="506.329" y2="115" stroke="#C7A5FA"/>
<line x1="505.829" y1="122.5" x2="655.829" y2="122.5" stroke="#C7A5FA"/>
<line x1="655.329" y1="130" x2="655.329" y2="115" stroke="#C7A5FA"/>
</g>
<path d="M574.01 108.375H572.363V100.445L569.813 101.382V99.9395L573.908 98.4219H574.01V108.375ZM578.102 103.439L578.635 98.4219H583.987V99.8711H579.995L579.735 102.257C579.899 102.161 580.114 102.07 580.378 101.983C580.647 101.897 580.954 101.854 581.301 101.854C581.77 101.854 582.189 101.931 582.559 102.086C582.932 102.241 583.249 102.462 583.509 102.749C583.764 103.041 583.96 103.394 584.097 103.809C584.233 104.219 584.302 104.681 584.302 105.196C584.302 105.652 584.236 106.083 584.104 106.488C583.976 106.889 583.778 107.24 583.509 107.541C583.244 107.842 582.91 108.079 582.504 108.252C582.098 108.425 581.62 108.512 581.068 108.512C580.649 108.512 580.248 108.452 579.865 108.334C579.482 108.211 579.143 108.029 578.847 107.787C578.55 107.55 578.307 107.256 578.115 106.905C577.928 106.55 577.821 106.142 577.794 105.682H579.387C579.446 106.169 579.624 106.543 579.92 106.803C580.221 107.062 580.604 107.192 581.068 107.192C581.342 107.192 581.579 107.142 581.779 107.042C581.98 106.942 582.148 106.8 582.285 106.618C582.413 106.44 582.508 106.226 582.572 105.976C582.636 105.72 582.668 105.445 582.668 105.148C582.668 104.861 582.629 104.599 582.552 104.362C582.479 104.121 582.367 103.911 582.217 103.733C582.066 103.556 581.88 103.419 581.656 103.323C581.433 103.223 581.173 103.173 580.877 103.173C580.681 103.173 580.51 103.189 580.364 103.221C580.223 103.253 580.098 103.294 579.988 103.344C579.874 103.398 579.77 103.462 579.674 103.535C579.583 103.604 579.494 103.679 579.407 103.761L578.102 103.439ZM592.508 104.581C592.508 105.219 592.433 105.784 592.283 106.276C592.137 106.764 591.925 107.172 591.647 107.5C591.374 107.837 591.036 108.092 590.635 108.266C590.239 108.434 589.788 108.519 589.282 108.519C588.781 108.519 588.329 108.434 587.928 108.266C587.527 108.092 587.188 107.837 586.91 107.5C586.627 107.172 586.411 106.764 586.26 106.276C586.115 105.784 586.042 105.219 586.042 104.581V102.223C586.042 101.585 586.115 101.022 586.26 100.534C586.411 100.042 586.625 99.6273 586.903 99.29C587.181 98.9574 587.518 98.7067 587.915 98.5381C588.316 98.3649 588.767 98.2783 589.268 98.2783C589.774 98.2783 590.225 98.3649 590.622 98.5381C591.023 98.7067 591.365 98.9574 591.647 99.29C591.921 99.6273 592.132 100.042 592.283 100.534C592.433 101.022 592.508 101.585 592.508 102.223V104.581ZM587.682 104L590.847 101.601C590.829 101.245 590.779 100.938 590.697 100.678C590.619 100.418 590.508 100.206 590.362 100.042C590.234 99.8962 590.077 99.7868 589.89 99.7139C589.708 99.641 589.501 99.6045 589.268 99.6045C589.018 99.6045 588.797 99.6478 588.605 99.7344C588.414 99.821 588.254 99.9486 588.127 100.117C587.976 100.309 587.865 100.557 587.792 100.862C587.719 101.163 587.682 101.519 587.682 101.929V103.269C587.682 103.442 587.682 103.574 587.682 103.665C587.682 103.756 587.682 103.868 587.682 104ZM590.861 104.854V103.597C590.861 103.483 590.861 103.364 590.861 103.241C590.861 103.118 590.861 102.991 590.861 102.858L587.696 105.244C587.719 105.559 587.767 105.837 587.839 106.078C587.917 106.32 588.02 106.52 588.147 106.68C588.275 106.853 588.432 106.983 588.619 107.069C588.81 107.156 589.031 107.199 589.282 107.199C589.528 107.199 589.744 107.158 589.931 107.076C590.118 106.99 590.278 106.864 590.41 106.7C590.56 106.509 590.672 106.258 590.745 105.948C590.822 105.638 590.861 105.274 590.861 104.854Z" fill="#C7A5FA"/>
<g clip-path="url(#clip8_2029_9012)">
<line x1="410.597" y1="195" x2="410.597" y2="180" stroke="#C7A5FA"/>
<line x1="410.097" y1="187.5" x2="570.097" y2="187.5" stroke="#C7A5FA"/>
<line x1="569.597" y1="195" x2="569.597" y2="180" stroke="#C7A5FA"/>
</g>
<path d="M470.704 212.375H469.057V204.445L466.507 205.382V203.939L470.602 202.422H470.704V212.375ZM479.431 202.374V203.762H479.321C478.779 203.762 478.307 203.837 477.906 203.987C477.51 204.133 477.175 204.338 476.901 204.603C476.623 204.867 476.407 205.184 476.252 205.553C476.102 205.922 476.008 206.318 475.972 206.742C476.081 206.619 476.209 206.501 476.355 206.387C476.5 206.268 476.662 206.163 476.84 206.072C477.009 205.986 477.195 205.917 477.4 205.867C477.606 205.812 477.822 205.785 478.05 205.785C478.533 205.785 478.952 205.876 479.308 206.059C479.668 206.241 479.964 206.487 480.196 206.797C480.433 207.107 480.606 207.462 480.716 207.863C480.83 208.264 480.887 208.681 480.887 209.114C480.887 209.588 480.814 210.033 480.668 210.447C480.527 210.857 480.319 211.215 480.046 211.521C479.768 211.83 479.428 212.074 479.027 212.252C478.631 212.425 478.177 212.512 477.667 212.512C477.143 212.512 476.676 212.411 476.266 212.211C475.856 212.01 475.509 211.739 475.227 211.397C474.926 211.042 474.698 210.625 474.543 210.146C474.388 209.663 474.311 209.155 474.311 208.622V207.945C474.311 207.143 474.413 206.38 474.618 205.655C474.828 204.926 475.174 204.299 475.657 203.775C476.067 203.324 476.573 202.978 477.175 202.736C477.776 202.495 478.465 202.374 479.239 202.374H479.431ZM477.647 207.111C477.451 207.111 477.264 207.141 477.086 207.2C476.908 207.259 476.744 207.341 476.594 207.446C476.457 207.551 476.334 207.672 476.225 207.809C476.115 207.945 476.024 208.098 475.951 208.267V208.772C475.951 209.169 475.995 209.518 476.081 209.818C476.172 210.119 476.295 210.37 476.45 210.57C476.605 210.771 476.785 210.924 476.99 211.028C477.195 211.133 477.414 211.186 477.647 211.186C477.902 211.186 478.13 211.135 478.33 211.035C478.531 210.93 478.702 210.789 478.843 210.611C478.984 210.429 479.091 210.215 479.164 209.969C479.237 209.718 479.273 209.447 479.273 209.155C479.273 208.877 479.237 208.615 479.164 208.369C479.096 208.118 478.993 207.9 478.856 207.713C478.72 207.526 478.549 207.38 478.344 207.275C478.143 207.166 477.911 207.111 477.647 207.111ZM489.203 208.581C489.203 209.219 489.128 209.784 488.977 210.276C488.831 210.764 488.619 211.172 488.341 211.5C488.068 211.837 487.731 212.092 487.33 212.266C486.933 212.434 486.482 212.519 485.976 212.519C485.475 212.519 485.024 212.434 484.623 212.266C484.222 212.092 483.882 211.837 483.604 211.5C483.322 211.172 483.105 210.764 482.955 210.276C482.809 209.784 482.736 209.219 482.736 208.581V206.223C482.736 205.585 482.809 205.022 482.955 204.534C483.105 204.042 483.319 203.627 483.597 203.29C483.875 202.957 484.213 202.707 484.609 202.538C485.01 202.365 485.461 202.278 485.963 202.278C486.468 202.278 486.92 202.365 487.316 202.538C487.717 202.707 488.059 202.957 488.341 203.29C488.615 203.627 488.827 204.042 488.977 204.534C489.128 205.022 489.203 205.585 489.203 206.223V208.581ZM484.377 208L487.542 205.601C487.523 205.245 487.473 204.938 487.391 204.678C487.314 204.418 487.202 204.206 487.056 204.042C486.929 203.896 486.771 203.787 486.585 203.714C486.402 203.641 486.195 203.604 485.963 203.604C485.712 203.604 485.491 203.648 485.299 203.734C485.108 203.821 484.949 203.949 484.821 204.117C484.671 204.309 484.559 204.557 484.486 204.862C484.413 205.163 484.377 205.519 484.377 205.929V207.269C484.377 207.442 484.377 207.574 484.377 207.665C484.377 207.756 484.377 207.868 484.377 208ZM487.555 208.854V207.597C487.555 207.483 487.555 207.364 487.555 207.241C487.555 207.118 487.555 206.991 487.555 206.858L484.39 209.244C484.413 209.559 484.461 209.837 484.534 210.078C484.611 210.32 484.714 210.52 484.841 210.68C484.969 210.853 485.126 210.983 485.313 211.069C485.505 211.156 485.726 211.199 485.976 211.199C486.222 211.199 486.439 211.158 486.626 211.076C486.813 210.99 486.972 210.864 487.104 210.7C487.255 210.509 487.366 210.258 487.439 209.948C487.517 209.638 487.555 209.274 487.555 208.854ZM491.1 215.219V204.979H492.604L492.665 205.737C492.766 205.614 492.875 205.503 492.993 205.402C493.112 205.302 493.24 205.215 493.376 205.143C493.554 205.047 493.75 204.974 493.964 204.924C494.178 204.869 494.406 204.842 494.648 204.842C495.122 204.842 495.539 204.933 495.899 205.115C496.263 205.298 496.569 205.555 496.815 205.888C497.056 206.22 497.241 206.619 497.368 207.084C497.496 207.544 497.56 208.052 497.56 208.608V208.752C497.56 209.285 497.496 209.782 497.368 210.242C497.245 210.702 497.061 211.099 496.815 211.432C496.569 211.769 496.266 212.033 495.906 212.225C495.546 212.416 495.133 212.512 494.668 212.512C494.404 212.512 494.16 212.484 493.937 212.43C493.718 212.375 493.515 212.295 493.328 212.19C493.219 212.127 493.114 212.054 493.014 211.972C492.914 211.89 492.82 211.801 492.734 211.705V215.219H491.1ZM495.926 208.608C495.926 208.276 495.892 207.964 495.824 207.672C495.76 207.376 495.659 207.118 495.523 206.899C495.381 206.681 495.201 206.507 494.983 206.38C494.764 206.252 494.502 206.188 494.197 206.188C494.028 206.188 493.871 206.207 493.725 206.243C493.579 206.28 493.449 206.332 493.335 206.4C493.203 206.473 493.087 206.564 492.987 206.674C492.891 206.783 492.807 206.906 492.734 207.043V210.331C492.798 210.459 492.875 210.575 492.966 210.68C493.057 210.785 493.162 210.876 493.281 210.953C493.404 211.026 493.543 211.085 493.698 211.131C493.853 211.172 494.023 211.192 494.21 211.192C494.516 211.192 494.775 211.129 494.99 211.001C495.208 210.869 495.386 210.691 495.523 210.468C495.664 210.24 495.767 209.98 495.83 209.688C495.894 209.392 495.926 209.08 495.926 208.752V208.608ZM502.602 207.467L504.372 204.979H506.184L503.586 208.622L506.266 212.375H504.461L502.615 209.791L500.776 212.375H498.965L501.644 208.622L499.054 204.979H500.852L502.602 207.467ZM422.14 224.328C422.14 223.686 422.19 223.079 422.29 222.51C422.39 221.936 422.525 221.405 422.693 220.917C422.866 220.438 423.065 219.999 423.288 219.598C423.516 219.197 423.755 218.841 424.006 218.531C424.252 218.221 424.505 217.959 424.765 217.745C425.024 217.526 425.275 217.358 425.516 217.239L425.845 218.189C425.699 218.299 425.553 218.431 425.407 218.586C425.261 218.741 425.118 218.916 424.976 219.112C424.78 219.39 424.596 219.716 424.423 220.09C424.254 220.464 424.108 220.871 423.985 221.313C423.871 221.728 423.78 222.186 423.712 222.688C423.648 223.189 423.616 223.731 423.616 224.314V224.458C423.616 225.028 423.648 225.559 423.712 226.051C423.776 226.538 423.851 226.953 423.937 227.295C424.047 227.705 424.172 228.086 424.313 228.437C424.459 228.787 424.612 229.097 424.771 229.366C424.94 229.64 425.115 229.881 425.298 230.091C425.48 230.3 425.662 230.476 425.845 230.617L425.516 231.533C425.275 231.415 425.024 231.246 424.765 231.027C424.505 230.813 424.25 230.551 423.999 230.241C423.748 229.931 423.509 229.576 423.281 229.175C423.058 228.778 422.862 228.336 422.693 227.849C422.525 227.366 422.39 226.841 422.29 226.276C422.19 225.707 422.14 225.096 422.14 224.444V224.328ZM435.022 224.137H430.811V228.375H429.157V218.422H435.624V219.782H430.811V222.783H435.022V224.137ZM437.719 220.979H441.643V227.021H443.817V228.375H437.719V227.021H439.995V222.339H437.719V220.979ZM439.845 219.064C439.845 218.932 439.868 218.812 439.913 218.702C439.959 218.588 440.025 218.49 440.111 218.408C440.194 218.331 440.291 218.271 440.405 218.23C440.524 218.185 440.656 218.162 440.802 218.162C441.048 218.162 441.246 218.226 441.397 218.354C441.552 218.477 441.64 218.636 441.663 218.832C441.695 219.033 441.661 219.208 441.561 219.358C441.46 219.504 441.315 219.602 441.123 219.652C441.028 219.739 440.914 219.796 440.781 219.823C440.649 219.851 440.503 219.839 440.344 219.789C440.18 219.739 440.055 219.65 439.968 219.522C439.886 219.39 439.845 219.238 439.845 219.064ZM448.858 223.467L450.629 220.979H452.44L449.843 224.622L452.522 228.375H450.718L448.872 225.791L447.033 228.375H445.221L447.901 224.622L445.31 220.979H447.108L448.858 223.467ZM457.331 228.512C456.785 228.512 456.283 228.421 455.828 228.238C455.376 228.056 454.989 227.803 454.665 227.479C454.342 227.16 454.091 226.785 453.914 226.352C453.74 225.914 453.654 225.442 453.654 224.937V224.656C453.654 224.077 453.745 223.553 453.927 223.084C454.109 222.615 454.36 222.214 454.679 221.881C454.998 221.548 455.367 221.293 455.787 221.115C456.21 220.933 456.662 220.842 457.14 220.842C457.673 220.842 458.145 220.933 458.555 221.115C458.965 221.293 459.309 221.541 459.587 221.86C459.865 222.184 460.075 222.569 460.216 223.016C460.358 223.462 460.428 223.95 460.428 224.479V225.183H455.301V225.217C455.351 225.54 455.429 225.812 455.534 226.03C455.638 226.249 455.782 226.445 455.964 226.618C456.147 226.8 456.361 226.942 456.607 227.042C456.858 227.142 457.131 227.192 457.427 227.192C457.833 227.192 458.211 227.115 458.562 226.96C458.913 226.8 459.202 226.575 459.43 226.283L460.305 227.131C460.059 227.486 459.681 227.805 459.17 228.088C458.664 228.37 458.052 228.512 457.331 228.512ZM457.133 222.168C456.901 222.168 456.684 222.211 456.484 222.298C456.288 222.38 456.112 222.498 455.957 222.653C455.803 222.813 455.673 223.004 455.568 223.228C455.463 223.451 455.386 223.704 455.335 223.986H458.815V223.877C458.815 223.663 458.776 223.451 458.699 223.241C458.621 223.027 458.512 222.84 458.371 222.681C458.234 222.526 458.061 222.403 457.851 222.312C457.646 222.216 457.407 222.168 457.133 222.168ZM461.929 224.622C461.929 224.062 461.995 223.551 462.127 223.091C462.264 222.626 462.46 222.227 462.715 221.895C462.966 221.562 463.271 221.304 463.631 221.122C463.996 220.935 464.406 220.842 464.861 220.842C465.272 220.842 465.629 220.915 465.935 221.061C466.245 221.202 466.518 221.405 466.755 221.669V217.875H468.389V228.375H466.905L466.83 227.603C466.593 227.894 466.311 228.12 465.983 228.279C465.654 228.434 465.276 228.512 464.848 228.512C464.397 228.512 463.991 228.418 463.631 228.231C463.271 228.04 462.966 227.776 462.715 227.438C462.464 227.106 462.271 226.712 462.134 226.256C461.997 225.796 461.929 225.299 461.929 224.766V224.622ZM463.563 224.766C463.563 225.094 463.594 225.404 463.658 225.695C463.722 225.987 463.822 226.24 463.959 226.454C464.096 226.677 464.271 226.853 464.485 226.98C464.7 227.104 464.957 227.165 465.258 227.165C465.627 227.165 465.932 227.085 466.174 226.926C466.415 226.762 466.609 226.541 466.755 226.263V223.084C466.609 222.811 466.415 222.594 466.174 222.435C465.937 222.271 465.636 222.188 465.272 222.188C464.966 222.188 464.704 222.252 464.485 222.38C464.271 222.507 464.098 222.683 463.966 222.906C463.825 223.13 463.722 223.389 463.658 223.686C463.594 223.977 463.563 224.289 463.563 224.622V224.766ZM480.591 218.422L481.822 222.681L483.182 218.422H485.226V228.375H483.681V224.998L483.777 220.555L482.245 225.306H481.391L480.003 220.719L480.092 224.998V228.375H478.554V218.422H480.591ZM491.676 228.375C491.626 228.284 491.585 228.174 491.553 228.047C491.525 227.915 491.5 227.778 491.478 227.637C491.364 227.755 491.234 227.869 491.088 227.979C490.947 228.083 490.787 228.174 490.609 228.252C490.432 228.334 490.24 228.398 490.035 228.443C489.83 228.489 489.609 228.512 489.372 228.512C488.989 228.512 488.638 228.457 488.319 228.348C488.005 228.234 487.736 228.079 487.513 227.883C487.285 227.691 487.107 227.461 486.979 227.192C486.856 226.919 486.795 226.625 486.795 226.311C486.795 225.905 486.875 225.547 487.034 225.237C487.198 224.923 487.435 224.663 487.745 224.458C488.032 224.267 488.385 224.121 488.805 224.021C489.229 223.92 489.707 223.87 490.24 223.87H491.43V223.371C491.43 223.18 491.396 223.007 491.327 222.852C491.263 222.697 491.17 222.562 491.047 222.448C490.915 222.334 490.753 222.248 490.562 222.188C490.375 222.125 490.158 222.093 489.912 222.093C489.689 222.093 489.493 222.12 489.324 222.175C489.16 222.229 489.023 222.305 488.914 222.4C488.805 222.487 488.723 222.594 488.668 222.722C488.618 222.845 488.593 222.977 488.593 223.118H486.952C486.957 222.822 487.027 222.537 487.164 222.264C487.301 221.99 487.501 221.749 487.766 221.539C488.021 221.325 488.335 221.156 488.709 221.033C489.087 220.906 489.518 220.842 490.001 220.842C490.434 220.842 490.837 220.896 491.211 221.006C491.589 221.111 491.915 221.268 492.188 221.478C492.462 221.687 492.676 221.954 492.831 222.277C492.986 222.596 493.063 222.965 493.063 223.385V226.673C493.063 227.006 493.086 227.306 493.132 227.575C493.182 227.84 493.253 228.067 493.344 228.259V228.375H491.676ZM489.687 227.199C489.901 227.199 490.099 227.172 490.281 227.117C490.468 227.062 490.637 226.992 490.787 226.905C490.938 226.819 491.067 226.721 491.177 226.611C491.286 226.502 491.37 226.388 491.43 226.27V224.902H490.377C490.021 224.902 489.714 224.937 489.454 225.005C489.194 225.069 488.987 225.162 488.832 225.285C488.695 225.39 488.593 225.515 488.524 225.661C488.461 225.807 488.429 225.971 488.429 226.153C488.429 226.304 488.456 226.445 488.511 226.577C488.565 226.705 488.645 226.814 488.75 226.905C488.855 226.996 488.985 227.069 489.14 227.124C489.295 227.174 489.477 227.199 489.687 227.199ZM498.467 223.467L500.238 220.979H502.049L499.452 224.622L502.131 228.375H500.327L498.481 225.791L496.642 228.375H494.831L497.51 224.622L494.92 220.979H496.717L498.467 223.467ZM512.31 228.375L511.012 218.422H512.536L513.22 224.533L513.268 224.923L513.336 224.513L514.293 218.422H515.551L516.542 224.54L516.61 224.95L516.658 224.533L517.349 218.422H518.88L517.567 228.375H516.016L515.004 222.284L514.935 221.812L514.86 222.284L513.862 228.375H512.31ZM520.401 220.979H524.325V227.021H526.499V228.375H520.401V227.021H522.677V222.339H520.401V220.979ZM522.527 219.064C522.527 218.932 522.55 218.812 522.595 218.702C522.641 218.588 522.707 218.49 522.794 218.408C522.876 218.331 522.974 218.271 523.087 218.23C523.206 218.185 523.338 218.162 523.484 218.162C523.73 218.162 523.928 218.226 524.079 218.354C524.234 218.477 524.322 218.636 524.345 218.832C524.377 219.033 524.343 219.208 524.243 219.358C524.142 219.504 523.997 219.602 523.805 219.652C523.71 219.739 523.596 219.796 523.463 219.823C523.331 219.851 523.185 219.839 523.026 219.789C522.862 219.739 522.737 219.65 522.65 219.522C522.568 219.39 522.527 219.238 522.527 219.064ZM528.074 224.622C528.074 224.062 528.14 223.551 528.273 223.091C528.409 222.626 528.605 222.227 528.861 221.895C529.111 221.562 529.417 221.304 529.777 221.122C530.141 220.935 530.551 220.842 531.007 220.842C531.417 220.842 531.775 220.915 532.08 221.061C532.39 221.202 532.664 221.405 532.901 221.669V217.875H534.534V228.375H533.051L532.976 227.603C532.739 227.894 532.456 228.12 532.128 228.279C531.8 228.434 531.422 228.512 530.993 228.512C530.542 228.512 530.137 228.418 529.777 228.231C529.417 228.04 529.111 227.776 528.861 227.438C528.61 227.106 528.416 226.712 528.279 226.256C528.143 225.796 528.074 225.299 528.074 224.766V224.622ZM529.708 224.766C529.708 225.094 529.74 225.404 529.804 225.695C529.868 225.987 529.968 226.24 530.105 226.454C530.241 226.677 530.417 226.853 530.631 226.98C530.845 227.104 531.103 227.165 531.404 227.165C531.773 227.165 532.078 227.085 532.32 226.926C532.561 226.762 532.755 226.541 532.901 226.263V223.084C532.755 222.811 532.561 222.594 532.32 222.435C532.083 222.271 531.782 222.188 531.417 222.188C531.112 222.188 530.85 222.252 530.631 222.38C530.417 222.507 530.244 222.683 530.112 222.906C529.97 223.13 529.868 223.389 529.804 223.686C529.74 223.977 529.708 224.289 529.708 224.622V224.766ZM539.843 219.174V220.979H542.625V222.202H539.843V225.736C539.843 226.01 539.875 226.24 539.938 226.427C540.007 226.609 540.1 226.753 540.219 226.857C540.337 226.967 540.478 227.044 540.642 227.09C540.806 227.135 540.987 227.158 541.182 227.158C541.324 227.158 541.47 227.151 541.62 227.138C541.77 227.124 541.916 227.106 542.057 227.083C542.194 227.065 542.322 227.044 542.44 227.021C542.563 226.994 542.666 226.971 542.748 226.953L542.926 228.081C542.807 228.154 542.664 228.218 542.495 228.272C542.331 228.323 542.153 228.366 541.962 228.402C541.77 228.439 541.57 228.466 541.36 228.484C541.155 228.507 540.95 228.519 540.745 228.519C540.371 228.519 540.027 228.468 539.713 228.368C539.403 228.263 539.136 228.102 538.913 227.883C538.69 227.669 538.514 227.393 538.387 227.056C538.264 226.718 538.202 226.313 538.202 225.839V222.202H536.411V220.979H538.202V219.174H539.843ZM546.463 222.031C546.559 221.885 546.666 221.751 546.785 221.628C546.903 221.505 547.028 221.398 547.161 221.307C547.366 221.156 547.591 221.042 547.837 220.965C548.088 220.883 548.352 220.842 548.63 220.842C549.018 220.842 549.371 220.899 549.69 221.013C550.013 221.127 550.289 221.304 550.517 221.546C550.745 221.787 550.92 222.097 551.043 222.476C551.171 222.849 551.235 223.298 551.235 223.822V228.375H549.601V223.809C549.601 223.535 549.567 223.296 549.499 223.091C549.435 222.886 549.339 222.719 549.211 222.592C549.079 222.455 548.917 222.355 548.726 222.291C548.539 222.223 548.323 222.188 548.077 222.188C547.885 222.188 547.703 222.211 547.53 222.257C547.361 222.302 547.206 222.368 547.065 222.455C546.946 222.523 546.835 222.605 546.73 222.701C546.63 222.797 546.541 222.904 546.463 223.022V228.375H544.83V217.875H546.463V222.031ZM557.972 224.444C557.972 225.082 557.919 225.684 557.815 226.249C557.714 226.814 557.578 227.338 557.404 227.821C557.231 228.309 557.031 228.753 556.803 229.154C556.575 229.555 556.333 229.911 556.078 230.221C555.823 230.54 555.563 230.809 555.299 231.027C555.035 231.246 554.779 231.415 554.533 231.533L554.212 230.617C554.385 230.49 554.558 230.328 554.732 230.132C554.905 229.936 555.073 229.71 555.237 229.455C555.411 229.173 555.572 228.851 555.723 228.491C555.878 228.136 556.008 227.742 556.112 227.309C556.213 226.908 556.29 226.47 556.345 225.996C556.404 225.522 556.434 225.009 556.434 224.458V224.314C556.434 223.745 556.402 223.221 556.338 222.742C556.274 222.264 556.194 221.835 556.099 221.457C555.971 220.965 555.816 220.523 555.634 220.131C555.456 219.739 555.269 219.399 555.073 219.112C554.937 218.907 554.793 218.725 554.643 218.565C554.497 218.401 554.353 218.265 554.212 218.155L554.533 217.239C554.779 217.358 555.035 217.529 555.299 217.752C555.568 217.971 555.828 218.235 556.078 218.545C556.338 218.864 556.582 219.224 556.81 219.625C557.038 220.021 557.236 220.464 557.404 220.951C557.573 221.434 557.71 221.956 557.815 222.517C557.919 223.073 557.972 223.676 557.972 224.328V224.444Z" fill="#C7A5FA"/>
<rect x="410.487" y="160.25" width="159" height="18.7499" stroke="#643ABD"/>
<g opacity="0.5">
<g clip-path="url(#clip9_2029_9012)">
<rect width="7.78753" height="20" transform="translate(680.712 128.5)" fill="#30C9B0" fill-opacity="0.5"/>
<rect x="680.712" y="128.5" width="7.78753" height="20" fill="#30C9B0" fill-opacity="0.5"/>
</g>
</g>
<g clip-path="url(#clip10_2029_9012)">
<line x1="681" y1="124.5" x2="681" y2="109.5" stroke="#30C9B0"/>
<line x1="680.5" y1="117" x2="688.288" y2="117" stroke="#30C9B0"/>
<line x1="688" y1="124.5" x2="688" y2="109.5" stroke="#30C9B0"/>
</g>
<path d="M687.929 95.1719C687.929 95.4727 687.879 95.7529 687.779 96.0127C687.683 96.2725 687.547 96.5049 687.369 96.71C687.259 96.8421 687.134 96.9652 686.993 97.0791C686.852 97.193 686.694 97.2933 686.521 97.3799C686.726 97.4756 686.915 97.5872 687.088 97.7148C687.266 97.8379 687.421 97.9814 687.553 98.1455C687.74 98.3643 687.886 98.6126 687.991 98.8906C688.096 99.1686 688.148 99.4694 688.148 99.793C688.148 100.253 688.064 100.661 687.895 101.017C687.727 101.372 687.496 101.668 687.205 101.905C686.908 102.147 686.562 102.329 686.166 102.452C685.774 102.575 685.35 102.637 684.894 102.637C684.429 102.637 683.996 102.575 683.595 102.452C683.199 102.329 682.855 102.147 682.563 101.905C682.267 101.668 682.034 101.374 681.866 101.023C681.702 100.668 681.62 100.258 681.62 99.793C681.62 99.5195 681.656 99.2598 681.729 99.0137C681.807 98.7676 681.916 98.5397 682.057 98.3301C682.199 98.1296 682.367 97.9495 682.563 97.79C682.764 97.626 682.987 97.487 683.233 97.373C683.023 97.2682 682.832 97.1406 682.659 96.9902C682.49 96.8398 682.347 96.6735 682.228 96.4912C682.105 96.3044 682.009 96.0993 681.941 95.876C681.873 95.6527 681.838 95.418 681.838 95.1719C681.838 94.7298 681.914 94.3379 682.064 93.9961C682.219 93.6543 682.431 93.3649 682.7 93.1279C682.964 92.891 683.281 92.7132 683.65 92.5947C684.024 92.4717 684.432 92.4102 684.874 92.4102C685.311 92.4102 685.714 92.4717 686.084 92.5947C686.457 92.7132 686.783 92.891 687.061 93.1279C687.33 93.3604 687.542 93.6497 687.697 93.9961C687.852 94.3379 687.929 94.7298 687.929 95.1719ZM686.514 99.7041C686.514 99.458 686.473 99.2347 686.391 99.0342C686.314 98.8291 686.204 98.6514 686.063 98.501C685.917 98.3597 685.744 98.2503 685.544 98.1729C685.343 98.0954 685.122 98.0566 684.88 98.0566C684.63 98.0566 684.404 98.0954 684.204 98.1729C684.008 98.2503 683.839 98.3597 683.698 98.501C683.557 98.6514 683.447 98.8291 683.37 99.0342C683.297 99.2347 683.26 99.4603 683.26 99.7109C683.26 99.9661 683.299 100.196 683.377 100.401C683.454 100.602 683.566 100.771 683.712 100.907C683.853 101.039 684.021 101.142 684.217 101.215C684.418 101.283 684.644 101.317 684.894 101.317C685.131 101.317 685.348 101.281 685.544 101.208C685.744 101.135 685.917 101.03 686.063 100.894C686.2 100.752 686.309 100.584 686.391 100.388C686.473 100.187 686.514 99.9593 686.514 99.7041ZM686.302 95.2334C686.302 95.0101 686.266 94.8073 686.193 94.625C686.125 94.4427 686.029 94.2832 685.906 94.1465C685.778 94.0189 685.628 93.9186 685.455 93.8457C685.282 93.7728 685.086 93.7363 684.867 93.7363C684.653 93.7363 684.459 93.7728 684.286 93.8457C684.117 93.9141 683.971 94.012 683.848 94.1396C683.73 94.2673 683.639 94.4245 683.575 94.6113C683.511 94.7982 683.479 95.0055 683.479 95.2334C683.479 95.4567 683.511 95.6618 683.575 95.8486C683.639 96.0309 683.734 96.1859 683.862 96.3135C683.985 96.4456 684.133 96.5482 684.306 96.6211C684.479 96.694 684.673 96.7305 684.887 96.7305C685.102 96.7305 685.295 96.694 685.468 96.6211C685.642 96.5482 685.79 96.4456 685.913 96.3135C686.036 96.1859 686.131 96.0309 686.2 95.8486C686.268 95.6618 686.302 95.4567 686.302 95.2334Z" fill="#30C9B0"/>
<defs>
<clipPath id="clip0_2029_9012">
<rect width="449.555" height="8" fill="white" transform="translate(443.445 149.75)"/>
</clipPath>
<clipPath id="clip1_2029_9012">
<rect width="15" height="8" fill="white" transform="translate(420.445 149.75)"/>
</clipPath>
<clipPath id="clip2_2029_9012">
<rect width="160" height="21" fill="white" transform="translate(774.555 157.75)"/>
</clipPath>
<clipPath id="clip3_2029_9012">
<rect width="160" height="21" fill="white" transform="translate(592.555 157.75)"/>
</clipPath>
<clipPath id="clip4_2029_9012">
<rect width="160" height="21" fill="white" transform="translate(410.555 157.75)"/>
</clipPath>
<clipPath id="clip5_2029_9012">
<rect width="16" height="15" fill="white" transform="translate(482.47 115)"/>
</clipPath>
<clipPath id="clip6_2029_9012">
<rect width="16" height="16" fill="white" transform="translate(482.47 134)"/>
</clipPath>
<clipPath id="clip7_2029_9012">
<rect width="150" height="15" fill="white" transform="translate(505.829 115)"/>
</clipPath>
<clipPath id="clip8_2029_9012">
<rect width="160" height="15" fill="white" transform="translate(410.097 180)"/>
</clipPath>
<clipPath id="clip9_2029_9012">
<rect width="7.78753" height="20" fill="white" transform="translate(680.712 128.5)"/>
</clipPath>
<clipPath id="clip10_2029_9012">
<rect width="7.78753" height="15" fill="white" transform="translate(680.5 109.5)"/>
</clipPath>
</defs>
</svg>
