<svg width="1300" height="309" viewBox="0 0 1300 309" fill="none" xmlns="http://www.w3.org/2000/svg">
<rect width="1300" height="309" rx="20" fill="#262626"/>
<path d="M1131 143C1131 146.866 1127.87 150 1124 150C1120.13 150 1117 146.866 1117 143C1117 139.134 1120.13 136 1124 136C1127.87 136 1131 139.134 1131 143Z" stroke="#64B4FA" stroke-width="2"/>
<path d="M1107.27 174V163.818H1108.5V172.906H1113.23V174H1107.27ZM1117.23 174.179C1116.75 174.179 1116.31 174.088 1115.91 173.906C1115.52 173.72 1115.21 173.453 1114.97 173.105C1114.74 172.754 1114.63 172.33 1114.63 171.832C1114.63 171.395 1114.71 171.04 1114.88 170.768C1115.06 170.493 1115.29 170.278 1115.58 170.122C1115.86 169.966 1116.18 169.85 1116.53 169.774C1116.88 169.695 1117.23 169.632 1117.59 169.585C1118.05 169.526 1118.43 169.481 1118.72 169.451C1119.01 169.418 1119.22 169.363 1119.35 169.287C1119.49 169.211 1119.56 169.078 1119.56 168.889V168.849C1119.56 168.359 1119.42 167.978 1119.16 167.706C1118.89 167.434 1118.49 167.298 1117.95 167.298C1117.39 167.298 1116.95 167.421 1116.63 167.666C1116.31 167.911 1116.09 168.173 1115.96 168.452L1114.84 168.054C1115.04 167.59 1115.31 167.229 1115.64 166.97C1115.98 166.708 1116.34 166.526 1116.73 166.423C1117.13 166.317 1117.52 166.264 1117.91 166.264C1118.15 166.264 1118.43 166.294 1118.75 166.354C1119.07 166.41 1119.38 166.528 1119.68 166.707C1119.98 166.886 1120.23 167.156 1120.43 167.517C1120.63 167.878 1120.73 168.362 1120.73 168.969V174H1119.56V172.966H1119.5C1119.42 173.132 1119.29 173.309 1119.1 173.498C1118.91 173.687 1118.67 173.848 1118.36 173.98C1118.05 174.113 1117.68 174.179 1117.23 174.179ZM1117.41 173.125C1117.87 173.125 1118.27 173.034 1118.58 172.852C1118.9 172.669 1119.15 172.434 1119.31 172.146C1119.48 171.857 1119.56 171.554 1119.56 171.236V170.162C1119.51 170.222 1119.4 170.276 1119.23 170.326C1119.06 170.372 1118.87 170.414 1118.65 170.45C1118.44 170.483 1118.23 170.513 1118.02 170.54C1117.82 170.563 1117.66 170.583 1117.53 170.599C1117.22 170.639 1116.94 170.704 1116.67 170.793C1116.41 170.879 1116.2 171.01 1116.04 171.186C1115.88 171.358 1115.8 171.594 1115.8 171.892C1115.8 172.3 1115.95 172.608 1116.25 172.817C1116.56 173.022 1116.94 173.125 1117.41 173.125ZM1123.03 174V163.818H1124.21V167.577H1124.3C1124.39 167.444 1124.51 167.275 1124.66 167.07C1124.82 166.861 1125.04 166.675 1125.33 166.513C1125.62 166.347 1126.01 166.264 1126.51 166.264C1127.15 166.264 1127.72 166.425 1128.21 166.746C1128.7 167.068 1129.09 167.524 1129.36 168.114C1129.64 168.704 1129.77 169.4 1129.77 170.202C1129.77 171.01 1129.64 171.711 1129.36 172.305C1129.09 172.895 1128.7 173.352 1128.22 173.677C1127.73 173.998 1127.17 174.159 1126.53 174.159C1126.04 174.159 1125.65 174.078 1125.35 173.915C1125.06 173.75 1124.83 173.562 1124.67 173.354C1124.51 173.142 1124.39 172.966 1124.3 172.827H1124.17V174H1123.03ZM1124.19 170.182C1124.19 170.759 1124.27 171.267 1124.44 171.708C1124.61 172.146 1124.85 172.489 1125.18 172.737C1125.5 172.982 1125.9 173.105 1126.37 173.105C1126.86 173.105 1127.27 172.976 1127.6 172.717C1127.93 172.455 1128.18 172.104 1128.35 171.663C1128.52 171.219 1128.6 170.725 1128.6 170.182C1128.6 169.645 1128.52 169.161 1128.35 168.73C1128.19 168.296 1127.94 167.953 1127.61 167.701C1127.28 167.446 1126.87 167.318 1126.37 167.318C1125.9 167.318 1125.49 167.439 1125.17 167.681C1124.84 167.92 1124.6 168.254 1124.43 168.685C1124.27 169.113 1124.19 169.612 1124.19 170.182ZM1134.77 174.159C1134.03 174.159 1133.4 173.997 1132.87 173.672C1132.34 173.344 1131.93 172.886 1131.64 172.3C1131.35 171.71 1131.21 171.024 1131.21 170.241C1131.21 169.459 1131.35 168.77 1131.64 168.173C1131.93 167.573 1132.33 167.106 1132.84 166.771C1133.36 166.433 1133.96 166.264 1134.65 166.264C1135.05 166.264 1135.44 166.33 1135.83 166.463C1136.22 166.596 1136.57 166.811 1136.89 167.109C1137.21 167.404 1137.46 167.795 1137.65 168.283C1137.84 168.77 1137.93 169.37 1137.93 170.082V170.58H1132.05V169.565H1136.74C1136.74 169.134 1136.65 168.75 1136.48 168.412C1136.31 168.074 1136.07 167.807 1135.75 167.612C1135.44 167.416 1135.07 167.318 1134.65 167.318C1134.18 167.318 1133.78 167.434 1133.44 167.666C1133.1 167.895 1132.84 168.193 1132.66 168.561C1132.47 168.929 1132.38 169.323 1132.38 169.744V170.42C1132.38 170.997 1132.48 171.486 1132.68 171.887C1132.88 172.285 1133.16 172.588 1133.52 172.797C1133.88 173.002 1134.3 173.105 1134.77 173.105C1135.08 173.105 1135.36 173.062 1135.6 172.976C1135.86 172.886 1136.07 172.754 1136.26 172.578C1136.44 172.399 1136.58 172.177 1136.68 171.912L1137.81 172.23C1137.69 172.615 1137.49 172.953 1137.21 173.244C1136.93 173.533 1136.58 173.758 1136.17 173.92C1135.75 174.08 1135.29 174.159 1134.77 174.159ZM1140.89 163.818V174H1139.72V163.818H1140.89Z" fill="white" fill-opacity="0.7"/>
<rect x="958" y="142" width="150" height="2" fill="#8F8F8F"/>
<path d="M949 143C949 146.866 945.866 150 942 150C938.134 150 935 146.866 935 143C935 139.134 938.134 136 942 136C945.866 136 949 139.134 949 143Z" stroke="#64B4FA" stroke-width="2"/>
<path d="M925.268 174V163.818H926.501V172.906H931.234V174H925.268ZM935.231 174.179C934.747 174.179 934.308 174.088 933.914 173.906C933.519 173.72 933.206 173.453 932.974 173.105C932.742 172.754 932.626 172.33 932.626 171.832C932.626 171.395 932.712 171.04 932.885 170.768C933.057 170.493 933.287 170.278 933.576 170.122C933.864 169.966 934.182 169.85 934.53 169.774C934.882 169.695 935.234 169.632 935.589 169.585C936.053 169.526 936.429 169.481 936.718 169.451C937.009 169.418 937.221 169.363 937.354 169.287C937.49 169.211 937.558 169.078 937.558 168.889V168.849C937.558 168.359 937.424 167.978 937.155 167.706C936.89 167.434 936.487 167.298 935.947 167.298C935.387 167.298 934.948 167.421 934.63 167.666C934.311 167.911 934.088 168.173 933.958 168.452L932.845 168.054C933.044 167.59 933.309 167.229 933.64 166.97C933.975 166.708 934.34 166.526 934.734 166.423C935.132 166.317 935.523 166.264 935.907 166.264C936.153 166.264 936.434 166.294 936.752 166.354C937.074 166.41 937.384 166.528 937.682 166.707C937.984 166.886 938.234 167.156 938.433 167.517C938.632 167.878 938.731 168.362 938.731 168.969V174H937.558V172.966H937.498C937.419 173.132 937.286 173.309 937.1 173.498C936.915 173.687 936.668 173.848 936.36 173.98C936.051 174.113 935.675 174.179 935.231 174.179ZM935.41 173.125C935.874 173.125 936.265 173.034 936.583 172.852C936.905 172.669 937.147 172.434 937.309 172.146C937.475 171.857 937.558 171.554 937.558 171.236V170.162C937.508 170.222 937.399 170.276 937.23 170.326C937.064 170.372 936.872 170.414 936.653 170.45C936.438 170.483 936.227 170.513 936.022 170.54C935.819 170.563 935.655 170.583 935.529 170.599C935.225 170.639 934.94 170.704 934.674 170.793C934.413 170.879 934.2 171.01 934.038 171.186C933.879 171.358 933.799 171.594 933.799 171.892C933.799 172.3 933.95 172.608 934.252 172.817C934.557 173.022 934.943 173.125 935.41 173.125ZM941.032 174V163.818H942.205V167.577H942.305C942.391 167.444 942.51 167.275 942.662 167.07C942.818 166.861 943.04 166.675 943.329 166.513C943.62 166.347 944.015 166.264 944.512 166.264C945.155 166.264 945.722 166.425 946.212 166.746C946.703 167.068 947.086 167.524 947.361 168.114C947.636 168.704 947.773 169.4 947.773 170.202C947.773 171.01 947.636 171.711 947.361 172.305C947.086 172.895 946.704 173.352 946.217 173.677C945.73 173.998 945.168 174.159 944.532 174.159C944.041 174.159 943.648 174.078 943.354 173.915C943.059 173.75 942.831 173.562 942.672 173.354C942.513 173.142 942.391 172.966 942.305 172.827H942.165V174H941.032ZM942.185 170.182C942.185 170.759 942.27 171.267 942.439 171.708C942.608 172.146 942.855 172.489 943.18 172.737C943.504 172.982 943.902 173.105 944.373 173.105C944.863 173.105 945.273 172.976 945.601 172.717C945.932 172.455 946.181 172.104 946.346 171.663C946.515 171.219 946.6 170.725 946.6 170.182C946.6 169.645 946.517 169.161 946.351 168.73C946.189 168.296 945.942 167.953 945.611 167.701C945.282 167.446 944.87 167.318 944.373 167.318C943.895 167.318 943.494 167.439 943.17 167.681C942.845 167.92 942.599 168.254 942.434 168.685C942.268 169.113 942.185 169.612 942.185 170.182ZM952.77 174.159C952.034 174.159 951.399 173.997 950.866 173.672C950.335 173.344 949.926 172.886 949.638 172.3C949.353 171.71 949.21 171.024 949.21 170.241C949.21 169.459 949.353 168.77 949.638 168.173C949.926 167.573 950.327 167.106 950.841 166.771C951.358 166.433 951.961 166.264 952.65 166.264C953.048 166.264 953.441 166.33 953.829 166.463C954.216 166.596 954.569 166.811 954.888 167.109C955.206 167.404 955.459 167.795 955.648 168.283C955.837 168.77 955.932 169.37 955.932 170.082V170.58H950.045V169.565H954.738C954.738 169.134 954.652 168.75 954.48 168.412C954.311 168.074 954.069 167.807 953.754 167.612C953.443 167.416 953.075 167.318 952.65 167.318C952.183 167.318 951.779 167.434 951.437 167.666C951.099 167.895 950.839 168.193 950.657 168.561C950.474 168.929 950.383 169.323 950.383 169.744V170.42C950.383 170.997 950.483 171.486 950.682 171.887C950.884 172.285 951.164 172.588 951.522 172.797C951.88 173.002 952.296 173.105 952.77 173.105C953.078 173.105 953.356 173.062 953.605 172.976C953.857 172.886 954.074 172.754 954.256 172.578C954.439 172.399 954.579 172.177 954.679 171.912L955.812 172.23C955.693 172.615 955.492 172.953 955.211 173.244C954.929 173.533 954.581 173.758 954.167 173.92C953.752 174.08 953.287 174.159 952.77 174.159ZM958.89 163.818V174H957.716V163.818H958.89Z" fill="white" fill-opacity="0.7"/>
<rect x="776" y="142" width="150" height="2" fill="#8F8F8F"/>
<path d="M767 143C767 146.866 763.866 150 760 150C756.134 150 753 146.866 753 143C753 139.134 756.134 136 760 136C763.866 136 767 139.134 767 143Z" stroke="#64B4FA" stroke-width="2"/>
<path d="M743.268 174V163.818H744.501V172.906H749.234V174H743.268ZM753.231 174.179C752.747 174.179 752.308 174.088 751.914 173.906C751.519 173.72 751.206 173.453 750.974 173.105C750.742 172.754 750.626 172.33 750.626 171.832C750.626 171.395 750.712 171.04 750.885 170.768C751.057 170.493 751.287 170.278 751.576 170.122C751.864 169.966 752.182 169.85 752.53 169.774C752.882 169.695 753.234 169.632 753.589 169.585C754.053 169.526 754.429 169.481 754.718 169.451C755.009 169.418 755.221 169.363 755.354 169.287C755.49 169.211 755.558 169.078 755.558 168.889V168.849C755.558 168.359 755.424 167.978 755.155 167.706C754.89 167.434 754.487 167.298 753.947 167.298C753.387 167.298 752.948 167.421 752.63 167.666C752.311 167.911 752.088 168.173 751.958 168.452L750.845 168.054C751.044 167.59 751.309 167.229 751.64 166.97C751.975 166.708 752.34 166.526 752.734 166.423C753.132 166.317 753.523 166.264 753.907 166.264C754.153 166.264 754.434 166.294 754.752 166.354C755.074 166.41 755.384 166.528 755.682 166.707C755.984 166.886 756.234 167.156 756.433 167.517C756.632 167.878 756.731 168.362 756.731 168.969V174H755.558V172.966H755.498C755.419 173.132 755.286 173.309 755.1 173.498C754.915 173.687 754.668 173.848 754.36 173.98C754.051 174.113 753.675 174.179 753.231 174.179ZM753.41 173.125C753.874 173.125 754.265 173.034 754.583 172.852C754.905 172.669 755.147 172.434 755.309 172.146C755.475 171.857 755.558 171.554 755.558 171.236V170.162C755.508 170.222 755.399 170.276 755.23 170.326C755.064 170.372 754.872 170.414 754.653 170.45C754.438 170.483 754.227 170.513 754.022 170.54C753.819 170.563 753.655 170.583 753.529 170.599C753.225 170.639 752.94 170.704 752.674 170.793C752.413 170.879 752.2 171.01 752.038 171.186C751.879 171.358 751.799 171.594 751.799 171.892C751.799 172.3 751.95 172.608 752.252 172.817C752.557 173.022 752.943 173.125 753.41 173.125ZM759.032 174V163.818H760.205V167.577H760.305C760.391 167.444 760.51 167.275 760.662 167.07C760.818 166.861 761.04 166.675 761.329 166.513C761.62 166.347 762.015 166.264 762.512 166.264C763.155 166.264 763.722 166.425 764.212 166.746C764.703 167.068 765.086 167.524 765.361 168.114C765.636 168.704 765.773 169.4 765.773 170.202C765.773 171.01 765.636 171.711 765.361 172.305C765.086 172.895 764.704 173.352 764.217 173.677C763.73 173.998 763.168 174.159 762.532 174.159C762.041 174.159 761.648 174.078 761.354 173.915C761.059 173.75 760.831 173.562 760.672 173.354C760.513 173.142 760.391 172.966 760.305 172.827H760.165V174H759.032ZM760.185 170.182C760.185 170.759 760.27 171.267 760.439 171.708C760.608 172.146 760.855 172.489 761.18 172.737C761.504 172.982 761.902 173.105 762.373 173.105C762.863 173.105 763.273 172.976 763.601 172.717C763.932 172.455 764.181 172.104 764.346 171.663C764.515 171.219 764.6 170.725 764.6 170.182C764.6 169.645 764.517 169.161 764.351 168.73C764.189 168.296 763.942 167.953 763.611 167.701C763.282 167.446 762.87 167.318 762.373 167.318C761.895 167.318 761.494 167.439 761.17 167.681C760.845 167.92 760.599 168.254 760.434 168.685C760.268 169.113 760.185 169.612 760.185 170.182ZM770.77 174.159C770.034 174.159 769.399 173.997 768.866 173.672C768.335 173.344 767.926 172.886 767.638 172.3C767.353 171.71 767.21 171.024 767.21 170.241C767.21 169.459 767.353 168.77 767.638 168.173C767.926 167.573 768.327 167.106 768.841 166.771C769.358 166.433 769.961 166.264 770.65 166.264C771.048 166.264 771.441 166.33 771.829 166.463C772.216 166.596 772.569 166.811 772.888 167.109C773.206 167.404 773.459 167.795 773.648 168.283C773.837 168.77 773.932 169.37 773.932 170.082V170.58H768.045V169.565H772.738C772.738 169.134 772.652 168.75 772.48 168.412C772.311 168.074 772.069 167.807 771.754 167.612C771.443 167.416 771.075 167.318 770.65 167.318C770.183 167.318 769.779 167.434 769.437 167.666C769.099 167.895 768.839 168.193 768.657 168.561C768.474 168.929 768.383 169.323 768.383 169.744V170.42C768.383 170.997 768.483 171.486 768.682 171.887C768.884 172.285 769.164 172.588 769.522 172.797C769.88 173.002 770.296 173.105 770.77 173.105C771.078 173.105 771.356 173.062 771.605 172.976C771.857 172.886 772.074 172.754 772.256 172.578C772.439 172.399 772.579 172.177 772.679 171.912L773.812 172.23C773.693 172.615 773.492 172.953 773.211 173.244C772.929 173.533 772.581 173.758 772.167 173.92C771.752 174.08 771.287 174.159 770.77 174.159ZM776.89 163.818V174H775.716V163.818H776.89Z" fill="white" fill-opacity="0.7"/>
<rect x="594" y="142" width="150" height="2" fill="#8F8F8F"/>
<path d="M585 143C585 146.866 581.866 150 578 150C574.134 150 571 146.866 571 143C571 139.134 574.134 136 578 136C581.866 136 585 139.134 585 143Z" stroke="#64B4FA" stroke-width="2"/>
<path d="M561.268 174V163.818H562.501V172.906H567.234V174H561.268ZM571.231 174.179C570.747 174.179 570.308 174.088 569.914 173.906C569.519 173.72 569.206 173.453 568.974 173.105C568.742 172.754 568.626 172.33 568.626 171.832C568.626 171.395 568.712 171.04 568.885 170.768C569.057 170.493 569.287 170.278 569.576 170.122C569.864 169.966 570.182 169.85 570.53 169.774C570.882 169.695 571.234 169.632 571.589 169.585C572.053 169.526 572.429 169.481 572.718 169.451C573.009 169.418 573.221 169.363 573.354 169.287C573.49 169.211 573.558 169.078 573.558 168.889V168.849C573.558 168.359 573.424 167.978 573.155 167.706C572.89 167.434 572.487 167.298 571.947 167.298C571.387 167.298 570.948 167.421 570.63 167.666C570.311 167.911 570.088 168.173 569.958 168.452L568.845 168.054C569.044 167.59 569.309 167.229 569.64 166.97C569.975 166.708 570.34 166.526 570.734 166.423C571.132 166.317 571.523 166.264 571.907 166.264C572.153 166.264 572.434 166.294 572.752 166.354C573.074 166.41 573.384 166.528 573.682 166.707C573.984 166.886 574.234 167.156 574.433 167.517C574.632 167.878 574.731 168.362 574.731 168.969V174H573.558V172.966H573.498C573.419 173.132 573.286 173.309 573.1 173.498C572.915 173.687 572.668 173.848 572.36 173.98C572.051 174.113 571.675 174.179 571.231 174.179ZM571.41 173.125C571.874 173.125 572.265 173.034 572.583 172.852C572.905 172.669 573.147 172.434 573.309 172.146C573.475 171.857 573.558 171.554 573.558 171.236V170.162C573.508 170.222 573.399 170.276 573.23 170.326C573.064 170.372 572.872 170.414 572.653 170.45C572.438 170.483 572.227 170.513 572.022 170.54C571.819 170.563 571.655 170.583 571.529 170.599C571.225 170.639 570.94 170.704 570.674 170.793C570.413 170.879 570.2 171.01 570.038 171.186C569.879 171.358 569.799 171.594 569.799 171.892C569.799 172.3 569.95 172.608 570.252 172.817C570.557 173.022 570.943 173.125 571.41 173.125ZM577.032 174V163.818H578.205V167.577H578.305C578.391 167.444 578.51 167.275 578.662 167.07C578.818 166.861 579.04 166.675 579.329 166.513C579.62 166.347 580.015 166.264 580.512 166.264C581.155 166.264 581.722 166.425 582.212 166.746C582.703 167.068 583.086 167.524 583.361 168.114C583.636 168.704 583.773 169.4 583.773 170.202C583.773 171.01 583.636 171.711 583.361 172.305C583.086 172.895 582.704 173.352 582.217 173.677C581.73 173.998 581.168 174.159 580.532 174.159C580.041 174.159 579.648 174.078 579.354 173.915C579.059 173.75 578.831 173.562 578.672 173.354C578.513 173.142 578.391 172.966 578.305 172.827H578.165V174H577.032ZM578.185 170.182C578.185 170.759 578.27 171.267 578.439 171.708C578.608 172.146 578.855 172.489 579.18 172.737C579.504 172.982 579.902 173.105 580.373 173.105C580.863 173.105 581.273 172.976 581.601 172.717C581.932 172.455 582.181 172.104 582.346 171.663C582.515 171.219 582.6 170.725 582.6 170.182C582.6 169.645 582.517 169.161 582.351 168.73C582.189 168.296 581.942 167.953 581.611 167.701C581.282 167.446 580.87 167.318 580.373 167.318C579.895 167.318 579.494 167.439 579.17 167.681C578.845 167.92 578.599 168.254 578.434 168.685C578.268 169.113 578.185 169.612 578.185 170.182ZM588.77 174.159C588.034 174.159 587.399 173.997 586.866 173.672C586.335 173.344 585.926 172.886 585.638 172.3C585.353 171.71 585.21 171.024 585.21 170.241C585.21 169.459 585.353 168.77 585.638 168.173C585.926 167.573 586.327 167.106 586.841 166.771C587.358 166.433 587.961 166.264 588.65 166.264C589.048 166.264 589.441 166.33 589.829 166.463C590.216 166.596 590.569 166.811 590.888 167.109C591.206 167.404 591.459 167.795 591.648 168.283C591.837 168.77 591.932 169.37 591.932 170.082V170.58H586.045V169.565H590.738C590.738 169.134 590.652 168.75 590.48 168.412C590.311 168.074 590.069 167.807 589.754 167.612C589.443 167.416 589.075 167.318 588.65 167.318C588.183 167.318 587.779 167.434 587.437 167.666C587.099 167.895 586.839 168.193 586.657 168.561C586.474 168.929 586.383 169.323 586.383 169.744V170.42C586.383 170.997 586.483 171.486 586.682 171.887C586.884 172.285 587.164 172.588 587.522 172.797C587.88 173.002 588.296 173.105 588.77 173.105C589.078 173.105 589.356 173.062 589.605 172.976C589.857 172.886 590.074 172.754 590.256 172.578C590.439 172.399 590.579 172.177 590.679 171.912L591.812 172.23C591.693 172.615 591.492 172.953 591.211 173.244C590.929 173.533 590.581 173.758 590.167 173.92C589.752 174.08 589.287 174.159 588.77 174.159ZM594.89 163.818V174H593.716V163.818H594.89Z" fill="white" fill-opacity="0.7"/>
<rect x="412" y="142" width="150" height="2" fill="#8F8F8F"/>
<path d="M403 143C403 146.866 399.866 150 396 150C392.134 150 389 146.866 389 143C389 139.134 392.134 136 396 136C399.866 136 403 139.134 403 143Z" stroke="#64B4FA" stroke-width="2"/>
<path d="M379.268 174V163.818H380.501V172.906H385.234V174H379.268ZM389.231 174.179C388.747 174.179 388.308 174.088 387.914 173.906C387.519 173.72 387.206 173.453 386.974 173.105C386.742 172.754 386.626 172.33 386.626 171.832C386.626 171.395 386.712 171.04 386.885 170.768C387.057 170.493 387.287 170.278 387.576 170.122C387.864 169.966 388.182 169.85 388.53 169.774C388.882 169.695 389.234 169.632 389.589 169.585C390.053 169.526 390.429 169.481 390.718 169.451C391.009 169.418 391.221 169.363 391.354 169.287C391.49 169.211 391.558 169.078 391.558 168.889V168.849C391.558 168.359 391.424 167.978 391.155 167.706C390.89 167.434 390.487 167.298 389.947 167.298C389.387 167.298 388.948 167.421 388.63 167.666C388.311 167.911 388.088 168.173 387.958 168.452L386.845 168.054C387.044 167.59 387.309 167.229 387.64 166.97C387.975 166.708 388.34 166.526 388.734 166.423C389.132 166.317 389.523 166.264 389.907 166.264C390.153 166.264 390.434 166.294 390.752 166.354C391.074 166.41 391.384 166.528 391.682 166.707C391.984 166.886 392.234 167.156 392.433 167.517C392.632 167.878 392.731 168.362 392.731 168.969V174H391.558V172.966H391.498C391.419 173.132 391.286 173.309 391.1 173.498C390.915 173.687 390.668 173.848 390.36 173.98C390.051 174.113 389.675 174.179 389.231 174.179ZM389.41 173.125C389.874 173.125 390.265 173.034 390.583 172.852C390.905 172.669 391.147 172.434 391.309 172.146C391.475 171.857 391.558 171.554 391.558 171.236V170.162C391.508 170.222 391.399 170.276 391.23 170.326C391.064 170.372 390.872 170.414 390.653 170.45C390.438 170.483 390.227 170.513 390.022 170.54C389.819 170.563 389.655 170.583 389.529 170.599C389.225 170.639 388.94 170.704 388.674 170.793C388.413 170.879 388.2 171.01 388.038 171.186C387.879 171.358 387.799 171.594 387.799 171.892C387.799 172.3 387.95 172.608 388.252 172.817C388.557 173.022 388.943 173.125 389.41 173.125ZM395.032 174V163.818H396.205V167.577H396.305C396.391 167.444 396.51 167.275 396.662 167.07C396.818 166.861 397.04 166.675 397.329 166.513C397.62 166.347 398.015 166.264 398.512 166.264C399.155 166.264 399.722 166.425 400.212 166.746C400.703 167.068 401.086 167.524 401.361 168.114C401.636 168.704 401.773 169.4 401.773 170.202C401.773 171.01 401.636 171.711 401.361 172.305C401.086 172.895 400.704 173.352 400.217 173.677C399.73 173.998 399.168 174.159 398.532 174.159C398.041 174.159 397.648 174.078 397.354 173.915C397.059 173.75 396.831 173.562 396.672 173.354C396.513 173.142 396.391 172.966 396.305 172.827H396.165V174H395.032ZM396.185 170.182C396.185 170.759 396.27 171.267 396.439 171.708C396.608 172.146 396.855 172.489 397.18 172.737C397.504 172.982 397.902 173.105 398.373 173.105C398.863 173.105 399.273 172.976 399.601 172.717C399.932 172.455 400.181 172.104 400.346 171.663C400.515 171.219 400.6 170.725 400.6 170.182C400.6 169.645 400.517 169.161 400.351 168.73C400.189 168.296 399.942 167.953 399.611 167.701C399.282 167.446 398.87 167.318 398.373 167.318C397.895 167.318 397.494 167.439 397.17 167.681C396.845 167.92 396.599 168.254 396.434 168.685C396.268 169.113 396.185 169.612 396.185 170.182ZM406.77 174.159C406.034 174.159 405.399 173.997 404.866 173.672C404.335 173.344 403.926 172.886 403.638 172.3C403.353 171.71 403.21 171.024 403.21 170.241C403.21 169.459 403.353 168.77 403.638 168.173C403.926 167.573 404.327 167.106 404.841 166.771C405.358 166.433 405.961 166.264 406.65 166.264C407.048 166.264 407.441 166.33 407.829 166.463C408.216 166.596 408.569 166.811 408.888 167.109C409.206 167.404 409.459 167.795 409.648 168.283C409.837 168.77 409.932 169.37 409.932 170.082V170.58H404.045V169.565H408.738C408.738 169.134 408.652 168.75 408.48 168.412C408.311 168.074 408.069 167.807 407.754 167.612C407.443 167.416 407.075 167.318 406.65 167.318C406.183 167.318 405.779 167.434 405.437 167.666C405.099 167.895 404.839 168.193 404.657 168.561C404.474 168.929 404.383 169.323 404.383 169.744V170.42C404.383 170.997 404.483 171.486 404.682 171.887C404.884 172.285 405.164 172.588 405.522 172.797C405.88 173.002 406.296 173.105 406.77 173.105C407.078 173.105 407.356 173.062 407.605 172.976C407.857 172.886 408.074 172.754 408.256 172.578C408.439 172.399 408.579 172.177 408.679 171.912L409.812 172.23C409.693 172.615 409.492 172.953 409.211 173.244C408.929 173.533 408.581 173.758 408.167 173.92C407.752 174.08 407.287 174.159 406.77 174.159ZM412.89 163.818V174H411.716V163.818H412.89Z" fill="white" fill-opacity="0.7"/>
<rect x="230" y="142" width="150" height="2" fill="#8F8F8F"/>
<path d="M221 143C221 146.866 217.866 150 214 150C210.134 150 207 146.866 207 143C207 139.134 210.134 136 214 136C217.866 136 221 139.134 221 143Z" fill="#262626" stroke="#1170CF" stroke-width="2"/>
<g clip-path="url(#clip0_2029_9002)">
<path d="M197.268 175V164.818H198.501V173.906H203.234V175H197.268ZM207.231 175.179C206.747 175.179 206.308 175.088 205.914 174.906C205.519 174.72 205.206 174.453 204.974 174.105C204.742 173.754 204.626 173.33 204.626 172.832C204.626 172.395 204.712 172.04 204.885 171.768C205.057 171.493 205.287 171.278 205.576 171.122C205.864 170.966 206.182 170.85 206.53 170.774C206.882 170.695 207.234 170.632 207.589 170.585C208.053 170.526 208.429 170.481 208.718 170.451C209.009 170.418 209.221 170.363 209.354 170.287C209.49 170.211 209.558 170.078 209.558 169.889V169.849C209.558 169.359 209.424 168.978 209.155 168.706C208.89 168.434 208.487 168.298 207.947 168.298C207.387 168.298 206.948 168.421 206.63 168.666C206.311 168.911 206.088 169.173 205.958 169.452L204.845 169.054C205.044 168.59 205.309 168.229 205.64 167.97C205.975 167.708 206.34 167.526 206.734 167.423C207.132 167.317 207.523 167.264 207.907 167.264C208.153 167.264 208.434 167.294 208.752 167.354C209.074 167.41 209.384 167.528 209.682 167.707C209.984 167.886 210.234 168.156 210.433 168.517C210.632 168.878 210.731 169.362 210.731 169.969V175H209.558V173.966H209.498C209.419 174.132 209.286 174.309 209.1 174.498C208.915 174.687 208.668 174.848 208.36 174.98C208.051 175.113 207.675 175.179 207.231 175.179ZM207.41 174.125C207.874 174.125 208.265 174.034 208.583 173.852C208.905 173.669 209.147 173.434 209.309 173.146C209.475 172.857 209.558 172.554 209.558 172.236V171.162C209.508 171.222 209.399 171.276 209.23 171.326C209.064 171.372 208.872 171.414 208.653 171.45C208.438 171.483 208.227 171.513 208.022 171.54C207.819 171.563 207.655 171.583 207.529 171.599C207.225 171.639 206.94 171.704 206.674 171.793C206.413 171.879 206.2 172.01 206.038 172.186C205.879 172.358 205.799 172.594 205.799 172.892C205.799 173.3 205.95 173.608 206.252 173.817C206.557 174.022 206.943 174.125 207.41 174.125ZM213.032 175V164.818H214.205V168.577H214.305C214.391 168.444 214.51 168.275 214.662 168.07C214.818 167.861 215.04 167.675 215.329 167.513C215.62 167.347 216.015 167.264 216.512 167.264C217.155 167.264 217.722 167.425 218.212 167.746C218.703 168.068 219.086 168.524 219.361 169.114C219.636 169.704 219.773 170.4 219.773 171.202C219.773 172.01 219.636 172.711 219.361 173.305C219.086 173.895 218.704 174.352 218.217 174.677C217.73 174.998 217.168 175.159 216.532 175.159C216.041 175.159 215.648 175.078 215.354 174.915C215.059 174.75 214.831 174.562 214.672 174.354C214.513 174.142 214.391 173.966 214.305 173.827H214.165V175H213.032ZM214.185 171.182C214.185 171.759 214.27 172.267 214.439 172.708C214.608 173.146 214.855 173.489 215.18 173.737C215.504 173.982 215.902 174.105 216.373 174.105C216.863 174.105 217.273 173.976 217.601 173.717C217.932 173.455 218.181 173.104 218.346 172.663C218.515 172.219 218.6 171.725 218.6 171.182C218.6 170.645 218.517 170.161 218.351 169.73C218.189 169.296 217.942 168.953 217.611 168.701C217.282 168.446 216.87 168.318 216.373 168.318C215.895 168.318 215.494 168.439 215.17 168.681C214.845 168.92 214.599 169.254 214.434 169.685C214.268 170.113 214.185 170.612 214.185 171.182ZM224.77 175.159C224.034 175.159 223.399 174.997 222.866 174.672C222.335 174.344 221.926 173.886 221.638 173.3C221.353 172.71 221.21 172.024 221.21 171.241C221.21 170.459 221.353 169.77 221.638 169.173C221.926 168.573 222.327 168.106 222.841 167.771C223.358 167.433 223.961 167.264 224.65 167.264C225.048 167.264 225.441 167.33 225.829 167.463C226.216 167.596 226.569 167.811 226.888 168.109C227.206 168.404 227.459 168.795 227.648 169.283C227.837 169.77 227.932 170.37 227.932 171.082V171.58H222.045V170.565H226.738C226.738 170.134 226.652 169.75 226.48 169.412C226.311 169.074 226.069 168.807 225.754 168.612C225.443 168.416 225.075 168.318 224.65 168.318C224.183 168.318 223.779 168.434 223.437 168.666C223.099 168.895 222.839 169.193 222.657 169.561C222.474 169.929 222.383 170.323 222.383 170.744V171.42C222.383 171.997 222.483 172.486 222.682 172.887C222.884 173.285 223.164 173.588 223.522 173.797C223.88 174.002 224.296 174.105 224.77 174.105C225.078 174.105 225.356 174.062 225.605 173.976C225.857 173.886 226.074 173.754 226.256 173.578C226.439 173.399 226.579 173.177 226.679 172.912L227.812 173.23C227.693 173.615 227.492 173.953 227.211 174.244C226.929 174.533 226.581 174.758 226.167 174.92C225.752 175.08 225.287 175.159 224.77 175.159ZM230.89 164.818V175H229.716V164.818H230.89Z" fill="white" fill-opacity="0.7"/>
</g>
<path d="M579.277 84V118" stroke="#DA0087"/>
<path d="M579.277 126L575.277 118H583.277L579.277 126Z" fill="#DA0087"/>
<rect x="515.277" y="64" width="128" height="28" rx="14" fill="#DA0087"/>
<path d="M535.373 79.88C535.373 79.496 535.288 79.192 535.117 78.968C534.925 78.7013 534.573 78.456 534.061 78.232C533.549 78.008 532.776 77.752 531.741 77.464C530.355 77.08 529.4 76.6053 528.877 76.04C528.451 75.5813 528.237 74.968 528.237 74.2C528.237 73.272 528.643 72.536 529.453 71.992C530.2 71.4907 531.171 71.24 532.365 71.24C533.699 71.24 534.781 71.5547 535.613 72.184C536.36 72.7387 536.797 73.464 536.925 74.36H535.245C535.149 73.752 534.829 73.2987 534.285 73C533.805 72.7227 533.165 72.584 532.365 72.584C531.469 72.584 530.808 72.7547 530.381 73.096C530.04 73.3627 529.869 73.7093 529.869 74.136C529.869 74.4133 529.912 74.6427 529.997 74.824C530.093 74.9947 530.253 75.1493 530.477 75.288C530.893 75.5653 531.699 75.8693 532.893 76.2C534.557 76.6693 535.683 77.2027 536.269 77.8C536.76 78.2907 537.005 78.9627 537.005 79.816C537.005 80.8293 536.563 81.6667 535.677 82.328C534.845 82.936 533.789 83.24 532.509 83.24C531.176 83.24 530.072 82.8827 529.197 82.168C528.44 81.5493 527.987 80.7493 527.837 79.768H529.517C529.624 80.472 529.96 81.0107 530.525 81.384C531.037 81.7253 531.688 81.896 532.477 81.896C533.459 81.896 534.211 81.672 534.733 81.224C535.16 80.8613 535.373 80.4133 535.373 79.88ZM542.562 81.768V83.08C542.168 83.1867 541.789 83.24 541.426 83.24C540.658 83.24 540.082 83 539.698 82.52C539.368 82.1253 539.202 81.5973 539.202 80.936V75.992H537.97V74.68H539.202L539.298 72.68H540.738V74.68H542.53V75.992H540.738V80.968C540.738 81.5867 541.032 81.896 541.618 81.896C541.896 81.896 542.21 81.8533 542.562 81.768ZM549.593 80.6H551.257C551.022 81.4427 550.558 82.104 549.865 82.584C549.214 83.0213 548.435 83.24 547.529 83.24C546.217 83.24 545.193 82.824 544.457 81.992C543.785 81.2133 543.449 80.1627 543.449 78.84C543.449 77.336 543.875 76.1947 544.729 75.416C545.433 74.7653 546.339 74.44 547.449 74.44C548.75 74.44 549.731 74.8613 550.393 75.704C551.033 76.5147 551.353 77.672 551.353 79.176H545.017C545.081 80.1573 545.379 80.888 545.913 81.368C546.35 81.752 546.905 81.944 547.577 81.944C548.099 81.944 548.553 81.8 548.937 81.512C549.257 81.2667 549.475 80.9627 549.593 80.6ZM547.481 75.672C546.798 75.672 546.249 75.8853 545.833 76.312C545.438 76.7067 545.187 77.256 545.081 77.96H549.785C549.731 77.16 549.465 76.5627 548.985 76.168C548.601 75.8373 548.099 75.672 547.481 75.672ZM553.194 74.68H554.458L554.698 75.768C555.381 74.8827 556.32 74.44 557.514 74.44C558.709 74.44 559.637 74.8667 560.298 75.72C560.885 76.488 561.178 77.5067 561.178 78.776C561.178 80.28 560.778 81.432 559.978 82.232C559.306 82.904 558.448 83.24 557.402 83.24C556.218 83.24 555.328 82.8027 554.73 81.928V85.88H553.194V74.68ZM559.578 78.744C559.578 77.6987 559.317 76.9147 558.794 76.392C558.378 75.9653 557.834 75.752 557.162 75.752C556.384 75.752 555.765 76.0347 555.306 76.6C554.869 77.144 554.65 77.8587 554.65 78.744C554.65 79.8107 554.912 80.6267 555.434 81.192C555.872 81.6827 556.448 81.928 557.162 81.928C557.962 81.928 558.57 81.6347 558.986 81.048C559.381 80.504 559.578 79.736 559.578 78.744ZM567.821 71.48H569.453V83H567.821V71.48ZM573.308 83H571.772V74.68H573.036L573.212 75.736C573.831 74.872 574.674 74.44 575.74 74.44C576.722 74.44 577.474 74.744 577.996 75.352C578.455 75.896 578.684 76.6373 578.684 77.576V83H577.148V77.592C577.148 76.3653 576.556 75.752 575.372 75.752C574.754 75.752 574.247 75.9653 573.852 76.392C573.49 76.776 573.308 77.2667 573.308 77.864V83ZM588.354 83H587.09L586.818 81.832C586.178 82.7707 585.256 83.24 584.05 83.24C582.888 83.24 581.97 82.8187 581.298 81.976C580.68 81.1973 580.37 80.168 580.37 78.888C580.37 77.3413 580.765 76.1787 581.554 75.4C582.216 74.76 583.08 74.44 584.146 74.44C585.298 74.44 586.189 74.872 586.818 75.736V71.48H588.354V83ZM581.97 78.92C581.97 79.9547 582.226 80.7387 582.738 81.272C583.165 81.7093 583.714 81.928 584.386 81.928C585.218 81.928 585.864 81.6133 586.322 80.984C586.706 80.44 586.898 79.7573 586.898 78.936C586.898 77.8587 586.642 77.0373 586.13 76.472C585.693 75.992 585.112 75.752 584.386 75.752C583.576 75.752 582.962 76.0453 582.546 76.632C582.162 77.1653 581.97 77.928 581.97 78.92ZM592.232 73.288H590.504V71.48H592.232V73.288ZM592.136 83H590.6V74.68H592.136V83ZM599.806 80.328H601.486C601.358 81.224 600.936 81.944 600.222 82.488C599.571 82.9893 598.776 83.24 597.838 83.24C596.611 83.24 595.635 82.8187 594.91 81.976C594.238 81.1973 593.902 80.1733 593.902 78.904C593.902 77.432 594.307 76.2907 595.118 75.48C595.811 74.7867 596.712 74.44 597.822 74.44C598.846 74.44 599.688 74.712 600.35 75.256C600.936 75.736 601.294 76.3653 601.422 77.144H599.726C599.619 76.696 599.4 76.3493 599.07 76.104C598.75 75.8587 598.344 75.736 597.854 75.736C597.096 75.736 596.515 76.0347 596.11 76.632C595.726 77.1867 595.534 77.96 595.534 78.952C595.534 79.9867 595.79 80.7707 596.302 81.304C596.707 81.7307 597.23 81.944 597.87 81.944C598.424 81.944 598.878 81.784 599.23 81.464C599.539 81.1867 599.731 80.808 599.806 80.328ZM604.553 77H602.921C603.006 76.168 603.401 75.5227 604.105 75.064C604.734 74.648 605.529 74.44 606.489 74.44C607.63 74.44 608.505 74.7387 609.113 75.336C609.625 75.848 609.881 76.5093 609.881 77.32V83H608.617L608.425 81.864C607.774 82.7813 606.846 83.24 605.641 83.24C604.692 83.24 603.95 82.984 603.417 82.472C602.98 82.0453 602.761 81.5067 602.761 80.856C602.761 80.0347 603.044 79.4 603.609 78.952C604.11 78.5573 604.878 78.2693 605.913 78.088L608.345 77.672V77.256C608.345 76.712 608.158 76.3013 607.785 76.024C607.454 75.7787 607.001 75.656 606.425 75.656C605.294 75.656 604.67 76.104 604.553 77ZM606.009 81.944C606.66 81.944 607.225 81.7307 607.705 81.304C608.132 80.9093 608.345 80.456 608.345 79.944V78.872L606.281 79.24C605.524 79.368 605.006 79.5653 604.729 79.832C604.505 80.0453 604.393 80.3333 604.393 80.696C604.393 81.1013 604.532 81.4107 604.809 81.624C605.086 81.8373 605.486 81.944 606.009 81.944ZM615.75 81.768V83.08C615.355 83.1867 614.977 83.24 614.614 83.24C613.846 83.24 613.27 83 612.886 82.52C612.555 82.1253 612.39 81.5973 612.39 80.936V75.992H611.158V74.68H612.39L612.486 72.68H613.926V74.68H615.718V75.992H613.926V80.968C613.926 81.5867 614.219 81.896 614.806 81.896C615.083 81.896 615.398 81.8533 615.75 81.768ZM616.636 78.84C616.636 77.3147 617.089 76.1627 617.996 75.384C618.721 74.7547 619.639 74.44 620.748 74.44C622.039 74.44 623.052 74.8507 623.788 75.672C624.492 76.44 624.844 77.496 624.844 78.84C624.844 80.344 624.401 81.4907 623.516 82.28C622.791 82.92 621.863 83.24 620.732 83.24C619.441 83.24 618.423 82.8133 617.676 81.96C616.983 81.1813 616.636 80.1413 616.636 78.84ZM618.236 78.84C618.236 79.9067 618.508 80.7227 619.052 81.288C619.5 81.7573 620.071 81.992 620.764 81.992C621.575 81.992 622.199 81.688 622.636 81.08C623.041 80.5253 623.244 79.7787 623.244 78.84C623.244 77.752 622.977 76.9307 622.444 76.376C622.007 75.9173 621.441 75.688 620.748 75.688C619.948 75.688 619.324 75.992 618.876 76.6C618.449 77.1547 618.236 77.9013 618.236 78.84ZM628.136 83H626.6V74.68H627.864L628.072 75.912C628.542 74.9307 629.246 74.44 630.184 74.44C630.494 74.44 630.798 74.4773 631.096 74.552V76.088C630.734 75.992 630.408 75.944 630.12 75.944C629.502 75.944 629.016 76.1947 628.664 76.696C628.312 77.1973 628.136 77.9067 628.136 78.824V83Z" fill="white" fill-opacity="0.95"/>
<path d="M711 84V127" stroke="#DA0087"/>
<path d="M711 135L707 127H715L711 135Z" fill="#DA0087"/>
<rect x="655" y="64" width="112" height="28" rx="14" fill="#DA0087"/>
<path d="M675.096 79.88C675.096 79.496 675.011 79.192 674.84 78.968C674.648 78.7013 674.296 78.456 673.784 78.232C673.272 78.008 672.499 77.752 671.464 77.464C670.077 77.08 669.123 76.6053 668.6 76.04C668.173 75.5813 667.96 74.968 667.96 74.2C667.96 73.272 668.365 72.536 669.176 71.992C669.923 71.4907 670.893 71.24 672.088 71.24C673.421 71.24 674.504 71.5547 675.336 72.184C676.083 72.7387 676.52 73.464 676.648 74.36H674.968C674.872 73.752 674.552 73.2987 674.008 73C673.528 72.7227 672.888 72.584 672.088 72.584C671.192 72.584 670.531 72.7547 670.104 73.096C669.763 73.3627 669.592 73.7093 669.592 74.136C669.592 74.4133 669.635 74.6427 669.72 74.824C669.816 74.9947 669.976 75.1493 670.2 75.288C670.616 75.5653 671.421 75.8693 672.616 76.2C674.28 76.6693 675.405 77.2027 675.992 77.8C676.483 78.2907 676.728 78.9627 676.728 79.816C676.728 80.8293 676.285 81.6667 675.4 82.328C674.568 82.936 673.512 83.24 672.232 83.24C670.899 83.24 669.795 82.8827 668.92 82.168C668.163 81.5493 667.709 80.7493 667.56 79.768H669.24C669.347 80.472 669.683 81.0107 670.248 81.384C670.76 81.7253 671.411 81.896 672.2 81.896C673.181 81.896 673.933 81.672 674.456 81.224C674.883 80.8613 675.096 80.4133 675.096 79.88ZM682.285 81.768V83.08C681.89 83.1867 681.512 83.24 681.149 83.24C680.381 83.24 679.805 83 679.421 82.52C679.09 82.1253 678.925 81.5973 678.925 80.936V75.992H677.693V74.68H678.925L679.021 72.68H680.461V74.68H682.253V75.992H680.461V80.968C680.461 81.5867 680.754 81.896 681.341 81.896C681.618 81.896 681.933 81.8533 682.285 81.768ZM689.315 80.6H690.979C690.745 81.4427 690.281 82.104 689.587 82.584C688.937 83.0213 688.158 83.24 687.251 83.24C685.939 83.24 684.915 82.824 684.179 81.992C683.507 81.2133 683.171 80.1627 683.171 78.84C683.171 77.336 683.598 76.1947 684.451 75.416C685.155 74.7653 686.062 74.44 687.171 74.44C688.473 74.44 689.454 74.8613 690.115 75.704C690.755 76.5147 691.075 77.672 691.075 79.176H684.739C684.803 80.1573 685.102 80.888 685.635 81.368C686.073 81.752 686.627 81.944 687.299 81.944C687.822 81.944 688.275 81.8 688.659 81.512C688.979 81.2667 689.198 80.9627 689.315 80.6ZM687.203 75.672C686.521 75.672 685.971 75.8853 685.555 76.312C685.161 76.7067 684.91 77.256 684.803 77.96H689.507C689.454 77.16 689.187 76.5627 688.707 76.168C688.323 75.8373 687.822 75.672 687.203 75.672ZM692.917 74.68H694.181L694.421 75.768C695.104 74.8827 696.042 74.44 697.237 74.44C698.432 74.44 699.36 74.8667 700.021 75.72C700.608 76.488 700.901 77.5067 700.901 78.776C700.901 80.28 700.501 81.432 699.701 82.232C699.029 82.904 698.17 83.24 697.125 83.24C695.941 83.24 695.05 82.8027 694.453 81.928V85.88H692.917V74.68ZM699.301 78.744C699.301 77.6987 699.04 76.9147 698.517 76.392C698.101 75.9653 697.557 75.752 696.885 75.752C696.106 75.752 695.488 76.0347 695.029 76.6C694.592 77.144 694.373 77.8587 694.373 78.744C694.373 79.8107 694.634 80.6267 695.157 81.192C695.594 81.6827 696.17 81.928 696.885 81.928C697.685 81.928 698.293 81.6347 698.709 81.048C699.104 80.504 699.301 79.736 699.301 78.744ZM708.728 83H707.464V71.48H709V75.832C709.65 74.904 710.578 74.44 711.784 74.44C712.978 74.44 713.906 74.8667 714.568 75.72C715.154 76.488 715.448 77.5067 715.448 78.776C715.448 80.28 715.048 81.432 714.248 82.232C713.576 82.904 712.717 83.24 711.672 83.24C710.488 83.24 709.586 82.792 708.968 81.896L708.728 83ZM713.848 78.744C713.848 77.6987 713.586 76.9147 713.064 76.392C712.648 75.9653 712.104 75.752 711.432 75.752C710.653 75.752 710.034 76.0347 709.576 76.6C709.138 77.144 708.92 77.8587 708.92 78.744C708.92 79.8107 709.181 80.6267 709.704 81.192C710.141 81.6827 710.717 81.928 711.432 81.928C712.232 81.928 712.84 81.6347 713.256 81.048C713.65 80.504 713.848 79.736 713.848 78.744ZM718.75 83H717.214V74.68H718.478L718.686 75.912C719.155 74.9307 719.859 74.44 720.798 74.44C721.107 74.44 721.411 74.4773 721.71 74.552V76.088C721.347 75.992 721.022 75.944 720.734 75.944C720.115 75.944 719.63 76.1947 719.278 76.696C718.926 77.1973 718.75 77.9067 718.75 78.824V83ZM724.549 73.288H722.821V71.48H724.549V73.288ZM724.453 83H722.917V74.68H724.453V83ZM734.202 83H732.938L732.666 81.832C732.026 82.7707 731.103 83.24 729.898 83.24C728.735 83.24 727.818 82.8187 727.146 81.976C726.527 81.1973 726.218 80.168 726.218 78.888C726.218 77.3413 726.613 76.1787 727.402 75.4C728.063 74.76 728.927 74.44 729.994 74.44C731.146 74.44 732.037 74.872 732.666 75.736V71.48H734.202V83ZM727.818 78.92C727.818 79.9547 728.074 80.7387 728.586 81.272C729.013 81.7093 729.562 81.928 730.234 81.928C731.066 81.928 731.711 81.6133 732.17 80.984C732.554 80.44 732.746 79.7573 732.746 78.936C732.746 77.8587 732.49 77.0373 731.978 76.472C731.541 75.992 730.959 75.752 730.234 75.752C729.423 75.752 728.81 76.0453 728.394 76.632C728.01 77.1653 727.818 77.928 727.818 78.92ZM736.352 83.56H738C738.075 83.9867 738.288 84.3173 738.64 84.552C739.003 84.7867 739.477 84.904 740.064 84.904C740.885 84.904 741.499 84.6907 741.904 84.264C742.245 83.9013 742.416 83.3947 742.416 82.744V81.672C741.797 82.3973 740.875 82.76 739.648 82.76C738.539 82.76 737.637 82.36 736.944 81.56C736.293 80.8133 735.968 79.8427 735.968 78.648C735.968 77.2613 736.363 76.1893 737.152 75.432C737.824 74.7707 738.688 74.44 739.744 74.44C740.939 74.44 741.84 74.888 742.448 75.784L742.688 74.68H743.952V82.824C743.952 83.8693 743.573 84.6907 742.816 85.288C742.133 85.8427 741.232 86.12 740.112 86.12C738.949 86.12 738.037 85.8587 737.376 85.336C736.821 84.8987 736.48 84.3067 736.352 83.56ZM737.568 78.68C737.568 79.5867 737.835 80.296 738.368 80.808C738.805 81.2347 739.344 81.448 739.984 81.448C740.827 81.448 741.472 81.1707 741.92 80.616C742.304 80.1467 742.496 79.5173 742.496 78.728C742.496 77.7147 742.235 76.9413 741.712 76.408C741.275 75.9707 740.699 75.752 739.984 75.752C739.195 75.752 738.587 76.024 738.16 76.568C737.765 77.08 737.568 77.784 737.568 78.68ZM751.862 80.6H753.526C753.291 81.4427 752.827 82.104 752.134 82.584C751.483 83.0213 750.705 83.24 749.798 83.24C748.486 83.24 747.462 82.824 746.726 81.992C746.054 81.2133 745.718 80.1627 745.718 78.84C745.718 77.336 746.145 76.1947 746.998 75.416C747.702 74.7653 748.609 74.44 749.718 74.44C751.019 74.44 752.001 74.8613 752.662 75.704C753.302 76.5147 753.622 77.672 753.622 79.176H747.286C747.35 80.1573 747.649 80.888 748.182 81.368C748.619 81.752 749.174 81.944 749.846 81.944C750.369 81.944 750.822 81.8 751.206 81.512C751.526 81.2667 751.745 80.9627 751.862 80.6ZM749.75 75.672C749.067 75.672 748.518 75.8853 748.102 76.312C747.707 76.7067 747.457 77.256 747.35 77.96H752.054C752.001 77.16 751.734 76.5627 751.254 76.168C750.87 75.8373 750.369 75.672 749.75 75.672Z" fill="white" fill-opacity="0.95"/>
<path d="M576.371 225V191" stroke="#DA0087"/>
<path d="M576.371 183L572.371 191H580.371L576.371 183Z" fill="#DA0087"/>
<rect x="524.371" y="217" width="104" height="28" rx="14" fill="#DA0087"/>
<path d="M544.467 232.88C544.467 232.496 544.382 232.192 544.211 231.968C544.019 231.701 543.667 231.456 543.155 231.232C542.643 231.008 541.87 230.752 540.835 230.464C539.448 230.08 538.494 229.605 537.971 229.04C537.544 228.581 537.331 227.968 537.331 227.2C537.331 226.272 537.736 225.536 538.547 224.992C539.294 224.491 540.264 224.24 541.459 224.24C542.792 224.24 543.875 224.555 544.707 225.184C545.454 225.739 545.891 226.464 546.019 227.36H544.339C544.243 226.752 543.923 226.299 543.379 226C542.899 225.723 542.259 225.584 541.459 225.584C540.563 225.584 539.902 225.755 539.475 226.096C539.134 226.363 538.963 226.709 538.963 227.136C538.963 227.413 539.006 227.643 539.091 227.824C539.187 227.995 539.347 228.149 539.571 228.288C539.987 228.565 540.792 228.869 541.987 229.2C543.651 229.669 544.776 230.203 545.363 230.8C545.854 231.291 546.099 231.963 546.099 232.816C546.099 233.829 545.656 234.667 544.771 235.328C543.939 235.936 542.883 236.24 541.603 236.24C540.27 236.24 539.166 235.883 538.291 235.168C537.534 234.549 537.08 233.749 536.931 232.768H538.611C538.718 233.472 539.054 234.011 539.619 234.384C540.131 234.725 540.782 234.896 541.571 234.896C542.552 234.896 543.304 234.672 543.827 234.224C544.254 233.861 544.467 233.413 544.467 232.88ZM551.656 234.768V236.08C551.262 236.187 550.883 236.24 550.52 236.24C549.752 236.24 549.176 236 548.792 235.52C548.462 235.125 548.296 234.597 548.296 233.936V228.992H547.064V227.68H548.296L548.392 225.68H549.832V227.68H551.624V228.992H549.832V233.968C549.832 234.587 550.126 234.896 550.712 234.896C550.99 234.896 551.304 234.853 551.656 234.768ZM558.686 233.6H560.35C560.116 234.443 559.652 235.104 558.958 235.584C558.308 236.021 557.529 236.24 556.622 236.24C555.31 236.24 554.286 235.824 553.55 234.992C552.878 234.213 552.542 233.163 552.542 231.84C552.542 230.336 552.969 229.195 553.822 228.416C554.526 227.765 555.433 227.44 556.542 227.44C557.844 227.44 558.825 227.861 559.486 228.704C560.126 229.515 560.446 230.672 560.446 232.176H554.11C554.174 233.157 554.473 233.888 555.006 234.368C555.444 234.752 555.998 234.944 556.67 234.944C557.193 234.944 557.646 234.8 558.03 234.512C558.35 234.267 558.569 233.963 558.686 233.6ZM556.574 228.672C555.892 228.672 555.342 228.885 554.926 229.312C554.532 229.707 554.281 230.256 554.174 230.96H558.878C558.825 230.16 558.558 229.563 558.078 229.168C557.694 228.837 557.193 228.672 556.574 228.672ZM562.288 227.68H563.552L563.792 228.768C564.475 227.883 565.413 227.44 566.608 227.44C567.803 227.44 568.731 227.867 569.392 228.72C569.979 229.488 570.272 230.507 570.272 231.776C570.272 233.28 569.872 234.432 569.072 235.232C568.4 235.904 567.541 236.24 566.496 236.24C565.312 236.24 564.421 235.803 563.824 234.928V238.88H562.288V227.68ZM568.672 231.744C568.672 230.699 568.411 229.915 567.888 229.392C567.472 228.965 566.928 228.752 566.256 228.752C565.477 228.752 564.859 229.035 564.4 229.6C563.963 230.144 563.744 230.859 563.744 231.744C563.744 232.811 564.005 233.627 564.528 234.192C564.965 234.683 565.541 234.928 566.256 234.928C567.056 234.928 567.664 234.635 568.08 234.048C568.475 233.504 568.672 232.736 568.672 231.744ZM576.915 224.48H578.563V234.544H583.987V236H576.915V224.48ZM586.975 230H585.343C585.428 229.168 585.823 228.523 586.527 228.064C587.156 227.648 587.951 227.44 588.911 227.44C590.052 227.44 590.927 227.739 591.535 228.336C592.047 228.848 592.303 229.509 592.303 230.32V236H591.039L590.847 234.864C590.196 235.781 589.268 236.24 588.063 236.24C587.114 236.24 586.372 235.984 585.839 235.472C585.402 235.045 585.183 234.507 585.183 233.856C585.183 233.035 585.466 232.4 586.031 231.952C586.532 231.557 587.3 231.269 588.335 231.088L590.767 230.672V230.256C590.767 229.712 590.58 229.301 590.207 229.024C589.876 228.779 589.423 228.656 588.847 228.656C587.716 228.656 587.092 229.104 586.975 230ZM588.431 234.944C589.082 234.944 589.647 234.731 590.127 234.304C590.554 233.909 590.767 233.456 590.767 232.944V231.872L588.703 232.24C587.946 232.368 587.428 232.565 587.151 232.832C586.927 233.045 586.815 233.333 586.815 233.696C586.815 234.101 586.954 234.411 587.231 234.624C587.508 234.837 587.908 234.944 588.431 234.944ZM595.724 236H594.46V224.48H595.996V228.832C596.647 227.904 597.575 227.44 598.78 227.44C599.975 227.44 600.903 227.867 601.564 228.72C602.151 229.488 602.444 230.507 602.444 231.776C602.444 233.28 602.044 234.432 601.244 235.232C600.572 235.904 599.713 236.24 598.668 236.24C597.484 236.24 596.583 235.792 595.964 234.896L595.724 236ZM600.844 231.744C600.844 230.699 600.583 229.915 600.06 229.392C599.644 228.965 599.1 228.752 598.428 228.752C597.649 228.752 597.031 229.035 596.572 229.6C596.135 230.144 595.916 230.859 595.916 231.744C595.916 232.811 596.177 233.627 596.7 234.192C597.137 234.683 597.713 234.928 598.428 234.928C599.228 234.928 599.836 234.635 600.252 234.048C600.647 233.504 600.844 232.736 600.844 231.744ZM609.874 233.6H611.538C611.303 234.443 610.839 235.104 610.146 235.584C609.495 236.021 608.717 236.24 607.81 236.24C606.498 236.24 605.474 235.824 604.738 234.992C604.066 234.213 603.73 233.163 603.73 231.84C603.73 230.336 604.157 229.195 605.01 228.416C605.714 227.765 606.621 227.44 607.73 227.44C609.031 227.44 610.013 227.861 610.674 228.704C611.314 229.515 611.634 230.672 611.634 232.176H605.298C605.362 233.157 605.661 233.888 606.194 234.368C606.631 234.752 607.186 234.944 607.858 234.944C608.381 234.944 608.834 234.8 609.218 234.512C609.538 234.267 609.757 233.963 609.874 233.6ZM607.762 228.672C607.079 228.672 606.53 228.885 606.114 229.312C605.719 229.707 605.469 230.256 605.362 230.96H610.066C610.013 230.16 609.746 229.563 609.266 229.168C608.882 228.837 608.381 228.672 607.762 228.672ZM615.011 224.48V236H613.475V224.48H615.011Z" fill="white" fill-opacity="0.95"/>
<defs>
<clipPath id="clip0_2029_9002">
<rect width="160" height="21" fill="white" transform="translate(134 159)"/>
</clipPath>
</defs>
</svg>
