<svg width="575" height="92" viewBox="0 0 575 92" fill="none" xmlns="http://www.w3.org/2000/svg">
<mask id="path-1-inside-1_2029_8925" fill="white">
<path d="M0 0H575V92H0V0Z"/>
</mask>
<path d="M0 0H575V92H0V0Z" fill="#1A1A1A"/>
<path d="M575 91H0V93H575V91Z" fill="white" fill-opacity="0.3" mask="url(#path-1-inside-1_2029_8925)"/>
<path d="M39.7159 27.0909C39.6307 26.3712 39.285 25.8125 38.679 25.4148C38.0729 25.017 37.3295 24.8182 36.4489 24.8182C35.8049 24.8182 35.2415 24.9223 34.7585 25.1307C34.2803 25.339 33.9063 25.6255 33.6364 25.9901C33.3712 26.3546 33.2386 26.7689 33.2386 27.233C33.2386 27.6212 33.331 27.955 33.5156 28.2344C33.705 28.509 33.9465 28.7386 34.2401 28.9233C34.5336 29.1032 34.8414 29.2524 35.1634 29.3707C35.4853 29.4844 35.7812 29.5767 36.0511 29.6477L37.5284 30.0455C37.9072 30.1449 38.3286 30.2822 38.7926 30.4574C39.2614 30.6326 39.7088 30.8717 40.1349 31.1747C40.5658 31.473 40.9209 31.8565 41.2003 32.3253C41.4796 32.794 41.6193 33.3693 41.6193 34.0511C41.6193 34.8371 41.4134 35.5473 41.0014 36.1818C40.5942 36.8163 39.9976 37.3205 39.2116 37.6946C38.4304 38.0687 37.4811 38.2557 36.3636 38.2557C35.322 38.2557 34.42 38.0876 33.6577 37.7514C32.9001 37.4152 32.3035 36.9465 31.8679 36.3452C31.437 35.7438 31.1932 35.0455 31.1364 34.25H32.9545C33.0019 34.7992 33.1866 35.2538 33.5085 35.6136C33.8352 35.9687 34.2472 36.2339 34.7443 36.4091C35.2462 36.5795 35.786 36.6648 36.3636 36.6648C37.036 36.6648 37.6397 36.5559 38.1747 36.3381C38.7098 36.1155 39.1335 35.8078 39.446 35.4148C39.7585 35.017 39.9148 34.553 39.9148 34.0227C39.9148 33.5398 39.7798 33.1468 39.5099 32.8438C39.2401 32.5407 38.8849 32.2945 38.4446 32.1051C38.0043 31.9157 37.5284 31.75 37.017 31.608L35.2273 31.0966C34.0909 30.7699 33.1913 30.3035 32.5284 29.6974C31.8655 29.0914 31.5341 28.2983 31.5341 27.3182C31.5341 26.5038 31.7543 25.7936 32.1946 25.1875C32.6397 24.5767 33.2363 24.1032 33.9844 23.767C34.7372 23.4261 35.5777 23.2557 36.5057 23.2557C37.4432 23.2557 38.2765 23.4238 39.0057 23.7599C39.7348 24.0914 40.3125 24.5459 40.7386 25.1236C41.1695 25.7012 41.3968 26.357 41.4205 27.0909H39.7159ZM44.288 42.0909V27.0909H45.9073V28.8239H46.1062C46.2293 28.6345 46.3997 28.393 46.6175 28.0994C46.8401 27.8011 47.1573 27.536 47.5692 27.304C47.9859 27.0672 48.5494 26.9489 49.2596 26.9489C50.1781 26.9489 50.9878 27.1785 51.6886 27.6378C52.3893 28.0971 52.9362 28.7481 53.3292 29.5909C53.7222 30.4337 53.9187 31.428 53.9187 32.5739C53.9187 33.7292 53.7222 34.7306 53.3292 35.5781C52.9362 36.4209 52.3917 37.0743 51.6957 37.5384C50.9996 37.9976 50.1971 38.2273 49.288 38.2273C48.5872 38.2273 48.0262 38.1113 47.6048 37.8793C47.1834 37.6425 46.859 37.375 46.6317 37.0767C46.4045 36.7737 46.2293 36.5227 46.1062 36.3239H45.9641V42.0909H44.288ZM45.9357 32.5455C45.9357 33.3693 46.0565 34.0961 46.2979 34.7259C46.5394 35.3509 46.8922 35.8409 47.3562 36.196C47.8202 36.5464 48.3884 36.7216 49.0607 36.7216C49.7615 36.7216 50.3462 36.5369 50.815 36.1676C51.2885 35.7936 51.6436 35.2917 51.8803 34.6619C52.1218 34.0275 52.2425 33.322 52.2425 32.5455C52.2425 31.7784 52.1242 31.0871 51.8874 30.4716C51.6554 29.8513 51.3027 29.3613 50.8292 29.0014C50.3604 28.6368 49.771 28.4545 49.0607 28.4545C48.3789 28.4545 47.806 28.6274 47.342 28.973C46.878 29.3139 46.5276 29.7921 46.2908 30.4077C46.0541 31.0185 45.9357 31.7311 45.9357 32.5455ZM59.6857 38.2557C58.9944 38.2557 58.3671 38.1255 57.8036 37.8651C57.2402 37.5999 56.7927 37.2188 56.4613 36.7216C56.1299 36.2197 55.9641 35.6136 55.9641 34.9034C55.9641 34.2784 56.0872 33.7718 56.3335 33.3835C56.5797 32.9905 56.9087 32.6828 57.3207 32.4602C57.7326 32.2377 58.1871 32.072 58.6843 31.9631C59.1862 31.8494 59.6905 31.7595 60.1971 31.6932C60.86 31.608 61.3974 31.544 61.8093 31.5014C62.226 31.4541 62.529 31.3759 62.7184 31.267C62.9125 31.1581 63.0096 30.9687 63.0096 30.6989V30.642C63.0096 29.9413 62.8178 29.3968 62.4343 29.0085C62.0555 28.6203 61.4802 28.4261 60.7085 28.4261C59.9083 28.4261 59.2809 28.6013 58.8263 28.9517C58.3718 29.3021 58.0522 29.6761 57.8675 30.0739L56.2766 29.5057C56.5607 28.8428 56.9395 28.3267 57.413 27.9574C57.8912 27.5833 58.4121 27.3229 58.9755 27.1761C59.5437 27.0246 60.1024 26.9489 60.6516 26.9489C61.002 26.9489 61.4045 26.9915 61.859 27.0767C62.3183 27.1572 62.761 27.3253 63.1871 27.581C63.618 27.8366 63.9755 28.2225 64.2596 28.7386C64.5437 29.2547 64.6857 29.946 64.6857 30.8125V38H63.0096V36.5227H62.9244C62.8107 36.7595 62.6213 37.0128 62.3562 37.2827C62.091 37.5526 61.7383 37.7822 61.2979 37.9716C60.8576 38.161 60.3202 38.2557 59.6857 38.2557ZM59.9414 36.75C60.6043 36.75 61.163 36.6198 61.6175 36.3594C62.0768 36.099 62.4225 35.7628 62.6545 35.3509C62.8912 34.9389 63.0096 34.5057 63.0096 34.0511V32.517C62.9386 32.6023 62.7823 32.6804 62.5408 32.7514C62.3041 32.8177 62.0295 32.8769 61.717 32.929C61.4092 32.9763 61.1085 33.0189 60.815 33.0568C60.5262 33.09 60.2918 33.1184 60.1119 33.142C59.6763 33.1989 59.2691 33.2912 58.8903 33.419C58.5162 33.5421 58.2132 33.7292 57.9812 33.9801C57.7539 34.2263 57.6403 34.5625 57.6403 34.9886C57.6403 35.571 57.8557 36.0114 58.2866 36.3097C58.7222 36.6032 59.2738 36.75 59.9414 36.75ZM72.1768 38.2273C71.1541 38.2273 70.2734 37.9858 69.5348 37.5028C68.7962 37.0199 68.228 36.3546 67.8303 35.5071C67.4325 34.6596 67.2337 33.6913 67.2337 32.6023C67.2337 31.4943 67.4373 30.5166 67.8445 29.669C68.2564 28.8168 68.8293 28.1515 69.5632 27.6733C70.3018 27.1903 71.1636 26.9489 72.1484 26.9489C72.9155 26.9489 73.6068 27.0909 74.2223 27.375C74.8378 27.6591 75.3421 28.0568 75.7351 28.5682C76.1281 29.0795 76.3719 29.6761 76.4666 30.358H74.7905C74.6626 29.8608 74.3786 29.4205 73.9382 29.0369C73.5026 28.6487 72.9155 28.4545 72.1768 28.4545C71.5234 28.4545 70.9505 28.625 70.4581 28.9659C69.9704 29.3021 69.5893 29.7779 69.3146 30.3935C69.0447 31.0043 68.9098 31.7216 68.9098 32.5455C68.9098 33.3883 69.0424 34.1222 69.3075 34.7472C69.5774 35.3722 69.9562 35.8575 70.4439 36.2031C70.9363 36.5488 71.514 36.7216 72.1768 36.7216C72.6125 36.7216 73.0078 36.6458 73.3629 36.4943C73.718 36.3428 74.0187 36.125 74.2649 35.8409C74.5111 35.5568 74.6863 35.2159 74.7905 34.8182H76.4666C76.3719 35.4621 76.1375 36.0421 75.7635 36.5582C75.3942 37.0696 74.9041 37.4768 74.2933 37.7798C73.6873 38.0781 72.9818 38.2273 72.1768 38.2273ZM83.4908 38.2273C82.4396 38.2273 81.5329 37.9953 80.7706 37.5312C80.013 37.0625 79.4283 36.4091 79.0163 35.571C78.6091 34.7282 78.4055 33.7481 78.4055 32.6307C78.4055 31.5133 78.6091 30.5284 79.0163 29.6761C79.4283 28.8191 80.0012 28.1515 80.7351 27.6733C81.4737 27.1903 82.3355 26.9489 83.3203 26.9489C83.8885 26.9489 84.4496 27.0436 85.0036 27.233C85.5575 27.4223 86.0618 27.7301 86.5163 28.1562C86.9709 28.5777 87.3331 29.1364 87.603 29.8324C87.8729 30.5284 88.0078 31.3854 88.0078 32.4034V33.1136H79.5987V31.6648H86.3033C86.3033 31.0492 86.1802 30.5 85.9339 30.017C85.6925 29.5341 85.3468 29.1529 84.897 28.8736C84.4519 28.5942 83.9264 28.4545 83.3203 28.4545C82.6527 28.4545 82.075 28.6203 81.5874 28.9517C81.1044 29.2784 80.7327 29.7045 80.4723 30.2301C80.2119 30.7557 80.0817 31.3191 80.0817 31.9205V32.8864C80.0817 33.7102 80.2237 34.4086 80.5078 34.9815C80.7966 35.5497 81.1967 35.983 81.7081 36.2812C82.2195 36.5748 82.8137 36.7216 83.4908 36.7216C83.9311 36.7216 84.3288 36.66 84.6839 36.5369C85.0438 36.4091 85.3539 36.2197 85.6143 35.9688C85.8748 35.7131 86.076 35.3958 86.218 35.017L87.8374 35.4716C87.6669 36.0208 87.3804 36.5038 86.978 36.9205C86.5755 37.3324 86.0784 37.6544 85.4865 37.8864C84.8946 38.1136 84.2294 38.2273 83.4908 38.2273ZM101.325 22.7727L96.6371 40.1875H95.103L99.7905 22.7727H101.325ZM109.164 38V23.4545H117.942V25.017H110.925V29.9318H117.488V31.4943H110.925V36.4375H118.056V38H109.164ZM122.566 31.4375V38H120.89V27.0909H122.509V28.7955H122.651C122.907 28.2415 123.295 27.7964 123.816 27.4602C124.337 27.1193 125.009 26.9489 125.833 26.9489C126.571 26.9489 127.218 27.1004 127.772 27.4034C128.326 27.7017 128.757 28.1562 129.064 28.767C129.372 29.3731 129.526 30.1402 129.526 31.0682V38H127.85V31.1818C127.85 30.3248 127.627 29.6572 127.182 29.179C126.737 28.696 126.126 28.4545 125.35 28.4545C124.815 28.4545 124.337 28.5705 123.915 28.8026C123.498 29.0346 123.169 29.3731 122.928 29.8182C122.686 30.2633 122.566 30.803 122.566 31.4375ZM137.333 27.0909V28.5114H131.68V27.0909H137.333ZM133.327 24.4773H135.004V34.875C135.004 35.3485 135.072 35.7036 135.21 35.9403C135.352 36.1723 135.531 36.3286 135.749 36.4091C135.972 36.4848 136.206 36.5227 136.452 36.5227C136.637 36.5227 136.789 36.5133 136.907 36.4943C137.025 36.4706 137.12 36.4517 137.191 36.4375L137.532 37.9432C137.418 37.9858 137.26 38.0284 137.056 38.071C136.853 38.1184 136.594 38.142 136.282 38.142C135.808 38.142 135.344 38.0402 134.89 37.8366C134.44 37.633 134.066 37.3229 133.768 36.9062C133.474 36.4896 133.327 35.964 133.327 35.3295V24.4773ZM144.311 38.2273C143.26 38.2273 142.353 37.9953 141.591 37.5312C140.833 37.0625 140.249 36.4091 139.837 35.571C139.429 34.7282 139.226 33.7481 139.226 32.6307C139.226 31.5133 139.429 30.5284 139.837 29.6761C140.249 28.8191 140.821 28.1515 141.555 27.6733C142.294 27.1903 143.156 26.9489 144.141 26.9489C144.709 26.9489 145.27 27.0436 145.824 27.233C146.378 27.4223 146.882 27.7301 147.337 28.1562C147.791 28.5777 148.153 29.1364 148.423 29.8324C148.693 30.5284 148.828 31.3854 148.828 32.4034V33.1136H140.419V31.6648H147.124C147.124 31.0492 147 30.5 146.754 30.017C146.513 29.5341 146.167 29.1529 145.717 28.8736C145.272 28.5942 144.747 28.4545 144.141 28.4545C143.473 28.4545 142.895 28.6203 142.408 28.9517C141.925 29.2784 141.553 29.7045 141.293 30.2301C141.032 30.7557 140.902 31.3191 140.902 31.9205V32.8864C140.902 33.7102 141.044 34.4086 141.328 34.9815C141.617 35.5497 142.017 35.983 142.528 36.2812C143.04 36.5748 143.634 36.7216 144.311 36.7216C144.751 36.7216 145.149 36.66 145.504 36.5369C145.864 36.4091 146.174 36.2197 146.435 35.9688C146.695 35.7131 146.896 35.3958 147.038 35.017L148.658 35.4716C148.487 36.0208 148.201 36.5038 147.798 36.9205C147.396 37.3324 146.899 37.6544 146.307 37.8864C145.715 38.1136 145.05 38.2273 144.311 38.2273ZM151.378 38V27.0909H152.997V28.7386H153.111C153.31 28.1989 153.67 27.7609 154.19 27.4247C154.711 27.0885 155.298 26.9205 155.952 26.9205C156.075 26.9205 156.229 26.9228 156.413 26.9276C156.598 26.9323 156.738 26.9394 156.832 26.9489V28.6534C156.776 28.6392 156.645 28.6179 156.442 28.5895C156.243 28.5563 156.032 28.5398 155.81 28.5398C155.279 28.5398 154.806 28.651 154.389 28.8736C153.977 29.0914 153.651 29.3944 153.409 29.7827C153.172 30.1662 153.054 30.6042 153.054 31.0966V38H151.378ZM166.916 38L163.592 27.0909H165.353L167.711 35.4432H167.825L170.154 27.0909H171.944L174.245 35.4148H174.359L176.717 27.0909H178.478L175.154 38H173.507L171.12 29.6193H170.95L168.564 38H166.916ZM180.694 38V27.0909H182.37V38H180.694ZM181.547 25.2727C181.22 25.2727 180.938 25.1615 180.701 24.9389C180.469 24.7164 180.353 24.4489 180.353 24.1364C180.353 23.8239 180.469 23.5563 180.701 23.3338C180.938 23.1113 181.22 23 181.547 23C181.873 23 182.153 23.1113 182.385 23.3338C182.621 23.5563 182.74 23.8239 182.74 24.1364C182.74 24.4489 182.621 24.7164 182.385 24.9389C182.153 25.1615 181.873 25.2727 181.547 25.2727ZM187.116 23.4545V38H185.44V23.4545H187.116ZM191.863 23.4545V38H190.186V23.4545H191.863ZM200.558 38V27.0909H202.234V38H200.558ZM201.41 25.2727C201.083 25.2727 200.801 25.1615 200.565 24.9389C200.333 24.7164 200.217 24.4489 200.217 24.1364C200.217 23.8239 200.333 23.5563 200.565 23.3338C200.801 23.1113 201.083 23 201.41 23C201.737 23 202.016 23.1113 202.248 23.3338C202.485 23.5563 202.603 23.8239 202.603 24.1364C202.603 24.4489 202.485 24.7164 202.248 24.9389C202.016 25.1615 201.737 25.2727 201.41 25.2727ZM206.98 31.4375V38H205.304V27.0909H206.923V28.7955H207.065C207.321 28.2415 207.709 27.7964 208.23 27.4602C208.751 27.1193 209.423 26.9489 210.247 26.9489C210.985 26.9489 211.632 27.1004 212.186 27.4034C212.74 27.7017 213.171 28.1562 213.478 28.767C213.786 29.3731 213.94 30.1402 213.94 31.0682V38H212.264V31.1818C212.264 30.3248 212.041 29.6572 211.596 29.179C211.151 28.696 210.54 28.4545 209.764 28.4545C209.229 28.4545 208.751 28.5705 208.329 28.8026C207.913 29.0346 207.583 29.3731 207.342 29.8182C207.1 30.2633 206.98 30.803 206.98 31.4375ZM217.003 38V27.0909H218.679V38H217.003ZM217.855 25.2727C217.528 25.2727 217.247 25.1615 217.01 24.9389C216.778 24.7164 216.662 24.4489 216.662 24.1364C216.662 23.8239 216.778 23.5563 217.01 23.3338C217.247 23.1113 217.528 23 217.855 23C218.182 23 218.461 23.1113 218.693 23.3338C218.93 23.5563 219.048 23.8239 219.048 24.1364C219.048 24.4489 218.93 24.7164 218.693 24.9389C218.461 25.1615 218.182 25.2727 217.855 25.2727ZM226.493 27.0909V28.5114H220.84V27.0909H226.493ZM222.488 24.4773H224.164V34.875C224.164 35.3485 224.232 35.7036 224.37 35.9403C224.512 36.1723 224.692 36.3286 224.909 36.4091C225.132 36.4848 225.366 36.5227 225.613 36.5227C225.797 36.5227 225.949 36.5133 226.067 36.4943C226.185 36.4706 226.28 36.4517 226.351 36.4375L226.692 37.9432C226.578 37.9858 226.42 38.0284 226.216 38.071C226.013 38.1184 225.755 38.142 225.442 38.142C224.969 38.142 224.505 38.0402 224.05 37.8366C223.6 37.633 223.226 37.3229 222.928 36.9062C222.634 36.4896 222.488 35.964 222.488 35.3295V24.4773ZM229.015 38V27.0909H230.691V38H229.015ZM229.867 25.2727C229.54 25.2727 229.258 25.1615 229.022 24.9389C228.79 24.7164 228.674 24.4489 228.674 24.1364C228.674 23.8239 228.79 23.5563 229.022 23.3338C229.258 23.1113 229.54 23 229.867 23C230.194 23 230.473 23.1113 230.705 23.3338C230.942 23.5563 231.06 23.8239 231.06 24.1364C231.06 24.4489 230.942 24.7164 230.705 24.9389C230.473 25.1615 230.194 25.2727 229.867 25.2727ZM236.971 38.2557C236.28 38.2557 235.652 38.1255 235.089 37.8651C234.525 37.5999 234.078 37.2188 233.746 36.7216C233.415 36.2197 233.249 35.6136 233.249 34.9034C233.249 34.2784 233.372 33.7718 233.619 33.3835C233.865 32.9905 234.194 32.6828 234.606 32.4602C235.018 32.2377 235.472 32.072 235.969 31.9631C236.471 31.8494 236.976 31.7595 237.482 31.6932C238.145 31.608 238.683 31.544 239.094 31.5014C239.511 31.4541 239.814 31.3759 240.004 31.267C240.198 31.1581 240.295 30.9687 240.295 30.6989V30.642C240.295 29.9413 240.103 29.3968 239.719 29.0085C239.341 28.6203 238.765 28.4261 237.994 28.4261C237.193 28.4261 236.566 28.6013 236.112 28.9517C235.657 29.3021 235.337 29.6761 235.153 30.0739L233.562 29.5057C233.846 28.8428 234.225 28.3267 234.698 27.9574C235.176 27.5833 235.697 27.3229 236.261 27.1761C236.829 27.0246 237.388 26.9489 237.937 26.9489C238.287 26.9489 238.69 26.9915 239.144 27.0767C239.603 27.1572 240.046 27.3253 240.472 27.581C240.903 27.8366 241.261 28.2225 241.545 28.7386C241.829 29.2547 241.971 29.946 241.971 30.8125V38H240.295V36.5227H240.21C240.096 36.7595 239.906 37.0128 239.641 37.2827C239.376 37.5526 239.023 37.7822 238.583 37.9716C238.143 38.161 237.605 38.2557 236.971 38.2557ZM237.227 36.75C237.889 36.75 238.448 36.6198 238.903 36.3594C239.362 36.099 239.708 35.7628 239.94 35.3509C240.176 34.9389 240.295 34.5057 240.295 34.0511V32.517C240.224 32.6023 240.067 32.6804 239.826 32.7514C239.589 32.8177 239.315 32.8769 239.002 32.929C238.694 32.9763 238.394 33.0189 238.1 33.0568C237.811 33.09 237.577 33.1184 237.397 33.142C236.961 33.1989 236.554 33.2912 236.175 33.419C235.801 33.5421 235.498 33.7292 235.266 33.9801C235.039 34.2263 234.925 34.5625 234.925 34.9886C234.925 35.571 235.141 36.0114 235.572 36.3097C236.007 36.6032 236.559 36.75 237.227 36.75ZM249.775 27.0909V28.5114H244.121V27.0909H249.775ZM245.769 24.4773H247.445V34.875C247.445 35.3485 247.514 35.7036 247.651 35.9403C247.793 36.1723 247.973 36.3286 248.191 36.4091C248.413 36.4848 248.648 36.5227 248.894 36.5227C249.078 36.5227 249.23 36.5133 249.348 36.4943C249.467 36.4706 249.561 36.4517 249.632 36.4375L249.973 37.9432C249.86 37.9858 249.701 38.0284 249.498 38.071C249.294 38.1184 249.036 38.142 248.723 38.142C248.25 38.142 247.786 38.0402 247.331 37.8366C246.882 37.633 246.507 37.3229 246.209 36.9062C245.916 36.4896 245.769 35.964 245.769 35.3295V24.4773ZM256.752 38.2273C255.701 38.2273 254.795 37.9953 254.032 37.5312C253.275 37.0625 252.69 36.4091 252.278 35.571C251.871 34.7282 251.667 33.7481 251.667 32.6307C251.667 31.5133 251.871 30.5284 252.278 29.6761C252.69 28.8191 253.263 28.1515 253.997 27.6733C254.735 27.1903 255.597 26.9489 256.582 26.9489C257.15 26.9489 257.711 27.0436 258.265 27.233C258.819 27.4223 259.324 27.7301 259.778 28.1562C260.233 28.5777 260.595 29.1364 260.865 29.8324C261.135 30.5284 261.27 31.3854 261.27 32.4034V33.1136H252.86V31.6648H259.565C259.565 31.0492 259.442 30.5 259.196 30.017C258.954 29.5341 258.609 29.1529 258.159 28.8736C257.714 28.5942 257.188 28.4545 256.582 28.4545C255.914 28.4545 255.337 28.6203 254.849 28.9517C254.366 29.2784 253.994 29.7045 253.734 30.2301C253.474 30.7557 253.343 31.3191 253.343 31.9205V32.8864C253.343 33.7102 253.485 34.4086 253.77 34.9815C254.058 35.5497 254.458 35.983 254.97 36.2812C255.481 36.5748 256.075 36.7216 256.752 36.7216C257.193 36.7216 257.591 36.66 257.946 36.5369C258.306 36.4091 258.616 36.2197 258.876 35.9688C259.136 35.7131 259.338 35.3958 259.48 35.017L261.099 35.4716C260.929 36.0208 260.642 36.5038 260.24 36.9205C259.837 37.3324 259.34 37.6544 258.748 37.8864C258.156 38.1136 257.491 38.2273 256.752 38.2273ZM274.189 27.0909V28.5114H268.535V27.0909H274.189ZM270.183 24.4773H271.859V34.875C271.859 35.3485 271.928 35.7036 272.065 35.9403C272.207 36.1723 272.387 36.3286 272.605 36.4091C272.827 36.4848 273.062 36.5227 273.308 36.5227C273.493 36.5227 273.644 36.5133 273.762 36.4943C273.881 36.4706 273.975 36.4517 274.047 36.4375L274.387 37.9432C274.274 37.9858 274.115 38.0284 273.912 38.071C273.708 38.1184 273.45 38.142 273.137 38.142C272.664 38.142 272.2 38.0402 271.745 37.8366C271.296 37.633 270.922 37.3229 270.623 36.9062C270.33 36.4896 270.183 35.964 270.183 35.3295V24.4773ZM278.62 31.4375V38H276.944V23.4545H278.62V28.7955H278.762C279.018 28.232 279.402 27.7846 279.913 27.4531C280.429 27.117 281.116 26.9489 281.973 26.9489C282.716 26.9489 283.367 27.098 283.926 27.3963C284.484 27.6899 284.918 28.142 285.225 28.7528C285.538 29.3589 285.694 30.1307 285.694 31.0682V38H284.018V31.1818C284.018 30.3153 283.793 29.6454 283.343 29.1719C282.898 28.6937 282.28 28.4545 281.49 28.4545C280.94 28.4545 280.448 28.5705 280.012 28.8026C279.582 29.0346 279.241 29.3731 278.99 29.8182C278.743 30.2633 278.62 30.803 278.62 31.4375ZM293.335 38.2273C292.283 38.2273 291.377 37.9953 290.614 37.5312C289.857 37.0625 289.272 36.4091 288.86 35.571C288.453 34.7282 288.249 33.7481 288.249 32.6307C288.249 31.5133 288.453 30.5284 288.86 29.6761C289.272 28.8191 289.845 28.1515 290.579 27.6733C291.317 27.1903 292.179 26.9489 293.164 26.9489C293.732 26.9489 294.293 27.0436 294.847 27.233C295.401 27.4223 295.906 27.7301 296.36 28.1562C296.815 28.5777 297.177 29.1364 297.447 29.8324C297.717 30.5284 297.852 31.3854 297.852 32.4034V33.1136H289.442V31.6648H296.147C296.147 31.0492 296.024 30.5 295.778 30.017C295.536 29.5341 295.191 29.1529 294.741 28.8736C294.296 28.5942 293.77 28.4545 293.164 28.4545C292.496 28.4545 291.919 28.6203 291.431 28.9517C290.948 29.2784 290.576 29.7045 290.316 30.2301C290.056 30.7557 289.925 31.3191 289.925 31.9205V32.8864C289.925 33.7102 290.067 34.4086 290.352 34.9815C290.64 35.5497 291.04 35.983 291.552 36.2812C292.063 36.5748 292.657 36.7216 293.335 36.7216C293.775 36.7216 294.173 36.66 294.528 36.5369C294.888 36.4091 295.198 36.2197 295.458 35.9688C295.719 35.7131 295.92 35.3958 296.062 35.017L297.681 35.4716C297.511 36.0208 297.224 36.5038 296.822 36.9205C296.419 37.3324 295.922 37.6544 295.33 37.8864C294.738 38.1136 294.073 38.2273 293.335 38.2273ZM309.237 38.2557C308.545 38.2557 307.918 38.1255 307.354 37.8651C306.791 37.5999 306.344 37.2188 306.012 36.7216C305.681 36.2197 305.515 35.6136 305.515 34.9034C305.515 34.2784 305.638 33.7718 305.884 33.3835C306.13 32.9905 306.46 32.6828 306.871 32.4602C307.283 32.2377 307.738 32.072 308.235 31.9631C308.737 31.8494 309.241 31.7595 309.748 31.6932C310.411 31.608 310.948 31.544 311.36 31.5014C311.777 31.4541 312.08 31.3759 312.269 31.267C312.463 31.1581 312.56 30.9687 312.56 30.6989V30.642C312.56 29.9413 312.369 29.3968 311.985 29.0085C311.606 28.6203 311.031 28.4261 310.259 28.4261C309.459 28.4261 308.832 28.6013 308.377 28.9517C307.923 29.3021 307.603 29.6761 307.418 30.0739L305.827 29.5057C306.112 28.8428 306.49 28.3267 306.964 27.9574C307.442 27.5833 307.963 27.3229 308.526 27.1761C309.094 27.0246 309.653 26.9489 310.202 26.9489C310.553 26.9489 310.955 26.9915 311.41 27.0767C311.869 27.1572 312.312 27.3253 312.738 27.581C313.169 27.8366 313.526 28.2225 313.81 28.7386C314.094 29.2547 314.237 29.946 314.237 30.8125V38H312.56V36.5227H312.475C312.362 36.7595 312.172 37.0128 311.907 37.2827C311.642 37.5526 311.289 37.7822 310.849 37.9716C310.408 38.161 309.871 38.2557 309.237 38.2557ZM309.492 36.75C310.155 36.75 310.714 36.6198 311.168 36.3594C311.628 36.099 311.973 35.7628 312.205 35.3509C312.442 34.9389 312.56 34.5057 312.56 34.0511V32.517C312.489 32.6023 312.333 32.6804 312.092 32.7514C311.855 32.8177 311.58 32.8769 311.268 32.929C310.96 32.9763 310.659 33.0189 310.366 33.0568C310.077 33.09 309.843 33.1184 309.663 33.142C309.227 33.1989 308.82 33.2912 308.441 33.419C308.067 33.5421 307.764 33.7292 307.532 33.9801C307.305 34.2263 307.191 34.5625 307.191 34.9886C307.191 35.571 307.406 36.0114 307.837 36.3097C308.273 36.6032 308.825 36.75 309.492 36.75ZM321.728 38.2273C320.705 38.2273 319.824 37.9858 319.086 37.5028C318.347 37.0199 317.779 36.3546 317.381 35.5071C316.983 34.6596 316.784 33.6913 316.784 32.6023C316.784 31.4943 316.988 30.5166 317.395 29.669C317.807 28.8168 318.38 28.1515 319.114 27.6733C319.853 27.1903 320.714 26.9489 321.699 26.9489C322.466 26.9489 323.158 27.0909 323.773 27.375C324.389 27.6591 324.893 28.0568 325.286 28.5682C325.679 29.0795 325.923 29.6761 326.017 30.358H324.341C324.213 29.8608 323.929 29.4205 323.489 29.0369C323.053 28.6487 322.466 28.4545 321.728 28.4545C321.074 28.4545 320.501 28.625 320.009 28.9659C319.521 29.3021 319.14 29.7779 318.865 30.3935C318.596 31.0043 318.461 31.7216 318.461 32.5455C318.461 33.3883 318.593 34.1222 318.858 34.7472C319.128 35.3722 319.507 35.8575 319.995 36.2031C320.487 36.5488 321.065 36.7216 321.728 36.7216C322.163 36.7216 322.559 36.6458 322.914 36.4943C323.269 36.3428 323.569 36.125 323.816 35.8409C324.062 35.5568 324.237 35.2159 324.341 34.8182H326.017C325.923 35.4621 325.688 36.0421 325.314 36.5582C324.945 37.0696 324.455 37.4768 323.844 37.7798C323.238 38.0781 322.533 38.2273 321.728 38.2273ZM333.212 27.0909V28.5114H327.559V27.0909H333.212ZM329.206 24.4773H330.882V34.875C330.882 35.3485 330.951 35.7036 331.088 35.9403C331.23 36.1723 331.41 36.3286 331.628 36.4091C331.851 36.4848 332.085 36.5227 332.331 36.5227C332.516 36.5227 332.667 36.5133 332.786 36.4943C332.904 36.4706 332.999 36.4517 333.07 36.4375L333.411 37.9432C333.297 37.9858 333.139 38.0284 332.935 38.071C332.731 38.1184 332.473 38.142 332.161 38.142C331.687 38.142 331.223 38.0402 330.769 37.8366C330.319 37.633 329.945 37.3229 329.647 36.9062C329.353 36.4896 329.206 35.964 329.206 35.3295V24.4773ZM335.733 38V27.0909H337.409V38H335.733ZM336.586 25.2727C336.259 25.2727 335.977 25.1615 335.74 24.9389C335.508 24.7164 335.392 24.4489 335.392 24.1364C335.392 23.8239 335.508 23.5563 335.74 23.3338C335.977 23.1113 336.259 23 336.586 23C336.912 23 337.192 23.1113 337.424 23.3338C337.66 23.5563 337.779 23.8239 337.779 24.1364C337.779 24.4489 337.66 24.7164 337.424 24.9389C337.192 25.1615 336.912 25.2727 336.586 25.2727ZM344.911 38.2273C343.926 38.2273 343.062 37.9929 342.319 37.5241C341.58 37.0554 341.003 36.3996 340.586 35.5568C340.174 34.714 339.968 33.7292 339.968 32.6023C339.968 31.4659 340.174 30.474 340.586 29.6264C341.003 28.7789 341.58 28.1207 342.319 27.652C343.062 27.1832 343.926 26.9489 344.911 26.9489C345.896 26.9489 346.758 27.1832 347.496 27.652C348.24 28.1207 348.817 28.7789 349.229 29.6264C349.646 30.474 349.854 31.4659 349.854 32.6023C349.854 33.7292 349.646 34.714 349.229 35.5568C348.817 36.3996 348.24 37.0554 347.496 37.5241C346.758 37.9929 345.896 38.2273 344.911 38.2273ZM344.911 36.7216C345.659 36.7216 346.275 36.5298 346.758 36.1463C347.241 35.7628 347.598 35.2585 347.83 34.6335C348.062 34.0085 348.178 33.3314 348.178 32.6023C348.178 31.8731 348.062 31.1937 347.83 30.5639C347.598 29.9342 347.241 29.4252 346.758 29.0369C346.275 28.6487 345.659 28.4545 344.911 28.4545C344.163 28.4545 343.548 28.6487 343.065 29.0369C342.582 29.4252 342.224 29.9342 341.992 30.5639C341.76 31.1937 341.644 31.8731 341.644 32.6023C341.644 33.3314 341.76 34.0085 341.992 34.6335C342.224 35.2585 342.582 35.7628 343.065 36.1463C343.548 36.5298 344.163 36.7216 344.911 36.7216ZM354.089 31.4375V38H352.413V27.0909H354.032V28.7955H354.174C354.43 28.2415 354.818 27.7964 355.339 27.4602C355.86 27.1193 356.532 26.9489 357.356 26.9489C358.095 26.9489 358.741 27.1004 359.295 27.4034C359.849 27.7017 360.28 28.1562 360.588 28.767C360.895 29.3731 361.049 30.1402 361.049 31.0682V38H359.373V31.1818C359.373 30.3248 359.151 29.6572 358.706 29.179C358.261 28.696 357.65 28.4545 356.873 28.4545C356.338 28.4545 355.86 28.5705 355.439 28.8026C355.022 29.0346 354.693 29.3731 354.451 29.8182C354.21 30.2633 354.089 30.803 354.089 31.4375ZM374.169 38.2273C373.184 38.2273 372.32 37.9929 371.577 37.5241C370.838 37.0554 370.26 36.3996 369.844 35.5568C369.432 34.714 369.226 33.7292 369.226 32.6023C369.226 31.4659 369.432 30.474 369.844 29.6264C370.26 28.7789 370.838 28.1207 371.577 27.652C372.32 27.1832 373.184 26.9489 374.169 26.9489C375.154 26.9489 376.016 27.1832 376.754 27.652C377.498 28.1207 378.075 28.7789 378.487 29.6264C378.904 30.474 379.112 31.4659 379.112 32.6023C379.112 33.7292 378.904 34.714 378.487 35.5568C378.075 36.3996 377.498 37.0554 376.754 37.5241C376.016 37.9929 375.154 38.2273 374.169 38.2273ZM374.169 36.7216C374.917 36.7216 375.533 36.5298 376.016 36.1463C376.499 35.7628 376.856 35.2585 377.088 34.6335C377.32 34.0085 377.436 33.3314 377.436 32.6023C377.436 31.8731 377.32 31.1937 377.088 30.5639C376.856 29.9342 376.499 29.4252 376.016 29.0369C375.533 28.6487 374.917 28.4545 374.169 28.4545C373.421 28.4545 372.805 28.6487 372.322 29.0369C371.839 29.4252 371.482 29.9342 371.25 30.5639C371.018 31.1937 370.902 31.8731 370.902 32.6023C370.902 33.3314 371.018 34.0085 371.25 34.6335C371.482 35.2585 371.839 35.7628 372.322 36.1463C372.805 36.5298 373.421 36.7216 374.169 36.7216ZM386.529 27.0909V28.5114H380.648V27.0909H386.529ZM382.409 38V25.5852C382.409 24.9602 382.556 24.4394 382.85 24.0227C383.143 23.6061 383.525 23.2936 383.993 23.0852C384.462 22.8769 384.957 22.7727 385.478 22.7727C385.89 22.7727 386.226 22.8059 386.486 22.8722C386.747 22.9384 386.941 23 387.069 23.0568L386.586 24.5057C386.5 24.4773 386.382 24.4418 386.23 24.3991C386.084 24.3565 385.89 24.3352 385.648 24.3352C385.094 24.3352 384.694 24.4749 384.448 24.7543C384.206 25.0336 384.086 25.4432 384.086 25.983V38H382.409ZM399.247 27.0909V28.5114H393.594V27.0909H399.247ZM395.241 24.4773H396.918V34.875C396.918 35.3485 396.986 35.7036 397.124 35.9403C397.266 36.1723 397.446 36.3286 397.663 36.4091C397.886 36.4848 398.12 36.5227 398.366 36.5227C398.551 36.5227 398.703 36.5133 398.821 36.4943C398.939 36.4706 399.034 36.4517 399.105 36.4375L399.446 37.9432C399.332 37.9858 399.174 38.0284 398.97 38.071C398.767 38.1184 398.509 38.142 398.196 38.142C397.723 38.142 397.259 38.0402 396.804 37.8366C396.354 37.633 395.98 37.3229 395.682 36.9062C395.388 36.4896 395.241 35.964 395.241 35.3295V24.4773ZM403.679 31.4375V38H402.003V23.4545H403.679V28.7955H403.821C404.077 28.232 404.46 27.7846 404.972 27.4531C405.488 27.117 406.174 26.9489 407.031 26.9489C407.775 26.9489 408.426 27.098 408.984 27.3963C409.543 27.6899 409.976 28.142 410.284 28.7528C410.597 29.3589 410.753 30.1307 410.753 31.0682V38H409.077V31.1818C409.077 30.3153 408.852 29.6454 408.402 29.1719C407.957 28.6937 407.339 28.4545 406.548 28.4545C405.999 28.4545 405.507 28.5705 405.071 28.8026C404.64 29.0346 404.299 29.3731 404.048 29.8182C403.802 30.2633 403.679 30.803 403.679 31.4375ZM418.393 38.2273C417.342 38.2273 416.435 37.9953 415.673 37.5312C414.915 37.0625 414.331 36.4091 413.919 35.571C413.511 34.7282 413.308 33.7481 413.308 32.6307C413.308 31.5133 413.511 30.5284 413.919 29.6761C414.331 28.8191 414.904 28.1515 415.637 27.6733C416.376 27.1903 417.238 26.9489 418.223 26.9489C418.791 26.9489 419.352 27.0436 419.906 27.233C420.46 27.4223 420.964 27.7301 421.419 28.1562C421.873 28.5777 422.235 29.1364 422.505 29.8324C422.775 30.5284 422.91 31.3854 422.91 32.4034V33.1136H414.501V31.6648H421.206C421.206 31.0492 421.083 30.5 420.836 30.017C420.595 29.5341 420.249 29.1529 419.799 28.8736C419.354 28.5942 418.829 28.4545 418.223 28.4545C417.555 28.4545 416.977 28.6203 416.49 28.9517C416.007 29.2784 415.635 29.7045 415.375 30.2301C415.114 30.7557 414.984 31.3191 414.984 31.9205V32.8864C414.984 33.7102 415.126 34.4086 415.41 34.9815C415.699 35.5497 416.099 35.983 416.61 36.2812C417.122 36.5748 417.716 36.7216 418.393 36.7216C418.833 36.7216 419.231 36.66 419.586 36.5369C419.946 36.4091 420.256 36.2197 420.517 35.9688C420.777 35.7131 420.978 35.3958 421.12 35.017L422.74 35.4716C422.569 36.0208 422.283 36.5038 421.88 36.9205C421.478 37.3324 420.981 37.6544 420.389 37.8864C419.797 38.1136 419.132 38.2273 418.393 38.2273ZM435.943 27.0909V28.5114H430.062V27.0909H435.943ZM431.824 38V25.5852C431.824 24.9602 431.97 24.4394 432.264 24.0227C432.557 23.6061 432.939 23.2936 433.407 23.0852C433.876 22.8769 434.371 22.7727 434.892 22.7727C435.304 22.7727 435.64 22.8059 435.9 22.8722C436.161 22.9384 436.355 23 436.483 23.0568L436 24.5057C435.914 24.4773 435.796 24.4418 435.645 24.3991C435.498 24.3565 435.304 24.3352 435.062 24.3352C434.508 24.3352 434.108 24.4749 433.862 24.7543C433.62 25.0336 433.5 25.4432 433.5 25.983V38H431.824ZM442.275 38.2273C441.29 38.2273 440.426 37.9929 439.682 37.5241C438.944 37.0554 438.366 36.3996 437.949 35.5568C437.537 34.714 437.331 33.7292 437.331 32.6023C437.331 31.4659 437.537 30.474 437.949 29.6264C438.366 28.7789 438.944 28.1207 439.682 27.652C440.426 27.1832 441.29 26.9489 442.275 26.9489C443.259 26.9489 444.121 27.1832 444.86 27.652C445.603 28.1207 446.181 28.7789 446.593 29.6264C447.009 30.474 447.218 31.4659 447.218 32.6023C447.218 33.7292 447.009 34.714 446.593 35.5568C446.181 36.3996 445.603 37.0554 444.86 37.5241C444.121 37.9929 443.259 38.2273 442.275 38.2273ZM442.275 36.7216C443.023 36.7216 443.638 36.5298 444.121 36.1463C444.604 35.7628 444.962 35.2585 445.194 34.6335C445.426 34.0085 445.542 33.3314 445.542 32.6023C445.542 31.8731 445.426 31.1937 445.194 30.5639C444.962 29.9342 444.604 29.4252 444.121 29.0369C443.638 28.6487 443.023 28.4545 442.275 28.4545C441.526 28.4545 440.911 28.6487 440.428 29.0369C439.945 29.4252 439.587 29.9342 439.355 30.5639C439.123 31.1937 439.007 31.8731 439.007 32.6023C439.007 33.3314 439.123 34.0085 439.355 34.6335C439.587 35.2585 439.945 35.7628 440.428 36.1463C440.911 36.5298 441.526 36.7216 442.275 36.7216ZM454.208 38.2273C453.185 38.2273 452.305 37.9858 451.566 37.5028C450.827 37.0199 450.259 36.3546 449.862 35.5071C449.464 34.6596 449.265 33.6913 449.265 32.6023C449.265 31.4943 449.469 30.5166 449.876 29.669C450.288 28.8168 450.861 28.1515 451.594 27.6733C452.333 27.1903 453.195 26.9489 454.18 26.9489C454.947 26.9489 455.638 27.0909 456.254 27.375C456.869 27.6591 457.373 28.0568 457.766 28.5682C458.159 29.0795 458.403 29.6761 458.498 30.358H456.822C456.694 29.8608 456.41 29.4205 455.969 29.0369C455.534 28.6487 454.947 28.4545 454.208 28.4545C453.555 28.4545 452.982 28.625 452.489 28.9659C452.002 29.3021 451.621 29.7779 451.346 30.3935C451.076 31.0043 450.941 31.7216 450.941 32.5455C450.941 33.3883 451.074 34.1222 451.339 34.7472C451.609 35.3722 451.987 35.8575 452.475 36.2031C452.968 36.5488 453.545 36.7216 454.208 36.7216C454.644 36.7216 455.039 36.6458 455.394 36.4943C455.749 36.3428 456.05 36.125 456.296 35.8409C456.542 35.5568 456.718 35.2159 456.822 34.8182H458.498C458.403 35.4621 458.169 36.0421 457.795 36.5582C457.425 37.0696 456.935 37.4768 456.325 37.7798C455.719 38.0781 455.013 38.2273 454.208 38.2273ZM467.823 33.5398V27.0909H469.499V38H467.823V36.1534H467.71C467.454 36.7074 467.056 37.1785 466.516 37.5668C465.977 37.9503 465.295 38.142 464.471 38.142C463.789 38.142 463.183 37.9929 462.653 37.6946C462.122 37.3916 461.706 36.937 461.403 36.331C461.1 35.7202 460.948 34.9508 460.948 34.0227V27.0909H462.624V33.9091C462.624 34.7045 462.847 35.339 463.292 35.8125C463.742 36.286 464.315 36.5227 465.011 36.5227C465.427 36.5227 465.851 36.4162 466.282 36.2031C466.718 35.9901 467.082 35.6634 467.376 35.223C467.674 34.7827 467.823 34.2216 467.823 33.5398ZM480.297 29.5341L478.791 29.9602C478.696 29.7093 478.556 29.4654 478.372 29.2287C478.192 28.9872 477.946 28.7884 477.633 28.6321C477.321 28.4759 476.921 28.3977 476.433 28.3977C475.765 28.3977 475.209 28.5516 474.764 28.8594C474.324 29.1624 474.103 29.5483 474.103 30.017C474.103 30.4337 474.255 30.7628 474.558 31.0043C474.861 31.2457 475.334 31.447 475.978 31.608L477.598 32.0057C478.573 32.2424 479.3 32.6046 479.778 33.0923C480.256 33.5753 480.495 34.1979 480.495 34.9602C480.495 35.5852 480.315 36.1439 479.956 36.6364C479.6 37.1288 479.103 37.517 478.464 37.8011C477.825 38.0852 477.082 38.2273 476.234 38.2273C475.121 38.2273 474.2 37.9858 473.471 37.5028C472.742 37.0199 472.28 36.3144 472.086 35.3864L473.677 34.9886C473.829 35.5758 474.115 36.0161 474.537 36.3097C474.963 36.6032 475.519 36.75 476.206 36.75C476.987 36.75 477.607 36.5843 478.066 36.2528C478.53 35.9167 478.762 35.5142 478.762 35.0455C478.762 34.6667 478.63 34.3494 478.365 34.0938C478.1 33.8333 477.692 33.6392 477.143 33.5114L475.325 33.0852C474.326 32.8485 473.592 32.4815 473.123 31.9844C472.659 31.4825 472.427 30.8551 472.427 30.1023C472.427 29.4867 472.6 28.9422 472.946 28.4688C473.296 27.9953 473.772 27.6236 474.373 27.3537C474.979 27.0838 475.666 26.9489 476.433 26.9489C477.512 26.9489 478.36 27.1856 478.975 27.6591C479.596 28.1326 480.036 28.7576 480.297 29.5341ZM487.592 38.2273C486.541 38.2273 485.634 37.9953 484.872 37.5312C484.115 37.0625 483.53 36.4091 483.118 35.571C482.711 34.7282 482.507 33.7481 482.507 32.6307C482.507 31.5133 482.711 30.5284 483.118 29.6761C483.53 28.8191 484.103 28.1515 484.837 27.6733C485.575 27.1903 486.437 26.9489 487.422 26.9489C487.99 26.9489 488.551 27.0436 489.105 27.233C489.659 27.4223 490.163 27.7301 490.618 28.1562C491.072 28.5777 491.435 29.1364 491.705 29.8324C491.974 30.5284 492.109 31.3854 492.109 32.4034V33.1136H483.7V31.6648H490.405C490.405 31.0492 490.282 30.5 490.036 30.017C489.794 29.5341 489.448 29.1529 488.999 28.8736C488.554 28.5942 488.028 28.4545 487.422 28.4545C486.754 28.4545 486.177 28.6203 485.689 28.9517C485.206 29.2784 484.834 29.7045 484.574 30.2301C484.313 30.7557 484.183 31.3191 484.183 31.9205V32.8864C484.183 33.7102 484.325 34.4086 484.609 34.9815C484.898 35.5497 485.298 35.983 485.81 36.2812C486.321 36.5748 486.915 36.7216 487.592 36.7216C488.033 36.7216 488.43 36.66 488.786 36.5369C489.145 36.4091 489.455 36.2197 489.716 35.9688C489.976 35.7131 490.178 35.3958 490.32 35.017L491.939 35.4716C491.768 36.0208 491.482 36.5038 491.08 36.9205C490.677 37.3324 490.18 37.6544 489.588 37.8864C488.996 38.1136 488.331 38.2273 487.592 38.2273ZM498.778 38.2273C497.869 38.2273 497.067 37.9976 496.371 37.5384C495.675 37.0743 495.13 36.4209 494.737 35.5781C494.344 34.7306 494.148 33.7292 494.148 32.5739C494.148 31.428 494.344 30.4337 494.737 29.5909C495.13 28.7481 495.677 28.0971 496.378 27.6378C497.079 27.1785 497.888 26.9489 498.807 26.9489C499.517 26.9489 500.078 27.0672 500.49 27.304C500.907 27.536 501.224 27.8011 501.442 28.0994C501.664 28.393 501.837 28.6345 501.96 28.8239H502.102V23.4545H503.778V38H502.159V36.3239H501.96C501.837 36.5227 501.662 36.7737 501.435 37.0767C501.207 37.375 500.883 37.6425 500.462 37.8793C500.04 38.1113 499.479 38.2273 498.778 38.2273ZM499.006 36.7216C499.678 36.7216 500.246 36.5464 500.71 36.196C501.174 35.8409 501.527 35.3509 501.768 34.7259C502.01 34.0961 502.131 33.3693 502.131 32.5455C502.131 31.7311 502.012 31.0185 501.776 30.4077C501.539 29.7921 501.188 29.3139 500.724 28.973C500.26 28.6274 499.688 28.4545 499.006 28.4545C498.295 28.4545 497.704 28.6368 497.23 29.0014C496.761 29.3613 496.409 29.8513 496.172 30.4716C495.94 31.0871 495.824 31.7784 495.824 32.5455C495.824 33.322 495.942 34.0275 496.179 34.6619C496.42 35.2917 496.776 35.7936 497.244 36.1676C497.718 36.5369 498.305 36.7216 499.006 36.7216ZM36.108 68.2273C35.0568 68.2273 34.1501 67.9953 33.3878 67.5312C32.6302 67.0625 32.0455 66.4091 31.6335 65.571C31.2263 64.7282 31.0227 63.7481 31.0227 62.6307C31.0227 61.5133 31.2263 60.5284 31.6335 59.6761C32.0455 58.8191 32.6184 58.1515 33.3523 57.6733C34.0909 57.1903 34.9527 56.9489 35.9375 56.9489C36.5057 56.9489 37.0668 57.0436 37.6207 57.233C38.1747 57.4223 38.679 57.7301 39.1335 58.1562C39.5881 58.5777 39.9503 59.1364 40.2202 59.8324C40.4901 60.5284 40.625 61.3854 40.625 62.4034V63.1136H32.2159V61.6648H38.9205C38.9205 61.0492 38.7973 60.5 38.5511 60.017C38.3097 59.5341 37.964 59.1529 37.5142 58.8736C37.0691 58.5942 36.5436 58.4545 35.9375 58.4545C35.2699 58.4545 34.6922 58.6203 34.2045 58.9517C33.7216 59.2784 33.3499 59.7045 33.0895 60.2301C32.8291 60.7557 32.6989 61.3191 32.6989 61.9205V62.8864C32.6989 63.7102 32.8409 64.4086 33.125 64.9815C33.4138 65.5497 33.8139 65.983 34.3253 66.2812C34.8366 66.5748 35.4309 66.7216 36.108 66.7216C36.5483 66.7216 36.946 66.66 37.3011 66.5369C37.661 66.4091 37.9711 66.2197 38.2315 65.9688C38.492 65.7131 38.6932 65.3958 38.8352 65.017L40.4545 65.4716C40.2841 66.0208 39.9976 66.5038 39.5952 66.9205C39.1927 67.3324 38.6955 67.6544 38.1037 67.8864C37.5118 68.1136 36.8466 68.2273 36.108 68.2273ZM44.8509 53.4545V68H43.1747V53.4545H44.8509ZM52.4947 68.2273C51.4435 68.2273 50.5368 67.9953 49.7745 67.5312C49.0169 67.0625 48.4322 66.4091 48.0202 65.571C47.613 64.7282 47.4094 63.7481 47.4094 62.6307C47.4094 61.5133 47.613 60.5284 48.0202 59.6761C48.4322 58.8191 49.0051 58.1515 49.739 57.6733C50.4776 57.1903 51.3394 56.9489 52.3242 56.9489C52.8924 56.9489 53.4535 57.0436 54.0075 57.233C54.5614 57.4223 55.0657 57.7301 55.5202 58.1562C55.9748 58.5777 56.337 59.1364 56.6069 59.8324C56.8768 60.5284 57.0117 61.3854 57.0117 62.4034V63.1136H48.6026V61.6648H55.3072C55.3072 61.0492 55.1841 60.5 54.9379 60.017C54.6964 59.5341 54.3507 59.1529 53.9009 58.8736C53.4558 58.5942 52.9303 58.4545 52.3242 58.4545C51.6566 58.4545 51.079 58.6203 50.5913 58.9517C50.1083 59.2784 49.7366 59.7045 49.4762 60.2301C49.2158 60.7557 49.0856 61.3191 49.0856 61.9205V62.8864C49.0856 63.7102 49.2276 64.4086 49.5117 64.9815C49.8005 65.5497 50.2006 65.983 50.712 66.2812C51.2234 66.5748 51.8176 66.7216 52.4947 66.7216C52.935 66.7216 53.3327 66.66 53.6879 66.5369C54.0477 66.4091 54.3578 66.2197 54.6183 65.9688C54.8787 65.7131 55.0799 65.3958 55.2219 65.017L56.8413 65.4716C56.6708 66.0208 56.3844 66.5038 55.9819 66.9205C55.5794 67.3324 55.0823 67.6544 54.4904 67.8864C53.8986 68.1136 53.2333 68.2273 52.4947 68.2273ZM59.5614 68V57.0909H61.1808V58.7955H61.3228C61.5501 58.2131 61.917 57.7609 62.4237 57.4389C62.9303 57.1122 63.5387 56.9489 64.2489 56.9489C64.9686 56.9489 65.5676 57.1122 66.0458 57.4389C66.5288 57.7609 66.9052 58.2131 67.1751 58.7955H67.2887C67.5681 58.232 67.9871 57.7846 68.5458 57.4531C69.1045 57.117 69.7745 56.9489 70.5558 56.9489C71.5311 56.9489 72.329 57.2543 72.9492 57.8651C73.5695 58.4711 73.8796 59.4157 73.8796 60.6989V68H72.2035V60.6989C72.2035 59.8939 71.9833 59.3187 71.543 58.973C71.1026 58.6274 70.5842 58.4545 69.9876 58.4545C69.2205 58.4545 68.6263 58.6866 68.2049 59.1506C67.7835 59.6098 67.5728 60.1922 67.5728 60.8977V68H65.8683V60.5284C65.8683 59.9081 65.667 59.4086 65.2646 59.0298C64.8621 58.6463 64.3436 58.4545 63.7092 58.4545C63.2736 58.4545 62.8664 58.5705 62.4876 58.8026C62.1135 59.0346 61.8105 59.3565 61.5785 59.7685C61.3512 60.1757 61.2376 60.6468 61.2376 61.1818V68H59.5614ZM81.5181 68.2273C80.467 68.2273 79.5603 67.9953 78.7979 67.5312C78.0404 67.0625 77.4556 66.4091 77.0437 65.571C76.6365 64.7282 76.4329 63.7481 76.4329 62.6307C76.4329 61.5133 76.6365 60.5284 77.0437 59.6761C77.4556 58.8191 78.0285 58.1515 78.7624 57.6733C79.5011 57.1903 80.3628 56.9489 81.3477 56.9489C81.9158 56.9489 82.4769 57.0436 83.0309 57.233C83.5849 57.4223 84.0891 57.7301 84.5437 58.1562C84.9982 58.5777 85.3604 59.1364 85.6303 59.8324C85.9002 60.5284 86.0352 61.3854 86.0352 62.4034V63.1136H77.6261V61.6648H84.3306C84.3306 61.0492 84.2075 60.5 83.9613 60.017C83.7198 59.5341 83.3742 59.1529 82.9244 58.8736C82.4793 58.5942 81.9537 58.4545 81.3477 58.4545C80.68 58.4545 80.1024 58.6203 79.6147 58.9517C79.1317 59.2784 78.7601 59.7045 78.4996 60.2301C78.2392 60.7557 78.109 61.3191 78.109 61.9205V62.8864C78.109 63.7102 78.2511 64.4086 78.5352 64.9815C78.824 65.5497 79.2241 65.983 79.7354 66.2812C80.2468 66.5748 80.841 66.7216 81.5181 66.7216C81.9585 66.7216 82.3562 66.66 82.7113 66.5369C83.0711 66.4091 83.3813 66.2197 83.6417 65.9688C83.9021 65.7131 84.1033 65.3958 84.2454 65.017L85.8647 65.4716C85.6942 66.0208 85.4078 66.5038 85.0053 66.9205C84.6029 67.3324 84.1057 67.6544 83.5138 67.8864C82.922 68.1136 82.2567 68.2273 81.5181 68.2273ZM90.261 61.4375V68H88.5849V57.0909H90.2042V58.7955H90.3462C90.6019 58.2415 90.9902 57.7964 91.511 57.4602C92.0318 57.1193 92.7042 56.9489 93.5281 56.9489C94.2667 56.9489 94.913 57.1004 95.467 57.4034C96.021 57.7017 96.4518 58.1562 96.7596 58.767C97.0674 59.3731 97.2212 60.1402 97.2212 61.0682V68H95.5451V61.1818C95.5451 60.3248 95.3226 59.6572 94.8775 59.179C94.4324 58.696 93.8216 58.4545 93.0451 58.4545C92.5101 58.4545 92.0318 58.5705 91.6104 58.8026C91.1938 59.0346 90.8647 59.3731 90.6232 59.8182C90.3817 60.2633 90.261 60.803 90.261 61.4375ZM105.028 57.0909V58.5114H99.375V57.0909H105.028ZM101.023 54.4773H102.699V64.875C102.699 65.3485 102.768 65.7036 102.905 65.9403C103.047 66.1723 103.227 66.3286 103.445 66.4091C103.667 66.4848 103.902 66.5227 104.148 66.5227C104.332 66.5227 104.484 66.5133 104.602 66.4943C104.721 66.4706 104.815 66.4517 104.886 66.4375L105.227 67.9432C105.114 67.9858 104.955 68.0284 104.751 68.071C104.548 68.1184 104.29 68.142 103.977 68.142C103.504 68.142 103.04 68.0402 102.585 67.8366C102.135 67.633 101.761 67.3229 101.463 66.9062C101.17 66.4896 101.023 65.964 101.023 65.3295V54.4773ZM108.771 68.1136C108.421 68.1136 108.12 67.9882 107.869 67.7372C107.618 67.4863 107.493 67.1856 107.493 66.8352C107.493 66.4848 107.618 66.1842 107.869 65.9332C108.12 65.6823 108.421 65.5568 108.771 65.5568C109.122 65.5568 109.422 65.6823 109.673 65.9332C109.924 66.1842 110.05 66.4848 110.05 66.8352C110.05 67.0672 109.991 67.2803 109.872 67.4744C109.759 67.6686 109.605 67.8248 109.411 67.9432C109.221 68.0568 109.008 68.1136 108.771 68.1136Z" fill="white" fill-opacity="0.95"/>
</svg>
