<svg width="630" height="266" viewBox="0 0 630 266" fill="none" xmlns="http://www.w3.org/2000/svg">
<path d="M0 24C0 10.7452 10.7452 0 24 0H606C619.255 0 630 10.7452 630 24V242C630 255.255 619.255 266 606 266H24C10.7452 266 0 255.255 0 242V24Z" fill="#262626"/>
<path d="M585.201 48.2001C585.069 48.2004 584.938 48.1744 584.816 48.1238C584.695 48.0732 584.584 47.9989 584.492 47.9051L577.291 40.6698C577.199 40.5767 577.125 40.4663 577.076 40.3448C577.026 40.2233 577 40.0933 577 39.9619C577.001 39.8306 577.027 39.7007 577.078 39.5795C577.128 39.4583 577.202 39.3483 577.295 39.2557C577.388 39.1631 577.499 39.0898 577.62 39.0399C577.742 38.9899 577.872 38.9644 578.003 38.9648C578.134 38.9652 578.264 38.9914 578.386 39.042C578.507 39.0926 578.617 39.1665 578.709 39.2596L585.254 45.8368L601.35 32.0419C601.551 31.8694 601.813 31.7839 602.077 31.8042C602.341 31.8245 602.587 31.949 602.759 32.1503C602.932 32.3515 603.017 32.613 602.997 32.8773C602.976 33.1416 602.852 33.387 602.651 33.5594L585.851 47.9589C585.67 48.1147 585.439 48.2003 585.201 48.2001Z" fill="url(#paint0_linear_2029_11828)"/>
<path d="M0 243H630C630 255.703 619.703 266 607 266H23C10.2975 266 0 255.703 0 243Z" fill="url(#paint1_linear_2029_11828)"/>
<defs>
<linearGradient id="paint0_linear_2029_11828" x1="590" y1="31.8013" x2="590" y2="48.2001" gradientUnits="userSpaceOnUse">
<stop stop-color="#3CC29A"/>
<stop offset="1" stop-color="#93C437"/>
</linearGradient>
<linearGradient id="paint1_linear_2029_11828" x1="315" y1="243" x2="315" y2="266" gradientUnits="userSpaceOnUse">
<stop stop-color="#3CC29A"/>
<stop offset="1" stop-color="#93C437"/>
</linearGradient>
</defs>
</svg>
