<svg width="117" height="23" viewBox="0 0 117 23" fill="none" xmlns="http://www.w3.org/2000/svg">
<rect width="117" height="22.7404" rx="11.3645" fill="white" fill-opacity="0.95"/>
<path d="M16.0316 9.71543C15.9536 9.47048 15.8486 9.2511 15.7167 9.05728C15.5875 8.86078 15.4327 8.69389 15.2523 8.55661C15.072 8.41663 14.8661 8.31031 14.6346 8.23763C14.4058 8.16495 14.1541 8.12861 13.8795 8.12861C13.4138 8.12861 12.9939 8.2484 12.6198 8.48797C12.2456 8.72754 11.9495 9.07882 11.7315 9.54181C11.5161 10.0021 11.4084 10.566 11.4084 11.2336C11.4084 11.9039 11.5175 12.4705 11.7355 12.9335C11.9535 13.3965 12.2523 13.7478 12.6319 13.9873C13.0114 14.2269 13.4434 14.3467 13.928 14.3467C14.3775 14.3467 14.7692 14.2552 15.1029 14.0721C15.4394 13.8891 15.6992 13.6307 15.8822 13.2969C16.068 12.9604 16.1608 12.5647 16.1608 12.1098L16.4838 12.1704H14.1177V11.1407H17.3681V12.0815C17.3681 12.776 17.2201 13.379 16.924 13.8904C16.6305 14.3992 16.2241 14.7922 15.7046 15.0694C15.1877 15.3467 14.5955 15.4853 13.928 15.4853C13.1796 15.4853 12.5228 15.313 11.9576 14.9685C11.395 14.6239 10.9562 14.1354 10.6413 13.5028C10.3263 12.8675 10.1689 12.1138 10.1689 11.2417C10.1689 10.5822 10.2604 9.99 10.4434 9.46509C10.6265 8.94019 10.8835 8.4947 11.2146 8.12861C11.5484 7.75983 11.9401 7.47854 12.3896 7.28473C12.8418 7.08823 13.3358 6.98998 13.8714 6.98998C14.3183 6.98998 14.7342 7.05593 15.1191 7.18782C15.5067 7.31972 15.8513 7.5068 16.1528 7.74907C16.4569 7.99133 16.7086 8.27935 16.9078 8.61314C17.107 8.94423 17.2416 9.31166 17.3116 9.71543H16.0316ZM21.4674 15.4974C20.886 15.4974 20.3786 15.3642 19.9452 15.0977C19.5118 14.8312 19.1753 14.4584 18.9357 13.9793C18.6962 13.5001 18.5764 12.9402 18.5764 12.2996C18.5764 11.6562 18.6962 11.0936 18.9357 10.6118C19.1753 10.13 19.5118 9.75581 19.9452 9.48932C20.3786 9.22283 20.886 9.08959 21.4674 9.08959C22.0488 9.08959 22.5562 9.22283 22.9896 9.48932C23.423 9.75581 23.7595 10.13 23.999 10.6118C24.2386 11.0936 24.3584 11.6562 24.3584 12.2996C24.3584 12.9402 24.2386 13.5001 23.999 13.9793C23.7595 14.4584 23.423 14.8312 22.9896 15.0977C22.5562 15.3642 22.0488 15.4974 21.4674 15.4974ZM21.4714 14.484C21.8483 14.484 22.1605 14.3844 22.4082 14.1852C22.6558 13.986 22.8389 13.7208 22.9573 13.3897C23.0784 13.0587 23.139 12.6939 23.139 12.2955C23.139 11.8998 23.0784 11.5364 22.9573 11.2053C22.8389 10.8716 22.6558 10.6037 22.4082 10.4018C22.1605 10.2 21.8483 10.099 21.4714 10.099C21.0919 10.099 20.7769 10.2 20.5266 10.4018C20.279 10.6037 20.0946 10.8716 19.9734 11.2053C19.855 11.5364 19.7958 11.8998 19.7958 12.2955C19.7958 12.6939 19.855 13.0587 19.9734 13.3897C20.0946 13.7208 20.279 13.986 20.5266 14.1852C20.7769 14.3844 21.0919 14.484 21.4714 14.484ZM31.6101 9.17034V10.1394H28.2225V9.17034H31.6101ZM29.131 7.68446H30.3382V13.5513C30.3382 13.7854 30.3732 13.9618 30.4432 14.0802C30.5132 14.1959 30.6034 14.2754 30.7137 14.3184C30.8268 14.3588 30.9493 14.379 31.0812 14.379C31.1781 14.379 31.2629 14.3723 31.3356 14.3588C31.4082 14.3453 31.4648 14.3346 31.5051 14.3265L31.7232 15.3238C31.6532 15.3507 31.5536 15.3776 31.4244 15.4046C31.2952 15.4342 31.1337 15.4503 30.9399 15.453C30.6222 15.4584 30.3261 15.4019 30.0516 15.2834C29.777 15.165 29.5549 14.982 29.3853 14.7343C29.2158 14.4867 29.131 14.1758 29.131 13.8016V7.68446ZM35.4914 15.4974C34.9099 15.4974 34.4025 15.3642 33.9691 15.0977C33.5358 14.8312 33.1993 14.4584 32.9597 13.9793C32.7201 13.5001 32.6004 12.9402 32.6004 12.2996C32.6004 11.6562 32.7201 11.0936 32.9597 10.6118C33.1993 10.13 33.5358 9.75581 33.9691 9.48932C34.4025 9.22283 34.9099 9.08959 35.4914 9.08959C36.0728 9.08959 36.5802 9.22283 37.0136 9.48932C37.447 9.75581 37.7834 10.13 38.023 10.6118C38.2626 11.0936 38.3824 11.6562 38.3824 12.2996C38.3824 12.9402 38.2626 13.5001 38.023 13.9793C37.7834 14.4584 37.447 14.8312 37.0136 15.0977C36.5802 15.3642 36.0728 15.4974 35.4914 15.4974ZM35.4954 14.484C35.8723 14.484 36.1845 14.3844 36.4322 14.1852C36.6798 13.986 36.8628 13.7208 36.9813 13.3897C37.1024 13.0587 37.163 12.6939 37.163 12.2955C37.163 11.8998 37.1024 11.5364 36.9813 11.2053C36.8628 10.8716 36.6798 10.6037 36.4322 10.4018C36.1845 10.2 35.8723 10.099 35.4954 10.099C35.1159 10.099 34.8009 10.2 34.5506 10.4018C34.3029 10.6037 34.1185 10.8716 33.9974 11.2053C33.879 11.5364 33.8198 11.8998 33.8198 12.2955C33.8198 12.6939 33.879 13.0587 33.9974 13.3897C34.1185 13.7208 34.3029 13.986 34.5506 14.1852C34.8009 14.3844 35.1159 14.484 35.4954 14.484ZM44.0836 15.3723L42.2586 9.17034H43.5062L44.7216 13.7249H44.7821L46.0015 9.17034H47.2492L48.4605 13.7047H48.5211L49.7283 9.17034H50.976L49.155 15.3723H47.9235L46.6637 10.8944H46.5708L45.3111 15.3723H44.0836ZM54.5453 15.4974C53.9639 15.4974 53.4565 15.3642 53.0231 15.0977C52.5897 14.8312 52.2532 14.4584 52.0137 13.9793C51.7741 13.5001 51.6543 12.9402 51.6543 12.2996C51.6543 11.6562 51.7741 11.0936 52.0137 10.6118C52.2532 10.13 52.5897 9.75581 53.0231 9.48932C53.4565 9.22283 53.9639 9.08959 54.5453 9.08959C55.1268 9.08959 55.6342 9.22283 56.0675 9.48932C56.5009 9.75581 56.8374 10.13 57.077 10.6118C57.3165 11.0936 57.4363 11.6562 57.4363 12.2996C57.4363 12.9402 57.3165 13.5001 57.077 13.9793C56.8374 14.4584 56.5009 14.8312 56.0675 15.0977C55.6342 15.3642 55.1268 15.4974 54.5453 15.4974ZM54.5494 14.484C54.9262 14.484 55.2385 14.3844 55.4861 14.1852C55.7338 13.986 55.9168 13.7208 56.0352 13.3897C56.1564 13.0587 56.2169 12.6939 56.2169 12.2955C56.2169 11.8998 56.1564 11.5364 56.0352 11.2053C55.9168 10.8716 55.7338 10.6037 55.4861 10.4018C55.2385 10.2 54.9262 10.099 54.5494 10.099C54.1698 10.099 53.8549 10.2 53.6045 10.4018C53.3569 10.6037 53.1725 10.8716 53.0514 11.2053C52.9329 11.5364 52.8737 11.8998 52.8737 12.2955C52.8737 12.6939 52.9329 13.0587 53.0514 13.3897C53.1725 13.7208 53.3569 13.986 53.6045 14.1852C53.8549 14.3844 54.1698 14.484 54.5494 14.484ZM58.7839 15.3723V9.17034H59.9508V10.1555H60.0154C60.1285 9.82176 60.3277 9.55931 60.613 9.36819C60.901 9.17438 61.2267 9.07747 61.5901 9.07747C61.6655 9.07747 61.7543 9.08017 61.8566 9.08555C61.9616 9.09093 62.0437 9.09766 62.1029 9.10574V10.2605C62.0545 10.2471 61.9683 10.2323 61.8445 10.2161C61.7207 10.1973 61.5968 10.1878 61.473 10.1878C61.1877 10.1878 60.9333 10.2484 60.7099 10.3695C60.4892 10.488 60.3142 10.6535 60.185 10.8662C60.0558 11.0761 59.9912 11.3157 59.9912 11.5849V15.3723H58.7839ZM64.258 13.2686L64.25 11.7949H64.4599L66.931 9.17034H68.3765L65.5582 12.1582H65.3684L64.258 13.2686ZM63.1477 15.3723V7.10303H64.3549V15.3723H63.1477ZM67.0642 15.3723L64.8435 12.4247L65.6753 11.5809L68.5461 15.3723H67.0642ZM74.1242 10.6845L73.03 10.8783C72.9842 10.7383 72.9115 10.6051 72.8119 10.4786C72.715 10.352 72.5831 10.2484 72.4162 10.1677C72.2493 10.0869 72.0407 10.0465 71.7904 10.0465C71.4485 10.0465 71.1632 10.1232 70.9344 10.2767C70.7056 10.4274 70.5912 10.6226 70.5912 10.8621C70.5912 11.0694 70.6679 11.2363 70.8213 11.3628C70.9748 11.4893 71.2224 11.593 71.5643 11.6737L72.5495 11.8998C73.1201 12.0317 73.5454 12.235 73.8254 12.5095C74.1053 12.7841 74.2453 13.1408 74.2453 13.5795C74.2453 13.951 74.1376 14.2821 73.9223 14.5728C73.7096 14.8608 73.4122 15.0869 73.03 15.2511C72.6504 15.4153 72.2103 15.4974 71.7096 15.4974C71.0151 15.4974 70.4485 15.3494 70.0098 15.0533C69.571 14.7545 69.3018 14.3305 69.2022 13.7814L70.3691 13.6037C70.4418 13.9079 70.5912 14.1381 70.8173 14.2942C71.0434 14.4476 71.3382 14.5243 71.7016 14.5243C72.0973 14.5243 72.4135 14.4422 72.6504 14.278C72.8873 14.1112 73.0057 13.9079 73.0057 13.6684C73.0057 13.4745 72.9331 13.3117 72.7877 13.1798C72.645 13.0479 72.4257 12.9483 72.1296 12.881L71.0797 12.6508C70.501 12.5189 70.073 12.309 69.7958 12.021C69.5212 11.7329 69.3839 11.3682 69.3839 10.9267C69.3839 10.5607 69.4862 10.2403 69.6908 9.96577C69.8954 9.69121 70.178 9.47721 70.5387 9.32377C70.8994 9.16765 71.3126 9.08959 71.7783 9.08959C72.4485 9.08959 72.9761 9.23494 73.3611 9.52566C73.746 9.81368 74.0004 10.2 74.1242 10.6845ZM75.5727 17.698V9.17034H76.7517V10.1757H76.8527C76.9227 10.0465 77.0236 9.89713 77.1555 9.72755C77.2874 9.55796 77.4704 9.40991 77.7046 9.2834C77.9388 9.15419 78.2484 9.08959 78.6333 9.08959C79.134 9.08959 79.5808 9.2161 79.9738 9.46913C80.3668 9.72216 80.675 10.0869 80.8985 10.5634C81.1246 11.0398 81.2376 11.6132 81.2376 12.2834C81.2376 12.9537 81.1259 13.5284 80.9025 14.0075C80.6791 14.484 80.3722 14.8514 79.9819 15.1098C79.5916 15.3655 79.1461 15.4934 78.6454 15.4934C78.2686 15.4934 77.9603 15.4301 77.7208 15.3036C77.4839 15.1771 77.2982 15.0291 77.1636 14.8595C77.029 14.6899 76.9253 14.5392 76.8527 14.4073H76.78V17.698H75.5727ZM76.7558 12.2713C76.7558 12.7074 76.819 13.0896 76.9455 13.418C77.072 13.7464 77.2551 14.0035 77.4947 14.1892C77.7342 14.3723 78.0276 14.4638 78.3749 14.4638C78.7356 14.4638 79.0371 14.3682 79.2793 14.1771C79.5216 13.9833 79.7046 13.7208 79.8285 13.3897C79.955 13.0587 80.0182 12.6858 80.0182 12.2713C80.0182 11.8621 79.9563 11.4947 79.8325 11.169C79.7114 10.8433 79.5283 10.5862 79.2834 10.3978C79.0411 10.2094 78.7383 10.1152 78.3749 10.1152C78.0249 10.1152 77.7289 10.2053 77.4866 10.3857C77.247 10.566 77.0653 10.8177 76.9415 11.1407C76.8177 11.4638 76.7558 11.8406 76.7558 12.2713ZM84.3951 15.5095C84.0021 15.5095 83.6468 15.4369 83.3292 15.2915C83.0115 15.1435 82.7598 14.9295 82.5741 14.6495C82.3911 14.3696 82.2995 14.0264 82.2995 13.6199C82.2995 13.27 82.3668 12.9819 82.5014 12.7558C82.636 12.5297 82.8177 12.3507 83.0465 12.2188C83.2753 12.0869 83.531 11.9873 83.8137 11.92C84.0963 11.8527 84.3843 11.8016 84.6777 11.7666C85.0492 11.7235 85.3507 11.6885 85.5822 11.6616C85.8137 11.632 85.9819 11.5849 86.0869 11.5203C86.1919 11.4557 86.2444 11.3507 86.2444 11.2053V11.1771C86.2444 10.8245 86.1448 10.5512 85.9456 10.3574C85.7491 10.1636 85.4557 10.0667 85.0654 10.0667C84.6589 10.0667 84.3386 10.1569 84.1044 10.3372C83.8729 10.5149 83.7127 10.7127 83.6239 10.9308L82.4893 10.6724C82.6239 10.2955 82.8204 9.99134 83.0788 9.75985C83.3399 9.52566 83.6401 9.35608 83.9792 9.25109C84.3184 9.14342 84.6751 9.08959 85.0492 9.08959C85.2969 9.08959 85.5593 9.1192 85.8366 9.17842C86.1165 9.23494 86.3776 9.33992 86.6199 9.49336C86.8648 9.64679 87.0654 9.86617 87.2215 10.1515C87.3776 10.4341 87.4557 10.8016 87.4557 11.2538V15.3723H86.2767V14.5243H86.2282C86.1502 14.6805 86.0331 14.8339 85.8769 14.9846C85.7208 15.1354 85.5203 15.2606 85.2753 15.3602C85.0304 15.4597 84.737 15.5095 84.3951 15.5095ZM84.6576 14.5405C84.9913 14.5405 85.2767 14.4745 85.5136 14.3426C85.7531 14.2107 85.9348 14.0385 86.0586 13.8258C86.1852 13.6105 86.2484 13.3803 86.2484 13.1354V12.3359C86.2053 12.379 86.1219 12.4194 85.9981 12.457C85.8769 12.492 85.7383 12.523 85.5822 12.5499C85.4261 12.5741 85.274 12.597 85.1259 12.6185C84.9779 12.6374 84.8541 12.6535 84.7545 12.667C84.5203 12.6966 84.3063 12.7464 84.1125 12.8164C83.9213 12.8864 83.7679 12.9873 83.6522 13.1192C83.5391 13.2484 83.4826 13.4207 83.4826 13.636C83.4826 13.9348 83.5929 14.161 83.8137 14.3144C84.0344 14.4651 84.3157 14.5405 84.6576 14.5405ZM91.6761 15.4974C91.0758 15.4974 90.559 15.3615 90.1256 15.0896C89.6949 14.8151 89.3638 14.4369 89.1324 13.955C88.9009 13.4732 88.7851 12.9214 88.7851 12.2996C88.7851 11.6697 88.9035 11.1138 89.1404 10.632C89.3773 10.1475 89.7111 9.76927 90.1418 9.4974C90.5725 9.22552 91.0799 9.08959 91.664 9.08959C92.1351 9.08959 92.555 9.17707 92.9238 9.35204C93.2925 9.52431 93.59 9.76658 93.8161 10.0788C94.0449 10.3911 94.1808 10.7558 94.2239 11.173H93.0489C92.9843 10.8823 92.8363 10.632 92.6048 10.422C92.376 10.2121 92.0691 10.1071 91.6842 10.1071C91.3477 10.1071 91.053 10.1959 90.7999 10.3736C90.5496 10.5485 90.3544 10.7989 90.2145 11.1246C90.0745 11.4476 90.0045 11.8298 90.0045 12.2713C90.0045 12.7235 90.0731 13.1138 90.2104 13.4422C90.3477 13.7706 90.5415 14.025 90.7919 14.2054C91.0449 14.3857 91.3423 14.4759 91.6842 14.4759C91.913 14.4759 92.1203 14.4342 92.306 14.3507C92.4944 14.2646 92.6519 14.1421 92.7784 13.9833C92.9076 13.8245 92.9978 13.6334 93.0489 13.4099H94.2239C94.1808 13.811 94.0503 14.169 93.8322 14.484C93.6142 14.7989 93.3221 15.0466 92.9561 15.2269C92.5927 15.4073 92.166 15.4974 91.6761 15.4974ZM98.1879 15.4974C97.5769 15.4974 97.0506 15.3669 96.6092 15.1058C96.1704 14.842 95.8313 14.4719 95.5917 13.9954C95.3548 13.5163 95.2364 12.955 95.2364 12.3117C95.2364 11.6764 95.3548 11.1165 95.5917 10.632C95.8313 10.1475 96.165 9.76927 96.593 9.4974C97.0237 9.22552 97.5271 9.08959 98.1031 9.08959C98.4531 9.08959 98.7922 9.14746 99.1206 9.26321C99.449 9.37896 99.7438 9.56065 100.005 9.8083C100.266 10.0559 100.472 10.3776 100.623 10.7733C100.773 11.1663 100.849 11.6441 100.849 12.2067V12.6347H95.9187V11.7302H99.6657C99.6657 11.4126 99.6011 11.1313 99.4719 10.8864C99.3427 10.6387 99.161 10.4436 98.9268 10.3009C98.6953 10.1582 98.4235 10.0869 98.1112 10.0869C97.772 10.0869 97.4759 10.1703 97.2229 10.3372C96.9726 10.5014 96.7788 10.7168 96.6415 10.9833C96.5069 11.2471 96.4396 11.5337 96.4396 11.8433V12.5499C96.4396 12.9644 96.5123 13.3171 96.6576 13.6078C96.8057 13.8985 97.0116 14.1206 97.2754 14.274C97.5392 14.4247 97.8474 14.5001 98.2 14.5001C98.4288 14.5001 98.6375 14.4678 98.8259 14.4032C99.0143 14.3359 99.1772 14.2363 99.3145 14.1044C99.4517 13.9725 99.5567 13.8097 99.6294 13.6159L100.772 13.8218C100.681 14.1583 100.516 14.453 100.279 14.706C100.045 14.9564 99.7505 15.1515 99.3952 15.2915C99.0426 15.4288 98.6402 15.4974 98.1879 15.4974ZM106.836 10.6845L105.741 10.8783C105.696 10.7383 105.623 10.6051 105.523 10.4786C105.427 10.352 105.295 10.2484 105.128 10.1677C104.961 10.0869 104.752 10.0465 104.502 10.0465C104.16 10.0465 103.875 10.1232 103.646 10.2767C103.417 10.4274 103.303 10.6226 103.303 10.8621C103.303 11.0694 103.379 11.2363 103.533 11.3628C103.686 11.4893 103.934 11.593 104.276 11.6737L105.261 11.8998C105.832 12.0317 106.257 12.235 106.537 12.5095C106.817 12.7841 106.957 13.1408 106.957 13.5795C106.957 13.951 106.849 14.2821 106.634 14.5728C106.421 14.8608 106.124 15.0869 105.741 15.2511C105.362 15.4153 104.922 15.4974 104.421 15.4974C103.727 15.4974 103.16 15.3494 102.721 15.0533C102.283 14.7545 102.013 14.3305 101.914 13.7814L103.081 13.6037C103.153 13.9079 103.303 14.1381 103.529 14.2942C103.755 14.4476 104.05 14.5243 104.413 14.5243C104.809 14.5243 105.125 14.4422 105.362 14.278C105.599 14.1112 105.717 13.9079 105.717 13.6684C105.717 13.4745 105.645 13.3117 105.499 13.1798C105.357 13.0479 105.137 12.9483 104.841 12.881L103.791 12.6508C103.213 12.5189 102.785 12.309 102.507 12.021C102.233 11.7329 102.095 11.3682 102.095 10.9267C102.095 10.5607 102.198 10.2403 102.402 9.96577C102.607 9.69121 102.89 9.47721 103.25 9.32377C103.611 9.16765 104.024 9.08959 104.49 9.08959C105.16 9.08959 105.688 9.23494 106.073 9.52566C106.457 9.81368 106.712 10.2 106.836 10.6845Z" fill="black" fill-opacity="0.95"/>
</svg>
