<svg width="630" height="266" viewBox="0 0 630 266" fill="none" xmlns="http://www.w3.org/2000/svg">
<path d="M0 24C0 10.7452 10.7452 0 24 0H606C619.255 0 630 10.7452 630 24V242C630 255.255 619.255 266 606 266H24C10.7452 266 0 255.255 0 242V24Z" fill="#262626"/>
<path d="M590 25.9995C587.232 25.9995 584.525 26.8206 582.223 28.3589C579.92 29.8973 578.126 32.0838 577.066 34.6419C576.007 37.2001 575.729 40.015 576.27 42.7308C576.81 45.4465 578.143 47.9411 580.101 49.899C582.059 51.8569 584.553 53.1903 587.269 53.7305C589.985 54.2707 592.8 53.9935 595.358 52.9338C597.916 51.8742 600.103 50.0798 601.641 47.7775C603.179 45.4752 604 42.7684 604 39.9995C603.996 36.2878 602.52 32.7292 599.895 30.1046C597.271 27.48 593.712 26.0037 590 25.9995ZM599.155 47.7402L582.26 30.8447C584.555 28.8983 587.498 27.8862 590.505 28.0096C593.511 28.1329 596.362 29.3826 598.49 31.5105C600.617 33.6383 601.867 36.4887 601.99 39.4954C602.114 42.5021 601.102 45.4453 599.155 47.7402ZM580.846 32.2588L597.741 49.1543C595.446 51.1007 592.503 52.1127 589.496 51.9894C586.49 51.866 583.639 50.6164 581.512 48.4885C579.384 46.3607 578.134 43.5103 578.011 40.5036C577.887 37.4969 578.899 34.5538 580.846 32.2588Z" fill="#FC8B98"/>
<path d="M0 243H630C630 255.703 619.703 266 607 266H23C10.2975 266 0 255.703 0 243Z" fill="url(#paint0_linear_2029_11837)"/>
<defs>
<linearGradient id="paint0_linear_2029_11837" x1="315" y1="243" x2="315" y2="266" gradientUnits="userSpaceOnUse">
<stop stop-color="#F0677E"/>
<stop offset="1" stop-color="#DB1F2E"/>
</linearGradient>
</defs>
</svg>
