<svg width="1300" height="315" viewBox="0 0 1300 315" fill="none" xmlns="http://www.w3.org/2000/svg">
<rect width="1300" height="314.797" rx="20" fill="#262626"/>
<rect x="853.5" y="155.399" width="139" height="60" rx="5" stroke="#DA0087" stroke-width="2" stroke-linecap="square"/>
<rect x="855.5" y="157.399" width="135" height="56" rx="3" stroke="white" stroke-opacity="0.9" stroke-width="2" stroke-linecap="square"/>
<rect x="854.5" y="113.149" width="36" height="36" rx="18" fill="#DA0087"/>
<rect x="855.5" y="114.149" width="34" height="34" rx="17" stroke="white" stroke-opacity="0.9" stroke-width="2"/>
<path d="M867.845 135.103V133.166L872.703 125.513H874.374V128.194H873.385L870.322 133.041V133.132H877.226V135.103H867.845ZM873.43 137.149V134.513L873.476 133.655V125.513H875.783V137.149H873.43Z" fill="white" fill-opacity="0.95"/>
<rect x="677.5" y="155.399" width="126" height="60" rx="5" stroke="#DA0087" stroke-width="2" stroke-linecap="square"/>
<rect x="679.5" y="157.399" width="122" height="56" rx="3" stroke="white" stroke-opacity="0.9" stroke-width="2" stroke-linecap="square"/>
<rect x="678.5" y="113.149" width="36" height="36" rx="18" fill="#DA0087"/>
<rect x="679.5" y="114.149" width="34" height="34" rx="17" stroke="white" stroke-opacity="0.9" stroke-width="2"/>
<path d="M696.471 137.308C695.622 137.308 694.867 137.162 694.204 136.871C693.545 136.575 693.024 136.17 692.641 135.655C692.263 135.136 692.067 134.537 692.056 133.859H694.533C694.549 134.143 694.641 134.393 694.812 134.609C694.986 134.821 695.217 134.986 695.505 135.103C695.793 135.221 696.117 135.28 696.477 135.28C696.852 135.28 697.183 135.213 697.471 135.081C697.759 134.948 697.984 134.764 698.147 134.53C698.31 134.295 698.391 134.024 698.391 133.717C698.391 133.407 698.304 133.132 698.13 132.893C697.96 132.651 697.713 132.461 697.391 132.325C697.073 132.189 696.694 132.121 696.255 132.121H695.17V130.314H696.255C696.626 130.314 696.954 130.249 697.238 130.121C697.526 129.992 697.749 129.814 697.908 129.586C698.067 129.355 698.147 129.086 698.147 128.78C698.147 128.488 698.077 128.232 697.937 128.013C697.8 127.789 697.607 127.615 697.357 127.49C697.111 127.365 696.823 127.302 696.494 127.302C696.16 127.302 695.855 127.363 695.579 127.484C695.302 127.602 695.081 127.77 694.914 127.99C694.747 128.21 694.658 128.467 694.647 128.763H692.289C692.3 128.092 692.492 127.501 692.863 126.99C693.234 126.478 693.734 126.079 694.363 125.791C694.996 125.499 695.71 125.353 696.505 125.353C697.308 125.353 698.011 125.499 698.613 125.791C699.215 126.083 699.683 126.477 700.016 126.973C700.353 127.465 700.52 128.018 700.516 128.632C700.52 129.283 700.317 129.827 699.908 130.263C699.503 130.698 698.975 130.975 698.323 131.092V131.183C699.179 131.293 699.831 131.59 700.278 132.075C700.728 132.556 700.952 133.158 700.948 133.882C700.952 134.545 700.761 135.134 700.374 135.649C699.992 136.164 699.463 136.569 698.789 136.865C698.115 137.16 697.342 137.308 696.471 137.308Z" fill="white" fill-opacity="0.95"/>
<rect x="497.5" y="155.797" width="117" height="60" rx="5" stroke="#DA0087" stroke-width="2" stroke-linecap="square"/>
<rect x="499.5" y="157.797" width="113" height="56" rx="3" stroke="white" stroke-opacity="0.9" stroke-width="2" stroke-linecap="square"/>
<rect x="498.5" y="113.149" width="36" height="36" rx="18" fill="#DA0087"/>
<rect x="499.5" y="114.149" width="34" height="34" rx="17" stroke="white" stroke-opacity="0.9" stroke-width="2"/>
<path d="M512.404 137.149V135.376L516.546 131.541C516.898 131.2 517.194 130.893 517.433 130.621C517.675 130.348 517.859 130.081 517.984 129.819C518.109 129.554 518.171 129.268 518.171 128.961C518.171 128.621 518.094 128.327 517.938 128.081C517.783 127.831 517.571 127.639 517.302 127.507C517.033 127.371 516.728 127.302 516.387 127.302C516.031 127.302 515.72 127.374 515.455 127.518C515.19 127.662 514.986 127.869 514.842 128.138C514.698 128.407 514.626 128.727 514.626 129.098H512.29C512.29 128.336 512.463 127.675 512.808 127.115C513.152 126.554 513.635 126.121 514.256 125.814C514.878 125.507 515.594 125.353 516.404 125.353C517.237 125.353 517.963 125.501 518.58 125.797C519.201 126.088 519.684 126.494 520.029 127.013C520.374 127.532 520.546 128.126 520.546 128.797C520.546 129.236 520.459 129.67 520.285 130.098C520.114 130.526 519.809 131.001 519.37 131.524C518.931 132.043 518.311 132.666 517.512 133.393L515.813 135.058V135.138H520.7V137.149H512.404Z" fill="white" fill-opacity="0.95"/>
<rect x="317.5" y="155.797" width="117" height="60" rx="5" stroke="#DA0087" stroke-width="2" stroke-linecap="square"/>
<rect x="319.5" y="157.797" width="113" height="56" rx="3" stroke="white" stroke-opacity="0.9" stroke-width="2" stroke-linecap="square"/>
<rect x="318.5" y="113.149" width="36" height="36" rx="18" fill="#DA0087"/>
<rect x="319.5" y="114.149" width="34" height="34" rx="17" stroke="white" stroke-opacity="0.9" stroke-width="2"/>
<path d="M338.592 125.513V137.149H336.131V127.848H336.063L333.398 129.518V127.336L336.279 125.513H338.592Z" fill="white" fill-opacity="0.95"/>
<path d="M377.169 129.451C376.341 129.451 375.669 130.123 375.669 130.951C375.669 131.78 376.341 132.451 377.169 132.451V129.451ZM478.23 132.012C478.815 131.426 478.815 130.476 478.23 129.891L468.684 120.345C468.098 119.759 467.148 119.759 466.562 120.345C465.977 120.93 465.977 121.88 466.562 122.466L475.048 130.951L466.562 139.436C465.977 140.022 465.977 140.972 466.562 141.558C467.148 142.144 468.098 142.144 468.684 141.558L478.23 132.012ZM377.169 132.451H477.169V129.451H377.169V132.451Z" fill="#DA0087"/>
<path d="M557.169 129.451C556.341 129.451 555.669 130.123 555.669 130.951C555.669 131.78 556.341 132.451 557.169 132.451V129.451ZM658.23 132.012C658.815 131.426 658.815 130.476 658.23 129.891L648.684 120.345C648.098 119.759 647.148 119.759 646.562 120.345C645.977 120.93 645.977 121.88 646.562 122.466L655.048 130.951L646.562 139.436C645.977 140.022 645.977 140.972 646.562 141.558C647.148 142.144 648.098 142.144 648.684 141.558L658.23 132.012ZM557.169 132.451H657.169V129.451H557.169V132.451Z" fill="#DA0087"/>
<path d="M735.169 129.451C734.341 129.451 733.669 130.123 733.669 130.951C733.669 131.78 734.341 132.451 735.169 132.451V129.451ZM836.23 132.012C836.815 131.426 836.815 130.476 836.23 129.891L826.684 120.345C826.098 119.759 825.148 119.759 824.562 120.345C823.977 120.93 823.977 121.88 824.562 122.466L833.048 130.951L824.562 139.436C823.977 140.022 823.977 140.972 824.562 141.558C825.148 142.144 826.098 142.144 826.684 141.558L836.23 132.012ZM735.169 132.451H835.169V129.451H735.169V132.451Z" fill="#DA0087"/>
<path d="M384 172.824C384 176.69 380.866 179.824 377 179.824C373.134 179.824 370 176.69 370 172.824C370 168.958 373.134 165.824 377 165.824C380.866 165.824 384 168.958 384 172.824Z" stroke="#64B4FA" stroke-width="2"/>
<g clip-path="url(#clip0_2029_8878)">
<path d="M360.268 203.824V193.642H361.501V202.73H366.234V203.824H360.268ZM370.231 204.003C369.747 204.003 369.308 203.912 368.914 203.73C368.519 203.544 368.206 203.277 367.974 202.929C367.742 202.578 367.626 202.154 367.626 201.657C367.626 201.219 367.712 200.864 367.885 200.593C368.057 200.318 368.287 200.102 368.576 199.946C368.864 199.791 369.182 199.675 369.53 199.598C369.882 199.519 370.234 199.456 370.589 199.409C371.053 199.35 371.429 199.305 371.718 199.275C372.009 199.242 372.221 199.187 372.354 199.111C372.49 199.035 372.558 198.902 372.558 198.713V198.674C372.558 198.183 372.424 197.802 372.155 197.53C371.89 197.258 371.487 197.123 370.947 197.123C370.387 197.123 369.948 197.245 369.63 197.49C369.311 197.736 369.088 197.998 368.958 198.276L367.845 197.878C368.044 197.414 368.309 197.053 368.64 196.794C368.975 196.533 369.34 196.35 369.734 196.248C370.132 196.141 370.523 196.088 370.907 196.088C371.153 196.088 371.434 196.118 371.752 196.178C372.074 196.234 372.384 196.352 372.682 196.531C372.984 196.71 373.234 196.98 373.433 197.341C373.632 197.703 373.731 198.186 373.731 198.793V203.824H372.558V202.79H372.498C372.419 202.956 372.286 203.133 372.1 203.322C371.915 203.511 371.668 203.672 371.36 203.804C371.051 203.937 370.675 204.003 370.231 204.003ZM370.41 202.949C370.874 202.949 371.265 202.858 371.583 202.676C371.905 202.493 372.147 202.258 372.309 201.97C372.475 201.681 372.558 201.378 372.558 201.06V199.986C372.508 200.046 372.399 200.1 372.23 200.15C372.064 200.197 371.872 200.238 371.653 200.275C371.438 200.308 371.227 200.337 371.022 200.364C370.819 200.387 370.655 200.407 370.529 200.424C370.225 200.463 369.94 200.528 369.674 200.618C369.413 200.704 369.2 200.835 369.038 201.01C368.879 201.183 368.799 201.418 368.799 201.716C368.799 202.124 368.95 202.432 369.252 202.641C369.557 202.846 369.943 202.949 370.41 202.949ZM376.032 203.824V193.642H377.205V197.401H377.305C377.391 197.268 377.51 197.099 377.662 196.894C377.818 196.685 378.04 196.499 378.329 196.337C378.62 196.171 379.015 196.088 379.512 196.088C380.155 196.088 380.722 196.249 381.212 196.571C381.703 196.892 382.086 197.348 382.361 197.938C382.636 198.528 382.773 199.224 382.773 200.026C382.773 200.835 382.636 201.536 382.361 202.129C382.086 202.719 381.704 203.176 381.217 203.501C380.73 203.823 380.168 203.983 379.532 203.983C379.041 203.983 378.648 203.902 378.354 203.74C378.059 203.574 377.831 203.387 377.672 203.178C377.513 202.966 377.391 202.79 377.305 202.651H377.165V203.824H376.032ZM377.185 200.006C377.185 200.583 377.27 201.092 377.439 201.532C377.608 201.97 377.855 202.313 378.18 202.561C378.504 202.807 378.902 202.929 379.373 202.929C379.863 202.929 380.273 202.8 380.601 202.542C380.932 202.28 381.181 201.928 381.346 201.488C381.515 201.043 381.6 200.55 381.6 200.006C381.6 199.469 381.517 198.985 381.351 198.554C381.189 198.12 380.942 197.777 380.611 197.525C380.282 197.27 379.87 197.142 379.373 197.142C378.895 197.142 378.494 197.263 378.17 197.505C377.845 197.744 377.599 198.079 377.434 198.51C377.268 198.937 377.185 199.436 377.185 200.006ZM387.77 203.983C387.034 203.983 386.399 203.821 385.866 203.496C385.335 203.168 384.926 202.711 384.638 202.124C384.353 201.534 384.21 200.848 384.21 200.066C384.21 199.283 384.353 198.594 384.638 197.998C384.926 197.398 385.327 196.93 385.841 196.596C386.358 196.257 386.961 196.088 387.65 196.088C388.048 196.088 388.441 196.155 388.829 196.287C389.216 196.42 389.569 196.635 389.888 196.934C390.206 197.229 390.459 197.62 390.648 198.107C390.837 198.594 390.932 199.194 390.932 199.907V200.404H385.045V199.39H389.738C389.738 198.959 389.652 198.574 389.48 198.236C389.311 197.898 389.069 197.631 388.754 197.436C388.443 197.24 388.075 197.142 387.65 197.142C387.183 197.142 386.779 197.258 386.437 197.49C386.099 197.719 385.839 198.017 385.657 198.385C385.474 198.753 385.383 199.148 385.383 199.569V200.245C385.383 200.821 385.483 201.31 385.682 201.711C385.884 202.109 386.164 202.412 386.522 202.621C386.88 202.827 387.296 202.929 387.77 202.929C388.078 202.929 388.356 202.886 388.605 202.8C388.857 202.711 389.074 202.578 389.256 202.402C389.439 202.223 389.579 202.001 389.679 201.736L390.812 202.054C390.693 202.439 390.492 202.777 390.211 203.069C389.929 203.357 389.581 203.582 389.167 203.745C388.752 203.904 388.287 203.983 387.77 203.983ZM393.89 193.642V203.824H392.716V193.642H393.89Z" fill="white" fill-opacity="0.7"/>
</g>
<rect x="393" y="171.824" width="150" height="2" fill="#8F8F8F"/>
<path d="M566 172.824C566 176.69 562.866 179.824 559 179.824C555.134 179.824 552 176.69 552 172.824C552 168.958 555.134 165.824 559 165.824C562.866 165.824 566 168.958 566 172.824Z" stroke="#64B4FA" stroke-width="2"/>
<g clip-path="url(#clip1_2029_8878)">
<path d="M542.268 203.824V193.642H543.501V202.73H548.234V203.824H542.268ZM552.231 204.003C551.747 204.003 551.308 203.912 550.914 203.73C550.519 203.544 550.206 203.277 549.974 202.929C549.742 202.578 549.626 202.154 549.626 201.657C549.626 201.219 549.712 200.864 549.885 200.593C550.057 200.318 550.287 200.102 550.576 199.946C550.864 199.791 551.182 199.675 551.53 199.598C551.882 199.519 552.234 199.456 552.589 199.409C553.053 199.35 553.429 199.305 553.718 199.275C554.009 199.242 554.221 199.187 554.354 199.111C554.49 199.035 554.558 198.902 554.558 198.713V198.674C554.558 198.183 554.424 197.802 554.155 197.53C553.89 197.258 553.487 197.123 552.947 197.123C552.387 197.123 551.948 197.245 551.63 197.49C551.311 197.736 551.088 197.998 550.958 198.276L549.845 197.878C550.044 197.414 550.309 197.053 550.64 196.794C550.975 196.533 551.34 196.35 551.734 196.248C552.132 196.141 552.523 196.088 552.907 196.088C553.153 196.088 553.434 196.118 553.752 196.178C554.074 196.234 554.384 196.352 554.682 196.531C554.984 196.71 555.234 196.98 555.433 197.341C555.632 197.703 555.731 198.186 555.731 198.793V203.824H554.558V202.79H554.498C554.419 202.956 554.286 203.133 554.1 203.322C553.915 203.511 553.668 203.672 553.36 203.804C553.051 203.937 552.675 204.003 552.231 204.003ZM552.41 202.949C552.874 202.949 553.265 202.858 553.583 202.676C553.905 202.493 554.147 202.258 554.309 201.97C554.475 201.681 554.558 201.378 554.558 201.06V199.986C554.508 200.046 554.399 200.1 554.23 200.15C554.064 200.197 553.872 200.238 553.653 200.275C553.438 200.308 553.227 200.337 553.022 200.364C552.819 200.387 552.655 200.407 552.529 200.424C552.225 200.463 551.94 200.528 551.674 200.618C551.413 200.704 551.2 200.835 551.038 201.01C550.879 201.183 550.799 201.418 550.799 201.716C550.799 202.124 550.95 202.432 551.252 202.641C551.557 202.846 551.943 202.949 552.41 202.949ZM558.032 203.824V193.642H559.205V197.401H559.305C559.391 197.268 559.51 197.099 559.662 196.894C559.818 196.685 560.04 196.499 560.329 196.337C560.62 196.171 561.015 196.088 561.512 196.088C562.155 196.088 562.722 196.249 563.212 196.571C563.703 196.892 564.086 197.348 564.361 197.938C564.636 198.528 564.773 199.224 564.773 200.026C564.773 200.835 564.636 201.536 564.361 202.129C564.086 202.719 563.704 203.176 563.217 203.501C562.73 203.823 562.168 203.983 561.532 203.983C561.041 203.983 560.648 203.902 560.354 203.74C560.059 203.574 559.831 203.387 559.672 203.178C559.513 202.966 559.391 202.79 559.305 202.651H559.165V203.824H558.032ZM559.185 200.006C559.185 200.583 559.27 201.092 559.439 201.532C559.608 201.97 559.855 202.313 560.18 202.561C560.504 202.807 560.902 202.929 561.373 202.929C561.863 202.929 562.273 202.8 562.601 202.542C562.932 202.28 563.181 201.928 563.346 201.488C563.515 201.043 563.6 200.55 563.6 200.006C563.6 199.469 563.517 198.985 563.351 198.554C563.189 198.12 562.942 197.777 562.611 197.525C562.282 197.27 561.87 197.142 561.373 197.142C560.895 197.142 560.494 197.263 560.17 197.505C559.845 197.744 559.599 198.079 559.434 198.51C559.268 198.937 559.185 199.436 559.185 200.006ZM569.77 203.983C569.034 203.983 568.399 203.821 567.866 203.496C567.335 203.168 566.926 202.711 566.638 202.124C566.353 201.534 566.21 200.848 566.21 200.066C566.21 199.283 566.353 198.594 566.638 197.998C566.926 197.398 567.327 196.93 567.841 196.596C568.358 196.257 568.961 196.088 569.65 196.088C570.048 196.088 570.441 196.155 570.829 196.287C571.216 196.42 571.569 196.635 571.888 196.934C572.206 197.229 572.459 197.62 572.648 198.107C572.837 198.594 572.932 199.194 572.932 199.907V200.404H567.045V199.39H571.738C571.738 198.959 571.652 198.574 571.48 198.236C571.311 197.898 571.069 197.631 570.754 197.436C570.443 197.24 570.075 197.142 569.65 197.142C569.183 197.142 568.779 197.258 568.437 197.49C568.099 197.719 567.839 198.017 567.657 198.385C567.474 198.753 567.383 199.148 567.383 199.569V200.245C567.383 200.821 567.483 201.31 567.682 201.711C567.884 202.109 568.164 202.412 568.522 202.621C568.88 202.827 569.296 202.929 569.77 202.929C570.078 202.929 570.356 202.886 570.605 202.8C570.857 202.711 571.074 202.578 571.256 202.402C571.439 202.223 571.579 202.001 571.679 201.736L572.812 202.054C572.693 202.439 572.492 202.777 572.211 203.069C571.929 203.357 571.581 203.582 571.167 203.745C570.752 203.904 570.287 203.983 569.77 203.983ZM575.89 193.642V203.824H574.716V193.642H575.89Z" fill="white" fill-opacity="0.7"/>
</g>
<rect x="575" y="171.824" width="150" height="2" fill="#8F8F8F"/>
<path d="M748 172.824C748 176.69 744.866 179.824 741 179.824C737.134 179.824 734 176.69 734 172.824C734 168.958 737.134 165.824 741 165.824C744.866 165.824 748 168.958 748 172.824Z" stroke="#3492EB" stroke-width="2"/>
<g clip-path="url(#clip2_2029_8878)">
<path d="M708.33 203.824H706.384L705.502 201.374H701.19L700.308 203.824H698.474L702.394 193.744H704.41L708.33 203.824ZM703.374 195.368L701.666 200.058H705.04L703.374 195.368ZM710.431 201.752C710.562 202.452 711.089 202.802 712.013 202.802C712.526 202.802 712.914 202.704 713.175 202.508C713.39 202.34 713.497 202.121 713.497 201.85C713.497 201.505 713.31 201.248 712.937 201.08C712.722 200.987 712.251 200.856 711.523 200.688C710.627 200.483 709.988 200.203 709.605 199.848C709.222 199.503 709.031 199.05 709.031 198.49C709.031 197.781 709.32 197.235 709.899 196.852C710.412 196.507 711.117 196.334 712.013 196.334C712.937 196.334 713.679 196.554 714.239 196.992C714.724 197.366 715.028 197.87 715.149 198.504H713.441C713.301 197.879 712.816 197.566 711.985 197.566C711.145 197.566 710.725 197.823 710.725 198.336C710.725 198.598 710.832 198.794 711.047 198.924C711.262 199.055 711.696 199.2 712.349 199.358C713.357 199.592 714.057 199.853 714.449 200.142C714.944 200.506 715.191 201.02 715.191 201.682C715.191 202.438 714.883 203.031 714.267 203.46C713.707 203.843 712.951 204.034 711.999 204.034C711 204.034 710.202 203.796 709.605 203.32C709.101 202.919 708.807 202.396 708.723 201.752H710.431ZM717.732 201.752C717.863 202.452 718.39 202.802 719.314 202.802C719.827 202.802 720.215 202.704 720.476 202.508C720.691 202.34 720.798 202.121 720.798 201.85C720.798 201.505 720.611 201.248 720.238 201.08C720.023 200.987 719.552 200.856 718.824 200.688C717.928 200.483 717.289 200.203 716.906 199.848C716.523 199.503 716.332 199.05 716.332 198.49C716.332 197.781 716.621 197.235 717.2 196.852C717.713 196.507 718.418 196.334 719.314 196.334C720.238 196.334 720.98 196.554 721.54 196.992C722.025 197.366 722.329 197.87 722.45 198.504H720.742C720.602 197.879 720.117 197.566 719.286 197.566C718.446 197.566 718.026 197.823 718.026 198.336C718.026 198.598 718.133 198.794 718.348 198.924C718.563 199.055 718.997 199.2 719.65 199.358C720.658 199.592 721.358 199.853 721.75 200.142C722.245 200.506 722.492 201.02 722.492 201.682C722.492 202.438 722.184 203.031 721.568 203.46C721.008 203.843 720.252 204.034 719.3 204.034C718.301 204.034 717.503 203.796 716.906 203.32C716.402 202.919 716.108 202.396 716.024 201.752H717.732ZM725.688 195.438H723.84V193.744H725.688V195.438ZM725.604 203.824H723.924V196.544H725.604V203.824ZM727.299 204.3H729.063C729.24 204.972 729.796 205.308 730.729 205.308C731.933 205.308 732.535 204.734 732.535 203.586V202.774C731.984 203.334 731.238 203.614 730.295 203.614C729.306 203.614 728.503 203.264 727.887 202.564C727.318 201.911 727.033 201.066 727.033 200.03C727.033 198.808 727.383 197.86 728.083 197.188C728.671 196.619 729.427 196.334 730.351 196.334C731.322 196.334 732.078 196.689 732.619 197.398L732.885 196.544H734.215V203.572C734.215 204.534 733.87 205.285 733.179 205.826C732.563 206.312 731.751 206.554 730.743 206.554C729.66 206.554 728.816 206.326 728.209 205.868C727.714 205.486 727.411 204.963 727.299 204.3ZM728.755 200.044C728.755 200.8 728.965 201.384 729.385 201.794C729.73 202.121 730.164 202.284 730.687 202.284C731.359 202.284 731.868 202.065 732.213 201.626C732.512 201.244 732.661 200.721 732.661 200.058C732.661 199.228 732.456 198.602 732.045 198.182C731.709 197.837 731.256 197.664 730.687 197.664C730.062 197.664 729.576 197.888 729.231 198.336C728.914 198.747 728.755 199.316 728.755 200.044ZM737.69 203.824H736.01V196.544H737.396L737.578 197.412C738.11 196.694 738.848 196.334 739.79 196.334C740.668 196.334 741.34 196.605 741.806 197.146C742.217 197.622 742.422 198.271 742.422 199.092V203.824H740.742V199.134C740.742 198.136 740.28 197.636 739.356 197.636C738.852 197.636 738.442 197.814 738.124 198.168C737.835 198.495 737.69 198.906 737.69 199.4V203.824ZM748.054 196.544H749.734V201.332C749.734 202.266 750.191 202.732 751.106 202.732C751.638 202.732 752.053 202.541 752.352 202.158C752.594 201.832 752.716 201.43 752.716 200.954V196.544H754.396V203.824H753.01L752.828 203.012C752.305 203.694 751.577 204.034 750.644 204.034C749.785 204.034 749.127 203.773 748.67 203.25C748.259 202.774 748.054 202.121 748.054 201.29V196.544ZM757.394 201.752C757.525 202.452 758.052 202.802 758.976 202.802C759.489 202.802 759.877 202.704 760.138 202.508C760.353 202.34 760.46 202.121 760.46 201.85C760.46 201.505 760.273 201.248 759.9 201.08C759.685 200.987 759.214 200.856 758.486 200.688C757.59 200.483 756.951 200.203 756.568 199.848C756.185 199.503 755.994 199.05 755.994 198.49C755.994 197.781 756.283 197.235 756.862 196.852C757.375 196.507 758.08 196.334 758.976 196.334C759.9 196.334 760.642 196.554 761.202 196.992C761.687 197.366 761.991 197.87 762.112 198.504H760.404C760.264 197.879 759.779 197.566 758.948 197.566C758.108 197.566 757.688 197.823 757.688 198.336C757.688 198.598 757.795 198.794 758.01 198.924C758.225 199.055 758.659 199.2 759.312 199.358C760.32 199.592 761.02 199.853 761.412 200.142C761.907 200.506 762.154 201.02 762.154 201.682C762.154 202.438 761.846 203.031 761.23 203.46C760.67 203.843 759.914 204.034 758.962 204.034C757.963 204.034 757.165 203.796 756.568 203.32C756.064 202.919 755.77 202.396 755.686 201.752H757.394ZM768.528 201.724H770.292C770.096 202.471 769.69 203.05 769.074 203.46C768.486 203.843 767.763 204.034 766.904 204.034C765.719 204.034 764.795 203.661 764.132 202.914C763.526 202.233 763.222 201.323 763.222 200.184C763.222 198.878 763.6 197.879 764.356 197.188C764.991 196.619 765.817 196.334 766.834 196.334C768.02 196.334 768.916 196.722 769.522 197.496C770.092 198.215 770.376 199.242 770.376 200.576H764.93C764.996 201.36 765.238 201.934 765.658 202.298C765.994 202.597 766.433 202.746 766.974 202.746C767.357 202.746 767.688 202.653 767.968 202.466C768.248 202.28 768.435 202.032 768.528 201.724ZM768.654 199.428C768.617 198.747 768.412 198.248 768.038 197.93C767.73 197.66 767.329 197.524 766.834 197.524C766.293 197.524 765.859 197.702 765.532 198.056C765.234 198.374 765.042 198.831 764.958 199.428H768.654ZM776.087 196.432V198.056C775.779 197.963 775.485 197.916 775.205 197.916C774.682 197.916 774.262 198.145 773.945 198.602C773.646 199.041 773.497 199.648 773.497 200.422V203.824H771.817V196.544H773.203L773.413 197.636C773.824 196.768 774.444 196.334 775.275 196.334C775.574 196.334 775.844 196.367 776.087 196.432ZM778.23 201.752C778.361 202.452 778.888 202.802 779.812 202.802C780.325 202.802 780.713 202.704 780.974 202.508C781.189 202.34 781.296 202.121 781.296 201.85C781.296 201.505 781.109 201.248 780.736 201.08C780.521 200.987 780.05 200.856 779.322 200.688C778.426 200.483 777.787 200.203 777.404 199.848C777.021 199.503 776.83 199.05 776.83 198.49C776.83 197.781 777.119 197.235 777.698 196.852C778.211 196.507 778.916 196.334 779.812 196.334C780.736 196.334 781.478 196.554 782.038 196.992C782.523 197.366 782.827 197.87 782.948 198.504H781.24C781.1 197.879 780.615 197.566 779.784 197.566C778.944 197.566 778.524 197.823 778.524 198.336C778.524 198.598 778.631 198.794 778.846 198.924C779.061 199.055 779.495 199.2 780.148 199.358C781.156 199.592 781.856 199.853 782.248 200.142C782.743 200.506 782.99 201.02 782.99 201.682C782.99 202.438 782.682 203.031 782.066 203.46C781.506 203.843 780.75 204.034 779.798 204.034C778.799 204.034 778.001 203.796 777.404 203.32C776.9 202.919 776.606 202.396 776.522 201.752H778.23Z" fill="white" fill-opacity="0.95"/>
</g>
<rect x="757" y="171.824" width="150" height="2" fill="#8F8F8F"/>
<path fill-rule="evenodd" clip-rule="evenodd" d="M923 180.824C927.418 180.824 931 177.242 931 172.824C931 168.406 927.418 164.824 923 164.824C918.582 164.824 915 168.406 915 172.824C915 177.242 918.582 180.824 923 180.824Z" fill="#3492EB"/>
<g clip-path="url(#clip3_2029_8878)">
<path d="M878.384 201.094C878.384 200.758 878.309 200.492 878.16 200.296C877.992 200.063 877.684 199.848 877.236 199.652C876.788 199.456 876.111 199.232 875.206 198.98C873.992 198.644 873.157 198.229 872.7 197.734C872.326 197.333 872.14 196.796 872.14 196.124C872.14 195.312 872.494 194.668 873.204 194.192C873.857 193.754 874.706 193.534 875.752 193.534C876.918 193.534 877.866 193.81 878.594 194.36C879.247 194.846 879.63 195.48 879.742 196.264H878.272C878.188 195.732 877.908 195.336 877.432 195.074C877.012 194.832 876.452 194.71 875.752 194.71C874.968 194.71 874.389 194.86 874.016 195.158C873.717 195.392 873.568 195.695 873.568 196.068C873.568 196.311 873.605 196.512 873.68 196.67C873.764 196.82 873.904 196.955 874.1 197.076C874.464 197.319 875.168 197.585 876.214 197.874C877.67 198.285 878.654 198.752 879.168 199.274C879.597 199.704 879.812 200.292 879.812 201.038C879.812 201.925 879.424 202.658 878.65 203.236C877.922 203.768 876.998 204.034 875.878 204.034C874.711 204.034 873.745 203.722 872.98 203.096C872.317 202.555 871.92 201.855 871.79 200.996H873.26C873.353 201.612 873.647 202.084 874.142 202.41C874.59 202.709 875.159 202.858 875.85 202.858C876.708 202.858 877.366 202.662 877.824 202.27C878.197 201.953 878.384 201.561 878.384 201.094ZM886.382 201.724H887.838C887.633 202.462 887.227 203.04 886.62 203.46C886.051 203.843 885.37 204.034 884.576 204.034C883.428 204.034 882.532 203.67 881.888 202.942C881.3 202.261 881.006 201.342 881.006 200.184C881.006 198.868 881.38 197.87 882.126 197.188C882.742 196.619 883.536 196.334 884.506 196.334C885.645 196.334 886.504 196.703 887.082 197.44C887.642 198.15 887.922 199.162 887.922 200.478H882.378C882.434 201.337 882.696 201.976 883.162 202.396C883.545 202.732 884.03 202.9 884.618 202.9C885.076 202.9 885.472 202.774 885.808 202.522C886.088 202.308 886.28 202.042 886.382 201.724ZM884.534 197.412C883.937 197.412 883.456 197.599 883.092 197.972C882.747 198.318 882.528 198.798 882.434 199.414H886.55C886.504 198.714 886.27 198.192 885.85 197.846C885.514 197.557 885.076 197.412 884.534 197.412ZM890.878 193.744V203.824H889.534V193.744H890.878ZM897.798 201.724H899.254C899.049 202.462 898.643 203.04 898.036 203.46C897.467 203.843 896.786 204.034 895.992 204.034C894.844 204.034 893.948 203.67 893.304 202.942C892.716 202.261 892.422 201.342 892.422 200.184C892.422 198.868 892.796 197.87 893.542 197.188C894.158 196.619 894.952 196.334 895.922 196.334C897.061 196.334 897.92 196.703 898.498 197.44C899.058 198.15 899.338 199.162 899.338 200.478H893.794C893.85 201.337 894.112 201.976 894.578 202.396C894.961 202.732 895.446 202.9 896.034 202.9C896.492 202.9 896.888 202.774 897.224 202.522C897.504 202.308 897.696 202.042 897.798 201.724ZM895.95 197.412C895.353 197.412 894.872 197.599 894.508 197.972C894.163 198.318 893.944 198.798 893.85 199.414H897.966C897.92 198.714 897.686 198.192 897.266 197.846C896.93 197.557 896.492 197.412 895.95 197.412ZM905.696 201.486H907.166C907.054 202.27 906.685 202.9 906.06 203.376C905.49 203.815 904.795 204.034 903.974 204.034C902.9 204.034 902.046 203.666 901.412 202.928C900.824 202.247 900.53 201.351 900.53 200.24C900.53 198.952 900.884 197.954 901.594 197.244C902.2 196.638 902.989 196.334 903.96 196.334C904.856 196.334 905.593 196.572 906.172 197.048C906.685 197.468 906.998 198.019 907.11 198.7H905.626C905.532 198.308 905.341 198.005 905.052 197.79C904.772 197.576 904.417 197.468 903.988 197.468C903.325 197.468 902.816 197.73 902.462 198.252C902.126 198.738 901.958 199.414 901.958 200.282C901.958 201.188 902.182 201.874 902.63 202.34C902.984 202.714 903.442 202.9 904.002 202.9C904.487 202.9 904.884 202.76 905.192 202.48C905.462 202.238 905.63 201.906 905.696 201.486ZM911.95 202.746V203.894C911.604 203.988 911.273 204.034 910.956 204.034C910.284 204.034 909.78 203.824 909.444 203.404C909.154 203.059 909.01 202.597 909.01 202.018V197.692H907.932V196.544H909.01L909.094 194.794H910.354V196.544H911.922V197.692H910.354V202.046C910.354 202.588 910.61 202.858 911.124 202.858C911.366 202.858 911.642 202.821 911.95 202.746ZM918.755 193.744V203.824H917.411V193.744H918.755ZM920.299 200.184C920.299 198.85 920.696 197.842 921.489 197.16C922.124 196.61 922.927 196.334 923.897 196.334C925.027 196.334 925.913 196.694 926.557 197.412C927.173 198.084 927.481 199.008 927.481 200.184C927.481 201.5 927.094 202.504 926.319 203.194C925.685 203.754 924.873 204.034 923.883 204.034C922.754 204.034 921.863 203.661 921.209 202.914C920.603 202.233 920.299 201.323 920.299 200.184ZM921.699 200.184C921.699 201.118 921.937 201.832 922.413 202.326C922.805 202.737 923.305 202.942 923.911 202.942C924.621 202.942 925.167 202.676 925.549 202.144C925.904 201.659 926.081 201.006 926.081 200.184C926.081 199.232 925.848 198.514 925.381 198.028C924.999 197.627 924.504 197.426 923.897 197.426C923.197 197.426 922.651 197.692 922.259 198.224C921.886 198.71 921.699 199.363 921.699 200.184ZM933.764 201.486H935.234C935.122 202.27 934.753 202.9 934.128 203.376C933.559 203.815 932.863 204.034 932.042 204.034C930.969 204.034 930.115 203.666 929.48 202.928C928.892 202.247 928.598 201.351 928.598 200.24C928.598 198.952 928.953 197.954 929.662 197.244C930.269 196.638 931.057 196.334 932.028 196.334C932.924 196.334 933.661 196.572 934.24 197.048C934.753 197.468 935.066 198.019 935.178 198.7H933.694C933.601 198.308 933.409 198.005 933.12 197.79C932.84 197.576 932.485 197.468 932.056 197.468C931.393 197.468 930.885 197.73 930.53 198.252C930.194 198.738 930.026 199.414 930.026 200.282C930.026 201.188 930.25 201.874 930.698 202.34C931.053 202.714 931.51 202.9 932.07 202.9C932.555 202.9 932.952 202.76 933.26 202.48C933.531 202.238 933.699 201.906 933.764 201.486ZM937.918 198.574H936.49C936.565 197.846 936.91 197.282 937.526 196.88C938.077 196.516 938.772 196.334 939.612 196.334C940.611 196.334 941.376 196.596 941.908 197.118C942.356 197.566 942.58 198.145 942.58 198.854V203.824H941.474L941.306 202.83C940.737 203.633 939.925 204.034 938.87 204.034C938.039 204.034 937.391 203.81 936.924 203.362C936.541 202.989 936.35 202.518 936.35 201.948C936.35 201.23 936.597 200.674 937.092 200.282C937.531 199.937 938.203 199.685 939.108 199.526L941.236 199.162V198.798C941.236 198.322 941.073 197.963 940.746 197.72C940.457 197.506 940.06 197.398 939.556 197.398C938.567 197.398 938.021 197.79 937.918 198.574ZM939.192 202.9C939.761 202.9 940.256 202.714 940.676 202.34C941.049 201.995 941.236 201.598 941.236 201.15V200.212L939.43 200.534C938.767 200.646 938.315 200.819 938.072 201.052C937.876 201.239 937.778 201.491 937.778 201.808C937.778 202.163 937.899 202.434 938.142 202.62C938.385 202.807 938.735 202.9 939.192 202.9ZM947.715 202.746V203.894C947.37 203.988 947.039 204.034 946.721 204.034C946.049 204.034 945.545 203.824 945.209 203.404C944.92 203.059 944.775 202.597 944.775 202.018V197.692H943.697V196.544H944.775L944.859 194.794H946.119V196.544H947.687V197.692H946.119V202.046C946.119 202.588 946.376 202.858 946.889 202.858C947.132 202.858 947.407 202.821 947.715 202.746ZM950.407 195.326H948.895V193.744H950.407V195.326ZM950.323 203.824H948.979V196.544H950.323V203.824ZM951.868 200.184C951.868 198.85 952.264 197.842 953.058 197.16C953.692 196.61 954.495 196.334 955.466 196.334C956.595 196.334 957.482 196.694 958.126 197.412C958.742 198.084 959.05 199.008 959.05 200.184C959.05 201.5 958.662 202.504 957.888 203.194C957.253 203.754 956.441 204.034 955.452 204.034C954.322 204.034 953.431 203.661 952.778 202.914C952.171 202.233 951.868 201.323 951.868 200.184ZM953.268 200.184C953.268 201.118 953.506 201.832 953.982 202.326C954.374 202.737 954.873 202.942 955.48 202.942C956.189 202.942 956.735 202.676 957.118 202.144C957.472 201.659 957.65 201.006 957.65 200.184C957.65 199.232 957.416 198.514 956.95 198.028C956.567 197.627 956.072 197.426 955.466 197.426C954.766 197.426 954.22 197.692 953.828 198.224C953.454 198.71 953.268 199.363 953.268 200.184ZM961.93 203.824H960.586V196.544H961.692L961.846 197.468C962.388 196.712 963.125 196.334 964.058 196.334C964.917 196.334 965.575 196.6 966.032 197.132C966.434 197.608 966.634 198.257 966.634 199.078V203.824H965.29V199.092C965.29 198.019 964.772 197.482 963.736 197.482C963.195 197.482 962.752 197.669 962.406 198.042C962.089 198.378 961.93 198.808 961.93 199.33V203.824ZM972.786 201.85C972.786 201.44 972.571 201.132 972.142 200.926C971.89 200.814 971.4 200.674 970.672 200.506C969.776 200.31 969.136 200.026 968.754 199.652C968.436 199.335 968.278 198.92 968.278 198.406C968.278 197.725 968.553 197.202 969.104 196.838C969.598 196.502 970.266 196.334 971.106 196.334C971.974 196.334 972.678 196.549 973.22 196.978C973.686 197.352 973.976 197.846 974.088 198.462H972.716C972.557 197.753 972.016 197.398 971.092 197.398C970.578 197.398 970.196 197.492 969.944 197.678C969.738 197.837 969.636 198.038 969.636 198.28C969.636 198.579 969.748 198.803 969.972 198.952C970.205 199.102 970.658 199.251 971.33 199.4C972.356 199.624 973.07 199.9 973.472 200.226C973.92 200.59 974.144 201.099 974.144 201.752C974.144 202.48 973.845 203.054 973.248 203.474C972.706 203.848 971.992 204.034 971.106 204.034C970.135 204.034 969.365 203.801 968.796 203.334C968.301 202.924 968.026 202.392 967.97 201.738H969.342C969.491 202.56 970.084 202.97 971.12 202.97C971.68 202.97 972.114 202.849 972.422 202.606C972.664 202.41 972.786 202.158 972.786 201.85Z" fill="white" fill-opacity="0.95"/>
</g>
<defs>
<clipPath id="clip0_2029_8878">
<rect width="36" height="20" fill="white" transform="translate(359 188.824)"/>
</clipPath>
<clipPath id="clip1_2029_8878">
<rect width="36" height="20" fill="white" transform="translate(541 188.824)"/>
</clipPath>
<clipPath id="clip2_2029_8878">
<rect width="160" height="21" fill="white" transform="translate(661 188.824)"/>
</clipPath>
<clipPath id="clip3_2029_8878">
<rect width="160" height="21" fill="white" transform="translate(843 188.824)"/>
</clipPath>
</defs>
</svg>
