<svg width="103" height="23" viewBox="0 0 103 23" fill="none" xmlns="http://www.w3.org/2000/svg">
<path d="M1.5 9.5459C0.671573 9.5459 0 10.2175 0 11.0459C0 11.8743 0.671573 12.5459 1.5 12.5459V9.5459ZM102.561 12.1066C103.146 11.5208 103.146 10.571 102.561 9.98524L93.0147 0.439297C92.4289 -0.14649 91.4792 -0.14649 90.8934 0.439297C90.3076 1.02508 90.3076 1.97483 90.8934 2.56062L99.3787 11.0459L90.8934 19.5312C90.3076 20.117 90.3076 21.0667 90.8934 21.6525C91.4792 22.2383 92.4289 22.2383 93.0147 21.6525L102.561 12.1066ZM1.5 12.5459H101.5V9.5459H1.5V12.5459Z" fill="#DA0087"/>
</svg>
