<svg width="1300" height="300" viewBox="0 0 1300 300" fill="none" xmlns="http://www.w3.org/2000/svg">
<rect width="1300" height="300" rx="20" fill="#262626"/>
<path d="M537.184 155.75C537.184 158.511 534.945 160.75 532.184 160.75C529.422 160.75 527.184 158.511 527.184 155.75C527.184 152.989 529.422 150.75 532.184 150.75C534.945 150.75 537.184 152.989 537.184 155.75Z" stroke="#64B4FA" stroke-width="2"/>
<g clip-path="url(#clip0_2029_9064)">
<path d="M547.452 160.75V150.568H548.685V159.656H553.418V160.75H547.452ZM557.415 160.929C556.931 160.929 556.492 160.838 556.097 160.656C555.703 160.47 555.39 160.203 555.158 159.855C554.926 159.504 554.81 159.08 554.81 158.582C554.81 158.145 554.896 157.79 555.068 157.518C555.241 157.243 555.471 157.028 555.759 156.872C556.048 156.716 556.366 156.6 556.714 156.524C557.065 156.445 557.418 156.382 557.773 156.335C558.237 156.276 558.613 156.231 558.901 156.201C559.193 156.168 559.405 156.113 559.538 156.037C559.674 155.961 559.741 155.828 559.741 155.639V155.599C559.741 155.109 559.607 154.728 559.339 154.456C559.074 154.184 558.671 154.048 558.131 154.048C557.571 154.048 557.131 154.171 556.813 154.416C556.495 154.661 556.271 154.923 556.142 155.202L555.028 154.804C555.227 154.34 555.492 153.979 555.824 153.72C556.159 153.458 556.523 153.276 556.918 153.173C557.315 153.067 557.706 153.014 558.091 153.014C558.336 153.014 558.618 153.044 558.936 153.104C559.258 153.16 559.567 153.278 559.866 153.457C560.167 153.636 560.418 153.906 560.616 154.267C560.815 154.628 560.915 155.112 560.915 155.719V160.75H559.741V159.716H559.682C559.602 159.882 559.47 160.059 559.284 160.248C559.098 160.437 558.852 160.598 558.543 160.73C558.235 160.863 557.859 160.929 557.415 160.929ZM557.594 159.875C558.058 159.875 558.449 159.784 558.767 159.602C559.089 159.419 559.33 159.184 559.493 158.896C559.659 158.607 559.741 158.304 559.741 157.986V156.912C559.692 156.972 559.582 157.026 559.413 157.076C559.248 157.122 559.055 157.164 558.837 157.2C558.621 157.233 558.411 157.263 558.205 157.29C558.003 157.313 557.839 157.333 557.713 157.349C557.408 157.389 557.123 157.454 556.858 157.543C556.596 157.629 556.384 157.76 556.222 157.936C556.063 158.108 555.983 158.344 555.983 158.642C555.983 159.05 556.134 159.358 556.435 159.567C556.74 159.772 557.126 159.875 557.594 159.875ZM563.215 160.75V150.568H564.389V154.327H564.488C564.574 154.194 564.694 154.025 564.846 153.82C565.002 153.611 565.224 153.425 565.512 153.263C565.804 153.097 566.198 153.014 566.695 153.014C567.338 153.014 567.905 153.175 568.396 153.496C568.886 153.818 569.269 154.274 569.544 154.864C569.819 155.454 569.957 156.15 569.957 156.952C569.957 157.76 569.819 158.461 569.544 159.055C569.269 159.645 568.888 160.102 568.401 160.427C567.914 160.748 567.352 160.909 566.715 160.909C566.225 160.909 565.832 160.828 565.537 160.665C565.242 160.5 565.015 160.312 564.856 160.104C564.697 159.892 564.574 159.716 564.488 159.577H564.349V160.75H563.215ZM564.369 156.932C564.369 157.509 564.453 158.017 564.622 158.458C564.791 158.896 565.038 159.239 565.363 159.487C565.688 159.732 566.086 159.855 566.556 159.855C567.047 159.855 567.456 159.726 567.784 159.467C568.116 159.205 568.364 158.854 568.53 158.413C568.699 157.969 568.784 157.475 568.784 156.932C568.784 156.395 568.701 155.911 568.535 155.48C568.373 155.046 568.126 154.703 567.794 154.451C567.466 154.196 567.053 154.068 566.556 154.068C566.079 154.068 565.678 154.189 565.353 154.431C565.028 154.67 564.783 155.004 564.617 155.435C564.452 155.863 564.369 156.362 564.369 156.932ZM574.953 160.909C574.218 160.909 573.583 160.747 573.049 160.422C572.519 160.094 572.11 159.636 571.821 159.05C571.536 158.46 571.394 157.774 571.394 156.991C571.394 156.209 571.536 155.52 571.821 154.923C572.11 154.323 572.511 153.856 573.024 153.521C573.541 153.183 574.145 153.014 574.834 153.014C575.232 153.014 575.624 153.08 576.012 153.213C576.4 153.346 576.753 153.561 577.071 153.859C577.389 154.154 577.643 154.545 577.832 155.033C578.021 155.52 578.115 156.12 578.115 156.832V157.33H572.229V156.315H576.922C576.922 155.884 576.836 155.5 576.664 155.162C576.494 154.824 576.253 154.557 575.938 154.362C575.626 154.166 575.258 154.068 574.834 154.068C574.367 154.068 573.962 154.184 573.621 154.416C573.283 154.645 573.023 154.943 572.84 155.311C572.658 155.679 572.567 156.073 572.567 156.494V157.17C572.567 157.747 572.666 158.236 572.865 158.637C573.067 159.035 573.347 159.338 573.705 159.547C574.063 159.752 574.479 159.855 574.953 159.855C575.262 159.855 575.54 159.812 575.789 159.726C576.04 159.636 576.258 159.504 576.44 159.328C576.622 159.149 576.763 158.927 576.862 158.662L577.996 158.98C577.877 159.365 577.676 159.703 577.394 159.994C577.113 160.283 576.765 160.508 576.35 160.67C575.936 160.83 575.47 160.909 574.953 160.909ZM581.073 150.568V160.75H579.9V150.568H581.073Z" fill="white" fill-opacity="0.7"/>
</g>
<rect x="590.184" y="154.75" width="24" height="2" fill="#8F8F8F"/>
<path d="M633.184 155.75C633.184 158.511 630.945 160.75 628.184 160.75C625.422 160.75 623.184 158.511 623.184 155.75C623.184 152.989 625.422 150.75 628.184 150.75C630.945 150.75 633.184 152.989 633.184 155.75Z" stroke="#64B4FA" stroke-width="2"/>
<g clip-path="url(#clip1_2029_9064)">
<path d="M643.452 160.75V150.568H644.685V159.656H649.418V160.75H643.452ZM653.415 160.929C652.931 160.929 652.492 160.838 652.097 160.656C651.703 160.47 651.39 160.203 651.158 159.855C650.926 159.504 650.81 159.08 650.81 158.582C650.81 158.145 650.896 157.79 651.068 157.518C651.241 157.243 651.471 157.028 651.759 156.872C652.048 156.716 652.366 156.6 652.714 156.524C653.065 156.445 653.418 156.382 653.773 156.335C654.237 156.276 654.613 156.231 654.901 156.201C655.193 156.168 655.405 156.113 655.538 156.037C655.674 155.961 655.741 155.828 655.741 155.639V155.599C655.741 155.109 655.607 154.728 655.339 154.456C655.074 154.184 654.671 154.048 654.131 154.048C653.571 154.048 653.131 154.171 652.813 154.416C652.495 154.661 652.271 154.923 652.142 155.202L651.028 154.804C651.227 154.34 651.492 153.979 651.824 153.72C652.159 153.458 652.523 153.276 652.918 153.173C653.315 153.067 653.706 153.014 654.091 153.014C654.336 153.014 654.618 153.044 654.936 153.104C655.258 153.16 655.567 153.278 655.866 153.457C656.167 153.636 656.418 153.906 656.616 154.267C656.815 154.628 656.915 155.112 656.915 155.719V160.75H655.741V159.716H655.682C655.602 159.882 655.47 160.059 655.284 160.248C655.098 160.437 654.852 160.598 654.543 160.73C654.235 160.863 653.859 160.929 653.415 160.929ZM653.594 159.875C654.058 159.875 654.449 159.784 654.767 159.602C655.089 159.419 655.33 159.184 655.493 158.896C655.659 158.607 655.741 158.304 655.741 157.986V156.912C655.692 156.972 655.582 157.026 655.413 157.076C655.248 157.122 655.055 157.164 654.837 157.2C654.621 157.233 654.411 157.263 654.205 157.29C654.003 157.313 653.839 157.333 653.713 157.349C653.408 157.389 653.123 157.454 652.858 157.543C652.596 157.629 652.384 157.76 652.222 157.936C652.063 158.108 651.983 158.344 651.983 158.642C651.983 159.05 652.134 159.358 652.435 159.567C652.74 159.772 653.126 159.875 653.594 159.875ZM659.215 160.75V150.568H660.389V154.327H660.488C660.574 154.194 660.694 154.025 660.846 153.82C661.002 153.611 661.224 153.425 661.512 153.263C661.804 153.097 662.198 153.014 662.695 153.014C663.338 153.014 663.905 153.175 664.396 153.496C664.886 153.818 665.269 154.274 665.544 154.864C665.819 155.454 665.957 156.15 665.957 156.952C665.957 157.76 665.819 158.461 665.544 159.055C665.269 159.645 664.888 160.102 664.401 160.427C663.914 160.748 663.352 160.909 662.715 160.909C662.225 160.909 661.832 160.828 661.537 160.665C661.242 160.5 661.015 160.312 660.856 160.104C660.697 159.892 660.574 159.716 660.488 159.577H660.349V160.75H659.215ZM660.369 156.932C660.369 157.509 660.453 158.017 660.622 158.458C660.791 158.896 661.038 159.239 661.363 159.487C661.688 159.732 662.086 159.855 662.556 159.855C663.047 159.855 663.456 159.726 663.784 159.467C664.116 159.205 664.364 158.854 664.53 158.413C664.699 157.969 664.784 157.475 664.784 156.932C664.784 156.395 664.701 155.911 664.535 155.48C664.373 155.046 664.126 154.703 663.794 154.451C663.466 154.196 663.053 154.068 662.556 154.068C662.079 154.068 661.678 154.189 661.353 154.431C661.028 154.67 660.783 155.004 660.617 155.435C660.452 155.863 660.369 156.362 660.369 156.932ZM670.953 160.909C670.218 160.909 669.583 160.747 669.049 160.422C668.519 160.094 668.11 159.636 667.821 159.05C667.536 158.46 667.394 157.774 667.394 156.991C667.394 156.209 667.536 155.52 667.821 154.923C668.11 154.323 668.511 153.856 669.024 153.521C669.541 153.183 670.145 153.014 670.834 153.014C671.232 153.014 671.624 153.08 672.012 153.213C672.4 153.346 672.753 153.561 673.071 153.859C673.389 154.154 673.643 154.545 673.832 155.033C674.021 155.52 674.115 156.12 674.115 156.832V157.33H668.229V156.315H672.922C672.922 155.884 672.836 155.5 672.664 155.162C672.494 154.824 672.253 154.557 671.938 154.362C671.626 154.166 671.258 154.068 670.834 154.068C670.367 154.068 669.962 154.184 669.621 154.416C669.283 154.645 669.023 154.943 668.84 155.311C668.658 155.679 668.567 156.073 668.567 156.494V157.17C668.567 157.747 668.666 158.236 668.865 158.637C669.067 159.035 669.347 159.338 669.705 159.547C670.063 159.752 670.479 159.855 670.953 159.855C671.262 159.855 671.54 159.812 671.789 159.726C672.04 159.636 672.258 159.504 672.44 159.328C672.622 159.149 672.763 158.927 672.862 158.662L673.996 158.98C673.877 159.365 673.676 159.703 673.394 159.994C673.113 160.283 672.765 160.508 672.35 160.67C671.936 160.83 671.47 160.909 670.953 160.909ZM677.073 150.568V160.75H675.9V150.568H677.073Z" fill="white" fill-opacity="0.7"/>
</g>
<rect x="686.184" y="154.75" width="24" height="2" fill="#8F8F8F"/>
<path d="M729.184 155.75C729.184 158.511 726.945 160.75 724.184 160.75C721.422 160.75 719.184 158.511 719.184 155.75C719.184 152.989 721.422 150.75 724.184 150.75C726.945 150.75 729.184 152.989 729.184 155.75Z" stroke="#64B4FA" stroke-width="2"/>
<g clip-path="url(#clip2_2029_9064)">
<path d="M739.452 160.75V150.568H740.685V159.656H745.418V160.75H739.452ZM749.415 160.929C748.931 160.929 748.492 160.838 748.097 160.656C747.703 160.47 747.39 160.203 747.158 159.855C746.926 159.504 746.81 159.08 746.81 158.582C746.81 158.145 746.896 157.79 747.068 157.518C747.241 157.243 747.471 157.028 747.759 156.872C748.048 156.716 748.366 156.6 748.714 156.524C749.065 156.445 749.418 156.382 749.773 156.335C750.237 156.276 750.613 156.231 750.901 156.201C751.193 156.168 751.405 156.113 751.538 156.037C751.674 155.961 751.741 155.828 751.741 155.639V155.599C751.741 155.109 751.607 154.728 751.339 154.456C751.074 154.184 750.671 154.048 750.131 154.048C749.571 154.048 749.131 154.171 748.813 154.416C748.495 154.661 748.271 154.923 748.142 155.202L747.028 154.804C747.227 154.34 747.492 153.979 747.824 153.72C748.159 153.458 748.523 153.276 748.918 153.173C749.315 153.067 749.706 153.014 750.091 153.014C750.336 153.014 750.618 153.044 750.936 153.104C751.258 153.16 751.567 153.278 751.866 153.457C752.167 153.636 752.418 153.906 752.616 154.267C752.815 154.628 752.915 155.112 752.915 155.719V160.75H751.741V159.716H751.682C751.602 159.882 751.47 160.059 751.284 160.248C751.098 160.437 750.852 160.598 750.543 160.73C750.235 160.863 749.859 160.929 749.415 160.929ZM749.594 159.875C750.058 159.875 750.449 159.784 750.767 159.602C751.089 159.419 751.33 159.184 751.493 158.896C751.659 158.607 751.741 158.304 751.741 157.986V156.912C751.692 156.972 751.582 157.026 751.413 157.076C751.248 157.122 751.055 157.164 750.837 157.2C750.621 157.233 750.411 157.263 750.205 157.29C750.003 157.313 749.839 157.333 749.713 157.349C749.408 157.389 749.123 157.454 748.858 157.543C748.596 157.629 748.384 157.76 748.222 157.936C748.063 158.108 747.983 158.344 747.983 158.642C747.983 159.05 748.134 159.358 748.435 159.567C748.74 159.772 749.126 159.875 749.594 159.875ZM755.215 160.75V150.568H756.389V154.327H756.488C756.574 154.194 756.694 154.025 756.846 153.82C757.002 153.611 757.224 153.425 757.512 153.263C757.804 153.097 758.198 153.014 758.695 153.014C759.338 153.014 759.905 153.175 760.396 153.496C760.886 153.818 761.269 154.274 761.544 154.864C761.819 155.454 761.957 156.15 761.957 156.952C761.957 157.76 761.819 158.461 761.544 159.055C761.269 159.645 760.888 160.102 760.401 160.427C759.914 160.748 759.352 160.909 758.715 160.909C758.225 160.909 757.832 160.828 757.537 160.665C757.242 160.5 757.015 160.312 756.856 160.104C756.697 159.892 756.574 159.716 756.488 159.577H756.349V160.75H755.215ZM756.369 156.932C756.369 157.509 756.453 158.017 756.622 158.458C756.791 158.896 757.038 159.239 757.363 159.487C757.688 159.732 758.086 159.855 758.556 159.855C759.047 159.855 759.456 159.726 759.784 159.467C760.116 159.205 760.364 158.854 760.53 158.413C760.699 157.969 760.784 157.475 760.784 156.932C760.784 156.395 760.701 155.911 760.535 155.48C760.373 155.046 760.126 154.703 759.794 154.451C759.466 154.196 759.053 154.068 758.556 154.068C758.079 154.068 757.678 154.189 757.353 154.431C757.028 154.67 756.783 155.004 756.617 155.435C756.452 155.863 756.369 156.362 756.369 156.932ZM766.953 160.909C766.218 160.909 765.583 160.747 765.049 160.422C764.519 160.094 764.11 159.636 763.821 159.05C763.536 158.46 763.394 157.774 763.394 156.991C763.394 156.209 763.536 155.52 763.821 154.923C764.11 154.323 764.511 153.856 765.024 153.521C765.541 153.183 766.145 153.014 766.834 153.014C767.232 153.014 767.624 153.08 768.012 153.213C768.4 153.346 768.753 153.561 769.071 153.859C769.389 154.154 769.643 154.545 769.832 155.033C770.021 155.52 770.115 156.12 770.115 156.832V157.33H764.229V156.315H768.922C768.922 155.884 768.836 155.5 768.664 155.162C768.494 154.824 768.253 154.557 767.938 154.362C767.626 154.166 767.258 154.068 766.834 154.068C766.367 154.068 765.962 154.184 765.621 154.416C765.283 154.645 765.023 154.943 764.84 155.311C764.658 155.679 764.567 156.073 764.567 156.494V157.17C764.567 157.747 764.666 158.236 764.865 158.637C765.067 159.035 765.347 159.338 765.705 159.547C766.063 159.752 766.479 159.855 766.953 159.855C767.262 159.855 767.54 159.812 767.789 159.726C768.04 159.636 768.258 159.504 768.44 159.328C768.622 159.149 768.763 158.927 768.862 158.662L769.996 158.98C769.877 159.365 769.676 159.703 769.394 159.994C769.113 160.283 768.765 160.508 768.35 160.67C767.936 160.83 767.47 160.909 766.953 160.909ZM773.073 150.568V160.75H771.9V150.568H773.073Z" fill="white" fill-opacity="0.7"/>
</g>
<g clip-path="url(#clip3_2029_9064)">
<line x1="526.599" y1="146" x2="526.599" y2="131" stroke="#C7A5FA"/>
<line x1="526.099" y1="138.5" x2="538.099" y2="138.5" stroke="#C7A5FA"/>
<line x1="537.599" y1="146" x2="537.599" y2="131" stroke="#C7A5FA"/>
</g>
<path d="M529.243 124H527.595V116.07L525.046 117.007V115.564L529.14 114.047H529.243V124ZM539.425 124H532.746V122.865L535.987 119.338C536.256 119.042 536.481 118.777 536.663 118.545C536.846 118.308 536.994 118.091 537.108 117.896C537.217 117.7 537.295 117.517 537.34 117.349C537.39 117.175 537.415 117.002 537.415 116.829C537.415 116.597 537.381 116.385 537.313 116.193C537.244 116.002 537.144 115.838 537.012 115.701C536.88 115.564 536.72 115.457 536.534 115.38C536.351 115.302 536.146 115.264 535.918 115.264C535.627 115.264 535.374 115.305 535.159 115.387C534.945 115.469 534.768 115.585 534.626 115.735C534.48 115.895 534.371 116.089 534.298 116.316C534.225 116.54 534.189 116.795 534.189 117.082H532.548C532.548 116.649 532.628 116.241 532.787 115.858C532.947 115.471 533.175 115.134 533.471 114.847C533.763 114.56 534.118 114.332 534.537 114.163C534.961 113.994 535.433 113.91 535.952 113.91C536.44 113.91 536.875 113.981 537.258 114.122C537.645 114.263 537.971 114.459 538.236 114.71C538.495 114.961 538.694 115.261 538.83 115.612C538.967 115.959 539.035 116.341 539.035 116.761C539.035 117.075 538.983 117.381 538.878 117.677C538.778 117.968 538.639 118.258 538.461 118.545C538.279 118.832 538.062 119.121 537.812 119.413C537.566 119.705 537.297 120.006 537.005 120.315L534.79 122.681H539.425V124Z" fill="#C7A5FA"/>
<g clip-path="url(#clip4_2029_9064)">
<rect x="526.599" y="150.5" width="11" height="11" stroke="#C7A5FA" stroke-opacity="0.5" stroke-dasharray="4 4"/>
</g>
<g clip-path="url(#clip5_2029_9064)">
<line x1="541.226" y1="183" x2="541.226" y2="168" stroke="#C7A5FA"/>
<line x1="540.726" y1="175.5" x2="700.726" y2="175.5" stroke="#C7A5FA"/>
<line x1="700.226" y1="183" x2="700.226" y2="168" stroke="#C7A5FA"/>
</g>
<path d="M555.858 201.375H554.211V193.445L551.661 194.382V192.939L555.756 191.422H555.858V201.375ZM564.584 191.374V192.762H564.475C563.933 192.762 563.461 192.837 563.06 192.987C562.664 193.133 562.329 193.338 562.055 193.603C561.777 193.867 561.561 194.184 561.406 194.553C561.255 194.922 561.162 195.318 561.126 195.742C561.235 195.619 561.362 195.501 561.508 195.387C561.654 195.268 561.816 195.163 561.994 195.072C562.162 194.986 562.349 194.917 562.554 194.867C562.759 194.812 562.976 194.785 563.204 194.785C563.687 194.785 564.106 194.876 564.461 195.059C564.821 195.241 565.118 195.487 565.35 195.797C565.587 196.107 565.76 196.462 565.87 196.863C565.984 197.264 566.041 197.681 566.041 198.114C566.041 198.588 565.968 199.033 565.822 199.447C565.681 199.857 565.473 200.215 565.2 200.521C564.922 200.83 564.582 201.074 564.181 201.252C563.785 201.425 563.331 201.512 562.821 201.512C562.297 201.512 561.83 201.411 561.419 201.211C561.009 201.01 560.663 200.739 560.38 200.397C560.08 200.042 559.852 199.625 559.697 199.146C559.542 198.663 559.464 198.155 559.464 197.622V196.945C559.464 196.143 559.567 195.38 559.772 194.655C559.982 193.926 560.328 193.299 560.811 192.775C561.221 192.324 561.727 191.978 562.329 191.736C562.93 191.495 563.618 191.374 564.393 191.374H564.584ZM562.8 196.111C562.604 196.111 562.418 196.141 562.24 196.2C562.062 196.259 561.898 196.341 561.748 196.446C561.611 196.551 561.488 196.672 561.378 196.809C561.269 196.945 561.178 197.098 561.105 197.267V197.772C561.105 198.169 561.148 198.518 561.235 198.818C561.326 199.119 561.449 199.37 561.604 199.57C561.759 199.771 561.939 199.924 562.144 200.028C562.349 200.133 562.568 200.186 562.8 200.186C563.056 200.186 563.283 200.135 563.484 200.035C563.684 199.93 563.855 199.789 563.997 199.611C564.138 199.429 564.245 199.215 564.318 198.969C564.391 198.718 564.427 198.447 564.427 198.155C564.427 197.877 564.391 197.615 564.318 197.369C564.25 197.118 564.147 196.9 564.01 196.713C563.874 196.526 563.703 196.38 563.498 196.275C563.297 196.166 563.065 196.111 562.8 196.111ZM574.357 197.581C574.357 198.219 574.281 198.784 574.131 199.276C573.985 199.764 573.773 200.172 573.495 200.5C573.222 200.837 572.885 201.092 572.484 201.266C572.087 201.434 571.636 201.519 571.13 201.519C570.629 201.519 570.178 201.434 569.777 201.266C569.375 201.092 569.036 200.837 568.758 200.5C568.475 200.172 568.259 199.764 568.109 199.276C567.963 198.784 567.89 198.219 567.89 197.581V195.223C567.89 194.585 567.963 194.022 568.109 193.534C568.259 193.042 568.473 192.627 568.751 192.29C569.029 191.957 569.366 191.707 569.763 191.538C570.164 191.365 570.615 191.278 571.116 191.278C571.622 191.278 572.073 191.365 572.47 191.538C572.871 191.707 573.213 191.957 573.495 192.29C573.769 192.627 573.981 193.042 574.131 193.534C574.281 194.022 574.357 194.585 574.357 195.223V197.581ZM569.53 197L572.695 194.601C572.677 194.245 572.627 193.938 572.545 193.678C572.468 193.418 572.356 193.206 572.21 193.042C572.083 192.896 571.925 192.787 571.738 192.714C571.556 192.641 571.349 192.604 571.116 192.604C570.866 192.604 570.645 192.648 570.453 192.734C570.262 192.821 570.102 192.949 569.975 193.117C569.824 193.309 569.713 193.557 569.64 193.862C569.567 194.163 569.53 194.519 569.53 194.929V196.269C569.53 196.442 569.53 196.574 569.53 196.665C569.53 196.756 569.53 196.868 569.53 197ZM572.709 197.854V196.597C572.709 196.483 572.709 196.364 572.709 196.241C572.709 196.118 572.709 195.991 572.709 195.858L569.544 198.244C569.567 198.559 569.615 198.837 569.688 199.078C569.765 199.32 569.868 199.52 569.995 199.68C570.123 199.853 570.28 199.983 570.467 200.069C570.658 200.156 570.879 200.199 571.13 200.199C571.376 200.199 571.593 200.158 571.779 200.076C571.966 199.99 572.126 199.864 572.258 199.7C572.408 199.509 572.52 199.258 572.593 198.948C572.67 198.638 572.709 198.274 572.709 197.854ZM576.254 204.219V193.979H577.758L577.819 194.737C577.919 194.614 578.029 194.503 578.147 194.402C578.266 194.302 578.393 194.215 578.53 194.143C578.708 194.047 578.904 193.974 579.118 193.924C579.332 193.869 579.56 193.842 579.802 193.842C580.276 193.842 580.693 193.933 581.053 194.115C581.417 194.298 581.722 194.555 581.969 194.888C582.21 195.22 582.395 195.619 582.522 196.084C582.65 196.544 582.714 197.052 582.714 197.608V197.752C582.714 198.285 582.65 198.782 582.522 199.242C582.399 199.702 582.215 200.099 581.969 200.432C581.722 200.769 581.419 201.033 581.059 201.225C580.699 201.416 580.287 201.512 579.822 201.512C579.558 201.512 579.314 201.484 579.091 201.43C578.872 201.375 578.669 201.295 578.482 201.19C578.373 201.127 578.268 201.054 578.168 200.972C578.068 200.89 577.974 200.801 577.888 200.705V204.219H576.254ZM581.08 197.608C581.08 197.276 581.046 196.964 580.977 196.672C580.914 196.376 580.813 196.118 580.677 195.899C580.535 195.681 580.355 195.507 580.137 195.38C579.918 195.252 579.656 195.188 579.35 195.188C579.182 195.188 579.025 195.207 578.879 195.243C578.733 195.28 578.603 195.332 578.489 195.4C578.357 195.473 578.241 195.564 578.14 195.674C578.045 195.783 577.96 195.906 577.888 196.043V199.331C577.951 199.459 578.029 199.575 578.12 199.68C578.211 199.785 578.316 199.876 578.434 199.953C578.557 200.026 578.696 200.085 578.851 200.131C579.006 200.172 579.177 200.192 579.364 200.192C579.669 200.192 579.929 200.129 580.143 200.001C580.362 199.869 580.54 199.691 580.677 199.468C580.818 199.24 580.92 198.98 580.984 198.688C581.048 198.392 581.08 198.08 581.08 197.752V197.608ZM587.755 196.467L589.526 193.979H591.337L588.74 197.622L591.419 201.375H589.615L587.769 198.791L585.93 201.375H584.119L586.798 197.622L584.207 193.979H586.005L587.755 196.467ZM602.378 197.328C602.378 196.686 602.428 196.079 602.528 195.51C602.628 194.936 602.763 194.405 602.931 193.917C603.105 193.438 603.303 192.999 603.526 192.598C603.754 192.197 603.993 191.841 604.244 191.531C604.49 191.221 604.743 190.959 605.003 190.745C605.262 190.526 605.513 190.358 605.755 190.239L606.083 191.189C605.937 191.299 605.791 191.431 605.645 191.586C605.499 191.741 605.356 191.916 605.215 192.112C605.019 192.39 604.834 192.716 604.661 193.09C604.492 193.464 604.346 193.871 604.223 194.313C604.109 194.728 604.018 195.186 603.95 195.688C603.886 196.189 603.854 196.731 603.854 197.314V197.458C603.854 198.028 603.886 198.559 603.95 199.051C604.014 199.538 604.089 199.953 604.176 200.295C604.285 200.705 604.41 201.086 604.551 201.437C604.697 201.787 604.85 202.097 605.009 202.366C605.178 202.64 605.354 202.881 605.536 203.091C605.718 203.3 605.9 203.476 606.083 203.617L605.755 204.533C605.513 204.415 605.262 204.246 605.003 204.027C604.743 203.813 604.488 203.551 604.237 203.241C603.986 202.931 603.747 202.576 603.519 202.175C603.296 201.778 603.1 201.336 602.931 200.849C602.763 200.366 602.628 199.841 602.528 199.276C602.428 198.707 602.378 198.096 602.378 197.444V197.328ZM611.22 191.422L612.451 195.681L613.811 191.422H615.855V201.375H614.31V197.998L614.406 193.555L612.874 198.306H612.02L610.632 193.719L610.721 197.998V201.375H609.183V191.422H611.22ZM622.305 201.375C622.255 201.284 622.214 201.174 622.182 201.047C622.154 200.915 622.129 200.778 622.106 200.637C621.993 200.755 621.863 200.869 621.717 200.979C621.576 201.083 621.416 201.174 621.238 201.252C621.061 201.334 620.869 201.398 620.664 201.443C620.459 201.489 620.238 201.512 620.001 201.512C619.618 201.512 619.267 201.457 618.948 201.348C618.634 201.234 618.365 201.079 618.142 200.883C617.914 200.691 617.736 200.461 617.608 200.192C617.485 199.919 617.424 199.625 617.424 199.311C617.424 198.905 617.504 198.547 617.663 198.237C617.827 197.923 618.064 197.663 618.374 197.458C618.661 197.267 619.014 197.121 619.434 197.021C619.857 196.92 620.336 196.87 620.869 196.87H622.059V196.371C622.059 196.18 622.024 196.007 621.956 195.852C621.892 195.697 621.799 195.562 621.676 195.448C621.544 195.334 621.382 195.248 621.19 195.188C621.004 195.125 620.787 195.093 620.541 195.093C620.318 195.093 620.122 195.12 619.953 195.175C619.789 195.229 619.652 195.305 619.543 195.4C619.434 195.487 619.352 195.594 619.297 195.722C619.247 195.845 619.222 195.977 619.222 196.118H617.581C617.586 195.822 617.656 195.537 617.793 195.264C617.93 194.99 618.13 194.749 618.395 194.539C618.65 194.325 618.964 194.156 619.338 194.033C619.716 193.906 620.147 193.842 620.63 193.842C621.063 193.842 621.466 193.896 621.84 194.006C622.218 194.111 622.544 194.268 622.817 194.478C623.091 194.687 623.305 194.954 623.46 195.277C623.615 195.596 623.692 195.965 623.692 196.385V199.673C623.692 200.006 623.715 200.306 623.761 200.575C623.811 200.84 623.882 201.067 623.973 201.259V201.375H622.305ZM620.315 200.199C620.53 200.199 620.728 200.172 620.91 200.117C621.097 200.062 621.266 199.992 621.416 199.905C621.566 199.819 621.696 199.721 621.806 199.611C621.915 199.502 621.999 199.388 622.059 199.27V197.902H621.006C620.65 197.902 620.343 197.937 620.083 198.005C619.823 198.069 619.616 198.162 619.461 198.285C619.324 198.39 619.222 198.515 619.153 198.661C619.09 198.807 619.058 198.971 619.058 199.153C619.058 199.304 619.085 199.445 619.14 199.577C619.194 199.705 619.274 199.814 619.379 199.905C619.484 199.996 619.614 200.069 619.769 200.124C619.924 200.174 620.106 200.199 620.315 200.199ZM629.096 196.467L630.867 193.979H632.678L630.081 197.622L632.76 201.375H630.956L629.11 198.791L627.271 201.375H625.46L628.139 197.622L625.548 193.979H627.346L629.096 196.467ZM642.939 201.375L641.641 191.422H643.165L643.849 197.533L643.896 197.923L643.965 197.513L644.922 191.422H646.18L647.171 197.54L647.239 197.95L647.287 197.533L647.977 191.422H649.509L648.196 201.375H646.644L645.633 195.284L645.564 194.812L645.489 195.284L644.491 201.375H642.939ZM651.03 193.979H654.954V200.021H657.128V201.375H651.03V200.021H653.306V195.339H651.03V193.979ZM653.156 192.064C653.156 191.932 653.179 191.812 653.224 191.702C653.27 191.588 653.336 191.49 653.422 191.408C653.504 191.331 653.602 191.271 653.716 191.23C653.835 191.185 653.967 191.162 654.113 191.162C654.359 191.162 654.557 191.226 654.708 191.354C654.863 191.477 654.951 191.636 654.974 191.832C655.006 192.033 654.972 192.208 654.872 192.358C654.771 192.504 654.626 192.602 654.434 192.652C654.338 192.739 654.225 192.796 654.092 192.823C653.96 192.851 653.814 192.839 653.655 192.789C653.491 192.739 653.365 192.65 653.279 192.522C653.197 192.39 653.156 192.238 653.156 192.064ZM658.703 197.622C658.703 197.062 658.769 196.551 658.902 196.091C659.038 195.626 659.234 195.227 659.489 194.895C659.74 194.562 660.045 194.304 660.405 194.122C660.77 193.935 661.18 193.842 661.636 193.842C662.046 193.842 662.404 193.915 662.709 194.061C663.019 194.202 663.293 194.405 663.529 194.669V190.875H665.163V201.375H663.68L663.605 200.603C663.368 200.894 663.085 201.12 662.757 201.279C662.429 201.434 662.051 201.512 661.622 201.512C661.171 201.512 660.765 201.418 660.405 201.231C660.045 201.04 659.74 200.776 659.489 200.438C659.239 200.106 659.045 199.712 658.908 199.256C658.772 198.796 658.703 198.299 658.703 197.766V197.622ZM660.337 197.766C660.337 198.094 660.369 198.404 660.433 198.695C660.497 198.987 660.597 199.24 660.734 199.454C660.87 199.677 661.046 199.853 661.26 199.98C661.474 200.104 661.732 200.165 662.032 200.165C662.402 200.165 662.707 200.085 662.948 199.926C663.19 199.762 663.384 199.541 663.529 199.263V196.084C663.384 195.811 663.19 195.594 662.948 195.435C662.711 195.271 662.411 195.188 662.046 195.188C661.741 195.188 661.479 195.252 661.26 195.38C661.046 195.507 660.873 195.683 660.74 195.906C660.599 196.13 660.497 196.389 660.433 196.686C660.369 196.977 660.337 197.289 660.337 197.622V197.766ZM670.472 192.174V193.979H673.254V195.202H670.472V198.736C670.472 199.01 670.503 199.24 670.567 199.427C670.636 199.609 670.729 199.753 670.848 199.857C670.966 199.967 671.107 200.044 671.271 200.09C671.435 200.135 671.615 200.158 671.811 200.158C671.953 200.158 672.098 200.151 672.249 200.138C672.399 200.124 672.545 200.106 672.686 200.083C672.823 200.065 672.951 200.044 673.069 200.021C673.192 199.994 673.295 199.971 673.377 199.953L673.555 201.081C673.436 201.154 673.292 201.218 673.124 201.272C672.96 201.323 672.782 201.366 672.591 201.402C672.399 201.439 672.199 201.466 671.989 201.484C671.784 201.507 671.579 201.519 671.374 201.519C671 201.519 670.656 201.468 670.342 201.368C670.032 201.263 669.765 201.102 669.542 200.883C669.319 200.669 669.143 200.393 669.015 200.056C668.892 199.718 668.831 199.313 668.831 198.839V195.202H667.04V193.979H668.831V192.174H670.472ZM677.092 195.031C677.188 194.885 677.295 194.751 677.414 194.628C677.532 194.505 677.657 194.398 677.79 194.307C677.995 194.156 678.22 194.042 678.466 193.965C678.717 193.883 678.981 193.842 679.259 193.842C679.647 193.842 680 193.899 680.319 194.013C680.642 194.127 680.918 194.304 681.146 194.546C681.374 194.787 681.549 195.097 681.672 195.476C681.8 195.849 681.864 196.298 681.864 196.822V201.375H680.23V196.809C680.23 196.535 680.196 196.296 680.127 196.091C680.064 195.886 679.968 195.719 679.84 195.592C679.708 195.455 679.546 195.355 679.355 195.291C679.168 195.223 678.952 195.188 678.706 195.188C678.514 195.188 678.332 195.211 678.159 195.257C677.99 195.302 677.835 195.368 677.694 195.455C677.575 195.523 677.464 195.605 677.359 195.701C677.259 195.797 677.17 195.904 677.092 196.022V201.375H675.458V190.875H677.092V195.031ZM688.601 197.444C688.601 198.082 688.548 198.684 688.443 199.249C688.343 199.814 688.207 200.338 688.033 200.821C687.86 201.309 687.66 201.753 687.432 202.154C687.204 202.555 686.962 202.911 686.707 203.221C686.452 203.54 686.192 203.809 685.928 204.027C685.664 204.246 685.408 204.415 685.162 204.533L684.841 203.617C685.014 203.49 685.187 203.328 685.36 203.132C685.534 202.936 685.702 202.71 685.866 202.455C686.04 202.173 686.201 201.851 686.352 201.491C686.507 201.136 686.637 200.742 686.741 200.309C686.842 199.908 686.919 199.47 686.974 198.996C687.033 198.522 687.063 198.009 687.063 197.458V197.314C687.063 196.745 687.031 196.221 686.967 195.742C686.903 195.264 686.823 194.835 686.728 194.457C686.6 193.965 686.445 193.523 686.263 193.131C686.085 192.739 685.898 192.399 685.702 192.112C685.566 191.907 685.422 191.725 685.272 191.565C685.126 191.401 684.982 191.265 684.841 191.155L685.162 190.239C685.408 190.358 685.664 190.529 685.928 190.752C686.197 190.971 686.457 191.235 686.707 191.545C686.967 191.864 687.211 192.224 687.439 192.625C687.666 193.021 687.865 193.464 688.033 193.951C688.202 194.434 688.339 194.956 688.443 195.517C688.548 196.073 688.601 196.676 688.601 197.328V197.444Z" fill="#C7A5FA"/>
<rect x="541.116" y="146.25" width="159" height="18.7499" stroke="#643ABD"/>
<g opacity="0.5">
<g clip-path="url(#clip6_2029_9064)">
<rect width="7.78753" height="20" transform="translate(743.341 140.5)" fill="#30C9B0" fill-opacity="0.5"/>
<rect x="743.341" y="140.5" width="7.78753" height="20" fill="#30C9B0" fill-opacity="0.5"/>
</g>
</g>
<g clip-path="url(#clip7_2029_9064)">
<line x1="743.629" y1="136.5" x2="743.629" y2="121.5" stroke="#30C9B0"/>
<line x1="743.129" y1="129" x2="750.916" y2="129" stroke="#30C9B0"/>
<line x1="750.629" y1="136.5" x2="750.629" y2="121.5" stroke="#30C9B0"/>
</g>
<path d="M750.558 107.172C750.558 107.473 750.508 107.753 750.408 108.013C750.312 108.272 750.175 108.505 749.998 108.71C749.888 108.842 749.763 108.965 749.622 109.079C749.48 109.193 749.323 109.293 749.15 109.38C749.355 109.476 749.544 109.587 749.717 109.715C749.895 109.838 750.05 109.981 750.182 110.146C750.369 110.364 750.515 110.613 750.62 110.891C750.725 111.169 750.777 111.469 750.777 111.793C750.777 112.253 750.693 112.661 750.524 113.017C750.355 113.372 750.125 113.668 749.834 113.905C749.537 114.147 749.191 114.329 748.795 114.452C748.403 114.575 747.979 114.637 747.523 114.637C747.058 114.637 746.625 114.575 746.224 114.452C745.828 114.329 745.484 114.147 745.192 113.905C744.896 113.668 744.663 113.374 744.495 113.023C744.331 112.668 744.249 112.258 744.249 111.793C744.249 111.52 744.285 111.26 744.358 111.014C744.436 110.768 744.545 110.54 744.686 110.33C744.827 110.13 744.996 109.95 745.192 109.79C745.393 109.626 745.616 109.487 745.862 109.373C745.652 109.268 745.461 109.141 745.288 108.99C745.119 108.84 744.976 108.674 744.857 108.491C744.734 108.304 744.638 108.099 744.57 107.876C744.502 107.653 744.467 107.418 744.467 107.172C744.467 106.73 744.543 106.338 744.693 105.996C744.848 105.654 745.06 105.365 745.329 105.128C745.593 104.891 745.91 104.713 746.279 104.595C746.653 104.472 747.061 104.41 747.503 104.41C747.94 104.41 748.343 104.472 748.713 104.595C749.086 104.713 749.412 104.891 749.69 105.128C749.959 105.36 750.171 105.65 750.326 105.996C750.481 106.338 750.558 106.73 750.558 107.172ZM749.143 111.704C749.143 111.458 749.102 111.235 749.02 111.034C748.943 110.829 748.833 110.651 748.692 110.501C748.546 110.36 748.373 110.25 748.172 110.173C747.972 110.095 747.751 110.057 747.509 110.057C747.259 110.057 747.033 110.095 746.833 110.173C746.637 110.25 746.468 110.36 746.327 110.501C746.186 110.651 746.076 110.829 745.999 111.034C745.926 111.235 745.889 111.46 745.889 111.711C745.889 111.966 745.928 112.196 746.005 112.401C746.083 112.602 746.195 112.771 746.34 112.907C746.482 113.039 746.65 113.142 746.846 113.215C747.047 113.283 747.272 113.317 747.523 113.317C747.76 113.317 747.977 113.281 748.172 113.208C748.373 113.135 748.546 113.03 748.692 112.894C748.829 112.752 748.938 112.584 749.02 112.388C749.102 112.187 749.143 111.959 749.143 111.704ZM748.931 107.233C748.931 107.01 748.895 106.807 748.822 106.625C748.754 106.443 748.658 106.283 748.535 106.146C748.407 106.019 748.257 105.919 748.084 105.846C747.91 105.773 747.714 105.736 747.496 105.736C747.282 105.736 747.088 105.773 746.915 105.846C746.746 105.914 746.6 106.012 746.477 106.14C746.359 106.267 746.268 106.424 746.204 106.611C746.14 106.798 746.108 107.006 746.108 107.233C746.108 107.457 746.14 107.662 746.204 107.849C746.268 108.031 746.363 108.186 746.491 108.313C746.614 108.446 746.762 108.548 746.935 108.621C747.108 108.694 747.302 108.73 747.516 108.73C747.73 108.73 747.924 108.694 748.097 108.621C748.27 108.548 748.419 108.446 748.542 108.313C748.665 108.186 748.76 108.031 748.829 107.849C748.897 107.662 748.931 107.457 748.931 107.233Z" fill="#30C9B0"/>
<g opacity="0.5">
<g clip-path="url(#clip8_2029_9064)">
<rect width="7.78753" height="20" transform="translate(723.341 140.5)" fill="#30C9B0" fill-opacity="0.5"/>
<rect x="723.341" y="140.5" width="7.78753" height="20" fill="#30C9B0" fill-opacity="0.5"/>
</g>
</g>
<g clip-path="url(#clip9_2029_9064)">
<line x1="723.629" y1="136.5" x2="723.629" y2="121.5" stroke="#30C9B0"/>
<line x1="723.129" y1="129" x2="730.916" y2="129" stroke="#30C9B0"/>
<line x1="730.629" y1="136.5" x2="730.629" y2="121.5" stroke="#30C9B0"/>
</g>
<path d="M730.558 107.172C730.558 107.473 730.508 107.753 730.408 108.013C730.312 108.272 730.175 108.505 729.998 108.71C729.888 108.842 729.763 108.965 729.622 109.079C729.48 109.193 729.323 109.293 729.15 109.38C729.355 109.476 729.544 109.587 729.717 109.715C729.895 109.838 730.05 109.981 730.182 110.146C730.369 110.364 730.515 110.613 730.62 110.891C730.725 111.169 730.777 111.469 730.777 111.793C730.777 112.253 730.693 112.661 730.524 113.017C730.355 113.372 730.125 113.668 729.834 113.905C729.537 114.147 729.191 114.329 728.795 114.452C728.403 114.575 727.979 114.637 727.523 114.637C727.058 114.637 726.625 114.575 726.224 114.452C725.828 114.329 725.484 114.147 725.192 113.905C724.896 113.668 724.663 113.374 724.495 113.023C724.331 112.668 724.249 112.258 724.249 111.793C724.249 111.52 724.285 111.26 724.358 111.014C724.436 110.768 724.545 110.54 724.686 110.33C724.827 110.13 724.996 109.95 725.192 109.79C725.393 109.626 725.616 109.487 725.862 109.373C725.652 109.268 725.461 109.141 725.288 108.99C725.119 108.84 724.976 108.674 724.857 108.491C724.734 108.304 724.638 108.099 724.57 107.876C724.502 107.653 724.467 107.418 724.467 107.172C724.467 106.73 724.543 106.338 724.693 105.996C724.848 105.654 725.06 105.365 725.329 105.128C725.593 104.891 725.91 104.713 726.279 104.595C726.653 104.472 727.061 104.41 727.503 104.41C727.94 104.41 728.343 104.472 728.713 104.595C729.086 104.713 729.412 104.891 729.69 105.128C729.959 105.36 730.171 105.65 730.326 105.996C730.481 106.338 730.558 106.73 730.558 107.172ZM729.143 111.704C729.143 111.458 729.102 111.235 729.02 111.034C728.943 110.829 728.833 110.651 728.692 110.501C728.546 110.36 728.373 110.25 728.172 110.173C727.972 110.095 727.751 110.057 727.509 110.057C727.259 110.057 727.033 110.095 726.833 110.173C726.637 110.25 726.468 110.36 726.327 110.501C726.186 110.651 726.076 110.829 725.999 111.034C725.926 111.235 725.889 111.46 725.889 111.711C725.889 111.966 725.928 112.196 726.005 112.401C726.083 112.602 726.195 112.771 726.34 112.907C726.482 113.039 726.65 113.142 726.846 113.215C727.047 113.283 727.272 113.317 727.523 113.317C727.76 113.317 727.977 113.281 728.172 113.208C728.373 113.135 728.546 113.03 728.692 112.894C728.829 112.752 728.938 112.584 729.02 112.388C729.102 112.187 729.143 111.959 729.143 111.704ZM728.931 107.233C728.931 107.01 728.895 106.807 728.822 106.625C728.754 106.443 728.658 106.283 728.535 106.146C728.407 106.019 728.257 105.919 728.084 105.846C727.91 105.773 727.714 105.736 727.496 105.736C727.282 105.736 727.088 105.773 726.915 105.846C726.746 105.914 726.6 106.012 726.477 106.14C726.359 106.267 726.268 106.424 726.204 106.611C726.14 106.798 726.108 107.006 726.108 107.233C726.108 107.457 726.14 107.662 726.204 107.849C726.268 108.031 726.363 108.186 726.491 108.313C726.614 108.446 726.762 108.548 726.935 108.621C727.108 108.694 727.302 108.73 727.516 108.73C727.73 108.73 727.924 108.694 728.097 108.621C728.27 108.548 728.419 108.446 728.542 108.313C728.665 108.186 728.76 108.031 728.829 107.849C728.897 107.662 728.931 107.457 728.931 107.233Z" fill="#30C9B0"/>
<defs>
<clipPath id="clip0_2029_9064">
<rect width="36" height="20" fill="white" transform="translate(546.184 145.75)"/>
</clipPath>
<clipPath id="clip1_2029_9064">
<rect width="36" height="20" fill="white" transform="translate(642.184 145.75)"/>
</clipPath>
<clipPath id="clip2_2029_9064">
<rect width="36" height="20" fill="white" transform="translate(738.184 145.75)"/>
</clipPath>
<clipPath id="clip3_2029_9064">
<rect width="12" height="15" fill="white" transform="translate(526.099 131)"/>
</clipPath>
<clipPath id="clip4_2029_9064">
<rect width="12" height="12" fill="white" transform="translate(526.099 150)"/>
</clipPath>
<clipPath id="clip5_2029_9064">
<rect width="160" height="15" fill="white" transform="translate(540.726 168)"/>
</clipPath>
<clipPath id="clip6_2029_9064">
<rect width="7.78753" height="20" fill="white" transform="translate(743.341 140.5)"/>
</clipPath>
<clipPath id="clip7_2029_9064">
<rect width="7.78753" height="15" fill="white" transform="translate(743.129 121.5)"/>
</clipPath>
<clipPath id="clip8_2029_9064">
<rect width="7.78753" height="20" fill="white" transform="translate(723.341 140.5)"/>
</clipPath>
<clipPath id="clip9_2029_9064">
<rect width="7.78753" height="15" fill="white" transform="translate(723.129 121.5)"/>
</clipPath>
</defs>
</svg>
