<svg width="1560" height="60" viewBox="0 0 1560 60" fill="none" xmlns="http://www.w3.org/2000/svg">
<path d="M3.03409 47V12.0909H10.4148V40.9148H25.3807V47H3.03409ZM37.598 47.4943C35.9276 47.4943 34.4389 47.2045 33.1321 46.625C31.8253 46.0341 30.7912 45.1648 30.0298 44.017C29.2798 42.858 28.9048 41.4148 28.9048 39.6875C28.9048 38.233 29.1719 37.0114 29.706 36.0227C30.2401 35.0341 30.9673 34.2386 31.8878 33.6364C32.8082 33.0341 33.8537 32.5795 35.0241 32.2727C36.206 31.9659 37.4446 31.75 38.7401 31.625C40.2628 31.4659 41.4901 31.3182 42.4219 31.1818C43.3537 31.0341 44.0298 30.8182 44.4503 30.5341C44.8707 30.25 45.081 29.8295 45.081 29.2727V29.1705C45.081 28.0909 44.7401 27.2557 44.0582 26.6648C43.3878 26.0739 42.4332 25.7784 41.1946 25.7784C39.8878 25.7784 38.848 26.0682 38.0753 26.6477C37.3026 27.2159 36.7912 27.9318 36.5412 28.7955L29.8253 28.25C30.1662 26.6591 30.8366 25.2841 31.8366 24.125C32.8366 22.9545 34.1264 22.0568 35.706 21.4318C37.2969 20.7955 39.1378 20.4773 41.2287 20.4773C42.6832 20.4773 44.0753 20.6477 45.4048 20.9886C46.7457 21.3295 47.9332 21.858 48.9673 22.5739C50.0128 23.2898 50.8366 24.2102 51.4389 25.3352C52.0412 26.4489 52.3423 27.7841 52.3423 29.3409V47H45.456V43.3693H45.2514C44.831 44.1875 44.2685 44.9091 43.5639 45.5341C42.8594 46.1477 42.0128 46.6307 41.0241 46.983C40.0355 47.3239 38.8935 47.4943 37.598 47.4943ZM39.6776 42.483C40.7457 42.483 41.6889 42.2727 42.5071 41.8523C43.3253 41.4205 43.9673 40.8409 44.4332 40.1136C44.8991 39.3864 45.1321 38.5625 45.1321 37.642V34.8636C44.9048 35.0114 44.5923 35.1477 44.1946 35.2727C43.8082 35.3864 43.3707 35.4943 42.8821 35.5966C42.3935 35.6875 41.9048 35.7727 41.4162 35.8523C40.9276 35.9205 40.4844 35.983 40.0866 36.0398C39.2344 36.1648 38.4901 36.3636 37.8537 36.6364C37.2173 36.9091 36.723 37.2784 36.3707 37.7443C36.0185 38.1989 35.8423 38.767 35.8423 39.4489C35.8423 40.4375 36.2003 41.1932 36.9162 41.7159C37.6435 42.2273 38.5639 42.483 39.6776 42.483ZM61.5213 56.8182C60.6009 56.8182 59.7372 56.7443 58.9304 56.5966C58.1349 56.4602 57.4759 56.2841 56.9531 56.0682L58.5895 50.6477C59.4418 50.9091 60.2088 51.0511 60.8906 51.0739C61.5838 51.0966 62.1804 50.9375 62.6804 50.5966C63.1918 50.2557 63.6065 49.6761 63.9247 48.858L64.3509 47.75L54.9588 20.8182H62.5952L68.0156 40.0455H68.2884L73.7599 20.8182H81.4474L71.2713 49.8295C70.7827 51.2386 70.1179 52.4659 69.277 53.5114C68.4474 54.5682 67.3963 55.3807 66.1236 55.9489C64.8509 56.5284 63.3168 56.8182 61.5213 56.8182ZM96.1491 47.5114C93.5014 47.5114 91.2116 46.9489 89.2798 45.8239C87.3594 44.6875 85.8764 43.108 84.831 41.0852C83.7855 39.0511 83.2628 36.6932 83.2628 34.0114C83.2628 31.3068 83.7855 28.9432 84.831 26.9205C85.8764 24.8864 87.3594 23.3068 89.2798 22.1818C91.2116 21.0455 93.5014 20.4773 96.1491 20.4773C98.7969 20.4773 101.081 21.0455 103.001 22.1818C104.933 23.3068 106.422 24.8864 107.467 26.9205C108.513 28.9432 109.036 31.3068 109.036 34.0114C109.036 36.6932 108.513 39.0511 107.467 41.0852C106.422 43.108 104.933 44.6875 103.001 45.8239C101.081 46.9489 98.7969 47.5114 96.1491 47.5114ZM96.1832 41.8864C97.3878 41.8864 98.3935 41.5455 99.2003 40.8636C100.007 40.1705 100.615 39.2273 101.024 38.0341C101.445 36.8409 101.655 35.483 101.655 33.9602C101.655 32.4375 101.445 31.0795 101.024 29.8864C100.615 28.6932 100.007 27.75 99.2003 27.0568C98.3935 26.3636 97.3878 26.017 96.1832 26.017C94.9673 26.017 93.9446 26.3636 93.1151 27.0568C92.2969 27.75 91.6776 28.6932 91.2571 29.8864C90.848 31.0795 90.6435 32.4375 90.6435 33.9602C90.6435 35.483 90.848 36.8409 91.2571 38.0341C91.6776 39.2273 92.2969 40.1705 93.1151 40.8636C93.9446 41.5455 94.9673 41.8864 96.1832 41.8864ZM130.547 35.8523V20.8182H137.808V47H130.837V42.2443H130.564C129.973 43.7784 128.99 45.0114 127.615 45.9432C126.251 46.875 124.587 47.3409 122.621 47.3409C120.871 47.3409 119.331 46.9432 118.001 46.1477C116.672 45.3523 115.632 44.2216 114.882 42.7557C114.143 41.2898 113.768 39.5341 113.757 37.4886V20.8182H121.018V36.1932C121.03 37.7386 121.445 38.9602 122.263 39.858C123.081 40.7557 124.178 41.2045 125.553 41.2045C126.428 41.2045 127.246 41.0057 128.007 40.608C128.768 40.1989 129.382 39.5966 129.848 38.8011C130.325 38.0057 130.558 37.0227 130.547 35.8523ZM157.543 20.8182V26.2727H141.776V20.8182H157.543ZM145.355 14.5455H152.616V38.9545C152.616 39.625 152.719 40.1477 152.923 40.5227C153.128 40.8864 153.412 41.142 153.776 41.2898C154.151 41.4375 154.582 41.5114 155.071 41.5114C155.412 41.5114 155.753 41.483 156.094 41.4261C156.435 41.358 156.696 41.3068 156.878 41.2727L158.02 46.6761C157.656 46.7898 157.145 46.9205 156.486 47.0682C155.827 47.2273 155.026 47.3239 154.082 47.358C152.332 47.4261 150.798 47.1932 149.48 46.6591C148.173 46.125 147.156 45.2955 146.429 44.1705C145.702 43.0455 145.344 41.625 145.355 39.9091V14.5455Z" fill="white" fill-opacity="0.95"/>
</svg>
