<svg width="1300" height="408" viewBox="0 0 1300 408" fill="none" xmlns="http://www.w3.org/2000/svg">
<rect width="1300" height="408" rx="20" fill="#262626"/>
<path d="M669.204 74C669.204 77.866 666.07 81 662.204 81C658.338 81 655.204 77.866 655.204 74C655.204 70.134 658.338 67 662.204 67C666.07 67 669.204 70.134 669.204 74Z" stroke="#64B4FA" stroke-width="2"/>
<g clip-path="url(#clip0_2029_12133)">
<path d="M679.472 79V68.8182H680.705V77.9062H685.438V79H679.472ZM689.435 79.179C688.951 79.179 688.512 79.0878 688.118 78.9055C687.723 78.7199 687.41 78.4531 687.178 78.1051C686.946 77.7538 686.83 77.3295 686.83 76.8324C686.83 76.3949 686.916 76.0402 687.089 75.7685C687.261 75.4934 687.491 75.2779 687.78 75.1222C688.068 74.9664 688.386 74.8504 688.734 74.7741C689.086 74.6946 689.439 74.6316 689.793 74.5852C690.257 74.5256 690.633 74.4808 690.922 74.451C691.213 74.4179 691.426 74.3632 691.558 74.2869C691.694 74.2107 691.762 74.0781 691.762 73.8892V73.8494C691.762 73.3589 691.628 72.9777 691.359 72.706C691.094 72.4342 690.691 72.2983 690.151 72.2983C689.591 72.2983 689.152 72.4209 688.834 72.6662C688.516 72.9115 688.292 73.1733 688.163 73.4517L687.049 73.054C687.248 72.59 687.513 72.2287 687.844 71.9702C688.179 71.7083 688.544 71.526 688.938 71.4233C689.336 71.3172 689.727 71.2642 690.111 71.2642C690.357 71.2642 690.638 71.294 690.957 71.3537C691.278 71.41 691.588 71.5277 691.886 71.7067C692.188 71.8857 692.438 72.1558 692.637 72.517C692.836 72.8783 692.935 73.3622 692.935 73.9688V79H691.762V77.9659H691.702C691.623 78.1316 691.49 78.3089 691.305 78.4979C691.119 78.6868 690.872 78.8475 690.564 78.9801C690.256 79.1127 689.879 79.179 689.435 79.179ZM689.614 78.125C690.078 78.125 690.469 78.0339 690.788 77.8516C691.109 77.6693 691.351 77.4339 691.513 77.1456C691.679 76.8572 691.762 76.554 691.762 76.2358V75.1619C691.712 75.2216 691.603 75.2763 691.434 75.326C691.268 75.3724 691.076 75.4138 690.857 75.4503C690.642 75.4834 690.431 75.5133 690.226 75.5398C690.024 75.563 689.86 75.5829 689.734 75.5994C689.429 75.6392 689.144 75.7038 688.878 75.7933C688.617 75.8795 688.405 76.0104 688.242 76.1861C688.083 76.3584 688.003 76.5937 688.003 76.892C688.003 77.2997 688.154 77.608 688.456 77.8168C688.761 78.0223 689.147 78.125 689.614 78.125ZM695.236 79V68.8182H696.409V72.5767H696.509C696.595 72.4441 696.714 72.2751 696.867 72.0696C697.022 71.8608 697.244 71.6752 697.533 71.5128C697.824 71.3471 698.219 71.2642 698.716 71.2642C699.359 71.2642 699.926 71.425 700.416 71.7464C700.907 72.0679 701.29 72.5237 701.565 73.1136C701.84 73.7036 701.977 74.3996 701.977 75.2017C701.977 76.0104 701.84 76.7114 701.565 77.3047C701.29 77.8946 700.908 78.352 700.421 78.6768C699.934 78.9983 699.372 79.1591 698.736 79.1591C698.245 79.1591 697.853 79.0779 697.558 78.9155C697.263 78.7498 697.036 78.5625 696.877 78.3537C696.717 78.1416 696.595 77.9659 696.509 77.8267H696.369V79H695.236ZM696.389 75.1818C696.389 75.7585 696.474 76.2673 696.643 76.7081C696.812 77.1456 697.059 77.4886 697.384 77.7372C697.708 77.9825 698.106 78.1051 698.577 78.1051C699.067 78.1051 699.477 77.9759 699.805 77.7173C700.136 77.4555 700.385 77.1042 700.551 76.6634C700.72 76.2192 700.804 75.7254 700.804 75.1818C700.804 74.6449 700.721 74.161 700.555 73.7301C700.393 73.2959 700.146 72.9529 699.815 72.701C699.487 72.4458 699.074 72.3182 698.577 72.3182C698.1 72.3182 697.698 72.4392 697.374 72.6811C697.049 72.9197 696.804 73.2545 696.638 73.6854C696.472 74.1129 696.389 74.6117 696.389 75.1818ZM706.974 79.1591C706.238 79.1591 705.603 78.9967 705.07 78.6719C704.539 78.3438 704.13 77.8864 703.842 77.2997C703.557 76.7098 703.414 76.0237 703.414 75.2415C703.414 74.4593 703.557 73.7699 703.842 73.1733C704.13 72.5734 704.531 72.1061 705.045 71.7713C705.562 71.4332 706.165 71.2642 706.854 71.2642C707.252 71.2642 707.645 71.3305 708.033 71.4631C708.421 71.5956 708.774 71.8111 709.092 72.1094C709.41 72.4044 709.663 72.7955 709.852 73.2827C710.041 73.7699 710.136 74.3698 710.136 75.0824V75.5795H704.249V74.5653H708.943C708.943 74.1345 708.856 73.75 708.684 73.4119C708.515 73.0739 708.273 72.8071 707.958 72.6115C707.647 72.416 707.279 72.3182 706.854 72.3182C706.387 72.3182 705.983 72.4342 705.641 72.6662C705.303 72.8949 705.043 73.1932 704.861 73.5611C704.679 73.929 704.587 74.3234 704.587 74.7443V75.4205C704.587 75.9972 704.687 76.486 704.886 76.8871C705.088 77.2848 705.368 77.5881 705.726 77.7969C706.084 78.0024 706.5 78.1051 706.974 78.1051C707.282 78.1051 707.56 78.062 707.809 77.9759C708.061 77.8864 708.278 77.7538 708.46 77.5781C708.643 77.3991 708.783 77.1771 708.883 76.9119L710.016 77.2301C709.897 77.6146 709.697 77.9527 709.415 78.2443C709.133 78.5327 708.785 78.758 708.371 78.9205C707.957 79.0795 707.491 79.1591 706.974 79.1591ZM713.094 68.8182V79H711.921V68.8182H713.094Z" fill="white" fill-opacity="0.7"/>
</g>
<rect x="661.204" y="88" width="2" height="24" fill="#8F8F8F"/>
<path d="M669.204 126C669.204 129.866 666.07 133 662.204 133C658.338 133 655.204 129.866 655.204 126C655.204 122.134 658.338 119 662.204 119C666.07 119 669.204 122.134 669.204 126Z" stroke="#64B4FA" stroke-width="2"/>
<g clip-path="url(#clip1_2029_12133)">
<path d="M679.472 131V120.818H680.705V129.906H685.438V131H679.472ZM689.435 131.179C688.951 131.179 688.512 131.088 688.118 130.906C687.723 130.72 687.41 130.453 687.178 130.105C686.946 129.754 686.83 129.33 686.83 128.832C686.83 128.395 686.916 128.04 687.089 127.768C687.261 127.493 687.491 127.278 687.78 127.122C688.068 126.966 688.386 126.85 688.734 126.774C689.086 126.695 689.439 126.632 689.793 126.585C690.257 126.526 690.633 126.481 690.922 126.451C691.213 126.418 691.426 126.363 691.558 126.287C691.694 126.211 691.762 126.078 691.762 125.889V125.849C691.762 125.359 691.628 124.978 691.359 124.706C691.094 124.434 690.691 124.298 690.151 124.298C689.591 124.298 689.152 124.421 688.834 124.666C688.516 124.911 688.292 125.173 688.163 125.452L687.049 125.054C687.248 124.59 687.513 124.229 687.844 123.97C688.179 123.708 688.544 123.526 688.938 123.423C689.336 123.317 689.727 123.264 690.111 123.264C690.357 123.264 690.638 123.294 690.957 123.354C691.278 123.41 691.588 123.528 691.886 123.707C692.188 123.886 692.438 124.156 692.637 124.517C692.836 124.878 692.935 125.362 692.935 125.969V131H691.762V129.966H691.702C691.623 130.132 691.49 130.309 691.305 130.498C691.119 130.687 690.872 130.848 690.564 130.98C690.256 131.113 689.879 131.179 689.435 131.179ZM689.614 130.125C690.078 130.125 690.469 130.034 690.788 129.852C691.109 129.669 691.351 129.434 691.513 129.146C691.679 128.857 691.762 128.554 691.762 128.236V127.162C691.712 127.222 691.603 127.276 691.434 127.326C691.268 127.372 691.076 127.414 690.857 127.45C690.642 127.483 690.431 127.513 690.226 127.54C690.024 127.563 689.86 127.583 689.734 127.599C689.429 127.639 689.144 127.704 688.878 127.793C688.617 127.879 688.405 128.01 688.242 128.186C688.083 128.358 688.003 128.594 688.003 128.892C688.003 129.3 688.154 129.608 688.456 129.817C688.761 130.022 689.147 130.125 689.614 130.125ZM695.236 131V120.818H696.409V124.577H696.509C696.595 124.444 696.714 124.275 696.867 124.07C697.022 123.861 697.244 123.675 697.533 123.513C697.824 123.347 698.219 123.264 698.716 123.264C699.359 123.264 699.926 123.425 700.416 123.746C700.907 124.068 701.29 124.524 701.565 125.114C701.84 125.704 701.977 126.4 701.977 127.202C701.977 128.01 701.84 128.711 701.565 129.305C701.29 129.895 700.908 130.352 700.421 130.677C699.934 130.998 699.372 131.159 698.736 131.159C698.245 131.159 697.853 131.078 697.558 130.915C697.263 130.75 697.036 130.562 696.877 130.354C696.717 130.142 696.595 129.966 696.509 129.827H696.369V131H695.236ZM696.389 127.182C696.389 127.759 696.474 128.267 696.643 128.708C696.812 129.146 697.059 129.489 697.384 129.737C697.708 129.982 698.106 130.105 698.577 130.105C699.067 130.105 699.477 129.976 699.805 129.717C700.136 129.455 700.385 129.104 700.551 128.663C700.72 128.219 700.804 127.725 700.804 127.182C700.804 126.645 700.721 126.161 700.555 125.73C700.393 125.296 700.146 124.953 699.815 124.701C699.487 124.446 699.074 124.318 698.577 124.318C698.1 124.318 697.698 124.439 697.374 124.681C697.049 124.92 696.804 125.254 696.638 125.685C696.472 126.113 696.389 126.612 696.389 127.182ZM706.974 131.159C706.238 131.159 705.603 130.997 705.07 130.672C704.539 130.344 704.13 129.886 703.842 129.3C703.557 128.71 703.414 128.024 703.414 127.241C703.414 126.459 703.557 125.77 703.842 125.173C704.13 124.573 704.531 124.106 705.045 123.771C705.562 123.433 706.165 123.264 706.854 123.264C707.252 123.264 707.645 123.33 708.033 123.463C708.421 123.596 708.774 123.811 709.092 124.109C709.41 124.404 709.663 124.795 709.852 125.283C710.041 125.77 710.136 126.37 710.136 127.082V127.58H704.249V126.565H708.943C708.943 126.134 708.856 125.75 708.684 125.412C708.515 125.074 708.273 124.807 707.958 124.612C707.647 124.416 707.279 124.318 706.854 124.318C706.387 124.318 705.983 124.434 705.641 124.666C705.303 124.895 705.043 125.193 704.861 125.561C704.679 125.929 704.587 126.323 704.587 126.744V127.42C704.587 127.997 704.687 128.486 704.886 128.887C705.088 129.285 705.368 129.588 705.726 129.797C706.084 130.002 706.5 130.105 706.974 130.105C707.282 130.105 707.56 130.062 707.809 129.976C708.061 129.886 708.278 129.754 708.46 129.578C708.643 129.399 708.783 129.177 708.883 128.912L710.016 129.23C709.897 129.615 709.697 129.953 709.415 130.244C709.133 130.533 708.785 130.758 708.371 130.92C707.957 131.08 707.491 131.159 706.974 131.159ZM713.094 120.818V131H711.921V120.818H713.094Z" fill="white" fill-opacity="0.7"/>
</g>
<rect x="661.204" y="140" width="2" height="24" fill="#8F8F8F"/>
<path d="M669.204 178C669.204 181.866 666.07 185 662.204 185C658.338 185 655.204 181.866 655.204 178C655.204 174.134 658.338 171 662.204 171C666.07 171 669.204 174.134 669.204 178Z" stroke="#64B4FA" stroke-width="2"/>
<g clip-path="url(#clip2_2029_12133)">
<path d="M679.472 183V172.818H680.705V181.906H685.438V183H679.472ZM689.435 183.179C688.951 183.179 688.512 183.088 688.118 182.906C687.723 182.72 687.41 182.453 687.178 182.105C686.946 181.754 686.83 181.33 686.83 180.832C686.83 180.395 686.916 180.04 687.089 179.768C687.261 179.493 687.491 179.278 687.78 179.122C688.068 178.966 688.386 178.85 688.734 178.774C689.086 178.695 689.439 178.632 689.793 178.585C690.257 178.526 690.633 178.481 690.922 178.451C691.213 178.418 691.426 178.363 691.558 178.287C691.694 178.211 691.762 178.078 691.762 177.889V177.849C691.762 177.359 691.628 176.978 691.359 176.706C691.094 176.434 690.691 176.298 690.151 176.298C689.591 176.298 689.152 176.421 688.834 176.666C688.516 176.911 688.292 177.173 688.163 177.452L687.049 177.054C687.248 176.59 687.513 176.229 687.844 175.97C688.179 175.708 688.544 175.526 688.938 175.423C689.336 175.317 689.727 175.264 690.111 175.264C690.357 175.264 690.638 175.294 690.957 175.354C691.278 175.41 691.588 175.528 691.886 175.707C692.188 175.886 692.438 176.156 692.637 176.517C692.836 176.878 692.935 177.362 692.935 177.969V183H691.762V181.966H691.702C691.623 182.132 691.49 182.309 691.305 182.498C691.119 182.687 690.872 182.848 690.564 182.98C690.256 183.113 689.879 183.179 689.435 183.179ZM689.614 182.125C690.078 182.125 690.469 182.034 690.788 181.852C691.109 181.669 691.351 181.434 691.513 181.146C691.679 180.857 691.762 180.554 691.762 180.236V179.162C691.712 179.222 691.603 179.276 691.434 179.326C691.268 179.372 691.076 179.414 690.857 179.45C690.642 179.483 690.431 179.513 690.226 179.54C690.024 179.563 689.86 179.583 689.734 179.599C689.429 179.639 689.144 179.704 688.878 179.793C688.617 179.879 688.405 180.01 688.242 180.186C688.083 180.358 688.003 180.594 688.003 180.892C688.003 181.3 688.154 181.608 688.456 181.817C688.761 182.022 689.147 182.125 689.614 182.125ZM695.236 183V172.818H696.409V176.577H696.509C696.595 176.444 696.714 176.275 696.867 176.07C697.022 175.861 697.244 175.675 697.533 175.513C697.824 175.347 698.219 175.264 698.716 175.264C699.359 175.264 699.926 175.425 700.416 175.746C700.907 176.068 701.29 176.524 701.565 177.114C701.84 177.704 701.977 178.4 701.977 179.202C701.977 180.01 701.84 180.711 701.565 181.305C701.29 181.895 700.908 182.352 700.421 182.677C699.934 182.998 699.372 183.159 698.736 183.159C698.245 183.159 697.853 183.078 697.558 182.915C697.263 182.75 697.036 182.562 696.877 182.354C696.717 182.142 696.595 181.966 696.509 181.827H696.369V183H695.236ZM696.389 179.182C696.389 179.759 696.474 180.267 696.643 180.708C696.812 181.146 697.059 181.489 697.384 181.737C697.708 181.982 698.106 182.105 698.577 182.105C699.067 182.105 699.477 181.976 699.805 181.717C700.136 181.455 700.385 181.104 700.551 180.663C700.72 180.219 700.804 179.725 700.804 179.182C700.804 178.645 700.721 178.161 700.555 177.73C700.393 177.296 700.146 176.953 699.815 176.701C699.487 176.446 699.074 176.318 698.577 176.318C698.1 176.318 697.698 176.439 697.374 176.681C697.049 176.92 696.804 177.254 696.638 177.685C696.472 178.113 696.389 178.612 696.389 179.182ZM706.974 183.159C706.238 183.159 705.603 182.997 705.07 182.672C704.539 182.344 704.13 181.886 703.842 181.3C703.557 180.71 703.414 180.024 703.414 179.241C703.414 178.459 703.557 177.77 703.842 177.173C704.13 176.573 704.531 176.106 705.045 175.771C705.562 175.433 706.165 175.264 706.854 175.264C707.252 175.264 707.645 175.33 708.033 175.463C708.421 175.596 708.774 175.811 709.092 176.109C709.41 176.404 709.663 176.795 709.852 177.283C710.041 177.77 710.136 178.37 710.136 179.082V179.58H704.249V178.565H708.943C708.943 178.134 708.856 177.75 708.684 177.412C708.515 177.074 708.273 176.807 707.958 176.612C707.647 176.416 707.279 176.318 706.854 176.318C706.387 176.318 705.983 176.434 705.641 176.666C705.303 176.895 705.043 177.193 704.861 177.561C704.679 177.929 704.587 178.323 704.587 178.744V179.42C704.587 179.997 704.687 180.486 704.886 180.887C705.088 181.285 705.368 181.588 705.726 181.797C706.084 182.002 706.5 182.105 706.974 182.105C707.282 182.105 707.56 182.062 707.809 181.976C708.061 181.886 708.278 181.754 708.46 181.578C708.643 181.399 708.783 181.177 708.883 180.912L710.016 181.23C709.897 181.615 709.697 181.953 709.415 182.244C709.133 182.533 708.785 182.758 708.371 182.92C707.957 183.08 707.491 183.159 706.974 183.159ZM713.094 172.818V183H711.921V172.818H713.094Z" fill="white" fill-opacity="0.7"/>
</g>
<rect x="661.204" y="192" width="2" height="24" fill="#8F8F8F"/>
<path d="M669.204 230C669.204 233.866 666.07 237 662.204 237C658.338 237 655.204 233.866 655.204 230C655.204 226.134 658.338 223 662.204 223C666.07 223 669.204 226.134 669.204 230Z" stroke="#64B4FA" stroke-width="2"/>
<g clip-path="url(#clip3_2029_12133)">
<path d="M679.472 235V224.818H680.705V233.906H685.438V235H679.472ZM689.435 235.179C688.951 235.179 688.512 235.088 688.118 234.906C687.723 234.72 687.41 234.453 687.178 234.105C686.946 233.754 686.83 233.33 686.83 232.832C686.83 232.395 686.916 232.04 687.089 231.768C687.261 231.493 687.491 231.278 687.78 231.122C688.068 230.966 688.386 230.85 688.734 230.774C689.086 230.695 689.439 230.632 689.793 230.585C690.257 230.526 690.633 230.481 690.922 230.451C691.213 230.418 691.426 230.363 691.558 230.287C691.694 230.211 691.762 230.078 691.762 229.889V229.849C691.762 229.359 691.628 228.978 691.359 228.706C691.094 228.434 690.691 228.298 690.151 228.298C689.591 228.298 689.152 228.421 688.834 228.666C688.516 228.911 688.292 229.173 688.163 229.452L687.049 229.054C687.248 228.59 687.513 228.229 687.844 227.97C688.179 227.708 688.544 227.526 688.938 227.423C689.336 227.317 689.727 227.264 690.111 227.264C690.357 227.264 690.638 227.294 690.957 227.354C691.278 227.41 691.588 227.528 691.886 227.707C692.188 227.886 692.438 228.156 692.637 228.517C692.836 228.878 692.935 229.362 692.935 229.969V235H691.762V233.966H691.702C691.623 234.132 691.49 234.309 691.305 234.498C691.119 234.687 690.872 234.848 690.564 234.98C690.256 235.113 689.879 235.179 689.435 235.179ZM689.614 234.125C690.078 234.125 690.469 234.034 690.788 233.852C691.109 233.669 691.351 233.434 691.513 233.146C691.679 232.857 691.762 232.554 691.762 232.236V231.162C691.712 231.222 691.603 231.276 691.434 231.326C691.268 231.372 691.076 231.414 690.857 231.45C690.642 231.483 690.431 231.513 690.226 231.54C690.024 231.563 689.86 231.583 689.734 231.599C689.429 231.639 689.144 231.704 688.878 231.793C688.617 231.879 688.405 232.01 688.242 232.186C688.083 232.358 688.003 232.594 688.003 232.892C688.003 233.3 688.154 233.608 688.456 233.817C688.761 234.022 689.147 234.125 689.614 234.125ZM695.236 235V224.818H696.409V228.577H696.509C696.595 228.444 696.714 228.275 696.867 228.07C697.022 227.861 697.244 227.675 697.533 227.513C697.824 227.347 698.219 227.264 698.716 227.264C699.359 227.264 699.926 227.425 700.416 227.746C700.907 228.068 701.29 228.524 701.565 229.114C701.84 229.704 701.977 230.4 701.977 231.202C701.977 232.01 701.84 232.711 701.565 233.305C701.29 233.895 700.908 234.352 700.421 234.677C699.934 234.998 699.372 235.159 698.736 235.159C698.245 235.159 697.853 235.078 697.558 234.915C697.263 234.75 697.036 234.562 696.877 234.354C696.717 234.142 696.595 233.966 696.509 233.827H696.369V235H695.236ZM696.389 231.182C696.389 231.759 696.474 232.267 696.643 232.708C696.812 233.146 697.059 233.489 697.384 233.737C697.708 233.982 698.106 234.105 698.577 234.105C699.067 234.105 699.477 233.976 699.805 233.717C700.136 233.455 700.385 233.104 700.551 232.663C700.72 232.219 700.804 231.725 700.804 231.182C700.804 230.645 700.721 230.161 700.555 229.73C700.393 229.296 700.146 228.953 699.815 228.701C699.487 228.446 699.074 228.318 698.577 228.318C698.1 228.318 697.698 228.439 697.374 228.681C697.049 228.92 696.804 229.254 696.638 229.685C696.472 230.113 696.389 230.612 696.389 231.182ZM706.974 235.159C706.238 235.159 705.603 234.997 705.07 234.672C704.539 234.344 704.13 233.886 703.842 233.3C703.557 232.71 703.414 232.024 703.414 231.241C703.414 230.459 703.557 229.77 703.842 229.173C704.13 228.573 704.531 228.106 705.045 227.771C705.562 227.433 706.165 227.264 706.854 227.264C707.252 227.264 707.645 227.33 708.033 227.463C708.421 227.596 708.774 227.811 709.092 228.109C709.41 228.404 709.663 228.795 709.852 229.283C710.041 229.77 710.136 230.37 710.136 231.082V231.58H704.249V230.565H708.943C708.943 230.134 708.856 229.75 708.684 229.412C708.515 229.074 708.273 228.807 707.958 228.612C707.647 228.416 707.279 228.318 706.854 228.318C706.387 228.318 705.983 228.434 705.641 228.666C705.303 228.895 705.043 229.193 704.861 229.561C704.679 229.929 704.587 230.323 704.587 230.744V231.42C704.587 231.997 704.687 232.486 704.886 232.887C705.088 233.285 705.368 233.588 705.726 233.797C706.084 234.002 706.5 234.105 706.974 234.105C707.282 234.105 707.56 234.062 707.809 233.976C708.061 233.886 708.278 233.754 708.46 233.578C708.643 233.399 708.783 233.177 708.883 232.912L710.016 233.23C709.897 233.615 709.697 233.953 709.415 234.244C709.133 234.533 708.785 234.758 708.371 234.92C707.957 235.08 707.491 235.159 706.974 235.159ZM713.094 224.818V235H711.921V224.818H713.094Z" fill="white" fill-opacity="0.7"/>
</g>
<rect x="661.204" y="244" width="2" height="24" fill="#8F8F8F"/>
<path d="M669.204 282C669.204 285.866 666.07 289 662.204 289C658.338 289 655.204 285.866 655.204 282C655.204 278.134 658.338 275 662.204 275C666.07 275 669.204 278.134 669.204 282Z" stroke="#64B4FA" stroke-width="2"/>
<g clip-path="url(#clip4_2029_12133)">
<path d="M679.472 287V276.818H680.705V285.906H685.438V287H679.472ZM689.435 287.179C688.951 287.179 688.512 287.088 688.118 286.906C687.723 286.72 687.41 286.453 687.178 286.105C686.946 285.754 686.83 285.33 686.83 284.832C686.83 284.395 686.916 284.04 687.089 283.768C687.261 283.493 687.491 283.278 687.78 283.122C688.068 282.966 688.386 282.85 688.734 282.774C689.086 282.695 689.439 282.632 689.793 282.585C690.257 282.526 690.633 282.481 690.922 282.451C691.213 282.418 691.426 282.363 691.558 282.287C691.694 282.211 691.762 282.078 691.762 281.889V281.849C691.762 281.359 691.628 280.978 691.359 280.706C691.094 280.434 690.691 280.298 690.151 280.298C689.591 280.298 689.152 280.421 688.834 280.666C688.516 280.911 688.292 281.173 688.163 281.452L687.049 281.054C687.248 280.59 687.513 280.229 687.844 279.97C688.179 279.708 688.544 279.526 688.938 279.423C689.336 279.317 689.727 279.264 690.111 279.264C690.357 279.264 690.638 279.294 690.957 279.354C691.278 279.41 691.588 279.528 691.886 279.707C692.188 279.886 692.438 280.156 692.637 280.517C692.836 280.878 692.935 281.362 692.935 281.969V287H691.762V285.966H691.702C691.623 286.132 691.49 286.309 691.305 286.498C691.119 286.687 690.872 286.848 690.564 286.98C690.256 287.113 689.879 287.179 689.435 287.179ZM689.614 286.125C690.078 286.125 690.469 286.034 690.788 285.852C691.109 285.669 691.351 285.434 691.513 285.146C691.679 284.857 691.762 284.554 691.762 284.236V283.162C691.712 283.222 691.603 283.276 691.434 283.326C691.268 283.372 691.076 283.414 690.857 283.45C690.642 283.483 690.431 283.513 690.226 283.54C690.024 283.563 689.86 283.583 689.734 283.599C689.429 283.639 689.144 283.704 688.878 283.793C688.617 283.879 688.405 284.01 688.242 284.186C688.083 284.358 688.003 284.594 688.003 284.892C688.003 285.3 688.154 285.608 688.456 285.817C688.761 286.022 689.147 286.125 689.614 286.125ZM695.236 287V276.818H696.409V280.577H696.509C696.595 280.444 696.714 280.275 696.867 280.07C697.022 279.861 697.244 279.675 697.533 279.513C697.824 279.347 698.219 279.264 698.716 279.264C699.359 279.264 699.926 279.425 700.416 279.746C700.907 280.068 701.29 280.524 701.565 281.114C701.84 281.704 701.977 282.4 701.977 283.202C701.977 284.01 701.84 284.711 701.565 285.305C701.29 285.895 700.908 286.352 700.421 286.677C699.934 286.998 699.372 287.159 698.736 287.159C698.245 287.159 697.853 287.078 697.558 286.915C697.263 286.75 697.036 286.562 696.877 286.354C696.717 286.142 696.595 285.966 696.509 285.827H696.369V287H695.236ZM696.389 283.182C696.389 283.759 696.474 284.267 696.643 284.708C696.812 285.146 697.059 285.489 697.384 285.737C697.708 285.982 698.106 286.105 698.577 286.105C699.067 286.105 699.477 285.976 699.805 285.717C700.136 285.455 700.385 285.104 700.551 284.663C700.72 284.219 700.804 283.725 700.804 283.182C700.804 282.645 700.721 282.161 700.555 281.73C700.393 281.296 700.146 280.953 699.815 280.701C699.487 280.446 699.074 280.318 698.577 280.318C698.1 280.318 697.698 280.439 697.374 280.681C697.049 280.92 696.804 281.254 696.638 281.685C696.472 282.113 696.389 282.612 696.389 283.182ZM706.974 287.159C706.238 287.159 705.603 286.997 705.07 286.672C704.539 286.344 704.13 285.886 703.842 285.3C703.557 284.71 703.414 284.024 703.414 283.241C703.414 282.459 703.557 281.77 703.842 281.173C704.13 280.573 704.531 280.106 705.045 279.771C705.562 279.433 706.165 279.264 706.854 279.264C707.252 279.264 707.645 279.33 708.033 279.463C708.421 279.596 708.774 279.811 709.092 280.109C709.41 280.404 709.663 280.795 709.852 281.283C710.041 281.77 710.136 282.37 710.136 283.082V283.58H704.249V282.565H708.943C708.943 282.134 708.856 281.75 708.684 281.412C708.515 281.074 708.273 280.807 707.958 280.612C707.647 280.416 707.279 280.318 706.854 280.318C706.387 280.318 705.983 280.434 705.641 280.666C705.303 280.895 705.043 281.193 704.861 281.561C704.679 281.929 704.587 282.323 704.587 282.744V283.42C704.587 283.997 704.687 284.486 704.886 284.887C705.088 285.285 705.368 285.588 705.726 285.797C706.084 286.002 706.5 286.105 706.974 286.105C707.282 286.105 707.56 286.062 707.809 285.976C708.061 285.886 708.278 285.754 708.46 285.578C708.643 285.399 708.783 285.177 708.883 284.912L710.016 285.23C709.897 285.615 709.697 285.953 709.415 286.244C709.133 286.533 708.785 286.758 708.371 286.92C707.957 287.08 707.491 287.159 706.974 287.159ZM713.094 276.818V287H711.921V276.818H713.094Z" fill="white" fill-opacity="0.7"/>
</g>
<rect x="661.204" y="296" width="2" height="24" fill="#8F8F8F"/>
<path d="M669.204 334C669.204 337.866 666.07 341 662.204 341C658.338 341 655.204 337.866 655.204 334C655.204 330.134 658.338 327 662.204 327C666.07 327 669.204 330.134 669.204 334Z" stroke="#64B4FA" stroke-width="2"/>
<g clip-path="url(#clip5_2029_12133)">
<path d="M679.472 339V328.818H680.705V337.906H685.438V339H679.472ZM689.435 339.179C688.951 339.179 688.512 339.088 688.118 338.906C687.723 338.72 687.41 338.453 687.178 338.105C686.946 337.754 686.83 337.33 686.83 336.832C686.83 336.395 686.916 336.04 687.089 335.768C687.261 335.493 687.491 335.278 687.78 335.122C688.068 334.966 688.386 334.85 688.734 334.774C689.086 334.695 689.439 334.632 689.793 334.585C690.257 334.526 690.633 334.481 690.922 334.451C691.213 334.418 691.426 334.363 691.558 334.287C691.694 334.211 691.762 334.078 691.762 333.889V333.849C691.762 333.359 691.628 332.978 691.359 332.706C691.094 332.434 690.691 332.298 690.151 332.298C689.591 332.298 689.152 332.421 688.834 332.666C688.516 332.911 688.292 333.173 688.163 333.452L687.049 333.054C687.248 332.59 687.513 332.229 687.844 331.97C688.179 331.708 688.544 331.526 688.938 331.423C689.336 331.317 689.727 331.264 690.111 331.264C690.357 331.264 690.638 331.294 690.957 331.354C691.278 331.41 691.588 331.528 691.886 331.707C692.188 331.886 692.438 332.156 692.637 332.517C692.836 332.878 692.935 333.362 692.935 333.969V339H691.762V337.966H691.702C691.623 338.132 691.49 338.309 691.305 338.498C691.119 338.687 690.872 338.848 690.564 338.98C690.256 339.113 689.879 339.179 689.435 339.179ZM689.614 338.125C690.078 338.125 690.469 338.034 690.788 337.852C691.109 337.669 691.351 337.434 691.513 337.146C691.679 336.857 691.762 336.554 691.762 336.236V335.162C691.712 335.222 691.603 335.276 691.434 335.326C691.268 335.372 691.076 335.414 690.857 335.45C690.642 335.483 690.431 335.513 690.226 335.54C690.024 335.563 689.86 335.583 689.734 335.599C689.429 335.639 689.144 335.704 688.878 335.793C688.617 335.879 688.405 336.01 688.242 336.186C688.083 336.358 688.003 336.594 688.003 336.892C688.003 337.3 688.154 337.608 688.456 337.817C688.761 338.022 689.147 338.125 689.614 338.125ZM695.236 339V328.818H696.409V332.577H696.509C696.595 332.444 696.714 332.275 696.867 332.07C697.022 331.861 697.244 331.675 697.533 331.513C697.824 331.347 698.219 331.264 698.716 331.264C699.359 331.264 699.926 331.425 700.416 331.746C700.907 332.068 701.29 332.524 701.565 333.114C701.84 333.704 701.977 334.4 701.977 335.202C701.977 336.01 701.84 336.711 701.565 337.305C701.29 337.895 700.908 338.352 700.421 338.677C699.934 338.998 699.372 339.159 698.736 339.159C698.245 339.159 697.853 339.078 697.558 338.915C697.263 338.75 697.036 338.562 696.877 338.354C696.717 338.142 696.595 337.966 696.509 337.827H696.369V339H695.236ZM696.389 335.182C696.389 335.759 696.474 336.267 696.643 336.708C696.812 337.146 697.059 337.489 697.384 337.737C697.708 337.982 698.106 338.105 698.577 338.105C699.067 338.105 699.477 337.976 699.805 337.717C700.136 337.455 700.385 337.104 700.551 336.663C700.72 336.219 700.804 335.725 700.804 335.182C700.804 334.645 700.721 334.161 700.555 333.73C700.393 333.296 700.146 332.953 699.815 332.701C699.487 332.446 699.074 332.318 698.577 332.318C698.1 332.318 697.698 332.439 697.374 332.681C697.049 332.92 696.804 333.254 696.638 333.685C696.472 334.113 696.389 334.612 696.389 335.182ZM706.974 339.159C706.238 339.159 705.603 338.997 705.07 338.672C704.539 338.344 704.13 337.886 703.842 337.3C703.557 336.71 703.414 336.024 703.414 335.241C703.414 334.459 703.557 333.77 703.842 333.173C704.13 332.573 704.531 332.106 705.045 331.771C705.562 331.433 706.165 331.264 706.854 331.264C707.252 331.264 707.645 331.33 708.033 331.463C708.421 331.596 708.774 331.811 709.092 332.109C709.41 332.404 709.663 332.795 709.852 333.283C710.041 333.77 710.136 334.37 710.136 335.082V335.58H704.249V334.565H708.943C708.943 334.134 708.856 333.75 708.684 333.412C708.515 333.074 708.273 332.807 707.958 332.612C707.647 332.416 707.279 332.318 706.854 332.318C706.387 332.318 705.983 332.434 705.641 332.666C705.303 332.895 705.043 333.193 704.861 333.561C704.679 333.929 704.587 334.323 704.587 334.744V335.42C704.587 335.997 704.687 336.486 704.886 336.887C705.088 337.285 705.368 337.588 705.726 337.797C706.084 338.002 706.5 338.105 706.974 338.105C707.282 338.105 707.56 338.062 707.809 337.976C708.061 337.886 708.278 337.754 708.46 337.578C708.643 337.399 708.783 337.177 708.883 336.912L710.016 337.23C709.897 337.615 709.697 337.953 709.415 338.244C709.133 338.533 708.785 338.758 708.371 338.92C707.957 339.08 707.491 339.159 706.974 339.159ZM713.094 328.818V339H711.921V328.818H713.094Z" fill="white" fill-opacity="0.7"/>
</g>
<path d="M600.046 126H640.046" stroke="#DA0087"/>
<path d="M648.046 126L640.046 122V130L648.046 126Z" fill="#DA0087"/>
<rect x="478.046" y="112" width="130" height="28" rx="14" fill="#DA0087"/>
<path d="M497.819 123.273C497.75 122.697 497.474 122.25 496.989 121.932C496.504 121.614 495.91 121.455 495.205 121.455C494.69 121.455 494.239 121.538 493.853 121.705C493.47 121.871 493.171 122.1 492.955 122.392C492.743 122.684 492.637 123.015 492.637 123.386C492.637 123.697 492.711 123.964 492.858 124.188C493.01 124.407 493.203 124.591 493.438 124.739C493.673 124.883 493.919 125.002 494.177 125.097C494.434 125.187 494.671 125.261 494.887 125.318L496.069 125.636C496.372 125.716 496.709 125.826 497.08 125.966C497.455 126.106 497.813 126.297 498.154 126.54C498.499 126.778 498.783 127.085 499.006 127.46C499.23 127.835 499.341 128.295 499.341 128.841C499.341 129.47 499.177 130.038 498.847 130.545C498.521 131.053 498.044 131.456 497.415 131.756C496.79 132.055 496.031 132.205 495.137 132.205C494.303 132.205 493.582 132.07 492.972 131.801C492.366 131.532 491.889 131.157 491.54 130.676C491.196 130.195 491 129.636 490.955 129H492.41C492.447 129.439 492.595 129.803 492.853 130.091C493.114 130.375 493.444 130.587 493.841 130.727C494.243 130.864 494.675 130.932 495.137 130.932C495.675 130.932 496.158 130.845 496.586 130.67C497.014 130.492 497.353 130.246 497.603 129.932C497.853 129.614 497.978 129.242 497.978 128.818C497.978 128.432 497.87 128.117 497.654 127.875C497.438 127.633 497.154 127.436 496.802 127.284C496.449 127.133 496.069 127 495.66 126.886L494.228 126.477C493.319 126.216 492.599 125.843 492.069 125.358C491.538 124.873 491.273 124.239 491.273 123.455C491.273 122.803 491.449 122.235 491.802 121.75C492.158 121.261 492.635 120.883 493.233 120.614C493.836 120.341 494.508 120.205 495.25 120.205C496 120.205 496.667 120.339 497.25 120.608C497.834 120.873 498.296 121.237 498.637 121.699C498.982 122.161 499.163 122.686 499.182 123.273H497.819ZM505.272 123.273V124.409H500.749V123.273H505.272ZM502.067 121.182H503.408V129.5C503.408 129.879 503.463 130.163 503.573 130.352C503.687 130.538 503.83 130.663 504.005 130.727C504.183 130.788 504.37 130.818 504.567 130.818C504.715 130.818 504.836 130.811 504.931 130.795C505.026 130.777 505.101 130.761 505.158 130.75L505.431 131.955C505.34 131.989 505.213 132.023 505.05 132.057C504.887 132.095 504.681 132.114 504.431 132.114C504.052 132.114 503.681 132.032 503.317 131.869C502.957 131.706 502.658 131.458 502.419 131.125C502.185 130.792 502.067 130.371 502.067 129.864V121.182ZM510.854 132.182C510.013 132.182 509.288 131.996 508.678 131.625C508.072 131.25 507.604 130.727 507.275 130.057C506.949 129.383 506.786 128.598 506.786 127.705C506.786 126.811 506.949 126.023 507.275 125.341C507.604 124.655 508.062 124.121 508.65 123.739C509.241 123.352 509.93 123.159 510.718 123.159C511.172 123.159 511.621 123.235 512.064 123.386C512.508 123.538 512.911 123.784 513.275 124.125C513.638 124.462 513.928 124.909 514.144 125.466C514.36 126.023 514.468 126.708 514.468 127.523V128.091H507.741V126.932H513.104C513.104 126.439 513.006 126 512.809 125.614C512.616 125.227 512.339 124.922 511.979 124.699C511.623 124.475 511.203 124.364 510.718 124.364C510.184 124.364 509.722 124.496 509.331 124.761C508.945 125.023 508.648 125.364 508.439 125.784C508.231 126.205 508.127 126.655 508.127 127.136V127.909C508.127 128.568 508.241 129.127 508.468 129.585C508.699 130.04 509.019 130.386 509.428 130.625C509.837 130.86 510.312 130.977 510.854 130.977C511.206 130.977 511.525 130.928 511.809 130.83C512.097 130.727 512.345 130.576 512.553 130.375C512.761 130.17 512.922 129.917 513.036 129.614L514.331 129.977C514.195 130.417 513.966 130.803 513.644 131.136C513.322 131.466 512.924 131.723 512.451 131.909C511.977 132.091 511.445 132.182 510.854 132.182ZM516.508 135.273V123.273H517.803V124.659H517.962C518.061 124.508 518.197 124.314 518.371 124.08C518.549 123.841 518.803 123.629 519.133 123.443C519.466 123.254 519.917 123.159 520.485 123.159C521.22 123.159 521.867 123.343 522.428 123.71C522.989 124.078 523.426 124.598 523.741 125.273C524.055 125.947 524.212 126.742 524.212 127.659C524.212 128.583 524.055 129.384 523.741 130.062C523.426 130.737 522.991 131.259 522.434 131.631C521.877 131.998 521.235 132.182 520.508 132.182C519.947 132.182 519.498 132.089 519.161 131.903C518.824 131.714 518.564 131.5 518.383 131.261C518.201 131.019 518.061 130.818 517.962 130.659H517.848V135.273H516.508ZM517.826 127.636C517.826 128.295 517.922 128.877 518.116 129.381C518.309 129.881 518.591 130.273 518.962 130.557C519.333 130.837 519.788 130.977 520.326 130.977C520.886 130.977 521.354 130.83 521.729 130.534C522.108 130.235 522.392 129.833 522.581 129.33C522.775 128.822 522.871 128.258 522.871 127.636C522.871 127.023 522.776 126.47 522.587 125.977C522.401 125.481 522.119 125.089 521.741 124.801C521.366 124.509 520.894 124.364 520.326 124.364C519.78 124.364 519.322 124.502 518.951 124.778C518.58 125.051 518.299 125.434 518.11 125.926C517.92 126.415 517.826 126.985 517.826 127.636ZM532.348 120.364V132H530.939V120.364H532.348ZM536.333 126.75V132H534.992V123.273H536.287V124.636H536.401C536.606 124.193 536.916 123.837 537.333 123.568C537.749 123.295 538.287 123.159 538.946 123.159C539.537 123.159 540.054 123.28 540.498 123.523C540.941 123.761 541.285 124.125 541.532 124.614C541.778 125.098 541.901 125.712 541.901 126.455V132H540.56V126.545C540.56 125.86 540.382 125.326 540.026 124.943C539.67 124.557 539.181 124.364 538.56 124.364C538.132 124.364 537.749 124.456 537.412 124.642C537.079 124.828 536.816 125.098 536.623 125.455C536.429 125.811 536.333 126.242 536.333 126.75ZM547.647 132.182C546.919 132.182 546.277 131.998 545.721 131.631C545.164 131.259 544.728 130.737 544.414 130.062C544.099 129.384 543.942 128.583 543.942 127.659C543.942 126.742 544.099 125.947 544.414 125.273C544.728 124.598 545.166 124.078 545.726 123.71C546.287 123.343 546.935 123.159 547.669 123.159C548.238 123.159 548.687 123.254 549.016 123.443C549.349 123.629 549.603 123.841 549.777 124.08C549.955 124.314 550.094 124.508 550.192 124.659H550.306V120.364H551.647V132H550.351V130.659H550.192C550.094 130.818 549.954 131.019 549.772 131.261C549.59 131.5 549.33 131.714 548.993 131.903C548.656 132.089 548.207 132.182 547.647 132.182ZM547.829 130.977C548.366 130.977 548.821 130.837 549.192 130.557C549.563 130.273 549.846 129.881 550.039 129.381C550.232 128.877 550.329 128.295 550.329 127.636C550.329 126.985 550.234 126.415 550.044 125.926C549.855 125.434 549.575 125.051 549.204 124.778C548.832 124.502 548.374 124.364 547.829 124.364C547.26 124.364 546.787 124.509 546.408 124.801C546.033 125.089 545.751 125.481 545.562 125.977C545.376 126.47 545.283 127.023 545.283 127.636C545.283 128.258 545.378 128.822 545.567 129.33C545.76 129.833 546.044 130.235 546.419 130.534C546.798 130.83 547.268 130.977 547.829 130.977ZM554.289 132V123.273H555.63V132H554.289ZM554.971 121.818C554.709 121.818 554.484 121.729 554.294 121.551C554.109 121.373 554.016 121.159 554.016 120.909C554.016 120.659 554.109 120.445 554.294 120.267C554.484 120.089 554.709 120 554.971 120C555.232 120 555.455 120.089 555.641 120.267C555.83 120.445 555.925 120.659 555.925 120.909C555.925 121.159 555.83 121.373 555.641 121.551C555.455 121.729 555.232 121.818 554.971 121.818ZM561.631 132.182C560.813 132.182 560.108 131.989 559.517 131.602C558.927 131.216 558.472 130.684 558.154 130.006C557.836 129.328 557.677 128.553 557.677 127.682C557.677 126.795 557.839 126.013 558.165 125.335C558.495 124.653 558.953 124.121 559.54 123.739C560.131 123.352 560.821 123.159 561.608 123.159C562.222 123.159 562.775 123.273 563.267 123.5C563.76 123.727 564.163 124.045 564.478 124.455C564.792 124.864 564.987 125.341 565.063 125.886H563.722C563.62 125.489 563.392 125.136 563.04 124.83C562.692 124.519 562.222 124.364 561.631 124.364C561.108 124.364 560.65 124.5 560.256 124.773C559.866 125.042 559.561 125.422 559.341 125.915C559.125 126.403 559.017 126.977 559.017 127.636C559.017 128.311 559.124 128.898 559.336 129.398C559.552 129.898 559.855 130.286 560.245 130.562C560.639 130.839 561.101 130.977 561.631 130.977C561.98 130.977 562.296 130.917 562.58 130.795C562.864 130.674 563.105 130.5 563.302 130.273C563.499 130.045 563.639 129.773 563.722 129.455H565.063C564.987 129.97 564.8 130.434 564.5 130.847C564.205 131.256 563.813 131.581 563.324 131.824C562.839 132.062 562.275 132.182 561.631 132.182ZM569.591 132.205C569.038 132.205 568.536 132.1 568.086 131.892C567.635 131.68 567.277 131.375 567.012 130.977C566.747 130.576 566.614 130.091 566.614 129.523C566.614 129.023 566.713 128.617 566.91 128.307C567.107 127.992 567.37 127.746 567.699 127.568C568.029 127.39 568.392 127.258 568.79 127.17C569.192 127.08 569.595 127.008 570 126.955C570.531 126.886 570.961 126.835 571.29 126.801C571.624 126.763 571.866 126.701 572.017 126.614C572.173 126.527 572.25 126.375 572.25 126.159V126.114C572.25 125.553 572.097 125.117 571.79 124.807C571.487 124.496 571.027 124.341 570.41 124.341C569.769 124.341 569.267 124.481 568.904 124.761C568.54 125.042 568.285 125.341 568.137 125.659L566.864 125.205C567.091 124.674 567.394 124.261 567.773 123.966C568.156 123.667 568.572 123.458 569.023 123.341C569.478 123.22 569.925 123.159 570.364 123.159C570.644 123.159 570.966 123.193 571.33 123.261C571.697 123.326 572.052 123.46 572.392 123.665C572.737 123.869 573.023 124.178 573.25 124.591C573.478 125.004 573.591 125.557 573.591 126.25V132H572.25V130.818H572.182C572.091 131.008 571.94 131.21 571.728 131.426C571.516 131.642 571.233 131.826 570.881 131.977C570.529 132.129 570.099 132.205 569.591 132.205ZM569.796 131C570.326 131 570.773 130.896 571.137 130.688C571.504 130.479 571.781 130.21 571.966 129.881C572.156 129.551 572.25 129.205 572.25 128.841V127.614C572.194 127.682 572.069 127.744 571.875 127.801C571.686 127.854 571.466 127.902 571.216 127.943C570.97 127.981 570.73 128.015 570.495 128.045C570.264 128.072 570.076 128.095 569.932 128.114C569.584 128.159 569.258 128.233 568.955 128.335C568.656 128.434 568.413 128.583 568.228 128.784C568.046 128.981 567.955 129.25 567.955 129.591C567.955 130.057 568.127 130.409 568.472 130.648C568.821 130.883 569.262 131 569.796 131ZM579.834 123.273V124.409H575.312V123.273H579.834ZM576.63 121.182H577.971V129.5C577.971 129.879 578.026 130.163 578.135 130.352C578.249 130.538 578.393 130.663 578.567 130.727C578.745 130.788 578.933 130.818 579.13 130.818C579.277 130.818 579.399 130.811 579.493 130.795C579.588 130.777 579.664 130.761 579.721 130.75L579.993 131.955C579.902 131.989 579.776 132.023 579.613 132.057C579.45 132.095 579.243 132.114 578.993 132.114C578.615 132.114 578.243 132.032 577.88 131.869C577.52 131.706 577.221 131.458 576.982 131.125C576.747 130.792 576.63 130.371 576.63 129.864V121.182ZM585.303 132.182C584.515 132.182 583.824 131.994 583.229 131.619C582.638 131.244 582.176 130.72 581.843 130.045C581.513 129.371 581.348 128.583 581.348 127.682C581.348 126.773 581.513 125.979 581.843 125.301C582.176 124.623 582.638 124.097 583.229 123.722C583.824 123.347 584.515 123.159 585.303 123.159C586.091 123.159 586.78 123.347 587.371 123.722C587.966 124.097 588.428 124.623 588.758 125.301C589.091 125.979 589.258 126.773 589.258 127.682C589.258 128.583 589.091 129.371 588.758 130.045C588.428 130.72 587.966 131.244 587.371 131.619C586.78 131.994 586.091 132.182 585.303 132.182ZM585.303 130.977C585.901 130.977 586.394 130.824 586.78 130.517C587.167 130.21 587.453 129.807 587.638 129.307C587.824 128.807 587.917 128.265 587.917 127.682C587.917 127.098 587.824 126.555 587.638 126.051C587.453 125.547 587.167 125.14 586.78 124.83C586.394 124.519 585.901 124.364 585.303 124.364C584.705 124.364 584.212 124.519 583.826 124.83C583.439 125.14 583.153 125.547 582.968 126.051C582.782 126.555 582.689 127.098 582.689 127.682C582.689 128.265 582.782 128.807 582.968 129.307C583.153 129.807 583.439 130.21 583.826 130.517C584.212 130.824 584.705 130.977 585.303 130.977ZM591.304 132V123.273H592.6V124.591H592.691C592.85 124.159 593.138 123.809 593.554 123.54C593.971 123.271 594.441 123.136 594.964 123.136C595.062 123.136 595.185 123.138 595.333 123.142C595.481 123.146 595.592 123.152 595.668 123.159V124.523C595.623 124.511 595.518 124.494 595.356 124.472C595.196 124.445 595.028 124.432 594.85 124.432C594.426 124.432 594.047 124.521 593.714 124.699C593.384 124.873 593.123 125.116 592.929 125.426C592.74 125.733 592.645 126.083 592.645 126.477V132H591.304Z" fill="white" fill-opacity="0.95"/>
<path d="M733.138 100H676.138" stroke="#DA0087"/>
<path d="M668.138 100L676.138 96V104L668.138 100Z" fill="#DA0087"/>
<rect x="725.138" y="86" width="113" height="28" rx="14" fill="#DA0087"/>
<path d="M744.91 97.2727C744.842 96.697 744.566 96.25 744.081 95.9318C743.596 95.6136 743.001 95.4545 742.297 95.4545C741.782 95.4545 741.331 95.5379 740.945 95.7045C740.562 95.8712 740.263 96.1004 740.047 96.392C739.835 96.6837 739.729 97.0152 739.729 97.3864C739.729 97.697 739.802 97.964 739.95 98.1875C740.102 98.4072 740.295 98.5909 740.53 98.7386C740.765 98.8826 741.011 99.0019 741.268 99.0966C741.526 99.1875 741.763 99.2614 741.979 99.3182L743.16 99.6364C743.463 99.7159 743.801 99.8258 744.172 99.9659C744.547 100.106 744.905 100.297 745.246 100.54C745.59 100.778 745.874 101.085 746.098 101.46C746.321 101.835 746.433 102.295 746.433 102.841C746.433 103.47 746.268 104.038 745.939 104.545C745.613 105.053 745.136 105.456 744.507 105.756C743.882 106.055 743.123 106.205 742.229 106.205C741.395 106.205 740.674 106.07 740.064 105.801C739.458 105.532 738.98 105.157 738.632 104.676C738.287 104.195 738.092 103.636 738.047 103H739.501C739.539 103.439 739.687 103.803 739.945 104.091C740.206 104.375 740.535 104.587 740.933 104.727C741.335 104.864 741.766 104.932 742.229 104.932C742.766 104.932 743.249 104.845 743.677 104.67C744.105 104.492 744.445 104.246 744.695 103.932C744.945 103.614 745.07 103.242 745.07 102.818C745.07 102.432 744.962 102.117 744.746 101.875C744.53 101.633 744.246 101.436 743.893 101.284C743.541 101.133 743.16 101 742.751 100.886L741.32 100.477C740.41 100.216 739.691 99.8428 739.16 99.358C738.63 98.8731 738.365 98.2386 738.365 97.4545C738.365 96.803 738.541 96.2348 738.893 95.75C739.249 95.2614 739.727 94.8826 740.325 94.6136C740.927 94.3409 741.6 94.2045 742.342 94.2045C743.092 94.2045 743.759 94.339 744.342 94.608C744.926 94.8731 745.388 95.2367 745.729 95.6989C746.073 96.161 746.255 96.6856 746.274 97.2727H744.91ZM752.364 97.2727V98.4091H747.841V97.2727H752.364ZM749.159 95.1818H750.5V103.5C750.5 103.879 750.555 104.163 750.665 104.352C750.778 104.538 750.922 104.663 751.097 104.727C751.275 104.788 751.462 104.818 751.659 104.818C751.807 104.818 751.928 104.811 752.023 104.795C752.117 104.777 752.193 104.761 752.25 104.75L752.523 105.955C752.432 105.989 752.305 106.023 752.142 106.057C751.979 106.095 751.773 106.114 751.523 106.114C751.144 106.114 750.773 106.032 750.409 105.869C750.049 105.706 749.75 105.458 749.511 105.125C749.276 104.792 749.159 104.371 749.159 103.864V95.1818ZM757.946 106.182C757.105 106.182 756.38 105.996 755.77 105.625C755.164 105.25 754.696 104.727 754.366 104.057C754.041 103.383 753.878 102.598 753.878 101.705C753.878 100.811 754.041 100.023 754.366 99.3409C754.696 98.6553 755.154 98.1212 755.741 97.7386C756.332 97.3523 757.022 97.1591 757.81 97.1591C758.264 97.1591 758.713 97.2348 759.156 97.3864C759.599 97.5379 760.003 97.7841 760.366 98.125C760.73 98.4621 761.02 98.9091 761.236 99.4659C761.452 100.023 761.56 100.708 761.56 101.523V102.091H754.832V100.932H760.196C760.196 100.439 760.097 100 759.9 99.6136C759.707 99.2273 759.431 98.9223 759.071 98.6989C758.715 98.4754 758.294 98.3636 757.81 98.3636C757.275 98.3636 756.813 98.4962 756.423 98.7614C756.037 99.0227 755.739 99.3636 755.531 99.7841C755.323 100.205 755.219 100.655 755.219 101.136V101.909C755.219 102.568 755.332 103.127 755.56 103.585C755.791 104.04 756.111 104.386 756.52 104.625C756.929 104.86 757.404 104.977 757.946 104.977C758.298 104.977 758.616 104.928 758.9 104.83C759.188 104.727 759.436 104.576 759.645 104.375C759.853 104.17 760.014 103.917 760.128 103.614L761.423 103.977C761.287 104.417 761.058 104.803 760.736 105.136C760.414 105.466 760.016 105.723 759.543 105.909C759.069 106.091 758.537 106.182 757.946 106.182ZM763.599 109.273V97.2727H764.895V98.6591H765.054C765.152 98.5076 765.289 98.3144 765.463 98.0795C765.641 97.8409 765.895 97.6288 766.224 97.4432C766.558 97.2538 767.008 97.1591 767.577 97.1591C768.311 97.1591 768.959 97.3428 769.52 97.7102C770.08 98.0777 770.518 98.5985 770.832 99.2727C771.147 99.947 771.304 100.742 771.304 101.659C771.304 102.583 771.147 103.384 770.832 104.062C770.518 104.737 770.082 105.259 769.525 105.631C768.969 105.998 768.327 106.182 767.599 106.182C767.039 106.182 766.59 106.089 766.253 105.903C765.916 105.714 765.656 105.5 765.474 105.261C765.293 105.019 765.152 104.818 765.054 104.659H764.94V109.273H763.599ZM764.918 101.636C764.918 102.295 765.014 102.877 765.207 103.381C765.4 103.881 765.683 104.273 766.054 104.557C766.425 104.837 766.88 104.977 767.418 104.977C767.978 104.977 768.446 104.83 768.821 104.534C769.2 104.235 769.484 103.833 769.673 103.33C769.866 102.822 769.963 102.258 769.963 101.636C769.963 101.023 769.868 100.47 769.679 99.9773C769.493 99.4811 769.211 99.089 768.832 98.8011C768.457 98.5095 767.986 98.3636 767.418 98.3636C766.872 98.3636 766.414 98.5019 766.043 98.7784C765.671 99.0511 765.391 99.4337 765.202 99.9261C765.012 100.415 764.918 100.985 764.918 101.636ZM778.031 106V94.3636H779.372V98.6591H779.486C779.584 98.5076 779.721 98.3144 779.895 98.0795C780.073 97.8409 780.327 97.6288 780.656 97.4432C780.989 97.2538 781.44 97.1591 782.008 97.1591C782.743 97.1591 783.391 97.3428 783.952 97.7102C784.512 98.0777 784.95 98.5985 785.264 99.2727C785.579 99.947 785.736 100.742 785.736 101.659C785.736 102.583 785.579 103.384 785.264 104.062C784.95 104.737 784.514 105.259 783.957 105.631C783.4 105.998 782.758 106.182 782.031 106.182C781.471 106.182 781.022 106.089 780.685 105.903C780.347 105.714 780.088 105.5 779.906 105.261C779.724 105.019 779.584 104.818 779.486 104.659H779.327V106H778.031ZM779.349 101.636C779.349 102.295 779.446 102.877 779.639 103.381C779.832 103.881 780.114 104.273 780.486 104.557C780.857 104.837 781.311 104.977 781.849 104.977C782.41 104.977 782.878 104.83 783.253 104.534C783.632 104.235 783.916 103.833 784.105 103.33C784.298 102.822 784.395 102.258 784.395 101.636C784.395 101.023 784.3 100.47 784.111 99.9773C783.925 99.4811 783.643 99.089 783.264 98.8011C782.889 98.5095 782.418 98.3636 781.849 98.3636C781.304 98.3636 780.846 98.5019 780.474 98.7784C780.103 99.0511 779.823 99.4337 779.633 99.9261C779.444 100.415 779.349 100.985 779.349 101.636ZM787.787 106V97.2727H789.082V98.5909H789.173C789.332 98.1591 789.62 97.8087 790.037 97.5398C790.454 97.2708 790.923 97.1364 791.446 97.1364C791.544 97.1364 791.668 97.1383 791.815 97.142C791.963 97.1458 792.075 97.1515 792.15 97.1591V98.5227C792.105 98.5114 792.001 98.4943 791.838 98.4716C791.679 98.4451 791.51 98.4318 791.332 98.4318C790.908 98.4318 790.529 98.5208 790.196 98.6989C789.866 98.8731 789.605 99.1155 789.412 99.4261C789.222 99.733 789.128 100.083 789.128 100.477V106H787.787ZM793.74 106V97.2727H795.081V106H793.74ZM794.422 95.8182C794.16 95.8182 793.935 95.7292 793.746 95.5511C793.56 95.3731 793.467 95.1591 793.467 94.9091C793.467 94.6591 793.56 94.4451 793.746 94.267C793.935 94.089 794.16 94 794.422 94C794.683 94 794.907 94.089 795.092 94.267C795.282 94.4451 795.376 94.6591 795.376 94.9091C795.376 95.1591 795.282 95.3731 795.092 95.5511C794.907 95.7292 794.683 95.8182 794.422 95.8182ZM800.832 106.182C800.105 106.182 799.463 105.998 798.906 105.631C798.349 105.259 797.914 104.737 797.599 104.062C797.285 103.384 797.128 102.583 797.128 101.659C797.128 100.742 797.285 99.947 797.599 99.2727C797.914 98.5985 798.351 98.0777 798.912 97.7102C799.472 97.3428 800.12 97.1591 800.855 97.1591C801.423 97.1591 801.872 97.2538 802.202 97.4432C802.535 97.6288 802.789 97.8409 802.963 98.0795C803.141 98.3144 803.279 98.5076 803.378 98.6591H803.491V94.3636H804.832V106H803.537V104.659H803.378C803.279 104.818 803.139 105.019 802.957 105.261C802.775 105.5 802.516 105.714 802.179 105.903C801.842 106.089 801.393 106.182 800.832 106.182ZM801.014 104.977C801.552 104.977 802.007 104.837 802.378 104.557C802.749 104.273 803.031 103.881 803.224 103.381C803.418 102.877 803.514 102.295 803.514 101.636C803.514 100.985 803.419 100.415 803.23 99.9261C803.041 99.4337 802.76 99.0511 802.389 98.7784C802.018 98.5019 801.56 98.3636 801.014 98.3636C800.446 98.3636 799.972 98.5095 799.594 98.8011C799.219 99.089 798.936 99.4811 798.747 99.9773C798.561 100.47 798.469 101.023 798.469 101.636C798.469 102.258 798.563 102.822 798.753 103.33C798.946 103.833 799.23 104.235 799.605 104.534C799.984 104.83 800.454 104.977 801.014 104.977ZM810.997 109.455C810.349 109.455 809.793 109.371 809.327 109.205C808.861 109.042 808.472 108.826 808.162 108.557C807.855 108.292 807.611 108.008 807.429 107.705L808.497 106.955C808.618 107.114 808.772 107.295 808.957 107.5C809.143 107.708 809.397 107.888 809.719 108.04C810.044 108.195 810.471 108.273 810.997 108.273C811.702 108.273 812.283 108.102 812.741 107.761C813.2 107.42 813.429 106.886 813.429 106.159V104.386H813.315C813.217 104.545 813.077 104.742 812.895 104.977C812.717 105.208 812.459 105.415 812.122 105.597C811.789 105.775 811.338 105.864 810.77 105.864C810.065 105.864 809.433 105.697 808.872 105.364C808.315 105.03 807.874 104.545 807.548 103.909C807.226 103.273 807.065 102.5 807.065 101.591C807.065 100.697 807.222 99.9186 807.537 99.2557C807.851 98.589 808.289 98.0739 808.849 97.7102C809.41 97.3428 810.058 97.1591 810.793 97.1591C811.361 97.1591 811.811 97.2538 812.145 97.4432C812.482 97.6288 812.739 97.8409 812.918 98.0795C813.099 98.3144 813.239 98.5076 813.338 98.6591H813.474V97.2727H814.77V106.25C814.77 107 814.599 107.61 814.258 108.08C813.921 108.553 813.467 108.9 812.895 109.119C812.327 109.343 811.694 109.455 810.997 109.455ZM810.952 104.659C811.489 104.659 811.944 104.536 812.315 104.29C812.686 104.044 812.969 103.689 813.162 103.227C813.355 102.765 813.452 102.212 813.452 101.568C813.452 100.939 813.357 100.384 813.168 99.9034C812.978 99.4223 812.698 99.0455 812.327 98.7727C811.955 98.5 811.497 98.3636 810.952 98.3636C810.383 98.3636 809.91 98.5076 809.531 98.7955C809.156 99.0833 808.874 99.4697 808.685 99.9545C808.499 100.439 808.406 100.977 808.406 101.568C808.406 102.174 808.501 102.71 808.69 103.176C808.883 103.638 809.168 104.002 809.543 104.267C809.921 104.528 810.391 104.659 810.952 104.659ZM820.883 106.182C820.043 106.182 819.317 105.996 818.707 105.625C818.101 105.25 817.633 104.727 817.304 104.057C816.978 103.383 816.815 102.598 816.815 101.705C816.815 100.811 816.978 100.023 817.304 99.3409C817.633 98.6553 818.092 98.1212 818.679 97.7386C819.27 97.3523 819.959 97.1591 820.747 97.1591C821.202 97.1591 821.65 97.2348 822.094 97.3864C822.537 97.5379 822.94 97.7841 823.304 98.125C823.668 98.4621 823.957 98.9091 824.173 99.4659C824.389 100.023 824.497 100.708 824.497 101.523V102.091H817.77V100.932H823.133C823.133 100.439 823.035 100 822.838 99.6136C822.645 99.2273 822.368 98.9223 822.008 98.6989C821.652 98.4754 821.232 98.3636 820.747 98.3636C820.213 98.3636 819.751 98.4962 819.361 98.7614C818.974 99.0227 818.677 99.3636 818.469 99.7841C818.26 100.205 818.156 100.655 818.156 101.136V101.909C818.156 102.568 818.27 103.127 818.497 103.585C818.728 104.04 819.048 104.386 819.457 104.625C819.866 104.86 820.342 104.977 820.883 104.977C821.236 104.977 821.554 104.928 821.838 104.83C822.126 104.727 822.374 104.576 822.582 104.375C822.791 104.17 822.952 103.917 823.065 103.614L824.361 103.977C824.224 104.417 823.995 104.803 823.673 105.136C823.351 105.466 822.954 105.723 822.48 105.909C822.007 106.091 821.474 106.182 820.883 106.182Z" fill="white" fill-opacity="0.95"/>
<path d="M742.954 178H727.954" stroke="#DA0087"/>
<path d="M719.954 178L727.954 174V182L719.954 178Z" fill="#DA0087"/>
<rect x="734.954" y="164" width="105" height="28" rx="14" fill="#DA0087"/>
<path d="M754.727 175.273C754.659 174.697 754.382 174.25 753.897 173.932C753.412 173.614 752.818 173.455 752.113 173.455C751.598 173.455 751.147 173.538 750.761 173.705C750.378 173.871 750.079 174.1 749.863 174.392C749.651 174.684 749.545 175.015 749.545 175.386C749.545 175.697 749.619 175.964 749.767 176.188C749.918 176.407 750.111 176.591 750.346 176.739C750.581 176.883 750.827 177.002 751.085 177.097C751.342 177.187 751.579 177.261 751.795 177.318L752.977 177.636C753.28 177.716 753.617 177.826 753.988 177.966C754.363 178.106 754.721 178.297 755.062 178.54C755.407 178.778 755.691 179.085 755.914 179.46C756.138 179.835 756.25 180.295 756.25 180.841C756.25 181.47 756.085 182.038 755.755 182.545C755.429 183.053 754.952 183.456 754.323 183.756C753.698 184.055 752.939 184.205 752.045 184.205C751.212 184.205 750.49 184.07 749.88 183.801C749.274 183.532 748.797 183.157 748.448 182.676C748.104 182.195 747.909 181.636 747.863 181H749.318C749.356 181.439 749.503 181.803 749.761 182.091C750.022 182.375 750.352 182.587 750.75 182.727C751.151 182.864 751.583 182.932 752.045 182.932C752.583 182.932 753.066 182.845 753.494 182.67C753.922 182.492 754.261 182.246 754.511 181.932C754.761 181.614 754.886 181.242 754.886 180.818C754.886 180.432 754.778 180.117 754.562 179.875C754.346 179.633 754.062 179.436 753.71 179.284C753.358 179.133 752.977 179 752.568 178.886L751.136 178.477C750.227 178.216 749.507 177.843 748.977 177.358C748.447 176.873 748.181 176.239 748.181 175.455C748.181 174.803 748.358 174.235 748.71 173.75C749.066 173.261 749.543 172.883 750.142 172.614C750.744 172.341 751.416 172.205 752.159 172.205C752.909 172.205 753.575 172.339 754.159 172.608C754.742 172.873 755.204 173.237 755.545 173.699C755.89 174.161 756.072 174.686 756.09 175.273H754.727ZM762.18 175.273V176.409H757.657V175.273H762.18ZM758.975 173.182H760.316V181.5C760.316 181.879 760.371 182.163 760.481 182.352C760.595 182.538 760.739 182.663 760.913 182.727C761.091 182.788 761.278 182.818 761.475 182.818C761.623 182.818 761.744 182.811 761.839 182.795C761.934 182.777 762.009 182.761 762.066 182.75L762.339 183.955C762.248 183.989 762.121 184.023 761.958 184.057C761.795 184.095 761.589 184.114 761.339 184.114C760.96 184.114 760.589 184.032 760.225 183.869C759.866 183.706 759.566 183.458 759.328 183.125C759.093 182.792 758.975 182.371 758.975 181.864V173.182ZM767.762 184.182C766.921 184.182 766.196 183.996 765.586 183.625C764.98 183.25 764.512 182.727 764.183 182.057C763.857 181.383 763.694 180.598 763.694 179.705C763.694 178.811 763.857 178.023 764.183 177.341C764.512 176.655 764.971 176.121 765.558 175.739C766.149 175.352 766.838 175.159 767.626 175.159C768.081 175.159 768.529 175.235 768.973 175.386C769.416 175.538 769.819 175.784 770.183 176.125C770.546 176.462 770.836 176.909 771.052 177.466C771.268 178.023 771.376 178.708 771.376 179.523V180.091H764.649V178.932H770.012C770.012 178.439 769.914 178 769.717 177.614C769.524 177.227 769.247 176.922 768.887 176.699C768.531 176.475 768.111 176.364 767.626 176.364C767.092 176.364 766.63 176.496 766.24 176.761C765.853 177.023 765.556 177.364 765.348 177.784C765.139 178.205 765.035 178.655 765.035 179.136V179.909C765.035 180.568 765.149 181.127 765.376 181.585C765.607 182.04 765.927 182.386 766.336 182.625C766.745 182.86 767.221 182.977 767.762 182.977C768.115 182.977 768.433 182.928 768.717 182.83C769.005 182.727 769.253 182.576 769.461 182.375C769.67 182.17 769.831 181.917 769.944 181.614L771.24 181.977C771.103 182.417 770.874 182.803 770.552 183.136C770.23 183.466 769.832 183.723 769.359 183.909C768.885 184.091 768.353 184.182 767.762 184.182ZM773.416 187.273V175.273H774.711V176.659H774.87C774.969 176.508 775.105 176.314 775.279 176.08C775.457 175.841 775.711 175.629 776.041 175.443C776.374 175.254 776.825 175.159 777.393 175.159C778.128 175.159 778.776 175.343 779.336 175.71C779.897 176.078 780.334 176.598 780.649 177.273C780.963 177.947 781.12 178.742 781.12 179.659C781.12 180.583 780.963 181.384 780.649 182.062C780.334 182.737 779.899 183.259 779.342 183.631C778.785 183.998 778.143 184.182 777.416 184.182C776.855 184.182 776.406 184.089 776.069 183.903C775.732 183.714 775.473 183.5 775.291 183.261C775.109 183.019 774.969 182.818 774.87 182.659H774.757V187.273H773.416ZM774.734 179.636C774.734 180.295 774.831 180.877 775.024 181.381C775.217 181.881 775.499 182.273 775.87 182.557C776.242 182.837 776.696 182.977 777.234 182.977C777.795 182.977 778.262 182.83 778.637 182.534C779.016 182.235 779.3 181.833 779.49 181.33C779.683 180.822 779.779 180.258 779.779 179.636C779.779 179.023 779.685 178.47 779.495 177.977C779.31 177.481 779.027 177.089 778.649 176.801C778.274 176.509 777.802 176.364 777.234 176.364C776.688 176.364 776.23 176.502 775.859 176.778C775.488 177.051 775.207 177.434 775.018 177.926C774.829 178.415 774.734 178.985 774.734 179.636ZM787.848 184V172.364H789.257V182.75H794.666V184H787.848ZM799.234 184.205C798.681 184.205 798.179 184.1 797.728 183.892C797.277 183.68 796.92 183.375 796.654 182.977C796.389 182.576 796.257 182.091 796.257 181.523C796.257 181.023 796.355 180.617 796.552 180.307C796.749 179.992 797.012 179.746 797.342 179.568C797.671 179.39 798.035 179.258 798.433 179.17C798.834 179.08 799.238 179.008 799.643 178.955C800.173 178.886 800.603 178.835 800.933 178.801C801.266 178.763 801.509 178.701 801.66 178.614C801.815 178.527 801.893 178.375 801.893 178.159V178.114C801.893 177.553 801.74 177.117 801.433 176.807C801.13 176.496 800.67 176.341 800.052 176.341C799.412 176.341 798.91 176.481 798.546 176.761C798.183 177.042 797.927 177.341 797.779 177.659L796.507 177.205C796.734 176.674 797.037 176.261 797.416 175.966C797.798 175.667 798.215 175.458 798.666 175.341C799.12 175.22 799.567 175.159 800.007 175.159C800.287 175.159 800.609 175.193 800.973 175.261C801.34 175.326 801.694 175.46 802.035 175.665C802.38 175.869 802.666 176.178 802.893 176.591C803.12 177.004 803.234 177.557 803.234 178.25V184H801.893V182.818H801.825C801.734 183.008 801.582 183.21 801.37 183.426C801.158 183.642 800.876 183.826 800.524 183.977C800.171 184.129 799.742 184.205 799.234 184.205ZM799.438 183C799.969 183 800.416 182.896 800.779 182.688C801.147 182.479 801.423 182.21 801.609 181.881C801.798 181.551 801.893 181.205 801.893 180.841V179.614C801.836 179.682 801.711 179.744 801.518 179.801C801.329 179.854 801.109 179.902 800.859 179.943C800.613 179.981 800.372 180.015 800.137 180.045C799.906 180.072 799.719 180.095 799.575 180.114C799.226 180.159 798.901 180.233 798.598 180.335C798.298 180.434 798.056 180.583 797.87 180.784C797.688 180.981 797.598 181.25 797.598 181.591C797.598 182.057 797.77 182.409 798.115 182.648C798.463 182.883 798.904 183 799.438 183ZM805.863 184V172.364H807.204V176.659H807.318C807.416 176.508 807.553 176.314 807.727 176.08C807.905 175.841 808.159 175.629 808.488 175.443C808.822 175.254 809.272 175.159 809.84 175.159C810.575 175.159 811.223 175.343 811.784 175.71C812.344 176.078 812.782 176.598 813.096 177.273C813.411 177.947 813.568 178.742 813.568 179.659C813.568 180.583 813.411 181.384 813.096 182.062C812.782 182.737 812.346 183.259 811.789 183.631C811.233 183.998 810.59 184.182 809.863 184.182C809.303 184.182 808.854 184.089 808.517 183.903C808.179 183.714 807.92 183.5 807.738 183.261C807.556 183.019 807.416 182.818 807.318 182.659H807.159V184H805.863ZM807.181 179.636C807.181 180.295 807.278 180.877 807.471 181.381C807.664 181.881 807.947 182.273 808.318 182.557C808.689 182.837 809.143 182.977 809.681 182.977C810.242 182.977 810.71 182.83 811.085 182.534C811.464 182.235 811.748 181.833 811.937 181.33C812.13 180.822 812.227 180.258 812.227 179.636C812.227 179.023 812.132 178.47 811.943 177.977C811.757 177.481 811.475 177.089 811.096 176.801C810.721 176.509 810.25 176.364 809.681 176.364C809.136 176.364 808.678 176.502 808.306 176.778C807.935 177.051 807.655 177.434 807.465 177.926C807.276 178.415 807.181 178.985 807.181 179.636ZM819.278 184.182C818.437 184.182 817.712 183.996 817.102 183.625C816.496 183.25 816.028 182.727 815.698 182.057C815.373 181.383 815.21 180.598 815.21 179.705C815.21 178.811 815.373 178.023 815.698 177.341C816.028 176.655 816.486 176.121 817.073 175.739C817.664 175.352 818.354 175.159 819.142 175.159C819.596 175.159 820.045 175.235 820.488 175.386C820.931 175.538 821.335 175.784 821.698 176.125C822.062 176.462 822.352 176.909 822.568 177.466C822.784 178.023 822.892 178.708 822.892 179.523V180.091H816.164V178.932H821.528C821.528 178.439 821.429 178 821.233 177.614C821.039 177.227 820.763 176.922 820.403 176.699C820.047 176.475 819.626 176.364 819.142 176.364C818.608 176.364 818.145 176.496 817.755 176.761C817.369 177.023 817.072 177.364 816.863 177.784C816.655 178.205 816.551 178.655 816.551 179.136V179.909C816.551 180.568 816.664 181.127 816.892 181.585C817.123 182.04 817.443 182.386 817.852 182.625C818.261 182.86 818.736 182.977 819.278 182.977C819.63 182.977 819.948 182.928 820.233 182.83C820.52 182.727 820.768 182.576 820.977 182.375C821.185 182.17 821.346 181.917 821.46 181.614L822.755 181.977C822.619 182.417 822.39 182.803 822.068 183.136C821.746 183.466 821.348 183.723 820.875 183.909C820.401 184.091 819.869 184.182 819.278 184.182ZM826.272 172.364V184H824.931V172.364H826.272Z" fill="white" fill-opacity="0.95"/>
<defs>
<clipPath id="clip0_2029_12133">
<rect width="36" height="20" fill="white" transform="translate(678.204 64)"/>
</clipPath>
<clipPath id="clip1_2029_12133">
<rect width="36" height="20" fill="white" transform="translate(678.204 116)"/>
</clipPath>
<clipPath id="clip2_2029_12133">
<rect width="36" height="20" fill="white" transform="translate(678.204 168)"/>
</clipPath>
<clipPath id="clip3_2029_12133">
<rect width="36" height="20" fill="white" transform="translate(678.204 220)"/>
</clipPath>
<clipPath id="clip4_2029_12133">
<rect width="36" height="20" fill="white" transform="translate(678.204 272)"/>
</clipPath>
<clipPath id="clip5_2029_12133">
<rect width="36" height="20" fill="white" transform="translate(678.204 324)"/>
</clipPath>
</defs>
</svg>
