<svg width="1090" height="65" viewBox="0 0 1090 65" fill="none" xmlns="http://www.w3.org/2000/svg">
<rect width="1090" height="64.4522" fill="black"/>
<rect x="995.218" y="13.2696" width="72.3654" height="37.913" rx="18.9408" fill="white" fill-opacity="0.95"/>
<path d="M1021.22 30.2881H1019.54C1019.48 29.9291 1019.36 29.6132 1019.18 29.3403C1019.01 29.0675 1018.79 28.8359 1018.54 28.6456C1018.28 28.4553 1018 28.3117 1017.68 28.2148C1017.37 28.1178 1017.04 28.0694 1016.68 28.0694C1016.05 28.0694 1015.48 28.2291 1014.98 28.5487C1014.48 28.8682 1014.08 29.3367 1013.79 29.9542C1013.51 30.5718 1013.36 31.3257 1013.36 32.2161C1013.36 33.1137 1013.51 33.8712 1013.79 34.4887C1014.08 35.1063 1014.48 35.573 1014.98 35.8889C1015.49 36.2049 1016.05 36.3628 1016.68 36.3628C1017.03 36.3628 1017.36 36.3162 1017.67 36.2228C1017.99 36.1259 1018.27 35.9841 1018.53 35.7974C1018.78 35.6107 1019 35.3827 1019.17 35.1134C1019.35 34.8406 1019.48 34.5282 1019.54 34.1764L1021.22 34.1818C1021.13 34.7239 1020.96 35.2229 1020.7 35.6789C1020.45 36.1313 1020.12 36.5226 1019.72 36.8529C1019.32 37.1796 1018.86 37.4327 1018.35 37.6122C1017.83 37.7918 1017.27 37.8815 1016.67 37.8815C1015.71 37.8815 1014.86 37.6553 1014.12 37.203C1013.37 36.747 1012.78 36.0954 1012.35 35.2481C1011.92 34.4008 1011.71 33.3901 1011.71 32.2161C1011.71 31.0385 1011.92 30.0278 1012.35 29.1841C1012.79 28.3368 1013.37 27.687 1014.12 27.2346C1014.87 26.7787 1015.72 26.5507 1016.67 26.5507C1017.25 26.5507 1017.8 26.6351 1018.31 26.8038C1018.82 26.969 1019.27 27.2131 1019.68 27.5362C1020.08 27.8557 1020.42 28.2471 1020.69 28.7102C1020.95 29.1698 1021.13 29.6957 1021.22 30.2881ZM1024.7 26.7015V37.7307H1023.09V26.7015H1024.7ZM1030.35 37.8977C1029.57 37.8977 1028.89 37.72 1028.32 37.3645C1027.74 37.0091 1027.29 36.5118 1026.97 35.8728C1026.65 35.2337 1026.49 34.4869 1026.49 33.6325C1026.49 32.7744 1026.65 32.024 1026.97 31.3814C1027.29 30.7387 1027.74 30.2397 1028.32 29.8842C1028.89 29.5288 1029.57 29.3511 1030.35 29.3511C1031.12 29.3511 1031.8 29.5288 1032.38 29.8842C1032.96 30.2397 1033.4 30.7387 1033.72 31.3814C1034.04 32.024 1034.2 32.7744 1034.2 33.6325C1034.2 34.4869 1034.04 35.2337 1033.72 35.8728C1033.4 36.5118 1032.96 37.0091 1032.38 37.3645C1031.8 37.72 1031.12 37.8977 1030.35 37.8977ZM1030.35 36.5459C1030.85 36.5459 1031.27 36.4131 1031.6 36.1474C1031.93 35.8817 1032.18 35.5281 1032.33 35.0865C1032.5 34.6449 1032.58 34.1584 1032.58 33.6271C1032.58 33.0993 1032.5 32.6146 1032.33 32.173C1032.18 31.7278 1031.93 31.3706 1031.6 31.1013C1031.27 30.8321 1030.85 30.6974 1030.35 30.6974C1029.85 30.6974 1029.43 30.8321 1029.09 31.1013C1028.76 31.3706 1028.52 31.7278 1028.35 32.173C1028.2 32.6146 1028.12 33.0993 1028.12 33.6271C1028.12 34.1584 1028.2 34.6449 1028.35 35.0865C1028.52 35.5281 1028.76 35.8817 1029.09 36.1474C1029.43 36.4131 1029.85 36.5459 1030.35 36.5459ZM1042.2 31.4783L1040.74 31.7368C1040.68 31.5501 1040.58 31.3724 1040.45 31.2037C1040.32 31.0349 1040.14 30.8967 1039.92 30.789C1039.7 30.6813 1039.42 30.6274 1039.09 30.6274C1038.63 30.6274 1038.25 30.7297 1037.94 30.9344C1037.64 31.1354 1037.49 31.3957 1037.49 31.7153C1037.49 31.9917 1037.59 32.2143 1037.79 32.383C1038 32.5518 1038.33 32.69 1038.78 32.7977L1040.1 33.0993C1040.86 33.2752 1041.43 33.5463 1041.8 33.9125C1042.17 34.2787 1042.36 34.7544 1042.36 35.3396C1042.36 35.8351 1042.22 36.2767 1041.93 36.6644C1041.65 37.0486 1041.25 37.3502 1040.74 37.5692C1040.23 37.7882 1039.65 37.8977 1038.98 37.8977C1038.05 37.8977 1037.3 37.7002 1036.71 37.3053C1036.13 36.9068 1035.77 36.3413 1035.63 35.6089L1037.19 35.3719C1037.29 35.7776 1037.49 36.0846 1037.79 36.2928C1038.09 36.4975 1038.48 36.5998 1038.97 36.5998C1039.5 36.5998 1039.92 36.4903 1040.23 36.2713C1040.55 36.0487 1040.71 35.7776 1040.71 35.4581C1040.71 35.1996 1040.61 34.9824 1040.42 34.8065C1040.23 34.6305 1039.93 34.4977 1039.54 34.408L1038.14 34.101C1037.37 33.9251 1036.8 33.645 1036.43 33.2609C1036.06 32.8767 1035.88 32.3902 1035.88 31.8014C1035.88 31.3132 1036.01 30.8859 1036.29 30.5197C1036.56 30.1535 1036.94 29.8681 1037.42 29.6634C1037.9 29.4552 1038.45 29.3511 1039.07 29.3511C1039.96 29.3511 1040.67 29.545 1041.18 29.9327C1041.69 30.3169 1042.03 30.8321 1042.2 31.4783ZM1047.7 37.8977C1046.88 37.8977 1046.18 37.7235 1045.59 37.3753C1045.01 37.0234 1044.55 36.5298 1044.23 35.8943C1043.92 35.2553 1043.76 34.5067 1043.76 33.6486C1043.76 32.8013 1043.92 32.0545 1044.23 31.4083C1044.55 30.7621 1045 30.2576 1045.57 29.895C1046.14 29.5324 1046.81 29.3511 1047.58 29.3511C1048.05 29.3511 1048.5 29.4283 1048.94 29.5827C1049.38 29.737 1049.77 29.9794 1050.12 30.3097C1050.47 30.64 1050.74 31.069 1050.94 31.5968C1051.14 32.121 1051.24 32.7582 1051.24 33.5086V34.0794H1044.67V32.8731H1049.67C1049.67 32.4495 1049.58 32.0743 1049.41 31.7476C1049.24 31.4173 1048.99 31.157 1048.68 30.9667C1048.37 30.7764 1048.01 30.6813 1047.59 30.6813C1047.14 30.6813 1046.75 30.7926 1046.41 31.0152C1046.07 31.2342 1045.82 31.5214 1045.63 31.8768C1045.45 32.2287 1045.36 32.611 1045.36 33.0239V33.9664C1045.36 34.5192 1045.46 34.9896 1045.65 35.3773C1045.85 35.7651 1046.13 36.0613 1046.48 36.2659C1046.83 36.467 1047.24 36.5675 1047.71 36.5675C1048.02 36.5675 1048.3 36.5244 1048.55 36.4382C1048.8 36.3485 1049.02 36.2156 1049.2 36.0397C1049.38 35.8638 1049.52 35.6466 1049.62 35.3881L1051.14 35.6627C1051.02 36.1115 1050.8 36.5047 1050.49 36.8421C1050.17 37.176 1049.78 37.4363 1049.31 37.623C1048.84 37.8061 1048.3 37.8977 1047.7 37.8977Z" fill="black" fill-opacity="0.95"/>
</svg>
