<svg width="300" height="94" viewBox="0 0 300 94" fill="none" xmlns="http://www.w3.org/2000/svg">
<mask id="path-1-inside-1_2029_9186" fill="white">
<path d="M0 0H300V94H0V0Z"/>
</mask>
<path d="M0 0H300V94H0V0Z" fill="#1A1A1A"/>
<path d="M300 94V95H301V94H300ZM299 0V94H301V0H299ZM300 93H0V95H300V93Z" fill="#707070" mask="url(#path-1-inside-1_2029_9186)"/>
<path d="M33.5227 39.4545V54H31.7614V39.4545H33.5227ZM38.5032 47.4375V54H36.8271V43.0909H38.4464V44.7955H38.5884C38.8441 44.2415 39.2324 43.7964 39.7532 43.4602C40.274 43.1193 40.9464 42.9489 41.7702 42.9489C42.5089 42.9489 43.1552 43.1004 43.7092 43.4034C44.2631 43.7017 44.694 44.1562 45.0018 44.767C45.3095 45.3731 45.4634 46.1402 45.4634 47.0682V54H43.7873V47.1818C43.7873 46.3248 43.5647 45.6572 43.1197 45.179C42.6746 44.696 42.0638 44.4545 41.2873 44.4545C40.7522 44.4545 40.274 44.5705 39.8526 44.8026C39.436 45.0346 39.1069 45.3731 38.8654 45.8182C38.6239 46.2633 38.5032 46.803 38.5032 47.4375ZM52.9581 54.2273C51.9354 54.2273 51.0547 53.9858 50.3161 53.5028C49.5774 53.0199 49.0092 52.3546 48.6115 51.5071C48.2138 50.6596 48.0149 49.6913 48.0149 48.6023C48.0149 47.4943 48.2185 46.5166 48.6257 45.669C49.0376 44.8168 49.6106 44.1515 50.3445 43.6733C51.0831 43.1903 51.9448 42.9489 52.9297 42.9489C53.6967 42.9489 54.388 43.0909 55.0036 43.375C55.6191 43.6591 56.1233 44.0568 56.5163 44.5682C56.9093 45.0795 57.1532 45.6761 57.2479 46.358H55.5717C55.4439 45.8608 55.1598 45.4205 54.7195 45.0369C54.2839 44.6487 53.6967 44.4545 52.9581 44.4545C52.3047 44.4545 51.7318 44.625 51.2393 44.9659C50.7517 45.3021 50.3705 45.7779 50.0959 46.3935C49.826 47.0043 49.6911 47.7216 49.6911 48.5455C49.6911 49.3883 49.8236 50.1222 50.0888 50.7472C50.3587 51.3722 50.7375 51.8575 51.2251 52.2031C51.7176 52.5488 52.2952 52.7216 52.9581 52.7216C53.3937 52.7216 53.7891 52.6458 54.1442 52.4943C54.4993 52.3428 54.8 52.125 55.0462 51.8409C55.2924 51.5568 55.4676 51.2159 55.5717 50.8182H57.2479C57.1532 51.4621 56.9188 52.0421 56.5447 52.5582C56.1754 53.0696 55.6854 53.4768 55.0746 53.7798C54.4685 54.0781 53.763 54.2273 52.9581 54.2273ZM64.13 54.2273C63.1451 54.2273 62.281 53.9929 61.5376 53.5241C60.799 53.0554 60.2214 52.3996 59.8047 51.5568C59.3928 50.714 59.1868 49.7292 59.1868 48.6023C59.1868 47.4659 59.3928 46.474 59.8047 45.6264C60.2214 44.7789 60.799 44.1207 61.5376 43.652C62.281 43.1832 63.1451 42.9489 64.13 42.9489C65.1148 42.9489 65.9766 43.1832 66.7152 43.652C67.4586 44.1207 68.0362 44.7789 68.4482 45.6264C68.8648 46.474 69.0732 47.4659 69.0732 48.6023C69.0732 49.7292 68.8648 50.714 68.4482 51.5568C68.0362 52.3996 67.4586 53.0554 66.7152 53.5241C65.9766 53.9929 65.1148 54.2273 64.13 54.2273ZM64.13 52.7216C64.8781 52.7216 65.4936 52.5298 65.9766 52.1463C66.4595 51.7628 66.817 51.2585 67.049 50.6335C67.281 50.0085 67.397 49.3314 67.397 48.6023C67.397 47.8731 67.281 47.1937 67.049 46.5639C66.817 45.9342 66.4595 45.4252 65.9766 45.0369C65.4936 44.6487 64.8781 44.4545 64.13 44.4545C63.3819 44.4545 62.7663 44.6487 62.2834 45.0369C61.8004 45.4252 61.4429 45.9342 61.2109 46.5639C60.9789 47.1937 60.8629 47.8731 60.8629 48.6023C60.8629 49.3314 60.9789 50.0085 61.2109 50.6335C61.4429 51.2585 61.8004 51.7628 62.2834 52.1463C62.7663 52.5298 63.3819 52.7216 64.13 52.7216ZM71.6317 54V43.0909H73.2511V44.7955H73.3931C73.6204 44.2131 73.9873 43.7609 74.494 43.4389C75.0006 43.1122 75.609 42.9489 76.3192 42.9489C77.0389 42.9489 77.6379 43.1122 78.1161 43.4389C78.5991 43.7609 78.9755 44.2131 79.2454 44.7955H79.359C79.6384 44.232 80.0574 43.7846 80.6161 43.4531C81.1748 43.117 81.8448 42.9489 82.6261 42.9489C83.6014 42.9489 84.3993 43.2543 85.0195 43.8651C85.6398 44.4711 85.9499 45.4157 85.9499 46.6989V54H84.2738V46.6989C84.2738 45.8939 84.0536 45.3187 83.6133 44.973C83.1729 44.6274 82.6545 44.4545 82.0579 44.4545C81.2908 44.4545 80.6966 44.6866 80.2752 45.1506C79.8538 45.6098 79.6431 46.1922 79.6431 46.8977V54H77.9386V46.5284C77.9386 45.9081 77.7373 45.4086 77.3349 45.0298C76.9324 44.6463 76.4139 44.4545 75.7795 44.4545C75.3439 44.4545 74.9367 44.5705 74.5579 44.8026C74.1838 45.0346 73.8808 45.3565 73.6488 45.7685C73.4215 46.1757 73.3079 46.6468 73.3079 47.1818V54H71.6317ZM89.0146 58.0909V43.0909H90.6339V44.8239H90.8327C90.9558 44.6345 91.1263 44.393 91.3441 44.0994C91.5666 43.8011 91.8839 43.536 92.2958 43.304C92.7125 43.0672 93.2759 42.9489 93.9862 42.9489C94.9047 42.9489 95.7144 43.1785 96.4151 43.6378C97.1159 44.0971 97.6628 44.7481 98.0558 45.5909C98.4487 46.4337 98.6452 47.428 98.6452 48.5739C98.6452 49.7292 98.4487 50.7306 98.0558 51.5781C97.6628 52.4209 97.1183 53.0743 96.4222 53.5384C95.7262 53.9976 94.9237 54.2273 94.0146 54.2273C93.3138 54.2273 92.7527 54.1113 92.3313 53.8793C91.9099 53.6425 91.5856 53.375 91.3583 53.0767C91.131 52.7737 90.9558 52.5227 90.8327 52.3239H90.6907V58.0909H89.0146ZM90.6623 48.5455C90.6623 49.3693 90.783 50.0961 91.0245 50.7259C91.266 51.3509 91.6187 51.8409 92.0827 52.196C92.5468 52.5464 93.1149 52.7216 93.7873 52.7216C94.488 52.7216 95.0728 52.5369 95.5415 52.1676C96.015 51.7936 96.3701 51.2917 96.6069 50.6619C96.8484 50.0275 96.9691 49.322 96.9691 48.5455C96.9691 47.7784 96.8507 47.0871 96.614 46.4716C96.382 45.8513 96.0292 45.3613 95.5558 45.0014C95.087 44.6368 94.4975 44.4545 93.7873 44.4545C93.1055 44.4545 92.5326 44.6274 92.0685 44.973C91.6045 45.3139 91.2541 45.7921 91.0174 46.4077C90.7807 47.0185 90.6623 47.7311 90.6623 48.5455ZM102.878 39.4545V54H101.202V39.4545H102.878ZM110.522 54.2273C109.471 54.2273 108.564 53.9953 107.802 53.5312C107.044 53.0625 106.46 52.4091 106.048 51.571C105.64 50.7282 105.437 49.7481 105.437 48.6307C105.437 47.5133 105.64 46.5284 106.048 45.6761C106.46 44.8191 107.032 44.1515 107.766 43.6733C108.505 43.1903 109.367 42.9489 110.352 42.9489C110.92 42.9489 111.481 43.0436 112.035 43.233C112.589 43.4223 113.093 43.7301 113.548 44.1562C114.002 44.5777 114.364 45.1364 114.634 45.8324C114.904 46.5284 115.039 47.3854 115.039 48.4034V49.1136H106.63V47.6648H113.335C113.335 47.0492 113.211 46.5 112.965 46.017C112.724 45.5341 112.378 45.1529 111.928 44.8736C111.483 44.5942 110.958 44.4545 110.352 44.4545C109.684 44.4545 109.106 44.6203 108.619 44.9517C108.136 45.2784 107.764 45.7045 107.504 46.2301C107.243 46.7557 107.113 47.3191 107.113 47.9205V48.8864C107.113 49.7102 107.255 50.4086 107.539 50.9815C107.828 51.5497 108.228 51.983 108.739 52.2812C109.251 52.5748 109.845 52.7216 110.522 52.7216C110.962 52.7216 111.36 52.66 111.715 52.5369C112.075 52.4091 112.385 52.2197 112.646 51.9688C112.906 51.7131 113.107 51.3958 113.249 51.017L114.869 51.4716C114.698 52.0208 114.412 52.5038 114.009 52.9205C113.607 53.3324 113.11 53.6544 112.518 53.8864C111.926 54.1136 111.261 54.2273 110.522 54.2273ZM122.333 43.0909V44.5114H116.68V43.0909H122.333ZM118.327 40.4773H120.004V50.875C120.004 51.3485 120.072 51.7036 120.21 51.9403C120.352 52.1723 120.531 52.3286 120.749 52.4091C120.972 52.4848 121.206 52.5227 121.452 52.5227C121.637 52.5227 121.789 52.5133 121.907 52.4943C122.025 52.4706 122.12 52.4517 122.191 52.4375L122.532 53.9432C122.418 53.9858 122.26 54.0284 122.056 54.071C121.853 54.1184 121.594 54.142 121.282 54.142C120.808 54.142 120.344 54.0402 119.89 53.8366C119.44 53.633 119.066 53.3229 118.768 52.9062C118.474 52.4896 118.327 51.964 118.327 51.3295V40.4773ZM129.311 54.2273C128.26 54.2273 127.353 53.9953 126.591 53.5312C125.833 53.0625 125.249 52.4091 124.837 51.571C124.429 50.7282 124.226 49.7481 124.226 48.6307C124.226 47.5133 124.429 46.5284 124.837 45.6761C125.249 44.8191 125.821 44.1515 126.555 43.6733C127.294 43.1903 128.156 42.9489 129.141 42.9489C129.709 42.9489 130.27 43.0436 130.824 43.233C131.378 43.4223 131.882 43.7301 132.337 44.1562C132.791 44.5777 133.153 45.1364 133.423 45.8324C133.693 46.5284 133.828 47.3854 133.828 48.4034V49.1136H125.419V47.6648H132.124C132.124 47.0492 132 46.5 131.754 46.017C131.513 45.5341 131.167 45.1529 130.717 44.8736C130.272 44.5942 129.747 44.4545 129.141 44.4545C128.473 44.4545 127.895 44.6203 127.408 44.9517C126.925 45.2784 126.553 45.7045 126.293 46.2301C126.032 46.7557 125.902 47.3191 125.902 47.9205V48.8864C125.902 49.7102 126.044 50.4086 126.328 50.9815C126.617 51.5497 127.017 51.983 127.528 52.2812C128.04 52.5748 128.634 52.7216 129.311 52.7216C129.751 52.7216 130.149 52.66 130.504 52.5369C130.864 52.4091 131.174 52.2197 131.435 51.9688C131.695 51.7131 131.896 51.3958 132.038 51.017L133.658 51.4716C133.487 52.0208 133.201 52.5038 132.798 52.9205C132.396 53.3324 131.899 53.6544 131.307 53.8864C130.715 54.1136 130.05 54.2273 129.311 54.2273Z" fill="white" fill-opacity="0.95"/>
</svg>
