<svg width="1300" height="309" viewBox="0 0 1300 309" fill="none" xmlns="http://www.w3.org/2000/svg">
<rect width="1300" height="309" rx="20" fill="#262626"/>
<path d="M211 147C211 150.866 207.866 154 204 154C200.134 154 197 150.866 197 147C197 143.134 200.134 140 204 140C207.866 140 211 143.134 211 147Z" stroke="#64B4FA" stroke-width="2"/>
<g clip-path="url(#clip0_2029_9317)">
<path d="M187.268 178V167.818H188.501V176.906H193.234V178H187.268ZM197.231 178.179C196.747 178.179 196.308 178.088 195.914 177.906C195.519 177.72 195.206 177.453 194.974 177.105C194.742 176.754 194.626 176.33 194.626 175.832C194.626 175.395 194.712 175.04 194.885 174.768C195.057 174.493 195.287 174.278 195.576 174.122C195.864 173.966 196.182 173.85 196.53 173.774C196.882 173.695 197.234 173.632 197.589 173.585C198.053 173.526 198.429 173.481 198.718 173.451C199.009 173.418 199.221 173.363 199.354 173.287C199.49 173.211 199.558 173.078 199.558 172.889V172.849C199.558 172.359 199.424 171.978 199.155 171.706C198.89 171.434 198.487 171.298 197.947 171.298C197.387 171.298 196.948 171.421 196.63 171.666C196.311 171.911 196.088 172.173 195.958 172.452L194.845 172.054C195.044 171.59 195.309 171.229 195.64 170.97C195.975 170.708 196.34 170.526 196.734 170.423C197.132 170.317 197.523 170.264 197.907 170.264C198.153 170.264 198.434 170.294 198.752 170.354C199.074 170.41 199.384 170.528 199.682 170.707C199.984 170.886 200.234 171.156 200.433 171.517C200.632 171.878 200.731 172.362 200.731 172.969V178H199.558V176.966H199.498C199.419 177.132 199.286 177.309 199.1 177.498C198.915 177.687 198.668 177.848 198.36 177.98C198.051 178.113 197.675 178.179 197.231 178.179ZM197.41 177.125C197.874 177.125 198.265 177.034 198.583 176.852C198.905 176.669 199.147 176.434 199.309 176.146C199.475 175.857 199.558 175.554 199.558 175.236V174.162C199.508 174.222 199.399 174.276 199.23 174.326C199.064 174.372 198.872 174.414 198.653 174.45C198.438 174.483 198.227 174.513 198.022 174.54C197.819 174.563 197.655 174.583 197.529 174.599C197.225 174.639 196.94 174.704 196.674 174.793C196.413 174.879 196.2 175.01 196.038 175.186C195.879 175.358 195.799 175.594 195.799 175.892C195.799 176.3 195.95 176.608 196.252 176.817C196.557 177.022 196.943 177.125 197.41 177.125ZM203.032 178V167.818H204.205V171.577H204.305C204.391 171.444 204.51 171.275 204.662 171.07C204.818 170.861 205.04 170.675 205.329 170.513C205.62 170.347 206.015 170.264 206.512 170.264C207.155 170.264 207.722 170.425 208.212 170.746C208.703 171.068 209.086 171.524 209.361 172.114C209.636 172.704 209.773 173.4 209.773 174.202C209.773 175.01 209.636 175.711 209.361 176.305C209.086 176.895 208.704 177.352 208.217 177.677C207.73 177.998 207.168 178.159 206.532 178.159C206.041 178.159 205.648 178.078 205.354 177.915C205.059 177.75 204.831 177.562 204.672 177.354C204.513 177.142 204.391 176.966 204.305 176.827H204.165V178H203.032ZM204.185 174.182C204.185 174.759 204.27 175.267 204.439 175.708C204.608 176.146 204.855 176.489 205.18 176.737C205.504 176.982 205.902 177.105 206.373 177.105C206.863 177.105 207.273 176.976 207.601 176.717C207.932 176.455 208.181 176.104 208.346 175.663C208.515 175.219 208.6 174.725 208.6 174.182C208.6 173.645 208.517 173.161 208.351 172.73C208.189 172.296 207.942 171.953 207.611 171.701C207.282 171.446 206.87 171.318 206.373 171.318C205.895 171.318 205.494 171.439 205.17 171.681C204.845 171.92 204.599 172.254 204.434 172.685C204.268 173.113 204.185 173.612 204.185 174.182ZM214.77 178.159C214.034 178.159 213.399 177.997 212.866 177.672C212.335 177.344 211.926 176.886 211.638 176.3C211.353 175.71 211.21 175.024 211.21 174.241C211.21 173.459 211.353 172.77 211.638 172.173C211.926 171.573 212.327 171.106 212.841 170.771C213.358 170.433 213.961 170.264 214.65 170.264C215.048 170.264 215.441 170.33 215.829 170.463C216.216 170.596 216.569 170.811 216.888 171.109C217.206 171.404 217.459 171.795 217.648 172.283C217.837 172.77 217.932 173.37 217.932 174.082V174.58H212.045V173.565H216.738C216.738 173.134 216.652 172.75 216.48 172.412C216.311 172.074 216.069 171.807 215.754 171.612C215.443 171.416 215.075 171.318 214.65 171.318C214.183 171.318 213.779 171.434 213.437 171.666C213.099 171.895 212.839 172.193 212.657 172.561C212.474 172.929 212.383 173.323 212.383 173.744V174.42C212.383 174.997 212.483 175.486 212.682 175.887C212.884 176.285 213.164 176.588 213.522 176.797C213.88 177.002 214.296 177.105 214.77 177.105C215.078 177.105 215.356 177.062 215.605 176.976C215.857 176.886 216.074 176.754 216.256 176.578C216.439 176.399 216.579 176.177 216.679 175.912L217.812 176.23C217.693 176.615 217.492 176.953 217.211 177.244C216.929 177.533 216.581 177.758 216.167 177.92C215.752 178.08 215.287 178.159 214.77 178.159ZM220.89 167.818V178H219.716V167.818H220.89Z" fill="white" fill-opacity="0.7"/>
</g>
<rect x="220" y="146" width="150" height="2" fill="#8F8F8F"/>
<path d="M393 147C393 150.866 389.866 154 386 154C382.134 154 379 150.866 379 147C379 143.134 382.134 140 386 140C389.866 140 393 143.134 393 147Z" stroke="#64B4FA" stroke-width="2"/>
<g clip-path="url(#clip1_2029_9317)">
<path d="M369.268 178V167.818H370.501V176.906H375.234V178H369.268ZM379.231 178.179C378.747 178.179 378.308 178.088 377.914 177.906C377.519 177.72 377.206 177.453 376.974 177.105C376.742 176.754 376.626 176.33 376.626 175.832C376.626 175.395 376.712 175.04 376.885 174.768C377.057 174.493 377.287 174.278 377.576 174.122C377.864 173.966 378.182 173.85 378.53 173.774C378.882 173.695 379.234 173.632 379.589 173.585C380.053 173.526 380.429 173.481 380.718 173.451C381.009 173.418 381.221 173.363 381.354 173.287C381.49 173.211 381.558 173.078 381.558 172.889V172.849C381.558 172.359 381.424 171.978 381.155 171.706C380.89 171.434 380.487 171.298 379.947 171.298C379.387 171.298 378.948 171.421 378.63 171.666C378.311 171.911 378.088 172.173 377.958 172.452L376.845 172.054C377.044 171.59 377.309 171.229 377.64 170.97C377.975 170.708 378.34 170.526 378.734 170.423C379.132 170.317 379.523 170.264 379.907 170.264C380.153 170.264 380.434 170.294 380.752 170.354C381.074 170.41 381.384 170.528 381.682 170.707C381.984 170.886 382.234 171.156 382.433 171.517C382.632 171.878 382.731 172.362 382.731 172.969V178H381.558V176.966H381.498C381.419 177.132 381.286 177.309 381.1 177.498C380.915 177.687 380.668 177.848 380.36 177.98C380.051 178.113 379.675 178.179 379.231 178.179ZM379.41 177.125C379.874 177.125 380.265 177.034 380.583 176.852C380.905 176.669 381.147 176.434 381.309 176.146C381.475 175.857 381.558 175.554 381.558 175.236V174.162C381.508 174.222 381.399 174.276 381.23 174.326C381.064 174.372 380.872 174.414 380.653 174.45C380.438 174.483 380.227 174.513 380.022 174.54C379.819 174.563 379.655 174.583 379.529 174.599C379.225 174.639 378.94 174.704 378.674 174.793C378.413 174.879 378.2 175.01 378.038 175.186C377.879 175.358 377.799 175.594 377.799 175.892C377.799 176.3 377.95 176.608 378.252 176.817C378.557 177.022 378.943 177.125 379.41 177.125ZM385.032 178V167.818H386.205V171.577H386.305C386.391 171.444 386.51 171.275 386.662 171.07C386.818 170.861 387.04 170.675 387.329 170.513C387.62 170.347 388.015 170.264 388.512 170.264C389.155 170.264 389.722 170.425 390.212 170.746C390.703 171.068 391.086 171.524 391.361 172.114C391.636 172.704 391.773 173.4 391.773 174.202C391.773 175.01 391.636 175.711 391.361 176.305C391.086 176.895 390.704 177.352 390.217 177.677C389.73 177.998 389.168 178.159 388.532 178.159C388.041 178.159 387.648 178.078 387.354 177.915C387.059 177.75 386.831 177.562 386.672 177.354C386.513 177.142 386.391 176.966 386.305 176.827H386.165V178H385.032ZM386.185 174.182C386.185 174.759 386.27 175.267 386.439 175.708C386.608 176.146 386.855 176.489 387.18 176.737C387.504 176.982 387.902 177.105 388.373 177.105C388.863 177.105 389.273 176.976 389.601 176.717C389.932 176.455 390.181 176.104 390.346 175.663C390.515 175.219 390.6 174.725 390.6 174.182C390.6 173.645 390.517 173.161 390.351 172.73C390.189 172.296 389.942 171.953 389.611 171.701C389.282 171.446 388.87 171.318 388.373 171.318C387.895 171.318 387.494 171.439 387.17 171.681C386.845 171.92 386.599 172.254 386.434 172.685C386.268 173.113 386.185 173.612 386.185 174.182ZM396.77 178.159C396.034 178.159 395.399 177.997 394.866 177.672C394.335 177.344 393.926 176.886 393.638 176.3C393.353 175.71 393.21 175.024 393.21 174.241C393.21 173.459 393.353 172.77 393.638 172.173C393.926 171.573 394.327 171.106 394.841 170.771C395.358 170.433 395.961 170.264 396.65 170.264C397.048 170.264 397.441 170.33 397.829 170.463C398.216 170.596 398.569 170.811 398.888 171.109C399.206 171.404 399.459 171.795 399.648 172.283C399.837 172.77 399.932 173.37 399.932 174.082V174.58H394.045V173.565H398.738C398.738 173.134 398.652 172.75 398.48 172.412C398.311 172.074 398.069 171.807 397.754 171.612C397.443 171.416 397.075 171.318 396.65 171.318C396.183 171.318 395.779 171.434 395.437 171.666C395.099 171.895 394.839 172.193 394.657 172.561C394.474 172.929 394.383 173.323 394.383 173.744V174.42C394.383 174.997 394.483 175.486 394.682 175.887C394.884 176.285 395.164 176.588 395.522 176.797C395.88 177.002 396.296 177.105 396.77 177.105C397.078 177.105 397.356 177.062 397.605 176.976C397.857 176.886 398.074 176.754 398.256 176.578C398.439 176.399 398.579 176.177 398.679 175.912L399.812 176.23C399.693 176.615 399.492 176.953 399.211 177.244C398.929 177.533 398.581 177.758 398.167 177.92C397.752 178.08 397.287 178.159 396.77 178.159ZM402.89 167.818V178H401.716V167.818H402.89Z" fill="white" fill-opacity="0.7"/>
</g>
<rect x="402" y="146" width="150" height="2" fill="#8F8F8F"/>
<path d="M575 147C575 150.866 571.866 154 568 154C564.134 154 561 150.866 561 147C561 143.134 564.134 140 568 140C571.866 140 575 143.134 575 147Z" stroke="#64B4FA" stroke-width="2"/>
<g clip-path="url(#clip2_2029_9317)">
<path d="M551.268 178V167.818H552.501V176.906H557.234V178H551.268ZM561.231 178.179C560.747 178.179 560.308 178.088 559.914 177.906C559.519 177.72 559.206 177.453 558.974 177.105C558.742 176.754 558.626 176.33 558.626 175.832C558.626 175.395 558.712 175.04 558.885 174.768C559.057 174.493 559.287 174.278 559.576 174.122C559.864 173.966 560.182 173.85 560.53 173.774C560.882 173.695 561.234 173.632 561.589 173.585C562.053 173.526 562.429 173.481 562.718 173.451C563.009 173.418 563.221 173.363 563.354 173.287C563.49 173.211 563.558 173.078 563.558 172.889V172.849C563.558 172.359 563.424 171.978 563.155 171.706C562.89 171.434 562.487 171.298 561.947 171.298C561.387 171.298 560.948 171.421 560.63 171.666C560.311 171.911 560.088 172.173 559.958 172.452L558.845 172.054C559.044 171.59 559.309 171.229 559.64 170.97C559.975 170.708 560.34 170.526 560.734 170.423C561.132 170.317 561.523 170.264 561.907 170.264C562.153 170.264 562.434 170.294 562.752 170.354C563.074 170.41 563.384 170.528 563.682 170.707C563.984 170.886 564.234 171.156 564.433 171.517C564.632 171.878 564.731 172.362 564.731 172.969V178H563.558V176.966H563.498C563.419 177.132 563.286 177.309 563.1 177.498C562.915 177.687 562.668 177.848 562.36 177.98C562.051 178.113 561.675 178.179 561.231 178.179ZM561.41 177.125C561.874 177.125 562.265 177.034 562.583 176.852C562.905 176.669 563.147 176.434 563.309 176.146C563.475 175.857 563.558 175.554 563.558 175.236V174.162C563.508 174.222 563.399 174.276 563.23 174.326C563.064 174.372 562.872 174.414 562.653 174.45C562.438 174.483 562.227 174.513 562.022 174.54C561.819 174.563 561.655 174.583 561.529 174.599C561.225 174.639 560.94 174.704 560.674 174.793C560.413 174.879 560.2 175.01 560.038 175.186C559.879 175.358 559.799 175.594 559.799 175.892C559.799 176.3 559.95 176.608 560.252 176.817C560.557 177.022 560.943 177.125 561.41 177.125ZM567.032 178V167.818H568.205V171.577H568.305C568.391 171.444 568.51 171.275 568.662 171.07C568.818 170.861 569.04 170.675 569.329 170.513C569.62 170.347 570.015 170.264 570.512 170.264C571.155 170.264 571.722 170.425 572.212 170.746C572.703 171.068 573.086 171.524 573.361 172.114C573.636 172.704 573.773 173.4 573.773 174.202C573.773 175.01 573.636 175.711 573.361 176.305C573.086 176.895 572.704 177.352 572.217 177.677C571.73 177.998 571.168 178.159 570.532 178.159C570.041 178.159 569.648 178.078 569.354 177.915C569.059 177.75 568.831 177.562 568.672 177.354C568.513 177.142 568.391 176.966 568.305 176.827H568.165V178H567.032ZM568.185 174.182C568.185 174.759 568.27 175.267 568.439 175.708C568.608 176.146 568.855 176.489 569.18 176.737C569.504 176.982 569.902 177.105 570.373 177.105C570.863 177.105 571.273 176.976 571.601 176.717C571.932 176.455 572.181 176.104 572.346 175.663C572.515 175.219 572.6 174.725 572.6 174.182C572.6 173.645 572.517 173.161 572.351 172.73C572.189 172.296 571.942 171.953 571.611 171.701C571.282 171.446 570.87 171.318 570.373 171.318C569.895 171.318 569.494 171.439 569.17 171.681C568.845 171.92 568.599 172.254 568.434 172.685C568.268 173.113 568.185 173.612 568.185 174.182ZM578.77 178.159C578.034 178.159 577.399 177.997 576.866 177.672C576.335 177.344 575.926 176.886 575.638 176.3C575.353 175.71 575.21 175.024 575.21 174.241C575.21 173.459 575.353 172.77 575.638 172.173C575.926 171.573 576.327 171.106 576.841 170.771C577.358 170.433 577.961 170.264 578.65 170.264C579.048 170.264 579.441 170.33 579.829 170.463C580.216 170.596 580.569 170.811 580.888 171.109C581.206 171.404 581.459 171.795 581.648 172.283C581.837 172.77 581.932 173.37 581.932 174.082V174.58H576.045V173.565H580.738C580.738 173.134 580.652 172.75 580.48 172.412C580.311 172.074 580.069 171.807 579.754 171.612C579.443 171.416 579.075 171.318 578.65 171.318C578.183 171.318 577.779 171.434 577.437 171.666C577.099 171.895 576.839 172.193 576.657 172.561C576.474 172.929 576.383 173.323 576.383 173.744V174.42C576.383 174.997 576.483 175.486 576.682 175.887C576.884 176.285 577.164 176.588 577.522 176.797C577.88 177.002 578.296 177.105 578.77 177.105C579.078 177.105 579.356 177.062 579.605 176.976C579.857 176.886 580.074 176.754 580.256 176.578C580.439 176.399 580.579 176.177 580.679 175.912L581.812 176.23C581.693 176.615 581.492 176.953 581.211 177.244C580.929 177.533 580.581 177.758 580.167 177.92C579.752 178.08 579.287 178.159 578.77 178.159ZM584.89 167.818V178H583.716V167.818H584.89Z" fill="white" fill-opacity="0.7"/>
</g>
<rect x="584" y="146" width="150" height="2" fill="#8F8F8F"/>
<path d="M757 147C757 150.866 753.866 154 750 154C746.134 154 743 150.866 743 147C743 143.134 746.134 140 750 140C753.866 140 757 143.134 757 147Z" stroke="#64B4FA" stroke-width="2"/>
<g clip-path="url(#clip3_2029_9317)">
<path d="M733.268 178V167.818H734.501V176.906H739.234V178H733.268ZM743.231 178.179C742.747 178.179 742.308 178.088 741.914 177.906C741.519 177.72 741.206 177.453 740.974 177.105C740.742 176.754 740.626 176.33 740.626 175.832C740.626 175.395 740.712 175.04 740.885 174.768C741.057 174.493 741.287 174.278 741.576 174.122C741.864 173.966 742.182 173.85 742.53 173.774C742.882 173.695 743.234 173.632 743.589 173.585C744.053 173.526 744.429 173.481 744.718 173.451C745.009 173.418 745.221 173.363 745.354 173.287C745.49 173.211 745.558 173.078 745.558 172.889V172.849C745.558 172.359 745.424 171.978 745.155 171.706C744.89 171.434 744.487 171.298 743.947 171.298C743.387 171.298 742.948 171.421 742.63 171.666C742.311 171.911 742.088 172.173 741.958 172.452L740.845 172.054C741.044 171.59 741.309 171.229 741.64 170.97C741.975 170.708 742.34 170.526 742.734 170.423C743.132 170.317 743.523 170.264 743.907 170.264C744.153 170.264 744.434 170.294 744.752 170.354C745.074 170.41 745.384 170.528 745.682 170.707C745.984 170.886 746.234 171.156 746.433 171.517C746.632 171.878 746.731 172.362 746.731 172.969V178H745.558V176.966H745.498C745.419 177.132 745.286 177.309 745.1 177.498C744.915 177.687 744.668 177.848 744.36 177.98C744.051 178.113 743.675 178.179 743.231 178.179ZM743.41 177.125C743.874 177.125 744.265 177.034 744.583 176.852C744.905 176.669 745.147 176.434 745.309 176.146C745.475 175.857 745.558 175.554 745.558 175.236V174.162C745.508 174.222 745.399 174.276 745.23 174.326C745.064 174.372 744.872 174.414 744.653 174.45C744.438 174.483 744.227 174.513 744.022 174.54C743.819 174.563 743.655 174.583 743.529 174.599C743.225 174.639 742.94 174.704 742.674 174.793C742.413 174.879 742.2 175.01 742.038 175.186C741.879 175.358 741.799 175.594 741.799 175.892C741.799 176.3 741.95 176.608 742.252 176.817C742.557 177.022 742.943 177.125 743.41 177.125ZM749.032 178V167.818H750.205V171.577H750.305C750.391 171.444 750.51 171.275 750.662 171.07C750.818 170.861 751.04 170.675 751.329 170.513C751.62 170.347 752.015 170.264 752.512 170.264C753.155 170.264 753.722 170.425 754.212 170.746C754.703 171.068 755.086 171.524 755.361 172.114C755.636 172.704 755.773 173.4 755.773 174.202C755.773 175.01 755.636 175.711 755.361 176.305C755.086 176.895 754.704 177.352 754.217 177.677C753.73 177.998 753.168 178.159 752.532 178.159C752.041 178.159 751.648 178.078 751.354 177.915C751.059 177.75 750.831 177.562 750.672 177.354C750.513 177.142 750.391 176.966 750.305 176.827H750.165V178H749.032ZM750.185 174.182C750.185 174.759 750.27 175.267 750.439 175.708C750.608 176.146 750.855 176.489 751.18 176.737C751.504 176.982 751.902 177.105 752.373 177.105C752.863 177.105 753.273 176.976 753.601 176.717C753.932 176.455 754.181 176.104 754.346 175.663C754.515 175.219 754.6 174.725 754.6 174.182C754.6 173.645 754.517 173.161 754.351 172.73C754.189 172.296 753.942 171.953 753.611 171.701C753.282 171.446 752.87 171.318 752.373 171.318C751.895 171.318 751.494 171.439 751.17 171.681C750.845 171.92 750.599 172.254 750.434 172.685C750.268 173.113 750.185 173.612 750.185 174.182ZM760.77 178.159C760.034 178.159 759.399 177.997 758.866 177.672C758.335 177.344 757.926 176.886 757.638 176.3C757.353 175.71 757.21 175.024 757.21 174.241C757.21 173.459 757.353 172.77 757.638 172.173C757.926 171.573 758.327 171.106 758.841 170.771C759.358 170.433 759.961 170.264 760.65 170.264C761.048 170.264 761.441 170.33 761.829 170.463C762.216 170.596 762.569 170.811 762.888 171.109C763.206 171.404 763.459 171.795 763.648 172.283C763.837 172.77 763.932 173.37 763.932 174.082V174.58H758.045V173.565H762.738C762.738 173.134 762.652 172.75 762.48 172.412C762.311 172.074 762.069 171.807 761.754 171.612C761.443 171.416 761.075 171.318 760.65 171.318C760.183 171.318 759.779 171.434 759.437 171.666C759.099 171.895 758.839 172.193 758.657 172.561C758.474 172.929 758.383 173.323 758.383 173.744V174.42C758.383 174.997 758.483 175.486 758.682 175.887C758.884 176.285 759.164 176.588 759.522 176.797C759.88 177.002 760.296 177.105 760.77 177.105C761.078 177.105 761.356 177.062 761.605 176.976C761.857 176.886 762.074 176.754 762.256 176.578C762.439 176.399 762.579 176.177 762.679 175.912L763.812 176.23C763.693 176.615 763.492 176.953 763.211 177.244C762.929 177.533 762.581 177.758 762.167 177.92C761.752 178.08 761.287 178.159 760.77 178.159ZM766.89 167.818V178H765.716V167.818H766.89Z" fill="white" fill-opacity="0.7"/>
</g>
<rect x="766" y="146" width="150" height="2" fill="#8F8F8F"/>
<path d="M939 147C939 150.866 935.866 154 932 154C928.134 154 925 150.866 925 147C925 143.134 928.134 140 932 140C935.866 140 939 143.134 939 147Z" stroke="#64B4FA" stroke-width="2"/>
<g clip-path="url(#clip4_2029_9317)">
<path d="M915.268 178V167.818H916.501V176.906H921.234V178H915.268ZM925.231 178.179C924.747 178.179 924.308 178.088 923.914 177.906C923.519 177.72 923.206 177.453 922.974 177.105C922.742 176.754 922.626 176.33 922.626 175.832C922.626 175.395 922.712 175.04 922.885 174.768C923.057 174.493 923.287 174.278 923.576 174.122C923.864 173.966 924.182 173.85 924.53 173.774C924.882 173.695 925.234 173.632 925.589 173.585C926.053 173.526 926.429 173.481 926.718 173.451C927.009 173.418 927.221 173.363 927.354 173.287C927.49 173.211 927.558 173.078 927.558 172.889V172.849C927.558 172.359 927.424 171.978 927.155 171.706C926.89 171.434 926.487 171.298 925.947 171.298C925.387 171.298 924.948 171.421 924.63 171.666C924.311 171.911 924.088 172.173 923.958 172.452L922.845 172.054C923.044 171.59 923.309 171.229 923.64 170.97C923.975 170.708 924.34 170.526 924.734 170.423C925.132 170.317 925.523 170.264 925.907 170.264C926.153 170.264 926.434 170.294 926.752 170.354C927.074 170.41 927.384 170.528 927.682 170.707C927.984 170.886 928.234 171.156 928.433 171.517C928.632 171.878 928.731 172.362 928.731 172.969V178H927.558V176.966H927.498C927.419 177.132 927.286 177.309 927.1 177.498C926.915 177.687 926.668 177.848 926.36 177.98C926.051 178.113 925.675 178.179 925.231 178.179ZM925.41 177.125C925.874 177.125 926.265 177.034 926.583 176.852C926.905 176.669 927.147 176.434 927.309 176.146C927.475 175.857 927.558 175.554 927.558 175.236V174.162C927.508 174.222 927.399 174.276 927.23 174.326C927.064 174.372 926.872 174.414 926.653 174.45C926.438 174.483 926.227 174.513 926.022 174.54C925.819 174.563 925.655 174.583 925.529 174.599C925.225 174.639 924.94 174.704 924.674 174.793C924.413 174.879 924.2 175.01 924.038 175.186C923.879 175.358 923.799 175.594 923.799 175.892C923.799 176.3 923.95 176.608 924.252 176.817C924.557 177.022 924.943 177.125 925.41 177.125ZM931.032 178V167.818H932.205V171.577H932.305C932.391 171.444 932.51 171.275 932.662 171.07C932.818 170.861 933.04 170.675 933.329 170.513C933.62 170.347 934.015 170.264 934.512 170.264C935.155 170.264 935.722 170.425 936.212 170.746C936.703 171.068 937.086 171.524 937.361 172.114C937.636 172.704 937.773 173.4 937.773 174.202C937.773 175.01 937.636 175.711 937.361 176.305C937.086 176.895 936.704 177.352 936.217 177.677C935.73 177.998 935.168 178.159 934.532 178.159C934.041 178.159 933.648 178.078 933.354 177.915C933.059 177.75 932.831 177.562 932.672 177.354C932.513 177.142 932.391 176.966 932.305 176.827H932.165V178H931.032ZM932.185 174.182C932.185 174.759 932.27 175.267 932.439 175.708C932.608 176.146 932.855 176.489 933.18 176.737C933.504 176.982 933.902 177.105 934.373 177.105C934.863 177.105 935.273 176.976 935.601 176.717C935.932 176.455 936.181 176.104 936.346 175.663C936.515 175.219 936.6 174.725 936.6 174.182C936.6 173.645 936.517 173.161 936.351 172.73C936.189 172.296 935.942 171.953 935.611 171.701C935.282 171.446 934.87 171.318 934.373 171.318C933.895 171.318 933.494 171.439 933.17 171.681C932.845 171.92 932.599 172.254 932.434 172.685C932.268 173.113 932.185 173.612 932.185 174.182ZM942.77 178.159C942.034 178.159 941.399 177.997 940.866 177.672C940.335 177.344 939.926 176.886 939.638 176.3C939.353 175.71 939.21 175.024 939.21 174.241C939.21 173.459 939.353 172.77 939.638 172.173C939.926 171.573 940.327 171.106 940.841 170.771C941.358 170.433 941.961 170.264 942.65 170.264C943.048 170.264 943.441 170.33 943.829 170.463C944.216 170.596 944.569 170.811 944.888 171.109C945.206 171.404 945.459 171.795 945.648 172.283C945.837 172.77 945.932 173.37 945.932 174.082V174.58H940.045V173.565H944.738C944.738 173.134 944.652 172.75 944.48 172.412C944.311 172.074 944.069 171.807 943.754 171.612C943.443 171.416 943.075 171.318 942.65 171.318C942.183 171.318 941.779 171.434 941.437 171.666C941.099 171.895 940.839 172.193 940.657 172.561C940.474 172.929 940.383 173.323 940.383 173.744V174.42C940.383 174.997 940.483 175.486 940.682 175.887C940.884 176.285 941.164 176.588 941.522 176.797C941.88 177.002 942.296 177.105 942.77 177.105C943.078 177.105 943.356 177.062 943.605 176.976C943.857 176.886 944.074 176.754 944.256 176.578C944.439 176.399 944.579 176.177 944.679 175.912L945.812 176.23C945.693 176.615 945.492 176.953 945.211 177.244C944.929 177.533 944.581 177.758 944.167 177.92C943.752 178.08 943.287 178.159 942.77 178.159ZM948.89 167.818V178H947.716V167.818H948.89Z" fill="white" fill-opacity="0.7"/>
</g>
<rect x="948" y="146" width="150" height="2" fill="#8F8F8F"/>
<path d="M1121 147C1121 150.866 1117.87 154 1114 154C1110.13 154 1107 150.866 1107 147C1107 143.134 1110.13 140 1114 140C1117.87 140 1121 143.134 1121 147Z" stroke="#64B4FA" stroke-width="2"/>
<g clip-path="url(#clip5_2029_9317)">
<path d="M1097.27 178V167.818H1098.5V176.906H1103.23V178H1097.27ZM1107.23 178.179C1106.75 178.179 1106.31 178.088 1105.91 177.906C1105.52 177.72 1105.21 177.453 1104.97 177.105C1104.74 176.754 1104.63 176.33 1104.63 175.832C1104.63 175.395 1104.71 175.04 1104.88 174.768C1105.06 174.493 1105.29 174.278 1105.58 174.122C1105.86 173.966 1106.18 173.85 1106.53 173.774C1106.88 173.695 1107.23 173.632 1107.59 173.585C1108.05 173.526 1108.43 173.481 1108.72 173.451C1109.01 173.418 1109.22 173.363 1109.35 173.287C1109.49 173.211 1109.56 173.078 1109.56 172.889V172.849C1109.56 172.359 1109.42 171.978 1109.16 171.706C1108.89 171.434 1108.49 171.298 1107.95 171.298C1107.39 171.298 1106.95 171.421 1106.63 171.666C1106.31 171.911 1106.09 172.173 1105.96 172.452L1104.84 172.054C1105.04 171.59 1105.31 171.229 1105.64 170.97C1105.98 170.708 1106.34 170.526 1106.73 170.423C1107.13 170.317 1107.52 170.264 1107.91 170.264C1108.15 170.264 1108.43 170.294 1108.75 170.354C1109.07 170.41 1109.38 170.528 1109.68 170.707C1109.98 170.886 1110.23 171.156 1110.43 171.517C1110.63 171.878 1110.73 172.362 1110.73 172.969V178H1109.56V176.966H1109.5C1109.42 177.132 1109.29 177.309 1109.1 177.498C1108.91 177.687 1108.67 177.848 1108.36 177.98C1108.05 178.113 1107.68 178.179 1107.23 178.179ZM1107.41 177.125C1107.87 177.125 1108.27 177.034 1108.58 176.852C1108.9 176.669 1109.15 176.434 1109.31 176.146C1109.48 175.857 1109.56 175.554 1109.56 175.236V174.162C1109.51 174.222 1109.4 174.276 1109.23 174.326C1109.06 174.372 1108.87 174.414 1108.65 174.45C1108.44 174.483 1108.23 174.513 1108.02 174.54C1107.82 174.563 1107.66 174.583 1107.53 174.599C1107.22 174.639 1106.94 174.704 1106.67 174.793C1106.41 174.879 1106.2 175.01 1106.04 175.186C1105.88 175.358 1105.8 175.594 1105.8 175.892C1105.8 176.3 1105.95 176.608 1106.25 176.817C1106.56 177.022 1106.94 177.125 1107.41 177.125ZM1113.03 178V167.818H1114.21V171.577H1114.3C1114.39 171.444 1114.51 171.275 1114.66 171.07C1114.82 170.861 1115.04 170.675 1115.33 170.513C1115.62 170.347 1116.01 170.264 1116.51 170.264C1117.15 170.264 1117.72 170.425 1118.21 170.746C1118.7 171.068 1119.09 171.524 1119.36 172.114C1119.64 172.704 1119.77 173.4 1119.77 174.202C1119.77 175.01 1119.64 175.711 1119.36 176.305C1119.09 176.895 1118.7 177.352 1118.22 177.677C1117.73 177.998 1117.17 178.159 1116.53 178.159C1116.04 178.159 1115.65 178.078 1115.35 177.915C1115.06 177.75 1114.83 177.562 1114.67 177.354C1114.51 177.142 1114.39 176.966 1114.3 176.827H1114.17V178H1113.03ZM1114.19 174.182C1114.19 174.759 1114.27 175.267 1114.44 175.708C1114.61 176.146 1114.85 176.489 1115.18 176.737C1115.5 176.982 1115.9 177.105 1116.37 177.105C1116.86 177.105 1117.27 176.976 1117.6 176.717C1117.93 176.455 1118.18 176.104 1118.35 175.663C1118.52 175.219 1118.6 174.725 1118.6 174.182C1118.6 173.645 1118.52 173.161 1118.35 172.73C1118.19 172.296 1117.94 171.953 1117.61 171.701C1117.28 171.446 1116.87 171.318 1116.37 171.318C1115.9 171.318 1115.49 171.439 1115.17 171.681C1114.84 171.92 1114.6 172.254 1114.43 172.685C1114.27 173.113 1114.19 173.612 1114.19 174.182ZM1124.77 178.159C1124.03 178.159 1123.4 177.997 1122.87 177.672C1122.34 177.344 1121.93 176.886 1121.64 176.3C1121.35 175.71 1121.21 175.024 1121.21 174.241C1121.21 173.459 1121.35 172.77 1121.64 172.173C1121.93 171.573 1122.33 171.106 1122.84 170.771C1123.36 170.433 1123.96 170.264 1124.65 170.264C1125.05 170.264 1125.44 170.33 1125.83 170.463C1126.22 170.596 1126.57 170.811 1126.89 171.109C1127.21 171.404 1127.46 171.795 1127.65 172.283C1127.84 172.77 1127.93 173.37 1127.93 174.082V174.58H1122.05V173.565H1126.74C1126.74 173.134 1126.65 172.75 1126.48 172.412C1126.31 172.074 1126.07 171.807 1125.75 171.612C1125.44 171.416 1125.07 171.318 1124.65 171.318C1124.18 171.318 1123.78 171.434 1123.44 171.666C1123.1 171.895 1122.84 172.193 1122.66 172.561C1122.47 172.929 1122.38 173.323 1122.38 173.744V174.42C1122.38 174.997 1122.48 175.486 1122.68 175.887C1122.88 176.285 1123.16 176.588 1123.52 176.797C1123.88 177.002 1124.3 177.105 1124.77 177.105C1125.08 177.105 1125.36 177.062 1125.6 176.976C1125.86 176.886 1126.07 176.754 1126.26 176.578C1126.44 176.399 1126.58 176.177 1126.68 175.912L1127.81 176.23C1127.69 176.615 1127.49 176.953 1127.21 177.244C1126.93 177.533 1126.58 177.758 1126.17 177.92C1125.75 178.08 1125.29 178.159 1124.77 178.159ZM1130.89 167.818V178H1129.72V167.818H1130.89Z" fill="white" fill-opacity="0.7"/>
</g>
<path d="M569.277 84V118" stroke="#DA0087"/>
<path d="M569.277 126L565.277 118H573.277L569.277 126Z" fill="#DA0087"/>
<rect x="505.277" y="64" width="128" height="28" rx="14" fill="#DA0087"/>
<path d="M525.373 79.88C525.373 79.496 525.288 79.192 525.117 78.968C524.925 78.7013 524.573 78.456 524.061 78.232C523.549 78.008 522.776 77.752 521.741 77.464C520.355 77.08 519.4 76.6053 518.877 76.04C518.451 75.5813 518.237 74.968 518.237 74.2C518.237 73.272 518.643 72.536 519.453 71.992C520.2 71.4907 521.171 71.24 522.365 71.24C523.699 71.24 524.781 71.5547 525.613 72.184C526.36 72.7387 526.797 73.464 526.925 74.36H525.245C525.149 73.752 524.829 73.2987 524.285 73C523.805 72.7227 523.165 72.584 522.365 72.584C521.469 72.584 520.808 72.7547 520.381 73.096C520.04 73.3627 519.869 73.7093 519.869 74.136C519.869 74.4133 519.912 74.6427 519.997 74.824C520.093 74.9947 520.253 75.1493 520.477 75.288C520.893 75.5653 521.699 75.8693 522.893 76.2C524.557 76.6693 525.683 77.2027 526.269 77.8C526.76 78.2907 527.005 78.9627 527.005 79.816C527.005 80.8293 526.563 81.6667 525.677 82.328C524.845 82.936 523.789 83.24 522.509 83.24C521.176 83.24 520.072 82.8827 519.197 82.168C518.44 81.5493 517.987 80.7493 517.837 79.768H519.517C519.624 80.472 519.96 81.0107 520.525 81.384C521.037 81.7253 521.688 81.896 522.477 81.896C523.459 81.896 524.211 81.672 524.733 81.224C525.16 80.8613 525.373 80.4133 525.373 79.88ZM532.562 81.768V83.08C532.168 83.1867 531.789 83.24 531.426 83.24C530.658 83.24 530.082 83 529.698 82.52C529.368 82.1253 529.202 81.5973 529.202 80.936V75.992H527.97V74.68H529.202L529.298 72.68H530.738V74.68H532.53V75.992H530.738V80.968C530.738 81.5867 531.032 81.896 531.618 81.896C531.896 81.896 532.21 81.8533 532.562 81.768ZM539.593 80.6H541.257C541.022 81.4427 540.558 82.104 539.865 82.584C539.214 83.0213 538.435 83.24 537.529 83.24C536.217 83.24 535.193 82.824 534.457 81.992C533.785 81.2133 533.449 80.1627 533.449 78.84C533.449 77.336 533.875 76.1947 534.729 75.416C535.433 74.7653 536.339 74.44 537.449 74.44C538.75 74.44 539.731 74.8613 540.393 75.704C541.033 76.5147 541.353 77.672 541.353 79.176H535.017C535.081 80.1573 535.379 80.888 535.913 81.368C536.35 81.752 536.905 81.944 537.577 81.944C538.099 81.944 538.553 81.8 538.937 81.512C539.257 81.2667 539.475 80.9627 539.593 80.6ZM537.481 75.672C536.798 75.672 536.249 75.8853 535.833 76.312C535.438 76.7067 535.187 77.256 535.081 77.96H539.785C539.731 77.16 539.465 76.5627 538.985 76.168C538.601 75.8373 538.099 75.672 537.481 75.672ZM543.194 74.68H544.458L544.698 75.768C545.381 74.8827 546.32 74.44 547.514 74.44C548.709 74.44 549.637 74.8667 550.298 75.72C550.885 76.488 551.178 77.5067 551.178 78.776C551.178 80.28 550.778 81.432 549.978 82.232C549.306 82.904 548.448 83.24 547.402 83.24C546.218 83.24 545.328 82.8027 544.73 81.928V85.88H543.194V74.68ZM549.578 78.744C549.578 77.6987 549.317 76.9147 548.794 76.392C548.378 75.9653 547.834 75.752 547.162 75.752C546.384 75.752 545.765 76.0347 545.306 76.6C544.869 77.144 544.65 77.8587 544.65 78.744C544.65 79.8107 544.912 80.6267 545.434 81.192C545.872 81.6827 546.448 81.928 547.162 81.928C547.962 81.928 548.57 81.6347 548.986 81.048C549.381 80.504 549.578 79.736 549.578 78.744ZM557.821 71.48H559.453V83H557.821V71.48ZM563.308 83H561.772V74.68H563.036L563.212 75.736C563.831 74.872 564.674 74.44 565.74 74.44C566.722 74.44 567.474 74.744 567.996 75.352C568.455 75.896 568.684 76.6373 568.684 77.576V83H567.148V77.592C567.148 76.3653 566.556 75.752 565.372 75.752C564.754 75.752 564.247 75.9653 563.852 76.392C563.49 76.776 563.308 77.2667 563.308 77.864V83ZM578.354 83H577.09L576.818 81.832C576.178 82.7707 575.256 83.24 574.05 83.24C572.888 83.24 571.97 82.8187 571.298 81.976C570.68 81.1973 570.37 80.168 570.37 78.888C570.37 77.3413 570.765 76.1787 571.554 75.4C572.216 74.76 573.08 74.44 574.146 74.44C575.298 74.44 576.189 74.872 576.818 75.736V71.48H578.354V83ZM571.97 78.92C571.97 79.9547 572.226 80.7387 572.738 81.272C573.165 81.7093 573.714 81.928 574.386 81.928C575.218 81.928 575.864 81.6133 576.322 80.984C576.706 80.44 576.898 79.7573 576.898 78.936C576.898 77.8587 576.642 77.0373 576.13 76.472C575.693 75.992 575.112 75.752 574.386 75.752C573.576 75.752 572.962 76.0453 572.546 76.632C572.162 77.1653 571.97 77.928 571.97 78.92ZM582.232 73.288H580.504V71.48H582.232V73.288ZM582.136 83H580.6V74.68H582.136V83ZM589.806 80.328H591.486C591.358 81.224 590.936 81.944 590.222 82.488C589.571 82.9893 588.776 83.24 587.838 83.24C586.611 83.24 585.635 82.8187 584.91 81.976C584.238 81.1973 583.902 80.1733 583.902 78.904C583.902 77.432 584.307 76.2907 585.118 75.48C585.811 74.7867 586.712 74.44 587.822 74.44C588.846 74.44 589.688 74.712 590.35 75.256C590.936 75.736 591.294 76.3653 591.422 77.144H589.726C589.619 76.696 589.4 76.3493 589.07 76.104C588.75 75.8587 588.344 75.736 587.854 75.736C587.096 75.736 586.515 76.0347 586.11 76.632C585.726 77.1867 585.534 77.96 585.534 78.952C585.534 79.9867 585.79 80.7707 586.302 81.304C586.707 81.7307 587.23 81.944 587.87 81.944C588.424 81.944 588.878 81.784 589.23 81.464C589.539 81.1867 589.731 80.808 589.806 80.328ZM594.553 77H592.921C593.006 76.168 593.401 75.5227 594.105 75.064C594.734 74.648 595.529 74.44 596.489 74.44C597.63 74.44 598.505 74.7387 599.113 75.336C599.625 75.848 599.881 76.5093 599.881 77.32V83H598.617L598.425 81.864C597.774 82.7813 596.846 83.24 595.641 83.24C594.692 83.24 593.95 82.984 593.417 82.472C592.98 82.0453 592.761 81.5067 592.761 80.856C592.761 80.0347 593.044 79.4 593.609 78.952C594.11 78.5573 594.878 78.2693 595.913 78.088L598.345 77.672V77.256C598.345 76.712 598.158 76.3013 597.785 76.024C597.454 75.7787 597.001 75.656 596.425 75.656C595.294 75.656 594.67 76.104 594.553 77ZM596.009 81.944C596.66 81.944 597.225 81.7307 597.705 81.304C598.132 80.9093 598.345 80.456 598.345 79.944V78.872L596.281 79.24C595.524 79.368 595.006 79.5653 594.729 79.832C594.505 80.0453 594.393 80.3333 594.393 80.696C594.393 81.1013 594.532 81.4107 594.809 81.624C595.086 81.8373 595.486 81.944 596.009 81.944ZM605.75 81.768V83.08C605.355 83.1867 604.977 83.24 604.614 83.24C603.846 83.24 603.27 83 602.886 82.52C602.555 82.1253 602.39 81.5973 602.39 80.936V75.992H601.158V74.68H602.39L602.486 72.68H603.926V74.68H605.718V75.992H603.926V80.968C603.926 81.5867 604.219 81.896 604.806 81.896C605.083 81.896 605.398 81.8533 605.75 81.768ZM606.636 78.84C606.636 77.3147 607.089 76.1627 607.996 75.384C608.721 74.7547 609.639 74.44 610.748 74.44C612.039 74.44 613.052 74.8507 613.788 75.672C614.492 76.44 614.844 77.496 614.844 78.84C614.844 80.344 614.401 81.4907 613.516 82.28C612.791 82.92 611.863 83.24 610.732 83.24C609.441 83.24 608.423 82.8133 607.676 81.96C606.983 81.1813 606.636 80.1413 606.636 78.84ZM608.236 78.84C608.236 79.9067 608.508 80.7227 609.052 81.288C609.5 81.7573 610.071 81.992 610.764 81.992C611.575 81.992 612.199 81.688 612.636 81.08C613.041 80.5253 613.244 79.7787 613.244 78.84C613.244 77.752 612.977 76.9307 612.444 76.376C612.007 75.9173 611.441 75.688 610.748 75.688C609.948 75.688 609.324 75.992 608.876 76.6C608.449 77.1547 608.236 77.9013 608.236 78.84ZM618.136 83H616.6V74.68H617.864L618.072 75.912C618.542 74.9307 619.246 74.44 620.184 74.44C620.494 74.44 620.798 74.4773 621.096 74.552V76.088C620.734 75.992 620.408 75.944 620.12 75.944C619.502 75.944 619.016 76.1947 618.664 76.696C618.312 77.1973 618.136 77.9067 618.136 78.824V83Z" fill="white" fill-opacity="0.95"/>
<path d="M701 84V127" stroke="#DA0087"/>
<path d="M701 135L697 127H705L701 135Z" fill="#DA0087"/>
<rect x="645" y="64" width="112" height="28" rx="14" fill="#DA0087"/>
<path d="M665.096 79.88C665.096 79.496 665.011 79.192 664.84 78.968C664.648 78.7013 664.296 78.456 663.784 78.232C663.272 78.008 662.499 77.752 661.464 77.464C660.077 77.08 659.123 76.6053 658.6 76.04C658.173 75.5813 657.96 74.968 657.96 74.2C657.96 73.272 658.365 72.536 659.176 71.992C659.923 71.4907 660.893 71.24 662.088 71.24C663.421 71.24 664.504 71.5547 665.336 72.184C666.083 72.7387 666.52 73.464 666.648 74.36H664.968C664.872 73.752 664.552 73.2987 664.008 73C663.528 72.7227 662.888 72.584 662.088 72.584C661.192 72.584 660.531 72.7547 660.104 73.096C659.763 73.3627 659.592 73.7093 659.592 74.136C659.592 74.4133 659.635 74.6427 659.72 74.824C659.816 74.9947 659.976 75.1493 660.2 75.288C660.616 75.5653 661.421 75.8693 662.616 76.2C664.28 76.6693 665.405 77.2027 665.992 77.8C666.483 78.2907 666.728 78.9627 666.728 79.816C666.728 80.8293 666.285 81.6667 665.4 82.328C664.568 82.936 663.512 83.24 662.232 83.24C660.899 83.24 659.795 82.8827 658.92 82.168C658.163 81.5493 657.709 80.7493 657.56 79.768H659.24C659.347 80.472 659.683 81.0107 660.248 81.384C660.76 81.7253 661.411 81.896 662.2 81.896C663.181 81.896 663.933 81.672 664.456 81.224C664.883 80.8613 665.096 80.4133 665.096 79.88ZM672.285 81.768V83.08C671.89 83.1867 671.512 83.24 671.149 83.24C670.381 83.24 669.805 83 669.421 82.52C669.09 82.1253 668.925 81.5973 668.925 80.936V75.992H667.693V74.68H668.925L669.021 72.68H670.461V74.68H672.253V75.992H670.461V80.968C670.461 81.5867 670.754 81.896 671.341 81.896C671.618 81.896 671.933 81.8533 672.285 81.768ZM679.315 80.6H680.979C680.745 81.4427 680.281 82.104 679.587 82.584C678.937 83.0213 678.158 83.24 677.251 83.24C675.939 83.24 674.915 82.824 674.179 81.992C673.507 81.2133 673.171 80.1627 673.171 78.84C673.171 77.336 673.598 76.1947 674.451 75.416C675.155 74.7653 676.062 74.44 677.171 74.44C678.473 74.44 679.454 74.8613 680.115 75.704C680.755 76.5147 681.075 77.672 681.075 79.176H674.739C674.803 80.1573 675.102 80.888 675.635 81.368C676.073 81.752 676.627 81.944 677.299 81.944C677.822 81.944 678.275 81.8 678.659 81.512C678.979 81.2667 679.198 80.9627 679.315 80.6ZM677.203 75.672C676.521 75.672 675.971 75.8853 675.555 76.312C675.161 76.7067 674.91 77.256 674.803 77.96H679.507C679.454 77.16 679.187 76.5627 678.707 76.168C678.323 75.8373 677.822 75.672 677.203 75.672ZM682.917 74.68H684.181L684.421 75.768C685.104 74.8827 686.042 74.44 687.237 74.44C688.432 74.44 689.36 74.8667 690.021 75.72C690.608 76.488 690.901 77.5067 690.901 78.776C690.901 80.28 690.501 81.432 689.701 82.232C689.029 82.904 688.17 83.24 687.125 83.24C685.941 83.24 685.05 82.8027 684.453 81.928V85.88H682.917V74.68ZM689.301 78.744C689.301 77.6987 689.04 76.9147 688.517 76.392C688.101 75.9653 687.557 75.752 686.885 75.752C686.106 75.752 685.488 76.0347 685.029 76.6C684.592 77.144 684.373 77.8587 684.373 78.744C684.373 79.8107 684.634 80.6267 685.157 81.192C685.594 81.6827 686.17 81.928 686.885 81.928C687.685 81.928 688.293 81.6347 688.709 81.048C689.104 80.504 689.301 79.736 689.301 78.744ZM698.728 83H697.464V71.48H699V75.832C699.65 74.904 700.578 74.44 701.784 74.44C702.978 74.44 703.906 74.8667 704.568 75.72C705.154 76.488 705.448 77.5067 705.448 78.776C705.448 80.28 705.048 81.432 704.248 82.232C703.576 82.904 702.717 83.24 701.672 83.24C700.488 83.24 699.586 82.792 698.968 81.896L698.728 83ZM703.848 78.744C703.848 77.6987 703.586 76.9147 703.064 76.392C702.648 75.9653 702.104 75.752 701.432 75.752C700.653 75.752 700.034 76.0347 699.576 76.6C699.138 77.144 698.92 77.8587 698.92 78.744C698.92 79.8107 699.181 80.6267 699.704 81.192C700.141 81.6827 700.717 81.928 701.432 81.928C702.232 81.928 702.84 81.6347 703.256 81.048C703.65 80.504 703.848 79.736 703.848 78.744ZM708.75 83H707.214V74.68H708.478L708.686 75.912C709.155 74.9307 709.859 74.44 710.798 74.44C711.107 74.44 711.411 74.4773 711.71 74.552V76.088C711.347 75.992 711.022 75.944 710.734 75.944C710.115 75.944 709.63 76.1947 709.278 76.696C708.926 77.1973 708.75 77.9067 708.75 78.824V83ZM714.549 73.288H712.821V71.48H714.549V73.288ZM714.453 83H712.917V74.68H714.453V83ZM724.202 83H722.938L722.666 81.832C722.026 82.7707 721.103 83.24 719.898 83.24C718.735 83.24 717.818 82.8187 717.146 81.976C716.527 81.1973 716.218 80.168 716.218 78.888C716.218 77.3413 716.613 76.1787 717.402 75.4C718.063 74.76 718.927 74.44 719.994 74.44C721.146 74.44 722.037 74.872 722.666 75.736V71.48H724.202V83ZM717.818 78.92C717.818 79.9547 718.074 80.7387 718.586 81.272C719.013 81.7093 719.562 81.928 720.234 81.928C721.066 81.928 721.711 81.6133 722.17 80.984C722.554 80.44 722.746 79.7573 722.746 78.936C722.746 77.8587 722.49 77.0373 721.978 76.472C721.541 75.992 720.959 75.752 720.234 75.752C719.423 75.752 718.81 76.0453 718.394 76.632C718.01 77.1653 717.818 77.928 717.818 78.92ZM726.352 83.56H728C728.075 83.9867 728.288 84.3173 728.64 84.552C729.003 84.7867 729.477 84.904 730.064 84.904C730.885 84.904 731.499 84.6907 731.904 84.264C732.245 83.9013 732.416 83.3947 732.416 82.744V81.672C731.797 82.3973 730.875 82.76 729.648 82.76C728.539 82.76 727.637 82.36 726.944 81.56C726.293 80.8133 725.968 79.8427 725.968 78.648C725.968 77.2613 726.363 76.1893 727.152 75.432C727.824 74.7707 728.688 74.44 729.744 74.44C730.939 74.44 731.84 74.888 732.448 75.784L732.688 74.68H733.952V82.824C733.952 83.8693 733.573 84.6907 732.816 85.288C732.133 85.8427 731.232 86.12 730.112 86.12C728.949 86.12 728.037 85.8587 727.376 85.336C726.821 84.8987 726.48 84.3067 726.352 83.56ZM727.568 78.68C727.568 79.5867 727.835 80.296 728.368 80.808C728.805 81.2347 729.344 81.448 729.984 81.448C730.827 81.448 731.472 81.1707 731.92 80.616C732.304 80.1467 732.496 79.5173 732.496 78.728C732.496 77.7147 732.235 76.9413 731.712 76.408C731.275 75.9707 730.699 75.752 729.984 75.752C729.195 75.752 728.587 76.024 728.16 76.568C727.765 77.08 727.568 77.784 727.568 78.68ZM741.862 80.6H743.526C743.291 81.4427 742.827 82.104 742.134 82.584C741.483 83.0213 740.705 83.24 739.798 83.24C738.486 83.24 737.462 82.824 736.726 81.992C736.054 81.2133 735.718 80.1627 735.718 78.84C735.718 77.336 736.145 76.1947 736.998 75.416C737.702 74.7653 738.609 74.44 739.718 74.44C741.019 74.44 742.001 74.8613 742.662 75.704C743.302 76.5147 743.622 77.672 743.622 79.176H737.286C737.35 80.1573 737.649 80.888 738.182 81.368C738.619 81.752 739.174 81.944 739.846 81.944C740.369 81.944 740.822 81.8 741.206 81.512C741.526 81.2667 741.745 80.9627 741.862 80.6ZM739.75 75.672C739.067 75.672 738.518 75.8853 738.102 76.312C737.707 76.7067 737.457 77.256 737.35 77.96H742.054C742.001 77.16 741.734 76.5627 741.254 76.168C740.87 75.8373 740.369 75.672 739.75 75.672Z" fill="white" fill-opacity="0.95"/>
<path d="M566.371 225V191" stroke="#DA0087"/>
<path d="M566.371 183L562.371 191H570.371L566.371 183Z" fill="#DA0087"/>
<rect x="514.371" y="217" width="104" height="28" rx="14" fill="#DA0087"/>
<path d="M534.467 232.88C534.467 232.496 534.382 232.192 534.211 231.968C534.019 231.701 533.667 231.456 533.155 231.232C532.643 231.008 531.87 230.752 530.835 230.464C529.448 230.08 528.494 229.605 527.971 229.04C527.544 228.581 527.331 227.968 527.331 227.2C527.331 226.272 527.736 225.536 528.547 224.992C529.294 224.491 530.264 224.24 531.459 224.24C532.792 224.24 533.875 224.555 534.707 225.184C535.454 225.739 535.891 226.464 536.019 227.36H534.339C534.243 226.752 533.923 226.299 533.379 226C532.899 225.723 532.259 225.584 531.459 225.584C530.563 225.584 529.902 225.755 529.475 226.096C529.134 226.363 528.963 226.709 528.963 227.136C528.963 227.413 529.006 227.643 529.091 227.824C529.187 227.995 529.347 228.149 529.571 228.288C529.987 228.565 530.792 228.869 531.987 229.2C533.651 229.669 534.776 230.203 535.363 230.8C535.854 231.291 536.099 231.963 536.099 232.816C536.099 233.829 535.656 234.667 534.771 235.328C533.939 235.936 532.883 236.24 531.603 236.24C530.27 236.24 529.166 235.883 528.291 235.168C527.534 234.549 527.08 233.749 526.931 232.768H528.611C528.718 233.472 529.054 234.011 529.619 234.384C530.131 234.725 530.782 234.896 531.571 234.896C532.552 234.896 533.304 234.672 533.827 234.224C534.254 233.861 534.467 233.413 534.467 232.88ZM541.656 234.768V236.08C541.262 236.187 540.883 236.24 540.52 236.24C539.752 236.24 539.176 236 538.792 235.52C538.462 235.125 538.296 234.597 538.296 233.936V228.992H537.064V227.68H538.296L538.392 225.68H539.832V227.68H541.624V228.992H539.832V233.968C539.832 234.587 540.126 234.896 540.712 234.896C540.99 234.896 541.304 234.853 541.656 234.768ZM548.686 233.6H550.35C550.116 234.443 549.652 235.104 548.958 235.584C548.308 236.021 547.529 236.24 546.622 236.24C545.31 236.24 544.286 235.824 543.55 234.992C542.878 234.213 542.542 233.163 542.542 231.84C542.542 230.336 542.969 229.195 543.822 228.416C544.526 227.765 545.433 227.44 546.542 227.44C547.844 227.44 548.825 227.861 549.486 228.704C550.126 229.515 550.446 230.672 550.446 232.176H544.11C544.174 233.157 544.473 233.888 545.006 234.368C545.444 234.752 545.998 234.944 546.67 234.944C547.193 234.944 547.646 234.8 548.03 234.512C548.35 234.267 548.569 233.963 548.686 233.6ZM546.574 228.672C545.892 228.672 545.342 228.885 544.926 229.312C544.532 229.707 544.281 230.256 544.174 230.96H548.878C548.825 230.16 548.558 229.563 548.078 229.168C547.694 228.837 547.193 228.672 546.574 228.672ZM552.288 227.68H553.552L553.792 228.768C554.475 227.883 555.413 227.44 556.608 227.44C557.803 227.44 558.731 227.867 559.392 228.72C559.979 229.488 560.272 230.507 560.272 231.776C560.272 233.28 559.872 234.432 559.072 235.232C558.4 235.904 557.541 236.24 556.496 236.24C555.312 236.24 554.421 235.803 553.824 234.928V238.88H552.288V227.68ZM558.672 231.744C558.672 230.699 558.411 229.915 557.888 229.392C557.472 228.965 556.928 228.752 556.256 228.752C555.477 228.752 554.859 229.035 554.4 229.6C553.963 230.144 553.744 230.859 553.744 231.744C553.744 232.811 554.005 233.627 554.528 234.192C554.965 234.683 555.541 234.928 556.256 234.928C557.056 234.928 557.664 234.635 558.08 234.048C558.475 233.504 558.672 232.736 558.672 231.744ZM566.915 224.48H568.563V234.544H573.987V236H566.915V224.48ZM576.975 230H575.343C575.428 229.168 575.823 228.523 576.527 228.064C577.156 227.648 577.951 227.44 578.911 227.44C580.052 227.44 580.927 227.739 581.535 228.336C582.047 228.848 582.303 229.509 582.303 230.32V236H581.039L580.847 234.864C580.196 235.781 579.268 236.24 578.063 236.24C577.114 236.24 576.372 235.984 575.839 235.472C575.402 235.045 575.183 234.507 575.183 233.856C575.183 233.035 575.466 232.4 576.031 231.952C576.532 231.557 577.3 231.269 578.335 231.088L580.767 230.672V230.256C580.767 229.712 580.58 229.301 580.207 229.024C579.876 228.779 579.423 228.656 578.847 228.656C577.716 228.656 577.092 229.104 576.975 230ZM578.431 234.944C579.082 234.944 579.647 234.731 580.127 234.304C580.554 233.909 580.767 233.456 580.767 232.944V231.872L578.703 232.24C577.946 232.368 577.428 232.565 577.151 232.832C576.927 233.045 576.815 233.333 576.815 233.696C576.815 234.101 576.954 234.411 577.231 234.624C577.508 234.837 577.908 234.944 578.431 234.944ZM585.724 236H584.46V224.48H585.996V228.832C586.647 227.904 587.575 227.44 588.78 227.44C589.975 227.44 590.903 227.867 591.564 228.72C592.151 229.488 592.444 230.507 592.444 231.776C592.444 233.28 592.044 234.432 591.244 235.232C590.572 235.904 589.713 236.24 588.668 236.24C587.484 236.24 586.583 235.792 585.964 234.896L585.724 236ZM590.844 231.744C590.844 230.699 590.583 229.915 590.06 229.392C589.644 228.965 589.1 228.752 588.428 228.752C587.649 228.752 587.031 229.035 586.572 229.6C586.135 230.144 585.916 230.859 585.916 231.744C585.916 232.811 586.177 233.627 586.7 234.192C587.137 234.683 587.713 234.928 588.428 234.928C589.228 234.928 589.836 234.635 590.252 234.048C590.647 233.504 590.844 232.736 590.844 231.744ZM599.874 233.6H601.538C601.303 234.443 600.839 235.104 600.146 235.584C599.495 236.021 598.717 236.24 597.81 236.24C596.498 236.24 595.474 235.824 594.738 234.992C594.066 234.213 593.73 233.163 593.73 231.84C593.73 230.336 594.157 229.195 595.01 228.416C595.714 227.765 596.621 227.44 597.73 227.44C599.031 227.44 600.013 227.861 600.674 228.704C601.314 229.515 601.634 230.672 601.634 232.176H595.298C595.362 233.157 595.661 233.888 596.194 234.368C596.631 234.752 597.186 234.944 597.858 234.944C598.381 234.944 598.834 234.8 599.218 234.512C599.538 234.267 599.757 233.963 599.874 233.6ZM597.762 228.672C597.079 228.672 596.53 228.885 596.114 229.312C595.719 229.707 595.469 230.256 595.362 230.96H600.066C600.013 230.16 599.746 229.563 599.266 229.168C598.882 228.837 598.381 228.672 597.762 228.672ZM605.011 224.48V236H603.475V224.48H605.011Z" fill="white" fill-opacity="0.95"/>
<defs>
<clipPath id="clip0_2029_9317">
<rect width="36" height="20" fill="white" transform="translate(186 163)"/>
</clipPath>
<clipPath id="clip1_2029_9317">
<rect width="36" height="20" fill="white" transform="translate(368 163)"/>
</clipPath>
<clipPath id="clip2_2029_9317">
<rect width="36" height="20" fill="white" transform="translate(550 163)"/>
</clipPath>
<clipPath id="clip3_2029_9317">
<rect width="36" height="20" fill="white" transform="translate(732 163)"/>
</clipPath>
<clipPath id="clip4_2029_9317">
<rect width="36" height="20" fill="white" transform="translate(914 163)"/>
</clipPath>
<clipPath id="clip5_2029_9317">
<rect width="36" height="20" fill="white" transform="translate(1096 163)"/>
</clipPath>
</defs>
</svg>
