<svg width="1560" height="249" viewBox="0 0 1560 249" fill="none" xmlns="http://www.w3.org/2000/svg">
<path d="M2.52841 40V10.9091H14.0057C16.2121 10.9091 18.0919 11.3305 19.6449 12.1733C21.1979 13.0066 22.3816 14.1667 23.196 15.6534C24.0199 17.1307 24.4318 18.8352 24.4318 20.767C24.4318 22.6989 24.0152 24.4034 23.1818 25.8807C22.3485 27.358 21.1411 28.5085 19.5597 29.3324C17.9877 30.1562 16.0843 30.5682 13.8494 30.5682H6.53409V25.6392H12.8551C14.0388 25.6392 15.0142 25.4356 15.7812 25.0284C16.5578 24.6117 17.1354 24.0388 17.5142 23.3097C17.9025 22.571 18.0966 21.7235 18.0966 20.767C18.0966 19.8011 17.9025 18.9583 17.5142 18.2386C17.1354 17.5095 16.5578 16.946 15.7812 16.5483C15.0047 16.1411 14.0199 15.9375 12.8267 15.9375H8.67898V40H2.52841ZM37.8196 40.4261C35.6132 40.4261 33.705 39.9574 32.0952 39.0199C30.4948 38.0729 29.259 36.7566 28.3878 35.071C27.5166 33.3759 27.081 31.411 27.081 29.1761C27.081 26.9223 27.5166 24.9527 28.3878 23.267C29.259 21.572 30.4948 20.2557 32.0952 19.3182C33.705 18.3712 35.6132 17.8977 37.8196 17.8977C40.026 17.8977 41.9295 18.3712 43.5298 19.3182C45.1397 20.2557 46.3802 21.572 47.2514 23.267C48.1226 24.9527 48.5582 26.9223 48.5582 29.1761C48.5582 31.411 48.1226 33.3759 47.2514 35.071C46.3802 36.7566 45.1397 38.0729 43.5298 39.0199C41.9295 39.9574 40.026 40.4261 37.8196 40.4261ZM37.848 35.7386C38.8518 35.7386 39.6899 35.4545 40.3622 34.8864C41.0346 34.3087 41.5412 33.5227 41.8821 32.5284C42.2325 31.5341 42.4077 30.4025 42.4077 29.1335C42.4077 27.8646 42.2325 26.733 41.8821 25.7386C41.5412 24.7443 41.0346 23.9583 40.3622 23.3807C39.6899 22.803 38.8518 22.5142 37.848 22.5142C36.8348 22.5142 35.9825 22.803 35.2912 23.3807C34.6094 23.9583 34.0933 24.7443 33.7429 25.7386C33.402 26.733 33.2315 27.8646 33.2315 29.1335C33.2315 30.4025 33.402 31.5341 33.7429 32.5284C34.0933 33.5227 34.6094 34.3087 35.2912 34.8864C35.9825 35.4545 36.8348 35.7386 37.848 35.7386ZM52.4929 40V18.1818H58.544V40H52.4929ZM55.5327 15.3693C54.633 15.3693 53.8613 15.071 53.2173 14.4744C52.5829 13.8684 52.2656 13.1439 52.2656 12.3011C52.2656 11.4678 52.5829 10.7528 53.2173 10.1562C53.8613 9.55019 54.633 9.24716 55.5327 9.24716C56.4323 9.24716 57.1993 9.55019 57.8338 10.1562C58.4777 10.7528 58.7997 11.4678 58.7997 12.3011C58.7997 13.1439 58.4777 13.8684 57.8338 14.4744C57.1993 15.071 56.4323 15.3693 55.5327 15.3693ZM69.4425 27.3864V40H63.3913V18.1818H69.1584V22.0312H69.4141C69.897 20.7623 70.7067 19.7585 71.843 19.0199C72.9794 18.2718 74.3572 17.8977 75.9766 17.8977C77.4917 17.8977 78.8127 18.2292 79.9396 18.892C81.0665 19.5549 81.9425 20.5019 82.5675 21.733C83.1925 22.9545 83.505 24.4129 83.505 26.108V40H77.4538V27.1875C77.4633 25.8523 77.1224 24.8106 76.4311 24.0625C75.7398 23.3049 74.7881 22.9261 73.576 22.9261C72.7616 22.9261 72.0419 23.1013 71.4169 23.4517C70.8014 23.8021 70.3184 24.3134 69.968 24.9858C69.6271 25.6487 69.4519 26.4489 69.4425 27.3864ZM99.8793 18.1818V22.7273H86.7401V18.1818H99.8793ZM89.723 12.9545H95.7741V33.2955C95.7741 33.8542 95.8594 34.2898 96.0298 34.6023C96.2003 34.9053 96.437 35.1184 96.7401 35.2415C97.0526 35.3646 97.4124 35.4261 97.8196 35.4261C98.1037 35.4261 98.3878 35.4025 98.6719 35.3551C98.956 35.2983 99.1738 35.2557 99.3253 35.2273L100.277 39.7301C99.974 39.8248 99.5478 39.9337 98.9986 40.0568C98.4493 40.1894 97.7817 40.2699 96.9957 40.2983C95.5374 40.3551 94.259 40.161 93.1605 39.7159C92.0715 39.2708 91.224 38.5795 90.6179 37.642C90.0118 36.7045 89.7135 35.5208 89.723 34.0909V12.9545ZM113.53 40.4261C111.286 40.4261 109.354 39.9716 107.734 39.0625C106.125 38.1439 104.884 36.8466 104.013 35.1705C103.142 33.4848 102.706 31.4915 102.706 29.1903C102.706 26.946 103.142 24.9763 104.013 23.2812C104.884 21.5862 106.11 20.2652 107.692 19.3182C109.283 18.3712 111.148 17.8977 113.288 17.8977C114.728 17.8977 116.068 18.1297 117.308 18.5938C118.558 19.0483 119.647 19.7348 120.575 20.6534C121.513 21.572 122.242 22.7273 122.763 24.1193C123.284 25.5019 123.544 27.1212 123.544 28.9773V30.6392H105.121V26.8892H117.848C117.848 26.018 117.659 25.2462 117.28 24.5739C116.901 23.9015 116.375 23.3759 115.703 22.9972C115.04 22.6089 114.268 22.4148 113.388 22.4148C112.469 22.4148 111.655 22.6278 110.945 23.054C110.244 23.4706 109.695 24.0341 109.297 24.7443C108.899 25.4451 108.696 26.2263 108.686 27.0881V30.6534C108.686 31.733 108.885 32.6657 109.283 33.4517C109.69 34.2377 110.263 34.8438 111.001 35.2699C111.74 35.696 112.616 35.9091 113.629 35.9091C114.302 35.9091 114.917 35.8144 115.476 35.625C116.035 35.4356 116.513 35.1515 116.911 34.7727C117.308 34.3939 117.611 33.9299 117.82 33.3807L123.416 33.75C123.132 35.0947 122.55 36.2689 121.669 37.2727C120.798 38.267 119.671 39.0436 118.288 39.6023C116.915 40.1515 115.329 40.4261 113.53 40.4261ZM127.493 40V18.1818H133.359V21.9886H133.587C133.984 20.6345 134.652 19.6117 135.589 18.9205C136.527 18.2197 137.607 17.8693 138.828 17.8693C139.131 17.8693 139.458 17.8883 139.808 17.9261C140.159 17.964 140.466 18.0161 140.732 18.0824V23.4517C140.447 23.3665 140.054 23.2907 139.553 23.2244C139.051 23.1581 138.591 23.125 138.175 23.125C137.285 23.125 136.489 23.3191 135.788 23.7074C135.097 24.0862 134.548 24.6165 134.141 25.2983C133.743 25.9801 133.544 26.7661 133.544 27.6562V40H127.493ZM172.521 20.3125C172.322 19.6212 172.043 19.0104 171.683 18.4801C171.323 17.9403 170.883 17.4858 170.362 17.1165C169.851 16.7377 169.264 16.4489 168.601 16.25C167.947 16.0511 167.223 15.9517 166.428 15.9517C164.941 15.9517 163.634 16.321 162.507 17.0597C161.39 17.7983 160.518 18.8731 159.893 20.2841C159.268 21.6856 158.956 23.3996 158.956 25.4261C158.956 27.4527 159.264 29.1761 159.879 30.5966C160.495 32.017 161.366 33.1013 162.493 33.8494C163.62 34.5881 164.95 34.9574 166.484 34.9574C167.876 34.9574 169.065 34.7112 170.05 34.2188C171.044 33.7169 171.802 33.0114 172.322 32.1023C172.853 31.1932 173.118 30.1184 173.118 28.8778L174.368 29.0625H166.868V24.4318H179.041V28.0966C179.041 30.6534 178.501 32.8504 177.422 34.6875C176.342 36.5152 174.856 37.9261 172.962 38.9205C171.068 39.9053 168.899 40.3977 166.456 40.3977C163.729 40.3977 161.333 39.7964 159.268 38.5938C157.204 37.3816 155.594 35.6629 154.439 33.4375C153.293 31.2027 152.72 28.5511 152.72 25.483C152.72 23.125 153.061 21.0227 153.743 19.1761C154.434 17.3201 155.4 15.7481 156.641 14.4602C157.881 13.1723 159.325 12.1922 160.973 11.5199C162.621 10.8475 164.406 10.5114 166.328 10.5114C167.976 10.5114 169.51 10.7528 170.93 11.2358C172.351 11.7093 173.61 12.3816 174.709 13.2528C175.817 14.1241 176.721 15.161 177.422 16.3636C178.123 17.5568 178.572 18.8731 178.771 20.3125H172.521ZM193.491 40.4261C191.246 40.4261 189.315 39.9716 187.695 39.0625C186.085 38.1439 184.845 36.8466 183.974 35.1705C183.103 33.4848 182.667 31.4915 182.667 29.1903C182.667 26.946 183.103 24.9763 183.974 23.2812C184.845 21.5862 186.071 20.2652 187.653 19.3182C189.244 18.3712 191.109 17.8977 193.249 17.8977C194.689 17.8977 196.029 18.1297 197.269 18.5938C198.519 19.0483 199.608 19.7348 200.536 20.6534C201.474 21.572 202.203 22.7273 202.724 24.1193C203.245 25.5019 203.505 27.1212 203.505 28.9773V30.6392H185.082V26.8892H197.809C197.809 26.018 197.62 25.2462 197.241 24.5739C196.862 23.9015 196.336 23.3759 195.664 22.9972C195.001 22.6089 194.229 22.4148 193.349 22.4148C192.43 22.4148 191.616 22.6278 190.906 23.054C190.205 23.4706 189.656 24.0341 189.258 24.7443C188.86 25.4451 188.656 26.2263 188.647 27.0881V30.6534C188.647 31.733 188.846 32.6657 189.244 33.4517C189.651 34.2377 190.224 34.8438 190.962 35.2699C191.701 35.696 192.577 35.9091 193.59 35.9091C194.263 35.9091 194.878 35.8144 195.437 35.625C195.996 35.4356 196.474 35.1515 196.871 34.7727C197.269 34.3939 197.572 33.9299 197.781 33.3807L203.377 33.75C203.093 35.0947 202.511 36.2689 201.63 37.2727C200.759 38.267 199.632 39.0436 198.249 39.6023C196.876 40.1515 195.29 40.4261 193.491 40.4261ZM225.607 24.4034L220.067 24.7443C219.973 24.2708 219.769 23.8447 219.457 23.4659C219.144 23.0777 218.732 22.7699 218.221 22.5426C217.719 22.3059 217.118 22.1875 216.417 22.1875C215.479 22.1875 214.689 22.3864 214.045 22.7841C213.401 23.1723 213.079 23.6932 213.079 24.3466C213.079 24.8674 213.287 25.3078 213.704 25.6676C214.121 26.0275 214.835 26.3163 215.849 26.5341L219.798 27.3295C221.919 27.7652 223.5 28.4659 224.542 29.4318C225.584 30.3977 226.104 31.6667 226.104 33.2386C226.104 34.6686 225.683 35.9233 224.84 37.0028C224.007 38.0824 222.861 38.9252 221.403 39.5312C219.954 40.1278 218.282 40.4261 216.388 40.4261C213.5 40.4261 211.199 39.8248 209.485 38.6222C207.781 37.41 206.781 35.7623 206.488 33.679L212.44 33.3665C212.62 34.2472 213.055 34.9195 213.746 35.3835C214.438 35.8381 215.323 36.0653 216.403 36.0653C217.463 36.0653 218.316 35.8617 218.96 35.4545C219.613 35.0379 219.944 34.5028 219.954 33.8494C219.944 33.3002 219.712 32.8504 219.258 32.5C218.803 32.1402 218.103 31.8655 217.156 31.6761L213.377 30.9233C211.246 30.4972 209.66 29.7585 208.619 28.7074C207.586 27.6562 207.07 26.3163 207.07 24.6875C207.07 23.286 207.449 22.0786 208.207 21.0653C208.974 20.0521 210.049 19.2708 211.431 18.7216C212.823 18.1723 214.452 17.8977 216.317 17.8977C219.073 17.8977 221.242 18.4801 222.823 19.6449C224.414 20.8097 225.342 22.3958 225.607 24.4034ZM241.52 18.1818V22.7273H228.381V18.1818H241.52ZM231.364 12.9545H237.415V33.2955C237.415 33.8542 237.5 34.2898 237.67 34.6023C237.841 34.9053 238.078 35.1184 238.381 35.2415C238.693 35.3646 239.053 35.4261 239.46 35.4261C239.744 35.4261 240.028 35.4025 240.312 35.3551C240.597 35.2983 240.814 35.2557 240.966 35.2273L241.918 39.7301C241.615 39.8248 241.188 39.9337 240.639 40.0568C240.09 40.1894 239.422 40.2699 238.636 40.2983C237.178 40.3551 235.9 40.161 234.801 39.7159C233.712 39.2708 232.865 38.5795 232.259 37.642C231.652 36.7045 231.354 35.5208 231.364 34.0909V12.9545ZM259.453 30.7102V18.1818H265.504V40H259.695V36.0369H259.467C258.975 37.3153 258.156 38.3428 257.01 39.1193C255.874 39.8958 254.486 40.2841 252.848 40.2841C251.39 40.2841 250.107 39.9527 248.999 39.2898C247.891 38.6269 247.024 37.6847 246.399 36.4631C245.784 35.2415 245.471 33.7784 245.462 32.0739V18.1818H251.513V30.9943C251.522 32.2822 251.868 33.3002 252.55 34.0483C253.232 34.7964 254.145 35.1705 255.291 35.1705C256.02 35.1705 256.702 35.0047 257.337 34.6733C257.971 34.3324 258.482 33.8305 258.871 33.1676C259.268 32.5047 259.463 31.6856 259.453 30.7102ZM270.344 40V18.1818H276.211V21.9886H276.438C276.836 20.6345 277.504 19.6117 278.441 18.9205C279.379 18.2197 280.458 17.8693 281.68 17.8693C281.983 17.8693 282.309 17.8883 282.66 17.9261C283.01 17.964 283.318 18.0161 283.583 18.0824V23.4517C283.299 23.3665 282.906 23.2907 282.404 23.2244C281.902 23.1581 281.443 23.125 281.026 23.125C280.136 23.125 279.341 23.3191 278.64 23.7074C277.949 24.0862 277.399 24.6165 276.992 25.2983C276.594 25.9801 276.396 26.7661 276.396 27.6562V40H270.344ZM295.639 40.4261C293.395 40.4261 291.463 39.9716 289.844 39.0625C288.234 38.1439 286.993 36.8466 286.122 35.1705C285.251 33.4848 284.815 31.4915 284.815 29.1903C284.815 26.946 285.251 24.9763 286.122 23.2812C286.993 21.5862 288.22 20.2652 289.801 19.3182C291.392 18.3712 293.258 17.8977 295.398 17.8977C296.837 17.8977 298.177 18.1297 299.418 18.5938C300.668 19.0483 301.757 19.7348 302.685 20.6534C303.622 21.572 304.351 22.7273 304.872 24.1193C305.393 25.5019 305.653 27.1212 305.653 28.9773V30.6392H287.23V26.8892H299.957C299.957 26.018 299.768 25.2462 299.389 24.5739C299.01 23.9015 298.485 23.3759 297.812 22.9972C297.15 22.6089 296.378 22.4148 295.497 22.4148C294.579 22.4148 293.764 22.6278 293.054 23.054C292.353 23.4706 291.804 24.0341 291.406 24.7443C291.009 25.4451 290.805 26.2263 290.795 27.0881V30.6534C290.795 31.733 290.994 32.6657 291.392 33.4517C291.799 34.2377 292.372 34.8438 293.111 35.2699C293.849 35.696 294.725 35.9091 295.739 35.9091C296.411 35.9091 297.027 35.8144 297.585 35.625C298.144 35.4356 298.622 35.1515 299.02 34.7727C299.418 34.3939 299.721 33.9299 299.929 33.3807L305.526 33.75C305.241 35.0947 304.659 36.2689 303.778 37.2727C302.907 38.267 301.78 39.0436 300.398 39.6023C299.025 40.1515 297.438 40.4261 295.639 40.4261ZM327.756 24.4034L322.216 24.7443C322.121 24.2708 321.918 23.8447 321.605 23.4659C321.293 23.0777 320.881 22.7699 320.369 22.5426C319.867 22.3059 319.266 22.1875 318.565 22.1875C317.628 22.1875 316.837 22.3864 316.193 22.7841C315.549 23.1723 315.227 23.6932 315.227 24.3466C315.227 24.8674 315.436 25.3078 315.852 25.6676C316.269 26.0275 316.984 26.3163 317.997 26.5341L321.946 27.3295C324.067 27.7652 325.649 28.4659 326.69 29.4318C327.732 30.3977 328.253 31.6667 328.253 33.2386C328.253 34.6686 327.831 35.9233 326.989 37.0028C326.155 38.0824 325.009 38.9252 323.551 39.5312C322.102 40.1278 320.431 40.4261 318.537 40.4261C315.649 40.4261 313.348 39.8248 311.634 38.6222C309.929 37.41 308.93 35.7623 308.636 33.679L314.588 33.3665C314.768 34.2472 315.204 34.9195 315.895 35.3835C316.586 35.8381 317.472 36.0653 318.551 36.0653C319.612 36.0653 320.464 35.8617 321.108 35.4545C321.761 35.0379 322.093 34.5028 322.102 33.8494C322.093 33.3002 321.861 32.8504 321.406 32.5C320.952 32.1402 320.251 31.8655 319.304 31.6761L315.526 30.9233C313.395 30.4972 311.809 29.7585 310.767 28.7074C309.735 27.6562 309.219 26.3163 309.219 24.6875C309.219 23.286 309.598 22.0786 310.355 21.0653C311.122 20.0521 312.197 19.2708 313.58 18.7216C314.972 18.1723 316.6 17.8977 318.466 17.8977C321.222 17.8977 323.39 18.4801 324.972 19.6449C326.563 20.8097 327.491 22.3958 327.756 24.4034Z" fill="white" fill-opacity="0.95"/>
<path d="M13.5682 83.5455H15.6818V95.1023C15.6818 96.2955 15.4006 97.3608 14.8381 98.2983C14.2813 99.2301 13.4943 99.9659 12.4773 100.506C11.4602 101.04 10.267 101.307 8.89773 101.307C7.52841 101.307 6.33523 101.04 5.31818 100.506C4.30114 99.9659 3.51136 99.2301 2.94886 98.2983C2.39205 97.3608 2.11364 96.2955 2.11364 95.1023V83.5455H4.22727V94.9318C4.22727 95.7841 4.41477 96.5426 4.78977 97.2074C5.16477 97.8665 5.69886 98.3864 6.39205 98.767C7.09091 99.142 7.92614 99.3295 8.89773 99.3295C9.86932 99.3295 10.7045 99.142 11.4034 98.767C12.1023 98.3864 12.6364 97.8665 13.0057 97.2074C13.3807 96.5426 13.5682 95.7841 13.5682 94.9318V83.5455ZM28.9027 90.8409L27.0959 91.3523C26.9822 91.0511 26.8146 90.7585 26.593 90.4744C26.3771 90.1847 26.0817 89.946 25.7067 89.7585C25.3317 89.571 24.8516 89.4773 24.2663 89.4773C23.4652 89.4773 22.7976 89.6619 22.2635 90.0312C21.7351 90.3949 21.4709 90.858 21.4709 91.4205C21.4709 91.9205 21.6527 92.3153 22.0163 92.6051C22.38 92.8949 22.9482 93.1364 23.7209 93.3295L25.6641 93.8068C26.8345 94.0909 27.7067 94.5256 28.2805 95.1108C28.8544 95.6903 29.1413 96.4375 29.1413 97.3523C29.1413 98.1023 28.9254 98.7727 28.4936 99.3636C28.0675 99.9545 27.4709 100.42 26.7038 100.761C25.9368 101.102 25.0447 101.273 24.0277 101.273C22.6925 101.273 21.5874 100.983 20.7124 100.403C19.8374 99.8239 19.2834 98.9773 19.0504 97.8636L20.9595 97.3864C21.1413 98.0909 21.4851 98.6193 21.9908 98.9716C22.5021 99.3239 23.1697 99.5 23.9936 99.5C24.9311 99.5 25.6754 99.3011 26.2266 98.9034C26.7834 98.5 27.0618 98.017 27.0618 97.4545C27.0618 97 26.9027 96.6193 26.5845 96.3125C26.2663 96 25.7777 95.767 25.1186 95.6136L22.9368 95.1023C21.7379 94.8182 20.8572 94.3778 20.2947 93.7812C19.7379 93.179 19.4595 92.4261 19.4595 91.5227C19.4595 90.7841 19.6669 90.1307 20.0817 89.5625C20.5021 88.9943 21.0732 88.5483 21.7947 88.2244C22.522 87.9006 23.3459 87.7386 24.2663 87.7386C25.5618 87.7386 26.5788 88.0227 27.3175 88.5909C28.0618 89.1591 28.5902 89.9091 28.9027 90.8409ZM37.6577 101.273C36.3963 101.273 35.3082 100.994 34.3935 100.438C33.4844 99.875 32.7827 99.0909 32.2884 98.0852C31.7997 97.0739 31.5554 95.8977 31.5554 94.5568C31.5554 93.2159 31.7997 92.0341 32.2884 91.0114C32.7827 89.983 33.4702 89.1818 34.3509 88.608C35.2372 88.0284 36.2713 87.7386 37.4531 87.7386C38.1349 87.7386 38.8082 87.8523 39.473 88.0795C40.1378 88.3068 40.7429 88.6761 41.2884 89.1875C41.8338 89.6932 42.2685 90.3636 42.5923 91.1989C42.9162 92.0341 43.0781 93.0625 43.0781 94.2841V95.1364H32.9872V93.3977H41.0327C41.0327 92.6591 40.8849 92 40.5895 91.4205C40.2997 90.8409 39.8849 90.3835 39.3452 90.0483C38.8111 89.7131 38.1804 89.5455 37.4531 89.5455C36.652 89.5455 35.9588 89.7443 35.3736 90.142C34.794 90.5341 34.348 91.0455 34.0355 91.6761C33.723 92.3068 33.5668 92.983 33.5668 93.7045V94.8636C33.5668 95.8523 33.7372 96.6903 34.0781 97.3778C34.4247 98.0597 34.9048 98.5795 35.5185 98.9375C36.1321 99.2898 36.8452 99.4659 37.6577 99.4659C38.1861 99.4659 38.6634 99.392 39.0895 99.2443C39.5213 99.0909 39.8935 98.8636 40.206 98.5625C40.5185 98.2557 40.7599 97.875 40.9304 97.4205L42.8736 97.9659C42.669 98.625 42.3253 99.2045 41.8423 99.7045C41.3594 100.199 40.7628 100.585 40.0526 100.864C39.3423 101.136 38.544 101.273 37.6577 101.273ZM46.1378 101V87.9091H48.081V89.8864H48.2173C48.456 89.2386 48.8878 88.7131 49.5128 88.3097C50.1378 87.9062 50.8423 87.7045 51.6264 87.7045C51.7741 87.7045 51.9588 87.7074 52.1804 87.7131C52.402 87.7187 52.5696 87.7273 52.6832 87.7386V89.7841C52.6151 89.767 52.4588 89.7415 52.2145 89.7074C51.9759 89.6676 51.723 89.6477 51.456 89.6477C50.8196 89.6477 50.2514 89.7812 49.7514 90.0483C49.2571 90.3097 48.8651 90.6733 48.5753 91.1392C48.2912 91.5994 48.1491 92.125 48.1491 92.7159V101H46.1378ZM64.3402 90.8409L62.5334 91.3523C62.4197 91.0511 62.2521 90.7585 62.0305 90.4744C61.8146 90.1847 61.5192 89.946 61.1442 89.7585C60.7692 89.571 60.2891 89.4773 59.7038 89.4773C58.9027 89.4773 58.2351 89.6619 57.701 90.0312C57.1726 90.3949 56.9084 90.858 56.9084 91.4205C56.9084 91.9205 57.0902 92.3153 57.4538 92.6051C57.8175 92.8949 58.3857 93.1364 59.1584 93.3295L61.1016 93.8068C62.272 94.0909 63.1442 94.5256 63.718 95.1108C64.2919 95.6903 64.5788 96.4375 64.5788 97.3523C64.5788 98.1023 64.3629 98.7727 63.9311 99.3636C63.505 99.9545 62.9084 100.42 62.1413 100.761C61.3743 101.102 60.4822 101.273 59.4652 101.273C58.13 101.273 57.0249 100.983 56.1499 100.403C55.2749 99.8239 54.7209 98.9773 54.4879 97.8636L56.397 97.3864C56.5788 98.0909 56.9226 98.6193 57.4283 98.9716C57.9396 99.3239 58.6072 99.5 59.4311 99.5C60.3686 99.5 61.1129 99.3011 61.6641 98.9034C62.2209 98.5 62.4993 98.017 62.4993 97.4545C62.4993 97 62.3402 96.6193 62.022 96.3125C61.7038 96 61.2152 95.767 60.5561 95.6136L58.3743 95.1023C57.1754 94.8182 56.2947 94.3778 55.7322 93.7812C55.1754 93.179 54.897 92.4261 54.897 91.5227C54.897 90.7841 55.1044 90.1307 55.5192 89.5625C55.9396 88.9943 56.5107 88.5483 57.2322 88.2244C57.9595 87.9006 58.7834 87.7386 59.7038 87.7386C60.9993 87.7386 62.0163 88.0227 62.755 88.5909C63.4993 89.1591 64.0277 89.9091 64.3402 90.8409ZM79.6747 101.273C78.4474 101.273 77.3906 100.983 76.5043 100.403C75.6179 99.8239 74.9361 99.0256 74.4588 98.0085C73.9815 96.9915 73.7429 95.8295 73.7429 94.5227C73.7429 93.1932 73.9872 92.0199 74.4759 91.0028C74.9702 89.9801 75.6577 89.1818 76.5384 88.608C77.4247 88.0284 78.4588 87.7386 79.6406 87.7386C80.5611 87.7386 81.3906 87.9091 82.1293 88.25C82.8679 88.5909 83.473 89.0682 83.9446 89.6818C84.4162 90.2955 84.7088 91.0114 84.8224 91.8295H82.8111C82.6577 91.233 82.3168 90.7045 81.7884 90.2443C81.2656 89.7784 80.5611 89.5455 79.6747 89.5455C78.8906 89.5455 78.2031 89.75 77.6122 90.1591C77.027 90.5625 76.5696 91.1335 76.2401 91.8722C75.9162 92.6051 75.7543 93.4659 75.7543 94.4545C75.7543 95.4659 75.9134 96.3466 76.2315 97.0966C76.5554 97.8466 77.0099 98.429 77.5952 98.8438C78.1861 99.2585 78.8793 99.4659 79.6747 99.4659C80.1974 99.4659 80.6719 99.375 81.098 99.1932C81.5241 99.0114 81.8849 98.75 82.1804 98.4091C82.4759 98.0682 82.6861 97.6591 82.8111 97.1818H84.8224C84.7088 97.9545 84.4276 98.6506 83.9787 99.2699C83.5355 99.8835 82.9474 100.372 82.2145 100.736C81.4872 101.094 80.6406 101.273 79.6747 101.273ZM91.6151 101.307C90.7855 101.307 90.0327 101.151 89.3565 100.838C88.6804 100.52 88.1435 100.062 87.7457 99.4659C87.348 98.8636 87.1491 98.1364 87.1491 97.2841C87.1491 96.5341 87.2969 95.9261 87.5923 95.4602C87.8878 94.9886 88.2827 94.6193 88.777 94.3523C89.2713 94.0852 89.8168 93.8864 90.4134 93.7557C91.0156 93.6193 91.6207 93.5114 92.2287 93.4318C93.0241 93.3295 93.669 93.2528 94.1634 93.2017C94.6634 93.1449 95.027 93.0511 95.2543 92.9205C95.4872 92.7898 95.6037 92.5625 95.6037 92.2386V92.1705C95.6037 91.3295 95.3736 90.6761 94.9134 90.2102C94.4588 89.7443 93.7685 89.5114 92.8423 89.5114C91.8821 89.5114 91.1293 89.7216 90.5838 90.142C90.0384 90.5625 89.6548 91.0114 89.4332 91.4886L87.5241 90.8068C87.8651 90.0114 88.3196 89.392 88.8878 88.9489C89.4616 88.5 90.0866 88.1875 90.7628 88.0114C91.4446 87.8295 92.1151 87.7386 92.7741 87.7386C93.1946 87.7386 93.6776 87.7898 94.223 87.892C94.7741 87.9886 95.3054 88.1903 95.8168 88.4972C96.3338 88.804 96.7628 89.267 97.1037 89.8864C97.4446 90.5057 97.6151 91.3352 97.6151 92.375V101H95.6037V99.2273H95.5014C95.3651 99.5114 95.1378 99.8153 94.8196 100.139C94.5014 100.463 94.0781 100.739 93.5497 100.966C93.0213 101.193 92.3764 101.307 91.6151 101.307ZM91.9219 99.5C92.7173 99.5 93.3878 99.3438 93.9332 99.0312C94.4844 98.7188 94.8991 98.3153 95.1776 97.821C95.4616 97.3267 95.6037 96.8068 95.6037 96.2614V94.4205C95.5185 94.5227 95.331 94.6165 95.0412 94.7017C94.7571 94.7812 94.4276 94.8523 94.0526 94.9148C93.6832 94.9716 93.3224 95.0227 92.9702 95.0682C92.6236 95.108 92.3423 95.142 92.1264 95.1705C91.6037 95.2386 91.1151 95.3494 90.6605 95.5028C90.2116 95.6506 89.848 95.875 89.5696 96.1761C89.2969 96.4716 89.1605 96.875 89.1605 97.3864C89.1605 98.0852 89.419 98.6136 89.9361 98.9716C90.4588 99.3239 91.1207 99.5 91.9219 99.5ZM103.298 93.125V101H101.286V87.9091H103.229V89.9545H103.4C103.707 89.2898 104.173 88.7557 104.798 88.3523C105.423 87.9432 106.229 87.7386 107.218 87.7386C108.104 87.7386 108.88 87.9205 109.545 88.2841C110.21 88.642 110.727 89.1875 111.096 89.9205C111.465 90.6477 111.65 91.5682 111.65 92.6818V101H109.638V92.8182C109.638 91.7898 109.371 90.9886 108.837 90.4148C108.303 89.8352 107.57 89.5455 106.638 89.5455C105.996 89.5455 105.423 89.6847 104.917 89.9631C104.417 90.2415 104.022 90.6477 103.732 91.1818C103.442 91.7159 103.298 92.3636 103.298 93.125ZM122.075 101V87.9091H124.018V89.9545H124.189C124.462 89.2557 124.902 88.7131 125.51 88.3267C126.118 87.9347 126.848 87.7386 127.7 87.7386C128.564 87.7386 129.283 87.9347 129.857 88.3267C130.436 88.7131 130.888 89.2557 131.212 89.9545H131.348C131.683 89.2784 132.186 88.7415 132.857 88.3438C133.527 87.9403 134.331 87.7386 135.268 87.7386C136.439 87.7386 137.396 88.1051 138.141 88.8381C138.885 89.5653 139.257 90.6989 139.257 92.2386V101H137.246V92.2386C137.246 91.2727 136.982 90.5824 136.453 90.1676C135.925 89.7528 135.303 89.5455 134.587 89.5455C133.666 89.5455 132.953 89.8239 132.447 90.3807C131.942 90.9318 131.689 91.6307 131.689 92.4773V101H129.643V92.0341C129.643 91.2898 129.402 90.6903 128.919 90.2358C128.436 89.7756 127.814 89.5455 127.053 89.5455C126.53 89.5455 126.041 89.6847 125.587 89.9631C125.138 90.2415 124.774 90.6278 124.496 91.1222C124.223 91.6108 124.087 92.1761 124.087 92.8182V101H122.075ZM148.253 101.273C147.071 101.273 146.034 100.991 145.142 100.429C144.256 99.8665 143.562 99.0795 143.062 98.0682C142.568 97.0568 142.321 95.875 142.321 94.5227C142.321 93.1591 142.568 91.9687 143.062 90.9517C143.562 89.9347 144.256 89.1449 145.142 88.5824C146.034 88.0199 147.071 87.7386 148.253 87.7386C149.435 87.7386 150.469 88.0199 151.355 88.5824C152.247 89.1449 152.94 89.9347 153.435 90.9517C153.935 91.9687 154.185 93.1591 154.185 94.5227C154.185 95.875 153.935 97.0568 153.435 98.0682C152.94 99.0795 152.247 99.8665 151.355 100.429C150.469 100.991 149.435 101.273 148.253 101.273ZM148.253 99.4659C149.151 99.4659 149.889 99.2358 150.469 98.7756C151.048 98.3153 151.477 97.7102 151.756 96.9602C152.034 96.2102 152.173 95.3977 152.173 94.5227C152.173 93.6477 152.034 92.8324 151.756 92.0767C151.477 91.321 151.048 90.7102 150.469 90.2443C149.889 89.7784 149.151 89.5455 148.253 89.5455C147.355 89.5455 146.616 89.7784 146.037 90.2443C145.457 90.7102 145.028 91.321 144.75 92.0767C144.472 92.8324 144.332 93.6477 144.332 94.5227C144.332 95.3977 144.472 96.2102 144.75 96.9602C145.028 97.7102 145.457 98.3153 146.037 98.7756C146.616 99.2358 147.355 99.4659 148.253 99.4659ZM167.491 87.9091L162.65 101H160.604L155.763 87.9091H157.945L161.559 98.3409H161.695L165.309 87.9091H167.491ZM175.165 101.273C173.904 101.273 172.816 100.994 171.901 100.438C170.992 99.875 170.29 99.0909 169.796 98.0852C169.308 97.0739 169.063 95.8977 169.063 94.5568C169.063 93.2159 169.308 92.0341 169.796 91.0114C170.29 89.983 170.978 89.1818 171.859 88.608C172.745 88.0284 173.779 87.7386 174.961 87.7386C175.643 87.7386 176.316 87.8523 176.981 88.0795C177.646 88.3068 178.251 88.6761 178.796 89.1875C179.342 89.6932 179.776 90.3636 180.1 91.1989C180.424 92.0341 180.586 93.0625 180.586 94.2841V95.1364H170.495V93.3977H178.54C178.54 92.6591 178.393 92 178.097 91.4205C177.808 90.8409 177.393 90.3835 176.853 90.0483C176.319 89.7131 175.688 89.5455 174.961 89.5455C174.16 89.5455 173.467 89.7443 172.881 90.142C172.302 90.5341 171.856 91.0455 171.543 91.6761C171.231 92.3068 171.075 92.983 171.075 93.7045V94.8636C171.075 95.8523 171.245 96.6903 171.586 97.3778C171.933 98.0597 172.413 98.5795 173.026 98.9375C173.64 99.2898 174.353 99.4659 175.165 99.4659C175.694 99.4659 176.171 99.392 176.597 99.2443C177.029 99.0909 177.401 98.8636 177.714 98.5625C178.026 98.2557 178.268 97.875 178.438 97.4205L180.381 97.9659C180.177 98.625 179.833 99.2045 179.35 99.7045C178.867 100.199 178.271 100.585 177.56 100.864C176.85 101.136 176.052 101.273 175.165 101.273ZM196.089 87.9091V89.6136H189.305V87.9091H196.089ZM191.282 84.7727H193.293V97.25C193.293 97.8182 193.376 98.2443 193.54 98.5284C193.711 98.8068 193.927 98.9943 194.188 99.0909C194.455 99.1818 194.737 99.2273 195.032 99.2273C195.254 99.2273 195.435 99.2159 195.577 99.1932C195.719 99.1648 195.833 99.142 195.918 99.125L196.327 100.932C196.191 100.983 196.001 101.034 195.756 101.085C195.512 101.142 195.202 101.17 194.827 101.17C194.259 101.17 193.702 101.048 193.157 100.804C192.617 100.56 192.168 100.188 191.81 99.6875C191.458 99.1875 191.282 98.5568 191.282 97.7955V84.7727ZM204.292 101.273C203.11 101.273 202.073 100.991 201.181 100.429C200.295 99.8665 199.602 99.0795 199.102 98.0682C198.607 97.0568 198.36 95.875 198.36 94.5227C198.36 93.1591 198.607 91.9687 199.102 90.9517C199.602 89.9347 200.295 89.1449 201.181 88.5824C202.073 88.0199 203.11 87.7386 204.292 87.7386C205.474 87.7386 206.508 88.0199 207.394 88.5824C208.286 89.1449 208.979 89.9347 209.474 90.9517C209.974 91.9687 210.224 93.1591 210.224 94.5227C210.224 95.875 209.974 97.0568 209.474 98.0682C208.979 99.0795 208.286 99.8665 207.394 100.429C206.508 100.991 205.474 101.273 204.292 101.273ZM204.292 99.4659C205.19 99.4659 205.928 99.2358 206.508 98.7756C207.087 98.3153 207.516 97.7102 207.795 96.9602C208.073 96.2102 208.212 95.3977 208.212 94.5227C208.212 93.6477 208.073 92.8324 207.795 92.0767C207.516 91.321 207.087 90.7102 206.508 90.2443C205.928 89.7784 205.19 89.5455 204.292 89.5455C203.394 89.5455 202.656 89.7784 202.076 90.2443C201.496 90.7102 201.067 91.321 200.789 92.0767C200.511 92.8324 200.371 93.6477 200.371 94.5227C200.371 95.3977 200.511 96.2102 200.789 96.9602C201.067 97.7102 201.496 98.3153 202.076 98.7756C202.656 99.2358 203.394 99.4659 204.292 99.4659ZM225.533 101.273C224.271 101.273 223.183 100.994 222.268 100.438C221.359 99.875 220.658 99.0909 220.163 98.0852C219.675 97.0739 219.43 95.8977 219.43 94.5568C219.43 93.2159 219.675 92.0341 220.163 91.0114C220.658 89.983 221.345 89.1818 222.226 88.608C223.112 88.0284 224.146 87.7386 225.328 87.7386C226.01 87.7386 226.683 87.8523 227.348 88.0795C228.013 88.3068 228.618 88.6761 229.163 89.1875C229.709 89.6932 230.143 90.3636 230.467 91.1989C230.791 92.0341 230.953 93.0625 230.953 94.2841V95.1364H220.862V93.3977H228.908C228.908 92.6591 228.76 92 228.464 91.4205C228.175 90.8409 227.76 90.3835 227.22 90.0483C226.686 89.7131 226.055 89.5455 225.328 89.5455C224.527 89.5455 223.834 89.7443 223.249 90.142C222.669 90.5341 222.223 91.0455 221.911 91.6761C221.598 92.3068 221.442 92.983 221.442 93.7045V94.8636C221.442 95.8523 221.612 96.6903 221.953 97.3778C222.3 98.0597 222.78 98.5795 223.393 98.9375C224.007 99.2898 224.72 99.4659 225.533 99.4659C226.061 99.4659 226.538 99.392 226.964 99.2443C227.396 99.0909 227.768 98.8636 228.081 98.5625C228.393 98.2557 228.635 97.875 228.805 97.4205L230.749 97.9659C230.544 98.625 230.2 99.2045 229.717 99.7045C229.234 100.199 228.638 100.585 227.928 100.864C227.217 101.136 226.419 101.273 225.533 101.273ZM237.865 101.307C237.036 101.307 236.283 101.151 235.607 100.838C234.93 100.52 234.393 100.062 233.996 99.4659C233.598 98.8636 233.399 98.1364 233.399 97.2841C233.399 96.5341 233.547 95.9261 233.842 95.4602C234.138 94.9886 234.533 94.6193 235.027 94.3523C235.521 94.0852 236.067 93.8864 236.663 93.7557C237.266 93.6193 237.871 93.5114 238.479 93.4318C239.274 93.3295 239.919 93.2528 240.413 93.2017C240.913 93.1449 241.277 93.0511 241.504 92.9205C241.737 92.7898 241.854 92.5625 241.854 92.2386V92.1705C241.854 91.3295 241.624 90.6761 241.163 90.2102C240.709 89.7443 240.018 89.5114 239.092 89.5114C238.132 89.5114 237.379 89.7216 236.834 90.142C236.288 90.5625 235.905 91.0114 235.683 91.4886L233.774 90.8068C234.115 90.0114 234.57 89.392 235.138 88.9489C235.712 88.5 236.337 88.1875 237.013 88.0114C237.695 87.8295 238.365 87.7386 239.024 87.7386C239.445 87.7386 239.928 87.7898 240.473 87.892C241.024 87.9886 241.555 88.1903 242.067 88.4972C242.584 88.804 243.013 89.267 243.354 89.8864C243.695 90.5057 243.865 91.3352 243.865 92.375V101H241.854V99.2273H241.751C241.615 99.5114 241.388 99.8153 241.07 100.139C240.751 100.463 240.328 100.739 239.8 100.966C239.271 101.193 238.626 101.307 237.865 101.307ZM238.172 99.5C238.967 99.5 239.638 99.3438 240.183 99.0312C240.734 98.7188 241.149 98.3153 241.428 97.821C241.712 97.3267 241.854 96.8068 241.854 96.2614V94.4205C241.768 94.5227 241.581 94.6165 241.291 94.7017C241.007 94.7812 240.678 94.8523 240.303 94.9148C239.933 94.9716 239.572 95.0227 239.22 95.0682C238.874 95.108 238.592 95.142 238.376 95.1705C237.854 95.2386 237.365 95.3494 236.911 95.5028C236.462 95.6506 236.098 95.875 235.82 96.1761C235.547 96.4716 235.411 96.875 235.411 97.3864C235.411 98.0852 235.669 98.6136 236.186 98.9716C236.709 99.3239 237.371 99.5 238.172 99.5ZM252.854 101.273C251.627 101.273 250.57 100.983 249.684 100.403C248.798 99.8239 248.116 99.0256 247.638 98.0085C247.161 96.9915 246.923 95.8295 246.923 94.5227C246.923 93.1932 247.167 92.0199 247.656 91.0028C248.15 89.9801 248.837 89.1818 249.718 88.608C250.604 88.0284 251.638 87.7386 252.82 87.7386C253.741 87.7386 254.57 87.9091 255.309 88.25C256.048 88.5909 256.653 89.0682 257.124 89.6818C257.596 90.2955 257.888 91.0114 258.002 91.8295H255.991C255.837 91.233 255.496 90.7045 254.968 90.2443C254.445 89.7784 253.741 89.5455 252.854 89.5455C252.07 89.5455 251.383 89.75 250.792 90.1591C250.207 90.5625 249.749 91.1335 249.42 91.8722C249.096 92.6051 248.934 93.4659 248.934 94.4545C248.934 95.4659 249.093 96.3466 249.411 97.0966C249.735 97.8466 250.19 98.429 250.775 98.8438C251.366 99.2585 252.059 99.4659 252.854 99.4659C253.377 99.4659 253.852 99.375 254.278 99.1932C254.704 99.0114 255.065 98.75 255.36 98.4091C255.656 98.0682 255.866 97.6591 255.991 97.1818H258.002C257.888 97.9545 257.607 98.6506 257.158 99.2699C256.715 99.8835 256.127 100.372 255.394 100.736C254.667 101.094 253.82 101.273 252.854 101.273ZM262.954 93.125V101H260.942V83.5455H262.954V89.9545H263.124C263.431 89.2784 263.891 88.7415 264.505 88.3438C265.124 87.9403 265.948 87.7386 266.977 87.7386C267.869 87.7386 268.65 87.9176 269.32 88.2756C269.991 88.6278 270.511 89.1705 270.88 89.9034C271.255 90.6307 271.442 91.5568 271.442 92.6818V101H269.431V92.8182C269.431 91.7784 269.161 90.9744 268.621 90.4062C268.087 89.8324 267.346 89.5455 266.397 89.5455C265.738 89.5455 265.147 89.6847 264.624 89.9631C264.107 90.2415 263.698 90.6477 263.397 91.1818C263.102 91.7159 262.954 92.3636 262.954 93.125ZM291.145 90.8409L289.338 91.3523C289.224 91.0511 289.057 90.7585 288.835 90.4744C288.619 90.1847 288.324 89.946 287.949 89.7585C287.574 89.571 287.094 89.4773 286.509 89.4773C285.707 89.4773 285.04 89.6619 284.506 90.0312C283.977 90.3949 283.713 90.858 283.713 91.4205C283.713 91.9205 283.895 92.3153 284.259 92.6051C284.622 92.8949 285.19 93.1364 285.963 93.3295L287.906 93.8068C289.077 94.0909 289.949 94.5256 290.523 95.1108C291.097 95.6903 291.384 96.4375 291.384 97.3523C291.384 98.1023 291.168 98.7727 290.736 99.3636C290.31 99.9545 289.713 100.42 288.946 100.761C288.179 101.102 287.287 101.273 286.27 101.273C284.935 101.273 283.83 100.983 282.955 100.403C282.08 99.8239 281.526 98.9773 281.293 97.8636L283.202 97.3864C283.384 98.0909 283.727 98.6193 284.233 98.9716C284.744 99.3239 285.412 99.5 286.236 99.5C287.173 99.5 287.918 99.3011 288.469 98.9034C289.026 98.5 289.304 98.017 289.304 97.4545C289.304 97 289.145 96.6193 288.827 96.3125C288.509 96 288.02 95.767 287.361 95.6136L285.179 95.1023C283.98 94.8182 283.099 94.3778 282.537 93.7812C281.98 93.179 281.702 92.4261 281.702 91.5227C281.702 90.7841 281.909 90.1307 282.324 89.5625C282.744 88.9943 283.315 88.5483 284.037 88.2244C284.764 87.9006 285.588 87.7386 286.509 87.7386C287.804 87.7386 288.821 88.0227 289.56 88.5909C290.304 89.1591 290.832 89.9091 291.145 90.8409ZM300.104 87.9091V89.6136H293.32V87.9091H300.104ZM295.298 84.7727H297.309V97.25C297.309 97.8182 297.391 98.2443 297.556 98.5284C297.727 98.8068 297.942 98.9943 298.204 99.0909C298.471 99.1818 298.752 99.2273 299.048 99.2273C299.269 99.2273 299.451 99.2159 299.593 99.1932C299.735 99.1648 299.849 99.142 299.934 99.125L300.343 100.932C300.207 100.983 300.016 101.034 299.772 101.085C299.528 101.142 299.218 101.17 298.843 101.17C298.275 101.17 297.718 101.048 297.173 100.804C296.633 100.56 296.184 100.188 295.826 99.6875C295.474 99.1875 295.298 98.5568 295.298 97.7955V84.7727ZM308.478 101.273C307.217 101.273 306.129 100.994 305.214 100.438C304.305 99.875 303.603 99.0909 303.109 98.0852C302.62 97.0739 302.376 95.8977 302.376 94.5568C302.376 93.2159 302.62 92.0341 303.109 91.0114C303.603 89.983 304.29 89.1818 305.171 88.608C306.058 88.0284 307.092 87.7386 308.273 87.7386C308.955 87.7386 309.629 87.8523 310.293 88.0795C310.958 88.3068 311.563 88.6761 312.109 89.1875C312.654 89.6932 313.089 90.3636 313.413 91.1989C313.737 92.0341 313.898 93.0625 313.898 94.2841V95.1364H303.808V93.3977H311.853C311.853 92.6591 311.705 92 311.41 91.4205C311.12 90.8409 310.705 90.3835 310.165 90.0483C309.631 89.7131 309.001 89.5455 308.273 89.5455C307.472 89.5455 306.779 89.7443 306.194 90.142C305.614 90.5341 305.168 91.0455 304.856 91.6761C304.543 92.3068 304.387 92.983 304.387 93.7045V94.8636C304.387 95.8523 304.558 96.6903 304.898 97.3778C305.245 98.0597 305.725 98.5795 306.339 98.9375C306.952 99.2898 307.665 99.4659 308.478 99.4659C309.006 99.4659 309.484 99.392 309.91 99.2443C310.342 99.0909 310.714 98.8636 311.026 98.5625C311.339 98.2557 311.58 97.875 311.751 97.4205L313.694 97.9659C313.489 98.625 313.146 99.2045 312.663 99.7045C312.18 100.199 311.583 100.585 310.873 100.864C310.163 101.136 309.364 101.273 308.478 101.273ZM316.958 105.909V87.9091H318.901V89.9886H319.14C319.288 89.7614 319.492 89.4716 319.754 89.1193C320.021 88.7614 320.401 88.4432 320.896 88.1648C321.396 87.8807 322.072 87.7386 322.924 87.7386C324.026 87.7386 324.998 88.0142 325.839 88.5653C326.68 89.1165 327.336 89.8977 327.808 90.9091C328.279 91.9205 328.515 93.1136 328.515 94.4886C328.515 95.875 328.279 97.0767 327.808 98.0938C327.336 99.1051 326.683 99.8892 325.847 100.446C325.012 100.997 324.049 101.273 322.958 101.273C322.117 101.273 321.444 101.134 320.938 100.855C320.433 100.571 320.043 100.25 319.771 99.892C319.498 99.5284 319.288 99.2273 319.14 98.9886H318.969V105.909H316.958ZM318.935 94.4545C318.935 95.4432 319.08 96.3153 319.37 97.071C319.66 97.821 320.083 98.4091 320.64 98.8352C321.197 99.2557 321.879 99.4659 322.685 99.4659C323.526 99.4659 324.228 99.2443 324.79 98.8011C325.359 98.3523 325.785 97.75 326.069 96.9943C326.359 96.233 326.504 95.3864 326.504 94.4545C326.504 93.5341 326.362 92.7045 326.077 91.9659C325.799 91.2216 325.376 90.6335 324.808 90.2017C324.245 89.7642 323.538 89.5455 322.685 89.5455C321.867 89.5455 321.18 89.7528 320.623 90.1676C320.066 90.5767 319.646 91.1506 319.362 91.8892C319.077 92.6222 318.935 93.4773 318.935 94.4545ZM338.606 101V83.5455H340.617V89.9886H340.788C340.935 89.7614 341.14 89.4716 341.401 89.1193C341.668 88.7614 342.049 88.4432 342.543 88.1648C343.043 87.8807 343.719 87.7386 344.572 87.7386C345.674 87.7386 346.646 88.0142 347.487 88.5653C348.327 89.1165 348.984 89.8977 349.455 90.9091C349.927 91.9205 350.163 93.1136 350.163 94.4886C350.163 95.875 349.927 97.0767 349.455 98.0938C348.984 99.1051 348.33 99.8892 347.495 100.446C346.66 100.997 345.697 101.273 344.606 101.273C343.765 101.273 343.092 101.134 342.586 100.855C342.08 100.571 341.691 100.25 341.418 99.892C341.146 99.5284 340.935 99.2273 340.788 98.9886H340.549V101H338.606ZM340.583 94.4545C340.583 95.4432 340.728 96.3153 341.018 97.071C341.308 97.821 341.731 98.4091 342.288 98.8352C342.844 99.2557 343.526 99.4659 344.333 99.4659C345.174 99.4659 345.876 99.2443 346.438 98.8011C347.006 98.3523 347.433 97.75 347.717 96.9943C348.006 96.233 348.151 95.3864 348.151 94.4545C348.151 93.5341 348.009 92.7045 347.725 91.9659C347.447 91.2216 347.023 90.6335 346.455 90.2017C345.893 89.7642 345.185 89.5455 344.333 89.5455C343.515 89.5455 342.827 89.7528 342.271 90.1676C341.714 90.5767 341.293 91.1506 341.009 91.8892C340.725 92.6222 340.583 93.4773 340.583 94.4545ZM354.066 105.909C353.725 105.909 353.421 105.881 353.154 105.824C352.887 105.773 352.702 105.722 352.6 105.67L353.112 103.898C353.6 104.023 354.032 104.068 354.407 104.034C354.782 104 355.114 103.832 355.404 103.531C355.7 103.236 355.969 102.756 356.214 102.091L356.589 101.068L351.748 87.9091H353.93L357.543 98.3409H357.68L361.293 87.9091H363.475L357.918 102.909C357.668 103.585 357.359 104.145 356.989 104.588C356.62 105.037 356.191 105.369 355.702 105.585C355.219 105.801 354.674 105.909 354.066 105.909ZM378.198 101.273C376.971 101.273 375.914 100.983 375.028 100.403C374.141 99.8239 373.46 99.0256 372.982 98.0085C372.505 96.9915 372.266 95.8295 372.266 94.5227C372.266 93.1932 372.511 92.0199 372.999 91.0028C373.494 89.9801 374.181 89.1818 375.062 88.608C375.948 88.0284 376.982 87.7386 378.164 87.7386C379.085 87.7386 379.914 87.9091 380.653 88.25C381.391 88.5909 381.996 89.0682 382.468 89.6818C382.94 90.2955 383.232 91.0114 383.346 91.8295H381.335C381.181 91.233 380.84 90.7045 380.312 90.2443C379.789 89.7784 379.085 89.5455 378.198 89.5455C377.414 89.5455 376.727 89.75 376.136 90.1591C375.55 90.5625 375.093 91.1335 374.763 91.8722C374.44 92.6051 374.278 93.4659 374.278 94.4545C374.278 95.4659 374.437 96.3466 374.755 97.0966C375.079 97.8466 375.533 98.429 376.119 98.8438C376.71 99.2585 377.403 99.4659 378.198 99.4659C378.721 99.4659 379.195 99.375 379.621 99.1932C380.048 99.0114 380.408 98.75 380.704 98.4091C380.999 98.0682 381.21 97.6591 381.335 97.1818H383.346C383.232 97.9545 382.951 98.6506 382.502 99.2699C382.059 99.8835 381.471 100.372 380.738 100.736C380.011 101.094 379.164 101.273 378.198 101.273ZM388.298 83.5455V101H386.286V83.5455H388.298ZM391.982 101V87.9091H393.993V101H391.982ZM393.004 85.7273C392.612 85.7273 392.274 85.5938 391.99 85.3267C391.712 85.0597 391.572 84.7386 391.572 84.3636C391.572 83.9886 391.712 83.6676 391.99 83.4006C392.274 83.1335 392.612 83 393.004 83C393.396 83 393.732 83.1335 394.01 83.4006C394.294 83.6676 394.436 83.9886 394.436 84.3636C394.436 84.7386 394.294 85.0597 394.01 85.3267C393.732 85.5938 393.396 85.7273 393.004 85.7273ZM402.995 101.273C401.768 101.273 400.711 100.983 399.825 100.403C398.938 99.8239 398.256 99.0256 397.779 98.0085C397.302 96.9915 397.063 95.8295 397.063 94.5227C397.063 93.1932 397.308 92.0199 397.796 91.0028C398.29 89.9801 398.978 89.1818 399.859 88.608C400.745 88.0284 401.779 87.7386 402.961 87.7386C403.881 87.7386 404.711 87.9091 405.45 88.25C406.188 88.5909 406.793 89.0682 407.265 89.6818C407.737 90.2955 408.029 91.0114 408.143 91.8295H406.131C405.978 91.233 405.637 90.7045 405.109 90.2443C404.586 89.7784 403.881 89.5455 402.995 89.5455C402.211 89.5455 401.523 89.75 400.933 90.1591C400.347 90.5625 399.89 91.1335 399.56 91.8722C399.237 92.6051 399.075 93.4659 399.075 94.4545C399.075 95.4659 399.234 96.3466 399.552 97.0966C399.876 97.8466 400.33 98.429 400.915 98.8438C401.506 99.2585 402.2 99.4659 402.995 99.4659C403.518 99.4659 403.992 99.375 404.418 99.1932C404.844 99.0114 405.205 98.75 405.501 98.4091C405.796 98.0682 406.006 97.6591 406.131 97.1818H408.143C408.029 97.9545 407.748 98.6506 407.299 99.2699C406.856 99.8835 406.268 100.372 405.535 100.736C404.808 101.094 403.961 101.273 402.995 101.273ZM412.958 96.2273L412.924 93.7386H413.333L419.06 87.9091H421.549L415.447 94.0795H415.276L412.958 96.2273ZM411.083 101V83.5455H413.094V101H411.083ZM419.401 101L414.288 94.5227L415.719 93.125L421.958 101H419.401ZM424.138 101V87.9091H426.149V101H424.138ZM425.161 85.7273C424.768 85.7273 424.43 85.5938 424.146 85.3267C423.868 85.0597 423.729 84.7386 423.729 84.3636C423.729 83.9886 423.868 83.6676 424.146 83.4006C424.43 83.1335 424.768 83 425.161 83C425.553 83 425.888 83.1335 426.166 83.4006C426.45 83.6676 426.592 83.9886 426.592 84.3636C426.592 84.7386 426.45 85.0597 426.166 85.3267C425.888 85.5938 425.553 85.7273 425.161 85.7273ZM431.844 93.125V101H429.833V87.9091H431.776V89.9545H431.947C432.254 89.2898 432.719 88.7557 433.344 88.3523C433.969 87.9432 434.776 87.7386 435.765 87.7386C436.651 87.7386 437.427 87.9205 438.092 88.2841C438.756 88.642 439.273 89.1875 439.643 89.9205C440.012 90.6477 440.197 91.5682 440.197 92.6818V101H438.185V92.8182C438.185 91.7898 437.918 90.9886 437.384 90.4148C436.85 89.8352 436.117 89.5455 435.185 89.5455C434.543 89.5455 433.969 89.6847 433.464 89.9631C432.964 90.2415 432.569 90.6477 432.279 91.1818C431.989 91.7159 431.844 92.3636 431.844 93.125ZM449.156 106.182C448.185 106.182 447.349 106.057 446.651 105.807C445.952 105.562 445.369 105.239 444.903 104.835C444.443 104.438 444.077 104.011 443.804 103.557L445.406 102.432C445.588 102.67 445.818 102.943 446.097 103.25C446.375 103.562 446.756 103.832 447.239 104.06C447.727 104.293 448.366 104.409 449.156 104.409C450.213 104.409 451.085 104.153 451.773 103.642C452.46 103.131 452.804 102.33 452.804 101.239V98.5795H452.634C452.486 98.8182 452.276 99.1136 452.003 99.4659C451.736 99.8125 451.349 100.122 450.844 100.395C450.344 100.662 449.668 100.795 448.815 100.795C447.759 100.795 446.81 100.545 445.969 100.045C445.134 99.5455 444.472 98.8182 443.983 97.8636C443.5 96.9091 443.259 95.75 443.259 94.3864C443.259 93.0455 443.494 91.8778 443.966 90.8835C444.438 89.8835 445.094 89.1108 445.935 88.5653C446.776 88.0142 447.747 87.7386 448.849 87.7386C449.702 87.7386 450.378 87.8807 450.878 88.1648C451.384 88.4432 451.77 88.7614 452.037 89.1193C452.31 89.4716 452.52 89.7614 452.668 89.9886H452.872V87.9091H454.815V101.375C454.815 102.5 454.56 103.415 454.048 104.119C453.543 104.83 452.861 105.349 452.003 105.679C451.151 106.014 450.202 106.182 449.156 106.182ZM449.088 98.9886C449.895 98.9886 450.577 98.804 451.134 98.4347C451.69 98.0653 452.114 97.5341 452.403 96.8409C452.693 96.1477 452.838 95.3182 452.838 94.3523C452.838 93.4091 452.696 92.5767 452.412 91.8551C452.128 91.1335 451.707 90.5682 451.151 90.1591C450.594 89.75 449.906 89.5455 449.088 89.5455C448.236 89.5455 447.526 89.7614 446.957 90.1932C446.395 90.625 445.972 91.2045 445.688 91.9318C445.409 92.6591 445.27 93.4659 445.27 94.3523C445.27 95.2614 445.412 96.0653 445.696 96.7642C445.986 97.4574 446.412 98.0028 446.974 98.4006C447.543 98.7926 448.247 98.9886 449.088 98.9886ZM470.94 87.9091V89.6136H464.156V87.9091H470.94ZM466.134 84.7727H468.145V97.25C468.145 97.8182 468.227 98.2443 468.392 98.5284C468.563 98.8068 468.778 98.9943 469.04 99.0909C469.307 99.1818 469.588 99.2273 469.884 99.2273C470.105 99.2273 470.287 99.2159 470.429 99.1932C470.571 99.1648 470.685 99.142 470.77 99.125L471.179 100.932C471.043 100.983 470.852 101.034 470.608 101.085C470.364 101.142 470.054 101.17 469.679 101.17C469.111 101.17 468.554 101.048 468.009 100.804C467.469 100.56 467.02 100.188 466.662 99.6875C466.31 99.1875 466.134 98.5568 466.134 97.7955V84.7727ZM476.259 93.125V101H474.247V83.5455H476.259V89.9545H476.429C476.736 89.2784 477.196 88.7415 477.81 88.3438C478.429 87.9403 479.253 87.7386 480.281 87.7386C481.173 87.7386 481.955 87.9176 482.625 88.2756C483.295 88.6278 483.815 89.1705 484.185 89.9034C484.56 90.6307 484.747 91.5568 484.747 92.6818V101H482.736V92.8182C482.736 91.7784 482.466 90.9744 481.926 90.4062C481.392 89.8324 480.651 89.5455 479.702 89.5455C479.043 89.5455 478.452 89.6847 477.929 89.9631C477.412 90.2415 477.003 90.6477 476.702 91.1818C476.406 91.7159 476.259 92.3636 476.259 93.125ZM493.915 101.273C492.654 101.273 491.566 100.994 490.651 100.438C489.742 99.875 489.04 99.0909 488.546 98.0852C488.058 97.0739 487.813 95.8977 487.813 94.5568C487.813 93.2159 488.058 92.0341 488.546 91.0114C489.04 89.983 489.728 89.1818 490.609 88.608C491.495 88.0284 492.529 87.7386 493.711 87.7386C494.393 87.7386 495.066 87.8523 495.731 88.0795C496.396 88.3068 497.001 88.6761 497.546 89.1875C498.092 89.6932 498.526 90.3636 498.85 91.1989C499.174 92.0341 499.336 93.0625 499.336 94.2841V95.1364H489.245V93.3977H497.29C497.29 92.6591 497.143 92 496.847 91.4205C496.558 90.8409 496.143 90.3835 495.603 90.0483C495.069 89.7131 494.438 89.5455 493.711 89.5455C492.91 89.5455 492.217 89.7443 491.631 90.142C491.052 90.5341 490.606 91.0455 490.293 91.6761C489.981 92.3068 489.825 92.983 489.825 93.7045V94.8636C489.825 95.8523 489.995 96.6903 490.336 97.3778C490.683 98.0597 491.163 98.5795 491.776 98.9375C492.39 99.2898 493.103 99.4659 493.915 99.4659C494.444 99.4659 494.921 99.392 495.347 99.2443C495.779 99.0909 496.151 98.8636 496.464 98.5625C496.776 98.2557 497.018 97.875 497.188 97.4205L499.131 97.9659C498.927 98.625 498.583 99.2045 498.1 99.7045C497.617 100.199 497.021 100.585 496.31 100.864C495.6 101.136 494.802 101.273 493.915 101.273ZM518.964 87.9091C518.862 87.0455 518.447 86.375 517.719 85.8977C516.992 85.4205 516.1 85.1818 515.043 85.1818C514.271 85.1818 513.594 85.3068 513.015 85.5568C512.441 85.8068 511.992 86.1506 511.668 86.5881C511.35 87.0256 511.191 87.5227 511.191 88.0795C511.191 88.5455 511.302 88.946 511.523 89.2812C511.751 89.6108 512.04 89.8864 512.393 90.108C512.745 90.3239 513.114 90.5028 513.501 90.6449C513.887 90.7812 514.242 90.892 514.566 90.9773L516.339 91.4545C516.793 91.5739 517.299 91.7386 517.856 91.9489C518.418 92.1591 518.955 92.446 519.467 92.8097C519.984 93.1676 520.41 93.6278 520.745 94.1903C521.08 94.7528 521.248 95.4432 521.248 96.2614C521.248 97.2045 521.001 98.0568 520.506 98.8182C520.018 99.5795 519.302 100.185 518.359 100.634C517.421 101.082 516.282 101.307 514.941 101.307C513.691 101.307 512.609 101.105 511.694 100.702C510.785 100.298 510.069 99.7358 509.546 99.0142C509.029 98.2926 508.737 97.4545 508.668 96.5H510.85C510.907 97.1591 511.129 97.7045 511.515 98.1364C511.907 98.5625 512.401 98.8807 512.998 99.0909C513.6 99.2955 514.248 99.3977 514.941 99.3977C515.748 99.3977 516.472 99.267 517.114 99.0057C517.756 98.7386 518.265 98.3693 518.64 97.8977C519.015 97.4205 519.202 96.8636 519.202 96.2273C519.202 95.6477 519.04 95.1761 518.717 94.8125C518.393 94.4489 517.967 94.1534 517.438 93.9261C516.91 93.6989 516.339 93.5 515.725 93.3295L513.577 92.7159C512.214 92.3239 511.134 91.7642 510.339 91.0369C509.543 90.3097 509.146 89.358 509.146 88.1818C509.146 87.2045 509.41 86.3523 509.938 85.625C510.472 84.892 511.188 84.3239 512.086 83.9205C512.989 83.5114 513.998 83.3068 515.112 83.3068C516.237 83.3068 517.237 83.5085 518.112 83.9119C518.987 84.3097 519.68 84.8551 520.191 85.5483C520.708 86.2415 520.981 87.0284 521.009 87.9091H518.964ZM530.143 87.9091V89.6136H523.359V87.9091H530.143ZM525.337 84.7727H527.348V97.25C527.348 97.8182 527.43 98.2443 527.595 98.5284C527.766 98.8068 527.982 98.9943 528.243 99.0909C528.51 99.1818 528.791 99.2273 529.087 99.2273C529.308 99.2273 529.49 99.2159 529.632 99.1932C529.774 99.1648 529.888 99.142 529.973 99.125L530.382 100.932C530.246 100.983 530.055 101.034 529.811 101.085C529.567 101.142 529.257 101.17 528.882 101.17C528.314 101.17 527.757 101.048 527.212 100.804C526.672 100.56 526.223 100.188 525.865 99.6875C525.513 99.1875 525.337 98.5568 525.337 97.7955V84.7727ZM538.517 101.273C537.256 101.273 536.168 100.994 535.253 100.438C534.344 99.875 533.642 99.0909 533.148 98.0852C532.659 97.0739 532.415 95.8977 532.415 94.5568C532.415 93.2159 532.659 92.0341 533.148 91.0114C533.642 89.983 534.33 89.1818 535.21 88.608C536.097 88.0284 537.131 87.7386 538.312 87.7386C538.994 87.7386 539.668 87.8523 540.332 88.0795C540.997 88.3068 541.602 88.6761 542.148 89.1875C542.693 89.6932 543.128 90.3636 543.452 91.1989C543.776 92.0341 543.938 93.0625 543.938 94.2841V95.1364H533.847V93.3977H541.892C541.892 92.6591 541.744 92 541.449 91.4205C541.159 90.8409 540.744 90.3835 540.205 90.0483C539.67 89.7131 539.04 89.5455 538.312 89.5455C537.511 89.5455 536.818 89.7443 536.233 90.142C535.653 90.5341 535.207 91.0455 534.895 91.6761C534.582 92.3068 534.426 92.983 534.426 93.7045V94.8636C534.426 95.8523 534.597 96.6903 534.938 97.3778C535.284 98.0597 535.764 98.5795 536.378 98.9375C536.991 99.2898 537.705 99.4659 538.517 99.4659C539.045 99.4659 539.523 99.392 539.949 99.2443C540.381 99.0909 540.753 98.8636 541.065 98.5625C541.378 98.2557 541.619 97.875 541.79 97.4205L543.733 97.9659C543.528 98.625 543.185 99.2045 542.702 99.7045C542.219 100.199 541.622 100.585 540.912 100.864C540.202 101.136 539.403 101.273 538.517 101.273ZM546.997 105.909V87.9091H548.94V89.9886H549.179C549.327 89.7614 549.531 89.4716 549.793 89.1193C550.06 88.7614 550.44 88.4432 550.935 88.1648C551.435 87.8807 552.111 87.7386 552.963 87.7386C554.065 87.7386 555.037 88.0142 555.878 88.5653C556.719 89.1165 557.375 89.8977 557.847 90.9091C558.318 91.9205 558.554 93.1136 558.554 94.4886C558.554 95.875 558.318 97.0767 557.847 98.0938C557.375 99.1051 556.722 99.8892 555.886 100.446C555.051 100.997 554.088 101.273 552.997 101.273C552.156 101.273 551.483 101.134 550.977 100.855C550.472 100.571 550.082 100.25 549.81 99.892C549.537 99.5284 549.327 99.2273 549.179 98.9886H549.009V105.909H546.997ZM548.974 94.4545C548.974 95.4432 549.119 96.3153 549.409 97.071C549.699 97.821 550.122 98.4091 550.679 98.8352C551.236 99.2557 551.918 99.4659 552.724 99.4659C553.565 99.4659 554.267 99.2443 554.83 98.8011C555.398 98.3523 555.824 97.75 556.108 96.9943C556.398 96.233 556.543 95.3864 556.543 94.4545C556.543 93.5341 556.401 92.7045 556.116 91.9659C555.838 91.2216 555.415 90.6335 554.847 90.2017C554.284 89.7642 553.577 89.5455 552.724 89.5455C551.906 89.5455 551.219 89.7528 550.662 90.1676C550.105 90.5767 549.685 91.1506 549.401 91.8892C549.116 92.6222 548.974 93.4773 548.974 94.4545ZM568.372 101V87.9091H570.384V101H568.372ZM569.395 85.7273C569.003 85.7273 568.665 85.5938 568.381 85.3267C568.102 85.0597 567.963 84.7386 567.963 84.3636C567.963 83.9886 568.102 83.6676 568.381 83.4006C568.665 83.1335 569.003 83 569.395 83C569.787 83 570.122 83.1335 570.401 83.4006C570.685 83.6676 570.827 83.9886 570.827 84.3636C570.827 84.7386 570.685 85.0597 570.401 85.3267C570.122 85.5938 569.787 85.7273 569.395 85.7273ZM576.079 93.125V101H574.067V87.9091H576.011V89.9545H576.181C576.488 89.2898 576.954 88.7557 577.579 88.3523C578.204 87.9432 579.011 87.7386 579.999 87.7386C580.886 87.7386 581.661 87.9205 582.326 88.2841C582.991 88.642 583.508 89.1875 583.877 89.9205C584.246 90.6477 584.431 91.5682 584.431 92.6818V101H582.42V92.8182C582.42 91.7898 582.153 90.9886 581.619 90.4148C581.085 89.8352 580.352 89.5455 579.42 89.5455C578.778 89.5455 578.204 89.6847 577.698 89.9631C577.198 90.2415 576.803 90.6477 576.513 91.1818C576.224 91.7159 576.079 92.3636 576.079 93.125ZM593.05 101.273C591.959 101.273 590.996 100.997 590.161 100.446C589.325 99.8892 588.672 99.1051 588.2 98.0938C587.729 97.0767 587.493 95.875 587.493 94.4886C587.493 93.1136 587.729 91.9205 588.2 90.9091C588.672 89.8977 589.328 89.1165 590.169 88.5653C591.01 88.0142 591.982 87.7386 593.084 87.7386C593.936 87.7386 594.609 87.8807 595.104 88.1648C595.604 88.4432 595.984 88.7614 596.246 89.1193C596.513 89.4716 596.72 89.7614 596.868 89.9886H597.038V83.5455H599.05V101H597.107V98.9886H596.868C596.72 99.2273 596.51 99.5284 596.237 99.892C595.964 100.25 595.575 100.571 595.07 100.855C594.564 101.134 593.891 101.273 593.05 101.273ZM593.322 99.4659C594.129 99.4659 594.811 99.2557 595.368 98.8352C595.925 98.4091 596.348 97.821 596.638 97.071C596.928 96.3153 597.072 95.4432 597.072 94.4545C597.072 93.4773 596.93 92.6222 596.646 91.8892C596.362 91.1506 595.942 90.5767 595.385 90.1676C594.828 89.7528 594.141 89.5455 593.322 89.5455C592.47 89.5455 591.76 89.7642 591.192 90.2017C590.629 90.6335 590.206 91.2216 589.922 91.9659C589.643 92.7045 589.504 93.5341 589.504 94.4545C589.504 95.3864 589.646 96.233 589.93 96.9943C590.22 97.75 590.646 98.3523 591.209 98.8011C591.777 99.2443 592.482 99.4659 593.322 99.4659ZM603.013 101V87.9091H605.024V101H603.013ZM604.036 85.7273C603.643 85.7273 603.305 85.5938 603.021 85.3267C602.743 85.0597 602.604 84.7386 602.604 84.3636C602.604 83.9886 602.743 83.6676 603.021 83.4006C603.305 83.1335 603.643 83 604.036 83C604.428 83 604.763 83.1335 605.041 83.4006C605.325 83.6676 605.467 83.9886 605.467 84.3636C605.467 84.7386 605.325 85.0597 605.041 85.3267C604.763 85.5938 604.428 85.7273 604.036 85.7273ZM614.026 101.273C612.799 101.273 611.742 100.983 610.856 100.403C609.969 99.8239 609.288 99.0256 608.81 98.0085C608.333 96.9915 608.094 95.8295 608.094 94.5227C608.094 93.1932 608.339 92.0199 608.827 91.0028C609.322 89.9801 610.009 89.1818 610.89 88.608C611.776 88.0284 612.81 87.7386 613.992 87.7386C614.913 87.7386 615.742 87.9091 616.481 88.25C617.219 88.5909 617.825 89.0682 618.296 89.6818C618.768 90.2955 619.06 91.0114 619.174 91.8295H617.163C617.009 91.233 616.668 90.7045 616.14 90.2443C615.617 89.7784 614.913 89.5455 614.026 89.5455C613.242 89.5455 612.555 89.75 611.964 90.1591C611.379 90.5625 610.921 91.1335 610.592 91.8722C610.268 92.6051 610.106 93.4659 610.106 94.4545C610.106 95.4659 610.265 96.3466 610.583 97.0966C610.907 97.8466 611.362 98.429 611.947 98.8438C612.538 99.2585 613.231 99.4659 614.026 99.4659C614.549 99.4659 615.023 99.375 615.45 99.1932C615.876 99.0114 616.237 98.75 616.532 98.4091C616.827 98.0682 617.038 97.6591 617.163 97.1818H619.174C619.06 97.9545 618.779 98.6506 618.33 99.2699C617.887 99.8835 617.299 100.372 616.566 100.736C615.839 101.094 614.992 101.273 614.026 101.273ZM625.967 101.307C625.137 101.307 624.384 101.151 623.708 100.838C623.032 100.52 622.495 100.062 622.097 99.4659C621.7 98.8636 621.501 98.1364 621.501 97.2841C621.501 96.5341 621.648 95.9261 621.944 95.4602C622.239 94.9886 622.634 94.6193 623.129 94.3523C623.623 94.0852 624.168 93.8864 624.765 93.7557C625.367 93.6193 625.972 93.5114 626.58 93.4318C627.376 93.3295 628.021 93.2528 628.515 93.2017C629.015 93.1449 629.379 93.0511 629.606 92.9205C629.839 92.7898 629.955 92.5625 629.955 92.2386V92.1705C629.955 91.3295 629.725 90.6761 629.265 90.2102C628.81 89.7443 628.12 89.5114 627.194 89.5114C626.234 89.5114 625.481 89.7216 624.935 90.142C624.39 90.5625 624.006 91.0114 623.785 91.4886L621.876 90.8068C622.217 90.0114 622.671 89.392 623.239 88.9489C623.813 88.5 624.438 88.1875 625.114 88.0114C625.796 87.8295 626.467 87.7386 627.126 87.7386C627.546 87.7386 628.029 87.7898 628.575 87.892C629.126 87.9886 629.657 88.1903 630.168 88.4972C630.685 88.804 631.114 89.267 631.455 89.8864C631.796 90.5057 631.967 91.3352 631.967 92.375V101H629.955V99.2273H629.853C629.717 99.5114 629.489 99.8153 629.171 100.139C628.853 100.463 628.43 100.739 627.901 100.966C627.373 101.193 626.728 101.307 625.967 101.307ZM626.273 99.5C627.069 99.5 627.739 99.3438 628.285 99.0312C628.836 98.7188 629.251 98.3153 629.529 97.821C629.813 97.3267 629.955 96.8068 629.955 96.2614V94.4205C629.87 94.5227 629.683 94.6165 629.393 94.7017C629.109 94.7812 628.779 94.8523 628.404 94.9148C628.035 94.9716 627.674 95.0227 627.322 95.0682C626.975 95.108 626.694 95.142 626.478 95.1705C625.955 95.2386 625.467 95.3494 625.012 95.5028C624.563 95.6506 624.2 95.875 623.921 96.1761C623.648 96.4716 623.512 96.875 623.512 97.3864C623.512 98.0852 623.771 98.6136 624.288 98.9716C624.81 99.3239 625.472 99.5 626.273 99.5ZM641.331 87.9091V89.6136H634.547V87.9091H641.331ZM636.524 84.7727H638.536V97.25C638.536 97.8182 638.618 98.2443 638.783 98.5284C638.953 98.8068 639.169 98.9943 639.43 99.0909C639.697 99.1818 639.979 99.2273 640.274 99.2273C640.496 99.2273 640.678 99.2159 640.82 99.1932C640.962 99.1648 641.075 99.142 641.161 99.125L641.57 100.932C641.433 100.983 641.243 101.034 640.999 101.085C640.754 101.142 640.445 101.17 640.07 101.17C639.501 101.17 638.945 101.048 638.399 100.804C637.859 100.56 637.411 100.188 637.053 99.6875C636.7 99.1875 636.524 98.5568 636.524 97.7955V84.7727ZM649.534 101.273C648.352 101.273 647.315 100.991 646.423 100.429C645.537 99.8665 644.844 99.0795 644.344 98.0682C643.849 97.0568 643.602 95.875 643.602 94.5227C643.602 93.1591 643.849 91.9687 644.344 90.9517C644.844 89.9347 645.537 89.1449 646.423 88.5824C647.315 88.0199 648.352 87.7386 649.534 87.7386C650.716 87.7386 651.75 88.0199 652.636 88.5824C653.528 89.1449 654.222 89.9347 654.716 90.9517C655.216 91.9687 655.466 93.1591 655.466 94.5227C655.466 95.875 655.216 97.0568 654.716 98.0682C654.222 99.0795 653.528 99.8665 652.636 100.429C651.75 100.991 650.716 101.273 649.534 101.273ZM649.534 99.4659C650.432 99.4659 651.17 99.2358 651.75 98.7756C652.33 98.3153 652.759 97.7102 653.037 96.9602C653.315 96.2102 653.455 95.3977 653.455 94.5227C653.455 93.6477 653.315 92.8324 653.037 92.0767C652.759 91.321 652.33 90.7102 651.75 90.2443C651.17 89.7784 650.432 89.5455 649.534 89.5455C648.636 89.5455 647.898 89.7784 647.318 90.2443C646.739 90.7102 646.31 91.321 646.031 92.0767C645.753 92.8324 645.614 93.6477 645.614 94.5227C645.614 95.3977 645.753 96.2102 646.031 96.9602C646.31 97.7102 646.739 98.3153 647.318 98.7756C647.898 99.2358 648.636 99.4659 649.534 99.4659ZM658.536 101V87.9091H660.479V89.8864H660.616C660.854 89.2386 661.286 88.7131 661.911 88.3097C662.536 87.9062 663.241 87.7045 664.025 87.7045C664.173 87.7045 664.357 87.7074 664.579 87.7131C664.8 87.7187 664.968 87.7273 665.082 87.7386V89.7841C665.013 89.767 664.857 89.7415 664.613 89.7074C664.374 89.6676 664.121 89.6477 663.854 89.6477C663.218 89.6477 662.65 89.7812 662.15 90.0483C661.656 90.3097 661.263 90.6733 660.974 91.1392C660.69 91.5994 660.548 92.125 660.548 92.7159V101H658.536ZM679.534 101.273C678.352 101.273 677.315 100.991 676.423 100.429C675.537 99.8665 674.844 99.0795 674.344 98.0682C673.849 97.0568 673.602 95.875 673.602 94.5227C673.602 93.1591 673.849 91.9687 674.344 90.9517C674.844 89.9347 675.537 89.1449 676.423 88.5824C677.315 88.0199 678.352 87.7386 679.534 87.7386C680.716 87.7386 681.75 88.0199 682.636 88.5824C683.528 89.1449 684.222 89.9347 684.716 90.9517C685.216 91.9687 685.466 93.1591 685.466 94.5227C685.466 95.875 685.216 97.0568 684.716 98.0682C684.222 99.0795 683.528 99.8665 682.636 100.429C681.75 100.991 680.716 101.273 679.534 101.273ZM679.534 99.4659C680.432 99.4659 681.17 99.2358 681.75 98.7756C682.33 98.3153 682.759 97.7102 683.037 96.9602C683.315 96.2102 683.455 95.3977 683.455 94.5227C683.455 93.6477 683.315 92.8324 683.037 92.0767C682.759 91.321 682.33 90.7102 681.75 90.2443C681.17 89.7784 680.432 89.5455 679.534 89.5455C678.636 89.5455 677.898 89.7784 677.318 90.2443C676.739 90.7102 676.31 91.321 676.031 92.0767C675.753 92.8324 675.614 93.6477 675.614 94.5227C675.614 95.3977 675.753 96.2102 676.031 96.9602C676.31 97.7102 676.739 98.3153 677.318 98.7756C677.898 99.2358 678.636 99.4659 679.534 99.4659ZM688.536 101V87.9091H690.479V89.8864H690.616C690.854 89.2386 691.286 88.7131 691.911 88.3097C692.536 87.9062 693.241 87.7045 694.025 87.7045C694.173 87.7045 694.357 87.7074 694.579 87.7131C694.8 87.7187 694.968 87.7273 695.082 87.7386V89.7841C695.013 89.767 694.857 89.7415 694.613 89.7074C694.374 89.6676 694.121 89.6477 693.854 89.6477C693.218 89.6477 692.65 89.7812 692.15 90.0483C691.656 90.3097 691.263 90.6733 690.974 91.1392C690.69 91.5994 690.548 92.125 690.548 92.7159V101H688.536ZM709.909 87.9091V89.6136H703.125V87.9091H709.909ZM705.102 84.7727H707.114V97.25C707.114 97.8182 707.196 98.2443 707.361 98.5284C707.531 98.8068 707.747 98.9943 708.009 99.0909C708.276 99.1818 708.557 99.2273 708.852 99.2273C709.074 99.2273 709.256 99.2159 709.398 99.1932C709.54 99.1648 709.653 99.142 709.739 99.125L710.148 100.932C710.011 100.983 709.821 101.034 709.577 101.085C709.332 101.142 709.023 101.17 708.648 101.17C708.08 101.17 707.523 101.048 706.977 100.804C706.438 100.56 705.989 100.188 705.631 99.6875C705.278 99.1875 705.102 98.5568 705.102 97.7955V84.7727ZM715.227 93.125V101H713.216V83.5455H715.227V89.9545H715.398C715.705 89.2784 716.165 88.7415 716.778 88.3438C717.398 87.9403 718.222 87.7386 719.25 87.7386C720.142 87.7386 720.923 87.9176 721.594 88.2756C722.264 88.6278 722.784 89.1705 723.153 89.9034C723.528 90.6307 723.716 91.5568 723.716 92.6818V101H721.705V92.8182C721.705 91.7784 721.435 90.9744 720.895 90.4062C720.361 89.8324 719.619 89.5455 718.67 89.5455C718.011 89.5455 717.42 89.6847 716.898 89.9631C716.381 90.2415 715.972 90.6477 715.67 91.1818C715.375 91.7159 715.227 92.3636 715.227 93.125ZM732.884 101.273C731.623 101.273 730.535 100.994 729.62 100.438C728.711 99.875 728.009 99.0909 727.515 98.0852C727.026 97.0739 726.782 95.8977 726.782 94.5568C726.782 93.2159 727.026 92.0341 727.515 91.0114C728.009 89.983 728.697 89.1818 729.577 88.608C730.464 88.0284 731.498 87.7386 732.68 87.7386C733.362 87.7386 734.035 87.8523 734.7 88.0795C735.364 88.3068 735.969 88.6761 736.515 89.1875C737.06 89.6932 737.495 90.3636 737.819 91.1989C738.143 92.0341 738.305 93.0625 738.305 94.2841V95.1364H728.214V93.3977H736.259C736.259 92.6591 736.112 92 735.816 91.4205C735.526 90.8409 735.112 90.3835 734.572 90.0483C734.038 89.7131 733.407 89.5455 732.68 89.5455C731.879 89.5455 731.185 89.7443 730.6 90.142C730.021 90.5341 729.575 91.0455 729.262 91.6761C728.95 92.3068 728.793 92.983 728.793 93.7045V94.8636C728.793 95.8523 728.964 96.6903 729.305 97.3778C729.651 98.0597 730.131 98.5795 730.745 98.9375C731.359 99.2898 732.072 99.4659 732.884 99.4659C733.413 99.4659 733.89 99.392 734.316 99.2443C734.748 99.0909 735.12 98.8636 735.433 98.5625C735.745 98.2557 735.987 97.875 736.157 97.4205L738.1 97.9659C737.896 98.625 737.552 99.2045 737.069 99.7045C736.586 100.199 735.989 100.585 735.279 100.864C734.569 101.136 733.771 101.273 732.884 101.273ZM757.933 87.9091C757.83 87.0455 757.415 86.375 756.688 85.8977C755.961 85.4205 755.069 85.1818 754.012 85.1818C753.239 85.1818 752.563 85.3068 751.984 85.5568C751.41 85.8068 750.961 86.1506 750.637 86.5881C750.319 87.0256 750.16 87.5227 750.16 88.0795C750.16 88.5455 750.271 88.946 750.492 89.2812C750.719 89.6108 751.009 89.8864 751.362 90.108C751.714 90.3239 752.083 90.5028 752.469 90.6449C752.856 90.7812 753.211 90.892 753.535 90.9773L755.308 91.4545C755.762 91.5739 756.268 91.7386 756.825 91.9489C757.387 92.1591 757.924 92.446 758.435 92.8097C758.952 93.1676 759.379 93.6278 759.714 94.1903C760.049 94.7528 760.217 95.4432 760.217 96.2614C760.217 97.2045 759.969 98.0568 759.475 98.8182C758.987 99.5795 758.271 100.185 757.327 100.634C756.39 101.082 755.251 101.307 753.91 101.307C752.66 101.307 751.577 101.105 750.663 100.702C749.754 100.298 749.038 99.7358 748.515 99.0142C747.998 98.2926 747.705 97.4545 747.637 96.5H749.819C749.876 97.1591 750.097 97.7045 750.484 98.1364C750.876 98.5625 751.37 98.8807 751.967 99.0909C752.569 99.2955 753.217 99.3977 753.91 99.3977C754.717 99.3977 755.441 99.267 756.083 99.0057C756.725 98.7386 757.234 98.3693 757.609 97.8977C757.984 97.4205 758.171 96.8636 758.171 96.2273C758.171 95.6477 758.009 95.1761 757.685 94.8125C757.362 94.4489 756.935 94.1534 756.407 93.9261C755.879 93.6989 755.308 93.5 754.694 93.3295L752.546 92.7159C751.183 92.3239 750.103 91.7642 749.308 91.0369C748.512 90.3097 748.114 89.358 748.114 88.1818C748.114 87.2045 748.379 86.3523 748.907 85.625C749.441 84.892 750.157 84.3239 751.055 83.9205C751.958 83.5114 752.967 83.3068 754.08 83.3068C755.205 83.3068 756.205 83.5085 757.08 83.9119C757.955 84.3097 758.648 84.8551 759.16 85.5483C759.677 86.2415 759.95 87.0284 759.978 87.9091H757.933ZM769.112 87.9091V89.6136H762.328V87.9091H769.112ZM764.305 84.7727H766.317V97.25C766.317 97.8182 766.399 98.2443 766.564 98.5284C766.734 98.8068 766.95 98.9943 767.212 99.0909C767.479 99.1818 767.76 99.2273 768.055 99.2273C768.277 99.2273 768.459 99.2159 768.601 99.1932C768.743 99.1648 768.857 99.142 768.942 99.125L769.351 100.932C769.214 100.983 769.024 101.034 768.78 101.085C768.536 101.142 768.226 101.17 767.851 101.17C767.283 101.17 766.726 101.048 766.18 100.804C765.641 100.56 765.192 100.188 764.834 99.6875C764.482 99.1875 764.305 98.5568 764.305 97.7955V84.7727ZM777.486 101.273C776.224 101.273 775.136 100.994 774.222 100.438C773.312 99.875 772.611 99.0909 772.116 98.0852C771.628 97.0739 771.384 95.8977 771.384 94.5568C771.384 93.2159 771.628 92.0341 772.116 91.0114C772.611 89.983 773.298 89.1818 774.179 88.608C775.065 88.0284 776.099 87.7386 777.281 87.7386C777.963 87.7386 778.636 87.8523 779.301 88.0795C779.966 88.3068 780.571 88.6761 781.116 89.1875C781.662 89.6932 782.097 90.3636 782.42 91.1989C782.744 92.0341 782.906 93.0625 782.906 94.2841V95.1364H772.815V93.3977H780.861C780.861 92.6591 780.713 92 780.418 91.4205C780.128 90.8409 779.713 90.3835 779.173 90.0483C778.639 89.7131 778.009 89.5455 777.281 89.5455C776.48 89.5455 775.787 89.7443 775.202 90.142C774.622 90.5341 774.176 91.0455 773.864 91.6761C773.551 92.3068 773.395 92.983 773.395 93.7045V94.8636C773.395 95.8523 773.565 96.6903 773.906 97.3778C774.253 98.0597 774.733 98.5795 775.347 98.9375C775.96 99.2898 776.673 99.4659 777.486 99.4659C778.014 99.4659 778.491 99.392 778.918 99.2443C779.349 99.0909 779.722 98.8636 780.034 98.5625C780.347 98.2557 780.588 97.875 780.759 97.4205L782.702 97.9659C782.497 98.625 782.153 99.2045 781.67 99.7045C781.188 100.199 780.591 100.585 779.881 100.864C779.17 101.136 778.372 101.273 777.486 101.273ZM785.966 105.909V87.9091H787.909V89.9886H788.148C788.295 89.7614 788.5 89.4716 788.761 89.1193C789.028 88.7614 789.409 88.4432 789.903 88.1648C790.403 87.8807 791.08 87.7386 791.932 87.7386C793.034 87.7386 794.006 88.0142 794.847 88.5653C795.688 89.1165 796.344 89.8977 796.815 90.9091C797.287 91.9205 797.523 93.1136 797.523 94.4886C797.523 95.875 797.287 97.0767 796.815 98.0938C796.344 99.1051 795.69 99.8892 794.855 100.446C794.02 100.997 793.057 101.273 791.966 101.273C791.125 101.273 790.452 101.134 789.946 100.855C789.44 100.571 789.051 100.25 788.778 99.892C788.506 99.5284 788.295 99.2273 788.148 98.9886H787.977V105.909H785.966ZM787.943 94.4545C787.943 95.4432 788.088 96.3153 788.378 97.071C788.668 97.821 789.091 98.4091 789.648 98.8352C790.205 99.2557 790.886 99.4659 791.693 99.4659C792.534 99.4659 793.236 99.2443 793.798 98.8011C794.366 98.3523 794.793 97.75 795.077 96.9943C795.366 96.233 795.511 95.3864 795.511 94.4545C795.511 93.5341 795.369 92.7045 795.085 91.9659C794.807 91.2216 794.384 90.6335 793.815 90.2017C793.253 89.7642 792.545 89.5455 791.693 89.5455C790.875 89.5455 790.188 89.7528 789.631 90.1676C789.074 90.5767 788.653 91.1506 788.369 91.8892C788.085 92.6222 787.943 93.4773 787.943 94.4545ZM3.85227 119.545V137H1.84091V119.545H3.85227ZM11.3885 137.307C10.5589 137.307 9.80611 137.151 9.12997 136.838C8.45384 136.52 7.9169 136.062 7.51918 135.466C7.12145 134.864 6.92259 134.136 6.92259 133.284C6.92259 132.534 7.07031 131.926 7.36577 131.46C7.66122 130.989 8.05611 130.619 8.55043 130.352C9.04474 130.085 9.5902 129.886 10.1868 129.756C10.7891 129.619 11.3942 129.511 12.0021 129.432C12.7976 129.33 13.4425 129.253 13.9368 129.202C14.4368 129.145 14.8004 129.051 15.0277 128.92C15.2607 128.79 15.3771 128.562 15.3771 128.239V128.17C15.3771 127.33 15.147 126.676 14.6868 126.21C14.2322 125.744 13.5419 125.511 12.6158 125.511C11.6555 125.511 10.9027 125.722 10.3572 126.142C9.81179 126.562 9.42827 127.011 9.20668 127.489L7.29759 126.807C7.63849 126.011 8.09304 125.392 8.66122 124.949C9.23509 124.5 9.86009 124.187 10.5362 124.011C11.218 123.83 11.8885 123.739 12.5476 123.739C12.968 123.739 13.451 123.79 13.9964 123.892C14.5476 123.989 15.0788 124.19 15.5902 124.497C16.1072 124.804 16.5362 125.267 16.8771 125.886C17.218 126.506 17.3885 127.335 17.3885 128.375V137H15.3771V135.227H15.2749C15.1385 135.511 14.9112 135.815 14.593 136.139C14.2749 136.463 13.8516 136.739 13.3232 136.966C12.7947 137.193 12.1499 137.307 11.3885 137.307ZM11.6953 135.5C12.4908 135.5 13.1612 135.344 13.7067 135.031C14.2578 134.719 14.6726 134.315 14.951 133.821C15.2351 133.327 15.3771 132.807 15.3771 132.261V130.42C15.2919 130.523 15.1044 130.616 14.8146 130.702C14.5305 130.781 14.201 130.852 13.826 130.915C13.4567 130.972 13.0959 131.023 12.7436 131.068C12.397 131.108 12.1158 131.142 11.8999 131.17C11.3771 131.239 10.8885 131.349 10.4339 131.503C9.98509 131.651 9.62145 131.875 9.34304 132.176C9.07031 132.472 8.93395 132.875 8.93395 133.386C8.93395 134.085 9.19247 134.614 9.70952 134.972C10.2322 135.324 10.8942 135.5 11.6953 135.5ZM21.3324 137V119.545H23.3438V125.989H23.5142C23.6619 125.761 23.8665 125.472 24.1278 125.119C24.3949 124.761 24.7756 124.443 25.2699 124.165C25.7699 123.881 26.446 123.739 27.2983 123.739C28.4006 123.739 29.3722 124.014 30.2131 124.565C31.054 125.116 31.7102 125.898 32.1818 126.909C32.6534 127.92 32.8892 129.114 32.8892 130.489C32.8892 131.875 32.6534 133.077 32.1818 134.094C31.7102 135.105 31.0568 135.889 30.2216 136.446C29.3864 136.997 28.4233 137.273 27.3324 137.273C26.4915 137.273 25.8182 137.134 25.3125 136.855C24.8068 136.571 24.4176 136.25 24.1449 135.892C23.8722 135.528 23.6619 135.227 23.5142 134.989H23.2756V137H21.3324ZM23.3097 130.455C23.3097 131.443 23.4545 132.315 23.7443 133.071C24.0341 133.821 24.4574 134.409 25.0142 134.835C25.571 135.256 26.2528 135.466 27.0597 135.466C27.9006 135.466 28.6023 135.244 29.1648 134.801C29.733 134.352 30.1591 133.75 30.4432 132.994C30.733 132.233 30.8778 131.386 30.8778 130.455C30.8778 129.534 30.7358 128.705 30.4517 127.966C30.1733 127.222 29.75 126.634 29.1818 126.202C28.6193 125.764 27.9119 125.545 27.0597 125.545C26.2415 125.545 25.554 125.753 24.9972 126.168C24.4403 126.577 24.0199 127.151 23.7358 127.889C23.4517 128.622 23.3097 129.477 23.3097 130.455ZM41.4545 137.273C40.1932 137.273 39.1051 136.994 38.1903 136.438C37.2812 135.875 36.5795 135.091 36.0852 134.085C35.5966 133.074 35.3523 131.898 35.3523 130.557C35.3523 129.216 35.5966 128.034 36.0852 127.011C36.5795 125.983 37.267 125.182 38.1477 124.608C39.0341 124.028 40.0682 123.739 41.25 123.739C41.9318 123.739 42.6051 123.852 43.2699 124.08C43.9347 124.307 44.5398 124.676 45.0852 125.188C45.6307 125.693 46.0653 126.364 46.3892 127.199C46.7131 128.034 46.875 129.062 46.875 130.284V131.136H36.7841V129.398H44.8295C44.8295 128.659 44.6818 128 44.3864 127.42C44.0966 126.841 43.6818 126.384 43.142 126.048C42.608 125.713 41.9773 125.545 41.25 125.545C40.4489 125.545 39.7557 125.744 39.1705 126.142C38.5909 126.534 38.1449 127.045 37.8324 127.676C37.5199 128.307 37.3636 128.983 37.3636 129.705V130.864C37.3636 131.852 37.5341 132.69 37.875 133.378C38.2216 134.06 38.7017 134.58 39.3153 134.938C39.929 135.29 40.642 135.466 41.4545 135.466C41.983 135.466 42.4602 135.392 42.8864 135.244C43.3182 135.091 43.6903 134.864 44.0028 134.562C44.3153 134.256 44.5568 133.875 44.7273 133.42L46.6705 133.966C46.4659 134.625 46.1222 135.205 45.6392 135.705C45.1563 136.199 44.5597 136.585 43.8494 136.864C43.1392 137.136 42.3409 137.273 41.4545 137.273ZM51.946 119.545V137H49.9347V119.545H51.946ZM57.0959 137.136C56.6754 137.136 56.3146 136.986 56.0135 136.685C55.7124 136.384 55.5618 136.023 55.5618 135.602C55.5618 135.182 55.7124 134.821 56.0135 134.52C56.3146 134.219 56.6754 134.068 57.0959 134.068C57.5163 134.068 57.8771 134.219 58.1783 134.52C58.4794 134.821 58.63 135.182 58.63 135.602C58.63 135.881 58.5589 136.136 58.4169 136.369C58.2805 136.602 58.0959 136.79 57.8629 136.932C57.6357 137.068 57.38 137.136 57.0959 137.136Z" fill="white" fill-opacity="0.95"/>
<rect x="924" width="636" height="249" rx="24" fill="#262626"/>
<path d="M1428 112.885C1428 116.751 1424.87 119.885 1421 119.885C1417.13 119.885 1414 116.751 1414 112.885C1414 109.019 1417.13 105.885 1421 105.885C1424.87 105.885 1428 109.019 1428 112.885Z" stroke="#64B4FA" stroke-width="2"/>
<path d="M1404.27 143.885V133.703H1405.5V142.791H1410.23V143.885H1404.27ZM1414.23 144.064C1413.75 144.064 1413.31 143.973 1412.91 143.79C1412.52 143.605 1412.21 143.338 1411.97 142.99C1411.74 142.639 1411.63 142.214 1411.63 141.717C1411.63 141.28 1411.71 140.925 1411.88 140.653C1412.06 140.378 1412.29 140.163 1412.58 140.007C1412.86 139.851 1413.18 139.735 1413.53 139.659C1413.88 139.579 1414.23 139.516 1414.59 139.47C1415.05 139.41 1415.43 139.366 1415.72 139.336C1416.01 139.303 1416.22 139.248 1416.35 139.172C1416.49 139.095 1416.56 138.963 1416.56 138.774V138.734C1416.56 138.244 1416.42 137.863 1416.16 137.591C1415.89 137.319 1415.49 137.183 1414.95 137.183C1414.39 137.183 1413.95 137.306 1413.63 137.551C1413.31 137.796 1413.09 138.058 1412.96 138.336L1411.84 137.939C1412.04 137.475 1412.31 137.113 1412.64 136.855C1412.98 136.593 1413.34 136.411 1413.73 136.308C1414.13 136.202 1414.52 136.149 1414.91 136.149C1415.15 136.149 1415.43 136.179 1415.75 136.238C1416.07 136.295 1416.38 136.412 1416.68 136.591C1416.98 136.77 1417.23 137.041 1417.43 137.402C1417.63 137.763 1417.73 138.247 1417.73 138.854V143.885H1416.56V142.851H1416.5C1416.42 143.016 1416.29 143.194 1416.1 143.383C1415.91 143.572 1415.67 143.732 1415.36 143.865C1415.05 143.997 1414.68 144.064 1414.23 144.064ZM1414.41 143.01C1414.87 143.01 1415.27 142.919 1415.58 142.736C1415.9 142.554 1416.15 142.319 1416.31 142.03C1416.48 141.742 1416.56 141.439 1416.56 141.121V140.047C1416.51 140.106 1416.4 140.161 1416.23 140.211C1416.06 140.257 1415.87 140.299 1415.65 140.335C1415.44 140.368 1415.23 140.398 1415.02 140.425C1414.82 140.448 1414.66 140.468 1414.53 140.484C1414.22 140.524 1413.94 140.589 1413.67 140.678C1413.41 140.764 1413.2 140.895 1413.04 141.071C1412.88 141.243 1412.8 141.479 1412.8 141.777C1412.8 142.184 1412.95 142.493 1413.25 142.702C1413.56 142.907 1413.94 143.01 1414.41 143.01ZM1420.03 143.885V133.703H1421.21V137.461H1421.3C1421.39 137.329 1421.51 137.16 1421.66 136.954C1421.82 136.746 1422.04 136.56 1422.33 136.398C1422.62 136.232 1423.01 136.149 1423.51 136.149C1424.15 136.149 1424.72 136.31 1425.21 136.631C1425.7 136.953 1426.09 137.408 1426.36 137.998C1426.64 138.588 1426.77 139.284 1426.77 140.086C1426.77 140.895 1426.64 141.596 1426.36 142.189C1426.09 142.779 1425.7 143.237 1425.22 143.562C1424.73 143.883 1424.17 144.044 1423.53 144.044C1423.04 144.044 1422.65 143.963 1422.35 143.8C1422.06 143.635 1421.83 143.447 1421.67 143.238C1421.51 143.026 1421.39 142.851 1421.3 142.711H1421.17V143.885H1420.03ZM1421.19 140.067C1421.19 140.643 1421.27 141.152 1421.44 141.593C1421.61 142.03 1421.85 142.373 1422.18 142.622C1422.5 142.867 1422.9 142.99 1423.37 142.99C1423.86 142.99 1424.27 142.861 1424.6 142.602C1424.93 142.34 1425.18 141.989 1425.35 141.548C1425.52 141.104 1425.6 140.61 1425.6 140.067C1425.6 139.53 1425.52 139.046 1425.35 138.615C1425.19 138.181 1424.94 137.838 1424.61 137.586C1424.28 137.331 1423.87 137.203 1423.37 137.203C1422.9 137.203 1422.49 137.324 1422.17 137.566C1421.84 137.805 1421.6 138.139 1421.43 138.57C1421.27 138.998 1421.19 139.497 1421.19 140.067ZM1431.77 144.044C1431.03 144.044 1430.4 143.881 1429.87 143.557C1429.34 143.229 1428.93 142.771 1428.64 142.184C1428.35 141.595 1428.21 140.908 1428.21 140.126C1428.21 139.344 1428.35 138.655 1428.64 138.058C1428.93 137.458 1429.33 136.991 1429.84 136.656C1430.36 136.318 1430.96 136.149 1431.65 136.149C1432.05 136.149 1432.44 136.215 1432.83 136.348C1433.22 136.48 1433.57 136.696 1433.89 136.994C1434.21 137.289 1434.46 137.68 1434.65 138.167C1434.84 138.655 1434.93 139.255 1434.93 139.967V140.464H1429.05V139.45H1433.74C1433.74 139.019 1433.65 138.635 1433.48 138.297C1433.31 137.959 1433.07 137.692 1432.75 137.496C1432.44 137.301 1432.07 137.203 1431.65 137.203C1431.18 137.203 1430.78 137.319 1430.44 137.551C1430.1 137.78 1429.84 138.078 1429.66 138.446C1429.47 138.814 1429.38 139.208 1429.38 139.629V140.305C1429.38 140.882 1429.48 141.371 1429.68 141.772C1429.88 142.17 1430.16 142.473 1430.52 142.682C1430.88 142.887 1431.3 142.99 1431.77 142.99C1432.08 142.99 1432.36 142.947 1432.6 142.861C1432.86 142.771 1433.07 142.639 1433.26 142.463C1433.44 142.284 1433.58 142.062 1433.68 141.797L1434.81 142.115C1434.69 142.499 1434.49 142.837 1434.21 143.129C1433.93 143.417 1433.58 143.643 1433.17 143.805C1432.75 143.964 1432.29 144.044 1431.77 144.044ZM1437.89 133.703V143.885H1436.72V133.703H1437.89Z" fill="white" fill-opacity="0.7"/>
<rect x="1255" y="111.885" width="150" height="2" fill="#8F8F8F"/>
<path d="M1246 112.885C1246 116.751 1242.87 119.885 1239 119.885C1235.13 119.885 1232 116.751 1232 112.885C1232 109.019 1235.13 105.885 1239 105.885C1242.87 105.885 1246 109.019 1246 112.885Z" stroke="#3492EB" stroke-width="2"/>
<g clip-path="url(#clip0_2029_8936)">
<path d="M1206.33 143.885H1204.38L1203.5 141.435H1199.19L1198.31 143.885H1196.47L1200.39 133.805H1202.41L1206.33 143.885ZM1201.37 135.429L1199.67 140.119H1203.04L1201.37 135.429ZM1208.43 141.813C1208.56 142.513 1209.09 142.863 1210.01 142.863C1210.53 142.863 1210.91 142.765 1211.18 142.569C1211.39 142.401 1211.5 142.181 1211.5 141.911C1211.5 141.565 1211.31 141.309 1210.94 141.141C1210.72 141.047 1210.25 140.917 1209.52 140.749C1208.63 140.543 1207.99 140.263 1207.61 139.909C1207.22 139.563 1207.03 139.111 1207.03 138.551C1207.03 137.841 1207.32 137.295 1207.9 136.913C1208.41 136.567 1209.12 136.395 1210.01 136.395C1210.94 136.395 1211.68 136.614 1212.24 137.053C1212.72 137.426 1213.03 137.93 1213.15 138.565H1211.44C1211.3 137.939 1210.82 137.627 1209.99 137.627C1209.15 137.627 1208.73 137.883 1208.73 138.397C1208.73 138.658 1208.83 138.854 1209.05 138.985C1209.26 139.115 1209.7 139.26 1210.35 139.419C1211.36 139.652 1212.06 139.913 1212.45 140.203C1212.94 140.567 1213.19 141.08 1213.19 141.743C1213.19 142.499 1212.88 143.091 1212.27 143.521C1211.71 143.903 1210.95 144.095 1210 144.095C1209 144.095 1208.2 143.857 1207.61 143.381C1207.1 142.979 1206.81 142.457 1206.72 141.813H1208.43ZM1215.73 141.813C1215.86 142.513 1216.39 142.863 1217.31 142.863C1217.83 142.863 1218.21 142.765 1218.48 142.569C1218.69 142.401 1218.8 142.181 1218.8 141.911C1218.8 141.565 1218.61 141.309 1218.24 141.141C1218.02 141.047 1217.55 140.917 1216.82 140.749C1215.93 140.543 1215.29 140.263 1214.91 139.909C1214.52 139.563 1214.33 139.111 1214.33 138.551C1214.33 137.841 1214.62 137.295 1215.2 136.913C1215.71 136.567 1216.42 136.395 1217.31 136.395C1218.24 136.395 1218.98 136.614 1219.54 137.053C1220.03 137.426 1220.33 137.93 1220.45 138.565H1218.74C1218.6 137.939 1218.12 137.627 1217.29 137.627C1216.45 137.627 1216.03 137.883 1216.03 138.397C1216.03 138.658 1216.13 138.854 1216.35 138.985C1216.56 139.115 1217 139.26 1217.65 139.419C1218.66 139.652 1219.36 139.913 1219.75 140.203C1220.24 140.567 1220.49 141.08 1220.49 141.743C1220.49 142.499 1220.18 143.091 1219.57 143.521C1219.01 143.903 1218.25 144.095 1217.3 144.095C1216.3 144.095 1215.5 143.857 1214.91 143.381C1214.4 142.979 1214.11 142.457 1214.02 141.813H1215.73ZM1223.69 135.499H1221.84V133.805H1223.69V135.499ZM1223.6 143.885H1221.92V136.605H1223.6V143.885ZM1225.3 144.361H1227.06C1227.24 145.033 1227.8 145.369 1228.73 145.369C1229.93 145.369 1230.53 144.795 1230.53 143.647V142.835C1229.98 143.395 1229.24 143.675 1228.29 143.675C1227.31 143.675 1226.5 143.325 1225.89 142.625C1225.32 141.971 1225.03 141.127 1225.03 140.091C1225.03 138.868 1225.38 137.921 1226.08 137.249C1226.67 136.679 1227.43 136.395 1228.35 136.395C1229.32 136.395 1230.08 136.749 1230.62 137.459L1230.88 136.605H1232.21V143.633C1232.21 144.594 1231.87 145.345 1231.18 145.887C1230.56 146.372 1229.75 146.615 1228.74 146.615C1227.66 146.615 1226.82 146.386 1226.21 145.929C1225.71 145.546 1225.41 145.023 1225.3 144.361ZM1226.75 140.105C1226.75 140.861 1226.96 141.444 1227.38 141.855C1227.73 142.181 1228.16 142.345 1228.69 142.345C1229.36 142.345 1229.87 142.125 1230.21 141.687C1230.51 141.304 1230.66 140.781 1230.66 140.119C1230.66 139.288 1230.46 138.663 1230.04 138.243C1229.71 137.897 1229.26 137.725 1228.69 137.725C1228.06 137.725 1227.58 137.949 1227.23 138.397C1226.91 138.807 1226.75 139.377 1226.75 140.105ZM1235.69 143.885H1234.01V136.605H1235.4L1235.58 137.473C1236.11 136.754 1236.85 136.395 1237.79 136.395C1238.67 136.395 1239.34 136.665 1239.81 137.207C1240.22 137.683 1240.42 138.331 1240.42 139.153V143.885H1238.74V139.195C1238.74 138.196 1238.28 137.697 1237.36 137.697C1236.85 137.697 1236.44 137.874 1236.12 138.229C1235.83 138.555 1235.69 138.966 1235.69 139.461V143.885ZM1246.05 136.605H1247.73V141.393C1247.73 142.326 1248.19 142.793 1249.11 142.793C1249.64 142.793 1250.05 142.601 1250.35 142.219C1250.59 141.892 1250.72 141.491 1250.72 141.015V136.605H1252.4V143.885H1251.01L1250.83 143.073C1250.3 143.754 1249.58 144.095 1248.64 144.095C1247.78 144.095 1247.13 143.833 1246.67 143.311C1246.26 142.835 1246.05 142.181 1246.05 141.351V136.605ZM1255.39 141.813C1255.52 142.513 1256.05 142.863 1256.98 142.863C1257.49 142.863 1257.88 142.765 1258.14 142.569C1258.35 142.401 1258.46 142.181 1258.46 141.911C1258.46 141.565 1258.27 141.309 1257.9 141.141C1257.69 141.047 1257.21 140.917 1256.49 140.749C1255.59 140.543 1254.95 140.263 1254.57 139.909C1254.19 139.563 1253.99 139.111 1253.99 138.551C1253.99 137.841 1254.28 137.295 1254.86 136.913C1255.38 136.567 1256.08 136.395 1256.98 136.395C1257.9 136.395 1258.64 136.614 1259.2 137.053C1259.69 137.426 1259.99 137.93 1260.11 138.565H1258.4C1258.26 137.939 1257.78 137.627 1256.95 137.627C1256.11 137.627 1255.69 137.883 1255.69 138.397C1255.69 138.658 1255.8 138.854 1256.01 138.985C1256.22 139.115 1256.66 139.26 1257.31 139.419C1258.32 139.652 1259.02 139.913 1259.41 140.203C1259.91 140.567 1260.15 141.08 1260.15 141.743C1260.15 142.499 1259.85 143.091 1259.23 143.521C1258.67 143.903 1257.91 144.095 1256.96 144.095C1255.96 144.095 1255.17 143.857 1254.57 143.381C1254.06 142.979 1253.77 142.457 1253.69 141.813H1255.39ZM1266.53 141.785H1268.29C1268.1 142.531 1267.69 143.11 1267.07 143.521C1266.49 143.903 1265.76 144.095 1264.9 144.095C1263.72 144.095 1262.8 143.721 1262.13 142.975C1261.53 142.293 1261.22 141.383 1261.22 140.245C1261.22 138.938 1261.6 137.939 1262.36 137.249C1262.99 136.679 1263.82 136.395 1264.83 136.395C1266.02 136.395 1266.92 136.782 1267.52 137.557C1268.09 138.275 1268.38 139.302 1268.38 140.637H1262.93C1263 141.421 1263.24 141.995 1263.66 142.359C1263.99 142.657 1264.43 142.807 1264.97 142.807C1265.36 142.807 1265.69 142.713 1265.97 142.527C1266.25 142.34 1266.44 142.093 1266.53 141.785ZM1266.65 139.489C1266.62 138.807 1266.41 138.308 1266.04 137.991C1265.73 137.72 1265.33 137.585 1264.83 137.585C1264.29 137.585 1263.86 137.762 1263.53 138.117C1263.23 138.434 1263.04 138.891 1262.96 139.489H1266.65ZM1274.09 136.493V138.117C1273.78 138.023 1273.48 137.977 1273.2 137.977C1272.68 137.977 1272.26 138.205 1271.94 138.663C1271.65 139.101 1271.5 139.708 1271.5 140.483V143.885H1269.82V136.605H1271.2L1271.41 137.697C1271.82 136.829 1272.44 136.395 1273.27 136.395C1273.57 136.395 1273.84 136.427 1274.09 136.493ZM1276.23 141.813C1276.36 142.513 1276.89 142.863 1277.81 142.863C1278.33 142.863 1278.71 142.765 1278.97 142.569C1279.19 142.401 1279.3 142.181 1279.3 141.911C1279.3 141.565 1279.11 141.309 1278.74 141.141C1278.52 141.047 1278.05 140.917 1277.32 140.749C1276.43 140.543 1275.79 140.263 1275.4 139.909C1275.02 139.563 1274.83 139.111 1274.83 138.551C1274.83 137.841 1275.12 137.295 1275.7 136.913C1276.21 136.567 1276.92 136.395 1277.81 136.395C1278.74 136.395 1279.48 136.614 1280.04 137.053C1280.52 137.426 1280.83 137.93 1280.95 138.565H1279.24C1279.1 137.939 1278.61 137.627 1277.78 137.627C1276.94 137.627 1276.52 137.883 1276.52 138.397C1276.52 138.658 1276.63 138.854 1276.85 138.985C1277.06 139.115 1277.49 139.26 1278.15 139.419C1279.16 139.652 1279.86 139.913 1280.25 140.203C1280.74 140.567 1280.99 141.08 1280.99 141.743C1280.99 142.499 1280.68 143.091 1280.07 143.521C1279.51 143.903 1278.75 144.095 1277.8 144.095C1276.8 144.095 1276 143.857 1275.4 143.381C1274.9 142.979 1274.61 142.457 1274.52 141.813H1276.23Z" fill="white" fill-opacity="0.95"/>
</g>
<rect x="1073" y="111.885" width="150" height="2" fill="#3492EB"/>
<path fill-rule="evenodd" clip-rule="evenodd" d="M1057 120.885C1061.42 120.885 1065 117.303 1065 112.885C1065 108.466 1061.42 104.885 1057 104.885C1052.58 104.885 1049 108.466 1049 112.885C1049 117.303 1052.58 120.885 1057 120.885Z" fill="#3492EB"/>
<g clip-path="url(#clip1_2029_8936)">
<path d="M1032.53 142.891C1033.4 142.891 1034.12 142.615 1034.68 142.065C1035.16 141.589 1035.42 141.01 1035.46 140.329H1036.9C1036.87 140.991 1036.66 141.607 1036.29 142.177C1035.9 142.755 1035.4 143.213 1034.76 143.549C1034.08 143.913 1033.33 144.095 1032.51 144.095C1030.99 144.095 1029.81 143.577 1028.98 142.541C1028.25 141.626 1027.89 140.394 1027.89 138.845C1027.89 137.071 1028.39 135.713 1029.38 134.771C1030.22 133.987 1031.29 133.595 1032.62 133.595C1033.88 133.595 1034.92 133.982 1035.75 134.757C1036.45 135.391 1036.82 136.152 1036.89 137.039H1035.45C1035.35 136.301 1035.02 135.727 1034.45 135.317C1033.95 134.962 1033.34 134.785 1032.62 134.785C1031.55 134.785 1030.72 135.167 1030.14 135.933C1029.61 136.633 1029.34 137.603 1029.34 138.845C1029.34 140.207 1029.68 141.253 1030.35 141.981C1030.91 142.587 1031.64 142.891 1032.53 142.891ZM1039.78 133.805V143.885H1038.44V133.805H1039.78ZM1043.17 135.387H1041.66V133.805H1043.17V135.387ZM1043.09 143.885H1041.74V136.605H1043.09V143.885ZM1049.8 141.547H1051.27C1051.16 142.331 1050.79 142.961 1050.16 143.437C1049.59 143.875 1048.9 144.095 1048.08 144.095C1047 144.095 1046.15 143.726 1045.52 142.989C1044.93 142.307 1044.63 141.411 1044.63 140.301C1044.63 139.013 1044.99 138.014 1045.7 137.305C1046.3 136.698 1047.09 136.395 1048.06 136.395C1048.96 136.395 1049.7 136.633 1050.28 137.109C1050.79 137.529 1051.1 138.079 1051.21 138.761H1049.73C1049.64 138.369 1049.44 138.065 1049.16 137.851C1048.88 137.636 1048.52 137.529 1048.09 137.529C1047.43 137.529 1046.92 137.79 1046.57 138.313C1046.23 138.798 1046.06 139.475 1046.06 140.343C1046.06 141.248 1046.29 141.934 1046.73 142.401C1047.09 142.774 1047.55 142.961 1048.11 142.961C1048.59 142.961 1048.99 142.821 1049.3 142.541C1049.57 142.298 1049.73 141.967 1049.8 141.547ZM1054.15 143.885H1052.81V133.805H1054.15V139.433L1057.01 136.605H1058.77L1055.49 139.769L1059.18 143.885H1057.38L1054.15 140.217V143.885ZM1061.23 138.635H1059.8C1059.87 137.907 1060.22 137.342 1060.83 136.941C1061.39 136.577 1062.08 136.395 1062.92 136.395C1063.92 136.395 1064.68 136.656 1065.22 137.179C1065.66 137.627 1065.89 138.205 1065.89 138.915V143.885H1064.78L1064.61 142.891C1064.05 143.693 1063.23 144.095 1062.18 144.095C1061.35 144.095 1060.7 143.871 1060.23 143.423C1059.85 143.049 1059.66 142.578 1059.66 142.009C1059.66 141.29 1059.91 140.735 1060.4 140.343C1060.84 139.997 1061.51 139.745 1062.42 139.587L1064.54 139.223V138.859C1064.54 138.383 1064.38 138.023 1064.05 137.781C1063.77 137.566 1063.37 137.459 1062.86 137.459C1061.88 137.459 1061.33 137.851 1061.23 138.635ZM1062.5 142.961C1063.07 142.961 1063.56 142.774 1063.98 142.401C1064.36 142.055 1064.54 141.659 1064.54 141.211V140.273L1062.74 140.595C1062.08 140.707 1061.62 140.879 1061.38 141.113C1061.18 141.299 1061.09 141.551 1061.09 141.869C1061.09 142.223 1061.21 142.494 1061.45 142.681C1061.69 142.867 1062.04 142.961 1062.5 142.961ZM1068.88 143.885H1067.78V133.805H1069.12V137.613C1069.69 136.801 1070.5 136.395 1071.56 136.395C1072.6 136.395 1073.41 136.768 1073.99 137.515C1074.51 138.187 1074.76 139.078 1074.76 140.189C1074.76 141.505 1074.41 142.513 1073.71 143.213C1073.12 143.801 1072.37 144.095 1071.46 144.095C1070.42 144.095 1069.63 143.703 1069.09 142.919L1068.88 143.885ZM1073.36 140.161C1073.36 139.246 1073.13 138.56 1072.68 138.103C1072.31 137.729 1071.84 137.543 1071.25 137.543C1070.57 137.543 1070.03 137.79 1069.62 138.285C1069.24 138.761 1069.05 139.386 1069.05 140.161C1069.05 141.094 1069.28 141.808 1069.74 142.303C1070.12 142.732 1070.62 142.947 1071.25 142.947C1071.95 142.947 1072.48 142.69 1072.84 142.177C1073.19 141.701 1073.36 141.029 1073.36 140.161ZM1077.65 133.805V143.885H1076.31V133.805H1077.65ZM1084.57 141.785H1086.03C1085.82 142.522 1085.42 143.101 1084.81 143.521C1084.24 143.903 1083.56 144.095 1082.77 144.095C1081.62 144.095 1080.72 143.731 1080.08 143.003C1079.49 142.321 1079.2 141.402 1079.2 140.245C1079.2 138.929 1079.57 137.93 1080.32 137.249C1080.93 136.679 1081.73 136.395 1082.7 136.395C1083.83 136.395 1084.69 136.763 1085.27 137.501C1085.83 138.21 1086.11 139.223 1086.11 140.539H1080.57C1080.62 141.397 1080.89 142.037 1081.35 142.457C1081.73 142.793 1082.22 142.961 1082.81 142.961C1083.27 142.961 1083.66 142.835 1084 142.583C1084.28 142.368 1084.47 142.102 1084.57 141.785ZM1082.72 137.473C1082.13 137.473 1081.65 137.659 1081.28 138.033C1080.94 138.378 1080.72 138.859 1080.62 139.475H1084.74C1084.69 138.775 1084.46 138.252 1084.04 137.907C1083.7 137.617 1083.27 137.473 1082.72 137.473Z" fill="white" fill-opacity="0.95"/>
</g>
<g filter="url(#filter0_d_2029_8936)">
<path d="M1077.27 131.165C1076.99 130.805 1076.64 130.075 1076.03 129.165C1075.68 128.665 1074.82 127.715 1074.56 127.225C1074.37 126.927 1074.32 126.564 1074.41 126.225C1074.57 125.579 1075.18 125.151 1075.84 125.225C1076.35 125.327 1076.82 125.578 1077.19 125.945C1077.45 126.188 1077.69 126.452 1077.9 126.735C1078.06 126.935 1078.1 127.015 1078.28 127.245C1078.46 127.475 1078.58 127.705 1078.49 127.365C1078.42 126.865 1078.3 126.025 1078.13 125.275C1078 124.705 1077.97 124.615 1077.85 124.185C1077.73 123.755 1077.66 123.395 1077.53 122.905C1077.41 122.423 1077.32 121.936 1077.25 121.445C1077.12 120.816 1077.22 120.164 1077.51 119.595C1077.86 119.266 1078.37 119.179 1078.81 119.375C1079.25 119.7 1079.58 120.154 1079.75 120.675C1080.01 121.315 1080.19 121.988 1080.27 122.675C1080.43 123.675 1080.74 125.135 1080.75 125.435C1080.75 125.065 1080.68 124.285 1080.75 123.935C1080.82 123.57 1081.07 123.267 1081.42 123.135C1081.72 123.043 1082.03 123.023 1082.34 123.075C1082.65 123.14 1082.92 123.318 1083.11 123.575C1083.34 124.158 1083.47 124.777 1083.49 125.405C1083.52 124.855 1083.61 124.311 1083.77 123.785C1083.94 123.549 1084.18 123.379 1084.46 123.305C1084.79 123.244 1085.13 123.244 1085.46 123.305C1085.73 123.395 1085.97 123.566 1086.14 123.795C1086.35 124.325 1086.48 124.885 1086.52 125.455C1086.52 125.595 1086.59 125.065 1086.81 124.715C1086.92 124.375 1087.21 124.123 1087.56 124.052C1087.91 123.981 1088.28 124.103 1088.51 124.372C1088.75 124.641 1088.82 125.015 1088.71 125.355C1088.71 126.005 1088.71 125.975 1088.71 126.415C1088.71 126.855 1088.71 127.245 1088.71 127.615C1088.67 128.2 1088.59 128.781 1088.47 129.355C1088.3 129.862 1088.05 130.343 1087.75 130.785C1087.26 131.325 1086.86 131.935 1086.56 132.595C1086.48 132.922 1086.45 133.258 1086.46 133.595C1086.46 133.905 1086.5 134.215 1086.58 134.515C1086.17 134.558 1085.76 134.558 1085.35 134.515C1084.96 134.455 1084.48 133.675 1084.35 133.435C1084.29 133.306 1084.15 133.224 1084.01 133.224C1083.87 133.224 1083.73 133.306 1083.67 133.435C1083.45 133.815 1082.96 134.505 1082.62 134.545C1081.95 134.625 1080.57 134.545 1079.48 134.545C1079.48 134.545 1079.66 133.545 1079.25 133.185C1078.84 132.825 1078.42 132.405 1078.11 132.125L1077.27 131.165Z" fill="white"/>
<path d="M1077.27 131.165C1076.99 130.805 1076.64 130.075 1076.03 129.165C1075.68 128.665 1074.82 127.715 1074.56 127.225C1074.37 126.927 1074.32 126.564 1074.41 126.225C1074.57 125.579 1075.18 125.151 1075.84 125.225C1076.35 125.327 1076.82 125.578 1077.19 125.945C1077.45 126.188 1077.69 126.452 1077.9 126.735C1078.06 126.935 1078.1 127.015 1078.28 127.245C1078.46 127.475 1078.58 127.705 1078.49 127.365C1078.42 126.865 1078.3 126.025 1078.13 125.275C1078 124.705 1077.97 124.615 1077.85 124.185C1077.73 123.755 1077.66 123.395 1077.53 122.905C1077.41 122.423 1077.32 121.936 1077.25 121.445C1077.12 120.816 1077.22 120.164 1077.51 119.595C1077.86 119.266 1078.37 119.179 1078.81 119.375C1079.25 119.7 1079.58 120.154 1079.75 120.675C1080.01 121.315 1080.19 121.988 1080.27 122.675C1080.43 123.675 1080.74 125.135 1080.75 125.435C1080.75 125.065 1080.68 124.285 1080.75 123.935C1080.82 123.57 1081.07 123.267 1081.42 123.135C1081.72 123.043 1082.03 123.023 1082.34 123.075C1082.65 123.14 1082.92 123.318 1083.11 123.575C1083.34 124.158 1083.47 124.777 1083.49 125.405C1083.52 124.855 1083.61 124.311 1083.77 123.785C1083.94 123.549 1084.18 123.379 1084.46 123.305C1084.79 123.244 1085.13 123.244 1085.46 123.305C1085.73 123.395 1085.97 123.566 1086.14 123.795C1086.35 124.325 1086.48 124.885 1086.52 125.455C1086.52 125.595 1086.59 125.065 1086.81 124.715C1086.92 124.375 1087.21 124.123 1087.56 124.052C1087.91 123.981 1088.28 124.103 1088.51 124.372C1088.75 124.641 1088.82 125.015 1088.71 125.355C1088.71 126.005 1088.71 125.975 1088.71 126.415C1088.71 126.855 1088.71 127.245 1088.71 127.615C1088.67 128.2 1088.59 128.781 1088.47 129.355C1088.3 129.862 1088.05 130.343 1087.75 130.785C1087.26 131.325 1086.86 131.935 1086.56 132.595C1086.48 132.922 1086.45 133.258 1086.46 133.595C1086.46 133.905 1086.5 134.215 1086.58 134.515C1086.17 134.558 1085.76 134.558 1085.35 134.515C1084.96 134.455 1084.48 133.675 1084.35 133.435C1084.29 133.306 1084.15 133.224 1084.01 133.224C1083.87 133.224 1083.73 133.306 1083.67 133.435C1083.45 133.815 1082.96 134.505 1082.62 134.545C1081.95 134.625 1080.57 134.545 1079.48 134.545C1079.48 134.545 1079.66 133.545 1079.25 133.185C1078.84 132.825 1078.42 132.405 1078.11 132.125L1077.27 131.165Z" stroke="black" stroke-width="0.75"/>
</g>
<path d="M1086.25 131.711V128.259C1086.25 127.775 1085.86 127.385 1085.38 127.385C1084.89 127.385 1084.5 127.775 1084.5 128.259V131.711C1084.5 132.195 1084.89 132.585 1085.38 132.585C1085.86 132.585 1086.25 132.195 1086.25 131.711Z" fill="black" stroke="white"/>
<path d="M1084.27 131.706L1084.25 128.253C1084.25 127.768 1083.85 127.382 1083.37 127.385C1082.89 127.388 1082.5 127.779 1082.5 128.263L1082.52 131.717C1082.52 132.201 1082.92 132.588 1083.4 132.585C1083.88 132.582 1084.27 132.191 1084.27 131.706Z" fill="black" stroke="white"/>
<path d="M1080.5 128.267L1080.52 131.713C1080.52 132.195 1080.91 132.588 1081.4 132.585C1081.89 132.582 1082.27 132.185 1082.27 131.703L1082.25 128.256C1082.25 127.774 1081.86 127.382 1081.37 127.385C1080.88 127.388 1080.5 127.785 1080.5 128.267Z" fill="black" stroke="white"/>
<rect x="997.652" y="99.6152" width="121.61" height="49.7693" stroke="#643ABD"/>
<defs>
<filter id="filter0_d_2029_8936" x="1072.19" y="118.096" width="18.7461" height="19.6586" filterUnits="userSpaceOnUse" color-interpolation-filters="sRGB">
<feFlood flood-opacity="0" result="BackgroundImageFix"/>
<feColorMatrix in="SourceAlpha" type="matrix" values="0 0 0 0 0 0 0 0 0 0 0 0 0 0 0 0 0 0 127 0" result="hardAlpha"/>
<feOffset dy="1"/>
<feGaussianBlur stdDeviation="0.9"/>
<feColorMatrix type="matrix" values="0 0 0 0 0 0 0 0 0 0 0 0 0 0 0 0 0 0 0.65 0"/>
<feBlend mode="normal" in2="BackgroundImageFix" result="effect1_dropShadow_2029_8936"/>
<feBlend mode="normal" in="SourceGraphic" in2="effect1_dropShadow_2029_8936" result="shape"/>
</filter>
<clipPath id="clip0_2029_8936">
<rect width="160" height="21" fill="white" transform="translate(1159 128.885)"/>
</clipPath>
<clipPath id="clip1_2029_8936">
<rect width="160" height="21" fill="white" transform="translate(977 128.885)"/>
</clipPath>
</defs>
</svg>
