<svg width="270" height="158" viewBox="0 0 270 158" fill="none" xmlns="http://www.w3.org/2000/svg">
<mask id="path-1-inside-1_2029_8982" fill="white">
<path d="M0 0H270V158H0V0Z"/>
</mask>
<path d="M0 0H270V158H0V0Z" fill="#1A1A1A"/>
<path d="M270 158V159H271V158H270ZM269 0V158H271V0H269ZM270 157H0V159H270V157Z" fill="white" fill-opacity="0.3" mask="url(#path-1-inside-1_2029_8982)"/>
<path d="M32.358 86H30.5114L35.8523 71.4545H37.6705L43.0114 86H41.1648L36.8182 73.7557H36.7045L32.358 86ZM33.0398 80.3182H40.483V81.8807H33.0398V80.3182ZM52.777 77.5341L51.2713 77.9602C51.1766 77.7093 51.0369 77.4654 50.8523 77.2287C50.6723 76.9872 50.4261 76.7884 50.1136 76.6321C49.8011 76.4759 49.401 76.3977 48.9134 76.3977C48.2457 76.3977 47.6894 76.5516 47.2443 76.8594C46.804 77.1624 46.5838 77.5483 46.5838 78.017C46.5838 78.4337 46.7353 78.7628 47.0384 79.0043C47.3414 79.2457 47.8149 79.447 48.4588 79.608L50.0781 80.0057C51.0535 80.2424 51.7803 80.6046 52.2585 81.0923C52.7367 81.5753 52.9759 82.1979 52.9759 82.9602C52.9759 83.5852 52.7959 84.1439 52.4361 84.6364C52.081 85.1288 51.5838 85.517 50.9446 85.8011C50.3054 86.0852 49.562 86.2273 48.7145 86.2273C47.6018 86.2273 46.6809 85.9858 45.9517 85.5028C45.2225 85.0199 44.7609 84.3144 44.5668 83.3864L46.1577 82.9886C46.3092 83.5758 46.5956 84.0161 47.017 84.3097C47.4432 84.6032 47.9995 84.75 48.6861 84.75C49.4673 84.75 50.0876 84.5843 50.5469 84.2528C51.0109 83.9167 51.2429 83.5142 51.2429 83.0455C51.2429 82.6667 51.1103 82.3494 50.8452 82.0938C50.58 81.8333 50.1728 81.6392 49.6236 81.5114L47.8054 81.0852C46.8063 80.8485 46.0724 80.4815 45.6037 79.9844C45.1397 79.4825 44.9077 78.8551 44.9077 78.1023C44.9077 77.4867 45.0805 76.9422 45.4261 76.4688C45.7765 75.9953 46.2524 75.6236 46.8537 75.3537C47.4598 75.0838 48.1463 74.9489 48.9134 74.9489C49.9929 74.9489 50.8404 75.1856 51.456 75.6591C52.0762 76.1326 52.5166 76.7576 52.777 77.5341ZM63.2262 77.5341L61.7205 77.9602C61.6258 77.7093 61.4862 77.4654 61.3015 77.2287C61.1216 76.9872 60.8754 76.7884 60.5629 76.6321C60.2504 76.4759 59.8503 76.3977 59.3626 76.3977C58.695 76.3977 58.1386 76.5516 57.6935 76.8594C57.2532 77.1624 57.033 77.5483 57.033 78.017C57.033 78.4337 57.1845 78.7628 57.4876 79.0043C57.7906 79.2457 58.2641 79.447 58.908 79.608L60.5273 80.0057C61.5027 80.2424 62.2295 80.6046 62.7077 81.0923C63.186 81.5753 63.4251 82.1979 63.4251 82.9602C63.4251 83.5852 63.2451 84.1439 62.8853 84.6364C62.5302 85.1288 62.033 85.517 61.3938 85.8011C60.7546 86.0852 60.0112 86.2273 59.1637 86.2273C58.051 86.2273 57.1301 85.9858 56.4009 85.5028C55.6718 85.0199 55.2101 84.3144 55.016 83.3864L56.6069 82.9886C56.7584 83.5758 57.0449 84.0161 57.4663 84.3097C57.8924 84.6032 58.4487 84.75 59.1353 84.75C59.9165 84.75 60.5368 84.5843 60.9961 84.2528C61.4601 83.9167 61.6921 83.5142 61.6921 83.0455C61.6921 82.6667 61.5595 82.3494 61.2944 82.0938C61.0292 81.8333 60.622 81.6392 60.0728 81.5114L58.2546 81.0852C57.2556 80.8485 56.5217 80.4815 56.0529 79.9844C55.5889 79.4825 55.3569 78.8551 55.3569 78.1023C55.3569 77.4867 55.5297 76.9422 55.8754 76.4688C56.2257 75.9953 56.7016 75.6236 57.3029 75.3537C57.909 75.0838 58.5955 74.9489 59.3626 74.9489C60.4421 74.9489 61.2897 75.1856 61.9052 75.6591C62.5254 76.1326 62.9658 76.7576 63.2262 77.5341ZM65.9482 86V75.0909H67.6243V86H65.9482ZM66.8004 73.2727C66.4737 73.2727 66.192 73.1615 65.9553 72.9389C65.7232 72.7164 65.6072 72.4489 65.6072 72.1364C65.6072 71.8239 65.7232 71.5563 65.9553 71.3338C66.192 71.1113 66.4737 71 66.8004 71C67.1271 71 67.4065 71.1113 67.6385 71.3338C67.8752 71.5563 67.9936 71.8239 67.9936 72.1364C67.9936 72.4489 67.8752 72.7164 67.6385 72.9389C67.4065 73.1615 67.1271 73.2727 66.8004 73.2727ZM75.0977 90.3182C74.288 90.3182 73.592 90.214 73.0096 90.0057C72.4272 89.8021 71.9419 89.5322 71.5536 89.196C71.1701 88.8646 70.8647 88.5095 70.6374 88.1307L71.9727 87.1932C72.1242 87.392 72.3159 87.6193 72.5479 87.875C72.7799 88.1354 73.0972 88.3603 73.4996 88.5497C73.9068 88.7438 74.4395 88.8409 75.0977 88.8409C75.9783 88.8409 76.7051 88.6278 77.2781 88.2017C77.851 87.7756 78.1374 87.108 78.1374 86.1989V83.983H77.9954C77.8723 84.1818 77.6971 84.428 77.4698 84.7216C77.2473 85.0104 76.9253 85.2685 76.5039 85.4957C76.0872 85.7183 75.5238 85.8295 74.8136 85.8295C73.9329 85.8295 73.1422 85.6212 72.4414 85.2045C71.7454 84.7879 71.1938 84.1818 70.7866 83.3864C70.3841 82.5909 70.1829 81.625 70.1829 80.4886C70.1829 79.3712 70.3794 78.3982 70.7724 77.5696C71.1654 76.7363 71.7122 76.0923 72.413 75.6378C73.1138 75.1785 73.9234 74.9489 74.842 74.9489C75.5522 74.9489 76.1156 75.0672 76.5323 75.304C76.9537 75.536 77.2757 75.8011 77.4982 76.0994C77.7255 76.393 77.9007 76.6345 78.0238 76.8239H78.1942V75.0909H79.8136V86.3125C79.8136 87.25 79.6005 88.0123 79.1744 88.5994C78.753 89.1913 78.1848 89.6245 77.4698 89.8991C76.7596 90.1785 75.9689 90.3182 75.0977 90.3182ZM75.0408 84.3239C75.7132 84.3239 76.2814 84.17 76.7454 83.8622C77.2094 83.5545 77.5621 83.1117 77.8036 82.5341C78.0451 81.9564 78.1658 81.2652 78.1658 80.4602C78.1658 79.6742 78.0475 78.9806 77.8107 78.3793C77.574 77.7779 77.2236 77.3068 76.7596 76.9659C76.2956 76.625 75.7227 76.4545 75.0408 76.4545C74.3306 76.4545 73.7388 76.6345 73.2653 76.9943C72.7965 77.3542 72.4438 77.8371 72.207 78.4432C71.975 79.0492 71.859 79.7216 71.859 80.4602C71.859 81.2178 71.9774 81.8878 72.2141 82.4702C72.4556 83.0478 72.8107 83.5024 73.2795 83.8338C73.753 84.1605 74.3401 84.3239 75.0408 84.3239ZM84.5579 79.4375V86H82.8817V75.0909H84.5011V76.7955H84.6431C84.8988 76.2415 85.2871 75.7964 85.8079 75.4602C86.3287 75.1193 87.0011 74.9489 87.8249 74.9489C88.5636 74.9489 89.2099 75.1004 89.7638 75.4034C90.3178 75.7017 90.7487 76.1562 91.0565 76.767C91.3642 77.3731 91.5181 78.1402 91.5181 79.0682V86H89.842V79.1818C89.842 78.3248 89.6194 77.6572 89.1744 77.179C88.7293 76.696 88.1185 76.4545 87.342 76.4545C86.8069 76.4545 86.3287 76.5705 85.9073 76.8026C85.4906 77.0346 85.1616 77.3731 84.9201 77.8182C84.6786 78.2633 84.5579 78.803 84.5579 79.4375ZM107.081 81.5398V75.0909H108.757V86H107.081V84.1534H106.967C106.712 84.7074 106.314 85.1785 105.774 85.5668C105.234 85.9503 104.553 86.142 103.729 86.142C103.047 86.142 102.441 85.9929 101.911 85.6946C101.38 85.3916 100.964 84.937 100.661 84.331C100.357 83.7202 100.206 82.9508 100.206 82.0227V75.0909H101.882V81.9091C101.882 82.7045 102.105 83.339 102.55 83.8125C103 84.286 103.572 84.5227 104.268 84.5227C104.685 84.5227 105.109 84.4162 105.54 84.2031C105.975 83.9901 106.34 83.6634 106.634 83.223C106.932 82.7827 107.081 82.2216 107.081 81.5398ZM119.554 77.5341L118.049 77.9602C117.954 77.7093 117.814 77.4654 117.63 77.2287C117.45 76.9872 117.203 76.7884 116.891 76.6321C116.578 76.4759 116.178 76.3977 115.691 76.3977C115.023 76.3977 114.467 76.5516 114.022 76.8594C113.581 77.1624 113.361 77.5483 113.361 78.017C113.361 78.4337 113.513 78.7628 113.816 79.0043C114.119 79.2457 114.592 79.447 115.236 79.608L116.855 80.0057C117.831 80.2424 118.558 80.6046 119.036 81.0923C119.514 81.5753 119.753 82.1979 119.753 82.9602C119.753 83.5852 119.573 84.1439 119.213 84.6364C118.858 85.1288 118.361 85.517 117.722 85.8011C117.083 86.0852 116.339 86.2273 115.492 86.2273C114.379 86.2273 113.458 85.9858 112.729 85.5028C112 85.0199 111.538 84.3144 111.344 83.3864L112.935 82.9886C113.087 83.5758 113.373 84.0161 113.794 84.3097C114.221 84.6032 114.777 84.75 115.463 84.75C116.245 84.75 116.865 84.5843 117.324 84.2528C117.788 83.9167 118.02 83.5142 118.02 83.0455C118.02 82.6667 117.888 82.3494 117.623 82.0938C117.357 81.8333 116.95 81.6392 116.401 81.5114L114.583 81.0852C113.584 80.8485 112.85 80.4815 112.381 79.9844C111.917 79.4825 111.685 78.8551 111.685 78.1023C111.685 77.4867 111.858 76.9422 112.203 76.4688C112.554 75.9953 113.03 75.6236 113.631 75.3537C114.237 75.0838 114.924 74.9489 115.691 74.9489C116.77 74.9489 117.618 75.1856 118.233 75.6591C118.854 76.1326 119.294 76.7576 119.554 77.5341ZM126.85 86.2273C125.799 86.2273 124.892 85.9953 124.13 85.5312C123.372 85.0625 122.788 84.4091 122.376 83.571C121.969 82.7282 121.765 81.7481 121.765 80.6307C121.765 79.5133 121.969 78.5284 122.376 77.6761C122.788 76.8191 123.361 76.1515 124.094 75.6733C124.833 75.1903 125.695 74.9489 126.68 74.9489C127.248 74.9489 127.809 75.0436 128.363 75.233C128.917 75.4223 129.421 75.7301 129.876 76.1562C130.33 76.5777 130.692 77.1364 130.962 77.8324C131.232 78.5284 131.367 79.3854 131.367 80.4034V81.1136H122.958V79.6648H129.663C129.663 79.0492 129.54 78.5 129.293 78.017C129.052 77.5341 128.706 77.1529 128.256 76.8736C127.811 76.5942 127.286 76.4545 126.68 76.4545C126.012 76.4545 125.434 76.6203 124.947 76.9517C124.464 77.2784 124.092 77.7045 123.832 78.2301C123.571 78.7557 123.441 79.3191 123.441 79.9205V80.8864C123.441 81.7102 123.583 82.4086 123.867 82.9815C124.156 83.5497 124.556 83.983 125.067 84.2812C125.579 84.5748 126.173 84.7216 126.85 84.7216C127.29 84.7216 127.688 84.66 128.043 84.5369C128.403 84.4091 128.713 84.2197 128.974 83.9688C129.234 83.7131 129.435 83.3958 129.577 83.017L131.197 83.4716C131.026 84.0208 130.74 84.5038 130.337 84.9205C129.935 85.3324 129.438 85.6544 128.846 85.8864C128.254 86.1136 127.589 86.2273 126.85 86.2273ZM133.917 86V75.0909H135.536V76.7386H135.65C135.849 76.1989 136.209 75.7609 136.729 75.4247C137.25 75.0885 137.837 74.9205 138.491 74.9205C138.614 74.9205 138.768 74.9228 138.952 74.9276C139.137 74.9323 139.277 74.9394 139.371 74.9489V76.6534C139.315 76.6392 139.184 76.6179 138.981 76.5895C138.782 76.5563 138.571 76.5398 138.349 76.5398C137.818 76.5398 137.345 76.651 136.928 76.8736C136.516 77.0914 136.19 77.3944 135.948 77.7827C135.711 78.1662 135.593 78.6042 135.593 79.0966V86H133.917ZM149.086 77.5341L147.58 77.9602C147.485 77.7093 147.346 77.4654 147.161 77.2287C146.981 76.9872 146.735 76.7884 146.422 76.6321C146.11 76.4759 145.71 76.3977 145.222 76.3977C144.554 76.3977 143.998 76.5516 143.553 76.8594C143.113 77.1624 142.892 77.5483 142.892 78.017C142.892 78.4337 143.044 78.7628 143.347 79.0043C143.65 79.2457 144.123 79.447 144.767 79.608L146.387 80.0057C147.362 80.2424 148.089 80.6046 148.567 81.0923C149.045 81.5753 149.284 82.1979 149.284 82.9602C149.284 83.5852 149.105 84.1439 148.745 84.6364C148.39 85.1288 147.892 85.517 147.253 85.8011C146.614 86.0852 145.871 86.2273 145.023 86.2273C143.91 86.2273 142.989 85.9858 142.26 85.5028C141.531 85.0199 141.069 84.3144 140.875 83.3864L142.466 82.9886C142.618 83.5758 142.904 84.0161 143.326 84.3097C143.752 84.6032 144.308 84.75 144.995 84.75C145.776 84.75 146.396 84.5843 146.855 84.2528C147.319 83.9167 147.551 83.5142 147.551 83.0455C147.551 82.6667 147.419 82.3494 147.154 82.0938C146.889 81.8333 146.481 81.6392 145.932 81.5114L144.114 81.0852C143.115 80.8485 142.381 80.4815 141.912 79.9844C141.448 79.4825 141.216 78.8551 141.216 78.1023C141.216 77.4867 141.389 76.9422 141.735 76.4688C142.085 75.9953 142.561 75.6236 143.162 75.3537C143.768 75.0838 144.455 74.9489 145.222 74.9489C146.301 74.9489 147.149 75.1856 147.765 75.6591C148.385 76.1326 148.825 76.7576 149.086 77.5341Z" fill="white" fill-opacity="0.95"/>
</svg>
