<svg width="1300" height="287" viewBox="0 0 1300 287" fill="none" xmlns="http://www.w3.org/2000/svg">
<rect width="1300" height="287" rx="20" fill="#262626"/>
<path d="M376.75 141C376.75 143.761 374.511 146 371.75 146C368.989 146 366.75 143.761 366.75 141C366.75 138.239 368.989 136 371.75 136C374.511 136 376.75 138.239 376.75 141Z" stroke="#3492EB" stroke-width="2"/>
<g clip-path="url(#clip0_2029_12016)">
<path d="M392.422 138.993C392.369 138.522 392.15 138.158 391.766 137.899C391.381 137.637 390.897 137.506 390.314 137.506C389.896 137.506 389.535 137.573 389.23 137.705C388.925 137.835 388.688 138.013 388.519 138.242C388.353 138.468 388.271 138.724 388.271 139.013C388.271 139.255 388.327 139.464 388.44 139.639C388.556 139.815 388.706 139.962 388.892 140.082C389.081 140.198 389.283 140.295 389.499 140.375C389.714 140.451 389.921 140.514 390.12 140.564L391.114 140.822C391.439 140.902 391.772 141.01 392.114 141.146C392.455 141.281 392.772 141.46 393.063 141.683C393.355 141.905 393.59 142.18 393.769 142.508C393.951 142.836 394.043 143.229 394.043 143.686C394.043 144.263 393.893 144.775 393.595 145.222C393.3 145.67 392.871 146.023 392.308 146.281C391.747 146.54 391.07 146.669 390.274 146.669C389.512 146.669 388.852 146.548 388.295 146.306C387.739 146.064 387.303 145.721 386.988 145.277C386.673 144.83 386.499 144.299 386.466 143.686H388.007C388.037 144.054 388.156 144.361 388.365 144.606C388.577 144.848 388.847 145.028 389.175 145.148C389.507 145.264 389.87 145.322 390.264 145.322C390.698 145.322 391.085 145.254 391.423 145.118C391.764 144.979 392.032 144.786 392.228 144.541C392.424 144.293 392.521 144.003 392.521 143.671C392.521 143.37 392.435 143.123 392.263 142.93C392.094 142.738 391.863 142.579 391.572 142.453C391.283 142.327 390.957 142.216 390.592 142.12L389.389 141.792C388.574 141.57 387.928 141.243 387.45 140.812C386.976 140.382 386.739 139.812 386.739 139.102C386.739 138.516 386.898 138.004 387.217 137.566C387.535 137.129 387.966 136.789 388.509 136.547C389.053 136.302 389.666 136.179 390.349 136.179C391.038 136.179 391.646 136.3 392.173 136.542C392.704 136.784 393.121 137.117 393.426 137.541C393.731 137.962 393.89 138.446 393.903 138.993H392.422ZM399.324 138.864V140.057H395.153V138.864H399.324ZM396.271 137.034H397.758V144.258C397.758 144.546 397.801 144.763 397.887 144.909C397.973 145.052 398.084 145.149 398.22 145.202C398.359 145.252 398.51 145.277 398.672 145.277C398.792 145.277 398.896 145.269 398.986 145.252C399.075 145.236 399.145 145.222 399.194 145.212L399.463 146.44C399.377 146.473 399.254 146.507 399.095 146.54C398.936 146.576 398.737 146.596 398.498 146.599C398.107 146.606 397.743 146.536 397.405 146.391C397.067 146.245 396.793 146.019 396.584 145.714C396.376 145.41 396.271 145.027 396.271 144.566V137.034ZM404.177 146.654C403.425 146.654 402.777 146.493 402.233 146.172C401.693 145.847 401.275 145.391 400.98 144.805C400.689 144.215 400.543 143.524 400.543 142.732C400.543 141.949 400.689 141.26 400.98 140.663C401.275 140.067 401.686 139.601 402.213 139.266C402.744 138.932 403.364 138.764 404.073 138.764C404.504 138.764 404.921 138.835 405.326 138.978C405.73 139.121 406.093 139.344 406.414 139.649C406.736 139.954 406.989 140.35 407.175 140.837C407.361 141.321 407.453 141.91 407.453 142.602V143.129H401.383V142.016H405.997C405.997 141.625 405.917 141.278 405.758 140.977C405.599 140.672 405.375 140.431 405.087 140.256C404.802 140.08 404.467 139.992 404.083 139.992C403.665 139.992 403.301 140.095 402.989 140.3C402.681 140.503 402.442 140.768 402.273 141.096C402.107 141.421 402.025 141.774 402.025 142.155V143.025C402.025 143.535 402.114 143.969 402.293 144.327C402.475 144.685 402.729 144.959 403.054 145.148C403.378 145.333 403.758 145.426 404.192 145.426C404.474 145.426 404.731 145.386 404.963 145.307C405.195 145.224 405.395 145.101 405.564 144.939C405.733 144.777 405.863 144.576 405.952 144.337L407.359 144.591C407.246 145.005 407.044 145.368 406.752 145.68C406.464 145.988 406.101 146.228 405.664 146.401C405.23 146.57 404.734 146.654 404.177 146.654ZM409.103 149.364V138.864H410.555V140.102H410.679C410.765 139.942 410.889 139.759 411.052 139.55C411.214 139.341 411.439 139.159 411.728 139.003C412.016 138.844 412.397 138.764 412.871 138.764C413.488 138.764 414.038 138.92 414.522 139.232C415.006 139.543 415.385 139.992 415.66 140.579C415.939 141.165 416.078 141.871 416.078 142.697C416.078 143.522 415.94 144.23 415.665 144.82C415.39 145.406 415.012 145.859 414.532 146.177C414.051 146.492 413.503 146.649 412.886 146.649C412.422 146.649 412.043 146.571 411.748 146.415C411.456 146.26 411.227 146.077 411.062 145.869C410.896 145.66 410.768 145.474 410.679 145.312H410.589V149.364H409.103ZM410.559 142.682C410.559 143.219 410.637 143.689 410.793 144.094C410.949 144.498 411.174 144.815 411.469 145.043C411.764 145.269 412.126 145.381 412.553 145.381C412.997 145.381 413.368 145.264 413.667 145.028C413.965 144.79 414.19 144.467 414.343 144.059C414.499 143.651 414.577 143.192 414.577 142.682C414.577 142.178 414.5 141.726 414.348 141.325C414.199 140.924 413.973 140.607 413.672 140.375C413.373 140.143 413.001 140.027 412.553 140.027C412.122 140.027 411.758 140.138 411.459 140.36C411.164 140.582 410.941 140.892 410.788 141.29C410.636 141.687 410.559 142.152 410.559 142.682ZM422.935 136.318V146.5H421.449V136.318H422.935ZM427.157 146.669C426.673 146.669 426.236 146.58 425.845 146.401C425.454 146.218 425.144 145.955 424.915 145.61C424.69 145.265 424.577 144.843 424.577 144.342C424.577 143.911 424.66 143.557 424.825 143.278C424.991 143 425.215 142.78 425.497 142.617C425.778 142.455 426.093 142.332 426.441 142.249C426.789 142.166 427.144 142.103 427.505 142.06C427.963 142.007 428.334 141.964 428.619 141.931C428.904 141.895 429.111 141.837 429.24 141.757C429.369 141.678 429.434 141.548 429.434 141.369V141.335C429.434 140.9 429.311 140.564 429.066 140.325C428.824 140.087 428.463 139.967 427.982 139.967C427.482 139.967 427.088 140.078 426.799 140.3C426.514 140.519 426.317 140.763 426.208 141.031L424.811 140.713C424.976 140.249 425.218 139.875 425.536 139.589C425.858 139.301 426.227 139.092 426.645 138.963C427.063 138.83 427.502 138.764 427.963 138.764C428.267 138.764 428.591 138.801 428.932 138.874C429.277 138.943 429.598 139.072 429.896 139.261C430.198 139.45 430.445 139.72 430.637 140.072C430.829 140.42 430.926 140.872 430.926 141.429V146.5H429.474V145.456H429.414C429.318 145.648 429.174 145.837 428.982 146.023C428.789 146.208 428.543 146.362 428.241 146.485C427.939 146.608 427.578 146.669 427.157 146.669ZM427.48 145.476C427.891 145.476 428.243 145.395 428.534 145.232C428.829 145.07 429.053 144.858 429.205 144.596C429.361 144.331 429.439 144.047 429.439 143.746V142.761C429.386 142.814 429.283 142.864 429.131 142.911C428.982 142.954 428.811 142.992 428.619 143.025C428.427 143.055 428.239 143.083 428.057 143.109C427.875 143.133 427.722 143.152 427.6 143.169C427.311 143.205 427.048 143.267 426.809 143.353C426.574 143.439 426.385 143.563 426.242 143.726C426.103 143.885 426.034 144.097 426.034 144.362C426.034 144.73 426.169 145.009 426.441 145.197C426.713 145.383 427.059 145.476 427.48 145.476ZM433.025 146.5V136.318H434.511V140.102H434.601C434.687 139.942 434.811 139.759 434.974 139.55C435.136 139.341 435.362 139.159 435.65 139.003C435.938 138.844 436.319 138.764 436.793 138.764C437.41 138.764 437.96 138.92 438.444 139.232C438.928 139.543 439.307 139.992 439.582 140.579C439.861 141.165 440 141.871 440 142.697C440 143.522 439.862 144.23 439.587 144.82C439.312 145.406 438.934 145.859 438.454 146.177C437.973 146.492 437.425 146.649 436.808 146.649C436.344 146.649 435.965 146.571 435.67 146.415C435.378 146.26 435.149 146.077 434.984 145.869C434.818 145.66 434.69 145.474 434.601 145.312H434.477V146.5H433.025ZM434.482 142.682C434.482 143.219 434.559 143.689 434.715 144.094C434.871 144.498 435.096 144.815 435.391 145.043C435.686 145.269 436.048 145.381 436.475 145.381C436.919 145.381 437.29 145.264 437.589 145.028C437.887 144.79 438.112 144.467 438.265 144.059C438.421 143.651 438.499 143.192 438.499 142.682C438.499 142.178 438.422 141.726 438.27 141.325C438.121 140.924 437.895 140.607 437.594 140.375C437.295 140.143 436.923 140.027 436.475 140.027C436.044 140.027 435.68 140.138 435.381 140.36C435.086 140.582 434.863 140.892 434.71 141.29C434.558 141.687 434.482 142.152 434.482 142.682ZM444.96 146.654C444.208 146.654 443.56 146.493 443.017 146.172C442.476 145.847 442.059 145.391 441.764 144.805C441.472 144.215 441.326 143.524 441.326 142.732C441.326 141.949 441.472 141.26 441.764 140.663C442.059 140.067 442.47 139.601 442.997 139.266C443.527 138.932 444.147 138.764 444.856 138.764C445.287 138.764 445.704 138.835 446.109 138.978C446.513 139.121 446.876 139.344 447.198 139.649C447.519 139.954 447.773 140.35 447.958 140.837C448.144 141.321 448.237 141.91 448.237 142.602V143.129H442.166V142.016H446.78C446.78 141.625 446.7 141.278 446.541 140.977C446.382 140.672 446.159 140.431 445.87 140.256C445.585 140.08 445.25 139.992 444.866 139.992C444.448 139.992 444.084 140.095 443.772 140.3C443.464 140.503 443.225 140.768 443.056 141.096C442.891 141.421 442.808 141.774 442.808 142.155V143.025C442.808 143.535 442.897 143.969 443.076 144.327C443.258 144.685 443.512 144.959 443.837 145.148C444.162 145.333 444.541 145.426 444.975 145.426C445.257 145.426 445.514 145.386 445.746 145.307C445.978 145.224 446.178 145.101 446.347 144.939C446.517 144.777 446.646 144.576 446.735 144.337L448.142 144.591C448.03 145.005 447.827 145.368 447.536 145.68C447.247 145.988 446.884 146.228 446.447 146.401C446.013 146.57 445.517 146.654 444.96 146.654ZM451.373 136.318V146.5H449.886V136.318H451.373ZM457.872 141.553V142.841H453.357V141.553H457.872ZM462.075 146.669C461.591 146.669 461.154 146.58 460.763 146.401C460.372 146.218 460.062 145.955 459.833 145.61C459.608 145.265 459.495 144.843 459.495 144.342C459.495 143.911 459.578 143.557 459.743 143.278C459.909 143 460.133 142.78 460.415 142.617C460.696 142.455 461.011 142.332 461.359 142.249C461.707 142.166 462.062 142.103 462.423 142.06C462.881 142.007 463.252 141.964 463.537 141.931C463.822 141.895 464.029 141.837 464.158 141.757C464.287 141.678 464.352 141.548 464.352 141.369V141.335C464.352 140.9 464.229 140.564 463.984 140.325C463.742 140.087 463.381 139.967 462.9 139.967C462.4 139.967 462.006 140.078 461.717 140.3C461.432 140.519 461.235 140.763 461.126 141.031L459.729 140.713C459.894 140.249 460.136 139.875 460.454 139.589C460.776 139.301 461.145 139.092 461.563 138.963C461.981 138.83 462.42 138.764 462.881 138.764C463.185 138.764 463.509 138.801 463.85 138.874C464.195 138.943 464.516 139.072 464.814 139.261C465.116 139.45 465.363 139.72 465.555 140.072C465.747 140.42 465.844 140.872 465.844 141.429V146.5H464.392V145.456H464.332C464.236 145.648 464.092 145.837 463.9 146.023C463.707 146.208 463.461 146.362 463.159 146.485C462.857 146.608 462.496 146.669 462.075 146.669ZM462.398 145.476C462.809 145.476 463.161 145.395 463.452 145.232C463.747 145.07 463.971 144.858 464.123 144.596C464.279 144.331 464.357 144.047 464.357 143.746V142.761C464.304 142.814 464.201 142.864 464.049 142.911C463.9 142.954 463.729 142.992 463.537 143.025C463.345 143.055 463.157 143.083 462.975 143.109C462.793 143.133 462.64 143.152 462.518 143.169C462.229 143.205 461.966 143.267 461.727 143.353C461.492 143.439 461.303 143.563 461.16 143.726C461.021 143.885 460.952 144.097 460.952 144.362C460.952 144.73 461.087 145.009 461.359 145.197C461.631 145.383 461.977 145.476 462.398 145.476ZM471.04 146.654C470.301 146.654 469.665 146.487 469.131 146.152C468.601 145.814 468.193 145.348 467.908 144.755C467.623 144.162 467.48 143.482 467.48 142.717C467.48 141.941 467.626 141.257 467.918 140.663C468.21 140.067 468.621 139.601 469.151 139.266C469.681 138.932 470.306 138.764 471.025 138.764C471.605 138.764 472.122 138.872 472.576 139.087C473.03 139.299 473.397 139.598 473.675 139.982C473.957 140.367 474.124 140.816 474.177 141.33H472.73C472.651 140.972 472.469 140.663 472.184 140.405C471.902 140.146 471.524 140.017 471.05 140.017C470.636 140.017 470.273 140.126 469.961 140.345C469.653 140.561 469.413 140.869 469.24 141.27C469.068 141.668 468.982 142.138 468.982 142.682C468.982 143.239 469.066 143.719 469.235 144.124C469.404 144.528 469.643 144.841 469.951 145.063C470.263 145.285 470.629 145.396 471.05 145.396C471.332 145.396 471.587 145.345 471.816 145.242C472.048 145.136 472.242 144.985 472.397 144.79C472.556 144.594 472.667 144.359 472.73 144.084H474.177C474.124 144.578 473.963 145.018 473.695 145.406C473.426 145.794 473.067 146.099 472.616 146.321C472.169 146.543 471.643 146.654 471.04 146.654ZM479.331 138.864V140.057H475.16V138.864H479.331ZM476.279 137.034H477.765V144.258C477.765 144.546 477.809 144.763 477.895 144.909C477.981 145.052 478.092 145.149 478.228 145.202C478.367 145.252 478.518 145.277 478.68 145.277C478.8 145.277 478.904 145.269 478.993 145.252C479.083 145.236 479.153 145.222 479.202 145.212L479.471 146.44C479.385 146.473 479.262 146.507 479.103 146.54C478.944 146.576 478.745 146.596 478.506 146.599C478.115 146.606 477.751 146.536 477.412 146.391C477.074 146.245 476.801 146.019 476.592 145.714C476.383 145.41 476.279 145.027 476.279 144.566V137.034ZM480.976 146.5V138.864H482.462V146.5H480.976ZM481.727 137.685C481.468 137.685 481.246 137.599 481.06 137.427C480.878 137.251 480.787 137.042 480.787 136.8C480.787 136.555 480.878 136.346 481.06 136.174C481.246 135.998 481.468 135.911 481.727 135.911C481.985 135.911 482.205 135.998 482.388 136.174C482.573 136.346 482.666 136.555 482.666 136.8C482.666 137.042 482.573 137.251 482.388 137.427C482.205 137.599 481.985 137.685 481.727 137.685ZM490.995 138.864L488.226 146.5H486.635L483.861 138.864H485.456L487.39 144.74H487.47L489.399 138.864H490.995ZM495.423 146.654C494.671 146.654 494.023 146.493 493.479 146.172C492.939 145.847 492.522 145.391 492.227 144.805C491.935 144.215 491.789 143.524 491.789 142.732C491.789 141.949 491.935 141.26 492.227 140.663C492.522 140.067 492.933 139.601 493.46 139.266C493.99 138.932 494.61 138.764 495.319 138.764C495.75 138.764 496.167 138.835 496.572 138.978C496.976 139.121 497.339 139.344 497.661 139.649C497.982 139.954 498.236 140.35 498.421 140.837C498.607 141.321 498.7 141.91 498.7 142.602V143.129H492.629V142.016H497.243C497.243 141.625 497.163 141.278 497.004 140.977C496.845 140.672 496.621 140.431 496.333 140.256C496.048 140.08 495.713 139.992 495.329 139.992C494.911 139.992 494.547 140.095 494.235 140.3C493.927 140.503 493.688 140.768 493.519 141.096C493.353 141.421 493.271 141.774 493.271 142.155V143.025C493.271 143.535 493.36 143.969 493.539 144.327C493.721 144.685 493.975 144.959 494.3 145.148C494.625 145.333 495.004 145.426 495.438 145.426C495.72 145.426 495.977 145.386 496.209 145.307C496.441 145.224 496.641 145.101 496.81 144.939C496.979 144.777 497.109 144.576 497.198 144.337L498.605 144.591C498.492 145.005 498.29 145.368 497.999 145.68C497.71 145.988 497.347 146.228 496.91 146.401C496.476 146.57 495.98 146.654 495.423 146.654Z" fill="white" fill-opacity="0.95"/>
</g>
<rect x="507.75" y="140" width="24" height="2" fill="#8F8F8F"/>
<path d="M554.75 141C554.75 144.866 551.616 148 547.75 148C543.884 148 540.75 144.866 540.75 141C540.75 137.134 543.884 134 547.75 134C551.616 134 554.75 137.134 554.75 141Z" stroke="#64B4FA" stroke-width="2"/>
<g clip-path="url(#clip1_2029_12016)">
<path d="M565.018 146V135.818H566.251V144.906H570.984V146H565.018ZM574.981 146.179C574.497 146.179 574.058 146.088 573.664 145.906C573.269 145.72 572.956 145.453 572.724 145.105C572.492 144.754 572.376 144.33 572.376 143.832C572.376 143.395 572.462 143.04 572.635 142.768C572.807 142.493 573.037 142.278 573.326 142.122C573.614 141.966 573.932 141.85 574.28 141.774C574.632 141.695 574.984 141.632 575.339 141.585C575.803 141.526 576.179 141.481 576.468 141.451C576.759 141.418 576.971 141.363 577.104 141.287C577.24 141.211 577.308 141.078 577.308 140.889V140.849C577.308 140.359 577.174 139.978 576.905 139.706C576.64 139.434 576.237 139.298 575.697 139.298C575.137 139.298 574.698 139.421 574.38 139.666C574.061 139.911 573.838 140.173 573.708 140.452L572.595 140.054C572.794 139.59 573.059 139.229 573.39 138.97C573.725 138.708 574.09 138.526 574.484 138.423C574.882 138.317 575.273 138.264 575.657 138.264C575.903 138.264 576.184 138.294 576.502 138.354C576.824 138.41 577.134 138.528 577.432 138.707C577.734 138.886 577.984 139.156 578.183 139.517C578.382 139.878 578.481 140.362 578.481 140.969V146H577.308V144.966H577.248C577.169 145.132 577.036 145.309 576.85 145.498C576.665 145.687 576.418 145.848 576.11 145.98C575.801 146.113 575.425 146.179 574.981 146.179ZM575.16 145.125C575.624 145.125 576.015 145.034 576.333 144.852C576.655 144.669 576.897 144.434 577.059 144.146C577.225 143.857 577.308 143.554 577.308 143.236V142.162C577.258 142.222 577.149 142.276 576.98 142.326C576.814 142.372 576.622 142.414 576.403 142.45C576.188 142.483 575.977 142.513 575.772 142.54C575.569 142.563 575.405 142.583 575.279 142.599C574.975 142.639 574.69 142.704 574.424 142.793C574.163 142.879 573.95 143.01 573.788 143.186C573.629 143.358 573.549 143.594 573.549 143.892C573.549 144.3 573.7 144.608 574.002 144.817C574.307 145.022 574.693 145.125 575.16 145.125ZM580.782 146V135.818H581.955V139.577H582.055C582.141 139.444 582.26 139.275 582.412 139.07C582.568 138.861 582.79 138.675 583.079 138.513C583.37 138.347 583.765 138.264 584.262 138.264C584.905 138.264 585.472 138.425 585.962 138.746C586.453 139.068 586.836 139.524 587.111 140.114C587.386 140.704 587.523 141.4 587.523 142.202C587.523 143.01 587.386 143.711 587.111 144.305C586.836 144.895 586.454 145.352 585.967 145.677C585.48 145.998 584.918 146.159 584.282 146.159C583.791 146.159 583.398 146.078 583.104 145.915C582.809 145.75 582.581 145.562 582.422 145.354C582.263 145.142 582.141 144.966 582.055 144.827H581.915V146H580.782ZM581.935 142.182C581.935 142.759 582.02 143.267 582.189 143.708C582.358 144.146 582.605 144.489 582.93 144.737C583.254 144.982 583.652 145.105 584.123 145.105C584.613 145.105 585.023 144.976 585.351 144.717C585.682 144.455 585.931 144.104 586.096 143.663C586.265 143.219 586.35 142.725 586.35 142.182C586.35 141.645 586.267 141.161 586.101 140.73C585.939 140.296 585.692 139.953 585.361 139.701C585.032 139.446 584.62 139.318 584.123 139.318C583.645 139.318 583.244 139.439 582.92 139.681C582.595 139.92 582.349 140.254 582.184 140.685C582.018 141.113 581.935 141.612 581.935 142.182ZM592.52 146.159C591.784 146.159 591.149 145.997 590.616 145.672C590.085 145.344 589.676 144.886 589.388 144.3C589.103 143.71 588.96 143.024 588.96 142.241C588.96 141.459 589.103 140.77 589.388 140.173C589.676 139.573 590.077 139.106 590.591 138.771C591.108 138.433 591.711 138.264 592.4 138.264C592.798 138.264 593.191 138.33 593.579 138.463C593.966 138.596 594.319 138.811 594.638 139.109C594.956 139.404 595.209 139.795 595.398 140.283C595.587 140.77 595.682 141.37 595.682 142.082V142.58H589.795V141.565H594.488C594.488 141.134 594.402 140.75 594.23 140.412C594.061 140.074 593.819 139.807 593.504 139.612C593.193 139.416 592.825 139.318 592.4 139.318C591.933 139.318 591.529 139.434 591.187 139.666C590.849 139.895 590.589 140.193 590.407 140.561C590.224 140.929 590.133 141.323 590.133 141.744V142.42C590.133 142.997 590.233 143.486 590.432 143.887C590.634 144.285 590.914 144.588 591.272 144.797C591.63 145.002 592.046 145.105 592.52 145.105C592.828 145.105 593.106 145.062 593.355 144.976C593.607 144.886 593.824 144.754 594.006 144.578C594.189 144.399 594.329 144.177 594.429 143.912L595.562 144.23C595.443 144.615 595.242 144.953 594.961 145.244C594.679 145.533 594.331 145.758 593.917 145.92C593.502 146.08 593.037 146.159 592.52 146.159ZM598.64 135.818V146H597.466V135.818H598.64Z" fill="white" fill-opacity="0.7"/>
</g>
<rect x="607.75" y="140" width="24" height="2" fill="#8F8F8F"/>
<path d="M654.75 141C654.75 144.866 651.616 148 647.75 148C643.884 148 640.75 144.866 640.75 141C640.75 137.134 643.884 134 647.75 134C651.616 134 654.75 137.134 654.75 141Z" stroke="#64B4FA" stroke-width="2"/>
<g clip-path="url(#clip2_2029_12016)">
<path d="M665.018 146V135.818H666.251V144.906H670.984V146H665.018ZM674.981 146.179C674.497 146.179 674.058 146.088 673.664 145.906C673.269 145.72 672.956 145.453 672.724 145.105C672.492 144.754 672.376 144.33 672.376 143.832C672.376 143.395 672.462 143.04 672.635 142.768C672.807 142.493 673.037 142.278 673.326 142.122C673.614 141.966 673.932 141.85 674.28 141.774C674.632 141.695 674.984 141.632 675.339 141.585C675.803 141.526 676.179 141.481 676.468 141.451C676.759 141.418 676.971 141.363 677.104 141.287C677.24 141.211 677.308 141.078 677.308 140.889V140.849C677.308 140.359 677.174 139.978 676.905 139.706C676.64 139.434 676.237 139.298 675.697 139.298C675.137 139.298 674.698 139.421 674.38 139.666C674.061 139.911 673.838 140.173 673.708 140.452L672.595 140.054C672.794 139.59 673.059 139.229 673.39 138.97C673.725 138.708 674.09 138.526 674.484 138.423C674.882 138.317 675.273 138.264 675.657 138.264C675.903 138.264 676.184 138.294 676.502 138.354C676.824 138.41 677.134 138.528 677.432 138.707C677.734 138.886 677.984 139.156 678.183 139.517C678.382 139.878 678.481 140.362 678.481 140.969V146H677.308V144.966H677.248C677.169 145.132 677.036 145.309 676.85 145.498C676.665 145.687 676.418 145.848 676.11 145.98C675.801 146.113 675.425 146.179 674.981 146.179ZM675.16 145.125C675.624 145.125 676.015 145.034 676.333 144.852C676.655 144.669 676.897 144.434 677.059 144.146C677.225 143.857 677.308 143.554 677.308 143.236V142.162C677.258 142.222 677.149 142.276 676.98 142.326C676.814 142.372 676.622 142.414 676.403 142.45C676.188 142.483 675.977 142.513 675.772 142.54C675.569 142.563 675.405 142.583 675.279 142.599C674.975 142.639 674.69 142.704 674.424 142.793C674.163 142.879 673.95 143.01 673.788 143.186C673.629 143.358 673.549 143.594 673.549 143.892C673.549 144.3 673.7 144.608 674.002 144.817C674.307 145.022 674.693 145.125 675.16 145.125ZM680.782 146V135.818H681.955V139.577H682.055C682.141 139.444 682.26 139.275 682.412 139.07C682.568 138.861 682.79 138.675 683.079 138.513C683.37 138.347 683.765 138.264 684.262 138.264C684.905 138.264 685.472 138.425 685.962 138.746C686.453 139.068 686.836 139.524 687.111 140.114C687.386 140.704 687.523 141.4 687.523 142.202C687.523 143.01 687.386 143.711 687.111 144.305C686.836 144.895 686.454 145.352 685.967 145.677C685.48 145.998 684.918 146.159 684.282 146.159C683.791 146.159 683.398 146.078 683.104 145.915C682.809 145.75 682.581 145.562 682.422 145.354C682.263 145.142 682.141 144.966 682.055 144.827H681.915V146H680.782ZM681.935 142.182C681.935 142.759 682.02 143.267 682.189 143.708C682.358 144.146 682.605 144.489 682.93 144.737C683.254 144.982 683.652 145.105 684.123 145.105C684.613 145.105 685.023 144.976 685.351 144.717C685.682 144.455 685.931 144.104 686.096 143.663C686.265 143.219 686.35 142.725 686.35 142.182C686.35 141.645 686.267 141.161 686.101 140.73C685.939 140.296 685.692 139.953 685.361 139.701C685.032 139.446 684.62 139.318 684.123 139.318C683.645 139.318 683.244 139.439 682.92 139.681C682.595 139.92 682.349 140.254 682.184 140.685C682.018 141.113 681.935 141.612 681.935 142.182ZM692.52 146.159C691.784 146.159 691.149 145.997 690.616 145.672C690.085 145.344 689.676 144.886 689.388 144.3C689.103 143.71 688.96 143.024 688.96 142.241C688.96 141.459 689.103 140.77 689.388 140.173C689.676 139.573 690.077 139.106 690.591 138.771C691.108 138.433 691.711 138.264 692.4 138.264C692.798 138.264 693.191 138.33 693.579 138.463C693.966 138.596 694.319 138.811 694.638 139.109C694.956 139.404 695.209 139.795 695.398 140.283C695.587 140.77 695.682 141.37 695.682 142.082V142.58H689.795V141.565H694.488C694.488 141.134 694.402 140.75 694.23 140.412C694.061 140.074 693.819 139.807 693.504 139.612C693.193 139.416 692.825 139.318 692.4 139.318C691.933 139.318 691.529 139.434 691.187 139.666C690.849 139.895 690.589 140.193 690.407 140.561C690.224 140.929 690.133 141.323 690.133 141.744V142.42C690.133 142.997 690.233 143.486 690.432 143.887C690.634 144.285 690.914 144.588 691.272 144.797C691.63 145.002 692.046 145.105 692.52 145.105C692.828 145.105 693.106 145.062 693.355 144.976C693.607 144.886 693.824 144.754 694.006 144.578C694.189 144.399 694.329 144.177 694.429 143.912L695.562 144.23C695.443 144.615 695.242 144.953 694.961 145.244C694.679 145.533 694.331 145.758 693.917 145.92C693.502 146.08 693.037 146.159 692.52 146.159ZM698.64 135.818V146H697.466V135.818H698.64Z" fill="white" fill-opacity="0.7"/>
</g>
<rect x="707.75" y="140" width="24" height="2" fill="#8F8F8F"/>
<path d="M754.75 141C754.75 144.866 751.616 148 747.75 148C743.884 148 740.75 144.866 740.75 141C740.75 137.134 743.884 134 747.75 134C751.616 134 754.75 137.134 754.75 141Z" stroke="#64B4FA" stroke-width="2"/>
<g clip-path="url(#clip3_2029_12016)">
<path d="M765.018 146V135.818H766.251V144.906H770.984V146H765.018ZM774.981 146.179C774.497 146.179 774.058 146.088 773.664 145.906C773.269 145.72 772.956 145.453 772.724 145.105C772.492 144.754 772.376 144.33 772.376 143.832C772.376 143.395 772.462 143.04 772.635 142.768C772.807 142.493 773.037 142.278 773.326 142.122C773.614 141.966 773.932 141.85 774.28 141.774C774.632 141.695 774.984 141.632 775.339 141.585C775.803 141.526 776.179 141.481 776.468 141.451C776.759 141.418 776.971 141.363 777.104 141.287C777.24 141.211 777.308 141.078 777.308 140.889V140.849C777.308 140.359 777.174 139.978 776.905 139.706C776.64 139.434 776.237 139.298 775.697 139.298C775.137 139.298 774.698 139.421 774.38 139.666C774.061 139.911 773.838 140.173 773.708 140.452L772.595 140.054C772.794 139.59 773.059 139.229 773.39 138.97C773.725 138.708 774.09 138.526 774.484 138.423C774.882 138.317 775.273 138.264 775.657 138.264C775.903 138.264 776.184 138.294 776.502 138.354C776.824 138.41 777.134 138.528 777.432 138.707C777.734 138.886 777.984 139.156 778.183 139.517C778.382 139.878 778.481 140.362 778.481 140.969V146H777.308V144.966H777.248C777.169 145.132 777.036 145.309 776.85 145.498C776.665 145.687 776.418 145.848 776.11 145.98C775.801 146.113 775.425 146.179 774.981 146.179ZM775.16 145.125C775.624 145.125 776.015 145.034 776.333 144.852C776.655 144.669 776.897 144.434 777.059 144.146C777.225 143.857 777.308 143.554 777.308 143.236V142.162C777.258 142.222 777.149 142.276 776.98 142.326C776.814 142.372 776.622 142.414 776.403 142.45C776.188 142.483 775.977 142.513 775.772 142.54C775.569 142.563 775.405 142.583 775.279 142.599C774.975 142.639 774.69 142.704 774.424 142.793C774.163 142.879 773.95 143.01 773.788 143.186C773.629 143.358 773.549 143.594 773.549 143.892C773.549 144.3 773.7 144.608 774.002 144.817C774.307 145.022 774.693 145.125 775.16 145.125ZM780.782 146V135.818H781.955V139.577H782.055C782.141 139.444 782.26 139.275 782.412 139.07C782.568 138.861 782.79 138.675 783.079 138.513C783.37 138.347 783.765 138.264 784.262 138.264C784.905 138.264 785.472 138.425 785.962 138.746C786.453 139.068 786.836 139.524 787.111 140.114C787.386 140.704 787.523 141.4 787.523 142.202C787.523 143.01 787.386 143.711 787.111 144.305C786.836 144.895 786.454 145.352 785.967 145.677C785.48 145.998 784.918 146.159 784.282 146.159C783.791 146.159 783.398 146.078 783.104 145.915C782.809 145.75 782.581 145.562 782.422 145.354C782.263 145.142 782.141 144.966 782.055 144.827H781.915V146H780.782ZM781.935 142.182C781.935 142.759 782.02 143.267 782.189 143.708C782.358 144.146 782.605 144.489 782.93 144.737C783.254 144.982 783.652 145.105 784.123 145.105C784.613 145.105 785.023 144.976 785.351 144.717C785.682 144.455 785.931 144.104 786.096 143.663C786.265 143.219 786.35 142.725 786.35 142.182C786.35 141.645 786.267 141.161 786.101 140.73C785.939 140.296 785.692 139.953 785.361 139.701C785.032 139.446 784.62 139.318 784.123 139.318C783.645 139.318 783.244 139.439 782.92 139.681C782.595 139.92 782.349 140.254 782.184 140.685C782.018 141.113 781.935 141.612 781.935 142.182ZM792.52 146.159C791.784 146.159 791.149 145.997 790.616 145.672C790.085 145.344 789.676 144.886 789.388 144.3C789.103 143.71 788.96 143.024 788.96 142.241C788.96 141.459 789.103 140.77 789.388 140.173C789.676 139.573 790.077 139.106 790.591 138.771C791.108 138.433 791.711 138.264 792.4 138.264C792.798 138.264 793.191 138.33 793.579 138.463C793.966 138.596 794.319 138.811 794.638 139.109C794.956 139.404 795.209 139.795 795.398 140.283C795.587 140.77 795.682 141.37 795.682 142.082V142.58H789.795V141.565H794.488C794.488 141.134 794.402 140.75 794.23 140.412C794.061 140.074 793.819 139.807 793.504 139.612C793.193 139.416 792.825 139.318 792.4 139.318C791.933 139.318 791.529 139.434 791.187 139.666C790.849 139.895 790.589 140.193 790.407 140.561C790.224 140.929 790.133 141.323 790.133 141.744V142.42C790.133 142.997 790.233 143.486 790.432 143.887C790.634 144.285 790.914 144.588 791.272 144.797C791.63 145.002 792.046 145.105 792.52 145.105C792.828 145.105 793.106 145.062 793.355 144.976C793.607 144.886 793.824 144.754 794.006 144.578C794.189 144.399 794.329 144.177 794.429 143.912L795.562 144.23C795.443 144.615 795.242 144.953 794.961 145.244C794.679 145.533 794.331 145.758 793.917 145.92C793.502 146.08 793.037 146.159 792.52 146.159ZM798.64 135.818V146H797.466V135.818H798.64Z" fill="white" fill-opacity="0.7"/>
</g>
<rect x="807.75" y="140" width="24" height="2" fill="#8F8F8F"/>
<path d="M854.75 141C854.75 144.866 851.616 148 847.75 148C843.884 148 840.75 144.866 840.75 141C840.75 137.134 843.884 134 847.75 134C851.616 134 854.75 137.134 854.75 141Z" stroke="#64B4FA" stroke-width="2"/>
<g clip-path="url(#clip4_2029_12016)">
<path d="M865.018 146V135.818H866.251V144.906H870.984V146H865.018ZM874.981 146.179C874.497 146.179 874.058 146.088 873.664 145.906C873.269 145.72 872.956 145.453 872.724 145.105C872.492 144.754 872.376 144.33 872.376 143.832C872.376 143.395 872.462 143.04 872.635 142.768C872.807 142.493 873.037 142.278 873.326 142.122C873.614 141.966 873.932 141.85 874.28 141.774C874.632 141.695 874.984 141.632 875.339 141.585C875.803 141.526 876.179 141.481 876.468 141.451C876.759 141.418 876.971 141.363 877.104 141.287C877.24 141.211 877.308 141.078 877.308 140.889V140.849C877.308 140.359 877.174 139.978 876.905 139.706C876.64 139.434 876.237 139.298 875.697 139.298C875.137 139.298 874.698 139.421 874.38 139.666C874.061 139.911 873.838 140.173 873.708 140.452L872.595 140.054C872.794 139.59 873.059 139.229 873.39 138.97C873.725 138.708 874.09 138.526 874.484 138.423C874.882 138.317 875.273 138.264 875.657 138.264C875.903 138.264 876.184 138.294 876.502 138.354C876.824 138.41 877.134 138.528 877.432 138.707C877.734 138.886 877.984 139.156 878.183 139.517C878.382 139.878 878.481 140.362 878.481 140.969V146H877.308V144.966H877.248C877.169 145.132 877.036 145.309 876.85 145.498C876.665 145.687 876.418 145.848 876.11 145.98C875.801 146.113 875.425 146.179 874.981 146.179ZM875.16 145.125C875.624 145.125 876.015 145.034 876.333 144.852C876.655 144.669 876.897 144.434 877.059 144.146C877.225 143.857 877.308 143.554 877.308 143.236V142.162C877.258 142.222 877.149 142.276 876.98 142.326C876.814 142.372 876.622 142.414 876.403 142.45C876.188 142.483 875.977 142.513 875.772 142.54C875.569 142.563 875.405 142.583 875.279 142.599C874.975 142.639 874.69 142.704 874.424 142.793C874.163 142.879 873.95 143.01 873.788 143.186C873.629 143.358 873.549 143.594 873.549 143.892C873.549 144.3 873.7 144.608 874.002 144.817C874.307 145.022 874.693 145.125 875.16 145.125ZM880.782 146V135.818H881.955V139.577H882.055C882.141 139.444 882.26 139.275 882.412 139.07C882.568 138.861 882.79 138.675 883.079 138.513C883.37 138.347 883.765 138.264 884.262 138.264C884.905 138.264 885.472 138.425 885.962 138.746C886.453 139.068 886.836 139.524 887.111 140.114C887.386 140.704 887.523 141.4 887.523 142.202C887.523 143.01 887.386 143.711 887.111 144.305C886.836 144.895 886.454 145.352 885.967 145.677C885.48 145.998 884.918 146.159 884.282 146.159C883.791 146.159 883.398 146.078 883.104 145.915C882.809 145.75 882.581 145.562 882.422 145.354C882.263 145.142 882.141 144.966 882.055 144.827H881.915V146H880.782ZM881.935 142.182C881.935 142.759 882.02 143.267 882.189 143.708C882.358 144.146 882.605 144.489 882.93 144.737C883.254 144.982 883.652 145.105 884.123 145.105C884.613 145.105 885.023 144.976 885.351 144.717C885.682 144.455 885.931 144.104 886.096 143.663C886.265 143.219 886.35 142.725 886.35 142.182C886.35 141.645 886.267 141.161 886.101 140.73C885.939 140.296 885.692 139.953 885.361 139.701C885.032 139.446 884.62 139.318 884.123 139.318C883.645 139.318 883.244 139.439 882.92 139.681C882.595 139.92 882.349 140.254 882.184 140.685C882.018 141.113 881.935 141.612 881.935 142.182ZM892.52 146.159C891.784 146.159 891.149 145.997 890.616 145.672C890.085 145.344 889.676 144.886 889.388 144.3C889.103 143.71 888.96 143.024 888.96 142.241C888.96 141.459 889.103 140.77 889.388 140.173C889.676 139.573 890.077 139.106 890.591 138.771C891.108 138.433 891.711 138.264 892.4 138.264C892.798 138.264 893.191 138.33 893.579 138.463C893.966 138.596 894.319 138.811 894.638 139.109C894.956 139.404 895.209 139.795 895.398 140.283C895.587 140.77 895.682 141.37 895.682 142.082V142.58H889.795V141.565H894.488C894.488 141.134 894.402 140.75 894.23 140.412C894.061 140.074 893.819 139.807 893.504 139.612C893.193 139.416 892.825 139.318 892.4 139.318C891.933 139.318 891.529 139.434 891.187 139.666C890.849 139.895 890.589 140.193 890.407 140.561C890.224 140.929 890.133 141.323 890.133 141.744V142.42C890.133 142.997 890.233 143.486 890.432 143.887C890.634 144.285 890.914 144.588 891.272 144.797C891.63 145.002 892.046 145.105 892.52 145.105C892.828 145.105 893.106 145.062 893.355 144.976C893.607 144.886 893.824 144.754 894.006 144.578C894.189 144.399 894.329 144.177 894.429 143.912L895.562 144.23C895.443 144.615 895.242 144.953 894.961 145.244C894.679 145.533 894.331 145.758 893.917 145.92C893.502 146.08 893.037 146.159 892.52 146.159ZM898.64 135.818V146H897.466V135.818H898.64Z" fill="white" fill-opacity="0.7"/>
</g>
<rect x="907.75" y="140" width="24" height="2" fill="#8F8F8F"/>
<path d="M954.75 141C954.75 144.866 951.616 148 947.75 148C943.884 148 940.75 144.866 940.75 141C940.75 137.134 943.884 134 947.75 134C951.616 134 954.75 137.134 954.75 141Z" stroke="#64B4FA" stroke-width="2"/>
<g clip-path="url(#clip5_2029_12016)">
<path d="M965.018 146V135.818H966.251V144.906H970.984V146H965.018ZM974.981 146.179C974.497 146.179 974.058 146.088 973.664 145.906C973.269 145.72 972.956 145.453 972.724 145.105C972.492 144.754 972.376 144.33 972.376 143.832C972.376 143.395 972.462 143.04 972.635 142.768C972.807 142.493 973.037 142.278 973.326 142.122C973.614 141.966 973.932 141.85 974.28 141.774C974.632 141.695 974.984 141.632 975.339 141.585C975.803 141.526 976.179 141.481 976.468 141.451C976.759 141.418 976.971 141.363 977.104 141.287C977.24 141.211 977.308 141.078 977.308 140.889V140.849C977.308 140.359 977.174 139.978 976.905 139.706C976.64 139.434 976.237 139.298 975.697 139.298C975.137 139.298 974.698 139.421 974.38 139.666C974.061 139.911 973.838 140.173 973.708 140.452L972.595 140.054C972.794 139.59 973.059 139.229 973.39 138.97C973.725 138.708 974.09 138.526 974.484 138.423C974.882 138.317 975.273 138.264 975.657 138.264C975.903 138.264 976.184 138.294 976.502 138.354C976.824 138.41 977.134 138.528 977.432 138.707C977.734 138.886 977.984 139.156 978.183 139.517C978.382 139.878 978.481 140.362 978.481 140.969V146H977.308V144.966H977.248C977.169 145.132 977.036 145.309 976.85 145.498C976.665 145.687 976.418 145.848 976.11 145.98C975.801 146.113 975.425 146.179 974.981 146.179ZM975.16 145.125C975.624 145.125 976.015 145.034 976.333 144.852C976.655 144.669 976.897 144.434 977.059 144.146C977.225 143.857 977.308 143.554 977.308 143.236V142.162C977.258 142.222 977.149 142.276 976.98 142.326C976.814 142.372 976.622 142.414 976.403 142.45C976.188 142.483 975.977 142.513 975.772 142.54C975.569 142.563 975.405 142.583 975.279 142.599C974.975 142.639 974.69 142.704 974.424 142.793C974.163 142.879 973.95 143.01 973.788 143.186C973.629 143.358 973.549 143.594 973.549 143.892C973.549 144.3 973.7 144.608 974.002 144.817C974.307 145.022 974.693 145.125 975.16 145.125ZM980.782 146V135.818H981.955V139.577H982.055C982.141 139.444 982.26 139.275 982.412 139.07C982.568 138.861 982.79 138.675 983.079 138.513C983.37 138.347 983.765 138.264 984.262 138.264C984.905 138.264 985.472 138.425 985.962 138.746C986.453 139.068 986.836 139.524 987.111 140.114C987.386 140.704 987.523 141.4 987.523 142.202C987.523 143.01 987.386 143.711 987.111 144.305C986.836 144.895 986.454 145.352 985.967 145.677C985.48 145.998 984.918 146.159 984.282 146.159C983.791 146.159 983.398 146.078 983.104 145.915C982.809 145.75 982.581 145.562 982.422 145.354C982.263 145.142 982.141 144.966 982.055 144.827H981.915V146H980.782ZM981.935 142.182C981.935 142.759 982.02 143.267 982.189 143.708C982.358 144.146 982.605 144.489 982.93 144.737C983.254 144.982 983.652 145.105 984.123 145.105C984.613 145.105 985.023 144.976 985.351 144.717C985.682 144.455 985.931 144.104 986.096 143.663C986.265 143.219 986.35 142.725 986.35 142.182C986.35 141.645 986.267 141.161 986.101 140.73C985.939 140.296 985.692 139.953 985.361 139.701C985.032 139.446 984.62 139.318 984.123 139.318C983.645 139.318 983.244 139.439 982.92 139.681C982.595 139.92 982.349 140.254 982.184 140.685C982.018 141.113 981.935 141.612 981.935 142.182ZM992.52 146.159C991.784 146.159 991.149 145.997 990.616 145.672C990.085 145.344 989.676 144.886 989.388 144.3C989.103 143.71 988.96 143.024 988.96 142.241C988.96 141.459 989.103 140.77 989.388 140.173C989.676 139.573 990.077 139.106 990.591 138.771C991.108 138.433 991.711 138.264 992.4 138.264C992.798 138.264 993.191 138.33 993.579 138.463C993.966 138.596 994.319 138.811 994.638 139.109C994.956 139.404 995.209 139.795 995.398 140.283C995.587 140.77 995.682 141.37 995.682 142.082V142.58H989.795V141.565H994.488C994.488 141.134 994.402 140.75 994.23 140.412C994.061 140.074 993.819 139.807 993.504 139.612C993.193 139.416 992.825 139.318 992.4 139.318C991.933 139.318 991.529 139.434 991.187 139.666C990.849 139.895 990.589 140.193 990.407 140.561C990.224 140.929 990.133 141.323 990.133 141.744V142.42C990.133 142.997 990.233 143.486 990.432 143.887C990.634 144.285 990.914 144.588 991.272 144.797C991.63 145.002 992.046 145.105 992.52 145.105C992.828 145.105 993.106 145.062 993.355 144.976C993.607 144.886 993.824 144.754 994.006 144.578C994.189 144.399 994.329 144.177 994.429 143.912L995.562 144.23C995.443 144.615 995.242 144.953 994.961 145.244C994.679 145.533 994.331 145.758 993.917 145.92C993.502 146.08 993.037 146.159 992.52 146.159ZM998.64 135.818V146H997.466V135.818H998.64Z" fill="white" fill-opacity="0.7"/>
</g>
<path d="M383.25 90V124" stroke="#DA0087"/>
<path d="M383.25 132L379.25 124H387.25L383.25 132Z" fill="#DA0087"/>
<rect x="318.25" y="70" width="130" height="28" rx="14" fill="#DA0087"/>
<path d="M338.023 81.2727C337.955 80.697 337.678 80.25 337.193 79.9318C336.708 79.6136 336.114 79.4545 335.409 79.4545C334.894 79.4545 334.443 79.5379 334.057 79.7045C333.674 79.8712 333.375 80.1004 333.159 80.392C332.947 80.6837 332.841 81.0152 332.841 81.3864C332.841 81.697 332.915 81.964 333.062 82.1875C333.214 82.4072 333.407 82.5909 333.642 82.7386C333.877 82.8826 334.123 83.0019 334.381 83.0966C334.638 83.1875 334.875 83.2614 335.091 83.3182L336.273 83.6364C336.576 83.7159 336.913 83.8258 337.284 83.9659C337.659 84.1061 338.017 84.2973 338.358 84.5398C338.703 84.7784 338.987 85.0852 339.21 85.4602C339.434 85.8352 339.545 86.2955 339.545 86.8409C339.545 87.4697 339.381 88.0379 339.051 88.5455C338.725 89.053 338.248 89.4564 337.619 89.7557C336.994 90.0549 336.235 90.2045 335.341 90.2045C334.508 90.2045 333.786 90.0701 333.176 89.8011C332.57 89.5322 332.093 89.1572 331.744 88.6761C331.4 88.1951 331.205 87.6364 331.159 87H332.614C332.652 87.4394 332.799 87.803 333.057 88.0909C333.318 88.375 333.648 88.5871 334.045 88.7273C334.447 88.8636 334.879 88.9318 335.341 88.9318C335.879 88.9318 336.362 88.8447 336.79 88.6705C337.218 88.4924 337.557 88.2462 337.807 87.9318C338.057 87.6136 338.182 87.2424 338.182 86.8182C338.182 86.4318 338.074 86.1174 337.858 85.875C337.642 85.6326 337.358 85.4356 337.006 85.2841C336.653 85.1326 336.273 85 335.864 84.8864L334.432 84.4773C333.523 84.2159 332.803 83.8428 332.273 83.358C331.742 82.8731 331.477 82.2386 331.477 81.4545C331.477 80.803 331.653 80.2348 332.006 79.75C332.362 79.2614 332.839 78.8826 333.438 78.6136C334.04 78.3409 334.712 78.2045 335.455 78.2045C336.205 78.2045 336.871 78.339 337.455 78.608C338.038 78.8731 338.5 79.2367 338.841 79.6989C339.186 80.161 339.367 80.6856 339.386 81.2727H338.023ZM345.476 81.2727V82.4091H340.953V81.2727H345.476ZM342.271 79.1818H343.612V87.5C343.612 87.8788 343.667 88.1629 343.777 88.3523C343.891 88.5379 344.035 88.6629 344.209 88.7273C344.387 88.7879 344.574 88.8182 344.771 88.8182C344.919 88.8182 345.04 88.8106 345.135 88.7955C345.23 88.7765 345.305 88.7614 345.362 88.75L345.635 89.9545C345.544 89.9886 345.417 90.0227 345.254 90.0568C345.091 90.0947 344.885 90.1136 344.635 90.1136C344.256 90.1136 343.885 90.0322 343.521 89.8693C343.161 89.7064 342.862 89.4583 342.624 89.125C342.389 88.7917 342.271 88.3712 342.271 87.8636V79.1818ZM351.058 90.1818C350.217 90.1818 349.492 89.9962 348.882 89.625C348.276 89.25 347.808 88.7273 347.479 88.0568C347.153 87.3826 346.99 86.5985 346.99 85.7045C346.99 84.8106 347.153 84.0227 347.479 83.3409C347.808 82.6553 348.267 82.1212 348.854 81.7386C349.445 81.3523 350.134 81.1591 350.922 81.1591C351.376 81.1591 351.825 81.2348 352.268 81.3864C352.712 81.5379 353.115 81.7841 353.479 82.125C353.842 82.4621 354.132 82.9091 354.348 83.4659C354.564 84.0227 354.672 84.7083 354.672 85.5227V86.0909H347.945V84.9318H353.308C353.308 84.4394 353.21 84 353.013 83.6136C352.82 83.2273 352.543 82.9223 352.183 82.6989C351.827 82.4754 351.407 82.3636 350.922 82.3636C350.388 82.3636 349.926 82.4962 349.536 82.7614C349.149 83.0227 348.852 83.3636 348.643 83.7841C348.435 84.2045 348.331 84.6553 348.331 85.1364V85.9091C348.331 86.5682 348.445 87.1269 348.672 87.5852C348.903 88.0398 349.223 88.3864 349.632 88.625C350.041 88.8598 350.517 88.9773 351.058 88.9773C351.411 88.9773 351.729 88.928 352.013 88.8295C352.301 88.7273 352.549 88.5758 352.757 88.375C352.965 88.1705 353.126 87.9167 353.24 87.6136L354.536 87.9773C354.399 88.4167 354.17 88.803 353.848 89.1364C353.526 89.4659 353.128 89.7235 352.655 89.9091C352.181 90.0909 351.649 90.1818 351.058 90.1818ZM356.712 93.2727V81.2727H358.007V82.6591H358.166C358.265 82.5076 358.401 82.3144 358.575 82.0795C358.753 81.8409 359.007 81.6288 359.337 81.4432C359.67 81.2538 360.121 81.1591 360.689 81.1591C361.424 81.1591 362.071 81.3428 362.632 81.7102C363.193 82.0777 363.63 82.5985 363.945 83.2727C364.259 83.947 364.416 84.7424 364.416 85.6591C364.416 86.5833 364.259 87.3845 363.945 88.0625C363.63 88.7367 363.195 89.2595 362.638 89.6307C362.081 89.9981 361.439 90.1818 360.712 90.1818C360.151 90.1818 359.702 90.089 359.365 89.9034C359.028 89.714 358.768 89.5 358.587 89.2614C358.405 89.0189 358.265 88.8182 358.166 88.6591H358.053V93.2727H356.712ZM358.03 85.6364C358.03 86.2955 358.126 86.8769 358.32 87.3807C358.513 87.8807 358.795 88.2727 359.166 88.5568C359.537 88.8371 359.992 88.9773 360.53 88.9773C361.09 88.9773 361.558 88.8295 361.933 88.5341C362.312 88.2348 362.596 87.8333 362.786 87.3295C362.979 86.822 363.075 86.2576 363.075 85.6364C363.075 85.0227 362.981 84.4697 362.791 83.9773C362.606 83.4811 362.323 83.089 361.945 82.8011C361.57 82.5095 361.098 82.3636 360.53 82.3636C359.984 82.3636 359.526 82.5019 359.155 82.7784C358.784 83.0511 358.503 83.4337 358.314 83.9261C358.125 84.4148 358.03 84.9848 358.03 85.6364ZM372.553 78.3636V90H371.143V78.3636H372.553ZM376.537 84.75V90H375.196V81.2727H376.491V82.6364H376.605C376.81 82.1932 377.12 81.8371 377.537 81.5682C377.954 81.2955 378.491 81.1591 379.151 81.1591C379.741 81.1591 380.259 81.2803 380.702 81.5227C381.145 81.7614 381.49 82.125 381.736 82.6136C381.982 83.0985 382.105 83.7121 382.105 84.4545V90H380.764V84.5455C380.764 83.8598 380.586 83.3258 380.23 82.9432C379.874 82.5568 379.385 82.3636 378.764 82.3636C378.336 82.3636 377.954 82.4564 377.616 82.642C377.283 82.8277 377.02 83.0985 376.827 83.4545C376.634 83.8106 376.537 84.2424 376.537 84.75ZM387.851 90.1818C387.124 90.1818 386.482 89.9981 385.925 89.6307C385.368 89.2595 384.932 88.7367 384.618 88.0625C384.304 87.3845 384.146 86.5833 384.146 85.6591C384.146 84.7424 384.304 83.947 384.618 83.2727C384.932 82.5985 385.37 82.0777 385.93 81.7102C386.491 81.3428 387.139 81.1591 387.874 81.1591C388.442 81.1591 388.891 81.2538 389.22 81.4432C389.554 81.6288 389.807 81.8409 389.982 82.0795C390.16 82.3144 390.298 82.5076 390.396 82.6591H390.51V78.3636H391.851V90H390.555V88.6591H390.396C390.298 88.8182 390.158 89.0189 389.976 89.2614C389.794 89.5 389.535 89.714 389.197 89.9034C388.86 90.089 388.411 90.1818 387.851 90.1818ZM388.033 88.9773C388.571 88.9773 389.025 88.8371 389.396 88.5568C389.768 88.2727 390.05 87.8807 390.243 87.3807C390.436 86.8769 390.533 86.2955 390.533 85.6364C390.533 84.9848 390.438 84.4148 390.249 83.9261C390.059 83.4337 389.779 83.0511 389.408 82.7784C389.036 82.5019 388.578 82.3636 388.033 82.3636C387.464 82.3636 386.991 82.5095 386.612 82.8011C386.237 83.089 385.955 83.4811 385.766 83.9773C385.58 84.4697 385.487 85.0227 385.487 85.6364C385.487 86.2576 385.582 86.822 385.771 87.3295C385.964 87.8333 386.249 88.2348 386.624 88.5341C387.002 88.8295 387.472 88.9773 388.033 88.9773ZM394.493 90V81.2727H395.834V90H394.493ZM395.175 79.8182C394.913 79.8182 394.688 79.7292 394.499 79.5511C394.313 79.3731 394.22 79.1591 394.22 78.9091C394.22 78.6591 394.313 78.4451 394.499 78.267C394.688 78.089 394.913 78 395.175 78C395.436 78 395.66 78.089 395.845 78.267C396.035 78.4451 396.129 78.6591 396.129 78.9091C396.129 79.1591 396.035 79.3731 395.845 79.5511C395.66 79.7292 395.436 79.8182 395.175 79.8182ZM401.835 90.1818C401.017 90.1818 400.313 89.9886 399.722 89.6023C399.131 89.2159 398.676 88.6837 398.358 88.0057C398.04 87.3277 397.881 86.553 397.881 85.6818C397.881 84.7955 398.044 84.0133 398.369 83.3352C398.699 82.6534 399.157 82.1212 399.744 81.7386C400.335 81.3523 401.025 81.1591 401.812 81.1591C402.426 81.1591 402.979 81.2727 403.472 81.5C403.964 81.7273 404.367 82.0455 404.682 82.4545C404.996 82.8636 405.191 83.3409 405.267 83.8864H403.926C403.824 83.4886 403.597 83.1364 403.244 82.8295C402.896 82.5189 402.426 82.3636 401.835 82.3636C401.313 82.3636 400.854 82.5 400.46 82.7727C400.07 83.0417 399.765 83.4223 399.545 83.9148C399.33 84.4034 399.222 84.9773 399.222 85.6364C399.222 86.3106 399.328 86.8977 399.54 87.3977C399.756 87.8977 400.059 88.286 400.449 88.5625C400.843 88.839 401.305 88.9773 401.835 88.9773C402.184 88.9773 402.5 88.9167 402.784 88.7955C403.068 88.6742 403.309 88.5 403.506 88.2727C403.703 88.0455 403.843 87.7727 403.926 87.4545H405.267C405.191 87.9697 405.004 88.4337 404.705 88.8466C404.409 89.2557 404.017 89.5814 403.528 89.8239C403.044 90.0625 402.479 90.1818 401.835 90.1818ZM409.795 90.2045C409.242 90.2045 408.741 90.1004 408.29 89.892C407.839 89.6799 407.481 89.375 407.216 88.9773C406.951 88.5758 406.818 88.0909 406.818 87.5227C406.818 87.0227 406.917 86.6174 407.114 86.3068C407.311 85.9924 407.574 85.7462 407.903 85.5682C408.233 85.3902 408.597 85.2576 408.994 85.1705C409.396 85.0795 409.799 85.0076 410.205 84.9545C410.735 84.8864 411.165 84.8352 411.494 84.8011C411.828 84.7633 412.07 84.7008 412.222 84.6136C412.377 84.5265 412.455 84.375 412.455 84.1591V84.1136C412.455 83.553 412.301 83.1174 411.994 82.8068C411.691 82.4962 411.231 82.3409 410.614 82.3409C409.973 82.3409 409.472 82.4811 409.108 82.7614C408.744 83.0417 408.489 83.3409 408.341 83.6591L407.068 83.2045C407.295 82.6742 407.598 82.2614 407.977 81.9659C408.36 81.6667 408.777 81.4583 409.227 81.3409C409.682 81.2197 410.129 81.1591 410.568 81.1591C410.848 81.1591 411.17 81.1932 411.534 81.2614C411.902 81.3258 412.256 81.4602 412.597 81.6648C412.941 81.8693 413.227 82.178 413.455 82.5909C413.682 83.0038 413.795 83.5568 413.795 84.25V90H412.455V88.8182H412.386C412.295 89.0076 412.144 89.2102 411.932 89.4261C411.72 89.642 411.438 89.8258 411.085 89.9773C410.733 90.1288 410.303 90.2045 409.795 90.2045ZM410 89C410.53 89 410.977 88.8958 411.341 88.6875C411.708 88.4792 411.985 88.2102 412.17 87.8807C412.36 87.5511 412.455 87.2045 412.455 86.8409V85.6136C412.398 85.6818 412.273 85.7443 412.08 85.8011C411.89 85.8542 411.67 85.9015 411.42 85.9432C411.174 85.9811 410.934 86.0152 410.699 86.0455C410.468 86.072 410.28 86.0947 410.136 86.1136C409.788 86.1591 409.462 86.233 409.159 86.3352C408.86 86.4337 408.617 86.5833 408.432 86.7841C408.25 86.9811 408.159 87.25 408.159 87.5909C408.159 88.0568 408.331 88.4091 408.676 88.6477C409.025 88.8826 409.466 89 410 89ZM420.038 81.2727V82.4091H415.516V81.2727H420.038ZM416.834 79.1818H418.175V87.5C418.175 87.8788 418.23 88.1629 418.339 88.3523C418.453 88.5379 418.597 88.6629 418.771 88.7273C418.949 88.7879 419.137 88.8182 419.334 88.8182C419.482 88.8182 419.603 88.8106 419.697 88.7955C419.792 88.7765 419.868 88.7614 419.925 88.75L420.197 89.9545C420.107 89.9886 419.98 90.0227 419.817 90.0568C419.654 90.0947 419.447 90.1136 419.197 90.1136C418.819 90.1136 418.447 90.0322 418.084 89.8693C417.724 89.7064 417.425 89.4583 417.186 89.125C416.951 88.7917 416.834 88.3712 416.834 87.8636V79.1818ZM425.507 90.1818C424.719 90.1818 424.028 89.9943 423.433 89.6193C422.842 89.2443 422.38 88.7197 422.047 88.0455C421.717 87.3712 421.553 86.5833 421.553 85.6818C421.553 84.7727 421.717 83.9792 422.047 83.3011C422.38 82.6231 422.842 82.0966 423.433 81.7216C424.028 81.3466 424.719 81.1591 425.507 81.1591C426.295 81.1591 426.984 81.3466 427.575 81.7216C428.17 82.0966 428.632 82.6231 428.962 83.3011C429.295 83.9792 429.462 84.7727 429.462 85.6818C429.462 86.5833 429.295 87.3712 428.962 88.0455C428.632 88.7197 428.17 89.2443 427.575 89.6193C426.984 89.9943 426.295 90.1818 425.507 90.1818ZM425.507 88.9773C426.106 88.9773 426.598 88.8239 426.984 88.517C427.371 88.2102 427.657 87.8068 427.842 87.3068C428.028 86.8068 428.121 86.2652 428.121 85.6818C428.121 85.0985 428.028 84.5549 427.842 84.0511C427.657 83.5473 427.371 83.1402 426.984 82.8295C426.598 82.5189 426.106 82.3636 425.507 82.3636C424.909 82.3636 424.416 82.5189 424.03 82.8295C423.643 83.1402 423.357 83.5473 423.172 84.0511C422.986 84.5549 422.893 85.0985 422.893 85.6818C422.893 86.2652 422.986 86.8068 423.172 87.3068C423.357 87.8068 423.643 88.2102 424.03 88.517C424.416 88.8239 424.909 88.9773 425.507 88.9773ZM431.509 90V81.2727H432.804V82.5909H432.895C433.054 82.1591 433.342 81.8087 433.759 81.5398C434.175 81.2708 434.645 81.1364 435.168 81.1364C435.266 81.1364 435.389 81.1383 435.537 81.142C435.685 81.1458 435.796 81.1515 435.872 81.1591V82.5227C435.827 82.5114 435.723 82.4943 435.56 82.4716C435.401 82.4451 435.232 82.4318 435.054 82.4318C434.63 82.4318 434.251 82.5208 433.918 82.6989C433.588 82.8731 433.327 83.1155 433.134 83.4261C432.944 83.733 432.849 84.0833 432.849 84.4773V90H431.509Z" fill="white" fill-opacity="0.95"/>
<path d="M625.934 84V127" stroke="#DA0087"/>
<path d="M625.934 135L621.934 127H629.934L625.934 135Z" fill="#DA0087"/>
<rect x="569.434" y="64" width="113" height="28" rx="14" fill="#DA0087"/>
<path d="M589.206 75.2727C589.138 74.697 588.862 74.25 588.377 73.9318C587.892 73.6136 587.297 73.4545 586.593 73.4545C586.078 73.4545 585.627 73.5379 585.24 73.7045C584.858 73.8712 584.559 74.1004 584.343 74.392C584.131 74.6837 584.025 75.0152 584.025 75.3864C584.025 75.697 584.098 75.964 584.246 76.1875C584.398 76.4072 584.591 76.5909 584.826 76.7386C585.06 76.8826 585.307 77.0019 585.564 77.0966C585.822 77.1875 586.059 77.2614 586.275 77.3182L587.456 77.6364C587.759 77.7159 588.096 77.8258 588.468 77.9659C588.843 78.1061 589.201 78.2973 589.542 78.5398C589.886 78.7784 590.17 79.0852 590.394 79.4602C590.617 79.8352 590.729 80.2955 590.729 80.8409C590.729 81.4697 590.564 82.0379 590.235 82.5455C589.909 83.053 589.432 83.4564 588.803 83.7557C588.178 84.0549 587.418 84.2045 586.525 84.2045C585.691 84.2045 584.97 84.0701 584.36 83.8011C583.754 83.5322 583.276 83.1572 582.928 82.6761C582.583 82.1951 582.388 81.6364 582.343 81H583.797C583.835 81.4394 583.983 81.803 584.24 82.0909C584.502 82.375 584.831 82.5871 585.229 82.7273C585.631 82.8636 586.062 82.9318 586.525 82.9318C587.062 82.9318 587.545 82.8447 587.973 82.6705C588.401 82.4924 588.74 82.2462 588.99 81.9318C589.24 81.6136 589.365 81.2424 589.365 80.8182C589.365 80.4318 589.257 80.1174 589.042 79.875C588.826 79.6326 588.542 79.4356 588.189 79.2841C587.837 79.1326 587.456 79 587.047 78.8864L585.615 78.4773C584.706 78.2159 583.987 77.8428 583.456 77.358C582.926 76.8731 582.661 76.2386 582.661 75.4545C582.661 74.803 582.837 74.2348 583.189 73.75C583.545 73.2614 584.023 72.8826 584.621 72.6136C585.223 72.3409 585.896 72.2045 586.638 72.2045C587.388 72.2045 588.055 72.339 588.638 72.608C589.221 72.8731 589.684 73.2367 590.025 73.6989C590.369 74.161 590.551 74.6856 590.57 75.2727H589.206ZM596.659 75.2727V76.4091H592.137V75.2727H596.659ZM593.455 73.1818H594.796V81.5C594.796 81.8788 594.851 82.1629 594.961 82.3523C595.074 82.5379 595.218 82.6629 595.392 82.7273C595.57 82.7879 595.758 82.8182 595.955 82.8182C596.103 82.8182 596.224 82.8106 596.319 82.7955C596.413 82.7765 596.489 82.7614 596.546 82.75L596.819 83.9545C596.728 83.9886 596.601 84.0227 596.438 84.0568C596.275 84.0947 596.069 84.1136 595.819 84.1136C595.44 84.1136 595.069 84.0322 594.705 83.8693C594.345 83.7064 594.046 83.4583 593.807 83.125C593.572 82.7917 593.455 82.3712 593.455 81.8636V73.1818ZM602.242 84.1818C601.401 84.1818 600.676 83.9962 600.066 83.625C599.46 83.25 598.992 82.7273 598.662 82.0568C598.337 81.3826 598.174 80.5985 598.174 79.7045C598.174 78.8106 598.337 78.0227 598.662 77.3409C598.992 76.6553 599.45 76.1212 600.037 75.7386C600.628 75.3523 601.318 75.1591 602.105 75.1591C602.56 75.1591 603.009 75.2348 603.452 75.3864C603.895 75.5379 604.299 75.7841 604.662 76.125C605.026 76.4621 605.316 76.9091 605.532 77.4659C605.748 78.0227 605.855 78.7083 605.855 79.5227V80.0909H599.128V78.9318H604.492C604.492 78.4394 604.393 78 604.196 77.6136C604.003 77.2273 603.727 76.9223 603.367 76.6989C603.011 76.4754 602.59 76.3636 602.105 76.3636C601.571 76.3636 601.109 76.4962 600.719 76.7614C600.333 77.0227 600.035 77.3636 599.827 77.7841C599.619 78.2045 599.515 78.6553 599.515 79.1364V79.9091C599.515 80.5682 599.628 81.1269 599.855 81.5852C600.087 82.0398 600.407 82.3864 600.816 82.625C601.225 82.8598 601.7 82.9773 602.242 82.9773C602.594 82.9773 602.912 82.928 603.196 82.8295C603.484 82.7273 603.732 82.5758 603.941 82.375C604.149 82.1705 604.31 81.9167 604.424 81.6136L605.719 81.9773C605.583 82.4167 605.354 82.803 605.032 83.1364C604.71 83.4659 604.312 83.7235 603.838 83.9091C603.365 84.0909 602.833 84.1818 602.242 84.1818ZM607.895 87.2727V75.2727H609.191V76.6591H609.35C609.448 76.5076 609.585 76.3144 609.759 76.0795C609.937 75.8409 610.191 75.6288 610.52 75.4432C610.854 75.2538 611.304 75.1591 611.873 75.1591C612.607 75.1591 613.255 75.3428 613.816 75.7102C614.376 76.0777 614.814 76.5985 615.128 77.2727C615.443 77.947 615.6 78.7424 615.6 79.6591C615.6 80.5833 615.443 81.3845 615.128 82.0625C614.814 82.7367 614.378 83.2595 613.821 83.6307C613.265 83.9981 612.623 84.1818 611.895 84.1818C611.335 84.1818 610.886 84.089 610.549 83.9034C610.212 83.714 609.952 83.5 609.77 83.2614C609.588 83.0189 609.448 82.8182 609.35 82.6591H609.236V87.2727H607.895ZM609.213 79.6364C609.213 80.2955 609.31 80.8769 609.503 81.3807C609.696 81.8807 609.979 82.2727 610.35 82.5568C610.721 82.8371 611.176 82.9773 611.713 82.9773C612.274 82.9773 612.742 82.8295 613.117 82.5341C613.496 82.2348 613.78 81.8333 613.969 81.3295C614.162 80.822 614.259 80.2576 614.259 79.6364C614.259 79.0227 614.164 78.4697 613.975 77.9773C613.789 77.4811 613.507 77.089 613.128 76.8011C612.753 76.5095 612.282 76.3636 611.713 76.3636C611.168 76.3636 610.71 76.5019 610.338 76.7784C609.967 77.0511 609.687 77.4337 609.498 77.9261C609.308 78.4148 609.213 78.9848 609.213 79.6364ZM622.327 84V72.3636H623.668V76.6591H623.782C623.88 76.5076 624.016 76.3144 624.191 76.0795C624.369 75.8409 624.623 75.6288 624.952 75.4432C625.285 75.2538 625.736 75.1591 626.304 75.1591C627.039 75.1591 627.687 75.3428 628.248 75.7102C628.808 76.0777 629.246 76.5985 629.56 77.2727C629.874 77.947 630.032 78.7424 630.032 79.6591C630.032 80.5833 629.874 81.3845 629.56 82.0625C629.246 82.7367 628.81 83.2595 628.253 83.6307C627.696 83.9981 627.054 84.1818 626.327 84.1818C625.766 84.1818 625.318 84.089 624.98 83.9034C624.643 83.714 624.384 83.5 624.202 83.2614C624.02 83.0189 623.88 82.8182 623.782 82.6591H623.623V84H622.327ZM623.645 79.6364C623.645 80.2955 623.742 80.8769 623.935 81.3807C624.128 81.8807 624.41 82.2727 624.782 82.5568C625.153 82.8371 625.607 82.9773 626.145 82.9773C626.706 82.9773 627.174 82.8295 627.549 82.5341C627.927 82.2348 628.212 81.8333 628.401 81.3295C628.594 80.822 628.691 80.2576 628.691 79.6364C628.691 79.0227 628.596 78.4697 628.407 77.9773C628.221 77.4811 627.939 77.089 627.56 76.8011C627.185 76.5095 626.713 76.3636 626.145 76.3636C625.6 76.3636 625.141 76.5019 624.77 76.7784C624.399 77.0511 624.119 77.4337 623.929 77.9261C623.74 78.4148 623.645 78.9848 623.645 79.6364ZM632.083 84V75.2727H633.378V76.5909H633.469C633.628 76.1591 633.916 75.8087 634.333 75.5398C634.749 75.2708 635.219 75.1364 635.742 75.1364C635.84 75.1364 635.963 75.1383 636.111 75.142C636.259 75.1458 636.371 75.1515 636.446 75.1591V76.5227C636.401 76.5114 636.297 76.4943 636.134 76.4716C635.975 76.4451 635.806 76.4318 635.628 76.4318C635.204 76.4318 634.825 76.5208 634.492 76.6989C634.162 76.8731 633.901 77.1155 633.708 77.4261C633.518 77.733 633.424 78.0833 633.424 78.4773V84H632.083ZM638.036 84V75.2727H639.377V84H638.036ZM638.718 73.8182C638.456 73.8182 638.231 73.7292 638.042 73.5511C637.856 73.3731 637.763 73.1591 637.763 72.9091C637.763 72.6591 637.856 72.4451 638.042 72.267C638.231 72.089 638.456 72 638.718 72C638.979 72 639.203 72.089 639.388 72.267C639.578 72.4451 639.672 72.6591 639.672 72.9091C639.672 73.1591 639.578 73.3731 639.388 73.5511C639.203 73.7292 638.979 73.8182 638.718 73.8182ZM645.128 84.1818C644.401 84.1818 643.759 83.9981 643.202 83.6307C642.645 83.2595 642.21 82.7367 641.895 82.0625C641.581 81.3845 641.424 80.5833 641.424 79.6591C641.424 78.7424 641.581 77.947 641.895 77.2727C642.21 76.5985 642.647 76.0777 643.208 75.7102C643.768 75.3428 644.416 75.1591 645.151 75.1591C645.719 75.1591 646.168 75.2538 646.498 75.4432C646.831 75.6288 647.085 75.8409 647.259 76.0795C647.437 76.3144 647.575 76.5076 647.674 76.6591H647.787V72.3636H649.128V84H647.833V82.6591H647.674C647.575 82.8182 647.435 83.0189 647.253 83.2614C647.071 83.5 646.812 83.714 646.475 83.9034C646.138 84.089 645.689 84.1818 645.128 84.1818ZM645.31 82.9773C645.848 82.9773 646.302 82.8371 646.674 82.5568C647.045 82.2727 647.327 81.8807 647.52 81.3807C647.713 80.8769 647.81 80.2955 647.81 79.6364C647.81 78.9848 647.715 78.4148 647.526 77.9261C647.337 77.4337 647.056 77.0511 646.685 76.7784C646.314 76.5019 645.855 76.3636 645.31 76.3636C644.742 76.3636 644.268 76.5095 643.89 76.8011C643.515 77.089 643.232 77.4811 643.043 77.9773C642.857 78.4697 642.765 79.0227 642.765 79.6364C642.765 80.2576 642.859 80.822 643.049 81.3295C643.242 81.8333 643.526 82.2348 643.901 82.5341C644.28 82.8295 644.749 82.9773 645.31 82.9773ZM655.293 87.4545C654.645 87.4545 654.088 87.3712 653.623 87.2045C653.157 87.0417 652.768 86.8258 652.458 86.5568C652.151 86.2917 651.907 86.0076 651.725 85.7045L652.793 84.9545C652.914 85.1136 653.068 85.2955 653.253 85.5C653.439 85.7083 653.693 85.8883 654.015 86.0398C654.34 86.1951 654.766 86.2727 655.293 86.2727C655.998 86.2727 656.579 86.1023 657.037 85.7614C657.496 85.4205 657.725 84.8864 657.725 84.1591V82.3864H657.611C657.513 82.5455 657.373 82.7424 657.191 82.9773C657.013 83.2083 656.755 83.4148 656.418 83.5966C656.085 83.7746 655.634 83.8636 655.066 83.8636C654.361 83.8636 653.729 83.697 653.168 83.3636C652.611 83.0303 652.17 82.5455 651.844 81.9091C651.522 81.2727 651.361 80.5 651.361 79.5909C651.361 78.697 651.518 77.9186 651.833 77.2557C652.147 76.589 652.585 76.0739 653.145 75.7102C653.706 75.3428 654.354 75.1591 655.088 75.1591C655.657 75.1591 656.107 75.2538 656.441 75.4432C656.778 75.6288 657.035 75.8409 657.213 76.0795C657.395 76.3144 657.535 76.5076 657.634 76.6591H657.77V75.2727H659.066V84.25C659.066 85 658.895 85.6098 658.554 86.0795C658.217 86.553 657.763 86.8996 657.191 87.1193C656.623 87.3428 655.99 87.4545 655.293 87.4545ZM655.248 82.6591C655.785 82.6591 656.24 82.536 656.611 82.2898C656.982 82.0436 657.265 81.6894 657.458 81.2273C657.651 80.7652 657.748 80.2121 657.748 79.5682C657.748 78.9394 657.653 78.3845 657.463 77.9034C657.274 77.4223 656.994 77.0455 656.623 76.7727C656.251 76.5 655.793 76.3636 655.248 76.3636C654.679 76.3636 654.206 76.5076 653.827 76.7955C653.452 77.0833 653.17 77.4697 652.98 77.9545C652.795 78.4394 652.702 78.9773 652.702 79.5682C652.702 80.1742 652.797 80.7102 652.986 81.1761C653.179 81.6383 653.463 82.0019 653.838 82.267C654.217 82.5284 654.687 82.6591 655.248 82.6591ZM665.179 84.1818C664.338 84.1818 663.613 83.9962 663.003 83.625C662.397 83.25 661.929 82.7273 661.6 82.0568C661.274 81.3826 661.111 80.5985 661.111 79.7045C661.111 78.8106 661.274 78.0227 661.6 77.3409C661.929 76.6553 662.388 76.1212 662.975 75.7386C663.566 75.3523 664.255 75.1591 665.043 75.1591C665.498 75.1591 665.946 75.2348 666.39 75.3864C666.833 75.5379 667.236 75.7841 667.6 76.125C667.963 76.4621 668.253 76.9091 668.469 77.4659C668.685 78.0227 668.793 78.7083 668.793 79.5227V80.0909H662.066V78.9318H667.429C667.429 78.4394 667.331 78 667.134 77.6136C666.941 77.2273 666.664 76.9223 666.304 76.6989C665.948 76.4754 665.528 76.3636 665.043 76.3636C664.509 76.3636 664.047 76.4962 663.657 76.7614C663.27 77.0227 662.973 77.3636 662.765 77.7841C662.556 78.2045 662.452 78.6553 662.452 79.1364V79.9091C662.452 80.5682 662.566 81.1269 662.793 81.5852C663.024 82.0398 663.344 82.3864 663.753 82.625C664.162 82.8598 664.638 82.9773 665.179 82.9773C665.532 82.9773 665.85 82.928 666.134 82.8295C666.422 82.7273 666.67 82.5758 666.878 82.375C667.087 82.1705 667.248 81.9167 667.361 81.6136L668.657 81.9773C668.52 82.4167 668.291 82.803 667.969 83.1364C667.647 83.4659 667.249 83.7235 666.776 83.9091C666.302 84.0909 665.77 84.1818 665.179 84.1818Z" fill="white" fill-opacity="0.95"/>
<path d="M463.75 203V169" stroke="#DA0087"/>
<path d="M463.75 161L459.75 169H467.75L463.75 161Z" fill="#DA0087"/>
<rect x="411.25" y="195" width="105" height="28" rx="14" fill="#DA0087"/>
<path d="M431.023 206.273C430.955 205.697 430.678 205.25 430.193 204.932C429.708 204.614 429.114 204.455 428.409 204.455C427.894 204.455 427.443 204.538 427.057 204.705C426.674 204.871 426.375 205.1 426.159 205.392C425.947 205.684 425.841 206.015 425.841 206.386C425.841 206.697 425.915 206.964 426.062 207.188C426.214 207.407 426.407 207.591 426.642 207.739C426.877 207.883 427.123 208.002 427.381 208.097C427.638 208.187 427.875 208.261 428.091 208.318L429.273 208.636C429.576 208.716 429.913 208.826 430.284 208.966C430.659 209.106 431.017 209.297 431.358 209.54C431.703 209.778 431.987 210.085 432.21 210.46C432.434 210.835 432.545 211.295 432.545 211.841C432.545 212.47 432.381 213.038 432.051 213.545C431.725 214.053 431.248 214.456 430.619 214.756C429.994 215.055 429.235 215.205 428.341 215.205C427.508 215.205 426.786 215.07 426.176 214.801C425.57 214.532 425.093 214.157 424.744 213.676C424.4 213.195 424.205 212.636 424.159 212H425.614C425.652 212.439 425.799 212.803 426.057 213.091C426.318 213.375 426.648 213.587 427.045 213.727C427.447 213.864 427.879 213.932 428.341 213.932C428.879 213.932 429.362 213.845 429.79 213.67C430.218 213.492 430.557 213.246 430.807 212.932C431.057 212.614 431.182 212.242 431.182 211.818C431.182 211.432 431.074 211.117 430.858 210.875C430.642 210.633 430.358 210.436 430.006 210.284C429.653 210.133 429.273 210 428.864 209.886L427.432 209.477C426.523 209.216 425.803 208.843 425.273 208.358C424.742 207.873 424.477 207.239 424.477 206.455C424.477 205.803 424.653 205.235 425.006 204.75C425.362 204.261 425.839 203.883 426.438 203.614C427.04 203.341 427.712 203.205 428.455 203.205C429.205 203.205 429.871 203.339 430.455 203.608C431.038 203.873 431.5 204.237 431.841 204.699C432.186 205.161 432.367 205.686 432.386 206.273H431.023ZM438.476 206.273V207.409H433.953V206.273H438.476ZM435.271 204.182H436.612V212.5C436.612 212.879 436.667 213.163 436.777 213.352C436.891 213.538 437.035 213.663 437.209 213.727C437.387 213.788 437.574 213.818 437.771 213.818C437.919 213.818 438.04 213.811 438.135 213.795C438.23 213.777 438.305 213.761 438.362 213.75L438.635 214.955C438.544 214.989 438.417 215.023 438.254 215.057C438.091 215.095 437.885 215.114 437.635 215.114C437.256 215.114 436.885 215.032 436.521 214.869C436.161 214.706 435.862 214.458 435.624 214.125C435.389 213.792 435.271 213.371 435.271 212.864V204.182ZM444.058 215.182C443.217 215.182 442.492 214.996 441.882 214.625C441.276 214.25 440.808 213.727 440.479 213.057C440.153 212.383 439.99 211.598 439.99 210.705C439.99 209.811 440.153 209.023 440.479 208.341C440.808 207.655 441.267 207.121 441.854 206.739C442.445 206.352 443.134 206.159 443.922 206.159C444.376 206.159 444.825 206.235 445.268 206.386C445.712 206.538 446.115 206.784 446.479 207.125C446.842 207.462 447.132 207.909 447.348 208.466C447.564 209.023 447.672 209.708 447.672 210.523V211.091H440.945V209.932H446.308C446.308 209.439 446.21 209 446.013 208.614C445.82 208.227 445.543 207.922 445.183 207.699C444.827 207.475 444.407 207.364 443.922 207.364C443.388 207.364 442.926 207.496 442.536 207.761C442.149 208.023 441.852 208.364 441.643 208.784C441.435 209.205 441.331 209.655 441.331 210.136V210.909C441.331 211.568 441.445 212.127 441.672 212.585C441.903 213.04 442.223 213.386 442.632 213.625C443.041 213.86 443.517 213.977 444.058 213.977C444.411 213.977 444.729 213.928 445.013 213.83C445.301 213.727 445.549 213.576 445.757 213.375C445.965 213.17 446.126 212.917 446.24 212.614L447.536 212.977C447.399 213.417 447.17 213.803 446.848 214.136C446.526 214.466 446.128 214.723 445.655 214.909C445.181 215.091 444.649 215.182 444.058 215.182ZM449.712 218.273V206.273H451.007V207.659H451.166C451.265 207.508 451.401 207.314 451.575 207.08C451.753 206.841 452.007 206.629 452.337 206.443C452.67 206.254 453.121 206.159 453.689 206.159C454.424 206.159 455.071 206.343 455.632 206.71C456.193 207.078 456.63 207.598 456.945 208.273C457.259 208.947 457.416 209.742 457.416 210.659C457.416 211.583 457.259 212.384 456.945 213.062C456.63 213.737 456.195 214.259 455.638 214.631C455.081 214.998 454.439 215.182 453.712 215.182C453.151 215.182 452.702 215.089 452.365 214.903C452.028 214.714 451.768 214.5 451.587 214.261C451.405 214.019 451.265 213.818 451.166 213.659H451.053V218.273H449.712ZM451.03 210.636C451.03 211.295 451.126 211.877 451.32 212.381C451.513 212.881 451.795 213.273 452.166 213.557C452.537 213.837 452.992 213.977 453.53 213.977C454.09 213.977 454.558 213.83 454.933 213.534C455.312 213.235 455.596 212.833 455.786 212.33C455.979 211.822 456.075 211.258 456.075 210.636C456.075 210.023 455.981 209.47 455.791 208.977C455.606 208.481 455.323 208.089 454.945 207.801C454.57 207.509 454.098 207.364 453.53 207.364C452.984 207.364 452.526 207.502 452.155 207.778C451.784 208.051 451.503 208.434 451.314 208.926C451.125 209.415 451.03 209.985 451.03 210.636ZM464.143 215V203.364H465.553V213.75H470.962V215H464.143ZM475.53 215.205C474.977 215.205 474.475 215.1 474.024 214.892C473.573 214.68 473.215 214.375 472.95 213.977C472.685 213.576 472.553 213.091 472.553 212.523C472.553 212.023 472.651 211.617 472.848 211.307C473.045 210.992 473.308 210.746 473.638 210.568C473.967 210.39 474.331 210.258 474.729 210.17C475.13 210.08 475.534 210.008 475.939 209.955C476.469 209.886 476.899 209.835 477.229 209.801C477.562 209.763 477.804 209.701 477.956 209.614C478.111 209.527 478.189 209.375 478.189 209.159V209.114C478.189 208.553 478.036 208.117 477.729 207.807C477.426 207.496 476.965 207.341 476.348 207.341C475.708 207.341 475.206 207.481 474.842 207.761C474.479 208.042 474.223 208.341 474.075 208.659L472.803 208.205C473.03 207.674 473.333 207.261 473.712 206.966C474.094 206.667 474.511 206.458 474.962 206.341C475.416 206.22 475.863 206.159 476.303 206.159C476.583 206.159 476.905 206.193 477.268 206.261C477.636 206.326 477.99 206.46 478.331 206.665C478.676 206.869 478.962 207.178 479.189 207.591C479.416 208.004 479.53 208.557 479.53 209.25V215H478.189V213.818H478.121C478.03 214.008 477.878 214.21 477.666 214.426C477.454 214.642 477.172 214.826 476.82 214.977C476.467 215.129 476.037 215.205 475.53 215.205ZM475.734 214C476.265 214 476.712 213.896 477.075 213.688C477.443 213.479 477.719 213.21 477.905 212.881C478.094 212.551 478.189 212.205 478.189 211.841V210.614C478.132 210.682 478.007 210.744 477.814 210.801C477.625 210.854 477.405 210.902 477.155 210.943C476.909 210.981 476.668 211.015 476.433 211.045C476.202 211.072 476.015 211.095 475.871 211.114C475.522 211.159 475.196 211.233 474.893 211.335C474.594 211.434 474.352 211.583 474.166 211.784C473.984 211.981 473.893 212.25 473.893 212.591C473.893 213.057 474.066 213.409 474.411 213.648C474.759 213.883 475.2 214 475.734 214ZM482.159 215V203.364H483.5V207.659H483.614C483.712 207.508 483.848 207.314 484.023 207.08C484.201 206.841 484.455 206.629 484.784 206.443C485.117 206.254 485.568 206.159 486.136 206.159C486.871 206.159 487.519 206.343 488.08 206.71C488.64 207.078 489.078 207.598 489.392 208.273C489.706 208.947 489.864 209.742 489.864 210.659C489.864 211.583 489.706 212.384 489.392 213.062C489.078 213.737 488.642 214.259 488.085 214.631C487.528 214.998 486.886 215.182 486.159 215.182C485.598 215.182 485.15 215.089 484.812 214.903C484.475 214.714 484.216 214.5 484.034 214.261C483.852 214.019 483.712 213.818 483.614 213.659H483.455V215H482.159ZM483.477 210.636C483.477 211.295 483.574 211.877 483.767 212.381C483.96 212.881 484.242 213.273 484.614 213.557C484.985 213.837 485.439 213.977 485.977 213.977C486.538 213.977 487.006 213.83 487.381 213.534C487.759 213.235 488.044 212.833 488.233 212.33C488.426 211.822 488.523 211.258 488.523 210.636C488.523 210.023 488.428 209.47 488.239 208.977C488.053 208.481 487.771 208.089 487.392 207.801C487.017 207.509 486.545 207.364 485.977 207.364C485.432 207.364 484.973 207.502 484.602 207.778C484.231 208.051 483.951 208.434 483.761 208.926C483.572 209.415 483.477 209.985 483.477 210.636ZM495.574 215.182C494.733 215.182 494.008 214.996 493.398 214.625C492.792 214.25 492.324 213.727 491.994 213.057C491.669 212.383 491.506 211.598 491.506 210.705C491.506 209.811 491.669 209.023 491.994 208.341C492.324 207.655 492.782 207.121 493.369 206.739C493.96 206.352 494.65 206.159 495.438 206.159C495.892 206.159 496.341 206.235 496.784 206.386C497.227 206.538 497.631 206.784 497.994 207.125C498.358 207.462 498.648 207.909 498.864 208.466C499.08 209.023 499.188 209.708 499.188 210.523V211.091H492.46V209.932H497.824C497.824 209.439 497.725 209 497.528 208.614C497.335 208.227 497.059 207.922 496.699 207.699C496.343 207.475 495.922 207.364 495.438 207.364C494.903 207.364 494.441 207.496 494.051 207.761C493.665 208.023 493.367 208.364 493.159 208.784C492.951 209.205 492.847 209.655 492.847 210.136V210.909C492.847 211.568 492.96 212.127 493.188 212.585C493.419 213.04 493.739 213.386 494.148 213.625C494.557 213.86 495.032 213.977 495.574 213.977C495.926 213.977 496.244 213.928 496.528 213.83C496.816 213.727 497.064 213.576 497.273 213.375C497.481 213.17 497.642 212.917 497.756 212.614L499.051 212.977C498.915 213.417 498.686 213.803 498.364 214.136C498.042 214.466 497.644 214.723 497.17 214.909C496.697 215.091 496.165 215.182 495.574 215.182ZM502.568 203.364V215H501.227V203.364H502.568Z" fill="white" fill-opacity="0.95"/>
<defs>
<clipPath id="clip0_2029_12016">
<rect width="114" height="21" fill="white" transform="translate(385.75 130.5)"/>
</clipPath>
<clipPath id="clip1_2029_12016">
<rect width="36" height="20" fill="white" transform="translate(563.75 131)"/>
</clipPath>
<clipPath id="clip2_2029_12016">
<rect width="36" height="20" fill="white" transform="translate(663.75 131)"/>
</clipPath>
<clipPath id="clip3_2029_12016">
<rect width="36" height="20" fill="white" transform="translate(763.75 131)"/>
</clipPath>
<clipPath id="clip4_2029_12016">
<rect width="36" height="20" fill="white" transform="translate(863.75 131)"/>
</clipPath>
<clipPath id="clip5_2029_12016">
<rect width="36" height="20" fill="white" transform="translate(963.75 131)"/>
</clipPath>
</defs>
</svg>
