<svg width="1300" height="247" viewBox="0 0 1300 247" fill="none" xmlns="http://www.w3.org/2000/svg">
<rect width="1300" height="247" rx="24" fill="#262626"/>
<path d="M838.5 109C838.5 112.866 835.366 116 831.5 116C827.634 116 824.5 112.866 824.5 109C824.5 105.134 827.634 102 831.5 102C835.366 102 838.5 105.134 838.5 109Z" stroke="#64B4FA" stroke-width="2"/>
<path d="M814.768 140V129.818H816.001V138.906H820.734V140H814.768ZM824.731 140.179C824.247 140.179 823.808 140.088 823.414 139.906C823.019 139.72 822.706 139.453 822.474 139.105C822.242 138.754 822.126 138.33 822.126 137.832C822.126 137.395 822.212 137.04 822.385 136.768C822.557 136.493 822.787 136.278 823.076 136.122C823.364 135.966 823.682 135.85 824.03 135.774C824.382 135.695 824.734 135.632 825.089 135.585C825.553 135.526 825.929 135.481 826.218 135.451C826.509 135.418 826.721 135.363 826.854 135.287C826.99 135.211 827.058 135.078 827.058 134.889V134.849C827.058 134.359 826.924 133.978 826.655 133.706C826.39 133.434 825.987 133.298 825.447 133.298C824.887 133.298 824.448 133.421 824.13 133.666C823.811 133.911 823.588 134.173 823.458 134.452L822.345 134.054C822.544 133.59 822.809 133.229 823.14 132.97C823.475 132.708 823.84 132.526 824.234 132.423C824.632 132.317 825.023 132.264 825.407 132.264C825.653 132.264 825.934 132.294 826.252 132.354C826.574 132.41 826.884 132.528 827.182 132.707C827.484 132.886 827.734 133.156 827.933 133.517C828.132 133.878 828.231 134.362 828.231 134.969V140H827.058V138.966H826.998C826.919 139.132 826.786 139.309 826.6 139.498C826.415 139.687 826.168 139.848 825.86 139.98C825.551 140.113 825.175 140.179 824.731 140.179ZM824.91 139.125C825.374 139.125 825.765 139.034 826.083 138.852C826.405 138.669 826.647 138.434 826.809 138.146C826.975 137.857 827.058 137.554 827.058 137.236V136.162C827.008 136.222 826.899 136.276 826.73 136.326C826.564 136.372 826.372 136.414 826.153 136.45C825.938 136.483 825.727 136.513 825.522 136.54C825.319 136.563 825.155 136.583 825.029 136.599C824.725 136.639 824.44 136.704 824.174 136.793C823.913 136.879 823.7 137.01 823.538 137.186C823.379 137.358 823.299 137.594 823.299 137.892C823.299 138.3 823.45 138.608 823.752 138.817C824.057 139.022 824.443 139.125 824.91 139.125ZM830.532 140V129.818H831.705V133.577H831.805C831.891 133.444 832.01 133.275 832.162 133.07C832.318 132.861 832.54 132.675 832.829 132.513C833.12 132.347 833.515 132.264 834.012 132.264C834.655 132.264 835.222 132.425 835.712 132.746C836.203 133.068 836.586 133.524 836.861 134.114C837.136 134.704 837.273 135.4 837.273 136.202C837.273 137.01 837.136 137.711 836.861 138.305C836.586 138.895 836.204 139.352 835.717 139.677C835.23 139.998 834.668 140.159 834.032 140.159C833.541 140.159 833.148 140.078 832.854 139.915C832.559 139.75 832.331 139.562 832.172 139.354C832.013 139.142 831.891 138.966 831.805 138.827H831.665V140H830.532ZM831.685 136.182C831.685 136.759 831.77 137.267 831.939 137.708C832.108 138.146 832.355 138.489 832.68 138.737C833.004 138.982 833.402 139.105 833.873 139.105C834.363 139.105 834.773 138.976 835.101 138.717C835.432 138.455 835.681 138.104 835.846 137.663C836.015 137.219 836.1 136.725 836.1 136.182C836.1 135.645 836.017 135.161 835.851 134.73C835.689 134.296 835.442 133.953 835.111 133.701C834.782 133.446 834.37 133.318 833.873 133.318C833.395 133.318 832.994 133.439 832.67 133.681C832.345 133.92 832.099 134.254 831.934 134.685C831.768 135.113 831.685 135.612 831.685 136.182ZM842.27 140.159C841.534 140.159 840.899 139.997 840.366 139.672C839.835 139.344 839.426 138.886 839.138 138.3C838.853 137.71 838.71 137.024 838.71 136.241C838.71 135.459 838.853 134.77 839.138 134.173C839.426 133.573 839.827 133.106 840.341 132.771C840.858 132.433 841.461 132.264 842.15 132.264C842.548 132.264 842.941 132.33 843.329 132.463C843.716 132.596 844.069 132.811 844.388 133.109C844.706 133.404 844.959 133.795 845.148 134.283C845.337 134.77 845.432 135.37 845.432 136.082V136.58H839.545V135.565H844.238C844.238 135.134 844.152 134.75 843.98 134.412C843.811 134.074 843.569 133.807 843.254 133.612C842.943 133.416 842.575 133.318 842.15 133.318C841.683 133.318 841.279 133.434 840.937 133.666C840.599 133.895 840.339 134.193 840.157 134.561C839.974 134.929 839.883 135.323 839.883 135.744V136.42C839.883 136.997 839.983 137.486 840.182 137.887C840.384 138.285 840.664 138.588 841.022 138.797C841.38 139.002 841.796 139.105 842.27 139.105C842.578 139.105 842.856 139.062 843.105 138.976C843.357 138.886 843.574 138.754 843.756 138.578C843.939 138.399 844.079 138.177 844.179 137.912L845.312 138.23C845.193 138.615 844.992 138.953 844.711 139.244C844.429 139.533 844.081 139.758 843.667 139.92C843.252 140.08 842.787 140.159 842.27 140.159ZM848.39 129.818V140H847.216V129.818H848.39Z" fill="white" fill-opacity="0.7"/>
<rect x="665.5" y="108" width="150" height="2" fill="#8F8F8F"/>
<path d="M656.5 109C656.5 112.866 653.366 116 649.5 116C645.634 116 642.5 112.866 642.5 109C642.5 105.134 645.634 102 649.5 102C653.366 102 656.5 105.134 656.5 109Z" stroke="#64B4FA" stroke-width="2"/>
<g clip-path="url(#clip0_2031_6460)">
<path d="M599.372 133.493C599.319 133.022 599.1 132.658 598.716 132.399C598.331 132.137 597.847 132.006 597.264 132.006C596.847 132.006 596.485 132.073 596.18 132.205C595.875 132.335 595.638 132.513 595.469 132.742C595.304 132.968 595.221 133.224 595.221 133.513C595.221 133.755 595.277 133.964 595.39 134.139C595.506 134.315 595.657 134.462 595.842 134.582C596.031 134.698 596.233 134.795 596.449 134.875C596.664 134.951 596.871 135.014 597.07 135.064L598.065 135.322C598.389 135.402 598.722 135.51 599.064 135.646C599.405 135.781 599.722 135.96 600.013 136.183C600.305 136.405 600.54 136.68 600.719 137.008C600.902 137.336 600.993 137.729 600.993 138.186C600.993 138.763 600.844 139.275 600.545 139.722C600.25 140.17 599.821 140.523 599.258 140.781C598.698 141.04 598.02 141.169 597.224 141.169C596.462 141.169 595.802 141.048 595.246 140.806C594.689 140.564 594.253 140.221 593.938 139.777C593.623 139.33 593.449 138.799 593.416 138.186H594.957C594.987 138.554 595.106 138.861 595.315 139.106C595.527 139.348 595.797 139.528 596.126 139.648C596.457 139.764 596.82 139.822 597.214 139.822C597.649 139.822 598.035 139.754 598.373 139.618C598.714 139.479 598.983 139.286 599.178 139.041C599.374 138.793 599.472 138.503 599.472 138.171C599.472 137.87 599.385 137.623 599.213 137.43C599.044 137.238 598.814 137.079 598.522 136.953C598.234 136.827 597.907 136.716 597.543 136.62L596.339 136.292C595.524 136.07 594.878 135.743 594.4 135.312C593.927 134.882 593.69 134.312 593.69 133.602C593.69 133.016 593.849 132.504 594.167 132.066C594.485 131.629 594.916 131.289 595.459 131.047C596.003 130.802 596.616 130.679 597.299 130.679C597.988 130.679 598.597 130.8 599.123 131.042C599.654 131.284 600.071 131.617 600.376 132.041C600.681 132.462 600.84 132.946 600.854 133.493H599.372ZM606.274 133.364V134.557H602.103V133.364H606.274ZM603.221 131.534H604.708V138.758C604.708 139.046 604.751 139.263 604.837 139.409C604.923 139.552 605.034 139.649 605.17 139.702C605.309 139.752 605.46 139.777 605.623 139.777C605.742 139.777 605.846 139.769 605.936 139.752C606.025 139.736 606.095 139.722 606.145 139.712L606.413 140.94C606.327 140.973 606.204 141.007 606.045 141.04C605.886 141.076 605.687 141.096 605.449 141.099C605.057 141.106 604.693 141.036 604.355 140.891C604.017 140.745 603.743 140.519 603.535 140.214C603.326 139.91 603.221 139.527 603.221 139.066V131.534ZM611.127 141.154C610.375 141.154 609.727 140.993 609.184 140.672C608.643 140.347 608.226 139.891 607.931 139.305C607.639 138.715 607.493 138.024 607.493 137.232C607.493 136.449 607.639 135.76 607.931 135.163C608.226 134.567 608.637 134.101 609.164 133.766C609.694 133.432 610.314 133.264 611.023 133.264C611.454 133.264 611.871 133.335 612.276 133.478C612.68 133.621 613.043 133.844 613.365 134.149C613.686 134.454 613.94 134.85 614.125 135.337C614.311 135.821 614.404 136.41 614.404 137.102V137.629H608.333V136.516H612.947C612.947 136.125 612.867 135.778 612.708 135.477C612.549 135.172 612.326 134.931 612.037 134.756C611.752 134.58 611.417 134.492 611.033 134.492C610.615 134.492 610.251 134.595 609.939 134.8C609.631 135.003 609.392 135.268 609.223 135.596C609.058 135.921 608.975 136.274 608.975 136.655V137.525C608.975 138.035 609.064 138.469 609.243 138.827C609.425 139.185 609.679 139.459 610.004 139.648C610.329 139.833 610.708 139.926 611.142 139.926C611.424 139.926 611.681 139.886 611.913 139.807C612.145 139.724 612.345 139.601 612.514 139.439C612.684 139.277 612.813 139.076 612.902 138.837L614.309 139.091C614.197 139.505 613.994 139.868 613.703 140.18C613.414 140.488 613.051 140.728 612.614 140.901C612.18 141.07 611.684 141.154 611.127 141.154ZM616.053 143.864V133.364H617.505V134.602H617.629C617.715 134.442 617.839 134.259 618.002 134.05C618.164 133.841 618.39 133.659 618.678 133.503C618.966 133.344 619.348 133.264 619.821 133.264C620.438 133.264 620.988 133.42 621.472 133.732C621.956 134.043 622.335 134.492 622.611 135.079C622.889 135.665 623.028 136.371 623.028 137.197C623.028 138.022 622.891 138.73 622.616 139.32C622.34 139.906 621.963 140.359 621.482 140.677C621.001 140.992 620.453 141.149 619.836 141.149C619.372 141.149 618.993 141.071 618.698 140.915C618.406 140.76 618.178 140.577 618.012 140.369C617.846 140.16 617.718 139.974 617.629 139.812H617.54V143.864H616.053ZM617.51 137.182C617.51 137.719 617.588 138.189 617.743 138.594C617.899 138.998 618.124 139.315 618.419 139.543C618.714 139.769 619.076 139.881 619.503 139.881C619.947 139.881 620.319 139.764 620.617 139.528C620.915 139.29 621.141 138.967 621.293 138.559C621.449 138.151 621.527 137.692 621.527 137.182C621.527 136.678 621.45 136.226 621.298 135.825C621.149 135.424 620.924 135.107 620.622 134.875C620.324 134.643 619.951 134.527 619.503 134.527C619.072 134.527 618.708 134.638 618.41 134.86C618.115 135.082 617.891 135.392 617.738 135.79C617.586 136.187 617.51 136.652 617.51 137.182ZM629.885 130.818V141H628.399V130.818H629.885ZM634.107 141.169C633.623 141.169 633.186 141.08 632.795 140.901C632.404 140.718 632.094 140.455 631.865 140.11C631.64 139.765 631.527 139.343 631.527 138.842C631.527 138.411 631.61 138.057 631.776 137.778C631.941 137.5 632.165 137.28 632.447 137.117C632.729 136.955 633.043 136.832 633.391 136.749C633.739 136.666 634.094 136.603 634.455 136.56C634.913 136.507 635.284 136.464 635.569 136.431C635.854 136.395 636.061 136.337 636.19 136.257C636.32 136.178 636.384 136.048 636.384 135.869V135.835C636.384 135.4 636.262 135.064 636.016 134.825C635.774 134.587 635.413 134.467 634.933 134.467C634.432 134.467 634.038 134.578 633.749 134.8C633.464 135.019 633.267 135.263 633.158 135.531L631.761 135.213C631.926 134.749 632.168 134.375 632.487 134.089C632.808 133.801 633.178 133.592 633.595 133.463C634.013 133.33 634.452 133.264 634.913 133.264C635.218 133.264 635.541 133.301 635.882 133.374C636.227 133.443 636.548 133.572 636.847 133.761C637.148 133.95 637.395 134.22 637.587 134.572C637.78 134.92 637.876 135.372 637.876 135.929V141H636.424V139.956H636.364C636.268 140.148 636.124 140.337 635.932 140.523C635.74 140.708 635.493 140.862 635.191 140.985C634.89 141.108 634.528 141.169 634.107 141.169ZM634.43 139.976C634.841 139.976 635.193 139.895 635.484 139.732C635.779 139.57 636.003 139.358 636.156 139.096C636.311 138.831 636.389 138.547 636.389 138.246V137.261C636.336 137.314 636.234 137.364 636.081 137.411C635.932 137.454 635.761 137.492 635.569 137.525C635.377 137.555 635.189 137.583 635.007 137.609C634.825 137.633 634.672 137.652 634.55 137.669C634.261 137.705 633.998 137.767 633.759 137.853C633.524 137.939 633.335 138.063 633.193 138.226C633.053 138.385 632.984 138.597 632.984 138.862C632.984 139.23 633.12 139.509 633.391 139.697C633.663 139.883 634.01 139.976 634.43 139.976ZM639.975 141V130.818H641.462V134.602H641.551C641.637 134.442 641.762 134.259 641.924 134.05C642.086 133.841 642.312 133.659 642.6 133.503C642.888 133.344 643.27 133.264 643.744 133.264C644.36 133.264 644.91 133.42 645.394 133.732C645.878 134.043 646.257 134.492 646.533 135.079C646.811 135.665 646.95 136.371 646.95 137.197C646.95 138.022 646.813 138.73 646.538 139.32C646.262 139.906 645.885 140.359 645.404 140.677C644.923 140.992 644.375 141.149 643.758 141.149C643.294 141.149 642.915 141.071 642.62 140.915C642.328 140.76 642.1 140.577 641.934 140.369C641.768 140.16 641.641 139.974 641.551 139.812H641.427V141H639.975ZM641.432 137.182C641.432 137.719 641.51 138.189 641.665 138.594C641.821 138.998 642.047 139.315 642.342 139.543C642.637 139.769 642.998 139.881 643.425 139.881C643.869 139.881 644.241 139.764 644.539 139.528C644.837 139.29 645.063 138.967 645.215 138.559C645.371 138.151 645.449 137.692 645.449 137.182C645.449 136.678 645.373 136.226 645.22 135.825C645.071 135.424 644.846 135.107 644.544 134.875C644.246 134.643 643.873 134.527 643.425 134.527C642.994 134.527 642.63 134.638 642.332 134.86C642.037 135.082 641.813 135.392 641.66 135.79C641.508 136.187 641.432 136.652 641.432 137.182ZM651.911 141.154C651.158 141.154 650.51 140.993 649.967 140.672C649.426 140.347 649.009 139.891 648.714 139.305C648.422 138.715 648.276 138.024 648.276 137.232C648.276 136.449 648.422 135.76 648.714 135.163C649.009 134.567 649.42 134.101 649.947 133.766C650.477 133.432 651.097 133.264 651.806 133.264C652.237 133.264 652.655 133.335 653.059 133.478C653.463 133.621 653.826 133.844 654.148 134.149C654.469 134.454 654.723 134.85 654.908 135.337C655.094 135.821 655.187 136.41 655.187 137.102V137.629H649.117V136.516H653.73C653.73 136.125 653.651 135.778 653.492 135.477C653.332 135.172 653.109 134.931 652.82 134.756C652.535 134.58 652.201 134.492 651.816 134.492C651.399 134.492 651.034 134.595 650.722 134.8C650.414 135.003 650.176 135.268 650.006 135.596C649.841 135.921 649.758 136.274 649.758 136.655V137.525C649.758 138.035 649.847 138.469 650.026 138.827C650.209 139.185 650.462 139.459 650.787 139.648C651.112 139.833 651.491 139.926 651.926 139.926C652.207 139.926 652.464 139.886 652.696 139.807C652.928 139.724 653.129 139.601 653.298 139.439C653.467 139.277 653.596 139.076 653.685 138.837L655.092 139.091C654.98 139.505 654.778 139.868 654.486 140.18C654.198 140.488 653.835 140.728 653.397 140.901C652.963 141.07 652.467 141.154 651.911 141.154ZM658.323 130.818V141H656.836V130.818H658.323ZM664.822 136.053V137.341H660.308V136.053H664.822ZM669.025 141.169C668.541 141.169 668.104 141.08 667.713 140.901C667.322 140.718 667.012 140.455 666.783 140.11C666.558 139.765 666.445 139.343 666.445 138.842C666.445 138.411 666.528 138.057 666.694 137.778C666.859 137.5 667.083 137.28 667.365 137.117C667.647 136.955 667.961 136.832 668.309 136.749C668.657 136.666 669.012 136.603 669.373 136.56C669.831 136.507 670.202 136.464 670.487 136.431C670.772 136.395 670.979 136.337 671.108 136.257C671.238 136.178 671.302 136.048 671.302 135.869V135.835C671.302 135.4 671.18 135.064 670.934 134.825C670.692 134.587 670.331 134.467 669.851 134.467C669.35 134.467 668.956 134.578 668.667 134.8C668.382 135.019 668.185 135.263 668.076 135.531L666.679 135.213C666.844 134.749 667.086 134.375 667.405 134.089C667.726 133.801 668.096 133.592 668.513 133.463C668.931 133.33 669.37 133.264 669.831 133.264C670.136 133.264 670.459 133.301 670.8 133.374C671.145 133.443 671.466 133.572 671.765 133.761C672.066 133.95 672.313 134.22 672.505 134.572C672.698 134.92 672.794 135.372 672.794 135.929V141H671.342V139.956H671.282C671.186 140.148 671.042 140.337 670.85 140.523C670.658 140.708 670.411 140.862 670.109 140.985C669.807 141.108 669.446 141.169 669.025 141.169ZM669.348 139.976C669.759 139.976 670.111 139.895 670.402 139.732C670.697 139.57 670.921 139.358 671.074 139.096C671.229 138.831 671.307 138.547 671.307 138.246V137.261C671.254 137.314 671.151 137.364 670.999 137.411C670.85 137.454 670.679 137.492 670.487 137.525C670.295 137.555 670.107 137.583 669.925 137.609C669.743 137.633 669.59 137.652 669.468 137.669C669.179 137.705 668.916 137.767 668.677 137.853C668.442 137.939 668.253 138.063 668.111 138.226C667.971 138.385 667.902 138.597 667.902 138.862C667.902 139.23 668.038 139.509 668.309 139.697C668.581 139.883 668.928 139.976 669.348 139.976ZM677.99 141.154C677.251 141.154 676.615 140.987 676.081 140.652C675.551 140.314 675.143 139.848 674.858 139.255C674.573 138.662 674.431 137.982 674.431 137.217C674.431 136.441 674.576 135.757 674.868 135.163C675.16 134.567 675.571 134.101 676.101 133.766C676.631 133.432 677.256 133.264 677.975 133.264C678.555 133.264 679.072 133.372 679.527 133.587C679.981 133.799 680.347 134.098 680.625 134.482C680.907 134.867 681.074 135.316 681.127 135.83H679.681C679.601 135.472 679.419 135.163 679.134 134.905C678.852 134.646 678.474 134.517 678 134.517C677.586 134.517 677.223 134.626 676.911 134.845C676.603 135.061 676.363 135.369 676.191 135.77C676.018 136.168 675.932 136.638 675.932 137.182C675.932 137.739 676.017 138.219 676.186 138.624C676.355 139.028 676.593 139.341 676.902 139.563C677.213 139.785 677.579 139.896 678 139.896C678.282 139.896 678.537 139.845 678.766 139.742C678.998 139.636 679.192 139.485 679.348 139.29C679.507 139.094 679.618 138.859 679.681 138.584H681.127C681.074 139.078 680.914 139.518 680.645 139.906C680.377 140.294 680.017 140.599 679.566 140.821C679.119 141.043 678.594 141.154 677.99 141.154ZM686.282 133.364V134.557H682.111V133.364H686.282ZM683.229 131.534H684.716V138.758C684.716 139.046 684.759 139.263 684.845 139.409C684.931 139.552 685.042 139.649 685.178 139.702C685.317 139.752 685.468 139.777 685.63 139.777C685.75 139.777 685.854 139.769 685.944 139.752C686.033 139.736 686.103 139.722 686.152 139.712L686.421 140.94C686.335 140.973 686.212 141.007 686.053 141.04C685.894 141.076 685.695 141.096 685.456 141.099C685.065 141.106 684.701 141.036 684.363 140.891C684.025 140.745 683.751 140.519 683.542 140.214C683.334 139.91 683.229 139.527 683.229 139.066V131.534ZM687.926 141V133.364H689.413V141H687.926ZM688.677 132.185C688.418 132.185 688.196 132.099 688.011 131.927C687.828 131.751 687.737 131.542 687.737 131.3C687.737 131.055 687.828 130.846 688.011 130.674C688.196 130.498 688.418 130.411 688.677 130.411C688.935 130.411 689.156 130.498 689.338 130.674C689.524 130.846 689.616 131.055 689.616 131.3C689.616 131.542 689.524 131.751 689.338 131.927C689.156 132.099 688.935 132.185 688.677 132.185ZM697.945 133.364L695.176 141H693.585L690.811 133.364H692.407L694.341 139.24H694.42L696.349 133.364H697.945ZM702.373 141.154C701.621 141.154 700.973 140.993 700.43 140.672C699.889 140.347 699.472 139.891 699.177 139.305C698.885 138.715 698.739 138.024 698.739 137.232C698.739 136.449 698.885 135.76 699.177 135.163C699.472 134.567 699.883 134.101 700.41 133.766C700.94 133.432 701.56 133.264 702.269 133.264C702.7 133.264 703.118 133.335 703.522 133.478C703.926 133.621 704.289 133.844 704.611 134.149C704.932 134.454 705.186 134.85 705.371 135.337C705.557 135.821 705.65 136.41 705.65 137.102V137.629H699.579V136.516H704.193C704.193 136.125 704.114 135.778 703.954 135.477C703.795 135.172 703.572 134.931 703.283 134.756C702.998 134.58 702.664 134.492 702.279 134.492C701.861 134.492 701.497 134.595 701.185 134.8C700.877 135.003 700.638 135.268 700.469 135.596C700.304 135.921 700.221 136.274 700.221 136.655V137.525C700.221 138.035 700.31 138.469 700.489 138.827C700.672 139.185 700.925 139.459 701.25 139.648C701.575 139.833 701.954 139.926 702.388 139.926C702.67 139.926 702.927 139.886 703.159 139.807C703.391 139.724 703.592 139.601 703.761 139.439C703.93 139.277 704.059 139.076 704.148 138.837L705.555 139.091C705.443 139.505 705.24 139.868 704.949 140.18C704.66 140.488 704.297 140.728 703.86 140.901C703.426 141.07 702.93 141.154 702.373 141.154Z" fill="white" fill-opacity="0.95"/>
</g>
<rect x="483.5" y="108" width="150" height="2" fill="#3492EB"/>
<path fill-rule="evenodd" clip-rule="evenodd" d="M467.5 117C471.918 117 475.5 113.418 475.5 109C475.5 104.582 471.918 101 467.5 101C463.082 101 459.5 104.582 459.5 109C459.5 113.418 463.082 117 467.5 117Z" fill="#3492EB"/>
<g clip-path="url(#clip1_2031_6460)">
<path d="M435.705 140H434.123L433.129 137.452H428.327L427.319 140H425.821L429.965 129.92H431.575L435.705 140ZM430.749 131.348L428.789 136.29H432.667L430.749 131.348ZM440.942 138.026C440.942 137.615 440.727 137.307 440.298 137.102C440.046 136.99 439.556 136.85 438.828 136.682C437.932 136.486 437.293 136.201 436.91 135.828C436.593 135.511 436.434 135.095 436.434 134.582C436.434 133.901 436.709 133.378 437.26 133.014C437.755 132.678 438.422 132.51 439.262 132.51C440.13 132.51 440.835 132.725 441.376 133.154C441.843 133.527 442.132 134.022 442.244 134.638H440.872C440.713 133.929 440.172 133.574 439.248 133.574C438.735 133.574 438.352 133.667 438.1 133.854C437.895 134.013 437.792 134.213 437.792 134.456C437.792 134.755 437.904 134.979 438.128 135.128C438.361 135.277 438.814 135.427 439.486 135.576C440.513 135.8 441.227 136.075 441.628 136.402C442.076 136.766 442.3 137.275 442.3 137.928C442.3 138.656 442.001 139.23 441.404 139.65C440.863 140.023 440.149 140.21 439.262 140.21C438.291 140.21 437.521 139.977 436.952 139.51C436.457 139.099 436.182 138.567 436.126 137.914H437.498C437.647 138.735 438.24 139.146 439.276 139.146C439.836 139.146 440.27 139.025 440.578 138.782C440.821 138.586 440.942 138.334 440.942 138.026ZM447.997 138.026C447.997 137.615 447.782 137.307 447.353 137.102C447.101 136.99 446.611 136.85 445.883 136.682C444.987 136.486 444.347 136.201 443.965 135.828C443.647 135.511 443.489 135.095 443.489 134.582C443.489 133.901 443.764 133.378 444.315 133.014C444.809 132.678 445.477 132.51 446.317 132.51C447.185 132.51 447.889 132.725 448.431 133.154C448.897 133.527 449.187 134.022 449.299 134.638H447.927C447.768 133.929 447.227 133.574 446.303 133.574C445.789 133.574 445.407 133.667 445.155 133.854C444.949 134.013 444.847 134.213 444.847 134.456C444.847 134.755 444.959 134.979 445.183 135.128C445.416 135.277 445.869 135.427 446.541 135.576C447.567 135.8 448.281 136.075 448.683 136.402C449.131 136.766 449.355 137.275 449.355 137.928C449.355 138.656 449.056 139.23 448.459 139.65C447.917 140.023 447.203 140.21 446.317 140.21C445.346 140.21 444.576 139.977 444.007 139.51C443.512 139.099 443.237 138.567 443.181 137.914H444.553C444.702 138.735 445.295 139.146 446.331 139.146C446.891 139.146 447.325 139.025 447.633 138.782C447.875 138.586 447.997 138.334 447.997 138.026ZM452.319 131.502H450.807V129.92H452.319V131.502ZM452.235 140H450.891V132.72H452.235V140ZM454.116 140.49H455.558C455.623 140.863 455.81 141.153 456.118 141.358C456.435 141.563 456.85 141.666 457.364 141.666C458.082 141.666 458.619 141.479 458.974 141.106C459.272 140.789 459.422 140.345 459.422 139.776V138.838C458.88 139.473 458.073 139.79 457 139.79C456.029 139.79 455.24 139.44 454.634 138.74C454.064 138.087 453.78 137.237 453.78 136.192C453.78 134.979 454.125 134.041 454.816 133.378C455.404 132.799 456.16 132.51 457.084 132.51C458.129 132.51 458.918 132.902 459.45 133.686L459.66 132.72H460.766V139.846C460.766 140.761 460.434 141.479 459.772 142.002C459.174 142.487 458.386 142.73 457.406 142.73C456.388 142.73 455.59 142.501 455.012 142.044C454.526 141.661 454.228 141.143 454.116 140.49ZM455.18 136.22C455.18 137.013 455.413 137.634 455.88 138.082C456.262 138.455 456.734 138.642 457.294 138.642C458.031 138.642 458.596 138.399 458.988 137.914C459.324 137.503 459.492 136.953 459.492 136.262C459.492 135.375 459.263 134.699 458.806 134.232C458.423 133.849 457.919 133.658 457.294 133.658C456.603 133.658 456.071 133.896 455.698 134.372C455.352 134.82 455.18 135.436 455.18 136.22ZM464.075 140H462.731V132.72H463.837L463.991 133.644C464.532 132.888 465.27 132.51 466.203 132.51C467.062 132.51 467.72 132.776 468.177 133.308C468.578 133.784 468.779 134.433 468.779 135.254V140H467.435V135.268C467.435 134.195 466.917 133.658 465.881 133.658C465.34 133.658 464.896 133.845 464.551 134.218C464.234 134.554 464.075 134.983 464.075 135.506V140ZM474.802 132.72H476.146V137.494C476.146 138.539 476.65 139.062 477.658 139.062C478.274 139.062 478.745 138.843 479.072 138.404C479.324 138.068 479.45 137.653 479.45 137.158V132.72H480.794V140H479.688L479.534 139.16C479.02 139.86 478.292 140.21 477.35 140.21C476.519 140.21 475.88 139.953 475.432 139.44C475.012 138.964 474.802 138.306 474.802 137.466V132.72ZM487.016 138.026C487.016 137.615 486.802 137.307 486.372 137.102C486.12 136.99 485.63 136.85 484.902 136.682C484.006 136.486 483.367 136.201 482.984 135.828C482.667 135.511 482.508 135.095 482.508 134.582C482.508 133.901 482.784 133.378 483.334 133.014C483.829 132.678 484.496 132.51 485.336 132.51C486.204 132.51 486.909 132.725 487.45 133.154C487.917 133.527 488.206 134.022 488.318 134.638H486.946C486.788 133.929 486.246 133.574 485.322 133.574C484.809 133.574 484.426 133.667 484.174 133.854C483.969 134.013 483.866 134.213 483.866 134.456C483.866 134.755 483.978 134.979 484.202 135.128C484.436 135.277 484.888 135.427 485.56 135.576C486.587 135.8 487.301 136.075 487.702 136.402C488.15 136.766 488.374 137.275 488.374 137.928C488.374 138.656 488.076 139.23 487.478 139.65C486.937 140.023 486.223 140.21 485.336 140.21C484.366 140.21 483.596 139.977 483.026 139.51C482.532 139.099 482.256 138.567 482.2 137.914H483.572C483.722 138.735 484.314 139.146 485.35 139.146C485.91 139.146 486.344 139.025 486.652 138.782C486.895 138.586 487.016 138.334 487.016 138.026ZM494.867 137.9H496.323C496.117 138.637 495.711 139.216 495.105 139.636C494.535 140.019 493.854 140.21 493.061 140.21C491.913 140.21 491.017 139.846 490.373 139.118C489.785 138.437 489.491 137.517 489.491 136.36C489.491 135.044 489.864 134.045 490.611 133.364C491.227 132.795 492.02 132.51 492.991 132.51C494.129 132.51 494.988 132.879 495.567 133.616C496.127 134.325 496.407 135.338 496.407 136.654H490.863C490.919 137.513 491.18 138.152 491.647 138.572C492.029 138.908 492.515 139.076 493.103 139.076C493.56 139.076 493.957 138.95 494.293 138.698C494.573 138.483 494.764 138.217 494.867 137.9ZM493.019 133.588C492.421 133.588 491.941 133.775 491.577 134.148C491.231 134.493 491.012 134.974 490.919 135.59H495.035C494.988 134.89 494.755 134.367 494.335 134.022C493.999 133.733 493.56 133.588 493.019 133.588ZM499.362 140H498.018V132.72H499.124L499.306 133.798C499.717 132.939 500.333 132.51 501.154 132.51C501.425 132.51 501.691 132.543 501.952 132.608V133.952C501.635 133.868 501.35 133.826 501.098 133.826C500.557 133.826 500.132 134.045 499.824 134.484C499.516 134.923 499.362 135.543 499.362 136.346V140ZM507.264 138.026C507.264 137.615 507.05 137.307 506.62 137.102C506.368 136.99 505.878 136.85 505.15 136.682C504.254 136.486 503.615 136.201 503.232 135.828C502.915 135.511 502.756 135.095 502.756 134.582C502.756 133.901 503.032 133.378 503.582 133.014C504.077 132.678 504.744 132.51 505.584 132.51C506.452 132.51 507.157 132.725 507.698 133.154C508.165 133.527 508.454 134.022 508.566 134.638H507.194C507.036 133.929 506.494 133.574 505.57 133.574C505.057 133.574 504.674 133.667 504.422 133.854C504.217 134.013 504.114 134.213 504.114 134.456C504.114 134.755 504.226 134.979 504.45 135.128C504.684 135.277 505.136 135.427 505.808 135.576C506.835 135.8 507.549 136.075 507.95 136.402C508.398 136.766 508.622 137.275 508.622 137.928C508.622 138.656 508.324 139.23 507.726 139.65C507.185 140.023 506.471 140.21 505.584 140.21C504.614 140.21 503.844 139.977 503.274 139.51C502.78 139.099 502.504 138.567 502.448 137.914H503.82C503.97 138.735 504.562 139.146 505.598 139.146C506.158 139.146 506.592 139.025 506.9 138.782C507.143 138.586 507.264 138.334 507.264 138.026Z" fill="white" fill-opacity="0.95"/>
</g>
<defs>
<clipPath id="clip0_2031_6460">
<rect width="114" height="21" fill="white" transform="translate(592.5 125)"/>
</clipPath>
<clipPath id="clip1_2031_6460">
<rect width="160" height="21" fill="white" transform="translate(387.5 125)"/>
</clipPath>
</defs>
</svg>
