<svg width="1150" height="245" viewBox="0 0 1150 245" fill="none" xmlns="http://www.w3.org/2000/svg">
<rect width="1150" height="245" rx="24" fill="#262626"/>
<path d="M400 108C400 111.866 396.866 115 393 115C389.134 115 386 111.866 386 108C386 104.134 389.134 101 393 101C396.866 101 400 104.134 400 108Z" stroke="#64B4FA" stroke-width="2"/>
<g clip-path="url(#clip0_2031_6477)">
<path d="M376.268 139V128.818H377.501V137.906H382.234V139H376.268ZM386.231 139.179C385.747 139.179 385.308 139.088 384.914 138.906C384.519 138.72 384.206 138.453 383.974 138.105C383.742 137.754 383.626 137.33 383.626 136.832C383.626 136.395 383.712 136.04 383.885 135.768C384.057 135.493 384.287 135.278 384.576 135.122C384.864 134.966 385.182 134.85 385.53 134.774C385.882 134.695 386.234 134.632 386.589 134.585C387.053 134.526 387.429 134.481 387.718 134.451C388.009 134.418 388.221 134.363 388.354 134.287C388.49 134.211 388.558 134.078 388.558 133.889V133.849C388.558 133.359 388.424 132.978 388.155 132.706C387.89 132.434 387.487 132.298 386.947 132.298C386.387 132.298 385.948 132.421 385.63 132.666C385.311 132.911 385.088 133.173 384.958 133.452L383.845 133.054C384.044 132.59 384.309 132.229 384.64 131.97C384.975 131.708 385.34 131.526 385.734 131.423C386.132 131.317 386.523 131.264 386.907 131.264C387.153 131.264 387.434 131.294 387.752 131.354C388.074 131.41 388.384 131.528 388.682 131.707C388.984 131.886 389.234 132.156 389.433 132.517C389.632 132.878 389.731 133.362 389.731 133.969V139H388.558V137.966H388.498C388.419 138.132 388.286 138.309 388.1 138.498C387.915 138.687 387.668 138.848 387.36 138.98C387.051 139.113 386.675 139.179 386.231 139.179ZM386.41 138.125C386.874 138.125 387.265 138.034 387.583 137.852C387.905 137.669 388.147 137.434 388.309 137.146C388.475 136.857 388.558 136.554 388.558 136.236V135.162C388.508 135.222 388.399 135.276 388.23 135.326C388.064 135.372 387.872 135.414 387.653 135.45C387.438 135.483 387.227 135.513 387.022 135.54C386.819 135.563 386.655 135.583 386.529 135.599C386.225 135.639 385.94 135.704 385.674 135.793C385.413 135.879 385.2 136.01 385.038 136.186C384.879 136.358 384.799 136.594 384.799 136.892C384.799 137.3 384.95 137.608 385.252 137.817C385.557 138.022 385.943 138.125 386.41 138.125ZM392.032 139V128.818H393.205V132.577H393.305C393.391 132.444 393.51 132.275 393.662 132.07C393.818 131.861 394.04 131.675 394.329 131.513C394.62 131.347 395.015 131.264 395.512 131.264C396.155 131.264 396.722 131.425 397.212 131.746C397.703 132.068 398.086 132.524 398.361 133.114C398.636 133.704 398.773 134.4 398.773 135.202C398.773 136.01 398.636 136.711 398.361 137.305C398.086 137.895 397.704 138.352 397.217 138.677C396.73 138.998 396.168 139.159 395.532 139.159C395.041 139.159 394.648 139.078 394.354 138.915C394.059 138.75 393.831 138.562 393.672 138.354C393.513 138.142 393.391 137.966 393.305 137.827H393.165V139H392.032ZM393.185 135.182C393.185 135.759 393.27 136.267 393.439 136.708C393.608 137.146 393.855 137.489 394.18 137.737C394.504 137.982 394.902 138.105 395.373 138.105C395.863 138.105 396.273 137.976 396.601 137.717C396.932 137.455 397.181 137.104 397.346 136.663C397.515 136.219 397.6 135.725 397.6 135.182C397.6 134.645 397.517 134.161 397.351 133.73C397.189 133.296 396.942 132.953 396.611 132.701C396.282 132.446 395.87 132.318 395.373 132.318C394.895 132.318 394.494 132.439 394.17 132.681C393.845 132.92 393.599 133.254 393.434 133.685C393.268 134.113 393.185 134.612 393.185 135.182ZM403.77 139.159C403.034 139.159 402.399 138.997 401.866 138.672C401.335 138.344 400.926 137.886 400.638 137.3C400.353 136.71 400.21 136.024 400.21 135.241C400.21 134.459 400.353 133.77 400.638 133.173C400.926 132.573 401.327 132.106 401.841 131.771C402.358 131.433 402.961 131.264 403.65 131.264C404.048 131.264 404.441 131.33 404.829 131.463C405.216 131.596 405.569 131.811 405.888 132.109C406.206 132.404 406.459 132.795 406.648 133.283C406.837 133.77 406.932 134.37 406.932 135.082V135.58H401.045V134.565H405.738C405.738 134.134 405.652 133.75 405.48 133.412C405.311 133.074 405.069 132.807 404.754 132.612C404.443 132.416 404.075 132.318 403.65 132.318C403.183 132.318 402.779 132.434 402.437 132.666C402.099 132.895 401.839 133.193 401.657 133.561C401.474 133.929 401.383 134.323 401.383 134.744V135.42C401.383 135.997 401.483 136.486 401.682 136.887C401.884 137.285 402.164 137.588 402.522 137.797C402.88 138.002 403.296 138.105 403.77 138.105C404.078 138.105 404.356 138.062 404.605 137.976C404.857 137.886 405.074 137.754 405.256 137.578C405.439 137.399 405.579 137.177 405.679 136.912L406.812 137.23C406.693 137.615 406.492 137.953 406.211 138.244C405.929 138.533 405.581 138.758 405.167 138.92C404.752 139.08 404.287 139.159 403.77 139.159ZM409.89 128.818V139H408.716V128.818H409.89Z" fill="white" fill-opacity="0.7"/>
</g>
<rect x="409" y="107" width="150" height="2" fill="#8F8F8F"/>
<path d="M582 108C582 111.866 578.866 115 575 115C571.134 115 568 111.866 568 108C568 104.134 571.134 101 575 101C578.866 101 582 104.134 582 108Z" stroke="#64B4FA" stroke-width="2"/>
<g clip-path="url(#clip1_2031_6477)">
<path d="M524.872 132.493C524.819 132.022 524.6 131.658 524.216 131.399C523.831 131.137 523.347 131.006 522.764 131.006C522.347 131.006 521.985 131.073 521.68 131.205C521.375 131.335 521.138 131.513 520.969 131.742C520.804 131.968 520.721 132.224 520.721 132.513C520.721 132.755 520.777 132.964 520.89 133.139C521.006 133.315 521.157 133.462 521.342 133.582C521.531 133.698 521.733 133.795 521.949 133.875C522.164 133.951 522.371 134.014 522.57 134.064L523.565 134.322C523.889 134.402 524.222 134.51 524.564 134.646C524.905 134.781 525.222 134.96 525.513 135.183C525.805 135.405 526.04 135.68 526.219 136.008C526.402 136.336 526.493 136.729 526.493 137.186C526.493 137.763 526.344 138.275 526.045 138.722C525.75 139.17 525.321 139.523 524.758 139.781C524.198 140.04 523.52 140.169 522.724 140.169C521.962 140.169 521.302 140.048 520.746 139.806C520.189 139.564 519.753 139.221 519.438 138.777C519.123 138.33 518.949 137.799 518.916 137.186H520.457C520.487 137.554 520.606 137.861 520.815 138.106C521.027 138.348 521.297 138.528 521.626 138.648C521.957 138.764 522.32 138.822 522.714 138.822C523.149 138.822 523.535 138.754 523.873 138.618C524.214 138.479 524.483 138.286 524.678 138.041C524.874 137.793 524.972 137.503 524.972 137.171C524.972 136.87 524.885 136.623 524.713 136.43C524.544 136.238 524.314 136.079 524.022 135.953C523.734 135.827 523.407 135.716 523.043 135.62L521.839 135.292C521.024 135.07 520.378 134.743 519.9 134.312C519.427 133.882 519.19 133.312 519.19 132.602C519.19 132.016 519.349 131.504 519.667 131.066C519.985 130.629 520.416 130.289 520.959 130.047C521.503 129.802 522.116 129.679 522.799 129.679C523.488 129.679 524.097 129.8 524.623 130.042C525.154 130.284 525.571 130.617 525.876 131.041C526.181 131.462 526.34 131.946 526.354 132.493H524.872ZM531.774 132.364V133.557H527.603V132.364H531.774ZM528.721 130.534H530.208V137.758C530.208 138.046 530.251 138.263 530.337 138.409C530.423 138.552 530.534 138.649 530.67 138.702C530.809 138.752 530.96 138.777 531.123 138.777C531.242 138.777 531.346 138.769 531.436 138.752C531.525 138.736 531.595 138.722 531.645 138.712L531.913 139.94C531.827 139.973 531.704 140.007 531.545 140.04C531.386 140.076 531.187 140.096 530.949 140.099C530.557 140.106 530.193 140.036 529.855 139.891C529.517 139.745 529.243 139.519 529.035 139.214C528.826 138.91 528.721 138.527 528.721 138.066V130.534ZM536.627 140.154C535.875 140.154 535.227 139.993 534.684 139.672C534.143 139.347 533.726 138.891 533.431 138.305C533.139 137.715 532.993 137.024 532.993 136.232C532.993 135.449 533.139 134.76 533.431 134.163C533.726 133.567 534.137 133.101 534.664 132.766C535.194 132.432 535.814 132.264 536.523 132.264C536.954 132.264 537.371 132.335 537.776 132.478C538.18 132.621 538.543 132.844 538.865 133.149C539.186 133.454 539.44 133.85 539.625 134.337C539.811 134.821 539.904 135.41 539.904 136.102V136.629H533.833V135.516H538.447C538.447 135.125 538.367 134.778 538.208 134.477C538.049 134.172 537.826 133.931 537.537 133.756C537.252 133.58 536.917 133.492 536.533 133.492C536.115 133.492 535.751 133.595 535.439 133.8C535.131 134.003 534.892 134.268 534.723 134.596C534.558 134.921 534.475 135.274 534.475 135.655V136.525C534.475 137.035 534.564 137.469 534.743 137.827C534.925 138.185 535.179 138.459 535.504 138.648C535.829 138.833 536.208 138.926 536.642 138.926C536.924 138.926 537.181 138.886 537.413 138.807C537.645 138.724 537.845 138.601 538.014 138.439C538.184 138.277 538.313 138.076 538.402 137.837L539.809 138.091C539.697 138.505 539.494 138.868 539.203 139.18C538.914 139.488 538.551 139.728 538.114 139.901C537.68 140.07 537.184 140.154 536.627 140.154ZM541.553 142.864V132.364H543.005V133.602H543.129C543.215 133.442 543.339 133.259 543.502 133.05C543.664 132.841 543.89 132.659 544.178 132.503C544.466 132.344 544.848 132.264 545.321 132.264C545.938 132.264 546.488 132.42 546.972 132.732C547.456 133.043 547.835 133.492 548.111 134.079C548.389 134.665 548.528 135.371 548.528 136.197C548.528 137.022 548.391 137.73 548.116 138.32C547.84 138.906 547.463 139.359 546.982 139.677C546.501 139.992 545.953 140.149 545.336 140.149C544.872 140.149 544.493 140.071 544.198 139.915C543.906 139.76 543.678 139.577 543.512 139.369C543.346 139.16 543.218 138.974 543.129 138.812H543.04V142.864H541.553ZM543.01 136.182C543.01 136.719 543.088 137.189 543.243 137.594C543.399 137.998 543.624 138.315 543.919 138.543C544.214 138.769 544.576 138.881 545.003 138.881C545.447 138.881 545.819 138.764 546.117 138.528C546.415 138.29 546.641 137.967 546.793 137.559C546.949 137.151 547.027 136.692 547.027 136.182C547.027 135.678 546.95 135.226 546.798 134.825C546.649 134.424 546.424 134.107 546.122 133.875C545.824 133.643 545.451 133.527 545.003 133.527C544.572 133.527 544.208 133.638 543.91 133.86C543.615 134.082 543.391 134.392 543.238 134.79C543.086 135.187 543.01 135.652 543.01 136.182ZM555.385 129.818V140H553.899V129.818H555.385ZM559.607 140.169C559.123 140.169 558.686 140.08 558.295 139.901C557.904 139.718 557.594 139.455 557.365 139.11C557.14 138.765 557.027 138.343 557.027 137.842C557.027 137.411 557.11 137.057 557.276 136.778C557.441 136.5 557.665 136.28 557.947 136.117C558.229 135.955 558.543 135.832 558.891 135.749C559.239 135.666 559.594 135.603 559.955 135.56C560.413 135.507 560.784 135.464 561.069 135.431C561.354 135.395 561.561 135.337 561.69 135.257C561.82 135.178 561.884 135.048 561.884 134.869V134.835C561.884 134.4 561.762 134.064 561.516 133.825C561.274 133.587 560.913 133.467 560.433 133.467C559.932 133.467 559.538 133.578 559.249 133.8C558.964 134.019 558.767 134.263 558.658 134.531L557.261 134.213C557.426 133.749 557.668 133.375 557.987 133.089C558.308 132.801 558.678 132.592 559.095 132.463C559.513 132.33 559.952 132.264 560.413 132.264C560.718 132.264 561.041 132.301 561.382 132.374C561.727 132.443 562.048 132.572 562.347 132.761C562.648 132.95 562.895 133.22 563.087 133.572C563.28 133.92 563.376 134.372 563.376 134.929V140H561.924V138.956H561.864C561.768 139.148 561.624 139.337 561.432 139.523C561.24 139.708 560.993 139.862 560.691 139.985C560.39 140.108 560.028 140.169 559.607 140.169ZM559.93 138.976C560.341 138.976 560.693 138.895 560.984 138.732C561.279 138.57 561.503 138.358 561.656 138.096C561.811 137.831 561.889 137.547 561.889 137.246V136.261C561.836 136.314 561.734 136.364 561.581 136.411C561.432 136.454 561.261 136.492 561.069 136.525C560.877 136.555 560.689 136.583 560.507 136.609C560.325 136.633 560.172 136.652 560.05 136.669C559.761 136.705 559.498 136.767 559.259 136.853C559.024 136.939 558.835 137.063 558.693 137.226C558.553 137.385 558.484 137.597 558.484 137.862C558.484 138.23 558.62 138.509 558.891 138.697C559.163 138.883 559.51 138.976 559.93 138.976ZM565.475 140V129.818H566.962V133.602H567.051C567.137 133.442 567.262 133.259 567.424 133.05C567.586 132.841 567.812 132.659 568.1 132.503C568.388 132.344 568.77 132.264 569.244 132.264C569.86 132.264 570.41 132.42 570.894 132.732C571.378 133.043 571.757 133.492 572.033 134.079C572.311 134.665 572.45 135.371 572.45 136.197C572.45 137.022 572.313 137.73 572.038 138.32C571.762 138.906 571.385 139.359 570.904 139.677C570.423 139.992 569.875 140.149 569.258 140.149C568.794 140.149 568.415 140.071 568.12 139.915C567.828 139.76 567.6 139.577 567.434 139.369C567.268 139.16 567.141 138.974 567.051 138.812H566.927V140H565.475ZM566.932 136.182C566.932 136.719 567.01 137.189 567.165 137.594C567.321 137.998 567.547 138.315 567.842 138.543C568.137 138.769 568.498 138.881 568.925 138.881C569.369 138.881 569.741 138.764 570.039 138.528C570.337 138.29 570.563 137.967 570.715 137.559C570.871 137.151 570.949 136.692 570.949 136.182C570.949 135.678 570.873 135.226 570.72 134.825C570.571 134.424 570.346 134.107 570.044 133.875C569.746 133.643 569.373 133.527 568.925 133.527C568.494 133.527 568.13 133.638 567.832 133.86C567.537 134.082 567.313 134.392 567.16 134.79C567.008 135.187 566.932 135.652 566.932 136.182ZM577.411 140.154C576.658 140.154 576.01 139.993 575.467 139.672C574.926 139.347 574.509 138.891 574.214 138.305C573.922 137.715 573.776 137.024 573.776 136.232C573.776 135.449 573.922 134.76 574.214 134.163C574.509 133.567 574.92 133.101 575.447 132.766C575.977 132.432 576.597 132.264 577.306 132.264C577.737 132.264 578.155 132.335 578.559 132.478C578.963 132.621 579.326 132.844 579.648 133.149C579.969 133.454 580.223 133.85 580.408 134.337C580.594 134.821 580.687 135.41 580.687 136.102V136.629H574.617V135.516H579.23C579.23 135.125 579.151 134.778 578.992 134.477C578.832 134.172 578.609 133.931 578.32 133.756C578.035 133.58 577.701 133.492 577.316 133.492C576.899 133.492 576.534 133.595 576.222 133.8C575.914 134.003 575.676 134.268 575.506 134.596C575.341 134.921 575.258 135.274 575.258 135.655V136.525C575.258 137.035 575.347 137.469 575.526 137.827C575.709 138.185 575.962 138.459 576.287 138.648C576.612 138.833 576.991 138.926 577.426 138.926C577.707 138.926 577.964 138.886 578.196 138.807C578.428 138.724 578.629 138.601 578.798 138.439C578.967 138.277 579.096 138.076 579.185 137.837L580.592 138.091C580.48 138.505 580.278 138.868 579.986 139.18C579.698 139.488 579.335 139.728 578.897 139.901C578.463 140.07 577.967 140.154 577.411 140.154ZM583.823 129.818V140H582.336V129.818H583.823ZM590.322 135.053V136.341H585.808V135.053H590.322ZM594.525 140.169C594.041 140.169 593.604 140.08 593.213 139.901C592.822 139.718 592.512 139.455 592.283 139.11C592.058 138.765 591.945 138.343 591.945 137.842C591.945 137.411 592.028 137.057 592.194 136.778C592.359 136.5 592.583 136.28 592.865 136.117C593.147 135.955 593.461 135.832 593.809 135.749C594.157 135.666 594.512 135.603 594.873 135.56C595.331 135.507 595.702 135.464 595.987 135.431C596.272 135.395 596.479 135.337 596.608 135.257C596.738 135.178 596.802 135.048 596.802 134.869V134.835C596.802 134.4 596.68 134.064 596.434 133.825C596.192 133.587 595.831 133.467 595.351 133.467C594.85 133.467 594.456 133.578 594.167 133.8C593.882 134.019 593.685 134.263 593.576 134.531L592.179 134.213C592.344 133.749 592.586 133.375 592.905 133.089C593.226 132.801 593.596 132.592 594.013 132.463C594.431 132.33 594.87 132.264 595.331 132.264C595.636 132.264 595.959 132.301 596.3 132.374C596.645 132.443 596.966 132.572 597.265 132.761C597.566 132.95 597.813 133.22 598.005 133.572C598.198 133.92 598.294 134.372 598.294 134.929V140H596.842V138.956H596.782C596.686 139.148 596.542 139.337 596.35 139.523C596.158 139.708 595.911 139.862 595.609 139.985C595.307 140.108 594.946 140.169 594.525 140.169ZM594.848 138.976C595.259 138.976 595.611 138.895 595.902 138.732C596.197 138.57 596.421 138.358 596.574 138.096C596.729 137.831 596.807 137.547 596.807 137.246V136.261C596.754 136.314 596.651 136.364 596.499 136.411C596.35 136.454 596.179 136.492 595.987 136.525C595.795 136.555 595.607 136.583 595.425 136.609C595.243 136.633 595.09 136.652 594.968 136.669C594.679 136.705 594.416 136.767 594.177 136.853C593.942 136.939 593.753 137.063 593.611 137.226C593.471 137.385 593.402 137.597 593.402 137.862C593.402 138.23 593.538 138.509 593.809 138.697C594.081 138.883 594.428 138.976 594.848 138.976ZM603.49 140.154C602.751 140.154 602.115 139.987 601.581 139.652C601.051 139.314 600.643 138.848 600.358 138.255C600.073 137.662 599.931 136.982 599.931 136.217C599.931 135.441 600.076 134.757 600.368 134.163C600.66 133.567 601.071 133.101 601.601 132.766C602.131 132.432 602.756 132.264 603.475 132.264C604.055 132.264 604.572 132.372 605.027 132.587C605.481 132.799 605.847 133.098 606.125 133.482C606.407 133.867 606.574 134.316 606.627 134.83H605.181C605.101 134.472 604.919 134.163 604.634 133.905C604.352 133.646 603.974 133.517 603.5 133.517C603.086 133.517 602.723 133.626 602.411 133.845C602.103 134.061 601.863 134.369 601.691 134.77C601.518 135.168 601.432 135.638 601.432 136.182C601.432 136.739 601.517 137.219 601.686 137.624C601.855 138.028 602.093 138.341 602.402 138.563C602.713 138.785 603.079 138.896 603.5 138.896C603.782 138.896 604.037 138.845 604.266 138.742C604.498 138.636 604.692 138.485 604.848 138.29C605.007 138.094 605.118 137.859 605.181 137.584H606.627C606.574 138.078 606.414 138.518 606.145 138.906C605.877 139.294 605.517 139.599 605.066 139.821C604.619 140.043 604.094 140.154 603.49 140.154ZM611.782 132.364V133.557H607.611V132.364H611.782ZM608.729 130.534H610.216V137.758C610.216 138.046 610.259 138.263 610.345 138.409C610.431 138.552 610.542 138.649 610.678 138.702C610.817 138.752 610.968 138.777 611.13 138.777C611.25 138.777 611.354 138.769 611.444 138.752C611.533 138.736 611.603 138.722 611.652 138.712L611.921 139.94C611.835 139.973 611.712 140.007 611.553 140.04C611.394 140.076 611.195 140.096 610.956 140.099C610.565 140.106 610.201 140.036 609.863 139.891C609.525 139.745 609.251 139.519 609.042 139.214C608.834 138.91 608.729 138.527 608.729 138.066V130.534ZM613.426 140V132.364H614.913V140H613.426ZM614.177 131.185C613.918 131.185 613.696 131.099 613.511 130.927C613.328 130.751 613.237 130.542 613.237 130.3C613.237 130.055 613.328 129.846 613.511 129.674C613.696 129.498 613.918 129.411 614.177 129.411C614.435 129.411 614.656 129.498 614.838 129.674C615.024 129.846 615.116 130.055 615.116 130.3C615.116 130.542 615.024 130.751 614.838 130.927C614.656 131.099 614.435 131.185 614.177 131.185ZM623.445 132.364L620.676 140H619.085L616.311 132.364H617.907L619.841 138.24H619.92L621.849 132.364H623.445ZM627.873 140.154C627.121 140.154 626.473 139.993 625.93 139.672C625.389 139.347 624.972 138.891 624.677 138.305C624.385 137.715 624.239 137.024 624.239 136.232C624.239 135.449 624.385 134.76 624.677 134.163C624.972 133.567 625.383 133.101 625.91 132.766C626.44 132.432 627.06 132.264 627.769 132.264C628.2 132.264 628.618 132.335 629.022 132.478C629.426 132.621 629.789 132.844 630.111 133.149C630.432 133.454 630.686 133.85 630.871 134.337C631.057 134.821 631.15 135.41 631.15 136.102V136.629H625.079V135.516H629.693C629.693 135.125 629.614 134.778 629.454 134.477C629.295 134.172 629.072 133.931 628.783 133.756C628.498 133.58 628.164 133.492 627.779 133.492C627.361 133.492 626.997 133.595 626.685 133.8C626.377 134.003 626.138 134.268 625.969 134.596C625.804 134.921 625.721 135.274 625.721 135.655V136.525C625.721 137.035 625.81 137.469 625.989 137.827C626.172 138.185 626.425 138.459 626.75 138.648C627.075 138.833 627.454 138.926 627.888 138.926C628.17 138.926 628.427 138.886 628.659 138.807C628.891 138.724 629.092 138.601 629.261 138.439C629.43 138.277 629.559 138.076 629.648 137.837L631.055 138.091C630.943 138.505 630.74 138.868 630.449 139.18C630.16 139.488 629.797 139.728 629.36 139.901C628.926 140.07 628.43 140.154 627.873 140.154Z" fill="white" fill-opacity="0.95"/>
</g>
<rect x="591" y="107" width="150" height="2" fill="#8F8F8F"/>
<path fill-rule="evenodd" clip-rule="evenodd" d="M757 116C761.418 116 765 112.418 765 108C765 103.582 761.418 100 757 100C752.582 100 749 103.582 749 108C749 112.418 752.582 116 757 116Z" fill="#3492EB"/>
<g clip-path="url(#clip2_2031_6477)">
<path d="M725.205 139H723.623L722.629 136.452H717.827L716.819 139H715.321L719.465 128.92H721.075L725.205 139ZM720.249 130.348L718.289 135.29H722.167L720.249 130.348ZM730.442 137.026C730.442 136.615 730.227 136.307 729.798 136.102C729.546 135.99 729.056 135.85 728.328 135.682C727.432 135.486 726.793 135.201 726.41 134.828C726.093 134.511 725.934 134.095 725.934 133.582C725.934 132.901 726.209 132.378 726.76 132.014C727.255 131.678 727.922 131.51 728.762 131.51C729.63 131.51 730.335 131.725 730.876 132.154C731.343 132.527 731.632 133.022 731.744 133.638H730.372C730.213 132.929 729.672 132.574 728.748 132.574C728.235 132.574 727.852 132.667 727.6 132.854C727.395 133.013 727.292 133.213 727.292 133.456C727.292 133.755 727.404 133.979 727.628 134.128C727.861 134.277 728.314 134.427 728.986 134.576C730.013 134.8 730.727 135.075 731.128 135.402C731.576 135.766 731.8 136.275 731.8 136.928C731.8 137.656 731.501 138.23 730.904 138.65C730.363 139.023 729.649 139.21 728.762 139.21C727.791 139.21 727.021 138.977 726.452 138.51C725.957 138.099 725.682 137.567 725.626 136.914H726.998C727.147 137.735 727.74 138.146 728.776 138.146C729.336 138.146 729.77 138.025 730.078 137.782C730.321 137.586 730.442 137.334 730.442 137.026ZM737.497 137.026C737.497 136.615 737.282 136.307 736.853 136.102C736.601 135.99 736.111 135.85 735.383 135.682C734.487 135.486 733.847 135.201 733.465 134.828C733.147 134.511 732.989 134.095 732.989 133.582C732.989 132.901 733.264 132.378 733.815 132.014C734.309 131.678 734.977 131.51 735.817 131.51C736.685 131.51 737.389 131.725 737.931 132.154C738.397 132.527 738.687 133.022 738.799 133.638H737.427C737.268 132.929 736.727 132.574 735.803 132.574C735.289 132.574 734.907 132.667 734.655 132.854C734.449 133.013 734.347 133.213 734.347 133.456C734.347 133.755 734.459 133.979 734.683 134.128C734.916 134.277 735.369 134.427 736.041 134.576C737.067 134.8 737.781 135.075 738.183 135.402C738.631 135.766 738.855 136.275 738.855 136.928C738.855 137.656 738.556 138.23 737.959 138.65C737.417 139.023 736.703 139.21 735.817 139.21C734.846 139.21 734.076 138.977 733.507 138.51C733.012 138.099 732.737 137.567 732.681 136.914H734.053C734.202 137.735 734.795 138.146 735.831 138.146C736.391 138.146 736.825 138.025 737.133 137.782C737.375 137.586 737.497 137.334 737.497 137.026ZM741.819 130.502H740.307V128.92H741.819V130.502ZM741.735 139H740.391V131.72H741.735V139ZM743.616 139.49H745.058C745.123 139.863 745.31 140.153 745.618 140.358C745.935 140.563 746.35 140.666 746.864 140.666C747.582 140.666 748.119 140.479 748.474 140.106C748.772 139.789 748.922 139.345 748.922 138.776V137.838C748.38 138.473 747.573 138.79 746.5 138.79C745.529 138.79 744.74 138.44 744.134 137.74C743.564 137.087 743.28 136.237 743.28 135.192C743.28 133.979 743.625 133.041 744.316 132.378C744.904 131.799 745.66 131.51 746.584 131.51C747.629 131.51 748.418 131.902 748.95 132.686L749.16 131.72H750.266V138.846C750.266 139.761 749.934 140.479 749.272 141.002C748.674 141.487 747.886 141.73 746.906 141.73C745.888 141.73 745.09 141.501 744.512 141.044C744.026 140.661 743.728 140.143 743.616 139.49ZM744.68 135.22C744.68 136.013 744.913 136.634 745.38 137.082C745.762 137.455 746.234 137.642 746.794 137.642C747.531 137.642 748.096 137.399 748.488 136.914C748.824 136.503 748.992 135.953 748.992 135.262C748.992 134.375 748.763 133.699 748.306 133.232C747.923 132.849 747.419 132.658 746.794 132.658C746.103 132.658 745.571 132.896 745.198 133.372C744.852 133.82 744.68 134.436 744.68 135.22ZM753.575 139H752.231V131.72H753.337L753.491 132.644C754.032 131.888 754.77 131.51 755.703 131.51C756.562 131.51 757.22 131.776 757.677 132.308C758.078 132.784 758.279 133.433 758.279 134.254V139H756.935V134.268C756.935 133.195 756.417 132.658 755.381 132.658C754.84 132.658 754.396 132.845 754.051 133.218C753.734 133.554 753.575 133.983 753.575 134.506V139ZM764.302 131.72H765.646V136.494C765.646 137.539 766.15 138.062 767.158 138.062C767.774 138.062 768.245 137.843 768.572 137.404C768.824 137.068 768.95 136.653 768.95 136.158V131.72H770.294V139H769.188L769.034 138.16C768.52 138.86 767.792 139.21 766.85 139.21C766.019 139.21 765.38 138.953 764.932 138.44C764.512 137.964 764.302 137.306 764.302 136.466V131.72ZM776.516 137.026C776.516 136.615 776.302 136.307 775.872 136.102C775.62 135.99 775.13 135.85 774.402 135.682C773.506 135.486 772.867 135.201 772.484 134.828C772.167 134.511 772.008 134.095 772.008 133.582C772.008 132.901 772.284 132.378 772.834 132.014C773.329 131.678 773.996 131.51 774.836 131.51C775.704 131.51 776.409 131.725 776.95 132.154C777.417 132.527 777.706 133.022 777.818 133.638H776.446C776.288 132.929 775.746 132.574 774.822 132.574C774.309 132.574 773.926 132.667 773.674 132.854C773.469 133.013 773.366 133.213 773.366 133.456C773.366 133.755 773.478 133.979 773.702 134.128C773.936 134.277 774.388 134.427 775.06 134.576C776.087 134.8 776.801 135.075 777.202 135.402C777.65 135.766 777.874 136.275 777.874 136.928C777.874 137.656 777.576 138.23 776.978 138.65C776.437 139.023 775.723 139.21 774.836 139.21C773.866 139.21 773.096 138.977 772.526 138.51C772.032 138.099 771.756 137.567 771.7 136.914H773.072C773.222 137.735 773.814 138.146 774.85 138.146C775.41 138.146 775.844 138.025 776.152 137.782C776.395 137.586 776.516 137.334 776.516 137.026ZM784.367 136.9H785.823C785.617 137.637 785.211 138.216 784.605 138.636C784.035 139.019 783.354 139.21 782.561 139.21C781.413 139.21 780.517 138.846 779.873 138.118C779.285 137.437 778.991 136.517 778.991 135.36C778.991 134.044 779.364 133.045 780.111 132.364C780.727 131.795 781.52 131.51 782.491 131.51C783.629 131.51 784.488 131.879 785.067 132.616C785.627 133.325 785.907 134.338 785.907 135.654H780.363C780.419 136.513 780.68 137.152 781.147 137.572C781.529 137.908 782.015 138.076 782.603 138.076C783.06 138.076 783.457 137.95 783.793 137.698C784.073 137.483 784.264 137.217 784.367 136.9ZM782.519 132.588C781.921 132.588 781.441 132.775 781.077 133.148C780.731 133.493 780.512 133.974 780.419 134.59H784.535C784.488 133.89 784.255 133.367 783.835 133.022C783.499 132.733 783.06 132.588 782.519 132.588ZM788.862 139H787.518V131.72H788.624L788.806 132.798C789.217 131.939 789.833 131.51 790.654 131.51C790.925 131.51 791.191 131.543 791.452 131.608V132.952C791.135 132.868 790.85 132.826 790.598 132.826C790.057 132.826 789.632 133.045 789.324 133.484C789.016 133.923 788.862 134.543 788.862 135.346V139ZM796.764 137.026C796.764 136.615 796.55 136.307 796.12 136.102C795.868 135.99 795.378 135.85 794.65 135.682C793.754 135.486 793.115 135.201 792.732 134.828C792.415 134.511 792.256 134.095 792.256 133.582C792.256 132.901 792.532 132.378 793.082 132.014C793.577 131.678 794.244 131.51 795.084 131.51C795.952 131.51 796.657 131.725 797.198 132.154C797.665 132.527 797.954 133.022 798.066 133.638H796.694C796.536 132.929 795.994 132.574 795.07 132.574C794.557 132.574 794.174 132.667 793.922 132.854C793.717 133.013 793.614 133.213 793.614 133.456C793.614 133.755 793.726 133.979 793.95 134.128C794.184 134.277 794.636 134.427 795.308 134.576C796.335 134.8 797.049 135.075 797.45 135.402C797.898 135.766 798.122 136.275 798.122 136.928C798.122 137.656 797.824 138.23 797.226 138.65C796.685 139.023 795.971 139.21 795.084 139.21C794.114 139.21 793.344 138.977 792.774 138.51C792.28 138.099 792.004 137.567 791.948 136.914H793.32C793.47 137.735 794.062 138.146 795.098 138.146C795.658 138.146 796.092 138.025 796.4 137.782C796.643 137.586 796.764 137.334 796.764 137.026Z" fill="white" fill-opacity="0.95"/>
</g>
<defs>
<clipPath id="clip0_2031_6477">
<rect width="36" height="20" fill="white" transform="translate(375 124)"/>
</clipPath>
<clipPath id="clip1_2031_6477">
<rect width="114" height="21" fill="white" transform="translate(518 124)"/>
</clipPath>
<clipPath id="clip2_2031_6477">
<rect width="160" height="21" fill="white" transform="translate(677 124)"/>
</clipPath>
</defs>
</svg>
