<svg width="1300" height="247" viewBox="0 0 1300 247" fill="none" xmlns="http://www.w3.org/2000/svg">
<rect width="1300" height="247" rx="24" fill="#262626"/>
<path d="M475 109C475 112.866 471.866 116 468 116C464.134 116 461 112.866 461 109C461 105.134 464.134 102 468 102C471.866 102 475 105.134 475 109Z" stroke="#64B4FA" stroke-width="2"/>
<g clip-path="url(#clip0_2031_6560)">
<path d="M451.268 140V129.818H452.501V138.906H457.234V140H451.268ZM461.231 140.179C460.747 140.179 460.308 140.088 459.914 139.906C459.519 139.72 459.206 139.453 458.974 139.105C458.742 138.754 458.626 138.33 458.626 137.832C458.626 137.395 458.712 137.04 458.885 136.768C459.057 136.493 459.287 136.278 459.576 136.122C459.864 135.966 460.182 135.85 460.53 135.774C460.882 135.695 461.234 135.632 461.589 135.585C462.053 135.526 462.429 135.481 462.718 135.451C463.009 135.418 463.221 135.363 463.354 135.287C463.49 135.211 463.558 135.078 463.558 134.889V134.849C463.558 134.359 463.424 133.978 463.155 133.706C462.89 133.434 462.487 133.298 461.947 133.298C461.387 133.298 460.948 133.421 460.63 133.666C460.311 133.911 460.088 134.173 459.958 134.452L458.845 134.054C459.044 133.59 459.309 133.229 459.64 132.97C459.975 132.708 460.34 132.526 460.734 132.423C461.132 132.317 461.523 132.264 461.907 132.264C462.153 132.264 462.434 132.294 462.752 132.354C463.074 132.41 463.384 132.528 463.682 132.707C463.984 132.886 464.234 133.156 464.433 133.517C464.632 133.878 464.731 134.362 464.731 134.969V140H463.558V138.966H463.498C463.419 139.132 463.286 139.309 463.1 139.498C462.915 139.687 462.668 139.848 462.36 139.98C462.051 140.113 461.675 140.179 461.231 140.179ZM461.41 139.125C461.874 139.125 462.265 139.034 462.583 138.852C462.905 138.669 463.147 138.434 463.309 138.146C463.475 137.857 463.558 137.554 463.558 137.236V136.162C463.508 136.222 463.399 136.276 463.23 136.326C463.064 136.372 462.872 136.414 462.653 136.45C462.438 136.483 462.227 136.513 462.022 136.54C461.819 136.563 461.655 136.583 461.529 136.599C461.225 136.639 460.94 136.704 460.674 136.793C460.413 136.879 460.2 137.01 460.038 137.186C459.879 137.358 459.799 137.594 459.799 137.892C459.799 138.3 459.95 138.608 460.252 138.817C460.557 139.022 460.943 139.125 461.41 139.125ZM467.032 140V129.818H468.205V133.577H468.305C468.391 133.444 468.51 133.275 468.662 133.07C468.818 132.861 469.04 132.675 469.329 132.513C469.62 132.347 470.015 132.264 470.512 132.264C471.155 132.264 471.722 132.425 472.212 132.746C472.703 133.068 473.086 133.524 473.361 134.114C473.636 134.704 473.773 135.4 473.773 136.202C473.773 137.01 473.636 137.711 473.361 138.305C473.086 138.895 472.704 139.352 472.217 139.677C471.73 139.998 471.168 140.159 470.532 140.159C470.041 140.159 469.648 140.078 469.354 139.915C469.059 139.75 468.831 139.562 468.672 139.354C468.513 139.142 468.391 138.966 468.305 138.827H468.165V140H467.032ZM468.185 136.182C468.185 136.759 468.27 137.267 468.439 137.708C468.608 138.146 468.855 138.489 469.18 138.737C469.504 138.982 469.902 139.105 470.373 139.105C470.863 139.105 471.273 138.976 471.601 138.717C471.932 138.455 472.181 138.104 472.346 137.663C472.515 137.219 472.6 136.725 472.6 136.182C472.6 135.645 472.517 135.161 472.351 134.73C472.189 134.296 471.942 133.953 471.611 133.701C471.282 133.446 470.87 133.318 470.373 133.318C469.895 133.318 469.494 133.439 469.17 133.681C468.845 133.92 468.599 134.254 468.434 134.685C468.268 135.113 468.185 135.612 468.185 136.182ZM478.77 140.159C478.034 140.159 477.399 139.997 476.866 139.672C476.335 139.344 475.926 138.886 475.638 138.3C475.353 137.71 475.21 137.024 475.21 136.241C475.21 135.459 475.353 134.77 475.638 134.173C475.926 133.573 476.327 133.106 476.841 132.771C477.358 132.433 477.961 132.264 478.65 132.264C479.048 132.264 479.441 132.33 479.829 132.463C480.216 132.596 480.569 132.811 480.888 133.109C481.206 133.404 481.459 133.795 481.648 134.283C481.837 134.77 481.932 135.37 481.932 136.082V136.58H476.045V135.565H480.738C480.738 135.134 480.652 134.75 480.48 134.412C480.311 134.074 480.069 133.807 479.754 133.612C479.443 133.416 479.075 133.318 478.65 133.318C478.183 133.318 477.779 133.434 477.437 133.666C477.099 133.895 476.839 134.193 476.657 134.561C476.474 134.929 476.383 135.323 476.383 135.744V136.42C476.383 136.997 476.483 137.486 476.682 137.887C476.884 138.285 477.164 138.588 477.522 138.797C477.88 139.002 478.296 139.105 478.77 139.105C479.078 139.105 479.356 139.062 479.605 138.976C479.857 138.886 480.074 138.754 480.256 138.578C480.439 138.399 480.579 138.177 480.679 137.912L481.812 138.23C481.693 138.615 481.492 138.953 481.211 139.244C480.929 139.533 480.581 139.758 480.167 139.92C479.752 140.08 479.287 140.159 478.77 140.159ZM484.89 129.818V140H483.716V129.818H484.89Z" fill="white" fill-opacity="0.7"/>
</g>
<rect x="484" y="108" width="150" height="2" fill="#8F8F8F"/>
<path d="M657 109C657 112.866 653.866 116 650 116C646.134 116 643 112.866 643 109C643 105.134 646.134 102 650 102C653.866 102 657 105.134 657 109Z" stroke="#64B4FA" stroke-width="2"/>
<g clip-path="url(#clip1_2031_6560)">
<path d="M599.872 133.493C599.819 133.022 599.6 132.658 599.216 132.399C598.831 132.137 598.347 132.006 597.764 132.006C597.347 132.006 596.985 132.073 596.68 132.205C596.375 132.335 596.138 132.513 595.969 132.742C595.804 132.968 595.721 133.224 595.721 133.513C595.721 133.755 595.777 133.964 595.89 134.139C596.006 134.315 596.157 134.462 596.342 134.582C596.531 134.698 596.733 134.795 596.949 134.875C597.164 134.951 597.371 135.014 597.57 135.064L598.565 135.322C598.889 135.402 599.222 135.51 599.564 135.646C599.905 135.781 600.222 135.96 600.513 136.183C600.805 136.405 601.04 136.68 601.219 137.008C601.402 137.336 601.493 137.729 601.493 138.186C601.493 138.763 601.344 139.275 601.045 139.722C600.75 140.17 600.321 140.523 599.758 140.781C599.198 141.04 598.52 141.169 597.724 141.169C596.962 141.169 596.302 141.048 595.746 140.806C595.189 140.564 594.753 140.221 594.438 139.777C594.123 139.33 593.949 138.799 593.916 138.186H595.457C595.487 138.554 595.606 138.861 595.815 139.106C596.027 139.348 596.297 139.528 596.626 139.648C596.957 139.764 597.32 139.822 597.714 139.822C598.149 139.822 598.535 139.754 598.873 139.618C599.214 139.479 599.483 139.286 599.678 139.041C599.874 138.793 599.972 138.503 599.972 138.171C599.972 137.87 599.885 137.623 599.713 137.43C599.544 137.238 599.314 137.079 599.022 136.953C598.734 136.827 598.407 136.716 598.043 136.62L596.839 136.292C596.024 136.07 595.378 135.743 594.9 135.312C594.427 134.882 594.19 134.312 594.19 133.602C594.19 133.016 594.349 132.504 594.667 132.066C594.985 131.629 595.416 131.289 595.959 131.047C596.503 130.802 597.116 130.679 597.799 130.679C598.488 130.679 599.097 130.8 599.623 131.042C600.154 131.284 600.571 131.617 600.876 132.041C601.181 132.462 601.34 132.946 601.354 133.493H599.872ZM606.774 133.364V134.557H602.603V133.364H606.774ZM603.721 131.534H605.208V138.758C605.208 139.046 605.251 139.263 605.337 139.409C605.423 139.552 605.534 139.649 605.67 139.702C605.809 139.752 605.96 139.777 606.123 139.777C606.242 139.777 606.346 139.769 606.436 139.752C606.525 139.736 606.595 139.722 606.645 139.712L606.913 140.94C606.827 140.973 606.704 141.007 606.545 141.04C606.386 141.076 606.187 141.096 605.949 141.099C605.557 141.106 605.193 141.036 604.855 140.891C604.517 140.745 604.243 140.519 604.035 140.214C603.826 139.91 603.721 139.527 603.721 139.066V131.534ZM611.627 141.154C610.875 141.154 610.227 140.993 609.684 140.672C609.143 140.347 608.726 139.891 608.431 139.305C608.139 138.715 607.993 138.024 607.993 137.232C607.993 136.449 608.139 135.76 608.431 135.163C608.726 134.567 609.137 134.101 609.664 133.766C610.194 133.432 610.814 133.264 611.523 133.264C611.954 133.264 612.371 133.335 612.776 133.478C613.18 133.621 613.543 133.844 613.865 134.149C614.186 134.454 614.44 134.85 614.625 135.337C614.811 135.821 614.904 136.41 614.904 137.102V137.629H608.833V136.516H613.447C613.447 136.125 613.367 135.778 613.208 135.477C613.049 135.172 612.826 134.931 612.537 134.756C612.252 134.58 611.917 134.492 611.533 134.492C611.115 134.492 610.751 134.595 610.439 134.8C610.131 135.003 609.892 135.268 609.723 135.596C609.558 135.921 609.475 136.274 609.475 136.655V137.525C609.475 138.035 609.564 138.469 609.743 138.827C609.925 139.185 610.179 139.459 610.504 139.648C610.829 139.833 611.208 139.926 611.642 139.926C611.924 139.926 612.181 139.886 612.413 139.807C612.645 139.724 612.845 139.601 613.014 139.439C613.184 139.277 613.313 139.076 613.402 138.837L614.809 139.091C614.697 139.505 614.494 139.868 614.203 140.18C613.914 140.488 613.551 140.728 613.114 140.901C612.68 141.07 612.184 141.154 611.627 141.154ZM616.553 143.864V133.364H618.005V134.602H618.129C618.215 134.442 618.339 134.259 618.502 134.05C618.664 133.841 618.89 133.659 619.178 133.503C619.466 133.344 619.848 133.264 620.321 133.264C620.938 133.264 621.488 133.42 621.972 133.732C622.456 134.043 622.835 134.492 623.111 135.079C623.389 135.665 623.528 136.371 623.528 137.197C623.528 138.022 623.391 138.73 623.116 139.32C622.84 139.906 622.463 140.359 621.982 140.677C621.501 140.992 620.953 141.149 620.336 141.149C619.872 141.149 619.493 141.071 619.198 140.915C618.906 140.76 618.678 140.577 618.512 140.369C618.346 140.16 618.218 139.974 618.129 139.812H618.04V143.864H616.553ZM618.01 137.182C618.01 137.719 618.088 138.189 618.243 138.594C618.399 138.998 618.624 139.315 618.919 139.543C619.214 139.769 619.576 139.881 620.003 139.881C620.447 139.881 620.819 139.764 621.117 139.528C621.415 139.29 621.641 138.967 621.793 138.559C621.949 138.151 622.027 137.692 622.027 137.182C622.027 136.678 621.95 136.226 621.798 135.825C621.649 135.424 621.424 135.107 621.122 134.875C620.824 134.643 620.451 134.527 620.003 134.527C619.572 134.527 619.208 134.638 618.91 134.86C618.615 135.082 618.391 135.392 618.238 135.79C618.086 136.187 618.01 136.652 618.01 137.182ZM630.385 130.818V141H628.899V130.818H630.385ZM634.607 141.169C634.123 141.169 633.686 141.08 633.295 140.901C632.904 140.718 632.594 140.455 632.365 140.11C632.14 139.765 632.027 139.343 632.027 138.842C632.027 138.411 632.11 138.057 632.276 137.778C632.441 137.5 632.665 137.28 632.947 137.117C633.229 136.955 633.543 136.832 633.891 136.749C634.239 136.666 634.594 136.603 634.955 136.56C635.413 136.507 635.784 136.464 636.069 136.431C636.354 136.395 636.561 136.337 636.69 136.257C636.82 136.178 636.884 136.048 636.884 135.869V135.835C636.884 135.4 636.762 135.064 636.516 134.825C636.274 134.587 635.913 134.467 635.433 134.467C634.932 134.467 634.538 134.578 634.249 134.8C633.964 135.019 633.767 135.263 633.658 135.531L632.261 135.213C632.426 134.749 632.668 134.375 632.987 134.089C633.308 133.801 633.678 133.592 634.095 133.463C634.513 133.33 634.952 133.264 635.413 133.264C635.718 133.264 636.041 133.301 636.382 133.374C636.727 133.443 637.048 133.572 637.347 133.761C637.648 133.95 637.895 134.22 638.087 134.572C638.28 134.92 638.376 135.372 638.376 135.929V141H636.924V139.956H636.864C636.768 140.148 636.624 140.337 636.432 140.523C636.24 140.708 635.993 140.862 635.691 140.985C635.39 141.108 635.028 141.169 634.607 141.169ZM634.93 139.976C635.341 139.976 635.693 139.895 635.984 139.732C636.279 139.57 636.503 139.358 636.656 139.096C636.811 138.831 636.889 138.547 636.889 138.246V137.261C636.836 137.314 636.734 137.364 636.581 137.411C636.432 137.454 636.261 137.492 636.069 137.525C635.877 137.555 635.689 137.583 635.507 137.609C635.325 137.633 635.172 137.652 635.05 137.669C634.761 137.705 634.498 137.767 634.259 137.853C634.024 137.939 633.835 138.063 633.693 138.226C633.553 138.385 633.484 138.597 633.484 138.862C633.484 139.23 633.62 139.509 633.891 139.697C634.163 139.883 634.51 139.976 634.93 139.976ZM640.475 141V130.818H641.962V134.602H642.051C642.137 134.442 642.262 134.259 642.424 134.05C642.586 133.841 642.812 133.659 643.1 133.503C643.388 133.344 643.77 133.264 644.244 133.264C644.86 133.264 645.41 133.42 645.894 133.732C646.378 134.043 646.757 134.492 647.033 135.079C647.311 135.665 647.45 136.371 647.45 137.197C647.45 138.022 647.313 138.73 647.038 139.32C646.762 139.906 646.385 140.359 645.904 140.677C645.423 140.992 644.875 141.149 644.258 141.149C643.794 141.149 643.415 141.071 643.12 140.915C642.828 140.76 642.6 140.577 642.434 140.369C642.268 140.16 642.141 139.974 642.051 139.812H641.927V141H640.475ZM641.932 137.182C641.932 137.719 642.01 138.189 642.165 138.594C642.321 138.998 642.547 139.315 642.842 139.543C643.137 139.769 643.498 139.881 643.925 139.881C644.369 139.881 644.741 139.764 645.039 139.528C645.337 139.29 645.563 138.967 645.715 138.559C645.871 138.151 645.949 137.692 645.949 137.182C645.949 136.678 645.873 136.226 645.72 135.825C645.571 135.424 645.346 135.107 645.044 134.875C644.746 134.643 644.373 134.527 643.925 134.527C643.494 134.527 643.13 134.638 642.832 134.86C642.537 135.082 642.313 135.392 642.16 135.79C642.008 136.187 641.932 136.652 641.932 137.182ZM652.411 141.154C651.658 141.154 651.01 140.993 650.467 140.672C649.926 140.347 649.509 139.891 649.214 139.305C648.922 138.715 648.776 138.024 648.776 137.232C648.776 136.449 648.922 135.76 649.214 135.163C649.509 134.567 649.92 134.101 650.447 133.766C650.977 133.432 651.597 133.264 652.306 133.264C652.737 133.264 653.155 133.335 653.559 133.478C653.963 133.621 654.326 133.844 654.648 134.149C654.969 134.454 655.223 134.85 655.408 135.337C655.594 135.821 655.687 136.41 655.687 137.102V137.629H649.617V136.516H654.23C654.23 136.125 654.151 135.778 653.992 135.477C653.832 135.172 653.609 134.931 653.32 134.756C653.035 134.58 652.701 134.492 652.316 134.492C651.899 134.492 651.534 134.595 651.222 134.8C650.914 135.003 650.676 135.268 650.506 135.596C650.341 135.921 650.258 136.274 650.258 136.655V137.525C650.258 138.035 650.347 138.469 650.526 138.827C650.709 139.185 650.962 139.459 651.287 139.648C651.612 139.833 651.991 139.926 652.426 139.926C652.707 139.926 652.964 139.886 653.196 139.807C653.428 139.724 653.629 139.601 653.798 139.439C653.967 139.277 654.096 139.076 654.185 138.837L655.592 139.091C655.48 139.505 655.278 139.868 654.986 140.18C654.698 140.488 654.335 140.728 653.897 140.901C653.463 141.07 652.967 141.154 652.411 141.154ZM658.823 130.818V141H657.336V130.818H658.823ZM665.322 136.053V137.341H660.808V136.053H665.322ZM669.525 141.169C669.041 141.169 668.604 141.08 668.213 140.901C667.822 140.718 667.512 140.455 667.283 140.11C667.058 139.765 666.945 139.343 666.945 138.842C666.945 138.411 667.028 138.057 667.194 137.778C667.359 137.5 667.583 137.28 667.865 137.117C668.147 136.955 668.461 136.832 668.809 136.749C669.157 136.666 669.512 136.603 669.873 136.56C670.331 136.507 670.702 136.464 670.987 136.431C671.272 136.395 671.479 136.337 671.608 136.257C671.738 136.178 671.802 136.048 671.802 135.869V135.835C671.802 135.4 671.68 135.064 671.434 134.825C671.192 134.587 670.831 134.467 670.351 134.467C669.85 134.467 669.456 134.578 669.167 134.8C668.882 135.019 668.685 135.263 668.576 135.531L667.179 135.213C667.344 134.749 667.586 134.375 667.905 134.089C668.226 133.801 668.596 133.592 669.013 133.463C669.431 133.33 669.87 133.264 670.331 133.264C670.636 133.264 670.959 133.301 671.3 133.374C671.645 133.443 671.966 133.572 672.265 133.761C672.566 133.95 672.813 134.22 673.005 134.572C673.198 134.92 673.294 135.372 673.294 135.929V141H671.842V139.956H671.782C671.686 140.148 671.542 140.337 671.35 140.523C671.158 140.708 670.911 140.862 670.609 140.985C670.307 141.108 669.946 141.169 669.525 141.169ZM669.848 139.976C670.259 139.976 670.611 139.895 670.902 139.732C671.197 139.57 671.421 139.358 671.574 139.096C671.729 138.831 671.807 138.547 671.807 138.246V137.261C671.754 137.314 671.651 137.364 671.499 137.411C671.35 137.454 671.179 137.492 670.987 137.525C670.795 137.555 670.607 137.583 670.425 137.609C670.243 137.633 670.09 137.652 669.968 137.669C669.679 137.705 669.416 137.767 669.177 137.853C668.942 137.939 668.753 138.063 668.611 138.226C668.471 138.385 668.402 138.597 668.402 138.862C668.402 139.23 668.538 139.509 668.809 139.697C669.081 139.883 669.428 139.976 669.848 139.976ZM678.49 141.154C677.751 141.154 677.115 140.987 676.581 140.652C676.051 140.314 675.643 139.848 675.358 139.255C675.073 138.662 674.931 137.982 674.931 137.217C674.931 136.441 675.076 135.757 675.368 135.163C675.66 134.567 676.071 134.101 676.601 133.766C677.131 133.432 677.756 133.264 678.475 133.264C679.055 133.264 679.572 133.372 680.027 133.587C680.481 133.799 680.847 134.098 681.125 134.482C681.407 134.867 681.574 135.316 681.627 135.83H680.181C680.101 135.472 679.919 135.163 679.634 134.905C679.352 134.646 678.974 134.517 678.5 134.517C678.086 134.517 677.723 134.626 677.411 134.845C677.103 135.061 676.863 135.369 676.691 135.77C676.518 136.168 676.432 136.638 676.432 137.182C676.432 137.739 676.517 138.219 676.686 138.624C676.855 139.028 677.093 139.341 677.402 139.563C677.713 139.785 678.079 139.896 678.5 139.896C678.782 139.896 679.037 139.845 679.266 139.742C679.498 139.636 679.692 139.485 679.848 139.29C680.007 139.094 680.118 138.859 680.181 138.584H681.627C681.574 139.078 681.414 139.518 681.145 139.906C680.877 140.294 680.517 140.599 680.066 140.821C679.619 141.043 679.094 141.154 678.49 141.154ZM686.782 133.364V134.557H682.611V133.364H686.782ZM683.729 131.534H685.216V138.758C685.216 139.046 685.259 139.263 685.345 139.409C685.431 139.552 685.542 139.649 685.678 139.702C685.817 139.752 685.968 139.777 686.13 139.777C686.25 139.777 686.354 139.769 686.444 139.752C686.533 139.736 686.603 139.722 686.652 139.712L686.921 140.94C686.835 140.973 686.712 141.007 686.553 141.04C686.394 141.076 686.195 141.096 685.956 141.099C685.565 141.106 685.201 141.036 684.863 140.891C684.525 140.745 684.251 140.519 684.042 140.214C683.834 139.91 683.729 139.527 683.729 139.066V131.534ZM688.426 141V133.364H689.913V141H688.426ZM689.177 132.185C688.918 132.185 688.696 132.099 688.511 131.927C688.328 131.751 688.237 131.542 688.237 131.3C688.237 131.055 688.328 130.846 688.511 130.674C688.696 130.498 688.918 130.411 689.177 130.411C689.435 130.411 689.656 130.498 689.838 130.674C690.024 130.846 690.116 131.055 690.116 131.3C690.116 131.542 690.024 131.751 689.838 131.927C689.656 132.099 689.435 132.185 689.177 132.185ZM698.445 133.364L695.676 141H694.085L691.311 133.364H692.907L694.841 139.24H694.92L696.849 133.364H698.445ZM702.873 141.154C702.121 141.154 701.473 140.993 700.93 140.672C700.389 140.347 699.972 139.891 699.677 139.305C699.385 138.715 699.239 138.024 699.239 137.232C699.239 136.449 699.385 135.76 699.677 135.163C699.972 134.567 700.383 134.101 700.91 133.766C701.44 133.432 702.06 133.264 702.769 133.264C703.2 133.264 703.618 133.335 704.022 133.478C704.426 133.621 704.789 133.844 705.111 134.149C705.432 134.454 705.686 134.85 705.871 135.337C706.057 135.821 706.15 136.41 706.15 137.102V137.629H700.079V136.516H704.693C704.693 136.125 704.614 135.778 704.454 135.477C704.295 135.172 704.072 134.931 703.783 134.756C703.498 134.58 703.164 134.492 702.779 134.492C702.361 134.492 701.997 134.595 701.685 134.8C701.377 135.003 701.138 135.268 700.969 135.596C700.804 135.921 700.721 136.274 700.721 136.655V137.525C700.721 138.035 700.81 138.469 700.989 138.827C701.172 139.185 701.425 139.459 701.75 139.648C702.075 139.833 702.454 139.926 702.888 139.926C703.17 139.926 703.427 139.886 703.659 139.807C703.891 139.724 704.092 139.601 704.261 139.439C704.43 139.277 704.559 139.076 704.648 138.837L706.055 139.091C705.943 139.505 705.74 139.868 705.449 140.18C705.16 140.488 704.797 140.728 704.36 140.901C703.926 141.07 703.43 141.154 702.873 141.154Z" fill="white" fill-opacity="0.95"/>
</g>
<rect x="666" y="108" width="150" height="2" fill="#8F8F8F"/>
<path fill-rule="evenodd" clip-rule="evenodd" d="M832 117C836.418 117 840 113.418 840 109C840 104.582 836.418 101 832 101C827.582 101 824 104.582 824 109C824 113.418 827.582 117 832 117Z" fill="#3492EB"/>
<g clip-path="url(#clip2_2031_6560)">
<path d="M800.205 140H798.623L797.629 137.452H792.827L791.819 140H790.321L794.465 129.92H796.075L800.205 140ZM795.249 131.348L793.289 136.29H797.167L795.249 131.348ZM805.442 138.026C805.442 137.615 805.227 137.307 804.798 137.102C804.546 136.99 804.056 136.85 803.328 136.682C802.432 136.486 801.793 136.201 801.41 135.828C801.093 135.511 800.934 135.095 800.934 134.582C800.934 133.901 801.209 133.378 801.76 133.014C802.255 132.678 802.922 132.51 803.762 132.51C804.63 132.51 805.335 132.725 805.876 133.154C806.343 133.527 806.632 134.022 806.744 134.638H805.372C805.213 133.929 804.672 133.574 803.748 133.574C803.235 133.574 802.852 133.667 802.6 133.854C802.395 134.013 802.292 134.213 802.292 134.456C802.292 134.755 802.404 134.979 802.628 135.128C802.861 135.277 803.314 135.427 803.986 135.576C805.013 135.8 805.727 136.075 806.128 136.402C806.576 136.766 806.8 137.275 806.8 137.928C806.8 138.656 806.501 139.23 805.904 139.65C805.363 140.023 804.649 140.21 803.762 140.21C802.791 140.21 802.021 139.977 801.452 139.51C800.957 139.099 800.682 138.567 800.626 137.914H801.998C802.147 138.735 802.74 139.146 803.776 139.146C804.336 139.146 804.77 139.025 805.078 138.782C805.321 138.586 805.442 138.334 805.442 138.026ZM812.497 138.026C812.497 137.615 812.282 137.307 811.853 137.102C811.601 136.99 811.111 136.85 810.383 136.682C809.487 136.486 808.847 136.201 808.465 135.828C808.147 135.511 807.989 135.095 807.989 134.582C807.989 133.901 808.264 133.378 808.815 133.014C809.309 132.678 809.977 132.51 810.817 132.51C811.685 132.51 812.389 132.725 812.931 133.154C813.397 133.527 813.687 134.022 813.799 134.638H812.427C812.268 133.929 811.727 133.574 810.803 133.574C810.289 133.574 809.907 133.667 809.655 133.854C809.449 134.013 809.347 134.213 809.347 134.456C809.347 134.755 809.459 134.979 809.683 135.128C809.916 135.277 810.369 135.427 811.041 135.576C812.067 135.8 812.781 136.075 813.183 136.402C813.631 136.766 813.855 137.275 813.855 137.928C813.855 138.656 813.556 139.23 812.959 139.65C812.417 140.023 811.703 140.21 810.817 140.21C809.846 140.21 809.076 139.977 808.507 139.51C808.012 139.099 807.737 138.567 807.681 137.914H809.053C809.202 138.735 809.795 139.146 810.831 139.146C811.391 139.146 811.825 139.025 812.133 138.782C812.375 138.586 812.497 138.334 812.497 138.026ZM816.819 131.502H815.307V129.92H816.819V131.502ZM816.735 140H815.391V132.72H816.735V140ZM818.616 140.49H820.058C820.123 140.863 820.31 141.153 820.618 141.358C820.935 141.563 821.35 141.666 821.864 141.666C822.582 141.666 823.119 141.479 823.474 141.106C823.772 140.789 823.922 140.345 823.922 139.776V138.838C823.38 139.473 822.573 139.79 821.5 139.79C820.529 139.79 819.74 139.44 819.134 138.74C818.564 138.087 818.28 137.237 818.28 136.192C818.28 134.979 818.625 134.041 819.316 133.378C819.904 132.799 820.66 132.51 821.584 132.51C822.629 132.51 823.418 132.902 823.95 133.686L824.16 132.72H825.266V139.846C825.266 140.761 824.934 141.479 824.272 142.002C823.674 142.487 822.886 142.73 821.906 142.73C820.888 142.73 820.09 142.501 819.512 142.044C819.026 141.661 818.728 141.143 818.616 140.49ZM819.68 136.22C819.68 137.013 819.913 137.634 820.38 138.082C820.762 138.455 821.234 138.642 821.794 138.642C822.531 138.642 823.096 138.399 823.488 137.914C823.824 137.503 823.992 136.953 823.992 136.262C823.992 135.375 823.763 134.699 823.306 134.232C822.923 133.849 822.419 133.658 821.794 133.658C821.103 133.658 820.571 133.896 820.198 134.372C819.852 134.82 819.68 135.436 819.68 136.22ZM828.575 140H827.231V132.72H828.337L828.491 133.644C829.032 132.888 829.77 132.51 830.703 132.51C831.562 132.51 832.22 132.776 832.677 133.308C833.078 133.784 833.279 134.433 833.279 135.254V140H831.935V135.268C831.935 134.195 831.417 133.658 830.381 133.658C829.84 133.658 829.396 133.845 829.051 134.218C828.734 134.554 828.575 134.983 828.575 135.506V140ZM839.302 132.72H840.646V137.494C840.646 138.539 841.15 139.062 842.158 139.062C842.774 139.062 843.245 138.843 843.572 138.404C843.824 138.068 843.95 137.653 843.95 137.158V132.72H845.294V140H844.188L844.034 139.16C843.52 139.86 842.792 140.21 841.85 140.21C841.019 140.21 840.38 139.953 839.932 139.44C839.512 138.964 839.302 138.306 839.302 137.466V132.72ZM851.516 138.026C851.516 137.615 851.302 137.307 850.872 137.102C850.62 136.99 850.13 136.85 849.402 136.682C848.506 136.486 847.867 136.201 847.484 135.828C847.167 135.511 847.008 135.095 847.008 134.582C847.008 133.901 847.284 133.378 847.834 133.014C848.329 132.678 848.996 132.51 849.836 132.51C850.704 132.51 851.409 132.725 851.95 133.154C852.417 133.527 852.706 134.022 852.818 134.638H851.446C851.288 133.929 850.746 133.574 849.822 133.574C849.309 133.574 848.926 133.667 848.674 133.854C848.469 134.013 848.366 134.213 848.366 134.456C848.366 134.755 848.478 134.979 848.702 135.128C848.936 135.277 849.388 135.427 850.06 135.576C851.087 135.8 851.801 136.075 852.202 136.402C852.65 136.766 852.874 137.275 852.874 137.928C852.874 138.656 852.576 139.23 851.978 139.65C851.437 140.023 850.723 140.21 849.836 140.21C848.866 140.21 848.096 139.977 847.526 139.51C847.032 139.099 846.756 138.567 846.7 137.914H848.072C848.222 138.735 848.814 139.146 849.85 139.146C850.41 139.146 850.844 139.025 851.152 138.782C851.395 138.586 851.516 138.334 851.516 138.026ZM859.367 137.9H860.823C860.617 138.637 860.211 139.216 859.605 139.636C859.035 140.019 858.354 140.21 857.561 140.21C856.413 140.21 855.517 139.846 854.873 139.118C854.285 138.437 853.991 137.517 853.991 136.36C853.991 135.044 854.364 134.045 855.111 133.364C855.727 132.795 856.52 132.51 857.491 132.51C858.629 132.51 859.488 132.879 860.067 133.616C860.627 134.325 860.907 135.338 860.907 136.654H855.363C855.419 137.513 855.68 138.152 856.147 138.572C856.529 138.908 857.015 139.076 857.603 139.076C858.06 139.076 858.457 138.95 858.793 138.698C859.073 138.483 859.264 138.217 859.367 137.9ZM857.519 133.588C856.921 133.588 856.441 133.775 856.077 134.148C855.731 134.493 855.512 134.974 855.419 135.59H859.535C859.488 134.89 859.255 134.367 858.835 134.022C858.499 133.733 858.06 133.588 857.519 133.588ZM863.862 140H862.518V132.72H863.624L863.806 133.798C864.217 132.939 864.833 132.51 865.654 132.51C865.925 132.51 866.191 132.543 866.452 132.608V133.952C866.135 133.868 865.85 133.826 865.598 133.826C865.057 133.826 864.632 134.045 864.324 134.484C864.016 134.923 863.862 135.543 863.862 136.346V140ZM871.764 138.026C871.764 137.615 871.55 137.307 871.12 137.102C870.868 136.99 870.378 136.85 869.65 136.682C868.754 136.486 868.115 136.201 867.732 135.828C867.415 135.511 867.256 135.095 867.256 134.582C867.256 133.901 867.532 133.378 868.082 133.014C868.577 132.678 869.244 132.51 870.084 132.51C870.952 132.51 871.657 132.725 872.198 133.154C872.665 133.527 872.954 134.022 873.066 134.638H871.694C871.536 133.929 870.994 133.574 870.07 133.574C869.557 133.574 869.174 133.667 868.922 133.854C868.717 134.013 868.614 134.213 868.614 134.456C868.614 134.755 868.726 134.979 868.95 135.128C869.184 135.277 869.636 135.427 870.308 135.576C871.335 135.8 872.049 136.075 872.45 136.402C872.898 136.766 873.122 137.275 873.122 137.928C873.122 138.656 872.824 139.23 872.226 139.65C871.685 140.023 870.971 140.21 870.084 140.21C869.114 140.21 868.344 139.977 867.774 139.51C867.28 139.099 867.004 138.567 866.948 137.914H868.32C868.47 138.735 869.062 139.146 870.098 139.146C870.658 139.146 871.092 139.025 871.4 138.782C871.643 138.586 871.764 138.334 871.764 138.026Z" fill="white" fill-opacity="0.95"/>
</g>
<defs>
<clipPath id="clip0_2031_6560">
<rect width="36" height="20" fill="white" transform="translate(450 125)"/>
</clipPath>
<clipPath id="clip1_2031_6560">
<rect width="114" height="21" fill="white" transform="translate(593 125)"/>
</clipPath>
<clipPath id="clip2_2031_6560">
<rect width="160" height="21" fill="white" transform="translate(752 125)"/>
</clipPath>
</defs>
</svg>
