<svg width="1300" height="245" viewBox="0 0 1300 245" fill="none" xmlns="http://www.w3.org/2000/svg">
<rect width="1300" height="245" rx="24" fill="#262626"/>
<path d="M838.5 108C838.5 111.866 835.366 115 831.5 115C827.634 115 824.5 111.866 824.5 108C824.5 104.134 827.634 101 831.5 101C835.366 101 838.5 104.134 838.5 108Z" stroke="#64B4FA" stroke-width="2"/>
<path d="M814.768 139V128.818H816.001V137.906H820.734V139H814.768ZM824.731 139.179C824.247 139.179 823.808 139.088 823.414 138.906C823.019 138.72 822.706 138.453 822.474 138.105C822.242 137.754 822.126 137.33 822.126 136.832C822.126 136.395 822.212 136.04 822.385 135.768C822.557 135.493 822.787 135.278 823.076 135.122C823.364 134.966 823.682 134.85 824.03 134.774C824.382 134.695 824.734 134.632 825.089 134.585C825.553 134.526 825.929 134.481 826.218 134.451C826.509 134.418 826.721 134.363 826.854 134.287C826.99 134.211 827.058 134.078 827.058 133.889V133.849C827.058 133.359 826.924 132.978 826.655 132.706C826.39 132.434 825.987 132.298 825.447 132.298C824.887 132.298 824.448 132.421 824.13 132.666C823.811 132.911 823.588 133.173 823.458 133.452L822.345 133.054C822.544 132.59 822.809 132.229 823.14 131.97C823.475 131.708 823.84 131.526 824.234 131.423C824.632 131.317 825.023 131.264 825.407 131.264C825.653 131.264 825.934 131.294 826.252 131.354C826.574 131.41 826.884 131.528 827.182 131.707C827.484 131.886 827.734 132.156 827.933 132.517C828.132 132.878 828.231 133.362 828.231 133.969V139H827.058V137.966H826.998C826.919 138.132 826.786 138.309 826.6 138.498C826.415 138.687 826.168 138.848 825.86 138.98C825.551 139.113 825.175 139.179 824.731 139.179ZM824.91 138.125C825.374 138.125 825.765 138.034 826.083 137.852C826.405 137.669 826.647 137.434 826.809 137.146C826.975 136.857 827.058 136.554 827.058 136.236V135.162C827.008 135.222 826.899 135.276 826.73 135.326C826.564 135.372 826.372 135.414 826.153 135.45C825.938 135.483 825.727 135.513 825.522 135.54C825.319 135.563 825.155 135.583 825.029 135.599C824.725 135.639 824.44 135.704 824.174 135.793C823.913 135.879 823.7 136.01 823.538 136.186C823.379 136.358 823.299 136.594 823.299 136.892C823.299 137.3 823.45 137.608 823.752 137.817C824.057 138.022 824.443 138.125 824.91 138.125ZM830.532 139V128.818H831.705V132.577H831.805C831.891 132.444 832.01 132.275 832.162 132.07C832.318 131.861 832.54 131.675 832.829 131.513C833.12 131.347 833.515 131.264 834.012 131.264C834.655 131.264 835.222 131.425 835.712 131.746C836.203 132.068 836.586 132.524 836.861 133.114C837.136 133.704 837.273 134.4 837.273 135.202C837.273 136.01 837.136 136.711 836.861 137.305C836.586 137.895 836.204 138.352 835.717 138.677C835.23 138.998 834.668 139.159 834.032 139.159C833.541 139.159 833.148 139.078 832.854 138.915C832.559 138.75 832.331 138.562 832.172 138.354C832.013 138.142 831.891 137.966 831.805 137.827H831.665V139H830.532ZM831.685 135.182C831.685 135.759 831.77 136.267 831.939 136.708C832.108 137.146 832.355 137.489 832.68 137.737C833.004 137.982 833.402 138.105 833.873 138.105C834.363 138.105 834.773 137.976 835.101 137.717C835.432 137.455 835.681 137.104 835.846 136.663C836.015 136.219 836.1 135.725 836.1 135.182C836.1 134.645 836.017 134.161 835.851 133.73C835.689 133.296 835.442 132.953 835.111 132.701C834.782 132.446 834.37 132.318 833.873 132.318C833.395 132.318 832.994 132.439 832.67 132.681C832.345 132.92 832.099 133.254 831.934 133.685C831.768 134.113 831.685 134.612 831.685 135.182ZM842.27 139.159C841.534 139.159 840.899 138.997 840.366 138.672C839.835 138.344 839.426 137.886 839.138 137.3C838.853 136.71 838.71 136.024 838.71 135.241C838.71 134.459 838.853 133.77 839.138 133.173C839.426 132.573 839.827 132.106 840.341 131.771C840.858 131.433 841.461 131.264 842.15 131.264C842.548 131.264 842.941 131.33 843.329 131.463C843.716 131.596 844.069 131.811 844.388 132.109C844.706 132.404 844.959 132.795 845.148 133.283C845.337 133.77 845.432 134.37 845.432 135.082V135.58H839.545V134.565H844.238C844.238 134.134 844.152 133.75 843.98 133.412C843.811 133.074 843.569 132.807 843.254 132.612C842.943 132.416 842.575 132.318 842.15 132.318C841.683 132.318 841.279 132.434 840.937 132.666C840.599 132.895 840.339 133.193 840.157 133.561C839.974 133.929 839.883 134.323 839.883 134.744V135.42C839.883 135.997 839.983 136.486 840.182 136.887C840.384 137.285 840.664 137.588 841.022 137.797C841.38 138.002 841.796 138.105 842.27 138.105C842.578 138.105 842.856 138.062 843.105 137.976C843.357 137.886 843.574 137.754 843.756 137.578C843.939 137.399 844.079 137.177 844.179 136.912L845.312 137.23C845.193 137.615 844.992 137.953 844.711 138.244C844.429 138.533 844.081 138.758 843.667 138.92C843.252 139.08 842.787 139.159 842.27 139.159ZM848.39 128.818V139H847.216V128.818H848.39Z" fill="white" fill-opacity="0.7"/>
<rect x="665.5" y="107" width="150" height="2" fill="#8F8F8F"/>
<path d="M656.5 108C656.5 111.866 653.366 115 649.5 115C645.634 115 642.5 111.866 642.5 108C642.5 104.134 645.634 101 649.5 101C653.366 101 656.5 104.134 656.5 108Z" stroke="#64B4FA" stroke-width="2"/>
<g clip-path="url(#clip0_2031_6477)">
<path d="M599.372 132.493C599.319 132.022 599.1 131.658 598.716 131.399C598.331 131.137 597.847 131.006 597.264 131.006C596.847 131.006 596.485 131.073 596.18 131.205C595.875 131.335 595.638 131.513 595.469 131.742C595.304 131.968 595.221 132.224 595.221 132.513C595.221 132.755 595.277 132.964 595.39 133.139C595.506 133.315 595.657 133.462 595.842 133.582C596.031 133.698 596.233 133.795 596.449 133.875C596.664 133.951 596.871 134.014 597.07 134.064L598.065 134.322C598.389 134.402 598.722 134.51 599.064 134.646C599.405 134.781 599.722 134.96 600.013 135.183C600.305 135.405 600.54 135.68 600.719 136.008C600.902 136.336 600.993 136.729 600.993 137.186C600.993 137.763 600.844 138.275 600.545 138.722C600.25 139.17 599.821 139.523 599.258 139.781C598.698 140.04 598.02 140.169 597.224 140.169C596.462 140.169 595.802 140.048 595.246 139.806C594.689 139.564 594.253 139.221 593.938 138.777C593.623 138.33 593.449 137.799 593.416 137.186H594.957C594.987 137.554 595.106 137.861 595.315 138.106C595.527 138.348 595.797 138.528 596.126 138.648C596.457 138.764 596.82 138.822 597.214 138.822C597.649 138.822 598.035 138.754 598.373 138.618C598.714 138.479 598.983 138.286 599.178 138.041C599.374 137.793 599.472 137.503 599.472 137.171C599.472 136.87 599.385 136.623 599.213 136.43C599.044 136.238 598.814 136.079 598.522 135.953C598.234 135.827 597.907 135.716 597.543 135.62L596.339 135.292C595.524 135.07 594.878 134.743 594.4 134.312C593.927 133.882 593.69 133.312 593.69 132.602C593.69 132.016 593.849 131.504 594.167 131.066C594.485 130.629 594.916 130.289 595.459 130.047C596.003 129.802 596.616 129.679 597.299 129.679C597.988 129.679 598.597 129.8 599.123 130.042C599.654 130.284 600.071 130.617 600.376 131.041C600.681 131.462 600.84 131.946 600.854 132.493H599.372ZM606.274 132.364V133.557H602.103V132.364H606.274ZM603.221 130.534H604.708V137.758C604.708 138.046 604.751 138.263 604.837 138.409C604.923 138.552 605.034 138.649 605.17 138.702C605.309 138.752 605.46 138.777 605.623 138.777C605.742 138.777 605.846 138.769 605.936 138.752C606.025 138.736 606.095 138.722 606.145 138.712L606.413 139.94C606.327 139.973 606.204 140.007 606.045 140.04C605.886 140.076 605.687 140.096 605.449 140.099C605.057 140.106 604.693 140.036 604.355 139.891C604.017 139.745 603.743 139.519 603.535 139.214C603.326 138.91 603.221 138.527 603.221 138.066V130.534ZM611.127 140.154C610.375 140.154 609.727 139.993 609.184 139.672C608.643 139.347 608.226 138.891 607.931 138.305C607.639 137.715 607.493 137.024 607.493 136.232C607.493 135.449 607.639 134.76 607.931 134.163C608.226 133.567 608.637 133.101 609.164 132.766C609.694 132.432 610.314 132.264 611.023 132.264C611.454 132.264 611.871 132.335 612.276 132.478C612.68 132.621 613.043 132.844 613.365 133.149C613.686 133.454 613.94 133.85 614.125 134.337C614.311 134.821 614.404 135.41 614.404 136.102V136.629H608.333V135.516H612.947C612.947 135.125 612.867 134.778 612.708 134.477C612.549 134.172 612.326 133.931 612.037 133.756C611.752 133.58 611.417 133.492 611.033 133.492C610.615 133.492 610.251 133.595 609.939 133.8C609.631 134.003 609.392 134.268 609.223 134.596C609.058 134.921 608.975 135.274 608.975 135.655V136.525C608.975 137.035 609.064 137.469 609.243 137.827C609.425 138.185 609.679 138.459 610.004 138.648C610.329 138.833 610.708 138.926 611.142 138.926C611.424 138.926 611.681 138.886 611.913 138.807C612.145 138.724 612.345 138.601 612.514 138.439C612.684 138.277 612.813 138.076 612.902 137.837L614.309 138.091C614.197 138.505 613.994 138.868 613.703 139.18C613.414 139.488 613.051 139.728 612.614 139.901C612.18 140.07 611.684 140.154 611.127 140.154ZM616.053 142.864V132.364H617.505V133.602H617.629C617.715 133.442 617.839 133.259 618.002 133.05C618.164 132.841 618.39 132.659 618.678 132.503C618.966 132.344 619.348 132.264 619.821 132.264C620.438 132.264 620.988 132.42 621.472 132.732C621.956 133.043 622.335 133.492 622.611 134.079C622.889 134.665 623.028 135.371 623.028 136.197C623.028 137.022 622.891 137.73 622.616 138.32C622.34 138.906 621.963 139.359 621.482 139.677C621.001 139.992 620.453 140.149 619.836 140.149C619.372 140.149 618.993 140.071 618.698 139.915C618.406 139.76 618.178 139.577 618.012 139.369C617.846 139.16 617.718 138.974 617.629 138.812H617.54V142.864H616.053ZM617.51 136.182C617.51 136.719 617.588 137.189 617.743 137.594C617.899 137.998 618.124 138.315 618.419 138.543C618.714 138.769 619.076 138.881 619.503 138.881C619.947 138.881 620.319 138.764 620.617 138.528C620.915 138.29 621.141 137.967 621.293 137.559C621.449 137.151 621.527 136.692 621.527 136.182C621.527 135.678 621.45 135.226 621.298 134.825C621.149 134.424 620.924 134.107 620.622 133.875C620.324 133.643 619.951 133.527 619.503 133.527C619.072 133.527 618.708 133.638 618.41 133.86C618.115 134.082 617.891 134.392 617.738 134.79C617.586 135.187 617.51 135.652 617.51 136.182ZM629.885 129.818V140H628.399V129.818H629.885ZM634.107 140.169C633.623 140.169 633.186 140.08 632.795 139.901C632.404 139.718 632.094 139.455 631.865 139.11C631.64 138.765 631.527 138.343 631.527 137.842C631.527 137.411 631.61 137.057 631.776 136.778C631.941 136.5 632.165 136.28 632.447 136.117C632.729 135.955 633.043 135.832 633.391 135.749C633.739 135.666 634.094 135.603 634.455 135.56C634.913 135.507 635.284 135.464 635.569 135.431C635.854 135.395 636.061 135.337 636.19 135.257C636.32 135.178 636.384 135.048 636.384 134.869V134.835C636.384 134.4 636.262 134.064 636.016 133.825C635.774 133.587 635.413 133.467 634.933 133.467C634.432 133.467 634.038 133.578 633.749 133.8C633.464 134.019 633.267 134.263 633.158 134.531L631.761 134.213C631.926 133.749 632.168 133.375 632.487 133.089C632.808 132.801 633.178 132.592 633.595 132.463C634.013 132.33 634.452 132.264 634.913 132.264C635.218 132.264 635.541 132.301 635.882 132.374C636.227 132.443 636.548 132.572 636.847 132.761C637.148 132.95 637.395 133.22 637.587 133.572C637.78 133.92 637.876 134.372 637.876 134.929V140H636.424V138.956H636.364C636.268 139.148 636.124 139.337 635.932 139.523C635.74 139.708 635.493 139.862 635.191 139.985C634.89 140.108 634.528 140.169 634.107 140.169ZM634.43 138.976C634.841 138.976 635.193 138.895 635.484 138.732C635.779 138.57 636.003 138.358 636.156 138.096C636.311 137.831 636.389 137.547 636.389 137.246V136.261C636.336 136.314 636.234 136.364 636.081 136.411C635.932 136.454 635.761 136.492 635.569 136.525C635.377 136.555 635.189 136.583 635.007 136.609C634.825 136.633 634.672 136.652 634.55 136.669C634.261 136.705 633.998 136.767 633.759 136.853C633.524 136.939 633.335 137.063 633.193 137.226C633.053 137.385 632.984 137.597 632.984 137.862C632.984 138.23 633.12 138.509 633.391 138.697C633.663 138.883 634.01 138.976 634.43 138.976ZM639.975 140V129.818H641.462V133.602H641.551C641.637 133.442 641.762 133.259 641.924 133.05C642.086 132.841 642.312 132.659 642.6 132.503C642.888 132.344 643.27 132.264 643.744 132.264C644.36 132.264 644.91 132.42 645.394 132.732C645.878 133.043 646.257 133.492 646.533 134.079C646.811 134.665 646.95 135.371 646.95 136.197C646.95 137.022 646.813 137.73 646.538 138.32C646.262 138.906 645.885 139.359 645.404 139.677C644.923 139.992 644.375 140.149 643.758 140.149C643.294 140.149 642.915 140.071 642.62 139.915C642.328 139.76 642.1 139.577 641.934 139.369C641.768 139.16 641.641 138.974 641.551 138.812H641.427V140H639.975ZM641.432 136.182C641.432 136.719 641.51 137.189 641.665 137.594C641.821 137.998 642.047 138.315 642.342 138.543C642.637 138.769 642.998 138.881 643.425 138.881C643.869 138.881 644.241 138.764 644.539 138.528C644.837 138.29 645.063 137.967 645.215 137.559C645.371 137.151 645.449 136.692 645.449 136.182C645.449 135.678 645.373 135.226 645.22 134.825C645.071 134.424 644.846 134.107 644.544 133.875C644.246 133.643 643.873 133.527 643.425 133.527C642.994 133.527 642.63 133.638 642.332 133.86C642.037 134.082 641.813 134.392 641.66 134.79C641.508 135.187 641.432 135.652 641.432 136.182ZM651.911 140.154C651.158 140.154 650.51 139.993 649.967 139.672C649.426 139.347 649.009 138.891 648.714 138.305C648.422 137.715 648.276 137.024 648.276 136.232C648.276 135.449 648.422 134.76 648.714 134.163C649.009 133.567 649.42 133.101 649.947 132.766C650.477 132.432 651.097 132.264 651.806 132.264C652.237 132.264 652.655 132.335 653.059 132.478C653.463 132.621 653.826 132.844 654.148 133.149C654.469 133.454 654.723 133.85 654.908 134.337C655.094 134.821 655.187 135.41 655.187 136.102V136.629H649.117V135.516H653.73C653.73 135.125 653.651 134.778 653.492 134.477C653.332 134.172 653.109 133.931 652.82 133.756C652.535 133.58 652.201 133.492 651.816 133.492C651.399 133.492 651.034 133.595 650.722 133.8C650.414 134.003 650.176 134.268 650.006 134.596C649.841 134.921 649.758 135.274 649.758 135.655V136.525C649.758 137.035 649.847 137.469 650.026 137.827C650.209 138.185 650.462 138.459 650.787 138.648C651.112 138.833 651.491 138.926 651.926 138.926C652.207 138.926 652.464 138.886 652.696 138.807C652.928 138.724 653.129 138.601 653.298 138.439C653.467 138.277 653.596 138.076 653.685 137.837L655.092 138.091C654.98 138.505 654.778 138.868 654.486 139.18C654.198 139.488 653.835 139.728 653.397 139.901C652.963 140.07 652.467 140.154 651.911 140.154ZM658.323 129.818V140H656.836V129.818H658.323ZM664.822 135.053V136.341H660.308V135.053H664.822ZM669.025 140.169C668.541 140.169 668.104 140.08 667.713 139.901C667.322 139.718 667.012 139.455 666.783 139.11C666.558 138.765 666.445 138.343 666.445 137.842C666.445 137.411 666.528 137.057 666.694 136.778C666.859 136.5 667.083 136.28 667.365 136.117C667.647 135.955 667.961 135.832 668.309 135.749C668.657 135.666 669.012 135.603 669.373 135.56C669.831 135.507 670.202 135.464 670.487 135.431C670.772 135.395 670.979 135.337 671.108 135.257C671.238 135.178 671.302 135.048 671.302 134.869V134.835C671.302 134.4 671.18 134.064 670.934 133.825C670.692 133.587 670.331 133.467 669.851 133.467C669.35 133.467 668.956 133.578 668.667 133.8C668.382 134.019 668.185 134.263 668.076 134.531L666.679 134.213C666.844 133.749 667.086 133.375 667.405 133.089C667.726 132.801 668.096 132.592 668.513 132.463C668.931 132.33 669.37 132.264 669.831 132.264C670.136 132.264 670.459 132.301 670.8 132.374C671.145 132.443 671.466 132.572 671.765 132.761C672.066 132.95 672.313 133.22 672.505 133.572C672.698 133.92 672.794 134.372 672.794 134.929V140H671.342V138.956H671.282C671.186 139.148 671.042 139.337 670.85 139.523C670.658 139.708 670.411 139.862 670.109 139.985C669.807 140.108 669.446 140.169 669.025 140.169ZM669.348 138.976C669.759 138.976 670.111 138.895 670.402 138.732C670.697 138.57 670.921 138.358 671.074 138.096C671.229 137.831 671.307 137.547 671.307 137.246V136.261C671.254 136.314 671.151 136.364 670.999 136.411C670.85 136.454 670.679 136.492 670.487 136.525C670.295 136.555 670.107 136.583 669.925 136.609C669.743 136.633 669.59 136.652 669.468 136.669C669.179 136.705 668.916 136.767 668.677 136.853C668.442 136.939 668.253 137.063 668.111 137.226C667.971 137.385 667.902 137.597 667.902 137.862C667.902 138.23 668.038 138.509 668.309 138.697C668.581 138.883 668.928 138.976 669.348 138.976ZM677.99 140.154C677.251 140.154 676.615 139.987 676.081 139.652C675.551 139.314 675.143 138.848 674.858 138.255C674.573 137.662 674.431 136.982 674.431 136.217C674.431 135.441 674.576 134.757 674.868 134.163C675.16 133.567 675.571 133.101 676.101 132.766C676.631 132.432 677.256 132.264 677.975 132.264C678.555 132.264 679.072 132.372 679.527 132.587C679.981 132.799 680.347 133.098 680.625 133.482C680.907 133.867 681.074 134.316 681.127 134.83H679.681C679.601 134.472 679.419 134.163 679.134 133.905C678.852 133.646 678.474 133.517 678 133.517C677.586 133.517 677.223 133.626 676.911 133.845C676.603 134.061 676.363 134.369 676.191 134.77C676.018 135.168 675.932 135.638 675.932 136.182C675.932 136.739 676.017 137.219 676.186 137.624C676.355 138.028 676.593 138.341 676.902 138.563C677.213 138.785 677.579 138.896 678 138.896C678.282 138.896 678.537 138.845 678.766 138.742C678.998 138.636 679.192 138.485 679.348 138.29C679.507 138.094 679.618 137.859 679.681 137.584H681.127C681.074 138.078 680.914 138.518 680.645 138.906C680.377 139.294 680.017 139.599 679.566 139.821C679.119 140.043 678.594 140.154 677.99 140.154ZM686.282 132.364V133.557H682.111V132.364H686.282ZM683.229 130.534H684.716V137.758C684.716 138.046 684.759 138.263 684.845 138.409C684.931 138.552 685.042 138.649 685.178 138.702C685.317 138.752 685.468 138.777 685.63 138.777C685.75 138.777 685.854 138.769 685.944 138.752C686.033 138.736 686.103 138.722 686.152 138.712L686.421 139.94C686.335 139.973 686.212 140.007 686.053 140.04C685.894 140.076 685.695 140.096 685.456 140.099C685.065 140.106 684.701 140.036 684.363 139.891C684.025 139.745 683.751 139.519 683.542 139.214C683.334 138.91 683.229 138.527 683.229 138.066V130.534ZM687.926 140V132.364H689.413V140H687.926ZM688.677 131.185C688.418 131.185 688.196 131.099 688.011 130.927C687.828 130.751 687.737 130.542 687.737 130.3C687.737 130.055 687.828 129.846 688.011 129.674C688.196 129.498 688.418 129.411 688.677 129.411C688.935 129.411 689.156 129.498 689.338 129.674C689.524 129.846 689.616 130.055 689.616 130.3C689.616 130.542 689.524 130.751 689.338 130.927C689.156 131.099 688.935 131.185 688.677 131.185ZM697.945 132.364L695.176 140H693.585L690.811 132.364H692.407L694.341 138.24H694.42L696.349 132.364H697.945ZM702.373 140.154C701.621 140.154 700.973 139.993 700.43 139.672C699.889 139.347 699.472 138.891 699.177 138.305C698.885 137.715 698.739 137.024 698.739 136.232C698.739 135.449 698.885 134.76 699.177 134.163C699.472 133.567 699.883 133.101 700.41 132.766C700.94 132.432 701.56 132.264 702.269 132.264C702.7 132.264 703.118 132.335 703.522 132.478C703.926 132.621 704.289 132.844 704.611 133.149C704.932 133.454 705.186 133.85 705.371 134.337C705.557 134.821 705.65 135.41 705.65 136.102V136.629H699.579V135.516H704.193C704.193 135.125 704.114 134.778 703.954 134.477C703.795 134.172 703.572 133.931 703.283 133.756C702.998 133.58 702.664 133.492 702.279 133.492C701.861 133.492 701.497 133.595 701.185 133.8C700.877 134.003 700.638 134.268 700.469 134.596C700.304 134.921 700.221 135.274 700.221 135.655V136.525C700.221 137.035 700.31 137.469 700.489 137.827C700.672 138.185 700.925 138.459 701.25 138.648C701.575 138.833 701.954 138.926 702.388 138.926C702.67 138.926 702.927 138.886 703.159 138.807C703.391 138.724 703.592 138.601 703.761 138.439C703.93 138.277 704.059 138.076 704.148 137.837L705.555 138.091C705.443 138.505 705.24 138.868 704.949 139.18C704.66 139.488 704.297 139.728 703.86 139.901C703.426 140.07 702.93 140.154 702.373 140.154Z" fill="white" fill-opacity="0.95"/>
</g>
<rect x="483.5" y="107" width="150" height="2" fill="#3492EB"/>
<path fill-rule="evenodd" clip-rule="evenodd" d="M467.5 116C471.918 116 475.5 112.418 475.5 108C475.5 103.582 471.918 100 467.5 100C463.082 100 459.5 103.582 459.5 108C459.5 112.418 463.082 116 467.5 116Z" fill="#3492EB"/>
<g clip-path="url(#clip1_2031_6477)">
<path d="M435.705 139H434.123L433.129 136.452H428.327L427.319 139H425.821L429.965 128.92H431.575L435.705 139ZM430.749 130.348L428.789 135.29H432.667L430.749 130.348ZM440.942 137.026C440.942 136.615 440.727 136.307 440.298 136.102C440.046 135.99 439.556 135.85 438.828 135.682C437.932 135.486 437.293 135.201 436.91 134.828C436.593 134.511 436.434 134.095 436.434 133.582C436.434 132.901 436.709 132.378 437.26 132.014C437.755 131.678 438.422 131.51 439.262 131.51C440.13 131.51 440.835 131.725 441.376 132.154C441.843 132.527 442.132 133.022 442.244 133.638H440.872C440.713 132.929 440.172 132.574 439.248 132.574C438.735 132.574 438.352 132.667 438.1 132.854C437.895 133.013 437.792 133.213 437.792 133.456C437.792 133.755 437.904 133.979 438.128 134.128C438.361 134.277 438.814 134.427 439.486 134.576C440.513 134.8 441.227 135.075 441.628 135.402C442.076 135.766 442.3 136.275 442.3 136.928C442.3 137.656 442.001 138.23 441.404 138.65C440.863 139.023 440.149 139.21 439.262 139.21C438.291 139.21 437.521 138.977 436.952 138.51C436.457 138.099 436.182 137.567 436.126 136.914H437.498C437.647 137.735 438.24 138.146 439.276 138.146C439.836 138.146 440.27 138.025 440.578 137.782C440.821 137.586 440.942 137.334 440.942 137.026ZM447.997 137.026C447.997 136.615 447.782 136.307 447.353 136.102C447.101 135.99 446.611 135.85 445.883 135.682C444.987 135.486 444.347 135.201 443.965 134.828C443.647 134.511 443.489 134.095 443.489 133.582C443.489 132.901 443.764 132.378 444.315 132.014C444.809 131.678 445.477 131.51 446.317 131.51C447.185 131.51 447.889 131.725 448.431 132.154C448.897 132.527 449.187 133.022 449.299 133.638H447.927C447.768 132.929 447.227 132.574 446.303 132.574C445.789 132.574 445.407 132.667 445.155 132.854C444.949 133.013 444.847 133.213 444.847 133.456C444.847 133.755 444.959 133.979 445.183 134.128C445.416 134.277 445.869 134.427 446.541 134.576C447.567 134.8 448.281 135.075 448.683 135.402C449.131 135.766 449.355 136.275 449.355 136.928C449.355 137.656 449.056 138.23 448.459 138.65C447.917 139.023 447.203 139.21 446.317 139.21C445.346 139.21 444.576 138.977 444.007 138.51C443.512 138.099 443.237 137.567 443.181 136.914H444.553C444.702 137.735 445.295 138.146 446.331 138.146C446.891 138.146 447.325 138.025 447.633 137.782C447.875 137.586 447.997 137.334 447.997 137.026ZM452.319 130.502H450.807V128.92H452.319V130.502ZM452.235 139H450.891V131.72H452.235V139ZM454.116 139.49H455.558C455.623 139.863 455.81 140.153 456.118 140.358C456.435 140.563 456.85 140.666 457.364 140.666C458.082 140.666 458.619 140.479 458.974 140.106C459.272 139.789 459.422 139.345 459.422 138.776V137.838C458.88 138.473 458.073 138.79 457 138.79C456.029 138.79 455.24 138.44 454.634 137.74C454.064 137.087 453.78 136.237 453.78 135.192C453.78 133.979 454.125 133.041 454.816 132.378C455.404 131.799 456.16 131.51 457.084 131.51C458.129 131.51 458.918 131.902 459.45 132.686L459.66 131.72H460.766V138.846C460.766 139.761 460.434 140.479 459.772 141.002C459.174 141.487 458.386 141.73 457.406 141.73C456.388 141.73 455.59 141.501 455.012 141.044C454.526 140.661 454.228 140.143 454.116 139.49ZM455.18 135.22C455.18 136.013 455.413 136.634 455.88 137.082C456.262 137.455 456.734 137.642 457.294 137.642C458.031 137.642 458.596 137.399 458.988 136.914C459.324 136.503 459.492 135.953 459.492 135.262C459.492 134.375 459.263 133.699 458.806 133.232C458.423 132.849 457.919 132.658 457.294 132.658C456.603 132.658 456.071 132.896 455.698 133.372C455.352 133.82 455.18 134.436 455.18 135.22ZM464.075 139H462.731V131.72H463.837L463.991 132.644C464.532 131.888 465.27 131.51 466.203 131.51C467.062 131.51 467.72 131.776 468.177 132.308C468.578 132.784 468.779 133.433 468.779 134.254V139H467.435V134.268C467.435 133.195 466.917 132.658 465.881 132.658C465.34 132.658 464.896 132.845 464.551 133.218C464.234 133.554 464.075 133.983 464.075 134.506V139ZM474.802 131.72H476.146V136.494C476.146 137.539 476.65 138.062 477.658 138.062C478.274 138.062 478.745 137.843 479.072 137.404C479.324 137.068 479.45 136.653 479.45 136.158V131.72H480.794V139H479.688L479.534 138.16C479.02 138.86 478.292 139.21 477.35 139.21C476.519 139.21 475.88 138.953 475.432 138.44C475.012 137.964 474.802 137.306 474.802 136.466V131.72ZM487.016 137.026C487.016 136.615 486.802 136.307 486.372 136.102C486.12 135.99 485.63 135.85 484.902 135.682C484.006 135.486 483.367 135.201 482.984 134.828C482.667 134.511 482.508 134.095 482.508 133.582C482.508 132.901 482.784 132.378 483.334 132.014C483.829 131.678 484.496 131.51 485.336 131.51C486.204 131.51 486.909 131.725 487.45 132.154C487.917 132.527 488.206 133.022 488.318 133.638H486.946C486.788 132.929 486.246 132.574 485.322 132.574C484.809 132.574 484.426 132.667 484.174 132.854C483.969 133.013 483.866 133.213 483.866 133.456C483.866 133.755 483.978 133.979 484.202 134.128C484.436 134.277 484.888 134.427 485.56 134.576C486.587 134.8 487.301 135.075 487.702 135.402C488.15 135.766 488.374 136.275 488.374 136.928C488.374 137.656 488.076 138.23 487.478 138.65C486.937 139.023 486.223 139.21 485.336 139.21C484.366 139.21 483.596 138.977 483.026 138.51C482.532 138.099 482.256 137.567 482.2 136.914H483.572C483.722 137.735 484.314 138.146 485.35 138.146C485.91 138.146 486.344 138.025 486.652 137.782C486.895 137.586 487.016 137.334 487.016 137.026ZM494.867 136.9H496.323C496.117 137.637 495.711 138.216 495.105 138.636C494.535 139.019 493.854 139.21 493.061 139.21C491.913 139.21 491.017 138.846 490.373 138.118C489.785 137.437 489.491 136.517 489.491 135.36C489.491 134.044 489.864 133.045 490.611 132.364C491.227 131.795 492.02 131.51 492.991 131.51C494.129 131.51 494.988 131.879 495.567 132.616C496.127 133.325 496.407 134.338 496.407 135.654H490.863C490.919 136.513 491.18 137.152 491.647 137.572C492.029 137.908 492.515 138.076 493.103 138.076C493.56 138.076 493.957 137.95 494.293 137.698C494.573 137.483 494.764 137.217 494.867 136.9ZM493.019 132.588C492.421 132.588 491.941 132.775 491.577 133.148C491.231 133.493 491.012 133.974 490.919 134.59H495.035C494.988 133.89 494.755 133.367 494.335 133.022C493.999 132.733 493.56 132.588 493.019 132.588ZM499.362 139H498.018V131.72H499.124L499.306 132.798C499.717 131.939 500.333 131.51 501.154 131.51C501.425 131.51 501.691 131.543 501.952 131.608V132.952C501.635 132.868 501.35 132.826 501.098 132.826C500.557 132.826 500.132 133.045 499.824 133.484C499.516 133.923 499.362 134.543 499.362 135.346V139ZM507.264 137.026C507.264 136.615 507.05 136.307 506.62 136.102C506.368 135.99 505.878 135.85 505.15 135.682C504.254 135.486 503.615 135.201 503.232 134.828C502.915 134.511 502.756 134.095 502.756 133.582C502.756 132.901 503.032 132.378 503.582 132.014C504.077 131.678 504.744 131.51 505.584 131.51C506.452 131.51 507.157 131.725 507.698 132.154C508.165 132.527 508.454 133.022 508.566 133.638H507.194C507.036 132.929 506.494 132.574 505.57 132.574C505.057 132.574 504.674 132.667 504.422 132.854C504.217 133.013 504.114 133.213 504.114 133.456C504.114 133.755 504.226 133.979 504.45 134.128C504.684 134.277 505.136 134.427 505.808 134.576C506.835 134.8 507.549 135.075 507.95 135.402C508.398 135.766 508.622 136.275 508.622 136.928C508.622 137.656 508.324 138.23 507.726 138.65C507.185 139.023 506.471 139.21 505.584 139.21C504.614 139.21 503.844 138.977 503.274 138.51C502.78 138.099 502.504 137.567 502.448 136.914H503.82C503.97 137.735 504.562 138.146 505.598 138.146C506.158 138.146 506.592 138.025 506.9 137.782C507.143 137.586 507.264 137.334 507.264 137.026Z" fill="white" fill-opacity="0.95"/>
</g>
<defs>
<clipPath id="clip0_2031_6477">
<rect width="114" height="21" fill="white" transform="translate(592.5 124)"/>
</clipPath>
<clipPath id="clip1_2031_6477">
<rect width="160" height="21" fill="white" transform="translate(387.5 124)"/>
</clipPath>
</defs>
</svg>
