<svg width="555" height="263" viewBox="0 0 555 263" fill="none" xmlns="http://www.w3.org/2000/svg">
<path d="M0 24C0 10.7452 10.7452 0 24 0H531C544.255 0 555 10.7452 555 24V239C555 252.255 544.255 263 531 263H24C10.7452 263 0 252.255 0 239V24Z" fill="#262626"/>
<path d="M515 25.9997C512.232 25.9997 509.525 26.8208 507.223 28.3591C504.92 29.8975 503.126 32.084 502.066 34.6421C501.007 37.2003 500.729 40.0152 501.27 42.731C501.81 45.4467 503.143 47.9412 505.101 49.8992C507.059 51.8571 509.553 53.1905 512.269 53.7307C514.985 54.2709 517.8 53.9936 520.358 52.934C522.916 51.8744 525.103 50.08 526.641 47.7777C528.179 45.4754 529 42.7686 529 39.9997C528.996 36.2879 527.52 32.7294 524.895 30.1048C522.271 27.4802 518.712 26.0039 515 25.9997ZM524.155 47.7404L507.26 30.8449C509.555 28.8985 512.498 27.8864 515.505 28.0097C518.511 28.1331 521.362 29.3828 523.49 31.5106C525.617 33.6385 526.867 36.4889 526.99 39.4956C527.114 42.5023 526.102 45.4454 524.155 47.7404ZM505.846 32.259L522.741 49.1545C520.446 51.1009 517.503 52.1129 514.496 51.9896C511.49 51.8662 508.639 50.6165 506.512 48.4887C504.384 46.3608 503.134 43.5105 503.011 40.5038C502.887 37.4971 503.899 34.554 505.846 32.259Z" fill="#FC8B98"/>
<path d="M466 114.5C466 118.366 462.866 121.5 459 121.5C455.134 121.5 452 118.366 452 114.5C452 110.634 455.134 107.5 459 107.5C462.866 107.5 466 110.634 466 114.5Z" stroke="#3492EB" stroke-width="2"/>
<g clip-path="url(#clip0_2031_6197)">
<path d="M442.919 135.42H446.195C447.847 135.42 449.102 135.887 449.961 136.82C450.754 137.679 451.151 138.892 451.151 140.46C451.151 142.159 450.619 143.461 449.555 144.366C448.659 145.122 447.506 145.5 446.097 145.5H442.919V135.42ZM446.209 136.554H444.347V144.324H446.237C447.432 144.324 448.323 143.951 448.911 143.204C449.443 142.551 449.709 141.636 449.709 140.46C449.709 139.079 449.354 138.057 448.645 137.394C448.048 136.834 447.236 136.554 446.209 136.554ZM452.341 141.86C452.341 140.525 452.738 139.517 453.531 138.836C454.166 138.285 454.969 138.01 455.939 138.01C457.069 138.01 457.955 138.369 458.599 139.088C459.215 139.76 459.523 140.684 459.523 141.86C459.523 143.176 459.136 144.179 458.361 144.87C457.727 145.43 456.915 145.71 455.925 145.71C454.796 145.71 453.905 145.337 453.251 144.59C452.645 143.909 452.341 142.999 452.341 141.86ZM453.741 141.86C453.741 142.793 453.979 143.507 454.455 144.002C454.847 144.413 455.347 144.618 455.953 144.618C456.663 144.618 457.209 144.352 457.591 143.82C457.946 143.335 458.123 142.681 458.123 141.86C458.123 140.908 457.89 140.189 457.423 139.704C457.041 139.303 456.546 139.102 455.939 139.102C455.239 139.102 454.693 139.368 454.301 139.9C453.928 140.385 453.741 141.039 453.741 141.86ZM462.404 145.5H461.06V138.22H462.166L462.32 139.144C462.861 138.388 463.599 138.01 464.532 138.01C465.391 138.01 466.049 138.276 466.506 138.808C466.907 139.284 467.108 139.933 467.108 140.754V145.5H465.764V140.768C465.764 139.695 465.246 139.158 464.21 139.158C463.669 139.158 463.225 139.345 462.88 139.718C462.563 140.054 462.404 140.483 462.404 141.006V145.5ZM473.959 143.4H475.415C475.21 144.137 474.804 144.716 474.197 145.136C473.628 145.519 472.947 145.71 472.153 145.71C471.005 145.71 470.109 145.346 469.465 144.618C468.877 143.937 468.583 143.017 468.583 141.86C468.583 140.544 468.957 139.545 469.703 138.864C470.319 138.295 471.113 138.01 472.083 138.01C473.222 138.01 474.081 138.379 474.659 139.116C475.219 139.825 475.499 140.838 475.499 142.154H469.955C470.011 143.013 470.273 143.652 470.739 144.072C471.122 144.408 471.607 144.576 472.195 144.576C472.653 144.576 473.049 144.45 473.385 144.198C473.665 143.983 473.857 143.717 473.959 143.4ZM472.111 139.088C471.514 139.088 471.033 139.275 470.669 139.648C470.324 139.993 470.105 140.474 470.011 141.09H474.127C474.081 140.39 473.847 139.867 473.427 139.522C473.091 139.233 472.653 139.088 472.111 139.088Z" fill="white" fill-opacity="0.7"/>
</g>
<rect x="293" y="113.5" width="150" height="2" fill="white" fill-opacity="0.3"/>
<path d="M284 114.5C284 118.366 280.866 121.5 277 121.5C273.134 121.5 270 118.366 270 114.5C270 110.634 273.134 107.5 277 107.5C280.866 107.5 284 110.634 284 114.5Z" stroke="#64B4FA" stroke-width="2"/>
<path d="M237.392 145.5H235.81L234.816 142.952H230.014L229.006 145.5H227.508L231.652 135.42H233.262L237.392 145.5ZM232.436 136.848L230.476 141.79H234.354L232.436 136.848ZM242.629 143.526C242.629 143.115 242.414 142.807 241.985 142.602C241.733 142.49 241.243 142.35 240.515 142.182C239.619 141.986 238.979 141.701 238.597 141.328C238.279 141.011 238.121 140.595 238.121 140.082C238.121 139.401 238.396 138.878 238.947 138.514C239.441 138.178 240.109 138.01 240.949 138.01C241.817 138.01 242.521 138.225 243.063 138.654C243.529 139.027 243.819 139.522 243.931 140.138H242.559C242.4 139.429 241.859 139.074 240.935 139.074C240.421 139.074 240.039 139.167 239.787 139.354C239.581 139.513 239.479 139.713 239.479 139.956C239.479 140.255 239.591 140.479 239.815 140.628C240.048 140.777 240.501 140.927 241.173 141.076C242.199 141.3 242.913 141.575 243.315 141.902C243.763 142.266 243.987 142.775 243.987 143.428C243.987 144.156 243.688 144.73 243.091 145.15C242.549 145.523 241.835 145.71 240.949 145.71C239.978 145.71 239.208 145.477 238.639 145.01C238.144 144.599 237.869 144.067 237.813 143.414H239.185C239.334 144.235 239.927 144.646 240.963 144.646C241.523 144.646 241.957 144.525 242.265 144.282C242.507 144.086 242.629 143.834 242.629 143.526ZM249.683 143.526C249.683 143.115 249.469 142.807 249.039 142.602C248.787 142.49 248.297 142.35 247.569 142.182C246.673 141.986 246.034 141.701 245.651 141.328C245.334 141.011 245.175 140.595 245.175 140.082C245.175 139.401 245.451 138.878 246.001 138.514C246.496 138.178 247.163 138.01 248.003 138.01C248.871 138.01 249.576 138.225 250.117 138.654C250.584 139.027 250.873 139.522 250.985 140.138H249.613C249.455 139.429 248.913 139.074 247.989 139.074C247.476 139.074 247.093 139.167 246.841 139.354C246.636 139.513 246.533 139.713 246.533 139.956C246.533 140.255 246.645 140.479 246.869 140.628C247.103 140.777 247.555 140.927 248.227 141.076C249.254 141.3 249.968 141.575 250.369 141.902C250.817 142.266 251.041 142.775 251.041 143.428C251.041 144.156 250.743 144.73 250.145 145.15C249.604 145.523 248.89 145.71 248.003 145.71C247.033 145.71 246.263 145.477 245.693 145.01C245.199 144.599 244.923 144.067 244.867 143.414H246.239C246.389 144.235 246.981 144.646 248.017 144.646C248.577 144.646 249.011 144.525 249.319 144.282C249.562 144.086 249.683 143.834 249.683 143.526ZM254.006 137.002H252.494V135.42H254.006V137.002ZM253.922 145.5H252.578V138.22H253.922V145.5ZM255.802 145.99H257.244C257.31 146.363 257.496 146.653 257.804 146.858C258.122 147.063 258.537 147.166 259.05 147.166C259.769 147.166 260.306 146.979 260.66 146.606C260.959 146.289 261.108 145.845 261.108 145.276V144.338C260.567 144.973 259.76 145.29 258.686 145.29C257.716 145.29 256.927 144.94 256.32 144.24C255.751 143.587 255.466 142.737 255.466 141.692C255.466 140.479 255.812 139.541 256.502 138.878C257.09 138.299 257.846 138.01 258.77 138.01C259.816 138.01 260.604 138.402 261.136 139.186L261.346 138.22H262.452V145.346C262.452 146.261 262.121 146.979 261.458 147.502C260.861 147.987 260.072 148.23 259.092 148.23C258.075 148.23 257.277 148.001 256.698 147.544C256.213 147.161 255.914 146.643 255.802 145.99ZM256.866 141.72C256.866 142.513 257.1 143.134 257.566 143.582C257.949 143.955 258.42 144.142 258.98 144.142C259.718 144.142 260.282 143.899 260.674 143.414C261.01 143.003 261.178 142.453 261.178 141.762C261.178 140.875 260.95 140.199 260.492 139.732C260.11 139.349 259.606 139.158 258.98 139.158C258.29 139.158 257.758 139.396 257.384 139.872C257.039 140.32 256.866 140.936 256.866 141.72ZM265.762 145.5H264.418V138.22H265.524L265.678 139.144C266.219 138.388 266.956 138.01 267.89 138.01C268.748 138.01 269.406 138.276 269.864 138.808C270.265 139.284 270.466 139.933 270.466 140.754V145.5H269.122V140.768C269.122 139.695 268.604 139.158 267.568 139.158C267.026 139.158 266.583 139.345 266.238 139.718C265.92 140.054 265.762 140.483 265.762 141.006V145.5ZM280.856 144.506C281.724 144.506 282.438 144.231 282.998 143.68C283.483 143.204 283.745 142.625 283.782 141.944H285.224C285.187 142.607 284.981 143.223 284.608 143.792C284.225 144.371 283.717 144.828 283.082 145.164C282.401 145.528 281.649 145.71 280.828 145.71C279.307 145.71 278.131 145.192 277.3 144.156C276.572 143.241 276.208 142.009 276.208 140.46C276.208 138.687 276.707 137.329 277.706 136.386C278.537 135.602 279.615 135.21 280.94 135.21C282.2 135.21 283.245 135.597 284.076 136.372C284.767 137.007 285.145 137.767 285.21 138.654H283.768C283.675 137.917 283.343 137.343 282.774 136.932C282.27 136.577 281.659 136.4 280.94 136.4C279.867 136.4 279.041 136.783 278.462 137.548C277.93 138.248 277.664 139.219 277.664 140.46C277.664 141.823 278 142.868 278.672 143.596C279.232 144.203 279.96 144.506 280.856 144.506ZM286.337 141.86C286.337 140.525 286.734 139.517 287.527 138.836C288.162 138.285 288.965 138.01 289.935 138.01C291.065 138.01 291.951 138.369 292.595 139.088C293.211 139.76 293.519 140.684 293.519 141.86C293.519 143.176 293.132 144.179 292.357 144.87C291.723 145.43 290.911 145.71 289.921 145.71C288.792 145.71 287.901 145.337 287.247 144.59C286.641 143.909 286.337 142.999 286.337 141.86ZM287.737 141.86C287.737 142.793 287.975 143.507 288.451 144.002C288.843 144.413 289.343 144.618 289.949 144.618C290.659 144.618 291.205 144.352 291.587 143.82C291.942 143.335 292.119 142.681 292.119 141.86C292.119 140.908 291.886 140.189 291.419 139.704C291.037 139.303 290.542 139.102 289.935 139.102C289.235 139.102 288.689 139.368 288.297 139.9C287.924 140.385 287.737 141.039 287.737 141.86ZM296.4 145.5H295.056V138.22H296.162L296.316 139.144C296.858 138.388 297.595 138.01 298.528 138.01C299.387 138.01 300.045 138.276 300.502 138.808C300.904 139.284 301.104 139.933 301.104 140.754V145.5H299.76V140.768C299.76 139.695 299.242 139.158 298.206 139.158C297.665 139.158 297.222 139.345 296.876 139.718C296.559 140.054 296.4 140.483 296.4 141.006V145.5ZM306.248 144.422V145.57C305.902 145.663 305.571 145.71 305.254 145.71C304.582 145.71 304.078 145.5 303.742 145.08C303.452 144.735 303.308 144.273 303.308 143.694V139.368H302.23V138.22H303.308L303.392 136.47H304.652V138.22H306.22V139.368H304.652V143.722C304.652 144.263 304.908 144.534 305.422 144.534C305.664 144.534 305.94 144.497 306.248 144.422ZM308.659 140.25H307.231C307.306 139.522 307.651 138.957 308.267 138.556C308.818 138.192 309.513 138.01 310.353 138.01C311.352 138.01 312.117 138.271 312.649 138.794C313.097 139.242 313.321 139.821 313.321 140.53V145.5H312.215L312.047 144.506C311.478 145.309 310.666 145.71 309.611 145.71C308.781 145.71 308.132 145.486 307.665 145.038C307.283 144.665 307.091 144.193 307.091 143.624C307.091 142.905 307.339 142.35 307.833 141.958C308.272 141.613 308.944 141.361 309.849 141.202L311.977 140.838V140.474C311.977 139.998 311.814 139.639 311.487 139.396C311.198 139.181 310.801 139.074 310.297 139.074C309.308 139.074 308.762 139.466 308.659 140.25ZM309.933 144.576C310.503 144.576 310.997 144.389 311.417 144.016C311.791 143.671 311.977 143.274 311.977 142.826V141.888L310.171 142.21C309.509 142.322 309.056 142.495 308.813 142.728C308.617 142.915 308.519 143.167 308.519 143.484C308.519 143.839 308.641 144.109 308.883 144.296C309.126 144.483 309.476 144.576 309.933 144.576ZM319.955 143.162H321.425C321.313 143.946 320.944 144.576 320.319 145.052C319.749 145.491 319.054 145.71 318.233 145.71C317.159 145.71 316.305 145.341 315.671 144.604C315.083 143.923 314.789 143.027 314.789 141.916C314.789 140.628 315.143 139.629 315.853 138.92C316.459 138.313 317.248 138.01 318.219 138.01C319.115 138.01 319.852 138.248 320.431 138.724C320.944 139.144 321.257 139.695 321.369 140.376H319.885C319.791 139.984 319.6 139.681 319.311 139.466C319.031 139.251 318.676 139.144 318.247 139.144C317.584 139.144 317.075 139.405 316.721 139.928C316.385 140.413 316.217 141.09 316.217 141.958C316.217 142.863 316.441 143.549 316.889 144.016C317.243 144.389 317.701 144.576 318.261 144.576C318.746 144.576 319.143 144.436 319.451 144.156C319.721 143.913 319.889 143.582 319.955 143.162ZM326.208 144.422V145.57C325.863 145.663 325.532 145.71 325.214 145.71C324.542 145.71 324.038 145.5 323.702 145.08C323.413 144.735 323.268 144.273 323.268 143.694V139.368H322.19V138.22H323.268L323.352 136.47H324.612V138.22H326.18V139.368H324.612V143.722C324.612 144.263 324.869 144.534 325.382 144.534C325.625 144.534 325.9 144.497 326.208 144.422ZM241.409 156.42H242.837V166.5H241.409V156.42ZM246.211 166.5H244.867V159.22H245.973L246.127 160.144C246.668 159.388 247.405 159.01 248.339 159.01C249.197 159.01 249.855 159.276 250.313 159.808C250.714 160.284 250.915 160.933 250.915 161.754V166.5H249.571V161.768C249.571 160.695 249.053 160.158 248.017 160.158C247.475 160.158 247.032 160.345 246.687 160.718C246.369 161.054 246.211 161.483 246.211 162.006V166.5ZM256.408 156.378V157.54C255.96 157.428 255.591 157.372 255.302 157.372C255.059 157.372 254.868 157.437 254.728 157.568C254.597 157.699 254.532 157.881 254.532 158.114V159.22H256.1V160.368H254.532V166.5H253.188V160.368H252.11V159.22H253.188V158.198C253.188 157.554 253.398 157.05 253.818 156.686C254.191 156.369 254.658 156.21 255.218 156.21C255.582 156.21 255.979 156.266 256.408 156.378ZM256.902 162.86C256.902 161.525 257.298 160.517 258.092 159.836C258.726 159.285 259.529 159.01 260.5 159.01C261.629 159.01 262.516 159.369 263.16 160.088C263.776 160.76 264.084 161.684 264.084 162.86C264.084 164.176 263.696 165.179 262.922 165.87C262.287 166.43 261.475 166.71 260.486 166.71C259.356 166.71 258.465 166.337 257.812 165.59C257.205 164.909 256.902 163.999 256.902 162.86ZM258.302 162.86C258.302 163.793 258.54 164.507 259.016 165.002C259.408 165.413 259.907 165.618 260.514 165.618C261.223 165.618 261.769 165.352 262.152 164.82C262.506 164.335 262.684 163.681 262.684 162.86C262.684 161.908 262.45 161.189 261.984 160.704C261.601 160.303 261.106 160.102 260.5 160.102C259.8 160.102 259.254 160.368 258.862 160.9C258.488 161.385 258.302 162.039 258.302 162.86ZM266.965 166.5H265.621V159.22H266.727L266.909 160.298C267.319 159.439 267.935 159.01 268.757 159.01C269.027 159.01 269.293 159.043 269.555 159.108V160.452C269.237 160.368 268.953 160.326 268.701 160.326C268.159 160.326 267.735 160.545 267.427 160.984C267.119 161.423 266.965 162.043 266.965 162.846V166.5ZM271.955 166.5H270.611V159.22H271.717L271.857 160.074C272.352 159.365 273.066 159.01 273.999 159.01C275.016 159.01 275.73 159.393 276.141 160.158C276.626 159.393 277.415 159.01 278.507 159.01C279.319 159.01 279.944 159.257 280.383 159.752C280.775 160.209 280.971 160.835 280.971 161.628V166.5H279.627V161.726C279.627 160.681 279.156 160.158 278.213 160.158C277.653 160.158 277.205 160.377 276.869 160.816C276.598 161.171 276.463 161.586 276.463 162.062V166.5H275.119V161.726C275.119 160.681 274.648 160.158 273.705 160.158C273.182 160.158 272.748 160.363 272.403 160.774C272.104 161.119 271.955 161.535 271.955 162.02V166.5ZM284.009 161.25H282.581C282.656 160.522 283.001 159.957 283.617 159.556C284.168 159.192 284.863 159.01 285.703 159.01C286.702 159.01 287.467 159.271 287.999 159.794C288.447 160.242 288.671 160.821 288.671 161.53V166.5H287.565L287.397 165.506C286.828 166.309 286.016 166.71 284.961 166.71C284.13 166.71 283.482 166.486 283.015 166.038C282.632 165.665 282.441 165.193 282.441 164.624C282.441 163.905 282.688 163.35 283.183 162.958C283.622 162.613 284.294 162.361 285.199 162.202L287.327 161.838V161.474C287.327 160.998 287.164 160.639 286.837 160.396C286.548 160.181 286.151 160.074 285.647 160.074C284.658 160.074 284.112 160.466 284.009 161.25ZM285.283 165.576C285.852 165.576 286.347 165.389 286.767 165.016C287.14 164.671 287.327 164.274 287.327 163.826V162.888L285.521 163.21C284.858 163.322 284.406 163.495 284.163 163.728C283.967 163.915 283.869 164.167 283.869 164.484C283.869 164.839 283.99 165.109 284.233 165.296C284.476 165.483 284.826 165.576 285.283 165.576ZM293.806 165.422V166.57C293.461 166.663 293.129 166.71 292.812 166.71C292.14 166.71 291.636 166.5 291.3 166.08C291.011 165.735 290.866 165.273 290.866 164.694V160.368H289.788V159.22H290.866L290.95 157.47H292.21V159.22H293.778V160.368H292.21V164.722C292.21 165.263 292.467 165.534 292.98 165.534C293.223 165.534 293.498 165.497 293.806 165.422ZM296.498 158.002H294.986V156.42H296.498V158.002ZM296.414 166.5H295.07V159.22H296.414V166.5ZM297.958 162.86C297.958 161.525 298.355 160.517 299.148 159.836C299.783 159.285 300.586 159.01 301.556 159.01C302.686 159.01 303.572 159.369 304.216 160.088C304.832 160.76 305.14 161.684 305.14 162.86C305.14 164.176 304.753 165.179 303.978 165.87C303.344 166.43 302.532 166.71 301.542 166.71C300.413 166.71 299.522 166.337 298.868 165.59C298.262 164.909 297.958 163.999 297.958 162.86ZM299.358 162.86C299.358 163.793 299.596 164.507 300.072 165.002C300.464 165.413 300.964 165.618 301.57 165.618C302.28 165.618 302.826 165.352 303.208 164.82C303.563 164.335 303.74 163.681 303.74 162.86C303.74 161.908 303.507 161.189 303.04 160.704C302.658 160.303 302.163 160.102 301.556 160.102C300.856 160.102 300.31 160.368 299.918 160.9C299.545 161.385 299.358 162.039 299.358 162.86ZM308.021 166.5H306.677V159.22H307.783L307.937 160.144C308.479 159.388 309.216 159.01 310.149 159.01C311.008 159.01 311.666 159.276 312.123 159.808C312.525 160.284 312.725 160.933 312.725 161.754V166.5H311.381V161.768C311.381 160.695 310.863 160.158 309.827 160.158C309.286 160.158 308.843 160.345 308.497 160.718C308.18 161.054 308.021 161.483 308.021 162.006V166.5Z" fill="white" fill-opacity="0.7"/>
<rect x="111" y="113.5" width="150" height="2" fill="white" fill-opacity="0.3"/>
<path d="M102 114.5C102 118.366 98.866 121.5 95 121.5C91.134 121.5 88 118.366 88 114.5C88 110.634 91.134 107.5 95 107.5C98.866 107.5 102 110.634 102 114.5Z" stroke="#3492EB" stroke-width="2"/>
<g clip-path="url(#clip1_2031_6197)">
<path d="M62.2004 145.5H60.6184L59.6244 142.952H54.8224L53.8144 145.5H52.3164L56.4604 135.42H58.0704L62.2004 145.5ZM57.2444 136.848L55.2844 141.79H59.1624L57.2444 136.848ZM67.4372 143.526C67.4372 143.115 67.2225 142.807 66.7932 142.602C66.5412 142.49 66.0512 142.35 65.3232 142.182C64.4272 141.986 63.7878 141.701 63.4052 141.328C63.0878 141.011 62.9292 140.595 62.9292 140.082C62.9292 139.401 63.2045 138.878 63.7552 138.514C64.2498 138.178 64.9172 138.01 65.7572 138.01C66.6252 138.01 67.3298 138.225 67.8712 138.654C68.3378 139.027 68.6272 139.522 68.7392 140.138H67.3672C67.2085 139.429 66.6672 139.074 65.7432 139.074C65.2298 139.074 64.8472 139.167 64.5952 139.354C64.3898 139.513 64.2872 139.713 64.2872 139.956C64.2872 140.255 64.3992 140.479 64.6232 140.628C64.8565 140.777 65.3092 140.927 65.9812 141.076C67.0078 141.3 67.7218 141.575 68.1232 141.902C68.5712 142.266 68.7952 142.775 68.7952 143.428C68.7952 144.156 68.4965 144.73 67.8992 145.15C67.3578 145.523 66.6438 145.71 65.7572 145.71C64.7865 145.71 64.0165 145.477 63.4472 145.01C62.9525 144.599 62.6772 144.067 62.6212 143.414H63.9932C64.1425 144.235 64.7352 144.646 65.7712 144.646C66.3312 144.646 66.7652 144.525 67.0732 144.282C67.3158 144.086 67.4372 143.834 67.4372 143.526ZM74.4919 143.526C74.4919 143.115 74.2772 142.807 73.8479 142.602C73.5959 142.49 73.1059 142.35 72.3779 142.182C71.4819 141.986 70.8425 141.701 70.4599 141.328C70.1425 141.011 69.9839 140.595 69.9839 140.082C69.9839 139.401 70.2592 138.878 70.8099 138.514C71.3045 138.178 71.9719 138.01 72.8119 138.01C73.6799 138.01 74.3845 138.225 74.9259 138.654C75.3925 139.027 75.6819 139.522 75.7939 140.138H74.4219C74.2632 139.429 73.7219 139.074 72.7979 139.074C72.2845 139.074 71.9019 139.167 71.6499 139.354C71.4445 139.513 71.3419 139.713 71.3419 139.956C71.3419 140.255 71.4539 140.479 71.6779 140.628C71.9112 140.777 72.3639 140.927 73.0359 141.076C74.0625 141.3 74.7765 141.575 75.1779 141.902C75.6259 142.266 75.8499 142.775 75.8499 143.428C75.8499 144.156 75.5512 144.73 74.9539 145.15C74.4125 145.523 73.6985 145.71 72.8119 145.71C71.8412 145.71 71.0712 145.477 70.5019 145.01C70.0072 144.599 69.7319 144.067 69.6759 143.414H71.0479C71.1972 144.235 71.7899 144.646 72.8259 144.646C73.3859 144.646 73.8199 144.525 74.1279 144.282C74.3705 144.086 74.4919 143.834 74.4919 143.526ZM78.8143 137.002H77.3023V135.42H78.8143V137.002ZM78.7303 145.5H77.3863V138.22H78.7303V145.5ZM80.6108 145.99H82.0528C82.1182 146.363 82.3048 146.653 82.6128 146.858C82.9302 147.063 83.3455 147.166 83.8588 147.166C84.5775 147.166 85.1142 146.979 85.4688 146.606C85.7675 146.289 85.9168 145.845 85.9168 145.276V144.338C85.3755 144.973 84.5682 145.29 83.4948 145.29C82.5242 145.29 81.7355 144.94 81.1288 144.24C80.5595 143.587 80.2748 142.737 80.2748 141.692C80.2748 140.479 80.6202 139.541 81.3108 138.878C81.8988 138.299 82.6548 138.01 83.5788 138.01C84.6242 138.01 85.4128 138.402 85.9448 139.186L86.1548 138.22H87.2608V145.346C87.2608 146.261 86.9295 146.979 86.2668 147.502C85.6695 147.987 84.8808 148.23 83.9008 148.23C82.8835 148.23 82.0855 148.001 81.5068 147.544C81.0215 147.161 80.7228 146.643 80.6108 145.99ZM81.6748 141.72C81.6748 142.513 81.9082 143.134 82.3748 143.582C82.7575 143.955 83.2288 144.142 83.7888 144.142C84.5262 144.142 85.0908 143.899 85.4828 143.414C85.8188 143.003 85.9868 142.453 85.9868 141.762C85.9868 140.875 85.7582 140.199 85.3008 139.732C84.9182 139.349 84.4142 139.158 83.7888 139.158C83.0982 139.158 82.5662 139.396 82.1928 139.872C81.8475 140.32 81.6748 140.936 81.6748 141.72ZM90.5701 145.5H89.2261V138.22H90.3321L90.4861 139.144C91.0274 138.388 91.7648 138.01 92.6981 138.01C93.5568 138.01 94.2148 138.276 94.6721 138.808C95.0734 139.284 95.2741 139.933 95.2741 140.754V145.5H93.9301V140.768C93.9301 139.695 93.4121 139.158 92.3761 139.158C91.8348 139.158 91.3914 139.345 91.0461 139.718C90.7288 140.054 90.5701 140.483 90.5701 141.006V145.5ZM101.367 135.42H102.795V142.252C102.795 142.989 103.047 143.559 103.551 143.96C103.999 144.324 104.601 144.506 105.357 144.506C106.225 144.506 106.887 144.268 107.345 143.792C107.727 143.4 107.919 142.887 107.919 142.252V135.42H109.305V142.126C109.305 143.302 108.894 144.217 108.073 144.87C107.373 145.43 106.463 145.71 105.343 145.71C104.045 145.71 103.033 145.341 102.305 144.604C101.679 143.969 101.367 143.143 101.367 142.126V135.42ZM115.521 143.526C115.521 143.115 115.306 142.807 114.877 142.602C114.625 142.49 114.135 142.35 113.407 142.182C112.511 141.986 111.872 141.701 111.489 141.328C111.172 141.011 111.013 140.595 111.013 140.082C111.013 139.401 111.288 138.878 111.839 138.514C112.334 138.178 113.001 138.01 113.841 138.01C114.709 138.01 115.414 138.225 115.955 138.654C116.422 139.027 116.711 139.522 116.823 140.138H115.451C115.292 139.429 114.751 139.074 113.827 139.074C113.314 139.074 112.931 139.167 112.679 139.354C112.474 139.513 112.371 139.713 112.371 139.956C112.371 140.255 112.483 140.479 112.707 140.628C112.94 140.777 113.393 140.927 114.065 141.076C115.092 141.3 115.806 141.575 116.207 141.902C116.655 142.266 116.879 142.775 116.879 143.428C116.879 144.156 116.58 144.73 115.983 145.15C115.442 145.523 114.728 145.71 113.841 145.71C112.87 145.71 112.1 145.477 111.531 145.01C111.036 144.599 110.761 144.067 110.705 143.414H112.077C112.226 144.235 112.819 144.646 113.855 144.646C114.415 144.646 114.849 144.525 115.157 144.282C115.4 144.086 115.521 143.834 115.521 143.526ZM123.372 143.4H124.828C124.622 144.137 124.216 144.716 123.61 145.136C123.04 145.519 122.359 145.71 121.566 145.71C120.418 145.71 119.522 145.346 118.878 144.618C118.29 143.937 117.996 143.017 117.996 141.86C117.996 140.544 118.369 139.545 119.116 138.864C119.732 138.295 120.525 138.01 121.496 138.01C122.634 138.01 123.493 138.379 124.072 139.116C124.632 139.825 124.912 140.838 124.912 142.154H119.368C119.424 143.013 119.685 143.652 120.152 144.072C120.534 144.408 121.02 144.576 121.608 144.576C122.065 144.576 122.462 144.45 122.798 144.198C123.078 143.983 123.269 143.717 123.372 143.4ZM121.524 139.088C120.926 139.088 120.446 139.275 120.082 139.648C119.736 139.993 119.517 140.474 119.424 141.09H123.54C123.493 140.39 123.26 139.867 122.84 139.522C122.504 139.233 122.065 139.088 121.524 139.088ZM127.867 145.5H126.523V138.22H127.629L127.811 139.298C128.222 138.439 128.838 138.01 129.659 138.01C129.93 138.01 130.196 138.043 130.457 138.108V139.452C130.14 139.368 129.855 139.326 129.603 139.326C129.062 139.326 128.637 139.545 128.329 139.984C128.021 140.423 127.867 141.043 127.867 141.846V145.5ZM135.769 143.526C135.769 143.115 135.555 142.807 135.125 142.602C134.873 142.49 134.383 142.35 133.655 142.182C132.759 141.986 132.12 141.701 131.737 141.328C131.42 141.011 131.261 140.595 131.261 140.082C131.261 139.401 131.537 138.878 132.087 138.514C132.582 138.178 133.249 138.01 134.089 138.01C134.957 138.01 135.662 138.225 136.203 138.654C136.67 139.027 136.959 139.522 137.071 140.138H135.699C135.541 139.429 134.999 139.074 134.075 139.074C133.562 139.074 133.179 139.167 132.927 139.354C132.722 139.513 132.619 139.713 132.619 139.956C132.619 140.255 132.731 140.479 132.955 140.628C133.189 140.777 133.641 140.927 134.313 141.076C135.34 141.3 136.054 141.575 136.455 141.902C136.903 142.266 137.127 142.775 137.127 143.428C137.127 144.156 136.829 144.73 136.231 145.15C135.69 145.523 134.976 145.71 134.089 145.71C133.119 145.71 132.349 145.477 131.779 145.01C131.285 144.599 131.009 144.067 130.953 143.414H132.325C132.475 144.235 133.067 144.646 134.103 144.646C134.663 144.646 135.097 144.525 135.405 144.282C135.648 144.086 135.769 143.834 135.769 143.526Z" fill="white" fill-opacity="0.7"/>
</g>
<path d="M0 240H555C555 252.703 544.703 263 532 263H23C10.2975 263 0 252.703 0 240Z" fill="url(#paint0_linear_2031_6197)"/>
<defs>
<linearGradient id="paint0_linear_2031_6197" x1="277.5" y1="240" x2="277.5" y2="263" gradientUnits="userSpaceOnUse">
<stop stop-color="#F0677E"/>
<stop offset="1" stop-color="#DB1F2E"/>
</linearGradient>
<clipPath id="clip0_2031_6197">
<rect width="160" height="21" fill="white" transform="translate(379 130.5)"/>
</clipPath>
<clipPath id="clip1_2031_6197">
<rect width="160" height="21" fill="white" transform="translate(15 130.5)"/>
</clipPath>
</defs>
</svg>
