<svg width="830" height="236" viewBox="0 0 830 236" fill="none" xmlns="http://www.w3.org/2000/svg">
<rect width="830" height="236" rx="24" fill="#262626"/>
<path d="M603.5 103.5C603.5 107.366 600.366 110.5 596.5 110.5C592.634 110.5 589.5 107.366 589.5 103.5C589.5 99.634 592.634 96.5 596.5 96.5C600.366 96.5 603.5 99.634 603.5 103.5Z" stroke="#64B4FA" stroke-width="2"/>
<path d="M579.768 134.5V124.318H581.001V133.406H585.734V134.5H579.768ZM589.731 134.679C589.247 134.679 588.808 134.588 588.414 134.406C588.019 134.22 587.706 133.953 587.474 133.605C587.242 133.254 587.126 132.83 587.126 132.332C587.126 131.895 587.212 131.54 587.385 131.268C587.557 130.993 587.787 130.778 588.076 130.622C588.364 130.466 588.682 130.35 589.03 130.274C589.382 130.195 589.734 130.132 590.089 130.085C590.553 130.026 590.929 129.981 591.218 129.951C591.509 129.918 591.721 129.863 591.854 129.787C591.99 129.711 592.058 129.578 592.058 129.389V129.349C592.058 128.859 591.924 128.478 591.655 128.206C591.39 127.934 590.987 127.798 590.447 127.798C589.887 127.798 589.448 127.921 589.13 128.166C588.811 128.411 588.588 128.673 588.458 128.952L587.345 128.554C587.544 128.09 587.809 127.729 588.14 127.47C588.475 127.208 588.84 127.026 589.234 126.923C589.632 126.817 590.023 126.764 590.407 126.764C590.653 126.764 590.934 126.794 591.252 126.854C591.574 126.91 591.884 127.028 592.182 127.207C592.484 127.386 592.734 127.656 592.933 128.017C593.132 128.378 593.231 128.862 593.231 129.469V134.5H592.058V133.466H591.998C591.919 133.632 591.786 133.809 591.6 133.998C591.415 134.187 591.168 134.348 590.86 134.48C590.551 134.613 590.175 134.679 589.731 134.679ZM589.91 133.625C590.374 133.625 590.765 133.534 591.083 133.352C591.405 133.169 591.647 132.934 591.809 132.646C591.975 132.357 592.058 132.054 592.058 131.736V130.662C592.008 130.722 591.899 130.776 591.73 130.826C591.564 130.872 591.372 130.914 591.153 130.95C590.938 130.983 590.727 131.013 590.522 131.04C590.319 131.063 590.155 131.083 590.029 131.099C589.725 131.139 589.44 131.204 589.174 131.293C588.913 131.379 588.7 131.51 588.538 131.686C588.379 131.858 588.299 132.094 588.299 132.392C588.299 132.8 588.45 133.108 588.752 133.317C589.057 133.522 589.443 133.625 589.91 133.625ZM595.532 134.5V124.318H596.705V128.077H596.805C596.891 127.944 597.01 127.775 597.162 127.57C597.318 127.361 597.54 127.175 597.829 127.013C598.12 126.847 598.515 126.764 599.012 126.764C599.655 126.764 600.222 126.925 600.712 127.246C601.203 127.568 601.586 128.024 601.861 128.614C602.136 129.204 602.273 129.9 602.273 130.702C602.273 131.51 602.136 132.211 601.861 132.805C601.586 133.395 601.204 133.852 600.717 134.177C600.23 134.498 599.668 134.659 599.032 134.659C598.541 134.659 598.148 134.578 597.854 134.415C597.559 134.25 597.331 134.062 597.172 133.854C597.013 133.642 596.891 133.466 596.805 133.327H596.665V134.5H595.532ZM596.685 130.682C596.685 131.259 596.77 131.767 596.939 132.208C597.108 132.646 597.355 132.989 597.68 133.237C598.004 133.482 598.402 133.605 598.873 133.605C599.363 133.605 599.773 133.476 600.101 133.217C600.432 132.955 600.681 132.604 600.846 132.163C601.015 131.719 601.1 131.225 601.1 130.682C601.1 130.145 601.017 129.661 600.851 129.23C600.689 128.796 600.442 128.453 600.111 128.201C599.782 127.946 599.37 127.818 598.873 127.818C598.395 127.818 597.994 127.939 597.67 128.181C597.345 128.42 597.099 128.754 596.934 129.185C596.768 129.613 596.685 130.112 596.685 130.682ZM607.27 134.659C606.534 134.659 605.899 134.497 605.366 134.172C604.835 133.844 604.426 133.386 604.138 132.8C603.853 132.21 603.71 131.524 603.71 130.741C603.71 129.959 603.853 129.27 604.138 128.673C604.426 128.073 604.827 127.606 605.341 127.271C605.858 126.933 606.461 126.764 607.15 126.764C607.548 126.764 607.941 126.83 608.329 126.963C608.716 127.096 609.069 127.311 609.388 127.609C609.706 127.904 609.959 128.295 610.148 128.783C610.337 129.27 610.432 129.87 610.432 130.582V131.08H604.545V130.065H609.238C609.238 129.634 609.152 129.25 608.98 128.912C608.811 128.574 608.569 128.307 608.254 128.112C607.943 127.916 607.575 127.818 607.15 127.818C606.683 127.818 606.279 127.934 605.937 128.166C605.599 128.395 605.339 128.693 605.157 129.061C604.974 129.429 604.883 129.823 604.883 130.244V130.92C604.883 131.497 604.983 131.986 605.182 132.387C605.384 132.785 605.664 133.088 606.022 133.297C606.38 133.502 606.796 133.605 607.27 133.605C607.578 133.605 607.856 133.562 608.105 133.476C608.357 133.386 608.574 133.254 608.756 133.078C608.939 132.899 609.079 132.677 609.179 132.412L610.312 132.73C610.193 133.115 609.992 133.453 609.711 133.744C609.429 134.033 609.081 134.258 608.667 134.42C608.252 134.58 607.787 134.659 607.27 134.659ZM613.39 124.318V134.5H612.216V124.318H613.39Z" fill="white" fill-opacity="0.7"/>
<rect x="430.5" y="102.5" width="150" height="2" fill="#8F8F8F"/>
<path d="M421.5 103.5C421.5 107.366 418.366 110.5 414.5 110.5C410.634 110.5 407.5 107.366 407.5 103.5C407.5 99.634 410.634 96.5 414.5 96.5C418.366 96.5 421.5 99.634 421.5 103.5Z" stroke="#F55868" stroke-width="2"/>
<g clip-path="url(#clip0_2031_6175)">
<path d="M378.869 127.206L375.793 124.131C375.712 124.05 375.616 123.985 375.51 123.941C375.403 123.897 375.29 123.874 375.175 123.875H370.825C370.71 123.875 370.596 123.897 370.49 123.941C370.384 123.985 370.288 124.049 370.207 124.131L367.13 127.208C367.049 127.289 366.985 127.385 366.941 127.491C366.897 127.597 366.875 127.71 366.875 127.825V132.175C366.876 132.406 366.968 132.628 367.131 132.793L370.207 135.869C370.288 135.95 370.384 136.015 370.49 136.059C370.596 136.103 370.71 136.125 370.825 136.125H375.175C375.407 136.124 375.629 136.032 375.793 135.869L378.868 132.794C379.032 132.629 379.124 132.407 379.125 132.175V127.825C379.124 127.593 379.032 127.371 378.869 127.206ZM375.175 135.25L370.826 135.25L367.75 132.175L367.75 127.826L370.825 124.75H375.175L378.25 127.825L378.25 132.174L375.175 135.25Z" fill="#FC8B98"/>
<path d="M375.059 127.94C375.019 127.9 374.97 127.868 374.917 127.846C374.864 127.824 374.807 127.812 374.75 127.812C374.693 127.812 374.636 127.824 374.583 127.846C374.53 127.868 374.481 127.9 374.441 127.94L373 129.381L371.559 127.94C371.519 127.9 371.47 127.867 371.417 127.845C371.364 127.823 371.307 127.812 371.25 127.812C371.192 127.812 371.135 127.823 371.082 127.845C371.029 127.867 370.981 127.899 370.94 127.94C370.899 127.981 370.867 128.029 370.845 128.082C370.823 128.135 370.812 128.192 370.812 128.25C370.812 128.307 370.823 128.364 370.845 128.417C370.868 128.47 370.9 128.518 370.941 128.559L372.381 130L370.941 131.44C370.9 131.481 370.868 131.529 370.845 131.582C370.823 131.636 370.812 131.692 370.812 131.75C370.812 131.807 370.823 131.864 370.845 131.918C370.867 131.971 370.899 132.019 370.94 132.06C370.981 132.1 371.029 132.133 371.082 132.155C371.135 132.177 371.192 132.188 371.25 132.188C371.307 132.188 371.364 132.176 371.417 132.154C371.47 132.132 371.519 132.1 371.559 132.059L373 130.618L374.441 132.059C374.481 132.1 374.529 132.132 374.583 132.154C374.636 132.176 374.693 132.188 374.75 132.188C374.808 132.188 374.865 132.177 374.918 132.155C374.971 132.133 375.019 132.1 375.06 132.06C375.101 132.019 375.133 131.971 375.155 131.918C375.177 131.864 375.188 131.807 375.188 131.75C375.188 131.692 375.177 131.636 375.154 131.582C375.132 131.529 375.1 131.481 375.059 131.44L373.619 130L375.059 128.559C375.1 128.518 375.132 128.47 375.154 128.417C375.176 128.364 375.188 128.307 375.188 128.25C375.188 128.192 375.176 128.135 375.154 128.082C375.132 128.029 375.1 127.981 375.059 127.94Z" fill="#FC8B98"/>
<path d="M385.233 135.5V125.318H386.466V134.406H391.199V135.5H385.233ZM396.051 135.659C395.362 135.659 394.757 135.495 394.237 135.167C393.719 134.839 393.315 134.38 393.023 133.79C392.735 133.2 392.591 132.51 392.591 131.722C392.591 130.926 392.735 130.232 393.023 129.638C393.315 129.045 393.719 128.585 394.237 128.256C394.757 127.928 395.362 127.764 396.051 127.764C396.741 127.764 397.344 127.928 397.861 128.256C398.381 128.585 398.786 129.045 399.074 129.638C399.366 130.232 399.511 130.926 399.511 131.722C399.511 132.51 399.366 133.2 399.074 133.79C398.786 134.38 398.381 134.839 397.861 135.167C397.344 135.495 396.741 135.659 396.051 135.659ZM396.051 134.605C396.575 134.605 397.006 134.471 397.344 134.202C397.682 133.934 397.932 133.581 398.094 133.143C398.257 132.706 398.338 132.232 398.338 131.722C398.338 131.211 398.257 130.736 398.094 130.295C397.932 129.854 397.682 129.498 397.344 129.226C397.006 128.954 396.575 128.818 396.051 128.818C395.527 128.818 395.097 128.954 394.759 129.226C394.42 129.498 394.17 129.854 394.008 130.295C393.845 130.736 393.764 131.211 393.764 131.722C393.764 132.232 393.845 132.706 394.008 133.143C394.17 133.581 394.42 133.934 394.759 134.202C395.097 134.471 395.527 134.605 396.051 134.605ZM404.405 135.659C403.689 135.659 403.072 135.49 402.555 135.152C402.038 134.814 401.64 134.348 401.362 133.755C401.084 133.162 400.944 132.484 400.944 131.722C400.944 130.946 401.087 130.262 401.372 129.668C401.66 129.072 402.061 128.606 402.575 128.271C403.092 127.933 403.695 127.764 404.385 127.764C404.922 127.764 405.406 127.864 405.836 128.062C406.267 128.261 406.62 128.54 406.895 128.898C407.171 129.256 407.341 129.673 407.407 130.151H406.234C406.145 129.803 405.946 129.494 405.638 129.226C405.333 128.954 404.922 128.818 404.405 128.818C403.947 128.818 403.546 128.937 403.202 129.176C402.86 129.411 402.593 129.745 402.401 130.175C402.212 130.603 402.118 131.105 402.118 131.682C402.118 132.272 402.211 132.786 402.396 133.223C402.585 133.661 402.85 134 403.192 134.242C403.536 134.484 403.941 134.605 404.405 134.605C404.71 134.605 404.986 134.552 405.235 134.446C405.483 134.34 405.694 134.188 405.866 133.989C406.039 133.79 406.161 133.551 406.234 133.273H407.407C407.341 133.723 407.177 134.129 406.915 134.491C406.657 134.849 406.314 135.134 405.886 135.346C405.462 135.555 404.968 135.659 404.405 135.659ZM411.37 135.679C410.886 135.679 410.447 135.588 410.052 135.406C409.658 135.22 409.345 134.953 409.113 134.605C408.881 134.254 408.765 133.83 408.765 133.332C408.765 132.895 408.851 132.54 409.023 132.268C409.196 131.993 409.426 131.778 409.714 131.622C410.003 131.466 410.321 131.35 410.669 131.274C411.02 131.195 411.373 131.132 411.728 131.085C412.192 131.026 412.568 130.981 412.856 130.951C413.148 130.918 413.36 130.863 413.493 130.787C413.629 130.711 413.697 130.578 413.697 130.389V130.349C413.697 129.859 413.562 129.478 413.294 129.206C413.029 128.934 412.626 128.798 412.086 128.798C411.526 128.798 411.086 128.921 410.768 129.166C410.45 129.411 410.226 129.673 410.097 129.952L408.983 129.554C409.182 129.09 409.448 128.729 409.779 128.47C410.114 128.208 410.478 128.026 410.873 127.923C411.27 127.817 411.662 127.764 412.046 127.764C412.291 127.764 412.573 127.794 412.891 127.854C413.213 127.91 413.523 128.028 413.821 128.207C414.122 128.386 414.373 128.656 414.572 129.017C414.77 129.378 414.87 129.862 414.87 130.469V135.5H413.697V134.466H413.637C413.557 134.632 413.425 134.809 413.239 134.998C413.054 135.187 412.807 135.348 412.498 135.48C412.19 135.613 411.814 135.679 411.37 135.679ZM411.549 134.625C412.013 134.625 412.404 134.534 412.722 134.352C413.044 134.169 413.286 133.934 413.448 133.646C413.614 133.357 413.697 133.054 413.697 132.736V131.662C413.647 131.722 413.537 131.776 413.368 131.826C413.203 131.872 413.01 131.914 412.792 131.95C412.576 131.983 412.366 132.013 412.16 132.04C411.958 132.063 411.794 132.083 411.668 132.099C411.363 132.139 411.078 132.204 410.813 132.293C410.551 132.379 410.339 132.51 410.177 132.686C410.018 132.858 409.938 133.094 409.938 133.392C409.938 133.8 410.089 134.108 410.39 134.317C410.695 134.522 411.081 134.625 411.549 134.625ZM418.185 125.318V135.5H417.011V125.318H418.185ZM420.334 135.5V127.864H421.507V135.5H420.334ZM420.93 126.591C420.702 126.591 420.504 126.513 420.339 126.357C420.176 126.201 420.095 126.014 420.095 125.795C420.095 125.577 420.176 125.389 420.339 125.234C420.504 125.078 420.702 125 420.93 125C421.159 125 421.354 125.078 421.517 125.234C421.683 125.389 421.765 125.577 421.765 125.795C421.765 126.014 421.683 126.201 421.517 126.357C421.354 126.513 421.159 126.591 420.93 126.591ZM423.437 135.5V134.605L427.772 129.037V128.957H423.576V127.864H429.284V128.798L425.068 134.327V134.406H429.423V135.5H423.437ZM433.477 135.679C432.993 135.679 432.554 135.588 432.16 135.406C431.765 135.22 431.452 134.953 431.22 134.605C430.988 134.254 430.872 133.83 430.872 133.332C430.872 132.895 430.958 132.54 431.131 132.268C431.303 131.993 431.533 131.778 431.822 131.622C432.11 131.466 432.428 131.35 432.776 131.274C433.128 131.195 433.481 131.132 433.835 131.085C434.299 131.026 434.675 130.981 434.964 130.951C435.255 130.918 435.468 130.863 435.6 130.787C435.736 130.711 435.804 130.578 435.804 130.389V130.349C435.804 129.859 435.67 129.478 435.401 129.206C435.136 128.934 434.733 128.798 434.193 128.798C433.633 128.798 433.194 128.921 432.876 129.166C432.558 129.411 432.334 129.673 432.205 129.952L431.091 129.554C431.29 129.09 431.555 128.729 431.886 128.47C432.221 128.208 432.586 128.026 432.98 127.923C433.378 127.817 433.769 127.764 434.153 127.764C434.399 127.764 434.68 127.794 434.999 127.854C435.32 127.91 435.63 128.028 435.928 128.207C436.23 128.386 436.48 128.656 436.679 129.017C436.878 129.378 436.977 129.862 436.977 130.469V135.5H435.804V134.466H435.744C435.665 134.632 435.532 134.809 435.347 134.998C435.161 135.187 434.914 135.348 434.606 135.48C434.298 135.613 433.921 135.679 433.477 135.679ZM433.656 134.625C434.12 134.625 434.511 134.534 434.83 134.352C435.151 134.169 435.393 133.934 435.555 133.646C435.721 133.357 435.804 133.054 435.804 132.736V131.662C435.754 131.722 435.645 131.776 435.476 131.826C435.31 131.872 435.118 131.914 434.899 131.95C434.684 131.983 434.473 132.013 434.268 132.04C434.066 132.063 433.902 132.083 433.776 132.099C433.471 132.139 433.186 132.204 432.92 132.293C432.659 132.379 432.446 132.51 432.284 132.686C432.125 132.858 432.045 133.094 432.045 133.392C432.045 133.8 432.196 134.108 432.498 134.317C432.803 134.522 433.189 134.625 433.656 134.625ZM442.44 127.864V128.858H438.482V127.864H442.44ZM439.636 126.034H440.809V133.312C440.809 133.644 440.857 133.893 440.953 134.058C441.053 134.221 441.179 134.33 441.331 134.386C441.487 134.439 441.651 134.466 441.823 134.466C441.953 134.466 442.059 134.459 442.142 134.446C442.224 134.429 442.291 134.416 442.34 134.406L442.579 135.46C442.499 135.49 442.388 135.52 442.246 135.55C442.103 135.583 441.923 135.599 441.704 135.599C441.373 135.599 441.048 135.528 440.73 135.386C440.415 135.243 440.153 135.026 439.944 134.734C439.739 134.443 439.636 134.075 439.636 133.631V126.034ZM444.205 135.5V127.864H445.378V135.5H444.205ZM444.801 126.591C444.573 126.591 444.375 126.513 444.21 126.357C444.047 126.201 443.966 126.014 443.966 125.795C443.966 125.577 444.047 125.389 444.21 125.234C444.375 125.078 444.573 125 444.801 125C445.03 125 445.226 125.078 445.388 125.234C445.554 125.389 445.637 125.577 445.637 125.795C445.637 126.014 445.554 126.201 445.388 126.357C445.226 126.513 445.03 126.591 444.801 126.591ZM450.629 135.659C449.94 135.659 449.335 135.495 448.815 135.167C448.298 134.839 447.893 134.38 447.602 133.79C447.313 133.2 447.169 132.51 447.169 131.722C447.169 130.926 447.313 130.232 447.602 129.638C447.893 129.045 448.298 128.585 448.815 128.256C449.335 127.928 449.94 127.764 450.629 127.764C451.319 127.764 451.922 127.928 452.439 128.256C452.959 128.585 453.364 129.045 453.652 129.638C453.944 130.232 454.089 130.926 454.089 131.722C454.089 132.51 453.944 133.2 453.652 133.79C453.364 134.38 452.959 134.839 452.439 135.167C451.922 135.495 451.319 135.659 450.629 135.659ZM450.629 134.605C451.153 134.605 451.584 134.471 451.922 134.202C452.26 133.934 452.51 133.581 452.673 133.143C452.835 132.706 452.916 132.232 452.916 131.722C452.916 131.211 452.835 130.736 452.673 130.295C452.51 129.854 452.26 129.498 451.922 129.226C451.584 128.954 451.153 128.818 450.629 128.818C450.106 128.818 449.675 128.954 449.337 129.226C448.999 129.498 448.748 129.854 448.586 130.295C448.424 130.736 448.342 131.211 448.342 131.722C448.342 132.232 448.424 132.706 448.586 133.143C448.748 133.581 448.999 133.934 449.337 134.202C449.675 134.471 450.106 134.605 450.629 134.605ZM457.054 130.906V135.5H455.881V127.864H457.014V129.057H457.113C457.292 128.669 457.564 128.357 457.929 128.122C458.293 127.884 458.764 127.764 459.341 127.764C459.858 127.764 460.31 127.87 460.698 128.082C461.086 128.291 461.387 128.609 461.603 129.037C461.818 129.461 461.926 129.998 461.926 130.648V135.5H460.753V130.727C460.753 130.127 460.597 129.66 460.285 129.325C459.974 128.987 459.546 128.818 459.003 128.818C458.628 128.818 458.293 128.899 457.998 129.062C457.707 129.224 457.476 129.461 457.307 129.773C457.138 130.084 457.054 130.462 457.054 130.906Z" fill="white" fill-opacity="0.7"/>
</g>
<rect x="248.5" y="102.5" width="150" height="2" fill="#3492EB"/>
<path fill-rule="evenodd" clip-rule="evenodd" d="M232.5 111.5C236.918 111.5 240.5 107.918 240.5 103.5C240.5 99.0817 236.918 95.5 232.5 95.5C228.082 95.5 224.5 99.0817 224.5 103.5C224.5 107.918 228.082 111.5 232.5 111.5Z" fill="#3492EB"/>
<g clip-path="url(#clip1_2031_6175)">
<path d="M188.053 133.506C188.921 133.506 189.635 133.231 190.195 132.68C190.681 132.204 190.942 131.625 190.979 130.944H192.421C192.384 131.607 192.179 132.223 191.805 132.792C191.423 133.371 190.914 133.828 190.279 134.164C189.598 134.528 188.847 134.71 188.025 134.71C186.504 134.71 185.328 134.192 184.497 133.156C183.769 132.241 183.405 131.009 183.405 129.46C183.405 127.687 183.905 126.329 184.903 125.386C185.734 124.602 186.812 124.21 188.137 124.21C189.397 124.21 190.443 124.597 191.273 125.372C191.964 126.007 192.342 126.767 192.407 127.654H190.965C190.872 126.917 190.541 126.343 189.971 125.932C189.467 125.577 188.856 125.4 188.137 125.4C187.064 125.4 186.238 125.783 185.659 126.548C185.127 127.248 184.861 128.219 184.861 129.46C184.861 130.823 185.197 131.868 185.869 132.596C186.429 133.203 187.157 133.506 188.053 133.506ZM195.299 134.5H193.955V127.22H195.061L195.243 128.298C195.653 127.439 196.269 127.01 197.091 127.01C197.361 127.01 197.627 127.043 197.889 127.108V128.452C197.571 128.368 197.287 128.326 197.035 128.326C196.493 128.326 196.069 128.545 195.761 128.984C195.453 129.423 195.299 130.043 195.299 130.846V134.5ZM203.764 132.4H205.22C205.015 133.137 204.609 133.716 204.002 134.136C203.433 134.519 202.751 134.71 201.958 134.71C200.81 134.71 199.914 134.346 199.27 133.618C198.682 132.937 198.388 132.017 198.388 130.86C198.388 129.544 198.761 128.545 199.508 127.864C200.124 127.295 200.917 127.01 201.888 127.01C203.027 127.01 203.885 127.379 204.464 128.116C205.024 128.825 205.304 129.838 205.304 131.154H199.76C199.816 132.013 200.077 132.652 200.544 133.072C200.927 133.408 201.412 133.576 202 133.576C202.457 133.576 202.854 133.45 203.19 133.198C203.47 132.983 203.661 132.717 203.764 132.4ZM201.916 128.088C201.319 128.088 200.838 128.275 200.474 128.648C200.129 128.993 199.909 129.474 199.816 130.09H203.932C203.885 129.39 203.652 128.867 203.232 128.522C202.896 128.233 202.457 128.088 201.916 128.088ZM208.064 129.25H206.636C206.71 128.522 207.056 127.957 207.672 127.556C208.222 127.192 208.918 127.01 209.758 127.01C210.756 127.01 211.522 127.271 212.054 127.794C212.502 128.242 212.726 128.821 212.726 129.53V134.5H211.62L211.452 133.506C210.882 134.309 210.07 134.71 209.016 134.71C208.185 134.71 207.536 134.486 207.07 134.038C206.687 133.665 206.496 133.193 206.496 132.624C206.496 131.905 206.743 131.35 207.238 130.958C207.676 130.613 208.348 130.361 209.254 130.202L211.382 129.838V129.474C211.382 128.998 211.218 128.639 210.892 128.396C210.602 128.181 210.206 128.074 209.702 128.074C208.712 128.074 208.166 128.466 208.064 129.25ZM209.338 133.576C209.907 133.576 210.402 133.389 210.822 133.016C211.195 132.671 211.382 132.274 211.382 131.826V130.888L209.576 131.21C208.913 131.322 208.46 131.495 208.218 131.728C208.022 131.915 207.924 132.167 207.924 132.484C207.924 132.839 208.045 133.109 208.288 133.296C208.53 133.483 208.88 133.576 209.338 133.576ZM217.861 133.422V134.57C217.515 134.663 217.184 134.71 216.867 134.71C216.195 134.71 215.691 134.5 215.355 134.08C215.065 133.735 214.921 133.273 214.921 132.694V128.368H213.843V127.22H214.921L215.005 125.47H216.265V127.22H217.833V128.368H216.265V132.722C216.265 133.263 216.521 133.534 217.035 133.534C217.277 133.534 217.553 133.497 217.861 133.422ZM224.012 132.4H225.468C225.263 133.137 224.857 133.716 224.25 134.136C223.681 134.519 223 134.71 222.206 134.71C221.058 134.71 220.162 134.346 219.518 133.618C218.93 132.937 218.636 132.017 218.636 130.86C218.636 129.544 219.01 128.545 219.756 127.864C220.372 127.295 221.166 127.01 222.136 127.01C223.275 127.01 224.134 127.379 224.712 128.116C225.272 128.825 225.552 129.838 225.552 131.154H220.008C220.064 132.013 220.326 132.652 220.792 133.072C221.175 133.408 221.66 133.576 222.248 133.576C222.706 133.576 223.102 133.45 223.438 133.198C223.718 132.983 223.91 132.717 224.012 132.4ZM222.164 128.088C221.567 128.088 221.086 128.275 220.722 128.648C220.377 128.993 220.158 129.474 220.064 130.09H224.18C224.134 129.39 223.9 128.867 223.48 128.522C223.144 128.233 222.706 128.088 222.164 128.088ZM232.509 129.25H231.081C231.156 128.522 231.501 127.957 232.117 127.556C232.668 127.192 233.363 127.01 234.203 127.01C235.202 127.01 235.967 127.271 236.499 127.794C236.947 128.242 237.171 128.821 237.171 129.53V134.5H236.065L235.897 133.506C235.328 134.309 234.516 134.71 233.461 134.71C232.63 134.71 231.982 134.486 231.515 134.038C231.132 133.665 230.941 133.193 230.941 132.624C230.941 131.905 231.188 131.35 231.683 130.958C232.122 130.613 232.794 130.361 233.699 130.202L235.827 129.838V129.474C235.827 128.998 235.664 128.639 235.337 128.396C235.048 128.181 234.651 128.074 234.147 128.074C233.158 128.074 232.612 128.466 232.509 129.25ZM233.783 133.576C234.352 133.576 234.847 133.389 235.267 133.016C235.64 132.671 235.827 132.274 235.827 131.826V130.888L234.021 131.21C233.358 131.322 232.906 131.495 232.663 131.728C232.467 131.915 232.369 132.167 232.369 132.484C232.369 132.839 232.49 133.109 232.733 133.296C232.976 133.483 233.326 133.576 233.783 133.576ZM243.804 132.162H245.274C245.162 132.946 244.793 133.576 244.168 134.052C243.599 134.491 242.903 134.71 242.082 134.71C241.009 134.71 240.155 134.341 239.52 133.604C238.932 132.923 238.638 132.027 238.638 130.916C238.638 129.628 238.993 128.629 239.702 127.92C240.309 127.313 241.097 127.01 242.068 127.01C242.964 127.01 243.701 127.248 244.28 127.724C244.793 128.144 245.106 128.695 245.218 129.376H243.734C243.641 128.984 243.449 128.681 243.16 128.466C242.88 128.251 242.525 128.144 242.096 128.144C241.433 128.144 240.925 128.405 240.57 128.928C240.234 129.413 240.066 130.09 240.066 130.958C240.066 131.863 240.29 132.549 240.738 133.016C241.093 133.389 241.55 133.576 242.11 133.576C242.595 133.576 242.992 133.436 243.3 133.156C243.571 132.913 243.739 132.582 243.804 132.162ZM251.556 132.162H253.026C252.914 132.946 252.545 133.576 251.92 134.052C251.351 134.491 250.655 134.71 249.834 134.71C248.761 134.71 247.907 134.341 247.272 133.604C246.684 132.923 246.39 132.027 246.39 130.916C246.39 129.628 246.745 128.629 247.454 127.92C248.061 127.313 248.849 127.01 249.82 127.01C250.716 127.01 251.453 127.248 252.032 127.724C252.545 128.144 252.858 128.695 252.97 129.376H251.486C251.393 128.984 251.201 128.681 250.912 128.466C250.632 128.251 250.277 128.144 249.848 128.144C249.185 128.144 248.677 128.405 248.322 128.928C247.986 129.413 247.818 130.09 247.818 130.958C247.818 131.863 248.042 132.549 248.49 133.016C248.845 133.389 249.302 133.576 249.862 133.576C250.347 133.576 250.744 133.436 251.052 133.156C251.323 132.913 251.491 132.582 251.556 132.162ZM254.142 130.86C254.142 129.525 254.539 128.517 255.332 127.836C255.967 127.285 256.769 127.01 257.74 127.01C258.869 127.01 259.756 127.369 260.4 128.088C261.016 128.76 261.324 129.684 261.324 130.86C261.324 132.176 260.937 133.179 260.162 133.87C259.527 134.43 258.715 134.71 257.726 134.71C256.597 134.71 255.705 134.337 255.052 133.59C254.445 132.909 254.142 131.999 254.142 130.86ZM255.542 130.86C255.542 131.793 255.78 132.507 256.256 133.002C256.648 133.413 257.147 133.618 257.754 133.618C258.463 133.618 259.009 133.352 259.392 132.82C259.747 132.335 259.924 131.681 259.924 130.86C259.924 129.908 259.691 129.189 259.224 128.704C258.841 128.303 258.347 128.102 257.74 128.102C257.04 128.102 256.494 128.368 256.102 128.9C255.729 129.385 255.542 130.039 255.542 130.86ZM262.791 127.22H264.135V131.994C264.135 133.039 264.639 133.562 265.647 133.562C266.263 133.562 266.734 133.343 267.061 132.904C267.313 132.568 267.439 132.153 267.439 131.658V127.22H268.783V134.5H267.677L267.523 133.66C267.01 134.36 266.282 134.71 265.339 134.71C264.508 134.71 263.869 134.453 263.421 133.94C263.001 133.464 262.791 132.806 262.791 131.966V127.22ZM272.094 134.5H270.75V127.22H271.856L272.01 128.144C272.551 127.388 273.288 127.01 274.222 127.01C275.08 127.01 275.738 127.276 276.196 127.808C276.597 128.284 276.798 128.933 276.798 129.754V134.5H275.454V129.768C275.454 128.695 274.936 128.158 273.9 128.158C273.358 128.158 272.915 128.345 272.57 128.718C272.252 129.054 272.094 129.483 272.094 130.006V134.5ZM281.941 133.422V134.57C281.596 134.663 281.264 134.71 280.947 134.71C280.275 134.71 279.771 134.5 279.435 134.08C279.146 133.735 279.001 133.273 279.001 132.694V128.368H277.923V127.22H279.001L279.085 125.47H280.345V127.22H281.913V128.368H280.345V132.722C280.345 133.263 280.602 133.534 281.115 133.534C281.358 133.534 281.633 133.497 281.941 133.422Z" fill="white" fill-opacity="0.95"/>
</g>
<defs>
<clipPath id="clip0_2031_6175">
<rect width="97" height="21" fill="white" transform="translate(366 119.5)"/>
</clipPath>
<clipPath id="clip1_2031_6175">
<rect width="160" height="21" fill="white" transform="translate(152.5 119.5)"/>
</clipPath>
</defs>
</svg>
