<svg width="830" height="247" viewBox="0 0 830 247" fill="none" xmlns="http://www.w3.org/2000/svg">
<rect width="830" height="247" rx="24" fill="#262626"/>
<path d="M603.5 109C603.5 112.866 600.366 116 596.5 116C592.634 116 589.5 112.866 589.5 109C589.5 105.134 592.634 102 596.5 102C600.366 102 603.5 105.134 603.5 109Z" stroke="#64B4FA" stroke-width="2"/>
<path d="M579.768 140V129.818H581.001V138.906H585.734V140H579.768ZM589.731 140.179C589.247 140.179 588.808 140.088 588.414 139.906C588.019 139.72 587.706 139.453 587.474 139.105C587.242 138.754 587.126 138.33 587.126 137.832C587.126 137.395 587.212 137.04 587.385 136.768C587.557 136.493 587.787 136.278 588.076 136.122C588.364 135.966 588.682 135.85 589.03 135.774C589.382 135.695 589.734 135.632 590.089 135.585C590.553 135.526 590.929 135.481 591.218 135.451C591.509 135.418 591.721 135.363 591.854 135.287C591.99 135.211 592.058 135.078 592.058 134.889V134.849C592.058 134.359 591.924 133.978 591.655 133.706C591.39 133.434 590.987 133.298 590.447 133.298C589.887 133.298 589.448 133.421 589.13 133.666C588.811 133.911 588.588 134.173 588.458 134.452L587.345 134.054C587.544 133.59 587.809 133.229 588.14 132.97C588.475 132.708 588.84 132.526 589.234 132.423C589.632 132.317 590.023 132.264 590.407 132.264C590.653 132.264 590.934 132.294 591.252 132.354C591.574 132.41 591.884 132.528 592.182 132.707C592.484 132.886 592.734 133.156 592.933 133.517C593.132 133.878 593.231 134.362 593.231 134.969V140H592.058V138.966H591.998C591.919 139.132 591.786 139.309 591.6 139.498C591.415 139.687 591.168 139.848 590.86 139.98C590.551 140.113 590.175 140.179 589.731 140.179ZM589.91 139.125C590.374 139.125 590.765 139.034 591.083 138.852C591.405 138.669 591.647 138.434 591.809 138.146C591.975 137.857 592.058 137.554 592.058 137.236V136.162C592.008 136.222 591.899 136.276 591.73 136.326C591.564 136.372 591.372 136.414 591.153 136.45C590.938 136.483 590.727 136.513 590.522 136.54C590.319 136.563 590.155 136.583 590.029 136.599C589.725 136.639 589.44 136.704 589.174 136.793C588.913 136.879 588.7 137.01 588.538 137.186C588.379 137.358 588.299 137.594 588.299 137.892C588.299 138.3 588.45 138.608 588.752 138.817C589.057 139.022 589.443 139.125 589.91 139.125ZM595.532 140V129.818H596.705V133.577H596.805C596.891 133.444 597.01 133.275 597.162 133.07C597.318 132.861 597.54 132.675 597.829 132.513C598.12 132.347 598.515 132.264 599.012 132.264C599.655 132.264 600.222 132.425 600.712 132.746C601.203 133.068 601.586 133.524 601.861 134.114C602.136 134.704 602.273 135.4 602.273 136.202C602.273 137.01 602.136 137.711 601.861 138.305C601.586 138.895 601.204 139.352 600.717 139.677C600.23 139.998 599.668 140.159 599.032 140.159C598.541 140.159 598.148 140.078 597.854 139.915C597.559 139.75 597.331 139.562 597.172 139.354C597.013 139.142 596.891 138.966 596.805 138.827H596.665V140H595.532ZM596.685 136.182C596.685 136.759 596.77 137.267 596.939 137.708C597.108 138.146 597.355 138.489 597.68 138.737C598.004 138.982 598.402 139.105 598.873 139.105C599.363 139.105 599.773 138.976 600.101 138.717C600.432 138.455 600.681 138.104 600.846 137.663C601.015 137.219 601.1 136.725 601.1 136.182C601.1 135.645 601.017 135.161 600.851 134.73C600.689 134.296 600.442 133.953 600.111 133.701C599.782 133.446 599.37 133.318 598.873 133.318C598.395 133.318 597.994 133.439 597.67 133.681C597.345 133.92 597.099 134.254 596.934 134.685C596.768 135.113 596.685 135.612 596.685 136.182ZM607.27 140.159C606.534 140.159 605.899 139.997 605.366 139.672C604.835 139.344 604.426 138.886 604.138 138.3C603.853 137.71 603.71 137.024 603.71 136.241C603.71 135.459 603.853 134.77 604.138 134.173C604.426 133.573 604.827 133.106 605.341 132.771C605.858 132.433 606.461 132.264 607.15 132.264C607.548 132.264 607.941 132.33 608.329 132.463C608.716 132.596 609.069 132.811 609.388 133.109C609.706 133.404 609.959 133.795 610.148 134.283C610.337 134.77 610.432 135.37 610.432 136.082V136.58H604.545V135.565H609.238C609.238 135.134 609.152 134.75 608.98 134.412C608.811 134.074 608.569 133.807 608.254 133.612C607.943 133.416 607.575 133.318 607.15 133.318C606.683 133.318 606.279 133.434 605.937 133.666C605.599 133.895 605.339 134.193 605.157 134.561C604.974 134.929 604.883 135.323 604.883 135.744V136.42C604.883 136.997 604.983 137.486 605.182 137.887C605.384 138.285 605.664 138.588 606.022 138.797C606.38 139.002 606.796 139.105 607.27 139.105C607.578 139.105 607.856 139.062 608.105 138.976C608.357 138.886 608.574 138.754 608.756 138.578C608.939 138.399 609.079 138.177 609.179 137.912L610.312 138.23C610.193 138.615 609.992 138.953 609.711 139.244C609.429 139.533 609.081 139.758 608.667 139.92C608.252 140.08 607.787 140.159 607.27 140.159ZM613.39 129.818V140H612.216V129.818H613.39Z" fill="white" fill-opacity="0.7"/>
<rect x="430.5" y="108" width="150" height="2" fill="#8F8F8F"/>
<path d="M421.5 109C421.5 112.866 418.366 116 414.5 116C410.634 116 407.5 112.866 407.5 109C407.5 105.134 410.634 102 414.5 102C418.366 102 421.5 105.134 421.5 109Z" stroke="#64B4FA" stroke-width="2"/>
<g clip-path="url(#clip0_2031_6560)">
<path d="M364.372 133.493C364.319 133.022 364.1 132.658 363.716 132.399C363.331 132.137 362.847 132.006 362.264 132.006C361.847 132.006 361.485 132.073 361.18 132.205C360.875 132.335 360.638 132.513 360.469 132.742C360.304 132.968 360.221 133.224 360.221 133.513C360.221 133.755 360.277 133.964 360.39 134.139C360.506 134.315 360.657 134.462 360.842 134.582C361.031 134.698 361.233 134.795 361.449 134.875C361.664 134.951 361.871 135.014 362.07 135.064L363.065 135.322C363.389 135.402 363.722 135.51 364.064 135.646C364.405 135.781 364.722 135.96 365.013 136.183C365.305 136.405 365.54 136.68 365.719 137.008C365.902 137.336 365.993 137.729 365.993 138.186C365.993 138.763 365.844 139.275 365.545 139.722C365.25 140.17 364.821 140.523 364.258 140.781C363.698 141.04 363.02 141.169 362.224 141.169C361.462 141.169 360.802 141.048 360.246 140.806C359.689 140.564 359.253 140.221 358.938 139.777C358.623 139.33 358.449 138.799 358.416 138.186H359.957C359.987 138.554 360.106 138.861 360.315 139.106C360.527 139.348 360.797 139.528 361.126 139.648C361.457 139.764 361.82 139.822 362.214 139.822C362.649 139.822 363.035 139.754 363.373 139.618C363.714 139.479 363.983 139.286 364.178 139.041C364.374 138.793 364.472 138.503 364.472 138.171C364.472 137.87 364.385 137.623 364.213 137.43C364.044 137.238 363.814 137.079 363.522 136.953C363.234 136.827 362.907 136.716 362.543 136.62L361.339 136.292C360.524 136.07 359.878 135.743 359.4 135.312C358.927 134.882 358.69 134.312 358.69 133.602C358.69 133.016 358.849 132.504 359.167 132.066C359.485 131.629 359.916 131.289 360.459 131.047C361.003 130.802 361.616 130.679 362.299 130.679C362.988 130.679 363.597 130.8 364.123 131.042C364.654 131.284 365.071 131.617 365.376 132.041C365.681 132.462 365.84 132.946 365.854 133.493H364.372ZM371.274 133.364V134.557H367.103V133.364H371.274ZM368.221 131.534H369.708V138.758C369.708 139.046 369.751 139.263 369.837 139.409C369.923 139.552 370.034 139.649 370.17 139.702C370.309 139.752 370.46 139.777 370.623 139.777C370.742 139.777 370.846 139.769 370.936 139.752C371.025 139.736 371.095 139.722 371.145 139.712L371.413 140.94C371.327 140.973 371.204 141.007 371.045 141.04C370.886 141.076 370.687 141.096 370.449 141.099C370.057 141.106 369.693 141.036 369.355 140.891C369.017 140.745 368.743 140.519 368.535 140.214C368.326 139.91 368.221 139.527 368.221 139.066V131.534ZM376.127 141.154C375.375 141.154 374.727 140.993 374.184 140.672C373.643 140.347 373.226 139.891 372.931 139.305C372.639 138.715 372.493 138.024 372.493 137.232C372.493 136.449 372.639 135.76 372.931 135.163C373.226 134.567 373.637 134.101 374.164 133.766C374.694 133.432 375.314 133.264 376.023 133.264C376.454 133.264 376.871 133.335 377.276 133.478C377.68 133.621 378.043 133.844 378.365 134.149C378.686 134.454 378.94 134.85 379.125 135.337C379.311 135.821 379.404 136.41 379.404 137.102V137.629H373.333V136.516H377.947C377.947 136.125 377.867 135.778 377.708 135.477C377.549 135.172 377.326 134.931 377.037 134.756C376.752 134.58 376.417 134.492 376.033 134.492C375.615 134.492 375.251 134.595 374.939 134.8C374.631 135.003 374.392 135.268 374.223 135.596C374.058 135.921 373.975 136.274 373.975 136.655V137.525C373.975 138.035 374.064 138.469 374.243 138.827C374.425 139.185 374.679 139.459 375.004 139.648C375.329 139.833 375.708 139.926 376.142 139.926C376.424 139.926 376.681 139.886 376.913 139.807C377.145 139.724 377.345 139.601 377.514 139.439C377.684 139.277 377.813 139.076 377.902 138.837L379.309 139.091C379.197 139.505 378.994 139.868 378.703 140.18C378.414 140.488 378.051 140.728 377.614 140.901C377.18 141.07 376.684 141.154 376.127 141.154ZM381.053 143.864V133.364H382.505V134.602H382.629C382.715 134.442 382.839 134.259 383.002 134.05C383.164 133.841 383.39 133.659 383.678 133.503C383.966 133.344 384.348 133.264 384.821 133.264C385.438 133.264 385.988 133.42 386.472 133.732C386.956 134.043 387.335 134.492 387.611 135.079C387.889 135.665 388.028 136.371 388.028 137.197C388.028 138.022 387.891 138.73 387.616 139.32C387.34 139.906 386.963 140.359 386.482 140.677C386.001 140.992 385.453 141.149 384.836 141.149C384.372 141.149 383.993 141.071 383.698 140.915C383.406 140.76 383.178 140.577 383.012 140.369C382.846 140.16 382.718 139.974 382.629 139.812H382.54V143.864H381.053ZM382.51 137.182C382.51 137.719 382.588 138.189 382.743 138.594C382.899 138.998 383.124 139.315 383.419 139.543C383.714 139.769 384.076 139.881 384.503 139.881C384.947 139.881 385.319 139.764 385.617 139.528C385.915 139.29 386.141 138.967 386.293 138.559C386.449 138.151 386.527 137.692 386.527 137.182C386.527 136.678 386.45 136.226 386.298 135.825C386.149 135.424 385.924 135.107 385.622 134.875C385.324 134.643 384.951 134.527 384.503 134.527C384.072 134.527 383.708 134.638 383.41 134.86C383.115 135.082 382.891 135.392 382.738 135.79C382.586 136.187 382.51 136.652 382.51 137.182ZM394.885 130.818V141H393.399V130.818H394.885ZM399.107 141.169C398.623 141.169 398.186 141.08 397.795 140.901C397.404 140.718 397.094 140.455 396.865 140.11C396.64 139.765 396.527 139.343 396.527 138.842C396.527 138.411 396.61 138.057 396.776 137.778C396.941 137.5 397.165 137.28 397.447 137.117C397.729 136.955 398.043 136.832 398.391 136.749C398.739 136.666 399.094 136.603 399.455 136.56C399.913 136.507 400.284 136.464 400.569 136.431C400.854 136.395 401.061 136.337 401.19 136.257C401.32 136.178 401.384 136.048 401.384 135.869V135.835C401.384 135.4 401.262 135.064 401.016 134.825C400.774 134.587 400.413 134.467 399.933 134.467C399.432 134.467 399.038 134.578 398.749 134.8C398.464 135.019 398.267 135.263 398.158 135.531L396.761 135.213C396.926 134.749 397.168 134.375 397.487 134.089C397.808 133.801 398.178 133.592 398.595 133.463C399.013 133.33 399.452 133.264 399.913 133.264C400.218 133.264 400.541 133.301 400.882 133.374C401.227 133.443 401.548 133.572 401.847 133.761C402.148 133.95 402.395 134.22 402.587 134.572C402.78 134.92 402.876 135.372 402.876 135.929V141H401.424V139.956H401.364C401.268 140.148 401.124 140.337 400.932 140.523C400.74 140.708 400.493 140.862 400.191 140.985C399.89 141.108 399.528 141.169 399.107 141.169ZM399.43 139.976C399.841 139.976 400.193 139.895 400.484 139.732C400.779 139.57 401.003 139.358 401.156 139.096C401.311 138.831 401.389 138.547 401.389 138.246V137.261C401.336 137.314 401.234 137.364 401.081 137.411C400.932 137.454 400.761 137.492 400.569 137.525C400.377 137.555 400.189 137.583 400.007 137.609C399.825 137.633 399.672 137.652 399.55 137.669C399.261 137.705 398.998 137.767 398.759 137.853C398.524 137.939 398.335 138.063 398.193 138.226C398.053 138.385 397.984 138.597 397.984 138.862C397.984 139.23 398.12 139.509 398.391 139.697C398.663 139.883 399.01 139.976 399.43 139.976ZM404.975 141V130.818H406.462V134.602H406.551C406.637 134.442 406.762 134.259 406.924 134.05C407.086 133.841 407.312 133.659 407.6 133.503C407.888 133.344 408.27 133.264 408.744 133.264C409.36 133.264 409.91 133.42 410.394 133.732C410.878 134.043 411.257 134.492 411.533 135.079C411.811 135.665 411.95 136.371 411.95 137.197C411.95 138.022 411.813 138.73 411.538 139.32C411.262 139.906 410.885 140.359 410.404 140.677C409.923 140.992 409.375 141.149 408.758 141.149C408.294 141.149 407.915 141.071 407.62 140.915C407.328 140.76 407.1 140.577 406.934 140.369C406.768 140.16 406.641 139.974 406.551 139.812H406.427V141H404.975ZM406.432 137.182C406.432 137.719 406.51 138.189 406.665 138.594C406.821 138.998 407.047 139.315 407.342 139.543C407.637 139.769 407.998 139.881 408.425 139.881C408.869 139.881 409.241 139.764 409.539 139.528C409.837 139.29 410.063 138.967 410.215 138.559C410.371 138.151 410.449 137.692 410.449 137.182C410.449 136.678 410.373 136.226 410.22 135.825C410.071 135.424 409.846 135.107 409.544 134.875C409.246 134.643 408.873 134.527 408.425 134.527C407.994 134.527 407.63 134.638 407.332 134.86C407.037 135.082 406.813 135.392 406.66 135.79C406.508 136.187 406.432 136.652 406.432 137.182ZM416.911 141.154C416.158 141.154 415.51 140.993 414.967 140.672C414.426 140.347 414.009 139.891 413.714 139.305C413.422 138.715 413.276 138.024 413.276 137.232C413.276 136.449 413.422 135.76 413.714 135.163C414.009 134.567 414.42 134.101 414.947 133.766C415.477 133.432 416.097 133.264 416.806 133.264C417.237 133.264 417.655 133.335 418.059 133.478C418.463 133.621 418.826 133.844 419.148 134.149C419.469 134.454 419.723 134.85 419.908 135.337C420.094 135.821 420.187 136.41 420.187 137.102V137.629H414.117V136.516H418.73C418.73 136.125 418.651 135.778 418.492 135.477C418.332 135.172 418.109 134.931 417.82 134.756C417.535 134.58 417.201 134.492 416.816 134.492C416.399 134.492 416.034 134.595 415.722 134.8C415.414 135.003 415.176 135.268 415.006 135.596C414.841 135.921 414.758 136.274 414.758 136.655V137.525C414.758 138.035 414.847 138.469 415.026 138.827C415.209 139.185 415.462 139.459 415.787 139.648C416.112 139.833 416.491 139.926 416.926 139.926C417.207 139.926 417.464 139.886 417.696 139.807C417.928 139.724 418.129 139.601 418.298 139.439C418.467 139.277 418.596 139.076 418.685 138.837L420.092 139.091C419.98 139.505 419.778 139.868 419.486 140.18C419.198 140.488 418.835 140.728 418.397 140.901C417.963 141.07 417.467 141.154 416.911 141.154ZM423.323 130.818V141H421.836V130.818H423.323ZM429.822 136.053V137.341H425.308V136.053H429.822ZM434.025 141.169C433.541 141.169 433.104 141.08 432.713 140.901C432.322 140.718 432.012 140.455 431.783 140.11C431.558 139.765 431.445 139.343 431.445 138.842C431.445 138.411 431.528 138.057 431.694 137.778C431.859 137.5 432.083 137.28 432.365 137.117C432.647 136.955 432.961 136.832 433.309 136.749C433.657 136.666 434.012 136.603 434.373 136.56C434.831 136.507 435.202 136.464 435.487 136.431C435.772 136.395 435.979 136.337 436.108 136.257C436.238 136.178 436.302 136.048 436.302 135.869V135.835C436.302 135.4 436.18 135.064 435.934 134.825C435.692 134.587 435.331 134.467 434.851 134.467C434.35 134.467 433.956 134.578 433.667 134.8C433.382 135.019 433.185 135.263 433.076 135.531L431.679 135.213C431.844 134.749 432.086 134.375 432.405 134.089C432.726 133.801 433.096 133.592 433.513 133.463C433.931 133.33 434.37 133.264 434.831 133.264C435.136 133.264 435.459 133.301 435.8 133.374C436.145 133.443 436.466 133.572 436.765 133.761C437.066 133.95 437.313 134.22 437.505 134.572C437.698 134.92 437.794 135.372 437.794 135.929V141H436.342V139.956H436.282C436.186 140.148 436.042 140.337 435.85 140.523C435.658 140.708 435.411 140.862 435.109 140.985C434.807 141.108 434.446 141.169 434.025 141.169ZM434.348 139.976C434.759 139.976 435.111 139.895 435.402 139.732C435.697 139.57 435.921 139.358 436.074 139.096C436.229 138.831 436.307 138.547 436.307 138.246V137.261C436.254 137.314 436.151 137.364 435.999 137.411C435.85 137.454 435.679 137.492 435.487 137.525C435.295 137.555 435.107 137.583 434.925 137.609C434.743 137.633 434.59 137.652 434.468 137.669C434.179 137.705 433.916 137.767 433.677 137.853C433.442 137.939 433.253 138.063 433.111 138.226C432.971 138.385 432.902 138.597 432.902 138.862C432.902 139.23 433.038 139.509 433.309 139.697C433.581 139.883 433.928 139.976 434.348 139.976ZM442.99 141.154C442.251 141.154 441.615 140.987 441.081 140.652C440.551 140.314 440.143 139.848 439.858 139.255C439.573 138.662 439.431 137.982 439.431 137.217C439.431 136.441 439.576 135.757 439.868 135.163C440.16 134.567 440.571 134.101 441.101 133.766C441.631 133.432 442.256 133.264 442.975 133.264C443.555 133.264 444.072 133.372 444.527 133.587C444.981 133.799 445.347 134.098 445.625 134.482C445.907 134.867 446.074 135.316 446.127 135.83H444.681C444.601 135.472 444.419 135.163 444.134 134.905C443.852 134.646 443.474 134.517 443 134.517C442.586 134.517 442.223 134.626 441.911 134.845C441.603 135.061 441.363 135.369 441.191 135.77C441.018 136.168 440.932 136.638 440.932 137.182C440.932 137.739 441.017 138.219 441.186 138.624C441.355 139.028 441.593 139.341 441.902 139.563C442.213 139.785 442.579 139.896 443 139.896C443.282 139.896 443.537 139.845 443.766 139.742C443.998 139.636 444.192 139.485 444.348 139.29C444.507 139.094 444.618 138.859 444.681 138.584H446.127C446.074 139.078 445.914 139.518 445.645 139.906C445.377 140.294 445.017 140.599 444.566 140.821C444.119 141.043 443.594 141.154 442.99 141.154ZM451.282 133.364V134.557H447.111V133.364H451.282ZM448.229 131.534H449.716V138.758C449.716 139.046 449.759 139.263 449.845 139.409C449.931 139.552 450.042 139.649 450.178 139.702C450.317 139.752 450.468 139.777 450.63 139.777C450.75 139.777 450.854 139.769 450.944 139.752C451.033 139.736 451.103 139.722 451.152 139.712L451.421 140.94C451.335 140.973 451.212 141.007 451.053 141.04C450.894 141.076 450.695 141.096 450.456 141.099C450.065 141.106 449.701 141.036 449.363 140.891C449.025 140.745 448.751 140.519 448.542 140.214C448.334 139.91 448.229 139.527 448.229 139.066V131.534ZM452.926 141V133.364H454.413V141H452.926ZM453.677 132.185C453.418 132.185 453.196 132.099 453.011 131.927C452.828 131.751 452.737 131.542 452.737 131.3C452.737 131.055 452.828 130.846 453.011 130.674C453.196 130.498 453.418 130.411 453.677 130.411C453.935 130.411 454.156 130.498 454.338 130.674C454.524 130.846 454.616 131.055 454.616 131.3C454.616 131.542 454.524 131.751 454.338 131.927C454.156 132.099 453.935 132.185 453.677 132.185ZM462.945 133.364L460.176 141H458.585L455.811 133.364H457.407L459.341 139.24H459.42L461.349 133.364H462.945ZM467.373 141.154C466.621 141.154 465.973 140.993 465.43 140.672C464.889 140.347 464.472 139.891 464.177 139.305C463.885 138.715 463.739 138.024 463.739 137.232C463.739 136.449 463.885 135.76 464.177 135.163C464.472 134.567 464.883 134.101 465.41 133.766C465.94 133.432 466.56 133.264 467.269 133.264C467.7 133.264 468.118 133.335 468.522 133.478C468.926 133.621 469.289 133.844 469.611 134.149C469.932 134.454 470.186 134.85 470.371 135.337C470.557 135.821 470.65 136.41 470.65 137.102V137.629H464.579V136.516H469.193C469.193 136.125 469.114 135.778 468.954 135.477C468.795 135.172 468.572 134.931 468.283 134.756C467.998 134.58 467.664 134.492 467.279 134.492C466.861 134.492 466.497 134.595 466.185 134.8C465.877 135.003 465.638 135.268 465.469 135.596C465.304 135.921 465.221 136.274 465.221 136.655V137.525C465.221 138.035 465.31 138.469 465.489 138.827C465.672 139.185 465.925 139.459 466.25 139.648C466.575 139.833 466.954 139.926 467.388 139.926C467.67 139.926 467.927 139.886 468.159 139.807C468.391 139.724 468.592 139.601 468.761 139.439C468.93 139.277 469.059 139.076 469.148 138.837L470.555 139.091C470.443 139.505 470.24 139.868 469.949 140.18C469.66 140.488 469.297 140.728 468.86 140.901C468.426 141.07 467.93 141.154 467.373 141.154Z" fill="white" fill-opacity="0.95"/>
</g>
<rect x="248.5" y="108" width="150" height="2" fill="#3492EB"/>
<path fill-rule="evenodd" clip-rule="evenodd" d="M232.5 117C236.918 117 240.5 113.418 240.5 109C240.5 104.582 236.918 101 232.5 101C228.082 101 224.5 104.582 224.5 109C224.5 113.418 228.082 117 232.5 117Z" fill="#3492EB"/>
<g clip-path="url(#clip1_2031_6560)">
<path d="M200.705 140H199.123L198.129 137.452H193.327L192.319 140H190.821L194.965 129.92H196.575L200.705 140ZM195.749 131.348L193.789 136.29H197.667L195.749 131.348ZM205.942 138.026C205.942 137.615 205.727 137.307 205.298 137.102C205.046 136.99 204.556 136.85 203.828 136.682C202.932 136.486 202.293 136.201 201.91 135.828C201.593 135.511 201.434 135.095 201.434 134.582C201.434 133.901 201.709 133.378 202.26 133.014C202.755 132.678 203.422 132.51 204.262 132.51C205.13 132.51 205.835 132.725 206.376 133.154C206.843 133.527 207.132 134.022 207.244 134.638H205.872C205.713 133.929 205.172 133.574 204.248 133.574C203.735 133.574 203.352 133.667 203.1 133.854C202.895 134.013 202.792 134.213 202.792 134.456C202.792 134.755 202.904 134.979 203.128 135.128C203.361 135.277 203.814 135.427 204.486 135.576C205.513 135.8 206.227 136.075 206.628 136.402C207.076 136.766 207.3 137.275 207.3 137.928C207.3 138.656 207.001 139.23 206.404 139.65C205.863 140.023 205.149 140.21 204.262 140.21C203.291 140.21 202.521 139.977 201.952 139.51C201.457 139.099 201.182 138.567 201.126 137.914H202.498C202.647 138.735 203.24 139.146 204.276 139.146C204.836 139.146 205.27 139.025 205.578 138.782C205.821 138.586 205.942 138.334 205.942 138.026ZM212.997 138.026C212.997 137.615 212.782 137.307 212.353 137.102C212.101 136.99 211.611 136.85 210.883 136.682C209.987 136.486 209.347 136.201 208.965 135.828C208.647 135.511 208.489 135.095 208.489 134.582C208.489 133.901 208.764 133.378 209.315 133.014C209.809 132.678 210.477 132.51 211.317 132.51C212.185 132.51 212.889 132.725 213.431 133.154C213.897 133.527 214.187 134.022 214.299 134.638H212.927C212.768 133.929 212.227 133.574 211.303 133.574C210.789 133.574 210.407 133.667 210.155 133.854C209.949 134.013 209.847 134.213 209.847 134.456C209.847 134.755 209.959 134.979 210.183 135.128C210.416 135.277 210.869 135.427 211.541 135.576C212.567 135.8 213.281 136.075 213.683 136.402C214.131 136.766 214.355 137.275 214.355 137.928C214.355 138.656 214.056 139.23 213.459 139.65C212.917 140.023 212.203 140.21 211.317 140.21C210.346 140.21 209.576 139.977 209.007 139.51C208.512 139.099 208.237 138.567 208.181 137.914H209.553C209.702 138.735 210.295 139.146 211.331 139.146C211.891 139.146 212.325 139.025 212.633 138.782C212.875 138.586 212.997 138.334 212.997 138.026ZM217.319 131.502H215.807V129.92H217.319V131.502ZM217.235 140H215.891V132.72H217.235V140ZM219.116 140.49H220.558C220.623 140.863 220.81 141.153 221.118 141.358C221.435 141.563 221.85 141.666 222.364 141.666C223.082 141.666 223.619 141.479 223.974 141.106C224.272 140.789 224.422 140.345 224.422 139.776V138.838C223.88 139.473 223.073 139.79 222 139.79C221.029 139.79 220.24 139.44 219.634 138.74C219.064 138.087 218.78 137.237 218.78 136.192C218.78 134.979 219.125 134.041 219.816 133.378C220.404 132.799 221.16 132.51 222.084 132.51C223.129 132.51 223.918 132.902 224.45 133.686L224.66 132.72H225.766V139.846C225.766 140.761 225.434 141.479 224.772 142.002C224.174 142.487 223.386 142.73 222.406 142.73C221.388 142.73 220.59 142.501 220.012 142.044C219.526 141.661 219.228 141.143 219.116 140.49ZM220.18 136.22C220.18 137.013 220.413 137.634 220.88 138.082C221.262 138.455 221.734 138.642 222.294 138.642C223.031 138.642 223.596 138.399 223.988 137.914C224.324 137.503 224.492 136.953 224.492 136.262C224.492 135.375 224.263 134.699 223.806 134.232C223.423 133.849 222.919 133.658 222.294 133.658C221.603 133.658 221.071 133.896 220.698 134.372C220.352 134.82 220.18 135.436 220.18 136.22ZM229.075 140H227.731V132.72H228.837L228.991 133.644C229.532 132.888 230.27 132.51 231.203 132.51C232.062 132.51 232.72 132.776 233.177 133.308C233.578 133.784 233.779 134.433 233.779 135.254V140H232.435V135.268C232.435 134.195 231.917 133.658 230.881 133.658C230.34 133.658 229.896 133.845 229.551 134.218C229.234 134.554 229.075 134.983 229.075 135.506V140ZM239.802 132.72H241.146V137.494C241.146 138.539 241.65 139.062 242.658 139.062C243.274 139.062 243.745 138.843 244.072 138.404C244.324 138.068 244.45 137.653 244.45 137.158V132.72H245.794V140H244.688L244.534 139.16C244.02 139.86 243.292 140.21 242.35 140.21C241.519 140.21 240.88 139.953 240.432 139.44C240.012 138.964 239.802 138.306 239.802 137.466V132.72ZM252.016 138.026C252.016 137.615 251.802 137.307 251.372 137.102C251.12 136.99 250.63 136.85 249.902 136.682C249.006 136.486 248.367 136.201 247.984 135.828C247.667 135.511 247.508 135.095 247.508 134.582C247.508 133.901 247.784 133.378 248.334 133.014C248.829 132.678 249.496 132.51 250.336 132.51C251.204 132.51 251.909 132.725 252.45 133.154C252.917 133.527 253.206 134.022 253.318 134.638H251.946C251.788 133.929 251.246 133.574 250.322 133.574C249.809 133.574 249.426 133.667 249.174 133.854C248.969 134.013 248.866 134.213 248.866 134.456C248.866 134.755 248.978 134.979 249.202 135.128C249.436 135.277 249.888 135.427 250.56 135.576C251.587 135.8 252.301 136.075 252.702 136.402C253.15 136.766 253.374 137.275 253.374 137.928C253.374 138.656 253.076 139.23 252.478 139.65C251.937 140.023 251.223 140.21 250.336 140.21C249.366 140.21 248.596 139.977 248.026 139.51C247.532 139.099 247.256 138.567 247.2 137.914H248.572C248.722 138.735 249.314 139.146 250.35 139.146C250.91 139.146 251.344 139.025 251.652 138.782C251.895 138.586 252.016 138.334 252.016 138.026ZM259.867 137.9H261.323C261.117 138.637 260.711 139.216 260.105 139.636C259.535 140.019 258.854 140.21 258.061 140.21C256.913 140.21 256.017 139.846 255.373 139.118C254.785 138.437 254.491 137.517 254.491 136.36C254.491 135.044 254.864 134.045 255.611 133.364C256.227 132.795 257.02 132.51 257.991 132.51C259.129 132.51 259.988 132.879 260.567 133.616C261.127 134.325 261.407 135.338 261.407 136.654H255.863C255.919 137.513 256.18 138.152 256.647 138.572C257.029 138.908 257.515 139.076 258.103 139.076C258.56 139.076 258.957 138.95 259.293 138.698C259.573 138.483 259.764 138.217 259.867 137.9ZM258.019 133.588C257.421 133.588 256.941 133.775 256.577 134.148C256.231 134.493 256.012 134.974 255.919 135.59H260.035C259.988 134.89 259.755 134.367 259.335 134.022C258.999 133.733 258.56 133.588 258.019 133.588ZM264.362 140H263.018V132.72H264.124L264.306 133.798C264.717 132.939 265.333 132.51 266.154 132.51C266.425 132.51 266.691 132.543 266.952 132.608V133.952C266.635 133.868 266.35 133.826 266.098 133.826C265.557 133.826 265.132 134.045 264.824 134.484C264.516 134.923 264.362 135.543 264.362 136.346V140ZM272.264 138.026C272.264 137.615 272.05 137.307 271.62 137.102C271.368 136.99 270.878 136.85 270.15 136.682C269.254 136.486 268.615 136.201 268.232 135.828C267.915 135.511 267.756 135.095 267.756 134.582C267.756 133.901 268.032 133.378 268.582 133.014C269.077 132.678 269.744 132.51 270.584 132.51C271.452 132.51 272.157 132.725 272.698 133.154C273.165 133.527 273.454 134.022 273.566 134.638H272.194C272.036 133.929 271.494 133.574 270.57 133.574C270.057 133.574 269.674 133.667 269.422 133.854C269.217 134.013 269.114 134.213 269.114 134.456C269.114 134.755 269.226 134.979 269.45 135.128C269.684 135.277 270.136 135.427 270.808 135.576C271.835 135.8 272.549 136.075 272.95 136.402C273.398 136.766 273.622 137.275 273.622 137.928C273.622 138.656 273.324 139.23 272.726 139.65C272.185 140.023 271.471 140.21 270.584 140.21C269.614 140.21 268.844 139.977 268.274 139.51C267.78 139.099 267.504 138.567 267.448 137.914H268.82C268.97 138.735 269.562 139.146 270.598 139.146C271.158 139.146 271.592 139.025 271.9 138.782C272.143 138.586 272.264 138.334 272.264 138.026Z" fill="white" fill-opacity="0.95"/>
</g>
<defs>
<clipPath id="clip0_2031_6560">
<rect width="114" height="21" fill="white" transform="translate(357.5 125)"/>
</clipPath>
<clipPath id="clip1_2031_6560">
<rect width="160" height="21" fill="white" transform="translate(152.5 125)"/>
</clipPath>
</defs>
</svg>
