<svg width="1300" height="247" viewBox="0 0 1300 247" fill="none" xmlns="http://www.w3.org/2000/svg">
<rect width="1300" height="247" rx="24" fill="#262626"/>
<path d="M475 109C475 112.866 471.866 116 468 116C464.134 116 461 112.866 461 109C461 105.134 464.134 102 468 102C471.866 102 475 105.134 475 109Z" stroke="#64B4FA" stroke-width="2"/>
<g clip-path="url(#clip0_2031_6560)">
<path d="M451.268 140V129.818H452.501V138.906H457.234V140H451.268ZM461.231 140.179C460.747 140.179 460.308 140.088 459.914 139.906C459.519 139.72 459.206 139.453 458.974 139.105C458.742 138.754 458.626 138.33 458.626 137.832C458.626 137.395 458.712 137.04 458.885 136.768C459.057 136.493 459.287 136.278 459.576 136.122C459.864 135.966 460.182 135.85 460.53 135.774C460.882 135.695 461.234 135.632 461.589 135.585C462.053 135.526 462.429 135.481 462.718 135.451C463.009 135.418 463.221 135.363 463.354 135.287C463.49 135.211 463.558 135.078 463.558 134.889V134.849C463.558 134.359 463.424 133.978 463.155 133.706C462.89 133.434 462.487 133.298 461.947 133.298C461.387 133.298 460.948 133.421 460.63 133.666C460.311 133.911 460.088 134.173 459.958 134.452L458.845 134.054C459.044 133.59 459.309 133.229 459.64 132.97C459.975 132.708 460.34 132.526 460.734 132.423C461.132 132.317 461.523 132.264 461.907 132.264C462.153 132.264 462.434 132.294 462.752 132.354C463.074 132.41 463.384 132.528 463.682 132.707C463.984 132.886 464.234 133.156 464.433 133.517C464.632 133.878 464.731 134.362 464.731 134.969V140H463.558V138.966H463.498C463.419 139.132 463.286 139.309 463.1 139.498C462.915 139.687 462.668 139.848 462.36 139.98C462.051 140.113 461.675 140.179 461.231 140.179ZM461.41 139.125C461.874 139.125 462.265 139.034 462.583 138.852C462.905 138.669 463.147 138.434 463.309 138.146C463.475 137.857 463.558 137.554 463.558 137.236V136.162C463.508 136.222 463.399 136.276 463.23 136.326C463.064 136.372 462.872 136.414 462.653 136.45C462.438 136.483 462.227 136.513 462.022 136.54C461.819 136.563 461.655 136.583 461.529 136.599C461.225 136.639 460.94 136.704 460.674 136.793C460.413 136.879 460.2 137.01 460.038 137.186C459.879 137.358 459.799 137.594 459.799 137.892C459.799 138.3 459.95 138.608 460.252 138.817C460.557 139.022 460.943 139.125 461.41 139.125ZM467.032 140V129.818H468.205V133.577H468.305C468.391 133.444 468.51 133.275 468.662 133.07C468.818 132.861 469.04 132.675 469.329 132.513C469.62 132.347 470.015 132.264 470.512 132.264C471.155 132.264 471.722 132.425 472.212 132.746C472.703 133.068 473.086 133.524 473.361 134.114C473.636 134.704 473.773 135.4 473.773 136.202C473.773 137.01 473.636 137.711 473.361 138.305C473.086 138.895 472.704 139.352 472.217 139.677C471.73 139.998 471.168 140.159 470.532 140.159C470.041 140.159 469.648 140.078 469.354 139.915C469.059 139.75 468.831 139.562 468.672 139.354C468.513 139.142 468.391 138.966 468.305 138.827H468.165V140H467.032ZM468.185 136.182C468.185 136.759 468.27 137.267 468.439 137.708C468.608 138.146 468.855 138.489 469.18 138.737C469.504 138.982 469.902 139.105 470.373 139.105C470.863 139.105 471.273 138.976 471.601 138.717C471.932 138.455 472.181 138.104 472.346 137.663C472.515 137.219 472.6 136.725 472.6 136.182C472.6 135.645 472.517 135.161 472.351 134.73C472.189 134.296 471.942 133.953 471.611 133.701C471.282 133.446 470.87 133.318 470.373 133.318C469.895 133.318 469.494 133.439 469.17 133.681C468.845 133.92 468.599 134.254 468.434 134.685C468.268 135.113 468.185 135.612 468.185 136.182ZM478.77 140.159C478.034 140.159 477.399 139.997 476.866 139.672C476.335 139.344 475.926 138.886 475.638 138.3C475.353 137.71 475.21 137.024 475.21 136.241C475.21 135.459 475.353 134.77 475.638 134.173C475.926 133.573 476.327 133.106 476.841 132.771C477.358 132.433 477.961 132.264 478.65 132.264C479.048 132.264 479.441 132.33 479.829 132.463C480.216 132.596 480.569 132.811 480.888 133.109C481.206 133.404 481.459 133.795 481.648 134.283C481.837 134.77 481.932 135.37 481.932 136.082V136.58H476.045V135.565H480.738C480.738 135.134 480.652 134.75 480.48 134.412C480.311 134.074 480.069 133.807 479.754 133.612C479.443 133.416 479.075 133.318 478.65 133.318C478.183 133.318 477.779 133.434 477.437 133.666C477.099 133.895 476.839 134.193 476.657 134.561C476.474 134.929 476.383 135.323 476.383 135.744V136.42C476.383 136.997 476.483 137.486 476.682 137.887C476.884 138.285 477.164 138.588 477.522 138.797C477.88 139.002 478.296 139.105 478.77 139.105C479.078 139.105 479.356 139.062 479.605 138.976C479.857 138.886 480.074 138.754 480.256 138.578C480.439 138.399 480.579 138.177 480.679 137.912L481.812 138.23C481.693 138.615 481.492 138.953 481.211 139.244C480.929 139.533 480.581 139.758 480.167 139.92C479.752 140.08 479.287 140.159 478.77 140.159ZM484.89 129.818V140H483.716V129.818H484.89Z" fill="white" fill-opacity="0.7"/>
</g>
<path d="M571 109C571 112.866 567.866 116 564 116C560.134 116 557 112.866 557 109C557 105.134 560.134 102 564 102C567.866 102 571 105.134 571 109Z" stroke="#64B4FA" stroke-width="2"/>
<g clip-path="url(#clip1_2031_6560)">
<path d="M513.872 133.493C513.819 133.022 513.6 132.658 513.216 132.399C512.831 132.137 512.347 132.006 511.764 132.006C511.347 132.006 510.985 132.073 510.68 132.205C510.375 132.335 510.138 132.513 509.969 132.742C509.804 132.968 509.721 133.224 509.721 133.513C509.721 133.755 509.777 133.964 509.89 134.139C510.006 134.315 510.157 134.462 510.342 134.582C510.531 134.698 510.733 134.795 510.949 134.875C511.164 134.951 511.371 135.014 511.57 135.064L512.565 135.322C512.889 135.402 513.222 135.51 513.564 135.646C513.905 135.781 514.222 135.96 514.513 136.183C514.805 136.405 515.04 136.68 515.219 137.008C515.402 137.336 515.493 137.729 515.493 138.186C515.493 138.763 515.344 139.275 515.045 139.722C514.75 140.17 514.321 140.523 513.758 140.781C513.198 141.04 512.52 141.169 511.724 141.169C510.962 141.169 510.302 141.048 509.746 140.806C509.189 140.564 508.753 140.221 508.438 139.777C508.123 139.33 507.949 138.799 507.916 138.186H509.457C509.487 138.554 509.606 138.861 509.815 139.106C510.027 139.348 510.297 139.528 510.626 139.648C510.957 139.764 511.32 139.822 511.714 139.822C512.149 139.822 512.535 139.754 512.873 139.618C513.214 139.479 513.483 139.286 513.678 139.041C513.874 138.793 513.972 138.503 513.972 138.171C513.972 137.87 513.885 137.623 513.713 137.43C513.544 137.238 513.314 137.079 513.022 136.953C512.734 136.827 512.407 136.716 512.043 136.62L510.839 136.292C510.024 136.07 509.378 135.743 508.9 135.312C508.427 134.882 508.19 134.312 508.19 133.602C508.19 133.016 508.349 132.504 508.667 132.066C508.985 131.629 509.416 131.289 509.959 131.047C510.503 130.802 511.116 130.679 511.799 130.679C512.488 130.679 513.097 130.8 513.623 131.042C514.154 131.284 514.571 131.617 514.876 132.041C515.181 132.462 515.34 132.946 515.354 133.493H513.872ZM520.774 133.364V134.557H516.603V133.364H520.774ZM517.721 131.534H519.208V138.758C519.208 139.046 519.251 139.263 519.337 139.409C519.423 139.552 519.534 139.649 519.67 139.702C519.809 139.752 519.96 139.777 520.123 139.777C520.242 139.777 520.346 139.769 520.436 139.752C520.525 139.736 520.595 139.722 520.645 139.712L520.913 140.94C520.827 140.973 520.704 141.007 520.545 141.04C520.386 141.076 520.187 141.096 519.949 141.099C519.557 141.106 519.193 141.036 518.855 140.891C518.517 140.745 518.243 140.519 518.035 140.214C517.826 139.91 517.721 139.527 517.721 139.066V131.534ZM525.627 141.154C524.875 141.154 524.227 140.993 523.684 140.672C523.143 140.347 522.726 139.891 522.431 139.305C522.139 138.715 521.993 138.024 521.993 137.232C521.993 136.449 522.139 135.76 522.431 135.163C522.726 134.567 523.137 134.101 523.664 133.766C524.194 133.432 524.814 133.264 525.523 133.264C525.954 133.264 526.371 133.335 526.776 133.478C527.18 133.621 527.543 133.844 527.865 134.149C528.186 134.454 528.44 134.85 528.625 135.337C528.811 135.821 528.904 136.41 528.904 137.102V137.629H522.833V136.516H527.447C527.447 136.125 527.367 135.778 527.208 135.477C527.049 135.172 526.826 134.931 526.537 134.756C526.252 134.58 525.917 134.492 525.533 134.492C525.115 134.492 524.751 134.595 524.439 134.8C524.131 135.003 523.892 135.268 523.723 135.596C523.558 135.921 523.475 136.274 523.475 136.655V137.525C523.475 138.035 523.564 138.469 523.743 138.827C523.925 139.185 524.179 139.459 524.504 139.648C524.829 139.833 525.208 139.926 525.642 139.926C525.924 139.926 526.181 139.886 526.413 139.807C526.645 139.724 526.845 139.601 527.014 139.439C527.184 139.277 527.313 139.076 527.402 138.837L528.809 139.091C528.697 139.505 528.494 139.868 528.203 140.18C527.914 140.488 527.551 140.728 527.114 140.901C526.68 141.07 526.184 141.154 525.627 141.154ZM530.553 143.864V133.364H532.005V134.602H532.129C532.215 134.442 532.339 134.259 532.502 134.05C532.664 133.841 532.89 133.659 533.178 133.503C533.466 133.344 533.848 133.264 534.321 133.264C534.938 133.264 535.488 133.42 535.972 133.732C536.456 134.043 536.835 134.492 537.111 135.079C537.389 135.665 537.528 136.371 537.528 137.197C537.528 138.022 537.391 138.73 537.116 139.32C536.84 139.906 536.463 140.359 535.982 140.677C535.501 140.992 534.953 141.149 534.336 141.149C533.872 141.149 533.493 141.071 533.198 140.915C532.906 140.76 532.678 140.577 532.512 140.369C532.346 140.16 532.218 139.974 532.129 139.812H532.04V143.864H530.553ZM532.01 137.182C532.01 137.719 532.088 138.189 532.243 138.594C532.399 138.998 532.624 139.315 532.919 139.543C533.214 139.769 533.576 139.881 534.003 139.881C534.447 139.881 534.819 139.764 535.117 139.528C535.415 139.29 535.641 138.967 535.793 138.559C535.949 138.151 536.027 137.692 536.027 137.182C536.027 136.678 535.95 136.226 535.798 135.825C535.649 135.424 535.424 135.107 535.122 134.875C534.824 134.643 534.451 134.527 534.003 134.527C533.572 134.527 533.208 134.638 532.91 134.86C532.615 135.082 532.391 135.392 532.238 135.79C532.086 136.187 532.01 136.652 532.01 137.182ZM544.385 130.818V141H542.899V130.818H544.385ZM548.607 141.169C548.123 141.169 547.686 141.08 547.295 140.901C546.904 140.718 546.594 140.455 546.365 140.11C546.14 139.765 546.027 139.343 546.027 138.842C546.027 138.411 546.11 138.057 546.276 137.778C546.441 137.5 546.665 137.28 546.947 137.117C547.229 136.955 547.543 136.832 547.891 136.749C548.239 136.666 548.594 136.603 548.955 136.56C549.413 136.507 549.784 136.464 550.069 136.431C550.354 136.395 550.561 136.337 550.69 136.257C550.82 136.178 550.884 136.048 550.884 135.869V135.835C550.884 135.4 550.762 135.064 550.516 134.825C550.274 134.587 549.913 134.467 549.433 134.467C548.932 134.467 548.538 134.578 548.249 134.8C547.964 135.019 547.767 135.263 547.658 135.531L546.261 135.213C546.426 134.749 546.668 134.375 546.987 134.089C547.308 133.801 547.678 133.592 548.095 133.463C548.513 133.33 548.952 133.264 549.413 133.264C549.718 133.264 550.041 133.301 550.382 133.374C550.727 133.443 551.048 133.572 551.347 133.761C551.648 133.95 551.895 134.22 552.087 134.572C552.28 134.92 552.376 135.372 552.376 135.929V141H550.924V139.956H550.864C550.768 140.148 550.624 140.337 550.432 140.523C550.24 140.708 549.993 140.862 549.691 140.985C549.39 141.108 549.028 141.169 548.607 141.169ZM548.93 139.976C549.341 139.976 549.693 139.895 549.984 139.732C550.279 139.57 550.503 139.358 550.656 139.096C550.811 138.831 550.889 138.547 550.889 138.246V137.261C550.836 137.314 550.734 137.364 550.581 137.411C550.432 137.454 550.261 137.492 550.069 137.525C549.877 137.555 549.689 137.583 549.507 137.609C549.325 137.633 549.172 137.652 549.05 137.669C548.761 137.705 548.498 137.767 548.259 137.853C548.024 137.939 547.835 138.063 547.693 138.226C547.553 138.385 547.484 138.597 547.484 138.862C547.484 139.23 547.62 139.509 547.891 139.697C548.163 139.883 548.51 139.976 548.93 139.976ZM554.475 141V130.818H555.962V134.602H556.051C556.137 134.442 556.262 134.259 556.424 134.05C556.586 133.841 556.812 133.659 557.1 133.503C557.388 133.344 557.77 133.264 558.244 133.264C558.86 133.264 559.41 133.42 559.894 133.732C560.378 134.043 560.757 134.492 561.033 135.079C561.311 135.665 561.45 136.371 561.45 137.197C561.45 138.022 561.313 138.73 561.038 139.32C560.762 139.906 560.385 140.359 559.904 140.677C559.423 140.992 558.875 141.149 558.258 141.149C557.794 141.149 557.415 141.071 557.12 140.915C556.828 140.76 556.6 140.577 556.434 140.369C556.268 140.16 556.141 139.974 556.051 139.812H555.927V141H554.475ZM555.932 137.182C555.932 137.719 556.01 138.189 556.165 138.594C556.321 138.998 556.547 139.315 556.842 139.543C557.137 139.769 557.498 139.881 557.925 139.881C558.369 139.881 558.741 139.764 559.039 139.528C559.337 139.29 559.563 138.967 559.715 138.559C559.871 138.151 559.949 137.692 559.949 137.182C559.949 136.678 559.873 136.226 559.72 135.825C559.571 135.424 559.346 135.107 559.044 134.875C558.746 134.643 558.373 134.527 557.925 134.527C557.494 134.527 557.13 134.638 556.832 134.86C556.537 135.082 556.313 135.392 556.16 135.79C556.008 136.187 555.932 136.652 555.932 137.182ZM566.411 141.154C565.658 141.154 565.01 140.993 564.467 140.672C563.926 140.347 563.509 139.891 563.214 139.305C562.922 138.715 562.776 138.024 562.776 137.232C562.776 136.449 562.922 135.76 563.214 135.163C563.509 134.567 563.92 134.101 564.447 133.766C564.977 133.432 565.597 133.264 566.306 133.264C566.737 133.264 567.155 133.335 567.559 133.478C567.963 133.621 568.326 133.844 568.648 134.149C568.969 134.454 569.223 134.85 569.408 135.337C569.594 135.821 569.687 136.41 569.687 137.102V137.629H563.617V136.516H568.23C568.23 136.125 568.151 135.778 567.992 135.477C567.832 135.172 567.609 134.931 567.32 134.756C567.035 134.58 566.701 134.492 566.316 134.492C565.899 134.492 565.534 134.595 565.222 134.8C564.914 135.003 564.676 135.268 564.506 135.596C564.341 135.921 564.258 136.274 564.258 136.655V137.525C564.258 138.035 564.347 138.469 564.526 138.827C564.709 139.185 564.962 139.459 565.287 139.648C565.612 139.833 565.991 139.926 566.426 139.926C566.707 139.926 566.964 139.886 567.196 139.807C567.428 139.724 567.629 139.601 567.798 139.439C567.967 139.277 568.096 139.076 568.185 138.837L569.592 139.091C569.48 139.505 569.278 139.868 568.986 140.18C568.698 140.488 568.335 140.728 567.897 140.901C567.463 141.07 566.967 141.154 566.411 141.154ZM572.823 130.818V141H571.336V130.818H572.823ZM579.322 136.053V137.341H574.808V136.053H579.322ZM583.525 141.169C583.041 141.169 582.604 141.08 582.213 140.901C581.822 140.718 581.512 140.455 581.283 140.11C581.058 139.765 580.945 139.343 580.945 138.842C580.945 138.411 581.028 138.057 581.194 137.778C581.359 137.5 581.583 137.28 581.865 137.117C582.147 136.955 582.461 136.832 582.809 136.749C583.157 136.666 583.512 136.603 583.873 136.56C584.331 136.507 584.702 136.464 584.987 136.431C585.272 136.395 585.479 136.337 585.608 136.257C585.738 136.178 585.802 136.048 585.802 135.869V135.835C585.802 135.4 585.68 135.064 585.434 134.825C585.192 134.587 584.831 134.467 584.351 134.467C583.85 134.467 583.456 134.578 583.167 134.8C582.882 135.019 582.685 135.263 582.576 135.531L581.179 135.213C581.344 134.749 581.586 134.375 581.905 134.089C582.226 133.801 582.596 133.592 583.013 133.463C583.431 133.33 583.87 133.264 584.331 133.264C584.636 133.264 584.959 133.301 585.3 133.374C585.645 133.443 585.966 133.572 586.265 133.761C586.566 133.95 586.813 134.22 587.005 134.572C587.198 134.92 587.294 135.372 587.294 135.929V141H585.842V139.956H585.782C585.686 140.148 585.542 140.337 585.35 140.523C585.158 140.708 584.911 140.862 584.609 140.985C584.307 141.108 583.946 141.169 583.525 141.169ZM583.848 139.976C584.259 139.976 584.611 139.895 584.902 139.732C585.197 139.57 585.421 139.358 585.574 139.096C585.729 138.831 585.807 138.547 585.807 138.246V137.261C585.754 137.314 585.651 137.364 585.499 137.411C585.35 137.454 585.179 137.492 584.987 137.525C584.795 137.555 584.607 137.583 584.425 137.609C584.243 137.633 584.09 137.652 583.968 137.669C583.679 137.705 583.416 137.767 583.177 137.853C582.942 137.939 582.753 138.063 582.611 138.226C582.471 138.385 582.402 138.597 582.402 138.862C582.402 139.23 582.538 139.509 582.809 139.697C583.081 139.883 583.428 139.976 583.848 139.976ZM592.49 141.154C591.751 141.154 591.115 140.987 590.581 140.652C590.051 140.314 589.643 139.848 589.358 139.255C589.073 138.662 588.931 137.982 588.931 137.217C588.931 136.441 589.076 135.757 589.368 135.163C589.66 134.567 590.071 134.101 590.601 133.766C591.131 133.432 591.756 133.264 592.475 133.264C593.055 133.264 593.572 133.372 594.027 133.587C594.481 133.799 594.847 134.098 595.125 134.482C595.407 134.867 595.574 135.316 595.627 135.83H594.181C594.101 135.472 593.919 135.163 593.634 134.905C593.352 134.646 592.974 134.517 592.5 134.517C592.086 134.517 591.723 134.626 591.411 134.845C591.103 135.061 590.863 135.369 590.691 135.77C590.518 136.168 590.432 136.638 590.432 137.182C590.432 137.739 590.517 138.219 590.686 138.624C590.855 139.028 591.093 139.341 591.402 139.563C591.713 139.785 592.079 139.896 592.5 139.896C592.782 139.896 593.037 139.845 593.266 139.742C593.498 139.636 593.692 139.485 593.848 139.29C594.007 139.094 594.118 138.859 594.181 138.584H595.627C595.574 139.078 595.414 139.518 595.145 139.906C594.877 140.294 594.517 140.599 594.066 140.821C593.619 141.043 593.094 141.154 592.49 141.154ZM600.782 133.364V134.557H596.611V133.364H600.782ZM597.729 131.534H599.216V138.758C599.216 139.046 599.259 139.263 599.345 139.409C599.431 139.552 599.542 139.649 599.678 139.702C599.817 139.752 599.968 139.777 600.13 139.777C600.25 139.777 600.354 139.769 600.444 139.752C600.533 139.736 600.603 139.722 600.652 139.712L600.921 140.94C600.835 140.973 600.712 141.007 600.553 141.04C600.394 141.076 600.195 141.096 599.956 141.099C599.565 141.106 599.201 141.036 598.863 140.891C598.525 140.745 598.251 140.519 598.042 140.214C597.834 139.91 597.729 139.527 597.729 139.066V131.534ZM602.426 141V133.364H603.913V141H602.426ZM603.177 132.185C602.918 132.185 602.696 132.099 602.511 131.927C602.328 131.751 602.237 131.542 602.237 131.3C602.237 131.055 602.328 130.846 602.511 130.674C602.696 130.498 602.918 130.411 603.177 130.411C603.435 130.411 603.656 130.498 603.838 130.674C604.024 130.846 604.116 131.055 604.116 131.3C604.116 131.542 604.024 131.751 603.838 131.927C603.656 132.099 603.435 132.185 603.177 132.185ZM612.445 133.364L609.676 141H608.085L605.311 133.364H606.907L608.841 139.24H608.92L610.849 133.364H612.445ZM616.873 141.154C616.121 141.154 615.473 140.993 614.93 140.672C614.389 140.347 613.972 139.891 613.677 139.305C613.385 138.715 613.239 138.024 613.239 137.232C613.239 136.449 613.385 135.76 613.677 135.163C613.972 134.567 614.383 134.101 614.91 133.766C615.44 133.432 616.06 133.264 616.769 133.264C617.2 133.264 617.618 133.335 618.022 133.478C618.426 133.621 618.789 133.844 619.111 134.149C619.432 134.454 619.686 134.85 619.871 135.337C620.057 135.821 620.15 136.41 620.15 137.102V137.629H614.079V136.516H618.693C618.693 136.125 618.614 135.778 618.454 135.477C618.295 135.172 618.072 134.931 617.783 134.756C617.498 134.58 617.164 134.492 616.779 134.492C616.361 134.492 615.997 134.595 615.685 134.8C615.377 135.003 615.138 135.268 614.969 135.596C614.804 135.921 614.721 136.274 614.721 136.655V137.525C614.721 138.035 614.81 138.469 614.989 138.827C615.172 139.185 615.425 139.459 615.75 139.648C616.075 139.833 616.454 139.926 616.888 139.926C617.17 139.926 617.427 139.886 617.659 139.807C617.891 139.724 618.092 139.601 618.261 139.439C618.43 139.277 618.559 139.076 618.648 138.837L620.055 139.091C619.943 139.505 619.74 139.868 619.449 140.18C619.16 140.488 618.797 140.728 618.36 140.901C617.926 141.07 617.43 141.154 616.873 141.154Z" fill="white" fill-opacity="0.95"/>
</g>
<rect x="580" y="108" width="150" height="2" fill="#8F8F8F"/>
<path fill-rule="evenodd" clip-rule="evenodd" d="M746 117C750.418 117 754 113.418 754 109C754 104.582 750.418 101 746 101C741.582 101 738 104.582 738 109C738 113.418 741.582 117 746 117Z" fill="#3492EB"/>
<g clip-path="url(#clip2_2031_6560)">
<path d="M714.205 140H712.623L711.629 137.452H706.827L705.819 140H704.321L708.465 129.92H710.075L714.205 140ZM709.249 131.348L707.289 136.29H711.167L709.249 131.348ZM719.442 138.026C719.442 137.615 719.227 137.307 718.798 137.102C718.546 136.99 718.056 136.85 717.328 136.682C716.432 136.486 715.793 136.201 715.41 135.828C715.093 135.511 714.934 135.095 714.934 134.582C714.934 133.901 715.209 133.378 715.76 133.014C716.255 132.678 716.922 132.51 717.762 132.51C718.63 132.51 719.335 132.725 719.876 133.154C720.343 133.527 720.632 134.022 720.744 134.638H719.372C719.213 133.929 718.672 133.574 717.748 133.574C717.235 133.574 716.852 133.667 716.6 133.854C716.395 134.013 716.292 134.213 716.292 134.456C716.292 134.755 716.404 134.979 716.628 135.128C716.861 135.277 717.314 135.427 717.986 135.576C719.013 135.8 719.727 136.075 720.128 136.402C720.576 136.766 720.8 137.275 720.8 137.928C720.8 138.656 720.501 139.23 719.904 139.65C719.363 140.023 718.649 140.21 717.762 140.21C716.791 140.21 716.021 139.977 715.452 139.51C714.957 139.099 714.682 138.567 714.626 137.914H715.998C716.147 138.735 716.74 139.146 717.776 139.146C718.336 139.146 718.77 139.025 719.078 138.782C719.321 138.586 719.442 138.334 719.442 138.026ZM726.497 138.026C726.497 137.615 726.282 137.307 725.853 137.102C725.601 136.99 725.111 136.85 724.383 136.682C723.487 136.486 722.847 136.201 722.465 135.828C722.147 135.511 721.989 135.095 721.989 134.582C721.989 133.901 722.264 133.378 722.815 133.014C723.309 132.678 723.977 132.51 724.817 132.51C725.685 132.51 726.389 132.725 726.931 133.154C727.397 133.527 727.687 134.022 727.799 134.638H726.427C726.268 133.929 725.727 133.574 724.803 133.574C724.289 133.574 723.907 133.667 723.655 133.854C723.449 134.013 723.347 134.213 723.347 134.456C723.347 134.755 723.459 134.979 723.683 135.128C723.916 135.277 724.369 135.427 725.041 135.576C726.067 135.8 726.781 136.075 727.183 136.402C727.631 136.766 727.855 137.275 727.855 137.928C727.855 138.656 727.556 139.23 726.959 139.65C726.417 140.023 725.703 140.21 724.817 140.21C723.846 140.21 723.076 139.977 722.507 139.51C722.012 139.099 721.737 138.567 721.681 137.914H723.053C723.202 138.735 723.795 139.146 724.831 139.146C725.391 139.146 725.825 139.025 726.133 138.782C726.375 138.586 726.497 138.334 726.497 138.026ZM730.819 131.502H729.307V129.92H730.819V131.502ZM730.735 140H729.391V132.72H730.735V140ZM732.616 140.49H734.058C734.123 140.863 734.31 141.153 734.618 141.358C734.935 141.563 735.35 141.666 735.864 141.666C736.582 141.666 737.119 141.479 737.474 141.106C737.772 140.789 737.922 140.345 737.922 139.776V138.838C737.38 139.473 736.573 139.79 735.5 139.79C734.529 139.79 733.74 139.44 733.134 138.74C732.564 138.087 732.28 137.237 732.28 136.192C732.28 134.979 732.625 134.041 733.316 133.378C733.904 132.799 734.66 132.51 735.584 132.51C736.629 132.51 737.418 132.902 737.95 133.686L738.16 132.72H739.266V139.846C739.266 140.761 738.934 141.479 738.272 142.002C737.674 142.487 736.886 142.73 735.906 142.73C734.888 142.73 734.09 142.501 733.512 142.044C733.026 141.661 732.728 141.143 732.616 140.49ZM733.68 136.22C733.68 137.013 733.913 137.634 734.38 138.082C734.762 138.455 735.234 138.642 735.794 138.642C736.531 138.642 737.096 138.399 737.488 137.914C737.824 137.503 737.992 136.953 737.992 136.262C737.992 135.375 737.763 134.699 737.306 134.232C736.923 133.849 736.419 133.658 735.794 133.658C735.103 133.658 734.571 133.896 734.198 134.372C733.852 134.82 733.68 135.436 733.68 136.22ZM742.575 140H741.231V132.72H742.337L742.491 133.644C743.032 132.888 743.77 132.51 744.703 132.51C745.562 132.51 746.22 132.776 746.677 133.308C747.078 133.784 747.279 134.433 747.279 135.254V140H745.935V135.268C745.935 134.195 745.417 133.658 744.381 133.658C743.84 133.658 743.396 133.845 743.051 134.218C742.734 134.554 742.575 134.983 742.575 135.506V140ZM753.302 132.72H754.646V137.494C754.646 138.539 755.15 139.062 756.158 139.062C756.774 139.062 757.245 138.843 757.572 138.404C757.824 138.068 757.95 137.653 757.95 137.158V132.72H759.294V140H758.188L758.034 139.16C757.52 139.86 756.792 140.21 755.85 140.21C755.019 140.21 754.38 139.953 753.932 139.44C753.512 138.964 753.302 138.306 753.302 137.466V132.72ZM765.516 138.026C765.516 137.615 765.302 137.307 764.872 137.102C764.62 136.99 764.13 136.85 763.402 136.682C762.506 136.486 761.867 136.201 761.484 135.828C761.167 135.511 761.008 135.095 761.008 134.582C761.008 133.901 761.284 133.378 761.834 133.014C762.329 132.678 762.996 132.51 763.836 132.51C764.704 132.51 765.409 132.725 765.95 133.154C766.417 133.527 766.706 134.022 766.818 134.638H765.446C765.288 133.929 764.746 133.574 763.822 133.574C763.309 133.574 762.926 133.667 762.674 133.854C762.469 134.013 762.366 134.213 762.366 134.456C762.366 134.755 762.478 134.979 762.702 135.128C762.936 135.277 763.388 135.427 764.06 135.576C765.087 135.8 765.801 136.075 766.202 136.402C766.65 136.766 766.874 137.275 766.874 137.928C766.874 138.656 766.576 139.23 765.978 139.65C765.437 140.023 764.723 140.21 763.836 140.21C762.866 140.21 762.096 139.977 761.526 139.51C761.032 139.099 760.756 138.567 760.7 137.914H762.072C762.222 138.735 762.814 139.146 763.85 139.146C764.41 139.146 764.844 139.025 765.152 138.782C765.395 138.586 765.516 138.334 765.516 138.026ZM773.367 137.9H774.823C774.617 138.637 774.211 139.216 773.605 139.636C773.035 140.019 772.354 140.21 771.561 140.21C770.413 140.21 769.517 139.846 768.873 139.118C768.285 138.437 767.991 137.517 767.991 136.36C767.991 135.044 768.364 134.045 769.111 133.364C769.727 132.795 770.52 132.51 771.491 132.51C772.629 132.51 773.488 132.879 774.067 133.616C774.627 134.325 774.907 135.338 774.907 136.654H769.363C769.419 137.513 769.68 138.152 770.147 138.572C770.529 138.908 771.015 139.076 771.603 139.076C772.06 139.076 772.457 138.95 772.793 138.698C773.073 138.483 773.264 138.217 773.367 137.9ZM771.519 133.588C770.921 133.588 770.441 133.775 770.077 134.148C769.731 134.493 769.512 134.974 769.419 135.59H773.535C773.488 134.89 773.255 134.367 772.835 134.022C772.499 133.733 772.06 133.588 771.519 133.588ZM777.862 140H776.518V132.72H777.624L777.806 133.798C778.217 132.939 778.833 132.51 779.654 132.51C779.925 132.51 780.191 132.543 780.452 132.608V133.952C780.135 133.868 779.85 133.826 779.598 133.826C779.057 133.826 778.632 134.045 778.324 134.484C778.016 134.923 777.862 135.543 777.862 136.346V140ZM785.764 138.026C785.764 137.615 785.55 137.307 785.12 137.102C784.868 136.99 784.378 136.85 783.65 136.682C782.754 136.486 782.115 136.201 781.732 135.828C781.415 135.511 781.256 135.095 781.256 134.582C781.256 133.901 781.532 133.378 782.082 133.014C782.577 132.678 783.244 132.51 784.084 132.51C784.952 132.51 785.657 132.725 786.198 133.154C786.665 133.527 786.954 134.022 787.066 134.638H785.694C785.536 133.929 784.994 133.574 784.07 133.574C783.557 133.574 783.174 133.667 782.922 133.854C782.717 134.013 782.614 134.213 782.614 134.456C782.614 134.755 782.726 134.979 782.95 135.128C783.184 135.277 783.636 135.427 784.308 135.576C785.335 135.8 786.049 136.075 786.45 136.402C786.898 136.766 787.122 137.275 787.122 137.928C787.122 138.656 786.824 139.23 786.226 139.65C785.685 140.023 784.971 140.21 784.084 140.21C783.114 140.21 782.344 139.977 781.774 139.51C781.28 139.099 781.004 138.567 780.948 137.914H782.32C782.47 138.735 783.062 139.146 784.098 139.146C784.658 139.146 785.092 139.025 785.4 138.782C785.643 138.586 785.764 138.334 785.764 138.026Z" fill="white" fill-opacity="0.95"/>
</g>
<rect x="762" y="101" width="150" height="9" fill="#3492EB"/>
<defs>
<clipPath id="clip0_2031_6560">
<rect width="36" height="20" fill="white" transform="translate(450 125)"/>
</clipPath>
<clipPath id="clip1_2031_6560">
<rect width="114" height="21" fill="white" transform="translate(507 125)"/>
</clipPath>
<clipPath id="clip2_2031_6560">
<rect width="160" height="21" fill="white" transform="translate(666 125)"/>
</clipPath>
</defs>
</svg>
