<svg width="1300" height="245" viewBox="0 0 1300 245" fill="none" xmlns="http://www.w3.org/2000/svg">
<rect width="1300" height="245" rx="24" fill="#262626"/>
<path d="M475 108C475 111.866 471.866 115 468 115C464.134 115 461 111.866 461 108C461 104.134 464.134 101 468 101C471.866 101 475 104.134 475 108Z" stroke="#64B4FA" stroke-width="2"/>
<g clip-path="url(#clip0_2031_6477)">
<path d="M451.268 139V128.818H452.501V137.906H457.234V139H451.268ZM461.231 139.179C460.747 139.179 460.308 139.088 459.914 138.906C459.519 138.72 459.206 138.453 458.974 138.105C458.742 137.754 458.626 137.33 458.626 136.832C458.626 136.395 458.712 136.04 458.885 135.768C459.057 135.493 459.287 135.278 459.576 135.122C459.864 134.966 460.182 134.85 460.53 134.774C460.882 134.695 461.234 134.632 461.589 134.585C462.053 134.526 462.429 134.481 462.718 134.451C463.009 134.418 463.221 134.363 463.354 134.287C463.49 134.211 463.558 134.078 463.558 133.889V133.849C463.558 133.359 463.424 132.978 463.155 132.706C462.89 132.434 462.487 132.298 461.947 132.298C461.387 132.298 460.948 132.421 460.63 132.666C460.311 132.911 460.088 133.173 459.958 133.452L458.845 133.054C459.044 132.59 459.309 132.229 459.64 131.97C459.975 131.708 460.34 131.526 460.734 131.423C461.132 131.317 461.523 131.264 461.907 131.264C462.153 131.264 462.434 131.294 462.752 131.354C463.074 131.41 463.384 131.528 463.682 131.707C463.984 131.886 464.234 132.156 464.433 132.517C464.632 132.878 464.731 133.362 464.731 133.969V139H463.558V137.966H463.498C463.419 138.132 463.286 138.309 463.1 138.498C462.915 138.687 462.668 138.848 462.36 138.98C462.051 139.113 461.675 139.179 461.231 139.179ZM461.41 138.125C461.874 138.125 462.265 138.034 462.583 137.852C462.905 137.669 463.147 137.434 463.309 137.146C463.475 136.857 463.558 136.554 463.558 136.236V135.162C463.508 135.222 463.399 135.276 463.23 135.326C463.064 135.372 462.872 135.414 462.653 135.45C462.438 135.483 462.227 135.513 462.022 135.54C461.819 135.563 461.655 135.583 461.529 135.599C461.225 135.639 460.94 135.704 460.674 135.793C460.413 135.879 460.2 136.01 460.038 136.186C459.879 136.358 459.799 136.594 459.799 136.892C459.799 137.3 459.95 137.608 460.252 137.817C460.557 138.022 460.943 138.125 461.41 138.125ZM467.032 139V128.818H468.205V132.577H468.305C468.391 132.444 468.51 132.275 468.662 132.07C468.818 131.861 469.04 131.675 469.329 131.513C469.62 131.347 470.015 131.264 470.512 131.264C471.155 131.264 471.722 131.425 472.212 131.746C472.703 132.068 473.086 132.524 473.361 133.114C473.636 133.704 473.773 134.4 473.773 135.202C473.773 136.01 473.636 136.711 473.361 137.305C473.086 137.895 472.704 138.352 472.217 138.677C471.73 138.998 471.168 139.159 470.532 139.159C470.041 139.159 469.648 139.078 469.354 138.915C469.059 138.75 468.831 138.562 468.672 138.354C468.513 138.142 468.391 137.966 468.305 137.827H468.165V139H467.032ZM468.185 135.182C468.185 135.759 468.27 136.267 468.439 136.708C468.608 137.146 468.855 137.489 469.18 137.737C469.504 137.982 469.902 138.105 470.373 138.105C470.863 138.105 471.273 137.976 471.601 137.717C471.932 137.455 472.181 137.104 472.346 136.663C472.515 136.219 472.6 135.725 472.6 135.182C472.6 134.645 472.517 134.161 472.351 133.73C472.189 133.296 471.942 132.953 471.611 132.701C471.282 132.446 470.87 132.318 470.373 132.318C469.895 132.318 469.494 132.439 469.17 132.681C468.845 132.92 468.599 133.254 468.434 133.685C468.268 134.113 468.185 134.612 468.185 135.182ZM478.77 139.159C478.034 139.159 477.399 138.997 476.866 138.672C476.335 138.344 475.926 137.886 475.638 137.3C475.353 136.71 475.21 136.024 475.21 135.241C475.21 134.459 475.353 133.77 475.638 133.173C475.926 132.573 476.327 132.106 476.841 131.771C477.358 131.433 477.961 131.264 478.65 131.264C479.048 131.264 479.441 131.33 479.829 131.463C480.216 131.596 480.569 131.811 480.888 132.109C481.206 132.404 481.459 132.795 481.648 133.283C481.837 133.77 481.932 134.37 481.932 135.082V135.58H476.045V134.565H480.738C480.738 134.134 480.652 133.75 480.48 133.412C480.311 133.074 480.069 132.807 479.754 132.612C479.443 132.416 479.075 132.318 478.65 132.318C478.183 132.318 477.779 132.434 477.437 132.666C477.099 132.895 476.839 133.193 476.657 133.561C476.474 133.929 476.383 134.323 476.383 134.744V135.42C476.383 135.997 476.483 136.486 476.682 136.887C476.884 137.285 477.164 137.588 477.522 137.797C477.88 138.002 478.296 138.105 478.77 138.105C479.078 138.105 479.356 138.062 479.605 137.976C479.857 137.886 480.074 137.754 480.256 137.578C480.439 137.399 480.579 137.177 480.679 136.912L481.812 137.23C481.693 137.615 481.492 137.953 481.211 138.244C480.929 138.533 480.581 138.758 480.167 138.92C479.752 139.08 479.287 139.159 478.77 139.159ZM484.89 128.818V139H483.716V128.818H484.89Z" fill="white" fill-opacity="0.7"/>
</g>
<path d="M571 108C571 111.866 567.866 115 564 115C560.134 115 557 111.866 557 108C557 104.134 560.134 101 564 101C567.866 101 571 104.134 571 108Z" stroke="#64B4FA" stroke-width="2"/>
<g clip-path="url(#clip1_2031_6477)">
<path d="M513.872 132.493C513.819 132.022 513.6 131.658 513.216 131.399C512.831 131.137 512.347 131.006 511.764 131.006C511.347 131.006 510.985 131.073 510.68 131.205C510.375 131.335 510.138 131.513 509.969 131.742C509.804 131.968 509.721 132.224 509.721 132.513C509.721 132.755 509.777 132.964 509.89 133.139C510.006 133.315 510.157 133.462 510.342 133.582C510.531 133.698 510.733 133.795 510.949 133.875C511.164 133.951 511.371 134.014 511.57 134.064L512.565 134.322C512.889 134.402 513.222 134.51 513.564 134.646C513.905 134.781 514.222 134.96 514.513 135.183C514.805 135.405 515.04 135.68 515.219 136.008C515.402 136.336 515.493 136.729 515.493 137.186C515.493 137.763 515.344 138.275 515.045 138.722C514.75 139.17 514.321 139.523 513.758 139.781C513.198 140.04 512.52 140.169 511.724 140.169C510.962 140.169 510.302 140.048 509.746 139.806C509.189 139.564 508.753 139.221 508.438 138.777C508.123 138.33 507.949 137.799 507.916 137.186H509.457C509.487 137.554 509.606 137.861 509.815 138.106C510.027 138.348 510.297 138.528 510.626 138.648C510.957 138.764 511.32 138.822 511.714 138.822C512.149 138.822 512.535 138.754 512.873 138.618C513.214 138.479 513.483 138.286 513.678 138.041C513.874 137.793 513.972 137.503 513.972 137.171C513.972 136.87 513.885 136.623 513.713 136.43C513.544 136.238 513.314 136.079 513.022 135.953C512.734 135.827 512.407 135.716 512.043 135.62L510.839 135.292C510.024 135.07 509.378 134.743 508.9 134.312C508.427 133.882 508.19 133.312 508.19 132.602C508.19 132.016 508.349 131.504 508.667 131.066C508.985 130.629 509.416 130.289 509.959 130.047C510.503 129.802 511.116 129.679 511.799 129.679C512.488 129.679 513.097 129.8 513.623 130.042C514.154 130.284 514.571 130.617 514.876 131.041C515.181 131.462 515.34 131.946 515.354 132.493H513.872ZM520.774 132.364V133.557H516.603V132.364H520.774ZM517.721 130.534H519.208V137.758C519.208 138.046 519.251 138.263 519.337 138.409C519.423 138.552 519.534 138.649 519.67 138.702C519.809 138.752 519.96 138.777 520.123 138.777C520.242 138.777 520.346 138.769 520.436 138.752C520.525 138.736 520.595 138.722 520.645 138.712L520.913 139.94C520.827 139.973 520.704 140.007 520.545 140.04C520.386 140.076 520.187 140.096 519.949 140.099C519.557 140.106 519.193 140.036 518.855 139.891C518.517 139.745 518.243 139.519 518.035 139.214C517.826 138.91 517.721 138.527 517.721 138.066V130.534ZM525.627 140.154C524.875 140.154 524.227 139.993 523.684 139.672C523.143 139.347 522.726 138.891 522.431 138.305C522.139 137.715 521.993 137.024 521.993 136.232C521.993 135.449 522.139 134.76 522.431 134.163C522.726 133.567 523.137 133.101 523.664 132.766C524.194 132.432 524.814 132.264 525.523 132.264C525.954 132.264 526.371 132.335 526.776 132.478C527.18 132.621 527.543 132.844 527.865 133.149C528.186 133.454 528.44 133.85 528.625 134.337C528.811 134.821 528.904 135.41 528.904 136.102V136.629H522.833V135.516H527.447C527.447 135.125 527.367 134.778 527.208 134.477C527.049 134.172 526.826 133.931 526.537 133.756C526.252 133.58 525.917 133.492 525.533 133.492C525.115 133.492 524.751 133.595 524.439 133.8C524.131 134.003 523.892 134.268 523.723 134.596C523.558 134.921 523.475 135.274 523.475 135.655V136.525C523.475 137.035 523.564 137.469 523.743 137.827C523.925 138.185 524.179 138.459 524.504 138.648C524.829 138.833 525.208 138.926 525.642 138.926C525.924 138.926 526.181 138.886 526.413 138.807C526.645 138.724 526.845 138.601 527.014 138.439C527.184 138.277 527.313 138.076 527.402 137.837L528.809 138.091C528.697 138.505 528.494 138.868 528.203 139.18C527.914 139.488 527.551 139.728 527.114 139.901C526.68 140.07 526.184 140.154 525.627 140.154ZM530.553 142.864V132.364H532.005V133.602H532.129C532.215 133.442 532.339 133.259 532.502 133.05C532.664 132.841 532.89 132.659 533.178 132.503C533.466 132.344 533.848 132.264 534.321 132.264C534.938 132.264 535.488 132.42 535.972 132.732C536.456 133.043 536.835 133.492 537.111 134.079C537.389 134.665 537.528 135.371 537.528 136.197C537.528 137.022 537.391 137.73 537.116 138.32C536.84 138.906 536.463 139.359 535.982 139.677C535.501 139.992 534.953 140.149 534.336 140.149C533.872 140.149 533.493 140.071 533.198 139.915C532.906 139.76 532.678 139.577 532.512 139.369C532.346 139.16 532.218 138.974 532.129 138.812H532.04V142.864H530.553ZM532.01 136.182C532.01 136.719 532.088 137.189 532.243 137.594C532.399 137.998 532.624 138.315 532.919 138.543C533.214 138.769 533.576 138.881 534.003 138.881C534.447 138.881 534.819 138.764 535.117 138.528C535.415 138.29 535.641 137.967 535.793 137.559C535.949 137.151 536.027 136.692 536.027 136.182C536.027 135.678 535.95 135.226 535.798 134.825C535.649 134.424 535.424 134.107 535.122 133.875C534.824 133.643 534.451 133.527 534.003 133.527C533.572 133.527 533.208 133.638 532.91 133.86C532.615 134.082 532.391 134.392 532.238 134.79C532.086 135.187 532.01 135.652 532.01 136.182ZM544.385 129.818V140H542.899V129.818H544.385ZM548.607 140.169C548.123 140.169 547.686 140.08 547.295 139.901C546.904 139.718 546.594 139.455 546.365 139.11C546.14 138.765 546.027 138.343 546.027 137.842C546.027 137.411 546.11 137.057 546.276 136.778C546.441 136.5 546.665 136.28 546.947 136.117C547.229 135.955 547.543 135.832 547.891 135.749C548.239 135.666 548.594 135.603 548.955 135.56C549.413 135.507 549.784 135.464 550.069 135.431C550.354 135.395 550.561 135.337 550.69 135.257C550.82 135.178 550.884 135.048 550.884 134.869V134.835C550.884 134.4 550.762 134.064 550.516 133.825C550.274 133.587 549.913 133.467 549.433 133.467C548.932 133.467 548.538 133.578 548.249 133.8C547.964 134.019 547.767 134.263 547.658 134.531L546.261 134.213C546.426 133.749 546.668 133.375 546.987 133.089C547.308 132.801 547.678 132.592 548.095 132.463C548.513 132.33 548.952 132.264 549.413 132.264C549.718 132.264 550.041 132.301 550.382 132.374C550.727 132.443 551.048 132.572 551.347 132.761C551.648 132.95 551.895 133.22 552.087 133.572C552.28 133.92 552.376 134.372 552.376 134.929V140H550.924V138.956H550.864C550.768 139.148 550.624 139.337 550.432 139.523C550.24 139.708 549.993 139.862 549.691 139.985C549.39 140.108 549.028 140.169 548.607 140.169ZM548.93 138.976C549.341 138.976 549.693 138.895 549.984 138.732C550.279 138.57 550.503 138.358 550.656 138.096C550.811 137.831 550.889 137.547 550.889 137.246V136.261C550.836 136.314 550.734 136.364 550.581 136.411C550.432 136.454 550.261 136.492 550.069 136.525C549.877 136.555 549.689 136.583 549.507 136.609C549.325 136.633 549.172 136.652 549.05 136.669C548.761 136.705 548.498 136.767 548.259 136.853C548.024 136.939 547.835 137.063 547.693 137.226C547.553 137.385 547.484 137.597 547.484 137.862C547.484 138.23 547.62 138.509 547.891 138.697C548.163 138.883 548.51 138.976 548.93 138.976ZM554.475 140V129.818H555.962V133.602H556.051C556.137 133.442 556.262 133.259 556.424 133.05C556.586 132.841 556.812 132.659 557.1 132.503C557.388 132.344 557.77 132.264 558.244 132.264C558.86 132.264 559.41 132.42 559.894 132.732C560.378 133.043 560.757 133.492 561.033 134.079C561.311 134.665 561.45 135.371 561.45 136.197C561.45 137.022 561.313 137.73 561.038 138.32C560.762 138.906 560.385 139.359 559.904 139.677C559.423 139.992 558.875 140.149 558.258 140.149C557.794 140.149 557.415 140.071 557.12 139.915C556.828 139.76 556.6 139.577 556.434 139.369C556.268 139.16 556.141 138.974 556.051 138.812H555.927V140H554.475ZM555.932 136.182C555.932 136.719 556.01 137.189 556.165 137.594C556.321 137.998 556.547 138.315 556.842 138.543C557.137 138.769 557.498 138.881 557.925 138.881C558.369 138.881 558.741 138.764 559.039 138.528C559.337 138.29 559.563 137.967 559.715 137.559C559.871 137.151 559.949 136.692 559.949 136.182C559.949 135.678 559.873 135.226 559.72 134.825C559.571 134.424 559.346 134.107 559.044 133.875C558.746 133.643 558.373 133.527 557.925 133.527C557.494 133.527 557.13 133.638 556.832 133.86C556.537 134.082 556.313 134.392 556.16 134.79C556.008 135.187 555.932 135.652 555.932 136.182ZM566.411 140.154C565.658 140.154 565.01 139.993 564.467 139.672C563.926 139.347 563.509 138.891 563.214 138.305C562.922 137.715 562.776 137.024 562.776 136.232C562.776 135.449 562.922 134.76 563.214 134.163C563.509 133.567 563.92 133.101 564.447 132.766C564.977 132.432 565.597 132.264 566.306 132.264C566.737 132.264 567.155 132.335 567.559 132.478C567.963 132.621 568.326 132.844 568.648 133.149C568.969 133.454 569.223 133.85 569.408 134.337C569.594 134.821 569.687 135.41 569.687 136.102V136.629H563.617V135.516H568.23C568.23 135.125 568.151 134.778 567.992 134.477C567.832 134.172 567.609 133.931 567.32 133.756C567.035 133.58 566.701 133.492 566.316 133.492C565.899 133.492 565.534 133.595 565.222 133.8C564.914 134.003 564.676 134.268 564.506 134.596C564.341 134.921 564.258 135.274 564.258 135.655V136.525C564.258 137.035 564.347 137.469 564.526 137.827C564.709 138.185 564.962 138.459 565.287 138.648C565.612 138.833 565.991 138.926 566.426 138.926C566.707 138.926 566.964 138.886 567.196 138.807C567.428 138.724 567.629 138.601 567.798 138.439C567.967 138.277 568.096 138.076 568.185 137.837L569.592 138.091C569.48 138.505 569.278 138.868 568.986 139.18C568.698 139.488 568.335 139.728 567.897 139.901C567.463 140.07 566.967 140.154 566.411 140.154ZM572.823 129.818V140H571.336V129.818H572.823ZM579.322 135.053V136.341H574.808V135.053H579.322ZM583.525 140.169C583.041 140.169 582.604 140.08 582.213 139.901C581.822 139.718 581.512 139.455 581.283 139.11C581.058 138.765 580.945 138.343 580.945 137.842C580.945 137.411 581.028 137.057 581.194 136.778C581.359 136.5 581.583 136.28 581.865 136.117C582.147 135.955 582.461 135.832 582.809 135.749C583.157 135.666 583.512 135.603 583.873 135.56C584.331 135.507 584.702 135.464 584.987 135.431C585.272 135.395 585.479 135.337 585.608 135.257C585.738 135.178 585.802 135.048 585.802 134.869V134.835C585.802 134.4 585.68 134.064 585.434 133.825C585.192 133.587 584.831 133.467 584.351 133.467C583.85 133.467 583.456 133.578 583.167 133.8C582.882 134.019 582.685 134.263 582.576 134.531L581.179 134.213C581.344 133.749 581.586 133.375 581.905 133.089C582.226 132.801 582.596 132.592 583.013 132.463C583.431 132.33 583.87 132.264 584.331 132.264C584.636 132.264 584.959 132.301 585.3 132.374C585.645 132.443 585.966 132.572 586.265 132.761C586.566 132.95 586.813 133.22 587.005 133.572C587.198 133.92 587.294 134.372 587.294 134.929V140H585.842V138.956H585.782C585.686 139.148 585.542 139.337 585.35 139.523C585.158 139.708 584.911 139.862 584.609 139.985C584.307 140.108 583.946 140.169 583.525 140.169ZM583.848 138.976C584.259 138.976 584.611 138.895 584.902 138.732C585.197 138.57 585.421 138.358 585.574 138.096C585.729 137.831 585.807 137.547 585.807 137.246V136.261C585.754 136.314 585.651 136.364 585.499 136.411C585.35 136.454 585.179 136.492 584.987 136.525C584.795 136.555 584.607 136.583 584.425 136.609C584.243 136.633 584.09 136.652 583.968 136.669C583.679 136.705 583.416 136.767 583.177 136.853C582.942 136.939 582.753 137.063 582.611 137.226C582.471 137.385 582.402 137.597 582.402 137.862C582.402 138.23 582.538 138.509 582.809 138.697C583.081 138.883 583.428 138.976 583.848 138.976ZM592.49 140.154C591.751 140.154 591.115 139.987 590.581 139.652C590.051 139.314 589.643 138.848 589.358 138.255C589.073 137.662 588.931 136.982 588.931 136.217C588.931 135.441 589.076 134.757 589.368 134.163C589.66 133.567 590.071 133.101 590.601 132.766C591.131 132.432 591.756 132.264 592.475 132.264C593.055 132.264 593.572 132.372 594.027 132.587C594.481 132.799 594.847 133.098 595.125 133.482C595.407 133.867 595.574 134.316 595.627 134.83H594.181C594.101 134.472 593.919 134.163 593.634 133.905C593.352 133.646 592.974 133.517 592.5 133.517C592.086 133.517 591.723 133.626 591.411 133.845C591.103 134.061 590.863 134.369 590.691 134.77C590.518 135.168 590.432 135.638 590.432 136.182C590.432 136.739 590.517 137.219 590.686 137.624C590.855 138.028 591.093 138.341 591.402 138.563C591.713 138.785 592.079 138.896 592.5 138.896C592.782 138.896 593.037 138.845 593.266 138.742C593.498 138.636 593.692 138.485 593.848 138.29C594.007 138.094 594.118 137.859 594.181 137.584H595.627C595.574 138.078 595.414 138.518 595.145 138.906C594.877 139.294 594.517 139.599 594.066 139.821C593.619 140.043 593.094 140.154 592.49 140.154ZM600.782 132.364V133.557H596.611V132.364H600.782ZM597.729 130.534H599.216V137.758C599.216 138.046 599.259 138.263 599.345 138.409C599.431 138.552 599.542 138.649 599.678 138.702C599.817 138.752 599.968 138.777 600.13 138.777C600.25 138.777 600.354 138.769 600.444 138.752C600.533 138.736 600.603 138.722 600.652 138.712L600.921 139.94C600.835 139.973 600.712 140.007 600.553 140.04C600.394 140.076 600.195 140.096 599.956 140.099C599.565 140.106 599.201 140.036 598.863 139.891C598.525 139.745 598.251 139.519 598.042 139.214C597.834 138.91 597.729 138.527 597.729 138.066V130.534ZM602.426 140V132.364H603.913V140H602.426ZM603.177 131.185C602.918 131.185 602.696 131.099 602.511 130.927C602.328 130.751 602.237 130.542 602.237 130.3C602.237 130.055 602.328 129.846 602.511 129.674C602.696 129.498 602.918 129.411 603.177 129.411C603.435 129.411 603.656 129.498 603.838 129.674C604.024 129.846 604.116 130.055 604.116 130.3C604.116 130.542 604.024 130.751 603.838 130.927C603.656 131.099 603.435 131.185 603.177 131.185ZM612.445 132.364L609.676 140H608.085L605.311 132.364H606.907L608.841 138.24H608.92L610.849 132.364H612.445ZM616.873 140.154C616.121 140.154 615.473 139.993 614.93 139.672C614.389 139.347 613.972 138.891 613.677 138.305C613.385 137.715 613.239 137.024 613.239 136.232C613.239 135.449 613.385 134.76 613.677 134.163C613.972 133.567 614.383 133.101 614.91 132.766C615.44 132.432 616.06 132.264 616.769 132.264C617.2 132.264 617.618 132.335 618.022 132.478C618.426 132.621 618.789 132.844 619.111 133.149C619.432 133.454 619.686 133.85 619.871 134.337C620.057 134.821 620.15 135.41 620.15 136.102V136.629H614.079V135.516H618.693C618.693 135.125 618.614 134.778 618.454 134.477C618.295 134.172 618.072 133.931 617.783 133.756C617.498 133.58 617.164 133.492 616.779 133.492C616.361 133.492 615.997 133.595 615.685 133.8C615.377 134.003 615.138 134.268 614.969 134.596C614.804 134.921 614.721 135.274 614.721 135.655V136.525C614.721 137.035 614.81 137.469 614.989 137.827C615.172 138.185 615.425 138.459 615.75 138.648C616.075 138.833 616.454 138.926 616.888 138.926C617.17 138.926 617.427 138.886 617.659 138.807C617.891 138.724 618.092 138.601 618.261 138.439C618.43 138.277 618.559 138.076 618.648 137.837L620.055 138.091C619.943 138.505 619.74 138.868 619.449 139.18C619.16 139.488 618.797 139.728 618.36 139.901C617.926 140.07 617.43 140.154 616.873 140.154Z" fill="white" fill-opacity="0.95"/>
</g>
<rect x="580" y="107" width="150" height="2" fill="#8F8F8F"/>
<path fill-rule="evenodd" clip-rule="evenodd" d="M746 116C750.418 116 754 112.418 754 108C754 103.582 750.418 100 746 100C741.582 100 738 103.582 738 108C738 112.418 741.582 116 746 116Z" fill="#3492EB"/>
<g clip-path="url(#clip2_2031_6477)">
<path d="M714.205 139H712.623L711.629 136.452H706.827L705.819 139H704.321L708.465 128.92H710.075L714.205 139ZM709.249 130.348L707.289 135.29H711.167L709.249 130.348ZM719.442 137.026C719.442 136.615 719.227 136.307 718.798 136.102C718.546 135.99 718.056 135.85 717.328 135.682C716.432 135.486 715.793 135.201 715.41 134.828C715.093 134.511 714.934 134.095 714.934 133.582C714.934 132.901 715.209 132.378 715.76 132.014C716.255 131.678 716.922 131.51 717.762 131.51C718.63 131.51 719.335 131.725 719.876 132.154C720.343 132.527 720.632 133.022 720.744 133.638H719.372C719.213 132.929 718.672 132.574 717.748 132.574C717.235 132.574 716.852 132.667 716.6 132.854C716.395 133.013 716.292 133.213 716.292 133.456C716.292 133.755 716.404 133.979 716.628 134.128C716.861 134.277 717.314 134.427 717.986 134.576C719.013 134.8 719.727 135.075 720.128 135.402C720.576 135.766 720.8 136.275 720.8 136.928C720.8 137.656 720.501 138.23 719.904 138.65C719.363 139.023 718.649 139.21 717.762 139.21C716.791 139.21 716.021 138.977 715.452 138.51C714.957 138.099 714.682 137.567 714.626 136.914H715.998C716.147 137.735 716.74 138.146 717.776 138.146C718.336 138.146 718.77 138.025 719.078 137.782C719.321 137.586 719.442 137.334 719.442 137.026ZM726.497 137.026C726.497 136.615 726.282 136.307 725.853 136.102C725.601 135.99 725.111 135.85 724.383 135.682C723.487 135.486 722.847 135.201 722.465 134.828C722.147 134.511 721.989 134.095 721.989 133.582C721.989 132.901 722.264 132.378 722.815 132.014C723.309 131.678 723.977 131.51 724.817 131.51C725.685 131.51 726.389 131.725 726.931 132.154C727.397 132.527 727.687 133.022 727.799 133.638H726.427C726.268 132.929 725.727 132.574 724.803 132.574C724.289 132.574 723.907 132.667 723.655 132.854C723.449 133.013 723.347 133.213 723.347 133.456C723.347 133.755 723.459 133.979 723.683 134.128C723.916 134.277 724.369 134.427 725.041 134.576C726.067 134.8 726.781 135.075 727.183 135.402C727.631 135.766 727.855 136.275 727.855 136.928C727.855 137.656 727.556 138.23 726.959 138.65C726.417 139.023 725.703 139.21 724.817 139.21C723.846 139.21 723.076 138.977 722.507 138.51C722.012 138.099 721.737 137.567 721.681 136.914H723.053C723.202 137.735 723.795 138.146 724.831 138.146C725.391 138.146 725.825 138.025 726.133 137.782C726.375 137.586 726.497 137.334 726.497 137.026ZM730.819 130.502H729.307V128.92H730.819V130.502ZM730.735 139H729.391V131.72H730.735V139ZM732.616 139.49H734.058C734.123 139.863 734.31 140.153 734.618 140.358C734.935 140.563 735.35 140.666 735.864 140.666C736.582 140.666 737.119 140.479 737.474 140.106C737.772 139.789 737.922 139.345 737.922 138.776V137.838C737.38 138.473 736.573 138.79 735.5 138.79C734.529 138.79 733.74 138.44 733.134 137.74C732.564 137.087 732.28 136.237 732.28 135.192C732.28 133.979 732.625 133.041 733.316 132.378C733.904 131.799 734.66 131.51 735.584 131.51C736.629 131.51 737.418 131.902 737.95 132.686L738.16 131.72H739.266V138.846C739.266 139.761 738.934 140.479 738.272 141.002C737.674 141.487 736.886 141.73 735.906 141.73C734.888 141.73 734.09 141.501 733.512 141.044C733.026 140.661 732.728 140.143 732.616 139.49ZM733.68 135.22C733.68 136.013 733.913 136.634 734.38 137.082C734.762 137.455 735.234 137.642 735.794 137.642C736.531 137.642 737.096 137.399 737.488 136.914C737.824 136.503 737.992 135.953 737.992 135.262C737.992 134.375 737.763 133.699 737.306 133.232C736.923 132.849 736.419 132.658 735.794 132.658C735.103 132.658 734.571 132.896 734.198 133.372C733.852 133.82 733.68 134.436 733.68 135.22ZM742.575 139H741.231V131.72H742.337L742.491 132.644C743.032 131.888 743.77 131.51 744.703 131.51C745.562 131.51 746.22 131.776 746.677 132.308C747.078 132.784 747.279 133.433 747.279 134.254V139H745.935V134.268C745.935 133.195 745.417 132.658 744.381 132.658C743.84 132.658 743.396 132.845 743.051 133.218C742.734 133.554 742.575 133.983 742.575 134.506V139ZM753.302 131.72H754.646V136.494C754.646 137.539 755.15 138.062 756.158 138.062C756.774 138.062 757.245 137.843 757.572 137.404C757.824 137.068 757.95 136.653 757.95 136.158V131.72H759.294V139H758.188L758.034 138.16C757.52 138.86 756.792 139.21 755.85 139.21C755.019 139.21 754.38 138.953 753.932 138.44C753.512 137.964 753.302 137.306 753.302 136.466V131.72ZM765.516 137.026C765.516 136.615 765.302 136.307 764.872 136.102C764.62 135.99 764.13 135.85 763.402 135.682C762.506 135.486 761.867 135.201 761.484 134.828C761.167 134.511 761.008 134.095 761.008 133.582C761.008 132.901 761.284 132.378 761.834 132.014C762.329 131.678 762.996 131.51 763.836 131.51C764.704 131.51 765.409 131.725 765.95 132.154C766.417 132.527 766.706 133.022 766.818 133.638H765.446C765.288 132.929 764.746 132.574 763.822 132.574C763.309 132.574 762.926 132.667 762.674 132.854C762.469 133.013 762.366 133.213 762.366 133.456C762.366 133.755 762.478 133.979 762.702 134.128C762.936 134.277 763.388 134.427 764.06 134.576C765.087 134.8 765.801 135.075 766.202 135.402C766.65 135.766 766.874 136.275 766.874 136.928C766.874 137.656 766.576 138.23 765.978 138.65C765.437 139.023 764.723 139.21 763.836 139.21C762.866 139.21 762.096 138.977 761.526 138.51C761.032 138.099 760.756 137.567 760.7 136.914H762.072C762.222 137.735 762.814 138.146 763.85 138.146C764.41 138.146 764.844 138.025 765.152 137.782C765.395 137.586 765.516 137.334 765.516 137.026ZM773.367 136.9H774.823C774.617 137.637 774.211 138.216 773.605 138.636C773.035 139.019 772.354 139.21 771.561 139.21C770.413 139.21 769.517 138.846 768.873 138.118C768.285 137.437 767.991 136.517 767.991 135.36C767.991 134.044 768.364 133.045 769.111 132.364C769.727 131.795 770.52 131.51 771.491 131.51C772.629 131.51 773.488 131.879 774.067 132.616C774.627 133.325 774.907 134.338 774.907 135.654H769.363C769.419 136.513 769.68 137.152 770.147 137.572C770.529 137.908 771.015 138.076 771.603 138.076C772.06 138.076 772.457 137.95 772.793 137.698C773.073 137.483 773.264 137.217 773.367 136.9ZM771.519 132.588C770.921 132.588 770.441 132.775 770.077 133.148C769.731 133.493 769.512 133.974 769.419 134.59H773.535C773.488 133.89 773.255 133.367 772.835 133.022C772.499 132.733 772.06 132.588 771.519 132.588ZM777.862 139H776.518V131.72H777.624L777.806 132.798C778.217 131.939 778.833 131.51 779.654 131.51C779.925 131.51 780.191 131.543 780.452 131.608V132.952C780.135 132.868 779.85 132.826 779.598 132.826C779.057 132.826 778.632 133.045 778.324 133.484C778.016 133.923 777.862 134.543 777.862 135.346V139ZM785.764 137.026C785.764 136.615 785.55 136.307 785.12 136.102C784.868 135.99 784.378 135.85 783.65 135.682C782.754 135.486 782.115 135.201 781.732 134.828C781.415 134.511 781.256 134.095 781.256 133.582C781.256 132.901 781.532 132.378 782.082 132.014C782.577 131.678 783.244 131.51 784.084 131.51C784.952 131.51 785.657 131.725 786.198 132.154C786.665 132.527 786.954 133.022 787.066 133.638H785.694C785.536 132.929 784.994 132.574 784.07 132.574C783.557 132.574 783.174 132.667 782.922 132.854C782.717 133.013 782.614 133.213 782.614 133.456C782.614 133.755 782.726 133.979 782.95 134.128C783.184 134.277 783.636 134.427 784.308 134.576C785.335 134.8 786.049 135.075 786.45 135.402C786.898 135.766 787.122 136.275 787.122 136.928C787.122 137.656 786.824 138.23 786.226 138.65C785.685 139.023 784.971 139.21 784.084 139.21C783.114 139.21 782.344 138.977 781.774 138.51C781.28 138.099 781.004 137.567 780.948 136.914H782.32C782.47 137.735 783.062 138.146 784.098 138.146C784.658 138.146 785.092 138.025 785.4 137.782C785.643 137.586 785.764 137.334 785.764 137.026Z" fill="white" fill-opacity="0.95"/>
</g>
<rect x="762" y="100" width="150" height="9" fill="#3492EB"/>
<defs>
<clipPath id="clip0_2031_6477">
<rect width="36" height="20" fill="white" transform="translate(450 124)"/>
</clipPath>
<clipPath id="clip1_2031_6477">
<rect width="114" height="21" fill="white" transform="translate(507 124)"/>
</clipPath>
<clipPath id="clip2_2031_6477">
<rect width="160" height="21" fill="white" transform="translate(666 124)"/>
</clipPath>
</defs>
</svg>
