<svg width="630" height="254" viewBox="0 0 630 254" fill="none" xmlns="http://www.w3.org/2000/svg">
<rect width="630" height="254" rx="24" fill="#262626"/>
<mask id="mask0_2039_4712" style="mask-type:luminance" maskUnits="userSpaceOnUse" x="24" y="32" width="582" height="190">
<rect x="24" y="32" width="582" height="190" fill="white"/>
</mask>
<g mask="url(#mask0_2039_4712)">
<path d="M178.458 54.4545V69H176.753L168.827 57.5795H168.685V69H166.923V54.4545H168.628L176.583 65.9034H176.725V54.4545H178.458ZM186.187 69.2273C185.202 69.2273 184.338 68.9929 183.594 68.5241C182.856 68.0554 182.278 67.3996 181.861 66.5568C181.449 65.714 181.243 64.7292 181.243 63.6023C181.243 62.4659 181.449 61.474 181.861 60.6264C182.278 59.7789 182.856 59.1207 183.594 58.652C184.338 58.1832 185.202 57.9489 186.187 57.9489C187.171 57.9489 188.033 58.1832 188.772 58.652C189.515 59.1207 190.093 59.7789 190.505 60.6264C190.921 61.474 191.13 62.4659 191.13 63.6023C191.13 64.7292 190.921 65.714 190.505 66.5568C190.093 67.3996 189.515 68.0554 188.772 68.5241C188.033 68.9929 187.171 69.2273 186.187 69.2273ZM186.187 67.7216C186.935 67.7216 187.55 67.5298 188.033 67.1463C188.516 66.7628 188.874 66.2585 189.106 65.6335C189.338 65.0085 189.454 64.3314 189.454 63.6023C189.454 62.8731 189.338 62.1937 189.106 61.5639C188.874 60.9342 188.516 60.4252 188.033 60.0369C187.55 59.6487 186.935 59.4545 186.187 59.4545C185.439 59.4545 184.823 59.6487 184.34 60.0369C183.857 60.4252 183.5 60.9342 183.268 61.5639C183.036 62.1937 182.92 62.8731 182.92 63.6023C182.92 64.3314 183.036 65.0085 183.268 65.6335C183.5 66.2585 183.857 66.7628 184.34 67.1463C184.823 67.5298 185.439 67.7216 186.187 67.7216ZM198.433 58.0909V59.5114H192.779V58.0909H198.433ZM194.427 55.4773H196.103V65.875C196.103 66.3485 196.172 66.7036 196.309 66.9403C196.451 67.1723 196.631 67.3286 196.849 67.4091C197.071 67.4848 197.306 67.5227 197.552 67.5227C197.737 67.5227 197.888 67.5133 198.007 67.4943C198.125 67.4706 198.22 67.4517 198.291 67.4375L198.632 68.9432C198.518 68.9858 198.359 69.0284 198.156 69.071C197.952 69.1184 197.694 69.142 197.382 69.142C196.908 69.142 196.444 69.0402 195.99 68.8366C195.54 68.633 195.166 68.3229 194.867 67.9062C194.574 67.4896 194.427 66.964 194.427 66.3295V55.4773ZM200.954 69V58.0909H202.63V69H200.954ZM201.806 56.2727C201.48 56.2727 201.198 56.1615 200.961 55.9389C200.729 55.7164 200.613 55.4489 200.613 55.1364C200.613 54.8239 200.729 54.5563 200.961 54.3338C201.198 54.1113 201.48 54 201.806 54C202.133 54 202.412 54.1113 202.644 54.3338C202.881 54.5563 202.999 54.8239 202.999 55.1364C202.999 55.4489 202.881 55.7164 202.644 55.9389C202.412 56.1615 202.133 56.2727 201.806 56.2727ZM210.558 58.0909V59.5114H204.677V58.0909H210.558ZM206.439 69V56.5852C206.439 55.9602 206.586 55.4394 206.879 55.0227C207.173 54.6061 207.554 54.2936 208.023 54.0852C208.491 53.8769 208.986 53.7727 209.507 53.7727C209.919 53.7727 210.255 53.8059 210.515 53.8722C210.776 53.9384 210.97 54 211.098 54.0568L210.615 55.5057C210.53 55.4773 210.411 55.4418 210.26 55.3991C210.113 55.3565 209.919 55.3352 209.677 55.3352C209.123 55.3352 208.723 55.4749 208.477 55.7543C208.236 56.0336 208.115 56.4432 208.115 56.983V69H206.439ZM212.907 69V58.0909H214.583V69H212.907ZM213.759 56.2727C213.433 56.2727 213.151 56.1615 212.914 55.9389C212.682 55.7164 212.566 55.4489 212.566 55.1364C212.566 54.8239 212.682 54.5563 212.914 54.3338C213.151 54.1113 213.433 54 213.759 54C214.086 54 214.365 54.1113 214.597 54.3338C214.834 54.5563 214.953 54.8239 214.953 55.1364C214.953 55.4489 214.834 55.7164 214.597 55.9389C214.365 56.1615 214.086 56.2727 213.759 56.2727ZM222.085 69.2273C221.062 69.2273 220.182 68.9858 219.443 68.5028C218.704 68.0199 218.136 67.3546 217.738 66.5071C217.341 65.6596 217.142 64.6913 217.142 63.6023C217.142 62.4943 217.345 61.5166 217.753 60.669C218.165 59.8168 218.738 59.1515 219.471 58.6733C220.21 58.1903 221.072 57.9489 222.057 57.9489C222.824 57.9489 223.515 58.0909 224.131 58.375C224.746 58.6591 225.25 59.0568 225.643 59.5682C226.036 60.0795 226.28 60.6761 226.375 61.358H224.699C224.571 60.8608 224.287 60.4205 223.846 60.0369C223.411 59.6487 222.824 59.4545 222.085 59.4545C221.432 59.4545 220.859 59.625 220.366 59.9659C219.879 60.3021 219.497 60.7779 219.223 61.3935C218.953 62.0043 218.818 62.7216 218.818 63.5455C218.818 64.3883 218.951 65.1222 219.216 65.7472C219.486 66.3722 219.864 66.8575 220.352 67.2031C220.845 67.5488 221.422 67.7216 222.085 67.7216C222.521 67.7216 222.916 67.6458 223.271 67.4943C223.626 67.3428 223.927 67.125 224.173 66.8409C224.419 66.5568 224.595 66.2159 224.699 65.8182H226.375C226.28 66.4621 226.046 67.0421 225.672 67.5582C225.302 68.0696 224.812 68.4768 224.202 68.7798C223.595 69.0781 222.89 69.2273 222.085 69.2273ZM232.035 69.2557C231.344 69.2557 230.717 69.1255 230.153 68.8651C229.59 68.5999 229.142 68.2188 228.811 67.7216C228.479 67.2197 228.314 66.6136 228.314 65.9034C228.314 65.2784 228.437 64.7718 228.683 64.3835C228.929 63.9905 229.258 63.6828 229.67 63.4602C230.082 63.2377 230.537 63.072 231.034 62.9631C231.536 62.8494 232.04 62.7595 232.547 62.6932C233.21 62.608 233.747 62.544 234.159 62.5014C234.576 62.4541 234.879 62.3759 235.068 62.267C235.262 62.1581 235.359 61.9687 235.359 61.6989V61.642C235.359 60.9413 235.167 60.3968 234.784 60.0085C234.405 59.6203 233.83 59.4261 233.058 59.4261C232.258 59.4261 231.631 59.6013 231.176 59.9517C230.721 60.3021 230.402 60.6761 230.217 61.0739L228.626 60.5057C228.91 59.8428 229.289 59.3267 229.763 58.9574C230.241 58.5833 230.762 58.3229 231.325 58.1761C231.893 58.0246 232.452 57.9489 233.001 57.9489C233.352 57.9489 233.754 57.9915 234.209 58.0767C234.668 58.1572 235.111 58.3253 235.537 58.581C235.968 58.8366 236.325 59.2225 236.609 59.7386C236.893 60.2547 237.035 60.946 237.035 61.8125V69H235.359V67.5227H235.274C235.16 67.7595 234.971 68.0128 234.706 68.2827C234.441 68.5526 234.088 68.7822 233.648 68.9716C233.207 69.161 232.67 69.2557 232.035 69.2557ZM232.291 67.75C232.954 67.75 233.513 67.6198 233.967 67.3594C234.426 67.099 234.772 66.7628 235.004 66.3509C235.241 65.9389 235.359 65.5057 235.359 65.0511V63.517C235.288 63.6023 235.132 63.6804 234.89 63.7514C234.654 63.8177 234.379 63.8769 234.067 63.929C233.759 63.9763 233.458 64.0189 233.165 64.0568C232.876 64.09 232.641 64.1184 232.461 64.142C232.026 64.1989 231.619 64.2912 231.24 64.419C230.866 64.5421 230.563 64.7292 230.331 64.9801C230.104 65.2263 229.99 65.5625 229.99 65.9886C229.99 66.571 230.205 67.0114 230.636 67.3097C231.072 67.6032 231.623 67.75 232.291 67.75ZM244.839 58.0909V59.5114H239.186V58.0909H244.839ZM240.833 55.4773H242.509V65.875C242.509 66.3485 242.578 66.7036 242.715 66.9403C242.857 67.1723 243.037 67.3286 243.255 67.4091C243.478 67.4848 243.712 67.5227 243.958 67.5227C244.143 67.5227 244.294 67.5133 244.413 67.4943C244.531 67.4706 244.626 67.4517 244.697 67.4375L245.038 68.9432C244.924 68.9858 244.766 69.0284 244.562 69.071C244.358 69.1184 244.1 69.142 243.788 69.142C243.314 69.142 242.85 69.0402 242.396 68.8366C241.946 68.633 241.572 68.3229 241.274 67.9062C240.98 67.4896 240.833 66.964 240.833 66.3295V55.4773ZM247.36 69V58.0909H249.036V69H247.36ZM248.213 56.2727C247.886 56.2727 247.604 56.1615 247.367 55.9389C247.135 55.7164 247.019 55.4489 247.019 55.1364C247.019 54.8239 247.135 54.5563 247.367 54.3338C247.604 54.1113 247.886 54 248.213 54C248.539 54 248.819 54.1113 249.051 54.3338C249.287 54.5563 249.406 54.8239 249.406 55.1364C249.406 55.4489 249.287 55.7164 249.051 55.9389C248.819 56.1615 248.539 56.2727 248.213 56.2727ZM256.538 69.2273C255.553 69.2273 254.689 68.9929 253.946 68.5241C253.207 68.0554 252.63 67.3996 252.213 66.5568C251.801 65.714 251.595 64.7292 251.595 63.6023C251.595 62.4659 251.801 61.474 252.213 60.6264C252.63 59.7789 253.207 59.1207 253.946 58.652C254.689 58.1832 255.553 57.9489 256.538 57.9489C257.523 57.9489 258.385 58.1832 259.123 58.652C259.867 59.1207 260.444 59.7789 260.856 60.6264C261.273 61.474 261.481 62.4659 261.481 63.6023C261.481 64.7292 261.273 65.714 260.856 66.5568C260.444 67.3996 259.867 68.0554 259.123 68.5241C258.385 68.9929 257.523 69.2273 256.538 69.2273ZM256.538 67.7216C257.286 67.7216 257.902 67.5298 258.385 67.1463C258.868 66.7628 259.225 66.2585 259.457 65.6335C259.689 65.0085 259.805 64.3314 259.805 63.6023C259.805 62.8731 259.689 62.1937 259.457 61.5639C259.225 60.9342 258.868 60.4252 258.385 60.0369C257.902 59.6487 257.286 59.4545 256.538 59.4545C255.79 59.4545 255.175 59.6487 254.692 60.0369C254.209 60.4252 253.851 60.9342 253.619 61.5639C253.387 62.1937 253.271 62.8731 253.271 63.6023C253.271 64.3314 253.387 65.0085 253.619 65.6335C253.851 66.2585 254.209 66.7628 254.692 67.1463C255.175 67.5298 255.79 67.7216 256.538 67.7216ZM265.716 62.4375V69H264.04V58.0909H265.659V59.7955H265.801C266.057 59.2415 266.445 58.7964 266.966 58.4602C267.487 58.1193 268.159 57.9489 268.983 57.9489C269.722 57.9489 270.368 58.1004 270.922 58.4034C271.476 58.7017 271.907 59.1562 272.215 59.767C272.522 60.3731 272.676 61.1402 272.676 62.0682V69H271V62.1818C271 61.3248 270.778 60.6572 270.333 60.179C269.887 59.696 269.277 59.4545 268.5 59.4545C267.965 59.4545 267.487 59.5705 267.066 59.8026C266.649 60.0346 266.32 60.3731 266.078 60.8182C265.837 61.2633 265.716 61.803 265.716 62.4375ZM283.466 60.5341L281.961 60.9602C281.866 60.7093 281.726 60.4654 281.542 60.2287C281.362 59.9872 281.116 59.7884 280.803 59.6321C280.491 59.4759 280.09 59.3977 279.603 59.3977C278.935 59.3977 278.379 59.5516 277.934 59.8594C277.493 60.1624 277.273 60.5483 277.273 61.017C277.273 61.4337 277.425 61.7628 277.728 62.0043C278.031 62.2457 278.504 62.447 279.148 62.608L280.768 63.0057C281.743 63.2424 282.47 63.6046 282.948 64.0923C283.426 64.5753 283.665 65.1979 283.665 65.9602C283.665 66.5852 283.485 67.1439 283.126 67.6364C282.77 68.1288 282.273 68.517 281.634 68.8011C280.995 69.0852 280.251 69.2273 279.404 69.2273C278.291 69.2273 277.37 68.9858 276.641 68.5028C275.912 68.0199 275.45 67.3144 275.256 66.3864L276.847 65.9886C276.999 66.5758 277.285 67.0161 277.706 67.3097C278.133 67.6032 278.689 67.75 279.376 67.75C280.157 67.75 280.777 67.5843 281.236 67.2528C281.7 66.9167 281.932 66.5142 281.932 66.0455C281.932 65.6667 281.8 65.3494 281.535 65.0938C281.269 64.8333 280.862 64.6392 280.313 64.5114L278.495 64.0852C277.496 63.8485 276.762 63.4815 276.293 62.9844C275.829 62.4825 275.597 61.8551 275.597 61.1023C275.597 60.4867 275.77 59.9422 276.116 59.4688C276.466 58.9953 276.942 58.6236 277.543 58.3537C278.149 58.0838 278.836 57.9489 279.603 57.9489C280.682 57.9489 281.53 58.1856 282.145 58.6591C282.766 59.1326 283.206 59.7576 283.466 60.5341Z" fill="white" fill-opacity="0.95"/>
<path d="M165.73 90.392V88.3636H175.287V90.392H171.725V100H169.293V90.392H165.73ZM178.117 100.165C177.56 100.165 177.064 100.068 176.628 99.875C176.192 99.678 175.848 99.3883 175.594 99.0057C175.344 98.6193 175.219 98.1383 175.219 97.5625C175.219 97.0777 175.308 96.6705 175.486 96.3409C175.664 96.0114 175.906 95.7462 176.213 95.5455C176.52 95.3447 176.869 95.1932 177.259 95.0909C177.653 94.9886 178.066 94.9167 178.497 94.875C179.005 94.822 179.414 94.7727 179.725 94.7273C180.035 94.678 180.261 94.6061 180.401 94.5114C180.541 94.4167 180.611 94.2765 180.611 94.0909V94.0568C180.611 93.697 180.497 93.4186 180.27 93.2216C180.047 93.0246 179.728 92.9261 179.316 92.9261C178.88 92.9261 178.533 93.0227 178.276 93.2159C178.018 93.4053 177.848 93.6439 177.764 93.9318L175.526 93.75C175.639 93.2197 175.863 92.7614 176.196 92.375C176.53 91.9848 176.959 91.6856 177.486 91.4773C178.016 91.2652 178.63 91.1591 179.327 91.1591C179.812 91.1591 180.276 91.2159 180.719 91.3295C181.166 91.4432 181.562 91.6193 181.906 91.858C182.255 92.0966 182.53 92.4034 182.73 92.7784C182.931 93.1496 183.031 93.5947 183.031 94.1136V100H180.736V98.7898H180.668C180.528 99.0625 180.34 99.303 180.105 99.5114C179.87 99.7159 179.588 99.8769 179.259 99.9943C178.929 100.108 178.548 100.165 178.117 100.165ZM178.81 98.4943C179.166 98.4943 179.48 98.4242 179.753 98.2841C180.026 98.1402 180.24 97.947 180.395 97.7045C180.55 97.4621 180.628 97.1875 180.628 96.8807V95.9545C180.552 96.0038 180.448 96.0492 180.316 96.0909C180.187 96.1288 180.041 96.1648 179.878 96.1989C179.715 96.2292 179.552 96.2576 179.389 96.2841C179.227 96.3068 179.079 96.3277 178.946 96.3466C178.662 96.3883 178.414 96.4545 178.202 96.5455C177.99 96.6364 177.825 96.7595 177.708 96.9148C177.59 97.0663 177.531 97.2557 177.531 97.483C177.531 97.8125 177.651 98.0644 177.889 98.2386C178.132 98.4091 178.439 98.4943 178.81 98.4943ZM192.171 93.7614L189.955 93.8977C189.917 93.7083 189.835 93.5379 189.71 93.3864C189.585 93.2311 189.421 93.108 189.216 93.017C189.015 92.9223 188.775 92.875 188.494 92.875C188.119 92.875 187.803 92.9545 187.546 93.1136C187.288 93.2689 187.159 93.4773 187.159 93.7386C187.159 93.947 187.243 94.1231 187.409 94.267C187.576 94.411 187.862 94.5265 188.267 94.6136L189.847 94.9318C190.695 95.1061 191.328 95.3864 191.744 95.7727C192.161 96.1591 192.369 96.6667 192.369 97.2955C192.369 97.8674 192.201 98.3693 191.864 98.8011C191.53 99.233 191.072 99.5701 190.489 99.8125C189.909 100.051 189.241 100.17 188.483 100.17C187.328 100.17 186.407 99.9299 185.722 99.4489C185.04 98.964 184.64 98.3049 184.523 97.4716L186.904 97.3466C186.976 97.6989 187.15 97.9678 187.426 98.1534C187.703 98.3352 188.057 98.4261 188.489 98.4261C188.913 98.4261 189.254 98.3447 189.512 98.1818C189.773 98.0152 189.905 97.8011 189.909 97.5398C189.905 97.3201 189.813 97.1402 189.631 97C189.449 96.8561 189.169 96.7462 188.79 96.6705L187.279 96.3693C186.426 96.1989 185.792 95.9034 185.375 95.483C184.962 95.0625 184.756 94.5265 184.756 93.875C184.756 93.3144 184.907 92.8314 185.21 92.4261C185.517 92.0208 185.947 91.7083 186.5 91.4886C187.057 91.2689 187.709 91.1591 188.455 91.1591C189.557 91.1591 190.424 91.392 191.057 91.858C191.693 92.3239 192.065 92.9583 192.171 93.7614ZM196.087 97.4886L196.093 94.5852H196.445L199.24 91.2727H202.019L198.263 95.6591H197.689L196.087 97.4886ZM193.894 100V88.3636H196.314V100H193.894ZM199.348 100L196.78 96.1989L198.394 94.4886L202.183 100H199.348ZM203.252 100V88.3636H205.672V92.7386H205.746C205.852 92.5038 206.005 92.2652 206.206 92.0227C206.411 91.7765 206.676 91.572 207.002 91.4091C207.331 91.2424 207.74 91.1591 208.229 91.1591C208.865 91.1591 209.452 91.3258 209.99 91.6591C210.528 91.9886 210.958 92.4867 211.28 93.1534C211.602 93.8163 211.763 94.6477 211.763 95.6477C211.763 96.6212 211.606 97.4432 211.291 98.1136C210.981 98.7803 210.557 99.286 210.019 99.6307C209.485 99.9716 208.886 100.142 208.223 100.142C207.753 100.142 207.354 100.064 207.024 99.9091C206.699 99.7538 206.432 99.5587 206.223 99.3239C206.015 99.0852 205.856 98.8447 205.746 98.6023H205.638V100H203.252ZM205.621 95.6364C205.621 96.1553 205.693 96.608 205.837 96.9943C205.981 97.3807 206.189 97.6818 206.462 97.8977C206.735 98.1098 207.066 98.2159 207.456 98.2159C207.85 98.2159 208.183 98.108 208.456 97.892C208.729 97.6723 208.935 97.3693 209.075 96.983C209.219 96.5928 209.291 96.1439 209.291 95.6364C209.291 95.1326 209.221 94.6894 209.081 94.3068C208.941 93.9242 208.735 93.625 208.462 93.4091C208.189 93.1932 207.854 93.0852 207.456 93.0852C207.062 93.0852 206.729 93.1894 206.456 93.3977C206.187 93.6061 205.981 93.9015 205.837 94.2841C205.693 94.6667 205.621 95.1174 205.621 95.6364ZM215.867 100.165C215.31 100.165 214.814 100.068 214.378 99.875C213.942 99.678 213.598 99.3883 213.344 99.0057C213.094 98.6193 212.969 98.1383 212.969 97.5625C212.969 97.0777 213.058 96.6705 213.236 96.3409C213.414 96.0114 213.656 95.7462 213.963 95.5455C214.27 95.3447 214.619 95.1932 215.009 95.0909C215.403 94.9886 215.816 94.9167 216.247 94.875C216.755 94.822 217.164 94.7727 217.475 94.7273C217.785 94.678 218.011 94.6061 218.151 94.5114C218.291 94.4167 218.361 94.2765 218.361 94.0909V94.0568C218.361 93.697 218.247 93.4186 218.02 93.2216C217.797 93.0246 217.478 92.9261 217.066 92.9261C216.63 92.9261 216.283 93.0227 216.026 93.2159C215.768 93.4053 215.598 93.6439 215.514 93.9318L213.276 93.75C213.389 93.2197 213.613 92.7614 213.946 92.375C214.28 91.9848 214.709 91.6856 215.236 91.4773C215.766 91.2652 216.38 91.1591 217.077 91.1591C217.562 91.1591 218.026 91.2159 218.469 91.3295C218.916 91.4432 219.312 91.6193 219.656 91.858C220.005 92.0966 220.28 92.4034 220.48 92.7784C220.681 93.1496 220.781 93.5947 220.781 94.1136V100H218.486V98.7898H218.418C218.278 99.0625 218.09 99.303 217.855 99.5114C217.62 99.7159 217.338 99.8769 217.009 99.9943C216.679 100.108 216.298 100.165 215.867 100.165ZM216.56 98.4943C216.916 98.4943 217.23 98.4242 217.503 98.2841C217.776 98.1402 217.99 97.947 218.145 97.7045C218.3 97.4621 218.378 97.1875 218.378 96.8807V95.9545C218.302 96.0038 218.198 96.0492 218.066 96.0909C217.937 96.1288 217.791 96.1648 217.628 96.1989C217.465 96.2292 217.302 96.2576 217.139 96.2841C216.977 96.3068 216.829 96.3277 216.696 96.3466C216.412 96.3883 216.164 96.4545 215.952 96.5455C215.74 96.6364 215.575 96.7595 215.458 96.9148C215.34 97.0663 215.281 97.2557 215.281 97.483C215.281 97.8125 215.401 98.0644 215.639 98.2386C215.882 98.4091 216.189 98.4943 216.56 98.4943ZM222.659 100V91.2727H225.006V92.7955H225.097C225.256 92.2538 225.523 91.8447 225.898 91.5682C226.273 91.2879 226.705 91.1477 227.193 91.1477C227.315 91.1477 227.445 91.1553 227.585 91.1705C227.726 91.1856 227.849 91.2064 227.955 91.233V93.3807C227.841 93.3466 227.684 93.3163 227.483 93.2898C227.282 93.2633 227.099 93.25 226.932 93.25C226.576 93.25 226.258 93.3277 225.977 93.483C225.701 93.6345 225.481 93.8466 225.318 94.1193C225.159 94.392 225.08 94.7064 225.08 95.0625V100H222.659ZM235.33 94.9545V100H232.909V91.2727H235.216V92.8125H235.318C235.512 92.3049 235.835 91.9034 236.29 91.608C236.744 91.3087 237.296 91.1591 237.943 91.1591C238.549 91.1591 239.078 91.2917 239.529 91.5568C239.979 91.822 240.33 92.2008 240.58 92.6932C240.83 93.1818 240.955 93.7652 240.955 94.4432V100H238.534V94.875C238.538 94.3409 238.402 93.9242 238.125 93.625C237.849 93.322 237.468 93.1705 236.983 93.1705C236.657 93.1705 236.369 93.2405 236.119 93.3807C235.873 93.5208 235.68 93.7254 235.54 93.9943C235.404 94.2595 235.334 94.5795 235.33 94.9545ZM246.806 100.17C245.923 100.17 245.16 99.983 244.516 99.608C243.876 99.2292 243.381 98.7027 243.033 98.0284C242.684 97.3504 242.51 96.5644 242.51 95.6705C242.51 94.7689 242.684 93.9811 243.033 93.3068C243.381 92.6288 243.876 92.1023 244.516 91.7273C245.16 91.3485 245.923 91.1591 246.806 91.1591C247.688 91.1591 248.45 91.3485 249.09 91.7273C249.734 92.1023 250.23 92.6288 250.578 93.3068C250.927 93.9811 251.101 94.7689 251.101 95.6705C251.101 96.5644 250.927 97.3504 250.578 98.0284C250.23 98.7027 249.734 99.2292 249.09 99.608C248.45 99.983 247.688 100.17 246.806 100.17ZM246.817 98.2955C247.218 98.2955 247.554 98.1818 247.823 97.9545C248.092 97.7235 248.294 97.4091 248.431 97.0114C248.571 96.6136 248.641 96.161 248.641 95.6534C248.641 95.1458 248.571 94.6932 248.431 94.2955C248.294 93.8977 248.092 93.5833 247.823 93.3523C247.554 93.1212 247.218 93.0057 246.817 93.0057C246.412 93.0057 246.071 93.1212 245.794 93.3523C245.521 93.5833 245.315 93.8977 245.175 94.2955C245.039 94.6932 244.97 95.1458 244.97 95.6534C244.97 96.161 245.039 96.6136 245.175 97.0114C245.315 97.4091 245.521 97.7235 245.794 97.9545C246.071 98.1818 246.412 98.2955 246.817 98.2955ZM257.317 91.2727V93.0909H252.061V91.2727H257.317ZM253.254 89.1818H255.675V97.3182C255.675 97.5417 255.709 97.7159 255.777 97.8409C255.845 97.9621 255.94 98.0473 256.061 98.0966C256.186 98.1458 256.33 98.1705 256.493 98.1705C256.607 98.1705 256.72 98.161 256.834 98.142C256.948 98.1193 257.035 98.1023 257.095 98.0909L257.476 99.892C257.355 99.9299 257.184 99.9735 256.965 100.023C256.745 100.076 256.478 100.108 256.164 100.119C255.58 100.142 255.069 100.064 254.629 99.8864C254.194 99.7083 253.855 99.4318 253.612 99.0568C253.37 98.6818 253.251 98.2083 253.254 97.6364V89.1818ZM258.894 100V91.2727H261.314V100H258.894ZM260.115 90.1477C259.755 90.1477 259.447 90.0284 259.189 89.7898C258.932 89.5473 258.803 89.2576 258.803 88.9205C258.803 88.5871 258.932 88.3011 259.189 88.0625C259.447 87.8201 259.753 87.6989 260.11 87.6989C260.473 87.6989 260.782 87.8201 261.036 88.0625C261.293 88.3011 261.422 88.5871 261.422 88.9205C261.422 89.2576 261.293 89.5473 261.036 89.7898C260.782 90.0284 260.475 90.1477 260.115 90.1477ZM267.946 91.2727V93.0909H262.56V91.2727H267.946ZM263.793 100V90.642C263.793 90.0095 263.916 89.4848 264.162 89.0682C264.412 88.6515 264.753 88.339 265.185 88.1307C265.617 87.9223 266.107 87.8182 266.656 87.8182C267.028 87.8182 267.367 87.8466 267.673 87.9034C267.984 87.9602 268.215 88.0114 268.367 88.0568L267.935 89.875C267.84 89.8447 267.723 89.8163 267.583 89.7898C267.446 89.7633 267.306 89.75 267.162 89.75C266.806 89.75 266.558 89.8333 266.418 90C266.278 90.1629 266.208 90.392 266.208 90.6875V100H263.793ZM269.425 100V91.2727H271.845V100H269.425ZM270.646 90.1477C270.287 90.1477 269.978 90.0284 269.72 89.7898C269.463 89.5473 269.334 89.2576 269.334 88.9205C269.334 88.5871 269.463 88.3011 269.72 88.0625C269.978 87.8201 270.285 87.6989 270.641 87.6989C271.004 87.6989 271.313 87.8201 271.567 88.0625C271.825 88.3011 271.953 88.5871 271.953 88.9205C271.953 89.2576 271.825 89.5473 271.567 89.7898C271.313 90.0284 271.006 90.1477 270.646 90.1477ZM277.727 100.17C276.834 100.17 276.065 99.9811 275.421 99.6023C274.78 99.2197 274.288 98.6894 273.943 98.0114C273.602 97.3333 273.432 96.553 273.432 95.6705C273.432 94.7765 273.604 93.9924 273.949 93.3182C274.298 92.6402 274.792 92.1117 275.432 91.733C276.072 91.3504 276.834 91.1591 277.716 91.1591C278.477 91.1591 279.144 91.2973 279.716 91.5739C280.288 91.8504 280.741 92.2386 281.074 92.7386C281.407 93.2386 281.591 93.8258 281.625 94.5H279.341C279.277 94.0644 279.106 93.714 278.83 93.4489C278.557 93.1799 278.199 93.0455 277.756 93.0455C277.381 93.0455 277.053 93.1477 276.773 93.3523C276.496 93.553 276.28 93.8466 276.125 94.233C275.97 94.6193 275.892 95.0871 275.892 95.6364C275.892 96.1932 275.968 96.6667 276.119 97.0568C276.275 97.447 276.493 97.7443 276.773 97.9489C277.053 98.1534 277.381 98.2557 277.756 98.2557C278.032 98.2557 278.28 98.1989 278.5 98.0852C278.724 97.9716 278.907 97.8068 279.051 97.5909C279.199 97.3712 279.296 97.108 279.341 96.8011H281.625C281.587 97.4678 281.405 98.0549 281.08 98.5625C280.758 99.0663 280.313 99.4602 279.744 99.7443C279.176 100.028 278.504 100.17 277.727 100.17ZM285.664 100.165C285.107 100.165 284.61 100.068 284.175 99.875C283.739 99.678 283.395 99.3883 283.141 99.0057C282.891 98.6193 282.766 98.1383 282.766 97.5625C282.766 97.0777 282.855 96.6705 283.033 96.3409C283.211 96.0114 283.453 95.7462 283.76 95.5455C284.067 95.3447 284.415 95.1932 284.806 95.0909C285.2 94.9886 285.612 94.9167 286.044 94.875C286.552 94.822 286.961 94.7727 287.271 94.7273C287.582 94.678 287.807 94.6061 287.948 94.5114C288.088 94.4167 288.158 94.2765 288.158 94.0909V94.0568C288.158 93.697 288.044 93.4186 287.817 93.2216C287.593 93.0246 287.275 92.9261 286.862 92.9261C286.427 92.9261 286.08 93.0227 285.823 93.2159C285.565 93.4053 285.395 93.6439 285.311 93.9318L283.073 93.75C283.186 93.2197 283.41 92.7614 283.743 92.375C284.076 91.9848 284.506 91.6856 285.033 91.4773C285.563 91.2652 286.177 91.1591 286.874 91.1591C287.359 91.1591 287.823 91.2159 288.266 91.3295C288.713 91.4432 289.109 91.6193 289.453 91.858C289.802 92.0966 290.076 92.4034 290.277 92.7784C290.478 93.1496 290.578 93.5947 290.578 94.1136V100H288.283V98.7898H288.215C288.075 99.0625 287.887 99.303 287.652 99.5114C287.417 99.7159 287.135 99.8769 286.806 99.9943C286.476 100.108 286.095 100.165 285.664 100.165ZM286.357 98.4943C286.713 98.4943 287.027 98.4242 287.3 98.2841C287.573 98.1402 287.787 97.947 287.942 97.7045C288.097 97.4621 288.175 97.1875 288.175 96.8807V95.9545C288.099 96.0038 287.995 96.0492 287.862 96.0909C287.734 96.1288 287.588 96.1648 287.425 96.1989C287.262 96.2292 287.099 96.2576 286.936 96.2841C286.773 96.3068 286.626 96.3277 286.493 96.3466C286.209 96.3883 285.961 96.4545 285.749 96.5455C285.537 96.6364 285.372 96.7595 285.254 96.9148C285.137 97.0663 285.078 97.2557 285.078 97.483C285.078 97.8125 285.198 98.0644 285.436 98.2386C285.679 98.4091 285.985 98.4943 286.357 98.4943ZM297.098 91.2727V93.0909H291.843V91.2727H297.098ZM293.036 89.1818H295.456V97.3182C295.456 97.5417 295.49 97.7159 295.558 97.8409C295.627 97.9621 295.721 98.0473 295.843 98.0966C295.968 98.1458 296.111 98.1705 296.274 98.1705C296.388 98.1705 296.502 98.161 296.615 98.142C296.729 98.1193 296.816 98.1023 296.877 98.0909L297.257 99.892C297.136 99.9299 296.966 99.9735 296.746 100.023C296.526 100.076 296.259 100.108 295.945 100.119C295.361 100.142 294.85 100.064 294.411 99.8864C293.975 99.7083 293.636 99.4318 293.394 99.0568C293.151 98.6818 293.032 98.2083 293.036 97.6364V89.1818ZM298.675 100V91.2727H301.095V100H298.675ZM299.896 90.1477C299.537 90.1477 299.228 90.0284 298.97 89.7898C298.713 89.5473 298.584 89.2576 298.584 88.9205C298.584 88.5871 298.713 88.3011 298.97 88.0625C299.228 87.8201 299.535 87.6989 299.891 87.6989C300.254 87.6989 300.563 87.8201 300.817 88.0625C301.075 88.3011 301.203 88.5871 301.203 88.9205C301.203 89.2576 301.075 89.5473 300.817 89.7898C300.563 90.0284 300.256 90.1477 299.896 90.1477ZM306.977 100.17C306.095 100.17 305.332 99.983 304.688 99.608C304.048 99.2292 303.553 98.7027 303.205 98.0284C302.856 97.3504 302.682 96.5644 302.682 95.6705C302.682 94.7689 302.856 93.9811 303.205 93.3068C303.553 92.6288 304.048 92.1023 304.688 91.7273C305.332 91.3485 306.095 91.1591 306.977 91.1591C307.86 91.1591 308.621 91.3485 309.262 91.7273C309.905 92.1023 310.402 92.6288 310.75 93.3068C311.099 93.9811 311.273 94.7689 311.273 95.6705C311.273 96.5644 311.099 97.3504 310.75 98.0284C310.402 98.7027 309.905 99.2292 309.262 99.608C308.621 99.983 307.86 100.17 306.977 100.17ZM306.989 98.2955C307.39 98.2955 307.726 98.1818 307.994 97.9545C308.263 97.7235 308.466 97.4091 308.602 97.0114C308.743 96.6136 308.813 96.161 308.813 95.6534C308.813 95.1458 308.743 94.6932 308.602 94.2955C308.466 93.8977 308.263 93.5833 307.994 93.3523C307.726 93.1212 307.39 93.0057 306.989 93.0057C306.584 93.0057 306.243 93.1212 305.966 93.3523C305.693 93.5833 305.487 93.8977 305.347 94.2955C305.21 94.6932 305.142 95.1458 305.142 95.6534C305.142 96.161 305.21 96.6136 305.347 97.0114C305.487 97.4091 305.693 97.7235 305.966 97.9545C306.243 98.1818 306.584 98.2955 306.989 98.2955ZM315.267 94.9545V100H312.847V91.2727H315.154V92.8125H315.256C315.449 92.3049 315.773 91.9034 316.227 91.608C316.682 91.3087 317.233 91.1591 317.881 91.1591C318.487 91.1591 319.015 91.2917 319.466 91.5568C319.917 91.822 320.267 92.2008 320.517 92.6932C320.767 93.1818 320.892 93.7652 320.892 94.4432V100H318.472V94.875C318.476 94.3409 318.339 93.9242 318.063 93.625C317.786 93.322 317.405 93.1705 316.921 93.1705C316.595 93.1705 316.307 93.2405 316.057 93.3807C315.811 93.5208 315.618 93.7254 315.477 93.9943C315.341 94.2595 315.271 94.5795 315.267 94.9545ZM330.061 93.7614L327.845 93.8977C327.807 93.7083 327.726 93.5379 327.601 93.3864C327.476 93.2311 327.311 93.108 327.107 93.017C326.906 92.9223 326.665 92.875 326.385 92.875C326.01 92.875 325.694 92.9545 325.436 93.1136C325.179 93.2689 325.05 93.4773 325.05 93.7386C325.05 93.947 325.133 94.1231 325.3 94.267C325.467 94.411 325.753 94.5265 326.158 94.6136L327.737 94.9318C328.586 95.1061 329.218 95.3864 329.635 95.7727C330.052 96.1591 330.26 96.6667 330.26 97.2955C330.26 97.8674 330.092 98.3693 329.754 98.8011C329.421 99.233 328.963 99.5701 328.379 99.8125C327.8 100.051 327.131 100.17 326.374 100.17C325.218 100.17 324.298 99.9299 323.612 99.4489C322.931 98.964 322.531 98.3049 322.414 97.4716L324.794 97.3466C324.866 97.6989 325.04 97.9678 325.317 98.1534C325.593 98.3352 325.948 98.4261 326.379 98.4261C326.804 98.4261 327.145 98.3447 327.402 98.1818C327.664 98.0152 327.796 97.8011 327.8 97.5398C327.796 97.3201 327.703 97.1402 327.521 97C327.34 96.8561 327.059 96.7462 326.681 96.6705L325.169 96.3693C324.317 96.1989 323.682 95.9034 323.266 95.483C322.853 95.0625 322.646 94.5265 322.646 93.875C322.646 93.3144 322.798 92.8314 323.101 92.4261C323.408 92.0208 323.838 91.7083 324.391 91.4886C324.948 91.2689 325.599 91.1591 326.345 91.1591C327.448 91.1591 328.315 91.392 328.948 91.858C329.584 92.3239 329.955 92.9583 330.061 93.7614Z" fill="white" fill-opacity="0.95"/>
<rect width="312" height="1" transform="translate(165 162)" fill="white" fill-opacity="0.3"/>
<path d="M46.556 175.912V174.818H54.1924V175.912H50.9907V185H49.7577V175.912H46.556ZM57.931 185.159C57.2416 185.159 56.6367 184.995 56.1164 184.667C55.5993 184.339 55.195 183.88 54.9033 183.29C54.615 182.7 54.4708 182.01 54.4708 181.222C54.4708 180.426 54.615 179.732 54.9033 179.138C55.195 178.545 55.5993 178.085 56.1164 177.756C56.6367 177.428 57.2416 177.264 57.931 177.264C58.6204 177.264 59.2236 177.428 59.7407 177.756C60.261 178.085 60.6654 178.545 60.9537 179.138C61.2454 179.732 61.3912 180.426 61.3912 181.222C61.3912 182.01 61.2454 182.7 60.9537 183.29C60.6654 183.88 60.261 184.339 59.7407 184.667C59.2236 184.995 58.6204 185.159 57.931 185.159ZM57.931 184.105C58.4547 184.105 58.8856 183.971 59.2236 183.702C59.5617 183.434 59.8119 183.081 59.9743 182.643C60.1367 182.206 60.218 181.732 60.218 181.222C60.218 180.711 60.1367 180.236 59.9743 179.795C59.8119 179.354 59.5617 178.998 59.2236 178.726C58.8856 178.454 58.4547 178.318 57.931 178.318C57.4073 178.318 56.9765 178.454 56.6384 178.726C56.3003 178.998 56.0501 179.354 55.8877 179.795C55.7253 180.236 55.6441 180.711 55.6441 181.222C55.6441 181.732 55.7253 182.206 55.8877 182.643C56.0501 183.081 56.3003 183.434 56.6384 183.702C56.9765 183.971 57.4073 184.105 57.931 184.105ZM70.222 185.159C69.5061 185.159 68.8896 184.99 68.3726 184.652C67.8556 184.314 67.4578 183.848 67.1794 183.255C66.901 182.662 66.7618 181.984 66.7618 181.222C66.7618 180.446 66.9043 179.762 67.1894 179.168C67.4777 178.572 67.8788 178.106 68.3925 177.771C68.9095 177.433 69.5128 177.264 70.2021 177.264C70.7391 177.264 71.223 177.364 71.6539 177.562C72.0847 177.761 72.4377 178.04 72.7128 178.398C72.9879 178.756 73.1586 179.173 73.2249 179.651H72.0516C71.9621 179.303 71.7632 178.994 71.455 178.726C71.1501 178.454 70.7391 178.318 70.222 178.318C69.7646 178.318 69.3636 178.437 69.0189 178.676C68.6775 178.911 68.4107 179.245 68.2185 179.675C68.0296 180.103 67.9351 180.605 67.9351 181.182C67.9351 181.772 68.0279 182.286 68.2135 182.723C68.4024 183.161 68.6676 183.5 69.009 183.742C69.3537 183.984 69.758 184.105 70.222 184.105C70.527 184.105 70.8037 184.052 71.0523 183.946C71.3009 183.84 71.5113 183.688 71.6837 183.489C71.856 183.29 71.9787 183.051 72.0516 182.773H73.2249C73.1586 183.223 72.9945 183.629 72.7327 183.991C72.4742 184.349 72.1311 184.634 71.7036 184.846C71.2793 185.055 70.7855 185.159 70.222 185.159ZM76.1134 180.406V185H74.9401V174.818H76.1134V178.557H76.2128C76.3918 178.162 76.6602 177.849 77.0182 177.617C77.3795 177.382 77.8601 177.264 78.46 177.264C78.9803 177.264 79.436 177.369 79.8271 177.577C80.2182 177.783 80.5215 178.099 80.7369 178.527C80.9557 178.951 81.0651 179.491 81.0651 180.148V185H79.8918V180.227C79.8918 179.621 79.7343 179.152 79.4195 178.82C79.1079 178.486 78.6754 178.318 78.1219 178.318C77.7374 178.318 77.3927 178.399 77.0878 178.562C76.7862 178.724 76.5476 178.961 76.3719 179.273C76.1995 179.584 76.1134 179.962 76.1134 180.406ZM85.4587 185.179C84.9748 185.179 84.5357 185.088 84.1412 184.906C83.7468 184.72 83.4336 184.453 83.2016 184.105C82.9696 183.754 82.8536 183.33 82.8536 182.832C82.8536 182.395 82.9398 182.04 83.1121 181.768C83.2845 181.493 83.5148 181.278 83.8032 181.122C84.0915 180.966 84.4097 180.85 84.7577 180.774C85.109 180.695 85.462 180.632 85.8167 180.585C86.2807 180.526 86.6569 180.481 86.9452 180.451C87.2369 180.418 87.449 180.363 87.5816 180.287C87.7175 180.211 87.7854 180.078 87.7854 179.889V179.849C87.7854 179.359 87.6512 178.978 87.3827 178.706C87.1176 178.434 86.7149 178.298 86.1746 178.298C85.6145 178.298 85.1753 178.421 84.8572 178.666C84.539 178.911 84.3153 179.173 84.186 179.452L83.0724 179.054C83.2712 178.59 83.5364 178.229 83.8678 177.97C84.2026 177.708 84.5671 177.526 84.9616 177.423C85.3593 177.317 85.7504 177.264 86.1349 177.264C86.3801 177.264 86.6618 177.294 86.98 177.354C87.3015 177.41 87.6114 177.528 87.9097 177.707C88.2113 177.886 88.4616 178.156 88.6604 178.517C88.8593 178.878 88.9587 179.362 88.9587 179.969V185H87.7854V183.966H87.7258C87.6462 184.132 87.5136 184.309 87.328 184.498C87.1424 184.687 86.8955 184.848 86.5873 184.98C86.279 185.113 85.9028 185.179 85.4587 185.179ZM85.6377 184.125C86.1017 184.125 86.4928 184.034 86.811 183.852C87.1325 183.669 87.3744 183.434 87.5368 183.146C87.7026 182.857 87.7854 182.554 87.7854 182.236V181.162C87.7357 181.222 87.6263 181.276 87.4573 181.326C87.2916 181.372 87.0993 181.414 86.8806 181.45C86.6652 181.483 86.4547 181.513 86.2492 181.54C86.047 181.563 85.883 181.583 85.757 181.599C85.4521 181.639 85.1671 181.704 84.9019 181.793C84.6401 181.879 84.4279 182.01 84.2655 182.186C84.1064 182.358 84.0269 182.594 84.0269 182.892C84.0269 183.3 84.1777 183.608 84.4793 183.817C84.7842 184.022 85.1704 184.125 85.6377 184.125ZM92.2735 180.406V185H91.1002V177.364H92.2338V178.557H92.3332C92.5122 178.169 92.7839 177.857 93.1485 177.622C93.5131 177.384 93.9838 177.264 94.5605 177.264C95.0775 177.264 95.5299 177.37 95.9177 177.582C96.3055 177.791 96.6071 178.109 96.8225 178.537C97.038 178.961 97.1457 179.498 97.1457 180.148V185H95.9724V180.227C95.9724 179.627 95.8166 179.16 95.5051 178.825C95.1935 178.487 94.766 178.318 94.2224 178.318C93.8479 178.318 93.5131 178.399 93.2181 178.562C92.9265 178.724 92.6961 178.961 92.5271 179.273C92.358 179.584 92.2735 179.962 92.2735 180.406ZM102.372 188.023C101.805 188.023 101.318 187.95 100.91 187.804C100.503 187.661 100.163 187.473 99.8912 187.237C99.6228 187.005 99.409 186.757 99.2499 186.491L100.185 185.835C100.291 185.974 100.425 186.134 100.587 186.312C100.75 186.495 100.972 186.652 101.253 186.785C101.539 186.921 101.911 186.989 102.372 186.989C102.989 186.989 103.497 186.839 103.898 186.541C104.299 186.243 104.5 185.776 104.5 185.139V183.588H104.4C104.314 183.727 104.192 183.9 104.033 184.105C103.877 184.307 103.651 184.488 103.356 184.647C103.065 184.803 102.67 184.881 102.173 184.881C101.557 184.881 101.003 184.735 100.513 184.443C100.025 184.152 99.6394 183.727 99.3543 183.17C99.0726 182.614 98.9317 181.937 98.9317 181.142C98.9317 180.36 99.0693 179.679 99.3444 179.099C99.6195 178.515 100.002 178.065 100.493 177.746C100.983 177.425 101.55 177.264 102.193 177.264C102.69 177.264 103.085 177.347 103.376 177.513C103.671 177.675 103.897 177.861 104.052 178.07C104.212 178.275 104.334 178.444 104.42 178.577H104.54V177.364H105.673V185.219C105.673 185.875 105.524 186.409 105.226 186.82C104.931 187.234 104.533 187.537 104.033 187.729C103.535 187.925 102.982 188.023 102.372 188.023ZM102.332 183.827C102.803 183.827 103.201 183.719 103.525 183.504C103.85 183.288 104.097 182.978 104.266 182.574C104.435 182.17 104.52 181.686 104.52 181.122C104.52 180.572 104.437 180.086 104.271 179.665C104.105 179.245 103.86 178.915 103.535 178.676C103.211 178.437 102.81 178.318 102.332 178.318C101.835 178.318 101.421 178.444 101.089 178.696C100.761 178.948 100.514 179.286 100.349 179.71C100.186 180.134 100.105 180.605 100.105 181.122C100.105 181.652 100.188 182.121 100.354 182.529C100.523 182.933 100.771 183.252 101.099 183.484C101.431 183.712 101.842 183.827 102.332 183.827ZM111.023 185.159C110.287 185.159 109.652 184.997 109.119 184.672C108.588 184.344 108.179 183.886 107.891 183.3C107.605 182.71 107.463 182.024 107.463 181.241C107.463 180.459 107.605 179.77 107.891 179.173C108.179 178.573 108.58 178.106 109.094 177.771C109.611 177.433 110.214 177.264 110.903 177.264C111.301 177.264 111.694 177.33 112.082 177.463C112.469 177.596 112.822 177.811 113.141 178.109C113.459 178.404 113.712 178.795 113.901 179.283C114.09 179.77 114.185 180.37 114.185 181.082V181.58H108.298V180.565H112.991C112.991 180.134 112.905 179.75 112.733 179.412C112.564 179.074 112.322 178.807 112.007 178.612C111.695 178.416 111.328 178.318 110.903 178.318C110.436 178.318 110.032 178.434 109.69 178.666C109.352 178.895 109.092 179.193 108.91 179.561C108.727 179.929 108.636 180.323 108.636 180.744V181.42C108.636 181.997 108.736 182.486 108.935 182.887C109.137 183.285 109.417 183.588 109.775 183.797C110.133 184.002 110.549 184.105 111.023 184.105C111.331 184.105 111.609 184.062 111.858 183.976C112.11 183.886 112.327 183.754 112.509 183.578C112.691 183.399 112.832 183.177 112.932 182.912L114.065 183.23C113.946 183.615 113.745 183.953 113.464 184.244C113.182 184.533 112.834 184.758 112.42 184.92C112.005 185.08 111.54 185.159 111.023 185.159ZM123.228 177.364V178.358H119.271V177.364H123.228ZM120.424 175.534H121.597V182.812C121.597 183.144 121.645 183.393 121.741 183.558C121.841 183.721 121.967 183.83 122.119 183.886C122.275 183.939 122.439 183.966 122.611 183.966C122.741 183.966 122.847 183.959 122.93 183.946C123.012 183.929 123.079 183.916 123.128 183.906L123.367 184.96C123.288 184.99 123.177 185.02 123.034 185.05C122.891 185.083 122.711 185.099 122.492 185.099C122.161 185.099 121.836 185.028 121.518 184.886C121.203 184.743 120.941 184.526 120.732 184.234C120.527 183.943 120.424 183.575 120.424 183.131V175.534ZM126.33 180.406V185H125.157V174.818H126.33V178.557H126.43C126.609 178.162 126.877 177.849 127.235 177.617C127.596 177.382 128.077 177.264 128.677 177.264C129.197 177.264 129.653 177.369 130.044 177.577C130.435 177.783 130.738 178.099 130.954 178.527C131.172 178.951 131.282 179.491 131.282 180.148V185H130.109V180.227C130.109 179.621 129.951 179.152 129.636 178.82C129.325 178.486 128.892 178.318 128.339 178.318C127.954 178.318 127.61 178.399 127.305 178.562C127.003 178.724 126.764 178.961 126.589 179.273C126.416 179.584 126.33 179.962 126.33 180.406ZM136.63 185.159C135.894 185.159 135.26 184.997 134.726 184.672C134.196 184.344 133.786 183.886 133.498 183.3C133.213 182.71 133.07 182.024 133.07 181.241C133.07 180.459 133.213 179.77 133.498 179.173C133.786 178.573 134.187 178.106 134.701 177.771C135.218 177.433 135.821 177.264 136.511 177.264C136.908 177.264 137.301 177.33 137.689 177.463C138.077 177.596 138.43 177.811 138.748 178.109C139.066 178.404 139.32 178.795 139.509 179.283C139.698 179.77 139.792 180.37 139.792 181.082V181.58H133.906V180.565H138.599C138.599 180.134 138.513 179.75 138.34 179.412C138.171 179.074 137.929 178.807 137.614 178.612C137.303 178.416 136.935 178.318 136.511 178.318C136.043 178.318 135.639 178.434 135.298 178.666C134.96 178.895 134.699 179.193 134.517 179.561C134.335 179.929 134.244 180.323 134.244 180.744V181.42C134.244 181.997 134.343 182.486 134.542 182.887C134.744 183.285 135.024 183.588 135.382 183.797C135.74 184.002 136.156 184.105 136.63 184.105C136.938 184.105 137.217 184.062 137.465 183.976C137.717 183.886 137.934 183.754 138.117 183.578C138.299 183.399 138.44 183.177 138.539 182.912L139.673 183.23C139.553 183.615 139.353 183.953 139.071 184.244C138.789 184.533 138.441 184.758 138.027 184.92C137.613 185.08 137.147 185.159 136.63 185.159ZM151.759 177.364L148.935 185H147.742L144.918 177.364H146.19L148.298 183.449H148.378L150.486 177.364H151.759ZM156.136 185.159C155.447 185.159 154.842 184.995 154.321 184.667C153.804 184.339 153.4 183.88 153.108 183.29C152.82 182.7 152.676 182.01 152.676 181.222C152.676 180.426 152.82 179.732 153.108 179.138C153.4 178.545 153.804 178.085 154.321 177.756C154.842 177.428 155.447 177.264 156.136 177.264C156.825 177.264 157.429 177.428 157.946 177.756C158.466 178.085 158.87 178.545 159.159 179.138C159.45 179.732 159.596 180.426 159.596 181.222C159.596 182.01 159.45 182.7 159.159 183.29C158.87 183.88 158.466 184.339 157.946 184.667C157.429 184.995 156.825 185.159 156.136 185.159ZM156.136 184.105C156.66 184.105 157.091 183.971 157.429 183.702C157.767 183.434 158.017 183.081 158.179 182.643C158.342 182.206 158.423 181.732 158.423 181.222C158.423 180.711 158.342 180.236 158.179 179.795C158.017 179.354 157.767 178.998 157.429 178.726C157.091 178.454 156.66 178.318 156.136 178.318C155.612 178.318 155.182 178.454 154.843 178.726C154.505 178.998 154.255 179.354 154.093 179.795C153.93 180.236 153.849 180.711 153.849 181.222C153.849 181.732 153.93 182.206 154.093 182.643C154.255 183.081 154.505 183.434 154.843 183.702C155.182 183.971 155.612 184.105 156.136 184.105ZM162.561 174.818V185H161.387V174.818H162.561ZM169.522 181.878V177.364H170.695V185H169.522V183.707H169.443C169.264 184.095 168.985 184.425 168.607 184.697C168.229 184.965 167.752 185.099 167.176 185.099C166.698 185.099 166.274 184.995 165.903 184.786C165.532 184.574 165.24 184.256 165.028 183.832C164.816 183.404 164.71 182.866 164.71 182.216V177.364H165.883V182.136C165.883 182.693 166.039 183.137 166.35 183.469C166.665 183.8 167.066 183.966 167.553 183.966C167.845 183.966 168.142 183.891 168.443 183.742C168.748 183.593 169.003 183.364 169.209 183.056C169.418 182.748 169.522 182.355 169.522 181.878ZM172.844 185V177.364H173.978V178.557H174.077C174.236 178.149 174.493 177.833 174.848 177.607C175.203 177.379 175.628 177.264 176.126 177.264C176.629 177.264 177.049 177.379 177.383 177.607C177.722 177.833 177.985 178.149 178.174 178.557H178.253C178.449 178.162 178.742 177.849 179.133 177.617C179.525 177.382 179.994 177.264 180.54 177.264C181.223 177.264 181.782 177.478 182.216 177.906C182.65 178.33 182.867 178.991 182.867 179.889V185H181.694V179.889C181.694 179.326 181.54 178.923 181.231 178.681C180.923 178.439 180.56 178.318 180.143 178.318C179.606 178.318 179.19 178.481 178.895 178.805C178.6 179.127 178.452 179.535 178.452 180.028V185H177.259V179.77C177.259 179.336 177.118 178.986 176.837 178.721C176.555 178.452 176.192 178.318 175.748 178.318C175.443 178.318 175.158 178.399 174.893 178.562C174.631 178.724 174.419 178.95 174.256 179.238C174.097 179.523 174.018 179.853 174.018 180.227V185H172.844ZM188.214 185.159C187.478 185.159 186.844 184.997 186.31 184.672C185.78 184.344 185.37 183.886 185.082 183.3C184.797 182.71 184.654 182.024 184.654 181.241C184.654 180.459 184.797 179.77 185.082 179.173C185.37 178.573 185.771 178.106 186.285 177.771C186.802 177.433 187.405 177.264 188.095 177.264C188.492 177.264 188.885 177.33 189.273 177.463C189.661 177.596 190.014 177.811 190.332 178.109C190.65 178.404 190.904 178.795 191.093 179.283C191.282 179.77 191.376 180.37 191.376 181.082V181.58H185.49V180.565H190.183C190.183 180.134 190.097 179.75 189.924 179.412C189.755 179.074 189.513 178.807 189.198 178.612C188.887 178.416 188.519 178.318 188.095 178.318C187.627 178.318 187.223 178.434 186.882 178.666C186.544 178.895 186.283 179.193 186.101 179.561C185.919 179.929 185.828 180.323 185.828 180.744V181.42C185.828 181.997 185.927 182.486 186.126 182.887C186.328 183.285 186.608 183.588 186.966 183.797C187.324 184.002 187.74 184.105 188.214 184.105C188.522 184.105 188.801 184.062 189.049 183.976C189.301 183.886 189.518 183.754 189.701 183.578C189.883 183.399 190.024 183.177 190.123 182.912L191.257 183.23C191.137 183.615 190.937 183.953 190.655 184.244C190.373 184.533 190.025 184.758 189.611 184.92C189.197 185.08 188.731 185.159 188.214 185.159ZM200.201 185.159C199.511 185.159 198.906 184.995 198.386 184.667C197.869 184.339 197.465 183.88 197.173 183.29C196.884 182.7 196.74 182.01 196.74 181.222C196.74 180.426 196.884 179.732 197.173 179.138C197.465 178.545 197.869 178.085 198.386 177.756C198.906 177.428 199.511 177.264 200.201 177.264C200.89 177.264 201.493 177.428 202.01 177.756C202.531 178.085 202.935 178.545 203.223 179.138C203.515 179.732 203.661 180.426 203.661 181.222C203.661 182.01 203.515 182.7 203.223 183.29C202.935 183.88 202.531 184.339 202.01 184.667C201.493 184.995 200.89 185.159 200.201 185.159ZM200.201 184.105C200.724 184.105 201.155 183.971 201.493 183.702C201.831 183.434 202.081 183.081 202.244 182.643C202.406 182.206 202.487 181.732 202.487 181.222C202.487 180.711 202.406 180.236 202.244 179.795C202.081 179.354 201.831 178.998 201.493 178.726C201.155 178.454 200.724 178.318 200.201 178.318C199.677 178.318 199.246 178.454 198.908 178.726C198.57 178.998 198.32 179.354 198.157 179.795C197.995 180.236 197.914 180.711 197.914 181.222C197.914 181.732 197.995 182.206 198.157 182.643C198.32 183.081 198.57 183.434 198.908 183.702C199.246 183.971 199.677 184.105 200.201 184.105ZM208.852 177.364V178.358H204.736V177.364H208.852ZM205.969 185V176.31C205.969 175.872 206.072 175.508 206.277 175.216C206.483 174.924 206.749 174.705 207.078 174.56C207.406 174.414 207.752 174.341 208.117 174.341C208.405 174.341 208.64 174.364 208.823 174.411C209.005 174.457 209.141 174.5 209.23 174.54L208.892 175.554C208.832 175.534 208.75 175.509 208.644 175.479C208.541 175.45 208.405 175.435 208.236 175.435C207.848 175.435 207.568 175.532 207.396 175.728C207.227 175.924 207.142 176.21 207.142 176.588V185H205.969ZM215.19 187.844C214.991 187.844 214.814 187.827 214.658 187.794C214.502 187.764 214.394 187.734 214.335 187.705L214.633 186.67C215.061 186.78 215.417 186.777 215.702 186.661C215.987 186.548 216.234 186.206 216.443 185.636L216.661 185.04L213.838 177.364H215.11L217.218 183.449H217.298L219.406 177.364L220.688 177.384L217.437 186.114C217.291 186.501 217.111 186.823 216.895 187.078C216.68 187.337 216.429 187.529 216.144 187.655C215.863 187.781 215.545 187.844 215.19 187.844ZM225.07 185.159C224.38 185.159 223.775 184.995 223.255 184.667C222.738 184.339 222.334 183.88 222.042 183.29C221.754 182.7 221.609 182.01 221.609 181.222C221.609 180.426 221.754 179.732 222.042 179.138C222.334 178.545 222.738 178.085 223.255 177.756C223.775 177.428 224.38 177.264 225.07 177.264C225.759 177.264 226.362 177.428 226.879 177.756C227.4 178.085 227.804 178.545 228.092 179.138C228.384 179.732 228.53 180.426 228.53 181.222C228.53 182.01 228.384 182.7 228.092 183.29C227.804 183.88 227.4 184.339 226.879 184.667C226.362 184.995 225.759 185.159 225.07 185.159ZM225.07 184.105C225.593 184.105 226.024 183.971 226.362 183.702C226.7 183.434 226.951 183.081 227.113 182.643C227.275 182.206 227.357 181.732 227.357 181.222C227.357 180.711 227.275 180.236 227.113 179.795C226.951 179.354 226.7 178.998 226.362 178.726C226.024 178.454 225.593 178.318 225.07 178.318C224.546 178.318 224.115 178.454 223.777 178.726C223.439 178.998 223.189 179.354 223.026 179.795C222.864 180.236 222.783 180.711 222.783 181.222C222.783 181.732 222.864 182.206 223.026 182.643C223.189 183.081 223.439 183.434 223.777 183.702C224.115 183.971 224.546 184.105 225.07 184.105ZM235.133 181.878V177.364H236.307V185H235.133V183.707H235.054C234.875 184.095 234.597 184.425 234.219 184.697C233.841 184.965 233.364 185.099 232.787 185.099C232.31 185.099 231.885 184.995 231.514 184.786C231.143 184.574 230.851 184.256 230.639 183.832C230.427 183.404 230.321 182.866 230.321 182.216V177.364H231.494V182.136C231.494 182.693 231.65 183.137 231.962 183.469C232.276 183.8 232.677 183.966 233.165 183.966C233.456 183.966 233.753 183.891 234.055 183.742C234.36 183.593 234.615 183.364 234.82 183.056C235.029 182.748 235.133 182.355 235.133 181.878ZM238.456 185V177.364H239.589V178.517H239.669C239.808 178.139 240.06 177.833 240.424 177.597C240.789 177.362 241.2 177.244 241.657 177.244C241.744 177.244 241.851 177.246 241.981 177.249C242.11 177.253 242.208 177.258 242.274 177.264V178.457C242.234 178.447 242.143 178.433 242 178.413C241.861 178.389 241.714 178.378 241.558 178.378C241.187 178.378 240.855 178.456 240.564 178.612C240.275 178.764 240.047 178.976 239.878 179.248C239.712 179.516 239.629 179.823 239.629 180.168V185H238.456ZM248.775 180.406V185H247.602V177.364H248.736V178.557H248.835C249.014 178.169 249.286 177.857 249.65 177.622C250.015 177.384 250.486 177.264 251.062 177.264C251.579 177.264 252.032 177.37 252.42 177.582C252.807 177.791 253.109 178.109 253.324 178.537C253.54 178.961 253.648 179.498 253.648 180.148V185H252.474V180.227C252.474 179.627 252.319 179.16 252.007 178.825C251.695 178.487 251.268 178.318 250.724 178.318C250.35 178.318 250.015 178.399 249.72 178.562C249.428 178.724 249.198 178.961 249.029 179.273C248.86 179.584 248.775 179.962 248.775 180.406ZM258.894 185.159C258.205 185.159 257.6 184.995 257.079 184.667C256.562 184.339 256.158 183.88 255.866 183.29C255.578 182.7 255.434 182.01 255.434 181.222C255.434 180.426 255.578 179.732 255.866 179.138C256.158 178.545 256.562 178.085 257.079 177.756C257.6 177.428 258.205 177.264 258.894 177.264C259.583 177.264 260.187 177.428 260.704 177.756C261.224 178.085 261.628 178.545 261.917 179.138C262.208 179.732 262.354 180.426 262.354 181.222C262.354 182.01 262.208 182.7 261.917 183.29C261.628 183.88 261.224 184.339 260.704 184.667C260.187 184.995 259.583 185.159 258.894 185.159ZM258.894 184.105C259.418 184.105 259.848 183.971 260.187 183.702C260.525 183.434 260.775 183.081 260.937 182.643C261.1 182.206 261.181 181.732 261.181 181.222C261.181 180.711 261.1 180.236 260.937 179.795C260.775 179.354 260.525 178.998 260.187 178.726C259.848 178.454 259.418 178.318 258.894 178.318C258.37 178.318 257.939 178.454 257.601 178.726C257.263 178.998 257.013 179.354 256.851 179.795C256.688 180.236 256.607 180.711 256.607 181.222C256.607 181.732 256.688 182.206 256.851 182.643C257.013 183.081 257.263 183.434 257.601 183.702C257.939 183.971 258.37 184.105 258.894 184.105ZM267.466 177.364V178.358H263.509V177.364H267.466ZM264.662 175.534H265.835V182.812C265.835 183.144 265.884 183.393 265.98 183.558C266.079 183.721 266.205 183.83 266.358 183.886C266.513 183.939 266.677 183.966 266.85 183.966C266.979 183.966 267.085 183.959 267.168 183.946C267.251 183.929 267.317 183.916 267.367 183.906L267.605 184.96C267.526 184.99 267.415 185.02 267.272 185.05C267.13 185.083 266.949 185.099 266.73 185.099C266.399 185.099 266.074 185.028 265.756 184.886C265.441 184.743 265.179 184.526 264.97 184.234C264.765 183.943 264.662 183.575 264.662 183.131V175.534ZM269.231 185V177.364H270.404V185H269.231ZM269.828 176.091C269.599 176.091 269.402 176.013 269.236 175.857C269.074 175.701 268.992 175.514 268.992 175.295C268.992 175.077 269.074 174.889 269.236 174.734C269.402 174.578 269.599 174.5 269.828 174.5C270.056 174.5 270.252 174.578 270.414 174.734C270.58 174.889 270.663 175.077 270.663 175.295C270.663 175.514 270.58 175.701 270.414 175.857C270.252 176.013 270.056 176.091 269.828 176.091ZM275.954 177.364V178.358H271.837V177.364H275.954ZM273.07 185V176.31C273.07 175.872 273.173 175.508 273.379 175.216C273.584 174.924 273.851 174.705 274.179 174.56C274.507 174.414 274.854 174.341 275.218 174.341C275.506 174.341 275.742 174.364 275.924 174.411C276.106 174.457 276.242 174.5 276.332 174.54L275.994 175.554C275.934 175.534 275.851 175.509 275.745 175.479C275.642 175.45 275.506 175.435 275.337 175.435C274.95 175.435 274.67 175.532 274.497 175.728C274.328 175.924 274.244 176.21 274.244 176.588V185H273.07ZM277.598 185V177.364H278.772V185H277.598ZM278.195 176.091C277.966 176.091 277.769 176.013 277.603 175.857C277.441 175.701 277.36 175.514 277.36 175.295C277.36 175.077 277.441 174.889 277.603 174.734C277.769 174.578 277.966 174.5 278.195 174.5C278.424 174.5 278.619 174.578 278.782 174.734C278.947 174.889 279.03 175.077 279.03 175.295C279.03 175.514 278.947 175.701 278.782 175.857C278.619 176.013 278.424 176.091 278.195 176.091ZM284.023 185.159C283.307 185.159 282.69 184.99 282.173 184.652C281.656 184.314 281.259 183.848 280.98 183.255C280.702 182.662 280.563 181.984 280.563 181.222C280.563 180.446 280.705 179.762 280.99 179.168C281.278 178.572 281.68 178.106 282.193 177.771C282.71 177.433 283.314 177.264 284.003 177.264C284.54 177.264 285.024 177.364 285.455 177.562C285.886 177.761 286.238 178.04 286.514 178.398C286.789 178.756 286.959 179.173 287.026 179.651H285.852C285.763 179.303 285.564 178.994 285.256 178.726C284.951 178.454 284.54 178.318 284.023 178.318C283.565 178.318 283.164 178.437 282.82 178.676C282.478 178.911 282.211 179.245 282.019 179.675C281.83 180.103 281.736 180.605 281.736 181.182C281.736 181.772 281.829 182.286 282.014 182.723C282.203 183.161 282.468 183.5 282.81 183.742C283.154 183.984 283.559 184.105 284.023 184.105C284.328 184.105 284.604 184.052 284.853 183.946C285.102 183.84 285.312 183.688 285.484 183.489C285.657 183.29 285.779 183.051 285.852 182.773H287.026C286.959 183.223 286.795 183.629 286.533 183.991C286.275 184.349 285.932 184.634 285.504 184.846C285.08 185.055 284.586 185.159 284.023 185.159ZM290.988 185.179C290.504 185.179 290.065 185.088 289.671 184.906C289.276 184.72 288.963 184.453 288.731 184.105C288.499 183.754 288.383 183.33 288.383 182.832C288.383 182.395 288.469 182.04 288.641 181.768C288.814 181.493 289.044 181.278 289.332 181.122C289.621 180.966 289.939 180.85 290.287 180.774C290.638 180.695 290.991 180.632 291.346 180.585C291.81 180.526 292.186 180.481 292.475 180.451C292.766 180.418 292.978 180.363 293.111 180.287C293.247 180.211 293.315 180.078 293.315 179.889V179.849C293.315 179.359 293.18 178.978 292.912 178.706C292.647 178.434 292.244 178.298 291.704 178.298C291.144 178.298 290.705 178.421 290.386 178.666C290.068 178.911 289.845 179.173 289.715 179.452L288.602 179.054C288.801 178.59 289.066 178.229 289.397 177.97C289.732 177.708 290.096 177.526 290.491 177.423C290.889 177.317 291.28 177.264 291.664 177.264C291.909 177.264 292.191 177.294 292.509 177.354C292.831 177.41 293.141 177.528 293.439 177.707C293.741 177.886 293.991 178.156 294.19 178.517C294.389 178.878 294.488 179.362 294.488 179.969V185H293.315V183.966H293.255C293.176 184.132 293.043 184.309 292.857 184.498C292.672 184.687 292.425 184.848 292.117 184.98C291.808 185.113 291.432 185.179 290.988 185.179ZM291.167 184.125C291.631 184.125 292.022 184.034 292.34 183.852C292.662 183.669 292.904 183.434 293.066 183.146C293.232 182.857 293.315 182.554 293.315 182.236V181.162C293.265 181.222 293.156 181.276 292.987 181.326C292.821 181.372 292.629 181.414 292.41 181.45C292.194 181.483 291.984 181.513 291.778 181.54C291.576 181.563 291.412 181.583 291.286 181.599C290.981 181.639 290.696 181.704 290.431 181.793C290.169 181.879 289.957 182.01 289.795 182.186C289.636 182.358 289.556 182.594 289.556 182.892C289.556 183.3 289.707 183.608 290.009 183.817C290.314 184.022 290.7 184.125 291.167 184.125ZM299.951 177.364V178.358H295.993V177.364H299.951ZM297.147 175.534H298.32V182.812C298.32 183.144 298.368 183.393 298.464 183.558C298.563 183.721 298.689 183.83 298.842 183.886C298.998 183.939 299.162 183.966 299.334 183.966C299.463 183.966 299.569 183.959 299.652 183.946C299.735 183.929 299.801 183.916 299.851 183.906L300.09 184.96C300.01 184.99 299.899 185.02 299.757 185.05C299.614 185.083 299.434 185.099 299.215 185.099C298.883 185.099 298.559 185.028 298.24 184.886C297.925 184.743 297.664 184.526 297.455 184.234C297.249 183.943 297.147 183.575 297.147 183.131V175.534ZM301.715 185V177.364H302.889V185H301.715ZM302.312 176.091C302.083 176.091 301.886 176.013 301.72 175.857C301.558 175.701 301.477 175.514 301.477 175.295C301.477 175.077 301.558 174.889 301.72 174.734C301.886 174.578 302.083 174.5 302.312 174.5C302.541 174.5 302.736 174.578 302.899 174.734C303.064 174.889 303.147 175.077 303.147 175.295C303.147 175.514 303.064 175.701 302.899 175.857C302.736 176.013 302.541 176.091 302.312 176.091ZM308.14 185.159C307.451 185.159 306.846 184.995 306.325 184.667C305.808 184.339 305.404 183.88 305.112 183.29C304.824 182.7 304.68 182.01 304.68 181.222C304.68 180.426 304.824 179.732 305.112 179.138C305.404 178.545 305.808 178.085 306.325 177.756C306.846 177.428 307.451 177.264 308.14 177.264C308.829 177.264 309.433 177.428 309.95 177.756C310.47 178.085 310.874 178.545 311.163 179.138C311.454 179.732 311.6 180.426 311.6 181.222C311.6 182.01 311.454 182.7 311.163 183.29C310.874 183.88 310.47 184.339 309.95 184.667C309.433 184.995 308.829 185.159 308.14 185.159ZM308.14 184.105C308.664 184.105 309.095 183.971 309.433 183.702C309.771 183.434 310.021 183.081 310.183 182.643C310.346 182.206 310.427 181.732 310.427 181.222C310.427 180.711 310.346 180.236 310.183 179.795C310.021 179.354 309.771 178.998 309.433 178.726C309.095 178.454 308.664 178.318 308.14 178.318C307.616 178.318 307.185 178.454 306.847 178.726C306.509 178.998 306.259 179.354 306.097 179.795C305.934 180.236 305.853 180.711 305.853 181.222C305.853 181.732 305.934 182.206 306.097 182.643C306.259 183.081 306.509 183.434 306.847 183.702C307.185 183.971 307.616 184.105 308.14 184.105ZM314.565 180.406V185H313.391V177.364H314.525V178.557H314.624C314.803 178.169 315.075 177.857 315.44 177.622C315.804 177.384 316.275 177.264 316.851 177.264C317.369 177.264 317.821 177.37 318.209 177.582C318.597 177.791 318.898 178.109 319.114 178.537C319.329 178.961 319.437 179.498 319.437 180.148V185H318.263V180.227C318.263 179.627 318.108 179.16 317.796 178.825C317.485 178.487 317.057 178.318 316.513 178.318C316.139 178.318 315.804 178.399 315.509 178.562C315.217 178.724 314.987 178.961 314.818 179.273C314.649 179.584 314.565 179.962 314.565 180.406ZM330.927 179.074L329.873 179.372C329.807 179.196 329.709 179.026 329.58 178.86C329.454 178.691 329.282 178.552 329.063 178.442C328.844 178.333 328.564 178.278 328.223 178.278C327.755 178.278 327.366 178.386 327.054 178.602C326.746 178.814 326.592 179.084 326.592 179.412C326.592 179.704 326.698 179.934 326.91 180.103C327.122 180.272 327.454 180.413 327.905 180.526L329.038 180.804C329.721 180.97 330.23 181.223 330.564 181.565C330.899 181.903 331.066 182.339 331.066 182.872C331.066 183.31 330.941 183.701 330.689 184.045C330.44 184.39 330.092 184.662 329.645 184.861C329.197 185.06 328.677 185.159 328.084 185.159C327.305 185.159 326.66 184.99 326.15 184.652C325.639 184.314 325.316 183.82 325.18 183.17L326.294 182.892C326.4 183.303 326.6 183.611 326.895 183.817C327.194 184.022 327.583 184.125 328.064 184.125C328.611 184.125 329.045 184.009 329.366 183.777C329.691 183.542 329.853 183.26 329.853 182.932C329.853 182.667 329.761 182.445 329.575 182.266C329.389 182.083 329.104 181.947 328.72 181.858L327.447 181.56C326.748 181.394 326.234 181.137 325.906 180.789C325.581 180.438 325.419 179.999 325.419 179.472C325.419 179.041 325.54 178.66 325.782 178.328C326.027 177.997 326.36 177.737 326.781 177.548C327.205 177.359 327.686 177.264 328.223 177.264C328.978 177.264 329.572 177.43 330.003 177.761C330.437 178.093 330.745 178.53 330.927 179.074ZM335.935 185.159C335.246 185.159 334.641 184.995 334.12 184.667C333.603 184.339 333.199 183.88 332.907 183.29C332.619 182.7 332.475 182.01 332.475 181.222C332.475 180.426 332.619 179.732 332.907 179.138C333.199 178.545 333.603 178.085 334.12 177.756C334.641 177.428 335.246 177.264 335.935 177.264C336.624 177.264 337.228 177.428 337.745 177.756C338.265 178.085 338.669 178.545 338.958 179.138C339.249 179.732 339.395 180.426 339.395 181.222C339.395 182.01 339.249 182.7 338.958 183.29C338.669 183.88 338.265 184.339 337.745 184.667C337.228 184.995 336.624 185.159 335.935 185.159ZM335.935 184.105C336.459 184.105 336.889 183.971 337.228 183.702C337.566 183.434 337.816 183.081 337.978 182.643C338.141 182.206 338.222 181.732 338.222 181.222C338.222 180.711 338.141 180.236 337.978 179.795C337.816 179.354 337.566 178.998 337.228 178.726C336.889 178.454 336.459 178.318 335.935 178.318C335.411 178.318 334.98 178.454 334.642 178.726C334.304 178.998 334.054 179.354 333.892 179.795C333.729 180.236 333.648 180.711 333.648 181.222C333.648 181.732 333.729 182.206 333.892 182.643C334.054 183.081 334.304 183.434 334.642 183.702C334.98 183.971 335.411 184.105 335.935 184.105ZM345.999 181.878V177.364H347.172V185H345.999V183.707H345.919C345.74 184.095 345.462 184.425 345.084 184.697C344.706 184.965 344.229 185.099 343.652 185.099C343.175 185.099 342.751 184.995 342.379 184.786C342.008 184.574 341.716 184.256 341.504 183.832C341.292 183.404 341.186 182.866 341.186 182.216V177.364H342.359V182.136C342.359 182.693 342.515 183.137 342.827 183.469C343.142 183.8 343.543 183.966 344.03 183.966C344.322 183.966 344.618 183.891 344.92 183.742C345.225 183.593 345.48 183.364 345.685 183.056C345.894 182.748 345.999 182.355 345.999 181.878ZM350.494 180.406V185H349.321V177.364H350.454V178.557H350.554C350.733 178.169 351.005 177.857 351.369 177.622C351.734 177.384 352.204 177.264 352.781 177.264C353.298 177.264 353.751 177.37 354.138 177.582C354.526 177.791 354.828 178.109 355.043 178.537C355.259 178.961 355.366 179.498 355.366 180.148V185H354.193V180.227C354.193 179.627 354.037 179.16 353.726 178.825C353.414 178.487 352.987 178.318 352.443 178.318C352.069 178.318 351.734 178.399 351.439 178.562C351.147 178.724 350.917 178.961 350.748 179.273C350.579 179.584 350.494 179.962 350.494 180.406ZM360.394 185.159C359.758 185.159 359.196 184.998 358.709 184.677C358.221 184.352 357.84 183.895 357.565 183.305C357.29 182.711 357.152 182.01 357.152 181.202C357.152 180.4 357.29 179.704 357.565 179.114C357.84 178.524 358.223 178.068 358.714 177.746C359.204 177.425 359.771 177.264 360.414 177.264C360.911 177.264 361.304 177.347 361.592 177.513C361.884 177.675 362.106 177.861 362.258 178.07C362.414 178.275 362.535 178.444 362.621 178.577H362.721V174.818H363.894V185H362.76V183.827H362.621C362.535 183.966 362.412 184.142 362.253 184.354C362.094 184.562 361.867 184.75 361.572 184.915C361.277 185.078 360.884 185.159 360.394 185.159ZM360.553 184.105C361.024 184.105 361.421 183.982 361.746 183.737C362.071 183.489 362.318 183.146 362.487 182.708C362.656 182.267 362.741 181.759 362.741 181.182C362.741 180.612 362.658 180.113 362.492 179.685C362.326 179.254 362.081 178.92 361.756 178.681C361.431 178.439 361.03 178.318 360.553 178.318C360.056 178.318 359.642 178.446 359.31 178.701C358.982 178.953 358.735 179.296 358.569 179.73C358.407 180.161 358.326 180.645 358.326 181.182C358.326 181.725 358.409 182.219 358.574 182.663C358.743 183.104 358.992 183.455 359.32 183.717C359.651 183.976 360.062 184.105 360.553 184.105ZM371.615 179.074L370.561 179.372C370.495 179.196 370.397 179.026 370.267 178.86C370.142 178.691 369.969 178.552 369.75 178.442C369.532 178.333 369.252 178.278 368.91 178.278C368.443 178.278 368.053 178.386 367.742 178.602C367.434 178.814 367.28 179.084 367.28 179.412C367.28 179.704 367.386 179.934 367.598 180.103C367.81 180.272 368.141 180.413 368.592 180.526L369.726 180.804C370.408 180.97 370.917 181.223 371.252 181.565C371.587 181.903 371.754 182.339 371.754 182.872C371.754 183.31 371.628 183.701 371.376 184.045C371.128 184.39 370.78 184.662 370.332 184.861C369.885 185.06 369.364 185.159 368.771 185.159C367.992 185.159 367.348 184.99 366.837 184.652C366.327 184.314 366.004 183.82 365.868 183.17L366.981 182.892C367.087 183.303 367.288 183.611 367.583 183.817C367.881 184.022 368.271 184.125 368.751 184.125C369.298 184.125 369.732 184.009 370.054 183.777C370.379 183.542 370.541 183.26 370.541 182.932C370.541 182.667 370.448 182.445 370.263 182.266C370.077 182.083 369.792 181.947 369.407 181.858L368.135 181.56C367.435 181.394 366.922 181.137 366.593 180.789C366.269 180.438 366.106 179.999 366.106 179.472C366.106 179.041 366.227 178.66 366.469 178.328C366.714 177.997 367.048 177.737 367.468 177.548C367.893 177.359 368.373 177.264 368.91 177.264C369.666 177.264 370.259 177.43 370.69 177.761C371.124 178.093 371.432 178.53 371.615 179.074ZM375.27 183.608L375.191 184.145C375.134 184.523 375.048 184.927 374.932 185.358C374.819 185.789 374.702 186.195 374.579 186.576C374.456 186.957 374.355 187.26 374.276 187.486H373.381C373.424 187.274 373.48 186.994 373.55 186.646C373.62 186.298 373.689 185.908 373.759 185.477C373.832 185.05 373.891 184.612 373.938 184.165L373.997 183.608H375.27Z" fill="white" fill-opacity="0.7"/>
<path d="M381.204 185.49H382.646C382.711 185.863 382.898 186.153 383.206 186.358C383.523 186.563 383.938 186.666 384.452 186.666C385.17 186.666 385.707 186.479 386.062 186.106C386.36 185.789 386.51 185.345 386.51 184.776V183.838C385.968 184.473 385.161 184.79 384.088 184.79C383.117 184.79 382.328 184.44 381.722 183.74C381.152 183.087 380.868 182.237 380.868 181.192C380.868 179.979 381.213 179.041 381.904 178.378C382.492 177.799 383.248 177.51 384.172 177.51C385.217 177.51 386.006 177.902 386.538 178.686L386.748 177.72H387.854V184.846C387.854 185.761 387.522 186.479 386.86 187.002C386.262 187.487 385.474 187.73 384.494 187.73C383.476 187.73 382.678 187.501 382.1 187.044C381.614 186.661 381.316 186.143 381.204 185.49ZM382.268 181.22C382.268 182.013 382.501 182.634 382.968 183.082C383.35 183.455 383.822 183.642 384.382 183.642C385.119 183.642 385.684 183.399 386.076 182.914C386.412 182.503 386.58 181.953 386.58 181.262C386.58 180.375 386.351 179.699 385.894 179.232C385.511 178.849 385.007 178.658 384.382 178.658C383.691 178.658 383.159 178.896 382.786 179.372C382.44 179.82 382.268 180.436 382.268 181.22ZM389.399 181.36C389.399 180.025 389.796 179.017 390.589 178.336C391.224 177.785 392.026 177.51 392.997 177.51C394.126 177.51 395.013 177.869 395.657 178.588C396.273 179.26 396.581 180.184 396.581 181.36C396.581 182.676 396.194 183.679 395.419 184.37C394.784 184.93 393.972 185.21 392.983 185.21C391.854 185.21 390.962 184.837 390.309 184.09C389.702 183.409 389.399 182.499 389.399 181.36ZM390.799 181.36C390.799 182.293 391.037 183.007 391.513 183.502C391.905 183.913 392.404 184.118 393.011 184.118C393.72 184.118 394.266 183.852 394.649 183.32C395.004 182.835 395.181 182.181 395.181 181.36C395.181 180.408 394.948 179.689 394.481 179.204C394.098 178.803 393.604 178.602 392.997 178.602C392.297 178.602 391.751 178.868 391.359 179.4C390.986 179.885 390.799 180.539 390.799 181.36ZM405.563 183.922V185.07C405.218 185.163 404.886 185.21 404.569 185.21C403.897 185.21 403.393 185 403.057 184.58C402.768 184.235 402.623 183.773 402.623 183.194V178.868H401.545V177.72H402.623L402.707 175.97H403.967V177.72H405.535V178.868H403.967V183.222C403.967 183.763 404.224 184.034 404.737 184.034C404.98 184.034 405.255 183.997 405.563 183.922ZM406.338 181.36C406.338 180.025 406.735 179.017 407.528 178.336C408.163 177.785 408.966 177.51 409.936 177.51C411.066 177.51 411.952 177.869 412.596 178.588C413.212 179.26 413.52 180.184 413.52 181.36C413.52 182.676 413.133 183.679 412.358 184.37C411.724 184.93 410.912 185.21 409.922 185.21C408.793 185.21 407.902 184.837 407.248 184.09C406.642 183.409 406.338 182.499 406.338 181.36ZM407.738 181.36C407.738 182.293 407.976 183.007 408.452 183.502C408.844 183.913 409.344 184.118 409.95 184.118C410.66 184.118 411.206 183.852 411.588 183.32C411.943 182.835 412.12 182.181 412.12 181.36C412.12 180.408 411.887 179.689 411.42 179.204C411.038 178.803 410.543 178.602 409.936 178.602C409.236 178.602 408.69 178.868 408.298 179.4C407.925 179.885 407.738 180.539 407.738 181.36ZM428.158 185H426.576L425.582 182.452H420.78L419.772 185H418.274L422.418 174.92H424.028L428.158 185ZM423.202 176.348L421.242 181.29H425.12L423.202 176.348ZM429.069 177.72H430.413V182.494C430.413 183.539 430.917 184.062 431.925 184.062C432.541 184.062 433.013 183.843 433.339 183.404C433.591 183.068 433.717 182.653 433.717 182.158V177.72H435.061V185H433.955L433.801 184.16C433.288 184.86 432.56 185.21 431.617 185.21C430.787 185.21 430.147 184.953 429.699 184.44C429.279 183.964 429.069 183.306 429.069 182.466V177.72ZM443.594 185H442.488L442.25 183.978C441.69 184.799 440.883 185.21 439.828 185.21C438.811 185.21 438.008 184.841 437.42 184.104C436.879 183.423 436.608 182.522 436.608 181.402C436.608 180.049 436.953 179.031 437.644 178.35C438.223 177.79 438.979 177.51 439.912 177.51C440.92 177.51 441.699 177.888 442.25 178.644V174.92H443.594V185ZM438.008 181.43C438.008 182.335 438.232 183.021 438.68 183.488C439.053 183.871 439.534 184.062 440.122 184.062C440.85 184.062 441.415 183.787 441.816 183.236C442.152 182.76 442.32 182.163 442.32 181.444C442.32 180.501 442.096 179.783 441.648 179.288C441.265 178.868 440.757 178.658 440.122 178.658C439.413 178.658 438.876 178.915 438.512 179.428C438.176 179.895 438.008 180.562 438.008 181.43ZM446.987 176.502H445.475V174.92H446.987V176.502ZM446.903 185H445.559V177.72H446.903V185ZM448.448 181.36C448.448 180.025 448.844 179.017 449.638 178.336C450.272 177.785 451.075 177.51 452.046 177.51C453.175 177.51 454.062 177.869 454.706 178.588C455.322 179.26 455.63 180.184 455.63 181.36C455.63 182.676 455.242 183.679 454.468 184.37C453.833 184.93 453.021 185.21 452.032 185.21C450.902 185.21 450.011 184.837 449.358 184.09C448.751 183.409 448.448 182.499 448.448 181.36ZM449.848 181.36C449.848 182.293 450.086 183.007 450.562 183.502C450.954 183.913 451.453 184.118 452.06 184.118C452.769 184.118 453.315 183.852 453.698 183.32C454.052 182.835 454.23 182.181 454.23 181.36C454.23 180.408 453.996 179.689 453.53 179.204C453.147 178.803 452.652 178.602 452.046 178.602C451.346 178.602 450.8 178.868 450.408 179.4C450.034 179.885 449.848 180.539 449.848 181.36ZM458.893 185H457.269V183.376H458.893V185Z" fill="#64B4FA"/>
<path d="M380.308 186.26H460.181V187.45H380.308V186.26Z" fill="#64B4FA"/>
<rect opacity="0.5" x="36.1621" y="106" width="260" height="8" fill="#30C9B0" fill-opacity="0.5"/>
<g clip-path="url(#clip0_2039_4712)">
<line x1="304.162" y1="106.5" x2="319.162" y2="106.5" stroke="#30C9B0"/>
<line x1="311.662" y1="115" x2="311.662" y2="107" stroke="#30C9B0"/>
<line x1="304.162" y1="113.5" x2="319.162" y2="113.5" stroke="#30C9B0"/>
</g>
<path d="M330.415 107.672C330.415 107.973 330.365 108.253 330.265 108.513C330.169 108.772 330.032 109.005 329.854 109.21C329.745 109.342 329.62 109.465 329.479 109.579C329.337 109.693 329.18 109.793 329.007 109.88C329.212 109.976 329.401 110.087 329.574 110.215C329.752 110.338 329.907 110.481 330.039 110.646C330.226 110.864 330.372 111.113 330.477 111.391C330.581 111.669 330.634 111.969 330.634 112.293C330.634 112.753 330.549 113.161 330.381 113.517C330.212 113.872 329.982 114.168 329.69 114.405C329.394 114.647 329.048 114.829 328.651 114.952C328.259 115.075 327.836 115.137 327.38 115.137C326.915 115.137 326.482 115.075 326.081 114.952C325.685 114.829 325.34 114.647 325.049 114.405C324.753 114.168 324.52 113.874 324.352 113.523C324.188 113.168 324.105 112.758 324.105 112.293C324.105 112.02 324.142 111.76 324.215 111.514C324.292 111.268 324.402 111.04 324.543 110.83C324.684 110.63 324.853 110.45 325.049 110.29C325.249 110.126 325.473 109.987 325.719 109.873C325.509 109.768 325.318 109.641 325.145 109.49C324.976 109.34 324.832 109.174 324.714 108.991C324.591 108.804 324.495 108.599 324.427 108.376C324.358 108.153 324.324 107.918 324.324 107.672C324.324 107.23 324.399 106.838 324.55 106.496C324.705 106.154 324.917 105.865 325.186 105.628C325.45 105.391 325.767 105.213 326.136 105.095C326.509 104.972 326.917 104.91 327.359 104.91C327.797 104.91 328.2 104.972 328.569 105.095C328.943 105.213 329.269 105.391 329.547 105.628C329.816 105.86 330.028 106.15 330.183 106.496C330.338 106.838 330.415 107.23 330.415 107.672ZM329 112.204C329 111.958 328.959 111.735 328.877 111.534C328.799 111.329 328.69 111.151 328.549 111.001C328.403 110.86 328.23 110.75 328.029 110.673C327.829 110.595 327.608 110.557 327.366 110.557C327.116 110.557 326.89 110.595 326.689 110.673C326.493 110.75 326.325 110.86 326.184 111.001C326.042 111.151 325.933 111.329 325.855 111.534C325.783 111.735 325.746 111.96 325.746 112.211C325.746 112.466 325.785 112.696 325.862 112.901C325.94 113.102 326.051 113.271 326.197 113.407C326.339 113.539 326.507 113.642 326.703 113.715C326.904 113.783 327.129 113.817 327.38 113.817C327.617 113.817 327.833 113.781 328.029 113.708C328.23 113.635 328.403 113.53 328.549 113.394C328.686 113.252 328.795 113.084 328.877 112.888C328.959 112.687 329 112.459 329 112.204ZM328.788 107.733C328.788 107.51 328.752 107.307 328.679 107.125C328.61 106.943 328.515 106.783 328.392 106.646C328.264 106.519 328.114 106.419 327.94 106.346C327.767 106.273 327.571 106.236 327.353 106.236C327.138 106.236 326.945 106.273 326.771 106.346C326.603 106.414 326.457 106.512 326.334 106.64C326.215 106.767 326.124 106.924 326.061 107.111C325.997 107.298 325.965 107.506 325.965 107.733C325.965 107.957 325.997 108.162 326.061 108.349C326.124 108.531 326.22 108.686 326.348 108.813C326.471 108.946 326.619 109.048 326.792 109.121C326.965 109.194 327.159 109.23 327.373 109.23C327.587 109.23 327.781 109.194 327.954 109.121C328.127 109.048 328.275 108.946 328.398 108.813C328.521 108.686 328.617 108.531 328.686 108.349C328.754 108.162 328.788 107.957 328.788 107.733Z" fill="#30C9B0"/>
<rect x="36.6621" y="118.5" width="15" height="15" rx="1.5" stroke="white" stroke-opacity="0.4"/>
<path d="M61.3951 118.818H62.8667L66.3269 127.27H66.4462L69.9064 118.818H71.378V129H70.2246V121.264H70.1252L66.9434 129H65.8297L62.6479 121.264H62.5485V129H61.3951V118.818ZM78.5036 125.878V121.364H79.6768V129H78.5036V127.707H78.424C78.245 128.095 77.9666 128.425 77.5888 128.697C77.2109 128.965 76.7337 129.099 76.157 129.099C75.6797 129.099 75.2554 128.995 74.8842 128.786C74.513 128.574 74.2214 128.256 74.0092 127.832C73.7971 127.404 73.6911 126.866 73.6911 126.216V121.364H74.8643V126.136C74.8643 126.693 75.0201 127.137 75.3317 127.469C75.6465 127.8 76.0476 127.966 76.5348 127.966C76.8265 127.966 77.1231 127.891 77.4247 127.742C77.7296 127.593 77.9848 127.364 78.1903 127.056C78.3991 126.748 78.5036 126.355 78.5036 125.878ZM85.1468 121.364V122.358H81.1895V121.364H85.1468ZM82.3429 119.534H83.5162V126.812C83.5162 127.144 83.5642 127.393 83.6603 127.558C83.7598 127.721 83.8857 127.83 84.0382 127.886C84.194 127.939 84.358 127.966 84.5304 127.966C84.6596 127.966 84.7657 127.959 84.8485 127.946C84.9314 127.929 84.9977 127.916 85.0474 127.906L85.286 128.96C85.2065 128.99 85.0955 129.02 84.9529 129.05C84.8104 129.083 84.6298 129.099 84.411 129.099C84.0796 129.099 83.7548 129.028 83.4366 128.886C83.1217 128.743 82.8599 128.526 82.6511 128.234C82.4456 127.943 82.3429 127.575 82.3429 127.131V119.534ZM90.0314 129.159C89.2956 129.159 88.6609 128.997 88.1273 128.672C87.597 128.344 87.1877 127.886 86.8993 127.3C86.6143 126.71 86.4718 126.024 86.4718 125.241C86.4718 124.459 86.6143 123.77 86.8993 123.173C87.1877 122.573 87.5887 122.106 88.1025 121.771C88.6195 121.433 89.2227 121.264 89.9121 121.264C90.3098 121.264 90.7026 121.33 91.0904 121.463C91.4782 121.596 91.8311 121.811 92.1493 122.109C92.4675 122.404 92.7211 122.795 92.91 123.283C93.0989 123.77 93.1934 124.37 93.1934 125.082V125.58H87.307V124.565H92.0002C92.0002 124.134 91.914 123.75 91.7417 123.412C91.5726 123.074 91.3307 122.807 91.0158 122.612C90.7042 122.416 90.3364 122.318 89.9121 122.318C89.4448 122.318 89.0404 122.434 88.699 122.666C88.361 122.895 88.1008 123.193 87.9185 123.561C87.7362 123.929 87.6451 124.323 87.6451 124.744V125.42C87.6451 125.997 87.7445 126.486 87.9434 126.887C88.1455 127.285 88.4256 127.588 88.7836 127.797C89.1415 128.002 89.5575 128.105 90.0314 128.105C90.3397 128.105 90.6181 128.062 90.8667 127.976C91.1185 127.886 91.3356 127.754 91.5179 127.578C91.7002 127.399 91.8411 127.177 91.9405 126.912L93.074 127.23C92.9547 127.615 92.7542 127.953 92.4725 128.244C92.1908 128.533 91.8427 128.758 91.4284 128.92C91.0141 129.08 90.5485 129.159 90.0314 129.159ZM100.646 129L98.3191 121.364H99.552L101.203 127.21H101.282L102.913 121.364H104.166L105.776 127.19H105.856L107.507 121.364H108.74L106.413 129H105.259L103.589 123.134H103.47L101.799 129H100.646ZM111.464 124.406V129H110.291V118.818H111.464V122.557H111.563C111.742 122.162 112.011 121.849 112.369 121.617C112.73 121.382 113.211 121.264 113.811 121.264C114.331 121.264 114.787 121.369 115.178 121.577C115.569 121.783 115.872 122.099 116.088 122.527C116.306 122.951 116.416 123.491 116.416 124.148V129H115.242V124.227C115.242 123.621 115.085 123.152 114.77 122.82C114.459 122.486 114.026 122.318 113.472 122.318C113.088 122.318 112.743 122.399 112.438 122.562C112.137 122.724 111.898 122.961 111.722 123.273C111.55 123.584 111.464 123.962 111.464 124.406ZM121.764 129.159C121.028 129.159 120.393 128.997 119.86 128.672C119.329 128.344 118.92 127.886 118.632 127.3C118.347 126.71 118.204 126.024 118.204 125.241C118.204 124.459 118.347 123.77 118.632 123.173C118.92 122.573 119.321 122.106 119.835 121.771C120.352 121.433 120.955 121.264 121.645 121.264C122.042 121.264 122.435 121.33 122.823 121.463C123.211 121.596 123.564 121.811 123.882 122.109C124.2 122.404 124.453 122.795 124.642 123.283C124.831 123.77 124.926 124.37 124.926 125.082V125.58H119.039V124.565H123.733C123.733 124.134 123.646 123.75 123.474 123.412C123.305 123.074 123.063 122.807 122.748 122.612C122.437 122.416 122.069 122.318 121.645 122.318C121.177 122.318 120.773 122.434 120.431 122.666C120.093 122.895 119.833 123.193 119.651 123.561C119.469 123.929 119.377 124.323 119.377 124.744V125.42C119.377 125.997 119.477 126.486 119.676 126.887C119.878 127.285 120.158 127.588 120.516 127.797C120.874 128.002 121.29 128.105 121.764 128.105C122.072 128.105 122.35 128.062 122.599 127.976C122.851 127.886 123.068 127.754 123.25 127.578C123.433 127.399 123.574 127.177 123.673 126.912L124.806 127.23C124.687 127.615 124.487 127.953 124.205 128.244C123.923 128.533 123.575 128.758 123.161 128.92C122.747 129.08 122.281 129.159 121.764 129.159ZM127.884 124.406V129H126.711V121.364H127.844V122.557H127.944C128.123 122.169 128.394 121.857 128.759 121.622C129.123 121.384 129.594 121.264 130.171 121.264C130.688 121.264 131.14 121.37 131.528 121.582C131.916 121.791 132.217 122.109 132.433 122.537C132.648 122.961 132.756 123.498 132.756 124.148V129H131.583V124.227C131.583 123.627 131.427 123.16 131.115 122.825C130.804 122.487 130.376 122.318 129.833 122.318C129.458 122.318 129.123 122.399 128.828 122.562C128.537 122.724 128.306 122.961 128.137 123.273C127.968 123.584 127.884 123.962 127.884 124.406ZM140.846 129L138.062 118.818H139.315L141.443 127.111H141.542L143.71 118.818H145.102L147.269 127.111H147.369L149.497 118.818H150.749L147.965 129H146.693L144.445 120.886H144.366L142.119 129H140.846ZM154.617 129.159C153.882 129.159 153.247 128.997 152.713 128.672C152.183 128.344 151.774 127.886 151.485 127.3C151.2 126.71 151.058 126.024 151.058 125.241C151.058 124.459 151.2 123.77 151.485 123.173C151.774 122.573 152.175 122.106 152.688 121.771C153.205 121.433 153.809 121.264 154.498 121.264C154.896 121.264 155.289 121.33 155.676 121.463C156.064 121.596 156.417 121.811 156.735 122.109C157.053 122.404 157.307 122.795 157.496 123.283C157.685 123.77 157.779 124.37 157.779 125.082V125.58H151.893V124.565H156.586C156.586 124.134 156.5 123.75 156.328 123.412C156.159 123.074 155.917 122.807 155.602 122.612C155.29 122.416 154.922 122.318 154.498 122.318C154.031 122.318 153.626 122.434 153.285 122.666C152.947 122.895 152.687 123.193 152.504 123.561C152.322 123.929 152.231 124.323 152.231 124.744V125.42C152.231 125.997 152.33 126.486 152.529 126.887C152.731 127.285 153.012 127.588 153.369 127.797C153.727 128.002 154.143 128.105 154.617 128.105C154.926 128.105 155.204 128.062 155.453 127.976C155.704 127.886 155.922 127.754 156.104 127.578C156.286 127.399 156.427 127.177 156.526 126.912L157.66 127.23C157.541 127.615 157.34 127.953 157.058 128.244C156.777 128.533 156.429 128.758 156.014 128.92C155.6 129.08 155.134 129.159 154.617 129.159ZM159.723 129V118.818H160.896V122.577H160.996C161.082 122.444 161.201 122.275 161.354 122.07C161.51 121.861 161.732 121.675 162.02 121.513C162.312 121.347 162.706 121.264 163.203 121.264C163.846 121.264 164.413 121.425 164.904 121.746C165.394 122.068 165.777 122.524 166.052 123.114C166.327 123.704 166.465 124.4 166.465 125.202C166.465 126.01 166.327 126.711 166.052 127.305C165.777 127.895 165.396 128.352 164.909 128.677C164.421 128.998 163.86 129.159 163.223 129.159C162.733 129.159 162.34 129.078 162.045 128.915C161.75 128.75 161.523 128.562 161.364 128.354C161.205 128.142 161.082 127.966 160.996 127.827H160.857V129H159.723ZM160.877 125.182C160.877 125.759 160.961 126.267 161.13 126.708C161.299 127.146 161.546 127.489 161.871 127.737C162.196 127.982 162.593 128.105 163.064 128.105C163.555 128.105 163.964 127.976 164.292 127.717C164.624 127.455 164.872 127.104 165.038 126.663C165.207 126.219 165.291 125.725 165.291 125.182C165.291 124.645 165.209 124.161 165.043 123.73C164.88 123.296 164.633 122.953 164.302 122.701C163.974 122.446 163.561 122.318 163.064 122.318C162.587 122.318 162.186 122.439 161.861 122.681C161.536 122.92 161.291 123.254 161.125 123.685C160.959 124.113 160.877 124.612 160.877 125.182ZM171.461 129.159C170.725 129.159 170.091 128.997 169.557 128.672C169.027 128.344 168.617 127.886 168.329 127.3C168.044 126.71 167.901 126.024 167.901 125.241C167.901 124.459 168.044 123.77 168.329 123.173C168.617 122.573 169.018 122.106 169.532 121.771C170.049 121.433 170.652 121.264 171.342 121.264C171.74 121.264 172.132 121.33 172.52 121.463C172.908 121.596 173.261 121.811 173.579 122.109C173.897 122.404 174.151 122.795 174.34 123.283C174.529 123.77 174.623 124.37 174.623 125.082V125.58H168.737V124.565H173.43C173.43 124.134 173.344 123.75 173.171 123.412C173.002 123.074 172.76 122.807 172.445 122.612C172.134 122.416 171.766 122.318 171.342 122.318C170.874 122.318 170.47 122.434 170.129 122.666C169.791 122.895 169.53 123.193 169.348 123.561C169.166 123.929 169.075 124.323 169.075 124.744V125.42C169.075 125.997 169.174 126.486 169.373 126.887C169.575 127.285 169.855 127.588 170.213 127.797C170.571 128.002 170.987 128.105 171.461 128.105C171.769 128.105 172.048 128.062 172.296 127.976C172.548 127.886 172.765 127.754 172.948 127.578C173.13 127.399 173.271 127.177 173.37 126.912L174.504 127.23C174.384 127.615 174.184 127.953 173.902 128.244C173.62 128.533 173.272 128.758 172.858 128.92C172.444 129.08 171.978 129.159 171.461 129.159ZM177.078 121.364L178.907 124.486L180.737 121.364H182.089L179.623 125.182L182.089 129H180.737L178.907 126.037L177.078 129H175.725L178.152 125.182L175.725 121.364H177.078ZM187.701 129V121.364H188.874V129H187.701ZM188.297 120.091C188.069 120.091 187.872 120.013 187.706 119.857C187.543 119.701 187.462 119.514 187.462 119.295C187.462 119.077 187.543 118.889 187.706 118.734C187.872 118.578 188.069 118.5 188.297 118.5C188.526 118.5 188.722 118.578 188.884 118.734C189.05 118.889 189.133 119.077 189.133 119.295C189.133 119.514 189.05 119.701 188.884 119.857C188.722 120.013 188.526 120.091 188.297 120.091ZM196.432 123.074L195.378 123.372C195.312 123.196 195.214 123.026 195.085 122.86C194.959 122.691 194.787 122.552 194.568 122.442C194.349 122.333 194.069 122.278 193.728 122.278C193.26 122.278 192.871 122.386 192.559 122.602C192.251 122.814 192.097 123.084 192.097 123.412C192.097 123.704 192.203 123.934 192.415 124.103C192.627 124.272 192.959 124.413 193.409 124.526L194.543 124.804C195.226 124.97 195.734 125.223 196.069 125.565C196.404 125.903 196.571 126.339 196.571 126.872C196.571 127.31 196.445 127.701 196.194 128.045C195.945 128.39 195.597 128.662 195.15 128.861C194.702 129.06 194.182 129.159 193.588 129.159C192.81 129.159 192.165 128.99 191.654 128.652C191.144 128.314 190.821 127.82 190.685 127.17L191.799 126.892C191.905 127.303 192.105 127.611 192.4 127.817C192.699 128.022 193.088 128.125 193.569 128.125C194.115 128.125 194.55 128.009 194.871 127.777C195.196 127.542 195.358 127.26 195.358 126.932C195.358 126.667 195.266 126.445 195.08 126.266C194.894 126.083 194.609 125.947 194.225 125.858L192.952 125.56C192.253 125.394 191.739 125.137 191.411 124.789C191.086 124.438 190.924 123.999 190.924 123.472C190.924 123.041 191.045 122.66 191.287 122.328C191.532 121.997 191.865 121.737 192.286 121.548C192.71 121.359 193.191 121.264 193.728 121.264C194.483 121.264 195.077 121.43 195.507 121.761C195.942 122.093 196.25 122.53 196.432 123.074ZM205.377 129.159C204.661 129.159 204.045 128.99 203.528 128.652C203.011 128.314 202.613 127.848 202.335 127.255C202.056 126.662 201.917 125.984 201.917 125.222C201.917 124.446 202.06 123.762 202.345 123.168C202.633 122.572 203.034 122.106 203.548 121.771C204.065 121.433 204.668 121.264 205.357 121.264C205.894 121.264 206.378 121.364 206.809 121.562C207.24 121.761 207.593 122.04 207.868 122.398C208.143 122.756 208.314 123.173 208.38 123.651H207.207C207.117 123.303 206.919 122.994 206.61 122.726C206.305 122.454 205.894 122.318 205.377 122.318C204.92 122.318 204.519 122.437 204.174 122.676C203.833 122.911 203.566 123.245 203.374 123.675C203.185 124.103 203.09 124.605 203.09 125.182C203.09 125.772 203.183 126.286 203.369 126.723C203.558 127.161 203.823 127.5 204.164 127.742C204.509 127.984 204.913 128.105 205.377 128.105C205.682 128.105 205.959 128.052 206.208 127.946C206.456 127.84 206.667 127.688 206.839 127.489C207.011 127.29 207.134 127.051 207.207 126.773H208.38C208.314 127.223 208.15 127.629 207.888 127.991C207.629 128.349 207.286 128.634 206.859 128.846C206.435 129.055 205.941 129.159 205.377 129.159ZM211.269 118.818V129H210.095V118.818H211.269ZM216.52 129.159C215.83 129.159 215.226 128.995 214.705 128.667C214.188 128.339 213.784 127.88 213.492 127.29C213.204 126.7 213.06 126.01 213.06 125.222C213.06 124.426 213.204 123.732 213.492 123.138C213.784 122.545 214.188 122.085 214.705 121.756C215.226 121.428 215.83 121.264 216.52 121.264C217.209 121.264 217.813 121.428 218.33 121.756C218.85 122.085 219.254 122.545 219.543 123.138C219.834 123.732 219.98 124.426 219.98 125.222C219.98 126.01 219.834 126.7 219.543 127.29C219.254 127.88 218.85 128.339 218.33 128.667C217.813 128.995 217.209 129.159 216.52 129.159ZM216.52 128.105C217.044 128.105 217.474 127.971 217.812 127.702C218.151 127.434 218.401 127.081 218.563 126.643C218.726 126.206 218.807 125.732 218.807 125.222C218.807 124.711 218.726 124.236 218.563 123.795C218.401 123.354 218.151 122.998 217.812 122.726C217.474 122.454 217.044 122.318 216.52 122.318C215.996 122.318 215.565 122.454 215.227 122.726C214.889 122.998 214.639 123.354 214.477 123.795C214.314 124.236 214.233 124.711 214.233 125.222C214.233 125.732 214.314 126.206 214.477 126.643C214.639 127.081 214.889 127.434 215.227 127.702C215.565 127.971 215.996 128.105 216.52 128.105ZM227.18 123.074L226.126 123.372C226.06 123.196 225.962 123.026 225.833 122.86C225.707 122.691 225.535 122.552 225.316 122.442C225.097 122.333 224.817 122.278 224.476 122.278C224.008 122.278 223.619 122.386 223.307 122.602C222.999 122.814 222.845 123.084 222.845 123.412C222.845 123.704 222.951 123.934 223.163 124.103C223.375 124.272 223.707 124.413 224.157 124.526L225.291 124.804C225.974 124.97 226.483 125.223 226.817 125.565C227.152 125.903 227.319 126.339 227.319 126.872C227.319 127.31 227.193 127.701 226.942 128.045C226.693 128.39 226.345 128.662 225.898 128.861C225.45 129.06 224.93 129.159 224.336 129.159C223.558 129.159 222.913 128.99 222.403 128.652C221.892 128.314 221.569 127.82 221.433 127.17L222.547 126.892C222.653 127.303 222.853 127.611 223.148 127.817C223.447 128.022 223.836 128.125 224.317 128.125C224.863 128.125 225.298 128.009 225.619 127.777C225.944 127.542 226.106 127.26 226.106 126.932C226.106 126.667 226.014 126.445 225.828 126.266C225.642 126.083 225.357 125.947 224.973 125.858L223.7 125.56C223.001 125.394 222.487 125.137 222.159 124.789C221.834 124.438 221.672 123.999 221.672 123.472C221.672 123.041 221.793 122.66 222.035 122.328C222.28 121.997 222.613 121.737 223.034 121.548C223.458 121.359 223.939 121.264 224.476 121.264C225.231 121.264 225.825 121.43 226.256 121.761C226.69 122.093 226.998 122.53 227.18 123.074ZM232.287 129.159C231.551 129.159 230.917 128.997 230.383 128.672C229.853 128.344 229.444 127.886 229.155 127.3C228.87 126.71 228.728 126.024 228.728 125.241C228.728 124.459 228.87 123.77 229.155 123.173C229.444 122.573 229.845 122.106 230.358 121.771C230.875 121.433 231.479 121.264 232.168 121.264C232.566 121.264 232.958 121.33 233.346 121.463C233.734 121.596 234.087 121.811 234.405 122.109C234.723 122.404 234.977 122.795 235.166 123.283C235.355 123.77 235.449 124.37 235.449 125.082V125.58H229.563V124.565H234.256C234.256 124.134 234.17 123.75 233.998 123.412C233.828 123.074 233.587 122.807 233.272 122.612C232.96 122.416 232.592 122.318 232.168 122.318C231.701 122.318 231.296 122.434 230.955 122.666C230.617 122.895 230.357 123.193 230.174 123.561C229.992 123.929 229.901 124.323 229.901 124.744V125.42C229.901 125.997 230 126.486 230.199 126.887C230.401 127.285 230.681 127.588 231.039 127.797C231.397 128.002 231.813 128.105 232.287 128.105C232.596 128.105 232.874 128.062 233.123 127.976C233.374 127.886 233.592 127.754 233.774 127.578C233.956 127.399 234.097 127.177 234.196 126.912L235.33 127.23C235.211 127.615 235.01 127.953 234.728 128.244C234.447 128.533 234.099 128.758 233.684 128.92C233.27 129.08 232.804 129.159 232.287 129.159ZM240.118 129.159C239.481 129.159 238.919 128.998 238.432 128.677C237.945 128.352 237.564 127.895 237.289 127.305C237.014 126.711 236.876 126.01 236.876 125.202C236.876 124.4 237.014 123.704 237.289 123.114C237.564 122.524 237.947 122.068 238.437 121.746C238.928 121.425 239.494 121.264 240.137 121.264C240.635 121.264 241.027 121.347 241.316 121.513C241.607 121.675 241.829 121.861 241.982 122.07C242.138 122.275 242.259 122.444 242.345 122.577H242.444V118.818H243.618V129H242.484V127.827H242.345C242.259 127.966 242.136 128.142 241.977 128.354C241.818 128.562 241.591 128.75 241.296 128.915C241.001 129.078 240.608 129.159 240.118 129.159ZM240.277 128.105C240.747 128.105 241.145 127.982 241.47 127.737C241.795 127.489 242.042 127.146 242.211 126.708C242.38 126.267 242.464 125.759 242.464 125.182C242.464 124.612 242.381 124.113 242.216 123.685C242.05 123.254 241.805 122.92 241.48 122.681C241.155 122.439 240.754 122.318 240.277 122.318C239.779 122.318 239.365 122.446 239.034 122.701C238.706 122.953 238.459 123.296 238.293 123.73C238.131 124.161 238.049 124.645 238.049 125.182C238.049 125.725 238.132 126.219 238.298 126.663C238.467 127.104 238.716 127.455 239.044 127.717C239.375 127.976 239.786 128.105 240.277 128.105Z" fill="white" fill-opacity="0.95"/>
</g>
<defs>
<clipPath id="clip0_2039_4712">
<rect width="15" height="8" fill="white" transform="translate(304.162 106)"/>
</clipPath>
</defs>
</svg>
