<svg width="362" height="228" viewBox="0 0 362 228" fill="none" xmlns="http://www.w3.org/2000/svg">
<rect width="362" height="228" rx="10" fill="#262626"/>
<g clip-path="url(#clip0_2048_21834)">
<mask id="path-2-inside-1_2048_21834" fill="white">
<path d="M61 106C61 101.582 64.5817 98 69 98H293C297.418 98 301 101.582 301 106V122C301 126.418 297.418 130 293 130H69C64.5817 130 61 126.418 61 122V106Z"/>
</mask>
<path d="M80 112.359C80.302 112.359 80.5469 112.114 80.5469 111.812C80.5469 111.51 80.302 111.265 80 111.265C79.698 111.265 79.4531 111.51 79.4531 111.812C79.4531 112.114 79.698 112.359 80 112.359Z" fill="white" fill-opacity="0.95"/>
<path d="M80 114.984C80.302 114.984 80.5469 114.739 80.5469 114.437C80.5469 114.135 80.302 113.89 80 113.89C79.698 113.89 79.4531 114.135 79.4531 114.437C79.4531 114.739 79.698 114.984 80 114.984Z" fill="white" fill-opacity="0.95"/>
<path d="M80 117.609C80.302 117.609 80.5469 117.364 80.5469 117.062C80.5469 116.76 80.302 116.515 80 116.515C79.698 116.515 79.4531 116.76 79.4531 117.062C79.4531 117.364 79.698 117.609 80 117.609Z" fill="white" fill-opacity="0.95"/>
<path d="M77.375 112.359C77.677 112.359 77.9219 112.114 77.9219 111.812C77.9219 111.51 77.677 111.265 77.375 111.265C77.073 111.265 76.8281 111.51 76.8281 111.812C76.8281 112.114 77.073 112.359 77.375 112.359Z" fill="white" fill-opacity="0.95"/>
<path d="M83.0625 109.187V108.312C83.0625 108.196 83.0164 108.085 82.9344 108.003C82.8523 107.921 82.741 107.875 82.625 107.875C82.509 107.875 82.3977 107.921 82.3156 108.003C82.2336 108.085 82.1875 108.196 82.1875 108.312V109.187H77.8125V108.312C77.8125 108.196 77.7664 108.085 77.6844 108.003C77.6023 107.921 77.491 107.875 77.375 107.875C77.259 107.875 77.1477 107.921 77.0656 108.003C76.9836 108.085 76.9375 108.196 76.9375 108.312V109.187C76.3575 109.188 75.8015 109.418 75.3915 109.829C74.9814 110.239 74.7507 110.795 74.75 111.375V117.5C74.7507 118.08 74.9814 118.636 75.3915 119.046C75.8015 119.456 76.3575 119.686 76.9375 119.687H83.0625C83.6425 119.686 84.1985 119.456 84.6085 119.046C85.0186 118.636 85.2493 118.08 85.25 117.5V111.375C85.2493 110.795 85.0186 110.239 84.6085 109.829C84.1985 109.418 83.6425 109.188 83.0625 109.187ZM84.375 117.5C84.3746 117.848 84.2362 118.181 83.9902 118.427C83.7441 118.673 83.4105 118.812 83.0625 118.812H76.9375C76.5895 118.812 76.2559 118.673 76.0098 118.427C75.7638 118.181 75.6254 117.848 75.625 117.5V111.375C75.6254 111.027 75.7638 110.693 76.0098 110.447C76.2559 110.201 76.5895 110.062 76.9375 110.062H83.0625C83.4105 110.062 83.7441 110.201 83.9902 110.447C84.2362 110.693 84.3746 111.027 84.375 111.375V117.5Z" fill="white" fill-opacity="0.95"/>
<path d="M77.375 114.984C77.677 114.984 77.9219 114.739 77.9219 114.437C77.9219 114.135 77.677 113.89 77.375 113.89C77.073 113.89 76.8281 114.135 76.8281 114.437C76.8281 114.739 77.073 114.984 77.375 114.984Z" fill="white" fill-opacity="0.95"/>
<path d="M77.375 117.609C77.677 117.609 77.9219 117.364 77.9219 117.062C77.9219 116.76 77.677 116.515 77.375 116.515C77.073 116.515 76.8281 116.76 76.8281 117.062C76.8281 117.364 77.073 117.609 77.375 117.609Z" fill="white" fill-opacity="0.95"/>
<path d="M82.625 112.359C82.927 112.359 83.1719 112.114 83.1719 111.812C83.1719 111.51 82.927 111.265 82.625 111.265C82.323 111.265 82.0781 111.51 82.0781 111.812C82.0781 112.114 82.323 112.359 82.625 112.359Z" fill="white" fill-opacity="0.95"/>
<path d="M82.625 114.984C82.927 114.984 83.1719 114.739 83.1719 114.437C83.1719 114.135 82.927 113.89 82.625 113.89C82.323 113.89 82.0781 114.135 82.0781 114.437C82.0781 114.739 82.323 114.984 82.625 114.984Z" fill="white" fill-opacity="0.95"/>
<path d="M82.625 117.609C82.927 117.609 83.1719 117.364 83.1719 117.062C83.1719 116.76 82.927 116.515 82.625 116.515C82.323 116.515 82.0781 116.76 82.0781 117.062C82.0781 117.364 82.323 117.609 82.625 117.609Z" fill="white" fill-opacity="0.95"/>
<path d="M96.4091 108.364H98.0909L102.045 118.023H102.182L106.136 108.364H107.818V120H106.5V111.159H106.386L102.75 120H101.477L97.8409 111.159H97.7273V120H96.4091V108.364ZM110.643 108.364H112.325L116.28 118.023H116.416L120.371 108.364H122.053V120H120.734V111.159H120.621L116.984 120H115.712L112.075 111.159H111.962V120H110.643V108.364ZM128.81 107.818L125.06 121.75H123.832L127.582 107.818H128.81ZM134.172 120H130.581V108.364H134.331C135.46 108.364 136.426 108.597 137.229 109.062C138.032 109.525 138.647 110.189 139.075 111.057C139.503 111.92 139.717 112.955 139.717 114.159C139.717 115.371 139.501 116.415 139.07 117.29C138.638 118.161 138.009 118.831 137.183 119.301C136.357 119.767 135.354 120 134.172 120ZM131.99 118.75H134.081C135.043 118.75 135.84 118.564 136.473 118.193C137.106 117.822 137.577 117.294 137.888 116.608C138.198 115.922 138.354 115.106 138.354 114.159C138.354 113.22 138.2 112.411 137.893 111.733C137.587 111.051 137.128 110.528 136.518 110.165C135.909 109.797 135.149 109.614 134.24 109.614H131.99V118.75ZM145.672 120H142.081V108.364H145.831C146.96 108.364 147.926 108.597 148.729 109.062C149.532 109.525 150.147 110.189 150.575 111.057C151.003 111.92 151.217 112.955 151.217 114.159C151.217 115.371 151.001 116.415 150.57 117.29C150.138 118.161 149.509 118.831 148.683 119.301C147.857 119.767 146.854 120 145.672 120ZM143.49 118.75H145.581C146.543 118.75 147.34 118.564 147.973 118.193C148.606 117.822 149.077 117.294 149.388 116.608C149.698 115.922 149.854 115.106 149.854 114.159C149.854 113.22 149.7 112.411 149.393 111.733C149.087 111.051 148.628 110.528 148.018 110.165C147.409 109.797 146.649 109.614 145.74 109.614H143.49V118.75ZM156.872 107.818L153.122 121.75H151.895L155.645 107.818H156.872ZM157.643 108.364H159.257L162.484 113.795H162.621L165.848 108.364H167.462L163.257 115.205V120H161.848V115.205L157.643 108.364ZM168.284 108.364H169.898L173.125 113.795H173.261L176.489 108.364H178.102L173.898 115.205V120H172.489V115.205L168.284 108.364ZM178.925 108.364H180.538L183.766 113.795H183.902L187.129 108.364H188.743L184.538 115.205V120H183.129V115.205L178.925 108.364ZM189.565 108.364H191.179L194.406 113.795H194.543L197.77 108.364H199.384L195.179 115.205V120H193.77V115.205L189.565 108.364Z" fill="white" fill-opacity="0.7"/>
</g>
<path d="M69 99H293V97H69V99ZM300 106V122H302V106H300ZM293 129H69V131H293V129ZM62 122V106H60V122H62ZM69 129C65.134 129 62 125.866 62 122H60C60 126.971 64.0294 131 69 131V129ZM300 122C300 125.866 296.866 129 293 129V131C297.971 131 302 126.971 302 122H300ZM293 99C296.866 99 300 102.134 300 106H302C302 101.029 297.971 97 293 97V99ZM69 97C64.0294 97 60 101.029 60 106H62C62 102.134 65.134 99 69 99V97Z" fill="white" fill-opacity="0.5" mask="url(#path-2-inside-1_2048_21834)"/>
<defs>
<clipPath id="clip0_2048_21834">
<path d="M61 106C61 101.582 64.5817 98 69 98H293C297.418 98 301 101.582 301 106V122C301 126.418 297.418 130 293 130H69C64.5817 130 61 126.418 61 122V106Z" fill="white"/>
</clipPath>
</defs>
</svg>
