<svg width="1150" height="88" viewBox="0 0 1150 88" fill="none" xmlns="http://www.w3.org/2000/svg">
<mask id="path-1-inside-1_2053_24591" fill="white">
<path d="M0 0H287.5V88H0V0Z"/>
</mask>
<path d="M0 0H287.5V88H0V0Z" fill="#1A1A1A"/>
<path d="M286.5 0V88H288.5V0H286.5Z" fill="#707070" mask="url(#path-1-inside-1_2053_24591)"/>
<path d="M40.7727 42H39.3636C39.2803 41.5947 39.1345 41.2386 38.9261 40.9318C38.7216 40.625 38.4716 40.3674 38.1761 40.1591C37.8845 39.947 37.5606 39.7879 37.2045 39.6818C36.8485 39.5758 36.4773 39.5227 36.0909 39.5227C35.3864 39.5227 34.7481 39.7008 34.1761 40.0568C33.608 40.4129 33.1553 40.9375 32.8182 41.6307C32.4848 42.3239 32.3182 43.1742 32.3182 44.1818C32.3182 45.1894 32.4848 46.0398 32.8182 46.733C33.1553 47.4261 33.608 47.9508 34.1761 48.3068C34.7481 48.6629 35.3864 48.8409 36.0909 48.8409C36.4773 48.8409 36.8485 48.7879 37.2045 48.6818C37.5606 48.5758 37.8845 48.4186 38.1761 48.2102C38.4716 47.9981 38.7216 47.7386 38.9261 47.4318C39.1345 47.1212 39.2803 46.7652 39.3636 46.3636H40.7727C40.6667 46.9583 40.4735 47.4905 40.1932 47.9602C39.9129 48.4299 39.5644 48.8295 39.1477 49.1591C38.7311 49.4848 38.2633 49.733 37.7443 49.9034C37.2292 50.0739 36.678 50.1591 36.0909 50.1591C35.0985 50.1591 34.2159 49.9167 33.4432 49.4318C32.6705 48.947 32.0625 48.2576 31.6193 47.3636C31.1761 46.4697 30.9545 45.4091 30.9545 44.1818C30.9545 42.9545 31.1761 41.8939 31.6193 41C32.0625 40.1061 32.6705 39.4167 33.4432 38.9318C34.2159 38.447 35.0985 38.2045 36.0909 38.2045C36.678 38.2045 37.2292 38.2898 37.7443 38.4602C38.2633 38.6307 38.7311 38.8807 39.1477 39.2102C39.5644 39.536 39.9129 39.9337 40.1932 40.4034C40.4735 40.8693 40.6667 41.4015 40.7727 42ZM44.2088 38.3636V50H42.8679V38.3636H44.2088ZM50.3239 50.1818C49.483 50.1818 48.7576 49.9962 48.1477 49.625C47.5417 49.25 47.0739 48.7273 46.7443 48.0568C46.4186 47.3826 46.2557 46.5985 46.2557 45.7045C46.2557 44.8106 46.4186 44.0227 46.7443 43.3409C47.0739 42.6553 47.5322 42.1212 48.1193 41.7386C48.7102 41.3523 49.3996 41.1591 50.1875 41.1591C50.642 41.1591 51.0909 41.2348 51.5341 41.3864C51.9773 41.5379 52.3807 41.7841 52.7443 42.125C53.108 42.4621 53.3977 42.9091 53.6136 43.4659C53.8295 44.0227 53.9375 44.7083 53.9375 45.5227V46.0909H47.2102V44.9318H52.5739C52.5739 44.4394 52.4754 44 52.2784 43.6136C52.0852 43.2273 51.8087 42.9223 51.4489 42.6989C51.0928 42.4754 50.6723 42.3636 50.1875 42.3636C49.6534 42.3636 49.1913 42.4962 48.8011 42.7614C48.4148 43.0227 48.1174 43.3636 47.9091 43.7841C47.7008 44.2045 47.5966 44.6553 47.5966 45.1364V45.9091C47.5966 46.5682 47.7102 47.1269 47.9375 47.5852C48.1686 48.0398 48.4886 48.3864 48.8977 48.625C49.3068 48.8598 49.7822 48.9773 50.3239 48.9773C50.6761 48.9773 50.9943 48.928 51.2784 48.8295C51.5663 48.7273 51.8144 48.5758 52.0227 48.375C52.2311 48.1705 52.392 47.9167 52.5057 47.6136L53.8011 47.9773C53.6648 48.4167 53.4356 48.803 53.1136 49.1364C52.7917 49.4659 52.3939 49.7235 51.9205 49.9091C51.447 50.0909 50.9148 50.1818 50.3239 50.1818ZM58.5455 50.2045C57.9924 50.2045 57.4905 50.1004 57.0398 49.892C56.589 49.6799 56.2311 49.375 55.9659 48.9773C55.7008 48.5758 55.5682 48.0909 55.5682 47.5227C55.5682 47.0227 55.6667 46.6174 55.8636 46.3068C56.0606 45.9924 56.3239 45.7462 56.6534 45.5682C56.983 45.3902 57.3466 45.2576 57.7443 45.1705C58.1458 45.0795 58.5492 45.0076 58.9545 44.9545C59.4848 44.8864 59.9148 44.8352 60.2443 44.8011C60.5777 44.7633 60.8201 44.7008 60.9716 44.6136C61.1269 44.5265 61.2045 44.375 61.2045 44.1591V44.1136C61.2045 43.553 61.0511 43.1174 60.7443 42.8068C60.4413 42.4962 59.9811 42.3409 59.3636 42.3409C58.7235 42.3409 58.2216 42.4811 57.858 42.7614C57.4943 43.0417 57.2386 43.3409 57.0909 43.6591L55.8182 43.2045C56.0455 42.6742 56.3485 42.2614 56.7273 41.9659C57.1098 41.6667 57.5265 41.4583 57.9773 41.3409C58.4318 41.2197 58.8788 41.1591 59.3182 41.1591C59.5985 41.1591 59.9205 41.1932 60.2841 41.2614C60.6515 41.3258 61.0057 41.4602 61.3466 41.6648C61.6913 41.8693 61.9773 42.178 62.2045 42.5909C62.4318 43.0038 62.5455 43.5568 62.5455 44.25V50H61.2045V48.8182H61.1364C61.0455 49.0076 60.8939 49.2102 60.6818 49.4261C60.4697 49.642 60.1875 49.8258 59.8352 49.9773C59.483 50.1288 59.053 50.2045 58.5455 50.2045ZM58.75 49C59.2803 49 59.7273 48.8958 60.0909 48.6875C60.4583 48.4792 60.7348 48.2102 60.9205 47.8807C61.1098 47.5511 61.2045 47.2045 61.2045 46.8409V45.6136C61.1477 45.6818 61.0227 45.7443 60.8295 45.8011C60.6402 45.8542 60.4205 45.9015 60.1705 45.9432C59.9242 45.9811 59.6837 46.0152 59.4489 46.0455C59.2178 46.072 59.0303 46.0947 58.8864 46.1136C58.5379 46.1591 58.2121 46.233 57.9091 46.3352C57.6098 46.4337 57.3674 46.5833 57.1818 46.7841C57 46.9811 56.9091 47.25 56.9091 47.5909C56.9091 48.0568 57.0814 48.4091 57.4261 48.6477C57.7746 48.8826 58.2159 49 58.75 49ZM64.9929 50V41.2727H66.2884V42.5909H66.3793C66.5384 42.1591 66.8262 41.8087 67.2429 41.5398C67.6596 41.2708 68.1293 41.1364 68.652 41.1364C68.7505 41.1364 68.8736 41.1383 69.0213 41.142C69.169 41.1458 69.2808 41.1515 69.3565 41.1591V42.5227C69.3111 42.5114 69.2069 42.4943 69.044 42.4716C68.8849 42.4451 68.7164 42.4318 68.5384 42.4318C68.1141 42.4318 67.7353 42.5208 67.402 42.6989C67.0724 42.8731 66.8111 43.1155 66.6179 43.4261C66.4285 43.733 66.3338 44.0833 66.3338 44.4773V50H64.9929ZM82.5824 41.2727L79.3551 50H77.9915L74.7642 41.2727H76.2188L78.6278 48.2273H78.7188L81.1278 41.2727H82.5824ZM86.6548 50.2045C86.1018 50.2045 85.5999 50.1004 85.1491 49.892C84.6984 49.6799 84.3404 49.375 84.0753 48.9773C83.8101 48.5758 83.6776 48.0909 83.6776 47.5227C83.6776 47.0227 83.776 46.6174 83.973 46.3068C84.17 45.9924 84.4332 45.7462 84.7628 45.5682C85.0923 45.3902 85.456 45.2576 85.8537 45.1705C86.2552 45.0795 86.6586 45.0076 87.0639 44.9545C87.5942 44.8864 88.0241 44.8352 88.3537 44.8011C88.687 44.7633 88.9295 44.7008 89.081 44.6136C89.2363 44.5265 89.3139 44.375 89.3139 44.1591V44.1136C89.3139 43.553 89.1605 43.1174 88.8537 42.8068C88.5507 42.4962 88.0904 42.3409 87.473 42.3409C86.8329 42.3409 86.331 42.4811 85.9673 42.7614C85.6037 43.0417 85.348 43.3409 85.2003 43.6591L83.9276 43.2045C84.1548 42.6742 84.4579 42.2614 84.8366 41.9659C85.2192 41.6667 85.6359 41.4583 86.0866 41.3409C86.5412 41.2197 86.9882 41.1591 87.4276 41.1591C87.7079 41.1591 88.0298 41.1932 88.3935 41.2614C88.7609 41.3258 89.1151 41.4602 89.456 41.6648C89.8007 41.8693 90.0866 42.178 90.3139 42.5909C90.5412 43.0038 90.6548 43.5568 90.6548 44.25V50H89.3139V48.8182H89.2457C89.1548 49.0076 89.0033 49.2102 88.7912 49.4261C88.5791 49.642 88.2969 49.8258 87.9446 49.9773C87.5923 50.1288 87.1624 50.2045 86.6548 50.2045ZM86.8594 49C87.3897 49 87.8366 48.8958 88.2003 48.6875C88.5677 48.4792 88.8442 48.2102 89.0298 47.8807C89.2192 47.5511 89.3139 47.2045 89.3139 46.8409V45.6136C89.2571 45.6818 89.1321 45.7443 88.9389 45.8011C88.7495 45.8542 88.5298 45.9015 88.2798 45.9432C88.0336 45.9811 87.7931 46.0152 87.5582 46.0455C87.3272 46.072 87.1397 46.0947 86.9957 46.1136C86.6473 46.1591 86.3215 46.233 86.0185 46.3352C85.7192 46.4337 85.4768 46.5833 85.2912 46.7841C85.1094 46.9811 85.0185 47.25 85.0185 47.5909C85.0185 48.0568 85.1908 48.4091 85.5355 48.6477C85.884 48.8826 86.3253 49 86.8594 49ZM94.4432 38.3636V50H93.1023V38.3636H94.4432ZM102.399 46.4318V41.2727H103.74V50H102.399V48.5227H102.308C102.104 48.9659 101.786 49.3428 101.354 49.6534C100.922 49.9602 100.376 50.1136 99.7173 50.1136C99.1719 50.1136 98.687 49.9943 98.2628 49.7557C97.8385 49.5133 97.5052 49.1496 97.2628 48.6648C97.0204 48.1761 96.8991 47.5606 96.8991 46.8182V41.2727H98.2401V46.7273C98.2401 47.3636 98.4181 47.8712 98.7741 48.25C99.134 48.6288 99.5923 48.8182 100.149 48.8182C100.482 48.8182 100.821 48.733 101.166 48.5625C101.515 48.392 101.806 48.1307 102.041 47.7784C102.28 47.4261 102.399 46.9773 102.399 46.4318ZM109.855 50.1818C109.014 50.1818 108.289 49.9962 107.679 49.625C107.073 49.25 106.605 48.7273 106.276 48.0568C105.95 47.3826 105.787 46.5985 105.787 45.7045C105.787 44.8106 105.95 44.0227 106.276 43.3409C106.605 42.6553 107.063 42.1212 107.651 41.7386C108.241 41.3523 108.931 41.1591 109.719 41.1591C110.173 41.1591 110.622 41.2348 111.065 41.3864C111.509 41.5379 111.912 41.7841 112.276 42.125C112.639 42.4621 112.929 42.9091 113.145 43.4659C113.361 44.0227 113.469 44.7083 113.469 45.5227V46.0909H106.741V44.9318H112.105C112.105 44.4394 112.007 44 111.81 43.6136C111.616 43.2273 111.34 42.9223 110.98 42.6989C110.624 42.4754 110.204 42.3636 109.719 42.3636C109.185 42.3636 108.723 42.4962 108.332 42.7614C107.946 43.0227 107.649 43.3636 107.44 43.7841C107.232 44.2045 107.128 44.6553 107.128 45.1364V45.9091C107.128 46.5682 107.241 47.1269 107.469 47.5852C107.7 48.0398 108.02 48.3864 108.429 48.625C108.838 48.8598 109.313 48.9773 109.855 48.9773C110.207 48.9773 110.526 48.928 110.81 48.8295C111.098 48.7273 111.346 48.5758 111.554 48.375C111.762 48.1705 111.923 47.9167 112.037 47.6136L113.332 47.9773C113.196 48.4167 112.967 48.803 112.645 49.1364C112.323 49.4659 111.925 49.7235 111.452 49.9091C110.978 50.0909 110.446 50.1818 109.855 50.1818Z" fill="white" fill-opacity="0.95"/>
<mask id="path-4-inside-2_2053_24591" fill="white">
<path d="M287.5 0H575V88H287.5V0Z"/>
</mask>
<path d="M287.5 0H575V88H287.5V0Z" fill="#1A1A1A"/>
<path d="M574 0V88H576V0H574Z" fill="#707070" mask="url(#path-4-inside-2_2053_24591)"/>
<path d="M318.909 50V38.3636H322.977C323.788 38.3636 324.456 38.5038 324.983 38.7841C325.509 39.0606 325.902 39.4337 326.159 39.9034C326.417 40.3693 326.545 40.8864 326.545 41.4545C326.545 41.9545 326.456 42.3674 326.278 42.6932C326.104 43.0189 325.873 43.2765 325.585 43.4659C325.301 43.6553 324.992 43.7955 324.659 43.8864V44C325.015 44.0227 325.373 44.1477 325.733 44.375C326.093 44.6023 326.394 44.928 326.636 45.3523C326.879 45.7765 327 46.2955 327 46.9091C327 47.4924 326.867 48.017 326.602 48.483C326.337 48.9489 325.919 49.3182 325.347 49.5909C324.775 49.8636 324.03 50 323.114 50H318.909ZM320.318 48.75H323.114C324.034 48.75 324.688 48.572 325.074 48.2159C325.464 47.8561 325.659 47.4205 325.659 46.9091C325.659 46.5152 325.559 46.1515 325.358 45.8182C325.157 45.4811 324.871 45.2121 324.5 45.0114C324.129 44.8068 323.689 44.7045 323.182 44.7045H320.318V48.75ZM320.318 43.4773H322.932C323.356 43.4773 323.739 43.3939 324.08 43.2273C324.424 43.0606 324.697 42.8258 324.898 42.5227C325.102 42.2197 325.205 41.8636 325.205 41.4545C325.205 40.9432 325.027 40.5095 324.67 40.1534C324.314 39.7936 323.75 39.6136 322.977 39.6136H320.318V43.4773ZM334.634 46.4318V41.2727H335.974V50H334.634V48.5227H334.543C334.338 48.9659 334.02 49.3428 333.588 49.6534C333.156 49.9602 332.611 50.1136 331.952 50.1136C331.406 50.1136 330.921 49.9943 330.497 49.7557C330.073 49.5133 329.74 49.1496 329.497 48.6648C329.255 48.1761 329.134 47.5606 329.134 46.8182V41.2727H330.474V46.7273C330.474 47.3636 330.652 47.8712 331.009 48.25C331.368 48.6288 331.827 48.8182 332.384 48.8182C332.717 48.8182 333.056 48.733 333.401 48.5625C333.749 48.392 334.041 48.1307 334.276 47.7784C334.514 47.4261 334.634 46.9773 334.634 46.4318ZM342.226 41.2727V42.4091H337.703V41.2727H342.226ZM339.021 39.1818H340.362V47.5C340.362 47.8788 340.417 48.1629 340.527 48.3523C340.641 48.5379 340.785 48.6629 340.959 48.7273C341.137 48.7879 341.324 48.8182 341.521 48.8182C341.669 48.8182 341.79 48.8106 341.885 48.7955C341.98 48.7765 342.055 48.7614 342.112 48.75L342.385 49.9545C342.294 49.9886 342.167 50.0227 342.004 50.0568C341.841 50.0947 341.635 50.1136 341.385 50.1136C341.006 50.1136 340.635 50.0322 340.271 49.8693C339.911 49.7064 339.612 49.4583 339.374 49.125C339.139 48.7917 339.021 48.3712 339.021 47.8636V39.1818ZM348.038 41.2727V42.4091H343.516V41.2727H348.038ZM344.834 39.1818H346.175V47.5C346.175 47.8788 346.23 48.1629 346.339 48.3523C346.453 48.5379 346.597 48.6629 346.771 48.7273C346.949 48.7879 347.137 48.8182 347.334 48.8182C347.482 48.8182 347.603 48.8106 347.697 48.7955C347.792 48.7765 347.868 48.7614 347.925 48.75L348.197 49.9545C348.107 49.9886 347.98 50.0227 347.817 50.0568C347.654 50.0947 347.447 50.1136 347.197 50.1136C346.819 50.1136 346.447 50.0322 346.084 49.8693C345.724 49.7064 345.425 49.4583 345.186 49.125C344.951 48.7917 344.834 48.3712 344.834 47.8636V39.1818ZM353.507 50.1818C352.719 50.1818 352.028 49.9943 351.433 49.6193C350.842 49.2443 350.38 48.7197 350.047 48.0455C349.717 47.3712 349.553 46.5833 349.553 45.6818C349.553 44.7727 349.717 43.9792 350.047 43.3011C350.38 42.6231 350.842 42.0966 351.433 41.7216C352.028 41.3466 352.719 41.1591 353.507 41.1591C354.295 41.1591 354.984 41.3466 355.575 41.7216C356.17 42.0966 356.632 42.6231 356.962 43.3011C357.295 43.9792 357.462 44.7727 357.462 45.6818C357.462 46.5833 357.295 47.3712 356.962 48.0455C356.632 48.7197 356.17 49.2443 355.575 49.6193C354.984 49.9943 354.295 50.1818 353.507 50.1818ZM353.507 48.9773C354.106 48.9773 354.598 48.8239 354.984 48.517C355.371 48.2102 355.657 47.8068 355.842 47.3068C356.028 46.8068 356.121 46.2652 356.121 45.6818C356.121 45.0985 356.028 44.5549 355.842 44.0511C355.657 43.5473 355.371 43.1402 354.984 42.8295C354.598 42.5189 354.106 42.3636 353.507 42.3636C352.909 42.3636 352.416 42.5189 352.03 42.8295C351.643 43.1402 351.357 43.5473 351.172 44.0511C350.986 44.5549 350.893 45.0985 350.893 45.6818C350.893 46.2652 350.986 46.8068 351.172 47.3068C351.357 47.8068 351.643 48.2102 352.03 48.517C352.416 48.8239 352.909 48.9773 353.507 48.9773ZM360.849 44.75V50H359.509V41.2727H360.804V42.6364H360.918C361.122 42.1932 361.433 41.8371 361.849 41.5682C362.266 41.2955 362.804 41.1591 363.463 41.1591C364.054 41.1591 364.571 41.2803 365.014 41.5227C365.457 41.7614 365.802 42.125 366.048 42.6136C366.295 43.0985 366.418 43.7121 366.418 44.4545V50H365.077V44.5455C365.077 43.8598 364.899 43.3258 364.543 42.9432C364.187 42.5568 363.698 42.3636 363.077 42.3636C362.649 42.3636 362.266 42.4564 361.929 42.642C361.596 42.8277 361.332 43.0985 361.139 43.4545C360.946 43.8106 360.849 44.2424 360.849 44.75Z" fill="white" fill-opacity="0.95"/>
<mask id="path-7-inside-3_2053_24591" fill="white">
<path d="M575 0H862.5V88H575V0Z"/>
</mask>
<path d="M575 0H862.5V88H575V0Z" fill="#1A1A1A"/>
<path d="M861.5 0V88H863.5V0H861.5Z" fill="#707070" mask="url(#path-7-inside-3_2053_24591)"/>
<path d="M606.409 50V38.3636H610.477C611.288 38.3636 611.956 38.5038 612.483 38.7841C613.009 39.0606 613.402 39.4337 613.659 39.9034C613.917 40.3693 614.045 40.8864 614.045 41.4545C614.045 41.9545 613.956 42.3674 613.778 42.6932C613.604 43.0189 613.373 43.2765 613.085 43.4659C612.801 43.6553 612.492 43.7955 612.159 43.8864V44C612.515 44.0227 612.873 44.1477 613.233 44.375C613.593 44.6023 613.894 44.928 614.136 45.3523C614.379 45.7765 614.5 46.2955 614.5 46.9091C614.5 47.4924 614.367 48.017 614.102 48.483C613.837 48.9489 613.419 49.3182 612.847 49.5909C612.275 49.8636 611.53 50 610.614 50H606.409ZM607.818 48.75H610.614C611.534 48.75 612.188 48.572 612.574 48.2159C612.964 47.8561 613.159 47.4205 613.159 46.9091C613.159 46.5152 613.059 46.1515 612.858 45.8182C612.657 45.4811 612.371 45.2121 612 45.0114C611.629 44.8068 611.189 44.7045 610.682 44.7045H607.818V48.75ZM607.818 43.4773H610.432C610.856 43.4773 611.239 43.3939 611.58 43.2273C611.924 43.0606 612.197 42.8258 612.398 42.5227C612.602 42.2197 612.705 41.8636 612.705 41.4545C612.705 40.9432 612.527 40.5095 612.17 40.1534C611.814 39.7936 611.25 39.6136 610.477 39.6136H607.818V43.4773ZM622.134 46.4318V41.2727H623.474V50H622.134V48.5227H622.043C621.838 48.9659 621.52 49.3428 621.088 49.6534C620.656 49.9602 620.111 50.1136 619.452 50.1136C618.906 50.1136 618.421 49.9943 617.997 49.7557C617.573 49.5133 617.24 49.1496 616.997 48.6648C616.755 48.1761 616.634 47.5606 616.634 46.8182V41.2727H617.974V46.7273C617.974 47.3636 618.152 47.8712 618.509 48.25C618.868 48.6288 619.327 48.8182 619.884 48.8182C620.217 48.8182 620.556 48.733 620.901 48.5625C621.249 48.392 621.541 48.1307 621.776 47.7784C622.014 47.4261 622.134 46.9773 622.134 46.4318ZM629.726 41.2727V42.4091H625.203V41.2727H629.726ZM626.521 39.1818H627.862V47.5C627.862 47.8788 627.917 48.1629 628.027 48.3523C628.141 48.5379 628.285 48.6629 628.459 48.7273C628.637 48.7879 628.824 48.8182 629.021 48.8182C629.169 48.8182 629.29 48.8106 629.385 48.7955C629.48 48.7765 629.555 48.7614 629.612 48.75L629.885 49.9545C629.794 49.9886 629.667 50.0227 629.504 50.0568C629.341 50.0947 629.135 50.1136 628.885 50.1136C628.506 50.1136 628.135 50.0322 627.771 49.8693C627.411 49.7064 627.112 49.4583 626.874 49.125C626.639 48.7917 626.521 48.3712 626.521 47.8636V39.1818ZM635.538 41.2727V42.4091H631.016V41.2727H635.538ZM632.334 39.1818H633.675V47.5C633.675 47.8788 633.73 48.1629 633.839 48.3523C633.953 48.5379 634.097 48.6629 634.271 48.7273C634.449 48.7879 634.637 48.8182 634.834 48.8182C634.982 48.8182 635.103 48.8106 635.197 48.7955C635.292 48.7765 635.368 48.7614 635.425 48.75L635.697 49.9545C635.607 49.9886 635.48 50.0227 635.317 50.0568C635.154 50.0947 634.947 50.1136 634.697 50.1136C634.319 50.1136 633.947 50.0322 633.584 49.8693C633.224 49.7064 632.925 49.4583 632.686 49.125C632.451 48.7917 632.334 48.3712 632.334 47.8636V39.1818ZM641.007 50.1818C640.219 50.1818 639.528 49.9943 638.933 49.6193C638.342 49.2443 637.88 48.7197 637.547 48.0455C637.217 47.3712 637.053 46.5833 637.053 45.6818C637.053 44.7727 637.217 43.9792 637.547 43.3011C637.88 42.6231 638.342 42.0966 638.933 41.7216C639.528 41.3466 640.219 41.1591 641.007 41.1591C641.795 41.1591 642.484 41.3466 643.075 41.7216C643.67 42.0966 644.132 42.6231 644.462 43.3011C644.795 43.9792 644.962 44.7727 644.962 45.6818C644.962 46.5833 644.795 47.3712 644.462 48.0455C644.132 48.7197 643.67 49.2443 643.075 49.6193C642.484 49.9943 641.795 50.1818 641.007 50.1818ZM641.007 48.9773C641.606 48.9773 642.098 48.8239 642.484 48.517C642.871 48.2102 643.157 47.8068 643.342 47.3068C643.528 46.8068 643.621 46.2652 643.621 45.6818C643.621 45.0985 643.528 44.5549 643.342 44.0511C643.157 43.5473 642.871 43.1402 642.484 42.8295C642.098 42.5189 641.606 42.3636 641.007 42.3636C640.409 42.3636 639.916 42.5189 639.53 42.8295C639.143 43.1402 638.857 43.5473 638.672 44.0511C638.486 44.5549 638.393 45.0985 638.393 45.6818C638.393 46.2652 638.486 46.8068 638.672 47.3068C638.857 47.8068 639.143 48.2102 639.53 48.517C639.916 48.8239 640.409 48.9773 641.007 48.9773ZM648.349 44.75V50H647.009V41.2727H648.304V42.6364H648.418C648.622 42.1932 648.933 41.8371 649.349 41.5682C649.766 41.2955 650.304 41.1591 650.963 41.1591C651.554 41.1591 652.071 41.2803 652.514 41.5227C652.957 41.7614 653.302 42.125 653.548 42.6136C653.795 43.0985 653.918 43.7121 653.918 44.4545V50H652.577V44.5455C652.577 43.8598 652.399 43.3258 652.043 42.9432C651.687 42.5568 651.198 42.3636 650.577 42.3636C650.149 42.3636 649.766 42.4564 649.429 42.642C649.096 42.8277 648.832 43.0985 648.639 43.4545C648.446 43.8106 648.349 44.2424 648.349 44.75Z" fill="white" fill-opacity="0.95"/>
<mask id="path-10-inside-4_2053_24591" fill="white">
<path d="M862.5 0H1150V88H862.5V0Z"/>
</mask>
<path d="M862.5 0H1150V88H862.5V0Z" fill="#1A1A1A"/>
<path d="M1149 0V88H1151V0H1149Z" fill="#707070" mask="url(#path-10-inside-4_2053_24591)"/>
<path d="M904.5 47.8636C904.042 47.8636 903.623 47.7519 903.244 47.5284C902.866 47.3011 902.563 46.9981 902.335 46.6193C902.112 46.2405 902 45.822 902 45.3636C902 44.9015 902.112 44.483 902.335 44.108C902.563 43.7292 902.866 43.428 903.244 43.2045C903.623 42.9773 904.042 42.8636 904.5 42.8636C904.962 42.8636 905.381 42.9773 905.756 43.2045C906.134 43.428 906.436 43.7292 906.659 44.108C906.886 44.483 907 44.9015 907 45.3636C907 45.822 906.886 46.2405 906.659 46.6193C906.436 46.9981 906.134 47.3011 905.756 47.5284C905.381 47.7519 904.962 47.8636 904.5 47.8636ZM917.909 50V38.3636H921.977C922.788 38.3636 923.456 38.5038 923.983 38.7841C924.509 39.0606 924.902 39.4337 925.159 39.9034C925.417 40.3693 925.545 40.8864 925.545 41.4545C925.545 41.9545 925.456 42.3674 925.278 42.6932C925.104 43.0189 924.873 43.2765 924.585 43.4659C924.301 43.6553 923.992 43.7955 923.659 43.8864V44C924.015 44.0227 924.373 44.1477 924.733 44.375C925.093 44.6023 925.394 44.928 925.636 45.3523C925.879 45.7765 926 46.2955 926 46.9091C926 47.4924 925.867 48.017 925.602 48.483C925.337 48.9489 924.919 49.3182 924.347 49.5909C923.775 49.8636 923.03 50 922.114 50H917.909ZM919.318 48.75H922.114C923.034 48.75 923.688 48.572 924.074 48.2159C924.464 47.8561 924.659 47.4205 924.659 46.9091C924.659 46.5152 924.559 46.1515 924.358 45.8182C924.157 45.4811 923.871 45.2121 923.5 45.0114C923.129 44.8068 922.689 44.7045 922.182 44.7045H919.318V48.75ZM919.318 43.4773H921.932C922.356 43.4773 922.739 43.3939 923.08 43.2273C923.424 43.0606 923.697 42.8258 923.898 42.5227C924.102 42.2197 924.205 41.8636 924.205 41.4545C924.205 40.9432 924.027 40.5095 923.67 40.1534C923.314 39.7936 922.75 39.6136 921.977 39.6136H919.318V43.4773ZM933.634 46.4318V41.2727H934.974V50H933.634V48.5227H933.543C933.338 48.9659 933.02 49.3428 932.588 49.6534C932.156 49.9602 931.611 50.1136 930.952 50.1136C930.406 50.1136 929.921 49.9943 929.497 49.7557C929.073 49.5133 928.74 49.1496 928.497 48.6648C928.255 48.1761 928.134 47.5606 928.134 46.8182V41.2727H929.474V46.7273C929.474 47.3636 929.652 47.8712 930.009 48.25C930.368 48.6288 930.827 48.8182 931.384 48.8182C931.717 48.8182 932.056 48.733 932.401 48.5625C932.749 48.392 933.041 48.1307 933.276 47.7784C933.514 47.4261 933.634 46.9773 933.634 46.4318ZM941.226 41.2727V42.4091H936.703V41.2727H941.226ZM938.021 39.1818H939.362V47.5C939.362 47.8788 939.417 48.1629 939.527 48.3523C939.641 48.5379 939.785 48.6629 939.959 48.7273C940.137 48.7879 940.324 48.8182 940.521 48.8182C940.669 48.8182 940.79 48.8106 940.885 48.7955C940.98 48.7765 941.055 48.7614 941.112 48.75L941.385 49.9545C941.294 49.9886 941.167 50.0227 941.004 50.0568C940.841 50.0947 940.635 50.1136 940.385 50.1136C940.006 50.1136 939.635 50.0322 939.271 49.8693C938.911 49.7064 938.612 49.4583 938.374 49.125C938.139 48.7917 938.021 48.3712 938.021 47.8636V39.1818ZM947.038 41.2727V42.4091H942.516V41.2727H947.038ZM943.834 39.1818H945.175V47.5C945.175 47.8788 945.23 48.1629 945.339 48.3523C945.453 48.5379 945.597 48.6629 945.771 48.7273C945.949 48.7879 946.137 48.8182 946.334 48.8182C946.482 48.8182 946.603 48.8106 946.697 48.7955C946.792 48.7765 946.868 48.7614 946.925 48.75L947.197 49.9545C947.107 49.9886 946.98 50.0227 946.817 50.0568C946.654 50.0947 946.447 50.1136 946.197 50.1136C945.819 50.1136 945.447 50.0322 945.084 49.8693C944.724 49.7064 944.425 49.4583 944.186 49.125C943.951 48.7917 943.834 48.3712 943.834 47.8636V39.1818ZM952.507 50.1818C951.719 50.1818 951.028 49.9943 950.433 49.6193C949.842 49.2443 949.38 48.7197 949.047 48.0455C948.717 47.3712 948.553 46.5833 948.553 45.6818C948.553 44.7727 948.717 43.9792 949.047 43.3011C949.38 42.6231 949.842 42.0966 950.433 41.7216C951.028 41.3466 951.719 41.1591 952.507 41.1591C953.295 41.1591 953.984 41.3466 954.575 41.7216C955.17 42.0966 955.632 42.6231 955.962 43.3011C956.295 43.9792 956.462 44.7727 956.462 45.6818C956.462 46.5833 956.295 47.3712 955.962 48.0455C955.632 48.7197 955.17 49.2443 954.575 49.6193C953.984 49.9943 953.295 50.1818 952.507 50.1818ZM952.507 48.9773C953.106 48.9773 953.598 48.8239 953.984 48.517C954.371 48.2102 954.657 47.8068 954.842 47.3068C955.028 46.8068 955.121 46.2652 955.121 45.6818C955.121 45.0985 955.028 44.5549 954.842 44.0511C954.657 43.5473 954.371 43.1402 953.984 42.8295C953.598 42.5189 953.106 42.3636 952.507 42.3636C951.909 42.3636 951.416 42.5189 951.03 42.8295C950.643 43.1402 950.357 43.5473 950.172 44.0511C949.986 44.5549 949.893 45.0985 949.893 45.6818C949.893 46.2652 949.986 46.8068 950.172 47.3068C950.357 47.8068 950.643 48.2102 951.03 48.517C951.416 48.8239 951.909 48.9773 952.507 48.9773ZM959.849 44.75V50H958.509V41.2727H959.804V42.6364H959.918C960.122 42.1932 960.433 41.8371 960.849 41.5682C961.266 41.2955 961.804 41.1591 962.463 41.1591C963.054 41.1591 963.571 41.2803 964.014 41.5227C964.457 41.7614 964.802 42.125 965.048 42.6136C965.295 43.0985 965.418 43.7121 965.418 44.4545V50H964.077V44.5455C964.077 43.8598 963.899 43.3258 963.543 42.9432C963.187 42.5568 962.698 42.3636 962.077 42.3636C961.649 42.3636 961.266 42.4564 960.929 42.642C960.596 42.8277 960.332 43.0985 960.139 43.4545C959.946 43.8106 959.849 44.2424 959.849 44.75ZM969.868 48.4091L969.777 49.0227C969.713 49.4545 969.614 49.9167 969.482 50.4091C969.353 50.9015 969.218 51.3655 969.078 51.8011C968.938 52.2367 968.822 52.5833 968.732 52.8409H967.709C967.758 52.5985 967.822 52.2784 967.902 51.8807C967.982 51.483 968.061 51.0379 968.141 50.5455C968.224 50.0568 968.292 49.5568 968.345 49.0455L968.413 48.4091H969.868ZM986.398 42H984.989C984.905 41.5947 984.759 41.2386 984.551 40.9318C984.347 40.625 984.097 40.3674 983.801 40.1591C983.509 39.947 983.186 39.7879 982.83 39.6818C982.473 39.5758 982.102 39.5227 981.716 39.5227C981.011 39.5227 980.373 39.7008 979.801 40.0568C979.233 40.4129 978.78 40.9375 978.443 41.6307C978.11 42.3239 977.943 43.1742 977.943 44.1818C977.943 45.1894 978.11 46.0398 978.443 46.733C978.78 47.4261 979.233 47.9508 979.801 48.3068C980.373 48.6629 981.011 48.8409 981.716 48.8409C982.102 48.8409 982.473 48.7879 982.83 48.6818C983.186 48.5758 983.509 48.4186 983.801 48.2102C984.097 47.9981 984.347 47.7386 984.551 47.4318C984.759 47.1212 984.905 46.7652 984.989 46.3636H986.398C986.292 46.9583 986.098 47.4905 985.818 47.9602C985.538 48.4299 985.189 48.8295 984.773 49.1591C984.356 49.4848 983.888 49.733 983.369 49.9034C982.854 50.0739 982.303 50.1591 981.716 50.1591C980.723 50.1591 979.841 49.9167 979.068 49.4318C978.295 48.947 977.688 48.2576 977.244 47.3636C976.801 46.4697 976.58 45.4091 976.58 44.1818C976.58 42.9545 976.801 41.8939 977.244 41C977.688 40.1061 978.295 39.4167 979.068 38.9318C979.841 38.447 980.723 38.2045 981.716 38.2045C982.303 38.2045 982.854 38.2898 983.369 38.4602C983.888 38.6307 984.356 38.8807 984.773 39.2102C985.189 39.536 985.538 39.9337 985.818 40.4034C986.098 40.8693 986.292 41.4015 986.398 42ZM989.834 38.3636V50H988.493V38.3636H989.834ZM995.949 50.1818C995.108 50.1818 994.383 49.9962 993.773 49.625C993.167 49.25 992.699 48.7273 992.369 48.0568C992.044 47.3826 991.881 46.5985 991.881 45.7045C991.881 44.8106 992.044 44.0227 992.369 43.3409C992.699 42.6553 993.157 42.1212 993.744 41.7386C994.335 41.3523 995.025 41.1591 995.812 41.1591C996.267 41.1591 996.716 41.2348 997.159 41.3864C997.602 41.5379 998.006 41.7841 998.369 42.125C998.733 42.4621 999.023 42.9091 999.239 43.4659C999.455 44.0227 999.562 44.7083 999.562 45.5227V46.0909H992.835V44.9318H998.199C998.199 44.4394 998.1 44 997.903 43.6136C997.71 43.2273 997.434 42.9223 997.074 42.6989C996.718 42.4754 996.297 42.3636 995.812 42.3636C995.278 42.3636 994.816 42.4962 994.426 42.7614C994.04 43.0227 993.742 43.3636 993.534 43.7841C993.326 44.2045 993.222 44.6553 993.222 45.1364V45.9091C993.222 46.5682 993.335 47.1269 993.562 47.5852C993.794 48.0398 994.114 48.3864 994.523 48.625C994.932 48.8598 995.407 48.9773 995.949 48.9773C996.301 48.9773 996.619 48.928 996.903 48.8295C997.191 48.7273 997.439 48.5758 997.648 48.375C997.856 48.1705 998.017 47.9167 998.131 47.6136L999.426 47.9773C999.29 48.4167 999.061 48.803 998.739 49.1364C998.417 49.4659 998.019 49.7235 997.545 49.9091C997.072 50.0909 996.54 50.1818 995.949 50.1818ZM1004.17 50.2045C1003.62 50.2045 1003.12 50.1004 1002.66 49.892C1002.21 49.6799 1001.86 49.375 1001.59 48.9773C1001.33 48.5758 1001.19 48.0909 1001.19 47.5227C1001.19 47.0227 1001.29 46.6174 1001.49 46.3068C1001.69 45.9924 1001.95 45.7462 1002.28 45.5682C1002.61 45.3902 1002.97 45.2576 1003.37 45.1705C1003.77 45.0795 1004.17 45.0076 1004.58 44.9545C1005.11 44.8864 1005.54 44.8352 1005.87 44.8011C1006.2 44.7633 1006.45 44.7008 1006.6 44.6136C1006.75 44.5265 1006.83 44.375 1006.83 44.1591V44.1136C1006.83 43.553 1006.68 43.1174 1006.37 42.8068C1006.07 42.4962 1005.61 42.3409 1004.99 42.3409C1004.35 42.3409 1003.85 42.4811 1003.48 42.7614C1003.12 43.0417 1002.86 43.3409 1002.72 43.6591L1001.44 43.2045C1001.67 42.6742 1001.97 42.2614 1002.35 41.9659C1002.73 41.6667 1003.15 41.4583 1003.6 41.3409C1004.06 41.2197 1004.5 41.1591 1004.94 41.1591C1005.22 41.1591 1005.55 41.1932 1005.91 41.2614C1006.28 41.3258 1006.63 41.4602 1006.97 41.6648C1007.32 41.8693 1007.6 42.178 1007.83 42.5909C1008.06 43.0038 1008.17 43.5568 1008.17 44.25V50H1006.83V48.8182H1006.76C1006.67 49.0076 1006.52 49.2102 1006.31 49.4261C1006.09 49.642 1005.81 49.8258 1005.46 49.9773C1005.11 50.1288 1004.68 50.2045 1004.17 50.2045ZM1004.38 49C1004.91 49 1005.35 48.8958 1005.72 48.6875C1006.08 48.4792 1006.36 48.2102 1006.55 47.8807C1006.73 47.5511 1006.83 47.2045 1006.83 46.8409V45.6136C1006.77 45.6818 1006.65 45.7443 1006.45 45.8011C1006.27 45.8542 1006.05 45.9015 1005.8 45.9432C1005.55 45.9811 1005.31 46.0152 1005.07 46.0455C1004.84 46.072 1004.66 46.0947 1004.51 46.1136C1004.16 46.1591 1003.84 46.233 1003.53 46.3352C1003.23 46.4337 1002.99 46.5833 1002.81 46.7841C1002.63 46.9811 1002.53 47.25 1002.53 47.5909C1002.53 48.0568 1002.71 48.4091 1003.05 48.6477C1003.4 48.8826 1003.84 49 1004.38 49ZM1010.62 50V41.2727H1011.91V42.5909H1012C1012.16 42.1591 1012.45 41.8087 1012.87 41.5398C1013.28 41.2708 1013.75 41.1364 1014.28 41.1364C1014.38 41.1364 1014.5 41.1383 1014.65 41.142C1014.79 41.1458 1014.91 41.1515 1014.98 41.1591V42.5227C1014.94 42.5114 1014.83 42.4943 1014.67 42.4716C1014.51 42.4451 1014.34 42.4318 1014.16 42.4318C1013.74 42.4318 1013.36 42.5208 1013.03 42.6989C1012.7 42.8731 1012.44 43.1155 1012.24 43.4261C1012.05 43.733 1011.96 44.0833 1011.96 44.4773V50H1010.62ZM1028.21 41.2727L1024.98 50H1023.62L1020.39 41.2727H1021.84L1024.25 48.2273H1024.34L1026.75 41.2727H1028.21ZM1032.28 50.2045C1031.73 50.2045 1031.22 50.1004 1030.77 49.892C1030.32 49.6799 1029.97 49.375 1029.7 48.9773C1029.44 48.5758 1029.3 48.0909 1029.3 47.5227C1029.3 47.0227 1029.4 46.6174 1029.6 46.3068C1029.79 45.9924 1030.06 45.7462 1030.39 45.5682C1030.72 45.3902 1031.08 45.2576 1031.48 45.1705C1031.88 45.0795 1032.28 45.0076 1032.69 44.9545C1033.22 44.8864 1033.65 44.8352 1033.98 44.8011C1034.31 44.7633 1034.55 44.7008 1034.71 44.6136C1034.86 44.5265 1034.94 44.375 1034.94 44.1591V44.1136C1034.94 43.553 1034.79 43.1174 1034.48 42.8068C1034.18 42.4962 1033.72 42.3409 1033.1 42.3409C1032.46 42.3409 1031.96 42.4811 1031.59 42.7614C1031.23 43.0417 1030.97 43.3409 1030.83 43.6591L1029.55 43.2045C1029.78 42.6742 1030.08 42.2614 1030.46 41.9659C1030.84 41.6667 1031.26 41.4583 1031.71 41.3409C1032.17 41.2197 1032.61 41.1591 1033.05 41.1591C1033.33 41.1591 1033.65 41.1932 1034.02 41.2614C1034.39 41.3258 1034.74 41.4602 1035.08 41.6648C1035.43 41.8693 1035.71 42.178 1035.94 42.5909C1036.17 43.0038 1036.28 43.5568 1036.28 44.25V50H1034.94V48.8182H1034.87C1034.78 49.0076 1034.63 49.2102 1034.42 49.4261C1034.2 49.642 1033.92 49.8258 1033.57 49.9773C1033.22 50.1288 1032.79 50.2045 1032.28 50.2045ZM1032.48 49C1033.01 49 1033.46 48.8958 1033.83 48.6875C1034.19 48.4792 1034.47 48.2102 1034.65 47.8807C1034.84 47.5511 1034.94 47.2045 1034.94 46.8409V45.6136C1034.88 45.6818 1034.76 45.7443 1034.56 45.8011C1034.37 45.8542 1034.15 45.9015 1033.9 45.9432C1033.66 45.9811 1033.42 46.0152 1033.18 46.0455C1032.95 46.072 1032.76 46.0947 1032.62 46.1136C1032.27 46.1591 1031.95 46.233 1031.64 46.3352C1031.34 46.4337 1031.1 46.5833 1030.92 46.7841C1030.73 46.9811 1030.64 47.25 1030.64 47.5909C1030.64 48.0568 1030.82 48.4091 1031.16 48.6477C1031.51 48.8826 1031.95 49 1032.48 49ZM1040.07 38.3636V50H1038.73V38.3636H1040.07ZM1048.02 46.4318V41.2727H1049.37V50H1048.02V48.5227H1047.93C1047.73 48.9659 1047.41 49.3428 1046.98 49.6534C1046.55 49.9602 1046 50.1136 1045.34 50.1136C1044.8 50.1136 1044.31 49.9943 1043.89 49.7557C1043.46 49.5133 1043.13 49.1496 1042.89 48.6648C1042.65 48.1761 1042.52 47.5606 1042.52 46.8182V41.2727H1043.87V46.7273C1043.87 47.3636 1044.04 47.8712 1044.4 48.25C1044.76 48.6288 1045.22 48.8182 1045.77 48.8182C1046.11 48.8182 1046.45 48.733 1046.79 48.5625C1047.14 48.392 1047.43 48.1307 1047.67 47.7784C1047.9 47.4261 1048.02 46.9773 1048.02 46.4318ZM1055.48 50.1818C1054.64 50.1818 1053.91 49.9962 1053.3 49.625C1052.7 49.25 1052.23 48.7273 1051.9 48.0568C1051.57 47.3826 1051.41 46.5985 1051.41 45.7045C1051.41 44.8106 1051.57 44.0227 1051.9 43.3409C1052.23 42.6553 1052.69 42.1212 1053.28 41.7386C1053.87 41.3523 1054.56 41.1591 1055.34 41.1591C1055.8 41.1591 1056.25 41.2348 1056.69 41.3864C1057.13 41.5379 1057.54 41.7841 1057.9 42.125C1058.26 42.4621 1058.55 42.9091 1058.77 43.4659C1058.99 44.0227 1059.09 44.7083 1059.09 45.5227V46.0909H1052.37V44.9318H1057.73C1057.73 44.4394 1057.63 44 1057.43 43.6136C1057.24 43.2273 1056.96 42.9223 1056.61 42.6989C1056.25 42.4754 1055.83 42.3636 1055.34 42.3636C1054.81 42.3636 1054.35 42.4962 1053.96 42.7614C1053.57 43.0227 1053.27 43.3636 1053.07 43.7841C1052.86 44.2045 1052.75 44.6553 1052.75 45.1364V45.9091C1052.75 46.5682 1052.87 47.1269 1053.09 47.5852C1053.32 48.0398 1053.64 48.3864 1054.05 48.625C1054.46 48.8598 1054.94 48.9773 1055.48 48.9773C1055.83 48.9773 1056.15 48.928 1056.43 48.8295C1056.72 48.7273 1056.97 48.5758 1057.18 48.375C1057.39 48.1705 1057.55 47.9167 1057.66 47.6136L1058.96 47.9773C1058.82 48.4167 1058.59 48.803 1058.27 49.1364C1057.95 49.4659 1057.55 49.7235 1057.08 49.9091C1056.6 50.0909 1056.07 50.1818 1055.48 50.1818Z" fill="white" fill-opacity="0.95"/>
</svg>
