<svg width="1300" height="88" viewBox="0 0 1300 88" fill="none" xmlns="http://www.w3.org/2000/svg">
<mask id="path-1-inside-1_2053_24591" fill="white">
<path d="M0 0H325V88H0V0Z"/>
</mask>
<path d="M0 0H325V88H0V0Z" fill="#1A1A1A"/>
<path d="M324 0V88H326V0H324Z" fill="#707070" mask="url(#path-1-inside-1_2053_24591)"/>
<path d="M40.7727 42H39.3636C39.2803 41.5947 39.1345 41.2386 38.9261 40.9318C38.7216 40.625 38.4716 40.3674 38.1761 40.1591C37.8845 39.947 37.5606 39.7879 37.2045 39.6818C36.8485 39.5758 36.4773 39.5227 36.0909 39.5227C35.3864 39.5227 34.7481 39.7008 34.1761 40.0568C33.608 40.4129 33.1553 40.9375 32.8182 41.6307C32.4848 42.3239 32.3182 43.1742 32.3182 44.1818C32.3182 45.1894 32.4848 46.0398 32.8182 46.733C33.1553 47.4261 33.608 47.9508 34.1761 48.3068C34.7481 48.6629 35.3864 48.8409 36.0909 48.8409C36.4773 48.8409 36.8485 48.7879 37.2045 48.6818C37.5606 48.5758 37.8845 48.4186 38.1761 48.2102C38.4716 47.9981 38.7216 47.7386 38.9261 47.4318C39.1345 47.1212 39.2803 46.7652 39.3636 46.3636H40.7727C40.6667 46.9583 40.4735 47.4905 40.1932 47.9602C39.9129 48.4299 39.5644 48.8295 39.1477 49.1591C38.7311 49.4848 38.2633 49.733 37.7443 49.9034C37.2292 50.0739 36.678 50.1591 36.0909 50.1591C35.0985 50.1591 34.2159 49.9167 33.4432 49.4318C32.6705 48.947 32.0625 48.2576 31.6193 47.3636C31.1761 46.4697 30.9545 45.4091 30.9545 44.1818C30.9545 42.9545 31.1761 41.8939 31.6193 41C32.0625 40.1061 32.6705 39.4167 33.4432 38.9318C34.2159 38.447 35.0985 38.2045 36.0909 38.2045C36.678 38.2045 37.2292 38.2898 37.7443 38.4602C38.2633 38.6307 38.7311 38.8807 39.1477 39.2102C39.5644 39.536 39.9129 39.9337 40.1932 40.4034C40.4735 40.8693 40.6667 41.4015 40.7727 42ZM44.2088 38.3636V50H42.8679V38.3636H44.2088ZM50.3239 50.1818C49.483 50.1818 48.7576 49.9962 48.1477 49.625C47.5417 49.25 47.0739 48.7273 46.7443 48.0568C46.4186 47.3826 46.2557 46.5985 46.2557 45.7045C46.2557 44.8106 46.4186 44.0227 46.7443 43.3409C47.0739 42.6553 47.5322 42.1212 48.1193 41.7386C48.7102 41.3523 49.3996 41.1591 50.1875 41.1591C50.642 41.1591 51.0909 41.2348 51.5341 41.3864C51.9773 41.5379 52.3807 41.7841 52.7443 42.125C53.108 42.4621 53.3977 42.9091 53.6136 43.4659C53.8295 44.0227 53.9375 44.7083 53.9375 45.5227V46.0909H47.2102V44.9318H52.5739C52.5739 44.4394 52.4754 44 52.2784 43.6136C52.0852 43.2273 51.8087 42.9223 51.4489 42.6989C51.0928 42.4754 50.6723 42.3636 50.1875 42.3636C49.6534 42.3636 49.1913 42.4962 48.8011 42.7614C48.4148 43.0227 48.1174 43.3636 47.9091 43.7841C47.7008 44.2045 47.5966 44.6553 47.5966 45.1364V45.9091C47.5966 46.5682 47.7102 47.1269 47.9375 47.5852C48.1686 48.0398 48.4886 48.3864 48.8977 48.625C49.3068 48.8598 49.7822 48.9773 50.3239 48.9773C50.6761 48.9773 50.9943 48.928 51.2784 48.8295C51.5663 48.7273 51.8144 48.5758 52.0227 48.375C52.2311 48.1705 52.392 47.9167 52.5057 47.6136L53.8011 47.9773C53.6648 48.4167 53.4356 48.803 53.1136 49.1364C52.7917 49.4659 52.3939 49.7235 51.9205 49.9091C51.447 50.0909 50.9148 50.1818 50.3239 50.1818ZM58.5455 50.2045C57.9924 50.2045 57.4905 50.1004 57.0398 49.892C56.589 49.6799 56.2311 49.375 55.9659 48.9773C55.7008 48.5758 55.5682 48.0909 55.5682 47.5227C55.5682 47.0227 55.6667 46.6174 55.8636 46.3068C56.0606 45.9924 56.3239 45.7462 56.6534 45.5682C56.983 45.3902 57.3466 45.2576 57.7443 45.1705C58.1458 45.0795 58.5492 45.0076 58.9545 44.9545C59.4848 44.8864 59.9148 44.8352 60.2443 44.8011C60.5777 44.7633 60.8201 44.7008 60.9716 44.6136C61.1269 44.5265 61.2045 44.375 61.2045 44.1591V44.1136C61.2045 43.553 61.0511 43.1174 60.7443 42.8068C60.4413 42.4962 59.9811 42.3409 59.3636 42.3409C58.7235 42.3409 58.2216 42.4811 57.858 42.7614C57.4943 43.0417 57.2386 43.3409 57.0909 43.6591L55.8182 43.2045C56.0455 42.6742 56.3485 42.2614 56.7273 41.9659C57.1098 41.6667 57.5265 41.4583 57.9773 41.3409C58.4318 41.2197 58.8788 41.1591 59.3182 41.1591C59.5985 41.1591 59.9205 41.1932 60.2841 41.2614C60.6515 41.3258 61.0057 41.4602 61.3466 41.6648C61.6913 41.8693 61.9773 42.178 62.2045 42.5909C62.4318 43.0038 62.5455 43.5568 62.5455 44.25V50H61.2045V48.8182H61.1364C61.0455 49.0076 60.8939 49.2102 60.6818 49.4261C60.4697 49.642 60.1875 49.8258 59.8352 49.9773C59.483 50.1288 59.053 50.2045 58.5455 50.2045ZM58.75 49C59.2803 49 59.7273 48.8958 60.0909 48.6875C60.4583 48.4792 60.7348 48.2102 60.9205 47.8807C61.1098 47.5511 61.2045 47.2045 61.2045 46.8409V45.6136C61.1477 45.6818 61.0227 45.7443 60.8295 45.8011C60.6402 45.8542 60.4205 45.9015 60.1705 45.9432C59.9242 45.9811 59.6837 46.0152 59.4489 46.0455C59.2178 46.072 59.0303 46.0947 58.8864 46.1136C58.5379 46.1591 58.2121 46.233 57.9091 46.3352C57.6098 46.4337 57.3674 46.5833 57.1818 46.7841C57 46.9811 56.9091 47.25 56.9091 47.5909C56.9091 48.0568 57.0814 48.4091 57.4261 48.6477C57.7746 48.8826 58.2159 49 58.75 49ZM64.9929 50V41.2727H66.2884V42.5909H66.3793C66.5384 42.1591 66.8262 41.8087 67.2429 41.5398C67.6596 41.2708 68.1293 41.1364 68.652 41.1364C68.7505 41.1364 68.8736 41.1383 69.0213 41.142C69.169 41.1458 69.2808 41.1515 69.3565 41.1591V42.5227C69.3111 42.5114 69.2069 42.4943 69.044 42.4716C68.8849 42.4451 68.7164 42.4318 68.5384 42.4318C68.1141 42.4318 67.7353 42.5208 67.402 42.6989C67.0724 42.8731 66.8111 43.1155 66.6179 43.4261C66.4285 43.733 66.3338 44.0833 66.3338 44.4773V50H64.9929ZM82.5824 41.2727L79.3551 50H77.9915L74.7642 41.2727H76.2188L78.6278 48.2273H78.7188L81.1278 41.2727H82.5824ZM86.6548 50.2045C86.1018 50.2045 85.5999 50.1004 85.1491 49.892C84.6984 49.6799 84.3404 49.375 84.0753 48.9773C83.8101 48.5758 83.6776 48.0909 83.6776 47.5227C83.6776 47.0227 83.776 46.6174 83.973 46.3068C84.17 45.9924 84.4332 45.7462 84.7628 45.5682C85.0923 45.3902 85.456 45.2576 85.8537 45.1705C86.2552 45.0795 86.6586 45.0076 87.0639 44.9545C87.5942 44.8864 88.0241 44.8352 88.3537 44.8011C88.687 44.7633 88.9295 44.7008 89.081 44.6136C89.2363 44.5265 89.3139 44.375 89.3139 44.1591V44.1136C89.3139 43.553 89.1605 43.1174 88.8537 42.8068C88.5507 42.4962 88.0904 42.3409 87.473 42.3409C86.8329 42.3409 86.331 42.4811 85.9673 42.7614C85.6037 43.0417 85.348 43.3409 85.2003 43.6591L83.9276 43.2045C84.1548 42.6742 84.4579 42.2614 84.8366 41.9659C85.2192 41.6667 85.6359 41.4583 86.0866 41.3409C86.5412 41.2197 86.9882 41.1591 87.4276 41.1591C87.7079 41.1591 88.0298 41.1932 88.3935 41.2614C88.7609 41.3258 89.1151 41.4602 89.456 41.6648C89.8007 41.8693 90.0866 42.178 90.3139 42.5909C90.5412 43.0038 90.6548 43.5568 90.6548 44.25V50H89.3139V48.8182H89.2457C89.1548 49.0076 89.0033 49.2102 88.7912 49.4261C88.5791 49.642 88.2969 49.8258 87.9446 49.9773C87.5923 50.1288 87.1624 50.2045 86.6548 50.2045ZM86.8594 49C87.3897 49 87.8366 48.8958 88.2003 48.6875C88.5677 48.4792 88.8442 48.2102 89.0298 47.8807C89.2192 47.5511 89.3139 47.2045 89.3139 46.8409V45.6136C89.2571 45.6818 89.1321 45.7443 88.9389 45.8011C88.7495 45.8542 88.5298 45.9015 88.2798 45.9432C88.0336 45.9811 87.7931 46.0152 87.5582 46.0455C87.3272 46.072 87.1397 46.0947 86.9957 46.1136C86.6473 46.1591 86.3215 46.233 86.0185 46.3352C85.7192 46.4337 85.4768 46.5833 85.2912 46.7841C85.1094 46.9811 85.0185 47.25 85.0185 47.5909C85.0185 48.0568 85.1908 48.4091 85.5355 48.6477C85.884 48.8826 86.3253 49 86.8594 49ZM94.4432 38.3636V50H93.1023V38.3636H94.4432ZM102.399 46.4318V41.2727H103.74V50H102.399V48.5227H102.308C102.104 48.9659 101.786 49.3428 101.354 49.6534C100.922 49.9602 100.376 50.1136 99.7173 50.1136C99.1719 50.1136 98.687 49.9943 98.2628 49.7557C97.8385 49.5133 97.5052 49.1496 97.2628 48.6648C97.0204 48.1761 96.8991 47.5606 96.8991 46.8182V41.2727H98.2401V46.7273C98.2401 47.3636 98.4181 47.8712 98.7741 48.25C99.134 48.6288 99.5923 48.8182 100.149 48.8182C100.482 48.8182 100.821 48.733 101.166 48.5625C101.515 48.392 101.806 48.1307 102.041 47.7784C102.28 47.4261 102.399 46.9773 102.399 46.4318ZM109.855 50.1818C109.014 50.1818 108.289 49.9962 107.679 49.625C107.073 49.25 106.605 48.7273 106.276 48.0568C105.95 47.3826 105.787 46.5985 105.787 45.7045C105.787 44.8106 105.95 44.0227 106.276 43.3409C106.605 42.6553 107.063 42.1212 107.651 41.7386C108.241 41.3523 108.931 41.1591 109.719 41.1591C110.173 41.1591 110.622 41.2348 111.065 41.3864C111.509 41.5379 111.912 41.7841 112.276 42.125C112.639 42.4621 112.929 42.9091 113.145 43.4659C113.361 44.0227 113.469 44.7083 113.469 45.5227V46.0909H106.741V44.9318H112.105C112.105 44.4394 112.007 44 111.81 43.6136C111.616 43.2273 111.34 42.9223 110.98 42.6989C110.624 42.4754 110.204 42.3636 109.719 42.3636C109.185 42.3636 108.723 42.4962 108.332 42.7614C107.946 43.0227 107.649 43.3636 107.44 43.7841C107.232 44.2045 107.128 44.6553 107.128 45.1364V45.9091C107.128 46.5682 107.241 47.1269 107.469 47.5852C107.7 48.0398 108.02 48.3864 108.429 48.625C108.838 48.8598 109.313 48.9773 109.855 48.9773C110.207 48.9773 110.526 48.928 110.81 48.8295C111.098 48.7273 111.346 48.5758 111.554 48.375C111.762 48.1705 111.923 47.9167 112.037 47.6136L113.332 47.9773C113.196 48.4167 112.967 48.803 112.645 49.1364C112.323 49.4659 111.925 49.7235 111.452 49.9091C110.978 50.0909 110.446 50.1818 109.855 50.1818Z" fill="white" fill-opacity="0.95"/>
<mask id="path-4-inside-2_2053_24591" fill="white">
<path d="M325 0H650V88H325V0Z"/>
</mask>
<path d="M325 0H650V88H325V0Z" fill="#1A1A1A"/>
<path d="M649 0V88H651V0H649Z" fill="#707070" mask="url(#path-4-inside-2_2053_24591)"/>
<path d="M356.409 50V38.3636H360.477C361.288 38.3636 361.956 38.5038 362.483 38.7841C363.009 39.0606 363.402 39.4337 363.659 39.9034C363.917 40.3693 364.045 40.8864 364.045 41.4545C364.045 41.9545 363.956 42.3674 363.778 42.6932C363.604 43.0189 363.373 43.2765 363.085 43.4659C362.801 43.6553 362.492 43.7955 362.159 43.8864V44C362.515 44.0227 362.873 44.1477 363.233 44.375C363.593 44.6023 363.894 44.928 364.136 45.3523C364.379 45.7765 364.5 46.2955 364.5 46.9091C364.5 47.4924 364.367 48.017 364.102 48.483C363.837 48.9489 363.419 49.3182 362.847 49.5909C362.275 49.8636 361.53 50 360.614 50H356.409ZM357.818 48.75H360.614C361.534 48.75 362.188 48.572 362.574 48.2159C362.964 47.8561 363.159 47.4205 363.159 46.9091C363.159 46.5152 363.059 46.1515 362.858 45.8182C362.657 45.4811 362.371 45.2121 362 45.0114C361.629 44.8068 361.189 44.7045 360.682 44.7045H357.818V48.75ZM357.818 43.4773H360.432C360.856 43.4773 361.239 43.3939 361.58 43.2273C361.924 43.0606 362.197 42.8258 362.398 42.5227C362.602 42.2197 362.705 41.8636 362.705 41.4545C362.705 40.9432 362.527 40.5095 362.17 40.1534C361.814 39.7936 361.25 39.6136 360.477 39.6136H357.818V43.4773ZM372.134 46.4318V41.2727H373.474V50H372.134V48.5227H372.043C371.838 48.9659 371.52 49.3428 371.088 49.6534C370.656 49.9602 370.111 50.1136 369.452 50.1136C368.906 50.1136 368.421 49.9943 367.997 49.7557C367.573 49.5133 367.24 49.1496 366.997 48.6648C366.755 48.1761 366.634 47.5606 366.634 46.8182V41.2727H367.974V46.7273C367.974 47.3636 368.152 47.8712 368.509 48.25C368.868 48.6288 369.327 48.8182 369.884 48.8182C370.217 48.8182 370.556 48.733 370.901 48.5625C371.249 48.392 371.541 48.1307 371.776 47.7784C372.014 47.4261 372.134 46.9773 372.134 46.4318ZM379.726 41.2727V42.4091H375.203V41.2727H379.726ZM376.521 39.1818H377.862V47.5C377.862 47.8788 377.917 48.1629 378.027 48.3523C378.141 48.5379 378.285 48.6629 378.459 48.7273C378.637 48.7879 378.824 48.8182 379.021 48.8182C379.169 48.8182 379.29 48.8106 379.385 48.7955C379.48 48.7765 379.555 48.7614 379.612 48.75L379.885 49.9545C379.794 49.9886 379.667 50.0227 379.504 50.0568C379.341 50.0947 379.135 50.1136 378.885 50.1136C378.506 50.1136 378.135 50.0322 377.771 49.8693C377.411 49.7064 377.112 49.4583 376.874 49.125C376.639 48.7917 376.521 48.3712 376.521 47.8636V39.1818ZM385.538 41.2727V42.4091H381.016V41.2727H385.538ZM382.334 39.1818H383.675V47.5C383.675 47.8788 383.73 48.1629 383.839 48.3523C383.953 48.5379 384.097 48.6629 384.271 48.7273C384.449 48.7879 384.637 48.8182 384.834 48.8182C384.982 48.8182 385.103 48.8106 385.197 48.7955C385.292 48.7765 385.368 48.7614 385.425 48.75L385.697 49.9545C385.607 49.9886 385.48 50.0227 385.317 50.0568C385.154 50.0947 384.947 50.1136 384.697 50.1136C384.319 50.1136 383.947 50.0322 383.584 49.8693C383.224 49.7064 382.925 49.4583 382.686 49.125C382.451 48.7917 382.334 48.3712 382.334 47.8636V39.1818ZM391.007 50.1818C390.219 50.1818 389.528 49.9943 388.933 49.6193C388.342 49.2443 387.88 48.7197 387.547 48.0455C387.217 47.3712 387.053 46.5833 387.053 45.6818C387.053 44.7727 387.217 43.9792 387.547 43.3011C387.88 42.6231 388.342 42.0966 388.933 41.7216C389.528 41.3466 390.219 41.1591 391.007 41.1591C391.795 41.1591 392.484 41.3466 393.075 41.7216C393.67 42.0966 394.132 42.6231 394.462 43.3011C394.795 43.9792 394.962 44.7727 394.962 45.6818C394.962 46.5833 394.795 47.3712 394.462 48.0455C394.132 48.7197 393.67 49.2443 393.075 49.6193C392.484 49.9943 391.795 50.1818 391.007 50.1818ZM391.007 48.9773C391.606 48.9773 392.098 48.8239 392.484 48.517C392.871 48.2102 393.157 47.8068 393.342 47.3068C393.528 46.8068 393.621 46.2652 393.621 45.6818C393.621 45.0985 393.528 44.5549 393.342 44.0511C393.157 43.5473 392.871 43.1402 392.484 42.8295C392.098 42.5189 391.606 42.3636 391.007 42.3636C390.409 42.3636 389.916 42.5189 389.53 42.8295C389.143 43.1402 388.857 43.5473 388.672 44.0511C388.486 44.5549 388.393 45.0985 388.393 45.6818C388.393 46.2652 388.486 46.8068 388.672 47.3068C388.857 47.8068 389.143 48.2102 389.53 48.517C389.916 48.8239 390.409 48.9773 391.007 48.9773ZM398.349 44.75V50H397.009V41.2727H398.304V42.6364H398.418C398.622 42.1932 398.933 41.8371 399.349 41.5682C399.766 41.2955 400.304 41.1591 400.963 41.1591C401.554 41.1591 402.071 41.2803 402.514 41.5227C402.957 41.7614 403.302 42.125 403.548 42.6136C403.795 43.0985 403.918 43.7121 403.918 44.4545V50H402.577V44.5455C402.577 43.8598 402.399 43.3258 402.043 42.9432C401.687 42.5568 401.198 42.3636 400.577 42.3636C400.149 42.3636 399.766 42.4564 399.429 42.642C399.096 42.8277 398.832 43.0985 398.639 43.4545C398.446 43.8106 398.349 44.2424 398.349 44.75Z" fill="white" fill-opacity="0.95"/>
<mask id="path-7-inside-3_2053_24591" fill="white">
<path d="M650 0H975V88H650V0Z"/>
</mask>
<path d="M650 0H975V88H650V0Z" fill="#1A1A1A"/>
<path d="M974 0V88H976V0H974Z" fill="#707070" mask="url(#path-7-inside-3_2053_24591)"/>
<path d="M681.409 50V38.3636H685.477C686.288 38.3636 686.956 38.5038 687.483 38.7841C688.009 39.0606 688.402 39.4337 688.659 39.9034C688.917 40.3693 689.045 40.8864 689.045 41.4545C689.045 41.9545 688.956 42.3674 688.778 42.6932C688.604 43.0189 688.373 43.2765 688.085 43.4659C687.801 43.6553 687.492 43.7955 687.159 43.8864V44C687.515 44.0227 687.873 44.1477 688.233 44.375C688.593 44.6023 688.894 44.928 689.136 45.3523C689.379 45.7765 689.5 46.2955 689.5 46.9091C689.5 47.4924 689.367 48.017 689.102 48.483C688.837 48.9489 688.419 49.3182 687.847 49.5909C687.275 49.8636 686.53 50 685.614 50H681.409ZM682.818 48.75H685.614C686.534 48.75 687.188 48.572 687.574 48.2159C687.964 47.8561 688.159 47.4205 688.159 46.9091C688.159 46.5152 688.059 46.1515 687.858 45.8182C687.657 45.4811 687.371 45.2121 687 45.0114C686.629 44.8068 686.189 44.7045 685.682 44.7045H682.818V48.75ZM682.818 43.4773H685.432C685.856 43.4773 686.239 43.3939 686.58 43.2273C686.924 43.0606 687.197 42.8258 687.398 42.5227C687.602 42.2197 687.705 41.8636 687.705 41.4545C687.705 40.9432 687.527 40.5095 687.17 40.1534C686.814 39.7936 686.25 39.6136 685.477 39.6136H682.818V43.4773ZM697.134 46.4318V41.2727H698.474V50H697.134V48.5227H697.043C696.838 48.9659 696.52 49.3428 696.088 49.6534C695.656 49.9602 695.111 50.1136 694.452 50.1136C693.906 50.1136 693.421 49.9943 692.997 49.7557C692.573 49.5133 692.24 49.1496 691.997 48.6648C691.755 48.1761 691.634 47.5606 691.634 46.8182V41.2727H692.974V46.7273C692.974 47.3636 693.152 47.8712 693.509 48.25C693.868 48.6288 694.327 48.8182 694.884 48.8182C695.217 48.8182 695.556 48.733 695.901 48.5625C696.249 48.392 696.541 48.1307 696.776 47.7784C697.014 47.4261 697.134 46.9773 697.134 46.4318ZM704.726 41.2727V42.4091H700.203V41.2727H704.726ZM701.521 39.1818H702.862V47.5C702.862 47.8788 702.917 48.1629 703.027 48.3523C703.141 48.5379 703.285 48.6629 703.459 48.7273C703.637 48.7879 703.824 48.8182 704.021 48.8182C704.169 48.8182 704.29 48.8106 704.385 48.7955C704.48 48.7765 704.555 48.7614 704.612 48.75L704.885 49.9545C704.794 49.9886 704.667 50.0227 704.504 50.0568C704.341 50.0947 704.135 50.1136 703.885 50.1136C703.506 50.1136 703.135 50.0322 702.771 49.8693C702.411 49.7064 702.112 49.4583 701.874 49.125C701.639 48.7917 701.521 48.3712 701.521 47.8636V39.1818ZM710.538 41.2727V42.4091H706.016V41.2727H710.538ZM707.334 39.1818H708.675V47.5C708.675 47.8788 708.73 48.1629 708.839 48.3523C708.953 48.5379 709.097 48.6629 709.271 48.7273C709.449 48.7879 709.637 48.8182 709.834 48.8182C709.982 48.8182 710.103 48.8106 710.197 48.7955C710.292 48.7765 710.368 48.7614 710.425 48.75L710.697 49.9545C710.607 49.9886 710.48 50.0227 710.317 50.0568C710.154 50.0947 709.947 50.1136 709.697 50.1136C709.319 50.1136 708.947 50.0322 708.584 49.8693C708.224 49.7064 707.925 49.4583 707.686 49.125C707.451 48.7917 707.334 48.3712 707.334 47.8636V39.1818ZM716.007 50.1818C715.219 50.1818 714.528 49.9943 713.933 49.6193C713.342 49.2443 712.88 48.7197 712.547 48.0455C712.217 47.3712 712.053 46.5833 712.053 45.6818C712.053 44.7727 712.217 43.9792 712.547 43.3011C712.88 42.6231 713.342 42.0966 713.933 41.7216C714.528 41.3466 715.219 41.1591 716.007 41.1591C716.795 41.1591 717.484 41.3466 718.075 41.7216C718.67 42.0966 719.132 42.6231 719.462 43.3011C719.795 43.9792 719.962 44.7727 719.962 45.6818C719.962 46.5833 719.795 47.3712 719.462 48.0455C719.132 48.7197 718.67 49.2443 718.075 49.6193C717.484 49.9943 716.795 50.1818 716.007 50.1818ZM716.007 48.9773C716.606 48.9773 717.098 48.8239 717.484 48.517C717.871 48.2102 718.157 47.8068 718.342 47.3068C718.528 46.8068 718.621 46.2652 718.621 45.6818C718.621 45.0985 718.528 44.5549 718.342 44.0511C718.157 43.5473 717.871 43.1402 717.484 42.8295C717.098 42.5189 716.606 42.3636 716.007 42.3636C715.409 42.3636 714.916 42.5189 714.53 42.8295C714.143 43.1402 713.857 43.5473 713.672 44.0511C713.486 44.5549 713.393 45.0985 713.393 45.6818C713.393 46.2652 713.486 46.8068 713.672 47.3068C713.857 47.8068 714.143 48.2102 714.53 48.517C714.916 48.8239 715.409 48.9773 716.007 48.9773ZM723.349 44.75V50H722.009V41.2727H723.304V42.6364H723.418C723.622 42.1932 723.933 41.8371 724.349 41.5682C724.766 41.2955 725.304 41.1591 725.963 41.1591C726.554 41.1591 727.071 41.2803 727.514 41.5227C727.957 41.7614 728.302 42.125 728.548 42.6136C728.795 43.0985 728.918 43.7121 728.918 44.4545V50H727.577V44.5455C727.577 43.8598 727.399 43.3258 727.043 42.9432C726.687 42.5568 726.198 42.3636 725.577 42.3636C725.149 42.3636 724.766 42.4564 724.429 42.642C724.096 42.8277 723.832 43.0985 723.639 43.4545C723.446 43.8106 723.349 44.2424 723.349 44.75Z" fill="white" fill-opacity="0.95"/>
<mask id="path-10-inside-4_2053_24591" fill="white">
<path d="M975 0H1300V88H975V0Z"/>
</mask>
<path d="M975 0H1300V88H975V0Z" fill="#1A1A1A"/>
<path d="M1299 0V88H1301V0H1299Z" fill="#707070" mask="url(#path-10-inside-4_2053_24591)"/>
<path d="M1017 47.8636C1016.54 47.8636 1016.12 47.7519 1015.74 47.5284C1015.37 47.3011 1015.06 46.9981 1014.84 46.6193C1014.61 46.2405 1014.5 45.822 1014.5 45.3636C1014.5 44.9015 1014.61 44.483 1014.84 44.108C1015.06 43.7292 1015.37 43.428 1015.74 43.2045C1016.12 42.9773 1016.54 42.8636 1017 42.8636C1017.46 42.8636 1017.88 42.9773 1018.26 43.2045C1018.63 43.428 1018.94 43.7292 1019.16 44.108C1019.39 44.483 1019.5 44.9015 1019.5 45.3636C1019.5 45.822 1019.39 46.2405 1019.16 46.6193C1018.94 46.9981 1018.63 47.3011 1018.26 47.5284C1017.88 47.7519 1017.46 47.8636 1017 47.8636ZM1030.41 50V38.3636H1034.48C1035.29 38.3636 1035.96 38.5038 1036.48 38.7841C1037.01 39.0606 1037.4 39.4337 1037.66 39.9034C1037.92 40.3693 1038.05 40.8864 1038.05 41.4545C1038.05 41.9545 1037.96 42.3674 1037.78 42.6932C1037.6 43.0189 1037.37 43.2765 1037.09 43.4659C1036.8 43.6553 1036.49 43.7955 1036.16 43.8864V44C1036.52 44.0227 1036.87 44.1477 1037.23 44.375C1037.59 44.6023 1037.89 44.928 1038.14 45.3523C1038.38 45.7765 1038.5 46.2955 1038.5 46.9091C1038.5 47.4924 1038.37 48.017 1038.1 48.483C1037.84 48.9489 1037.42 49.3182 1036.85 49.5909C1036.27 49.8636 1035.53 50 1034.61 50H1030.41ZM1031.82 48.75H1034.61C1035.53 48.75 1036.19 48.572 1036.57 48.2159C1036.96 47.8561 1037.16 47.4205 1037.16 46.9091C1037.16 46.5152 1037.06 46.1515 1036.86 45.8182C1036.66 45.4811 1036.37 45.2121 1036 45.0114C1035.63 44.8068 1035.19 44.7045 1034.68 44.7045H1031.82V48.75ZM1031.82 43.4773H1034.43C1034.86 43.4773 1035.24 43.3939 1035.58 43.2273C1035.92 43.0606 1036.2 42.8258 1036.4 42.5227C1036.6 42.2197 1036.7 41.8636 1036.7 41.4545C1036.7 40.9432 1036.53 40.5095 1036.17 40.1534C1035.81 39.7936 1035.25 39.6136 1034.48 39.6136H1031.82V43.4773ZM1046.13 46.4318V41.2727H1047.47V50H1046.13V48.5227H1046.04C1045.84 48.9659 1045.52 49.3428 1045.09 49.6534C1044.66 49.9602 1044.11 50.1136 1043.45 50.1136C1042.91 50.1136 1042.42 49.9943 1042 49.7557C1041.57 49.5133 1041.24 49.1496 1041 48.6648C1040.75 48.1761 1040.63 47.5606 1040.63 46.8182V41.2727H1041.97V46.7273C1041.97 47.3636 1042.15 47.8712 1042.51 48.25C1042.87 48.6288 1043.33 48.8182 1043.88 48.8182C1044.22 48.8182 1044.56 48.733 1044.9 48.5625C1045.25 48.392 1045.54 48.1307 1045.78 47.7784C1046.01 47.4261 1046.13 46.9773 1046.13 46.4318ZM1053.73 41.2727V42.4091H1049.2V41.2727H1053.73ZM1050.52 39.1818H1051.86V47.5C1051.86 47.8788 1051.92 48.1629 1052.03 48.3523C1052.14 48.5379 1052.28 48.6629 1052.46 48.7273C1052.64 48.7879 1052.82 48.8182 1053.02 48.8182C1053.17 48.8182 1053.29 48.8106 1053.38 48.7955C1053.48 48.7765 1053.56 48.7614 1053.61 48.75L1053.88 49.9545C1053.79 49.9886 1053.67 50.0227 1053.5 50.0568C1053.34 50.0947 1053.13 50.1136 1052.88 50.1136C1052.51 50.1136 1052.13 50.0322 1051.77 49.8693C1051.41 49.7064 1051.11 49.4583 1050.87 49.125C1050.64 48.7917 1050.52 48.3712 1050.52 47.8636V39.1818ZM1059.54 41.2727V42.4091H1055.02V41.2727H1059.54ZM1056.33 39.1818H1057.67V47.5C1057.67 47.8788 1057.73 48.1629 1057.84 48.3523C1057.95 48.5379 1058.1 48.6629 1058.27 48.7273C1058.45 48.7879 1058.64 48.8182 1058.83 48.8182C1058.98 48.8182 1059.1 48.8106 1059.2 48.7955C1059.29 48.7765 1059.37 48.7614 1059.42 48.75L1059.7 49.9545C1059.61 49.9886 1059.48 50.0227 1059.32 50.0568C1059.15 50.0947 1058.95 50.1136 1058.7 50.1136C1058.32 50.1136 1057.95 50.0322 1057.58 49.8693C1057.22 49.7064 1056.92 49.4583 1056.69 49.125C1056.45 48.7917 1056.33 48.3712 1056.33 47.8636V39.1818ZM1065.01 50.1818C1064.22 50.1818 1063.53 49.9943 1062.93 49.6193C1062.34 49.2443 1061.88 48.7197 1061.55 48.0455C1061.22 47.3712 1061.05 46.5833 1061.05 45.6818C1061.05 44.7727 1061.22 43.9792 1061.55 43.3011C1061.88 42.6231 1062.34 42.0966 1062.93 41.7216C1063.53 41.3466 1064.22 41.1591 1065.01 41.1591C1065.79 41.1591 1066.48 41.3466 1067.08 41.7216C1067.67 42.0966 1068.13 42.6231 1068.46 43.3011C1068.79 43.9792 1068.96 44.7727 1068.96 45.6818C1068.96 46.5833 1068.79 47.3712 1068.46 48.0455C1068.13 48.7197 1067.67 49.2443 1067.08 49.6193C1066.48 49.9943 1065.79 50.1818 1065.01 50.1818ZM1065.01 48.9773C1065.61 48.9773 1066.1 48.8239 1066.48 48.517C1066.87 48.2102 1067.16 47.8068 1067.34 47.3068C1067.53 46.8068 1067.62 46.2652 1067.62 45.6818C1067.62 45.0985 1067.53 44.5549 1067.34 44.0511C1067.16 43.5473 1066.87 43.1402 1066.48 42.8295C1066.1 42.5189 1065.61 42.3636 1065.01 42.3636C1064.41 42.3636 1063.92 42.5189 1063.53 42.8295C1063.14 43.1402 1062.86 43.5473 1062.67 44.0511C1062.49 44.5549 1062.39 45.0985 1062.39 45.6818C1062.39 46.2652 1062.49 46.8068 1062.67 47.3068C1062.86 47.8068 1063.14 48.2102 1063.53 48.517C1063.92 48.8239 1064.41 48.9773 1065.01 48.9773ZM1072.35 44.75V50H1071.01V41.2727H1072.3V42.6364H1072.42C1072.62 42.1932 1072.93 41.8371 1073.35 41.5682C1073.77 41.2955 1074.3 41.1591 1074.96 41.1591C1075.55 41.1591 1076.07 41.2803 1076.51 41.5227C1076.96 41.7614 1077.3 42.125 1077.55 42.6136C1077.79 43.0985 1077.92 43.7121 1077.92 44.4545V50H1076.58V44.5455C1076.58 43.8598 1076.4 43.3258 1076.04 42.9432C1075.69 42.5568 1075.2 42.3636 1074.58 42.3636C1074.15 42.3636 1073.77 42.4564 1073.43 42.642C1073.1 42.8277 1072.83 43.0985 1072.64 43.4545C1072.45 43.8106 1072.35 44.2424 1072.35 44.75ZM1082.37 48.4091L1082.28 49.0227C1082.21 49.4545 1082.11 49.9167 1081.98 50.4091C1081.85 50.9015 1081.72 51.3655 1081.58 51.8011C1081.44 52.2367 1081.32 52.5833 1081.23 52.8409H1080.21C1080.26 52.5985 1080.32 52.2784 1080.4 51.8807C1080.48 51.483 1080.56 51.0379 1080.64 50.5455C1080.72 50.0568 1080.79 49.5568 1080.85 49.0455L1080.91 48.4091H1082.37ZM1098.9 42H1097.49C1097.41 41.5947 1097.26 41.2386 1097.05 40.9318C1096.85 40.625 1096.6 40.3674 1096.3 40.1591C1096.01 39.947 1095.69 39.7879 1095.33 39.6818C1094.97 39.5758 1094.6 39.5227 1094.22 39.5227C1093.51 39.5227 1092.87 39.7008 1092.3 40.0568C1091.73 40.4129 1091.28 40.9375 1090.94 41.6307C1090.61 42.3239 1090.44 43.1742 1090.44 44.1818C1090.44 45.1894 1090.61 46.0398 1090.94 46.733C1091.28 47.4261 1091.73 47.9508 1092.3 48.3068C1092.87 48.6629 1093.51 48.8409 1094.22 48.8409C1094.6 48.8409 1094.97 48.7879 1095.33 48.6818C1095.69 48.5758 1096.01 48.4186 1096.3 48.2102C1096.6 47.9981 1096.85 47.7386 1097.05 47.4318C1097.26 47.1212 1097.41 46.7652 1097.49 46.3636H1098.9C1098.79 46.9583 1098.6 47.4905 1098.32 47.9602C1098.04 48.4299 1097.69 48.8295 1097.27 49.1591C1096.86 49.4848 1096.39 49.733 1095.87 49.9034C1095.35 50.0739 1094.8 50.1591 1094.22 50.1591C1093.22 50.1591 1092.34 49.9167 1091.57 49.4318C1090.8 48.947 1090.19 48.2576 1089.74 47.3636C1089.3 46.4697 1089.08 45.4091 1089.08 44.1818C1089.08 42.9545 1089.3 41.8939 1089.74 41C1090.19 40.1061 1090.8 39.4167 1091.57 38.9318C1092.34 38.447 1093.22 38.2045 1094.22 38.2045C1094.8 38.2045 1095.35 38.2898 1095.87 38.4602C1096.39 38.6307 1096.86 38.8807 1097.27 39.2102C1097.69 39.536 1098.04 39.9337 1098.32 40.4034C1098.6 40.8693 1098.79 41.4015 1098.9 42ZM1102.33 38.3636V50H1100.99V38.3636H1102.33ZM1108.45 50.1818C1107.61 50.1818 1106.88 49.9962 1106.27 49.625C1105.67 49.25 1105.2 48.7273 1104.87 48.0568C1104.54 47.3826 1104.38 46.5985 1104.38 45.7045C1104.38 44.8106 1104.54 44.0227 1104.87 43.3409C1105.2 42.6553 1105.66 42.1212 1106.24 41.7386C1106.84 41.3523 1107.52 41.1591 1108.31 41.1591C1108.77 41.1591 1109.22 41.2348 1109.66 41.3864C1110.1 41.5379 1110.51 41.7841 1110.87 42.125C1111.23 42.4621 1111.52 42.9091 1111.74 43.4659C1111.95 44.0227 1112.06 44.7083 1112.06 45.5227V46.0909H1105.34V44.9318H1110.7C1110.7 44.4394 1110.6 44 1110.4 43.6136C1110.21 43.2273 1109.93 42.9223 1109.57 42.6989C1109.22 42.4754 1108.8 42.3636 1108.31 42.3636C1107.78 42.3636 1107.32 42.4962 1106.93 42.7614C1106.54 43.0227 1106.24 43.3636 1106.03 43.7841C1105.83 44.2045 1105.72 44.6553 1105.72 45.1364V45.9091C1105.72 46.5682 1105.84 47.1269 1106.06 47.5852C1106.29 48.0398 1106.61 48.3864 1107.02 48.625C1107.43 48.8598 1107.91 48.9773 1108.45 48.9773C1108.8 48.9773 1109.12 48.928 1109.4 48.8295C1109.69 48.7273 1109.94 48.5758 1110.15 48.375C1110.36 48.1705 1110.52 47.9167 1110.63 47.6136L1111.93 47.9773C1111.79 48.4167 1111.56 48.803 1111.24 49.1364C1110.92 49.4659 1110.52 49.7235 1110.05 49.9091C1109.57 50.0909 1109.04 50.1818 1108.45 50.1818ZM1116.67 50.2045C1116.12 50.2045 1115.62 50.1004 1115.16 49.892C1114.71 49.6799 1114.36 49.375 1114.09 48.9773C1113.83 48.5758 1113.69 48.0909 1113.69 47.5227C1113.69 47.0227 1113.79 46.6174 1113.99 46.3068C1114.19 45.9924 1114.45 45.7462 1114.78 45.5682C1115.11 45.3902 1115.47 45.2576 1115.87 45.1705C1116.27 45.0795 1116.67 45.0076 1117.08 44.9545C1117.61 44.8864 1118.04 44.8352 1118.37 44.8011C1118.7 44.7633 1118.95 44.7008 1119.1 44.6136C1119.25 44.5265 1119.33 44.375 1119.33 44.1591V44.1136C1119.33 43.553 1119.18 43.1174 1118.87 42.8068C1118.57 42.4962 1118.11 42.3409 1117.49 42.3409C1116.85 42.3409 1116.35 42.4811 1115.98 42.7614C1115.62 43.0417 1115.36 43.3409 1115.22 43.6591L1113.94 43.2045C1114.17 42.6742 1114.47 42.2614 1114.85 41.9659C1115.23 41.6667 1115.65 41.4583 1116.1 41.3409C1116.56 41.2197 1117 41.1591 1117.44 41.1591C1117.72 41.1591 1118.05 41.1932 1118.41 41.2614C1118.78 41.3258 1119.13 41.4602 1119.47 41.6648C1119.82 41.8693 1120.1 42.178 1120.33 42.5909C1120.56 43.0038 1120.67 43.5568 1120.67 44.25V50H1119.33V48.8182H1119.26C1119.17 49.0076 1119.02 49.2102 1118.81 49.4261C1118.59 49.642 1118.31 49.8258 1117.96 49.9773C1117.61 50.1288 1117.18 50.2045 1116.67 50.2045ZM1116.88 49C1117.41 49 1117.85 48.8958 1118.22 48.6875C1118.58 48.4792 1118.86 48.2102 1119.05 47.8807C1119.23 47.5511 1119.33 47.2045 1119.33 46.8409V45.6136C1119.27 45.6818 1119.15 45.7443 1118.95 45.8011C1118.77 45.8542 1118.55 45.9015 1118.3 45.9432C1118.05 45.9811 1117.81 46.0152 1117.57 46.0455C1117.34 46.072 1117.16 46.0947 1117.01 46.1136C1116.66 46.1591 1116.34 46.233 1116.03 46.3352C1115.73 46.4337 1115.49 46.5833 1115.31 46.7841C1115.13 46.9811 1115.03 47.25 1115.03 47.5909C1115.03 48.0568 1115.21 48.4091 1115.55 48.6477C1115.9 48.8826 1116.34 49 1116.88 49ZM1123.12 50V41.2727H1124.41V42.5909H1124.5C1124.66 42.1591 1124.95 41.8087 1125.37 41.5398C1125.78 41.2708 1126.25 41.1364 1126.78 41.1364C1126.88 41.1364 1127 41.1383 1127.15 41.142C1127.29 41.1458 1127.41 41.1515 1127.48 41.1591V42.5227C1127.44 42.5114 1127.33 42.4943 1127.17 42.4716C1127.01 42.4451 1126.84 42.4318 1126.66 42.4318C1126.24 42.4318 1125.86 42.5208 1125.53 42.6989C1125.2 42.8731 1124.94 43.1155 1124.74 43.4261C1124.55 43.733 1124.46 44.0833 1124.46 44.4773V50H1123.12ZM1140.71 41.2727L1137.48 50H1136.12L1132.89 41.2727H1134.34L1136.75 48.2273H1136.84L1139.25 41.2727H1140.71ZM1144.78 50.2045C1144.23 50.2045 1143.72 50.1004 1143.27 49.892C1142.82 49.6799 1142.47 49.375 1142.2 48.9773C1141.94 48.5758 1141.8 48.0909 1141.8 47.5227C1141.8 47.0227 1141.9 46.6174 1142.1 46.3068C1142.29 45.9924 1142.56 45.7462 1142.89 45.5682C1143.22 45.3902 1143.58 45.2576 1143.98 45.1705C1144.38 45.0795 1144.78 45.0076 1145.19 44.9545C1145.72 44.8864 1146.15 44.8352 1146.48 44.8011C1146.81 44.7633 1147.05 44.7008 1147.21 44.6136C1147.36 44.5265 1147.44 44.375 1147.44 44.1591V44.1136C1147.44 43.553 1147.29 43.1174 1146.98 42.8068C1146.68 42.4962 1146.22 42.3409 1145.6 42.3409C1144.96 42.3409 1144.46 42.4811 1144.09 42.7614C1143.73 43.0417 1143.47 43.3409 1143.33 43.6591L1142.05 43.2045C1142.28 42.6742 1142.58 42.2614 1142.96 41.9659C1143.34 41.6667 1143.76 41.4583 1144.21 41.3409C1144.67 41.2197 1145.11 41.1591 1145.55 41.1591C1145.83 41.1591 1146.15 41.1932 1146.52 41.2614C1146.89 41.3258 1147.24 41.4602 1147.58 41.6648C1147.93 41.8693 1148.21 42.178 1148.44 42.5909C1148.67 43.0038 1148.78 43.5568 1148.78 44.25V50H1147.44V48.8182H1147.37C1147.28 49.0076 1147.13 49.2102 1146.92 49.4261C1146.7 49.642 1146.42 49.8258 1146.07 49.9773C1145.72 50.1288 1145.29 50.2045 1144.78 50.2045ZM1144.98 49C1145.51 49 1145.96 48.8958 1146.33 48.6875C1146.69 48.4792 1146.97 48.2102 1147.15 47.8807C1147.34 47.5511 1147.44 47.2045 1147.44 46.8409V45.6136C1147.38 45.6818 1147.26 45.7443 1147.06 45.8011C1146.87 45.8542 1146.65 45.9015 1146.4 45.9432C1146.16 45.9811 1145.92 46.0152 1145.68 46.0455C1145.45 46.072 1145.26 46.0947 1145.12 46.1136C1144.77 46.1591 1144.45 46.233 1144.14 46.3352C1143.84 46.4337 1143.6 46.5833 1143.42 46.7841C1143.23 46.9811 1143.14 47.25 1143.14 47.5909C1143.14 48.0568 1143.32 48.4091 1143.66 48.6477C1144.01 48.8826 1144.45 49 1144.98 49ZM1152.57 38.3636V50H1151.23V38.3636H1152.57ZM1160.52 46.4318V41.2727H1161.87V50H1160.52V48.5227H1160.43C1160.23 48.9659 1159.91 49.3428 1159.48 49.6534C1159.05 49.9602 1158.5 50.1136 1157.84 50.1136C1157.3 50.1136 1156.81 49.9943 1156.39 49.7557C1155.96 49.5133 1155.63 49.1496 1155.39 48.6648C1155.15 48.1761 1155.02 47.5606 1155.02 46.8182V41.2727H1156.37V46.7273C1156.37 47.3636 1156.54 47.8712 1156.9 48.25C1157.26 48.6288 1157.72 48.8182 1158.27 48.8182C1158.61 48.8182 1158.95 48.733 1159.29 48.5625C1159.64 48.392 1159.93 48.1307 1160.17 47.7784C1160.4 47.4261 1160.52 46.9773 1160.52 46.4318ZM1167.98 50.1818C1167.14 50.1818 1166.41 49.9962 1165.8 49.625C1165.2 49.25 1164.73 48.7273 1164.4 48.0568C1164.07 47.3826 1163.91 46.5985 1163.91 45.7045C1163.91 44.8106 1164.07 44.0227 1164.4 43.3409C1164.73 42.6553 1165.19 42.1212 1165.78 41.7386C1166.37 41.3523 1167.06 41.1591 1167.84 41.1591C1168.3 41.1591 1168.75 41.2348 1169.19 41.3864C1169.63 41.5379 1170.04 41.7841 1170.4 42.125C1170.76 42.4621 1171.05 42.9091 1171.27 43.4659C1171.49 44.0227 1171.59 44.7083 1171.59 45.5227V46.0909H1164.87V44.9318H1170.23C1170.23 44.4394 1170.13 44 1169.93 43.6136C1169.74 43.2273 1169.46 42.9223 1169.11 42.6989C1168.75 42.4754 1168.33 42.3636 1167.84 42.3636C1167.31 42.3636 1166.85 42.4962 1166.46 42.7614C1166.07 43.0227 1165.77 43.3636 1165.57 43.7841C1165.36 44.2045 1165.25 44.6553 1165.25 45.1364V45.9091C1165.25 46.5682 1165.37 47.1269 1165.59 47.5852C1165.82 48.0398 1166.14 48.3864 1166.55 48.625C1166.96 48.8598 1167.44 48.9773 1167.98 48.9773C1168.33 48.9773 1168.65 48.928 1168.93 48.8295C1169.22 48.7273 1169.47 48.5758 1169.68 48.375C1169.89 48.1705 1170.05 47.9167 1170.16 47.6136L1171.46 47.9773C1171.32 48.4167 1171.09 48.803 1170.77 49.1364C1170.45 49.4659 1170.05 49.7235 1169.58 49.9091C1169.1 50.0909 1168.57 50.1818 1167.98 50.1818Z" fill="white" fill-opacity="0.95"/>
</svg>
