<svg width="1150" height="308" viewBox="0 0 1150 308" fill="none" xmlns="http://www.w3.org/2000/svg">
<rect width="1150" height="308" rx="24" fill="#262626"/>
<rect x="40" y="100" width="32" height="32" rx="16" fill="#DA0087"/>
<path d="M57.755 111.318V121.5H55.6023V113.362H55.5426L53.2109 114.823V112.914L55.7315 111.318H57.755Z" fill="white" fill-opacity="0.95"/>
<path d="M41.233 159V148.818H42.4659V157.906H47.1989V159H41.233ZM51.196 159.179C50.7121 159.179 50.273 159.088 49.8786 158.906C49.4841 158.72 49.1709 158.453 48.9389 158.105C48.7069 157.754 48.5909 157.33 48.5909 156.832C48.5909 156.395 48.6771 156.04 48.8494 155.768C49.0218 155.493 49.2521 155.278 49.5405 155.122C49.8288 154.966 50.147 154.85 50.495 154.774C50.8464 154.695 51.1993 154.632 51.554 154.585C52.018 154.526 52.3942 154.481 52.6825 154.451C52.9742 154.418 53.1863 154.363 53.3189 154.287C53.4548 154.211 53.5227 154.078 53.5227 153.889V153.849C53.5227 153.359 53.3885 152.978 53.12 152.706C52.8549 152.434 52.4522 152.298 51.9119 152.298C51.3518 152.298 50.9126 152.421 50.5945 152.666C50.2763 152.911 50.0526 153.173 49.9233 153.452L48.8097 153.054C49.0085 152.59 49.2737 152.229 49.6051 151.97C49.9399 151.708 50.3045 151.526 50.6989 151.423C51.0966 151.317 51.4877 151.264 51.8722 151.264C52.1174 151.264 52.3991 151.294 52.7173 151.354C53.0388 151.41 53.3487 151.528 53.647 151.707C53.9486 151.886 54.1989 152.156 54.3977 152.517C54.5966 152.878 54.696 153.362 54.696 153.969V159H53.5227V157.966H53.4631C53.3835 158.132 53.2509 158.309 53.0653 158.498C52.8797 158.687 52.6328 158.848 52.3246 158.98C52.0163 159.113 51.6402 159.179 51.196 159.179ZM51.375 158.125C51.839 158.125 52.2301 158.034 52.5483 157.852C52.8698 157.669 53.1117 157.434 53.2741 157.146C53.4399 156.857 53.5227 156.554 53.5227 156.236V155.162C53.473 155.222 53.3636 155.276 53.1946 155.326C53.0289 155.372 52.8366 155.414 52.6179 155.45C52.4025 155.483 52.192 155.513 51.9865 155.54C51.7843 155.563 51.6203 155.583 51.4943 155.599C51.1894 155.639 50.9044 155.704 50.6392 155.793C50.3774 155.879 50.1652 156.01 50.0028 156.186C49.8438 156.358 49.7642 156.594 49.7642 156.892C49.7642 157.3 49.915 157.608 50.2166 157.817C50.5215 158.022 50.9077 158.125 51.375 158.125ZM56.9966 159V148.818H58.1699V152.577H58.2694C58.3555 152.444 58.4748 152.275 58.6273 152.07C58.7831 151.861 59.0051 151.675 59.2935 151.513C59.5852 151.347 59.9796 151.264 60.4767 151.264C61.1197 151.264 61.6865 151.425 62.177 151.746C62.6676 152.068 63.0504 152.524 63.3255 153.114C63.6006 153.704 63.7381 154.4 63.7381 155.202C63.7381 156.01 63.6006 156.711 63.3255 157.305C63.0504 157.895 62.6692 158.352 62.182 158.677C61.6948 158.998 61.133 159.159 60.4966 159.159C60.0061 159.159 59.6133 159.078 59.3184 158.915C59.0234 158.75 58.7963 158.562 58.6373 158.354C58.4782 158.142 58.3555 157.966 58.2694 157.827H58.1301V159H56.9966ZM58.15 155.182C58.15 155.759 58.2346 156.267 58.4036 156.708C58.5726 157.146 58.8195 157.489 59.1444 157.737C59.4692 157.982 59.8669 158.105 60.3375 158.105C60.8281 158.105 61.2374 157.976 61.5655 157.717C61.897 157.455 62.1455 157.104 62.3113 156.663C62.4803 156.219 62.5648 155.725 62.5648 155.182C62.5648 154.645 62.4819 154.161 62.3162 153.73C62.1538 153.296 61.9069 152.953 61.5755 152.701C61.2473 152.446 60.8347 152.318 60.3375 152.318C59.8603 152.318 59.4592 152.439 59.1344 152.681C58.8096 152.92 58.5643 153.254 58.3986 153.685C58.2329 154.113 58.15 154.612 58.15 155.182ZM68.7346 159.159C67.9988 159.159 67.3641 158.997 66.8304 158.672C66.3001 158.344 65.8908 157.886 65.6025 157.3C65.3174 156.71 65.1749 156.024 65.1749 155.241C65.1749 154.459 65.3174 153.77 65.6025 153.173C65.8908 152.573 66.2918 152.106 66.8056 151.771C67.3226 151.433 67.9258 151.264 68.6152 151.264C69.013 151.264 69.4057 151.33 69.7935 151.463C70.1813 151.596 70.5343 151.811 70.8525 152.109C71.1706 152.404 71.4242 152.795 71.6131 153.283C71.802 153.77 71.8965 154.37 71.8965 155.082V155.58H66.0101V154.565H70.7033C70.7033 154.134 70.6171 153.75 70.4448 153.412C70.2757 153.074 70.0338 152.807 69.7189 152.612C69.4074 152.416 69.0395 152.318 68.6152 152.318C68.1479 152.318 67.7435 152.434 67.4022 152.666C67.0641 152.895 66.8039 153.193 66.6216 153.561C66.4393 153.929 66.3482 154.323 66.3482 154.744V155.42C66.3482 155.997 66.4476 156.486 66.6465 156.887C66.8487 157.285 67.1287 157.588 67.4867 157.797C67.8446 158.002 68.2606 158.105 68.7346 158.105C69.0428 158.105 69.3212 158.062 69.5698 157.976C69.8217 157.886 70.0388 157.754 70.2211 157.578C70.4034 157.399 70.5442 157.177 70.6436 156.912L71.7772 157.23C71.6578 157.615 71.4573 157.953 71.1756 158.244C70.8939 158.533 70.5459 158.758 70.1316 158.92C69.7173 159.08 69.2516 159.159 68.7346 159.159ZM74.8546 148.818V159H73.6813V148.818H74.8546ZM80.5433 149.912V148.818H88.1797V149.912H84.978V159H83.745V149.912H80.5433ZM92.0178 159.159C91.282 159.159 90.6473 158.997 90.1136 158.672C89.5833 158.344 89.174 157.886 88.8857 157.3C88.6006 156.71 88.4581 156.024 88.4581 155.241C88.4581 154.459 88.6006 153.77 88.8857 153.173C89.174 152.573 89.575 152.106 90.0888 151.771C90.6058 151.433 91.209 151.264 91.8984 151.264C92.2962 151.264 92.6889 151.33 93.0767 151.463C93.4645 151.596 93.8175 151.811 94.1357 152.109C94.4538 152.404 94.7074 152.795 94.8963 153.283C95.0852 153.77 95.1797 154.37 95.1797 155.082V155.58H89.2933V154.565H93.9865C93.9865 154.134 93.9003 153.75 93.728 153.412C93.5589 153.074 93.317 152.807 93.0021 152.612C92.6906 152.416 92.3227 152.318 91.8984 152.318C91.4311 152.318 91.0268 152.434 90.6854 152.666C90.3473 152.895 90.0871 153.193 89.9048 153.561C89.7225 153.929 89.6314 154.323 89.6314 154.744V155.42C89.6314 155.997 89.7308 156.486 89.9297 156.887C90.1319 157.285 90.4119 157.588 90.7699 157.797C91.1278 158.002 91.5438 158.105 92.0178 158.105C92.326 158.105 92.6044 158.062 92.853 157.976C93.1049 157.886 93.322 157.754 93.5043 157.578C93.6866 157.399 93.8274 157.177 93.9268 156.912L95.0604 157.23C94.9411 157.615 94.7405 157.953 94.4588 158.244C94.1771 158.533 93.8291 158.758 93.4148 158.92C93.0005 159.08 92.5348 159.159 92.0178 159.159ZM97.6344 151.364L99.464 154.486L101.294 151.364H102.646L100.18 155.182L102.646 159H101.294L99.464 156.037L97.6344 159H96.2821L98.7083 155.182L96.2821 151.364H97.6344ZM107.641 151.364V152.358H103.684V151.364H107.641ZM104.837 149.534H106.01V156.812C106.01 157.144 106.058 157.393 106.154 157.558C106.254 157.721 106.38 157.83 106.532 157.886C106.688 157.939 106.852 157.966 107.025 157.966C107.154 157.966 107.26 157.959 107.343 157.946C107.426 157.929 107.492 157.916 107.542 157.906L107.78 158.96C107.701 158.99 107.59 159.02 107.447 159.05C107.305 159.083 107.124 159.099 106.905 159.099C106.574 159.099 106.249 159.028 105.931 158.886C105.616 158.743 105.354 158.526 105.145 158.234C104.94 157.943 104.837 157.575 104.837 157.131V149.534Z" fill="white" fill-opacity="0.95"/>
<path d="M263.618 159L268.172 149.991V149.912H262.922V148.818H269.445V149.972L264.911 159H263.618ZM274.343 159.139C273.76 159.139 273.235 159.023 272.767 158.791C272.3 158.559 271.925 158.241 271.644 157.837C271.362 157.432 271.208 156.972 271.181 156.455H272.374C272.421 156.915 272.63 157.296 273.001 157.598C273.375 157.896 273.823 158.045 274.343 158.045C274.761 158.045 275.132 157.948 275.457 157.752C275.785 157.557 276.042 157.288 276.227 156.947C276.416 156.602 276.511 156.213 276.511 155.778C276.511 155.334 276.413 154.938 276.218 154.59C276.025 154.239 275.76 153.962 275.422 153.76C275.084 153.558 274.698 153.455 274.264 153.452C273.952 153.448 273.632 153.496 273.304 153.596C272.976 153.692 272.706 153.816 272.494 153.969L271.34 153.83L271.957 148.818H277.247V149.912H272.991L272.633 152.915H272.693C272.901 152.749 273.163 152.612 273.478 152.502C273.793 152.393 274.121 152.338 274.463 152.338C275.086 152.338 275.641 152.487 276.128 152.786C276.619 153.08 277.003 153.485 277.281 153.999C277.563 154.512 277.704 155.099 277.704 155.759C277.704 156.408 277.558 156.988 277.267 157.499C276.978 158.006 276.58 158.407 276.073 158.702C275.566 158.993 274.99 159.139 274.343 159.139ZM284.869 157.091V156.554C284.869 156.183 284.946 155.843 285.098 155.535C285.254 155.223 285.479 154.975 285.774 154.789C286.072 154.6 286.434 154.506 286.858 154.506C287.289 154.506 287.65 154.6 287.942 154.789C288.233 154.975 288.454 155.223 288.603 155.535C288.752 155.843 288.827 156.183 288.827 156.554V157.091C288.827 157.462 288.75 157.804 288.598 158.115C288.449 158.423 288.227 158.672 287.932 158.861C287.64 159.046 287.282 159.139 286.858 159.139C286.427 159.139 286.064 159.046 285.769 158.861C285.474 158.672 285.25 158.423 285.098 158.115C284.946 157.804 284.869 157.462 284.869 157.091ZM285.884 156.554V157.091C285.884 157.399 285.956 157.676 286.102 157.921C286.248 158.163 286.5 158.284 286.858 158.284C287.206 158.284 287.451 158.163 287.594 157.921C287.74 157.676 287.812 157.399 287.812 157.091V156.554C287.812 156.246 287.743 155.971 287.604 155.729C287.464 155.483 287.216 155.361 286.858 155.361C286.51 155.361 286.26 155.483 286.107 155.729C285.958 155.971 285.884 156.246 285.884 156.554ZM279.798 151.264V150.727C279.798 150.356 279.875 150.016 280.027 149.708C280.183 149.397 280.408 149.148 280.703 148.962C281.001 148.773 281.363 148.679 281.787 148.679C282.218 148.679 282.579 148.773 282.871 148.962C283.162 149.148 283.383 149.397 283.532 149.708C283.681 150.016 283.756 150.356 283.756 150.727V151.264C283.756 151.635 283.679 151.977 283.527 152.288C283.378 152.597 283.156 152.845 282.861 153.034C282.569 153.22 282.211 153.312 281.787 153.312C281.356 153.312 280.993 153.22 280.698 153.034C280.403 152.845 280.179 152.597 280.027 152.288C279.875 151.977 279.798 151.635 279.798 151.264ZM280.812 150.727V151.264C280.812 151.572 280.885 151.849 281.031 152.094C281.177 152.336 281.429 152.457 281.787 152.457C282.135 152.457 282.38 152.336 282.523 152.094C282.669 151.849 282.741 151.572 282.741 151.264V150.727C282.741 150.419 282.672 150.144 282.533 149.902C282.393 149.657 282.145 149.534 281.787 149.534C281.439 149.534 281.189 149.657 281.036 149.902C280.887 150.144 280.812 150.419 280.812 150.727ZM280.176 159L287.176 148.818H288.31L281.31 159H280.176Z" fill="white" fill-opacity="0.95"/>
<rect x="40" y="172" width="250" height="8" rx="4" fill="#8F8F8F"/>
<rect x="40" y="172" width="187.5" height="8" rx="4" fill="#3492EB"/>
<path d="M49.8239 197.909C49.8239 198.983 49.63 199.911 49.2422 200.693C48.8544 201.475 48.3224 202.079 47.6463 202.503C46.9702 202.927 46.1979 203.139 45.3295 203.139C44.4612 203.139 43.6889 202.927 43.0128 202.503C42.3366 202.079 41.8047 201.475 41.4169 200.693C41.0291 199.911 40.8352 198.983 40.8352 197.909C40.8352 196.835 41.0291 195.907 41.4169 195.125C41.8047 194.343 42.3366 193.74 43.0128 193.315C43.6889 192.891 44.4612 192.679 45.3295 192.679C46.1979 192.679 46.9702 192.891 47.6463 193.315C48.3224 193.74 48.8544 194.343 49.2422 195.125C49.63 195.907 49.8239 196.835 49.8239 197.909ZM48.6307 197.909C48.6307 197.027 48.4832 196.283 48.1882 195.677C47.8965 195.07 47.5005 194.611 47 194.3C46.5028 193.988 45.946 193.832 45.3295 193.832C44.7131 193.832 44.1546 193.988 43.6541 194.3C43.157 194.611 42.7609 195.07 42.4659 195.677C42.1742 196.283 42.0284 197.027 42.0284 197.909C42.0284 198.791 42.1742 199.535 42.4659 200.141C42.7609 200.748 43.157 201.207 43.6541 201.518C44.1546 201.83 44.7131 201.986 45.3295 201.986C45.946 201.986 46.5028 201.83 47 201.518C47.5005 201.207 47.8965 200.748 48.1882 200.141C48.4832 199.535 48.6307 198.791 48.6307 197.909ZM51.7379 205.864V195.364H52.8714V196.577H53.0107C53.0968 196.444 53.2161 196.275 53.3686 196.07C53.5244 195.861 53.7464 195.675 54.0348 195.513C54.3265 195.347 54.7209 195.264 55.218 195.264C55.861 195.264 56.4278 195.425 56.9183 195.746C57.4089 196.068 57.7917 196.524 58.0668 197.114C58.3419 197.704 58.4794 198.4 58.4794 199.202C58.4794 200.01 58.3419 200.711 58.0668 201.305C57.7917 201.895 57.4105 202.352 56.9233 202.677C56.4361 202.998 55.8743 203.159 55.2379 203.159C54.7474 203.159 54.3546 203.078 54.0597 202.915C53.7647 202.75 53.5376 202.562 53.3786 202.354C53.2195 202.142 53.0968 201.966 53.0107 201.827H52.9112V205.864H51.7379ZM52.8913 199.182C52.8913 199.759 52.9759 200.267 53.1449 200.708C53.3139 201.146 53.5608 201.489 53.8857 201.737C54.2105 201.982 54.6082 202.105 55.0788 202.105C55.5694 202.105 55.9787 201.976 56.3068 201.717C56.6383 201.455 56.8868 201.104 57.0526 200.663C57.2216 200.219 57.3061 199.725 57.3061 199.182C57.3061 198.645 57.2232 198.161 57.0575 197.73C56.8951 197.296 56.6482 196.953 56.3168 196.701C55.9886 196.446 55.576 196.318 55.0788 196.318C54.6016 196.318 54.2005 196.439 53.8757 196.681C53.5509 196.92 53.3056 197.254 53.1399 197.685C52.9742 198.113 52.8913 198.612 52.8913 199.182ZM63.5902 195.364V196.358H59.6328V195.364H63.5902ZM60.7862 193.534H61.9595V200.812C61.9595 201.144 62.0076 201.393 62.1037 201.558C62.2031 201.721 62.3291 201.83 62.4815 201.886C62.6373 201.939 62.8014 201.966 62.9737 201.966C63.103 201.966 63.209 201.959 63.2919 201.946C63.3748 201.929 63.4411 201.916 63.4908 201.906L63.7294 202.96C63.6499 202.99 63.5388 203.02 63.3963 203.05C63.2538 203.083 63.0732 203.099 62.8544 203.099C62.523 203.099 62.1982 203.028 61.88 202.886C61.5651 202.743 61.3033 202.526 61.0945 202.234C60.889 201.943 60.7862 201.575 60.7862 201.131V193.534ZM65.3551 203V195.364H66.5284V203H65.3551ZM65.9517 194.091C65.723 194.091 65.5258 194.013 65.3601 193.857C65.1977 193.701 65.1165 193.514 65.1165 193.295C65.1165 193.077 65.1977 192.889 65.3601 192.734C65.5258 192.578 65.723 192.5 65.9517 192.5C66.1804 192.5 66.3759 192.578 66.5384 192.734C66.7041 192.889 66.7869 193.077 66.7869 193.295C66.7869 193.514 66.7041 193.701 66.5384 193.857C66.3759 194.013 66.1804 194.091 65.9517 194.091ZM71.7797 203.159C71.0903 203.159 70.4854 202.995 69.965 202.667C69.448 202.339 69.0436 201.88 68.752 201.29C68.4636 200.7 68.3194 200.01 68.3194 199.222C68.3194 198.426 68.4636 197.732 68.752 197.138C69.0436 196.545 69.448 196.085 69.965 195.756C70.4854 195.428 71.0903 195.264 71.7797 195.264C72.469 195.264 73.0723 195.428 73.5893 195.756C74.1097 196.085 74.514 196.545 74.8024 197.138C75.094 197.732 75.2399 198.426 75.2399 199.222C75.2399 200.01 75.094 200.7 74.8024 201.29C74.514 201.88 74.1097 202.339 73.5893 202.667C73.0723 202.995 72.469 203.159 71.7797 203.159ZM71.7797 202.105C72.3033 202.105 72.7342 201.971 73.0723 201.702C73.4103 201.434 73.6606 201.081 73.823 200.643C73.9854 200.206 74.0666 199.732 74.0666 199.222C74.0666 198.711 73.9854 198.236 73.823 197.795C73.6606 197.354 73.4103 196.998 73.0723 196.726C72.7342 196.454 72.3033 196.318 71.7797 196.318C71.256 196.318 70.8251 196.454 70.487 196.726C70.149 196.998 69.8987 197.354 69.7363 197.795C69.5739 198.236 69.4927 198.711 69.4927 199.222C69.4927 199.732 69.5739 200.206 69.7363 200.643C69.8987 201.081 70.149 201.434 70.487 201.702C70.8251 201.971 71.256 202.105 71.7797 202.105ZM78.2042 198.406V203H77.0309V195.364H78.1644V196.557H78.2638C78.4428 196.169 78.7146 195.857 79.0792 195.622C79.4438 195.384 79.9144 195.264 80.4911 195.264C81.0082 195.264 81.4606 195.37 81.8484 195.582C82.2362 195.791 82.5378 196.109 82.7532 196.537C82.9686 196.961 83.0763 197.498 83.0763 198.148V203H81.9031V198.227C81.9031 197.627 81.7473 197.16 81.4357 196.825C81.1242 196.487 80.6966 196.318 80.1531 196.318C79.7785 196.318 79.4438 196.399 79.1488 196.562C78.8571 196.724 78.6268 196.961 78.4577 197.273C78.2887 197.584 78.2042 197.962 78.2042 198.406ZM87.4675 203.179C86.9836 203.179 86.5444 203.088 86.15 202.906C85.7556 202.72 85.4424 202.453 85.2104 202.105C84.9784 201.754 84.8624 201.33 84.8624 200.832C84.8624 200.395 84.9486 200.04 85.1209 199.768C85.2933 199.493 85.5236 199.278 85.812 199.122C86.1003 198.966 86.4185 198.85 86.7665 198.774C87.1178 198.695 87.4708 198.632 87.8255 198.585C88.2895 198.526 88.6657 198.481 88.954 198.451C89.2457 198.418 89.4578 198.363 89.5904 198.287C89.7263 198.211 89.7942 198.078 89.7942 197.889V197.849C89.7942 197.359 89.66 196.978 89.3915 196.706C89.1264 196.434 88.7237 196.298 88.1834 196.298C87.6233 196.298 87.1841 196.421 86.8659 196.666C86.5478 196.911 86.324 197.173 86.1948 197.452L85.0811 197.054C85.28 196.59 85.5452 196.229 85.8766 195.97C86.2114 195.708 86.5759 195.526 86.9703 195.423C87.3681 195.317 87.7592 195.264 88.1436 195.264C88.3889 195.264 88.6706 195.294 88.9888 195.354C89.3103 195.41 89.6202 195.528 89.9185 195.707C90.2201 195.886 90.4703 196.156 90.6692 196.517C90.8681 196.878 90.9675 197.362 90.9675 197.969V203H89.7942V201.966H89.7346C89.655 202.132 89.5224 202.309 89.3368 202.498C89.1512 202.687 88.9043 202.848 88.5961 202.98C88.2878 203.113 87.9116 203.179 87.4675 203.179ZM87.6465 202.125C88.1105 202.125 88.5016 202.034 88.8198 201.852C89.1413 201.669 89.3832 201.434 89.5456 201.146C89.7114 200.857 89.7942 200.554 89.7942 200.236V199.162C89.7445 199.222 89.6351 199.276 89.4661 199.326C89.3004 199.372 89.1081 199.414 88.8894 199.45C88.6739 199.483 88.4635 199.513 88.258 199.54C88.0558 199.563 87.8917 199.583 87.7658 199.599C87.4609 199.639 87.1758 199.704 86.9107 199.793C86.6489 199.879 86.4367 200.01 86.2743 200.186C86.1152 200.358 86.0357 200.594 86.0357 200.892C86.0357 201.3 86.1865 201.608 86.4881 201.817C86.793 202.022 87.1792 202.125 87.6465 202.125ZM94.2823 192.818V203H93.109V192.818H94.2823ZM100.528 203V192.818H101.761V197.352H107.19V192.818H108.423V203H107.19V198.446H101.761V203H100.528ZM113.934 203.159C113.198 203.159 112.563 202.997 112.03 202.672C111.499 202.344 111.09 201.886 110.802 201.3C110.517 200.71 110.374 200.024 110.374 199.241C110.374 198.459 110.517 197.77 110.802 197.173C111.09 196.573 111.491 196.106 112.005 195.771C112.522 195.433 113.125 195.264 113.814 195.264C114.212 195.264 114.605 195.33 114.993 195.463C115.381 195.596 115.733 195.811 116.052 196.109C116.37 196.404 116.623 196.795 116.812 197.283C117.001 197.77 117.096 198.37 117.096 199.082V199.58H111.209V198.565H115.903C115.903 198.134 115.816 197.75 115.644 197.412C115.475 197.074 115.233 196.807 114.918 196.612C114.607 196.416 114.239 196.318 113.814 196.318C113.347 196.318 112.943 196.434 112.601 196.666C112.263 196.895 112.003 197.193 111.821 197.561C111.639 197.929 111.547 198.323 111.547 198.744V199.42C111.547 199.997 111.647 200.486 111.846 200.887C112.048 201.285 112.328 201.588 112.686 201.797C113.044 202.002 113.46 202.105 113.934 202.105C114.242 202.105 114.52 202.062 114.769 201.976C115.021 201.886 115.238 201.754 115.42 201.578C115.603 201.399 115.743 201.177 115.843 200.912L116.976 201.23C116.857 201.615 116.657 201.953 116.375 202.244C116.093 202.533 115.745 202.758 115.331 202.92C114.916 203.08 114.451 203.159 113.934 203.159ZM120.054 192.818V203H118.881V192.818H120.054ZM122.203 205.864V195.364H123.336V196.577H123.475C123.562 196.444 123.681 196.275 123.833 196.07C123.989 195.861 124.211 195.675 124.5 195.513C124.791 195.347 125.186 195.264 125.683 195.264C126.326 195.264 126.893 195.425 127.383 195.746C127.874 196.068 128.257 196.524 128.532 197.114C128.807 197.704 128.944 198.4 128.944 199.202C128.944 200.01 128.807 200.711 128.532 201.305C128.257 201.895 127.875 202.352 127.388 202.677C126.901 202.998 126.339 203.159 125.703 203.159C125.212 203.159 124.819 203.078 124.525 202.915C124.23 202.75 124.002 202.562 123.843 202.354C123.684 202.142 123.562 201.966 123.475 201.827H123.376V205.864H122.203ZM123.356 199.182C123.356 199.759 123.441 200.267 123.61 200.708C123.779 201.146 124.026 201.489 124.35 201.737C124.675 201.982 125.073 202.105 125.544 202.105C126.034 202.105 126.444 201.976 126.772 201.717C127.103 201.455 127.352 201.104 127.517 200.663C127.686 200.219 127.771 199.725 127.771 199.182C127.771 198.645 127.688 198.161 127.522 197.73C127.36 197.296 127.113 196.953 126.782 196.701C126.453 196.446 126.041 196.318 125.544 196.318C125.066 196.318 124.665 196.439 124.341 196.681C124.016 196.92 123.77 197.254 123.605 197.685C123.439 198.113 123.356 198.612 123.356 199.182ZM133.936 203.159C133.2 203.159 132.565 202.997 132.032 202.672C131.501 202.344 131.092 201.886 130.804 201.3C130.519 200.71 130.376 200.024 130.376 199.241C130.376 198.459 130.519 197.77 130.804 197.173C131.092 196.573 131.493 196.106 132.007 195.771C132.524 195.433 133.127 195.264 133.816 195.264C134.214 195.264 134.607 195.33 134.995 195.463C135.382 195.596 135.735 195.811 136.054 196.109C136.372 196.404 136.625 196.795 136.814 197.283C137.003 197.77 137.098 198.37 137.098 199.082V199.58H131.211V198.565H135.904C135.904 198.134 135.818 197.75 135.646 197.412C135.477 197.074 135.235 196.807 134.92 196.612C134.609 196.416 134.241 196.318 133.816 196.318C133.349 196.318 132.945 196.434 132.603 196.666C132.265 196.895 132.005 197.193 131.823 197.561C131.641 197.929 131.549 198.323 131.549 198.744V199.42C131.549 199.997 131.649 200.486 131.848 200.887C132.05 201.285 132.33 201.588 132.688 201.797C133.046 202.002 133.462 202.105 133.936 202.105C134.244 202.105 134.522 202.062 134.771 201.976C135.023 201.886 135.24 201.754 135.422 201.578C135.605 201.399 135.745 201.177 135.845 200.912L136.978 201.23C136.859 201.615 136.658 201.953 136.377 202.244C136.095 202.533 135.747 202.758 135.333 202.92C134.918 203.08 134.453 203.159 133.936 203.159ZM138.882 203V195.364H140.016V196.517H140.096C140.235 196.139 140.487 195.833 140.851 195.597C141.216 195.362 141.627 195.244 142.084 195.244C142.17 195.244 142.278 195.246 142.407 195.249C142.537 195.253 142.634 195.258 142.701 195.264V196.457C142.661 196.447 142.57 196.433 142.427 196.413C142.288 196.389 142.141 196.378 141.985 196.378C141.614 196.378 141.282 196.456 140.99 196.612C140.702 196.764 140.473 196.976 140.304 197.248C140.139 197.516 140.056 197.823 140.056 198.168V203H138.882ZM151.35 195.364V196.358H147.393V195.364H151.35ZM148.546 193.534H149.719V200.812C149.719 201.144 149.767 201.393 149.863 201.558C149.963 201.721 150.089 201.83 150.241 201.886C150.397 201.939 150.561 201.966 150.733 201.966C150.863 201.966 150.969 201.959 151.052 201.946C151.135 201.929 151.201 201.916 151.251 201.906L151.489 202.96C151.41 202.99 151.299 203.02 151.156 203.05C151.014 203.083 150.833 203.099 150.614 203.099C150.283 203.099 149.958 203.028 149.64 202.886C149.325 202.743 149.063 202.526 148.854 202.234C148.649 201.943 148.546 201.575 148.546 201.131V193.534ZM156.235 203.159C155.499 203.159 154.864 202.997 154.33 202.672C153.8 202.344 153.391 201.886 153.102 201.3C152.817 200.71 152.675 200.024 152.675 199.241C152.675 198.459 152.817 197.77 153.102 197.173C153.391 196.573 153.792 196.106 154.306 195.771C154.823 195.433 155.426 195.264 156.115 195.264C156.513 195.264 156.906 195.33 157.294 195.463C157.681 195.596 158.034 195.811 158.352 196.109C158.671 196.404 158.924 196.795 159.113 197.283C159.302 197.77 159.396 198.37 159.396 199.082V199.58H153.51V198.565H158.203C158.203 198.134 158.117 197.75 157.945 197.412C157.776 197.074 157.534 196.807 157.219 196.612C156.907 196.416 156.539 196.318 156.115 196.318C155.648 196.318 155.244 196.434 154.902 196.666C154.564 196.895 154.304 197.193 154.122 197.561C153.939 197.929 153.848 198.323 153.848 198.744V199.42C153.848 199.997 153.948 200.486 154.146 200.887C154.349 201.285 154.629 201.588 154.987 201.797C155.345 202.002 155.761 202.105 156.235 202.105C156.543 202.105 156.821 202.062 157.07 201.976C157.322 201.886 157.539 201.754 157.721 201.578C157.903 201.399 158.044 201.177 158.144 200.912L159.277 201.23C159.158 201.615 158.957 201.953 158.676 202.244C158.394 202.533 158.046 202.758 157.632 202.92C157.217 203.08 156.752 203.159 156.235 203.159ZM161.851 195.364L163.681 198.486L165.51 195.364H166.863L164.397 199.182L166.863 203H165.51L163.681 200.037L161.851 203H160.499L162.925 199.182L160.499 195.364H161.851ZM171.858 195.364V196.358H167.9V195.364H171.858ZM169.054 193.534H170.227V200.812C170.227 201.144 170.275 201.393 170.371 201.558C170.471 201.721 170.597 201.83 170.749 201.886C170.905 201.939 171.069 201.966 171.241 201.966C171.371 201.966 171.477 201.959 171.559 201.946C171.642 201.929 171.709 201.916 171.758 201.906L171.997 202.96C171.917 202.99 171.806 203.02 171.664 203.05C171.521 203.083 171.341 203.099 171.122 203.099C170.791 203.099 170.466 203.028 170.148 202.886C169.833 202.743 169.571 202.526 169.362 202.234C169.157 201.943 169.054 201.575 169.054 201.131V193.534Z" fill="white" fill-opacity="0.7"/>
<rect x="450" y="100" width="32" height="32" rx="16" fill="#DA0087"/>
<path d="M462.325 121.5V119.949L465.95 116.593C466.258 116.295 466.516 116.026 466.725 115.788C466.937 115.549 467.098 115.315 467.207 115.087C467.317 114.855 467.371 114.604 467.371 114.336C467.371 114.038 467.304 113.781 467.168 113.565C467.032 113.347 466.846 113.179 466.611 113.063C466.375 112.944 466.109 112.884 465.81 112.884C465.499 112.884 465.227 112.947 464.995 113.073C464.763 113.199 464.584 113.38 464.458 113.615C464.332 113.85 464.269 114.13 464.269 114.455H462.226C462.226 113.789 462.377 113.211 462.678 112.72C462.98 112.23 463.402 111.85 463.946 111.582C464.49 111.313 465.116 111.179 465.825 111.179C466.554 111.179 467.189 111.308 467.729 111.567C468.273 111.822 468.696 112.177 468.997 112.631C469.299 113.085 469.45 113.605 469.45 114.192C469.45 114.576 469.373 114.956 469.221 115.33C469.072 115.705 468.805 116.121 468.42 116.578C468.036 117.032 467.494 117.577 466.795 118.214L465.308 119.67V119.74H469.584V121.5H462.325Z" fill="white" fill-opacity="0.95"/>
<path d="M451.233 160V149.818H452.466V158.906H457.199V160H451.233ZM461.196 160.179C460.712 160.179 460.273 160.088 459.879 159.906C459.484 159.72 459.171 159.453 458.939 159.105C458.707 158.754 458.591 158.33 458.591 157.832C458.591 157.395 458.677 157.04 458.849 156.768C459.022 156.493 459.252 156.278 459.54 156.122C459.829 155.966 460.147 155.85 460.495 155.774C460.846 155.695 461.199 155.632 461.554 155.585C462.018 155.526 462.394 155.481 462.683 155.451C462.974 155.418 463.186 155.363 463.319 155.287C463.455 155.211 463.523 155.078 463.523 154.889V154.849C463.523 154.359 463.388 153.978 463.12 153.706C462.855 153.434 462.452 153.298 461.912 153.298C461.352 153.298 460.913 153.421 460.594 153.666C460.276 153.911 460.053 154.173 459.923 154.452L458.81 154.054C459.009 153.59 459.274 153.229 459.605 152.97C459.94 152.708 460.304 152.526 460.699 152.423C461.097 152.317 461.488 152.264 461.872 152.264C462.117 152.264 462.399 152.294 462.717 152.354C463.039 152.41 463.349 152.528 463.647 152.707C463.949 152.886 464.199 153.156 464.398 153.517C464.597 153.878 464.696 154.362 464.696 154.969V160H463.523V158.966H463.463C463.384 159.132 463.251 159.309 463.065 159.498C462.88 159.687 462.633 159.848 462.325 159.98C462.016 160.113 461.64 160.179 461.196 160.179ZM461.375 159.125C461.839 159.125 462.23 159.034 462.548 158.852C462.87 158.669 463.112 158.434 463.274 158.146C463.44 157.857 463.523 157.554 463.523 157.236V156.162C463.473 156.222 463.364 156.276 463.195 156.326C463.029 156.372 462.837 156.414 462.618 156.45C462.402 156.483 462.192 156.513 461.987 156.54C461.784 156.563 461.62 156.583 461.494 156.599C461.189 156.639 460.904 156.704 460.639 156.793C460.377 156.879 460.165 157.01 460.003 157.186C459.844 157.358 459.764 157.594 459.764 157.892C459.764 158.3 459.915 158.608 460.217 158.817C460.522 159.022 460.908 159.125 461.375 159.125ZM466.997 160V149.818H468.17V153.577H468.269C468.356 153.444 468.475 153.275 468.627 153.07C468.783 152.861 469.005 152.675 469.294 152.513C469.585 152.347 469.98 152.264 470.477 152.264C471.12 152.264 471.686 152.425 472.177 152.746C472.668 153.068 473.05 153.524 473.325 154.114C473.601 154.704 473.738 155.4 473.738 156.202C473.738 157.01 473.601 157.711 473.325 158.305C473.05 158.895 472.669 159.352 472.182 159.677C471.695 159.998 471.133 160.159 470.497 160.159C470.006 160.159 469.613 160.078 469.318 159.915C469.023 159.75 468.796 159.562 468.637 159.354C468.478 159.142 468.356 158.966 468.269 158.827H468.13V160H466.997ZM468.15 156.182C468.15 156.759 468.235 157.267 468.404 157.708C468.573 158.146 468.82 158.489 469.144 158.737C469.469 158.982 469.867 159.105 470.338 159.105C470.828 159.105 471.237 158.976 471.566 158.717C471.897 158.455 472.146 158.104 472.311 157.663C472.48 157.219 472.565 156.725 472.565 156.182C472.565 155.645 472.482 155.161 472.316 154.73C472.154 154.296 471.907 153.953 471.575 153.701C471.247 153.446 470.835 153.318 470.338 153.318C469.86 153.318 469.459 153.439 469.134 153.681C468.81 153.92 468.564 154.254 468.399 154.685C468.233 155.113 468.15 155.612 468.15 156.182ZM478.735 160.159C477.999 160.159 477.364 159.997 476.83 159.672C476.3 159.344 475.891 158.886 475.602 158.3C475.317 157.71 475.175 157.024 475.175 156.241C475.175 155.459 475.317 154.77 475.602 154.173C475.891 153.573 476.292 153.106 476.806 152.771C477.323 152.433 477.926 152.264 478.615 152.264C479.013 152.264 479.406 152.33 479.794 152.463C480.181 152.596 480.534 152.811 480.852 153.109C481.171 153.404 481.424 153.795 481.613 154.283C481.802 154.77 481.896 155.37 481.896 156.082V156.58H476.01V155.565H480.703C480.703 155.134 480.617 154.75 480.445 154.412C480.276 154.074 480.034 153.807 479.719 153.612C479.407 153.416 479.039 153.318 478.615 153.318C478.148 153.318 477.744 153.434 477.402 153.666C477.064 153.895 476.804 154.193 476.622 154.561C476.439 154.929 476.348 155.323 476.348 155.744V156.42C476.348 156.997 476.448 157.486 476.646 157.887C476.849 158.285 477.129 158.588 477.487 158.797C477.845 159.002 478.261 159.105 478.735 159.105C479.043 159.105 479.321 159.062 479.57 158.976C479.822 158.886 480.039 158.754 480.221 158.578C480.403 158.399 480.544 158.177 480.644 157.912L481.777 158.23C481.658 158.615 481.457 158.953 481.176 159.244C480.894 159.533 480.546 159.758 480.132 159.92C479.717 160.08 479.252 160.159 478.735 160.159ZM484.855 149.818V160H483.681V149.818H484.855ZM490.543 150.912V149.818H498.18V150.912H494.978V160H493.745V150.912H490.543ZM502.018 160.159C501.282 160.159 500.647 159.997 500.114 159.672C499.583 159.344 499.174 158.886 498.886 158.3C498.601 157.71 498.458 157.024 498.458 156.241C498.458 155.459 498.601 154.77 498.886 154.173C499.174 153.573 499.575 153.106 500.089 152.771C500.606 152.433 501.209 152.264 501.898 152.264C502.296 152.264 502.689 152.33 503.077 152.463C503.464 152.596 503.817 152.811 504.136 153.109C504.454 153.404 504.707 153.795 504.896 154.283C505.085 154.77 505.18 155.37 505.18 156.082V156.58H499.293V155.565H503.987C503.987 155.134 503.9 154.75 503.728 154.412C503.559 154.074 503.317 153.807 503.002 153.612C502.691 153.416 502.323 153.318 501.898 153.318C501.431 153.318 501.027 153.434 500.685 153.666C500.347 153.895 500.087 154.193 499.905 154.561C499.723 154.929 499.631 155.323 499.631 155.744V156.42C499.631 156.997 499.731 157.486 499.93 157.887C500.132 158.285 500.412 158.588 500.77 158.797C501.128 159.002 501.544 159.105 502.018 159.105C502.326 159.105 502.604 159.062 502.853 158.976C503.105 158.886 503.322 158.754 503.504 158.578C503.687 158.399 503.827 158.177 503.927 157.912L505.06 158.23C504.941 158.615 504.741 158.953 504.459 159.244C504.177 159.533 503.829 159.758 503.415 159.92C503 160.08 502.535 160.159 502.018 160.159ZM507.634 152.364L509.464 155.486L511.294 152.364H512.646L510.18 156.182L512.646 160H511.294L509.464 157.037L507.634 160H506.282L508.708 156.182L506.282 152.364H507.634ZM517.641 152.364V153.358H513.684V152.364H517.641ZM514.837 150.534H516.01V157.812C516.01 158.144 516.058 158.393 516.154 158.558C516.254 158.721 516.38 158.83 516.532 158.886C516.688 158.939 516.852 158.966 517.025 158.966C517.154 158.966 517.26 158.959 517.343 158.946C517.426 158.929 517.492 158.916 517.542 158.906L517.78 159.96C517.701 159.99 517.59 160.02 517.447 160.05C517.305 160.083 517.124 160.099 516.905 160.099C516.574 160.099 516.249 160.028 515.931 159.886C515.616 159.743 515.354 159.526 515.145 159.234C514.94 158.943 514.837 158.575 514.837 158.131V150.534Z" fill="white" fill-opacity="0.95"/>
<path d="M669.251 149.818V160H668.018V151.111H667.958L665.472 152.761V151.509L668.018 149.818H669.251ZM675.5 160.139C674.751 160.139 674.113 159.935 673.586 159.528C673.059 159.117 672.656 158.522 672.378 157.743C672.099 156.961 671.96 156.016 671.96 154.909C671.96 153.809 672.099 152.869 672.378 152.09C672.66 151.308 673.064 150.711 673.591 150.3C674.121 149.886 674.758 149.679 675.5 149.679C676.242 149.679 676.877 149.886 677.404 150.3C677.934 150.711 678.339 151.308 678.617 152.09C678.899 152.869 679.04 153.809 679.04 154.909C679.04 156.016 678.901 156.961 678.622 157.743C678.344 158.522 677.941 159.117 677.414 159.528C676.887 159.935 676.249 160.139 675.5 160.139ZM675.5 159.045C676.242 159.045 676.819 158.687 677.23 157.972C677.641 157.256 677.847 156.235 677.847 154.909C677.847 154.027 677.752 153.277 677.563 152.657C677.378 152.037 677.109 151.565 676.758 151.24C676.41 150.915 675.991 150.753 675.5 150.753C674.764 150.753 674.189 151.116 673.775 151.842C673.361 152.564 673.153 153.587 673.153 154.909C673.153 155.791 673.246 156.54 673.432 157.156C673.617 157.773 673.884 158.242 674.232 158.563C674.584 158.885 675.006 159.045 675.5 159.045ZM684.25 160.139C683.501 160.139 682.863 159.935 682.336 159.528C681.809 159.117 681.406 158.522 681.128 157.743C680.849 156.961 680.71 156.016 680.71 154.909C680.71 153.809 680.849 152.869 681.128 152.09C681.41 151.308 681.814 150.711 682.341 150.3C682.871 149.886 683.508 149.679 684.25 149.679C684.992 149.679 685.627 149.886 686.154 150.3C686.684 150.711 687.089 151.308 687.367 152.09C687.649 152.869 687.79 153.809 687.79 154.909C687.79 156.016 687.651 156.961 687.372 157.743C687.094 158.522 686.691 159.117 686.164 159.528C685.637 159.935 684.999 160.139 684.25 160.139ZM684.25 159.045C684.992 159.045 685.569 158.687 685.98 157.972C686.391 157.256 686.597 156.235 686.597 154.909C686.597 154.027 686.502 153.277 686.313 152.657C686.128 152.037 685.859 151.565 685.508 151.24C685.16 150.915 684.741 150.753 684.25 150.753C683.514 150.753 682.939 151.116 682.525 151.842C682.111 152.564 681.903 153.587 681.903 154.909C681.903 155.791 681.996 156.54 682.182 157.156C682.367 157.773 682.634 158.242 682.982 158.563C683.334 158.885 683.756 159.045 684.25 159.045ZM694.869 158.091V157.554C694.869 157.183 694.946 156.843 695.098 156.535C695.254 156.223 695.479 155.975 695.774 155.789C696.072 155.6 696.434 155.506 696.858 155.506C697.289 155.506 697.65 155.6 697.942 155.789C698.233 155.975 698.454 156.223 698.603 156.535C698.752 156.843 698.827 157.183 698.827 157.554V158.091C698.827 158.462 698.75 158.804 698.598 159.115C698.449 159.423 698.227 159.672 697.932 159.861C697.64 160.046 697.282 160.139 696.858 160.139C696.427 160.139 696.064 160.046 695.769 159.861C695.474 159.672 695.25 159.423 695.098 159.115C694.946 158.804 694.869 158.462 694.869 158.091ZM695.884 157.554V158.091C695.884 158.399 695.956 158.676 696.102 158.921C696.248 159.163 696.5 159.284 696.858 159.284C697.206 159.284 697.451 159.163 697.594 158.921C697.74 158.676 697.812 158.399 697.812 158.091V157.554C697.812 157.246 697.743 156.971 697.604 156.729C697.464 156.483 697.216 156.361 696.858 156.361C696.51 156.361 696.26 156.483 696.107 156.729C695.958 156.971 695.884 157.246 695.884 157.554ZM689.798 152.264V151.727C689.798 151.356 689.875 151.016 690.027 150.708C690.183 150.397 690.408 150.148 690.703 149.962C691.001 149.773 691.363 149.679 691.787 149.679C692.218 149.679 692.579 149.773 692.871 149.962C693.162 150.148 693.383 150.397 693.532 150.708C693.681 151.016 693.756 151.356 693.756 151.727V152.264C693.756 152.635 693.679 152.977 693.527 153.288C693.378 153.597 693.156 153.845 692.861 154.034C692.569 154.22 692.211 154.312 691.787 154.312C691.356 154.312 690.993 154.22 690.698 154.034C690.403 153.845 690.179 153.597 690.027 153.288C689.875 152.977 689.798 152.635 689.798 152.264ZM690.812 151.727V152.264C690.812 152.572 690.885 152.849 691.031 153.094C691.177 153.336 691.429 153.457 691.787 153.457C692.135 153.457 692.38 153.336 692.523 153.094C692.669 152.849 692.741 152.572 692.741 152.264V151.727C692.741 151.419 692.672 151.144 692.533 150.902C692.393 150.657 692.145 150.534 691.787 150.534C691.439 150.534 691.189 150.657 691.036 150.902C690.887 151.144 690.812 151.419 690.812 151.727ZM690.176 160L697.176 149.818H698.31L691.31 160H690.176Z" fill="white" fill-opacity="0.95"/>
<rect x="450" y="172" width="250" height="8" rx="4" fill="#3492EB"/>
<rect x="450" y="172" width="250" height="8" rx="4" fill="#27A17A"/>
<path d="M459.824 197.909C459.824 198.983 459.63 199.911 459.242 200.693C458.854 201.475 458.322 202.079 457.646 202.503C456.97 202.927 456.198 203.139 455.33 203.139C454.461 203.139 453.689 202.927 453.013 202.503C452.337 202.079 451.805 201.475 451.417 200.693C451.029 199.911 450.835 198.983 450.835 197.909C450.835 196.835 451.029 195.907 451.417 195.125C451.805 194.343 452.337 193.74 453.013 193.315C453.689 192.891 454.461 192.679 455.33 192.679C456.198 192.679 456.97 192.891 457.646 193.315C458.322 193.74 458.854 194.343 459.242 195.125C459.63 195.907 459.824 196.835 459.824 197.909ZM458.631 197.909C458.631 197.027 458.483 196.283 458.188 195.677C457.897 195.07 457.5 194.611 457 194.3C456.503 193.988 455.946 193.832 455.33 193.832C454.713 193.832 454.155 193.988 453.654 194.3C453.157 194.611 452.761 195.07 452.466 195.677C452.174 196.283 452.028 197.027 452.028 197.909C452.028 198.791 452.174 199.535 452.466 200.141C452.761 200.748 453.157 201.207 453.654 201.518C454.155 201.83 454.713 201.986 455.33 201.986C455.946 201.986 456.503 201.83 457 201.518C457.5 201.207 457.897 200.748 458.188 200.141C458.483 199.535 458.631 198.791 458.631 197.909ZM461.738 205.864V195.364H462.871V196.577H463.011C463.097 196.444 463.216 196.275 463.369 196.07C463.524 195.861 463.746 195.675 464.035 195.513C464.326 195.347 464.721 195.264 465.218 195.264C465.861 195.264 466.428 195.425 466.918 195.746C467.409 196.068 467.792 196.524 468.067 197.114C468.342 197.704 468.479 198.4 468.479 199.202C468.479 200.01 468.342 200.711 468.067 201.305C467.792 201.895 467.411 202.352 466.923 202.677C466.436 202.998 465.874 203.159 465.238 203.159C464.747 203.159 464.355 203.078 464.06 202.915C463.765 202.75 463.538 202.562 463.379 202.354C463.219 202.142 463.097 201.966 463.011 201.827H462.911V205.864H461.738ZM462.891 199.182C462.891 199.759 462.976 200.267 463.145 200.708C463.314 201.146 463.561 201.489 463.886 201.737C464.21 201.982 464.608 202.105 465.079 202.105C465.569 202.105 465.979 201.976 466.307 201.717C466.638 201.455 466.887 201.104 467.053 200.663C467.222 200.219 467.306 199.725 467.306 199.182C467.306 198.645 467.223 198.161 467.058 197.73C466.895 197.296 466.648 196.953 466.317 196.701C465.989 196.446 465.576 196.318 465.079 196.318C464.602 196.318 464.201 196.439 463.876 196.681C463.551 196.92 463.306 197.254 463.14 197.685C462.974 198.113 462.891 198.612 462.891 199.182ZM473.59 195.364V196.358H469.633V195.364H473.59ZM470.786 193.534H471.96V200.812C471.96 201.144 472.008 201.393 472.104 201.558C472.203 201.721 472.329 201.83 472.482 201.886C472.637 201.939 472.801 201.966 472.974 201.966C473.103 201.966 473.209 201.959 473.292 201.946C473.375 201.929 473.441 201.916 473.491 201.906L473.729 202.96C473.65 202.99 473.539 203.02 473.396 203.05C473.254 203.083 473.073 203.099 472.854 203.099C472.523 203.099 472.198 203.028 471.88 202.886C471.565 202.743 471.303 202.526 471.094 202.234C470.889 201.943 470.786 201.575 470.786 201.131V193.534ZM475.355 203V195.364H476.528V203H475.355ZM475.952 194.091C475.723 194.091 475.526 194.013 475.36 193.857C475.198 193.701 475.116 193.514 475.116 193.295C475.116 193.077 475.198 192.889 475.36 192.734C475.526 192.578 475.723 192.5 475.952 192.5C476.18 192.5 476.376 192.578 476.538 192.734C476.704 192.889 476.787 193.077 476.787 193.295C476.787 193.514 476.704 193.701 476.538 193.857C476.376 194.013 476.18 194.091 475.952 194.091ZM481.78 203.159C481.09 203.159 480.485 202.995 479.965 202.667C479.448 202.339 479.044 201.88 478.752 201.29C478.464 200.7 478.319 200.01 478.319 199.222C478.319 198.426 478.464 197.732 478.752 197.138C479.044 196.545 479.448 196.085 479.965 195.756C480.485 195.428 481.09 195.264 481.78 195.264C482.469 195.264 483.072 195.428 483.589 195.756C484.11 196.085 484.514 196.545 484.802 197.138C485.094 197.732 485.24 198.426 485.24 199.222C485.24 200.01 485.094 200.7 484.802 201.29C484.514 201.88 484.11 202.339 483.589 202.667C483.072 202.995 482.469 203.159 481.78 203.159ZM481.78 202.105C482.303 202.105 482.734 201.971 483.072 201.702C483.41 201.434 483.661 201.081 483.823 200.643C483.985 200.206 484.067 199.732 484.067 199.222C484.067 198.711 483.985 198.236 483.823 197.795C483.661 197.354 483.41 196.998 483.072 196.726C482.734 196.454 482.303 196.318 481.78 196.318C481.256 196.318 480.825 196.454 480.487 196.726C480.149 196.998 479.899 197.354 479.736 197.795C479.574 198.236 479.493 198.711 479.493 199.222C479.493 199.732 479.574 200.206 479.736 200.643C479.899 201.081 480.149 201.434 480.487 201.702C480.825 201.971 481.256 202.105 481.78 202.105ZM488.204 198.406V203H487.031V195.364H488.164V196.557H488.264C488.443 196.169 488.715 195.857 489.079 195.622C489.444 195.384 489.914 195.264 490.491 195.264C491.008 195.264 491.461 195.37 491.848 195.582C492.236 195.791 492.538 196.109 492.753 196.537C492.969 196.961 493.076 197.498 493.076 198.148V203H491.903V198.227C491.903 197.627 491.747 197.16 491.436 196.825C491.124 196.487 490.697 196.318 490.153 196.318C489.779 196.318 489.444 196.399 489.149 196.562C488.857 196.724 488.627 196.961 488.458 197.273C488.289 197.584 488.204 197.962 488.204 198.406ZM497.468 203.179C496.984 203.179 496.544 203.088 496.15 202.906C495.756 202.72 495.442 202.453 495.21 202.105C494.978 201.754 494.862 201.33 494.862 200.832C494.862 200.395 494.949 200.04 495.121 199.768C495.293 199.493 495.524 199.278 495.812 199.122C496.1 198.966 496.419 198.85 496.767 198.774C497.118 198.695 497.471 198.632 497.825 198.585C498.289 198.526 498.666 198.481 498.954 198.451C499.246 198.418 499.458 198.363 499.59 198.287C499.726 198.211 499.794 198.078 499.794 197.889V197.849C499.794 197.359 499.66 196.978 499.392 196.706C499.126 196.434 498.724 196.298 498.183 196.298C497.623 196.298 497.184 196.421 496.866 196.666C496.548 196.911 496.324 197.173 496.195 197.452L495.081 197.054C495.28 196.59 495.545 196.229 495.877 195.97C496.211 195.708 496.576 195.526 496.97 195.423C497.368 195.317 497.759 195.264 498.144 195.264C498.389 195.264 498.671 195.294 498.989 195.354C499.31 195.41 499.62 195.528 499.919 195.707C500.22 195.886 500.47 196.156 500.669 196.517C500.868 196.878 500.968 197.362 500.968 197.969V203H499.794V201.966H499.735C499.655 202.132 499.522 202.309 499.337 202.498C499.151 202.687 498.904 202.848 498.596 202.98C498.288 203.113 497.912 203.179 497.468 203.179ZM497.646 202.125C498.11 202.125 498.502 202.034 498.82 201.852C499.141 201.669 499.383 201.434 499.546 201.146C499.711 200.857 499.794 200.554 499.794 200.236V199.162C499.744 199.222 499.635 199.276 499.466 199.326C499.3 199.372 499.108 199.414 498.889 199.45C498.674 199.483 498.463 199.513 498.258 199.54C498.056 199.563 497.892 199.583 497.766 199.599C497.461 199.639 497.176 199.704 496.911 199.793C496.649 199.879 496.437 200.01 496.274 200.186C496.115 200.358 496.036 200.594 496.036 200.892C496.036 201.3 496.186 201.608 496.488 201.817C496.793 202.022 497.179 202.125 497.646 202.125ZM504.282 192.818V203H503.109V192.818H504.282ZM510.528 203V192.818H511.761V197.352H517.19V192.818H518.423V203H517.19V198.446H511.761V203H510.528ZM523.934 203.159C523.198 203.159 522.563 202.997 522.03 202.672C521.499 202.344 521.09 201.886 520.802 201.3C520.517 200.71 520.374 200.024 520.374 199.241C520.374 198.459 520.517 197.77 520.802 197.173C521.09 196.573 521.491 196.106 522.005 195.771C522.522 195.433 523.125 195.264 523.814 195.264C524.212 195.264 524.605 195.33 524.993 195.463C525.381 195.596 525.733 195.811 526.052 196.109C526.37 196.404 526.623 196.795 526.812 197.283C527.001 197.77 527.096 198.37 527.096 199.082V199.58H521.209V198.565H525.903C525.903 198.134 525.816 197.75 525.644 197.412C525.475 197.074 525.233 196.807 524.918 196.612C524.607 196.416 524.239 196.318 523.814 196.318C523.347 196.318 522.943 196.434 522.601 196.666C522.263 196.895 522.003 197.193 521.821 197.561C521.639 197.929 521.547 198.323 521.547 198.744V199.42C521.547 199.997 521.647 200.486 521.846 200.887C522.048 201.285 522.328 201.588 522.686 201.797C523.044 202.002 523.46 202.105 523.934 202.105C524.242 202.105 524.52 202.062 524.769 201.976C525.021 201.886 525.238 201.754 525.42 201.578C525.603 201.399 525.743 201.177 525.843 200.912L526.976 201.23C526.857 201.615 526.657 201.953 526.375 202.244C526.093 202.533 525.745 202.758 525.331 202.92C524.916 203.08 524.451 203.159 523.934 203.159ZM530.054 192.818V203H528.881V192.818H530.054ZM532.203 205.864V195.364H533.336V196.577H533.475C533.562 196.444 533.681 196.275 533.833 196.07C533.989 195.861 534.211 195.675 534.5 195.513C534.791 195.347 535.186 195.264 535.683 195.264C536.326 195.264 536.893 195.425 537.383 195.746C537.874 196.068 538.257 196.524 538.532 197.114C538.807 197.704 538.944 198.4 538.944 199.202C538.944 200.01 538.807 200.711 538.532 201.305C538.257 201.895 537.875 202.352 537.388 202.677C536.901 202.998 536.339 203.159 535.703 203.159C535.212 203.159 534.819 203.078 534.525 202.915C534.23 202.75 534.002 202.562 533.843 202.354C533.684 202.142 533.562 201.966 533.475 201.827H533.376V205.864H532.203ZM533.356 199.182C533.356 199.759 533.441 200.267 533.61 200.708C533.779 201.146 534.026 201.489 534.35 201.737C534.675 201.982 535.073 202.105 535.544 202.105C536.034 202.105 536.444 201.976 536.772 201.717C537.103 201.455 537.352 201.104 537.517 200.663C537.686 200.219 537.771 199.725 537.771 199.182C537.771 198.645 537.688 198.161 537.522 197.73C537.36 197.296 537.113 196.953 536.782 196.701C536.453 196.446 536.041 196.318 535.544 196.318C535.066 196.318 534.665 196.439 534.341 196.681C534.016 196.92 533.77 197.254 533.605 197.685C533.439 198.113 533.356 198.612 533.356 199.182ZM543.936 203.159C543.2 203.159 542.565 202.997 542.032 202.672C541.501 202.344 541.092 201.886 540.804 201.3C540.519 200.71 540.376 200.024 540.376 199.241C540.376 198.459 540.519 197.77 540.804 197.173C541.092 196.573 541.493 196.106 542.007 195.771C542.524 195.433 543.127 195.264 543.816 195.264C544.214 195.264 544.607 195.33 544.995 195.463C545.382 195.596 545.735 195.811 546.054 196.109C546.372 196.404 546.625 196.795 546.814 197.283C547.003 197.77 547.098 198.37 547.098 199.082V199.58H541.211V198.565H545.904C545.904 198.134 545.818 197.75 545.646 197.412C545.477 197.074 545.235 196.807 544.92 196.612C544.609 196.416 544.241 196.318 543.816 196.318C543.349 196.318 542.945 196.434 542.603 196.666C542.265 196.895 542.005 197.193 541.823 197.561C541.641 197.929 541.549 198.323 541.549 198.744V199.42C541.549 199.997 541.649 200.486 541.848 200.887C542.05 201.285 542.33 201.588 542.688 201.797C543.046 202.002 543.462 202.105 543.936 202.105C544.244 202.105 544.522 202.062 544.771 201.976C545.023 201.886 545.24 201.754 545.422 201.578C545.605 201.399 545.745 201.177 545.845 200.912L546.978 201.23C546.859 201.615 546.658 201.953 546.377 202.244C546.095 202.533 545.747 202.758 545.333 202.92C544.918 203.08 544.453 203.159 543.936 203.159ZM548.882 203V195.364H550.016V196.517H550.096C550.235 196.139 550.487 195.833 550.851 195.597C551.216 195.362 551.627 195.244 552.084 195.244C552.17 195.244 552.278 195.246 552.407 195.249C552.537 195.253 552.634 195.258 552.701 195.264V196.457C552.661 196.447 552.57 196.433 552.427 196.413C552.288 196.389 552.141 196.378 551.985 196.378C551.614 196.378 551.282 196.456 550.99 196.612C550.702 196.764 550.473 196.976 550.304 197.248C550.139 197.516 550.056 197.823 550.056 198.168V203H548.882ZM561.35 195.364V196.358H557.393V195.364H561.35ZM558.546 193.534H559.719V200.812C559.719 201.144 559.767 201.393 559.863 201.558C559.963 201.721 560.089 201.83 560.241 201.886C560.397 201.939 560.561 201.966 560.733 201.966C560.863 201.966 560.969 201.959 561.052 201.946C561.135 201.929 561.201 201.916 561.251 201.906L561.489 202.96C561.41 202.99 561.299 203.02 561.156 203.05C561.014 203.083 560.833 203.099 560.614 203.099C560.283 203.099 559.958 203.028 559.64 202.886C559.325 202.743 559.063 202.526 558.854 202.234C558.649 201.943 558.546 201.575 558.546 201.131V193.534ZM566.235 203.159C565.499 203.159 564.864 202.997 564.33 202.672C563.8 202.344 563.391 201.886 563.102 201.3C562.817 200.71 562.675 200.024 562.675 199.241C562.675 198.459 562.817 197.77 563.102 197.173C563.391 196.573 563.792 196.106 564.306 195.771C564.823 195.433 565.426 195.264 566.115 195.264C566.513 195.264 566.906 195.33 567.294 195.463C567.681 195.596 568.034 195.811 568.352 196.109C568.671 196.404 568.924 196.795 569.113 197.283C569.302 197.77 569.396 198.37 569.396 199.082V199.58H563.51V198.565H568.203C568.203 198.134 568.117 197.75 567.945 197.412C567.776 197.074 567.534 196.807 567.219 196.612C566.907 196.416 566.539 196.318 566.115 196.318C565.648 196.318 565.244 196.434 564.902 196.666C564.564 196.895 564.304 197.193 564.122 197.561C563.939 197.929 563.848 198.323 563.848 198.744V199.42C563.848 199.997 563.948 200.486 564.146 200.887C564.349 201.285 564.629 201.588 564.987 201.797C565.345 202.002 565.761 202.105 566.235 202.105C566.543 202.105 566.821 202.062 567.07 201.976C567.322 201.886 567.539 201.754 567.721 201.578C567.903 201.399 568.044 201.177 568.144 200.912L569.277 201.23C569.158 201.615 568.957 201.953 568.676 202.244C568.394 202.533 568.046 202.758 567.632 202.92C567.217 203.08 566.752 203.159 566.235 203.159ZM571.851 195.364L573.681 198.486L575.51 195.364H576.863L574.397 199.182L576.863 203H575.51L573.681 200.037L571.851 203H570.499L572.925 199.182L570.499 195.364H571.851ZM581.858 195.364V196.358H577.9V195.364H581.858ZM579.054 193.534H580.227V200.812C580.227 201.144 580.275 201.393 580.371 201.558C580.471 201.721 580.597 201.83 580.749 201.886C580.905 201.939 581.069 201.966 581.241 201.966C581.371 201.966 581.477 201.959 581.559 201.946C581.642 201.929 581.709 201.916 581.758 201.906L581.997 202.96C581.917 202.99 581.806 203.02 581.664 203.05C581.521 203.083 581.341 203.099 581.122 203.099C580.791 203.099 580.466 203.028 580.148 202.886C579.833 202.743 579.571 202.526 579.362 202.234C579.157 201.943 579.054 201.575 579.054 201.131V193.534Z" fill="white" fill-opacity="0.7"/>
<rect x="860" y="100" width="32" height="32" rx="16" fill="#DA0087"/>
<path d="M875.589 121.639C874.846 121.639 874.185 121.512 873.605 121.256C873.028 120.998 872.573 120.643 872.238 120.192C871.906 119.738 871.736 119.215 871.726 118.621H873.893C873.907 118.87 873.988 119.089 874.137 119.278C874.29 119.463 874.492 119.607 874.744 119.71C874.996 119.813 875.279 119.864 875.594 119.864C875.922 119.864 876.212 119.806 876.464 119.69C876.716 119.574 876.913 119.414 877.055 119.208C877.198 119.003 877.269 118.766 877.269 118.497C877.269 118.225 877.193 117.985 877.04 117.776C876.891 117.564 876.676 117.398 876.394 117.279C876.116 117.16 875.784 117.1 875.4 117.1H874.45V115.519H875.4C875.725 115.519 876.011 115.463 876.26 115.35C876.512 115.237 876.707 115.082 876.847 114.883C876.986 114.681 877.055 114.445 877.055 114.177C877.055 113.922 876.994 113.698 876.871 113.506C876.752 113.31 876.583 113.158 876.364 113.048C876.149 112.939 875.897 112.884 875.609 112.884C875.317 112.884 875.05 112.937 874.808 113.043C874.566 113.146 874.372 113.294 874.227 113.486C874.081 113.678 874.003 113.903 873.993 114.162H871.93C871.94 113.575 872.107 113.058 872.432 112.611C872.757 112.163 873.194 111.814 873.744 111.562C874.298 111.307 874.923 111.179 875.619 111.179C876.321 111.179 876.936 111.307 877.463 111.562C877.99 111.817 878.399 112.162 878.691 112.596C878.986 113.027 879.132 113.511 879.129 114.048C879.132 114.618 878.955 115.093 878.597 115.474C878.242 115.856 877.78 116.098 877.21 116.2V116.28C877.959 116.376 878.529 116.636 878.92 117.06C879.314 117.481 879.51 118.008 879.506 118.641C879.51 119.221 879.342 119.737 879.004 120.188C878.67 120.638 878.207 120.993 877.617 121.251C877.027 121.51 876.351 121.639 875.589 121.639Z" fill="white" fill-opacity="0.95"/>
<path d="M861.233 160V149.818H862.466V158.906H867.199V160H861.233ZM871.196 160.179C870.712 160.179 870.273 160.088 869.879 159.906C869.484 159.72 869.171 159.453 868.939 159.105C868.707 158.754 868.591 158.33 868.591 157.832C868.591 157.395 868.677 157.04 868.849 156.768C869.022 156.493 869.252 156.278 869.54 156.122C869.829 155.966 870.147 155.85 870.495 155.774C870.846 155.695 871.199 155.632 871.554 155.585C872.018 155.526 872.394 155.481 872.683 155.451C872.974 155.418 873.186 155.363 873.319 155.287C873.455 155.211 873.523 155.078 873.523 154.889V154.849C873.523 154.359 873.388 153.978 873.12 153.706C872.855 153.434 872.452 153.298 871.912 153.298C871.352 153.298 870.913 153.421 870.594 153.666C870.276 153.911 870.053 154.173 869.923 154.452L868.81 154.054C869.009 153.59 869.274 153.229 869.605 152.97C869.94 152.708 870.304 152.526 870.699 152.423C871.097 152.317 871.488 152.264 871.872 152.264C872.117 152.264 872.399 152.294 872.717 152.354C873.039 152.41 873.349 152.528 873.647 152.707C873.949 152.886 874.199 153.156 874.398 153.517C874.597 153.878 874.696 154.362 874.696 154.969V160H873.523V158.966H873.463C873.384 159.132 873.251 159.309 873.065 159.498C872.88 159.687 872.633 159.848 872.325 159.98C872.016 160.113 871.64 160.179 871.196 160.179ZM871.375 159.125C871.839 159.125 872.23 159.034 872.548 158.852C872.87 158.669 873.112 158.434 873.274 158.146C873.44 157.857 873.523 157.554 873.523 157.236V156.162C873.473 156.222 873.364 156.276 873.195 156.326C873.029 156.372 872.837 156.414 872.618 156.45C872.402 156.483 872.192 156.513 871.987 156.54C871.784 156.563 871.62 156.583 871.494 156.599C871.189 156.639 870.904 156.704 870.639 156.793C870.377 156.879 870.165 157.01 870.003 157.186C869.844 157.358 869.764 157.594 869.764 157.892C869.764 158.3 869.915 158.608 870.217 158.817C870.522 159.022 870.908 159.125 871.375 159.125ZM876.997 160V149.818H878.17V153.577H878.269C878.356 153.444 878.475 153.275 878.627 153.07C878.783 152.861 879.005 152.675 879.294 152.513C879.585 152.347 879.98 152.264 880.477 152.264C881.12 152.264 881.686 152.425 882.177 152.746C882.668 153.068 883.05 153.524 883.325 154.114C883.601 154.704 883.738 155.4 883.738 156.202C883.738 157.01 883.601 157.711 883.325 158.305C883.05 158.895 882.669 159.352 882.182 159.677C881.695 159.998 881.133 160.159 880.497 160.159C880.006 160.159 879.613 160.078 879.318 159.915C879.023 159.75 878.796 159.562 878.637 159.354C878.478 159.142 878.356 158.966 878.269 158.827H878.13V160H876.997ZM878.15 156.182C878.15 156.759 878.235 157.267 878.404 157.708C878.573 158.146 878.82 158.489 879.144 158.737C879.469 158.982 879.867 159.105 880.338 159.105C880.828 159.105 881.237 158.976 881.566 158.717C881.897 158.455 882.146 158.104 882.311 157.663C882.48 157.219 882.565 156.725 882.565 156.182C882.565 155.645 882.482 155.161 882.316 154.73C882.154 154.296 881.907 153.953 881.575 153.701C881.247 153.446 880.835 153.318 880.338 153.318C879.86 153.318 879.459 153.439 879.134 153.681C878.81 153.92 878.564 154.254 878.399 154.685C878.233 155.113 878.15 155.612 878.15 156.182ZM888.735 160.159C887.999 160.159 887.364 159.997 886.83 159.672C886.3 159.344 885.891 158.886 885.602 158.3C885.317 157.71 885.175 157.024 885.175 156.241C885.175 155.459 885.317 154.77 885.602 154.173C885.891 153.573 886.292 153.106 886.806 152.771C887.323 152.433 887.926 152.264 888.615 152.264C889.013 152.264 889.406 152.33 889.794 152.463C890.181 152.596 890.534 152.811 890.852 153.109C891.171 153.404 891.424 153.795 891.613 154.283C891.802 154.77 891.896 155.37 891.896 156.082V156.58H886.01V155.565H890.703C890.703 155.134 890.617 154.75 890.445 154.412C890.276 154.074 890.034 153.807 889.719 153.612C889.407 153.416 889.039 153.318 888.615 153.318C888.148 153.318 887.744 153.434 887.402 153.666C887.064 153.895 886.804 154.193 886.622 154.561C886.439 154.929 886.348 155.323 886.348 155.744V156.42C886.348 156.997 886.448 157.486 886.646 157.887C886.849 158.285 887.129 158.588 887.487 158.797C887.845 159.002 888.261 159.105 888.735 159.105C889.043 159.105 889.321 159.062 889.57 158.976C889.822 158.886 890.039 158.754 890.221 158.578C890.403 158.399 890.544 158.177 890.644 157.912L891.777 158.23C891.658 158.615 891.457 158.953 891.176 159.244C890.894 159.533 890.546 159.758 890.132 159.92C889.717 160.08 889.252 160.159 888.735 160.159ZM894.855 149.818V160H893.681V149.818H894.855ZM900.543 150.912V149.818H908.18V150.912H904.978V160H903.745V150.912H900.543ZM912.018 160.159C911.282 160.159 910.647 159.997 910.114 159.672C909.583 159.344 909.174 158.886 908.886 158.3C908.601 157.71 908.458 157.024 908.458 156.241C908.458 155.459 908.601 154.77 908.886 154.173C909.174 153.573 909.575 153.106 910.089 152.771C910.606 152.433 911.209 152.264 911.898 152.264C912.296 152.264 912.689 152.33 913.077 152.463C913.464 152.596 913.817 152.811 914.136 153.109C914.454 153.404 914.707 153.795 914.896 154.283C915.085 154.77 915.18 155.37 915.18 156.082V156.58H909.293V155.565H913.987C913.987 155.134 913.9 154.75 913.728 154.412C913.559 154.074 913.317 153.807 913.002 153.612C912.691 153.416 912.323 153.318 911.898 153.318C911.431 153.318 911.027 153.434 910.685 153.666C910.347 153.895 910.087 154.193 909.905 154.561C909.723 154.929 909.631 155.323 909.631 155.744V156.42C909.631 156.997 909.731 157.486 909.93 157.887C910.132 158.285 910.412 158.588 910.77 158.797C911.128 159.002 911.544 159.105 912.018 159.105C912.326 159.105 912.604 159.062 912.853 158.976C913.105 158.886 913.322 158.754 913.504 158.578C913.687 158.399 913.827 158.177 913.927 157.912L915.06 158.23C914.941 158.615 914.741 158.953 914.459 159.244C914.177 159.533 913.829 159.758 913.415 159.92C913 160.08 912.535 160.159 912.018 160.159ZM917.634 152.364L919.464 155.486L921.294 152.364H922.646L920.18 156.182L922.646 160H921.294L919.464 157.037L917.634 160H916.282L918.708 156.182L916.282 152.364H917.634ZM927.641 152.364V153.358H923.684V152.364H927.641ZM924.837 150.534H926.01V157.812C926.01 158.144 926.058 158.393 926.154 158.558C926.254 158.721 926.38 158.83 926.532 158.886C926.688 158.939 926.852 158.966 927.025 158.966C927.154 158.966 927.26 158.959 927.343 158.946C927.426 158.929 927.492 158.916 927.542 158.906L927.78 159.96C927.701 159.99 927.59 160.02 927.447 160.05C927.305 160.083 927.124 160.099 926.905 160.099C926.574 160.099 926.249 160.028 925.931 159.886C925.616 159.743 925.354 159.526 925.145 159.234C924.94 158.943 924.837 158.575 924.837 158.131V150.534Z" fill="white" fill-opacity="0.95"/>
<rect x="860" y="172" width="250" height="8" rx="4" fill="#3492EB"/>
<rect x="860" y="172" width="250" height="8" rx="4" fill="#F55868"/>
<path d="M861.233 202.5V192.318H867.378V193.412H862.466V196.852H867.06V197.946H862.466V201.406H867.457V202.5H861.233ZM869.441 202.5V194.864H870.575V196.017H870.654C870.793 195.639 871.045 195.333 871.41 195.097C871.774 194.862 872.185 194.744 872.643 194.744C872.729 194.744 872.837 194.746 872.966 194.749C873.095 194.753 873.193 194.758 873.259 194.764V195.957C873.219 195.947 873.128 195.933 872.986 195.913C872.847 195.889 872.699 195.878 872.543 195.878C872.172 195.878 871.841 195.956 871.549 196.112C871.261 196.264 871.032 196.476 870.863 196.748C870.697 197.016 870.614 197.323 870.614 197.668V202.5H869.441ZM874.65 202.5V194.864H875.784V196.017H875.863C876.002 195.639 876.254 195.333 876.619 195.097C876.983 194.862 877.394 194.744 877.852 194.744C877.938 194.744 878.046 194.746 878.175 194.749C878.304 194.753 878.402 194.758 878.468 194.764V195.957C878.428 195.947 878.337 195.933 878.195 195.913C878.056 195.889 877.908 195.878 877.752 195.878C877.381 195.878 877.05 195.956 876.758 196.112C876.47 196.264 876.241 196.476 876.072 196.748C875.906 197.016 875.823 197.323 875.823 197.668V202.5H874.65ZM882.729 202.659C882.039 202.659 881.435 202.495 880.914 202.167C880.397 201.839 879.993 201.38 879.701 200.79C879.413 200.2 879.269 199.51 879.269 198.722C879.269 197.926 879.413 197.232 879.701 196.638C879.993 196.045 880.397 195.585 880.914 195.256C881.435 194.928 882.039 194.764 882.729 194.764C883.418 194.764 884.021 194.928 884.539 195.256C885.059 195.585 885.463 196.045 885.752 196.638C886.043 197.232 886.189 197.926 886.189 198.722C886.189 199.51 886.043 200.2 885.752 200.79C885.463 201.38 885.059 201.839 884.539 202.167C884.021 202.495 883.418 202.659 882.729 202.659ZM882.729 201.605C883.253 201.605 883.683 201.471 884.021 201.202C884.36 200.934 884.61 200.581 884.772 200.143C884.935 199.706 885.016 199.232 885.016 198.722C885.016 198.211 884.935 197.736 884.772 197.295C884.61 196.854 884.36 196.498 884.021 196.226C883.683 195.954 883.253 195.818 882.729 195.818C882.205 195.818 881.774 195.954 881.436 196.226C881.098 196.498 880.848 196.854 880.686 197.295C880.523 197.736 880.442 198.211 880.442 198.722C880.442 199.232 880.523 199.706 880.686 200.143C880.848 200.581 881.098 200.934 881.436 201.202C881.774 201.471 882.205 201.605 882.729 201.605ZM887.98 202.5V194.864H889.114V196.017H889.193C889.332 195.639 889.584 195.333 889.949 195.097C890.313 194.862 890.724 194.744 891.182 194.744C891.268 194.744 891.376 194.746 891.505 194.749C891.634 194.753 891.732 194.758 891.798 194.764V195.957C891.759 195.947 891.667 195.933 891.525 195.913C891.386 195.889 891.238 195.878 891.082 195.878C890.711 195.878 890.38 195.956 890.088 196.112C889.8 196.264 889.571 196.476 889.402 196.748C889.236 197.016 889.153 197.323 889.153 197.668V202.5H887.98ZM897.127 202.5V194.864H898.26V196.057H898.36C898.519 195.649 898.776 195.333 899.13 195.107C899.485 194.879 899.911 194.764 900.408 194.764C900.912 194.764 901.331 194.879 901.666 195.107C902.004 195.333 902.267 195.649 902.456 196.057H902.536C902.731 195.662 903.025 195.349 903.416 195.117C903.807 194.882 904.276 194.764 904.823 194.764C905.505 194.764 906.064 194.978 906.498 195.406C906.932 195.83 907.149 196.491 907.149 197.389V202.5H905.976V197.389C905.976 196.826 905.822 196.423 905.514 196.181C905.205 195.939 904.843 195.818 904.425 195.818C903.888 195.818 903.472 195.981 903.177 196.305C902.882 196.627 902.735 197.035 902.735 197.528V202.5H901.541V197.27C901.541 196.836 901.401 196.486 901.119 196.221C900.837 195.952 900.474 195.818 900.03 195.818C899.725 195.818 899.44 195.899 899.175 196.062C898.913 196.224 898.701 196.45 898.539 196.738C898.379 197.023 898.3 197.353 898.3 197.727V202.5H897.127ZM912.496 202.659C911.76 202.659 911.126 202.497 910.592 202.172C910.062 201.844 909.653 201.386 909.364 200.8C909.079 200.21 908.937 199.524 908.937 198.741C908.937 197.959 909.079 197.27 909.364 196.673C909.653 196.073 910.054 195.606 910.567 195.271C911.084 194.933 911.688 194.764 912.377 194.764C912.775 194.764 913.167 194.83 913.555 194.963C913.943 195.096 914.296 195.311 914.614 195.609C914.932 195.904 915.186 196.295 915.375 196.783C915.564 197.27 915.658 197.87 915.658 198.582V199.08H909.772V198.065H914.465C914.465 197.634 914.379 197.25 914.206 196.912C914.037 196.574 913.796 196.307 913.481 196.112C913.169 195.916 912.801 195.818 912.377 195.818C911.91 195.818 911.505 195.934 911.164 196.166C910.826 196.395 910.566 196.693 910.383 197.061C910.201 197.429 910.11 197.823 910.11 198.244V198.92C910.11 199.497 910.209 199.986 910.408 200.387C910.61 200.785 910.89 201.088 911.248 201.297C911.606 201.502 912.022 201.605 912.496 201.605C912.805 201.605 913.083 201.562 913.331 201.476C913.583 201.386 913.8 201.254 913.983 201.078C914.165 200.899 914.306 200.677 914.405 200.412L915.539 200.73C915.42 201.115 915.219 201.453 914.937 201.744C914.656 202.033 914.308 202.258 913.893 202.42C913.479 202.58 913.013 202.659 912.496 202.659ZM922.852 196.574L921.798 196.872C921.732 196.696 921.634 196.526 921.505 196.36C921.379 196.191 921.206 196.052 920.988 195.942C920.769 195.833 920.489 195.778 920.148 195.778C919.68 195.778 919.291 195.886 918.979 196.102C918.671 196.314 918.517 196.584 918.517 196.912C918.517 197.204 918.623 197.434 918.835 197.603C919.047 197.772 919.379 197.913 919.829 198.026L920.963 198.304C921.646 198.47 922.154 198.723 922.489 199.065C922.824 199.403 922.991 199.839 922.991 200.372C922.991 200.81 922.865 201.201 922.613 201.545C922.365 201.89 922.017 202.162 921.569 202.361C921.122 202.56 920.602 202.659 920.008 202.659C919.229 202.659 918.585 202.49 918.074 202.152C917.564 201.814 917.241 201.32 917.105 200.67L918.219 200.392C918.325 200.803 918.525 201.111 918.82 201.317C919.118 201.522 919.508 201.625 919.988 201.625C920.535 201.625 920.97 201.509 921.291 201.277C921.616 201.042 921.778 200.76 921.778 200.432C921.778 200.167 921.685 199.945 921.5 199.766C921.314 199.583 921.029 199.447 920.645 199.358L919.372 199.06C918.673 198.894 918.159 198.637 917.831 198.289C917.506 197.938 917.344 197.499 917.344 196.972C917.344 196.541 917.465 196.16 917.706 195.828C917.952 195.497 918.285 195.237 918.706 195.048C919.13 194.859 919.611 194.764 920.148 194.764C920.903 194.764 921.497 194.93 921.927 195.261C922.362 195.593 922.67 196.03 922.852 196.574ZM930.167 196.574L929.113 196.872C929.046 196.696 928.949 196.526 928.819 196.36C928.693 196.191 928.521 196.052 928.302 195.942C928.083 195.833 927.803 195.778 927.462 195.778C926.995 195.778 926.605 195.886 926.294 196.102C925.985 196.314 925.831 196.584 925.831 196.912C925.831 197.204 925.937 197.434 926.15 197.603C926.362 197.772 926.693 197.913 927.144 198.026L928.277 198.304C928.96 198.47 929.469 198.723 929.804 199.065C930.138 199.403 930.306 199.839 930.306 200.372C930.306 200.81 930.18 201.201 929.928 201.545C929.679 201.89 929.331 202.162 928.884 202.361C928.436 202.56 927.916 202.659 927.323 202.659C926.544 202.659 925.899 202.49 925.389 202.152C924.878 201.814 924.555 201.32 924.419 200.67L925.533 200.392C925.639 200.803 925.84 201.111 926.135 201.317C926.433 201.522 926.822 201.625 927.303 201.625C927.85 201.625 928.284 201.509 928.605 201.277C928.93 201.042 929.093 200.76 929.093 200.432C929.093 200.167 929 199.945 928.814 199.766C928.629 199.583 928.344 199.447 927.959 199.358L926.686 199.06C925.987 198.894 925.473 198.637 925.145 198.289C924.82 197.938 924.658 197.499 924.658 196.972C924.658 196.541 924.779 196.16 925.021 195.828C925.266 195.497 925.599 195.237 926.02 195.048C926.444 194.859 926.925 194.764 927.462 194.764C928.218 194.764 928.811 194.93 929.242 195.261C929.676 195.593 929.984 196.03 930.167 196.574ZM934.319 202.679C933.835 202.679 933.396 202.588 933.002 202.406C932.607 202.22 932.294 201.953 932.062 201.605C931.83 201.254 931.714 200.83 931.714 200.332C931.714 199.895 931.8 199.54 931.972 199.268C932.145 198.993 932.375 198.778 932.664 198.622C932.952 198.466 933.27 198.35 933.618 198.274C933.969 198.195 934.322 198.132 934.677 198.085C935.141 198.026 935.517 197.981 935.806 197.951C936.097 197.918 936.309 197.863 936.442 197.787C936.578 197.711 936.646 197.578 936.646 197.389V197.349C936.646 196.859 936.512 196.478 936.243 196.206C935.978 195.934 935.575 195.798 935.035 195.798C934.475 195.798 934.036 195.921 933.718 196.166C933.399 196.411 933.176 196.673 933.046 196.952L931.933 196.554C932.132 196.09 932.397 195.729 932.728 195.47C933.063 195.208 933.427 195.026 933.822 194.923C934.22 194.817 934.611 194.764 934.995 194.764C935.24 194.764 935.522 194.794 935.84 194.854C936.162 194.91 936.472 195.028 936.77 195.207C937.072 195.386 937.322 195.656 937.521 196.017C937.72 196.378 937.819 196.862 937.819 197.469V202.5H936.646V201.466H936.586C936.507 201.632 936.374 201.809 936.188 201.998C936.003 202.187 935.756 202.348 935.448 202.48C935.139 202.613 934.763 202.679 934.319 202.679ZM934.498 201.625C934.962 201.625 935.353 201.534 935.671 201.352C935.993 201.169 936.235 200.934 936.397 200.646C936.563 200.357 936.646 200.054 936.646 199.736V198.662C936.596 198.722 936.487 198.776 936.318 198.826C936.152 198.872 935.96 198.914 935.741 198.95C935.526 198.983 935.315 199.013 935.11 199.04C934.907 199.063 934.743 199.083 934.617 199.099C934.312 199.139 934.027 199.204 933.762 199.293C933.5 199.379 933.288 199.51 933.126 199.686C932.967 199.858 932.887 200.094 932.887 200.392C932.887 200.8 933.038 201.108 933.34 201.317C933.645 201.522 934.031 201.625 934.498 201.625ZM943.043 205.523C942.476 205.523 941.989 205.45 941.581 205.304C941.174 205.161 940.834 204.973 940.562 204.737C940.294 204.505 940.08 204.257 939.921 203.991L940.855 203.335C940.962 203.474 941.096 203.634 941.258 203.812C941.421 203.995 941.643 204.152 941.924 204.285C942.209 204.421 942.582 204.489 943.043 204.489C943.659 204.489 944.168 204.339 944.569 204.041C944.97 203.743 945.171 203.276 945.171 202.639V201.088H945.071C944.985 201.227 944.863 201.4 944.703 201.605C944.548 201.807 944.322 201.988 944.027 202.147C943.736 202.303 943.341 202.381 942.844 202.381C942.228 202.381 941.674 202.235 941.184 201.943C940.696 201.652 940.31 201.227 940.025 200.67C939.743 200.114 939.603 199.437 939.603 198.642C939.603 197.86 939.74 197.179 940.015 196.599C940.29 196.015 940.673 195.565 941.164 195.246C941.654 194.925 942.221 194.764 942.864 194.764C943.361 194.764 943.756 194.847 944.047 195.013C944.342 195.175 944.568 195.361 944.723 195.57C944.882 195.775 945.005 195.944 945.091 196.077H945.211V194.864H946.344V202.719C946.344 203.375 946.195 203.909 945.897 204.32C945.602 204.734 945.204 205.037 944.703 205.229C944.206 205.425 943.653 205.523 943.043 205.523ZM943.003 201.327C943.474 201.327 943.872 201.219 944.196 201.004C944.521 200.788 944.768 200.478 944.937 200.074C945.106 199.67 945.191 199.186 945.191 198.622C945.191 198.072 945.108 197.586 944.942 197.165C944.776 196.745 944.531 196.415 944.206 196.176C943.882 195.937 943.48 195.818 943.003 195.818C942.506 195.818 942.092 195.944 941.76 196.196C941.432 196.448 941.185 196.786 941.02 197.21C940.857 197.634 940.776 198.105 940.776 198.622C940.776 199.152 940.859 199.621 941.025 200.029C941.194 200.433 941.442 200.752 941.77 200.984C942.102 201.212 942.513 201.327 943.003 201.327ZM951.694 202.659C950.958 202.659 950.323 202.497 949.789 202.172C949.259 201.844 948.85 201.386 948.561 200.8C948.276 200.21 948.134 199.524 948.134 198.741C948.134 197.959 948.276 197.27 948.561 196.673C948.85 196.073 949.251 195.606 949.765 195.271C950.282 194.933 950.885 194.764 951.574 194.764C951.972 194.764 952.365 194.83 952.752 194.963C953.14 195.096 953.493 195.311 953.811 195.609C954.13 195.904 954.383 196.295 954.572 196.783C954.761 197.27 954.855 197.87 954.855 198.582V199.08H948.969V198.065H953.662C953.662 197.634 953.576 197.25 953.404 196.912C953.235 196.574 952.993 196.307 952.678 196.112C952.366 195.916 951.998 195.818 951.574 195.818C951.107 195.818 950.703 195.934 950.361 196.166C950.023 196.395 949.763 196.693 949.581 197.061C949.398 197.429 949.307 197.823 949.307 198.244V198.92C949.307 199.497 949.407 199.986 949.605 200.387C949.808 200.785 950.088 201.088 950.446 201.297C950.804 201.502 951.22 201.605 951.694 201.605C952.002 201.605 952.28 201.562 952.529 201.476C952.781 201.386 952.998 201.254 953.18 201.078C953.362 200.899 953.503 200.677 953.603 200.412L954.736 200.73C954.617 201.115 954.416 201.453 954.135 201.744C953.853 202.033 953.505 202.258 953.091 202.42C952.676 202.58 952.211 202.659 951.694 202.659Z" fill="white" fill-opacity="0.7"/>
</svg>
