<svg width="1300" height="192" viewBox="0 0 1300 192" fill="none" xmlns="http://www.w3.org/2000/svg">
<rect width="1300" height="192" rx="24" fill="#262626"/>
<path d="M682.907 98.5312C682.574 98.5314 682.245 98.4661 681.938 98.339C681.63 98.2118 681.351 98.0254 681.116 97.7903C680.881 97.5552 680.695 97.2761 680.568 96.9689C680.44 96.6617 680.375 96.3325 680.375 96C680.375 102.008 678.594 107.88 675.256 112.875C671.919 117.871 667.175 121.764 661.624 124.063C656.074 126.362 649.967 126.963 644.074 125.791C638.182 124.619 632.77 121.726 628.522 117.478C624.274 113.23 621.381 107.818 620.209 101.926C619.037 96.0337 619.638 89.9263 621.937 84.376C624.236 78.8257 628.13 74.0818 633.125 70.7441C638.12 67.4065 643.993 65.625 650 65.625C649.329 65.625 648.685 65.3583 648.21 64.8836C647.736 64.4089 647.469 63.7651 647.469 63.0938C647.469 62.4224 647.736 61.7786 648.21 61.3039C648.685 60.8292 649.329 60.5625 650 60.5625C642.991 60.5625 636.14 62.6409 630.312 66.5348C624.485 70.4287 619.942 75.9633 617.26 82.4387C614.578 88.914 613.876 96.0393 615.244 102.914C616.611 109.788 619.986 116.102 624.942 121.058C629.898 126.014 636.213 129.389 643.087 130.757C649.961 132.124 657.086 131.422 663.562 128.74C670.037 126.058 675.572 121.516 679.465 115.688C683.359 109.86 685.438 103.009 685.438 96C685.438 96.3325 685.373 96.6617 685.245 96.9689C685.118 97.2761 684.932 97.5552 684.697 97.7903C684.462 98.0254 684.183 98.2118 683.875 98.339C683.568 98.4661 683.239 98.5314 682.907 98.5312Z" fill="#3B3B3B"/>
<path d="M647.469 63.0938C647.469 63.4262 647.534 63.7555 647.661 64.0626C647.788 64.3698 647.975 64.649 648.21 64.884C648.445 65.1191 648.724 65.3056 649.031 65.4327C649.339 65.5599 649.668 65.6252 650 65.625C658.053 65.6338 665.774 68.8368 671.469 74.5313C677.163 80.2259 680.366 87.9467 680.375 96C680.375 96.6713 680.642 97.3152 681.117 97.7899C681.591 98.2646 682.235 98.5312 682.906 98.5312C683.578 98.5312 684.222 98.2646 684.696 97.7899C685.171 97.3152 685.438 96.6713 685.438 96C685.427 86.6046 681.69 77.5971 675.047 70.9536C668.403 64.31 659.396 60.573 650 60.5625C649.668 60.5623 649.339 60.6276 649.031 60.7548C648.724 60.8819 648.445 61.0684 648.21 61.3035C647.975 61.5385 647.788 61.8177 647.661 62.1249C647.534 62.432 647.469 62.7613 647.469 63.0938Z" fill="#3492EB"/>
<path d="M682.906 93.48C682.574 93.4798 682.245 93.5451 681.937 93.6723C681.63 93.7994 681.351 93.9858 681.116 94.2209C680.881 94.456 680.694 94.7351 680.567 95.0423C680.44 95.3495 680.375 95.6788 680.375 96.0112C680.366 104.064 677.163 111.785 671.469 117.48C665.774 123.174 658.053 126.377 650 126.386C649.329 126.386 648.685 126.653 648.21 127.128C647.735 127.602 647.469 128.246 647.469 128.917C647.469 129.589 647.735 130.233 648.21 130.707C648.685 131.182 649.329 131.449 650 131.449C659.395 131.438 668.403 127.701 675.046 121.058C681.69 114.414 685.427 105.407 685.437 96.0112C685.438 95.6788 685.372 95.3495 685.245 95.0423C685.118 94.7351 684.932 94.456 684.697 94.2209C684.461 93.9858 684.182 93.7994 683.875 93.6723C683.568 93.5451 683.239 93.4798 682.906 93.48Z" fill="#3492EB"/>
<path d="M617.116 93.48C617.449 93.4798 617.778 93.5451 618.085 93.6723C618.392 93.7994 618.671 93.9858 618.907 94.2209C619.142 94.456 619.328 94.7351 619.455 95.0423C619.582 95.3495 619.648 95.6788 619.648 96.0112C619.656 104.064 622.859 111.785 628.554 117.48C634.248 123.174 641.969 126.377 650.023 126.386C650.694 126.386 651.338 126.653 651.812 127.128C652.287 127.602 652.554 128.246 652.554 128.917C652.554 129.589 652.287 130.233 651.812 130.707C651.338 131.182 650.694 131.449 650.023 131.449C640.627 131.438 631.62 127.701 624.976 121.058C618.333 114.414 614.596 105.407 614.585 96.0112C614.585 95.6788 614.65 95.3495 614.777 95.0423C614.904 94.7351 615.091 94.456 615.326 94.2209C615.561 93.9858 615.84 93.7994 616.147 93.6723C616.455 93.5451 616.784 93.4798 617.116 93.48Z" fill="#3492EB"/>
</svg>
