<svg width="1300" height="401" viewBox="0 0 1300 401" fill="none" xmlns="http://www.w3.org/2000/svg">
<rect width="1300" height="401" rx="24" fill="#262626"/>
<path d="M790.733 207V196.818H791.966V205.906H796.699V207H790.733ZM800.696 207.179C800.212 207.179 799.773 207.088 799.379 206.906C798.984 206.72 798.671 206.453 798.439 206.105C798.207 205.754 798.091 205.33 798.091 204.832C798.091 204.395 798.177 204.04 798.349 203.768C798.522 203.493 798.752 203.278 799.04 203.122C799.329 202.966 799.647 202.85 799.995 202.774C800.346 202.695 800.699 202.632 801.054 202.585C801.518 202.526 801.894 202.481 802.183 202.451C802.474 202.418 802.686 202.363 802.819 202.287C802.955 202.211 803.023 202.078 803.023 201.889V201.849C803.023 201.359 802.888 200.978 802.62 200.706C802.355 200.434 801.952 200.298 801.412 200.298C800.852 200.298 800.413 200.421 800.094 200.666C799.776 200.911 799.553 201.173 799.423 201.452L798.31 201.054C798.509 200.59 798.774 200.229 799.105 199.97C799.44 199.708 799.804 199.526 800.199 199.423C800.597 199.317 800.988 199.264 801.372 199.264C801.617 199.264 801.899 199.294 802.217 199.354C802.539 199.41 802.849 199.528 803.147 199.707C803.449 199.886 803.699 200.156 803.898 200.517C804.097 200.878 804.196 201.362 804.196 201.969V207H803.023V205.966H802.963C802.884 206.132 802.751 206.309 802.565 206.498C802.38 206.687 802.133 206.848 801.825 206.98C801.516 207.113 801.14 207.179 800.696 207.179ZM800.875 206.125C801.339 206.125 801.73 206.034 802.048 205.852C802.37 205.669 802.612 205.434 802.774 205.146C802.94 204.857 803.023 204.554 803.023 204.236V203.162C802.973 203.222 802.864 203.276 802.695 203.326C802.529 203.372 802.337 203.414 802.118 203.45C801.902 203.483 801.692 203.513 801.487 203.54C801.284 203.563 801.12 203.583 800.994 203.599C800.689 203.639 800.404 203.704 800.139 203.793C799.877 203.879 799.665 204.01 799.503 204.186C799.344 204.358 799.264 204.594 799.264 204.892C799.264 205.3 799.415 205.608 799.717 205.817C800.022 206.022 800.408 206.125 800.875 206.125ZM806.497 207V196.818H807.67V200.577H807.769C807.856 200.444 807.975 200.275 808.127 200.07C808.283 199.861 808.505 199.675 808.794 199.513C809.085 199.347 809.48 199.264 809.977 199.264C810.62 199.264 811.186 199.425 811.677 199.746C812.168 200.068 812.55 200.524 812.825 201.114C813.101 201.704 813.238 202.4 813.238 203.202C813.238 204.01 813.101 204.711 812.825 205.305C812.55 205.895 812.169 206.352 811.682 206.677C811.195 206.998 810.633 207.159 809.997 207.159C809.506 207.159 809.113 207.078 808.818 206.915C808.523 206.75 808.296 206.562 808.137 206.354C807.978 206.142 807.856 205.966 807.769 205.827H807.63V207H806.497ZM807.65 203.182C807.65 203.759 807.735 204.267 807.904 204.708C808.073 205.146 808.32 205.489 808.644 205.737C808.969 205.982 809.367 206.105 809.838 206.105C810.328 206.105 810.737 205.976 811.066 205.717C811.397 205.455 811.646 205.104 811.811 204.663C811.98 204.219 812.065 203.725 812.065 203.182C812.065 202.645 811.982 202.161 811.816 201.73C811.654 201.296 811.407 200.953 811.075 200.701C810.747 200.446 810.335 200.318 809.838 200.318C809.36 200.318 808.959 200.439 808.634 200.681C808.31 200.92 808.064 201.254 807.899 201.685C807.733 202.113 807.65 202.612 807.65 203.182ZM818.235 207.159C817.499 207.159 816.864 206.997 816.33 206.672C815.8 206.344 815.391 205.886 815.102 205.3C814.817 204.71 814.675 204.024 814.675 203.241C814.675 202.459 814.817 201.77 815.102 201.173C815.391 200.573 815.792 200.106 816.306 199.771C816.823 199.433 817.426 199.264 818.115 199.264C818.513 199.264 818.906 199.33 819.294 199.463C819.681 199.596 820.034 199.811 820.352 200.109C820.671 200.404 820.924 200.795 821.113 201.283C821.302 201.77 821.396 202.37 821.396 203.082V203.58H815.51V202.565H820.203C820.203 202.134 820.117 201.75 819.945 201.412C819.776 201.074 819.534 200.807 819.219 200.612C818.907 200.416 818.539 200.318 818.115 200.318C817.648 200.318 817.244 200.434 816.902 200.666C816.564 200.895 816.304 201.193 816.122 201.561C815.939 201.929 815.848 202.323 815.848 202.744V203.42C815.848 203.997 815.948 204.486 816.146 204.887C816.349 205.285 816.629 205.588 816.987 205.797C817.345 206.002 817.761 206.105 818.235 206.105C818.543 206.105 818.821 206.062 819.07 205.976C819.322 205.886 819.539 205.754 819.721 205.578C819.903 205.399 820.044 205.177 820.144 204.912L821.277 205.23C821.158 205.615 820.957 205.953 820.676 206.244C820.394 206.533 820.046 206.758 819.632 206.92C819.217 207.08 818.752 207.159 818.235 207.159ZM824.355 196.818V207H823.181V196.818H824.355ZM830.043 197.912V196.818H837.68V197.912H834.478V207H833.245V197.912H830.043ZM841.518 207.159C840.782 207.159 840.147 206.997 839.614 206.672C839.083 206.344 838.674 205.886 838.386 205.3C838.101 204.71 837.958 204.024 837.958 203.241C837.958 202.459 838.101 201.77 838.386 201.173C838.674 200.573 839.075 200.106 839.589 199.771C840.106 199.433 840.709 199.264 841.398 199.264C841.796 199.264 842.189 199.33 842.577 199.463C842.964 199.596 843.317 199.811 843.636 200.109C843.954 200.404 844.207 200.795 844.396 201.283C844.585 201.77 844.68 202.37 844.68 203.082V203.58H838.793V202.565H843.487C843.487 202.134 843.4 201.75 843.228 201.412C843.059 201.074 842.817 200.807 842.502 200.612C842.191 200.416 841.823 200.318 841.398 200.318C840.931 200.318 840.527 200.434 840.185 200.666C839.847 200.895 839.587 201.193 839.405 201.561C839.223 201.929 839.131 202.323 839.131 202.744V203.42C839.131 203.997 839.231 204.486 839.43 204.887C839.632 205.285 839.912 205.588 840.27 205.797C840.628 206.002 841.044 206.105 841.518 206.105C841.826 206.105 842.104 206.062 842.353 205.976C842.605 205.886 842.822 205.754 843.004 205.578C843.187 205.399 843.327 205.177 843.427 204.912L844.56 205.23C844.441 205.615 844.241 205.953 843.959 206.244C843.677 206.533 843.329 206.758 842.915 206.92C842.5 207.08 842.035 207.159 841.518 207.159ZM847.134 199.364L848.964 202.486L850.794 199.364H852.146L849.68 203.182L852.146 207H850.794L848.964 204.037L847.134 207H845.782L848.208 203.182L845.782 199.364H847.134ZM857.141 199.364V200.358H853.184V199.364H857.141ZM854.337 197.534H855.51V204.812C855.51 205.144 855.558 205.393 855.654 205.558C855.754 205.721 855.88 205.83 856.032 205.886C856.188 205.939 856.352 205.966 856.525 205.966C856.654 205.966 856.76 205.959 856.843 205.946C856.926 205.929 856.992 205.916 857.042 205.906L857.28 206.96C857.201 206.99 857.09 207.02 856.947 207.05C856.805 207.083 856.624 207.099 856.405 207.099C856.074 207.099 855.749 207.028 855.431 206.886C855.116 206.743 854.854 206.526 854.645 206.234C854.44 205.943 854.337 205.575 854.337 205.131V197.534Z" fill="white" fill-opacity="0.95"/>
<rect x="866.5" y="200" width="138" height="4" rx="2" fill="#8F8F8F"/>
<rect x="866.5" y="200" width="69" height="4" rx="2" fill="#3492EB"/>
<path d="M1013.73 207V196.818H1014.97V201.352H1020.39V196.818H1021.63V207H1020.39V202.446H1014.97V207H1013.73ZM1027.14 207.159C1026.4 207.159 1025.77 206.997 1025.23 206.672C1024.7 206.344 1024.3 205.886 1024.01 205.3C1023.72 204.71 1023.58 204.024 1023.58 203.241C1023.58 202.459 1023.72 201.77 1024.01 201.173C1024.3 200.573 1024.7 200.106 1025.21 199.771C1025.73 199.433 1026.33 199.264 1027.02 199.264C1027.42 199.264 1027.81 199.33 1028.2 199.463C1028.59 199.596 1028.94 199.811 1029.26 200.109C1029.57 200.404 1029.83 200.795 1030.02 201.283C1030.21 201.77 1030.3 202.37 1030.3 203.082V203.58H1024.41V202.565H1029.11C1029.11 202.134 1029.02 201.75 1028.85 201.412C1028.68 201.074 1028.44 200.807 1028.12 200.612C1027.81 200.416 1027.44 200.318 1027.02 200.318C1026.55 200.318 1026.15 200.434 1025.81 200.666C1025.47 200.895 1025.21 201.193 1025.03 201.561C1024.84 201.929 1024.75 202.323 1024.75 202.744V203.42C1024.75 203.997 1024.85 204.486 1025.05 204.887C1025.25 205.285 1025.53 205.588 1025.89 205.797C1026.25 206.002 1026.66 206.105 1027.14 206.105C1027.45 206.105 1027.73 206.062 1027.97 205.976C1028.23 205.886 1028.44 205.754 1028.63 205.578C1028.81 205.399 1028.95 205.177 1029.05 204.912L1030.18 205.23C1030.06 205.615 1029.86 205.953 1029.58 206.244C1029.3 206.533 1028.95 206.758 1028.54 206.92C1028.12 207.08 1027.66 207.159 1027.14 207.159ZM1033.26 196.818V207H1032.09V196.818H1033.26ZM1035.41 209.864V199.364H1036.54V200.577H1036.68C1036.77 200.444 1036.89 200.275 1037.04 200.07C1037.19 199.861 1037.42 199.675 1037.7 199.513C1038 199.347 1038.39 199.264 1038.89 199.264C1039.53 199.264 1040.1 199.425 1040.59 199.746C1041.08 200.068 1041.46 200.524 1041.74 201.114C1042.01 201.704 1042.15 202.4 1042.15 203.202C1042.15 204.01 1042.01 204.711 1041.74 205.305C1041.46 205.895 1041.08 206.352 1040.59 206.677C1040.11 206.998 1039.54 207.159 1038.91 207.159C1038.42 207.159 1038.02 207.078 1037.73 206.915C1037.43 206.75 1037.21 206.562 1037.05 206.354C1036.89 206.142 1036.77 205.966 1036.68 205.827H1036.58V209.864H1035.41ZM1036.56 203.182C1036.56 203.759 1036.65 204.267 1036.81 204.708C1036.98 205.146 1037.23 205.489 1037.56 205.737C1037.88 205.982 1038.28 206.105 1038.75 206.105C1039.24 206.105 1039.65 205.976 1039.98 205.717C1040.31 205.455 1040.56 205.104 1040.72 204.663C1040.89 204.219 1040.98 203.725 1040.98 203.182C1040.98 202.645 1040.89 202.161 1040.73 201.73C1040.57 201.296 1040.32 200.953 1039.99 200.701C1039.66 200.446 1039.25 200.318 1038.75 200.318C1038.27 200.318 1037.87 200.439 1037.55 200.681C1037.22 200.92 1036.98 201.254 1036.81 201.685C1036.64 202.113 1036.56 202.612 1036.56 203.182ZM1047.14 207.159C1046.41 207.159 1045.77 206.997 1045.24 206.672C1044.71 206.344 1044.3 205.886 1044.01 205.3C1043.72 204.71 1043.58 204.024 1043.58 203.241C1043.58 202.459 1043.72 201.77 1044.01 201.173C1044.3 200.573 1044.7 200.106 1045.21 199.771C1045.73 199.433 1046.33 199.264 1047.02 199.264C1047.42 199.264 1047.81 199.33 1048.2 199.463C1048.59 199.596 1048.94 199.811 1049.26 200.109C1049.58 200.404 1049.83 200.795 1050.02 201.283C1050.21 201.77 1050.3 202.37 1050.3 203.082V203.58H1044.42V202.565H1049.11C1049.11 202.134 1049.02 201.75 1048.85 201.412C1048.68 201.074 1048.44 200.807 1048.13 200.612C1047.81 200.416 1047.45 200.318 1047.02 200.318C1046.55 200.318 1046.15 200.434 1045.81 200.666C1045.47 200.895 1045.21 201.193 1045.03 201.561C1044.85 201.929 1044.75 202.323 1044.75 202.744V203.42C1044.75 203.997 1044.85 204.486 1045.05 204.887C1045.25 205.285 1045.53 205.588 1045.89 205.797C1046.25 206.002 1046.67 206.105 1047.14 206.105C1047.45 206.105 1047.73 206.062 1047.98 205.976C1048.23 205.886 1048.45 205.754 1048.63 205.578C1048.81 205.399 1048.95 205.177 1049.05 204.912L1050.18 205.23C1050.06 205.615 1049.86 205.953 1049.58 206.244C1049.3 206.533 1048.95 206.758 1048.54 206.92C1048.12 207.08 1047.66 207.159 1047.14 207.159ZM1052.09 207V199.364H1053.22V200.517H1053.3C1053.44 200.139 1053.69 199.833 1054.06 199.597C1054.42 199.362 1054.83 199.244 1055.29 199.244C1055.38 199.244 1055.48 199.246 1055.61 199.249C1055.74 199.253 1055.84 199.258 1055.91 199.264V200.457C1055.87 200.447 1055.77 200.433 1055.63 200.413C1055.49 200.389 1055.35 200.378 1055.19 200.378C1054.82 200.378 1054.49 200.456 1054.2 200.612C1053.91 200.764 1053.68 200.976 1053.51 201.248C1053.34 201.516 1053.26 201.823 1053.26 202.168V207H1052.09ZM1060.84 197.912V196.818H1068.47V197.912H1065.27V207H1064.04V197.912H1060.84ZM1072.31 207.159C1071.57 207.159 1070.94 206.997 1070.41 206.672C1069.88 206.344 1069.47 205.886 1069.18 205.3C1068.89 204.71 1068.75 204.024 1068.75 203.241C1068.75 202.459 1068.89 201.77 1069.18 201.173C1069.47 200.573 1069.87 200.106 1070.38 199.771C1070.9 199.433 1071.5 199.264 1072.19 199.264C1072.59 199.264 1072.98 199.33 1073.37 199.463C1073.76 199.596 1074.11 199.811 1074.43 200.109C1074.75 200.404 1075 200.795 1075.19 201.283C1075.38 201.77 1075.47 202.37 1075.47 203.082V203.58H1069.59V202.565H1074.28C1074.28 202.134 1074.19 201.75 1074.02 201.412C1073.85 201.074 1073.61 200.807 1073.3 200.612C1072.98 200.416 1072.62 200.318 1072.19 200.318C1071.72 200.318 1071.32 200.434 1070.98 200.666C1070.64 200.895 1070.38 201.193 1070.2 201.561C1070.02 201.929 1069.92 202.323 1069.92 202.744V203.42C1069.92 203.997 1070.02 204.486 1070.22 204.887C1070.42 205.285 1070.7 205.588 1071.06 205.797C1071.42 206.002 1071.84 206.105 1072.31 206.105C1072.62 206.105 1072.9 206.062 1073.15 205.976C1073.4 205.886 1073.61 205.754 1073.8 205.578C1073.98 205.399 1074.12 205.177 1074.22 204.912L1075.35 205.23C1075.23 205.615 1075.03 205.953 1074.75 206.244C1074.47 206.533 1074.12 206.758 1073.71 206.92C1073.29 207.08 1072.83 207.159 1072.31 207.159ZM1077.93 199.364L1079.76 202.486L1081.59 199.364H1082.94L1080.47 203.182L1082.94 207H1081.59L1079.76 204.037L1077.93 207H1076.58L1079 203.182L1076.58 199.364H1077.93ZM1087.93 199.364V200.358H1083.98V199.364H1087.93ZM1085.13 197.534H1086.3V204.812C1086.3 205.144 1086.35 205.393 1086.45 205.558C1086.55 205.721 1086.67 205.83 1086.83 205.886C1086.98 205.939 1087.15 205.966 1087.32 205.966C1087.45 205.966 1087.55 205.959 1087.64 205.946C1087.72 205.929 1087.78 205.916 1087.83 205.906L1088.07 206.96C1087.99 206.99 1087.88 207.02 1087.74 207.05C1087.6 207.083 1087.42 207.099 1087.2 207.099C1086.87 207.099 1086.54 207.028 1086.22 206.886C1085.91 206.743 1085.65 206.526 1085.44 206.234C1085.23 205.943 1085.13 205.575 1085.13 205.131V197.534Z" fill="white" fill-opacity="0.7"/>
<path d="M820 120V182" stroke="#DA0087"/>
<path d="M820 190L816 182H824L820 190Z" fill="#DA0087"/>
<rect x="769.5" y="100" width="101" height="28" rx="14" fill="#DA0087"/>
<path d="M782.7 107.48H784.348V117.544H789.772V119H782.7V107.48ZM792.76 113H791.128C791.213 112.168 791.608 111.523 792.312 111.064C792.941 110.648 793.736 110.44 794.696 110.44C795.837 110.44 796.712 110.739 797.32 111.336C797.832 111.848 798.088 112.509 798.088 113.32V119H796.824L796.632 117.864C795.981 118.781 795.053 119.24 793.848 119.24C792.899 119.24 792.157 118.984 791.624 118.472C791.187 118.045 790.968 117.507 790.968 116.856C790.968 116.035 791.251 115.4 791.816 114.952C792.317 114.557 793.085 114.269 794.12 114.088L796.552 113.672V113.256C796.552 112.712 796.365 112.301 795.992 112.024C795.661 111.779 795.208 111.656 794.632 111.656C793.501 111.656 792.877 112.104 792.76 113ZM794.216 117.944C794.867 117.944 795.432 117.731 795.912 117.304C796.339 116.909 796.552 116.456 796.552 115.944V114.872L794.488 115.24C793.731 115.368 793.213 115.565 792.936 115.832C792.712 116.045 792.6 116.333 792.6 116.696C792.6 117.101 792.739 117.411 793.016 117.624C793.293 117.837 793.693 117.944 794.216 117.944ZM801.509 119H800.245V107.48H801.781V111.832C802.432 110.904 803.36 110.44 804.565 110.44C805.76 110.44 806.688 110.867 807.349 111.72C807.936 112.488 808.229 113.507 808.229 114.776C808.229 116.28 807.829 117.432 807.029 118.232C806.357 118.904 805.498 119.24 804.453 119.24C803.269 119.24 802.368 118.792 801.749 117.896L801.509 119ZM806.629 114.744C806.629 113.699 806.368 112.915 805.845 112.392C805.429 111.965 804.885 111.752 804.213 111.752C803.434 111.752 802.816 112.035 802.357 112.6C801.92 113.144 801.701 113.859 801.701 114.744C801.701 115.811 801.962 116.627 802.485 117.192C802.922 117.683 803.498 117.928 804.213 117.928C805.013 117.928 805.621 117.635 806.037 117.048C806.432 116.504 806.629 115.736 806.629 114.744ZM815.659 116.6H817.323C817.088 117.443 816.624 118.104 815.931 118.584C815.28 119.021 814.502 119.24 813.595 119.24C812.283 119.24 811.259 118.824 810.523 117.992C809.851 117.213 809.515 116.163 809.515 114.84C809.515 113.336 809.942 112.195 810.795 111.416C811.499 110.765 812.406 110.44 813.515 110.44C814.816 110.44 815.798 110.861 816.459 111.704C817.099 112.515 817.419 113.672 817.419 115.176H811.083C811.147 116.157 811.446 116.888 811.979 117.368C812.416 117.752 812.971 117.944 813.643 117.944C814.166 117.944 814.619 117.8 815.003 117.512C815.323 117.267 815.542 116.963 815.659 116.6ZM813.547 111.672C812.864 111.672 812.315 111.885 811.899 112.312C811.504 112.707 811.254 113.256 811.147 113.96H815.851C815.798 113.16 815.531 112.563 815.051 112.168C814.667 111.837 814.166 111.672 813.547 111.672ZM820.797 107.48V119H819.261V107.48H820.797ZM836.207 107.48V108.936H832.335V119H830.703V108.936H826.879V107.48H836.207ZM841.862 116.6H843.526C843.291 117.443 842.827 118.104 842.134 118.584C841.483 119.021 840.705 119.24 839.798 119.24C838.486 119.24 837.462 118.824 836.726 117.992C836.054 117.213 835.718 116.163 835.718 114.84C835.718 113.336 836.145 112.195 836.998 111.416C837.702 110.765 838.609 110.44 839.718 110.44C841.019 110.44 842.001 110.861 842.662 111.704C843.302 112.515 843.622 113.672 843.622 115.176H837.286C837.35 116.157 837.649 116.888 838.182 117.368C838.619 117.752 839.174 117.944 839.846 117.944C840.369 117.944 840.822 117.8 841.206 117.512C841.526 117.267 841.745 116.963 841.862 116.6ZM839.75 111.672C839.067 111.672 838.518 111.885 838.102 112.312C837.707 112.707 837.457 113.256 837.35 113.96H842.054C842.001 113.16 841.734 112.563 841.254 112.168C840.87 111.837 840.369 111.672 839.75 111.672ZM852.168 110.68L849.384 114.568L852.648 119H850.776L848.52 115.784L846.312 119H844.504L847.608 114.68L844.696 110.68H846.536L848.52 113.48L850.408 110.68H852.168ZM857.645 117.768V119.08C857.25 119.187 856.871 119.24 856.509 119.24C855.741 119.24 855.165 119 854.781 118.52C854.45 118.125 854.285 117.597 854.285 116.936V111.992H853.053V110.68H854.285L854.381 108.68H855.821V110.68H857.613V111.992H855.821V116.968C855.821 117.587 856.114 117.896 856.701 117.896C856.978 117.896 857.293 117.853 857.645 117.768Z" fill="white"/>
<path d="M961 120V182" stroke="#DA0087"/>
<path d="M961 190L957 182H965L961 190Z" fill="#DA0087"/>
<rect x="901.5" y="100" width="119" height="28" rx="14" fill="#DA0087"/>
<path d="M914.7 107.48H918.844C920.241 107.48 921.287 107.789 921.98 108.408C922.567 108.931 922.86 109.64 922.86 110.536C922.86 111.112 922.657 111.635 922.252 112.104C921.911 112.509 921.495 112.776 921.004 112.904C921.665 113.021 922.209 113.368 922.636 113.944C923.02 114.467 923.212 115.069 923.212 115.752C923.212 116.851 922.791 117.683 921.948 118.248C921.191 118.749 920.145 119 918.812 119H914.7V107.48ZM919.116 113.592H916.332V117.672H919.052C920.695 117.672 921.516 117.032 921.516 115.752C921.516 114.312 920.716 113.592 919.116 113.592ZM918.972 108.712H916.332V112.344H919.068C919.804 112.344 920.359 112.157 920.732 111.784C921.052 111.464 921.212 111.048 921.212 110.536C921.212 109.928 920.988 109.464 920.54 109.144C920.156 108.856 919.633 108.712 918.972 108.712ZM926.37 113H924.738C924.823 112.168 925.218 111.523 925.922 111.064C926.551 110.648 927.346 110.44 928.306 110.44C929.447 110.44 930.322 110.739 930.93 111.336C931.442 111.848 931.698 112.509 931.698 113.32V119H930.434L930.242 117.864C929.591 118.781 928.663 119.24 927.458 119.24C926.508 119.24 925.767 118.984 925.234 118.472C924.796 118.045 924.578 117.507 924.578 116.856C924.578 116.035 924.86 115.4 925.426 114.952C925.927 114.557 926.695 114.269 927.73 114.088L930.162 113.672V113.256C930.162 112.712 929.975 112.301 929.602 112.024C929.271 111.779 928.818 111.656 928.242 111.656C927.111 111.656 926.487 112.104 926.37 113ZM927.826 117.944C928.476 117.944 929.042 117.731 929.522 117.304C929.948 116.909 930.162 116.456 930.162 115.944V114.872L928.098 115.24C927.34 115.368 926.823 115.565 926.546 115.832C926.322 116.045 926.21 116.333 926.21 116.696C926.21 117.101 926.348 117.411 926.626 117.624C926.903 117.837 927.303 117.944 927.826 117.944ZM935.39 119H933.854V110.68H935.118L935.326 111.912C935.796 110.931 936.5 110.44 937.438 110.44C937.748 110.44 938.052 110.477 938.35 110.552V112.088C937.988 111.992 937.662 111.944 937.374 111.944C936.756 111.944 936.27 112.195 935.918 112.696C935.566 113.197 935.39 113.907 935.39 114.824V119ZM944.434 107.48H946.066V119H944.434V107.48ZM949.922 119H948.386V110.68H949.65L949.826 111.736C950.444 110.872 951.287 110.44 952.354 110.44C953.335 110.44 954.087 110.744 954.61 111.352C955.068 111.896 955.298 112.637 955.298 113.576V119H953.762V113.592C953.762 112.365 953.17 111.752 951.986 111.752C951.367 111.752 950.86 111.965 950.466 112.392C950.103 112.776 949.922 113.267 949.922 113.864V119ZM964.968 119H963.704L963.432 117.832C962.792 118.771 961.869 119.24 960.664 119.24C959.501 119.24 958.584 118.819 957.912 117.976C957.293 117.197 956.984 116.168 956.984 114.888C956.984 113.341 957.378 112.179 958.168 111.4C958.829 110.76 959.693 110.44 960.76 110.44C961.912 110.44 962.802 110.872 963.432 111.736V107.48H964.968V119ZM958.584 114.92C958.584 115.955 958.84 116.739 959.352 117.272C959.778 117.709 960.328 117.928 961 117.928C961.832 117.928 962.477 117.613 962.936 116.984C963.32 116.44 963.512 115.757 963.512 114.936C963.512 113.859 963.256 113.037 962.744 112.472C962.306 111.992 961.725 111.752 961 111.752C960.189 111.752 959.576 112.045 959.16 112.632C958.776 113.165 958.584 113.928 958.584 114.92ZM968.846 109.288H967.118V107.48H968.846V109.288ZM968.75 119H967.214V110.68H968.75V119ZM976.419 116.328H978.099C977.971 117.224 977.55 117.944 976.835 118.488C976.184 118.989 975.39 119.24 974.451 119.24C973.224 119.24 972.248 118.819 971.523 117.976C970.851 117.197 970.515 116.173 970.515 114.904C970.515 113.432 970.92 112.291 971.731 111.48C972.424 110.787 973.326 110.44 974.435 110.44C975.459 110.44 976.302 110.712 976.963 111.256C977.55 111.736 977.907 112.365 978.035 113.144H976.339C976.232 112.696 976.014 112.349 975.683 112.104C975.363 111.859 974.958 111.736 974.467 111.736C973.71 111.736 973.128 112.035 972.723 112.632C972.339 113.187 972.147 113.96 972.147 114.952C972.147 115.987 972.403 116.771 972.915 117.304C973.32 117.731 973.843 117.944 974.483 117.944C975.038 117.944 975.491 117.784 975.843 117.464C976.152 117.187 976.344 116.808 976.419 116.328ZM981.166 113H979.534C979.62 112.168 980.014 111.523 980.718 111.064C981.348 110.648 982.142 110.44 983.102 110.44C984.244 110.44 985.118 110.739 985.726 111.336C986.238 111.848 986.494 112.509 986.494 113.32V119H985.23L985.038 117.864C984.388 118.781 983.46 119.24 982.254 119.24C981.305 119.24 980.564 118.984 980.03 118.472C979.593 118.045 979.374 117.507 979.374 116.856C979.374 116.035 979.657 115.4 980.222 114.952C980.724 114.557 981.492 114.269 982.526 114.088L984.958 113.672V113.256C984.958 112.712 984.772 112.301 984.398 112.024C984.068 111.779 983.614 111.656 983.038 111.656C981.908 111.656 981.284 112.104 981.166 113ZM982.622 117.944C983.273 117.944 983.838 117.731 984.318 117.304C984.745 116.909 984.958 116.456 984.958 115.944V114.872L982.894 115.24C982.137 115.368 981.62 115.565 981.342 115.832C981.118 116.045 981.006 116.333 981.006 116.696C981.006 117.101 981.145 117.411 981.422 117.624C981.7 117.837 982.1 117.944 982.622 117.944ZM992.363 117.768V119.08C991.969 119.187 991.59 119.24 991.227 119.24C990.459 119.24 989.883 119 989.499 118.52C989.169 118.125 989.003 117.597 989.003 116.936V111.992H987.771V110.68H989.003L989.099 108.68H990.539V110.68H992.331V111.992H990.539V116.968C990.539 117.587 990.833 117.896 991.419 117.896C991.697 117.896 992.011 117.853 992.363 117.768ZM993.249 114.84C993.249 113.315 993.703 112.163 994.609 111.384C995.335 110.755 996.252 110.44 997.361 110.44C998.652 110.44 999.665 110.851 1000.4 111.672C1001.11 112.44 1001.46 113.496 1001.46 114.84C1001.46 116.344 1001.01 117.491 1000.13 118.28C999.404 118.92 998.476 119.24 997.345 119.24C996.055 119.24 995.036 118.813 994.289 117.96C993.596 117.181 993.249 116.141 993.249 114.84ZM994.849 114.84C994.849 115.907 995.121 116.723 995.665 117.288C996.113 117.757 996.684 117.992 997.377 117.992C998.188 117.992 998.812 117.688 999.249 117.08C999.655 116.525 999.857 115.779 999.857 114.84C999.857 113.752 999.591 112.931 999.057 112.376C998.62 111.917 998.055 111.688 997.361 111.688C996.561 111.688 995.937 111.992 995.489 112.6C995.063 113.155 994.849 113.901 994.849 114.84ZM1004.75 119H1003.21V110.68H1004.48L1004.69 111.912C1005.16 110.931 1005.86 110.44 1006.8 110.44C1007.11 110.44 1007.41 110.477 1007.71 110.552V112.088C1007.35 111.992 1007.02 111.944 1006.73 111.944C1006.12 111.944 1005.63 112.195 1005.28 112.696C1004.93 113.197 1004.75 113.907 1004.75 114.824V119Z" fill="white"/>
<path d="M917.5 281V224" stroke="#DA0087"/>
<path d="M917.5 216L913.5 224H921.5L917.5 216Z" fill="#DA0087"/>
<rect x="870.5" y="273" width="94" height="28" rx="14" fill="#DA0087"/>
<path d="M883.7 280.48H887.844C889.241 280.48 890.287 280.789 890.98 281.408C891.567 281.931 891.86 282.64 891.86 283.536C891.86 284.112 891.657 284.635 891.252 285.104C890.911 285.509 890.495 285.776 890.004 285.904C890.665 286.021 891.209 286.368 891.636 286.944C892.02 287.467 892.212 288.069 892.212 288.752C892.212 289.851 891.791 290.683 890.948 291.248C890.191 291.749 889.145 292 887.812 292H883.7V280.48ZM888.116 286.592H885.332V290.672H888.052C889.695 290.672 890.516 290.032 890.516 288.752C890.516 287.312 889.716 286.592 888.116 286.592ZM887.972 281.712H885.332V285.344H888.068C888.804 285.344 889.359 285.157 889.732 284.784C890.052 284.464 890.212 284.048 890.212 283.536C890.212 282.928 889.988 282.464 889.54 282.144C889.156 281.856 888.633 281.712 887.972 281.712ZM895.37 286H893.738C893.823 285.168 894.218 284.523 894.922 284.064C895.551 283.648 896.346 283.44 897.306 283.44C898.447 283.44 899.322 283.739 899.93 284.336C900.442 284.848 900.698 285.509 900.698 286.32V292H899.434L899.242 290.864C898.591 291.781 897.663 292.24 896.458 292.24C895.508 292.24 894.767 291.984 894.234 291.472C893.796 291.045 893.578 290.507 893.578 289.856C893.578 289.035 893.86 288.4 894.426 287.952C894.927 287.557 895.695 287.269 896.73 287.088L899.162 286.672V286.256C899.162 285.712 898.975 285.301 898.602 285.024C898.271 284.779 897.818 284.656 897.242 284.656C896.111 284.656 895.487 285.104 895.37 286ZM896.826 290.944C897.476 290.944 898.042 290.731 898.522 290.304C898.948 289.909 899.162 289.456 899.162 288.944V287.872L897.098 288.24C896.34 288.368 895.823 288.565 895.546 288.832C895.322 289.045 895.21 289.333 895.21 289.696C895.21 290.101 895.348 290.411 895.626 290.624C895.903 290.837 896.303 290.944 896.826 290.944ZM904.39 292H902.854V283.68H904.118L904.326 284.912C904.796 283.931 905.5 283.44 906.438 283.44C906.748 283.44 907.052 283.477 907.35 283.552V285.088C906.988 284.992 906.662 284.944 906.374 284.944C905.756 284.944 905.27 285.195 904.918 285.696C904.566 286.197 904.39 286.907 904.39 287.824V292ZM921.722 280.48V281.936H917.85V292H916.218V281.936H912.394V280.48H921.722ZM923.484 292H921.948V283.68H923.212L923.42 284.912C923.889 283.931 924.593 283.44 925.532 283.44C925.841 283.44 926.145 283.477 926.444 283.552V285.088C926.081 284.992 925.756 284.944 925.468 284.944C924.849 284.944 924.364 285.195 924.012 285.696C923.66 286.197 923.484 286.907 923.484 287.824V292ZM928.963 286H927.331C927.417 285.168 927.811 284.523 928.515 284.064C929.145 283.648 929.939 283.44 930.899 283.44C932.041 283.44 932.915 283.739 933.523 284.336C934.035 284.848 934.291 285.509 934.291 286.32V292H933.027L932.835 290.864C932.185 291.781 931.257 292.24 930.051 292.24C929.102 292.24 928.361 291.984 927.827 291.472C927.39 291.045 927.171 290.507 927.171 289.856C927.171 289.035 927.454 288.4 928.019 287.952C928.521 287.557 929.289 287.269 930.323 287.088L932.755 286.672V286.256C932.755 285.712 932.569 285.301 932.195 285.024C931.865 284.779 931.411 284.656 930.835 284.656C929.705 284.656 929.081 285.104 928.963 286ZM930.419 290.944C931.07 290.944 931.635 290.731 932.115 290.304C932.542 289.909 932.755 289.456 932.755 288.944V287.872L930.691 288.24C929.934 288.368 929.417 288.565 929.139 288.832C928.915 289.045 928.803 289.333 928.803 289.696C928.803 290.101 928.942 290.411 929.219 290.624C929.497 290.837 929.897 290.944 930.419 290.944ZM941.872 289.328H943.552C943.424 290.224 943.003 290.944 942.288 291.488C941.637 291.989 940.843 292.24 939.904 292.24C938.677 292.24 937.701 291.819 936.976 290.976C936.304 290.197 935.968 289.173 935.968 287.904C935.968 286.432 936.373 285.291 937.184 284.48C937.877 283.787 938.779 283.44 939.888 283.44C940.912 283.44 941.755 283.712 942.416 284.256C943.003 284.736 943.36 285.365 943.488 286.144H941.792C941.685 285.696 941.467 285.349 941.136 285.104C940.816 284.859 940.411 284.736 939.92 284.736C939.163 284.736 938.581 285.035 938.176 285.632C937.792 286.187 937.6 286.96 937.6 287.952C937.6 288.987 937.856 289.771 938.368 290.304C938.773 290.731 939.296 290.944 939.936 290.944C940.491 290.944 940.944 290.784 941.296 290.464C941.605 290.187 941.797 289.808 941.872 289.328ZM946.844 292H945.308V280.48H946.844V286.912L950.108 283.68H952.124L948.38 287.296L952.588 292H950.54L946.844 287.808V292Z" fill="white"/>
<path d="M1065.5 281V224" stroke="#DA0087"/>
<path d="M1065.5 216L1061.5 224H1069.5L1065.5 216Z" fill="#DA0087"/>
<rect x="1010.5" y="273" width="110" height="28" rx="14" fill="#DA0087"/>
<path d="M1030.96 280.48H1032.61V292H1030.96V286.864H1025.33V292H1023.7V280.48H1025.33V285.488H1030.96V280.48ZM1040.6 289.6H1042.26C1042.03 290.443 1041.56 291.104 1040.87 291.584C1040.22 292.021 1039.44 292.24 1038.53 292.24C1037.22 292.24 1036.2 291.824 1035.46 290.992C1034.79 290.213 1034.45 289.163 1034.45 287.84C1034.45 286.336 1034.88 285.195 1035.73 284.416C1036.44 283.765 1037.34 283.44 1038.45 283.44C1039.75 283.44 1040.74 283.861 1041.4 284.704C1042.04 285.515 1042.36 286.672 1042.36 288.176H1036.02C1036.08 289.157 1036.38 289.888 1036.92 290.368C1037.35 290.752 1037.91 290.944 1038.58 290.944C1039.1 290.944 1039.56 290.8 1039.94 290.512C1040.26 290.267 1040.48 289.963 1040.6 289.6ZM1038.48 284.672C1037.8 284.672 1037.25 284.885 1036.84 285.312C1036.44 285.707 1036.19 286.256 1036.08 286.96H1040.79C1040.74 286.16 1040.47 285.563 1039.99 285.168C1039.6 284.837 1039.1 284.672 1038.48 284.672ZM1045.73 280.48V292H1044.2V280.48H1045.73ZM1047.98 283.68H1049.24L1049.48 284.768C1050.17 283.883 1051.1 283.44 1052.3 283.44C1053.49 283.44 1054.42 283.867 1055.08 284.72C1055.67 285.488 1055.96 286.507 1055.96 287.776C1055.96 289.28 1055.56 290.432 1054.76 291.232C1054.09 291.904 1053.23 292.24 1052.19 292.24C1051 292.24 1050.11 291.803 1049.52 290.928V294.88H1047.98V283.68ZM1054.36 287.744C1054.36 286.699 1054.1 285.915 1053.58 285.392C1053.16 284.965 1052.62 284.752 1051.95 284.752C1051.17 284.752 1050.55 285.035 1050.09 285.6C1049.65 286.144 1049.44 286.859 1049.44 287.744C1049.44 288.811 1049.7 289.627 1050.22 290.192C1050.66 290.683 1051.23 290.928 1051.95 290.928C1052.75 290.928 1053.36 290.635 1053.77 290.048C1054.17 289.504 1054.36 288.736 1054.36 287.744ZM1063.39 289.6H1065.06C1064.82 290.443 1064.36 291.104 1063.67 291.584C1063.01 292.021 1062.24 292.24 1061.33 292.24C1060.02 292.24 1058.99 291.824 1058.26 290.992C1057.59 290.213 1057.25 289.163 1057.25 287.84C1057.25 286.336 1057.68 285.195 1058.53 284.416C1059.23 283.765 1060.14 283.44 1061.25 283.44C1062.55 283.44 1063.53 283.861 1064.19 284.704C1064.83 285.515 1065.15 286.672 1065.15 288.176H1058.82C1058.88 289.157 1059.18 289.888 1059.71 290.368C1060.15 290.752 1060.71 290.944 1061.38 290.944C1061.9 290.944 1062.35 290.8 1062.74 290.512C1063.06 290.267 1063.28 289.963 1063.39 289.6ZM1061.28 284.672C1060.6 284.672 1060.05 284.885 1059.63 285.312C1059.24 285.707 1058.99 286.256 1058.88 286.96H1063.59C1063.53 286.16 1063.27 285.563 1062.79 285.168C1062.4 284.837 1061.9 284.672 1061.28 284.672ZM1068.53 292H1067V283.68H1068.26L1068.47 284.912C1068.94 283.931 1069.64 283.44 1070.58 283.44C1070.89 283.44 1071.19 283.477 1071.49 283.552V285.088C1071.13 284.992 1070.8 284.944 1070.52 284.944C1069.9 284.944 1069.41 285.195 1069.06 285.696C1068.71 286.197 1068.53 286.907 1068.53 287.824V292ZM1085.86 280.48V281.936H1081.99V292H1080.36V281.936H1076.54V280.48H1085.86ZM1091.52 289.6H1093.18C1092.95 290.443 1092.48 291.104 1091.79 291.584C1091.14 292.021 1090.36 292.24 1089.45 292.24C1088.14 292.24 1087.12 291.824 1086.38 290.992C1085.71 290.213 1085.37 289.163 1085.37 287.84C1085.37 286.336 1085.8 285.195 1086.65 284.416C1087.36 283.765 1088.27 283.44 1089.37 283.44C1090.68 283.44 1091.66 283.861 1092.32 284.704C1092.96 285.515 1093.28 286.672 1093.28 288.176H1086.94C1087.01 289.157 1087.31 289.888 1087.84 290.368C1088.28 290.752 1088.83 290.944 1089.5 290.944C1090.03 290.944 1090.48 290.8 1090.86 290.512C1091.18 290.267 1091.4 289.963 1091.52 289.6ZM1089.41 284.672C1088.72 284.672 1088.17 284.885 1087.76 285.312C1087.36 285.707 1087.11 286.256 1087.01 286.96H1091.71C1091.66 286.16 1091.39 285.563 1090.91 285.168C1090.53 284.837 1090.03 284.672 1089.41 284.672ZM1101.82 283.68L1099.04 287.568L1102.3 292H1100.43L1098.18 288.784L1095.97 292H1094.16L1097.26 287.68L1094.35 283.68H1096.19L1098.18 286.48L1100.06 283.68H1101.82ZM1107.3 290.768V292.08C1106.91 292.187 1106.53 292.24 1106.16 292.24C1105.4 292.24 1104.82 292 1104.44 291.52C1104.11 291.125 1103.94 290.597 1103.94 289.936V284.992H1102.71V283.68H1103.94L1104.04 281.68H1105.48V283.68H1107.27V284.992H1105.48V289.968C1105.48 290.587 1105.77 290.896 1106.36 290.896C1106.63 290.896 1106.95 290.853 1107.3 290.768Z" fill="white"/>
<path d="M334.733 184V173.818H335.966V182.906H340.699V184H334.733ZM344.696 184.179C344.212 184.179 343.773 184.088 343.379 183.906C342.984 183.72 342.671 183.453 342.439 183.105C342.207 182.754 342.091 182.33 342.091 181.832C342.091 181.395 342.177 181.04 342.349 180.768C342.522 180.493 342.752 180.278 343.04 180.122C343.329 179.966 343.647 179.85 343.995 179.774C344.346 179.695 344.699 179.632 345.054 179.585C345.518 179.526 345.894 179.481 346.183 179.451C346.474 179.418 346.686 179.363 346.819 179.287C346.955 179.211 347.023 179.078 347.023 178.889V178.849C347.023 178.359 346.888 177.978 346.62 177.706C346.355 177.434 345.952 177.298 345.412 177.298C344.852 177.298 344.413 177.421 344.094 177.666C343.776 177.911 343.553 178.173 343.423 178.452L342.31 178.054C342.509 177.59 342.774 177.229 343.105 176.97C343.44 176.708 343.804 176.526 344.199 176.423C344.597 176.317 344.988 176.264 345.372 176.264C345.617 176.264 345.899 176.294 346.217 176.354C346.539 176.41 346.849 176.528 347.147 176.707C347.449 176.886 347.699 177.156 347.898 177.517C348.097 177.878 348.196 178.362 348.196 178.969V184H347.023V182.966H346.963C346.884 183.132 346.751 183.309 346.565 183.498C346.38 183.687 346.133 183.848 345.825 183.98C345.516 184.113 345.14 184.179 344.696 184.179ZM344.875 183.125C345.339 183.125 345.73 183.034 346.048 182.852C346.37 182.669 346.612 182.434 346.774 182.146C346.94 181.857 347.023 181.554 347.023 181.236V180.162C346.973 180.222 346.864 180.276 346.695 180.326C346.529 180.372 346.337 180.414 346.118 180.45C345.902 180.483 345.692 180.513 345.487 180.54C345.284 180.563 345.12 180.583 344.994 180.599C344.689 180.639 344.404 180.704 344.139 180.793C343.877 180.879 343.665 181.01 343.503 181.186C343.344 181.358 343.264 181.594 343.264 181.892C343.264 182.3 343.415 182.608 343.717 182.817C344.022 183.022 344.408 183.125 344.875 183.125ZM350.497 184V173.818H351.67V177.577H351.769C351.856 177.444 351.975 177.275 352.127 177.07C352.283 176.861 352.505 176.675 352.794 176.513C353.085 176.347 353.48 176.264 353.977 176.264C354.62 176.264 355.186 176.425 355.677 176.746C356.168 177.068 356.55 177.524 356.825 178.114C357.101 178.704 357.238 179.4 357.238 180.202C357.238 181.01 357.101 181.711 356.825 182.305C356.55 182.895 356.169 183.352 355.682 183.677C355.195 183.998 354.633 184.159 353.997 184.159C353.506 184.159 353.113 184.078 352.818 183.915C352.523 183.75 352.296 183.562 352.137 183.354C351.978 183.142 351.856 182.966 351.769 182.827H351.63V184H350.497ZM351.65 180.182C351.65 180.759 351.735 181.267 351.904 181.708C352.073 182.146 352.32 182.489 352.644 182.737C352.969 182.982 353.367 183.105 353.838 183.105C354.328 183.105 354.737 182.976 355.066 182.717C355.397 182.455 355.646 182.104 355.811 181.663C355.98 181.219 356.065 180.725 356.065 180.182C356.065 179.645 355.982 179.161 355.816 178.73C355.654 178.296 355.407 177.953 355.075 177.701C354.747 177.446 354.335 177.318 353.838 177.318C353.36 177.318 352.959 177.439 352.634 177.681C352.31 177.92 352.064 178.254 351.899 178.685C351.733 179.113 351.65 179.612 351.65 180.182ZM362.235 184.159C361.499 184.159 360.864 183.997 360.33 183.672C359.8 183.344 359.391 182.886 359.102 182.3C358.817 181.71 358.675 181.024 358.675 180.241C358.675 179.459 358.817 178.77 359.102 178.173C359.391 177.573 359.792 177.106 360.306 176.771C360.823 176.433 361.426 176.264 362.115 176.264C362.513 176.264 362.906 176.33 363.294 176.463C363.681 176.596 364.034 176.811 364.352 177.109C364.671 177.404 364.924 177.795 365.113 178.283C365.302 178.77 365.396 179.37 365.396 180.082V180.58H359.51V179.565H364.203C364.203 179.134 364.117 178.75 363.945 178.412C363.776 178.074 363.534 177.807 363.219 177.612C362.907 177.416 362.539 177.318 362.115 177.318C361.648 177.318 361.244 177.434 360.902 177.666C360.564 177.895 360.304 178.193 360.122 178.561C359.939 178.929 359.848 179.323 359.848 179.744V180.42C359.848 180.997 359.948 181.486 360.146 181.887C360.349 182.285 360.629 182.588 360.987 182.797C361.345 183.002 361.761 183.105 362.235 183.105C362.543 183.105 362.821 183.062 363.07 182.976C363.322 182.886 363.539 182.754 363.721 182.578C363.903 182.399 364.044 182.177 364.144 181.912L365.277 182.23C365.158 182.615 364.957 182.953 364.676 183.244C364.394 183.533 364.046 183.758 363.632 183.92C363.217 184.08 362.752 184.159 362.235 184.159ZM368.355 173.818V184H367.181V173.818H368.355ZM374.043 174.912V173.818H381.68V174.912H378.478V184H377.245V174.912H374.043ZM385.518 184.159C384.782 184.159 384.147 183.997 383.614 183.672C383.083 183.344 382.674 182.886 382.386 182.3C382.101 181.71 381.958 181.024 381.958 180.241C381.958 179.459 382.101 178.77 382.386 178.173C382.674 177.573 383.075 177.106 383.589 176.771C384.106 176.433 384.709 176.264 385.398 176.264C385.796 176.264 386.189 176.33 386.577 176.463C386.964 176.596 387.317 176.811 387.636 177.109C387.954 177.404 388.207 177.795 388.396 178.283C388.585 178.77 388.68 179.37 388.68 180.082V180.58H382.793V179.565H387.487C387.487 179.134 387.4 178.75 387.228 178.412C387.059 178.074 386.817 177.807 386.502 177.612C386.191 177.416 385.823 177.318 385.398 177.318C384.931 177.318 384.527 177.434 384.185 177.666C383.847 177.895 383.587 178.193 383.405 178.561C383.223 178.929 383.131 179.323 383.131 179.744V180.42C383.131 180.997 383.231 181.486 383.43 181.887C383.632 182.285 383.912 182.588 384.27 182.797C384.628 183.002 385.044 183.105 385.518 183.105C385.826 183.105 386.104 183.062 386.353 182.976C386.605 182.886 386.822 182.754 387.004 182.578C387.187 182.399 387.327 182.177 387.427 181.912L388.56 182.23C388.441 182.615 388.241 182.953 387.959 183.244C387.677 183.533 387.329 183.758 386.915 183.92C386.5 184.08 386.035 184.159 385.518 184.159ZM391.134 176.364L392.964 179.486L394.794 176.364H396.146L393.68 180.182L396.146 184H394.794L392.964 181.037L391.134 184H389.782L392.208 180.182L389.782 176.364H391.134ZM401.141 176.364V177.358H397.184V176.364H401.141ZM398.337 174.534H399.51V181.812C399.51 182.144 399.558 182.393 399.654 182.558C399.754 182.721 399.88 182.83 400.032 182.886C400.188 182.939 400.352 182.966 400.525 182.966C400.654 182.966 400.76 182.959 400.843 182.946C400.926 182.929 400.992 182.916 401.042 182.906L401.28 183.96C401.201 183.99 401.09 184.02 400.947 184.05C400.805 184.083 400.624 184.099 400.405 184.099C400.074 184.099 399.749 184.028 399.431 183.886C399.116 183.743 398.854 183.526 398.645 183.234C398.44 182.943 398.337 182.575 398.337 182.131V174.534Z" fill="white" fill-opacity="0.95"/>
<path d="M607.118 184L611.672 174.991V174.912H606.422V173.818H612.945V174.972L608.411 184H607.118ZM617.843 184.139C617.26 184.139 616.735 184.023 616.267 183.791C615.8 183.559 615.425 183.241 615.144 182.837C614.862 182.432 614.708 181.972 614.681 181.455H615.874C615.921 181.915 616.13 182.296 616.501 182.598C616.875 182.896 617.323 183.045 617.843 183.045C618.261 183.045 618.632 182.948 618.957 182.752C619.285 182.557 619.542 182.288 619.727 181.947C619.916 181.602 620.011 181.213 620.011 180.778C620.011 180.334 619.913 179.938 619.718 179.59C619.525 179.239 619.26 178.962 618.922 178.76C618.584 178.558 618.198 178.455 617.764 178.452C617.452 178.448 617.132 178.496 616.804 178.596C616.476 178.692 616.206 178.816 615.994 178.969L614.84 178.83L615.457 173.818H620.747V174.912H616.491L616.133 177.915H616.193C616.401 177.749 616.663 177.612 616.978 177.502C617.293 177.393 617.621 177.338 617.963 177.338C618.586 177.338 619.141 177.487 619.628 177.786C620.119 178.08 620.503 178.485 620.781 178.999C621.063 179.512 621.204 180.099 621.204 180.759C621.204 181.408 621.058 181.988 620.767 182.499C620.478 183.006 620.08 183.407 619.573 183.702C619.066 183.993 618.49 184.139 617.843 184.139ZM628.369 182.091V181.554C628.369 181.183 628.446 180.843 628.598 180.535C628.754 180.223 628.979 179.975 629.274 179.789C629.572 179.6 629.934 179.506 630.358 179.506C630.789 179.506 631.15 179.6 631.442 179.789C631.733 179.975 631.954 180.223 632.103 180.535C632.252 180.843 632.327 181.183 632.327 181.554V182.091C632.327 182.462 632.25 182.804 632.098 183.115C631.949 183.423 631.727 183.672 631.432 183.861C631.14 184.046 630.782 184.139 630.358 184.139C629.927 184.139 629.564 184.046 629.269 183.861C628.974 183.672 628.75 183.423 628.598 183.115C628.446 182.804 628.369 182.462 628.369 182.091ZM629.384 181.554V182.091C629.384 182.399 629.456 182.676 629.602 182.921C629.748 183.163 630 183.284 630.358 183.284C630.706 183.284 630.951 183.163 631.094 182.921C631.24 182.676 631.312 182.399 631.312 182.091V181.554C631.312 181.246 631.243 180.971 631.104 180.729C630.964 180.483 630.716 180.361 630.358 180.361C630.01 180.361 629.76 180.483 629.607 180.729C629.458 180.971 629.384 181.246 629.384 181.554ZM623.298 176.264V175.727C623.298 175.356 623.375 175.016 623.527 174.708C623.683 174.397 623.908 174.148 624.203 173.962C624.501 173.773 624.863 173.679 625.287 173.679C625.718 173.679 626.079 173.773 626.371 173.962C626.662 174.148 626.883 174.397 627.032 174.708C627.181 175.016 627.256 175.356 627.256 175.727V176.264C627.256 176.635 627.179 176.977 627.027 177.288C626.878 177.597 626.656 177.845 626.361 178.034C626.069 178.22 625.711 178.312 625.287 178.312C624.856 178.312 624.493 178.22 624.198 178.034C623.903 177.845 623.679 177.597 623.527 177.288C623.375 176.977 623.298 176.635 623.298 176.264ZM624.312 175.727V176.264C624.312 176.572 624.385 176.849 624.531 177.094C624.677 177.336 624.929 177.457 625.287 177.457C625.635 177.457 625.88 177.336 626.023 177.094C626.169 176.849 626.241 176.572 626.241 176.264V175.727C626.241 175.419 626.172 175.144 626.033 174.902C625.893 174.657 625.645 174.534 625.287 174.534C624.939 174.534 624.689 174.657 624.536 174.902C624.387 175.144 624.312 175.419 624.312 175.727ZM623.676 184L630.676 173.818H631.81L624.81 184H623.676Z" fill="white" fill-opacity="0.95"/>
<rect x="333.5" y="197" width="300" height="8" rx="4" fill="#8F8F8F"/>
<rect x="333.5" y="197" width="225" height="8" rx="4" fill="#3492EB"/>
<path d="M334.733 228V217.818H335.966V222.352H341.395V217.818H342.628V228H341.395V223.446H335.966V228H334.733ZM348.139 228.159C347.403 228.159 346.768 227.997 346.235 227.672C345.704 227.344 345.295 226.886 345.007 226.3C344.722 225.71 344.579 225.024 344.579 224.241C344.579 223.459 344.722 222.77 345.007 222.173C345.295 221.573 345.696 221.106 346.21 220.771C346.727 220.433 347.33 220.264 348.02 220.264C348.417 220.264 348.81 220.33 349.198 220.463C349.586 220.596 349.939 220.811 350.257 221.109C350.575 221.404 350.828 221.795 351.017 222.283C351.206 222.77 351.301 223.37 351.301 224.082V224.58H345.414V223.565H350.108C350.108 223.134 350.021 222.75 349.849 222.412C349.68 222.074 349.438 221.807 349.123 221.612C348.812 221.416 348.444 221.318 348.02 221.318C347.552 221.318 347.148 221.434 346.806 221.666C346.468 221.895 346.208 222.193 346.026 222.561C345.844 222.929 345.752 223.323 345.752 223.744V224.42C345.752 224.997 345.852 225.486 346.051 225.887C346.253 226.285 346.533 226.588 346.891 226.797C347.249 227.002 347.665 227.105 348.139 227.105C348.447 227.105 348.725 227.062 348.974 226.976C349.226 226.886 349.443 226.754 349.625 226.578C349.808 226.399 349.949 226.177 350.048 225.912L351.181 226.23C351.062 226.615 350.862 226.953 350.58 227.244C350.298 227.533 349.95 227.758 349.536 227.92C349.122 228.08 348.656 228.159 348.139 228.159ZM354.259 217.818V228H353.086V217.818H354.259ZM356.408 230.864V220.364H357.541V221.577H357.681C357.767 221.444 357.886 221.275 358.039 221.07C358.194 220.861 358.416 220.675 358.705 220.513C358.996 220.347 359.391 220.264 359.888 220.264C360.531 220.264 361.098 220.425 361.588 220.746C362.079 221.068 362.462 221.524 362.737 222.114C363.012 222.704 363.149 223.4 363.149 224.202C363.149 225.01 363.012 225.711 362.737 226.305C362.462 226.895 362.08 227.352 361.593 227.677C361.106 227.998 360.544 228.159 359.908 228.159C359.417 228.159 359.025 228.078 358.73 227.915C358.435 227.75 358.208 227.562 358.048 227.354C357.889 227.142 357.767 226.966 357.681 226.827H357.581V230.864H356.408ZM357.561 224.182C357.561 224.759 357.646 225.267 357.815 225.708C357.984 226.146 358.231 226.489 358.556 226.737C358.88 226.982 359.278 227.105 359.749 227.105C360.239 227.105 360.649 226.976 360.977 226.717C361.308 226.455 361.557 226.104 361.722 225.663C361.892 225.219 361.976 224.725 361.976 224.182C361.976 223.645 361.893 223.161 361.727 222.73C361.565 222.296 361.318 221.953 360.987 221.701C360.659 221.446 360.246 221.318 359.749 221.318C359.271 221.318 358.87 221.439 358.546 221.681C358.221 221.92 357.976 222.254 357.81 222.685C357.644 223.113 357.561 223.612 357.561 224.182ZM368.141 228.159C367.405 228.159 366.77 227.997 366.237 227.672C365.706 227.344 365.297 226.886 365.009 226.3C364.724 225.71 364.581 225.024 364.581 224.241C364.581 223.459 364.724 222.77 365.009 222.173C365.297 221.573 365.698 221.106 366.212 220.771C366.729 220.433 367.332 220.264 368.021 220.264C368.419 220.264 368.812 220.33 369.2 220.463C369.588 220.596 369.941 220.811 370.259 221.109C370.577 221.404 370.83 221.795 371.019 222.283C371.208 222.77 371.303 223.37 371.303 224.082V224.58H365.416V223.565H370.11C370.11 223.134 370.023 222.75 369.851 222.412C369.682 222.074 369.44 221.807 369.125 221.612C368.814 221.416 368.446 221.318 368.021 221.318C367.554 221.318 367.15 221.434 366.808 221.666C366.47 221.895 366.21 222.193 366.028 222.561C365.846 222.929 365.754 223.323 365.754 223.744V224.42C365.754 224.997 365.854 225.486 366.053 225.887C366.255 226.285 366.535 226.588 366.893 226.797C367.251 227.002 367.667 227.105 368.141 227.105C368.449 227.105 368.727 227.062 368.976 226.976C369.228 226.886 369.445 226.754 369.627 226.578C369.81 226.399 369.95 226.177 370.05 225.912L371.183 226.23C371.064 226.615 370.864 226.953 370.582 227.244C370.3 227.533 369.952 227.758 369.538 227.92C369.124 228.08 368.658 228.159 368.141 228.159ZM373.088 228V220.364H374.221V221.517H374.301C374.44 221.139 374.692 220.833 375.056 220.597C375.421 220.362 375.832 220.244 376.289 220.244C376.375 220.244 376.483 220.246 376.612 220.249C376.742 220.253 376.839 220.258 376.906 220.264V221.457C376.866 221.447 376.775 221.433 376.632 221.413C376.493 221.389 376.346 221.378 376.19 221.378C375.819 221.378 375.487 221.456 375.195 221.612C374.907 221.764 374.678 221.976 374.509 222.248C374.344 222.516 374.261 222.823 374.261 223.168V228H373.088ZM381.836 218.912V217.818H389.473V218.912H386.271V228H385.038V218.912H381.836ZM393.311 228.159C392.575 228.159 391.94 227.997 391.407 227.672C390.876 227.344 390.467 226.886 390.179 226.3C389.894 225.71 389.751 225.024 389.751 224.241C389.751 223.459 389.894 222.77 390.179 222.173C390.467 221.573 390.868 221.106 391.382 220.771C391.899 220.433 392.502 220.264 393.191 220.264C393.589 220.264 393.982 220.33 394.37 220.463C394.757 220.596 395.11 220.811 395.429 221.109C395.747 221.404 396 221.795 396.189 222.283C396.378 222.77 396.473 223.37 396.473 224.082V224.58H390.586V223.565H395.279C395.279 223.134 395.193 222.75 395.021 222.412C394.852 222.074 394.61 221.807 394.295 221.612C393.984 221.416 393.616 221.318 393.191 221.318C392.724 221.318 392.32 221.434 391.978 221.666C391.64 221.895 391.38 222.193 391.198 222.561C391.016 222.929 390.924 223.323 390.924 223.744V224.42C390.924 224.997 391.024 225.486 391.223 225.887C391.425 226.285 391.705 226.588 392.063 226.797C392.421 227.002 392.837 227.105 393.311 227.105C393.619 227.105 393.897 227.062 394.146 226.976C394.398 226.886 394.615 226.754 394.797 226.578C394.98 226.399 395.12 226.177 395.22 225.912L396.353 226.23C396.234 226.615 396.033 226.953 395.752 227.244C395.47 227.533 395.122 227.758 394.708 227.92C394.293 228.08 393.828 228.159 393.311 228.159ZM398.927 220.364L400.757 223.486L402.586 220.364H403.939L401.473 224.182L403.939 228H402.586L400.757 225.037L398.927 228H397.575L400.001 224.182L397.575 220.364H398.927ZM408.934 220.364V221.358H404.977V220.364H408.934ZM406.13 218.534H407.303V225.812C407.303 226.144 407.351 226.393 407.447 226.558C407.547 226.721 407.673 226.83 407.825 226.886C407.981 226.939 408.145 226.966 408.317 226.966C408.447 226.966 408.553 226.959 408.636 226.946C408.719 226.929 408.785 226.916 408.835 226.906L409.073 227.96C408.994 227.99 408.883 228.02 408.74 228.05C408.598 228.083 408.417 228.099 408.198 228.099C407.867 228.099 407.542 228.028 407.224 227.886C406.909 227.743 406.647 227.526 406.438 227.234C406.233 226.943 406.13 226.575 406.13 226.131V218.534Z" fill="white" fill-opacity="0.7"/>
<path d="M363.5 120V154" stroke="#DA0087"/>
<path d="M363.5 162L359.5 154H367.5L363.5 162Z" fill="#DA0087"/>
<rect x="313" y="100" width="101" height="28" rx="14" fill="#DA0087"/>
<path d="M326.2 107.48H327.848V117.544H333.272V119H326.2V107.48ZM336.26 113H334.628C334.713 112.168 335.108 111.523 335.812 111.064C336.441 110.648 337.236 110.44 338.196 110.44C339.337 110.44 340.212 110.739 340.82 111.336C341.332 111.848 341.588 112.509 341.588 113.32V119H340.324L340.132 117.864C339.481 118.781 338.553 119.24 337.348 119.24C336.399 119.24 335.657 118.984 335.124 118.472C334.687 118.045 334.468 117.507 334.468 116.856C334.468 116.035 334.751 115.4 335.316 114.952C335.817 114.557 336.585 114.269 337.62 114.088L340.052 113.672V113.256C340.052 112.712 339.865 112.301 339.492 112.024C339.161 111.779 338.708 111.656 338.132 111.656C337.001 111.656 336.377 112.104 336.26 113ZM337.716 117.944C338.367 117.944 338.932 117.731 339.412 117.304C339.839 116.909 340.052 116.456 340.052 115.944V114.872L337.988 115.24C337.231 115.368 336.713 115.565 336.436 115.832C336.212 116.045 336.1 116.333 336.1 116.696C336.1 117.101 336.239 117.411 336.516 117.624C336.793 117.837 337.193 117.944 337.716 117.944ZM345.009 119H343.745V107.48H345.281V111.832C345.932 110.904 346.86 110.44 348.065 110.44C349.26 110.44 350.188 110.867 350.849 111.72C351.436 112.488 351.729 113.507 351.729 114.776C351.729 116.28 351.329 117.432 350.529 118.232C349.857 118.904 348.998 119.24 347.953 119.24C346.769 119.24 345.868 118.792 345.249 117.896L345.009 119ZM350.129 114.744C350.129 113.699 349.868 112.915 349.345 112.392C348.929 111.965 348.385 111.752 347.713 111.752C346.934 111.752 346.316 112.035 345.857 112.6C345.42 113.144 345.201 113.859 345.201 114.744C345.201 115.811 345.462 116.627 345.985 117.192C346.422 117.683 346.998 117.928 347.713 117.928C348.513 117.928 349.121 117.635 349.537 117.048C349.932 116.504 350.129 115.736 350.129 114.744ZM359.159 116.6H360.823C360.588 117.443 360.124 118.104 359.431 118.584C358.78 119.021 358.002 119.24 357.095 119.24C355.783 119.24 354.759 118.824 354.023 117.992C353.351 117.213 353.015 116.163 353.015 114.84C353.015 113.336 353.442 112.195 354.295 111.416C354.999 110.765 355.906 110.44 357.015 110.44C358.316 110.44 359.298 110.861 359.959 111.704C360.599 112.515 360.919 113.672 360.919 115.176H354.583C354.647 116.157 354.946 116.888 355.479 117.368C355.916 117.752 356.471 117.944 357.143 117.944C357.666 117.944 358.119 117.8 358.503 117.512C358.823 117.267 359.042 116.963 359.159 116.6ZM357.047 111.672C356.364 111.672 355.815 111.885 355.399 112.312C355.004 112.707 354.754 113.256 354.647 113.96H359.351C359.298 113.16 359.031 112.563 358.551 112.168C358.167 111.837 357.666 111.672 357.047 111.672ZM364.297 107.48V119H362.761V107.48H364.297ZM379.707 107.48V108.936H375.835V119H374.203V108.936H370.379V107.48H379.707ZM385.362 116.6H387.026C386.791 117.443 386.327 118.104 385.634 118.584C384.983 119.021 384.205 119.24 383.298 119.24C381.986 119.24 380.962 118.824 380.226 117.992C379.554 117.213 379.218 116.163 379.218 114.84C379.218 113.336 379.645 112.195 380.498 111.416C381.202 110.765 382.109 110.44 383.218 110.44C384.519 110.44 385.501 110.861 386.162 111.704C386.802 112.515 387.122 113.672 387.122 115.176H380.786C380.85 116.157 381.149 116.888 381.682 117.368C382.119 117.752 382.674 117.944 383.346 117.944C383.869 117.944 384.322 117.8 384.706 117.512C385.026 117.267 385.245 116.963 385.362 116.6ZM383.25 111.672C382.567 111.672 382.018 111.885 381.602 112.312C381.207 112.707 380.957 113.256 380.85 113.96H385.554C385.501 113.16 385.234 112.563 384.754 112.168C384.37 111.837 383.869 111.672 383.25 111.672ZM395.668 110.68L392.884 114.568L396.148 119H394.276L392.02 115.784L389.812 119H388.004L391.108 114.68L388.196 110.68H390.036L392.02 113.48L393.908 110.68H395.668ZM401.145 117.768V119.08C400.75 119.187 400.371 119.24 400.009 119.24C399.241 119.24 398.665 119 398.281 118.52C397.95 118.125 397.785 117.597 397.785 116.936V111.992H396.553V110.68H397.785L397.881 108.68H399.321V110.68H401.113V111.992H399.321V116.968C399.321 117.587 399.614 117.896 400.201 117.896C400.478 117.896 400.793 117.853 401.145 117.768Z" fill="white"/>
<path d="M368 281V247" stroke="#DA0087"/>
<path d="M368 239L364 247H372L368 239Z" fill="#DA0087"/>
<rect x="313" y="273" width="110" height="28" rx="14" fill="#DA0087"/>
<path d="M333.464 280.48H335.112V292H333.464V286.864H327.832V292H326.2V280.48H327.832V285.488H333.464V280.48ZM343.097 289.6H344.76C344.526 290.443 344.062 291.104 343.369 291.584C342.718 292.021 341.939 292.24 341.033 292.24C339.721 292.24 338.697 291.824 337.961 290.992C337.289 290.213 336.953 289.163 336.953 287.84C336.953 286.336 337.379 285.195 338.233 284.416C338.937 283.765 339.843 283.44 340.953 283.44C342.254 283.44 343.235 283.861 343.897 284.704C344.537 285.515 344.857 286.672 344.857 288.176H338.521C338.585 289.157 338.883 289.888 339.417 290.368C339.854 290.752 340.409 290.944 341.081 290.944C341.603 290.944 342.057 290.8 342.441 290.512C342.761 290.267 342.979 289.963 343.097 289.6ZM340.985 284.672C340.302 284.672 339.753 284.885 339.337 285.312C338.942 285.707 338.691 286.256 338.585 286.96H343.289C343.235 286.16 342.969 285.563 342.489 285.168C342.105 284.837 341.603 284.672 340.985 284.672ZM348.234 280.48V292H346.698V280.48H348.234ZM350.479 283.68H351.743L351.983 284.768C352.666 283.883 353.605 283.44 354.799 283.44C355.994 283.44 356.922 283.867 357.583 284.72C358.17 285.488 358.463 286.507 358.463 287.776C358.463 289.28 358.063 290.432 357.263 291.232C356.591 291.904 355.733 292.24 354.687 292.24C353.503 292.24 352.613 291.803 352.015 290.928V294.88H350.479V283.68ZM356.863 287.744C356.863 286.699 356.602 285.915 356.079 285.392C355.663 284.965 355.119 284.752 354.447 284.752C353.669 284.752 353.05 285.035 352.591 285.6C352.154 286.144 351.935 286.859 351.935 287.744C351.935 288.811 352.197 289.627 352.719 290.192C353.157 290.683 353.733 290.928 354.447 290.928C355.247 290.928 355.855 290.635 356.271 290.048C356.666 289.504 356.863 288.736 356.863 287.744ZM365.893 289.6H367.557C367.323 290.443 366.859 291.104 366.165 291.584C365.515 292.021 364.736 292.24 363.829 292.24C362.517 292.24 361.493 291.824 360.757 290.992C360.085 290.213 359.749 289.163 359.749 287.84C359.749 286.336 360.176 285.195 361.029 284.416C361.733 283.765 362.64 283.44 363.749 283.44C365.051 283.44 366.032 283.861 366.693 284.704C367.333 285.515 367.653 286.672 367.653 288.176H361.317C361.381 289.157 361.68 289.888 362.213 290.368C362.651 290.752 363.205 290.944 363.877 290.944C364.4 290.944 364.853 290.8 365.237 290.512C365.557 290.267 365.776 289.963 365.893 289.6ZM363.781 284.672C363.099 284.672 362.549 284.885 362.133 285.312C361.739 285.707 361.488 286.256 361.381 286.96H366.085C366.032 286.16 365.765 285.563 365.285 285.168C364.901 284.837 364.4 284.672 363.781 284.672ZM371.031 292H369.495V283.68H370.759L370.967 284.912C371.436 283.931 372.14 283.44 373.079 283.44C373.388 283.44 373.692 283.477 373.991 283.552V285.088C373.628 284.992 373.303 284.944 373.015 284.944C372.396 284.944 371.911 285.195 371.559 285.696C371.207 286.197 371.031 286.907 371.031 287.824V292ZM388.363 280.48V281.936H384.491V292H382.859V281.936H379.035V280.48H388.363ZM394.018 289.6H395.682C395.448 290.443 394.984 291.104 394.29 291.584C393.64 292.021 392.861 292.24 391.954 292.24C390.642 292.24 389.618 291.824 388.882 290.992C388.21 290.213 387.874 289.163 387.874 287.84C387.874 286.336 388.301 285.195 389.154 284.416C389.858 283.765 390.765 283.44 391.874 283.44C393.176 283.44 394.157 283.861 394.818 284.704C395.458 285.515 395.778 286.672 395.778 288.176H389.442C389.506 289.157 389.805 289.888 390.338 290.368C390.776 290.752 391.33 290.944 392.002 290.944C392.525 290.944 392.978 290.8 393.362 290.512C393.682 290.267 393.901 289.963 394.018 289.6ZM391.906 284.672C391.224 284.672 390.674 284.885 390.258 285.312C389.864 285.707 389.613 286.256 389.506 286.96H394.21C394.157 286.16 393.89 285.563 393.41 285.168C393.026 284.837 392.525 284.672 391.906 284.672ZM404.324 283.68L401.54 287.568L404.804 292H402.932L400.676 288.784L398.468 292H396.66L399.764 287.68L396.852 283.68H398.692L400.676 286.48L402.564 283.68H404.324ZM409.801 290.768V292.08C409.406 292.187 409.027 292.24 408.665 292.24C407.897 292.24 407.321 292 406.937 291.52C406.606 291.125 406.441 290.597 406.441 289.936V284.992H405.209V283.68H406.441L406.537 281.68H407.977V283.68H409.769V284.992H407.977V289.968C407.977 290.587 408.27 290.896 408.857 290.896C409.134 290.896 409.449 290.853 409.801 290.768Z" fill="white"/>
<path d="M536.5 281V224" stroke="#DA0087"/>
<path d="M536.5 216L532.5 224H540.5L536.5 216Z" fill="#DA0087"/>
<rect x="489.5" y="273" width="94" height="28" rx="14" fill="#DA0087"/>
<path d="M502.7 280.48H506.844C508.241 280.48 509.287 280.789 509.98 281.408C510.567 281.931 510.86 282.64 510.86 283.536C510.86 284.112 510.657 284.635 510.252 285.104C509.911 285.509 509.495 285.776 509.004 285.904C509.665 286.021 510.209 286.368 510.636 286.944C511.02 287.467 511.212 288.069 511.212 288.752C511.212 289.851 510.791 290.683 509.948 291.248C509.191 291.749 508.145 292 506.812 292H502.7V280.48ZM507.116 286.592H504.332V290.672H507.052C508.695 290.672 509.516 290.032 509.516 288.752C509.516 287.312 508.716 286.592 507.116 286.592ZM506.972 281.712H504.332V285.344H507.068C507.804 285.344 508.359 285.157 508.732 284.784C509.052 284.464 509.212 284.048 509.212 283.536C509.212 282.928 508.988 282.464 508.54 282.144C508.156 281.856 507.633 281.712 506.972 281.712ZM514.37 286H512.738C512.823 285.168 513.218 284.523 513.922 284.064C514.551 283.648 515.346 283.44 516.306 283.44C517.447 283.44 518.322 283.739 518.93 284.336C519.442 284.848 519.698 285.509 519.698 286.32V292H518.434L518.242 290.864C517.591 291.781 516.663 292.24 515.458 292.24C514.508 292.24 513.767 291.984 513.234 291.472C512.796 291.045 512.578 290.507 512.578 289.856C512.578 289.035 512.86 288.4 513.426 287.952C513.927 287.557 514.695 287.269 515.73 287.088L518.162 286.672V286.256C518.162 285.712 517.975 285.301 517.602 285.024C517.271 284.779 516.818 284.656 516.242 284.656C515.111 284.656 514.487 285.104 514.37 286ZM515.826 290.944C516.476 290.944 517.042 290.731 517.522 290.304C517.948 289.909 518.162 289.456 518.162 288.944V287.872L516.098 288.24C515.34 288.368 514.823 288.565 514.546 288.832C514.322 289.045 514.21 289.333 514.21 289.696C514.21 290.101 514.348 290.411 514.626 290.624C514.903 290.837 515.303 290.944 515.826 290.944ZM523.39 292H521.854V283.68H523.118L523.326 284.912C523.796 283.931 524.5 283.44 525.438 283.44C525.748 283.44 526.052 283.477 526.35 283.552V285.088C525.988 284.992 525.662 284.944 525.374 284.944C524.756 284.944 524.27 285.195 523.918 285.696C523.566 286.197 523.39 286.907 523.39 287.824V292ZM540.722 280.48V281.936H536.85V292H535.218V281.936H531.394V280.48H540.722ZM542.484 292H540.948V283.68H542.212L542.42 284.912C542.889 283.931 543.593 283.44 544.532 283.44C544.841 283.44 545.145 283.477 545.444 283.552V285.088C545.081 284.992 544.756 284.944 544.468 284.944C543.849 284.944 543.364 285.195 543.012 285.696C542.66 286.197 542.484 286.907 542.484 287.824V292ZM547.963 286H546.331C546.417 285.168 546.811 284.523 547.515 284.064C548.145 283.648 548.939 283.44 549.899 283.44C551.041 283.44 551.915 283.739 552.523 284.336C553.035 284.848 553.291 285.509 553.291 286.32V292H552.027L551.835 290.864C551.185 291.781 550.257 292.24 549.051 292.24C548.102 292.24 547.361 291.984 546.827 291.472C546.39 291.045 546.171 290.507 546.171 289.856C546.171 289.035 546.454 288.4 547.019 287.952C547.521 287.557 548.289 287.269 549.323 287.088L551.755 286.672V286.256C551.755 285.712 551.569 285.301 551.195 285.024C550.865 284.779 550.411 284.656 549.835 284.656C548.705 284.656 548.081 285.104 547.963 286ZM549.419 290.944C550.07 290.944 550.635 290.731 551.115 290.304C551.542 289.909 551.755 289.456 551.755 288.944V287.872L549.691 288.24C548.934 288.368 548.417 288.565 548.139 288.832C547.915 289.045 547.803 289.333 547.803 289.696C547.803 290.101 547.942 290.411 548.219 290.624C548.497 290.837 548.897 290.944 549.419 290.944ZM560.872 289.328H562.552C562.424 290.224 562.003 290.944 561.288 291.488C560.637 291.989 559.843 292.24 558.904 292.24C557.677 292.24 556.701 291.819 555.976 290.976C555.304 290.197 554.968 289.173 554.968 287.904C554.968 286.432 555.373 285.291 556.184 284.48C556.877 283.787 557.779 283.44 558.888 283.44C559.912 283.44 560.755 283.712 561.416 284.256C562.003 284.736 562.36 285.365 562.488 286.144H560.792C560.685 285.696 560.467 285.349 560.136 285.104C559.816 284.859 559.411 284.736 558.92 284.736C558.163 284.736 557.581 285.035 557.176 285.632C556.792 286.187 556.6 286.96 556.6 287.952C556.6 288.987 556.856 289.771 557.368 290.304C557.773 290.731 558.296 290.944 558.936 290.944C559.491 290.944 559.944 290.784 560.296 290.464C560.605 290.187 560.797 289.808 560.872 289.328ZM565.844 292H564.308V280.48H565.844V286.912L569.108 283.68H571.124L567.38 287.296L571.588 292H569.54L565.844 287.808V292Z" fill="white"/>
<path d="M290.5 202H320.5" stroke="#DA0087"/>
<path d="M328.5 202L320.5 198V206L328.5 202Z" fill="#DA0087"/>
<rect x="179.5" y="188" width="119" height="28" rx="14" fill="#DA0087"/>
<path d="M192.7 195.48H196.844C198.241 195.48 199.287 195.789 199.98 196.408C200.567 196.931 200.86 197.64 200.86 198.536C200.86 199.112 200.657 199.635 200.252 200.104C199.911 200.509 199.495 200.776 199.004 200.904C199.665 201.021 200.209 201.368 200.636 201.944C201.02 202.467 201.212 203.069 201.212 203.752C201.212 204.851 200.791 205.683 199.948 206.248C199.191 206.749 198.145 207 196.812 207H192.7V195.48ZM197.116 201.592H194.332V205.672H197.052C198.695 205.672 199.516 205.032 199.516 203.752C199.516 202.312 198.716 201.592 197.116 201.592ZM196.972 196.712H194.332V200.344H197.068C197.804 200.344 198.359 200.157 198.732 199.784C199.052 199.464 199.212 199.048 199.212 198.536C199.212 197.928 198.988 197.464 198.54 197.144C198.156 196.856 197.633 196.712 196.972 196.712ZM204.37 201H202.738C202.823 200.168 203.218 199.523 203.922 199.064C204.551 198.648 205.346 198.44 206.306 198.44C207.447 198.44 208.322 198.739 208.93 199.336C209.442 199.848 209.698 200.509 209.698 201.32V207H208.434L208.242 205.864C207.591 206.781 206.663 207.24 205.458 207.24C204.508 207.24 203.767 206.984 203.234 206.472C202.796 206.045 202.578 205.507 202.578 204.856C202.578 204.035 202.86 203.4 203.426 202.952C203.927 202.557 204.695 202.269 205.73 202.088L208.162 201.672V201.256C208.162 200.712 207.975 200.301 207.602 200.024C207.271 199.779 206.818 199.656 206.242 199.656C205.111 199.656 204.487 200.104 204.37 201ZM205.826 205.944C206.476 205.944 207.042 205.731 207.522 205.304C207.948 204.909 208.162 204.456 208.162 203.944V202.872L206.098 203.24C205.34 203.368 204.823 203.565 204.546 203.832C204.322 204.045 204.21 204.333 204.21 204.696C204.21 205.101 204.348 205.411 204.626 205.624C204.903 205.837 205.303 205.944 205.826 205.944ZM213.39 207H211.854V198.68H213.118L213.326 199.912C213.796 198.931 214.5 198.44 215.438 198.44C215.748 198.44 216.052 198.477 216.35 198.552V200.088C215.988 199.992 215.662 199.944 215.374 199.944C214.756 199.944 214.27 200.195 213.918 200.696C213.566 201.197 213.39 201.907 213.39 202.824V207ZM222.434 195.48H224.066V207H222.434V195.48ZM227.922 207H226.386V198.68H227.65L227.826 199.736C228.444 198.872 229.287 198.44 230.354 198.44C231.335 198.44 232.087 198.744 232.61 199.352C233.068 199.896 233.298 200.637 233.298 201.576V207H231.762V201.592C231.762 200.365 231.17 199.752 229.986 199.752C229.367 199.752 228.86 199.965 228.466 200.392C228.103 200.776 227.922 201.267 227.922 201.864V207ZM242.968 207H241.704L241.432 205.832C240.792 206.771 239.869 207.24 238.664 207.24C237.501 207.24 236.584 206.819 235.912 205.976C235.293 205.197 234.984 204.168 234.984 202.888C234.984 201.341 235.378 200.179 236.168 199.4C236.829 198.76 237.693 198.44 238.76 198.44C239.912 198.44 240.802 198.872 241.432 199.736V195.48H242.968V207ZM236.584 202.92C236.584 203.955 236.84 204.739 237.352 205.272C237.778 205.709 238.328 205.928 239 205.928C239.832 205.928 240.477 205.613 240.936 204.984C241.32 204.44 241.512 203.757 241.512 202.936C241.512 201.859 241.256 201.037 240.744 200.472C240.306 199.992 239.725 199.752 239 199.752C238.189 199.752 237.576 200.045 237.16 200.632C236.776 201.165 236.584 201.928 236.584 202.92ZM246.846 197.288H245.118V195.48H246.846V197.288ZM246.75 207H245.214V198.68H246.75V207ZM254.419 204.328H256.099C255.971 205.224 255.55 205.944 254.835 206.488C254.184 206.989 253.39 207.24 252.451 207.24C251.224 207.24 250.248 206.819 249.523 205.976C248.851 205.197 248.515 204.173 248.515 202.904C248.515 201.432 248.92 200.291 249.731 199.48C250.424 198.787 251.326 198.44 252.435 198.44C253.459 198.44 254.302 198.712 254.963 199.256C255.55 199.736 255.907 200.365 256.035 201.144H254.339C254.232 200.696 254.014 200.349 253.683 200.104C253.363 199.859 252.958 199.736 252.467 199.736C251.71 199.736 251.128 200.035 250.723 200.632C250.339 201.187 250.147 201.96 250.147 202.952C250.147 203.987 250.403 204.771 250.915 205.304C251.32 205.731 251.843 205.944 252.483 205.944C253.038 205.944 253.491 205.784 253.843 205.464C254.152 205.187 254.344 204.808 254.419 204.328ZM259.166 201H257.534C257.62 200.168 258.014 199.523 258.718 199.064C259.348 198.648 260.142 198.44 261.102 198.44C262.244 198.44 263.118 198.739 263.726 199.336C264.238 199.848 264.494 200.509 264.494 201.32V207H263.23L263.038 205.864C262.388 206.781 261.46 207.24 260.254 207.24C259.305 207.24 258.564 206.984 258.03 206.472C257.593 206.045 257.374 205.507 257.374 204.856C257.374 204.035 257.657 203.4 258.222 202.952C258.724 202.557 259.492 202.269 260.526 202.088L262.958 201.672V201.256C262.958 200.712 262.772 200.301 262.398 200.024C262.068 199.779 261.614 199.656 261.038 199.656C259.908 199.656 259.284 200.104 259.166 201ZM260.622 205.944C261.273 205.944 261.838 205.731 262.318 205.304C262.745 204.909 262.958 204.456 262.958 203.944V202.872L260.894 203.24C260.137 203.368 259.62 203.565 259.342 203.832C259.118 204.045 259.006 204.333 259.006 204.696C259.006 205.101 259.145 205.411 259.422 205.624C259.7 205.837 260.1 205.944 260.622 205.944ZM270.363 205.768V207.08C269.969 207.187 269.59 207.24 269.227 207.24C268.459 207.24 267.883 207 267.499 206.52C267.169 206.125 267.003 205.597 267.003 204.936V199.992H265.771V198.68H267.003L267.099 196.68H268.539V198.68H270.331V199.992H268.539V204.968C268.539 205.587 268.833 205.896 269.419 205.896C269.697 205.896 270.011 205.853 270.363 205.768ZM271.249 202.84C271.249 201.315 271.703 200.163 272.609 199.384C273.335 198.755 274.252 198.44 275.361 198.44C276.652 198.44 277.665 198.851 278.401 199.672C279.105 200.44 279.457 201.496 279.457 202.84C279.457 204.344 279.015 205.491 278.129 206.28C277.404 206.92 276.476 207.24 275.345 207.24C274.055 207.24 273.036 206.813 272.289 205.96C271.596 205.181 271.249 204.141 271.249 202.84ZM272.849 202.84C272.849 203.907 273.121 204.723 273.665 205.288C274.113 205.757 274.684 205.992 275.377 205.992C276.188 205.992 276.812 205.688 277.249 205.08C277.655 204.525 277.857 203.779 277.857 202.84C277.857 201.752 277.591 200.931 277.057 200.376C276.62 199.917 276.055 199.688 275.361 199.688C274.561 199.688 273.937 199.992 273.489 200.6C273.063 201.155 272.849 201.901 272.849 202.84ZM282.75 207H281.214V198.68H282.478L282.686 199.912C283.155 198.931 283.859 198.44 284.798 198.44C285.107 198.44 285.411 198.477 285.71 198.552V200.088C285.347 199.992 285.022 199.944 284.734 199.944C284.115 199.944 283.63 200.195 283.278 200.696C282.926 201.197 282.75 201.907 282.75 202.824V207Z" fill="white"/>
<path d="M615 120V154" stroke="#DA0087"/>
<path d="M615 162L611 154H619L615 162Z" fill="#DA0087"/>
<rect x="560.5" y="100" width="109" height="28" rx="14" fill="#DA0087"/>
<path d="M573.7 107.48H577.444C578.991 107.48 580.153 107.843 580.932 108.568C581.615 109.208 581.956 110.093 581.956 111.224C581.956 112.483 581.519 113.427 580.644 114.056C579.865 114.611 578.777 114.888 577.38 114.888H575.332V119H573.7V107.48ZM577.476 108.808H575.332V113.56H577.412C578.468 113.56 579.225 113.331 579.684 112.872C580.068 112.499 580.26 111.949 580.26 111.224C580.26 110.403 579.988 109.784 579.444 109.368C578.964 108.995 578.308 108.808 577.476 108.808ZM589.143 116.6H590.807C590.573 117.443 590.109 118.104 589.415 118.584C588.765 119.021 587.986 119.24 587.079 119.24C585.767 119.24 584.743 118.824 584.007 117.992C583.335 117.213 582.999 116.163 582.999 114.84C582.999 113.336 583.426 112.195 584.279 111.416C584.983 110.765 585.89 110.44 586.999 110.44C588.301 110.44 589.282 110.861 589.943 111.704C590.583 112.515 590.903 113.672 590.903 115.176H584.567C584.631 116.157 584.93 116.888 585.463 117.368C585.901 117.752 586.455 117.944 587.127 117.944C587.65 117.944 588.103 117.8 588.487 117.512C588.807 117.267 589.026 116.963 589.143 116.6ZM587.031 111.672C586.349 111.672 585.799 111.885 585.383 112.312C584.989 112.707 584.738 113.256 584.631 113.96H589.335C589.282 113.16 589.015 112.563 588.535 112.168C588.151 111.837 587.65 111.672 587.031 111.672ZM594.281 119H592.745V110.68H594.009L594.217 111.912C594.686 110.931 595.39 110.44 596.329 110.44C596.638 110.44 596.942 110.477 597.241 110.552V112.088C596.878 111.992 596.553 111.944 596.265 111.944C595.646 111.944 595.161 112.195 594.809 112.696C594.457 113.197 594.281 113.907 594.281 114.824V119ZM603.716 116.328H605.396C605.268 117.224 604.847 117.944 604.132 118.488C603.481 118.989 602.687 119.24 601.748 119.24C600.521 119.24 599.545 118.819 598.82 117.976C598.148 117.197 597.812 116.173 597.812 114.904C597.812 113.432 598.217 112.291 599.028 111.48C599.721 110.787 600.623 110.44 601.732 110.44C602.756 110.44 603.599 110.712 604.26 111.256C604.847 111.736 605.204 112.365 605.332 113.144H603.636C603.529 112.696 603.311 112.349 602.98 112.104C602.66 111.859 602.255 111.736 601.764 111.736C601.007 111.736 600.425 112.035 600.02 112.632C599.636 113.187 599.444 113.96 599.444 114.952C599.444 115.987 599.7 116.771 600.212 117.304C600.617 117.731 601.14 117.944 601.78 117.944C602.335 117.944 602.788 117.784 603.14 117.464C603.449 117.187 603.641 116.808 603.716 116.328ZM612.815 116.6H614.479C614.245 117.443 613.781 118.104 613.087 118.584C612.437 119.021 611.658 119.24 610.751 119.24C609.439 119.24 608.415 118.824 607.679 117.992C607.007 117.213 606.671 116.163 606.671 114.84C606.671 113.336 607.098 112.195 607.951 111.416C608.655 110.765 609.562 110.44 610.671 110.44C611.973 110.44 612.954 110.861 613.615 111.704C614.255 112.515 614.575 113.672 614.575 115.176H608.239C608.303 116.157 608.602 116.888 609.135 117.368C609.573 117.752 610.127 117.944 610.799 117.944C611.322 117.944 611.775 117.8 612.159 117.512C612.479 117.267 612.698 116.963 612.815 116.6ZM610.703 111.672C610.021 111.672 609.471 111.885 609.055 112.312C608.661 112.707 608.41 113.256 608.303 113.96H613.007C612.954 113.16 612.687 112.563 612.207 112.168C611.823 111.837 611.322 111.672 610.703 111.672ZM617.953 119H616.417V110.68H617.681L617.857 111.736C618.476 110.872 619.318 110.44 620.385 110.44C621.366 110.44 622.118 110.744 622.641 111.352C623.1 111.896 623.329 112.637 623.329 113.576V119H621.793V113.592C621.793 112.365 621.201 111.752 620.017 111.752C619.398 111.752 618.892 111.965 618.497 112.392C618.134 112.776 617.953 113.267 617.953 113.864V119ZM629.207 117.768V119.08C628.812 119.187 628.434 119.24 628.071 119.24C627.303 119.24 626.727 119 626.343 118.52C626.012 118.125 625.847 117.597 625.847 116.936V111.992H624.615V110.68H625.847L625.943 108.68H627.383V110.68H629.175V111.992H627.383V116.968C627.383 117.587 627.676 117.896 628.263 117.896C628.54 117.896 628.855 117.853 629.207 117.768ZM631.963 113H630.331C630.417 112.168 630.811 111.523 631.515 111.064C632.145 110.648 632.939 110.44 633.899 110.44C635.041 110.44 635.915 110.739 636.523 111.336C637.035 111.848 637.291 112.509 637.291 113.32V119H636.027L635.835 117.864C635.185 118.781 634.257 119.24 633.051 119.24C632.102 119.24 631.361 118.984 630.827 118.472C630.39 118.045 630.171 117.507 630.171 116.856C630.171 116.035 630.454 115.4 631.019 114.952C631.521 114.557 632.289 114.269 633.323 114.088L635.755 113.672V113.256C635.755 112.712 635.569 112.301 635.195 112.024C634.865 111.779 634.411 111.656 633.835 111.656C632.705 111.656 632.081 112.104 631.963 113ZM633.419 117.944C634.07 117.944 634.635 117.731 635.115 117.304C635.542 116.909 635.755 116.456 635.755 115.944V114.872L633.691 115.24C632.934 115.368 632.417 115.565 632.139 115.832C631.915 116.045 631.803 116.333 631.803 116.696C631.803 117.101 631.942 117.411 632.219 117.624C632.497 117.837 632.897 117.944 633.419 117.944ZM639.352 119.56H641C641.075 119.987 641.288 120.317 641.64 120.552C642.003 120.787 642.477 120.904 643.064 120.904C643.885 120.904 644.499 120.691 644.904 120.264C645.245 119.901 645.416 119.395 645.416 118.744V117.672C644.797 118.397 643.875 118.76 642.648 118.76C641.539 118.76 640.637 118.36 639.944 117.56C639.293 116.813 638.968 115.843 638.968 114.648C638.968 113.261 639.363 112.189 640.152 111.432C640.824 110.771 641.688 110.44 642.744 110.44C643.939 110.44 644.84 110.888 645.448 111.784L645.688 110.68H646.952V118.824C646.952 119.869 646.573 120.691 645.816 121.288C645.133 121.843 644.232 122.12 643.112 122.12C641.949 122.12 641.037 121.859 640.376 121.336C639.821 120.899 639.48 120.307 639.352 119.56ZM640.568 114.68C640.568 115.587 640.835 116.296 641.368 116.808C641.805 117.235 642.344 117.448 642.984 117.448C643.827 117.448 644.472 117.171 644.92 116.616C645.304 116.147 645.496 115.517 645.496 114.728C645.496 113.715 645.235 112.941 644.712 112.408C644.275 111.971 643.699 111.752 642.984 111.752C642.195 111.752 641.587 112.024 641.16 112.568C640.765 113.08 640.568 113.784 640.568 114.68ZM654.862 116.6H656.526C656.291 117.443 655.827 118.104 655.134 118.584C654.483 119.021 653.705 119.24 652.798 119.24C651.486 119.24 650.462 118.824 649.726 117.992C649.054 117.213 648.718 116.163 648.718 114.84C648.718 113.336 649.145 112.195 649.998 111.416C650.702 110.765 651.609 110.44 652.718 110.44C654.019 110.44 655.001 110.861 655.662 111.704C656.302 112.515 656.622 113.672 656.622 115.176H650.286C650.35 116.157 650.649 116.888 651.182 117.368C651.619 117.752 652.174 117.944 652.846 117.944C653.369 117.944 653.822 117.8 654.206 117.512C654.526 117.267 654.745 116.963 654.862 116.6ZM652.75 111.672C652.067 111.672 651.518 111.885 651.102 112.312C650.707 112.707 650.457 113.256 650.35 113.96H655.054C655.001 113.16 654.734 112.563 654.254 112.168C653.87 111.837 653.369 111.672 652.75 111.672Z" fill="white"/>
</svg>
