<svg width="1150" height="308" viewBox="0 0 1150 308" fill="none" xmlns="http://www.w3.org/2000/svg">
<rect width="1150" height="308" rx="24" fill="#262626"/>
<rect x="100" y="100" width="32" height="32" rx="16" fill="#DA0087"/>
<path d="M117.755 111.318V121.5H115.602V113.362H115.543L113.211 114.823V112.914L115.732 111.318H117.755Z" fill="white" fill-opacity="0.95"/>
<path d="M101.233 159V148.818H102.466V157.906H107.199V159H101.233ZM111.196 159.179C110.712 159.179 110.273 159.088 109.879 158.906C109.484 158.72 109.171 158.453 108.939 158.105C108.707 157.754 108.591 157.33 108.591 156.832C108.591 156.395 108.677 156.04 108.849 155.768C109.022 155.493 109.252 155.278 109.54 155.122C109.829 154.966 110.147 154.85 110.495 154.774C110.846 154.695 111.199 154.632 111.554 154.585C112.018 154.526 112.394 154.481 112.683 154.451C112.974 154.418 113.186 154.363 113.319 154.287C113.455 154.211 113.523 154.078 113.523 153.889V153.849C113.523 153.359 113.388 152.978 113.12 152.706C112.855 152.434 112.452 152.298 111.912 152.298C111.352 152.298 110.913 152.421 110.594 152.666C110.276 152.911 110.053 153.173 109.923 153.452L108.81 153.054C109.009 152.59 109.274 152.229 109.605 151.97C109.94 151.708 110.304 151.526 110.699 151.423C111.097 151.317 111.488 151.264 111.872 151.264C112.117 151.264 112.399 151.294 112.717 151.354C113.039 151.41 113.349 151.528 113.647 151.707C113.949 151.886 114.199 152.156 114.398 152.517C114.597 152.878 114.696 153.362 114.696 153.969V159H113.523V157.966H113.463C113.384 158.132 113.251 158.309 113.065 158.498C112.88 158.687 112.633 158.848 112.325 158.98C112.016 159.113 111.64 159.179 111.196 159.179ZM111.375 158.125C111.839 158.125 112.23 158.034 112.548 157.852C112.87 157.669 113.112 157.434 113.274 157.146C113.44 156.857 113.523 156.554 113.523 156.236V155.162C113.473 155.222 113.364 155.276 113.195 155.326C113.029 155.372 112.837 155.414 112.618 155.45C112.402 155.483 112.192 155.513 111.987 155.54C111.784 155.563 111.62 155.583 111.494 155.599C111.189 155.639 110.904 155.704 110.639 155.793C110.377 155.879 110.165 156.01 110.003 156.186C109.844 156.358 109.764 156.594 109.764 156.892C109.764 157.3 109.915 157.608 110.217 157.817C110.522 158.022 110.908 158.125 111.375 158.125ZM116.997 159V148.818H118.17V152.577H118.269C118.356 152.444 118.475 152.275 118.627 152.07C118.783 151.861 119.005 151.675 119.294 151.513C119.585 151.347 119.98 151.264 120.477 151.264C121.12 151.264 121.686 151.425 122.177 151.746C122.668 152.068 123.05 152.524 123.325 153.114C123.601 153.704 123.738 154.4 123.738 155.202C123.738 156.01 123.601 156.711 123.325 157.305C123.05 157.895 122.669 158.352 122.182 158.677C121.695 158.998 121.133 159.159 120.497 159.159C120.006 159.159 119.613 159.078 119.318 158.915C119.023 158.75 118.796 158.562 118.637 158.354C118.478 158.142 118.356 157.966 118.269 157.827H118.13V159H116.997ZM118.15 155.182C118.15 155.759 118.235 156.267 118.404 156.708C118.573 157.146 118.82 157.489 119.144 157.737C119.469 157.982 119.867 158.105 120.338 158.105C120.828 158.105 121.237 157.976 121.566 157.717C121.897 157.455 122.146 157.104 122.311 156.663C122.48 156.219 122.565 155.725 122.565 155.182C122.565 154.645 122.482 154.161 122.316 153.73C122.154 153.296 121.907 152.953 121.575 152.701C121.247 152.446 120.835 152.318 120.338 152.318C119.86 152.318 119.459 152.439 119.134 152.681C118.81 152.92 118.564 153.254 118.399 153.685C118.233 154.113 118.15 154.612 118.15 155.182ZM128.735 159.159C127.999 159.159 127.364 158.997 126.83 158.672C126.3 158.344 125.891 157.886 125.602 157.3C125.317 156.71 125.175 156.024 125.175 155.241C125.175 154.459 125.317 153.77 125.602 153.173C125.891 152.573 126.292 152.106 126.806 151.771C127.323 151.433 127.926 151.264 128.615 151.264C129.013 151.264 129.406 151.33 129.794 151.463C130.181 151.596 130.534 151.811 130.852 152.109C131.171 152.404 131.424 152.795 131.613 153.283C131.802 153.77 131.896 154.37 131.896 155.082V155.58H126.01V154.565H130.703C130.703 154.134 130.617 153.75 130.445 153.412C130.276 153.074 130.034 152.807 129.719 152.612C129.407 152.416 129.039 152.318 128.615 152.318C128.148 152.318 127.744 152.434 127.402 152.666C127.064 152.895 126.804 153.193 126.622 153.561C126.439 153.929 126.348 154.323 126.348 154.744V155.42C126.348 155.997 126.448 156.486 126.646 156.887C126.849 157.285 127.129 157.588 127.487 157.797C127.845 158.002 128.261 158.105 128.735 158.105C129.043 158.105 129.321 158.062 129.57 157.976C129.822 157.886 130.039 157.754 130.221 157.578C130.403 157.399 130.544 157.177 130.644 156.912L131.777 157.23C131.658 157.615 131.457 157.953 131.176 158.244C130.894 158.533 130.546 158.758 130.132 158.92C129.717 159.08 129.252 159.159 128.735 159.159ZM134.855 148.818V159H133.681V148.818H134.855ZM140.543 149.912V148.818H148.18V149.912H144.978V159H143.745V149.912H140.543ZM152.018 159.159C151.282 159.159 150.647 158.997 150.114 158.672C149.583 158.344 149.174 157.886 148.886 157.3C148.601 156.71 148.458 156.024 148.458 155.241C148.458 154.459 148.601 153.77 148.886 153.173C149.174 152.573 149.575 152.106 150.089 151.771C150.606 151.433 151.209 151.264 151.898 151.264C152.296 151.264 152.689 151.33 153.077 151.463C153.464 151.596 153.817 151.811 154.136 152.109C154.454 152.404 154.707 152.795 154.896 153.283C155.085 153.77 155.18 154.37 155.18 155.082V155.58H149.293V154.565H153.987C153.987 154.134 153.9 153.75 153.728 153.412C153.559 153.074 153.317 152.807 153.002 152.612C152.691 152.416 152.323 152.318 151.898 152.318C151.431 152.318 151.027 152.434 150.685 152.666C150.347 152.895 150.087 153.193 149.905 153.561C149.723 153.929 149.631 154.323 149.631 154.744V155.42C149.631 155.997 149.731 156.486 149.93 156.887C150.132 157.285 150.412 157.588 150.77 157.797C151.128 158.002 151.544 158.105 152.018 158.105C152.326 158.105 152.604 158.062 152.853 157.976C153.105 157.886 153.322 157.754 153.504 157.578C153.687 157.399 153.827 157.177 153.927 156.912L155.06 157.23C154.941 157.615 154.741 157.953 154.459 158.244C154.177 158.533 153.829 158.758 153.415 158.92C153 159.08 152.535 159.159 152.018 159.159ZM157.634 151.364L159.464 154.486L161.294 151.364H162.646L160.18 155.182L162.646 159H161.294L159.464 156.037L157.634 159H156.282L158.708 155.182L156.282 151.364H157.634ZM167.641 151.364V152.358H163.684V151.364H167.641ZM164.837 149.534H166.01V156.812C166.01 157.144 166.058 157.393 166.154 157.558C166.254 157.721 166.38 157.83 166.532 157.886C166.688 157.939 166.852 157.966 167.025 157.966C167.154 157.966 167.26 157.959 167.343 157.946C167.426 157.929 167.492 157.916 167.542 157.906L167.78 158.96C167.701 158.99 167.59 159.02 167.447 159.05C167.305 159.083 167.124 159.099 166.905 159.099C166.574 159.099 166.249 159.028 165.931 158.886C165.616 158.743 165.354 158.526 165.145 158.234C164.94 157.943 164.837 157.575 164.837 157.131V149.534Z" fill="white" fill-opacity="0.95"/>
<path d="M323.618 159L328.172 149.991V149.912H322.922V148.818H329.445V149.972L324.911 159H323.618ZM334.343 159.139C333.76 159.139 333.235 159.023 332.767 158.791C332.3 158.559 331.925 158.241 331.644 157.837C331.362 157.432 331.208 156.972 331.181 156.455H332.374C332.421 156.915 332.63 157.296 333.001 157.598C333.375 157.896 333.823 158.045 334.343 158.045C334.761 158.045 335.132 157.948 335.457 157.752C335.785 157.557 336.042 157.288 336.227 156.947C336.416 156.602 336.511 156.213 336.511 155.778C336.511 155.334 336.413 154.938 336.218 154.59C336.025 154.239 335.76 153.962 335.422 153.76C335.084 153.558 334.698 153.455 334.264 153.452C333.952 153.448 333.632 153.496 333.304 153.596C332.976 153.692 332.706 153.816 332.494 153.969L331.34 153.83L331.957 148.818H337.247V149.912H332.991L332.633 152.915H332.693C332.901 152.749 333.163 152.612 333.478 152.502C333.793 152.393 334.121 152.338 334.463 152.338C335.086 152.338 335.641 152.487 336.128 152.786C336.619 153.08 337.003 153.485 337.281 153.999C337.563 154.512 337.704 155.099 337.704 155.759C337.704 156.408 337.558 156.988 337.267 157.499C336.978 158.006 336.58 158.407 336.073 158.702C335.566 158.993 334.99 159.139 334.343 159.139ZM344.869 157.091V156.554C344.869 156.183 344.946 155.843 345.098 155.535C345.254 155.223 345.479 154.975 345.774 154.789C346.072 154.6 346.434 154.506 346.858 154.506C347.289 154.506 347.65 154.6 347.942 154.789C348.233 154.975 348.454 155.223 348.603 155.535C348.752 155.843 348.827 156.183 348.827 156.554V157.091C348.827 157.462 348.75 157.804 348.598 158.115C348.449 158.423 348.227 158.672 347.932 158.861C347.64 159.046 347.282 159.139 346.858 159.139C346.427 159.139 346.064 159.046 345.769 158.861C345.474 158.672 345.25 158.423 345.098 158.115C344.946 157.804 344.869 157.462 344.869 157.091ZM345.884 156.554V157.091C345.884 157.399 345.956 157.676 346.102 157.921C346.248 158.163 346.5 158.284 346.858 158.284C347.206 158.284 347.451 158.163 347.594 157.921C347.74 157.676 347.812 157.399 347.812 157.091V156.554C347.812 156.246 347.743 155.971 347.604 155.729C347.464 155.483 347.216 155.361 346.858 155.361C346.51 155.361 346.26 155.483 346.107 155.729C345.958 155.971 345.884 156.246 345.884 156.554ZM339.798 151.264V150.727C339.798 150.356 339.875 150.016 340.027 149.708C340.183 149.397 340.408 149.148 340.703 148.962C341.001 148.773 341.363 148.679 341.787 148.679C342.218 148.679 342.579 148.773 342.871 148.962C343.162 149.148 343.383 149.397 343.532 149.708C343.681 150.016 343.756 150.356 343.756 150.727V151.264C343.756 151.635 343.679 151.977 343.527 152.288C343.378 152.597 343.156 152.845 342.861 153.034C342.569 153.22 342.211 153.312 341.787 153.312C341.356 153.312 340.993 153.22 340.698 153.034C340.403 152.845 340.179 152.597 340.027 152.288C339.875 151.977 339.798 151.635 339.798 151.264ZM340.812 150.727V151.264C340.812 151.572 340.885 151.849 341.031 152.094C341.177 152.336 341.429 152.457 341.787 152.457C342.135 152.457 342.38 152.336 342.523 152.094C342.669 151.849 342.741 151.572 342.741 151.264V150.727C342.741 150.419 342.672 150.144 342.533 149.902C342.393 149.657 342.145 149.534 341.787 149.534C341.439 149.534 341.189 149.657 341.036 149.902C340.887 150.144 340.812 150.419 340.812 150.727ZM340.176 159L347.176 148.818H348.31L341.31 159H340.176Z" fill="white" fill-opacity="0.95"/>
<rect x="100" y="172" width="250" height="8" rx="4" fill="#8F8F8F"/>
<rect x="100" y="172" width="187.5" height="8" rx="4" fill="#3492EB"/>
<path d="M109.824 197.909C109.824 198.983 109.63 199.911 109.242 200.693C108.854 201.475 108.322 202.079 107.646 202.503C106.97 202.927 106.198 203.139 105.33 203.139C104.461 203.139 103.689 202.927 103.013 202.503C102.337 202.079 101.805 201.475 101.417 200.693C101.029 199.911 100.835 198.983 100.835 197.909C100.835 196.835 101.029 195.907 101.417 195.125C101.805 194.343 102.337 193.74 103.013 193.315C103.689 192.891 104.461 192.679 105.33 192.679C106.198 192.679 106.97 192.891 107.646 193.315C108.322 193.74 108.854 194.343 109.242 195.125C109.63 195.907 109.824 196.835 109.824 197.909ZM108.631 197.909C108.631 197.027 108.483 196.283 108.188 195.677C107.897 195.07 107.5 194.611 107 194.3C106.503 193.988 105.946 193.832 105.33 193.832C104.713 193.832 104.155 193.988 103.654 194.3C103.157 194.611 102.761 195.07 102.466 195.677C102.174 196.283 102.028 197.027 102.028 197.909C102.028 198.791 102.174 199.535 102.466 200.141C102.761 200.748 103.157 201.207 103.654 201.518C104.155 201.83 104.713 201.986 105.33 201.986C105.946 201.986 106.503 201.83 107 201.518C107.5 201.207 107.897 200.748 108.188 200.141C108.483 199.535 108.631 198.791 108.631 197.909ZM111.738 205.864V195.364H112.871V196.577H113.011C113.097 196.444 113.216 196.275 113.369 196.07C113.524 195.861 113.746 195.675 114.035 195.513C114.326 195.347 114.721 195.264 115.218 195.264C115.861 195.264 116.428 195.425 116.918 195.746C117.409 196.068 117.792 196.524 118.067 197.114C118.342 197.704 118.479 198.4 118.479 199.202C118.479 200.01 118.342 200.711 118.067 201.305C117.792 201.895 117.411 202.352 116.923 202.677C116.436 202.998 115.874 203.159 115.238 203.159C114.747 203.159 114.355 203.078 114.06 202.915C113.765 202.75 113.538 202.562 113.379 202.354C113.219 202.142 113.097 201.966 113.011 201.827H112.911V205.864H111.738ZM112.891 199.182C112.891 199.759 112.976 200.267 113.145 200.708C113.314 201.146 113.561 201.489 113.886 201.737C114.21 201.982 114.608 202.105 115.079 202.105C115.569 202.105 115.979 201.976 116.307 201.717C116.638 201.455 116.887 201.104 117.053 200.663C117.222 200.219 117.306 199.725 117.306 199.182C117.306 198.645 117.223 198.161 117.058 197.73C116.895 197.296 116.648 196.953 116.317 196.701C115.989 196.446 115.576 196.318 115.079 196.318C114.602 196.318 114.201 196.439 113.876 196.681C113.551 196.92 113.306 197.254 113.14 197.685C112.974 198.113 112.891 198.612 112.891 199.182ZM123.59 195.364V196.358H119.633V195.364H123.59ZM120.786 193.534H121.96V200.812C121.96 201.144 122.008 201.393 122.104 201.558C122.203 201.721 122.329 201.83 122.482 201.886C122.637 201.939 122.801 201.966 122.974 201.966C123.103 201.966 123.209 201.959 123.292 201.946C123.375 201.929 123.441 201.916 123.491 201.906L123.729 202.96C123.65 202.99 123.539 203.02 123.396 203.05C123.254 203.083 123.073 203.099 122.854 203.099C122.523 203.099 122.198 203.028 121.88 202.886C121.565 202.743 121.303 202.526 121.094 202.234C120.889 201.943 120.786 201.575 120.786 201.131V193.534ZM125.355 203V195.364H126.528V203H125.355ZM125.952 194.091C125.723 194.091 125.526 194.013 125.36 193.857C125.198 193.701 125.116 193.514 125.116 193.295C125.116 193.077 125.198 192.889 125.36 192.734C125.526 192.578 125.723 192.5 125.952 192.5C126.18 192.5 126.376 192.578 126.538 192.734C126.704 192.889 126.787 193.077 126.787 193.295C126.787 193.514 126.704 193.701 126.538 193.857C126.376 194.013 126.18 194.091 125.952 194.091ZM131.78 203.159C131.09 203.159 130.485 202.995 129.965 202.667C129.448 202.339 129.044 201.88 128.752 201.29C128.464 200.7 128.319 200.01 128.319 199.222C128.319 198.426 128.464 197.732 128.752 197.138C129.044 196.545 129.448 196.085 129.965 195.756C130.485 195.428 131.09 195.264 131.78 195.264C132.469 195.264 133.072 195.428 133.589 195.756C134.11 196.085 134.514 196.545 134.802 197.138C135.094 197.732 135.24 198.426 135.24 199.222C135.24 200.01 135.094 200.7 134.802 201.29C134.514 201.88 134.11 202.339 133.589 202.667C133.072 202.995 132.469 203.159 131.78 203.159ZM131.78 202.105C132.303 202.105 132.734 201.971 133.072 201.702C133.41 201.434 133.661 201.081 133.823 200.643C133.985 200.206 134.067 199.732 134.067 199.222C134.067 198.711 133.985 198.236 133.823 197.795C133.661 197.354 133.41 196.998 133.072 196.726C132.734 196.454 132.303 196.318 131.78 196.318C131.256 196.318 130.825 196.454 130.487 196.726C130.149 196.998 129.899 197.354 129.736 197.795C129.574 198.236 129.493 198.711 129.493 199.222C129.493 199.732 129.574 200.206 129.736 200.643C129.899 201.081 130.149 201.434 130.487 201.702C130.825 201.971 131.256 202.105 131.78 202.105ZM138.204 198.406V203H137.031V195.364H138.164V196.557H138.264C138.443 196.169 138.715 195.857 139.079 195.622C139.444 195.384 139.914 195.264 140.491 195.264C141.008 195.264 141.461 195.37 141.848 195.582C142.236 195.791 142.538 196.109 142.753 196.537C142.969 196.961 143.076 197.498 143.076 198.148V203H141.903V198.227C141.903 197.627 141.747 197.16 141.436 196.825C141.124 196.487 140.697 196.318 140.153 196.318C139.779 196.318 139.444 196.399 139.149 196.562C138.857 196.724 138.627 196.961 138.458 197.273C138.289 197.584 138.204 197.962 138.204 198.406ZM147.468 203.179C146.984 203.179 146.544 203.088 146.15 202.906C145.756 202.72 145.442 202.453 145.21 202.105C144.978 201.754 144.862 201.33 144.862 200.832C144.862 200.395 144.949 200.04 145.121 199.768C145.293 199.493 145.524 199.278 145.812 199.122C146.1 198.966 146.419 198.85 146.767 198.774C147.118 198.695 147.471 198.632 147.825 198.585C148.289 198.526 148.666 198.481 148.954 198.451C149.246 198.418 149.458 198.363 149.59 198.287C149.726 198.211 149.794 198.078 149.794 197.889V197.849C149.794 197.359 149.66 196.978 149.392 196.706C149.126 196.434 148.724 196.298 148.183 196.298C147.623 196.298 147.184 196.421 146.866 196.666C146.548 196.911 146.324 197.173 146.195 197.452L145.081 197.054C145.28 196.59 145.545 196.229 145.877 195.97C146.211 195.708 146.576 195.526 146.97 195.423C147.368 195.317 147.759 195.264 148.144 195.264C148.389 195.264 148.671 195.294 148.989 195.354C149.31 195.41 149.62 195.528 149.919 195.707C150.22 195.886 150.47 196.156 150.669 196.517C150.868 196.878 150.968 197.362 150.968 197.969V203H149.794V201.966H149.735C149.655 202.132 149.522 202.309 149.337 202.498C149.151 202.687 148.904 202.848 148.596 202.98C148.288 203.113 147.912 203.179 147.468 203.179ZM147.646 202.125C148.11 202.125 148.502 202.034 148.82 201.852C149.141 201.669 149.383 201.434 149.546 201.146C149.711 200.857 149.794 200.554 149.794 200.236V199.162C149.744 199.222 149.635 199.276 149.466 199.326C149.3 199.372 149.108 199.414 148.889 199.45C148.674 199.483 148.463 199.513 148.258 199.54C148.056 199.563 147.892 199.583 147.766 199.599C147.461 199.639 147.176 199.704 146.911 199.793C146.649 199.879 146.437 200.01 146.274 200.186C146.115 200.358 146.036 200.594 146.036 200.892C146.036 201.3 146.186 201.608 146.488 201.817C146.793 202.022 147.179 202.125 147.646 202.125ZM154.282 192.818V203H153.109V192.818H154.282ZM160.528 203V192.818H161.761V197.352H167.19V192.818H168.423V203H167.19V198.446H161.761V203H160.528ZM173.934 203.159C173.198 203.159 172.563 202.997 172.03 202.672C171.499 202.344 171.09 201.886 170.802 201.3C170.517 200.71 170.374 200.024 170.374 199.241C170.374 198.459 170.517 197.77 170.802 197.173C171.09 196.573 171.491 196.106 172.005 195.771C172.522 195.433 173.125 195.264 173.814 195.264C174.212 195.264 174.605 195.33 174.993 195.463C175.381 195.596 175.733 195.811 176.052 196.109C176.37 196.404 176.623 196.795 176.812 197.283C177.001 197.77 177.096 198.37 177.096 199.082V199.58H171.209V198.565H175.903C175.903 198.134 175.816 197.75 175.644 197.412C175.475 197.074 175.233 196.807 174.918 196.612C174.607 196.416 174.239 196.318 173.814 196.318C173.347 196.318 172.943 196.434 172.601 196.666C172.263 196.895 172.003 197.193 171.821 197.561C171.639 197.929 171.547 198.323 171.547 198.744V199.42C171.547 199.997 171.647 200.486 171.846 200.887C172.048 201.285 172.328 201.588 172.686 201.797C173.044 202.002 173.46 202.105 173.934 202.105C174.242 202.105 174.52 202.062 174.769 201.976C175.021 201.886 175.238 201.754 175.42 201.578C175.603 201.399 175.743 201.177 175.843 200.912L176.976 201.23C176.857 201.615 176.657 201.953 176.375 202.244C176.093 202.533 175.745 202.758 175.331 202.92C174.916 203.08 174.451 203.159 173.934 203.159ZM180.054 192.818V203H178.881V192.818H180.054ZM182.203 205.864V195.364H183.336V196.577H183.475C183.562 196.444 183.681 196.275 183.833 196.07C183.989 195.861 184.211 195.675 184.5 195.513C184.791 195.347 185.186 195.264 185.683 195.264C186.326 195.264 186.893 195.425 187.383 195.746C187.874 196.068 188.257 196.524 188.532 197.114C188.807 197.704 188.944 198.4 188.944 199.202C188.944 200.01 188.807 200.711 188.532 201.305C188.257 201.895 187.875 202.352 187.388 202.677C186.901 202.998 186.339 203.159 185.703 203.159C185.212 203.159 184.819 203.078 184.525 202.915C184.23 202.75 184.002 202.562 183.843 202.354C183.684 202.142 183.562 201.966 183.475 201.827H183.376V205.864H182.203ZM183.356 199.182C183.356 199.759 183.441 200.267 183.61 200.708C183.779 201.146 184.026 201.489 184.35 201.737C184.675 201.982 185.073 202.105 185.544 202.105C186.034 202.105 186.444 201.976 186.772 201.717C187.103 201.455 187.352 201.104 187.517 200.663C187.686 200.219 187.771 199.725 187.771 199.182C187.771 198.645 187.688 198.161 187.522 197.73C187.36 197.296 187.113 196.953 186.782 196.701C186.453 196.446 186.041 196.318 185.544 196.318C185.066 196.318 184.665 196.439 184.341 196.681C184.016 196.92 183.77 197.254 183.605 197.685C183.439 198.113 183.356 198.612 183.356 199.182ZM193.936 203.159C193.2 203.159 192.565 202.997 192.032 202.672C191.501 202.344 191.092 201.886 190.804 201.3C190.519 200.71 190.376 200.024 190.376 199.241C190.376 198.459 190.519 197.77 190.804 197.173C191.092 196.573 191.493 196.106 192.007 195.771C192.524 195.433 193.127 195.264 193.816 195.264C194.214 195.264 194.607 195.33 194.995 195.463C195.382 195.596 195.735 195.811 196.054 196.109C196.372 196.404 196.625 196.795 196.814 197.283C197.003 197.77 197.098 198.37 197.098 199.082V199.58H191.211V198.565H195.904C195.904 198.134 195.818 197.75 195.646 197.412C195.477 197.074 195.235 196.807 194.92 196.612C194.609 196.416 194.241 196.318 193.816 196.318C193.349 196.318 192.945 196.434 192.603 196.666C192.265 196.895 192.005 197.193 191.823 197.561C191.641 197.929 191.549 198.323 191.549 198.744V199.42C191.549 199.997 191.649 200.486 191.848 200.887C192.05 201.285 192.33 201.588 192.688 201.797C193.046 202.002 193.462 202.105 193.936 202.105C194.244 202.105 194.522 202.062 194.771 201.976C195.023 201.886 195.24 201.754 195.422 201.578C195.605 201.399 195.745 201.177 195.845 200.912L196.978 201.23C196.859 201.615 196.658 201.953 196.377 202.244C196.095 202.533 195.747 202.758 195.333 202.92C194.918 203.08 194.453 203.159 193.936 203.159ZM198.882 203V195.364H200.016V196.517H200.096C200.235 196.139 200.487 195.833 200.851 195.597C201.216 195.362 201.627 195.244 202.084 195.244C202.17 195.244 202.278 195.246 202.407 195.249C202.537 195.253 202.634 195.258 202.701 195.264V196.457C202.661 196.447 202.57 196.433 202.427 196.413C202.288 196.389 202.141 196.378 201.985 196.378C201.614 196.378 201.282 196.456 200.99 196.612C200.702 196.764 200.473 196.976 200.304 197.248C200.139 197.516 200.056 197.823 200.056 198.168V203H198.882ZM211.35 195.364V196.358H207.393V195.364H211.35ZM208.546 193.534H209.719V200.812C209.719 201.144 209.767 201.393 209.863 201.558C209.963 201.721 210.089 201.83 210.241 201.886C210.397 201.939 210.561 201.966 210.733 201.966C210.863 201.966 210.969 201.959 211.052 201.946C211.135 201.929 211.201 201.916 211.251 201.906L211.489 202.96C211.41 202.99 211.299 203.02 211.156 203.05C211.014 203.083 210.833 203.099 210.614 203.099C210.283 203.099 209.958 203.028 209.64 202.886C209.325 202.743 209.063 202.526 208.854 202.234C208.649 201.943 208.546 201.575 208.546 201.131V193.534ZM216.235 203.159C215.499 203.159 214.864 202.997 214.33 202.672C213.8 202.344 213.391 201.886 213.102 201.3C212.817 200.71 212.675 200.024 212.675 199.241C212.675 198.459 212.817 197.77 213.102 197.173C213.391 196.573 213.792 196.106 214.306 195.771C214.823 195.433 215.426 195.264 216.115 195.264C216.513 195.264 216.906 195.33 217.294 195.463C217.681 195.596 218.034 195.811 218.352 196.109C218.671 196.404 218.924 196.795 219.113 197.283C219.302 197.77 219.396 198.37 219.396 199.082V199.58H213.51V198.565H218.203C218.203 198.134 218.117 197.75 217.945 197.412C217.776 197.074 217.534 196.807 217.219 196.612C216.907 196.416 216.539 196.318 216.115 196.318C215.648 196.318 215.244 196.434 214.902 196.666C214.564 196.895 214.304 197.193 214.122 197.561C213.939 197.929 213.848 198.323 213.848 198.744V199.42C213.848 199.997 213.948 200.486 214.146 200.887C214.349 201.285 214.629 201.588 214.987 201.797C215.345 202.002 215.761 202.105 216.235 202.105C216.543 202.105 216.821 202.062 217.07 201.976C217.322 201.886 217.539 201.754 217.721 201.578C217.903 201.399 218.044 201.177 218.144 200.912L219.277 201.23C219.158 201.615 218.957 201.953 218.676 202.244C218.394 202.533 218.046 202.758 217.632 202.92C217.217 203.08 216.752 203.159 216.235 203.159ZM221.851 195.364L223.681 198.486L225.51 195.364H226.863L224.397 199.182L226.863 203H225.51L223.681 200.037L221.851 203H220.499L222.925 199.182L220.499 195.364H221.851ZM231.858 195.364V196.358H227.9V195.364H231.858ZM229.054 193.534H230.227V200.812C230.227 201.144 230.275 201.393 230.371 201.558C230.471 201.721 230.597 201.83 230.749 201.886C230.905 201.939 231.069 201.966 231.241 201.966C231.371 201.966 231.477 201.959 231.559 201.946C231.642 201.929 231.709 201.916 231.758 201.906L231.997 202.96C231.917 202.99 231.806 203.02 231.664 203.05C231.521 203.083 231.341 203.099 231.122 203.099C230.791 203.099 230.466 203.028 230.148 202.886C229.833 202.743 229.571 202.526 229.362 202.234C229.157 201.943 229.054 201.575 229.054 201.131V193.534Z" fill="white" fill-opacity="0.7"/>
<rect x="450" y="100" width="32" height="32" rx="16" fill="#DA0087"/>
<path d="M462.325 121.5V119.949L465.95 116.593C466.258 116.295 466.516 116.026 466.725 115.788C466.937 115.549 467.098 115.315 467.207 115.087C467.317 114.855 467.371 114.604 467.371 114.336C467.371 114.038 467.304 113.781 467.168 113.565C467.032 113.347 466.846 113.179 466.611 113.063C466.375 112.944 466.109 112.884 465.81 112.884C465.499 112.884 465.227 112.947 464.995 113.073C464.763 113.199 464.584 113.38 464.458 113.615C464.332 113.85 464.269 114.13 464.269 114.455H462.226C462.226 113.789 462.377 113.211 462.678 112.72C462.98 112.23 463.402 111.85 463.946 111.582C464.49 111.313 465.116 111.179 465.825 111.179C466.554 111.179 467.189 111.308 467.729 111.567C468.273 111.822 468.696 112.177 468.997 112.631C469.299 113.085 469.45 113.605 469.45 114.192C469.45 114.576 469.373 114.956 469.221 115.33C469.072 115.705 468.805 116.121 468.42 116.578C468.036 117.032 467.494 117.577 466.795 118.214L465.308 119.67V119.74H469.584V121.5H462.325Z" fill="white" fill-opacity="0.95"/>
<path d="M451.233 160V149.818H452.466V158.906H457.199V160H451.233ZM461.196 160.179C460.712 160.179 460.273 160.088 459.879 159.906C459.484 159.72 459.171 159.453 458.939 159.105C458.707 158.754 458.591 158.33 458.591 157.832C458.591 157.395 458.677 157.04 458.849 156.768C459.022 156.493 459.252 156.278 459.54 156.122C459.829 155.966 460.147 155.85 460.495 155.774C460.846 155.695 461.199 155.632 461.554 155.585C462.018 155.526 462.394 155.481 462.683 155.451C462.974 155.418 463.186 155.363 463.319 155.287C463.455 155.211 463.523 155.078 463.523 154.889V154.849C463.523 154.359 463.388 153.978 463.12 153.706C462.855 153.434 462.452 153.298 461.912 153.298C461.352 153.298 460.913 153.421 460.594 153.666C460.276 153.911 460.053 154.173 459.923 154.452L458.81 154.054C459.009 153.59 459.274 153.229 459.605 152.97C459.94 152.708 460.304 152.526 460.699 152.423C461.097 152.317 461.488 152.264 461.872 152.264C462.117 152.264 462.399 152.294 462.717 152.354C463.039 152.41 463.349 152.528 463.647 152.707C463.949 152.886 464.199 153.156 464.398 153.517C464.597 153.878 464.696 154.362 464.696 154.969V160H463.523V158.966H463.463C463.384 159.132 463.251 159.309 463.065 159.498C462.88 159.687 462.633 159.848 462.325 159.98C462.016 160.113 461.64 160.179 461.196 160.179ZM461.375 159.125C461.839 159.125 462.23 159.034 462.548 158.852C462.87 158.669 463.112 158.434 463.274 158.146C463.44 157.857 463.523 157.554 463.523 157.236V156.162C463.473 156.222 463.364 156.276 463.195 156.326C463.029 156.372 462.837 156.414 462.618 156.45C462.402 156.483 462.192 156.513 461.987 156.54C461.784 156.563 461.62 156.583 461.494 156.599C461.189 156.639 460.904 156.704 460.639 156.793C460.377 156.879 460.165 157.01 460.003 157.186C459.844 157.358 459.764 157.594 459.764 157.892C459.764 158.3 459.915 158.608 460.217 158.817C460.522 159.022 460.908 159.125 461.375 159.125ZM466.997 160V149.818H468.17V153.577H468.269C468.356 153.444 468.475 153.275 468.627 153.07C468.783 152.861 469.005 152.675 469.294 152.513C469.585 152.347 469.98 152.264 470.477 152.264C471.12 152.264 471.686 152.425 472.177 152.746C472.668 153.068 473.05 153.524 473.325 154.114C473.601 154.704 473.738 155.4 473.738 156.202C473.738 157.01 473.601 157.711 473.325 158.305C473.05 158.895 472.669 159.352 472.182 159.677C471.695 159.998 471.133 160.159 470.497 160.159C470.006 160.159 469.613 160.078 469.318 159.915C469.023 159.75 468.796 159.562 468.637 159.354C468.478 159.142 468.356 158.966 468.269 158.827H468.13V160H466.997ZM468.15 156.182C468.15 156.759 468.235 157.267 468.404 157.708C468.573 158.146 468.82 158.489 469.144 158.737C469.469 158.982 469.867 159.105 470.338 159.105C470.828 159.105 471.237 158.976 471.566 158.717C471.897 158.455 472.146 158.104 472.311 157.663C472.48 157.219 472.565 156.725 472.565 156.182C472.565 155.645 472.482 155.161 472.316 154.73C472.154 154.296 471.907 153.953 471.575 153.701C471.247 153.446 470.835 153.318 470.338 153.318C469.86 153.318 469.459 153.439 469.134 153.681C468.81 153.92 468.564 154.254 468.399 154.685C468.233 155.113 468.15 155.612 468.15 156.182ZM478.735 160.159C477.999 160.159 477.364 159.997 476.83 159.672C476.3 159.344 475.891 158.886 475.602 158.3C475.317 157.71 475.175 157.024 475.175 156.241C475.175 155.459 475.317 154.77 475.602 154.173C475.891 153.573 476.292 153.106 476.806 152.771C477.323 152.433 477.926 152.264 478.615 152.264C479.013 152.264 479.406 152.33 479.794 152.463C480.181 152.596 480.534 152.811 480.852 153.109C481.171 153.404 481.424 153.795 481.613 154.283C481.802 154.77 481.896 155.37 481.896 156.082V156.58H476.01V155.565H480.703C480.703 155.134 480.617 154.75 480.445 154.412C480.276 154.074 480.034 153.807 479.719 153.612C479.407 153.416 479.039 153.318 478.615 153.318C478.148 153.318 477.744 153.434 477.402 153.666C477.064 153.895 476.804 154.193 476.622 154.561C476.439 154.929 476.348 155.323 476.348 155.744V156.42C476.348 156.997 476.448 157.486 476.646 157.887C476.849 158.285 477.129 158.588 477.487 158.797C477.845 159.002 478.261 159.105 478.735 159.105C479.043 159.105 479.321 159.062 479.57 158.976C479.822 158.886 480.039 158.754 480.221 158.578C480.403 158.399 480.544 158.177 480.644 157.912L481.777 158.23C481.658 158.615 481.457 158.953 481.176 159.244C480.894 159.533 480.546 159.758 480.132 159.92C479.717 160.08 479.252 160.159 478.735 160.159ZM484.855 149.818V160H483.681V149.818H484.855ZM490.543 150.912V149.818H498.18V150.912H494.978V160H493.745V150.912H490.543ZM502.018 160.159C501.282 160.159 500.647 159.997 500.114 159.672C499.583 159.344 499.174 158.886 498.886 158.3C498.601 157.71 498.458 157.024 498.458 156.241C498.458 155.459 498.601 154.77 498.886 154.173C499.174 153.573 499.575 153.106 500.089 152.771C500.606 152.433 501.209 152.264 501.898 152.264C502.296 152.264 502.689 152.33 503.077 152.463C503.464 152.596 503.817 152.811 504.136 153.109C504.454 153.404 504.707 153.795 504.896 154.283C505.085 154.77 505.18 155.37 505.18 156.082V156.58H499.293V155.565H503.987C503.987 155.134 503.9 154.75 503.728 154.412C503.559 154.074 503.317 153.807 503.002 153.612C502.691 153.416 502.323 153.318 501.898 153.318C501.431 153.318 501.027 153.434 500.685 153.666C500.347 153.895 500.087 154.193 499.905 154.561C499.723 154.929 499.631 155.323 499.631 155.744V156.42C499.631 156.997 499.731 157.486 499.93 157.887C500.132 158.285 500.412 158.588 500.77 158.797C501.128 159.002 501.544 159.105 502.018 159.105C502.326 159.105 502.604 159.062 502.853 158.976C503.105 158.886 503.322 158.754 503.504 158.578C503.687 158.399 503.827 158.177 503.927 157.912L505.06 158.23C504.941 158.615 504.741 158.953 504.459 159.244C504.177 159.533 503.829 159.758 503.415 159.92C503 160.08 502.535 160.159 502.018 160.159ZM507.634 152.364L509.464 155.486L511.294 152.364H512.646L510.18 156.182L512.646 160H511.294L509.464 157.037L507.634 160H506.282L508.708 156.182L506.282 152.364H507.634ZM517.641 152.364V153.358H513.684V152.364H517.641ZM514.837 150.534H516.01V157.812C516.01 158.144 516.058 158.393 516.154 158.558C516.254 158.721 516.38 158.83 516.532 158.886C516.688 158.939 516.852 158.966 517.025 158.966C517.154 158.966 517.26 158.959 517.343 158.946C517.426 158.929 517.492 158.916 517.542 158.906L517.78 159.96C517.701 159.99 517.59 160.02 517.447 160.05C517.305 160.083 517.124 160.099 516.905 160.099C516.574 160.099 516.249 160.028 515.931 159.886C515.616 159.743 515.354 159.526 515.145 159.234C514.94 158.943 514.837 158.575 514.837 158.131V150.534Z" fill="white" fill-opacity="0.95"/>
<path d="M669.251 149.818V160H668.018V151.111H667.958L665.472 152.761V151.509L668.018 149.818H669.251ZM675.5 160.139C674.751 160.139 674.113 159.935 673.586 159.528C673.059 159.117 672.656 158.522 672.378 157.743C672.099 156.961 671.96 156.016 671.96 154.909C671.96 153.809 672.099 152.869 672.378 152.09C672.66 151.308 673.064 150.711 673.591 150.3C674.121 149.886 674.758 149.679 675.5 149.679C676.242 149.679 676.877 149.886 677.404 150.3C677.934 150.711 678.339 151.308 678.617 152.09C678.899 152.869 679.04 153.809 679.04 154.909C679.04 156.016 678.901 156.961 678.622 157.743C678.344 158.522 677.941 159.117 677.414 159.528C676.887 159.935 676.249 160.139 675.5 160.139ZM675.5 159.045C676.242 159.045 676.819 158.687 677.23 157.972C677.641 157.256 677.847 156.235 677.847 154.909C677.847 154.027 677.752 153.277 677.563 152.657C677.378 152.037 677.109 151.565 676.758 151.24C676.41 150.915 675.991 150.753 675.5 150.753C674.764 150.753 674.189 151.116 673.775 151.842C673.361 152.564 673.153 153.587 673.153 154.909C673.153 155.791 673.246 156.54 673.432 157.156C673.617 157.773 673.884 158.242 674.232 158.563C674.584 158.885 675.006 159.045 675.5 159.045ZM684.25 160.139C683.501 160.139 682.863 159.935 682.336 159.528C681.809 159.117 681.406 158.522 681.128 157.743C680.849 156.961 680.71 156.016 680.71 154.909C680.71 153.809 680.849 152.869 681.128 152.09C681.41 151.308 681.814 150.711 682.341 150.3C682.871 149.886 683.508 149.679 684.25 149.679C684.992 149.679 685.627 149.886 686.154 150.3C686.684 150.711 687.089 151.308 687.367 152.09C687.649 152.869 687.79 153.809 687.79 154.909C687.79 156.016 687.651 156.961 687.372 157.743C687.094 158.522 686.691 159.117 686.164 159.528C685.637 159.935 684.999 160.139 684.25 160.139ZM684.25 159.045C684.992 159.045 685.569 158.687 685.98 157.972C686.391 157.256 686.597 156.235 686.597 154.909C686.597 154.027 686.502 153.277 686.313 152.657C686.128 152.037 685.859 151.565 685.508 151.24C685.16 150.915 684.741 150.753 684.25 150.753C683.514 150.753 682.939 151.116 682.525 151.842C682.111 152.564 681.903 153.587 681.903 154.909C681.903 155.791 681.996 156.54 682.182 157.156C682.367 157.773 682.634 158.242 682.982 158.563C683.334 158.885 683.756 159.045 684.25 159.045ZM694.869 158.091V157.554C694.869 157.183 694.946 156.843 695.098 156.535C695.254 156.223 695.479 155.975 695.774 155.789C696.072 155.6 696.434 155.506 696.858 155.506C697.289 155.506 697.65 155.6 697.942 155.789C698.233 155.975 698.454 156.223 698.603 156.535C698.752 156.843 698.827 157.183 698.827 157.554V158.091C698.827 158.462 698.75 158.804 698.598 159.115C698.449 159.423 698.227 159.672 697.932 159.861C697.64 160.046 697.282 160.139 696.858 160.139C696.427 160.139 696.064 160.046 695.769 159.861C695.474 159.672 695.25 159.423 695.098 159.115C694.946 158.804 694.869 158.462 694.869 158.091ZM695.884 157.554V158.091C695.884 158.399 695.956 158.676 696.102 158.921C696.248 159.163 696.5 159.284 696.858 159.284C697.206 159.284 697.451 159.163 697.594 158.921C697.74 158.676 697.812 158.399 697.812 158.091V157.554C697.812 157.246 697.743 156.971 697.604 156.729C697.464 156.483 697.216 156.361 696.858 156.361C696.51 156.361 696.26 156.483 696.107 156.729C695.958 156.971 695.884 157.246 695.884 157.554ZM689.798 152.264V151.727C689.798 151.356 689.875 151.016 690.027 150.708C690.183 150.397 690.408 150.148 690.703 149.962C691.001 149.773 691.363 149.679 691.787 149.679C692.218 149.679 692.579 149.773 692.871 149.962C693.162 150.148 693.383 150.397 693.532 150.708C693.681 151.016 693.756 151.356 693.756 151.727V152.264C693.756 152.635 693.679 152.977 693.527 153.288C693.378 153.597 693.156 153.845 692.861 154.034C692.569 154.22 692.211 154.312 691.787 154.312C691.356 154.312 690.993 154.22 690.698 154.034C690.403 153.845 690.179 153.597 690.027 153.288C689.875 152.977 689.798 152.635 689.798 152.264ZM690.812 151.727V152.264C690.812 152.572 690.885 152.849 691.031 153.094C691.177 153.336 691.429 153.457 691.787 153.457C692.135 153.457 692.38 153.336 692.523 153.094C692.669 152.849 692.741 152.572 692.741 152.264V151.727C692.741 151.419 692.672 151.144 692.533 150.902C692.393 150.657 692.145 150.534 691.787 150.534C691.439 150.534 691.189 150.657 691.036 150.902C690.887 151.144 690.812 151.419 690.812 151.727ZM690.176 160L697.176 149.818H698.31L691.31 160H690.176Z" fill="white" fill-opacity="0.95"/>
<rect x="450" y="172" width="250" height="8" rx="4" fill="#3492EB"/>
<rect x="450" y="172" width="250" height="8" rx="4" fill="#27A17A"/>
<path d="M459.824 197.909C459.824 198.983 459.63 199.911 459.242 200.693C458.854 201.475 458.322 202.079 457.646 202.503C456.97 202.927 456.198 203.139 455.33 203.139C454.461 203.139 453.689 202.927 453.013 202.503C452.337 202.079 451.805 201.475 451.417 200.693C451.029 199.911 450.835 198.983 450.835 197.909C450.835 196.835 451.029 195.907 451.417 195.125C451.805 194.343 452.337 193.74 453.013 193.315C453.689 192.891 454.461 192.679 455.33 192.679C456.198 192.679 456.97 192.891 457.646 193.315C458.322 193.74 458.854 194.343 459.242 195.125C459.63 195.907 459.824 196.835 459.824 197.909ZM458.631 197.909C458.631 197.027 458.483 196.283 458.188 195.677C457.897 195.07 457.5 194.611 457 194.3C456.503 193.988 455.946 193.832 455.33 193.832C454.713 193.832 454.155 193.988 453.654 194.3C453.157 194.611 452.761 195.07 452.466 195.677C452.174 196.283 452.028 197.027 452.028 197.909C452.028 198.791 452.174 199.535 452.466 200.141C452.761 200.748 453.157 201.207 453.654 201.518C454.155 201.83 454.713 201.986 455.33 201.986C455.946 201.986 456.503 201.83 457 201.518C457.5 201.207 457.897 200.748 458.188 200.141C458.483 199.535 458.631 198.791 458.631 197.909ZM461.738 205.864V195.364H462.871V196.577H463.011C463.097 196.444 463.216 196.275 463.369 196.07C463.524 195.861 463.746 195.675 464.035 195.513C464.326 195.347 464.721 195.264 465.218 195.264C465.861 195.264 466.428 195.425 466.918 195.746C467.409 196.068 467.792 196.524 468.067 197.114C468.342 197.704 468.479 198.4 468.479 199.202C468.479 200.01 468.342 200.711 468.067 201.305C467.792 201.895 467.411 202.352 466.923 202.677C466.436 202.998 465.874 203.159 465.238 203.159C464.747 203.159 464.355 203.078 464.06 202.915C463.765 202.75 463.538 202.562 463.379 202.354C463.219 202.142 463.097 201.966 463.011 201.827H462.911V205.864H461.738ZM462.891 199.182C462.891 199.759 462.976 200.267 463.145 200.708C463.314 201.146 463.561 201.489 463.886 201.737C464.21 201.982 464.608 202.105 465.079 202.105C465.569 202.105 465.979 201.976 466.307 201.717C466.638 201.455 466.887 201.104 467.053 200.663C467.222 200.219 467.306 199.725 467.306 199.182C467.306 198.645 467.223 198.161 467.058 197.73C466.895 197.296 466.648 196.953 466.317 196.701C465.989 196.446 465.576 196.318 465.079 196.318C464.602 196.318 464.201 196.439 463.876 196.681C463.551 196.92 463.306 197.254 463.14 197.685C462.974 198.113 462.891 198.612 462.891 199.182ZM473.59 195.364V196.358H469.633V195.364H473.59ZM470.786 193.534H471.96V200.812C471.96 201.144 472.008 201.393 472.104 201.558C472.203 201.721 472.329 201.83 472.482 201.886C472.637 201.939 472.801 201.966 472.974 201.966C473.103 201.966 473.209 201.959 473.292 201.946C473.375 201.929 473.441 201.916 473.491 201.906L473.729 202.96C473.65 202.99 473.539 203.02 473.396 203.05C473.254 203.083 473.073 203.099 472.854 203.099C472.523 203.099 472.198 203.028 471.88 202.886C471.565 202.743 471.303 202.526 471.094 202.234C470.889 201.943 470.786 201.575 470.786 201.131V193.534ZM475.355 203V195.364H476.528V203H475.355ZM475.952 194.091C475.723 194.091 475.526 194.013 475.36 193.857C475.198 193.701 475.116 193.514 475.116 193.295C475.116 193.077 475.198 192.889 475.36 192.734C475.526 192.578 475.723 192.5 475.952 192.5C476.18 192.5 476.376 192.578 476.538 192.734C476.704 192.889 476.787 193.077 476.787 193.295C476.787 193.514 476.704 193.701 476.538 193.857C476.376 194.013 476.18 194.091 475.952 194.091ZM481.78 203.159C481.09 203.159 480.485 202.995 479.965 202.667C479.448 202.339 479.044 201.88 478.752 201.29C478.464 200.7 478.319 200.01 478.319 199.222C478.319 198.426 478.464 197.732 478.752 197.138C479.044 196.545 479.448 196.085 479.965 195.756C480.485 195.428 481.09 195.264 481.78 195.264C482.469 195.264 483.072 195.428 483.589 195.756C484.11 196.085 484.514 196.545 484.802 197.138C485.094 197.732 485.24 198.426 485.24 199.222C485.24 200.01 485.094 200.7 484.802 201.29C484.514 201.88 484.11 202.339 483.589 202.667C483.072 202.995 482.469 203.159 481.78 203.159ZM481.78 202.105C482.303 202.105 482.734 201.971 483.072 201.702C483.41 201.434 483.661 201.081 483.823 200.643C483.985 200.206 484.067 199.732 484.067 199.222C484.067 198.711 483.985 198.236 483.823 197.795C483.661 197.354 483.41 196.998 483.072 196.726C482.734 196.454 482.303 196.318 481.78 196.318C481.256 196.318 480.825 196.454 480.487 196.726C480.149 196.998 479.899 197.354 479.736 197.795C479.574 198.236 479.493 198.711 479.493 199.222C479.493 199.732 479.574 200.206 479.736 200.643C479.899 201.081 480.149 201.434 480.487 201.702C480.825 201.971 481.256 202.105 481.78 202.105ZM488.204 198.406V203H487.031V195.364H488.164V196.557H488.264C488.443 196.169 488.715 195.857 489.079 195.622C489.444 195.384 489.914 195.264 490.491 195.264C491.008 195.264 491.461 195.37 491.848 195.582C492.236 195.791 492.538 196.109 492.753 196.537C492.969 196.961 493.076 197.498 493.076 198.148V203H491.903V198.227C491.903 197.627 491.747 197.16 491.436 196.825C491.124 196.487 490.697 196.318 490.153 196.318C489.779 196.318 489.444 196.399 489.149 196.562C488.857 196.724 488.627 196.961 488.458 197.273C488.289 197.584 488.204 197.962 488.204 198.406ZM497.468 203.179C496.984 203.179 496.544 203.088 496.15 202.906C495.756 202.72 495.442 202.453 495.21 202.105C494.978 201.754 494.862 201.33 494.862 200.832C494.862 200.395 494.949 200.04 495.121 199.768C495.293 199.493 495.524 199.278 495.812 199.122C496.1 198.966 496.419 198.85 496.767 198.774C497.118 198.695 497.471 198.632 497.825 198.585C498.289 198.526 498.666 198.481 498.954 198.451C499.246 198.418 499.458 198.363 499.59 198.287C499.726 198.211 499.794 198.078 499.794 197.889V197.849C499.794 197.359 499.66 196.978 499.392 196.706C499.126 196.434 498.724 196.298 498.183 196.298C497.623 196.298 497.184 196.421 496.866 196.666C496.548 196.911 496.324 197.173 496.195 197.452L495.081 197.054C495.28 196.59 495.545 196.229 495.877 195.97C496.211 195.708 496.576 195.526 496.97 195.423C497.368 195.317 497.759 195.264 498.144 195.264C498.389 195.264 498.671 195.294 498.989 195.354C499.31 195.41 499.62 195.528 499.919 195.707C500.22 195.886 500.47 196.156 500.669 196.517C500.868 196.878 500.968 197.362 500.968 197.969V203H499.794V201.966H499.735C499.655 202.132 499.522 202.309 499.337 202.498C499.151 202.687 498.904 202.848 498.596 202.98C498.288 203.113 497.912 203.179 497.468 203.179ZM497.646 202.125C498.11 202.125 498.502 202.034 498.82 201.852C499.141 201.669 499.383 201.434 499.546 201.146C499.711 200.857 499.794 200.554 499.794 200.236V199.162C499.744 199.222 499.635 199.276 499.466 199.326C499.3 199.372 499.108 199.414 498.889 199.45C498.674 199.483 498.463 199.513 498.258 199.54C498.056 199.563 497.892 199.583 497.766 199.599C497.461 199.639 497.176 199.704 496.911 199.793C496.649 199.879 496.437 200.01 496.274 200.186C496.115 200.358 496.036 200.594 496.036 200.892C496.036 201.3 496.186 201.608 496.488 201.817C496.793 202.022 497.179 202.125 497.646 202.125ZM504.282 192.818V203H503.109V192.818H504.282ZM510.528 203V192.818H511.761V197.352H517.19V192.818H518.423V203H517.19V198.446H511.761V203H510.528ZM523.934 203.159C523.198 203.159 522.563 202.997 522.03 202.672C521.499 202.344 521.09 201.886 520.802 201.3C520.517 200.71 520.374 200.024 520.374 199.241C520.374 198.459 520.517 197.77 520.802 197.173C521.09 196.573 521.491 196.106 522.005 195.771C522.522 195.433 523.125 195.264 523.814 195.264C524.212 195.264 524.605 195.33 524.993 195.463C525.381 195.596 525.733 195.811 526.052 196.109C526.37 196.404 526.623 196.795 526.812 197.283C527.001 197.77 527.096 198.37 527.096 199.082V199.58H521.209V198.565H525.903C525.903 198.134 525.816 197.75 525.644 197.412C525.475 197.074 525.233 196.807 524.918 196.612C524.607 196.416 524.239 196.318 523.814 196.318C523.347 196.318 522.943 196.434 522.601 196.666C522.263 196.895 522.003 197.193 521.821 197.561C521.639 197.929 521.547 198.323 521.547 198.744V199.42C521.547 199.997 521.647 200.486 521.846 200.887C522.048 201.285 522.328 201.588 522.686 201.797C523.044 202.002 523.46 202.105 523.934 202.105C524.242 202.105 524.52 202.062 524.769 201.976C525.021 201.886 525.238 201.754 525.42 201.578C525.603 201.399 525.743 201.177 525.843 200.912L526.976 201.23C526.857 201.615 526.657 201.953 526.375 202.244C526.093 202.533 525.745 202.758 525.331 202.92C524.916 203.08 524.451 203.159 523.934 203.159ZM530.054 192.818V203H528.881V192.818H530.054ZM532.203 205.864V195.364H533.336V196.577H533.475C533.562 196.444 533.681 196.275 533.833 196.07C533.989 195.861 534.211 195.675 534.5 195.513C534.791 195.347 535.186 195.264 535.683 195.264C536.326 195.264 536.893 195.425 537.383 195.746C537.874 196.068 538.257 196.524 538.532 197.114C538.807 197.704 538.944 198.4 538.944 199.202C538.944 200.01 538.807 200.711 538.532 201.305C538.257 201.895 537.875 202.352 537.388 202.677C536.901 202.998 536.339 203.159 535.703 203.159C535.212 203.159 534.819 203.078 534.525 202.915C534.23 202.75 534.002 202.562 533.843 202.354C533.684 202.142 533.562 201.966 533.475 201.827H533.376V205.864H532.203ZM533.356 199.182C533.356 199.759 533.441 200.267 533.61 200.708C533.779 201.146 534.026 201.489 534.35 201.737C534.675 201.982 535.073 202.105 535.544 202.105C536.034 202.105 536.444 201.976 536.772 201.717C537.103 201.455 537.352 201.104 537.517 200.663C537.686 200.219 537.771 199.725 537.771 199.182C537.771 198.645 537.688 198.161 537.522 197.73C537.36 197.296 537.113 196.953 536.782 196.701C536.453 196.446 536.041 196.318 535.544 196.318C535.066 196.318 534.665 196.439 534.341 196.681C534.016 196.92 533.77 197.254 533.605 197.685C533.439 198.113 533.356 198.612 533.356 199.182ZM543.936 203.159C543.2 203.159 542.565 202.997 542.032 202.672C541.501 202.344 541.092 201.886 540.804 201.3C540.519 200.71 540.376 200.024 540.376 199.241C540.376 198.459 540.519 197.77 540.804 197.173C541.092 196.573 541.493 196.106 542.007 195.771C542.524 195.433 543.127 195.264 543.816 195.264C544.214 195.264 544.607 195.33 544.995 195.463C545.382 195.596 545.735 195.811 546.054 196.109C546.372 196.404 546.625 196.795 546.814 197.283C547.003 197.77 547.098 198.37 547.098 199.082V199.58H541.211V198.565H545.904C545.904 198.134 545.818 197.75 545.646 197.412C545.477 197.074 545.235 196.807 544.92 196.612C544.609 196.416 544.241 196.318 543.816 196.318C543.349 196.318 542.945 196.434 542.603 196.666C542.265 196.895 542.005 197.193 541.823 197.561C541.641 197.929 541.549 198.323 541.549 198.744V199.42C541.549 199.997 541.649 200.486 541.848 200.887C542.05 201.285 542.33 201.588 542.688 201.797C543.046 202.002 543.462 202.105 543.936 202.105C544.244 202.105 544.522 202.062 544.771 201.976C545.023 201.886 545.24 201.754 545.422 201.578C545.605 201.399 545.745 201.177 545.845 200.912L546.978 201.23C546.859 201.615 546.658 201.953 546.377 202.244C546.095 202.533 545.747 202.758 545.333 202.92C544.918 203.08 544.453 203.159 543.936 203.159ZM548.882 203V195.364H550.016V196.517H550.096C550.235 196.139 550.487 195.833 550.851 195.597C551.216 195.362 551.627 195.244 552.084 195.244C552.17 195.244 552.278 195.246 552.407 195.249C552.537 195.253 552.634 195.258 552.701 195.264V196.457C552.661 196.447 552.57 196.433 552.427 196.413C552.288 196.389 552.141 196.378 551.985 196.378C551.614 196.378 551.282 196.456 550.99 196.612C550.702 196.764 550.473 196.976 550.304 197.248C550.139 197.516 550.056 197.823 550.056 198.168V203H548.882ZM561.35 195.364V196.358H557.393V195.364H561.35ZM558.546 193.534H559.719V200.812C559.719 201.144 559.767 201.393 559.863 201.558C559.963 201.721 560.089 201.83 560.241 201.886C560.397 201.939 560.561 201.966 560.733 201.966C560.863 201.966 560.969 201.959 561.052 201.946C561.135 201.929 561.201 201.916 561.251 201.906L561.489 202.96C561.41 202.99 561.299 203.02 561.156 203.05C561.014 203.083 560.833 203.099 560.614 203.099C560.283 203.099 559.958 203.028 559.64 202.886C559.325 202.743 559.063 202.526 558.854 202.234C558.649 201.943 558.546 201.575 558.546 201.131V193.534ZM566.235 203.159C565.499 203.159 564.864 202.997 564.33 202.672C563.8 202.344 563.391 201.886 563.102 201.3C562.817 200.71 562.675 200.024 562.675 199.241C562.675 198.459 562.817 197.77 563.102 197.173C563.391 196.573 563.792 196.106 564.306 195.771C564.823 195.433 565.426 195.264 566.115 195.264C566.513 195.264 566.906 195.33 567.294 195.463C567.681 195.596 568.034 195.811 568.352 196.109C568.671 196.404 568.924 196.795 569.113 197.283C569.302 197.77 569.396 198.37 569.396 199.082V199.58H563.51V198.565H568.203C568.203 198.134 568.117 197.75 567.945 197.412C567.776 197.074 567.534 196.807 567.219 196.612C566.907 196.416 566.539 196.318 566.115 196.318C565.648 196.318 565.244 196.434 564.902 196.666C564.564 196.895 564.304 197.193 564.122 197.561C563.939 197.929 563.848 198.323 563.848 198.744V199.42C563.848 199.997 563.948 200.486 564.146 200.887C564.349 201.285 564.629 201.588 564.987 201.797C565.345 202.002 565.761 202.105 566.235 202.105C566.543 202.105 566.821 202.062 567.07 201.976C567.322 201.886 567.539 201.754 567.721 201.578C567.903 201.399 568.044 201.177 568.144 200.912L569.277 201.23C569.158 201.615 568.957 201.953 568.676 202.244C568.394 202.533 568.046 202.758 567.632 202.92C567.217 203.08 566.752 203.159 566.235 203.159ZM571.851 195.364L573.681 198.486L575.51 195.364H576.863L574.397 199.182L576.863 203H575.51L573.681 200.037L571.851 203H570.499L572.925 199.182L570.499 195.364H571.851ZM581.858 195.364V196.358H577.9V195.364H581.858ZM579.054 193.534H580.227V200.812C580.227 201.144 580.275 201.393 580.371 201.558C580.471 201.721 580.597 201.83 580.749 201.886C580.905 201.939 581.069 201.966 581.241 201.966C581.371 201.966 581.477 201.959 581.559 201.946C581.642 201.929 581.709 201.916 581.758 201.906L581.997 202.96C581.917 202.99 581.806 203.02 581.664 203.05C581.521 203.083 581.341 203.099 581.122 203.099C580.791 203.099 580.466 203.028 580.148 202.886C579.833 202.743 579.571 202.526 579.362 202.234C579.157 201.943 579.054 201.575 579.054 201.131V193.534Z" fill="white" fill-opacity="0.7"/>
<rect x="800" y="100" width="32" height="32" rx="16" fill="#DA0087"/>
<path d="M815.589 121.639C814.846 121.639 814.185 121.512 813.605 121.256C813.028 120.998 812.573 120.643 812.238 120.192C811.906 119.738 811.736 119.215 811.726 118.621H813.893C813.907 118.87 813.988 119.089 814.137 119.278C814.29 119.463 814.492 119.607 814.744 119.71C814.996 119.813 815.279 119.864 815.594 119.864C815.922 119.864 816.212 119.806 816.464 119.69C816.716 119.574 816.913 119.414 817.055 119.208C817.198 119.003 817.269 118.766 817.269 118.497C817.269 118.225 817.193 117.985 817.04 117.776C816.891 117.564 816.676 117.398 816.394 117.279C816.116 117.16 815.784 117.1 815.4 117.1H814.45V115.519H815.4C815.725 115.519 816.011 115.463 816.26 115.35C816.512 115.237 816.707 115.082 816.847 114.883C816.986 114.681 817.055 114.445 817.055 114.177C817.055 113.922 816.994 113.698 816.871 113.506C816.752 113.31 816.583 113.158 816.364 113.048C816.149 112.939 815.897 112.884 815.609 112.884C815.317 112.884 815.05 112.937 814.808 113.043C814.566 113.146 814.372 113.294 814.227 113.486C814.081 113.678 814.003 113.903 813.993 114.162H811.93C811.94 113.575 812.107 113.058 812.432 112.611C812.757 112.163 813.194 111.814 813.744 111.562C814.298 111.307 814.923 111.179 815.619 111.179C816.321 111.179 816.936 111.307 817.463 111.562C817.99 111.817 818.399 112.162 818.691 112.596C818.986 113.027 819.132 113.511 819.129 114.048C819.132 114.618 818.955 115.093 818.597 115.474C818.242 115.856 817.78 116.098 817.21 116.2V116.28C817.959 116.376 818.529 116.636 818.92 117.06C819.314 117.481 819.51 118.008 819.506 118.641C819.51 119.221 819.342 119.737 819.004 120.188C818.67 120.638 818.207 120.993 817.617 121.251C817.027 121.51 816.351 121.639 815.589 121.639Z" fill="white" fill-opacity="0.95"/>
<path d="M801.233 160V149.818H802.466V158.906H807.199V160H801.233ZM811.196 160.179C810.712 160.179 810.273 160.088 809.879 159.906C809.484 159.72 809.171 159.453 808.939 159.105C808.707 158.754 808.591 158.33 808.591 157.832C808.591 157.395 808.677 157.04 808.849 156.768C809.022 156.493 809.252 156.278 809.54 156.122C809.829 155.966 810.147 155.85 810.495 155.774C810.846 155.695 811.199 155.632 811.554 155.585C812.018 155.526 812.394 155.481 812.683 155.451C812.974 155.418 813.186 155.363 813.319 155.287C813.455 155.211 813.523 155.078 813.523 154.889V154.849C813.523 154.359 813.388 153.978 813.12 153.706C812.855 153.434 812.452 153.298 811.912 153.298C811.352 153.298 810.913 153.421 810.594 153.666C810.276 153.911 810.053 154.173 809.923 154.452L808.81 154.054C809.009 153.59 809.274 153.229 809.605 152.97C809.94 152.708 810.304 152.526 810.699 152.423C811.097 152.317 811.488 152.264 811.872 152.264C812.117 152.264 812.399 152.294 812.717 152.354C813.039 152.41 813.349 152.528 813.647 152.707C813.949 152.886 814.199 153.156 814.398 153.517C814.597 153.878 814.696 154.362 814.696 154.969V160H813.523V158.966H813.463C813.384 159.132 813.251 159.309 813.065 159.498C812.88 159.687 812.633 159.848 812.325 159.98C812.016 160.113 811.64 160.179 811.196 160.179ZM811.375 159.125C811.839 159.125 812.23 159.034 812.548 158.852C812.87 158.669 813.112 158.434 813.274 158.146C813.44 157.857 813.523 157.554 813.523 157.236V156.162C813.473 156.222 813.364 156.276 813.195 156.326C813.029 156.372 812.837 156.414 812.618 156.45C812.402 156.483 812.192 156.513 811.987 156.54C811.784 156.563 811.62 156.583 811.494 156.599C811.189 156.639 810.904 156.704 810.639 156.793C810.377 156.879 810.165 157.01 810.003 157.186C809.844 157.358 809.764 157.594 809.764 157.892C809.764 158.3 809.915 158.608 810.217 158.817C810.522 159.022 810.908 159.125 811.375 159.125ZM816.997 160V149.818H818.17V153.577H818.269C818.356 153.444 818.475 153.275 818.627 153.07C818.783 152.861 819.005 152.675 819.294 152.513C819.585 152.347 819.98 152.264 820.477 152.264C821.12 152.264 821.686 152.425 822.177 152.746C822.668 153.068 823.05 153.524 823.325 154.114C823.601 154.704 823.738 155.4 823.738 156.202C823.738 157.01 823.601 157.711 823.325 158.305C823.05 158.895 822.669 159.352 822.182 159.677C821.695 159.998 821.133 160.159 820.497 160.159C820.006 160.159 819.613 160.078 819.318 159.915C819.023 159.75 818.796 159.562 818.637 159.354C818.478 159.142 818.356 158.966 818.269 158.827H818.13V160H816.997ZM818.15 156.182C818.15 156.759 818.235 157.267 818.404 157.708C818.573 158.146 818.82 158.489 819.144 158.737C819.469 158.982 819.867 159.105 820.338 159.105C820.828 159.105 821.237 158.976 821.566 158.717C821.897 158.455 822.146 158.104 822.311 157.663C822.48 157.219 822.565 156.725 822.565 156.182C822.565 155.645 822.482 155.161 822.316 154.73C822.154 154.296 821.907 153.953 821.575 153.701C821.247 153.446 820.835 153.318 820.338 153.318C819.86 153.318 819.459 153.439 819.134 153.681C818.81 153.92 818.564 154.254 818.399 154.685C818.233 155.113 818.15 155.612 818.15 156.182ZM828.735 160.159C827.999 160.159 827.364 159.997 826.83 159.672C826.3 159.344 825.891 158.886 825.602 158.3C825.317 157.71 825.175 157.024 825.175 156.241C825.175 155.459 825.317 154.77 825.602 154.173C825.891 153.573 826.292 153.106 826.806 152.771C827.323 152.433 827.926 152.264 828.615 152.264C829.013 152.264 829.406 152.33 829.794 152.463C830.181 152.596 830.534 152.811 830.852 153.109C831.171 153.404 831.424 153.795 831.613 154.283C831.802 154.77 831.896 155.37 831.896 156.082V156.58H826.01V155.565H830.703C830.703 155.134 830.617 154.75 830.445 154.412C830.276 154.074 830.034 153.807 829.719 153.612C829.407 153.416 829.039 153.318 828.615 153.318C828.148 153.318 827.744 153.434 827.402 153.666C827.064 153.895 826.804 154.193 826.622 154.561C826.439 154.929 826.348 155.323 826.348 155.744V156.42C826.348 156.997 826.448 157.486 826.646 157.887C826.849 158.285 827.129 158.588 827.487 158.797C827.845 159.002 828.261 159.105 828.735 159.105C829.043 159.105 829.321 159.062 829.57 158.976C829.822 158.886 830.039 158.754 830.221 158.578C830.403 158.399 830.544 158.177 830.644 157.912L831.777 158.23C831.658 158.615 831.457 158.953 831.176 159.244C830.894 159.533 830.546 159.758 830.132 159.92C829.717 160.08 829.252 160.159 828.735 160.159ZM834.855 149.818V160H833.681V149.818H834.855ZM840.543 150.912V149.818H848.18V150.912H844.978V160H843.745V150.912H840.543ZM852.018 160.159C851.282 160.159 850.647 159.997 850.114 159.672C849.583 159.344 849.174 158.886 848.886 158.3C848.601 157.71 848.458 157.024 848.458 156.241C848.458 155.459 848.601 154.77 848.886 154.173C849.174 153.573 849.575 153.106 850.089 152.771C850.606 152.433 851.209 152.264 851.898 152.264C852.296 152.264 852.689 152.33 853.077 152.463C853.464 152.596 853.817 152.811 854.136 153.109C854.454 153.404 854.707 153.795 854.896 154.283C855.085 154.77 855.18 155.37 855.18 156.082V156.58H849.293V155.565H853.987C853.987 155.134 853.9 154.75 853.728 154.412C853.559 154.074 853.317 153.807 853.002 153.612C852.691 153.416 852.323 153.318 851.898 153.318C851.431 153.318 851.027 153.434 850.685 153.666C850.347 153.895 850.087 154.193 849.905 154.561C849.723 154.929 849.631 155.323 849.631 155.744V156.42C849.631 156.997 849.731 157.486 849.93 157.887C850.132 158.285 850.412 158.588 850.77 158.797C851.128 159.002 851.544 159.105 852.018 159.105C852.326 159.105 852.604 159.062 852.853 158.976C853.105 158.886 853.322 158.754 853.504 158.578C853.687 158.399 853.827 158.177 853.927 157.912L855.06 158.23C854.941 158.615 854.741 158.953 854.459 159.244C854.177 159.533 853.829 159.758 853.415 159.92C853 160.08 852.535 160.159 852.018 160.159ZM857.634 152.364L859.464 155.486L861.294 152.364H862.646L860.18 156.182L862.646 160H861.294L859.464 157.037L857.634 160H856.282L858.708 156.182L856.282 152.364H857.634ZM867.641 152.364V153.358H863.684V152.364H867.641ZM864.837 150.534H866.01V157.812C866.01 158.144 866.058 158.393 866.154 158.558C866.254 158.721 866.38 158.83 866.532 158.886C866.688 158.939 866.852 158.966 867.025 158.966C867.154 158.966 867.26 158.959 867.343 158.946C867.426 158.929 867.492 158.916 867.542 158.906L867.78 159.96C867.701 159.99 867.59 160.02 867.447 160.05C867.305 160.083 867.124 160.099 866.905 160.099C866.574 160.099 866.249 160.028 865.931 159.886C865.616 159.743 865.354 159.526 865.145 159.234C864.94 158.943 864.837 158.575 864.837 158.131V150.534Z" fill="white" fill-opacity="0.95"/>
<rect x="800" y="172" width="250" height="8" rx="4" fill="#3492EB"/>
<rect x="800" y="172" width="250" height="8" rx="4" fill="#F55868"/>
<path d="M801.233 202.5V192.318H807.378V193.412H802.466V196.852H807.06V197.946H802.466V201.406H807.457V202.5H801.233ZM809.441 202.5V194.864H810.575V196.017H810.654C810.793 195.639 811.045 195.333 811.41 195.097C811.774 194.862 812.185 194.744 812.643 194.744C812.729 194.744 812.837 194.746 812.966 194.749C813.095 194.753 813.193 194.758 813.259 194.764V195.957C813.219 195.947 813.128 195.933 812.986 195.913C812.847 195.889 812.699 195.878 812.543 195.878C812.172 195.878 811.841 195.956 811.549 196.112C811.261 196.264 811.032 196.476 810.863 196.748C810.697 197.016 810.614 197.323 810.614 197.668V202.5H809.441ZM814.65 202.5V194.864H815.784V196.017H815.863C816.002 195.639 816.254 195.333 816.619 195.097C816.983 194.862 817.394 194.744 817.852 194.744C817.938 194.744 818.046 194.746 818.175 194.749C818.304 194.753 818.402 194.758 818.468 194.764V195.957C818.428 195.947 818.337 195.933 818.195 195.913C818.056 195.889 817.908 195.878 817.752 195.878C817.381 195.878 817.05 195.956 816.758 196.112C816.47 196.264 816.241 196.476 816.072 196.748C815.906 197.016 815.823 197.323 815.823 197.668V202.5H814.65ZM822.729 202.659C822.039 202.659 821.435 202.495 820.914 202.167C820.397 201.839 819.993 201.38 819.701 200.79C819.413 200.2 819.269 199.51 819.269 198.722C819.269 197.926 819.413 197.232 819.701 196.638C819.993 196.045 820.397 195.585 820.914 195.256C821.435 194.928 822.039 194.764 822.729 194.764C823.418 194.764 824.021 194.928 824.539 195.256C825.059 195.585 825.463 196.045 825.752 196.638C826.043 197.232 826.189 197.926 826.189 198.722C826.189 199.51 826.043 200.2 825.752 200.79C825.463 201.38 825.059 201.839 824.539 202.167C824.021 202.495 823.418 202.659 822.729 202.659ZM822.729 201.605C823.253 201.605 823.683 201.471 824.021 201.202C824.36 200.934 824.61 200.581 824.772 200.143C824.935 199.706 825.016 199.232 825.016 198.722C825.016 198.211 824.935 197.736 824.772 197.295C824.61 196.854 824.36 196.498 824.021 196.226C823.683 195.954 823.253 195.818 822.729 195.818C822.205 195.818 821.774 195.954 821.436 196.226C821.098 196.498 820.848 196.854 820.686 197.295C820.523 197.736 820.442 198.211 820.442 198.722C820.442 199.232 820.523 199.706 820.686 200.143C820.848 200.581 821.098 200.934 821.436 201.202C821.774 201.471 822.205 201.605 822.729 201.605ZM827.98 202.5V194.864H829.114V196.017H829.193C829.332 195.639 829.584 195.333 829.949 195.097C830.313 194.862 830.724 194.744 831.182 194.744C831.268 194.744 831.376 194.746 831.505 194.749C831.634 194.753 831.732 194.758 831.798 194.764V195.957C831.759 195.947 831.667 195.933 831.525 195.913C831.386 195.889 831.238 195.878 831.082 195.878C830.711 195.878 830.38 195.956 830.088 196.112C829.8 196.264 829.571 196.476 829.402 196.748C829.236 197.016 829.153 197.323 829.153 197.668V202.5H827.98ZM837.127 202.5V194.864H838.26V196.057H838.36C838.519 195.649 838.776 195.333 839.13 195.107C839.485 194.879 839.911 194.764 840.408 194.764C840.912 194.764 841.331 194.879 841.666 195.107C842.004 195.333 842.267 195.649 842.456 196.057H842.536C842.731 195.662 843.025 195.349 843.416 195.117C843.807 194.882 844.276 194.764 844.823 194.764C845.505 194.764 846.064 194.978 846.498 195.406C846.932 195.83 847.149 196.491 847.149 197.389V202.5H845.976V197.389C845.976 196.826 845.822 196.423 845.514 196.181C845.205 195.939 844.843 195.818 844.425 195.818C843.888 195.818 843.472 195.981 843.177 196.305C842.882 196.627 842.735 197.035 842.735 197.528V202.5H841.541V197.27C841.541 196.836 841.401 196.486 841.119 196.221C840.837 195.952 840.474 195.818 840.03 195.818C839.725 195.818 839.44 195.899 839.175 196.062C838.913 196.224 838.701 196.45 838.539 196.738C838.379 197.023 838.3 197.353 838.3 197.727V202.5H837.127ZM852.496 202.659C851.76 202.659 851.126 202.497 850.592 202.172C850.062 201.844 849.653 201.386 849.364 200.8C849.079 200.21 848.937 199.524 848.937 198.741C848.937 197.959 849.079 197.27 849.364 196.673C849.653 196.073 850.054 195.606 850.567 195.271C851.084 194.933 851.688 194.764 852.377 194.764C852.775 194.764 853.167 194.83 853.555 194.963C853.943 195.096 854.296 195.311 854.614 195.609C854.932 195.904 855.186 196.295 855.375 196.783C855.564 197.27 855.658 197.87 855.658 198.582V199.08H849.772V198.065H854.465C854.465 197.634 854.379 197.25 854.206 196.912C854.037 196.574 853.796 196.307 853.481 196.112C853.169 195.916 852.801 195.818 852.377 195.818C851.91 195.818 851.505 195.934 851.164 196.166C850.826 196.395 850.566 196.693 850.383 197.061C850.201 197.429 850.11 197.823 850.11 198.244V198.92C850.11 199.497 850.209 199.986 850.408 200.387C850.61 200.785 850.89 201.088 851.248 201.297C851.606 201.502 852.022 201.605 852.496 201.605C852.805 201.605 853.083 201.562 853.331 201.476C853.583 201.386 853.8 201.254 853.983 201.078C854.165 200.899 854.306 200.677 854.405 200.412L855.539 200.73C855.42 201.115 855.219 201.453 854.937 201.744C854.656 202.033 854.308 202.258 853.893 202.42C853.479 202.58 853.013 202.659 852.496 202.659ZM862.852 196.574L861.798 196.872C861.732 196.696 861.634 196.526 861.505 196.36C861.379 196.191 861.206 196.052 860.988 195.942C860.769 195.833 860.489 195.778 860.148 195.778C859.68 195.778 859.291 195.886 858.979 196.102C858.671 196.314 858.517 196.584 858.517 196.912C858.517 197.204 858.623 197.434 858.835 197.603C859.047 197.772 859.379 197.913 859.829 198.026L860.963 198.304C861.646 198.47 862.154 198.723 862.489 199.065C862.824 199.403 862.991 199.839 862.991 200.372C862.991 200.81 862.865 201.201 862.613 201.545C862.365 201.89 862.017 202.162 861.569 202.361C861.122 202.56 860.602 202.659 860.008 202.659C859.229 202.659 858.585 202.49 858.074 202.152C857.564 201.814 857.241 201.32 857.105 200.67L858.219 200.392C858.325 200.803 858.525 201.111 858.82 201.317C859.118 201.522 859.508 201.625 859.988 201.625C860.535 201.625 860.97 201.509 861.291 201.277C861.616 201.042 861.778 200.76 861.778 200.432C861.778 200.167 861.685 199.945 861.5 199.766C861.314 199.583 861.029 199.447 860.645 199.358L859.372 199.06C858.673 198.894 858.159 198.637 857.831 198.289C857.506 197.938 857.344 197.499 857.344 196.972C857.344 196.541 857.465 196.16 857.706 195.828C857.952 195.497 858.285 195.237 858.706 195.048C859.13 194.859 859.611 194.764 860.148 194.764C860.903 194.764 861.497 194.93 861.927 195.261C862.362 195.593 862.67 196.03 862.852 196.574ZM870.167 196.574L869.113 196.872C869.046 196.696 868.949 196.526 868.819 196.36C868.693 196.191 868.521 196.052 868.302 195.942C868.083 195.833 867.803 195.778 867.462 195.778C866.995 195.778 866.605 195.886 866.294 196.102C865.985 196.314 865.831 196.584 865.831 196.912C865.831 197.204 865.937 197.434 866.15 197.603C866.362 197.772 866.693 197.913 867.144 198.026L868.277 198.304C868.96 198.47 869.469 198.723 869.804 199.065C870.138 199.403 870.306 199.839 870.306 200.372C870.306 200.81 870.18 201.201 869.928 201.545C869.679 201.89 869.331 202.162 868.884 202.361C868.436 202.56 867.916 202.659 867.323 202.659C866.544 202.659 865.899 202.49 865.389 202.152C864.878 201.814 864.555 201.32 864.419 200.67L865.533 200.392C865.639 200.803 865.84 201.111 866.135 201.317C866.433 201.522 866.822 201.625 867.303 201.625C867.85 201.625 868.284 201.509 868.605 201.277C868.93 201.042 869.093 200.76 869.093 200.432C869.093 200.167 869 199.945 868.814 199.766C868.629 199.583 868.344 199.447 867.959 199.358L866.686 199.06C865.987 198.894 865.473 198.637 865.145 198.289C864.82 197.938 864.658 197.499 864.658 196.972C864.658 196.541 864.779 196.16 865.021 195.828C865.266 195.497 865.599 195.237 866.02 195.048C866.444 194.859 866.925 194.764 867.462 194.764C868.218 194.764 868.811 194.93 869.242 195.261C869.676 195.593 869.984 196.03 870.167 196.574ZM874.319 202.679C873.835 202.679 873.396 202.588 873.002 202.406C872.607 202.22 872.294 201.953 872.062 201.605C871.83 201.254 871.714 200.83 871.714 200.332C871.714 199.895 871.8 199.54 871.972 199.268C872.145 198.993 872.375 198.778 872.664 198.622C872.952 198.466 873.27 198.35 873.618 198.274C873.969 198.195 874.322 198.132 874.677 198.085C875.141 198.026 875.517 197.981 875.806 197.951C876.097 197.918 876.309 197.863 876.442 197.787C876.578 197.711 876.646 197.578 876.646 197.389V197.349C876.646 196.859 876.512 196.478 876.243 196.206C875.978 195.934 875.575 195.798 875.035 195.798C874.475 195.798 874.036 195.921 873.718 196.166C873.399 196.411 873.176 196.673 873.046 196.952L871.933 196.554C872.132 196.09 872.397 195.729 872.728 195.47C873.063 195.208 873.427 195.026 873.822 194.923C874.22 194.817 874.611 194.764 874.995 194.764C875.24 194.764 875.522 194.794 875.84 194.854C876.162 194.91 876.472 195.028 876.77 195.207C877.072 195.386 877.322 195.656 877.521 196.017C877.72 196.378 877.819 196.862 877.819 197.469V202.5H876.646V201.466H876.586C876.507 201.632 876.374 201.809 876.188 201.998C876.003 202.187 875.756 202.348 875.448 202.48C875.139 202.613 874.763 202.679 874.319 202.679ZM874.498 201.625C874.962 201.625 875.353 201.534 875.671 201.352C875.993 201.169 876.235 200.934 876.397 200.646C876.563 200.357 876.646 200.054 876.646 199.736V198.662C876.596 198.722 876.487 198.776 876.318 198.826C876.152 198.872 875.96 198.914 875.741 198.95C875.526 198.983 875.315 199.013 875.11 199.04C874.907 199.063 874.743 199.083 874.617 199.099C874.312 199.139 874.027 199.204 873.762 199.293C873.5 199.379 873.288 199.51 873.126 199.686C872.967 199.858 872.887 200.094 872.887 200.392C872.887 200.8 873.038 201.108 873.34 201.317C873.645 201.522 874.031 201.625 874.498 201.625ZM883.043 205.523C882.476 205.523 881.989 205.45 881.581 205.304C881.174 205.161 880.834 204.973 880.562 204.737C880.294 204.505 880.08 204.257 879.921 203.991L880.855 203.335C880.962 203.474 881.096 203.634 881.258 203.812C881.421 203.995 881.643 204.152 881.924 204.285C882.209 204.421 882.582 204.489 883.043 204.489C883.659 204.489 884.168 204.339 884.569 204.041C884.97 203.743 885.171 203.276 885.171 202.639V201.088H885.071C884.985 201.227 884.863 201.4 884.703 201.605C884.548 201.807 884.322 201.988 884.027 202.147C883.736 202.303 883.341 202.381 882.844 202.381C882.228 202.381 881.674 202.235 881.184 201.943C880.696 201.652 880.31 201.227 880.025 200.67C879.743 200.114 879.603 199.437 879.603 198.642C879.603 197.86 879.74 197.179 880.015 196.599C880.29 196.015 880.673 195.565 881.164 195.246C881.654 194.925 882.221 194.764 882.864 194.764C883.361 194.764 883.756 194.847 884.047 195.013C884.342 195.175 884.568 195.361 884.723 195.57C884.882 195.775 885.005 195.944 885.091 196.077H885.211V194.864H886.344V202.719C886.344 203.375 886.195 203.909 885.897 204.32C885.602 204.734 885.204 205.037 884.703 205.229C884.206 205.425 883.653 205.523 883.043 205.523ZM883.003 201.327C883.474 201.327 883.872 201.219 884.196 201.004C884.521 200.788 884.768 200.478 884.937 200.074C885.106 199.67 885.191 199.186 885.191 198.622C885.191 198.072 885.108 197.586 884.942 197.165C884.776 196.745 884.531 196.415 884.206 196.176C883.882 195.937 883.48 195.818 883.003 195.818C882.506 195.818 882.092 195.944 881.76 196.196C881.432 196.448 881.185 196.786 881.02 197.21C880.857 197.634 880.776 198.105 880.776 198.622C880.776 199.152 880.859 199.621 881.025 200.029C881.194 200.433 881.442 200.752 881.77 200.984C882.102 201.212 882.513 201.327 883.003 201.327ZM891.694 202.659C890.958 202.659 890.323 202.497 889.789 202.172C889.259 201.844 888.85 201.386 888.561 200.8C888.276 200.21 888.134 199.524 888.134 198.741C888.134 197.959 888.276 197.27 888.561 196.673C888.85 196.073 889.251 195.606 889.765 195.271C890.282 194.933 890.885 194.764 891.574 194.764C891.972 194.764 892.365 194.83 892.752 194.963C893.14 195.096 893.493 195.311 893.811 195.609C894.13 195.904 894.383 196.295 894.572 196.783C894.761 197.27 894.855 197.87 894.855 198.582V199.08H888.969V198.065H893.662C893.662 197.634 893.576 197.25 893.404 196.912C893.235 196.574 892.993 196.307 892.678 196.112C892.366 195.916 891.998 195.818 891.574 195.818C891.107 195.818 890.703 195.934 890.361 196.166C890.023 196.395 889.763 196.693 889.581 197.061C889.398 197.429 889.307 197.823 889.307 198.244V198.92C889.307 199.497 889.407 199.986 889.605 200.387C889.808 200.785 890.088 201.088 890.446 201.297C890.804 201.502 891.22 201.605 891.694 201.605C892.002 201.605 892.28 201.562 892.529 201.476C892.781 201.386 892.998 201.254 893.18 201.078C893.362 200.899 893.503 200.677 893.603 200.412L894.736 200.73C894.617 201.115 894.416 201.453 894.135 201.744C893.853 202.033 893.505 202.258 893.091 202.42C892.676 202.58 892.211 202.659 891.694 202.659Z" fill="white" fill-opacity="0.7"/>
</svg>
