<svg width="1300" height="104" viewBox="0 0 1300 104" fill="none" xmlns="http://www.w3.org/2000/svg">
<rect width="1300" height="104" fill="#1A1A1A"/>
<mask id="path-1-inside-1_2102_35120" fill="white">
<path d="M0 0H433.333V104H0V0Z"/>
</mask>
<path d="M433.333 104V105H434.333V104H433.333ZM432.333 0V104H434.333V0H432.333ZM433.333 103H0V105H433.333V103Z" fill="#707070" mask="url(#path-1-inside-1_2102_35120)"/>
<path d="M31.4091 58V46.3636H35.3409C36.2538 46.3636 37 46.5284 37.5795 46.858C38.1629 47.1837 38.5947 47.625 38.875 48.1818C39.1553 48.7386 39.2955 49.3598 39.2955 50.0455C39.2955 50.7311 39.1553 51.3542 38.875 51.9148C38.5985 52.4754 38.1705 52.9223 37.5909 53.2557C37.0114 53.5852 36.2689 53.75 35.3636 53.75H32.5455V52.5H35.3182C35.9432 52.5 36.4451 52.392 36.8239 52.1761C37.2027 51.9602 37.4773 51.6686 37.6477 51.3011C37.822 50.9299 37.9091 50.5114 37.9091 50.0455C37.9091 49.5795 37.822 49.1629 37.6477 48.7955C37.4773 48.428 37.2008 48.1402 36.8182 47.9318C36.4356 47.7197 35.928 47.6136 35.2955 47.6136H32.8182V58H31.4091ZM41.3835 58V49.2727H42.679V50.5909H42.7699C42.929 50.1591 43.2169 49.8087 43.6335 49.5398C44.0502 49.2708 44.5199 49.1364 45.0426 49.1364C45.1411 49.1364 45.2642 49.1383 45.4119 49.142C45.5597 49.1458 45.6714 49.1515 45.7472 49.1591V50.5227C45.7017 50.5114 45.5975 50.4943 45.4347 50.4716C45.2756 50.4451 45.107 50.4318 44.929 50.4318C44.5047 50.4318 44.1259 50.5208 43.7926 50.6989C43.4631 50.8731 43.2017 51.1155 43.0085 51.4261C42.8191 51.733 42.7244 52.0833 42.7244 52.4773V58H41.3835ZM50.6165 58.1818C49.8286 58.1818 49.1373 57.9943 48.5426 57.6193C47.9517 57.2443 47.4896 56.7197 47.1562 56.0455C46.8267 55.3712 46.6619 54.5833 46.6619 53.6818C46.6619 52.7727 46.8267 51.9792 47.1562 51.3011C47.4896 50.6231 47.9517 50.0966 48.5426 49.7216C49.1373 49.3466 49.8286 49.1591 50.6165 49.1591C51.4044 49.1591 52.0938 49.3466 52.6847 49.7216C53.2794 50.0966 53.7415 50.6231 54.071 51.3011C54.4044 51.9792 54.571 52.7727 54.571 53.6818C54.571 54.5833 54.4044 55.3712 54.071 56.0455C53.7415 56.7197 53.2794 57.2443 52.6847 57.6193C52.0938 57.9943 51.4044 58.1818 50.6165 58.1818ZM50.6165 56.9773C51.215 56.9773 51.7074 56.8239 52.0938 56.517C52.4801 56.2102 52.7661 55.8068 52.9517 55.3068C53.1373 54.8068 53.2301 54.2652 53.2301 53.6818C53.2301 53.0985 53.1373 52.5549 52.9517 52.0511C52.7661 51.5473 52.4801 51.1402 52.0938 50.8295C51.7074 50.5189 51.215 50.3636 50.6165 50.3636C50.018 50.3636 49.5256 50.5189 49.1392 50.8295C48.7528 51.1402 48.4669 51.5473 48.2812 52.0511C48.0956 52.5549 48.0028 53.0985 48.0028 53.6818C48.0028 54.2652 48.0956 54.8068 48.2812 55.3068C48.4669 55.8068 48.7528 56.2102 49.1392 56.517C49.5256 56.8239 50.018 56.9773 50.6165 56.9773ZM60.1406 61.4545C59.4929 61.4545 58.9361 61.3712 58.4702 61.2045C58.0043 61.0417 57.616 60.8258 57.3054 60.5568C56.9986 60.2917 56.7543 60.0076 56.5724 59.7045L57.6406 58.9545C57.7618 59.1136 57.9152 59.2955 58.1009 59.5C58.2865 59.7083 58.5402 59.8883 58.8622 60.0398C59.188 60.1951 59.6141 60.2727 60.1406 60.2727C60.8452 60.2727 61.4266 60.1023 61.8849 59.7614C62.3433 59.4205 62.5724 58.8864 62.5724 58.1591V56.3864H62.4588C62.3603 56.5455 62.2202 56.7424 62.0384 56.9773C61.8603 57.2083 61.6027 57.4148 61.2656 57.5966C60.9323 57.7746 60.4815 57.8636 59.9134 57.8636C59.2088 57.8636 58.5762 57.697 58.0156 57.3636C57.4588 57.0303 57.0175 56.5455 56.6918 55.9091C56.3698 55.2727 56.2088 54.5 56.2088 53.5909C56.2088 52.697 56.366 51.9186 56.6804 51.2557C56.9948 50.589 57.4323 50.0739 57.9929 49.7102C58.5535 49.3428 59.2012 49.1591 59.9361 49.1591C60.5043 49.1591 60.955 49.2538 61.2884 49.4432C61.6255 49.6288 61.883 49.8409 62.0611 50.0795C62.2429 50.3144 62.383 50.5076 62.4815 50.6591H62.6179V49.2727H63.9134V58.25C63.9134 59 63.7429 59.6098 63.402 60.0795C63.0649 60.553 62.6103 60.8996 62.0384 61.1193C61.4702 61.3428 60.8376 61.4545 60.1406 61.4545ZM60.0952 56.6591C60.633 56.6591 61.0876 56.536 61.4588 56.2898C61.83 56.0436 62.1122 55.6894 62.3054 55.2273C62.4986 54.7652 62.5952 54.2121 62.5952 53.5682C62.5952 52.9394 62.5005 52.3845 62.3111 51.9034C62.1217 51.4223 61.8414 51.0455 61.4702 50.7727C61.099 50.5 60.6406 50.3636 60.0952 50.3636C59.527 50.3636 59.0535 50.5076 58.6747 50.7955C58.2997 51.0833 58.0175 51.4697 57.8281 51.9545C57.6425 52.4394 57.5497 52.9773 57.5497 53.5682C57.5497 54.1742 57.6444 54.7102 57.8338 55.1761C58.027 55.6383 58.3111 56.0019 58.6861 56.267C59.0649 56.5284 59.5346 56.6591 60.0952 56.6591ZM66.3679 58V49.2727H67.6634V50.5909H67.7543C67.9134 50.1591 68.2012 49.8087 68.6179 49.5398C69.0346 49.2708 69.5043 49.1364 70.027 49.1364C70.1255 49.1364 70.2486 49.1383 70.3963 49.142C70.544 49.1458 70.6558 49.1515 70.7315 49.1591V50.5227C70.6861 50.5114 70.5819 50.4943 70.419 50.4716C70.2599 50.4451 70.0914 50.4318 69.9134 50.4318C69.4891 50.4318 69.1103 50.5208 68.777 50.6989C68.4474 50.8731 68.1861 51.1155 67.9929 51.4261C67.8035 51.733 67.7088 52.0833 67.7088 52.4773V58H66.3679ZM75.7145 58.1818C74.8736 58.1818 74.1482 57.9962 73.5384 57.625C72.9323 57.25 72.4645 56.7273 72.1349 56.0568C71.8092 55.3826 71.6463 54.5985 71.6463 53.7045C71.6463 52.8106 71.8092 52.0227 72.1349 51.3409C72.4645 50.6553 72.9228 50.1212 73.5099 49.7386C74.1009 49.3523 74.7902 49.1591 75.5781 49.1591C76.0327 49.1591 76.4815 49.2348 76.9247 49.3864C77.3679 49.5379 77.7713 49.7841 78.1349 50.125C78.4986 50.4621 78.7884 50.9091 79.0043 51.4659C79.2202 52.0227 79.3281 52.7083 79.3281 53.5227V54.0909H72.6009V52.9318H77.9645C77.9645 52.4394 77.866 52 77.669 51.6136C77.4759 51.2273 77.1993 50.9223 76.8395 50.6989C76.4834 50.4754 76.063 50.3636 75.5781 50.3636C75.044 50.3636 74.5819 50.4962 74.1918 50.7614C73.8054 51.0227 73.508 51.3636 73.2997 51.7841C73.0914 52.2045 72.9872 52.6553 72.9872 53.1364V53.9091C72.9872 54.5682 73.1009 55.1269 73.3281 55.5852C73.5592 56.0398 73.8793 56.3864 74.2884 56.625C74.6974 56.8598 75.1728 56.9773 75.7145 56.9773C76.0668 56.9773 76.3849 56.928 76.669 56.8295C76.9569 56.7273 77.205 56.5758 77.4134 56.375C77.6217 56.1705 77.7827 55.9167 77.8963 55.6136L79.1918 55.9773C79.0554 56.4167 78.8262 56.803 78.5043 57.1364C78.1823 57.4659 77.7846 57.7235 77.3111 57.9091C76.8376 58.0909 76.3054 58.1818 75.7145 58.1818ZM87.5497 51.2273L86.3452 51.5682C86.2694 51.3674 86.1577 51.1723 86.0099 50.983C85.866 50.7898 85.669 50.6307 85.419 50.5057C85.169 50.3807 84.849 50.3182 84.4588 50.3182C83.9247 50.3182 83.4796 50.4413 83.1236 50.6875C82.7713 50.9299 82.5952 51.2386 82.5952 51.6136C82.5952 51.947 82.7164 52.2102 82.9588 52.4034C83.2012 52.5966 83.58 52.7576 84.0952 52.8864L85.3906 53.2045C86.1709 53.3939 86.7524 53.6837 87.1349 54.0739C87.5175 54.4602 87.7088 54.9583 87.7088 55.5682C87.7088 56.0682 87.5649 56.5152 87.277 56.9091C86.9929 57.303 86.5952 57.6136 86.0838 57.8409C85.5724 58.0682 84.9777 58.1818 84.2997 58.1818C83.4096 58.1818 82.6728 57.9886 82.0895 57.6023C81.5062 57.2159 81.1368 56.6515 80.9815 55.9091L82.2543 55.5909C82.3755 56.0606 82.6046 56.4129 82.9418 56.6477C83.2827 56.8826 83.7277 57 84.277 57C84.902 57 85.3982 56.8674 85.7656 56.6023C86.1368 56.3333 86.3224 56.0114 86.3224 55.6364C86.3224 55.3333 86.2164 55.0795 86.0043 54.875C85.7921 54.6667 85.4664 54.5114 85.027 54.4091L83.5724 54.0682C82.7732 53.8788 82.1861 53.5852 81.8111 53.1875C81.4399 52.786 81.2543 52.2841 81.2543 51.6818C81.2543 51.1894 81.3925 50.7538 81.669 50.375C81.9493 49.9962 82.33 49.6989 82.8111 49.483C83.2959 49.267 83.8452 49.1591 84.4588 49.1591C85.3224 49.1591 86.0005 49.3485 86.4929 49.7273C86.9891 50.1061 87.3414 50.6061 87.5497 51.2273ZM95.9091 51.2273L94.7045 51.5682C94.6288 51.3674 94.517 51.1723 94.3693 50.983C94.2254 50.7898 94.0284 50.6307 93.7784 50.5057C93.5284 50.3807 93.2083 50.3182 92.8182 50.3182C92.2841 50.3182 91.839 50.4413 91.483 50.6875C91.1307 50.9299 90.9545 51.2386 90.9545 51.6136C90.9545 51.947 91.0758 52.2102 91.3182 52.4034C91.5606 52.5966 91.9394 52.7576 92.4545 52.8864L93.75 53.2045C94.5303 53.3939 95.1117 53.6837 95.4943 54.0739C95.8769 54.4602 96.0682 54.9583 96.0682 55.5682C96.0682 56.0682 95.9242 56.5152 95.6364 56.9091C95.3523 57.303 94.9545 57.6136 94.4432 57.8409C93.9318 58.0682 93.3371 58.1818 92.6591 58.1818C91.7689 58.1818 91.0322 57.9886 90.4489 57.6023C89.8655 57.2159 89.4962 56.6515 89.3409 55.9091L90.6136 55.5909C90.7348 56.0606 90.964 56.4129 91.3011 56.6477C91.642 56.8826 92.0871 57 92.6364 57C93.2614 57 93.7576 56.8674 94.125 56.6023C94.4962 56.3333 94.6818 56.0114 94.6818 55.6364C94.6818 55.3333 94.5758 55.0795 94.3636 54.875C94.1515 54.6667 93.8258 54.5114 93.3864 54.4091L91.9318 54.0682C91.1326 53.8788 90.5455 53.5852 90.1705 53.1875C89.7992 52.786 89.6136 52.2841 89.6136 51.6818C89.6136 51.1894 89.7519 50.7538 90.0284 50.375C90.3087 49.9962 90.6894 49.6989 91.1705 49.483C91.6553 49.267 92.2045 49.1591 92.8182 49.1591C93.6818 49.1591 94.3598 49.3485 94.8523 49.7273C95.3485 50.1061 95.7008 50.6061 95.9091 51.2273ZM102.768 58V46.3636H104.109V50.6591H104.223C104.321 50.5076 104.458 50.3144 104.632 50.0795C104.81 49.8409 105.064 49.6288 105.393 49.4432C105.727 49.2538 106.178 49.1591 106.746 49.1591C107.481 49.1591 108.128 49.3428 108.689 49.7102C109.25 50.0777 109.687 50.5985 110.001 51.2727C110.316 51.947 110.473 52.7424 110.473 53.6591C110.473 54.5833 110.316 55.3845 110.001 56.0625C109.687 56.7367 109.251 57.2595 108.695 57.6307C108.138 57.9981 107.496 58.1818 106.768 58.1818C106.208 58.1818 105.759 58.089 105.422 57.9034C105.085 57.714 104.825 57.5 104.643 57.2614C104.462 57.0189 104.321 56.8182 104.223 56.6591H104.064V58H102.768ZM104.087 53.6364C104.087 54.2955 104.183 54.8769 104.376 55.3807C104.57 55.8807 104.852 56.2727 105.223 56.5568C105.594 56.8371 106.049 56.9773 106.587 56.9773C107.147 56.9773 107.615 56.8295 107.99 56.5341C108.369 56.2348 108.653 55.8333 108.842 55.3295C109.036 54.822 109.132 54.2576 109.132 53.6364C109.132 53.0227 109.037 52.4697 108.848 51.9773C108.662 51.4811 108.38 51.089 108.001 50.8011C107.626 50.5095 107.155 50.3636 106.587 50.3636C106.041 50.3636 105.583 50.5019 105.212 50.7784C104.84 51.0511 104.56 51.4337 104.371 51.9261C104.181 52.4148 104.087 52.9848 104.087 53.6364ZM115.092 58.2045C114.539 58.2045 114.037 58.1004 113.587 57.892C113.136 57.6799 112.778 57.375 112.513 56.9773C112.248 56.5758 112.115 56.0909 112.115 55.5227C112.115 55.0227 112.214 54.6174 112.411 54.3068C112.607 53.9924 112.871 53.7462 113.2 53.5682C113.53 53.3902 113.893 53.2576 114.291 53.1705C114.693 53.0795 115.096 53.0076 115.501 52.9545C116.032 52.8864 116.462 52.8352 116.791 52.8011C117.125 52.7633 117.367 52.7008 117.518 52.6136C117.674 52.5265 117.751 52.375 117.751 52.1591V52.1136C117.751 51.553 117.598 51.1174 117.291 50.8068C116.988 50.4962 116.528 50.3409 115.911 50.3409C115.27 50.3409 114.768 50.4811 114.405 50.7614C114.041 51.0417 113.786 51.3409 113.638 51.6591L112.365 51.2045C112.592 50.6742 112.895 50.2614 113.274 49.9659C113.657 49.6667 114.073 49.4583 114.524 49.3409C114.979 49.2197 115.426 49.1591 115.865 49.1591C116.145 49.1591 116.467 49.1932 116.831 49.2614C117.198 49.3258 117.553 49.4602 117.893 49.6648C118.238 49.8693 118.524 50.178 118.751 50.5909C118.979 51.0038 119.092 51.5568 119.092 52.25V58H117.751V56.8182H117.683C117.592 57.0076 117.441 57.2102 117.229 57.4261C117.017 57.642 116.734 57.8258 116.382 57.9773C116.03 58.1288 115.6 58.2045 115.092 58.2045ZM115.297 57C115.827 57 116.274 56.8958 116.638 56.6875C117.005 56.4792 117.282 56.2102 117.467 55.8807C117.657 55.5511 117.751 55.2045 117.751 54.8409V53.6136C117.695 53.6818 117.57 53.7443 117.376 53.8011C117.187 53.8542 116.967 53.9015 116.717 53.9432C116.471 53.9811 116.231 54.0152 115.996 54.0455C115.765 54.072 115.577 54.0947 115.433 54.1136C115.085 54.1591 114.759 54.233 114.456 54.3352C114.157 54.4337 113.914 54.5833 113.729 54.7841C113.547 54.9811 113.456 55.25 113.456 55.5909C113.456 56.0568 113.628 56.4091 113.973 56.6477C114.321 56.8826 114.763 57 115.297 57ZM121.54 58V49.2727H122.835V50.5909H122.926C123.085 50.1591 123.373 49.8087 123.79 49.5398C124.206 49.2708 124.676 49.1364 125.199 49.1364C125.297 49.1364 125.42 49.1383 125.568 49.142C125.716 49.1458 125.828 49.1515 125.903 49.1591V50.5227C125.858 50.5114 125.754 50.4943 125.591 50.4716C125.432 50.4451 125.263 50.4318 125.085 50.4318C124.661 50.4318 124.282 50.5208 123.949 50.6989C123.619 50.8731 123.358 51.1155 123.165 51.4261C122.975 51.733 122.881 52.0833 122.881 52.4773V58H121.54ZM133.97 58L131.311 49.2727H132.72L134.607 55.9545H134.697L136.561 49.2727H137.993L139.834 55.9318H139.925L141.811 49.2727H143.22L140.561 58H139.243L137.334 51.2955H137.197L135.288 58H133.97ZM144.993 58V49.2727H146.334V58H144.993ZM145.675 47.8182C145.413 47.8182 145.188 47.7292 144.999 47.5511C144.813 47.3731 144.72 47.1591 144.72 46.9091C144.72 46.6591 144.813 46.4451 144.999 46.267C145.188 46.089 145.413 46 145.675 46C145.936 46 146.16 46.089 146.345 46.267C146.535 46.4451 146.629 46.6591 146.629 46.9091C146.629 47.1591 146.535 47.3731 146.345 47.5511C146.16 47.7292 145.936 47.8182 145.675 47.8182ZM152.585 49.2727V50.4091H148.062V49.2727H152.585ZM149.381 47.1818H150.722V55.5C150.722 55.8788 150.777 56.1629 150.886 56.3523C151 56.5379 151.144 56.6629 151.318 56.7273C151.496 56.7879 151.684 56.8182 151.881 56.8182C152.028 56.8182 152.15 56.8106 152.244 56.7955C152.339 56.7765 152.415 56.7614 152.472 56.75L152.744 57.9545C152.653 57.9886 152.527 58.0227 152.364 58.0568C152.201 58.0947 151.994 58.1136 151.744 58.1136C151.366 58.1136 150.994 58.0322 150.631 57.8693C150.271 57.7064 149.972 57.4583 149.733 57.125C149.498 56.7917 149.381 56.3712 149.381 55.8636V47.1818ZM156.131 52.75V58H154.79V46.3636H156.131V50.6364H156.244C156.449 50.1856 156.756 49.8277 157.165 49.5625C157.578 49.2936 158.127 49.1591 158.812 49.1591C159.407 49.1591 159.928 49.2784 160.375 49.517C160.822 49.7519 161.169 50.1136 161.415 50.6023C161.665 51.0871 161.79 51.7045 161.79 52.4545V58H160.449V52.5455C160.449 51.8523 160.269 51.3163 159.909 50.9375C159.553 50.5549 159.059 50.3636 158.426 50.3636C157.987 50.3636 157.593 50.4564 157.244 50.642C156.9 50.8277 156.627 51.0985 156.426 51.4545C156.229 51.8106 156.131 52.2424 156.131 52.75ZM168.925 58V46.3636H170.334V56.75H175.743V58H168.925ZM180.311 58.2045C179.758 58.2045 179.256 58.1004 178.805 57.892C178.355 57.6799 177.997 57.375 177.732 56.9773C177.466 56.5758 177.334 56.0909 177.334 55.5227C177.334 55.0227 177.432 54.6174 177.629 54.3068C177.826 53.9924 178.089 53.7462 178.419 53.5682C178.749 53.3902 179.112 53.2576 179.51 53.1705C179.911 53.0795 180.315 53.0076 180.72 52.9545C181.25 52.8864 181.68 52.8352 182.01 52.8011C182.343 52.7633 182.586 52.7008 182.737 52.6136C182.893 52.5265 182.97 52.375 182.97 52.1591V52.1136C182.97 51.553 182.817 51.1174 182.51 50.8068C182.207 50.4962 181.747 50.3409 181.129 50.3409C180.489 50.3409 179.987 50.4811 179.624 50.7614C179.26 51.0417 179.004 51.3409 178.857 51.6591L177.584 51.2045C177.811 50.6742 178.114 50.2614 178.493 49.9659C178.875 49.6667 179.292 49.4583 179.743 49.3409C180.197 49.2197 180.644 49.1591 181.084 49.1591C181.364 49.1591 181.686 49.1932 182.05 49.2614C182.417 49.3258 182.771 49.4602 183.112 49.6648C183.457 49.8693 183.743 50.178 183.97 50.5909C184.197 51.0038 184.311 51.5568 184.311 52.25V58H182.97V56.8182H182.902C182.811 57.0076 182.66 57.2102 182.447 57.4261C182.235 57.642 181.953 57.8258 181.601 57.9773C181.249 58.1288 180.819 58.2045 180.311 58.2045ZM180.516 57C181.046 57 181.493 56.8958 181.857 56.6875C182.224 56.4792 182.5 56.2102 182.686 55.8807C182.875 55.5511 182.97 55.2045 182.97 54.8409V53.6136C182.913 53.6818 182.788 53.7443 182.595 53.8011C182.406 53.8542 182.186 53.9015 181.936 53.9432C181.69 53.9811 181.449 54.0152 181.214 54.0455C180.983 54.072 180.796 54.0947 180.652 54.1136C180.304 54.1591 179.978 54.233 179.675 54.3352C179.375 54.4337 179.133 54.5833 178.947 54.7841C178.766 54.9811 178.675 55.25 178.675 55.5909C178.675 56.0568 178.847 56.4091 179.192 56.6477C179.54 56.8826 179.982 57 180.516 57ZM186.94 58V46.3636H188.281V50.6591H188.395C188.493 50.5076 188.63 50.3144 188.804 50.0795C188.982 49.8409 189.236 49.6288 189.565 49.4432C189.899 49.2538 190.349 49.1591 190.918 49.1591C191.652 49.1591 192.3 49.3428 192.861 49.7102C193.421 50.0777 193.859 50.5985 194.173 51.2727C194.488 51.947 194.645 52.7424 194.645 53.6591C194.645 54.5833 194.488 55.3845 194.173 56.0625C193.859 56.7367 193.423 57.2595 192.866 57.6307C192.31 57.9981 191.668 58.1818 190.94 58.1818C190.38 58.1818 189.931 58.089 189.594 57.9034C189.257 57.714 188.997 57.5 188.815 57.2614C188.634 57.0189 188.493 56.8182 188.395 56.6591H188.236V58H186.94ZM188.259 53.6364C188.259 54.2955 188.355 54.8769 188.548 55.3807C188.741 55.8807 189.024 56.2727 189.395 56.5568C189.766 56.8371 190.221 56.9773 190.759 56.9773C191.319 56.9773 191.787 56.8295 192.162 56.5341C192.541 56.2348 192.825 55.8333 193.014 55.3295C193.207 54.822 193.304 54.2576 193.304 53.6364C193.304 53.0227 193.209 52.4697 193.02 51.9773C192.834 51.4811 192.552 51.089 192.173 50.8011C191.798 50.5095 191.327 50.3636 190.759 50.3636C190.213 50.3636 189.755 50.5019 189.384 50.7784C189.012 51.0511 188.732 51.4337 188.543 51.9261C188.353 52.4148 188.259 52.9848 188.259 53.6364ZM200.355 58.1818C199.514 58.1818 198.789 57.9962 198.179 57.625C197.573 57.25 197.105 56.7273 196.776 56.0568C196.45 55.3826 196.287 54.5985 196.287 53.7045C196.287 52.8106 196.45 52.0227 196.776 51.3409C197.105 50.6553 197.563 50.1212 198.151 49.7386C198.741 49.3523 199.431 49.1591 200.219 49.1591C200.673 49.1591 201.122 49.2348 201.565 49.3864C202.009 49.5379 202.412 49.7841 202.776 50.125C203.139 50.4621 203.429 50.9091 203.645 51.4659C203.861 52.0227 203.969 52.7083 203.969 53.5227V54.0909H197.241V52.9318H202.605C202.605 52.4394 202.507 52 202.31 51.6136C202.116 51.2273 201.84 50.9223 201.48 50.6989C201.124 50.4754 200.704 50.3636 200.219 50.3636C199.685 50.3636 199.223 50.4962 198.832 50.7614C198.446 51.0227 198.149 51.3636 197.94 51.7841C197.732 52.2045 197.628 52.6553 197.628 53.1364V53.9091C197.628 54.5682 197.741 55.1269 197.969 55.5852C198.2 56.0398 198.52 56.3864 198.929 56.625C199.338 56.8598 199.813 56.9773 200.355 56.9773C200.707 56.9773 201.026 56.928 201.31 56.8295C201.598 56.7273 201.846 56.5758 202.054 56.375C202.262 56.1705 202.423 55.9167 202.537 55.6136L203.832 55.9773C203.696 56.4167 203.467 56.803 203.145 57.1364C202.823 57.4659 202.425 57.7235 201.952 57.9091C201.478 58.0909 200.946 58.1818 200.355 58.1818ZM207.349 46.3636V58H206.009V46.3636H207.349Z" fill="white" fill-opacity="0.95"/>
<mask id="path-4-inside-2_2102_35120" fill="white">
<path d="M433.333 0H866.667V104H433.333V0Z"/>
</mask>
<path d="M866.667 104V105H867.667V104H866.667ZM865.667 0V104H867.667V0H865.667ZM866.667 103H433.333V105H866.667V103Z" fill="#707070" mask="url(#path-4-inside-2_2102_35120)"/>
<path d="M464.566 49V38.8182H465.799V47.9062H470.532V49H464.566ZM474.529 49.179C474.045 49.179 473.606 49.0878 473.212 48.9055C472.818 48.7199 472.504 48.4531 472.272 48.1051C472.04 47.7538 471.924 47.3295 471.924 46.8324C471.924 46.3949 472.01 46.0402 472.183 45.7685C472.355 45.4934 472.586 45.2779 472.874 45.1222C473.162 44.9664 473.48 44.8504 473.828 44.7741C474.18 44.6946 474.533 44.6316 474.887 44.5852C475.351 44.5256 475.728 44.4808 476.016 44.451C476.308 44.4179 476.52 44.3632 476.652 44.2869C476.788 44.2107 476.856 44.0781 476.856 43.8892V43.8494C476.856 43.3589 476.722 42.9777 476.453 42.706C476.188 42.4342 475.786 42.2983 475.245 42.2983C474.685 42.2983 474.246 42.4209 473.928 42.6662C473.61 42.9115 473.386 43.1733 473.257 43.4517L472.143 43.054C472.342 42.59 472.607 42.2287 472.938 41.9702C473.273 41.7083 473.638 41.526 474.032 41.4233C474.43 41.3172 474.821 41.2642 475.206 41.2642C475.451 41.2642 475.733 41.294 476.051 41.3537C476.372 41.41 476.682 41.5277 476.98 41.7067C477.282 41.8857 477.532 42.1558 477.731 42.517C477.93 42.8783 478.029 43.3622 478.029 43.9688V49H476.856V47.9659H476.796C476.717 48.1316 476.584 48.3089 476.399 48.4979C476.213 48.6868 475.966 48.8475 475.658 48.9801C475.35 49.1127 474.974 49.179 474.529 49.179ZM474.708 48.125C475.172 48.125 475.563 48.0339 475.882 47.8516C476.203 47.6693 476.445 47.4339 476.608 47.1456C476.773 46.8572 476.856 46.554 476.856 46.2358V45.1619C476.806 45.2216 476.697 45.2763 476.528 45.326C476.362 45.3724 476.17 45.4138 475.951 45.4503C475.736 45.4834 475.525 45.5133 475.32 45.5398C475.118 45.563 474.954 45.5829 474.828 45.5994C474.523 45.6392 474.238 45.7038 473.973 45.7933C473.711 45.8795 473.499 46.0104 473.336 46.1861C473.177 46.3584 473.098 46.5937 473.098 46.892C473.098 47.2997 473.248 47.608 473.55 47.8168C473.855 48.0223 474.241 48.125 474.708 48.125ZM480.33 49V38.8182H481.503V42.5767H481.603C481.689 42.4441 481.808 42.2751 481.961 42.0696C482.116 41.8608 482.339 41.6752 482.627 41.5128C482.919 41.3471 483.313 41.2642 483.81 41.2642C484.453 41.2642 485.02 41.425 485.51 41.7464C486.001 42.0679 486.384 42.5237 486.659 43.1136C486.934 43.7036 487.071 44.3996 487.071 45.2017C487.071 46.0104 486.934 46.7114 486.659 47.3047C486.384 47.8946 486.003 48.352 485.515 48.6768C485.028 48.9983 484.466 49.1591 483.83 49.1591C483.339 49.1591 482.947 49.0779 482.652 48.9155C482.357 48.7498 482.13 48.5625 481.971 48.3537C481.812 48.1416 481.689 47.9659 481.603 47.8267H481.464V49H480.33ZM481.483 45.1818C481.483 45.7585 481.568 46.2673 481.737 46.7081C481.906 47.1456 482.153 47.4886 482.478 47.7372C482.803 47.9825 483.2 48.1051 483.671 48.1051C484.161 48.1051 484.571 47.9759 484.899 47.7173C485.23 47.4555 485.479 47.1042 485.645 46.6634C485.814 46.2192 485.898 45.7254 485.898 45.1818C485.898 44.6449 485.815 44.161 485.65 43.7301C485.487 43.2959 485.24 42.9529 484.909 42.701C484.581 42.4458 484.168 42.3182 483.671 42.3182C483.194 42.3182 482.793 42.4392 482.468 42.6811C482.143 42.9197 481.898 43.2545 481.732 43.6854C481.566 44.1129 481.483 44.6117 481.483 45.1818ZM492.068 49.1591C491.332 49.1591 490.697 48.9967 490.164 48.6719C489.634 48.3438 489.224 47.8864 488.936 47.2997C488.651 46.7098 488.508 46.0237 488.508 45.2415C488.508 44.4593 488.651 43.7699 488.936 43.1733C489.224 42.5734 489.625 42.1061 490.139 41.7713C490.656 41.4332 491.259 41.2642 491.949 41.2642C492.346 41.2642 492.739 41.3305 493.127 41.4631C493.515 41.5956 493.868 41.8111 494.186 42.1094C494.504 42.4044 494.758 42.7955 494.946 43.2827C495.135 43.7699 495.23 44.3698 495.23 45.0824V45.5795H489.343V44.5653H494.037C494.037 44.1345 493.951 43.75 493.778 43.4119C493.609 43.0739 493.367 42.8071 493.052 42.6115C492.741 42.416 492.373 42.3182 491.949 42.3182C491.481 42.3182 491.077 42.4342 490.736 42.6662C490.397 42.8949 490.137 43.1932 489.955 43.5611C489.773 43.929 489.682 44.3234 489.682 44.7443V45.4205C489.682 45.9972 489.781 46.486 489.98 46.8871C490.182 47.2848 490.462 47.5881 490.82 47.7969C491.178 48.0024 491.594 48.1051 492.068 48.1051C492.376 48.1051 492.655 48.062 492.903 47.9759C493.155 47.8864 493.372 47.7538 493.554 47.5781C493.737 47.3991 493.878 47.1771 493.977 46.9119L495.111 47.2301C494.991 47.6146 494.791 47.9527 494.509 48.2443C494.227 48.5327 493.879 48.758 493.465 48.9205C493.051 49.0795 492.585 49.1591 492.068 49.1591ZM498.188 38.8182V49H497.015V38.8182H498.188ZM503.877 39.9119V38.8182H511.513V39.9119H508.311V49H507.078V39.9119H503.877ZM515.351 49.1591C514.615 49.1591 513.981 48.9967 513.447 48.6719C512.917 48.3438 512.507 47.8864 512.219 47.2997C511.934 46.7098 511.791 46.0237 511.791 45.2415C511.791 44.4593 511.934 43.7699 512.219 43.1733C512.507 42.5734 512.908 42.1061 513.422 41.7713C513.939 41.4332 514.542 41.2642 515.232 41.2642C515.63 41.2642 516.022 41.3305 516.41 41.4631C516.798 41.5956 517.151 41.8111 517.469 42.1094C517.787 42.4044 518.041 42.7955 518.23 43.2827C518.419 43.7699 518.513 44.3698 518.513 45.0824V45.5795H512.627V44.5653H517.32C517.32 44.1345 517.234 43.75 517.061 43.4119C516.892 43.0739 516.65 42.8071 516.336 42.6115C516.024 42.416 515.656 42.3182 515.232 42.3182C514.764 42.3182 514.36 42.4342 514.019 42.6662C513.681 42.8949 513.42 43.1932 513.238 43.5611C513.056 43.929 512.965 44.3234 512.965 44.7443V45.4205C512.965 45.9972 513.064 46.486 513.263 46.8871C513.465 47.2848 513.745 47.5881 514.103 47.7969C514.461 48.0024 514.877 48.1051 515.351 48.1051C515.659 48.1051 515.938 48.062 516.186 47.9759C516.438 47.8864 516.655 47.7538 516.838 47.5781C517.02 47.3991 517.161 47.1771 517.26 46.9119L518.394 47.2301C518.274 47.6146 518.074 47.9527 517.792 48.2443C517.51 48.5327 517.162 48.758 516.748 48.9205C516.334 49.0795 515.868 49.1591 515.351 49.1591ZM520.968 41.3636L522.797 44.4858L524.627 41.3636H525.979L523.513 45.1818L525.979 49H524.627L522.797 46.0369L520.968 49H519.616L522.042 45.1818L519.616 41.3636H520.968ZM530.974 41.3636V42.358H527.017V41.3636H530.974ZM528.17 39.5341H529.344V46.8125C529.344 47.1439 529.392 47.3925 529.488 47.5582C529.587 47.7206 529.713 47.83 529.866 47.8864C530.021 47.9394 530.186 47.9659 530.358 47.9659C530.487 47.9659 530.593 47.9593 530.676 47.946C530.759 47.9295 530.825 47.9162 530.875 47.9062L531.114 48.9602C531.034 48.9901 530.923 49.0199 530.78 49.0497C530.638 49.0829 530.457 49.0994 530.239 49.0994C529.907 49.0994 529.582 49.0282 529.264 48.8857C528.949 48.7431 528.687 48.526 528.479 48.2344C528.273 47.9427 528.17 47.5748 528.17 47.1307V39.5341Z" fill="white" fill-opacity="0.95"/>
<path d="M686.952 49L691.506 39.9915V39.9119H686.256V38.8182H692.778V39.9716L688.244 49H686.952ZM697.677 49.1392C697.093 49.1392 696.568 49.0232 696.101 48.7912C695.633 48.5592 695.259 48.241 694.977 47.8366C694.695 47.4323 694.541 46.9716 694.515 46.4545H695.708C695.754 46.9152 695.963 47.2964 696.334 47.598C696.709 47.8963 697.156 48.0455 697.677 48.0455C698.094 48.0455 698.465 47.9477 698.79 47.7521C699.118 47.5566 699.375 47.2881 699.561 46.9467C699.75 46.602 699.844 46.2126 699.844 45.7784C699.844 45.3343 699.746 44.9382 699.551 44.5902C699.359 44.2389 699.093 43.9621 698.755 43.7599C698.417 43.5578 698.031 43.455 697.597 43.4517C697.285 43.4484 696.966 43.4964 696.638 43.5959C696.309 43.692 696.039 43.8163 695.827 43.9688L694.674 43.8295L695.29 38.8182H700.58V39.9119H696.324L695.966 42.9148H696.026C696.235 42.7491 696.497 42.6115 696.812 42.5021C697.126 42.3928 697.455 42.3381 697.796 42.3381C698.419 42.3381 698.974 42.4872 699.461 42.7855C699.952 43.0805 700.336 43.4848 700.615 43.9986C700.897 44.5123 701.037 45.099 701.037 45.7585C701.037 46.4081 700.892 46.9882 700.6 47.4986C700.312 48.0057 699.914 48.4067 699.407 48.7017C698.9 48.9934 698.323 49.1392 697.677 49.1392ZM708.203 47.0909V46.554C708.203 46.1828 708.279 45.843 708.431 45.5348C708.587 45.2232 708.813 44.9747 709.108 44.7891C709.406 44.6001 709.767 44.5057 710.191 44.5057C710.622 44.5057 710.983 44.6001 711.275 44.7891C711.567 44.9747 711.787 45.2232 711.936 45.5348C712.086 45.843 712.16 46.1828 712.16 46.554V47.0909C712.16 47.4621 712.084 47.8035 711.931 48.1151C711.782 48.4233 711.56 48.6719 711.265 48.8608C710.974 49.0464 710.616 49.1392 710.191 49.1392C709.76 49.1392 709.398 49.0464 709.103 48.8608C708.808 48.6719 708.584 48.4233 708.431 48.1151C708.279 47.8035 708.203 47.4621 708.203 47.0909ZM709.217 46.554V47.0909C709.217 47.3991 709.29 47.6759 709.436 47.9212C709.581 48.1631 709.833 48.2841 710.191 48.2841C710.539 48.2841 710.785 48.1631 710.927 47.9212C711.073 47.6759 711.146 47.3991 711.146 47.0909V46.554C711.146 46.2457 711.076 45.9706 710.937 45.7287C710.798 45.4834 710.549 45.3608 710.191 45.3608C709.843 45.3608 709.593 45.4834 709.441 45.7287C709.291 45.9706 709.217 46.2457 709.217 46.554ZM703.132 41.2642V40.7273C703.132 40.3561 703.208 40.0163 703.36 39.7081C703.516 39.3965 703.742 39.148 704.036 38.9624C704.335 38.7734 704.696 38.679 705.12 38.679C705.551 38.679 705.912 38.7734 706.204 38.9624C706.496 39.148 706.716 39.3965 706.865 39.7081C707.014 40.0163 707.089 40.3561 707.089 40.7273V41.2642C707.089 41.6354 707.013 41.9768 706.86 42.2884C706.711 42.5966 706.489 42.8452 706.194 43.0341C705.903 43.2197 705.545 43.3125 705.12 43.3125C704.689 43.3125 704.327 43.2197 704.032 43.0341C703.737 42.8452 703.513 42.5966 703.36 42.2884C703.208 41.9768 703.132 41.6354 703.132 41.2642ZM704.146 40.7273V41.2642C704.146 41.5724 704.219 41.8492 704.365 42.0945C704.51 42.3364 704.762 42.4574 705.12 42.4574C705.468 42.4574 705.714 42.3364 705.856 42.0945C706.002 41.8492 706.075 41.5724 706.075 41.2642V40.7273C706.075 40.419 706.005 40.1439 705.866 39.902C705.727 39.6567 705.478 39.5341 705.12 39.5341C704.772 39.5341 704.522 39.6567 704.37 39.902C704.22 40.1439 704.146 40.419 704.146 40.7273ZM703.51 49L710.51 38.8182H711.643L704.643 49H703.51Z" fill="white" fill-opacity="0.95"/>
<rect x="463.333" y="62" width="250" height="8" rx="4" fill="#8F8F8F"/>
<rect x="463.333" y="62" width="187.5" height="8" rx="4" fill="#3492EB"/>
<mask id="path-10-inside-3_2102_35120" fill="white">
<path d="M866.667 0H1300V104H866.667V0Z"/>
</mask>
<path d="M1300 104V105H1301V104H1300ZM1299 0V104H1301V0H1299ZM1300 103H866.667V105H1300V103Z" fill="#707070" mask="url(#path-10-inside-3_2102_35120)"/>
<path d="M898.076 46V34.3636H905.053V35.6136H899.485V39.5455H904.53V40.7955H899.485V46H898.076ZM910.189 46.1818C909.401 46.1818 908.71 45.9943 908.115 45.6193C907.525 45.2443 907.062 44.7197 906.729 44.0455C906.4 43.3712 906.235 42.5833 906.235 41.6818C906.235 40.7727 906.4 39.9792 906.729 39.3011C907.062 38.6231 907.525 38.0966 908.115 37.7216C908.71 37.3466 909.401 37.1591 910.189 37.1591C910.977 37.1591 911.667 37.3466 912.258 37.7216C912.852 38.0966 913.314 38.6231 913.644 39.3011C913.977 39.9792 914.144 40.7727 914.144 41.6818C914.144 42.5833 913.977 43.3712 913.644 44.0455C913.314 44.7197 912.852 45.2443 912.258 45.6193C911.667 45.9943 910.977 46.1818 910.189 46.1818ZM910.189 44.9773C910.788 44.9773 911.28 44.8239 911.667 44.517C912.053 44.2102 912.339 43.8068 912.525 43.3068C912.71 42.8068 912.803 42.2652 912.803 41.6818C912.803 41.0985 912.71 40.5549 912.525 40.0511C912.339 39.5473 912.053 39.1402 911.667 38.8295C911.28 38.5189 910.788 38.3636 910.189 38.3636C909.591 38.3636 909.098 38.5189 908.712 38.8295C908.326 39.1402 908.04 39.5473 907.854 40.0511C907.669 40.5549 907.576 41.0985 907.576 41.6818C907.576 42.2652 907.669 42.8068 907.854 43.3068C908.04 43.8068 908.326 44.2102 908.712 44.517C909.098 44.8239 909.591 44.9773 910.189 44.9773ZM916.191 46V37.2727H917.486V38.5909H917.577C917.736 38.1591 918.024 37.8087 918.441 37.5398C918.857 37.2708 919.327 37.1364 919.85 37.1364C919.948 37.1364 920.071 37.1383 920.219 37.142C920.367 37.1458 920.479 37.1515 920.554 37.1591V38.5227C920.509 38.5114 920.405 38.4943 920.242 38.4716C920.083 38.4451 919.914 38.4318 919.736 38.4318C919.312 38.4318 918.933 38.5208 918.6 38.6989C918.27 38.8731 918.009 39.1155 917.816 39.4261C917.626 39.733 917.532 40.0833 917.532 40.4773V46H916.191ZM926.644 49.2727V37.2727H927.939V38.6591H928.098C928.197 38.5076 928.333 38.3144 928.508 38.0795C928.686 37.8409 928.939 37.6288 929.269 37.4432C929.602 37.2538 930.053 37.1591 930.621 37.1591C931.356 37.1591 932.004 37.3428 932.564 37.7102C933.125 38.0777 933.562 38.5985 933.877 39.2727C934.191 39.947 934.348 40.7424 934.348 41.6591C934.348 42.5833 934.191 43.3845 933.877 44.0625C933.562 44.7367 933.127 45.2595 932.57 45.6307C932.013 45.9981 931.371 46.1818 930.644 46.1818C930.083 46.1818 929.634 46.089 929.297 45.9034C928.96 45.714 928.701 45.5 928.519 45.2614C928.337 45.0189 928.197 44.8182 928.098 44.6591H927.985V49.2727H926.644ZM927.962 41.6364C927.962 42.2955 928.059 42.8769 928.252 43.3807C928.445 43.8807 928.727 44.2727 929.098 44.5568C929.47 44.8371 929.924 44.9773 930.462 44.9773C931.023 44.9773 931.49 44.8295 931.865 44.5341C932.244 44.2348 932.528 43.8333 932.718 43.3295C932.911 42.822 933.008 42.2576 933.008 41.6364C933.008 41.0227 932.913 40.4697 932.723 39.9773C932.538 39.4811 932.256 39.089 931.877 38.8011C931.502 38.5095 931.03 38.3636 930.462 38.3636C929.917 38.3636 929.458 38.5019 929.087 38.7784C928.716 39.0511 928.436 39.4337 928.246 39.9261C928.057 40.4148 927.962 40.9848 927.962 41.6364ZM936.394 46V37.2727H937.689V38.5909H937.78C937.939 38.1591 938.227 37.8087 938.644 37.5398C939.061 37.2708 939.53 37.1364 940.053 37.1364C940.151 37.1364 940.275 37.1383 940.422 37.142C940.57 37.1458 940.682 37.1515 940.758 37.1591V38.5227C940.712 38.5114 940.608 38.4943 940.445 38.4716C940.286 38.4451 940.117 38.4318 939.939 38.4318C939.515 38.4318 939.136 38.5208 938.803 38.6989C938.473 38.8731 938.212 39.1155 938.019 39.4261C937.83 39.733 937.735 40.0833 937.735 40.4773V46H936.394ZM942.347 46V37.2727H943.688V46H942.347ZM943.029 35.8182C942.767 35.8182 942.542 35.7292 942.353 35.5511C942.167 35.3731 942.074 35.1591 942.074 34.9091C942.074 34.6591 942.167 34.4451 942.353 34.267C942.542 34.089 942.767 34 943.029 34C943.29 34 943.514 34.089 943.699 34.267C943.889 34.4451 943.983 34.6591 943.983 34.9091C943.983 35.1591 943.889 35.3731 943.699 35.5511C943.514 35.7292 943.29 35.8182 943.029 35.8182ZM946.144 46V37.2727H947.439V38.6364H947.553C947.735 38.1705 948.028 37.8087 948.434 37.5511C948.839 37.2898 949.326 37.1591 949.894 37.1591C950.47 37.1591 950.949 37.2898 951.331 37.5511C951.718 37.8087 952.019 38.1705 952.235 38.6364H952.326C952.549 38.1856 952.884 37.8277 953.331 37.5625C953.778 37.2936 954.314 37.1591 954.939 37.1591C955.72 37.1591 956.358 37.4034 956.854 37.892C957.35 38.3769 957.598 39.1326 957.598 40.1591V46H956.258V40.1591C956.258 39.5152 956.081 39.0549 955.729 38.7784C955.377 38.5019 954.962 38.3636 954.485 38.3636C953.871 38.3636 953.396 38.5492 953.059 38.9205C952.722 39.2879 952.553 39.7538 952.553 40.3182V46H951.189V40.0227C951.189 39.5265 951.028 39.1269 950.706 38.8239C950.384 38.517 949.97 38.3636 949.462 38.3636C949.114 38.3636 948.788 38.4564 948.485 38.642C948.186 38.8277 947.943 39.0852 947.758 39.4148C947.576 39.7405 947.485 40.1174 947.485 40.5455V46H946.144ZM962.618 46.2045C962.065 46.2045 961.563 46.1004 961.113 45.892C960.662 45.6799 960.304 45.375 960.039 44.9773C959.774 44.5758 959.641 44.0909 959.641 43.5227C959.641 43.0227 959.74 42.6174 959.937 42.3068C960.133 41.9924 960.397 41.7462 960.726 41.5682C961.056 41.3902 961.419 41.2576 961.817 41.1705C962.219 41.0795 962.622 41.0076 963.027 40.9545C963.558 40.8864 963.988 40.8352 964.317 40.8011C964.651 40.7633 964.893 40.7008 965.044 40.6136C965.2 40.5265 965.277 40.375 965.277 40.1591V40.1136C965.277 39.553 965.124 39.1174 964.817 38.8068C964.514 38.4962 964.054 38.3409 963.437 38.3409C962.796 38.3409 962.294 38.4811 961.931 38.7614C961.567 39.0417 961.312 39.3409 961.164 39.6591L959.891 39.2045C960.118 38.6742 960.421 38.2614 960.8 37.9659C961.183 37.6667 961.599 37.4583 962.05 37.3409C962.505 37.2197 962.952 37.1591 963.391 37.1591C963.671 37.1591 963.993 37.1932 964.357 37.2614C964.724 37.3258 965.079 37.4602 965.419 37.6648C965.764 37.8693 966.05 38.178 966.277 38.5909C966.505 39.0038 966.618 39.5568 966.618 40.25V46H965.277V44.8182H965.209C965.118 45.0076 964.967 45.2102 964.755 45.4261C964.543 45.642 964.26 45.8258 963.908 45.9773C963.556 46.1288 963.126 46.2045 962.618 46.2045ZM962.823 45C963.353 45 963.8 44.8958 964.164 44.6875C964.531 44.4792 964.808 44.2102 964.993 43.8807C965.183 43.5511 965.277 43.2045 965.277 42.8409V41.6136C965.221 41.6818 965.096 41.7443 964.902 41.8011C964.713 41.8542 964.493 41.9015 964.243 41.9432C963.997 41.9811 963.757 42.0152 963.522 42.0455C963.291 42.072 963.103 42.0947 962.959 42.1136C962.611 42.1591 962.285 42.233 961.982 42.3352C961.683 42.4337 961.44 42.5833 961.255 42.7841C961.073 42.9811 960.982 43.25 960.982 43.5909C960.982 44.0568 961.154 44.4091 961.499 44.6477C961.847 44.8826 962.289 45 962.823 45ZM969.066 46V37.2727H970.361V38.5909H970.452C970.611 38.1591 970.899 37.8087 971.316 37.5398C971.732 37.2708 972.202 37.1364 972.725 37.1364C972.823 37.1364 972.946 37.1383 973.094 37.142C973.242 37.1458 973.354 37.1515 973.429 37.1591V38.5227C973.384 38.5114 973.28 38.4943 973.117 38.4716C972.958 38.4451 972.789 38.4318 972.611 38.4318C972.187 38.4318 971.808 38.5208 971.475 38.6989C971.145 38.8731 970.884 39.1155 970.691 39.4261C970.501 39.733 970.407 40.0833 970.407 40.4773V46H969.066ZM976.148 49.25C975.921 49.25 975.718 49.2311 975.54 49.1932C975.362 49.1591 975.239 49.125 975.171 49.0909L975.512 47.9091C976 48.0341 976.408 48.0303 976.733 47.8977C977.059 47.7689 977.341 47.3788 977.58 46.7273L977.83 46.0455L974.603 37.2727H976.057L978.466 44.2273H978.557L980.966 37.2727L982.432 37.2955L978.716 47.2727C978.55 47.7159 978.343 48.0833 978.097 48.375C977.851 48.6705 977.565 48.8902 977.239 49.0341C976.917 49.178 976.553 49.25 976.148 49.25ZM994.206 42.4318V37.2727H995.547V46H994.206V44.5227H994.115C993.911 44.9659 993.593 45.3428 993.161 45.6534C992.729 45.9602 992.184 46.1136 991.525 46.1136C990.979 46.1136 990.494 45.9943 990.07 45.7557C989.646 45.5133 989.312 45.1496 989.07 44.6648C988.828 44.1761 988.706 43.5606 988.706 42.8182V37.2727H990.047V42.7273C990.047 43.3636 990.225 43.8712 990.581 44.25C990.941 44.6288 991.4 44.8182 991.956 44.8182C992.29 44.8182 992.629 44.733 992.973 44.5625C993.322 44.392 993.614 44.1307 993.848 43.7784C994.087 43.4261 994.206 42.9773 994.206 42.4318ZM1004.19 39.2273L1002.98 39.5682C1002.9 39.3674 1002.79 39.1723 1002.65 38.983C1002.5 38.7898 1002.3 38.6307 1002.05 38.5057C1001.8 38.3807 1001.48 38.3182 1001.09 38.3182C1000.56 38.3182 1000.12 38.4413 999.759 38.6875C999.407 38.9299 999.231 39.2386 999.231 39.6136C999.231 39.947 999.352 40.2102 999.594 40.4034C999.837 40.5966 1000.22 40.7576 1000.73 40.8864L1002.03 41.2045C1002.81 41.3939 1003.39 41.6837 1003.77 42.0739C1004.15 42.4602 1004.34 42.9583 1004.34 43.5682C1004.34 44.0682 1004.2 44.5152 1003.91 44.9091C1003.63 45.303 1003.23 45.6136 1002.72 45.8409C1002.21 46.0682 1001.61 46.1818 1000.94 46.1818C1000.04 46.1818 999.308 45.9886 998.725 45.6023C998.142 45.2159 997.772 44.6515 997.617 43.9091L998.89 43.5909C999.011 44.0606 999.24 44.4129 999.577 44.6477C999.918 44.8826 1000.36 45 1000.91 45C1001.54 45 1002.03 44.8674 1002.4 44.6023C1002.77 44.3333 1002.96 44.0114 1002.96 43.6364C1002.96 43.3333 1002.85 43.0795 1002.64 42.875C1002.43 42.6667 1002.1 42.5114 1001.66 42.4091L1000.21 42.0682C999.409 41.8788 998.821 41.5852 998.446 41.1875C998.075 40.786 997.89 40.2841 997.89 39.6818C997.89 39.1894 998.028 38.7538 998.304 38.375C998.585 37.9962 998.965 37.6989 999.446 37.483C999.931 37.267 1000.48 37.1591 1001.09 37.1591C1001.96 37.1591 1002.64 37.3485 1003.13 37.7273C1003.62 38.1061 1003.98 38.6061 1004.19 39.2273ZM1010.02 46.1818C1009.18 46.1818 1008.46 45.9962 1007.85 45.625C1007.24 45.25 1006.77 44.7273 1006.44 44.0568C1006.12 43.3826 1005.95 42.5985 1005.95 41.7045C1005.95 40.8106 1006.12 40.0227 1006.44 39.3409C1006.77 38.6553 1007.23 38.1212 1007.82 37.7386C1008.41 37.3523 1009.1 37.1591 1009.89 37.1591C1010.34 37.1591 1010.79 37.2348 1011.23 37.3864C1011.68 37.5379 1012.08 37.7841 1012.44 38.125C1012.81 38.4621 1013.1 38.9091 1013.31 39.4659C1013.53 40.0227 1013.64 40.7083 1013.64 41.5227V42.0909H1006.91V40.9318H1012.27C1012.27 40.4394 1012.17 40 1011.98 39.6136C1011.78 39.2273 1011.51 38.9223 1011.15 38.6989C1010.79 38.4754 1010.37 38.3636 1009.89 38.3636C1009.35 38.3636 1008.89 38.4962 1008.5 38.7614C1008.11 39.0227 1007.82 39.3636 1007.61 39.7841C1007.4 40.2045 1007.29 40.6553 1007.29 41.1364V41.9091C1007.29 42.5682 1007.41 43.1269 1007.64 43.5852C1007.87 44.0398 1008.19 44.3864 1008.6 44.625C1009 44.8598 1009.48 44.9773 1010.02 44.9773C1010.37 44.9773 1010.69 44.928 1010.98 44.8295C1011.26 44.7273 1011.51 44.5758 1011.72 44.375C1011.93 44.1705 1012.09 43.9167 1012.2 43.6136L1013.5 43.9773C1013.36 44.4167 1013.13 44.803 1012.81 45.1364C1012.49 45.4659 1012.09 45.7235 1011.62 45.9091C1011.14 46.0909 1010.61 46.1818 1010.02 46.1818ZM1016.65 46.0909C1016.37 46.0909 1016.13 45.9905 1015.93 45.7898C1015.73 45.589 1015.63 45.3485 1015.63 45.0682C1015.63 44.7879 1015.73 44.5473 1015.93 44.3466C1016.13 44.1458 1016.37 44.0455 1016.65 44.0455C1016.93 44.0455 1017.17 44.1458 1017.37 44.3466C1017.57 44.5473 1017.68 44.7879 1017.68 45.0682C1017.68 45.2538 1017.63 45.4242 1017.53 45.5795C1017.44 45.7348 1017.32 45.8598 1017.16 45.9545C1017.01 46.0455 1016.84 46.0909 1016.65 46.0909ZM1031.13 37.2727C1031.06 36.697 1030.78 36.25 1030.3 35.9318C1029.81 35.6136 1029.22 35.4545 1028.51 35.4545C1028 35.4545 1027.55 35.5379 1027.16 35.7045C1026.78 35.8712 1026.48 36.1004 1026.26 36.392C1026.05 36.6837 1025.95 37.0152 1025.95 37.3864C1025.95 37.697 1026.02 37.964 1026.17 38.1875C1026.32 38.4072 1026.51 38.5909 1026.75 38.7386C1026.98 38.8826 1027.23 39.0019 1027.48 39.0966C1027.74 39.1875 1027.98 39.2614 1028.2 39.3182L1029.38 39.6364C1029.68 39.7159 1030.02 39.8258 1030.39 39.9659C1030.76 40.1061 1031.12 40.2973 1031.46 40.5398C1031.81 40.7784 1032.09 41.0852 1032.31 41.4602C1032.54 41.8352 1032.65 42.2955 1032.65 42.8409C1032.65 43.4697 1032.48 44.0379 1032.16 44.5455C1031.83 45.053 1031.35 45.4564 1030.72 45.7557C1030.1 46.0549 1029.34 46.2045 1028.45 46.2045C1027.61 46.2045 1026.89 46.0701 1026.28 45.8011C1025.67 45.5322 1025.2 45.1572 1024.85 44.6761C1024.5 44.1951 1024.31 43.6364 1024.26 43H1025.72C1025.76 43.4394 1025.9 43.803 1026.16 44.0909C1026.42 44.375 1026.75 44.5871 1027.15 44.7273C1027.55 44.8636 1027.98 44.9318 1028.45 44.9318C1028.98 44.9318 1029.47 44.8447 1029.89 44.6705C1030.32 44.4924 1030.66 44.2462 1030.91 43.9318C1031.16 43.6136 1031.29 43.2424 1031.29 42.8182C1031.29 42.4318 1031.18 42.1174 1030.96 41.875C1030.75 41.6326 1030.46 41.4356 1030.11 41.2841C1029.76 41.1326 1029.38 41 1028.97 40.8864L1027.54 40.4773C1026.63 40.2159 1025.91 39.8428 1025.38 39.358C1024.85 38.8731 1024.58 38.2386 1024.58 37.4545C1024.58 36.803 1024.76 36.2348 1025.11 35.75C1025.47 35.2614 1025.94 34.8826 1026.54 34.6136C1027.14 34.3409 1027.82 34.2045 1028.56 34.2045C1029.31 34.2045 1029.98 34.339 1030.56 34.608C1031.14 34.8731 1031.6 35.2367 1031.95 35.6989C1032.29 36.161 1032.47 36.6856 1032.49 37.2727H1031.13ZM1036.13 40.75V46H1034.78V34.3636H1036.13V38.6364H1036.24C1036.44 38.1856 1036.75 37.8277 1037.16 37.5625C1037.57 37.2936 1038.12 37.1591 1038.81 37.1591C1039.4 37.1591 1039.92 37.2784 1040.37 37.517C1040.82 37.7519 1041.16 38.1136 1041.41 38.6023C1041.66 39.0871 1041.78 39.7045 1041.78 40.4545V46H1040.44V40.5455C1040.44 39.8523 1040.26 39.3163 1039.9 38.9375C1039.55 38.5549 1039.05 38.3636 1038.42 38.3636C1037.98 38.3636 1037.59 38.4564 1037.24 38.642C1036.89 38.8277 1036.62 39.0985 1036.42 39.4545C1036.22 39.8106 1036.13 40.2424 1036.13 40.75ZM1047.78 46.1818C1047 46.1818 1046.3 45.9943 1045.71 45.6193C1045.12 45.2443 1044.66 44.7197 1044.32 44.0455C1043.99 43.3712 1043.83 42.5833 1043.83 41.6818C1043.83 40.7727 1043.99 39.9792 1044.32 39.3011C1044.66 38.6231 1045.12 38.0966 1045.71 37.7216C1046.3 37.3466 1047 37.1591 1047.78 37.1591C1048.57 37.1591 1049.26 37.3466 1049.85 37.7216C1050.45 38.0966 1050.91 38.6231 1051.24 39.3011C1051.57 39.9792 1051.74 40.7727 1051.74 41.6818C1051.74 42.5833 1051.57 43.3712 1051.24 44.0455C1050.91 44.7197 1050.45 45.2443 1049.85 45.6193C1049.26 45.9943 1048.57 46.1818 1047.78 46.1818ZM1047.78 44.9773C1048.38 44.9773 1048.87 44.8239 1049.26 44.517C1049.65 44.2102 1049.93 43.8068 1050.12 43.3068C1050.3 42.8068 1050.4 42.2652 1050.4 41.6818C1050.4 41.0985 1050.3 40.5549 1050.12 40.0511C1049.93 39.5473 1049.65 39.1402 1049.26 38.8295C1048.87 38.5189 1048.38 38.3636 1047.78 38.3636C1047.18 38.3636 1046.69 38.5189 1046.31 38.8295C1045.92 39.1402 1045.63 39.5473 1045.45 40.0511C1045.26 40.5549 1045.17 41.0985 1045.17 41.6818C1045.17 42.2652 1045.26 42.8068 1045.45 43.3068C1045.63 43.8068 1045.92 44.2102 1046.31 44.517C1046.69 44.8239 1047.18 44.9773 1047.78 44.9773ZM1055.46 46L1052.81 37.2727H1054.21L1056.1 43.9545H1056.19L1058.06 37.2727H1059.49L1061.33 43.9318H1061.42L1063.31 37.2727H1064.71L1062.06 46H1060.74L1058.83 39.2955H1058.69L1056.78 46H1055.46ZM1072.67 39.2273L1071.46 39.5682C1071.39 39.3674 1071.28 39.1723 1071.13 38.983C1070.99 38.7898 1070.79 38.6307 1070.54 38.5057C1070.29 38.3807 1069.97 38.3182 1069.58 38.3182C1069.04 38.3182 1068.6 38.4413 1068.24 38.6875C1067.89 38.9299 1067.71 39.2386 1067.71 39.6136C1067.71 39.947 1067.84 40.2102 1068.08 40.4034C1068.32 40.5966 1068.7 40.7576 1069.21 40.8864L1070.51 41.2045C1071.29 41.3939 1071.87 41.6837 1072.25 42.0739C1072.64 42.4602 1072.83 42.9583 1072.83 43.5682C1072.83 44.0682 1072.68 44.5152 1072.4 44.9091C1072.11 45.303 1071.71 45.6136 1071.2 45.8409C1070.69 46.0682 1070.1 46.1818 1069.42 46.1818C1068.53 46.1818 1067.79 45.9886 1067.21 45.6023C1066.63 45.2159 1066.26 44.6515 1066.1 43.9091L1067.37 43.5909C1067.5 44.0606 1067.72 44.4129 1068.06 44.6477C1068.4 44.8826 1068.85 45 1069.4 45C1070.02 45 1070.52 44.8674 1070.89 44.6023C1071.26 44.3333 1071.44 44.0114 1071.44 43.6364C1071.44 43.3333 1071.34 43.0795 1071.12 42.875C1070.91 42.6667 1070.59 42.5114 1070.15 42.4091L1068.69 42.0682C1067.89 41.8788 1067.31 41.5852 1066.93 41.1875C1066.56 40.786 1066.37 40.2841 1066.37 39.6818C1066.37 39.1894 1066.51 38.7538 1066.79 38.375C1067.07 37.9962 1067.45 37.6989 1067.93 37.483C1068.42 37.267 1068.96 37.1591 1069.58 37.1591C1070.44 37.1591 1071.12 37.3485 1071.61 37.7273C1072.11 38.1061 1072.46 38.6061 1072.67 39.2273ZM1083.14 37.2727V38.4091H1078.62V37.2727H1083.14ZM1079.94 35.1818H1081.28V43.5C1081.28 43.8788 1081.33 44.1629 1081.44 44.3523C1081.56 44.5379 1081.7 44.6629 1081.88 44.7273C1082.05 44.7879 1082.24 44.8182 1082.44 44.8182C1082.59 44.8182 1082.71 44.8106 1082.8 44.7955C1082.9 44.7765 1082.97 44.7614 1083.03 44.75L1083.3 45.9545C1083.21 45.9886 1083.08 46.0227 1082.92 46.0568C1082.76 46.0947 1082.55 46.1136 1082.3 46.1136C1081.92 46.1136 1081.55 46.0322 1081.19 45.8693C1080.83 45.7064 1080.53 45.4583 1080.29 45.125C1080.06 44.7917 1079.94 44.3712 1079.94 43.8636V35.1818ZM1086.69 40.75V46H1085.35V34.3636H1086.69V38.6364H1086.8C1087.01 38.1856 1087.31 37.8277 1087.72 37.5625C1088.13 37.2936 1088.68 37.1591 1089.37 37.1591C1089.96 37.1591 1090.49 37.2784 1090.93 37.517C1091.38 37.7519 1091.73 38.1136 1091.97 38.6023C1092.22 39.0871 1092.35 39.7045 1092.35 40.4545V46H1091.01V40.5455C1091.01 39.8523 1090.83 39.3163 1090.47 38.9375C1090.11 38.5549 1089.62 38.3636 1088.98 38.3636C1088.54 38.3636 1088.15 38.4564 1087.8 38.642C1087.46 38.8277 1087.18 39.0985 1086.98 39.4545C1086.79 39.8106 1086.69 40.2424 1086.69 40.75ZM1098.46 46.1818C1097.62 46.1818 1096.89 45.9962 1096.28 45.625C1095.68 45.25 1095.21 44.7273 1094.88 44.0568C1094.55 43.3826 1094.39 42.5985 1094.39 41.7045C1094.39 40.8106 1094.55 40.0227 1094.88 39.3409C1095.21 38.6553 1095.67 38.1212 1096.25 37.7386C1096.85 37.3523 1097.53 37.1591 1098.32 37.1591C1098.78 37.1591 1099.23 37.2348 1099.67 37.3864C1100.11 37.5379 1100.52 37.7841 1100.88 38.125C1101.24 38.4621 1101.53 38.9091 1101.75 39.4659C1101.96 40.0227 1102.07 40.7083 1102.07 41.5227V42.0909H1095.35V40.9318H1100.71C1100.71 40.4394 1100.61 40 1100.41 39.6136C1100.22 39.2273 1099.94 38.9223 1099.58 38.6989C1099.23 38.4754 1098.81 38.3636 1098.32 38.3636C1097.79 38.3636 1097.33 38.4962 1096.94 38.7614C1096.55 39.0227 1096.25 39.3636 1096.04 39.7841C1095.84 40.2045 1095.73 40.6553 1095.73 41.1364V41.9091C1095.73 42.5682 1095.85 43.1269 1096.07 43.5852C1096.3 44.0398 1096.62 44.3864 1097.03 44.625C1097.44 44.8598 1097.92 44.9773 1098.46 44.9773C1098.81 44.9773 1099.13 44.928 1099.41 44.8295C1099.7 44.7273 1099.95 44.5758 1100.16 44.375C1100.37 44.1705 1100.53 43.9167 1100.64 43.6136L1101.94 43.9773C1101.8 44.4167 1101.57 44.803 1101.25 45.1364C1100.93 45.4659 1100.53 45.7235 1100.06 45.9091C1099.58 46.0909 1099.05 46.1818 1098.46 46.1818ZM1112.41 37.2727V38.4091H1107.89V37.2727H1112.41ZM1109.2 35.1818H1110.54V43.5C1110.54 43.8788 1110.6 44.1629 1110.71 44.3523C1110.82 44.5379 1110.97 44.6629 1111.14 44.7273C1111.32 44.7879 1111.51 44.8182 1111.7 44.8182C1111.85 44.8182 1111.97 44.8106 1112.07 44.7955C1112.16 44.7765 1112.24 44.7614 1112.29 44.75L1112.57 45.9545C1112.48 45.9886 1112.35 46.0227 1112.19 46.0568C1112.02 46.0947 1111.82 46.1136 1111.57 46.1136C1111.19 46.1136 1110.82 46.0322 1110.45 45.8693C1110.09 45.7064 1109.79 45.4583 1109.56 45.125C1109.32 44.7917 1109.2 44.3712 1109.2 43.8636V35.1818ZM1116.99 46.2045C1116.44 46.2045 1115.94 46.1004 1115.49 45.892C1115.04 45.6799 1114.68 45.375 1114.41 44.9773C1114.15 44.5758 1114.02 44.0909 1114.02 43.5227C1114.02 43.0227 1114.11 42.6174 1114.31 42.3068C1114.51 41.9924 1114.77 41.7462 1115.1 41.5682C1115.43 41.3902 1115.79 41.2576 1116.19 41.1705C1116.59 41.0795 1117 41.0076 1117.4 40.9545C1117.93 40.8864 1118.36 40.8352 1118.69 40.8011C1119.03 40.7633 1119.27 40.7008 1119.42 40.6136C1119.57 40.5265 1119.65 40.375 1119.65 40.1591V40.1136C1119.65 39.553 1119.5 39.1174 1119.19 38.8068C1118.89 38.4962 1118.43 38.3409 1117.81 38.3409C1117.17 38.3409 1116.67 38.4811 1116.31 38.7614C1115.94 39.0417 1115.69 39.3409 1115.54 39.6591L1114.27 39.2045C1114.49 38.6742 1114.8 38.2614 1115.18 37.9659C1115.56 37.6667 1115.97 37.4583 1116.43 37.3409C1116.88 37.2197 1117.33 37.1591 1117.77 37.1591C1118.05 37.1591 1118.37 37.1932 1118.73 37.2614C1119.1 37.3258 1119.45 37.4602 1119.79 37.6648C1120.14 37.8693 1120.43 38.178 1120.65 38.5909C1120.88 39.0038 1120.99 39.5568 1120.99 40.25V46H1119.65V44.8182H1119.58C1119.49 45.0076 1119.34 45.2102 1119.13 45.4261C1118.92 45.642 1118.64 45.8258 1118.28 45.9773C1117.93 46.1288 1117.5 46.2045 1116.99 46.2045ZM1117.2 45C1117.73 45 1118.18 44.8958 1118.54 44.6875C1118.91 44.4792 1119.18 44.2102 1119.37 43.8807C1119.56 43.5511 1119.65 43.2045 1119.65 42.8409V41.6136C1119.6 41.6818 1119.47 41.7443 1119.28 41.8011C1119.09 41.8542 1118.87 41.9015 1118.62 41.9432C1118.37 41.9811 1118.13 42.0152 1117.9 42.0455C1117.67 42.072 1117.48 42.0947 1117.33 42.1136C1116.99 42.1591 1116.66 42.233 1116.36 42.3352C1116.06 42.4337 1115.82 42.5833 1115.63 42.7841C1115.45 42.9811 1115.36 43.25 1115.36 43.5909C1115.36 44.0568 1115.53 44.4091 1115.87 44.6477C1116.22 44.8826 1116.66 45 1117.2 45ZM1129.62 39.2273L1128.42 39.5682C1128.34 39.3674 1128.23 39.1723 1128.08 38.983C1127.94 38.7898 1127.74 38.6307 1127.49 38.5057C1127.24 38.3807 1126.92 38.3182 1126.53 38.3182C1126 38.3182 1125.55 38.4413 1125.2 38.6875C1124.84 38.9299 1124.67 39.2386 1124.67 39.6136C1124.67 39.947 1124.79 40.2102 1125.03 40.4034C1125.27 40.5966 1125.65 40.7576 1126.17 40.8864L1127.46 41.2045C1128.24 41.3939 1128.83 41.6837 1129.21 42.0739C1129.59 42.4602 1129.78 42.9583 1129.78 43.5682C1129.78 44.0682 1129.64 44.5152 1129.35 44.9091C1129.07 45.303 1128.67 45.6136 1128.16 45.8409C1127.65 46.0682 1127.05 46.1818 1126.37 46.1818C1125.48 46.1818 1124.75 45.9886 1124.16 45.6023C1123.58 45.2159 1123.21 44.6515 1123.05 43.9091L1124.33 43.5909C1124.45 44.0606 1124.68 44.4129 1125.01 44.6477C1125.36 44.8826 1125.8 45 1126.35 45C1126.97 45 1127.47 44.8674 1127.84 44.6023C1128.21 44.3333 1128.4 44.0114 1128.4 43.6364C1128.4 43.3333 1128.29 43.0795 1128.08 42.875C1127.87 42.6667 1127.54 42.5114 1127.1 42.4091L1125.65 42.0682C1124.85 41.8788 1124.26 41.5852 1123.88 41.1875C1123.51 40.786 1123.33 40.2841 1123.33 39.6818C1123.33 39.1894 1123.47 38.7538 1123.74 38.375C1124.02 37.9962 1124.4 37.6989 1124.88 37.483C1125.37 37.267 1125.92 37.1591 1126.53 37.1591C1127.4 37.1591 1128.07 37.3485 1128.57 37.7273C1129.06 38.1061 1129.41 38.6061 1129.62 39.2273ZM1133.05 42.8182L1133.03 41.1591H1133.3L1137.12 37.2727H1138.78L1134.71 41.3864H1134.6L1133.05 42.8182ZM1131.8 46V34.3636H1133.14V46H1131.8ZM1137.35 46L1133.94 41.6818L1134.89 40.75L1139.05 46H1137.35ZM1146.34 40.75V46H1145V37.2727H1146.3V38.6364H1146.41C1146.62 38.1932 1146.93 37.8371 1147.34 37.5682C1147.76 37.2955 1148.3 37.1591 1148.96 37.1591C1149.55 37.1591 1150.07 37.2803 1150.51 37.5227C1150.95 37.7614 1151.3 38.125 1151.54 38.6136C1151.79 39.0985 1151.91 39.7121 1151.91 40.4545V46H1150.57V40.5455C1150.57 39.8598 1150.39 39.3258 1150.04 38.9432C1149.68 38.5568 1149.19 38.3636 1148.57 38.3636C1148.14 38.3636 1147.76 38.4564 1147.42 38.642C1147.09 38.8277 1146.83 39.0985 1146.63 39.4545C1146.44 39.8106 1146.34 40.2424 1146.34 40.75ZM1156.93 46.2045C1156.38 46.2045 1155.88 46.1004 1155.43 45.892C1154.97 45.6799 1154.62 45.375 1154.35 44.9773C1154.09 44.5758 1153.95 44.0909 1153.95 43.5227C1153.95 43.0227 1154.05 42.6174 1154.25 42.3068C1154.45 41.9924 1154.71 41.7462 1155.04 41.5682C1155.37 41.3902 1155.73 41.2576 1156.13 41.1705C1156.53 41.0795 1156.93 41.0076 1157.34 40.9545C1157.87 40.8864 1158.3 40.8352 1158.63 40.8011C1158.96 40.7633 1159.21 40.7008 1159.36 40.6136C1159.51 40.5265 1159.59 40.375 1159.59 40.1591V40.1136C1159.59 39.553 1159.44 39.1174 1159.13 38.8068C1158.83 38.4962 1158.37 38.3409 1157.75 38.3409C1157.11 38.3409 1156.61 38.4811 1156.24 38.7614C1155.88 39.0417 1155.62 39.3409 1155.48 39.6591L1154.2 39.2045C1154.43 38.6742 1154.73 38.2614 1155.11 37.9659C1155.5 37.6667 1155.91 37.4583 1156.36 37.3409C1156.82 37.2197 1157.26 37.1591 1157.7 37.1591C1157.98 37.1591 1158.31 37.1932 1158.67 37.2614C1159.04 37.3258 1159.39 37.4602 1159.73 37.6648C1160.08 37.8693 1160.36 38.178 1160.59 38.5909C1160.82 39.0038 1160.93 39.5568 1160.93 40.25V46H1159.59V44.8182H1159.52C1159.43 45.0076 1159.28 45.2102 1159.07 45.4261C1158.86 45.642 1158.57 45.8258 1158.22 45.9773C1157.87 46.1288 1157.44 46.2045 1156.93 46.2045ZM1157.14 45C1157.67 45 1158.11 44.8958 1158.48 44.6875C1158.84 44.4792 1159.12 44.2102 1159.31 43.8807C1159.5 43.5511 1159.59 43.2045 1159.59 42.8409V41.6136C1159.53 41.6818 1159.41 41.7443 1159.21 41.8011C1159.03 41.8542 1158.81 41.9015 1158.56 41.9432C1158.31 41.9811 1158.07 42.0152 1157.83 42.0455C1157.6 42.072 1157.42 42.0947 1157.27 42.1136C1156.92 42.1591 1156.6 42.233 1156.29 42.3352C1156 42.4337 1155.75 42.5833 1155.57 42.7841C1155.39 42.9811 1155.29 43.25 1155.29 43.5909C1155.29 44.0568 1155.47 44.4091 1155.81 44.6477C1156.16 44.8826 1156.6 45 1157.14 45ZM1163.38 46V37.2727H1164.67V38.6364H1164.79C1164.97 38.1705 1165.26 37.8087 1165.67 37.5511C1166.07 37.2898 1166.56 37.1591 1167.13 37.1591C1167.7 37.1591 1168.18 37.2898 1168.57 37.5511C1168.95 37.8087 1169.25 38.1705 1169.47 38.6364H1169.56C1169.78 38.1856 1170.12 37.8277 1170.57 37.5625C1171.01 37.2936 1171.55 37.1591 1172.17 37.1591C1172.95 37.1591 1173.59 37.4034 1174.09 37.892C1174.58 38.3769 1174.83 39.1326 1174.83 40.1591V46H1173.49V40.1591C1173.49 39.5152 1173.32 39.0549 1172.96 38.7784C1172.61 38.5019 1172.2 38.3636 1171.72 38.3636C1171.11 38.3636 1170.63 38.5492 1170.29 38.9205C1169.96 39.2879 1169.79 39.7538 1169.79 40.3182V46H1168.42V40.0227C1168.42 39.5265 1168.26 39.1269 1167.94 38.8239C1167.62 38.517 1167.2 38.3636 1166.7 38.3636C1166.35 38.3636 1166.02 38.4564 1165.72 38.642C1165.42 38.8277 1165.18 39.0852 1164.99 39.4148C1164.81 39.7405 1164.72 40.1174 1164.72 40.5455V46H1163.38ZM1180.94 46.1818C1180.1 46.1818 1179.38 45.9962 1178.77 45.625C1178.16 45.25 1177.69 44.7273 1177.36 44.0568C1177.04 43.3826 1176.88 42.5985 1176.88 41.7045C1176.88 40.8106 1177.04 40.0227 1177.36 39.3409C1177.69 38.6553 1178.15 38.1212 1178.74 37.7386C1179.33 37.3523 1180.02 37.1591 1180.81 37.1591C1181.26 37.1591 1181.71 37.2348 1182.15 37.3864C1182.6 37.5379 1183 37.7841 1183.36 38.125C1183.73 38.4621 1184.02 38.9091 1184.23 39.4659C1184.45 40.0227 1184.56 40.7083 1184.56 41.5227V42.0909H1177.83V40.9318H1183.19C1183.19 40.4394 1183.1 40 1182.9 39.6136C1182.7 39.2273 1182.43 38.9223 1182.07 38.6989C1181.71 38.4754 1181.29 38.3636 1180.81 38.3636C1180.27 38.3636 1179.81 38.4962 1179.42 38.7614C1179.03 39.0227 1178.74 39.3636 1178.53 39.7841C1178.32 40.2045 1178.22 40.6553 1178.22 41.1364V41.9091C1178.22 42.5682 1178.33 43.1269 1178.56 43.5852C1178.79 44.0398 1179.11 44.3864 1179.52 44.625C1179.93 44.8598 1180.4 44.9773 1180.94 44.9773C1181.3 44.9773 1181.61 44.928 1181.9 44.8295C1182.19 44.7273 1182.43 44.5758 1182.64 44.375C1182.85 44.1705 1183.01 43.9167 1183.13 43.6136L1184.42 43.9773C1184.28 44.4167 1184.06 44.803 1183.73 45.1364C1183.41 45.4659 1183.01 45.7235 1182.54 45.9091C1182.07 46.0909 1181.53 46.1818 1180.94 46.1818ZM1193.67 46.2045C1193.11 46.2045 1192.61 46.1004 1192.16 45.892C1191.71 45.6799 1191.35 45.375 1191.09 44.9773C1190.82 44.5758 1190.69 44.0909 1190.69 43.5227C1190.69 43.0227 1190.79 42.6174 1190.98 42.3068C1191.18 41.9924 1191.44 41.7462 1191.77 41.5682C1192.1 41.3902 1192.47 41.2576 1192.86 41.1705C1193.27 41.0795 1193.67 41.0076 1194.07 40.9545C1194.6 40.8864 1195.03 40.8352 1195.36 40.8011C1195.7 40.7633 1195.94 40.7008 1196.09 40.6136C1196.25 40.5265 1196.32 40.375 1196.32 40.1591V40.1136C1196.32 39.553 1196.17 39.1174 1195.86 38.8068C1195.56 38.4962 1195.1 38.3409 1194.48 38.3409C1193.84 38.3409 1193.34 38.4811 1192.98 38.7614C1192.61 39.0417 1192.36 39.3409 1192.21 39.6591L1190.94 39.2045C1191.17 38.6742 1191.47 38.2614 1191.85 37.9659C1192.23 37.6667 1192.65 37.4583 1193.1 37.3409C1193.55 37.2197 1194 37.1591 1194.44 37.1591C1194.72 37.1591 1195.04 37.1932 1195.4 37.2614C1195.77 37.3258 1196.13 37.4602 1196.47 37.6648C1196.81 37.8693 1197.1 38.178 1197.32 38.5909C1197.55 39.0038 1197.67 39.5568 1197.67 40.25V46H1196.32V44.8182H1196.26C1196.17 45.0076 1196.01 45.2102 1195.8 45.4261C1195.59 45.642 1195.31 45.8258 1194.95 45.9773C1194.6 46.1288 1194.17 46.2045 1193.67 46.2045ZM1193.87 45C1194.4 45 1194.85 44.8958 1195.21 44.6875C1195.58 44.4792 1195.85 44.2102 1196.04 43.8807C1196.23 43.5511 1196.32 43.2045 1196.32 42.8409V41.6136C1196.27 41.6818 1196.14 41.7443 1195.95 41.8011C1195.76 41.8542 1195.54 41.9015 1195.29 41.9432C1195.04 41.9811 1194.8 42.0152 1194.57 42.0455C1194.34 42.072 1194.15 42.0947 1194.01 42.1136C1193.66 42.1591 1193.33 42.233 1193.03 42.3352C1192.73 42.4337 1192.49 42.5833 1192.3 42.7841C1192.12 42.9811 1192.03 43.25 1192.03 43.5909C1192.03 44.0568 1192.2 44.4091 1192.55 44.6477C1192.89 44.8826 1193.34 45 1193.87 45ZM1201.45 40.75V46H1200.11V37.2727H1201.41V38.6364H1201.52C1201.73 38.1932 1202.04 37.8371 1202.45 37.5682C1202.87 37.2955 1203.41 37.1591 1204.07 37.1591C1204.66 37.1591 1205.18 37.2803 1205.62 37.5227C1206.06 37.7614 1206.41 38.125 1206.65 38.6136C1206.9 39.0985 1207.02 39.7121 1207.02 40.4545V46H1205.68V40.5455C1205.68 39.8598 1205.5 39.3258 1205.15 38.9432C1204.79 38.5568 1204.3 38.3636 1203.68 38.3636C1203.25 38.3636 1202.87 38.4564 1202.53 38.642C1202.2 38.8277 1201.94 39.0985 1201.74 39.4545C1201.55 39.8106 1201.45 40.2424 1201.45 40.75ZM1212.77 46.1818C1212.04 46.1818 1211.4 45.9981 1210.84 45.6307C1210.28 45.2595 1209.85 44.7367 1209.53 44.0625C1209.22 43.3845 1209.06 42.5833 1209.06 41.6591C1209.06 40.7424 1209.22 39.947 1209.53 39.2727C1209.85 38.5985 1210.29 38.0777 1210.85 37.7102C1211.41 37.3428 1212.06 37.1591 1212.79 37.1591C1213.36 37.1591 1213.81 37.2538 1214.14 37.4432C1214.47 37.6288 1214.72 37.8409 1214.9 38.0795C1215.08 38.3144 1215.21 38.5076 1215.31 38.6591H1215.43V34.3636H1216.77V46H1215.47V44.6591H1215.31C1215.21 44.8182 1215.07 45.0189 1214.89 45.2614C1214.71 45.5 1214.45 45.714 1214.11 45.9034C1213.78 46.089 1213.33 46.1818 1212.77 46.1818ZM1212.95 44.9773C1213.49 44.9773 1213.94 44.8371 1214.31 44.5568C1214.68 44.2727 1214.97 43.8807 1215.16 43.3807C1215.35 42.8769 1215.45 42.2955 1215.45 41.6364C1215.45 40.9848 1215.35 40.4148 1215.17 39.9261C1214.98 39.4337 1214.7 39.0511 1214.32 38.7784C1213.95 38.5019 1213.49 38.3636 1212.95 38.3636C1212.38 38.3636 1211.91 38.5095 1211.53 38.8011C1211.15 39.089 1210.87 39.4811 1210.68 39.9773C1210.5 40.4697 1210.4 41.0227 1210.4 41.6364C1210.4 42.2576 1210.5 42.822 1210.69 43.3295C1210.88 43.8333 1211.17 44.2348 1211.54 44.5341C1211.92 44.8295 1212.39 44.9773 1212.95 44.9773ZM897.894 73.2727V61.2727H899.189V62.6591H899.348C899.447 62.5076 899.583 62.3144 899.758 62.0795C899.936 61.8409 900.189 61.6288 900.519 61.4432C900.852 61.2538 901.303 61.1591 901.871 61.1591C902.606 61.1591 903.254 61.3428 903.814 61.7102C904.375 62.0777 904.812 62.5985 905.127 63.2727C905.441 63.947 905.598 64.7424 905.598 65.6591C905.598 66.5833 905.441 67.3845 905.127 68.0625C904.812 68.7367 904.377 69.2595 903.82 69.6307C903.263 69.9981 902.621 70.1818 901.894 70.1818C901.333 70.1818 900.884 70.089 900.547 69.9034C900.21 69.714 899.951 69.5 899.769 69.2614C899.587 69.0189 899.447 68.8182 899.348 68.6591H899.235V73.2727H897.894ZM899.212 65.6364C899.212 66.2955 899.309 66.8769 899.502 67.3807C899.695 67.8807 899.977 68.2727 900.348 68.5568C900.72 68.8371 901.174 68.9773 901.712 68.9773C902.273 68.9773 902.74 68.8295 903.115 68.5341C903.494 68.2348 903.778 67.8333 903.968 67.3295C904.161 66.822 904.258 66.2576 904.258 65.6364C904.258 65.0227 904.163 64.4697 903.973 63.9773C903.788 63.4811 903.506 63.089 903.127 62.8011C902.752 62.5095 902.28 62.3636 901.712 62.3636C901.167 62.3636 900.708 62.5019 900.337 62.7784C899.966 63.0511 899.686 63.4337 899.496 63.9261C899.307 64.4148 899.212 64.9848 899.212 65.6364ZM911.303 70.1818C910.462 70.1818 909.737 69.9962 909.127 69.625C908.521 69.25 908.053 68.7273 907.723 68.0568C907.398 67.3826 907.235 66.5985 907.235 65.7045C907.235 64.8106 907.398 64.0227 907.723 63.3409C908.053 62.6553 908.511 62.1212 909.098 61.7386C909.689 61.3523 910.379 61.1591 911.167 61.1591C911.621 61.1591 912.07 61.2348 912.513 61.3864C912.956 61.5379 913.36 61.7841 913.723 62.125C914.087 62.4621 914.377 62.9091 914.593 63.4659C914.809 64.0227 914.917 64.7083 914.917 65.5227V66.0909H908.189V64.9318H913.553C913.553 64.4394 913.455 64 913.258 63.6136C913.064 63.2273 912.788 62.9223 912.428 62.6989C912.072 62.4754 911.651 62.3636 911.167 62.3636C910.633 62.3636 910.17 62.4962 909.78 62.7614C909.394 63.0227 909.097 63.3636 908.888 63.7841C908.68 64.2045 908.576 64.6553 908.576 65.1364V65.9091C908.576 66.5682 908.689 67.1269 908.917 67.5852C909.148 68.0398 909.468 68.3864 909.877 68.625C910.286 68.8598 910.761 68.9773 911.303 68.9773C911.655 68.9773 911.973 68.928 912.258 68.8295C912.545 68.7273 912.794 68.5758 913.002 68.375C913.21 68.1705 913.371 67.9167 913.485 67.6136L914.78 67.9773C914.644 68.4167 914.415 68.803 914.093 69.1364C913.771 69.4659 913.373 69.7235 912.9 69.9091C912.426 70.0909 911.894 70.1818 911.303 70.1818ZM916.956 70V61.2727H918.252V62.5909H918.343C918.502 62.1591 918.79 61.8087 919.206 61.5398C919.623 61.2708 920.093 61.1364 920.615 61.1364C920.714 61.1364 920.837 61.1383 920.985 61.142C921.133 61.1458 921.244 61.1515 921.32 61.1591V62.5227C921.275 62.5114 921.17 62.4943 921.008 62.4716C920.848 62.4451 920.68 62.4318 920.502 62.4318C920.078 62.4318 919.699 62.5208 919.365 62.6989C919.036 62.8731 918.775 63.1155 918.581 63.4261C918.392 63.733 918.297 64.0833 918.297 64.4773V70H916.956ZM926.189 70.1818C925.371 70.1818 924.667 69.9886 924.076 69.6023C923.485 69.2159 923.03 68.6837 922.712 68.0057C922.394 67.3277 922.235 66.553 922.235 65.6818C922.235 64.7955 922.398 64.0133 922.723 63.3352C923.053 62.6534 923.511 62.1212 924.098 61.7386C924.689 61.3523 925.379 61.1591 926.167 61.1591C926.78 61.1591 927.333 61.2727 927.826 61.5C928.318 61.7273 928.722 62.0455 929.036 62.4545C929.35 62.8636 929.545 63.3409 929.621 63.8864H928.28C928.178 63.4886 927.951 63.1364 927.598 62.8295C927.25 62.5189 926.78 62.3636 926.189 62.3636C925.667 62.3636 925.208 62.5 924.814 62.7727C924.424 63.0417 924.119 63.4223 923.9 63.9148C923.684 64.4034 923.576 64.9773 923.576 65.6364C923.576 66.3106 923.682 66.8977 923.894 67.3977C924.11 67.8977 924.413 68.286 924.803 68.5625C925.197 68.839 925.659 68.9773 926.189 68.9773C926.538 68.9773 926.854 68.9167 927.138 68.7955C927.422 68.6742 927.663 68.5 927.86 68.2727C928.057 68.0455 928.197 67.7727 928.28 67.4545H929.621C929.545 67.9697 929.358 68.4337 929.059 68.8466C928.763 69.2557 928.371 69.5814 927.883 69.8239C927.398 70.0625 926.833 70.1818 926.189 70.1818ZM935.24 70.1818C934.4 70.1818 933.674 69.9962 933.064 69.625C932.458 69.25 931.99 68.7273 931.661 68.0568C931.335 67.3826 931.172 66.5985 931.172 65.7045C931.172 64.8106 931.335 64.0227 931.661 63.3409C931.99 62.6553 932.449 62.1212 933.036 61.7386C933.627 61.3523 934.316 61.1591 935.104 61.1591C935.559 61.1591 936.008 61.2348 936.451 61.3864C936.894 61.5379 937.297 61.7841 937.661 62.125C938.025 62.4621 938.314 62.9091 938.53 63.4659C938.746 64.0227 938.854 64.7083 938.854 65.5227V66.0909H932.127V64.9318H937.49C937.49 64.4394 937.392 64 937.195 63.6136C937.002 63.2273 936.725 62.9223 936.365 62.6989C936.009 62.4754 935.589 62.3636 935.104 62.3636C934.57 62.3636 934.108 62.4962 933.718 62.7614C933.331 63.0227 933.034 63.3636 932.826 63.7841C932.617 64.2045 932.513 64.6553 932.513 65.1364V65.9091C932.513 66.5682 932.627 67.1269 932.854 67.5852C933.085 68.0398 933.405 68.3864 933.814 68.625C934.223 68.8598 934.699 68.9773 935.24 68.9773C935.593 68.9773 935.911 68.928 936.195 68.8295C936.483 68.7273 936.731 68.5758 936.939 68.375C937.148 68.1705 937.309 67.9167 937.422 67.6136L938.718 67.9773C938.581 68.4167 938.352 68.803 938.03 69.1364C937.708 69.4659 937.311 69.7235 936.837 69.9091C936.364 70.0909 935.831 70.1818 935.24 70.1818ZM942.235 64.75V70H940.894V61.2727H942.189V62.6364H942.303C942.508 62.1932 942.818 61.8371 943.235 61.5682C943.651 61.2955 944.189 61.1591 944.848 61.1591C945.439 61.1591 945.956 61.2803 946.4 61.5227C946.843 61.7614 947.187 62.125 947.434 62.6136C947.68 63.0985 947.803 63.7121 947.803 64.4545V70H946.462V64.5455C946.462 63.8598 946.284 63.3258 945.928 62.9432C945.572 62.5568 945.083 62.3636 944.462 62.3636C944.034 62.3636 943.651 62.4564 943.314 62.642C942.981 62.8277 942.718 63.0985 942.525 63.4545C942.331 63.8106 942.235 64.2424 942.235 64.75ZM954.049 61.2727V62.4091H949.526V61.2727H954.049ZM950.844 59.1818H952.185V67.5C952.185 67.8788 952.24 68.1629 952.35 68.3523C952.464 68.5379 952.607 68.6629 952.782 68.7273C952.96 68.7879 953.147 68.8182 953.344 68.8182C953.492 68.8182 953.613 68.8106 953.708 68.7955C953.803 68.7765 953.878 68.7614 953.935 68.75L954.208 69.9545C954.117 69.9886 953.99 70.0227 953.827 70.0568C953.664 70.0947 953.458 70.1136 953.208 70.1136C952.829 70.1136 952.458 70.0322 952.094 69.8693C951.734 69.7064 951.435 69.4583 951.196 69.125C950.962 68.7917 950.844 68.3712 950.844 67.8636V59.1818ZM958.634 70.2045C958.081 70.2045 957.579 70.1004 957.128 69.892C956.678 69.6799 956.32 69.375 956.054 68.9773C955.789 68.5758 955.657 68.0909 955.657 67.5227C955.657 67.0227 955.755 66.6174 955.952 66.3068C956.149 65.9924 956.412 65.7462 956.742 65.5682C957.071 65.3902 957.435 65.2576 957.833 65.1705C958.234 65.0795 958.638 65.0076 959.043 64.9545C959.573 64.8864 960.003 64.8352 960.333 64.8011C960.666 64.7633 960.909 64.7008 961.06 64.6136C961.215 64.5265 961.293 64.375 961.293 64.1591V64.1136C961.293 63.553 961.14 63.1174 960.833 62.8068C960.53 62.4962 960.07 62.3409 959.452 62.3409C958.812 62.3409 958.31 62.4811 957.946 62.7614C957.583 63.0417 957.327 63.3409 957.179 63.6591L955.907 63.2045C956.134 62.6742 956.437 62.2614 956.816 61.9659C957.198 61.6667 957.615 61.4583 958.066 61.3409C958.52 61.2197 958.967 61.1591 959.407 61.1591C959.687 61.1591 960.009 61.1932 960.373 61.2614C960.74 61.3258 961.094 61.4602 961.435 61.6648C961.78 61.8693 962.066 62.178 962.293 62.5909C962.52 63.0038 962.634 63.5568 962.634 64.25V70H961.293V68.8182H961.225C961.134 69.0076 960.982 69.2102 960.77 69.4261C960.558 69.642 960.276 69.8258 959.924 69.9773C959.571 70.1288 959.142 70.2045 958.634 70.2045ZM958.839 69C959.369 69 959.816 68.8958 960.179 68.6875C960.547 68.4792 960.823 68.2102 961.009 67.8807C961.198 67.5511 961.293 67.2045 961.293 66.8409V65.6136C961.236 65.6818 961.111 65.7443 960.918 65.8011C960.729 65.8542 960.509 65.9015 960.259 65.9432C960.013 65.9811 959.772 66.0152 959.537 66.0455C959.306 66.072 959.119 66.0947 958.975 66.1136C958.626 66.1591 958.301 66.233 957.998 66.3352C957.698 66.4337 957.456 66.5833 957.27 66.7841C957.089 66.9811 956.998 67.25 956.998 67.5909C956.998 68.0568 957.17 68.4091 957.515 68.6477C957.863 68.8826 958.304 69 958.839 69ZM968.604 73.4545C967.956 73.4545 967.4 73.3712 966.934 73.2045C966.468 73.0417 966.08 72.8258 965.769 72.5568C965.462 72.2917 965.218 72.0076 965.036 71.7045L966.104 70.9545C966.225 71.1136 966.379 71.2955 966.564 71.5C966.75 71.7083 967.004 71.8883 967.326 72.0398C967.651 72.1951 968.078 72.2727 968.604 72.2727C969.309 72.2727 969.89 72.1023 970.348 71.7614C970.807 71.4205 971.036 70.8864 971.036 70.1591V68.3864H970.922C970.824 68.5455 970.684 68.7424 970.502 68.9773C970.324 69.2083 970.066 69.4148 969.729 69.5966C969.396 69.7746 968.945 69.8636 968.377 69.8636C967.672 69.8636 967.04 69.697 966.479 69.3636C965.922 69.0303 965.481 68.5455 965.155 67.9091C964.833 67.2727 964.672 66.5 964.672 65.5909C964.672 64.697 964.83 63.9186 965.144 63.2557C965.458 62.589 965.896 62.0739 966.456 61.7102C967.017 61.3428 967.665 61.1591 968.4 61.1591C968.968 61.1591 969.419 61.2538 969.752 61.4432C970.089 61.6288 970.347 61.8409 970.525 62.0795C970.706 62.3144 970.847 62.5076 970.945 62.6591H971.081V61.2727H972.377V70.25C972.377 71 972.206 71.6098 971.865 72.0795C971.528 72.553 971.074 72.8996 970.502 73.1193C969.934 73.3428 969.301 73.4545 968.604 73.4545ZM968.559 68.6591C969.097 68.6591 969.551 68.536 969.922 68.2898C970.294 68.0436 970.576 67.6894 970.769 67.2273C970.962 66.7652 971.059 66.2121 971.059 65.5682C971.059 64.9394 970.964 64.3845 970.775 63.9034C970.585 63.4223 970.305 63.0455 969.934 62.7727C969.562 62.5 969.104 62.3636 968.559 62.3636C967.99 62.3636 967.517 62.5076 967.138 62.7955C966.763 63.0833 966.481 63.4697 966.292 63.9545C966.106 64.4394 966.013 64.9773 966.013 65.5682C966.013 66.1742 966.108 66.7102 966.297 67.1761C966.49 67.6383 966.775 68.0019 967.15 68.267C967.528 68.5284 967.998 68.6591 968.559 68.6591ZM978.49 70.1818C977.65 70.1818 976.924 69.9962 976.314 69.625C975.708 69.25 975.24 68.7273 974.911 68.0568C974.585 67.3826 974.422 66.5985 974.422 65.7045C974.422 64.8106 974.585 64.0227 974.911 63.3409C975.24 62.6553 975.699 62.1212 976.286 61.7386C976.877 61.3523 977.566 61.1591 978.354 61.1591C978.809 61.1591 979.258 61.2348 979.701 61.3864C980.144 61.5379 980.547 61.7841 980.911 62.125C981.275 62.4621 981.564 62.9091 981.78 63.4659C981.996 64.0227 982.104 64.7083 982.104 65.5227V66.0909H975.377V64.9318H980.74C980.74 64.4394 980.642 64 980.445 63.6136C980.252 63.2273 979.975 62.9223 979.615 62.6989C979.259 62.4754 978.839 62.3636 978.354 62.3636C977.82 62.3636 977.358 62.4962 976.968 62.7614C976.581 63.0227 976.284 63.3636 976.076 63.7841C975.867 64.2045 975.763 64.6553 975.763 65.1364V65.9091C975.763 66.5682 975.877 67.1269 976.104 67.5852C976.335 68.0398 976.655 68.3864 977.064 68.625C977.473 68.8598 977.949 68.9773 978.49 68.9773C978.843 68.9773 979.161 68.928 979.445 68.8295C979.733 68.7273 979.981 68.5758 980.189 68.375C980.398 68.1705 980.559 67.9167 980.672 67.6136L981.968 67.9773C981.831 68.4167 981.602 68.803 981.28 69.1364C980.958 69.4659 980.561 69.7235 980.087 69.9091C979.614 70.0909 979.081 70.1818 978.49 70.1818ZM985.121 70.0909C984.841 70.0909 984.6 69.9905 984.4 69.7898C984.199 69.589 984.098 69.3485 984.098 69.0682C984.098 68.7879 984.199 68.5473 984.4 68.3466C984.6 68.1458 984.841 68.0455 985.121 68.0455C985.401 68.0455 985.642 68.1458 985.843 68.3466C986.044 68.5473 986.144 68.7879 986.144 69.0682C986.144 69.2538 986.097 69.4242 986.002 69.5795C985.911 69.7348 985.788 69.8598 985.633 69.9545C985.481 70.0455 985.311 70.0909 985.121 70.0909Z" fill="white" fill-opacity="0.95"/>
</svg>
