<svg width="220" height="104" viewBox="0 0 220 104" fill="none" xmlns="http://www.w3.org/2000/svg">
<mask id="path-1-inside-1_2110_46814" fill="white">
<path d="M0 0H220V104H0V0Z"/>
</mask>
<path d="M0 0H220V104H0V0Z" fill="#1A1A1A"/>
<path d="M220 104V105H221V104H220ZM219 0V104H221V0H219ZM220 103H0V105H220V103Z" fill="#707070" mask="url(#path-1-inside-1_2110_46814)"/>
<path d="M40.6364 46.3636V58H39.2727L32.9318 48.8636H32.8182V58H31.4091V46.3636H32.7727L39.1364 55.5227H39.25V46.3636H40.6364ZM47.3878 45.8182L43.6378 59.75H42.4105L46.1605 45.8182H47.3878ZM49.6364 58H48.1591L52.4318 46.3636H53.8864L58.1591 58H56.6818L53.2045 48.2045H53.1136L49.6364 58ZM50.1818 53.4545H56.1364V54.7045H50.1818V53.4545Z" fill="white" fill-opacity="0.95"/>
</svg>
