<svg width="1150" height="56" viewBox="0 0 1150 56" fill="none" xmlns="http://www.w3.org/2000/svg">
<mask id="path-1-inside-1_2110_46757" fill="white">
<path d="M0 0H575V56H0V0Z"/>
</mask>
<path d="M0 0H575V56H0V0Z" fill="#1A1A1A"/>
<path d="M574 0V56H576V0H574Z" fill="#707070" mask="url(#path-1-inside-1_2110_46757)"/>
<path d="M37.3239 25.7102C37.2784 25.2519 37.0833 24.8958 36.7386 24.642C36.3939 24.3883 35.9261 24.2614 35.3352 24.2614C34.9337 24.2614 34.5947 24.3182 34.3182 24.4318C34.0417 24.5417 33.8295 24.6951 33.6818 24.892C33.5379 25.089 33.4659 25.3125 33.4659 25.5625C33.4583 25.7708 33.5019 25.9527 33.5966 26.108C33.6951 26.2633 33.8295 26.3977 34 26.5114C34.1705 26.6212 34.3674 26.7178 34.5909 26.8011C34.8144 26.8807 35.053 26.9489 35.3068 27.0057L36.3523 27.2557C36.8598 27.3693 37.3258 27.5208 37.75 27.7102C38.1742 27.8996 38.5417 28.1326 38.8523 28.4091C39.1629 28.6856 39.4034 29.0114 39.5739 29.3864C39.7481 29.7614 39.8371 30.1913 39.8409 30.6761C39.8371 31.3883 39.6553 32.0057 39.2955 32.5284C38.9394 33.0473 38.4242 33.4508 37.75 33.7386C37.0795 34.0227 36.2708 34.1648 35.3239 34.1648C34.3845 34.1648 33.5663 34.0208 32.8693 33.733C32.1761 33.4451 31.6345 33.0189 31.2443 32.4545C30.858 31.8864 30.6553 31.1837 30.6364 30.3466H33.017C33.0436 30.7367 33.1553 31.0625 33.3523 31.3239C33.553 31.5814 33.8201 31.7765 34.1534 31.9091C34.4905 32.0379 34.8712 32.1023 35.2955 32.1023C35.7121 32.1023 36.0739 32.0417 36.3807 31.9205C36.6913 31.7992 36.9318 31.6307 37.1023 31.4148C37.2727 31.1989 37.358 30.9508 37.358 30.6705C37.358 30.4091 37.2803 30.1894 37.125 30.0114C36.9735 29.8333 36.75 29.6818 36.4545 29.5568C36.1629 29.4318 35.8049 29.3182 35.3807 29.2159L34.1136 28.8977C33.1326 28.6591 32.358 28.286 31.7898 27.7784C31.2216 27.2708 30.9394 26.5871 30.9432 25.7273C30.9394 25.0227 31.1269 24.4072 31.5057 23.8807C31.8883 23.3542 32.4129 22.9432 33.0795 22.6477C33.7462 22.3523 34.5038 22.2045 35.3523 22.2045C36.2159 22.2045 36.9697 22.3523 37.6136 22.6477C38.2614 22.9432 38.7652 23.3542 39.125 23.8807C39.4848 24.4072 39.6705 25.017 39.6818 25.7102H37.3239ZM42.1357 34V22.3636H44.596V27.1648H49.5903V22.3636H52.0448V34H49.5903V29.1932H44.596V34H42.1357ZM57.1735 22.3636V34H54.7132V22.3636H57.1735ZM59.8376 34V22.3636H67.5422V24.392H62.2978V27.1648H67.0308V29.1932H62.2978V34H59.8376ZM69.3938 24.392V22.3636H78.9506V24.392H75.3881V34H72.9563V24.392H69.3938ZM88.9167 32.2273V24.1818H90.9508V32.2273H88.9167ZM85.911 29.2216V27.1875H93.9565V29.2216H85.911ZM101.366 34V22.3636H109.07V24.392H103.826V27.1648H108.559V29.1932H103.826V34H101.366ZM116.359 22.3636V34H113.899V24.6989H113.831L111.166 26.3693V24.1875L114.047 22.3636H116.359ZM124.328 34.2557C123.35 34.2519 122.509 34.0114 121.805 33.5341C121.104 33.0568 120.564 32.3655 120.186 31.4602C119.811 30.5549 119.625 29.4659 119.629 28.1932C119.629 26.9242 119.816 25.8428 120.191 24.9489C120.57 24.0549 121.11 23.375 121.811 22.9091C122.515 22.4394 123.354 22.2045 124.328 22.2045C125.301 22.2045 126.138 22.4394 126.839 22.9091C127.543 23.3788 128.085 24.0606 128.464 24.9545C128.843 25.8447 129.03 26.9242 129.026 28.1932C129.026 29.4697 128.837 30.5606 128.458 31.4659C128.083 32.3712 127.545 33.0625 126.845 33.5398C126.144 34.017 125.305 34.2557 124.328 34.2557ZM124.328 32.2159C124.994 32.2159 125.526 31.8807 125.924 31.2102C126.322 30.5398 126.519 29.5341 126.515 28.1932C126.515 27.3106 126.424 26.5758 126.242 25.9886C126.064 25.4015 125.811 24.9602 125.481 24.6648C125.155 24.3693 124.771 24.2216 124.328 24.2216C123.665 24.2216 123.134 24.553 122.737 25.2159C122.339 25.8788 122.138 26.8712 122.134 28.1932C122.134 29.0871 122.223 29.8333 122.401 30.4318C122.583 31.0265 122.839 31.4735 123.168 31.7727C123.498 32.0682 123.884 32.2159 124.328 32.2159Z" fill="white" fill-opacity="0.95"/>
<path d="M575 0H1150V56H575V0Z" fill="#1A1A1A"/>
<path d="M607.818 22.3636V34H606.409V22.3636H607.818ZM614.348 25.2727V26.4091H609.643V25.2727H614.348ZM611.053 34V24.0682C611.053 23.5682 611.17 23.1515 611.405 22.8182C611.64 22.4848 611.945 22.2348 612.32 22.0682C612.695 21.9015 613.09 21.8182 613.507 21.8182C613.837 21.8182 614.106 21.8447 614.314 21.8977C614.522 21.9508 614.678 22 614.78 22.0455L614.393 23.2045C614.325 23.1818 614.231 23.1534 614.109 23.1193C613.992 23.0852 613.837 23.0682 613.643 23.0682C613.2 23.0682 612.88 23.1799 612.683 23.4034C612.49 23.6269 612.393 23.9545 612.393 24.3864V34H611.053ZM624.523 25.2727V26.4091H620V25.2727H624.523ZM621.318 23.1818H622.659V31.5C622.659 31.8788 622.714 32.1629 622.824 32.3523C622.938 32.5379 623.081 32.6629 623.256 32.7273C623.434 32.7879 623.621 32.8182 623.818 32.8182C623.966 32.8182 624.087 32.8106 624.182 32.7955C624.277 32.7765 624.352 32.7614 624.409 32.75L624.682 33.9545C624.591 33.9886 624.464 34.0227 624.301 34.0568C624.138 34.0947 623.932 34.1136 623.682 34.1136C623.303 34.1136 622.932 34.0322 622.568 33.8693C622.208 33.7064 621.909 33.4583 621.67 33.125C621.436 32.7917 621.318 32.3712 621.318 31.8636V23.1818ZM628.068 28.75V34H626.727V22.3636H628.068V26.6364H628.182C628.386 26.1856 628.693 25.8277 629.102 25.5625C629.515 25.2936 630.064 25.1591 630.75 25.1591C631.345 25.1591 631.866 25.2784 632.312 25.517C632.759 25.7519 633.106 26.1136 633.352 26.6023C633.602 27.0871 633.727 27.7045 633.727 28.4545V34H632.386V28.5455C632.386 27.8523 632.206 27.3163 631.847 26.9375C631.491 26.5549 630.996 26.3636 630.364 26.3636C629.924 26.3636 629.53 26.4564 629.182 26.642C628.837 26.8277 628.564 27.0985 628.364 27.4545C628.167 27.8106 628.068 28.2424 628.068 28.75ZM639.839 34.1818C638.999 34.1818 638.273 33.9962 637.663 33.625C637.057 33.25 636.589 32.7273 636.26 32.0568C635.934 31.3826 635.771 30.5985 635.771 29.7045C635.771 28.8106 635.934 28.0227 636.26 27.3409C636.589 26.6553 637.048 26.1212 637.635 25.7386C638.226 25.3523 638.915 25.1591 639.703 25.1591C640.158 25.1591 640.607 25.2348 641.05 25.3864C641.493 25.5379 641.896 25.7841 642.26 26.125C642.624 26.4621 642.913 26.9091 643.129 27.4659C643.345 28.0227 643.453 28.7083 643.453 29.5227V30.0909H636.726V28.9318H642.089C642.089 28.4394 641.991 28 641.794 27.6136C641.601 27.2273 641.324 26.9223 640.964 26.6989C640.608 26.4754 640.188 26.3636 639.703 26.3636C639.169 26.3636 638.707 26.4962 638.317 26.7614C637.93 27.0227 637.633 27.3636 637.425 27.7841C637.216 28.2045 637.112 28.6553 637.112 29.1364V29.9091C637.112 30.5682 637.226 31.1269 637.453 31.5852C637.684 32.0398 638.004 32.3864 638.413 32.625C638.822 32.8598 639.298 32.9773 639.839 32.9773C640.192 32.9773 640.51 32.928 640.794 32.8295C641.082 32.7273 641.33 32.5758 641.538 32.375C641.747 32.1705 641.908 31.9167 642.021 31.6136L643.317 31.9773C643.18 32.4167 642.951 32.803 642.629 33.1364C642.307 33.4659 641.91 33.7235 641.436 33.9091C640.963 34.0909 640.43 34.1818 639.839 34.1818ZM653.788 25.2727V26.4091H649.266V25.2727H653.788ZM650.584 23.1818H651.925V31.5C651.925 31.8788 651.98 32.1629 652.089 32.3523C652.203 32.5379 652.347 32.6629 652.521 32.7273C652.699 32.7879 652.887 32.8182 653.084 32.8182C653.232 32.8182 653.353 32.8106 653.447 32.7955C653.542 32.7765 653.618 32.7614 653.675 32.75L653.947 33.9545C653.857 33.9886 653.73 34.0227 653.567 34.0568C653.404 34.0947 653.197 34.1136 652.947 34.1136C652.569 34.1136 652.197 34.0322 651.834 33.8693C651.474 33.7064 651.175 33.4583 650.936 33.125C650.701 32.7917 650.584 32.3712 650.584 31.8636V23.1818ZM658.374 34.2045C657.821 34.2045 657.319 34.1004 656.868 33.892C656.417 33.6799 656.059 33.375 655.794 32.9773C655.529 32.5758 655.396 32.0909 655.396 31.5227C655.396 31.0227 655.495 30.6174 655.692 30.3068C655.889 29.9924 656.152 29.7462 656.482 29.5682C656.811 29.3902 657.175 29.2576 657.572 29.1705C657.974 29.0795 658.377 29.0076 658.783 28.9545C659.313 28.8864 659.743 28.8352 660.072 28.8011C660.406 28.7633 660.648 28.7008 660.8 28.6136C660.955 28.5265 661.033 28.375 661.033 28.1591V28.1136C661.033 27.553 660.879 27.1174 660.572 26.8068C660.269 26.4962 659.809 26.3409 659.192 26.3409C658.552 26.3409 658.05 26.4811 657.686 26.7614C657.322 27.0417 657.067 27.3409 656.919 27.6591L655.646 27.2045C655.874 26.6742 656.177 26.2614 656.555 25.9659C656.938 25.6667 657.355 25.4583 657.805 25.3409C658.26 25.2197 658.707 25.1591 659.146 25.1591C659.427 25.1591 659.749 25.1932 660.112 25.2614C660.48 25.3258 660.834 25.4602 661.175 25.6648C661.519 25.8693 661.805 26.178 662.033 26.5909C662.26 27.0038 662.374 27.5568 662.374 28.25V34H661.033V32.8182H660.964C660.874 33.0076 660.722 33.2102 660.51 33.4261C660.298 33.642 660.016 33.8258 659.663 33.9773C659.311 34.1288 658.881 34.2045 658.374 34.2045ZM658.578 33C659.108 33 659.555 32.8958 659.919 32.6875C660.286 32.4792 660.563 32.2102 660.749 31.8807C660.938 31.5511 661.033 31.2045 661.033 30.8409V29.6136C660.976 29.6818 660.851 29.7443 660.658 29.8011C660.468 29.8542 660.249 29.9015 659.999 29.9432C659.752 29.9811 659.512 30.0152 659.277 30.0455C659.046 30.072 658.858 30.0947 658.714 30.1136C658.366 30.1591 658.04 30.233 657.737 30.3352C657.438 30.4337 657.196 30.5833 657.01 30.7841C656.828 30.9811 656.737 31.25 656.737 31.5909C656.737 32.0568 656.91 32.4091 657.254 32.6477C657.603 32.8826 658.044 33 658.578 33ZM665.003 34V22.3636H666.344V26.6591H666.457C666.556 26.5076 666.692 26.3144 666.866 26.0795C667.045 25.8409 667.298 25.6288 667.628 25.4432C667.961 25.2538 668.412 25.1591 668.98 25.1591C669.715 25.1591 670.363 25.3428 670.923 25.7102C671.484 26.0777 671.921 26.5985 672.236 27.2727C672.55 27.947 672.707 28.7424 672.707 29.6591C672.707 30.5833 672.55 31.3845 672.236 32.0625C671.921 32.7367 671.486 33.2595 670.929 33.6307C670.372 33.9981 669.73 34.1818 669.003 34.1818C668.442 34.1818 667.993 34.089 667.656 33.9034C667.319 33.714 667.06 33.5 666.878 33.2614C666.696 33.0189 666.556 32.8182 666.457 32.6591H666.298V34H665.003ZM666.321 29.6364C666.321 30.2955 666.418 30.8769 666.611 31.3807C666.804 31.8807 667.086 32.2727 667.457 32.5568C667.829 32.8371 668.283 32.9773 668.821 32.9773C669.382 32.9773 669.849 32.8295 670.224 32.5341C670.603 32.2348 670.887 31.8333 671.077 31.3295C671.27 30.822 671.366 30.2576 671.366 29.6364C671.366 29.0227 671.272 28.4697 671.082 27.9773C670.897 27.4811 670.615 27.089 670.236 26.8011C669.861 26.5095 669.389 26.3636 668.821 26.3636C668.276 26.3636 667.817 26.5019 667.446 26.7784C667.075 27.0511 666.795 27.4337 666.605 27.9261C666.416 28.4148 666.321 28.9848 666.321 29.6364ZM680.599 28.75V34H679.259V22.3636H680.599V26.6364H680.713C680.918 26.1856 681.224 25.8277 681.634 25.5625C682.046 25.2936 682.596 25.1591 683.281 25.1591C683.876 25.1591 684.397 25.2784 684.844 25.517C685.291 25.7519 685.637 26.1136 685.884 26.6023C686.134 27.0871 686.259 27.7045 686.259 28.4545V34H684.918V28.5455C684.918 27.8523 684.738 27.3163 684.378 26.9375C684.022 26.5549 683.527 26.3636 682.895 26.3636C682.455 26.3636 682.062 26.4564 681.713 26.642C681.368 26.8277 681.096 27.0985 680.895 27.4545C680.698 27.8106 680.599 28.2424 680.599 28.75ZM691.28 34.2045C690.727 34.2045 690.225 34.1004 689.774 33.892C689.323 33.6799 688.965 33.375 688.7 32.9773C688.435 32.5758 688.303 32.0909 688.303 31.5227C688.303 31.0227 688.401 30.6174 688.598 30.3068C688.795 29.9924 689.058 29.7462 689.388 29.5682C689.717 29.3902 690.081 29.2576 690.479 29.1705C690.88 29.0795 691.284 29.0076 691.689 28.9545C692.219 28.8864 692.649 28.8352 692.979 28.8011C693.312 28.7633 693.554 28.7008 693.706 28.6136C693.861 28.5265 693.939 28.375 693.939 28.1591V28.1136C693.939 27.553 693.786 27.1174 693.479 26.8068C693.176 26.4962 692.715 26.3409 692.098 26.3409C691.458 26.3409 690.956 26.4811 690.592 26.7614C690.229 27.0417 689.973 27.3409 689.825 27.6591L688.553 27.2045C688.78 26.6742 689.083 26.2614 689.462 25.9659C689.844 25.6667 690.261 25.4583 690.712 25.3409C691.166 25.2197 691.613 25.1591 692.053 25.1591C692.333 25.1591 692.655 25.1932 693.018 25.2614C693.386 25.3258 693.74 25.4602 694.081 25.6648C694.426 25.8693 694.712 26.178 694.939 26.5909C695.166 27.0038 695.28 27.5568 695.28 28.25V34H693.939V32.8182H693.871C693.78 33.0076 693.628 33.2102 693.416 33.4261C693.204 33.642 692.922 33.8258 692.57 33.9773C692.217 34.1288 691.787 34.2045 691.28 34.2045ZM691.484 33C692.015 33 692.462 32.8958 692.825 32.6875C693.193 32.4792 693.469 32.2102 693.655 31.8807C693.844 31.5511 693.939 31.2045 693.939 30.8409V29.6136C693.882 29.6818 693.757 29.7443 693.564 29.8011C693.375 29.8542 693.155 29.9015 692.905 29.9432C692.659 29.9811 692.418 30.0152 692.183 30.0455C691.952 30.072 691.765 30.0947 691.621 30.1136C691.272 30.1591 690.946 30.233 690.643 30.3352C690.344 30.4337 690.102 30.5833 689.916 30.7841C689.734 30.9811 689.643 31.25 689.643 31.5909C689.643 32.0568 689.816 32.4091 690.161 32.6477C690.509 32.8826 690.95 33 691.484 33ZM703.909 27.2273L702.705 27.5682C702.629 27.3674 702.517 27.1723 702.369 26.983C702.225 26.7898 702.028 26.6307 701.778 26.5057C701.528 26.3807 701.208 26.3182 700.818 26.3182C700.284 26.3182 699.839 26.4413 699.483 26.6875C699.131 26.9299 698.955 27.2386 698.955 27.6136C698.955 27.947 699.076 28.2102 699.318 28.4034C699.561 28.5966 699.939 28.7576 700.455 28.8864L701.75 29.2045C702.53 29.3939 703.112 29.6837 703.494 30.0739C703.877 30.4602 704.068 30.9583 704.068 31.5682C704.068 32.0682 703.924 32.5152 703.636 32.9091C703.352 33.303 702.955 33.6136 702.443 33.8409C701.932 34.0682 701.337 34.1818 700.659 34.1818C699.769 34.1818 699.032 33.9886 698.449 33.6023C697.866 33.2159 697.496 32.6515 697.341 31.9091L698.614 31.5909C698.735 32.0606 698.964 32.4129 699.301 32.6477C699.642 32.8826 700.087 33 700.636 33C701.261 33 701.758 32.8674 702.125 32.6023C702.496 32.3333 702.682 32.0114 702.682 31.6364C702.682 31.3333 702.576 31.0795 702.364 30.875C702.152 30.6667 701.826 30.5114 701.386 30.4091L699.932 30.0682C699.133 29.8788 698.545 29.5852 698.17 29.1875C697.799 28.786 697.614 28.2841 697.614 27.6818C697.614 27.1894 697.752 26.7538 698.028 26.375C698.309 25.9962 698.689 25.6989 699.17 25.483C699.655 25.267 700.205 25.1591 700.818 25.1591C701.682 25.1591 702.36 25.3485 702.852 25.7273C703.348 26.1061 703.701 26.6061 703.909 27.2273ZM713.155 34.2045C712.602 34.2045 712.1 34.1004 711.649 33.892C711.198 33.6799 710.84 33.375 710.575 32.9773C710.31 32.5758 710.178 32.0909 710.178 31.5227C710.178 31.0227 710.276 30.6174 710.473 30.3068C710.67 29.9924 710.933 29.7462 711.263 29.5682C711.592 29.3902 711.956 29.2576 712.354 29.1705C712.755 29.0795 713.159 29.0076 713.564 28.9545C714.094 28.8864 714.524 28.8352 714.854 28.8011C715.187 28.7633 715.429 28.7008 715.581 28.6136C715.736 28.5265 715.814 28.375 715.814 28.1591V28.1136C715.814 27.553 715.661 27.1174 715.354 26.8068C715.051 26.4962 714.59 26.3409 713.973 26.3409C713.333 26.3409 712.831 26.4811 712.467 26.7614C712.104 27.0417 711.848 27.3409 711.7 27.6591L710.428 27.2045C710.655 26.6742 710.958 26.2614 711.337 25.9659C711.719 25.6667 712.136 25.4583 712.587 25.3409C713.041 25.2197 713.488 25.1591 713.928 25.1591C714.208 25.1591 714.53 25.1932 714.893 25.2614C715.261 25.3258 715.615 25.4602 715.956 25.6648C716.301 25.8693 716.587 26.178 716.814 26.5909C717.041 27.0038 717.155 27.5568 717.155 28.25V34H715.814V32.8182H715.746C715.655 33.0076 715.503 33.2102 715.291 33.4261C715.079 33.642 714.797 33.8258 714.445 33.9773C714.092 34.1288 713.662 34.2045 713.155 34.2045ZM713.359 33C713.89 33 714.337 32.8958 714.7 32.6875C715.068 32.4792 715.344 32.2102 715.53 31.8807C715.719 31.5511 715.814 31.2045 715.814 30.8409V29.6136C715.757 29.6818 715.632 29.7443 715.439 29.8011C715.25 29.8542 715.03 29.9015 714.78 29.9432C714.534 29.9811 714.293 30.0152 714.058 30.0455C713.827 30.072 713.64 30.0947 713.496 30.1136C713.147 30.1591 712.821 30.233 712.518 30.3352C712.219 30.4337 711.977 30.5833 711.791 30.7841C711.609 30.9811 711.518 31.25 711.518 31.5909C711.518 32.0568 711.691 32.4091 712.036 32.6477C712.384 32.8826 712.825 33 713.359 33ZM720.943 28.75V34H719.602V25.2727H720.898V26.6364H721.011C721.216 26.1932 721.527 25.8371 721.943 25.5682C722.36 25.2955 722.898 25.1591 723.557 25.1591C724.148 25.1591 724.665 25.2803 725.108 25.5227C725.551 25.7614 725.896 26.125 726.142 26.6136C726.388 27.0985 726.511 27.7121 726.511 28.4545V34H725.17V28.5455C725.17 27.8598 724.992 27.3258 724.636 26.9432C724.28 26.5568 723.792 26.3636 723.17 26.3636C722.742 26.3636 722.36 26.4564 722.023 26.642C721.689 26.8277 721.426 27.0985 721.233 27.4545C721.04 27.8106 720.943 28.2424 720.943 28.75ZM736.03 34.2045C735.477 34.2045 734.975 34.1004 734.524 33.892C734.073 33.6799 733.715 33.375 733.45 32.9773C733.185 32.5758 733.053 32.0909 733.053 31.5227C733.053 31.0227 733.151 30.6174 733.348 30.3068C733.545 29.9924 733.808 29.7462 734.138 29.5682C734.467 29.3902 734.831 29.2576 735.229 29.1705C735.63 29.0795 736.034 29.0076 736.439 28.9545C736.969 28.8864 737.399 28.8352 737.729 28.8011C738.062 28.7633 738.304 28.7008 738.456 28.6136C738.611 28.5265 738.689 28.375 738.689 28.1591V28.1136C738.689 27.553 738.536 27.1174 738.229 26.8068C737.926 26.4962 737.465 26.3409 736.848 26.3409C736.208 26.3409 735.706 26.4811 735.342 26.7614C734.979 27.0417 734.723 27.3409 734.575 27.6591L733.303 27.2045C733.53 26.6742 733.833 26.2614 734.212 25.9659C734.594 25.6667 735.011 25.4583 735.462 25.3409C735.916 25.2197 736.363 25.1591 736.803 25.1591C737.083 25.1591 737.405 25.1932 737.768 25.2614C738.136 25.3258 738.49 25.4602 738.831 25.6648C739.176 25.8693 739.462 26.178 739.689 26.5909C739.916 27.0038 740.03 27.5568 740.03 28.25V34H738.689V32.8182H738.621C738.53 33.0076 738.378 33.2102 738.166 33.4261C737.954 33.642 737.672 33.8258 737.32 33.9773C736.967 34.1288 736.537 34.2045 736.03 34.2045ZM736.234 33C736.765 33 737.212 32.8958 737.575 32.6875C737.943 32.4792 738.219 32.2102 738.405 31.8807C738.594 31.5511 738.689 31.2045 738.689 30.8409V29.6136C738.632 29.6818 738.507 29.7443 738.314 29.8011C738.125 29.8542 737.905 29.9015 737.655 29.9432C737.409 29.9811 737.168 30.0152 736.933 30.0455C736.702 30.072 736.515 30.0947 736.371 30.1136C736.022 30.1591 735.696 30.233 735.393 30.3352C735.094 30.4337 734.852 30.5833 734.666 30.7841C734.484 30.9811 734.393 31.25 734.393 31.5909C734.393 32.0568 734.566 32.4091 734.911 32.6477C735.259 32.8826 735.7 33 736.234 33ZM748.659 27.2273L747.455 27.5682C747.379 27.3674 747.267 27.1723 747.119 26.983C746.975 26.7898 746.778 26.6307 746.528 26.5057C746.278 26.3807 745.958 26.3182 745.568 26.3182C745.034 26.3182 744.589 26.4413 744.233 26.6875C743.881 26.9299 743.705 27.2386 743.705 27.6136C743.705 27.947 743.826 28.2102 744.068 28.4034C744.311 28.5966 744.689 28.7576 745.205 28.8864L746.5 29.2045C747.28 29.3939 747.862 29.6837 748.244 30.0739C748.627 30.4602 748.818 30.9583 748.818 31.5682C748.818 32.0682 748.674 32.5152 748.386 32.9091C748.102 33.303 747.705 33.6136 747.193 33.8409C746.682 34.0682 746.087 34.1818 745.409 34.1818C744.519 34.1818 743.782 33.9886 743.199 33.6023C742.616 33.2159 742.246 32.6515 742.091 31.9091L743.364 31.5909C743.485 32.0606 743.714 32.4129 744.051 32.6477C744.392 32.8826 744.837 33 745.386 33C746.011 33 746.508 32.8674 746.875 32.6023C747.246 32.3333 747.432 32.0114 747.432 31.6364C747.432 31.3333 747.326 31.0795 747.114 30.875C746.902 30.6667 746.576 30.5114 746.136 30.4091L744.682 30.0682C743.883 29.8788 743.295 29.5852 742.92 29.1875C742.549 28.786 742.364 28.2841 742.364 27.6818C742.364 27.1894 742.502 26.7538 742.778 26.375C743.059 25.9962 743.439 25.6989 743.92 25.483C744.405 25.267 744.955 25.1591 745.568 25.1591C746.432 25.1591 747.11 25.3485 747.602 25.7273C748.098 26.1061 748.451 26.6061 748.659 27.2273ZM757.018 27.2273L755.814 27.5682C755.738 27.3674 755.626 27.1723 755.479 26.983C755.335 26.7898 755.138 26.6307 754.888 26.5057C754.638 26.3807 754.318 26.3182 753.928 26.3182C753.393 26.3182 752.948 26.4413 752.592 26.6875C752.24 26.9299 752.064 27.2386 752.064 27.6136C752.064 27.947 752.185 28.2102 752.428 28.4034C752.67 28.5966 753.049 28.7576 753.564 28.8864L754.859 29.2045C755.64 29.3939 756.221 29.6837 756.604 30.0739C756.986 30.4602 757.178 30.9583 757.178 31.5682C757.178 32.0682 757.034 32.5152 756.746 32.9091C756.462 33.303 756.064 33.6136 755.553 33.8409C755.041 34.0682 754.446 34.1818 753.768 34.1818C752.878 34.1818 752.142 33.9886 751.558 33.6023C750.975 33.2159 750.606 32.6515 750.45 31.9091L751.723 31.5909C751.844 32.0606 752.073 32.4129 752.411 32.6477C752.751 32.8826 753.196 33 753.746 33C754.371 33 754.867 32.8674 755.234 32.6023C755.606 32.3333 755.791 32.0114 755.791 31.6364C755.791 31.3333 755.685 31.0795 755.473 30.875C755.261 30.6667 754.935 30.5114 754.496 30.4091L753.041 30.0682C752.242 29.8788 751.655 29.5852 751.28 29.1875C750.909 28.786 750.723 28.2841 750.723 27.6818C750.723 27.1894 750.861 26.7538 751.138 26.375C751.418 25.9962 751.799 25.6989 752.28 25.483C752.765 25.267 753.314 25.1591 753.928 25.1591C754.791 25.1591 755.469 25.3485 755.962 25.7273C756.458 26.1061 756.81 26.6061 757.018 27.2273ZM762.741 34.1818C761.954 34.1818 761.262 33.9943 760.668 33.6193C760.077 33.2443 759.615 32.7197 759.281 32.0455C758.952 31.3712 758.787 30.5833 758.787 29.6818C758.787 28.7727 758.952 27.9792 759.281 27.3011C759.615 26.6231 760.077 26.0966 760.668 25.7216C761.262 25.3466 761.954 25.1591 762.741 25.1591C763.529 25.1591 764.219 25.3466 764.81 25.7216C765.404 26.0966 765.866 26.6231 766.196 27.3011C766.529 27.9792 766.696 28.7727 766.696 29.6818C766.696 30.5833 766.529 31.3712 766.196 32.0455C765.866 32.7197 765.404 33.2443 764.81 33.6193C764.219 33.9943 763.529 34.1818 762.741 34.1818ZM762.741 32.9773C763.34 32.9773 763.832 32.8239 764.219 32.517C764.605 32.2102 764.891 31.8068 765.077 31.3068C765.262 30.8068 765.355 30.2652 765.355 29.6818C765.355 29.0985 765.262 28.5549 765.077 28.0511C764.891 27.5473 764.605 27.1402 764.219 26.8295C763.832 26.5189 763.34 26.3636 762.741 26.3636C762.143 26.3636 761.651 26.5189 761.264 26.8295C760.878 27.1402 760.592 27.5473 760.406 28.0511C760.221 28.5549 760.128 29.0985 760.128 29.6818C760.128 30.2652 760.221 30.8068 760.406 31.3068C760.592 31.8068 760.878 32.2102 761.264 32.517C761.651 32.8239 762.143 32.9773 762.741 32.9773ZM772.288 34.1818C771.47 34.1818 770.766 33.9886 770.175 33.6023C769.584 33.2159 769.129 32.6837 768.811 32.0057C768.493 31.3277 768.334 30.553 768.334 29.6818C768.334 28.7955 768.497 28.0133 768.822 27.3352C769.152 26.6534 769.61 26.1212 770.197 25.7386C770.788 25.3523 771.478 25.1591 772.266 25.1591C772.879 25.1591 773.432 25.2727 773.925 25.5C774.417 25.7273 774.821 26.0455 775.135 26.4545C775.449 26.8636 775.644 27.3409 775.72 27.8864H774.379C774.277 27.4886 774.05 27.1364 773.697 26.8295C773.349 26.5189 772.879 26.3636 772.288 26.3636C771.766 26.3636 771.307 26.5 770.913 26.7727C770.523 27.0417 770.218 27.4223 769.999 27.9148C769.783 28.4034 769.675 28.9773 769.675 29.6364C769.675 30.3106 769.781 30.8977 769.993 31.3977C770.209 31.8977 770.512 32.286 770.902 32.5625C771.296 32.839 771.758 32.9773 772.288 32.9773C772.637 32.9773 772.953 32.9167 773.237 32.7955C773.521 32.6742 773.762 32.5 773.959 32.2727C774.156 32.0455 774.296 31.7727 774.379 31.4545H775.72C775.644 31.9697 775.457 32.4337 775.158 32.8466C774.862 33.2557 774.47 33.5814 773.982 33.8239C773.497 34.0625 772.932 34.1818 772.288 34.1818ZM777.68 34V25.2727H779.021V34H777.68ZM778.362 23.8182C778.101 23.8182 777.875 23.7292 777.686 23.5511C777.5 23.3731 777.408 23.1591 777.408 22.9091C777.408 22.6591 777.5 22.4451 777.686 22.267C777.875 22.089 778.101 22 778.362 22C778.624 22 778.847 22.089 779.033 22.267C779.222 22.4451 779.317 22.6591 779.317 22.9091C779.317 23.1591 779.222 23.3731 779.033 23.5511C778.847 23.7292 778.624 23.8182 778.362 23.8182ZM784.045 34.2045C783.492 34.2045 782.991 34.1004 782.54 33.892C782.089 33.6799 781.731 33.375 781.466 32.9773C781.201 32.5758 781.068 32.0909 781.068 31.5227C781.068 31.0227 781.167 30.6174 781.364 30.3068C781.561 29.9924 781.824 29.7462 782.153 29.5682C782.483 29.3902 782.847 29.2576 783.244 29.1705C783.646 29.0795 784.049 29.0076 784.455 28.9545C784.985 28.8864 785.415 28.8352 785.744 28.8011C786.078 28.7633 786.32 28.7008 786.472 28.6136C786.627 28.5265 786.705 28.375 786.705 28.1591V28.1136C786.705 27.553 786.551 27.1174 786.244 26.8068C785.941 26.4962 785.481 26.3409 784.864 26.3409C784.223 26.3409 783.722 26.4811 783.358 26.7614C782.994 27.0417 782.739 27.3409 782.591 27.6591L781.318 27.2045C781.545 26.6742 781.848 26.2614 782.227 25.9659C782.61 25.6667 783.027 25.4583 783.477 25.3409C783.932 25.2197 784.379 25.1591 784.818 25.1591C785.098 25.1591 785.42 25.1932 785.784 25.2614C786.152 25.3258 786.506 25.4602 786.847 25.6648C787.191 25.8693 787.477 26.178 787.705 26.5909C787.932 27.0038 788.045 27.5568 788.045 28.25V34H786.705V32.8182H786.636C786.545 33.0076 786.394 33.2102 786.182 33.4261C785.97 33.642 785.688 33.8258 785.335 33.9773C784.983 34.1288 784.553 34.2045 784.045 34.2045ZM784.25 33C784.78 33 785.227 32.8958 785.591 32.6875C785.958 32.4792 786.235 32.2102 786.42 31.8807C786.61 31.5511 786.705 31.2045 786.705 30.8409V29.6136C786.648 29.6818 786.523 29.7443 786.33 29.8011C786.14 29.8542 785.92 29.9015 785.67 29.9432C785.424 29.9811 785.184 30.0152 784.949 30.0455C784.718 30.072 784.53 30.0947 784.386 30.1136C784.038 30.1591 783.712 30.233 783.409 30.3352C783.11 30.4337 782.867 30.5833 782.682 30.7841C782.5 30.9811 782.409 31.25 782.409 31.5909C782.409 32.0568 782.581 32.4091 782.926 32.6477C783.275 32.8826 783.716 33 784.25 33ZM794.288 25.2727V26.4091H789.766V25.2727H794.288ZM791.084 23.1818H792.425V31.5C792.425 31.8788 792.48 32.1629 792.589 32.3523C792.703 32.5379 792.847 32.6629 793.021 32.7273C793.199 32.7879 793.387 32.8182 793.584 32.8182C793.732 32.8182 793.853 32.8106 793.947 32.7955C794.042 32.7765 794.118 32.7614 794.175 32.75L794.447 33.9545C794.357 33.9886 794.23 34.0227 794.067 34.0568C793.904 34.0947 793.697 34.1136 793.447 34.1136C793.069 34.1136 792.697 34.0322 792.334 33.8693C791.974 33.7064 791.675 33.4583 791.436 33.125C791.201 32.7917 791.084 32.3712 791.084 31.8636V23.1818ZM799.871 34.1818C799.03 34.1818 798.304 33.9962 797.695 33.625C797.089 33.25 796.621 32.7273 796.291 32.0568C795.965 31.3826 795.803 30.5985 795.803 29.7045C795.803 28.8106 795.965 28.0227 796.291 27.3409C796.621 26.6553 797.079 26.1212 797.666 25.7386C798.257 25.3523 798.946 25.1591 799.734 25.1591C800.189 25.1591 800.638 25.2348 801.081 25.3864C801.524 25.5379 801.928 25.7841 802.291 26.125C802.655 26.4621 802.945 26.9091 803.161 27.4659C803.376 28.0227 803.484 28.7083 803.484 29.5227V30.0909H796.757V28.9318H802.121C802.121 28.4394 802.022 28 801.825 27.6136C801.632 27.2273 801.356 26.9223 800.996 26.6989C800.64 26.4754 800.219 26.3636 799.734 26.3636C799.2 26.3636 798.738 26.4962 798.348 26.7614C797.962 27.0227 797.664 27.3636 797.456 27.7841C797.248 28.2045 797.143 28.6553 797.143 29.1364V29.9091C797.143 30.5682 797.257 31.1269 797.484 31.5852C797.715 32.0398 798.036 32.3864 798.445 32.625C798.854 32.8598 799.329 32.9773 799.871 32.9773C800.223 32.9773 800.541 32.928 800.825 32.8295C801.113 32.7273 801.361 32.5758 801.57 32.375C801.778 32.1705 801.939 31.9167 802.053 31.6136L803.348 31.9773C803.212 32.4167 802.982 32.803 802.661 33.1364C802.339 33.4659 801.941 33.7235 801.467 33.9091C800.994 34.0909 800.462 34.1818 799.871 34.1818ZM808.82 34.1818C808.092 34.1818 807.45 33.9981 806.893 33.6307C806.337 33.2595 805.901 32.7367 805.587 32.0625C805.272 31.3845 805.115 30.5833 805.115 29.6591C805.115 28.7424 805.272 27.947 805.587 27.2727C805.901 26.5985 806.339 26.0777 806.899 25.7102C807.46 25.3428 808.107 25.1591 808.842 25.1591C809.411 25.1591 809.859 25.2538 810.189 25.4432C810.522 25.6288 810.776 25.8409 810.95 26.0795C811.128 26.3144 811.267 26.5076 811.365 26.6591H811.479V22.3636H812.82V34H811.524V32.6591H811.365C811.267 32.8182 811.126 33.0189 810.945 33.2614C810.763 33.5 810.503 33.714 810.166 33.9034C809.829 34.089 809.38 34.1818 808.82 34.1818ZM809.001 32.9773C809.539 32.9773 809.994 32.8371 810.365 32.5568C810.736 32.2727 811.018 31.8807 811.212 31.3807C811.405 30.8769 811.501 30.2955 811.501 29.6364C811.501 28.9848 811.407 28.4148 811.217 27.9261C811.028 27.4337 810.748 27.0511 810.376 26.7784C810.005 26.5019 809.547 26.3636 809.001 26.3636C808.433 26.3636 807.96 26.5095 807.581 26.8011C807.206 27.089 806.924 27.4811 806.734 27.9773C806.549 28.4697 806.456 29.0227 806.456 29.6364C806.456 30.2576 806.551 30.822 806.74 31.3295C806.933 31.8333 807.217 32.2348 807.592 32.5341C807.971 32.8295 808.441 32.9773 809.001 32.9773ZM819.962 37.2727V25.2727H821.257V26.6591H821.416C821.515 26.5076 821.651 26.3144 821.825 26.0795C822.003 25.8409 822.257 25.6288 822.587 25.4432C822.92 25.2538 823.371 25.1591 823.939 25.1591C824.674 25.1591 825.321 25.3428 825.882 25.7102C826.443 26.0777 826.88 26.5985 827.195 27.2727C827.509 27.947 827.666 28.7424 827.666 29.6591C827.666 30.5833 827.509 31.3845 827.195 32.0625C826.88 32.7367 826.445 33.2595 825.888 33.6307C825.331 33.9981 824.689 34.1818 823.962 34.1818C823.401 34.1818 822.952 34.089 822.615 33.9034C822.278 33.714 822.018 33.5 821.837 33.2614C821.655 33.0189 821.515 32.8182 821.416 32.6591H821.303V37.2727H819.962ZM821.28 29.6364C821.28 30.2955 821.376 30.8769 821.57 31.3807C821.763 31.8807 822.045 32.2727 822.416 32.5568C822.787 32.8371 823.242 32.9773 823.78 32.9773C824.34 32.9773 824.808 32.8295 825.183 32.5341C825.562 32.2348 825.846 31.8333 826.036 31.3295C826.229 30.822 826.325 30.2576 826.325 29.6364C826.325 29.0227 826.231 28.4697 826.041 27.9773C825.856 27.4811 825.573 27.089 825.195 26.8011C824.82 26.5095 824.348 26.3636 823.78 26.3636C823.234 26.3636 822.776 26.5019 822.405 26.7784C822.034 27.0511 821.753 27.4337 821.564 27.9261C821.375 28.4148 821.28 28.9848 821.28 29.6364ZM833.257 34.1818C832.469 34.1818 831.778 33.9943 831.183 33.6193C830.592 33.2443 830.13 32.7197 829.797 32.0455C829.467 31.3712 829.303 30.5833 829.303 29.6818C829.303 28.7727 829.467 27.9792 829.797 27.3011C830.13 26.6231 830.592 26.0966 831.183 25.7216C831.778 25.3466 832.469 25.1591 833.257 25.1591C834.045 25.1591 834.734 25.3466 835.325 25.7216C835.92 26.0966 836.382 26.6231 836.712 27.3011C837.045 27.9792 837.212 28.7727 837.212 29.6818C837.212 30.5833 837.045 31.3712 836.712 32.0455C836.382 32.7197 835.92 33.2443 835.325 33.6193C834.734 33.9943 834.045 34.1818 833.257 34.1818ZM833.257 32.9773C833.856 32.9773 834.348 32.8239 834.734 32.517C835.121 32.2102 835.407 31.8068 835.592 31.3068C835.778 30.8068 835.871 30.2652 835.871 29.6818C835.871 29.0985 835.778 28.5549 835.592 28.0511C835.407 27.5473 835.121 27.1402 834.734 26.8295C834.348 26.5189 833.856 26.3636 833.257 26.3636C832.659 26.3636 832.166 26.5189 831.78 26.8295C831.393 27.1402 831.107 27.5473 830.922 28.0511C830.736 28.5549 830.643 29.0985 830.643 29.6818C830.643 30.2652 830.736 30.8068 830.922 31.3068C831.107 31.8068 831.393 32.2102 831.78 32.517C832.166 32.8239 832.659 32.9773 833.257 32.9773ZM839.259 37.2727V25.2727H840.554V26.6591H840.713C840.812 26.5076 840.948 26.3144 841.122 26.0795C841.3 25.8409 841.554 25.6288 841.884 25.4432C842.217 25.2538 842.668 25.1591 843.236 25.1591C843.971 25.1591 844.618 25.3428 845.179 25.7102C845.74 26.0777 846.177 26.5985 846.491 27.2727C846.806 27.947 846.963 28.7424 846.963 29.6591C846.963 30.5833 846.806 31.3845 846.491 32.0625C846.177 32.7367 845.741 33.2595 845.185 33.6307C844.628 33.9981 843.986 34.1818 843.259 34.1818C842.698 34.1818 842.249 34.089 841.912 33.9034C841.575 33.714 841.315 33.5 841.134 33.2614C840.952 33.0189 840.812 32.8182 840.713 32.6591H840.599V37.2727H839.259ZM840.577 29.6364C840.577 30.2955 840.673 30.8769 840.866 31.3807C841.06 31.8807 841.342 32.2727 841.713 32.5568C842.084 32.8371 842.539 32.9773 843.077 32.9773C843.637 32.9773 844.105 32.8295 844.48 32.5341C844.859 32.2348 845.143 31.8333 845.332 31.3295C845.526 30.822 845.622 30.2576 845.622 29.6364C845.622 29.0227 845.527 28.4697 845.338 27.9773C845.152 27.4811 844.87 27.089 844.491 26.8011C844.116 26.5095 843.645 26.3636 843.077 26.3636C842.531 26.3636 842.073 26.5019 841.702 26.7784C841.33 27.0511 841.05 27.4337 840.861 27.9261C840.671 28.4148 840.577 28.9848 840.577 29.6364ZM854.509 30.4318V25.2727H855.849V34H854.509V32.5227H854.418C854.213 32.9659 853.895 33.3428 853.463 33.6534C853.031 33.9602 852.486 34.1136 851.827 34.1136C851.281 34.1136 850.796 33.9943 850.372 33.7557C849.948 33.5133 849.615 33.1496 849.372 32.6648C849.13 32.1761 849.009 31.5606 849.009 30.8182V25.2727H850.349V30.7273C850.349 31.3636 850.527 31.8712 850.884 32.25C851.243 32.6288 851.702 32.8182 852.259 32.8182C852.592 32.8182 852.931 32.733 853.276 32.5625C853.624 32.392 853.916 32.1307 854.151 31.7784C854.389 31.4261 854.509 30.9773 854.509 30.4318ZM858.305 37.2727V25.2727H859.601V26.6591H859.76C859.858 26.5076 859.995 26.3144 860.169 26.0795C860.347 25.8409 860.601 25.6288 860.93 25.4432C861.264 25.2538 861.714 25.1591 862.283 25.1591C863.018 25.1591 863.665 25.3428 864.226 25.7102C864.786 26.0777 865.224 26.5985 865.538 27.2727C865.853 27.947 866.01 28.7424 866.01 29.6591C866.01 30.5833 865.853 31.3845 865.538 32.0625C865.224 32.7367 864.788 33.2595 864.232 33.6307C863.675 33.9981 863.033 34.1818 862.305 34.1818C861.745 34.1818 861.296 34.089 860.959 33.9034C860.622 33.714 860.362 33.5 860.18 33.2614C859.999 33.0189 859.858 32.8182 859.76 32.6591H859.646V37.2727H858.305ZM859.624 29.6364C859.624 30.2955 859.72 30.8769 859.913 31.3807C860.107 31.8807 860.389 32.2727 860.76 32.5568C861.131 32.8371 861.586 32.9773 862.124 32.9773C862.684 32.9773 863.152 32.8295 863.527 32.5341C863.906 32.2348 864.19 31.8333 864.379 31.3295C864.572 30.822 864.669 30.2576 864.669 29.6364C864.669 29.0227 864.574 28.4697 864.385 27.9773C864.199 27.4811 863.917 27.089 863.538 26.8011C863.163 26.5095 862.692 26.3636 862.124 26.3636C861.578 26.3636 861.12 26.5019 860.749 26.7784C860.377 27.0511 860.097 27.4337 859.908 27.9261C859.718 28.4148 859.624 28.9848 859.624 29.6364ZM872.555 34V25.2727H873.851V26.6364H873.964C874.146 26.1705 874.44 25.8087 874.845 25.5511C875.25 25.2898 875.737 25.1591 876.305 25.1591C876.881 25.1591 877.36 25.2898 877.743 25.5511C878.129 25.8087 878.43 26.1705 878.646 26.6364H878.737C878.961 26.1856 879.296 25.8277 879.743 25.5625C880.19 25.2936 880.726 25.1591 881.351 25.1591C882.131 25.1591 882.769 25.4034 883.266 25.892C883.762 26.3769 884.01 27.1326 884.01 28.1591V34H882.669V28.1591C882.669 27.5152 882.493 27.0549 882.141 26.7784C881.788 26.5019 881.374 26.3636 880.896 26.3636C880.283 26.3636 879.807 26.5492 879.47 26.9205C879.133 27.2879 878.964 27.7538 878.964 28.3182V34H877.601V28.0227C877.601 27.5265 877.44 27.1269 877.118 26.8239C876.796 26.517 876.381 26.3636 875.874 26.3636C875.525 26.3636 875.199 26.4564 874.896 26.642C874.597 26.8277 874.355 27.0852 874.169 27.4148C873.987 27.7405 873.896 28.1174 873.896 28.5455V34H872.555ZM890.121 34.1818C889.28 34.1818 888.554 33.9962 887.945 33.625C887.339 33.25 886.871 32.7273 886.541 32.0568C886.215 31.3826 886.053 30.5985 886.053 29.7045C886.053 28.8106 886.215 28.0227 886.541 27.3409C886.871 26.6553 887.329 26.1212 887.916 25.7386C888.507 25.3523 889.196 25.1591 889.984 25.1591C890.439 25.1591 890.888 25.2348 891.331 25.3864C891.774 25.5379 892.178 25.7841 892.541 26.125C892.905 26.4621 893.195 26.9091 893.411 27.4659C893.626 28.0227 893.734 28.7083 893.734 29.5227V30.0909H887.007V28.9318H892.371C892.371 28.4394 892.272 28 892.075 27.6136C891.882 27.2273 891.606 26.9223 891.246 26.6989C890.89 26.4754 890.469 26.3636 889.984 26.3636C889.45 26.3636 888.988 26.4962 888.598 26.7614C888.212 27.0227 887.914 27.3636 887.706 27.7841C887.498 28.2045 887.393 28.6553 887.393 29.1364V29.9091C887.393 30.5682 887.507 31.1269 887.734 31.5852C887.965 32.0398 888.286 32.3864 888.695 32.625C889.104 32.8598 889.579 32.9773 890.121 32.9773C890.473 32.9773 890.791 32.928 891.075 32.8295C891.363 32.7273 891.611 32.5758 891.82 32.375C892.028 32.1705 892.189 31.9167 892.303 31.6136L893.598 31.9773C893.462 32.4167 893.232 32.803 892.911 33.1364C892.589 33.4659 892.191 33.7235 891.717 33.9091C891.244 34.0909 890.712 34.1818 890.121 34.1818ZM897.115 28.75V34H895.774V25.2727H897.07V26.6364H897.183C897.388 26.1932 897.698 25.8371 898.115 25.5682C898.532 25.2955 899.07 25.1591 899.729 25.1591C900.32 25.1591 900.837 25.2803 901.28 25.5227C901.723 25.7614 902.068 26.125 902.314 26.6136C902.56 27.0985 902.683 27.7121 902.683 28.4545V34H901.342V28.5455C901.342 27.8598 901.164 27.3258 900.808 26.9432C900.452 26.5568 899.964 26.3636 899.342 26.3636C898.914 26.3636 898.532 26.4564 898.195 26.642C897.861 26.8277 897.598 27.0985 897.405 27.4545C897.212 27.8106 897.115 28.2424 897.115 28.75ZM910.634 30.4318V25.2727H911.974V34H910.634V32.5227H910.543C910.338 32.9659 910.02 33.3428 909.588 33.6534C909.156 33.9602 908.611 34.1136 907.952 34.1136C907.406 34.1136 906.921 33.9943 906.497 33.7557C906.073 33.5133 905.74 33.1496 905.497 32.6648C905.255 32.1761 905.134 31.5606 905.134 30.8182V25.2727H906.474V30.7273C906.474 31.3636 906.652 31.8712 907.009 32.25C907.368 32.6288 907.827 32.8182 908.384 32.8182C908.717 32.8182 909.056 32.733 909.401 32.5625C909.749 32.392 910.041 32.1307 910.276 31.7784C910.514 31.4261 910.634 30.9773 910.634 30.4318ZM916.43 32.4091L916.339 33.0227C916.275 33.4545 916.177 33.9167 916.044 34.4091C915.915 34.9015 915.781 35.3655 915.641 35.8011C915.5 36.2367 915.385 36.5833 915.294 36.8409H914.271C914.321 36.5985 914.385 36.2784 914.464 35.8807C914.544 35.483 914.624 35.0379 914.703 34.5455C914.786 34.0568 914.855 33.5568 914.908 33.0455L914.976 32.4091H916.43ZM926.96 34.1818C926.172 34.1818 925.481 33.9943 924.886 33.6193C924.295 33.2443 923.833 32.7197 923.5 32.0455C923.17 31.3712 923.006 30.5833 923.006 29.6818C923.006 28.7727 923.17 27.9792 923.5 27.3011C923.833 26.6231 924.295 26.0966 924.886 25.7216C925.481 25.3466 926.172 25.1591 926.96 25.1591C927.748 25.1591 928.438 25.3466 929.028 25.7216C929.623 26.0966 930.085 26.6231 930.415 27.3011C930.748 27.9792 930.915 28.7727 930.915 29.6818C930.915 30.5833 930.748 31.3712 930.415 32.0455C930.085 32.7197 929.623 33.2443 929.028 33.6193C928.438 33.9943 927.748 34.1818 926.96 34.1818ZM926.96 32.9773C927.559 32.9773 928.051 32.8239 928.438 32.517C928.824 32.2102 929.11 31.8068 929.295 31.3068C929.481 30.8068 929.574 30.2652 929.574 29.6818C929.574 29.0985 929.481 28.5549 929.295 28.0511C929.11 27.5473 928.824 27.1402 928.438 26.8295C928.051 26.5189 927.559 26.3636 926.96 26.3636C926.362 26.3636 925.869 26.5189 925.483 26.8295C925.097 27.1402 924.811 27.5473 924.625 28.0511C924.439 28.5549 924.347 29.0985 924.347 29.6818C924.347 30.2652 924.439 30.8068 924.625 31.3068C924.811 31.8068 925.097 32.2102 925.483 32.517C925.869 32.8239 926.362 32.9773 926.96 32.9773ZM932.962 37.2727V25.2727H934.257V26.6591H934.416C934.515 26.5076 934.651 26.3144 934.825 26.0795C935.003 25.8409 935.257 25.6288 935.587 25.4432C935.92 25.2538 936.371 25.1591 936.939 25.1591C937.674 25.1591 938.321 25.3428 938.882 25.7102C939.443 26.0777 939.88 26.5985 940.195 27.2727C940.509 27.947 940.666 28.7424 940.666 29.6591C940.666 30.5833 940.509 31.3845 940.195 32.0625C939.88 32.7367 939.445 33.2595 938.888 33.6307C938.331 33.9981 937.689 34.1818 936.962 34.1818C936.401 34.1818 935.952 34.089 935.615 33.9034C935.278 33.714 935.018 33.5 934.837 33.2614C934.655 33.0189 934.515 32.8182 934.416 32.6591H934.303V37.2727H932.962ZM934.28 29.6364C934.28 30.2955 934.376 30.8769 934.57 31.3807C934.763 31.8807 935.045 32.2727 935.416 32.5568C935.787 32.8371 936.242 32.9773 936.78 32.9773C937.34 32.9773 937.808 32.8295 938.183 32.5341C938.562 32.2348 938.846 31.8333 939.036 31.3295C939.229 30.822 939.325 30.2576 939.325 29.6364C939.325 29.0227 939.231 28.4697 939.041 27.9773C938.856 27.4811 938.573 27.089 938.195 26.8011C937.82 26.5095 937.348 26.3636 936.78 26.3636C936.234 26.3636 935.776 26.5019 935.405 26.7784C935.034 27.0511 934.753 27.4337 934.564 27.9261C934.375 28.4148 934.28 28.9848 934.28 29.6364ZM946.371 34.1818C945.53 34.1818 944.804 33.9962 944.195 33.625C943.589 33.25 943.121 32.7273 942.791 32.0568C942.465 31.3826 942.303 30.5985 942.303 29.7045C942.303 28.8106 942.465 28.0227 942.791 27.3409C943.121 26.6553 943.579 26.1212 944.166 25.7386C944.757 25.3523 945.446 25.1591 946.234 25.1591C946.689 25.1591 947.138 25.2348 947.581 25.3864C948.024 25.5379 948.428 25.7841 948.791 26.125C949.155 26.4621 949.445 26.9091 949.661 27.4659C949.876 28.0227 949.984 28.7083 949.984 29.5227V30.0909H943.257V28.9318H948.621C948.621 28.4394 948.522 28 948.325 27.6136C948.132 27.2273 947.856 26.9223 947.496 26.6989C947.14 26.4754 946.719 26.3636 946.234 26.3636C945.7 26.3636 945.238 26.4962 944.848 26.7614C944.462 27.0227 944.164 27.3636 943.956 27.7841C943.748 28.2045 943.643 28.6553 943.643 29.1364V29.9091C943.643 30.5682 943.757 31.1269 943.984 31.5852C944.215 32.0398 944.536 32.3864 944.945 32.625C945.354 32.8598 945.829 32.9773 946.371 32.9773C946.723 32.9773 947.041 32.928 947.325 32.8295C947.613 32.7273 947.861 32.5758 948.07 32.375C948.278 32.1705 948.439 31.9167 948.553 31.6136L949.848 31.9773C949.712 32.4167 949.482 32.803 949.161 33.1364C948.839 33.4659 948.441 33.7235 947.967 33.9091C947.494 34.0909 946.962 34.1818 946.371 34.1818ZM953.365 28.75V34H952.024V25.2727H953.32V26.6364H953.433C953.638 26.1932 953.948 25.8371 954.365 25.5682C954.782 25.2955 955.32 25.1591 955.979 25.1591C956.57 25.1591 957.087 25.2803 957.53 25.5227C957.973 25.7614 958.318 26.125 958.564 26.6136C958.81 27.0985 958.933 27.7121 958.933 28.4545V34H957.592V28.5455C957.592 27.8598 957.414 27.3258 957.058 26.9432C956.702 26.5568 956.214 26.3636 955.592 26.3636C955.164 26.3636 954.782 26.4564 954.445 26.642C954.111 26.8277 953.848 27.0985 953.655 27.4545C953.462 27.8106 953.365 28.2424 953.365 28.75ZM967.565 27.2273L966.361 27.5682C966.285 27.3674 966.173 27.1723 966.026 26.983C965.882 26.7898 965.685 26.6307 965.435 26.5057C965.185 26.3807 964.865 26.3182 964.474 26.3182C963.94 26.3182 963.495 26.4413 963.139 26.6875C962.787 26.9299 962.611 27.2386 962.611 27.6136C962.611 27.947 962.732 28.2102 962.974 28.4034C963.217 28.5966 963.596 28.7576 964.111 28.8864L965.406 29.2045C966.187 29.3939 966.768 29.6837 967.151 30.0739C967.533 30.4602 967.724 30.9583 967.724 31.5682C967.724 32.0682 967.58 32.5152 967.293 32.9091C967.009 33.303 966.611 33.6136 966.099 33.8409C965.588 34.0682 964.993 34.1818 964.315 34.1818C963.425 34.1818 962.688 33.9886 962.105 33.6023C961.522 33.2159 961.152 32.6515 960.997 31.9091L962.27 31.5909C962.391 32.0606 962.62 32.4129 962.957 32.6477C963.298 32.8826 963.743 33 964.293 33C964.918 33 965.414 32.8674 965.781 32.6023C966.152 32.3333 966.338 32.0114 966.338 31.6364C966.338 31.3333 966.232 31.0795 966.02 30.875C965.808 30.6667 965.482 30.5114 965.043 30.4091L963.588 30.0682C962.789 29.8788 962.202 29.5852 961.827 29.1875C961.455 28.786 961.27 28.2841 961.27 27.6818C961.27 27.1894 961.408 26.7538 961.685 26.375C961.965 25.9962 962.346 25.6989 962.827 25.483C963.312 25.267 963.861 25.1591 964.474 25.1591C965.338 25.1591 966.016 25.3485 966.509 25.7273C967.005 26.1061 967.357 26.6061 967.565 27.2273ZM978.038 25.2727V26.4091H973.516V25.2727H978.038ZM974.834 23.1818H976.175V31.5C976.175 31.8788 976.23 32.1629 976.339 32.3523C976.453 32.5379 976.597 32.6629 976.771 32.7273C976.949 32.7879 977.137 32.8182 977.334 32.8182C977.482 32.8182 977.603 32.8106 977.697 32.7955C977.792 32.7765 977.868 32.7614 977.925 32.75L978.197 33.9545C978.107 33.9886 977.98 34.0227 977.817 34.0568C977.654 34.0947 977.447 34.1136 977.197 34.1136C976.819 34.1136 976.447 34.0322 976.084 33.8693C975.724 33.7064 975.425 33.4583 975.186 33.125C974.951 32.7917 974.834 32.3712 974.834 31.8636V23.1818ZM981.584 28.75V34H980.243V22.3636H981.584V26.6364H981.697C981.902 26.1856 982.209 25.8277 982.618 25.5625C983.031 25.2936 983.58 25.1591 984.266 25.1591C984.86 25.1591 985.381 25.2784 985.828 25.517C986.275 25.7519 986.622 26.1136 986.868 26.6023C987.118 27.0871 987.243 27.7045 987.243 28.4545V34H985.902V28.5455C985.902 27.8523 985.722 27.3163 985.362 26.9375C985.006 26.5549 984.512 26.3636 983.879 26.3636C983.44 26.3636 983.046 26.4564 982.697 26.642C982.353 26.8277 982.08 27.0985 981.879 27.4545C981.682 27.8106 981.584 28.2424 981.584 28.75ZM993.355 34.1818C992.514 34.1818 991.789 33.9962 991.179 33.625C990.573 33.25 990.105 32.7273 989.776 32.0568C989.45 31.3826 989.287 30.5985 989.287 29.7045C989.287 28.8106 989.45 28.0227 989.776 27.3409C990.105 26.6553 990.563 26.1212 991.151 25.7386C991.741 25.3523 992.431 25.1591 993.219 25.1591C993.673 25.1591 994.122 25.2348 994.565 25.3864C995.009 25.5379 995.412 25.7841 995.776 26.125C996.139 26.4621 996.429 26.9091 996.645 27.4659C996.861 28.0227 996.969 28.7083 996.969 29.5227V30.0909H990.241V28.9318H995.605C995.605 28.4394 995.507 28 995.31 27.6136C995.116 27.2273 994.84 26.9223 994.48 26.6989C994.124 26.4754 993.704 26.3636 993.219 26.3636C992.685 26.3636 992.223 26.4962 991.832 26.7614C991.446 27.0227 991.149 27.3636 990.94 27.7841C990.732 28.2045 990.628 28.6553 990.628 29.1364V29.9091C990.628 30.5682 990.741 31.1269 990.969 31.5852C991.2 32.0398 991.52 32.3864 991.929 32.625C992.338 32.8598 992.813 32.9773 993.355 32.9773C993.707 32.9773 994.026 32.928 994.31 32.8295C994.598 32.7273 994.846 32.5758 995.054 32.375C995.262 32.1705 995.423 31.9167 995.537 31.6136L996.832 31.9773C996.696 32.4167 996.467 32.803 996.145 33.1364C995.823 33.4659 995.425 33.7235 994.952 33.9091C994.478 34.0909 993.946 34.1818 993.355 34.1818ZM1003.51 34V25.2727H1004.8V26.6364H1004.92C1005.1 26.1705 1005.39 25.8087 1005.8 25.5511C1006.2 25.2898 1006.69 25.1591 1007.26 25.1591C1007.83 25.1591 1008.31 25.2898 1008.7 25.5511C1009.08 25.8087 1009.38 26.1705 1009.6 26.6364H1009.69C1009.91 26.1856 1010.25 25.8277 1010.7 25.5625C1011.14 25.2936 1011.68 25.1591 1012.3 25.1591C1013.08 25.1591 1013.72 25.4034 1014.22 25.892C1014.71 26.3769 1014.96 27.1326 1014.96 28.1591V34H1013.62V28.1591C1013.62 27.5152 1013.45 27.0549 1013.09 26.7784C1012.74 26.5019 1012.33 26.3636 1011.85 26.3636C1011.24 26.3636 1010.76 26.5492 1010.42 26.9205C1010.09 27.2879 1009.92 27.7538 1009.92 28.3182V34H1008.55V28.0227C1008.55 27.5265 1008.39 27.1269 1008.07 26.8239C1007.75 26.517 1007.33 26.3636 1006.83 26.3636C1006.48 26.3636 1006.15 26.4564 1005.85 26.642C1005.55 26.8277 1005.31 27.0852 1005.12 27.4148C1004.94 27.7405 1004.85 28.1174 1004.85 28.5455V34H1003.51ZM1021.07 34.1818C1020.23 34.1818 1019.51 33.9962 1018.9 33.625C1018.29 33.25 1017.82 32.7273 1017.49 32.0568C1017.17 31.3826 1017.01 30.5985 1017.01 29.7045C1017.01 28.8106 1017.17 28.0227 1017.49 27.3409C1017.82 26.6553 1018.28 26.1212 1018.87 25.7386C1019.46 25.3523 1020.15 25.1591 1020.94 25.1591C1021.39 25.1591 1021.84 25.2348 1022.28 25.3864C1022.73 25.5379 1023.13 25.7841 1023.49 26.125C1023.86 26.4621 1024.15 26.9091 1024.36 27.4659C1024.58 28.0227 1024.69 28.7083 1024.69 29.5227V30.0909H1017.96V28.9318H1023.32C1023.32 28.4394 1023.23 28 1023.03 27.6136C1022.84 27.2273 1022.56 26.9223 1022.2 26.6989C1021.84 26.4754 1021.42 26.3636 1020.94 26.3636C1020.4 26.3636 1019.94 26.4962 1019.55 26.7614C1019.16 27.0227 1018.87 27.3636 1018.66 27.7841C1018.45 28.2045 1018.35 28.6553 1018.35 29.1364V29.9091C1018.35 30.5682 1018.46 31.1269 1018.69 31.5852C1018.92 32.0398 1019.24 32.3864 1019.65 32.625C1020.06 32.8598 1020.53 32.9773 1021.07 32.9773C1021.43 32.9773 1021.74 32.928 1022.03 32.8295C1022.32 32.7273 1022.56 32.5758 1022.77 32.375C1022.98 32.1705 1023.14 31.9167 1023.26 31.6136L1024.55 31.9773C1024.41 32.4167 1024.19 32.803 1023.86 33.1364C1023.54 33.4659 1023.14 33.7235 1022.67 33.9091C1022.2 34.0909 1021.66 34.1818 1021.07 34.1818ZM1028.07 28.75V34H1026.73V25.2727H1028.02V26.6364H1028.14C1028.34 26.1932 1028.65 25.8371 1029.07 25.5682C1029.48 25.2955 1030.02 25.1591 1030.68 25.1591C1031.27 25.1591 1031.79 25.2803 1032.23 25.5227C1032.68 25.7614 1033.02 26.125 1033.27 26.6136C1033.51 27.0985 1033.64 27.7121 1033.64 28.4545V34H1032.3V28.5455C1032.3 27.8598 1032.12 27.3258 1031.76 26.9432C1031.41 26.5568 1030.92 26.3636 1030.3 26.3636C1029.87 26.3636 1029.48 26.4564 1029.15 26.642C1028.81 26.8277 1028.55 27.0985 1028.36 27.4545C1028.16 27.8106 1028.07 28.2424 1028.07 28.75ZM1041.59 30.4318V25.2727H1042.93V34H1041.59V32.5227H1041.5C1041.29 32.9659 1040.97 33.3428 1040.54 33.6534C1040.11 33.9602 1039.56 34.1136 1038.9 34.1136C1038.36 34.1136 1037.87 33.9943 1037.45 33.7557C1037.03 33.5133 1036.69 33.1496 1036.45 32.6648C1036.21 32.1761 1036.09 31.5606 1036.09 30.8182V25.2727H1037.43V30.7273C1037.43 31.3636 1037.61 31.8712 1037.96 32.25C1038.32 32.6288 1038.78 32.8182 1039.34 32.8182C1039.67 32.8182 1040.01 32.733 1040.35 32.5625C1040.7 32.392 1040.99 32.1307 1041.23 31.7784C1041.47 31.4261 1041.59 30.9773 1041.59 30.4318ZM1046.36 34.0909C1046.08 34.0909 1045.84 33.9905 1045.64 33.7898C1045.44 33.589 1045.34 33.3485 1045.34 33.0682C1045.34 32.7879 1045.44 32.5473 1045.64 32.3466C1045.84 32.1458 1046.08 32.0455 1046.36 32.0455C1046.64 32.0455 1046.88 32.1458 1047.08 32.3466C1047.28 32.5473 1047.38 32.7879 1047.38 33.0682C1047.38 33.2538 1047.34 33.4242 1047.24 33.5795C1047.15 33.7348 1047.03 33.8598 1046.87 33.9545C1046.72 34.0455 1046.55 34.0909 1046.36 34.0909Z" fill="white" fill-opacity="0.95"/>
</svg>
