<svg width="220" height="76" viewBox="0 0 220 76" fill="none" xmlns="http://www.w3.org/2000/svg">
<mask id="path-1-inside-1_2110_46797" fill="white">
<path d="M0 0H220V76H0V0Z"/>
</mask>
<path d="M0 0H220V76H0V0Z" fill="#1A1A1A"/>
<path d="M220 76V77H221V76H220ZM219 0V76H221V0H219ZM220 75H0V77H220V75Z" fill="#707070" mask="url(#path-1-inside-1_2110_46797)"/>
<path d="M32.8182 32.3636V44H31.4091V32.3636H32.8182ZM36.8026 38.75V44H35.4616V35.2727H36.7571V36.6364H36.8707C37.0753 36.1932 37.3859 35.8371 37.8026 35.5682C38.2192 35.2955 38.7571 35.1591 39.4162 35.1591C40.0071 35.1591 40.5241 35.2803 40.9673 35.5227C41.4105 35.7614 41.7552 36.125 42.0014 36.6136C42.2476 37.0985 42.3707 37.7121 42.3707 38.4545V44H41.0298V38.5455C41.0298 37.8598 40.8518 37.3258 40.4957 36.9432C40.1397 36.5568 39.651 36.3636 39.0298 36.3636C38.6018 36.3636 38.2192 36.4564 37.8821 36.642C37.5488 36.8277 37.2855 37.0985 37.0923 37.4545C36.8991 37.8106 36.8026 38.2424 36.8026 38.75ZM47.3892 44.2045C46.8362 44.2045 46.3343 44.1004 45.8835 43.892C45.4328 43.6799 45.0748 43.375 44.8097 42.9773C44.5445 42.5758 44.4119 42.0909 44.4119 41.5227C44.4119 41.0227 44.5104 40.6174 44.7074 40.3068C44.9044 39.9924 45.1676 39.7462 45.4972 39.5682C45.8267 39.3902 46.1903 39.2576 46.5881 39.1705C46.9896 39.0795 47.393 39.0076 47.7983 38.9545C48.3286 38.8864 48.7585 38.8352 49.0881 38.8011C49.4214 38.7633 49.6638 38.7008 49.8153 38.6136C49.9706 38.5265 50.0483 38.375 50.0483 38.1591V38.1136C50.0483 37.553 49.8949 37.1174 49.5881 36.8068C49.285 36.4962 48.8248 36.3409 48.2074 36.3409C47.5672 36.3409 47.0653 36.4811 46.7017 36.7614C46.3381 37.0417 46.0824 37.3409 45.9347 37.6591L44.6619 37.2045C44.8892 36.6742 45.1922 36.2614 45.571 35.9659C45.9536 35.6667 46.3703 35.4583 46.821 35.3409C47.2756 35.2197 47.7225 35.1591 48.1619 35.1591C48.4422 35.1591 48.7642 35.1932 49.1278 35.2614C49.4953 35.3258 49.8494 35.4602 50.1903 35.6648C50.535 35.8693 50.821 36.178 51.0483 36.5909C51.2756 37.0038 51.3892 37.5568 51.3892 38.25V44H50.0483V42.8182H49.9801C49.8892 43.0076 49.7377 43.2102 49.5256 43.4261C49.3134 43.642 49.0313 43.8258 48.679 43.9773C48.3267 44.1288 47.8968 44.2045 47.3892 44.2045ZM47.5938 43C48.1241 43 48.571 42.8958 48.9347 42.6875C49.3021 42.4792 49.5786 42.2102 49.7642 41.8807C49.9536 41.5511 50.0483 41.2045 50.0483 40.8409V39.6136C49.9915 39.6818 49.8665 39.7443 49.6733 39.8011C49.4839 39.8542 49.2642 39.9015 49.0142 39.9432C48.768 39.9811 48.5275 40.0152 48.2926 40.0455C48.0616 40.072 47.8741 40.0947 47.7301 40.1136C47.3816 40.1591 47.0559 40.233 46.7528 40.3352C46.4536 40.4337 46.2112 40.5833 46.0256 40.7841C45.8438 40.9811 45.7528 41.25 45.7528 41.5909C45.7528 42.0568 45.9252 42.4091 46.2699 42.6477C46.6184 42.8826 47.0597 43 47.5938 43ZM57.3821 44.1818C56.5639 44.1818 55.8594 43.9886 55.2685 43.6023C54.6776 43.2159 54.223 42.6837 53.9048 42.0057C53.5866 41.3277 53.4276 40.553 53.4276 39.6818C53.4276 38.7955 53.5904 38.0133 53.9162 37.3352C54.2457 36.6534 54.7041 36.1212 55.2912 35.7386C55.8821 35.3523 56.5715 35.1591 57.3594 35.1591C57.973 35.1591 58.526 35.2727 59.0185 35.5C59.5109 35.7273 59.9143 36.0455 60.2287 36.4545C60.5431 36.8636 60.7382 37.3409 60.8139 37.8864H59.473C59.3707 37.4886 59.1435 37.1364 58.7912 36.8295C58.4427 36.5189 57.973 36.3636 57.3821 36.3636C56.8594 36.3636 56.401 36.5 56.0071 36.7727C55.617 37.0417 55.312 37.4223 55.0923 37.9148C54.8764 38.4034 54.7685 38.9773 54.7685 39.6364C54.7685 40.3106 54.8745 40.8977 55.0866 41.3977C55.3026 41.8977 55.6056 42.286 55.9957 42.5625C56.3897 42.839 56.8518 42.9773 57.3821 42.9773C57.7306 42.9773 58.0469 42.9167 58.331 42.7955C58.6151 42.6742 58.8556 42.5 59.0526 42.2727C59.2495 42.0455 59.3897 41.7727 59.473 41.4545H60.8139C60.7382 41.9697 60.5507 42.4337 60.2514 42.8466C59.956 43.2557 59.5639 43.5814 59.0753 43.8239C58.5904 44.0625 58.026 44.1818 57.3821 44.1818ZM66.5696 35.2727V36.4091H62.0469V35.2727H66.5696ZM63.3651 33.1818H64.706V41.5C64.706 41.8788 64.7609 42.1629 64.8707 42.3523C64.9844 42.5379 65.1283 42.6629 65.3026 42.7273C65.4806 42.7879 65.6681 42.8182 65.8651 42.8182C66.0128 42.8182 66.134 42.8106 66.2287 42.7955C66.3234 42.7765 66.3991 42.7614 66.456 42.75L66.7287 43.9545C66.6378 43.9886 66.5109 44.0227 66.348 44.0568C66.1851 44.0947 65.9787 44.1136 65.7287 44.1136C65.3499 44.1136 64.9787 44.0322 64.6151 43.8693C64.2552 43.7064 63.956 43.4583 63.7173 43.125C63.4825 42.7917 63.3651 42.3712 63.3651 41.8636V33.1818ZM68.5866 44V35.2727H69.9276V44H68.5866ZM69.2685 33.8182C69.0071 33.8182 68.7817 33.7292 68.5923 33.5511C68.4067 33.3731 68.3139 33.1591 68.3139 32.9091C68.3139 32.6591 68.4067 32.4451 68.5923 32.267C68.7817 32.089 69.0071 32 69.2685 32C69.5298 32 69.7533 32.089 69.9389 32.267C70.1283 32.4451 70.223 32.6591 70.223 32.9091C70.223 33.1591 70.1283 33.3731 69.9389 33.5511C69.7533 33.7292 69.5298 33.8182 69.2685 33.8182ZM79.5199 35.2727L76.2926 44H74.929L71.7017 35.2727H73.1562L75.5653 42.2273H75.6562L78.0653 35.2727H79.5199ZM84.6364 44.1818C83.7955 44.1818 83.0701 43.9962 82.4602 43.625C81.8542 43.25 81.3864 42.7273 81.0568 42.0568C80.7311 41.3826 80.5682 40.5985 80.5682 39.7045C80.5682 38.8106 80.7311 38.0227 81.0568 37.3409C81.3864 36.6553 81.8447 36.1212 82.4318 35.7386C83.0227 35.3523 83.7121 35.1591 84.5 35.1591C84.9545 35.1591 85.4034 35.2348 85.8466 35.3864C86.2898 35.5379 86.6932 35.7841 87.0568 36.125C87.4205 36.4621 87.7102 36.9091 87.9261 37.4659C88.142 38.0227 88.25 38.7083 88.25 39.5227V40.0909H81.5227V38.9318H86.8864C86.8864 38.4394 86.7879 38 86.5909 37.6136C86.3977 37.2273 86.1212 36.9223 85.7614 36.6989C85.4053 36.4754 84.9848 36.3636 84.5 36.3636C83.9659 36.3636 83.5038 36.4962 83.1136 36.7614C82.7273 37.0227 82.4299 37.3636 82.2216 37.7841C82.0133 38.2045 81.9091 38.6553 81.9091 39.1364V39.9091C81.9091 40.5682 82.0227 41.1269 82.25 41.5852C82.4811 42.0398 82.8011 42.3864 83.2102 42.625C83.6193 42.8598 84.0947 42.9773 84.6364 42.9773C84.9886 42.9773 85.3068 42.928 85.5909 42.8295C85.8788 42.7273 86.1269 42.5758 86.3352 42.375C86.5436 42.1705 86.7045 41.9167 86.8182 41.6136L88.1136 41.9773C87.9773 42.4167 87.7481 42.803 87.4261 43.1364C87.1042 43.4659 86.7064 43.7235 86.233 43.9091C85.7595 44.0909 85.2273 44.1818 84.6364 44.1818Z" fill="white" fill-opacity="0.95"/>
</svg>
