<svg width="1300" height="56" viewBox="0 0 1300 56" fill="none" xmlns="http://www.w3.org/2000/svg">
<mask id="path-1-inside-1_2110_46538" fill="white">
<path d="M0 0H200V56H0V0Z"/>
</mask>
<path d="M0 0H200V56H0V0Z" fill="#1A1A1A"/>
<path d="M199 0V56H201V0H199Z" fill="#707070" mask="url(#path-1-inside-1_2110_46538)"/>
<path d="M31.4091 34V22.3636H38.3864V23.6136H32.8182V27.5455H37.8636V28.7955H32.8182V34H31.4091ZM43.5227 34.1818C42.7348 34.1818 42.0436 33.9943 41.4489 33.6193C40.858 33.2443 40.3958 32.7197 40.0625 32.0455C39.733 31.3712 39.5682 30.5833 39.5682 29.6818C39.5682 28.7727 39.733 27.9792 40.0625 27.3011C40.3958 26.6231 40.858 26.0966 41.4489 25.7216C42.0436 25.3466 42.7348 25.1591 43.5227 25.1591C44.3106 25.1591 45 25.3466 45.5909 25.7216C46.1856 26.0966 46.6477 26.6231 46.9773 27.3011C47.3106 27.9792 47.4773 28.7727 47.4773 29.6818C47.4773 30.5833 47.3106 31.3712 46.9773 32.0455C46.6477 32.7197 46.1856 33.2443 45.5909 33.6193C45 33.9943 44.3106 34.1818 43.5227 34.1818ZM43.5227 32.9773C44.1212 32.9773 44.6136 32.8239 45 32.517C45.3864 32.2102 45.6723 31.8068 45.858 31.3068C46.0436 30.8068 46.1364 30.2652 46.1364 29.6818C46.1364 29.0985 46.0436 28.5549 45.858 28.0511C45.6723 27.5473 45.3864 27.1402 45 26.8295C44.6136 26.5189 44.1212 26.3636 43.5227 26.3636C42.9242 26.3636 42.4318 26.5189 42.0455 26.8295C41.6591 27.1402 41.3731 27.5473 41.1875 28.0511C41.0019 28.5549 40.9091 29.0985 40.9091 29.6818C40.9091 30.2652 41.0019 30.8068 41.1875 31.3068C41.3731 31.8068 41.6591 32.2102 42.0455 32.517C42.4318 32.8239 42.9242 32.9773 43.5227 32.9773ZM53.0696 34.1818C52.2514 34.1818 51.5469 33.9886 50.956 33.6023C50.3651 33.2159 49.9105 32.6837 49.5923 32.0057C49.2741 31.3277 49.1151 30.553 49.1151 29.6818C49.1151 28.7955 49.2779 28.0133 49.6037 27.3352C49.9332 26.6534 50.3916 26.1212 50.9787 25.7386C51.5696 25.3523 52.259 25.1591 53.0469 25.1591C53.6605 25.1591 54.2135 25.2727 54.706 25.5C55.1984 25.7273 55.6018 26.0455 55.9162 26.4545C56.2306 26.8636 56.4257 27.3409 56.5014 27.8864H55.1605C55.0582 27.4886 54.831 27.1364 54.4787 26.8295C54.1302 26.5189 53.6605 26.3636 53.0696 26.3636C52.5469 26.3636 52.0885 26.5 51.6946 26.7727C51.3045 27.0417 50.9995 27.4223 50.7798 27.9148C50.5639 28.4034 50.456 28.9773 50.456 29.6364C50.456 30.3106 50.562 30.8977 50.7741 31.3977C50.9901 31.8977 51.2931 32.286 51.6832 32.5625C52.0772 32.839 52.5393 32.9773 53.0696 32.9773C53.4181 32.9773 53.7344 32.9167 54.0185 32.7955C54.3026 32.6742 54.5431 32.5 54.7401 32.2727C54.937 32.0455 55.0772 31.7727 55.1605 31.4545H56.5014C56.4257 31.9697 56.2382 32.4337 55.9389 32.8466C55.6435 33.2557 55.2514 33.5814 54.7628 33.8239C54.2779 34.0625 53.7135 34.1818 53.0696 34.1818ZM63.9616 30.4318V25.2727H65.3026V34H63.9616V32.5227H63.8707C63.6662 32.9659 63.348 33.3428 62.9162 33.6534C62.4844 33.9602 61.9389 34.1136 61.2798 34.1136C60.7344 34.1136 60.2495 33.9943 59.8253 33.7557C59.401 33.5133 59.0677 33.1496 58.8253 32.6648C58.5829 32.1761 58.4616 31.5606 58.4616 30.8182V25.2727H59.8026V30.7273C59.8026 31.3636 59.9806 31.8712 60.3366 32.25C60.6965 32.6288 61.1548 32.8182 61.7116 32.8182C62.045 32.8182 62.384 32.733 62.7287 32.5625C63.0772 32.392 63.3688 32.1307 63.6037 31.7784C63.8423 31.4261 63.9616 30.9773 63.9616 30.4318ZM73.9403 27.2273L72.7358 27.5682C72.66 27.3674 72.5483 27.1723 72.4006 26.983C72.2566 26.7898 72.0597 26.6307 71.8097 26.5057C71.5597 26.3807 71.2396 26.3182 70.8494 26.3182C70.3153 26.3182 69.8703 26.4413 69.5142 26.6875C69.1619 26.9299 68.9858 27.2386 68.9858 27.6136C68.9858 27.947 69.107 28.2102 69.3494 28.4034C69.5919 28.5966 69.9706 28.7576 70.4858 28.8864L71.7812 29.2045C72.5616 29.3939 73.143 29.6837 73.5256 30.0739C73.9081 30.4602 74.0994 30.9583 74.0994 31.5682C74.0994 32.0682 73.9555 32.5152 73.6676 32.9091C73.3835 33.303 72.9858 33.6136 72.4744 33.8409C71.9631 34.0682 71.3684 34.1818 70.6903 34.1818C69.8002 34.1818 69.0634 33.9886 68.4801 33.6023C67.8968 33.2159 67.5275 32.6515 67.3722 31.9091L68.6449 31.5909C68.7661 32.0606 68.9953 32.4129 69.3324 32.6477C69.6733 32.8826 70.1184 33 70.6676 33C71.2926 33 71.7888 32.8674 72.1562 32.6023C72.5275 32.3333 72.7131 32.0114 72.7131 31.6364C72.7131 31.3333 72.607 31.0795 72.3949 30.875C72.1828 30.6667 71.857 30.5114 71.4176 30.4091L69.9631 30.0682C69.1638 29.8788 68.5767 29.5852 68.2017 29.1875C67.8305 28.786 67.6449 28.2841 67.6449 27.6818C67.6449 27.1894 67.7831 26.7538 68.0597 26.375C68.34 25.9962 68.7206 25.6989 69.2017 25.483C69.6866 25.267 70.2358 25.1591 70.8494 25.1591C71.7131 25.1591 72.3911 25.3485 72.8835 25.7273C73.3797 26.1061 73.732 26.6061 73.9403 27.2273Z" fill="white" fill-opacity="0.95"/>
<mask id="path-4-inside-2_2110_46538" fill="white">
<path d="M200 0H500V56H200V0Z"/>
</mask>
<path d="M200 0H500V56H200V0Z" fill="#1A1A1A"/>
<path d="M500 56V57H501V56H500ZM499 0V56H501V0H499ZM500 55H200V57H500V55Z" fill="#707070" mask="url(#path-4-inside-2_2110_46538)"/>
<path d="M232.818 22.3636V34H231.409V22.3636H232.818ZM236.803 28.75V34H235.462V25.2727H236.757V26.6364H236.871C237.075 26.1932 237.386 25.8371 237.803 25.5682C238.219 25.2955 238.757 25.1591 239.416 25.1591C240.007 25.1591 240.524 25.2803 240.967 25.5227C241.411 25.7614 241.755 26.125 242.001 26.6136C242.248 27.0985 242.371 27.7121 242.371 28.4545V34H241.03V28.5455C241.03 27.8598 240.852 27.3258 240.496 26.9432C240.14 26.5568 239.651 26.3636 239.03 26.3636C238.602 26.3636 238.219 26.4564 237.882 26.642C237.549 26.8277 237.286 27.0985 237.092 27.4545C236.899 27.8106 236.803 28.2424 236.803 28.75ZM247.389 34.2045C246.836 34.2045 246.334 34.1004 245.884 33.892C245.433 33.6799 245.075 33.375 244.81 32.9773C244.545 32.5758 244.412 32.0909 244.412 31.5227C244.412 31.0227 244.51 30.6174 244.707 30.3068C244.904 29.9924 245.168 29.7462 245.497 29.5682C245.827 29.3902 246.19 29.2576 246.588 29.1705C246.99 29.0795 247.393 29.0076 247.798 28.9545C248.329 28.8864 248.759 28.8352 249.088 28.8011C249.421 28.7633 249.664 28.7008 249.815 28.6136C249.971 28.5265 250.048 28.375 250.048 28.1591V28.1136C250.048 27.553 249.895 27.1174 249.588 26.8068C249.285 26.4962 248.825 26.3409 248.207 26.3409C247.567 26.3409 247.065 26.4811 246.702 26.7614C246.338 27.0417 246.082 27.3409 245.935 27.6591L244.662 27.2045C244.889 26.6742 245.192 26.2614 245.571 25.9659C245.954 25.6667 246.37 25.4583 246.821 25.3409C247.276 25.2197 247.723 25.1591 248.162 25.1591C248.442 25.1591 248.764 25.1932 249.128 25.2614C249.495 25.3258 249.849 25.4602 250.19 25.6648C250.535 25.8693 250.821 26.178 251.048 26.5909C251.276 27.0038 251.389 27.5568 251.389 28.25V34H250.048V32.8182H249.98C249.889 33.0076 249.738 33.2102 249.526 33.4261C249.313 33.642 249.031 33.8258 248.679 33.9773C248.327 34.1288 247.897 34.2045 247.389 34.2045ZM247.594 33C248.124 33 248.571 32.8958 248.935 32.6875C249.302 32.4792 249.579 32.2102 249.764 31.8807C249.954 31.5511 250.048 31.2045 250.048 30.8409V29.6136C249.991 29.6818 249.866 29.7443 249.673 29.8011C249.484 29.8542 249.264 29.9015 249.014 29.9432C248.768 29.9811 248.527 30.0152 248.293 30.0455C248.062 30.072 247.874 30.0947 247.73 30.1136C247.382 30.1591 247.056 30.233 246.753 30.3352C246.454 30.4337 246.211 30.5833 246.026 30.7841C245.844 30.9811 245.753 31.25 245.753 31.5909C245.753 32.0568 245.925 32.4091 246.27 32.6477C246.618 32.8826 247.06 33 247.594 33ZM257.382 34.1818C256.564 34.1818 255.859 33.9886 255.268 33.6023C254.678 33.2159 254.223 32.6837 253.905 32.0057C253.587 31.3277 253.428 30.553 253.428 29.6818C253.428 28.7955 253.59 28.0133 253.916 27.3352C254.246 26.6534 254.704 26.1212 255.291 25.7386C255.882 25.3523 256.571 25.1591 257.359 25.1591C257.973 25.1591 258.526 25.2727 259.018 25.5C259.511 25.7273 259.914 26.0455 260.229 26.4545C260.543 26.8636 260.738 27.3409 260.814 27.8864H259.473C259.371 27.4886 259.143 27.1364 258.791 26.8295C258.443 26.5189 257.973 26.3636 257.382 26.3636C256.859 26.3636 256.401 26.5 256.007 26.7727C255.617 27.0417 255.312 27.4223 255.092 27.9148C254.876 28.4034 254.768 28.9773 254.768 29.6364C254.768 30.3106 254.875 30.8977 255.087 31.3977C255.303 31.8977 255.606 32.286 255.996 32.5625C256.39 32.839 256.852 32.9773 257.382 32.9773C257.731 32.9773 258.047 32.9167 258.331 32.7955C258.615 32.6742 258.856 32.5 259.053 32.2727C259.25 32.0455 259.39 31.7727 259.473 31.4545H260.814C260.738 31.9697 260.551 32.4337 260.251 32.8466C259.956 33.2557 259.564 33.5814 259.075 33.8239C258.59 34.0625 258.026 34.1818 257.382 34.1818ZM266.57 25.2727V26.4091H262.047V25.2727H266.57ZM263.365 23.1818H264.706V31.5C264.706 31.8788 264.761 32.1629 264.871 32.3523C264.984 32.5379 265.128 32.6629 265.303 32.7273C265.481 32.7879 265.668 32.8182 265.865 32.8182C266.013 32.8182 266.134 32.8106 266.229 32.7955C266.323 32.7765 266.399 32.7614 266.456 32.75L266.729 33.9545C266.638 33.9886 266.511 34.0227 266.348 34.0568C266.185 34.0947 265.979 34.1136 265.729 34.1136C265.35 34.1136 264.979 34.0322 264.615 33.8693C264.255 33.7064 263.956 33.4583 263.717 33.125C263.482 32.7917 263.365 32.3712 263.365 31.8636V23.1818ZM268.587 34V25.2727H269.928V34H268.587ZM269.268 23.8182C269.007 23.8182 268.782 23.7292 268.592 23.5511C268.407 23.3731 268.314 23.1591 268.314 22.9091C268.314 22.6591 268.407 22.4451 268.592 22.267C268.782 22.089 269.007 22 269.268 22C269.53 22 269.753 22.089 269.939 22.267C270.128 22.4451 270.223 22.6591 270.223 22.9091C270.223 23.1591 270.128 23.3731 269.939 23.5511C269.753 23.7292 269.53 23.8182 269.268 23.8182ZM279.52 25.2727L276.293 34H274.929L271.702 25.2727H273.156L275.565 32.2273H275.656L278.065 25.2727H279.52ZM284.636 34.1818C283.795 34.1818 283.07 33.9962 282.46 33.625C281.854 33.25 281.386 32.7273 281.057 32.0568C280.731 31.3826 280.568 30.5985 280.568 29.7045C280.568 28.8106 280.731 28.0227 281.057 27.3409C281.386 26.6553 281.845 26.1212 282.432 25.7386C283.023 25.3523 283.712 25.1591 284.5 25.1591C284.955 25.1591 285.403 25.2348 285.847 25.3864C286.29 25.5379 286.693 25.7841 287.057 26.125C287.42 26.4621 287.71 26.9091 287.926 27.4659C288.142 28.0227 288.25 28.7083 288.25 29.5227V30.0909H281.523V28.9318H286.886C286.886 28.4394 286.788 28 286.591 27.6136C286.398 27.2273 286.121 26.9223 285.761 26.6989C285.405 26.4754 284.985 26.3636 284.5 26.3636C283.966 26.3636 283.504 26.4962 283.114 26.7614C282.727 27.0227 282.43 27.3636 282.222 27.7841C282.013 28.2045 281.909 28.6553 281.909 29.1364V29.9091C281.909 30.5682 282.023 31.1269 282.25 31.5852C282.481 32.0398 282.801 32.3864 283.21 32.625C283.619 32.8598 284.095 32.9773 284.636 32.9773C284.989 32.9773 285.307 32.928 285.591 32.8295C285.879 32.7273 286.127 32.5758 286.335 32.375C286.544 32.1705 286.705 31.9167 286.818 31.6136L288.114 31.9773C287.977 32.4167 287.748 32.803 287.426 33.1364C287.104 33.4659 286.706 33.7235 286.233 33.9091C285.759 34.0909 285.227 34.1818 284.636 34.1818Z" fill="white" fill-opacity="0.95"/>
<mask id="path-7-inside-3_2110_46538" fill="white">
<path d="M500 0H720V56H500V0Z"/>
</mask>
<path d="M500 0H720V56H500V0Z" fill="#1A1A1A"/>
<path d="M720 56V57H721V56H720ZM719 0V56H721V0H719ZM720 55H500V57H720V55Z" fill="#707070" mask="url(#path-7-inside-3_2110_46538)"/>
<path d="M530.773 23.6136V22.3636H539.5V23.6136H535.841V34H534.432V23.6136H530.773ZM543.886 34.1818C543.045 34.1818 542.32 33.9962 541.71 33.625C541.104 33.25 540.636 32.7273 540.307 32.0568C539.981 31.3826 539.818 30.5985 539.818 29.7045C539.818 28.8106 539.981 28.0227 540.307 27.3409C540.636 26.6553 541.095 26.1212 541.682 25.7386C542.273 25.3523 542.962 25.1591 543.75 25.1591C544.205 25.1591 544.653 25.2348 545.097 25.3864C545.54 25.5379 545.943 25.7841 546.307 26.125C546.67 26.4621 546.96 26.9091 547.176 27.4659C547.392 28.0227 547.5 28.7083 547.5 29.5227V30.0909H540.773V28.9318H546.136C546.136 28.4394 546.038 28 545.841 27.6136C545.648 27.2273 545.371 26.9223 545.011 26.6989C544.655 26.4754 544.235 26.3636 543.75 26.3636C543.216 26.3636 542.754 26.4962 542.364 26.7614C541.977 27.0227 541.68 27.3636 541.472 27.7841C541.263 28.2045 541.159 28.6553 541.159 29.1364V29.9091C541.159 30.5682 541.273 31.1269 541.5 31.5852C541.731 32.0398 542.051 32.3864 542.46 32.625C542.869 32.8598 543.345 32.9773 543.886 32.9773C544.239 32.9773 544.557 32.928 544.841 32.8295C545.129 32.7273 545.377 32.5758 545.585 32.375C545.794 32.1705 545.955 31.9167 546.068 31.6136L547.364 31.9773C547.227 32.4167 546.998 32.803 546.676 33.1364C546.354 33.4659 545.956 33.7235 545.483 33.9091C545.009 34.0909 544.477 34.1818 543.886 34.1818ZM550.305 25.2727L552.396 28.8409L554.487 25.2727H556.033L553.214 29.6364L556.033 34H554.487L552.396 30.6136L550.305 34H548.76L551.533 29.6364L548.76 25.2727H550.305ZM561.741 25.2727V26.4091H557.219V25.2727H561.741ZM558.537 23.1818H559.878V31.5C559.878 31.8788 559.933 32.1629 560.043 32.3523C560.156 32.5379 560.3 32.6629 560.474 32.7273C560.652 32.7879 560.84 32.8182 561.037 32.8182C561.185 32.8182 561.306 32.8106 561.401 32.7955C561.495 32.7765 561.571 32.7614 561.628 32.75L561.901 33.9545C561.81 33.9886 561.683 34.0227 561.52 34.0568C561.357 34.0947 561.151 34.1136 560.901 34.1136C560.522 34.1136 560.151 34.0322 559.787 33.8693C559.427 33.7064 559.128 33.4583 558.889 33.125C558.654 32.7917 558.537 32.3712 558.537 31.8636V23.1818ZM567.872 21.8182L564.122 35.75H562.895L566.645 21.8182H567.872ZM569.462 34V25.2727H570.803V34H569.462ZM570.143 23.8182C569.882 23.8182 569.657 23.7292 569.467 23.5511C569.282 23.3731 569.189 23.1591 569.189 22.9091C569.189 22.6591 569.282 22.4451 569.467 22.267C569.657 22.089 569.882 22 570.143 22C570.405 22 570.628 22.089 570.814 22.267C571.003 22.4451 571.098 22.6591 571.098 22.9091C571.098 23.1591 571.003 23.3731 570.814 23.5511C570.628 23.7292 570.405 23.8182 570.143 23.8182ZM576.804 34.1818C575.986 34.1818 575.281 33.9886 574.69 33.6023C574.099 33.2159 573.645 32.6837 573.327 32.0057C573.009 31.3277 572.849 30.553 572.849 29.6818C572.849 28.7955 573.012 28.0133 573.338 27.3352C573.668 26.6534 574.126 26.1212 574.713 25.7386C575.304 25.3523 575.993 25.1591 576.781 25.1591C577.395 25.1591 577.948 25.2727 578.44 25.5C578.933 25.7273 579.336 26.0455 579.651 26.4545C579.965 26.8636 580.16 27.3409 580.236 27.8864H578.895C578.793 27.4886 578.565 27.1364 578.213 26.8295C577.865 26.5189 577.395 26.3636 576.804 26.3636C576.281 26.3636 575.823 26.5 575.429 26.7727C575.039 27.0417 574.734 27.4223 574.514 27.9148C574.298 28.4034 574.19 28.9773 574.19 29.6364C574.19 30.3106 574.296 30.8977 574.509 31.3977C574.724 31.8977 575.027 32.286 575.418 32.5625C575.812 32.839 576.274 32.9773 576.804 32.9773C577.152 32.9773 577.469 32.9167 577.753 32.7955C578.037 32.6742 578.277 32.5 578.474 32.2727C578.671 32.0455 578.812 31.7727 578.895 31.4545H580.236C580.16 31.9697 579.973 32.4337 579.673 32.8466C579.378 33.2557 578.986 33.5814 578.497 33.8239C578.012 34.0625 577.448 34.1818 576.804 34.1818ZM585.741 34.1818C584.954 34.1818 584.262 33.9943 583.668 33.6193C583.077 33.2443 582.615 32.7197 582.281 32.0455C581.952 31.3712 581.787 30.5833 581.787 29.6818C581.787 28.7727 581.952 27.9792 582.281 27.3011C582.615 26.6231 583.077 26.0966 583.668 25.7216C584.262 25.3466 584.954 25.1591 585.741 25.1591C586.529 25.1591 587.219 25.3466 587.81 25.7216C588.404 26.0966 588.866 26.6231 589.196 27.3011C589.529 27.9792 589.696 28.7727 589.696 29.6818C589.696 30.5833 589.529 31.3712 589.196 32.0455C588.866 32.7197 588.404 33.2443 587.81 33.6193C587.219 33.9943 586.529 34.1818 585.741 34.1818ZM585.741 32.9773C586.34 32.9773 586.832 32.8239 587.219 32.517C587.605 32.2102 587.891 31.8068 588.077 31.3068C588.262 30.8068 588.355 30.2652 588.355 29.6818C588.355 29.0985 588.262 28.5549 588.077 28.0511C587.891 27.5473 587.605 27.1402 587.219 26.8295C586.832 26.5189 586.34 26.3636 585.741 26.3636C585.143 26.3636 584.651 26.5189 584.264 26.8295C583.878 27.1402 583.592 27.5473 583.406 28.0511C583.221 28.5549 583.128 29.0985 583.128 29.6818C583.128 30.2652 583.221 30.8068 583.406 31.3068C583.592 31.8068 583.878 32.2102 584.264 32.517C584.651 32.8239 585.143 32.9773 585.741 32.9773ZM593.084 28.75V34H591.743V25.2727H593.038V26.6364H593.152C593.357 26.1932 593.667 25.8371 594.084 25.5682C594.5 25.2955 595.038 25.1591 595.697 25.1591C596.288 25.1591 596.805 25.2803 597.249 25.5227C597.692 25.7614 598.036 26.125 598.283 26.6136C598.529 27.0985 598.652 27.7121 598.652 28.4545V34H597.311V28.5455C597.311 27.8598 597.133 27.3258 596.777 26.9432C596.421 26.5568 595.932 26.3636 595.311 26.3636C594.883 26.3636 594.5 26.4564 594.163 26.642C593.83 26.8277 593.567 27.0985 593.374 27.4545C593.18 27.8106 593.084 28.2424 593.084 28.75Z" fill="white" fill-opacity="0.95"/>
<mask id="path-10-inside-4_2110_46538" fill="white">
<path d="M720 0H1300V56H720V0Z"/>
</mask>
<path d="M720 0H1300V56H720V0Z" fill="#1A1A1A"/>
<path d="M1300 55H720V57H1300V55Z" fill="#707070" mask="url(#path-10-inside-4_2110_46538)"/>
<path d="M755.023 25.2727V26.4091H750.5V25.2727H755.023ZM751.818 23.1818H753.159V31.5C753.159 31.8788 753.214 32.1629 753.324 32.3523C753.438 32.5379 753.581 32.6629 753.756 32.7273C753.934 32.7879 754.121 32.8182 754.318 32.8182C754.466 32.8182 754.587 32.8106 754.682 32.7955C754.777 32.7765 754.852 32.7614 754.909 32.75L755.182 33.9545C755.091 33.9886 754.964 34.0227 754.801 34.0568C754.638 34.0947 754.432 34.1136 754.182 34.1136C753.803 34.1136 753.432 34.0322 753.068 33.8693C752.708 33.7064 752.409 33.4583 752.17 33.125C751.936 32.7917 751.818 32.3712 751.818 31.8636V23.1818ZM758.568 28.75V34H757.227V22.3636H758.568V26.6364H758.682C758.886 26.1856 759.193 25.8277 759.602 25.5625C760.015 25.2936 760.564 25.1591 761.25 25.1591C761.845 25.1591 762.366 25.2784 762.812 25.517C763.259 25.7519 763.606 26.1136 763.852 26.6023C764.102 27.0871 764.227 27.7045 764.227 28.4545V34H762.886V28.5455C762.886 27.8523 762.706 27.3163 762.347 26.9375C761.991 26.5549 761.496 26.3636 760.864 26.3636C760.424 26.3636 760.03 26.4564 759.682 26.642C759.337 26.8277 759.064 27.0985 758.864 27.4545C758.667 27.8106 758.568 28.2424 758.568 28.75ZM770.339 34.1818C769.499 34.1818 768.773 33.9962 768.163 33.625C767.557 33.25 767.089 32.7273 766.76 32.0568C766.434 31.3826 766.271 30.5985 766.271 29.7045C766.271 28.8106 766.434 28.0227 766.76 27.3409C767.089 26.6553 767.548 26.1212 768.135 25.7386C768.726 25.3523 769.415 25.1591 770.203 25.1591C770.658 25.1591 771.107 25.2348 771.55 25.3864C771.993 25.5379 772.396 25.7841 772.76 26.125C773.124 26.4621 773.413 26.9091 773.629 27.4659C773.845 28.0227 773.953 28.7083 773.953 29.5227V30.0909H767.226V28.9318H772.589C772.589 28.4394 772.491 28 772.294 27.6136C772.101 27.2273 771.824 26.9223 771.464 26.6989C771.108 26.4754 770.688 26.3636 770.203 26.3636C769.669 26.3636 769.207 26.4962 768.817 26.7614C768.43 27.0227 768.133 27.3636 767.925 27.7841C767.716 28.2045 767.612 28.6553 767.612 29.1364V29.9091C767.612 30.5682 767.726 31.1269 767.953 31.5852C768.184 32.0398 768.504 32.3864 768.913 32.625C769.322 32.8598 769.798 32.9773 770.339 32.9773C770.692 32.9773 771.01 32.928 771.294 32.8295C771.582 32.7273 771.83 32.5758 772.038 32.375C772.247 32.1705 772.408 31.9167 772.521 31.6136L773.817 31.9773C773.68 32.4167 773.451 32.803 773.129 33.1364C772.807 33.4659 772.41 33.7235 771.936 33.9091C771.463 34.0909 770.93 34.1818 770.339 34.1818ZM775.993 34V25.2727H777.288V26.6364H777.402C777.584 26.1705 777.877 25.8087 778.283 25.5511C778.688 25.2898 779.175 25.1591 779.743 25.1591C780.319 25.1591 780.798 25.2898 781.18 25.5511C781.567 25.8087 781.868 26.1705 782.084 26.6364H782.175C782.398 26.1856 782.733 25.8277 783.18 25.5625C783.627 25.2936 784.163 25.1591 784.788 25.1591C785.569 25.1591 786.207 25.4034 786.703 25.892C787.199 26.3769 787.447 27.1326 787.447 28.1591V34H786.107V28.1591C786.107 27.5152 785.93 27.0549 785.578 26.7784C785.226 26.5019 784.811 26.3636 784.334 26.3636C783.72 26.3636 783.245 26.5492 782.908 26.9205C782.571 27.2879 782.402 27.7538 782.402 28.3182V34H781.038V28.0227C781.038 27.5265 780.877 27.1269 780.555 26.8239C780.233 26.517 779.819 26.3636 779.311 26.3636C778.963 26.3636 778.637 26.4564 778.334 26.642C778.035 26.8277 777.792 27.0852 777.607 27.4148C777.425 27.7405 777.334 28.1174 777.334 28.5455V34H775.993ZM793.558 34.1818C792.717 34.1818 791.992 33.9962 791.382 33.625C790.776 33.25 790.308 32.7273 789.979 32.0568C789.653 31.3826 789.49 30.5985 789.49 29.7045C789.49 28.8106 789.653 28.0227 789.979 27.3409C790.308 26.6553 790.767 26.1212 791.354 25.7386C791.945 25.3523 792.634 25.1591 793.422 25.1591C793.876 25.1591 794.325 25.2348 794.768 25.3864C795.212 25.5379 795.615 25.7841 795.979 26.125C796.342 26.4621 796.632 26.9091 796.848 27.4659C797.064 28.0227 797.172 28.7083 797.172 29.5227V30.0909H790.445V28.9318H795.808C795.808 28.4394 795.71 28 795.513 27.6136C795.32 27.2273 795.043 26.9223 794.683 26.6989C794.327 26.4754 793.907 26.3636 793.422 26.3636C792.888 26.3636 792.426 26.4962 792.036 26.7614C791.649 27.0227 791.352 27.3636 791.143 27.7841C790.935 28.2045 790.831 28.6553 790.831 29.1364V29.9091C790.831 30.5682 790.945 31.1269 791.172 31.5852C791.403 32.0398 791.723 32.3864 792.132 32.625C792.541 32.8598 793.017 32.9773 793.558 32.9773C793.911 32.9773 794.229 32.928 794.513 32.8295C794.801 32.7273 795.049 32.5758 795.257 32.375C795.465 32.1705 795.626 31.9167 795.74 31.6136L797.036 31.9773C796.899 32.4167 796.67 32.803 796.348 33.1364C796.026 33.4659 795.628 33.7235 795.155 33.9091C794.681 34.0909 794.149 34.1818 793.558 34.1818ZM803.325 21.8182L799.575 35.75H798.348L802.098 21.8182H803.325ZM806.256 28.75V34H804.915V25.2727H806.21V26.6364H806.324C806.528 26.1932 806.839 25.8371 807.256 25.5682C807.672 25.2955 808.21 25.1591 808.869 25.1591C809.46 25.1591 809.977 25.2803 810.42 25.5227C810.864 25.7614 811.208 26.125 811.455 26.6136C811.701 27.0985 811.824 27.7121 811.824 28.4545V34H810.483V28.5455C810.483 27.8598 810.305 27.3258 809.949 26.9432C809.593 26.5568 809.104 26.3636 808.483 26.3636C808.055 26.3636 807.672 26.4564 807.335 26.642C807.002 26.8277 806.739 27.0985 806.545 27.4545C806.352 27.8106 806.256 28.2424 806.256 28.75ZM817.933 34.1818C817.092 34.1818 816.367 33.9962 815.757 33.625C815.151 33.25 814.683 32.7273 814.354 32.0568C814.028 31.3826 813.865 30.5985 813.865 29.7045C813.865 28.8106 814.028 28.0227 814.354 27.3409C814.683 26.6553 815.142 26.1212 815.729 25.7386C816.32 25.3523 817.009 25.1591 817.797 25.1591C818.251 25.1591 818.7 25.2348 819.143 25.3864C819.587 25.5379 819.99 25.7841 820.354 26.125C820.717 26.4621 821.007 26.9091 821.223 27.4659C821.439 28.0227 821.547 28.7083 821.547 29.5227V30.0909H814.82V28.9318H820.183C820.183 28.4394 820.085 28 819.888 27.6136C819.695 27.2273 819.418 26.9223 819.058 26.6989C818.702 26.4754 818.282 26.3636 817.797 26.3636C817.263 26.3636 816.801 26.4962 816.411 26.7614C816.024 27.0227 815.727 27.3636 815.518 27.7841C815.31 28.2045 815.206 28.6553 815.206 29.1364V29.9091C815.206 30.5682 815.32 31.1269 815.547 31.5852C815.778 32.0398 816.098 32.3864 816.507 32.625C816.916 32.8598 817.392 32.9773 817.933 32.9773C818.286 32.9773 818.604 32.928 818.888 32.8295C819.176 32.7273 819.424 32.5758 819.632 32.375C819.84 32.1705 820.001 31.9167 820.115 31.6136L821.411 31.9773C821.274 32.4167 821.045 32.803 820.723 33.1364C820.401 33.4659 820.003 33.7235 819.53 33.9091C819.056 34.0909 818.524 34.1818 817.933 34.1818ZM829.087 30.4318V25.2727H830.428V34H829.087V32.5227H828.996C828.791 32.9659 828.473 33.3428 828.041 33.6534C827.609 33.9602 827.064 34.1136 826.405 34.1136C825.859 34.1136 825.375 33.9943 824.95 33.7557C824.526 33.5133 824.193 33.1496 823.95 32.6648C823.708 32.1761 823.587 31.5606 823.587 30.8182V25.2727H824.928V30.7273C824.928 31.3636 825.106 31.8712 825.462 32.25C825.821 32.6288 826.28 32.8182 826.837 32.8182C827.17 32.8182 827.509 32.733 827.854 32.5625C828.202 32.392 828.494 32.1307 828.729 31.7784C828.967 31.4261 829.087 30.9773 829.087 30.4318ZM836.679 25.2727V26.4091H832.156V25.2727H836.679ZM833.474 23.1818H834.815V31.5C834.815 31.8788 834.87 32.1629 834.98 32.3523C835.094 32.5379 835.238 32.6629 835.412 32.7273C835.59 32.7879 835.777 32.8182 835.974 32.8182C836.122 32.8182 836.243 32.8106 836.338 32.7955C836.433 32.7765 836.509 32.7614 836.565 32.75L836.838 33.9545C836.747 33.9886 836.62 34.0227 836.457 34.0568C836.295 34.0947 836.088 34.1136 835.838 34.1136C835.459 34.1136 835.088 34.0322 834.724 33.8693C834.365 33.7064 834.065 33.4583 833.827 33.125C833.592 32.7917 833.474 32.3712 833.474 31.8636V23.1818ZM838.696 34V25.2727H839.991V26.5909H840.082C840.241 26.1591 840.529 25.8087 840.946 25.5398C841.363 25.2708 841.832 25.1364 842.355 25.1364C842.454 25.1364 842.577 25.1383 842.724 25.142C842.872 25.1458 842.984 25.1515 843.06 25.1591V26.5227C843.014 26.5114 842.91 26.4943 842.747 26.4716C842.588 26.4451 842.42 26.4318 842.241 26.4318C841.817 26.4318 841.438 26.5208 841.105 26.6989C840.776 26.8731 840.514 27.1155 840.321 27.4261C840.132 27.733 840.037 28.0833 840.037 28.4773V34H838.696ZM847.217 34.2045C846.664 34.2045 846.162 34.1004 845.712 33.892C845.261 33.6799 844.903 33.375 844.638 32.9773C844.373 32.5758 844.24 32.0909 844.24 31.5227C844.24 31.0227 844.339 30.6174 844.536 30.3068C844.732 29.9924 844.996 29.7462 845.325 29.5682C845.655 29.3902 846.018 29.2576 846.416 29.1705C846.818 29.0795 847.221 29.0076 847.626 28.9545C848.157 28.8864 848.587 28.8352 848.916 28.8011C849.25 28.7633 849.492 28.7008 849.643 28.6136C849.799 28.5265 849.876 28.375 849.876 28.1591V28.1136C849.876 27.553 849.723 27.1174 849.416 26.8068C849.113 26.4962 848.653 26.3409 848.036 26.3409C847.395 26.3409 846.893 26.4811 846.53 26.7614C846.166 27.0417 845.911 27.3409 845.763 27.6591L844.49 27.2045C844.717 26.6742 845.02 26.2614 845.399 25.9659C845.782 25.6667 846.198 25.4583 846.649 25.3409C847.104 25.2197 847.551 25.1591 847.99 25.1591C848.27 25.1591 848.592 25.1932 848.956 25.2614C849.323 25.3258 849.678 25.4602 850.018 25.6648C850.363 25.8693 850.649 26.178 850.876 26.5909C851.104 27.0038 851.217 27.5568 851.217 28.25V34H849.876V32.8182H849.808C849.717 33.0076 849.566 33.2102 849.354 33.4261C849.142 33.642 848.859 33.8258 848.507 33.9773C848.155 34.1288 847.725 34.2045 847.217 34.2045ZM847.422 33C847.952 33 848.399 32.8958 848.763 32.6875C849.13 32.4792 849.407 32.2102 849.592 31.8807C849.782 31.5511 849.876 31.2045 849.876 30.8409V29.6136C849.82 29.6818 849.695 29.7443 849.501 29.8011C849.312 29.8542 849.092 29.9015 848.842 29.9432C848.596 29.9811 848.356 30.0152 848.121 30.0455C847.89 30.072 847.702 30.0947 847.558 30.1136C847.21 30.1591 846.884 30.233 846.581 30.3352C846.282 30.4337 846.039 30.5833 845.854 30.7841C845.672 30.9811 845.581 31.25 845.581 31.5909C845.581 32.0568 845.753 32.4091 846.098 32.6477C846.446 32.8826 846.888 33 847.422 33ZM855.006 22.3636V34H853.665V22.3636H855.006ZM861.575 21.8182L857.825 35.75H856.598L860.348 21.8182H861.575ZM866.96 25.2727V26.4091H862.438V25.2727H866.96ZM863.756 23.1818H865.097V31.5C865.097 31.8788 865.152 32.1629 865.261 32.3523C865.375 32.5379 865.519 32.6629 865.693 32.7273C865.871 32.7879 866.059 32.8182 866.256 32.8182C866.403 32.8182 866.525 32.8106 866.619 32.7955C866.714 32.7765 866.79 32.7614 866.847 32.75L867.119 33.9545C867.028 33.9886 866.902 34.0227 866.739 34.0568C866.576 34.0947 866.369 34.1136 866.119 34.1136C865.741 34.1136 865.369 34.0322 865.006 33.8693C864.646 33.7064 864.347 33.4583 864.108 33.125C863.873 32.7917 863.756 32.3712 863.756 31.8636V23.1818ZM872.543 34.1818C871.702 34.1818 870.976 33.9962 870.366 33.625C869.76 33.25 869.293 32.7273 868.963 32.0568C868.637 31.3826 868.474 30.5985 868.474 29.7045C868.474 28.8106 868.637 28.0227 868.963 27.3409C869.293 26.6553 869.751 26.1212 870.338 25.7386C870.929 25.3523 871.618 25.1591 872.406 25.1591C872.861 25.1591 873.31 25.2348 873.753 25.3864C874.196 25.5379 874.599 25.7841 874.963 26.125C875.327 26.4621 875.616 26.9091 875.832 27.4659C876.048 28.0227 876.156 28.7083 876.156 29.5227V30.0909H869.429V28.9318H874.793C874.793 28.4394 874.694 28 874.497 27.6136C874.304 27.2273 874.027 26.9223 873.668 26.6989C873.312 26.4754 872.891 26.3636 872.406 26.3636C871.872 26.3636 871.41 26.4962 871.02 26.7614C870.634 27.0227 870.336 27.3636 870.128 27.7841C869.92 28.2045 869.815 28.6553 869.815 29.1364V29.9091C869.815 30.5682 869.929 31.1269 870.156 31.5852C870.387 32.0398 870.707 32.3864 871.116 32.625C871.526 32.8598 872.001 32.9773 872.543 32.9773C872.895 32.9773 873.213 32.928 873.497 32.8295C873.785 32.7273 874.033 32.5758 874.241 32.375C874.45 32.1705 874.611 31.9167 874.724 31.6136L876.02 31.9773C875.884 32.4167 875.654 32.803 875.332 33.1364C875.01 33.4659 874.613 33.7235 874.139 33.9091C873.666 34.0909 873.134 34.1818 872.543 34.1818ZM878.962 25.2727L881.053 28.8409L883.143 25.2727H884.689L881.871 29.6364L884.689 34H883.143L881.053 30.6136L878.962 34H877.416L880.189 29.6364L877.416 25.2727H878.962ZM890.398 25.2727V26.4091H885.875V25.2727H890.398ZM887.193 23.1818H888.534V31.5C888.534 31.8788 888.589 32.1629 888.699 32.3523C888.813 32.5379 888.956 32.6629 889.131 32.7273C889.309 32.7879 889.496 32.8182 889.693 32.8182C889.841 32.8182 889.962 32.8106 890.057 32.7955C890.152 32.7765 890.227 32.7614 890.284 32.75L890.557 33.9545C890.466 33.9886 890.339 34.0227 890.176 34.0568C890.013 34.0947 889.807 34.1136 889.557 34.1136C889.178 34.1136 888.807 34.0322 888.443 33.8693C888.083 33.7064 887.784 33.4583 887.545 33.125C887.311 32.7917 887.193 32.3712 887.193 31.8636V23.1818ZM896.528 21.8182L892.778 35.75H891.551L895.301 21.8182H896.528ZM898.118 37.2727V25.2727H899.413V26.6591H899.572C899.671 26.5076 899.807 26.3144 899.982 26.0795C900.16 25.8409 900.413 25.6288 900.743 25.4432C901.076 25.2538 901.527 25.1591 902.095 25.1591C902.83 25.1591 903.478 25.3428 904.038 25.7102C904.599 26.0777 905.036 26.5985 905.351 27.2727C905.665 27.947 905.822 28.7424 905.822 29.6591C905.822 30.5833 905.665 31.3845 905.351 32.0625C905.036 32.7367 904.601 33.2595 904.044 33.6307C903.487 33.9981 902.845 34.1818 902.118 34.1818C901.557 34.1818 901.108 34.089 900.771 33.9034C900.434 33.714 900.175 33.5 899.993 33.2614C899.811 33.0189 899.671 32.8182 899.572 32.6591H899.459V37.2727H898.118ZM899.436 29.6364C899.436 30.2955 899.533 30.8769 899.726 31.3807C899.919 31.8807 900.201 32.2727 900.572 32.5568C900.944 32.8371 901.398 32.9773 901.936 32.9773C902.497 32.9773 902.964 32.8295 903.339 32.5341C903.718 32.2348 904.002 31.8333 904.192 31.3295C904.385 30.822 904.482 30.2576 904.482 29.6364C904.482 29.0227 904.387 28.4697 904.197 27.9773C904.012 27.4811 903.73 27.089 903.351 26.8011C902.976 26.5095 902.504 26.3636 901.936 26.3636C901.391 26.3636 900.932 26.5019 900.561 26.7784C900.19 27.0511 899.91 27.4337 899.72 27.9261C899.531 28.4148 899.436 28.9848 899.436 29.6364ZM907.868 34V25.2727H909.163V26.5909H909.254C909.413 26.1591 909.701 25.8087 910.118 25.5398C910.535 25.2708 911.004 25.1364 911.527 25.1364C911.625 25.1364 911.749 25.1383 911.896 25.142C912.044 25.1458 912.156 25.1515 912.232 25.1591V26.5227C912.186 26.5114 912.082 26.4943 911.919 26.4716C911.76 26.4451 911.591 26.4318 911.413 26.4318C910.989 26.4318 910.61 26.5208 910.277 26.6989C909.947 26.8731 909.686 27.1155 909.493 27.4261C909.304 27.733 909.209 28.0833 909.209 28.4773V34H907.868ZM913.821 34V25.2727H915.162V34H913.821ZM914.503 23.8182C914.241 23.8182 914.016 23.7292 913.827 23.5511C913.641 23.3731 913.548 23.1591 913.548 22.9091C913.548 22.6591 913.641 22.4451 913.827 22.267C914.016 22.089 914.241 22 914.503 22C914.764 22 914.988 22.089 915.173 22.267C915.363 22.4451 915.457 22.6591 915.457 22.9091C915.457 23.1591 915.363 23.3731 915.173 23.5511C914.988 23.7292 914.764 23.8182 914.503 23.8182ZM917.618 34V25.2727H918.913V26.6364H919.027C919.209 26.1705 919.502 25.8087 919.908 25.5511C920.313 25.2898 920.8 25.1591 921.368 25.1591C921.944 25.1591 922.423 25.2898 922.805 25.5511C923.192 25.8087 923.493 26.1705 923.709 26.6364H923.8C924.023 26.1856 924.358 25.8277 924.805 25.5625C925.252 25.2936 925.788 25.1591 926.413 25.1591C927.194 25.1591 927.832 25.4034 928.328 25.892C928.824 26.3769 929.072 27.1326 929.072 28.1591V34H927.732V28.1591C927.732 27.5152 927.555 27.0549 927.203 26.7784C926.851 26.5019 926.436 26.3636 925.959 26.3636C925.345 26.3636 924.87 26.5492 924.533 26.9205C924.196 27.2879 924.027 27.7538 924.027 28.3182V34H922.663V28.0227C922.663 27.5265 922.502 27.1269 922.18 26.8239C921.858 26.517 921.444 26.3636 920.936 26.3636C920.588 26.3636 920.262 26.4564 919.959 26.642C919.66 26.8277 919.417 27.0852 919.232 27.4148C919.05 27.7405 918.959 28.1174 918.959 28.5455V34H917.618ZM934.092 34.2045C933.539 34.2045 933.037 34.1004 932.587 33.892C932.136 33.6799 931.778 33.375 931.513 32.9773C931.248 32.5758 931.115 32.0909 931.115 31.5227C931.115 31.0227 931.214 30.6174 931.411 30.3068C931.607 29.9924 931.871 29.7462 932.2 29.5682C932.53 29.3902 932.893 29.2576 933.291 29.1705C933.693 29.0795 934.096 29.0076 934.501 28.9545C935.032 28.8864 935.462 28.8352 935.791 28.8011C936.125 28.7633 936.367 28.7008 936.518 28.6136C936.674 28.5265 936.751 28.375 936.751 28.1591V28.1136C936.751 27.553 936.598 27.1174 936.291 26.8068C935.988 26.4962 935.528 26.3409 934.911 26.3409C934.27 26.3409 933.768 26.4811 933.405 26.7614C933.041 27.0417 932.786 27.3409 932.638 27.6591L931.365 27.2045C931.592 26.6742 931.895 26.2614 932.274 25.9659C932.657 25.6667 933.073 25.4583 933.524 25.3409C933.979 25.2197 934.426 25.1591 934.865 25.1591C935.145 25.1591 935.467 25.1932 935.831 25.2614C936.198 25.3258 936.553 25.4602 936.893 25.6648C937.238 25.8693 937.524 26.178 937.751 26.5909C937.979 27.0038 938.092 27.5568 938.092 28.25V34H936.751V32.8182H936.683C936.592 33.0076 936.441 33.2102 936.229 33.4261C936.017 33.642 935.734 33.8258 935.382 33.9773C935.03 34.1288 934.6 34.2045 934.092 34.2045ZM934.297 33C934.827 33 935.274 32.8958 935.638 32.6875C936.005 32.4792 936.282 32.2102 936.467 31.8807C936.657 31.5511 936.751 31.2045 936.751 30.8409V29.6136C936.695 29.6818 936.57 29.7443 936.376 29.8011C936.187 29.8542 935.967 29.9015 935.717 29.9432C935.471 29.9811 935.231 30.0152 934.996 30.0455C934.765 30.072 934.577 30.0947 934.433 30.1136C934.085 30.1591 933.759 30.233 933.456 30.3352C933.157 30.4337 932.914 30.5833 932.729 30.7841C932.547 30.9811 932.456 31.25 932.456 31.5909C932.456 32.0568 932.628 32.4091 932.973 32.6477C933.321 32.8826 933.763 33 934.297 33ZM940.54 34V25.2727H941.835V26.5909H941.926C942.085 26.1591 942.373 25.8087 942.79 25.5398C943.206 25.2708 943.676 25.1364 944.199 25.1364C944.297 25.1364 944.42 25.1383 944.568 25.142C944.716 25.1458 944.828 25.1515 944.903 25.1591V26.5227C944.858 26.5114 944.754 26.4943 944.591 26.4716C944.432 26.4451 944.263 26.4318 944.085 26.4318C943.661 26.4318 943.282 26.5208 942.949 26.6989C942.619 26.8731 942.358 27.1155 942.165 27.4261C941.975 27.733 941.881 28.0833 941.881 28.4773V34H940.54ZM947.622 37.25C947.395 37.25 947.192 37.2311 947.014 37.1932C946.836 37.1591 946.713 37.125 946.645 37.0909L946.986 35.9091C947.474 36.0341 947.882 36.0303 948.207 35.8977C948.533 35.7689 948.815 35.3788 949.054 34.7273L949.304 34.0455L946.077 25.2727H947.531L949.94 32.2273H950.031L952.44 25.2727L953.906 25.2955L950.19 35.2727C950.024 35.7159 949.817 36.0833 949.571 36.375C949.325 36.6705 949.039 36.8902 948.713 37.0341C948.391 37.178 948.027 37.25 947.622 37.25ZM958.888 21.8182L955.138 35.75H953.911L957.661 21.8182H958.888ZM963.773 34.1818C963.045 34.1818 962.403 33.9981 961.847 33.6307C961.29 33.2595 960.854 32.7367 960.54 32.0625C960.225 31.3845 960.068 30.5833 960.068 29.6591C960.068 28.7424 960.225 27.947 960.54 27.2727C960.854 26.5985 961.292 26.0777 961.852 25.7102C962.413 25.3428 963.061 25.1591 963.795 25.1591C964.364 25.1591 964.813 25.2538 965.142 25.4432C965.475 25.6288 965.729 25.8409 965.903 26.0795C966.081 26.3144 966.22 26.5076 966.318 26.6591H966.432V22.3636H967.773V34H966.477V32.6591H966.318C966.22 32.8182 966.08 33.0189 965.898 33.2614C965.716 33.5 965.456 33.714 965.119 33.9034C964.782 34.089 964.333 34.1818 963.773 34.1818ZM963.955 32.9773C964.492 32.9773 964.947 32.8371 965.318 32.5568C965.689 32.2727 965.972 31.8807 966.165 31.3807C966.358 30.8769 966.455 30.2955 966.455 29.6364C966.455 28.9848 966.36 28.4148 966.17 27.9261C965.981 27.4337 965.701 27.0511 965.33 26.7784C964.958 26.5019 964.5 26.3636 963.955 26.3636C963.386 26.3636 962.913 26.5095 962.534 26.8011C962.159 27.089 961.877 27.4811 961.688 27.9773C961.502 28.4697 961.409 29.0227 961.409 29.6364C961.409 30.2576 961.504 30.822 961.693 31.3295C961.886 31.8333 962.17 32.2348 962.545 32.5341C962.924 32.8295 963.394 32.9773 963.955 32.9773ZM974.074 34.1818C973.233 34.1818 972.508 33.9962 971.898 33.625C971.292 33.25 970.824 32.7273 970.494 32.0568C970.169 31.3826 970.006 30.5985 970.006 29.7045C970.006 28.8106 970.169 28.0227 970.494 27.3409C970.824 26.6553 971.282 26.1212 971.869 25.7386C972.46 25.3523 973.15 25.1591 973.938 25.1591C974.392 25.1591 974.841 25.2348 975.284 25.3864C975.727 25.5379 976.131 25.7841 976.494 26.125C976.858 26.4621 977.148 26.9091 977.364 27.4659C977.58 28.0227 977.688 28.7083 977.688 29.5227V30.0909H970.96V28.9318H976.324C976.324 28.4394 976.225 28 976.028 27.6136C975.835 27.2273 975.559 26.9223 975.199 26.6989C974.843 26.4754 974.422 26.3636 973.938 26.3636C973.403 26.3636 972.941 26.4962 972.551 26.7614C972.165 27.0227 971.867 27.3636 971.659 27.7841C971.451 28.2045 971.347 28.6553 971.347 29.1364V29.9091C971.347 30.5682 971.46 31.1269 971.688 31.5852C971.919 32.0398 972.239 32.3864 972.648 32.625C973.057 32.8598 973.532 32.9773 974.074 32.9773C974.426 32.9773 974.744 32.928 975.028 32.8295C975.316 32.7273 975.564 32.5758 975.773 32.375C975.981 32.1705 976.142 31.9167 976.256 31.6136L977.551 31.9773C977.415 32.4167 977.186 32.803 976.864 33.1364C976.542 33.4659 976.144 33.7235 975.67 33.9091C975.197 34.0909 974.665 34.1818 974.074 34.1818ZM983.614 25.2727V26.4091H978.909V25.2727H983.614ZM980.318 34V24.0682C980.318 23.5682 980.436 23.1515 980.67 22.8182C980.905 22.4848 981.21 22.2348 981.585 22.0682C981.96 21.9015 982.356 21.8182 982.773 21.8182C983.102 21.8182 983.371 21.8447 983.58 21.8977C983.788 21.9508 983.943 22 984.045 22.0455L983.659 23.2045C983.591 23.1818 983.496 23.1534 983.375 23.1193C983.258 23.0852 983.102 23.0682 982.909 23.0682C982.466 23.0682 982.146 23.1799 981.949 23.4034C981.756 23.6269 981.659 23.9545 981.659 24.3864V34H980.318ZM987.811 34.2045C987.258 34.2045 986.756 34.1004 986.305 33.892C985.855 33.6799 985.497 33.375 985.232 32.9773C984.966 32.5758 984.834 32.0909 984.834 31.5227C984.834 31.0227 984.932 30.6174 985.129 30.3068C985.326 29.9924 985.589 29.7462 985.919 29.5682C986.249 29.3902 986.612 29.2576 987.01 29.1705C987.411 29.0795 987.815 29.0076 988.22 28.9545C988.75 28.8864 989.18 28.8352 989.51 28.8011C989.843 28.7633 990.086 28.7008 990.237 28.6136C990.393 28.5265 990.47 28.375 990.47 28.1591V28.1136C990.47 27.553 990.317 27.1174 990.01 26.8068C989.707 26.4962 989.247 26.3409 988.629 26.3409C987.989 26.3409 987.487 26.4811 987.124 26.7614C986.76 27.0417 986.504 27.3409 986.357 27.6591L985.084 27.2045C985.311 26.6742 985.614 26.2614 985.993 25.9659C986.375 25.6667 986.792 25.4583 987.243 25.3409C987.697 25.2197 988.144 25.1591 988.584 25.1591C988.864 25.1591 989.186 25.1932 989.55 25.2614C989.917 25.3258 990.271 25.4602 990.612 25.6648C990.957 25.8693 991.243 26.178 991.47 26.5909C991.697 27.0038 991.811 27.5568 991.811 28.25V34H990.47V32.8182H990.402C990.311 33.0076 990.16 33.2102 989.947 33.4261C989.735 33.642 989.453 33.8258 989.101 33.9773C988.749 34.1288 988.319 34.2045 987.811 34.2045ZM988.016 33C988.546 33 988.993 32.8958 989.357 32.6875C989.724 32.4792 990 32.2102 990.186 31.8807C990.375 31.5511 990.47 31.2045 990.47 30.8409V29.6136C990.413 29.6818 990.288 29.7443 990.095 29.8011C989.906 29.8542 989.686 29.9015 989.436 29.9432C989.19 29.9811 988.949 30.0152 988.714 30.0455C988.483 30.072 988.296 30.0947 988.152 30.1136C987.804 30.1591 987.478 30.233 987.175 30.3352C986.875 30.4337 986.633 30.5833 986.447 30.7841C986.266 30.9811 986.175 31.25 986.175 31.5909C986.175 32.0568 986.347 32.4091 986.692 32.6477C987.04 32.8826 987.482 33 988.016 33ZM999.759 30.4318V25.2727H1001.1V34H999.759V32.5227H999.668C999.463 32.9659 999.145 33.3428 998.713 33.6534C998.281 33.9602 997.736 34.1136 997.077 34.1136C996.531 34.1136 996.046 33.9943 995.622 33.7557C995.198 33.5133 994.865 33.1496 994.622 32.6648C994.38 32.1761 994.259 31.5606 994.259 30.8182V25.2727H995.599V30.7273C995.599 31.3636 995.777 31.8712 996.134 32.25C996.493 32.6288 996.952 32.8182 997.509 32.8182C997.842 32.8182 998.181 32.733 998.526 32.5625C998.874 32.392 999.166 32.1307 999.401 31.7784C999.639 31.4261 999.759 30.9773 999.759 30.4318ZM1004.9 22.3636V34H1003.56V22.3636H1004.9ZM1011.15 25.2727V26.4091H1006.62V25.2727H1011.15ZM1007.94 23.1818H1009.28V31.5C1009.28 31.8788 1009.34 32.1629 1009.45 32.3523C1009.56 32.5379 1009.71 32.6629 1009.88 32.7273C1010.06 32.7879 1010.25 32.8182 1010.44 32.8182C1010.59 32.8182 1010.71 32.8106 1010.81 32.7955C1010.9 32.7765 1010.98 32.7614 1011.03 32.75L1011.31 33.9545C1011.22 33.9886 1011.09 34.0227 1010.93 34.0568C1010.76 34.0947 1010.56 34.1136 1010.31 34.1136C1009.93 34.1136 1009.56 34.0322 1009.19 33.8693C1008.83 33.7064 1008.53 33.4583 1008.3 33.125C1008.06 32.7917 1007.94 32.3712 1007.94 31.8636V23.1818Z" fill="white" fill-opacity="0.95"/>
</svg>
