<svg width="1150" height="62" viewBox="0 0 1150 62" fill="none" xmlns="http://www.w3.org/2000/svg">
<mask id="path-1-inside-1_2110_46528" fill="white">
<path d="M0 0H200V62H0V0Z"/>
</mask>
<path d="M0 0H200V62H0V0Z" fill="#1A1A1A"/>
<path d="M199 0V62H201V0H199Z" fill="#707070" mask="url(#path-1-inside-1_2110_46528)"/>
<mask id="path-3-inside-2_2110_46528" fill="white">
<path d="M200 0H500V62H200V0Z"/>
</mask>
<path d="M200 0H500V62H200V0Z" fill="#1A1A1A"/>
<path d="M500 62V63H501V62H500ZM499 0V62H501V0H499ZM500 61H200V63H500V61Z" fill="#707070" mask="url(#path-3-inside-2_2110_46528)"/>
<path d="M231.886 37H230.409L234.682 25.3636H236.136L240.409 37H238.932L235.455 27.2045H235.364L231.886 37ZM232.432 32.4545H238.386V33.7045H232.432V32.4545ZM245.585 37.1818C244.767 37.1818 244.063 36.9886 243.472 36.6023C242.881 36.2159 242.426 35.6837 242.108 35.0057C241.79 34.3277 241.631 33.553 241.631 32.6818C241.631 31.7955 241.794 31.0133 242.119 30.3352C242.449 29.6534 242.907 29.1212 243.494 28.7386C244.085 28.3523 244.775 28.1591 245.562 28.1591C246.176 28.1591 246.729 28.2727 247.222 28.5C247.714 28.7273 248.117 29.0455 248.432 29.4545C248.746 29.8636 248.941 30.3409 249.017 30.8864H247.676C247.574 30.4886 247.347 30.1364 246.994 29.8295C246.646 29.5189 246.176 29.3636 245.585 29.3636C245.063 29.3636 244.604 29.5 244.21 29.7727C243.82 30.0417 243.515 30.4223 243.295 30.9148C243.08 31.4034 242.972 31.9773 242.972 32.6364C242.972 33.3106 243.078 33.8977 243.29 34.3977C243.506 34.8977 243.809 35.286 244.199 35.5625C244.593 35.839 245.055 35.9773 245.585 35.9773C245.934 35.9773 246.25 35.9167 246.534 35.7955C246.818 35.6742 247.059 35.5 247.256 35.2727C247.453 35.0455 247.593 34.7727 247.676 34.4545H249.017C248.941 34.9697 248.754 35.4337 248.455 35.8466C248.159 36.2557 247.767 36.5814 247.278 36.8239C246.794 37.0625 246.229 37.1818 245.585 37.1818ZM254.773 28.2727V29.4091H250.25V28.2727H254.773ZM251.568 26.1818H252.909V34.5C252.909 34.8788 252.964 35.1629 253.074 35.3523C253.188 35.5379 253.331 35.6629 253.506 35.7273C253.684 35.7879 253.871 35.8182 254.068 35.8182C254.216 35.8182 254.337 35.8106 254.432 35.7955C254.527 35.7765 254.602 35.7614 254.659 35.75L254.932 36.9545C254.841 36.9886 254.714 37.0227 254.551 37.0568C254.388 37.0947 254.182 37.1136 253.932 37.1136C253.553 37.1136 253.182 37.0322 252.818 36.8693C252.458 36.7064 252.159 36.4583 251.92 36.125C251.686 35.7917 251.568 35.3712 251.568 34.8636V26.1818ZM256.79 37V28.2727H258.131V37H256.79ZM257.472 26.8182C257.21 26.8182 256.985 26.7292 256.795 26.5511C256.61 26.3731 256.517 26.1591 256.517 25.9091C256.517 25.6591 256.61 25.4451 256.795 25.267C256.985 25.089 257.21 25 257.472 25C257.733 25 257.956 25.089 258.142 25.267C258.331 25.4451 258.426 25.6591 258.426 25.9091C258.426 26.1591 258.331 26.3731 258.142 26.5511C257.956 26.7292 257.733 26.8182 257.472 26.8182ZM267.723 28.2727L264.496 37H263.132L259.905 28.2727H261.359L263.768 35.2273H263.859L266.268 28.2727H267.723ZM272.839 37.1818C271.999 37.1818 271.273 36.9962 270.663 36.625C270.057 36.25 269.589 35.7273 269.26 35.0568C268.934 34.3826 268.771 33.5985 268.771 32.7045C268.771 31.8106 268.934 31.0227 269.26 30.3409C269.589 29.6553 270.048 29.1212 270.635 28.7386C271.226 28.3523 271.915 28.1591 272.703 28.1591C273.158 28.1591 273.607 28.2348 274.05 28.3864C274.493 28.5379 274.896 28.7841 275.26 29.125C275.624 29.4621 275.913 29.9091 276.129 30.4659C276.345 31.0227 276.453 31.7083 276.453 32.5227V33.0909H269.726V31.9318H275.089C275.089 31.4394 274.991 31 274.794 30.6136C274.601 30.2273 274.324 29.9223 273.964 29.6989C273.608 29.4754 273.188 29.3636 272.703 29.3636C272.169 29.3636 271.707 29.4962 271.317 29.7614C270.93 30.0227 270.633 30.3636 270.425 30.7841C270.216 31.2045 270.112 31.6553 270.112 32.1364V32.9091C270.112 33.5682 270.226 34.1269 270.453 34.5852C270.684 35.0398 271.004 35.3864 271.413 35.625C271.822 35.8598 272.298 35.9773 272.839 35.9773C273.192 35.9773 273.51 35.928 273.794 35.8295C274.082 35.7273 274.33 35.5758 274.538 35.375C274.747 35.1705 274.908 34.9167 275.021 34.6136L276.317 34.9773C276.18 35.4167 275.951 35.803 275.629 36.1364C275.307 36.4659 274.91 36.7235 274.436 36.9091C273.963 37.0909 273.43 37.1818 272.839 37.1818Z" fill="white" fill-opacity="0.95"/>
<mask id="path-6-inside-3_2110_46528" fill="white">
<path d="M500 0H720V62H500V0Z"/>
</mask>
<path d="M500 0H720V62H500V0Z" fill="#1A1A1A"/>
<path d="M720 62V63H721V62H720ZM719 0V62H721V0H719ZM720 61H500V63H720V61Z" fill="#707070" mask="url(#path-6-inside-3_2110_46528)"/>
<path d="M530.773 26.6136V25.3636H539.5V26.6136H535.841V37H534.432V26.6136H530.773ZM543.886 37.1818C543.045 37.1818 542.32 36.9962 541.71 36.625C541.104 36.25 540.636 35.7273 540.307 35.0568C539.981 34.3826 539.818 33.5985 539.818 32.7045C539.818 31.8106 539.981 31.0227 540.307 30.3409C540.636 29.6553 541.095 29.1212 541.682 28.7386C542.273 28.3523 542.962 28.1591 543.75 28.1591C544.205 28.1591 544.653 28.2348 545.097 28.3864C545.54 28.5379 545.943 28.7841 546.307 29.125C546.67 29.4621 546.96 29.9091 547.176 30.4659C547.392 31.0227 547.5 31.7083 547.5 32.5227V33.0909H540.773V31.9318H546.136C546.136 31.4394 546.038 31 545.841 30.6136C545.648 30.2273 545.371 29.9223 545.011 29.6989C544.655 29.4754 544.235 29.3636 543.75 29.3636C543.216 29.3636 542.754 29.4962 542.364 29.7614C541.977 30.0227 541.68 30.3636 541.472 30.7841C541.263 31.2045 541.159 31.6553 541.159 32.1364V32.9091C541.159 33.5682 541.273 34.1269 541.5 34.5852C541.731 35.0398 542.051 35.3864 542.46 35.625C542.869 35.8598 543.345 35.9773 543.886 35.9773C544.239 35.9773 544.557 35.928 544.841 35.8295C545.129 35.7273 545.377 35.5758 545.585 35.375C545.794 35.1705 545.955 34.9167 546.068 34.6136L547.364 34.9773C547.227 35.4167 546.998 35.803 546.676 36.1364C546.354 36.4659 545.956 36.7235 545.483 36.9091C545.009 37.0909 544.477 37.1818 543.886 37.1818ZM550.305 28.2727L552.396 31.8409L554.487 28.2727H556.033L553.214 32.6364L556.033 37H554.487L552.396 33.6136L550.305 37H548.76L551.533 32.6364L548.76 28.2727H550.305ZM561.741 28.2727V29.4091H557.219V28.2727H561.741ZM558.537 26.1818H559.878V34.5C559.878 34.8788 559.933 35.1629 560.043 35.3523C560.156 35.5379 560.3 35.6629 560.474 35.7273C560.652 35.7879 560.84 35.8182 561.037 35.8182C561.185 35.8182 561.306 35.8106 561.401 35.7955C561.495 35.7765 561.571 35.7614 561.628 35.75L561.901 36.9545C561.81 36.9886 561.683 37.0227 561.52 37.0568C561.357 37.0947 561.151 37.1136 560.901 37.1136C560.522 37.1136 560.151 37.0322 559.787 36.8693C559.427 36.7064 559.128 36.4583 558.889 36.125C558.654 35.7917 558.537 35.3712 558.537 34.8636V26.1818ZM567.872 24.8182L564.122 38.75H562.895L566.645 24.8182H567.872ZM569.462 37V28.2727H570.803V37H569.462ZM570.143 26.8182C569.882 26.8182 569.657 26.7292 569.467 26.5511C569.282 26.3731 569.189 26.1591 569.189 25.9091C569.189 25.6591 569.282 25.4451 569.467 25.267C569.657 25.089 569.882 25 570.143 25C570.405 25 570.628 25.089 570.814 25.267C571.003 25.4451 571.098 25.6591 571.098 25.9091C571.098 26.1591 571.003 26.3731 570.814 26.5511C570.628 26.7292 570.405 26.8182 570.143 26.8182ZM576.804 37.1818C575.986 37.1818 575.281 36.9886 574.69 36.6023C574.099 36.2159 573.645 35.6837 573.327 35.0057C573.009 34.3277 572.849 33.553 572.849 32.6818C572.849 31.7955 573.012 31.0133 573.338 30.3352C573.668 29.6534 574.126 29.1212 574.713 28.7386C575.304 28.3523 575.993 28.1591 576.781 28.1591C577.395 28.1591 577.948 28.2727 578.44 28.5C578.933 28.7273 579.336 29.0455 579.651 29.4545C579.965 29.8636 580.16 30.3409 580.236 30.8864H578.895C578.793 30.4886 578.565 30.1364 578.213 29.8295C577.865 29.5189 577.395 29.3636 576.804 29.3636C576.281 29.3636 575.823 29.5 575.429 29.7727C575.039 30.0417 574.734 30.4223 574.514 30.9148C574.298 31.4034 574.19 31.9773 574.19 32.6364C574.19 33.3106 574.296 33.8977 574.509 34.3977C574.724 34.8977 575.027 35.286 575.418 35.5625C575.812 35.839 576.274 35.9773 576.804 35.9773C577.152 35.9773 577.469 35.9167 577.753 35.7955C578.037 35.6742 578.277 35.5 578.474 35.2727C578.671 35.0455 578.812 34.7727 578.895 34.4545H580.236C580.16 34.9697 579.973 35.4337 579.673 35.8466C579.378 36.2557 578.986 36.5814 578.497 36.8239C578.012 37.0625 577.448 37.1818 576.804 37.1818ZM585.741 37.1818C584.954 37.1818 584.262 36.9943 583.668 36.6193C583.077 36.2443 582.615 35.7197 582.281 35.0455C581.952 34.3712 581.787 33.5833 581.787 32.6818C581.787 31.7727 581.952 30.9792 582.281 30.3011C582.615 29.6231 583.077 29.0966 583.668 28.7216C584.262 28.3466 584.954 28.1591 585.741 28.1591C586.529 28.1591 587.219 28.3466 587.81 28.7216C588.404 29.0966 588.866 29.6231 589.196 30.3011C589.529 30.9792 589.696 31.7727 589.696 32.6818C589.696 33.5833 589.529 34.3712 589.196 35.0455C588.866 35.7197 588.404 36.2443 587.81 36.6193C587.219 36.9943 586.529 37.1818 585.741 37.1818ZM585.741 35.9773C586.34 35.9773 586.832 35.8239 587.219 35.517C587.605 35.2102 587.891 34.8068 588.077 34.3068C588.262 33.8068 588.355 33.2652 588.355 32.6818C588.355 32.0985 588.262 31.5549 588.077 31.0511C587.891 30.5473 587.605 30.1402 587.219 29.8295C586.832 29.5189 586.34 29.3636 585.741 29.3636C585.143 29.3636 584.651 29.5189 584.264 29.8295C583.878 30.1402 583.592 30.5473 583.406 31.0511C583.221 31.5549 583.128 32.0985 583.128 32.6818C583.128 33.2652 583.221 33.8068 583.406 34.3068C583.592 34.8068 583.878 35.2102 584.264 35.517C584.651 35.8239 585.143 35.9773 585.741 35.9773ZM593.084 31.75V37H591.743V28.2727H593.038V29.6364H593.152C593.357 29.1932 593.667 28.8371 594.084 28.5682C594.5 28.2955 595.038 28.1591 595.697 28.1591C596.288 28.1591 596.805 28.2803 597.249 28.5227C597.692 28.7614 598.036 29.125 598.283 29.6136C598.529 30.0985 598.652 30.7121 598.652 31.4545V37H597.311V31.5455C597.311 30.8598 597.133 30.3258 596.777 29.9432C596.421 29.5568 595.932 29.3636 595.311 29.3636C594.883 29.3636 594.5 29.4564 594.163 29.642C593.83 29.8277 593.567 30.0985 593.374 30.4545C593.18 30.8106 593.084 31.2424 593.084 31.75Z" fill="white" fill-opacity="0.95"/>
<mask id="path-9-inside-4_2110_46528" fill="white">
<path d="M720 0H1150V62H720V0Z"/>
</mask>
<path d="M720 0H1150V62H720V0Z" fill="#1A1A1A"/>
<path d="M1150 61H720V63H1150V61Z" fill="#707070" mask="url(#path-9-inside-4_2110_46528)"/>
<path d="M755.023 28.2727V29.4091H750.5V28.2727H755.023ZM751.818 26.1818H753.159V34.5C753.159 34.8788 753.214 35.1629 753.324 35.3523C753.438 35.5379 753.581 35.6629 753.756 35.7273C753.934 35.7879 754.121 35.8182 754.318 35.8182C754.466 35.8182 754.587 35.8106 754.682 35.7955C754.777 35.7765 754.852 35.7614 754.909 35.75L755.182 36.9545C755.091 36.9886 754.964 37.0227 754.801 37.0568C754.638 37.0947 754.432 37.1136 754.182 37.1136C753.803 37.1136 753.432 37.0322 753.068 36.8693C752.708 36.7064 752.409 36.4583 752.17 36.125C751.936 35.7917 751.818 35.3712 751.818 34.8636V26.1818ZM758.568 31.75V37H757.227V25.3636H758.568V29.6364H758.682C758.886 29.1856 759.193 28.8277 759.602 28.5625C760.015 28.2936 760.564 28.1591 761.25 28.1591C761.845 28.1591 762.366 28.2784 762.812 28.517C763.259 28.7519 763.606 29.1136 763.852 29.6023C764.102 30.0871 764.227 30.7045 764.227 31.4545V37H762.886V31.5455C762.886 30.8523 762.706 30.3163 762.347 29.9375C761.991 29.5549 761.496 29.3636 760.864 29.3636C760.424 29.3636 760.03 29.4564 759.682 29.642C759.337 29.8277 759.064 30.0985 758.864 30.4545C758.667 30.8106 758.568 31.2424 758.568 31.75ZM770.339 37.1818C769.499 37.1818 768.773 36.9962 768.163 36.625C767.557 36.25 767.089 35.7273 766.76 35.0568C766.434 34.3826 766.271 33.5985 766.271 32.7045C766.271 31.8106 766.434 31.0227 766.76 30.3409C767.089 29.6553 767.548 29.1212 768.135 28.7386C768.726 28.3523 769.415 28.1591 770.203 28.1591C770.658 28.1591 771.107 28.2348 771.55 28.3864C771.993 28.5379 772.396 28.7841 772.76 29.125C773.124 29.4621 773.413 29.9091 773.629 30.4659C773.845 31.0227 773.953 31.7083 773.953 32.5227V33.0909H767.226V31.9318H772.589C772.589 31.4394 772.491 31 772.294 30.6136C772.101 30.2273 771.824 29.9223 771.464 29.6989C771.108 29.4754 770.688 29.3636 770.203 29.3636C769.669 29.3636 769.207 29.4962 768.817 29.7614C768.43 30.0227 768.133 30.3636 767.925 30.7841C767.716 31.2045 767.612 31.6553 767.612 32.1364V32.9091C767.612 33.5682 767.726 34.1269 767.953 34.5852C768.184 35.0398 768.504 35.3864 768.913 35.625C769.322 35.8598 769.798 35.9773 770.339 35.9773C770.692 35.9773 771.01 35.928 771.294 35.8295C771.582 35.7273 771.83 35.5758 772.038 35.375C772.247 35.1705 772.408 34.9167 772.521 34.6136L773.817 34.9773C773.68 35.4167 773.451 35.803 773.129 36.1364C772.807 36.4659 772.41 36.7235 771.936 36.9091C771.463 37.0909 770.93 37.1818 770.339 37.1818ZM775.993 37V28.2727H777.288V29.6364H777.402C777.584 29.1705 777.877 28.8087 778.283 28.5511C778.688 28.2898 779.175 28.1591 779.743 28.1591C780.319 28.1591 780.798 28.2898 781.18 28.5511C781.567 28.8087 781.868 29.1705 782.084 29.6364H782.175C782.398 29.1856 782.733 28.8277 783.18 28.5625C783.627 28.2936 784.163 28.1591 784.788 28.1591C785.569 28.1591 786.207 28.4034 786.703 28.892C787.199 29.3769 787.447 30.1326 787.447 31.1591V37H786.107V31.1591C786.107 30.5152 785.93 30.0549 785.578 29.7784C785.226 29.5019 784.811 29.3636 784.334 29.3636C783.72 29.3636 783.245 29.5492 782.908 29.9205C782.571 30.2879 782.402 30.7538 782.402 31.3182V37H781.038V31.0227C781.038 30.5265 780.877 30.1269 780.555 29.8239C780.233 29.517 779.819 29.3636 779.311 29.3636C778.963 29.3636 778.637 29.4564 778.334 29.642C778.035 29.8277 777.792 30.0852 777.607 30.4148C777.425 30.7405 777.334 31.1174 777.334 31.5455V37H775.993ZM793.558 37.1818C792.717 37.1818 791.992 36.9962 791.382 36.625C790.776 36.25 790.308 35.7273 789.979 35.0568C789.653 34.3826 789.49 33.5985 789.49 32.7045C789.49 31.8106 789.653 31.0227 789.979 30.3409C790.308 29.6553 790.767 29.1212 791.354 28.7386C791.945 28.3523 792.634 28.1591 793.422 28.1591C793.876 28.1591 794.325 28.2348 794.768 28.3864C795.212 28.5379 795.615 28.7841 795.979 29.125C796.342 29.4621 796.632 29.9091 796.848 30.4659C797.064 31.0227 797.172 31.7083 797.172 32.5227V33.0909H790.445V31.9318H795.808C795.808 31.4394 795.71 31 795.513 30.6136C795.32 30.2273 795.043 29.9223 794.683 29.6989C794.327 29.4754 793.907 29.3636 793.422 29.3636C792.888 29.3636 792.426 29.4962 792.036 29.7614C791.649 30.0227 791.352 30.3636 791.143 30.7841C790.935 31.2045 790.831 31.6553 790.831 32.1364V32.9091C790.831 33.5682 790.945 34.1269 791.172 34.5852C791.403 35.0398 791.723 35.3864 792.132 35.625C792.541 35.8598 793.017 35.9773 793.558 35.9773C793.911 35.9773 794.229 35.928 794.513 35.8295C794.801 35.7273 795.049 35.5758 795.257 35.375C795.465 35.1705 795.626 34.9167 795.74 34.6136L797.036 34.9773C796.899 35.4167 796.67 35.803 796.348 36.1364C796.026 36.4659 795.628 36.7235 795.155 36.9091C794.681 37.0909 794.149 37.1818 793.558 37.1818ZM803.325 24.8182L799.575 38.75H798.348L802.098 24.8182H803.325ZM806.256 31.75V37H804.915V28.2727H806.21V29.6364H806.324C806.528 29.1932 806.839 28.8371 807.256 28.5682C807.672 28.2955 808.21 28.1591 808.869 28.1591C809.46 28.1591 809.977 28.2803 810.42 28.5227C810.864 28.7614 811.208 29.125 811.455 29.6136C811.701 30.0985 811.824 30.7121 811.824 31.4545V37H810.483V31.5455C810.483 30.8598 810.305 30.3258 809.949 29.9432C809.593 29.5568 809.104 29.3636 808.483 29.3636C808.055 29.3636 807.672 29.4564 807.335 29.642C807.002 29.8277 806.739 30.0985 806.545 30.4545C806.352 30.8106 806.256 31.2424 806.256 31.75ZM817.933 37.1818C817.092 37.1818 816.367 36.9962 815.757 36.625C815.151 36.25 814.683 35.7273 814.354 35.0568C814.028 34.3826 813.865 33.5985 813.865 32.7045C813.865 31.8106 814.028 31.0227 814.354 30.3409C814.683 29.6553 815.142 29.1212 815.729 28.7386C816.32 28.3523 817.009 28.1591 817.797 28.1591C818.251 28.1591 818.7 28.2348 819.143 28.3864C819.587 28.5379 819.99 28.7841 820.354 29.125C820.717 29.4621 821.007 29.9091 821.223 30.4659C821.439 31.0227 821.547 31.7083 821.547 32.5227V33.0909H814.82V31.9318H820.183C820.183 31.4394 820.085 31 819.888 30.6136C819.695 30.2273 819.418 29.9223 819.058 29.6989C818.702 29.4754 818.282 29.3636 817.797 29.3636C817.263 29.3636 816.801 29.4962 816.411 29.7614C816.024 30.0227 815.727 30.3636 815.518 30.7841C815.31 31.2045 815.206 31.6553 815.206 32.1364V32.9091C815.206 33.5682 815.32 34.1269 815.547 34.5852C815.778 35.0398 816.098 35.3864 816.507 35.625C816.916 35.8598 817.392 35.9773 817.933 35.9773C818.286 35.9773 818.604 35.928 818.888 35.8295C819.176 35.7273 819.424 35.5758 819.632 35.375C819.84 35.1705 820.001 34.9167 820.115 34.6136L821.411 34.9773C821.274 35.4167 821.045 35.803 820.723 36.1364C820.401 36.4659 820.003 36.7235 819.53 36.9091C819.056 37.0909 818.524 37.1818 817.933 37.1818ZM829.087 33.4318V28.2727H830.428V37H829.087V35.5227H828.996C828.791 35.9659 828.473 36.3428 828.041 36.6534C827.609 36.9602 827.064 37.1136 826.405 37.1136C825.859 37.1136 825.375 36.9943 824.95 36.7557C824.526 36.5133 824.193 36.1496 823.95 35.6648C823.708 35.1761 823.587 34.5606 823.587 33.8182V28.2727H824.928V33.7273C824.928 34.3636 825.106 34.8712 825.462 35.25C825.821 35.6288 826.28 35.8182 826.837 35.8182C827.17 35.8182 827.509 35.733 827.854 35.5625C828.202 35.392 828.494 35.1307 828.729 34.7784C828.967 34.4261 829.087 33.9773 829.087 33.4318ZM836.679 28.2727V29.4091H832.156V28.2727H836.679ZM833.474 26.1818H834.815V34.5C834.815 34.8788 834.87 35.1629 834.98 35.3523C835.094 35.5379 835.238 35.6629 835.412 35.7273C835.59 35.7879 835.777 35.8182 835.974 35.8182C836.122 35.8182 836.243 35.8106 836.338 35.7955C836.433 35.7765 836.509 35.7614 836.565 35.75L836.838 36.9545C836.747 36.9886 836.62 37.0227 836.457 37.0568C836.295 37.0947 836.088 37.1136 835.838 37.1136C835.459 37.1136 835.088 37.0322 834.724 36.8693C834.365 36.7064 834.065 36.4583 833.827 36.125C833.592 35.7917 833.474 35.3712 833.474 34.8636V26.1818ZM838.696 37V28.2727H839.991V29.5909H840.082C840.241 29.1591 840.529 28.8087 840.946 28.5398C841.363 28.2708 841.832 28.1364 842.355 28.1364C842.454 28.1364 842.577 28.1383 842.724 28.142C842.872 28.1458 842.984 28.1515 843.06 28.1591V29.5227C843.014 29.5114 842.91 29.4943 842.747 29.4716C842.588 29.4451 842.42 29.4318 842.241 29.4318C841.817 29.4318 841.438 29.5208 841.105 29.6989C840.776 29.8731 840.514 30.1155 840.321 30.4261C840.132 30.733 840.037 31.0833 840.037 31.4773V37H838.696ZM847.217 37.2045C846.664 37.2045 846.162 37.1004 845.712 36.892C845.261 36.6799 844.903 36.375 844.638 35.9773C844.373 35.5758 844.24 35.0909 844.24 34.5227C844.24 34.0227 844.339 33.6174 844.536 33.3068C844.732 32.9924 844.996 32.7462 845.325 32.5682C845.655 32.3902 846.018 32.2576 846.416 32.1705C846.818 32.0795 847.221 32.0076 847.626 31.9545C848.157 31.8864 848.587 31.8352 848.916 31.8011C849.25 31.7633 849.492 31.7008 849.643 31.6136C849.799 31.5265 849.876 31.375 849.876 31.1591V31.1136C849.876 30.553 849.723 30.1174 849.416 29.8068C849.113 29.4962 848.653 29.3409 848.036 29.3409C847.395 29.3409 846.893 29.4811 846.53 29.7614C846.166 30.0417 845.911 30.3409 845.763 30.6591L844.49 30.2045C844.717 29.6742 845.02 29.2614 845.399 28.9659C845.782 28.6667 846.198 28.4583 846.649 28.3409C847.104 28.2197 847.551 28.1591 847.99 28.1591C848.27 28.1591 848.592 28.1932 848.956 28.2614C849.323 28.3258 849.678 28.4602 850.018 28.6648C850.363 28.8693 850.649 29.178 850.876 29.5909C851.104 30.0038 851.217 30.5568 851.217 31.25V37H849.876V35.8182H849.808C849.717 36.0076 849.566 36.2102 849.354 36.4261C849.142 36.642 848.859 36.8258 848.507 36.9773C848.155 37.1288 847.725 37.2045 847.217 37.2045ZM847.422 36C847.952 36 848.399 35.8958 848.763 35.6875C849.13 35.4792 849.407 35.2102 849.592 34.8807C849.782 34.5511 849.876 34.2045 849.876 33.8409V32.6136C849.82 32.6818 849.695 32.7443 849.501 32.8011C849.312 32.8542 849.092 32.9015 848.842 32.9432C848.596 32.9811 848.356 33.0152 848.121 33.0455C847.89 33.072 847.702 33.0947 847.558 33.1136C847.21 33.1591 846.884 33.233 846.581 33.3352C846.282 33.4337 846.039 33.5833 845.854 33.7841C845.672 33.9811 845.581 34.25 845.581 34.5909C845.581 35.0568 845.753 35.4091 846.098 35.6477C846.446 35.8826 846.888 36 847.422 36ZM855.006 25.3636V37H853.665V25.3636H855.006ZM861.575 24.8182L857.825 38.75H856.598L860.348 24.8182H861.575ZM866.96 28.2727V29.4091H862.438V28.2727H866.96ZM863.756 26.1818H865.097V34.5C865.097 34.8788 865.152 35.1629 865.261 35.3523C865.375 35.5379 865.519 35.6629 865.693 35.7273C865.871 35.7879 866.059 35.8182 866.256 35.8182C866.403 35.8182 866.525 35.8106 866.619 35.7955C866.714 35.7765 866.79 35.7614 866.847 35.75L867.119 36.9545C867.028 36.9886 866.902 37.0227 866.739 37.0568C866.576 37.0947 866.369 37.1136 866.119 37.1136C865.741 37.1136 865.369 37.0322 865.006 36.8693C864.646 36.7064 864.347 36.4583 864.108 36.125C863.873 35.7917 863.756 35.3712 863.756 34.8636V26.1818ZM872.543 37.1818C871.702 37.1818 870.976 36.9962 870.366 36.625C869.76 36.25 869.293 35.7273 868.963 35.0568C868.637 34.3826 868.474 33.5985 868.474 32.7045C868.474 31.8106 868.637 31.0227 868.963 30.3409C869.293 29.6553 869.751 29.1212 870.338 28.7386C870.929 28.3523 871.618 28.1591 872.406 28.1591C872.861 28.1591 873.31 28.2348 873.753 28.3864C874.196 28.5379 874.599 28.7841 874.963 29.125C875.327 29.4621 875.616 29.9091 875.832 30.4659C876.048 31.0227 876.156 31.7083 876.156 32.5227V33.0909H869.429V31.9318H874.793C874.793 31.4394 874.694 31 874.497 30.6136C874.304 30.2273 874.027 29.9223 873.668 29.6989C873.312 29.4754 872.891 29.3636 872.406 29.3636C871.872 29.3636 871.41 29.4962 871.02 29.7614C870.634 30.0227 870.336 30.3636 870.128 30.7841C869.92 31.2045 869.815 31.6553 869.815 32.1364V32.9091C869.815 33.5682 869.929 34.1269 870.156 34.5852C870.387 35.0398 870.707 35.3864 871.116 35.625C871.526 35.8598 872.001 35.9773 872.543 35.9773C872.895 35.9773 873.213 35.928 873.497 35.8295C873.785 35.7273 874.033 35.5758 874.241 35.375C874.45 35.1705 874.611 34.9167 874.724 34.6136L876.02 34.9773C875.884 35.4167 875.654 35.803 875.332 36.1364C875.01 36.4659 874.613 36.7235 874.139 36.9091C873.666 37.0909 873.134 37.1818 872.543 37.1818ZM878.962 28.2727L881.053 31.8409L883.143 28.2727H884.689L881.871 32.6364L884.689 37H883.143L881.053 33.6136L878.962 37H877.416L880.189 32.6364L877.416 28.2727H878.962ZM890.398 28.2727V29.4091H885.875V28.2727H890.398ZM887.193 26.1818H888.534V34.5C888.534 34.8788 888.589 35.1629 888.699 35.3523C888.813 35.5379 888.956 35.6629 889.131 35.7273C889.309 35.7879 889.496 35.8182 889.693 35.8182C889.841 35.8182 889.962 35.8106 890.057 35.7955C890.152 35.7765 890.227 35.7614 890.284 35.75L890.557 36.9545C890.466 36.9886 890.339 37.0227 890.176 37.0568C890.013 37.0947 889.807 37.1136 889.557 37.1136C889.178 37.1136 888.807 37.0322 888.443 36.8693C888.083 36.7064 887.784 36.4583 887.545 36.125C887.311 35.7917 887.193 35.3712 887.193 34.8636V26.1818ZM896.528 24.8182L892.778 38.75H891.551L895.301 24.8182H896.528ZM901.413 37.1818C900.686 37.1818 900.044 36.9981 899.487 36.6307C898.93 36.2595 898.495 35.7367 898.18 35.0625C897.866 34.3845 897.709 33.5833 897.709 32.6591C897.709 31.7424 897.866 30.947 898.18 30.2727C898.495 29.5985 898.932 29.0777 899.493 28.7102C900.054 28.3428 900.701 28.1591 901.436 28.1591C902.004 28.1591 902.453 28.2538 902.783 28.4432C903.116 28.6288 903.37 28.8409 903.544 29.0795C903.722 29.3144 903.86 29.5076 903.959 29.6591H904.072V25.3636H905.413V37H904.118V35.6591H903.959C903.86 35.8182 903.72 36.0189 903.538 36.2614C903.357 36.5 903.097 36.714 902.76 36.9034C902.423 37.089 901.974 37.1818 901.413 37.1818ZM901.595 35.9773C902.133 35.9773 902.588 35.8371 902.959 35.5568C903.33 35.2727 903.612 34.8807 903.805 34.3807C903.999 33.8769 904.095 33.2955 904.095 32.6364C904.095 31.9848 904 31.4148 903.811 30.9261C903.622 30.4337 903.341 30.0511 902.97 29.7784C902.599 29.5019 902.141 29.3636 901.595 29.3636C901.027 29.3636 900.554 29.5095 900.175 29.8011C899.8 30.089 899.518 30.4811 899.328 30.9773C899.143 31.4697 899.05 32.0227 899.05 32.6364C899.05 33.2576 899.144 33.822 899.334 34.3295C899.527 34.8333 899.811 35.2348 900.186 35.5341C900.565 35.8295 901.035 35.9773 901.595 35.9773ZM908.055 37V28.2727H909.396V37H908.055ZM908.737 26.8182C908.476 26.8182 908.25 26.7292 908.061 26.5511C907.875 26.3731 907.783 26.1591 907.783 25.9091C907.783 25.6591 907.875 25.4451 908.061 25.267C908.25 25.089 908.476 25 908.737 25C908.999 25 909.222 25.089 909.408 25.267C909.597 25.4451 909.692 25.6591 909.692 25.9091C909.692 26.1591 909.597 26.3731 909.408 26.5511C909.222 26.7292 908.999 26.8182 908.737 26.8182ZM918.034 30.2273L916.83 30.5682C916.754 30.3674 916.642 30.1723 916.494 29.983C916.35 29.7898 916.153 29.6307 915.903 29.5057C915.653 29.3807 915.333 29.3182 914.943 29.3182C914.409 29.3182 913.964 29.4413 913.608 29.6875C913.256 29.9299 913.08 30.2386 913.08 30.6136C913.08 30.947 913.201 31.2102 913.443 31.4034C913.686 31.5966 914.064 31.7576 914.58 31.8864L915.875 32.2045C916.655 32.3939 917.237 32.6837 917.619 33.0739C918.002 33.4602 918.193 33.9583 918.193 34.5682C918.193 35.0682 918.049 35.5152 917.761 35.9091C917.477 36.303 917.08 36.6136 916.568 36.8409C916.057 37.0682 915.462 37.1818 914.784 37.1818C913.894 37.1818 913.157 36.9886 912.574 36.6023C911.991 36.2159 911.621 35.6515 911.466 34.9091L912.739 34.5909C912.86 35.0606 913.089 35.4129 913.426 35.6477C913.767 35.8826 914.212 36 914.761 36C915.386 36 915.883 35.8674 916.25 35.6023C916.621 35.3333 916.807 35.0114 916.807 34.6364C916.807 34.3333 916.701 34.0795 916.489 33.875C916.277 33.6667 915.951 33.5114 915.511 33.4091L914.057 33.0682C913.258 32.8788 912.67 32.5852 912.295 32.1875C911.924 31.786 911.739 31.2841 911.739 30.6818C911.739 30.1894 911.877 29.7538 912.153 29.375C912.434 28.9962 912.814 28.6989 913.295 28.483C913.78 28.267 914.33 28.1591 914.943 28.1591C915.807 28.1591 916.485 28.3485 916.977 28.7273C917.473 29.1061 917.826 29.6061 918.034 30.2273ZM922.78 37.2045C922.227 37.2045 921.725 37.1004 921.274 36.892C920.823 36.6799 920.465 36.375 920.2 35.9773C919.935 35.5758 919.803 35.0909 919.803 34.5227C919.803 34.0227 919.901 33.6174 920.098 33.3068C920.295 32.9924 920.558 32.7462 920.888 32.5682C921.217 32.3902 921.581 32.2576 921.979 32.1705C922.38 32.0795 922.784 32.0076 923.189 31.9545C923.719 31.8864 924.149 31.8352 924.479 31.8011C924.812 31.7633 925.054 31.7008 925.206 31.6136C925.361 31.5265 925.439 31.375 925.439 31.1591V31.1136C925.439 30.553 925.286 30.1174 924.979 29.8068C924.676 29.4962 924.215 29.3409 923.598 29.3409C922.958 29.3409 922.456 29.4811 922.092 29.7614C921.729 30.0417 921.473 30.3409 921.325 30.6591L920.053 30.2045C920.28 29.6742 920.583 29.2614 920.962 28.9659C921.344 28.6667 921.761 28.4583 922.212 28.3409C922.666 28.2197 923.113 28.1591 923.553 28.1591C923.833 28.1591 924.155 28.1932 924.518 28.2614C924.886 28.3258 925.24 28.4602 925.581 28.6648C925.926 28.8693 926.212 29.178 926.439 29.5909C926.666 30.0038 926.78 30.5568 926.78 31.25V37H925.439V35.8182H925.371C925.28 36.0076 925.128 36.2102 924.916 36.4261C924.704 36.642 924.422 36.8258 924.07 36.9773C923.717 37.1288 923.287 37.2045 922.78 37.2045ZM922.984 36C923.515 36 923.962 35.8958 924.325 35.6875C924.693 35.4792 924.969 35.2102 925.155 34.8807C925.344 34.5511 925.439 34.2045 925.439 33.8409V32.6136C925.382 32.6818 925.257 32.7443 925.064 32.8011C924.875 32.8542 924.655 32.9015 924.405 32.9432C924.159 32.9811 923.918 33.0152 923.683 33.0455C923.452 33.072 923.265 33.0947 923.121 33.1136C922.772 33.1591 922.446 33.233 922.143 33.3352C921.844 33.4337 921.602 33.5833 921.416 33.7841C921.234 33.9811 921.143 34.25 921.143 34.5909C921.143 35.0568 921.316 35.4091 921.661 35.6477C922.009 35.8826 922.45 36 922.984 36ZM929.409 37V25.3636H930.75V29.6591H930.864C930.962 29.5076 931.098 29.3144 931.273 29.0795C931.451 28.8409 931.705 28.6288 932.034 28.4432C932.367 28.2538 932.818 28.1591 933.386 28.1591C934.121 28.1591 934.769 28.3428 935.33 28.7102C935.89 29.0777 936.328 29.5985 936.642 30.2727C936.956 30.947 937.114 31.7424 937.114 32.6591C937.114 33.5833 936.956 34.3845 936.642 35.0625C936.328 35.7367 935.892 36.2595 935.335 36.6307C934.778 36.9981 934.136 37.1818 933.409 37.1818C932.848 37.1818 932.4 37.089 932.062 36.9034C931.725 36.714 931.466 36.5 931.284 36.2614C931.102 36.0189 930.962 35.8182 930.864 35.6591H930.705V37H929.409ZM930.727 32.6364C930.727 33.2955 930.824 33.8769 931.017 34.3807C931.21 34.8807 931.492 35.2727 931.864 35.5568C932.235 35.8371 932.689 35.9773 933.227 35.9773C933.788 35.9773 934.256 35.8295 934.631 35.5341C935.009 35.2348 935.294 34.8333 935.483 34.3295C935.676 33.822 935.773 33.2576 935.773 32.6364C935.773 32.0227 935.678 31.4697 935.489 30.9773C935.303 30.4811 935.021 30.089 934.642 29.8011C934.267 29.5095 933.795 29.3636 933.227 29.3636C932.682 29.3636 932.223 29.5019 931.852 29.7784C931.481 30.0511 931.201 30.4337 931.011 30.9261C930.822 31.4148 930.727 31.9848 930.727 32.6364ZM940.506 25.3636V37H939.165V25.3636H940.506ZM946.621 37.1818C945.78 37.1818 945.054 36.9962 944.445 36.625C943.839 36.25 943.371 35.7273 943.041 35.0568C942.715 34.3826 942.553 33.5985 942.553 32.7045C942.553 31.8106 942.715 31.0227 943.041 30.3409C943.371 29.6553 943.829 29.1212 944.416 28.7386C945.007 28.3523 945.696 28.1591 946.484 28.1591C946.939 28.1591 947.388 28.2348 947.831 28.3864C948.274 28.5379 948.678 28.7841 949.041 29.125C949.405 29.4621 949.695 29.9091 949.911 30.4659C950.126 31.0227 950.234 31.7083 950.234 32.5227V33.0909H943.507V31.9318H948.871C948.871 31.4394 948.772 31 948.575 30.6136C948.382 30.2273 948.106 29.9223 947.746 29.6989C947.39 29.4754 946.969 29.3636 946.484 29.3636C945.95 29.3636 945.488 29.4962 945.098 29.7614C944.712 30.0227 944.414 30.3636 944.206 30.7841C943.998 31.2045 943.893 31.6553 943.893 32.1364V32.9091C943.893 33.5682 944.007 34.1269 944.234 34.5852C944.465 35.0398 944.786 35.3864 945.195 35.625C945.604 35.8598 946.079 35.9773 946.621 35.9773C946.973 35.9773 947.291 35.928 947.575 35.8295C947.863 35.7273 948.111 35.5758 948.32 35.375C948.528 35.1705 948.689 34.9167 948.803 34.6136L950.098 34.9773C949.962 35.4167 949.732 35.803 949.411 36.1364C949.089 36.4659 948.691 36.7235 948.217 36.9091C947.744 37.0909 947.212 37.1818 946.621 37.1818ZM955.57 37.1818C954.842 37.1818 954.2 36.9981 953.643 36.6307C953.087 36.2595 952.651 35.7367 952.337 35.0625C952.022 34.3845 951.865 33.5833 951.865 32.6591C951.865 31.7424 952.022 30.947 952.337 30.2727C952.651 29.5985 953.089 29.0777 953.649 28.7102C954.21 28.3428 954.857 28.1591 955.592 28.1591C956.161 28.1591 956.609 28.2538 956.939 28.4432C957.272 28.6288 957.526 28.8409 957.7 29.0795C957.878 29.3144 958.017 29.5076 958.115 29.6591H958.229V25.3636H959.57V37H958.274V35.6591H958.115C958.017 35.8182 957.876 36.0189 957.695 36.2614C957.513 36.5 957.253 36.714 956.916 36.9034C956.579 37.089 956.13 37.1818 955.57 37.1818ZM955.751 35.9773C956.289 35.9773 956.744 35.8371 957.115 35.5568C957.486 35.2727 957.768 34.8807 957.962 34.3807C958.155 33.8769 958.251 33.2955 958.251 32.6364C958.251 31.9848 958.157 31.4148 957.967 30.9261C957.778 30.4337 957.498 30.0511 957.126 29.7784C956.755 29.5019 956.297 29.3636 955.751 29.3636C955.183 29.3636 954.71 29.5095 954.331 29.8011C953.956 30.089 953.674 30.4811 953.484 30.9773C953.299 31.4697 953.206 32.0227 953.206 32.6364C953.206 33.2576 953.301 33.822 953.49 34.3295C953.683 34.8333 953.967 35.2348 954.342 35.5341C954.721 35.8295 955.191 35.9773 955.751 35.9773Z" fill="white" fill-opacity="0.95"/>
</svg>
