<svg width="250" height="172" viewBox="0 0 250 172" fill="none" xmlns="http://www.w3.org/2000/svg">
<mask id="path-1-inside-1_2110_46795" fill="white">
<path d="M0 0H250V172H0V0Z"/>
</mask>
<path d="M0 0H250V172H0V0Z" fill="#1A1A1A"/>
<path d="M250 172V173H251V172H250ZM249 0V172H251V0H249ZM250 171H0V173H250V171Z" fill="#707070" mask="url(#path-1-inside-1_2110_46795)"/>
<path d="M30.7727 81.6136V80.3636H39.5V81.6136H35.8409V92H34.4318V81.6136H30.7727ZM42.8736 92.2045C42.3205 92.2045 41.8187 92.1004 41.3679 91.892C40.9171 91.6799 40.5592 91.375 40.294 90.9773C40.0289 90.5758 39.8963 90.0909 39.8963 89.5227C39.8963 89.0227 39.9948 88.6174 40.1918 88.3068C40.3887 87.9924 40.652 87.7462 40.9815 87.5682C41.3111 87.3902 41.6747 87.2576 42.0724 87.1705C42.474 87.0795 42.8774 87.0076 43.2827 86.9545C43.813 86.8864 44.2429 86.8352 44.5724 86.8011C44.9058 86.7633 45.1482 86.7008 45.2997 86.6136C45.455 86.5265 45.5327 86.375 45.5327 86.1591V86.1136C45.5327 85.553 45.3793 85.1174 45.0724 84.8068C44.7694 84.4962 44.3092 84.3409 43.6918 84.3409C43.0516 84.3409 42.5497 84.4811 42.1861 84.7614C41.8224 85.0417 41.5668 85.3409 41.419 85.6591L40.1463 85.2045C40.3736 84.6742 40.6766 84.2614 41.0554 83.9659C41.438 83.6667 41.8546 83.4583 42.3054 83.3409C42.7599 83.2197 43.2069 83.1591 43.6463 83.1591C43.9266 83.1591 44.2486 83.1932 44.6122 83.2614C44.9796 83.3258 45.3338 83.4602 45.6747 83.6648C46.0194 83.8693 46.3054 84.178 46.5327 84.5909C46.7599 85.0038 46.8736 85.5568 46.8736 86.25V92H45.5327V90.8182H45.4645C45.3736 91.0076 45.2221 91.2102 45.0099 91.4261C44.7978 91.642 44.5156 91.8258 44.1634 91.9773C43.8111 92.1288 43.3812 92.2045 42.8736 92.2045ZM43.0781 91C43.6084 91 44.0554 90.8958 44.419 90.6875C44.7865 90.4792 45.063 90.2102 45.2486 89.8807C45.438 89.5511 45.5327 89.2045 45.5327 88.8409V87.6136C45.4759 87.6818 45.3509 87.7443 45.1577 87.8011C44.9683 87.8542 44.7486 87.9015 44.4986 87.9432C44.2524 87.9811 44.0118 88.0152 43.777 88.0455C43.5459 88.072 43.3584 88.0947 43.2145 88.1136C42.866 88.1591 42.5402 88.233 42.2372 88.3352C41.938 88.4337 41.6955 88.5833 41.5099 88.7841C41.3281 88.9811 41.2372 89.25 41.2372 89.5909C41.2372 90.0568 41.4096 90.4091 41.7543 90.6477C42.1027 90.8826 42.544 91 43.0781 91ZM49.5028 92V80.3636H50.8438V84.6591H50.9574C51.0559 84.5076 51.1922 84.3144 51.3665 84.0795C51.5445 83.8409 51.7983 83.6288 52.1278 83.4432C52.4612 83.2538 52.9119 83.1591 53.4801 83.1591C54.215 83.1591 54.8627 83.3428 55.4233 83.7102C55.9839 84.0777 56.4214 84.5985 56.7358 85.2727C57.0502 85.947 57.2074 86.7424 57.2074 87.6591C57.2074 88.5833 57.0502 89.3845 56.7358 90.0625C56.4214 90.7367 55.9858 91.2595 55.429 91.6307C54.8722 91.9981 54.2301 92.1818 53.5028 92.1818C52.9422 92.1818 52.4934 92.089 52.1562 91.9034C51.8191 91.714 51.5597 91.5 51.3778 91.2614C51.196 91.0189 51.0559 90.8182 50.9574 90.6591H50.7983V92H49.5028ZM50.821 87.6364C50.821 88.2955 50.9176 88.8769 51.1108 89.3807C51.304 89.8807 51.5862 90.2727 51.9574 90.5568C52.3286 90.8371 52.7831 90.9773 53.321 90.9773C53.8816 90.9773 54.3494 90.8295 54.7244 90.5341C55.1032 90.2348 55.3873 89.8333 55.5767 89.3295C55.7699 88.822 55.8665 88.2576 55.8665 87.6364C55.8665 87.0227 55.7718 86.4697 55.5824 85.9773C55.3968 85.4811 55.1146 85.089 54.7358 84.8011C54.3608 84.5095 53.8892 84.3636 53.321 84.3636C52.7756 84.3636 52.3172 84.5019 51.946 84.7784C51.5748 85.0511 51.2945 85.4337 51.1051 85.9261C50.9157 86.4148 50.821 86.9848 50.821 87.6364Z" fill="white" fill-opacity="0.95"/>
</svg>
