<svg width="220" height="152" viewBox="0 0 220 152" fill="none" xmlns="http://www.w3.org/2000/svg">
<mask id="path-1-inside-1_2110_46804" fill="white">
<path d="M0 0H220V152H0V0Z"/>
</mask>
<path d="M0 0H220V152H0V0Z" fill="#1A1A1A"/>
<path d="M220 152V153H221V152H220ZM219 0V152H221V0H219ZM220 151H0V153H220V151Z" fill="#707070" mask="url(#path-1-inside-1_2110_46804)"/>
<path d="M31.4091 82V70.3636H35.4773C36.2879 70.3636 36.9564 70.5038 37.483 70.7841C38.0095 71.0606 38.4015 71.4337 38.6591 71.9034C38.9167 72.3693 39.0455 72.8864 39.0455 73.4545C39.0455 73.9545 38.9564 74.3674 38.7784 74.6932C38.6042 75.0189 38.3731 75.2765 38.0852 75.4659C37.8011 75.6553 37.4924 75.7955 37.1591 75.8864V76C37.5152 76.0227 37.8731 76.1477 38.233 76.375C38.5928 76.6023 38.8939 76.928 39.1364 77.3523C39.3788 77.7765 39.5 78.2955 39.5 78.9091C39.5 79.4924 39.3674 80.017 39.1023 80.483C38.8371 80.9489 38.4186 81.3182 37.8466 81.5909C37.2746 81.8636 36.5303 82 35.6136 82H31.4091ZM32.8182 80.75H35.6136C36.5341 80.75 37.1875 80.572 37.5739 80.2159C37.964 79.8561 38.1591 79.4205 38.1591 78.9091C38.1591 78.5152 38.0587 78.1515 37.858 77.8182C37.6572 77.4811 37.3712 77.2121 37 77.0114C36.6288 76.8068 36.1894 76.7045 35.6818 76.7045H32.8182V80.75ZM32.8182 75.4773H35.4318C35.8561 75.4773 36.2386 75.3939 36.5795 75.2273C36.9242 75.0606 37.197 74.8258 37.3977 74.5227C37.6023 74.2197 37.7045 73.8636 37.7045 73.4545C37.7045 72.9432 37.5265 72.5095 37.1705 72.1534C36.8144 71.7936 36.25 71.6136 35.4773 71.6136H32.8182V75.4773ZM45.179 82.1818C44.3911 82.1818 43.6998 81.9943 43.1051 81.6193C42.5142 81.2443 42.0521 80.7197 41.7188 80.0455C41.3892 79.3712 41.2244 78.5833 41.2244 77.6818C41.2244 76.7727 41.3892 75.9792 41.7188 75.3011C42.0521 74.6231 42.5142 74.0966 43.1051 73.7216C43.6998 73.3466 44.3911 73.1591 45.179 73.1591C45.9669 73.1591 46.6563 73.3466 47.2472 73.7216C47.8419 74.0966 48.304 74.6231 48.6335 75.3011C48.9669 75.9792 49.1335 76.7727 49.1335 77.6818C49.1335 78.5833 48.9669 79.3712 48.6335 80.0455C48.304 80.7197 47.8419 81.2443 47.2472 81.6193C46.6563 81.9943 45.9669 82.1818 45.179 82.1818ZM45.179 80.9773C45.7775 80.9773 46.2699 80.8239 46.6562 80.517C47.0426 80.2102 47.3286 79.8068 47.5142 79.3068C47.6998 78.8068 47.7926 78.2652 47.7926 77.6818C47.7926 77.0985 47.6998 76.5549 47.5142 76.0511C47.3286 75.5473 47.0426 75.1402 46.6562 74.8295C46.2699 74.5189 45.7775 74.3636 45.179 74.3636C44.5805 74.3636 44.0881 74.5189 43.7017 74.8295C43.3153 75.1402 43.0294 75.5473 42.8438 76.0511C42.6581 76.5549 42.5653 77.0985 42.5653 77.6818C42.5653 78.2652 42.6581 78.8068 42.8438 79.3068C43.0294 79.8068 43.3153 80.2102 43.7017 80.517C44.0881 80.8239 44.5805 80.9773 45.179 80.9773ZM53.7486 82.2045C53.1955 82.2045 52.6937 82.1004 52.2429 81.892C51.7921 81.6799 51.4342 81.375 51.169 80.9773C50.9039 80.5758 50.7713 80.0909 50.7713 79.5227C50.7713 79.0227 50.8698 78.6174 51.0668 78.3068C51.2637 77.9924 51.527 77.7462 51.8565 77.5682C52.1861 77.3902 52.5497 77.2576 52.9474 77.1705C53.349 77.0795 53.7524 77.0076 54.1577 76.9545C54.688 76.8864 55.1179 76.8352 55.4474 76.8011C55.7808 76.7633 56.0232 76.7008 56.1747 76.6136C56.33 76.5265 56.4077 76.375 56.4077 76.1591V76.1136C56.4077 75.553 56.2543 75.1174 55.9474 74.8068C55.6444 74.4962 55.1842 74.3409 54.5668 74.3409C53.9266 74.3409 53.4247 74.4811 53.0611 74.7614C52.6974 75.0417 52.4418 75.3409 52.294 75.6591L51.0213 75.2045C51.2486 74.6742 51.5516 74.2614 51.9304 73.9659C52.313 73.6667 52.7296 73.4583 53.1804 73.3409C53.6349 73.2197 54.0819 73.1591 54.5213 73.1591C54.8016 73.1591 55.1236 73.1932 55.4872 73.2614C55.8546 73.3258 56.2088 73.4602 56.5497 73.6648C56.8944 73.8693 57.1804 74.178 57.4077 74.5909C57.6349 75.0038 57.7486 75.5568 57.7486 76.25V82H56.4077V80.8182H56.3395C56.2486 81.0076 56.0971 81.2102 55.8849 81.4261C55.6728 81.642 55.3906 81.8258 55.0384 81.9773C54.6861 82.1288 54.2562 82.2045 53.7486 82.2045ZM53.9531 81C54.4834 81 54.9304 80.8958 55.294 80.6875C55.6615 80.4792 55.938 80.2102 56.1236 79.8807C56.313 79.5511 56.4077 79.2045 56.4077 78.8409V77.6136C56.3509 77.6818 56.2259 77.7443 56.0327 77.8011C55.8433 77.8542 55.6236 77.9015 55.3736 77.9432C55.1274 77.9811 54.8868 78.0152 54.652 78.0455C54.4209 78.072 54.2334 78.0947 54.0895 78.1136C53.741 78.1591 53.4152 78.233 53.1122 78.3352C52.813 78.4337 52.5705 78.5833 52.3849 78.7841C52.2031 78.9811 52.1122 79.25 52.1122 79.5909C52.1122 80.0568 52.2846 80.4091 52.6293 80.6477C52.9777 80.8826 53.419 81 53.9531 81ZM60.196 82V73.2727H61.4915V74.5909H61.5824C61.7415 74.1591 62.0294 73.8087 62.446 73.5398C62.8627 73.2708 63.3324 73.1364 63.8551 73.1364C63.9536 73.1364 64.0767 73.1383 64.2244 73.142C64.3722 73.1458 64.4839 73.1515 64.5597 73.1591V74.5227C64.5142 74.5114 64.41 74.4943 64.2472 74.4716C64.0881 74.4451 63.9195 74.4318 63.7415 74.4318C63.3172 74.4318 62.9384 74.5208 62.6051 74.6989C62.2756 74.8731 62.0142 75.1155 61.821 75.4261C61.6316 75.733 61.5369 76.0833 61.5369 76.4773V82H60.196ZM69.179 82.1818C68.4517 82.1818 67.8097 81.9981 67.2528 81.6307C66.696 81.2595 66.2604 80.7367 65.946 80.0625C65.6316 79.3845 65.4744 78.5833 65.4744 77.6591C65.4744 76.7424 65.6316 75.947 65.946 75.2727C66.2604 74.5985 66.6979 74.0777 67.2585 73.7102C67.8191 73.3428 68.4669 73.1591 69.2017 73.1591C69.7699 73.1591 70.2188 73.2538 70.5483 73.4432C70.8816 73.6288 71.1354 73.8409 71.3097 74.0795C71.4877 74.3144 71.6259 74.5076 71.7244 74.6591H71.8381V70.3636H73.179V82H71.8835V80.6591H71.7244C71.6259 80.8182 71.4858 81.0189 71.304 81.2614C71.1222 81.5 70.8627 81.714 70.5256 81.9034C70.1884 82.089 69.7396 82.1818 69.179 82.1818ZM69.3608 80.9773C69.8987 80.9773 70.3532 80.8371 70.7244 80.5568C71.0956 80.2727 71.3778 79.8807 71.571 79.3807C71.7642 78.8769 71.8608 78.2955 71.8608 77.6364C71.8608 76.9848 71.7661 76.4148 71.5767 75.9261C71.3873 75.4337 71.107 75.0511 70.7358 74.7784C70.3646 74.5019 69.9063 74.3636 69.3608 74.3636C68.7926 74.3636 68.3191 74.5095 67.9403 74.8011C67.5653 75.089 67.2831 75.4811 67.0938 75.9773C66.9081 76.4697 66.8153 77.0227 66.8153 77.6364C66.8153 78.2576 66.91 78.822 67.0994 79.3295C67.2926 79.8333 67.5767 80.2348 67.9517 80.5341C68.3305 80.8295 68.8002 80.9773 69.3608 80.9773Z" fill="white" fill-opacity="0.95"/>
</svg>
