<svg width="220" height="100" viewBox="0 0 220 100" fill="none" xmlns="http://www.w3.org/2000/svg">
<mask id="path-1-inside-1_2110_46784" fill="white">
<path d="M0 0H220V100H0V0Z"/>
</mask>
<path d="M0 0H220V100H0V0Z" fill="#1A1A1A"/>
<path d="M220 100V101H221V100H220ZM219 0V100H221V0H219ZM220 99H0V101H220V99Z" fill="#707070" mask="url(#path-1-inside-1_2110_46784)"/>
<path d="M40.6364 44.3636V56H39.2727L32.9318 46.8636H32.8182V56H31.4091V44.3636H32.7727L39.1364 53.5227H39.25V44.3636H40.6364ZM47.3878 43.8182L43.6378 57.75H42.4105L46.1605 43.8182H47.3878ZM49.6364 56H48.1591L52.4318 44.3636H53.8864L58.1591 56H56.6818L53.2045 46.2045H53.1136L49.6364 56ZM50.1818 51.4545H56.1364V52.7045H50.1818V51.4545Z" fill="white" fill-opacity="0.95"/>
</svg>
