<svg width="1300" height="64" viewBox="0 0 1300 64" fill="none" xmlns="http://www.w3.org/2000/svg">
<mask id="path-1-inside-1_2110_63472" fill="white">
<path d="M0 4H300V60H0V4Z"/>
</mask>
<path d="M0 4H300V60H0V4Z" fill="#1A1A1A"/>
<path d="M300 60V61H301V60H300ZM299 4V60H301V4H299ZM300 59H0V61H300V59Z" fill="#707070" mask="url(#path-1-inside-1_2110_63472)"/>
<mask id="path-3-inside-2_2110_63472" fill="white">
<path d="M30 20C30 17.7909 31.7909 16 34 16H136C138.209 16 140 17.7909 140 20V48H30V20Z"/>
</mask>
<path d="M30 16H140H30ZM140 50H30V46H140V50ZM30 48V16V48ZM140 16V48V16Z" fill="white" fill-opacity="0.9" mask="url(#path-3-inside-2_2110_63472)"/>
<mask id="path-5-inside-3_2110_63472" fill="white">
<path d="M300 4H550V60H300V4Z"/>
</mask>
<path d="M300 4H550V60H300V4Z" fill="#1A1A1A"/>
<path d="M550 60V61H551V60H550ZM549 4V60H551V4H549ZM550 59H300V61H550V59Z" fill="#707070" mask="url(#path-5-inside-3_2110_63472)"/>
<path d="M339.045 26.3636H340.455V34.0682C340.455 34.8636 340.267 35.5739 339.892 36.1989C339.521 36.8201 338.996 37.3106 338.318 37.6705C337.64 38.0265 336.845 38.2045 335.932 38.2045C335.019 38.2045 334.223 38.0265 333.545 37.6705C332.867 37.3106 332.341 36.8201 331.966 36.1989C331.595 35.5739 331.409 34.8636 331.409 34.0682V26.3636H332.818V33.9545C332.818 34.5227 332.943 35.0284 333.193 35.4716C333.443 35.911 333.799 36.2576 334.261 36.5114C334.727 36.7614 335.284 36.8864 335.932 36.8864C336.58 36.8864 337.136 36.7614 337.602 36.5114C338.068 36.2576 338.424 35.911 338.67 35.4716C338.92 35.0284 339.045 34.5227 339.045 33.9545V26.3636ZM344.428 32.75V38H343.087V29.2727H344.382V30.6364H344.496C344.7 30.1932 345.011 29.8371 345.428 29.5682C345.844 29.2955 346.382 29.1591 347.041 29.1591C347.632 29.1591 348.149 29.2803 348.592 29.5227C349.036 29.7614 349.38 30.125 349.626 30.6136C349.873 31.0985 349.996 31.7121 349.996 32.4545V38H348.655V32.5455C348.655 31.8598 348.477 31.3258 348.121 30.9432C347.765 30.5568 347.276 30.3636 346.655 30.3636C346.227 30.3636 345.844 30.4564 345.507 30.642C345.174 30.8277 344.911 31.0985 344.717 31.4545C344.524 31.8106 344.428 32.2424 344.428 32.75ZM355.741 38.1818C355.014 38.1818 354.372 37.9981 353.815 37.6307C353.259 37.2595 352.823 36.7367 352.509 36.0625C352.194 35.3845 352.037 34.5833 352.037 33.6591C352.037 32.7424 352.194 31.947 352.509 31.2727C352.823 30.5985 353.26 30.0777 353.821 29.7102C354.382 29.3428 355.029 29.1591 355.764 29.1591C356.332 29.1591 356.781 29.2538 357.111 29.4432C357.444 29.6288 357.698 29.8409 357.872 30.0795C358.05 30.3144 358.188 30.5076 358.287 30.6591H358.401V26.3636H359.741V38H358.446V36.6591H358.287C358.188 36.8182 358.048 37.0189 357.866 37.2614C357.685 37.5 357.425 37.714 357.088 37.9034C356.751 38.089 356.302 38.1818 355.741 38.1818ZM355.923 36.9773C356.461 36.9773 356.916 36.8371 357.287 36.5568C357.658 36.2727 357.94 35.8807 358.134 35.3807C358.327 34.8769 358.423 34.2955 358.423 33.6364C358.423 32.9848 358.329 32.4148 358.139 31.9261C357.95 31.4337 357.67 31.0511 357.298 30.7784C356.927 30.5019 356.469 30.3636 355.923 30.3636C355.355 30.3636 354.882 30.5095 354.503 30.8011C354.128 31.089 353.846 31.4811 353.656 31.9773C353.471 32.4697 353.378 33.0227 353.378 33.6364C353.378 34.2576 353.473 34.822 353.662 35.3295C353.855 35.8333 354.139 36.2348 354.514 36.5341C354.893 36.8295 355.363 36.9773 355.923 36.9773ZM362.384 38V29.2727H363.679V30.5909H363.77C363.929 30.1591 364.217 29.8087 364.634 29.5398C365.05 29.2708 365.52 29.1364 366.043 29.1364C366.141 29.1364 366.264 29.1383 366.412 29.142C366.56 29.1458 366.671 29.1515 366.747 29.1591V30.5227C366.702 30.5114 366.598 30.4943 366.435 30.4716C366.276 30.4451 366.107 30.4318 365.929 30.4318C365.505 30.4318 365.126 30.5208 364.793 30.6989C364.463 30.8731 364.202 31.1155 364.009 31.4261C363.819 31.733 363.724 32.0833 363.724 32.4773V38H362.384ZM371.73 38.1818C370.889 38.1818 370.164 37.9962 369.554 37.625C368.948 37.25 368.48 36.7273 368.151 36.0568C367.825 35.3826 367.662 34.5985 367.662 33.7045C367.662 32.8106 367.825 32.0227 368.151 31.3409C368.48 30.6553 368.938 30.1212 369.526 29.7386C370.116 29.3523 370.806 29.1591 371.594 29.1591C372.048 29.1591 372.497 29.2348 372.94 29.3864C373.384 29.5379 373.787 29.7841 374.151 30.125C374.514 30.4621 374.804 30.9091 375.02 31.4659C375.236 32.0227 375.344 32.7083 375.344 33.5227V34.0909H368.616V32.9318H373.98C373.98 32.4394 373.882 32 373.685 31.6136C373.491 31.2273 373.215 30.9223 372.855 30.6989C372.499 30.4754 372.079 30.3636 371.594 30.3636C371.06 30.3636 370.598 30.4962 370.207 30.7614C369.821 31.0227 369.524 31.3636 369.315 31.7841C369.107 32.2045 369.003 32.6553 369.003 33.1364V33.9091C369.003 34.5682 369.116 35.1269 369.344 35.5852C369.575 36.0398 369.895 36.3864 370.304 36.625C370.713 36.8598 371.188 36.9773 371.73 36.9773C372.082 36.9773 372.401 36.928 372.685 36.8295C372.973 36.7273 373.221 36.5758 373.429 36.375C373.637 36.1705 373.798 35.9167 373.912 35.6136L375.207 35.9773C375.071 36.4167 374.842 36.803 374.52 37.1364C374.198 37.4659 373.8 37.7235 373.327 37.9091C372.853 38.0909 372.321 38.1818 371.73 38.1818ZM378.724 26.3636V38H377.384V26.3636H378.724ZM381.18 38V29.2727H382.521V38H381.18ZM381.862 27.8182C381.601 27.8182 381.375 27.7292 381.186 27.5511C381 27.3731 380.908 27.1591 380.908 26.9091C380.908 26.6591 381 26.4451 381.186 26.267C381.375 26.089 381.601 26 381.862 26C382.124 26 382.347 26.089 382.533 26.267C382.722 26.4451 382.817 26.6591 382.817 26.9091C382.817 27.1591 382.722 27.3731 382.533 27.5511C382.347 27.7292 382.124 27.8182 381.862 27.8182ZM386.318 32.75V38H384.977V29.2727H386.273V30.6364H386.386C386.591 30.1932 386.902 29.8371 387.318 29.5682C387.735 29.2955 388.273 29.1591 388.932 29.1591C389.523 29.1591 390.04 29.2803 390.483 29.5227C390.926 29.7614 391.271 30.125 391.517 30.6136C391.763 31.0985 391.886 31.7121 391.886 32.4545V38H390.545V32.5455C390.545 31.8598 390.367 31.3258 390.011 30.9432C389.655 30.5568 389.167 30.3636 388.545 30.3636C388.117 30.3636 387.735 30.4564 387.398 30.642C387.064 30.8277 386.801 31.0985 386.608 31.4545C386.415 31.8106 386.318 32.2424 386.318 32.75ZM397.996 38.1818C397.155 38.1818 396.429 37.9962 395.82 37.625C395.214 37.25 394.746 36.7273 394.416 36.0568C394.09 35.3826 393.928 34.5985 393.928 33.7045C393.928 32.8106 394.09 32.0227 394.416 31.3409C394.746 30.6553 395.204 30.1212 395.791 29.7386C396.382 29.3523 397.071 29.1591 397.859 29.1591C398.314 29.1591 398.763 29.2348 399.206 29.3864C399.649 29.5379 400.053 29.7841 400.416 30.125C400.78 30.4621 401.07 30.9091 401.286 31.4659C401.501 32.0227 401.609 32.7083 401.609 33.5227V34.0909H394.882V32.9318H400.246C400.246 32.4394 400.147 32 399.95 31.6136C399.757 31.2273 399.481 30.9223 399.121 30.6989C398.765 30.4754 398.344 30.3636 397.859 30.3636C397.325 30.3636 396.863 30.4962 396.473 30.7614C396.087 31.0227 395.789 31.3636 395.581 31.7841C395.373 32.2045 395.268 32.6553 395.268 33.1364V33.9091C395.268 34.5682 395.382 35.1269 395.609 35.5852C395.84 36.0398 396.161 36.3864 396.57 36.625C396.979 36.8598 397.454 36.9773 397.996 36.9773C398.348 36.9773 398.666 36.928 398.95 36.8295C399.238 36.7273 399.486 36.5758 399.695 36.375C399.903 36.1705 400.064 35.9167 400.178 35.6136L401.473 35.9773C401.337 36.4167 401.107 36.803 400.786 37.1364C400.464 37.4659 400.066 37.7235 399.592 37.9091C399.119 38.0909 398.587 38.1818 397.996 38.1818Z" fill="white" fill-opacity="0.95"/>
<mask id="path-8-inside-4_2110_63472" fill="white">
<path d="M550 4H800V60H550V4Z"/>
</mask>
<path d="M550 4H800V60H550V4Z" fill="#1A1A1A"/>
<path d="M800 60V61H801V60H800ZM799 4V60H801V4H799ZM800 59H550V61H800V59Z" fill="#707070" mask="url(#path-8-inside-4_2110_63472)"/>
<path d="M585.136 38.1591C584.386 38.1591 583.718 38.0303 583.131 37.7727C582.547 37.5152 582.083 37.1572 581.739 36.6989C581.398 36.2367 581.212 35.7008 581.182 35.0909H582.614C582.644 35.4659 582.773 35.7898 583 36.0625C583.227 36.3314 583.525 36.5398 583.892 36.6875C584.259 36.8352 584.667 36.9091 585.114 36.9091C585.614 36.9091 586.057 36.822 586.443 36.6477C586.83 36.4735 587.133 36.2311 587.352 35.9205C587.572 35.6098 587.682 35.25 587.682 34.8409C587.682 34.4129 587.576 34.036 587.364 33.7102C587.152 33.3807 586.841 33.1231 586.432 32.9375C586.023 32.7519 585.523 32.6591 584.932 32.6591H584V31.4091H584.932C585.394 31.4091 585.799 31.3258 586.148 31.1591C586.5 30.9924 586.775 30.7576 586.972 30.4545C587.172 30.1515 587.273 29.7955 587.273 29.3864C587.273 28.9924 587.186 28.6496 587.011 28.358C586.837 28.0663 586.591 27.839 586.273 27.6761C585.958 27.5133 585.587 27.4318 585.159 27.4318C584.758 27.4318 584.379 27.5057 584.023 27.6534C583.67 27.7973 583.383 28.0076 583.159 28.2841C582.936 28.5568 582.814 28.8864 582.795 29.2727H581.432C581.455 28.6629 581.638 28.1288 581.983 27.6705C582.328 27.2083 582.778 26.8485 583.335 26.5909C583.896 26.3333 584.511 26.2045 585.182 26.2045C585.902 26.2045 586.519 26.3504 587.034 26.642C587.549 26.9299 587.945 27.3106 588.222 27.7841C588.498 28.2576 588.636 28.7689 588.636 29.3182C588.636 29.9735 588.464 30.5322 588.119 30.9943C587.778 31.4564 587.314 31.7765 586.727 31.9545V32.0455C587.462 32.1667 588.036 32.4792 588.449 32.983C588.862 33.483 589.068 34.1023 589.068 34.8409C589.068 35.4735 588.896 36.0417 588.551 36.5455C588.21 37.0455 587.744 37.4394 587.153 37.7273C586.563 38.0152 585.89 38.1591 585.136 38.1591ZM591.392 38V36.9773L595.233 32.7727C595.684 32.2803 596.055 31.8523 596.347 31.4886C596.638 31.1212 596.854 30.7765 596.994 30.4545C597.138 30.1288 597.21 29.7879 597.21 29.4318C597.21 29.0227 597.112 28.6686 596.915 28.3693C596.722 28.0701 596.456 27.839 596.119 27.6761C595.782 27.5133 595.403 27.4318 594.983 27.4318C594.536 27.4318 594.146 27.5246 593.812 27.7102C593.483 27.892 593.227 28.1477 593.045 28.4773C592.867 28.8068 592.778 29.1932 592.778 29.6364H591.438C591.438 28.9545 591.595 28.3561 591.909 27.8409C592.223 27.3258 592.652 26.9242 593.193 26.6364C593.739 26.3485 594.35 26.2045 595.028 26.2045C595.71 26.2045 596.314 26.3485 596.841 26.6364C597.367 26.9242 597.78 27.3125 598.08 27.8011C598.379 28.2898 598.528 28.8333 598.528 29.4318C598.528 29.8598 598.451 30.2784 598.295 30.6875C598.144 31.0928 597.879 31.5455 597.5 32.0455C597.125 32.5417 596.604 33.1477 595.938 33.8636L593.324 36.6591V36.75H598.733V38H591.392ZM601.102 41.2727V29.2727H602.398V30.6591H602.557C602.655 30.5076 602.792 30.3144 602.966 30.0795C603.144 29.8409 603.398 29.6288 603.727 29.4432C604.061 29.2538 604.511 29.1591 605.08 29.1591C605.814 29.1591 606.462 29.3428 607.023 29.7102C607.583 30.0777 608.021 30.5985 608.335 31.2727C608.65 31.947 608.807 32.7424 608.807 33.6591C608.807 34.5833 608.65 35.3845 608.335 36.0625C608.021 36.7367 607.585 37.2595 607.028 37.6307C606.472 37.9981 605.83 38.1818 605.102 38.1818C604.542 38.1818 604.093 38.089 603.756 37.9034C603.419 37.714 603.159 37.5 602.977 37.2614C602.795 37.0189 602.655 36.8182 602.557 36.6591H602.443V41.2727H601.102ZM602.42 33.6364C602.42 34.2955 602.517 34.8769 602.71 35.3807C602.903 35.8807 603.186 36.2727 603.557 36.5568C603.928 36.8371 604.383 36.9773 604.92 36.9773C605.481 36.9773 605.949 36.8295 606.324 36.5341C606.703 36.2348 606.987 35.8333 607.176 35.3295C607.369 34.822 607.466 34.2576 607.466 33.6364C607.466 33.0227 607.371 32.4697 607.182 31.9773C606.996 31.4811 606.714 31.089 606.335 30.8011C605.96 30.5095 605.489 30.3636 604.92 30.3636C604.375 30.3636 603.917 30.5019 603.545 30.7784C603.174 31.0511 602.894 31.4337 602.705 31.9261C602.515 32.4148 602.42 32.9848 602.42 33.6364ZM611.493 29.2727L613.584 32.8409L615.675 29.2727H617.22L614.402 33.6364L617.22 38H615.675L613.584 34.6136L611.493 38H609.947L612.72 33.6364L609.947 29.2727H611.493ZM624.974 32.75V38H623.634V26.3636H624.974V30.6364H625.088C625.293 30.1856 625.599 29.8277 626.009 29.5625C626.421 29.2936 626.971 29.1591 627.656 29.1591C628.251 29.1591 628.772 29.2784 629.219 29.517C629.666 29.7519 630.012 30.1136 630.259 30.6023C630.509 31.0871 630.634 31.7045 630.634 32.4545V38H629.293V32.5455C629.293 31.8523 629.113 31.3163 628.753 30.9375C628.397 30.5549 627.902 30.3636 627.27 30.3636C626.83 30.3636 626.437 30.4564 626.088 30.642C625.743 30.8277 625.471 31.0985 625.27 31.4545C625.073 31.8106 624.974 32.2424 624.974 32.75ZM636.746 38.1818C635.905 38.1818 635.179 37.9962 634.57 37.625C633.964 37.25 633.496 36.7273 633.166 36.0568C632.84 35.3826 632.678 34.5985 632.678 33.7045C632.678 32.8106 632.84 32.0227 633.166 31.3409C633.496 30.6553 633.954 30.1212 634.541 29.7386C635.132 29.3523 635.821 29.1591 636.609 29.1591C637.064 29.1591 637.513 29.2348 637.956 29.3864C638.399 29.5379 638.803 29.7841 639.166 30.125C639.53 30.4621 639.82 30.9091 640.036 31.4659C640.251 32.0227 640.359 32.7083 640.359 33.5227V34.0909H633.632V32.9318H638.996C638.996 32.4394 638.897 32 638.7 31.6136C638.507 31.2273 638.231 30.9223 637.871 30.6989C637.515 30.4754 637.094 30.3636 636.609 30.3636C636.075 30.3636 635.613 30.4962 635.223 30.7614C634.837 31.0227 634.539 31.3636 634.331 31.7841C634.123 32.2045 634.018 32.6553 634.018 33.1364V33.9091C634.018 34.5682 634.132 35.1269 634.359 35.5852C634.59 36.0398 634.911 36.3864 635.32 36.625C635.729 36.8598 636.204 36.9773 636.746 36.9773C637.098 36.9773 637.416 36.928 637.7 36.8295C637.988 36.7273 638.236 36.5758 638.445 36.375C638.653 36.1705 638.814 35.9167 638.928 35.6136L640.223 35.9773C640.087 36.4167 639.857 36.803 639.536 37.1364C639.214 37.4659 638.816 37.7235 638.342 37.9091C637.869 38.0909 637.337 38.1818 636.746 38.1818ZM642.399 38V29.2727H643.74V38H642.399ZM643.081 27.8182C642.82 27.8182 642.594 27.7292 642.405 27.5511C642.219 27.3731 642.126 27.1591 642.126 26.9091C642.126 26.6591 642.219 26.4451 642.405 26.267C642.594 26.089 642.82 26 643.081 26C643.342 26 643.566 26.089 643.751 26.267C643.941 26.4451 644.036 26.6591 644.036 26.9091C644.036 27.1591 643.941 27.3731 643.751 27.5511C643.566 27.7292 643.342 27.8182 643.081 27.8182ZM649.719 41.4545C649.071 41.4545 648.514 41.3712 648.048 41.2045C647.582 41.0417 647.194 40.8258 646.884 40.5568C646.577 40.2917 646.332 40.0076 646.151 39.7045L647.219 38.9545C647.34 39.1136 647.493 39.2955 647.679 39.5C647.865 39.7083 648.118 39.8883 648.44 40.0398C648.766 40.1951 649.192 40.2727 649.719 40.2727C650.423 40.2727 651.005 40.1023 651.463 39.7614C651.921 39.4205 652.151 38.8864 652.151 38.1591V36.3864H652.037C651.938 36.5455 651.798 36.7424 651.616 36.9773C651.438 37.2083 651.181 37.4148 650.844 37.5966C650.51 37.7746 650.06 37.8636 649.491 37.8636C648.787 37.8636 648.154 37.697 647.594 37.3636C647.037 37.0303 646.596 36.5455 646.27 35.9091C645.948 35.2727 645.787 34.5 645.787 33.5909C645.787 32.697 645.944 31.9186 646.259 31.2557C646.573 30.589 647.01 30.0739 647.571 29.7102C648.132 29.3428 648.779 29.1591 649.514 29.1591C650.082 29.1591 650.533 29.2538 650.866 29.4432C651.204 29.6288 651.461 29.8409 651.639 30.0795C651.821 30.3144 651.961 30.5076 652.06 30.6591H652.196V29.2727H653.491V38.25C653.491 39 653.321 39.6098 652.98 40.0795C652.643 40.553 652.188 40.8996 651.616 41.1193C651.048 41.3428 650.416 41.4545 649.719 41.4545ZM649.673 36.6591C650.211 36.6591 650.666 36.536 651.037 36.2898C651.408 36.0436 651.69 35.6894 651.884 35.2273C652.077 34.7652 652.173 34.2121 652.173 33.5682C652.173 32.9394 652.079 32.3845 651.889 31.9034C651.7 31.4223 651.42 31.0455 651.048 30.7727C650.677 30.5 650.219 30.3636 649.673 30.3636C649.105 30.3636 648.632 30.5076 648.253 30.7955C647.878 31.0833 647.596 31.4697 647.406 31.9545C647.221 32.4394 647.128 32.9773 647.128 33.5682C647.128 34.1742 647.223 34.7102 647.412 35.1761C647.605 35.6383 647.889 36.0019 648.264 36.267C648.643 36.5284 649.113 36.6591 649.673 36.6591ZM657.287 32.75V38H655.946V26.3636H657.287V30.6364H657.401C657.605 30.1856 657.912 29.8277 658.321 29.5625C658.734 29.2936 659.283 29.1591 659.969 29.1591C660.563 29.1591 661.084 29.2784 661.531 29.517C661.978 29.7519 662.325 30.1136 662.571 30.6023C662.821 31.0871 662.946 31.7045 662.946 32.4545V38H661.605V32.5455C661.605 31.8523 661.425 31.3163 661.065 30.9375C660.709 30.5549 660.215 30.3636 659.582 30.3636C659.143 30.3636 658.749 30.4564 658.401 30.642C658.056 30.8277 657.783 31.0985 657.582 31.4545C657.385 31.8106 657.287 32.2424 657.287 32.75ZM669.195 29.2727V30.4091H664.672V29.2727H669.195ZM665.99 27.1818H667.331V35.5C667.331 35.8788 667.386 36.1629 667.496 36.3523C667.609 36.5379 667.753 36.6629 667.928 36.7273C668.106 36.7879 668.293 36.8182 668.49 36.8182C668.638 36.8182 668.759 36.8106 668.854 36.7955C668.948 36.7765 669.024 36.7614 669.081 36.75L669.354 37.9545C669.263 37.9886 669.136 38.0227 668.973 38.0568C668.81 38.0947 668.604 38.1136 668.354 38.1136C667.975 38.1136 667.604 38.0322 667.24 37.8693C666.88 37.7064 666.581 37.4583 666.342 37.125C666.107 36.7917 665.99 36.3712 665.99 35.8636V27.1818Z" fill="white" fill-opacity="0.95"/>
<mask id="path-11-inside-5_2110_63472" fill="white">
<path d="M800 4H1300V60H800V4Z"/>
</mask>
<path d="M800 4H1300V60H800V4Z" fill="#1A1A1A"/>
<path d="M1300 59H800V61H1300V59Z" fill="#707070" mask="url(#path-11-inside-5_2110_63472)"/>
<path d="M835.023 29.2727V30.4091H830.5V29.2727H835.023ZM831.818 27.1818H833.159V35.5C833.159 35.8788 833.214 36.1629 833.324 36.3523C833.438 36.5379 833.581 36.6629 833.756 36.7273C833.934 36.7879 834.121 36.8182 834.318 36.8182C834.466 36.8182 834.587 36.8106 834.682 36.7955C834.777 36.7765 834.852 36.7614 834.909 36.75L835.182 37.9545C835.091 37.9886 834.964 38.0227 834.801 38.0568C834.638 38.0947 834.432 38.1136 834.182 38.1136C833.803 38.1136 833.432 38.0322 833.068 37.8693C832.708 37.7064 832.409 37.4583 832.17 37.125C831.936 36.7917 831.818 36.3712 831.818 35.8636V27.1818ZM838.568 32.75V38H837.227V26.3636H838.568V30.6364H838.682C838.886 30.1856 839.193 29.8277 839.602 29.5625C840.015 29.2936 840.564 29.1591 841.25 29.1591C841.845 29.1591 842.366 29.2784 842.812 29.517C843.259 29.7519 843.606 30.1136 843.852 30.6023C844.102 31.0871 844.227 31.7045 844.227 32.4545V38H842.886V32.5455C842.886 31.8523 842.706 31.3163 842.347 30.9375C841.991 30.5549 841.496 30.3636 840.864 30.3636C840.424 30.3636 840.03 30.4564 839.682 30.642C839.337 30.8277 839.064 31.0985 838.864 31.4545C838.667 31.8106 838.568 32.2424 838.568 32.75ZM850.339 38.1818C849.499 38.1818 848.773 37.9962 848.163 37.625C847.557 37.25 847.089 36.7273 846.76 36.0568C846.434 35.3826 846.271 34.5985 846.271 33.7045C846.271 32.8106 846.434 32.0227 846.76 31.3409C847.089 30.6553 847.548 30.1212 848.135 29.7386C848.726 29.3523 849.415 29.1591 850.203 29.1591C850.658 29.1591 851.107 29.2348 851.55 29.3864C851.993 29.5379 852.396 29.7841 852.76 30.125C853.124 30.4621 853.413 30.9091 853.629 31.4659C853.845 32.0227 853.953 32.7083 853.953 33.5227V34.0909H847.226V32.9318H852.589C852.589 32.4394 852.491 32 852.294 31.6136C852.101 31.2273 851.824 30.9223 851.464 30.6989C851.108 30.4754 850.688 30.3636 850.203 30.3636C849.669 30.3636 849.207 30.4962 848.817 30.7614C848.43 31.0227 848.133 31.3636 847.925 31.7841C847.716 32.2045 847.612 32.6553 847.612 33.1364V33.9091C847.612 34.5682 847.726 35.1269 847.953 35.5852C848.184 36.0398 848.504 36.3864 848.913 36.625C849.322 36.8598 849.798 36.9773 850.339 36.9773C850.692 36.9773 851.01 36.928 851.294 36.8295C851.582 36.7273 851.83 36.5758 852.038 36.375C852.247 36.1705 852.408 35.9167 852.521 35.6136L853.817 35.9773C853.68 36.4167 853.451 36.803 853.129 37.1364C852.807 37.4659 852.41 37.7235 851.936 37.9091C851.463 38.0909 850.93 38.1818 850.339 38.1818ZM855.993 38V29.2727H857.288V30.6364H857.402C857.584 30.1705 857.877 29.8087 858.283 29.5511C858.688 29.2898 859.175 29.1591 859.743 29.1591C860.319 29.1591 860.798 29.2898 861.18 29.5511C861.567 29.8087 861.868 30.1705 862.084 30.6364H862.175C862.398 30.1856 862.733 29.8277 863.18 29.5625C863.627 29.2936 864.163 29.1591 864.788 29.1591C865.569 29.1591 866.207 29.4034 866.703 29.892C867.199 30.3769 867.447 31.1326 867.447 32.1591V38H866.107V32.1591C866.107 31.5152 865.93 31.0549 865.578 30.7784C865.226 30.5019 864.811 30.3636 864.334 30.3636C863.72 30.3636 863.245 30.5492 862.908 30.9205C862.571 31.2879 862.402 31.7538 862.402 32.3182V38H861.038V32.0227C861.038 31.5265 860.877 31.1269 860.555 30.8239C860.233 30.517 859.819 30.3636 859.311 30.3636C858.963 30.3636 858.637 30.4564 858.334 30.642C858.035 30.8277 857.792 31.0852 857.607 31.4148C857.425 31.7405 857.334 32.1174 857.334 32.5455V38H855.993ZM873.558 38.1818C872.717 38.1818 871.992 37.9962 871.382 37.625C870.776 37.25 870.308 36.7273 869.979 36.0568C869.653 35.3826 869.49 34.5985 869.49 33.7045C869.49 32.8106 869.653 32.0227 869.979 31.3409C870.308 30.6553 870.767 30.1212 871.354 29.7386C871.945 29.3523 872.634 29.1591 873.422 29.1591C873.876 29.1591 874.325 29.2348 874.768 29.3864C875.212 29.5379 875.615 29.7841 875.979 30.125C876.342 30.4621 876.632 30.9091 876.848 31.4659C877.064 32.0227 877.172 32.7083 877.172 33.5227V34.0909H870.445V32.9318H875.808C875.808 32.4394 875.71 32 875.513 31.6136C875.32 31.2273 875.043 30.9223 874.683 30.6989C874.327 30.4754 873.907 30.3636 873.422 30.3636C872.888 30.3636 872.426 30.4962 872.036 30.7614C871.649 31.0227 871.352 31.3636 871.143 31.7841C870.935 32.2045 870.831 32.6553 870.831 33.1364V33.9091C870.831 34.5682 870.945 35.1269 871.172 35.5852C871.403 36.0398 871.723 36.3864 872.132 36.625C872.541 36.8598 873.017 36.9773 873.558 36.9773C873.911 36.9773 874.229 36.928 874.513 36.8295C874.801 36.7273 875.049 36.5758 875.257 36.375C875.465 36.1705 875.626 35.9167 875.74 35.6136L877.036 35.9773C876.899 36.4167 876.67 36.803 876.348 37.1364C876.026 37.4659 875.628 37.7235 875.155 37.9091C874.681 38.0909 874.149 38.1818 873.558 38.1818ZM883.325 25.8182L879.575 39.75H878.348L882.098 25.8182H883.325ZM886.256 32.75V38H884.915V29.2727H886.21V30.6364H886.324C886.528 30.1932 886.839 29.8371 887.256 29.5682C887.672 29.2955 888.21 29.1591 888.869 29.1591C889.46 29.1591 889.977 29.2803 890.42 29.5227C890.864 29.7614 891.208 30.125 891.455 30.6136C891.701 31.0985 891.824 31.7121 891.824 32.4545V38H890.483V32.5455C890.483 31.8598 890.305 31.3258 889.949 30.9432C889.593 30.5568 889.104 30.3636 888.483 30.3636C888.055 30.3636 887.672 30.4564 887.335 30.642C887.002 30.8277 886.739 31.0985 886.545 31.4545C886.352 31.8106 886.256 32.2424 886.256 32.75ZM897.933 38.1818C897.092 38.1818 896.367 37.9962 895.757 37.625C895.151 37.25 894.683 36.7273 894.354 36.0568C894.028 35.3826 893.865 34.5985 893.865 33.7045C893.865 32.8106 894.028 32.0227 894.354 31.3409C894.683 30.6553 895.142 30.1212 895.729 29.7386C896.32 29.3523 897.009 29.1591 897.797 29.1591C898.251 29.1591 898.7 29.2348 899.143 29.3864C899.587 29.5379 899.99 29.7841 900.354 30.125C900.717 30.4621 901.007 30.9091 901.223 31.4659C901.439 32.0227 901.547 32.7083 901.547 33.5227V34.0909H894.82V32.9318H900.183C900.183 32.4394 900.085 32 899.888 31.6136C899.695 31.2273 899.418 30.9223 899.058 30.6989C898.702 30.4754 898.282 30.3636 897.797 30.3636C897.263 30.3636 896.801 30.4962 896.411 30.7614C896.024 31.0227 895.727 31.3636 895.518 31.7841C895.31 32.2045 895.206 32.6553 895.206 33.1364V33.9091C895.206 34.5682 895.32 35.1269 895.547 35.5852C895.778 36.0398 896.098 36.3864 896.507 36.625C896.916 36.8598 897.392 36.9773 897.933 36.9773C898.286 36.9773 898.604 36.928 898.888 36.8295C899.176 36.7273 899.424 36.5758 899.632 36.375C899.84 36.1705 900.001 35.9167 900.115 35.6136L901.411 35.9773C901.274 36.4167 901.045 36.803 900.723 37.1364C900.401 37.4659 900.003 37.7235 899.53 37.9091C899.056 38.0909 898.524 38.1818 897.933 38.1818ZM909.087 34.4318V29.2727H910.428V38H909.087V36.5227H908.996C908.791 36.9659 908.473 37.3428 908.041 37.6534C907.609 37.9602 907.064 38.1136 906.405 38.1136C905.859 38.1136 905.375 37.9943 904.95 37.7557C904.526 37.5133 904.193 37.1496 903.95 36.6648C903.708 36.1761 903.587 35.5606 903.587 34.8182V29.2727H904.928V34.7273C904.928 35.3636 905.106 35.8712 905.462 36.25C905.821 36.6288 906.28 36.8182 906.837 36.8182C907.17 36.8182 907.509 36.733 907.854 36.5625C908.202 36.392 908.494 36.1307 908.729 35.7784C908.967 35.4261 909.087 34.9773 909.087 34.4318ZM916.679 29.2727V30.4091H912.156V29.2727H916.679ZM913.474 27.1818H914.815V35.5C914.815 35.8788 914.87 36.1629 914.98 36.3523C915.094 36.5379 915.238 36.6629 915.412 36.7273C915.59 36.7879 915.777 36.8182 915.974 36.8182C916.122 36.8182 916.243 36.8106 916.338 36.7955C916.433 36.7765 916.509 36.7614 916.565 36.75L916.838 37.9545C916.747 37.9886 916.62 38.0227 916.457 38.0568C916.295 38.0947 916.088 38.1136 915.838 38.1136C915.459 38.1136 915.088 38.0322 914.724 37.8693C914.365 37.7064 914.065 37.4583 913.827 37.125C913.592 36.7917 913.474 36.3712 913.474 35.8636V27.1818ZM918.696 38V29.2727H919.991V30.5909H920.082C920.241 30.1591 920.529 29.8087 920.946 29.5398C921.363 29.2708 921.832 29.1364 922.355 29.1364C922.454 29.1364 922.577 29.1383 922.724 29.142C922.872 29.1458 922.984 29.1515 923.06 29.1591V30.5227C923.014 30.5114 922.91 30.4943 922.747 30.4716C922.588 30.4451 922.42 30.4318 922.241 30.4318C921.817 30.4318 921.438 30.5208 921.105 30.6989C920.776 30.8731 920.514 31.1155 920.321 31.4261C920.132 31.733 920.037 32.0833 920.037 32.4773V38H918.696ZM927.217 38.2045C926.664 38.2045 926.162 38.1004 925.712 37.892C925.261 37.6799 924.903 37.375 924.638 36.9773C924.373 36.5758 924.24 36.0909 924.24 35.5227C924.24 35.0227 924.339 34.6174 924.536 34.3068C924.732 33.9924 924.996 33.7462 925.325 33.5682C925.655 33.3902 926.018 33.2576 926.416 33.1705C926.818 33.0795 927.221 33.0076 927.626 32.9545C928.157 32.8864 928.587 32.8352 928.916 32.8011C929.25 32.7633 929.492 32.7008 929.643 32.6136C929.799 32.5265 929.876 32.375 929.876 32.1591V32.1136C929.876 31.553 929.723 31.1174 929.416 30.8068C929.113 30.4962 928.653 30.3409 928.036 30.3409C927.395 30.3409 926.893 30.4811 926.53 30.7614C926.166 31.0417 925.911 31.3409 925.763 31.6591L924.49 31.2045C924.717 30.6742 925.02 30.2614 925.399 29.9659C925.782 29.6667 926.198 29.4583 926.649 29.3409C927.104 29.2197 927.551 29.1591 927.99 29.1591C928.27 29.1591 928.592 29.1932 928.956 29.2614C929.323 29.3258 929.678 29.4602 930.018 29.6648C930.363 29.8693 930.649 30.178 930.876 30.5909C931.104 31.0038 931.217 31.5568 931.217 32.25V38H929.876V36.8182H929.808C929.717 37.0076 929.566 37.2102 929.354 37.4261C929.142 37.642 928.859 37.8258 928.507 37.9773C928.155 38.1288 927.725 38.2045 927.217 38.2045ZM927.422 37C927.952 37 928.399 36.8958 928.763 36.6875C929.13 36.4792 929.407 36.2102 929.592 35.8807C929.782 35.5511 929.876 35.2045 929.876 34.8409V33.6136C929.82 33.6818 929.695 33.7443 929.501 33.8011C929.312 33.8542 929.092 33.9015 928.842 33.9432C928.596 33.9811 928.356 34.0152 928.121 34.0455C927.89 34.072 927.702 34.0947 927.558 34.1136C927.21 34.1591 926.884 34.233 926.581 34.3352C926.282 34.4337 926.039 34.5833 925.854 34.7841C925.672 34.9811 925.581 35.25 925.581 35.5909C925.581 36.0568 925.753 36.4091 926.098 36.6477C926.446 36.8826 926.888 37 927.422 37ZM935.006 26.3636V38H933.665V26.3636H935.006ZM941.575 25.8182L937.825 39.75H936.598L940.348 25.8182H941.575ZM943.347 38V26.3636H944.688V30.6591H944.801C944.9 30.5076 945.036 30.3144 945.21 30.0795C945.388 29.8409 945.642 29.6288 945.972 29.4432C946.305 29.2538 946.756 29.1591 947.324 29.1591C948.059 29.1591 948.706 29.3428 949.267 29.7102C949.828 30.0777 950.265 30.5985 950.58 31.2727C950.894 31.947 951.051 32.7424 951.051 33.6591C951.051 34.5833 950.894 35.3845 950.58 36.0625C950.265 36.7367 949.83 37.2595 949.273 37.6307C948.716 37.9981 948.074 38.1818 947.347 38.1818C946.786 38.1818 946.337 38.089 946 37.9034C945.663 37.714 945.403 37.5 945.222 37.2614C945.04 37.0189 944.9 36.8182 944.801 36.6591H944.642V38H943.347ZM944.665 33.6364C944.665 34.2955 944.761 34.8769 944.955 35.3807C945.148 35.8807 945.43 36.2727 945.801 36.5568C946.172 36.8371 946.627 36.9773 947.165 36.9773C947.725 36.9773 948.193 36.8295 948.568 36.5341C948.947 36.2348 949.231 35.8333 949.42 35.3295C949.614 34.822 949.71 34.2576 949.71 33.6364C949.71 33.0227 949.616 32.4697 949.426 31.9773C949.241 31.4811 948.958 31.089 948.58 30.8011C948.205 30.5095 947.733 30.3636 947.165 30.3636C946.619 30.3636 946.161 30.5019 945.79 30.7784C945.419 31.0511 945.138 31.4337 944.949 31.9261C944.759 32.4148 944.665 32.9848 944.665 33.6364ZM956.648 38.1818C955.86 38.1818 955.169 37.9943 954.574 37.6193C953.983 37.2443 953.521 36.7197 953.188 36.0455C952.858 35.3712 952.693 34.5833 952.693 33.6818C952.693 32.7727 952.858 31.9792 953.188 31.3011C953.521 30.6231 953.983 30.0966 954.574 29.7216C955.169 29.3466 955.86 29.1591 956.648 29.1591C957.436 29.1591 958.125 29.3466 958.716 29.7216C959.311 30.0966 959.773 30.6231 960.102 31.3011C960.436 31.9792 960.602 32.7727 960.602 33.6818C960.602 34.5833 960.436 35.3712 960.102 36.0455C959.773 36.7197 959.311 37.2443 958.716 37.6193C958.125 37.9943 957.436 38.1818 956.648 38.1818ZM956.648 36.9773C957.246 36.9773 957.739 36.8239 958.125 36.517C958.511 36.2102 958.797 35.8068 958.983 35.3068C959.169 34.8068 959.261 34.2652 959.261 33.6818C959.261 33.0985 959.169 32.5549 958.983 32.0511C958.797 31.5473 958.511 31.1402 958.125 30.8295C957.739 30.5189 957.246 30.3636 956.648 30.3636C956.049 30.3636 955.557 30.5189 955.17 30.8295C954.784 31.1402 954.498 31.5473 954.312 32.0511C954.127 32.5549 954.034 33.0985 954.034 33.6818C954.034 34.2652 954.127 34.8068 954.312 35.3068C954.498 35.8068 954.784 36.2102 955.17 36.517C955.557 36.8239 956.049 36.9773 956.648 36.9773ZM962.649 38V29.2727H963.945V30.5909H964.036C964.195 30.1591 964.482 29.8087 964.899 29.5398C965.316 29.2708 965.786 29.1364 966.308 29.1364C966.407 29.1364 966.53 29.1383 966.678 29.142C966.825 29.1458 966.937 29.1515 967.013 29.1591V30.5227C966.967 30.5114 966.863 30.4943 966.7 30.4716C966.541 30.4451 966.373 30.4318 966.195 30.4318C965.77 30.4318 965.392 30.5208 965.058 30.6989C964.729 30.8731 964.467 31.1155 964.274 31.4261C964.085 31.733 963.99 32.0833 963.99 32.4773V38H962.649ZM971.632 38.1818C970.905 38.1818 970.263 37.9981 969.706 37.6307C969.149 37.2595 968.714 36.7367 968.399 36.0625C968.085 35.3845 967.928 34.5833 967.928 33.6591C967.928 32.7424 968.085 31.947 968.399 31.2727C968.714 30.5985 969.151 30.0777 969.712 29.7102C970.272 29.3428 970.92 29.1591 971.655 29.1591C972.223 29.1591 972.672 29.2538 973.001 29.4432C973.335 29.6288 973.589 29.8409 973.763 30.0795C973.941 30.3144 974.079 30.5076 974.178 30.6591H974.291V26.3636H975.632V38H974.337V36.6591H974.178C974.079 36.8182 973.939 37.0189 973.757 37.2614C973.575 37.5 973.316 37.714 972.979 37.9034C972.642 38.089 972.193 38.1818 971.632 38.1818ZM971.814 36.9773C972.352 36.9773 972.806 36.8371 973.178 36.5568C973.549 36.2727 973.831 35.8807 974.024 35.3807C974.217 34.8769 974.314 34.2955 974.314 33.6364C974.314 32.9848 974.219 32.4148 974.03 31.9261C973.84 31.4337 973.56 31.0511 973.189 30.7784C972.818 30.5019 972.359 30.3636 971.814 30.3636C971.246 30.3636 970.772 30.5095 970.393 30.8011C970.018 31.089 969.736 31.4811 969.547 31.9773C969.361 32.4697 969.268 33.0227 969.268 33.6364C969.268 34.2576 969.363 34.822 969.553 35.3295C969.746 35.8333 970.03 36.2348 970.405 36.5341C970.784 36.8295 971.253 36.9773 971.814 36.9773ZM981.933 38.1818C981.092 38.1818 980.367 37.9962 979.757 37.625C979.151 37.25 978.683 36.7273 978.354 36.0568C978.028 35.3826 977.865 34.5985 977.865 33.7045C977.865 32.8106 978.028 32.0227 978.354 31.3409C978.683 30.6553 979.142 30.1212 979.729 29.7386C980.32 29.3523 981.009 29.1591 981.797 29.1591C982.251 29.1591 982.7 29.2348 983.143 29.3864C983.587 29.5379 983.99 29.7841 984.354 30.125C984.717 30.4621 985.007 30.9091 985.223 31.4659C985.439 32.0227 985.547 32.7083 985.547 33.5227V34.0909H978.82V32.9318H984.183C984.183 32.4394 984.085 32 983.888 31.6136C983.695 31.2273 983.418 30.9223 983.058 30.6989C982.702 30.4754 982.282 30.3636 981.797 30.3636C981.263 30.3636 980.801 30.4962 980.411 30.7614C980.024 31.0227 979.727 31.3636 979.518 31.7841C979.31 32.2045 979.206 32.6553 979.206 33.1364V33.9091C979.206 34.5682 979.32 35.1269 979.547 35.5852C979.778 36.0398 980.098 36.3864 980.507 36.625C980.916 36.8598 981.392 36.9773 981.933 36.9773C982.286 36.9773 982.604 36.928 982.888 36.8295C983.176 36.7273 983.424 36.5758 983.632 36.375C983.84 36.1705 984.001 35.9167 984.115 35.6136L985.411 35.9773C985.274 36.4167 985.045 36.803 984.723 37.1364C984.401 37.4659 984.003 37.7235 983.53 37.9091C983.056 38.0909 982.524 38.1818 981.933 38.1818ZM987.587 38V29.2727H988.882V30.5909H988.973C989.132 30.1591 989.42 29.8087 989.837 29.5398C990.253 29.2708 990.723 29.1364 991.246 29.1364C991.344 29.1364 991.467 29.1383 991.615 29.142C991.763 29.1458 991.875 29.1515 991.95 29.1591V30.5227C991.905 30.5114 991.801 30.4943 991.638 30.4716C991.479 30.4451 991.31 30.4318 991.132 30.4318C990.708 30.4318 990.329 30.5208 989.996 30.6989C989.666 30.8731 989.405 31.1155 989.212 31.4261C989.022 31.733 988.928 32.0833 988.928 32.4773V38H987.587ZM997.107 25.8182L993.357 39.75H992.129L995.879 25.8182H997.107ZM1004.88 31.2273L1003.67 31.5682C1003.6 31.3674 1003.49 31.1723 1003.34 30.983C1003.19 30.7898 1003 30.6307 1002.75 30.5057C1002.5 30.3807 1002.18 30.3182 1001.79 30.3182C1001.25 30.3182 1000.81 30.4413 1000.45 30.6875C1000.1 30.9299 999.923 31.2386 999.923 31.6136C999.923 31.947 1000.04 32.2102 1000.29 32.4034C1000.53 32.5966 1000.91 32.7576 1001.42 32.8864L1002.72 33.2045C1003.5 33.3939 1004.08 33.6837 1004.46 34.0739C1004.85 34.4602 1005.04 34.9583 1005.04 35.5682C1005.04 36.0682 1004.89 36.5152 1004.61 36.9091C1004.32 37.303 1003.92 37.6136 1003.41 37.8409C1002.9 38.0682 1002.31 38.1818 1001.63 38.1818C1000.74 38.1818 1000 37.9886 999.418 37.6023C998.834 37.2159 998.465 36.6515 998.31 35.9091L999.582 35.5909C999.704 36.0606 999.933 36.4129 1000.27 36.6477C1000.61 36.8826 1001.06 37 1001.61 37C1002.23 37 1002.73 36.8674 1003.09 36.6023C1003.46 36.3333 1003.65 36.0114 1003.65 35.6364C1003.65 35.3333 1003.54 35.0795 1003.33 34.875C1003.12 34.6667 1002.79 34.5114 1002.36 34.4091L1000.9 34.0682C1000.1 33.8788 999.514 33.5852 999.139 33.1875C998.768 32.786 998.582 32.2841 998.582 31.6818C998.582 31.1894 998.721 30.7538 998.997 30.375C999.277 29.9962 999.658 29.6989 1000.14 29.483C1000.62 29.267 1001.17 29.1591 1001.79 29.1591C1002.65 29.1591 1003.33 29.3485 1003.82 29.7273C1004.32 30.1061 1004.67 30.6061 1004.88 31.2273ZM1010.85 29.2727V30.4091H1006.33V29.2727H1010.85ZM1007.65 27.1818H1008.99V35.5C1008.99 35.8788 1009.04 36.1629 1009.15 36.3523C1009.27 36.5379 1009.41 36.6629 1009.58 36.7273C1009.76 36.7879 1009.95 36.8182 1010.15 36.8182C1010.29 36.8182 1010.42 36.8106 1010.51 36.7955C1010.6 36.7765 1010.68 36.7614 1010.74 36.75L1011.01 37.9545C1010.92 37.9886 1010.79 38.0227 1010.63 38.0568C1010.47 38.0947 1010.26 38.1136 1010.01 38.1136C1009.63 38.1136 1009.26 38.0322 1008.9 37.8693C1008.54 37.7064 1008.24 37.4583 1008 37.125C1007.76 36.7917 1007.65 36.3712 1007.65 35.8636V27.1818ZM1012.87 38V29.2727H1014.16V30.5909H1014.25C1014.41 30.1591 1014.7 29.8087 1015.12 29.5398C1015.53 29.2708 1016 29.1364 1016.53 29.1364C1016.63 29.1364 1016.75 29.1383 1016.9 29.142C1017.04 29.1458 1017.16 29.1515 1017.23 29.1591V30.5227C1017.19 30.5114 1017.08 30.4943 1016.92 30.4716C1016.76 30.4451 1016.59 30.4318 1016.41 30.4318C1015.99 30.4318 1015.61 30.5208 1015.28 30.6989C1014.95 30.8731 1014.69 31.1155 1014.49 31.4261C1014.3 31.733 1014.21 32.0833 1014.21 32.4773V38H1012.87ZM1022.1 38.1818C1021.31 38.1818 1020.62 37.9943 1020.03 37.6193C1019.44 37.2443 1018.97 36.7197 1018.64 36.0455C1018.31 35.3712 1018.15 34.5833 1018.15 33.6818C1018.15 32.7727 1018.31 31.9792 1018.64 31.3011C1018.97 30.6231 1019.44 30.0966 1020.03 29.7216C1020.62 29.3466 1021.31 29.1591 1022.1 29.1591C1022.89 29.1591 1023.58 29.3466 1024.17 29.7216C1024.76 30.0966 1025.23 30.6231 1025.56 31.3011C1025.89 31.9792 1026.06 32.7727 1026.06 33.6818C1026.06 34.5833 1025.89 35.3712 1025.56 36.0455C1025.23 36.7197 1024.76 37.2443 1024.17 37.6193C1023.58 37.9943 1022.89 38.1818 1022.1 38.1818ZM1022.1 36.9773C1022.7 36.9773 1023.19 36.8239 1023.58 36.517C1023.96 36.2102 1024.25 35.8068 1024.44 35.3068C1024.62 34.8068 1024.71 34.2652 1024.71 33.6818C1024.71 33.0985 1024.62 32.5549 1024.44 32.0511C1024.25 31.5473 1023.96 31.1402 1023.58 30.8295C1023.19 30.5189 1022.7 30.3636 1022.1 30.3636C1021.5 30.3636 1021.01 30.5189 1020.62 30.8295C1020.24 31.1402 1019.95 31.5473 1019.77 32.0511C1019.58 32.5549 1019.49 33.0985 1019.49 33.6818C1019.49 34.2652 1019.58 34.8068 1019.77 35.3068C1019.95 35.8068 1020.24 36.2102 1020.62 36.517C1021.01 36.8239 1021.5 36.9773 1022.1 36.9773ZM1029.44 32.75V38H1028.1V29.2727H1029.4V30.6364H1029.51C1029.72 30.1932 1030.03 29.8371 1030.44 29.5682C1030.86 29.2955 1031.4 29.1591 1032.06 29.1591C1032.65 29.1591 1033.16 29.2803 1033.61 29.5227C1034.05 29.7614 1034.4 30.125 1034.64 30.6136C1034.89 31.0985 1035.01 31.7121 1035.01 32.4545V38H1033.67V32.5455C1033.67 31.8598 1033.49 31.3258 1033.14 30.9432C1032.78 30.5568 1032.29 30.3636 1031.67 30.3636C1031.24 30.3636 1030.86 30.4564 1030.52 30.642C1030.19 30.8277 1029.93 31.0985 1029.73 31.4545C1029.54 31.8106 1029.44 32.2424 1029.44 32.75ZM1040.98 41.4545C1040.34 41.4545 1039.78 41.3712 1039.31 41.2045C1038.85 41.0417 1038.46 40.8258 1038.15 40.5568C1037.84 40.2917 1037.6 40.0076 1037.42 39.7045L1038.48 38.9545C1038.61 39.1136 1038.76 39.2955 1038.94 39.5C1039.13 39.7083 1039.38 39.8883 1039.71 40.0398C1040.03 40.1951 1040.46 40.2727 1040.98 40.2727C1041.69 40.2727 1042.27 40.1023 1042.73 39.7614C1043.19 39.4205 1043.42 38.8864 1043.42 38.1591V36.3864H1043.3C1043.2 36.5455 1043.06 36.7424 1042.88 36.9773C1042.7 37.2083 1042.45 37.4148 1042.11 37.5966C1041.78 37.7746 1041.33 37.8636 1040.76 37.8636C1040.05 37.8636 1039.42 37.697 1038.86 37.3636C1038.3 37.0303 1037.86 36.5455 1037.54 35.9091C1037.21 35.2727 1037.05 34.5 1037.05 33.5909C1037.05 32.697 1037.21 31.9186 1037.52 31.2557C1037.84 30.589 1038.28 30.0739 1038.84 29.7102C1039.4 29.3428 1040.04 29.1591 1040.78 29.1591C1041.35 29.1591 1041.8 29.2538 1042.13 29.4432C1042.47 29.6288 1042.73 29.8409 1042.9 30.0795C1043.09 30.3144 1043.23 30.5076 1043.33 30.6591H1043.46V29.2727H1044.76V38.25C1044.76 39 1044.59 39.6098 1044.25 40.0795C1043.91 40.553 1043.45 40.8996 1042.88 41.1193C1042.31 41.3428 1041.68 41.4545 1040.98 41.4545ZM1040.94 36.6591C1041.48 36.6591 1041.93 36.536 1042.3 36.2898C1042.67 36.0436 1042.96 35.6894 1043.15 35.2273C1043.34 34.7652 1043.44 34.2121 1043.44 33.5682C1043.44 32.9394 1043.34 32.3845 1043.15 31.9034C1042.97 31.4223 1042.69 31.0455 1042.31 30.7727C1041.94 30.5 1041.48 30.3636 1040.94 30.3636C1040.37 30.3636 1039.9 30.5076 1039.52 30.7955C1039.14 31.0833 1038.86 31.4697 1038.67 31.9545C1038.49 32.4394 1038.39 32.9773 1038.39 33.5682C1038.39 34.1742 1038.49 34.7102 1038.68 35.1761C1038.87 35.6383 1039.15 36.0019 1039.53 36.267C1039.91 36.5284 1040.38 36.6591 1040.94 36.6591Z" fill="white" fill-opacity="0.95"/>
</svg>
