<svg width="220" height="76" viewBox="0 0 220 76" fill="none" xmlns="http://www.w3.org/2000/svg">
<mask id="path-1-inside-1_2110_46784" fill="white">
<path d="M0 0H220V76H0V0Z"/>
</mask>
<path d="M0 0H220V76H0V0Z" fill="#1A1A1A"/>
<path d="M220 76V77H221V76H220ZM219 0V76H221V0H219ZM220 75H0V77H220V75Z" fill="#707070" mask="url(#path-1-inside-1_2110_46784)"/>
<path d="M40.6364 32.3636V44H39.2727L32.9318 34.8636H32.8182V44H31.4091V32.3636H32.7727L39.1364 41.5227H39.25V32.3636H40.6364ZM47.3878 31.8182L43.6378 45.75H42.4105L46.1605 31.8182H47.3878ZM49.6364 44H48.1591L52.4318 32.3636H53.8864L58.1591 44H56.6818L53.2045 34.2045H53.1136L49.6364 44ZM50.1818 39.4545H56.1364V40.7045H50.1818V39.4545Z" fill="white" fill-opacity="0.95"/>
</svg>
