<svg width="220" height="80" viewBox="0 0 220 80" fill="none" xmlns="http://www.w3.org/2000/svg">
<mask id="path-1-inside-1_2110_46804" fill="white">
<path d="M0 0H220V80H0V0Z"/>
</mask>
<path d="M0 0H220V80H0V0Z" fill="#1A1A1A"/>
<path d="M220 80V81H221V80H220ZM219 0V80H221V0H219ZM220 79H0V81H220V79Z" fill="#707070" mask="url(#path-1-inside-1_2110_46804)"/>
<path d="M31.4091 46V34.3636H35.4773C36.2879 34.3636 36.9564 34.5038 37.483 34.7841C38.0095 35.0606 38.4015 35.4337 38.6591 35.9034C38.9167 36.3693 39.0455 36.8864 39.0455 37.4545C39.0455 37.9545 38.9564 38.3674 38.7784 38.6932C38.6042 39.0189 38.3731 39.2765 38.0852 39.4659C37.8011 39.6553 37.4924 39.7955 37.1591 39.8864V40C37.5152 40.0227 37.8731 40.1477 38.233 40.375C38.5928 40.6023 38.8939 40.928 39.1364 41.3523C39.3788 41.7765 39.5 42.2955 39.5 42.9091C39.5 43.4924 39.3674 44.017 39.1023 44.483C38.8371 44.9489 38.4186 45.3182 37.8466 45.5909C37.2746 45.8636 36.5303 46 35.6136 46H31.4091ZM32.8182 44.75H35.6136C36.5341 44.75 37.1875 44.572 37.5739 44.2159C37.964 43.8561 38.1591 43.4205 38.1591 42.9091C38.1591 42.5152 38.0587 42.1515 37.858 41.8182C37.6572 41.4811 37.3712 41.2121 37 41.0114C36.6288 40.8068 36.1894 40.7045 35.6818 40.7045H32.8182V44.75ZM32.8182 39.4773H35.4318C35.8561 39.4773 36.2386 39.3939 36.5795 39.2273C36.9242 39.0606 37.197 38.8258 37.3977 38.5227C37.6023 38.2197 37.7045 37.8636 37.7045 37.4545C37.7045 36.9432 37.5265 36.5095 37.1705 36.1534C36.8144 35.7936 36.25 35.6136 35.4773 35.6136H32.8182V39.4773ZM45.179 46.1818C44.3911 46.1818 43.6998 45.9943 43.1051 45.6193C42.5142 45.2443 42.0521 44.7197 41.7188 44.0455C41.3892 43.3712 41.2244 42.5833 41.2244 41.6818C41.2244 40.7727 41.3892 39.9792 41.7188 39.3011C42.0521 38.6231 42.5142 38.0966 43.1051 37.7216C43.6998 37.3466 44.3911 37.1591 45.179 37.1591C45.9669 37.1591 46.6563 37.3466 47.2472 37.7216C47.8419 38.0966 48.304 38.6231 48.6335 39.3011C48.9669 39.9792 49.1335 40.7727 49.1335 41.6818C49.1335 42.5833 48.9669 43.3712 48.6335 44.0455C48.304 44.7197 47.8419 45.2443 47.2472 45.6193C46.6563 45.9943 45.9669 46.1818 45.179 46.1818ZM45.179 44.9773C45.7775 44.9773 46.2699 44.8239 46.6562 44.517C47.0426 44.2102 47.3286 43.8068 47.5142 43.3068C47.6998 42.8068 47.7926 42.2652 47.7926 41.6818C47.7926 41.0985 47.6998 40.5549 47.5142 40.0511C47.3286 39.5473 47.0426 39.1402 46.6562 38.8295C46.2699 38.5189 45.7775 38.3636 45.179 38.3636C44.5805 38.3636 44.0881 38.5189 43.7017 38.8295C43.3153 39.1402 43.0294 39.5473 42.8438 40.0511C42.6581 40.5549 42.5653 41.0985 42.5653 41.6818C42.5653 42.2652 42.6581 42.8068 42.8438 43.3068C43.0294 43.8068 43.3153 44.2102 43.7017 44.517C44.0881 44.8239 44.5805 44.9773 45.179 44.9773ZM53.7486 46.2045C53.1955 46.2045 52.6937 46.1004 52.2429 45.892C51.7921 45.6799 51.4342 45.375 51.169 44.9773C50.9039 44.5758 50.7713 44.0909 50.7713 43.5227C50.7713 43.0227 50.8698 42.6174 51.0668 42.3068C51.2637 41.9924 51.527 41.7462 51.8565 41.5682C52.1861 41.3902 52.5497 41.2576 52.9474 41.1705C53.349 41.0795 53.7524 41.0076 54.1577 40.9545C54.688 40.8864 55.1179 40.8352 55.4474 40.8011C55.7808 40.7633 56.0232 40.7008 56.1747 40.6136C56.33 40.5265 56.4077 40.375 56.4077 40.1591V40.1136C56.4077 39.553 56.2543 39.1174 55.9474 38.8068C55.6444 38.4962 55.1842 38.3409 54.5668 38.3409C53.9266 38.3409 53.4247 38.4811 53.0611 38.7614C52.6974 39.0417 52.4418 39.3409 52.294 39.6591L51.0213 39.2045C51.2486 38.6742 51.5516 38.2614 51.9304 37.9659C52.313 37.6667 52.7296 37.4583 53.1804 37.3409C53.6349 37.2197 54.0819 37.1591 54.5213 37.1591C54.8016 37.1591 55.1236 37.1932 55.4872 37.2614C55.8546 37.3258 56.2088 37.4602 56.5497 37.6648C56.8944 37.8693 57.1804 38.178 57.4077 38.5909C57.6349 39.0038 57.7486 39.5568 57.7486 40.25V46H56.4077V44.8182H56.3395C56.2486 45.0076 56.0971 45.2102 55.8849 45.4261C55.6728 45.642 55.3906 45.8258 55.0384 45.9773C54.6861 46.1288 54.2562 46.2045 53.7486 46.2045ZM53.9531 45C54.4834 45 54.9304 44.8958 55.294 44.6875C55.6615 44.4792 55.938 44.2102 56.1236 43.8807C56.313 43.5511 56.4077 43.2045 56.4077 42.8409V41.6136C56.3509 41.6818 56.2259 41.7443 56.0327 41.8011C55.8433 41.8542 55.6236 41.9015 55.3736 41.9432C55.1274 41.9811 54.8868 42.0152 54.652 42.0455C54.4209 42.072 54.2334 42.0947 54.0895 42.1136C53.741 42.1591 53.4152 42.233 53.1122 42.3352C52.813 42.4337 52.5705 42.5833 52.3849 42.7841C52.2031 42.9811 52.1122 43.25 52.1122 43.5909C52.1122 44.0568 52.2846 44.4091 52.6293 44.6477C52.9777 44.8826 53.419 45 53.9531 45ZM60.196 46V37.2727H61.4915V38.5909H61.5824C61.7415 38.1591 62.0294 37.8087 62.446 37.5398C62.8627 37.2708 63.3324 37.1364 63.8551 37.1364C63.9536 37.1364 64.0767 37.1383 64.2244 37.142C64.3722 37.1458 64.4839 37.1515 64.5597 37.1591V38.5227C64.5142 38.5114 64.41 38.4943 64.2472 38.4716C64.0881 38.4451 63.9195 38.4318 63.7415 38.4318C63.3172 38.4318 62.9384 38.5208 62.6051 38.6989C62.2756 38.8731 62.0142 39.1155 61.821 39.4261C61.6316 39.733 61.5369 40.0833 61.5369 40.4773V46H60.196ZM69.179 46.1818C68.4517 46.1818 67.8097 45.9981 67.2528 45.6307C66.696 45.2595 66.2604 44.7367 65.946 44.0625C65.6316 43.3845 65.4744 42.5833 65.4744 41.6591C65.4744 40.7424 65.6316 39.947 65.946 39.2727C66.2604 38.5985 66.6979 38.0777 67.2585 37.7102C67.8191 37.3428 68.4669 37.1591 69.2017 37.1591C69.7699 37.1591 70.2188 37.2538 70.5483 37.4432C70.8816 37.6288 71.1354 37.8409 71.3097 38.0795C71.4877 38.3144 71.6259 38.5076 71.7244 38.6591H71.8381V34.3636H73.179V46H71.8835V44.6591H71.7244C71.6259 44.8182 71.4858 45.0189 71.304 45.2614C71.1222 45.5 70.8627 45.714 70.5256 45.9034C70.1884 46.089 69.7396 46.1818 69.179 46.1818ZM69.3608 44.9773C69.8987 44.9773 70.3532 44.8371 70.7244 44.5568C71.0956 44.2727 71.3778 43.8807 71.571 43.3807C71.7642 42.8769 71.8608 42.2955 71.8608 41.6364C71.8608 40.9848 71.7661 40.4148 71.5767 39.9261C71.3873 39.4337 71.107 39.0511 70.7358 38.7784C70.3646 38.5019 69.9063 38.3636 69.3608 38.3636C68.7926 38.3636 68.3191 38.5095 67.9403 38.8011C67.5653 39.089 67.2831 39.4811 67.0938 39.9773C66.9081 40.4697 66.8153 41.0227 66.8153 41.6364C66.8153 42.2576 66.91 42.822 67.0994 43.3295C67.2926 43.8333 67.5767 44.2348 67.9517 44.5341C68.3305 44.8295 68.8002 44.9773 69.3608 44.9773Z" fill="white" fill-opacity="0.95"/>
</svg>
