<svg width="1300" height="412" viewBox="0 0 1300 412" fill="none" xmlns="http://www.w3.org/2000/svg">
<rect width="1300" height="412" rx="24" fill="#262626"/>
<rect x="270" y="100" width="32" height="32" rx="16" fill="#DA0087"/>
<path d="M285.126 120.5V112.716L282.886 113.864V111.89L285.14 110.7H287.31V120.5H285.126Z" fill="white"/>
<g clip-path="url(#clip0_2110_62821)">
<rect x="270" y="144" width="61" height="32" rx="16" fill="white" fill-opacity="0.2"/>
<path d="M283.449 165V154.818H284.985V163.678H289.599V165H283.449ZM293.454 165.169C292.97 165.169 292.533 165.08 292.142 164.901C291.75 164.718 291.441 164.455 291.212 164.11C290.986 163.765 290.874 163.343 290.874 162.842C290.874 162.411 290.957 162.057 291.122 161.778C291.288 161.5 291.512 161.28 291.794 161.117C292.075 160.955 292.39 160.832 292.738 160.749C293.086 160.666 293.441 160.603 293.802 160.56C294.259 160.507 294.631 160.464 294.916 160.431C295.201 160.395 295.408 160.337 295.537 160.257C295.666 160.178 295.731 160.048 295.731 159.869V159.835C295.731 159.4 295.608 159.064 295.363 158.825C295.121 158.587 294.76 158.467 294.279 158.467C293.779 158.467 293.384 158.578 293.096 158.8C292.811 159.019 292.614 159.263 292.504 159.531L291.107 159.213C291.273 158.749 291.515 158.375 291.833 158.089C292.155 157.801 292.524 157.592 292.942 157.463C293.36 157.33 293.799 157.264 294.259 157.264C294.564 157.264 294.887 157.301 295.229 157.374C295.574 157.443 295.895 157.572 296.193 157.761C296.495 157.95 296.742 158.22 296.934 158.572C297.126 158.92 297.222 159.372 297.222 159.929V165H295.771V163.956H295.711C295.615 164.148 295.471 164.337 295.279 164.523C295.086 164.708 294.839 164.862 294.538 164.985C294.236 165.108 293.875 165.169 293.454 165.169ZM293.777 163.976C294.188 163.976 294.539 163.895 294.831 163.732C295.126 163.57 295.35 163.358 295.502 163.096C295.658 162.831 295.736 162.547 295.736 162.246V161.261C295.683 161.314 295.58 161.364 295.428 161.411C295.279 161.454 295.108 161.492 294.916 161.525C294.723 161.555 294.536 161.583 294.354 161.609C294.172 161.633 294.019 161.652 293.896 161.669C293.608 161.705 293.345 161.767 293.106 161.853C292.871 161.939 292.682 162.063 292.539 162.226C292.4 162.385 292.33 162.597 292.33 162.862C292.33 163.23 292.466 163.509 292.738 163.697C293.01 163.883 293.356 163.976 293.777 163.976ZM299.322 165V154.818H300.808V158.602H300.898C300.984 158.442 301.108 158.259 301.271 158.05C301.433 157.841 301.658 157.659 301.947 157.503C302.235 157.344 302.616 157.264 303.09 157.264C303.707 157.264 304.257 157.42 304.741 157.732C305.225 158.043 305.604 158.492 305.879 159.079C306.158 159.665 306.297 160.371 306.297 161.197C306.297 162.022 306.159 162.73 305.884 163.32C305.609 163.906 305.231 164.359 304.751 164.677C304.27 164.992 303.722 165.149 303.105 165.149C302.641 165.149 302.262 165.071 301.967 164.915C301.675 164.76 301.446 164.577 301.281 164.369C301.115 164.16 300.987 163.974 300.898 163.812H300.773V165H299.322ZM300.778 161.182C300.778 161.719 300.856 162.189 301.012 162.594C301.168 162.998 301.393 163.315 301.688 163.543C301.983 163.769 302.344 163.881 302.772 163.881C303.216 163.881 303.587 163.764 303.886 163.528C304.184 163.29 304.409 162.967 304.562 162.559C304.718 162.151 304.795 161.692 304.795 161.182C304.795 160.678 304.719 160.226 304.567 159.825C304.418 159.424 304.192 159.107 303.891 158.875C303.592 158.643 303.219 158.527 302.772 158.527C302.341 158.527 301.977 158.638 301.678 158.86C301.383 159.082 301.16 159.392 301.007 159.79C300.855 160.187 300.778 160.652 300.778 161.182ZM311.257 165.154C310.505 165.154 309.857 164.993 309.313 164.672C308.773 164.347 308.356 163.891 308.061 163.305C307.769 162.715 307.623 162.024 307.623 161.232C307.623 160.449 307.769 159.76 308.061 159.163C308.356 158.567 308.767 158.101 309.294 157.766C309.824 157.432 310.444 157.264 311.153 157.264C311.584 157.264 312.001 157.335 312.406 157.478C312.81 157.621 313.173 157.844 313.494 158.149C313.816 158.454 314.07 158.85 314.255 159.337C314.441 159.821 314.534 160.41 314.534 161.102V161.629H308.463V160.516H313.077C313.077 160.125 312.997 159.778 312.838 159.477C312.679 159.172 312.455 158.931 312.167 158.756C311.882 158.58 311.547 158.492 311.163 158.492C310.745 158.492 310.381 158.595 310.069 158.8C309.761 159.003 309.522 159.268 309.353 159.596C309.187 159.921 309.105 160.274 309.105 160.655V161.525C309.105 162.035 309.194 162.469 309.373 162.827C309.555 163.185 309.809 163.459 310.134 163.648C310.459 163.833 310.838 163.926 311.272 163.926C311.554 163.926 311.811 163.886 312.043 163.807C312.275 163.724 312.475 163.601 312.644 163.439C312.813 163.277 312.943 163.076 313.032 162.837L314.439 163.091C314.326 163.505 314.124 163.868 313.833 164.18C313.544 164.488 313.181 164.728 312.744 164.901C312.31 165.07 311.814 165.154 311.257 165.154ZM317.669 154.818V165H316.183V154.818H317.669Z" fill="white" fill-opacity="0.95"/>
<path d="M352.449 165V154.818H353.985V163.678H358.599V165H352.449ZM362.454 165.169C361.97 165.169 361.533 165.08 361.142 164.901C360.75 164.718 360.441 164.455 360.212 164.11C359.986 163.765 359.874 163.343 359.874 162.842C359.874 162.411 359.957 162.057 360.122 161.778C360.288 161.5 360.512 161.28 360.794 161.117C361.075 160.955 361.39 160.832 361.738 160.749C362.086 160.666 362.441 160.603 362.802 160.56C363.259 160.507 363.631 160.464 363.916 160.431C364.201 160.395 364.408 160.337 364.537 160.257C364.666 160.178 364.731 160.048 364.731 159.869V159.835C364.731 159.4 364.608 159.064 364.363 158.825C364.121 158.587 363.76 158.467 363.279 158.467C362.779 158.467 362.384 158.578 362.096 158.8C361.811 159.019 361.614 159.263 361.504 159.531L360.107 159.213C360.273 158.749 360.515 158.375 360.833 158.089C361.155 157.801 361.524 157.592 361.942 157.463C362.36 157.33 362.799 157.264 363.259 157.264C363.564 157.264 363.887 157.301 364.229 157.374C364.574 157.443 364.895 157.572 365.193 157.761C365.495 157.95 365.742 158.22 365.934 158.572C366.126 158.92 366.222 159.372 366.222 159.929V165H364.771V163.956H364.711C364.615 164.148 364.471 164.337 364.279 164.523C364.086 164.708 363.839 164.862 363.538 164.985C363.236 165.108 362.875 165.169 362.454 165.169ZM362.777 163.976C363.188 163.976 363.539 163.895 363.831 163.732C364.126 163.57 364.35 163.358 364.502 163.096C364.658 162.831 364.736 162.547 364.736 162.246V161.261C364.683 161.314 364.58 161.364 364.428 161.411C364.279 161.454 364.108 161.492 363.916 161.525C363.723 161.555 363.536 161.583 363.354 161.609C363.172 161.633 363.019 161.652 362.896 161.669C362.608 161.705 362.345 161.767 362.106 161.853C361.871 161.939 361.682 162.063 361.539 162.226C361.4 162.385 361.33 162.597 361.33 162.862C361.33 163.23 361.466 163.509 361.738 163.697C362.01 163.883 362.356 163.976 362.777 163.976ZM368.322 165V154.818H369.808V158.602H369.898C369.984 158.442 370.108 158.259 370.271 158.05C370.433 157.841 370.658 157.659 370.947 157.503C371.235 157.344 371.616 157.264 372.09 157.264C372.707 157.264 373.257 157.42 373.741 157.732C374.225 158.043 374.604 158.492 374.879 159.079C375.158 159.665 375.297 160.371 375.297 161.197C375.297 162.022 375.159 162.73 374.884 163.32C374.609 163.906 374.231 164.359 373.751 164.677C373.27 164.992 372.722 165.149 372.105 165.149C371.641 165.149 371.262 165.071 370.967 164.915C370.675 164.76 370.446 164.577 370.281 164.369C370.115 164.16 369.987 163.974 369.898 163.812H369.773V165H368.322ZM369.778 161.182C369.778 161.719 369.856 162.189 370.012 162.594C370.168 162.998 370.393 163.315 370.688 163.543C370.983 163.769 371.344 163.881 371.772 163.881C372.216 163.881 372.587 163.764 372.886 163.528C373.184 163.29 373.409 162.967 373.562 162.559C373.718 162.151 373.795 161.692 373.795 161.182C373.795 160.678 373.719 160.226 373.567 159.825C373.418 159.424 373.192 159.107 372.891 158.875C372.592 158.643 372.219 158.527 371.772 158.527C371.341 158.527 370.977 158.638 370.678 158.86C370.383 159.082 370.16 159.392 370.007 159.79C369.855 160.187 369.778 160.652 369.778 161.182ZM380.257 165.154C379.505 165.154 378.857 164.993 378.313 164.672C377.773 164.347 377.356 163.891 377.061 163.305C376.769 162.715 376.623 162.024 376.623 161.232C376.623 160.449 376.769 159.76 377.061 159.163C377.356 158.567 377.767 158.101 378.294 157.766C378.824 157.432 379.444 157.264 380.153 157.264C380.584 157.264 381.001 157.335 381.406 157.478C381.81 157.621 382.173 157.844 382.494 158.149C382.816 158.454 383.07 158.85 383.255 159.337C383.441 159.821 383.534 160.41 383.534 161.102V161.629H377.463V160.516H382.077C382.077 160.125 381.997 159.778 381.838 159.477C381.679 159.172 381.455 158.931 381.167 158.756C380.882 158.58 380.547 158.492 380.163 158.492C379.745 158.492 379.381 158.595 379.069 158.8C378.761 159.003 378.522 159.268 378.353 159.596C378.187 159.921 378.105 160.274 378.105 160.655V161.525C378.105 162.035 378.194 162.469 378.373 162.827C378.555 163.185 378.809 163.459 379.134 163.648C379.459 163.833 379.838 163.926 380.272 163.926C380.554 163.926 380.811 163.886 381.043 163.807C381.275 163.724 381.475 163.601 381.644 163.439C381.813 163.277 381.943 163.076 382.032 162.837L383.439 163.091C383.326 163.505 383.124 163.868 382.833 164.18C382.544 164.488 382.181 164.728 381.744 164.901C381.31 165.07 380.814 165.154 380.257 165.154ZM386.669 154.818V165H385.183V154.818H386.669Z" fill="white" fill-opacity="0.7"/>
<path d="M421.449 165V154.818H422.985V163.678H427.599V165H421.449ZM431.454 165.169C430.97 165.169 430.533 165.08 430.142 164.901C429.75 164.718 429.441 164.455 429.212 164.11C428.986 163.765 428.874 163.343 428.874 162.842C428.874 162.411 428.957 162.057 429.122 161.778C429.288 161.5 429.512 161.28 429.794 161.117C430.075 160.955 430.39 160.832 430.738 160.749C431.086 160.666 431.441 160.603 431.802 160.56C432.259 160.507 432.631 160.464 432.916 160.431C433.201 160.395 433.408 160.337 433.537 160.257C433.666 160.178 433.731 160.048 433.731 159.869V159.835C433.731 159.4 433.608 159.064 433.363 158.825C433.121 158.587 432.76 158.467 432.279 158.467C431.779 158.467 431.384 158.578 431.096 158.8C430.811 159.019 430.614 159.263 430.504 159.531L429.107 159.213C429.273 158.749 429.515 158.375 429.833 158.089C430.155 157.801 430.524 157.592 430.942 157.463C431.36 157.33 431.799 157.264 432.259 157.264C432.564 157.264 432.887 157.301 433.229 157.374C433.574 157.443 433.895 157.572 434.193 157.761C434.495 157.95 434.742 158.22 434.934 158.572C435.126 158.92 435.222 159.372 435.222 159.929V165H433.771V163.956H433.711C433.615 164.148 433.471 164.337 433.279 164.523C433.086 164.708 432.839 164.862 432.538 164.985C432.236 165.108 431.875 165.169 431.454 165.169ZM431.777 163.976C432.188 163.976 432.539 163.895 432.831 163.732C433.126 163.57 433.35 163.358 433.502 163.096C433.658 162.831 433.736 162.547 433.736 162.246V161.261C433.683 161.314 433.58 161.364 433.428 161.411C433.279 161.454 433.108 161.492 432.916 161.525C432.723 161.555 432.536 161.583 432.354 161.609C432.172 161.633 432.019 161.652 431.896 161.669C431.608 161.705 431.345 161.767 431.106 161.853C430.871 161.939 430.682 162.063 430.539 162.226C430.4 162.385 430.33 162.597 430.33 162.862C430.33 163.23 430.466 163.509 430.738 163.697C431.01 163.883 431.356 163.976 431.777 163.976ZM437.322 165V154.818H438.808V158.602H438.898C438.984 158.442 439.108 158.259 439.271 158.05C439.433 157.841 439.658 157.659 439.947 157.503C440.235 157.344 440.616 157.264 441.09 157.264C441.707 157.264 442.257 157.42 442.741 157.732C443.225 158.043 443.604 158.492 443.879 159.079C444.158 159.665 444.297 160.371 444.297 161.197C444.297 162.022 444.159 162.73 443.884 163.32C443.609 163.906 443.231 164.359 442.751 164.677C442.27 164.992 441.722 165.149 441.105 165.149C440.641 165.149 440.262 165.071 439.967 164.915C439.675 164.76 439.446 164.577 439.281 164.369C439.115 164.16 438.987 163.974 438.898 163.812H438.773V165H437.322ZM438.778 161.182C438.778 161.719 438.856 162.189 439.012 162.594C439.168 162.998 439.393 163.315 439.688 163.543C439.983 163.769 440.344 163.881 440.772 163.881C441.216 163.881 441.587 163.764 441.886 163.528C442.184 163.29 442.409 162.967 442.562 162.559C442.718 162.151 442.795 161.692 442.795 161.182C442.795 160.678 442.719 160.226 442.567 159.825C442.418 159.424 442.192 159.107 441.891 158.875C441.592 158.643 441.219 158.527 440.772 158.527C440.341 158.527 439.977 158.638 439.678 158.86C439.383 159.082 439.16 159.392 439.007 159.79C438.855 160.187 438.778 160.652 438.778 161.182ZM449.257 165.154C448.505 165.154 447.857 164.993 447.313 164.672C446.773 164.347 446.356 163.891 446.061 163.305C445.769 162.715 445.623 162.024 445.623 161.232C445.623 160.449 445.769 159.76 446.061 159.163C446.356 158.567 446.767 158.101 447.294 157.766C447.824 157.432 448.444 157.264 449.153 157.264C449.584 157.264 450.001 157.335 450.406 157.478C450.81 157.621 451.173 157.844 451.494 158.149C451.816 158.454 452.07 158.85 452.255 159.337C452.441 159.821 452.534 160.41 452.534 161.102V161.629H446.463V160.516H451.077C451.077 160.125 450.997 159.778 450.838 159.477C450.679 159.172 450.455 158.931 450.167 158.756C449.882 158.58 449.547 158.492 449.163 158.492C448.745 158.492 448.381 158.595 448.069 158.8C447.761 159.003 447.522 159.268 447.353 159.596C447.187 159.921 447.105 160.274 447.105 160.655V161.525C447.105 162.035 447.194 162.469 447.373 162.827C447.555 163.185 447.809 163.459 448.134 163.648C448.459 163.833 448.838 163.926 449.272 163.926C449.554 163.926 449.811 163.886 450.043 163.807C450.275 163.724 450.475 163.601 450.644 163.439C450.813 163.277 450.943 163.076 451.032 162.837L452.439 163.091C452.326 163.505 452.124 163.868 451.833 164.18C451.544 164.488 451.181 164.728 450.744 164.901C450.31 165.07 449.814 165.154 449.257 165.154ZM455.669 154.818V165H454.183V154.818H455.669Z" fill="white" fill-opacity="0.7"/>
<path d="M490.449 165V154.818H491.985V163.678H496.599V165H490.449ZM500.454 165.169C499.97 165.169 499.533 165.08 499.142 164.901C498.75 164.718 498.441 164.455 498.212 164.11C497.986 163.765 497.874 163.343 497.874 162.842C497.874 162.411 497.957 162.057 498.122 161.778C498.288 161.5 498.512 161.28 498.794 161.117C499.075 160.955 499.39 160.832 499.738 160.749C500.086 160.666 500.441 160.603 500.802 160.56C501.259 160.507 501.631 160.464 501.916 160.431C502.201 160.395 502.408 160.337 502.537 160.257C502.666 160.178 502.731 160.048 502.731 159.869V159.835C502.731 159.4 502.608 159.064 502.363 158.825C502.121 158.587 501.76 158.467 501.279 158.467C500.779 158.467 500.384 158.578 500.096 158.8C499.811 159.019 499.614 159.263 499.504 159.531L498.107 159.213C498.273 158.749 498.515 158.375 498.833 158.089C499.155 157.801 499.524 157.592 499.942 157.463C500.36 157.33 500.799 157.264 501.259 157.264C501.564 157.264 501.887 157.301 502.229 157.374C502.574 157.443 502.895 157.572 503.193 157.761C503.495 157.95 503.742 158.22 503.934 158.572C504.126 158.92 504.222 159.372 504.222 159.929V165H502.771V163.956H502.711C502.615 164.148 502.471 164.337 502.279 164.523C502.086 164.708 501.839 164.862 501.538 164.985C501.236 165.108 500.875 165.169 500.454 165.169ZM500.777 163.976C501.188 163.976 501.539 163.895 501.831 163.732C502.126 163.57 502.35 163.358 502.502 163.096C502.658 162.831 502.736 162.547 502.736 162.246V161.261C502.683 161.314 502.58 161.364 502.428 161.411C502.279 161.454 502.108 161.492 501.916 161.525C501.723 161.555 501.536 161.583 501.354 161.609C501.172 161.633 501.019 161.652 500.896 161.669C500.608 161.705 500.345 161.767 500.106 161.853C499.871 161.939 499.682 162.063 499.539 162.226C499.4 162.385 499.33 162.597 499.33 162.862C499.33 163.23 499.466 163.509 499.738 163.697C500.01 163.883 500.356 163.976 500.777 163.976ZM506.322 165V154.818H507.808V158.602H507.898C507.984 158.442 508.108 158.259 508.271 158.05C508.433 157.841 508.658 157.659 508.947 157.503C509.235 157.344 509.616 157.264 510.09 157.264C510.707 157.264 511.257 157.42 511.741 157.732C512.225 158.043 512.604 158.492 512.879 159.079C513.158 159.665 513.297 160.371 513.297 161.197C513.297 162.022 513.159 162.73 512.884 163.32C512.609 163.906 512.231 164.359 511.751 164.677C511.27 164.992 510.722 165.149 510.105 165.149C509.641 165.149 509.262 165.071 508.967 164.915C508.675 164.76 508.446 164.577 508.281 164.369C508.115 164.16 507.987 163.974 507.898 163.812H507.773V165H506.322ZM507.778 161.182C507.778 161.719 507.856 162.189 508.012 162.594C508.168 162.998 508.393 163.315 508.688 163.543C508.983 163.769 509.344 163.881 509.772 163.881C510.216 163.881 510.587 163.764 510.886 163.528C511.184 163.29 511.409 162.967 511.562 162.559C511.718 162.151 511.795 161.692 511.795 161.182C511.795 160.678 511.719 160.226 511.567 159.825C511.418 159.424 511.192 159.107 510.891 158.875C510.592 158.643 510.219 158.527 509.772 158.527C509.341 158.527 508.977 158.638 508.678 158.86C508.383 159.082 508.16 159.392 508.007 159.79C507.855 160.187 507.778 160.652 507.778 161.182ZM518.257 165.154C517.505 165.154 516.857 164.993 516.313 164.672C515.773 164.347 515.356 163.891 515.061 163.305C514.769 162.715 514.623 162.024 514.623 161.232C514.623 160.449 514.769 159.76 515.061 159.163C515.356 158.567 515.767 158.101 516.294 157.766C516.824 157.432 517.444 157.264 518.153 157.264C518.584 157.264 519.001 157.335 519.406 157.478C519.81 157.621 520.173 157.844 520.494 158.149C520.816 158.454 521.07 158.85 521.255 159.337C521.441 159.821 521.534 160.41 521.534 161.102V161.629H515.463V160.516H520.077C520.077 160.125 519.997 159.778 519.838 159.477C519.679 159.172 519.455 158.931 519.167 158.756C518.882 158.58 518.547 158.492 518.163 158.492C517.745 158.492 517.381 158.595 517.069 158.8C516.761 159.003 516.522 159.268 516.353 159.596C516.187 159.921 516.105 160.274 516.105 160.655V161.525C516.105 162.035 516.194 162.469 516.373 162.827C516.555 163.185 516.809 163.459 517.134 163.648C517.459 163.833 517.838 163.926 518.272 163.926C518.554 163.926 518.811 163.886 519.043 163.807C519.275 163.724 519.475 163.601 519.644 163.439C519.813 163.277 519.943 163.076 520.032 162.837L521.439 163.091C521.326 163.505 521.124 163.868 520.833 164.18C520.544 164.488 520.181 164.728 519.744 164.901C519.31 165.07 518.814 165.154 518.257 165.154ZM524.669 154.818V165H523.183V154.818H524.669Z" fill="white" fill-opacity="0.7"/>
<path d="M559.449 165V154.818H560.985V163.678H565.599V165H559.449ZM569.454 165.169C568.97 165.169 568.533 165.08 568.142 164.901C567.75 164.718 567.441 164.455 567.212 164.11C566.986 163.765 566.874 163.343 566.874 162.842C566.874 162.411 566.957 162.057 567.122 161.778C567.288 161.5 567.512 161.28 567.794 161.117C568.075 160.955 568.39 160.832 568.738 160.749C569.086 160.666 569.441 160.603 569.802 160.56C570.259 160.507 570.631 160.464 570.916 160.431C571.201 160.395 571.408 160.337 571.537 160.257C571.666 160.178 571.731 160.048 571.731 159.869V159.835C571.731 159.4 571.608 159.064 571.363 158.825C571.121 158.587 570.76 158.467 570.279 158.467C569.779 158.467 569.384 158.578 569.096 158.8C568.811 159.019 568.614 159.263 568.504 159.531L567.107 159.213C567.273 158.749 567.515 158.375 567.833 158.089C568.155 157.801 568.524 157.592 568.942 157.463C569.36 157.33 569.799 157.264 570.259 157.264C570.564 157.264 570.887 157.301 571.229 157.374C571.574 157.443 571.895 157.572 572.193 157.761C572.495 157.95 572.742 158.22 572.934 158.572C573.126 158.92 573.222 159.372 573.222 159.929V165H571.771V163.956H571.711C571.615 164.148 571.471 164.337 571.279 164.523C571.086 164.708 570.839 164.862 570.538 164.985C570.236 165.108 569.875 165.169 569.454 165.169ZM569.777 163.976C570.188 163.976 570.539 163.895 570.831 163.732C571.126 163.57 571.35 163.358 571.502 163.096C571.658 162.831 571.736 162.547 571.736 162.246V161.261C571.683 161.314 571.58 161.364 571.428 161.411C571.279 161.454 571.108 161.492 570.916 161.525C570.723 161.555 570.536 161.583 570.354 161.609C570.172 161.633 570.019 161.652 569.896 161.669C569.608 161.705 569.345 161.767 569.106 161.853C568.871 161.939 568.682 162.063 568.539 162.226C568.4 162.385 568.33 162.597 568.33 162.862C568.33 163.23 568.466 163.509 568.738 163.697C569.01 163.883 569.356 163.976 569.777 163.976ZM575.322 165V154.818H576.808V158.602H576.898C576.984 158.442 577.108 158.259 577.271 158.05C577.433 157.841 577.658 157.659 577.947 157.503C578.235 157.344 578.616 157.264 579.09 157.264C579.707 157.264 580.257 157.42 580.741 157.732C581.225 158.043 581.604 158.492 581.879 159.079C582.158 159.665 582.297 160.371 582.297 161.197C582.297 162.022 582.159 162.73 581.884 163.32C581.609 163.906 581.231 164.359 580.751 164.677C580.27 164.992 579.722 165.149 579.105 165.149C578.641 165.149 578.262 165.071 577.967 164.915C577.675 164.76 577.446 164.577 577.281 164.369C577.115 164.16 576.987 163.974 576.898 163.812H576.773V165H575.322ZM576.778 161.182C576.778 161.719 576.856 162.189 577.012 162.594C577.168 162.998 577.393 163.315 577.688 163.543C577.983 163.769 578.344 163.881 578.772 163.881C579.216 163.881 579.587 163.764 579.886 163.528C580.184 163.29 580.409 162.967 580.562 162.559C580.718 162.151 580.795 161.692 580.795 161.182C580.795 160.678 580.719 160.226 580.567 159.825C580.418 159.424 580.192 159.107 579.891 158.875C579.592 158.643 579.219 158.527 578.772 158.527C578.341 158.527 577.977 158.638 577.678 158.86C577.383 159.082 577.16 159.392 577.007 159.79C576.855 160.187 576.778 160.652 576.778 161.182ZM587.257 165.154C586.505 165.154 585.857 164.993 585.313 164.672C584.773 164.347 584.356 163.891 584.061 163.305C583.769 162.715 583.623 162.024 583.623 161.232C583.623 160.449 583.769 159.76 584.061 159.163C584.356 158.567 584.767 158.101 585.294 157.766C585.824 157.432 586.444 157.264 587.153 157.264C587.584 157.264 588.001 157.335 588.406 157.478C588.81 157.621 589.173 157.844 589.494 158.149C589.816 158.454 590.07 158.85 590.255 159.337C590.441 159.821 590.534 160.41 590.534 161.102V161.629H584.463V160.516H589.077C589.077 160.125 588.997 159.778 588.838 159.477C588.679 159.172 588.455 158.931 588.167 158.756C587.882 158.58 587.547 158.492 587.163 158.492C586.745 158.492 586.381 158.595 586.069 158.8C585.761 159.003 585.522 159.268 585.353 159.596C585.187 159.921 585.105 160.274 585.105 160.655V161.525C585.105 162.035 585.194 162.469 585.373 162.827C585.555 163.185 585.809 163.459 586.134 163.648C586.459 163.833 586.838 163.926 587.272 163.926C587.554 163.926 587.811 163.886 588.043 163.807C588.275 163.724 588.475 163.601 588.644 163.439C588.813 163.277 588.943 163.076 589.032 162.837L590.439 163.091C590.326 163.505 590.124 163.868 589.833 164.18C589.544 164.488 589.181 164.728 588.744 164.901C588.31 165.07 587.814 165.154 587.257 165.154ZM593.669 154.818V165H592.183V154.818H593.669Z" fill="white" fill-opacity="0.7"/>
<path d="M628.449 165V154.818H629.985V163.678H634.599V165H628.449ZM638.454 165.169C637.97 165.169 637.533 165.08 637.142 164.901C636.75 164.718 636.441 164.455 636.212 164.11C635.986 163.765 635.874 163.343 635.874 162.842C635.874 162.411 635.957 162.057 636.122 161.778C636.288 161.5 636.512 161.28 636.794 161.117C637.075 160.955 637.39 160.832 637.738 160.749C638.086 160.666 638.441 160.603 638.802 160.56C639.259 160.507 639.631 160.464 639.916 160.431C640.201 160.395 640.408 160.337 640.537 160.257C640.666 160.178 640.731 160.048 640.731 159.869V159.835C640.731 159.4 640.608 159.064 640.363 158.825C640.121 158.587 639.76 158.467 639.279 158.467C638.779 158.467 638.384 158.578 638.096 158.8C637.811 159.019 637.614 159.263 637.504 159.531L636.107 159.213C636.273 158.749 636.515 158.375 636.833 158.089C637.155 157.801 637.524 157.592 637.942 157.463C638.36 157.33 638.799 157.264 639.259 157.264C639.564 157.264 639.887 157.301 640.229 157.374C640.574 157.443 640.895 157.572 641.193 157.761C641.495 157.95 641.742 158.22 641.934 158.572C642.126 158.92 642.222 159.372 642.222 159.929V165H640.771V163.956H640.711C640.615 164.148 640.471 164.337 640.279 164.523C640.086 164.708 639.839 164.862 639.538 164.985C639.236 165.108 638.875 165.169 638.454 165.169ZM638.777 163.976C639.188 163.976 639.539 163.895 639.831 163.732C640.126 163.57 640.35 163.358 640.502 163.096C640.658 162.831 640.736 162.547 640.736 162.246V161.261C640.683 161.314 640.58 161.364 640.428 161.411C640.279 161.454 640.108 161.492 639.916 161.525C639.723 161.555 639.536 161.583 639.354 161.609C639.172 161.633 639.019 161.652 638.896 161.669C638.608 161.705 638.345 161.767 638.106 161.853C637.871 161.939 637.682 162.063 637.539 162.226C637.4 162.385 637.33 162.597 637.33 162.862C637.33 163.23 637.466 163.509 637.738 163.697C638.01 163.883 638.356 163.976 638.777 163.976ZM644.322 165V154.818H645.808V158.602H645.898C645.984 158.442 646.108 158.259 646.271 158.05C646.433 157.841 646.658 157.659 646.947 157.503C647.235 157.344 647.616 157.264 648.09 157.264C648.707 157.264 649.257 157.42 649.741 157.732C650.225 158.043 650.604 158.492 650.879 159.079C651.158 159.665 651.297 160.371 651.297 161.197C651.297 162.022 651.159 162.73 650.884 163.32C650.609 163.906 650.231 164.359 649.751 164.677C649.27 164.992 648.722 165.149 648.105 165.149C647.641 165.149 647.262 165.071 646.967 164.915C646.675 164.76 646.446 164.577 646.281 164.369C646.115 164.16 645.987 163.974 645.898 163.812H645.773V165H644.322ZM645.778 161.182C645.778 161.719 645.856 162.189 646.012 162.594C646.168 162.998 646.393 163.315 646.688 163.543C646.983 163.769 647.344 163.881 647.772 163.881C648.216 163.881 648.587 163.764 648.886 163.528C649.184 163.29 649.409 162.967 649.562 162.559C649.718 162.151 649.795 161.692 649.795 161.182C649.795 160.678 649.719 160.226 649.567 159.825C649.418 159.424 649.192 159.107 648.891 158.875C648.592 158.643 648.219 158.527 647.772 158.527C647.341 158.527 646.977 158.638 646.678 158.86C646.383 159.082 646.16 159.392 646.007 159.79C645.855 160.187 645.778 160.652 645.778 161.182ZM656.257 165.154C655.505 165.154 654.857 164.993 654.313 164.672C653.773 164.347 653.356 163.891 653.061 163.305C652.769 162.715 652.623 162.024 652.623 161.232C652.623 160.449 652.769 159.76 653.061 159.163C653.356 158.567 653.767 158.101 654.294 157.766C654.824 157.432 655.444 157.264 656.153 157.264C656.584 157.264 657.001 157.335 657.406 157.478C657.81 157.621 658.173 157.844 658.494 158.149C658.816 158.454 659.07 158.85 659.255 159.337C659.441 159.821 659.534 160.41 659.534 161.102V161.629H653.463V160.516H658.077C658.077 160.125 657.997 159.778 657.838 159.477C657.679 159.172 657.455 158.931 657.167 158.756C656.882 158.58 656.547 158.492 656.163 158.492C655.745 158.492 655.381 158.595 655.069 158.8C654.761 159.003 654.522 159.268 654.353 159.596C654.187 159.921 654.105 160.274 654.105 160.655V161.525C654.105 162.035 654.194 162.469 654.373 162.827C654.555 163.185 654.809 163.459 655.134 163.648C655.459 163.833 655.838 163.926 656.272 163.926C656.554 163.926 656.811 163.886 657.043 163.807C657.275 163.724 657.475 163.601 657.644 163.439C657.813 163.277 657.943 163.076 658.032 162.837L659.439 163.091C659.326 163.505 659.124 163.868 658.833 164.18C658.544 164.488 658.181 164.728 657.744 164.901C657.31 165.07 656.814 165.154 656.257 165.154ZM662.669 154.818V165H661.183V154.818H662.669Z" fill="white" fill-opacity="0.7"/>
<path d="M697.449 165V154.818H698.985V163.678H703.599V165H697.449ZM707.454 165.169C706.97 165.169 706.533 165.08 706.142 164.901C705.75 164.718 705.441 164.455 705.212 164.11C704.986 163.765 704.874 163.343 704.874 162.842C704.874 162.411 704.957 162.057 705.122 161.778C705.288 161.5 705.512 161.28 705.794 161.117C706.075 160.955 706.39 160.832 706.738 160.749C707.086 160.666 707.441 160.603 707.802 160.56C708.259 160.507 708.631 160.464 708.916 160.431C709.201 160.395 709.408 160.337 709.537 160.257C709.666 160.178 709.731 160.048 709.731 159.869V159.835C709.731 159.4 709.608 159.064 709.363 158.825C709.121 158.587 708.76 158.467 708.279 158.467C707.779 158.467 707.384 158.578 707.096 158.8C706.811 159.019 706.614 159.263 706.504 159.531L705.107 159.213C705.273 158.749 705.515 158.375 705.833 158.089C706.155 157.801 706.524 157.592 706.942 157.463C707.36 157.33 707.799 157.264 708.259 157.264C708.564 157.264 708.887 157.301 709.229 157.374C709.574 157.443 709.895 157.572 710.193 157.761C710.495 157.95 710.742 158.22 710.934 158.572C711.126 158.92 711.222 159.372 711.222 159.929V165H709.771V163.956H709.711C709.615 164.148 709.471 164.337 709.279 164.523C709.086 164.708 708.839 164.862 708.538 164.985C708.236 165.108 707.875 165.169 707.454 165.169ZM707.777 163.976C708.188 163.976 708.539 163.895 708.831 163.732C709.126 163.57 709.35 163.358 709.502 163.096C709.658 162.831 709.736 162.547 709.736 162.246V161.261C709.683 161.314 709.58 161.364 709.428 161.411C709.279 161.454 709.108 161.492 708.916 161.525C708.723 161.555 708.536 161.583 708.354 161.609C708.172 161.633 708.019 161.652 707.896 161.669C707.608 161.705 707.345 161.767 707.106 161.853C706.871 161.939 706.682 162.063 706.539 162.226C706.4 162.385 706.33 162.597 706.33 162.862C706.33 163.23 706.466 163.509 706.738 163.697C707.01 163.883 707.356 163.976 707.777 163.976ZM713.322 165V154.818H714.808V158.602H714.898C714.984 158.442 715.108 158.259 715.271 158.05C715.433 157.841 715.658 157.659 715.947 157.503C716.235 157.344 716.616 157.264 717.09 157.264C717.707 157.264 718.257 157.42 718.741 157.732C719.225 158.043 719.604 158.492 719.879 159.079C720.158 159.665 720.297 160.371 720.297 161.197C720.297 162.022 720.159 162.73 719.884 163.32C719.609 163.906 719.231 164.359 718.751 164.677C718.27 164.992 717.722 165.149 717.105 165.149C716.641 165.149 716.262 165.071 715.967 164.915C715.675 164.76 715.446 164.577 715.281 164.369C715.115 164.16 714.987 163.974 714.898 163.812H714.773V165H713.322ZM714.778 161.182C714.778 161.719 714.856 162.189 715.012 162.594C715.168 162.998 715.393 163.315 715.688 163.543C715.983 163.769 716.344 163.881 716.772 163.881C717.216 163.881 717.587 163.764 717.886 163.528C718.184 163.29 718.409 162.967 718.562 162.559C718.718 162.151 718.795 161.692 718.795 161.182C718.795 160.678 718.719 160.226 718.567 159.825C718.418 159.424 718.192 159.107 717.891 158.875C717.592 158.643 717.219 158.527 716.772 158.527C716.341 158.527 715.977 158.638 715.678 158.86C715.383 159.082 715.16 159.392 715.007 159.79C714.855 160.187 714.778 160.652 714.778 161.182ZM725.257 165.154C724.505 165.154 723.857 164.993 723.313 164.672C722.773 164.347 722.356 163.891 722.061 163.305C721.769 162.715 721.623 162.024 721.623 161.232C721.623 160.449 721.769 159.76 722.061 159.163C722.356 158.567 722.767 158.101 723.294 157.766C723.824 157.432 724.444 157.264 725.153 157.264C725.584 157.264 726.001 157.335 726.406 157.478C726.81 157.621 727.173 157.844 727.494 158.149C727.816 158.454 728.07 158.85 728.255 159.337C728.441 159.821 728.534 160.41 728.534 161.102V161.629H722.463V160.516H727.077C727.077 160.125 726.997 159.778 726.838 159.477C726.679 159.172 726.455 158.931 726.167 158.756C725.882 158.58 725.547 158.492 725.163 158.492C724.745 158.492 724.381 158.595 724.069 158.8C723.761 159.003 723.522 159.268 723.353 159.596C723.187 159.921 723.105 160.274 723.105 160.655V161.525C723.105 162.035 723.194 162.469 723.373 162.827C723.555 163.185 723.809 163.459 724.134 163.648C724.459 163.833 724.838 163.926 725.272 163.926C725.554 163.926 725.811 163.886 726.043 163.807C726.275 163.724 726.475 163.601 726.644 163.439C726.813 163.277 726.943 163.076 727.032 162.837L728.439 163.091C728.326 163.505 728.124 163.868 727.833 164.18C727.544 164.488 727.181 164.728 726.744 164.901C726.31 165.07 725.814 165.154 725.257 165.154ZM731.669 154.818V165H730.183V154.818H731.669Z" fill="white" fill-opacity="0.7"/>
<path d="M766.449 165V154.818H767.985V163.678H772.599V165H766.449ZM776.454 165.169C775.97 165.169 775.533 165.08 775.142 164.901C774.75 164.718 774.441 164.455 774.212 164.11C773.986 163.765 773.874 163.343 773.874 162.842C773.874 162.411 773.957 162.057 774.122 161.778C774.288 161.5 774.512 161.28 774.794 161.117C775.075 160.955 775.39 160.832 775.738 160.749C776.086 160.666 776.441 160.603 776.802 160.56C777.259 160.507 777.631 160.464 777.916 160.431C778.201 160.395 778.408 160.337 778.537 160.257C778.666 160.178 778.731 160.048 778.731 159.869V159.835C778.731 159.4 778.608 159.064 778.363 158.825C778.121 158.587 777.76 158.467 777.279 158.467C776.779 158.467 776.384 158.578 776.096 158.8C775.811 159.019 775.614 159.263 775.504 159.531L774.107 159.213C774.273 158.749 774.515 158.375 774.833 158.089C775.155 157.801 775.524 157.592 775.942 157.463C776.36 157.33 776.799 157.264 777.259 157.264C777.564 157.264 777.887 157.301 778.229 157.374C778.574 157.443 778.895 157.572 779.193 157.761C779.495 157.95 779.742 158.22 779.934 158.572C780.126 158.92 780.222 159.372 780.222 159.929V165H778.771V163.956H778.711C778.615 164.148 778.471 164.337 778.279 164.523C778.086 164.708 777.839 164.862 777.538 164.985C777.236 165.108 776.875 165.169 776.454 165.169ZM776.777 163.976C777.188 163.976 777.539 163.895 777.831 163.732C778.126 163.57 778.35 163.358 778.502 163.096C778.658 162.831 778.736 162.547 778.736 162.246V161.261C778.683 161.314 778.58 161.364 778.428 161.411C778.279 161.454 778.108 161.492 777.916 161.525C777.723 161.555 777.536 161.583 777.354 161.609C777.172 161.633 777.019 161.652 776.896 161.669C776.608 161.705 776.345 161.767 776.106 161.853C775.871 161.939 775.682 162.063 775.539 162.226C775.4 162.385 775.33 162.597 775.33 162.862C775.33 163.23 775.466 163.509 775.738 163.697C776.01 163.883 776.356 163.976 776.777 163.976ZM782.322 165V154.818H783.808V158.602H783.898C783.984 158.442 784.108 158.259 784.271 158.05C784.433 157.841 784.658 157.659 784.947 157.503C785.235 157.344 785.616 157.264 786.09 157.264C786.707 157.264 787.257 157.42 787.741 157.732C788.225 158.043 788.604 158.492 788.879 159.079C789.158 159.665 789.297 160.371 789.297 161.197C789.297 162.022 789.159 162.73 788.884 163.32C788.609 163.906 788.231 164.359 787.751 164.677C787.27 164.992 786.722 165.149 786.105 165.149C785.641 165.149 785.262 165.071 784.967 164.915C784.675 164.76 784.446 164.577 784.281 164.369C784.115 164.16 783.987 163.974 783.898 163.812H783.773V165H782.322ZM783.778 161.182C783.778 161.719 783.856 162.189 784.012 162.594C784.168 162.998 784.393 163.315 784.688 163.543C784.983 163.769 785.344 163.881 785.772 163.881C786.216 163.881 786.587 163.764 786.886 163.528C787.184 163.29 787.409 162.967 787.562 162.559C787.718 162.151 787.795 161.692 787.795 161.182C787.795 160.678 787.719 160.226 787.567 159.825C787.418 159.424 787.192 159.107 786.891 158.875C786.592 158.643 786.219 158.527 785.772 158.527C785.341 158.527 784.977 158.638 784.678 158.86C784.383 159.082 784.16 159.392 784.007 159.79C783.855 160.187 783.778 160.652 783.778 161.182ZM794.257 165.154C793.505 165.154 792.857 164.993 792.313 164.672C791.773 164.347 791.356 163.891 791.061 163.305C790.769 162.715 790.623 162.024 790.623 161.232C790.623 160.449 790.769 159.76 791.061 159.163C791.356 158.567 791.767 158.101 792.294 157.766C792.824 157.432 793.444 157.264 794.153 157.264C794.584 157.264 795.001 157.335 795.406 157.478C795.81 157.621 796.173 157.844 796.494 158.149C796.816 158.454 797.07 158.85 797.255 159.337C797.441 159.821 797.534 160.41 797.534 161.102V161.629H791.463V160.516H796.077C796.077 160.125 795.997 159.778 795.838 159.477C795.679 159.172 795.455 158.931 795.167 158.756C794.882 158.58 794.547 158.492 794.163 158.492C793.745 158.492 793.381 158.595 793.069 158.8C792.761 159.003 792.522 159.268 792.353 159.596C792.187 159.921 792.105 160.274 792.105 160.655V161.525C792.105 162.035 792.194 162.469 792.373 162.827C792.555 163.185 792.809 163.459 793.134 163.648C793.459 163.833 793.838 163.926 794.272 163.926C794.554 163.926 794.811 163.886 795.043 163.807C795.275 163.724 795.475 163.601 795.644 163.439C795.813 163.277 795.943 163.076 796.032 162.837L797.439 163.091C797.326 163.505 797.124 163.868 796.833 164.18C796.544 164.488 796.181 164.728 795.744 164.901C795.31 165.07 794.814 165.154 794.257 165.154ZM800.669 154.818V165H799.183V154.818H800.669Z" fill="white" fill-opacity="0.7"/>
<path d="M835.449 165V154.818H836.985V163.678H841.599V165H835.449ZM845.454 165.169C844.97 165.169 844.533 165.08 844.142 164.901C843.75 164.718 843.441 164.455 843.212 164.11C842.986 163.765 842.874 163.343 842.874 162.842C842.874 162.411 842.957 162.057 843.122 161.778C843.288 161.5 843.512 161.28 843.794 161.117C844.075 160.955 844.39 160.832 844.738 160.749C845.086 160.666 845.441 160.603 845.802 160.56C846.259 160.507 846.631 160.464 846.916 160.431C847.201 160.395 847.408 160.337 847.537 160.257C847.666 160.178 847.731 160.048 847.731 159.869V159.835C847.731 159.4 847.608 159.064 847.363 158.825C847.121 158.587 846.76 158.467 846.279 158.467C845.779 158.467 845.384 158.578 845.096 158.8C844.811 159.019 844.614 159.263 844.504 159.531L843.107 159.213C843.273 158.749 843.515 158.375 843.833 158.089C844.155 157.801 844.524 157.592 844.942 157.463C845.36 157.33 845.799 157.264 846.259 157.264C846.564 157.264 846.887 157.301 847.229 157.374C847.574 157.443 847.895 157.572 848.193 157.761C848.495 157.95 848.742 158.22 848.934 158.572C849.126 158.92 849.222 159.372 849.222 159.929V165H847.771V163.956H847.711C847.615 164.148 847.471 164.337 847.279 164.523C847.086 164.708 846.839 164.862 846.538 164.985C846.236 165.108 845.875 165.169 845.454 165.169ZM845.777 163.976C846.188 163.976 846.539 163.895 846.831 163.732C847.126 163.57 847.35 163.358 847.502 163.096C847.658 162.831 847.736 162.547 847.736 162.246V161.261C847.683 161.314 847.58 161.364 847.428 161.411C847.279 161.454 847.108 161.492 846.916 161.525C846.723 161.555 846.536 161.583 846.354 161.609C846.172 161.633 846.019 161.652 845.896 161.669C845.608 161.705 845.345 161.767 845.106 161.853C844.871 161.939 844.682 162.063 844.539 162.226C844.4 162.385 844.33 162.597 844.33 162.862C844.33 163.23 844.466 163.509 844.738 163.697C845.01 163.883 845.356 163.976 845.777 163.976ZM851.322 165V154.818H852.808V158.602H852.898C852.984 158.442 853.108 158.259 853.271 158.05C853.433 157.841 853.658 157.659 853.947 157.503C854.235 157.344 854.616 157.264 855.09 157.264C855.707 157.264 856.257 157.42 856.741 157.732C857.225 158.043 857.604 158.492 857.879 159.079C858.158 159.665 858.297 160.371 858.297 161.197C858.297 162.022 858.159 162.73 857.884 163.32C857.609 163.906 857.231 164.359 856.751 164.677C856.27 164.992 855.722 165.149 855.105 165.149C854.641 165.149 854.262 165.071 853.967 164.915C853.675 164.76 853.446 164.577 853.281 164.369C853.115 164.16 852.987 163.974 852.898 163.812H852.773V165H851.322ZM852.778 161.182C852.778 161.719 852.856 162.189 853.012 162.594C853.168 162.998 853.393 163.315 853.688 163.543C853.983 163.769 854.344 163.881 854.772 163.881C855.216 163.881 855.587 163.764 855.886 163.528C856.184 163.29 856.409 162.967 856.562 162.559C856.718 162.151 856.795 161.692 856.795 161.182C856.795 160.678 856.719 160.226 856.567 159.825C856.418 159.424 856.192 159.107 855.891 158.875C855.592 158.643 855.219 158.527 854.772 158.527C854.341 158.527 853.977 158.638 853.678 158.86C853.383 159.082 853.16 159.392 853.007 159.79C852.855 160.187 852.778 160.652 852.778 161.182ZM863.257 165.154C862.505 165.154 861.857 164.993 861.313 164.672C860.773 164.347 860.356 163.891 860.061 163.305C859.769 162.715 859.623 162.024 859.623 161.232C859.623 160.449 859.769 159.76 860.061 159.163C860.356 158.567 860.767 158.101 861.294 157.766C861.824 157.432 862.444 157.264 863.153 157.264C863.584 157.264 864.001 157.335 864.406 157.478C864.81 157.621 865.173 157.844 865.494 158.149C865.816 158.454 866.07 158.85 866.255 159.337C866.441 159.821 866.534 160.41 866.534 161.102V161.629H860.463V160.516H865.077C865.077 160.125 864.997 159.778 864.838 159.477C864.679 159.172 864.455 158.931 864.167 158.756C863.882 158.58 863.547 158.492 863.163 158.492C862.745 158.492 862.381 158.595 862.069 158.8C861.761 159.003 861.522 159.268 861.353 159.596C861.187 159.921 861.105 160.274 861.105 160.655V161.525C861.105 162.035 861.194 162.469 861.373 162.827C861.555 163.185 861.809 163.459 862.134 163.648C862.459 163.833 862.838 163.926 863.272 163.926C863.554 163.926 863.811 163.886 864.043 163.807C864.275 163.724 864.475 163.601 864.644 163.439C864.813 163.277 864.943 163.076 865.032 162.837L866.439 163.091C866.326 163.505 866.124 163.868 865.833 164.18C865.544 164.488 865.181 164.728 864.744 164.901C864.31 165.07 863.814 165.154 863.257 165.154ZM869.669 154.818V165H868.183V154.818H869.669Z" fill="white" fill-opacity="0.7"/>
<path d="M904.449 165V154.818H905.985V163.678H910.599V165H904.449ZM914.454 165.169C913.97 165.169 913.533 165.08 913.142 164.901C912.75 164.718 912.441 164.455 912.212 164.11C911.986 163.765 911.874 163.343 911.874 162.842C911.874 162.411 911.957 162.057 912.122 161.778C912.288 161.5 912.512 161.28 912.794 161.117C913.075 160.955 913.39 160.832 913.738 160.749C914.086 160.666 914.441 160.603 914.802 160.56C915.259 160.507 915.631 160.464 915.916 160.431C916.201 160.395 916.408 160.337 916.537 160.257C916.666 160.178 916.731 160.048 916.731 159.869V159.835C916.731 159.4 916.608 159.064 916.363 158.825C916.121 158.587 915.76 158.467 915.279 158.467C914.779 158.467 914.384 158.578 914.096 158.8C913.811 159.019 913.614 159.263 913.504 159.531L912.107 159.213C912.273 158.749 912.515 158.375 912.833 158.089C913.155 157.801 913.524 157.592 913.942 157.463C914.36 157.33 914.799 157.264 915.259 157.264C915.564 157.264 915.887 157.301 916.229 157.374C916.574 157.443 916.895 157.572 917.193 157.761C917.495 157.95 917.742 158.22 917.934 158.572C918.126 158.92 918.222 159.372 918.222 159.929V165H916.771V163.956H916.711C916.615 164.148 916.471 164.337 916.279 164.523C916.086 164.708 915.839 164.862 915.538 164.985C915.236 165.108 914.875 165.169 914.454 165.169ZM914.777 163.976C915.188 163.976 915.539 163.895 915.831 163.732C916.126 163.57 916.35 163.358 916.502 163.096C916.658 162.831 916.736 162.547 916.736 162.246V161.261C916.683 161.314 916.58 161.364 916.428 161.411C916.279 161.454 916.108 161.492 915.916 161.525C915.723 161.555 915.536 161.583 915.354 161.609C915.172 161.633 915.019 161.652 914.896 161.669C914.608 161.705 914.345 161.767 914.106 161.853C913.871 161.939 913.682 162.063 913.539 162.226C913.4 162.385 913.33 162.597 913.33 162.862C913.33 163.23 913.466 163.509 913.738 163.697C914.01 163.883 914.356 163.976 914.777 163.976ZM920.322 165V154.818H921.808V158.602H921.898C921.984 158.442 922.108 158.259 922.271 158.05C922.433 157.841 922.658 157.659 922.947 157.503C923.235 157.344 923.616 157.264 924.09 157.264C924.707 157.264 925.257 157.42 925.741 157.732C926.225 158.043 926.604 158.492 926.879 159.079C927.158 159.665 927.297 160.371 927.297 161.197C927.297 162.022 927.159 162.73 926.884 163.32C926.609 163.906 926.231 164.359 925.751 164.677C925.27 164.992 924.722 165.149 924.105 165.149C923.641 165.149 923.262 165.071 922.967 164.915C922.675 164.76 922.446 164.577 922.281 164.369C922.115 164.16 921.987 163.974 921.898 163.812H921.773V165H920.322ZM921.778 161.182C921.778 161.719 921.856 162.189 922.012 162.594C922.168 162.998 922.393 163.315 922.688 163.543C922.983 163.769 923.344 163.881 923.772 163.881C924.216 163.881 924.587 163.764 924.886 163.528C925.184 163.29 925.409 162.967 925.562 162.559C925.718 162.151 925.795 161.692 925.795 161.182C925.795 160.678 925.719 160.226 925.567 159.825C925.418 159.424 925.192 159.107 924.891 158.875C924.592 158.643 924.219 158.527 923.772 158.527C923.341 158.527 922.977 158.638 922.678 158.86C922.383 159.082 922.16 159.392 922.007 159.79C921.855 160.187 921.778 160.652 921.778 161.182ZM932.257 165.154C931.505 165.154 930.857 164.993 930.313 164.672C929.773 164.347 929.356 163.891 929.061 163.305C928.769 162.715 928.623 162.024 928.623 161.232C928.623 160.449 928.769 159.76 929.061 159.163C929.356 158.567 929.767 158.101 930.294 157.766C930.824 157.432 931.444 157.264 932.153 157.264C932.584 157.264 933.001 157.335 933.406 157.478C933.81 157.621 934.173 157.844 934.494 158.149C934.816 158.454 935.07 158.85 935.255 159.337C935.441 159.821 935.534 160.41 935.534 161.102V161.629H929.463V160.516H934.077C934.077 160.125 933.997 159.778 933.838 159.477C933.679 159.172 933.455 158.931 933.167 158.756C932.882 158.58 932.547 158.492 932.163 158.492C931.745 158.492 931.381 158.595 931.069 158.8C930.761 159.003 930.522 159.268 930.353 159.596C930.187 159.921 930.105 160.274 930.105 160.655V161.525C930.105 162.035 930.194 162.469 930.373 162.827C930.555 163.185 930.809 163.459 931.134 163.648C931.459 163.833 931.838 163.926 932.272 163.926C932.554 163.926 932.811 163.886 933.043 163.807C933.275 163.724 933.475 163.601 933.644 163.439C933.813 163.277 933.943 163.076 934.032 162.837L935.439 163.091C935.326 163.505 935.124 163.868 934.833 164.18C934.544 164.488 934.181 164.728 933.744 164.901C933.31 165.07 932.814 165.154 932.257 165.154ZM938.669 154.818V165H937.183V154.818H938.669Z" fill="white" fill-opacity="0.7"/>
<path d="M1017.35 159.646L1011.35 153.646C1011.31 153.599 1011.25 153.561 1011.19 153.535C1011.13 153.509 1011.06 153.495 1011 153.495C1010.93 153.494 1010.87 153.507 1010.81 153.532C1010.74 153.557 1010.69 153.594 1010.64 153.641C1010.59 153.688 1010.56 153.744 1010.53 153.805C1010.51 153.866 1010.49 153.932 1010.49 153.998C1010.5 154.065 1010.51 154.13 1010.53 154.191C1010.56 154.252 1010.6 154.307 1010.65 154.354L1016.29 160L1010.65 165.646C1010.6 165.693 1010.56 165.748 1010.53 165.809C1010.51 165.87 1010.5 165.935 1010.49 166.002C1010.49 166.068 1010.51 166.134 1010.53 166.195C1010.56 166.256 1010.59 166.312 1010.64 166.359C1010.69 166.406 1010.74 166.443 1010.81 166.468C1010.87 166.493 1010.93 166.506 1011 166.505C1011.06 166.505 1011.13 166.491 1011.19 166.465C1011.25 166.439 1011.31 166.401 1011.35 166.354L1017.35 160.354C1017.45 160.26 1017.5 160.133 1017.5 160C1017.5 159.867 1017.45 159.74 1017.35 159.646Z" fill="white" fill-opacity="0.95"/>
</g>
<rect x="270" y="236" width="32" height="32" rx="16" fill="#DA0087"/>
<path d="M284.398 249.388H282.116C282.256 248.417 282.741 247.666 283.572 247.134C284.235 246.705 285.005 246.49 285.882 246.49C286.937 246.49 287.781 246.784 288.416 247.372C288.976 247.885 289.256 248.525 289.256 249.29C289.256 250.046 289.032 250.732 288.584 251.348C288.295 251.731 287.641 252.417 286.624 253.406L285.266 254.722H289.186V256.5H282.396V254.722L284.762 252.398L285.084 252.076C285.924 251.245 286.456 250.667 286.68 250.34C286.913 250.013 287.03 249.663 287.03 249.29C287.03 248.898 286.904 248.595 286.652 248.38C286.437 248.203 286.157 248.114 285.812 248.114C285.457 248.114 285.154 248.226 284.902 248.45C284.659 248.674 284.491 248.987 284.398 249.388Z" fill="white"/>
<g clip-path="url(#clip1_2110_62821)">
<mask id="path-29-inside-1_2110_62821" fill="white">
<path d="M270 284C270 281.791 271.791 280 274 280H327C329.209 280 331 281.791 331 284V312H270V284Z"/>
</mask>
<path d="M270 280H331H270ZM331 314H270V310H331V314ZM270 312V280V312ZM331 280V312V280Z" fill="white" fill-opacity="0.9" mask="url(#path-29-inside-1_2110_62821)"/>
<path d="M283.449 301V290.818H284.985V299.678H289.599V301H283.449ZM293.454 301.169C292.97 301.169 292.533 301.08 292.142 300.901C291.75 300.718 291.441 300.455 291.212 300.11C290.986 299.765 290.874 299.343 290.874 298.842C290.874 298.411 290.957 298.057 291.122 297.778C291.288 297.5 291.512 297.28 291.794 297.117C292.075 296.955 292.39 296.832 292.738 296.749C293.086 296.666 293.441 296.603 293.802 296.56C294.259 296.507 294.631 296.464 294.916 296.431C295.201 296.395 295.408 296.337 295.537 296.257C295.666 296.178 295.731 296.048 295.731 295.869V295.835C295.731 295.4 295.608 295.064 295.363 294.825C295.121 294.587 294.76 294.467 294.279 294.467C293.779 294.467 293.384 294.578 293.096 294.8C292.811 295.019 292.614 295.263 292.504 295.531L291.107 295.213C291.273 294.749 291.515 294.375 291.833 294.089C292.155 293.801 292.524 293.592 292.942 293.463C293.36 293.33 293.799 293.264 294.259 293.264C294.564 293.264 294.887 293.301 295.229 293.374C295.574 293.443 295.895 293.572 296.193 293.761C296.495 293.95 296.742 294.22 296.934 294.572C297.126 294.92 297.222 295.372 297.222 295.929V301H295.771V299.956H295.711C295.615 300.148 295.471 300.337 295.279 300.523C295.086 300.708 294.839 300.862 294.538 300.985C294.236 301.108 293.875 301.169 293.454 301.169ZM293.777 299.976C294.188 299.976 294.539 299.895 294.831 299.732C295.126 299.57 295.35 299.358 295.502 299.096C295.658 298.831 295.736 298.547 295.736 298.246V297.261C295.683 297.314 295.58 297.364 295.428 297.411C295.279 297.454 295.108 297.492 294.916 297.525C294.723 297.555 294.536 297.583 294.354 297.609C294.172 297.633 294.019 297.652 293.896 297.669C293.608 297.705 293.345 297.767 293.106 297.853C292.871 297.939 292.682 298.063 292.539 298.226C292.4 298.385 292.33 298.597 292.33 298.862C292.33 299.23 292.466 299.509 292.738 299.697C293.01 299.883 293.356 299.976 293.777 299.976ZM299.322 301V290.818H300.808V294.602H300.898C300.984 294.442 301.108 294.259 301.271 294.05C301.433 293.841 301.658 293.659 301.947 293.503C302.235 293.344 302.616 293.264 303.09 293.264C303.707 293.264 304.257 293.42 304.741 293.732C305.225 294.043 305.604 294.492 305.879 295.079C306.158 295.665 306.297 296.371 306.297 297.197C306.297 298.022 306.159 298.73 305.884 299.32C305.609 299.906 305.231 300.359 304.751 300.677C304.27 300.992 303.722 301.149 303.105 301.149C302.641 301.149 302.262 301.071 301.967 300.915C301.675 300.76 301.446 300.577 301.281 300.369C301.115 300.16 300.987 299.974 300.898 299.812H300.773V301H299.322ZM300.778 297.182C300.778 297.719 300.856 298.189 301.012 298.594C301.168 298.998 301.393 299.315 301.688 299.543C301.983 299.769 302.344 299.881 302.772 299.881C303.216 299.881 303.587 299.764 303.886 299.528C304.184 299.29 304.409 298.967 304.562 298.559C304.718 298.151 304.795 297.692 304.795 297.182C304.795 296.678 304.719 296.226 304.567 295.825C304.418 295.424 304.192 295.107 303.891 294.875C303.592 294.643 303.219 294.527 302.772 294.527C302.341 294.527 301.977 294.638 301.678 294.86C301.383 295.082 301.16 295.392 301.007 295.79C300.855 296.187 300.778 296.652 300.778 297.182ZM311.257 301.154C310.505 301.154 309.857 300.993 309.313 300.672C308.773 300.347 308.356 299.891 308.061 299.305C307.769 298.715 307.623 298.024 307.623 297.232C307.623 296.449 307.769 295.76 308.061 295.163C308.356 294.567 308.767 294.101 309.294 293.766C309.824 293.432 310.444 293.264 311.153 293.264C311.584 293.264 312.001 293.335 312.406 293.478C312.81 293.621 313.173 293.844 313.494 294.149C313.816 294.454 314.07 294.85 314.255 295.337C314.441 295.821 314.534 296.41 314.534 297.102V297.629H308.463V296.516H313.077C313.077 296.125 312.997 295.778 312.838 295.477C312.679 295.172 312.455 294.931 312.167 294.756C311.882 294.58 311.547 294.492 311.163 294.492C310.745 294.492 310.381 294.595 310.069 294.8C309.761 295.003 309.522 295.268 309.353 295.596C309.187 295.921 309.105 296.274 309.105 296.655V297.525C309.105 298.035 309.194 298.469 309.373 298.827C309.555 299.185 309.809 299.459 310.134 299.648C310.459 299.833 310.838 299.926 311.272 299.926C311.554 299.926 311.811 299.886 312.043 299.807C312.275 299.724 312.475 299.601 312.644 299.439C312.813 299.277 312.943 299.076 313.032 298.837L314.439 299.091C314.326 299.505 314.124 299.868 313.833 300.18C313.544 300.488 313.181 300.728 312.744 300.901C312.31 301.07 311.814 301.154 311.257 301.154ZM317.669 290.818V301H316.183V290.818H317.669Z" fill="white" fill-opacity="0.95"/>
<path d="M352.449 301V290.818H353.985V299.678H358.599V301H352.449ZM362.454 301.169C361.97 301.169 361.533 301.08 361.142 300.901C360.75 300.718 360.441 300.455 360.212 300.11C359.986 299.765 359.874 299.343 359.874 298.842C359.874 298.411 359.957 298.057 360.122 297.778C360.288 297.5 360.512 297.28 360.794 297.117C361.075 296.955 361.39 296.832 361.738 296.749C362.086 296.666 362.441 296.603 362.802 296.56C363.259 296.507 363.631 296.464 363.916 296.431C364.201 296.395 364.408 296.337 364.537 296.257C364.666 296.178 364.731 296.048 364.731 295.869V295.835C364.731 295.4 364.608 295.064 364.363 294.825C364.121 294.587 363.76 294.467 363.279 294.467C362.779 294.467 362.384 294.578 362.096 294.8C361.811 295.019 361.614 295.263 361.504 295.531L360.107 295.213C360.273 294.749 360.515 294.375 360.833 294.089C361.155 293.801 361.524 293.592 361.942 293.463C362.36 293.33 362.799 293.264 363.259 293.264C363.564 293.264 363.887 293.301 364.229 293.374C364.574 293.443 364.895 293.572 365.193 293.761C365.495 293.95 365.742 294.22 365.934 294.572C366.126 294.92 366.222 295.372 366.222 295.929V301H364.771V299.956H364.711C364.615 300.148 364.471 300.337 364.279 300.523C364.086 300.708 363.839 300.862 363.538 300.985C363.236 301.108 362.875 301.169 362.454 301.169ZM362.777 299.976C363.188 299.976 363.539 299.895 363.831 299.732C364.126 299.57 364.35 299.358 364.502 299.096C364.658 298.831 364.736 298.547 364.736 298.246V297.261C364.683 297.314 364.58 297.364 364.428 297.411C364.279 297.454 364.108 297.492 363.916 297.525C363.723 297.555 363.536 297.583 363.354 297.609C363.172 297.633 363.019 297.652 362.896 297.669C362.608 297.705 362.345 297.767 362.106 297.853C361.871 297.939 361.682 298.063 361.539 298.226C361.4 298.385 361.33 298.597 361.33 298.862C361.33 299.23 361.466 299.509 361.738 299.697C362.01 299.883 362.356 299.976 362.777 299.976ZM368.322 301V290.818H369.808V294.602H369.898C369.984 294.442 370.108 294.259 370.271 294.05C370.433 293.841 370.658 293.659 370.947 293.503C371.235 293.344 371.616 293.264 372.09 293.264C372.707 293.264 373.257 293.42 373.741 293.732C374.225 294.043 374.604 294.492 374.879 295.079C375.158 295.665 375.297 296.371 375.297 297.197C375.297 298.022 375.159 298.73 374.884 299.32C374.609 299.906 374.231 300.359 373.751 300.677C373.27 300.992 372.722 301.149 372.105 301.149C371.641 301.149 371.262 301.071 370.967 300.915C370.675 300.76 370.446 300.577 370.281 300.369C370.115 300.16 369.987 299.974 369.898 299.812H369.773V301H368.322ZM369.778 297.182C369.778 297.719 369.856 298.189 370.012 298.594C370.168 298.998 370.393 299.315 370.688 299.543C370.983 299.769 371.344 299.881 371.772 299.881C372.216 299.881 372.587 299.764 372.886 299.528C373.184 299.29 373.409 298.967 373.562 298.559C373.718 298.151 373.795 297.692 373.795 297.182C373.795 296.678 373.719 296.226 373.567 295.825C373.418 295.424 373.192 295.107 372.891 294.875C372.592 294.643 372.219 294.527 371.772 294.527C371.341 294.527 370.977 294.638 370.678 294.86C370.383 295.082 370.16 295.392 370.007 295.79C369.855 296.187 369.778 296.652 369.778 297.182ZM380.257 301.154C379.505 301.154 378.857 300.993 378.313 300.672C377.773 300.347 377.356 299.891 377.061 299.305C376.769 298.715 376.623 298.024 376.623 297.232C376.623 296.449 376.769 295.76 377.061 295.163C377.356 294.567 377.767 294.101 378.294 293.766C378.824 293.432 379.444 293.264 380.153 293.264C380.584 293.264 381.001 293.335 381.406 293.478C381.81 293.621 382.173 293.844 382.494 294.149C382.816 294.454 383.07 294.85 383.255 295.337C383.441 295.821 383.534 296.41 383.534 297.102V297.629H377.463V296.516H382.077C382.077 296.125 381.997 295.778 381.838 295.477C381.679 295.172 381.455 294.931 381.167 294.756C380.882 294.58 380.547 294.492 380.163 294.492C379.745 294.492 379.381 294.595 379.069 294.8C378.761 295.003 378.522 295.268 378.353 295.596C378.187 295.921 378.105 296.274 378.105 296.655V297.525C378.105 298.035 378.194 298.469 378.373 298.827C378.555 299.185 378.809 299.459 379.134 299.648C379.459 299.833 379.838 299.926 380.272 299.926C380.554 299.926 380.811 299.886 381.043 299.807C381.275 299.724 381.475 299.601 381.644 299.439C381.813 299.277 381.943 299.076 382.032 298.837L383.439 299.091C383.326 299.505 383.124 299.868 382.833 300.18C382.544 300.488 382.181 300.728 381.744 300.901C381.31 301.07 380.814 301.154 380.257 301.154ZM386.669 290.818V301H385.183V290.818H386.669Z" fill="white" fill-opacity="0.7"/>
<path d="M421.449 301V290.818H422.985V299.678H427.599V301H421.449ZM431.454 301.169C430.97 301.169 430.533 301.08 430.142 300.901C429.75 300.718 429.441 300.455 429.212 300.11C428.986 299.765 428.874 299.343 428.874 298.842C428.874 298.411 428.957 298.057 429.122 297.778C429.288 297.5 429.512 297.28 429.794 297.117C430.075 296.955 430.39 296.832 430.738 296.749C431.086 296.666 431.441 296.603 431.802 296.56C432.259 296.507 432.631 296.464 432.916 296.431C433.201 296.395 433.408 296.337 433.537 296.257C433.666 296.178 433.731 296.048 433.731 295.869V295.835C433.731 295.4 433.608 295.064 433.363 294.825C433.121 294.587 432.76 294.467 432.279 294.467C431.779 294.467 431.384 294.578 431.096 294.8C430.811 295.019 430.614 295.263 430.504 295.531L429.107 295.213C429.273 294.749 429.515 294.375 429.833 294.089C430.155 293.801 430.524 293.592 430.942 293.463C431.36 293.33 431.799 293.264 432.259 293.264C432.564 293.264 432.887 293.301 433.229 293.374C433.574 293.443 433.895 293.572 434.193 293.761C434.495 293.95 434.742 294.22 434.934 294.572C435.126 294.92 435.222 295.372 435.222 295.929V301H433.771V299.956H433.711C433.615 300.148 433.471 300.337 433.279 300.523C433.086 300.708 432.839 300.862 432.538 300.985C432.236 301.108 431.875 301.169 431.454 301.169ZM431.777 299.976C432.188 299.976 432.539 299.895 432.831 299.732C433.126 299.57 433.35 299.358 433.502 299.096C433.658 298.831 433.736 298.547 433.736 298.246V297.261C433.683 297.314 433.58 297.364 433.428 297.411C433.279 297.454 433.108 297.492 432.916 297.525C432.723 297.555 432.536 297.583 432.354 297.609C432.172 297.633 432.019 297.652 431.896 297.669C431.608 297.705 431.345 297.767 431.106 297.853C430.871 297.939 430.682 298.063 430.539 298.226C430.4 298.385 430.33 298.597 430.33 298.862C430.33 299.23 430.466 299.509 430.738 299.697C431.01 299.883 431.356 299.976 431.777 299.976ZM437.322 301V290.818H438.808V294.602H438.898C438.984 294.442 439.108 294.259 439.271 294.05C439.433 293.841 439.658 293.659 439.947 293.503C440.235 293.344 440.616 293.264 441.09 293.264C441.707 293.264 442.257 293.42 442.741 293.732C443.225 294.043 443.604 294.492 443.879 295.079C444.158 295.665 444.297 296.371 444.297 297.197C444.297 298.022 444.159 298.73 443.884 299.32C443.609 299.906 443.231 300.359 442.751 300.677C442.27 300.992 441.722 301.149 441.105 301.149C440.641 301.149 440.262 301.071 439.967 300.915C439.675 300.76 439.446 300.577 439.281 300.369C439.115 300.16 438.987 299.974 438.898 299.812H438.773V301H437.322ZM438.778 297.182C438.778 297.719 438.856 298.189 439.012 298.594C439.168 298.998 439.393 299.315 439.688 299.543C439.983 299.769 440.344 299.881 440.772 299.881C441.216 299.881 441.587 299.764 441.886 299.528C442.184 299.29 442.409 298.967 442.562 298.559C442.718 298.151 442.795 297.692 442.795 297.182C442.795 296.678 442.719 296.226 442.567 295.825C442.418 295.424 442.192 295.107 441.891 294.875C441.592 294.643 441.219 294.527 440.772 294.527C440.341 294.527 439.977 294.638 439.678 294.86C439.383 295.082 439.16 295.392 439.007 295.79C438.855 296.187 438.778 296.652 438.778 297.182ZM449.257 301.154C448.505 301.154 447.857 300.993 447.313 300.672C446.773 300.347 446.356 299.891 446.061 299.305C445.769 298.715 445.623 298.024 445.623 297.232C445.623 296.449 445.769 295.76 446.061 295.163C446.356 294.567 446.767 294.101 447.294 293.766C447.824 293.432 448.444 293.264 449.153 293.264C449.584 293.264 450.001 293.335 450.406 293.478C450.81 293.621 451.173 293.844 451.494 294.149C451.816 294.454 452.07 294.85 452.255 295.337C452.441 295.821 452.534 296.41 452.534 297.102V297.629H446.463V296.516H451.077C451.077 296.125 450.997 295.778 450.838 295.477C450.679 295.172 450.455 294.931 450.167 294.756C449.882 294.58 449.547 294.492 449.163 294.492C448.745 294.492 448.381 294.595 448.069 294.8C447.761 295.003 447.522 295.268 447.353 295.596C447.187 295.921 447.105 296.274 447.105 296.655V297.525C447.105 298.035 447.194 298.469 447.373 298.827C447.555 299.185 447.809 299.459 448.134 299.648C448.459 299.833 448.838 299.926 449.272 299.926C449.554 299.926 449.811 299.886 450.043 299.807C450.275 299.724 450.475 299.601 450.644 299.439C450.813 299.277 450.943 299.076 451.032 298.837L452.439 299.091C452.326 299.505 452.124 299.868 451.833 300.18C451.544 300.488 451.181 300.728 450.744 300.901C450.31 301.07 449.814 301.154 449.257 301.154ZM455.669 290.818V301H454.183V290.818H455.669Z" fill="white" fill-opacity="0.7"/>
<path d="M490.449 301V290.818H491.985V299.678H496.599V301H490.449ZM500.454 301.169C499.97 301.169 499.533 301.08 499.142 300.901C498.75 300.718 498.441 300.455 498.212 300.11C497.986 299.765 497.874 299.343 497.874 298.842C497.874 298.411 497.957 298.057 498.122 297.778C498.288 297.5 498.512 297.28 498.794 297.117C499.075 296.955 499.39 296.832 499.738 296.749C500.086 296.666 500.441 296.603 500.802 296.56C501.259 296.507 501.631 296.464 501.916 296.431C502.201 296.395 502.408 296.337 502.537 296.257C502.666 296.178 502.731 296.048 502.731 295.869V295.835C502.731 295.4 502.608 295.064 502.363 294.825C502.121 294.587 501.76 294.467 501.279 294.467C500.779 294.467 500.384 294.578 500.096 294.8C499.811 295.019 499.614 295.263 499.504 295.531L498.107 295.213C498.273 294.749 498.515 294.375 498.833 294.089C499.155 293.801 499.524 293.592 499.942 293.463C500.36 293.33 500.799 293.264 501.259 293.264C501.564 293.264 501.887 293.301 502.229 293.374C502.574 293.443 502.895 293.572 503.193 293.761C503.495 293.95 503.742 294.22 503.934 294.572C504.126 294.92 504.222 295.372 504.222 295.929V301H502.771V299.956H502.711C502.615 300.148 502.471 300.337 502.279 300.523C502.086 300.708 501.839 300.862 501.538 300.985C501.236 301.108 500.875 301.169 500.454 301.169ZM500.777 299.976C501.188 299.976 501.539 299.895 501.831 299.732C502.126 299.57 502.35 299.358 502.502 299.096C502.658 298.831 502.736 298.547 502.736 298.246V297.261C502.683 297.314 502.58 297.364 502.428 297.411C502.279 297.454 502.108 297.492 501.916 297.525C501.723 297.555 501.536 297.583 501.354 297.609C501.172 297.633 501.019 297.652 500.896 297.669C500.608 297.705 500.345 297.767 500.106 297.853C499.871 297.939 499.682 298.063 499.539 298.226C499.4 298.385 499.33 298.597 499.33 298.862C499.33 299.23 499.466 299.509 499.738 299.697C500.01 299.883 500.356 299.976 500.777 299.976ZM506.322 301V290.818H507.808V294.602H507.898C507.984 294.442 508.108 294.259 508.271 294.05C508.433 293.841 508.658 293.659 508.947 293.503C509.235 293.344 509.616 293.264 510.09 293.264C510.707 293.264 511.257 293.42 511.741 293.732C512.225 294.043 512.604 294.492 512.879 295.079C513.158 295.665 513.297 296.371 513.297 297.197C513.297 298.022 513.159 298.73 512.884 299.32C512.609 299.906 512.231 300.359 511.751 300.677C511.27 300.992 510.722 301.149 510.105 301.149C509.641 301.149 509.262 301.071 508.967 300.915C508.675 300.76 508.446 300.577 508.281 300.369C508.115 300.16 507.987 299.974 507.898 299.812H507.773V301H506.322ZM507.778 297.182C507.778 297.719 507.856 298.189 508.012 298.594C508.168 298.998 508.393 299.315 508.688 299.543C508.983 299.769 509.344 299.881 509.772 299.881C510.216 299.881 510.587 299.764 510.886 299.528C511.184 299.29 511.409 298.967 511.562 298.559C511.718 298.151 511.795 297.692 511.795 297.182C511.795 296.678 511.719 296.226 511.567 295.825C511.418 295.424 511.192 295.107 510.891 294.875C510.592 294.643 510.219 294.527 509.772 294.527C509.341 294.527 508.977 294.638 508.678 294.86C508.383 295.082 508.16 295.392 508.007 295.79C507.855 296.187 507.778 296.652 507.778 297.182ZM518.257 301.154C517.505 301.154 516.857 300.993 516.313 300.672C515.773 300.347 515.356 299.891 515.061 299.305C514.769 298.715 514.623 298.024 514.623 297.232C514.623 296.449 514.769 295.76 515.061 295.163C515.356 294.567 515.767 294.101 516.294 293.766C516.824 293.432 517.444 293.264 518.153 293.264C518.584 293.264 519.001 293.335 519.406 293.478C519.81 293.621 520.173 293.844 520.494 294.149C520.816 294.454 521.07 294.85 521.255 295.337C521.441 295.821 521.534 296.41 521.534 297.102V297.629H515.463V296.516H520.077C520.077 296.125 519.997 295.778 519.838 295.477C519.679 295.172 519.455 294.931 519.167 294.756C518.882 294.58 518.547 294.492 518.163 294.492C517.745 294.492 517.381 294.595 517.069 294.8C516.761 295.003 516.522 295.268 516.353 295.596C516.187 295.921 516.105 296.274 516.105 296.655V297.525C516.105 298.035 516.194 298.469 516.373 298.827C516.555 299.185 516.809 299.459 517.134 299.648C517.459 299.833 517.838 299.926 518.272 299.926C518.554 299.926 518.811 299.886 519.043 299.807C519.275 299.724 519.475 299.601 519.644 299.439C519.813 299.277 519.943 299.076 520.032 298.837L521.439 299.091C521.326 299.505 521.124 299.868 520.833 300.18C520.544 300.488 520.181 300.728 519.744 300.901C519.31 301.07 518.814 301.154 518.257 301.154ZM524.669 290.818V301H523.183V290.818H524.669Z" fill="white" fill-opacity="0.7"/>
<path d="M559.449 301V290.818H560.985V299.678H565.599V301H559.449ZM569.454 301.169C568.97 301.169 568.533 301.08 568.142 300.901C567.75 300.718 567.441 300.455 567.212 300.11C566.986 299.765 566.874 299.343 566.874 298.842C566.874 298.411 566.957 298.057 567.122 297.778C567.288 297.5 567.512 297.28 567.794 297.117C568.075 296.955 568.39 296.832 568.738 296.749C569.086 296.666 569.441 296.603 569.802 296.56C570.259 296.507 570.631 296.464 570.916 296.431C571.201 296.395 571.408 296.337 571.537 296.257C571.666 296.178 571.731 296.048 571.731 295.869V295.835C571.731 295.4 571.608 295.064 571.363 294.825C571.121 294.587 570.76 294.467 570.279 294.467C569.779 294.467 569.384 294.578 569.096 294.8C568.811 295.019 568.614 295.263 568.504 295.531L567.107 295.213C567.273 294.749 567.515 294.375 567.833 294.089C568.155 293.801 568.524 293.592 568.942 293.463C569.36 293.33 569.799 293.264 570.259 293.264C570.564 293.264 570.887 293.301 571.229 293.374C571.574 293.443 571.895 293.572 572.193 293.761C572.495 293.95 572.742 294.22 572.934 294.572C573.126 294.92 573.222 295.372 573.222 295.929V301H571.771V299.956H571.711C571.615 300.148 571.471 300.337 571.279 300.523C571.086 300.708 570.839 300.862 570.538 300.985C570.236 301.108 569.875 301.169 569.454 301.169ZM569.777 299.976C570.188 299.976 570.539 299.895 570.831 299.732C571.126 299.57 571.35 299.358 571.502 299.096C571.658 298.831 571.736 298.547 571.736 298.246V297.261C571.683 297.314 571.58 297.364 571.428 297.411C571.279 297.454 571.108 297.492 570.916 297.525C570.723 297.555 570.536 297.583 570.354 297.609C570.172 297.633 570.019 297.652 569.896 297.669C569.608 297.705 569.345 297.767 569.106 297.853C568.871 297.939 568.682 298.063 568.539 298.226C568.4 298.385 568.33 298.597 568.33 298.862C568.33 299.23 568.466 299.509 568.738 299.697C569.01 299.883 569.356 299.976 569.777 299.976ZM575.322 301V290.818H576.808V294.602H576.898C576.984 294.442 577.108 294.259 577.271 294.05C577.433 293.841 577.658 293.659 577.947 293.503C578.235 293.344 578.616 293.264 579.09 293.264C579.707 293.264 580.257 293.42 580.741 293.732C581.225 294.043 581.604 294.492 581.879 295.079C582.158 295.665 582.297 296.371 582.297 297.197C582.297 298.022 582.159 298.73 581.884 299.32C581.609 299.906 581.231 300.359 580.751 300.677C580.27 300.992 579.722 301.149 579.105 301.149C578.641 301.149 578.262 301.071 577.967 300.915C577.675 300.76 577.446 300.577 577.281 300.369C577.115 300.16 576.987 299.974 576.898 299.812H576.773V301H575.322ZM576.778 297.182C576.778 297.719 576.856 298.189 577.012 298.594C577.168 298.998 577.393 299.315 577.688 299.543C577.983 299.769 578.344 299.881 578.772 299.881C579.216 299.881 579.587 299.764 579.886 299.528C580.184 299.29 580.409 298.967 580.562 298.559C580.718 298.151 580.795 297.692 580.795 297.182C580.795 296.678 580.719 296.226 580.567 295.825C580.418 295.424 580.192 295.107 579.891 294.875C579.592 294.643 579.219 294.527 578.772 294.527C578.341 294.527 577.977 294.638 577.678 294.86C577.383 295.082 577.16 295.392 577.007 295.79C576.855 296.187 576.778 296.652 576.778 297.182ZM587.257 301.154C586.505 301.154 585.857 300.993 585.313 300.672C584.773 300.347 584.356 299.891 584.061 299.305C583.769 298.715 583.623 298.024 583.623 297.232C583.623 296.449 583.769 295.76 584.061 295.163C584.356 294.567 584.767 294.101 585.294 293.766C585.824 293.432 586.444 293.264 587.153 293.264C587.584 293.264 588.001 293.335 588.406 293.478C588.81 293.621 589.173 293.844 589.494 294.149C589.816 294.454 590.07 294.85 590.255 295.337C590.441 295.821 590.534 296.41 590.534 297.102V297.629H584.463V296.516H589.077C589.077 296.125 588.997 295.778 588.838 295.477C588.679 295.172 588.455 294.931 588.167 294.756C587.882 294.58 587.547 294.492 587.163 294.492C586.745 294.492 586.381 294.595 586.069 294.8C585.761 295.003 585.522 295.268 585.353 295.596C585.187 295.921 585.105 296.274 585.105 296.655V297.525C585.105 298.035 585.194 298.469 585.373 298.827C585.555 299.185 585.809 299.459 586.134 299.648C586.459 299.833 586.838 299.926 587.272 299.926C587.554 299.926 587.811 299.886 588.043 299.807C588.275 299.724 588.475 299.601 588.644 299.439C588.813 299.277 588.943 299.076 589.032 298.837L590.439 299.091C590.326 299.505 590.124 299.868 589.833 300.18C589.544 300.488 589.181 300.728 588.744 300.901C588.31 301.07 587.814 301.154 587.257 301.154ZM593.669 290.818V301H592.183V290.818H593.669Z" fill="white" fill-opacity="0.7"/>
<path d="M628.449 301V290.818H629.985V299.678H634.599V301H628.449ZM638.454 301.169C637.97 301.169 637.533 301.08 637.142 300.901C636.75 300.718 636.441 300.455 636.212 300.11C635.986 299.765 635.874 299.343 635.874 298.842C635.874 298.411 635.957 298.057 636.122 297.778C636.288 297.5 636.512 297.28 636.794 297.117C637.075 296.955 637.39 296.832 637.738 296.749C638.086 296.666 638.441 296.603 638.802 296.56C639.259 296.507 639.631 296.464 639.916 296.431C640.201 296.395 640.408 296.337 640.537 296.257C640.666 296.178 640.731 296.048 640.731 295.869V295.835C640.731 295.4 640.608 295.064 640.363 294.825C640.121 294.587 639.76 294.467 639.279 294.467C638.779 294.467 638.384 294.578 638.096 294.8C637.811 295.019 637.614 295.263 637.504 295.531L636.107 295.213C636.273 294.749 636.515 294.375 636.833 294.089C637.155 293.801 637.524 293.592 637.942 293.463C638.36 293.33 638.799 293.264 639.259 293.264C639.564 293.264 639.887 293.301 640.229 293.374C640.574 293.443 640.895 293.572 641.193 293.761C641.495 293.95 641.742 294.22 641.934 294.572C642.126 294.92 642.222 295.372 642.222 295.929V301H640.771V299.956H640.711C640.615 300.148 640.471 300.337 640.279 300.523C640.086 300.708 639.839 300.862 639.538 300.985C639.236 301.108 638.875 301.169 638.454 301.169ZM638.777 299.976C639.188 299.976 639.539 299.895 639.831 299.732C640.126 299.57 640.35 299.358 640.502 299.096C640.658 298.831 640.736 298.547 640.736 298.246V297.261C640.683 297.314 640.58 297.364 640.428 297.411C640.279 297.454 640.108 297.492 639.916 297.525C639.723 297.555 639.536 297.583 639.354 297.609C639.172 297.633 639.019 297.652 638.896 297.669C638.608 297.705 638.345 297.767 638.106 297.853C637.871 297.939 637.682 298.063 637.539 298.226C637.4 298.385 637.33 298.597 637.33 298.862C637.33 299.23 637.466 299.509 637.738 299.697C638.01 299.883 638.356 299.976 638.777 299.976ZM644.322 301V290.818H645.808V294.602H645.898C645.984 294.442 646.108 294.259 646.271 294.05C646.433 293.841 646.658 293.659 646.947 293.503C647.235 293.344 647.616 293.264 648.09 293.264C648.707 293.264 649.257 293.42 649.741 293.732C650.225 294.043 650.604 294.492 650.879 295.079C651.158 295.665 651.297 296.371 651.297 297.197C651.297 298.022 651.159 298.73 650.884 299.32C650.609 299.906 650.231 300.359 649.751 300.677C649.27 300.992 648.722 301.149 648.105 301.149C647.641 301.149 647.262 301.071 646.967 300.915C646.675 300.76 646.446 300.577 646.281 300.369C646.115 300.16 645.987 299.974 645.898 299.812H645.773V301H644.322ZM645.778 297.182C645.778 297.719 645.856 298.189 646.012 298.594C646.168 298.998 646.393 299.315 646.688 299.543C646.983 299.769 647.344 299.881 647.772 299.881C648.216 299.881 648.587 299.764 648.886 299.528C649.184 299.29 649.409 298.967 649.562 298.559C649.718 298.151 649.795 297.692 649.795 297.182C649.795 296.678 649.719 296.226 649.567 295.825C649.418 295.424 649.192 295.107 648.891 294.875C648.592 294.643 648.219 294.527 647.772 294.527C647.341 294.527 646.977 294.638 646.678 294.86C646.383 295.082 646.16 295.392 646.007 295.79C645.855 296.187 645.778 296.652 645.778 297.182ZM656.257 301.154C655.505 301.154 654.857 300.993 654.313 300.672C653.773 300.347 653.356 299.891 653.061 299.305C652.769 298.715 652.623 298.024 652.623 297.232C652.623 296.449 652.769 295.76 653.061 295.163C653.356 294.567 653.767 294.101 654.294 293.766C654.824 293.432 655.444 293.264 656.153 293.264C656.584 293.264 657.001 293.335 657.406 293.478C657.81 293.621 658.173 293.844 658.494 294.149C658.816 294.454 659.07 294.85 659.255 295.337C659.441 295.821 659.534 296.41 659.534 297.102V297.629H653.463V296.516H658.077C658.077 296.125 657.997 295.778 657.838 295.477C657.679 295.172 657.455 294.931 657.167 294.756C656.882 294.58 656.547 294.492 656.163 294.492C655.745 294.492 655.381 294.595 655.069 294.8C654.761 295.003 654.522 295.268 654.353 295.596C654.187 295.921 654.105 296.274 654.105 296.655V297.525C654.105 298.035 654.194 298.469 654.373 298.827C654.555 299.185 654.809 299.459 655.134 299.648C655.459 299.833 655.838 299.926 656.272 299.926C656.554 299.926 656.811 299.886 657.043 299.807C657.275 299.724 657.475 299.601 657.644 299.439C657.813 299.277 657.943 299.076 658.032 298.837L659.439 299.091C659.326 299.505 659.124 299.868 658.833 300.18C658.544 300.488 658.181 300.728 657.744 300.901C657.31 301.07 656.814 301.154 656.257 301.154ZM662.669 290.818V301H661.183V290.818H662.669Z" fill="white" fill-opacity="0.7"/>
<path d="M697.449 301V290.818H698.985V299.678H703.599V301H697.449ZM707.454 301.169C706.97 301.169 706.533 301.08 706.142 300.901C705.75 300.718 705.441 300.455 705.212 300.11C704.986 299.765 704.874 299.343 704.874 298.842C704.874 298.411 704.957 298.057 705.122 297.778C705.288 297.5 705.512 297.28 705.794 297.117C706.075 296.955 706.39 296.832 706.738 296.749C707.086 296.666 707.441 296.603 707.802 296.56C708.259 296.507 708.631 296.464 708.916 296.431C709.201 296.395 709.408 296.337 709.537 296.257C709.666 296.178 709.731 296.048 709.731 295.869V295.835C709.731 295.4 709.608 295.064 709.363 294.825C709.121 294.587 708.76 294.467 708.279 294.467C707.779 294.467 707.384 294.578 707.096 294.8C706.811 295.019 706.614 295.263 706.504 295.531L705.107 295.213C705.273 294.749 705.515 294.375 705.833 294.089C706.155 293.801 706.524 293.592 706.942 293.463C707.36 293.33 707.799 293.264 708.259 293.264C708.564 293.264 708.887 293.301 709.229 293.374C709.574 293.443 709.895 293.572 710.193 293.761C710.495 293.95 710.742 294.22 710.934 294.572C711.126 294.92 711.222 295.372 711.222 295.929V301H709.771V299.956H709.711C709.615 300.148 709.471 300.337 709.279 300.523C709.086 300.708 708.839 300.862 708.538 300.985C708.236 301.108 707.875 301.169 707.454 301.169ZM707.777 299.976C708.188 299.976 708.539 299.895 708.831 299.732C709.126 299.57 709.35 299.358 709.502 299.096C709.658 298.831 709.736 298.547 709.736 298.246V297.261C709.683 297.314 709.58 297.364 709.428 297.411C709.279 297.454 709.108 297.492 708.916 297.525C708.723 297.555 708.536 297.583 708.354 297.609C708.172 297.633 708.019 297.652 707.896 297.669C707.608 297.705 707.345 297.767 707.106 297.853C706.871 297.939 706.682 298.063 706.539 298.226C706.4 298.385 706.33 298.597 706.33 298.862C706.33 299.23 706.466 299.509 706.738 299.697C707.01 299.883 707.356 299.976 707.777 299.976ZM713.322 301V290.818H714.808V294.602H714.898C714.984 294.442 715.108 294.259 715.271 294.05C715.433 293.841 715.658 293.659 715.947 293.503C716.235 293.344 716.616 293.264 717.09 293.264C717.707 293.264 718.257 293.42 718.741 293.732C719.225 294.043 719.604 294.492 719.879 295.079C720.158 295.665 720.297 296.371 720.297 297.197C720.297 298.022 720.159 298.73 719.884 299.32C719.609 299.906 719.231 300.359 718.751 300.677C718.27 300.992 717.722 301.149 717.105 301.149C716.641 301.149 716.262 301.071 715.967 300.915C715.675 300.76 715.446 300.577 715.281 300.369C715.115 300.16 714.987 299.974 714.898 299.812H714.773V301H713.322ZM714.778 297.182C714.778 297.719 714.856 298.189 715.012 298.594C715.168 298.998 715.393 299.315 715.688 299.543C715.983 299.769 716.344 299.881 716.772 299.881C717.216 299.881 717.587 299.764 717.886 299.528C718.184 299.29 718.409 298.967 718.562 298.559C718.718 298.151 718.795 297.692 718.795 297.182C718.795 296.678 718.719 296.226 718.567 295.825C718.418 295.424 718.192 295.107 717.891 294.875C717.592 294.643 717.219 294.527 716.772 294.527C716.341 294.527 715.977 294.638 715.678 294.86C715.383 295.082 715.16 295.392 715.007 295.79C714.855 296.187 714.778 296.652 714.778 297.182ZM725.257 301.154C724.505 301.154 723.857 300.993 723.313 300.672C722.773 300.347 722.356 299.891 722.061 299.305C721.769 298.715 721.623 298.024 721.623 297.232C721.623 296.449 721.769 295.76 722.061 295.163C722.356 294.567 722.767 294.101 723.294 293.766C723.824 293.432 724.444 293.264 725.153 293.264C725.584 293.264 726.001 293.335 726.406 293.478C726.81 293.621 727.173 293.844 727.494 294.149C727.816 294.454 728.07 294.85 728.255 295.337C728.441 295.821 728.534 296.41 728.534 297.102V297.629H722.463V296.516H727.077C727.077 296.125 726.997 295.778 726.838 295.477C726.679 295.172 726.455 294.931 726.167 294.756C725.882 294.58 725.547 294.492 725.163 294.492C724.745 294.492 724.381 294.595 724.069 294.8C723.761 295.003 723.522 295.268 723.353 295.596C723.187 295.921 723.105 296.274 723.105 296.655V297.525C723.105 298.035 723.194 298.469 723.373 298.827C723.555 299.185 723.809 299.459 724.134 299.648C724.459 299.833 724.838 299.926 725.272 299.926C725.554 299.926 725.811 299.886 726.043 299.807C726.275 299.724 726.475 299.601 726.644 299.439C726.813 299.277 726.943 299.076 727.032 298.837L728.439 299.091C728.326 299.505 728.124 299.868 727.833 300.18C727.544 300.488 727.181 300.728 726.744 300.901C726.31 301.07 725.814 301.154 725.257 301.154ZM731.669 290.818V301H730.183V290.818H731.669Z" fill="white" fill-opacity="0.7"/>
<path d="M766.449 301V290.818H767.985V299.678H772.599V301H766.449ZM776.454 301.169C775.97 301.169 775.533 301.08 775.142 300.901C774.75 300.718 774.441 300.455 774.212 300.11C773.986 299.765 773.874 299.343 773.874 298.842C773.874 298.411 773.957 298.057 774.122 297.778C774.288 297.5 774.512 297.28 774.794 297.117C775.075 296.955 775.39 296.832 775.738 296.749C776.086 296.666 776.441 296.603 776.802 296.56C777.259 296.507 777.631 296.464 777.916 296.431C778.201 296.395 778.408 296.337 778.537 296.257C778.666 296.178 778.731 296.048 778.731 295.869V295.835C778.731 295.4 778.608 295.064 778.363 294.825C778.121 294.587 777.76 294.467 777.279 294.467C776.779 294.467 776.384 294.578 776.096 294.8C775.811 295.019 775.614 295.263 775.504 295.531L774.107 295.213C774.273 294.749 774.515 294.375 774.833 294.089C775.155 293.801 775.524 293.592 775.942 293.463C776.36 293.33 776.799 293.264 777.259 293.264C777.564 293.264 777.887 293.301 778.229 293.374C778.574 293.443 778.895 293.572 779.193 293.761C779.495 293.95 779.742 294.22 779.934 294.572C780.126 294.92 780.222 295.372 780.222 295.929V301H778.771V299.956H778.711C778.615 300.148 778.471 300.337 778.279 300.523C778.086 300.708 777.839 300.862 777.538 300.985C777.236 301.108 776.875 301.169 776.454 301.169ZM776.777 299.976C777.188 299.976 777.539 299.895 777.831 299.732C778.126 299.57 778.35 299.358 778.502 299.096C778.658 298.831 778.736 298.547 778.736 298.246V297.261C778.683 297.314 778.58 297.364 778.428 297.411C778.279 297.454 778.108 297.492 777.916 297.525C777.723 297.555 777.536 297.583 777.354 297.609C777.172 297.633 777.019 297.652 776.896 297.669C776.608 297.705 776.345 297.767 776.106 297.853C775.871 297.939 775.682 298.063 775.539 298.226C775.4 298.385 775.33 298.597 775.33 298.862C775.33 299.23 775.466 299.509 775.738 299.697C776.01 299.883 776.356 299.976 776.777 299.976ZM782.322 301V290.818H783.808V294.602H783.898C783.984 294.442 784.108 294.259 784.271 294.05C784.433 293.841 784.658 293.659 784.947 293.503C785.235 293.344 785.616 293.264 786.09 293.264C786.707 293.264 787.257 293.42 787.741 293.732C788.225 294.043 788.604 294.492 788.879 295.079C789.158 295.665 789.297 296.371 789.297 297.197C789.297 298.022 789.159 298.73 788.884 299.32C788.609 299.906 788.231 300.359 787.751 300.677C787.27 300.992 786.722 301.149 786.105 301.149C785.641 301.149 785.262 301.071 784.967 300.915C784.675 300.76 784.446 300.577 784.281 300.369C784.115 300.16 783.987 299.974 783.898 299.812H783.773V301H782.322ZM783.778 297.182C783.778 297.719 783.856 298.189 784.012 298.594C784.168 298.998 784.393 299.315 784.688 299.543C784.983 299.769 785.344 299.881 785.772 299.881C786.216 299.881 786.587 299.764 786.886 299.528C787.184 299.29 787.409 298.967 787.562 298.559C787.718 298.151 787.795 297.692 787.795 297.182C787.795 296.678 787.719 296.226 787.567 295.825C787.418 295.424 787.192 295.107 786.891 294.875C786.592 294.643 786.219 294.527 785.772 294.527C785.341 294.527 784.977 294.638 784.678 294.86C784.383 295.082 784.16 295.392 784.007 295.79C783.855 296.187 783.778 296.652 783.778 297.182ZM794.257 301.154C793.505 301.154 792.857 300.993 792.313 300.672C791.773 300.347 791.356 299.891 791.061 299.305C790.769 298.715 790.623 298.024 790.623 297.232C790.623 296.449 790.769 295.76 791.061 295.163C791.356 294.567 791.767 294.101 792.294 293.766C792.824 293.432 793.444 293.264 794.153 293.264C794.584 293.264 795.001 293.335 795.406 293.478C795.81 293.621 796.173 293.844 796.494 294.149C796.816 294.454 797.07 294.85 797.255 295.337C797.441 295.821 797.534 296.41 797.534 297.102V297.629H791.463V296.516H796.077C796.077 296.125 795.997 295.778 795.838 295.477C795.679 295.172 795.455 294.931 795.167 294.756C794.882 294.58 794.547 294.492 794.163 294.492C793.745 294.492 793.381 294.595 793.069 294.8C792.761 295.003 792.522 295.268 792.353 295.596C792.187 295.921 792.105 296.274 792.105 296.655V297.525C792.105 298.035 792.194 298.469 792.373 298.827C792.555 299.185 792.809 299.459 793.134 299.648C793.459 299.833 793.838 299.926 794.272 299.926C794.554 299.926 794.811 299.886 795.043 299.807C795.275 299.724 795.475 299.601 795.644 299.439C795.813 299.277 795.943 299.076 796.032 298.837L797.439 299.091C797.326 299.505 797.124 299.868 796.833 300.18C796.544 300.488 796.181 300.728 795.744 300.901C795.31 301.07 794.814 301.154 794.257 301.154ZM800.669 290.818V301H799.183V290.818H800.669Z" fill="white" fill-opacity="0.7"/>
<path d="M835.449 301V290.818H836.985V299.678H841.599V301H835.449ZM845.454 301.169C844.97 301.169 844.533 301.08 844.142 300.901C843.75 300.718 843.441 300.455 843.212 300.11C842.986 299.765 842.874 299.343 842.874 298.842C842.874 298.411 842.957 298.057 843.122 297.778C843.288 297.5 843.512 297.28 843.794 297.117C844.075 296.955 844.39 296.832 844.738 296.749C845.086 296.666 845.441 296.603 845.802 296.56C846.259 296.507 846.631 296.464 846.916 296.431C847.201 296.395 847.408 296.337 847.537 296.257C847.666 296.178 847.731 296.048 847.731 295.869V295.835C847.731 295.4 847.608 295.064 847.363 294.825C847.121 294.587 846.76 294.467 846.279 294.467C845.779 294.467 845.384 294.578 845.096 294.8C844.811 295.019 844.614 295.263 844.504 295.531L843.107 295.213C843.273 294.749 843.515 294.375 843.833 294.089C844.155 293.801 844.524 293.592 844.942 293.463C845.36 293.33 845.799 293.264 846.259 293.264C846.564 293.264 846.887 293.301 847.229 293.374C847.574 293.443 847.895 293.572 848.193 293.761C848.495 293.95 848.742 294.22 848.934 294.572C849.126 294.92 849.222 295.372 849.222 295.929V301H847.771V299.956H847.711C847.615 300.148 847.471 300.337 847.279 300.523C847.086 300.708 846.839 300.862 846.538 300.985C846.236 301.108 845.875 301.169 845.454 301.169ZM845.777 299.976C846.188 299.976 846.539 299.895 846.831 299.732C847.126 299.57 847.35 299.358 847.502 299.096C847.658 298.831 847.736 298.547 847.736 298.246V297.261C847.683 297.314 847.58 297.364 847.428 297.411C847.279 297.454 847.108 297.492 846.916 297.525C846.723 297.555 846.536 297.583 846.354 297.609C846.172 297.633 846.019 297.652 845.896 297.669C845.608 297.705 845.345 297.767 845.106 297.853C844.871 297.939 844.682 298.063 844.539 298.226C844.4 298.385 844.33 298.597 844.33 298.862C844.33 299.23 844.466 299.509 844.738 299.697C845.01 299.883 845.356 299.976 845.777 299.976ZM851.322 301V290.818H852.808V294.602H852.898C852.984 294.442 853.108 294.259 853.271 294.05C853.433 293.841 853.658 293.659 853.947 293.503C854.235 293.344 854.616 293.264 855.09 293.264C855.707 293.264 856.257 293.42 856.741 293.732C857.225 294.043 857.604 294.492 857.879 295.079C858.158 295.665 858.297 296.371 858.297 297.197C858.297 298.022 858.159 298.73 857.884 299.32C857.609 299.906 857.231 300.359 856.751 300.677C856.27 300.992 855.722 301.149 855.105 301.149C854.641 301.149 854.262 301.071 853.967 300.915C853.675 300.76 853.446 300.577 853.281 300.369C853.115 300.16 852.987 299.974 852.898 299.812H852.773V301H851.322ZM852.778 297.182C852.778 297.719 852.856 298.189 853.012 298.594C853.168 298.998 853.393 299.315 853.688 299.543C853.983 299.769 854.344 299.881 854.772 299.881C855.216 299.881 855.587 299.764 855.886 299.528C856.184 299.29 856.409 298.967 856.562 298.559C856.718 298.151 856.795 297.692 856.795 297.182C856.795 296.678 856.719 296.226 856.567 295.825C856.418 295.424 856.192 295.107 855.891 294.875C855.592 294.643 855.219 294.527 854.772 294.527C854.341 294.527 853.977 294.638 853.678 294.86C853.383 295.082 853.16 295.392 853.007 295.79C852.855 296.187 852.778 296.652 852.778 297.182ZM863.257 301.154C862.505 301.154 861.857 300.993 861.313 300.672C860.773 300.347 860.356 299.891 860.061 299.305C859.769 298.715 859.623 298.024 859.623 297.232C859.623 296.449 859.769 295.76 860.061 295.163C860.356 294.567 860.767 294.101 861.294 293.766C861.824 293.432 862.444 293.264 863.153 293.264C863.584 293.264 864.001 293.335 864.406 293.478C864.81 293.621 865.173 293.844 865.494 294.149C865.816 294.454 866.07 294.85 866.255 295.337C866.441 295.821 866.534 296.41 866.534 297.102V297.629H860.463V296.516H865.077C865.077 296.125 864.997 295.778 864.838 295.477C864.679 295.172 864.455 294.931 864.167 294.756C863.882 294.58 863.547 294.492 863.163 294.492C862.745 294.492 862.381 294.595 862.069 294.8C861.761 295.003 861.522 295.268 861.353 295.596C861.187 295.921 861.105 296.274 861.105 296.655V297.525C861.105 298.035 861.194 298.469 861.373 298.827C861.555 299.185 861.809 299.459 862.134 299.648C862.459 299.833 862.838 299.926 863.272 299.926C863.554 299.926 863.811 299.886 864.043 299.807C864.275 299.724 864.475 299.601 864.644 299.439C864.813 299.277 864.943 299.076 865.032 298.837L866.439 299.091C866.326 299.505 866.124 299.868 865.833 300.18C865.544 300.488 865.181 300.728 864.744 300.901C864.31 301.07 863.814 301.154 863.257 301.154ZM869.669 290.818V301H868.183V290.818H869.669Z" fill="white" fill-opacity="0.7"/>
<path d="M904.449 301V290.818H905.985V299.678H910.599V301H904.449ZM914.454 301.169C913.97 301.169 913.533 301.08 913.142 300.901C912.75 300.718 912.441 300.455 912.212 300.11C911.986 299.765 911.874 299.343 911.874 298.842C911.874 298.411 911.957 298.057 912.122 297.778C912.288 297.5 912.512 297.28 912.794 297.117C913.075 296.955 913.39 296.832 913.738 296.749C914.086 296.666 914.441 296.603 914.802 296.56C915.259 296.507 915.631 296.464 915.916 296.431C916.201 296.395 916.408 296.337 916.537 296.257C916.666 296.178 916.731 296.048 916.731 295.869V295.835C916.731 295.4 916.608 295.064 916.363 294.825C916.121 294.587 915.76 294.467 915.279 294.467C914.779 294.467 914.384 294.578 914.096 294.8C913.811 295.019 913.614 295.263 913.504 295.531L912.107 295.213C912.273 294.749 912.515 294.375 912.833 294.089C913.155 293.801 913.524 293.592 913.942 293.463C914.36 293.33 914.799 293.264 915.259 293.264C915.564 293.264 915.887 293.301 916.229 293.374C916.574 293.443 916.895 293.572 917.193 293.761C917.495 293.95 917.742 294.22 917.934 294.572C918.126 294.92 918.222 295.372 918.222 295.929V301H916.771V299.956H916.711C916.615 300.148 916.471 300.337 916.279 300.523C916.086 300.708 915.839 300.862 915.538 300.985C915.236 301.108 914.875 301.169 914.454 301.169ZM914.777 299.976C915.188 299.976 915.539 299.895 915.831 299.732C916.126 299.57 916.35 299.358 916.502 299.096C916.658 298.831 916.736 298.547 916.736 298.246V297.261C916.683 297.314 916.58 297.364 916.428 297.411C916.279 297.454 916.108 297.492 915.916 297.525C915.723 297.555 915.536 297.583 915.354 297.609C915.172 297.633 915.019 297.652 914.896 297.669C914.608 297.705 914.345 297.767 914.106 297.853C913.871 297.939 913.682 298.063 913.539 298.226C913.4 298.385 913.33 298.597 913.33 298.862C913.33 299.23 913.466 299.509 913.738 299.697C914.01 299.883 914.356 299.976 914.777 299.976ZM920.322 301V290.818H921.808V294.602H921.898C921.984 294.442 922.108 294.259 922.271 294.05C922.433 293.841 922.658 293.659 922.947 293.503C923.235 293.344 923.616 293.264 924.09 293.264C924.707 293.264 925.257 293.42 925.741 293.732C926.225 294.043 926.604 294.492 926.879 295.079C927.158 295.665 927.297 296.371 927.297 297.197C927.297 298.022 927.159 298.73 926.884 299.32C926.609 299.906 926.231 300.359 925.751 300.677C925.27 300.992 924.722 301.149 924.105 301.149C923.641 301.149 923.262 301.071 922.967 300.915C922.675 300.76 922.446 300.577 922.281 300.369C922.115 300.16 921.987 299.974 921.898 299.812H921.773V301H920.322ZM921.778 297.182C921.778 297.719 921.856 298.189 922.012 298.594C922.168 298.998 922.393 299.315 922.688 299.543C922.983 299.769 923.344 299.881 923.772 299.881C924.216 299.881 924.587 299.764 924.886 299.528C925.184 299.29 925.409 298.967 925.562 298.559C925.718 298.151 925.795 297.692 925.795 297.182C925.795 296.678 925.719 296.226 925.567 295.825C925.418 295.424 925.192 295.107 924.891 294.875C924.592 294.643 924.219 294.527 923.772 294.527C923.341 294.527 922.977 294.638 922.678 294.86C922.383 295.082 922.16 295.392 922.007 295.79C921.855 296.187 921.778 296.652 921.778 297.182ZM932.257 301.154C931.505 301.154 930.857 300.993 930.313 300.672C929.773 300.347 929.356 299.891 929.061 299.305C928.769 298.715 928.623 298.024 928.623 297.232C928.623 296.449 928.769 295.76 929.061 295.163C929.356 294.567 929.767 294.101 930.294 293.766C930.824 293.432 931.444 293.264 932.153 293.264C932.584 293.264 933.001 293.335 933.406 293.478C933.81 293.621 934.173 293.844 934.494 294.149C934.816 294.454 935.07 294.85 935.255 295.337C935.441 295.821 935.534 296.41 935.534 297.102V297.629H929.463V296.516H934.077C934.077 296.125 933.997 295.778 933.838 295.477C933.679 295.172 933.455 294.931 933.167 294.756C932.882 294.58 932.547 294.492 932.163 294.492C931.745 294.492 931.381 294.595 931.069 294.8C930.761 295.003 930.522 295.268 930.353 295.596C930.187 295.921 930.105 296.274 930.105 296.655V297.525C930.105 298.035 930.194 298.469 930.373 298.827C930.555 299.185 930.809 299.459 931.134 299.648C931.459 299.833 931.838 299.926 932.272 299.926C932.554 299.926 932.811 299.886 933.043 299.807C933.275 299.724 933.475 299.601 933.644 299.439C933.813 299.277 933.943 299.076 934.032 298.837L935.439 299.091C935.326 299.505 935.124 299.868 934.833 300.18C934.544 300.488 934.181 300.728 933.744 300.901C933.31 301.07 932.814 301.154 932.257 301.154ZM938.669 290.818V301H937.183V290.818H938.669Z" fill="white" fill-opacity="0.7"/>
<path d="M1017.35 295.646L1011.35 289.646C1011.31 289.599 1011.25 289.561 1011.19 289.535C1011.13 289.509 1011.06 289.495 1011 289.495C1010.93 289.494 1010.87 289.507 1010.81 289.532C1010.74 289.557 1010.69 289.594 1010.64 289.641C1010.59 289.688 1010.56 289.744 1010.53 289.805C1010.51 289.866 1010.49 289.932 1010.49 289.998C1010.5 290.065 1010.51 290.13 1010.53 290.191C1010.56 290.252 1010.6 290.307 1010.65 290.354L1016.29 296L1010.65 301.646C1010.6 301.693 1010.56 301.748 1010.53 301.809C1010.51 301.87 1010.5 301.935 1010.49 302.002C1010.49 302.068 1010.51 302.134 1010.53 302.195C1010.56 302.256 1010.59 302.312 1010.64 302.359C1010.69 302.406 1010.74 302.443 1010.81 302.468C1010.87 302.493 1010.93 302.506 1011 302.505C1011.06 302.505 1011.13 302.491 1011.19 302.465C1011.25 302.439 1011.31 302.401 1011.35 302.354L1017.35 296.354C1017.45 296.26 1017.5 296.133 1017.5 296C1017.5 295.867 1017.45 295.74 1017.35 295.646Z" fill="white" fill-opacity="0.95"/>
</g>
<defs>
<clipPath id="clip0_2110_62821">
<rect width="760" height="32" fill="white" transform="translate(270 144)"/>
</clipPath>
<clipPath id="clip1_2110_62821">
<rect width="760" height="32" fill="white" transform="translate(270 280)"/>
</clipPath>
</defs>
</svg>
