<svg width="1300" height="314" viewBox="0 0 1300 314" fill="none" xmlns="http://www.w3.org/2000/svg">
<rect width="1300" height="314" rx="24" fill="#262626"/>
<path d="M361.725 119.518C362.545 118.529 362.995 117.285 362.995 116C362.995 114.715 362.545 113.471 361.725 112.483L364.354 109.854C364.401 109.807 364.439 109.752 364.465 109.691C364.491 109.63 364.504 109.565 364.504 109.499C364.505 109.433 364.492 109.367 364.467 109.306C364.442 109.244 364.405 109.189 364.358 109.142C364.311 109.095 364.256 109.058 364.194 109.033C364.133 109.008 364.068 108.995 364.001 108.996C363.935 108.996 363.87 109.01 363.809 109.036C363.748 109.061 363.693 109.099 363.646 109.147L361.018 111.775C360.031 110.951 358.786 110.5 357.5 110.5C356.214 110.5 354.969 110.951 353.982 111.775L351.354 109.147C351.259 109.055 351.133 109.004 351.001 109.005C350.87 109.005 350.744 109.058 350.651 109.151C350.558 109.244 350.505 109.37 350.505 109.501C350.504 109.633 350.555 109.759 350.646 109.854L353.275 112.482C352.454 113.471 352.005 114.715 352.005 116C352.005 117.285 352.454 118.529 353.275 119.518L350.646 122.147C350.599 122.193 350.561 122.248 350.535 122.309C350.51 122.37 350.496 122.435 350.496 122.501C350.495 122.568 350.508 122.633 350.533 122.694C350.558 122.756 350.595 122.811 350.642 122.858C350.689 122.905 350.744 122.942 350.806 122.967C350.867 122.992 350.933 123.005 350.999 123.005C351.065 123.004 351.13 122.991 351.191 122.965C351.252 122.939 351.307 122.901 351.354 122.854L353.982 120.226C354.969 121.049 356.214 121.5 357.5 121.5C358.786 121.5 360.031 121.049 361.018 120.226L363.646 122.854C363.741 122.945 363.867 122.996 363.999 122.996C364.13 122.995 364.256 122.942 364.349 122.849C364.442 122.756 364.495 122.63 364.496 122.499C364.496 122.367 364.445 122.241 364.354 122.147L361.725 119.518ZM361.015 118.808L358.207 116L361.015 113.192C361.65 113.99 361.996 114.98 361.996 116C361.996 117.02 361.65 118.01 361.015 118.808ZM357.5 111.5C358.521 111.498 359.512 111.846 360.308 112.485L357.5 115.293L354.692 112.485C355.488 111.846 356.479 111.498 357.5 111.5ZM353.985 113.192L356.793 116L353.985 118.808C353.349 118.01 353.003 117.02 353.003 116C353.003 114.98 353.349 113.99 353.985 113.192ZM357.5 120.5C356.479 120.502 355.488 120.155 354.692 119.515L357.5 116.707L360.308 119.515C359.512 120.155 358.521 120.502 357.5 120.5Z" fill="white" fill-opacity="0.7"/>
<path d="M374.949 121V110.818H376.485V119.678H381.099V121H374.949ZM384.954 121.169C384.47 121.169 384.033 121.08 383.642 120.901C383.25 120.718 382.941 120.455 382.712 120.11C382.486 119.765 382.374 119.343 382.374 118.842C382.374 118.411 382.457 118.057 382.622 117.778C382.788 117.5 383.012 117.28 383.294 117.117C383.575 116.955 383.89 116.832 384.238 116.749C384.586 116.666 384.941 116.603 385.302 116.56C385.759 116.507 386.131 116.464 386.416 116.431C386.701 116.395 386.908 116.337 387.037 116.257C387.166 116.178 387.231 116.048 387.231 115.869V115.835C387.231 115.4 387.108 115.064 386.863 114.825C386.621 114.587 386.26 114.467 385.779 114.467C385.279 114.467 384.884 114.578 384.596 114.8C384.311 115.019 384.114 115.263 384.004 115.531L382.607 115.213C382.773 114.749 383.015 114.375 383.333 114.089C383.655 113.801 384.024 113.592 384.442 113.463C384.86 113.33 385.299 113.264 385.759 113.264C386.064 113.264 386.387 113.301 386.729 113.374C387.074 113.443 387.395 113.572 387.693 113.761C387.995 113.95 388.242 114.22 388.434 114.572C388.626 114.92 388.722 115.372 388.722 115.929V121H387.271V119.956H387.211C387.115 120.148 386.971 120.337 386.779 120.523C386.586 120.708 386.339 120.862 386.038 120.985C385.736 121.108 385.375 121.169 384.954 121.169ZM385.277 119.976C385.688 119.976 386.039 119.895 386.331 119.732C386.626 119.57 386.85 119.358 387.002 119.096C387.158 118.831 387.236 118.547 387.236 118.246V117.261C387.183 117.314 387.08 117.364 386.928 117.411C386.779 117.454 386.608 117.492 386.416 117.525C386.223 117.555 386.036 117.583 385.854 117.609C385.672 117.633 385.519 117.652 385.396 117.669C385.108 117.705 384.845 117.767 384.606 117.853C384.371 117.939 384.182 118.063 384.039 118.226C383.9 118.385 383.83 118.597 383.83 118.862C383.83 119.23 383.966 119.509 384.238 119.697C384.51 119.883 384.856 119.976 385.277 119.976ZM390.822 121V110.818H392.308V114.602H392.398C392.484 114.442 392.608 114.259 392.771 114.05C392.933 113.841 393.158 113.659 393.447 113.503C393.735 113.344 394.116 113.264 394.59 113.264C395.207 113.264 395.757 113.42 396.241 113.732C396.725 114.043 397.104 114.492 397.379 115.079C397.658 115.665 397.797 116.371 397.797 117.197C397.797 118.022 397.659 118.73 397.384 119.32C397.109 119.906 396.731 120.359 396.251 120.677C395.77 120.992 395.222 121.149 394.605 121.149C394.141 121.149 393.762 121.071 393.467 120.915C393.175 120.76 392.946 120.577 392.781 120.369C392.615 120.16 392.487 119.974 392.398 119.812H392.273V121H390.822ZM392.278 117.182C392.278 117.719 392.356 118.189 392.512 118.594C392.668 118.998 392.893 119.315 393.188 119.543C393.483 119.769 393.844 119.881 394.272 119.881C394.716 119.881 395.087 119.764 395.386 119.528C395.684 119.29 395.909 118.967 396.062 118.559C396.218 118.151 396.295 117.692 396.295 117.182C396.295 116.678 396.219 116.226 396.067 115.825C395.918 115.424 395.692 115.107 395.391 114.875C395.092 114.643 394.719 114.527 394.272 114.527C393.841 114.527 393.477 114.638 393.178 114.86C392.883 115.082 392.66 115.392 392.507 115.79C392.355 116.187 392.278 116.652 392.278 117.182ZM402.757 121.154C402.005 121.154 401.357 120.993 400.813 120.672C400.273 120.347 399.856 119.891 399.561 119.305C399.269 118.715 399.123 118.024 399.123 117.232C399.123 116.449 399.269 115.76 399.561 115.163C399.856 114.567 400.267 114.101 400.794 113.766C401.324 113.432 401.944 113.264 402.653 113.264C403.084 113.264 403.501 113.335 403.906 113.478C404.31 113.621 404.673 113.844 404.994 114.149C405.316 114.454 405.57 114.85 405.755 115.337C405.941 115.821 406.034 116.41 406.034 117.102V117.629H399.963V116.516H404.577C404.577 116.125 404.497 115.778 404.338 115.477C404.179 115.172 403.955 114.931 403.667 114.756C403.382 114.58 403.047 114.492 402.663 114.492C402.245 114.492 401.881 114.595 401.569 114.8C401.261 115.003 401.022 115.268 400.853 115.596C400.687 115.921 400.605 116.274 400.605 116.655V117.525C400.605 118.035 400.694 118.469 400.873 118.827C401.055 119.185 401.309 119.459 401.634 119.648C401.959 119.833 402.338 119.926 402.772 119.926C403.054 119.926 403.311 119.886 403.543 119.807C403.775 119.724 403.975 119.601 404.144 119.439C404.313 119.277 404.443 119.076 404.532 118.837L405.939 119.091C405.826 119.505 405.624 119.868 405.333 120.18C405.044 120.488 404.681 120.728 404.244 120.901C403.81 121.07 403.314 121.154 402.757 121.154ZM409.169 110.818V121H407.683V110.818H409.169Z" fill="white" fill-opacity="0.7"/>
<rect x="472.5" y="100" width="85" height="32" rx="16" fill="white" fill-opacity="0.07"/>
<path d="M496.725 119.518C497.545 118.529 497.995 117.285 497.995 116C497.995 114.715 497.545 113.471 496.725 112.483L499.354 109.854C499.401 109.807 499.439 109.752 499.465 109.691C499.491 109.63 499.504 109.565 499.504 109.499C499.505 109.433 499.492 109.367 499.467 109.306C499.442 109.244 499.405 109.189 499.358 109.142C499.311 109.095 499.256 109.058 499.194 109.033C499.133 109.008 499.068 108.995 499.001 108.996C498.935 108.996 498.87 109.01 498.809 109.036C498.748 109.061 498.693 109.099 498.646 109.147L496.018 111.775C495.031 110.951 493.786 110.5 492.5 110.5C491.214 110.5 489.969 110.951 488.982 111.775L486.354 109.147C486.259 109.055 486.133 109.004 486.001 109.005C485.87 109.005 485.744 109.058 485.651 109.151C485.558 109.244 485.505 109.37 485.505 109.501C485.504 109.633 485.555 109.759 485.646 109.854L488.275 112.482C487.454 113.471 487.005 114.715 487.005 116C487.005 117.285 487.454 118.529 488.275 119.518L485.646 122.147C485.599 122.193 485.561 122.248 485.535 122.309C485.51 122.37 485.496 122.435 485.496 122.501C485.495 122.568 485.508 122.633 485.533 122.694C485.558 122.756 485.595 122.811 485.642 122.858C485.689 122.905 485.744 122.942 485.806 122.967C485.867 122.992 485.933 123.005 485.999 123.005C486.065 123.004 486.13 122.991 486.191 122.965C486.252 122.939 486.307 122.901 486.354 122.854L488.982 120.226C489.969 121.049 491.214 121.5 492.5 121.5C493.786 121.5 495.031 121.049 496.018 120.226L498.646 122.854C498.741 122.945 498.867 122.996 498.999 122.996C499.13 122.995 499.256 122.942 499.349 122.849C499.442 122.756 499.495 122.63 499.496 122.499C499.496 122.367 499.445 122.241 499.354 122.147L496.725 119.518ZM496.015 118.808L493.207 116L496.015 113.192C496.65 113.99 496.996 114.98 496.996 116C496.996 117.02 496.65 118.01 496.015 118.808ZM492.5 111.5C493.521 111.498 494.512 111.846 495.308 112.485L492.5 115.293L489.692 112.485C490.488 111.846 491.479 111.498 492.5 111.5ZM488.985 113.192L491.793 116L488.985 118.808C488.349 118.01 488.003 117.02 488.003 116C488.003 114.98 488.349 113.99 488.985 113.192ZM492.5 120.5C491.479 120.502 490.488 120.155 489.692 119.515L492.5 116.707L495.308 119.515C494.512 120.155 493.521 120.502 492.5 120.5Z" fill="white" fill-opacity="0.95"/>
<path d="M509.949 121V110.818H511.485V119.678H516.099V121H509.949ZM519.954 121.169C519.47 121.169 519.033 121.08 518.642 120.901C518.25 120.718 517.941 120.455 517.712 120.11C517.486 119.765 517.374 119.343 517.374 118.842C517.374 118.411 517.457 118.057 517.622 117.778C517.788 117.5 518.012 117.28 518.294 117.117C518.575 116.955 518.89 116.832 519.238 116.749C519.586 116.666 519.941 116.603 520.302 116.56C520.759 116.507 521.131 116.464 521.416 116.431C521.701 116.395 521.908 116.337 522.037 116.257C522.166 116.178 522.231 116.048 522.231 115.869V115.835C522.231 115.4 522.108 115.064 521.863 114.825C521.621 114.587 521.26 114.467 520.779 114.467C520.279 114.467 519.884 114.578 519.596 114.8C519.311 115.019 519.114 115.263 519.004 115.531L517.607 115.213C517.773 114.749 518.015 114.375 518.333 114.089C518.655 113.801 519.024 113.592 519.442 113.463C519.86 113.33 520.299 113.264 520.759 113.264C521.064 113.264 521.387 113.301 521.729 113.374C522.074 113.443 522.395 113.572 522.693 113.761C522.995 113.95 523.242 114.22 523.434 114.572C523.626 114.92 523.722 115.372 523.722 115.929V121H522.271V119.956H522.211C522.115 120.148 521.971 120.337 521.779 120.523C521.586 120.708 521.339 120.862 521.038 120.985C520.736 121.108 520.375 121.169 519.954 121.169ZM520.277 119.976C520.688 119.976 521.039 119.895 521.331 119.732C521.626 119.57 521.85 119.358 522.002 119.096C522.158 118.831 522.236 118.547 522.236 118.246V117.261C522.183 117.314 522.08 117.364 521.928 117.411C521.779 117.454 521.608 117.492 521.416 117.525C521.223 117.555 521.036 117.583 520.854 117.609C520.672 117.633 520.519 117.652 520.396 117.669C520.108 117.705 519.845 117.767 519.606 117.853C519.371 117.939 519.182 118.063 519.039 118.226C518.9 118.385 518.83 118.597 518.83 118.862C518.83 119.23 518.966 119.509 519.238 119.697C519.51 119.883 519.856 119.976 520.277 119.976ZM525.822 121V110.818H527.308V114.602H527.398C527.484 114.442 527.608 114.259 527.771 114.05C527.933 113.841 528.158 113.659 528.447 113.503C528.735 113.344 529.116 113.264 529.59 113.264C530.207 113.264 530.757 113.42 531.241 113.732C531.725 114.043 532.104 114.492 532.379 115.079C532.658 115.665 532.797 116.371 532.797 117.197C532.797 118.022 532.659 118.73 532.384 119.32C532.109 119.906 531.731 120.359 531.251 120.677C530.77 120.992 530.222 121.149 529.605 121.149C529.141 121.149 528.762 121.071 528.467 120.915C528.175 120.76 527.946 120.577 527.781 120.369C527.615 120.16 527.487 119.974 527.398 119.812H527.273V121H525.822ZM527.278 117.182C527.278 117.719 527.356 118.189 527.512 118.594C527.668 118.998 527.893 119.315 528.188 119.543C528.483 119.769 528.844 119.881 529.272 119.881C529.716 119.881 530.087 119.764 530.386 119.528C530.684 119.29 530.909 118.967 531.062 118.559C531.218 118.151 531.295 117.692 531.295 117.182C531.295 116.678 531.219 116.226 531.067 115.825C530.918 115.424 530.692 115.107 530.391 114.875C530.092 114.643 529.719 114.527 529.272 114.527C528.841 114.527 528.477 114.638 528.178 114.86C527.883 115.082 527.66 115.392 527.507 115.79C527.355 116.187 527.278 116.652 527.278 117.182ZM537.757 121.154C537.005 121.154 536.357 120.993 535.813 120.672C535.273 120.347 534.856 119.891 534.561 119.305C534.269 118.715 534.123 118.024 534.123 117.232C534.123 116.449 534.269 115.76 534.561 115.163C534.856 114.567 535.267 114.101 535.794 113.766C536.324 113.432 536.944 113.264 537.653 113.264C538.084 113.264 538.501 113.335 538.906 113.478C539.31 113.621 539.673 113.844 539.994 114.149C540.316 114.454 540.57 114.85 540.755 115.337C540.941 115.821 541.034 116.41 541.034 117.102V117.629H534.963V116.516H539.577C539.577 116.125 539.497 115.778 539.338 115.477C539.179 115.172 538.955 114.931 538.667 114.756C538.382 114.58 538.047 114.492 537.663 114.492C537.245 114.492 536.881 114.595 536.569 114.8C536.261 115.003 536.022 115.268 535.853 115.596C535.687 115.921 535.605 116.274 535.605 116.655V117.525C535.605 118.035 535.694 118.469 535.873 118.827C536.055 119.185 536.309 119.459 536.634 119.648C536.959 119.833 537.338 119.926 537.772 119.926C538.054 119.926 538.311 119.886 538.543 119.807C538.775 119.724 538.975 119.601 539.144 119.439C539.313 119.277 539.443 119.076 539.532 118.837L540.939 119.091C540.826 119.505 540.624 119.868 540.333 120.18C540.044 120.488 539.681 120.728 539.244 120.901C538.81 121.07 538.314 121.154 537.757 121.154ZM544.169 110.818V121H542.683V110.818H544.169Z" fill="white" fill-opacity="0.95"/>
<rect x="607.5" y="100" width="85" height="32" rx="16" fill="white" fill-opacity="0.2"/>
<path d="M631.725 119.518C632.545 118.529 632.995 117.285 632.995 116C632.995 114.715 632.545 113.471 631.725 112.483L634.354 109.854C634.401 109.807 634.439 109.752 634.465 109.691C634.491 109.63 634.504 109.565 634.504 109.499C634.505 109.433 634.492 109.367 634.467 109.306C634.442 109.244 634.405 109.189 634.358 109.142C634.311 109.095 634.256 109.058 634.194 109.033C634.133 109.008 634.068 108.995 634.001 108.996C633.935 108.996 633.87 109.01 633.809 109.036C633.748 109.061 633.693 109.099 633.646 109.147L631.018 111.775C630.031 110.951 628.786 110.5 627.5 110.5C626.214 110.5 624.969 110.951 623.982 111.775L621.354 109.147C621.259 109.055 621.133 109.004 621.001 109.005C620.87 109.005 620.744 109.058 620.651 109.151C620.558 109.244 620.505 109.37 620.505 109.501C620.504 109.633 620.555 109.759 620.646 109.854L623.275 112.482C622.454 113.471 622.005 114.715 622.005 116C622.005 117.285 622.454 118.529 623.275 119.518L620.646 122.147C620.599 122.193 620.561 122.248 620.535 122.309C620.51 122.37 620.496 122.435 620.496 122.501C620.495 122.568 620.508 122.633 620.533 122.694C620.558 122.756 620.595 122.811 620.642 122.858C620.689 122.905 620.744 122.942 620.806 122.967C620.867 122.992 620.933 123.005 620.999 123.005C621.065 123.004 621.13 122.991 621.191 122.965C621.252 122.939 621.307 122.901 621.354 122.854L623.982 120.226C624.969 121.049 626.214 121.5 627.5 121.5C628.786 121.5 630.031 121.049 631.018 120.226L633.646 122.854C633.741 122.945 633.867 122.996 633.999 122.996C634.13 122.995 634.256 122.942 634.349 122.849C634.442 122.756 634.495 122.63 634.496 122.499C634.496 122.367 634.445 122.241 634.354 122.147L631.725 119.518ZM631.015 118.808L628.207 116L631.015 113.192C631.65 113.99 631.996 114.98 631.996 116C631.996 117.02 631.65 118.01 631.015 118.808ZM627.5 111.5C628.521 111.498 629.512 111.846 630.308 112.485L627.5 115.293L624.692 112.485C625.488 111.846 626.479 111.498 627.5 111.5ZM623.985 113.192L626.793 116L623.985 118.808C623.349 118.01 623.003 117.02 623.003 116C623.003 114.98 623.349 113.99 623.985 113.192ZM627.5 120.5C626.479 120.502 625.488 120.155 624.692 119.515L627.5 116.707L630.308 119.515C629.512 120.155 628.521 120.502 627.5 120.5Z" fill="white" fill-opacity="0.95"/>
<path d="M644.949 121V110.818H646.485V119.678H651.099V121H644.949ZM654.954 121.169C654.47 121.169 654.033 121.08 653.642 120.901C653.25 120.718 652.941 120.455 652.712 120.11C652.486 119.765 652.374 119.343 652.374 118.842C652.374 118.411 652.457 118.057 652.622 117.778C652.788 117.5 653.012 117.28 653.294 117.117C653.575 116.955 653.89 116.832 654.238 116.749C654.586 116.666 654.941 116.603 655.302 116.56C655.759 116.507 656.131 116.464 656.416 116.431C656.701 116.395 656.908 116.337 657.037 116.257C657.166 116.178 657.231 116.048 657.231 115.869V115.835C657.231 115.4 657.108 115.064 656.863 114.825C656.621 114.587 656.26 114.467 655.779 114.467C655.279 114.467 654.884 114.578 654.596 114.8C654.311 115.019 654.114 115.263 654.004 115.531L652.607 115.213C652.773 114.749 653.015 114.375 653.333 114.089C653.655 113.801 654.024 113.592 654.442 113.463C654.86 113.33 655.299 113.264 655.759 113.264C656.064 113.264 656.387 113.301 656.729 113.374C657.074 113.443 657.395 113.572 657.693 113.761C657.995 113.95 658.242 114.22 658.434 114.572C658.626 114.92 658.722 115.372 658.722 115.929V121H657.271V119.956H657.211C657.115 120.148 656.971 120.337 656.779 120.523C656.586 120.708 656.339 120.862 656.038 120.985C655.736 121.108 655.375 121.169 654.954 121.169ZM655.277 119.976C655.688 119.976 656.039 119.895 656.331 119.732C656.626 119.57 656.85 119.358 657.002 119.096C657.158 118.831 657.236 118.547 657.236 118.246V117.261C657.183 117.314 657.08 117.364 656.928 117.411C656.779 117.454 656.608 117.492 656.416 117.525C656.223 117.555 656.036 117.583 655.854 117.609C655.672 117.633 655.519 117.652 655.396 117.669C655.108 117.705 654.845 117.767 654.606 117.853C654.371 117.939 654.182 118.063 654.039 118.226C653.9 118.385 653.83 118.597 653.83 118.862C653.83 119.23 653.966 119.509 654.238 119.697C654.51 119.883 654.856 119.976 655.277 119.976ZM660.822 121V110.818H662.308V114.602H662.398C662.484 114.442 662.608 114.259 662.771 114.05C662.933 113.841 663.158 113.659 663.447 113.503C663.735 113.344 664.116 113.264 664.59 113.264C665.207 113.264 665.757 113.42 666.241 113.732C666.725 114.043 667.104 114.492 667.379 115.079C667.658 115.665 667.797 116.371 667.797 117.197C667.797 118.022 667.659 118.73 667.384 119.32C667.109 119.906 666.731 120.359 666.251 120.677C665.77 120.992 665.222 121.149 664.605 121.149C664.141 121.149 663.762 121.071 663.467 120.915C663.175 120.76 662.946 120.577 662.781 120.369C662.615 120.16 662.487 119.974 662.398 119.812H662.273V121H660.822ZM662.278 117.182C662.278 117.719 662.356 118.189 662.512 118.594C662.668 118.998 662.893 119.315 663.188 119.543C663.483 119.769 663.844 119.881 664.272 119.881C664.716 119.881 665.087 119.764 665.386 119.528C665.684 119.29 665.909 118.967 666.062 118.559C666.218 118.151 666.295 117.692 666.295 117.182C666.295 116.678 666.219 116.226 666.067 115.825C665.918 115.424 665.692 115.107 665.391 114.875C665.092 114.643 664.719 114.527 664.272 114.527C663.841 114.527 663.477 114.638 663.178 114.86C662.883 115.082 662.66 115.392 662.507 115.79C662.355 116.187 662.278 116.652 662.278 117.182ZM672.757 121.154C672.005 121.154 671.357 120.993 670.813 120.672C670.273 120.347 669.856 119.891 669.561 119.305C669.269 118.715 669.123 118.024 669.123 117.232C669.123 116.449 669.269 115.76 669.561 115.163C669.856 114.567 670.267 114.101 670.794 113.766C671.324 113.432 671.944 113.264 672.653 113.264C673.084 113.264 673.501 113.335 673.906 113.478C674.31 113.621 674.673 113.844 674.994 114.149C675.316 114.454 675.57 114.85 675.755 115.337C675.941 115.821 676.034 116.41 676.034 117.102V117.629H669.963V116.516H674.577C674.577 116.125 674.497 115.778 674.338 115.477C674.179 115.172 673.955 114.931 673.667 114.756C673.382 114.58 673.047 114.492 672.663 114.492C672.245 114.492 671.881 114.595 671.569 114.8C671.261 115.003 671.022 115.268 670.853 115.596C670.687 115.921 670.605 116.274 670.605 116.655V117.525C670.605 118.035 670.694 118.469 670.873 118.827C671.055 119.185 671.309 119.459 671.634 119.648C671.959 119.833 672.338 119.926 672.772 119.926C673.054 119.926 673.311 119.886 673.543 119.807C673.775 119.724 673.975 119.601 674.144 119.439C674.313 119.277 674.443 119.076 674.532 118.837L675.939 119.091C675.826 119.505 675.624 119.868 675.333 120.18C675.044 120.488 674.681 120.728 674.244 120.901C673.81 121.07 673.314 121.154 672.757 121.154ZM679.169 110.818V121H677.683V110.818H679.169Z" fill="white" fill-opacity="0.95"/>
<path d="M766.725 119.518C767.545 118.529 767.995 117.285 767.995 116C767.995 114.715 767.545 113.471 766.725 112.483L769.354 109.854C769.401 109.807 769.439 109.752 769.465 109.691C769.491 109.63 769.504 109.565 769.504 109.499C769.505 109.433 769.492 109.367 769.467 109.306C769.442 109.244 769.405 109.189 769.358 109.142C769.311 109.095 769.256 109.058 769.194 109.033C769.133 109.008 769.068 108.995 769.001 108.996C768.935 108.996 768.87 109.01 768.809 109.036C768.748 109.061 768.693 109.099 768.646 109.147L766.018 111.775C765.031 110.951 763.786 110.5 762.5 110.5C761.214 110.5 759.969 110.951 758.982 111.775L756.354 109.147C756.259 109.055 756.133 109.004 756.001 109.005C755.87 109.005 755.744 109.058 755.651 109.151C755.558 109.244 755.505 109.37 755.505 109.501C755.504 109.633 755.555 109.759 755.646 109.854L758.275 112.482C757.454 113.471 757.005 114.715 757.005 116C757.005 117.285 757.454 118.529 758.275 119.518L755.646 122.147C755.599 122.193 755.561 122.248 755.535 122.309C755.51 122.37 755.496 122.435 755.496 122.501C755.495 122.568 755.508 122.633 755.533 122.694C755.558 122.756 755.595 122.811 755.642 122.858C755.689 122.905 755.744 122.942 755.806 122.967C755.867 122.992 755.933 123.005 755.999 123.005C756.065 123.004 756.13 122.991 756.191 122.965C756.252 122.939 756.307 122.901 756.354 122.854L758.982 120.226C759.969 121.049 761.214 121.5 762.5 121.5C763.786 121.5 765.031 121.049 766.018 120.226L768.646 122.854C768.741 122.945 768.867 122.996 768.999 122.996C769.13 122.995 769.256 122.942 769.349 122.849C769.442 122.756 769.495 122.63 769.496 122.499C769.496 122.367 769.445 122.241 769.354 122.147L766.725 119.518ZM766.015 118.808L763.207 116L766.015 113.192C766.65 113.99 766.996 114.98 766.996 116C766.996 117.02 766.65 118.01 766.015 118.808ZM762.5 111.5C763.521 111.498 764.512 111.846 765.308 112.485L762.5 115.293L759.692 112.485C760.488 111.846 761.479 111.498 762.5 111.5ZM758.985 113.192L761.793 116L758.985 118.808C758.349 118.01 758.003 117.02 758.003 116C758.003 114.98 758.349 113.99 758.985 113.192ZM762.5 120.5C761.479 120.502 760.488 120.155 759.692 119.515L762.5 116.707L765.308 119.515C764.512 120.155 763.521 120.502 762.5 120.5Z" fill="white" fill-opacity="0.2"/>
<path d="M779.949 121V110.818H781.485V119.678H786.099V121H779.949ZM789.954 121.169C789.47 121.169 789.033 121.08 788.642 120.901C788.25 120.718 787.941 120.455 787.712 120.11C787.486 119.765 787.374 119.343 787.374 118.842C787.374 118.411 787.457 118.057 787.622 117.778C787.788 117.5 788.012 117.28 788.294 117.117C788.575 116.955 788.89 116.832 789.238 116.749C789.586 116.666 789.941 116.603 790.302 116.56C790.759 116.507 791.131 116.464 791.416 116.431C791.701 116.395 791.908 116.337 792.037 116.257C792.166 116.178 792.231 116.048 792.231 115.869V115.835C792.231 115.4 792.108 115.064 791.863 114.825C791.621 114.587 791.26 114.467 790.779 114.467C790.279 114.467 789.884 114.578 789.596 114.8C789.311 115.019 789.114 115.263 789.004 115.531L787.607 115.213C787.773 114.749 788.015 114.375 788.333 114.089C788.655 113.801 789.024 113.592 789.442 113.463C789.86 113.33 790.299 113.264 790.759 113.264C791.064 113.264 791.387 113.301 791.729 113.374C792.074 113.443 792.395 113.572 792.693 113.761C792.995 113.95 793.242 114.22 793.434 114.572C793.626 114.92 793.722 115.372 793.722 115.929V121H792.271V119.956H792.211C792.115 120.148 791.971 120.337 791.779 120.523C791.586 120.708 791.339 120.862 791.038 120.985C790.736 121.108 790.375 121.169 789.954 121.169ZM790.277 119.976C790.688 119.976 791.039 119.895 791.331 119.732C791.626 119.57 791.85 119.358 792.002 119.096C792.158 118.831 792.236 118.547 792.236 118.246V117.261C792.183 117.314 792.08 117.364 791.928 117.411C791.779 117.454 791.608 117.492 791.416 117.525C791.223 117.555 791.036 117.583 790.854 117.609C790.672 117.633 790.519 117.652 790.396 117.669C790.108 117.705 789.845 117.767 789.606 117.853C789.371 117.939 789.182 118.063 789.039 118.226C788.9 118.385 788.83 118.597 788.83 118.862C788.83 119.23 788.966 119.509 789.238 119.697C789.51 119.883 789.856 119.976 790.277 119.976ZM795.822 121V110.818H797.308V114.602H797.398C797.484 114.442 797.608 114.259 797.771 114.05C797.933 113.841 798.158 113.659 798.447 113.503C798.735 113.344 799.116 113.264 799.59 113.264C800.207 113.264 800.757 113.42 801.241 113.732C801.725 114.043 802.104 114.492 802.379 115.079C802.658 115.665 802.797 116.371 802.797 117.197C802.797 118.022 802.659 118.73 802.384 119.32C802.109 119.906 801.731 120.359 801.251 120.677C800.77 120.992 800.222 121.149 799.605 121.149C799.141 121.149 798.762 121.071 798.467 120.915C798.175 120.76 797.946 120.577 797.781 120.369C797.615 120.16 797.487 119.974 797.398 119.812H797.273V121H795.822ZM797.278 117.182C797.278 117.719 797.356 118.189 797.512 118.594C797.668 118.998 797.893 119.315 798.188 119.543C798.483 119.769 798.844 119.881 799.272 119.881C799.716 119.881 800.087 119.764 800.386 119.528C800.684 119.29 800.909 118.967 801.062 118.559C801.218 118.151 801.295 117.692 801.295 117.182C801.295 116.678 801.219 116.226 801.067 115.825C800.918 115.424 800.692 115.107 800.391 114.875C800.092 114.643 799.719 114.527 799.272 114.527C798.841 114.527 798.477 114.638 798.178 114.86C797.883 115.082 797.66 115.392 797.507 115.79C797.355 116.187 797.278 116.652 797.278 117.182ZM807.757 121.154C807.005 121.154 806.357 120.993 805.813 120.672C805.273 120.347 804.856 119.891 804.561 119.305C804.269 118.715 804.123 118.024 804.123 117.232C804.123 116.449 804.269 115.76 804.561 115.163C804.856 114.567 805.267 114.101 805.794 113.766C806.324 113.432 806.944 113.264 807.653 113.264C808.084 113.264 808.501 113.335 808.906 113.478C809.31 113.621 809.673 113.844 809.994 114.149C810.316 114.454 810.57 114.85 810.755 115.337C810.941 115.821 811.034 116.41 811.034 117.102V117.629H804.963V116.516H809.577C809.577 116.125 809.497 115.778 809.338 115.477C809.179 115.172 808.955 114.931 808.667 114.756C808.382 114.58 808.047 114.492 807.663 114.492C807.245 114.492 806.881 114.595 806.569 114.8C806.261 115.003 806.022 115.268 805.853 115.596C805.687 115.921 805.605 116.274 805.605 116.655V117.525C805.605 118.035 805.694 118.469 805.873 118.827C806.055 119.185 806.309 119.459 806.634 119.648C806.959 119.833 807.338 119.926 807.772 119.926C808.054 119.926 808.311 119.886 808.543 119.807C808.775 119.724 808.975 119.601 809.144 119.439C809.313 119.277 809.443 119.076 809.532 118.837L810.939 119.091C810.826 119.505 810.624 119.868 810.333 120.18C810.044 120.488 809.681 120.728 809.244 120.901C808.81 121.07 808.314 121.154 807.757 121.154ZM814.169 110.818V121H812.683V110.818H814.169Z" fill="white" fill-opacity="0.2"/>
<g filter="url(#filter0_ddd_2112_5071)">
<g clip-path="url(#clip0_2112_5071)">
<rect x="877.5" y="100" width="85" height="32" rx="16" fill="white" fill-opacity="0.01" shape-rendering="crispEdges"/>
<path d="M901.725 119.518C902.545 118.529 902.995 117.285 902.995 116C902.995 114.715 902.545 113.471 901.725 112.483L904.354 109.854C904.401 109.807 904.439 109.752 904.465 109.691C904.491 109.63 904.504 109.565 904.504 109.499C904.505 109.433 904.492 109.367 904.467 109.306C904.442 109.244 904.405 109.189 904.358 109.142C904.311 109.095 904.256 109.058 904.194 109.033C904.133 109.008 904.068 108.995 904.001 108.996C903.935 108.996 903.87 109.01 903.809 109.036C903.748 109.061 903.693 109.099 903.646 109.147L901.018 111.775C900.031 110.951 898.786 110.5 897.5 110.5C896.214 110.5 894.969 110.951 893.982 111.775L891.354 109.147C891.259 109.055 891.133 109.004 891.001 109.005C890.87 109.005 890.744 109.058 890.651 109.151C890.558 109.244 890.505 109.37 890.505 109.501C890.504 109.633 890.555 109.759 890.646 109.854L893.275 112.482C892.454 113.471 892.005 114.715 892.005 116C892.005 117.285 892.454 118.529 893.275 119.518L890.646 122.147C890.599 122.193 890.561 122.248 890.535 122.309C890.51 122.37 890.496 122.435 890.496 122.501C890.495 122.568 890.508 122.633 890.533 122.694C890.558 122.756 890.595 122.811 890.642 122.858C890.689 122.905 890.744 122.942 890.806 122.967C890.867 122.992 890.933 123.005 890.999 123.005C891.065 123.004 891.13 122.991 891.191 122.965C891.252 122.939 891.307 122.901 891.354 122.854L893.982 120.226C894.969 121.049 896.214 121.5 897.5 121.5C898.786 121.5 900.031 121.049 901.018 120.226L903.646 122.854C903.741 122.945 903.867 122.996 903.999 122.996C904.13 122.995 904.256 122.942 904.349 122.849C904.442 122.756 904.495 122.63 904.496 122.499C904.496 122.367 904.445 122.241 904.354 122.147L901.725 119.518ZM901.015 118.808L898.207 116L901.015 113.192C901.65 113.99 901.996 114.98 901.996 116C901.996 117.02 901.65 118.01 901.015 118.808ZM897.5 111.5C898.521 111.498 899.512 111.846 900.308 112.485L897.5 115.293L894.692 112.485C895.488 111.846 896.479 111.498 897.5 111.5ZM893.985 113.192L896.793 116L893.985 118.808C893.349 118.01 893.003 117.02 893.003 116C893.003 114.98 893.349 113.99 893.985 113.192ZM897.5 120.5C896.479 120.502 895.488 120.155 894.692 119.515L897.5 116.707L900.308 119.515C899.512 120.155 898.521 120.502 897.5 120.5Z" fill="white" fill-opacity="0.95"/>
<path d="M914.949 121V110.818H916.485V119.678H921.099V121H914.949ZM924.954 121.169C924.47 121.169 924.033 121.08 923.642 120.901C923.25 120.718 922.941 120.455 922.712 120.11C922.486 119.765 922.374 119.343 922.374 118.842C922.374 118.411 922.457 118.057 922.622 117.778C922.788 117.5 923.012 117.28 923.294 117.117C923.575 116.955 923.89 116.832 924.238 116.749C924.586 116.666 924.941 116.603 925.302 116.56C925.759 116.507 926.131 116.464 926.416 116.431C926.701 116.395 926.908 116.337 927.037 116.257C927.166 116.178 927.231 116.048 927.231 115.869V115.835C927.231 115.4 927.108 115.064 926.863 114.825C926.621 114.587 926.26 114.467 925.779 114.467C925.279 114.467 924.884 114.578 924.596 114.8C924.311 115.019 924.114 115.263 924.004 115.531L922.607 115.213C922.773 114.749 923.015 114.375 923.333 114.089C923.655 113.801 924.024 113.592 924.442 113.463C924.86 113.33 925.299 113.264 925.759 113.264C926.064 113.264 926.387 113.301 926.729 113.374C927.074 113.443 927.395 113.572 927.693 113.761C927.995 113.95 928.242 114.22 928.434 114.572C928.626 114.92 928.722 115.372 928.722 115.929V121H927.271V119.956H927.211C927.115 120.148 926.971 120.337 926.779 120.523C926.586 120.708 926.339 120.862 926.038 120.985C925.736 121.108 925.375 121.169 924.954 121.169ZM925.277 119.976C925.688 119.976 926.039 119.895 926.331 119.732C926.626 119.57 926.85 119.358 927.002 119.096C927.158 118.831 927.236 118.547 927.236 118.246V117.261C927.183 117.314 927.08 117.364 926.928 117.411C926.779 117.454 926.608 117.492 926.416 117.525C926.223 117.555 926.036 117.583 925.854 117.609C925.672 117.633 925.519 117.652 925.396 117.669C925.108 117.705 924.845 117.767 924.606 117.853C924.371 117.939 924.182 118.063 924.039 118.226C923.9 118.385 923.83 118.597 923.83 118.862C923.83 119.23 923.966 119.509 924.238 119.697C924.51 119.883 924.856 119.976 925.277 119.976ZM930.822 121V110.818H932.308V114.602H932.398C932.484 114.442 932.608 114.259 932.771 114.05C932.933 113.841 933.158 113.659 933.447 113.503C933.735 113.344 934.116 113.264 934.59 113.264C935.207 113.264 935.757 113.42 936.241 113.732C936.725 114.043 937.104 114.492 937.379 115.079C937.658 115.665 937.797 116.371 937.797 117.197C937.797 118.022 937.659 118.73 937.384 119.32C937.109 119.906 936.731 120.359 936.251 120.677C935.77 120.992 935.222 121.149 934.605 121.149C934.141 121.149 933.762 121.071 933.467 120.915C933.175 120.76 932.946 120.577 932.781 120.369C932.615 120.16 932.487 119.974 932.398 119.812H932.273V121H930.822ZM932.278 117.182C932.278 117.719 932.356 118.189 932.512 118.594C932.668 118.998 932.893 119.315 933.188 119.543C933.483 119.769 933.844 119.881 934.272 119.881C934.716 119.881 935.087 119.764 935.386 119.528C935.684 119.29 935.909 118.967 936.062 118.559C936.218 118.151 936.295 117.692 936.295 117.182C936.295 116.678 936.219 116.226 936.067 115.825C935.918 115.424 935.692 115.107 935.391 114.875C935.092 114.643 934.719 114.527 934.272 114.527C933.841 114.527 933.477 114.638 933.178 114.86C932.883 115.082 932.66 115.392 932.507 115.79C932.355 116.187 932.278 116.652 932.278 117.182ZM942.757 121.154C942.005 121.154 941.357 120.993 940.813 120.672C940.273 120.347 939.856 119.891 939.561 119.305C939.269 118.715 939.123 118.024 939.123 117.232C939.123 116.449 939.269 115.76 939.561 115.163C939.856 114.567 940.267 114.101 940.794 113.766C941.324 113.432 941.944 113.264 942.653 113.264C943.084 113.264 943.501 113.335 943.906 113.478C944.31 113.621 944.673 113.844 944.994 114.149C945.316 114.454 945.57 114.85 945.755 115.337C945.941 115.821 946.034 116.41 946.034 117.102V117.629H939.963V116.516H944.577C944.577 116.125 944.497 115.778 944.338 115.477C944.179 115.172 943.955 114.931 943.667 114.756C943.382 114.58 943.047 114.492 942.663 114.492C942.245 114.492 941.881 114.595 941.569 114.8C941.261 115.003 941.022 115.268 940.853 115.596C940.687 115.921 940.605 116.274 940.605 116.655V117.525C940.605 118.035 940.694 118.469 940.873 118.827C941.055 119.185 941.309 119.459 941.634 119.648C941.959 119.833 942.338 119.926 942.772 119.926C943.054 119.926 943.311 119.886 943.543 119.807C943.775 119.724 943.975 119.601 944.144 119.439C944.313 119.277 944.443 119.076 944.532 118.837L945.939 119.091C945.826 119.505 945.624 119.868 945.333 120.18C945.044 120.488 944.681 120.728 944.244 120.901C943.81 121.07 943.314 121.154 942.757 121.154ZM949.169 110.818V121H947.683V110.818H949.169Z" fill="white" fill-opacity="0.95"/>
</g>
</g>
<rect x="337.5" y="182" width="85" height="32" rx="16" fill="white" fill-opacity="0.2"/>
<path d="M362.995 198C362.995 199.285 362.545 200.529 361.725 201.518L364.354 204.147C364.445 204.241 364.496 204.367 364.496 204.499C364.495 204.63 364.442 204.756 364.349 204.849C364.256 204.942 364.13 204.995 363.999 204.996C363.867 204.996 363.741 204.945 363.646 204.854L361.018 202.226C360.031 203.049 358.786 203.5 357.5 203.5C356.214 203.5 354.969 203.049 353.982 202.226L351.354 204.854C351.307 204.901 351.252 204.939 351.191 204.965C351.13 204.991 351.065 205.004 350.999 205.005C350.933 205.005 350.867 204.992 350.806 204.967C350.744 204.942 350.689 204.905 350.642 204.858C350.595 204.811 350.558 204.756 350.533 204.694C350.508 204.633 350.495 204.568 350.496 204.501C350.496 204.435 350.51 204.37 350.535 204.309C350.561 204.248 350.599 204.193 350.646 204.147L353.275 201.518C352.454 200.529 352.005 199.285 352.005 198C352.005 196.715 352.454 195.471 353.275 194.482L350.646 191.854C350.555 191.759 350.504 191.633 350.505 191.501C350.505 191.37 350.558 191.244 350.651 191.151C350.744 191.058 350.87 191.005 351.001 191.005C351.133 191.004 351.259 191.055 351.354 191.147L353.982 193.775C354.969 192.951 356.214 192.5 357.5 192.5C358.786 192.5 360.031 192.951 361.018 193.775L363.646 191.147C363.693 191.099 363.748 191.061 363.809 191.036C363.87 191.01 363.935 190.996 364.001 190.996C364.068 190.995 364.133 191.008 364.194 191.033C364.256 191.058 364.311 191.095 364.358 191.142C364.405 191.189 364.442 191.244 364.467 191.306C364.492 191.367 364.505 191.433 364.504 191.499C364.504 191.565 364.491 191.63 364.465 191.691C364.439 191.752 364.401 191.807 364.354 191.854L361.725 194.483C362.545 195.471 362.995 196.715 362.995 198Z" fill="white" fill-opacity="0.95"/>
<path d="M374.949 203V192.818H376.485V201.678H381.099V203H374.949ZM384.954 203.169C384.47 203.169 384.033 203.08 383.642 202.901C383.25 202.718 382.941 202.455 382.712 202.11C382.486 201.765 382.374 201.343 382.374 200.842C382.374 200.411 382.457 200.057 382.622 199.778C382.788 199.5 383.012 199.28 383.294 199.117C383.575 198.955 383.89 198.832 384.238 198.749C384.586 198.666 384.941 198.603 385.302 198.56C385.759 198.507 386.131 198.464 386.416 198.431C386.701 198.395 386.908 198.337 387.037 198.257C387.166 198.178 387.231 198.048 387.231 197.869V197.835C387.231 197.4 387.108 197.064 386.863 196.825C386.621 196.587 386.26 196.467 385.779 196.467C385.279 196.467 384.884 196.578 384.596 196.8C384.311 197.019 384.114 197.263 384.004 197.531L382.607 197.213C382.773 196.749 383.015 196.375 383.333 196.089C383.655 195.801 384.024 195.592 384.442 195.463C384.86 195.33 385.299 195.264 385.759 195.264C386.064 195.264 386.387 195.301 386.729 195.374C387.074 195.443 387.395 195.572 387.693 195.761C387.995 195.95 388.242 196.22 388.434 196.572C388.626 196.92 388.722 197.372 388.722 197.929V203H387.271V201.956H387.211C387.115 202.148 386.971 202.337 386.779 202.523C386.586 202.708 386.339 202.862 386.038 202.985C385.736 203.108 385.375 203.169 384.954 203.169ZM385.277 201.976C385.688 201.976 386.039 201.895 386.331 201.732C386.626 201.57 386.85 201.358 387.002 201.096C387.158 200.831 387.236 200.547 387.236 200.246V199.261C387.183 199.314 387.08 199.364 386.928 199.411C386.779 199.454 386.608 199.492 386.416 199.525C386.223 199.555 386.036 199.583 385.854 199.609C385.672 199.633 385.519 199.652 385.396 199.669C385.108 199.705 384.845 199.767 384.606 199.853C384.371 199.939 384.182 200.063 384.039 200.226C383.9 200.385 383.83 200.597 383.83 200.862C383.83 201.23 383.966 201.509 384.238 201.697C384.51 201.883 384.856 201.976 385.277 201.976ZM390.822 203V192.818H392.308V196.602H392.398C392.484 196.442 392.608 196.259 392.771 196.05C392.933 195.841 393.158 195.659 393.447 195.503C393.735 195.344 394.116 195.264 394.59 195.264C395.207 195.264 395.757 195.42 396.241 195.732C396.725 196.043 397.104 196.492 397.379 197.079C397.658 197.665 397.797 198.371 397.797 199.197C397.797 200.022 397.659 200.73 397.384 201.32C397.109 201.906 396.731 202.359 396.251 202.677C395.77 202.992 395.222 203.149 394.605 203.149C394.141 203.149 393.762 203.071 393.467 202.915C393.175 202.76 392.946 202.577 392.781 202.369C392.615 202.16 392.487 201.974 392.398 201.812H392.273V203H390.822ZM392.278 199.182C392.278 199.719 392.356 200.189 392.512 200.594C392.668 200.998 392.893 201.315 393.188 201.543C393.483 201.769 393.844 201.881 394.272 201.881C394.716 201.881 395.087 201.764 395.386 201.528C395.684 201.29 395.909 200.967 396.062 200.559C396.218 200.151 396.295 199.692 396.295 199.182C396.295 198.678 396.219 198.226 396.067 197.825C395.918 197.424 395.692 197.107 395.391 196.875C395.092 196.643 394.719 196.527 394.272 196.527C393.841 196.527 393.477 196.638 393.178 196.86C392.883 197.082 392.66 197.392 392.507 197.79C392.355 198.187 392.278 198.652 392.278 199.182ZM402.757 203.154C402.005 203.154 401.357 202.993 400.813 202.672C400.273 202.347 399.856 201.891 399.561 201.305C399.269 200.715 399.123 200.024 399.123 199.232C399.123 198.449 399.269 197.76 399.561 197.163C399.856 196.567 400.267 196.101 400.794 195.766C401.324 195.432 401.944 195.264 402.653 195.264C403.084 195.264 403.501 195.335 403.906 195.478C404.31 195.621 404.673 195.844 404.994 196.149C405.316 196.454 405.57 196.85 405.755 197.337C405.941 197.821 406.034 198.41 406.034 199.102V199.629H399.963V198.516H404.577C404.577 198.125 404.497 197.778 404.338 197.477C404.179 197.172 403.955 196.931 403.667 196.756C403.382 196.58 403.047 196.492 402.663 196.492C402.245 196.492 401.881 196.595 401.569 196.8C401.261 197.003 401.022 197.268 400.853 197.596C400.687 197.921 400.605 198.274 400.605 198.655V199.525C400.605 200.035 400.694 200.469 400.873 200.827C401.055 201.185 401.309 201.459 401.634 201.648C401.959 201.833 402.338 201.926 402.772 201.926C403.054 201.926 403.311 201.886 403.543 201.807C403.775 201.724 403.975 201.601 404.144 201.439C404.313 201.277 404.443 201.076 404.532 200.837L405.939 201.091C405.826 201.505 405.624 201.868 405.333 202.18C405.044 202.488 404.681 202.728 404.244 202.901C403.81 203.07 403.314 203.154 402.757 203.154ZM409.169 192.818V203H407.683V192.818H409.169Z" fill="white" fill-opacity="0.95"/>
<rect x="472.5" y="182" width="85" height="32" rx="16" fill="white" fill-opacity="0.3"/>
<path d="M497.995 198C497.995 199.285 497.545 200.529 496.725 201.518L499.354 204.147C499.445 204.241 499.496 204.367 499.496 204.499C499.495 204.63 499.442 204.756 499.349 204.849C499.256 204.942 499.13 204.995 498.999 204.996C498.867 204.996 498.741 204.945 498.646 204.854L496.018 202.226C495.031 203.049 493.786 203.5 492.5 203.5C491.214 203.5 489.969 203.049 488.982 202.226L486.354 204.854C486.307 204.901 486.252 204.939 486.191 204.965C486.13 204.991 486.065 205.004 485.999 205.005C485.933 205.005 485.867 204.992 485.806 204.967C485.744 204.942 485.689 204.905 485.642 204.858C485.595 204.811 485.558 204.756 485.533 204.694C485.508 204.633 485.495 204.568 485.496 204.501C485.496 204.435 485.51 204.37 485.535 204.309C485.561 204.248 485.599 204.193 485.646 204.147L488.275 201.518C487.454 200.529 487.005 199.285 487.005 198C487.005 196.715 487.454 195.471 488.275 194.482L485.646 191.854C485.555 191.759 485.504 191.633 485.505 191.501C485.505 191.37 485.558 191.244 485.651 191.151C485.744 191.058 485.87 191.005 486.001 191.005C486.133 191.004 486.259 191.055 486.354 191.147L488.982 193.775C489.969 192.951 491.214 192.5 492.5 192.5C493.786 192.5 495.031 192.951 496.018 193.775L498.646 191.147C498.693 191.099 498.748 191.061 498.809 191.036C498.87 191.01 498.935 190.996 499.001 190.996C499.068 190.995 499.133 191.008 499.194 191.033C499.256 191.058 499.311 191.095 499.358 191.142C499.405 191.189 499.442 191.244 499.467 191.306C499.492 191.367 499.505 191.433 499.504 191.499C499.504 191.565 499.491 191.63 499.465 191.691C499.439 191.752 499.401 191.807 499.354 191.854L496.725 194.483C497.545 195.471 497.995 196.715 497.995 198Z" fill="white" fill-opacity="0.95"/>
<path d="M509.949 203V192.818H511.485V201.678H516.099V203H509.949ZM519.954 203.169C519.47 203.169 519.033 203.08 518.642 202.901C518.25 202.718 517.941 202.455 517.712 202.11C517.486 201.765 517.374 201.343 517.374 200.842C517.374 200.411 517.457 200.057 517.622 199.778C517.788 199.5 518.012 199.28 518.294 199.117C518.575 198.955 518.89 198.832 519.238 198.749C519.586 198.666 519.941 198.603 520.302 198.56C520.759 198.507 521.131 198.464 521.416 198.431C521.701 198.395 521.908 198.337 522.037 198.257C522.166 198.178 522.231 198.048 522.231 197.869V197.835C522.231 197.4 522.108 197.064 521.863 196.825C521.621 196.587 521.26 196.467 520.779 196.467C520.279 196.467 519.884 196.578 519.596 196.8C519.311 197.019 519.114 197.263 519.004 197.531L517.607 197.213C517.773 196.749 518.015 196.375 518.333 196.089C518.655 195.801 519.024 195.592 519.442 195.463C519.86 195.33 520.299 195.264 520.759 195.264C521.064 195.264 521.387 195.301 521.729 195.374C522.074 195.443 522.395 195.572 522.693 195.761C522.995 195.95 523.242 196.22 523.434 196.572C523.626 196.92 523.722 197.372 523.722 197.929V203H522.271V201.956H522.211C522.115 202.148 521.971 202.337 521.779 202.523C521.586 202.708 521.339 202.862 521.038 202.985C520.736 203.108 520.375 203.169 519.954 203.169ZM520.277 201.976C520.688 201.976 521.039 201.895 521.331 201.732C521.626 201.57 521.85 201.358 522.002 201.096C522.158 200.831 522.236 200.547 522.236 200.246V199.261C522.183 199.314 522.08 199.364 521.928 199.411C521.779 199.454 521.608 199.492 521.416 199.525C521.223 199.555 521.036 199.583 520.854 199.609C520.672 199.633 520.519 199.652 520.396 199.669C520.108 199.705 519.845 199.767 519.606 199.853C519.371 199.939 519.182 200.063 519.039 200.226C518.9 200.385 518.83 200.597 518.83 200.862C518.83 201.23 518.966 201.509 519.238 201.697C519.51 201.883 519.856 201.976 520.277 201.976ZM525.822 203V192.818H527.308V196.602H527.398C527.484 196.442 527.608 196.259 527.771 196.05C527.933 195.841 528.158 195.659 528.447 195.503C528.735 195.344 529.116 195.264 529.59 195.264C530.207 195.264 530.757 195.42 531.241 195.732C531.725 196.043 532.104 196.492 532.379 197.079C532.658 197.665 532.797 198.371 532.797 199.197C532.797 200.022 532.659 200.73 532.384 201.32C532.109 201.906 531.731 202.359 531.251 202.677C530.77 202.992 530.222 203.149 529.605 203.149C529.141 203.149 528.762 203.071 528.467 202.915C528.175 202.76 527.946 202.577 527.781 202.369C527.615 202.16 527.487 201.974 527.398 201.812H527.273V203H525.822ZM527.278 199.182C527.278 199.719 527.356 200.189 527.512 200.594C527.668 200.998 527.893 201.315 528.188 201.543C528.483 201.769 528.844 201.881 529.272 201.881C529.716 201.881 530.087 201.764 530.386 201.528C530.684 201.29 530.909 200.967 531.062 200.559C531.218 200.151 531.295 199.692 531.295 199.182C531.295 198.678 531.219 198.226 531.067 197.825C530.918 197.424 530.692 197.107 530.391 196.875C530.092 196.643 529.719 196.527 529.272 196.527C528.841 196.527 528.477 196.638 528.178 196.86C527.883 197.082 527.66 197.392 527.507 197.79C527.355 198.187 527.278 198.652 527.278 199.182ZM537.757 203.154C537.005 203.154 536.357 202.993 535.813 202.672C535.273 202.347 534.856 201.891 534.561 201.305C534.269 200.715 534.123 200.024 534.123 199.232C534.123 198.449 534.269 197.76 534.561 197.163C534.856 196.567 535.267 196.101 535.794 195.766C536.324 195.432 536.944 195.264 537.653 195.264C538.084 195.264 538.501 195.335 538.906 195.478C539.31 195.621 539.673 195.844 539.994 196.149C540.316 196.454 540.57 196.85 540.755 197.337C540.941 197.821 541.034 198.41 541.034 199.102V199.629H534.963V198.516H539.577C539.577 198.125 539.497 197.778 539.338 197.477C539.179 197.172 538.955 196.931 538.667 196.756C538.382 196.58 538.047 196.492 537.663 196.492C537.245 196.492 536.881 196.595 536.569 196.8C536.261 197.003 536.022 197.268 535.853 197.596C535.687 197.921 535.605 198.274 535.605 198.655V199.525C535.605 200.035 535.694 200.469 535.873 200.827C536.055 201.185 536.309 201.459 536.634 201.648C536.959 201.833 537.338 201.926 537.772 201.926C538.054 201.926 538.311 201.886 538.543 201.807C538.775 201.724 538.975 201.601 539.144 201.439C539.313 201.277 539.443 201.076 539.532 200.837L540.939 201.091C540.826 201.505 540.624 201.868 540.333 202.18C540.044 202.488 539.681 202.728 539.244 202.901C538.81 203.07 538.314 203.154 537.757 203.154ZM544.169 192.818V203H542.683V192.818H544.169Z" fill="white" fill-opacity="0.95"/>
<rect x="607.5" y="182" width="85" height="32" rx="16" fill="white" fill-opacity="0.4"/>
<path d="M632.995 198C632.995 199.285 632.545 200.529 631.725 201.518L634.354 204.147C634.445 204.241 634.496 204.367 634.496 204.499C634.495 204.63 634.442 204.756 634.349 204.849C634.256 204.942 634.13 204.995 633.999 204.996C633.867 204.996 633.741 204.945 633.646 204.854L631.018 202.226C630.031 203.049 628.786 203.5 627.5 203.5C626.214 203.5 624.969 203.049 623.982 202.226L621.354 204.854C621.307 204.901 621.252 204.939 621.191 204.965C621.13 204.991 621.065 205.004 620.999 205.005C620.933 205.005 620.867 204.992 620.806 204.967C620.744 204.942 620.689 204.905 620.642 204.858C620.595 204.811 620.558 204.756 620.533 204.694C620.508 204.633 620.495 204.568 620.496 204.501C620.496 204.435 620.51 204.37 620.535 204.309C620.561 204.248 620.599 204.193 620.646 204.147L623.275 201.518C622.454 200.529 622.005 199.285 622.005 198C622.005 196.715 622.454 195.471 623.275 194.482L620.646 191.854C620.555 191.759 620.504 191.633 620.505 191.501C620.505 191.37 620.558 191.244 620.651 191.151C620.744 191.058 620.87 191.005 621.001 191.005C621.133 191.004 621.259 191.055 621.354 191.147L623.982 193.775C624.969 192.951 626.214 192.5 627.5 192.5C628.786 192.5 630.031 192.951 631.018 193.775L633.646 191.147C633.693 191.099 633.748 191.061 633.809 191.036C633.87 191.01 633.935 190.996 634.001 190.996C634.068 190.995 634.133 191.008 634.194 191.033C634.256 191.058 634.311 191.095 634.358 191.142C634.405 191.189 634.442 191.244 634.467 191.306C634.492 191.367 634.505 191.433 634.504 191.499C634.504 191.565 634.491 191.63 634.465 191.691C634.439 191.752 634.401 191.807 634.354 191.854L631.725 194.483C632.545 195.471 632.995 196.715 632.995 198Z" fill="white" fill-opacity="0.95"/>
<path d="M644.949 203V192.818H646.485V201.678H651.099V203H644.949ZM654.954 203.169C654.47 203.169 654.033 203.08 653.642 202.901C653.25 202.718 652.941 202.455 652.712 202.11C652.486 201.765 652.374 201.343 652.374 200.842C652.374 200.411 652.457 200.057 652.622 199.778C652.788 199.5 653.012 199.28 653.294 199.117C653.575 198.955 653.89 198.832 654.238 198.749C654.586 198.666 654.941 198.603 655.302 198.56C655.759 198.507 656.131 198.464 656.416 198.431C656.701 198.395 656.908 198.337 657.037 198.257C657.166 198.178 657.231 198.048 657.231 197.869V197.835C657.231 197.4 657.108 197.064 656.863 196.825C656.621 196.587 656.26 196.467 655.779 196.467C655.279 196.467 654.884 196.578 654.596 196.8C654.311 197.019 654.114 197.263 654.004 197.531L652.607 197.213C652.773 196.749 653.015 196.375 653.333 196.089C653.655 195.801 654.024 195.592 654.442 195.463C654.86 195.33 655.299 195.264 655.759 195.264C656.064 195.264 656.387 195.301 656.729 195.374C657.074 195.443 657.395 195.572 657.693 195.761C657.995 195.95 658.242 196.22 658.434 196.572C658.626 196.92 658.722 197.372 658.722 197.929V203H657.271V201.956H657.211C657.115 202.148 656.971 202.337 656.779 202.523C656.586 202.708 656.339 202.862 656.038 202.985C655.736 203.108 655.375 203.169 654.954 203.169ZM655.277 201.976C655.688 201.976 656.039 201.895 656.331 201.732C656.626 201.57 656.85 201.358 657.002 201.096C657.158 200.831 657.236 200.547 657.236 200.246V199.261C657.183 199.314 657.08 199.364 656.928 199.411C656.779 199.454 656.608 199.492 656.416 199.525C656.223 199.555 656.036 199.583 655.854 199.609C655.672 199.633 655.519 199.652 655.396 199.669C655.108 199.705 654.845 199.767 654.606 199.853C654.371 199.939 654.182 200.063 654.039 200.226C653.9 200.385 653.83 200.597 653.83 200.862C653.83 201.23 653.966 201.509 654.238 201.697C654.51 201.883 654.856 201.976 655.277 201.976ZM660.822 203V192.818H662.308V196.602H662.398C662.484 196.442 662.608 196.259 662.771 196.05C662.933 195.841 663.158 195.659 663.447 195.503C663.735 195.344 664.116 195.264 664.59 195.264C665.207 195.264 665.757 195.42 666.241 195.732C666.725 196.043 667.104 196.492 667.379 197.079C667.658 197.665 667.797 198.371 667.797 199.197C667.797 200.022 667.659 200.73 667.384 201.32C667.109 201.906 666.731 202.359 666.251 202.677C665.77 202.992 665.222 203.149 664.605 203.149C664.141 203.149 663.762 203.071 663.467 202.915C663.175 202.76 662.946 202.577 662.781 202.369C662.615 202.16 662.487 201.974 662.398 201.812H662.273V203H660.822ZM662.278 199.182C662.278 199.719 662.356 200.189 662.512 200.594C662.668 200.998 662.893 201.315 663.188 201.543C663.483 201.769 663.844 201.881 664.272 201.881C664.716 201.881 665.087 201.764 665.386 201.528C665.684 201.29 665.909 200.967 666.062 200.559C666.218 200.151 666.295 199.692 666.295 199.182C666.295 198.678 666.219 198.226 666.067 197.825C665.918 197.424 665.692 197.107 665.391 196.875C665.092 196.643 664.719 196.527 664.272 196.527C663.841 196.527 663.477 196.638 663.178 196.86C662.883 197.082 662.66 197.392 662.507 197.79C662.355 198.187 662.278 198.652 662.278 199.182ZM672.757 203.154C672.005 203.154 671.357 202.993 670.813 202.672C670.273 202.347 669.856 201.891 669.561 201.305C669.269 200.715 669.123 200.024 669.123 199.232C669.123 198.449 669.269 197.76 669.561 197.163C669.856 196.567 670.267 196.101 670.794 195.766C671.324 195.432 671.944 195.264 672.653 195.264C673.084 195.264 673.501 195.335 673.906 195.478C674.31 195.621 674.673 195.844 674.994 196.149C675.316 196.454 675.57 196.85 675.755 197.337C675.941 197.821 676.034 198.41 676.034 199.102V199.629H669.963V198.516H674.577C674.577 198.125 674.497 197.778 674.338 197.477C674.179 197.172 673.955 196.931 673.667 196.756C673.382 196.58 673.047 196.492 672.663 196.492C672.245 196.492 671.881 196.595 671.569 196.8C671.261 197.003 671.022 197.268 670.853 197.596C670.687 197.921 670.605 198.274 670.605 198.655V199.525C670.605 200.035 670.694 200.469 670.873 200.827C671.055 201.185 671.309 201.459 671.634 201.648C671.959 201.833 672.338 201.926 672.772 201.926C673.054 201.926 673.311 201.886 673.543 201.807C673.775 201.724 673.975 201.601 674.144 201.439C674.313 201.277 674.443 201.076 674.532 200.837L675.939 201.091C675.826 201.505 675.624 201.868 675.333 202.18C675.044 202.488 674.681 202.728 674.244 202.901C673.81 203.07 673.314 203.154 672.757 203.154ZM679.169 192.818V203H677.683V192.818H679.169Z" fill="white" fill-opacity="0.95"/>
<rect x="742.5" y="182" width="85" height="32" rx="16" fill="white" fill-opacity="0.2"/>
<path d="M767.995 198C767.995 199.285 767.545 200.529 766.725 201.518L769.354 204.147C769.445 204.241 769.496 204.367 769.496 204.499C769.495 204.63 769.442 204.756 769.349 204.849C769.256 204.942 769.13 204.995 768.999 204.996C768.867 204.996 768.741 204.945 768.646 204.854L766.018 202.226C765.031 203.049 763.786 203.5 762.5 203.5C761.214 203.5 759.969 203.049 758.982 202.226L756.354 204.854C756.307 204.901 756.252 204.939 756.191 204.965C756.13 204.991 756.065 205.004 755.999 205.005C755.933 205.005 755.867 204.992 755.806 204.967C755.744 204.942 755.689 204.905 755.642 204.858C755.595 204.811 755.558 204.756 755.533 204.694C755.508 204.633 755.495 204.568 755.496 204.501C755.496 204.435 755.51 204.37 755.535 204.309C755.561 204.248 755.599 204.193 755.646 204.147L758.275 201.518C757.454 200.529 757.005 199.285 757.005 198C757.005 196.715 757.454 195.471 758.275 194.482L755.646 191.854C755.555 191.759 755.504 191.633 755.505 191.501C755.505 191.37 755.558 191.244 755.651 191.151C755.744 191.058 755.87 191.005 756.001 191.005C756.133 191.004 756.259 191.055 756.354 191.147L758.982 193.775C759.969 192.951 761.214 192.5 762.5 192.5C763.786 192.5 765.031 192.951 766.018 193.775L768.646 191.147C768.693 191.099 768.748 191.061 768.809 191.036C768.87 191.01 768.935 190.996 769.001 190.996C769.068 190.995 769.133 191.008 769.194 191.033C769.256 191.058 769.311 191.095 769.358 191.142C769.405 191.189 769.442 191.244 769.467 191.306C769.492 191.367 769.505 191.433 769.504 191.499C769.504 191.565 769.491 191.63 769.465 191.691C769.439 191.752 769.401 191.807 769.354 191.854L766.725 194.483C767.545 195.471 767.995 196.715 767.995 198Z" fill="white" fill-opacity="0.2"/>
<path d="M779.949 203V192.818H781.485V201.678H786.099V203H779.949ZM789.954 203.169C789.47 203.169 789.033 203.08 788.642 202.901C788.25 202.718 787.941 202.455 787.712 202.11C787.486 201.765 787.374 201.343 787.374 200.842C787.374 200.411 787.457 200.057 787.622 199.778C787.788 199.5 788.012 199.28 788.294 199.117C788.575 198.955 788.89 198.832 789.238 198.749C789.586 198.666 789.941 198.603 790.302 198.56C790.759 198.507 791.131 198.464 791.416 198.431C791.701 198.395 791.908 198.337 792.037 198.257C792.166 198.178 792.231 198.048 792.231 197.869V197.835C792.231 197.4 792.108 197.064 791.863 196.825C791.621 196.587 791.26 196.467 790.779 196.467C790.279 196.467 789.884 196.578 789.596 196.8C789.311 197.019 789.114 197.263 789.004 197.531L787.607 197.213C787.773 196.749 788.015 196.375 788.333 196.089C788.655 195.801 789.024 195.592 789.442 195.463C789.86 195.33 790.299 195.264 790.759 195.264C791.064 195.264 791.387 195.301 791.729 195.374C792.074 195.443 792.395 195.572 792.693 195.761C792.995 195.95 793.242 196.22 793.434 196.572C793.626 196.92 793.722 197.372 793.722 197.929V203H792.271V201.956H792.211C792.115 202.148 791.971 202.337 791.779 202.523C791.586 202.708 791.339 202.862 791.038 202.985C790.736 203.108 790.375 203.169 789.954 203.169ZM790.277 201.976C790.688 201.976 791.039 201.895 791.331 201.732C791.626 201.57 791.85 201.358 792.002 201.096C792.158 200.831 792.236 200.547 792.236 200.246V199.261C792.183 199.314 792.08 199.364 791.928 199.411C791.779 199.454 791.608 199.492 791.416 199.525C791.223 199.555 791.036 199.583 790.854 199.609C790.672 199.633 790.519 199.652 790.396 199.669C790.108 199.705 789.845 199.767 789.606 199.853C789.371 199.939 789.182 200.063 789.039 200.226C788.9 200.385 788.83 200.597 788.83 200.862C788.83 201.23 788.966 201.509 789.238 201.697C789.51 201.883 789.856 201.976 790.277 201.976ZM795.822 203V192.818H797.308V196.602H797.398C797.484 196.442 797.608 196.259 797.771 196.05C797.933 195.841 798.158 195.659 798.447 195.503C798.735 195.344 799.116 195.264 799.59 195.264C800.207 195.264 800.757 195.42 801.241 195.732C801.725 196.043 802.104 196.492 802.379 197.079C802.658 197.665 802.797 198.371 802.797 199.197C802.797 200.022 802.659 200.73 802.384 201.32C802.109 201.906 801.731 202.359 801.251 202.677C800.77 202.992 800.222 203.149 799.605 203.149C799.141 203.149 798.762 203.071 798.467 202.915C798.175 202.76 797.946 202.577 797.781 202.369C797.615 202.16 797.487 201.974 797.398 201.812H797.273V203H795.822ZM797.278 199.182C797.278 199.719 797.356 200.189 797.512 200.594C797.668 200.998 797.893 201.315 798.188 201.543C798.483 201.769 798.844 201.881 799.272 201.881C799.716 201.881 800.087 201.764 800.386 201.528C800.684 201.29 800.909 200.967 801.062 200.559C801.218 200.151 801.295 199.692 801.295 199.182C801.295 198.678 801.219 198.226 801.067 197.825C800.918 197.424 800.692 197.107 800.391 196.875C800.092 196.643 799.719 196.527 799.272 196.527C798.841 196.527 798.477 196.638 798.178 196.86C797.883 197.082 797.66 197.392 797.507 197.79C797.355 198.187 797.278 198.652 797.278 199.182ZM807.757 203.154C807.005 203.154 806.357 202.993 805.813 202.672C805.273 202.347 804.856 201.891 804.561 201.305C804.269 200.715 804.123 200.024 804.123 199.232C804.123 198.449 804.269 197.76 804.561 197.163C804.856 196.567 805.267 196.101 805.794 195.766C806.324 195.432 806.944 195.264 807.653 195.264C808.084 195.264 808.501 195.335 808.906 195.478C809.31 195.621 809.673 195.844 809.994 196.149C810.316 196.454 810.57 196.85 810.755 197.337C810.941 197.821 811.034 198.41 811.034 199.102V199.629H804.963V198.516H809.577C809.577 198.125 809.497 197.778 809.338 197.477C809.179 197.172 808.955 196.931 808.667 196.756C808.382 196.58 808.047 196.492 807.663 196.492C807.245 196.492 806.881 196.595 806.569 196.8C806.261 197.003 806.022 197.268 805.853 197.596C805.687 197.921 805.605 198.274 805.605 198.655V199.525C805.605 200.035 805.694 200.469 805.873 200.827C806.055 201.185 806.309 201.459 806.634 201.648C806.959 201.833 807.338 201.926 807.772 201.926C808.054 201.926 808.311 201.886 808.543 201.807C808.775 201.724 808.975 201.601 809.144 201.439C809.313 201.277 809.443 201.076 809.532 200.837L810.939 201.091C810.826 201.505 810.624 201.868 810.333 202.18C810.044 202.488 809.681 202.728 809.244 202.901C808.81 203.07 808.314 203.154 807.757 203.154ZM814.169 192.818V203H812.683V192.818H814.169Z" fill="white" fill-opacity="0.2"/>
<g filter="url(#filter1_ddd_2112_5071)">
<g clip-path="url(#clip1_2112_5071)">
<rect x="877.5" y="182" width="85" height="32" rx="16" fill="white" fill-opacity="0.01" shape-rendering="crispEdges"/>
<rect x="877.5" y="182" width="85" height="32" rx="16" fill="white" fill-opacity="0.2"/>
<path d="M902.995 198C902.995 199.285 902.545 200.529 901.725 201.518L904.354 204.147C904.445 204.241 904.496 204.367 904.496 204.499C904.495 204.63 904.442 204.756 904.349 204.849C904.256 204.942 904.13 204.995 903.999 204.996C903.867 204.996 903.741 204.945 903.646 204.854L901.018 202.226C900.031 203.049 898.786 203.5 897.5 203.5C896.214 203.5 894.969 203.049 893.982 202.226L891.354 204.854C891.307 204.901 891.252 204.939 891.191 204.965C891.13 204.991 891.065 205.004 890.999 205.005C890.933 205.005 890.867 204.992 890.806 204.967C890.744 204.942 890.689 204.905 890.642 204.858C890.595 204.811 890.558 204.756 890.533 204.694C890.508 204.633 890.495 204.568 890.496 204.501C890.496 204.435 890.51 204.37 890.535 204.309C890.561 204.248 890.599 204.193 890.646 204.147L893.275 201.518C892.454 200.529 892.005 199.285 892.005 198C892.005 196.715 892.454 195.471 893.275 194.482L890.646 191.854C890.555 191.759 890.504 191.633 890.505 191.501C890.505 191.37 890.558 191.244 890.651 191.151C890.744 191.058 890.87 191.005 891.001 191.005C891.133 191.004 891.259 191.055 891.354 191.147L893.982 193.775C894.969 192.951 896.214 192.5 897.5 192.5C898.786 192.5 900.031 192.951 901.018 193.775L903.646 191.147C903.693 191.099 903.748 191.061 903.809 191.036C903.87 191.01 903.935 190.996 904.001 190.996C904.068 190.995 904.133 191.008 904.194 191.033C904.256 191.058 904.311 191.095 904.358 191.142C904.405 191.189 904.442 191.244 904.467 191.306C904.492 191.367 904.505 191.433 904.504 191.499C904.504 191.565 904.491 191.63 904.465 191.691C904.439 191.752 904.401 191.807 904.354 191.854L901.725 194.483C902.545 195.471 902.995 196.715 902.995 198Z" fill="white" fill-opacity="0.95"/>
<path d="M914.949 203V192.818H916.485V201.678H921.099V203H914.949ZM924.954 203.169C924.47 203.169 924.033 203.08 923.642 202.901C923.25 202.718 922.941 202.455 922.712 202.11C922.486 201.765 922.374 201.343 922.374 200.842C922.374 200.411 922.457 200.057 922.622 199.778C922.788 199.5 923.012 199.28 923.294 199.117C923.575 198.955 923.89 198.832 924.238 198.749C924.586 198.666 924.941 198.603 925.302 198.56C925.759 198.507 926.131 198.464 926.416 198.431C926.701 198.395 926.908 198.337 927.037 198.257C927.166 198.178 927.231 198.048 927.231 197.869V197.835C927.231 197.4 927.108 197.064 926.863 196.825C926.621 196.587 926.26 196.467 925.779 196.467C925.279 196.467 924.884 196.578 924.596 196.8C924.311 197.019 924.114 197.263 924.004 197.531L922.607 197.213C922.773 196.749 923.015 196.375 923.333 196.089C923.655 195.801 924.024 195.592 924.442 195.463C924.86 195.33 925.299 195.264 925.759 195.264C926.064 195.264 926.387 195.301 926.729 195.374C927.074 195.443 927.395 195.572 927.693 195.761C927.995 195.95 928.242 196.22 928.434 196.572C928.626 196.92 928.722 197.372 928.722 197.929V203H927.271V201.956H927.211C927.115 202.148 926.971 202.337 926.779 202.523C926.586 202.708 926.339 202.862 926.038 202.985C925.736 203.108 925.375 203.169 924.954 203.169ZM925.277 201.976C925.688 201.976 926.039 201.895 926.331 201.732C926.626 201.57 926.85 201.358 927.002 201.096C927.158 200.831 927.236 200.547 927.236 200.246V199.261C927.183 199.314 927.08 199.364 926.928 199.411C926.779 199.454 926.608 199.492 926.416 199.525C926.223 199.555 926.036 199.583 925.854 199.609C925.672 199.633 925.519 199.652 925.396 199.669C925.108 199.705 924.845 199.767 924.606 199.853C924.371 199.939 924.182 200.063 924.039 200.226C923.9 200.385 923.83 200.597 923.83 200.862C923.83 201.23 923.966 201.509 924.238 201.697C924.51 201.883 924.856 201.976 925.277 201.976ZM930.822 203V192.818H932.308V196.602H932.398C932.484 196.442 932.608 196.259 932.771 196.05C932.933 195.841 933.158 195.659 933.447 195.503C933.735 195.344 934.116 195.264 934.59 195.264C935.207 195.264 935.757 195.42 936.241 195.732C936.725 196.043 937.104 196.492 937.379 197.079C937.658 197.665 937.797 198.371 937.797 199.197C937.797 200.022 937.659 200.73 937.384 201.32C937.109 201.906 936.731 202.359 936.251 202.677C935.77 202.992 935.222 203.149 934.605 203.149C934.141 203.149 933.762 203.071 933.467 202.915C933.175 202.76 932.946 202.577 932.781 202.369C932.615 202.16 932.487 201.974 932.398 201.812H932.273V203H930.822ZM932.278 199.182C932.278 199.719 932.356 200.189 932.512 200.594C932.668 200.998 932.893 201.315 933.188 201.543C933.483 201.769 933.844 201.881 934.272 201.881C934.716 201.881 935.087 201.764 935.386 201.528C935.684 201.29 935.909 200.967 936.062 200.559C936.218 200.151 936.295 199.692 936.295 199.182C936.295 198.678 936.219 198.226 936.067 197.825C935.918 197.424 935.692 197.107 935.391 196.875C935.092 196.643 934.719 196.527 934.272 196.527C933.841 196.527 933.477 196.638 933.178 196.86C932.883 197.082 932.66 197.392 932.507 197.79C932.355 198.187 932.278 198.652 932.278 199.182ZM942.757 203.154C942.005 203.154 941.357 202.993 940.813 202.672C940.273 202.347 939.856 201.891 939.561 201.305C939.269 200.715 939.123 200.024 939.123 199.232C939.123 198.449 939.269 197.76 939.561 197.163C939.856 196.567 940.267 196.101 940.794 195.766C941.324 195.432 941.944 195.264 942.653 195.264C943.084 195.264 943.501 195.335 943.906 195.478C944.31 195.621 944.673 195.844 944.994 196.149C945.316 196.454 945.57 196.85 945.755 197.337C945.941 197.821 946.034 198.41 946.034 199.102V199.629H939.963V198.516H944.577C944.577 198.125 944.497 197.778 944.338 197.477C944.179 197.172 943.955 196.931 943.667 196.756C943.382 196.58 943.047 196.492 942.663 196.492C942.245 196.492 941.881 196.595 941.569 196.8C941.261 197.003 941.022 197.268 940.853 197.596C940.687 197.921 940.605 198.274 940.605 198.655V199.525C940.605 200.035 940.694 200.469 940.873 200.827C941.055 201.185 941.309 201.459 941.634 201.648C941.959 201.833 942.338 201.926 942.772 201.926C943.054 201.926 943.311 201.886 943.543 201.807C943.775 201.724 943.975 201.601 944.144 201.439C944.313 201.277 944.443 201.076 944.532 200.837L945.939 201.091C945.826 201.505 945.624 201.868 945.333 202.18C945.044 202.488 944.681 202.728 944.244 202.901C943.81 203.07 943.314 203.154 942.757 203.154ZM949.169 192.818V203H947.683V192.818H949.169Z" fill="white" fill-opacity="0.95"/>
</g>
</g>
<defs>
<filter id="filter0_ddd_2112_5071" x="872.5" y="95" width="95" height="42" filterUnits="userSpaceOnUse" color-interpolation-filters="sRGB">
<feFlood flood-opacity="0" result="BackgroundImageFix"/>
<feColorMatrix in="SourceAlpha" type="matrix" values="0 0 0 0 0 0 0 0 0 0 0 0 0 0 0 0 0 0 127 0" result="hardAlpha"/>
<feMorphology radius="4" operator="dilate" in="SourceAlpha" result="effect1_dropShadow_2112_5071"/>
<feOffset/>
<feComposite in2="hardAlpha" operator="out"/>
<feColorMatrix type="matrix" values="0 0 0 0 0.392157 0 0 0 0 0.705882 0 0 0 0 0.980392 0 0 0 1 0"/>
<feBlend mode="normal" in2="BackgroundImageFix" result="effect1_dropShadow_2112_5071"/>
<feColorMatrix in="SourceAlpha" type="matrix" values="0 0 0 0 0 0 0 0 0 0 0 0 0 0 0 0 0 0 127 0" result="hardAlpha"/>
<feMorphology radius="5" operator="dilate" in="SourceAlpha" result="effect2_dropShadow_2112_5071"/>
<feOffset/>
<feComposite in2="hardAlpha" operator="out"/>
<feColorMatrix type="matrix" values="0 0 0 0 0.392157 0 0 0 0 0.705882 0 0 0 0 0.980392 0 0 0 0.35 0"/>
<feBlend mode="normal" in2="effect1_dropShadow_2112_5071" result="effect2_dropShadow_2112_5071"/>
<feColorMatrix in="SourceAlpha" type="matrix" values="0 0 0 0 0 0 0 0 0 0 0 0 0 0 0 0 0 0 127 0" result="hardAlpha"/>
<feMorphology radius="2" operator="dilate" in="SourceAlpha" result="effect3_dropShadow_2112_5071"/>
<feOffset/>
<feComposite in2="hardAlpha" operator="out"/>
<feColorMatrix type="matrix" values="0 0 0 0 0 0 0 0 0 0 0 0 0 0 0 0 0 0 1 0"/>
<feBlend mode="normal" in2="effect2_dropShadow_2112_5071" result="effect3_dropShadow_2112_5071"/>
<feBlend mode="normal" in="SourceGraphic" in2="effect3_dropShadow_2112_5071" result="shape"/>
</filter>
<filter id="filter1_ddd_2112_5071" x="872.5" y="177" width="95" height="42" filterUnits="userSpaceOnUse" color-interpolation-filters="sRGB">
<feFlood flood-opacity="0" result="BackgroundImageFix"/>
<feColorMatrix in="SourceAlpha" type="matrix" values="0 0 0 0 0 0 0 0 0 0 0 0 0 0 0 0 0 0 127 0" result="hardAlpha"/>
<feMorphology radius="4" operator="dilate" in="SourceAlpha" result="effect1_dropShadow_2112_5071"/>
<feOffset/>
<feComposite in2="hardAlpha" operator="out"/>
<feColorMatrix type="matrix" values="0 0 0 0 0.392157 0 0 0 0 0.705882 0 0 0 0 0.980392 0 0 0 1 0"/>
<feBlend mode="normal" in2="BackgroundImageFix" result="effect1_dropShadow_2112_5071"/>
<feColorMatrix in="SourceAlpha" type="matrix" values="0 0 0 0 0 0 0 0 0 0 0 0 0 0 0 0 0 0 127 0" result="hardAlpha"/>
<feMorphology radius="5" operator="dilate" in="SourceAlpha" result="effect2_dropShadow_2112_5071"/>
<feOffset/>
<feComposite in2="hardAlpha" operator="out"/>
<feColorMatrix type="matrix" values="0 0 0 0 0.392157 0 0 0 0 0.705882 0 0 0 0 0.980392 0 0 0 0.35 0"/>
<feBlend mode="normal" in2="effect1_dropShadow_2112_5071" result="effect2_dropShadow_2112_5071"/>
<feColorMatrix in="SourceAlpha" type="matrix" values="0 0 0 0 0 0 0 0 0 0 0 0 0 0 0 0 0 0 127 0" result="hardAlpha"/>
<feMorphology radius="2" operator="dilate" in="SourceAlpha" result="effect3_dropShadow_2112_5071"/>
<feOffset/>
<feComposite in2="hardAlpha" operator="out"/>
<feColorMatrix type="matrix" values="0 0 0 0 0 0 0 0 0 0 0 0 0 0 0 0 0 0 1 0"/>
<feBlend mode="normal" in2="effect2_dropShadow_2112_5071" result="effect3_dropShadow_2112_5071"/>
<feBlend mode="normal" in="SourceGraphic" in2="effect3_dropShadow_2112_5071" result="shape"/>
</filter>
<clipPath id="clip0_2112_5071">
<rect x="877.5" y="100" width="85" height="32" rx="16" fill="white"/>
</clipPath>
<clipPath id="clip1_2112_5071">
<rect x="877.5" y="182" width="85" height="32" rx="16" fill="white"/>
</clipPath>
</defs>
</svg>
