<svg width="1300" height="56" viewBox="0 0 1300 56" fill="none" xmlns="http://www.w3.org/2000/svg">
<mask id="path-1-inside-1_2125_8543" fill="white">
<path d="M0 0H650V56H0V0Z"/>
</mask>
<path d="M0 0H650V56H0V0Z" fill="#1A1A1A"/>
<path d="M650 56V57H651V56H650ZM649 0V56H651V0H649ZM650 55H0V57H650V55Z" fill="white" fill-opacity="0.3" mask="url(#path-1-inside-1_2125_8543)"/>
<path d="M31.4091 34V22.3636H35.3409C36.2538 22.3636 37 22.5284 37.5795 22.858C38.1629 23.1837 38.5947 23.625 38.875 24.1818C39.1553 24.7386 39.2955 25.3598 39.2955 26.0455C39.2955 26.7311 39.1553 27.3542 38.875 27.9148C38.5985 28.4754 38.1705 28.9223 37.5909 29.2557C37.0114 29.5852 36.2689 29.75 35.3636 29.75H32.5455V28.5H35.3182C35.9432 28.5 36.4451 28.392 36.8239 28.1761C37.2027 27.9602 37.4773 27.6686 37.6477 27.3011C37.822 26.9299 37.9091 26.5114 37.9091 26.0455C37.9091 25.5795 37.822 25.1629 37.6477 24.7955C37.4773 24.428 37.2008 24.1402 36.8182 23.9318C36.4356 23.7197 35.928 23.6136 35.2955 23.6136H32.8182V34H31.4091ZM42.7244 22.3636V34H41.3835V22.3636H42.7244ZM47.7486 34.2045C47.1955 34.2045 46.6937 34.1004 46.2429 33.892C45.7921 33.6799 45.4342 33.375 45.169 32.9773C44.9039 32.5758 44.7713 32.0909 44.7713 31.5227C44.7713 31.0227 44.8698 30.6174 45.0668 30.3068C45.2637 29.9924 45.527 29.7462 45.8565 29.5682C46.1861 29.3902 46.5497 29.2576 46.9474 29.1705C47.349 29.0795 47.7524 29.0076 48.1577 28.9545C48.688 28.8864 49.1179 28.8352 49.4474 28.8011C49.7808 28.7633 50.0232 28.7008 50.1747 28.6136C50.33 28.5265 50.4077 28.375 50.4077 28.1591V28.1136C50.4077 27.553 50.2543 27.1174 49.9474 26.8068C49.6444 26.4962 49.1842 26.3409 48.5668 26.3409C47.9266 26.3409 47.4247 26.4811 47.0611 26.7614C46.6974 27.0417 46.4418 27.3409 46.294 27.6591L45.0213 27.2045C45.2486 26.6742 45.5516 26.2614 45.9304 25.9659C46.313 25.6667 46.7296 25.4583 47.1804 25.3409C47.6349 25.2197 48.0819 25.1591 48.5213 25.1591C48.8016 25.1591 49.1236 25.1932 49.4872 25.2614C49.8546 25.3258 50.2088 25.4602 50.5497 25.6648C50.8944 25.8693 51.1804 26.178 51.4077 26.5909C51.6349 27.0038 51.7486 27.5568 51.7486 28.25V34H50.4077V32.8182H50.3395C50.2486 33.0076 50.0971 33.2102 49.8849 33.4261C49.6728 33.642 49.3906 33.8258 49.0384 33.9773C48.6861 34.1288 48.2562 34.2045 47.7486 34.2045ZM47.9531 33C48.4834 33 48.9304 32.8958 49.294 32.6875C49.6615 32.4792 49.938 32.2102 50.1236 31.8807C50.313 31.5511 50.4077 31.2045 50.4077 30.8409V29.6136C50.3509 29.6818 50.2259 29.7443 50.0327 29.8011C49.8433 29.8542 49.6236 29.9015 49.3736 29.9432C49.1274 29.9811 48.8868 30.0152 48.652 30.0455C48.4209 30.072 48.2334 30.0947 48.0895 30.1136C47.741 30.1591 47.4152 30.233 47.1122 30.3352C46.813 30.4337 46.5705 30.5833 46.3849 30.7841C46.2031 30.9811 46.1122 31.25 46.1122 31.5909C46.1122 32.0568 46.2846 32.4091 46.6293 32.6477C46.9777 32.8826 47.419 33 47.9531 33ZM57.7415 34.1818C56.9233 34.1818 56.2188 33.9886 55.6278 33.6023C55.0369 33.2159 54.5824 32.6837 54.2642 32.0057C53.946 31.3277 53.7869 30.553 53.7869 29.6818C53.7869 28.7955 53.9498 28.0133 54.2756 27.3352C54.6051 26.6534 55.0634 26.1212 55.6506 25.7386C56.2415 25.3523 56.9309 25.1591 57.7188 25.1591C58.3324 25.1591 58.8854 25.2727 59.3778 25.5C59.8703 25.7273 60.2737 26.0455 60.5881 26.4545C60.9025 26.8636 61.0975 27.3409 61.1733 27.8864H59.8324C59.7301 27.4886 59.5028 27.1364 59.1506 26.8295C58.8021 26.5189 58.3324 26.3636 57.7415 26.3636C57.2188 26.3636 56.7604 26.5 56.3665 26.7727C55.9763 27.0417 55.6714 27.4223 55.4517 27.9148C55.2358 28.4034 55.1278 28.9773 55.1278 29.6364C55.1278 30.3106 55.2339 30.8977 55.446 31.3977C55.6619 31.8977 55.965 32.286 56.3551 32.5625C56.7491 32.839 57.2112 32.9773 57.7415 32.9773C58.09 32.9773 58.4062 32.9167 58.6903 32.7955C58.9744 32.6742 59.215 32.5 59.4119 32.2727C59.6089 32.0455 59.7491 31.7727 59.8324 31.4545H61.1733C61.0975 31.9697 60.91 32.4337 60.6108 32.8466C60.3153 33.2557 59.9233 33.5814 59.4347 33.8239C58.9498 34.0625 58.3854 34.1818 57.7415 34.1818ZM66.7926 34.1818C65.9517 34.1818 65.2263 33.9962 64.6165 33.625C64.0104 33.25 63.5426 32.7273 63.2131 32.0568C62.8873 31.3826 62.7244 30.5985 62.7244 29.7045C62.7244 28.8106 62.8873 28.0227 63.2131 27.3409C63.5426 26.6553 64.0009 26.1212 64.5881 25.7386C65.179 25.3523 65.8684 25.1591 66.6562 25.1591C67.1108 25.1591 67.5597 25.2348 68.0028 25.3864C68.446 25.5379 68.8494 25.7841 69.2131 26.125C69.5767 26.4621 69.8665 26.9091 70.0824 27.4659C70.2983 28.0227 70.4062 28.7083 70.4062 29.5227V30.0909H63.679V28.9318H69.0426C69.0426 28.4394 68.9441 28 68.7472 27.6136C68.554 27.2273 68.2775 26.9223 67.9176 26.6989C67.5616 26.4754 67.1411 26.3636 66.6562 26.3636C66.1222 26.3636 65.66 26.4962 65.2699 26.7614C64.8835 27.0227 64.5862 27.3636 64.3778 27.7841C64.1695 28.2045 64.0653 28.6553 64.0653 29.1364V29.9091C64.0653 30.5682 64.179 31.1269 64.4062 31.5852C64.6373 32.0398 64.9574 32.3864 65.3665 32.625C65.7756 32.8598 66.2509 32.9773 66.7926 32.9773C67.1449 32.9773 67.4631 32.928 67.7472 32.8295C68.035 32.7273 68.2831 32.5758 68.4915 32.375C68.6998 32.1705 68.8608 31.9167 68.9744 31.6136L70.2699 31.9773C70.1335 32.4167 69.9044 32.803 69.5824 33.1364C69.2604 33.4659 68.8627 33.7235 68.3892 33.9091C67.9157 34.0909 67.3835 34.1818 66.7926 34.1818ZM73.7869 28.75V34H72.446V22.3636H73.7869V26.6364H73.9006C74.1051 26.1856 74.4119 25.8277 74.821 25.5625C75.2339 25.2936 75.7831 25.1591 76.4688 25.1591C77.0634 25.1591 77.5843 25.2784 78.0312 25.517C78.4782 25.7519 78.8248 26.1136 79.071 26.6023C79.321 27.0871 79.446 27.7045 79.446 28.4545V34H78.1051V28.5455C78.1051 27.8523 77.9252 27.3163 77.5653 26.9375C77.2093 26.5549 76.715 26.3636 76.0824 26.3636C75.643 26.3636 75.2491 26.4564 74.9006 26.642C74.5559 26.8277 74.2831 27.0985 74.0824 27.4545C73.8854 27.8106 73.7869 28.2424 73.7869 28.75ZM85.4446 34.1818C84.6567 34.1818 83.9654 33.9943 83.3707 33.6193C82.7798 33.2443 82.3177 32.7197 81.9844 32.0455C81.6548 31.3712 81.4901 30.5833 81.4901 29.6818C81.4901 28.7727 81.6548 27.9792 81.9844 27.3011C82.3177 26.6231 82.7798 26.0966 83.3707 25.7216C83.9654 25.3466 84.6567 25.1591 85.4446 25.1591C86.2325 25.1591 86.9219 25.3466 87.5128 25.7216C88.1075 26.0966 88.5696 26.6231 88.8991 27.3011C89.2325 27.9792 89.3991 28.7727 89.3991 29.6818C89.3991 30.5833 89.2325 31.3712 88.8991 32.0455C88.5696 32.7197 88.1075 33.2443 87.5128 33.6193C86.9219 33.9943 86.2325 34.1818 85.4446 34.1818ZM85.4446 32.9773C86.0431 32.9773 86.5355 32.8239 86.9219 32.517C87.3082 32.2102 87.5942 31.8068 87.7798 31.3068C87.9654 30.8068 88.0582 30.2652 88.0582 29.6818C88.0582 29.0985 87.9654 28.5549 87.7798 28.0511C87.5942 27.5473 87.3082 27.1402 86.9219 26.8295C86.5355 26.5189 86.0431 26.3636 85.4446 26.3636C84.8461 26.3636 84.3537 26.5189 83.9673 26.8295C83.581 27.1402 83.295 27.5473 83.1094 28.0511C82.9238 28.5549 82.831 29.0985 82.831 29.6818C82.831 30.2652 82.9238 30.8068 83.1094 31.3068C83.295 31.8068 83.581 32.2102 83.9673 32.517C84.3537 32.8239 84.8461 32.9773 85.4446 32.9773ZM92.7869 22.3636V34H91.446V22.3636H92.7869ZM98.5384 34.1818C97.8111 34.1818 97.169 33.9981 96.6122 33.6307C96.0554 33.2595 95.6198 32.7367 95.3054 32.0625C94.991 31.3845 94.8338 30.5833 94.8338 29.6591C94.8338 28.7424 94.991 27.947 95.3054 27.2727C95.6198 26.5985 96.0573 26.0777 96.6179 25.7102C97.1785 25.3428 97.8262 25.1591 98.5611 25.1591C99.1293 25.1591 99.5781 25.2538 99.9077 25.4432C100.241 25.6288 100.495 25.8409 100.669 26.0795C100.847 26.3144 100.985 26.5076 101.084 26.6591H101.197V22.3636H102.538V34H101.243V32.6591H101.084C100.985 32.8182 100.845 33.0189 100.663 33.2614C100.482 33.5 100.222 33.714 99.8849 33.9034C99.5478 34.089 99.099 34.1818 98.5384 34.1818ZM98.7202 32.9773C99.258 32.9773 99.7126 32.8371 100.084 32.5568C100.455 32.2727 100.737 31.8807 100.93 31.3807C101.124 30.8769 101.22 30.2955 101.22 29.6364C101.22 28.9848 101.125 28.4148 100.936 27.9261C100.747 27.4337 100.466 27.0511 100.095 26.7784C99.724 26.5019 99.2656 26.3636 98.7202 26.3636C98.152 26.3636 97.6785 26.5095 97.2997 26.8011C96.9247 27.089 96.6425 27.4811 96.4531 27.9773C96.2675 28.4697 96.1747 29.0227 96.1747 29.6364C96.1747 30.2576 96.2694 30.822 96.4588 31.3295C96.652 31.8333 96.9361 32.2348 97.3111 32.5341C97.6899 32.8295 98.1596 32.9773 98.7202 32.9773ZM108.839 34.1818C107.999 34.1818 107.273 33.9962 106.663 33.625C106.057 33.25 105.589 32.7273 105.26 32.0568C104.934 31.3826 104.771 30.5985 104.771 29.7045C104.771 28.8106 104.934 28.0227 105.26 27.3409C105.589 26.6553 106.048 26.1212 106.635 25.7386C107.226 25.3523 107.915 25.1591 108.703 25.1591C109.158 25.1591 109.607 25.2348 110.05 25.3864C110.493 25.5379 110.896 25.7841 111.26 26.125C111.624 26.4621 111.913 26.9091 112.129 27.4659C112.345 28.0227 112.453 28.7083 112.453 29.5227V30.0909H105.726V28.9318H111.089C111.089 28.4394 110.991 28 110.794 27.6136C110.601 27.2273 110.324 26.9223 109.964 26.6989C109.608 26.4754 109.188 26.3636 108.703 26.3636C108.169 26.3636 107.707 26.4962 107.317 26.7614C106.93 27.0227 106.633 27.3636 106.425 27.7841C106.216 28.2045 106.112 28.6553 106.112 29.1364V29.9091C106.112 30.5682 106.226 31.1269 106.453 31.5852C106.684 32.0398 107.004 32.3864 107.413 32.625C107.822 32.8598 108.298 32.9773 108.839 32.9773C109.192 32.9773 109.51 32.928 109.794 32.8295C110.082 32.7273 110.33 32.5758 110.538 32.375C110.747 32.1705 110.908 31.9167 111.021 31.6136L112.317 31.9773C112.18 32.4167 111.951 32.803 111.629 33.1364C111.307 33.4659 110.91 33.7235 110.436 33.9091C109.963 34.0909 109.43 34.1818 108.839 34.1818ZM114.493 34V25.2727H115.788V26.5909H115.879C116.038 26.1591 116.326 25.8087 116.743 25.5398C117.16 25.2708 117.629 25.1364 118.152 25.1364C118.25 25.1364 118.374 25.1383 118.521 25.142C118.669 25.1458 118.781 25.1515 118.857 25.1591V26.5227C118.811 26.5114 118.707 26.4943 118.544 26.4716C118.385 26.4451 118.216 26.4318 118.038 26.4318C117.614 26.4318 117.235 26.5208 116.902 26.6989C116.572 26.8731 116.311 27.1155 116.118 27.4261C115.929 27.733 115.834 28.0833 115.834 28.4773V34H114.493ZM124.946 34V25.2727H126.241V26.6364H126.355C126.537 26.1705 126.83 25.8087 127.236 25.5511C127.641 25.2898 128.128 25.1591 128.696 25.1591C129.272 25.1591 129.751 25.2898 130.134 25.5511C130.52 25.8087 130.821 26.1705 131.037 26.6364H131.128C131.351 26.1856 131.687 25.8277 132.134 25.5625C132.58 25.2936 133.116 25.1591 133.741 25.1591C134.522 25.1591 135.16 25.4034 135.656 25.892C136.152 26.3769 136.401 27.1326 136.401 28.1591V34H135.06V28.1591C135.06 27.5152 134.884 27.0549 134.531 26.7784C134.179 26.5019 133.764 26.3636 133.287 26.3636C132.673 26.3636 132.198 26.5492 131.861 26.9205C131.524 27.2879 131.355 27.7538 131.355 28.3182V34H129.991V28.0227C129.991 27.5265 129.83 27.1269 129.509 26.8239C129.187 26.517 128.772 26.3636 128.264 26.3636C127.916 26.3636 127.59 26.4564 127.287 26.642C126.988 26.8277 126.745 27.0852 126.56 27.4148C126.378 27.7405 126.287 28.1174 126.287 28.5455V34H124.946ZM142.511 34.1818C141.67 34.1818 140.945 33.9962 140.335 33.625C139.729 33.25 139.261 32.7273 138.932 32.0568C138.606 31.3826 138.443 30.5985 138.443 29.7045C138.443 28.8106 138.606 28.0227 138.932 27.3409C139.261 26.6553 139.72 26.1212 140.307 25.7386C140.898 25.3523 141.587 25.1591 142.375 25.1591C142.83 25.1591 143.278 25.2348 143.722 25.3864C144.165 25.5379 144.568 25.7841 144.932 26.125C145.295 26.4621 145.585 26.9091 145.801 27.4659C146.017 28.0227 146.125 28.7083 146.125 29.5227V30.0909H139.398V28.9318H144.761C144.761 28.4394 144.663 28 144.466 27.6136C144.273 27.2273 143.996 26.9223 143.636 26.6989C143.28 26.4754 142.86 26.3636 142.375 26.3636C141.841 26.3636 141.379 26.4962 140.989 26.7614C140.602 27.0227 140.305 27.3636 140.097 27.7841C139.888 28.2045 139.784 28.6553 139.784 29.1364V29.9091C139.784 30.5682 139.898 31.1269 140.125 31.5852C140.356 32.0398 140.676 32.3864 141.085 32.625C141.494 32.8598 141.97 32.9773 142.511 32.9773C142.864 32.9773 143.182 32.928 143.466 32.8295C143.754 32.7273 144.002 32.5758 144.21 32.375C144.419 32.1705 144.58 31.9167 144.693 31.6136L145.989 31.9773C145.852 32.4167 145.623 32.803 145.301 33.1364C144.979 33.4659 144.581 33.7235 144.108 33.9091C143.634 34.0909 143.102 34.1818 142.511 34.1818ZM151.46 34.1818C150.733 34.1818 150.091 33.9981 149.534 33.6307C148.977 33.2595 148.542 32.7367 148.227 32.0625C147.913 31.3845 147.756 30.5833 147.756 29.6591C147.756 28.7424 147.913 27.947 148.227 27.2727C148.542 26.5985 148.979 26.0777 149.54 25.7102C150.1 25.3428 150.748 25.1591 151.483 25.1591C152.051 25.1591 152.5 25.2538 152.83 25.4432C153.163 25.6288 153.417 25.8409 153.591 26.0795C153.769 26.3144 153.907 26.5076 154.006 26.6591H154.119V22.3636H155.46V34H154.165V32.6591H154.006C153.907 32.8182 153.767 33.0189 153.585 33.2614C153.403 33.5 153.144 33.714 152.807 33.9034C152.47 34.089 152.021 34.1818 151.46 34.1818ZM151.642 32.9773C152.18 32.9773 152.634 32.8371 153.006 32.5568C153.377 32.2727 153.659 31.8807 153.852 31.3807C154.045 30.8769 154.142 30.2955 154.142 29.6364C154.142 28.9848 154.047 28.4148 153.858 27.9261C153.669 27.4337 153.388 27.0511 153.017 26.7784C152.646 26.5019 152.188 26.3636 151.642 26.3636C151.074 26.3636 150.6 26.5095 150.222 26.8011C149.847 27.089 149.564 27.4811 149.375 27.9773C149.189 28.4697 149.097 29.0227 149.097 29.6364C149.097 30.2576 149.191 30.822 149.381 31.3295C149.574 31.8333 149.858 32.2348 150.233 32.5341C150.612 32.8295 151.081 32.9773 151.642 32.9773ZM158.102 34V25.2727H159.443V34H158.102ZM158.784 23.8182C158.523 23.8182 158.297 23.7292 158.108 23.5511C157.922 23.3731 157.83 23.1591 157.83 22.9091C157.83 22.6591 157.922 22.4451 158.108 22.267C158.297 22.089 158.523 22 158.784 22C159.045 22 159.269 22.089 159.455 22.267C159.644 22.4451 159.739 22.6591 159.739 22.9091C159.739 23.1591 159.644 23.3731 159.455 23.5511C159.269 23.7292 159.045 23.8182 158.784 23.8182ZM164.467 34.2045C163.914 34.2045 163.412 34.1004 162.962 33.892C162.511 33.6799 162.153 33.375 161.888 32.9773C161.623 32.5758 161.49 32.0909 161.49 31.5227C161.49 31.0227 161.589 30.6174 161.786 30.3068C161.982 29.9924 162.246 29.7462 162.575 29.5682C162.905 29.3902 163.268 29.2576 163.666 29.1705C164.068 29.0795 164.471 29.0076 164.876 28.9545C165.407 28.8864 165.837 28.8352 166.166 28.8011C166.5 28.7633 166.742 28.7008 166.893 28.6136C167.049 28.5265 167.126 28.375 167.126 28.1591V28.1136C167.126 27.553 166.973 27.1174 166.666 26.8068C166.363 26.4962 165.903 26.3409 165.286 26.3409C164.645 26.3409 164.143 26.4811 163.78 26.7614C163.416 27.0417 163.161 27.3409 163.013 27.6591L161.74 27.2045C161.967 26.6742 162.27 26.2614 162.649 25.9659C163.032 25.6667 163.448 25.4583 163.899 25.3409C164.354 25.2197 164.801 25.1591 165.24 25.1591C165.52 25.1591 165.842 25.1932 166.206 25.2614C166.573 25.3258 166.928 25.4602 167.268 25.6648C167.613 25.8693 167.899 26.178 168.126 26.5909C168.354 27.0038 168.467 27.5568 168.467 28.25V34H167.126V32.8182H167.058C166.967 33.0076 166.816 33.2102 166.604 33.4261C166.392 33.642 166.109 33.8258 165.757 33.9773C165.405 34.1288 164.975 34.2045 164.467 34.2045ZM164.672 33C165.202 33 165.649 32.8958 166.013 32.6875C166.38 32.4792 166.657 32.2102 166.842 31.8807C167.032 31.5511 167.126 31.2045 167.126 30.8409V29.6136C167.07 29.6818 166.945 29.7443 166.751 29.8011C166.562 29.8542 166.342 29.9015 166.092 29.9432C165.846 29.9811 165.606 30.0152 165.371 30.0455C165.14 30.072 164.952 30.0947 164.808 30.1136C164.46 30.1591 164.134 30.233 163.831 30.3352C163.532 30.4337 163.289 30.5833 163.104 30.7841C162.922 30.9811 162.831 31.25 162.831 31.5909C162.831 32.0568 163.003 32.4091 163.348 32.6477C163.696 32.8826 164.138 33 164.672 33Z" fill="white" fill-opacity="0.95"/>
<mask id="path-4-inside-2_2125_8543" fill="white">
<path d="M650 0H1300V56H650V0Z"/>
</mask>
<path d="M650 0H1300V56H650V0Z" fill="#1A1A1A"/>
<path d="M1300 55H650V57H1300V55Z" fill="white" fill-opacity="0.3" mask="url(#path-4-inside-2_2125_8543)"/>
<path d="M687.773 25.2727C687.705 24.697 687.428 24.25 686.943 23.9318C686.458 23.6136 685.864 23.4545 685.159 23.4545C684.644 23.4545 684.193 23.5379 683.807 23.7045C683.424 23.8712 683.125 24.1004 682.909 24.392C682.697 24.6837 682.591 25.0152 682.591 25.3864C682.591 25.697 682.665 25.964 682.812 26.1875C682.964 26.4072 683.157 26.5909 683.392 26.7386C683.627 26.8826 683.873 27.0019 684.131 27.0966C684.388 27.1875 684.625 27.2614 684.841 27.3182L686.023 27.6364C686.326 27.7159 686.663 27.8258 687.034 27.9659C687.409 28.1061 687.767 28.2973 688.108 28.5398C688.453 28.7784 688.737 29.0852 688.96 29.4602C689.184 29.8352 689.295 30.2955 689.295 30.8409C689.295 31.4697 689.131 32.0379 688.801 32.5455C688.475 33.053 687.998 33.4564 687.369 33.7557C686.744 34.0549 685.985 34.2045 685.091 34.2045C684.258 34.2045 683.536 34.0701 682.926 33.8011C682.32 33.5322 681.843 33.1572 681.494 32.6761C681.15 32.1951 680.955 31.6364 680.909 31H682.364C682.402 31.4394 682.549 31.803 682.807 32.0909C683.068 32.375 683.398 32.5871 683.795 32.7273C684.197 32.8636 684.629 32.9318 685.091 32.9318C685.629 32.9318 686.112 32.8447 686.54 32.6705C686.968 32.4924 687.307 32.2462 687.557 31.9318C687.807 31.6136 687.932 31.2424 687.932 30.8182C687.932 30.4318 687.824 30.1174 687.608 29.875C687.392 29.6326 687.108 29.4356 686.756 29.2841C686.403 29.1326 686.023 29 685.614 28.8864L684.182 28.4773C683.273 28.2159 682.553 27.8428 682.023 27.358C681.492 26.8731 681.227 26.2386 681.227 25.4545C681.227 24.803 681.403 24.2348 681.756 23.75C682.112 23.2614 682.589 22.8826 683.188 22.6136C683.79 22.3409 684.462 22.2045 685.205 22.2045C685.955 22.2045 686.621 22.339 687.205 22.608C687.788 22.8731 688.25 23.2367 688.591 23.6989C688.936 24.161 689.117 24.6856 689.136 25.2727H687.773ZM695.089 34.1818C694.249 34.1818 693.523 33.9962 692.913 33.625C692.307 33.25 691.839 32.7273 691.51 32.0568C691.184 31.3826 691.021 30.5985 691.021 29.7045C691.021 28.8106 691.184 28.0227 691.51 27.3409C691.839 26.6553 692.298 26.1212 692.885 25.7386C693.476 25.3523 694.165 25.1591 694.953 25.1591C695.408 25.1591 695.857 25.2348 696.3 25.3864C696.743 25.5379 697.146 25.7841 697.51 26.125C697.874 26.4621 698.163 26.9091 698.379 27.4659C698.595 28.0227 698.703 28.7083 698.703 29.5227V30.0909H691.976V28.9318H697.339C697.339 28.4394 697.241 28 697.044 27.6136C696.851 27.2273 696.574 26.9223 696.214 26.6989C695.858 26.4754 695.438 26.3636 694.953 26.3636C694.419 26.3636 693.957 26.4962 693.567 26.7614C693.18 27.0227 692.883 27.3636 692.675 27.7841C692.466 28.2045 692.362 28.6553 692.362 29.1364V29.9091C692.362 30.5682 692.476 31.1269 692.703 31.5852C692.934 32.0398 693.254 32.3864 693.663 32.625C694.072 32.8598 694.548 32.9773 695.089 32.9773C695.442 32.9773 695.76 32.928 696.044 32.8295C696.332 32.7273 696.58 32.5758 696.788 32.375C696.997 32.1705 697.158 31.9167 697.271 31.6136L698.567 31.9773C698.43 32.4167 698.201 32.803 697.879 33.1364C697.557 33.4659 697.16 33.7235 696.686 33.9091C696.213 34.0909 695.68 34.1818 695.089 34.1818ZM704.402 34.1818C703.561 34.1818 702.836 33.9962 702.226 33.625C701.62 33.25 701.152 32.7273 700.822 32.0568C700.497 31.3826 700.334 30.5985 700.334 29.7045C700.334 28.8106 700.497 28.0227 700.822 27.3409C701.152 26.6553 701.61 26.1212 702.197 25.7386C702.788 25.3523 703.478 25.1591 704.266 25.1591C704.72 25.1591 705.169 25.2348 705.612 25.3864C706.055 25.5379 706.459 25.7841 706.822 26.125C707.186 26.4621 707.476 26.9091 707.692 27.4659C707.908 28.0227 708.016 28.7083 708.016 29.5227V30.0909H701.288V28.9318H706.652C706.652 28.4394 706.554 28 706.357 27.6136C706.163 27.2273 705.887 26.9223 705.527 26.6989C705.171 26.4754 704.75 26.3636 704.266 26.3636C703.732 26.3636 703.269 26.4962 702.879 26.7614C702.493 27.0227 702.196 27.3636 701.987 27.7841C701.779 28.2045 701.675 28.6553 701.675 29.1364V29.9091C701.675 30.5682 701.788 31.1269 702.016 31.5852C702.247 32.0398 702.567 32.3864 702.976 32.625C703.385 32.8598 703.86 32.9773 704.402 32.9773C704.754 32.9773 705.072 32.928 705.357 32.8295C705.644 32.7273 705.893 32.5758 706.101 32.375C706.309 32.1705 706.47 31.9167 706.584 31.6136L707.879 31.9773C707.743 32.4167 707.514 32.803 707.192 33.1364C706.87 33.4659 706.472 33.7235 705.999 33.9091C705.525 34.0909 704.993 34.1818 704.402 34.1818ZM714.555 34V25.2727H715.896V34H714.555ZM715.237 23.8182C714.976 23.8182 714.75 23.7292 714.561 23.5511C714.375 23.3731 714.283 23.1591 714.283 22.9091C714.283 22.6591 714.375 22.4451 714.561 22.267C714.75 22.089 714.976 22 715.237 22C715.499 22 715.722 22.089 715.908 22.267C716.097 22.4451 716.192 22.6591 716.192 22.9091C716.192 23.1591 716.097 23.3731 715.908 23.5511C715.722 23.7292 715.499 23.8182 715.237 23.8182ZM721.898 34.1818C721.08 34.1818 720.375 33.9886 719.784 33.6023C719.193 33.2159 718.739 32.6837 718.42 32.0057C718.102 31.3277 717.943 30.553 717.943 29.6818C717.943 28.7955 718.106 28.0133 718.432 27.3352C718.761 26.6534 719.22 26.1212 719.807 25.7386C720.398 25.3523 721.087 25.1591 721.875 25.1591C722.489 25.1591 723.042 25.2727 723.534 25.5C724.027 25.7273 724.43 26.0455 724.744 26.4545C725.059 26.8636 725.254 27.3409 725.33 27.8864H723.989C723.886 27.4886 723.659 27.1364 723.307 26.8295C722.958 26.5189 722.489 26.3636 721.898 26.3636C721.375 26.3636 720.917 26.5 720.523 26.7727C720.133 27.0417 719.828 27.4223 719.608 27.9148C719.392 28.4034 719.284 28.9773 719.284 29.6364C719.284 30.3106 719.39 30.8977 719.602 31.3977C719.818 31.8977 720.121 32.286 720.511 32.5625C720.905 32.839 721.367 32.9773 721.898 32.9773C722.246 32.9773 722.562 32.9167 722.847 32.7955C723.131 32.6742 723.371 32.5 723.568 32.2727C723.765 32.0455 723.905 31.7727 723.989 31.4545H725.33C725.254 31.9697 725.066 32.4337 724.767 32.8466C724.472 33.2557 724.08 33.5814 723.591 33.8239C723.106 34.0625 722.542 34.1818 721.898 34.1818ZM730.835 34.1818C730.047 34.1818 729.356 33.9943 728.761 33.6193C728.17 33.2443 727.708 32.7197 727.375 32.0455C727.045 31.3712 726.881 30.5833 726.881 29.6818C726.881 28.7727 727.045 27.9792 727.375 27.3011C727.708 26.6231 728.17 26.0966 728.761 25.7216C729.356 25.3466 730.047 25.1591 730.835 25.1591C731.623 25.1591 732.313 25.3466 732.903 25.7216C733.498 26.0966 733.96 26.6231 734.29 27.3011C734.623 27.9792 734.79 28.7727 734.79 29.6818C734.79 30.5833 734.623 31.3712 734.29 32.0455C733.96 32.7197 733.498 33.2443 732.903 33.6193C732.313 33.9943 731.623 34.1818 730.835 34.1818ZM730.835 32.9773C731.434 32.9773 731.926 32.8239 732.312 32.517C732.699 32.2102 732.985 31.8068 733.17 31.3068C733.356 30.8068 733.449 30.2652 733.449 29.6818C733.449 29.0985 733.356 28.5549 733.17 28.0511C732.985 27.5473 732.699 27.1402 732.312 26.8295C731.926 26.5189 731.434 26.3636 730.835 26.3636C730.237 26.3636 729.744 26.5189 729.358 26.8295C728.972 27.1402 728.686 27.5473 728.5 28.0511C728.314 28.5549 728.222 29.0985 728.222 29.6818C728.222 30.2652 728.314 30.8068 728.5 31.3068C728.686 31.8068 728.972 32.2102 729.358 32.517C729.744 32.8239 730.237 32.9773 730.835 32.9773ZM738.178 28.75V34H736.837V25.2727H738.132V26.6364H738.246C738.45 26.1932 738.761 25.8371 739.178 25.5682C739.594 25.2955 740.132 25.1591 740.791 25.1591C741.382 25.1591 741.899 25.2803 742.342 25.5227C742.786 25.7614 743.13 26.125 743.376 26.6136C743.623 27.0985 743.746 27.7121 743.746 28.4545V34H742.405V28.5455C742.405 27.8598 742.227 27.3258 741.871 26.9432C741.515 26.5568 741.026 26.3636 740.405 26.3636C739.977 26.3636 739.594 26.4564 739.257 26.642C738.924 26.8277 738.661 27.0985 738.467 27.4545C738.274 27.8106 738.178 28.2424 738.178 28.75ZM753.264 34.2045C752.711 34.2045 752.209 34.1004 751.759 33.892C751.308 33.6799 750.95 33.375 750.685 32.9773C750.42 32.5758 750.287 32.0909 750.287 31.5227C750.287 31.0227 750.385 30.6174 750.582 30.3068C750.779 29.9924 751.043 29.7462 751.372 29.5682C751.702 29.3902 752.065 29.2576 752.463 29.1705C752.865 29.0795 753.268 29.0076 753.673 28.9545C754.204 28.8864 754.634 28.8352 754.963 28.8011C755.296 28.7633 755.539 28.7008 755.69 28.6136C755.846 28.5265 755.923 28.375 755.923 28.1591V28.1136C755.923 27.553 755.77 27.1174 755.463 26.8068C755.16 26.4962 754.7 26.3409 754.082 26.3409C753.442 26.3409 752.94 26.4811 752.577 26.7614C752.213 27.0417 751.957 27.3409 751.81 27.6591L750.537 27.2045C750.764 26.6742 751.067 26.2614 751.446 25.9659C751.829 25.6667 752.245 25.4583 752.696 25.3409C753.151 25.2197 753.598 25.1591 754.037 25.1591C754.317 25.1591 754.639 25.1932 755.003 25.2614C755.37 25.3258 755.724 25.4602 756.065 25.6648C756.41 25.8693 756.696 26.178 756.923 26.5909C757.151 27.0038 757.264 27.5568 757.264 28.25V34H755.923V32.8182H755.855C755.764 33.0076 755.613 33.2102 755.401 33.4261C755.188 33.642 754.906 33.8258 754.554 33.9773C754.202 34.1288 753.772 34.2045 753.264 34.2045ZM753.469 33C753.999 33 754.446 32.8958 754.81 32.6875C755.177 32.4792 755.454 32.2102 755.639 31.8807C755.829 31.5511 755.923 31.2045 755.923 30.8409V29.6136C755.866 29.6818 755.741 29.7443 755.548 29.8011C755.359 29.8542 755.139 29.9015 754.889 29.9432C754.643 29.9811 754.402 30.0152 754.168 30.0455C753.937 30.072 753.749 30.0947 753.605 30.1136C753.257 30.1591 752.931 30.233 752.628 30.3352C752.329 30.4337 752.086 30.5833 751.901 30.7841C751.719 30.9811 751.628 31.25 751.628 31.5909C751.628 32.0568 751.8 32.4091 752.145 32.6477C752.493 32.8826 752.935 33 753.469 33ZM761.053 28.75V34H759.712V25.2727H761.007V26.6364H761.121C761.325 26.1932 761.636 25.8371 762.053 25.5682C762.469 25.2955 763.007 25.1591 763.666 25.1591C764.257 25.1591 764.774 25.2803 765.217 25.5227C765.661 25.7614 766.005 26.125 766.251 26.6136C766.498 27.0985 766.621 27.7121 766.621 28.4545V34H765.28V28.5455C765.28 27.8598 765.102 27.3258 764.746 26.9432C764.39 26.5568 763.901 26.3636 763.28 26.3636C762.852 26.3636 762.469 26.4564 762.132 26.642C761.799 26.8277 761.536 27.0985 761.342 27.4545C761.149 27.8106 761.053 28.2424 761.053 28.75ZM772.366 34.1818C771.639 34.1818 770.997 33.9981 770.44 33.6307C769.884 33.2595 769.448 32.7367 769.134 32.0625C768.819 31.3845 768.662 30.5833 768.662 29.6591C768.662 28.7424 768.819 27.947 769.134 27.2727C769.448 26.5985 769.885 26.0777 770.446 25.7102C771.007 25.3428 771.654 25.1591 772.389 25.1591C772.957 25.1591 773.406 25.2538 773.736 25.4432C774.069 25.6288 774.323 25.8409 774.497 26.0795C774.675 26.3144 774.813 26.5076 774.912 26.6591H775.026V22.3636H776.366V34H775.071V32.6591H774.912C774.813 32.8182 774.673 33.0189 774.491 33.2614C774.31 33.5 774.05 33.714 773.713 33.9034C773.376 34.089 772.927 34.1818 772.366 34.1818ZM772.548 32.9773C773.086 32.9773 773.541 32.8371 773.912 32.5568C774.283 32.2727 774.565 31.8807 774.759 31.3807C774.952 30.8769 775.048 30.2955 775.048 29.6364C775.048 28.9848 774.954 28.4148 774.764 27.9261C774.575 27.4337 774.295 27.0511 773.923 26.7784C773.552 26.5019 773.094 26.3636 772.548 26.3636C771.98 26.3636 771.507 26.5095 771.128 26.8011C770.753 27.089 770.471 27.4811 770.281 27.9773C770.096 28.4697 770.003 29.0227 770.003 29.6364C770.003 30.2576 770.098 30.822 770.287 31.3295C770.48 31.8333 770.764 32.2348 771.139 32.5341C771.518 32.8295 771.988 32.9773 772.548 32.9773ZM786.077 34.2045C785.524 34.2045 785.022 34.1004 784.571 33.892C784.12 33.6799 783.762 33.375 783.497 32.9773C783.232 32.5758 783.099 32.0909 783.099 31.5227C783.099 31.0227 783.198 30.6174 783.395 30.3068C783.592 29.9924 783.855 29.7462 784.185 29.5682C784.514 29.3902 784.878 29.2576 785.276 29.1705C785.677 29.0795 786.08 29.0076 786.486 28.9545C787.016 28.8864 787.446 28.8352 787.776 28.8011C788.109 28.7633 788.351 28.7008 788.503 28.6136C788.658 28.5265 788.736 28.375 788.736 28.1591V28.1136C788.736 27.553 788.582 27.1174 788.276 26.8068C787.973 26.4962 787.512 26.3409 786.895 26.3409C786.255 26.3409 785.753 26.4811 785.389 26.7614C785.026 27.0417 784.77 27.3409 784.622 27.6591L783.349 27.2045C783.577 26.6742 783.88 26.2614 784.259 25.9659C784.641 25.6667 785.058 25.4583 785.509 25.3409C785.963 25.2197 786.41 25.1591 786.849 25.1591C787.13 25.1591 787.452 25.1932 787.815 25.2614C788.183 25.3258 788.537 25.4602 788.878 25.6648C789.223 25.8693 789.509 26.178 789.736 26.5909C789.963 27.0038 790.077 27.5568 790.077 28.25V34H788.736V32.8182H788.668C788.577 33.0076 788.425 33.2102 788.213 33.4261C788.001 33.642 787.719 33.8258 787.366 33.9773C787.014 34.1288 786.584 34.2045 786.077 34.2045ZM786.281 33C786.812 33 787.259 32.8958 787.622 32.6875C787.99 32.4792 788.266 32.2102 788.452 31.8807C788.641 31.5511 788.736 31.2045 788.736 30.8409V29.6136C788.679 29.6818 788.554 29.7443 788.361 29.8011C788.171 29.8542 787.952 29.9015 787.702 29.9432C787.455 29.9811 787.215 30.0152 786.98 30.0455C786.749 30.072 786.562 30.0947 786.418 30.1136C786.069 30.1591 785.743 30.233 785.44 30.3352C785.141 30.4337 784.899 30.5833 784.713 30.7841C784.531 30.9811 784.44 31.25 784.44 31.5909C784.44 32.0568 784.613 32.4091 784.957 32.6477C785.306 32.8826 785.747 33 786.281 33ZM799.348 25.2727L796.121 34H794.757L791.53 25.2727H792.984L795.393 32.2273H795.484L797.893 25.2727H799.348ZM803.42 34.2045C802.867 34.2045 802.366 34.1004 801.915 33.892C801.464 33.6799 801.106 33.375 800.841 32.9773C800.576 32.5758 800.443 32.0909 800.443 31.5227C800.443 31.0227 800.542 30.6174 800.739 30.3068C800.936 29.9924 801.199 29.7462 801.528 29.5682C801.858 29.3902 802.222 29.2576 802.619 29.1705C803.021 29.0795 803.424 29.0076 803.83 28.9545C804.36 28.8864 804.79 28.8352 805.119 28.8011C805.453 28.7633 805.695 28.7008 805.847 28.6136C806.002 28.5265 806.08 28.375 806.08 28.1591V28.1136C806.08 27.553 805.926 27.1174 805.619 26.8068C805.316 26.4962 804.856 26.3409 804.239 26.3409C803.598 26.3409 803.097 26.4811 802.733 26.7614C802.369 27.0417 802.114 27.3409 801.966 27.6591L800.693 27.2045C800.92 26.6742 801.223 26.2614 801.602 25.9659C801.985 25.6667 802.402 25.4583 802.852 25.3409C803.307 25.2197 803.754 25.1591 804.193 25.1591C804.473 25.1591 804.795 25.1932 805.159 25.2614C805.527 25.3258 805.881 25.4602 806.222 25.6648C806.566 25.8693 806.852 26.178 807.08 26.5909C807.307 27.0038 807.42 27.5568 807.42 28.25V34H806.08V32.8182H806.011C805.92 33.0076 805.769 33.2102 805.557 33.4261C805.345 33.642 805.063 33.8258 804.71 33.9773C804.358 34.1288 803.928 34.2045 803.42 34.2045ZM803.625 33C804.155 33 804.602 32.8958 804.966 32.6875C805.333 32.4792 805.61 32.2102 805.795 31.8807C805.985 31.5511 806.08 31.2045 806.08 30.8409V29.6136C806.023 29.6818 805.898 29.7443 805.705 29.8011C805.515 29.8542 805.295 29.9015 805.045 29.9432C804.799 29.9811 804.559 30.0152 804.324 30.0455C804.093 30.072 803.905 30.0947 803.761 30.1136C803.413 30.1591 803.087 30.233 802.784 30.3352C802.485 30.4337 802.242 30.5833 802.057 30.7841C801.875 30.9811 801.784 31.25 801.784 31.5909C801.784 32.0568 801.956 32.4091 802.301 32.6477C802.65 32.8826 803.091 33 803.625 33ZM813.663 25.2727V26.4091H809.141V25.2727H813.663ZM810.459 23.1818H811.8V31.5C811.8 31.8788 811.855 32.1629 811.964 32.3523C812.078 32.5379 812.222 32.6629 812.396 32.7273C812.574 32.7879 812.762 32.8182 812.959 32.8182C813.107 32.8182 813.228 32.8106 813.322 32.7955C813.417 32.7765 813.493 32.7614 813.55 32.75L813.822 33.9545C813.732 33.9886 813.605 34.0227 813.442 34.0568C813.279 34.0947 813.072 34.1136 812.822 34.1136C812.444 34.1136 812.072 34.0322 811.709 33.8693C811.349 33.7064 811.05 33.4583 810.811 33.125C810.576 32.7917 810.459 32.3712 810.459 31.8636V23.1818ZM818.249 34.2045C817.696 34.2045 817.194 34.1004 816.743 33.892C816.292 33.6799 815.934 33.375 815.669 32.9773C815.404 32.5758 815.271 32.0909 815.271 31.5227C815.271 31.0227 815.37 30.6174 815.567 30.3068C815.764 29.9924 816.027 29.7462 816.357 29.5682C816.686 29.3902 817.05 29.2576 817.447 29.1705C817.849 29.0795 818.252 29.0076 818.658 28.9545C819.188 28.8864 819.618 28.8352 819.947 28.8011C820.281 28.7633 820.523 28.7008 820.675 28.6136C820.83 28.5265 820.908 28.375 820.908 28.1591V28.1136C820.908 27.553 820.754 27.1174 820.447 26.8068C820.144 26.4962 819.684 26.3409 819.067 26.3409C818.427 26.3409 817.925 26.4811 817.561 26.7614C817.197 27.0417 816.942 27.3409 816.794 27.6591L815.521 27.2045C815.749 26.6742 816.052 26.2614 816.43 25.9659C816.813 25.6667 817.23 25.4583 817.68 25.3409C818.135 25.2197 818.582 25.1591 819.021 25.1591C819.302 25.1591 819.624 25.1932 819.987 25.2614C820.355 25.3258 820.709 25.4602 821.05 25.6648C821.394 25.8693 821.68 26.178 821.908 26.5909C822.135 27.0038 822.249 27.5568 822.249 28.25V34H820.908V32.8182H820.839C820.749 33.0076 820.597 33.2102 820.385 33.4261C820.173 33.642 819.891 33.8258 819.538 33.9773C819.186 34.1288 818.756 34.2045 818.249 34.2045ZM818.453 33C818.983 33 819.43 32.8958 819.794 32.6875C820.161 32.4792 820.438 32.2102 820.624 31.8807C820.813 31.5511 820.908 31.2045 820.908 30.8409V29.6136C820.851 29.6818 820.726 29.7443 820.533 29.8011C820.343 29.8542 820.124 29.9015 819.874 29.9432C819.627 29.9811 819.387 30.0152 819.152 30.0455C818.921 30.072 818.733 30.0947 818.589 30.1136C818.241 30.1591 817.915 30.233 817.612 30.3352C817.313 30.4337 817.071 30.5833 816.885 30.7841C816.703 30.9811 816.612 31.25 816.612 31.5909C816.612 32.0568 816.785 32.4091 817.129 32.6477C817.478 32.8826 817.919 33 818.453 33ZM824.696 34V25.2727H825.991V26.5909H826.082C826.241 26.1591 826.529 25.8087 826.946 25.5398C827.363 25.2708 827.832 25.1364 828.355 25.1364C828.454 25.1364 828.577 25.1383 828.724 25.142C828.872 25.1458 828.984 25.1515 829.06 25.1591V26.5227C829.014 26.5114 828.91 26.4943 828.747 26.4716C828.588 26.4451 828.42 26.4318 828.241 26.4318C827.817 26.4318 827.438 26.5208 827.105 26.6989C826.776 26.8731 826.514 27.1155 826.321 27.4261C826.132 27.733 826.037 28.0833 826.037 28.4773V34H824.696ZM841.331 27.2273L840.126 27.5682C840.051 27.3674 839.939 27.1723 839.791 26.983C839.647 26.7898 839.45 26.6307 839.2 26.5057C838.95 26.3807 838.63 26.3182 838.24 26.3182C837.706 26.3182 837.261 26.4413 836.905 26.6875C836.553 26.9299 836.376 27.2386 836.376 27.6136C836.376 27.947 836.498 28.2102 836.74 28.4034C836.982 28.5966 837.361 28.7576 837.876 28.8864L839.172 29.2045C839.952 29.3939 840.534 29.6837 840.916 30.0739C841.299 30.4602 841.49 30.9583 841.49 31.5682C841.49 32.0682 841.346 32.5152 841.058 32.9091C840.774 33.303 840.376 33.6136 839.865 33.8409C839.354 34.0682 838.759 34.1818 838.081 34.1818C837.191 34.1818 836.454 33.9886 835.871 33.6023C835.287 33.2159 834.918 32.6515 834.763 31.9091L836.036 31.5909C836.157 32.0606 836.386 32.4129 836.723 32.6477C837.064 32.8826 837.509 33 838.058 33C838.683 33 839.179 32.8674 839.547 32.6023C839.918 32.3333 840.104 32.0114 840.104 31.6364C840.104 31.3333 839.998 31.0795 839.786 30.875C839.573 30.6667 839.248 30.5114 838.808 30.4091L837.354 30.0682C836.554 29.8788 835.967 29.5852 835.592 29.1875C835.221 28.786 835.036 28.2841 835.036 27.6818C835.036 27.1894 835.174 26.7538 835.45 26.375C835.731 25.9962 836.111 25.6989 836.592 25.483C837.077 25.267 837.626 25.1591 838.24 25.1591C839.104 25.1591 839.782 25.3485 840.274 25.7273C840.77 26.1061 841.123 26.6061 841.331 27.2273ZM843.509 37.2727V25.2727H844.804V26.6591H844.963C845.062 26.5076 845.198 26.3144 845.372 26.0795C845.55 25.8409 845.804 25.6288 846.134 25.4432C846.467 25.2538 846.918 25.1591 847.486 25.1591C848.221 25.1591 848.868 25.3428 849.429 25.7102C849.99 26.0777 850.427 26.5985 850.741 27.2727C851.056 27.947 851.213 28.7424 851.213 29.6591C851.213 30.5833 851.056 31.3845 850.741 32.0625C850.427 32.7367 849.991 33.2595 849.435 33.6307C848.878 33.9981 848.236 34.1818 847.509 34.1818C846.948 34.1818 846.499 34.089 846.162 33.9034C845.825 33.714 845.565 33.5 845.384 33.2614C845.202 33.0189 845.062 32.8182 844.963 32.6591H844.849V37.2727H843.509ZM844.827 29.6364C844.827 30.2955 844.923 30.8769 845.116 31.3807C845.31 31.8807 845.592 32.2727 845.963 32.5568C846.334 32.8371 846.789 32.9773 847.327 32.9773C847.887 32.9773 848.355 32.8295 848.73 32.5341C849.109 32.2348 849.393 31.8333 849.582 31.3295C849.776 30.822 849.872 30.2576 849.872 29.6364C849.872 29.0227 849.777 28.4697 849.588 27.9773C849.402 27.4811 849.12 27.089 848.741 26.8011C848.366 26.5095 847.895 26.3636 847.327 26.3636C846.781 26.3636 846.323 26.5019 845.952 26.7784C845.58 27.0511 845.3 27.4337 845.111 27.9261C844.921 28.4148 844.827 28.9848 844.827 29.6364ZM856.918 34.1818C856.077 34.1818 855.351 33.9962 854.741 33.625C854.135 33.25 853.668 32.7273 853.338 32.0568C853.012 31.3826 852.849 30.5985 852.849 29.7045C852.849 28.8106 853.012 28.0227 853.338 27.3409C853.668 26.6553 854.126 26.1212 854.713 25.7386C855.304 25.3523 855.993 25.1591 856.781 25.1591C857.236 25.1591 857.685 25.2348 858.128 25.3864C858.571 25.5379 858.974 25.7841 859.338 26.125C859.702 26.4621 859.991 26.9091 860.207 27.4659C860.423 28.0227 860.531 28.7083 860.531 29.5227V30.0909H853.804V28.9318H859.168C859.168 28.4394 859.069 28 858.872 27.6136C858.679 27.2273 858.402 26.9223 858.043 26.6989C857.687 26.4754 857.266 26.3636 856.781 26.3636C856.247 26.3636 855.785 26.4962 855.395 26.7614C855.009 27.0227 854.711 27.3636 854.503 27.7841C854.295 28.2045 854.19 28.6553 854.19 29.1364V29.9091C854.19 30.5682 854.304 31.1269 854.531 31.5852C854.762 32.0398 855.082 32.3864 855.491 32.625C855.901 32.8598 856.376 32.9773 856.918 32.9773C857.27 32.9773 857.588 32.928 857.872 32.8295C858.16 32.7273 858.408 32.5758 858.616 32.375C858.825 32.1705 858.986 31.9167 859.099 31.6136L860.395 31.9773C860.259 32.4167 860.029 32.803 859.707 33.1364C859.385 33.4659 858.988 33.7235 858.514 33.9091C858.041 34.0909 857.509 34.1818 856.918 34.1818ZM866.116 34.1818C865.298 34.1818 864.594 33.9886 864.003 33.6023C863.412 33.2159 862.957 32.6837 862.639 32.0057C862.321 31.3277 862.162 30.553 862.162 29.6818C862.162 28.7955 862.325 28.0133 862.651 27.3352C862.98 26.6534 863.438 26.1212 864.026 25.7386C864.616 25.3523 865.306 25.1591 866.094 25.1591C866.707 25.1591 867.26 25.2727 867.753 25.5C868.245 25.7273 868.649 26.0455 868.963 26.4545C869.277 26.8636 869.473 27.3409 869.548 27.8864H868.207C868.105 27.4886 867.878 27.1364 867.526 26.8295C867.177 26.5189 866.707 26.3636 866.116 26.3636C865.594 26.3636 865.135 26.5 864.741 26.7727C864.351 27.0417 864.046 27.4223 863.827 27.9148C863.611 28.4034 863.503 28.9773 863.503 29.6364C863.503 30.3106 863.609 30.8977 863.821 31.3977C864.037 31.8977 864.34 32.286 864.73 32.5625C865.124 32.839 865.586 32.9773 866.116 32.9773C866.465 32.9773 866.781 32.9167 867.065 32.7955C867.349 32.6742 867.59 32.5 867.787 32.2727C867.984 32.0455 868.124 31.7727 868.207 31.4545H869.548C869.473 31.9697 869.285 32.4337 868.986 32.8466C868.69 33.2557 868.298 33.5814 867.81 33.8239C867.325 34.0625 866.76 34.1818 866.116 34.1818Z" fill="white" fill-opacity="0.95"/>
</svg>
