<svg width="634" height="360" viewBox="0 0 634 360" fill="none" xmlns="http://www.w3.org/2000/svg">
<path d="M0 24C0 10.7452 10.7452 0 24 0H610C623.255 0 634 10.7452 634 24V336C634 349.255 623.255 360 610 360H24C10.7452 360 0 349.255 0 336V24Z" fill="#262626"/>
<path d="M589.2 48.1999C589.069 48.2002 588.938 48.1743 588.816 48.1237C588.695 48.0731 588.584 47.9987 588.491 47.905L581.291 40.6697C581.199 40.5766 581.125 40.4661 581.075 40.3447C581.026 40.2232 581 40.0931 581 39.9618C581.001 39.8305 581.027 39.7006 581.078 39.5794C581.128 39.4582 581.202 39.3482 581.295 39.2556C581.388 39.163 581.499 39.0897 581.62 39.0397C581.742 38.9898 581.872 38.9643 582.003 38.9647C582.134 38.9651 582.264 38.9913 582.385 39.0419C582.507 39.0924 582.617 39.1664 582.709 39.2595L589.254 45.8367L605.35 32.0417C605.551 31.8692 605.813 31.7838 606.077 31.8041C606.341 31.8244 606.587 31.9489 606.759 32.1501C606.932 32.3514 607.017 32.6129 606.997 32.8772C606.976 33.1415 606.852 33.3868 606.651 33.5593L589.851 47.9587C589.67 48.1145 589.439 48.2001 589.2 48.1999Z" fill="#27A17A"/>
<g filter="url(#filter0_d_2125_7145)">
<rect x="147" y="84.5" width="340" height="168" rx="8" fill="black"/>
<rect x="147.5" y="85" width="339" height="167" rx="7.5" stroke="white" stroke-opacity="0.3"/>
<path d="M175 102C172.923 102 170.893 102.616 169.166 103.769C167.44 104.923 166.094 106.563 165.299 108.482C164.504 110.4 164.296 112.511 164.702 114.548C165.107 116.585 166.107 118.456 167.575 119.924C169.044 121.393 170.915 122.393 172.951 122.798C174.988 123.203 177.099 122.995 179.018 122.2C180.937 121.406 182.577 120.06 183.73 118.333C184.884 116.607 185.5 114.576 185.5 112.5C185.497 109.716 184.389 107.047 182.421 105.079C180.453 103.11 177.784 102.003 175 102ZM175 121.5C173.22 121.5 171.48 120.972 170 119.983C168.52 118.994 167.366 117.588 166.685 115.944C166.004 114.299 165.826 112.49 166.173 110.744C166.52 108.998 167.377 107.394 168.636 106.136C169.895 104.877 171.498 104.02 173.244 103.673C174.99 103.325 176.799 103.504 178.444 104.185C180.089 104.866 181.494 106.02 182.483 107.5C183.472 108.98 184 110.72 184 112.5C183.997 114.886 183.048 117.174 181.361 118.861C179.674 120.548 177.386 121.497 175 121.5Z" fill="#3CC29A"/>
<path d="M178.262 109.681L173.54 113.727L171.782 111.96C171.712 111.89 171.63 111.835 171.539 111.797C171.448 111.759 171.35 111.739 171.252 111.739C171.153 111.739 171.056 111.758 170.965 111.795C170.874 111.833 170.791 111.888 170.721 111.957C170.651 112.026 170.596 112.109 170.558 112.2C170.52 112.291 170.5 112.388 170.5 112.487C170.5 112.585 170.519 112.683 170.556 112.774C170.594 112.865 170.649 112.948 170.718 113.018L172.968 115.279C173.102 115.413 173.281 115.492 173.47 115.499C173.659 115.507 173.844 115.442 173.988 115.319L179.238 110.819C179.312 110.755 179.374 110.677 179.418 110.589C179.463 110.501 179.49 110.405 179.497 110.307C179.505 110.209 179.493 110.11 179.462 110.017C179.432 109.923 179.383 109.837 179.319 109.762C179.255 109.687 179.177 109.626 179.089 109.581C179.001 109.537 178.905 109.51 178.807 109.502C178.709 109.495 178.611 109.507 178.517 109.537C178.423 109.568 178.337 109.617 178.262 109.681Z" fill="#3CC29A"/>
<path d="M209.943 110.648H208.17C208.102 110.269 207.975 109.936 207.79 109.648C207.604 109.36 207.377 109.116 207.108 108.915C206.839 108.714 206.538 108.562 206.205 108.46C205.875 108.358 205.525 108.307 205.153 108.307C204.483 108.307 203.883 108.475 203.352 108.812C202.826 109.15 202.409 109.644 202.102 110.295C201.799 110.947 201.648 111.742 201.648 112.682C201.648 113.629 201.799 114.428 202.102 115.08C202.409 115.731 202.828 116.223 203.358 116.557C203.888 116.89 204.485 117.057 205.148 117.057C205.515 117.057 205.864 117.008 206.193 116.909C206.527 116.807 206.828 116.657 207.097 116.46C207.366 116.263 207.593 116.023 207.778 115.739C207.968 115.451 208.098 115.121 208.17 114.75L209.943 114.756C209.848 115.328 209.665 115.854 209.392 116.335C209.123 116.812 208.777 117.225 208.352 117.574C207.932 117.919 207.451 118.186 206.909 118.375C206.367 118.564 205.777 118.659 205.136 118.659C204.129 118.659 203.231 118.42 202.443 117.943C201.655 117.462 201.034 116.775 200.58 115.881C200.129 114.987 199.903 113.92 199.903 112.682C199.903 111.439 200.131 110.373 200.585 109.483C201.04 108.589 201.661 107.903 202.449 107.426C203.237 106.945 204.133 106.705 205.136 106.705C205.754 106.705 206.33 106.794 206.864 106.972C207.402 107.146 207.884 107.403 208.312 107.744C208.741 108.081 209.095 108.494 209.375 108.983C209.655 109.468 209.845 110.023 209.943 110.648ZM215.584 118.676C214.766 118.676 214.052 118.489 213.442 118.114C212.832 117.739 212.358 117.214 212.021 116.54C211.684 115.866 211.516 115.078 211.516 114.176C211.516 113.271 211.684 112.479 212.021 111.801C212.358 111.123 212.832 110.597 213.442 110.222C214.052 109.847 214.766 109.659 215.584 109.659C216.402 109.659 217.116 109.847 217.726 110.222C218.336 110.597 218.809 111.123 219.146 111.801C219.483 112.479 219.652 113.271 219.652 114.176C219.652 115.078 219.483 115.866 219.146 116.54C218.809 117.214 218.336 117.739 217.726 118.114C217.116 118.489 216.402 118.676 215.584 118.676ZM215.589 117.25C216.12 117.25 216.559 117.11 216.908 116.83C217.256 116.549 217.514 116.176 217.68 115.71C217.851 115.244 217.936 114.731 217.936 114.17C217.936 113.614 217.851 113.102 217.68 112.636C217.514 112.167 217.256 111.79 216.908 111.506C216.559 111.222 216.12 111.08 215.589 111.08C215.055 111.08 214.612 111.222 214.26 111.506C213.911 111.79 213.652 112.167 213.482 112.636C213.315 113.102 213.232 113.614 213.232 114.17C213.232 114.731 213.315 115.244 213.482 115.71C213.652 116.176 213.911 116.549 214.26 116.83C214.612 117.11 215.055 117.25 215.589 117.25ZM223.247 113.318V118.5H221.548V109.773H223.179V111.193H223.287C223.488 110.731 223.802 110.36 224.23 110.08C224.662 109.799 225.205 109.659 225.861 109.659C226.455 109.659 226.976 109.784 227.423 110.034C227.87 110.28 228.217 110.648 228.463 111.136C228.709 111.625 228.832 112.229 228.832 112.949V118.5H227.134V113.153C227.134 112.521 226.969 112.027 226.639 111.67C226.31 111.311 225.857 111.131 225.281 111.131C224.887 111.131 224.537 111.216 224.23 111.386C223.927 111.557 223.687 111.807 223.509 112.136C223.334 112.462 223.247 112.856 223.247 113.318ZM234.77 121.938C234.077 121.938 233.48 121.847 232.98 121.665C232.484 121.483 232.079 121.242 231.764 120.943C231.45 120.648 231.215 120.326 231.06 119.977L232.52 119.375C232.622 119.534 232.759 119.706 232.929 119.892C233.103 120.078 233.338 120.237 233.634 120.369C233.933 120.502 234.317 120.568 234.787 120.568C235.431 120.568 235.963 120.413 236.384 120.102C236.804 119.792 237.014 119.299 237.014 118.625V116.909H236.906C236.804 117.095 236.656 117.301 236.463 117.528C236.274 117.756 236.012 117.953 235.679 118.119C235.346 118.286 234.912 118.369 234.378 118.369C233.688 118.369 233.067 118.208 232.514 117.886C231.965 117.561 231.529 117.081 231.207 116.449C230.889 115.812 230.73 115.03 230.73 114.102C230.73 113.174 230.887 112.379 231.202 111.716C231.52 111.053 231.955 110.545 232.509 110.193C233.062 109.837 233.688 109.659 234.389 109.659C234.931 109.659 235.368 109.75 235.702 109.932C236.035 110.11 236.295 110.318 236.48 110.557C236.67 110.795 236.815 111.006 236.918 111.188H237.043V109.773H238.707V118.693C238.707 119.436 238.533 120.045 238.185 120.523C237.836 121.004 237.365 121.36 236.77 121.591C236.179 121.822 235.512 121.938 234.77 121.938ZM234.753 116.96C235.241 116.96 235.654 116.847 235.991 116.619C236.332 116.388 236.59 116.059 236.764 115.631C236.942 115.199 237.031 114.682 237.031 114.08C237.031 113.492 236.944 112.975 236.77 112.528C236.596 112.081 236.34 111.733 236.003 111.483C235.666 111.229 235.249 111.102 234.753 111.102C234.241 111.102 233.815 111.235 233.474 111.5C233.134 111.761 232.876 112.117 232.702 112.568C232.531 113.019 232.446 113.523 232.446 114.08C232.446 114.652 232.533 115.153 232.707 115.585C232.882 116.017 233.139 116.354 233.48 116.597C233.825 116.839 234.249 116.96 234.753 116.96ZM240.986 118.5V109.773H242.628V111.159H242.719C242.878 110.689 243.158 110.32 243.56 110.051C243.965 109.778 244.423 109.642 244.935 109.642C245.041 109.642 245.166 109.646 245.31 109.653C245.457 109.661 245.573 109.67 245.656 109.682V111.307C245.588 111.288 245.467 111.267 245.293 111.244C245.118 111.218 244.944 111.205 244.77 111.205C244.368 111.205 244.01 111.29 243.696 111.46C243.385 111.627 243.139 111.86 242.957 112.159C242.776 112.455 242.685 112.792 242.685 113.17V118.5H240.986ZM249.588 118.693C249.035 118.693 248.535 118.591 248.088 118.386C247.641 118.178 247.287 117.877 247.026 117.483C246.768 117.089 246.639 116.606 246.639 116.034C246.639 115.542 246.734 115.136 246.923 114.818C247.113 114.5 247.368 114.248 247.69 114.062C248.012 113.877 248.372 113.737 248.77 113.642C249.168 113.547 249.573 113.475 249.986 113.426C250.509 113.366 250.933 113.316 251.259 113.278C251.584 113.237 251.821 113.17 251.969 113.08C252.116 112.989 252.19 112.841 252.19 112.636V112.597C252.19 112.1 252.05 111.716 251.77 111.443C251.493 111.17 251.08 111.034 250.531 111.034C249.959 111.034 249.509 111.161 249.179 111.415C248.853 111.665 248.628 111.943 248.503 112.25L246.906 111.886C247.096 111.356 247.372 110.928 247.736 110.602C248.103 110.273 248.526 110.034 249.003 109.886C249.48 109.735 249.982 109.659 250.509 109.659C250.857 109.659 251.226 109.701 251.616 109.784C252.01 109.864 252.378 110.011 252.719 110.227C253.063 110.443 253.346 110.752 253.565 111.153C253.785 111.551 253.895 112.068 253.895 112.705V118.5H252.236V117.307H252.168C252.058 117.527 251.893 117.742 251.673 117.955C251.454 118.167 251.171 118.343 250.827 118.483C250.482 118.623 250.069 118.693 249.588 118.693ZM249.957 117.33C250.427 117.33 250.829 117.237 251.162 117.051C251.499 116.866 251.755 116.623 251.929 116.324C252.107 116.021 252.196 115.697 252.196 115.352V114.227C252.135 114.288 252.018 114.345 251.844 114.398C251.673 114.447 251.478 114.491 251.259 114.528C251.039 114.562 250.825 114.595 250.616 114.625C250.408 114.652 250.234 114.674 250.094 114.693C249.764 114.735 249.463 114.805 249.19 114.903C248.921 115.002 248.705 115.144 248.543 115.33C248.384 115.511 248.304 115.754 248.304 116.057C248.304 116.477 248.459 116.795 248.77 117.011C249.08 117.223 249.476 117.33 249.957 117.33ZM260.232 109.773V111.136H255.464V109.773H260.232ZM256.743 107.682H258.442V115.938C258.442 116.267 258.491 116.515 258.589 116.682C258.688 116.845 258.815 116.956 258.97 117.017C259.129 117.074 259.302 117.102 259.487 117.102C259.624 117.102 259.743 117.093 259.845 117.074C259.947 117.055 260.027 117.04 260.084 117.028L260.391 118.432C260.292 118.47 260.152 118.508 259.97 118.545C259.788 118.587 259.561 118.61 259.288 118.614C258.841 118.621 258.425 118.542 258.038 118.375C257.652 118.208 257.339 117.951 257.101 117.602C256.862 117.254 256.743 116.816 256.743 116.29V107.682ZM267.639 114.881V109.773H269.344V118.5H267.673V116.989H267.582C267.382 117.455 267.06 117.843 266.616 118.153C266.177 118.46 265.63 118.614 264.974 118.614C264.414 118.614 263.918 118.491 263.486 118.244C263.058 117.994 262.721 117.625 262.474 117.136C262.232 116.648 262.111 116.044 262.111 115.324V109.773H263.81V115.119C263.81 115.714 263.974 116.187 264.304 116.54C264.634 116.892 265.062 117.068 265.588 117.068C265.906 117.068 266.223 116.989 266.537 116.83C266.855 116.67 267.118 116.43 267.327 116.108C267.539 115.786 267.643 115.377 267.639 114.881ZM273.325 106.864V118.5H271.626V106.864H273.325ZM278.151 118.693C277.598 118.693 277.098 118.591 276.651 118.386C276.204 118.178 275.849 117.877 275.588 117.483C275.33 117.089 275.202 116.606 275.202 116.034C275.202 115.542 275.296 115.136 275.486 114.818C275.675 114.5 275.931 114.248 276.253 114.062C276.575 113.877 276.935 113.737 277.332 113.642C277.73 113.547 278.135 113.475 278.548 113.426C279.071 113.366 279.495 113.316 279.821 113.278C280.147 113.237 280.384 113.17 280.531 113.08C280.679 112.989 280.753 112.841 280.753 112.636V112.597C280.753 112.1 280.613 111.716 280.332 111.443C280.056 111.17 279.643 111.034 279.094 111.034C278.522 111.034 278.071 111.161 277.741 111.415C277.416 111.665 277.19 111.943 277.065 112.25L275.469 111.886C275.658 111.356 275.935 110.928 276.298 110.602C276.666 110.273 277.088 110.034 277.565 109.886C278.043 109.735 278.545 109.659 279.071 109.659C279.42 109.659 279.789 109.701 280.179 109.784C280.573 109.864 280.94 110.011 281.281 110.227C281.626 110.443 281.908 110.752 282.128 111.153C282.348 111.551 282.457 112.068 282.457 112.705V118.5H280.798V117.307H280.73C280.62 117.527 280.455 117.742 280.236 117.955C280.016 118.167 279.734 118.343 279.389 118.483C279.045 118.623 278.632 118.693 278.151 118.693ZM278.52 117.33C278.99 117.33 279.391 117.237 279.724 117.051C280.062 116.866 280.317 116.623 280.491 116.324C280.67 116.021 280.759 115.697 280.759 115.352V114.227C280.698 114.288 280.58 114.345 280.406 114.398C280.236 114.447 280.041 114.491 279.821 114.528C279.601 114.562 279.387 114.595 279.179 114.625C278.971 114.652 278.796 114.674 278.656 114.693C278.327 114.735 278.026 114.805 277.753 114.903C277.484 115.002 277.268 115.144 277.105 115.33C276.946 115.511 276.866 115.754 276.866 116.057C276.866 116.477 277.022 116.795 277.332 117.011C277.643 117.223 278.039 117.33 278.52 117.33ZM288.794 109.773V111.136H284.027V109.773H288.794ZM285.305 107.682H287.004V115.938C287.004 116.267 287.054 116.515 287.152 116.682C287.25 116.845 287.377 116.956 287.533 117.017C287.692 117.074 287.864 117.102 288.05 117.102C288.186 117.102 288.305 117.093 288.408 117.074C288.51 117.055 288.589 117.04 288.646 117.028L288.953 118.432C288.855 118.47 288.714 118.508 288.533 118.545C288.351 118.587 288.124 118.61 287.851 118.614C287.404 118.621 286.987 118.542 286.601 118.375C286.214 118.208 285.902 117.951 285.663 117.602C285.425 117.254 285.305 116.816 285.305 116.29V107.682ZM290.673 118.5V109.773H292.372V118.5H290.673ZM291.531 108.426C291.236 108.426 290.982 108.328 290.77 108.131C290.562 107.93 290.457 107.691 290.457 107.415C290.457 107.134 290.562 106.896 290.77 106.699C290.982 106.498 291.236 106.398 291.531 106.398C291.827 106.398 292.079 106.498 292.287 106.699C292.499 106.896 292.605 107.134 292.605 107.415C292.605 107.691 292.499 107.93 292.287 108.131C292.079 108.328 291.827 108.426 291.531 108.426ZM298.334 118.676C297.516 118.676 296.802 118.489 296.192 118.114C295.582 117.739 295.108 117.214 294.771 116.54C294.434 115.866 294.266 115.078 294.266 114.176C294.266 113.271 294.434 112.479 294.771 111.801C295.108 111.123 295.582 110.597 296.192 110.222C296.802 109.847 297.516 109.659 298.334 109.659C299.152 109.659 299.866 109.847 300.476 110.222C301.086 110.597 301.559 111.123 301.896 111.801C302.233 112.479 302.402 113.271 302.402 114.176C302.402 115.078 302.233 115.866 301.896 116.54C301.559 117.214 301.086 117.739 300.476 118.114C299.866 118.489 299.152 118.676 298.334 118.676ZM298.339 117.25C298.87 117.25 299.309 117.11 299.658 116.83C300.006 116.549 300.264 116.176 300.43 115.71C300.601 115.244 300.686 114.731 300.686 114.17C300.686 113.614 300.601 113.102 300.43 112.636C300.264 112.167 300.006 111.79 299.658 111.506C299.309 111.222 298.87 111.08 298.339 111.08C297.805 111.08 297.362 111.222 297.01 111.506C296.661 111.79 296.402 112.167 296.232 112.636C296.065 113.102 295.982 113.614 295.982 114.17C295.982 114.731 296.065 115.244 296.232 115.71C296.402 116.176 296.661 116.549 297.01 116.83C297.362 117.11 297.805 117.25 298.339 117.25ZM305.997 113.318V118.5H304.298V109.773H305.929V111.193H306.037C306.238 110.731 306.552 110.36 306.98 110.08C307.412 109.799 307.955 109.659 308.611 109.659C309.205 109.659 309.726 109.784 310.173 110.034C310.62 110.28 310.967 110.648 311.213 111.136C311.459 111.625 311.582 112.229 311.582 112.949V118.5H309.884V113.153C309.884 112.521 309.719 112.027 309.389 111.67C309.06 111.311 308.607 111.131 308.031 111.131C307.637 111.131 307.287 111.216 306.98 111.386C306.677 111.557 306.437 111.807 306.259 112.136C306.084 112.462 305.997 112.856 305.997 113.318ZM320.401 111.903L318.861 112.176C318.796 111.979 318.694 111.792 318.554 111.614C318.418 111.436 318.232 111.29 317.997 111.176C317.762 111.062 317.469 111.006 317.116 111.006C316.635 111.006 316.234 111.114 315.912 111.33C315.59 111.542 315.429 111.816 315.429 112.153C315.429 112.445 315.537 112.68 315.753 112.858C315.969 113.036 316.317 113.182 316.798 113.295L318.185 113.614C318.988 113.799 319.586 114.085 319.98 114.472C320.374 114.858 320.571 115.36 320.571 115.977C320.571 116.5 320.42 116.966 320.116 117.375C319.817 117.78 319.399 118.098 318.861 118.33C318.327 118.561 317.707 118.676 317.003 118.676C316.026 118.676 315.228 118.468 314.611 118.051C313.993 117.631 313.615 117.034 313.474 116.261L315.116 116.011C315.219 116.439 315.429 116.763 315.747 116.983C316.065 117.199 316.48 117.307 316.991 117.307C317.548 117.307 317.993 117.191 318.327 116.96C318.66 116.725 318.827 116.439 318.827 116.102C318.827 115.83 318.724 115.6 318.52 115.415C318.319 115.229 318.01 115.089 317.594 114.994L316.116 114.67C315.302 114.485 314.7 114.189 314.31 113.784C313.923 113.379 313.73 112.866 313.73 112.244C313.73 111.729 313.874 111.278 314.162 110.892C314.45 110.506 314.848 110.205 315.355 109.989C315.863 109.769 316.444 109.659 317.099 109.659C318.043 109.659 318.785 109.864 319.327 110.273C319.868 110.678 320.226 111.222 320.401 111.903Z" fill="white" fill-opacity="0.95"/>
<path d="M199.358 133.318H200.77L203.594 138.071H203.713L206.537 133.318H207.949L204.27 139.304V143.5H203.037V139.304L199.358 133.318ZM211.407 143.659C210.717 143.659 210.112 143.495 209.592 143.167C209.075 142.839 208.671 142.38 208.379 141.79C208.091 141.2 207.946 140.51 207.946 139.722C207.946 138.926 208.091 138.232 208.379 137.638C208.671 137.045 209.075 136.585 209.592 136.256C210.112 135.928 210.717 135.764 211.407 135.764C212.096 135.764 212.699 135.928 213.216 136.256C213.737 136.585 214.141 137.045 214.429 137.638C214.721 138.232 214.867 138.926 214.867 139.722C214.867 140.51 214.721 141.2 214.429 141.79C214.141 142.38 213.737 142.839 213.216 143.167C212.699 143.495 212.096 143.659 211.407 143.659ZM211.407 142.605C211.93 142.605 212.361 142.471 212.699 142.202C213.037 141.934 213.288 141.581 213.45 141.143C213.612 140.706 213.694 140.232 213.694 139.722C213.694 139.211 213.612 138.736 213.45 138.295C213.288 137.854 213.037 137.498 212.699 137.226C212.361 136.954 211.93 136.818 211.407 136.818C210.883 136.818 210.452 136.954 210.114 137.226C209.776 137.498 209.526 137.854 209.363 138.295C209.201 138.736 209.12 139.211 209.12 139.722C209.12 140.232 209.201 140.706 209.363 141.143C209.526 141.581 209.776 141.934 210.114 142.202C210.452 142.471 210.883 142.605 211.407 142.605ZM221.47 140.378V135.864H222.644V143.5H221.47V142.207H221.391C221.212 142.595 220.933 142.925 220.556 143.197C220.178 143.465 219.7 143.599 219.124 143.599C218.646 143.599 218.222 143.495 217.851 143.286C217.48 143.074 217.188 142.756 216.976 142.332C216.764 141.904 216.658 141.366 216.658 140.716V135.864H217.831V140.636C217.831 141.193 217.987 141.637 218.298 141.969C218.613 142.3 219.014 142.466 219.502 142.466C219.793 142.466 220.09 142.391 220.392 142.242C220.696 142.093 220.952 141.864 221.157 141.556C221.366 141.248 221.47 140.855 221.47 140.378ZM229.903 138.906V143.5H228.73V133.318H229.903V137.057H230.003C230.182 136.662 230.45 136.349 230.808 136.117C231.17 135.882 231.65 135.764 232.25 135.764C232.77 135.764 233.226 135.869 233.617 136.077C234.008 136.283 234.312 136.599 234.527 137.027C234.746 137.451 234.855 137.991 234.855 138.648V143.5H233.682V138.727C233.682 138.121 233.524 137.652 233.21 137.32C232.898 136.986 232.465 136.818 231.912 136.818C231.527 136.818 231.183 136.899 230.878 137.062C230.576 137.224 230.338 137.461 230.162 137.773C229.99 138.084 229.903 138.462 229.903 138.906ZM239.249 143.679C238.765 143.679 238.326 143.588 237.931 143.406C237.537 143.22 237.224 142.953 236.992 142.605C236.76 142.254 236.644 141.83 236.644 141.332C236.644 140.895 236.73 140.54 236.902 140.268C237.075 139.993 237.305 139.778 237.593 139.622C237.882 139.466 238.2 139.35 238.548 139.274C238.899 139.195 239.252 139.132 239.607 139.085C240.071 139.026 240.447 138.981 240.735 138.951C241.027 138.918 241.239 138.863 241.372 138.787C241.508 138.711 241.575 138.578 241.575 138.389V138.349C241.575 137.859 241.441 137.478 241.173 137.206C240.908 136.934 240.505 136.798 239.965 136.798C239.405 136.798 238.965 136.921 238.647 137.166C238.329 137.411 238.105 137.673 237.976 137.952L236.862 137.554C237.061 137.09 237.326 136.729 237.658 136.47C237.993 136.208 238.357 136.026 238.752 135.923C239.149 135.817 239.54 135.764 239.925 135.764C240.17 135.764 240.452 135.794 240.77 135.854C241.092 135.91 241.401 136.028 241.7 136.207C242.001 136.386 242.252 136.656 242.45 137.017C242.649 137.378 242.749 137.862 242.749 138.469V143.5H241.575V142.466H241.516C241.436 142.632 241.304 142.809 241.118 142.998C240.932 143.187 240.686 143.348 240.377 143.48C240.069 143.613 239.693 143.679 239.249 143.679ZM239.428 142.625C239.892 142.625 240.283 142.534 240.601 142.352C240.923 142.169 241.164 141.934 241.327 141.646C241.493 141.357 241.575 141.054 241.575 140.736V139.662C241.526 139.722 241.416 139.776 241.247 139.826C241.082 139.872 240.889 139.914 240.671 139.95C240.455 139.983 240.245 140.013 240.039 140.04C239.837 140.063 239.673 140.083 239.547 140.099C239.242 140.139 238.957 140.204 238.692 140.293C238.43 140.379 238.218 140.51 238.056 140.686C237.896 140.858 237.817 141.094 237.817 141.392C237.817 141.8 237.968 142.108 238.269 142.317C238.574 142.522 238.96 142.625 239.428 142.625ZM250.861 135.864L248.037 143.5H246.844L244.02 135.864H245.293L247.401 141.949H247.48L249.588 135.864H250.861ZM255.338 143.659C254.602 143.659 253.968 143.497 253.434 143.172C252.904 142.844 252.494 142.386 252.206 141.8C251.921 141.21 251.778 140.524 251.778 139.741C251.778 138.959 251.921 138.27 252.206 137.673C252.494 137.073 252.895 136.606 253.409 136.271C253.926 135.933 254.529 135.764 255.219 135.764C255.616 135.764 256.009 135.83 256.397 135.963C256.785 136.096 257.138 136.311 257.456 136.609C257.774 136.904 258.028 137.295 258.217 137.783C258.406 138.27 258.5 138.87 258.5 139.582V140.08H252.614V139.065H257.307C257.307 138.634 257.221 138.25 257.048 137.912C256.879 137.574 256.637 137.307 256.322 137.112C256.011 136.916 255.643 136.818 255.219 136.818C254.751 136.818 254.347 136.934 254.006 137.166C253.668 137.395 253.407 137.693 253.225 138.061C253.043 138.429 252.952 138.823 252.952 139.244V139.92C252.952 140.497 253.051 140.986 253.25 141.387C253.452 141.785 253.732 142.088 254.09 142.297C254.448 142.502 254.864 142.605 255.338 142.605C255.646 142.605 255.925 142.562 256.173 142.476C256.425 142.386 256.642 142.254 256.825 142.078C257.007 141.899 257.148 141.677 257.247 141.412L258.381 141.73C258.261 142.115 258.061 142.453 257.779 142.744C257.497 143.033 257.149 143.258 256.735 143.42C256.321 143.58 255.855 143.659 255.338 143.659ZM269.631 137.574L268.577 137.872C268.511 137.696 268.413 137.526 268.284 137.36C268.158 137.191 267.986 137.052 267.767 136.942C267.548 136.833 267.268 136.778 266.927 136.778C266.46 136.778 266.07 136.886 265.759 137.102C265.45 137.314 265.296 137.584 265.296 137.912C265.296 138.204 265.402 138.434 265.614 138.603C265.826 138.772 266.158 138.913 266.609 139.026L267.742 139.304C268.425 139.47 268.934 139.723 269.268 140.065C269.603 140.403 269.771 140.839 269.771 141.372C269.771 141.81 269.645 142.201 269.393 142.545C269.144 142.89 268.796 143.162 268.349 143.361C267.901 143.56 267.381 143.659 266.788 143.659C266.009 143.659 265.364 143.49 264.854 143.152C264.343 142.814 264.02 142.32 263.884 141.67L264.998 141.392C265.104 141.803 265.304 142.111 265.599 142.317C265.898 142.522 266.287 142.625 266.768 142.625C267.315 142.625 267.749 142.509 268.07 142.277C268.395 142.042 268.558 141.76 268.558 141.432C268.558 141.167 268.465 140.945 268.279 140.766C268.094 140.583 267.808 140.447 267.424 140.358L266.151 140.06C265.452 139.894 264.938 139.637 264.61 139.289C264.285 138.938 264.123 138.499 264.123 137.972C264.123 137.541 264.244 137.16 264.486 136.828C264.731 136.497 265.064 136.237 265.485 136.048C265.909 135.859 266.39 135.764 266.927 135.764C267.683 135.764 268.276 135.93 268.707 136.261C269.141 136.593 269.449 137.03 269.631 137.574ZM276.349 140.378V135.864H277.523V143.5H276.349V142.207H276.27C276.091 142.595 275.812 142.925 275.434 143.197C275.057 143.465 274.579 143.599 274.003 143.599C273.525 143.599 273.101 143.495 272.73 143.286C272.359 143.074 272.067 142.756 271.855 142.332C271.643 141.904 271.537 141.366 271.537 140.716V135.864H272.71V140.636C272.71 141.193 272.866 141.637 273.177 141.969C273.492 142.3 273.893 142.466 274.381 142.466C274.672 142.466 274.969 142.391 275.27 142.242C275.575 142.093 275.831 141.864 276.036 141.556C276.245 141.248 276.349 140.855 276.349 140.378ZM282.774 143.659C282.058 143.659 281.441 143.49 280.924 143.152C280.407 142.814 280.01 142.348 279.731 141.755C279.453 141.162 279.314 140.484 279.314 139.722C279.314 138.946 279.456 138.262 279.741 137.668C280.029 137.072 280.431 136.606 280.944 136.271C281.461 135.933 282.065 135.764 282.754 135.764C283.291 135.764 283.775 135.864 284.206 136.062C284.636 136.261 284.989 136.54 285.265 136.898C285.54 137.256 285.71 137.673 285.777 138.151H284.603C284.514 137.803 284.315 137.494 284.007 137.226C283.702 136.954 283.291 136.818 282.774 136.818C282.316 136.818 281.915 136.937 281.571 137.176C281.229 137.411 280.962 137.745 280.77 138.175C280.581 138.603 280.487 139.105 280.487 139.682C280.487 140.272 280.58 140.786 280.765 141.223C280.954 141.661 281.219 142 281.561 142.242C281.905 142.484 282.31 142.605 282.774 142.605C283.079 142.605 283.355 142.552 283.604 142.446C283.853 142.34 284.063 142.188 284.235 141.989C284.408 141.79 284.53 141.551 284.603 141.273H285.777C285.71 141.723 285.546 142.129 285.284 142.491C285.026 142.849 284.683 143.134 284.255 143.346C283.831 143.555 283.337 143.659 282.774 143.659ZM290.594 143.659C289.878 143.659 289.262 143.49 288.745 143.152C288.228 142.814 287.83 142.348 287.551 141.755C287.273 141.162 287.134 140.484 287.134 139.722C287.134 138.946 287.276 138.262 287.561 137.668C287.85 137.072 288.251 136.606 288.765 136.271C289.282 135.933 289.885 135.764 290.574 135.764C291.111 135.764 291.595 135.864 292.026 136.062C292.457 136.261 292.81 136.54 293.085 136.898C293.36 137.256 293.531 137.673 293.597 138.151H292.424C292.334 137.803 292.135 137.494 291.827 137.226C291.522 136.954 291.111 136.818 290.594 136.818C290.137 136.818 289.736 136.937 289.391 137.176C289.05 137.411 288.783 137.745 288.591 138.175C288.402 138.603 288.307 139.105 288.307 139.682C288.307 140.272 288.4 140.786 288.586 141.223C288.775 141.661 289.04 142 289.381 142.242C289.726 142.484 290.13 142.605 290.594 142.605C290.899 142.605 291.176 142.552 291.424 142.446C291.673 142.34 291.883 142.188 292.056 141.989C292.228 141.79 292.351 141.551 292.424 141.273H293.597C293.531 141.723 293.367 142.129 293.105 142.491C292.846 142.849 292.503 143.134 292.076 143.346C291.651 143.555 291.158 143.659 290.594 143.659ZM298.514 143.659C297.778 143.659 297.143 143.497 296.61 143.172C296.079 142.844 295.67 142.386 295.382 141.8C295.097 141.21 294.954 140.524 294.954 139.741C294.954 138.959 295.097 138.27 295.382 137.673C295.67 137.073 296.071 136.606 296.585 136.271C297.102 135.933 297.705 135.764 298.395 135.764C298.792 135.764 299.185 135.83 299.573 135.963C299.961 136.096 300.314 136.311 300.632 136.609C300.95 136.904 301.203 137.295 301.392 137.783C301.581 138.27 301.676 138.87 301.676 139.582V140.08H295.789V139.065H300.483C300.483 138.634 300.396 138.25 300.224 137.912C300.055 137.574 299.813 137.307 299.498 137.112C299.187 136.916 298.819 136.818 298.395 136.818C297.927 136.818 297.523 136.934 297.181 137.166C296.843 137.395 296.583 137.693 296.401 138.061C296.219 138.429 296.127 138.823 296.127 139.244V139.92C296.127 140.497 296.227 140.986 296.426 141.387C296.628 141.785 296.908 142.088 297.266 142.297C297.624 142.502 298.04 142.605 298.514 142.605C298.822 142.605 299.1 142.562 299.349 142.476C299.601 142.386 299.818 142.254 300 142.078C300.183 141.899 300.324 141.677 300.423 141.412L301.556 141.73C301.437 142.115 301.237 142.453 300.955 142.744C300.673 143.033 300.325 143.258 299.911 143.42C299.497 143.58 299.031 143.659 298.514 143.659ZM308.87 137.574L307.816 137.872C307.749 137.696 307.652 137.526 307.522 137.36C307.396 137.191 307.224 137.052 307.005 136.942C306.787 136.833 306.507 136.778 306.165 136.778C305.698 136.778 305.308 136.886 304.997 137.102C304.689 137.314 304.534 137.584 304.534 137.912C304.534 138.204 304.641 138.434 304.853 138.603C305.065 138.772 305.396 138.913 305.847 139.026L306.98 139.304C307.663 139.47 308.172 139.723 308.507 140.065C308.842 140.403 309.009 140.839 309.009 141.372C309.009 141.81 308.883 142.201 308.631 142.545C308.382 142.89 308.034 143.162 307.587 143.361C307.14 143.56 306.619 143.659 306.026 143.659C305.247 143.659 304.602 143.49 304.092 143.152C303.582 142.814 303.258 142.32 303.123 141.67L304.236 141.392C304.342 141.803 304.543 142.111 304.838 142.317C305.136 142.522 305.525 142.625 306.006 142.625C306.553 142.625 306.987 142.509 307.309 142.277C307.633 142.042 307.796 141.76 307.796 141.432C307.796 141.167 307.703 140.945 307.517 140.766C307.332 140.583 307.047 140.447 306.662 140.358L305.39 140.06C304.69 139.894 304.176 139.637 303.848 139.289C303.524 138.938 303.361 138.499 303.361 137.972C303.361 137.541 303.482 137.16 303.724 136.828C303.969 136.497 304.302 136.237 304.723 136.048C305.148 135.859 305.628 135.764 306.165 135.764C306.921 135.764 307.514 135.93 307.945 136.261C308.379 136.593 308.687 137.03 308.87 137.574ZM316.184 137.574L315.13 137.872C315.064 137.696 314.966 137.526 314.837 137.36C314.711 137.191 314.539 137.052 314.32 136.942C314.101 136.833 313.821 136.778 313.48 136.778C313.012 136.778 312.623 136.886 312.311 137.102C312.003 137.314 311.849 137.584 311.849 137.912C311.849 138.204 311.955 138.434 312.167 138.603C312.379 138.772 312.711 138.913 313.161 139.026L314.295 139.304C314.978 139.47 315.486 139.723 315.821 140.065C316.156 140.403 316.323 140.839 316.323 141.372C316.323 141.81 316.197 142.201 315.945 142.545C315.697 142.89 315.349 143.162 314.901 143.361C314.454 143.56 313.934 143.659 313.34 143.659C312.561 143.659 311.917 143.49 311.406 143.152C310.896 142.814 310.573 142.32 310.437 141.67L311.551 141.392C311.657 141.803 311.857 142.111 312.152 142.317C312.45 142.522 312.84 142.625 313.32 142.625C313.867 142.625 314.302 142.509 314.623 142.277C314.948 142.042 315.11 141.76 315.11 141.432C315.11 141.167 315.017 140.945 314.832 140.766C314.646 140.583 314.361 140.447 313.977 140.358L312.704 140.06C312.005 139.894 311.491 139.637 311.163 139.289C310.838 138.938 310.676 138.499 310.676 137.972C310.676 137.541 310.797 137.16 311.039 136.828C311.284 136.497 311.617 136.237 312.038 136.048C312.462 135.859 312.943 135.764 313.48 135.764C314.235 135.764 314.829 135.93 315.259 136.261C315.694 136.593 316.002 137.03 316.184 137.574ZM321.49 135.864V136.858H317.374V135.864H321.49ZM318.607 143.5V134.81C318.607 134.372 318.709 134.008 318.915 133.716C319.12 133.424 319.387 133.205 319.715 133.06C320.043 132.914 320.39 132.841 320.754 132.841C321.043 132.841 321.278 132.864 321.46 132.911C321.643 132.957 321.778 133 321.868 133.04L321.53 134.054C321.47 134.034 321.387 134.009 321.281 133.979C321.179 133.95 321.043 133.935 320.874 133.935C320.486 133.935 320.206 134.032 320.033 134.228C319.864 134.424 319.78 134.71 319.78 135.088V143.5H318.607ZM327.947 140.378V135.864H329.12V143.5H327.947V142.207H327.867C327.688 142.595 327.41 142.925 327.032 143.197C326.654 143.465 326.177 143.599 325.6 143.599C325.123 143.599 324.699 143.495 324.328 143.286C323.956 143.074 323.665 142.756 323.453 142.332C323.24 141.904 323.134 141.366 323.134 140.716V135.864H324.308V140.636C324.308 141.193 324.463 141.637 324.775 141.969C325.09 142.3 325.491 142.466 325.978 142.466C326.27 142.466 326.566 142.391 326.868 142.242C327.173 142.093 327.428 141.864 327.634 141.556C327.843 141.248 327.947 140.855 327.947 140.378ZM332.442 133.318V143.5H331.269V133.318H332.442ZM335.765 133.318V143.5H334.591V133.318H335.765ZM338.669 146.344C338.471 146.344 338.293 146.327 338.137 146.294C337.982 146.264 337.874 146.234 337.814 146.205L338.113 145.17C338.54 145.28 338.896 145.277 339.181 145.161C339.467 145.048 339.713 144.706 339.922 144.136L340.141 143.54L337.317 135.864H338.59L340.698 141.949H340.777L342.885 135.864L344.168 135.884L340.917 144.614C340.771 145.001 340.59 145.323 340.375 145.578C340.159 145.837 339.909 146.029 339.624 146.155C339.342 146.281 339.024 146.344 338.669 146.344ZM352.76 143.659C352.044 143.659 351.428 143.49 350.911 143.152C350.394 142.814 349.996 142.348 349.718 141.755C349.439 141.162 349.3 140.484 349.3 139.722C349.3 138.946 349.442 138.262 349.727 137.668C350.016 137.072 350.417 136.606 350.931 136.271C351.448 135.933 352.051 135.764 352.74 135.764C353.277 135.764 353.761 135.864 354.192 136.062C354.623 136.261 354.976 136.54 355.251 136.898C355.526 137.256 355.697 137.673 355.763 138.151H354.59C354.5 137.803 354.301 137.494 353.993 137.226C353.688 136.954 353.277 136.818 352.76 136.818C352.303 136.818 351.902 136.937 351.557 137.176C351.216 137.411 350.949 137.745 350.757 138.175C350.568 138.603 350.473 139.105 350.473 139.682C350.473 140.272 350.566 140.786 350.752 141.223C350.941 141.661 351.206 142 351.547 142.242C351.892 142.484 352.296 142.605 352.76 142.605C353.065 142.605 353.342 142.552 353.59 142.446C353.839 142.34 354.049 142.188 354.222 141.989C354.394 141.79 354.517 141.551 354.59 141.273H355.763C355.697 141.723 355.533 142.129 355.271 142.491C355.012 142.849 354.669 143.134 354.242 143.346C353.817 143.555 353.324 143.659 352.76 143.659ZM360.58 143.659C359.891 143.659 359.286 143.495 358.766 143.167C358.249 142.839 357.844 142.38 357.553 141.79C357.264 141.2 357.12 140.51 357.12 139.722C357.12 138.926 357.264 138.232 357.553 137.638C357.844 137.045 358.249 136.585 358.766 136.256C359.286 135.928 359.891 135.764 360.58 135.764C361.27 135.764 361.873 135.928 362.39 136.256C362.91 136.585 363.315 137.045 363.603 137.638C363.895 138.232 364.041 138.926 364.041 139.722C364.041 140.51 363.895 141.2 363.603 141.79C363.315 142.38 362.91 142.839 362.39 143.167C361.873 143.495 361.27 143.659 360.58 143.659ZM360.58 142.605C361.104 142.605 361.535 142.471 361.873 142.202C362.211 141.934 362.461 141.581 362.624 141.143C362.786 140.706 362.867 140.232 362.867 139.722C362.867 139.211 362.786 138.736 362.624 138.295C362.461 137.854 362.211 137.498 361.873 137.226C361.535 136.954 361.104 136.818 360.58 136.818C360.057 136.818 359.626 136.954 359.288 137.226C358.95 137.498 358.7 137.854 358.537 138.295C358.375 138.736 358.294 139.211 358.294 139.722C358.294 140.232 358.375 140.706 358.537 141.143C358.7 141.581 358.95 141.934 359.288 142.202C359.626 142.471 360.057 142.605 360.58 142.605ZM365.832 143.5V135.864H366.965V137.057H367.065C367.224 136.649 367.481 136.333 367.835 136.107C368.19 135.879 368.616 135.764 369.113 135.764C369.617 135.764 370.036 135.879 370.371 136.107C370.709 136.333 370.972 136.649 371.161 137.057H371.241C371.436 136.662 371.73 136.349 372.121 136.117C372.512 135.882 372.981 135.764 373.528 135.764C374.21 135.764 374.769 135.978 375.203 136.406C375.637 136.83 375.854 137.491 375.854 138.389V143.5H374.681V138.389C374.681 137.826 374.527 137.423 374.219 137.181C373.911 136.939 373.548 136.818 373.13 136.818C372.593 136.818 372.177 136.981 371.882 137.305C371.587 137.627 371.44 138.035 371.44 138.528V143.5H370.246V138.27C370.246 137.836 370.106 137.486 369.824 137.221C369.542 136.952 369.179 136.818 368.735 136.818C368.43 136.818 368.145 136.899 367.88 137.062C367.618 137.224 367.406 137.45 367.244 137.738C367.085 138.023 367.005 138.353 367.005 138.727V143.5H365.832ZM378 146.364V135.864H379.133V137.077H379.272C379.359 136.944 379.478 136.775 379.63 136.57C379.786 136.361 380.008 136.175 380.297 136.013C380.588 135.847 380.983 135.764 381.48 135.764C382.123 135.764 382.69 135.925 383.18 136.246C383.671 136.568 384.053 137.024 384.328 137.614C384.604 138.204 384.741 138.9 384.741 139.702C384.741 140.51 384.604 141.211 384.328 141.805C384.053 142.395 383.672 142.852 383.185 143.177C382.698 143.498 382.136 143.659 381.5 143.659C381.009 143.659 380.616 143.578 380.321 143.415C380.026 143.25 379.799 143.062 379.64 142.854C379.481 142.642 379.359 142.466 379.272 142.327H379.173V146.364H378ZM379.153 139.682C379.153 140.259 379.238 140.767 379.407 141.208C379.576 141.646 379.823 141.989 380.147 142.237C380.472 142.482 380.87 142.605 381.341 142.605C381.831 142.605 382.24 142.476 382.569 142.217C382.9 141.955 383.149 141.604 383.314 141.163C383.483 140.719 383.568 140.225 383.568 139.682C383.568 139.145 383.485 138.661 383.319 138.23C383.157 137.796 382.91 137.453 382.578 137.201C382.25 136.946 381.838 136.818 381.341 136.818C380.863 136.818 380.462 136.939 380.137 137.181C379.813 137.42 379.567 137.754 379.402 138.185C379.236 138.613 379.153 139.112 379.153 139.682ZM387.704 133.318V143.5H386.531V133.318H387.704ZM393.055 143.659C392.319 143.659 391.684 143.497 391.151 143.172C390.62 142.844 390.211 142.386 389.923 141.8C389.638 141.21 389.495 140.524 389.495 139.741C389.495 138.959 389.638 138.27 389.923 137.673C390.211 137.073 390.612 136.606 391.126 136.271C391.643 135.933 392.246 135.764 392.936 135.764C393.333 135.764 393.726 135.83 394.114 135.963C394.502 136.096 394.855 136.311 395.173 136.609C395.491 136.904 395.744 137.295 395.933 137.783C396.122 138.27 396.217 138.87 396.217 139.582V140.08H390.33V139.065H395.024C395.024 138.634 394.937 138.25 394.765 137.912C394.596 137.574 394.354 137.307 394.039 137.112C393.728 136.916 393.36 136.818 392.936 136.818C392.468 136.818 392.064 136.934 391.722 137.166C391.384 137.395 391.124 137.693 390.942 138.061C390.76 138.429 390.669 138.823 390.669 139.244V139.92C390.669 140.497 390.768 140.986 390.967 141.387C391.169 141.785 391.449 142.088 391.807 142.297C392.165 142.502 392.581 142.605 393.055 142.605C393.363 142.605 393.642 142.562 393.89 142.476C394.142 142.386 394.359 142.254 394.541 142.078C394.724 141.899 394.865 141.677 394.964 141.412L396.097 141.73C395.978 142.115 395.778 142.453 395.496 142.744C395.214 143.033 394.866 143.258 394.452 143.42C394.038 143.58 393.572 143.659 393.055 143.659ZM401.323 135.864V136.858H397.365V135.864H401.323ZM398.519 134.034H399.692V141.312C399.692 141.644 399.74 141.893 399.836 142.058C399.936 142.221 400.061 142.33 400.214 142.386C400.37 142.439 400.534 142.466 400.706 142.466C400.835 142.466 400.941 142.459 401.024 142.446C401.107 142.429 401.173 142.416 401.223 142.406L401.462 143.46C401.382 143.49 401.271 143.52 401.129 143.55C400.986 143.583 400.806 143.599 400.587 143.599C400.255 143.599 399.931 143.528 399.612 143.386C399.298 143.243 399.036 143.026 398.827 142.734C398.621 142.443 398.519 142.075 398.519 141.631V134.034ZM406.207 143.659C405.471 143.659 404.837 143.497 404.303 143.172C403.773 142.844 403.363 142.386 403.075 141.8C402.79 141.21 402.648 140.524 402.648 139.741C402.648 138.959 402.79 138.27 403.075 137.673C403.363 137.073 403.765 136.606 404.278 136.271C404.795 135.933 405.398 135.764 406.088 135.764C406.486 135.764 406.878 135.83 407.266 135.963C407.654 136.096 408.007 136.311 408.325 136.609C408.643 136.904 408.897 137.295 409.086 137.783C409.275 138.27 409.369 138.87 409.369 139.582V140.08H403.483V139.065H408.176C408.176 138.634 408.09 138.25 407.917 137.912C407.748 137.574 407.506 137.307 407.192 137.112C406.88 136.916 406.512 136.818 406.088 136.818C405.621 136.818 405.216 136.934 404.875 137.166C404.537 137.395 404.277 137.693 404.094 138.061C403.912 138.429 403.821 138.823 403.821 139.244V139.92C403.821 140.497 403.92 140.986 404.119 141.387C404.321 141.785 404.601 142.088 404.959 142.297C405.317 142.502 405.733 142.605 406.207 142.605C406.515 142.605 406.794 142.562 407.042 142.476C407.294 142.386 407.511 142.254 407.694 142.078C407.876 141.899 408.017 141.677 408.116 141.412L409.25 141.73C409.131 142.115 408.93 142.453 408.648 142.744C408.367 143.033 408.019 143.258 407.604 143.42C407.19 143.58 406.724 143.659 406.207 143.659ZM414.037 143.659C413.401 143.659 412.839 143.498 412.352 143.177C411.865 142.852 411.484 142.395 411.209 141.805C410.934 141.211 410.796 140.51 410.796 139.702C410.796 138.9 410.934 138.204 411.209 137.614C411.484 137.024 411.867 136.568 412.357 136.246C412.848 135.925 413.414 135.764 414.057 135.764C414.555 135.764 414.947 135.847 415.236 136.013C415.527 136.175 415.749 136.361 415.902 136.57C416.058 136.775 416.179 136.944 416.265 137.077H416.364V133.318H417.537V143.5H416.404V142.327H416.265C416.179 142.466 416.056 142.642 415.897 142.854C415.738 143.062 415.511 143.25 415.216 143.415C414.921 143.578 414.528 143.659 414.037 143.659ZM414.197 142.605C414.667 142.605 415.065 142.482 415.39 142.237C415.715 141.989 415.961 141.646 416.131 141.208C416.3 140.767 416.384 140.259 416.384 139.682C416.384 139.112 416.301 138.613 416.135 138.185C415.97 137.754 415.724 137.42 415.4 137.181C415.075 136.939 414.674 136.818 414.197 136.818C413.699 136.818 413.285 136.946 412.954 137.201C412.626 137.453 412.379 137.796 412.213 138.23C412.05 138.661 411.969 139.145 411.969 139.682C411.969 140.225 412.052 140.719 412.218 141.163C412.387 141.604 412.635 141.955 412.964 142.217C413.295 142.476 413.706 142.605 414.197 142.605ZM203.395 155.864V156.858H199.438V155.864H203.395ZM200.591 154.034H201.764V161.312C201.764 161.644 201.812 161.893 201.908 162.058C202.008 162.221 202.134 162.33 202.286 162.386C202.442 162.439 202.606 162.466 202.778 162.466C202.908 162.466 203.014 162.459 203.097 162.446C203.179 162.429 203.246 162.416 203.295 162.406L203.534 163.46C203.455 163.49 203.344 163.52 203.201 163.55C203.058 163.583 202.878 163.599 202.659 163.599C202.328 163.599 202.003 163.528 201.685 163.386C201.37 163.243 201.108 163.026 200.899 162.734C200.694 162.443 200.591 162.075 200.591 161.631V154.034ZM206.497 158.906V163.5H205.324V153.318H206.497V157.057H206.597C206.776 156.662 207.044 156.349 207.402 156.117C207.763 155.882 208.244 155.764 208.844 155.764C209.364 155.764 209.82 155.869 210.211 156.077C210.602 156.283 210.905 156.599 211.121 157.027C211.339 157.451 211.449 157.991 211.449 158.648V163.5H210.276V158.727C210.276 158.121 210.118 157.652 209.803 157.32C209.492 156.986 209.059 156.818 208.506 156.818C208.121 156.818 207.777 156.899 207.472 157.062C207.17 157.224 206.931 157.461 206.756 157.773C206.583 158.084 206.497 158.462 206.497 158.906ZM216.797 163.659C216.061 163.659 215.427 163.497 214.893 163.172C214.363 162.844 213.953 162.386 213.665 161.8C213.38 161.21 213.237 160.524 213.237 159.741C213.237 158.959 213.38 158.27 213.665 157.673C213.953 157.073 214.354 156.606 214.868 156.271C215.385 155.933 215.988 155.764 216.678 155.764C217.075 155.764 217.468 155.83 217.856 155.963C218.244 156.096 218.597 156.311 218.915 156.609C219.233 156.904 219.487 157.295 219.676 157.783C219.865 158.27 219.959 158.87 219.959 159.582V160.08H214.073V159.065H218.766C218.766 158.634 218.68 158.25 218.507 157.912C218.338 157.574 218.096 157.307 217.781 157.112C217.47 156.916 217.102 156.818 216.678 156.818C216.21 156.818 215.806 156.934 215.465 157.166C215.127 157.395 214.866 157.693 214.684 158.061C214.502 158.429 214.411 158.823 214.411 159.244V159.92C214.411 160.497 214.51 160.986 214.709 161.387C214.911 161.785 215.191 162.088 215.549 162.297C215.907 162.502 216.323 162.605 216.797 162.605C217.105 162.605 217.384 162.562 217.632 162.476C217.884 162.386 218.101 162.254 218.284 162.078C218.466 161.899 218.607 161.677 218.706 161.412L219.84 161.73C219.72 162.115 219.52 162.453 219.238 162.744C218.956 163.033 218.608 163.258 218.194 163.42C217.78 163.58 217.314 163.659 216.797 163.659ZM225.681 163.5V155.864H226.815V157.017H226.894C227.034 156.639 227.285 156.333 227.65 156.097C228.015 155.862 228.426 155.744 228.883 155.744C228.969 155.744 229.077 155.746 229.206 155.749C229.335 155.753 229.433 155.758 229.499 155.764V156.957C229.46 156.947 229.369 156.933 229.226 156.913C229.087 156.889 228.939 156.878 228.784 156.878C228.412 156.878 228.081 156.956 227.789 157.112C227.501 157.264 227.272 157.476 227.103 157.748C226.937 158.016 226.855 158.323 226.855 158.668V163.5H225.681ZM233.86 163.659C233.124 163.659 232.489 163.497 231.955 163.172C231.425 162.844 231.016 162.386 230.727 161.8C230.442 161.21 230.3 160.524 230.3 159.741C230.3 158.959 230.442 158.27 230.727 157.673C231.016 157.073 231.417 156.606 231.931 156.271C232.448 155.933 233.051 155.764 233.74 155.764C234.138 155.764 234.531 155.83 234.919 155.963C235.306 156.096 235.659 156.311 235.977 156.609C236.296 156.904 236.549 157.295 236.738 157.783C236.927 158.27 237.021 158.87 237.021 159.582V160.08H231.135V159.065H235.828C235.828 158.634 235.742 158.25 235.57 157.912C235.401 157.574 235.159 157.307 234.844 157.112C234.532 156.916 234.164 156.818 233.74 156.818C233.273 156.818 232.869 156.934 232.527 157.166C232.189 157.395 231.929 157.693 231.747 158.061C231.564 158.429 231.473 158.823 231.473 159.244V159.92C231.473 160.497 231.573 160.986 231.771 161.387C231.974 161.785 232.254 162.088 232.612 162.297C232.97 162.502 233.386 162.605 233.86 162.605C234.168 162.605 234.446 162.562 234.695 162.476C234.947 162.386 235.164 162.254 235.346 162.078C235.528 161.899 235.669 161.677 235.769 161.412L236.902 161.73C236.783 162.115 236.582 162.453 236.301 162.744C236.019 163.033 235.671 163.258 235.257 163.42C234.842 163.58 234.377 163.659 233.86 163.659ZM241.889 166.523C241.322 166.523 240.835 166.45 240.427 166.304C240.019 166.161 239.68 165.973 239.408 165.737C239.139 165.505 238.926 165.257 238.767 164.991L239.701 164.335C239.807 164.474 239.941 164.634 240.104 164.812C240.266 164.995 240.488 165.152 240.77 165.285C241.055 165.421 241.428 165.489 241.889 165.489C242.505 165.489 243.014 165.339 243.415 165.041C243.816 164.743 244.017 164.276 244.017 163.639V162.088H243.917C243.831 162.227 243.708 162.4 243.549 162.605C243.393 162.807 243.168 162.988 242.873 163.147C242.581 163.303 242.187 163.381 241.69 163.381C241.073 163.381 240.52 163.235 240.029 162.943C239.542 162.652 239.156 162.227 238.871 161.67C238.589 161.114 238.448 160.437 238.448 159.642C238.448 158.86 238.586 158.179 238.861 157.599C239.136 157.015 239.519 156.565 240.009 156.246C240.5 155.925 241.067 155.764 241.71 155.764C242.207 155.764 242.601 155.847 242.893 156.013C243.188 156.175 243.413 156.361 243.569 156.57C243.728 156.775 243.851 156.944 243.937 157.077H244.056V155.864H245.19V163.719C245.19 164.375 245.041 164.909 244.742 165.32C244.447 165.734 244.05 166.037 243.549 166.229C243.052 166.425 242.499 166.523 241.889 166.523ZM241.849 162.327C242.32 162.327 242.717 162.219 243.042 162.004C243.367 161.788 243.614 161.478 243.783 161.074C243.952 160.67 244.036 160.186 244.036 159.622C244.036 159.072 243.954 158.586 243.788 158.165C243.622 157.745 243.377 157.415 243.052 157.176C242.727 156.937 242.326 156.818 241.849 156.818C241.352 156.818 240.937 156.944 240.606 157.196C240.278 157.448 240.031 157.786 239.865 158.21C239.703 158.634 239.622 159.105 239.622 159.622C239.622 160.152 239.704 160.621 239.87 161.029C240.039 161.433 240.288 161.752 240.616 161.984C240.947 162.212 241.358 162.327 241.849 162.327ZM247.338 163.5V155.864H248.511V163.5H247.338ZM247.934 154.591C247.705 154.591 247.508 154.513 247.343 154.357C247.18 154.201 247.099 154.014 247.099 153.795C247.099 153.577 247.18 153.389 247.343 153.234C247.508 153.078 247.705 153 247.934 153C248.163 153 248.358 153.078 248.521 153.234C248.686 153.389 248.769 153.577 248.769 153.795C248.769 154.014 248.686 154.201 248.521 154.357C248.358 154.513 248.163 154.591 247.934 154.591ZM256.069 157.574L255.015 157.872C254.949 157.696 254.851 157.526 254.722 157.36C254.596 157.191 254.423 157.052 254.205 156.942C253.986 156.833 253.706 156.778 253.364 156.778C252.897 156.778 252.508 156.886 252.196 157.102C251.888 157.314 251.734 157.584 251.734 157.912C251.734 158.204 251.84 158.434 252.052 158.603C252.264 158.772 252.595 158.913 253.046 159.026L254.18 159.304C254.862 159.47 255.371 159.723 255.706 160.065C256.041 160.403 256.208 160.839 256.208 161.372C256.208 161.81 256.082 162.201 255.83 162.545C255.582 162.89 255.234 163.162 254.786 163.361C254.339 163.56 253.818 163.659 253.225 163.659C252.446 163.659 251.802 163.49 251.291 163.152C250.781 162.814 250.458 162.32 250.322 161.67L251.435 161.392C251.541 161.803 251.742 162.111 252.037 162.317C252.335 162.522 252.725 162.625 253.205 162.625C253.752 162.625 254.186 162.509 254.508 162.277C254.833 162.042 254.995 161.76 254.995 161.432C254.995 161.167 254.902 160.945 254.717 160.766C254.531 160.583 254.246 160.447 253.862 160.358L252.589 160.06C251.889 159.894 251.376 159.637 251.048 159.289C250.723 158.938 250.56 158.499 250.56 157.972C250.56 157.541 250.681 157.16 250.923 156.828C251.169 156.497 251.502 156.237 251.923 156.048C252.347 155.859 252.827 155.764 253.364 155.764C254.12 155.764 254.713 155.93 255.144 156.261C255.578 156.593 255.887 157.03 256.069 157.574ZM261.295 155.864V156.858H257.338V155.864H261.295ZM258.491 154.034H259.665V161.312C259.665 161.644 259.713 161.893 259.809 162.058C259.908 162.221 260.034 162.33 260.187 162.386C260.342 162.439 260.506 162.466 260.679 162.466C260.808 162.466 260.914 162.459 260.997 162.446C261.08 162.429 261.146 162.416 261.196 162.406L261.434 163.46C261.355 163.49 261.244 163.52 261.101 163.55C260.959 163.583 260.778 163.599 260.559 163.599C260.228 163.599 259.903 163.528 259.585 163.386C259.27 163.243 259.008 163.026 258.8 162.734C258.594 162.443 258.491 162.075 258.491 161.631V154.034ZM263.06 163.5V155.864H264.194V157.017H264.273C264.412 156.639 264.664 156.333 265.029 156.097C265.394 155.862 265.805 155.744 266.262 155.744C266.348 155.744 266.456 155.746 266.585 155.749C266.714 155.753 266.812 155.758 266.878 155.764V156.957C266.839 156.947 266.747 156.933 266.605 156.913C266.466 156.889 266.318 156.878 266.162 156.878C265.791 156.878 265.46 156.956 265.168 157.112C264.88 157.264 264.651 157.476 264.482 157.748C264.316 158.016 264.233 158.323 264.233 158.668V163.5H263.06ZM270.516 163.679C270.032 163.679 269.593 163.588 269.199 163.406C268.804 163.22 268.491 162.953 268.259 162.605C268.027 162.254 267.911 161.83 267.911 161.332C267.911 160.895 267.997 160.54 268.17 160.268C268.342 159.993 268.572 159.778 268.861 159.622C269.149 159.466 269.467 159.35 269.815 159.274C270.167 159.195 270.52 159.132 270.874 159.085C271.338 159.026 271.714 158.981 272.003 158.951C272.295 158.918 272.507 158.863 272.639 158.787C272.775 158.711 272.843 158.578 272.843 158.389V158.349C272.843 157.859 272.709 157.478 272.44 157.206C272.175 156.934 271.772 156.798 271.232 156.798C270.672 156.798 270.233 156.921 269.915 157.166C269.597 157.411 269.373 157.673 269.244 157.952L268.13 157.554C268.329 157.09 268.594 156.729 268.925 156.47C269.26 156.208 269.625 156.026 270.019 155.923C270.417 155.817 270.808 155.764 271.192 155.764C271.438 155.764 271.719 155.794 272.038 155.854C272.359 155.91 272.669 156.028 272.967 156.207C273.269 156.386 273.519 156.656 273.718 157.017C273.917 157.378 274.016 157.862 274.016 158.469V163.5H272.843V162.466H272.783C272.704 162.632 272.571 162.809 272.386 162.998C272.2 163.187 271.953 163.348 271.645 163.48C271.337 163.613 270.96 163.679 270.516 163.679ZM270.695 162.625C271.159 162.625 271.55 162.534 271.869 162.352C272.19 162.169 272.432 161.934 272.594 161.646C272.76 161.357 272.843 161.054 272.843 160.736V159.662C272.793 159.722 272.684 159.776 272.515 159.826C272.349 159.872 272.157 159.914 271.938 159.95C271.723 159.983 271.512 160.013 271.307 160.04C271.105 160.063 270.941 160.083 270.815 160.099C270.51 160.139 270.225 160.204 269.96 160.293C269.698 160.379 269.486 160.51 269.323 160.686C269.164 160.858 269.085 161.094 269.085 161.392C269.085 161.8 269.235 162.108 269.537 162.317C269.842 162.522 270.228 162.625 270.695 162.625ZM279.479 155.864V156.858H275.521V155.864H279.479ZM276.675 154.034H277.848V161.312C277.848 161.644 277.896 161.893 277.992 162.058C278.092 162.221 278.218 162.33 278.37 162.386C278.526 162.439 278.69 162.466 278.862 162.466C278.992 162.466 279.098 162.459 279.181 162.446C279.263 162.429 279.33 162.416 279.379 162.406L279.618 163.46C279.539 163.49 279.427 163.52 279.285 163.55C279.142 163.583 278.962 163.599 278.743 163.599C278.412 163.599 278.087 163.528 277.769 163.386C277.454 163.243 277.192 163.026 276.983 162.734C276.778 162.443 276.675 162.075 276.675 161.631V154.034ZM281.244 163.5V155.864H282.417V163.5H281.244ZM281.84 154.591C281.612 154.591 281.414 154.513 281.249 154.357C281.086 154.201 281.005 154.014 281.005 153.795C281.005 153.577 281.086 153.389 281.249 153.234C281.414 153.078 281.612 153 281.84 153C282.069 153 282.265 153.078 282.427 153.234C282.593 153.389 282.676 153.577 282.676 153.795C282.676 154.014 282.593 154.201 282.427 154.357C282.265 154.513 282.069 154.591 281.84 154.591ZM287.668 163.659C286.979 163.659 286.374 163.495 285.854 163.167C285.337 162.839 284.932 162.38 284.641 161.79C284.352 161.2 284.208 160.51 284.208 159.722C284.208 158.926 284.352 158.232 284.641 157.638C284.932 157.045 285.337 156.585 285.854 156.256C286.374 155.928 286.979 155.764 287.668 155.764C288.358 155.764 288.961 155.928 289.478 156.256C289.998 156.585 290.403 157.045 290.691 157.638C290.983 158.232 291.129 158.926 291.129 159.722C291.129 160.51 290.983 161.2 290.691 161.79C290.403 162.38 289.998 162.839 289.478 163.167C288.961 163.495 288.358 163.659 287.668 163.659ZM287.668 162.605C288.192 162.605 288.623 162.471 288.961 162.202C289.299 161.934 289.549 161.581 289.712 161.143C289.874 160.706 289.955 160.232 289.955 159.722C289.955 159.211 289.874 158.736 289.712 158.295C289.549 157.854 289.299 157.498 288.961 157.226C288.623 156.954 288.192 156.818 287.668 156.818C287.145 156.818 286.714 156.954 286.376 157.226C286.038 157.498 285.787 157.854 285.625 158.295C285.463 158.736 285.381 159.211 285.381 159.722C285.381 160.232 285.463 160.706 285.625 161.143C285.787 161.581 286.038 161.934 286.376 162.202C286.714 162.471 287.145 162.605 287.668 162.605ZM294.093 158.906V163.5H292.92V155.864H294.053V157.057H294.153C294.331 156.669 294.603 156.357 294.968 156.122C295.332 155.884 295.803 155.764 296.38 155.764C296.897 155.764 297.349 155.87 297.737 156.082C298.125 156.291 298.426 156.609 298.642 157.037C298.857 157.461 298.965 157.998 298.965 158.648V163.5H297.792V158.727C297.792 158.127 297.636 157.66 297.324 157.325C297.013 156.987 296.585 156.818 296.042 156.818C295.667 156.818 295.332 156.899 295.037 157.062C294.746 157.224 294.515 157.461 294.346 157.773C294.177 158.084 294.093 158.462 294.093 158.906ZM305.047 166.364V155.864H306.18V157.077H306.319C306.405 156.944 306.525 156.775 306.677 156.57C306.833 156.361 307.055 156.175 307.343 156.013C307.635 155.847 308.029 155.764 308.527 155.764C309.17 155.764 309.736 155.925 310.227 156.246C310.717 156.568 311.1 157.024 311.375 157.614C311.65 158.204 311.788 158.9 311.788 159.702C311.788 160.51 311.65 161.211 311.375 161.805C311.1 162.395 310.719 162.852 310.232 163.177C309.745 163.498 309.183 163.659 308.547 163.659C308.056 163.659 307.663 163.578 307.368 163.415C307.073 163.25 306.846 163.062 306.687 162.854C306.528 162.642 306.405 162.466 306.319 162.327H306.22V166.364H305.047ZM306.2 159.682C306.2 160.259 306.284 160.767 306.453 161.208C306.623 161.646 306.869 161.989 307.194 162.237C307.519 162.482 307.917 162.605 308.387 162.605C308.878 162.605 309.287 162.476 309.615 162.217C309.947 161.955 310.195 161.604 310.361 161.163C310.53 160.719 310.615 160.225 310.615 159.682C310.615 159.145 310.532 158.661 310.366 158.23C310.204 157.796 309.957 157.453 309.625 157.201C309.297 156.946 308.885 156.818 308.387 156.818C307.91 156.818 307.509 156.939 307.184 157.181C306.859 157.42 306.614 157.754 306.449 158.185C306.283 158.613 306.2 159.112 306.2 159.682ZM313.578 163.5V155.864H314.711V157.017H314.791C314.93 156.639 315.182 156.333 315.547 156.097C315.911 155.862 316.322 155.744 316.779 155.744C316.866 155.744 316.973 155.746 317.103 155.749C317.232 155.753 317.33 155.758 317.396 155.764V156.957C317.356 156.947 317.265 156.933 317.123 156.913C316.983 156.889 316.836 156.878 316.68 156.878C316.309 156.878 315.977 156.956 315.686 157.112C315.397 157.264 315.169 157.476 315 157.748C314.834 158.016 314.751 158.323 314.751 158.668V163.5H313.578ZM321.657 163.659C320.967 163.659 320.362 163.495 319.842 163.167C319.325 162.839 318.921 162.38 318.629 161.79C318.341 161.2 318.196 160.51 318.196 159.722C318.196 158.926 318.341 158.232 318.629 157.638C318.921 157.045 319.325 156.585 319.842 156.256C320.362 155.928 320.967 155.764 321.657 155.764C322.346 155.764 322.949 155.928 323.466 156.256C323.987 156.585 324.391 157.045 324.679 157.638C324.971 158.232 325.117 158.926 325.117 159.722C325.117 160.51 324.971 161.2 324.679 161.79C324.391 162.38 323.987 162.839 323.466 163.167C322.949 163.495 322.346 163.659 321.657 163.659ZM321.657 162.605C322.18 162.605 322.611 162.471 322.949 162.202C323.287 161.934 323.538 161.581 323.7 161.143C323.862 160.706 323.944 160.232 323.944 159.722C323.944 159.211 323.862 158.736 323.7 158.295C323.538 157.854 323.287 157.498 322.949 157.226C322.611 156.954 322.18 156.818 321.657 156.818C321.133 156.818 320.702 156.954 320.364 157.226C320.026 157.498 319.776 157.854 319.613 158.295C319.451 158.736 319.37 159.211 319.37 159.722C319.37 160.232 319.451 160.706 319.613 161.143C319.776 161.581 320.026 161.934 320.364 162.202C320.702 162.471 321.133 162.605 321.657 162.605ZM330.01 163.659C329.294 163.659 328.678 163.49 328.161 163.152C327.644 162.814 327.246 162.348 326.968 161.755C326.689 161.162 326.55 160.484 326.55 159.722C326.55 158.946 326.692 158.262 326.977 157.668C327.266 157.072 327.667 156.606 328.181 156.271C328.698 155.933 329.301 155.764 329.99 155.764C330.527 155.764 331.011 155.864 331.442 156.062C331.873 156.261 332.226 156.54 332.501 156.898C332.776 157.256 332.947 157.673 333.013 158.151H331.84C331.75 157.803 331.551 157.494 331.243 157.226C330.938 156.954 330.527 156.818 330.01 156.818C329.553 156.818 329.152 156.937 328.807 157.176C328.466 157.411 328.199 157.745 328.007 158.175C327.818 158.603 327.723 159.105 327.723 159.682C327.723 160.272 327.816 160.786 328.002 161.223C328.191 161.661 328.456 162 328.797 162.242C329.142 162.484 329.546 162.605 330.01 162.605C330.315 162.605 330.592 162.552 330.84 162.446C331.089 162.34 331.299 162.188 331.472 161.989C331.644 161.79 331.767 161.551 331.84 161.273H333.013C332.947 161.723 332.783 162.129 332.521 162.491C332.262 162.849 331.919 163.134 331.492 163.346C331.067 163.555 330.574 163.659 330.01 163.659ZM337.93 163.659C337.194 163.659 336.559 163.497 336.026 163.172C335.495 162.844 335.086 162.386 334.798 161.8C334.513 161.21 334.37 160.524 334.37 159.741C334.37 158.959 334.513 158.27 334.798 157.673C335.086 157.073 335.487 156.606 336.001 156.271C336.518 155.933 337.121 155.764 337.811 155.764C338.208 155.764 338.601 155.83 338.989 155.963C339.377 156.096 339.73 156.311 340.048 156.609C340.366 156.904 340.619 157.295 340.808 157.783C340.997 158.27 341.092 158.87 341.092 159.582V160.08H335.205V159.065H339.899C339.899 158.634 339.812 158.25 339.64 157.912C339.471 157.574 339.229 157.307 338.914 157.112C338.603 156.916 338.235 156.818 337.811 156.818C337.343 156.818 336.939 156.934 336.597 157.166C336.259 157.395 335.999 157.693 335.817 158.061C335.635 158.429 335.544 158.823 335.544 159.244V159.92C335.544 160.497 335.643 160.986 335.842 161.387C336.044 161.785 336.324 162.088 336.682 162.297C337.04 162.502 337.456 162.605 337.93 162.605C338.238 162.605 338.517 162.562 338.765 162.476C339.017 162.386 339.234 162.254 339.416 162.078C339.599 161.899 339.74 161.677 339.839 161.412L340.972 161.73C340.853 162.115 340.653 162.453 340.371 162.744C340.089 163.033 339.741 163.258 339.327 163.42C338.913 163.58 338.447 163.659 337.93 163.659ZM348.286 157.574L347.232 157.872C347.165 157.696 347.068 157.526 346.938 157.36C346.812 157.191 346.64 157.052 346.421 156.942C346.203 156.833 345.923 156.778 345.581 156.778C345.114 156.778 344.724 156.886 344.413 157.102C344.105 157.314 343.95 157.584 343.95 157.912C343.95 158.204 344.057 158.434 344.269 158.603C344.481 158.772 344.812 158.913 345.263 159.026L346.396 159.304C347.079 159.47 347.588 159.723 347.923 160.065C348.258 160.403 348.425 160.839 348.425 161.372C348.425 161.81 348.299 162.201 348.047 162.545C347.798 162.89 347.45 163.162 347.003 163.361C346.556 163.56 346.035 163.659 345.442 163.659C344.663 163.659 344.018 163.49 343.508 163.152C342.998 162.814 342.674 162.32 342.539 161.67L343.652 161.392C343.758 161.803 343.959 162.111 344.254 162.317C344.552 162.522 344.941 162.625 345.422 162.625C345.969 162.625 346.403 162.509 346.725 162.277C347.049 162.042 347.212 161.76 347.212 161.432C347.212 161.167 347.119 160.945 346.933 160.766C346.748 160.583 346.463 160.447 346.078 160.358L344.806 160.06C344.106 159.894 343.593 159.637 343.264 159.289C342.94 158.938 342.777 158.499 342.777 157.972C342.777 157.541 342.898 157.16 343.14 156.828C343.385 156.497 343.718 156.237 344.139 156.048C344.564 155.859 345.044 155.764 345.581 155.764C346.337 155.764 346.93 155.93 347.361 156.261C347.795 156.593 348.103 157.03 348.286 157.574ZM355.6 157.574L354.546 157.872C354.48 157.696 354.382 157.526 354.253 157.36C354.127 157.191 353.955 157.052 353.736 156.942C353.517 156.833 353.237 156.778 352.896 156.778C352.428 156.778 352.039 156.886 351.727 157.102C351.419 157.314 351.265 157.584 351.265 157.912C351.265 158.204 351.371 158.434 351.583 158.603C351.795 158.772 352.127 158.913 352.577 159.026L353.711 159.304C354.394 159.47 354.902 159.723 355.237 160.065C355.572 160.403 355.739 160.839 355.739 161.372C355.739 161.81 355.613 162.201 355.362 162.545C355.113 162.89 354.765 163.162 354.317 163.361C353.87 163.56 353.35 163.659 352.756 163.659C351.978 163.659 351.333 163.49 350.822 163.152C350.312 162.814 349.989 162.32 349.853 161.67L350.967 161.392C351.073 161.803 351.273 162.111 351.568 162.317C351.866 162.522 352.256 162.625 352.737 162.625C353.283 162.625 353.718 162.509 354.039 162.277C354.364 162.042 354.526 161.76 354.526 161.432C354.526 161.167 354.433 160.945 354.248 160.766C354.062 160.583 353.777 160.447 353.393 160.358L352.12 160.06C351.421 159.894 350.907 159.637 350.579 159.289C350.254 158.938 350.092 158.499 350.092 157.972C350.092 157.541 350.213 157.16 350.455 156.828C350.7 156.497 351.033 156.237 351.454 156.048C351.878 155.859 352.359 155.764 352.896 155.764C353.651 155.764 354.245 155.93 354.675 156.261C355.11 156.593 355.418 157.03 355.6 157.574ZM358.361 163.58C358.115 163.58 357.905 163.492 357.729 163.316C357.554 163.14 357.466 162.93 357.466 162.685C357.466 162.439 357.554 162.229 357.729 162.053C357.905 161.878 358.115 161.79 358.361 161.79C358.606 161.79 358.816 161.878 358.992 162.053C359.168 162.229 359.256 162.439 359.256 162.685C359.256 162.847 359.214 162.996 359.131 163.132C359.052 163.268 358.944 163.377 358.808 163.46C358.675 163.54 358.526 163.58 358.361 163.58Z" fill="white" fill-opacity="0.95"/>
<path d="M371.026 155.864C370.966 155.36 370.724 154.969 370.3 154.69C369.876 154.412 369.355 154.273 368.739 154.273C368.288 154.273 367.894 154.346 367.556 154.491C367.221 154.637 366.959 154.838 366.77 155.093C366.584 155.348 366.492 155.638 366.492 155.963C366.492 156.235 366.556 156.469 366.686 156.664C366.818 156.856 366.987 157.017 367.193 157.146C367.398 157.272 367.614 157.377 367.839 157.46C368.064 157.539 368.271 157.604 368.46 157.653L369.494 157.932C369.76 158.001 370.055 158.098 370.379 158.22C370.708 158.343 371.021 158.51 371.319 158.722C371.621 158.931 371.869 159.2 372.065 159.528C372.26 159.856 372.358 160.259 372.358 160.736C372.358 161.286 372.214 161.783 371.926 162.227C371.641 162.671 371.223 163.024 370.673 163.286C370.126 163.548 369.461 163.679 368.679 163.679C367.95 163.679 367.319 163.561 366.785 163.326C366.255 163.091 365.837 162.763 365.532 162.342C365.231 161.921 365.06 161.432 365.02 160.875H366.293C366.326 161.259 366.455 161.578 366.681 161.83C366.909 162.078 367.198 162.264 367.546 162.386C367.897 162.506 368.275 162.565 368.679 162.565C369.15 162.565 369.572 162.489 369.947 162.337C370.321 162.181 370.618 161.965 370.837 161.69C371.056 161.412 371.165 161.087 371.165 160.716C371.165 160.378 371.07 160.103 370.882 159.891C370.693 159.679 370.444 159.506 370.136 159.374C369.828 159.241 369.494 159.125 369.137 159.026L367.884 158.668C367.088 158.439 366.459 158.112 365.994 157.688C365.53 157.264 365.298 156.709 365.298 156.023C365.298 155.453 365.453 154.955 365.761 154.531C366.072 154.104 366.49 153.772 367.014 153.537C367.541 153.298 368.129 153.179 368.779 153.179C369.435 153.179 370.018 153.297 370.529 153.532C371.039 153.764 371.443 154.082 371.742 154.487C372.043 154.891 372.202 155.35 372.219 155.864H371.026ZM375.4 158.906V163.5H374.226V153.318H375.4V157.057H375.499C375.678 156.662 375.946 156.349 376.304 156.117C376.666 155.882 377.146 155.764 377.746 155.764C378.266 155.764 378.722 155.869 379.113 156.077C379.504 156.283 379.808 156.599 380.023 157.027C380.242 157.451 380.351 157.991 380.351 158.648V163.5H379.178V158.727C379.178 158.121 379.02 157.652 378.706 157.32C378.394 156.986 377.962 156.818 377.408 156.818C377.024 156.818 376.679 156.899 376.374 157.062C376.072 157.224 375.834 157.461 375.658 157.773C375.486 158.084 375.4 158.462 375.4 158.906ZM385.6 163.659C384.911 163.659 384.306 163.495 383.785 163.167C383.268 162.839 382.864 162.38 382.572 161.79C382.284 161.2 382.14 160.51 382.14 159.722C382.14 158.926 382.284 158.232 382.572 157.638C382.864 157.045 383.268 156.585 383.785 156.256C384.306 155.928 384.911 155.764 385.6 155.764C386.289 155.764 386.893 155.928 387.41 156.256C387.93 156.585 388.334 157.045 388.623 157.638C388.914 158.232 389.06 158.926 389.06 159.722C389.06 160.51 388.914 161.2 388.623 161.79C388.334 162.38 387.93 162.839 387.41 163.167C386.893 163.495 386.289 163.659 385.6 163.659ZM385.6 162.605C386.124 162.605 386.555 162.471 386.893 162.202C387.231 161.934 387.481 161.581 387.643 161.143C387.806 160.706 387.887 160.232 387.887 159.722C387.887 159.211 387.806 158.736 387.643 158.295C387.481 157.854 387.231 157.498 386.893 157.226C386.555 156.954 386.124 156.818 385.6 156.818C385.076 156.818 384.645 156.954 384.307 157.226C383.969 157.498 383.719 157.854 383.557 158.295C383.394 158.736 383.313 159.211 383.313 159.722C383.313 160.232 383.394 160.706 383.557 161.143C383.719 161.581 383.969 161.934 384.307 162.202C384.645 162.471 385.076 162.605 385.6 162.605ZM392.322 163.5L389.995 155.864H391.228L392.878 161.71H392.958L394.589 155.864H395.841L397.452 161.69H397.532L399.182 155.864H400.415L398.089 163.5H396.935L395.265 157.634H395.145L393.475 163.5H392.322ZM200.074 183.5V175.864H201.207V177.057H201.307C201.466 176.649 201.723 176.333 202.077 176.107C202.432 175.879 202.858 175.764 203.355 175.764C203.859 175.764 204.278 175.879 204.613 176.107C204.951 176.333 205.214 176.649 205.403 177.057H205.483C205.679 176.662 205.972 176.349 206.363 176.117C206.754 175.882 207.223 175.764 207.77 175.764C208.453 175.764 209.011 175.978 209.445 176.406C209.879 176.83 210.097 177.491 210.097 178.389V183.5H208.923V178.389C208.923 177.826 208.769 177.423 208.461 177.181C208.153 176.939 207.79 176.818 207.372 176.818C206.835 176.818 206.419 176.981 206.124 177.305C205.829 177.627 205.682 178.035 205.682 178.528V183.5H204.489V178.27C204.489 177.836 204.348 177.486 204.066 177.221C203.784 176.952 203.421 176.818 202.977 176.818C202.672 176.818 202.387 176.899 202.122 177.062C201.86 177.224 201.648 177.45 201.486 177.738C201.327 178.023 201.247 178.353 201.247 178.727V183.5H200.074ZM215.344 183.659C214.655 183.659 214.05 183.495 213.529 183.167C213.012 182.839 212.608 182.38 212.316 181.79C212.028 181.2 211.884 180.51 211.884 179.722C211.884 178.926 212.028 178.232 212.316 177.638C212.608 177.045 213.012 176.585 213.529 176.256C214.05 175.928 214.655 175.764 215.344 175.764C216.033 175.764 216.637 175.928 217.154 176.256C217.674 176.585 218.078 177.045 218.367 177.638C218.658 178.232 218.804 178.926 218.804 179.722C218.804 180.51 218.658 181.2 218.367 181.79C218.078 182.38 217.674 182.839 217.154 183.167C216.637 183.495 216.033 183.659 215.344 183.659ZM215.344 182.605C215.868 182.605 216.299 182.471 216.637 182.202C216.975 181.934 217.225 181.581 217.387 181.143C217.55 180.706 217.631 180.232 217.631 179.722C217.631 179.211 217.55 178.736 217.387 178.295C217.225 177.854 216.975 177.498 216.637 177.226C216.299 176.954 215.868 176.818 215.344 176.818C214.82 176.818 214.39 176.954 214.051 177.226C213.713 177.498 213.463 177.854 213.301 178.295C213.138 178.736 213.057 179.211 213.057 179.722C213.057 180.232 213.138 180.706 213.301 181.143C213.463 181.581 213.713 181.934 214.051 182.202C214.39 182.471 214.82 182.605 215.344 182.605ZM220.595 183.5V175.864H221.729V177.017H221.808C221.948 176.639 222.2 176.333 222.564 176.097C222.929 175.862 223.34 175.744 223.797 175.744C223.883 175.744 223.991 175.746 224.12 175.749C224.249 175.753 224.347 175.758 224.414 175.764V176.957C224.374 176.947 224.283 176.933 224.14 176.913C224.001 176.889 223.853 176.878 223.698 176.878C223.326 176.878 222.995 176.956 222.703 177.112C222.415 177.264 222.186 177.476 222.017 177.748C221.852 178.016 221.769 178.323 221.769 178.668V183.5H220.595ZM228.774 183.659C228.038 183.659 227.403 183.497 226.869 183.172C226.339 182.844 225.93 182.386 225.642 181.8C225.356 181.21 225.214 180.524 225.214 179.741C225.214 178.959 225.356 178.27 225.642 177.673C225.93 177.073 226.331 176.606 226.845 176.271C227.362 175.933 227.965 175.764 228.654 175.764C229.052 175.764 229.445 175.83 229.833 175.963C230.22 176.096 230.573 176.311 230.892 176.609C231.21 176.904 231.463 177.295 231.652 177.783C231.841 178.27 231.936 178.87 231.936 179.582V180.08H226.049V179.065H230.742C230.742 178.634 230.656 178.25 230.484 177.912C230.315 177.574 230.073 177.307 229.758 177.112C229.446 176.916 229.079 176.818 228.654 176.818C228.187 176.818 227.783 176.934 227.441 177.166C227.103 177.395 226.843 177.693 226.661 178.061C226.478 178.429 226.387 178.823 226.387 179.244V179.92C226.387 180.497 226.487 180.986 226.686 181.387C226.888 181.785 227.168 182.088 227.526 182.297C227.884 182.502 228.3 182.605 228.774 182.605C229.082 182.605 229.36 182.562 229.609 182.476C229.861 182.386 230.078 182.254 230.26 182.078C230.442 181.899 230.583 181.677 230.683 181.412L231.816 181.73C231.697 182.115 231.496 182.453 231.215 182.744C230.933 183.033 230.585 183.258 230.171 183.42C229.756 183.58 229.291 183.659 228.774 183.659ZM234.575 183.58C234.33 183.58 234.12 183.492 233.944 183.316C233.768 183.14 233.681 182.93 233.681 182.685C233.681 182.439 233.768 182.229 233.944 182.053C234.12 181.878 234.33 181.79 234.575 181.79C234.821 181.79 235.031 181.878 235.207 182.053C235.383 182.229 235.47 182.439 235.47 182.685C235.47 182.847 235.429 182.996 235.346 183.132C235.267 183.268 235.159 183.377 235.023 183.46C234.89 183.54 234.741 183.58 234.575 183.58ZM238.431 183.58C238.186 183.58 237.975 183.492 237.8 183.316C237.624 183.14 237.536 182.93 237.536 182.685C237.536 182.439 237.624 182.229 237.8 182.053C237.975 181.878 238.186 181.79 238.431 181.79C238.676 181.79 238.887 181.878 239.062 182.053C239.238 182.229 239.326 182.439 239.326 182.685C239.326 182.847 239.284 182.996 239.202 183.132C239.122 183.268 239.014 183.377 238.878 183.46C238.746 183.54 238.597 183.58 238.431 183.58ZM242.286 183.58C242.041 183.58 241.831 183.492 241.655 183.316C241.479 183.14 241.392 182.93 241.392 182.685C241.392 182.439 241.479 182.229 241.655 182.053C241.831 181.878 242.041 181.79 242.286 181.79C242.532 181.79 242.742 181.878 242.918 182.053C243.093 182.229 243.181 182.439 243.181 182.685C243.181 182.847 243.14 182.996 243.057 183.132C242.977 183.268 242.87 183.377 242.734 183.46C242.601 183.54 242.452 183.58 242.286 183.58Z" fill="#64B4FA"/>
<path d="M364.225 166.284H400.893V167.239H364.225V166.284ZM199 186.284H244.215V187.239H199V186.284Z" fill="#64B4FA"/>
<path d="M461.707 110.5L465.853 106.353C465.9 106.307 465.937 106.252 465.962 106.191C465.987 106.131 466 106.066 466 106C466 105.934 465.987 105.869 465.962 105.809C465.937 105.748 465.9 105.693 465.853 105.646C465.807 105.6 465.752 105.563 465.691 105.538C465.631 105.513 465.566 105.5 465.5 105.5C465.434 105.5 465.369 105.513 465.309 105.538C465.248 105.563 465.193 105.6 465.146 105.646L461 109.793L456.853 105.646C456.807 105.6 456.752 105.562 456.691 105.537C456.63 105.511 456.565 105.498 456.499 105.498C456.433 105.498 456.368 105.511 456.307 105.536C456.246 105.561 456.191 105.598 456.144 105.644C456.098 105.691 456.061 105.746 456.036 105.807C456.011 105.868 455.998 105.933 455.998 105.999C455.998 106.065 456.011 106.13 456.037 106.191C456.062 106.252 456.1 106.307 456.146 106.353L460.293 110.5L456.146 114.646C456.1 114.693 456.063 114.748 456.038 114.809C456.013 114.869 456 114.934 456 115C456 115.066 456.013 115.131 456.038 115.191C456.063 115.252 456.1 115.307 456.146 115.353C456.193 115.4 456.248 115.437 456.309 115.462C456.369 115.487 456.434 115.5 456.5 115.5C456.566 115.5 456.631 115.487 456.691 115.462C456.752 115.437 456.807 115.4 456.853 115.353L461 111.207L465.146 115.353C465.24 115.447 465.367 115.5 465.5 115.5C465.633 115.5 465.76 115.447 465.853 115.353C465.947 115.26 466 115.133 466 115C466 114.867 465.947 114.74 465.853 114.646L461.707 110.5Z" fill="white" fill-opacity="0.95"/>
<rect x="331.5" y="205" width="65" height="31" rx="15.5" stroke="white" stroke-opacity="0.3"/>
<path d="M344.513 226.5V214.864H346.268V224.989H351.541V226.5H344.513ZM355.947 226.693C355.394 226.693 354.894 226.591 354.447 226.386C354 226.178 353.646 225.877 353.385 225.483C353.127 225.089 352.999 224.606 352.999 224.034C352.999 223.542 353.093 223.136 353.283 222.818C353.472 222.5 353.728 222.248 354.05 222.062C354.372 221.877 354.732 221.737 355.129 221.642C355.527 221.547 355.932 221.475 356.345 221.426C356.868 221.366 357.292 221.316 357.618 221.278C357.944 221.237 358.18 221.17 358.328 221.08C358.476 220.989 358.55 220.841 358.55 220.636V220.597C358.55 220.1 358.41 219.716 358.129 219.443C357.853 219.17 357.44 219.034 356.891 219.034C356.319 219.034 355.868 219.161 355.538 219.415C355.213 219.665 354.987 219.943 354.862 220.25L353.266 219.886C353.455 219.356 353.732 218.928 354.095 218.602C354.463 218.273 354.885 218.034 355.362 217.886C355.839 217.735 356.341 217.659 356.868 217.659C357.216 217.659 357.586 217.701 357.976 217.784C358.37 217.864 358.737 218.011 359.078 218.227C359.423 218.443 359.705 218.752 359.925 219.153C360.144 219.551 360.254 220.068 360.254 220.705V226.5H358.595V225.307H358.527C358.417 225.527 358.252 225.742 358.033 225.955C357.813 226.167 357.531 226.343 357.186 226.483C356.841 226.623 356.429 226.693 355.947 226.693ZM356.317 225.33C356.786 225.33 357.188 225.237 357.521 225.051C357.858 224.866 358.114 224.623 358.288 224.324C358.466 224.021 358.555 223.697 358.555 223.352V222.227C358.495 222.288 358.377 222.345 358.203 222.398C358.033 222.447 357.838 222.491 357.618 222.528C357.398 222.562 357.184 222.595 356.976 222.625C356.768 222.652 356.593 222.674 356.453 222.693C356.124 222.735 355.822 222.805 355.55 222.903C355.281 223.002 355.065 223.144 354.902 223.33C354.743 223.511 354.663 223.754 354.663 224.057C354.663 224.477 354.819 224.795 355.129 225.011C355.44 225.223 355.836 225.33 356.317 225.33ZM362.653 226.5V214.864H364.352V219.188H364.455C364.553 219.006 364.695 218.795 364.881 218.557C365.066 218.318 365.324 218.11 365.653 217.932C365.983 217.75 366.419 217.659 366.96 217.659C367.665 217.659 368.294 217.837 368.847 218.193C369.4 218.549 369.833 219.062 370.148 219.733C370.466 220.403 370.625 221.21 370.625 222.153C370.625 223.097 370.468 223.905 370.153 224.58C369.839 225.25 369.407 225.767 368.858 226.131C368.309 226.491 367.682 226.67 366.977 226.67C366.447 226.67 366.013 226.581 365.676 226.403C365.343 226.225 365.081 226.017 364.892 225.778C364.703 225.54 364.557 225.328 364.455 225.142H364.312V226.5H362.653ZM364.318 222.136C364.318 222.75 364.407 223.288 364.585 223.75C364.763 224.212 365.021 224.574 365.358 224.835C365.695 225.093 366.108 225.222 366.597 225.222C367.104 225.222 367.528 225.087 367.869 224.818C368.21 224.545 368.468 224.176 368.642 223.71C368.82 223.244 368.909 222.72 368.909 222.136C368.909 221.561 368.822 221.044 368.648 220.585C368.477 220.127 368.22 219.765 367.875 219.5C367.534 219.235 367.108 219.102 366.597 219.102C366.104 219.102 365.688 219.229 365.347 219.483C365.009 219.737 364.754 220.091 364.58 220.545C364.405 221 364.318 221.53 364.318 222.136ZM376.294 226.676C375.434 226.676 374.694 226.492 374.072 226.125C373.455 225.754 372.978 225.233 372.641 224.562C372.307 223.888 372.141 223.098 372.141 222.193C372.141 221.299 372.307 220.511 372.641 219.83C372.978 219.148 373.447 218.616 374.05 218.233C374.656 217.85 375.364 217.659 376.175 217.659C376.667 217.659 377.144 217.741 377.607 217.903C378.069 218.066 378.483 218.322 378.851 218.67C379.218 219.019 379.508 219.472 379.72 220.028C379.932 220.581 380.038 221.254 380.038 222.045V222.648H373.101V221.375H378.374C378.374 220.928 378.283 220.532 378.101 220.188C377.919 219.839 377.663 219.564 377.334 219.364C377.008 219.163 376.625 219.062 376.186 219.062C375.709 219.062 375.292 219.18 374.936 219.415C374.584 219.646 374.311 219.949 374.118 220.324C373.929 220.695 373.834 221.098 373.834 221.534V222.528C373.834 223.112 373.936 223.608 374.141 224.017C374.349 224.426 374.639 224.739 375.01 224.955C375.381 225.167 375.815 225.273 376.311 225.273C376.633 225.273 376.927 225.227 377.192 225.136C377.457 225.042 377.686 224.902 377.879 224.716C378.072 224.53 378.22 224.301 378.322 224.028L379.93 224.318C379.802 224.792 379.571 225.206 379.237 225.562C378.908 225.915 378.493 226.189 377.993 226.386C377.497 226.58 376.93 226.676 376.294 226.676ZM383.622 214.864V226.5H381.923V214.864H383.622Z" fill="white" fill-opacity="0.95"/>
<rect x="405" y="204.5" width="66" height="32" rx="16" fill="white" fill-opacity="0.95"/>
<path d="M418.513 226.5V214.864H420.268V224.989H425.541V226.5H418.513ZM429.947 226.693C429.394 226.693 428.894 226.591 428.447 226.386C428 226.178 427.646 225.877 427.385 225.483C427.127 225.089 426.999 224.606 426.999 224.034C426.999 223.542 427.093 223.136 427.283 222.818C427.472 222.5 427.728 222.248 428.05 222.062C428.372 221.877 428.732 221.737 429.129 221.642C429.527 221.547 429.932 221.475 430.345 221.426C430.868 221.366 431.292 221.316 431.618 221.278C431.944 221.237 432.18 221.17 432.328 221.08C432.476 220.989 432.55 220.841 432.55 220.636V220.597C432.55 220.1 432.41 219.716 432.129 219.443C431.853 219.17 431.44 219.034 430.891 219.034C430.319 219.034 429.868 219.161 429.538 219.415C429.213 219.665 428.987 219.943 428.862 220.25L427.266 219.886C427.455 219.356 427.732 218.928 428.095 218.602C428.463 218.273 428.885 218.034 429.362 217.886C429.839 217.735 430.341 217.659 430.868 217.659C431.216 217.659 431.586 217.701 431.976 217.784C432.37 217.864 432.737 218.011 433.078 218.227C433.423 218.443 433.705 218.752 433.925 219.153C434.144 219.551 434.254 220.068 434.254 220.705V226.5H432.595V225.307H432.527C432.417 225.527 432.252 225.742 432.033 225.955C431.813 226.167 431.531 226.343 431.186 226.483C430.841 226.623 430.429 226.693 429.947 226.693ZM430.317 225.33C430.786 225.33 431.188 225.237 431.521 225.051C431.858 224.866 432.114 224.623 432.288 224.324C432.466 224.021 432.555 223.697 432.555 223.352V222.227C432.495 222.288 432.377 222.345 432.203 222.398C432.033 222.447 431.838 222.491 431.618 222.528C431.398 222.562 431.184 222.595 430.976 222.625C430.768 222.652 430.593 222.674 430.453 222.693C430.124 222.735 429.822 222.805 429.55 222.903C429.281 223.002 429.065 223.144 428.902 223.33C428.743 223.511 428.663 223.754 428.663 224.057C428.663 224.477 428.819 224.795 429.129 225.011C429.44 225.223 429.836 225.33 430.317 225.33ZM436.653 226.5V214.864H438.352V219.188H438.455C438.553 219.006 438.695 218.795 438.881 218.557C439.066 218.318 439.324 218.11 439.653 217.932C439.983 217.75 440.419 217.659 440.96 217.659C441.665 217.659 442.294 217.837 442.847 218.193C443.4 218.549 443.833 219.062 444.148 219.733C444.466 220.403 444.625 221.21 444.625 222.153C444.625 223.097 444.468 223.905 444.153 224.58C443.839 225.25 443.407 225.767 442.858 226.131C442.309 226.491 441.682 226.67 440.977 226.67C440.447 226.67 440.013 226.581 439.676 226.403C439.343 226.225 439.081 226.017 438.892 225.778C438.703 225.54 438.557 225.328 438.455 225.142H438.312V226.5H436.653ZM438.318 222.136C438.318 222.75 438.407 223.288 438.585 223.75C438.763 224.212 439.021 224.574 439.358 224.835C439.695 225.093 440.108 225.222 440.597 225.222C441.104 225.222 441.528 225.087 441.869 224.818C442.21 224.545 442.468 224.176 442.642 223.71C442.82 223.244 442.909 222.72 442.909 222.136C442.909 221.561 442.822 221.044 442.648 220.585C442.477 220.127 442.22 219.765 441.875 219.5C441.534 219.235 441.108 219.102 440.597 219.102C440.104 219.102 439.688 219.229 439.347 219.483C439.009 219.737 438.754 220.091 438.58 220.545C438.405 221 438.318 221.53 438.318 222.136ZM448.232 214.864V226.5H446.533V214.864H448.232ZM454.278 226.676C453.419 226.676 452.678 226.492 452.057 226.125C451.439 225.754 450.962 225.233 450.625 224.562C450.292 223.888 450.125 223.098 450.125 222.193C450.125 221.299 450.292 220.511 450.625 219.83C450.962 219.148 451.432 218.616 452.034 218.233C452.64 217.85 453.348 217.659 454.159 217.659C454.652 217.659 455.129 217.741 455.591 217.903C456.053 218.066 456.468 218.322 456.835 218.67C457.203 219.019 457.492 219.472 457.705 220.028C457.917 220.581 458.023 221.254 458.023 222.045V222.648H451.085V221.375H456.358C456.358 220.928 456.267 220.532 456.085 220.188C455.903 219.839 455.648 219.564 455.318 219.364C454.992 219.163 454.61 219.062 454.17 219.062C453.693 219.062 453.277 219.18 452.92 219.415C452.568 219.646 452.295 219.949 452.102 220.324C451.913 220.695 451.818 221.098 451.818 221.534V222.528C451.818 223.112 451.92 223.608 452.125 224.017C452.333 224.426 452.623 224.739 452.994 224.955C453.366 225.167 453.799 225.273 454.295 225.273C454.617 225.273 454.911 225.227 455.176 225.136C455.441 225.042 455.67 224.902 455.864 224.716C456.057 224.53 456.205 224.301 456.307 224.028L457.915 224.318C457.786 224.792 457.555 225.206 457.222 225.562C456.892 225.915 456.477 226.189 455.977 226.386C455.481 226.58 454.915 226.676 454.278 226.676Z" fill="black" fill-opacity="0.95"/>
</g>
<path d="M0 337H634C634 349.703 623.703 360 611 360H23C10.2974 360 0 349.703 0 337Z" fill="#27A17A"/>
<defs>
<filter id="filter0_d_2125_7145" x="99" y="60.5" width="436" height="264" filterUnits="userSpaceOnUse" color-interpolation-filters="sRGB">
<feFlood flood-opacity="0" result="BackgroundImageFix"/>
<feColorMatrix in="SourceAlpha" type="matrix" values="0 0 0 0 0 0 0 0 0 0 0 0 0 0 0 0 0 0 127 0" result="hardAlpha"/>
<feOffset dy="24"/>
<feGaussianBlur stdDeviation="24"/>
<feColorMatrix type="matrix" values="0 0 0 0 0 0 0 0 0 0 0 0 0 0 0 0 0 0 0.2 0"/>
<feBlend mode="normal" in2="BackgroundImageFix" result="effect1_dropShadow_2125_7145"/>
<feBlend mode="normal" in="SourceGraphic" in2="effect1_dropShadow_2125_7145" result="shape"/>
</filter>
</defs>
</svg>
