<svg width="1300" height="74" viewBox="0 0 1300 74" fill="none" xmlns="http://www.w3.org/2000/svg">
<mask id="path-1-inside-1_2129_33344" fill="white">
<path d="M0 0H325V74H0V0Z"/>
</mask>
<path d="M0 0H325V74H0V0Z" fill="#1A1A1A"/>
<path d="M325 74V75H326V74H325ZM324 0V74H326V0H324ZM325 73H0V75H325V73Z" fill="#707070" mask="url(#path-1-inside-1_2129_33344)"/>
<path d="M41.4105 44.1989C40.473 44.1989 39.6373 44.0379 38.9034 43.7159C38.1742 43.3939 37.5942 42.9465 37.1633 42.3736C36.7372 41.7959 36.5052 41.1259 36.4673 40.3636H38.2571C38.2949 40.8324 38.4559 41.2372 38.74 41.5781C39.0241 41.9143 39.3958 42.1747 39.8551 42.3594C40.3143 42.544 40.8233 42.6364 41.3821 42.6364C42.0071 42.6364 42.561 42.5275 43.044 42.3097C43.5269 42.0919 43.9057 41.7888 44.1803 41.4006C44.455 41.0123 44.5923 40.5625 44.5923 40.0511C44.5923 39.5161 44.4597 39.045 44.1946 38.6378C43.9294 38.2259 43.5411 37.9039 43.0298 37.6719C42.5184 37.4399 41.8934 37.3239 41.1548 37.3239H39.99V35.7614H41.1548C41.7324 35.7614 42.2391 35.6572 42.6747 35.4489C43.115 35.2405 43.4583 34.947 43.7045 34.5682C43.9554 34.1894 44.0809 33.7443 44.0809 33.233C44.0809 32.7405 43.972 32.312 43.7542 31.9474C43.5364 31.5829 43.2286 31.2988 42.8309 31.0952C42.4379 30.8916 41.9739 30.7898 41.4389 30.7898C40.937 30.7898 40.4635 30.8821 40.0184 31.0668C39.5781 31.2467 39.2182 31.5095 38.9389 31.8551C38.6595 32.196 38.508 32.608 38.4843 33.0909H36.7798C36.8082 32.3286 37.0378 31.661 37.4687 31.0881C37.8996 30.5104 38.463 30.0606 39.159 29.7386C39.8598 29.4167 40.6292 29.2557 41.4673 29.2557C42.3669 29.2557 43.1387 29.438 43.7826 29.8026C44.4266 30.1624 44.9213 30.6383 45.267 31.2301C45.6126 31.822 45.7855 32.4612 45.7855 33.1477C45.7855 33.9669 45.57 34.6652 45.1392 35.2429C44.713 35.8205 44.133 36.2206 43.3991 36.4432V36.5568C44.3177 36.7083 45.035 37.099 45.5511 37.7287C46.0672 38.3537 46.3252 39.1278 46.3252 40.0511C46.3252 40.8419 46.1098 41.5521 45.6789 42.1818C45.2528 42.8068 44.6704 43.2992 43.9318 43.6591C43.1931 44.0189 42.3527 44.1989 41.4105 44.1989ZM50.5813 44.1136C50.2309 44.1136 49.9302 43.9882 49.6793 43.7372C49.4283 43.4863 49.3029 43.1856 49.3029 42.8352C49.3029 42.4848 49.4283 42.1842 49.6793 41.9332C49.9302 41.6823 50.2309 41.5568 50.5813 41.5568C50.9316 41.5568 51.2323 41.6823 51.4833 41.9332C51.7342 42.1842 51.8597 42.4848 51.8597 42.8352C51.8597 43.0672 51.8005 43.2803 51.6821 43.4744C51.5685 43.6686 51.4146 43.8248 51.2205 43.9432C51.0311 44.0568 50.818 44.1136 50.5813 44.1136ZM61.7614 44V29.4545H66.6761C67.8172 29.4545 68.75 29.6605 69.4744 30.0724C70.2036 30.4796 70.7434 31.0312 71.0938 31.7273C71.4441 32.4233 71.6193 33.1998 71.6193 34.0568C71.6193 34.9138 71.4441 35.6927 71.0938 36.3935C70.7481 37.0942 70.2131 37.6529 69.4886 38.0696C68.7642 38.4815 67.8362 38.6875 66.7045 38.6875H63.1818V37.125H66.6477C67.429 37.125 68.0563 36.9901 68.5298 36.7202C69.0033 36.4503 69.3466 36.0857 69.5597 35.6264C69.7775 35.1624 69.8864 34.6392 69.8864 34.0568C69.8864 33.4744 69.7775 32.9536 69.5597 32.4943C69.3466 32.035 69.0009 31.6752 68.5227 31.4148C68.0445 31.1496 67.41 31.017 66.6193 31.017H63.5227V44H61.7614ZM74.2294 44V33.0909H75.8487V34.7386H75.9624C76.1612 34.1989 76.5211 33.7609 77.0419 33.4247C77.5627 33.0885 78.1499 32.9205 78.8033 32.9205C78.9264 32.9205 79.0803 32.9228 79.2649 32.9276C79.4496 32.9323 79.5893 32.9394 79.6839 32.9489V34.6534C79.6271 34.6392 79.4969 34.6179 79.2933 34.5895C79.0945 34.5563 78.8838 34.5398 78.6612 34.5398C78.1309 34.5398 77.6574 34.651 77.2408 34.8736C76.8288 35.0914 76.5021 35.3944 76.2607 35.7827C76.0239 36.1662 75.9055 36.6042 75.9055 37.0966V44H74.2294ZM85.9126 44.2273C84.8615 44.2273 83.9548 43.9953 83.1925 43.5312C82.4349 43.0625 81.8501 42.4091 81.4382 41.571C81.031 40.7282 80.8274 39.7481 80.8274 38.6307C80.8274 37.5133 81.031 36.5284 81.4382 35.6761C81.8501 34.8191 82.4231 34.1515 83.157 33.6733C83.8956 33.1903 84.7573 32.9489 85.7422 32.9489C86.3104 32.9489 86.8714 33.0436 87.4254 33.233C87.9794 33.4223 88.4837 33.7301 88.9382 34.1562C89.3928 34.5777 89.755 35.1364 90.0249 35.8324C90.2947 36.5284 90.4297 37.3854 90.4297 38.4034V39.1136H82.0206V37.6648H88.7251C88.7251 37.0492 88.602 36.5 88.3558 36.017C88.1143 35.5341 87.7687 35.1529 87.3189 34.8736C86.8738 34.5942 86.3482 34.4545 85.7422 34.4545C85.0746 34.4545 84.4969 34.6203 84.0092 34.9517C83.5263 35.2784 83.1546 35.7045 82.8942 36.2301C82.6338 36.7557 82.5036 37.3191 82.5036 37.9205V38.8864C82.5036 39.7102 82.6456 40.4086 82.9297 40.9815C83.2185 41.5497 83.6186 41.983 84.13 42.2812C84.6413 42.5748 85.2356 42.7216 85.9126 42.7216C86.353 42.7216 86.7507 42.66 87.1058 42.5369C87.4657 42.4091 87.7758 42.2197 88.0362 41.9688C88.2966 41.7131 88.4979 41.3958 88.6399 41.017L90.2592 41.4716C90.0888 42.0208 89.8023 42.5038 89.3999 42.9205C88.9974 43.3324 88.5002 43.6544 87.9084 43.8864C87.3165 44.1136 86.6513 44.2273 85.9126 44.2273ZM100.707 35.5341L99.201 35.9602C99.1063 35.7093 98.9666 35.4654 98.782 35.2287C98.602 34.9872 98.3558 34.7884 98.0433 34.6321C97.7308 34.4759 97.3307 34.3977 96.843 34.3977C96.1754 34.3977 95.6191 34.5516 95.174 34.8594C94.7337 35.1624 94.5135 35.5483 94.5135 36.017C94.5135 36.4337 94.665 36.7628 94.968 37.0043C95.2711 37.2457 95.7446 37.447 96.3885 37.608L98.0078 38.0057C98.9832 38.2424 99.71 38.6046 100.188 39.0923C100.666 39.5753 100.906 40.1979 100.906 40.9602C100.906 41.5852 100.726 42.1439 100.366 42.6364C100.011 43.1288 99.5135 43.517 98.8743 43.8011C98.2351 44.0852 97.4917 44.2273 96.6442 44.2273C95.5315 44.2273 94.6106 43.9858 93.8814 43.5028C93.1522 43.0199 92.6906 42.3144 92.4964 41.3864L94.0874 40.9886C94.2389 41.5758 94.5253 42.0161 94.9467 42.3097C95.3729 42.6032 95.9292 42.75 96.6158 42.75C97.397 42.75 98.0173 42.5843 98.4766 42.2528C98.9406 41.9167 99.1726 41.5142 99.1726 41.0455C99.1726 40.6667 99.04 40.3494 98.7749 40.0938C98.5097 39.8333 98.1025 39.6392 97.5533 39.5114L95.7351 39.0852C94.736 38.8485 94.0021 38.4815 93.5334 37.9844C93.0694 37.4825 92.8374 36.8551 92.8374 36.1023C92.8374 35.4867 93.0102 34.9422 93.3558 34.4688C93.7062 33.9953 94.1821 33.6236 94.7834 33.3537C95.3894 33.0838 96.076 32.9489 96.843 32.9489C97.9226 32.9489 98.7701 33.1856 99.3857 33.6591C100.006 34.1326 100.446 34.7576 100.707 35.5341ZM111.156 35.5341L109.65 35.9602C109.556 35.7093 109.416 35.4654 109.231 35.2287C109.051 34.9872 108.805 34.7884 108.493 34.6321C108.18 34.4759 107.78 34.3977 107.292 34.3977C106.625 34.3977 106.068 34.5516 105.623 34.8594C105.183 35.1624 104.963 35.5483 104.963 36.017C104.963 36.4337 105.114 36.7628 105.417 37.0043C105.72 37.2457 106.194 37.447 106.838 37.608L108.457 38.0057C109.432 38.2424 110.159 38.6046 110.637 39.0923C111.116 39.5753 111.355 40.1979 111.355 40.9602C111.355 41.5852 111.175 42.1439 110.815 42.6364C110.46 43.1288 109.963 43.517 109.324 43.8011C108.684 44.0852 107.941 44.2273 107.093 44.2273C105.981 44.2273 105.06 43.9858 104.331 43.5028C103.601 43.0199 103.14 42.3144 102.946 41.3864L104.537 40.9886C104.688 41.5758 104.975 42.0161 105.396 42.3097C105.822 42.6032 106.378 42.75 107.065 42.75C107.846 42.75 108.467 42.5843 108.926 42.2528C109.39 41.9167 109.622 41.5142 109.622 41.0455C109.622 40.6667 109.489 40.3494 109.224 40.0938C108.959 39.8333 108.552 39.6392 108.002 39.5114L106.184 39.0852C105.185 38.8485 104.451 38.4815 103.983 37.9844C103.519 37.4825 103.287 36.8551 103.287 36.1023C103.287 35.4867 103.459 34.9422 103.805 34.4688C104.155 33.9953 104.631 33.6236 105.233 33.3537C105.839 33.0838 106.525 32.9489 107.292 32.9489C108.372 32.9489 109.219 33.1856 109.835 33.6591C110.455 34.1326 110.895 34.7576 111.156 35.5341ZM118.452 44.2273C117.401 44.2273 116.494 43.9953 115.732 43.5312C114.974 43.0625 114.389 42.4091 113.977 41.571C113.57 40.7282 113.366 39.7481 113.366 38.6307C113.366 37.5133 113.57 36.5284 113.977 35.6761C114.389 34.8191 114.962 34.1515 115.696 33.6733C116.435 33.1903 117.296 32.9489 118.281 32.9489C118.849 32.9489 119.411 33.0436 119.964 33.233C120.518 33.4223 121.023 33.7301 121.477 34.1562C121.932 34.5777 122.294 35.1364 122.564 35.8324C122.834 36.5284 122.969 37.3854 122.969 38.4034V39.1136H114.56V37.6648H121.264C121.264 37.0492 121.141 36.5 120.895 36.017C120.653 35.5341 120.308 35.1529 119.858 34.8736C119.413 34.5942 118.887 34.4545 118.281 34.4545C117.614 34.4545 117.036 34.6203 116.548 34.9517C116.065 35.2784 115.694 35.7045 115.433 36.2301C115.173 36.7557 115.043 37.3191 115.043 37.9205V38.8864C115.043 39.7102 115.185 40.4086 115.469 40.9815C115.758 41.5497 116.158 41.983 116.669 42.2812C117.18 42.5748 117.775 42.7216 118.452 42.7216C118.892 42.7216 119.29 42.66 119.645 42.5369C120.005 42.4091 120.315 42.2197 120.575 41.9688C120.836 41.7131 121.037 41.3958 121.179 41.017L122.798 41.4716C122.628 42.0208 122.341 42.5038 121.939 42.9205C121.536 43.3324 121.039 43.6544 120.447 43.8864C119.856 44.1136 119.19 44.2273 118.452 44.2273ZM129.638 44.2273C128.729 44.2273 127.926 43.9976 127.23 43.5384C126.534 43.0743 125.99 42.4209 125.597 41.5781C125.204 40.7306 125.007 39.7292 125.007 38.5739C125.007 37.428 125.204 36.4337 125.597 35.5909C125.99 34.7481 126.536 34.0971 127.237 33.6378C127.938 33.1785 128.748 32.9489 129.666 32.9489C130.376 32.9489 130.938 33.0672 131.349 33.304C131.766 33.536 132.083 33.8011 132.301 34.0994C132.524 34.393 132.696 34.6345 132.82 34.8239H132.962V29.4545H134.638V44H133.018V42.3239H132.82C132.696 42.5227 132.521 42.7737 132.294 43.0767C132.067 43.375 131.742 43.6425 131.321 43.8793C130.9 44.1113 130.339 44.2273 129.638 44.2273ZM129.865 42.7216C130.537 42.7216 131.106 42.5464 131.57 42.196C132.034 41.8409 132.386 41.3509 132.628 40.7259C132.869 40.0961 132.99 39.3693 132.99 38.5455C132.99 37.7311 132.872 37.0185 132.635 36.4077C132.398 35.7921 132.048 35.3139 131.584 34.973C131.12 34.6274 130.547 34.4545 129.865 34.4545C129.155 34.4545 128.563 34.6368 128.089 35.0014C127.621 35.3613 127.268 35.8513 127.031 36.4716C126.799 37.0871 126.683 37.7784 126.683 38.5455C126.683 39.322 126.802 40.0275 127.038 40.6619C127.28 41.2917 127.635 41.7936 128.104 42.1676C128.577 42.5369 129.164 42.7216 129.865 42.7216Z" fill="white" fill-opacity="0.95"/>
<mask id="path-4-inside-2_2129_33344" fill="white">
<path d="M325 0H650V74H325V0Z"/>
</mask>
<path d="M325 0H650V74H325V0Z" fill="#1A1A1A"/>
<path d="M650 74V75H651V74H650ZM649 0V74H651V0H649ZM650 73H325V75H650V73Z" fill="#707070" mask="url(#path-4-inside-2_2129_33344)"/>
<path d="M355.966 31.017V29.4545H366.875V31.017H362.301V44H360.54V31.017H355.966ZM372.358 44.2273C371.307 44.2273 370.4 43.9953 369.638 43.5312C368.88 43.0625 368.295 42.4091 367.884 41.571C367.476 40.7282 367.273 39.7481 367.273 38.6307C367.273 37.5133 367.476 36.5284 367.884 35.6761C368.295 34.8191 368.868 34.1515 369.602 33.6733C370.341 33.1903 371.203 32.9489 372.188 32.9489C372.756 32.9489 373.317 33.0436 373.871 33.233C374.425 33.4223 374.929 33.7301 375.384 34.1562C375.838 34.5777 376.2 35.1364 376.47 35.8324C376.74 36.5284 376.875 37.3854 376.875 38.4034V39.1136H368.466V37.6648H375.17C375.17 37.0492 375.047 36.5 374.801 36.017C374.56 35.5341 374.214 35.1529 373.764 34.8736C373.319 34.5942 372.794 34.4545 372.188 34.4545C371.52 34.4545 370.942 34.6203 370.455 34.9517C369.972 35.2784 369.6 35.7045 369.339 36.2301C369.079 36.7557 368.949 37.3191 368.949 37.9205V38.8864C368.949 39.7102 369.091 40.4086 369.375 40.9815C369.664 41.5497 370.064 41.983 370.575 42.2812C371.087 42.5748 371.681 42.7216 372.358 42.7216C372.798 42.7216 373.196 42.66 373.551 42.5369C373.911 42.4091 374.221 42.2197 374.482 41.9688C374.742 41.7131 374.943 41.3958 375.085 41.017L376.705 41.4716C376.534 42.0208 376.248 42.5038 375.845 42.9205C375.443 43.3324 374.946 43.6544 374.354 43.8864C373.762 44.1136 373.097 44.2273 372.358 44.2273ZM380.382 33.0909L382.995 37.5511L385.609 33.0909H387.541L384.018 38.5455L387.541 44H385.609L382.995 39.767L380.382 44H378.45L381.916 38.5455L378.45 33.0909H380.382ZM394.677 33.0909V34.5114H389.023V33.0909H394.677ZM390.671 30.4773H392.347V40.875C392.347 41.3485 392.416 41.7036 392.553 41.9403C392.695 42.1723 392.875 42.3286 393.093 42.4091C393.316 42.4848 393.55 42.5227 393.796 42.5227C393.981 42.5227 394.132 42.5133 394.251 42.4943C394.369 42.4706 394.464 42.4517 394.535 42.4375L394.876 43.9432C394.762 43.9858 394.603 44.0284 394.4 44.071C394.196 44.1184 393.938 44.142 393.626 44.142C393.152 44.142 392.688 44.0402 392.234 43.8366C391.784 43.633 391.41 43.3229 391.112 42.9062C390.818 42.4896 390.671 41.964 390.671 41.3295V30.4773ZM407.965 28.7727L403.278 46.1875H401.744L406.431 28.7727H407.965ZM417.566 29.4545V44H415.804V29.4545H417.566ZM425.302 44.2273C424.279 44.2273 423.398 43.9858 422.66 43.5028C421.921 43.0199 421.353 42.3546 420.955 41.5071C420.558 40.6596 420.359 39.6913 420.359 38.6023C420.359 37.4943 420.562 36.5166 420.969 35.669C421.381 34.8168 421.954 34.1515 422.688 33.6733C423.427 33.1903 424.289 32.9489 425.273 32.9489C426.04 32.9489 426.732 33.0909 427.347 33.375C427.963 33.6591 428.467 34.0568 428.86 34.5682C429.253 35.0795 429.497 35.6761 429.592 36.358H427.915C427.788 35.8608 427.504 35.4205 427.063 35.0369C426.628 34.6487 426.04 34.4545 425.302 34.4545C424.648 34.4545 424.076 34.625 423.583 34.9659C423.095 35.3021 422.714 35.7779 422.44 36.3935C422.17 37.0043 422.035 37.7216 422.035 38.5455C422.035 39.3883 422.167 40.1222 422.433 40.7472C422.702 41.3722 423.081 41.8575 423.569 42.2031C424.061 42.5488 424.639 42.7216 425.302 42.7216C425.737 42.7216 426.133 42.6458 426.488 42.4943C426.843 42.3428 427.144 42.125 427.39 41.8409C427.636 41.5568 427.811 41.2159 427.915 40.8182H429.592C429.497 41.4621 429.263 42.0421 428.888 42.5582C428.519 43.0696 428.029 43.4768 427.418 43.7798C426.812 44.0781 426.107 44.2273 425.302 44.2273ZM436.474 44.2273C435.489 44.2273 434.625 43.9929 433.881 43.5241C433.143 43.0554 432.565 42.3996 432.148 41.5568C431.737 40.714 431.531 39.7292 431.531 38.6023C431.531 37.4659 431.737 36.474 432.148 35.6264C432.565 34.7789 433.143 34.1207 433.881 33.652C434.625 33.1832 435.489 32.9489 436.474 32.9489C437.459 32.9489 438.32 33.1832 439.059 33.652C439.802 34.1207 440.38 34.7789 440.792 35.6264C441.209 36.474 441.417 37.4659 441.417 38.6023C441.417 39.7292 441.209 40.714 440.792 41.5568C440.38 42.3996 439.802 43.0554 439.059 43.5241C438.32 43.9929 437.459 44.2273 436.474 44.2273ZM436.474 42.7216C437.222 42.7216 437.837 42.5298 438.32 42.1463C438.803 41.7628 439.161 41.2585 439.393 40.6335C439.625 40.0085 439.741 39.3314 439.741 38.6023C439.741 37.8731 439.625 37.1937 439.393 36.5639C439.161 35.9342 438.803 35.4252 438.32 35.0369C437.837 34.6487 437.222 34.4545 436.474 34.4545C435.726 34.4545 435.11 34.6487 434.627 35.0369C434.144 35.4252 433.787 35.9342 433.555 36.5639C433.323 37.1937 433.207 37.8731 433.207 38.6023C433.207 39.3314 433.323 40.0085 433.555 40.6335C433.787 41.2585 434.144 41.7628 434.627 42.1463C435.11 42.5298 435.726 42.7216 436.474 42.7216ZM445.652 37.4375V44H443.975V33.0909H445.595V34.7955H445.737C445.993 34.2415 446.381 33.7964 446.902 33.4602C447.422 33.1193 448.095 32.9489 448.919 32.9489C449.657 32.9489 450.304 33.1004 450.858 33.4034C451.412 33.7017 451.842 34.1562 452.15 34.767C452.458 35.3731 452.612 36.1402 452.612 37.0682V44H450.936V37.1818C450.936 36.3248 450.713 35.6572 450.268 35.179C449.823 34.696 449.212 34.4545 448.436 34.4545C447.901 34.4545 447.422 34.5705 447.001 34.8026C446.584 35.0346 446.255 35.3731 446.014 35.8182C445.772 36.2633 445.652 36.803 445.652 37.4375Z" fill="white" fill-opacity="0.95"/>
<mask id="path-7-inside-3_2129_33344" fill="white">
<path d="M650 0H975V74H650V0Z"/>
</mask>
<path d="M650 0H975V74H650V0Z" fill="#1A1A1A"/>
<path d="M975 74V75H976V74H975ZM974 0V74H976V0H974ZM975 73H650V75H975V73Z" fill="#707070" mask="url(#path-7-inside-3_2129_33344)"/>
<path d="M693.466 34H691.705C691.6 33.4934 691.418 33.0483 691.158 32.6648C690.902 32.2812 690.589 31.9593 690.22 31.6989C689.856 31.4337 689.451 31.2348 689.006 31.1023C688.561 30.9697 688.097 30.9034 687.614 30.9034C686.733 30.9034 685.935 31.1259 685.22 31.571C684.51 32.0161 683.944 32.6719 683.523 33.5384C683.106 34.4048 682.898 35.4678 682.898 36.7273C682.898 37.9867 683.106 39.0497 683.523 39.9162C683.944 40.7827 684.51 41.4384 685.22 41.8835C685.935 42.3286 686.733 42.5511 687.614 42.5511C688.097 42.5511 688.561 42.4848 689.006 42.3523C689.451 42.2197 689.856 42.0232 690.22 41.7628C690.589 41.4976 690.902 41.1733 691.158 40.7898C691.418 40.4015 691.6 39.9564 691.705 39.4545H693.466C693.333 40.1979 693.092 40.8632 692.741 41.4503C692.391 42.0374 691.955 42.5369 691.435 42.9489C690.914 43.3561 690.329 43.6662 689.68 43.8793C689.036 44.0923 688.348 44.1989 687.614 44.1989C686.373 44.1989 685.27 43.8958 684.304 43.2898C683.338 42.6837 682.578 41.822 682.024 40.7045C681.47 39.5871 681.193 38.2614 681.193 36.7273C681.193 35.1932 681.47 33.8674 682.024 32.75C682.578 31.6326 683.338 30.7708 684.304 30.1648C685.27 29.5587 686.373 29.2557 687.614 29.2557C688.348 29.2557 689.036 29.3622 689.68 29.5753C690.329 29.7884 690.914 30.1009 691.435 30.5128C691.955 30.92 692.391 31.4171 692.741 32.0043C693.092 32.5866 693.333 33.2519 693.466 34ZM700.517 44.2273C699.532 44.2273 698.668 43.9929 697.924 43.5241C697.186 43.0554 696.608 42.3996 696.191 41.5568C695.779 40.714 695.574 39.7292 695.574 38.6023C695.574 37.4659 695.779 36.474 696.191 35.6264C696.608 34.7789 697.186 34.1207 697.924 33.652C698.668 33.1832 699.532 32.9489 700.517 32.9489C701.502 32.9489 702.363 33.1832 703.102 33.652C703.845 34.1207 704.423 34.7789 704.835 35.6264C705.252 36.474 705.46 37.4659 705.46 38.6023C705.46 39.7292 705.252 40.714 704.835 41.5568C704.423 42.3996 703.845 43.0554 703.102 43.5241C702.363 43.9929 701.502 44.2273 700.517 44.2273ZM700.517 42.7216C701.265 42.7216 701.88 42.5298 702.363 42.1463C702.846 41.7628 703.204 41.2585 703.436 40.6335C703.668 40.0085 703.784 39.3314 703.784 38.6023C703.784 37.8731 703.668 37.1937 703.436 36.5639C703.204 35.9342 702.846 35.4252 702.363 35.0369C701.88 34.6487 701.265 34.4545 700.517 34.4545C699.769 34.4545 699.153 34.6487 698.67 35.0369C698.187 35.4252 697.83 35.9342 697.598 36.5639C697.366 37.1937 697.25 37.8731 697.25 38.6023C697.25 39.3314 697.366 40.0085 697.598 40.6335C697.83 41.2585 698.187 41.7628 698.67 42.1463C699.153 42.5298 699.769 42.7216 700.517 42.7216ZM709.695 29.4545V44H708.018V29.4545H709.695ZM717.196 44.2273C716.212 44.2273 715.347 43.9929 714.604 43.5241C713.865 43.0554 713.288 42.3996 712.871 41.5568C712.459 40.714 712.253 39.7292 712.253 38.6023C712.253 37.4659 712.459 36.474 712.871 35.6264C713.288 34.7789 713.865 34.1207 714.604 33.652C715.347 33.1832 716.212 32.9489 717.196 32.9489C718.181 32.9489 719.043 33.1832 719.782 33.652C720.525 34.1207 721.103 34.7789 721.515 35.6264C721.931 36.474 722.14 37.4659 722.14 38.6023C722.14 39.7292 721.931 40.714 721.515 41.5568C721.103 42.3996 720.525 43.0554 719.782 43.5241C719.043 43.9929 718.181 44.2273 717.196 44.2273ZM717.196 42.7216C717.944 42.7216 718.56 42.5298 719.043 42.1463C719.526 41.7628 719.883 41.2585 720.115 40.6335C720.347 40.0085 720.463 39.3314 720.463 38.6023C720.463 37.8731 720.347 37.1937 720.115 36.5639C719.883 35.9342 719.526 35.4252 719.043 35.0369C718.56 34.6487 717.944 34.4545 717.196 34.4545C716.448 34.4545 715.833 34.6487 715.35 35.0369C714.867 35.4252 714.509 35.9342 714.277 36.5639C714.045 37.1937 713.929 37.8731 713.929 38.6023C713.929 39.3314 714.045 40.0085 714.277 40.6335C714.509 41.2585 714.867 41.7628 715.35 42.1463C715.833 42.5298 716.448 42.7216 717.196 42.7216ZM724.698 44V33.0909H726.317V34.7386H726.431C726.63 34.1989 726.99 33.7609 727.511 33.4247C728.031 33.0885 728.619 32.9205 729.272 32.9205C729.395 32.9205 729.549 32.9228 729.734 32.9276C729.918 32.9323 730.058 32.9394 730.153 32.9489V34.6534C730.096 34.6392 729.966 34.6179 729.762 34.5895C729.563 34.5563 729.353 34.5398 729.13 34.5398C728.6 34.5398 728.126 34.651 727.71 34.8736C727.298 35.0914 726.971 35.3944 726.729 35.7827C726.493 36.1662 726.374 36.6042 726.374 37.0966V44H724.698Z" fill="white" fill-opacity="0.95"/>
<mask id="path-10-inside-4_2129_33344" fill="white">
<path d="M975 0H1300V74H975V0Z"/>
</mask>
<path d="M975 0H1300V74H975V0Z" fill="#1A1A1A"/>
<path d="M1300 73H975V75H1300V73Z" fill="#707070" mask="url(#path-10-inside-4_2129_33344)"/>
<path d="M1010.73 28.662H1012.2C1012.08 29.446 1011.72 30.076 1011.09 30.552C1010.52 30.9907 1009.83 31.21 1009 31.21C1007.93 31.21 1007.08 30.8413 1006.44 30.104C1005.85 29.4227 1005.56 28.5267 1005.56 27.416C1005.56 26.128 1005.91 25.1293 1006.62 24.42C1007.23 23.8133 1008.02 23.51 1008.99 23.51C1009.89 23.51 1010.62 23.748 1011.2 24.224C1011.72 24.644 1012.03 25.1947 1012.14 25.876H1010.66C1010.56 25.484 1010.37 25.1807 1010.08 24.966C1009.8 24.7513 1009.45 24.644 1009.02 24.644C1008.36 24.644 1007.85 24.9053 1007.49 25.428C1007.16 25.9133 1006.99 26.59 1006.99 27.458C1006.99 28.3633 1007.21 29.0493 1007.66 29.516C1008.01 29.8893 1008.47 30.076 1009.03 30.076C1009.52 30.076 1009.91 29.936 1010.22 29.656C1010.49 29.4133 1010.66 29.082 1010.73 28.662ZM1013.31 27.36C1013.31 26.0253 1013.71 25.0173 1014.5 24.336C1015.14 23.7853 1015.94 23.51 1016.91 23.51C1018.04 23.51 1018.93 23.8693 1019.57 24.588C1020.19 25.26 1020.49 26.184 1020.49 27.36C1020.49 28.676 1020.11 29.6793 1019.33 30.37C1018.7 30.93 1017.89 31.21 1016.9 31.21C1015.77 31.21 1014.88 30.8367 1014.22 30.09C1013.62 29.4087 1013.31 28.4987 1013.31 27.36ZM1014.71 27.36C1014.71 28.2933 1014.95 29.0073 1015.43 29.502C1015.82 29.9127 1016.32 30.118 1016.92 30.118C1017.63 30.118 1018.18 29.852 1018.56 29.32C1018.92 28.8347 1019.09 28.1813 1019.09 27.36C1019.09 26.408 1018.86 25.6893 1018.39 25.204C1018.01 24.8027 1017.52 24.602 1016.91 24.602C1016.21 24.602 1015.66 24.868 1015.27 25.4C1014.9 25.8853 1014.71 26.5387 1014.71 27.36ZM1023.37 20.92V31H1022.03V20.92H1023.37ZM1024.92 27.36C1024.92 26.0253 1025.32 25.0173 1026.11 24.336C1026.74 23.7853 1027.55 23.51 1028.52 23.51C1029.65 23.51 1030.53 23.8693 1031.18 24.588C1031.79 25.26 1032.1 26.184 1032.1 27.36C1032.1 28.676 1031.71 29.6793 1030.94 30.37C1030.3 30.93 1029.49 31.21 1028.5 31.21C1027.37 31.21 1026.48 30.8367 1025.83 30.09C1025.22 29.4087 1024.92 28.4987 1024.92 27.36ZM1026.32 27.36C1026.32 28.2933 1026.56 29.0073 1027.03 29.502C1027.43 29.9127 1027.92 30.118 1028.53 30.118C1029.24 30.118 1029.79 29.852 1030.17 29.32C1030.52 28.8347 1030.7 28.1813 1030.7 27.36C1030.7 26.408 1030.47 25.6893 1030 25.204C1029.62 24.8027 1029.12 24.602 1028.52 24.602C1027.82 24.602 1027.27 24.868 1026.88 25.4C1026.51 25.8853 1026.32 26.5387 1026.32 27.36ZM1034.98 31H1033.64V23.72H1034.74L1034.93 24.798C1035.34 23.9393 1035.95 23.51 1036.77 23.51C1037.04 23.51 1037.31 23.5427 1037.57 23.608V24.952C1037.25 24.868 1036.97 24.826 1036.72 24.826C1036.18 24.826 1035.75 25.0453 1035.44 25.484C1035.14 25.9227 1034.98 26.5433 1034.98 27.346V31ZM1039.64 31H1038.02V29.376H1039.64V31ZM1044.73 29.922V31.07C1044.39 31.1633 1044.06 31.21 1043.74 31.21C1043.07 31.21 1042.56 31 1042.23 30.58C1041.94 30.2347 1041.79 29.7727 1041.79 29.194V24.868H1040.72V23.72H1041.79L1041.88 21.97H1043.14V23.72H1044.71V24.868H1043.14V29.222C1043.14 29.7633 1043.39 30.034 1043.91 30.034C1044.15 30.034 1044.43 29.9967 1044.73 29.922ZM1047.34 31H1046V20.92H1047.34V24.546C1047.87 23.8553 1048.58 23.51 1049.47 23.51C1050.33 23.51 1050.99 23.776 1051.44 24.308C1051.84 24.784 1052.05 25.4327 1052.05 26.254V31H1050.7V26.268C1050.7 25.1947 1050.18 24.658 1049.15 24.658C1048.6 24.658 1048.15 24.8493 1047.8 25.232C1047.5 25.5773 1047.34 26.0207 1047.34 26.562V31ZM1058.9 28.9H1060.35C1060.15 29.6373 1059.74 30.216 1059.13 30.636C1058.57 31.0187 1057.88 31.21 1057.09 31.21C1055.94 31.21 1055.05 30.846 1054.4 30.118C1053.81 29.4367 1053.52 28.5173 1053.52 27.36C1053.52 26.044 1053.89 25.0453 1054.64 24.364C1055.26 23.7947 1056.05 23.51 1057.02 23.51C1058.16 23.51 1059.02 23.8787 1059.6 24.616C1060.16 25.3253 1060.44 26.338 1060.44 27.654H1054.89C1054.95 28.5127 1055.21 29.152 1055.68 29.572C1056.06 29.908 1056.54 30.076 1057.13 30.076C1057.59 30.076 1057.99 29.95 1058.32 29.698C1058.6 29.4833 1058.79 29.2173 1058.9 28.9ZM1057.05 24.588C1056.45 24.588 1055.97 24.7747 1055.61 25.148C1055.26 25.4933 1055.04 25.974 1054.95 26.59H1059.06C1059.02 25.89 1058.78 25.3673 1058.36 25.022C1058.03 24.7327 1057.59 24.588 1057.05 24.588ZM1063.39 31H1062.05V23.72H1063.15L1063.29 24.574C1063.79 23.8647 1064.5 23.51 1065.44 23.51C1066.45 23.51 1067.17 23.8927 1067.58 24.658C1068.06 23.8927 1068.85 23.51 1069.94 23.51C1070.76 23.51 1071.38 23.7573 1071.82 24.252C1072.21 24.7093 1072.41 25.3347 1072.41 26.128V31H1071.06V26.226C1071.06 25.1807 1070.59 24.658 1069.65 24.658C1069.09 24.658 1068.64 24.8773 1068.31 25.316C1068.04 25.6707 1067.9 26.086 1067.9 26.562V31H1066.56V26.226C1066.56 25.1807 1066.09 24.658 1065.14 24.658C1064.62 24.658 1064.19 24.8633 1063.84 25.274C1063.54 25.6193 1063.39 26.0347 1063.39 26.52V31ZM1079.25 28.9H1080.71C1080.51 29.6373 1080.1 30.216 1079.49 30.636C1078.92 31.0187 1078.24 31.21 1077.45 31.21C1076.3 31.21 1075.4 30.846 1074.76 30.118C1074.17 29.4367 1073.88 28.5173 1073.88 27.36C1073.88 26.044 1074.25 25.0453 1075 24.364C1075.61 23.7947 1076.41 23.51 1077.38 23.51C1078.52 23.51 1079.38 23.8787 1079.95 24.616C1080.51 25.3253 1080.79 26.338 1080.79 27.654H1075.25C1075.31 28.5127 1075.57 29.152 1076.03 29.572C1076.42 29.908 1076.9 30.076 1077.49 30.076C1077.95 30.076 1078.34 29.95 1078.68 29.698C1078.96 29.4833 1079.15 29.2173 1079.25 28.9ZM1077.41 24.588C1076.81 24.588 1076.33 24.7747 1075.96 25.148C1075.62 25.4933 1075.4 25.974 1075.31 26.59H1079.42C1079.38 25.89 1079.14 25.3673 1078.72 25.022C1078.39 24.7327 1077.95 24.588 1077.41 24.588ZM1084.34 31H1082.71V29.376H1084.34V31ZM1091.14 28.662H1092.61C1092.5 29.446 1092.13 30.076 1091.51 30.552C1090.94 30.9907 1090.24 31.21 1089.42 31.21C1088.35 31.21 1087.49 30.8413 1086.86 30.104C1086.27 29.4227 1085.98 28.5267 1085.98 27.416C1085.98 26.128 1086.33 25.1293 1087.04 24.42C1087.65 23.8133 1088.44 23.51 1089.41 23.51C1090.3 23.51 1091.04 23.748 1091.62 24.224C1092.13 24.644 1092.45 25.1947 1092.56 25.876H1091.07C1090.98 25.484 1090.79 25.1807 1090.5 24.966C1090.22 24.7513 1089.87 24.644 1089.44 24.644C1088.77 24.644 1088.26 24.9053 1087.91 25.428C1087.57 25.9133 1087.41 26.59 1087.41 27.458C1087.41 28.3633 1087.63 29.0493 1088.08 29.516C1088.43 29.8893 1088.89 30.076 1089.45 30.076C1089.94 30.076 1090.33 29.936 1090.64 29.656C1090.91 29.4133 1091.08 29.082 1091.14 28.662ZM1093.73 27.36C1093.73 26.0253 1094.13 25.0173 1094.92 24.336C1095.55 23.7853 1096.36 23.51 1097.33 23.51C1098.46 23.51 1099.34 23.8693 1099.99 24.588C1100.6 25.26 1100.91 26.184 1100.91 27.36C1100.91 28.676 1100.52 29.6793 1099.75 30.37C1099.12 30.93 1098.3 31.21 1097.31 31.21C1096.18 31.21 1095.29 30.8367 1094.64 30.09C1094.03 29.4087 1093.73 28.4987 1093.73 27.36ZM1095.13 27.36C1095.13 28.2933 1095.37 29.0073 1095.84 29.502C1096.24 29.9127 1096.74 30.118 1097.34 30.118C1098.05 30.118 1098.6 29.852 1098.98 29.32C1099.33 28.8347 1099.51 28.1813 1099.51 27.36C1099.51 26.408 1099.28 25.6893 1098.81 25.204C1098.43 24.8027 1097.93 24.602 1097.33 24.602C1096.63 24.602 1096.08 24.868 1095.69 25.4C1095.32 25.8853 1095.13 26.5387 1095.13 27.36ZM1103.79 31H1102.45V23.72H1103.55L1103.71 24.644C1104.25 23.888 1104.99 23.51 1105.92 23.51C1106.78 23.51 1107.44 23.776 1107.89 24.308C1108.3 24.784 1108.5 25.4327 1108.5 26.254V31H1107.15V26.268C1107.15 25.1947 1106.63 24.658 1105.6 24.658C1105.06 24.658 1104.61 24.8447 1104.27 25.218C1103.95 25.554 1103.79 25.9833 1103.79 26.506V31ZM1113.64 29.922V31.07C1113.29 31.1633 1112.96 31.21 1112.65 31.21C1111.97 31.21 1111.47 31 1111.13 30.58C1110.84 30.2347 1110.7 29.7727 1110.7 29.194V24.868H1109.62V23.72H1110.7L1110.78 21.97H1112.04V23.72H1113.61V24.868H1112.04V29.222C1112.04 29.7633 1112.3 30.034 1112.81 30.034C1113.06 30.034 1113.33 29.9967 1113.64 29.922ZM1119.79 28.9H1121.25C1121.04 29.6373 1120.64 30.216 1120.03 30.636C1119.46 31.0187 1118.78 31.21 1117.99 31.21C1116.84 31.21 1115.94 30.846 1115.3 30.118C1114.71 29.4367 1114.42 28.5173 1114.42 27.36C1114.42 26.044 1114.79 25.0453 1115.54 24.364C1116.15 23.7947 1116.94 23.51 1117.92 23.51C1119.05 23.51 1119.91 23.8787 1120.49 24.616C1121.05 25.3253 1121.33 26.338 1121.33 27.654H1115.79C1115.84 28.5127 1116.1 29.152 1116.57 29.572C1116.95 29.908 1117.44 30.076 1118.03 30.076C1118.48 30.076 1118.88 29.95 1119.22 29.698C1119.5 29.4833 1119.69 29.2173 1119.79 28.9ZM1117.94 24.588C1117.35 24.588 1116.87 24.7747 1116.5 25.148C1116.16 25.4933 1115.94 25.974 1115.84 26.59H1119.96C1119.91 25.89 1119.68 25.3673 1119.26 25.022C1118.92 24.7327 1118.48 24.588 1117.94 24.588ZM1124.29 31H1122.94V23.72H1124.05L1124.2 24.644C1124.74 23.888 1125.48 23.51 1126.41 23.51C1127.27 23.51 1127.93 23.776 1128.39 24.308C1128.79 24.784 1128.99 25.4327 1128.99 26.254V31H1127.65V26.268C1127.65 25.1947 1127.13 24.658 1126.09 24.658C1125.55 24.658 1125.11 24.8447 1124.76 25.218C1124.45 25.554 1124.29 25.9833 1124.29 26.506V31ZM1134.13 29.922V31.07C1133.79 31.1633 1133.46 31.21 1133.14 31.21C1132.47 31.21 1131.96 31 1131.63 30.58C1131.34 30.2347 1131.19 29.7727 1131.19 29.194V24.868H1130.12V23.72H1131.19L1131.28 21.97H1132.54V23.72H1134.11V24.868H1132.54V29.222C1132.54 29.7633 1132.79 30.034 1133.31 30.034C1133.55 30.034 1133.83 29.9967 1134.13 29.922ZM1137.33 31H1135.71V29.376H1137.33V31ZM1142.42 29.922V31.07C1142.07 31.1633 1141.74 31.21 1141.43 31.21C1140.75 31.21 1140.25 31 1139.91 30.58C1139.62 30.2347 1139.48 29.7727 1139.48 29.194V24.868H1138.4V23.72H1139.48L1139.56 21.97H1140.82V23.72H1142.39V24.868H1140.82V29.222C1140.82 29.7633 1141.08 30.034 1141.59 30.034C1141.84 30.034 1142.11 29.9967 1142.42 29.922ZM1148.57 28.9H1150.03C1149.82 29.6373 1149.42 30.216 1148.81 30.636C1148.24 31.0187 1147.56 31.21 1146.76 31.21C1145.62 31.21 1144.72 30.846 1144.08 30.118C1143.49 29.4367 1143.19 28.5173 1143.19 27.36C1143.19 26.044 1143.57 25.0453 1144.31 24.364C1144.93 23.7947 1145.72 23.51 1146.69 23.51C1147.83 23.51 1148.69 23.8787 1149.27 24.616C1149.83 25.3253 1150.11 26.338 1150.11 27.654H1144.57C1144.62 28.5127 1144.88 29.152 1145.35 29.572C1145.73 29.908 1146.22 30.076 1146.81 30.076C1147.26 30.076 1147.66 29.95 1148 29.698C1148.28 29.4833 1148.47 29.2173 1148.57 28.9ZM1146.72 24.588C1146.13 24.588 1145.64 24.7747 1145.28 25.148C1144.94 25.4933 1144.72 25.974 1144.62 26.59H1148.74C1148.69 25.89 1148.46 25.3673 1148.04 25.022C1147.7 24.7327 1147.26 24.588 1146.72 24.588ZM1157.59 23.72L1155.15 27.122L1158.01 31H1156.37L1154.4 28.186L1152.46 31H1150.88L1153.6 27.22L1151.05 23.72H1152.66L1154.4 26.17L1156.05 23.72H1157.59ZM1162.38 29.922V31.07C1162.04 31.1633 1161.7 31.21 1161.39 31.21C1160.71 31.21 1160.21 31 1159.87 30.58C1159.59 30.2347 1159.44 29.7727 1159.44 29.194V24.868H1158.36V23.72H1159.44L1159.52 21.97H1160.78V23.72H1162.35V24.868H1160.78V29.222C1160.78 29.7633 1161.04 30.034 1161.55 30.034C1161.8 30.034 1162.07 29.9967 1162.38 29.922ZM1165.58 31H1163.95V29.376H1165.58V31ZM1172.38 28.662H1173.85C1173.74 29.446 1173.37 30.076 1172.75 30.552C1172.18 30.9907 1171.48 31.21 1170.66 31.21C1169.59 31.21 1168.73 30.8413 1168.1 30.104C1167.51 29.4227 1167.22 28.5267 1167.22 27.416C1167.22 26.128 1167.57 25.1293 1168.28 24.42C1168.89 23.8133 1169.68 23.51 1170.65 23.51C1171.54 23.51 1172.28 23.748 1172.86 24.224C1173.37 24.644 1173.68 25.1947 1173.8 25.876H1172.31C1172.22 25.484 1172.03 25.1807 1171.74 24.966C1171.46 24.7513 1171.1 24.644 1170.67 24.644C1170.01 24.644 1169.5 24.9053 1169.15 25.428C1168.81 25.9133 1168.64 26.59 1168.64 27.458C1168.64 28.3633 1168.87 29.0493 1169.32 29.516C1169.67 29.8893 1170.13 30.076 1170.69 30.076C1171.17 30.076 1171.57 29.936 1171.88 29.656C1172.15 29.4133 1172.32 29.082 1172.38 28.662ZM1174.97 27.36C1174.97 26.0253 1175.36 25.0173 1176.16 24.336C1176.79 23.7853 1177.6 23.51 1178.57 23.51C1179.7 23.51 1180.58 23.8693 1181.23 24.588C1181.84 25.26 1182.15 26.184 1182.15 27.36C1182.15 28.676 1181.76 29.6793 1180.99 30.37C1180.35 30.93 1179.54 31.21 1178.55 31.21C1177.42 31.21 1176.53 30.8367 1175.88 30.09C1175.27 29.4087 1174.97 28.4987 1174.97 27.36ZM1176.37 27.36C1176.37 28.2933 1176.61 29.0073 1177.08 29.502C1177.47 29.9127 1177.97 30.118 1178.58 30.118C1179.29 30.118 1179.84 29.852 1180.22 29.32C1180.57 28.8347 1180.75 28.1813 1180.75 27.36C1180.75 26.408 1180.52 25.6893 1180.05 25.204C1179.67 24.8027 1179.17 24.602 1178.57 24.602C1177.87 24.602 1177.32 24.868 1176.93 25.4C1176.55 25.8853 1176.37 26.5387 1176.37 27.36ZM1185.03 31H1183.69V23.72H1184.79L1184.95 24.644C1185.49 23.888 1186.23 23.51 1187.16 23.51C1188.02 23.51 1188.68 23.776 1189.13 24.308C1189.53 24.784 1189.74 25.4327 1189.74 26.254V31H1188.39V26.268C1188.39 25.1947 1187.87 24.658 1186.84 24.658C1186.3 24.658 1185.85 24.8447 1185.51 25.218C1185.19 25.554 1185.03 25.9833 1185.03 26.506V31ZM1194.88 29.922V31.07C1194.53 31.1633 1194.2 31.21 1193.88 31.21C1193.21 31.21 1192.71 31 1192.37 30.58C1192.08 30.2347 1191.94 29.7727 1191.94 29.194V24.868H1190.86V23.72H1191.94L1192.02 21.97H1193.28V23.72H1194.85V24.868H1193.28V29.222C1193.28 29.7633 1193.54 30.034 1194.05 30.034C1194.3 30.034 1194.57 29.9967 1194.88 29.922ZM1197.49 31H1196.14V23.72H1197.25L1197.43 24.798C1197.84 23.9393 1198.46 23.51 1199.28 23.51C1199.55 23.51 1199.81 23.5427 1200.08 23.608V24.952C1199.76 24.868 1199.47 24.826 1199.22 24.826C1198.68 24.826 1198.26 25.0453 1197.95 25.484C1197.64 25.9227 1197.49 26.5433 1197.49 27.346V31ZM1202.28 25.75H1200.85C1200.93 25.022 1201.27 24.4573 1201.89 24.056C1202.44 23.692 1203.13 23.51 1203.97 23.51C1204.97 23.51 1205.74 23.7713 1206.27 24.294C1206.72 24.742 1206.94 25.3207 1206.94 26.03V31H1205.84L1205.67 30.006C1205.1 30.8087 1204.29 31.21 1203.23 31.21C1202.4 31.21 1201.75 30.986 1201.29 30.538C1200.9 30.1647 1200.71 29.6933 1200.71 29.124C1200.71 28.4053 1200.96 27.85 1201.45 27.458C1201.89 27.1127 1202.57 26.8607 1203.47 26.702L1205.6 26.338V25.974C1205.6 25.498 1205.44 25.1387 1205.11 24.896C1204.82 24.6813 1204.42 24.574 1203.92 24.574C1202.93 24.574 1202.38 24.966 1202.28 25.75ZM1203.55 30.076C1204.12 30.076 1204.62 29.8893 1205.04 29.516C1205.41 29.1707 1205.6 28.774 1205.6 28.326V27.388L1203.79 27.71C1203.13 27.822 1202.68 27.9947 1202.43 28.228C1202.24 28.4147 1202.14 28.6667 1202.14 28.984C1202.14 29.3387 1202.26 29.6093 1202.5 29.796C1202.75 29.9827 1203.1 30.076 1203.55 30.076ZM1213.09 29.026C1213.09 28.6153 1212.87 28.3073 1212.44 28.102C1212.19 27.99 1211.7 27.85 1210.97 27.682C1210.08 27.486 1209.44 27.2013 1209.05 26.828C1208.74 26.5107 1208.58 26.0953 1208.58 25.582C1208.58 24.9007 1208.85 24.378 1209.4 24.014C1209.9 23.678 1210.57 23.51 1211.41 23.51C1212.27 23.51 1212.98 23.7247 1213.52 24.154C1213.99 24.5273 1214.28 25.022 1214.39 25.638H1213.02C1212.86 24.9287 1212.32 24.574 1211.39 24.574C1210.88 24.574 1210.5 24.6673 1210.24 24.854C1210.04 25.0127 1209.94 25.2133 1209.94 25.456C1209.94 25.7547 1210.05 25.9787 1210.27 26.128C1210.5 26.2773 1210.96 26.4267 1211.63 26.576C1212.66 26.8 1213.37 27.0753 1213.77 27.402C1214.22 27.766 1214.44 28.2747 1214.44 28.928C1214.44 29.656 1214.14 30.23 1213.55 30.65C1213.01 31.0233 1212.29 31.21 1211.41 31.21C1210.43 31.21 1209.66 30.9767 1209.1 30.51C1208.6 30.0993 1208.33 29.5673 1208.27 28.914H1209.64C1209.79 29.7353 1210.38 30.146 1211.42 30.146C1211.98 30.146 1212.41 30.0247 1212.72 29.782C1212.96 29.586 1213.09 29.334 1213.09 29.026ZM1219.23 29.922V31.07C1218.88 31.1633 1218.55 31.21 1218.23 31.21C1217.56 31.21 1217.06 31 1216.72 30.58C1216.43 30.2347 1216.29 29.7727 1216.29 29.194V24.868H1215.21V23.72H1216.29L1216.37 21.97H1217.63V23.72H1219.2V24.868H1217.63V29.222C1217.63 29.7633 1217.89 30.034 1218.4 30.034C1218.64 30.034 1218.92 29.9967 1219.23 29.922ZM1222.42 31H1220.8V29.376H1222.42V31ZM1226.03 31H1224.69V23.72H1225.79L1225.95 24.644C1226.49 23.888 1227.23 23.51 1228.16 23.51C1229.02 23.51 1229.68 23.776 1230.13 24.308C1230.54 24.784 1230.74 25.4327 1230.74 26.254V31H1229.39V26.268C1229.39 25.1947 1228.87 24.658 1227.84 24.658C1227.3 24.658 1226.85 24.8447 1226.51 25.218C1226.19 25.554 1226.03 25.9833 1226.03 26.506V31ZM1237.59 28.9H1239.04C1238.84 29.6373 1238.43 30.216 1237.83 30.636C1237.26 31.0187 1236.58 31.21 1235.78 31.21C1234.63 31.21 1233.74 30.846 1233.09 30.118C1232.51 29.4367 1232.21 28.5173 1232.21 27.36C1232.21 26.044 1232.59 25.0453 1233.33 24.364C1233.95 23.7947 1234.74 23.51 1235.71 23.51C1236.85 23.51 1237.71 23.8787 1238.29 24.616C1238.85 25.3253 1239.13 26.338 1239.13 27.654H1233.58C1233.64 28.5127 1233.9 29.152 1234.37 29.572C1234.75 29.908 1235.24 30.076 1235.82 30.076C1236.28 30.076 1236.68 29.95 1237.01 29.698C1237.29 29.4833 1237.49 29.2173 1237.59 28.9ZM1235.74 24.588C1235.14 24.588 1234.66 24.7747 1234.3 25.148C1233.95 25.4933 1233.73 25.974 1233.64 26.59H1237.76C1237.71 25.89 1237.48 25.3673 1237.06 25.022C1236.72 24.7327 1236.28 24.588 1235.74 24.588ZM1240.67 23.72H1242.01V28.494C1242.01 29.5393 1242.52 30.062 1243.53 30.062C1244.14 30.062 1244.61 29.8427 1244.94 29.404C1245.19 29.068 1245.32 28.6527 1245.32 28.158V23.72H1246.66V31H1245.56L1245.4 30.16C1244.89 30.86 1244.16 31.21 1243.22 31.21C1242.39 31.21 1241.75 30.9533 1241.3 30.44C1240.88 29.964 1240.67 29.306 1240.67 28.466V23.72ZM1251.88 29.922V31.07C1251.53 31.1633 1251.2 31.21 1250.88 31.21C1250.21 31.21 1249.71 31 1249.37 30.58C1249.08 30.2347 1248.94 29.7727 1248.94 29.194V24.868H1247.86V23.72H1248.94L1249.02 21.97H1250.28V23.72H1251.85V24.868H1250.28V29.222C1250.28 29.7633 1250.54 30.034 1251.05 30.034C1251.29 30.034 1251.57 29.9967 1251.88 29.922ZM1254.48 31H1253.14V23.72H1254.25L1254.43 24.798C1254.84 23.9393 1255.45 23.51 1256.28 23.51C1256.55 23.51 1256.81 23.5427 1257.07 23.608V24.952C1256.76 24.868 1256.47 24.826 1256.22 24.826C1255.68 24.826 1255.25 25.0453 1254.95 25.484C1254.64 25.9227 1254.48 26.5433 1254.48 27.346V31ZM1259.28 25.75H1257.85C1257.93 25.022 1258.27 24.4573 1258.89 24.056C1259.44 23.692 1260.13 23.51 1260.97 23.51C1261.97 23.51 1262.74 23.7713 1263.27 24.294C1263.72 24.742 1263.94 25.3207 1263.94 26.03V31H1262.83L1262.67 30.006C1262.1 30.8087 1261.29 31.21 1260.23 31.21C1259.4 31.21 1258.75 30.986 1258.28 30.538C1257.9 30.1647 1257.71 29.6933 1257.71 29.124C1257.71 28.4053 1257.96 27.85 1258.45 27.458C1258.89 27.1127 1259.56 26.8607 1260.47 26.702L1262.6 26.338V25.974C1262.6 25.498 1262.43 25.1387 1262.11 24.896C1261.82 24.6813 1261.42 24.574 1260.92 24.574C1259.93 24.574 1259.38 24.966 1259.28 25.75ZM1260.55 30.076C1261.12 30.076 1261.62 29.8893 1262.04 29.516C1262.41 29.1707 1262.6 28.774 1262.6 28.326V27.388L1260.79 27.71C1260.13 27.822 1259.68 27.9947 1259.43 28.228C1259.24 28.4147 1259.14 28.6667 1259.14 28.984C1259.14 29.3387 1259.26 29.6093 1259.5 29.796C1259.75 29.9827 1260.1 30.076 1260.55 30.076ZM1267.17 20.92V31H1265.83V20.92H1267.17ZM1007.91 52H1006.29V50.376H1007.91V52ZM1010.18 44.72H1011.28L1011.49 45.672C1012.09 44.8973 1012.91 44.51 1013.96 44.51C1015 44.51 1015.81 44.8833 1016.39 45.63C1016.91 46.302 1017.16 47.1933 1017.16 48.304C1017.16 49.62 1016.81 50.628 1016.11 51.328C1015.53 51.916 1014.77 52.21 1013.86 52.21C1012.82 52.21 1012.04 51.8273 1011.52 51.062V54.52H1010.18V44.72ZM1015.76 48.276C1015.76 47.3613 1015.53 46.6753 1015.08 46.218C1014.71 45.8447 1014.24 45.658 1013.65 45.658C1012.97 45.658 1012.43 45.9053 1012.03 46.4C1011.64 46.876 1011.45 47.5013 1011.45 48.276C1011.45 49.2093 1011.68 49.9233 1012.14 50.418C1012.52 50.8473 1013.02 51.062 1013.65 51.062C1014.35 51.062 1014.88 50.8053 1015.25 50.292C1015.59 49.816 1015.76 49.144 1015.76 48.276ZM1020.05 52H1018.71V44.72H1019.81L1020 45.798C1020.41 44.9393 1021.02 44.51 1021.84 44.51C1022.12 44.51 1022.38 44.5427 1022.64 44.608V45.952C1022.33 45.868 1022.04 45.826 1021.79 45.826C1021.25 45.826 1020.82 46.0453 1020.51 46.484C1020.21 46.9227 1020.05 47.5433 1020.05 48.346V52ZM1025.13 43.502H1023.61V41.92H1025.13V43.502ZM1025.04 52H1023.7V44.72H1025.04V52ZM1028.35 52H1027.01V44.72H1028.11L1028.25 45.574C1028.75 44.8647 1029.46 44.51 1030.4 44.51C1031.41 44.51 1032.13 44.8927 1032.54 45.658C1033.02 44.8927 1033.81 44.51 1034.9 44.51C1035.72 44.51 1036.34 44.7573 1036.78 45.252C1037.17 45.7093 1037.37 46.3347 1037.37 47.128V52H1036.02V47.226C1036.02 46.1807 1035.55 45.658 1034.61 45.658C1034.05 45.658 1033.6 45.8773 1033.27 46.316C1032.99 46.6707 1032.86 47.086 1032.86 47.562V52H1031.52V47.226C1031.52 46.1807 1031.04 45.658 1030.1 45.658C1029.58 45.658 1029.14 45.8633 1028.8 46.274C1028.5 46.6193 1028.35 47.0347 1028.35 47.52V52ZM1040.41 46.75H1038.98C1039.05 46.022 1039.4 45.4573 1040.01 45.056C1040.56 44.692 1041.26 44.51 1042.1 44.51C1043.1 44.51 1043.86 44.7713 1044.4 45.294C1044.84 45.742 1045.07 46.3207 1045.07 47.03V52H1043.96L1043.79 51.006C1043.22 51.8087 1042.41 52.21 1041.36 52.21C1040.53 52.21 1039.88 51.986 1039.41 51.538C1039.03 51.1647 1038.84 50.6933 1038.84 50.124C1038.84 49.4053 1039.08 48.85 1039.58 48.458C1040.02 48.1127 1040.69 47.8607 1041.6 47.702L1043.72 47.338V46.974C1043.72 46.498 1043.56 46.1387 1043.23 45.896C1042.94 45.6813 1042.55 45.574 1042.04 45.574C1041.05 45.574 1040.51 45.966 1040.41 46.75ZM1041.68 51.076C1042.25 51.076 1042.74 50.8893 1043.16 50.516C1043.54 50.1707 1043.72 49.774 1043.72 49.326V48.388L1041.92 48.71C1041.25 48.822 1040.8 48.9947 1040.56 49.228C1040.36 49.4147 1040.27 49.6667 1040.27 49.984C1040.27 50.3387 1040.39 50.6093 1040.63 50.796C1040.87 50.9827 1041.22 51.076 1041.68 51.076ZM1048.3 52H1046.95V44.72H1048.06L1048.24 45.798C1048.65 44.9393 1049.27 44.51 1050.09 44.51C1050.36 44.51 1050.63 44.5427 1050.89 44.608V45.952C1050.57 45.868 1050.29 45.826 1050.03 45.826C1049.49 45.826 1049.07 46.0453 1048.76 46.484C1048.45 46.9227 1048.3 47.5433 1048.3 48.346V52ZM1058.02 44.72L1055.49 52.098C1055.15 53.078 1054.83 53.7453 1054.52 54.1C1054.16 54.52 1053.69 54.73 1053.11 54.73C1052.86 54.73 1052.57 54.688 1052.24 54.604V53.512C1052.5 53.5773 1052.73 53.61 1052.94 53.61C1053.23 53.61 1053.45 53.5073 1053.61 53.302C1053.77 53.106 1053.97 52.672 1054.21 52H1053.78L1051.1 44.72H1052.56L1054.62 50.908L1056.68 44.72H1058.02Z" fill="white" fill-opacity="0.95"/>
</svg>
