<svg width="1300" height="62" viewBox="0 0 1300 62" fill="none" xmlns="http://www.w3.org/2000/svg">
<mask id="path-1-inside-1_2129_33354" fill="white">
<path d="M0 0H325V62H0V0Z"/>
</mask>
<path d="M0 0H325V62H0V0Z" fill="#1A1A1A"/>
<path d="M324 0V62H326V0H324Z" fill="#707070" mask="url(#path-1-inside-1_2129_33354)"/>
<path d="M36.098 35.017V33.5682L42.49 23.4545H43.5411V25.6989H42.8309L38.0014 33.3409V33.4545H46.6093V35.017H36.098ZM42.9446 38V34.5767V33.902V23.4545H44.6207V38H42.9446ZM50.5813 38.1136C50.2309 38.1136 49.9302 37.9882 49.6793 37.7372C49.4283 37.4863 49.3029 37.1856 49.3029 36.8352C49.3029 36.4848 49.4283 36.1842 49.6793 35.9332C49.9302 35.6823 50.2309 35.5568 50.5813 35.5568C50.9316 35.5568 51.2323 35.6823 51.4833 35.9332C51.7342 36.1842 51.8597 36.4848 51.8597 36.8352C51.8597 37.0672 51.8005 37.2803 51.6821 37.4744C51.5685 37.6686 51.4146 37.8248 51.2205 37.9432C51.0311 38.0568 50.818 38.1136 50.5813 38.1136ZM66.25 38H61.7614V23.4545H66.4489C67.8598 23.4545 69.0672 23.7457 70.071 24.3281C71.0748 24.9058 71.8442 25.7367 72.3793 26.821C72.9143 27.9006 73.1818 29.1932 73.1818 30.6989C73.1818 32.214 72.9119 33.5185 72.3722 34.6122C71.8324 35.7012 71.0464 36.5393 70.0142 37.1264C68.982 37.7088 67.7273 38 66.25 38ZM63.5227 36.4375H66.1364C67.339 36.4375 68.3357 36.2055 69.1264 35.7415C69.9171 35.2775 70.5066 34.617 70.8949 33.7599C71.2831 32.9029 71.4773 31.8826 71.4773 30.6989C71.4773 29.5246 71.2855 28.5137 70.902 27.6662C70.5185 26.8139 69.9455 26.1605 69.1832 25.706C68.4209 25.2467 67.4716 25.017 66.3352 25.017H63.5227V36.4375ZM75.9091 38V27.0909H77.5852V38H75.9091ZM76.7614 25.2727C76.4347 25.2727 76.1529 25.1615 75.9162 24.9389C75.6842 24.7164 75.5682 24.4489 75.5682 24.1364C75.5682 23.8239 75.6842 23.5563 75.9162 23.3338C76.1529 23.1113 76.4347 23 76.7614 23C77.0881 23 77.3674 23.1113 77.5994 23.3338C77.8362 23.5563 77.9545 23.8239 77.9545 24.1364C77.9545 24.4489 77.8362 24.7164 77.5994 24.9389C77.3674 25.1615 77.0881 25.2727 76.7614 25.2727ZM88.3825 29.5341L86.8768 29.9602C86.7821 29.7093 86.6424 29.4654 86.4577 29.2287C86.2778 28.9872 86.0316 28.7884 85.7191 28.6321C85.4066 28.4759 85.0065 28.3977 84.5188 28.3977C83.8512 28.3977 83.2949 28.5516 82.8498 28.8594C82.4094 29.1624 82.1893 29.5483 82.1893 30.017C82.1893 30.4337 82.3408 30.7628 82.6438 31.0043C82.9469 31.2457 83.4203 31.447 84.0643 31.608L85.6836 32.0057C86.659 32.2424 87.3858 32.6046 87.864 33.0923C88.3422 33.5753 88.5813 34.1979 88.5813 34.9602C88.5813 35.5852 88.4014 36.1439 88.0415 36.6364C87.6864 37.1288 87.1893 37.517 86.5501 37.8011C85.9109 38.0852 85.1675 38.2273 84.32 38.2273C83.2073 38.2273 82.2863 37.9858 81.5572 37.5028C80.828 37.0199 80.3664 36.3144 80.1722 35.3864L81.7631 34.9886C81.9147 35.5758 82.2011 36.0161 82.6225 36.3097C83.0487 36.6032 83.605 36.75 84.2915 36.75C85.0728 36.75 85.6931 36.5843 86.1523 36.2528C86.6164 35.9167 86.8484 35.5142 86.8484 35.0455C86.8484 34.6667 86.7158 34.3494 86.4506 34.0938C86.1855 33.8333 85.7783 33.6392 85.229 33.5114L83.4109 33.0852C82.4118 32.8485 81.6779 32.4815 81.2092 31.9844C80.7451 31.4825 80.5131 30.8551 80.5131 30.1023C80.5131 29.4867 80.686 28.9422 81.0316 28.4688C81.382 27.9953 81.8578 27.6236 82.4592 27.3537C83.0652 27.0838 83.7518 26.9489 84.5188 26.9489C85.5984 26.9489 86.4459 27.1856 87.0614 27.6591C87.6817 28.1326 88.122 28.7576 88.3825 29.5341ZM94.3146 38.2557C93.6233 38.2557 92.996 38.1255 92.4325 37.8651C91.8691 37.5999 91.4216 37.2188 91.0902 36.7216C90.7588 36.2197 90.593 35.6136 90.593 34.9034C90.593 34.2784 90.7161 33.7718 90.9624 33.3835C91.2086 32.9905 91.5376 32.6828 91.9496 32.4602C92.3615 32.2377 92.8161 32.072 93.3132 31.9631C93.8151 31.8494 94.3194 31.7595 94.826 31.6932C95.4889 31.608 96.0263 31.544 96.4382 31.5014C96.8549 31.4541 97.1579 31.3759 97.3473 31.267C97.5414 31.1581 97.6385 30.9687 97.6385 30.6989V30.642C97.6385 29.9413 97.4467 29.3968 97.0632 29.0085C96.6844 28.6203 96.1091 28.4261 95.3374 28.4261C94.5372 28.4261 93.9098 28.6013 93.4553 28.9517C93.0007 29.3021 92.6811 29.6761 92.4964 30.0739L90.9055 29.5057C91.1896 28.8428 91.5684 28.3267 92.0419 27.9574C92.5201 27.5833 93.041 27.3229 93.6044 27.1761C94.1726 27.0246 94.7313 26.9489 95.2805 26.9489C95.6309 26.9489 96.0334 26.9915 96.4879 27.0767C96.9472 27.1572 97.3899 27.3253 97.8161 27.581C98.2469 27.8366 98.6044 28.2225 98.8885 28.7386C99.1726 29.2547 99.3146 29.946 99.3146 30.8125V38H97.6385V36.5227H97.5533C97.4396 36.7595 97.2502 37.0128 96.9851 37.2827C96.7199 37.5526 96.3672 37.7822 95.9268 37.9716C95.4865 38.161 94.9491 38.2557 94.3146 38.2557ZM94.5703 36.75C95.2332 36.75 95.7919 36.6198 96.2464 36.3594C96.7057 36.099 97.0514 35.7628 97.2834 35.3509C97.5201 34.9389 97.6385 34.5057 97.6385 34.0511V32.517C97.5675 32.6023 97.4112 32.6804 97.1697 32.7514C96.933 32.8177 96.6584 32.8769 96.3459 32.929C96.0381 32.9763 95.7375 33.0189 95.4439 33.0568C95.1551 33.09 94.9207 33.1184 94.7408 33.142C94.3052 33.1989 93.898 33.2912 93.5192 33.419C93.1451 33.5421 92.8421 33.7292 92.6101 33.9801C92.3828 34.2263 92.2692 34.5625 92.2692 34.9886C92.2692 35.571 92.4846 36.0114 92.9155 36.3097C93.3511 36.6032 93.9027 36.75 94.5703 36.75ZM102.601 38V23.4545H104.277V28.8239H104.419C104.542 28.6345 104.713 28.393 104.931 28.0994C105.153 27.8011 105.471 27.536 105.882 27.304C106.299 27.0672 106.863 26.9489 107.573 26.9489C108.491 26.9489 109.301 27.1785 110.002 27.6378C110.703 28.0971 111.249 28.7481 111.642 29.5909C112.035 30.4337 112.232 31.428 112.232 32.5739C112.232 33.7292 112.035 34.7306 111.642 35.5781C111.249 36.4209 110.705 37.0743 110.009 37.5384C109.313 37.9976 108.51 38.2273 107.601 38.2273C106.9 38.2273 106.339 38.1113 105.918 37.8793C105.497 37.6425 105.172 37.375 104.945 37.0767C104.718 36.7737 104.542 36.5227 104.419 36.3239H104.221V38H102.601ZM104.249 32.5455C104.249 33.3693 104.37 34.0961 104.611 34.7259C104.853 35.3509 105.205 35.8409 105.669 36.196C106.133 36.5464 106.702 36.7216 107.374 36.7216C108.075 36.7216 108.659 36.5369 109.128 36.1676C109.602 35.7936 109.957 35.2917 110.194 34.6619C110.435 34.0275 110.556 33.322 110.556 32.5455C110.556 31.7784 110.437 31.0871 110.201 30.4716C109.969 29.8513 109.616 29.3613 109.142 29.0014C108.674 28.6368 108.084 28.4545 107.374 28.4545C106.692 28.4545 106.119 28.6274 105.655 28.973C105.191 29.3139 104.841 29.7921 104.604 30.4077C104.367 31.0185 104.249 31.7311 104.249 32.5455ZM116.472 23.4545V38H114.796V23.4545H116.472ZM124.116 38.2273C123.065 38.2273 122.158 37.9953 121.396 37.5312C120.638 37.0625 120.053 36.4091 119.641 35.571C119.234 34.7282 119.031 33.7481 119.031 32.6307C119.031 31.5133 119.234 30.5284 119.641 29.6761C120.053 28.8191 120.626 28.1515 121.36 27.6733C122.099 27.1903 122.96 26.9489 123.945 26.9489C124.513 26.9489 125.075 27.0436 125.629 27.233C126.183 27.4223 126.687 27.7301 127.141 28.1562C127.596 28.5777 127.958 29.1364 128.228 29.8324C128.498 30.5284 128.633 31.3854 128.633 32.4034V33.1136H120.224V31.6648H126.928C126.928 31.0492 126.805 30.5 126.559 30.017C126.317 29.5341 125.972 29.1529 125.522 28.8736C125.077 28.5942 124.551 28.4545 123.945 28.4545C123.278 28.4545 122.7 28.6203 122.212 28.9517C121.729 29.2784 121.358 29.7045 121.097 30.2301C120.837 30.7557 120.707 31.3191 120.707 31.9205V32.8864C120.707 33.7102 120.849 34.4086 121.133 34.9815C121.422 35.5497 121.822 35.983 122.333 36.2812C122.844 36.5748 123.439 36.7216 124.116 36.7216C124.556 36.7216 124.954 36.66 125.309 36.5369C125.669 36.4091 125.979 36.2197 126.239 35.9688C126.5 35.7131 126.701 35.3958 126.843 35.017L128.462 35.4716C128.292 36.0208 128.005 36.5038 127.603 36.9205C127.201 37.3324 126.703 37.6544 126.112 37.8864C125.52 38.1136 124.854 38.2273 124.116 38.2273ZM135.302 38.2273C134.393 38.2273 133.59 37.9976 132.894 37.5384C132.198 37.0743 131.654 36.4209 131.261 35.5781C130.868 34.7306 130.671 33.7292 130.671 32.5739C130.671 31.428 130.868 30.4337 131.261 29.5909C131.654 28.7481 132.201 28.0971 132.901 27.6378C133.602 27.1785 134.412 26.9489 135.33 26.9489C136.04 26.9489 136.602 27.0672 137.013 27.304C137.43 27.536 137.747 27.8011 137.965 28.0994C138.188 28.393 138.361 28.6345 138.484 28.8239H138.626V23.4545H140.302V38H138.683V36.3239H138.484C138.361 36.5227 138.185 36.7737 137.958 37.0767C137.731 37.375 137.406 37.6425 136.985 37.8793C136.564 38.1113 136.003 38.2273 135.302 38.2273ZM135.529 36.7216C136.201 36.7216 136.77 36.5464 137.234 36.196C137.698 35.8409 138.05 35.3509 138.292 34.7259C138.533 34.0961 138.654 33.3693 138.654 32.5455C138.654 31.7311 138.536 31.0185 138.299 30.4077C138.062 29.7921 137.712 29.3139 137.248 28.973C136.784 28.6274 136.211 28.4545 135.529 28.4545C134.819 28.4545 134.227 28.6368 133.754 29.0014C133.285 29.3613 132.932 29.8513 132.695 30.4716C132.463 31.0871 132.347 31.7784 132.347 32.5455C132.347 33.322 132.466 34.0275 132.702 34.6619C132.944 35.2917 133.299 35.7936 133.768 36.1676C134.241 36.5369 134.828 36.7216 135.529 36.7216Z" fill="white" fill-opacity="0.95"/>
<mask id="path-4-inside-2_2129_33354" fill="white">
<path d="M325 0H650V62H325V0Z"/>
</mask>
<path d="M325 0H650V62H325V0Z" fill="#1A1A1A"/>
<path d="M650 62V63H651V62H650ZM649 0V62H651V0H649ZM650 61H325V63H650V61Z" fill="#707070" mask="url(#path-4-inside-2_2129_33354)"/>
<path d="M355.966 25.017V23.4545H366.875V25.017H362.301V38H360.54V25.017H355.966ZM372.358 38.2273C371.307 38.2273 370.4 37.9953 369.638 37.5312C368.88 37.0625 368.295 36.4091 367.884 35.571C367.476 34.7282 367.273 33.7481 367.273 32.6307C367.273 31.5133 367.476 30.5284 367.884 29.6761C368.295 28.8191 368.868 28.1515 369.602 27.6733C370.341 27.1903 371.203 26.9489 372.188 26.9489C372.756 26.9489 373.317 27.0436 373.871 27.233C374.425 27.4223 374.929 27.7301 375.384 28.1562C375.838 28.5777 376.2 29.1364 376.47 29.8324C376.74 30.5284 376.875 31.3854 376.875 32.4034V33.1136H368.466V31.6648H375.17C375.17 31.0492 375.047 30.5 374.801 30.017C374.56 29.5341 374.214 29.1529 373.764 28.8736C373.319 28.5942 372.794 28.4545 372.188 28.4545C371.52 28.4545 370.942 28.6203 370.455 28.9517C369.972 29.2784 369.6 29.7045 369.339 30.2301C369.079 30.7557 368.949 31.3191 368.949 31.9205V32.8864C368.949 33.7102 369.091 34.4086 369.375 34.9815C369.664 35.5497 370.064 35.983 370.575 36.2812C371.087 36.5748 371.681 36.7216 372.358 36.7216C372.798 36.7216 373.196 36.66 373.551 36.5369C373.911 36.4091 374.221 36.2197 374.482 35.9688C374.742 35.7131 374.943 35.3958 375.085 35.017L376.705 35.4716C376.534 36.0208 376.248 36.5038 375.845 36.9205C375.443 37.3324 374.946 37.6544 374.354 37.8864C373.762 38.1136 373.097 38.2273 372.358 38.2273ZM380.382 27.0909L382.995 31.5511L385.609 27.0909H387.541L384.018 32.5455L387.541 38H385.609L382.995 33.767L380.382 38H378.45L381.916 32.5455L378.45 27.0909H380.382ZM394.677 27.0909V28.5114H389.023V27.0909H394.677ZM390.671 24.4773H392.347V34.875C392.347 35.3485 392.416 35.7036 392.553 35.9403C392.695 36.1723 392.875 36.3286 393.093 36.4091C393.316 36.4848 393.55 36.5227 393.796 36.5227C393.981 36.5227 394.132 36.5133 394.251 36.4943C394.369 36.4706 394.464 36.4517 394.535 36.4375L394.876 37.9432C394.762 37.9858 394.603 38.0284 394.4 38.071C394.196 38.1184 393.938 38.142 393.626 38.142C393.152 38.142 392.688 38.0402 392.234 37.8366C391.784 37.633 391.41 37.3229 391.112 36.9062C390.818 36.4896 390.671 35.964 390.671 35.3295V24.4773ZM407.965 22.7727L403.278 40.1875H401.744L406.431 22.7727H407.965ZM417.566 23.4545V38H415.804V23.4545H417.566ZM425.302 38.2273C424.279 38.2273 423.398 37.9858 422.66 37.5028C421.921 37.0199 421.353 36.3546 420.955 35.5071C420.558 34.6596 420.359 33.6913 420.359 32.6023C420.359 31.4943 420.562 30.5166 420.969 29.669C421.381 28.8168 421.954 28.1515 422.688 27.6733C423.427 27.1903 424.289 26.9489 425.273 26.9489C426.04 26.9489 426.732 27.0909 427.347 27.375C427.963 27.6591 428.467 28.0568 428.86 28.5682C429.253 29.0795 429.497 29.6761 429.592 30.358H427.915C427.788 29.8608 427.504 29.4205 427.063 29.0369C426.628 28.6487 426.04 28.4545 425.302 28.4545C424.648 28.4545 424.076 28.625 423.583 28.9659C423.095 29.3021 422.714 29.7779 422.44 30.3935C422.17 31.0043 422.035 31.7216 422.035 32.5455C422.035 33.3883 422.167 34.1222 422.433 34.7472C422.702 35.3722 423.081 35.8575 423.569 36.2031C424.061 36.5488 424.639 36.7216 425.302 36.7216C425.737 36.7216 426.133 36.6458 426.488 36.4943C426.843 36.3428 427.144 36.125 427.39 35.8409C427.636 35.5568 427.811 35.2159 427.915 34.8182H429.592C429.497 35.4621 429.263 36.0421 428.888 36.5582C428.519 37.0696 428.029 37.4768 427.418 37.7798C426.812 38.0781 426.107 38.2273 425.302 38.2273ZM436.474 38.2273C435.489 38.2273 434.625 37.9929 433.881 37.5241C433.143 37.0554 432.565 36.3996 432.148 35.5568C431.737 34.714 431.531 33.7292 431.531 32.6023C431.531 31.4659 431.737 30.474 432.148 29.6264C432.565 28.7789 433.143 28.1207 433.881 27.652C434.625 27.1832 435.489 26.9489 436.474 26.9489C437.459 26.9489 438.32 27.1832 439.059 27.652C439.802 28.1207 440.38 28.7789 440.792 29.6264C441.209 30.474 441.417 31.4659 441.417 32.6023C441.417 33.7292 441.209 34.714 440.792 35.5568C440.38 36.3996 439.802 37.0554 439.059 37.5241C438.32 37.9929 437.459 38.2273 436.474 38.2273ZM436.474 36.7216C437.222 36.7216 437.837 36.5298 438.32 36.1463C438.803 35.7628 439.161 35.2585 439.393 34.6335C439.625 34.0085 439.741 33.3314 439.741 32.6023C439.741 31.8731 439.625 31.1937 439.393 30.5639C439.161 29.9342 438.803 29.4252 438.32 29.0369C437.837 28.6487 437.222 28.4545 436.474 28.4545C435.726 28.4545 435.11 28.6487 434.627 29.0369C434.144 29.4252 433.787 29.9342 433.555 30.5639C433.323 31.1937 433.207 31.8731 433.207 32.6023C433.207 33.3314 433.323 34.0085 433.555 34.6335C433.787 35.2585 434.144 35.7628 434.627 36.1463C435.11 36.5298 435.726 36.7216 436.474 36.7216ZM445.652 31.4375V38H443.975V27.0909H445.595V28.7955H445.737C445.993 28.2415 446.381 27.7964 446.902 27.4602C447.422 27.1193 448.095 26.9489 448.919 26.9489C449.657 26.9489 450.304 27.1004 450.858 27.4034C451.412 27.7017 451.842 28.1562 452.15 28.767C452.458 29.3731 452.612 30.1402 452.612 31.0682V38H450.936V31.1818C450.936 30.3248 450.713 29.6572 450.268 29.179C449.823 28.696 449.212 28.4545 448.436 28.4545C447.901 28.4545 447.422 28.5705 447.001 28.8026C446.584 29.0346 446.255 29.3731 446.014 29.8182C445.772 30.2633 445.652 30.803 445.652 31.4375Z" fill="white" fill-opacity="0.95"/>
<mask id="path-7-inside-3_2129_33354" fill="white">
<path d="M650 0H975V62H650V0Z"/>
</mask>
<path d="M650 0H975V62H650V0Z" fill="#1A1A1A"/>
<path d="M975 62V63H976V62H975ZM974 0V62H976V0H974ZM975 61H650V63H975V61Z" fill="#707070" mask="url(#path-7-inside-3_2129_33354)"/>
<path d="M693.466 28H691.705C691.6 27.4934 691.418 27.0483 691.158 26.6648C690.902 26.2812 690.589 25.9593 690.22 25.6989C689.856 25.4337 689.451 25.2348 689.006 25.1023C688.561 24.9697 688.097 24.9034 687.614 24.9034C686.733 24.9034 685.935 25.1259 685.22 25.571C684.51 26.0161 683.944 26.6719 683.523 27.5384C683.106 28.4048 682.898 29.4678 682.898 30.7273C682.898 31.9867 683.106 33.0497 683.523 33.9162C683.944 34.7827 684.51 35.4384 685.22 35.8835C685.935 36.3286 686.733 36.5511 687.614 36.5511C688.097 36.5511 688.561 36.4848 689.006 36.3523C689.451 36.2197 689.856 36.0232 690.22 35.7628C690.589 35.4976 690.902 35.1733 691.158 34.7898C691.418 34.4015 691.6 33.9564 691.705 33.4545H693.466C693.333 34.1979 693.092 34.8632 692.741 35.4503C692.391 36.0374 691.955 36.5369 691.435 36.9489C690.914 37.3561 690.329 37.6662 689.68 37.8793C689.036 38.0923 688.348 38.1989 687.614 38.1989C686.373 38.1989 685.27 37.8958 684.304 37.2898C683.338 36.6837 682.578 35.822 682.024 34.7045C681.47 33.5871 681.193 32.2614 681.193 30.7273C681.193 29.1932 681.47 27.8674 682.024 26.75C682.578 25.6326 683.338 24.7708 684.304 24.1648C685.27 23.5587 686.373 23.2557 687.614 23.2557C688.348 23.2557 689.036 23.3622 689.68 23.5753C690.329 23.7884 690.914 24.1009 691.435 24.5128C691.955 24.92 692.391 25.4171 692.741 26.0043C693.092 26.5866 693.333 27.2519 693.466 28ZM700.517 38.2273C699.532 38.2273 698.668 37.9929 697.924 37.5241C697.186 37.0554 696.608 36.3996 696.191 35.5568C695.779 34.714 695.574 33.7292 695.574 32.6023C695.574 31.4659 695.779 30.474 696.191 29.6264C696.608 28.7789 697.186 28.1207 697.924 27.652C698.668 27.1832 699.532 26.9489 700.517 26.9489C701.502 26.9489 702.363 27.1832 703.102 27.652C703.845 28.1207 704.423 28.7789 704.835 29.6264C705.252 30.474 705.46 31.4659 705.46 32.6023C705.46 33.7292 705.252 34.714 704.835 35.5568C704.423 36.3996 703.845 37.0554 703.102 37.5241C702.363 37.9929 701.502 38.2273 700.517 38.2273ZM700.517 36.7216C701.265 36.7216 701.88 36.5298 702.363 36.1463C702.846 35.7628 703.204 35.2585 703.436 34.6335C703.668 34.0085 703.784 33.3314 703.784 32.6023C703.784 31.8731 703.668 31.1937 703.436 30.5639C703.204 29.9342 702.846 29.4252 702.363 29.0369C701.88 28.6487 701.265 28.4545 700.517 28.4545C699.769 28.4545 699.153 28.6487 698.67 29.0369C698.187 29.4252 697.83 29.9342 697.598 30.5639C697.366 31.1937 697.25 31.8731 697.25 32.6023C697.25 33.3314 697.366 34.0085 697.598 34.6335C697.83 35.2585 698.187 35.7628 698.67 36.1463C699.153 36.5298 699.769 36.7216 700.517 36.7216ZM709.695 23.4545V38H708.018V23.4545H709.695ZM717.196 38.2273C716.212 38.2273 715.347 37.9929 714.604 37.5241C713.865 37.0554 713.288 36.3996 712.871 35.5568C712.459 34.714 712.253 33.7292 712.253 32.6023C712.253 31.4659 712.459 30.474 712.871 29.6264C713.288 28.7789 713.865 28.1207 714.604 27.652C715.347 27.1832 716.212 26.9489 717.196 26.9489C718.181 26.9489 719.043 27.1832 719.782 27.652C720.525 28.1207 721.103 28.7789 721.515 29.6264C721.931 30.474 722.14 31.4659 722.14 32.6023C722.14 33.7292 721.931 34.714 721.515 35.5568C721.103 36.3996 720.525 37.0554 719.782 37.5241C719.043 37.9929 718.181 38.2273 717.196 38.2273ZM717.196 36.7216C717.944 36.7216 718.56 36.5298 719.043 36.1463C719.526 35.7628 719.883 35.2585 720.115 34.6335C720.347 34.0085 720.463 33.3314 720.463 32.6023C720.463 31.8731 720.347 31.1937 720.115 30.5639C719.883 29.9342 719.526 29.4252 719.043 29.0369C718.56 28.6487 717.944 28.4545 717.196 28.4545C716.448 28.4545 715.833 28.6487 715.35 29.0369C714.867 29.4252 714.509 29.9342 714.277 30.5639C714.045 31.1937 713.929 31.8731 713.929 32.6023C713.929 33.3314 714.045 34.0085 714.277 34.6335C714.509 35.2585 714.867 35.7628 715.35 36.1463C715.833 36.5298 716.448 36.7216 717.196 36.7216ZM724.698 38V27.0909H726.317V28.7386H726.431C726.63 28.1989 726.99 27.7609 727.511 27.4247C728.031 27.0885 728.619 26.9205 729.272 26.9205C729.395 26.9205 729.549 26.9228 729.734 26.9276C729.918 26.9323 730.058 26.9394 730.153 26.9489V28.6534C730.096 28.6392 729.966 28.6179 729.762 28.5895C729.563 28.5563 729.353 28.5398 729.13 28.5398C728.6 28.5398 728.126 28.651 727.71 28.8736C727.298 29.0914 726.971 29.3944 726.729 29.7827C726.493 30.1662 726.374 30.6042 726.374 31.0966V38H724.698Z" fill="white" fill-opacity="0.95"/>
<mask id="path-10-inside-4_2129_33354" fill="white">
<path d="M975 0H1300V62H975V0Z"/>
</mask>
<path d="M975 0H1300V62H975V0Z" fill="#1A1A1A"/>
<path d="M1300 61H975V63H1300V61Z" fill="#707070" mask="url(#path-10-inside-4_2129_33354)"/>
<path d="M1009.23 34.422V35.57C1008.88 35.6633 1008.55 35.71 1008.23 35.71C1007.56 35.71 1007.06 35.5 1006.72 35.08C1006.43 34.7347 1006.29 34.2727 1006.29 33.694V29.368H1005.21V28.22H1006.29L1006.37 26.47H1007.63V28.22H1009.2V29.368H1007.63V33.722C1007.63 34.2633 1007.89 34.534 1008.4 34.534C1008.64 34.534 1008.92 34.4967 1009.23 34.422ZM1011.84 35.5H1010.49V25.42H1011.84V29.046C1012.37 28.3553 1013.08 28.01 1013.96 28.01C1014.82 28.01 1015.48 28.276 1015.94 28.808C1016.34 29.284 1016.54 29.9327 1016.54 30.754V35.5H1015.2V30.768C1015.2 29.6947 1014.68 29.158 1013.64 29.158C1013.09 29.158 1012.64 29.3493 1012.3 29.732C1011.99 30.0773 1011.84 30.5207 1011.84 31.062V35.5ZM1023.39 33.4H1024.85C1024.64 34.1373 1024.24 34.716 1023.63 35.136C1023.06 35.5187 1022.38 35.71 1021.59 35.71C1020.44 35.71 1019.54 35.346 1018.9 34.618C1018.31 33.9367 1018.02 33.0173 1018.02 31.86C1018.02 30.544 1018.39 29.5453 1019.14 28.864C1019.75 28.2947 1020.54 28.01 1021.52 28.01C1022.65 28.01 1023.51 28.3787 1024.09 29.116C1024.65 29.8253 1024.93 30.838 1024.93 32.154H1019.39C1019.44 33.0127 1019.7 33.652 1020.17 34.072C1020.55 34.408 1021.04 34.576 1021.63 34.576C1022.08 34.576 1022.48 34.45 1022.82 34.198C1023.1 33.9833 1023.29 33.7173 1023.39 33.4ZM1021.54 29.088C1020.95 29.088 1020.47 29.2747 1020.1 29.648C1019.76 29.9933 1019.54 30.474 1019.44 31.09H1023.56C1023.51 30.39 1023.28 29.8673 1022.86 29.522C1022.52 29.2327 1022.08 29.088 1021.54 29.088ZM1027.89 35.5H1026.54V28.22H1027.65L1027.79 29.074C1028.28 28.3647 1029 28.01 1029.93 28.01C1030.95 28.01 1031.66 28.3927 1032.07 29.158C1032.56 28.3927 1033.35 28.01 1034.44 28.01C1035.25 28.01 1035.88 28.2573 1036.31 28.752C1036.71 29.2093 1036.9 29.8347 1036.9 30.628V35.5H1035.56V30.726C1035.56 29.6807 1035.09 29.158 1034.14 29.158C1033.58 29.158 1033.14 29.3773 1032.8 29.816C1032.53 30.1707 1032.39 30.586 1032.39 31.062V35.5H1031.05V30.726C1031.05 29.6807 1030.58 29.158 1029.64 29.158C1029.11 29.158 1028.68 29.3633 1028.33 29.774C1028.04 30.1193 1027.89 30.5347 1027.89 31.02V35.5ZM1043.75 33.4H1045.2C1045 34.1373 1044.59 34.716 1043.99 35.136C1043.42 35.5187 1042.74 35.71 1041.94 35.71C1040.79 35.71 1039.9 35.346 1039.25 34.618C1038.67 33.9367 1038.37 33.0173 1038.37 31.86C1038.37 30.544 1038.75 29.5453 1039.49 28.864C1040.11 28.2947 1040.9 28.01 1041.87 28.01C1043.01 28.01 1043.87 28.3787 1044.45 29.116C1045.01 29.8253 1045.29 30.838 1045.29 32.154H1039.74C1039.8 33.0127 1040.06 33.652 1040.53 34.072C1040.91 34.408 1041.4 34.576 1041.98 34.576C1042.44 34.576 1042.84 34.45 1043.17 34.198C1043.45 33.9833 1043.65 33.7173 1043.75 33.4ZM1041.9 29.088C1041.3 29.088 1040.82 29.2747 1040.46 29.648C1040.11 29.9933 1039.89 30.474 1039.8 31.09H1043.92C1043.87 30.39 1043.64 29.8673 1043.22 29.522C1042.88 29.2327 1042.44 29.088 1041.9 29.088ZM1046.34 36.76L1049.83 25.21H1051.1L1047.61 36.76H1046.34ZM1053.85 35.5H1052.51V28.22H1053.61L1053.77 29.144C1054.31 28.388 1055.04 28.01 1055.98 28.01C1056.84 28.01 1057.49 28.276 1057.95 28.808C1058.35 29.284 1058.55 29.9327 1058.55 30.754V35.5H1057.21V30.768C1057.21 29.6947 1056.69 29.158 1055.66 29.158C1055.11 29.158 1054.67 29.3447 1054.33 29.718C1054.01 30.054 1053.85 30.4833 1053.85 31.006V35.5ZM1065.4 33.4H1066.86C1066.66 34.1373 1066.25 34.716 1065.64 35.136C1065.07 35.5187 1064.39 35.71 1063.6 35.71C1062.45 35.71 1061.55 35.346 1060.91 34.618C1060.32 33.9367 1060.03 33.0173 1060.03 31.86C1060.03 30.544 1060.4 29.5453 1061.15 28.864C1061.76 28.2947 1062.56 28.01 1063.53 28.01C1064.67 28.01 1065.53 28.3787 1066.1 29.116C1066.66 29.8253 1066.94 30.838 1066.94 32.154H1061.4C1061.46 33.0127 1061.72 33.652 1062.18 34.072C1062.57 34.408 1063.05 34.576 1063.64 34.576C1064.1 34.576 1064.49 34.45 1064.83 34.198C1065.11 33.9833 1065.3 33.7173 1065.4 33.4ZM1063.56 29.088C1062.96 29.088 1062.48 29.2747 1062.11 29.648C1061.77 29.9933 1061.55 30.474 1061.46 31.09H1065.57C1065.53 30.39 1065.29 29.8673 1064.87 29.522C1064.54 29.2327 1064.1 29.088 1063.56 29.088ZM1068.49 28.22H1069.83V32.994C1069.83 34.0393 1070.33 34.562 1071.34 34.562C1071.96 34.562 1072.43 34.3427 1072.76 33.904C1073.01 33.568 1073.13 33.1527 1073.13 32.658V28.22H1074.48V35.5H1073.37L1073.22 34.66C1072.7 35.36 1071.98 35.71 1071.03 35.71C1070.2 35.71 1069.56 35.4533 1069.12 34.94C1068.7 34.464 1068.49 33.806 1068.49 32.966V28.22ZM1079.69 34.422V35.57C1079.35 35.6633 1079.02 35.71 1078.7 35.71C1078.03 35.71 1077.52 35.5 1077.19 35.08C1076.9 34.7347 1076.75 34.2727 1076.75 33.694V29.368H1075.67V28.22H1076.75L1076.84 26.47H1078.1V28.22H1079.66V29.368H1078.1V33.722C1078.1 34.2633 1078.35 34.534 1078.87 34.534C1079.11 34.534 1079.38 34.4967 1079.69 34.422ZM1082.3 35.5H1080.96V28.22H1082.06L1082.24 29.298C1082.66 28.4393 1083.27 28.01 1084.09 28.01C1084.36 28.01 1084.63 28.0427 1084.89 28.108V29.452C1084.57 29.368 1084.29 29.326 1084.04 29.326C1083.5 29.326 1083.07 29.5453 1082.76 29.984C1082.45 30.4227 1082.3 31.0433 1082.3 31.846V35.5ZM1087.09 30.25H1085.67C1085.74 29.522 1086.09 28.9573 1086.7 28.556C1087.25 28.192 1087.95 28.01 1088.79 28.01C1089.79 28.01 1090.55 28.2713 1091.08 28.794C1091.53 29.242 1091.76 29.8207 1091.76 30.53V35.5H1090.65L1090.48 34.506C1089.91 35.3087 1089.1 35.71 1088.05 35.71C1087.22 35.71 1086.57 35.486 1086.1 35.038C1085.72 34.6647 1085.53 34.1933 1085.53 33.624C1085.53 32.9053 1085.77 32.35 1086.27 31.958C1086.71 31.6127 1087.38 31.3607 1088.28 31.202L1090.41 30.838V30.474C1090.41 29.998 1090.25 29.6387 1089.92 29.396C1089.63 29.1813 1089.24 29.074 1088.73 29.074C1087.74 29.074 1087.2 29.466 1087.09 30.25ZM1088.37 34.576C1088.94 34.576 1089.43 34.3893 1089.85 34.016C1090.23 33.6707 1090.41 33.274 1090.41 32.826V31.888L1088.61 32.21C1087.94 32.322 1087.49 32.4947 1087.25 32.728C1087.05 32.9147 1086.95 33.1667 1086.95 33.484C1086.95 33.8387 1087.08 34.1093 1087.32 34.296C1087.56 34.4827 1087.91 34.576 1088.37 34.576ZM1094.99 25.42V35.5H1093.64V25.42H1094.99ZM1096.39 36.76L1099.88 25.21H1101.15L1097.67 36.76H1096.39ZM1105.81 34.422V35.57C1105.46 35.6633 1105.13 35.71 1104.81 35.71C1104.14 35.71 1103.64 35.5 1103.3 35.08C1103.01 34.7347 1102.87 34.2727 1102.87 33.694V29.368H1101.79V28.22H1102.87L1102.95 26.47H1104.21V28.22H1105.78V29.368H1104.21V33.722C1104.21 34.2633 1104.47 34.534 1104.98 34.534C1105.22 34.534 1105.5 34.4967 1105.81 34.422ZM1111.96 33.4H1113.41C1113.21 34.1373 1112.8 34.716 1112.2 35.136C1111.63 35.5187 1110.94 35.71 1110.15 35.71C1109 35.71 1108.11 35.346 1107.46 34.618C1106.88 33.9367 1106.58 33.0173 1106.58 31.86C1106.58 30.544 1106.95 29.5453 1107.7 28.864C1108.32 28.2947 1109.11 28.01 1110.08 28.01C1111.22 28.01 1112.08 28.3787 1112.66 29.116C1113.22 29.8253 1113.5 30.838 1113.5 32.154H1107.95C1108.01 33.0127 1108.27 33.652 1108.74 34.072C1109.12 34.408 1109.61 34.576 1110.19 34.576C1110.65 34.576 1111.05 34.45 1111.38 34.198C1111.66 33.9833 1111.85 33.7173 1111.96 33.4ZM1110.11 29.088C1109.51 29.088 1109.03 29.2747 1108.67 29.648C1108.32 29.9933 1108.1 30.474 1108.01 31.09H1112.13C1112.08 30.39 1111.85 29.8673 1111.43 29.522C1111.09 29.2327 1110.65 29.088 1110.11 29.088ZM1120.97 28.22L1118.54 31.622L1121.39 35.5H1119.76L1117.78 32.686L1115.85 35.5H1114.27L1116.98 31.72L1114.44 28.22H1116.05L1117.78 30.67L1119.43 28.22H1120.97ZM1125.77 34.422V35.57C1125.42 35.6633 1125.09 35.71 1124.77 35.71C1124.1 35.71 1123.6 35.5 1123.26 35.08C1122.97 34.7347 1122.83 34.2727 1122.83 33.694V29.368H1121.75V28.22H1122.83L1122.91 26.47H1124.17V28.22H1125.74V29.368H1124.17V33.722C1124.17 34.2633 1124.43 34.534 1124.94 34.534C1125.18 34.534 1125.46 34.4967 1125.77 34.422ZM1126.47 36.76L1129.96 25.21H1131.23L1127.74 36.76H1126.47ZM1139.2 35.5H1138.1L1137.86 34.478C1137.3 35.2993 1136.49 35.71 1135.44 35.71C1134.42 35.71 1133.62 35.3413 1133.03 34.604C1132.49 33.9227 1132.22 33.022 1132.22 31.902C1132.22 30.5487 1132.56 29.5313 1133.25 28.85C1133.83 28.29 1134.59 28.01 1135.52 28.01C1136.53 28.01 1137.31 28.388 1137.86 29.144V25.42H1139.2V35.5ZM1133.62 31.93C1133.62 32.8353 1133.84 33.5213 1134.29 33.988C1134.66 34.3707 1135.14 34.562 1135.73 34.562C1136.46 34.562 1137.02 34.2867 1137.42 33.736C1137.76 33.26 1137.93 32.6627 1137.93 31.944C1137.93 31.0013 1137.7 30.2827 1137.26 29.788C1136.87 29.368 1136.36 29.158 1135.73 29.158C1135.02 29.158 1134.48 29.4147 1134.12 29.928C1133.78 30.3947 1133.62 31.062 1133.62 31.93ZM1142.6 27.002H1141.08V25.42H1142.6V27.002ZM1142.51 35.5H1141.17V28.22H1142.51V35.5ZM1148.73 33.526C1148.73 33.1153 1148.52 32.8073 1148.09 32.602C1147.84 32.49 1147.35 32.35 1146.62 32.182C1145.72 31.986 1145.08 31.7013 1144.7 31.328C1144.38 31.0107 1144.22 30.5953 1144.22 30.082C1144.22 29.4007 1144.5 28.878 1145.05 28.514C1145.54 28.178 1146.21 28.01 1147.05 28.01C1147.92 28.01 1148.62 28.2247 1149.17 28.654C1149.63 29.0273 1149.92 29.522 1150.03 30.138H1148.66C1148.5 29.4287 1147.96 29.074 1147.04 29.074C1146.52 29.074 1146.14 29.1673 1145.89 29.354C1145.68 29.5127 1145.58 29.7133 1145.58 29.956C1145.58 30.2547 1145.69 30.4787 1145.92 30.628C1146.15 30.7773 1146.6 30.9267 1147.28 31.076C1148.3 31.3 1149.02 31.5753 1149.42 31.902C1149.87 32.266 1150.09 32.7747 1150.09 33.428C1150.09 34.156 1149.79 34.73 1149.19 35.15C1148.65 35.5233 1147.94 35.71 1147.05 35.71C1146.08 35.71 1145.31 35.4767 1144.74 35.01C1144.25 34.5993 1143.97 34.0673 1143.92 33.414H1145.29C1145.44 34.2353 1146.03 34.646 1147.07 34.646C1147.63 34.646 1148.06 34.5247 1148.37 34.282C1148.61 34.086 1148.73 33.834 1148.73 33.526ZM1152.77 30.25H1151.35C1151.42 29.522 1151.77 28.9573 1152.38 28.556C1152.93 28.192 1153.63 28.01 1154.47 28.01C1155.47 28.01 1156.23 28.2713 1156.76 28.794C1157.21 29.242 1157.44 29.8207 1157.44 30.53V35.5H1156.33L1156.16 34.506C1155.59 35.3087 1154.78 35.71 1153.73 35.71C1152.9 35.71 1152.25 35.486 1151.78 35.038C1151.4 34.6647 1151.21 34.1933 1151.21 33.624C1151.21 32.9053 1151.45 32.35 1151.95 31.958C1152.39 31.6127 1153.06 31.3607 1153.96 31.202L1156.09 30.838V30.474C1156.09 29.998 1155.93 29.6387 1155.6 29.396C1155.31 29.1813 1154.92 29.074 1154.41 29.074C1153.42 29.074 1152.88 29.466 1152.77 30.25ZM1154.05 34.576C1154.62 34.576 1155.11 34.3893 1155.53 34.016C1155.91 33.6707 1156.09 33.274 1156.09 32.826V31.888L1154.29 32.21C1153.62 32.322 1153.17 32.4947 1152.93 32.728C1152.73 32.9147 1152.63 33.1667 1152.63 33.484C1152.63 33.8387 1152.76 34.1093 1153 34.296C1153.24 34.4827 1153.59 34.576 1154.05 34.576ZM1160.43 35.5H1159.32V25.42H1160.67V29.228C1161.24 28.416 1162.05 28.01 1163.1 28.01C1164.15 28.01 1164.96 28.3833 1165.54 29.13C1166.05 29.802 1166.31 30.6933 1166.31 31.804C1166.31 33.12 1165.96 34.128 1165.26 34.828C1164.67 35.416 1163.92 35.71 1163.01 35.71C1161.97 35.71 1161.18 35.318 1160.64 34.534L1160.43 35.5ZM1164.91 31.776C1164.91 30.8613 1164.68 30.1753 1164.22 29.718C1163.86 29.3447 1163.38 29.158 1162.8 29.158C1162.11 29.158 1161.57 29.4053 1161.17 29.9C1160.79 30.376 1160.6 31.0013 1160.6 31.776C1160.6 32.7093 1160.83 33.4233 1161.28 33.918C1161.67 34.3473 1162.17 34.562 1162.8 34.562C1163.5 34.562 1164.03 34.3053 1164.39 33.792C1164.74 33.316 1164.91 32.644 1164.91 31.776ZM1169.2 25.42V35.5H1167.86V25.42H1169.2ZM1176.12 33.4H1177.58C1177.37 34.1373 1176.96 34.716 1176.36 35.136C1175.79 35.5187 1175.11 35.71 1174.31 35.71C1173.17 35.71 1172.27 35.346 1171.63 34.618C1171.04 33.9367 1170.74 33.0173 1170.74 31.86C1170.74 30.544 1171.12 29.5453 1171.86 28.864C1172.48 28.2947 1173.27 28.01 1174.24 28.01C1175.38 28.01 1176.24 28.3787 1176.82 29.116C1177.38 29.8253 1177.66 30.838 1177.66 32.154H1172.12C1172.17 33.0127 1172.43 33.652 1172.9 34.072C1173.28 34.408 1173.77 34.576 1174.36 34.576C1174.81 34.576 1175.21 34.45 1175.55 34.198C1175.83 33.9833 1176.02 33.7173 1176.12 33.4ZM1174.27 29.088C1173.67 29.088 1173.19 29.2747 1172.83 29.648C1172.48 29.9933 1172.26 30.474 1172.17 31.09H1176.29C1176.24 30.39 1176.01 29.8673 1175.59 29.522C1175.25 29.2327 1174.81 29.088 1174.27 29.088ZM1185.84 35.5H1184.73L1184.49 34.478C1183.93 35.2993 1183.13 35.71 1182.07 35.71C1181.05 35.71 1180.25 35.3413 1179.66 34.604C1179.12 33.9227 1178.85 33.022 1178.85 31.902C1178.85 30.5487 1179.2 29.5313 1179.89 28.85C1180.47 28.29 1181.22 28.01 1182.16 28.01C1183.16 28.01 1183.94 28.388 1184.49 29.144V25.42H1185.84V35.5ZM1180.25 31.93C1180.25 32.8353 1180.48 33.5213 1180.92 33.988C1181.3 34.3707 1181.78 34.562 1182.37 34.562C1183.09 34.562 1183.66 34.2867 1184.06 33.736C1184.4 33.26 1184.56 32.6627 1184.56 31.944C1184.56 31.0013 1184.34 30.2827 1183.89 29.788C1183.51 29.368 1183 29.158 1182.37 29.158C1181.66 29.158 1181.12 29.4147 1180.76 29.928C1180.42 30.3947 1180.25 31.062 1180.25 31.93Z" fill="white" fill-opacity="0.95"/>
</svg>
