<svg width="630" height="270" viewBox="0 0 630 270" fill="none" xmlns="http://www.w3.org/2000/svg">
<path d="M0 24C0 10.7452 10.7452 0 24 0H606C619.255 0 630 10.7452 630 24V246C630 259.255 619.255 270 606 270H24C10.7452 270 0 259.255 0 246V24Z" fill="#262626"/>
<path d="M585.2 48.2001C585.069 48.2004 584.938 48.1744 584.816 48.1238C584.695 48.0732 584.584 47.9989 584.491 47.9051L577.291 40.6698C577.199 40.5767 577.125 40.4663 577.075 40.3448C577.026 40.2233 577 40.0933 577 39.9619C577.001 39.8306 577.027 39.7007 577.078 39.5795C577.128 39.4583 577.202 39.3483 577.295 39.2557C577.388 39.1631 577.499 39.0898 577.62 39.0399C577.742 38.9899 577.872 38.9644 578.003 38.9648C578.134 38.9652 578.264 38.9914 578.385 39.042C578.507 39.0926 578.617 39.1665 578.709 39.2596L585.254 45.8368L601.35 32.0419C601.551 31.8694 601.813 31.7839 602.077 31.8042C602.341 31.8245 602.587 31.949 602.759 32.1503C602.932 32.3515 603.017 32.613 602.997 32.8773C602.976 33.1416 602.852 33.387 602.651 33.5594L585.851 47.9589C585.67 48.1147 585.439 48.2003 585.2 48.2001Z" fill="url(#paint0_linear_2129_24115)"/>
<rect x="189.5" y="113" width="119" height="39" rx="19.5" stroke="white" stroke-opacity="0.3"/>
<path d="M229.513 138.5V126.864H231.268V136.989H236.541V138.5H229.513ZM240.947 138.693C240.394 138.693 239.894 138.591 239.447 138.386C239 138.178 238.646 137.877 238.385 137.483C238.127 137.089 237.999 136.606 237.999 136.034C237.999 135.542 238.093 135.136 238.283 134.818C238.472 134.5 238.728 134.248 239.05 134.062C239.372 133.877 239.732 133.737 240.129 133.642C240.527 133.547 240.932 133.475 241.345 133.426C241.868 133.366 242.292 133.316 242.618 133.278C242.944 133.237 243.18 133.17 243.328 133.08C243.476 132.989 243.55 132.841 243.55 132.636V132.597C243.55 132.1 243.41 131.716 243.129 131.443C242.853 131.17 242.44 131.034 241.891 131.034C241.319 131.034 240.868 131.161 240.538 131.415C240.213 131.665 239.987 131.943 239.862 132.25L238.266 131.886C238.455 131.356 238.732 130.928 239.095 130.602C239.463 130.273 239.885 130.034 240.362 129.886C240.839 129.735 241.341 129.659 241.868 129.659C242.216 129.659 242.586 129.701 242.976 129.784C243.37 129.864 243.737 130.011 244.078 130.227C244.423 130.443 244.705 130.752 244.925 131.153C245.144 131.551 245.254 132.068 245.254 132.705V138.5H243.595V137.307H243.527C243.417 137.527 243.252 137.742 243.033 137.955C242.813 138.167 242.531 138.343 242.186 138.483C241.841 138.623 241.429 138.693 240.947 138.693ZM241.317 137.33C241.786 137.33 242.188 137.237 242.521 137.051C242.858 136.866 243.114 136.623 243.288 136.324C243.466 136.021 243.555 135.697 243.555 135.352V134.227C243.495 134.288 243.377 134.345 243.203 134.398C243.033 134.447 242.838 134.491 242.618 134.528C242.398 134.562 242.184 134.595 241.976 134.625C241.768 134.652 241.593 134.674 241.453 134.693C241.124 134.735 240.822 134.805 240.55 134.903C240.281 135.002 240.065 135.144 239.902 135.33C239.743 135.511 239.663 135.754 239.663 136.057C239.663 136.477 239.819 136.795 240.129 137.011C240.44 137.223 240.836 137.33 241.317 137.33ZM247.653 138.5V126.864H249.352V131.188H249.455C249.553 131.006 249.695 130.795 249.881 130.557C250.066 130.318 250.324 130.11 250.653 129.932C250.983 129.75 251.419 129.659 251.96 129.659C252.665 129.659 253.294 129.837 253.847 130.193C254.4 130.549 254.833 131.062 255.148 131.733C255.466 132.403 255.625 133.21 255.625 134.153C255.625 135.097 255.468 135.905 255.153 136.58C254.839 137.25 254.407 137.767 253.858 138.131C253.309 138.491 252.682 138.67 251.977 138.67C251.447 138.67 251.013 138.581 250.676 138.403C250.343 138.225 250.081 138.017 249.892 137.778C249.703 137.54 249.557 137.328 249.455 137.142H249.312V138.5H247.653ZM249.318 134.136C249.318 134.75 249.407 135.288 249.585 135.75C249.763 136.212 250.021 136.574 250.358 136.835C250.695 137.093 251.108 137.222 251.597 137.222C252.104 137.222 252.528 137.087 252.869 136.818C253.21 136.545 253.468 136.176 253.642 135.71C253.82 135.244 253.909 134.72 253.909 134.136C253.909 133.561 253.822 133.044 253.648 132.585C253.477 132.127 253.22 131.765 252.875 131.5C252.534 131.235 252.108 131.102 251.597 131.102C251.104 131.102 250.688 131.229 250.347 131.483C250.009 131.737 249.754 132.091 249.58 132.545C249.405 133 249.318 133.53 249.318 134.136ZM261.294 138.676C260.434 138.676 259.694 138.492 259.072 138.125C258.455 137.754 257.978 137.233 257.641 136.562C257.307 135.888 257.141 135.098 257.141 134.193C257.141 133.299 257.307 132.511 257.641 131.83C257.978 131.148 258.447 130.616 259.05 130.233C259.656 129.85 260.364 129.659 261.175 129.659C261.667 129.659 262.144 129.741 262.607 129.903C263.069 130.066 263.483 130.322 263.851 130.67C264.218 131.019 264.508 131.472 264.72 132.028C264.932 132.581 265.038 133.254 265.038 134.045V134.648H258.101V133.375H263.374C263.374 132.928 263.283 132.532 263.101 132.188C262.919 131.839 262.663 131.564 262.334 131.364C262.008 131.163 261.625 131.062 261.186 131.062C260.709 131.062 260.292 131.18 259.936 131.415C259.584 131.646 259.311 131.949 259.118 132.324C258.929 132.695 258.834 133.098 258.834 133.534V134.528C258.834 135.112 258.936 135.608 259.141 136.017C259.349 136.426 259.639 136.739 260.01 136.955C260.381 137.167 260.815 137.273 261.311 137.273C261.633 137.273 261.927 137.227 262.192 137.136C262.457 137.042 262.686 136.902 262.879 136.716C263.072 136.53 263.22 136.301 263.322 136.028L264.93 136.318C264.802 136.792 264.571 137.206 264.237 137.562C263.908 137.915 263.493 138.189 262.993 138.386C262.497 138.58 261.93 138.676 261.294 138.676ZM268.622 126.864V138.5H266.923V126.864H268.622Z" fill="white" fill-opacity="0.95"/>
<rect x="321" y="112.5" width="120" height="40" rx="20" fill="#1D805F"/>
<path d="M361.513 138.5V126.864H363.268V136.989H368.541V138.5H361.513ZM372.947 138.693C372.394 138.693 371.894 138.591 371.447 138.386C371 138.178 370.646 137.877 370.385 137.483C370.127 137.089 369.999 136.606 369.999 136.034C369.999 135.542 370.093 135.136 370.283 134.818C370.472 134.5 370.728 134.248 371.05 134.062C371.372 133.877 371.732 133.737 372.129 133.642C372.527 133.547 372.932 133.475 373.345 133.426C373.868 133.366 374.292 133.316 374.618 133.278C374.944 133.237 375.18 133.17 375.328 133.08C375.476 132.989 375.55 132.841 375.55 132.636V132.597C375.55 132.1 375.41 131.716 375.129 131.443C374.853 131.17 374.44 131.034 373.891 131.034C373.319 131.034 372.868 131.161 372.538 131.415C372.213 131.665 371.987 131.943 371.862 132.25L370.266 131.886C370.455 131.356 370.732 130.928 371.095 130.602C371.463 130.273 371.885 130.034 372.362 129.886C372.839 129.735 373.341 129.659 373.868 129.659C374.216 129.659 374.586 129.701 374.976 129.784C375.37 129.864 375.737 130.011 376.078 130.227C376.423 130.443 376.705 130.752 376.925 131.153C377.144 131.551 377.254 132.068 377.254 132.705V138.5H375.595V137.307H375.527C375.417 137.527 375.252 137.742 375.033 137.955C374.813 138.167 374.531 138.343 374.186 138.483C373.841 138.623 373.429 138.693 372.947 138.693ZM373.317 137.33C373.786 137.33 374.188 137.237 374.521 137.051C374.858 136.866 375.114 136.623 375.288 136.324C375.466 136.021 375.555 135.697 375.555 135.352V134.227C375.495 134.288 375.377 134.345 375.203 134.398C375.033 134.447 374.838 134.491 374.618 134.528C374.398 134.562 374.184 134.595 373.976 134.625C373.768 134.652 373.593 134.674 373.453 134.693C373.124 134.735 372.822 134.805 372.55 134.903C372.281 135.002 372.065 135.144 371.902 135.33C371.743 135.511 371.663 135.754 371.663 136.057C371.663 136.477 371.819 136.795 372.129 137.011C372.44 137.223 372.836 137.33 373.317 137.33ZM379.653 138.5V126.864H381.352V131.188H381.455C381.553 131.006 381.695 130.795 381.881 130.557C382.066 130.318 382.324 130.11 382.653 129.932C382.983 129.75 383.419 129.659 383.96 129.659C384.665 129.659 385.294 129.837 385.847 130.193C386.4 130.549 386.833 131.062 387.148 131.733C387.466 132.403 387.625 133.21 387.625 134.153C387.625 135.097 387.468 135.905 387.153 136.58C386.839 137.25 386.407 137.767 385.858 138.131C385.309 138.491 384.682 138.67 383.977 138.67C383.447 138.67 383.013 138.581 382.676 138.403C382.343 138.225 382.081 138.017 381.892 137.778C381.703 137.54 381.557 137.328 381.455 137.142H381.312V138.5H379.653ZM381.318 134.136C381.318 134.75 381.407 135.288 381.585 135.75C381.763 136.212 382.021 136.574 382.358 136.835C382.695 137.093 383.108 137.222 383.597 137.222C384.104 137.222 384.528 137.087 384.869 136.818C385.21 136.545 385.468 136.176 385.642 135.71C385.82 135.244 385.909 134.72 385.909 134.136C385.909 133.561 385.822 133.044 385.648 132.585C385.477 132.127 385.22 131.765 384.875 131.5C384.534 131.235 384.108 131.102 383.597 131.102C383.104 131.102 382.688 131.229 382.347 131.483C382.009 131.737 381.754 132.091 381.58 132.545C381.405 133 381.318 133.53 381.318 134.136ZM393.294 138.676C392.434 138.676 391.694 138.492 391.072 138.125C390.455 137.754 389.978 137.233 389.641 136.562C389.307 135.888 389.141 135.098 389.141 134.193C389.141 133.299 389.307 132.511 389.641 131.83C389.978 131.148 390.447 130.616 391.05 130.233C391.656 129.85 392.364 129.659 393.175 129.659C393.667 129.659 394.144 129.741 394.607 129.903C395.069 130.066 395.483 130.322 395.851 130.67C396.218 131.019 396.508 131.472 396.72 132.028C396.932 132.581 397.038 133.254 397.038 134.045V134.648H390.101V133.375H395.374C395.374 132.928 395.283 132.532 395.101 132.188C394.919 131.839 394.663 131.564 394.334 131.364C394.008 131.163 393.625 131.062 393.186 131.062C392.709 131.062 392.292 131.18 391.936 131.415C391.584 131.646 391.311 131.949 391.118 132.324C390.929 132.695 390.834 133.098 390.834 133.534V134.528C390.834 135.112 390.936 135.608 391.141 136.017C391.349 136.426 391.639 136.739 392.01 136.955C392.381 137.167 392.815 137.273 393.311 137.273C393.633 137.273 393.927 137.227 394.192 137.136C394.457 137.042 394.686 136.902 394.879 136.716C395.072 136.53 395.22 136.301 395.322 136.028L396.93 136.318C396.802 136.792 396.571 137.206 396.237 137.562C395.908 137.915 395.493 138.189 394.993 138.386C394.497 138.58 393.93 138.676 393.294 138.676ZM400.622 126.864V138.5H398.923V126.864H400.622Z" fill="white" fill-opacity="0.95"/>
<path d="M0 247H630C630 259.703 619.703 270 607 270H23C10.2975 270 0 259.703 0 247Z" fill="url(#paint1_linear_2129_24115)"/>
<defs>
<linearGradient id="paint0_linear_2129_24115" x1="590" y1="31.8013" x2="590" y2="48.2001" gradientUnits="userSpaceOnUse">
<stop stop-color="#3CC29A"/>
<stop offset="1" stop-color="#93C437"/>
</linearGradient>
<linearGradient id="paint1_linear_2129_24115" x1="315" y1="247" x2="315" y2="270" gradientUnits="userSpaceOnUse">
<stop stop-color="#3CC29A"/>
<stop offset="1" stop-color="#93C437"/>
</linearGradient>
</defs>
</svg>
