<svg width="1300" height="164" viewBox="0 0 1300 164" fill="none" xmlns="http://www.w3.org/2000/svg">
<rect width="1300" height="164" rx="20" fill="#262626"/>
<g clip-path="url(#clip0_2129_36694)">
<path d="M590.225 85.5176C591.046 84.5292 591.495 83.2849 591.495 82.0001C591.495 80.7153 591.046 79.471 590.225 78.4826L592.854 75.8535C592.901 75.8073 592.939 75.7521 592.965 75.6912C592.991 75.6303 593.004 75.5648 593.005 75.4987C593.005 75.4325 592.992 75.3668 592.967 75.3056C592.942 75.2444 592.905 75.1887 592.858 75.1419C592.811 75.0951 592.756 75.0581 592.694 75.0329C592.633 75.0078 592.568 74.9951 592.501 74.9955C592.435 74.9959 592.37 75.0095 592.309 75.0354C592.248 75.0613 592.193 75.099 592.147 75.1464L589.518 77.7746C588.531 76.9511 587.286 76.5 586 76.5C584.714 76.5 583.469 76.9511 582.482 77.7746L579.854 75.1464C579.759 75.0546 579.633 75.0036 579.501 75.0045C579.37 75.0053 579.244 75.0579 579.151 75.1509C579.058 75.2439 579.005 75.3698 579.005 75.5013C579.004 75.6328 579.055 75.7593 579.147 75.8535L581.775 78.4822C580.954 79.4707 580.505 80.7151 580.505 82C580.505 83.2848 580.954 84.5293 581.775 85.5177L579.147 88.1464C579.099 88.1926 579.061 88.2478 579.036 88.3087C579.01 88.3696 578.996 88.4351 578.996 88.5013C578.995 88.5675 579.008 88.6331 579.033 88.6943C579.058 88.7556 579.095 88.8112 579.142 88.858C579.189 88.9048 579.244 88.9418 579.306 88.967C579.367 88.9921 579.433 89.0049 579.499 89.0044C579.565 89.004 579.63 88.9905 579.691 88.9645C579.752 88.9386 579.807 88.9009 579.854 88.8535L582.482 86.2254C583.469 87.049 584.714 87.5 586 87.5C587.286 87.5 588.531 87.049 589.518 86.2254L592.147 88.8535C592.241 88.9453 592.367 88.9963 592.499 88.9955C592.63 88.9946 592.756 88.942 592.849 88.849C592.942 88.756 592.995 88.6302 592.996 88.4987C592.996 88.3671 592.945 88.2406 592.854 88.1464L590.225 85.5176ZM589.515 84.8076L586.707 82L589.515 79.1923C590.15 79.9902 590.496 80.98 590.496 82C590.496 83.02 590.15 84.0098 589.515 84.8076ZM586 77.5C587.021 77.4977 588.012 77.8455 588.808 78.4853L586 81.2929L583.192 78.4852C583.988 77.8454 584.979 77.4977 586 77.5ZM582.485 79.1922L585.293 82L582.485 84.8077C581.85 84.0099 581.503 83.02 581.503 82C581.503 80.9799 581.85 79.99 582.485 79.1922ZM586 86.5C584.979 86.5023 583.988 86.1545 583.192 85.5147L586 82.707L588.808 85.5146C588.012 86.1545 587.021 86.5023 586 86.5Z" fill="white" fill-opacity="0.95"/>
<path d="M622.224 85.5176C623.045 84.5292 623.494 83.2849 623.494 82.0001C623.494 80.7153 623.045 79.471 622.224 78.4826L624.853 75.8535C624.901 75.8073 624.938 75.7521 624.964 75.6912C624.99 75.6303 625.004 75.5648 625.004 75.4987C625.004 75.4325 624.992 75.3668 624.967 75.3056C624.941 75.2444 624.904 75.1887 624.858 75.1419C624.811 75.0951 624.755 75.0581 624.694 75.0329C624.633 75.0078 624.567 74.9951 624.501 74.9955C624.435 74.9959 624.369 75.0095 624.308 75.0354C624.247 75.0613 624.192 75.099 624.146 75.1464L621.518 77.7746C620.53 76.9511 619.285 76.5 618 76.5C616.714 76.5 615.469 76.9511 614.481 77.7746L611.853 75.1464C611.759 75.0546 611.632 75.0036 611.501 75.0045C611.369 75.0053 611.244 75.0579 611.151 75.1509C611.058 75.2439 611.005 75.3698 611.004 75.5013C611.003 75.6328 611.054 75.7593 611.146 75.8535L613.775 78.4822C612.954 79.4707 612.505 80.7151 612.505 82C612.505 83.2848 612.954 84.5293 613.775 85.5177L611.146 88.1464C611.099 88.1926 611.061 88.2478 611.035 88.3087C611.009 88.3696 610.996 88.4351 610.995 88.5013C610.995 88.5675 611.007 88.6331 611.033 88.6943C611.058 88.7556 611.095 88.8112 611.142 88.858C611.188 88.9048 611.244 88.9418 611.305 88.967C611.366 88.9921 611.432 89.0049 611.498 89.0044C611.564 89.004 611.63 88.9905 611.691 88.9645C611.752 88.9386 611.807 88.9009 611.853 88.8535L614.481 86.2254C615.469 87.049 616.714 87.5 618 87.5C619.285 87.5 620.53 87.049 621.518 86.2254L624.146 88.8535C624.24 88.9453 624.367 88.9963 624.498 88.9955C624.63 88.9946 624.756 88.942 624.849 88.849C624.942 88.756 624.994 88.6302 624.995 88.4987C624.996 88.3671 624.945 88.2406 624.853 88.1464L622.224 85.5176ZM621.514 84.8076L618.707 82L621.514 79.1923C622.15 79.9902 622.496 80.98 622.496 82C622.496 83.02 622.15 84.0098 621.514 84.8076ZM618 77.5C619.021 77.4977 620.012 77.8455 620.807 78.4853L618 81.2929L615.192 78.4852C615.988 77.8454 616.979 77.4977 618 77.5ZM614.485 79.1922L617.293 82L614.485 84.8077C613.849 84.0099 613.503 83.02 613.503 82C613.503 80.9799 613.849 79.99 614.485 79.1922ZM618 86.5C616.979 86.5023 615.988 86.1545 615.192 85.5147L618 82.707L620.807 85.5146C620.012 86.1545 619.021 86.5023 618 86.5Z" fill="white" fill-opacity="0.95"/>
<path d="M654.224 85.5176C655.045 84.5292 655.494 83.2849 655.494 82.0001C655.494 80.7153 655.045 79.471 654.224 78.4826L656.853 75.8535C656.901 75.8073 656.938 75.7521 656.964 75.6912C656.99 75.6303 657.004 75.5648 657.004 75.4987C657.004 75.4325 656.992 75.3668 656.967 75.3056C656.941 75.2444 656.904 75.1887 656.858 75.1419C656.811 75.0951 656.755 75.0581 656.694 75.0329C656.633 75.0078 656.567 74.9951 656.501 74.9955C656.435 74.9959 656.369 75.0095 656.308 75.0354C656.247 75.0613 656.192 75.099 656.146 75.1464L653.518 77.7746C652.53 76.9511 651.285 76.5 650 76.5C648.714 76.5 647.469 76.9511 646.481 77.7746L643.853 75.1464C643.759 75.0546 643.632 75.0036 643.501 75.0045C643.369 75.0053 643.244 75.0579 643.151 75.1509C643.058 75.2439 643.005 75.3698 643.004 75.5013C643.003 75.6328 643.054 75.7593 643.146 75.8535L645.775 78.4822C644.954 79.4707 644.505 80.7151 644.505 82C644.505 83.2848 644.954 84.5293 645.775 85.5177L643.146 88.1464C643.099 88.1926 643.061 88.2478 643.035 88.3087C643.009 88.3696 642.996 88.4351 642.995 88.5013C642.995 88.5675 643.007 88.6331 643.033 88.6943C643.058 88.7556 643.095 88.8112 643.142 88.858C643.188 88.9048 643.244 88.9418 643.305 88.967C643.366 88.9921 643.432 89.0049 643.498 89.0044C643.564 89.004 643.63 88.9905 643.691 88.9645C643.752 88.9386 643.807 88.9009 643.853 88.8535L646.481 86.2254C647.469 87.049 648.714 87.5 650 87.5C651.285 87.5 652.53 87.049 653.518 86.2254L656.146 88.8535C656.24 88.9453 656.367 88.9963 656.498 88.9955C656.63 88.9946 656.756 88.942 656.849 88.849C656.942 88.756 656.994 88.6302 656.995 88.4987C656.996 88.3671 656.945 88.2406 656.853 88.1464L654.224 85.5176ZM653.514 84.8076L650.707 82L653.514 79.1923C654.15 79.9902 654.496 80.98 654.496 82C654.496 83.02 654.15 84.0098 653.514 84.8076ZM650 77.5C651.021 77.4977 652.012 77.8455 652.807 78.4853L650 81.2929L647.192 78.4852C647.988 77.8454 648.979 77.4977 650 77.5ZM646.485 79.1922L649.293 82L646.485 84.8077C645.849 84.0099 645.503 83.02 645.503 82C645.503 80.9799 645.849 79.99 646.485 79.1922ZM650 86.5C648.979 86.5023 647.988 86.1545 647.192 85.5147L650 82.707L652.807 85.5146C652.012 86.1545 651.021 86.5023 650 86.5Z" fill="white" fill-opacity="0.95"/>
<path d="M686.224 85.5176C687.045 84.5292 687.494 83.2849 687.494 82.0001C687.494 80.7153 687.045 79.471 686.224 78.4826L688.853 75.8535C688.901 75.8073 688.938 75.7521 688.964 75.6912C688.99 75.6303 689.004 75.5648 689.004 75.4987C689.004 75.4325 688.992 75.3668 688.967 75.3056C688.941 75.2444 688.904 75.1887 688.858 75.1419C688.811 75.0951 688.755 75.0581 688.694 75.0329C688.633 75.0078 688.567 74.9951 688.501 74.9955C688.435 74.9959 688.369 75.0095 688.308 75.0354C688.247 75.0613 688.192 75.099 688.146 75.1464L685.518 77.7746C684.53 76.9511 683.285 76.5 682 76.5C680.714 76.5 679.469 76.9511 678.481 77.7746L675.853 75.1464C675.759 75.0546 675.632 75.0036 675.501 75.0045C675.369 75.0053 675.244 75.0579 675.151 75.1509C675.058 75.2439 675.005 75.3698 675.004 75.5013C675.003 75.6328 675.054 75.7593 675.146 75.8535L677.775 78.4822C676.954 79.4707 676.505 80.7151 676.505 82C676.505 83.2848 676.954 84.5293 677.775 85.5177L675.146 88.1464C675.099 88.1926 675.061 88.2478 675.035 88.3087C675.009 88.3696 674.996 88.4351 674.995 88.5013C674.995 88.5675 675.007 88.6331 675.033 88.6943C675.058 88.7556 675.095 88.8112 675.142 88.858C675.188 88.9048 675.244 88.9418 675.305 88.967C675.366 88.9921 675.432 89.0049 675.498 89.0044C675.564 89.004 675.63 88.9905 675.691 88.9645C675.752 88.9386 675.807 88.9009 675.853 88.8535L678.481 86.2254C679.469 87.049 680.714 87.5 682 87.5C683.285 87.5 684.53 87.049 685.518 86.2254L688.146 88.8535C688.24 88.9453 688.367 88.9963 688.498 88.9955C688.63 88.9946 688.756 88.942 688.849 88.849C688.942 88.756 688.994 88.6302 688.995 88.4987C688.996 88.3671 688.945 88.2406 688.853 88.1464L686.224 85.5176ZM685.514 84.8076L682.707 82L685.514 79.1923C686.15 79.9902 686.496 80.98 686.496 82C686.496 83.02 686.15 84.0098 685.514 84.8076ZM682 77.5C683.021 77.4977 684.012 77.8455 684.807 78.4853L682 81.2929L679.192 78.4852C679.988 77.8454 680.979 77.4977 682 77.5ZM678.485 79.1922L681.293 82L678.485 84.8077C677.849 84.0099 677.503 83.02 677.503 82C677.503 80.9799 677.849 79.99 678.485 79.1922ZM682 86.5C680.979 86.5023 679.988 86.1545 679.192 85.5147L682 82.707L684.807 85.5146C684.012 86.1545 683.021 86.5023 682 86.5Z" fill="white" fill-opacity="0.95"/>
<path d="M718.224 85.5176C719.045 84.5292 719.494 83.2849 719.494 82.0001C719.494 80.7153 719.045 79.471 718.224 78.4826L720.853 75.8535C720.901 75.8073 720.938 75.7521 720.964 75.6912C720.99 75.6303 721.004 75.5648 721.004 75.4987C721.004 75.4325 720.992 75.3668 720.967 75.3056C720.941 75.2444 720.904 75.1887 720.858 75.1419C720.811 75.0951 720.755 75.0581 720.694 75.0329C720.633 75.0078 720.567 74.9951 720.501 74.9955C720.435 74.9959 720.369 75.0095 720.308 75.0354C720.247 75.0613 720.192 75.099 720.146 75.1464L717.518 77.7746C716.53 76.9511 715.285 76.5 714 76.5C712.714 76.5 711.469 76.9511 710.481 77.7746L707.853 75.1464C707.759 75.0546 707.632 75.0036 707.501 75.0045C707.369 75.0053 707.244 75.0579 707.151 75.1509C707.058 75.2439 707.005 75.3698 707.004 75.5013C707.003 75.6328 707.054 75.7593 707.146 75.8535L709.775 78.4822C708.954 79.4707 708.505 80.7151 708.505 82C708.505 83.2848 708.954 84.5293 709.775 85.5177L707.146 88.1464C707.099 88.1926 707.061 88.2478 707.035 88.3087C707.009 88.3696 706.996 88.4351 706.995 88.5013C706.995 88.5675 707.007 88.6331 707.033 88.6943C707.058 88.7556 707.095 88.8112 707.142 88.858C707.188 88.9048 707.244 88.9418 707.305 88.967C707.366 88.9921 707.432 89.0049 707.498 89.0044C707.564 89.004 707.63 88.9905 707.691 88.9645C707.752 88.9386 707.807 88.9009 707.853 88.8535L710.481 86.2254C711.469 87.049 712.714 87.5 714 87.5C715.285 87.5 716.53 87.049 717.518 86.2254L720.146 88.8535C720.24 88.9453 720.367 88.9963 720.498 88.9955C720.63 88.9946 720.756 88.942 720.849 88.849C720.942 88.756 720.994 88.6302 720.995 88.4987C720.996 88.3671 720.945 88.2406 720.853 88.1464L718.224 85.5176ZM717.514 84.8076L714.707 82L717.514 79.1923C718.15 79.9902 718.496 80.98 718.496 82C718.496 83.02 718.15 84.0098 717.514 84.8076ZM714 77.5C715.021 77.4977 716.012 77.8455 716.807 78.4853L714 81.2929L711.192 78.4852C711.988 77.8454 712.979 77.4977 714 77.5ZM710.485 79.1922L713.293 82L710.485 84.8077C709.849 84.0099 709.503 83.02 709.503 82C709.503 80.9799 709.849 79.99 710.485 79.1922ZM714 86.5C712.979 86.5023 711.988 86.1545 711.192 85.5147L714 82.707L716.807 85.5146C716.012 86.1545 715.021 86.5023 714 86.5Z" fill="white" fill-opacity="0.95"/>
</g>
<rect x="570.5" y="66.5" width="159" height="31" rx="15.5" stroke="white" stroke-opacity="0.3"/>
<defs>
<clipPath id="clip0_2129_36694">
<rect x="570" y="66" width="160" height="32" rx="16" fill="white"/>
</clipPath>
</defs>
</svg>
