<svg width="1300" height="305" viewBox="0 0 1300 305" fill="none" xmlns="http://www.w3.org/2000/svg">
<rect width="1300" height="305" rx="24" fill="#262626"/>
<g clip-path="url(#clip0_2129_36418)">
<rect width="32" height="32" transform="translate(510 153)" fill="white" fill-opacity="0.2"/>
<path d="M524 162.75H521C520.669 162.75 520.351 162.882 520.116 163.116C519.882 163.351 519.75 163.668 519.75 164V167C519.75 167.331 519.882 167.649 520.116 167.883C520.351 168.118 520.669 168.25 521 168.25H524C524.331 168.25 524.649 168.118 524.884 167.883C525.118 167.649 525.25 167.331 525.25 167V164C525.25 163.668 525.118 163.351 524.884 163.116C524.649 162.882 524.331 162.75 524 162.75Z" fill="white" fill-opacity="0.95"/>
<path d="M531 162.75H528C527.669 162.75 527.351 162.882 527.116 163.116C526.882 163.351 526.75 163.668 526.75 164V167C526.75 167.331 526.882 167.649 527.116 167.883C527.351 168.118 527.669 168.25 528 168.25H531C531.331 168.25 531.649 168.118 531.884 167.883C532.118 167.649 532.25 167.331 532.25 167V164C532.25 163.668 532.118 163.351 531.884 163.116C531.649 162.882 531.331 162.75 531 162.75Z" fill="white" fill-opacity="0.95"/>
<path d="M531 169.75H528C527.669 169.75 527.351 169.882 527.116 170.116C526.882 170.351 526.75 170.668 526.75 171V174C526.75 174.331 526.882 174.649 527.116 174.883C527.351 175.118 527.669 175.25 528 175.25H531C531.331 175.25 531.649 175.118 531.884 174.883C532.118 174.649 532.25 174.331 532.25 174V171C532.25 170.668 532.118 170.351 531.884 170.116C531.649 169.882 531.331 169.75 531 169.75Z" fill="white" fill-opacity="0.95"/>
<path d="M524 169.75H521C520.669 169.75 520.351 169.882 520.116 170.116C519.882 170.351 519.75 170.668 519.75 171V174C519.75 174.331 519.882 174.649 520.116 174.883C520.351 175.118 520.669 175.25 521 175.25H524C524.331 175.25 524.649 175.118 524.884 174.883C525.118 174.649 525.25 174.331 525.25 174V171C525.25 170.668 525.118 170.351 524.884 170.116C524.649 169.882 524.331 169.75 524 169.75Z" fill="white" fill-opacity="0.95"/>
<line x1="542.5" y1="153" x2="542.5" y2="185" stroke="white" stroke-opacity="0.3"/>
<path d="M564 168.5H555C554.867 168.5 554.74 168.553 554.646 168.646C554.553 168.74 554.5 168.867 554.5 169C554.5 169.132 554.553 169.26 554.646 169.353C554.74 169.447 554.867 169.5 555 169.5H564C564.133 169.5 564.26 169.447 564.354 169.353C564.447 169.26 564.5 169.132 564.5 169C564.5 168.867 564.447 168.74 564.354 168.646C564.26 168.553 564.133 168.5 564 168.5Z" fill="white" fill-opacity="0.95"/>
<path d="M555 166H564C564.133 166 564.26 165.947 564.354 165.853C564.447 165.76 564.5 165.632 564.5 165.5C564.5 165.367 564.447 165.24 564.354 165.146C564.26 165.053 564.133 165 564 165H555C554.867 165 554.74 165.053 554.646 165.146C554.553 165.24 554.5 165.367 554.5 165.5C554.5 165.632 554.553 165.76 554.646 165.853C554.74 165.947 554.867 166 555 166Z" fill="white" fill-opacity="0.95"/>
<path d="M564 172H555C554.867 172 554.74 172.053 554.646 172.146C554.553 172.24 554.5 172.367 554.5 172.5C554.5 172.632 554.553 172.76 554.646 172.853C554.74 172.947 554.867 173 555 173H564C564.133 173 564.26 172.947 564.354 172.853C564.447 172.76 564.5 172.632 564.5 172.5C564.5 172.367 564.447 172.24 564.354 172.146C564.26 172.053 564.133 172 564 172Z" fill="white" fill-opacity="0.95"/>
<path d="M552.125 168.375C552.001 168.375 551.881 168.412 551.778 168.48C551.675 168.549 551.595 168.647 551.548 168.761C551.5 168.875 551.488 169.001 551.512 169.122C551.536 169.243 551.596 169.355 551.683 169.442C551.77 169.529 551.882 169.589 552.003 169.613C552.124 169.637 552.25 169.625 552.364 169.577C552.478 169.53 552.576 169.45 552.645 169.347C552.713 169.244 552.75 169.124 552.75 169C552.75 168.834 552.684 168.675 552.567 168.558C552.45 168.441 552.291 168.375 552.125 168.375Z" fill="white" fill-opacity="0.95"/>
<path d="M552.125 171.875C552.001 171.875 551.881 171.912 551.778 171.98C551.675 172.049 551.595 172.147 551.548 172.261C551.5 172.375 551.488 172.501 551.512 172.622C551.536 172.743 551.596 172.855 551.683 172.942C551.77 173.029 551.882 173.089 552.003 173.113C552.124 173.137 552.25 173.125 552.364 173.077C552.478 173.03 552.576 172.95 552.645 172.847C552.713 172.744 552.75 172.624 552.75 172.5C552.75 172.334 552.684 172.175 552.567 172.058C552.45 171.941 552.291 171.875 552.125 171.875Z" fill="white" fill-opacity="0.95"/>
<path d="M552.125 164.875C552.001 164.875 551.881 164.912 551.778 164.98C551.675 165.049 551.595 165.147 551.548 165.261C551.5 165.375 551.488 165.501 551.512 165.622C551.536 165.743 551.596 165.855 551.683 165.942C551.77 166.029 551.882 166.089 552.003 166.113C552.124 166.137 552.25 166.125 552.364 166.077C552.478 166.03 552.576 165.95 552.645 165.847C552.713 165.744 552.75 165.624 552.75 165.5C552.75 165.334 552.684 165.175 552.567 165.058C552.45 164.941 552.291 164.875 552.125 164.875Z" fill="white" fill-opacity="0.95"/>
</g>
<rect x="509.5" y="152.5" width="65" height="33" rx="16.5" stroke="white" stroke-opacity="0.3"/>
<g clip-path="url(#clip1_2129_36418)">
<path d="M655 168.5H650.5V164C650.5 163.867 650.447 163.74 650.354 163.646C650.26 163.553 650.133 163.5 650 163.5C649.867 163.5 649.74 163.553 649.646 163.646C649.553 163.74 649.5 163.867 649.5 164V168.5H645C644.867 168.5 644.74 168.553 644.646 168.646C644.553 168.74 644.5 168.867 644.5 169C644.5 169.132 644.553 169.26 644.646 169.353C644.74 169.447 644.867 169.5 645 169.5H649.5V174C649.5 174.132 649.553 174.26 649.646 174.353C649.74 174.447 649.867 174.5 650 174.5C650.133 174.5 650.26 174.447 650.354 174.353C650.447 174.26 650.5 174.132 650.5 174V169.5H655C655.133 169.5 655.26 169.447 655.354 169.353C655.447 169.26 655.5 169.132 655.5 169C655.5 168.867 655.447 168.74 655.354 168.646C655.26 168.553 655.133 168.5 655 168.5Z" fill="white" fill-opacity="0.95"/>
<line x1="666.5" y1="153" x2="666.5" y2="185" stroke="white" stroke-opacity="0.3"/>
<path d="M687 169.5H677C676.867 169.5 676.74 169.447 676.646 169.353C676.553 169.26 676.5 169.132 676.5 169C676.5 168.867 676.553 168.74 676.646 168.646C676.74 168.553 676.867 168.5 677 168.5H687C687.133 168.5 687.26 168.553 687.354 168.646C687.447 168.74 687.5 168.867 687.5 169C687.5 169.132 687.447 169.26 687.354 169.353C687.26 169.447 687.133 169.5 687 169.5Z" fill="white" fill-opacity="0.95"/>
</g>
<rect x="633.5" y="152.5" width="65" height="33" rx="16.5" stroke="white" stroke-opacity="0.3"/>
<g clip-path="url(#clip2_2129_36418)">
<path d="M736.617 168.715C736.904 168.424 737.131 168.077 737.282 167.697C737.434 167.317 737.508 166.91 737.5 166.5C737.499 165.705 737.183 164.942 736.62 164.38C736.058 163.817 735.295 163.501 734.5 163.5H730.5C730.434 163.5 730.369 163.513 730.309 163.538C730.248 163.563 730.193 163.6 730.146 163.646C730.1 163.693 730.063 163.748 730.038 163.809C730.013 163.869 730 163.934 730 164V174C730 174.066 730.013 174.131 730.038 174.192C730.063 174.252 730.1 174.307 730.146 174.354C730.193 174.4 730.248 174.437 730.309 174.462C730.369 174.487 730.434 174.5 730.5 174.5H735.5C736.197 174.5 736.872 174.257 737.41 173.814C737.947 173.37 738.314 172.753 738.446 172.069C738.578 171.384 738.467 170.675 738.134 170.063C737.8 169.451 737.264 168.975 736.617 168.715ZM731 164.5H734.5C735.03 164.501 735.539 164.711 735.914 165.086C736.289 165.461 736.499 165.97 736.5 166.5C736.516 166.753 736.481 167.006 736.397 167.245C736.313 167.484 736.181 167.704 736.01 167.891C735.839 168.078 735.631 168.228 735.401 168.333C735.17 168.437 734.92 168.494 734.667 168.5H731V164.5ZM735.5 173.5H731V169.5H735.5C736.03 169.5 736.539 169.71 736.914 170.086C737.29 170.461 737.5 170.969 737.5 171.5C737.5 172.03 737.29 172.539 736.914 172.914C736.539 173.29 736.03 173.5 735.5 173.5Z" fill="white" fill-opacity="0.95"/>
<line x1="750.5" y1="153" x2="750.5" y2="185" stroke="white" stroke-opacity="0.3"/>
<rect width="32" height="32" transform="translate(750 153)" fill="white" fill-opacity="0.2"/>
<path d="M770.5 163.5H764.5C764.367 163.5 764.24 163.553 764.146 163.646C764.053 163.74 764 163.867 764 164C764 164.132 764.053 164.26 764.146 164.353C764.24 164.447 764.367 164.5 764.5 164.5H766.828L764.128 173.5H761.5C761.367 173.5 761.24 173.553 761.146 173.646C761.053 173.74 761 173.867 761 174C761 174.132 761.053 174.26 761.146 174.353C761.24 174.447 761.367 174.5 761.5 174.5H767.5C767.633 174.5 767.76 174.447 767.854 174.353C767.947 174.26 768 174.132 768 174C768 173.867 767.947 173.74 767.854 173.646C767.76 173.553 767.633 173.5 767.5 173.5H765.172L767.872 164.5H770.5C770.633 164.5 770.76 164.447 770.854 164.353C770.947 164.26 771 164.132 771 164C771 163.867 770.947 163.74 770.854 163.646C770.76 163.553 770.633 163.5 770.5 163.5Z" fill="white" fill-opacity="0.95"/>
<line x1="782.5" y1="153" x2="782.5" y2="185" stroke="white" stroke-opacity="0.3"/>
<rect width="32" height="32" transform="translate(782 153)" fill="white" fill-opacity="0.2"/>
<path d="M802.5 174H793.5C793.367 174 793.24 174.053 793.146 174.146C793.053 174.24 793 174.367 793 174.5C793 174.632 793.053 174.76 793.146 174.853C793.24 174.947 793.367 175 793.5 175H802.5C802.633 175 802.76 174.947 802.854 174.853C802.947 174.76 803 174.632 803 174.5C803 174.367 802.947 174.24 802.854 174.146C802.76 174.053 802.633 174 802.5 174Z" fill="white" fill-opacity="0.95"/>
<path d="M798 173C799.06 172.999 800.077 172.577 800.827 171.827C801.577 171.077 801.999 170.06 802 169V163.5C802 163.367 801.947 163.24 801.854 163.146C801.76 163.053 801.633 163 801.5 163C801.367 163 801.24 163.053 801.146 163.146C801.053 163.24 801 163.367 801 163.5V169C801 169.796 800.684 170.559 800.121 171.121C799.559 171.684 798.796 172 798 172C797.204 172 796.441 171.684 795.879 171.121C795.316 170.559 795 169.796 795 169V163.5C795 163.367 794.947 163.24 794.854 163.146C794.76 163.053 794.633 163 794.5 163C794.367 163 794.24 163.053 794.146 163.146C794.053 163.24 794 163.367 794 163.5V169C794.001 170.06 794.423 171.077 795.173 171.827C795.923 172.577 796.94 172.999 798 173Z" fill="white" fill-opacity="0.95"/>
</g>
<rect x="717.5" y="152.5" width="97" height="33" rx="16.5" stroke="white" stroke-opacity="0.3"/>
<rect x="486" y="121" width="32" height="32" rx="16" fill="#DA0087"/>
<path d="M501.126 141.5V133.716L498.886 134.864V132.89L501.14 131.7H503.31V141.5H501.126Z" fill="white"/>
<rect x="610" y="120" width="32" height="32" rx="16" fill="#DA0087"/>
<path d="M624.398 133.388H622.116C622.256 132.417 622.741 131.666 623.572 131.134C624.235 130.705 625.005 130.49 625.882 130.49C626.937 130.49 627.781 130.784 628.416 131.372C628.976 131.885 629.256 132.525 629.256 133.29C629.256 134.046 629.032 134.732 628.584 135.348C628.295 135.731 627.641 136.417 626.624 137.406L625.266 138.722H629.186V140.5H622.396V138.722L624.762 136.398L625.084 136.076C625.924 135.245 626.456 134.667 626.68 134.34C626.913 134.013 627.03 133.663 627.03 133.29C627.03 132.898 626.904 132.595 626.652 132.38C626.437 132.203 626.157 132.114 625.812 132.114C625.457 132.114 625.154 132.226 624.902 132.45C624.659 132.674 624.491 132.987 624.398 133.388Z" fill="white"/>
<defs>
<clipPath id="clip0_2129_36418">
<rect x="510" y="153" width="64" height="32" rx="16" fill="white"/>
</clipPath>
<clipPath id="clip1_2129_36418">
<rect x="634" y="153" width="64" height="32" rx="16" fill="white"/>
</clipPath>
<clipPath id="clip2_2129_36418">
<rect x="718" y="153" width="96" height="32" rx="16" fill="white"/>
</clipPath>
</defs>
</svg>
