<svg width="1300" height="62" viewBox="0 0 1300 62" fill="none" xmlns="http://www.w3.org/2000/svg">
<mask id="path-1-inside-1_2129_34297" fill="white">
<path d="M0 0H325V62H0V0Z"/>
</mask>
<path d="M0 0H325V62H0V0Z" fill="#1A1A1A"/>
<path d="M324 0V62H326V0H324Z" fill="#707070" mask="url(#path-1-inside-1_2129_34297)"/>
<mask id="path-3-inside-2_2129_34297" fill="white">
<path d="M325 0H650V62H325V0Z"/>
</mask>
<path d="M325 0H650V62H325V0Z" fill="#1A1A1A"/>
<path d="M650 62V63H651V62H650ZM649 0V62H651V0H649ZM650 61H325V63H650V61Z" fill="#707070" mask="url(#path-3-inside-2_2129_34297)"/>
<path d="M368.466 28H366.705C366.6 27.4934 366.418 27.0483 366.158 26.6648C365.902 26.2812 365.589 25.9593 365.22 25.6989C364.856 25.4337 364.451 25.2348 364.006 25.1023C363.561 24.9697 363.097 24.9034 362.614 24.9034C361.733 24.9034 360.935 25.1259 360.22 25.571C359.51 26.0161 358.944 26.6719 358.523 27.5384C358.106 28.4048 357.898 29.4678 357.898 30.7273C357.898 31.9867 358.106 33.0497 358.523 33.9162C358.944 34.7827 359.51 35.4384 360.22 35.8835C360.935 36.3286 361.733 36.5511 362.614 36.5511C363.097 36.5511 363.561 36.4848 364.006 36.3523C364.451 36.2197 364.856 36.0232 365.22 35.7628C365.589 35.4976 365.902 35.1733 366.158 34.7898C366.418 34.4015 366.6 33.9564 366.705 33.4545H368.466C368.333 34.1979 368.092 34.8632 367.741 35.4503C367.391 36.0374 366.955 36.5369 366.435 36.9489C365.914 37.3561 365.329 37.6662 364.68 37.8793C364.036 38.0923 363.348 38.1989 362.614 38.1989C361.373 38.1989 360.27 37.8958 359.304 37.2898C358.338 36.6837 357.578 35.822 357.024 34.7045C356.47 33.5871 356.193 32.2614 356.193 30.7273C356.193 29.1932 356.47 27.8674 357.024 26.75C357.578 25.6326 358.338 24.7708 359.304 24.1648C360.27 23.5587 361.373 23.2557 362.614 23.2557C363.348 23.2557 364.036 23.3622 364.68 23.5753C365.329 23.7884 365.914 24.1009 366.435 24.5128C366.955 24.92 367.391 25.4171 367.741 26.0043C368.092 26.5866 368.333 27.2519 368.466 28ZM375.517 38.2273C374.532 38.2273 373.668 37.9929 372.924 37.5241C372.186 37.0554 371.608 36.3996 371.191 35.5568C370.779 34.714 370.574 33.7292 370.574 32.6023C370.574 31.4659 370.779 30.474 371.191 29.6264C371.608 28.7789 372.186 28.1207 372.924 27.652C373.668 27.1832 374.532 26.9489 375.517 26.9489C376.502 26.9489 377.363 27.1832 378.102 27.652C378.845 28.1207 379.423 28.7789 379.835 29.6264C380.252 30.474 380.46 31.4659 380.46 32.6023C380.46 33.7292 380.252 34.714 379.835 35.5568C379.423 36.3996 378.845 37.0554 378.102 37.5241C377.363 37.9929 376.502 38.2273 375.517 38.2273ZM375.517 36.7216C376.265 36.7216 376.88 36.5298 377.363 36.1463C377.846 35.7628 378.204 35.2585 378.436 34.6335C378.668 34.0085 378.784 33.3314 378.784 32.6023C378.784 31.8731 378.668 31.1937 378.436 30.5639C378.204 29.9342 377.846 29.4252 377.363 29.0369C376.88 28.6487 376.265 28.4545 375.517 28.4545C374.769 28.4545 374.153 28.6487 373.67 29.0369C373.187 29.4252 372.83 29.9342 372.598 30.5639C372.366 31.1937 372.25 31.8731 372.25 32.6023C372.25 33.3314 372.366 34.0085 372.598 34.6335C372.83 35.2585 373.187 35.7628 373.67 36.1463C374.153 36.5298 374.769 36.7216 375.517 36.7216ZM384.695 31.4375V38H383.018V27.0909H384.638V28.7955H384.78C385.036 28.2415 385.424 27.7964 385.945 27.4602C386.465 27.1193 387.138 26.9489 387.962 26.9489C388.7 26.9489 389.347 27.1004 389.901 27.4034C390.455 27.7017 390.885 28.1562 391.193 28.767C391.501 29.3731 391.655 30.1402 391.655 31.0682V38H389.979V31.1818C389.979 30.3248 389.756 29.6572 389.311 29.179C388.866 28.696 388.255 28.4545 387.479 28.4545C386.944 28.4545 386.465 28.5705 386.044 28.8026C385.627 29.0346 385.298 29.3731 385.057 29.8182C384.815 30.2633 384.695 30.803 384.695 31.4375ZM399.462 27.0909V28.5114H393.809V27.0909H399.462ZM395.456 24.4773H397.132V34.875C397.132 35.3485 397.201 35.7036 397.338 35.9403C397.48 36.1723 397.66 36.3286 397.878 36.4091C398.101 36.4848 398.335 36.5227 398.581 36.5227C398.766 36.5227 398.917 36.5133 399.036 36.4943C399.154 36.4706 399.249 36.4517 399.32 36.4375L399.661 37.9432C399.547 37.9858 399.389 38.0284 399.185 38.071C398.981 38.1184 398.723 38.142 398.411 38.142C397.937 38.142 397.473 38.0402 397.019 37.8366C396.569 37.633 396.195 37.3229 395.897 36.9062C395.603 36.4896 395.456 35.964 395.456 35.3295V24.4773ZM405.194 38.2557C404.502 38.2557 403.875 38.1255 403.311 37.8651C402.748 37.5999 402.301 37.2188 401.969 36.7216C401.638 36.2197 401.472 35.6136 401.472 34.9034C401.472 34.2784 401.595 33.7718 401.841 33.3835C402.087 32.9905 402.417 32.6828 402.828 32.4602C403.24 32.2377 403.695 32.072 404.192 31.9631C404.694 31.8494 405.198 31.7595 405.705 31.6932C406.368 31.608 406.905 31.544 407.317 31.5014C407.734 31.4541 408.037 31.3759 408.226 31.267C408.42 31.1581 408.517 30.9687 408.517 30.6989V30.642C408.517 29.9413 408.326 29.3968 407.942 29.0085C407.563 28.6203 406.988 28.4261 406.216 28.4261C405.416 28.4261 404.789 28.6013 404.334 28.9517C403.88 29.3021 403.56 29.6761 403.375 30.0739L401.784 29.5057C402.069 28.8428 402.447 28.3267 402.921 27.9574C403.399 27.5833 403.92 27.3229 404.483 27.1761C405.051 27.0246 405.61 26.9489 406.159 26.9489C406.51 26.9489 406.912 26.9915 407.367 27.0767C407.826 27.1572 408.269 27.3253 408.695 27.581C409.126 27.8366 409.483 28.2225 409.767 28.7386C410.051 29.2547 410.194 29.946 410.194 30.8125V38H408.517V36.5227H408.432C408.319 36.7595 408.129 37.0128 407.864 37.2827C407.599 37.5526 407.246 37.7822 406.806 37.9716C406.365 38.161 405.828 38.2557 405.194 38.2557ZM405.449 36.75C406.112 36.75 406.671 36.6198 407.125 36.3594C407.585 36.099 407.93 35.7628 408.162 35.3509C408.399 34.9389 408.517 34.5057 408.517 34.0511V32.517C408.446 32.6023 408.29 32.6804 408.049 32.7514C407.812 32.8177 407.537 32.8769 407.225 32.929C406.917 32.9763 406.616 33.0189 406.323 33.0568C406.034 33.09 405.8 33.1184 405.62 33.142C405.184 33.1989 404.777 33.2912 404.398 33.419C404.024 33.5421 403.721 33.7292 403.489 33.9801C403.262 34.2263 403.148 34.5625 403.148 34.9886C403.148 35.571 403.364 36.0114 403.794 36.3097C404.23 36.6032 404.782 36.75 405.449 36.75ZM413.253 38V27.0909H414.929V38H413.253ZM414.105 25.2727C413.778 25.2727 413.497 25.1615 413.26 24.9389C413.028 24.7164 412.912 24.4489 412.912 24.1364C412.912 23.8239 413.028 23.5563 413.26 23.3338C413.497 23.1113 413.778 23 414.105 23C414.432 23 414.711 23.1113 414.943 23.3338C415.18 23.5563 415.298 23.8239 415.298 24.1364C415.298 24.4489 415.18 24.7164 414.943 24.9389C414.711 25.1615 414.432 25.2727 414.105 25.2727ZM419.675 31.4375V38H417.999V27.0909H419.618V28.7955H419.76C420.016 28.2415 420.404 27.7964 420.925 27.4602C421.446 27.1193 422.118 26.9489 422.942 26.9489C423.681 26.9489 424.327 27.1004 424.881 27.4034C425.435 27.7017 425.866 28.1562 426.174 28.767C426.481 29.3731 426.635 30.1402 426.635 31.0682V38H424.959V31.1818C424.959 30.3248 424.737 29.6572 424.292 29.179C423.846 28.696 423.236 28.4545 422.459 28.4545C421.924 28.4545 421.446 28.5705 421.025 28.8026C420.608 29.0346 420.279 29.3731 420.037 29.8182C419.796 30.2633 419.675 30.803 419.675 31.4375ZM434.272 38.2273C433.221 38.2273 432.314 37.9953 431.552 37.5312C430.794 37.0625 430.21 36.4091 429.798 35.571C429.39 34.7282 429.187 33.7481 429.187 32.6307C429.187 31.5133 429.39 30.5284 429.798 29.6761C430.21 28.8191 430.782 28.1515 431.516 27.6733C432.255 27.1903 433.117 26.9489 434.102 26.9489C434.67 26.9489 435.231 27.0436 435.785 27.233C436.339 27.4223 436.843 27.7301 437.298 28.1562C437.752 28.5777 438.114 29.1364 438.384 29.8324C438.654 30.5284 438.789 31.3854 438.789 32.4034V33.1136H430.38V31.6648H437.085C437.085 31.0492 436.961 30.5 436.715 30.017C436.474 29.5341 436.128 29.1529 435.678 28.8736C435.233 28.5942 434.708 28.4545 434.102 28.4545C433.434 28.4545 432.856 28.6203 432.369 28.9517C431.886 29.2784 431.514 29.7045 431.254 30.2301C430.993 30.7557 430.863 31.3191 430.863 31.9205V32.8864C430.863 33.7102 431.005 34.4086 431.289 34.9815C431.578 35.5497 431.978 35.983 432.489 36.2812C433.001 36.5748 433.595 36.7216 434.272 36.7216C434.712 36.7216 435.11 36.66 435.465 36.5369C435.825 36.4091 436.135 36.2197 436.396 35.9688C436.656 35.7131 436.857 35.3958 436.999 35.017L438.619 35.4716C438.448 36.0208 438.162 36.5038 437.759 36.9205C437.357 37.3324 436.86 37.6544 436.268 37.8864C435.676 38.1136 435.011 38.2273 434.272 38.2273ZM441.339 38V27.0909H442.958V28.7386H443.072C443.271 28.1989 443.63 27.7609 444.151 27.4247C444.672 27.0885 445.259 26.9205 445.913 26.9205C446.036 26.9205 446.19 26.9228 446.374 26.9276C446.559 26.9323 446.699 26.9394 446.793 26.9489V28.6534C446.737 28.6392 446.606 28.6179 446.403 28.5895C446.204 28.5563 445.993 28.5398 445.771 28.5398C445.24 28.5398 444.767 28.651 444.35 28.8736C443.938 29.0914 443.612 29.3944 443.37 29.7827C443.133 30.1662 443.015 30.6042 443.015 31.0966V38H441.339Z" fill="white" fill-opacity="0.95"/>
<mask id="path-6-inside-3_2129_34297" fill="white">
<path d="M650 0H975V62H650V0Z"/>
</mask>
<path d="M650 0H975V62H650V0Z" fill="#1A1A1A"/>
<path d="M975 62V63H976V62H975ZM974 0V62H976V0H974ZM975 61H650V63H975V61Z" fill="#707070" mask="url(#path-6-inside-3_2129_34297)"/>
<path d="M693.466 28H691.705C691.6 27.4934 691.418 27.0483 691.158 26.6648C690.902 26.2812 690.589 25.9593 690.22 25.6989C689.856 25.4337 689.451 25.2348 689.006 25.1023C688.561 24.9697 688.097 24.9034 687.614 24.9034C686.733 24.9034 685.935 25.1259 685.22 25.571C684.51 26.0161 683.944 26.6719 683.523 27.5384C683.106 28.4048 682.898 29.4678 682.898 30.7273C682.898 31.9867 683.106 33.0497 683.523 33.9162C683.944 34.7827 684.51 35.4384 685.22 35.8835C685.935 36.3286 686.733 36.5511 687.614 36.5511C688.097 36.5511 688.561 36.4848 689.006 36.3523C689.451 36.2197 689.856 36.0232 690.22 35.7628C690.589 35.4976 690.902 35.1733 691.158 34.7898C691.418 34.4015 691.6 33.9564 691.705 33.4545H693.466C693.333 34.1979 693.092 34.8632 692.741 35.4503C692.391 36.0374 691.955 36.5369 691.435 36.9489C690.914 37.3561 690.329 37.6662 689.68 37.8793C689.036 38.0923 688.348 38.1989 687.614 38.1989C686.373 38.1989 685.27 37.8958 684.304 37.2898C683.338 36.6837 682.578 35.822 682.024 34.7045C681.47 33.5871 681.193 32.2614 681.193 30.7273C681.193 29.1932 681.47 27.8674 682.024 26.75C682.578 25.6326 683.338 24.7708 684.304 24.1648C685.27 23.5587 686.373 23.2557 687.614 23.2557C688.348 23.2557 689.036 23.3622 689.68 23.5753C690.329 23.7884 690.914 24.1009 691.435 24.5128C691.955 24.92 692.391 25.4171 692.741 26.0043C693.092 26.5866 693.333 27.2519 693.466 28ZM700.517 38.2273C699.532 38.2273 698.668 37.9929 697.924 37.5241C697.186 37.0554 696.608 36.3996 696.191 35.5568C695.779 34.714 695.574 33.7292 695.574 32.6023C695.574 31.4659 695.779 30.474 696.191 29.6264C696.608 28.7789 697.186 28.1207 697.924 27.652C698.668 27.1832 699.532 26.9489 700.517 26.9489C701.502 26.9489 702.363 27.1832 703.102 27.652C703.845 28.1207 704.423 28.7789 704.835 29.6264C705.252 30.474 705.46 31.4659 705.46 32.6023C705.46 33.7292 705.252 34.714 704.835 35.5568C704.423 36.3996 703.845 37.0554 703.102 37.5241C702.363 37.9929 701.502 38.2273 700.517 38.2273ZM700.517 36.7216C701.265 36.7216 701.88 36.5298 702.363 36.1463C702.846 35.7628 703.204 35.2585 703.436 34.6335C703.668 34.0085 703.784 33.3314 703.784 32.6023C703.784 31.8731 703.668 31.1937 703.436 30.5639C703.204 29.9342 702.846 29.4252 702.363 29.0369C701.88 28.6487 701.265 28.4545 700.517 28.4545C699.769 28.4545 699.153 28.6487 698.67 29.0369C698.187 29.4252 697.83 29.9342 697.598 30.5639C697.366 31.1937 697.25 31.8731 697.25 32.6023C697.25 33.3314 697.366 34.0085 697.598 34.6335C697.83 35.2585 698.187 35.7628 698.67 36.1463C699.153 36.5298 699.769 36.7216 700.517 36.7216ZM709.695 23.4545V38H708.018V23.4545H709.695ZM717.196 38.2273C716.212 38.2273 715.347 37.9929 714.604 37.5241C713.865 37.0554 713.288 36.3996 712.871 35.5568C712.459 34.714 712.253 33.7292 712.253 32.6023C712.253 31.4659 712.459 30.474 712.871 29.6264C713.288 28.7789 713.865 28.1207 714.604 27.652C715.347 27.1832 716.212 26.9489 717.196 26.9489C718.181 26.9489 719.043 27.1832 719.782 27.652C720.525 28.1207 721.103 28.7789 721.515 29.6264C721.931 30.474 722.14 31.4659 722.14 32.6023C722.14 33.7292 721.931 34.714 721.515 35.5568C721.103 36.3996 720.525 37.0554 719.782 37.5241C719.043 37.9929 718.181 38.2273 717.196 38.2273ZM717.196 36.7216C717.944 36.7216 718.56 36.5298 719.043 36.1463C719.526 35.7628 719.883 35.2585 720.115 34.6335C720.347 34.0085 720.463 33.3314 720.463 32.6023C720.463 31.8731 720.347 31.1937 720.115 30.5639C719.883 29.9342 719.526 29.4252 719.043 29.0369C718.56 28.6487 717.944 28.4545 717.196 28.4545C716.448 28.4545 715.833 28.6487 715.35 29.0369C714.867 29.4252 714.509 29.9342 714.277 30.5639C714.045 31.1937 713.929 31.8731 713.929 32.6023C713.929 33.3314 714.045 34.0085 714.277 34.6335C714.509 35.2585 714.867 35.7628 715.35 36.1463C715.833 36.5298 716.448 36.7216 717.196 36.7216ZM724.698 38V27.0909H726.317V28.7386H726.431C726.63 28.1989 726.99 27.7609 727.511 27.4247C728.031 27.0885 728.619 26.9205 729.272 26.9205C729.395 26.9205 729.549 26.9228 729.734 26.9276C729.918 26.9323 730.058 26.9394 730.153 26.9489V28.6534C730.096 28.6392 729.966 28.6179 729.762 28.5895C729.563 28.5563 729.353 28.5398 729.13 28.5398C728.6 28.5398 728.126 28.651 727.71 28.8736C727.298 29.0914 726.971 29.3944 726.729 29.7827C726.493 30.1662 726.374 30.6042 726.374 31.0966V38H724.698Z" fill="white" fill-opacity="0.95"/>
<mask id="path-9-inside-4_2129_34297" fill="white">
<path d="M975 0H1300V62H975V0Z"/>
</mask>
<path d="M975 0H1300V62H975V0Z" fill="#1A1A1A"/>
<path d="M1300 61H975V63H1300V61Z" fill="#707070" mask="url(#path-9-inside-4_2129_34297)"/>
<path d="M1010.73 33.162H1012.2C1012.08 33.946 1011.72 34.576 1011.09 35.052C1010.52 35.4907 1009.83 35.71 1009 35.71C1007.93 35.71 1007.08 35.3413 1006.44 34.604C1005.85 33.9227 1005.56 33.0267 1005.56 31.916C1005.56 30.628 1005.91 29.6293 1006.62 28.92C1007.23 28.3133 1008.02 28.01 1008.99 28.01C1009.89 28.01 1010.62 28.248 1011.2 28.724C1011.72 29.144 1012.03 29.6947 1012.14 30.376H1010.66C1010.56 29.984 1010.37 29.6807 1010.08 29.466C1009.8 29.2513 1009.45 29.144 1009.02 29.144C1008.36 29.144 1007.85 29.4053 1007.49 29.928C1007.16 30.4133 1006.99 31.09 1006.99 31.958C1006.99 32.8633 1007.21 33.5493 1007.66 34.016C1008.01 34.3893 1008.47 34.576 1009.03 34.576C1009.52 34.576 1009.91 34.436 1010.22 34.156C1010.49 33.9133 1010.66 33.582 1010.73 33.162ZM1013.31 31.86C1013.31 30.5253 1013.71 29.5173 1014.5 28.836C1015.14 28.2853 1015.94 28.01 1016.91 28.01C1018.04 28.01 1018.93 28.3693 1019.57 29.088C1020.19 29.76 1020.49 30.684 1020.49 31.86C1020.49 33.176 1020.11 34.1793 1019.33 34.87C1018.7 35.43 1017.89 35.71 1016.9 35.71C1015.77 35.71 1014.88 35.3367 1014.22 34.59C1013.62 33.9087 1013.31 32.9987 1013.31 31.86ZM1014.71 31.86C1014.71 32.7933 1014.95 33.5073 1015.43 34.002C1015.82 34.4127 1016.32 34.618 1016.92 34.618C1017.63 34.618 1018.18 34.352 1018.56 33.82C1018.92 33.3347 1019.09 32.6813 1019.09 31.86C1019.09 30.908 1018.86 30.1893 1018.39 29.704C1018.01 29.3027 1017.52 29.102 1016.91 29.102C1016.21 29.102 1015.66 29.368 1015.27 29.9C1014.9 30.3853 1014.71 31.0387 1014.71 31.86ZM1023.37 25.42V35.5H1022.03V25.42H1023.37ZM1024.92 31.86C1024.92 30.5253 1025.32 29.5173 1026.11 28.836C1026.74 28.2853 1027.55 28.01 1028.52 28.01C1029.65 28.01 1030.53 28.3693 1031.18 29.088C1031.79 29.76 1032.1 30.684 1032.1 31.86C1032.1 33.176 1031.71 34.1793 1030.94 34.87C1030.3 35.43 1029.49 35.71 1028.5 35.71C1027.37 35.71 1026.48 35.3367 1025.83 34.59C1025.22 33.9087 1024.92 32.9987 1024.92 31.86ZM1026.32 31.86C1026.32 32.7933 1026.56 33.5073 1027.03 34.002C1027.43 34.4127 1027.92 34.618 1028.53 34.618C1029.24 34.618 1029.79 34.352 1030.17 33.82C1030.52 33.3347 1030.7 32.6813 1030.7 31.86C1030.7 30.908 1030.47 30.1893 1030 29.704C1029.62 29.3027 1029.12 29.102 1028.52 29.102C1027.82 29.102 1027.27 29.368 1026.88 29.9C1026.51 30.3853 1026.32 31.0387 1026.32 31.86ZM1034.98 35.5H1033.64V28.22H1034.74L1034.93 29.298C1035.34 28.4393 1035.95 28.01 1036.77 28.01C1037.04 28.01 1037.31 28.0427 1037.57 28.108V29.452C1037.25 29.368 1036.97 29.326 1036.72 29.326C1036.18 29.326 1035.75 29.5453 1035.44 29.984C1035.14 30.4227 1034.98 31.0433 1034.98 31.846V35.5ZM1039.64 35.5H1038.02V33.876H1039.64V35.5ZM1044.73 34.422V35.57C1044.39 35.6633 1044.06 35.71 1043.74 35.71C1043.07 35.71 1042.56 35.5 1042.23 35.08C1041.94 34.7347 1041.79 34.2727 1041.79 33.694V29.368H1040.72V28.22H1041.79L1041.88 26.47H1043.14V28.22H1044.71V29.368H1043.14V33.722C1043.14 34.2633 1043.39 34.534 1043.91 34.534C1044.15 34.534 1044.43 34.4967 1044.73 34.422ZM1047.34 35.5H1046V25.42H1047.34V29.046C1047.87 28.3553 1048.58 28.01 1049.47 28.01C1050.33 28.01 1050.99 28.276 1051.44 28.808C1051.84 29.284 1052.05 29.9327 1052.05 30.754V35.5H1050.7V30.768C1050.7 29.6947 1050.18 29.158 1049.15 29.158C1048.6 29.158 1048.15 29.3493 1047.8 29.732C1047.5 30.0773 1047.34 30.5207 1047.34 31.062V35.5ZM1058.9 33.4H1060.35C1060.15 34.1373 1059.74 34.716 1059.13 35.136C1058.57 35.5187 1057.88 35.71 1057.09 35.71C1055.94 35.71 1055.05 35.346 1054.4 34.618C1053.81 33.9367 1053.52 33.0173 1053.52 31.86C1053.52 30.544 1053.89 29.5453 1054.64 28.864C1055.26 28.2947 1056.05 28.01 1057.02 28.01C1058.16 28.01 1059.02 28.3787 1059.6 29.116C1060.16 29.8253 1060.44 30.838 1060.44 32.154H1054.89C1054.95 33.0127 1055.21 33.652 1055.68 34.072C1056.06 34.408 1056.54 34.576 1057.13 34.576C1057.59 34.576 1057.99 34.45 1058.32 34.198C1058.6 33.9833 1058.79 33.7173 1058.9 33.4ZM1057.05 29.088C1056.45 29.088 1055.97 29.2747 1055.61 29.648C1055.26 29.9933 1055.04 30.474 1054.95 31.09H1059.06C1059.02 30.39 1058.78 29.8673 1058.36 29.522C1058.03 29.2327 1057.59 29.088 1057.05 29.088ZM1063.39 35.5H1062.05V28.22H1063.15L1063.29 29.074C1063.79 28.3647 1064.5 28.01 1065.44 28.01C1066.45 28.01 1067.17 28.3927 1067.58 29.158C1068.06 28.3927 1068.85 28.01 1069.94 28.01C1070.76 28.01 1071.38 28.2573 1071.82 28.752C1072.21 29.2093 1072.41 29.8347 1072.41 30.628V35.5H1071.06V30.726C1071.06 29.6807 1070.59 29.158 1069.65 29.158C1069.09 29.158 1068.64 29.3773 1068.31 29.816C1068.04 30.1707 1067.9 30.586 1067.9 31.062V35.5H1066.56V30.726C1066.56 29.6807 1066.09 29.158 1065.14 29.158C1064.62 29.158 1064.19 29.3633 1063.84 29.774C1063.54 30.1193 1063.39 30.5347 1063.39 31.02V35.5ZM1079.25 33.4H1080.71C1080.51 34.1373 1080.1 34.716 1079.49 35.136C1078.92 35.5187 1078.24 35.71 1077.45 35.71C1076.3 35.71 1075.4 35.346 1074.76 34.618C1074.17 33.9367 1073.88 33.0173 1073.88 31.86C1073.88 30.544 1074.25 29.5453 1075 28.864C1075.61 28.2947 1076.41 28.01 1077.38 28.01C1078.52 28.01 1079.38 28.3787 1079.95 29.116C1080.51 29.8253 1080.79 30.838 1080.79 32.154H1075.25C1075.31 33.0127 1075.57 33.652 1076.03 34.072C1076.42 34.408 1076.9 34.576 1077.49 34.576C1077.95 34.576 1078.34 34.45 1078.68 34.198C1078.96 33.9833 1079.15 33.7173 1079.25 33.4ZM1077.41 29.088C1076.81 29.088 1076.33 29.2747 1075.96 29.648C1075.62 29.9933 1075.4 30.474 1075.31 31.09H1079.42C1079.38 30.39 1079.14 29.8673 1078.72 29.522C1078.39 29.2327 1077.95 29.088 1077.41 29.088ZM1084.34 35.5H1082.71V33.876H1084.34V35.5ZM1091.14 33.162H1092.61C1092.5 33.946 1092.13 34.576 1091.51 35.052C1090.94 35.4907 1090.24 35.71 1089.42 35.71C1088.35 35.71 1087.49 35.3413 1086.86 34.604C1086.27 33.9227 1085.98 33.0267 1085.98 31.916C1085.98 30.628 1086.33 29.6293 1087.04 28.92C1087.65 28.3133 1088.44 28.01 1089.41 28.01C1090.3 28.01 1091.04 28.248 1091.62 28.724C1092.13 29.144 1092.45 29.6947 1092.56 30.376H1091.07C1090.98 29.984 1090.79 29.6807 1090.5 29.466C1090.22 29.2513 1089.87 29.144 1089.44 29.144C1088.77 29.144 1088.26 29.4053 1087.91 29.928C1087.57 30.4133 1087.41 31.09 1087.41 31.958C1087.41 32.8633 1087.63 33.5493 1088.08 34.016C1088.43 34.3893 1088.89 34.576 1089.45 34.576C1089.94 34.576 1090.33 34.436 1090.64 34.156C1090.91 33.9133 1091.08 33.582 1091.14 33.162ZM1093.73 31.86C1093.73 30.5253 1094.13 29.5173 1094.92 28.836C1095.55 28.2853 1096.36 28.01 1097.33 28.01C1098.46 28.01 1099.34 28.3693 1099.99 29.088C1100.6 29.76 1100.91 30.684 1100.91 31.86C1100.91 33.176 1100.52 34.1793 1099.75 34.87C1099.12 35.43 1098.3 35.71 1097.31 35.71C1096.18 35.71 1095.29 35.3367 1094.64 34.59C1094.03 33.9087 1093.73 32.9987 1093.73 31.86ZM1095.13 31.86C1095.13 32.7933 1095.37 33.5073 1095.84 34.002C1096.24 34.4127 1096.74 34.618 1097.34 34.618C1098.05 34.618 1098.6 34.352 1098.98 33.82C1099.33 33.3347 1099.51 32.6813 1099.51 31.86C1099.51 30.908 1099.28 30.1893 1098.81 29.704C1098.43 29.3027 1097.93 29.102 1097.33 29.102C1096.63 29.102 1096.08 29.368 1095.69 29.9C1095.32 30.3853 1095.13 31.0387 1095.13 31.86ZM1103.79 35.5H1102.45V28.22H1103.55L1103.71 29.144C1104.25 28.388 1104.99 28.01 1105.92 28.01C1106.78 28.01 1107.44 28.276 1107.89 28.808C1108.3 29.284 1108.5 29.9327 1108.5 30.754V35.5H1107.15V30.768C1107.15 29.6947 1106.63 29.158 1105.6 29.158C1105.06 29.158 1104.61 29.3447 1104.27 29.718C1103.95 30.054 1103.79 30.4833 1103.79 31.006V35.5ZM1113.64 34.422V35.57C1113.29 35.6633 1112.96 35.71 1112.65 35.71C1111.97 35.71 1111.47 35.5 1111.13 35.08C1110.84 34.7347 1110.7 34.2727 1110.7 33.694V29.368H1109.62V28.22H1110.7L1110.78 26.47H1112.04V28.22H1113.61V29.368H1112.04V33.722C1112.04 34.2633 1112.3 34.534 1112.81 34.534C1113.06 34.534 1113.33 34.4967 1113.64 34.422ZM1119.79 33.4H1121.25C1121.04 34.1373 1120.64 34.716 1120.03 35.136C1119.46 35.5187 1118.78 35.71 1117.99 35.71C1116.84 35.71 1115.94 35.346 1115.3 34.618C1114.71 33.9367 1114.42 33.0173 1114.42 31.86C1114.42 30.544 1114.79 29.5453 1115.54 28.864C1116.15 28.2947 1116.94 28.01 1117.92 28.01C1119.05 28.01 1119.91 28.3787 1120.49 29.116C1121.05 29.8253 1121.33 30.838 1121.33 32.154H1115.79C1115.84 33.0127 1116.1 33.652 1116.57 34.072C1116.95 34.408 1117.44 34.576 1118.03 34.576C1118.48 34.576 1118.88 34.45 1119.22 34.198C1119.5 33.9833 1119.69 33.7173 1119.79 33.4ZM1117.94 29.088C1117.35 29.088 1116.87 29.2747 1116.5 29.648C1116.16 29.9933 1115.94 30.474 1115.84 31.09H1119.96C1119.91 30.39 1119.68 29.8673 1119.26 29.522C1118.92 29.2327 1118.48 29.088 1117.94 29.088ZM1124.29 35.5H1122.94V28.22H1124.05L1124.2 29.144C1124.74 28.388 1125.48 28.01 1126.41 28.01C1127.27 28.01 1127.93 28.276 1128.39 28.808C1128.79 29.284 1128.99 29.9327 1128.99 30.754V35.5H1127.65V30.768C1127.65 29.6947 1127.13 29.158 1126.09 29.158C1125.55 29.158 1125.11 29.3447 1124.76 29.718C1124.45 30.054 1124.29 30.4833 1124.29 31.006V35.5ZM1134.13 34.422V35.57C1133.79 35.6633 1133.46 35.71 1133.14 35.71C1132.47 35.71 1131.96 35.5 1131.63 35.08C1131.34 34.7347 1131.19 34.2727 1131.19 33.694V29.368H1130.12V28.22H1131.19L1131.28 26.47H1132.54V28.22H1134.11V29.368H1132.54V33.722C1132.54 34.2633 1132.79 34.534 1133.31 34.534C1133.55 34.534 1133.83 34.4967 1134.13 34.422ZM1137.33 35.5H1135.71V33.876H1137.33V35.5ZM1140.7 35.5H1139.6V25.42H1140.94V29.228C1141.51 28.416 1142.32 28.01 1143.38 28.01C1144.42 28.01 1145.23 28.3833 1145.81 29.13C1146.32 29.802 1146.58 30.6933 1146.58 31.804C1146.58 33.12 1146.23 34.128 1145.53 34.828C1144.94 35.416 1144.19 35.71 1143.28 35.71C1142.24 35.71 1141.45 35.318 1140.91 34.534L1140.7 35.5ZM1145.18 31.776C1145.18 30.8613 1144.95 30.1753 1144.5 29.718C1144.13 29.3447 1143.66 29.158 1143.07 29.158C1142.39 29.158 1141.84 29.4053 1141.44 29.9C1141.06 30.376 1140.87 31.0013 1140.87 31.776C1140.87 32.7093 1141.1 33.4233 1141.56 33.918C1141.94 34.3473 1142.44 34.562 1143.07 34.562C1143.77 34.562 1144.3 34.3053 1144.66 33.792C1145.01 33.316 1145.18 32.644 1145.18 31.776ZM1151.37 34.422V35.57C1151.03 35.6633 1150.7 35.71 1150.38 35.71C1149.71 35.71 1149.2 35.5 1148.87 35.08C1148.58 34.7347 1148.43 34.2727 1148.43 33.694V29.368H1147.36V28.22H1148.43L1148.52 26.47H1149.78V28.22H1151.35V29.368H1149.78V33.722C1149.78 34.2633 1150.04 34.534 1150.55 34.534C1150.79 34.534 1151.07 34.4967 1151.37 34.422ZM1153.98 35.5H1152.64V28.22H1153.74L1153.9 29.144C1154.44 28.388 1155.18 28.01 1156.11 28.01C1156.97 28.01 1157.63 28.276 1158.08 28.808C1158.49 29.284 1158.69 29.9327 1158.69 30.754V35.5H1157.34V30.768C1157.34 29.6947 1156.82 29.158 1155.79 29.158C1155.25 29.158 1154.8 29.3447 1154.46 29.718C1154.14 30.054 1153.98 30.4833 1153.98 31.006V35.5ZM1162.51 35.5H1160.89V33.876H1162.51V35.5ZM1166.12 35.5H1164.78V28.22H1165.88L1166.04 29.144C1166.58 28.388 1167.32 28.01 1168.25 28.01C1169.11 28.01 1169.77 28.276 1170.22 28.808C1170.63 29.284 1170.83 29.9327 1170.83 30.754V35.5H1169.48V30.768C1169.48 29.6947 1168.96 29.158 1167.93 29.158C1167.39 29.158 1166.94 29.3447 1166.6 29.718C1166.28 30.054 1166.12 30.4833 1166.12 31.006V35.5ZM1177.68 33.4H1179.13C1178.93 34.1373 1178.52 34.716 1177.92 35.136C1177.35 35.5187 1176.67 35.71 1175.87 35.71C1174.72 35.71 1173.83 35.346 1173.18 34.618C1172.6 33.9367 1172.3 33.0173 1172.3 31.86C1172.3 30.544 1172.68 29.5453 1173.42 28.864C1174.04 28.2947 1174.83 28.01 1175.8 28.01C1176.94 28.01 1177.8 28.3787 1178.38 29.116C1178.94 29.8253 1179.22 30.838 1179.22 32.154H1173.67C1173.73 33.0127 1173.99 33.652 1174.46 34.072C1174.84 34.408 1175.33 34.576 1175.91 34.576C1176.37 34.576 1176.77 34.45 1177.1 34.198C1177.38 33.9833 1177.58 33.7173 1177.68 33.4ZM1175.83 29.088C1175.23 29.088 1174.75 29.2747 1174.39 29.648C1174.04 29.9933 1173.82 30.474 1173.73 31.09H1177.85C1177.8 30.39 1177.57 29.8673 1177.15 29.522C1176.81 29.2327 1176.37 29.088 1175.83 29.088ZM1180.75 35.99H1182.19C1182.25 36.3633 1182.44 36.6527 1182.75 36.858C1183.06 37.0633 1183.48 37.166 1183.99 37.166C1184.71 37.166 1185.25 36.9793 1185.6 36.606C1185.9 36.2887 1186.05 35.8453 1186.05 35.276V34.338C1185.51 34.9727 1184.7 35.29 1183.63 35.29C1182.66 35.29 1181.87 34.94 1181.26 34.24C1180.69 33.5867 1180.41 32.7373 1180.41 31.692C1180.41 30.4787 1180.75 29.5407 1181.45 28.878C1182.03 28.2993 1182.79 28.01 1183.71 28.01C1184.76 28.01 1185.55 28.402 1186.08 29.186L1186.29 28.22H1187.4V35.346C1187.4 36.2607 1187.06 36.9793 1186.4 37.502C1185.8 37.9873 1185.02 38.23 1184.04 38.23C1183.02 38.23 1182.22 38.0013 1181.64 37.544C1181.16 37.1613 1180.86 36.6433 1180.75 35.99ZM1181.81 31.72C1181.81 32.5133 1182.04 33.134 1182.51 33.582C1182.89 33.9553 1183.36 34.142 1183.92 34.142C1184.66 34.142 1185.23 33.8993 1185.62 33.414C1185.95 33.0033 1186.12 32.4527 1186.12 31.762C1186.12 30.8753 1185.89 30.1987 1185.44 29.732C1185.05 29.3493 1184.55 29.158 1183.92 29.158C1183.23 29.158 1182.7 29.396 1182.33 29.872C1181.98 30.32 1181.81 30.936 1181.81 31.72ZM1190.51 30.25H1189.08C1189.16 29.522 1189.5 28.9573 1190.12 28.556C1190.67 28.192 1191.36 28.01 1192.2 28.01C1193.2 28.01 1193.97 28.2713 1194.5 28.794C1194.95 29.242 1195.17 29.8207 1195.17 30.53V35.5H1194.06L1193.9 34.506C1193.33 35.3087 1192.52 35.71 1191.46 35.71C1190.63 35.71 1189.98 35.486 1189.51 35.038C1189.13 34.6647 1188.94 34.1933 1188.94 33.624C1188.94 32.9053 1189.19 32.35 1189.68 31.958C1190.12 31.6127 1190.79 31.3607 1191.7 31.202L1193.83 30.838V30.474C1193.83 29.998 1193.66 29.6387 1193.34 29.396C1193.05 29.1813 1192.65 29.074 1192.15 29.074C1191.16 29.074 1190.61 29.466 1190.51 30.25ZM1191.78 34.576C1192.35 34.576 1192.85 34.3893 1193.27 34.016C1193.64 33.6707 1193.83 33.274 1193.83 32.826V31.888L1192.02 32.21C1191.36 32.322 1190.91 32.4947 1190.66 32.728C1190.47 32.9147 1190.37 33.1667 1190.37 33.484C1190.37 33.8387 1190.49 34.1093 1190.73 34.296C1190.98 34.4827 1191.33 34.576 1191.78 34.576ZM1200.31 34.422V35.57C1199.96 35.6633 1199.63 35.71 1199.31 35.71C1198.64 35.71 1198.14 35.5 1197.8 35.08C1197.51 34.7347 1197.37 34.2727 1197.37 33.694V29.368H1196.29V28.22H1197.37L1197.45 26.47H1198.71V28.22H1200.28V29.368H1198.71V33.722C1198.71 34.2633 1198.97 34.534 1199.48 34.534C1199.72 34.534 1200 34.4967 1200.31 34.422ZM1203 27.002H1201.49V25.42H1203V27.002ZM1202.91 35.5H1201.57V28.22H1202.91V35.5ZM1209.55 28.22H1210.95L1208.39 35.5H1206.57L1204.04 28.22H1205.51L1207.52 34.408L1209.55 28.22ZM1216.75 33.4H1218.21C1218 34.1373 1217.6 34.716 1216.99 35.136C1216.42 35.5187 1215.74 35.71 1214.95 35.71C1213.8 35.71 1212.9 35.346 1212.26 34.618C1211.67 33.9367 1211.38 33.0173 1211.38 31.86C1211.38 30.544 1211.75 29.5453 1212.5 28.864C1213.11 28.2947 1213.91 28.01 1214.88 28.01C1216.02 28.01 1216.87 28.3787 1217.45 29.116C1218.01 29.8253 1218.29 30.838 1218.29 32.154H1212.75C1212.8 33.0127 1213.07 33.652 1213.53 34.072C1213.92 34.408 1214.4 34.576 1214.99 34.576C1215.45 34.576 1215.84 34.45 1216.18 34.198C1216.46 33.9833 1216.65 33.7173 1216.75 33.4ZM1214.9 29.088C1214.31 29.088 1213.83 29.2747 1213.46 29.648C1213.12 29.9933 1212.9 30.474 1212.8 31.09H1216.92C1216.87 30.39 1216.64 29.8673 1216.22 29.522C1215.88 29.2327 1215.45 29.088 1214.9 29.088ZM1221.84 35.5H1220.21V33.876H1221.84V35.5ZM1225.45 35.5H1224.1V25.42H1225.45V29.046C1225.98 28.3553 1226.69 28.01 1227.57 28.01C1228.43 28.01 1229.09 28.276 1229.55 28.808C1229.95 29.284 1230.15 29.9327 1230.15 30.754V35.5H1228.81V30.768C1228.81 29.6947 1228.29 29.158 1227.25 29.158C1226.7 29.158 1226.25 29.3493 1225.91 29.732C1225.6 30.0773 1225.45 30.5207 1225.45 31.062V35.5ZM1231.62 31.86C1231.62 30.5253 1232.02 29.5173 1232.81 28.836C1233.45 28.2853 1234.25 28.01 1235.22 28.01C1236.35 28.01 1237.24 28.3693 1237.88 29.088C1238.5 29.76 1238.81 30.684 1238.81 31.86C1238.81 33.176 1238.42 34.1793 1237.64 34.87C1237.01 35.43 1236.2 35.71 1235.21 35.71C1234.08 35.71 1233.19 35.3367 1232.53 34.59C1231.93 33.9087 1231.62 32.9987 1231.62 31.86ZM1233.02 31.86C1233.02 32.7933 1233.26 33.5073 1233.74 34.002C1234.13 34.4127 1234.63 34.618 1235.24 34.618C1235.95 34.618 1236.49 34.352 1236.87 33.82C1237.23 33.3347 1237.41 32.6813 1237.41 31.86C1237.41 30.908 1237.17 30.1893 1236.71 29.704C1236.32 29.3027 1235.83 29.102 1235.22 29.102C1234.52 29.102 1233.98 29.368 1233.58 29.9C1233.21 30.3853 1233.02 31.0387 1233.02 31.86ZM1244.75 28.22H1246.15L1243.58 35.5H1241.76L1239.23 28.22H1240.7L1242.72 34.408L1244.75 28.22ZM1251.94 33.4H1253.4C1253.19 34.1373 1252.79 34.716 1252.18 35.136C1251.61 35.5187 1250.93 35.71 1250.14 35.71C1248.99 35.71 1248.09 35.346 1247.45 34.618C1246.86 33.9367 1246.57 33.0173 1246.57 31.86C1246.57 30.544 1246.94 29.5453 1247.69 28.864C1248.3 28.2947 1249.1 28.01 1250.07 28.01C1251.21 28.01 1252.07 28.3787 1252.64 29.116C1253.2 29.8253 1253.48 30.838 1253.48 32.154H1247.94C1248 33.0127 1248.26 33.652 1248.72 34.072C1249.11 34.408 1249.59 34.576 1250.18 34.576C1250.64 34.576 1251.03 34.45 1251.37 34.198C1251.65 33.9833 1251.84 33.7173 1251.94 33.4ZM1250.1 29.088C1249.5 29.088 1249.02 29.2747 1248.65 29.648C1248.31 29.9933 1248.09 30.474 1248 31.09H1252.11C1252.07 30.39 1251.83 29.8673 1251.41 29.522C1251.08 29.2327 1250.64 29.088 1250.1 29.088ZM1256.44 35.5H1255.1V28.22H1256.2L1256.38 29.298C1256.79 28.4393 1257.41 28.01 1258.23 28.01C1258.5 28.01 1258.77 28.0427 1259.03 28.108V29.452C1258.71 29.368 1258.43 29.326 1258.18 29.326C1257.63 29.326 1257.21 29.5453 1256.9 29.984C1256.59 30.4227 1256.44 31.0433 1256.44 31.846V35.5Z" fill="white" fill-opacity="0.95"/>
</svg>
