<svg width="1300" height="279" viewBox="0 0 1300 279" fill="none" xmlns="http://www.w3.org/2000/svg">
<rect width="1300" height="279" rx="24" fill="#262626"/>
<g clip-path="url(#clip0_2129_36558)">
<path d="M641.211 166.518C642.031 165.529 642.481 164.285 642.481 163C642.481 161.715 642.031 160.471 641.211 159.483L643.839 156.854C643.887 156.807 643.925 156.752 643.951 156.691C643.976 156.63 643.99 156.565 643.99 156.499C643.991 156.433 643.978 156.367 643.953 156.306C643.928 156.244 643.891 156.189 643.844 156.142C643.797 156.095 643.742 156.058 643.68 156.033C643.619 156.008 643.553 155.995 643.487 155.996C643.421 155.996 643.356 156.01 643.295 156.036C643.234 156.061 643.179 156.099 643.132 156.147L640.504 158.775C639.517 157.951 638.272 157.5 636.986 157.5C635.7 157.5 634.455 157.951 633.467 158.775L630.839 156.147C630.745 156.055 630.619 156.004 630.487 156.005C630.356 156.005 630.23 156.058 630.137 156.151C630.044 156.244 629.991 156.37 629.99 156.501C629.99 156.633 630.041 156.759 630.132 156.854L632.761 159.482C631.94 160.471 631.491 161.715 631.491 163C631.491 164.285 631.94 165.529 632.761 166.518L630.132 169.147C630.085 169.193 630.047 169.248 630.021 169.309C629.995 169.37 629.982 169.435 629.981 169.501C629.981 169.568 629.994 169.633 630.019 169.694C630.044 169.756 630.081 169.811 630.128 169.858C630.175 169.905 630.23 169.942 630.292 169.967C630.353 169.992 630.418 170.005 630.485 170.005C630.551 170.004 630.616 169.991 630.677 169.965C630.738 169.939 630.793 169.901 630.839 169.854L633.467 167.226C634.455 168.049 635.7 168.5 636.986 168.5C638.272 168.5 639.517 168.049 640.504 167.226L643.132 169.854C643.227 169.945 643.353 169.996 643.485 169.996C643.616 169.995 643.742 169.942 643.835 169.849C643.928 169.756 643.981 169.63 643.981 169.499C643.982 169.367 643.931 169.241 643.839 169.147L641.211 166.518ZM640.501 165.808L637.693 163L640.501 160.192C641.136 160.99 641.482 161.98 641.482 163C641.482 164.02 641.136 165.01 640.501 165.808ZM636.986 158.5C638.007 158.498 638.998 158.846 639.794 159.485L636.986 162.293L634.178 159.485C634.974 158.846 635.965 158.498 636.986 158.5ZM633.471 160.192L636.279 163L633.471 165.808C632.835 165.01 632.489 164.02 632.489 163C632.489 161.98 632.835 160.99 633.471 160.192ZM636.986 167.5C635.965 167.502 634.974 167.155 634.178 166.515L636.986 163.707L639.794 166.515C638.998 167.155 638.007 167.502 636.986 167.5Z" fill="white" fill-opacity="0.95"/>
<path d="M673.211 166.518C674.031 165.529 674.481 164.285 674.481 163C674.481 161.715 674.031 160.471 673.211 159.483L675.839 156.854C675.887 156.807 675.925 156.752 675.951 156.691C675.976 156.63 675.99 156.565 675.99 156.499C675.991 156.433 675.978 156.367 675.953 156.306C675.928 156.244 675.891 156.189 675.844 156.142C675.797 156.095 675.742 156.058 675.68 156.033C675.619 156.008 675.553 155.995 675.487 155.996C675.421 155.996 675.356 156.01 675.295 156.036C675.234 156.061 675.179 156.099 675.132 156.147L672.504 158.775C671.517 157.951 670.272 157.5 668.986 157.5C667.7 157.5 666.455 157.951 665.467 158.775L662.839 156.147C662.745 156.055 662.619 156.004 662.487 156.005C662.356 156.005 662.23 156.058 662.137 156.151C662.044 156.244 661.991 156.37 661.99 156.501C661.99 156.633 662.041 156.759 662.132 156.854L664.761 159.482C663.94 160.471 663.491 161.715 663.491 163C663.491 164.285 663.94 165.529 664.761 166.518L662.132 169.147C662.085 169.193 662.047 169.248 662.021 169.309C661.995 169.37 661.982 169.435 661.981 169.501C661.981 169.568 661.994 169.633 662.019 169.694C662.044 169.756 662.081 169.811 662.128 169.858C662.175 169.905 662.23 169.942 662.292 169.967C662.353 169.992 662.418 170.005 662.485 170.005C662.551 170.004 662.616 169.991 662.677 169.965C662.738 169.939 662.793 169.901 662.839 169.854L665.467 167.226C666.455 168.049 667.7 168.5 668.986 168.5C670.272 168.5 671.517 168.049 672.504 167.226L675.132 169.854C675.227 169.945 675.353 169.996 675.485 169.996C675.616 169.995 675.742 169.942 675.835 169.849C675.928 169.756 675.981 169.63 675.981 169.499C675.982 169.367 675.931 169.241 675.839 169.147L673.211 166.518ZM672.501 165.808L669.693 163L672.501 160.192C673.136 160.99 673.482 161.98 673.482 163C673.482 164.02 673.136 165.01 672.501 165.808ZM668.986 158.5C670.007 158.498 670.998 158.846 671.794 159.485L668.986 162.293L666.178 159.485C666.974 158.846 667.965 158.498 668.986 158.5ZM665.471 160.192L668.279 163L665.471 165.808C664.835 165.01 664.489 164.02 664.489 163C664.489 161.98 664.835 160.99 665.471 160.192ZM668.986 167.5C667.965 167.502 666.974 167.155 666.178 166.515L668.986 163.707L671.794 166.515C670.998 167.155 670.007 167.502 668.986 167.5Z" fill="white" fill-opacity="0.95"/>
<path d="M705.211 166.518C706.031 165.529 706.481 164.285 706.481 163C706.481 161.715 706.031 160.471 705.211 159.483L707.839 156.854C707.887 156.807 707.925 156.752 707.951 156.691C707.976 156.63 707.99 156.565 707.99 156.499C707.991 156.433 707.978 156.367 707.953 156.306C707.928 156.244 707.891 156.189 707.844 156.142C707.797 156.095 707.742 156.058 707.68 156.033C707.619 156.008 707.553 155.995 707.487 155.996C707.421 155.996 707.356 156.01 707.295 156.036C707.234 156.061 707.179 156.099 707.132 156.147L704.504 158.775C703.517 157.951 702.272 157.5 700.986 157.5C699.7 157.5 698.455 157.951 697.467 158.775L694.839 156.147C694.745 156.055 694.619 156.004 694.487 156.005C694.356 156.005 694.23 156.058 694.137 156.151C694.044 156.244 693.991 156.37 693.99 156.501C693.99 156.633 694.041 156.759 694.132 156.854L696.761 159.482C695.94 160.471 695.491 161.715 695.491 163C695.491 164.285 695.94 165.529 696.761 166.518L694.132 169.147C694.085 169.193 694.047 169.248 694.021 169.309C693.995 169.37 693.982 169.435 693.981 169.501C693.981 169.568 693.994 169.633 694.019 169.694C694.044 169.756 694.081 169.811 694.128 169.858C694.175 169.905 694.23 169.942 694.292 169.967C694.353 169.992 694.418 170.005 694.485 170.005C694.551 170.004 694.616 169.991 694.677 169.965C694.738 169.939 694.793 169.901 694.839 169.854L697.467 167.226C698.455 168.049 699.7 168.5 700.986 168.5C702.272 168.5 703.517 168.049 704.504 167.226L707.132 169.854C707.227 169.945 707.353 169.996 707.485 169.996C707.616 169.995 707.742 169.942 707.835 169.849C707.928 169.756 707.981 169.63 707.981 169.499C707.982 169.367 707.931 169.241 707.839 169.147L705.211 166.518ZM704.501 165.808L701.693 163L704.501 160.192C705.136 160.99 705.482 161.98 705.482 163C705.482 164.02 705.136 165.01 704.501 165.808ZM700.986 158.5C702.007 158.498 702.998 158.846 703.794 159.485L700.986 162.293L698.178 159.485C698.974 158.846 699.965 158.498 700.986 158.5ZM697.471 160.192L700.279 163L697.471 165.808C696.835 165.01 696.489 164.02 696.489 163C696.489 161.98 696.835 160.99 697.471 160.192ZM700.986 167.5C699.965 167.502 698.974 167.155 698.178 166.515L700.986 163.707L703.794 166.515C702.998 167.155 702.007 167.502 700.986 167.5Z" fill="white" fill-opacity="0.95"/>
<path d="M737.211 166.518C738.031 165.529 738.481 164.285 738.481 163C738.481 161.715 738.031 160.471 737.211 159.483L739.839 156.854C739.887 156.807 739.925 156.752 739.951 156.691C739.976 156.63 739.99 156.565 739.99 156.499C739.991 156.433 739.978 156.367 739.953 156.306C739.928 156.244 739.891 156.189 739.844 156.142C739.797 156.095 739.742 156.058 739.68 156.033C739.619 156.008 739.553 155.995 739.487 155.996C739.421 155.996 739.356 156.01 739.295 156.036C739.234 156.061 739.179 156.099 739.132 156.147L736.504 158.775C735.517 157.951 734.272 157.5 732.986 157.5C731.7 157.5 730.455 157.951 729.467 158.775L726.839 156.147C726.745 156.055 726.619 156.004 726.487 156.005C726.356 156.005 726.23 156.058 726.137 156.151C726.044 156.244 725.991 156.37 725.99 156.501C725.99 156.633 726.041 156.759 726.132 156.854L728.761 159.482C727.94 160.471 727.491 161.715 727.491 163C727.491 164.285 727.94 165.529 728.761 166.518L726.132 169.147C726.085 169.193 726.047 169.248 726.021 169.309C725.995 169.37 725.982 169.435 725.981 169.501C725.981 169.568 725.994 169.633 726.019 169.694C726.044 169.756 726.081 169.811 726.128 169.858C726.175 169.905 726.23 169.942 726.292 169.967C726.353 169.992 726.418 170.005 726.485 170.005C726.551 170.004 726.616 169.991 726.677 169.965C726.738 169.939 726.793 169.901 726.839 169.854L729.467 167.226C730.455 168.049 731.7 168.5 732.986 168.5C734.272 168.5 735.517 168.049 736.504 167.226L739.132 169.854C739.227 169.945 739.353 169.996 739.485 169.996C739.616 169.995 739.742 169.942 739.835 169.849C739.928 169.756 739.981 169.63 739.981 169.499C739.982 169.367 739.931 169.241 739.839 169.147L737.211 166.518ZM736.501 165.808L733.693 163L736.501 160.192C737.136 160.99 737.482 161.98 737.482 163C737.482 164.02 737.136 165.01 736.501 165.808ZM732.986 158.5C734.007 158.498 734.998 158.846 735.794 159.485L732.986 162.293L730.178 159.485C730.974 158.846 731.965 158.498 732.986 158.5ZM729.471 160.192L732.279 163L729.471 165.808C728.835 165.01 728.489 164.02 728.489 163C728.489 161.98 728.835 160.99 729.471 160.192ZM732.986 167.5C731.965 167.502 730.974 167.155 730.178 166.515L732.986 163.707L735.794 166.515C734.998 167.155 734.007 167.502 732.986 167.5Z" fill="white" fill-opacity="0.95"/>
<path d="M769.211 166.518C770.031 165.529 770.481 164.285 770.481 163C770.481 161.715 770.031 160.471 769.211 159.483L771.839 156.854C771.887 156.807 771.925 156.752 771.951 156.691C771.976 156.63 771.99 156.565 771.99 156.499C771.991 156.433 771.978 156.367 771.953 156.306C771.928 156.244 771.891 156.189 771.844 156.142C771.797 156.095 771.742 156.058 771.68 156.033C771.619 156.008 771.553 155.995 771.487 155.996C771.421 155.996 771.356 156.01 771.295 156.036C771.234 156.061 771.179 156.099 771.132 156.147L768.504 158.775C767.517 157.951 766.272 157.5 764.986 157.5C763.7 157.5 762.455 157.951 761.467 158.775L758.839 156.147C758.745 156.055 758.619 156.004 758.487 156.005C758.356 156.005 758.23 156.058 758.137 156.151C758.044 156.244 757.991 156.37 757.99 156.501C757.99 156.633 758.041 156.759 758.132 156.854L760.761 159.482C759.94 160.471 759.491 161.715 759.491 163C759.491 164.285 759.94 165.529 760.761 166.518L758.132 169.147C758.085 169.193 758.047 169.248 758.021 169.309C757.995 169.37 757.982 169.435 757.981 169.501C757.981 169.568 757.994 169.633 758.019 169.694C758.044 169.756 758.081 169.811 758.128 169.858C758.175 169.905 758.23 169.942 758.292 169.967C758.353 169.992 758.418 170.005 758.485 170.005C758.551 170.004 758.616 169.991 758.677 169.965C758.738 169.939 758.793 169.901 758.839 169.854L761.467 167.226C762.455 168.049 763.7 168.5 764.986 168.5C766.272 168.5 767.517 168.049 768.504 167.226L771.132 169.854C771.227 169.945 771.353 169.996 771.485 169.996C771.616 169.995 771.742 169.942 771.835 169.849C771.928 169.756 771.981 169.63 771.981 169.499C771.982 169.367 771.931 169.241 771.839 169.147L769.211 166.518ZM768.501 165.808L765.693 163L768.501 160.192C769.136 160.99 769.482 161.98 769.482 163C769.482 164.02 769.136 165.01 768.501 165.808ZM764.986 158.5C766.007 158.498 766.998 158.846 767.794 159.485L764.986 162.293L762.178 159.485C762.974 158.846 763.965 158.498 764.986 158.5ZM761.471 160.192L764.279 163L761.471 165.808C760.835 165.01 760.489 164.02 760.489 163C760.489 161.98 760.835 160.99 761.471 160.192ZM764.986 167.5C763.965 167.502 762.974 167.155 762.178 166.515L764.986 163.707L767.794 166.515C766.998 167.155 766.007 167.502 764.986 167.5Z" fill="white" fill-opacity="0.95"/>
</g>
<rect x="621.486" y="147.5" width="159" height="31" rx="15.5" stroke="white" stroke-opacity="0.3"/>
<path d="M586.014 163H613.014" stroke="#DA0087"/>
<path d="M621.014 163L613.014 159V167L621.014 163Z" fill="#DA0087"/>
<rect x="519.014" y="149" width="75" height="28" rx="14" fill="#DA0087"/>
<path d="M532.214 156.48H536.358C537.755 156.48 538.8 156.789 539.494 157.408C540.08 157.931 540.374 158.64 540.374 159.536C540.374 160.112 540.171 160.635 539.766 161.104C539.424 161.509 539.008 161.776 538.518 161.904C539.179 162.021 539.723 162.368 540.15 162.944C540.534 163.467 540.726 164.069 540.726 164.752C540.726 165.851 540.304 166.683 539.462 167.248C538.704 167.749 537.659 168 536.326 168H532.214V156.48ZM536.63 162.592H533.846V166.672H536.566C538.208 166.672 539.03 166.032 539.03 164.752C539.03 163.312 538.23 162.592 536.63 162.592ZM536.486 157.712H533.846V161.344H536.582C537.318 161.344 537.872 161.157 538.246 160.784C538.566 160.464 538.726 160.048 538.726 159.536C538.726 158.928 538.502 158.464 538.054 158.144C537.67 157.856 537.147 157.712 536.486 157.712ZM542.091 163.84C542.091 162.315 542.545 161.163 543.451 160.384C544.177 159.755 545.094 159.44 546.203 159.44C547.494 159.44 548.507 159.851 549.243 160.672C549.947 161.44 550.299 162.496 550.299 163.84C550.299 165.344 549.857 166.491 548.971 167.28C548.246 167.92 547.318 168.24 546.187 168.24C544.897 168.24 543.878 167.813 543.131 166.96C542.438 166.181 542.091 165.141 542.091 163.84ZM543.691 163.84C543.691 164.907 543.963 165.723 544.507 166.288C544.955 166.757 545.526 166.992 546.219 166.992C547.03 166.992 547.654 166.688 548.091 166.08C548.497 165.525 548.699 164.779 548.699 163.84C548.699 162.752 548.433 161.931 547.899 161.376C547.462 160.917 546.897 160.688 546.203 160.688C545.403 160.688 544.779 160.992 544.331 161.6C543.905 162.155 543.691 162.901 543.691 163.84ZM553.592 168H552.056V159.68H553.32L553.528 160.912C553.997 159.931 554.701 159.44 555.64 159.44C555.949 159.44 556.253 159.477 556.552 159.552V161.088C556.189 160.992 555.864 160.944 555.576 160.944C554.957 160.944 554.472 161.195 554.12 161.696C553.768 162.197 553.592 162.907 553.592 163.824V168ZM565.106 168H563.842L563.57 166.832C562.93 167.771 562.008 168.24 560.802 168.24C559.64 168.24 558.722 167.819 558.05 166.976C557.432 166.197 557.122 165.168 557.122 163.888C557.122 162.341 557.517 161.179 558.306 160.4C558.968 159.76 559.832 159.44 560.898 159.44C562.05 159.44 562.941 159.872 563.57 160.736V156.48H565.106V168ZM558.722 163.92C558.722 164.955 558.978 165.739 559.49 166.272C559.917 166.709 560.466 166.928 561.138 166.928C561.97 166.928 562.616 166.613 563.074 165.984C563.458 165.44 563.65 164.757 563.65 163.936C563.65 162.859 563.394 162.037 562.882 161.472C562.445 160.992 561.864 160.752 561.138 160.752C560.328 160.752 559.714 161.045 559.298 161.632C558.914 162.165 558.722 162.928 558.722 163.92ZM573.016 165.6H574.68C574.446 166.443 573.982 167.104 573.288 167.584C572.638 168.021 571.859 168.24 570.952 168.24C569.64 168.24 568.616 167.824 567.88 166.992C567.208 166.213 566.872 165.163 566.872 163.84C566.872 162.336 567.299 161.195 568.152 160.416C568.856 159.765 569.763 159.44 570.872 159.44C572.174 159.44 573.155 159.861 573.816 160.704C574.456 161.515 574.776 162.672 574.776 164.176H568.44C568.504 165.157 568.803 165.888 569.336 166.368C569.774 166.752 570.328 166.944 571 166.944C571.523 166.944 571.976 166.8 572.36 166.512C572.68 166.267 572.899 165.963 573.016 165.6ZM570.904 160.672C570.222 160.672 569.672 160.885 569.256 161.312C568.862 161.707 568.611 162.256 568.504 162.96H573.208C573.155 162.16 572.888 161.563 572.408 161.168C572.024 160.837 571.523 160.672 570.904 160.672ZM578.154 168H576.618V159.68H577.882L578.09 160.912C578.559 159.931 579.263 159.44 580.202 159.44C580.511 159.44 580.815 159.477 581.114 159.552V161.088C580.751 160.992 580.426 160.944 580.138 160.944C579.519 160.944 579.034 161.195 578.682 161.696C578.33 162.197 578.154 162.907 578.154 163.824V168Z" fill="white"/>
<path d="M636.986 120V147" stroke="#DA0087"/>
<path d="M636.986 155L632.986 147H640.986L636.986 155Z" fill="#DA0087"/>
<rect x="608.986" y="100" width="56" height="28" rx="14" fill="#DA0087"/>
<path d="M622.186 107.48H623.818V119H622.186V107.48ZM631.562 116.328H633.242C633.114 117.224 632.692 117.944 631.978 118.488C631.327 118.989 630.532 119.24 629.594 119.24C628.367 119.24 627.391 118.819 626.666 117.976C625.994 117.197 625.658 116.173 625.658 114.904C625.658 113.432 626.063 112.291 626.874 111.48C627.567 110.787 628.468 110.44 629.578 110.44C630.602 110.44 631.444 110.712 632.106 111.256C632.692 111.736 633.05 112.365 633.178 113.144H631.482C631.375 112.696 631.156 112.349 630.826 112.104C630.506 111.859 630.1 111.736 629.61 111.736C628.852 111.736 628.271 112.035 627.866 112.632C627.482 113.187 627.29 113.96 627.29 114.952C627.29 115.987 627.546 116.771 628.058 117.304C628.463 117.731 628.986 117.944 629.626 117.944C630.18 117.944 630.634 117.784 630.986 117.464C631.295 117.187 631.487 116.808 631.562 116.328ZM634.517 114.84C634.517 113.315 634.97 112.163 635.877 111.384C636.602 110.755 637.52 110.44 638.629 110.44C639.92 110.44 640.933 110.851 641.669 111.672C642.373 112.44 642.725 113.496 642.725 114.84C642.725 116.344 642.282 117.491 641.397 118.28C640.672 118.92 639.744 119.24 638.613 119.24C637.322 119.24 636.304 118.813 635.557 117.96C634.864 117.181 634.517 116.141 634.517 114.84ZM636.117 114.84C636.117 115.907 636.389 116.723 636.933 117.288C637.381 117.757 637.952 117.992 638.645 117.992C639.456 117.992 640.08 117.688 640.517 117.08C640.922 116.525 641.125 115.779 641.125 114.84C641.125 113.752 640.858 112.931 640.325 112.376C639.888 111.917 639.322 111.688 638.629 111.688C637.829 111.688 637.205 111.992 636.757 112.6C636.33 113.155 636.117 113.901 636.117 114.84ZM646.017 119H644.481V110.68H645.745L645.921 111.736C646.54 110.872 647.383 110.44 648.449 110.44C649.431 110.44 650.183 110.744 650.705 111.352C651.164 111.896 651.393 112.637 651.393 113.576V119H649.857V113.592C649.857 112.365 649.265 111.752 648.081 111.752C647.463 111.752 646.956 111.965 646.561 112.392C646.199 112.776 646.017 113.267 646.017 113.864V119Z" fill="white"/>
<defs>
<clipPath id="clip0_2129_36558">
<rect x="620.986" y="147" width="160" height="32" rx="16" fill="white"/>
</clipPath>
</defs>
</svg>
