<svg width="1300" height="280" viewBox="0 0 1300 280" fill="none" xmlns="http://www.w3.org/2000/svg">
<rect width="1300" height="280" rx="24" fill="#262626"/>
<g clip-path="url(#clip0_2129_36624)">
<rect x="598" y="148" width="16" height="32" fill="#E8178A" fill-opacity="0.24"/>
</g>
<g clip-path="url(#clip1_2129_36624)">
<path d="M594.224 167.518C595.045 166.529 595.494 165.285 595.494 164C595.494 162.715 595.045 161.471 594.224 160.483L596.853 157.854C596.901 157.807 596.938 157.752 596.964 157.691C596.99 157.63 597.004 157.565 597.004 157.499C597.004 157.433 596.992 157.367 596.967 157.306C596.941 157.244 596.904 157.189 596.858 157.142C596.811 157.095 596.755 157.058 596.694 157.033C596.633 157.008 596.567 156.995 596.501 156.996C596.435 156.996 596.369 157.01 596.308 157.036C596.247 157.061 596.192 157.099 596.146 157.147L593.518 159.775C592.53 158.951 591.285 158.5 590 158.5C588.714 158.5 587.469 158.951 586.481 159.775L583.853 157.147C583.759 157.055 583.632 157.004 583.501 157.005C583.369 157.005 583.244 157.058 583.151 157.151C583.058 157.244 583.005 157.37 583.004 157.501C583.003 157.633 583.054 157.759 583.146 157.854L585.775 160.482C584.954 161.471 584.505 162.715 584.505 164C584.505 165.285 584.954 166.529 585.775 167.518L583.146 170.147C583.099 170.193 583.061 170.248 583.035 170.309C583.009 170.37 582.996 170.435 582.995 170.501C582.995 170.568 583.007 170.633 583.033 170.694C583.058 170.756 583.095 170.811 583.142 170.858C583.188 170.905 583.244 170.942 583.305 170.967C583.366 170.992 583.432 171.005 583.498 171.005C583.564 171.004 583.63 170.991 583.691 170.965C583.752 170.939 583.807 170.901 583.853 170.854L586.481 168.226C587.469 169.049 588.714 169.5 590 169.5C591.285 169.5 592.53 169.049 593.518 168.226L596.146 170.854C596.24 170.945 596.367 170.996 596.498 170.996C596.63 170.995 596.756 170.942 596.849 170.849C596.942 170.756 596.994 170.63 596.995 170.499C596.996 170.367 596.945 170.241 596.853 170.147L594.224 167.518ZM593.514 166.808L590.707 164L593.514 161.192C594.15 161.99 594.496 162.98 594.496 164C594.496 165.02 594.15 166.01 593.514 166.808ZM590 159.5C591.021 159.498 592.012 159.846 592.807 160.485L590 163.293L587.192 160.485C587.988 159.846 588.979 159.498 590 159.5ZM586.485 161.192L589.293 164L586.485 166.808C585.849 166.01 585.503 165.02 585.503 164C585.503 162.98 585.849 161.99 586.485 161.192ZM590 168.5C588.979 168.502 587.988 168.155 587.192 167.515L590 164.707L592.807 167.515C592.012 168.155 591.021 168.502 590 168.5Z" fill="white" fill-opacity="0.95"/>
<path d="M626.224 167.518C627.045 166.529 627.494 165.285 627.494 164C627.494 162.715 627.045 161.471 626.224 160.483L628.853 157.854C628.901 157.807 628.938 157.752 628.964 157.691C628.99 157.63 629.004 157.565 629.004 157.499C629.004 157.433 628.992 157.367 628.967 157.306C628.941 157.244 628.904 157.189 628.858 157.142C628.811 157.095 628.755 157.058 628.694 157.033C628.633 157.008 628.567 156.995 628.501 156.996C628.435 156.996 628.369 157.01 628.308 157.036C628.247 157.061 628.192 157.099 628.146 157.147L625.518 159.775C624.53 158.951 623.285 158.5 622 158.5C620.714 158.5 619.469 158.951 618.481 159.775L615.853 157.147C615.759 157.055 615.632 157.004 615.501 157.005C615.369 157.005 615.244 157.058 615.151 157.151C615.058 157.244 615.005 157.37 615.004 157.501C615.003 157.633 615.054 157.759 615.146 157.854L617.775 160.482C616.954 161.471 616.505 162.715 616.505 164C616.505 165.285 616.954 166.529 617.775 167.518L615.146 170.147C615.099 170.193 615.061 170.248 615.035 170.309C615.009 170.37 614.996 170.435 614.995 170.501C614.995 170.568 615.007 170.633 615.033 170.694C615.058 170.756 615.095 170.811 615.142 170.858C615.188 170.905 615.244 170.942 615.305 170.967C615.366 170.992 615.432 171.005 615.498 171.005C615.564 171.004 615.63 170.991 615.691 170.965C615.752 170.939 615.807 170.901 615.853 170.854L618.481 168.226C619.469 169.049 620.714 169.5 622 169.5C623.285 169.5 624.53 169.049 625.518 168.226L628.146 170.854C628.24 170.945 628.367 170.996 628.498 170.996C628.63 170.995 628.756 170.942 628.849 170.849C628.942 170.756 628.994 170.63 628.995 170.499C628.996 170.367 628.945 170.241 628.853 170.147L626.224 167.518ZM625.514 166.808L622.707 164L625.514 161.192C626.15 161.99 626.496 162.98 626.496 164C626.496 165.02 626.15 166.01 625.514 166.808ZM622 159.5C623.021 159.498 624.012 159.846 624.807 160.485L622 163.293L619.192 160.485C619.988 159.846 620.979 159.498 622 159.5ZM618.485 161.192L621.293 164L618.485 166.808C617.849 166.01 617.503 165.02 617.503 164C617.503 162.98 617.849 161.99 618.485 161.192ZM622 168.5C620.979 168.502 619.988 168.155 619.192 167.515L622 164.707L624.807 167.515C624.012 168.155 623.021 168.502 622 168.5Z" fill="white" fill-opacity="0.95"/>
<path d="M658.224 167.518C659.045 166.529 659.494 165.285 659.494 164C659.494 162.715 659.045 161.471 658.224 160.483L660.853 157.854C660.901 157.807 660.938 157.752 660.964 157.691C660.99 157.63 661.004 157.565 661.004 157.499C661.004 157.433 660.992 157.367 660.967 157.306C660.941 157.244 660.904 157.189 660.858 157.142C660.811 157.095 660.755 157.058 660.694 157.033C660.633 157.008 660.567 156.995 660.501 156.996C660.435 156.996 660.369 157.01 660.308 157.036C660.247 157.061 660.192 157.099 660.146 157.147L657.518 159.775C656.53 158.951 655.285 158.5 654 158.5C652.714 158.5 651.469 158.951 650.481 159.775L647.853 157.147C647.759 157.055 647.632 157.004 647.501 157.005C647.369 157.005 647.244 157.058 647.151 157.151C647.058 157.244 647.005 157.37 647.004 157.501C647.003 157.633 647.054 157.759 647.146 157.854L649.775 160.482C648.954 161.471 648.505 162.715 648.505 164C648.505 165.285 648.954 166.529 649.775 167.518L647.146 170.147C647.099 170.193 647.061 170.248 647.035 170.309C647.009 170.37 646.996 170.435 646.995 170.501C646.995 170.568 647.007 170.633 647.033 170.694C647.058 170.756 647.095 170.811 647.142 170.858C647.188 170.905 647.244 170.942 647.305 170.967C647.366 170.992 647.432 171.005 647.498 171.005C647.564 171.004 647.63 170.991 647.691 170.965C647.752 170.939 647.807 170.901 647.853 170.854L650.481 168.226C651.469 169.049 652.714 169.5 654 169.5C655.285 169.5 656.53 169.049 657.518 168.226L660.146 170.854C660.24 170.945 660.367 170.996 660.498 170.996C660.63 170.995 660.756 170.942 660.849 170.849C660.942 170.756 660.994 170.63 660.995 170.499C660.996 170.367 660.945 170.241 660.853 170.147L658.224 167.518ZM657.514 166.808L654.707 164L657.514 161.192C658.15 161.99 658.496 162.98 658.496 164C658.496 165.02 658.15 166.01 657.514 166.808ZM654 159.5C655.021 159.498 656.012 159.846 656.807 160.485L654 163.293L651.192 160.485C651.988 159.846 652.979 159.498 654 159.5ZM650.485 161.192L653.293 164L650.485 166.808C649.849 166.01 649.503 165.02 649.503 164C649.503 162.98 649.849 161.99 650.485 161.192ZM654 168.5C652.979 168.502 651.988 168.155 651.192 167.515L654 164.707L656.807 167.515C656.012 168.155 655.021 168.502 654 168.5Z" fill="white" fill-opacity="0.95"/>
<path d="M690.224 167.518C691.045 166.529 691.494 165.285 691.494 164C691.494 162.715 691.045 161.471 690.224 160.483L692.853 157.854C692.901 157.807 692.938 157.752 692.964 157.691C692.99 157.63 693.004 157.565 693.004 157.499C693.004 157.433 692.992 157.367 692.967 157.306C692.941 157.244 692.904 157.189 692.858 157.142C692.811 157.095 692.755 157.058 692.694 157.033C692.633 157.008 692.567 156.995 692.501 156.996C692.435 156.996 692.369 157.01 692.308 157.036C692.247 157.061 692.192 157.099 692.146 157.147L689.518 159.775C688.53 158.951 687.285 158.5 686 158.5C684.714 158.5 683.469 158.951 682.481 159.775L679.853 157.147C679.759 157.055 679.632 157.004 679.501 157.005C679.369 157.005 679.244 157.058 679.151 157.151C679.058 157.244 679.005 157.37 679.004 157.501C679.003 157.633 679.054 157.759 679.146 157.854L681.775 160.482C680.954 161.471 680.505 162.715 680.505 164C680.505 165.285 680.954 166.529 681.775 167.518L679.146 170.147C679.099 170.193 679.061 170.248 679.035 170.309C679.009 170.37 678.996 170.435 678.995 170.501C678.995 170.568 679.007 170.633 679.033 170.694C679.058 170.756 679.095 170.811 679.142 170.858C679.188 170.905 679.244 170.942 679.305 170.967C679.366 170.992 679.432 171.005 679.498 171.005C679.564 171.004 679.63 170.991 679.691 170.965C679.752 170.939 679.807 170.901 679.853 170.854L682.481 168.226C683.469 169.049 684.714 169.5 686 169.5C687.285 169.5 688.53 169.049 689.518 168.226L692.146 170.854C692.24 170.945 692.367 170.996 692.498 170.996C692.63 170.995 692.756 170.942 692.849 170.849C692.942 170.756 692.994 170.63 692.995 170.499C692.996 170.367 692.945 170.241 692.853 170.147L690.224 167.518ZM689.514 166.808L686.707 164L689.514 161.192C690.15 161.99 690.496 162.98 690.496 164C690.496 165.02 690.15 166.01 689.514 166.808ZM686 159.5C687.021 159.498 688.012 159.846 688.807 160.485L686 163.293L683.192 160.485C683.988 159.846 684.979 159.498 686 159.5ZM682.485 161.192L685.293 164L682.485 166.808C681.849 166.01 681.503 165.02 681.503 164C681.503 162.98 681.849 161.99 682.485 161.192ZM686 168.5C684.979 168.502 683.988 168.155 683.192 167.515L686 164.707L688.807 167.515C688.012 168.155 687.021 168.502 686 168.5Z" fill="white" fill-opacity="0.95"/>
<path d="M722.224 167.518C723.045 166.529 723.494 165.285 723.494 164C723.494 162.715 723.045 161.471 722.224 160.483L724.853 157.854C724.901 157.807 724.938 157.752 724.964 157.691C724.99 157.63 725.004 157.565 725.004 157.499C725.004 157.433 724.992 157.367 724.967 157.306C724.941 157.244 724.904 157.189 724.858 157.142C724.811 157.095 724.755 157.058 724.694 157.033C724.633 157.008 724.567 156.995 724.501 156.996C724.435 156.996 724.369 157.01 724.308 157.036C724.247 157.061 724.192 157.099 724.146 157.147L721.518 159.775C720.53 158.951 719.285 158.5 718 158.5C716.714 158.5 715.469 158.951 714.481 159.775L711.853 157.147C711.759 157.055 711.632 157.004 711.501 157.005C711.369 157.005 711.244 157.058 711.151 157.151C711.058 157.244 711.005 157.37 711.004 157.501C711.003 157.633 711.054 157.759 711.146 157.854L713.775 160.482C712.954 161.471 712.505 162.715 712.505 164C712.505 165.285 712.954 166.529 713.775 167.518L711.146 170.147C711.099 170.193 711.061 170.248 711.035 170.309C711.009 170.37 710.996 170.435 710.995 170.501C710.995 170.568 711.007 170.633 711.033 170.694C711.058 170.756 711.095 170.811 711.142 170.858C711.188 170.905 711.244 170.942 711.305 170.967C711.366 170.992 711.432 171.005 711.498 171.005C711.564 171.004 711.63 170.991 711.691 170.965C711.752 170.939 711.807 170.901 711.853 170.854L714.481 168.226C715.469 169.049 716.714 169.5 718 169.5C719.285 169.5 720.53 169.049 721.518 168.226L724.146 170.854C724.24 170.945 724.367 170.996 724.498 170.996C724.63 170.995 724.756 170.942 724.849 170.849C724.942 170.756 724.994 170.63 724.995 170.499C724.996 170.367 724.945 170.241 724.853 170.147L722.224 167.518ZM721.514 166.808L718.707 164L721.514 161.192C722.15 161.99 722.496 162.98 722.496 164C722.496 165.02 722.15 166.01 721.514 166.808ZM718 159.5C719.021 159.498 720.012 159.846 720.807 160.485L718 163.293L715.192 160.485C715.988 159.846 716.979 159.498 718 159.5ZM714.485 161.192L717.293 164L714.485 166.808C713.849 166.01 713.503 165.02 713.503 164C713.503 162.98 713.849 161.99 714.485 161.192ZM718 168.5C716.979 168.502 715.988 168.155 715.192 167.515L718 164.707L720.807 167.515C720.012 168.155 719.021 168.502 718 168.5Z" fill="white" fill-opacity="0.95"/>
</g>
<rect x="574.5" y="148.5" width="159" height="31" rx="15.5" stroke="white" stroke-opacity="0.3"/>
<g clip-path="url(#clip2_2129_36624)">
<line x1="574.5" y1="140" x2="574.5" y2="125" stroke="#E8178A"/>
<line x1="574" y1="132.5" x2="582" y2="132.5" stroke="#E8178A"/>
<line x1="581.5" y1="140" x2="581.5" y2="125" stroke="#E8178A"/>
</g>
<path d="M568.281 110.672C568.281 110.973 568.23 111.253 568.13 111.513C568.035 111.772 567.898 112.005 567.72 112.21C567.611 112.342 567.485 112.465 567.344 112.579C567.203 112.693 567.046 112.793 566.872 112.88C567.078 112.976 567.267 113.087 567.44 113.215C567.618 113.338 567.772 113.481 567.905 113.646C568.091 113.864 568.237 114.113 568.342 114.391C568.447 114.669 568.499 114.969 568.499 115.293C568.499 115.753 568.415 116.161 568.246 116.517C568.078 116.872 567.848 117.168 567.556 117.405C567.26 117.647 566.913 117.829 566.517 117.952C566.125 118.075 565.701 118.137 565.245 118.137C564.781 118.137 564.348 118.075 563.947 117.952C563.55 117.829 563.206 117.647 562.914 117.405C562.618 117.168 562.386 116.874 562.217 116.523C562.053 116.168 561.971 115.758 561.971 115.293C561.971 115.02 562.008 114.76 562.08 114.514C562.158 114.268 562.267 114.04 562.409 113.83C562.55 113.63 562.718 113.45 562.914 113.29C563.115 113.126 563.338 112.987 563.584 112.873C563.375 112.768 563.183 112.641 563.01 112.49C562.841 112.34 562.698 112.174 562.579 111.991C562.456 111.804 562.361 111.599 562.292 111.376C562.224 111.153 562.19 110.918 562.19 110.672C562.19 110.23 562.265 109.838 562.415 109.496C562.57 109.154 562.782 108.865 563.051 108.628C563.315 108.391 563.632 108.213 564.001 108.095C564.375 107.972 564.783 107.91 565.225 107.91C565.662 107.91 566.066 107.972 566.435 108.095C566.809 108.213 567.134 108.391 567.412 108.628C567.681 108.86 567.893 109.15 568.048 109.496C568.203 109.838 568.281 110.23 568.281 110.672ZM566.866 115.204C566.866 114.958 566.825 114.735 566.743 114.534C566.665 114.329 566.556 114.151 566.414 114.001C566.269 113.86 566.095 113.75 565.895 113.673C565.694 113.595 565.473 113.557 565.232 113.557C564.981 113.557 564.756 113.595 564.555 113.673C564.359 113.75 564.19 113.86 564.049 114.001C563.908 114.151 563.799 114.329 563.721 114.534C563.648 114.735 563.612 114.96 563.612 115.211C563.612 115.466 563.65 115.696 563.728 115.901C563.805 116.102 563.917 116.271 564.063 116.407C564.204 116.539 564.373 116.642 564.569 116.715C564.769 116.783 564.995 116.817 565.245 116.817C565.482 116.817 565.699 116.781 565.895 116.708C566.095 116.635 566.269 116.53 566.414 116.394C566.551 116.252 566.661 116.084 566.743 115.888C566.825 115.687 566.866 115.459 566.866 115.204ZM566.654 110.733C566.654 110.51 566.617 110.307 566.544 110.125C566.476 109.943 566.38 109.783 566.257 109.646C566.13 109.519 565.979 109.419 565.806 109.346C565.633 109.273 565.437 109.236 565.218 109.236C565.004 109.236 564.81 109.273 564.637 109.346C564.468 109.414 564.323 109.512 564.2 109.64C564.081 109.767 563.99 109.924 563.926 110.111C563.862 110.298 563.83 110.506 563.83 110.733C563.83 110.957 563.862 111.162 563.926 111.349C563.99 111.531 564.086 111.686 564.213 111.813C564.336 111.946 564.484 112.048 564.658 112.121C564.831 112.194 565.024 112.23 565.239 112.23C565.453 112.23 565.647 112.194 565.82 112.121C565.993 112.048 566.141 111.946 566.264 111.813C566.387 111.686 566.483 111.531 566.551 111.349C566.619 111.162 566.654 110.957 566.654 110.733ZM570.369 120.844V110.604H571.873L571.935 111.362C572.035 111.239 572.144 111.128 572.263 111.027C572.381 110.927 572.509 110.84 572.646 110.768C572.823 110.672 573.019 110.599 573.233 110.549C573.448 110.494 573.675 110.467 573.917 110.467C574.391 110.467 574.808 110.558 575.168 110.74C575.533 110.923 575.838 111.18 576.084 111.513C576.326 111.845 576.51 112.244 576.638 112.709C576.765 113.169 576.829 113.677 576.829 114.233V114.377C576.829 114.91 576.765 115.407 576.638 115.867C576.515 116.327 576.33 116.724 576.084 117.057C575.838 117.394 575.535 117.658 575.175 117.85C574.815 118.041 574.402 118.137 573.938 118.137C573.673 118.137 573.429 118.109 573.206 118.055C572.987 118 572.785 117.92 572.598 117.815C572.488 117.752 572.383 117.679 572.283 117.597C572.183 117.515 572.09 117.426 572.003 117.33V120.844H570.369ZM575.195 114.233C575.195 113.901 575.161 113.589 575.093 113.297C575.029 113.001 574.929 112.743 574.792 112.524C574.651 112.306 574.471 112.132 574.252 112.005C574.033 111.877 573.771 111.813 573.466 111.813C573.297 111.813 573.14 111.832 572.994 111.868C572.848 111.905 572.718 111.957 572.604 112.025C572.472 112.098 572.356 112.189 572.256 112.299C572.16 112.408 572.076 112.531 572.003 112.668V115.956C572.067 116.084 572.144 116.2 572.235 116.305C572.326 116.41 572.431 116.501 572.55 116.578C572.673 116.651 572.812 116.71 572.967 116.756C573.122 116.797 573.293 116.817 573.479 116.817C573.785 116.817 574.045 116.754 574.259 116.626C574.478 116.494 574.655 116.316 574.792 116.093C574.933 115.865 575.036 115.605 575.1 115.313C575.163 115.017 575.195 114.705 575.195 114.377V114.233ZM581.871 113.092L583.641 110.604H585.453L582.855 114.247L585.535 118H583.73L581.884 115.416L580.046 118H578.234L580.914 114.247L578.323 110.604H580.121L581.871 113.092Z" fill="#E8178A"/>
<g clip-path="url(#clip3_2129_36624)">
<line x1="551" y1="148.5" x2="566" y2="148.5" stroke="#E8178A"/>
<line x1="558.5" y1="157" x2="558.5" y2="149" stroke="#E8178A"/>
<line x1="551" y1="155.5" x2="566" y2="155.5" stroke="#E8178A"/>
</g>
<path d="M529.308 149.672C529.308 149.973 529.258 150.253 529.158 150.513C529.062 150.772 528.926 151.005 528.748 151.21C528.638 151.342 528.513 151.465 528.372 151.579C528.231 151.693 528.073 151.793 527.9 151.88C528.105 151.976 528.294 152.087 528.468 152.215C528.645 152.338 528.8 152.481 528.932 152.646C529.119 152.864 529.265 153.113 529.37 153.391C529.475 153.669 529.527 153.969 529.527 154.293C529.527 154.753 529.443 155.161 529.274 155.517C529.106 155.872 528.875 156.168 528.584 156.405C528.287 156.647 527.941 156.829 527.545 156.952C527.153 157.075 526.729 157.137 526.273 157.137C525.808 157.137 525.375 157.075 524.974 156.952C524.578 156.829 524.234 156.647 523.942 156.405C523.646 156.168 523.413 155.874 523.245 155.523C523.081 155.168 522.999 154.758 522.999 154.293C522.999 154.02 523.035 153.76 523.108 153.514C523.186 153.268 523.295 153.04 523.436 152.83C523.578 152.63 523.746 152.45 523.942 152.29C524.143 152.126 524.366 151.987 524.612 151.873C524.402 151.768 524.211 151.641 524.038 151.49C523.869 151.34 523.726 151.174 523.607 150.991C523.484 150.804 523.388 150.599 523.32 150.376C523.252 150.153 523.218 149.918 523.218 149.672C523.218 149.23 523.293 148.838 523.443 148.496C523.598 148.154 523.81 147.865 524.079 147.628C524.343 147.391 524.66 147.213 525.029 147.095C525.403 146.972 525.811 146.91 526.253 146.91C526.69 146.91 527.093 146.972 527.463 147.095C527.836 147.213 528.162 147.391 528.44 147.628C528.709 147.86 528.921 148.15 529.076 148.496C529.231 148.838 529.308 149.23 529.308 149.672ZM527.893 154.204C527.893 153.958 527.852 153.735 527.77 153.534C527.693 153.329 527.583 153.151 527.442 153.001C527.296 152.86 527.123 152.75 526.923 152.673C526.722 152.595 526.501 152.557 526.259 152.557C526.009 152.557 525.783 152.595 525.583 152.673C525.387 152.75 525.218 152.86 525.077 153.001C524.936 153.151 524.826 153.329 524.749 153.534C524.676 153.735 524.639 153.96 524.639 154.211C524.639 154.466 524.678 154.696 524.756 154.901C524.833 155.102 524.945 155.271 525.091 155.407C525.232 155.539 525.4 155.642 525.596 155.715C525.797 155.783 526.023 155.817 526.273 155.817C526.51 155.817 526.727 155.781 526.923 155.708C527.123 155.635 527.296 155.53 527.442 155.394C527.579 155.252 527.688 155.084 527.77 154.888C527.852 154.687 527.893 154.459 527.893 154.204ZM527.681 149.733C527.681 149.51 527.645 149.307 527.572 149.125C527.504 148.943 527.408 148.783 527.285 148.646C527.157 148.519 527.007 148.419 526.834 148.346C526.661 148.273 526.465 148.236 526.246 148.236C526.032 148.236 525.838 148.273 525.665 148.346C525.496 148.414 525.35 148.512 525.227 148.64C525.109 148.767 525.018 148.924 524.954 149.111C524.89 149.298 524.858 149.506 524.858 149.733C524.858 149.957 524.89 150.162 524.954 150.349C525.018 150.531 525.113 150.686 525.241 150.813C525.364 150.946 525.512 151.048 525.685 151.121C525.858 151.194 526.052 151.23 526.266 151.23C526.481 151.23 526.674 151.194 526.847 151.121C527.021 151.048 527.169 150.946 527.292 150.813C527.415 150.686 527.51 150.531 527.579 150.349C527.647 150.162 527.681 149.957 527.681 149.733ZM531.397 159.844V149.604H532.901L532.962 150.362C533.063 150.239 533.172 150.128 533.29 150.027C533.409 149.927 533.536 149.84 533.673 149.768C533.851 149.672 534.047 149.599 534.261 149.549C534.475 149.494 534.703 149.467 534.945 149.467C535.419 149.467 535.836 149.558 536.196 149.74C536.56 149.923 536.866 150.18 537.112 150.513C537.353 150.845 537.538 151.244 537.665 151.709C537.793 152.169 537.857 152.677 537.857 153.233V153.377C537.857 153.91 537.793 154.407 537.665 154.867C537.542 155.327 537.358 155.724 537.112 156.057C536.866 156.394 536.563 156.658 536.203 156.85C535.842 157.041 535.43 157.137 534.965 157.137C534.701 157.137 534.457 157.109 534.234 157.055C534.015 157 533.812 156.92 533.625 156.815C533.516 156.752 533.411 156.679 533.311 156.597C533.211 156.515 533.117 156.426 533.031 156.33V159.844H531.397ZM536.223 153.233C536.223 152.901 536.189 152.589 536.12 152.297C536.057 152.001 535.956 151.743 535.82 151.524C535.678 151.306 535.498 151.132 535.28 151.005C535.061 150.877 534.799 150.813 534.494 150.813C534.325 150.813 534.168 150.832 534.022 150.868C533.876 150.905 533.746 150.957 533.632 151.025C533.5 151.098 533.384 151.189 533.284 151.299C533.188 151.408 533.104 151.531 533.031 151.668V154.956C533.094 155.084 533.172 155.2 533.263 155.305C533.354 155.41 533.459 155.501 533.578 155.578C533.701 155.651 533.84 155.71 533.994 155.756C534.149 155.797 534.32 155.817 534.507 155.817C534.813 155.817 535.072 155.754 535.286 155.626C535.505 155.494 535.683 155.316 535.82 155.093C535.961 154.865 536.064 154.605 536.127 154.313C536.191 154.017 536.223 153.705 536.223 153.377V153.233ZM542.898 152.092L544.669 149.604H546.48L543.883 153.247L546.562 157H544.758L542.912 154.416L541.073 157H539.262L541.941 153.247L539.351 149.604H541.148L542.898 152.092Z" fill="#E8178A"/>
<g clip-path="url(#clip4_2129_36624)">
<rect x="574" y="148" width="160" height="8" fill="#E8178A" fill-opacity="0.24"/>
</g>
<g clip-path="url(#clip5_2129_36624)">
<rect x="574" y="172" width="160" height="8" fill="#E8178A" fill-opacity="0.24"/>
</g>
<g clip-path="url(#clip6_2129_36624)">
<line x1="551" y1="172.5" x2="566" y2="172.5" stroke="#E8178A"/>
<line x1="558.5" y1="181" x2="558.5" y2="173" stroke="#E8178A"/>
<line x1="551" y1="179.5" x2="566" y2="179.5" stroke="#E8178A"/>
</g>
<path d="M529.308 173.672C529.308 173.973 529.258 174.253 529.158 174.513C529.062 174.772 528.926 175.005 528.748 175.21C528.638 175.342 528.513 175.465 528.372 175.579C528.231 175.693 528.073 175.793 527.9 175.88C528.105 175.976 528.294 176.087 528.468 176.215C528.645 176.338 528.8 176.481 528.932 176.646C529.119 176.864 529.265 177.113 529.37 177.391C529.475 177.669 529.527 177.969 529.527 178.293C529.527 178.753 529.443 179.161 529.274 179.517C529.106 179.872 528.875 180.168 528.584 180.405C528.287 180.647 527.941 180.829 527.545 180.952C527.153 181.075 526.729 181.137 526.273 181.137C525.808 181.137 525.375 181.075 524.974 180.952C524.578 180.829 524.234 180.647 523.942 180.405C523.646 180.168 523.413 179.874 523.245 179.523C523.081 179.168 522.999 178.758 522.999 178.293C522.999 178.02 523.035 177.76 523.108 177.514C523.186 177.268 523.295 177.04 523.436 176.83C523.578 176.63 523.746 176.45 523.942 176.29C524.143 176.126 524.366 175.987 524.612 175.873C524.402 175.768 524.211 175.641 524.038 175.49C523.869 175.34 523.726 175.174 523.607 174.991C523.484 174.804 523.388 174.599 523.32 174.376C523.252 174.153 523.218 173.918 523.218 173.672C523.218 173.23 523.293 172.838 523.443 172.496C523.598 172.154 523.81 171.865 524.079 171.628C524.343 171.391 524.66 171.213 525.029 171.095C525.403 170.972 525.811 170.91 526.253 170.91C526.69 170.91 527.093 170.972 527.463 171.095C527.836 171.213 528.162 171.391 528.44 171.628C528.709 171.86 528.921 172.15 529.076 172.496C529.231 172.838 529.308 173.23 529.308 173.672ZM527.893 178.204C527.893 177.958 527.852 177.735 527.77 177.534C527.693 177.329 527.583 177.151 527.442 177.001C527.296 176.86 527.123 176.75 526.923 176.673C526.722 176.595 526.501 176.557 526.259 176.557C526.009 176.557 525.783 176.595 525.583 176.673C525.387 176.75 525.218 176.86 525.077 177.001C524.936 177.151 524.826 177.329 524.749 177.534C524.676 177.735 524.639 177.96 524.639 178.211C524.639 178.466 524.678 178.696 524.756 178.901C524.833 179.102 524.945 179.271 525.091 179.407C525.232 179.539 525.4 179.642 525.596 179.715C525.797 179.783 526.023 179.817 526.273 179.817C526.51 179.817 526.727 179.781 526.923 179.708C527.123 179.635 527.296 179.53 527.442 179.394C527.579 179.252 527.688 179.084 527.77 178.888C527.852 178.687 527.893 178.459 527.893 178.204ZM527.681 173.733C527.681 173.51 527.645 173.307 527.572 173.125C527.504 172.943 527.408 172.783 527.285 172.646C527.157 172.519 527.007 172.419 526.834 172.346C526.661 172.273 526.465 172.236 526.246 172.236C526.032 172.236 525.838 172.273 525.665 172.346C525.496 172.414 525.35 172.512 525.227 172.64C525.109 172.767 525.018 172.924 524.954 173.111C524.89 173.298 524.858 173.506 524.858 173.733C524.858 173.957 524.89 174.162 524.954 174.349C525.018 174.531 525.113 174.686 525.241 174.813C525.364 174.946 525.512 175.048 525.685 175.121C525.858 175.194 526.052 175.23 526.266 175.23C526.481 175.23 526.674 175.194 526.847 175.121C527.021 175.048 527.169 174.946 527.292 174.813C527.415 174.686 527.51 174.531 527.579 174.349C527.647 174.162 527.681 173.957 527.681 173.733ZM531.397 183.844V173.604H532.901L532.962 174.362C533.063 174.239 533.172 174.128 533.29 174.027C533.409 173.927 533.536 173.84 533.673 173.768C533.851 173.672 534.047 173.599 534.261 173.549C534.475 173.494 534.703 173.467 534.945 173.467C535.419 173.467 535.836 173.558 536.196 173.74C536.56 173.923 536.866 174.18 537.112 174.513C537.353 174.845 537.538 175.244 537.665 175.709C537.793 176.169 537.857 176.677 537.857 177.233V177.377C537.857 177.91 537.793 178.407 537.665 178.867C537.542 179.327 537.358 179.724 537.112 180.057C536.866 180.394 536.563 180.658 536.203 180.85C535.842 181.041 535.43 181.137 534.965 181.137C534.701 181.137 534.457 181.109 534.234 181.055C534.015 181 533.812 180.92 533.625 180.815C533.516 180.752 533.411 180.679 533.311 180.597C533.211 180.515 533.117 180.426 533.031 180.33V183.844H531.397ZM536.223 177.233C536.223 176.901 536.189 176.589 536.12 176.297C536.057 176.001 535.956 175.743 535.82 175.524C535.678 175.306 535.498 175.132 535.28 175.005C535.061 174.877 534.799 174.813 534.494 174.813C534.325 174.813 534.168 174.832 534.022 174.868C533.876 174.905 533.746 174.957 533.632 175.025C533.5 175.098 533.384 175.189 533.284 175.299C533.188 175.408 533.104 175.531 533.031 175.668V178.956C533.094 179.084 533.172 179.2 533.263 179.305C533.354 179.41 533.459 179.501 533.578 179.578C533.701 179.651 533.84 179.71 533.994 179.756C534.149 179.797 534.32 179.817 534.507 179.817C534.813 179.817 535.072 179.754 535.286 179.626C535.505 179.494 535.683 179.316 535.82 179.093C535.961 178.865 536.064 178.605 536.127 178.313C536.191 178.017 536.223 177.705 536.223 177.377V177.233ZM542.898 176.092L544.669 173.604H546.48L543.883 177.247L546.562 181H544.758L542.912 178.416L541.073 181H539.262L541.941 177.247L539.351 173.604H541.148L542.898 176.092Z" fill="#E8178A"/>
<g clip-path="url(#clip7_2129_36624)">
<rect x="574" y="148" width="8" height="32" fill="#E8178A" fill-opacity="0.24"/>
</g>
<g clip-path="url(#clip8_2129_36624)">
<line x1="598.5" y1="140" x2="598.5" y2="125" stroke="#E8178A"/>
<line x1="598" y1="132.5" x2="614" y2="132.5" stroke="#E8178A"/>
<line x1="613.5" y1="140" x2="613.5" y2="125" stroke="#E8178A"/>
</g>
<path d="M596.876 118H595.229V110.07L592.679 111.007V109.564L596.773 108.047H596.876V118ZM605.602 107.999V109.387H605.493C604.951 109.387 604.479 109.462 604.078 109.612C603.681 109.758 603.346 109.963 603.073 110.228C602.795 110.492 602.578 110.809 602.424 111.178C602.273 111.547 602.18 111.943 602.143 112.367C602.253 112.244 602.38 112.126 602.526 112.012C602.672 111.893 602.834 111.788 603.011 111.697C603.18 111.611 603.367 111.542 603.572 111.492C603.777 111.438 603.994 111.41 604.221 111.41C604.704 111.41 605.124 111.501 605.479 111.684C605.839 111.866 606.135 112.112 606.368 112.422C606.605 112.732 606.778 113.087 606.887 113.488C607.001 113.889 607.058 114.306 607.058 114.739C607.058 115.213 606.985 115.658 606.84 116.072C606.698 116.482 606.491 116.84 606.217 117.146C605.939 117.455 605.6 117.699 605.199 117.877C604.802 118.05 604.349 118.137 603.839 118.137C603.314 118.137 602.847 118.036 602.437 117.836C602.027 117.635 601.681 117.364 601.398 117.022C601.097 116.667 600.869 116.25 600.715 115.771C600.56 115.288 600.482 114.78 600.482 114.247V113.57C600.482 112.768 600.585 112.005 600.79 111.28C600.999 110.551 601.346 109.924 601.829 109.4C602.239 108.949 602.745 108.603 603.346 108.361C603.948 108.12 604.636 107.999 605.411 107.999H605.602ZM603.818 112.736C603.622 112.736 603.435 112.766 603.257 112.825C603.08 112.884 602.916 112.966 602.765 113.071C602.629 113.176 602.506 113.297 602.396 113.434C602.287 113.57 602.196 113.723 602.123 113.892V114.397C602.123 114.794 602.166 115.143 602.253 115.443C602.344 115.744 602.467 115.995 602.622 116.195C602.777 116.396 602.957 116.549 603.162 116.653C603.367 116.758 603.586 116.811 603.818 116.811C604.073 116.811 604.301 116.76 604.502 116.66C604.702 116.555 604.873 116.414 605.014 116.236C605.156 116.054 605.263 115.84 605.336 115.594C605.409 115.343 605.445 115.072 605.445 114.78C605.445 114.502 605.409 114.24 605.336 113.994C605.267 113.743 605.165 113.525 605.028 113.338C604.891 113.151 604.72 113.005 604.515 112.9C604.315 112.791 604.082 112.736 603.818 112.736ZM609.003 120.844V110.604H610.507L610.569 111.362C610.669 111.239 610.778 111.128 610.897 111.027C611.015 110.927 611.143 110.84 611.28 110.768C611.457 110.672 611.653 110.599 611.867 110.549C612.082 110.494 612.31 110.467 612.551 110.467C613.025 110.467 613.442 110.558 613.802 110.74C614.167 110.923 614.472 111.18 614.718 111.513C614.96 111.845 615.144 112.244 615.272 112.709C615.399 113.169 615.463 113.677 615.463 114.233V114.377C615.463 114.91 615.399 115.407 615.272 115.867C615.149 116.327 614.964 116.724 614.718 117.057C614.472 117.394 614.169 117.658 613.809 117.85C613.449 118.041 613.036 118.137 612.572 118.137C612.307 118.137 612.063 118.109 611.84 118.055C611.621 118 611.419 117.92 611.232 117.815C611.122 117.752 611.018 117.679 610.917 117.597C610.817 117.515 610.724 117.426 610.637 117.33V120.844H609.003ZM613.829 114.233C613.829 113.901 613.795 113.589 613.727 113.297C613.663 113.001 613.563 112.743 613.426 112.524C613.285 112.306 613.105 112.132 612.886 112.005C612.667 111.877 612.405 111.813 612.1 111.813C611.931 111.813 611.774 111.832 611.628 111.868C611.482 111.905 611.353 111.957 611.239 112.025C611.106 112.098 610.99 112.189 610.89 112.299C610.794 112.408 610.71 112.531 610.637 112.668V115.956C610.701 116.084 610.778 116.2 610.869 116.305C610.961 116.41 611.065 116.501 611.184 116.578C611.307 116.651 611.446 116.71 611.601 116.756C611.756 116.797 611.927 116.817 612.114 116.817C612.419 116.817 612.679 116.754 612.893 116.626C613.112 116.494 613.289 116.316 613.426 116.093C613.567 115.865 613.67 115.605 613.734 115.313C613.798 115.017 613.829 114.705 613.829 114.377V114.233ZM620.505 113.092L622.275 110.604H624.087L621.489 114.247L624.169 118H622.364L620.519 115.416L618.68 118H616.868L619.548 114.247L616.957 110.604H618.755L620.505 113.092Z" fill="#E8178A"/>
<g clip-path="url(#clip9_2129_36624)">
<line x1="734" y1="156.5" x2="749" y2="156.5" stroke="#E8178A"/>
<line x1="741.5" y1="173" x2="741.5" y2="157" stroke="#E8178A"/>
<line x1="734" y1="171.5" x2="749" y2="171.5" stroke="#E8178A"/>
</g>
<path d="M758.482 169H756.835V161.07L754.285 162.007V160.564L758.38 159.047H758.482V169ZM767.209 158.999V160.387H767.099C766.557 160.387 766.085 160.462 765.684 160.612C765.288 160.758 764.953 160.963 764.679 161.228C764.401 161.492 764.185 161.809 764.03 162.178C763.88 162.547 763.786 162.943 763.75 163.367C763.859 163.244 763.987 163.126 764.132 163.012C764.278 162.893 764.44 162.788 764.618 162.697C764.786 162.611 764.973 162.542 765.178 162.492C765.383 162.438 765.6 162.41 765.828 162.41C766.311 162.41 766.73 162.501 767.086 162.684C767.446 162.866 767.742 163.112 767.974 163.422C768.211 163.732 768.384 164.087 768.494 164.488C768.608 164.889 768.665 165.306 768.665 165.739C768.665 166.213 768.592 166.658 768.446 167.072C768.305 167.482 768.097 167.84 767.824 168.146C767.546 168.455 767.206 168.699 766.805 168.877C766.409 169.05 765.955 169.137 765.445 169.137C764.921 169.137 764.454 169.036 764.044 168.836C763.633 168.635 763.287 168.364 763.005 168.022C762.704 167.667 762.476 167.25 762.321 166.771C762.166 166.288 762.089 165.78 762.089 165.247V164.57C762.089 163.768 762.191 163.005 762.396 162.28C762.606 161.551 762.952 160.924 763.435 160.4C763.845 159.949 764.351 159.603 764.953 159.361C765.554 159.12 766.242 158.999 767.017 158.999H767.209ZM765.424 163.736C765.228 163.736 765.042 163.766 764.864 163.825C764.686 163.884 764.522 163.966 764.372 164.071C764.235 164.176 764.112 164.297 764.003 164.434C763.893 164.57 763.802 164.723 763.729 164.892V165.397C763.729 165.794 763.772 166.143 763.859 166.443C763.95 166.744 764.073 166.995 764.228 167.195C764.383 167.396 764.563 167.549 764.768 167.653C764.973 167.758 765.192 167.811 765.424 167.811C765.68 167.811 765.908 167.76 766.108 167.66C766.309 167.555 766.479 167.414 766.621 167.236C766.762 167.054 766.869 166.84 766.942 166.594C767.015 166.343 767.051 166.072 767.051 165.78C767.051 165.502 767.015 165.24 766.942 164.994C766.874 164.743 766.771 164.525 766.634 164.338C766.498 164.151 766.327 164.005 766.122 163.9C765.921 163.791 765.689 163.736 765.424 163.736ZM770.61 171.844V161.604H772.114L772.175 162.362C772.275 162.239 772.385 162.128 772.503 162.027C772.622 161.927 772.749 161.84 772.886 161.768C773.064 161.672 773.26 161.599 773.474 161.549C773.688 161.494 773.916 161.467 774.157 161.467C774.631 161.467 775.048 161.558 775.408 161.74C775.773 161.923 776.078 162.18 776.324 162.513C776.566 162.845 776.751 163.244 776.878 163.709C777.006 164.169 777.07 164.677 777.07 165.233V165.377C777.07 165.91 777.006 166.407 776.878 166.867C776.755 167.327 776.571 167.724 776.324 168.057C776.078 168.394 775.775 168.658 775.415 168.85C775.055 169.041 774.643 169.137 774.178 169.137C773.914 169.137 773.67 169.109 773.447 169.055C773.228 169 773.025 168.92 772.838 168.815C772.729 168.752 772.624 168.679 772.524 168.597C772.423 168.515 772.33 168.426 772.243 168.33V171.844H770.61ZM775.436 165.233C775.436 164.901 775.402 164.589 775.333 164.297C775.269 164.001 775.169 163.743 775.032 163.524C774.891 163.306 774.711 163.132 774.492 163.005C774.274 162.877 774.012 162.813 773.706 162.813C773.538 162.813 773.38 162.832 773.235 162.868C773.089 162.905 772.959 162.957 772.845 163.025C772.713 163.098 772.597 163.189 772.496 163.299C772.401 163.408 772.316 163.531 772.243 163.668V166.956C772.307 167.084 772.385 167.2 772.476 167.305C772.567 167.41 772.672 167.501 772.79 167.578C772.913 167.651 773.052 167.71 773.207 167.756C773.362 167.797 773.533 167.817 773.72 167.817C774.025 167.817 774.285 167.754 774.499 167.626C774.718 167.494 774.896 167.316 775.032 167.093C775.174 166.865 775.276 166.605 775.34 166.313C775.404 166.017 775.436 165.705 775.436 165.377V165.233ZM782.111 164.092L783.882 161.604H785.693L783.096 165.247L785.775 169H783.971L782.125 166.416L780.286 169H778.475L781.154 165.247L778.563 161.604H780.361L782.111 164.092Z" fill="#E8178A"/>
<defs>
<clipPath id="clip0_2129_36624">
<rect width="16" height="32" fill="white" transform="translate(598 148)"/>
</clipPath>
<clipPath id="clip1_2129_36624">
<rect x="574" y="148" width="160" height="32" rx="16" fill="white"/>
</clipPath>
<clipPath id="clip2_2129_36624">
<rect width="8" height="15" fill="white" transform="translate(574 125)"/>
</clipPath>
<clipPath id="clip3_2129_36624">
<rect width="15" height="8" fill="white" transform="translate(551 148)"/>
</clipPath>
<clipPath id="clip4_2129_36624">
<rect width="160" height="8" fill="white" transform="translate(574 148)"/>
</clipPath>
<clipPath id="clip5_2129_36624">
<rect width="160" height="8" fill="white" transform="translate(574 172)"/>
</clipPath>
<clipPath id="clip6_2129_36624">
<rect width="15" height="8" fill="white" transform="translate(551 172)"/>
</clipPath>
<clipPath id="clip7_2129_36624">
<rect width="8" height="32" fill="white" transform="translate(574 148)"/>
</clipPath>
<clipPath id="clip8_2129_36624">
<rect width="16" height="15" fill="white" transform="translate(598 125)"/>
</clipPath>
<clipPath id="clip9_2129_36624">
<rect width="15" height="16" fill="white" transform="translate(734 156)"/>
</clipPath>
</defs>
</svg>
