<svg width="1300" height="62" viewBox="0 0 1300 62" fill="none" xmlns="http://www.w3.org/2000/svg">
<mask id="path-1-inside-1_2129_32234" fill="white">
<path d="M0 0H346.333V62H0V0Z"/>
</mask>
<path d="M0 0H346.333V62H0V0Z" fill="#1A1A1A"/>
<path d="M346.333 62V63H347.333V62H346.333ZM345.333 0V62H347.333V0H345.333ZM346.333 61H0V63H346.333V61Z" fill="#707070" mask="url(#path-1-inside-1_2129_32234)"/>
<mask id="path-3-inside-2_2129_32234" fill="white">
<path d="M346.333 0H692.667V62H346.333V0Z"/>
</mask>
<path d="M346.333 0H692.667V62H346.333V0Z" fill="#1A1A1A"/>
<path d="M692.667 62V63H693.667V62H692.667ZM691.667 0V62H693.667V0H691.667ZM692.667 61H346.333V63H692.667V61Z" fill="#707070" mask="url(#path-3-inside-2_2129_32234)"/>
<path d="M390.367 30.7273C390.367 32.2614 390.09 33.5871 389.536 34.7045C388.983 35.822 388.223 36.6837 387.257 37.2898C386.291 37.8958 385.188 38.1989 383.947 38.1989C382.706 38.1989 381.603 37.8958 380.637 37.2898C379.671 36.6837 378.911 35.822 378.358 34.7045C377.804 33.5871 377.527 32.2614 377.527 30.7273C377.527 29.1932 377.804 27.8674 378.358 26.75C378.911 25.6326 379.671 24.7708 380.637 24.1648C381.603 23.5587 382.706 23.2557 383.947 23.2557C385.188 23.2557 386.291 23.5587 387.257 24.1648C388.223 24.7708 388.983 25.6326 389.536 26.75C390.09 27.8674 390.367 29.1932 390.367 30.7273ZM388.663 30.7273C388.663 29.4678 388.452 28.4048 388.031 27.5384C387.614 26.6719 387.048 26.0161 386.333 25.571C385.623 25.1259 384.828 24.9034 383.947 24.9034C383.066 24.9034 382.269 25.1259 381.554 25.571C380.843 26.0161 380.278 26.6719 379.856 27.5384C379.439 28.4048 379.231 29.4678 379.231 30.7273C379.231 31.9867 379.439 33.0497 379.856 33.9162C380.278 34.7827 380.843 35.4384 381.554 35.8835C382.269 36.3286 383.066 36.5511 383.947 36.5511C384.828 36.5511 385.623 36.3286 386.333 35.8835C387.048 35.4384 387.614 34.7827 388.031 33.9162C388.452 33.0497 388.663 31.9867 388.663 30.7273ZM399.977 33.5398V27.0909H401.653V38H399.977V36.1534H399.863C399.608 36.7074 399.21 37.1785 398.67 37.5668C398.13 37.9503 397.448 38.142 396.625 38.142C395.943 38.142 395.337 37.9929 394.806 37.6946C394.276 37.3916 393.859 36.937 393.556 36.331C393.253 35.7202 393.102 34.9508 393.102 34.0227V27.0909H394.778V33.9091C394.778 34.7045 395.001 35.339 395.446 35.8125C395.895 36.286 396.468 36.5227 397.164 36.5227C397.581 36.5227 398.005 36.4162 398.436 36.2031C398.871 35.9901 399.236 35.6634 399.529 35.223C399.828 34.7827 399.977 34.2216 399.977 33.5398ZM409.467 27.0909V28.5114H403.814V27.0909H409.467ZM405.462 24.4773H407.138V34.875C407.138 35.3485 407.206 35.7036 407.344 35.9403C407.486 36.1723 407.666 36.3286 407.883 36.4091C408.106 36.4848 408.34 36.5227 408.587 36.5227C408.771 36.5227 408.923 36.5133 409.041 36.4943C409.159 36.4706 409.254 36.4517 409.325 36.4375L409.666 37.9432C409.552 37.9858 409.394 38.0284 409.19 38.071C408.987 38.1184 408.729 38.142 408.416 38.142C407.943 38.142 407.479 38.0402 407.024 37.8366C406.574 37.633 406.2 37.3229 405.902 36.9062C405.608 36.4896 405.462 35.964 405.462 35.3295V24.4773ZM413.899 23.4545V38H412.223V23.4545H413.899ZM416.969 38V27.0909H418.645V38H416.969ZM417.821 25.2727C417.495 25.2727 417.213 25.1615 416.976 24.9389C416.744 24.7164 416.628 24.4489 416.628 24.1364C416.628 23.8239 416.744 23.5563 416.976 23.3338C417.213 23.1113 417.495 23 417.821 23C418.148 23 418.427 23.1113 418.659 23.3338C418.896 23.5563 419.014 23.8239 419.014 24.1364C419.014 24.4489 418.896 24.7164 418.659 24.9389C418.427 25.1615 418.148 25.2727 417.821 25.2727ZM423.391 31.4375V38H421.715V27.0909H423.334V28.7955H423.476C423.732 28.2415 424.12 27.7964 424.641 27.4602C425.162 27.1193 425.834 26.9489 426.658 26.9489C427.397 26.9489 428.043 27.1004 428.597 27.4034C429.151 27.7017 429.582 28.1562 429.89 28.767C430.198 29.3731 430.351 30.1402 430.351 31.0682V38H428.675V31.1818C428.675 30.3248 428.453 29.6572 428.008 29.179C427.563 28.696 426.952 28.4545 426.175 28.4545C425.64 28.4545 425.162 28.5705 424.741 28.8026C424.324 29.0346 423.995 29.3731 423.753 29.8182C423.512 30.2633 423.391 30.803 423.391 31.4375ZM437.988 38.2273C436.937 38.2273 436.03 37.9953 435.268 37.5312C434.51 37.0625 433.926 36.4091 433.514 35.571C433.107 34.7282 432.903 33.7481 432.903 32.6307C432.903 31.5133 433.107 30.5284 433.514 29.6761C433.926 28.8191 434.499 28.1515 435.233 27.6733C435.971 27.1903 436.833 26.9489 437.818 26.9489C438.386 26.9489 438.947 27.0436 439.501 27.233C440.055 27.4223 440.559 27.7301 441.014 28.1562C441.468 28.5777 441.831 29.1364 442.1 29.8324C442.37 30.5284 442.505 31.3854 442.505 32.4034V33.1136H434.096V31.6648H440.801C440.801 31.0492 440.678 30.5 440.431 30.017C440.19 29.5341 439.844 29.1529 439.394 28.8736C438.949 28.5942 438.424 28.4545 437.818 28.4545C437.15 28.4545 436.572 28.6203 436.085 28.9517C435.602 29.2784 435.23 29.7045 434.97 30.2301C434.709 30.7557 434.579 31.3191 434.579 31.9205V32.8864C434.579 33.7102 434.721 34.4086 435.005 34.9815C435.294 35.5497 435.694 35.983 436.206 36.2812C436.717 36.5748 437.311 36.7216 437.988 36.7216C438.429 36.7216 438.826 36.66 439.181 36.5369C439.541 36.4091 439.851 36.2197 440.112 35.9688C440.372 35.7131 440.573 35.3958 440.715 35.017L442.335 35.4716C442.164 36.0208 441.878 36.5038 441.475 36.9205C441.073 37.3324 440.576 37.6544 439.984 37.8864C439.392 38.1136 438.727 38.2273 437.988 38.2273Z" fill="white" fill-opacity="0.95"/>
<mask id="path-6-inside-3_2129_32234" fill="white">
<path d="M692.667 0H953.667V62H692.667V0Z"/>
</mask>
<path d="M692.667 0H953.667V62H692.667V0Z" fill="#1A1A1A"/>
<path d="M953.667 62V63H954.667V62H953.667ZM952.667 0V62H954.667V0H952.667ZM953.667 61H692.667V63H953.667V61Z" fill="#707070" mask="url(#path-6-inside-3_2129_32234)"/>
<path d="M736.133 28H734.371C734.267 27.4934 734.085 27.0483 733.824 26.6648C733.569 26.2812 733.256 25.9593 732.887 25.6989C732.522 25.4337 732.117 25.2348 731.672 25.1023C731.227 24.9697 730.763 24.9034 730.28 24.9034C729.4 24.9034 728.602 25.1259 727.887 25.571C727.177 26.0161 726.611 26.6719 726.189 27.5384C725.773 28.4048 725.564 29.4678 725.564 30.7273C725.564 31.9867 725.773 33.0497 726.189 33.9162C726.611 34.7827 727.177 35.4384 727.887 35.8835C728.602 36.3286 729.4 36.5511 730.28 36.5511C730.763 36.5511 731.227 36.4848 731.672 36.3523C732.117 36.2197 732.522 36.0232 732.887 35.7628C733.256 35.4976 733.569 35.1733 733.824 34.7898C734.085 34.4015 734.267 33.9564 734.371 33.4545H736.133C736 34.1979 735.758 34.8632 735.408 35.4503C735.058 36.0374 734.622 36.5369 734.101 36.9489C733.58 37.3561 732.996 37.6662 732.347 37.8793C731.703 38.0923 731.014 38.1989 730.28 38.1989C729.04 38.1989 727.937 37.8958 726.971 37.2898C726.005 36.6837 725.245 35.822 724.691 34.7045C724.137 33.5871 723.86 32.2614 723.86 30.7273C723.86 29.1932 724.137 27.8674 724.691 26.75C725.245 25.6326 726.005 24.7708 726.971 24.1648C727.937 23.5587 729.04 23.2557 730.28 23.2557C731.014 23.2557 731.703 23.3622 732.347 23.5753C732.996 23.7884 733.58 24.1009 734.101 24.5128C734.622 24.92 735.058 25.4171 735.408 26.0043C735.758 26.5866 736 27.2519 736.133 28ZM743.183 38.2273C742.198 38.2273 741.334 37.9929 740.591 37.5241C739.852 37.0554 739.275 36.3996 738.858 35.5568C738.446 34.714 738.24 33.7292 738.24 32.6023C738.24 31.4659 738.446 30.474 738.858 29.6264C739.275 28.7789 739.852 28.1207 740.591 27.652C741.334 27.1832 742.198 26.9489 743.183 26.9489C744.168 26.9489 745.03 27.1832 745.769 27.652C746.512 28.1207 747.09 28.7789 747.501 29.6264C747.918 30.474 748.126 31.4659 748.126 32.6023C748.126 33.7292 747.918 34.714 747.501 35.5568C747.09 36.3996 746.512 37.0554 745.769 37.5241C745.03 37.9929 744.168 38.2273 743.183 38.2273ZM743.183 36.7216C743.931 36.7216 744.547 36.5298 745.03 36.1463C745.513 35.7628 745.87 35.2585 746.102 34.6335C746.334 34.0085 746.45 33.3314 746.45 32.6023C746.45 31.8731 746.334 31.1937 746.102 30.5639C745.87 29.9342 745.513 29.4252 745.03 29.0369C744.547 28.6487 743.931 28.4545 743.183 28.4545C742.435 28.4545 741.82 28.6487 741.337 29.0369C740.854 29.4252 740.496 29.9342 740.264 30.5639C740.032 31.1937 739.916 31.8731 739.916 32.6023C739.916 33.3314 740.032 34.0085 740.264 34.6335C740.496 35.2585 740.854 35.7628 741.337 36.1463C741.82 36.5298 742.435 36.7216 743.183 36.7216ZM752.361 23.4545V38H750.685V23.4545H752.361ZM759.863 38.2273C758.878 38.2273 758.014 37.9929 757.271 37.5241C756.532 37.0554 755.954 36.3996 755.538 35.5568C755.126 34.714 754.92 33.7292 754.92 32.6023C754.92 31.4659 755.126 30.474 755.538 29.6264C755.954 28.7789 756.532 28.1207 757.271 27.652C758.014 27.1832 758.878 26.9489 759.863 26.9489C760.848 26.9489 761.71 27.1832 762.448 27.652C763.192 28.1207 763.769 28.7789 764.181 29.6264C764.598 30.474 764.806 31.4659 764.806 32.6023C764.806 33.7292 764.598 34.714 764.181 35.5568C763.769 36.3996 763.192 37.0554 762.448 37.5241C761.71 37.9929 760.848 38.2273 759.863 38.2273ZM759.863 36.7216C760.611 36.7216 761.227 36.5298 761.71 36.1463C762.193 35.7628 762.55 35.2585 762.782 34.6335C763.014 34.0085 763.13 33.3314 763.13 32.6023C763.13 31.8731 763.014 31.1937 762.782 30.5639C762.55 29.9342 762.193 29.4252 761.71 29.0369C761.227 28.6487 760.611 28.4545 759.863 28.4545C759.115 28.4545 758.499 28.6487 758.016 29.0369C757.533 29.4252 757.176 29.9342 756.944 30.5639C756.712 31.1937 756.596 31.8731 756.596 32.6023C756.596 33.3314 756.712 34.0085 756.944 34.6335C757.176 35.2585 757.533 35.7628 758.016 36.1463C758.499 36.5298 759.115 36.7216 759.863 36.7216ZM767.365 38V27.0909H768.984V28.7386H769.098C769.297 28.1989 769.656 27.7609 770.177 27.4247C770.698 27.0885 771.285 26.9205 771.939 26.9205C772.062 26.9205 772.216 26.9228 772.4 26.9276C772.585 26.9323 772.725 26.9394 772.819 26.9489V28.6534C772.763 28.6392 772.632 28.6179 772.429 28.5895C772.23 28.5563 772.019 28.5398 771.797 28.5398C771.266 28.5398 770.793 28.651 770.376 28.8736C769.964 29.0914 769.638 29.3944 769.396 29.7827C769.159 30.1662 769.041 30.6042 769.041 31.0966V38H767.365Z" fill="white" fill-opacity="0.95"/>
<mask id="path-9-inside-4_2129_32234" fill="white">
<path d="M953.667 0H1300V62H953.667V0Z"/>
</mask>
<path d="M953.667 0H1300V62H953.667V0Z" fill="#1A1A1A"/>
<path d="M1300 61H953.667V63H1300V61Z" fill="#707070" mask="url(#path-9-inside-4_2129_32234)"/>
<path d="M989.393 33.162H990.863C990.751 33.946 990.382 34.576 989.757 35.052C989.187 35.4907 988.492 35.71 987.671 35.71C986.597 35.71 985.743 35.3413 985.109 34.604C984.521 33.9227 984.227 33.0267 984.227 31.916C984.227 30.628 984.581 29.6293 985.291 28.92C985.897 28.3133 986.686 28.01 987.657 28.01C988.553 28.01 989.29 28.248 989.869 28.724C990.382 29.144 990.695 29.6947 990.807 30.376H989.323C989.229 29.984 989.038 29.6807 988.749 29.466C988.469 29.2513 988.114 29.144 987.685 29.144C987.022 29.144 986.513 29.4053 986.159 29.928C985.823 30.4133 985.655 31.09 985.655 31.958C985.655 32.8633 985.879 33.5493 986.327 34.016C986.681 34.3893 987.139 34.576 987.699 34.576C988.184 34.576 988.581 34.436 988.889 34.156C989.159 33.9133 989.327 33.582 989.393 33.162ZM991.978 31.86C991.978 30.5253 992.375 29.5173 993.168 28.836C993.803 28.2853 994.606 28.01 995.576 28.01C996.706 28.01 997.592 28.3693 998.236 29.088C998.852 29.76 999.16 30.684 999.16 31.86C999.16 33.176 998.773 34.1793 997.998 34.87C997.364 35.43 996.552 35.71 995.562 35.71C994.433 35.71 993.542 35.3367 992.888 34.59C992.282 33.9087 991.978 32.9987 991.978 31.86ZM993.378 31.86C993.378 32.7933 993.616 33.5073 994.092 34.002C994.484 34.4127 994.984 34.618 995.59 34.618C996.3 34.618 996.846 34.352 997.228 33.82C997.583 33.3347 997.76 32.6813 997.76 31.86C997.76 30.908 997.527 30.1893 997.06 29.704C996.678 29.3027 996.183 29.102 995.576 29.102C994.876 29.102 994.33 29.368 993.938 29.9C993.565 30.3853 993.378 31.0387 993.378 31.86ZM1002.04 25.42V35.5H1000.7V25.42H1002.04ZM1003.59 31.86C1003.59 30.5253 1003.98 29.5173 1004.78 28.836C1005.41 28.2853 1006.21 28.01 1007.18 28.01C1008.31 28.01 1009.2 28.3693 1009.84 29.088C1010.46 29.76 1010.77 30.684 1010.77 31.86C1010.77 33.176 1010.38 34.1793 1009.61 34.87C1008.97 35.43 1008.16 35.71 1007.17 35.71C1006.04 35.71 1005.15 35.3367 1004.5 34.59C1003.89 33.9087 1003.59 32.9987 1003.59 31.86ZM1004.99 31.86C1004.99 32.7933 1005.22 33.5073 1005.7 34.002C1006.09 34.4127 1006.59 34.618 1007.2 34.618C1007.91 34.618 1008.45 34.352 1008.84 33.82C1009.19 33.3347 1009.37 32.6813 1009.37 31.86C1009.37 30.908 1009.13 30.1893 1008.67 29.704C1008.29 29.3027 1007.79 29.102 1007.18 29.102C1006.48 29.102 1005.94 29.368 1005.55 29.9C1005.17 30.3853 1004.99 31.0387 1004.99 31.86ZM1013.65 35.5H1012.3V28.22H1013.41L1013.59 29.298C1014 28.4393 1014.62 28.01 1015.44 28.01C1015.71 28.01 1015.98 28.0427 1016.24 28.108V29.452C1015.92 29.368 1015.64 29.326 1015.38 29.326C1014.84 29.326 1014.42 29.5453 1014.11 29.984C1013.8 30.4227 1013.65 31.0433 1013.65 31.846V35.5ZM1018.31 35.5H1016.69V33.876H1018.31V35.5ZM1023.4 34.422V35.57C1023.06 35.6633 1022.72 35.71 1022.41 35.71C1021.73 35.71 1021.23 35.5 1020.89 35.08C1020.61 34.7347 1020.46 34.2727 1020.46 33.694V29.368H1019.38V28.22H1020.46L1020.54 26.47H1021.8V28.22H1023.37V29.368H1021.8V33.722C1021.8 34.2633 1022.06 34.534 1022.57 34.534C1022.82 34.534 1023.09 34.4967 1023.4 34.422ZM1026.01 35.5H1024.66V25.42H1026.01V29.046C1026.54 28.3553 1027.25 28.01 1028.14 28.01C1028.99 28.01 1029.65 28.276 1030.11 28.808C1030.51 29.284 1030.71 29.9327 1030.71 30.754V35.5H1029.37V30.768C1029.37 29.6947 1028.85 29.158 1027.81 29.158C1027.26 29.158 1026.82 29.3493 1026.47 29.732C1026.16 30.0773 1026.01 30.5207 1026.01 31.062V35.5ZM1037.56 33.4H1039.02C1038.81 34.1373 1038.41 34.716 1037.8 35.136C1037.23 35.5187 1036.55 35.71 1035.76 35.71C1034.61 35.71 1033.71 35.346 1033.07 34.618C1032.48 33.9367 1032.19 33.0173 1032.19 31.86C1032.19 30.544 1032.56 29.5453 1033.31 28.864C1033.92 28.2947 1034.72 28.01 1035.69 28.01C1036.83 28.01 1037.68 28.3787 1038.26 29.116C1038.82 29.8253 1039.1 30.838 1039.1 32.154H1033.56C1033.62 33.0127 1033.88 33.652 1034.34 34.072C1034.73 34.408 1035.21 34.576 1035.8 34.576C1036.26 34.576 1036.65 34.45 1036.99 34.198C1037.27 33.9833 1037.46 33.7173 1037.56 33.4ZM1035.72 29.088C1035.12 29.088 1034.64 29.2747 1034.27 29.648C1033.93 29.9933 1033.71 30.474 1033.62 31.09H1037.73C1037.68 30.39 1037.45 29.8673 1037.03 29.522C1036.7 29.2327 1036.26 29.088 1035.72 29.088ZM1042.06 35.5H1040.71V28.22H1041.82L1041.96 29.074C1042.46 28.3647 1043.17 28.01 1044.1 28.01C1045.12 28.01 1045.83 28.3927 1046.24 29.158C1046.73 28.3927 1047.52 28.01 1048.61 28.01C1049.42 28.01 1050.05 28.2573 1050.49 28.752C1050.88 29.2093 1051.07 29.8347 1051.07 30.628V35.5H1049.73V30.726C1049.73 29.6807 1049.26 29.158 1048.32 29.158C1047.76 29.158 1047.31 29.3773 1046.97 29.816C1046.7 30.1707 1046.57 30.586 1046.57 31.062V35.5H1045.22V30.726C1045.22 29.6807 1044.75 29.158 1043.81 29.158C1043.29 29.158 1042.85 29.3633 1042.51 29.774C1042.21 30.1193 1042.06 30.5347 1042.06 31.02V35.5ZM1057.92 33.4H1059.38C1059.17 34.1373 1058.77 34.716 1058.16 35.136C1057.59 35.5187 1056.91 35.71 1056.11 35.71C1054.97 35.71 1054.07 35.346 1053.43 34.618C1052.84 33.9367 1052.54 33.0173 1052.54 31.86C1052.54 30.544 1052.92 29.5453 1053.66 28.864C1054.28 28.2947 1055.07 28.01 1056.04 28.01C1057.18 28.01 1058.04 28.3787 1058.62 29.116C1059.18 29.8253 1059.46 30.838 1059.46 32.154H1053.92C1053.97 33.0127 1054.23 33.652 1054.7 34.072C1055.08 34.408 1055.57 34.576 1056.16 34.576C1056.61 34.576 1057.01 34.45 1057.35 34.198C1057.63 33.9833 1057.82 33.7173 1057.92 33.4ZM1056.07 29.088C1055.48 29.088 1054.99 29.2747 1054.63 29.648C1054.29 29.9933 1054.07 30.474 1053.97 31.09H1058.09C1058.04 30.39 1057.81 29.8673 1057.39 29.522C1057.05 29.2327 1056.61 29.088 1056.07 29.088ZM1063 35.5H1061.38V33.876H1063V35.5ZM1066.38 35.5H1065.27V25.42H1066.61V29.228C1067.18 28.416 1067.99 28.01 1069.05 28.01C1070.09 28.01 1070.91 28.3833 1071.49 29.13C1072 29.802 1072.26 30.6933 1072.26 31.804C1072.26 33.12 1071.91 34.128 1071.21 34.828C1070.62 35.416 1069.87 35.71 1068.95 35.71C1067.92 35.71 1067.13 35.318 1066.59 34.534L1066.38 35.5ZM1070.86 31.776C1070.86 30.8613 1070.63 30.1753 1070.17 29.718C1069.81 29.3447 1069.33 29.158 1068.74 29.158C1068.06 29.158 1067.52 29.4053 1067.12 29.9C1066.73 30.376 1066.54 31.0013 1066.54 31.776C1066.54 32.7093 1066.77 33.4233 1067.23 33.918C1067.61 34.3473 1068.12 34.562 1068.74 34.562C1069.44 34.562 1069.97 34.3053 1070.34 33.792C1070.68 33.316 1070.86 32.644 1070.86 31.776ZM1073.38 31.86C1073.38 30.5253 1073.78 29.5173 1074.57 28.836C1075.21 28.2853 1076.01 28.01 1076.98 28.01C1078.11 28.01 1078.99 28.3693 1079.64 29.088C1080.25 29.76 1080.56 30.684 1080.56 31.86C1080.56 33.176 1080.18 34.1793 1079.4 34.87C1078.77 35.43 1077.95 35.71 1076.96 35.71C1075.84 35.71 1074.94 35.3367 1074.29 34.59C1073.68 33.9087 1073.38 32.9987 1073.38 31.86ZM1074.78 31.86C1074.78 32.7933 1075.02 33.5073 1075.49 34.002C1075.89 34.4127 1076.39 34.618 1076.99 34.618C1077.7 34.618 1078.25 34.352 1078.63 33.82C1078.99 33.3347 1079.16 32.6813 1079.16 31.86C1079.16 30.908 1078.93 30.1893 1078.46 29.704C1078.08 29.3027 1077.59 29.102 1076.98 29.102C1076.28 29.102 1075.73 29.368 1075.34 29.9C1074.97 30.3853 1074.78 31.0387 1074.78 31.86ZM1083.44 35.5H1082.1V28.22H1083.21L1083.39 29.298C1083.8 28.4393 1084.41 28.01 1085.24 28.01C1085.51 28.01 1085.77 28.0427 1086.03 28.108V29.452C1085.72 29.368 1085.43 29.326 1085.18 29.326C1084.64 29.326 1084.21 29.5453 1083.91 29.984C1083.6 30.4227 1083.44 31.0433 1083.44 31.846V35.5ZM1093.52 35.5H1092.41L1092.18 34.478C1091.62 35.2993 1090.81 35.71 1089.75 35.71C1088.74 35.71 1087.93 35.3413 1087.35 34.604C1086.8 33.9227 1086.53 33.022 1086.53 31.902C1086.53 30.5487 1086.88 29.5313 1087.57 28.85C1088.15 28.29 1088.9 28.01 1089.84 28.01C1090.85 28.01 1091.62 28.388 1092.18 29.144V25.42H1093.52V35.5ZM1087.93 31.93C1087.93 32.8353 1088.16 33.5213 1088.61 33.988C1088.98 34.3707 1089.46 34.562 1090.05 34.562C1090.78 34.562 1091.34 34.2867 1091.74 33.736C1092.08 33.26 1092.25 32.6627 1092.25 31.944C1092.25 31.0013 1092.02 30.2827 1091.57 29.788C1091.19 29.368 1090.68 29.158 1090.05 29.158C1089.34 29.158 1088.8 29.4147 1088.44 29.928C1088.1 30.3947 1087.93 31.062 1087.93 31.93ZM1100.44 33.4H1101.9C1101.69 34.1373 1101.29 34.716 1100.68 35.136C1100.11 35.5187 1099.43 35.71 1098.63 35.71C1097.49 35.71 1096.59 35.346 1095.95 34.618C1095.36 33.9367 1095.06 33.0173 1095.06 31.86C1095.06 30.544 1095.44 29.5453 1096.18 28.864C1096.8 28.2947 1097.59 28.01 1098.56 28.01C1099.7 28.01 1100.56 28.3787 1101.14 29.116C1101.7 29.8253 1101.98 30.838 1101.98 32.154H1096.44C1096.49 33.0127 1096.75 33.652 1097.22 34.072C1097.6 34.408 1098.09 34.576 1098.68 34.576C1099.13 34.576 1099.53 34.45 1099.87 34.198C1100.15 33.9833 1100.34 33.7173 1100.44 33.4ZM1098.59 29.088C1098 29.088 1097.51 29.2747 1097.15 29.648C1096.81 29.9933 1096.59 30.474 1096.49 31.09H1100.61C1100.56 30.39 1100.33 29.8673 1099.91 29.522C1099.57 29.2327 1099.13 29.088 1098.59 29.088ZM1104.94 35.5H1103.59V28.22H1104.7L1104.88 29.298C1105.29 28.4393 1105.91 28.01 1106.73 28.01C1107 28.01 1107.26 28.0427 1107.53 28.108V29.452C1107.21 29.368 1106.92 29.326 1106.67 29.326C1106.13 29.326 1105.71 29.5453 1105.4 29.984C1105.09 30.4227 1104.94 31.0433 1104.94 31.846V35.5ZM1109.6 35.5H1107.97V33.876H1109.6V35.5ZM1113.21 35.5H1111.86V28.22H1112.97L1113.12 29.144C1113.66 28.388 1114.4 28.01 1115.34 28.01C1116.19 28.01 1116.85 28.276 1117.31 28.808C1117.71 29.284 1117.91 29.9327 1117.91 30.754V35.5H1116.57V30.768C1116.57 29.6947 1116.05 29.158 1115.01 29.158C1114.47 29.158 1114.03 29.3447 1113.68 29.718C1113.37 30.054 1113.21 30.4833 1113.21 31.006V35.5ZM1124.76 33.4H1126.22C1126.01 34.1373 1125.61 34.716 1125 35.136C1124.43 35.5187 1123.75 35.71 1122.96 35.71C1121.81 35.71 1120.91 35.346 1120.27 34.618C1119.68 33.9367 1119.39 33.0173 1119.39 31.86C1119.39 30.544 1119.76 29.5453 1120.51 28.864C1121.12 28.2947 1121.92 28.01 1122.89 28.01C1124.03 28.01 1124.88 28.3787 1125.46 29.116C1126.02 29.8253 1126.3 30.838 1126.3 32.154H1120.76C1120.81 33.0127 1121.08 33.652 1121.54 34.072C1121.93 34.408 1122.41 34.576 1123 34.576C1123.46 34.576 1123.85 34.45 1124.19 34.198C1124.47 33.9833 1124.66 33.7173 1124.76 33.4ZM1122.91 29.088C1122.32 29.088 1121.84 29.2747 1121.47 29.648C1121.13 29.9933 1120.91 30.474 1120.81 31.09H1124.93C1124.88 30.39 1124.65 29.8673 1124.23 29.522C1123.89 29.2327 1123.46 29.088 1122.91 29.088ZM1127.84 28.22H1129.19V32.994C1129.19 34.0393 1129.69 34.562 1130.7 34.562C1131.32 34.562 1131.79 34.3427 1132.11 33.904C1132.37 33.568 1132.49 33.1527 1132.49 32.658V28.22H1133.84V35.5H1132.73L1132.58 34.66C1132.06 35.36 1131.33 35.71 1130.39 35.71C1129.56 35.71 1128.92 35.4533 1128.47 34.94C1128.05 34.464 1127.84 33.806 1127.84 32.966V28.22ZM1139.05 34.422V35.57C1138.71 35.6633 1138.37 35.71 1138.06 35.71C1137.38 35.71 1136.88 35.5 1136.54 35.08C1136.26 34.7347 1136.11 34.2727 1136.11 33.694V29.368H1135.03V28.22H1136.11L1136.19 26.47H1137.45V28.22H1139.02V29.368H1137.45V33.722C1137.45 34.2633 1137.71 34.534 1138.22 34.534C1138.47 34.534 1138.74 34.4967 1139.05 34.422ZM1141.66 35.5H1140.31V28.22H1141.42L1141.6 29.298C1142.01 28.4393 1142.63 28.01 1143.45 28.01C1143.72 28.01 1143.99 28.0427 1144.25 28.108V29.452C1143.93 29.368 1143.65 29.326 1143.39 29.326C1142.85 29.326 1142.43 29.5453 1142.12 29.984C1141.81 30.4227 1141.66 31.0433 1141.66 31.846V35.5ZM1146.45 30.25H1145.02C1145.1 29.522 1145.44 28.9573 1146.06 28.556C1146.61 28.192 1147.31 28.01 1148.15 28.01C1149.15 28.01 1149.91 28.2713 1150.44 28.794C1150.89 29.242 1151.11 29.8207 1151.11 30.53V35.5H1150.01L1149.84 34.506C1149.27 35.3087 1148.46 35.71 1147.4 35.71C1146.57 35.71 1145.93 35.486 1145.46 35.038C1145.08 34.6647 1144.88 34.1933 1144.88 33.624C1144.88 32.9053 1145.13 32.35 1145.63 31.958C1146.07 31.6127 1146.74 31.3607 1147.64 31.202L1149.77 30.838V30.474C1149.77 29.998 1149.61 29.6387 1149.28 29.396C1148.99 29.1813 1148.59 29.074 1148.09 29.074C1147.1 29.074 1146.56 29.466 1146.45 30.25ZM1147.73 34.576C1148.3 34.576 1148.79 34.3893 1149.21 34.016C1149.58 33.6707 1149.77 33.274 1149.77 32.826V31.888L1147.96 32.21C1147.3 32.322 1146.85 32.4947 1146.61 32.728C1146.41 32.9147 1146.31 33.1667 1146.31 33.484C1146.31 33.8387 1146.43 34.1093 1146.68 34.296C1146.92 34.4827 1147.27 34.576 1147.73 34.576ZM1154.35 25.42V35.5H1153V25.42H1154.35ZM1158.24 35.5H1156.62V33.876H1158.24V35.5ZM1163.73 34.59C1164.49 34.59 1165.05 34.2167 1165.39 33.47C1165.7 32.8167 1165.86 31.8507 1165.86 30.572C1165.86 29.1253 1165.66 28.08 1165.25 27.436C1164.91 26.8853 1164.4 26.61 1163.73 26.61C1162.96 26.61 1162.41 26.974 1162.06 27.702C1161.75 28.346 1161.6 29.3027 1161.6 30.572C1161.6 32.028 1161.8 33.0827 1162.2 33.736C1162.55 34.3053 1163.06 34.59 1163.73 34.59ZM1163.73 35.71C1162.61 35.71 1161.74 35.234 1161.11 34.282C1160.52 33.386 1160.23 32.1493 1160.23 30.572C1160.23 28.7427 1160.61 27.3893 1161.36 26.512C1161.96 25.8307 1162.75 25.49 1163.73 25.49C1164.86 25.49 1165.73 25.9427 1166.35 26.848C1166.93 27.7253 1167.23 28.9667 1167.23 30.572C1167.23 32.3733 1166.85 33.722 1166.09 34.618C1165.49 35.346 1164.7 35.71 1163.73 35.71ZM1172.12 34.59C1172.89 34.59 1173.44 34.2167 1173.79 33.47C1174.1 32.8167 1174.25 31.8507 1174.25 30.572C1174.25 29.1253 1174.05 28.08 1173.65 27.436C1173.3 26.8853 1172.79 26.61 1172.12 26.61C1171.36 26.61 1170.8 26.974 1170.46 27.702C1170.15 28.346 1169.99 29.3027 1169.99 30.572C1169.99 32.028 1170.2 33.0827 1170.6 33.736C1170.94 34.3053 1171.45 34.59 1172.12 34.59ZM1172.12 35.71C1171 35.71 1170.13 35.234 1169.5 34.282C1168.92 33.386 1168.62 32.1493 1168.62 30.572C1168.62 28.7427 1169 27.3893 1169.76 26.512C1170.35 25.8307 1171.14 25.49 1172.12 25.49C1173.25 25.49 1174.12 25.9427 1174.74 26.848C1175.33 27.7253 1175.62 28.9667 1175.62 30.572C1175.62 32.3733 1175.24 33.722 1174.49 34.618C1173.88 35.346 1173.09 35.71 1172.12 35.71Z" fill="white" fill-opacity="0.95"/>
</svg>
