<svg width="1300" height="62" viewBox="0 0 1300 62" fill="none" xmlns="http://www.w3.org/2000/svg">
<mask id="path-1-inside-1_2129_32194" fill="white">
<path d="M0 0H346.333V62H0V0Z"/>
</mask>
<path d="M0 0H346.333V62H0V0Z" fill="#1A1A1A"/>
<path d="M345.333 0V62H347.333V0H345.333Z" fill="#707070" mask="url(#path-1-inside-1_2129_32194)"/>
<mask id="path-3-inside-2_2129_32194" fill="white">
<path d="M346.333 0H692.667V62H346.333V0Z"/>
</mask>
<path d="M346.333 0H692.667V62H346.333V0Z" fill="#1A1A1A"/>
<path d="M692.667 62V63H693.667V62H692.667ZM691.667 0V62H693.667V0H691.667ZM692.667 61H346.333V63H692.667V61Z" fill="#707070" mask="url(#path-3-inside-2_2129_32194)"/>
<path d="M389.799 28H388.038C387.934 27.4934 387.751 27.0483 387.491 26.6648C387.235 26.2812 386.923 25.9593 386.554 25.6989C386.189 25.4337 385.784 25.2348 385.339 25.1023C384.894 24.9697 384.43 24.9034 383.947 24.9034C383.066 24.9034 382.269 25.1259 381.554 25.571C380.843 26.0161 380.278 26.6719 379.856 27.5384C379.439 28.4048 379.231 29.4678 379.231 30.7273C379.231 31.9867 379.439 33.0497 379.856 33.9162C380.278 34.7827 380.843 35.4384 381.554 35.8835C382.269 36.3286 383.066 36.5511 383.947 36.5511C384.43 36.5511 384.894 36.4848 385.339 36.3523C385.784 36.2197 386.189 36.0232 386.554 35.7628C386.923 35.4976 387.235 35.1733 387.491 34.7898C387.751 34.4015 387.934 33.9564 388.038 33.4545H389.799C389.667 34.1979 389.425 34.8632 389.075 35.4503C388.724 36.0374 388.289 36.5369 387.768 36.9489C387.247 37.3561 386.662 37.6662 386.014 37.8793C385.37 38.0923 384.681 38.1989 383.947 38.1989C382.706 38.1989 381.603 37.8958 380.637 37.2898C379.671 36.6837 378.911 35.822 378.358 34.7045C377.804 33.5871 377.527 32.2614 377.527 30.7273C377.527 29.1932 377.804 27.8674 378.358 26.75C378.911 25.6326 379.671 24.7708 380.637 24.1648C381.603 23.5587 382.706 23.2557 383.947 23.2557C384.681 23.2557 385.37 23.3622 386.014 23.5753C386.662 23.7884 387.247 24.1009 387.768 24.5128C388.289 24.92 388.724 25.4171 389.075 26.0043C389.425 26.5866 389.667 27.2519 389.799 28ZM396.85 38.2273C395.865 38.2273 395.001 37.9929 394.258 37.5241C393.519 37.0554 392.941 36.3996 392.525 35.5568C392.113 34.714 391.907 33.7292 391.907 32.6023C391.907 31.4659 392.113 30.474 392.525 29.6264C392.941 28.7789 393.519 28.1207 394.258 27.652C395.001 27.1832 395.865 26.9489 396.85 26.9489C397.835 26.9489 398.697 27.1832 399.435 27.652C400.179 28.1207 400.756 28.7789 401.168 29.6264C401.585 30.474 401.793 31.4659 401.793 32.6023C401.793 33.7292 401.585 34.714 401.168 35.5568C400.756 36.3996 400.179 37.0554 399.435 37.5241C398.697 37.9929 397.835 38.2273 396.85 38.2273ZM396.85 36.7216C397.598 36.7216 398.214 36.5298 398.697 36.1463C399.18 35.7628 399.537 35.2585 399.769 34.6335C400.001 34.0085 400.117 33.3314 400.117 32.6023C400.117 31.8731 400.001 31.1937 399.769 30.5639C399.537 29.9342 399.18 29.4252 398.697 29.0369C398.214 28.6487 397.598 28.4545 396.85 28.4545C396.102 28.4545 395.486 28.6487 395.003 29.0369C394.521 29.4252 394.163 29.9342 393.931 30.5639C393.699 31.1937 393.583 31.8731 393.583 32.6023C393.583 33.3314 393.699 34.0085 393.931 34.6335C394.163 35.2585 394.521 35.7628 395.003 36.1463C395.486 36.5298 396.102 36.7216 396.85 36.7216ZM406.028 31.4375V38H404.352V27.0909H405.971V28.7955H406.113C406.369 28.2415 406.757 27.7964 407.278 27.4602C407.799 27.1193 408.471 26.9489 409.295 26.9489C410.034 26.9489 410.68 27.1004 411.234 27.4034C411.788 27.7017 412.219 28.1562 412.527 28.767C412.834 29.3731 412.988 30.1402 412.988 31.0682V38H411.312V31.1818C411.312 30.3248 411.09 29.6572 410.644 29.179C410.199 28.696 409.589 28.4545 408.812 28.4545C408.277 28.4545 407.799 28.5705 407.377 28.8026C406.961 29.0346 406.632 29.3731 406.39 29.8182C406.149 30.2633 406.028 30.803 406.028 31.4375ZM420.795 27.0909V28.5114H415.142V27.0909H420.795ZM416.79 24.4773H418.466V34.875C418.466 35.3485 418.534 35.7036 418.672 35.9403C418.814 36.1723 418.994 36.3286 419.212 36.4091C419.434 36.4848 419.668 36.5227 419.915 36.5227C420.099 36.5227 420.251 36.5133 420.369 36.4943C420.488 36.4706 420.582 36.4517 420.653 36.4375L420.994 37.9432C420.881 37.9858 420.722 38.0284 420.518 38.071C420.315 38.1184 420.057 38.142 419.744 38.142C419.271 38.142 418.807 38.0402 418.352 37.8366C417.902 37.633 417.528 37.3229 417.23 36.9062C416.936 36.4896 416.79 35.964 416.79 35.3295V24.4773ZM426.527 38.2557C425.836 38.2557 425.208 38.1255 424.645 37.8651C424.081 37.5999 423.634 37.2188 423.302 36.7216C422.971 36.2197 422.805 35.6136 422.805 34.9034C422.805 34.2784 422.928 33.7718 423.175 33.3835C423.421 32.9905 423.75 32.6828 424.162 32.4602C424.574 32.2377 425.028 32.072 425.525 31.9631C426.027 31.8494 426.532 31.7595 427.038 31.6932C427.701 31.608 428.239 31.544 428.65 31.5014C429.067 31.4541 429.37 31.3759 429.56 31.267C429.754 31.1581 429.851 30.9687 429.851 30.6989V30.642C429.851 29.9413 429.659 29.3968 429.275 29.0085C428.897 28.6203 428.321 28.4261 427.55 28.4261C426.749 28.4261 426.122 28.6013 425.668 28.9517C425.213 29.3021 424.893 29.6761 424.709 30.0739L423.118 29.5057C423.402 28.8428 423.781 28.3267 424.254 27.9574C424.732 27.5833 425.253 27.3229 425.817 27.1761C426.385 27.0246 426.944 26.9489 427.493 26.9489C427.843 26.9489 428.246 26.9915 428.7 27.0767C429.159 27.1572 429.602 27.3253 430.028 27.581C430.459 27.8366 430.817 28.2225 431.101 28.7386C431.385 29.2547 431.527 29.946 431.527 30.8125V38H429.851V36.5227H429.766C429.652 36.7595 429.463 37.0128 429.197 37.2827C428.932 37.5526 428.579 37.7822 428.139 37.9716C427.699 38.161 427.161 38.2557 426.527 38.2557ZM426.783 36.75C427.445 36.75 428.004 36.6198 428.459 36.3594C428.918 36.099 429.264 35.7628 429.496 35.3509C429.732 34.9389 429.851 34.5057 429.851 34.0511V32.517C429.78 32.6023 429.624 32.6804 429.382 32.7514C429.145 32.8177 428.871 32.8769 428.558 32.929C428.25 32.9763 427.95 33.0189 427.656 33.0568C427.367 33.09 427.133 33.1184 426.953 33.142C426.517 33.1989 426.11 33.2912 425.731 33.419C425.357 33.5421 425.054 33.7292 424.822 33.9801C424.595 34.2263 424.481 34.5625 424.481 34.9886C424.481 35.571 424.697 36.0114 425.128 36.3097C425.563 36.6032 426.115 36.75 426.783 36.75ZM434.586 38V27.0909H436.262V38H434.586ZM435.438 25.2727C435.112 25.2727 434.83 25.1615 434.593 24.9389C434.361 24.7164 434.245 24.4489 434.245 24.1364C434.245 23.8239 434.361 23.5563 434.593 23.3338C434.83 23.1113 435.112 23 435.438 23C435.765 23 436.045 23.1113 436.277 23.3338C436.513 23.5563 436.632 23.8239 436.632 24.1364C436.632 24.4489 436.513 24.7164 436.277 24.9389C436.045 25.1615 435.765 25.2727 435.438 25.2727ZM441.008 31.4375V38H439.332V27.0909H440.952V28.7955H441.094C441.349 28.2415 441.738 27.7964 442.258 27.4602C442.779 27.1193 443.452 26.9489 444.275 26.9489C445.014 26.9489 445.66 27.1004 446.214 27.4034C446.768 27.7017 447.199 28.1562 447.507 28.767C447.815 29.3731 447.969 30.1402 447.969 31.0682V38H446.293V31.1818C446.293 30.3248 446.07 29.6572 445.625 29.179C445.18 28.696 444.569 28.4545 443.793 28.4545C443.257 28.4545 442.779 28.5705 442.358 28.8026C441.941 29.0346 441.612 29.3731 441.371 29.8182C441.129 30.2633 441.008 30.803 441.008 31.4375ZM455.605 38.2273C454.554 38.2273 453.648 37.9953 452.885 37.5312C452.128 37.0625 451.543 36.4091 451.131 35.571C450.724 34.7282 450.52 33.7481 450.52 32.6307C450.52 31.5133 450.724 30.5284 451.131 29.6761C451.543 28.8191 452.116 28.1515 452.85 27.6733C453.588 27.1903 454.45 26.9489 455.435 26.9489C456.003 26.9489 456.564 27.0436 457.118 27.233C457.672 27.4223 458.176 27.7301 458.631 28.1562C459.086 28.5777 459.448 29.1364 459.718 29.8324C459.987 30.5284 460.122 31.3854 460.122 32.4034V33.1136H451.713V31.6648H458.418C458.418 31.0492 458.295 30.5 458.049 30.017C457.807 29.5341 457.461 29.1529 457.012 28.8736C456.567 28.5942 456.041 28.4545 455.435 28.4545C454.767 28.4545 454.19 28.6203 453.702 28.9517C453.219 29.2784 452.847 29.7045 452.587 30.2301C452.327 30.7557 452.196 31.3191 452.196 31.9205V32.8864C452.196 33.7102 452.338 34.4086 452.622 34.9815C452.911 35.5497 453.311 35.983 453.823 36.2812C454.334 36.5748 454.928 36.7216 455.605 36.7216C456.046 36.7216 456.443 36.66 456.799 36.5369C457.158 36.4091 457.469 36.2197 457.729 35.9688C457.989 35.7131 458.191 35.3958 458.333 35.017L459.952 35.4716C459.782 36.0208 459.495 36.5038 459.093 36.9205C458.69 37.3324 458.193 37.6544 457.601 37.8864C457.009 38.1136 456.344 38.2273 455.605 38.2273ZM462.672 38V27.0909H464.291V28.7386H464.405C464.604 28.1989 464.964 27.7609 465.485 27.4247C466.005 27.0885 466.593 26.9205 467.246 26.9205C467.369 26.9205 467.523 26.9228 467.708 26.9276C467.892 26.9323 468.032 26.9394 468.127 26.9489V28.6534C468.07 28.6392 467.94 28.6179 467.736 28.5895C467.537 28.5563 467.327 28.5398 467.104 28.5398C466.574 28.5398 466.1 28.651 465.684 28.8736C465.272 29.0914 464.945 29.3944 464.703 29.7827C464.467 30.1662 464.348 30.6042 464.348 31.0966V38H462.672Z" fill="white" fill-opacity="0.95"/>
<mask id="path-6-inside-3_2129_32194" fill="white">
<path d="M692.667 0H953.667V62H692.667V0Z"/>
</mask>
<path d="M692.667 0H953.667V62H692.667V0Z" fill="#1A1A1A"/>
<path d="M953.667 62V63H954.667V62H953.667ZM952.667 0V62H954.667V0H952.667ZM953.667 61H692.667V63H953.667V61Z" fill="#707070" mask="url(#path-6-inside-3_2129_32194)"/>
<path d="M736.133 28H734.371C734.267 27.4934 734.085 27.0483 733.824 26.6648C733.569 26.2812 733.256 25.9593 732.887 25.6989C732.522 25.4337 732.117 25.2348 731.672 25.1023C731.227 24.9697 730.763 24.9034 730.28 24.9034C729.4 24.9034 728.602 25.1259 727.887 25.571C727.177 26.0161 726.611 26.6719 726.189 27.5384C725.773 28.4048 725.564 29.4678 725.564 30.7273C725.564 31.9867 725.773 33.0497 726.189 33.9162C726.611 34.7827 727.177 35.4384 727.887 35.8835C728.602 36.3286 729.4 36.5511 730.28 36.5511C730.763 36.5511 731.227 36.4848 731.672 36.3523C732.117 36.2197 732.522 36.0232 732.887 35.7628C733.256 35.4976 733.569 35.1733 733.824 34.7898C734.085 34.4015 734.267 33.9564 734.371 33.4545H736.133C736 34.1979 735.758 34.8632 735.408 35.4503C735.058 36.0374 734.622 36.5369 734.101 36.9489C733.58 37.3561 732.996 37.6662 732.347 37.8793C731.703 38.0923 731.014 38.1989 730.28 38.1989C729.04 38.1989 727.937 37.8958 726.971 37.2898C726.005 36.6837 725.245 35.822 724.691 34.7045C724.137 33.5871 723.86 32.2614 723.86 30.7273C723.86 29.1932 724.137 27.8674 724.691 26.75C725.245 25.6326 726.005 24.7708 726.971 24.1648C727.937 23.5587 729.04 23.2557 730.28 23.2557C731.014 23.2557 731.703 23.3622 732.347 23.5753C732.996 23.7884 733.58 24.1009 734.101 24.5128C734.622 24.92 735.058 25.4171 735.408 26.0043C735.758 26.5866 736 27.2519 736.133 28ZM743.183 38.2273C742.198 38.2273 741.334 37.9929 740.591 37.5241C739.852 37.0554 739.275 36.3996 738.858 35.5568C738.446 34.714 738.24 33.7292 738.24 32.6023C738.24 31.4659 738.446 30.474 738.858 29.6264C739.275 28.7789 739.852 28.1207 740.591 27.652C741.334 27.1832 742.198 26.9489 743.183 26.9489C744.168 26.9489 745.03 27.1832 745.769 27.652C746.512 28.1207 747.09 28.7789 747.501 29.6264C747.918 30.474 748.126 31.4659 748.126 32.6023C748.126 33.7292 747.918 34.714 747.501 35.5568C747.09 36.3996 746.512 37.0554 745.769 37.5241C745.03 37.9929 744.168 38.2273 743.183 38.2273ZM743.183 36.7216C743.931 36.7216 744.547 36.5298 745.03 36.1463C745.513 35.7628 745.87 35.2585 746.102 34.6335C746.334 34.0085 746.45 33.3314 746.45 32.6023C746.45 31.8731 746.334 31.1937 746.102 30.5639C745.87 29.9342 745.513 29.4252 745.03 29.0369C744.547 28.6487 743.931 28.4545 743.183 28.4545C742.435 28.4545 741.82 28.6487 741.337 29.0369C740.854 29.4252 740.496 29.9342 740.264 30.5639C740.032 31.1937 739.916 31.8731 739.916 32.6023C739.916 33.3314 740.032 34.0085 740.264 34.6335C740.496 35.2585 740.854 35.7628 741.337 36.1463C741.82 36.5298 742.435 36.7216 743.183 36.7216ZM752.361 23.4545V38H750.685V23.4545H752.361ZM759.863 38.2273C758.878 38.2273 758.014 37.9929 757.271 37.5241C756.532 37.0554 755.954 36.3996 755.538 35.5568C755.126 34.714 754.92 33.7292 754.92 32.6023C754.92 31.4659 755.126 30.474 755.538 29.6264C755.954 28.7789 756.532 28.1207 757.271 27.652C758.014 27.1832 758.878 26.9489 759.863 26.9489C760.848 26.9489 761.71 27.1832 762.448 27.652C763.192 28.1207 763.769 28.7789 764.181 29.6264C764.598 30.474 764.806 31.4659 764.806 32.6023C764.806 33.7292 764.598 34.714 764.181 35.5568C763.769 36.3996 763.192 37.0554 762.448 37.5241C761.71 37.9929 760.848 38.2273 759.863 38.2273ZM759.863 36.7216C760.611 36.7216 761.227 36.5298 761.71 36.1463C762.193 35.7628 762.55 35.2585 762.782 34.6335C763.014 34.0085 763.13 33.3314 763.13 32.6023C763.13 31.8731 763.014 31.1937 762.782 30.5639C762.55 29.9342 762.193 29.4252 761.71 29.0369C761.227 28.6487 760.611 28.4545 759.863 28.4545C759.115 28.4545 758.499 28.6487 758.016 29.0369C757.533 29.4252 757.176 29.9342 756.944 30.5639C756.712 31.1937 756.596 31.8731 756.596 32.6023C756.596 33.3314 756.712 34.0085 756.944 34.6335C757.176 35.2585 757.533 35.7628 758.016 36.1463C758.499 36.5298 759.115 36.7216 759.863 36.7216ZM767.365 38V27.0909H768.984V28.7386H769.098C769.297 28.1989 769.656 27.7609 770.177 27.4247C770.698 27.0885 771.285 26.9205 771.939 26.9205C772.062 26.9205 772.216 26.9228 772.4 26.9276C772.585 26.9323 772.725 26.9394 772.819 26.9489V28.6534C772.763 28.6392 772.632 28.6179 772.429 28.5895C772.23 28.5563 772.019 28.5398 771.797 28.5398C771.266 28.5398 770.793 28.651 770.376 28.8736C769.964 29.0914 769.638 29.3944 769.396 29.7827C769.159 30.1662 769.041 30.6042 769.041 31.0966V38H767.365Z" fill="white" fill-opacity="0.95"/>
<mask id="path-9-inside-4_2129_32194" fill="white">
<path d="M953.667 0H1300V62H953.667V0Z"/>
</mask>
<path d="M953.667 0H1300V62H953.667V0Z" fill="#1A1A1A"/>
<path d="M1300 61H953.667V63H1300V61Z" fill="#707070" mask="url(#path-9-inside-4_2129_32194)"/>
<path d="M987.895 34.422V35.57C987.549 35.6633 987.218 35.71 986.901 35.71C986.229 35.71 985.725 35.5 985.389 35.08C985.099 34.7347 984.955 34.2727 984.955 33.694V29.368H983.877V28.22H984.955L985.039 26.47H986.299V28.22H987.867V29.368H986.299V33.722C986.299 34.2633 986.555 34.534 987.069 34.534C987.311 34.534 987.587 34.4967 987.895 34.422ZM990.502 35.5H989.158V25.42H990.502V29.046C991.034 28.3553 991.744 28.01 992.63 28.01C993.489 28.01 994.147 28.276 994.604 28.808C995.006 29.284 995.206 29.9327 995.206 30.754V35.5H993.862V30.768C993.862 29.6947 993.344 29.158 992.308 29.158C991.758 29.158 991.31 29.3493 990.964 29.732C990.656 30.0773 990.502 30.5207 990.502 31.062V35.5ZM1002.06 33.4H1003.51C1003.31 34.1373 1002.9 34.716 1002.3 35.136C1001.73 35.5187 1001.04 35.71 1000.25 35.71C999.104 35.71 998.208 35.346 997.564 34.618C996.976 33.9367 996.682 33.0173 996.682 31.86C996.682 30.544 997.055 29.5453 997.802 28.864C998.418 28.2947 999.211 28.01 1000.18 28.01C1001.32 28.01 1002.18 28.3787 1002.76 29.116C1003.32 29.8253 1003.6 30.838 1003.6 32.154H998.054C998.11 33.0127 998.371 33.652 998.838 34.072C999.22 34.408 999.706 34.576 1000.29 34.576C1000.75 34.576 1001.15 34.45 1001.48 34.198C1001.76 33.9833 1001.95 33.7173 1002.06 33.4ZM1000.21 29.088C999.612 29.088 999.132 29.2747 998.768 29.648C998.422 29.9933 998.203 30.474 998.11 31.09H1002.23C1002.18 30.39 1001.95 29.8673 1001.53 29.522C1001.19 29.2327 1000.75 29.088 1000.21 29.088ZM1006.55 35.5H1005.21V28.22H1006.32L1006.46 29.074C1006.95 28.3647 1007.66 28.01 1008.6 28.01C1009.61 28.01 1010.33 28.3927 1010.74 29.158C1011.22 28.3927 1012.01 28.01 1013.11 28.01C1013.92 28.01 1014.54 28.2573 1014.98 28.752C1015.37 29.2093 1015.57 29.8347 1015.57 30.628V35.5H1014.23V30.726C1014.23 29.6807 1013.75 29.158 1012.81 29.158C1012.25 29.158 1011.8 29.3773 1011.47 29.816C1011.2 30.1707 1011.06 30.586 1011.06 31.062V35.5H1009.72V30.726C1009.72 29.6807 1009.25 29.158 1008.3 29.158C1007.78 29.158 1007.35 29.3633 1007 29.774C1006.7 30.1193 1006.55 30.5347 1006.55 31.02V35.5ZM1022.42 33.4H1023.87C1023.67 34.1373 1023.26 34.716 1022.65 35.136C1022.08 35.5187 1021.4 35.71 1020.61 35.71C1019.46 35.71 1018.57 35.346 1017.92 34.618C1017.33 33.9367 1017.04 33.0173 1017.04 31.86C1017.04 30.544 1017.41 29.5453 1018.16 28.864C1018.78 28.2947 1019.57 28.01 1020.54 28.01C1021.68 28.01 1022.54 28.3787 1023.12 29.116C1023.68 29.8253 1023.96 30.838 1023.96 32.154H1018.41C1018.47 33.0127 1018.73 33.652 1019.2 34.072C1019.58 34.408 1020.06 34.576 1020.65 34.576C1021.11 34.576 1021.51 34.45 1021.84 34.198C1022.12 33.9833 1022.31 33.7173 1022.42 33.4ZM1020.57 29.088C1019.97 29.088 1019.49 29.2747 1019.13 29.648C1018.78 29.9933 1018.56 30.474 1018.47 31.09H1022.58C1022.54 30.39 1022.3 29.8673 1021.88 29.522C1021.55 29.2327 1021.11 29.088 1020.57 29.088ZM1025.01 36.76L1028.49 25.21H1029.77L1026.28 36.76H1025.01ZM1032.52 35.5H1031.17V28.22H1032.28L1032.43 29.144C1032.97 28.388 1033.71 28.01 1034.64 28.01C1035.5 28.01 1036.16 28.276 1036.62 28.808C1037.02 29.284 1037.22 29.9327 1037.22 30.754V35.5H1035.88V30.768C1035.88 29.6947 1035.36 29.158 1034.32 29.158C1033.78 29.158 1033.34 29.3447 1032.99 29.718C1032.67 30.054 1032.52 30.4833 1032.52 31.006V35.5ZM1044.07 33.4H1045.53C1045.32 34.1373 1044.92 34.716 1044.31 35.136C1043.74 35.5187 1043.06 35.71 1042.27 35.71C1041.12 35.71 1040.22 35.346 1039.58 34.618C1038.99 33.9367 1038.7 33.0173 1038.7 31.86C1038.7 30.544 1039.07 29.5453 1039.82 28.864C1040.43 28.2947 1041.22 28.01 1042.2 28.01C1043.33 28.01 1044.19 28.3787 1044.77 29.116C1045.33 29.8253 1045.61 30.838 1045.61 32.154H1040.07C1040.12 33.0127 1040.38 33.652 1040.85 34.072C1041.23 34.408 1041.72 34.576 1042.31 34.576C1042.76 34.576 1043.16 34.45 1043.5 34.198C1043.78 33.9833 1043.97 33.7173 1044.07 33.4ZM1042.22 29.088C1041.63 29.088 1041.15 29.2747 1040.78 29.648C1040.44 29.9933 1040.22 30.474 1040.12 31.09H1044.24C1044.19 30.39 1043.96 29.8673 1043.54 29.522C1043.2 29.2327 1042.76 29.088 1042.22 29.088ZM1047.15 28.22H1048.5V32.994C1048.5 34.0393 1049 34.562 1050.01 34.562C1050.62 34.562 1051.1 34.3427 1051.42 33.904C1051.67 33.568 1051.8 33.1527 1051.8 32.658V28.22H1053.14V35.5H1052.04L1051.88 34.66C1051.37 35.36 1050.64 35.71 1049.7 35.71C1048.87 35.71 1048.23 35.4533 1047.78 34.94C1047.36 34.464 1047.15 33.806 1047.15 32.966V28.22ZM1058.36 34.422V35.57C1058.01 35.6633 1057.68 35.71 1057.37 35.71C1056.69 35.71 1056.19 35.5 1055.85 35.08C1055.56 34.7347 1055.42 34.2727 1055.42 33.694V29.368H1054.34V28.22H1055.42L1055.5 26.47H1056.76V28.22H1058.33V29.368H1056.76V33.722C1056.76 34.2633 1057.02 34.534 1057.53 34.534C1057.78 34.534 1058.05 34.4967 1058.36 34.422ZM1060.97 35.5H1059.62V28.22H1060.73L1060.91 29.298C1061.32 28.4393 1061.94 28.01 1062.76 28.01C1063.03 28.01 1063.3 28.0427 1063.56 28.108V29.452C1063.24 29.368 1062.96 29.326 1062.7 29.326C1062.16 29.326 1061.74 29.5453 1061.43 29.984C1061.12 30.4227 1060.97 31.0433 1060.97 31.846V35.5ZM1065.76 30.25H1064.33C1064.41 29.522 1064.75 28.9573 1065.37 28.556C1065.92 28.192 1066.62 28.01 1067.46 28.01C1068.45 28.01 1069.22 28.2713 1069.75 28.794C1070.2 29.242 1070.42 29.8207 1070.42 30.53V35.5H1069.32L1069.15 34.506C1068.58 35.3087 1067.77 35.71 1066.71 35.71C1065.88 35.71 1065.23 35.486 1064.77 35.038C1064.38 34.6647 1064.19 34.1933 1064.19 33.624C1064.19 32.9053 1064.44 32.35 1064.94 31.958C1065.37 31.6127 1066.05 31.3607 1066.95 31.202L1069.08 30.838V30.474C1069.08 29.998 1068.92 29.6387 1068.59 29.396C1068.3 29.1813 1067.9 29.074 1067.4 29.074C1066.41 29.074 1065.86 29.466 1065.76 30.25ZM1067.04 34.576C1067.6 34.576 1068.1 34.3893 1068.52 34.016C1068.89 33.6707 1069.08 33.274 1069.08 32.826V31.888L1067.27 32.21C1066.61 32.322 1066.16 32.4947 1065.92 32.728C1065.72 32.9147 1065.62 33.1667 1065.62 33.484C1065.62 33.8387 1065.74 34.1093 1065.99 34.296C1066.23 34.4827 1066.58 34.576 1067.04 34.576ZM1073.65 25.42V35.5H1072.31V25.42H1073.65ZM1075.06 36.76L1078.55 25.21H1079.82L1076.33 36.76H1075.06ZM1082.33 35.5H1081.22V25.42H1082.57V29.228C1083.14 28.416 1083.95 28.01 1085 28.01C1086.05 28.01 1086.86 28.3833 1087.44 29.13C1087.95 29.802 1088.21 30.6933 1088.21 31.804C1088.21 33.12 1087.86 34.128 1087.16 34.828C1086.57 35.416 1085.82 35.71 1084.91 35.71C1083.87 35.71 1083.08 35.318 1082.54 34.534L1082.33 35.5ZM1086.81 31.776C1086.81 30.8613 1086.58 30.1753 1086.12 29.718C1085.76 29.3447 1085.28 29.158 1084.7 29.158C1084.02 29.158 1083.47 29.4053 1083.07 29.9C1082.69 30.376 1082.5 31.0013 1082.5 31.776C1082.5 32.7093 1082.73 33.4233 1083.18 33.918C1083.57 34.3473 1084.07 34.562 1084.7 34.562C1085.4 34.562 1085.93 34.3053 1086.29 33.792C1086.64 33.316 1086.81 32.644 1086.81 31.776ZM1093 34.422V35.57C1092.66 35.6633 1092.33 35.71 1092.01 35.71C1091.34 35.71 1090.83 35.5 1090.5 35.08C1090.21 34.7347 1090.06 34.2727 1090.06 33.694V29.368H1088.99V28.22H1090.06L1090.15 26.47H1091.41V28.22H1092.98V29.368H1091.41V33.722C1091.41 34.2633 1091.66 34.534 1092.18 34.534C1092.42 34.534 1092.7 34.4967 1093 34.422ZM1095.61 35.5H1094.27V28.22H1095.37L1095.53 29.144C1096.07 28.388 1096.81 28.01 1097.74 28.01C1098.6 28.01 1099.26 28.276 1099.71 28.808C1100.11 29.284 1100.32 29.9327 1100.32 30.754V35.5H1098.97V30.768C1098.97 29.6947 1098.45 29.158 1097.42 29.158C1096.88 29.158 1096.43 29.3447 1096.09 29.718C1095.77 30.054 1095.61 30.4833 1095.61 31.006V35.5ZM1101.65 36.76L1105.14 25.21H1106.41L1102.92 36.76H1101.65ZM1112.07 33.526C1112.07 33.1153 1111.86 32.8073 1111.43 32.602C1111.18 32.49 1110.69 32.35 1109.96 32.182C1109.06 31.986 1108.42 31.7013 1108.04 31.328C1107.72 31.0107 1107.56 30.5953 1107.56 30.082C1107.56 29.4007 1107.84 28.878 1108.39 28.514C1108.89 28.178 1109.55 28.01 1110.39 28.01C1111.26 28.01 1111.97 28.2247 1112.51 28.654C1112.97 29.0273 1113.26 29.522 1113.37 30.138H1112C1111.84 29.4287 1111.3 29.074 1110.38 29.074C1109.87 29.074 1109.48 29.1673 1109.23 29.354C1109.03 29.5127 1108.92 29.7133 1108.92 29.956C1108.92 30.2547 1109.03 30.4787 1109.26 30.628C1109.49 30.7773 1109.94 30.9267 1110.62 31.076C1111.64 31.3 1112.36 31.5753 1112.76 31.902C1113.21 32.266 1113.43 32.7747 1113.43 33.428C1113.43 34.156 1113.13 34.73 1112.53 35.15C1111.99 35.5233 1111.28 35.71 1110.39 35.71C1109.42 35.71 1108.65 35.4767 1108.08 35.01C1107.59 34.5993 1107.31 34.0673 1107.26 33.414H1108.63C1108.78 34.2353 1109.37 34.646 1110.41 34.646C1110.97 34.646 1111.4 34.5247 1111.71 34.282C1111.95 34.086 1112.07 33.834 1112.07 33.526ZM1119.92 33.4H1121.38C1121.17 34.1373 1120.77 34.716 1120.16 35.136C1119.59 35.5187 1118.91 35.71 1118.12 35.71C1116.97 35.71 1116.07 35.346 1115.43 34.618C1114.84 33.9367 1114.55 33.0173 1114.55 31.86C1114.55 30.544 1114.92 29.5453 1115.67 28.864C1116.28 28.2947 1117.08 28.01 1118.05 28.01C1119.19 28.01 1120.04 28.3787 1120.62 29.116C1121.18 29.8253 1121.46 30.838 1121.46 32.154H1115.92C1115.97 33.0127 1116.24 33.652 1116.7 34.072C1117.09 34.408 1117.57 34.576 1118.16 34.576C1118.62 34.576 1119.01 34.45 1119.35 34.198C1119.63 33.9833 1119.82 33.7173 1119.92 33.4ZM1118.07 29.088C1117.48 29.088 1117 29.2747 1116.63 29.648C1116.29 29.9933 1116.07 30.474 1115.97 31.09H1120.09C1120.04 30.39 1119.81 29.8673 1119.39 29.522C1119.05 29.2327 1118.62 29.088 1118.07 29.088ZM1127.82 33.162H1129.29C1129.18 33.946 1128.81 34.576 1128.18 35.052C1127.61 35.4907 1126.92 35.71 1126.1 35.71C1125.02 35.71 1124.17 35.3413 1123.54 34.604C1122.95 33.9227 1122.65 33.0267 1122.65 31.916C1122.65 30.628 1123.01 29.6293 1123.72 28.92C1124.32 28.3133 1125.11 28.01 1126.08 28.01C1126.98 28.01 1127.72 28.248 1128.3 28.724C1128.81 29.144 1129.12 29.6947 1129.23 30.376H1127.75C1127.66 29.984 1127.47 29.6807 1127.18 29.466C1126.9 29.2513 1126.54 29.144 1126.11 29.144C1125.45 29.144 1124.94 29.4053 1124.59 29.928C1124.25 30.4133 1124.08 31.09 1124.08 31.958C1124.08 32.8633 1124.31 33.5493 1124.75 34.016C1125.11 34.3893 1125.57 34.576 1126.13 34.576C1126.61 34.576 1127.01 34.436 1127.32 34.156C1127.59 33.9133 1127.75 33.582 1127.82 33.162ZM1130.41 31.86C1130.41 30.5253 1130.8 29.5173 1131.6 28.836C1132.23 28.2853 1133.03 28.01 1134 28.01C1135.13 28.01 1136.02 28.3693 1136.66 29.088C1137.28 29.76 1137.59 30.684 1137.59 31.86C1137.59 33.176 1137.2 34.1793 1136.43 34.87C1135.79 35.43 1134.98 35.71 1133.99 35.71C1132.86 35.71 1131.97 35.3367 1131.32 34.59C1130.71 33.9087 1130.41 32.9987 1130.41 31.86ZM1131.81 31.86C1131.81 32.7933 1132.04 33.5073 1132.52 34.002C1132.91 34.4127 1133.41 34.618 1134.02 34.618C1134.73 34.618 1135.27 34.352 1135.66 33.82C1136.01 33.3347 1136.19 32.6813 1136.19 31.86C1136.19 30.908 1135.95 30.1893 1135.49 29.704C1135.11 29.3027 1134.61 29.102 1134 29.102C1133.3 29.102 1132.76 29.368 1132.37 29.9C1131.99 30.3853 1131.81 31.0387 1131.81 31.86ZM1140.47 35.5H1139.13V28.22H1140.23L1140.39 29.144C1140.93 28.388 1141.66 28.01 1142.6 28.01C1143.46 28.01 1144.11 28.276 1144.57 28.808C1144.97 29.284 1145.17 29.9327 1145.17 30.754V35.5H1143.83V30.768C1143.83 29.6947 1143.31 29.158 1142.28 29.158C1141.73 29.158 1141.29 29.3447 1140.95 29.718C1140.63 30.054 1140.47 30.4833 1140.47 31.006V35.5ZM1153.63 35.5H1152.53L1152.29 34.478C1151.73 35.2993 1150.92 35.71 1149.87 35.71C1148.85 35.71 1148.05 35.3413 1147.46 34.604C1146.92 33.9227 1146.65 33.022 1146.65 31.902C1146.65 30.5487 1146.99 29.5313 1147.68 28.85C1148.26 28.29 1149.02 28.01 1149.95 28.01C1150.96 28.01 1151.74 28.388 1152.29 29.144V25.42H1153.63V35.5ZM1148.05 31.93C1148.05 32.8353 1148.27 33.5213 1148.72 33.988C1149.09 34.3707 1149.57 34.562 1150.16 34.562C1150.89 34.562 1151.46 34.2867 1151.86 33.736C1152.19 33.26 1152.36 32.6627 1152.36 31.944C1152.36 31.0013 1152.14 30.2827 1151.69 29.788C1151.31 29.368 1150.8 29.158 1150.16 29.158C1149.45 29.158 1148.92 29.4147 1148.55 29.928C1148.22 30.3947 1148.05 31.062 1148.05 31.93ZM1156.75 30.25H1155.32C1155.39 29.522 1155.74 28.9573 1156.36 28.556C1156.91 28.192 1157.6 28.01 1158.44 28.01C1159.44 28.01 1160.21 28.2713 1160.74 28.794C1161.19 29.242 1161.41 29.8207 1161.41 30.53V35.5H1160.3L1160.14 34.506C1159.57 35.3087 1158.75 35.71 1157.7 35.71C1156.87 35.71 1156.22 35.486 1155.75 35.038C1155.37 34.6647 1155.18 34.1933 1155.18 33.624C1155.18 32.9053 1155.43 32.35 1155.92 31.958C1156.36 31.6127 1157.03 31.3607 1157.94 31.202L1160.07 30.838V30.474C1160.07 29.998 1159.9 29.6387 1159.58 29.396C1159.29 29.1813 1158.89 29.074 1158.39 29.074C1157.4 29.074 1156.85 29.466 1156.75 30.25ZM1158.02 34.576C1158.59 34.576 1159.09 34.3893 1159.51 34.016C1159.88 33.6707 1160.07 33.274 1160.07 32.826V31.888L1158.26 32.21C1157.6 32.322 1157.14 32.4947 1156.9 32.728C1156.71 32.9147 1156.61 33.1667 1156.61 33.484C1156.61 33.8387 1156.73 34.1093 1156.97 34.296C1157.21 34.4827 1157.56 34.576 1158.02 34.576ZM1164.64 35.5H1163.3V28.22H1164.4L1164.58 29.298C1165 28.4393 1165.61 28.01 1166.43 28.01C1166.7 28.01 1166.97 28.0427 1167.23 28.108V29.452C1166.91 29.368 1166.63 29.326 1166.38 29.326C1165.84 29.326 1165.41 29.5453 1165.1 29.984C1164.79 30.4227 1164.64 31.0433 1164.64 31.846V35.5ZM1174.36 28.22L1171.83 35.598C1171.49 36.578 1171.17 37.2453 1170.86 37.6C1170.5 38.02 1170.03 38.23 1169.45 38.23C1169.21 38.23 1168.92 38.188 1168.58 38.104V37.012C1168.84 37.0773 1169.08 37.11 1169.28 37.11C1169.57 37.11 1169.79 37.0073 1169.95 36.802C1170.11 36.606 1170.31 36.172 1170.56 35.5H1170.12L1167.45 28.22H1168.9L1170.96 34.408L1173.02 28.22H1174.36ZM1174.92 36.76L1178.4 25.21H1179.68L1176.19 36.76H1174.92ZM1181.08 28.22H1182.19L1182.4 29.172C1183 28.3973 1183.82 28.01 1184.86 28.01C1185.91 28.01 1186.72 28.3833 1187.3 29.13C1187.81 29.802 1188.07 30.6933 1188.07 31.804C1188.07 33.12 1187.72 34.128 1187.02 34.828C1186.43 35.416 1185.68 35.71 1184.77 35.71C1183.73 35.71 1182.95 35.3273 1182.43 34.562V38.02H1181.08V28.22ZM1186.67 31.776C1186.67 30.8613 1186.44 30.1753 1185.98 29.718C1185.62 29.3447 1185.14 29.158 1184.56 29.158C1183.87 29.158 1183.33 29.4053 1182.93 29.9C1182.55 30.376 1182.36 31.0013 1182.36 31.776C1182.36 32.7093 1182.59 33.4233 1183.04 33.918C1183.43 34.3473 1183.93 34.562 1184.56 34.562C1185.26 34.562 1185.79 34.3053 1186.15 33.792C1186.5 33.316 1186.67 32.644 1186.67 31.776ZM1190.96 35.5H1189.62V28.22H1190.72L1190.9 29.298C1191.31 28.4393 1191.93 28.01 1192.75 28.01C1193.02 28.01 1193.29 28.0427 1193.55 28.108V29.452C1193.23 29.368 1192.95 29.326 1192.7 29.326C1192.15 29.326 1191.73 29.5453 1191.42 29.984C1191.11 30.4227 1190.96 31.0433 1190.96 31.846V35.5ZM1199.42 33.4H1200.88C1200.68 34.1373 1200.27 34.716 1199.66 35.136C1199.09 35.5187 1198.41 35.71 1197.62 35.71C1196.47 35.71 1195.57 35.346 1194.93 34.618C1194.34 33.9367 1194.05 33.0173 1194.05 31.86C1194.05 30.544 1194.42 29.5453 1195.17 28.864C1195.78 28.2947 1196.58 28.01 1197.55 28.01C1198.69 28.01 1199.55 28.3787 1200.12 29.116C1200.68 29.8253 1200.96 30.838 1200.96 32.154H1195.42C1195.48 33.0127 1195.74 33.652 1196.2 34.072C1196.59 34.408 1197.07 34.576 1197.66 34.576C1198.12 34.576 1198.51 34.45 1198.85 34.198C1199.13 33.9833 1199.32 33.7173 1199.42 33.4ZM1197.58 29.088C1196.98 29.088 1196.5 29.2747 1196.13 29.648C1195.79 29.9933 1195.57 30.474 1195.48 31.09H1199.59C1199.55 30.39 1199.31 29.8673 1198.89 29.522C1198.56 29.2327 1198.12 29.088 1197.58 29.088ZM1206.83 33.526C1206.83 33.1153 1206.62 32.8073 1206.19 32.602C1205.94 32.49 1205.45 32.35 1204.72 32.182C1203.82 31.986 1203.18 31.7013 1202.8 31.328C1202.48 31.0107 1202.32 30.5953 1202.32 30.082C1202.32 29.4007 1202.6 28.878 1203.15 28.514C1203.64 28.178 1204.31 28.01 1205.15 28.01C1206.02 28.01 1206.72 28.2247 1207.27 28.654C1207.73 29.0273 1208.02 29.522 1208.13 30.138H1206.76C1206.6 29.4287 1206.06 29.074 1205.14 29.074C1204.62 29.074 1204.24 29.1673 1203.99 29.354C1203.78 29.5127 1203.68 29.7133 1203.68 29.956C1203.68 30.2547 1203.79 30.4787 1204.02 30.628C1204.25 30.7773 1204.7 30.9267 1205.38 31.076C1206.4 31.3 1207.12 31.5753 1207.52 31.902C1207.97 32.266 1208.19 32.7747 1208.19 33.428C1208.19 34.156 1207.89 34.73 1207.29 35.15C1206.75 35.5233 1206.04 35.71 1205.15 35.71C1204.18 35.71 1203.41 35.4767 1202.84 35.01C1202.35 34.5993 1202.07 34.0673 1202.02 33.414H1203.39C1203.54 34.2353 1204.13 34.646 1205.17 34.646C1205.73 34.646 1206.16 34.5247 1206.47 34.282C1206.71 34.086 1206.83 33.834 1206.83 33.526ZM1213.89 33.526C1213.89 33.1153 1213.67 32.8073 1213.24 32.602C1212.99 32.49 1212.5 32.35 1211.77 32.182C1210.88 31.986 1210.24 31.7013 1209.85 31.328C1209.54 31.0107 1209.38 30.5953 1209.38 30.082C1209.38 29.4007 1209.65 28.878 1210.2 28.514C1210.7 28.178 1211.37 28.01 1212.21 28.01C1213.07 28.01 1213.78 28.2247 1214.32 28.654C1214.79 29.0273 1215.08 29.522 1215.19 30.138H1213.82C1213.66 29.4287 1213.12 29.074 1212.19 29.074C1211.68 29.074 1211.3 29.1673 1211.04 29.354C1210.84 29.5127 1210.74 29.7133 1210.74 29.956C1210.74 30.2547 1210.85 30.4787 1211.07 30.628C1211.31 30.7773 1211.76 30.9267 1212.43 31.076C1213.46 31.3 1214.17 31.5753 1214.57 31.902C1215.02 32.266 1215.24 32.7747 1215.24 33.428C1215.24 34.156 1214.95 34.73 1214.35 35.15C1213.81 35.5233 1213.09 35.71 1212.21 35.71C1211.24 35.71 1210.47 35.4767 1209.9 35.01C1209.4 34.5993 1209.13 34.0673 1209.07 33.414H1210.44C1210.59 34.2353 1211.18 34.646 1212.22 34.646C1212.78 34.646 1213.21 34.5247 1213.52 34.282C1213.77 34.086 1213.89 33.834 1213.89 33.526ZM1221.74 33.4H1223.19C1222.99 34.1373 1222.58 34.716 1221.98 35.136C1221.41 35.5187 1220.72 35.71 1219.93 35.71C1218.78 35.71 1217.89 35.346 1217.24 34.618C1216.66 33.9367 1216.36 33.0173 1216.36 31.86C1216.36 30.544 1216.73 29.5453 1217.48 28.864C1218.1 28.2947 1218.89 28.01 1219.86 28.01C1221 28.01 1221.86 28.3787 1222.44 29.116C1223 29.8253 1223.28 30.838 1223.28 32.154H1217.73C1217.79 33.0127 1218.05 33.652 1218.52 34.072C1218.9 34.408 1219.39 34.576 1219.97 34.576C1220.43 34.576 1220.83 34.45 1221.16 34.198C1221.44 33.9833 1221.63 33.7173 1221.74 33.4ZM1219.89 29.088C1219.29 29.088 1218.81 29.2747 1218.45 29.648C1218.1 29.9933 1217.88 30.474 1217.79 31.09H1221.91C1221.86 30.39 1221.63 29.8673 1221.21 29.522C1220.87 29.2327 1220.43 29.088 1219.89 29.088ZM1231.45 35.5H1230.35L1230.11 34.478C1229.55 35.2993 1228.74 35.71 1227.69 35.71C1226.67 35.71 1225.87 35.3413 1225.28 34.604C1224.74 33.9227 1224.47 33.022 1224.47 31.902C1224.47 30.5487 1224.81 29.5313 1225.5 28.85C1226.08 28.29 1226.84 28.01 1227.77 28.01C1228.78 28.01 1229.56 28.388 1230.11 29.144V25.42H1231.45V35.5ZM1225.87 31.93C1225.87 32.8353 1226.09 33.5213 1226.54 33.988C1226.91 34.3707 1227.39 34.562 1227.98 34.562C1228.71 34.562 1229.28 34.2867 1229.68 33.736C1230.01 33.26 1230.18 32.6627 1230.18 31.944C1230.18 31.0013 1229.96 30.2827 1229.51 29.788C1229.13 29.368 1228.62 29.158 1227.98 29.158C1227.27 29.158 1226.74 29.4147 1226.37 29.928C1226.04 30.3947 1225.87 31.062 1225.87 31.93Z" fill="white" fill-opacity="0.95"/>
</svg>
