<svg width="1300" height="74" viewBox="0 0 1300 74" fill="none" xmlns="http://www.w3.org/2000/svg">
<mask id="path-1-inside-1_2129_35286" fill="white">
<path d="M0 0H325V74H0V0Z"/>
</mask>
<path d="M0 0H325V74H0V0Z" fill="#1A1A1A"/>
<path d="M324 0V74H326V0H324Z" fill="#707070" mask="url(#path-1-inside-1_2129_35286)"/>
<mask id="path-3-inside-2_2129_35286" fill="white">
<path d="M325 0H650V74H325V0Z"/>
</mask>
<path d="M325 0H650V74H325V0Z" fill="#1A1A1A"/>
<path d="M650 74V75H651V74H650ZM649 0V74H651V0H649ZM650 73H325V75H650V73Z" fill="#707070" mask="url(#path-3-inside-2_2129_35286)"/>
<path d="M368.466 34H366.705C366.6 33.4934 366.418 33.0483 366.158 32.6648C365.902 32.2812 365.589 31.9593 365.22 31.6989C364.856 31.4337 364.451 31.2348 364.006 31.1023C363.561 30.9697 363.097 30.9034 362.614 30.9034C361.733 30.9034 360.935 31.1259 360.22 31.571C359.51 32.0161 358.944 32.6719 358.523 33.5384C358.106 34.4048 357.898 35.4678 357.898 36.7273C357.898 37.9867 358.106 39.0497 358.523 39.9162C358.944 40.7827 359.51 41.4384 360.22 41.8835C360.935 42.3286 361.733 42.5511 362.614 42.5511C363.097 42.5511 363.561 42.4848 364.006 42.3523C364.451 42.2197 364.856 42.0232 365.22 41.7628C365.589 41.4976 365.902 41.1733 366.158 40.7898C366.418 40.4015 366.6 39.9564 366.705 39.4545H368.466C368.333 40.1979 368.092 40.8632 367.741 41.4503C367.391 42.0374 366.955 42.5369 366.435 42.9489C365.914 43.3561 365.329 43.6662 364.68 43.8793C364.036 44.0923 363.348 44.1989 362.614 44.1989C361.373 44.1989 360.27 43.8958 359.304 43.2898C358.338 42.6837 357.578 41.822 357.024 40.7045C356.47 39.5871 356.193 38.2614 356.193 36.7273C356.193 35.1932 356.47 33.8674 357.024 32.75C357.578 31.6326 358.338 30.7708 359.304 30.1648C360.27 29.5587 361.373 29.2557 362.614 29.2557C363.348 29.2557 364.036 29.3622 364.68 29.5753C365.329 29.7884 365.914 30.1009 366.435 30.5128C366.955 30.92 367.391 31.4171 367.741 32.0043C368.092 32.5866 368.333 33.2519 368.466 34ZM375.517 44.2273C374.532 44.2273 373.668 43.9929 372.924 43.5241C372.186 43.0554 371.608 42.3996 371.191 41.5568C370.779 40.714 370.574 39.7292 370.574 38.6023C370.574 37.4659 370.779 36.474 371.191 35.6264C371.608 34.7789 372.186 34.1207 372.924 33.652C373.668 33.1832 374.532 32.9489 375.517 32.9489C376.502 32.9489 377.363 33.1832 378.102 33.652C378.845 34.1207 379.423 34.7789 379.835 35.6264C380.252 36.474 380.46 37.4659 380.46 38.6023C380.46 39.7292 380.252 40.714 379.835 41.5568C379.423 42.3996 378.845 43.0554 378.102 43.5241C377.363 43.9929 376.502 44.2273 375.517 44.2273ZM375.517 42.7216C376.265 42.7216 376.88 42.5298 377.363 42.1463C377.846 41.7628 378.204 41.2585 378.436 40.6335C378.668 40.0085 378.784 39.3314 378.784 38.6023C378.784 37.8731 378.668 37.1937 378.436 36.5639C378.204 35.9342 377.846 35.4252 377.363 35.0369C376.88 34.6487 376.265 34.4545 375.517 34.4545C374.769 34.4545 374.153 34.6487 373.67 35.0369C373.187 35.4252 372.83 35.9342 372.598 36.5639C372.366 37.1937 372.25 37.8731 372.25 38.6023C372.25 39.3314 372.366 40.0085 372.598 40.6335C372.83 41.2585 373.187 41.7628 373.67 42.1463C374.153 42.5298 374.769 42.7216 375.517 42.7216ZM384.695 37.4375V44H383.018V33.0909H384.638V34.7955H384.78C385.036 34.2415 385.424 33.7964 385.945 33.4602C386.465 33.1193 387.138 32.9489 387.962 32.9489C388.7 32.9489 389.347 33.1004 389.901 33.4034C390.455 33.7017 390.885 34.1562 391.193 34.767C391.501 35.3731 391.655 36.1402 391.655 37.0682V44H389.979V37.1818C389.979 36.3248 389.756 35.6572 389.311 35.179C388.866 34.696 388.255 34.4545 387.479 34.4545C386.944 34.4545 386.465 34.5705 386.044 34.8026C385.627 35.0346 385.298 35.3731 385.057 35.8182C384.815 36.2633 384.695 36.803 384.695 37.4375ZM399.462 33.0909V34.5114H393.809V33.0909H399.462ZM395.456 30.4773H397.132V40.875C397.132 41.3485 397.201 41.7036 397.338 41.9403C397.48 42.1723 397.66 42.3286 397.878 42.4091C398.101 42.4848 398.335 42.5227 398.581 42.5227C398.766 42.5227 398.917 42.5133 399.036 42.4943C399.154 42.4706 399.249 42.4517 399.32 42.4375L399.661 43.9432C399.547 43.9858 399.389 44.0284 399.185 44.071C398.981 44.1184 398.723 44.142 398.411 44.142C397.937 44.142 397.473 44.0402 397.019 43.8366C396.569 43.633 396.195 43.3229 395.897 42.9062C395.603 42.4896 395.456 41.964 395.456 41.3295V30.4773ZM405.194 44.2557C404.502 44.2557 403.875 44.1255 403.311 43.8651C402.748 43.5999 402.301 43.2188 401.969 42.7216C401.638 42.2197 401.472 41.6136 401.472 40.9034C401.472 40.2784 401.595 39.7718 401.841 39.3835C402.087 38.9905 402.417 38.6828 402.828 38.4602C403.24 38.2377 403.695 38.072 404.192 37.9631C404.694 37.8494 405.198 37.7595 405.705 37.6932C406.368 37.608 406.905 37.544 407.317 37.5014C407.734 37.4541 408.037 37.3759 408.226 37.267C408.42 37.1581 408.517 36.9687 408.517 36.6989V36.642C408.517 35.9413 408.326 35.3968 407.942 35.0085C407.563 34.6203 406.988 34.4261 406.216 34.4261C405.416 34.4261 404.789 34.6013 404.334 34.9517C403.88 35.3021 403.56 35.6761 403.375 36.0739L401.784 35.5057C402.069 34.8428 402.447 34.3267 402.921 33.9574C403.399 33.5833 403.92 33.3229 404.483 33.1761C405.051 33.0246 405.61 32.9489 406.159 32.9489C406.51 32.9489 406.912 32.9915 407.367 33.0767C407.826 33.1572 408.269 33.3253 408.695 33.581C409.126 33.8366 409.483 34.2225 409.767 34.7386C410.051 35.2547 410.194 35.946 410.194 36.8125V44H408.517V42.5227H408.432C408.319 42.7595 408.129 43.0128 407.864 43.2827C407.599 43.5526 407.246 43.7822 406.806 43.9716C406.365 44.161 405.828 44.2557 405.194 44.2557ZM405.449 42.75C406.112 42.75 406.671 42.6198 407.125 42.3594C407.585 42.099 407.93 41.7628 408.162 41.3509C408.399 40.9389 408.517 40.5057 408.517 40.0511V38.517C408.446 38.6023 408.29 38.6804 408.049 38.7514C407.812 38.8177 407.537 38.8769 407.225 38.929C406.917 38.9763 406.616 39.0189 406.323 39.0568C406.034 39.09 405.8 39.1184 405.62 39.142C405.184 39.1989 404.777 39.2912 404.398 39.419C404.024 39.5421 403.721 39.7292 403.489 39.9801C403.262 40.2263 403.148 40.5625 403.148 40.9886C403.148 41.571 403.364 42.0114 403.794 42.3097C404.23 42.6032 404.782 42.75 405.449 42.75ZM413.253 44V33.0909H414.929V44H413.253ZM414.105 31.2727C413.778 31.2727 413.497 31.1615 413.26 30.9389C413.028 30.7164 412.912 30.4489 412.912 30.1364C412.912 29.8239 413.028 29.5563 413.26 29.3338C413.497 29.1113 413.778 29 414.105 29C414.432 29 414.711 29.1113 414.943 29.3338C415.18 29.5563 415.298 29.8239 415.298 30.1364C415.298 30.4489 415.18 30.7164 414.943 30.9389C414.711 31.1615 414.432 31.2727 414.105 31.2727ZM419.675 37.4375V44H417.999V33.0909H419.618V34.7955H419.76C420.016 34.2415 420.404 33.7964 420.925 33.4602C421.446 33.1193 422.118 32.9489 422.942 32.9489C423.681 32.9489 424.327 33.1004 424.881 33.4034C425.435 33.7017 425.866 34.1562 426.174 34.767C426.481 35.3731 426.635 36.1402 426.635 37.0682V44H424.959V37.1818C424.959 36.3248 424.737 35.6572 424.292 35.179C423.846 34.696 423.236 34.4545 422.459 34.4545C421.924 34.4545 421.446 34.5705 421.025 34.8026C420.608 35.0346 420.279 35.3731 420.037 35.8182C419.796 36.2633 419.675 36.803 419.675 37.4375ZM434.272 44.2273C433.221 44.2273 432.314 43.9953 431.552 43.5312C430.794 43.0625 430.21 42.4091 429.798 41.571C429.39 40.7282 429.187 39.7481 429.187 38.6307C429.187 37.5133 429.39 36.5284 429.798 35.6761C430.21 34.8191 430.782 34.1515 431.516 33.6733C432.255 33.1903 433.117 32.9489 434.102 32.9489C434.67 32.9489 435.231 33.0436 435.785 33.233C436.339 33.4223 436.843 33.7301 437.298 34.1562C437.752 34.5777 438.114 35.1364 438.384 35.8324C438.654 36.5284 438.789 37.3854 438.789 38.4034V39.1136H430.38V37.6648H437.085C437.085 37.0492 436.961 36.5 436.715 36.017C436.474 35.5341 436.128 35.1529 435.678 34.8736C435.233 34.5942 434.708 34.4545 434.102 34.4545C433.434 34.4545 432.856 34.6203 432.369 34.9517C431.886 35.2784 431.514 35.7045 431.254 36.2301C430.993 36.7557 430.863 37.3191 430.863 37.9205V38.8864C430.863 39.7102 431.005 40.4086 431.289 40.9815C431.578 41.5497 431.978 41.983 432.489 42.2812C433.001 42.5748 433.595 42.7216 434.272 42.7216C434.712 42.7216 435.11 42.66 435.465 42.5369C435.825 42.4091 436.135 42.2197 436.396 41.9688C436.656 41.7131 436.857 41.3958 436.999 41.017L438.619 41.4716C438.448 42.0208 438.162 42.5038 437.759 42.9205C437.357 43.3324 436.86 43.6544 436.268 43.8864C435.676 44.1136 435.011 44.2273 434.272 44.2273ZM441.339 44V33.0909H442.958V34.7386H443.072C443.271 34.1989 443.63 33.7609 444.151 33.4247C444.672 33.0885 445.259 32.9205 445.913 32.9205C446.036 32.9205 446.19 32.9228 446.374 32.9276C446.559 32.9323 446.699 32.9394 446.793 32.9489V34.6534C446.737 34.6392 446.606 34.6179 446.403 34.5895C446.204 34.5563 445.993 34.5398 445.771 34.5398C445.24 34.5398 444.767 34.651 444.35 34.8736C443.938 35.0914 443.612 35.3944 443.37 35.7827C443.133 36.1662 443.015 36.6042 443.015 37.0966V44H441.339Z" fill="white" fill-opacity="0.95"/>
<mask id="path-6-inside-3_2129_35286" fill="white">
<path d="M650 0H975V74H650V0Z"/>
</mask>
<path d="M650 0H975V74H650V0Z" fill="#1A1A1A"/>
<path d="M975 74V75H976V74H975ZM974 0V74H976V0H974ZM975 73H650V75H975V73Z" fill="#707070" mask="url(#path-6-inside-3_2129_35286)"/>
<path d="M693.466 34H691.705C691.6 33.4934 691.418 33.0483 691.158 32.6648C690.902 32.2812 690.589 31.9593 690.22 31.6989C689.856 31.4337 689.451 31.2348 689.006 31.1023C688.561 30.9697 688.097 30.9034 687.614 30.9034C686.733 30.9034 685.935 31.1259 685.22 31.571C684.51 32.0161 683.944 32.6719 683.523 33.5384C683.106 34.4048 682.898 35.4678 682.898 36.7273C682.898 37.9867 683.106 39.0497 683.523 39.9162C683.944 40.7827 684.51 41.4384 685.22 41.8835C685.935 42.3286 686.733 42.5511 687.614 42.5511C688.097 42.5511 688.561 42.4848 689.006 42.3523C689.451 42.2197 689.856 42.0232 690.22 41.7628C690.589 41.4976 690.902 41.1733 691.158 40.7898C691.418 40.4015 691.6 39.9564 691.705 39.4545H693.466C693.333 40.1979 693.092 40.8632 692.741 41.4503C692.391 42.0374 691.955 42.5369 691.435 42.9489C690.914 43.3561 690.329 43.6662 689.68 43.8793C689.036 44.0923 688.348 44.1989 687.614 44.1989C686.373 44.1989 685.27 43.8958 684.304 43.2898C683.338 42.6837 682.578 41.822 682.024 40.7045C681.47 39.5871 681.193 38.2614 681.193 36.7273C681.193 35.1932 681.47 33.8674 682.024 32.75C682.578 31.6326 683.338 30.7708 684.304 30.1648C685.27 29.5587 686.373 29.2557 687.614 29.2557C688.348 29.2557 689.036 29.3622 689.68 29.5753C690.329 29.7884 690.914 30.1009 691.435 30.5128C691.955 30.92 692.391 31.4171 692.741 32.0043C693.092 32.5866 693.333 33.2519 693.466 34ZM700.517 44.2273C699.532 44.2273 698.668 43.9929 697.924 43.5241C697.186 43.0554 696.608 42.3996 696.191 41.5568C695.779 40.714 695.574 39.7292 695.574 38.6023C695.574 37.4659 695.779 36.474 696.191 35.6264C696.608 34.7789 697.186 34.1207 697.924 33.652C698.668 33.1832 699.532 32.9489 700.517 32.9489C701.502 32.9489 702.363 33.1832 703.102 33.652C703.845 34.1207 704.423 34.7789 704.835 35.6264C705.252 36.474 705.46 37.4659 705.46 38.6023C705.46 39.7292 705.252 40.714 704.835 41.5568C704.423 42.3996 703.845 43.0554 703.102 43.5241C702.363 43.9929 701.502 44.2273 700.517 44.2273ZM700.517 42.7216C701.265 42.7216 701.88 42.5298 702.363 42.1463C702.846 41.7628 703.204 41.2585 703.436 40.6335C703.668 40.0085 703.784 39.3314 703.784 38.6023C703.784 37.8731 703.668 37.1937 703.436 36.5639C703.204 35.9342 702.846 35.4252 702.363 35.0369C701.88 34.6487 701.265 34.4545 700.517 34.4545C699.769 34.4545 699.153 34.6487 698.67 35.0369C698.187 35.4252 697.83 35.9342 697.598 36.5639C697.366 37.1937 697.25 37.8731 697.25 38.6023C697.25 39.3314 697.366 40.0085 697.598 40.6335C697.83 41.2585 698.187 41.7628 698.67 42.1463C699.153 42.5298 699.769 42.7216 700.517 42.7216ZM709.695 29.4545V44H708.018V29.4545H709.695ZM717.196 44.2273C716.212 44.2273 715.347 43.9929 714.604 43.5241C713.865 43.0554 713.288 42.3996 712.871 41.5568C712.459 40.714 712.253 39.7292 712.253 38.6023C712.253 37.4659 712.459 36.474 712.871 35.6264C713.288 34.7789 713.865 34.1207 714.604 33.652C715.347 33.1832 716.212 32.9489 717.196 32.9489C718.181 32.9489 719.043 33.1832 719.782 33.652C720.525 34.1207 721.103 34.7789 721.515 35.6264C721.931 36.474 722.14 37.4659 722.14 38.6023C722.14 39.7292 721.931 40.714 721.515 41.5568C721.103 42.3996 720.525 43.0554 719.782 43.5241C719.043 43.9929 718.181 44.2273 717.196 44.2273ZM717.196 42.7216C717.944 42.7216 718.56 42.5298 719.043 42.1463C719.526 41.7628 719.883 41.2585 720.115 40.6335C720.347 40.0085 720.463 39.3314 720.463 38.6023C720.463 37.8731 720.347 37.1937 720.115 36.5639C719.883 35.9342 719.526 35.4252 719.043 35.0369C718.56 34.6487 717.944 34.4545 717.196 34.4545C716.448 34.4545 715.833 34.6487 715.35 35.0369C714.867 35.4252 714.509 35.9342 714.277 36.5639C714.045 37.1937 713.929 37.8731 713.929 38.6023C713.929 39.3314 714.045 40.0085 714.277 40.6335C714.509 41.2585 714.867 41.7628 715.35 42.1463C715.833 42.5298 716.448 42.7216 717.196 42.7216ZM724.698 44V33.0909H726.317V34.7386H726.431C726.63 34.1989 726.99 33.7609 727.511 33.4247C728.031 33.0885 728.619 32.9205 729.272 32.9205C729.395 32.9205 729.549 32.9228 729.734 32.9276C729.918 32.9323 730.058 32.9394 730.153 32.9489V34.6534C730.096 34.6392 729.966 34.6179 729.762 34.5895C729.563 34.5563 729.353 34.5398 729.13 34.5398C728.6 34.5398 728.126 34.651 727.71 34.8736C727.298 35.0914 726.971 35.3944 726.729 35.7827C726.493 36.1662 726.374 36.6042 726.374 37.0966V44H724.698Z" fill="white" fill-opacity="0.95"/>
<mask id="path-9-inside-4_2129_35286" fill="white">
<path d="M975 0H1300V74H975V0Z"/>
</mask>
<path d="M975 0H1300V74H975V0Z" fill="#1A1A1A"/>
<path d="M1300 73H975V75H1300V73Z" fill="#707070" mask="url(#path-9-inside-4_2129_35286)"/>
<path d="M1010.73 28.662H1012.2C1012.08 29.446 1011.72 30.076 1011.09 30.552C1010.52 30.9907 1009.83 31.21 1009 31.21C1007.93 31.21 1007.08 30.8413 1006.44 30.104C1005.85 29.4227 1005.56 28.5267 1005.56 27.416C1005.56 26.128 1005.91 25.1293 1006.62 24.42C1007.23 23.8133 1008.02 23.51 1008.99 23.51C1009.89 23.51 1010.62 23.748 1011.2 24.224C1011.72 24.644 1012.03 25.1947 1012.14 25.876H1010.66C1010.56 25.484 1010.37 25.1807 1010.08 24.966C1009.8 24.7513 1009.45 24.644 1009.02 24.644C1008.36 24.644 1007.85 24.9053 1007.49 25.428C1007.16 25.9133 1006.99 26.59 1006.99 27.458C1006.99 28.3633 1007.21 29.0493 1007.66 29.516C1008.01 29.8893 1008.47 30.076 1009.03 30.076C1009.52 30.076 1009.91 29.936 1010.22 29.656C1010.49 29.4133 1010.66 29.082 1010.73 28.662ZM1013.31 27.36C1013.31 26.0253 1013.71 25.0173 1014.5 24.336C1015.14 23.7853 1015.94 23.51 1016.91 23.51C1018.04 23.51 1018.93 23.8693 1019.57 24.588C1020.19 25.26 1020.49 26.184 1020.49 27.36C1020.49 28.676 1020.11 29.6793 1019.33 30.37C1018.7 30.93 1017.89 31.21 1016.9 31.21C1015.77 31.21 1014.88 30.8367 1014.22 30.09C1013.62 29.4087 1013.31 28.4987 1013.31 27.36ZM1014.71 27.36C1014.71 28.2933 1014.95 29.0073 1015.43 29.502C1015.82 29.9127 1016.32 30.118 1016.92 30.118C1017.63 30.118 1018.18 29.852 1018.56 29.32C1018.92 28.8347 1019.09 28.1813 1019.09 27.36C1019.09 26.408 1018.86 25.6893 1018.39 25.204C1018.01 24.8027 1017.52 24.602 1016.91 24.602C1016.21 24.602 1015.66 24.868 1015.27 25.4C1014.9 25.8853 1014.71 26.5387 1014.71 27.36ZM1023.37 20.92V31H1022.03V20.92H1023.37ZM1024.92 27.36C1024.92 26.0253 1025.32 25.0173 1026.11 24.336C1026.74 23.7853 1027.55 23.51 1028.52 23.51C1029.65 23.51 1030.53 23.8693 1031.18 24.588C1031.79 25.26 1032.1 26.184 1032.1 27.36C1032.1 28.676 1031.71 29.6793 1030.94 30.37C1030.3 30.93 1029.49 31.21 1028.5 31.21C1027.37 31.21 1026.48 30.8367 1025.83 30.09C1025.22 29.4087 1024.92 28.4987 1024.92 27.36ZM1026.32 27.36C1026.32 28.2933 1026.56 29.0073 1027.03 29.502C1027.43 29.9127 1027.92 30.118 1028.53 30.118C1029.24 30.118 1029.79 29.852 1030.17 29.32C1030.52 28.8347 1030.7 28.1813 1030.7 27.36C1030.7 26.408 1030.47 25.6893 1030 25.204C1029.62 24.8027 1029.12 24.602 1028.52 24.602C1027.82 24.602 1027.27 24.868 1026.88 25.4C1026.51 25.8853 1026.32 26.5387 1026.32 27.36ZM1034.98 31H1033.64V23.72H1034.74L1034.93 24.798C1035.34 23.9393 1035.95 23.51 1036.77 23.51C1037.04 23.51 1037.31 23.5427 1037.57 23.608V24.952C1037.25 24.868 1036.97 24.826 1036.72 24.826C1036.18 24.826 1035.75 25.0453 1035.44 25.484C1035.14 25.9227 1034.98 26.5433 1034.98 27.346V31ZM1039.64 31H1038.02V29.376H1039.64V31ZM1044.73 29.922V31.07C1044.39 31.1633 1044.06 31.21 1043.74 31.21C1043.07 31.21 1042.56 31 1042.23 30.58C1041.94 30.2347 1041.79 29.7727 1041.79 29.194V24.868H1040.72V23.72H1041.79L1041.88 21.97H1043.14V23.72H1044.71V24.868H1043.14V29.222C1043.14 29.7633 1043.39 30.034 1043.91 30.034C1044.15 30.034 1044.43 29.9967 1044.73 29.922ZM1047.34 31H1046V20.92H1047.34V24.546C1047.87 23.8553 1048.58 23.51 1049.47 23.51C1050.33 23.51 1050.99 23.776 1051.44 24.308C1051.84 24.784 1052.05 25.4327 1052.05 26.254V31H1050.7V26.268C1050.7 25.1947 1050.18 24.658 1049.15 24.658C1048.6 24.658 1048.15 24.8493 1047.8 25.232C1047.5 25.5773 1047.34 26.0207 1047.34 26.562V31ZM1058.9 28.9H1060.35C1060.15 29.6373 1059.74 30.216 1059.13 30.636C1058.57 31.0187 1057.88 31.21 1057.09 31.21C1055.94 31.21 1055.05 30.846 1054.4 30.118C1053.81 29.4367 1053.52 28.5173 1053.52 27.36C1053.52 26.044 1053.89 25.0453 1054.64 24.364C1055.26 23.7947 1056.05 23.51 1057.02 23.51C1058.16 23.51 1059.02 23.8787 1059.6 24.616C1060.16 25.3253 1060.44 26.338 1060.44 27.654H1054.89C1054.95 28.5127 1055.21 29.152 1055.68 29.572C1056.06 29.908 1056.54 30.076 1057.13 30.076C1057.59 30.076 1057.99 29.95 1058.32 29.698C1058.6 29.4833 1058.79 29.2173 1058.9 28.9ZM1057.05 24.588C1056.45 24.588 1055.97 24.7747 1055.61 25.148C1055.26 25.4933 1055.04 25.974 1054.95 26.59H1059.06C1059.02 25.89 1058.78 25.3673 1058.36 25.022C1058.03 24.7327 1057.59 24.588 1057.05 24.588ZM1063.39 31H1062.05V23.72H1063.15L1063.29 24.574C1063.79 23.8647 1064.5 23.51 1065.44 23.51C1066.45 23.51 1067.17 23.8927 1067.58 24.658C1068.06 23.8927 1068.85 23.51 1069.94 23.51C1070.76 23.51 1071.38 23.7573 1071.82 24.252C1072.21 24.7093 1072.41 25.3347 1072.41 26.128V31H1071.06V26.226C1071.06 25.1807 1070.59 24.658 1069.65 24.658C1069.09 24.658 1068.64 24.8773 1068.31 25.316C1068.04 25.6707 1067.9 26.086 1067.9 26.562V31H1066.56V26.226C1066.56 25.1807 1066.09 24.658 1065.14 24.658C1064.62 24.658 1064.19 24.8633 1063.84 25.274C1063.54 25.6193 1063.39 26.0347 1063.39 26.52V31ZM1079.25 28.9H1080.71C1080.51 29.6373 1080.1 30.216 1079.49 30.636C1078.92 31.0187 1078.24 31.21 1077.45 31.21C1076.3 31.21 1075.4 30.846 1074.76 30.118C1074.17 29.4367 1073.88 28.5173 1073.88 27.36C1073.88 26.044 1074.25 25.0453 1075 24.364C1075.61 23.7947 1076.41 23.51 1077.38 23.51C1078.52 23.51 1079.38 23.8787 1079.95 24.616C1080.51 25.3253 1080.79 26.338 1080.79 27.654H1075.25C1075.31 28.5127 1075.57 29.152 1076.03 29.572C1076.42 29.908 1076.9 30.076 1077.49 30.076C1077.95 30.076 1078.34 29.95 1078.68 29.698C1078.96 29.4833 1079.15 29.2173 1079.25 28.9ZM1077.41 24.588C1076.81 24.588 1076.33 24.7747 1075.96 25.148C1075.62 25.4933 1075.4 25.974 1075.31 26.59H1079.42C1079.38 25.89 1079.14 25.3673 1078.72 25.022C1078.39 24.7327 1077.95 24.588 1077.41 24.588ZM1084.34 31H1082.71V29.376H1084.34V31ZM1091.14 28.662H1092.61C1092.5 29.446 1092.13 30.076 1091.51 30.552C1090.94 30.9907 1090.24 31.21 1089.42 31.21C1088.35 31.21 1087.49 30.8413 1086.86 30.104C1086.27 29.4227 1085.98 28.5267 1085.98 27.416C1085.98 26.128 1086.33 25.1293 1087.04 24.42C1087.65 23.8133 1088.44 23.51 1089.41 23.51C1090.3 23.51 1091.04 23.748 1091.62 24.224C1092.13 24.644 1092.45 25.1947 1092.56 25.876H1091.07C1090.98 25.484 1090.79 25.1807 1090.5 24.966C1090.22 24.7513 1089.87 24.644 1089.44 24.644C1088.77 24.644 1088.26 24.9053 1087.91 25.428C1087.57 25.9133 1087.41 26.59 1087.41 27.458C1087.41 28.3633 1087.63 29.0493 1088.08 29.516C1088.43 29.8893 1088.89 30.076 1089.45 30.076C1089.94 30.076 1090.33 29.936 1090.64 29.656C1090.91 29.4133 1091.08 29.082 1091.14 28.662ZM1093.73 27.36C1093.73 26.0253 1094.13 25.0173 1094.92 24.336C1095.55 23.7853 1096.36 23.51 1097.33 23.51C1098.46 23.51 1099.34 23.8693 1099.99 24.588C1100.6 25.26 1100.91 26.184 1100.91 27.36C1100.91 28.676 1100.52 29.6793 1099.75 30.37C1099.12 30.93 1098.3 31.21 1097.31 31.21C1096.18 31.21 1095.29 30.8367 1094.64 30.09C1094.03 29.4087 1093.73 28.4987 1093.73 27.36ZM1095.13 27.36C1095.13 28.2933 1095.37 29.0073 1095.84 29.502C1096.24 29.9127 1096.74 30.118 1097.34 30.118C1098.05 30.118 1098.6 29.852 1098.98 29.32C1099.33 28.8347 1099.51 28.1813 1099.51 27.36C1099.51 26.408 1099.28 25.6893 1098.81 25.204C1098.43 24.8027 1097.93 24.602 1097.33 24.602C1096.63 24.602 1096.08 24.868 1095.69 25.4C1095.32 25.8853 1095.13 26.5387 1095.13 27.36ZM1103.79 31H1102.45V23.72H1103.55L1103.71 24.644C1104.25 23.888 1104.99 23.51 1105.92 23.51C1106.78 23.51 1107.44 23.776 1107.89 24.308C1108.3 24.784 1108.5 25.4327 1108.5 26.254V31H1107.15V26.268C1107.15 25.1947 1106.63 24.658 1105.6 24.658C1105.06 24.658 1104.61 24.8447 1104.27 25.218C1103.95 25.554 1103.79 25.9833 1103.79 26.506V31ZM1113.64 29.922V31.07C1113.29 31.1633 1112.96 31.21 1112.65 31.21C1111.97 31.21 1111.47 31 1111.13 30.58C1110.84 30.2347 1110.7 29.7727 1110.7 29.194V24.868H1109.62V23.72H1110.7L1110.78 21.97H1112.04V23.72H1113.61V24.868H1112.04V29.222C1112.04 29.7633 1112.3 30.034 1112.81 30.034C1113.06 30.034 1113.33 29.9967 1113.64 29.922ZM1119.79 28.9H1121.25C1121.04 29.6373 1120.64 30.216 1120.03 30.636C1119.46 31.0187 1118.78 31.21 1117.99 31.21C1116.84 31.21 1115.94 30.846 1115.3 30.118C1114.71 29.4367 1114.42 28.5173 1114.42 27.36C1114.42 26.044 1114.79 25.0453 1115.54 24.364C1116.15 23.7947 1116.94 23.51 1117.92 23.51C1119.05 23.51 1119.91 23.8787 1120.49 24.616C1121.05 25.3253 1121.33 26.338 1121.33 27.654H1115.79C1115.84 28.5127 1116.1 29.152 1116.57 29.572C1116.95 29.908 1117.44 30.076 1118.03 30.076C1118.48 30.076 1118.88 29.95 1119.22 29.698C1119.5 29.4833 1119.69 29.2173 1119.79 28.9ZM1117.94 24.588C1117.35 24.588 1116.87 24.7747 1116.5 25.148C1116.16 25.4933 1115.94 25.974 1115.84 26.59H1119.96C1119.91 25.89 1119.68 25.3673 1119.26 25.022C1118.92 24.7327 1118.48 24.588 1117.94 24.588ZM1124.29 31H1122.94V23.72H1124.05L1124.2 24.644C1124.74 23.888 1125.48 23.51 1126.41 23.51C1127.27 23.51 1127.93 23.776 1128.39 24.308C1128.79 24.784 1128.99 25.4327 1128.99 26.254V31H1127.65V26.268C1127.65 25.1947 1127.13 24.658 1126.09 24.658C1125.55 24.658 1125.11 24.8447 1124.76 25.218C1124.45 25.554 1124.29 25.9833 1124.29 26.506V31ZM1134.13 29.922V31.07C1133.79 31.1633 1133.46 31.21 1133.14 31.21C1132.47 31.21 1131.96 31 1131.63 30.58C1131.34 30.2347 1131.19 29.7727 1131.19 29.194V24.868H1130.12V23.72H1131.19L1131.28 21.97H1132.54V23.72H1134.11V24.868H1132.54V29.222C1132.54 29.7633 1132.79 30.034 1133.31 30.034C1133.55 30.034 1133.83 29.9967 1134.13 29.922ZM1137.33 31H1135.71V29.376H1137.33V31ZM1140.7 31H1139.6V20.92H1140.94V24.728C1141.51 23.916 1142.32 23.51 1143.38 23.51C1144.42 23.51 1145.23 23.8833 1145.81 24.63C1146.32 25.302 1146.58 26.1933 1146.58 27.304C1146.58 28.62 1146.23 29.628 1145.53 30.328C1144.94 30.916 1144.19 31.21 1143.28 31.21C1142.24 31.21 1141.45 30.818 1140.91 30.034L1140.7 31ZM1145.18 27.276C1145.18 26.3613 1144.95 25.6753 1144.5 25.218C1144.13 24.8447 1143.66 24.658 1143.07 24.658C1142.39 24.658 1141.84 24.9053 1141.44 25.4C1141.06 25.876 1140.87 26.5013 1140.87 27.276C1140.87 28.2093 1141.1 28.9233 1141.56 29.418C1141.94 29.8473 1142.44 30.062 1143.07 30.062C1143.77 30.062 1144.3 29.8053 1144.66 29.292C1145.01 28.816 1145.18 28.144 1145.18 27.276ZM1151.37 29.922V31.07C1151.03 31.1633 1150.7 31.21 1150.38 31.21C1149.71 31.21 1149.2 31 1148.87 30.58C1148.58 30.2347 1148.43 29.7727 1148.43 29.194V24.868H1147.36V23.72H1148.43L1148.52 21.97H1149.78V23.72H1151.35V24.868H1149.78V29.222C1149.78 29.7633 1150.04 30.034 1150.55 30.034C1150.79 30.034 1151.07 29.9967 1151.37 29.922ZM1153.98 31H1152.64V23.72H1153.74L1153.9 24.644C1154.44 23.888 1155.18 23.51 1156.11 23.51C1156.97 23.51 1157.63 23.776 1158.08 24.308C1158.49 24.784 1158.69 25.4327 1158.69 26.254V31H1157.34V26.268C1157.34 25.1947 1156.82 24.658 1155.79 24.658C1155.25 24.658 1154.8 24.8447 1154.46 25.218C1154.14 25.554 1153.98 25.9833 1153.98 26.506V31ZM1162.51 31H1160.89V29.376H1162.51V31ZM1166.12 31H1164.78V23.72H1165.88L1166.04 24.644C1166.58 23.888 1167.32 23.51 1168.25 23.51C1169.11 23.51 1169.77 23.776 1170.22 24.308C1170.63 24.784 1170.83 25.4327 1170.83 26.254V31H1169.48V26.268C1169.48 25.1947 1168.96 24.658 1167.93 24.658C1167.39 24.658 1166.94 24.8447 1166.6 25.218C1166.28 25.554 1166.12 25.9833 1166.12 26.506V31ZM1177.68 28.9H1179.13C1178.93 29.6373 1178.52 30.216 1177.92 30.636C1177.35 31.0187 1176.67 31.21 1175.87 31.21C1174.72 31.21 1173.83 30.846 1173.18 30.118C1172.6 29.4367 1172.3 28.5173 1172.3 27.36C1172.3 26.044 1172.68 25.0453 1173.42 24.364C1174.04 23.7947 1174.83 23.51 1175.8 23.51C1176.94 23.51 1177.8 23.8787 1178.38 24.616C1178.94 25.3253 1179.22 26.338 1179.22 27.654H1173.67C1173.73 28.5127 1173.99 29.152 1174.46 29.572C1174.84 29.908 1175.33 30.076 1175.91 30.076C1176.37 30.076 1176.77 29.95 1177.1 29.698C1177.38 29.4833 1177.58 29.2173 1177.68 28.9ZM1175.83 24.588C1175.23 24.588 1174.75 24.7747 1174.39 25.148C1174.04 25.4933 1173.82 25.974 1173.73 26.59H1177.85C1177.8 25.89 1177.57 25.3673 1177.15 25.022C1176.81 24.7327 1176.37 24.588 1175.83 24.588ZM1180.76 23.72H1182.1V28.494C1182.1 29.5393 1182.61 30.062 1183.62 30.062C1184.23 30.062 1184.7 29.8427 1185.03 29.404C1185.28 29.068 1185.41 28.6527 1185.41 28.158V23.72H1186.75V31H1185.65L1185.49 30.16C1184.98 30.86 1184.25 31.21 1183.31 31.21C1182.48 31.21 1181.84 30.9533 1181.39 30.44C1180.97 29.964 1180.76 29.306 1180.76 28.466V23.72ZM1191.97 29.922V31.07C1191.62 31.1633 1191.29 31.21 1190.97 31.21C1190.3 31.21 1189.8 31 1189.46 30.58C1189.17 30.2347 1189.03 29.7727 1189.03 29.194V24.868H1187.95V23.72H1189.03L1189.11 21.97H1190.37V23.72H1191.94V24.868H1190.37V29.222C1190.37 29.7633 1190.63 30.034 1191.14 30.034C1191.38 30.034 1191.66 29.9967 1191.97 29.922ZM1194.57 31H1193.23V23.72H1194.34L1194.52 24.798C1194.93 23.9393 1195.54 23.51 1196.37 23.51C1196.64 23.51 1196.9 23.5427 1197.16 23.608V24.952C1196.85 24.868 1196.56 24.826 1196.31 24.826C1195.77 24.826 1195.34 25.0453 1195.04 25.484C1194.73 25.9227 1194.57 26.5433 1194.57 27.346V31ZM1199.37 25.75H1197.94C1198.01 25.022 1198.36 24.4573 1198.98 24.056C1199.53 23.692 1200.22 23.51 1201.06 23.51C1202.06 23.51 1202.83 23.7713 1203.36 24.294C1203.81 24.742 1204.03 25.3207 1204.03 26.03V31H1202.92L1202.76 30.006C1202.19 30.8087 1201.37 31.21 1200.32 31.21C1199.49 31.21 1198.84 30.986 1198.37 30.538C1197.99 30.1647 1197.8 29.6933 1197.8 29.124C1197.8 28.4053 1198.05 27.85 1198.54 27.458C1198.98 27.1127 1199.65 26.8607 1200.56 26.702L1202.69 26.338V25.974C1202.69 25.498 1202.52 25.1387 1202.2 24.896C1201.91 24.6813 1201.51 24.574 1201.01 24.574C1200.02 24.574 1199.47 24.966 1199.37 25.75ZM1200.64 30.076C1201.21 30.076 1201.71 29.8893 1202.13 29.516C1202.5 29.1707 1202.69 28.774 1202.69 28.326V27.388L1200.88 27.71C1200.22 27.822 1199.76 27.9947 1199.52 28.228C1199.33 28.4147 1199.23 28.6667 1199.23 28.984C1199.23 29.3387 1199.35 29.6093 1199.59 29.796C1199.83 29.9827 1200.18 30.076 1200.64 30.076ZM1207.26 20.92V31H1205.92V20.92H1207.26ZM1211.16 31H1209.53V29.376H1211.16V31ZM1213.42 23.72H1214.53L1214.74 24.672C1215.34 23.8973 1216.16 23.51 1217.2 23.51C1218.25 23.51 1219.06 23.8833 1219.64 24.63C1220.15 25.302 1220.41 26.1933 1220.41 27.304C1220.41 28.62 1220.06 29.628 1219.36 30.328C1218.77 30.916 1218.02 31.21 1217.11 31.21C1216.07 31.21 1215.29 30.8273 1214.77 30.062V33.52H1213.42V23.72ZM1219.01 27.276C1219.01 26.3613 1218.78 25.6753 1218.32 25.218C1217.96 24.8447 1217.48 24.658 1216.9 24.658C1216.21 24.658 1215.67 24.9053 1215.27 25.4C1214.89 25.876 1214.7 26.5013 1214.7 27.276C1214.7 28.2093 1214.93 28.9233 1215.38 29.418C1215.77 29.8473 1216.27 30.062 1216.9 30.062C1217.6 30.062 1218.13 29.8053 1218.49 29.292C1218.84 28.816 1219.01 28.144 1219.01 27.276ZM1223.3 31H1221.95V23.72H1223.06L1223.24 24.798C1223.65 23.9393 1224.27 23.51 1225.09 23.51C1225.36 23.51 1225.63 23.5427 1225.89 23.608V24.952C1225.57 24.868 1225.29 24.826 1225.03 24.826C1224.49 24.826 1224.07 25.0453 1223.76 25.484C1223.45 25.9227 1223.3 26.5433 1223.3 27.346V31ZM1228.37 22.502H1226.86V20.92H1228.37V22.502ZM1228.29 31H1226.94V23.72H1228.29V31ZM1231.6 31H1230.25V23.72H1231.36L1231.5 24.574C1231.99 23.8647 1232.71 23.51 1233.64 23.51C1234.66 23.51 1235.37 23.8927 1235.78 24.658C1236.27 23.8927 1237.06 23.51 1238.15 23.51C1238.96 23.51 1239.59 23.7573 1240.03 24.252C1240.42 24.7093 1240.61 25.3347 1240.61 26.128V31H1239.27V26.226C1239.27 25.1807 1238.8 24.658 1237.86 24.658C1237.3 24.658 1236.85 24.8773 1236.51 25.316C1236.24 25.6707 1236.11 26.086 1236.11 26.562V31H1234.76V26.226C1234.76 25.1807 1234.29 24.658 1233.35 24.658C1232.82 24.658 1232.39 24.8633 1232.05 25.274C1231.75 25.6193 1231.6 26.0347 1231.6 26.52V31ZM1243.65 25.75H1242.22C1242.3 25.022 1242.64 24.4573 1243.26 24.056C1243.81 23.692 1244.51 23.51 1245.35 23.51C1246.34 23.51 1247.11 23.7713 1247.64 24.294C1248.09 24.742 1248.31 25.3207 1248.31 26.03V31H1247.21L1247.04 30.006C1246.47 30.8087 1245.66 31.21 1244.6 31.21C1243.77 31.21 1243.12 30.986 1242.66 30.538C1242.27 30.1647 1242.08 29.6933 1242.08 29.124C1242.08 28.4053 1242.33 27.85 1242.83 27.458C1243.26 27.1127 1243.94 26.8607 1244.84 26.702L1246.97 26.338V25.974C1246.97 25.498 1246.81 25.1387 1246.48 24.896C1246.19 24.6813 1245.79 24.574 1245.29 24.574C1244.3 24.574 1243.75 24.966 1243.65 25.75ZM1244.93 30.076C1245.49 30.076 1245.99 29.8893 1246.41 29.516C1246.78 29.1707 1246.97 28.774 1246.97 28.326V27.388L1245.16 27.71C1244.5 27.822 1244.05 27.9947 1243.81 28.228C1243.61 28.4147 1243.51 28.6667 1243.51 28.984C1243.51 29.3387 1243.63 29.6093 1243.88 29.796C1244.12 29.9827 1244.47 30.076 1244.93 30.076ZM1251.54 31H1250.2V23.72H1251.31L1251.49 24.798C1251.9 23.9393 1252.52 23.51 1253.34 23.51C1253.61 23.51 1253.87 23.5427 1254.13 23.608V24.952C1253.82 24.868 1253.53 24.826 1253.28 24.826C1252.74 24.826 1252.31 25.0453 1252.01 25.484C1251.7 25.9227 1251.54 26.5433 1251.54 27.346V31ZM1261.27 23.72L1258.73 31.098C1258.4 32.078 1258.07 32.7453 1257.77 33.1C1257.4 33.52 1256.93 33.73 1256.35 33.73C1256.11 33.73 1255.82 33.688 1255.48 33.604V32.512C1255.75 32.5773 1255.98 32.61 1256.18 32.61C1256.47 32.61 1256.7 32.5073 1256.86 32.302C1257.02 32.106 1257.22 31.672 1257.46 31H1257.02L1254.35 23.72H1255.81L1257.86 29.908L1259.92 23.72H1261.27ZM1263.48 31H1261.86V29.376H1263.48V31ZM1012.55 52H1011.44L1011.2 50.978C1010.64 51.7993 1009.83 52.21 1008.78 52.21C1007.76 52.21 1006.96 51.8413 1006.37 51.104C1005.83 50.4227 1005.56 49.522 1005.56 48.402C1005.56 47.0487 1005.91 46.0313 1006.6 45.35C1007.17 44.79 1007.93 44.51 1008.86 44.51C1009.87 44.51 1010.65 44.888 1011.2 45.644V41.92H1012.55V52ZM1006.96 48.43C1006.96 49.3353 1007.18 50.0213 1007.63 50.488C1008.01 50.8707 1008.49 51.062 1009.07 51.062C1009.8 51.062 1010.37 50.7867 1010.77 50.236C1011.1 49.76 1011.27 49.1627 1011.27 48.444C1011.27 47.5013 1011.05 46.7827 1010.6 46.288C1010.22 45.868 1009.71 45.658 1009.07 45.658C1008.36 45.658 1007.83 45.9147 1007.46 46.428C1007.13 46.8947 1006.96 47.562 1006.96 48.43ZM1015.94 43.502H1014.43V41.92H1015.94V43.502ZM1015.86 52H1014.51V44.72H1015.86V52ZM1022.08 50.026C1022.08 49.6153 1021.86 49.3073 1021.43 49.102C1021.18 48.99 1020.69 48.85 1019.96 48.682C1019.07 48.486 1018.43 48.2013 1018.04 47.828C1017.73 47.5107 1017.57 47.0953 1017.57 46.582C1017.57 45.9007 1017.84 45.378 1018.39 45.014C1018.89 44.678 1019.56 44.51 1020.4 44.51C1021.26 44.51 1021.97 44.7247 1022.51 45.154C1022.98 45.5273 1023.27 46.022 1023.38 46.638H1022.01C1021.85 45.9287 1021.31 45.574 1020.38 45.574C1019.87 45.574 1019.49 45.6673 1019.23 45.854C1019.03 46.0127 1018.93 46.2133 1018.93 46.456C1018.93 46.7547 1019.04 46.9787 1019.26 47.128C1019.5 47.2773 1019.95 47.4267 1020.62 47.576C1021.65 47.8 1022.36 48.0753 1022.76 48.402C1023.21 48.766 1023.43 49.2747 1023.43 49.928C1023.43 50.656 1023.14 51.23 1022.54 51.65C1022 52.0233 1021.28 52.21 1020.4 52.21C1019.43 52.21 1018.66 51.9767 1018.09 51.51C1017.59 51.0993 1017.32 50.5673 1017.26 49.914H1018.63C1018.78 50.7353 1019.37 51.146 1020.41 51.146C1020.97 51.146 1021.4 51.0247 1021.71 50.782C1021.95 50.586 1022.08 50.334 1022.08 50.026ZM1026.12 46.75H1024.69C1024.76 46.022 1025.11 45.4573 1025.73 45.056C1026.28 44.692 1026.97 44.51 1027.81 44.51C1028.81 44.51 1029.58 44.7713 1030.11 45.294C1030.56 45.742 1030.78 46.3207 1030.78 47.03V52H1029.67L1029.51 51.006C1028.94 51.8087 1028.12 52.21 1027.07 52.21C1026.24 52.21 1025.59 51.986 1025.12 51.538C1024.74 51.1647 1024.55 50.6933 1024.55 50.124C1024.55 49.4053 1024.8 48.85 1025.29 48.458C1025.73 48.1127 1026.4 47.8607 1027.31 47.702L1029.44 47.338V46.974C1029.44 46.498 1029.27 46.1387 1028.95 45.896C1028.66 45.6813 1028.26 45.574 1027.76 45.574C1026.77 45.574 1026.22 45.966 1026.12 46.75ZM1027.39 51.076C1027.96 51.076 1028.46 50.8893 1028.88 50.516C1029.25 50.1707 1029.44 49.774 1029.44 49.326V48.388L1027.63 48.71C1026.97 48.822 1026.51 48.9947 1026.27 49.228C1026.08 49.4147 1025.98 49.6667 1025.98 49.984C1025.98 50.3387 1026.1 50.6093 1026.34 50.796C1026.58 50.9827 1026.93 51.076 1027.39 51.076ZM1033.77 52H1032.67V41.92H1034.01V45.728C1034.58 44.916 1035.39 44.51 1036.45 44.51C1037.49 44.51 1038.3 44.8833 1038.88 45.63C1039.4 46.302 1039.65 47.1933 1039.65 48.304C1039.65 49.62 1039.3 50.628 1038.6 51.328C1038.02 51.916 1037.26 52.21 1036.35 52.21C1035.31 52.21 1034.52 51.818 1033.98 51.034L1033.77 52ZM1038.25 48.276C1038.25 47.3613 1038.02 46.6753 1037.57 46.218C1037.2 45.8447 1036.73 45.658 1036.14 45.658C1035.46 45.658 1034.92 45.9053 1034.52 46.4C1034.13 46.876 1033.94 47.5013 1033.94 48.276C1033.94 49.2093 1034.17 49.9233 1034.63 50.418C1035.01 50.8473 1035.51 51.062 1036.14 51.062C1036.84 51.062 1037.37 50.8053 1037.74 50.292C1038.08 49.816 1038.25 49.144 1038.25 48.276ZM1042.54 41.92V52H1041.2V41.92H1042.54ZM1049.46 49.9H1050.92C1050.71 50.6373 1050.31 51.216 1049.7 51.636C1049.13 52.0187 1048.45 52.21 1047.66 52.21C1046.51 52.21 1045.61 51.846 1044.97 51.118C1044.38 50.4367 1044.09 49.5173 1044.09 48.36C1044.09 47.044 1044.46 46.0453 1045.21 45.364C1045.82 44.7947 1046.62 44.51 1047.59 44.51C1048.73 44.51 1049.58 44.8787 1050.16 45.616C1050.72 46.3253 1051 47.338 1051 48.654H1045.46C1045.52 49.5127 1045.78 50.152 1046.24 50.572C1046.63 50.908 1047.11 51.076 1047.7 51.076C1048.16 51.076 1048.55 50.95 1048.89 50.698C1049.17 50.4833 1049.36 50.2173 1049.46 49.9ZM1047.62 45.588C1047.02 45.588 1046.54 45.7747 1046.17 46.148C1045.83 46.4933 1045.61 46.974 1045.52 47.59H1049.63C1049.58 46.89 1049.35 46.3673 1048.93 46.022C1048.6 45.7327 1048.16 45.588 1047.62 45.588ZM1059.18 52H1058.07L1057.84 50.978C1057.28 51.7993 1056.47 52.21 1055.41 52.21C1054.4 52.21 1053.59 51.8413 1053.01 51.104C1052.47 50.4227 1052.19 49.522 1052.19 48.402C1052.19 47.0487 1052.54 46.0313 1053.23 45.35C1053.81 44.79 1054.57 44.51 1055.5 44.51C1056.51 44.51 1057.29 44.888 1057.84 45.644V41.92H1059.18V52ZM1053.59 48.43C1053.59 49.3353 1053.82 50.0213 1054.27 50.488C1054.64 50.8707 1055.12 51.062 1055.71 51.062C1056.44 51.062 1057 50.7867 1057.4 50.236C1057.74 49.76 1057.91 49.1627 1057.91 48.444C1057.91 47.5013 1057.68 46.7827 1057.23 46.288C1056.85 45.868 1056.34 45.658 1055.71 45.658C1055 45.658 1054.46 45.9147 1054.1 46.428C1053.76 46.8947 1053.59 47.562 1053.59 48.43Z" fill="white" fill-opacity="0.95"/>
</svg>
