<svg width="1300" height="232" viewBox="0 0 1300 232" fill="none" xmlns="http://www.w3.org/2000/svg">
<rect width="1300" height="232" rx="24" fill="#262626"/>
<path d="M597.5 116C597.5 107.44 604.44 100.5 613 100.5H662.5V131.5H613C604.44 131.5 597.5 124.56 597.5 116Z" stroke="white" stroke-opacity="0.2"/>
<path d="M610.409 109.48H612.473V119.32H617.961V121H610.409V109.48ZM621.198 115.032H619.198C619.336 114.168 619.768 113.507 620.494 113.048C621.144 112.643 621.96 112.44 622.942 112.44C624.126 112.44 625.032 112.744 625.662 113.352C626.206 113.875 626.478 114.552 626.478 115.384V121H624.942L624.702 119.976C624.051 120.819 623.128 121.24 621.934 121.24C620.984 121.24 620.248 120.984 619.726 120.472C619.267 120.024 619.038 119.453 619.038 118.76C619.038 117.981 619.32 117.373 619.886 116.936C620.398 116.531 621.192 116.237 622.27 116.056L624.558 115.672V115.272C624.558 114.771 624.392 114.397 624.062 114.152C623.774 113.928 623.379 113.816 622.878 113.816C621.886 113.816 621.326 114.221 621.198 115.032ZM624.558 116.936L622.75 117.256C622.131 117.373 621.688 117.539 621.422 117.752C621.155 117.955 621.022 118.243 621.022 118.616C621.022 119.395 621.496 119.784 622.446 119.784C623.064 119.784 623.587 119.581 624.014 119.176C624.376 118.824 624.558 118.413 624.558 117.944V116.936ZM628.438 109.48H630.358V113.688C631.019 112.856 631.91 112.44 633.03 112.44C634.235 112.44 635.163 112.851 635.814 113.672C636.411 114.419 636.71 115.421 636.71 116.68C636.71 118.216 636.299 119.395 635.478 120.216C634.806 120.899 633.937 121.24 632.87 121.24C631.771 121.24 630.907 120.824 630.278 119.992L629.974 121H628.438V109.48ZM634.742 116.76C634.742 115.757 634.513 115.016 634.054 114.536C633.681 114.152 633.179 113.96 632.55 113.96C631.835 113.96 631.27 114.221 630.854 114.744C630.47 115.245 630.278 115.912 630.278 116.744C630.278 117.789 630.513 118.568 630.982 119.08C631.377 119.507 631.889 119.72 632.518 119.72C633.254 119.72 633.814 119.448 634.198 118.904C634.561 118.392 634.742 117.677 634.742 116.76ZM643.992 118.6H646.008C645.784 119.453 645.32 120.115 644.616 120.584C643.944 121.021 643.118 121.24 642.136 121.24C640.782 121.24 639.726 120.813 638.968 119.96C638.275 119.181 637.928 118.141 637.928 116.84C637.928 115.347 638.36 114.205 639.224 113.416C639.95 112.765 640.894 112.44 642.056 112.44C643.411 112.44 644.435 112.883 645.128 113.768C645.779 114.589 646.104 115.763 646.104 117.288H639.88C639.955 118.184 640.232 118.84 640.712 119.256C641.096 119.597 641.598 119.768 642.216 119.768C642.654 119.768 643.032 119.661 643.352 119.448C643.672 119.235 643.886 118.952 643.992 118.6ZM644.136 115.976C644.094 115.197 643.859 114.627 643.432 114.264C643.08 113.955 642.622 113.8 642.056 113.8C641.438 113.8 640.942 114.003 640.568 114.408C640.227 114.771 640.008 115.293 639.912 115.976H644.136ZM649.671 109.48V121H647.751V109.48H649.671Z" fill="white" fill-opacity="0.95"/>
<mask id="path-5-inside-1_2135_7834" fill="white">
<path d="M663 100H687C695.837 100 703 107.163 703 116C703 124.837 695.837 132 687 132H663V100Z"/>
</mask>
<path d="M663 99H687C696.389 99 704 106.611 704 116H702C702 107.716 695.284 101 687 101H663V99ZM704 116C704 125.389 696.389 133 687 133H663V131H687C695.284 131 702 124.284 702 116H704ZM663 132V100V132ZM687 99C696.389 99 704 106.611 704 116C704 125.389 696.389 133 687 133V131C695.284 131 702 124.284 702 116C702 107.716 695.284 101 687 101V99Z" fill="white" fill-opacity="0.2" mask="url(#path-5-inside-1_2135_7834)"/>
<path d="M689.354 112.647C689.26 112.553 689.133 112.5 689.001 112.5C688.868 112.5 688.741 112.553 688.647 112.647L683 118.293L677.354 112.647C677.26 112.555 677.133 112.505 677.002 112.506C676.871 112.507 676.745 112.559 676.652 112.652C676.559 112.745 676.507 112.87 676.506 113.002C676.505 113.133 676.556 113.259 676.647 113.354L682.647 119.354C682.741 119.447 682.868 119.5 683 119.5C683.133 119.5 683.26 119.447 683.354 119.354L689.354 113.354C689.448 113.26 689.5 113.133 689.501 113C689.501 112.868 689.448 112.74 689.354 112.647Z" fill="white" fill-opacity="0.95"/>
</svg>
