<svg width="630" height="144" viewBox="0 0 630 144" fill="none" xmlns="http://www.w3.org/2000/svg">
<rect width="630" height="144" rx="24" fill="#262626"/>
<g clip-path="url(#clip0_2135_6368)">
<path d="M269.32 69H267L266.999 66.75C266.999 66.6029 266.956 66.4589 266.875 66.3362C266.794 66.2135 266.678 66.1173 266.543 66.0598C266.407 66.0022 266.258 65.9857 266.113 66.0125C265.968 66.0392 265.835 66.1079 265.729 66.21L260.219 71.4706C260.149 71.5413 260.094 71.625 260.057 71.717C260.02 71.8089 260.001 71.9073 260.002 72.0065C260.003 72.1056 260.023 72.2037 260.062 72.295C260.101 72.3863 260.157 72.469 260.228 72.5385L265.725 77.785C265.83 77.8886 265.964 77.9587 266.109 77.9866C266.254 78.0145 266.404 77.9988 266.54 77.9417C266.677 77.8845 266.793 77.7884 266.875 77.6653C266.957 77.5423 267 77.3978 267 77.25V75H269.293C272.392 75 272.993 77.0425 273.016 77.126C273.047 77.244 273.119 77.3467 273.22 77.4151C273.321 77.4834 273.443 77.5125 273.564 77.4971C273.685 77.4816 273.796 77.4226 273.876 77.3311C273.957 77.2395 274.001 77.1218 274 77V73.4945C273.995 72.8902 273.868 72.2932 273.628 71.7384C273.389 71.1836 273.041 70.6822 272.605 70.2636C272.169 69.8451 271.654 69.5177 271.09 69.3007C270.526 69.0837 269.924 68.9815 269.32 69ZM273 75.3042C272.308 74.6322 271.16 74 269.293 74H266.5C266.368 74 266.241 74.0527 266.147 74.1465C266.053 74.2402 266 74.3674 266 74.5L266 76.6659L261.112 72L265.999 67.334L266 69.5C266 69.6326 266.053 69.7598 266.147 69.8536C266.241 69.9473 266.368 70 266.5 70H269.32C269.793 69.9831 270.264 70.0605 270.706 70.2278C271.148 70.3951 271.552 70.6489 271.895 70.9743C272.237 71.2998 272.512 71.6903 272.701 72.1231C272.891 72.5558 272.993 73.0221 273 73.4947L273 75.3042Z" fill="white" fill-opacity="0.95"/>
<line x1="279.5" y1="60" x2="279.5" y2="84" stroke="white" stroke-opacity="0.3"/>
<rect width="24" height="24" transform="translate(279 60)" fill="white" fill-opacity="0.2"/>
<path d="M296.868 69.8708C296.308 70.0436 295.709 70.0479 295.146 69.8831C294.583 69.7182 294.081 69.3915 293.703 68.9436C293.324 68.4957 293.086 67.9464 293.017 67.364C292.948 66.7815 293.052 66.1917 293.316 65.668C291.866 65.1337 290.277 65.1108 288.813 65.603C287.348 66.0952 286.096 67.073 285.263 68.3744C284.43 69.6758 284.067 71.2227 284.234 72.7587C284.401 74.2947 285.087 75.7277 286.179 76.8202C287.272 77.9127 288.705 78.5992 290.241 78.7659C291.777 78.9326 293.324 78.5695 294.625 77.7367C295.927 76.904 296.904 75.6516 297.397 74.1871C297.889 72.7226 297.866 71.1338 297.332 69.6841C297.183 69.7592 297.028 69.8217 296.868 69.8708ZM294.466 73.6804C294.183 74.3664 293.703 74.9531 293.086 75.3661C292.47 75.7791 291.744 75.9999 291.002 76.0004C290.26 76.0009 289.535 75.7811 288.917 75.3689C288.3 74.9568 287.819 74.3707 287.535 73.685C287.51 73.6237 287.497 73.558 287.497 73.4916C287.497 73.4252 287.51 73.3594 287.536 73.2982C287.562 73.237 287.599 73.1815 287.647 73.1351C287.694 73.0886 287.75 73.052 287.812 73.0275C287.874 73.003 287.94 72.991 288.006 72.9923C288.073 72.9935 288.138 73.008 288.199 73.0348C288.259 73.0617 288.314 73.1004 288.36 73.1486C288.406 73.1969 288.441 73.2537 288.464 73.3159C288.674 73.8147 289.026 74.2406 289.477 74.5403C289.928 74.8399 290.456 75 290.998 75.0005C291.539 75.0009 292.068 74.8418 292.519 74.5429C292.97 74.244 293.323 73.8187 293.534 73.3202C293.583 73.1992 293.678 73.1023 293.799 73.0506C293.919 72.9988 294.054 72.9963 294.176 73.0434C294.299 73.0906 294.397 73.1837 294.451 73.3029C294.506 73.422 294.511 73.5574 294.466 73.6804ZM289.5 70.75C289.5 70.8983 289.456 71.0433 289.373 71.1667C289.291 71.29 289.174 71.3861 289.037 71.4429C288.9 71.4997 288.749 71.5145 288.604 71.4856C288.458 71.4567 288.324 71.3852 288.22 71.2803C288.115 71.1754 288.043 71.0418 288.014 70.8963C287.985 70.7508 288 70.6 288.057 70.463C288.114 70.3259 288.21 70.2088 288.333 70.1264C288.457 70.044 288.602 70 288.75 70C288.949 70 289.14 70.079 289.28 70.2197C289.421 70.3603 289.5 70.5511 289.5 70.75ZM293.25 70C293.398 70 293.543 70.044 293.667 70.1264C293.79 70.2088 293.886 70.3259 293.943 70.463C294 70.6 294.014 70.7508 293.985 70.8963C293.957 71.0418 293.885 71.1754 293.78 71.2803C293.675 71.3852 293.542 71.4567 293.396 71.4856C293.251 71.5145 293.1 71.4997 292.963 71.4429C292.826 71.3861 292.709 71.29 292.626 71.1667C292.544 71.0433 292.5 70.8983 292.5 70.75C292.5 70.5511 292.579 70.3603 292.72 70.2197C292.86 70.079 293.051 70 293.25 70Z" fill="white" fill-opacity="0.95"/>
<path d="M297.5 66.5H296.5V65.5C296.5 65.3674 296.447 65.2402 296.353 65.1464C296.26 65.0527 296.133 65 296 65C295.867 65 295.74 65.0527 295.646 65.1464C295.553 65.2402 295.5 65.3674 295.5 65.5V66.5H294.5C294.367 66.5 294.24 66.5527 294.146 66.6464C294.053 66.7402 294 66.8674 294 67L294 67.0024C294.001 67.1345 294.054 67.261 294.147 67.3542C294.241 67.4475 294.368 67.4999 294.5 67.5H295.5V68.5C295.5 68.6326 295.553 68.7598 295.646 68.8536C295.74 68.9473 295.867 69 296 69C296.133 69 296.26 68.9473 296.353 68.8536C296.447 68.7598 296.5 68.6326 296.5 68.5V67.5H297.5C297.633 67.5 297.76 67.4473 297.853 67.3536C297.947 67.2598 298 67.1326 298 67C298 66.8674 297.947 66.7402 297.853 66.6464C297.76 66.5527 297.633 66.5 297.5 66.5Z" fill="white" fill-opacity="0.95"/>
<line x1="303.5" y1="60" x2="303.5" y2="84" stroke="white" stroke-opacity="0.3"/>
<path d="M312.196 71.0814C312.131 71.0672 312.051 71.0511 311.969 71.0357C312.015 70.4376 312.234 69.866 312.6 69.3907C312.874 69.0615 313.182 68.7632 313.521 68.5011L313.735 68.3189C313.873 68.2051 313.965 68.045 313.993 67.8686C314.021 67.6922 313.983 67.5116 313.888 67.3607C313.794 67.2068 313.647 67.0919 313.475 67.0368C313.304 66.9817 313.118 66.9902 312.952 67.0606C311.845 67.5096 310.871 68.2354 310.126 69.1685C309.013 70.5269 308.434 72.245 308.5 73.9998C308.5 74.5632 308.658 75.1152 308.958 75.5926C309.257 76.07 309.684 76.4535 310.192 76.6991C310.699 76.9448 311.265 77.0427 311.825 76.9817C312.385 76.9206 312.916 76.7031 313.359 76.354C313.801 76.0049 314.136 75.5383 314.325 75.0077C314.514 74.477 314.551 73.9038 314.429 73.3536C314.308 72.8034 314.034 72.2985 313.639 71.8966C313.244 71.4948 312.744 71.2122 312.196 71.0814ZM311.5 75.9998C310.969 75.9993 310.461 75.7884 310.086 75.4135C309.711 75.0385 309.5 74.5301 309.5 73.9998C309.434 72.4893 309.923 71.0069 310.874 69.8316C311.141 69.5306 311.379 69.2813 311.61 69.0682C311.112 69.7956 310.898 70.6804 311.008 71.555C311.028 71.6553 311.077 71.7472 311.151 71.8184C311.224 71.8897 311.317 71.9369 311.418 71.9537C311.42 71.9542 311.783 72.0143 311.971 72.0558C312.447 72.1712 312.863 72.457 313.142 72.8589C313.422 73.2609 313.544 73.7512 313.485 74.2371C313.427 74.7229 313.193 75.1707 312.827 75.4955C312.461 75.8203 311.989 75.9998 311.5 75.9998Z" fill="white" fill-opacity="0.95"/>
<path d="M319.196 71.0814C319.131 71.0672 319.051 71.0511 318.969 71.0357C319.015 70.4376 319.234 69.866 319.6 69.3907C319.874 69.0615 320.182 68.7632 320.521 68.5011L320.735 68.3189C320.873 68.2051 320.965 68.045 320.993 67.8686C321.021 67.6922 320.983 67.5116 320.888 67.3607C320.794 67.2068 320.647 67.0919 320.475 67.0368C320.304 66.9817 320.118 66.9902 319.952 67.0606C318.845 67.5096 317.872 68.2354 317.126 69.1685C316.013 70.5269 315.434 72.245 315.5 73.9998C315.5 74.5632 315.658 75.1152 315.958 75.5926C316.257 76.07 316.684 76.4535 317.191 76.6991C317.699 76.9448 318.264 77.0427 318.825 76.9817C319.385 76.9206 319.916 76.7031 320.358 76.354C320.801 76.0049 321.136 75.5383 321.325 75.0077C321.514 74.477 321.551 73.9038 321.429 73.3536C321.308 72.8034 321.034 72.2985 320.639 71.8966C320.244 71.4948 319.744 71.2122 319.196 71.0814ZM318.5 75.9998C317.969 75.9993 317.461 75.7884 317.086 75.4135C316.711 75.0385 316.5 74.5301 316.5 73.9998C316.434 72.4893 316.923 71.0069 317.874 69.8316C318.141 69.5306 318.379 69.2813 318.61 69.0682C318.112 69.7956 317.898 70.6804 318.008 71.555C318.028 71.6553 318.077 71.7472 318.151 71.8184C318.224 71.8897 318.317 71.9369 318.418 71.9537C318.42 71.9542 318.783 72.0143 318.971 72.0558C319.447 72.1712 319.863 72.457 320.142 72.8589C320.422 73.2609 320.544 73.7512 320.485 74.2371C320.427 74.7229 320.193 75.1707 319.827 75.4955C319.461 75.8203 318.989 75.9998 318.5 75.9998Z" fill="white" fill-opacity="0.95"/>
<line x1="327.5" y1="60" x2="327.5" y2="84" stroke="white" stroke-opacity="0.3"/>
<path d="M345.772 71.4617L340.275 66.215C340.17 66.1115 340.036 66.0415 339.891 66.0137C339.746 65.9858 339.596 66.0015 339.459 66.0586C339.323 66.1158 339.207 66.2119 339.125 66.3349C339.043 66.4579 339 66.6023 339 66.75L339 69.0005L332.998 69.0037C332.733 69.0046 332.48 69.1103 332.293 69.2977C332.106 69.4851 332 69.7389 332 70.0037V74C332 74.2651 332.106 74.5193 332.293 74.7068C332.481 74.8942 332.735 74.9997 333 75H339V77.25C339 77.3977 339.043 77.5422 339.125 77.6652C339.207 77.7883 339.323 77.8844 339.459 77.9414C339.552 77.9803 339.651 78.0004 339.752 78.0005C339.946 78.001 340.132 77.9254 340.271 77.7901L345.781 72.5303C345.85 72.4608 345.906 72.378 345.944 72.2869C345.981 72.1957 346 72.0979 346 71.9993C346 71.899 345.98 71.7998 345.94 71.7074C345.901 71.6151 345.844 71.5315 345.772 71.4617ZM340 76.6658V74.5C340 74.3674 339.947 74.2402 339.854 74.1465C339.76 74.0527 339.633 74 339.5 74H333L333 70.0035L339.501 70C339.633 69.9999 339.76 69.9471 339.854 69.8534C339.947 69.7596 340 69.6325 340 69.5L340 67.3343L344.888 72L340 76.6658Z" fill="white" fill-opacity="0.95"/>
<line x1="351.5" y1="60" x2="351.5" y2="84" stroke="white" stroke-opacity="0.3"/>
<path d="M363 72.75C363.414 72.75 363.75 72.4142 363.75 72C363.75 71.5858 363.414 71.25 363 71.25C362.586 71.25 362.25 71.5858 362.25 72C362.25 72.4142 362.586 72.75 363 72.75Z" fill="white" fill-opacity="0.95"/>
<path d="M359.25 72.75C359.664 72.75 360 72.4142 360 72C360 71.5858 359.664 71.25 359.25 71.25C358.836 71.25 358.5 71.5858 358.5 72C358.5 72.4142 358.836 72.75 359.25 72.75Z" fill="white" fill-opacity="0.95"/>
<path d="M366.75 72.75C367.164 72.75 367.5 72.4142 367.5 72C367.5 71.5858 367.164 71.25 366.75 71.25C366.336 71.25 366 71.5858 366 72C366 72.4142 366.336 72.75 366.75 72.75Z" fill="white" fill-opacity="0.95"/>
</g>
<rect x="254.5" y="59.5" width="121" height="25" rx="12.5" stroke="white" stroke-opacity="0.3"/>
<defs>
<clipPath id="clip0_2135_6368">
<rect x="255" y="60" width="120" height="24" rx="12" fill="white"/>
</clipPath>
</defs>
</svg>
