<svg width="630" height="152" viewBox="0 0 630 152" fill="none" xmlns="http://www.w3.org/2000/svg">
<rect width="630" height="152" rx="24" fill="#262626"/>
<g clip-path="url(#clip0_2135_6495)">
<path d="M304 75.4998H299.5V70.9998C299.5 70.8672 299.447 70.7401 299.354 70.6463C299.26 70.5525 299.133 70.4998 299 70.4998C298.867 70.4998 298.74 70.5525 298.646 70.6463C298.553 70.7401 298.5 70.8672 298.5 70.9998V75.4998H294C293.867 75.4998 293.74 75.5525 293.646 75.6463C293.553 75.7401 293.5 75.8672 293.5 75.9998C293.5 76.1325 293.553 76.2596 293.646 76.3534C293.74 76.4472 293.867 76.4998 294 76.4998H298.5V80.9998C298.5 81.1325 298.553 81.2596 298.646 81.3534C298.74 81.4472 298.867 81.4998 299 81.4998C299.133 81.4998 299.26 81.4472 299.354 81.3534C299.447 81.2596 299.5 81.1325 299.5 80.9998V76.4998H304C304.133 76.4998 304.26 76.4472 304.354 76.3534C304.447 76.2596 304.5 76.1325 304.5 75.9998C304.5 75.8672 304.447 75.7401 304.354 75.6463C304.26 75.5525 304.133 75.4998 304 75.4998Z" fill="white" fill-opacity="0.95"/>
<line x1="315.5" y1="60" x2="315.5" y2="92" stroke="white" stroke-opacity="0.3"/>
<path d="M336 76.4998H326C325.867 76.4998 325.74 76.4472 325.646 76.3534C325.553 76.2596 325.5 76.1325 325.5 75.9998C325.5 75.8672 325.553 75.7401 325.646 75.6463C325.74 75.5525 325.867 75.4998 326 75.4998H336C336.133 75.4998 336.26 75.5525 336.354 75.6463C336.447 75.7401 336.5 75.8672 336.5 75.9998C336.5 76.1325 336.447 76.2596 336.354 76.3534C336.26 76.4472 336.133 76.4998 336 76.4998Z" fill="white" fill-opacity="0.95"/>
</g>
<rect x="282.5" y="59.5" width="65" height="33" rx="16.5" stroke="white" stroke-opacity="0.3"/>
<defs>
<clipPath id="clip0_2135_6495">
<rect x="283" y="60" width="64" height="32" rx="16" fill="white"/>
</clipPath>
</defs>
</svg>
