<svg width="630" height="152" viewBox="0 0 630 152" fill="none" xmlns="http://www.w3.org/2000/svg">
<rect width="630" height="152" rx="24" fill="#262626"/>
<g clip-path="url(#clip0_2135_6249)">
<rect width="32" height="32" transform="translate(283 60)" fill="white" fill-opacity="0.2"/>
<path d="M297 69.7499H294C293.669 69.7502 293.351 69.882 293.116 70.1163C292.882 70.3507 292.75 70.6685 292.75 70.9999V73.9999C292.75 74.3313 292.882 74.6491 293.116 74.8834C293.351 75.1178 293.669 75.2496 294 75.2499H297C297.331 75.2496 297.649 75.1178 297.884 74.8834C298.118 74.6491 298.25 74.3313 298.25 73.9999V70.9999C298.25 70.6685 298.118 70.3507 297.884 70.1163C297.649 69.882 297.331 69.7502 297 69.7499Z" fill="white" fill-opacity="0.95"/>
<path d="M304 69.7499H301C300.669 69.7502 300.351 69.882 300.116 70.1163C299.882 70.3507 299.75 70.6685 299.75 70.9999V73.9999C299.75 74.3313 299.882 74.6491 300.116 74.8834C300.351 75.1178 300.669 75.2496 301 75.2499H304C304.331 75.2496 304.649 75.1178 304.884 74.8834C305.118 74.6491 305.25 74.3313 305.25 73.9999V70.9999C305.25 70.6685 305.118 70.3507 304.884 70.1163C304.649 69.882 304.331 69.7502 304 69.7499Z" fill="white" fill-opacity="0.95"/>
<path d="M304 76.7499H301C300.669 76.7502 300.351 76.882 300.116 77.1163C299.882 77.3507 299.75 77.6685 299.75 77.9999V80.9999C299.75 81.3313 299.882 81.6491 300.116 81.8834C300.351 82.1178 300.669 82.2496 301 82.2499H304C304.331 82.2496 304.649 82.1178 304.884 81.8834C305.118 81.6491 305.25 81.3313 305.25 80.9999V77.9999C305.25 77.6685 305.118 77.3507 304.884 77.1163C304.649 76.882 304.331 76.7502 304 76.7499Z" fill="white" fill-opacity="0.95"/>
<path d="M297 76.7499H294C293.669 76.7502 293.351 76.882 293.116 77.1163C292.882 77.3507 292.75 77.6685 292.75 77.9999V80.9999C292.75 81.3313 292.882 81.6491 293.116 81.8834C293.351 82.1178 293.669 82.2496 294 82.2499H297C297.331 82.2496 297.649 82.1178 297.884 81.8834C298.118 81.6491 298.25 81.3313 298.25 80.9999V77.9999C298.25 77.6685 298.118 77.3507 297.884 77.1163C297.649 76.882 297.331 76.7502 297 76.7499Z" fill="white" fill-opacity="0.95"/>
<line x1="315.5" y1="60" x2="315.5" y2="92" stroke="white" stroke-opacity="0.3"/>
<path d="M337 75.4999H328C327.867 75.4999 327.74 75.5525 327.646 75.6463C327.553 75.7401 327.5 75.8673 327.5 75.9999C327.5 76.1325 327.553 76.2597 327.646 76.3534C327.74 76.4472 327.867 76.4999 328 76.4999H337C337.133 76.4999 337.26 76.4472 337.354 76.3534C337.447 76.2597 337.5 76.1325 337.5 75.9999C337.5 75.8673 337.447 75.7401 337.354 75.6463C337.26 75.5525 337.133 75.4999 337 75.4999Z" fill="white" fill-opacity="0.95"/>
<path d="M328 72.9999H337C337.133 72.9999 337.26 72.9472 337.354 72.8534C337.447 72.7597 337.5 72.6325 337.5 72.4999C337.5 72.3673 337.447 72.2401 337.354 72.1463C337.26 72.0525 337.133 71.9999 337 71.9999H328C327.867 71.9999 327.74 72.0525 327.646 72.1463C327.553 72.2401 327.5 72.3673 327.5 72.4999C327.5 72.6325 327.553 72.7597 327.646 72.8534C327.74 72.9472 327.867 72.9999 328 72.9999Z" fill="white" fill-opacity="0.95"/>
<path d="M337 78.9999H328C327.867 78.9999 327.74 79.0525 327.646 79.1463C327.553 79.2401 327.5 79.3673 327.5 79.4999C327.5 79.6325 327.553 79.7597 327.646 79.8534C327.74 79.9472 327.867 79.9999 328 79.9999H337C337.133 79.9999 337.26 79.9472 337.354 79.8534C337.447 79.7597 337.5 79.6325 337.5 79.4999C337.5 79.3673 337.447 79.2401 337.354 79.1463C337.26 79.0525 337.133 78.9999 337 78.9999Z" fill="white" fill-opacity="0.95"/>
<path d="M325.125 75.375C325.001 75.375 324.881 75.4117 324.778 75.4803C324.675 75.549 324.595 75.6466 324.548 75.7608C324.5 75.875 324.488 76.0007 324.512 76.1219C324.536 76.2432 324.596 76.3545 324.683 76.4419C324.77 76.5294 324.882 76.5889 325.003 76.613C325.124 76.6371 325.25 76.6247 325.364 76.5774C325.478 76.5301 325.576 76.45 325.645 76.3472C325.713 76.2445 325.75 76.1236 325.75 76C325.75 75.8342 325.684 75.6753 325.567 75.5581C325.45 75.4408 325.291 75.375 325.125 75.375Z" fill="white" fill-opacity="0.95"/>
<path d="M325.125 78.875C325.001 78.875 324.881 78.9117 324.778 78.9803C324.675 79.049 324.595 79.1466 324.548 79.2608C324.5 79.375 324.488 79.5007 324.512 79.6219C324.536 79.7432 324.596 79.8545 324.683 79.9419C324.77 80.0294 324.882 80.0889 325.003 80.113C325.124 80.1371 325.25 80.1247 325.364 80.0774C325.478 80.0301 325.576 79.95 325.645 79.8472C325.713 79.7445 325.75 79.6236 325.75 79.5C325.75 79.3342 325.684 79.1753 325.567 79.0581C325.45 78.9408 325.291 78.875 325.125 78.875Z" fill="white" fill-opacity="0.95"/>
<path d="M325.125 71.875C325.001 71.875 324.881 71.9117 324.778 71.9803C324.675 72.049 324.595 72.1466 324.548 72.2608C324.5 72.375 324.488 72.5007 324.512 72.6219C324.536 72.7432 324.596 72.8545 324.683 72.9419C324.77 73.0293 324.882 73.0889 325.003 73.113C325.124 73.1371 325.25 73.1247 325.364 73.0774C325.478 73.0301 325.576 72.95 325.645 72.8472C325.713 72.7445 325.75 72.6236 325.75 72.5C325.75 72.3342 325.684 72.1753 325.567 72.0581C325.45 71.9408 325.291 71.875 325.125 71.875Z" fill="white" fill-opacity="0.95"/>
</g>
<rect x="282.5" y="59.5" width="65" height="33" rx="16.5" stroke="white" stroke-opacity="0.3"/>
<defs>
<clipPath id="clip0_2135_6249">
<rect x="283" y="60" width="64" height="32" rx="16" fill="white"/>
</clipPath>
</defs>
</svg>
