<svg width="245" height="908" viewBox="0 0 245 908" fill="none" xmlns="http://www.w3.org/2000/svg">
<mask id="path-1-inside-1_2144_60792" fill="white">
<path d="M0 0H245V908H0V0Z"/>
</mask>
<path d="M0 0H245V908H0V0Z" fill="#1A1A1A"/>
<path d="M245 908V909H246V908H245ZM244 0V908H246V0H244ZM245 907H0V909H245V907Z" fill="#707070" mask="url(#path-1-inside-1_2144_60792)"/>
<path d="M36.25 461H31.7614V446.455H36.4489C37.8598 446.455 39.0672 446.746 40.071 447.328C41.0748 447.906 41.8442 448.737 42.3793 449.821C42.9143 450.901 43.1818 452.193 43.1818 453.699C43.1818 455.214 42.9119 456.518 42.3722 457.612C41.8324 458.701 41.0464 459.539 40.0142 460.126C38.982 460.709 37.7273 461 36.25 461ZM33.5227 459.438H36.1364C37.339 459.438 38.3357 459.205 39.1264 458.741C39.9171 458.277 40.5066 457.617 40.8949 456.76C41.2831 455.903 41.4773 454.883 41.4773 453.699C41.4773 452.525 41.2855 451.514 40.902 450.666C40.5185 449.814 39.9455 449.161 39.1832 448.706C38.4209 448.247 37.4716 448.017 36.3352 448.017H33.5227V459.438ZM50.483 461.227C49.4318 461.227 48.5251 460.995 47.7628 460.531C47.0052 460.062 46.4205 459.409 46.0085 458.571C45.6013 457.728 45.3977 456.748 45.3977 455.631C45.3977 454.513 45.6013 453.528 46.0085 452.676C46.4205 451.819 46.9934 451.152 47.7273 450.673C48.4659 450.19 49.3277 449.949 50.3125 449.949C50.8807 449.949 51.4418 450.044 51.9957 450.233C52.5497 450.422 53.054 450.73 53.5085 451.156C53.9631 451.578 54.3253 452.136 54.5952 452.832C54.8651 453.528 55 454.385 55 455.403V456.114H46.5909V454.665H53.2955C53.2955 454.049 53.1723 453.5 52.9261 453.017C52.6847 452.534 52.339 452.153 51.8892 451.874C51.4441 451.594 50.9186 451.455 50.3125 451.455C49.6449 451.455 49.0672 451.62 48.5795 451.952C48.0966 452.278 47.7249 452.705 47.4645 453.23C47.2041 453.756 47.0739 454.319 47.0739 454.92V455.886C47.0739 456.71 47.2159 457.409 47.5 457.982C47.7888 458.55 48.1889 458.983 48.7003 459.281C49.2116 459.575 49.8059 459.722 50.483 459.722C50.9233 459.722 51.321 459.66 51.6761 459.537C52.036 459.409 52.3461 459.22 52.6065 458.969C52.867 458.713 53.0682 458.396 53.2102 458.017L54.8295 458.472C54.6591 459.021 54.3726 459.504 53.9702 459.92C53.5677 460.332 53.0705 460.654 52.4787 460.886C51.8868 461.114 51.2216 461.227 50.483 461.227ZM62.4077 450.091V451.511H56.527V450.091H62.4077ZM58.2884 461V448.585C58.2884 447.96 58.4351 447.439 58.7287 447.023C59.0223 446.606 59.4034 446.294 59.8722 446.085C60.3409 445.877 60.8357 445.773 61.3565 445.773C61.7685 445.773 62.1046 445.806 62.3651 445.872C62.6255 445.938 62.8196 446 62.9474 446.057L62.4645 447.506C62.3793 447.477 62.2609 447.442 62.1094 447.399C61.9626 447.357 61.7685 447.335 61.527 447.335C60.973 447.335 60.5729 447.475 60.3267 447.754C60.0852 448.034 59.9645 448.443 59.9645 448.983V461H58.2884ZM67.6545 461.256C66.9632 461.256 66.3358 461.125 65.7724 460.865C65.2089 460.6 64.7615 460.219 64.43 459.722C64.0986 459.22 63.9329 458.614 63.9329 457.903C63.9329 457.278 64.056 456.772 64.3022 456.384C64.5484 455.991 64.8775 455.683 65.2894 455.46C65.7013 455.238 66.1559 455.072 66.6531 454.963C67.1549 454.849 67.6592 454.759 68.1658 454.693C68.8287 454.608 69.3661 454.544 69.7781 454.501C70.1947 454.454 70.4978 454.376 70.6871 454.267C70.8813 454.158 70.9783 453.969 70.9783 453.699V453.642C70.9783 452.941 70.7866 452.397 70.4031 452.009C70.0243 451.62 69.449 451.426 68.6772 451.426C67.877 451.426 67.2496 451.601 66.7951 451.952C66.3406 452.302 66.021 452.676 65.8363 453.074L64.2454 452.506C64.5295 451.843 64.9083 451.327 65.3817 450.957C65.86 450.583 66.3808 450.323 66.9442 450.176C67.5124 450.025 68.0711 449.949 68.6204 449.949C68.9708 449.949 69.3732 449.991 69.8278 450.077C70.2871 450.157 70.7298 450.325 71.1559 450.581C71.5868 450.837 71.9442 451.223 72.2283 451.739C72.5124 452.255 72.6545 452.946 72.6545 453.812V461H70.9783V459.523H70.8931C70.7795 459.759 70.5901 460.013 70.3249 460.283C70.0598 460.553 69.707 460.782 69.2667 460.972C68.8263 461.161 68.2889 461.256 67.6545 461.256ZM67.9102 459.75C68.573 459.75 69.1317 459.62 69.5863 459.359C70.0456 459.099 70.3912 458.763 70.6232 458.351C70.86 457.939 70.9783 457.506 70.9783 457.051V455.517C70.9073 455.602 70.7511 455.68 70.5096 455.751C70.2728 455.818 69.9982 455.877 69.6857 455.929C69.378 455.976 69.0773 456.019 68.7837 456.057C68.4949 456.09 68.2605 456.118 68.0806 456.142C67.645 456.199 67.2378 456.291 66.859 456.419C66.485 456.542 66.1819 456.729 65.9499 456.98C65.7227 457.226 65.609 457.562 65.609 457.989C65.609 458.571 65.8245 459.011 66.2553 459.31C66.6909 459.603 67.2425 459.75 67.9102 459.75ZM82.5888 456.54V450.091H84.2649V461H82.5888V459.153H82.4751C82.2195 459.707 81.8217 460.179 81.282 460.567C80.7422 460.95 80.0604 461.142 79.2365 461.142C78.5547 461.142 77.9486 460.993 77.4183 460.695C76.888 460.392 76.4714 459.937 76.1683 459.331C75.8653 458.72 75.7138 457.951 75.7138 457.023V450.091H77.3899V456.909C77.3899 457.705 77.6125 458.339 78.0575 458.812C78.5073 459.286 79.0803 459.523 79.7763 459.523C80.1929 459.523 80.6167 459.416 81.0476 459.203C81.4832 458.99 81.8478 458.663 82.1413 458.223C82.4396 457.783 82.5888 457.222 82.5888 456.54ZM89.011 446.455V461H87.3349V446.455H89.011ZM96.8253 450.091V451.511H91.1719V450.091H96.8253ZM92.8196 447.477H94.4957V457.875C94.4957 458.348 94.5644 458.704 94.7017 458.94C94.8438 459.172 95.0237 459.329 95.2415 459.409C95.464 459.485 95.6984 459.523 95.9446 459.523C96.1293 459.523 96.2808 459.513 96.3991 459.494C96.5175 459.471 96.6122 459.452 96.6832 459.438L97.0241 460.943C96.9105 460.986 96.7519 461.028 96.5483 461.071C96.3447 461.118 96.0866 461.142 95.7741 461.142C95.3007 461.142 94.8366 461.04 94.3821 460.837C93.9323 460.633 93.5582 460.323 93.2599 459.906C92.9664 459.49 92.8196 458.964 92.8196 458.33V447.477Z" fill="white" fill-opacity="0.95"/>
</svg>
