<svg width="320" height="604" viewBox="0 0 320 604" fill="none" xmlns="http://www.w3.org/2000/svg">
<mask id="path-1-inside-1_2144_60806" fill="white">
<path d="M0 0H320V604H0V0Z"/>
</mask>
<path d="M0 0H320V604H0V0Z" fill="#1A1A1A"/>
<path d="M320 604V605H321V604H320ZM319 0V604H321V0H319ZM320 603H0V605H320V603Z" fill="white" fill-opacity="0.2" mask="url(#path-1-inside-1_2144_60806)"/>
<g clip-path="url(#clip0_2144_60806)">
<path d="M31.05 295.92H34.326C35.6793 295.92 36.6967 296.237 37.378 296.872C37.9753 297.432 38.274 298.207 38.274 299.196C38.274 300.297 37.8913 301.123 37.126 301.674C36.4447 302.159 35.4927 302.402 34.27 302.402H32.478V306H31.05V295.92ZM34.354 297.082H32.478V301.24H34.298C35.222 301.24 35.8847 301.039 36.286 300.638C36.622 300.311 36.79 299.831 36.79 299.196C36.79 298.477 36.552 297.936 36.076 297.572C35.656 297.245 35.082 297.082 34.354 297.082ZM41.156 295.92V306H39.812V295.92H41.156ZM44.2686 300.75H42.8406C42.9153 300.022 43.2606 299.457 43.8766 299.056C44.4273 298.692 45.1226 298.51 45.9626 298.51C46.9613 298.51 47.7266 298.771 48.2586 299.294C48.7066 299.742 48.9306 300.321 48.9306 301.03V306H47.8246L47.6566 305.006C47.0873 305.809 46.2753 306.21 45.2206 306.21C44.39 306.21 43.7413 305.986 43.2746 305.538C42.892 305.165 42.7006 304.693 42.7006 304.124C42.7006 303.405 42.948 302.85 43.4426 302.458C43.8813 302.113 44.5533 301.861 45.4586 301.702L47.5866 301.338V300.974C47.5866 300.498 47.4233 300.139 47.0966 299.896C46.8073 299.681 46.4106 299.574 45.9066 299.574C44.9173 299.574 44.3713 299.966 44.2686 300.75ZM45.5426 305.076C46.112 305.076 46.6066 304.889 47.0266 304.516C47.4 304.171 47.5866 303.774 47.5866 303.326V302.388L45.7806 302.71C45.118 302.822 44.6653 302.995 44.4226 303.228C44.2266 303.415 44.1286 303.667 44.1286 303.984C44.1286 304.339 44.25 304.609 44.4926 304.796C44.7353 304.983 45.0853 305.076 45.5426 305.076ZM55.5639 303.662H57.0339C56.9219 304.446 56.5532 305.076 55.9279 305.552C55.3586 305.991 54.6632 306.21 53.8419 306.21C52.7686 306.21 51.9146 305.841 51.2799 305.104C50.6919 304.423 50.3979 303.527 50.3979 302.416C50.3979 301.128 50.7526 300.129 51.4619 299.42C52.0686 298.813 52.8572 298.51 53.8279 298.51C54.7239 298.51 55.4612 298.748 56.0399 299.224C56.5532 299.644 56.8659 300.195 56.9779 300.876H55.4939C55.4006 300.484 55.2092 300.181 54.9199 299.966C54.6399 299.751 54.2852 299.644 53.8559 299.644C53.1932 299.644 52.6846 299.905 52.3299 300.428C51.9939 300.913 51.8259 301.59 51.8259 302.458C51.8259 303.363 52.0499 304.049 52.4979 304.516C52.8526 304.889 53.3099 305.076 53.8699 305.076C54.3552 305.076 54.7519 304.936 55.0599 304.656C55.3306 304.413 55.4986 304.082 55.5639 303.662ZM63.5258 303.9H64.9818C64.7765 304.637 64.3705 305.216 63.7638 305.636C63.1945 306.019 62.5132 306.21 61.7198 306.21C60.5718 306.21 59.6758 305.846 59.0318 305.118C58.4438 304.437 58.1498 303.517 58.1498 302.36C58.1498 301.044 58.5232 300.045 59.2698 299.364C59.8858 298.795 60.6792 298.51 61.6498 298.51C62.7885 298.51 63.6472 298.879 64.2258 299.616C64.7858 300.325 65.0658 301.338 65.0658 302.654H59.5218C59.5778 303.513 59.8392 304.152 60.3058 304.572C60.6885 304.908 61.1738 305.076 61.7618 305.076C62.2192 305.076 62.6158 304.95 62.9518 304.698C63.2318 304.483 63.4232 304.217 63.5258 303.9ZM61.6778 299.588C61.0805 299.588 60.5998 299.775 60.2358 300.148C59.8905 300.493 59.6712 300.974 59.5778 301.59H63.6938C63.6472 300.89 63.4138 300.367 62.9938 300.022C62.6578 299.733 62.2192 299.588 61.6778 299.588ZM68.0213 306H66.6773V295.92H68.0213V299.546C68.5533 298.855 69.2626 298.51 70.1493 298.51C71.0079 298.51 71.6659 298.776 72.1233 299.308C72.5246 299.784 72.7253 300.433 72.7253 301.254V306H71.3813V301.268C71.3813 300.195 70.8633 299.658 69.8273 299.658C69.2766 299.658 68.8286 299.849 68.4833 300.232C68.1753 300.577 68.0213 301.021 68.0213 301.562V306ZM74.2006 302.36C74.2006 301.025 74.5973 300.017 75.3906 299.336C76.0253 298.785 76.828 298.51 77.7986 298.51C78.928 298.51 79.8146 298.869 80.4586 299.588C81.0746 300.26 81.3826 301.184 81.3826 302.36C81.3826 303.676 80.9953 304.679 80.2206 305.37C79.586 305.93 78.774 306.21 77.7846 306.21C76.6553 306.21 75.764 305.837 75.1106 305.09C74.504 304.409 74.2006 303.499 74.2006 302.36ZM75.6006 302.36C75.6006 303.293 75.8386 304.007 76.3146 304.502C76.7066 304.913 77.206 305.118 77.8126 305.118C78.522 305.118 79.068 304.852 79.4506 304.32C79.8053 303.835 79.9826 303.181 79.9826 302.36C79.9826 301.408 79.7493 300.689 79.2826 300.204C78.9 299.803 78.4053 299.602 77.7986 299.602C77.0986 299.602 76.5526 299.868 76.1606 300.4C75.7873 300.885 75.6006 301.539 75.6006 302.36ZM84.2635 295.92V306H82.9195V295.92H84.2635ZM92.794 306H91.688L91.45 304.978C90.89 305.799 90.0827 306.21 89.028 306.21C88.0107 306.21 87.208 305.841 86.62 305.104C86.0787 304.423 85.808 303.522 85.808 302.402C85.808 301.049 86.1534 300.031 86.844 299.35C87.4227 298.79 88.1787 298.51 89.112 298.51C90.12 298.51 90.8994 298.888 91.45 299.644V295.92H92.794V306ZM87.208 302.43C87.208 303.335 87.432 304.021 87.88 304.488C88.2534 304.871 88.734 305.062 89.322 305.062C90.05 305.062 90.6147 304.787 91.016 304.236C91.352 303.76 91.52 303.163 91.52 302.444C91.52 301.501 91.296 300.783 90.848 300.288C90.4654 299.868 89.9567 299.658 89.322 299.658C88.6127 299.658 88.076 299.915 87.712 300.428C87.376 300.895 87.208 301.562 87.208 302.43ZM99.7153 303.9H101.171C100.966 304.637 100.56 305.216 99.9533 305.636C99.384 306.019 98.7026 306.21 97.9093 306.21C96.7613 306.21 95.8653 305.846 95.2213 305.118C94.6333 304.437 94.3393 303.517 94.3393 302.36C94.3393 301.044 94.7126 300.045 95.4593 299.364C96.0753 298.795 96.8686 298.51 97.8393 298.51C98.978 298.51 99.8366 298.879 100.415 299.616C100.975 300.325 101.255 301.338 101.255 302.654H95.7113C95.7673 303.513 96.0286 304.152 96.4953 304.572C96.878 304.908 97.3633 305.076 97.9513 305.076C98.4086 305.076 98.8053 304.95 99.1413 304.698C99.4213 304.483 99.6126 304.217 99.7153 303.9ZM97.8673 299.588C97.27 299.588 96.7893 299.775 96.4253 300.148C96.08 300.493 95.8606 300.974 95.7673 301.59H99.8833C99.8366 300.89 99.6033 300.367 99.1833 300.022C98.8473 299.733 98.4086 299.588 97.8673 299.588ZM104.211 306H102.867V298.72H103.973L104.155 299.798C104.565 298.939 105.181 298.51 106.003 298.51C106.273 298.51 106.539 298.543 106.801 298.608V299.952C106.483 299.868 106.199 299.826 105.947 299.826C105.405 299.826 104.981 300.045 104.673 300.484C104.365 300.923 104.211 301.543 104.211 302.346V306ZM115.302 304.922V306.07C114.957 306.163 114.626 306.21 114.308 306.21C113.636 306.21 113.132 306 112.796 305.58C112.507 305.235 112.362 304.773 112.362 304.194V299.868H111.284V298.72H112.362L112.446 296.97H113.706V298.72H115.274V299.868H113.706V304.222C113.706 304.763 113.963 305.034 114.476 305.034C114.719 305.034 114.994 304.997 115.302 304.922ZM121.454 303.9H122.91C122.704 304.637 122.298 305.216 121.692 305.636C121.122 306.019 120.441 306.21 119.648 306.21C118.5 306.21 117.604 305.846 116.96 305.118C116.372 304.437 116.078 303.517 116.078 302.36C116.078 301.044 116.451 300.045 117.198 299.364C117.814 298.795 118.607 298.51 119.578 298.51C120.716 298.51 121.575 298.879 122.154 299.616C122.714 300.325 122.994 301.338 122.994 302.654H117.45C117.506 303.513 117.767 304.152 118.234 304.572C118.616 304.908 119.102 305.076 119.69 305.076C120.147 305.076 120.544 304.95 120.88 304.698C121.16 304.483 121.351 304.217 121.454 303.9ZM119.606 299.588C119.008 299.588 118.528 299.775 118.164 300.148C117.818 300.493 117.599 300.974 117.506 301.59H121.622C121.575 300.89 121.342 300.367 120.922 300.022C120.586 299.733 120.147 299.588 119.606 299.588ZM130.471 298.72L128.035 302.122L130.891 306H129.253L127.279 303.186L125.347 306H123.765L126.481 302.22L123.933 298.72H125.543L127.279 301.17L128.931 298.72H130.471ZM135.263 304.922V306.07C134.918 306.163 134.586 306.21 134.269 306.21C133.597 306.21 133.093 306 132.757 305.58C132.468 305.235 132.323 304.773 132.323 304.194V299.868H131.245V298.72H132.323L132.407 296.97H133.667V298.72H135.235V299.868H133.667V304.222C133.667 304.763 133.924 305.034 134.437 305.034C134.68 305.034 134.955 304.997 135.263 304.922Z" fill="white" fill-opacity="0.7"/>
</g>
<defs>
<clipPath id="clip0_2144_60806">
<rect width="320" height="52" fill="white" transform="translate(0 276)"/>
</clipPath>
</defs>
</svg>
