<svg width="320" height="634" viewBox="0 0 320 634" fill="none" xmlns="http://www.w3.org/2000/svg">
<mask id="path-1-inside-1_2144_60916" fill="white">
<path d="M0 0H320V634H0V0Z"/>
</mask>
<path d="M0 0H320V634H0V0Z" fill="#1A1A1A"/>
<path d="M320 634V635H321V634H320ZM319 0V634H321V0H319ZM320 633H0V635H320V633Z" fill="white" fill-opacity="0.2" mask="url(#path-1-inside-1_2144_60916)"/>
<mask id="path-4-inside-2_2144_60916" fill="white">
<path d="M30 309C30 304.582 33.5817 301 38 301H250V333H38C33.5817 333 30 329.418 30 325V309Z"/>
</mask>
<path d="M29 309C29 304.029 33.0294 300 38 300H250V302H38C34.134 302 31 305.134 31 309H29ZM250 334H38C33.0294 334 29 329.971 29 325H31C31 328.866 34.134 332 38 332H250V334ZM38 334C33.0294 334 29 329.971 29 325V309C29 304.029 33.0294 300 38 300V302C34.134 302 31 305.134 31 309V325C31 328.866 34.134 332 38 332V334ZM250 301V333V301Z" fill="white" fill-opacity="0.5" mask="url(#path-4-inside-2_2144_60916)"/>
<rect width="1" height="30" transform="translate(249 302)" fill="white" fill-opacity="0.5"/>
<mask id="path-6-inside-3_2144_60916" fill="white">
<path d="M250 301H274C278.418 301 282 304.582 282 309V325C282 329.418 278.418 333 274 333H250V301Z"/>
</mask>
<path d="M250 300H274C278.971 300 283 304.029 283 309H281C281 305.134 277.866 302 274 302H250V300ZM283 325C283 329.971 278.971 334 274 334H250V332H274C277.866 332 281 328.866 281 325H283ZM250 333V301V333ZM274 300C278.971 300 283 304.029 283 309V325C283 329.971 278.971 334 274 334V332C277.866 332 281 328.866 281 325V309C281 305.134 277.866 302 274 302V300Z" fill="white" fill-opacity="0.5" mask="url(#path-6-inside-3_2144_60916)"/>
</svg>
