<svg width="245" height="214" viewBox="0 0 245 214" fill="none" xmlns="http://www.w3.org/2000/svg">
<mask id="path-1-inside-1_2144_60956" fill="white">
<path d="M0 0H245V214H0V0Z"/>
</mask>
<path d="M0 0H245V214H0V0Z" fill="#1A1A1A"/>
<path d="M245 214V215H246V214H245ZM244 0V214H246V0H244ZM245 213H0V215H245V213Z" fill="#707070" mask="url(#path-1-inside-1_2144_60956)"/>
<path d="M31.7614 114V99.4545H36.6761C37.8172 99.4545 38.75 99.6605 39.4744 100.072C40.2036 100.48 40.7434 101.031 41.0938 101.727C41.4441 102.423 41.6193 103.2 41.6193 104.057C41.6193 104.914 41.4441 105.693 41.0938 106.393C40.7481 107.094 40.2131 107.653 39.4886 108.07C38.7642 108.482 37.8362 108.688 36.7045 108.688H33.1818V107.125H36.6477C37.429 107.125 38.0563 106.99 38.5298 106.72C39.0033 106.45 39.3466 106.086 39.5597 105.626C39.7775 105.162 39.8864 104.639 39.8864 104.057C39.8864 103.474 39.7775 102.954 39.5597 102.494C39.3466 102.035 39.0009 101.675 38.5227 101.415C38.0445 101.15 37.41 101.017 36.6193 101.017H33.5227V114H31.7614ZM44.2294 114V103.091H45.8487V104.739H45.9624C46.1612 104.199 46.5211 103.761 47.0419 103.425C47.5627 103.089 48.1499 102.92 48.8033 102.92C48.9264 102.92 49.0803 102.923 49.2649 102.928C49.4496 102.932 49.5893 102.939 49.6839 102.949V104.653C49.6271 104.639 49.4969 104.618 49.2933 104.589C49.0945 104.556 48.8838 104.54 48.6612 104.54C48.1309 104.54 47.6574 104.651 47.2408 104.874C46.8288 105.091 46.5021 105.394 46.2607 105.783C46.0239 106.166 45.9055 106.604 45.9055 107.097V114H44.2294ZM55.9126 114.227C54.8615 114.227 53.9548 113.995 53.1925 113.531C52.4349 113.062 51.8501 112.409 51.4382 111.571C51.031 110.728 50.8274 109.748 50.8274 108.631C50.8274 107.513 51.031 106.528 51.4382 105.676C51.8501 104.819 52.4231 104.152 53.157 103.673C53.8956 103.19 54.7573 102.949 55.7422 102.949C56.3104 102.949 56.8714 103.044 57.4254 103.233C57.9794 103.422 58.4837 103.73 58.9382 104.156C59.3928 104.578 59.755 105.136 60.0249 105.832C60.2947 106.528 60.4297 107.385 60.4297 108.403V109.114H52.0206V107.665H58.7251C58.7251 107.049 58.602 106.5 58.3558 106.017C58.1143 105.534 57.7687 105.153 57.3189 104.874C56.8738 104.594 56.3482 104.455 55.7422 104.455C55.0746 104.455 54.4969 104.62 54.0092 104.952C53.5263 105.278 53.1546 105.705 52.8942 106.23C52.6338 106.756 52.5036 107.319 52.5036 107.92V108.886C52.5036 109.71 52.6456 110.409 52.9297 110.982C53.2185 111.55 53.6186 111.983 54.13 112.281C54.6413 112.575 55.2356 112.722 55.9126 112.722C56.353 112.722 56.7507 112.66 57.1058 112.537C57.4657 112.409 57.7758 112.22 58.0362 111.969C58.2966 111.713 58.4979 111.396 58.6399 111.017L60.2592 111.472C60.0888 112.021 59.8023 112.504 59.3999 112.92C58.9974 113.332 58.5002 113.654 57.9084 113.886C57.3165 114.114 56.6513 114.227 55.9126 114.227ZM70.7067 105.534L69.201 105.96C69.1063 105.709 68.9666 105.465 68.782 105.229C68.602 104.987 68.3558 104.788 68.0433 104.632C67.7308 104.476 67.3307 104.398 66.843 104.398C66.1754 104.398 65.6191 104.552 65.174 104.859C64.7337 105.162 64.5135 105.548 64.5135 106.017C64.5135 106.434 64.665 106.763 64.968 107.004C65.2711 107.246 65.7446 107.447 66.3885 107.608L68.0078 108.006C68.9832 108.242 69.71 108.605 70.1882 109.092C70.6664 109.575 70.9055 110.198 70.9055 110.96C70.9055 111.585 70.7256 112.144 70.3658 112.636C70.0107 113.129 69.5135 113.517 68.8743 113.801C68.2351 114.085 67.4917 114.227 66.6442 114.227C65.5315 114.227 64.6106 113.986 63.8814 113.503C63.1522 113.02 62.6906 112.314 62.4964 111.386L64.0874 110.989C64.2389 111.576 64.5253 112.016 64.9467 112.31C65.3729 112.603 65.9292 112.75 66.6158 112.75C67.397 112.75 68.0173 112.584 68.4766 112.253C68.9406 111.917 69.1726 111.514 69.1726 111.045C69.1726 110.667 69.04 110.349 68.7749 110.094C68.5097 109.833 68.1025 109.639 67.5533 109.511L65.7351 109.085C64.736 108.848 64.0021 108.482 63.5334 107.984C63.0694 107.482 62.8374 106.855 62.8374 106.102C62.8374 105.487 63.0102 104.942 63.3558 104.469C63.7062 103.995 64.1821 103.624 64.7834 103.354C65.3894 103.084 66.076 102.949 66.843 102.949C67.9226 102.949 68.7701 103.186 69.3857 103.659C70.0059 104.133 70.4463 104.758 70.7067 105.534ZM81.1559 105.534L79.6502 105.96C79.5555 105.709 79.4158 105.465 79.2312 105.229C79.0513 104.987 78.805 104.788 78.4925 104.632C78.18 104.476 77.7799 104.398 77.2923 104.398C76.6246 104.398 76.0683 104.552 75.6232 104.859C75.1829 105.162 74.9627 105.548 74.9627 106.017C74.9627 106.434 75.1142 106.763 75.4173 107.004C75.7203 107.246 76.1938 107.447 76.8377 107.608L78.457 108.006C79.4324 108.242 80.1592 108.605 80.6374 109.092C81.1156 109.575 81.3548 110.198 81.3548 110.96C81.3548 111.585 81.1748 112.144 80.815 112.636C80.4599 113.129 79.9627 113.517 79.3235 113.801C78.6843 114.085 77.9409 114.227 77.0934 114.227C75.9807 114.227 75.0598 113.986 74.3306 113.503C73.6014 113.02 73.1398 112.314 72.9457 111.386L74.5366 110.989C74.6881 111.576 74.9746 112.016 75.396 112.31C75.8221 112.603 76.3784 112.75 77.065 112.75C77.8462 112.75 78.4665 112.584 78.9258 112.253C79.3898 111.917 79.6218 111.514 79.6218 111.045C79.6218 110.667 79.4892 110.349 79.2241 110.094C78.9589 109.833 78.5517 109.639 78.0025 109.511L76.1843 109.085C75.1853 108.848 74.4513 108.482 73.9826 107.984C73.5186 107.482 73.2866 106.855 73.2866 106.102C73.2866 105.487 73.4594 104.942 73.805 104.469C74.1554 103.995 74.6313 103.624 75.2326 103.354C75.8387 103.084 76.5252 102.949 77.2923 102.949C78.3718 102.949 79.2193 103.186 79.8349 103.659C80.4551 104.133 80.8955 104.758 81.1559 105.534ZM88.4517 114.227C87.4006 114.227 86.4938 113.995 85.7315 113.531C84.974 113.062 84.3892 112.409 83.9773 111.571C83.5701 110.728 83.3665 109.748 83.3665 108.631C83.3665 107.513 83.5701 106.528 83.9773 105.676C84.3892 104.819 84.9621 104.152 85.696 103.673C86.4347 103.19 87.2964 102.949 88.2812 102.949C88.8494 102.949 89.4105 103.044 89.9645 103.233C90.5185 103.422 91.0227 103.73 91.4773 104.156C91.9318 104.578 92.294 105.136 92.5639 105.832C92.8338 106.528 92.9688 107.385 92.9688 108.403V109.114H84.5597V107.665H91.2642C91.2642 107.049 91.1411 106.5 90.8949 106.017C90.6534 105.534 90.3078 105.153 89.858 104.874C89.4129 104.594 88.8873 104.455 88.2812 104.455C87.6136 104.455 87.036 104.62 86.5483 104.952C86.0653 105.278 85.6937 105.705 85.4332 106.23C85.1728 106.756 85.0426 107.319 85.0426 107.92V108.886C85.0426 109.71 85.1847 110.409 85.4688 110.982C85.7576 111.55 86.1577 111.983 86.669 112.281C87.1804 112.575 87.7746 112.722 88.4517 112.722C88.892 112.722 89.2898 112.66 89.6449 112.537C90.0047 112.409 90.3149 112.22 90.5753 111.969C90.8357 111.713 91.0369 111.396 91.179 111.017L92.7983 111.472C92.6278 112.021 92.3414 112.504 91.9389 112.92C91.5365 113.332 91.0393 113.654 90.4474 113.886C89.8556 114.114 89.1903 114.227 88.4517 114.227ZM99.6378 114.227C98.7287 114.227 97.9261 113.998 97.2301 113.538C96.5341 113.074 95.9896 112.421 95.5966 111.578C95.2036 110.731 95.0071 109.729 95.0071 108.574C95.0071 107.428 95.2036 106.434 95.5966 105.591C95.9896 104.748 96.5365 104.097 97.2372 103.638C97.938 103.179 98.7476 102.949 99.6662 102.949C100.376 102.949 100.938 103.067 101.349 103.304C101.766 103.536 102.083 103.801 102.301 104.099C102.524 104.393 102.696 104.634 102.82 104.824H102.962V99.4545H104.638V114H103.018V112.324H102.82C102.696 112.523 102.521 112.774 102.294 113.077C102.067 113.375 101.742 113.643 101.321 113.879C100.9 114.111 100.339 114.227 99.6378 114.227ZM99.8651 112.722C100.537 112.722 101.106 112.546 101.57 112.196C102.034 111.841 102.386 111.351 102.628 110.726C102.869 110.096 102.99 109.369 102.99 108.545C102.99 107.731 102.872 107.018 102.635 106.408C102.398 105.792 102.048 105.314 101.584 104.973C101.12 104.627 100.547 104.455 99.8651 104.455C99.1548 104.455 98.563 104.637 98.0895 105.001C97.6207 105.361 97.268 105.851 97.0312 106.472C96.7992 107.087 96.6832 107.778 96.6832 108.545C96.6832 109.322 96.8016 110.027 97.0384 110.662C97.2798 111.292 97.6349 111.794 98.1037 112.168C98.5772 112.537 99.1643 112.722 99.8651 112.722Z" fill="white" fill-opacity="0.95"/>
</svg>
