<svg width="320" height="604" viewBox="0 0 320 604" fill="none" xmlns="http://www.w3.org/2000/svg">
<mask id="path-1-inside-1_2144_60779" fill="white">
<path d="M0 0H320V604H0V0Z"/>
</mask>
<path d="M0 0H320V604H0V0Z" fill="#1A1A1A"/>
<path d="M320 604V605H321V604H320ZM319 0V604H321V0H319ZM320 603H0V605H320V603Z" fill="white" fill-opacity="0.2" mask="url(#path-1-inside-1_2144_60779)"/>
<g clip-path="url(#clip0_2144_60779)">
<path d="M31.05 295.92H32.492V304.726H37.238V306H31.05V295.92ZM39.8526 300.75H38.4246C38.4993 300.022 38.8446 299.457 39.4606 299.056C40.0113 298.692 40.7066 298.51 41.5466 298.51C42.5453 298.51 43.3106 298.771 43.8426 299.294C44.2906 299.742 44.5146 300.321 44.5146 301.03V306H43.4086L43.2406 305.006C42.6713 305.809 41.8593 306.21 40.8046 306.21C39.9739 306.21 39.3253 305.986 38.8586 305.538C38.4759 305.165 38.2846 304.693 38.2846 304.124C38.2846 303.405 38.5319 302.85 39.0266 302.458C39.4653 302.113 40.1373 301.861 41.0426 301.702L43.1706 301.338V300.974C43.1706 300.498 43.0073 300.139 42.6806 299.896C42.3913 299.681 41.9946 299.574 41.4906 299.574C40.5013 299.574 39.9553 299.966 39.8526 300.75ZM41.1266 305.076C41.6959 305.076 42.1906 304.889 42.6106 304.516C42.9839 304.171 43.1706 303.774 43.1706 303.326V302.388L41.3646 302.71C40.7019 302.822 40.2493 302.995 40.0066 303.228C39.8106 303.415 39.7126 303.667 39.7126 303.984C39.7126 304.339 39.8339 304.609 40.0766 304.796C40.3193 304.983 40.6693 305.076 41.1266 305.076ZM47.5079 306H46.4019V295.92H47.7459V299.728C48.3152 298.916 49.1272 298.51 50.1819 298.51C51.2272 298.51 52.0392 298.883 52.6179 299.63C53.1312 300.302 53.3879 301.193 53.3879 302.304C53.3879 303.62 53.0379 304.628 52.3379 305.328C51.7499 305.916 50.9985 306.21 50.0839 306.21C49.0479 306.21 48.2592 305.818 47.7179 305.034L47.5079 306ZM51.9879 302.276C51.9879 301.361 51.7592 300.675 51.3019 300.218C50.9379 299.845 50.4619 299.658 49.8739 299.658C49.1925 299.658 48.6512 299.905 48.2499 300.4C47.8672 300.876 47.6759 301.501 47.6759 302.276C47.6759 303.209 47.9045 303.923 48.3619 304.418C48.7445 304.847 49.2485 305.062 49.8739 305.062C50.5739 305.062 51.1059 304.805 51.4699 304.292C51.8152 303.816 51.9879 303.144 51.9879 302.276ZM59.8891 303.9H61.3451C61.1398 304.637 60.7338 305.216 60.1271 305.636C59.5578 306.019 58.8765 306.21 58.0831 306.21C56.9351 306.21 56.0391 305.846 55.3951 305.118C54.8071 304.437 54.5131 303.517 54.5131 302.36C54.5131 301.044 54.8865 300.045 55.6331 299.364C56.2491 298.795 57.0425 298.51 58.0131 298.51C59.1518 298.51 60.0105 298.879 60.5891 299.616C61.1491 300.325 61.4291 301.338 61.4291 302.654H55.8851C55.9411 303.513 56.2025 304.152 56.6691 304.572C57.0518 304.908 57.5371 305.076 58.1251 305.076C58.5825 305.076 58.9791 304.95 59.3151 304.698C59.5951 304.483 59.7865 304.217 59.8891 303.9ZM58.0411 299.588C57.4438 299.588 56.9631 299.775 56.5991 300.148C56.2538 300.493 56.0345 300.974 55.9411 301.59H60.0571C60.0105 300.89 59.7771 300.367 59.3571 300.022C59.0211 299.733 58.5825 299.588 58.0411 299.588ZM64.3845 295.92V306H63.0405V295.92H64.3845Z" fill="white" fill-opacity="0.2"/>
<path d="M76.268 301.52C76.268 303.984 76.9587 306.271 78.34 308.38H77.234C76.534 307.456 75.9833 306.434 75.582 305.314C75.134 304.082 74.91 302.817 74.91 301.52C74.91 300.055 75.1947 298.636 75.764 297.264C76.1467 296.321 76.6367 295.453 77.234 294.66H78.34C76.9587 296.769 76.268 299.056 76.268 301.52ZM81.0818 306H79.7378V298.72H80.8438L81.0258 299.798C81.4365 298.939 82.0525 298.51 82.8738 298.51C83.1445 298.51 83.4105 298.543 83.6718 298.608V299.952C83.3545 299.868 83.0698 299.826 82.8178 299.826C82.2765 299.826 81.8518 300.045 81.5438 300.484C81.2358 300.923 81.0818 301.543 81.0818 302.346V306ZM89.5473 303.9H91.0033C90.798 304.637 90.392 305.216 89.7853 305.636C89.216 306.019 88.5347 306.21 87.7413 306.21C86.5933 306.21 85.6973 305.846 85.0533 305.118C84.4653 304.437 84.1713 303.517 84.1713 302.36C84.1713 301.044 84.5447 300.045 85.2913 299.364C85.9073 298.795 86.7007 298.51 87.6713 298.51C88.81 298.51 89.6687 298.879 90.2473 299.616C90.8073 300.325 91.0873 301.338 91.0873 302.654H85.5433C85.5993 303.513 85.8607 304.152 86.3273 304.572C86.71 304.908 87.1953 305.076 87.7833 305.076C88.2407 305.076 88.6373 304.95 88.9733 304.698C89.2533 304.483 89.4447 304.217 89.5473 303.9ZM87.6993 299.588C87.102 299.588 86.6213 299.775 86.2573 300.148C85.912 300.493 85.6927 300.974 85.5993 301.59H89.7153C89.6687 300.89 89.4353 300.367 89.0153 300.022C88.6793 299.733 88.2407 299.588 87.6993 299.588ZM98.1588 298.72H99.2648V308.52H97.9208V304.992C97.3514 305.804 96.5441 306.21 95.4988 306.21C94.4814 306.21 93.6788 305.841 93.0908 305.104C92.5494 304.423 92.2788 303.522 92.2788 302.402C92.2788 301.049 92.6241 300.031 93.3148 299.35C93.8934 298.79 94.6494 298.51 95.5828 298.51C96.6188 298.51 97.4121 298.874 97.9628 299.602L98.1588 298.72ZM93.6788 302.43C93.6788 303.335 93.9028 304.021 94.3508 304.488C94.7241 304.871 95.2048 305.062 95.7928 305.062C96.5208 305.062 97.0854 304.787 97.4868 304.236C97.8228 303.76 97.9908 303.163 97.9908 302.444C97.9908 301.501 97.7668 300.783 97.3188 300.288C96.9361 299.868 96.4274 299.658 95.7928 299.658C95.0834 299.658 94.5468 299.915 94.1828 300.428C93.8468 300.895 93.6788 301.562 93.6788 302.43ZM101.16 298.72H102.504V303.494C102.504 304.539 103.008 305.062 104.016 305.062C104.632 305.062 105.103 304.843 105.43 304.404C105.682 304.068 105.808 303.653 105.808 303.158V298.72H107.152V306H106.046L105.892 305.16C105.379 305.86 104.651 306.21 103.708 306.21C102.877 306.21 102.238 305.953 101.79 305.44C101.37 304.964 101.16 304.306 101.16 303.466V298.72ZM110.547 297.502H109.035V295.92H110.547V297.502ZM110.463 306H109.119V298.72H110.463V306ZM113.771 306H112.427V298.72H113.533L113.715 299.798C114.126 298.939 114.742 298.51 115.563 298.51C115.834 298.51 116.1 298.543 116.361 298.608V299.952C116.044 299.868 115.759 299.826 115.507 299.826C114.966 299.826 114.541 300.045 114.233 300.484C113.925 300.923 113.771 301.543 113.771 302.346V306ZM122.237 303.9H123.693C123.487 304.637 123.081 305.216 122.475 305.636C121.905 306.019 121.224 306.21 120.431 306.21C119.283 306.21 118.387 305.846 117.743 305.118C117.155 304.437 116.861 303.517 116.861 302.36C116.861 301.044 117.234 300.045 117.981 299.364C118.597 298.795 119.39 298.51 120.361 298.51C121.499 298.51 122.358 298.879 122.937 299.616C123.497 300.325 123.777 301.338 123.777 302.654H118.233C118.289 303.513 118.55 304.152 119.017 304.572C119.399 304.908 119.885 305.076 120.473 305.076C120.93 305.076 121.327 304.95 121.663 304.698C121.943 304.483 122.134 304.217 122.237 303.9ZM120.389 299.588C119.791 299.588 119.311 299.775 118.947 300.148C118.601 300.493 118.382 300.974 118.289 301.59H122.405C122.358 300.89 122.125 300.367 121.705 300.022C121.369 299.733 120.93 299.588 120.389 299.588ZM131.954 306H130.848L130.61 304.978C130.05 305.799 129.243 306.21 128.188 306.21C127.171 306.21 126.368 305.841 125.78 305.104C125.239 304.423 124.968 303.522 124.968 302.402C124.968 301.049 125.314 300.031 126.004 299.35C126.583 298.79 127.339 298.51 128.272 298.51C129.28 298.51 130.06 298.888 130.61 299.644V295.92H131.954V306ZM126.368 302.43C126.368 303.335 126.592 304.021 127.04 304.488C127.414 304.871 127.894 305.062 128.482 305.062C129.21 305.062 129.775 304.787 130.176 304.236C130.512 303.76 130.68 303.163 130.68 302.444C130.68 301.501 130.456 300.783 130.008 300.288C129.626 299.868 129.117 299.658 128.482 299.658C127.773 299.658 127.236 299.915 126.872 300.428C126.536 300.895 126.368 301.562 126.368 302.43ZM135.431 301.52C135.431 299.056 134.741 296.769 133.359 294.66H134.465C135.165 295.584 135.716 296.606 136.117 297.726C136.565 298.958 136.789 300.223 136.789 301.52C136.789 302.985 136.505 304.404 135.935 305.776C135.553 306.719 135.063 307.587 134.465 308.38H133.359C134.741 306.271 135.431 303.984 135.431 301.52Z" fill="white" fill-opacity="0.2"/>
</g>
<defs>
<clipPath id="clip0_2144_60779">
<rect width="320" height="52" fill="white" transform="translate(0 276)"/>
</clipPath>
</defs>
</svg>
