<svg width="245" height="184" viewBox="0 0 245 184" fill="none" xmlns="http://www.w3.org/2000/svg">
<mask id="path-1-inside-1_2144_60819" fill="white">
<path d="M0 0H245V184H0V0Z"/>
</mask>
<path d="M0 0H245V184H0V0Z" fill="#1A1A1A"/>
<path d="M245 184V185H246V184H245ZM244 0V184H246V0H244ZM245 183H0V185H245V183Z" fill="#707070" mask="url(#path-1-inside-1_2144_60819)"/>
<path d="M36.25 99H31.7614V84.4545H36.4489C37.8598 84.4545 39.0672 84.7457 40.071 85.3281C41.0748 85.9058 41.8442 86.7367 42.3793 87.821C42.9143 88.9006 43.1818 90.1932 43.1818 91.6989C43.1818 93.214 42.9119 94.5185 42.3722 95.6122C41.8324 96.7012 41.0464 97.5393 40.0142 98.1264C38.982 98.7088 37.7273 99 36.25 99ZM33.5227 97.4375H36.1364C37.339 97.4375 38.3357 97.2055 39.1264 96.7415C39.9171 96.2775 40.5066 95.617 40.8949 94.7599C41.2831 93.9029 41.4773 92.8826 41.4773 91.6989C41.4773 90.5246 41.2855 89.5137 40.902 88.6662C40.5185 87.8139 39.9455 87.1605 39.1832 86.706C38.4209 86.2467 37.4716 86.017 36.3352 86.017H33.5227V97.4375ZM45.9091 99V88.0909H47.5852V99H45.9091ZM46.7614 86.2727C46.4347 86.2727 46.1529 86.1615 45.9162 85.9389C45.6842 85.7164 45.5682 85.4489 45.5682 85.1364C45.5682 84.8239 45.6842 84.5563 45.9162 84.3338C46.1529 84.1113 46.4347 84 46.7614 84C47.0881 84 47.3674 84.1113 47.5994 84.3338C47.8362 84.5563 47.9545 84.8239 47.9545 85.1364C47.9545 85.4489 47.8362 85.7164 47.5994 85.9389C47.3674 86.1615 47.0881 86.2727 46.7614 86.2727ZM58.3825 90.5341L56.8768 90.9602C56.7821 90.7093 56.6424 90.4654 56.4577 90.2287C56.2778 89.9872 56.0316 89.7884 55.7191 89.6321C55.4066 89.4759 55.0065 89.3977 54.5188 89.3977C53.8512 89.3977 53.2949 89.5516 52.8498 89.8594C52.4094 90.1624 52.1893 90.5483 52.1893 91.017C52.1893 91.4337 52.3408 91.7628 52.6438 92.0043C52.9469 92.2457 53.4203 92.447 54.0643 92.608L55.6836 93.0057C56.659 93.2424 57.3858 93.6046 57.864 94.0923C58.3422 94.5753 58.5813 95.1979 58.5813 95.9602C58.5813 96.5852 58.4014 97.1439 58.0415 97.6364C57.6864 98.1288 57.1893 98.517 56.5501 98.8011C55.9109 99.0852 55.1675 99.2273 54.32 99.2273C53.2073 99.2273 52.2863 98.9858 51.5572 98.5028C50.828 98.0199 50.3664 97.3144 50.1722 96.3864L51.7631 95.9886C51.9147 96.5758 52.2011 97.0161 52.6225 97.3097C53.0487 97.6032 53.605 97.75 54.2915 97.75C55.0728 97.75 55.6931 97.5843 56.1523 97.2528C56.6164 96.9167 56.8484 96.5142 56.8484 96.0455C56.8484 95.6667 56.7158 95.3494 56.4506 95.0938C56.1855 94.8333 55.7783 94.6392 55.229 94.5114L53.4109 94.0852C52.4118 93.8485 51.6779 93.4815 51.2092 92.9844C50.7451 92.4825 50.5131 91.8551 50.5131 91.1023C50.5131 90.4867 50.686 89.9422 51.0316 89.4688C51.382 88.9953 51.8578 88.6236 52.4592 88.3537C53.0652 88.0838 53.7518 87.9489 54.5188 87.9489C55.5984 87.9489 56.4459 88.1856 57.0614 88.6591C57.6817 89.1326 58.122 89.7576 58.3825 90.5341ZM64.3146 99.2557C63.6233 99.2557 62.996 99.1255 62.4325 98.8651C61.8691 98.5999 61.4216 98.2188 61.0902 97.7216C60.7588 97.2197 60.593 96.6136 60.593 95.9034C60.593 95.2784 60.7161 94.7718 60.9624 94.3835C61.2086 93.9905 61.5376 93.6828 61.9496 93.4602C62.3615 93.2377 62.8161 93.072 63.3132 92.9631C63.8151 92.8494 64.3194 92.7595 64.826 92.6932C65.4889 92.608 66.0263 92.544 66.4382 92.5014C66.8549 92.4541 67.1579 92.3759 67.3473 92.267C67.5414 92.1581 67.6385 91.9687 67.6385 91.6989V91.642C67.6385 90.9413 67.4467 90.3968 67.0632 90.0085C66.6844 89.6203 66.1091 89.4261 65.3374 89.4261C64.5372 89.4261 63.9098 89.6013 63.4553 89.9517C63.0007 90.3021 62.6811 90.6761 62.4964 91.0739L60.9055 90.5057C61.1896 89.8428 61.5684 89.3267 62.0419 88.9574C62.5201 88.5833 63.041 88.3229 63.6044 88.1761C64.1726 88.0246 64.7313 87.9489 65.2805 87.9489C65.6309 87.9489 66.0334 87.9915 66.4879 88.0767C66.9472 88.1572 67.3899 88.3253 67.8161 88.581C68.2469 88.8366 68.6044 89.2225 68.8885 89.7386C69.1726 90.2547 69.3146 90.946 69.3146 91.8125V99H67.6385V97.5227H67.5533C67.4396 97.7595 67.2502 98.0128 66.9851 98.2827C66.7199 98.5526 66.3672 98.7822 65.9268 98.9716C65.4865 99.161 64.9491 99.2557 64.3146 99.2557ZM64.5703 97.75C65.2332 97.75 65.7919 97.6198 66.2464 97.3594C66.7057 97.099 67.0514 96.7628 67.2834 96.3509C67.5201 95.9389 67.6385 95.5057 67.6385 95.0511V93.517C67.5675 93.6023 67.4112 93.6804 67.1697 93.7514C66.933 93.8177 66.6584 93.8769 66.3459 93.929C66.0381 93.9763 65.7375 94.0189 65.4439 94.0568C65.1551 94.09 64.9207 94.1184 64.7408 94.142C64.3052 94.1989 63.898 94.2912 63.5192 94.419C63.1451 94.5421 62.8421 94.7292 62.6101 94.9801C62.3828 95.2263 62.2692 95.5625 62.2692 95.9886C62.2692 96.571 62.4846 97.0114 62.9155 97.3097C63.3511 97.6032 63.9027 97.75 64.5703 97.75ZM72.6012 99V84.4545H74.2773V89.8239H74.4194C74.5425 89.6345 74.7129 89.393 74.9308 89.0994C75.1533 88.8011 75.4705 88.536 75.8825 88.304C76.2991 88.0672 76.8626 87.9489 77.5728 87.9489C78.4914 87.9489 79.301 88.1785 80.0018 88.6378C80.7025 89.0971 81.2494 89.7481 81.6424 90.5909C82.0354 91.4337 82.2319 92.428 82.2319 93.5739C82.2319 94.7292 82.0354 95.7306 81.6424 96.5781C81.2494 97.4209 80.7049 98.0743 80.0089 98.5384C79.3129 98.9976 78.5103 99.2273 77.6012 99.2273C76.9004 99.2273 76.3394 99.1113 75.918 98.8793C75.4966 98.6425 75.1722 98.375 74.945 98.0767C74.7177 97.7737 74.5425 97.5227 74.4194 97.3239H74.2205V99H72.6012ZM74.2489 93.5455C74.2489 94.3693 74.3697 95.0961 74.6112 95.7259C74.8526 96.3509 75.2054 96.8409 75.6694 97.196C76.1334 97.5464 76.7016 97.7216 77.3739 97.7216C78.0747 97.7216 78.6594 97.5369 79.1282 97.1676C79.6017 96.7936 79.9568 96.2917 80.1935 95.6619C80.435 95.0275 80.5558 94.322 80.5558 93.5455C80.5558 92.7784 80.4374 92.0871 80.2006 91.4716C79.9686 90.8513 79.6159 90.3613 79.1424 90.0014C78.6737 89.6368 78.0842 89.4545 77.3739 89.4545C76.6921 89.4545 76.1192 89.6274 75.6552 89.973C75.1912 90.3139 74.8408 90.7921 74.604 91.4077C74.3673 92.0185 74.2489 92.7311 74.2489 93.5455ZM86.4719 84.4545V99H84.7958V84.4545H86.4719ZM94.1158 99.2273C93.0646 99.2273 92.1579 98.9953 91.3956 98.5312C90.638 98.0625 90.0533 97.4091 89.6413 96.571C89.2341 95.7282 89.0305 94.7481 89.0305 93.6307C89.0305 92.5133 89.2341 91.5284 89.6413 90.6761C90.0533 89.8191 90.6262 89.1515 91.3601 88.6733C92.0987 88.1903 92.9605 87.9489 93.9453 87.9489C94.5135 87.9489 95.0746 88.0436 95.6286 88.233C96.1825 88.4223 96.6868 88.7301 97.1413 89.1562C97.5959 89.5777 97.9581 90.1364 98.228 90.8324C98.4979 91.5284 98.6328 92.3854 98.6328 93.4034V94.1136H90.2237V92.6648H96.9283C96.9283 92.0492 96.8052 91.5 96.5589 91.017C96.3175 90.5341 95.9718 90.1529 95.522 89.8736C95.0769 89.5942 94.5514 89.4545 93.9453 89.4545C93.2777 89.4545 92.7 89.6203 92.2124 89.9517C91.7294 90.2784 91.3577 90.7045 91.0973 91.2301C90.8369 91.7557 90.7067 92.3191 90.7067 92.9205V93.8864C90.7067 94.7102 90.8487 95.4086 91.1328 95.9815C91.4216 96.5497 91.8217 96.983 92.3331 97.2812C92.8445 97.5748 93.4387 97.7216 94.1158 97.7216C94.5561 97.7216 94.9538 97.66 95.3089 97.5369C95.6688 97.4091 95.9789 97.2197 96.2393 96.9688C96.4998 96.7131 96.701 96.3958 96.843 96.017L98.4624 96.4716C98.2919 97.0208 98.0054 97.5038 97.603 97.9205C97.2005 98.3324 96.7034 98.6544 96.1115 98.8864C95.5196 99.1136 94.8544 99.2273 94.1158 99.2273ZM105.302 99.2273C104.393 99.2273 103.59 98.9976 102.894 98.5384C102.198 98.0743 101.654 97.4209 101.261 96.5781C100.868 95.7306 100.671 94.7292 100.671 93.5739C100.671 92.428 100.868 91.4337 101.261 90.5909C101.654 89.7481 102.201 89.0971 102.901 88.6378C103.602 88.1785 104.412 87.9489 105.33 87.9489C106.04 87.9489 106.602 88.0672 107.013 88.304C107.43 88.536 107.747 88.8011 107.965 89.0994C108.188 89.393 108.361 89.6345 108.484 89.8239H108.626V84.4545H110.302V99H108.683V97.3239H108.484C108.361 97.5227 108.185 97.7737 107.958 98.0767C107.731 98.375 107.406 98.6425 106.985 98.8793C106.564 99.1113 106.003 99.2273 105.302 99.2273ZM105.529 97.7216C106.201 97.7216 106.77 97.5464 107.234 97.196C107.698 96.8409 108.05 96.3509 108.292 95.7259C108.533 95.0961 108.654 94.3693 108.654 93.5455C108.654 92.7311 108.536 92.0185 108.299 91.4077C108.062 90.7921 107.712 90.3139 107.248 89.973C106.784 89.6274 106.211 89.4545 105.529 89.4545C104.819 89.4545 104.227 89.6368 103.754 90.0014C103.285 90.3613 102.932 90.8513 102.695 91.4716C102.463 92.0871 102.347 92.7784 102.347 93.5455C102.347 94.322 102.466 95.0275 102.702 95.6619C102.944 96.2917 103.299 96.7936 103.768 97.1676C104.241 97.5369 104.828 97.7216 105.529 97.7216Z" fill="white" fill-opacity="0.95"/>
</svg>
