<svg width="220" height="214" viewBox="0 0 220 214" fill="none" xmlns="http://www.w3.org/2000/svg">
<mask id="path-1-inside-1_2144_60939" fill="white">
<path d="M0 0H220V214H0V0Z"/>
</mask>
<path d="M0 0H220V214H0V0Z" fill="#1A1A1A"/>
<path d="M220 214V215H221V214H220ZM219 0V214H221V0H219ZM220 213H0V215H220V213Z" fill="#707070" mask="url(#path-1-inside-1_2144_60939)"/>
<path d="M31.7614 114V99.4545H33.5227V105.932H41.2784V99.4545H43.0398V114H41.2784V107.494H33.5227V114H31.7614ZM51.2251 114.199C50.2876 114.199 49.4519 114.038 48.718 113.716C47.9889 113.394 47.4089 112.946 46.978 112.374C46.5518 111.796 46.3198 111.126 46.282 110.364H48.0717C48.1096 110.832 48.2706 111.237 48.5547 111.578C48.8388 111.914 49.2105 112.175 49.6697 112.359C50.129 112.544 50.638 112.636 51.1967 112.636C51.8217 112.636 52.3757 112.527 52.8587 112.31C53.3416 112.092 53.7204 111.789 53.995 111.401C54.2696 111.012 54.407 110.562 54.407 110.051C54.407 109.516 54.2744 109.045 54.0092 108.638C53.7441 108.226 53.3558 107.904 52.8445 107.672C52.3331 107.44 51.7081 107.324 50.9695 107.324H49.8047V105.761H50.9695C51.5471 105.761 52.0537 105.657 52.4893 105.449C52.9297 105.241 53.273 104.947 53.5192 104.568C53.7701 104.189 53.8956 103.744 53.8956 103.233C53.8956 102.741 53.7867 102.312 53.5689 101.947C53.3511 101.583 53.0433 101.299 52.6456 101.095C52.2526 100.892 51.7886 100.79 51.2536 100.79C50.7517 100.79 50.2782 100.882 49.8331 101.067C49.3928 101.247 49.0329 101.509 48.7536 101.855C48.4742 102.196 48.3227 102.608 48.299 103.091H46.5945C46.6229 102.329 46.8525 101.661 47.2834 101.088C47.7143 100.51 48.2777 100.061 48.9737 99.7386C49.6745 99.4167 50.4439 99.2557 51.282 99.2557C52.1816 99.2557 52.9534 99.438 53.5973 99.8026C54.2412 100.162 54.736 100.638 55.0817 101.23C55.4273 101.822 55.6001 102.461 55.6001 103.148C55.6001 103.967 55.3847 104.665 54.9538 105.243C54.5277 105.821 53.9477 106.221 53.2138 106.443V106.557C54.1323 106.708 54.8497 107.099 55.3658 107.729C55.8819 108.354 56.1399 109.128 56.1399 110.051C56.1399 110.842 55.9245 111.552 55.4936 112.182C55.0675 112.807 54.4851 113.299 53.7464 113.659C53.0078 114.019 52.1674 114.199 51.2251 114.199ZM59.0447 114V112.722L63.8459 107.466C64.4093 106.85 64.8733 106.315 65.2379 105.861C65.6025 105.402 65.8724 104.971 66.0476 104.568C66.2275 104.161 66.3175 103.735 66.3175 103.29C66.3175 102.778 66.1944 102.336 65.9482 101.962C65.7067 101.588 65.3752 101.299 64.9538 101.095C64.5324 100.892 64.0589 100.79 63.5334 100.79C62.9747 100.79 62.487 100.906 62.0703 101.138C61.6584 101.365 61.3388 101.685 61.1115 102.097C60.889 102.509 60.7777 102.991 60.7777 103.545H59.1016C59.1016 102.693 59.2981 101.945 59.6911 101.301C60.084 100.657 60.6191 100.155 61.2962 99.7955C61.978 99.4356 62.7427 99.2557 63.5902 99.2557C64.4425 99.2557 65.1977 99.4356 65.8558 99.7955C66.514 100.155 67.0301 100.641 67.4041 101.251C67.7782 101.862 67.9652 102.542 67.9652 103.29C67.9652 103.825 67.8681 104.348 67.674 104.859C67.4846 105.366 67.1532 105.932 66.6797 106.557C66.2109 107.177 65.5599 107.935 64.7266 108.83L61.4595 112.324V112.438H68.2209V114H59.0447ZM71.1825 118.091V103.091H72.8018V104.824H73.0007C73.1238 104.634 73.2943 104.393 73.5121 104.099C73.7346 103.801 74.0518 103.536 74.4638 103.304C74.8804 103.067 75.4439 102.949 76.1541 102.949C77.0727 102.949 77.8823 103.179 78.5831 103.638C79.2839 104.097 79.8307 104.748 80.2237 105.591C80.6167 106.434 80.8132 107.428 80.8132 108.574C80.8132 109.729 80.6167 110.731 80.2237 111.578C79.8307 112.421 79.2862 113.074 78.5902 113.538C77.8942 113.998 77.0916 114.227 76.1825 114.227C75.4818 114.227 74.9207 114.111 74.4993 113.879C74.0779 113.643 73.7536 113.375 73.5263 113.077C73.299 112.774 73.1238 112.523 73.0007 112.324H72.8587V118.091H71.1825ZM72.8303 108.545C72.8303 109.369 72.951 110.096 73.1925 110.726C73.4339 111.351 73.7867 111.841 74.2507 112.196C74.7147 112.546 75.2829 112.722 75.9553 112.722C76.656 112.722 77.2408 112.537 77.7095 112.168C78.183 111.794 78.5381 111.292 78.7749 110.662C79.0163 110.027 79.1371 109.322 79.1371 108.545C79.1371 107.778 79.0187 107.087 78.782 106.472C78.55 105.851 78.1972 105.361 77.7237 105.001C77.255 104.637 76.6655 104.455 75.9553 104.455C75.2734 104.455 74.7005 104.627 74.2365 104.973C73.7725 105.314 73.4221 105.792 73.1854 106.408C72.9486 107.018 72.8303 107.731 72.8303 108.545ZM84.1708 103.091L86.7844 107.551L89.3981 103.091H91.3299L87.8072 108.545L91.3299 114H89.3981L86.7844 109.767L84.1708 114H82.239L85.7049 108.545L82.239 103.091H84.1708Z" fill="white" fill-opacity="0.95"/>
</svg>
