<svg width="244" height="604" viewBox="0 0 244 604" fill="none" xmlns="http://www.w3.org/2000/svg">
<mask id="path-1-inside-1_2144_60827" fill="white">
<path d="M0 0H244V604H0V0Z"/>
</mask>
<path d="M0 0H244V604H0V0Z" fill="#1A1A1A"/>
<path d="M244 604V605H245V604H244ZM243 0V604H245V0H243ZM244 603H0V605H244V603Z" fill="#707070" mask="url(#path-1-inside-1_2144_60827)"/>
<path d="M30.9659 296.017V294.455H41.875V296.017H37.3011V309H35.5398V296.017H30.9659ZM44.1957 313.062C43.9116 313.062 43.6583 313.039 43.4357 312.991C43.2132 312.949 43.0593 312.906 42.9741 312.864L43.4002 311.386C44.011 311.543 44.52 311.538 44.9272 311.372C45.3344 311.211 45.6871 310.723 45.9854 309.909L46.2979 309.057L42.2638 298.091H44.082L47.0934 306.784H47.207L50.2184 298.091L52.0508 298.119L47.4059 310.591C47.1976 311.145 46.9395 311.604 46.6317 311.969C46.324 312.338 45.9665 312.613 45.5593 312.793C45.1568 312.973 44.7023 313.062 44.1957 313.062ZM54.2685 313.091V298.091H55.8878V299.824H56.0866C56.2098 299.634 56.3802 299.393 56.598 299.099C56.8205 298.801 57.1378 298.536 57.5497 298.304C57.9664 298.067 58.5298 297.949 59.2401 297.949C60.1586 297.949 60.9683 298.179 61.669 298.638C62.3698 299.097 62.9167 299.748 63.3097 300.591C63.7027 301.434 63.8991 302.428 63.8991 303.574C63.8991 304.729 63.7027 305.731 63.3097 306.578C62.9167 307.421 62.3722 308.074 61.6761 308.538C60.9801 308.998 60.1776 309.227 59.2685 309.227C58.5677 309.227 58.0066 309.111 57.5852 308.879C57.1638 308.643 56.8395 308.375 56.6122 308.077C56.3849 307.774 56.2098 307.523 56.0866 307.324H55.9446V313.091H54.2685ZM55.9162 303.545C55.9162 304.369 56.0369 305.096 56.2784 305.726C56.5199 306.351 56.8726 306.841 57.3366 307.196C57.8007 307.546 58.3688 307.722 59.0412 307.722C59.742 307.722 60.3267 307.537 60.7955 307.168C61.2689 306.794 61.6241 306.292 61.8608 305.662C62.1023 305.027 62.223 304.322 62.223 303.545C62.223 302.778 62.1046 302.087 61.8679 301.472C61.6359 300.851 61.2831 300.361 60.8097 300.001C60.3409 299.637 59.7514 299.455 59.0412 299.455C58.3594 299.455 57.7865 299.627 57.3224 299.973C56.8584 300.314 56.508 300.792 56.2713 301.408C56.0346 302.018 55.9162 302.731 55.9162 303.545ZM71.0298 309.227C69.9787 309.227 69.072 308.995 68.3097 308.531C67.5521 308.062 66.9673 307.409 66.5554 306.571C66.1482 305.728 65.9446 304.748 65.9446 303.631C65.9446 302.513 66.1482 301.528 66.5554 300.676C66.9673 299.819 67.5402 299.152 68.2741 298.673C69.0128 298.19 69.8745 297.949 70.8594 297.949C71.4276 297.949 71.9886 298.044 72.5426 298.233C73.0966 298.422 73.6009 298.73 74.0554 299.156C74.5099 299.578 74.8722 300.136 75.142 300.832C75.4119 301.528 75.5469 302.385 75.5469 303.403V304.114H67.1378V302.665H73.8423C73.8423 302.049 73.7192 301.5 73.473 301.017C73.2315 300.534 72.8859 300.153 72.4361 299.874C71.991 299.594 71.4654 299.455 70.8594 299.455C70.1918 299.455 69.6141 299.62 69.1264 299.952C68.6435 300.278 68.2718 300.705 68.0114 301.23C67.7509 301.756 67.6207 302.319 67.6207 302.92V303.886C67.6207 304.71 67.7628 305.409 68.0469 305.982C68.3357 306.55 68.7358 306.983 69.2472 307.281C69.7585 307.575 70.3527 307.722 71.0298 307.722C71.4702 307.722 71.8679 307.66 72.223 307.537C72.5829 307.409 72.893 307.22 73.1534 306.969C73.4138 306.713 73.6151 306.396 73.7571 306.017L75.3764 306.472C75.206 307.021 74.9195 307.504 74.517 307.92C74.1146 308.332 73.6174 308.654 73.0256 308.886C72.4337 309.114 71.7685 309.227 71.0298 309.227ZM82.2159 309.227C81.3068 309.227 80.5043 308.998 79.8082 308.538C79.1122 308.074 78.5677 307.421 78.1747 306.578C77.7817 305.731 77.5852 304.729 77.5852 303.574C77.5852 302.428 77.7817 301.434 78.1747 300.591C78.5677 299.748 79.1146 299.097 79.8153 298.638C80.5161 298.179 81.3258 297.949 82.2443 297.949C82.9545 297.949 83.5156 298.067 83.9276 298.304C84.3442 298.536 84.6615 298.801 84.8793 299.099C85.1018 299.393 85.2746 299.634 85.3977 299.824H85.5398V294.455H87.2159V309H85.5966V307.324H85.3977C85.2746 307.523 85.0994 307.774 84.8722 308.077C84.6449 308.375 84.3205 308.643 83.8991 308.879C83.4777 309.111 82.9167 309.227 82.2159 309.227ZM82.4432 307.722C83.1155 307.722 83.6837 307.546 84.1477 307.196C84.6117 306.841 84.9645 306.351 85.206 305.726C85.4474 305.096 85.5682 304.369 85.5682 303.545C85.5682 302.731 85.4498 302.018 85.2131 301.408C84.9763 300.792 84.6259 300.314 84.1619 299.973C83.6979 299.627 83.125 299.455 82.4432 299.455C81.733 299.455 81.1411 299.637 80.6676 300.001C80.1989 300.361 79.8461 300.851 79.6094 301.472C79.3774 302.087 79.2614 302.778 79.2614 303.545C79.2614 304.322 79.3797 305.027 79.6165 305.662C79.858 306.292 80.2131 306.794 80.6818 307.168C81.1553 307.537 81.7424 307.722 82.4432 307.722ZM100.888 298.091V299.511H95.2344V298.091H100.888ZM96.8821 295.477H98.5582V305.875C98.5582 306.348 98.6269 306.704 98.7642 306.94C98.9063 307.172 99.0862 307.329 99.304 307.409C99.5265 307.485 99.7609 307.523 100.007 307.523C100.192 307.523 100.343 307.513 100.462 307.494C100.58 307.471 100.675 307.452 100.746 307.438L101.087 308.943C100.973 308.986 100.814 309.028 100.611 309.071C100.407 309.118 100.149 309.142 99.8366 309.142C99.3632 309.142 98.8991 309.04 98.4446 308.837C97.9948 308.633 97.6207 308.323 97.3224 307.906C97.0289 307.49 96.8821 306.964 96.8821 306.33V295.477ZM107.866 309.227C106.815 309.227 105.908 308.995 105.146 308.531C104.388 308.062 103.803 307.409 103.391 306.571C102.984 305.728 102.781 304.748 102.781 303.631C102.781 302.513 102.984 301.528 103.391 300.676C103.803 299.819 104.376 299.152 105.11 298.673C105.849 298.19 106.71 297.949 107.695 297.949C108.263 297.949 108.825 298.044 109.379 298.233C109.933 298.422 110.437 298.73 110.891 299.156C111.346 299.578 111.708 300.136 111.978 300.832C112.248 301.528 112.383 302.385 112.383 303.403V304.114H103.974V302.665H110.678C110.678 302.049 110.555 301.5 110.309 301.017C110.067 300.534 109.722 300.153 109.272 299.874C108.827 299.594 108.301 299.455 107.695 299.455C107.028 299.455 106.45 299.62 105.962 299.952C105.479 300.278 105.108 300.705 104.847 301.23C104.587 301.756 104.457 302.319 104.457 302.92V303.886C104.457 304.71 104.599 305.409 104.883 305.982C105.172 306.55 105.572 306.983 106.083 307.281C106.594 307.575 107.189 307.722 107.866 307.722C108.306 307.722 108.704 307.66 109.059 307.537C109.419 307.409 109.729 307.22 109.989 306.969C110.25 306.713 110.451 306.396 110.593 306.017L112.212 306.472C112.042 307.021 111.755 307.504 111.353 307.92C110.951 308.332 110.453 308.654 109.862 308.886C109.27 309.114 108.604 309.227 107.866 309.227ZM115.89 298.091L118.503 302.551L121.117 298.091H123.049L119.526 303.545L123.049 309H121.117L118.503 304.767L115.89 309H113.958L117.424 303.545L113.958 298.091H115.89ZM130.185 298.091V299.511H124.531V298.091H130.185ZM126.179 295.477H127.855V305.875C127.855 306.348 127.924 306.704 128.061 306.94C128.203 307.172 128.383 307.329 128.601 307.409C128.823 307.485 129.058 307.523 129.304 307.523C129.489 307.523 129.64 307.513 129.759 307.494C129.877 307.471 129.972 307.452 130.043 307.438L130.384 308.943C130.27 308.986 130.111 309.028 129.908 309.071C129.704 309.118 129.446 309.142 129.134 309.142C128.66 309.142 128.196 309.04 127.741 308.837C127.292 308.633 126.918 308.323 126.619 307.906C126.326 307.49 126.179 306.964 126.179 306.33V295.477Z" fill="white" fill-opacity="0.95"/>
</svg>
