<svg width="320" height="154" viewBox="0 0 320 154" fill="none" xmlns="http://www.w3.org/2000/svg">
<mask id="path-1-inside-1_2144_60833" fill="white">
<path d="M0 0H320V154H0V0Z"/>
</mask>
<path d="M0 0H320V154H0V0Z" fill="#1A1A1A"/>
<path d="M320 154V155H321V154H320ZM319 0V154H321V0H319ZM320 153H0V155H320V153Z" fill="white" fill-opacity="0.2" mask="url(#path-1-inside-1_2144_60833)"/>
<path d="M44.3537 73.6464C44.26 73.5527 44.1328 73.5 44.0002 73.5C43.8676 73.5 43.7405 73.5527 43.6467 73.6464L38 79.2929L32.3535 73.6464C32.2593 73.555 32.1328 73.5043 32.0016 73.5053C31.8703 73.5063 31.7446 73.5589 31.6518 73.6518C31.559 73.7446 31.5064 73.8702 31.5054 74.0015C31.5044 74.1328 31.5551 74.2592 31.6465 74.3535L37.6465 80.3535C37.7403 80.4472 37.8674 80.4999 38 80.4999C38.1326 80.4999 38.2597 80.4472 38.3535 80.3535L44.3535 74.3535C44.4473 74.2597 44.5 74.1326 44.5 74C44.5001 73.8674 44.4475 73.7402 44.3537 73.6464Z" fill="white" fill-opacity="0.95"/>
</svg>
