<svg width="245" height="604" viewBox="0 0 245 604" fill="none" xmlns="http://www.w3.org/2000/svg">
<mask id="path-1-inside-1_2144_61011" fill="white">
<path d="M0 0H245V604H0V0Z"/>
</mask>
<path d="M0 0H245V604H0V0Z" fill="#1A1A1A"/>
<path d="M245 604V605H246V604H245ZM244 0V604H246V0H244ZM245 603H0V605H245V603Z" fill="#707070" mask="url(#path-1-inside-1_2144_61011)"/>
<path d="M34.4034 309L30.4261 294.455H32.2159L35.2557 306.301H35.3977L38.4943 294.455H40.483L43.5795 306.301H43.7216L46.7614 294.455H48.5511L44.5739 309H42.7557L39.5455 297.409H39.4318L36.2216 309H34.4034ZM52.7131 309.256C52.0218 309.256 51.3944 309.125 50.831 308.865C50.2675 308.6 49.8201 308.219 49.4886 307.722C49.1572 307.22 48.9915 306.614 48.9915 305.903C48.9915 305.278 49.1146 304.772 49.3608 304.384C49.607 303.991 49.9361 303.683 50.348 303.46C50.7599 303.238 51.2145 303.072 51.7116 302.963C52.2135 302.849 52.7178 302.759 53.2244 302.693C53.8873 302.608 54.4247 302.544 54.8366 302.501C55.2533 302.454 55.5563 302.376 55.7457 302.267C55.9399 302.158 56.0369 301.969 56.0369 301.699V301.642C56.0369 300.941 55.8452 300.397 55.4616 300.009C55.0829 299.62 54.5076 299.426 53.7358 299.426C52.9356 299.426 52.3082 299.601 51.8537 299.952C51.3991 300.302 51.0795 300.676 50.8949 301.074L49.304 300.506C49.5881 299.843 49.9669 299.327 50.4403 298.957C50.9186 298.583 51.4394 298.323 52.0028 298.176C52.571 298.025 53.1297 297.949 53.679 297.949C54.0294 297.949 54.4318 297.991 54.8864 298.077C55.3456 298.157 55.7884 298.325 56.2145 298.581C56.6454 298.837 57.0028 299.223 57.2869 299.739C57.571 300.255 57.7131 300.946 57.7131 301.812V309H56.0369V307.523H55.9517C55.8381 307.759 55.6487 308.013 55.3835 308.283C55.1184 308.553 54.7656 308.782 54.3253 308.972C53.8849 309.161 53.3475 309.256 52.7131 309.256ZM52.9688 307.75C53.6316 307.75 54.1903 307.62 54.6449 307.359C55.1042 307.099 55.4498 306.763 55.6818 306.351C55.9186 305.939 56.0369 305.506 56.0369 305.051V303.517C55.9659 303.602 55.8097 303.68 55.5682 303.751C55.3314 303.818 55.0568 303.877 54.7443 303.929C54.4366 303.976 54.1359 304.019 53.8423 304.057C53.5535 304.09 53.3191 304.118 53.1392 304.142C52.7036 304.199 52.2964 304.291 51.9176 304.419C51.5436 304.542 51.2405 304.729 51.0085 304.98C50.7813 305.226 50.6676 305.562 50.6676 305.989C50.6676 306.571 50.883 307.011 51.3139 307.31C51.7495 307.603 52.3011 307.75 52.9688 307.75ZM60.7724 309V298.091H62.3917V299.739H62.5053C62.7042 299.199 63.064 298.761 63.5849 298.425C64.1057 298.089 64.6928 297.92 65.3462 297.92C65.4693 297.92 65.6232 297.923 65.8079 297.928C65.9925 297.932 66.1322 297.939 66.2269 297.949V299.653C66.1701 299.639 66.0399 299.618 65.8363 299.589C65.6374 299.556 65.4267 299.54 65.2042 299.54C64.6739 299.54 64.2004 299.651 63.7837 299.874C63.3718 300.091 63.0451 300.394 62.8036 300.783C62.5669 301.166 62.4485 301.604 62.4485 302.097V309H60.7724ZM69.8899 302.438V309H68.2138V298.091H69.8331V299.795H69.9751C70.2308 299.241 70.6191 298.796 71.1399 298.46C71.6607 298.119 72.3331 297.949 73.157 297.949C73.8956 297.949 74.5419 298.1 75.0959 298.403C75.6499 298.702 76.0807 299.156 76.3885 299.767C76.6963 300.373 76.8501 301.14 76.8501 302.068V309H75.174V302.182C75.174 301.325 74.9515 300.657 74.5064 300.179C74.0613 299.696 73.4505 299.455 72.674 299.455C72.139 299.455 71.6607 299.571 71.2393 299.803C70.8227 300.035 70.4936 300.373 70.2521 300.818C70.0107 301.263 69.8899 301.803 69.8899 302.438ZM79.913 309V298.091H81.5891V309H79.913ZM80.7653 296.273C80.4386 296.273 80.1568 296.161 79.9201 295.939C79.6881 295.716 79.5721 295.449 79.5721 295.136C79.5721 294.824 79.6881 294.556 79.9201 294.334C80.1568 294.111 80.4386 294 80.7653 294C81.092 294 81.3713 294.111 81.6033 294.334C81.8401 294.556 81.9585 294.824 81.9585 295.136C81.9585 295.449 81.8401 295.716 81.6033 295.939C81.3713 296.161 81.092 296.273 80.7653 296.273ZM86.3352 302.438V309H84.6591V298.091H86.2784V299.795H86.4205C86.6761 299.241 87.0644 298.796 87.5852 298.46C88.1061 298.119 88.7784 297.949 89.6023 297.949C90.3409 297.949 90.9872 298.1 91.5412 298.403C92.0952 298.702 92.526 299.156 92.8338 299.767C93.1416 300.373 93.2955 301.14 93.2955 302.068V309H91.6193V302.182C91.6193 301.325 91.3968 300.657 90.9517 300.179C90.5066 299.696 89.8958 299.455 89.1193 299.455C88.5843 299.455 88.1061 299.571 87.6847 299.803C87.268 300.035 86.9389 300.373 86.6974 300.818C86.456 301.263 86.3352 301.803 86.3352 302.438ZM100.762 313.318C99.9521 313.318 99.256 313.214 98.6737 313.006C98.0913 312.802 97.6059 312.532 97.2177 312.196C96.8342 311.865 96.5288 311.509 96.3015 311.131L97.6367 310.193C97.7882 310.392 97.98 310.619 98.212 310.875C98.444 311.135 98.7612 311.36 99.1637 311.55C99.5709 311.744 100.104 311.841 100.762 311.841C101.642 311.841 102.369 311.628 102.942 311.202C103.515 310.776 103.801 310.108 103.801 309.199V306.983H103.659C103.536 307.182 103.361 307.428 103.134 307.722C102.911 308.01 102.589 308.268 102.168 308.496C101.751 308.718 101.188 308.83 100.478 308.83C99.5969 308.83 98.8062 308.621 98.1055 308.205C97.4094 307.788 96.8578 307.182 96.4506 306.386C96.0482 305.591 95.8469 304.625 95.8469 303.489C95.8469 302.371 96.0434 301.398 96.4364 300.57C96.8294 299.736 97.3763 299.092 98.0771 298.638C98.7778 298.179 99.5875 297.949 100.506 297.949C101.216 297.949 101.78 298.067 102.196 298.304C102.618 298.536 102.94 298.801 103.162 299.099C103.39 299.393 103.565 299.634 103.688 299.824H103.858V298.091H105.478V309.312C105.478 310.25 105.265 311.012 104.838 311.599C104.417 312.191 103.849 312.625 103.134 312.899C102.424 313.179 101.633 313.318 100.762 313.318ZM100.705 307.324C101.377 307.324 101.945 307.17 102.409 306.862C102.873 306.554 103.226 306.112 103.468 305.534C103.709 304.956 103.83 304.265 103.83 303.46C103.83 302.674 103.712 301.981 103.475 301.379C103.238 300.778 102.888 300.307 102.424 299.966C101.96 299.625 101.387 299.455 100.705 299.455C99.9947 299.455 99.4028 299.634 98.9293 299.994C98.4606 300.354 98.1078 300.837 97.8711 301.443C97.6391 302.049 97.5231 302.722 97.5231 303.46C97.5231 304.218 97.6415 304.888 97.8782 305.47C98.1197 306.048 98.4748 306.502 98.9435 306.834C99.417 307.161 100.004 307.324 100.705 307.324Z" fill="white" fill-opacity="0.95"/>
</svg>
