<svg width="244" height="1546" viewBox="0 0 244 1546" fill="none" xmlns="http://www.w3.org/2000/svg">
<mask id="path-1-inside-1_2144_60964" fill="white">
<path d="M0 0H244V1546H0V0Z"/>
</mask>
<path d="M0 0H244V1546H0V0Z" fill="#1A1A1A"/>
<path d="M244 1546V1547H245V1546H244ZM243 0V1546H245V0H243ZM244 1545H0V1547H244V1545Z" fill="#707070" mask="url(#path-1-inside-1_2144_60964)"/>
<path d="M30.9659 767.017V765.455H41.875V767.017H37.3011V780H35.5398V767.017H30.9659ZM47.358 780.227C46.3068 780.227 45.4001 779.995 44.6378 779.531C43.8802 779.062 43.2955 778.409 42.8835 777.571C42.4763 776.728 42.2727 775.748 42.2727 774.631C42.2727 773.513 42.4763 772.528 42.8835 771.676C43.2955 770.819 43.8684 770.152 44.6023 769.673C45.3409 769.19 46.2027 768.949 47.1875 768.949C47.7557 768.949 48.3168 769.044 48.8707 769.233C49.4247 769.422 49.929 769.73 50.3835 770.156C50.8381 770.578 51.2003 771.136 51.4702 771.832C51.7401 772.528 51.875 773.385 51.875 774.403V775.114H43.4659V773.665H50.1705C50.1705 773.049 50.0473 772.5 49.8011 772.017C49.5597 771.534 49.214 771.153 48.7642 770.874C48.3191 770.594 47.7936 770.455 47.1875 770.455C46.5199 770.455 45.9422 770.62 45.4545 770.952C44.9716 771.278 44.5999 771.705 44.3395 772.23C44.0791 772.756 43.9489 773.319 43.9489 773.92V774.886C43.9489 775.71 44.0909 776.409 44.375 776.982C44.6638 777.55 45.0639 777.983 45.5753 778.281C46.0866 778.575 46.6809 778.722 47.358 778.722C47.7983 778.722 48.196 778.66 48.5511 778.537C48.911 778.409 49.2211 778.22 49.4815 777.969C49.742 777.713 49.9432 777.396 50.0852 777.017L51.7045 777.472C51.5341 778.021 51.2476 778.504 50.8452 778.92C50.4427 779.332 49.9455 779.654 49.3537 779.886C48.7618 780.114 48.0966 780.227 47.358 780.227ZM55.3817 769.091L57.9954 773.551L60.609 769.091H62.5408L59.0181 774.545L62.5408 780H60.609L57.9954 775.767L55.3817 780H53.4499L56.9158 774.545L53.4499 769.091H55.3817ZM69.6768 769.091V770.511H64.0234V769.091H69.6768ZM65.6712 766.477H67.3473V776.875C67.3473 777.348 67.416 777.704 67.5533 777.94C67.6953 778.172 67.8752 778.329 68.093 778.409C68.3156 778.485 68.55 778.523 68.7962 778.523C68.9808 778.523 69.1323 778.513 69.2507 778.494C69.3691 778.471 69.4638 778.452 69.5348 778.438L69.8757 779.943C69.7621 779.986 69.6035 780.028 69.3999 780.071C69.1963 780.118 68.9382 780.142 68.6257 780.142C68.1522 780.142 67.6882 780.04 67.2337 779.837C66.7839 779.633 66.4098 779.323 66.1115 778.906C65.8179 778.49 65.6712 777.964 65.6712 777.33V766.477ZM82.6811 769.091V770.511H76.8004V769.091H82.6811ZM78.5618 780V767.585C78.5618 766.96 78.7086 766.439 79.0021 766.023C79.2957 765.606 79.6768 765.294 80.1456 765.085C80.6143 764.877 81.1091 764.773 81.63 764.773C82.0419 764.773 82.3781 764.806 82.6385 764.872C82.8989 764.938 83.093 765 83.2209 765.057L82.7379 766.506C82.6527 766.477 82.5343 766.442 82.3828 766.399C82.236 766.357 82.0419 766.335 81.8004 766.335C81.2464 766.335 80.8464 766.475 80.6001 766.754C80.3587 767.034 80.2379 767.443 80.2379 767.983V780H78.5618ZM85.0302 780V769.091H86.7063V780H85.0302ZM85.8825 767.273C85.5558 767.273 85.274 767.161 85.0373 766.939C84.8053 766.716 84.6893 766.449 84.6893 766.136C84.6893 765.824 84.8053 765.556 85.0373 765.334C85.274 765.111 85.5558 765 85.8825 765C86.2092 765 86.4885 765.111 86.7205 765.334C86.9573 765.556 87.0756 765.824 87.0756 766.136C87.0756 766.449 86.9573 766.716 86.7205 766.939C86.4885 767.161 86.2092 767.273 85.8825 767.273ZM94.3501 780.227C93.299 780.227 92.3923 779.995 91.63 779.531C90.8724 779.062 90.2876 778.409 89.8757 777.571C89.4685 776.728 89.2649 775.748 89.2649 774.631C89.2649 773.513 89.4685 772.528 89.8757 771.676C90.2876 770.819 90.8606 770.152 91.5945 769.673C92.3331 769.19 93.1948 768.949 94.1797 768.949C94.7479 768.949 95.3089 769.044 95.8629 769.233C96.4169 769.422 96.9212 769.73 97.3757 770.156C97.8303 770.578 98.1925 771.136 98.4624 771.832C98.7322 772.528 98.8672 773.385 98.8672 774.403V775.114H90.4581V773.665H97.1626C97.1626 773.049 97.0395 772.5 96.7933 772.017C96.5518 771.534 96.2062 771.153 95.7564 770.874C95.3113 770.594 94.7857 770.455 94.1797 770.455C93.5121 770.455 92.9344 770.62 92.4467 770.952C91.9638 771.278 91.5921 771.705 91.3317 772.23C91.0713 772.756 90.9411 773.319 90.9411 773.92V774.886C90.9411 775.71 91.0831 776.409 91.3672 776.982C91.656 777.55 92.0561 777.983 92.5675 778.281C93.0788 778.575 93.6731 778.722 94.3501 778.722C94.7905 778.722 95.1882 778.66 95.5433 778.537C95.9032 778.409 96.2133 778.22 96.4737 777.969C96.7341 777.713 96.9354 777.396 97.0774 777.017L98.6967 777.472C98.5263 778.021 98.2398 778.504 97.8374 778.92C97.4349 779.332 96.9377 779.654 96.3459 779.886C95.754 780.114 95.0888 780.227 94.3501 780.227ZM103.093 765.455V780H101.417V765.455H103.093ZM110.282 780.227C109.373 780.227 108.571 779.998 107.875 779.538C107.179 779.074 106.634 778.421 106.241 777.578C105.848 776.731 105.652 775.729 105.652 774.574C105.652 773.428 105.848 772.434 106.241 771.591C106.634 770.748 107.181 770.097 107.882 769.638C108.583 769.179 109.392 768.949 110.311 768.949C111.021 768.949 111.582 769.067 111.994 769.304C112.411 769.536 112.728 769.801 112.946 770.099C113.168 770.393 113.341 770.634 113.464 770.824H113.606V765.455H115.282V780H113.663V778.324H113.464C113.341 778.523 113.166 778.774 112.939 779.077C112.711 779.375 112.387 779.643 111.966 779.879C111.544 780.111 110.983 780.227 110.282 780.227ZM110.51 778.722C111.182 778.722 111.75 778.546 112.214 778.196C112.678 777.841 113.031 777.351 113.272 776.726C113.514 776.096 113.635 775.369 113.635 774.545C113.635 773.731 113.516 773.018 113.279 772.408C113.043 771.792 112.692 771.314 112.228 770.973C111.764 770.627 111.191 770.455 110.51 770.455C109.799 770.455 109.208 770.637 108.734 771.001C108.265 771.361 107.913 771.851 107.676 772.472C107.444 773.087 107.328 773.778 107.328 774.545C107.328 775.322 107.446 776.027 107.683 776.662C107.924 777.292 108.279 777.794 108.748 778.168C109.222 778.537 109.809 778.722 110.51 778.722ZM121.085 778.011L120.971 778.778C120.891 779.318 120.768 779.896 120.602 780.511C120.441 781.127 120.273 781.707 120.098 782.251C119.922 782.796 119.778 783.229 119.664 783.551H118.386C118.448 783.248 118.528 782.848 118.627 782.351C118.727 781.854 118.826 781.297 118.926 780.682C119.03 780.071 119.115 779.446 119.181 778.807L119.267 778.011H121.085ZM137.543 771.534L136.037 771.96C135.942 771.709 135.803 771.465 135.618 771.229C135.438 770.987 135.192 770.788 134.879 770.632C134.567 770.476 134.167 770.398 133.679 770.398C133.011 770.398 132.455 770.552 132.01 770.859C131.57 771.162 131.349 771.548 131.349 772.017C131.349 772.434 131.501 772.763 131.804 773.004C132.107 773.246 132.58 773.447 133.224 773.608L134.844 774.006C135.819 774.242 136.546 774.605 137.024 775.092C137.502 775.575 137.741 776.198 137.741 776.96C137.741 777.585 137.562 778.144 137.202 778.636C136.847 779.129 136.349 779.517 135.71 779.801C135.071 780.085 134.328 780.227 133.48 780.227C132.367 780.227 131.446 779.986 130.717 779.503C129.988 779.02 129.527 778.314 129.332 777.386L130.923 776.989C131.075 777.576 131.361 778.016 131.783 778.31C132.209 778.603 132.765 778.75 133.452 778.75C134.233 778.75 134.853 778.584 135.312 778.253C135.777 777.917 136.009 777.514 136.009 777.045C136.009 776.667 135.876 776.349 135.611 776.094C135.346 775.833 134.938 775.639 134.389 775.511L132.571 775.085C131.572 774.848 130.838 774.482 130.369 773.984C129.905 773.482 129.673 772.855 129.673 772.102C129.673 771.487 129.846 770.942 130.192 770.469C130.542 769.995 131.018 769.624 131.619 769.354C132.225 769.084 132.912 768.949 133.679 768.949C134.759 768.949 135.606 769.186 136.222 769.659C136.842 770.133 137.282 770.758 137.543 771.534ZM144.838 780.227C143.787 780.227 142.881 779.995 142.118 779.531C141.361 779.062 140.776 778.409 140.364 777.571C139.957 776.728 139.753 775.748 139.753 774.631C139.753 773.513 139.957 772.528 140.364 771.676C140.776 770.819 141.349 770.152 142.083 769.673C142.821 769.19 143.683 768.949 144.668 768.949C145.236 768.949 145.797 769.044 146.351 769.233C146.905 769.422 147.409 769.73 147.864 770.156C148.319 770.578 148.681 771.136 148.951 771.832C149.221 772.528 149.355 773.385 149.355 774.403V775.114H140.946V773.665H147.651C147.651 773.049 147.528 772.5 147.282 772.017C147.04 771.534 146.694 771.153 146.245 770.874C145.8 770.594 145.274 770.455 144.668 770.455C144 770.455 143.423 770.62 142.935 770.952C142.452 771.278 142.08 771.705 141.82 772.23C141.56 772.756 141.429 773.319 141.429 773.92V774.886C141.429 775.71 141.571 776.409 141.855 776.982C142.144 777.55 142.544 777.983 143.056 778.281C143.567 778.575 144.161 778.722 144.838 778.722C145.279 778.722 145.676 778.66 146.032 778.537C146.391 778.409 146.702 778.22 146.962 777.969C147.222 777.713 147.424 777.396 147.566 777.017L149.185 777.472C149.015 778.021 148.728 778.504 148.326 778.92C147.923 779.332 147.426 779.654 146.834 779.886C146.242 780.114 145.577 780.227 144.838 780.227ZM153.581 765.455V780H151.905V765.455H153.581ZM161.225 780.227C160.174 780.227 159.267 779.995 158.505 779.531C157.747 779.062 157.163 778.409 156.751 777.571C156.344 776.728 156.14 775.748 156.14 774.631C156.14 773.513 156.344 772.528 156.751 771.676C157.163 770.819 157.736 770.152 158.469 769.673C159.208 769.19 160.07 768.949 161.055 768.949C161.623 768.949 162.184 769.044 162.738 769.233C163.292 769.422 163.796 769.73 164.251 770.156C164.705 770.578 165.067 771.136 165.337 771.832C165.607 772.528 165.742 773.385 165.742 774.403V775.114H157.333V773.665H164.038C164.038 773.049 163.915 772.5 163.668 772.017C163.427 771.534 163.081 771.153 162.631 770.874C162.186 770.594 161.661 770.455 161.055 770.455C160.387 770.455 159.809 770.62 159.322 770.952C158.839 771.278 158.467 771.705 158.207 772.23C157.946 772.756 157.816 773.319 157.816 773.92V774.886C157.816 775.71 157.958 776.409 158.242 776.982C158.531 777.55 158.931 777.983 159.442 778.281C159.954 778.575 160.548 778.722 161.225 778.722C161.665 778.722 162.063 778.66 162.418 778.537C162.778 778.409 163.088 778.22 163.349 777.969C163.609 777.713 163.81 777.396 163.952 777.017L165.572 777.472C165.401 778.021 165.115 778.504 164.712 778.92C164.31 779.332 163.813 779.654 163.221 779.886C162.629 780.114 161.964 780.227 161.225 780.227ZM172.724 780.227C171.701 780.227 170.82 779.986 170.082 779.503C169.343 779.02 168.775 778.355 168.377 777.507C167.979 776.66 167.781 775.691 167.781 774.602C167.781 773.494 167.984 772.517 168.391 771.669C168.803 770.817 169.376 770.152 170.11 769.673C170.849 769.19 171.71 768.949 172.695 768.949C173.462 768.949 174.154 769.091 174.769 769.375C175.385 769.659 175.889 770.057 176.282 770.568C176.675 771.08 176.919 771.676 177.013 772.358H175.337C175.21 771.861 174.925 771.42 174.485 771.037C174.049 770.649 173.462 770.455 172.724 770.455C172.07 770.455 171.497 770.625 171.005 770.966C170.517 771.302 170.136 771.778 169.862 772.393C169.592 773.004 169.457 773.722 169.457 774.545C169.457 775.388 169.589 776.122 169.854 776.747C170.124 777.372 170.503 777.857 170.991 778.203C171.483 778.549 172.061 778.722 172.724 778.722C173.159 778.722 173.555 778.646 173.91 778.494C174.265 778.343 174.566 778.125 174.812 777.841C175.058 777.557 175.233 777.216 175.337 776.818H177.013C176.919 777.462 176.684 778.042 176.31 778.558C175.941 779.07 175.451 779.477 174.84 779.78C174.234 780.078 173.529 780.227 172.724 780.227ZM184.208 769.091V770.511H178.555V769.091H184.208ZM180.202 766.477H181.879V776.875C181.879 777.348 181.947 777.704 182.085 777.94C182.227 778.172 182.406 778.329 182.624 778.409C182.847 778.485 183.081 778.523 183.327 778.523C183.512 778.523 183.664 778.513 183.782 778.494C183.9 778.471 183.995 778.452 184.066 778.438L184.407 779.943C184.293 779.986 184.135 780.028 183.931 780.071C183.728 780.118 183.469 780.142 183.157 780.142C182.683 780.142 182.219 780.04 181.765 779.837C181.315 779.633 180.941 779.323 180.643 778.906C180.349 778.49 180.202 777.964 180.202 777.33V766.477Z" fill="white" fill-opacity="0.95"/>
</svg>
