<svg width="220" height="184" viewBox="0 0 220 184" fill="none" xmlns="http://www.w3.org/2000/svg">
<mask id="path-1-inside-1_2144_60820" fill="white">
<path d="M0 0H220V184H0V0Z"/>
</mask>
<path d="M0 0H220V184H0V0Z" fill="#1A1A1A"/>
<path d="M220 184V185H221V184H220ZM219 0V184H221V0H219ZM220 183H0V185H220V183Z" fill="#707070" mask="url(#path-1-inside-1_2144_60820)"/>
<path d="M36.6193 84.4545V99H34.858V86.3011H34.7727L31.2216 88.6591V86.8693L34.858 84.4545H36.6193ZM40.4616 96.017V94.5682L46.8537 84.4545H47.9048V86.6989H47.1946L42.3651 94.3409V94.4545H50.973V96.017H40.4616ZM47.3082 99V95.5767V94.902V84.4545H48.9844V99H47.3082ZM53.663 103.091V88.0909H55.2823V89.8239H55.4812C55.6043 89.6345 55.7747 89.393 55.9925 89.0994C56.2151 88.8011 56.5323 88.536 56.9442 88.304C57.3609 88.0672 57.9244 87.9489 58.6346 87.9489C59.5531 87.9489 60.3628 88.1785 61.0636 88.6378C61.7643 89.0971 62.3112 89.7481 62.7042 90.5909C63.0972 91.4337 63.2937 92.428 63.2937 93.5739C63.2937 94.7292 63.0972 95.7306 62.7042 96.5781C62.3112 97.4209 61.7667 98.0743 61.0707 98.5384C60.3746 98.9976 59.5721 99.2273 58.663 99.2273C57.9622 99.2273 57.4012 99.1113 56.9798 98.8793C56.5584 98.6425 56.234 98.375 56.0067 98.0767C55.7795 97.7737 55.6043 97.5227 55.4812 97.3239H55.3391V103.091H53.663ZM55.3107 93.5455C55.3107 94.3693 55.4315 95.0961 55.6729 95.7259C55.9144 96.3509 56.2672 96.8409 56.7312 97.196C57.1952 97.5464 57.7634 97.7216 58.4357 97.7216C59.1365 97.7216 59.7212 97.5369 60.19 97.1676C60.6635 96.7936 61.0186 96.2917 61.2553 95.6619C61.4968 95.0275 61.6175 94.322 61.6175 93.5455C61.6175 92.7784 61.4992 92.0871 61.2624 91.4716C61.0304 90.8513 60.6777 90.3613 60.2042 90.0014C59.7354 89.6368 59.146 89.4545 58.4357 89.4545C57.7539 89.4545 57.181 89.6274 56.717 89.973C56.253 90.3139 55.9026 90.7921 55.6658 91.4077C55.4291 92.0185 55.3107 92.7311 55.3107 93.5455ZM70.5948 88.0909V89.5114H64.9414V88.0909H70.5948ZM66.5891 85.4773H68.2653V95.875C68.2653 96.3485 68.3339 96.7036 68.4712 96.9403C68.6133 97.1723 68.7932 97.3286 69.011 97.4091C69.2335 97.4848 69.4679 97.5227 69.7141 97.5227C69.8988 97.5227 70.0503 97.5133 70.1687 97.4943C70.2871 97.4706 70.3817 97.4517 70.4528 97.4375L70.7937 98.9432C70.68 98.9858 70.5214 99.0284 70.3178 99.071C70.1142 99.1184 69.8562 99.142 69.5437 99.142C69.0702 99.142 68.6062 99.0402 68.1516 98.8366C67.7018 98.633 67.3278 98.3229 67.0295 97.9062C66.7359 97.4896 66.5891 96.964 66.5891 96.3295V85.4773Z" fill="white" fill-opacity="0.95"/>
</svg>
