<svg width="320" height="1546" viewBox="0 0 320 1546" fill="none" xmlns="http://www.w3.org/2000/svg">
<mask id="path-1-inside-1_2144_60970" fill="white">
<path d="M0 0H320V1546H0V0Z"/>
</mask>
<path d="M0 0H320V1546H0V0Z" fill="#1A1A1A"/>
<path d="M320 1546V1547H321V1546H320ZM319 0V1546H321V0H319ZM320 1545H0V1547H320V1545Z" fill="white" fill-opacity="0.2" mask="url(#path-1-inside-1_2144_60970)"/>
<mask id="path-4-inside-2_2144_60970" fill="white">
<path d="M30 765C30 760.582 33.5817 757 38 757H250V789H38C33.5817 789 30 785.418 30 781V765Z"/>
</mask>
<path d="M29 765C29 760.029 33.0294 756 38 756H250V758H38C34.134 758 31 761.134 31 765H29ZM250 790H38C33.0294 790 29 785.971 29 781H31C31 784.866 34.134 788 38 788H250V790ZM38 790C33.0294 790 29 785.971 29 781V765C29 760.029 33.0294 756 38 756V758C34.134 758 31 761.134 31 765V781C31 784.866 34.134 788 38 788V790ZM250 757V789V757Z" fill="white" fill-opacity="0.5" mask="url(#path-4-inside-2_2144_60970)"/>
<rect width="1" height="30" transform="translate(249 758)" fill="white" fill-opacity="0.5"/>
<g filter="url(#filter0_ddd_2144_60970)">
<mask id="path-6-inside-3_2144_60970" fill="white">
<path d="M250 757H274C278.418 757 282 760.582 282 765V781C282 785.418 278.418 789 274 789H250V757Z"/>
</mask>
<path d="M250 757H274C278.418 757 282 760.582 282 765V781C282 785.418 278.418 789 274 789H250V757Z" fill="white" fill-opacity="0.11" shape-rendering="crispEdges"/>
<path d="M250 756H274C278.971 756 283 760.029 283 765H281C281 761.134 277.866 758 274 758H250V756ZM283 781C283 785.971 278.971 790 274 790H250V788H274C277.866 788 281 784.866 281 781H283ZM250 789V757V789ZM274 756C278.971 756 283 760.029 283 765V781C283 785.971 278.971 790 274 790V788C277.866 788 281 784.866 281 781V765C281 761.134 277.866 758 274 758V756Z" fill="white" fill-opacity="0.5" mask="url(#path-6-inside-3_2144_60970)"/>
</g>
<defs>
<filter id="filter0_ddd_2144_60970" x="245" y="752" width="42" height="42" filterUnits="userSpaceOnUse" color-interpolation-filters="sRGB">
<feFlood flood-opacity="0" result="BackgroundImageFix"/>
<feColorMatrix in="SourceAlpha" type="matrix" values="0 0 0 0 0 0 0 0 0 0 0 0 0 0 0 0 0 0 127 0" result="hardAlpha"/>
<feMorphology radius="4" operator="dilate" in="SourceAlpha" result="effect1_dropShadow_2144_60970"/>
<feOffset/>
<feComposite in2="hardAlpha" operator="out"/>
<feColorMatrix type="matrix" values="0 0 0 0 0.392157 0 0 0 0 0.705882 0 0 0 0 0.980392 0 0 0 1 0"/>
<feBlend mode="normal" in2="BackgroundImageFix" result="effect1_dropShadow_2144_60970"/>
<feColorMatrix in="SourceAlpha" type="matrix" values="0 0 0 0 0 0 0 0 0 0 0 0 0 0 0 0 0 0 127 0" result="hardAlpha"/>
<feMorphology radius="5" operator="dilate" in="SourceAlpha" result="effect2_dropShadow_2144_60970"/>
<feOffset/>
<feComposite in2="hardAlpha" operator="out"/>
<feColorMatrix type="matrix" values="0 0 0 0 0.392157 0 0 0 0 0.705882 0 0 0 0 0.980392 0 0 0 0.3 0"/>
<feBlend mode="normal" in2="effect1_dropShadow_2144_60970" result="effect2_dropShadow_2144_60970"/>
<feColorMatrix in="SourceAlpha" type="matrix" values="0 0 0 0 0 0 0 0 0 0 0 0 0 0 0 0 0 0 127 0" result="hardAlpha"/>
<feMorphology radius="2" operator="dilate" in="SourceAlpha" result="effect3_dropShadow_2144_60970"/>
<feOffset/>
<feComposite in2="hardAlpha" operator="out"/>
<feColorMatrix type="matrix" values="0 0 0 0 0 0 0 0 0 0 0 0 0 0 0 0 0 0 1 0"/>
<feBlend mode="normal" in2="effect2_dropShadow_2144_60970" result="effect3_dropShadow_2144_60970"/>
<feBlend mode="normal" in="SourceGraphic" in2="effect3_dropShadow_2144_60970" result="shape"/>
</filter>
</defs>
</svg>
