<svg width="244" height="908" viewBox="0 0 244 908" fill="none" xmlns="http://www.w3.org/2000/svg">
<mask id="path-1-inside-1_2144_60791" fill="white">
<path d="M0 0H244V908H0V0Z"/>
</mask>
<path d="M0 0H244V908H0V0Z" fill="#1A1A1A"/>
<path d="M244 908V909H245V908H244ZM243 0V908H245V0H243ZM244 907H0V909H244V907Z" fill="#707070" mask="url(#path-1-inside-1_2144_60791)"/>
<path d="M33.5227 446.455V461H31.7614V446.455H33.5227ZM38.5032 454.438V461H36.8271V450.091H38.4464V451.795H38.5884C38.8441 451.241 39.2324 450.796 39.7532 450.46C40.274 450.119 40.9464 449.949 41.7702 449.949C42.5089 449.949 43.1552 450.1 43.7092 450.403C44.2631 450.702 44.694 451.156 45.0018 451.767C45.3095 452.373 45.4634 453.14 45.4634 454.068V461H43.7873V454.182C43.7873 453.325 43.5647 452.657 43.1197 452.179C42.6746 451.696 42.0638 451.455 41.2873 451.455C40.7522 451.455 40.274 451.571 39.8526 451.803C39.436 452.035 39.1069 452.373 38.8654 452.818C38.6239 453.263 38.5032 453.803 38.5032 454.438ZM53.3842 450.091V451.511H47.5036V450.091H53.3842ZM49.2649 461V448.585C49.2649 447.96 49.4117 447.439 49.7053 447.023C49.9988 446.606 50.38 446.294 50.8487 446.085C51.3175 445.877 51.8123 445.773 52.3331 445.773C52.745 445.773 53.0812 445.806 53.3416 445.872C53.602 445.938 53.7962 446 53.924 446.057L53.4411 447.506C53.3558 447.477 53.2375 447.442 53.0859 447.399C52.9392 447.357 52.745 447.335 52.5036 447.335C51.9496 447.335 51.5495 447.475 51.3033 447.754C51.0618 448.034 50.9411 448.443 50.9411 448.983V461H49.2649ZM59.7159 461.227C58.7311 461.227 57.867 460.993 57.1236 460.524C56.3849 460.055 55.8073 459.4 55.3906 458.557C54.9787 457.714 54.7727 456.729 54.7727 455.602C54.7727 454.466 54.9787 453.474 55.3906 452.626C55.8073 451.779 56.3849 451.121 57.1236 450.652C57.867 450.183 58.7311 449.949 59.7159 449.949C60.7008 449.949 61.5625 450.183 62.3011 450.652C63.0445 451.121 63.6222 451.779 64.0341 452.626C64.4508 453.474 64.6591 454.466 64.6591 455.602C64.6591 456.729 64.4508 457.714 64.0341 458.557C63.6222 459.4 63.0445 460.055 62.3011 460.524C61.5625 460.993 60.7008 461.227 59.7159 461.227ZM59.7159 459.722C60.464 459.722 61.0795 459.53 61.5625 459.146C62.0455 458.763 62.4029 458.259 62.6349 457.634C62.867 457.009 62.983 456.331 62.983 455.602C62.983 454.873 62.867 454.194 62.6349 453.564C62.4029 452.934 62.0455 452.425 61.5625 452.037C61.0795 451.649 60.464 451.455 59.7159 451.455C58.9678 451.455 58.3523 451.649 57.8693 452.037C57.3864 452.425 57.0289 452.934 56.7969 453.564C56.5649 454.194 56.4489 454.873 56.4489 455.602C56.4489 456.331 56.5649 457.009 56.7969 457.634C57.0289 458.259 57.3864 458.763 57.8693 459.146C58.3523 459.53 58.9678 459.722 59.7159 459.722ZM73.07 461V446.455H74.7461V451.824H74.8881C75.0112 451.634 75.1817 451.393 75.3995 451.099C75.622 450.801 75.9393 450.536 76.3512 450.304C76.7679 450.067 77.3313 449.949 78.0415 449.949C78.9601 449.949 79.7698 450.179 80.4705 450.638C81.1713 451.097 81.7182 451.748 82.1112 452.591C82.5041 453.434 82.7006 454.428 82.7006 455.574C82.7006 456.729 82.5041 457.731 82.1112 458.578C81.7182 459.421 81.1737 460.074 80.4776 460.538C79.7816 460.998 78.979 461.227 78.07 461.227C77.3692 461.227 76.8081 461.111 76.3867 460.879C75.9653 460.643 75.641 460.375 75.4137 460.077C75.1864 459.774 75.0112 459.523 74.8881 459.324H74.6893V461H73.07ZM74.7177 455.545C74.7177 456.369 74.8384 457.096 75.0799 457.726C75.3214 458.351 75.6741 458.841 76.1381 459.196C76.6022 459.546 77.1703 459.722 77.8427 459.722C78.5434 459.722 79.1282 459.537 79.5969 459.168C80.0704 458.794 80.4255 458.292 80.6623 457.662C80.9038 457.027 81.0245 456.322 81.0245 455.545C81.0245 454.778 80.9061 454.087 80.6694 453.472C80.4374 452.851 80.0846 452.361 79.6112 452.001C79.1424 451.637 78.5529 451.455 77.8427 451.455C77.1609 451.455 76.5879 451.627 76.1239 451.973C75.6599 452.314 75.3095 452.792 75.0728 453.408C74.8361 454.018 74.7177 454.731 74.7177 455.545ZM92.1396 456.54V450.091H93.8157V461H92.1396V459.153H92.0259C91.7702 459.707 91.3725 460.179 90.8327 460.567C90.293 460.95 89.6112 461.142 88.7873 461.142C88.1055 461.142 87.4994 460.993 86.9691 460.695C86.4388 460.392 86.0221 459.937 85.7191 459.331C85.4161 458.72 85.2646 457.951 85.2646 457.023V450.091H86.9407V456.909C86.9407 457.705 87.1632 458.339 87.6083 458.812C88.0581 459.286 88.631 459.523 89.3271 459.523C89.7437 459.523 90.1675 459.416 90.5984 459.203C91.034 458.99 91.3986 458.663 91.6921 458.223C91.9904 457.783 92.1396 457.222 92.1396 456.54ZM101.63 450.091V451.511H95.9766V450.091H101.63ZM97.6243 447.477H99.3004V457.875C99.3004 458.348 99.3691 458.704 99.5064 458.94C99.6484 459.172 99.8284 459.329 100.046 459.409C100.269 459.485 100.503 459.523 100.749 459.523C100.934 459.523 101.085 459.513 101.204 459.494C101.322 459.471 101.417 459.452 101.488 459.438L101.829 460.943C101.715 460.986 101.557 461.028 101.353 461.071C101.149 461.118 100.891 461.142 100.579 461.142C100.105 461.142 99.6413 461.04 99.1868 460.837C98.737 460.633 98.3629 460.323 98.0646 459.906C97.7711 459.49 97.6243 458.964 97.6243 458.33V447.477ZM108.896 450.091V451.511H103.242V450.091H108.896ZM104.89 447.477H106.566V457.875C106.566 458.348 106.635 458.704 106.772 458.94C106.914 459.172 107.094 459.329 107.312 459.409C107.534 459.485 107.769 459.523 108.015 459.523C108.2 459.523 108.351 459.513 108.469 459.494C108.588 459.471 108.683 459.452 108.754 459.438L109.094 460.943C108.981 460.986 108.822 461.028 108.619 461.071C108.415 461.118 108.157 461.142 107.844 461.142C107.371 461.142 106.907 461.04 106.452 460.837C106.003 460.633 105.629 460.323 105.33 459.906C105.037 459.49 104.89 458.964 104.89 458.33V447.477ZM115.732 461.227C114.747 461.227 113.883 460.993 113.139 460.524C112.401 460.055 111.823 459.4 111.406 458.557C110.994 457.714 110.788 456.729 110.788 455.602C110.788 454.466 110.994 453.474 111.406 452.626C111.823 451.779 112.401 451.121 113.139 450.652C113.883 450.183 114.747 449.949 115.732 449.949C116.716 449.949 117.578 450.183 118.317 450.652C119.06 451.121 119.638 451.779 120.05 452.626C120.466 453.474 120.675 454.466 120.675 455.602C120.675 456.729 120.466 457.714 120.05 458.557C119.638 459.4 119.06 460.055 118.317 460.524C117.578 460.993 116.716 461.227 115.732 461.227ZM115.732 459.722C116.48 459.722 117.095 459.53 117.578 459.146C118.061 458.763 118.419 458.259 118.651 457.634C118.883 457.009 118.999 456.331 118.999 455.602C118.999 454.873 118.883 454.194 118.651 453.564C118.419 452.934 118.061 452.425 117.578 452.037C117.095 451.649 116.48 451.455 115.732 451.455C114.983 451.455 114.368 451.649 113.885 452.037C113.402 452.425 113.045 452.934 112.812 453.564C112.58 454.194 112.464 454.873 112.464 455.602C112.464 456.331 112.58 457.009 112.812 457.634C113.045 458.259 113.402 458.763 113.885 459.146C114.368 459.53 114.983 459.722 115.732 459.722ZM124.909 454.438V461H123.233V450.091H124.853V451.795H124.995C125.25 451.241 125.639 450.796 126.159 450.46C126.68 450.119 127.353 449.949 128.176 449.949C128.915 449.949 129.561 450.1 130.115 450.403C130.669 450.702 131.1 451.156 131.408 451.767C131.716 452.373 131.87 453.14 131.87 454.068V461H130.194V454.182C130.194 453.325 129.971 452.657 129.526 452.179C129.081 451.696 128.47 451.455 127.694 451.455C127.158 451.455 126.68 451.571 126.259 451.803C125.842 452.035 125.513 452.373 125.272 452.818C125.03 453.263 124.909 453.803 124.909 454.438ZM143.342 454.636L143.455 451.511L140.813 453.188L140.131 451.994L142.915 450.545L140.131 449.097L140.813 447.903L143.455 449.58L143.342 446.455H144.705L144.592 449.58L147.234 447.903L147.915 449.097L145.131 450.545L147.915 451.994L147.234 453.188L144.592 451.511L144.705 454.636H143.342Z" fill="white" fill-opacity="0.95"/>
</svg>
