<svg width="245" height="634" viewBox="0 0 245 634" fill="none" xmlns="http://www.w3.org/2000/svg">
<mask id="path-1-inside-1_2144_60920" fill="white">
<path d="M0 0H245V634H0V0Z"/>
</mask>
<path d="M0 0H245V634H0V0Z" fill="#1A1A1A"/>
<path d="M245 634V635H246V634H245ZM244 0V634H246V0H244ZM245 633H0V635H245V633Z" fill="#707070" mask="url(#path-1-inside-1_2144_60920)"/>
<path d="M31.7614 324V309.455H36.6761C37.8125 309.455 38.7453 309.649 39.4744 310.037C40.2036 310.42 40.7434 310.948 41.0938 311.621C41.4441 312.293 41.6193 313.058 41.6193 313.915C41.6193 314.772 41.4441 315.532 41.0938 316.195C40.7434 316.857 40.206 317.378 39.4815 317.757C38.7571 318.131 37.8314 318.318 36.7045 318.318H32.7273V316.727H36.6477C37.4242 316.727 38.0492 316.614 38.5227 316.386C39.0009 316.159 39.3466 315.837 39.5597 315.42C39.7775 314.999 39.8864 314.497 39.8864 313.915C39.8864 313.332 39.7775 312.823 39.5597 312.388C39.3419 311.952 38.9938 311.616 38.5156 311.379C38.0374 311.138 37.4053 311.017 36.6193 311.017H33.5227V324H31.7614ZM38.608 317.466L42.1875 324H40.142L36.6193 317.466H38.608ZM48.7837 324.227C47.7326 324.227 46.8259 323.995 46.0636 323.531C45.306 323.062 44.7212 322.409 44.3093 321.571C43.9021 320.728 43.6985 319.748 43.6985 318.631C43.6985 317.513 43.9021 316.528 44.3093 315.676C44.7212 314.819 45.2942 314.152 46.0281 313.673C46.7667 313.19 47.6284 312.949 48.6133 312.949C49.1815 312.949 49.7425 313.044 50.2965 313.233C50.8505 313.422 51.3548 313.73 51.8093 314.156C52.2638 314.578 52.6261 315.136 52.896 315.832C53.1658 316.528 53.3008 317.385 53.3008 318.403V319.114H44.8917V317.665H51.5962C51.5962 317.049 51.4731 316.5 51.2269 316.017C50.9854 315.534 50.6398 315.153 50.19 314.874C49.7449 314.594 49.2193 314.455 48.6133 314.455C47.9457 314.455 47.368 314.62 46.8803 314.952C46.3974 315.278 46.0257 315.705 45.7653 316.23C45.5049 316.756 45.3746 317.319 45.3746 317.92V318.886C45.3746 319.71 45.5167 320.409 45.8008 320.982C46.0896 321.55 46.4897 321.983 47.0011 322.281C47.5124 322.575 48.1067 322.722 48.7837 322.722C49.2241 322.722 49.6218 322.66 49.9769 322.537C50.3368 322.409 50.6469 322.22 50.9073 321.969C51.1677 321.713 51.369 321.396 51.511 321.017L53.1303 321.472C52.9599 322.021 52.6734 322.504 52.271 322.92C51.8685 323.332 51.3713 323.654 50.7795 323.886C50.1876 324.114 49.5224 324.227 48.7837 324.227ZM63.5778 315.534L62.0721 315.96C61.9774 315.709 61.8377 315.465 61.6531 315.229C61.4731 314.987 61.2269 314.788 60.9144 314.632C60.6019 314.476 60.2018 314.398 59.7141 314.398C59.0465 314.398 58.4902 314.552 58.0451 314.859C57.6048 315.162 57.3846 315.548 57.3846 316.017C57.3846 316.434 57.5361 316.763 57.8391 317.004C58.1422 317.246 58.6156 317.447 59.2596 317.608L60.8789 318.006C61.8543 318.242 62.5811 318.605 63.0593 319.092C63.5375 319.575 63.7766 320.198 63.7766 320.96C63.7766 321.585 63.5967 322.144 63.2369 322.636C62.8817 323.129 62.3846 323.517 61.7454 323.801C61.1062 324.085 60.3628 324.227 59.5153 324.227C58.4026 324.227 57.4817 323.986 56.7525 323.503C56.0233 323.02 55.5617 322.314 55.3675 321.386L56.9585 320.989C57.11 321.576 57.3964 322.016 57.8178 322.31C58.244 322.603 58.8003 322.75 59.4869 322.75C60.2681 322.75 60.8884 322.584 61.3477 322.253C61.8117 321.917 62.0437 321.514 62.0437 321.045C62.0437 320.667 61.9111 320.349 61.646 320.094C61.3808 319.833 60.9736 319.639 60.4244 319.511L58.6062 319.085C57.6071 318.848 56.8732 318.482 56.4045 317.984C55.9405 317.482 55.7085 316.855 55.7085 316.102C55.7085 315.487 55.8813 314.942 56.2269 314.469C56.5773 313.995 57.0531 313.624 57.6545 313.354C58.2605 313.084 58.9471 312.949 59.7141 312.949C60.7937 312.949 61.6412 313.186 62.2567 313.659C62.877 314.133 63.3174 314.758 63.5778 315.534ZM71.044 313.091V314.511H65.3906V313.091H71.044ZM67.0384 310.477H68.7145V320.875C68.7145 321.348 68.7831 321.704 68.9205 321.94C69.0625 322.172 69.2424 322.329 69.4602 322.409C69.6828 322.485 69.9171 322.523 70.1634 322.523C70.348 322.523 70.4995 322.513 70.6179 322.494C70.7363 322.471 70.831 322.452 70.902 322.438L71.2429 323.943C71.1293 323.986 70.9706 324.028 70.767 324.071C70.5634 324.118 70.3054 324.142 69.9929 324.142C69.5194 324.142 69.0554 324.04 68.6009 323.837C68.151 323.633 67.777 323.323 67.4787 322.906C67.1851 322.49 67.0384 321.964 67.0384 321.33V310.477Z" fill="white" fill-opacity="0.95"/>
</svg>
