<svg width="320" height="308" viewBox="0 0 320 308" fill="none" xmlns="http://www.w3.org/2000/svg">
<mask id="path-1-inside-1_2144_60797" fill="white">
<path d="M0 0H320V308H0V0Z"/>
</mask>
<path d="M0 0H320V308H0V0Z" fill="#1A1A1A"/>
<path d="M320 308V309H321V308H320ZM319 0V308H321V0H319ZM320 307H0V309H320V307Z" fill="white" fill-opacity="0.2" mask="url(#path-1-inside-1_2144_60797)"/>
<path d="M40 160.75C43.7279 160.75 46.75 157.728 46.75 154C46.75 150.272 43.7279 147.25 40 147.25C36.2721 147.25 33.25 150.272 33.25 154C33.25 157.728 36.2721 160.75 40 160.75ZM38.2857 149.714C38.2857 148.925 38.9253 148.286 39.7143 148.286C40.5033 148.286 41.1429 148.925 41.1429 149.714C41.1429 150.503 40.5033 151.143 39.7143 151.143C38.9253 151.143 38.2857 150.503 38.2857 149.714ZM38.8571 154C38.226 154 37.7143 153.488 37.7143 152.857C37.7143 152.226 38.226 151.714 38.8571 151.714H40C40.6312 151.714 41.1429 152.226 41.1429 152.857V156.857H42.2857C42.9169 156.857 43.4286 157.369 43.4286 158C43.4286 158.631 42.9169 159.143 42.2857 159.143H37.7143C37.0831 159.143 36.5714 158.631 36.5714 158C36.5714 157.369 37.0831 156.857 37.7143 156.857H38.8571V154Z" fill="white" fill-opacity="0.2"/>
</svg>
