<svg width="320" height="604" viewBox="0 0 320 604" fill="none" xmlns="http://www.w3.org/2000/svg">
<mask id="path-1-inside-1_2144_60887" fill="white">
<path d="M0 0H320V604H0V0Z"/>
</mask>
<path d="M0 0H320V604H0V0Z" fill="#1A1A1A"/>
<path d="M319 0V604H321V0H319Z" fill="white" fill-opacity="0.2" mask="url(#path-1-inside-1_2144_60887)"/>
<path d="M44.75 302C44.75 305.728 41.7279 308.75 38 308.75C34.2721 308.75 31.25 305.728 31.25 302C31.25 298.272 34.2721 295.25 38 295.25C41.7279 295.25 44.75 298.272 44.75 302ZM41.3584 298.906L36.7497 303.515L34.6252 301.39C34.1789 300.944 33.4553 300.944 33.009 301.39C32.5627 301.837 32.5627 302.56 33.009 303.007L35.4333 305.431C35.4447 305.442 35.4561 305.453 35.4678 305.464L35.9423 305.939C36.3886 306.385 37.1122 306.385 37.5585 305.939L42.9747 300.522C43.421 300.076 43.421 299.352 42.9747 298.906C42.5283 298.46 41.8047 298.46 41.3584 298.906Z" fill="#3CC29A"/>
<path d="M61.406 295.92H62.848V306H61.406V301.506H56.478V306H55.05V295.92H56.478V300.302H61.406V295.92ZM69.8344 303.9H71.2904C71.0851 304.637 70.6791 305.216 70.0724 305.636C69.5031 306.019 68.8218 306.21 68.0284 306.21C66.8804 306.21 65.9844 305.846 65.3404 305.118C64.7524 304.437 64.4584 303.517 64.4584 302.36C64.4584 301.044 64.8318 300.045 65.5784 299.364C66.1944 298.795 66.9878 298.51 67.9584 298.51C69.0971 298.51 69.9558 298.879 70.5344 299.616C71.0944 300.325 71.3744 301.338 71.3744 302.654H65.8304C65.8864 303.513 66.1478 304.152 66.6144 304.572C66.9971 304.908 67.4824 305.076 68.0704 305.076C68.5278 305.076 68.9244 304.95 69.2604 304.698C69.5404 304.483 69.7318 304.217 69.8344 303.9ZM67.9864 299.588C67.3891 299.588 66.9084 299.775 66.5444 300.148C66.1991 300.493 65.9798 300.974 65.8864 301.59H70.0024C69.9558 300.89 69.7224 300.367 69.3024 300.022C68.9664 299.733 68.5278 299.588 67.9864 299.588ZM74.3299 295.92V306H72.9859V295.92H74.3299ZM76.2945 298.72H77.4005L77.6105 299.672C78.2078 298.897 79.0291 298.51 80.0745 298.51C81.1198 298.51 81.9318 298.883 82.5105 299.63C83.0238 300.302 83.2805 301.193 83.2805 302.304C83.2805 303.62 82.9305 304.628 82.2305 305.328C81.6425 305.916 80.8911 306.21 79.9765 306.21C78.9405 306.21 78.1611 305.827 77.6385 305.062V308.52H76.2945V298.72ZM81.8805 302.276C81.8805 301.361 81.6518 300.675 81.1945 300.218C80.8305 299.845 80.3545 299.658 79.7665 299.658C79.0851 299.658 78.5438 299.905 78.1425 300.4C77.7598 300.876 77.5685 301.501 77.5685 302.276C77.5685 303.209 77.7971 303.923 78.2545 304.418C78.6371 304.847 79.1411 305.062 79.7665 305.062C80.4665 305.062 80.9985 304.805 81.3625 304.292C81.7078 303.816 81.8805 303.144 81.8805 302.276ZM89.7817 303.9H91.2377C91.0324 304.637 90.6264 305.216 90.0197 305.636C89.4504 306.019 88.769 306.21 87.9757 306.21C86.8277 306.21 85.9317 305.846 85.2877 305.118C84.6997 304.437 84.4057 303.517 84.4057 302.36C84.4057 301.044 84.779 300.045 85.5257 299.364C86.1417 298.795 86.935 298.51 87.9057 298.51C89.0444 298.51 89.903 298.879 90.4817 299.616C91.0417 300.325 91.3217 301.338 91.3217 302.654H85.7777C85.8337 303.513 86.095 304.152 86.5617 304.572C86.9444 304.908 87.4297 305.076 88.0177 305.076C88.475 305.076 88.8717 304.95 89.2077 304.698C89.4877 304.483 89.679 304.217 89.7817 303.9ZM87.9337 299.588C87.3364 299.588 86.8557 299.775 86.4917 300.148C86.1464 300.493 85.927 300.974 85.8337 301.59H89.9497C89.903 300.89 89.6697 300.367 89.2497 300.022C88.9137 299.733 88.475 299.588 87.9337 299.588ZM94.2771 306H92.9331V298.72H94.0391L94.2211 299.798C94.6318 298.939 95.2478 298.51 96.0691 298.51C96.3398 298.51 96.6058 298.543 96.8671 298.608V299.952C96.5498 299.868 96.2651 299.826 96.0131 299.826C95.4718 299.826 95.0471 300.045 94.7391 300.484C94.4311 300.923 94.2771 301.543 94.2771 302.346V306ZM105.369 304.922V306.07C105.023 306.163 104.692 306.21 104.375 306.21C103.703 306.21 103.199 306 102.863 305.58C102.573 305.235 102.429 304.773 102.429 304.194V299.868H101.351V298.72H102.429L102.513 296.97H103.773V298.72H105.341V299.868H103.773V304.222C103.773 304.763 104.029 305.034 104.543 305.034C104.785 305.034 105.061 304.997 105.369 304.922ZM111.52 303.9H112.976C112.771 304.637 112.365 305.216 111.758 305.636C111.189 306.019 110.507 306.21 109.714 306.21C108.566 306.21 107.67 305.846 107.026 305.118C106.438 304.437 106.144 303.517 106.144 302.36C106.144 301.044 106.517 300.045 107.264 299.364C107.88 298.795 108.673 298.51 109.644 298.51C110.783 298.51 111.641 298.879 112.22 299.616C112.78 300.325 113.06 301.338 113.06 302.654H107.516C107.572 303.513 107.833 304.152 108.3 304.572C108.683 304.908 109.168 305.076 109.756 305.076C110.213 305.076 110.61 304.95 110.946 304.698C111.226 304.483 111.417 304.217 111.52 303.9ZM109.672 299.588C109.075 299.588 108.594 299.775 108.23 300.148C107.885 300.493 107.665 300.974 107.572 301.59H111.688C111.641 300.89 111.408 300.367 110.988 300.022C110.652 299.733 110.213 299.588 109.672 299.588ZM120.537 298.72L118.101 302.122L120.957 306H119.319L117.345 303.186L115.413 306H113.831L116.547 302.22L113.999 298.72H115.609L117.345 301.17L118.997 298.72H120.537ZM125.33 304.922V306.07C124.984 306.163 124.653 306.21 124.336 306.21C123.664 306.21 123.16 306 122.824 305.58C122.534 305.235 122.39 304.773 122.39 304.194V299.868H121.312V298.72H122.39L122.474 296.97H123.734V298.72H125.302V299.868H123.734V304.222C123.734 304.763 123.99 305.034 124.504 305.034C124.746 305.034 125.022 304.997 125.33 304.922Z" fill="#3CC29A"/>
</svg>
