<svg width="220" height="604" viewBox="0 0 220 604" fill="none" xmlns="http://www.w3.org/2000/svg">
<mask id="path-1-inside-1_2144_60811" fill="white">
<path d="M0 0H220V604H0V0Z"/>
</mask>
<path d="M0 0H220V604H0V0Z" fill="#1A1A1A"/>
<path d="M220 604V605H221V604H220ZM219 0V604H221V0H219ZM220 603H0V605H220V603Z" fill="#707070" mask="url(#path-1-inside-1_2144_60811)"/>
<path d="M36.6193 294.455V309H34.858V296.301H34.7727L31.2216 298.659V296.869L34.858 294.455H36.6193ZM40.4616 306.017V304.568L46.8537 294.455H47.9048V296.699H47.1946L42.3651 304.341V304.455H50.973V306.017H40.4616ZM47.3082 309V305.577V304.902V294.455H48.9844V309H47.3082ZM53.663 313.091V298.091H55.2823V299.824H55.4812C55.6043 299.634 55.7747 299.393 55.9925 299.099C56.2151 298.801 56.5323 298.536 56.9442 298.304C57.3609 298.067 57.9244 297.949 58.6346 297.949C59.5531 297.949 60.3628 298.179 61.0636 298.638C61.7643 299.097 62.3112 299.748 62.7042 300.591C63.0972 301.434 63.2937 302.428 63.2937 303.574C63.2937 304.729 63.0972 305.731 62.7042 306.578C62.3112 307.421 61.7667 308.074 61.0707 308.538C60.3746 308.998 59.5721 309.227 58.663 309.227C57.9622 309.227 57.4012 309.111 56.9798 308.879C56.5584 308.643 56.234 308.375 56.0067 308.077C55.7795 307.774 55.6043 307.523 55.4812 307.324H55.3391V313.091H53.663ZM55.3107 303.545C55.3107 304.369 55.4315 305.096 55.6729 305.726C55.9144 306.351 56.2672 306.841 56.7312 307.196C57.1952 307.546 57.7634 307.722 58.4357 307.722C59.1365 307.722 59.7212 307.537 60.19 307.168C60.6635 306.794 61.0186 306.292 61.2553 305.662C61.4968 305.027 61.6175 304.322 61.6175 303.545C61.6175 302.778 61.4992 302.087 61.2624 301.472C61.0304 300.851 60.6777 300.361 60.2042 300.001C59.7354 299.637 59.146 299.455 58.4357 299.455C57.7539 299.455 57.181 299.627 56.717 299.973C56.253 300.314 55.9026 300.792 55.6658 301.408C55.4291 302.018 55.3107 302.731 55.3107 303.545ZM70.5948 298.091V299.511H64.9414V298.091H70.5948ZM66.5891 295.477H68.2653V305.875C68.2653 306.348 68.3339 306.704 68.4712 306.94C68.6133 307.172 68.7932 307.329 69.011 307.409C69.2335 307.485 69.4679 307.523 69.7141 307.523C69.8988 307.523 70.0503 307.513 70.1687 307.494C70.2871 307.471 70.3817 307.452 70.4528 307.438L70.7937 308.943C70.68 308.986 70.5214 309.028 70.3178 309.071C70.1142 309.118 69.8562 309.142 69.5437 309.142C69.0702 309.142 68.6062 309.04 68.1516 308.837C67.7018 308.633 67.3278 308.323 67.0295 307.906C66.7359 307.49 66.5891 306.964 66.5891 306.33V295.477Z" fill="white" fill-opacity="0.95"/>
</svg>
