<svg width="244" height="788" viewBox="0 0 244 788" fill="none" xmlns="http://www.w3.org/2000/svg">
<mask id="path-1-inside-1_2144_60800" fill="white">
<path d="M0 0H244V788H0V0Z"/>
</mask>
<path d="M0 0H244V788H0V0Z" fill="#1A1A1A"/>
<path d="M244 788V789H245V788H244ZM243 0V788H245V0H243ZM244 787H0V789H244V787Z" fill="#707070" mask="url(#path-1-inside-1_2144_60800)"/>
<path d="M33.5227 386.455V401H31.7614V386.455H33.5227ZM38.5032 394.438V401H36.8271V390.091H38.4464V391.795H38.5884C38.8441 391.241 39.2324 390.796 39.7532 390.46C40.274 390.119 40.9464 389.949 41.7702 389.949C42.5089 389.949 43.1552 390.1 43.7092 390.403C44.2631 390.702 44.694 391.156 45.0018 391.767C45.3095 392.373 45.4634 393.14 45.4634 394.068V401H43.7873V394.182C43.7873 393.325 43.5647 392.657 43.1197 392.179C42.6746 391.696 42.0638 391.455 41.2873 391.455C40.7522 391.455 40.274 391.571 39.8526 391.803C39.436 392.035 39.1069 392.373 38.8654 392.818C38.6239 393.263 38.5032 393.803 38.5032 394.438ZM53.3842 390.091V391.511H47.5036V390.091H53.3842ZM49.2649 401V388.585C49.2649 387.96 49.4117 387.439 49.7053 387.023C49.9988 386.606 50.38 386.294 50.8487 386.085C51.3175 385.877 51.8123 385.773 52.3331 385.773C52.745 385.773 53.0812 385.806 53.3416 385.872C53.602 385.938 53.7962 386 53.924 386.057L53.4411 387.506C53.3558 387.477 53.2375 387.442 53.0859 387.399C52.9392 387.357 52.745 387.335 52.5036 387.335C51.9496 387.335 51.5495 387.475 51.3033 387.754C51.0618 388.034 50.9411 388.443 50.9411 388.983V401H49.2649ZM59.7159 401.227C58.7311 401.227 57.867 400.993 57.1236 400.524C56.3849 400.055 55.8073 399.4 55.3906 398.557C54.9787 397.714 54.7727 396.729 54.7727 395.602C54.7727 394.466 54.9787 393.474 55.3906 392.626C55.8073 391.779 56.3849 391.121 57.1236 390.652C57.867 390.183 58.7311 389.949 59.7159 389.949C60.7008 389.949 61.5625 390.183 62.3011 390.652C63.0445 391.121 63.6222 391.779 64.0341 392.626C64.4508 393.474 64.6591 394.466 64.6591 395.602C64.6591 396.729 64.4508 397.714 64.0341 398.557C63.6222 399.4 63.0445 400.055 62.3011 400.524C61.5625 400.993 60.7008 401.227 59.7159 401.227ZM59.7159 399.722C60.464 399.722 61.0795 399.53 61.5625 399.146C62.0455 398.763 62.4029 398.259 62.6349 397.634C62.867 397.009 62.983 396.331 62.983 395.602C62.983 394.873 62.867 394.194 62.6349 393.564C62.4029 392.934 62.0455 392.425 61.5625 392.037C61.0795 391.649 60.464 391.455 59.7159 391.455C58.9678 391.455 58.3523 391.649 57.8693 392.037C57.3864 392.425 57.0289 392.934 56.7969 393.564C56.5649 394.194 56.4489 394.873 56.4489 395.602C56.4489 396.331 56.5649 397.009 56.7969 397.634C57.0289 398.259 57.3864 398.763 57.8693 399.146C58.3523 399.53 58.9678 399.722 59.7159 399.722ZM73.07 401V386.455H74.7461V391.824H74.8881C75.0112 391.634 75.1817 391.393 75.3995 391.099C75.622 390.801 75.9393 390.536 76.3512 390.304C76.7679 390.067 77.3313 389.949 78.0415 389.949C78.9601 389.949 79.7698 390.179 80.4705 390.638C81.1713 391.097 81.7182 391.748 82.1112 392.591C82.5041 393.434 82.7006 394.428 82.7006 395.574C82.7006 396.729 82.5041 397.731 82.1112 398.578C81.7182 399.421 81.1737 400.074 80.4776 400.538C79.7816 400.998 78.979 401.227 78.07 401.227C77.3692 401.227 76.8081 401.111 76.3867 400.879C75.9653 400.643 75.641 400.375 75.4137 400.077C75.1864 399.774 75.0112 399.523 74.8881 399.324H74.6893V401H73.07ZM74.7177 395.545C74.7177 396.369 74.8384 397.096 75.0799 397.726C75.3214 398.351 75.6741 398.841 76.1381 399.196C76.6022 399.546 77.1703 399.722 77.8427 399.722C78.5434 399.722 79.1282 399.537 79.5969 399.168C80.0704 398.794 80.4255 398.292 80.6623 397.662C80.9038 397.027 81.0245 396.322 81.0245 395.545C81.0245 394.778 80.9061 394.087 80.6694 393.472C80.4374 392.851 80.0846 392.361 79.6112 392.001C79.1424 391.637 78.5529 391.455 77.8427 391.455C77.1609 391.455 76.5879 391.627 76.1239 391.973C75.6599 392.314 75.3095 392.792 75.0728 393.408C74.8361 394.018 74.7177 394.731 74.7177 395.545ZM92.1396 396.54V390.091H93.8157V401H92.1396V399.153H92.0259C91.7702 399.707 91.3725 400.179 90.8327 400.567C90.293 400.95 89.6112 401.142 88.7873 401.142C88.1055 401.142 87.4994 400.993 86.9691 400.695C86.4388 400.392 86.0221 399.937 85.7191 399.331C85.4161 398.72 85.2646 397.951 85.2646 397.023V390.091H86.9407V396.909C86.9407 397.705 87.1632 398.339 87.6083 398.812C88.0581 399.286 88.631 399.523 89.3271 399.523C89.7437 399.523 90.1675 399.416 90.5984 399.203C91.034 398.99 91.3986 398.663 91.6921 398.223C91.9904 397.783 92.1396 397.222 92.1396 396.54ZM101.63 390.091V391.511H95.9766V390.091H101.63ZM97.6243 387.477H99.3004V397.875C99.3004 398.348 99.3691 398.704 99.5064 398.94C99.6484 399.172 99.8284 399.329 100.046 399.409C100.269 399.485 100.503 399.523 100.749 399.523C100.934 399.523 101.085 399.513 101.204 399.494C101.322 399.471 101.417 399.452 101.488 399.438L101.829 400.943C101.715 400.986 101.557 401.028 101.353 401.071C101.149 401.118 100.891 401.142 100.579 401.142C100.105 401.142 99.6413 401.04 99.1868 400.837C98.737 400.633 98.3629 400.323 98.0646 399.906C97.7711 399.49 97.6243 398.964 97.6243 398.33V387.477ZM108.896 390.091V391.511H103.242V390.091H108.896ZM104.89 387.477H106.566V397.875C106.566 398.348 106.635 398.704 106.772 398.94C106.914 399.172 107.094 399.329 107.312 399.409C107.534 399.485 107.769 399.523 108.015 399.523C108.2 399.523 108.351 399.513 108.469 399.494C108.588 399.471 108.683 399.452 108.754 399.438L109.094 400.943C108.981 400.986 108.822 401.028 108.619 401.071C108.415 401.118 108.157 401.142 107.844 401.142C107.371 401.142 106.907 401.04 106.452 400.837C106.003 400.633 105.629 400.323 105.33 399.906C105.037 399.49 104.89 398.964 104.89 398.33V387.477ZM115.732 401.227C114.747 401.227 113.883 400.993 113.139 400.524C112.401 400.055 111.823 399.4 111.406 398.557C110.994 397.714 110.788 396.729 110.788 395.602C110.788 394.466 110.994 393.474 111.406 392.626C111.823 391.779 112.401 391.121 113.139 390.652C113.883 390.183 114.747 389.949 115.732 389.949C116.716 389.949 117.578 390.183 118.317 390.652C119.06 391.121 119.638 391.779 120.05 392.626C120.466 393.474 120.675 394.466 120.675 395.602C120.675 396.729 120.466 397.714 120.05 398.557C119.638 399.4 119.06 400.055 118.317 400.524C117.578 400.993 116.716 401.227 115.732 401.227ZM115.732 399.722C116.48 399.722 117.095 399.53 117.578 399.146C118.061 398.763 118.419 398.259 118.651 397.634C118.883 397.009 118.999 396.331 118.999 395.602C118.999 394.873 118.883 394.194 118.651 393.564C118.419 392.934 118.061 392.425 117.578 392.037C117.095 391.649 116.48 391.455 115.732 391.455C114.983 391.455 114.368 391.649 113.885 392.037C113.402 392.425 113.045 392.934 112.812 393.564C112.58 394.194 112.464 394.873 112.464 395.602C112.464 396.331 112.58 397.009 112.812 397.634C113.045 398.259 113.402 398.763 113.885 399.146C114.368 399.53 114.983 399.722 115.732 399.722ZM124.909 394.438V401H123.233V390.091H124.853V391.795H124.995C125.25 391.241 125.639 390.796 126.159 390.46C126.68 390.119 127.353 389.949 128.176 389.949C128.915 389.949 129.561 390.1 130.115 390.403C130.669 390.702 131.1 391.156 131.408 391.767C131.716 392.373 131.87 393.14 131.87 394.068V401H130.194V394.182C130.194 393.325 129.971 392.657 129.526 392.179C129.081 391.696 128.47 391.455 127.694 391.455C127.158 391.455 126.68 391.571 126.259 391.803C125.842 392.035 125.513 392.373 125.272 392.818C125.03 393.263 124.909 393.803 124.909 394.438ZM143.342 394.636L143.455 391.511L140.813 393.188L140.131 391.994L142.915 390.545L140.131 389.097L140.813 387.903L143.455 389.58L143.342 386.455H144.705L144.592 389.58L147.234 387.903L147.915 389.097L145.131 390.545L147.915 391.994L147.234 393.188L144.592 391.511L144.705 394.636H143.342Z" fill="white" fill-opacity="0.95"/>
</svg>
