<svg width="220" height="1546" viewBox="0 0 220 1546" fill="none" xmlns="http://www.w3.org/2000/svg">
<mask id="path-1-inside-1_2144_60966" fill="white">
<path d="M0 0H220V1546H0V0Z"/>
</mask>
<path d="M0 0H220V1546H0V0Z" fill="#1A1A1A"/>
<path d="M220 1546V1547H221V1546H220ZM219 0V1546H221V0H219ZM220 1545H0V1547H220V1545Z" fill="#707070" mask="url(#path-1-inside-1_2144_60966)"/>
<path d="M31.7614 780V765.455H33.5227V771.932H41.2784V765.455H43.0398V780H41.2784V773.494H33.5227V780H31.7614ZM51.2251 780.199C50.2876 780.199 49.4519 780.038 48.718 779.716C47.9889 779.394 47.4089 778.946 46.978 778.374C46.5518 777.796 46.3198 777.126 46.282 776.364H48.0717C48.1096 776.832 48.2706 777.237 48.5547 777.578C48.8388 777.914 49.2105 778.175 49.6697 778.359C50.129 778.544 50.638 778.636 51.1967 778.636C51.8217 778.636 52.3757 778.527 52.8587 778.31C53.3416 778.092 53.7204 777.789 53.995 777.401C54.2696 777.012 54.407 776.562 54.407 776.051C54.407 775.516 54.2744 775.045 54.0092 774.638C53.7441 774.226 53.3558 773.904 52.8445 773.672C52.3331 773.44 51.7081 773.324 50.9695 773.324H49.8047V771.761H50.9695C51.5471 771.761 52.0537 771.657 52.4893 771.449C52.9297 771.241 53.273 770.947 53.5192 770.568C53.7701 770.189 53.8956 769.744 53.8956 769.233C53.8956 768.741 53.7867 768.312 53.5689 767.947C53.3511 767.583 53.0433 767.299 52.6456 767.095C52.2526 766.892 51.7886 766.79 51.2536 766.79C50.7517 766.79 50.2782 766.882 49.8331 767.067C49.3928 767.247 49.0329 767.509 48.7536 767.855C48.4742 768.196 48.3227 768.608 48.299 769.091H46.5945C46.6229 768.329 46.8525 767.661 47.2834 767.088C47.7143 766.51 48.2777 766.061 48.9737 765.739C49.6745 765.417 50.4439 765.256 51.282 765.256C52.1816 765.256 52.9534 765.438 53.5973 765.803C54.2412 766.162 54.736 766.638 55.0817 767.23C55.4273 767.822 55.6001 768.461 55.6001 769.148C55.6001 769.967 55.3847 770.665 54.9538 771.243C54.5277 771.821 53.9477 772.221 53.2138 772.443V772.557C54.1323 772.708 54.8497 773.099 55.3658 773.729C55.8819 774.354 56.1399 775.128 56.1399 776.051C56.1399 776.842 55.9245 777.552 55.4936 778.182C55.0675 778.807 54.4851 779.299 53.7464 779.659C53.0078 780.019 52.1674 780.199 51.2251 780.199ZM59.0447 780V778.722L63.8459 773.466C64.4093 772.85 64.8733 772.315 65.2379 771.861C65.6025 771.402 65.8724 770.971 66.0476 770.568C66.2275 770.161 66.3175 769.735 66.3175 769.29C66.3175 768.778 66.1944 768.336 65.9482 767.962C65.7067 767.588 65.3752 767.299 64.9538 767.095C64.5324 766.892 64.0589 766.79 63.5334 766.79C62.9747 766.79 62.487 766.906 62.0703 767.138C61.6584 767.365 61.3388 767.685 61.1115 768.097C60.889 768.509 60.7777 768.991 60.7777 769.545H59.1016C59.1016 768.693 59.2981 767.945 59.6911 767.301C60.084 766.657 60.6191 766.155 61.2962 765.795C61.978 765.436 62.7427 765.256 63.5902 765.256C64.4425 765.256 65.1977 765.436 65.8558 765.795C66.514 766.155 67.0301 766.641 67.4041 767.251C67.7782 767.862 67.9652 768.542 67.9652 769.29C67.9652 769.825 67.8681 770.348 67.674 770.859C67.4846 771.366 67.1532 771.932 66.6797 772.557C66.2109 773.177 65.5599 773.935 64.7266 774.83L61.4595 778.324V778.438H68.2209V780H59.0447ZM71.1825 784.091V769.091H72.8018V770.824H73.0007C73.1238 770.634 73.2943 770.393 73.5121 770.099C73.7346 769.801 74.0518 769.536 74.4638 769.304C74.8804 769.067 75.4439 768.949 76.1541 768.949C77.0727 768.949 77.8823 769.179 78.5831 769.638C79.2839 770.097 79.8307 770.748 80.2237 771.591C80.6167 772.434 80.8132 773.428 80.8132 774.574C80.8132 775.729 80.6167 776.731 80.2237 777.578C79.8307 778.421 79.2862 779.074 78.5902 779.538C77.8942 779.998 77.0916 780.227 76.1825 780.227C75.4818 780.227 74.9207 780.111 74.4993 779.879C74.0779 779.643 73.7536 779.375 73.5263 779.077C73.299 778.774 73.1238 778.523 73.0007 778.324H72.8587V784.091H71.1825ZM72.8303 774.545C72.8303 775.369 72.951 776.096 73.1925 776.726C73.4339 777.351 73.7867 777.841 74.2507 778.196C74.7147 778.546 75.2829 778.722 75.9553 778.722C76.656 778.722 77.2408 778.537 77.7095 778.168C78.183 777.794 78.5381 777.292 78.7749 776.662C79.0163 776.027 79.1371 775.322 79.1371 774.545C79.1371 773.778 79.0187 773.087 78.782 772.472C78.55 771.851 78.1972 771.361 77.7237 771.001C77.255 770.637 76.6655 770.455 75.9553 770.455C75.2734 770.455 74.7005 770.627 74.2365 770.973C73.7725 771.314 73.4221 771.792 73.1854 772.408C72.9486 773.018 72.8303 773.731 72.8303 774.545ZM84.1708 769.091L86.7844 773.551L89.3981 769.091H91.3299L87.8072 774.545L91.3299 780H89.3981L86.7844 775.767L84.1708 780H82.239L85.7049 774.545L82.239 769.091H84.1708Z" fill="white" fill-opacity="0.95"/>
</svg>
