<svg width="320" height="214" viewBox="0 0 320 214" fill="none" xmlns="http://www.w3.org/2000/svg">
<mask id="path-1-inside-1_2144_60824" fill="white">
<path d="M0 0H320V214H0V0Z"/>
</mask>
<path d="M0 0H320V214H0V0Z" fill="#1A1A1A"/>
<path d="M320 214V215H321V214H320ZM319 0V214H321V0H319ZM320 213H0V215H320V213Z" fill="white" fill-opacity="0.2" mask="url(#path-1-inside-1_2144_60824)"/>
<g clip-path="url(#clip0_2144_60824)">
<path d="M37.084 108.27C37.084 107.934 37.0093 107.668 36.86 107.472C36.692 107.239 36.384 107.024 35.936 106.828C35.488 106.632 34.8113 106.408 33.906 106.156C32.6927 105.82 31.8573 105.405 31.4 104.91C31.0267 104.509 30.84 103.972 30.84 103.3C30.84 102.488 31.1947 101.844 31.904 101.368C32.5573 100.929 33.4067 100.71 34.452 100.71C35.6187 100.71 36.566 100.985 37.294 101.536C37.9473 102.021 38.33 102.656 38.442 103.44H36.972C36.888 102.908 36.608 102.511 36.132 102.25C35.712 102.007 35.152 101.886 34.452 101.886C33.668 101.886 33.0893 102.035 32.716 102.334C32.4173 102.567 32.268 102.871 32.268 103.244C32.268 103.487 32.3053 103.687 32.38 103.846C32.464 103.995 32.604 104.131 32.8 104.252C33.164 104.495 33.8687 104.761 34.914 105.05C36.37 105.461 37.3547 105.927 37.868 106.45C38.2973 106.879 38.512 107.467 38.512 108.214C38.512 109.101 38.1247 109.833 37.35 110.412C36.622 110.944 35.698 111.21 34.578 111.21C33.4113 111.21 32.4453 110.897 31.68 110.272C31.0173 109.731 30.6207 109.031 30.49 108.172H31.96C32.0533 108.788 32.3473 109.259 32.842 109.586C33.29 109.885 33.8593 110.034 34.55 110.034C35.4087 110.034 36.0667 109.838 36.524 109.446C36.8973 109.129 37.084 108.737 37.084 108.27ZM45.0825 108.9H46.5385C46.3332 109.637 45.9272 110.216 45.3205 110.636C44.7512 111.019 44.0698 111.21 43.2765 111.21C42.1285 111.21 41.2325 110.846 40.5885 110.118C40.0005 109.437 39.7065 108.517 39.7065 107.36C39.7065 106.044 40.0798 105.045 40.8265 104.364C41.4425 103.795 42.2358 103.51 43.2065 103.51C44.3452 103.51 45.2038 103.879 45.7825 104.616C46.3425 105.325 46.6225 106.338 46.6225 107.654H41.0785C41.1345 108.513 41.3958 109.152 41.8625 109.572C42.2452 109.908 42.7305 110.076 43.3185 110.076C43.7758 110.076 44.1725 109.95 44.5085 109.698C44.7885 109.483 44.9798 109.217 45.0825 108.9ZM43.2345 104.588C42.6372 104.588 42.1565 104.775 41.7925 105.148C41.4472 105.493 41.2278 105.974 41.1345 106.59H45.2505C45.2038 105.89 44.9705 105.367 44.5505 105.022C44.2145 104.733 43.7758 104.588 43.2345 104.588ZM49.5779 100.92V111H48.2339V100.92H49.5779ZM56.4985 108.9H57.9545C57.7492 109.637 57.3432 110.216 56.7365 110.636C56.1672 111.019 55.4858 111.21 54.6925 111.21C53.5445 111.21 52.6485 110.846 52.0045 110.118C51.4165 109.437 51.1225 108.517 51.1225 107.36C51.1225 106.044 51.4958 105.045 52.2425 104.364C52.8585 103.795 53.6518 103.51 54.6225 103.51C55.7612 103.51 56.6198 103.879 57.1985 104.616C57.7585 105.325 58.0385 106.338 58.0385 107.654H52.4945C52.5505 108.513 52.8118 109.152 53.2785 109.572C53.6612 109.908 54.1465 110.076 54.7345 110.076C55.1918 110.076 55.5885 109.95 55.9245 109.698C56.2045 109.483 56.3958 109.217 56.4985 108.9ZM54.6505 104.588C54.0532 104.588 53.5725 104.775 53.2085 105.148C52.8632 105.493 52.6438 105.974 52.5505 106.59H56.6665C56.6198 105.89 56.3865 105.367 55.9665 105.022C55.6305 104.733 55.1918 104.588 54.6505 104.588ZM64.3959 108.662H65.8659C65.7539 109.446 65.3853 110.076 64.7599 110.552C64.1906 110.991 63.4953 111.21 62.6739 111.21C61.6006 111.21 60.7466 110.841 60.1119 110.104C59.5239 109.423 59.2299 108.527 59.2299 107.416C59.2299 106.128 59.5846 105.129 60.2939 104.42C60.9006 103.813 61.6893 103.51 62.6599 103.51C63.5559 103.51 64.2933 103.748 64.8719 104.224C65.3853 104.644 65.6979 105.195 65.8099 105.876H64.3259C64.2326 105.484 64.0413 105.181 63.7519 104.966C63.4719 104.751 63.1173 104.644 62.6879 104.644C62.0253 104.644 61.5166 104.905 61.1619 105.428C60.8259 105.913 60.6579 106.59 60.6579 107.458C60.6579 108.363 60.8819 109.049 61.3299 109.516C61.6846 109.889 62.1419 110.076 62.7019 110.076C63.1873 110.076 63.5839 109.936 63.8919 109.656C64.1626 109.413 64.3306 109.082 64.3959 108.662ZM70.6499 109.922V111.07C70.3045 111.163 69.9732 111.21 69.6559 111.21C68.9839 111.21 68.4799 111 68.1439 110.58C67.8545 110.235 67.7099 109.773 67.7099 109.194V104.868H66.6319V103.72H67.7099L67.7939 101.97H69.0539V103.72H70.6219V104.868H69.0539V109.222C69.0539 109.763 69.3105 110.034 69.8239 110.034C70.0665 110.034 70.3419 109.997 70.6499 109.922ZM76.8012 108.9H78.2572C78.0519 109.637 77.6459 110.216 77.0392 110.636C76.4699 111.019 75.7886 111.21 74.9952 111.21C73.8472 111.21 72.9512 110.846 72.3072 110.118C71.7192 109.437 71.4252 108.517 71.4252 107.36C71.4252 106.044 71.7986 105.045 72.5452 104.364C73.1612 103.795 73.9546 103.51 74.9252 103.51C76.0639 103.51 76.9226 103.879 77.5012 104.616C78.0612 105.325 78.3412 106.338 78.3412 107.654H72.7972C72.8532 108.513 73.1146 109.152 73.5812 109.572C73.9639 109.908 74.4492 110.076 75.0372 110.076C75.4946 110.076 75.8912 109.95 76.2272 109.698C76.5072 109.483 76.6986 109.217 76.8012 108.9ZM74.9532 104.588C74.3559 104.588 73.8752 104.775 73.5112 105.148C73.1659 105.493 72.9466 105.974 72.8532 106.59H76.9692C76.9226 105.89 76.6892 105.367 76.2692 105.022C75.9332 104.733 75.4946 104.588 74.9532 104.588ZM86.5187 111H85.4127L85.1747 109.978C84.6147 110.799 83.8073 111.21 82.7527 111.21C81.7353 111.21 80.9327 110.841 80.3447 110.104C79.8033 109.423 79.5327 108.522 79.5327 107.402C79.5327 106.049 79.878 105.031 80.5687 104.35C81.1473 103.79 81.9033 103.51 82.8367 103.51C83.8447 103.51 84.624 103.888 85.1747 104.644V100.92H86.5187V111ZM80.9327 107.43C80.9327 108.335 81.1567 109.021 81.6047 109.488C81.978 109.871 82.4587 110.062 83.0467 110.062C83.7747 110.062 84.3393 109.787 84.7407 109.236C85.0767 108.76 85.2447 108.163 85.2447 107.444C85.2447 106.501 85.0207 105.783 84.5727 105.288C84.19 104.868 83.6813 104.658 83.0467 104.658C82.3373 104.658 81.8007 104.915 81.4367 105.428C81.1007 105.895 80.9327 106.562 80.9327 107.43ZM95.9292 109.922V111.07C95.5838 111.163 95.2525 111.21 94.9352 111.21C94.2632 111.21 93.7592 111 93.4232 110.58C93.1338 110.235 92.9892 109.773 92.9892 109.194V104.868H91.9112V103.72H92.9892L93.0732 101.97H94.3332V103.72H95.9012V104.868H94.3332V109.222C94.3332 109.763 94.5898 110.034 95.1032 110.034C95.3458 110.034 95.6212 109.997 95.9292 109.922ZM102.081 108.9H103.537C103.331 109.637 102.925 110.216 102.319 110.636C101.749 111.019 101.068 111.21 100.275 111.21C99.1265 111.21 98.2305 110.846 97.5865 110.118C96.9985 109.437 96.7045 108.517 96.7045 107.36C96.7045 106.044 97.0779 105.045 97.8245 104.364C98.4405 103.795 99.2339 103.51 100.205 103.51C101.343 103.51 102.202 103.879 102.781 104.616C103.341 105.325 103.621 106.338 103.621 107.654H98.0765C98.1325 108.513 98.3939 109.152 98.8605 109.572C99.2432 109.908 99.7285 110.076 100.317 110.076C100.774 110.076 101.171 109.95 101.507 109.698C101.787 109.483 101.978 109.217 102.081 108.9ZM100.233 104.588C99.6352 104.588 99.1545 104.775 98.7905 105.148C98.4452 105.493 98.2259 105.974 98.1325 106.59H102.249C102.202 105.89 101.969 105.367 101.549 105.022C101.213 104.733 100.774 104.588 100.233 104.588ZM111.098 103.72L108.662 107.122L111.518 111H109.88L107.906 108.186L105.974 111H104.392L107.108 107.22L104.56 103.72H106.17L107.906 106.17L109.558 103.72H111.098ZM115.89 109.922V111.07C115.545 111.163 115.213 111.21 114.896 111.21C114.224 111.21 113.72 111 113.384 110.58C113.095 110.235 112.95 109.773 112.95 109.194V104.868H111.872V103.72H112.95L113.034 101.97H114.294V103.72H115.862V104.868H114.294V109.222C114.294 109.763 114.551 110.034 115.064 110.034C115.307 110.034 115.582 109.997 115.89 109.922Z" fill="white" fill-opacity="0.95"/>
</g>
<defs>
<clipPath id="clip0_2144_60824">
<rect width="320" height="52" fill="white" transform="translate(0 81)"/>
</clipPath>
</defs>
</svg>
