<svg width="245" height="604" viewBox="0 0 245 604" fill="none" xmlns="http://www.w3.org/2000/svg">
<mask id="path-1-inside-1_2144_60947" fill="white">
<path d="M0 0H245V604H0V0Z"/>
</mask>
<path d="M0 0H245V604H0V0Z" fill="#1A1A1A"/>
<path d="M245 604V605H246V604H245ZM244 0V604H246V0H244ZM245 603H0V605H245V603Z" fill="#707070" mask="url(#path-1-inside-1_2144_60947)"/>
<path d="M31.7614 309V294.455H36.6761C37.8172 294.455 38.75 294.661 39.4744 295.072C40.2036 295.48 40.7434 296.031 41.0938 296.727C41.4441 297.423 41.6193 298.2 41.6193 299.057C41.6193 299.914 41.4441 300.693 41.0938 301.393C40.7481 302.094 40.2131 302.653 39.4886 303.07C38.7642 303.482 37.8362 303.688 36.7045 303.688H33.1818V302.125H36.6477C37.429 302.125 38.0563 301.99 38.5298 301.72C39.0033 301.45 39.3466 301.086 39.5597 300.626C39.7775 300.162 39.8864 299.639 39.8864 299.057C39.8864 298.474 39.7775 297.954 39.5597 297.494C39.3466 297.035 39.0009 296.675 38.5227 296.415C38.0445 296.15 37.41 296.017 36.6193 296.017H33.5227V309H31.7614ZM44.2294 309V298.091H45.8487V299.739H45.9624C46.1612 299.199 46.5211 298.761 47.0419 298.425C47.5627 298.089 48.1499 297.92 48.8033 297.92C48.9264 297.92 49.0803 297.923 49.2649 297.928C49.4496 297.932 49.5893 297.939 49.6839 297.949V299.653C49.6271 299.639 49.4969 299.618 49.2933 299.589C49.0945 299.556 48.8838 299.54 48.6612 299.54C48.1309 299.54 47.6574 299.651 47.2408 299.874C46.8288 300.091 46.5021 300.394 46.2607 300.783C46.0239 301.166 45.9055 301.604 45.9055 302.097V309H44.2294ZM55.9126 309.227C54.8615 309.227 53.9548 308.995 53.1925 308.531C52.4349 308.062 51.8501 307.409 51.4382 306.571C51.031 305.728 50.8274 304.748 50.8274 303.631C50.8274 302.513 51.031 301.528 51.4382 300.676C51.8501 299.819 52.4231 299.152 53.157 298.673C53.8956 298.19 54.7573 297.949 55.7422 297.949C56.3104 297.949 56.8714 298.044 57.4254 298.233C57.9794 298.422 58.4837 298.73 58.9382 299.156C59.3928 299.578 59.755 300.136 60.0249 300.832C60.2947 301.528 60.4297 302.385 60.4297 303.403V304.114H52.0206V302.665H58.7251C58.7251 302.049 58.602 301.5 58.3558 301.017C58.1143 300.534 57.7687 300.153 57.3189 299.874C56.8738 299.594 56.3482 299.455 55.7422 299.455C55.0746 299.455 54.4969 299.62 54.0092 299.952C53.5263 300.278 53.1546 300.705 52.8942 301.23C52.6338 301.756 52.5036 302.319 52.5036 302.92V303.886C52.5036 304.71 52.6456 305.409 52.9297 305.982C53.2185 306.55 53.6186 306.983 54.13 307.281C54.6413 307.575 55.2356 307.722 55.9126 307.722C56.353 307.722 56.7507 307.66 57.1058 307.537C57.4657 307.409 57.7758 307.22 58.0362 306.969C58.2966 306.713 58.4979 306.396 58.6399 306.017L60.2592 306.472C60.0888 307.021 59.8023 307.504 59.3999 307.92C58.9974 308.332 58.5002 308.654 57.9084 308.886C57.3165 309.114 56.6513 309.227 55.9126 309.227ZM70.7067 300.534L69.201 300.96C69.1063 300.709 68.9666 300.465 68.782 300.229C68.602 299.987 68.3558 299.788 68.0433 299.632C67.7308 299.476 67.3307 299.398 66.843 299.398C66.1754 299.398 65.6191 299.552 65.174 299.859C64.7337 300.162 64.5135 300.548 64.5135 301.017C64.5135 301.434 64.665 301.763 64.968 302.004C65.2711 302.246 65.7446 302.447 66.3885 302.608L68.0078 303.006C68.9832 303.242 69.71 303.605 70.1882 304.092C70.6664 304.575 70.9055 305.198 70.9055 305.96C70.9055 306.585 70.7256 307.144 70.3658 307.636C70.0107 308.129 69.5135 308.517 68.8743 308.801C68.2351 309.085 67.4917 309.227 66.6442 309.227C65.5315 309.227 64.6106 308.986 63.8814 308.503C63.1522 308.02 62.6906 307.314 62.4964 306.386L64.0874 305.989C64.2389 306.576 64.5253 307.016 64.9467 307.31C65.3729 307.603 65.9292 307.75 66.6158 307.75C67.397 307.75 68.0173 307.584 68.4766 307.253C68.9406 306.917 69.1726 306.514 69.1726 306.045C69.1726 305.667 69.04 305.349 68.7749 305.094C68.5097 304.833 68.1025 304.639 67.5533 304.511L65.7351 304.085C64.736 303.848 64.0021 303.482 63.5334 302.984C63.0694 302.482 62.8374 301.855 62.8374 301.102C62.8374 300.487 63.0102 299.942 63.3558 299.469C63.7062 298.995 64.1821 298.624 64.7834 298.354C65.3894 298.084 66.076 297.949 66.843 297.949C67.9226 297.949 68.7701 298.186 69.3857 298.659C70.0059 299.133 70.4463 299.758 70.7067 300.534ZM81.1559 300.534L79.6502 300.96C79.5555 300.709 79.4158 300.465 79.2312 300.229C79.0513 299.987 78.805 299.788 78.4925 299.632C78.18 299.476 77.7799 299.398 77.2923 299.398C76.6246 299.398 76.0683 299.552 75.6232 299.859C75.1829 300.162 74.9627 300.548 74.9627 301.017C74.9627 301.434 75.1142 301.763 75.4173 302.004C75.7203 302.246 76.1938 302.447 76.8377 302.608L78.457 303.006C79.4324 303.242 80.1592 303.605 80.6374 304.092C81.1156 304.575 81.3548 305.198 81.3548 305.96C81.3548 306.585 81.1748 307.144 80.815 307.636C80.4599 308.129 79.9627 308.517 79.3235 308.801C78.6843 309.085 77.9409 309.227 77.0934 309.227C75.9807 309.227 75.0598 308.986 74.3306 308.503C73.6014 308.02 73.1398 307.314 72.9457 306.386L74.5366 305.989C74.6881 306.576 74.9746 307.016 75.396 307.31C75.8221 307.603 76.3784 307.75 77.065 307.75C77.8462 307.75 78.4665 307.584 78.9258 307.253C79.3898 306.917 79.6218 306.514 79.6218 306.045C79.6218 305.667 79.4892 305.349 79.2241 305.094C78.9589 304.833 78.5517 304.639 78.0025 304.511L76.1843 304.085C75.1853 303.848 74.4513 303.482 73.9826 302.984C73.5186 302.482 73.2866 301.855 73.2866 301.102C73.2866 300.487 73.4594 299.942 73.805 299.469C74.1554 298.995 74.6313 298.624 75.2326 298.354C75.8387 298.084 76.5252 297.949 77.2923 297.949C78.3718 297.949 79.2193 298.186 79.8349 298.659C80.4551 299.133 80.8955 299.758 81.1559 300.534ZM88.4517 309.227C87.4006 309.227 86.4938 308.995 85.7315 308.531C84.974 308.062 84.3892 307.409 83.9773 306.571C83.5701 305.728 83.3665 304.748 83.3665 303.631C83.3665 302.513 83.5701 301.528 83.9773 300.676C84.3892 299.819 84.9621 299.152 85.696 298.673C86.4347 298.19 87.2964 297.949 88.2812 297.949C88.8494 297.949 89.4105 298.044 89.9645 298.233C90.5185 298.422 91.0227 298.73 91.4773 299.156C91.9318 299.578 92.294 300.136 92.5639 300.832C92.8338 301.528 92.9688 302.385 92.9688 303.403V304.114H84.5597V302.665H91.2642C91.2642 302.049 91.1411 301.5 90.8949 301.017C90.6534 300.534 90.3078 300.153 89.858 299.874C89.4129 299.594 88.8873 299.455 88.2812 299.455C87.6136 299.455 87.036 299.62 86.5483 299.952C86.0653 300.278 85.6937 300.705 85.4332 301.23C85.1728 301.756 85.0426 302.319 85.0426 302.92V303.886C85.0426 304.71 85.1847 305.409 85.4688 305.982C85.7576 306.55 86.1577 306.983 86.669 307.281C87.1804 307.575 87.7746 307.722 88.4517 307.722C88.892 307.722 89.2898 307.66 89.6449 307.537C90.0047 307.409 90.3149 307.22 90.5753 306.969C90.8357 306.713 91.0369 306.396 91.179 306.017L92.7983 306.472C92.6278 307.021 92.3414 307.504 91.9389 307.92C91.5365 308.332 91.0393 308.654 90.4474 308.886C89.8556 309.114 89.1903 309.227 88.4517 309.227ZM99.6378 309.227C98.7287 309.227 97.9261 308.998 97.2301 308.538C96.5341 308.074 95.9896 307.421 95.5966 306.578C95.2036 305.731 95.0071 304.729 95.0071 303.574C95.0071 302.428 95.2036 301.434 95.5966 300.591C95.9896 299.748 96.5365 299.097 97.2372 298.638C97.938 298.179 98.7476 297.949 99.6662 297.949C100.376 297.949 100.938 298.067 101.349 298.304C101.766 298.536 102.083 298.801 102.301 299.099C102.524 299.393 102.696 299.634 102.82 299.824H102.962V294.455H104.638V309H103.018V307.324H102.82C102.696 307.523 102.521 307.774 102.294 308.077C102.067 308.375 101.742 308.643 101.321 308.879C100.9 309.111 100.339 309.227 99.6378 309.227ZM99.8651 307.722C100.537 307.722 101.106 307.546 101.57 307.196C102.034 306.841 102.386 306.351 102.628 305.726C102.869 305.096 102.99 304.369 102.99 303.545C102.99 302.731 102.872 302.018 102.635 301.408C102.398 300.792 102.048 300.314 101.584 299.973C101.12 299.627 100.547 299.455 99.8651 299.455C99.1548 299.455 98.563 299.637 98.0895 300.001C97.6207 300.361 97.268 300.851 97.0312 301.472C96.7992 302.087 96.6832 302.778 96.6832 303.545C96.6832 304.322 96.8016 305.027 97.0384 305.662C97.2798 306.292 97.6349 306.794 98.1037 307.168C98.5772 307.537 99.1643 307.722 99.8651 307.722Z" fill="white" fill-opacity="0.95"/>
</svg>
