<svg width="121" height="634" viewBox="0 0 121 634" fill="none" xmlns="http://www.w3.org/2000/svg">
<mask id="path-1-inside-1_2144_60985" fill="white">
<path d="M0 0H121V634H0V0Z"/>
</mask>
<path d="M0 0H121V634H0V0Z" fill="#1A1A1A"/>
<path d="M121 633H0V635H121V633Z" fill="#707070" mask="url(#path-1-inside-1_2144_60985)"/>
<path d="M43.4659 44H41.7045C41.6004 43.4934 41.4181 43.0483 41.1577 42.6648C40.902 42.2812 40.5895 41.9593 40.2202 41.6989C39.8556 41.4337 39.4508 41.2348 39.0057 41.1023C38.5606 40.9697 38.0966 40.9034 37.6136 40.9034C36.733 40.9034 35.9351 41.1259 35.2202 41.571C34.5099 42.0161 33.9441 42.6719 33.5227 43.5384C33.1061 44.4048 32.8977 45.4678 32.8977 46.7273C32.8977 47.9867 33.1061 49.0497 33.5227 49.9162C33.9441 50.7827 34.5099 51.4384 35.2202 51.8835C35.9351 52.3286 36.733 52.5511 37.6136 52.5511C38.0966 52.5511 38.5606 52.4848 39.0057 52.3523C39.4508 52.2197 39.8556 52.0232 40.2202 51.7628C40.5895 51.4976 40.902 51.1733 41.1577 50.7898C41.4181 50.4015 41.6004 49.9564 41.7045 49.4545H43.4659C43.3333 50.1979 43.0919 50.8632 42.7415 51.4503C42.3911 52.0374 41.9555 52.5369 41.4347 52.9489C40.9138 53.3561 40.3291 53.6662 39.6804 53.8793C39.0365 54.0923 38.3475 54.1989 37.6136 54.1989C36.3731 54.1989 35.2699 53.8958 34.304 53.2898C33.3381 52.6837 32.5781 51.822 32.0241 50.7045C31.4702 49.5871 31.1932 48.2614 31.1932 46.7273C31.1932 45.1932 31.4702 43.8674 32.0241 42.75C32.5781 41.6326 33.3381 40.7708 34.304 40.1648C35.2699 39.5587 36.3731 39.2557 37.6136 39.2557C38.3475 39.2557 39.0365 39.3622 39.6804 39.5753C40.3291 39.7884 40.9138 40.1009 41.4347 40.5128C41.9555 40.92 42.3911 41.4171 42.7415 42.0043C43.0919 42.5866 43.3333 43.2519 43.4659 44ZM50.5167 54.2273C49.5318 54.2273 48.6677 53.9929 47.9244 53.5241C47.1857 53.0554 46.6081 52.3996 46.1914 51.5568C45.7795 50.714 45.5735 49.7292 45.5735 48.6023C45.5735 47.4659 45.7795 46.474 46.1914 45.6264C46.6081 44.7789 47.1857 44.1207 47.9244 43.652C48.6677 43.1832 49.5318 42.9489 50.5167 42.9489C51.5015 42.9489 52.3633 43.1832 53.1019 43.652C53.8453 44.1207 54.4229 44.7789 54.8349 45.6264C55.2515 46.474 55.4599 47.4659 55.4599 48.6023C55.4599 49.7292 55.2515 50.714 54.8349 51.5568C54.4229 52.3996 53.8453 53.0554 53.1019 53.5241C52.3633 53.9929 51.5015 54.2273 50.5167 54.2273ZM50.5167 52.7216C51.2648 52.7216 51.8803 52.5298 52.3633 52.1463C52.8462 51.7628 53.2037 51.2585 53.4357 50.6335C53.6677 50.0085 53.7837 49.3314 53.7837 48.6023C53.7837 47.8731 53.6677 47.1937 53.4357 46.5639C53.2037 45.9342 52.8462 45.4252 52.3633 45.0369C51.8803 44.6487 51.2648 44.4545 50.5167 44.4545C49.7686 44.4545 49.1531 44.6487 48.6701 45.0369C48.1871 45.4252 47.8297 45.9342 47.5977 46.5639C47.3656 47.1937 47.2496 47.8731 47.2496 48.6023C47.2496 49.3314 47.3656 50.0085 47.5977 50.6335C47.8297 51.2585 48.1871 51.7628 48.6701 52.1463C49.1531 52.5298 49.7686 52.7216 50.5167 52.7216ZM59.6946 39.4545V54H58.0185V39.4545H59.6946ZM67.1964 54.2273C66.2115 54.2273 65.3474 53.9929 64.604 53.5241C63.8654 53.0554 63.2878 52.3996 62.8711 51.5568C62.4592 50.714 62.2532 49.7292 62.2532 48.6023C62.2532 47.4659 62.4592 46.474 62.8711 45.6264C63.2878 44.7789 63.8654 44.1207 64.604 43.652C65.3474 43.1832 66.2115 42.9489 67.1964 42.9489C68.1812 42.9489 69.043 43.1832 69.7816 43.652C70.525 44.1207 71.1026 44.7789 71.5146 45.6264C71.9312 46.474 72.1396 47.4659 72.1396 48.6023C72.1396 49.7292 71.9312 50.714 71.5146 51.5568C71.1026 52.3996 70.525 53.0554 69.7816 53.5241C69.043 53.9929 68.1812 54.2273 67.1964 54.2273ZM67.1964 52.7216C67.9445 52.7216 68.56 52.5298 69.043 52.1463C69.5259 51.7628 69.8834 51.2585 70.1154 50.6335C70.3474 50.0085 70.4634 49.3314 70.4634 48.6023C70.4634 47.8731 70.3474 47.1937 70.1154 46.5639C69.8834 45.9342 69.5259 45.4252 69.043 45.0369C68.56 44.6487 67.9445 44.4545 67.1964 44.4545C66.4483 44.4545 65.8327 44.6487 65.3498 45.0369C64.8668 45.4252 64.5094 45.9342 64.2773 46.5639C64.0453 47.1937 63.9293 47.8731 63.9293 48.6023C63.9293 49.3314 64.0453 50.0085 64.2773 50.6335C64.5094 51.2585 64.8668 51.7628 65.3498 52.1463C65.8327 52.5298 66.4483 52.7216 67.1964 52.7216ZM74.6982 54V43.0909H76.3175V44.7386H76.4311C76.63 44.1989 76.9898 43.7609 77.5107 43.4247C78.0315 43.0885 78.6186 42.9205 79.272 42.9205C79.3951 42.9205 79.549 42.9228 79.7337 42.9276C79.9183 42.9323 80.058 42.9394 80.1527 42.9489V44.6534C80.0959 44.6392 79.9657 44.6179 79.7621 44.5895C79.5632 44.5563 79.3525 44.5398 79.13 44.5398C78.5997 44.5398 78.1262 44.651 77.7095 44.8736C77.2976 45.0914 76.9709 45.3944 76.7294 45.7827C76.4927 46.1662 76.3743 46.6042 76.3743 47.0966V54H74.6982ZM83.3612 54.1136C83.0108 54.1136 82.7101 53.9882 82.4592 53.7372C82.2082 53.4863 82.0827 53.1856 82.0827 52.8352C82.0827 52.4848 82.2082 52.1842 82.4592 51.9332C82.7101 51.6823 83.0108 51.5568 83.3612 51.5568C83.7115 51.5568 84.0122 51.6823 84.2631 51.9332C84.5141 52.1842 84.6396 52.4848 84.6396 52.8352C84.6396 53.0672 84.5804 53.2803 84.462 53.4744C84.3484 53.6686 84.1945 53.8248 84.0004 53.9432C83.811 54.0568 83.5979 54.1136 83.3612 54.1136ZM83.3612 46.017C83.0108 46.017 82.7101 45.8916 82.4592 45.6406C82.2082 45.3897 82.0827 45.089 82.0827 44.7386C82.0827 44.3883 82.2082 44.0876 82.4592 43.8366C82.7101 43.5857 83.0108 43.4602 83.3612 43.4602C83.7115 43.4602 84.0122 43.5857 84.2631 43.8366C84.5141 44.0876 84.6396 44.3883 84.6396 44.7386C84.6396 44.9706 84.5804 45.1837 84.462 45.3778C84.3484 45.572 84.1945 45.7282 84.0004 45.8466C83.811 45.9602 83.5979 46.017 83.3612 46.017ZM35.9659 84.2273C34.9432 84.2273 34.0625 83.9858 33.3239 83.5028C32.5852 83.0199 32.017 82.3546 31.6193 81.5071C31.2216 80.6596 31.0227 79.6913 31.0227 78.6023C31.0227 77.4943 31.2263 76.5166 31.6335 75.669C32.0455 74.8168 32.6184 74.1515 33.3523 73.6733C34.0909 73.1903 34.9527 72.9489 35.9375 72.9489C36.7045 72.9489 37.3958 73.0909 38.0114 73.375C38.6269 73.6591 39.1312 74.0568 39.5241 74.5682C39.9171 75.0795 40.161 75.6761 40.2557 76.358H38.5795C38.4517 75.8608 38.1676 75.4205 37.7273 75.0369C37.2917 74.6487 36.7045 74.4545 35.9659 74.4545C35.3125 74.4545 34.7396 74.625 34.2472 74.9659C33.7595 75.3021 33.3783 75.7779 33.1037 76.3935C32.8338 77.0043 32.6989 77.7216 32.6989 78.5455C32.6989 79.3883 32.8314 80.1222 33.0966 80.7472C33.3665 81.3722 33.7453 81.8575 34.233 82.2031C34.7254 82.5488 35.303 82.7216 35.9659 82.7216C36.4015 82.7216 36.7969 82.6458 37.152 82.4943C37.5071 82.3428 37.8078 82.125 38.054 81.8409C38.3002 81.5568 38.4754 81.2159 38.5795 80.8182H40.2557C40.161 81.4621 39.9266 82.0421 39.5526 82.5582C39.1832 83.0696 38.6932 83.4768 38.0824 83.7798C37.4763 84.0781 36.7708 84.2273 35.9659 84.2273ZM47.1378 84.2273C46.1529 84.2273 45.2888 83.9929 44.5455 83.5241C43.8068 83.0554 43.2292 82.3996 42.8125 81.5568C42.4006 80.714 42.1946 79.7292 42.1946 78.6023C42.1946 77.4659 42.4006 76.474 42.8125 75.6264C43.2292 74.7789 43.8068 74.1207 44.5455 73.652C45.2888 73.1832 46.1529 72.9489 47.1378 72.9489C48.1226 72.9489 48.9844 73.1832 49.723 73.652C50.4664 74.1207 51.044 74.7789 51.456 75.6264C51.8726 76.474 52.081 77.4659 52.081 78.6023C52.081 79.7292 51.8726 80.714 51.456 81.5568C51.044 82.3996 50.4664 83.0554 49.723 83.5241C48.9844 83.9929 48.1226 84.2273 47.1378 84.2273ZM47.1378 82.7216C47.8859 82.7216 48.5014 82.5298 48.9844 82.1463C49.4673 81.7628 49.8248 81.2585 50.0568 80.6335C50.2888 80.0085 50.4048 79.3314 50.4048 78.6023C50.4048 77.8731 50.2888 77.1937 50.0568 76.5639C49.8248 75.9342 49.4673 75.4252 48.9844 75.0369C48.5014 74.6487 47.8859 74.4545 47.1378 74.4545C46.3897 74.4545 45.7741 74.6487 45.2912 75.0369C44.8082 75.4252 44.4508 75.9342 44.2188 76.5639C43.9867 77.1937 43.8707 77.8731 43.8707 78.6023C43.8707 79.3314 43.9867 80.0085 44.2188 80.6335C44.4508 81.2585 44.8082 81.7628 45.2912 82.1463C45.7741 82.5298 46.3897 82.7216 47.1378 82.7216ZM56.3157 69.4545V84H54.6396V69.4545H56.3157ZM63.8175 84.2273C62.8326 84.2273 61.9685 83.9929 61.2251 83.5241C60.4865 83.0554 59.9089 82.3996 59.4922 81.5568C59.0803 80.714 58.8743 79.7292 58.8743 78.6023C58.8743 77.4659 59.0803 76.474 59.4922 75.6264C59.9089 74.7789 60.4865 74.1207 61.2251 73.652C61.9685 73.1832 62.8326 72.9489 63.8175 72.9489C64.8023 72.9489 65.6641 73.1832 66.4027 73.652C67.1461 74.1207 67.7237 74.7789 68.1357 75.6264C68.5523 76.474 68.7607 77.4659 68.7607 78.6023C68.7607 79.7292 68.5523 80.714 68.1357 81.5568C67.7237 82.3996 67.1461 83.0554 66.4027 83.5241C65.6641 83.9929 64.8023 84.2273 63.8175 84.2273ZM63.8175 82.7216C64.5656 82.7216 65.1811 82.5298 65.6641 82.1463C66.147 81.7628 66.5045 81.2585 66.7365 80.6335C66.9685 80.0085 67.0845 79.3314 67.0845 78.6023C67.0845 77.8731 66.9685 77.1937 66.7365 76.5639C66.5045 75.9342 66.147 75.4252 65.6641 75.0369C65.1811 74.6487 64.5656 74.4545 63.8175 74.4545C63.0694 74.4545 62.4538 74.6487 61.9709 75.0369C61.4879 75.4252 61.1304 75.9342 60.8984 76.5639C60.6664 77.1937 60.5504 77.8731 60.5504 78.6023C60.5504 79.3314 60.6664 80.0085 60.8984 80.6335C61.1304 81.2585 61.4879 81.7628 61.9709 82.1463C62.4538 82.5298 63.0694 82.7216 63.8175 82.7216ZM71.3192 84V73.0909H72.9386V74.7386H73.0522C73.2511 74.1989 73.6109 73.7609 74.1317 73.4247C74.6526 73.0885 75.2397 72.9205 75.8931 72.9205C76.0162 72.9205 76.1701 72.9228 76.3548 72.9276C76.5394 72.9323 76.6791 72.9394 76.7738 72.9489V74.6534C76.717 74.6392 76.5868 74.6179 76.3832 74.5895C76.1843 74.5563 75.9736 74.5398 75.7511 74.5398C75.2208 74.5398 74.7473 74.651 74.3306 74.8736C73.9187 75.0914 73.592 75.3944 73.3505 75.7827C73.1138 76.1662 72.9954 76.6042 72.9954 77.0966V84H71.3192ZM83.2191 68.7727L78.5316 86.1875H76.9975L81.685 68.7727H83.2191ZM36.2784 103.091V104.511H30.625V103.091H36.2784ZM32.2727 100.477H33.9489V110.875C33.9489 111.348 34.0175 111.704 34.1548 111.94C34.2969 112.172 34.4768 112.329 34.6946 112.409C34.9171 112.485 35.1515 112.523 35.3977 112.523C35.5824 112.523 35.7339 112.513 35.8523 112.494C35.9706 112.471 36.0653 112.452 36.1364 112.438L36.4773 113.943C36.3636 113.986 36.205 114.028 36.0014 114.071C35.7978 114.118 35.5398 114.142 35.2273 114.142C34.7538 114.142 34.2898 114.04 33.8352 113.837C33.3854 113.633 33.0114 113.323 32.7131 112.906C32.4195 112.49 32.2727 111.964 32.2727 111.33V100.477ZM40.7102 107.438V114H39.0341V99.4545H40.7102V104.795H40.8523C41.108 104.232 41.4915 103.785 42.0028 103.453C42.5189 103.117 43.2055 102.949 44.0625 102.949C44.8059 102.949 45.4569 103.098 46.0156 103.396C46.5743 103.69 47.0076 104.142 47.3153 104.753C47.6278 105.359 47.7841 106.131 47.7841 107.068V114H46.108V107.182C46.108 106.315 45.883 105.645 45.4332 105.172C44.9882 104.694 44.3703 104.455 43.5795 104.455C43.0303 104.455 42.5379 104.571 42.1023 104.803C41.6714 105.035 41.3305 105.373 41.0795 105.818C40.8333 106.263 40.7102 106.803 40.7102 107.438ZM55.4244 114.227C54.3732 114.227 53.4665 113.995 52.7042 113.531C51.9466 113.062 51.3619 112.409 50.9499 111.571C50.5427 110.728 50.3391 109.748 50.3391 108.631C50.3391 107.513 50.5427 106.528 50.9499 105.676C51.3619 104.819 51.9348 104.152 52.6687 103.673C53.4073 103.19 54.2691 102.949 55.2539 102.949C55.8221 102.949 56.3832 103.044 56.9371 103.233C57.4911 103.422 57.9954 103.73 58.4499 104.156C58.9045 104.578 59.2667 105.136 59.5366 105.832C59.8065 106.528 59.9414 107.385 59.9414 108.403V109.114H51.5323V107.665H58.2369C58.2369 107.049 58.1138 106.5 57.8675 106.017C57.6261 105.534 57.2804 105.153 56.8306 104.874C56.3855 104.594 55.86 104.455 55.2539 104.455C54.5863 104.455 54.0086 104.62 53.521 104.952C53.038 105.278 52.6663 105.705 52.4059 106.23C52.1455 106.756 52.0153 107.319 52.0153 107.92V108.886C52.0153 109.71 52.1573 110.409 52.4414 110.982C52.7302 111.55 53.1303 111.983 53.6417 112.281C54.1531 112.575 54.7473 112.722 55.4244 112.722C55.8647 112.722 56.2624 112.66 56.6175 112.537C56.9774 112.409 57.2875 112.22 57.5479 111.969C57.8084 111.713 58.0096 111.396 58.1516 111.017L59.771 111.472C59.6005 112.021 59.314 112.504 58.9116 112.92C58.5091 113.332 58.012 113.654 57.4201 113.886C56.8282 114.114 56.163 114.227 55.4244 114.227ZM62.4911 114V103.091H64.1104V104.795H64.2525C64.4798 104.213 64.8467 103.761 65.3533 103.439C65.86 103.112 66.4684 102.949 67.1786 102.949C67.8983 102.949 68.4973 103.112 68.9755 103.439C69.4585 103.761 69.8349 104.213 70.1048 104.795H70.2184C70.4978 104.232 70.9168 103.785 71.4755 103.453C72.0342 103.117 72.7042 102.949 73.4854 102.949C74.4608 102.949 75.2586 103.254 75.8789 103.865C76.4992 104.471 76.8093 105.416 76.8093 106.699V114H75.1332V106.699C75.1332 105.894 74.913 105.319 74.4727 104.973C74.0323 104.627 73.5138 104.455 72.9173 104.455C72.1502 104.455 71.556 104.687 71.1346 105.151C70.7132 105.61 70.5025 106.192 70.5025 106.898V114H68.7979V106.528C68.7979 105.908 68.5967 105.409 68.1942 105.03C67.7918 104.646 67.2733 104.455 66.6388 104.455C66.2032 104.455 65.796 104.571 65.4173 104.803C65.0432 105.035 64.7402 105.357 64.5082 105.768C64.2809 106.176 64.1673 106.647 64.1673 107.182V114H62.4911ZM84.4478 114.227C83.3967 114.227 82.4899 113.995 81.7276 113.531C80.9701 113.062 80.3853 112.409 79.9734 111.571C79.5662 110.728 79.3626 109.748 79.3626 108.631C79.3626 107.513 79.5662 106.528 79.9734 105.676C80.3853 104.819 80.9582 104.152 81.6921 103.673C82.4308 103.19 83.2925 102.949 84.2773 102.949C84.8455 102.949 85.4066 103.044 85.9606 103.233C86.5146 103.422 87.0188 103.73 87.4734 104.156C87.9279 104.578 88.2901 105.136 88.56 105.832C88.8299 106.528 88.9648 107.385 88.9648 108.403V109.114H80.5558V107.665H87.2603C87.2603 107.049 87.1372 106.5 86.891 106.017C86.6495 105.534 86.3039 105.153 85.854 104.874C85.409 104.594 84.8834 104.455 84.2773 104.455C83.6097 104.455 83.0321 104.62 82.5444 104.952C82.0614 105.278 81.6897 105.705 81.4293 106.23C81.1689 106.756 81.0387 107.319 81.0387 107.92V108.886C81.0387 109.71 81.1808 110.409 81.4648 110.982C81.7537 111.55 82.1538 111.983 82.6651 112.281C83.1765 112.575 83.7707 112.722 84.4478 112.722C84.8881 112.722 85.2859 112.66 85.641 112.537C86.0008 112.409 86.311 112.22 86.5714 111.969C86.8318 111.713 87.033 111.396 87.1751 111.017L88.7944 111.472C88.6239 112.021 88.3375 112.504 87.935 112.92C87.5326 113.332 87.0354 113.654 86.4435 113.886C85.8517 114.114 85.1864 114.227 84.4478 114.227ZM36.6761 128.773L31.9886 146.188H30.4545L35.142 128.773H36.6761ZM39.2614 165.534L37.7557 165.96C37.661 165.709 37.5213 165.465 37.3366 165.229C37.1567 164.987 36.9105 164.788 36.598 164.632C36.2855 164.476 35.8854 164.398 35.3977 164.398C34.7301 164.398 34.1738 164.552 33.7287 164.859C33.2884 165.162 33.0682 165.548 33.0682 166.017C33.0682 166.434 33.2197 166.763 33.5227 167.004C33.8258 167.246 34.2992 167.447 34.9432 167.608L36.5625 168.006C37.5379 168.242 38.2647 168.605 38.7429 169.092C39.2211 169.575 39.4602 170.198 39.4602 170.96C39.4602 171.585 39.2803 172.144 38.9205 172.636C38.5653 173.129 38.0682 173.517 37.429 173.801C36.7898 174.085 36.0464 174.227 35.1989 174.227C34.0862 174.227 33.1652 173.986 32.4361 173.503C31.7069 173.02 31.2453 172.314 31.0511 171.386L32.642 170.989C32.7936 171.576 33.08 172.016 33.5014 172.31C33.9276 172.603 34.4839 172.75 35.1705 172.75C35.9517 172.75 36.572 172.584 37.0312 172.253C37.4953 171.917 37.7273 171.514 37.7273 171.045C37.7273 170.667 37.5947 170.349 37.3295 170.094C37.0644 169.833 36.6572 169.639 36.108 169.511L34.2898 169.085C33.2907 168.848 32.5568 168.482 32.0881 167.984C31.6241 167.482 31.392 166.855 31.392 166.102C31.392 165.487 31.5649 164.942 31.9105 164.469C32.2609 163.995 32.7367 163.624 33.3381 163.354C33.9441 163.084 34.6307 162.949 35.3977 162.949C36.4773 162.949 37.3248 163.186 37.9403 163.659C38.5606 164.133 39.0009 164.758 39.2614 165.534ZM48.8583 169.54V163.091H50.5344V174H48.8583V172.153H48.7447C48.489 172.707 48.0913 173.179 47.5515 173.567C47.0117 173.95 46.3299 174.142 45.506 174.142C44.8242 174.142 44.2182 173.993 43.6879 173.695C43.1576 173.392 42.7409 172.937 42.4379 172.331C42.1348 171.72 41.9833 170.951 41.9833 170.023V163.091H43.6594V169.909C43.6594 170.705 43.882 171.339 44.3271 171.812C44.7769 172.286 45.3498 172.523 46.0458 172.523C46.4625 172.523 46.8862 172.416 47.3171 172.203C47.7527 171.99 48.1173 171.663 48.4109 171.223C48.7092 170.783 48.8583 170.222 48.8583 169.54ZM53.6044 174V163.091H55.2237V164.739H55.3374C55.5362 164.199 55.8961 163.761 56.4169 163.425C56.9377 163.089 57.5249 162.92 58.1783 162.92C58.3014 162.92 58.4553 162.923 58.6399 162.928C58.8246 162.932 58.9643 162.939 59.0589 162.949V164.653C59.0021 164.639 58.8719 164.618 58.6683 164.589C58.4695 164.556 58.2588 164.54 58.0362 164.54C57.5059 164.54 57.0324 164.651 56.6158 164.874C56.2038 165.091 55.8771 165.394 55.6357 165.783C55.3989 166.166 55.2805 166.604 55.2805 167.097V174H53.6044ZM66.5874 163.091V164.511H60.7067V163.091H66.5874ZM62.468 174V161.585C62.468 160.96 62.6148 160.439 62.9084 160.023C63.2019 159.606 63.5831 159.294 64.0518 159.085C64.5206 158.877 65.0154 158.773 65.5362 158.773C65.9482 158.773 66.2843 158.806 66.5447 158.872C66.8052 158.938 66.9993 159 67.1271 159.057L66.6442 160.506C66.5589 160.477 66.4406 160.442 66.2891 160.399C66.1423 160.357 65.9482 160.335 65.7067 160.335C65.1527 160.335 64.7526 160.475 64.5064 160.754C64.2649 161.034 64.1442 161.443 64.1442 161.983V174H62.468ZM71.8342 174.256C71.1429 174.256 70.5155 174.125 69.9521 173.865C69.3886 173.6 68.9412 173.219 68.6097 172.722C68.2783 172.22 68.1126 171.614 68.1126 170.903C68.1126 170.278 68.2357 169.772 68.4819 169.384C68.7281 168.991 69.0572 168.683 69.4691 168.46C69.881 168.238 70.3356 168.072 70.8327 167.963C71.3346 167.849 71.8389 167.759 72.3455 167.693C73.0084 167.608 73.5458 167.544 73.9577 167.501C74.3744 167.454 74.6774 167.376 74.8668 167.267C75.061 167.158 75.158 166.969 75.158 166.699V166.642C75.158 165.941 74.9663 165.397 74.5827 165.009C74.204 164.62 73.6287 164.426 72.8569 164.426C72.0567 164.426 71.4293 164.601 70.9748 164.952C70.5202 165.302 70.2006 165.676 70.016 166.074L68.4251 165.506C68.7092 164.843 69.0879 164.327 69.5614 163.957C70.0397 163.583 70.5605 163.323 71.1239 163.176C71.6921 163.025 72.2508 162.949 72.8001 162.949C73.1504 162.949 73.5529 162.991 74.0075 163.077C74.4667 163.157 74.9094 163.325 75.3356 163.581C75.7665 163.837 76.1239 164.223 76.408 164.739C76.6921 165.255 76.8342 165.946 76.8342 166.812V174H75.158V172.523H75.0728C74.9592 172.759 74.7698 173.013 74.5046 173.283C74.2395 173.553 73.8867 173.782 73.4464 173.972C73.006 174.161 72.4686 174.256 71.8342 174.256ZM72.0898 172.75C72.7527 172.75 73.3114 172.62 73.766 172.359C74.2253 172.099 74.5709 171.763 74.8029 171.351C75.0397 170.939 75.158 170.506 75.158 170.051V168.517C75.087 168.602 74.9308 168.68 74.6893 168.751C74.4525 168.818 74.1779 168.877 73.8654 168.929C73.5576 168.976 73.257 169.019 72.9634 169.057C72.6746 169.09 72.4402 169.118 72.2603 169.142C71.8247 169.199 71.4175 169.291 71.0387 169.419C70.6647 169.542 70.3616 169.729 70.1296 169.98C69.9023 170.226 69.7887 170.562 69.7887 170.989C69.7887 171.571 70.0041 172.011 70.435 172.31C70.8706 172.603 71.4222 172.75 72.0898 172.75ZM84.3253 174.227C83.3026 174.227 82.4219 173.986 81.6832 173.503C80.9446 173.02 80.3764 172.355 79.9787 171.507C79.581 170.66 79.3821 169.691 79.3821 168.602C79.3821 167.494 79.5857 166.517 79.9929 165.669C80.4048 164.817 80.9777 164.152 81.7116 163.673C82.4503 163.19 83.312 162.949 84.2969 162.949C85.0639 162.949 85.7552 163.091 86.3707 163.375C86.9863 163.659 87.4905 164.057 87.8835 164.568C88.2765 165.08 88.5204 165.676 88.6151 166.358H86.9389C86.8111 165.861 86.527 165.42 86.0866 165.037C85.651 164.649 85.0639 164.455 84.3253 164.455C83.6719 164.455 83.099 164.625 82.6065 164.966C82.1188 165.302 81.7377 165.778 81.4631 166.393C81.1932 167.004 81.0582 167.722 81.0582 168.545C81.0582 169.388 81.1908 170.122 81.456 170.747C81.7259 171.372 82.1046 171.857 82.5923 172.203C83.0848 172.549 83.6624 172.722 84.3253 172.722C84.7609 172.722 85.1562 172.646 85.5114 172.494C85.8665 172.343 86.1671 172.125 86.4134 171.841C86.6596 171.557 86.8348 171.216 86.9389 170.818H88.6151C88.5204 171.462 88.286 172.042 87.9119 172.558C87.5426 173.07 87.0526 173.477 86.4418 173.78C85.8357 174.078 85.1302 174.227 84.3253 174.227ZM36.108 204.227C35.0568 204.227 34.1501 203.995 33.3878 203.531C32.6302 203.062 32.0455 202.409 31.6335 201.571C31.2263 200.728 31.0227 199.748 31.0227 198.631C31.0227 197.513 31.2263 196.528 31.6335 195.676C32.0455 194.819 32.6184 194.152 33.3523 193.673C34.0909 193.19 34.9527 192.949 35.9375 192.949C36.5057 192.949 37.0668 193.044 37.6207 193.233C38.1747 193.422 38.679 193.73 39.1335 194.156C39.5881 194.578 39.9503 195.136 40.2202 195.832C40.4901 196.528 40.625 197.385 40.625 198.403V199.114H32.2159V197.665H38.9205C38.9205 197.049 38.7973 196.5 38.5511 196.017C38.3097 195.534 37.964 195.153 37.5142 194.874C37.0691 194.594 36.5436 194.455 35.9375 194.455C35.2699 194.455 34.6922 194.62 34.2045 194.952C33.7216 195.278 33.3499 195.705 33.0895 196.23C32.8291 196.756 32.6989 197.319 32.6989 197.92V198.886C32.6989 199.71 32.8409 200.409 33.125 200.982C33.4138 201.55 33.8139 201.983 34.3253 202.281C34.8366 202.575 35.4309 202.722 36.108 202.722C36.5483 202.722 36.946 202.66 37.3011 202.537C37.661 202.409 37.9711 202.22 38.2315 201.969C38.492 201.713 38.6932 201.396 38.8352 201.017L40.4545 201.472C40.2841 202.021 39.9976 202.504 39.5952 202.92C39.1927 203.332 38.6955 203.654 38.1037 203.886C37.5118 204.114 36.8466 204.227 36.108 204.227ZM48.3168 188.773L43.6293 206.188H42.0952L46.7827 188.773H48.3168ZM33.2102 227.438V234H31.5341V223.091H33.1534V224.795H33.2955C33.5511 224.241 33.9394 223.796 34.4602 223.46C34.9811 223.119 35.6534 222.949 36.4773 222.949C37.2159 222.949 37.8622 223.1 38.4162 223.403C38.9702 223.702 39.401 224.156 39.7088 224.767C40.0166 225.373 40.1705 226.14 40.1705 227.068V234H38.4943V227.182C38.4943 226.325 38.2718 225.657 37.8267 225.179C37.3816 224.696 36.7708 224.455 35.9943 224.455C35.4593 224.455 34.9811 224.571 34.5597 224.803C34.143 225.035 33.8139 225.373 33.5724 225.818C33.331 226.263 33.2102 226.803 33.2102 227.438ZM47.8072 234.227C46.756 234.227 45.8493 233.995 45.087 233.531C44.3294 233.062 43.7447 232.409 43.3327 231.571C42.9255 230.728 42.7219 229.748 42.7219 228.631C42.7219 227.513 42.9255 226.528 43.3327 225.676C43.7447 224.819 44.3176 224.152 45.0515 223.673C45.7901 223.19 46.6519 222.949 47.6367 222.949C48.2049 222.949 48.766 223.044 49.32 223.233C49.8739 223.422 50.3782 223.73 50.8327 224.156C51.2873 224.578 51.6495 225.136 51.9194 225.832C52.1893 226.528 52.3242 227.385 52.3242 228.403V229.114H43.9151V227.665H50.6197C50.6197 227.049 50.4966 226.5 50.2504 226.017C50.0089 225.534 49.6632 225.153 49.2134 224.874C48.7683 224.594 48.2428 224.455 47.6367 224.455C46.9691 224.455 46.3915 224.62 45.9038 224.952C45.4208 225.278 45.0491 225.705 44.7887 226.23C44.5283 226.756 44.3981 227.319 44.3981 227.92V228.886C44.3981 229.71 44.5401 230.409 44.8242 230.982C45.113 231.55 45.5131 231.983 46.0245 232.281C46.5359 232.575 47.1301 232.722 47.8072 232.722C48.2475 232.722 48.6452 232.66 49.0004 232.537C49.3602 232.409 49.6703 232.22 49.9308 231.969C50.1912 231.713 50.3924 231.396 50.5344 231.017L52.1538 231.472C51.9833 232.021 51.6969 232.504 51.2944 232.92C50.8919 233.332 50.3948 233.654 49.8029 233.886C49.2111 234.114 48.5458 234.227 47.8072 234.227ZM61.7489 229.54V223.091H63.4251V234H61.7489V232.153H61.6353C61.3796 232.707 60.9819 233.179 60.4421 233.567C59.9023 233.95 59.2205 234.142 58.3967 234.142C57.7148 234.142 57.1088 233.993 56.5785 233.695C56.0482 233.392 55.6315 232.937 55.3285 232.331C55.0254 231.72 54.8739 230.951 54.8739 230.023V223.091H56.5501V229.909C56.5501 230.705 56.7726 231.339 57.2177 231.812C57.6675 232.286 58.2404 232.523 58.9364 232.523C59.3531 232.523 59.7769 232.416 60.2077 232.203C60.6433 231.99 61.0079 231.663 61.3015 231.223C61.5998 230.783 61.7489 230.222 61.7489 229.54ZM71.2393 223.091V224.511H65.5859V223.091H71.2393ZM67.2337 220.477H68.9098V230.875C68.9098 231.348 68.9785 231.704 69.1158 231.94C69.2578 232.172 69.4377 232.329 69.6555 232.409C69.8781 232.485 70.1125 232.523 70.3587 232.523C70.5433 232.523 70.6948 232.513 70.8132 232.494C70.9316 232.471 71.0263 232.452 71.0973 232.438L71.4382 233.943C71.3246 233.986 71.166 234.028 70.9624 234.071C70.7588 234.118 70.5007 234.142 70.1882 234.142C69.7147 234.142 69.2507 234.04 68.7962 233.837C68.3464 233.633 67.9723 233.323 67.674 232.906C67.3804 232.49 67.2337 231.964 67.2337 231.33V220.477ZM73.7607 234V223.091H75.38V224.739H75.4936C75.6925 224.199 76.0523 223.761 76.5732 223.425C77.094 223.089 77.6811 222.92 78.3345 222.92C78.4576 222.92 78.6115 222.923 78.7962 222.928C78.9808 222.932 79.1205 222.939 79.2152 222.949V224.653C79.1584 224.639 79.0282 224.618 78.8246 224.589C78.6257 224.556 78.415 224.54 78.1925 224.54C77.6622 224.54 77.1887 224.651 76.772 224.874C76.3601 225.091 76.0334 225.394 75.7919 225.783C75.5552 226.166 75.4368 226.604 75.4368 227.097V234H73.7607ZM84.4123 234.256C83.721 234.256 83.0936 234.125 82.5302 233.865C81.9667 233.6 81.5193 233.219 81.1879 232.722C80.8564 232.22 80.6907 231.614 80.6907 230.903C80.6907 230.278 80.8138 229.772 81.06 229.384C81.3062 228.991 81.6353 228.683 82.0472 228.46C82.4592 228.238 82.9137 228.072 83.4109 227.963C83.9128 227.849 84.417 227.759 84.9237 227.693C85.5865 227.608 86.1239 227.544 86.5359 227.501C86.9525 227.454 87.2556 227.376 87.445 227.267C87.6391 227.158 87.7362 226.969 87.7362 226.699V226.642C87.7362 225.941 87.5444 225.397 87.1609 225.009C86.7821 224.62 86.2068 224.426 85.435 224.426C84.6348 224.426 84.0075 224.601 83.5529 224.952C83.0984 225.302 82.7788 225.676 82.5941 226.074L81.0032 225.506C81.2873 224.843 81.6661 224.327 82.1396 223.957C82.6178 223.583 83.1386 223.323 83.7021 223.176C84.2702 223.025 84.829 222.949 85.3782 222.949C85.7286 222.949 86.131 222.991 86.5856 223.077C87.0449 223.157 87.4876 223.325 87.9137 223.581C88.3446 223.837 88.7021 224.223 88.9862 224.739C89.2702 225.255 89.4123 225.946 89.4123 226.812V234H87.7362V232.523H87.6509C87.5373 232.759 87.3479 233.013 87.0827 233.283C86.8176 233.553 86.4648 233.782 86.0245 233.972C85.5842 234.161 85.0468 234.256 84.4123 234.256ZM84.668 232.75C85.3308 232.75 85.8896 232.62 86.3441 232.359C86.8034 232.099 87.149 231.763 87.381 231.351C87.6178 230.939 87.7362 230.506 87.7362 230.051V228.517C87.6651 228.602 87.5089 228.68 87.2674 228.751C87.0307 228.818 86.756 228.877 86.4435 228.929C86.1358 228.976 85.8351 229.019 85.5415 229.057C85.2527 229.09 85.0183 229.118 84.8384 229.142C84.4028 229.199 83.9956 229.291 83.6168 229.419C83.2428 229.542 82.9397 229.729 82.7077 229.98C82.4805 230.226 82.3668 230.562 82.3668 230.989C82.3668 231.571 82.5823 232.011 83.0131 232.31C83.4487 232.603 84.0004 232.75 84.668 232.75ZM33.2102 249.455V264H31.5341V249.455H33.2102ZM41.4222 248.773L36.7347 266.188H35.2006L39.8881 248.773H41.4222ZM48.125 264.199C47.0549 264.199 46.1435 263.908 45.3906 263.325C44.6378 262.738 44.0625 261.888 43.6648 260.776C43.267 259.658 43.0682 258.309 43.0682 256.727C43.0682 255.155 43.267 253.813 43.6648 252.7C44.0672 251.583 44.6449 250.731 45.3977 250.143C46.1553 249.552 47.0644 249.256 48.125 249.256C49.1856 249.256 50.0923 249.552 50.8452 250.143C51.6027 250.731 52.1804 251.583 52.5781 252.7C52.9806 253.813 53.1818 255.155 53.1818 256.727C53.1818 258.309 52.983 259.658 52.5852 260.776C52.1875 261.888 51.6122 262.738 50.8594 263.325C50.1065 263.908 49.1951 264.199 48.125 264.199ZM48.125 262.636C49.1856 262.636 50.0095 262.125 50.5966 261.102C51.1837 260.08 51.4773 258.621 51.4773 256.727C51.4773 255.468 51.3423 254.395 51.0724 253.51C50.8073 252.625 50.4238 251.95 49.9219 251.486C49.4247 251.022 48.8258 250.79 48.125 250.79C47.0739 250.79 46.2524 251.308 45.6605 252.345C45.0687 253.377 44.7727 254.838 44.7727 256.727C44.7727 257.987 44.9053 259.057 45.1705 259.938C45.4356 260.818 45.8168 261.488 46.3139 261.947C46.8158 262.407 47.4195 262.636 48.125 262.636ZM60.625 264.199C59.5549 264.199 58.6435 263.908 57.8906 263.325C57.1378 262.738 56.5625 261.888 56.1648 260.776C55.767 259.658 55.5682 258.309 55.5682 256.727C55.5682 255.155 55.767 253.813 56.1648 252.7C56.5672 251.583 57.1449 250.731 57.8977 250.143C58.6553 249.552 59.5644 249.256 60.625 249.256C61.6856 249.256 62.5923 249.552 63.3452 250.143C64.1027 250.731 64.6804 251.583 65.0781 252.7C65.4806 253.813 65.6818 255.155 65.6818 256.727C65.6818 258.309 65.483 259.658 65.0852 260.776C64.6875 261.888 64.1122 262.738 63.3594 263.325C62.6065 263.908 61.6951 264.199 60.625 264.199ZM60.625 262.636C61.6856 262.636 62.5095 262.125 63.0966 261.102C63.6837 260.08 63.9773 258.621 63.9773 256.727C63.9773 255.468 63.8423 254.395 63.5724 253.51C63.3073 252.625 62.9238 251.95 62.4219 251.486C61.9247 251.022 61.3258 250.79 60.625 250.79C59.5739 250.79 58.7524 251.308 58.1605 252.345C57.5687 253.377 57.2727 254.838 57.2727 256.727C57.2727 257.987 57.4053 259.057 57.6705 259.938C57.9356 260.818 58.3168 261.488 58.8139 261.947C59.3158 262.407 59.9195 262.636 60.625 262.636ZM73.5511 248.773L68.8636 266.188H67.3295L72.017 248.773H73.5511ZM35.6534 294.227C34.7443 294.227 33.9418 293.998 33.2457 293.538C32.5497 293.074 32.0052 292.421 31.6122 291.578C31.2192 290.731 31.0227 289.729 31.0227 288.574C31.0227 287.428 31.2192 286.434 31.6122 285.591C32.0052 284.748 32.5521 284.097 33.2528 283.638C33.9536 283.179 34.7633 282.949 35.6818 282.949C36.392 282.949 36.9531 283.067 37.3651 283.304C37.7817 283.536 38.099 283.801 38.3168 284.099C38.5393 284.393 38.7121 284.634 38.8352 284.824H38.9773V279.455H40.6534V294H39.0341V292.324H38.8352C38.7121 292.523 38.5369 292.774 38.3097 293.077C38.0824 293.375 37.758 293.643 37.3366 293.879C36.9152 294.111 36.3542 294.227 35.6534 294.227ZM35.8807 292.722C36.553 292.722 37.1212 292.546 37.5852 292.196C38.0492 291.841 38.402 291.351 38.6435 290.726C38.8849 290.096 39.0057 289.369 39.0057 288.545C39.0057 287.731 38.8873 287.018 38.6506 286.408C38.4138 285.792 38.0634 285.314 37.5994 284.973C37.1354 284.627 36.5625 284.455 35.8807 284.455C35.1705 284.455 34.5786 284.637 34.1051 285.001C33.6364 285.361 33.2836 285.851 33.0469 286.472C32.8149 287.087 32.6989 287.778 32.6989 288.545C32.6989 289.322 32.8172 290.027 33.054 290.662C33.2955 291.292 33.6506 291.794 34.1193 292.168C34.5928 292.537 35.1799 292.722 35.8807 292.722ZM48.5298 294.227C47.4787 294.227 46.572 293.995 45.8097 293.531C45.0521 293.062 44.4673 292.409 44.0554 291.571C43.6482 290.728 43.4446 289.748 43.4446 288.631C43.4446 287.513 43.6482 286.528 44.0554 285.676C44.4673 284.819 45.0402 284.152 45.7741 283.673C46.5128 283.19 47.3745 282.949 48.3594 282.949C48.9276 282.949 49.4886 283.044 50.0426 283.233C50.5966 283.422 51.1009 283.73 51.5554 284.156C52.0099 284.578 52.3722 285.136 52.642 285.832C52.9119 286.528 53.0469 287.385 53.0469 288.403V289.114H44.6378V287.665H51.3423C51.3423 287.049 51.2192 286.5 50.973 286.017C50.7315 285.534 50.3859 285.153 49.9361 284.874C49.491 284.594 48.9654 284.455 48.3594 284.455C47.6918 284.455 47.1141 284.62 46.6264 284.952C46.1435 285.278 45.7718 285.705 45.5114 286.23C45.2509 286.756 45.1207 287.319 45.1207 287.92V288.886C45.1207 289.71 45.2628 290.409 45.5469 290.982C45.8357 291.55 46.2358 291.983 46.7472 292.281C47.2585 292.575 47.8527 292.722 48.5298 292.722C48.9702 292.722 49.3679 292.66 49.723 292.537C50.0829 292.409 50.393 292.22 50.6534 291.969C50.9138 291.713 51.1151 291.396 51.2571 291.017L52.8764 291.472C52.706 292.021 52.4195 292.504 52.017 292.92C51.6146 293.332 51.1174 293.654 50.5256 293.886C49.9337 294.114 49.2685 294.227 48.5298 294.227ZM60.4545 283.091V284.511H54.5739V283.091H60.4545ZM56.3352 294V281.585C56.3352 280.96 56.482 280.439 56.7756 280.023C57.0691 279.606 57.4503 279.294 57.919 279.085C58.3878 278.877 58.8826 278.773 59.4034 278.773C59.8153 278.773 60.1515 278.806 60.4119 278.872C60.6723 278.938 60.8665 279 60.9943 279.057L60.5114 280.506C60.4261 280.477 60.3078 280.442 60.1562 280.399C60.0095 280.357 59.8153 280.335 59.5739 280.335C59.0199 280.335 58.6198 280.475 58.3736 280.754C58.1321 281.034 58.0114 281.443 58.0114 281.983V294H56.3352ZM65.7013 294.256C65.0101 294.256 64.3827 294.125 63.8192 293.865C63.2558 293.6 62.8084 293.219 62.4769 292.722C62.1455 292.22 61.9798 291.614 61.9798 290.903C61.9798 290.278 62.1029 289.772 62.3491 289.384C62.5953 288.991 62.9244 288.683 63.3363 288.46C63.7482 288.238 64.2028 288.072 64.6999 287.963C65.2018 287.849 65.7061 287.759 66.2127 287.693C66.8756 287.608 67.413 287.544 67.8249 287.501C68.2416 287.454 68.5446 287.376 68.734 287.267C68.9281 287.158 69.0252 286.969 69.0252 286.699V286.642C69.0252 285.941 68.8335 285.397 68.4499 285.009C68.0711 284.62 67.4959 284.426 66.7241 284.426C65.9239 284.426 65.2965 284.601 64.842 284.952C64.3874 285.302 64.0678 285.676 63.8832 286.074L62.2923 285.506C62.5763 284.843 62.9551 284.327 63.4286 283.957C63.9068 283.583 64.4277 283.323 64.9911 283.176C65.5593 283.025 66.118 282.949 66.6673 282.949C67.0176 282.949 67.4201 282.991 67.8746 283.077C68.3339 283.157 68.7766 283.325 69.2028 283.581C69.6336 283.837 69.9911 284.223 70.2752 284.739C70.5593 285.255 70.7013 285.946 70.7013 286.812V294H69.0252V292.523H68.94C68.8263 292.759 68.637 293.013 68.3718 293.283C68.1067 293.553 67.7539 293.782 67.3136 293.972C66.8732 294.161 66.3358 294.256 65.7013 294.256ZM65.957 292.75C66.6199 292.75 67.1786 292.62 67.6332 292.359C68.0924 292.099 68.4381 291.763 68.6701 291.351C68.9068 290.939 69.0252 290.506 69.0252 290.051V288.517C68.9542 288.602 68.7979 288.68 68.5565 288.751C68.3197 288.818 68.0451 288.877 67.7326 288.929C67.4248 288.976 67.1242 289.019 66.8306 289.057C66.5418 289.09 66.3074 289.118 66.1275 289.142C65.6919 289.199 65.2847 289.291 64.9059 289.419C64.5318 289.542 64.2288 289.729 63.9968 289.98C63.7695 290.226 63.6559 290.562 63.6559 290.989C63.6559 291.571 63.8713 292.011 64.3022 292.31C64.7378 292.603 65.2894 292.75 65.957 292.75ZM80.6357 289.54V283.091H82.3118V294H80.6357V292.153H80.522C80.2663 292.707 79.8686 293.179 79.3288 293.567C78.7891 293.95 78.1072 294.142 77.2834 294.142C76.6016 294.142 75.9955 293.993 75.4652 293.695C74.9349 293.392 74.5182 292.937 74.2152 292.331C73.9122 291.72 73.7607 290.951 73.7607 290.023V283.091H75.4368V289.909C75.4368 290.705 75.6593 291.339 76.1044 291.812C76.5542 292.286 77.1271 292.523 77.8232 292.523C78.2398 292.523 78.6636 292.416 79.0945 292.203C79.5301 291.99 79.8946 291.663 80.1882 291.223C80.4865 290.783 80.6357 290.222 80.6357 289.54ZM87.0579 279.455V294H85.3817V279.455H87.0579ZM36.2784 313.091V314.511H30.625V313.091H36.2784ZM32.2727 310.477H33.9489V320.875C33.9489 321.348 34.0175 321.704 34.1548 321.94C34.2969 322.172 34.4768 322.329 34.6946 322.409C34.9171 322.485 35.1515 322.523 35.3977 322.523C35.5824 322.523 35.7339 322.513 35.8523 322.494C35.9706 322.471 36.0653 322.452 36.1364 322.438L36.4773 323.943C36.3636 323.986 36.205 324.028 36.0014 324.071C35.7978 324.118 35.5398 324.142 35.2273 324.142C34.7538 324.142 34.2898 324.04 33.8352 323.837C33.3854 323.633 33.0114 323.323 32.7131 322.906C32.4195 322.49 32.2727 321.964 32.2727 321.33V310.477ZM44.0341 346.727C44.0341 348.261 43.7571 349.587 43.2031 350.705C42.6491 351.822 41.8892 352.684 40.9233 353.29C39.9574 353.896 38.8542 354.199 37.6136 354.199C36.3731 354.199 35.2699 353.896 34.304 353.29C33.3381 352.684 32.5781 351.822 32.0241 350.705C31.4702 349.587 31.1932 348.261 31.1932 346.727C31.1932 345.193 31.4702 343.867 32.0241 342.75C32.5781 341.633 33.3381 340.771 34.304 340.165C35.2699 339.559 36.3731 339.256 37.6136 339.256C38.8542 339.256 39.9574 339.559 40.9233 340.165C41.8892 340.771 42.6491 341.633 43.2031 342.75C43.7571 343.867 44.0341 345.193 44.0341 346.727ZM42.3295 346.727C42.3295 345.468 42.1188 344.405 41.6974 343.538C41.2808 342.672 40.715 342.016 40 341.571C39.2898 341.126 38.4943 340.903 37.6136 340.903C36.733 340.903 35.9351 341.126 35.2202 341.571C34.5099 342.016 33.9441 342.672 33.5227 343.538C33.1061 344.405 32.8977 345.468 32.8977 346.727C32.8977 347.987 33.1061 349.05 33.5227 349.916C33.9441 350.783 34.5099 351.438 35.2202 351.884C35.9351 352.329 36.733 352.551 37.6136 352.551C38.4943 352.551 39.2898 352.329 40 351.884C40.715 351.438 41.2808 350.783 41.6974 349.916C42.1188 349.05 42.3295 347.987 42.3295 346.727ZM53.6435 349.54V343.091H55.3196V354H53.6435V352.153H53.5298C53.2741 352.707 52.8764 353.179 52.3366 353.567C51.7969 353.95 51.1151 354.142 50.2912 354.142C49.6094 354.142 49.0033 353.993 48.473 353.695C47.9427 353.392 47.526 352.937 47.223 352.331C46.92 351.72 46.7685 350.951 46.7685 350.023V343.091H48.4446V349.909C48.4446 350.705 48.6671 351.339 49.1122 351.812C49.562 352.286 50.1349 352.523 50.831 352.523C51.2476 352.523 51.6714 352.416 52.1023 352.203C52.5379 351.99 52.9025 351.663 53.196 351.223C53.4943 350.783 53.6435 350.222 53.6435 349.54ZM63.1339 343.091V344.511H57.4805V343.091H63.1339ZM59.1282 340.477H60.8043V350.875C60.8043 351.348 60.873 351.704 61.0103 351.94C61.1523 352.172 61.3323 352.329 61.5501 352.409C61.7726 352.485 62.007 352.523 62.2532 352.523C62.4379 352.523 62.5894 352.513 62.7077 352.494C62.8261 352.471 62.9208 352.452 62.9918 352.438L63.3327 353.943C63.2191 353.986 63.0605 354.028 62.8569 354.071C62.6533 354.118 62.3952 354.142 62.0827 354.142C61.6093 354.142 61.1452 354.04 60.6907 353.837C60.2409 353.633 59.8668 353.323 59.5685 352.906C59.275 352.49 59.1282 351.964 59.1282 351.33V340.477ZM67.5657 339.455V354H65.8896V339.455H67.5657ZM70.6357 354V343.091H72.3118V354H70.6357ZM71.4879 341.273C71.1612 341.273 70.8795 341.161 70.6428 340.939C70.4107 340.716 70.2947 340.449 70.2947 340.136C70.2947 339.824 70.4107 339.556 70.6428 339.334C70.8795 339.111 71.1612 339 71.4879 339C71.8146 339 72.094 339.111 72.326 339.334C72.5627 339.556 72.6811 339.824 72.6811 340.136C72.6811 340.449 72.5627 340.716 72.326 340.939C72.094 341.161 71.8146 341.273 71.4879 341.273ZM33.2102 377.438V384H31.5341V373.091H33.1534V374.795H33.2955C33.5511 374.241 33.9394 373.796 34.4602 373.46C34.9811 373.119 35.6534 372.949 36.4773 372.949C37.2159 372.949 37.8622 373.1 38.4162 373.403C38.9702 373.702 39.401 374.156 39.7088 374.767C40.0166 375.373 40.1705 376.14 40.1705 377.068V384H38.4943V377.182C38.4943 376.325 38.2718 375.657 37.8267 375.179C37.3816 374.696 36.7708 374.455 35.9943 374.455C35.4593 374.455 34.9811 374.571 34.5597 374.803C34.143 375.035 33.8139 375.373 33.5724 375.818C33.331 376.263 33.2102 376.803 33.2102 377.438ZM47.8072 384.227C46.756 384.227 45.8493 383.995 45.087 383.531C44.3294 383.062 43.7447 382.409 43.3327 381.571C42.9255 380.728 42.7219 379.748 42.7219 378.631C42.7219 377.513 42.9255 376.528 43.3327 375.676C43.7447 374.819 44.3176 374.152 45.0515 373.673C45.7901 373.19 46.6519 372.949 47.6367 372.949C48.2049 372.949 48.766 373.044 49.32 373.233C49.8739 373.422 50.3782 373.73 50.8327 374.156C51.2873 374.578 51.6495 375.136 51.9194 375.832C52.1893 376.528 52.3242 377.385 52.3242 378.403V379.114H43.9151V377.665H50.6197C50.6197 377.049 50.4966 376.5 50.2504 376.017C50.0089 375.534 49.6632 375.153 49.2134 374.874C48.7683 374.594 48.2428 374.455 47.6367 374.455C46.9691 374.455 46.3915 374.62 45.9038 374.952C45.4208 375.278 45.0491 375.705 44.7887 376.23C44.5283 376.756 44.3981 377.319 44.3981 377.92V378.886C44.3981 379.71 44.5401 380.409 44.8242 380.982C45.113 381.55 45.5131 381.983 46.0245 382.281C46.5359 382.575 47.1301 382.722 47.8072 382.722C48.2475 382.722 48.6452 382.66 49.0004 382.537C49.3602 382.409 49.6703 382.22 49.9308 381.969C50.1912 381.713 50.3924 381.396 50.5344 381.017L52.1538 381.472C51.9833 382.021 51.6969 382.504 51.2944 382.92C50.8919 383.332 50.3948 383.654 49.8029 383.886C49.2111 384.114 48.5458 384.227 47.8072 384.227ZM56.0955 384.114C55.7451 384.114 55.4445 383.988 55.1935 383.737C54.9426 383.486 54.8171 383.186 54.8171 382.835C54.8171 382.485 54.9426 382.184 55.1935 381.933C55.4445 381.682 55.7451 381.557 56.0955 381.557C56.4459 381.557 56.7466 381.682 56.9975 381.933C57.2485 382.184 57.3739 382.485 57.3739 382.835C57.3739 383.067 57.3147 383.28 57.1964 383.474C57.0827 383.669 56.9289 383.825 56.7347 383.943C56.5453 384.057 56.3323 384.114 56.0955 384.114ZM56.0955 376.017C55.7451 376.017 55.4445 375.892 55.1935 375.641C54.9426 375.39 54.8171 375.089 54.8171 374.739C54.8171 374.388 54.9426 374.088 55.1935 373.837C55.4445 373.586 55.7451 373.46 56.0955 373.46C56.4459 373.46 56.7466 373.586 56.9975 373.837C57.2485 374.088 57.3739 374.388 57.3739 374.739C57.3739 374.971 57.3147 375.184 57.1964 375.378C57.0827 375.572 56.9289 375.728 56.7347 375.847C56.5453 375.96 56.3323 376.017 56.0955 376.017ZM35.9659 414.227C34.9432 414.227 34.0625 413.986 33.3239 413.503C32.5852 413.02 32.017 412.355 31.6193 411.507C31.2216 410.66 31.0227 409.691 31.0227 408.602C31.0227 407.494 31.2263 406.517 31.6335 405.669C32.0455 404.817 32.6184 404.152 33.3523 403.673C34.0909 403.19 34.9527 402.949 35.9375 402.949C36.7045 402.949 37.3958 403.091 38.0114 403.375C38.6269 403.659 39.1312 404.057 39.5241 404.568C39.9171 405.08 40.161 405.676 40.2557 406.358H38.5795C38.4517 405.861 38.1676 405.42 37.7273 405.037C37.2917 404.649 36.7045 404.455 35.9659 404.455C35.3125 404.455 34.7396 404.625 34.2472 404.966C33.7595 405.302 33.3783 405.778 33.1037 406.393C32.8338 407.004 32.6989 407.722 32.6989 408.545C32.6989 409.388 32.8314 410.122 33.0966 410.747C33.3665 411.372 33.7453 411.857 34.233 412.203C34.7254 412.549 35.303 412.722 35.9659 412.722C36.4015 412.722 36.7969 412.646 37.152 412.494C37.5071 412.343 37.8078 412.125 38.054 411.841C38.3002 411.557 38.4754 411.216 38.5795 410.818H40.2557C40.161 411.462 39.9266 412.042 39.5526 412.558C39.1832 413.07 38.6932 413.477 38.0824 413.78C37.4763 414.078 36.7708 414.227 35.9659 414.227ZM47.1378 414.227C46.1529 414.227 45.2888 413.993 44.5455 413.524C43.8068 413.055 43.2292 412.4 42.8125 411.557C42.4006 410.714 42.1946 409.729 42.1946 408.602C42.1946 407.466 42.4006 406.474 42.8125 405.626C43.2292 404.779 43.8068 404.121 44.5455 403.652C45.2888 403.183 46.1529 402.949 47.1378 402.949C48.1226 402.949 48.9844 403.183 49.723 403.652C50.4664 404.121 51.044 404.779 51.456 405.626C51.8726 406.474 52.081 407.466 52.081 408.602C52.081 409.729 51.8726 410.714 51.456 411.557C51.044 412.4 50.4664 413.055 49.723 413.524C48.9844 413.993 48.1226 414.227 47.1378 414.227ZM47.1378 412.722C47.8859 412.722 48.5014 412.53 48.9844 412.146C49.4673 411.763 49.8248 411.259 50.0568 410.634C50.2888 410.009 50.4048 409.331 50.4048 408.602C50.4048 407.873 50.2888 407.194 50.0568 406.564C49.8248 405.934 49.4673 405.425 48.9844 405.037C48.5014 404.649 47.8859 404.455 47.1378 404.455C46.3897 404.455 45.7741 404.649 45.2912 405.037C44.8082 405.425 44.4508 405.934 44.2188 406.564C43.9867 407.194 43.8707 407.873 43.8707 408.602C43.8707 409.331 43.9867 410.009 44.2188 410.634C44.4508 411.259 44.8082 411.763 45.2912 412.146C45.7741 412.53 46.3897 412.722 47.1378 412.722ZM56.3157 399.455V414H54.6396V399.455H56.3157ZM63.8175 414.227C62.8326 414.227 61.9685 413.993 61.2251 413.524C60.4865 413.055 59.9089 412.4 59.4922 411.557C59.0803 410.714 58.8743 409.729 58.8743 408.602C58.8743 407.466 59.0803 406.474 59.4922 405.626C59.9089 404.779 60.4865 404.121 61.2251 403.652C61.9685 403.183 62.8326 402.949 63.8175 402.949C64.8023 402.949 65.6641 403.183 66.4027 403.652C67.1461 404.121 67.7237 404.779 68.1357 405.626C68.5523 406.474 68.7607 407.466 68.7607 408.602C68.7607 409.729 68.5523 410.714 68.1357 411.557C67.7237 412.4 67.1461 413.055 66.4027 413.524C65.6641 413.993 64.8023 414.227 63.8175 414.227ZM63.8175 412.722C64.5656 412.722 65.1811 412.53 65.6641 412.146C66.147 411.763 66.5045 411.259 66.7365 410.634C66.9685 410.009 67.0845 409.331 67.0845 408.602C67.0845 407.873 66.9685 407.194 66.7365 406.564C66.5045 405.934 66.147 405.425 65.6641 405.037C65.1811 404.649 64.5656 404.455 63.8175 404.455C63.0694 404.455 62.4538 404.649 61.9709 405.037C61.4879 405.425 61.1304 405.934 60.8984 406.564C60.6664 407.194 60.5504 407.873 60.5504 408.602C60.5504 409.331 60.6664 410.009 60.8984 410.634C61.1304 411.259 61.4879 411.763 61.9709 412.146C62.4538 412.53 63.0694 412.722 63.8175 412.722ZM71.3192 414V403.091H72.9386V404.739H73.0522C73.2511 404.199 73.6109 403.761 74.1317 403.425C74.6526 403.089 75.2397 402.92 75.8931 402.92C76.0162 402.92 76.1701 402.923 76.3548 402.928C76.5394 402.932 76.6791 402.939 76.7738 402.949V404.653C76.717 404.639 76.5868 404.618 76.3832 404.589C76.1843 404.556 75.9736 404.54 75.7511 404.54C75.2208 404.54 74.7473 404.651 74.3306 404.874C73.9187 405.091 73.592 405.394 73.3505 405.783C73.1138 406.166 72.9954 406.604 72.9954 407.097V414H71.3192ZM83.2191 398.773L78.5316 416.188H76.9975L81.685 398.773H83.2191ZM36.2784 433.091V434.511H30.625V433.091H36.2784ZM32.2727 430.477H33.9489V440.875C33.9489 441.348 34.0175 441.704 34.1548 441.94C34.2969 442.172 34.4768 442.329 34.6946 442.409C34.9171 442.485 35.1515 442.523 35.3977 442.523C35.5824 442.523 35.7339 442.513 35.8523 442.494C35.9706 442.471 36.0653 442.452 36.1364 442.438L36.4773 443.943C36.3636 443.986 36.205 444.028 36.0014 444.071C35.7978 444.118 35.5398 444.142 35.2273 444.142C34.7538 444.142 34.2898 444.04 33.8352 443.837C33.3854 443.633 33.0114 443.323 32.7131 442.906C32.4195 442.49 32.2727 441.964 32.2727 441.33V430.477ZM40.7102 437.438V444H39.0341V429.455H40.7102V434.795H40.8523C41.108 434.232 41.4915 433.785 42.0028 433.453C42.5189 433.117 43.2055 432.949 44.0625 432.949C44.8059 432.949 45.4569 433.098 46.0156 433.396C46.5743 433.69 47.0076 434.142 47.3153 434.753C47.6278 435.359 47.7841 436.131 47.7841 437.068V444H46.108V437.182C46.108 436.315 45.883 435.645 45.4332 435.172C44.9882 434.694 44.3703 434.455 43.5795 434.455C43.0303 434.455 42.5379 434.571 42.1023 434.803C41.6714 435.035 41.3305 435.373 41.0795 435.818C40.8333 436.263 40.7102 436.803 40.7102 437.438ZM55.4244 444.227C54.3732 444.227 53.4665 443.995 52.7042 443.531C51.9466 443.062 51.3619 442.409 50.9499 441.571C50.5427 440.728 50.3391 439.748 50.3391 438.631C50.3391 437.513 50.5427 436.528 50.9499 435.676C51.3619 434.819 51.9348 434.152 52.6687 433.673C53.4073 433.19 54.2691 432.949 55.2539 432.949C55.8221 432.949 56.3832 433.044 56.9371 433.233C57.4911 433.422 57.9954 433.73 58.4499 434.156C58.9045 434.578 59.2667 435.136 59.5366 435.832C59.8065 436.528 59.9414 437.385 59.9414 438.403V439.114H51.5323V437.665H58.2369C58.2369 437.049 58.1138 436.5 57.8675 436.017C57.6261 435.534 57.2804 435.153 56.8306 434.874C56.3855 434.594 55.86 434.455 55.2539 434.455C54.5863 434.455 54.0086 434.62 53.521 434.952C53.038 435.278 52.6663 435.705 52.4059 436.23C52.1455 436.756 52.0153 437.319 52.0153 437.92V438.886C52.0153 439.71 52.1573 440.409 52.4414 440.982C52.7302 441.55 53.1303 441.983 53.6417 442.281C54.1531 442.575 54.7473 442.722 55.4244 442.722C55.8647 442.722 56.2624 442.66 56.6175 442.537C56.9774 442.409 57.2875 442.22 57.5479 441.969C57.8084 441.713 58.0096 441.396 58.1516 441.017L59.771 441.472C59.6005 442.021 59.314 442.504 58.9116 442.92C58.5091 443.332 58.012 443.654 57.4201 443.886C56.8282 444.114 56.163 444.227 55.4244 444.227ZM62.4911 444V433.091H64.1104V434.795H64.2525C64.4798 434.213 64.8467 433.761 65.3533 433.439C65.86 433.112 66.4684 432.949 67.1786 432.949C67.8983 432.949 68.4973 433.112 68.9755 433.439C69.4585 433.761 69.8349 434.213 70.1048 434.795H70.2184C70.4978 434.232 70.9168 433.785 71.4755 433.453C72.0342 433.117 72.7042 432.949 73.4854 432.949C74.4608 432.949 75.2586 433.254 75.8789 433.865C76.4992 434.471 76.8093 435.416 76.8093 436.699V444H75.1332V436.699C75.1332 435.894 74.913 435.319 74.4727 434.973C74.0323 434.627 73.5138 434.455 72.9173 434.455C72.1502 434.455 71.556 434.687 71.1346 435.151C70.7132 435.61 70.5025 436.192 70.5025 436.898V444H68.7979V436.528C68.7979 435.908 68.5967 435.409 68.1942 435.03C67.7918 434.646 67.2733 434.455 66.6388 434.455C66.2032 434.455 65.796 434.571 65.4173 434.803C65.0432 435.035 64.7402 435.357 64.5082 435.768C64.2809 436.176 64.1673 436.647 64.1673 437.182V444H62.4911ZM84.4478 444.227C83.3967 444.227 82.4899 443.995 81.7276 443.531C80.9701 443.062 80.3853 442.409 79.9734 441.571C79.5662 440.728 79.3626 439.748 79.3626 438.631C79.3626 437.513 79.5662 436.528 79.9734 435.676C80.3853 434.819 80.9582 434.152 81.6921 433.673C82.4308 433.19 83.2925 432.949 84.2773 432.949C84.8455 432.949 85.4066 433.044 85.9606 433.233C86.5146 433.422 87.0188 433.73 87.4734 434.156C87.9279 434.578 88.2901 435.136 88.56 435.832C88.8299 436.528 88.9648 437.385 88.9648 438.403V439.114H80.5558V437.665H87.2603C87.2603 437.049 87.1372 436.5 86.891 436.017C86.6495 435.534 86.3039 435.153 85.854 434.874C85.409 434.594 84.8834 434.455 84.2773 434.455C83.6097 434.455 83.0321 434.62 82.5444 434.952C82.0614 435.278 81.6897 435.705 81.4293 436.23C81.1689 436.756 81.0387 437.319 81.0387 437.92V438.886C81.0387 439.71 81.1808 440.409 81.4648 440.982C81.7537 441.55 82.1538 441.983 82.6651 442.281C83.1765 442.575 83.7707 442.722 84.4478 442.722C84.8881 442.722 85.2859 442.66 85.641 442.537C86.0008 442.409 86.311 442.22 86.5714 441.969C86.8318 441.713 87.033 441.396 87.1751 441.017L88.7944 441.472C88.6239 442.021 88.3375 442.504 87.935 442.92C87.5326 443.332 87.0354 443.654 86.4435 443.886C85.8517 444.114 85.1864 444.227 84.4478 444.227ZM36.6761 458.773L31.9886 476.188H30.4545L35.142 458.773H36.6761ZM31.7614 504V489.455H33.4375V494.824H33.5795C33.7027 494.634 33.8731 494.393 34.0909 494.099C34.3134 493.801 34.6307 493.536 35.0426 493.304C35.4593 493.067 36.0227 492.949 36.733 492.949C37.6515 492.949 38.4612 493.179 39.1619 493.638C39.8627 494.097 40.4096 494.748 40.8026 495.591C41.1955 496.434 41.392 497.428 41.392 498.574C41.392 499.729 41.1955 500.731 40.8026 501.578C40.4096 502.421 39.8651 503.074 39.169 503.538C38.473 503.998 37.6705 504.227 36.7614 504.227C36.0606 504.227 35.4995 504.111 35.0781 503.879C34.6567 503.643 34.3324 503.375 34.1051 503.077C33.8778 502.774 33.7027 502.523 33.5795 502.324H33.3807V504H31.7614ZM33.4091 498.545C33.4091 499.369 33.5298 500.096 33.7713 500.726C34.0128 501.351 34.3655 501.841 34.8295 502.196C35.2936 502.546 35.8617 502.722 36.5341 502.722C37.2348 502.722 37.8196 502.537 38.2884 502.168C38.7618 501.794 39.117 501.292 39.3537 500.662C39.5952 500.027 39.7159 499.322 39.7159 498.545C39.7159 497.778 39.5975 497.087 39.3608 496.472C39.1288 495.851 38.776 495.361 38.3026 495.001C37.8338 494.637 37.2443 494.455 36.5341 494.455C35.8523 494.455 35.2794 494.627 34.8153 494.973C34.3513 495.314 34.0009 495.792 33.7642 496.408C33.5275 497.018 33.4091 497.731 33.4091 498.545ZM48.3878 504.227C47.4029 504.227 46.5388 503.993 45.7955 503.524C45.0568 503.055 44.4792 502.4 44.0625 501.557C43.6506 500.714 43.4446 499.729 43.4446 498.602C43.4446 497.466 43.6506 496.474 44.0625 495.626C44.4792 494.779 45.0568 494.121 45.7955 493.652C46.5388 493.183 47.4029 492.949 48.3878 492.949C49.3726 492.949 50.2344 493.183 50.973 493.652C51.7164 494.121 52.294 494.779 52.706 495.626C53.1226 496.474 53.331 497.466 53.331 498.602C53.331 499.729 53.1226 500.714 52.706 501.557C52.294 502.4 51.7164 503.055 50.973 503.524C50.2344 503.993 49.3726 504.227 48.3878 504.227ZM48.3878 502.722C49.1359 502.722 49.7514 502.53 50.2344 502.146C50.7173 501.763 51.0748 501.259 51.3068 500.634C51.5388 500.009 51.6548 499.331 51.6548 498.602C51.6548 497.873 51.5388 497.194 51.3068 496.564C51.0748 495.934 50.7173 495.425 50.2344 495.037C49.7514 494.649 49.1359 494.455 48.3878 494.455C47.6397 494.455 47.0241 494.649 46.5412 495.037C46.0582 495.425 45.7008 495.934 45.4688 496.564C45.2367 497.194 45.1207 497.873 45.1207 498.602C45.1207 499.331 45.2367 500.009 45.4688 500.634C45.7008 501.259 46.0582 501.763 46.5412 502.146C47.0241 502.53 47.6397 502.722 48.3878 502.722ZM55.8896 504V493.091H57.5089V494.739H57.6225C57.8214 494.199 58.1812 493.761 58.7021 493.425C59.2229 493.089 59.81 492.92 60.4634 492.92C60.5865 492.92 60.7404 492.923 60.9251 492.928C61.1097 492.932 61.2494 492.939 61.3441 492.949V494.653C61.2873 494.639 61.1571 494.618 60.9535 494.589C60.7546 494.556 60.5439 494.54 60.3214 494.54C59.7911 494.54 59.3176 494.651 58.9009 494.874C58.489 495.091 58.1623 495.394 57.9208 495.783C57.6841 496.166 57.5657 496.604 57.5657 497.097V504H55.8896ZM67.1183 504.227C66.2092 504.227 65.4066 503.998 64.7106 503.538C64.0146 503.074 63.4701 502.421 63.0771 501.578C62.6841 500.731 62.4876 499.729 62.4876 498.574C62.4876 497.428 62.6841 496.434 63.0771 495.591C63.4701 494.748 64.0169 494.097 64.7177 493.638C65.4184 493.179 66.2281 492.949 67.1467 492.949C67.8569 492.949 68.418 493.067 68.8299 493.304C69.2466 493.536 69.5638 493.801 69.7816 494.099C70.0041 494.393 70.177 494.634 70.3001 494.824H70.4421V489.455H72.1183V504H70.4989V502.324H70.3001C70.177 502.523 70.0018 502.774 69.7745 503.077C69.5472 503.375 69.2229 503.643 68.8015 503.879C68.3801 504.111 67.819 504.227 67.1183 504.227ZM67.3455 502.722C68.0179 502.722 68.5861 502.546 69.0501 502.196C69.5141 501.841 69.8668 501.351 70.1083 500.726C70.3498 500.096 70.4705 499.369 70.4705 498.545C70.4705 497.731 70.3522 497.018 70.1154 496.408C69.8787 495.792 69.5283 495.314 69.0643 494.973C68.6003 494.627 68.0273 494.455 67.3455 494.455C66.6353 494.455 66.0434 494.637 65.57 495.001C65.1012 495.361 64.7485 495.851 64.5117 496.472C64.2797 497.087 64.1637 497.778 64.1637 498.545C64.1637 499.322 64.2821 500.027 64.5188 500.662C64.7603 501.292 65.1154 501.794 65.5842 502.168C66.0576 502.537 66.6448 502.722 67.3455 502.722ZM79.9947 504.227C78.9435 504.227 78.0368 503.995 77.2745 503.531C76.5169 503.062 75.9322 502.409 75.5202 501.571C75.113 500.728 74.9094 499.748 74.9094 498.631C74.9094 497.513 75.113 496.528 75.5202 495.676C75.9322 494.819 76.5051 494.152 77.239 493.673C77.9776 493.19 78.8394 492.949 79.8242 492.949C80.3924 492.949 80.9535 493.044 81.5075 493.233C82.0614 493.422 82.5657 493.73 83.0202 494.156C83.4748 494.578 83.837 495.136 84.1069 495.832C84.3768 496.528 84.5117 497.385 84.5117 498.403V499.114H76.1026V497.665H82.8072C82.8072 497.049 82.6841 496.5 82.4379 496.017C82.1964 495.534 81.8507 495.153 81.4009 494.874C80.9558 494.594 80.4303 494.455 79.8242 494.455C79.1566 494.455 78.579 494.62 78.0913 494.952C77.6083 495.278 77.2366 495.705 76.9762 496.23C76.7158 496.756 76.5856 497.319 76.5856 497.92V498.886C76.5856 499.71 76.7276 500.409 77.0117 500.982C77.3005 501.55 77.7006 501.983 78.212 502.281C78.7234 502.575 79.3176 502.722 79.9947 502.722C80.435 502.722 80.8327 502.66 81.1879 502.537C81.5477 502.409 81.8578 502.22 82.1183 501.969C82.3787 501.713 82.5799 501.396 82.7219 501.017L84.3413 501.472C84.1708 502.021 83.8844 502.504 83.4819 502.92C83.0794 503.332 82.5823 503.654 81.9904 503.886C81.3986 504.114 80.7333 504.227 79.9947 504.227ZM31.5341 534V523.091H33.1534V524.739H33.267C33.4659 524.199 33.8258 523.761 34.3466 523.425C34.8674 523.089 35.4545 522.92 36.108 522.92C36.2311 522.92 36.3849 522.923 36.5696 522.928C36.7543 522.932 36.8939 522.939 36.9886 522.949V524.653C36.9318 524.639 36.8016 524.618 36.598 524.589C36.3991 524.556 36.1884 524.54 35.9659 524.54C35.4356 524.54 34.9621 524.651 34.5455 524.874C34.1335 525.091 33.8068 525.394 33.5653 525.783C33.3286 526.166 33.2102 526.604 33.2102 527.097V534H31.5341ZM43.4339 518.773L38.7464 536.188H37.2124L41.8999 518.773H43.4339ZM33.2102 557.438V564H31.5341V553.091H33.1534V554.795H33.2955C33.5511 554.241 33.9394 553.796 34.4602 553.46C34.9811 553.119 35.6534 552.949 36.4773 552.949C37.2159 552.949 37.8622 553.1 38.4162 553.403C38.9702 553.702 39.401 554.156 39.7088 554.767C40.0166 555.373 40.1705 556.14 40.1705 557.068V564H38.4943V557.182C38.4943 556.325 38.2718 555.657 37.8267 555.179C37.3816 554.696 36.7708 554.455 35.9943 554.455C35.4593 554.455 34.9811 554.571 34.5597 554.803C34.143 555.035 33.8139 555.373 33.5724 555.818C33.331 556.263 33.2102 556.803 33.2102 557.438ZM47.8072 564.227C46.756 564.227 45.8493 563.995 45.087 563.531C44.3294 563.062 43.7447 562.409 43.3327 561.571C42.9255 560.728 42.7219 559.748 42.7219 558.631C42.7219 557.513 42.9255 556.528 43.3327 555.676C43.7447 554.819 44.3176 554.152 45.0515 553.673C45.7901 553.19 46.6519 552.949 47.6367 552.949C48.2049 552.949 48.766 553.044 49.32 553.233C49.8739 553.422 50.3782 553.73 50.8327 554.156C51.2873 554.578 51.6495 555.136 51.9194 555.832C52.1893 556.528 52.3242 557.385 52.3242 558.403V559.114H43.9151V557.665H50.6197C50.6197 557.049 50.4966 556.5 50.2504 556.017C50.0089 555.534 49.6632 555.153 49.2134 554.874C48.7683 554.594 48.2428 554.455 47.6367 554.455C46.9691 554.455 46.3915 554.62 45.9038 554.952C45.4208 555.278 45.0491 555.705 44.7887 556.23C44.5283 556.756 44.3981 557.319 44.3981 557.92V558.886C44.3981 559.71 44.5401 560.409 44.8242 560.982C45.113 561.55 45.5131 561.983 46.0245 562.281C46.5359 562.575 47.1301 562.722 47.8072 562.722C48.2475 562.722 48.6452 562.66 49.0004 562.537C49.3602 562.409 49.6703 562.22 49.9308 561.969C50.1912 561.713 50.3924 561.396 50.5344 561.017L52.1538 561.472C51.9833 562.021 51.6969 562.504 51.2944 562.92C50.8919 563.332 50.3948 563.654 49.8029 563.886C49.2111 564.114 48.5458 564.227 47.8072 564.227ZM61.7489 559.54V553.091H63.4251V564H61.7489V562.153H61.6353C61.3796 562.707 60.9819 563.179 60.4421 563.567C59.9023 563.95 59.2205 564.142 58.3967 564.142C57.7148 564.142 57.1088 563.993 56.5785 563.695C56.0482 563.392 55.6315 562.937 55.3285 562.331C55.0254 561.72 54.8739 560.951 54.8739 560.023V553.091H56.5501V559.909C56.5501 560.705 56.7726 561.339 57.2177 561.812C57.6675 562.286 58.2404 562.523 58.9364 562.523C59.3531 562.523 59.7769 562.416 60.2077 562.203C60.6433 561.99 61.0079 561.663 61.3015 561.223C61.5998 560.783 61.7489 560.222 61.7489 559.54ZM71.2393 553.091V554.511H65.5859V553.091H71.2393ZM67.2337 550.477H68.9098V560.875C68.9098 561.348 68.9785 561.704 69.1158 561.94C69.2578 562.172 69.4377 562.329 69.6555 562.409C69.8781 562.485 70.1125 562.523 70.3587 562.523C70.5433 562.523 70.6948 562.513 70.8132 562.494C70.9316 562.471 71.0263 562.452 71.0973 562.438L71.4382 563.943C71.3246 563.986 71.166 564.028 70.9624 564.071C70.7588 564.118 70.5007 564.142 70.1882 564.142C69.7147 564.142 69.2507 564.04 68.7962 563.837C68.3464 563.633 67.9723 563.323 67.674 562.906C67.3804 562.49 67.2337 561.964 67.2337 561.33V550.477ZM73.7607 564V553.091H75.38V554.739H75.4936C75.6925 554.199 76.0523 553.761 76.5732 553.425C77.094 553.089 77.6811 552.92 78.3345 552.92C78.4576 552.92 78.6115 552.923 78.7962 552.928C78.9808 552.932 79.1205 552.939 79.2152 552.949V554.653C79.1584 554.639 79.0282 554.618 78.8246 554.589C78.6257 554.556 78.415 554.54 78.1925 554.54C77.6622 554.54 77.1887 554.651 76.772 554.874C76.3601 555.091 76.0334 555.394 75.7919 555.783C75.5552 556.166 75.4368 556.604 75.4368 557.097V564H73.7607ZM84.4123 564.256C83.721 564.256 83.0936 564.125 82.5302 563.865C81.9667 563.6 81.5193 563.219 81.1879 562.722C80.8564 562.22 80.6907 561.614 80.6907 560.903C80.6907 560.278 80.8138 559.772 81.06 559.384C81.3062 558.991 81.6353 558.683 82.0472 558.46C82.4592 558.238 82.9137 558.072 83.4109 557.963C83.9128 557.849 84.417 557.759 84.9237 557.693C85.5865 557.608 86.1239 557.544 86.5359 557.501C86.9525 557.454 87.2556 557.376 87.445 557.267C87.6391 557.158 87.7362 556.969 87.7362 556.699V556.642C87.7362 555.941 87.5444 555.397 87.1609 555.009C86.7821 554.62 86.2068 554.426 85.435 554.426C84.6348 554.426 84.0075 554.601 83.5529 554.952C83.0984 555.302 82.7788 555.676 82.5941 556.074L81.0032 555.506C81.2873 554.843 81.6661 554.327 82.1396 553.957C82.6178 553.583 83.1386 553.323 83.7021 553.176C84.2702 553.025 84.829 552.949 85.3782 552.949C85.7286 552.949 86.131 552.991 86.5856 553.077C87.0449 553.157 87.4876 553.325 87.9137 553.581C88.3446 553.837 88.7021 554.223 88.9862 554.739C89.2702 555.255 89.4123 555.946 89.4123 556.812V564H87.7362V562.523H87.6509C87.5373 562.759 87.3479 563.013 87.0827 563.283C86.8176 563.553 86.4648 563.782 86.0245 563.972C85.5842 564.161 85.0468 564.256 84.4123 564.256ZM84.668 562.75C85.3308 562.75 85.8896 562.62 86.3441 562.359C86.8034 562.099 87.149 561.763 87.381 561.351C87.6178 560.939 87.7362 560.506 87.7362 560.051V558.517C87.6651 558.602 87.5089 558.68 87.2674 558.751C87.0307 558.818 86.756 558.877 86.4435 558.929C86.1358 558.976 85.8351 559.019 85.5415 559.057C85.2527 559.09 85.0183 559.118 84.8384 559.142C84.4028 559.199 83.9956 559.291 83.6168 559.419C83.2428 559.542 82.9397 559.729 82.7077 559.98C82.4805 560.226 82.3668 560.562 82.3668 560.989C82.3668 561.571 82.5823 562.011 83.0131 562.31C83.4487 562.603 84.0004 562.75 84.668 562.75ZM33.2102 579.455V594H31.5341V579.455H33.2102ZM41.4222 578.773L36.7347 596.188H35.2006L39.8881 578.773H41.4222ZM48.125 594.199C47.0549 594.199 46.1435 593.908 45.3906 593.325C44.6378 592.738 44.0625 591.888 43.6648 590.776C43.267 589.658 43.0682 588.309 43.0682 586.727C43.0682 585.155 43.267 583.813 43.6648 582.7C44.0672 581.583 44.6449 580.731 45.3977 580.143C46.1553 579.552 47.0644 579.256 48.125 579.256C49.1856 579.256 50.0923 579.552 50.8452 580.143C51.6027 580.731 52.1804 581.583 52.5781 582.7C52.9806 583.813 53.1818 585.155 53.1818 586.727C53.1818 588.309 52.983 589.658 52.5852 590.776C52.1875 591.888 51.6122 592.738 50.8594 593.325C50.1065 593.908 49.1951 594.199 48.125 594.199ZM48.125 592.636C49.1856 592.636 50.0095 592.125 50.5966 591.102C51.1837 590.08 51.4773 588.621 51.4773 586.727C51.4773 585.468 51.3423 584.395 51.0724 583.51C50.8073 582.625 50.4238 581.95 49.9219 581.486C49.4247 581.022 48.8258 580.79 48.125 580.79C47.0739 580.79 46.2524 581.308 45.6605 582.345C45.0687 583.377 44.7727 584.838 44.7727 586.727C44.7727 587.987 44.9053 589.057 45.1705 589.938C45.4356 590.818 45.8168 591.488 46.3139 591.947C46.8158 592.407 47.4195 592.636 48.125 592.636ZM60.625 594.199C59.5549 594.199 58.6435 593.908 57.8906 593.325C57.1378 592.738 56.5625 591.888 56.1648 590.776C55.767 589.658 55.5682 588.309 55.5682 586.727C55.5682 585.155 55.767 583.813 56.1648 582.7C56.5672 581.583 57.1449 580.731 57.8977 580.143C58.6553 579.552 59.5644 579.256 60.625 579.256C61.6856 579.256 62.5923 579.552 63.3452 580.143C64.1027 580.731 64.6804 581.583 65.0781 582.7C65.4806 583.813 65.6818 585.155 65.6818 586.727C65.6818 588.309 65.483 589.658 65.0852 590.776C64.6875 591.888 64.1122 592.738 63.3594 593.325C62.6065 593.908 61.6951 594.199 60.625 594.199ZM60.625 592.636C61.6856 592.636 62.5095 592.125 63.0966 591.102C63.6837 590.08 63.9773 588.621 63.9773 586.727C63.9773 585.468 63.8423 584.395 63.5724 583.51C63.3073 582.625 62.9238 581.95 62.4219 581.486C61.9247 581.022 61.3258 580.79 60.625 580.79C59.5739 580.79 58.7524 581.308 58.1605 582.345C57.5687 583.377 57.2727 584.838 57.2727 586.727C57.2727 587.987 57.4053 589.057 57.6705 589.938C57.9356 590.818 58.3168 591.488 58.8139 591.947C59.3158 592.407 59.9195 592.636 60.625 592.636Z" fill="white" fill-opacity="0.95"/>
</svg>
