<svg width="245" height="1546" viewBox="0 0 245 1546" fill="none" xmlns="http://www.w3.org/2000/svg">
<mask id="path-1-inside-1_2144_60965" fill="white">
<path d="M0 0H245V1546H0V0Z"/>
</mask>
<path d="M0 0H245V1546H0V0Z" fill="#1A1A1A"/>
<path d="M245 1546V1547H246V1546H245ZM244 0V1546H246V0H244ZM245 1545H0V1547H245V1545Z" fill="#707070" mask="url(#path-1-inside-1_2144_60965)"/>
<path d="M31.7614 780V765.455H40.483V767.017H33.5227V771.932H39.8295V773.494H33.5227V780H31.7614ZM46.9034 780.227C45.9186 780.227 45.0545 779.993 44.3111 779.524C43.5724 779.055 42.9948 778.4 42.5781 777.557C42.1662 776.714 41.9602 775.729 41.9602 774.602C41.9602 773.466 42.1662 772.474 42.5781 771.626C42.9948 770.779 43.5724 770.121 44.3111 769.652C45.0545 769.183 45.9186 768.949 46.9034 768.949C47.8883 768.949 48.75 769.183 49.4886 769.652C50.232 770.121 50.8097 770.779 51.2216 771.626C51.6383 772.474 51.8466 773.466 51.8466 774.602C51.8466 775.729 51.6383 776.714 51.2216 777.557C50.8097 778.4 50.232 779.055 49.4886 779.524C48.75 779.993 47.8883 780.227 46.9034 780.227ZM46.9034 778.722C47.6515 778.722 48.267 778.53 48.75 778.146C49.233 777.763 49.5904 777.259 49.8224 776.634C50.0545 776.009 50.1705 775.331 50.1705 774.602C50.1705 773.873 50.0545 773.194 49.8224 772.564C49.5904 771.934 49.233 771.425 48.75 771.037C48.267 770.649 47.6515 770.455 46.9034 770.455C46.1553 770.455 45.5398 770.649 45.0568 771.037C44.5739 771.425 44.2164 771.934 43.9844 772.564C43.7524 773.194 43.6364 773.873 43.6364 774.602C43.6364 775.331 43.7524 776.009 43.9844 776.634C44.2164 777.259 44.5739 777.763 45.0568 778.146C45.5398 778.53 46.1553 778.722 46.9034 778.722ZM58.837 780.227C57.8143 780.227 56.9336 779.986 56.195 779.503C55.4563 779.02 54.8881 778.355 54.4904 777.507C54.0927 776.66 53.8938 775.691 53.8938 774.602C53.8938 773.494 54.0974 772.517 54.5046 771.669C54.9165 770.817 55.4895 770.152 56.2234 769.673C56.962 769.19 57.8237 768.949 58.8086 768.949C59.5756 768.949 60.2669 769.091 60.8825 769.375C61.498 769.659 62.0022 770.057 62.3952 770.568C62.7882 771.08 63.0321 771.676 63.1268 772.358H61.4506C61.3228 771.861 61.0387 771.42 60.5984 771.037C60.1628 770.649 59.5756 770.455 58.837 770.455C58.1836 770.455 57.6107 770.625 57.1183 770.966C56.6306 771.302 56.2494 771.778 55.9748 772.393C55.7049 773.004 55.57 773.722 55.57 774.545C55.57 775.388 55.7025 776.122 55.9677 776.747C56.2376 777.372 56.6164 777.857 57.104 778.203C57.5965 778.549 58.1741 778.722 58.837 778.722C59.2726 778.722 59.668 778.646 60.0231 778.494C60.3782 778.343 60.6789 778.125 60.9251 777.841C61.1713 777.557 61.3465 777.216 61.4506 776.818H63.1268C63.0321 777.462 62.7977 778.042 62.4237 778.558C62.0543 779.07 61.5643 779.477 60.9535 779.78C60.3474 780.078 59.6419 780.227 58.837 780.227ZM72.4521 775.54V769.091H74.1282V780H72.4521V778.153H72.3384C72.0827 778.707 71.685 779.179 71.1452 779.567C70.6055 779.95 69.9237 780.142 69.0998 780.142C68.418 780.142 67.8119 779.993 67.2816 779.695C66.7513 779.392 66.3346 778.937 66.0316 778.331C65.7286 777.72 65.5771 776.951 65.5771 776.023V769.091H67.2532V775.909C67.2532 776.705 67.4757 777.339 67.9208 777.812C68.3706 778.286 68.9435 778.523 69.6396 778.523C70.0562 778.523 70.48 778.416 70.9109 778.203C71.3465 777.99 71.7111 777.663 72.0046 777.223C72.3029 776.783 72.4521 776.222 72.4521 775.54ZM84.9254 771.534L83.4197 771.96C83.325 771.709 83.1854 771.465 83.0007 771.229C82.8208 770.987 82.5746 770.788 82.2621 770.632C81.9496 770.476 81.5495 770.398 81.0618 770.398C80.3942 770.398 79.8378 770.552 79.3928 770.859C78.9524 771.162 78.7322 771.548 78.7322 772.017C78.7322 772.434 78.8838 772.763 79.1868 773.004C79.4898 773.246 79.9633 773.447 80.6072 773.608L82.2266 774.006C83.2019 774.242 83.9287 774.605 84.407 775.092C84.8852 775.575 85.1243 776.198 85.1243 776.96C85.1243 777.585 84.9444 778.144 84.5845 778.636C84.2294 779.129 83.7322 779.517 83.093 779.801C82.4538 780.085 81.7105 780.227 80.8629 780.227C79.7502 780.227 78.8293 779.986 78.1001 779.503C77.371 779.02 76.9093 778.314 76.7152 777.386L78.3061 776.989C78.4576 777.576 78.7441 778.016 79.1655 778.31C79.5916 778.603 80.148 778.75 80.8345 778.75C81.6158 778.75 82.236 778.584 82.6953 778.253C83.1593 777.917 83.3913 777.514 83.3913 777.045C83.3913 776.667 83.2588 776.349 82.9936 776.094C82.7285 775.833 82.3213 775.639 81.772 775.511L79.9538 775.085C78.9548 774.848 78.2209 774.482 77.7521 773.984C77.2881 773.482 77.0561 772.855 77.0561 772.102C77.0561 771.487 77.2289 770.942 77.5746 770.469C77.925 769.995 78.4008 769.624 79.0021 769.354C79.6082 769.084 80.2947 768.949 81.0618 768.949C82.1413 768.949 82.9889 769.186 83.6044 769.659C84.2247 770.133 84.665 770.758 84.9254 771.534ZM92.2212 780.227C91.1701 780.227 90.2634 779.995 89.5011 779.531C88.7435 779.062 88.1587 778.409 87.7468 777.571C87.3396 776.728 87.136 775.748 87.136 774.631C87.136 773.513 87.3396 772.528 87.7468 771.676C88.1587 770.819 88.7317 770.152 89.4656 769.673C90.2042 769.19 91.0659 768.949 92.0508 768.949C92.619 768.949 93.18 769.044 93.734 769.233C94.288 769.422 94.7923 769.73 95.2468 770.156C95.7013 770.578 96.0636 771.136 96.3335 771.832C96.6033 772.528 96.7383 773.385 96.7383 774.403V775.114H88.3292V773.665H95.0337C95.0337 773.049 94.9106 772.5 94.6644 772.017C94.4229 771.534 94.0773 771.153 93.6275 770.874C93.1824 770.594 92.6568 770.455 92.0508 770.455C91.3832 770.455 90.8055 770.62 90.3178 770.952C89.8349 771.278 89.4632 771.705 89.2028 772.23C88.9424 772.756 88.8121 773.319 88.8121 773.92V774.886C88.8121 775.71 88.9542 776.409 89.2383 776.982C89.5271 777.55 89.9272 777.983 90.4386 778.281C90.9499 778.575 91.5442 778.722 92.2212 778.722C92.6616 778.722 93.0593 778.66 93.4144 778.537C93.7743 778.409 94.0844 778.22 94.3448 777.969C94.6052 777.713 94.8065 777.396 94.9485 777.017L96.5678 777.472C96.3974 778.021 96.1109 778.504 95.7085 778.92C95.306 779.332 94.8088 779.654 94.217 779.886C93.6251 780.114 92.9599 780.227 92.2212 780.227ZM103.407 780.227C102.498 780.227 101.696 779.998 101 779.538C100.304 779.074 99.7591 778.421 99.3661 777.578C98.9731 776.731 98.7766 775.729 98.7766 774.574C98.7766 773.428 98.9731 772.434 99.3661 771.591C99.7591 770.748 100.306 770.097 101.007 769.638C101.708 769.179 102.517 768.949 103.436 768.949C104.146 768.949 104.707 769.067 105.119 769.304C105.536 769.536 105.853 769.801 106.071 770.099C106.293 770.393 106.466 770.634 106.589 770.824H106.731V765.455H108.407V780H106.788V778.324H106.589C106.466 778.523 106.291 778.774 106.064 779.077C105.836 779.375 105.512 779.643 105.091 779.879C104.669 780.111 104.108 780.227 103.407 780.227ZM103.635 778.722C104.307 778.722 104.875 778.546 105.339 778.196C105.803 777.841 106.156 777.351 106.397 776.726C106.639 776.096 106.76 775.369 106.76 774.545C106.76 773.731 106.641 773.018 106.404 772.408C106.168 771.792 105.817 771.314 105.353 770.973C104.889 770.627 104.316 770.455 103.635 770.455C102.924 770.455 102.333 770.637 101.859 771.001C101.39 771.361 101.038 771.851 100.801 772.472C100.569 773.087 100.453 773.778 100.453 774.545C100.453 775.322 100.571 776.027 100.808 776.662C101.049 777.292 101.404 777.794 101.873 778.168C102.347 778.537 102.934 778.722 103.635 778.722Z" fill="white" fill-opacity="0.95"/>
</svg>
