<svg width="244" height="604" viewBox="0 0 244 604" fill="none" xmlns="http://www.w3.org/2000/svg">
<mask id="path-1-inside-1_2144_60946" fill="white">
<path d="M0 0H244V604H0V0Z"/>
</mask>
<path d="M0 0H244V604H0V0Z" fill="#1A1A1A"/>
<path d="M244 604V605H245V604H244ZM243 0V604H245V0H243ZM244 603H0V605H244V603Z" fill="#707070" mask="url(#path-1-inside-1_2144_60946)"/>
<path d="M30.9659 296.017V294.455H41.875V296.017H37.3011V309H35.5398V296.017H30.9659ZM47.358 309.227C46.3068 309.227 45.4001 308.995 44.6378 308.531C43.8802 308.062 43.2955 307.409 42.8835 306.571C42.4763 305.728 42.2727 304.748 42.2727 303.631C42.2727 302.513 42.4763 301.528 42.8835 300.676C43.2955 299.819 43.8684 299.152 44.6023 298.673C45.3409 298.19 46.2027 297.949 47.1875 297.949C47.7557 297.949 48.3168 298.044 48.8707 298.233C49.4247 298.422 49.929 298.73 50.3835 299.156C50.8381 299.578 51.2003 300.136 51.4702 300.832C51.7401 301.528 51.875 302.385 51.875 303.403V304.114H43.4659V302.665H50.1705C50.1705 302.049 50.0473 301.5 49.8011 301.017C49.5597 300.534 49.214 300.153 48.7642 299.874C48.3191 299.594 47.7936 299.455 47.1875 299.455C46.5199 299.455 45.9422 299.62 45.4545 299.952C44.9716 300.278 44.5999 300.705 44.3395 301.23C44.0791 301.756 43.9489 302.319 43.9489 302.92V303.886C43.9489 304.71 44.0909 305.409 44.375 305.982C44.6638 306.55 45.0639 306.983 45.5753 307.281C46.0866 307.575 46.6809 307.722 47.358 307.722C47.7983 307.722 48.196 307.66 48.5511 307.537C48.911 307.409 49.2211 307.22 49.4815 306.969C49.742 306.713 49.9432 306.396 50.0852 306.017L51.7045 306.472C51.5341 307.021 51.2476 307.504 50.8452 307.92C50.4427 308.332 49.9455 308.654 49.3537 308.886C48.7618 309.114 48.0966 309.227 47.358 309.227ZM55.3817 298.091L57.9954 302.551L60.609 298.091H62.5408L59.0181 303.545L62.5408 309H60.609L57.9954 304.767L55.3817 309H53.4499L56.9158 303.545L53.4499 298.091H55.3817ZM69.6768 298.091V299.511H64.0234V298.091H69.6768ZM65.6712 295.477H67.3473V305.875C67.3473 306.348 67.416 306.704 67.5533 306.94C67.6953 307.172 67.8752 307.329 68.093 307.409C68.3156 307.485 68.55 307.523 68.7962 307.523C68.9808 307.523 69.1323 307.513 69.2507 307.494C69.3691 307.471 69.4638 307.452 69.5348 307.438L69.8757 308.943C69.7621 308.986 69.6035 309.028 69.3999 309.071C69.1963 309.118 68.9382 309.142 68.6257 309.142C68.1522 309.142 67.6882 309.04 67.2337 308.837C66.7839 308.633 66.4098 308.323 66.1115 307.906C65.8179 307.49 65.6712 306.964 65.6712 306.33V295.477ZM82.6811 298.091V299.511H76.8004V298.091H82.6811ZM78.5618 309V296.585C78.5618 295.96 78.7086 295.439 79.0021 295.023C79.2957 294.606 79.6768 294.294 80.1456 294.085C80.6143 293.877 81.1091 293.773 81.63 293.773C82.0419 293.773 82.3781 293.806 82.6385 293.872C82.8989 293.938 83.093 294 83.2209 294.057L82.7379 295.506C82.6527 295.477 82.5343 295.442 82.3828 295.399C82.236 295.357 82.0419 295.335 81.8004 295.335C81.2464 295.335 80.8464 295.475 80.6001 295.754C80.3587 296.034 80.2379 296.443 80.2379 296.983V309H78.5618ZM85.0302 309V298.091H86.7063V309H85.0302ZM85.8825 296.273C85.5558 296.273 85.274 296.161 85.0373 295.939C84.8053 295.716 84.6893 295.449 84.6893 295.136C84.6893 294.824 84.8053 294.556 85.0373 294.334C85.274 294.111 85.5558 294 85.8825 294C86.2092 294 86.4885 294.111 86.7205 294.334C86.9573 294.556 87.0756 294.824 87.0756 295.136C87.0756 295.449 86.9573 295.716 86.7205 295.939C86.4885 296.161 86.2092 296.273 85.8825 296.273ZM94.3501 309.227C93.299 309.227 92.3923 308.995 91.63 308.531C90.8724 308.062 90.2876 307.409 89.8757 306.571C89.4685 305.728 89.2649 304.748 89.2649 303.631C89.2649 302.513 89.4685 301.528 89.8757 300.676C90.2876 299.819 90.8606 299.152 91.5945 298.673C92.3331 298.19 93.1948 297.949 94.1797 297.949C94.7479 297.949 95.3089 298.044 95.8629 298.233C96.4169 298.422 96.9212 298.73 97.3757 299.156C97.8303 299.578 98.1925 300.136 98.4624 300.832C98.7322 301.528 98.8672 302.385 98.8672 303.403V304.114H90.4581V302.665H97.1626C97.1626 302.049 97.0395 301.5 96.7933 301.017C96.5518 300.534 96.2062 300.153 95.7564 299.874C95.3113 299.594 94.7857 299.455 94.1797 299.455C93.5121 299.455 92.9344 299.62 92.4467 299.952C91.9638 300.278 91.5921 300.705 91.3317 301.23C91.0713 301.756 90.9411 302.319 90.9411 302.92V303.886C90.9411 304.71 91.0831 305.409 91.3672 305.982C91.656 306.55 92.0561 306.983 92.5675 307.281C93.0788 307.575 93.6731 307.722 94.3501 307.722C94.7905 307.722 95.1882 307.66 95.5433 307.537C95.9032 307.409 96.2133 307.22 96.4737 306.969C96.7341 306.713 96.9354 306.396 97.0774 306.017L98.6967 306.472C98.5263 307.021 98.2398 307.504 97.8374 307.92C97.4349 308.332 96.9377 308.654 96.3459 308.886C95.754 309.114 95.0888 309.227 94.3501 309.227ZM103.093 294.455V309H101.417V294.455H103.093ZM110.282 309.227C109.373 309.227 108.571 308.998 107.875 308.538C107.179 308.074 106.634 307.421 106.241 306.578C105.848 305.731 105.652 304.729 105.652 303.574C105.652 302.428 105.848 301.434 106.241 300.591C106.634 299.748 107.181 299.097 107.882 298.638C108.583 298.179 109.392 297.949 110.311 297.949C111.021 297.949 111.582 298.067 111.994 298.304C112.411 298.536 112.728 298.801 112.946 299.099C113.168 299.393 113.341 299.634 113.464 299.824H113.606V294.455H115.282V309H113.663V307.324H113.464C113.341 307.523 113.166 307.774 112.939 308.077C112.711 308.375 112.387 308.643 111.966 308.879C111.544 309.111 110.983 309.227 110.282 309.227ZM110.51 307.722C111.182 307.722 111.75 307.546 112.214 307.196C112.678 306.841 113.031 306.351 113.272 305.726C113.514 305.096 113.635 304.369 113.635 303.545C113.635 302.731 113.516 302.018 113.279 301.408C113.043 300.792 112.692 300.314 112.228 299.973C111.764 299.627 111.191 299.455 110.51 299.455C109.799 299.455 109.208 299.637 108.734 300.001C108.265 300.361 107.913 300.851 107.676 301.472C107.444 302.087 107.328 302.778 107.328 303.545C107.328 304.322 107.446 305.027 107.683 305.662C107.924 306.292 108.279 306.794 108.748 307.168C109.222 307.537 109.809 307.722 110.51 307.722ZM121.085 307.011L120.971 307.778C120.891 308.318 120.768 308.896 120.602 309.511C120.441 310.127 120.273 310.707 120.098 311.251C119.922 311.796 119.778 312.229 119.664 312.551H118.386C118.448 312.248 118.528 311.848 118.627 311.351C118.727 310.854 118.826 310.297 118.926 309.682C119.03 309.071 119.115 308.446 119.181 307.807L119.267 307.011H121.085ZM137.543 300.534L136.037 300.96C135.942 300.709 135.803 300.465 135.618 300.229C135.438 299.987 135.192 299.788 134.879 299.632C134.567 299.476 134.167 299.398 133.679 299.398C133.011 299.398 132.455 299.552 132.01 299.859C131.57 300.162 131.349 300.548 131.349 301.017C131.349 301.434 131.501 301.763 131.804 302.004C132.107 302.246 132.58 302.447 133.224 302.608L134.844 303.006C135.819 303.242 136.546 303.605 137.024 304.092C137.502 304.575 137.741 305.198 137.741 305.96C137.741 306.585 137.562 307.144 137.202 307.636C136.847 308.129 136.349 308.517 135.71 308.801C135.071 309.085 134.328 309.227 133.48 309.227C132.367 309.227 131.446 308.986 130.717 308.503C129.988 308.02 129.527 307.314 129.332 306.386L130.923 305.989C131.075 306.576 131.361 307.016 131.783 307.31C132.209 307.603 132.765 307.75 133.452 307.75C134.233 307.75 134.853 307.584 135.312 307.253C135.777 306.917 136.009 306.514 136.009 306.045C136.009 305.667 135.876 305.349 135.611 305.094C135.346 304.833 134.938 304.639 134.389 304.511L132.571 304.085C131.572 303.848 130.838 303.482 130.369 302.984C129.905 302.482 129.673 301.855 129.673 301.102C129.673 300.487 129.846 299.942 130.192 299.469C130.542 298.995 131.018 298.624 131.619 298.354C132.225 298.084 132.912 297.949 133.679 297.949C134.759 297.949 135.606 298.186 136.222 298.659C136.842 299.133 137.282 299.758 137.543 300.534ZM144.838 309.227C143.787 309.227 142.881 308.995 142.118 308.531C141.361 308.062 140.776 307.409 140.364 306.571C139.957 305.728 139.753 304.748 139.753 303.631C139.753 302.513 139.957 301.528 140.364 300.676C140.776 299.819 141.349 299.152 142.083 298.673C142.821 298.19 143.683 297.949 144.668 297.949C145.236 297.949 145.797 298.044 146.351 298.233C146.905 298.422 147.409 298.73 147.864 299.156C148.319 299.578 148.681 300.136 148.951 300.832C149.221 301.528 149.355 302.385 149.355 303.403V304.114H140.946V302.665H147.651C147.651 302.049 147.528 301.5 147.282 301.017C147.04 300.534 146.694 300.153 146.245 299.874C145.8 299.594 145.274 299.455 144.668 299.455C144 299.455 143.423 299.62 142.935 299.952C142.452 300.278 142.08 300.705 141.82 301.23C141.56 301.756 141.429 302.319 141.429 302.92V303.886C141.429 304.71 141.571 305.409 141.855 305.982C142.144 306.55 142.544 306.983 143.056 307.281C143.567 307.575 144.161 307.722 144.838 307.722C145.279 307.722 145.676 307.66 146.032 307.537C146.391 307.409 146.702 307.22 146.962 306.969C147.222 306.713 147.424 306.396 147.566 306.017L149.185 306.472C149.015 307.021 148.728 307.504 148.326 307.92C147.923 308.332 147.426 308.654 146.834 308.886C146.242 309.114 145.577 309.227 144.838 309.227ZM153.581 294.455V309H151.905V294.455H153.581ZM161.225 309.227C160.174 309.227 159.267 308.995 158.505 308.531C157.747 308.062 157.163 307.409 156.751 306.571C156.344 305.728 156.14 304.748 156.14 303.631C156.14 302.513 156.344 301.528 156.751 300.676C157.163 299.819 157.736 299.152 158.469 298.673C159.208 298.19 160.07 297.949 161.055 297.949C161.623 297.949 162.184 298.044 162.738 298.233C163.292 298.422 163.796 298.73 164.251 299.156C164.705 299.578 165.067 300.136 165.337 300.832C165.607 301.528 165.742 302.385 165.742 303.403V304.114H157.333V302.665H164.038C164.038 302.049 163.915 301.5 163.668 301.017C163.427 300.534 163.081 300.153 162.631 299.874C162.186 299.594 161.661 299.455 161.055 299.455C160.387 299.455 159.809 299.62 159.322 299.952C158.839 300.278 158.467 300.705 158.207 301.23C157.946 301.756 157.816 302.319 157.816 302.92V303.886C157.816 304.71 157.958 305.409 158.242 305.982C158.531 306.55 158.931 306.983 159.442 307.281C159.954 307.575 160.548 307.722 161.225 307.722C161.665 307.722 162.063 307.66 162.418 307.537C162.778 307.409 163.088 307.22 163.349 306.969C163.609 306.713 163.81 306.396 163.952 306.017L165.572 306.472C165.401 307.021 165.115 307.504 164.712 307.92C164.31 308.332 163.813 308.654 163.221 308.886C162.629 309.114 161.964 309.227 161.225 309.227ZM172.724 309.227C171.701 309.227 170.82 308.986 170.082 308.503C169.343 308.02 168.775 307.355 168.377 306.507C167.979 305.66 167.781 304.691 167.781 303.602C167.781 302.494 167.984 301.517 168.391 300.669C168.803 299.817 169.376 299.152 170.11 298.673C170.849 298.19 171.71 297.949 172.695 297.949C173.462 297.949 174.154 298.091 174.769 298.375C175.385 298.659 175.889 299.057 176.282 299.568C176.675 300.08 176.919 300.676 177.013 301.358H175.337C175.21 300.861 174.925 300.42 174.485 300.037C174.049 299.649 173.462 299.455 172.724 299.455C172.07 299.455 171.497 299.625 171.005 299.966C170.517 300.302 170.136 300.778 169.862 301.393C169.592 302.004 169.457 302.722 169.457 303.545C169.457 304.388 169.589 305.122 169.854 305.747C170.124 306.372 170.503 306.857 170.991 307.203C171.483 307.549 172.061 307.722 172.724 307.722C173.159 307.722 173.555 307.646 173.91 307.494C174.265 307.343 174.566 307.125 174.812 306.841C175.058 306.557 175.233 306.216 175.337 305.818H177.013C176.919 306.462 176.684 307.042 176.31 307.558C175.941 308.07 175.451 308.477 174.84 308.78C174.234 309.078 173.529 309.227 172.724 309.227ZM184.208 298.091V299.511H178.555V298.091H184.208ZM180.202 295.477H181.879V305.875C181.879 306.348 181.947 306.704 182.085 306.94C182.227 307.172 182.406 307.329 182.624 307.409C182.847 307.485 183.081 307.523 183.327 307.523C183.512 307.523 183.664 307.513 183.782 307.494C183.9 307.471 183.995 307.452 184.066 307.438L184.407 308.943C184.293 308.986 184.135 309.028 183.931 309.071C183.728 309.118 183.469 309.142 183.157 309.142C182.683 309.142 182.219 309.04 181.765 308.837C181.315 308.633 180.941 308.323 180.643 307.906C180.349 307.49 180.202 306.964 180.202 306.33V295.477Z" fill="white" fill-opacity="0.95"/>
</svg>
