<svg width="245" height="484" viewBox="0 0 245 484" fill="none" xmlns="http://www.w3.org/2000/svg">
<mask id="path-1-inside-1_2144_60819" fill="white">
<path d="M0 0H245V484H0V0Z"/>
</mask>
<path d="M0 0H245V484H0V0Z" fill="#1A1A1A"/>
<path d="M245 484V485H246V484H245ZM244 0V484H246V0H244ZM245 483H0V485H245V483Z" fill="#707070" mask="url(#path-1-inside-1_2144_60819)"/>
<path d="M36.25 249H31.7614V234.455H36.4489C37.8598 234.455 39.0672 234.746 40.071 235.328C41.0748 235.906 41.8442 236.737 42.3793 237.821C42.9143 238.901 43.1818 240.193 43.1818 241.699C43.1818 243.214 42.9119 244.518 42.3722 245.612C41.8324 246.701 41.0464 247.539 40.0142 248.126C38.982 248.709 37.7273 249 36.25 249ZM33.5227 247.438H36.1364C37.339 247.438 38.3357 247.205 39.1264 246.741C39.9171 246.277 40.5066 245.617 40.8949 244.76C41.2831 243.903 41.4773 242.883 41.4773 241.699C41.4773 240.525 41.2855 239.514 40.902 238.666C40.5185 237.814 39.9455 237.161 39.1832 236.706C38.4209 236.247 37.4716 236.017 36.3352 236.017H33.5227V247.438ZM45.9091 249V238.091H47.5852V249H45.9091ZM46.7614 236.273C46.4347 236.273 46.1529 236.161 45.9162 235.939C45.6842 235.716 45.5682 235.449 45.5682 235.136C45.5682 234.824 45.6842 234.556 45.9162 234.334C46.1529 234.111 46.4347 234 46.7614 234C47.0881 234 47.3674 234.111 47.5994 234.334C47.8362 234.556 47.9545 234.824 47.9545 235.136C47.9545 235.449 47.8362 235.716 47.5994 235.939C47.3674 236.161 47.0881 236.273 46.7614 236.273ZM58.3825 240.534L56.8768 240.96C56.7821 240.709 56.6424 240.465 56.4577 240.229C56.2778 239.987 56.0316 239.788 55.7191 239.632C55.4066 239.476 55.0065 239.398 54.5188 239.398C53.8512 239.398 53.2949 239.552 52.8498 239.859C52.4094 240.162 52.1893 240.548 52.1893 241.017C52.1893 241.434 52.3408 241.763 52.6438 242.004C52.9469 242.246 53.4203 242.447 54.0643 242.608L55.6836 243.006C56.659 243.242 57.3858 243.605 57.864 244.092C58.3422 244.575 58.5813 245.198 58.5813 245.96C58.5813 246.585 58.4014 247.144 58.0415 247.636C57.6864 248.129 57.1893 248.517 56.5501 248.801C55.9109 249.085 55.1675 249.227 54.32 249.227C53.2073 249.227 52.2863 248.986 51.5572 248.503C50.828 248.02 50.3664 247.314 50.1722 246.386L51.7631 245.989C51.9147 246.576 52.2011 247.016 52.6225 247.31C53.0487 247.603 53.605 247.75 54.2915 247.75C55.0728 247.75 55.6931 247.584 56.1523 247.253C56.6164 246.917 56.8484 246.514 56.8484 246.045C56.8484 245.667 56.7158 245.349 56.4506 245.094C56.1855 244.833 55.7783 244.639 55.229 244.511L53.4109 244.085C52.4118 243.848 51.6779 243.482 51.2092 242.984C50.7451 242.482 50.5131 241.855 50.5131 241.102C50.5131 240.487 50.686 239.942 51.0316 239.469C51.382 238.995 51.8578 238.624 52.4592 238.354C53.0652 238.084 53.7518 237.949 54.5188 237.949C55.5984 237.949 56.4459 238.186 57.0614 238.659C57.6817 239.133 58.122 239.758 58.3825 240.534ZM64.3146 249.256C63.6233 249.256 62.996 249.125 62.4325 248.865C61.8691 248.6 61.4216 248.219 61.0902 247.722C60.7588 247.22 60.593 246.614 60.593 245.903C60.593 245.278 60.7161 244.772 60.9624 244.384C61.2086 243.991 61.5376 243.683 61.9496 243.46C62.3615 243.238 62.8161 243.072 63.3132 242.963C63.8151 242.849 64.3194 242.759 64.826 242.693C65.4889 242.608 66.0263 242.544 66.4382 242.501C66.8549 242.454 67.1579 242.376 67.3473 242.267C67.5414 242.158 67.6385 241.969 67.6385 241.699V241.642C67.6385 240.941 67.4467 240.397 67.0632 240.009C66.6844 239.62 66.1091 239.426 65.3374 239.426C64.5372 239.426 63.9098 239.601 63.4553 239.952C63.0007 240.302 62.6811 240.676 62.4964 241.074L60.9055 240.506C61.1896 239.843 61.5684 239.327 62.0419 238.957C62.5201 238.583 63.041 238.323 63.6044 238.176C64.1726 238.025 64.7313 237.949 65.2805 237.949C65.6309 237.949 66.0334 237.991 66.4879 238.077C66.9472 238.157 67.3899 238.325 67.8161 238.581C68.2469 238.837 68.6044 239.223 68.8885 239.739C69.1726 240.255 69.3146 240.946 69.3146 241.812V249H67.6385V247.523H67.5533C67.4396 247.759 67.2502 248.013 66.9851 248.283C66.7199 248.553 66.3672 248.782 65.9268 248.972C65.4865 249.161 64.9491 249.256 64.3146 249.256ZM64.5703 247.75C65.2332 247.75 65.7919 247.62 66.2464 247.359C66.7057 247.099 67.0514 246.763 67.2834 246.351C67.5201 245.939 67.6385 245.506 67.6385 245.051V243.517C67.5675 243.602 67.4112 243.68 67.1697 243.751C66.933 243.818 66.6584 243.877 66.3459 243.929C66.0381 243.976 65.7375 244.019 65.4439 244.057C65.1551 244.09 64.9207 244.118 64.7408 244.142C64.3052 244.199 63.898 244.291 63.5192 244.419C63.1451 244.542 62.8421 244.729 62.6101 244.98C62.3828 245.226 62.2692 245.562 62.2692 245.989C62.2692 246.571 62.4846 247.011 62.9155 247.31C63.3511 247.603 63.9027 247.75 64.5703 247.75ZM72.6012 249V234.455H74.2773V239.824H74.4194C74.5425 239.634 74.7129 239.393 74.9308 239.099C75.1533 238.801 75.4705 238.536 75.8825 238.304C76.2991 238.067 76.8626 237.949 77.5728 237.949C78.4914 237.949 79.301 238.179 80.0018 238.638C80.7025 239.097 81.2494 239.748 81.6424 240.591C82.0354 241.434 82.2319 242.428 82.2319 243.574C82.2319 244.729 82.0354 245.731 81.6424 246.578C81.2494 247.421 80.7049 248.074 80.0089 248.538C79.3129 248.998 78.5103 249.227 77.6012 249.227C76.9004 249.227 76.3394 249.111 75.918 248.879C75.4966 248.643 75.1722 248.375 74.945 248.077C74.7177 247.774 74.5425 247.523 74.4194 247.324H74.2205V249H72.6012ZM74.2489 243.545C74.2489 244.369 74.3697 245.096 74.6112 245.726C74.8526 246.351 75.2054 246.841 75.6694 247.196C76.1334 247.546 76.7016 247.722 77.3739 247.722C78.0747 247.722 78.6594 247.537 79.1282 247.168C79.6017 246.794 79.9568 246.292 80.1935 245.662C80.435 245.027 80.5558 244.322 80.5558 243.545C80.5558 242.778 80.4374 242.087 80.2006 241.472C79.9686 240.851 79.6159 240.361 79.1424 240.001C78.6737 239.637 78.0842 239.455 77.3739 239.455C76.6921 239.455 76.1192 239.627 75.6552 239.973C75.1912 240.314 74.8408 240.792 74.604 241.408C74.3673 242.018 74.2489 242.731 74.2489 243.545ZM86.4719 234.455V249H84.7958V234.455H86.4719ZM94.1158 249.227C93.0646 249.227 92.1579 248.995 91.3956 248.531C90.638 248.062 90.0533 247.409 89.6413 246.571C89.2341 245.728 89.0305 244.748 89.0305 243.631C89.0305 242.513 89.2341 241.528 89.6413 240.676C90.0533 239.819 90.6262 239.152 91.3601 238.673C92.0987 238.19 92.9605 237.949 93.9453 237.949C94.5135 237.949 95.0746 238.044 95.6286 238.233C96.1825 238.422 96.6868 238.73 97.1413 239.156C97.5959 239.578 97.9581 240.136 98.228 240.832C98.4979 241.528 98.6328 242.385 98.6328 243.403V244.114H90.2237V242.665H96.9283C96.9283 242.049 96.8052 241.5 96.5589 241.017C96.3175 240.534 95.9718 240.153 95.522 239.874C95.0769 239.594 94.5514 239.455 93.9453 239.455C93.2777 239.455 92.7 239.62 92.2124 239.952C91.7294 240.278 91.3577 240.705 91.0973 241.23C90.8369 241.756 90.7067 242.319 90.7067 242.92V243.886C90.7067 244.71 90.8487 245.409 91.1328 245.982C91.4216 246.55 91.8217 246.983 92.3331 247.281C92.8445 247.575 93.4387 247.722 94.1158 247.722C94.5561 247.722 94.9538 247.66 95.3089 247.537C95.6688 247.409 95.9789 247.22 96.2393 246.969C96.4998 246.713 96.701 246.396 96.843 246.017L98.4624 246.472C98.2919 247.021 98.0054 247.504 97.603 247.92C97.2005 248.332 96.7034 248.654 96.1115 248.886C95.5196 249.114 94.8544 249.227 94.1158 249.227ZM105.302 249.227C104.393 249.227 103.59 248.998 102.894 248.538C102.198 248.074 101.654 247.421 101.261 246.578C100.868 245.731 100.671 244.729 100.671 243.574C100.671 242.428 100.868 241.434 101.261 240.591C101.654 239.748 102.201 239.097 102.901 238.638C103.602 238.179 104.412 237.949 105.33 237.949C106.04 237.949 106.602 238.067 107.013 238.304C107.43 238.536 107.747 238.801 107.965 239.099C108.188 239.393 108.361 239.634 108.484 239.824H108.626V234.455H110.302V249H108.683V247.324H108.484C108.361 247.523 108.185 247.774 107.958 248.077C107.731 248.375 107.406 248.643 106.985 248.879C106.564 249.111 106.003 249.227 105.302 249.227ZM105.529 247.722C106.201 247.722 106.77 247.546 107.234 247.196C107.698 246.841 108.05 246.351 108.292 245.726C108.533 245.096 108.654 244.369 108.654 243.545C108.654 242.731 108.536 242.018 108.299 241.408C108.062 240.792 107.712 240.314 107.248 239.973C106.784 239.627 106.211 239.455 105.529 239.455C104.819 239.455 104.227 239.637 103.754 240.001C103.285 240.361 102.932 240.851 102.695 241.472C102.463 242.087 102.347 242.778 102.347 243.545C102.347 244.322 102.466 245.027 102.702 245.662C102.944 246.292 103.299 246.794 103.768 247.168C104.241 247.537 104.828 247.722 105.529 247.722Z" fill="white" fill-opacity="0.95"/>
</svg>
