<svg width="244" height="214" viewBox="0 0 244 214" fill="none" xmlns="http://www.w3.org/2000/svg">
<mask id="path-1-inside-1_2144_60854" fill="white">
<path d="M0 0H244V214H0V0Z"/>
</mask>
<path d="M0 0H244V214H0V0Z" fill="#1A1A1A"/>
<path d="M244 214V215H245V214H244ZM243 0V214H245V0H243ZM244 213H0V215H244V213Z" fill="#707070" mask="url(#path-1-inside-1_2144_60854)"/>
<path d="M31.7614 114V99.4545H33.5227V105.932H41.2784V99.4545H43.0398V114H41.2784V107.494H33.5227V114H31.7614ZM50.9126 114.227C49.8615 114.227 48.9548 113.995 48.1925 113.531C47.4349 113.062 46.8501 112.409 46.4382 111.571C46.031 110.728 45.8274 109.748 45.8274 108.631C45.8274 107.513 46.031 106.528 46.4382 105.676C46.8501 104.819 47.4231 104.152 48.157 103.673C48.8956 103.19 49.7573 102.949 50.7422 102.949C51.3104 102.949 51.8714 103.044 52.4254 103.233C52.9794 103.422 53.4837 103.73 53.9382 104.156C54.3928 104.578 54.755 105.136 55.0249 105.832C55.2947 106.528 55.4297 107.385 55.4297 108.403V109.114H47.0206V107.665H53.7251C53.7251 107.049 53.602 106.5 53.3558 106.017C53.1143 105.534 52.7687 105.153 52.3189 104.874C51.8738 104.594 51.3482 104.455 50.7422 104.455C50.0746 104.455 49.4969 104.62 49.0092 104.952C48.5263 105.278 48.1546 105.705 47.8942 106.23C47.6338 106.756 47.5036 107.319 47.5036 107.92V108.886C47.5036 109.71 47.6456 110.409 47.9297 110.982C48.2185 111.55 48.6186 111.983 49.13 112.281C49.6413 112.575 50.2356 112.722 50.9126 112.722C51.353 112.722 51.7507 112.66 52.1058 112.537C52.4657 112.409 52.7758 112.22 53.0362 111.969C53.2966 111.713 53.4979 111.396 53.6399 111.017L55.2592 111.472C55.0888 112.021 54.8023 112.504 54.3999 112.92C53.9974 113.332 53.5002 113.654 52.9084 113.886C52.3165 114.114 51.6513 114.227 50.9126 114.227ZM59.6555 99.4545V114H57.9794V99.4545H59.6555ZM62.7255 118.091V103.091H64.3448V104.824H64.5437C64.6668 104.634 64.8372 104.393 65.055 104.099C65.2776 103.801 65.5948 103.536 66.0067 103.304C66.4234 103.067 66.9869 102.949 67.6971 102.949C68.6156 102.949 69.4253 103.179 70.1261 103.638C70.8268 104.097 71.3737 104.748 71.7667 105.591C72.1597 106.434 72.3562 107.428 72.3562 108.574C72.3562 109.729 72.1597 110.731 71.7667 111.578C71.3737 112.421 70.8292 113.074 70.1332 113.538C69.4371 113.998 68.6346 114.227 67.7255 114.227C67.0247 114.227 66.4637 114.111 66.0423 113.879C65.6209 113.643 65.2965 113.375 65.0692 113.077C64.842 112.774 64.6668 112.523 64.5437 112.324H64.4016V118.091H62.7255ZM64.3732 108.545C64.3732 109.369 64.494 110.096 64.7354 110.726C64.9769 111.351 65.3297 111.841 65.7937 112.196C66.2577 112.546 66.8259 112.722 67.4982 112.722C68.199 112.722 68.7837 112.537 69.2525 112.168C69.726 111.794 70.0811 111.292 70.3178 110.662C70.5593 110.027 70.68 109.322 70.68 108.545C70.68 107.778 70.5617 107.087 70.3249 106.472C70.0929 105.851 69.7402 105.361 69.2667 105.001C68.7979 104.637 68.2085 104.455 67.4982 104.455C66.8164 104.455 66.2435 104.627 65.7795 104.973C65.3155 105.314 64.9651 105.792 64.7283 106.408C64.4916 107.018 64.3732 107.731 64.3732 108.545ZM79.4869 114.227C78.4357 114.227 77.529 113.995 76.7667 113.531C76.0091 113.062 75.4244 112.409 75.0124 111.571C74.6052 110.728 74.4016 109.748 74.4016 108.631C74.4016 107.513 74.6052 106.528 75.0124 105.676C75.4244 104.819 75.9973 104.152 76.7312 103.673C77.4698 103.19 78.3316 102.949 79.3164 102.949C79.8846 102.949 80.4457 103.044 80.9996 103.233C81.5536 103.422 82.0579 103.73 82.5124 104.156C82.967 104.578 83.3292 105.136 83.5991 105.832C83.869 106.528 84.0039 107.385 84.0039 108.403V109.114H75.5948V107.665H82.2994C82.2994 107.049 82.1763 106.5 81.93 106.017C81.6886 105.534 81.3429 105.153 80.8931 104.874C80.448 104.594 79.9225 104.455 79.3164 104.455C78.6488 104.455 78.0711 104.62 77.5835 104.952C77.1005 105.278 76.7288 105.705 76.4684 106.23C76.208 106.756 76.0778 107.319 76.0778 107.92V108.886C76.0778 109.71 76.2198 110.409 76.5039 110.982C76.7927 111.55 77.1928 111.983 77.7042 112.281C78.2156 112.575 78.8098 112.722 79.4869 112.722C79.9272 112.722 80.3249 112.66 80.68 112.537C81.0399 112.409 81.35 112.22 81.6104 111.969C81.8709 111.713 82.0721 111.396 82.2141 111.017L83.8335 111.472C83.663 112.021 83.3765 112.504 82.9741 112.92C82.5716 113.332 82.0745 113.654 81.4826 113.886C80.8907 114.114 80.2255 114.227 79.4869 114.227ZM86.5536 114V103.091H88.1729V104.739H88.2866C88.4854 104.199 88.8453 103.761 89.3661 103.425C89.887 103.089 90.4741 102.92 91.1275 102.92C91.2506 102.92 91.4045 102.923 91.5891 102.928C91.7738 102.932 91.9135 102.939 92.0082 102.949V104.653C91.9513 104.639 91.8211 104.618 91.6175 104.589C91.4187 104.556 91.208 104.54 90.9854 104.54C90.4551 104.54 89.9817 104.651 89.565 104.874C89.1531 105.091 88.8263 105.394 88.5849 105.783C88.3481 106.166 88.2298 106.604 88.2298 107.097V114H86.5536ZM104.364 103.091V104.511H98.7109V103.091H104.364ZM100.359 100.477H102.035V110.875C102.035 111.348 102.103 111.704 102.241 111.94C102.383 112.172 102.563 112.329 102.781 112.409C103.003 112.485 103.237 112.523 103.484 112.523C103.668 112.523 103.82 112.513 103.938 112.494C104.057 112.471 104.151 112.452 104.222 112.438L104.563 113.943C104.45 113.986 104.291 114.028 104.087 114.071C103.884 114.118 103.626 114.142 103.313 114.142C102.84 114.142 102.376 114.04 101.921 113.837C101.471 113.633 101.097 113.323 100.799 112.906C100.505 112.49 100.359 111.964 100.359 111.33V100.477ZM111.342 114.227C110.291 114.227 109.384 113.995 108.622 113.531C107.865 113.062 107.28 112.409 106.868 111.571C106.461 110.728 106.257 109.748 106.257 108.631C106.257 107.513 106.461 106.528 106.868 105.676C107.28 104.819 107.853 104.152 108.587 103.673C109.325 103.19 110.187 102.949 111.172 102.949C111.74 102.949 112.301 103.044 112.855 103.233C113.409 103.422 113.913 103.73 114.368 104.156C114.822 104.578 115.185 105.136 115.455 105.832C115.724 106.528 115.859 107.385 115.859 108.403V109.114H107.45V107.665H114.155C114.155 107.049 114.032 106.5 113.786 106.017C113.544 105.534 113.198 105.153 112.749 104.874C112.304 104.594 111.778 104.455 111.172 104.455C110.504 104.455 109.927 104.62 109.439 104.952C108.956 105.278 108.584 105.705 108.324 106.23C108.063 106.756 107.933 107.319 107.933 107.92V108.886C107.933 109.71 108.075 110.409 108.359 110.982C108.648 111.55 109.048 111.983 109.56 112.281C110.071 112.575 110.665 112.722 111.342 112.722C111.783 112.722 112.18 112.66 112.536 112.537C112.895 112.409 113.205 112.22 113.466 111.969C113.726 111.713 113.928 111.396 114.07 111.017L115.689 111.472C115.518 112.021 115.232 112.504 114.83 112.92C114.427 113.332 113.93 113.654 113.338 113.886C112.746 114.114 112.081 114.227 111.342 114.227ZM119.366 103.091L121.98 107.551L124.593 103.091H126.525L123.002 108.545L126.525 114H124.593L121.98 109.767L119.366 114H117.434L120.9 108.545L117.434 103.091H119.366ZM133.661 103.091V104.511H128.008V103.091H133.661ZM129.656 100.477H131.332V110.875C131.332 111.348 131.4 111.704 131.538 111.94C131.68 112.172 131.86 112.329 132.077 112.409C132.3 112.485 132.534 112.523 132.781 112.523C132.965 112.523 133.117 112.513 133.235 112.494C133.353 112.471 133.448 112.452 133.519 112.438L133.86 113.943C133.746 113.986 133.588 114.028 133.384 114.071C133.181 114.118 132.923 114.142 132.61 114.142C132.137 114.142 131.673 114.04 131.218 113.837C130.768 113.633 130.394 113.323 130.096 112.906C129.802 112.49 129.656 111.964 129.656 111.33V100.477ZM138.683 112.011L138.569 112.778C138.488 113.318 138.365 113.896 138.2 114.511C138.039 115.127 137.871 115.707 137.695 116.251C137.52 116.796 137.376 117.229 137.262 117.551H135.984C136.045 117.248 136.126 116.848 136.225 116.351C136.325 115.854 136.424 115.297 136.523 114.682C136.628 114.071 136.713 113.446 136.779 112.807L136.864 112.011H138.683ZM152.129 114H147.64V99.4545H152.328C153.739 99.4545 154.946 99.7457 155.95 100.328C156.954 100.906 157.723 101.737 158.258 102.821C158.793 103.901 159.061 105.193 159.061 106.699C159.061 108.214 158.791 109.518 158.251 110.612C157.711 111.701 156.925 112.539 155.893 113.126C154.861 113.709 153.606 114 152.129 114ZM149.402 112.438H152.015C153.218 112.438 154.215 112.205 155.005 111.741C155.796 111.277 156.386 110.617 156.774 109.76C157.162 108.903 157.356 107.883 157.356 106.699C157.356 105.525 157.164 104.514 156.781 103.666C156.397 102.814 155.824 102.161 155.062 101.706C154.3 101.247 153.35 101.017 152.214 101.017H149.402V112.438ZM166.362 114.227C165.311 114.227 164.404 113.995 163.642 113.531C162.884 113.062 162.299 112.409 161.887 111.571C161.48 110.728 161.277 109.748 161.277 108.631C161.277 107.513 161.48 106.528 161.887 105.676C162.299 104.819 162.872 104.152 163.606 103.673C164.345 103.19 165.207 102.949 166.191 102.949C166.76 102.949 167.321 103.044 167.875 103.233C168.429 103.422 168.933 103.73 169.387 104.156C169.842 104.578 170.204 105.136 170.474 105.832C170.744 106.528 170.879 107.385 170.879 108.403V109.114H162.47V107.665H169.174C169.174 107.049 169.051 106.5 168.805 106.017C168.564 105.534 168.218 105.153 167.768 104.874C167.323 104.594 166.797 104.455 166.191 104.455C165.524 104.455 164.946 104.62 164.458 104.952C163.975 105.278 163.604 105.705 163.343 106.23C163.083 106.756 162.953 107.319 162.953 107.92V108.886C162.953 109.71 163.095 110.409 163.379 110.982C163.668 111.55 164.068 111.983 164.579 112.281C165.091 112.575 165.685 112.722 166.362 112.722C166.802 112.722 167.2 112.66 167.555 112.537C167.915 112.409 168.225 112.22 168.485 111.969C168.746 111.713 168.947 111.396 169.089 111.017L170.708 111.472C170.538 112.021 170.252 112.504 169.849 112.92C169.447 113.332 168.949 113.654 168.358 113.886C167.766 114.114 167.1 114.227 166.362 114.227ZM178.287 103.091V104.511H172.406V103.091H178.287ZM174.167 114V101.585C174.167 100.96 174.314 100.439 174.608 100.023C174.901 99.6061 175.282 99.2936 175.751 99.0852C176.22 98.8769 176.715 98.7727 177.235 98.7727C177.647 98.7727 177.984 98.8059 178.244 98.8722C178.504 98.9384 178.699 99 178.826 99.0568L178.343 100.506C178.258 100.477 178.14 100.442 177.988 100.399C177.842 100.357 177.647 100.335 177.406 100.335C176.852 100.335 176.452 100.475 176.206 100.754C175.964 101.034 175.843 101.443 175.843 101.983V114H174.167ZM183.533 114.256C182.842 114.256 182.215 114.125 181.651 113.865C181.088 113.6 180.64 113.219 180.309 112.722C179.978 112.22 179.812 111.614 179.812 110.903C179.812 110.278 179.935 109.772 180.181 109.384C180.427 108.991 180.756 108.683 181.168 108.46C181.58 108.238 182.035 108.072 182.532 107.963C183.034 107.849 183.538 107.759 184.045 107.693C184.708 107.608 185.245 107.544 185.657 107.501C186.074 107.454 186.377 107.376 186.566 107.267C186.76 107.158 186.857 106.969 186.857 106.699V106.642C186.857 105.941 186.665 105.397 186.282 105.009C185.903 104.62 185.328 104.426 184.556 104.426C183.756 104.426 183.129 104.601 182.674 104.952C182.219 105.302 181.9 105.676 181.715 106.074L180.124 105.506C180.408 104.843 180.787 104.327 181.261 103.957C181.739 103.583 182.26 103.323 182.823 103.176C183.391 103.025 183.95 102.949 184.499 102.949C184.85 102.949 185.252 102.991 185.707 103.077C186.166 103.157 186.609 103.325 187.035 103.581C187.466 103.837 187.823 104.223 188.107 104.739C188.391 105.255 188.533 105.946 188.533 106.812V114H186.857V112.523H186.772C186.658 112.759 186.469 113.013 186.204 113.283C185.939 113.553 185.586 113.782 185.146 113.972C184.705 114.161 184.168 114.256 183.533 114.256ZM183.789 112.75C184.452 112.75 185.011 112.62 185.465 112.359C185.924 112.099 186.27 111.763 186.502 111.351C186.739 110.939 186.857 110.506 186.857 110.051V108.517C186.786 108.602 186.63 108.68 186.388 108.751C186.152 108.818 185.877 108.877 185.565 108.929C185.257 108.976 184.956 109.019 184.663 109.057C184.374 109.09 184.139 109.118 183.96 109.142C183.524 109.199 183.117 109.291 182.738 109.419C182.364 109.542 182.061 109.729 181.829 109.98C181.602 110.226 181.488 110.562 181.488 110.989C181.488 111.571 181.703 112.011 182.134 112.31C182.57 112.603 183.121 112.75 183.789 112.75ZM198.468 109.54V103.091H200.144V114H198.468V112.153H198.354C198.098 112.707 197.701 113.179 197.161 113.567C196.621 113.95 195.939 114.142 195.115 114.142C194.434 114.142 193.828 113.993 193.297 113.695C192.767 113.392 192.35 112.937 192.047 112.331C191.744 111.72 191.593 110.951 191.593 110.023V103.091H193.269V109.909C193.269 110.705 193.491 111.339 193.936 111.812C194.386 112.286 194.959 112.523 195.655 112.523C196.072 112.523 196.496 112.416 196.926 112.203C197.362 111.99 197.727 111.663 198.02 111.223C198.319 110.783 198.468 110.222 198.468 109.54ZM204.89 99.4545V114H203.214V99.4545H204.89ZM212.704 103.091V104.511H207.051V103.091H212.704ZM208.699 100.477H210.375V110.875C210.375 111.348 210.443 111.704 210.581 111.94C210.723 112.172 210.903 112.329 211.12 112.409C211.343 112.485 211.577 112.523 211.824 112.523C212.008 112.523 212.16 112.513 212.278 112.494C212.396 112.471 212.491 112.452 212.562 112.438L212.903 113.943C212.789 113.986 212.631 114.028 212.427 114.071C212.224 114.118 211.966 114.142 211.653 114.142C211.18 114.142 210.716 114.04 210.261 113.837C209.811 113.633 209.437 113.323 209.139 112.906C208.845 112.49 208.699 111.964 208.699 111.33V100.477Z" fill="white" fill-opacity="0.95"/>
</svg>
