<svg width="244" height="338" viewBox="0 0 244 338" fill="none" xmlns="http://www.w3.org/2000/svg">
<mask id="path-1-inside-1_2144_60791" fill="white">
<path d="M0 0H244V338H0V0Z"/>
</mask>
<path d="M0 0H244V338H0V0Z" fill="#1A1A1A"/>
<path d="M244 338V339H245V338H244ZM243 0V338H245V0H243ZM244 337H0V339H244V337Z" fill="#707070" mask="url(#path-1-inside-1_2144_60791)"/>
<path d="M33.5227 161.455V176H31.7614V161.455H33.5227ZM38.5032 169.438V176H36.8271V165.091H38.4464V166.795H38.5884C38.8441 166.241 39.2324 165.796 39.7532 165.46C40.274 165.119 40.9464 164.949 41.7702 164.949C42.5089 164.949 43.1552 165.1 43.7092 165.403C44.2631 165.702 44.694 166.156 45.0018 166.767C45.3095 167.373 45.4634 168.14 45.4634 169.068V176H43.7873V169.182C43.7873 168.325 43.5647 167.657 43.1197 167.179C42.6746 166.696 42.0638 166.455 41.2873 166.455C40.7522 166.455 40.274 166.571 39.8526 166.803C39.436 167.035 39.1069 167.373 38.8654 167.818C38.6239 168.263 38.5032 168.803 38.5032 169.438ZM53.3842 165.091V166.511H47.5036V165.091H53.3842ZM49.2649 176V163.585C49.2649 162.96 49.4117 162.439 49.7053 162.023C49.9988 161.606 50.38 161.294 50.8487 161.085C51.3175 160.877 51.8123 160.773 52.3331 160.773C52.745 160.773 53.0812 160.806 53.3416 160.872C53.602 160.938 53.7962 161 53.924 161.057L53.4411 162.506C53.3558 162.477 53.2375 162.442 53.0859 162.399C52.9392 162.357 52.745 162.335 52.5036 162.335C51.9496 162.335 51.5495 162.475 51.3033 162.754C51.0618 163.034 50.9411 163.443 50.9411 163.983V176H49.2649ZM59.7159 176.227C58.7311 176.227 57.867 175.993 57.1236 175.524C56.3849 175.055 55.8073 174.4 55.3906 173.557C54.9787 172.714 54.7727 171.729 54.7727 170.602C54.7727 169.466 54.9787 168.474 55.3906 167.626C55.8073 166.779 56.3849 166.121 57.1236 165.652C57.867 165.183 58.7311 164.949 59.7159 164.949C60.7008 164.949 61.5625 165.183 62.3011 165.652C63.0445 166.121 63.6222 166.779 64.0341 167.626C64.4508 168.474 64.6591 169.466 64.6591 170.602C64.6591 171.729 64.4508 172.714 64.0341 173.557C63.6222 174.4 63.0445 175.055 62.3011 175.524C61.5625 175.993 60.7008 176.227 59.7159 176.227ZM59.7159 174.722C60.464 174.722 61.0795 174.53 61.5625 174.146C62.0455 173.763 62.4029 173.259 62.6349 172.634C62.867 172.009 62.983 171.331 62.983 170.602C62.983 169.873 62.867 169.194 62.6349 168.564C62.4029 167.934 62.0455 167.425 61.5625 167.037C61.0795 166.649 60.464 166.455 59.7159 166.455C58.9678 166.455 58.3523 166.649 57.8693 167.037C57.3864 167.425 57.0289 167.934 56.7969 168.564C56.5649 169.194 56.4489 169.873 56.4489 170.602C56.4489 171.331 56.5649 172.009 56.7969 172.634C57.0289 173.259 57.3864 173.763 57.8693 174.146C58.3523 174.53 58.9678 174.722 59.7159 174.722ZM73.07 176V161.455H74.7461V166.824H74.8881C75.0112 166.634 75.1817 166.393 75.3995 166.099C75.622 165.801 75.9393 165.536 76.3512 165.304C76.7679 165.067 77.3313 164.949 78.0415 164.949C78.9601 164.949 79.7698 165.179 80.4705 165.638C81.1713 166.097 81.7182 166.748 82.1112 167.591C82.5041 168.434 82.7006 169.428 82.7006 170.574C82.7006 171.729 82.5041 172.731 82.1112 173.578C81.7182 174.421 81.1737 175.074 80.4776 175.538C79.7816 175.998 78.979 176.227 78.07 176.227C77.3692 176.227 76.8081 176.111 76.3867 175.879C75.9653 175.643 75.641 175.375 75.4137 175.077C75.1864 174.774 75.0112 174.523 74.8881 174.324H74.6893V176H73.07ZM74.7177 170.545C74.7177 171.369 74.8384 172.096 75.0799 172.726C75.3214 173.351 75.6741 173.841 76.1381 174.196C76.6022 174.546 77.1703 174.722 77.8427 174.722C78.5434 174.722 79.1282 174.537 79.5969 174.168C80.0704 173.794 80.4255 173.292 80.6623 172.662C80.9038 172.027 81.0245 171.322 81.0245 170.545C81.0245 169.778 80.9061 169.087 80.6694 168.472C80.4374 167.851 80.0846 167.361 79.6112 167.001C79.1424 166.637 78.5529 166.455 77.8427 166.455C77.1609 166.455 76.5879 166.627 76.1239 166.973C75.6599 167.314 75.3095 167.792 75.0728 168.408C74.8361 169.018 74.7177 169.731 74.7177 170.545ZM92.1396 171.54V165.091H93.8157V176H92.1396V174.153H92.0259C91.7702 174.707 91.3725 175.179 90.8327 175.567C90.293 175.95 89.6112 176.142 88.7873 176.142C88.1055 176.142 87.4994 175.993 86.9691 175.695C86.4388 175.392 86.0221 174.937 85.7191 174.331C85.4161 173.72 85.2646 172.951 85.2646 172.023V165.091H86.9407V171.909C86.9407 172.705 87.1632 173.339 87.6083 173.812C88.0581 174.286 88.631 174.523 89.3271 174.523C89.7437 174.523 90.1675 174.416 90.5984 174.203C91.034 173.99 91.3986 173.663 91.6921 173.223C91.9904 172.783 92.1396 172.222 92.1396 171.54ZM101.63 165.091V166.511H95.9766V165.091H101.63ZM97.6243 162.477H99.3004V172.875C99.3004 173.348 99.3691 173.704 99.5064 173.94C99.6484 174.172 99.8284 174.329 100.046 174.409C100.269 174.485 100.503 174.523 100.749 174.523C100.934 174.523 101.085 174.513 101.204 174.494C101.322 174.471 101.417 174.452 101.488 174.438L101.829 175.943C101.715 175.986 101.557 176.028 101.353 176.071C101.149 176.118 100.891 176.142 100.579 176.142C100.105 176.142 99.6413 176.04 99.1868 175.837C98.737 175.633 98.3629 175.323 98.0646 174.906C97.7711 174.49 97.6243 173.964 97.6243 173.33V162.477ZM108.896 165.091V166.511H103.242V165.091H108.896ZM104.89 162.477H106.566V172.875C106.566 173.348 106.635 173.704 106.772 173.94C106.914 174.172 107.094 174.329 107.312 174.409C107.534 174.485 107.769 174.523 108.015 174.523C108.2 174.523 108.351 174.513 108.469 174.494C108.588 174.471 108.683 174.452 108.754 174.438L109.094 175.943C108.981 175.986 108.822 176.028 108.619 176.071C108.415 176.118 108.157 176.142 107.844 176.142C107.371 176.142 106.907 176.04 106.452 175.837C106.003 175.633 105.629 175.323 105.33 174.906C105.037 174.49 104.89 173.964 104.89 173.33V162.477ZM115.732 176.227C114.747 176.227 113.883 175.993 113.139 175.524C112.401 175.055 111.823 174.4 111.406 173.557C110.994 172.714 110.788 171.729 110.788 170.602C110.788 169.466 110.994 168.474 111.406 167.626C111.823 166.779 112.401 166.121 113.139 165.652C113.883 165.183 114.747 164.949 115.732 164.949C116.716 164.949 117.578 165.183 118.317 165.652C119.06 166.121 119.638 166.779 120.05 167.626C120.466 168.474 120.675 169.466 120.675 170.602C120.675 171.729 120.466 172.714 120.05 173.557C119.638 174.4 119.06 175.055 118.317 175.524C117.578 175.993 116.716 176.227 115.732 176.227ZM115.732 174.722C116.48 174.722 117.095 174.53 117.578 174.146C118.061 173.763 118.419 173.259 118.651 172.634C118.883 172.009 118.999 171.331 118.999 170.602C118.999 169.873 118.883 169.194 118.651 168.564C118.419 167.934 118.061 167.425 117.578 167.037C117.095 166.649 116.48 166.455 115.732 166.455C114.983 166.455 114.368 166.649 113.885 167.037C113.402 167.425 113.045 167.934 112.812 168.564C112.58 169.194 112.464 169.873 112.464 170.602C112.464 171.331 112.58 172.009 112.812 172.634C113.045 173.259 113.402 173.763 113.885 174.146C114.368 174.53 114.983 174.722 115.732 174.722ZM124.909 169.438V176H123.233V165.091H124.853V166.795H124.995C125.25 166.241 125.639 165.796 126.159 165.46C126.68 165.119 127.353 164.949 128.176 164.949C128.915 164.949 129.561 165.1 130.115 165.403C130.669 165.702 131.1 166.156 131.408 166.767C131.716 167.373 131.87 168.14 131.87 169.068V176H130.194V169.182C130.194 168.325 129.971 167.657 129.526 167.179C129.081 166.696 128.47 166.455 127.694 166.455C127.158 166.455 126.68 166.571 126.259 166.803C125.842 167.035 125.513 167.373 125.272 167.818C125.03 168.263 124.909 168.803 124.909 169.438ZM143.342 169.636L143.455 166.511L140.813 168.188L140.131 166.994L142.915 165.545L140.131 164.097L140.813 162.903L143.455 164.58L143.342 161.455H144.705L144.592 164.58L147.234 162.903L147.915 164.097L145.131 165.545L147.915 166.994L147.234 168.188L144.592 166.511L144.705 169.636H143.342Z" fill="white" fill-opacity="0.95"/>
</svg>
