<svg width="320" height="788" viewBox="0 0 320 788" fill="none" xmlns="http://www.w3.org/2000/svg">
<mask id="path-1-inside-1_2144_60797" fill="white">
<path d="M0 0H320V788H0V0Z"/>
</mask>
<path d="M0 0H320V788H0V0Z" fill="#1A1A1A"/>
<path d="M320 788V789H321V788H320ZM319 0V788H321V0H319ZM320 787H0V789H320V787Z" fill="white" fill-opacity="0.2" mask="url(#path-1-inside-1_2144_60797)"/>
<path d="M40 400.75C43.7279 400.75 46.75 397.728 46.75 394C46.75 390.272 43.7279 387.25 40 387.25C36.2721 387.25 33.25 390.272 33.25 394C33.25 397.728 36.2721 400.75 40 400.75ZM38.2857 389.714C38.2857 388.925 38.9253 388.286 39.7143 388.286C40.5033 388.286 41.1429 388.925 41.1429 389.714C41.1429 390.503 40.5033 391.143 39.7143 391.143C38.9253 391.143 38.2857 390.503 38.2857 389.714ZM38.8571 394C38.226 394 37.7143 393.488 37.7143 392.857C37.7143 392.226 38.226 391.714 38.8571 391.714H40C40.6312 391.714 41.1429 392.226 41.1429 392.857V396.857H42.2857C42.9169 396.857 43.4286 397.369 43.4286 398C43.4286 398.631 42.9169 399.143 42.2857 399.143H37.7143C37.0831 399.143 36.5714 398.631 36.5714 398C36.5714 397.369 37.0831 396.857 37.7143 396.857H38.8571V394Z" fill="white" fill-opacity="0.2"/>
</svg>
