<svg width="220" height="604" viewBox="0 0 220 604" fill="none" xmlns="http://www.w3.org/2000/svg">
<mask id="path-1-inside-1_2144_61003" fill="white">
<path d="M0 0H220V604H0V0Z"/>
</mask>
<path d="M0 0H220V604H0V0Z" fill="#1A1A1A"/>
<path d="M220 604V605H221V604H220ZM219 0V604H221V0H219ZM220 603H0V605H220V603Z" fill="#707070" mask="url(#path-1-inside-1_2144_61003)"/>
<path d="M31.7614 309V294.455H33.5227V300.932H41.2784V294.455H43.0398V309H41.2784V302.494H33.5227V309H31.7614ZM51.2251 309.199C50.2876 309.199 49.4519 309.038 48.718 308.716C47.9889 308.394 47.4089 307.946 46.978 307.374C46.5518 306.796 46.3198 306.126 46.282 305.364H48.0717C48.1096 305.832 48.2706 306.237 48.5547 306.578C48.8388 306.914 49.2105 307.175 49.6697 307.359C50.129 307.544 50.638 307.636 51.1967 307.636C51.8217 307.636 52.3757 307.527 52.8587 307.31C53.3416 307.092 53.7204 306.789 53.995 306.401C54.2696 306.012 54.407 305.562 54.407 305.051C54.407 304.516 54.2744 304.045 54.0092 303.638C53.7441 303.226 53.3558 302.904 52.8445 302.672C52.3331 302.44 51.7081 302.324 50.9695 302.324H49.8047V300.761H50.9695C51.5471 300.761 52.0537 300.657 52.4893 300.449C52.9297 300.241 53.273 299.947 53.5192 299.568C53.7701 299.189 53.8956 298.744 53.8956 298.233C53.8956 297.741 53.7867 297.312 53.5689 296.947C53.3511 296.583 53.0433 296.299 52.6456 296.095C52.2526 295.892 51.7886 295.79 51.2536 295.79C50.7517 295.79 50.2782 295.882 49.8331 296.067C49.3928 296.247 49.0329 296.509 48.7536 296.855C48.4742 297.196 48.3227 297.608 48.299 298.091H46.5945C46.6229 297.329 46.8525 296.661 47.2834 296.088C47.7143 295.51 48.2777 295.061 48.9737 294.739C49.6745 294.417 50.4439 294.256 51.282 294.256C52.1816 294.256 52.9534 294.438 53.5973 294.803C54.2412 295.162 54.736 295.638 55.0817 296.23C55.4273 296.822 55.6001 297.461 55.6001 298.148C55.6001 298.967 55.3847 299.665 54.9538 300.243C54.5277 300.821 53.9477 301.221 53.2138 301.443V301.557C54.1323 301.708 54.8497 302.099 55.3658 302.729C55.8819 303.354 56.1399 304.128 56.1399 305.051C56.1399 305.842 55.9245 306.552 55.4936 307.182C55.0675 307.807 54.4851 308.299 53.7464 308.659C53.0078 309.019 52.1674 309.199 51.2251 309.199ZM59.0447 309V307.722L63.8459 302.466C64.4093 301.85 64.8733 301.315 65.2379 300.861C65.6025 300.402 65.8724 299.971 66.0476 299.568C66.2275 299.161 66.3175 298.735 66.3175 298.29C66.3175 297.778 66.1944 297.336 65.9482 296.962C65.7067 296.588 65.3752 296.299 64.9538 296.095C64.5324 295.892 64.0589 295.79 63.5334 295.79C62.9747 295.79 62.487 295.906 62.0703 296.138C61.6584 296.365 61.3388 296.685 61.1115 297.097C60.889 297.509 60.7777 297.991 60.7777 298.545H59.1016C59.1016 297.693 59.2981 296.945 59.6911 296.301C60.084 295.657 60.6191 295.155 61.2962 294.795C61.978 294.436 62.7427 294.256 63.5902 294.256C64.4425 294.256 65.1977 294.436 65.8558 294.795C66.514 295.155 67.0301 295.641 67.4041 296.251C67.7782 296.862 67.9652 297.542 67.9652 298.29C67.9652 298.825 67.8681 299.348 67.674 299.859C67.4846 300.366 67.1532 300.932 66.6797 301.557C66.2109 302.177 65.5599 302.935 64.7266 303.83L61.4595 307.324V307.438H68.2209V309H59.0447ZM71.1825 313.091V298.091H72.8018V299.824H73.0007C73.1238 299.634 73.2943 299.393 73.5121 299.099C73.7346 298.801 74.0518 298.536 74.4638 298.304C74.8804 298.067 75.4439 297.949 76.1541 297.949C77.0727 297.949 77.8823 298.179 78.5831 298.638C79.2839 299.097 79.8307 299.748 80.2237 300.591C80.6167 301.434 80.8132 302.428 80.8132 303.574C80.8132 304.729 80.6167 305.731 80.2237 306.578C79.8307 307.421 79.2862 308.074 78.5902 308.538C77.8942 308.998 77.0916 309.227 76.1825 309.227C75.4818 309.227 74.9207 309.111 74.4993 308.879C74.0779 308.643 73.7536 308.375 73.5263 308.077C73.299 307.774 73.1238 307.523 73.0007 307.324H72.8587V313.091H71.1825ZM72.8303 303.545C72.8303 304.369 72.951 305.096 73.1925 305.726C73.4339 306.351 73.7867 306.841 74.2507 307.196C74.7147 307.546 75.2829 307.722 75.9553 307.722C76.656 307.722 77.2408 307.537 77.7095 307.168C78.183 306.794 78.5381 306.292 78.7749 305.662C79.0163 305.027 79.1371 304.322 79.1371 303.545C79.1371 302.778 79.0187 302.087 78.782 301.472C78.55 300.851 78.1972 300.361 77.7237 300.001C77.255 299.637 76.6655 299.455 75.9553 299.455C75.2734 299.455 74.7005 299.627 74.2365 299.973C73.7725 300.314 73.4221 300.792 73.1854 301.408C72.9486 302.018 72.8303 302.731 72.8303 303.545ZM84.1708 298.091L86.7844 302.551L89.3981 298.091H91.3299L87.8072 303.545L91.3299 309H89.3981L86.7844 304.767L84.1708 309H82.239L85.7049 303.545L82.239 298.091H84.1708Z" fill="white" fill-opacity="0.95"/>
</svg>
