<svg width="244" height="604" viewBox="0 0 244 604" fill="none" xmlns="http://www.w3.org/2000/svg">
<mask id="path-1-inside-1_2144_60854" fill="white">
<path d="M0 0H244V604H0V0Z"/>
</mask>
<path d="M0 0H244V604H0V0Z" fill="#1A1A1A"/>
<path d="M244 604V605H245V604H244ZM243 0V604H245V0H243ZM244 603H0V605H244V603Z" fill="#707070" mask="url(#path-1-inside-1_2144_60854)"/>
<path d="M31.7614 309V294.455H33.5227V300.932H41.2784V294.455H43.0398V309H41.2784V302.494H33.5227V309H31.7614ZM50.9126 309.227C49.8615 309.227 48.9548 308.995 48.1925 308.531C47.4349 308.062 46.8501 307.409 46.4382 306.571C46.031 305.728 45.8274 304.748 45.8274 303.631C45.8274 302.513 46.031 301.528 46.4382 300.676C46.8501 299.819 47.4231 299.152 48.157 298.673C48.8956 298.19 49.7573 297.949 50.7422 297.949C51.3104 297.949 51.8714 298.044 52.4254 298.233C52.9794 298.422 53.4837 298.73 53.9382 299.156C54.3928 299.578 54.755 300.136 55.0249 300.832C55.2947 301.528 55.4297 302.385 55.4297 303.403V304.114H47.0206V302.665H53.7251C53.7251 302.049 53.602 301.5 53.3558 301.017C53.1143 300.534 52.7687 300.153 52.3189 299.874C51.8738 299.594 51.3482 299.455 50.7422 299.455C50.0746 299.455 49.4969 299.62 49.0092 299.952C48.5263 300.278 48.1546 300.705 47.8942 301.23C47.6338 301.756 47.5036 302.319 47.5036 302.92V303.886C47.5036 304.71 47.6456 305.409 47.9297 305.982C48.2185 306.55 48.6186 306.983 49.13 307.281C49.6413 307.575 50.2356 307.722 50.9126 307.722C51.353 307.722 51.7507 307.66 52.1058 307.537C52.4657 307.409 52.7758 307.22 53.0362 306.969C53.2966 306.713 53.4979 306.396 53.6399 306.017L55.2592 306.472C55.0888 307.021 54.8023 307.504 54.3999 307.92C53.9974 308.332 53.5002 308.654 52.9084 308.886C52.3165 309.114 51.6513 309.227 50.9126 309.227ZM59.6555 294.455V309H57.9794V294.455H59.6555ZM62.7255 313.091V298.091H64.3448V299.824H64.5437C64.6668 299.634 64.8372 299.393 65.055 299.099C65.2776 298.801 65.5948 298.536 66.0067 298.304C66.4234 298.067 66.9869 297.949 67.6971 297.949C68.6156 297.949 69.4253 298.179 70.1261 298.638C70.8268 299.097 71.3737 299.748 71.7667 300.591C72.1597 301.434 72.3562 302.428 72.3562 303.574C72.3562 304.729 72.1597 305.731 71.7667 306.578C71.3737 307.421 70.8292 308.074 70.1332 308.538C69.4371 308.998 68.6346 309.227 67.7255 309.227C67.0247 309.227 66.4637 309.111 66.0423 308.879C65.6209 308.643 65.2965 308.375 65.0692 308.077C64.842 307.774 64.6668 307.523 64.5437 307.324H64.4016V313.091H62.7255ZM64.3732 303.545C64.3732 304.369 64.494 305.096 64.7354 305.726C64.9769 306.351 65.3297 306.841 65.7937 307.196C66.2577 307.546 66.8259 307.722 67.4982 307.722C68.199 307.722 68.7837 307.537 69.2525 307.168C69.726 306.794 70.0811 306.292 70.3178 305.662C70.5593 305.027 70.68 304.322 70.68 303.545C70.68 302.778 70.5617 302.087 70.3249 301.472C70.0929 300.851 69.7402 300.361 69.2667 300.001C68.7979 299.637 68.2085 299.455 67.4982 299.455C66.8164 299.455 66.2435 299.627 65.7795 299.973C65.3155 300.314 64.9651 300.792 64.7283 301.408C64.4916 302.018 64.3732 302.731 64.3732 303.545ZM79.4869 309.227C78.4357 309.227 77.529 308.995 76.7667 308.531C76.0091 308.062 75.4244 307.409 75.0124 306.571C74.6052 305.728 74.4016 304.748 74.4016 303.631C74.4016 302.513 74.6052 301.528 75.0124 300.676C75.4244 299.819 75.9973 299.152 76.7312 298.673C77.4698 298.19 78.3316 297.949 79.3164 297.949C79.8846 297.949 80.4457 298.044 80.9996 298.233C81.5536 298.422 82.0579 298.73 82.5124 299.156C82.967 299.578 83.3292 300.136 83.5991 300.832C83.869 301.528 84.0039 302.385 84.0039 303.403V304.114H75.5948V302.665H82.2994C82.2994 302.049 82.1763 301.5 81.93 301.017C81.6886 300.534 81.3429 300.153 80.8931 299.874C80.448 299.594 79.9225 299.455 79.3164 299.455C78.6488 299.455 78.0711 299.62 77.5835 299.952C77.1005 300.278 76.7288 300.705 76.4684 301.23C76.208 301.756 76.0778 302.319 76.0778 302.92V303.886C76.0778 304.71 76.2198 305.409 76.5039 305.982C76.7927 306.55 77.1928 306.983 77.7042 307.281C78.2156 307.575 78.8098 307.722 79.4869 307.722C79.9272 307.722 80.3249 307.66 80.68 307.537C81.0399 307.409 81.35 307.22 81.6104 306.969C81.8709 306.713 82.0721 306.396 82.2141 306.017L83.8335 306.472C83.663 307.021 83.3765 307.504 82.9741 307.92C82.5716 308.332 82.0745 308.654 81.4826 308.886C80.8907 309.114 80.2255 309.227 79.4869 309.227ZM86.5536 309V298.091H88.1729V299.739H88.2866C88.4854 299.199 88.8453 298.761 89.3661 298.425C89.887 298.089 90.4741 297.92 91.1275 297.92C91.2506 297.92 91.4045 297.923 91.5891 297.928C91.7738 297.932 91.9135 297.939 92.0082 297.949V299.653C91.9513 299.639 91.8211 299.618 91.6175 299.589C91.4187 299.556 91.208 299.54 90.9854 299.54C90.4551 299.54 89.9817 299.651 89.565 299.874C89.1531 300.091 88.8263 300.394 88.5849 300.783C88.3481 301.166 88.2298 301.604 88.2298 302.097V309H86.5536ZM104.364 298.091V299.511H98.7109V298.091H104.364ZM100.359 295.477H102.035V305.875C102.035 306.348 102.103 306.704 102.241 306.94C102.383 307.172 102.563 307.329 102.781 307.409C103.003 307.485 103.237 307.523 103.484 307.523C103.668 307.523 103.82 307.513 103.938 307.494C104.057 307.471 104.151 307.452 104.222 307.438L104.563 308.943C104.45 308.986 104.291 309.028 104.087 309.071C103.884 309.118 103.626 309.142 103.313 309.142C102.84 309.142 102.376 309.04 101.921 308.837C101.471 308.633 101.097 308.323 100.799 307.906C100.505 307.49 100.359 306.964 100.359 306.33V295.477ZM111.342 309.227C110.291 309.227 109.384 308.995 108.622 308.531C107.865 308.062 107.28 307.409 106.868 306.571C106.461 305.728 106.257 304.748 106.257 303.631C106.257 302.513 106.461 301.528 106.868 300.676C107.28 299.819 107.853 299.152 108.587 298.673C109.325 298.19 110.187 297.949 111.172 297.949C111.74 297.949 112.301 298.044 112.855 298.233C113.409 298.422 113.913 298.73 114.368 299.156C114.822 299.578 115.185 300.136 115.455 300.832C115.724 301.528 115.859 302.385 115.859 303.403V304.114H107.45V302.665H114.155C114.155 302.049 114.032 301.5 113.786 301.017C113.544 300.534 113.198 300.153 112.749 299.874C112.304 299.594 111.778 299.455 111.172 299.455C110.504 299.455 109.927 299.62 109.439 299.952C108.956 300.278 108.584 300.705 108.324 301.23C108.063 301.756 107.933 302.319 107.933 302.92V303.886C107.933 304.71 108.075 305.409 108.359 305.982C108.648 306.55 109.048 306.983 109.56 307.281C110.071 307.575 110.665 307.722 111.342 307.722C111.783 307.722 112.18 307.66 112.536 307.537C112.895 307.409 113.205 307.22 113.466 306.969C113.726 306.713 113.928 306.396 114.07 306.017L115.689 306.472C115.518 307.021 115.232 307.504 114.83 307.92C114.427 308.332 113.93 308.654 113.338 308.886C112.746 309.114 112.081 309.227 111.342 309.227ZM119.366 298.091L121.98 302.551L124.593 298.091H126.525L123.002 303.545L126.525 309H124.593L121.98 304.767L119.366 309H117.434L120.9 303.545L117.434 298.091H119.366ZM133.661 298.091V299.511H128.008V298.091H133.661ZM129.656 295.477H131.332V305.875C131.332 306.348 131.4 306.704 131.538 306.94C131.68 307.172 131.86 307.329 132.077 307.409C132.3 307.485 132.534 307.523 132.781 307.523C132.965 307.523 133.117 307.513 133.235 307.494C133.353 307.471 133.448 307.452 133.519 307.438L133.86 308.943C133.746 308.986 133.588 309.028 133.384 309.071C133.181 309.118 132.923 309.142 132.61 309.142C132.137 309.142 131.673 309.04 131.218 308.837C130.768 308.633 130.394 308.323 130.096 307.906C129.802 307.49 129.656 306.964 129.656 306.33V295.477ZM138.683 307.011L138.569 307.778C138.488 308.318 138.365 308.896 138.2 309.511C138.039 310.127 137.871 310.707 137.695 311.251C137.52 311.796 137.376 312.229 137.262 312.551H135.984C136.045 312.248 136.126 311.848 136.225 311.351C136.325 310.854 136.424 310.297 136.523 309.682C136.628 309.071 136.713 308.446 136.779 307.807L136.864 307.011H138.683ZM152.129 309H147.64V294.455H152.328C153.739 294.455 154.946 294.746 155.95 295.328C156.954 295.906 157.723 296.737 158.258 297.821C158.793 298.901 159.061 300.193 159.061 301.699C159.061 303.214 158.791 304.518 158.251 305.612C157.711 306.701 156.925 307.539 155.893 308.126C154.861 308.709 153.606 309 152.129 309ZM149.402 307.438H152.015C153.218 307.438 154.215 307.205 155.005 306.741C155.796 306.277 156.386 305.617 156.774 304.76C157.162 303.903 157.356 302.883 157.356 301.699C157.356 300.525 157.164 299.514 156.781 298.666C156.397 297.814 155.824 297.161 155.062 296.706C154.3 296.247 153.35 296.017 152.214 296.017H149.402V307.438ZM166.362 309.227C165.311 309.227 164.404 308.995 163.642 308.531C162.884 308.062 162.299 307.409 161.887 306.571C161.48 305.728 161.277 304.748 161.277 303.631C161.277 302.513 161.48 301.528 161.887 300.676C162.299 299.819 162.872 299.152 163.606 298.673C164.345 298.19 165.207 297.949 166.191 297.949C166.76 297.949 167.321 298.044 167.875 298.233C168.429 298.422 168.933 298.73 169.387 299.156C169.842 299.578 170.204 300.136 170.474 300.832C170.744 301.528 170.879 302.385 170.879 303.403V304.114H162.47V302.665H169.174C169.174 302.049 169.051 301.5 168.805 301.017C168.564 300.534 168.218 300.153 167.768 299.874C167.323 299.594 166.797 299.455 166.191 299.455C165.524 299.455 164.946 299.62 164.458 299.952C163.975 300.278 163.604 300.705 163.343 301.23C163.083 301.756 162.953 302.319 162.953 302.92V303.886C162.953 304.71 163.095 305.409 163.379 305.982C163.668 306.55 164.068 306.983 164.579 307.281C165.091 307.575 165.685 307.722 166.362 307.722C166.802 307.722 167.2 307.66 167.555 307.537C167.915 307.409 168.225 307.22 168.485 306.969C168.746 306.713 168.947 306.396 169.089 306.017L170.708 306.472C170.538 307.021 170.252 307.504 169.849 307.92C169.447 308.332 168.949 308.654 168.358 308.886C167.766 309.114 167.1 309.227 166.362 309.227ZM178.287 298.091V299.511H172.406V298.091H178.287ZM174.167 309V296.585C174.167 295.96 174.314 295.439 174.608 295.023C174.901 294.606 175.282 294.294 175.751 294.085C176.22 293.877 176.715 293.773 177.235 293.773C177.647 293.773 177.984 293.806 178.244 293.872C178.504 293.938 178.699 294 178.826 294.057L178.343 295.506C178.258 295.477 178.14 295.442 177.988 295.399C177.842 295.357 177.647 295.335 177.406 295.335C176.852 295.335 176.452 295.475 176.206 295.754C175.964 296.034 175.843 296.443 175.843 296.983V309H174.167ZM183.533 309.256C182.842 309.256 182.215 309.125 181.651 308.865C181.088 308.6 180.64 308.219 180.309 307.722C179.978 307.22 179.812 306.614 179.812 305.903C179.812 305.278 179.935 304.772 180.181 304.384C180.427 303.991 180.756 303.683 181.168 303.46C181.58 303.238 182.035 303.072 182.532 302.963C183.034 302.849 183.538 302.759 184.045 302.693C184.708 302.608 185.245 302.544 185.657 302.501C186.074 302.454 186.377 302.376 186.566 302.267C186.76 302.158 186.857 301.969 186.857 301.699V301.642C186.857 300.941 186.665 300.397 186.282 300.009C185.903 299.62 185.328 299.426 184.556 299.426C183.756 299.426 183.129 299.601 182.674 299.952C182.219 300.302 181.9 300.676 181.715 301.074L180.124 300.506C180.408 299.843 180.787 299.327 181.261 298.957C181.739 298.583 182.26 298.323 182.823 298.176C183.391 298.025 183.95 297.949 184.499 297.949C184.85 297.949 185.252 297.991 185.707 298.077C186.166 298.157 186.609 298.325 187.035 298.581C187.466 298.837 187.823 299.223 188.107 299.739C188.391 300.255 188.533 300.946 188.533 301.812V309H186.857V307.523H186.772C186.658 307.759 186.469 308.013 186.204 308.283C185.939 308.553 185.586 308.782 185.146 308.972C184.705 309.161 184.168 309.256 183.533 309.256ZM183.789 307.75C184.452 307.75 185.011 307.62 185.465 307.359C185.924 307.099 186.27 306.763 186.502 306.351C186.739 305.939 186.857 305.506 186.857 305.051V303.517C186.786 303.602 186.63 303.68 186.388 303.751C186.152 303.818 185.877 303.877 185.565 303.929C185.257 303.976 184.956 304.019 184.663 304.057C184.374 304.09 184.139 304.118 183.96 304.142C183.524 304.199 183.117 304.291 182.738 304.419C182.364 304.542 182.061 304.729 181.829 304.98C181.602 305.226 181.488 305.562 181.488 305.989C181.488 306.571 181.703 307.011 182.134 307.31C182.57 307.603 183.121 307.75 183.789 307.75ZM198.468 304.54V298.091H200.144V309H198.468V307.153H198.354C198.098 307.707 197.701 308.179 197.161 308.567C196.621 308.95 195.939 309.142 195.115 309.142C194.434 309.142 193.828 308.993 193.297 308.695C192.767 308.392 192.35 307.937 192.047 307.331C191.744 306.72 191.593 305.951 191.593 305.023V298.091H193.269V304.909C193.269 305.705 193.491 306.339 193.936 306.812C194.386 307.286 194.959 307.523 195.655 307.523C196.072 307.523 196.496 307.416 196.926 307.203C197.362 306.99 197.727 306.663 198.02 306.223C198.319 305.783 198.468 305.222 198.468 304.54ZM204.89 294.455V309H203.214V294.455H204.89ZM212.704 298.091V299.511H207.051V298.091H212.704ZM208.699 295.477H210.375V305.875C210.375 306.348 210.443 306.704 210.581 306.94C210.723 307.172 210.903 307.329 211.12 307.409C211.343 307.485 211.577 307.523 211.824 307.523C212.008 307.523 212.16 307.513 212.278 307.494C212.396 307.471 212.491 307.452 212.562 307.438L212.903 308.943C212.789 308.986 212.631 309.028 212.427 309.071C212.224 309.118 211.966 309.142 211.653 309.142C211.18 309.142 210.716 309.04 210.261 308.837C209.811 308.633 209.437 308.323 209.139 307.906C208.845 307.49 208.699 306.964 208.699 306.33V295.477Z" fill="white" fill-opacity="0.95"/>
</svg>
