<svg width="245" height="214" viewBox="0 0 245 214" fill="none" xmlns="http://www.w3.org/2000/svg">
<mask id="path-1-inside-1_2144_61011" fill="white">
<path d="M0 0H245V214H0V0Z"/>
</mask>
<path d="M0 0H245V214H0V0Z" fill="#1A1A1A"/>
<path d="M245 214V215H246V214H245ZM244 0V214H246V0H244ZM245 213H0V215H245V213Z" fill="#707070" mask="url(#path-1-inside-1_2144_61011)"/>
<path d="M34.4034 114L30.4261 99.4545H32.2159L35.2557 111.301H35.3977L38.4943 99.4545H40.483L43.5795 111.301H43.7216L46.7614 99.4545H48.5511L44.5739 114H42.7557L39.5455 102.409H39.4318L36.2216 114H34.4034ZM52.7131 114.256C52.0218 114.256 51.3944 114.125 50.831 113.865C50.2675 113.6 49.8201 113.219 49.4886 112.722C49.1572 112.22 48.9915 111.614 48.9915 110.903C48.9915 110.278 49.1146 109.772 49.3608 109.384C49.607 108.991 49.9361 108.683 50.348 108.46C50.7599 108.238 51.2145 108.072 51.7116 107.963C52.2135 107.849 52.7178 107.759 53.2244 107.693C53.8873 107.608 54.4247 107.544 54.8366 107.501C55.2533 107.454 55.5563 107.376 55.7457 107.267C55.9399 107.158 56.0369 106.969 56.0369 106.699V106.642C56.0369 105.941 55.8452 105.397 55.4616 105.009C55.0829 104.62 54.5076 104.426 53.7358 104.426C52.9356 104.426 52.3082 104.601 51.8537 104.952C51.3991 105.302 51.0795 105.676 50.8949 106.074L49.304 105.506C49.5881 104.843 49.9669 104.327 50.4403 103.957C50.9186 103.583 51.4394 103.323 52.0028 103.176C52.571 103.025 53.1297 102.949 53.679 102.949C54.0294 102.949 54.4318 102.991 54.8864 103.077C55.3456 103.157 55.7884 103.325 56.2145 103.581C56.6454 103.837 57.0028 104.223 57.2869 104.739C57.571 105.255 57.7131 105.946 57.7131 106.812V114H56.0369V112.523H55.9517C55.8381 112.759 55.6487 113.013 55.3835 113.283C55.1184 113.553 54.7656 113.782 54.3253 113.972C53.8849 114.161 53.3475 114.256 52.7131 114.256ZM52.9688 112.75C53.6316 112.75 54.1903 112.62 54.6449 112.359C55.1042 112.099 55.4498 111.763 55.6818 111.351C55.9186 110.939 56.0369 110.506 56.0369 110.051V108.517C55.9659 108.602 55.8097 108.68 55.5682 108.751C55.3314 108.818 55.0568 108.877 54.7443 108.929C54.4366 108.976 54.1359 109.019 53.8423 109.057C53.5535 109.09 53.3191 109.118 53.1392 109.142C52.7036 109.199 52.2964 109.291 51.9176 109.419C51.5436 109.542 51.2405 109.729 51.0085 109.98C50.7813 110.226 50.6676 110.562 50.6676 110.989C50.6676 111.571 50.883 112.011 51.3139 112.31C51.7495 112.603 52.3011 112.75 52.9688 112.75ZM60.7724 114V103.091H62.3917V104.739H62.5053C62.7042 104.199 63.064 103.761 63.5849 103.425C64.1057 103.089 64.6928 102.92 65.3462 102.92C65.4693 102.92 65.6232 102.923 65.8079 102.928C65.9925 102.932 66.1322 102.939 66.2269 102.949V104.653C66.1701 104.639 66.0399 104.618 65.8363 104.589C65.6374 104.556 65.4267 104.54 65.2042 104.54C64.6739 104.54 64.2004 104.651 63.7837 104.874C63.3718 105.091 63.0451 105.394 62.8036 105.783C62.5669 106.166 62.4485 106.604 62.4485 107.097V114H60.7724ZM69.8899 107.438V114H68.2138V103.091H69.8331V104.795H69.9751C70.2308 104.241 70.6191 103.796 71.1399 103.46C71.6607 103.119 72.3331 102.949 73.157 102.949C73.8956 102.949 74.5419 103.1 75.0959 103.403C75.6499 103.702 76.0807 104.156 76.3885 104.767C76.6963 105.373 76.8501 106.14 76.8501 107.068V114H75.174V107.182C75.174 106.325 74.9515 105.657 74.5064 105.179C74.0613 104.696 73.4505 104.455 72.674 104.455C72.139 104.455 71.6607 104.571 71.2393 104.803C70.8227 105.035 70.4936 105.373 70.2521 105.818C70.0107 106.263 69.8899 106.803 69.8899 107.438ZM79.913 114V103.091H81.5891V114H79.913ZM80.7653 101.273C80.4386 101.273 80.1568 101.161 79.9201 100.939C79.6881 100.716 79.5721 100.449 79.5721 100.136C79.5721 99.8239 79.6881 99.5563 79.9201 99.3338C80.1568 99.1113 80.4386 99 80.7653 99C81.092 99 81.3713 99.1113 81.6033 99.3338C81.8401 99.5563 81.9585 99.8239 81.9585 100.136C81.9585 100.449 81.8401 100.716 81.6033 100.939C81.3713 101.161 81.092 101.273 80.7653 101.273ZM86.3352 107.438V114H84.6591V103.091H86.2784V104.795H86.4205C86.6761 104.241 87.0644 103.796 87.5852 103.46C88.1061 103.119 88.7784 102.949 89.6023 102.949C90.3409 102.949 90.9872 103.1 91.5412 103.403C92.0952 103.702 92.526 104.156 92.8338 104.767C93.1416 105.373 93.2955 106.14 93.2955 107.068V114H91.6193V107.182C91.6193 106.325 91.3968 105.657 90.9517 105.179C90.5066 104.696 89.8958 104.455 89.1193 104.455C88.5843 104.455 88.1061 104.571 87.6847 104.803C87.268 105.035 86.9389 105.373 86.6974 105.818C86.456 106.263 86.3352 106.803 86.3352 107.438ZM100.762 118.318C99.9521 118.318 99.256 118.214 98.6737 118.006C98.0913 117.802 97.6059 117.532 97.2177 117.196C96.8342 116.865 96.5288 116.509 96.3015 116.131L97.6367 115.193C97.7882 115.392 97.98 115.619 98.212 115.875C98.444 116.135 98.7612 116.36 99.1637 116.55C99.5709 116.744 100.104 116.841 100.762 116.841C101.642 116.841 102.369 116.628 102.942 116.202C103.515 115.776 103.801 115.108 103.801 114.199V111.983H103.659C103.536 112.182 103.361 112.428 103.134 112.722C102.911 113.01 102.589 113.268 102.168 113.496C101.751 113.718 101.188 113.83 100.478 113.83C99.5969 113.83 98.8062 113.621 98.1055 113.205C97.4094 112.788 96.8578 112.182 96.4506 111.386C96.0482 110.591 95.8469 109.625 95.8469 108.489C95.8469 107.371 96.0434 106.398 96.4364 105.57C96.8294 104.736 97.3763 104.092 98.0771 103.638C98.7778 103.179 99.5875 102.949 100.506 102.949C101.216 102.949 101.78 103.067 102.196 103.304C102.618 103.536 102.94 103.801 103.162 104.099C103.39 104.393 103.565 104.634 103.688 104.824H103.858V103.091H105.478V114.312C105.478 115.25 105.265 116.012 104.838 116.599C104.417 117.191 103.849 117.625 103.134 117.899C102.424 118.179 101.633 118.318 100.762 118.318ZM100.705 112.324C101.377 112.324 101.945 112.17 102.409 111.862C102.873 111.554 103.226 111.112 103.468 110.534C103.709 109.956 103.83 109.265 103.83 108.46C103.83 107.674 103.712 106.981 103.475 106.379C103.238 105.778 102.888 105.307 102.424 104.966C101.96 104.625 101.387 104.455 100.705 104.455C99.9947 104.455 99.4028 104.634 98.9293 104.994C98.4606 105.354 98.1078 105.837 97.8711 106.443C97.6391 107.049 97.5231 107.722 97.5231 108.46C97.5231 109.218 97.6415 109.888 97.8782 110.47C98.1197 111.048 98.4748 111.502 98.9435 111.834C99.417 112.161 100.004 112.324 100.705 112.324Z" fill="white" fill-opacity="0.95"/>
</svg>
