<svg width="245" height="604" viewBox="0 0 245 604" fill="none" xmlns="http://www.w3.org/2000/svg">
<mask id="path-1-inside-1_2144_60891" fill="white">
<path d="M0 0H245V604H0V0Z"/>
</mask>
<path d="M0 0H245V604H0V0Z" fill="#1A1A1A"/>
<path d="M244 0V604H246V0H244Z" fill="#707070" mask="url(#path-1-inside-1_2144_60891)"/>
<path d="M36.25 309H31.7614V294.455H36.4489C37.8598 294.455 39.0672 294.746 40.071 295.328C41.0748 295.906 41.8442 296.737 42.3793 297.821C42.9143 298.901 43.1818 300.193 43.1818 301.699C43.1818 303.214 42.9119 304.518 42.3722 305.612C41.8324 306.701 41.0464 307.539 40.0142 308.126C38.982 308.709 37.7273 309 36.25 309ZM33.5227 307.438H36.1364C37.339 307.438 38.3357 307.205 39.1264 306.741C39.9171 306.277 40.5066 305.617 40.8949 304.76C41.2831 303.903 41.4773 302.883 41.4773 301.699C41.4773 300.525 41.2855 299.514 40.902 298.666C40.5185 297.814 39.9455 297.161 39.1832 296.706C38.4209 296.247 37.4716 296.017 36.3352 296.017H33.5227V307.438ZM50.483 309.227C49.4318 309.227 48.5251 308.995 47.7628 308.531C47.0052 308.062 46.4205 307.409 46.0085 306.571C45.6013 305.728 45.3977 304.748 45.3977 303.631C45.3977 302.513 45.6013 301.528 46.0085 300.676C46.4205 299.819 46.9934 299.152 47.7273 298.673C48.4659 298.19 49.3277 297.949 50.3125 297.949C50.8807 297.949 51.4418 298.044 51.9957 298.233C52.5497 298.422 53.054 298.73 53.5085 299.156C53.9631 299.578 54.3253 300.136 54.5952 300.832C54.8651 301.528 55 302.385 55 303.403V304.114H46.5909V302.665H53.2955C53.2955 302.049 53.1723 301.5 52.9261 301.017C52.6847 300.534 52.339 300.153 51.8892 299.874C51.4441 299.594 50.9186 299.455 50.3125 299.455C49.6449 299.455 49.0672 299.62 48.5795 299.952C48.0966 300.278 47.7249 300.705 47.4645 301.23C47.2041 301.756 47.0739 302.319 47.0739 302.92V303.886C47.0739 304.71 47.2159 305.409 47.5 305.982C47.7888 306.55 48.1889 306.983 48.7003 307.281C49.2116 307.575 49.8059 307.722 50.483 307.722C50.9233 307.722 51.321 307.66 51.6761 307.537C52.036 307.409 52.3461 307.22 52.6065 306.969C52.867 306.713 53.0682 306.396 53.2102 306.017L54.8295 306.472C54.6591 307.021 54.3726 307.504 53.9702 307.92C53.5677 308.332 53.0705 308.654 52.4787 308.886C51.8868 309.114 51.2216 309.227 50.483 309.227ZM62.4077 298.091V299.511H56.527V298.091H62.4077ZM58.2884 309V296.585C58.2884 295.96 58.4351 295.439 58.7287 295.023C59.0223 294.606 59.4034 294.294 59.8722 294.085C60.3409 293.877 60.8357 293.773 61.3565 293.773C61.7685 293.773 62.1046 293.806 62.3651 293.872C62.6255 293.938 62.8196 294 62.9474 294.057L62.4645 295.506C62.3793 295.477 62.2609 295.442 62.1094 295.399C61.9626 295.357 61.7685 295.335 61.527 295.335C60.973 295.335 60.5729 295.475 60.3267 295.754C60.0852 296.034 59.9645 296.443 59.9645 296.983V309H58.2884ZM67.6545 309.256C66.9632 309.256 66.3358 309.125 65.7724 308.865C65.2089 308.6 64.7615 308.219 64.43 307.722C64.0986 307.22 63.9329 306.614 63.9329 305.903C63.9329 305.278 64.056 304.772 64.3022 304.384C64.5484 303.991 64.8775 303.683 65.2894 303.46C65.7013 303.238 66.1559 303.072 66.6531 302.963C67.1549 302.849 67.6592 302.759 68.1658 302.693C68.8287 302.608 69.3661 302.544 69.7781 302.501C70.1947 302.454 70.4978 302.376 70.6871 302.267C70.8813 302.158 70.9783 301.969 70.9783 301.699V301.642C70.9783 300.941 70.7866 300.397 70.4031 300.009C70.0243 299.62 69.449 299.426 68.6772 299.426C67.877 299.426 67.2496 299.601 66.7951 299.952C66.3406 300.302 66.021 300.676 65.8363 301.074L64.2454 300.506C64.5295 299.843 64.9083 299.327 65.3817 298.957C65.86 298.583 66.3808 298.323 66.9442 298.176C67.5124 298.025 68.0711 297.949 68.6204 297.949C68.9708 297.949 69.3732 297.991 69.8278 298.077C70.2871 298.157 70.7298 298.325 71.1559 298.581C71.5868 298.837 71.9442 299.223 72.2283 299.739C72.5124 300.255 72.6545 300.946 72.6545 301.812V309H70.9783V307.523H70.8931C70.7795 307.759 70.5901 308.013 70.3249 308.283C70.0598 308.553 69.707 308.782 69.2667 308.972C68.8263 309.161 68.2889 309.256 67.6545 309.256ZM67.9102 307.75C68.573 307.75 69.1317 307.62 69.5863 307.359C70.0456 307.099 70.3912 306.763 70.6232 306.351C70.86 305.939 70.9783 305.506 70.9783 305.051V303.517C70.9073 303.602 70.7511 303.68 70.5096 303.751C70.2728 303.818 69.9982 303.877 69.6857 303.929C69.378 303.976 69.0773 304.019 68.7837 304.057C68.4949 304.09 68.2605 304.118 68.0806 304.142C67.645 304.199 67.2378 304.291 66.859 304.419C66.485 304.542 66.1819 304.729 65.9499 304.98C65.7227 305.226 65.609 305.562 65.609 305.989C65.609 306.571 65.8245 307.011 66.2553 307.31C66.6909 307.603 67.2425 307.75 67.9102 307.75ZM82.5888 304.54V298.091H84.2649V309H82.5888V307.153H82.4751C82.2195 307.707 81.8217 308.179 81.282 308.567C80.7422 308.95 80.0604 309.142 79.2365 309.142C78.5547 309.142 77.9486 308.993 77.4183 308.695C76.888 308.392 76.4714 307.937 76.1683 307.331C75.8653 306.72 75.7138 305.951 75.7138 305.023V298.091H77.3899V304.909C77.3899 305.705 77.6125 306.339 78.0575 306.812C78.5073 307.286 79.0803 307.523 79.7763 307.523C80.1929 307.523 80.6167 307.416 81.0476 307.203C81.4832 306.99 81.8478 306.663 82.1413 306.223C82.4396 305.783 82.5888 305.222 82.5888 304.54ZM89.011 294.455V309H87.3349V294.455H89.011ZM96.8253 298.091V299.511H91.1719V298.091H96.8253ZM92.8196 295.477H94.4957V305.875C94.4957 306.348 94.5644 306.704 94.7017 306.94C94.8438 307.172 95.0237 307.329 95.2415 307.409C95.464 307.485 95.6984 307.523 95.9446 307.523C96.1293 307.523 96.2808 307.513 96.3991 307.494C96.5175 307.471 96.6122 307.452 96.6832 307.438L97.0241 308.943C96.9105 308.986 96.7519 309.028 96.5483 309.071C96.3447 309.118 96.0866 309.142 95.7741 309.142C95.3007 309.142 94.8366 309.04 94.3821 308.837C93.9323 308.633 93.5582 308.323 93.2599 307.906C92.9664 307.49 92.8196 306.964 92.8196 306.33V295.477Z" fill="white" fill-opacity="0.95"/>
</svg>
