<svg width="320" height="338" viewBox="0 0 320 338" fill="none" xmlns="http://www.w3.org/2000/svg">
<mask id="path-1-inside-1_2144_60788" fill="white">
<path d="M0 0H320V338H0V0Z"/>
</mask>
<path d="M0 0H320V338H0V0Z" fill="#1A1A1A"/>
<path d="M320 338V339H321V338H320ZM319 0V338H321V0H319ZM320 337H0V339H320V337Z" fill="white" fill-opacity="0.2" mask="url(#path-1-inside-1_2144_60788)"/>
<path d="M40 175.75C43.7279 175.75 46.75 172.728 46.75 169C46.75 165.272 43.7279 162.25 40 162.25C36.2721 162.25 33.25 165.272 33.25 169C33.25 172.728 36.2721 175.75 40 175.75ZM38.2857 164.714C38.2857 163.925 38.9253 163.286 39.7143 163.286C40.5033 163.286 41.1429 163.925 41.1429 164.714C41.1429 165.503 40.5033 166.143 39.7143 166.143C38.9253 166.143 38.2857 165.503 38.2857 164.714ZM38.8571 169C38.226 169 37.7143 168.488 37.7143 167.857C37.7143 167.226 38.226 166.714 38.8571 166.714H40C40.6312 166.714 41.1429 167.226 41.1429 167.857V171.857H42.2857C42.9169 171.857 43.4286 172.369 43.4286 173C43.4286 173.631 42.9169 174.143 42.2857 174.143H37.7143C37.0831 174.143 36.5714 173.631 36.5714 173C36.5714 172.369 37.0831 171.857 37.7143 171.857H38.8571V169Z" fill="white" fill-opacity="0.95"/>
</svg>
