<svg width="244" height="394" viewBox="0 0 244 394" fill="none" xmlns="http://www.w3.org/2000/svg">
<mask id="path-1-inside-1_2144_60836" fill="white">
<path d="M0 0H244V394H0V0Z"/>
</mask>
<path d="M0 0H244V394H0V0Z" fill="#1A1A1A"/>
<path d="M244 394V395H245V394H244ZM243 0V394H245V0H243ZM244 393H0V395H244V393Z" fill="#707070" mask="url(#path-1-inside-1_2144_60836)"/>
<path d="M36.25 189H31.7614V174.455H36.4489C37.8598 174.455 39.0672 174.746 40.071 175.328C41.0748 175.906 41.8442 176.737 42.3793 177.821C42.9143 178.901 43.1818 180.193 43.1818 181.699C43.1818 183.214 42.9119 184.518 42.3722 185.612C41.8324 186.701 41.0464 187.539 40.0142 188.126C38.982 188.709 37.7273 189 36.25 189ZM33.5227 187.438H36.1364C37.339 187.438 38.3357 187.205 39.1264 186.741C39.9171 186.277 40.5066 185.617 40.8949 184.76C41.2831 183.903 41.4773 182.883 41.4773 181.699C41.4773 180.525 41.2855 179.514 40.902 178.666C40.5185 177.814 39.9455 177.161 39.1832 176.706C38.4209 176.247 37.4716 176.017 36.3352 176.017H33.5227V187.438ZM45.9091 189V178.091H47.5284V179.739H47.642C47.8409 179.199 48.2008 178.761 48.7216 178.425C49.2424 178.089 49.8295 177.92 50.483 177.92C50.6061 177.92 50.7599 177.923 50.9446 177.928C51.1293 177.932 51.2689 177.939 51.3636 177.949V179.653C51.3068 179.639 51.1766 179.618 50.973 179.589C50.7741 179.556 50.5634 179.54 50.3409 179.54C49.8106 179.54 49.3371 179.651 48.9205 179.874C48.5085 180.091 48.1818 180.394 47.9403 180.783C47.7036 181.166 47.5852 181.604 47.5852 182.097V189H45.9091ZM57.4503 189.227C56.4654 189.227 55.6013 188.993 54.858 188.524C54.1193 188.055 53.5417 187.4 53.125 186.557C52.7131 185.714 52.5071 184.729 52.5071 183.602C52.5071 182.466 52.7131 181.474 53.125 180.626C53.5417 179.779 54.1193 179.121 54.858 178.652C55.6013 178.183 56.4654 177.949 57.4503 177.949C58.4351 177.949 59.2969 178.183 60.0355 178.652C60.7789 179.121 61.3565 179.779 61.7685 180.626C62.1851 181.474 62.3935 182.466 62.3935 183.602C62.3935 184.729 62.1851 185.714 61.7685 186.557C61.3565 187.4 60.7789 188.055 60.0355 188.524C59.2969 188.993 58.4351 189.227 57.4503 189.227ZM57.4503 187.722C58.1984 187.722 58.8139 187.53 59.2969 187.146C59.7798 186.763 60.1373 186.259 60.3693 185.634C60.6013 185.009 60.7173 184.331 60.7173 183.602C60.7173 182.873 60.6013 182.194 60.3693 181.564C60.1373 180.934 59.7798 180.425 59.2969 180.037C58.8139 179.649 58.1984 179.455 57.4503 179.455C56.7022 179.455 56.0866 179.649 55.6037 180.037C55.1207 180.425 54.7633 180.934 54.5312 181.564C54.2992 182.194 54.1832 182.873 54.1832 183.602C54.1832 184.331 54.2992 185.009 54.5312 185.634C54.7633 186.259 55.1207 186.763 55.6037 187.146C56.0866 187.53 56.7022 187.722 57.4503 187.722ZM64.9521 193.091V178.091H66.5714V179.824H66.7702C66.8933 179.634 67.0638 179.393 67.2816 179.099C67.5041 178.801 67.8214 178.536 68.2333 178.304C68.65 178.067 69.2134 177.949 69.9237 177.949C70.8422 177.949 71.6519 178.179 72.3526 178.638C73.0534 179.097 73.6003 179.748 73.9933 180.591C74.3862 181.434 74.5827 182.428 74.5827 183.574C74.5827 184.729 74.3862 185.731 73.9933 186.578C73.6003 187.421 73.0558 188.074 72.3597 188.538C71.6637 188.998 70.8612 189.227 69.9521 189.227C69.2513 189.227 68.6902 189.111 68.2688 188.879C67.8474 188.643 67.5231 188.375 67.2958 188.077C67.0685 187.774 66.8933 187.523 66.7702 187.324H66.6282V193.091H64.9521ZM66.5998 183.545C66.5998 184.369 66.7205 185.096 66.962 185.726C67.2035 186.351 67.5562 186.841 68.0202 187.196C68.4843 187.546 69.0524 187.722 69.7248 187.722C70.4255 187.722 71.0103 187.537 71.479 187.168C71.9525 186.794 72.3076 186.292 72.5444 185.662C72.7859 185.027 72.9066 184.322 72.9066 183.545C72.9066 182.778 72.7882 182.087 72.5515 181.472C72.3195 180.851 71.9667 180.361 71.4933 180.001C71.0245 179.637 70.435 179.455 69.7248 179.455C69.043 179.455 68.4701 179.627 68.006 179.973C67.542 180.314 67.1916 180.792 66.9549 181.408C66.7182 182.018 66.5998 182.731 66.5998 183.545ZM81.2589 189.227C80.3498 189.227 79.5472 188.998 78.8512 188.538C78.1552 188.074 77.6107 187.421 77.2177 186.578C76.8247 185.731 76.6282 184.729 76.6282 183.574C76.6282 182.428 76.8247 181.434 77.2177 180.591C77.6107 179.748 78.1576 179.097 78.8583 178.638C79.5591 178.179 80.3687 177.949 81.2873 177.949C81.9975 177.949 82.5586 178.067 82.9705 178.304C83.3872 178.536 83.7044 178.801 83.9222 179.099C84.1448 179.393 84.3176 179.634 84.4407 179.824H84.5827V174.455H86.2589V189H84.6396V187.324H84.4407C84.3176 187.523 84.1424 187.774 83.9151 188.077C83.6879 188.375 83.3635 188.643 82.9421 188.879C82.5207 189.111 81.9596 189.227 81.2589 189.227ZM81.4862 187.722C82.1585 187.722 82.7267 187.546 83.1907 187.196C83.6547 186.841 84.0075 186.351 84.2489 185.726C84.4904 185.096 84.6112 184.369 84.6112 183.545C84.6112 182.731 84.4928 182.018 84.256 181.408C84.0193 180.792 83.6689 180.314 83.2049 179.973C82.7409 179.627 82.168 179.455 81.4862 179.455C80.7759 179.455 80.1841 179.637 79.7106 180.001C79.2418 180.361 78.8891 180.851 78.6523 181.472C78.4203 182.087 78.3043 182.778 78.3043 183.545C78.3043 184.322 78.4227 185.027 78.6594 185.662C78.9009 186.292 79.256 186.794 79.7248 187.168C80.1983 187.537 80.7854 187.722 81.4862 187.722ZM93.9933 189.227C93.0084 189.227 92.1443 188.993 91.4009 188.524C90.6623 188.055 90.0846 187.4 89.668 186.557C89.256 185.714 89.0501 184.729 89.0501 183.602C89.0501 182.466 89.256 181.474 89.668 180.626C90.0846 179.779 90.6623 179.121 91.4009 178.652C92.1443 178.183 93.0084 177.949 93.9933 177.949C94.9781 177.949 95.8398 178.183 96.5785 178.652C97.3219 179.121 97.8995 179.779 98.3114 180.626C98.7281 181.474 98.9364 182.466 98.9364 183.602C98.9364 184.729 98.7281 185.714 98.3114 186.557C97.8995 187.4 97.3219 188.055 96.5785 188.524C95.8398 188.993 94.9781 189.227 93.9933 189.227ZM93.9933 187.722C94.7414 187.722 95.3569 187.53 95.8398 187.146C96.3228 186.763 96.6803 186.259 96.9123 185.634C97.1443 185.009 97.2603 184.331 97.2603 183.602C97.2603 182.873 97.1443 182.194 96.9123 181.564C96.6803 180.934 96.3228 180.425 95.8398 180.037C95.3569 179.649 94.7414 179.455 93.9933 179.455C93.2451 179.455 92.6296 179.649 92.1467 180.037C91.6637 180.425 91.3062 180.934 91.0742 181.564C90.8422 182.194 90.7262 182.873 90.7262 183.602C90.7262 184.331 90.8422 185.009 91.0742 185.634C91.3062 186.259 91.6637 186.763 92.1467 187.146C92.6296 187.53 93.2451 187.722 93.9933 187.722ZM103.596 189L100.272 178.091H102.033L104.391 186.443H104.505L106.834 178.091H108.624L110.925 186.415H111.039L113.397 178.091H115.158L111.834 189H110.186L107.8 180.619H107.63L105.243 189H103.596ZM119.05 182.438V189H117.374V178.091H118.993V179.795H119.135C119.391 179.241 119.779 178.796 120.3 178.46C120.821 178.119 121.493 177.949 122.317 177.949C123.056 177.949 123.702 178.1 124.256 178.403C124.81 178.702 125.241 179.156 125.549 179.767C125.856 180.373 126.01 181.14 126.01 182.068V189H124.334V182.182C124.334 181.325 124.112 180.657 123.667 180.179C123.221 179.696 122.611 179.455 121.834 179.455C121.299 179.455 120.821 179.571 120.4 179.803C119.983 180.035 119.654 180.373 119.412 180.818C119.171 181.263 119.05 181.803 119.05 182.438ZM31.5341 219V208.091H33.2102V219H31.5341ZM32.3864 206.273C32.0597 206.273 31.7779 206.161 31.5412 205.939C31.3092 205.716 31.1932 205.449 31.1932 205.136C31.1932 204.824 31.3092 204.556 31.5412 204.334C31.7779 204.111 32.0597 204 32.3864 204C32.7131 204 32.9924 204.111 33.2244 204.334C33.4612 204.556 33.5795 204.824 33.5795 205.136C33.5795 205.449 33.4612 205.716 33.2244 205.939C32.9924 206.161 32.7131 206.273 32.3864 206.273ZM37.9563 212.438V219H36.2802V208.091H37.8995V209.795H38.0415C38.2972 209.241 38.6855 208.796 39.2063 208.46C39.7272 208.119 40.3995 207.949 41.2234 207.949C41.962 207.949 42.6083 208.1 43.1623 208.403C43.7163 208.702 44.1471 209.156 44.4549 209.767C44.7627 210.373 44.9165 211.14 44.9165 212.068V219H43.2404V212.182C43.2404 211.325 43.0179 210.657 42.5728 210.179C42.1277 209.696 41.5169 209.455 40.7404 209.455C40.2054 209.455 39.7272 209.571 39.3058 209.803C38.8891 210.035 38.56 210.373 38.3185 210.818C38.0771 211.263 37.9563 211.803 37.9563 212.438ZM52.0987 219.227C51.1896 219.227 50.3871 218.998 49.6911 218.538C48.995 218.074 48.4505 217.421 48.0575 216.578C47.6645 215.731 47.468 214.729 47.468 213.574C47.468 212.428 47.6645 211.434 48.0575 210.591C48.4505 209.748 48.9974 209.097 49.6982 208.638C50.3989 208.179 51.2086 207.949 52.1271 207.949C52.8374 207.949 53.3984 208.067 53.8104 208.304C54.227 208.536 54.5443 208.801 54.7621 209.099C54.9846 209.393 55.1574 209.634 55.2805 209.824H55.4226V204.455H57.0987V219H55.4794V217.324H55.2805C55.1574 217.523 54.9822 217.774 54.755 218.077C54.5277 218.375 54.2034 218.643 53.782 218.879C53.3606 219.111 52.7995 219.227 52.0987 219.227ZM52.326 217.722C52.9983 217.722 53.5665 217.546 54.0305 217.196C54.4946 216.841 54.8473 216.351 55.0888 215.726C55.3303 215.096 55.451 214.369 55.451 213.545C55.451 212.731 55.3326 212.018 55.0959 211.408C54.8591 210.792 54.5088 210.314 54.0447 209.973C53.5807 209.627 53.0078 209.455 52.326 209.455C51.6158 209.455 51.0239 209.637 50.5504 210.001C50.0817 210.361 49.7289 210.851 49.4922 211.472C49.2602 212.087 49.1442 212.778 49.1442 213.545C49.1442 214.322 49.2625 215.027 49.4993 215.662C49.7408 216.292 50.0959 216.794 50.5646 217.168C51.0381 217.537 51.6252 217.722 52.326 217.722ZM60.4013 219V208.091H62.0774V219H60.4013ZM61.2536 206.273C60.9268 206.273 60.6451 206.161 60.4084 205.939C60.1764 205.716 60.0604 205.449 60.0604 205.136C60.0604 204.824 60.1764 204.556 60.4084 204.334C60.6451 204.111 60.9268 204 61.2536 204C61.5803 204 61.8596 204.111 62.0916 204.334C62.3284 204.556 62.4467 204.824 62.4467 205.136C62.4467 205.449 62.3284 205.716 62.0916 205.939C61.8596 206.161 61.5803 206.273 61.2536 206.273ZM69.5792 219.227C68.5565 219.227 67.6758 218.986 66.9371 218.503C66.1985 218.02 65.6303 217.355 65.2326 216.507C64.8349 215.66 64.636 214.691 64.636 213.602C64.636 212.494 64.8396 211.517 65.2468 210.669C65.6587 209.817 66.2317 209.152 66.9656 208.673C67.7042 208.19 68.5659 207.949 69.5508 207.949C70.3178 207.949 71.0091 208.091 71.6246 208.375C72.2402 208.659 72.7444 209.057 73.1374 209.568C73.5304 210.08 73.7743 210.676 73.869 211.358H72.1928C72.065 210.861 71.7809 210.42 71.3406 210.037C70.9049 209.649 70.3178 209.455 69.5792 209.455C68.9258 209.455 68.3529 209.625 67.8604 209.966C67.3728 210.302 66.9916 210.778 66.717 211.393C66.4471 212.004 66.3121 212.722 66.3121 213.545C66.3121 214.388 66.4447 215.122 66.7099 215.747C66.9798 216.372 67.3585 216.857 67.8462 217.203C68.3387 217.549 68.9163 217.722 69.5792 217.722C70.0148 217.722 70.4102 217.646 70.7653 217.494C71.1204 217.343 71.421 217.125 71.6673 216.841C71.9135 216.557 72.0887 216.216 72.1928 215.818H73.869C73.7743 216.462 73.5399 217.042 73.1658 217.558C72.7965 218.07 72.3065 218.477 71.6957 218.78C71.0896 219.078 70.3841 219.227 69.5792 219.227ZM79.5295 219.256C78.8382 219.256 78.2108 219.125 77.6474 218.865C77.0839 218.6 76.6365 218.219 76.305 217.722C75.9736 217.22 75.8079 216.614 75.8079 215.903C75.8079 215.278 75.931 214.772 76.1772 214.384C76.4234 213.991 76.7525 213.683 77.1644 213.46C77.5763 213.238 78.0309 213.072 78.5281 212.963C79.0299 212.849 79.5342 212.759 80.0408 212.693C80.7037 212.608 81.2411 212.544 81.6531 212.501C82.0697 212.454 82.3728 212.376 82.5621 212.267C82.7563 212.158 82.8533 211.969 82.8533 211.699V211.642C82.8533 210.941 82.6616 210.397 82.2781 210.009C81.8993 209.62 81.324 209.426 80.5522 209.426C79.752 209.426 79.1246 209.601 78.6701 209.952C78.2156 210.302 77.896 210.676 77.7113 211.074L76.1204 210.506C76.4045 209.843 76.7833 209.327 77.2567 208.957C77.735 208.583 78.2558 208.323 78.8192 208.176C79.3874 208.025 79.9461 207.949 80.4954 207.949C80.8458 207.949 81.2482 207.991 81.7028 208.077C82.1621 208.157 82.6048 208.325 83.0309 208.581C83.4618 208.837 83.8192 209.223 84.1033 209.739C84.3874 210.255 84.5295 210.946 84.5295 211.812V219H82.8533V217.523H82.7681C82.6545 217.759 82.4651 218.013 82.1999 218.283C81.9348 218.553 81.582 218.782 81.1417 218.972C80.7013 219.161 80.1639 219.256 79.5295 219.256ZM79.7852 217.75C80.448 217.75 81.0067 217.62 81.4613 217.359C81.9206 217.099 82.2662 216.763 82.4982 216.351C82.735 215.939 82.8533 215.506 82.8533 215.051V213.517C82.7823 213.602 82.6261 213.68 82.3846 213.751C82.1478 213.818 81.8732 213.877 81.5607 213.929C81.253 213.976 80.9523 214.019 80.6587 214.057C80.3699 214.09 80.1355 214.118 79.9556 214.142C79.52 214.199 79.1128 214.291 78.734 214.419C78.36 214.542 78.0569 214.729 77.8249 214.98C77.5977 215.226 77.484 215.562 77.484 215.989C77.484 216.571 77.6995 217.011 78.1303 217.31C78.5659 217.603 79.1175 217.75 79.7852 217.75ZM92.3331 208.091V209.511H86.6797V208.091H92.3331ZM88.3274 205.477H90.0036V215.875C90.0036 216.348 90.0722 216.704 90.2095 216.94C90.3516 217.172 90.5315 217.329 90.7493 217.409C90.9718 217.485 91.2062 217.523 91.4524 217.523C91.6371 217.523 91.7886 217.513 91.907 217.494C92.0253 217.471 92.12 217.452 92.1911 217.438L92.532 218.943C92.4183 218.986 92.2597 219.028 92.0561 219.071C91.8525 219.118 91.5945 219.142 91.282 219.142C90.8085 219.142 90.3445 219.04 89.8899 218.837C89.4401 218.633 89.0661 218.323 88.7678 217.906C88.4742 217.49 88.3274 216.964 88.3274 216.33V205.477ZM99.169 219.227C98.1842 219.227 97.3201 218.993 96.5767 218.524C95.8381 218.055 95.2604 217.4 94.8438 216.557C94.4318 215.714 94.2259 214.729 94.2259 213.602C94.2259 212.466 94.4318 211.474 94.8438 210.626C95.2604 209.779 95.8381 209.121 96.5767 208.652C97.3201 208.183 98.1842 207.949 99.169 207.949C100.154 207.949 101.016 208.183 101.754 208.652C102.498 209.121 103.075 209.779 103.487 210.626C103.904 211.474 104.112 212.466 104.112 213.602C104.112 214.729 103.904 215.714 103.487 216.557C103.075 217.4 102.498 218.055 101.754 218.524C101.016 218.993 100.154 219.227 99.169 219.227ZM99.169 217.722C99.9171 217.722 100.533 217.53 101.016 217.146C101.499 216.763 101.856 216.259 102.088 215.634C102.32 215.009 102.436 214.331 102.436 213.602C102.436 212.873 102.32 212.194 102.088 211.564C101.856 210.934 101.499 210.425 101.016 210.037C100.533 209.649 99.9171 209.455 99.169 209.455C98.4209 209.455 97.8054 209.649 97.3224 210.037C96.8395 210.425 96.482 210.934 96.25 211.564C96.018 212.194 95.902 212.873 95.902 213.602C95.902 214.331 96.018 215.009 96.25 215.634C96.482 216.259 96.8395 216.763 97.3224 217.146C97.8054 217.53 98.4209 217.722 99.169 217.722ZM106.671 219V208.091H108.29V209.739H108.404C108.603 209.199 108.962 208.761 109.483 208.425C110.004 208.089 110.591 207.92 111.245 207.92C111.368 207.92 111.522 207.923 111.706 207.928C111.891 207.932 112.031 207.939 112.125 207.949V209.653C112.069 209.639 111.938 209.618 111.735 209.589C111.536 209.556 111.325 209.54 111.103 209.54C110.572 209.54 110.099 209.651 109.682 209.874C109.27 210.091 108.944 210.394 108.702 210.783C108.465 211.166 108.347 211.604 108.347 212.097V219H106.671ZM119.737 219V208.091H121.413V219H119.737ZM120.589 206.273C120.263 206.273 119.981 206.161 119.744 205.939C119.512 205.716 119.396 205.449 119.396 205.136C119.396 204.824 119.512 204.556 119.744 204.334C119.981 204.111 120.263 204 120.589 204C120.916 204 121.196 204.111 121.428 204.334C121.664 204.556 121.783 204.824 121.783 205.136C121.783 205.449 121.664 205.716 121.428 205.939C121.196 206.161 120.916 206.273 120.589 206.273ZM128.915 219.227C127.892 219.227 127.012 218.986 126.273 218.503C125.534 218.02 124.966 217.355 124.569 216.507C124.171 215.66 123.972 214.691 123.972 213.602C123.972 212.494 124.176 211.517 124.583 210.669C124.995 209.817 125.568 209.152 126.301 208.673C127.04 208.19 127.902 207.949 128.887 207.949C129.654 207.949 130.345 208.091 130.961 208.375C131.576 208.659 132.08 209.057 132.473 209.568C132.866 210.08 133.11 210.676 133.205 211.358H131.529C131.401 210.861 131.117 210.42 130.676 210.037C130.241 209.649 129.654 209.455 128.915 209.455C128.262 209.455 127.689 209.625 127.196 209.966C126.709 210.302 126.328 210.778 126.053 211.393C125.783 212.004 125.648 212.722 125.648 213.545C125.648 214.388 125.781 215.122 126.046 215.747C126.316 216.372 126.694 216.857 127.182 217.203C127.675 217.549 128.252 217.722 128.915 217.722C129.351 217.722 129.746 217.646 130.101 217.494C130.456 217.343 130.757 217.125 131.003 216.841C131.249 216.557 131.425 216.216 131.529 215.818H133.205C133.11 216.462 132.876 217.042 132.502 217.558C132.132 218.07 131.642 218.477 131.032 218.78C130.426 219.078 129.72 219.227 128.915 219.227ZM140.087 219.227C139.102 219.227 138.238 218.993 137.495 218.524C136.756 218.055 136.178 217.4 135.762 216.557C135.35 215.714 135.144 214.729 135.144 213.602C135.144 212.466 135.35 211.474 135.762 210.626C136.178 209.779 136.756 209.121 137.495 208.652C138.238 208.183 139.102 207.949 140.087 207.949C141.072 207.949 141.934 208.183 142.672 208.652C143.416 209.121 143.993 209.779 144.405 210.626C144.822 211.474 145.03 212.466 145.03 213.602C145.03 214.729 144.822 215.714 144.405 216.557C143.993 217.4 143.416 218.055 142.672 218.524C141.934 218.993 141.072 219.227 140.087 219.227ZM140.087 217.722C140.835 217.722 141.451 217.53 141.934 217.146C142.417 216.763 142.774 216.259 143.006 215.634C143.238 215.009 143.354 214.331 143.354 213.602C143.354 212.873 143.238 212.194 143.006 211.564C142.774 210.934 142.417 210.425 141.934 210.037C141.451 209.649 140.835 209.455 140.087 209.455C139.339 209.455 138.723 209.649 138.24 210.037C137.757 210.425 137.4 210.934 137.168 211.564C136.936 212.194 136.82 212.873 136.82 213.602C136.82 214.331 136.936 215.009 137.168 215.634C137.4 216.259 137.757 216.763 138.24 217.146C138.723 217.53 139.339 217.722 140.087 217.722ZM149.265 212.438V219H147.589V208.091H149.208V209.795H149.35C149.606 209.241 149.994 208.796 150.515 208.46C151.036 208.119 151.708 207.949 152.532 207.949C153.271 207.949 153.917 208.1 154.471 208.403C155.025 208.702 155.456 209.156 155.763 209.767C156.071 210.373 156.225 211.14 156.225 212.068V219H154.549V212.182C154.549 211.325 154.326 210.657 153.881 210.179C153.436 209.696 152.826 209.455 152.049 209.455C151.514 209.455 151.036 209.571 150.614 209.803C150.198 210.035 149.869 210.373 149.627 210.818C149.386 211.263 149.265 211.803 149.265 212.438Z" fill="white" fill-opacity="0.95"/>
</svg>
