<svg width="320" height="214" viewBox="0 0 320 214" fill="none" xmlns="http://www.w3.org/2000/svg">
<mask id="path-1-inside-1_2144_60979" fill="white">
<path d="M0 0H320V214H0V0Z"/>
</mask>
<path d="M0 0H320V214H0V0Z" fill="#1A1A1A"/>
<path d="M320 214V215H321V214H320ZM319 0V214H321V0H319ZM320 213H0V215H320V213Z" fill="white" fill-opacity="0.2" mask="url(#path-1-inside-1_2144_60979)"/>
<mask id="path-4-inside-2_2144_60979" fill="white">
<path d="M30 99C30 94.5817 33.5817 91 38 91H250V123H38C33.5817 123 30 119.418 30 115V99Z"/>
</mask>
<path d="M29 99C29 94.0294 33.0294 90 38 90H250V92H38C34.134 92 31 95.134 31 99H29ZM250 124H38C33.0294 124 29 119.971 29 115H31C31 118.866 34.134 122 38 122H250V124ZM38 124C33.0294 124 29 119.971 29 115V99C29 94.0294 33.0294 90 38 90V92C34.134 92 31 95.134 31 99V115C31 118.866 34.134 122 38 122V124ZM250 91V123V91Z" fill="white" fill-opacity="0.2" mask="url(#path-4-inside-2_2144_60979)"/>
<rect width="1" height="30" transform="translate(249 92)" fill="white" fill-opacity="0.2"/>
<mask id="path-6-inside-3_2144_60979" fill="white">
<path d="M250 91H274C278.418 91 282 94.5817 282 99V115C282 119.418 278.418 123 274 123H250V91Z"/>
</mask>
<path d="M250 90H274C278.971 90 283 94.0294 283 99H281C281 95.134 277.866 92 274 92H250V90ZM283 115C283 119.971 278.971 124 274 124H250V122H274C277.866 122 281 118.866 281 115H283ZM250 123V91V123ZM274 90C278.971 90 283 94.0294 283 99V115C283 119.971 278.971 124 274 124V122C277.866 122 281 118.866 281 115V99C281 95.134 277.866 92 274 92V90Z" fill="white" fill-opacity="0.2" mask="url(#path-6-inside-3_2144_60979)"/>
</svg>
