<svg width="320" height="214" viewBox="0 0 320 214" fill="none" xmlns="http://www.w3.org/2000/svg">
<mask id="path-1-inside-1_2144_60896" fill="white">
<path d="M0 0H320V214H0V0Z"/>
</mask>
<path d="M0 0H320V214H0V0Z" fill="#1A1A1A"/>
<path d="M320 0H321V-1H320V0ZM0 1H320V-1H0V1ZM319 0V214H321V0H319Z" fill="white" fill-opacity="0.2" mask="url(#path-1-inside-1_2144_60896)"/>
<path d="M44.75 107C44.75 110.728 41.7279 113.75 38 113.75C34.2721 113.75 31.25 110.728 31.25 107C31.25 103.272 34.2721 100.25 38 100.25C41.7279 100.25 44.75 103.272 44.75 107ZM36.8571 102.429V108.143C36.8571 108.774 37.3688 109.286 38 109.286C38.6312 109.286 39.1429 108.774 39.1429 108.143V102.429C39.1429 101.797 38.6312 101.286 38 101.286C37.3688 101.286 36.8571 101.797 36.8571 102.429ZM38 112.714C38.6312 112.714 39.1429 112.203 39.1429 111.571C39.1429 110.94 38.6312 110.429 38 110.429C37.3688 110.429 36.8571 110.94 36.8571 111.571C36.8571 112.203 37.3688 112.714 38 112.714Z" fill="#64B4FA"/>
<path d="M61.406 100.92H62.848V111H61.406V106.506H56.478V111H55.05V100.92H56.478V105.302H61.406V100.92ZM69.8344 108.9H71.2904C71.0851 109.637 70.6791 110.216 70.0724 110.636C69.5031 111.019 68.8218 111.21 68.0284 111.21C66.8804 111.21 65.9844 110.846 65.3404 110.118C64.7524 109.437 64.4584 108.517 64.4584 107.36C64.4584 106.044 64.8318 105.045 65.5784 104.364C66.1944 103.795 66.9878 103.51 67.9584 103.51C69.0971 103.51 69.9558 103.879 70.5344 104.616C71.0944 105.325 71.3744 106.338 71.3744 107.654H65.8304C65.8864 108.513 66.1478 109.152 66.6144 109.572C66.9971 109.908 67.4824 110.076 68.0704 110.076C68.5278 110.076 68.9244 109.95 69.2604 109.698C69.5404 109.483 69.7318 109.217 69.8344 108.9ZM67.9864 104.588C67.3891 104.588 66.9084 104.775 66.5444 105.148C66.1991 105.493 65.9798 105.974 65.8864 106.59H70.0024C69.9558 105.89 69.7224 105.367 69.3024 105.022C68.9664 104.733 68.5278 104.588 67.9864 104.588ZM74.3299 100.92V111H72.9859V100.92H74.3299ZM76.2945 103.72H77.4005L77.6105 104.672C78.2078 103.897 79.0291 103.51 80.0745 103.51C81.1198 103.51 81.9318 103.883 82.5105 104.63C83.0238 105.302 83.2805 106.193 83.2805 107.304C83.2805 108.62 82.9305 109.628 82.2305 110.328C81.6425 110.916 80.8911 111.21 79.9765 111.21C78.9405 111.21 78.1611 110.827 77.6385 110.062V113.52H76.2945V103.72ZM81.8805 107.276C81.8805 106.361 81.6518 105.675 81.1945 105.218C80.8305 104.845 80.3545 104.658 79.7665 104.658C79.0851 104.658 78.5438 104.905 78.1425 105.4C77.7598 105.876 77.5685 106.501 77.5685 107.276C77.5685 108.209 77.7971 108.923 78.2545 109.418C78.6371 109.847 79.1411 110.062 79.7665 110.062C80.4665 110.062 80.9985 109.805 81.3625 109.292C81.7078 108.816 81.8805 108.144 81.8805 107.276ZM89.7817 108.9H91.2377C91.0324 109.637 90.6264 110.216 90.0197 110.636C89.4504 111.019 88.769 111.21 87.9757 111.21C86.8277 111.21 85.9317 110.846 85.2877 110.118C84.6997 109.437 84.4057 108.517 84.4057 107.36C84.4057 106.044 84.779 105.045 85.5257 104.364C86.1417 103.795 86.935 103.51 87.9057 103.51C89.0444 103.51 89.903 103.879 90.4817 104.616C91.0417 105.325 91.3217 106.338 91.3217 107.654H85.7777C85.8337 108.513 86.095 109.152 86.5617 109.572C86.9444 109.908 87.4297 110.076 88.0177 110.076C88.475 110.076 88.8717 109.95 89.2077 109.698C89.4877 109.483 89.679 109.217 89.7817 108.9ZM87.9337 104.588C87.3364 104.588 86.8557 104.775 86.4917 105.148C86.1464 105.493 85.927 105.974 85.8337 106.59H89.9497C89.903 105.89 89.6697 105.367 89.2497 105.022C88.9137 104.733 88.475 104.588 87.9337 104.588ZM94.2771 111H92.9331V103.72H94.0391L94.2211 104.798C94.6318 103.939 95.2478 103.51 96.0691 103.51C96.3398 103.51 96.6058 103.543 96.8671 103.608V104.952C96.5498 104.868 96.2651 104.826 96.0131 104.826C95.4718 104.826 95.0471 105.045 94.7391 105.484C94.4311 105.923 94.2771 106.543 94.2771 107.346V111ZM105.369 109.922V111.07C105.023 111.163 104.692 111.21 104.375 111.21C103.703 111.21 103.199 111 102.863 110.58C102.573 110.235 102.429 109.773 102.429 109.194V104.868H101.351V103.72H102.429L102.513 101.97H103.773V103.72H105.341V104.868H103.773V109.222C103.773 109.763 104.029 110.034 104.543 110.034C104.785 110.034 105.061 109.997 105.369 109.922ZM111.52 108.9H112.976C112.771 109.637 112.365 110.216 111.758 110.636C111.189 111.019 110.507 111.21 109.714 111.21C108.566 111.21 107.67 110.846 107.026 110.118C106.438 109.437 106.144 108.517 106.144 107.36C106.144 106.044 106.517 105.045 107.264 104.364C107.88 103.795 108.673 103.51 109.644 103.51C110.783 103.51 111.641 103.879 112.22 104.616C112.78 105.325 113.06 106.338 113.06 107.654H107.516C107.572 108.513 107.833 109.152 108.3 109.572C108.683 109.908 109.168 110.076 109.756 110.076C110.213 110.076 110.61 109.95 110.946 109.698C111.226 109.483 111.417 109.217 111.52 108.9ZM109.672 104.588C109.075 104.588 108.594 104.775 108.23 105.148C107.885 105.493 107.665 105.974 107.572 106.59H111.688C111.641 105.89 111.408 105.367 110.988 105.022C110.652 104.733 110.213 104.588 109.672 104.588ZM120.537 103.72L118.101 107.122L120.957 111H119.319L117.345 108.186L115.413 111H113.831L116.547 107.22L113.999 103.72H115.609L117.345 106.17L118.997 103.72H120.537ZM125.33 109.922V111.07C124.984 111.163 124.653 111.21 124.336 111.21C123.664 111.21 123.16 111 122.824 110.58C122.534 110.235 122.39 109.773 122.39 109.194V104.868H121.312V103.72H122.39L122.474 101.97H123.734V103.72H125.302V104.868H123.734V109.222C123.734 109.763 123.99 110.034 124.504 110.034C124.746 110.034 125.022 109.997 125.33 109.922Z" fill="#64B4FA"/>
</svg>
