<svg width="245" height="214" viewBox="0 0 245 214" fill="none" xmlns="http://www.w3.org/2000/svg">
<mask id="path-1-inside-1_2144_61020" fill="white">
<path d="M0 0H245V214H0V0Z"/>
</mask>
<path d="M0 0H245V214H0V0Z" fill="#1A1A1A"/>
<path d="M244 0V214H246V0H244Z" fill="#707070" mask="url(#path-1-inside-1_2144_61020)"/>
<path d="M39.7159 103.091C39.6307 102.371 39.285 101.812 38.679 101.415C38.0729 101.017 37.3295 100.818 36.4489 100.818C35.8049 100.818 35.2415 100.922 34.7585 101.131C34.2803 101.339 33.9063 101.625 33.6364 101.99C33.3712 102.355 33.2386 102.769 33.2386 103.233C33.2386 103.621 33.331 103.955 33.5156 104.234C33.705 104.509 33.9465 104.739 34.2401 104.923C34.5336 105.103 34.8414 105.252 35.1634 105.371C35.4853 105.484 35.7812 105.577 36.0511 105.648L37.5284 106.045C37.9072 106.145 38.3286 106.282 38.7926 106.457C39.2614 106.633 39.7088 106.872 40.1349 107.175C40.5658 107.473 40.9209 107.857 41.2003 108.325C41.4796 108.794 41.6193 109.369 41.6193 110.051C41.6193 110.837 41.4134 111.547 41.0014 112.182C40.5942 112.816 39.9976 113.321 39.2116 113.695C38.4304 114.069 37.4811 114.256 36.3636 114.256C35.322 114.256 34.42 114.088 33.6577 113.751C32.9001 113.415 32.3035 112.946 31.8679 112.345C31.437 111.744 31.1932 111.045 31.1364 110.25H32.9545C33.0019 110.799 33.1866 111.254 33.5085 111.614C33.8352 111.969 34.2472 112.234 34.7443 112.409C35.2462 112.58 35.786 112.665 36.3636 112.665C37.036 112.665 37.6397 112.556 38.1747 112.338C38.7098 112.116 39.1335 111.808 39.446 111.415C39.7585 111.017 39.9148 110.553 39.9148 110.023C39.9148 109.54 39.7798 109.147 39.5099 108.844C39.2401 108.541 38.8849 108.295 38.4446 108.105C38.0043 107.916 37.5284 107.75 37.017 107.608L35.2273 107.097C34.0909 106.77 33.1913 106.304 32.5284 105.697C31.8655 105.091 31.5341 104.298 31.5341 103.318C31.5341 102.504 31.7543 101.794 32.1946 101.188C32.6397 100.577 33.2363 100.103 33.9844 99.767C34.7372 99.4261 35.5777 99.2557 36.5057 99.2557C37.4432 99.2557 38.2765 99.4238 39.0057 99.7599C39.7348 100.091 40.3125 100.546 40.7386 101.124C41.1695 101.701 41.3968 102.357 41.4205 103.091H39.7159ZM51.163 109.54V103.091H52.8391V114H51.163V112.153H51.0494C50.7937 112.707 50.396 113.179 49.8562 113.567C49.3164 113.95 48.6346 114.142 47.8107 114.142C47.1289 114.142 46.5228 113.993 45.9925 113.695C45.4622 113.392 45.0456 112.937 44.7425 112.331C44.4395 111.72 44.288 110.951 44.288 110.023V103.091H45.9641V109.909C45.9641 110.705 46.1867 111.339 46.6317 111.812C47.0816 112.286 47.6545 112.523 48.3505 112.523C48.7672 112.523 49.1909 112.416 49.6218 112.203C50.0574 111.99 50.422 111.663 50.7156 111.223C51.0138 110.783 51.163 110.222 51.163 109.54ZM60.3409 114.227C59.3182 114.227 58.4375 113.986 57.6989 113.503C56.9602 113.02 56.392 112.355 55.9943 111.507C55.5966 110.66 55.3977 109.691 55.3977 108.602C55.3977 107.494 55.6013 106.517 56.0085 105.669C56.4205 104.817 56.9934 104.152 57.7273 103.673C58.4659 103.19 59.3277 102.949 60.3125 102.949C61.0795 102.949 61.7708 103.091 62.3864 103.375C63.0019 103.659 63.5062 104.057 63.8991 104.568C64.2921 105.08 64.536 105.676 64.6307 106.358H62.9545C62.8267 105.861 62.5426 105.42 62.1023 105.037C61.6667 104.649 61.0795 104.455 60.3409 104.455C59.6875 104.455 59.1146 104.625 58.6222 104.966C58.1345 105.302 57.7533 105.778 57.4787 106.393C57.2088 107.004 57.0739 107.722 57.0739 108.545C57.0739 109.388 57.2064 110.122 57.4716 110.747C57.7415 111.372 58.1203 111.857 58.608 112.203C59.1004 112.549 59.678 112.722 60.3409 112.722C60.7765 112.722 61.1719 112.646 61.527 112.494C61.8821 112.343 62.1828 112.125 62.429 111.841C62.6752 111.557 62.8504 111.216 62.9545 110.818H64.6307C64.536 111.462 64.3016 112.042 63.9276 112.558C63.5582 113.07 63.0682 113.477 62.4574 113.78C61.8513 114.078 61.1458 114.227 60.3409 114.227ZM71.5128 114.227C70.4901 114.227 69.6094 113.986 68.8707 113.503C68.1321 113.02 67.5639 112.355 67.1662 111.507C66.7685 110.66 66.5696 109.691 66.5696 108.602C66.5696 107.494 66.7732 106.517 67.1804 105.669C67.5923 104.817 68.1652 104.152 68.8991 103.673C69.6378 103.19 70.4995 102.949 71.4844 102.949C72.2514 102.949 72.9427 103.091 73.5582 103.375C74.1738 103.659 74.678 104.057 75.071 104.568C75.464 105.08 75.7079 105.676 75.8026 106.358H74.1264C73.9986 105.861 73.7145 105.42 73.2741 105.037C72.8385 104.649 72.2514 104.455 71.5128 104.455C70.8594 104.455 70.2865 104.625 69.794 104.966C69.3063 105.302 68.9252 105.778 68.6506 106.393C68.3807 107.004 68.2457 107.722 68.2457 108.545C68.2457 109.388 68.3783 110.122 68.6435 110.747C68.9134 111.372 69.2921 111.857 69.7798 112.203C70.2723 112.549 70.8499 112.722 71.5128 112.722C71.9484 112.722 72.3438 112.646 72.6989 112.494C73.054 112.343 73.3546 112.125 73.6009 111.841C73.8471 111.557 74.0223 111.216 74.1264 110.818H75.8026C75.7079 111.462 75.4735 112.042 75.0994 112.558C74.7301 113.07 74.2401 113.477 73.6293 113.78C73.0232 114.078 72.3177 114.227 71.5128 114.227ZM82.8267 114.227C81.7756 114.227 80.8688 113.995 80.1065 113.531C79.349 113.062 78.7642 112.409 78.3523 111.571C77.9451 110.728 77.7415 109.748 77.7415 108.631C77.7415 107.513 77.9451 106.528 78.3523 105.676C78.7642 104.819 79.3371 104.152 80.071 103.673C80.8097 103.19 81.6714 102.949 82.6562 102.949C83.2244 102.949 83.7855 103.044 84.3395 103.233C84.8935 103.422 85.3977 103.73 85.8523 104.156C86.3068 104.578 86.669 105.136 86.9389 105.832C87.2088 106.528 87.3438 107.385 87.3438 108.403V109.114H78.9347V107.665H85.6392C85.6392 107.049 85.5161 106.5 85.2699 106.017C85.0284 105.534 84.6828 105.153 84.233 104.874C83.7879 104.594 83.2623 104.455 82.6562 104.455C81.9886 104.455 81.411 104.62 80.9233 104.952C80.4403 105.278 80.0687 105.705 79.8082 106.23C79.5478 106.756 79.4176 107.319 79.4176 107.92V108.886C79.4176 109.71 79.5597 110.409 79.8438 110.982C80.1326 111.55 80.5327 111.983 81.044 112.281C81.5554 112.575 82.1496 112.722 82.8267 112.722C83.267 112.722 83.6648 112.66 84.0199 112.537C84.3797 112.409 84.6899 112.22 84.9503 111.969C85.2107 111.713 85.4119 111.396 85.554 111.017L87.1733 111.472C87.0028 112.021 86.7164 112.504 86.3139 112.92C85.9115 113.332 85.4143 113.654 84.8224 113.886C84.2306 114.114 83.5653 114.227 82.8267 114.227ZM97.6207 105.534L96.1151 105.96C96.0204 105.709 95.8807 105.465 95.696 105.229C95.5161 104.987 95.2699 104.788 94.9574 104.632C94.6449 104.476 94.2448 104.398 93.7571 104.398C93.0895 104.398 92.5331 104.552 92.0881 104.859C91.6477 105.162 91.4276 105.548 91.4276 106.017C91.4276 106.434 91.5791 106.763 91.8821 107.004C92.1851 107.246 92.6586 107.447 93.3026 107.608L94.9219 108.006C95.8973 108.242 96.6241 108.605 97.1023 109.092C97.5805 109.575 97.8196 110.198 97.8196 110.96C97.8196 111.585 97.6397 112.144 97.2798 112.636C96.9247 113.129 96.4276 113.517 95.7884 113.801C95.1491 114.085 94.4058 114.227 93.5582 114.227C92.4455 114.227 91.5246 113.986 90.7955 113.503C90.0663 113.02 89.6046 112.314 89.4105 111.386L91.0014 110.989C91.1529 111.576 91.4394 112.016 91.8608 112.31C92.2869 112.603 92.8433 112.75 93.5298 112.75C94.3111 112.75 94.9313 112.584 95.3906 112.253C95.8546 111.917 96.0866 111.514 96.0866 111.045C96.0866 110.667 95.9541 110.349 95.6889 110.094C95.4238 109.833 95.0166 109.639 94.4673 109.511L92.6491 109.085C91.6501 108.848 90.9162 108.482 90.4474 107.984C89.9834 107.482 89.7514 106.855 89.7514 106.102C89.7514 105.487 89.9242 104.942 90.2699 104.469C90.6203 103.995 91.0961 103.624 91.6974 103.354C92.3035 103.084 92.9901 102.949 93.7571 102.949C94.8366 102.949 95.6842 103.186 96.2997 103.659C96.92 104.133 97.3603 104.758 97.6207 105.534ZM108.07 105.534L106.564 105.96C106.47 105.709 106.33 105.465 106.145 105.229C105.965 104.987 105.719 104.788 105.407 104.632C105.094 104.476 104.694 104.398 104.206 104.398C103.539 104.398 102.982 104.552 102.537 104.859C102.097 105.162 101.877 105.548 101.877 106.017C101.877 106.434 102.028 106.763 102.331 107.004C102.634 107.246 103.108 107.447 103.752 107.608L105.371 108.006C106.346 108.242 107.073 108.605 107.551 109.092C108.03 109.575 108.269 110.198 108.269 110.96C108.269 111.585 108.089 112.144 107.729 112.636C107.374 113.129 106.877 113.517 106.238 113.801C105.598 114.085 104.855 114.227 104.007 114.227C102.895 114.227 101.974 113.986 101.245 113.503C100.516 113.02 100.054 112.314 99.8597 111.386L101.451 110.989C101.602 111.576 101.889 112.016 102.31 112.31C102.736 112.603 103.292 112.75 103.979 112.75C104.76 112.75 105.381 112.584 105.84 112.253C106.304 111.917 106.536 111.514 106.536 111.045C106.536 110.667 106.403 110.349 106.138 110.094C105.873 109.833 105.466 109.639 104.917 109.511L103.098 109.085C102.099 108.848 101.365 108.482 100.897 107.984C100.433 107.482 100.201 106.855 100.201 106.102C100.201 105.487 100.373 104.942 100.719 104.469C101.069 103.995 101.545 103.624 102.147 103.354C102.753 103.084 103.439 102.949 104.206 102.949C105.286 102.949 106.133 103.186 106.749 103.659C107.369 104.133 107.81 104.758 108.07 105.534Z" fill="white" fill-opacity="0.95"/>
</svg>
