<svg width="320" height="214" viewBox="0 0 320 214" fill="none" xmlns="http://www.w3.org/2000/svg">
<mask id="path-1-inside-1_2144_60806" fill="white">
<path d="M0 0H320V214H0V0Z"/>
</mask>
<path d="M0 0H320V214H0V0Z" fill="#1A1A1A"/>
<path d="M320 214V215H321V214H320ZM319 0V214H321V0H319ZM320 213H0V215H320V213Z" fill="white" fill-opacity="0.2" mask="url(#path-1-inside-1_2144_60806)"/>
<g clip-path="url(#clip0_2144_60806)">
<path d="M31.05 100.92H34.326C35.6793 100.92 36.6967 101.237 37.378 101.872C37.9753 102.432 38.274 103.207 38.274 104.196C38.274 105.297 37.8913 106.123 37.126 106.674C36.4447 107.159 35.4927 107.402 34.27 107.402H32.478V111H31.05V100.92ZM34.354 102.082H32.478V106.24H34.298C35.222 106.24 35.8847 106.039 36.286 105.638C36.622 105.311 36.79 104.831 36.79 104.196C36.79 103.477 36.552 102.936 36.076 102.572C35.656 102.245 35.082 102.082 34.354 102.082ZM41.156 100.92V111H39.812V100.92H41.156ZM44.2686 105.75H42.8406C42.9153 105.022 43.2606 104.457 43.8766 104.056C44.4273 103.692 45.1226 103.51 45.9626 103.51C46.9613 103.51 47.7266 103.771 48.2586 104.294C48.7066 104.742 48.9306 105.321 48.9306 106.03V111H47.8246L47.6566 110.006C47.0873 110.809 46.2753 111.21 45.2206 111.21C44.39 111.21 43.7413 110.986 43.2746 110.538C42.892 110.165 42.7006 109.693 42.7006 109.124C42.7006 108.405 42.948 107.85 43.4426 107.458C43.8813 107.113 44.5533 106.861 45.4586 106.702L47.5866 106.338V105.974C47.5866 105.498 47.4233 105.139 47.0966 104.896C46.8073 104.681 46.4106 104.574 45.9066 104.574C44.9173 104.574 44.3713 104.966 44.2686 105.75ZM45.5426 110.076C46.112 110.076 46.6066 109.889 47.0266 109.516C47.4 109.171 47.5866 108.774 47.5866 108.326V107.388L45.7806 107.71C45.118 107.822 44.6653 107.995 44.4226 108.228C44.2266 108.415 44.1286 108.667 44.1286 108.984C44.1286 109.339 44.25 109.609 44.4926 109.796C44.7353 109.983 45.0853 110.076 45.5426 110.076ZM55.5639 108.662H57.0339C56.9219 109.446 56.5532 110.076 55.9279 110.552C55.3586 110.991 54.6632 111.21 53.8419 111.21C52.7686 111.21 51.9146 110.841 51.2799 110.104C50.6919 109.423 50.3979 108.527 50.3979 107.416C50.3979 106.128 50.7526 105.129 51.4619 104.42C52.0686 103.813 52.8572 103.51 53.8279 103.51C54.7239 103.51 55.4612 103.748 56.0399 104.224C56.5532 104.644 56.8659 105.195 56.9779 105.876H55.4939C55.4006 105.484 55.2092 105.181 54.9199 104.966C54.6399 104.751 54.2852 104.644 53.8559 104.644C53.1932 104.644 52.6846 104.905 52.3299 105.428C51.9939 105.913 51.8259 106.59 51.8259 107.458C51.8259 108.363 52.0499 109.049 52.4979 109.516C52.8526 109.889 53.3099 110.076 53.8699 110.076C54.3552 110.076 54.7519 109.936 55.0599 109.656C55.3306 109.413 55.4986 109.082 55.5639 108.662ZM63.5258 108.9H64.9818C64.7765 109.637 64.3705 110.216 63.7638 110.636C63.1945 111.019 62.5132 111.21 61.7198 111.21C60.5718 111.21 59.6758 110.846 59.0318 110.118C58.4438 109.437 58.1498 108.517 58.1498 107.36C58.1498 106.044 58.5232 105.045 59.2698 104.364C59.8858 103.795 60.6792 103.51 61.6498 103.51C62.7885 103.51 63.6472 103.879 64.2258 104.616C64.7858 105.325 65.0658 106.338 65.0658 107.654H59.5218C59.5778 108.513 59.8392 109.152 60.3058 109.572C60.6885 109.908 61.1738 110.076 61.7618 110.076C62.2192 110.076 62.6158 109.95 62.9518 109.698C63.2318 109.483 63.4232 109.217 63.5258 108.9ZM61.6778 104.588C61.0805 104.588 60.5998 104.775 60.2358 105.148C59.8905 105.493 59.6712 105.974 59.5778 106.59H63.6938C63.6472 105.89 63.4138 105.367 62.9938 105.022C62.6578 104.733 62.2192 104.588 61.6778 104.588ZM68.0213 111H66.6773V100.92H68.0213V104.546C68.5533 103.855 69.2626 103.51 70.1493 103.51C71.0079 103.51 71.6659 103.776 72.1233 104.308C72.5246 104.784 72.7253 105.433 72.7253 106.254V111H71.3813V106.268C71.3813 105.195 70.8633 104.658 69.8273 104.658C69.2766 104.658 68.8286 104.849 68.4833 105.232C68.1753 105.577 68.0213 106.021 68.0213 106.562V111ZM74.2006 107.36C74.2006 106.025 74.5973 105.017 75.3906 104.336C76.0253 103.785 76.828 103.51 77.7986 103.51C78.928 103.51 79.8146 103.869 80.4586 104.588C81.0746 105.26 81.3826 106.184 81.3826 107.36C81.3826 108.676 80.9953 109.679 80.2206 110.37C79.586 110.93 78.774 111.21 77.7846 111.21C76.6553 111.21 75.764 110.837 75.1106 110.09C74.504 109.409 74.2006 108.499 74.2006 107.36ZM75.6006 107.36C75.6006 108.293 75.8386 109.007 76.3146 109.502C76.7066 109.913 77.206 110.118 77.8126 110.118C78.522 110.118 79.068 109.852 79.4506 109.32C79.8053 108.835 79.9826 108.181 79.9826 107.36C79.9826 106.408 79.7493 105.689 79.2826 105.204C78.9 104.803 78.4053 104.602 77.7986 104.602C77.0986 104.602 76.5526 104.868 76.1606 105.4C75.7873 105.885 75.6006 106.539 75.6006 107.36ZM84.2635 100.92V111H82.9195V100.92H84.2635ZM92.794 111H91.688L91.45 109.978C90.89 110.799 90.0827 111.21 89.028 111.21C88.0107 111.21 87.208 110.841 86.62 110.104C86.0787 109.423 85.808 108.522 85.808 107.402C85.808 106.049 86.1534 105.031 86.844 104.35C87.4227 103.79 88.1787 103.51 89.112 103.51C90.12 103.51 90.8994 103.888 91.45 104.644V100.92H92.794V111ZM87.208 107.43C87.208 108.335 87.432 109.021 87.88 109.488C88.2534 109.871 88.734 110.062 89.322 110.062C90.05 110.062 90.6147 109.787 91.016 109.236C91.352 108.76 91.52 108.163 91.52 107.444C91.52 106.501 91.296 105.783 90.848 105.288C90.4654 104.868 89.9567 104.658 89.322 104.658C88.6127 104.658 88.076 104.915 87.712 105.428C87.376 105.895 87.208 106.562 87.208 107.43ZM99.7153 108.9H101.171C100.966 109.637 100.56 110.216 99.9533 110.636C99.384 111.019 98.7026 111.21 97.9093 111.21C96.7613 111.21 95.8653 110.846 95.2213 110.118C94.6333 109.437 94.3393 108.517 94.3393 107.36C94.3393 106.044 94.7126 105.045 95.4593 104.364C96.0753 103.795 96.8686 103.51 97.8393 103.51C98.978 103.51 99.8366 103.879 100.415 104.616C100.975 105.325 101.255 106.338 101.255 107.654H95.7113C95.7673 108.513 96.0286 109.152 96.4953 109.572C96.878 109.908 97.3633 110.076 97.9513 110.076C98.4086 110.076 98.8053 109.95 99.1413 109.698C99.4213 109.483 99.6126 109.217 99.7153 108.9ZM97.8673 104.588C97.27 104.588 96.7893 104.775 96.4253 105.148C96.08 105.493 95.8606 105.974 95.7673 106.59H99.8833C99.8366 105.89 99.6033 105.367 99.1833 105.022C98.8473 104.733 98.4086 104.588 97.8673 104.588ZM104.211 111H102.867V103.72H103.973L104.155 104.798C104.565 103.939 105.181 103.51 106.003 103.51C106.273 103.51 106.539 103.543 106.801 103.608V104.952C106.483 104.868 106.199 104.826 105.947 104.826C105.405 104.826 104.981 105.045 104.673 105.484C104.365 105.923 104.211 106.543 104.211 107.346V111ZM115.302 109.922V111.07C114.957 111.163 114.626 111.21 114.308 111.21C113.636 111.21 113.132 111 112.796 110.58C112.507 110.235 112.362 109.773 112.362 109.194V104.868H111.284V103.72H112.362L112.446 101.97H113.706V103.72H115.274V104.868H113.706V109.222C113.706 109.763 113.963 110.034 114.476 110.034C114.719 110.034 114.994 109.997 115.302 109.922ZM121.454 108.9H122.91C122.704 109.637 122.298 110.216 121.692 110.636C121.122 111.019 120.441 111.21 119.648 111.21C118.5 111.21 117.604 110.846 116.96 110.118C116.372 109.437 116.078 108.517 116.078 107.36C116.078 106.044 116.451 105.045 117.198 104.364C117.814 103.795 118.607 103.51 119.578 103.51C120.716 103.51 121.575 103.879 122.154 104.616C122.714 105.325 122.994 106.338 122.994 107.654H117.45C117.506 108.513 117.767 109.152 118.234 109.572C118.616 109.908 119.102 110.076 119.69 110.076C120.147 110.076 120.544 109.95 120.88 109.698C121.16 109.483 121.351 109.217 121.454 108.9ZM119.606 104.588C119.008 104.588 118.528 104.775 118.164 105.148C117.818 105.493 117.599 105.974 117.506 106.59H121.622C121.575 105.89 121.342 105.367 120.922 105.022C120.586 104.733 120.147 104.588 119.606 104.588ZM130.471 103.72L128.035 107.122L130.891 111H129.253L127.279 108.186L125.347 111H123.765L126.481 107.22L123.933 103.72H125.543L127.279 106.17L128.931 103.72H130.471ZM135.263 109.922V111.07C134.918 111.163 134.586 111.21 134.269 111.21C133.597 111.21 133.093 111 132.757 110.58C132.468 110.235 132.323 109.773 132.323 109.194V104.868H131.245V103.72H132.323L132.407 101.97H133.667V103.72H135.235V104.868H133.667V109.222C133.667 109.763 133.924 110.034 134.437 110.034C134.68 110.034 134.955 109.997 135.263 109.922Z" fill="white" fill-opacity="0.7"/>
</g>
<defs>
<clipPath id="clip0_2144_60806">
<rect width="320" height="52" fill="white" transform="translate(0 81)"/>
</clipPath>
</defs>
</svg>
