<svg width="245" height="788" viewBox="0 0 245 788" fill="none" xmlns="http://www.w3.org/2000/svg">
<mask id="path-1-inside-1_2144_60801" fill="white">
<path d="M0 0H245V788H0V0Z"/>
</mask>
<path d="M0 0H245V788H0V0Z" fill="#1A1A1A"/>
<path d="M245 788V789H246V788H245ZM244 0V788H246V0H244ZM245 787H0V789H245V787Z" fill="#707070" mask="url(#path-1-inside-1_2144_60801)"/>
<path d="M36.25 401H31.7614V386.455H36.4489C37.8598 386.455 39.0672 386.746 40.071 387.328C41.0748 387.906 41.8442 388.737 42.3793 389.821C42.9143 390.901 43.1818 392.193 43.1818 393.699C43.1818 395.214 42.9119 396.518 42.3722 397.612C41.8324 398.701 41.0464 399.539 40.0142 400.126C38.982 400.709 37.7273 401 36.25 401ZM33.5227 399.438H36.1364C37.339 399.438 38.3357 399.205 39.1264 398.741C39.9171 398.277 40.5066 397.617 40.8949 396.76C41.2831 395.903 41.4773 394.883 41.4773 393.699C41.4773 392.525 41.2855 391.514 40.902 390.666C40.5185 389.814 39.9455 389.161 39.1832 388.706C38.4209 388.247 37.4716 388.017 36.3352 388.017H33.5227V399.438ZM50.483 401.227C49.4318 401.227 48.5251 400.995 47.7628 400.531C47.0052 400.062 46.4205 399.409 46.0085 398.571C45.6013 397.728 45.3977 396.748 45.3977 395.631C45.3977 394.513 45.6013 393.528 46.0085 392.676C46.4205 391.819 46.9934 391.152 47.7273 390.673C48.4659 390.19 49.3277 389.949 50.3125 389.949C50.8807 389.949 51.4418 390.044 51.9957 390.233C52.5497 390.422 53.054 390.73 53.5085 391.156C53.9631 391.578 54.3253 392.136 54.5952 392.832C54.8651 393.528 55 394.385 55 395.403V396.114H46.5909V394.665H53.2955C53.2955 394.049 53.1723 393.5 52.9261 393.017C52.6847 392.534 52.339 392.153 51.8892 391.874C51.4441 391.594 50.9186 391.455 50.3125 391.455C49.6449 391.455 49.0672 391.62 48.5795 391.952C48.0966 392.278 47.7249 392.705 47.4645 393.23C47.2041 393.756 47.0739 394.319 47.0739 394.92V395.886C47.0739 396.71 47.2159 397.409 47.5 397.982C47.7888 398.55 48.1889 398.983 48.7003 399.281C49.2116 399.575 49.8059 399.722 50.483 399.722C50.9233 399.722 51.321 399.66 51.6761 399.537C52.036 399.409 52.3461 399.22 52.6065 398.969C52.867 398.713 53.0682 398.396 53.2102 398.017L54.8295 398.472C54.6591 399.021 54.3726 399.504 53.9702 399.92C53.5677 400.332 53.0705 400.654 52.4787 400.886C51.8868 401.114 51.2216 401.227 50.483 401.227ZM62.4077 390.091V391.511H56.527V390.091H62.4077ZM58.2884 401V388.585C58.2884 387.96 58.4351 387.439 58.7287 387.023C59.0223 386.606 59.4034 386.294 59.8722 386.085C60.3409 385.877 60.8357 385.773 61.3565 385.773C61.7685 385.773 62.1046 385.806 62.3651 385.872C62.6255 385.938 62.8196 386 62.9474 386.057L62.4645 387.506C62.3793 387.477 62.2609 387.442 62.1094 387.399C61.9626 387.357 61.7685 387.335 61.527 387.335C60.973 387.335 60.5729 387.475 60.3267 387.754C60.0852 388.034 59.9645 388.443 59.9645 388.983V401H58.2884ZM67.6545 401.256C66.9632 401.256 66.3358 401.125 65.7724 400.865C65.2089 400.6 64.7615 400.219 64.43 399.722C64.0986 399.22 63.9329 398.614 63.9329 397.903C63.9329 397.278 64.056 396.772 64.3022 396.384C64.5484 395.991 64.8775 395.683 65.2894 395.46C65.7013 395.238 66.1559 395.072 66.6531 394.963C67.1549 394.849 67.6592 394.759 68.1658 394.693C68.8287 394.608 69.3661 394.544 69.7781 394.501C70.1947 394.454 70.4978 394.376 70.6871 394.267C70.8813 394.158 70.9783 393.969 70.9783 393.699V393.642C70.9783 392.941 70.7866 392.397 70.4031 392.009C70.0243 391.62 69.449 391.426 68.6772 391.426C67.877 391.426 67.2496 391.601 66.7951 391.952C66.3406 392.302 66.021 392.676 65.8363 393.074L64.2454 392.506C64.5295 391.843 64.9083 391.327 65.3817 390.957C65.86 390.583 66.3808 390.323 66.9442 390.176C67.5124 390.025 68.0711 389.949 68.6204 389.949C68.9708 389.949 69.3732 389.991 69.8278 390.077C70.2871 390.157 70.7298 390.325 71.1559 390.581C71.5868 390.837 71.9442 391.223 72.2283 391.739C72.5124 392.255 72.6545 392.946 72.6545 393.812V401H70.9783V399.523H70.8931C70.7795 399.759 70.5901 400.013 70.3249 400.283C70.0598 400.553 69.707 400.782 69.2667 400.972C68.8263 401.161 68.2889 401.256 67.6545 401.256ZM67.9102 399.75C68.573 399.75 69.1317 399.62 69.5863 399.359C70.0456 399.099 70.3912 398.763 70.6232 398.351C70.86 397.939 70.9783 397.506 70.9783 397.051V395.517C70.9073 395.602 70.7511 395.68 70.5096 395.751C70.2728 395.818 69.9982 395.877 69.6857 395.929C69.378 395.976 69.0773 396.019 68.7837 396.057C68.4949 396.09 68.2605 396.118 68.0806 396.142C67.645 396.199 67.2378 396.291 66.859 396.419C66.485 396.542 66.1819 396.729 65.9499 396.98C65.7227 397.226 65.609 397.562 65.609 397.989C65.609 398.571 65.8245 399.011 66.2553 399.31C66.6909 399.603 67.2425 399.75 67.9102 399.75ZM82.5888 396.54V390.091H84.2649V401H82.5888V399.153H82.4751C82.2195 399.707 81.8217 400.179 81.282 400.567C80.7422 400.95 80.0604 401.142 79.2365 401.142C78.5547 401.142 77.9486 400.993 77.4183 400.695C76.888 400.392 76.4714 399.937 76.1683 399.331C75.8653 398.72 75.7138 397.951 75.7138 397.023V390.091H77.3899V396.909C77.3899 397.705 77.6125 398.339 78.0575 398.812C78.5073 399.286 79.0803 399.523 79.7763 399.523C80.1929 399.523 80.6167 399.416 81.0476 399.203C81.4832 398.99 81.8478 398.663 82.1413 398.223C82.4396 397.783 82.5888 397.222 82.5888 396.54ZM89.011 386.455V401H87.3349V386.455H89.011ZM96.8253 390.091V391.511H91.1719V390.091H96.8253ZM92.8196 387.477H94.4957V397.875C94.4957 398.348 94.5644 398.704 94.7017 398.94C94.8438 399.172 95.0237 399.329 95.2415 399.409C95.464 399.485 95.6984 399.523 95.9446 399.523C96.1293 399.523 96.2808 399.513 96.3991 399.494C96.5175 399.471 96.6122 399.452 96.6832 399.438L97.0241 400.943C96.9105 400.986 96.7519 401.028 96.5483 401.071C96.3447 401.118 96.0866 401.142 95.7741 401.142C95.3007 401.142 94.8366 401.04 94.3821 400.837C93.9323 400.633 93.5582 400.323 93.2599 399.906C92.9664 399.49 92.8196 398.964 92.8196 398.33V387.477Z" fill="white" fill-opacity="0.95"/>
</svg>
