<svg width="320" height="124" viewBox="0 0 320 124" fill="none" xmlns="http://www.w3.org/2000/svg">
<mask id="path-1-inside-1_2144_60842" fill="white">
<path d="M0 0H320V124H0V0Z"/>
</mask>
<path d="M0 0H320V124H0V0Z" fill="#1A1A1A"/>
<path d="M320 124V125H321V124H320ZM319 0V124H321V0H319ZM320 123H0V125H320V123Z" fill="white" fill-opacity="0.2" mask="url(#path-1-inside-1_2144_60842)"/>
<path d="M44.3537 58.6464C44.26 58.5527 44.1328 58.5 44.0002 58.5C43.8676 58.5 43.7405 58.5527 43.6467 58.6464L38 64.2929L32.3535 58.6464C32.2593 58.555 32.1328 58.5043 32.0016 58.5053C31.8703 58.5063 31.7446 58.5589 31.6518 58.6518C31.559 58.7446 31.5064 58.8702 31.5054 59.0015C31.5044 59.1328 31.5551 59.2592 31.6465 59.3535L37.6465 65.3535C37.7403 65.4472 37.8674 65.4999 38 65.4999C38.1326 65.4999 38.2597 65.4472 38.3535 65.3535L44.3535 59.3535C44.4473 59.2597 44.5 59.1326 44.5 59C44.5001 58.8674 44.4475 58.7402 44.3537 58.6464Z" fill="white" fill-opacity="0.2"/>
</svg>
