<svg width="245" height="604" viewBox="0 0 245 604" fill="none" xmlns="http://www.w3.org/2000/svg">
<mask id="path-1-inside-1_2144_60938" fill="white">
<path d="M0 0H245V604H0V0Z"/>
</mask>
<path d="M0 0H245V604H0V0Z" fill="#1A1A1A"/>
<path d="M245 604V605H246V604H245ZM244 0V604H246V0H244ZM245 603H0V605H245V603Z" fill="#707070" mask="url(#path-1-inside-1_2144_60938)"/>
<path d="M31.7614 309V294.455H33.5227V300.932H41.2784V294.455H43.0398V309H41.2784V302.494H33.5227V309H31.7614ZM50.7706 309.227C49.7857 309.227 48.9216 308.993 48.1783 308.524C47.4396 308.055 46.862 307.4 46.4453 306.557C46.0334 305.714 45.8274 304.729 45.8274 303.602C45.8274 302.466 46.0334 301.474 46.4453 300.626C46.862 299.779 47.4396 299.121 48.1783 298.652C48.9216 298.183 49.7857 297.949 50.7706 297.949C51.7554 297.949 52.6172 298.183 53.3558 298.652C54.0992 299.121 54.6768 299.779 55.0888 300.626C55.5054 301.474 55.7138 302.466 55.7138 303.602C55.7138 304.729 55.5054 305.714 55.0888 306.557C54.6768 307.4 54.0992 308.055 53.3558 308.524C52.6172 308.993 51.7554 309.227 50.7706 309.227ZM50.7706 307.722C51.5187 307.722 52.1342 307.53 52.6172 307.146C53.1001 306.763 53.4576 306.259 53.6896 305.634C53.9216 305.009 54.0376 304.331 54.0376 303.602C54.0376 302.873 53.9216 302.194 53.6896 301.564C53.4576 300.934 53.1001 300.425 52.6172 300.037C52.1342 299.649 51.5187 299.455 50.7706 299.455C50.0225 299.455 49.407 299.649 48.924 300.037C48.4411 300.425 48.0836 300.934 47.8516 301.564C47.6196 302.194 47.5036 302.873 47.5036 303.602C47.5036 304.331 47.6196 305.009 47.8516 305.634C48.0836 306.259 48.4411 306.763 48.924 307.146C49.407 307.53 50.0225 307.722 50.7706 307.722ZM66.8022 298.091L62.7681 309H61.0636L57.0295 298.091H58.8477L61.859 306.784H61.9727L64.984 298.091H66.8022ZM73.1978 309.227C72.1467 309.227 71.2399 308.995 70.4776 308.531C69.7201 308.062 69.1353 307.409 68.7234 306.571C68.3162 305.728 68.1126 304.748 68.1126 303.631C68.1126 302.513 68.3162 301.528 68.7234 300.676C69.1353 299.819 69.7082 299.152 70.4421 298.673C71.1808 298.19 72.0425 297.949 73.0273 297.949C73.5955 297.949 74.1566 298.044 74.7106 298.233C75.2646 298.422 75.7688 298.73 76.2234 299.156C76.6779 299.578 77.0401 300.136 77.31 300.832C77.5799 301.528 77.7148 302.385 77.7148 303.403V304.114H69.3058V302.665H76.0103C76.0103 302.049 75.8872 301.5 75.641 301.017C75.3995 300.534 75.0539 300.153 74.604 299.874C74.159 299.594 73.6334 299.455 73.0273 299.455C72.3597 299.455 71.7821 299.62 71.2944 299.952C70.8114 300.278 70.4397 300.705 70.1793 301.23C69.9189 301.756 69.7887 302.319 69.7887 302.92V303.886C69.7887 304.71 69.9308 305.409 70.2148 305.982C70.5037 306.55 70.9038 306.983 71.4151 307.281C71.9265 307.575 72.5207 307.722 73.1978 307.722C73.6381 307.722 74.0359 307.66 74.391 307.537C74.7508 307.409 75.061 307.22 75.3214 306.969C75.5818 306.713 75.783 306.396 75.9251 306.017L77.5444 306.472C77.3739 307.021 77.0875 307.504 76.685 307.92C76.2826 308.332 75.7854 308.654 75.1935 308.886C74.6017 309.114 73.9364 309.227 73.1978 309.227ZM80.2646 309V298.091H81.8839V299.739H81.9975C82.1964 299.199 82.5562 298.761 83.0771 298.425C83.5979 298.089 84.185 297.92 84.8384 297.92C84.9615 297.92 85.1154 297.923 85.3001 297.928C85.4847 297.932 85.6244 297.939 85.7191 297.949V299.653C85.6623 299.639 85.5321 299.618 85.3285 299.589C85.1296 299.556 84.9189 299.54 84.6964 299.54C84.1661 299.54 83.6926 299.651 83.2759 299.874C82.864 300.091 82.5373 300.394 82.2958 300.783C82.0591 301.166 81.9407 301.604 81.9407 302.097V309H80.2646Z" fill="white" fill-opacity="0.95"/>
</svg>
