<svg width="245" height="214" viewBox="0 0 245 214" fill="none" xmlns="http://www.w3.org/2000/svg">
<mask id="path-1-inside-1_2144_60920" fill="white">
<path d="M0 0H245V214H0V0Z"/>
</mask>
<path d="M0 0H245V214H0V0Z" fill="#1A1A1A"/>
<path d="M245 214V215H246V214H245ZM244 0V214H246V0H244ZM245 213H0V215H245V213Z" fill="#707070" mask="url(#path-1-inside-1_2144_60920)"/>
<path d="M31.7614 114V99.4545H36.6761C37.8125 99.4545 38.7453 99.6487 39.4744 100.037C40.2036 100.42 40.7434 100.948 41.0938 101.621C41.4441 102.293 41.6193 103.058 41.6193 103.915C41.6193 104.772 41.4441 105.532 41.0938 106.195C40.7434 106.857 40.206 107.378 39.4815 107.757C38.7571 108.131 37.8314 108.318 36.7045 108.318H32.7273V106.727H36.6477C37.4242 106.727 38.0492 106.614 38.5227 106.386C39.0009 106.159 39.3466 105.837 39.5597 105.42C39.7775 104.999 39.8864 104.497 39.8864 103.915C39.8864 103.332 39.7775 102.823 39.5597 102.388C39.3419 101.952 38.9938 101.616 38.5156 101.379C38.0374 101.138 37.4053 101.017 36.6193 101.017H33.5227V114H31.7614ZM38.608 107.466L42.1875 114H40.142L36.6193 107.466H38.608ZM48.7837 114.227C47.7326 114.227 46.8259 113.995 46.0636 113.531C45.306 113.062 44.7212 112.409 44.3093 111.571C43.9021 110.728 43.6985 109.748 43.6985 108.631C43.6985 107.513 43.9021 106.528 44.3093 105.676C44.7212 104.819 45.2942 104.152 46.0281 103.673C46.7667 103.19 47.6284 102.949 48.6133 102.949C49.1815 102.949 49.7425 103.044 50.2965 103.233C50.8505 103.422 51.3548 103.73 51.8093 104.156C52.2638 104.578 52.6261 105.136 52.896 105.832C53.1658 106.528 53.3008 107.385 53.3008 108.403V109.114H44.8917V107.665H51.5962C51.5962 107.049 51.4731 106.5 51.2269 106.017C50.9854 105.534 50.6398 105.153 50.19 104.874C49.7449 104.594 49.2193 104.455 48.6133 104.455C47.9457 104.455 47.368 104.62 46.8803 104.952C46.3974 105.278 46.0257 105.705 45.7653 106.23C45.5049 106.756 45.3746 107.319 45.3746 107.92V108.886C45.3746 109.71 45.5167 110.409 45.8008 110.982C46.0896 111.55 46.4897 111.983 47.0011 112.281C47.5124 112.575 48.1067 112.722 48.7837 112.722C49.2241 112.722 49.6218 112.66 49.9769 112.537C50.3368 112.409 50.6469 112.22 50.9073 111.969C51.1677 111.713 51.369 111.396 51.511 111.017L53.1303 111.472C52.9599 112.021 52.6734 112.504 52.271 112.92C51.8685 113.332 51.3713 113.654 50.7795 113.886C50.1876 114.114 49.5224 114.227 48.7837 114.227ZM63.5778 105.534L62.0721 105.96C61.9774 105.709 61.8377 105.465 61.6531 105.229C61.4731 104.987 61.2269 104.788 60.9144 104.632C60.6019 104.476 60.2018 104.398 59.7141 104.398C59.0465 104.398 58.4902 104.552 58.0451 104.859C57.6048 105.162 57.3846 105.548 57.3846 106.017C57.3846 106.434 57.5361 106.763 57.8391 107.004C58.1422 107.246 58.6156 107.447 59.2596 107.608L60.8789 108.006C61.8543 108.242 62.5811 108.605 63.0593 109.092C63.5375 109.575 63.7766 110.198 63.7766 110.96C63.7766 111.585 63.5967 112.144 63.2369 112.636C62.8817 113.129 62.3846 113.517 61.7454 113.801C61.1062 114.085 60.3628 114.227 59.5153 114.227C58.4026 114.227 57.4817 113.986 56.7525 113.503C56.0233 113.02 55.5617 112.314 55.3675 111.386L56.9585 110.989C57.11 111.576 57.3964 112.016 57.8178 112.31C58.244 112.603 58.8003 112.75 59.4869 112.75C60.2681 112.75 60.8884 112.584 61.3477 112.253C61.8117 111.917 62.0437 111.514 62.0437 111.045C62.0437 110.667 61.9111 110.349 61.646 110.094C61.3808 109.833 60.9736 109.639 60.4244 109.511L58.6062 109.085C57.6071 108.848 56.8732 108.482 56.4045 107.984C55.9405 107.482 55.7085 106.855 55.7085 106.102C55.7085 105.487 55.8813 104.942 56.2269 104.469C56.5773 103.995 57.0531 103.624 57.6545 103.354C58.2605 103.084 58.9471 102.949 59.7141 102.949C60.7937 102.949 61.6412 103.186 62.2567 103.659C62.877 104.133 63.3174 104.758 63.5778 105.534ZM71.044 103.091V104.511H65.3906V103.091H71.044ZM67.0384 100.477H68.7145V110.875C68.7145 111.348 68.7831 111.704 68.9205 111.94C69.0625 112.172 69.2424 112.329 69.4602 112.409C69.6828 112.485 69.9171 112.523 70.1634 112.523C70.348 112.523 70.4995 112.513 70.6179 112.494C70.7363 112.471 70.831 112.452 70.902 112.438L71.2429 113.943C71.1293 113.986 70.9706 114.028 70.767 114.071C70.5634 114.118 70.3054 114.142 69.9929 114.142C69.5194 114.142 69.0554 114.04 68.6009 113.837C68.151 113.633 67.777 113.323 67.4787 112.906C67.1851 112.49 67.0384 111.964 67.0384 111.33V100.477Z" fill="white" fill-opacity="0.95"/>
</svg>
