<svg width="244" height="214" viewBox="0 0 244 214" fill="none" xmlns="http://www.w3.org/2000/svg">
<mask id="path-1-inside-1_2144_60782" fill="white">
<path d="M0 0H244V214H0V0Z"/>
</mask>
<path d="M0 0H244V214H0V0Z" fill="#1A1A1A"/>
<path d="M244 214V215H245V214H244ZM243 0V214H245V0H243ZM244 213H0V215H244V213Z" fill="#707070" mask="url(#path-1-inside-1_2144_60782)"/>
<path d="M31.7614 114V99.4545H33.5227V112.438H40.2841V114H31.7614ZM45.9943 114.256C45.303 114.256 44.6757 114.125 44.1122 113.865C43.5488 113.6 43.1013 113.219 42.7699 112.722C42.4384 112.22 42.2727 111.614 42.2727 110.903C42.2727 110.278 42.3958 109.772 42.642 109.384C42.8883 108.991 43.2173 108.683 43.6293 108.46C44.0412 108.238 44.4957 108.072 44.9929 107.963C45.4948 107.849 45.9991 107.759 46.5057 107.693C47.1686 107.608 47.706 107.544 48.1179 107.501C48.5346 107.454 48.8376 107.376 49.027 107.267C49.2211 107.158 49.3182 106.969 49.3182 106.699V106.642C49.3182 105.941 49.1264 105.397 48.7429 105.009C48.3641 104.62 47.7888 104.426 47.017 104.426C46.2169 104.426 45.5895 104.601 45.1349 104.952C44.6804 105.302 44.3608 105.676 44.1761 106.074L42.5852 105.506C42.8693 104.843 43.2481 104.327 43.7216 103.957C44.1998 103.583 44.7206 103.323 45.2841 103.176C45.8523 103.025 46.411 102.949 46.9602 102.949C47.3106 102.949 47.7131 102.991 48.1676 103.077C48.6269 103.157 49.0696 103.325 49.4957 103.581C49.9266 103.837 50.2841 104.223 50.5682 104.739C50.8523 105.255 50.9943 105.946 50.9943 106.812V114H49.3182V112.523H49.233C49.1193 112.759 48.9299 113.013 48.6648 113.283C48.3996 113.553 48.0469 113.782 47.6065 113.972C47.1662 114.161 46.6288 114.256 45.9943 114.256ZM46.25 112.75C46.9129 112.75 47.4716 112.62 47.9261 112.359C48.3854 112.099 48.7311 111.763 48.9631 111.351C49.1998 110.939 49.3182 110.506 49.3182 110.051V108.517C49.2472 108.602 49.0909 108.68 48.8494 108.751C48.6127 108.818 48.3381 108.877 48.0256 108.929C47.7178 108.976 47.4171 109.019 47.1236 109.057C46.8348 109.09 46.6004 109.118 46.4205 109.142C45.9848 109.199 45.5777 109.291 45.1989 109.419C44.8248 109.542 44.5218 109.729 44.2898 109.98C44.0625 110.226 43.9489 110.562 43.9489 110.989C43.9489 111.571 44.1643 112.011 44.5952 112.31C45.0308 112.603 45.5824 112.75 46.25 112.75ZM54.2809 114V99.4545H55.957V104.824H56.0991C56.2222 104.634 56.3926 104.393 56.6104 104.099C56.833 103.801 57.1502 103.536 57.5621 103.304C57.9788 103.067 58.5423 102.949 59.2525 102.949C60.171 102.949 60.9807 103.179 61.6815 103.638C62.3822 104.097 62.9291 104.748 63.3221 105.591C63.7151 106.434 63.9116 107.428 63.9116 108.574C63.9116 109.729 63.7151 110.731 63.3221 111.578C62.9291 112.421 62.3846 113.074 61.6886 113.538C60.9925 113.998 60.19 114.227 59.2809 114.227C58.5801 114.227 58.0191 114.111 57.5977 113.879C57.1763 113.643 56.8519 113.375 56.6246 113.077C56.3974 112.774 56.2222 112.523 56.0991 112.324H55.9002V114H54.2809ZM55.9286 108.545C55.9286 109.369 56.0494 110.096 56.2908 110.726C56.5323 111.351 56.8851 111.841 57.3491 112.196C57.8131 112.546 58.3813 112.722 59.0536 112.722C59.7544 112.722 60.3391 112.537 60.8079 112.168C61.2814 111.794 61.6365 111.292 61.8732 110.662C62.1147 110.027 62.2354 109.322 62.2354 108.545C62.2354 107.778 62.1171 107.087 61.8803 106.472C61.6483 105.851 61.2956 105.361 60.8221 105.001C60.3533 104.637 59.7638 104.455 59.0536 104.455C58.3718 104.455 57.7989 104.627 57.3349 104.973C56.8709 105.314 56.5205 105.792 56.2837 106.408C56.047 107.018 55.9286 107.731 55.9286 108.545ZM71.0494 114.227C69.9982 114.227 69.0915 113.995 68.3292 113.531C67.5716 113.062 66.9869 112.409 66.5749 111.571C66.1677 110.728 65.9641 109.748 65.9641 108.631C65.9641 107.513 66.1677 106.528 66.5749 105.676C66.9869 104.819 67.5598 104.152 68.2937 103.673C69.0323 103.19 69.8941 102.949 70.8789 102.949C71.4471 102.949 72.0082 103.044 72.5621 103.233C73.1161 103.422 73.6204 103.73 74.0749 104.156C74.5295 104.578 74.8917 105.136 75.1616 105.832C75.4315 106.528 75.5664 107.385 75.5664 108.403V109.114H67.1573V107.665H73.8619C73.8619 107.049 73.7388 106.5 73.4925 106.017C73.2511 105.534 72.9054 105.153 72.4556 104.874C72.0105 104.594 71.485 104.455 70.8789 104.455C70.2113 104.455 69.6336 104.62 69.146 104.952C68.663 105.278 68.2913 105.705 68.0309 106.23C67.7705 106.756 67.6403 107.319 67.6403 107.92V108.886C67.6403 109.71 67.7823 110.409 68.0664 110.982C68.3552 111.55 68.7553 111.983 69.2667 112.281C69.7781 112.575 70.3723 112.722 71.0494 112.722C71.4897 112.722 71.8874 112.66 72.2425 112.537C72.6024 112.409 72.9125 112.22 73.1729 111.969C73.4334 111.713 73.6346 111.396 73.7766 111.017L75.396 111.472C75.2255 112.021 74.939 112.504 74.5366 112.92C74.1341 113.332 73.637 113.654 73.0451 113.886C72.4532 114.114 71.788 114.227 71.0494 114.227ZM79.7923 99.4545V114H78.1161V99.4545H79.7923Z" fill="white" fill-opacity="0.95"/>
</svg>
