<svg width="220" height="908" viewBox="0 0 220 908" fill="none" xmlns="http://www.w3.org/2000/svg">
<mask id="path-1-inside-1_2144_60793" fill="white">
<path d="M0 0H220V908H0V0Z"/>
</mask>
<path d="M0 0H220V908H0V0Z" fill="#1A1A1A"/>
<path d="M220 908V909H221V908H220ZM219 0V908H221V0H219ZM220 907H0V909H220V907Z" fill="#707070" mask="url(#path-1-inside-1_2144_60793)"/>
<path d="M34.4034 461L30.4261 446.455H32.2159L35.2557 458.301H35.3977L38.4943 446.455H40.483L43.5795 458.301H43.7216L46.7614 446.455H48.5511L44.5739 461H42.7557L39.5455 449.409H39.4318L36.2216 461H34.4034ZM50.4901 461V459.722L55.2912 454.466C55.8546 453.85 56.3187 453.315 56.6832 452.861C57.0478 452.402 57.3177 451.971 57.4929 451.568C57.6728 451.161 57.7628 450.735 57.7628 450.29C57.7628 449.778 57.6397 449.336 57.3935 448.962C57.152 448.588 56.8205 448.299 56.3991 448.095C55.9777 447.892 55.5043 447.79 54.9787 447.79C54.42 447.79 53.9323 447.906 53.5156 448.138C53.1037 448.365 52.7841 448.685 52.5568 449.097C52.3343 449.509 52.223 449.991 52.223 450.545H50.5469C50.5469 449.693 50.7434 448.945 51.1364 448.301C51.5294 447.657 52.0644 447.155 52.7415 446.795C53.4233 446.436 54.188 446.256 55.0355 446.256C55.8878 446.256 56.643 446.436 57.3011 446.795C57.9593 447.155 58.4754 447.641 58.8494 448.251C59.2235 448.862 59.4105 449.542 59.4105 450.29C59.4105 450.825 59.3134 451.348 59.1193 451.859C58.9299 452.366 58.5985 452.932 58.125 453.557C57.6562 454.177 57.0052 454.935 56.1719 455.83L52.9048 459.324V459.438H59.6662V461H50.4901ZM67.3438 461.199C66.2737 461.199 65.3622 460.908 64.6094 460.325C63.8565 459.738 63.2813 458.888 62.8835 457.776C62.4858 456.658 62.2869 455.309 62.2869 453.727C62.2869 452.155 62.4858 450.813 62.8835 449.7C63.286 448.583 63.8636 447.731 64.6165 447.143C65.3741 446.552 66.2831 446.256 67.3438 446.256C68.4044 446.256 69.3111 446.552 70.0639 447.143C70.8215 447.731 71.3991 448.583 71.7969 449.7C72.1993 450.813 72.4006 452.155 72.4006 453.727C72.4006 455.309 72.2017 456.658 71.804 457.776C71.4062 458.888 70.831 459.738 70.0781 460.325C69.3253 460.908 68.4138 461.199 67.3438 461.199ZM67.3438 459.636C68.4044 459.636 69.2282 459.125 69.8153 458.102C70.4025 457.08 70.696 455.621 70.696 453.727C70.696 452.468 70.5611 451.395 70.2912 450.51C70.026 449.625 69.6425 448.95 69.1406 448.486C68.6435 448.022 68.0445 447.79 67.3438 447.79C66.2926 447.79 65.4711 448.308 64.8793 449.345C64.2874 450.377 63.9915 451.838 63.9915 453.727C63.9915 454.987 64.1241 456.057 64.3892 456.938C64.6544 457.818 65.0355 458.488 65.5327 458.947C66.0346 459.407 66.6383 459.636 67.3438 459.636ZM75.1278 465.091V450.091H76.7472V451.824H76.946C77.0691 451.634 77.2396 451.393 77.4574 451.099C77.6799 450.801 77.9972 450.536 78.4091 450.304C78.8258 450.067 79.3892 449.949 80.0994 449.949C81.018 449.949 81.8277 450.179 82.5284 450.638C83.2292 451.097 83.776 451.748 84.169 452.591C84.562 453.434 84.7585 454.428 84.7585 455.574C84.7585 456.729 84.562 457.731 84.169 458.578C83.776 459.421 83.2315 460.074 82.5355 460.538C81.8395 460.998 81.0369 461.227 80.1278 461.227C79.4271 461.227 78.866 461.111 78.4446 460.879C78.0232 460.643 77.6989 460.375 77.4716 460.077C77.2443 459.774 77.0691 459.523 76.946 459.324H76.804V465.091H75.1278ZM76.7756 455.545C76.7756 456.369 76.8963 457.096 77.1378 457.726C77.3793 458.351 77.732 458.841 78.196 459.196C78.66 459.546 79.2282 459.722 79.9006 459.722C80.6013 459.722 81.1861 459.537 81.6548 459.168C82.1283 458.794 82.4834 458.292 82.7202 457.662C82.9616 457.027 83.0824 456.322 83.0824 455.545C83.0824 454.778 82.964 454.087 82.7273 453.472C82.4953 452.851 82.1425 452.361 81.669 452.001C81.2003 451.637 80.6108 451.455 79.9006 451.455C79.2188 451.455 78.6458 451.627 78.1818 451.973C77.7178 452.314 77.3674 452.792 77.1307 453.408C76.8939 454.018 76.7756 454.731 76.7756 455.545ZM88.1161 450.091L90.7298 454.551L93.3434 450.091H95.2752L91.7525 455.545L95.2752 461H93.3434L90.7298 456.767L88.1161 461H86.1843L89.6502 455.545L86.1843 450.091H88.1161ZM104.542 450.091L107.156 454.551L109.769 450.091H111.701L108.178 455.545L111.701 461H109.769L107.156 456.767L104.542 461H102.61L106.076 455.545L102.61 450.091H104.542ZM119.945 461V446.455H121.706V452.932H129.462V446.455H131.223V461H129.462V454.494H121.706V461H119.945ZM134.494 461V459.722L139.295 454.466C139.859 453.85 140.323 453.315 140.687 452.861C141.052 452.402 141.322 451.971 141.497 451.568C141.677 451.161 141.767 450.735 141.767 450.29C141.767 449.778 141.644 449.336 141.397 448.962C141.156 448.588 140.824 448.299 140.403 448.095C139.982 447.892 139.508 447.79 138.983 447.79C138.424 447.79 137.936 447.906 137.52 448.138C137.108 448.365 136.788 448.685 136.561 449.097C136.338 449.509 136.227 449.991 136.227 450.545H134.551C134.551 449.693 134.747 448.945 135.14 448.301C135.533 447.657 136.068 447.155 136.745 446.795C137.427 446.436 138.192 446.256 139.039 446.256C139.892 446.256 140.647 446.436 141.305 446.795C141.963 447.155 142.479 447.641 142.853 448.251C143.227 448.862 143.414 449.542 143.414 450.29C143.414 450.825 143.317 451.348 143.123 451.859C142.934 452.366 142.602 452.932 142.129 453.557C141.66 454.177 141.009 454.935 140.176 455.83L136.909 459.324V459.438H143.67V461H134.494ZM151.348 461.199C150.278 461.199 149.366 460.908 148.613 460.325C147.86 459.738 147.285 458.888 146.887 457.776C146.49 456.658 146.291 455.309 146.291 453.727C146.291 452.155 146.49 450.813 146.887 449.7C147.29 448.583 147.868 447.731 148.62 447.143C149.378 446.552 150.287 446.256 151.348 446.256C152.408 446.256 153.315 446.552 154.068 447.143C154.825 447.731 155.403 448.583 155.801 449.7C156.203 450.813 156.404 452.155 156.404 453.727C156.404 455.309 156.206 456.658 155.808 457.776C155.41 458.888 154.835 459.738 154.082 460.325C153.329 460.908 152.418 461.199 151.348 461.199ZM151.348 459.636C152.408 459.636 153.232 459.125 153.819 458.102C154.406 457.08 154.7 455.621 154.7 453.727C154.7 452.468 154.565 451.395 154.295 450.51C154.03 449.625 153.646 448.95 153.145 448.486C152.647 448.022 152.048 447.79 151.348 447.79C150.297 447.79 149.475 448.308 148.883 449.345C148.291 450.377 147.995 451.838 147.995 453.727C147.995 454.987 148.128 456.057 148.393 456.938C148.658 457.818 149.039 458.488 149.537 458.947C150.038 459.407 150.642 459.636 151.348 459.636ZM159.132 465.091V450.091H160.751V451.824H160.95C161.073 451.634 161.243 451.393 161.461 451.099C161.684 450.801 162.001 450.536 162.413 450.304C162.83 450.067 163.393 449.949 164.103 449.949C165.022 449.949 165.832 450.179 166.532 450.638C167.233 451.097 167.78 451.748 168.173 452.591C168.566 453.434 168.762 454.428 168.762 455.574C168.762 456.729 168.566 457.731 168.173 458.578C167.78 459.421 167.235 460.074 166.539 460.538C165.843 460.998 165.041 461.227 164.132 461.227C163.431 461.227 162.87 461.111 162.449 460.879C162.027 460.643 161.703 460.375 161.475 460.077C161.248 459.774 161.073 459.523 160.95 459.324H160.808V465.091H159.132ZM160.779 455.545C160.779 456.369 160.9 457.096 161.142 457.726C161.383 458.351 161.736 458.841 162.2 459.196C162.664 459.546 163.232 459.722 163.904 459.722C164.605 459.722 165.19 459.537 165.659 459.168C166.132 458.794 166.487 458.292 166.724 457.662C166.966 457.027 167.086 456.322 167.086 455.545C167.086 454.778 166.968 454.087 166.731 453.472C166.499 452.851 166.146 452.361 165.673 452.001C165.204 451.637 164.615 451.455 163.904 451.455C163.223 451.455 162.65 451.627 162.186 451.973C161.722 452.314 161.371 452.792 161.135 453.408C160.898 454.018 160.779 454.731 160.779 455.545ZM172.12 450.091L174.734 454.551L177.347 450.091H179.279L175.756 455.545L179.279 461H177.347L174.734 456.767L172.12 461H170.188L173.654 455.545L170.188 450.091H172.12Z" fill="white" fill-opacity="0.95"/>
</svg>
