<svg width="245" height="214" viewBox="0 0 245 214" fill="none" xmlns="http://www.w3.org/2000/svg">
<mask id="path-1-inside-1_2144_60855" fill="white">
<path d="M0 0H245V214H0V0Z"/>
</mask>
<path d="M0 0H245V214H0V0Z" fill="#1A1A1A"/>
<path d="M245 214V215H246V214H245ZM244 0V214H246V0H244ZM245 213H0V215H245V213Z" fill="#707070" mask="url(#path-1-inside-1_2144_60855)"/>
<path d="M36.25 114H31.7614V99.4545H36.4489C37.8598 99.4545 39.0672 99.7457 40.071 100.328C41.0748 100.906 41.8442 101.737 42.3793 102.821C42.9143 103.901 43.1818 105.193 43.1818 106.699C43.1818 108.214 42.9119 109.518 42.3722 110.612C41.8324 111.701 41.0464 112.539 40.0142 113.126C38.982 113.709 37.7273 114 36.25 114ZM33.5227 112.438H36.1364C37.339 112.438 38.3357 112.205 39.1264 111.741C39.9171 111.277 40.5066 110.617 40.8949 109.76C41.2831 108.903 41.4773 107.883 41.4773 106.699C41.4773 105.525 41.2855 104.514 40.902 103.666C40.5185 102.814 39.9455 102.161 39.1832 101.706C38.4209 101.247 37.4716 101.017 36.3352 101.017H33.5227V112.438ZM50.483 114.227C49.4318 114.227 48.5251 113.995 47.7628 113.531C47.0052 113.062 46.4205 112.409 46.0085 111.571C45.6013 110.728 45.3977 109.748 45.3977 108.631C45.3977 107.513 45.6013 106.528 46.0085 105.676C46.4205 104.819 46.9934 104.152 47.7273 103.673C48.4659 103.19 49.3277 102.949 50.3125 102.949C50.8807 102.949 51.4418 103.044 51.9957 103.233C52.5497 103.422 53.054 103.73 53.5085 104.156C53.9631 104.578 54.3253 105.136 54.5952 105.832C54.8651 106.528 55 107.385 55 108.403V109.114H46.5909V107.665H53.2955C53.2955 107.049 53.1723 106.5 52.9261 106.017C52.6847 105.534 52.339 105.153 51.8892 104.874C51.4441 104.594 50.9186 104.455 50.3125 104.455C49.6449 104.455 49.0672 104.62 48.5795 104.952C48.0966 105.278 47.7249 105.705 47.4645 106.23C47.2041 106.756 47.0739 107.319 47.0739 107.92V108.886C47.0739 109.71 47.2159 110.409 47.5 110.982C47.7888 111.55 48.1889 111.983 48.7003 112.281C49.2116 112.575 49.8059 112.722 50.483 112.722C50.9233 112.722 51.321 112.66 51.6761 112.537C52.036 112.409 52.3461 112.22 52.6065 111.969C52.867 111.713 53.0682 111.396 53.2102 111.017L54.8295 111.472C54.6591 112.021 54.3726 112.504 53.9702 112.92C53.5677 113.332 53.0705 113.654 52.4787 113.886C51.8868 114.114 51.2216 114.227 50.483 114.227ZM62.4077 103.091V104.511H56.527V103.091H62.4077ZM58.2884 114V101.585C58.2884 100.96 58.4351 100.439 58.7287 100.023C59.0223 99.6061 59.4034 99.2936 59.8722 99.0852C60.3409 98.8769 60.8357 98.7727 61.3565 98.7727C61.7685 98.7727 62.1046 98.8059 62.3651 98.8722C62.6255 98.9384 62.8196 99 62.9474 99.0568L62.4645 100.506C62.3793 100.477 62.2609 100.442 62.1094 100.399C61.9626 100.357 61.7685 100.335 61.527 100.335C60.973 100.335 60.5729 100.475 60.3267 100.754C60.0852 101.034 59.9645 101.443 59.9645 101.983V114H58.2884ZM67.6545 114.256C66.9632 114.256 66.3358 114.125 65.7724 113.865C65.2089 113.6 64.7615 113.219 64.43 112.722C64.0986 112.22 63.9329 111.614 63.9329 110.903C63.9329 110.278 64.056 109.772 64.3022 109.384C64.5484 108.991 64.8775 108.683 65.2894 108.46C65.7013 108.238 66.1559 108.072 66.6531 107.963C67.1549 107.849 67.6592 107.759 68.1658 107.693C68.8287 107.608 69.3661 107.544 69.7781 107.501C70.1947 107.454 70.4978 107.376 70.6871 107.267C70.8813 107.158 70.9783 106.969 70.9783 106.699V106.642C70.9783 105.941 70.7866 105.397 70.4031 105.009C70.0243 104.62 69.449 104.426 68.6772 104.426C67.877 104.426 67.2496 104.601 66.7951 104.952C66.3406 105.302 66.021 105.676 65.8363 106.074L64.2454 105.506C64.5295 104.843 64.9083 104.327 65.3817 103.957C65.86 103.583 66.3808 103.323 66.9442 103.176C67.5124 103.025 68.0711 102.949 68.6204 102.949C68.9708 102.949 69.3732 102.991 69.8278 103.077C70.2871 103.157 70.7298 103.325 71.1559 103.581C71.5868 103.837 71.9442 104.223 72.2283 104.739C72.5124 105.255 72.6545 105.946 72.6545 106.812V114H70.9783V112.523H70.8931C70.7795 112.759 70.5901 113.013 70.3249 113.283C70.0598 113.553 69.707 113.782 69.2667 113.972C68.8263 114.161 68.2889 114.256 67.6545 114.256ZM67.9102 112.75C68.573 112.75 69.1317 112.62 69.5863 112.359C70.0456 112.099 70.3912 111.763 70.6232 111.351C70.86 110.939 70.9783 110.506 70.9783 110.051V108.517C70.9073 108.602 70.7511 108.68 70.5096 108.751C70.2728 108.818 69.9982 108.877 69.6857 108.929C69.378 108.976 69.0773 109.019 68.7837 109.057C68.4949 109.09 68.2605 109.118 68.0806 109.142C67.645 109.199 67.2378 109.291 66.859 109.419C66.485 109.542 66.1819 109.729 65.9499 109.98C65.7227 110.226 65.609 110.562 65.609 110.989C65.609 111.571 65.8245 112.011 66.2553 112.31C66.6909 112.603 67.2425 112.75 67.9102 112.75ZM82.5888 109.54V103.091H84.2649V114H82.5888V112.153H82.4751C82.2195 112.707 81.8217 113.179 81.282 113.567C80.7422 113.95 80.0604 114.142 79.2365 114.142C78.5547 114.142 77.9486 113.993 77.4183 113.695C76.888 113.392 76.4714 112.937 76.1683 112.331C75.8653 111.72 75.7138 110.951 75.7138 110.023V103.091H77.3899V109.909C77.3899 110.705 77.6125 111.339 78.0575 111.812C78.5073 112.286 79.0803 112.523 79.7763 112.523C80.1929 112.523 80.6167 112.416 81.0476 112.203C81.4832 111.99 81.8478 111.663 82.1413 111.223C82.4396 110.783 82.5888 110.222 82.5888 109.54ZM89.011 99.4545V114H87.3349V99.4545H89.011ZM96.8253 103.091V104.511H91.1719V103.091H96.8253ZM92.8196 100.477H94.4957V110.875C94.4957 111.348 94.5644 111.704 94.7017 111.94C94.8438 112.172 95.0237 112.329 95.2415 112.409C95.464 112.485 95.6984 112.523 95.9446 112.523C96.1293 112.523 96.2808 112.513 96.3991 112.494C96.5175 112.471 96.6122 112.452 96.6832 112.438L97.0241 113.943C96.9105 113.986 96.7519 114.028 96.5483 114.071C96.3447 114.118 96.0866 114.142 95.7741 114.142C95.3007 114.142 94.8366 114.04 94.3821 113.837C93.9323 113.633 93.5582 113.323 93.2599 112.906C92.9664 112.49 92.8196 111.964 92.8196 111.33V100.477Z" fill="white" fill-opacity="0.95"/>
</svg>
