<svg width="244" height="214" viewBox="0 0 244 214" fill="none" xmlns="http://www.w3.org/2000/svg">
<mask id="path-1-inside-1_2144_60937" fill="white">
<path d="M0 0H244V214H0V0Z"/>
</mask>
<path d="M0 0H244V214H0V0Z" fill="#1A1A1A"/>
<path d="M244 214V215H245V214H244ZM243 0V214H245V0H243ZM244 213H0V215H244V213Z" fill="#707070" mask="url(#path-1-inside-1_2144_60937)"/>
<path d="M36.25 99H31.7614V84.4545H36.4489C37.8598 84.4545 39.0672 84.7457 40.071 85.3281C41.0748 85.9058 41.8442 86.7367 42.3793 87.821C42.9143 88.9006 43.1818 90.1932 43.1818 91.6989C43.1818 93.214 42.9119 94.5185 42.3722 95.6122C41.8324 96.7012 41.0464 97.5393 40.0142 98.1264C38.982 98.7088 37.7273 99 36.25 99ZM33.5227 97.4375H36.1364C37.339 97.4375 38.3357 97.2055 39.1264 96.7415C39.9171 96.2775 40.5066 95.617 40.8949 94.7599C41.2831 93.9029 41.4773 92.8826 41.4773 91.6989C41.4773 90.5246 41.2855 89.5137 40.902 88.6662C40.5185 87.8139 39.9455 87.1605 39.1832 86.706C38.4209 86.2467 37.4716 86.017 36.3352 86.017H33.5227V97.4375ZM45.9091 99V88.0909H47.5284V89.7386H47.642C47.8409 89.1989 48.2008 88.7609 48.7216 88.4247C49.2424 88.0885 49.8295 87.9205 50.483 87.9205C50.6061 87.9205 50.7599 87.9228 50.9446 87.9276C51.1293 87.9323 51.2689 87.9394 51.3636 87.9489V89.6534C51.3068 89.6392 51.1766 89.6179 50.973 89.5895C50.7741 89.5563 50.5634 89.5398 50.3409 89.5398C49.8106 89.5398 49.3371 89.651 48.9205 89.8736C48.5085 90.0914 48.1818 90.3944 47.9403 90.7827C47.7036 91.1662 47.5852 91.6042 47.5852 92.0966V99H45.9091ZM57.4503 99.2273C56.4654 99.2273 55.6013 98.9929 54.858 98.5241C54.1193 98.0554 53.5417 97.3996 53.125 96.5568C52.7131 95.714 52.5071 94.7292 52.5071 93.6023C52.5071 92.4659 52.7131 91.474 53.125 90.6264C53.5417 89.7789 54.1193 89.1207 54.858 88.652C55.6013 88.1832 56.4654 87.9489 57.4503 87.9489C58.4351 87.9489 59.2969 88.1832 60.0355 88.652C60.7789 89.1207 61.3565 89.7789 61.7685 90.6264C62.1851 91.474 62.3935 92.4659 62.3935 93.6023C62.3935 94.7292 62.1851 95.714 61.7685 96.5568C61.3565 97.3996 60.7789 98.0554 60.0355 98.5241C59.2969 98.9929 58.4351 99.2273 57.4503 99.2273ZM57.4503 97.7216C58.1984 97.7216 58.8139 97.5298 59.2969 97.1463C59.7798 96.7628 60.1373 96.2585 60.3693 95.6335C60.6013 95.0085 60.7173 94.3314 60.7173 93.6023C60.7173 92.8731 60.6013 92.1937 60.3693 91.5639C60.1373 90.9342 59.7798 90.4252 59.2969 90.0369C58.8139 89.6487 58.1984 89.4545 57.4503 89.4545C56.7022 89.4545 56.0866 89.6487 55.6037 90.0369C55.1207 90.4252 54.7633 90.9342 54.5312 91.5639C54.2992 92.1937 54.1832 92.8731 54.1832 93.6023C54.1832 94.3314 54.2992 95.0085 54.5312 95.6335C54.7633 96.2585 55.1207 96.7628 55.6037 97.1463C56.0866 97.5298 56.7022 97.7216 57.4503 97.7216ZM64.9521 103.091V88.0909H66.5714V89.8239H66.7702C66.8933 89.6345 67.0638 89.393 67.2816 89.0994C67.5041 88.8011 67.8214 88.536 68.2333 88.304C68.65 88.0672 69.2134 87.9489 69.9237 87.9489C70.8422 87.9489 71.6519 88.1785 72.3526 88.6378C73.0534 89.0971 73.6003 89.7481 73.9933 90.5909C74.3862 91.4337 74.5827 92.428 74.5827 93.5739C74.5827 94.7292 74.3862 95.7306 73.9933 96.5781C73.6003 97.4209 73.0558 98.0743 72.3597 98.5384C71.6637 98.9976 70.8612 99.2273 69.9521 99.2273C69.2513 99.2273 68.6902 99.1113 68.2688 98.8793C67.8474 98.6425 67.5231 98.375 67.2958 98.0767C67.0685 97.7737 66.8933 97.5227 66.7702 97.3239H66.6282V103.091H64.9521ZM66.5998 93.5455C66.5998 94.3693 66.7205 95.0961 66.962 95.7259C67.2035 96.3509 67.5562 96.8409 68.0202 97.196C68.4843 97.5464 69.0524 97.7216 69.7248 97.7216C70.4255 97.7216 71.0103 97.5369 71.479 97.1676C71.9525 96.7936 72.3076 96.2917 72.5444 95.6619C72.7859 95.0275 72.9066 94.322 72.9066 93.5455C72.9066 92.7784 72.7882 92.0871 72.5515 91.4716C72.3195 90.8513 71.9667 90.3613 71.4933 90.0014C71.0245 89.6368 70.435 89.4545 69.7248 89.4545C69.043 89.4545 68.4701 89.6274 68.006 89.973C67.542 90.3139 67.1916 90.7921 66.9549 91.4077C66.7182 92.0185 66.5998 92.7311 66.5998 93.5455ZM81.2589 99.2273C80.3498 99.2273 79.5472 98.9976 78.8512 98.5384C78.1552 98.0743 77.6107 97.4209 77.2177 96.5781C76.8247 95.7306 76.6282 94.7292 76.6282 93.5739C76.6282 92.428 76.8247 91.4337 77.2177 90.5909C77.6107 89.7481 78.1576 89.0971 78.8583 88.6378C79.5591 88.1785 80.3687 87.9489 81.2873 87.9489C81.9975 87.9489 82.5586 88.0672 82.9705 88.304C83.3872 88.536 83.7044 88.8011 83.9222 89.0994C84.1448 89.393 84.3176 89.6345 84.4407 89.8239H84.5827V84.4545H86.2589V99H84.6396V97.3239H84.4407C84.3176 97.5227 84.1424 97.7737 83.9151 98.0767C83.6879 98.375 83.3635 98.6425 82.9421 98.8793C82.5207 99.1113 81.9596 99.2273 81.2589 99.2273ZM81.4862 97.7216C82.1585 97.7216 82.7267 97.5464 83.1907 97.196C83.6547 96.8409 84.0075 96.3509 84.2489 95.7259C84.4904 95.0961 84.6112 94.3693 84.6112 93.5455C84.6112 92.7311 84.4928 92.0185 84.256 91.4077C84.0193 90.7921 83.6689 90.3139 83.2049 89.973C82.7409 89.6274 82.168 89.4545 81.4862 89.4545C80.7759 89.4545 80.1841 89.6368 79.7106 90.0014C79.2418 90.3613 78.8891 90.8513 78.6523 91.4716C78.4203 92.0871 78.3043 92.7784 78.3043 93.5455C78.3043 94.322 78.4227 95.0275 78.6594 95.6619C78.9009 96.2917 79.256 96.7936 79.7248 97.1676C80.1983 97.5369 80.7854 97.7216 81.4862 97.7216ZM93.9933 99.2273C93.0084 99.2273 92.1443 98.9929 91.4009 98.5241C90.6623 98.0554 90.0846 97.3996 89.668 96.5568C89.256 95.714 89.0501 94.7292 89.0501 93.6023C89.0501 92.4659 89.256 91.474 89.668 90.6264C90.0846 89.7789 90.6623 89.1207 91.4009 88.652C92.1443 88.1832 93.0084 87.9489 93.9933 87.9489C94.9781 87.9489 95.8398 88.1832 96.5785 88.652C97.3219 89.1207 97.8995 89.7789 98.3114 90.6264C98.7281 91.474 98.9364 92.4659 98.9364 93.6023C98.9364 94.7292 98.7281 95.714 98.3114 96.5568C97.8995 97.3996 97.3219 98.0554 96.5785 98.5241C95.8398 98.9929 94.9781 99.2273 93.9933 99.2273ZM93.9933 97.7216C94.7414 97.7216 95.3569 97.5298 95.8398 97.1463C96.3228 96.7628 96.6803 96.2585 96.9123 95.6335C97.1443 95.0085 97.2603 94.3314 97.2603 93.6023C97.2603 92.8731 97.1443 92.1937 96.9123 91.5639C96.6803 90.9342 96.3228 90.4252 95.8398 90.0369C95.3569 89.6487 94.7414 89.4545 93.9933 89.4545C93.2451 89.4545 92.6296 89.6487 92.1467 90.0369C91.6637 90.4252 91.3062 90.9342 91.0742 91.5639C90.8422 92.1937 90.7262 92.8731 90.7262 93.6023C90.7262 94.3314 90.8422 95.0085 91.0742 95.6335C91.3062 96.2585 91.6637 96.7628 92.1467 97.1463C92.6296 97.5298 93.2451 97.7216 93.9933 97.7216ZM103.596 99L100.272 88.0909H102.033L104.391 96.4432H104.505L106.834 88.0909H108.624L110.925 96.4148H111.039L113.397 88.0909H115.158L111.834 99H110.186L107.8 90.6193H107.63L105.243 99H103.596ZM119.05 92.4375V99H117.374V88.0909H118.993V89.7955H119.135C119.391 89.2415 119.779 88.7964 120.3 88.4602C120.821 88.1193 121.493 87.9489 122.317 87.9489C123.056 87.9489 123.702 88.1004 124.256 88.4034C124.81 88.7017 125.241 89.1562 125.549 89.767C125.856 90.3731 126.01 91.1402 126.01 92.0682V99H124.334V92.1818C124.334 91.3248 124.112 90.6572 123.667 90.179C123.221 89.696 122.611 89.4545 121.834 89.4545C121.299 89.4545 120.821 89.5705 120.4 89.8026C119.983 90.0346 119.654 90.3731 119.412 90.8182C119.171 91.2633 119.05 91.803 119.05 92.4375ZM31.5341 129V118.091H33.2102V129H31.5341ZM32.3864 116.273C32.0597 116.273 31.7779 116.161 31.5412 115.939C31.3092 115.716 31.1932 115.449 31.1932 115.136C31.1932 114.824 31.3092 114.556 31.5412 114.334C31.7779 114.111 32.0597 114 32.3864 114C32.7131 114 32.9924 114.111 33.2244 114.334C33.4612 114.556 33.5795 114.824 33.5795 115.136C33.5795 115.449 33.4612 115.716 33.2244 115.939C32.9924 116.161 32.7131 116.273 32.3864 116.273ZM37.9563 122.438V129H36.2802V118.091H37.8995V119.795H38.0415C38.2972 119.241 38.6855 118.796 39.2063 118.46C39.7272 118.119 40.3995 117.949 41.2234 117.949C41.962 117.949 42.6083 118.1 43.1623 118.403C43.7163 118.702 44.1471 119.156 44.4549 119.767C44.7627 120.373 44.9165 121.14 44.9165 122.068V129H43.2404V122.182C43.2404 121.325 43.0179 120.657 42.5728 120.179C42.1277 119.696 41.5169 119.455 40.7404 119.455C40.2054 119.455 39.7272 119.571 39.3058 119.803C38.8891 120.035 38.56 120.373 38.3185 120.818C38.0771 121.263 37.9563 121.803 37.9563 122.438ZM52.0987 129.227C51.1896 129.227 50.3871 128.998 49.6911 128.538C48.995 128.074 48.4505 127.421 48.0575 126.578C47.6645 125.731 47.468 124.729 47.468 123.574C47.468 122.428 47.6645 121.434 48.0575 120.591C48.4505 119.748 48.9974 119.097 49.6982 118.638C50.3989 118.179 51.2086 117.949 52.1271 117.949C52.8374 117.949 53.3984 118.067 53.8104 118.304C54.227 118.536 54.5443 118.801 54.7621 119.099C54.9846 119.393 55.1574 119.634 55.2805 119.824H55.4226V114.455H57.0987V129H55.4794V127.324H55.2805C55.1574 127.523 54.9822 127.774 54.755 128.077C54.5277 128.375 54.2034 128.643 53.782 128.879C53.3606 129.111 52.7995 129.227 52.0987 129.227ZM52.326 127.722C52.9983 127.722 53.5665 127.546 54.0305 127.196C54.4946 126.841 54.8473 126.351 55.0888 125.726C55.3303 125.096 55.451 124.369 55.451 123.545C55.451 122.731 55.3326 122.018 55.0959 121.408C54.8591 120.792 54.5088 120.314 54.0447 119.973C53.5807 119.627 53.0078 119.455 52.326 119.455C51.6158 119.455 51.0239 119.637 50.5504 120.001C50.0817 120.361 49.7289 120.851 49.4922 121.472C49.2602 122.087 49.1442 122.778 49.1442 123.545C49.1442 124.322 49.2625 125.027 49.4993 125.662C49.7408 126.292 50.0959 126.794 50.5646 127.168C51.0381 127.537 51.6252 127.722 52.326 127.722ZM60.4013 129V118.091H62.0774V129H60.4013ZM61.2536 116.273C60.9268 116.273 60.6451 116.161 60.4084 115.939C60.1764 115.716 60.0604 115.449 60.0604 115.136C60.0604 114.824 60.1764 114.556 60.4084 114.334C60.6451 114.111 60.9268 114 61.2536 114C61.5803 114 61.8596 114.111 62.0916 114.334C62.3284 114.556 62.4467 114.824 62.4467 115.136C62.4467 115.449 62.3284 115.716 62.0916 115.939C61.8596 116.161 61.5803 116.273 61.2536 116.273ZM69.5792 129.227C68.5565 129.227 67.6758 128.986 66.9371 128.503C66.1985 128.02 65.6303 127.355 65.2326 126.507C64.8349 125.66 64.636 124.691 64.636 123.602C64.636 122.494 64.8396 121.517 65.2468 120.669C65.6587 119.817 66.2317 119.152 66.9656 118.673C67.7042 118.19 68.5659 117.949 69.5508 117.949C70.3178 117.949 71.0091 118.091 71.6246 118.375C72.2402 118.659 72.7444 119.057 73.1374 119.568C73.5304 120.08 73.7743 120.676 73.869 121.358H72.1928C72.065 120.861 71.7809 120.42 71.3406 120.037C70.9049 119.649 70.3178 119.455 69.5792 119.455C68.9258 119.455 68.3529 119.625 67.8604 119.966C67.3728 120.302 66.9916 120.778 66.717 121.393C66.4471 122.004 66.3121 122.722 66.3121 123.545C66.3121 124.388 66.4447 125.122 66.7099 125.747C66.9798 126.372 67.3585 126.857 67.8462 127.203C68.3387 127.549 68.9163 127.722 69.5792 127.722C70.0148 127.722 70.4102 127.646 70.7653 127.494C71.1204 127.343 71.421 127.125 71.6673 126.841C71.9135 126.557 72.0887 126.216 72.1928 125.818H73.869C73.7743 126.462 73.5399 127.042 73.1658 127.558C72.7965 128.07 72.3065 128.477 71.6957 128.78C71.0896 129.078 70.3841 129.227 69.5792 129.227ZM79.5295 129.256C78.8382 129.256 78.2108 129.125 77.6474 128.865C77.0839 128.6 76.6365 128.219 76.305 127.722C75.9736 127.22 75.8079 126.614 75.8079 125.903C75.8079 125.278 75.931 124.772 76.1772 124.384C76.4234 123.991 76.7525 123.683 77.1644 123.46C77.5763 123.238 78.0309 123.072 78.5281 122.963C79.0299 122.849 79.5342 122.759 80.0408 122.693C80.7037 122.608 81.2411 122.544 81.6531 122.501C82.0697 122.454 82.3728 122.376 82.5621 122.267C82.7563 122.158 82.8533 121.969 82.8533 121.699V121.642C82.8533 120.941 82.6616 120.397 82.2781 120.009C81.8993 119.62 81.324 119.426 80.5522 119.426C79.752 119.426 79.1246 119.601 78.6701 119.952C78.2156 120.302 77.896 120.676 77.7113 121.074L76.1204 120.506C76.4045 119.843 76.7833 119.327 77.2567 118.957C77.735 118.583 78.2558 118.323 78.8192 118.176C79.3874 118.025 79.9461 117.949 80.4954 117.949C80.8458 117.949 81.2482 117.991 81.7028 118.077C82.1621 118.157 82.6048 118.325 83.0309 118.581C83.4618 118.837 83.8192 119.223 84.1033 119.739C84.3874 120.255 84.5295 120.946 84.5295 121.812V129H82.8533V127.523H82.7681C82.6545 127.759 82.4651 128.013 82.1999 128.283C81.9348 128.553 81.582 128.782 81.1417 128.972C80.7013 129.161 80.1639 129.256 79.5295 129.256ZM79.7852 127.75C80.448 127.75 81.0067 127.62 81.4613 127.359C81.9206 127.099 82.2662 126.763 82.4982 126.351C82.735 125.939 82.8533 125.506 82.8533 125.051V123.517C82.7823 123.602 82.6261 123.68 82.3846 123.751C82.1478 123.818 81.8732 123.877 81.5607 123.929C81.253 123.976 80.9523 124.019 80.6587 124.057C80.3699 124.09 80.1355 124.118 79.9556 124.142C79.52 124.199 79.1128 124.291 78.734 124.419C78.36 124.542 78.0569 124.729 77.8249 124.98C77.5977 125.226 77.484 125.562 77.484 125.989C77.484 126.571 77.6995 127.011 78.1303 127.31C78.5659 127.603 79.1175 127.75 79.7852 127.75ZM92.3331 118.091V119.511H86.6797V118.091H92.3331ZM88.3274 115.477H90.0036V125.875C90.0036 126.348 90.0722 126.704 90.2095 126.94C90.3516 127.172 90.5315 127.329 90.7493 127.409C90.9718 127.485 91.2062 127.523 91.4524 127.523C91.6371 127.523 91.7886 127.513 91.907 127.494C92.0253 127.471 92.12 127.452 92.1911 127.438L92.532 128.943C92.4183 128.986 92.2597 129.028 92.0561 129.071C91.8525 129.118 91.5945 129.142 91.282 129.142C90.8085 129.142 90.3445 129.04 89.8899 128.837C89.4401 128.633 89.0661 128.323 88.7678 127.906C88.4742 127.49 88.3274 126.964 88.3274 126.33V115.477ZM99.169 129.227C98.1842 129.227 97.3201 128.993 96.5767 128.524C95.8381 128.055 95.2604 127.4 94.8438 126.557C94.4318 125.714 94.2259 124.729 94.2259 123.602C94.2259 122.466 94.4318 121.474 94.8438 120.626C95.2604 119.779 95.8381 119.121 96.5767 118.652C97.3201 118.183 98.1842 117.949 99.169 117.949C100.154 117.949 101.016 118.183 101.754 118.652C102.498 119.121 103.075 119.779 103.487 120.626C103.904 121.474 104.112 122.466 104.112 123.602C104.112 124.729 103.904 125.714 103.487 126.557C103.075 127.4 102.498 128.055 101.754 128.524C101.016 128.993 100.154 129.227 99.169 129.227ZM99.169 127.722C99.9171 127.722 100.533 127.53 101.016 127.146C101.499 126.763 101.856 126.259 102.088 125.634C102.32 125.009 102.436 124.331 102.436 123.602C102.436 122.873 102.32 122.194 102.088 121.564C101.856 120.934 101.499 120.425 101.016 120.037C100.533 119.649 99.9171 119.455 99.169 119.455C98.4209 119.455 97.8054 119.649 97.3224 120.037C96.8395 120.425 96.482 120.934 96.25 121.564C96.018 122.194 95.902 122.873 95.902 123.602C95.902 124.331 96.018 125.009 96.25 125.634C96.482 126.259 96.8395 126.763 97.3224 127.146C97.8054 127.53 98.4209 127.722 99.169 127.722ZM106.671 129V118.091H108.29V119.739H108.404C108.603 119.199 108.962 118.761 109.483 118.425C110.004 118.089 110.591 117.92 111.245 117.92C111.368 117.92 111.522 117.923 111.706 117.928C111.891 117.932 112.031 117.939 112.125 117.949V119.653C112.069 119.639 111.938 119.618 111.735 119.589C111.536 119.556 111.325 119.54 111.103 119.54C110.572 119.54 110.099 119.651 109.682 119.874C109.27 120.091 108.944 120.394 108.702 120.783C108.465 121.166 108.347 121.604 108.347 122.097V129H106.671Z" fill="white" fill-opacity="0.95"/>
</svg>
