<svg width="245" height="214" viewBox="0 0 245 214" fill="none" xmlns="http://www.w3.org/2000/svg">
<mask id="path-1-inside-1_2144_60938" fill="white">
<path d="M0 0H245V214H0V0Z"/>
</mask>
<path d="M0 0H245V214H0V0Z" fill="#1A1A1A"/>
<path d="M245 214V215H246V214H245ZM244 0V214H246V0H244ZM245 213H0V215H245V213Z" fill="#707070" mask="url(#path-1-inside-1_2144_60938)"/>
<path d="M31.7614 114V99.4545H33.5227V105.932H41.2784V99.4545H43.0398V114H41.2784V107.494H33.5227V114H31.7614ZM50.7706 114.227C49.7857 114.227 48.9216 113.993 48.1783 113.524C47.4396 113.055 46.862 112.4 46.4453 111.557C46.0334 110.714 45.8274 109.729 45.8274 108.602C45.8274 107.466 46.0334 106.474 46.4453 105.626C46.862 104.779 47.4396 104.121 48.1783 103.652C48.9216 103.183 49.7857 102.949 50.7706 102.949C51.7554 102.949 52.6172 103.183 53.3558 103.652C54.0992 104.121 54.6768 104.779 55.0888 105.626C55.5054 106.474 55.7138 107.466 55.7138 108.602C55.7138 109.729 55.5054 110.714 55.0888 111.557C54.6768 112.4 54.0992 113.055 53.3558 113.524C52.6172 113.993 51.7554 114.227 50.7706 114.227ZM50.7706 112.722C51.5187 112.722 52.1342 112.53 52.6172 112.146C53.1001 111.763 53.4576 111.259 53.6896 110.634C53.9216 110.009 54.0376 109.331 54.0376 108.602C54.0376 107.873 53.9216 107.194 53.6896 106.564C53.4576 105.934 53.1001 105.425 52.6172 105.037C52.1342 104.649 51.5187 104.455 50.7706 104.455C50.0225 104.455 49.407 104.649 48.924 105.037C48.4411 105.425 48.0836 105.934 47.8516 106.564C47.6196 107.194 47.5036 107.873 47.5036 108.602C47.5036 109.331 47.6196 110.009 47.8516 110.634C48.0836 111.259 48.4411 111.763 48.924 112.146C49.407 112.53 50.0225 112.722 50.7706 112.722ZM66.8022 103.091L62.7681 114H61.0636L57.0295 103.091H58.8477L61.859 111.784H61.9727L64.984 103.091H66.8022ZM73.1978 114.227C72.1467 114.227 71.2399 113.995 70.4776 113.531C69.7201 113.062 69.1353 112.409 68.7234 111.571C68.3162 110.728 68.1126 109.748 68.1126 108.631C68.1126 107.513 68.3162 106.528 68.7234 105.676C69.1353 104.819 69.7082 104.152 70.4421 103.673C71.1808 103.19 72.0425 102.949 73.0273 102.949C73.5955 102.949 74.1566 103.044 74.7106 103.233C75.2646 103.422 75.7688 103.73 76.2234 104.156C76.6779 104.578 77.0401 105.136 77.31 105.832C77.5799 106.528 77.7148 107.385 77.7148 108.403V109.114H69.3058V107.665H76.0103C76.0103 107.049 75.8872 106.5 75.641 106.017C75.3995 105.534 75.0539 105.153 74.604 104.874C74.159 104.594 73.6334 104.455 73.0273 104.455C72.3597 104.455 71.7821 104.62 71.2944 104.952C70.8114 105.278 70.4397 105.705 70.1793 106.23C69.9189 106.756 69.7887 107.319 69.7887 107.92V108.886C69.7887 109.71 69.9308 110.409 70.2148 110.982C70.5037 111.55 70.9038 111.983 71.4151 112.281C71.9265 112.575 72.5207 112.722 73.1978 112.722C73.6381 112.722 74.0359 112.66 74.391 112.537C74.7508 112.409 75.061 112.22 75.3214 111.969C75.5818 111.713 75.783 111.396 75.9251 111.017L77.5444 111.472C77.3739 112.021 77.0875 112.504 76.685 112.92C76.2826 113.332 75.7854 113.654 75.1935 113.886C74.6017 114.114 73.9364 114.227 73.1978 114.227ZM80.2646 114V103.091H81.8839V104.739H81.9975C82.1964 104.199 82.5562 103.761 83.0771 103.425C83.5979 103.089 84.185 102.92 84.8384 102.92C84.9615 102.92 85.1154 102.923 85.3001 102.928C85.4847 102.932 85.6244 102.939 85.7191 102.949V104.653C85.6623 104.639 85.5321 104.618 85.3285 104.589C85.1296 104.556 84.9189 104.54 84.6964 104.54C84.1661 104.54 83.6926 104.651 83.2759 104.874C82.864 105.091 82.5373 105.394 82.2958 105.783C82.0591 106.166 81.9407 106.604 81.9407 107.097V114H80.2646Z" fill="white" fill-opacity="0.95"/>
</svg>
