<svg width="245" height="274" viewBox="0 0 245 274" fill="none" xmlns="http://www.w3.org/2000/svg">
<mask id="path-1-inside-1_2144_60846" fill="white">
<path d="M0 0H245V274H0V0Z"/>
</mask>
<path d="M0 0H245V274H0V0Z" fill="#1A1A1A"/>
<path d="M245 274V275H246V274H245ZM244 0V274H246V0H244ZM245 273H0V275H245V273Z" fill="#707070" mask="url(#path-1-inside-1_2144_60846)"/>
<path d="M36.25 129H31.7614V114.455H36.4489C37.8598 114.455 39.0672 114.746 40.071 115.328C41.0748 115.906 41.8442 116.737 42.3793 117.821C42.9143 118.901 43.1818 120.193 43.1818 121.699C43.1818 123.214 42.9119 124.518 42.3722 125.612C41.8324 126.701 41.0464 127.539 40.0142 128.126C38.982 128.709 37.7273 129 36.25 129ZM33.5227 127.438H36.1364C37.339 127.438 38.3357 127.205 39.1264 126.741C39.9171 126.277 40.5066 125.617 40.8949 124.76C41.2831 123.903 41.4773 122.883 41.4773 121.699C41.4773 120.525 41.2855 119.514 40.902 118.666C40.5185 117.814 39.9455 117.161 39.1832 116.706C38.4209 116.247 37.4716 116.017 36.3352 116.017H33.5227V127.438ZM45.9091 129V118.091H47.5852V129H45.9091ZM46.7614 116.273C46.4347 116.273 46.1529 116.161 45.9162 115.939C45.6842 115.716 45.5682 115.449 45.5682 115.136C45.5682 114.824 45.6842 114.556 45.9162 114.334C46.1529 114.111 46.4347 114 46.7614 114C47.0881 114 47.3674 114.111 47.5994 114.334C47.8362 114.556 47.9545 114.824 47.9545 115.136C47.9545 115.449 47.8362 115.716 47.5994 115.939C47.3674 116.161 47.0881 116.273 46.7614 116.273ZM58.3825 120.534L56.8768 120.96C56.7821 120.709 56.6424 120.465 56.4577 120.229C56.2778 119.987 56.0316 119.788 55.7191 119.632C55.4066 119.476 55.0065 119.398 54.5188 119.398C53.8512 119.398 53.2949 119.552 52.8498 119.859C52.4094 120.162 52.1893 120.548 52.1893 121.017C52.1893 121.434 52.3408 121.763 52.6438 122.004C52.9469 122.246 53.4203 122.447 54.0643 122.608L55.6836 123.006C56.659 123.242 57.3858 123.605 57.864 124.092C58.3422 124.575 58.5813 125.198 58.5813 125.96C58.5813 126.585 58.4014 127.144 58.0415 127.636C57.6864 128.129 57.1893 128.517 56.5501 128.801C55.9109 129.085 55.1675 129.227 54.32 129.227C53.2073 129.227 52.2863 128.986 51.5572 128.503C50.828 128.02 50.3664 127.314 50.1722 126.386L51.7631 125.989C51.9147 126.576 52.2011 127.016 52.6225 127.31C53.0487 127.603 53.605 127.75 54.2915 127.75C55.0728 127.75 55.6931 127.584 56.1523 127.253C56.6164 126.917 56.8484 126.514 56.8484 126.045C56.8484 125.667 56.7158 125.349 56.4506 125.094C56.1855 124.833 55.7783 124.639 55.229 124.511L53.4109 124.085C52.4118 123.848 51.6779 123.482 51.2092 122.984C50.7451 122.482 50.5131 121.855 50.5131 121.102C50.5131 120.487 50.686 119.942 51.0316 119.469C51.382 118.995 51.8578 118.624 52.4592 118.354C53.0652 118.084 53.7518 117.949 54.5188 117.949C55.5984 117.949 56.4459 118.186 57.0614 118.659C57.6817 119.133 58.122 119.758 58.3825 120.534ZM64.3146 129.256C63.6233 129.256 62.996 129.125 62.4325 128.865C61.8691 128.6 61.4216 128.219 61.0902 127.722C60.7588 127.22 60.593 126.614 60.593 125.903C60.593 125.278 60.7161 124.772 60.9624 124.384C61.2086 123.991 61.5376 123.683 61.9496 123.46C62.3615 123.238 62.8161 123.072 63.3132 122.963C63.8151 122.849 64.3194 122.759 64.826 122.693C65.4889 122.608 66.0263 122.544 66.4382 122.501C66.8549 122.454 67.1579 122.376 67.3473 122.267C67.5414 122.158 67.6385 121.969 67.6385 121.699V121.642C67.6385 120.941 67.4467 120.397 67.0632 120.009C66.6844 119.62 66.1091 119.426 65.3374 119.426C64.5372 119.426 63.9098 119.601 63.4553 119.952C63.0007 120.302 62.6811 120.676 62.4964 121.074L60.9055 120.506C61.1896 119.843 61.5684 119.327 62.0419 118.957C62.5201 118.583 63.041 118.323 63.6044 118.176C64.1726 118.025 64.7313 117.949 65.2805 117.949C65.6309 117.949 66.0334 117.991 66.4879 118.077C66.9472 118.157 67.3899 118.325 67.8161 118.581C68.2469 118.837 68.6044 119.223 68.8885 119.739C69.1726 120.255 69.3146 120.946 69.3146 121.812V129H67.6385V127.523H67.5533C67.4396 127.759 67.2502 128.013 66.9851 128.283C66.7199 128.553 66.3672 128.782 65.9268 128.972C65.4865 129.161 64.9491 129.256 64.3146 129.256ZM64.5703 127.75C65.2332 127.75 65.7919 127.62 66.2464 127.359C66.7057 127.099 67.0514 126.763 67.2834 126.351C67.5201 125.939 67.6385 125.506 67.6385 125.051V123.517C67.5675 123.602 67.4112 123.68 67.1697 123.751C66.933 123.818 66.6584 123.877 66.3459 123.929C66.0381 123.976 65.7375 124.019 65.4439 124.057C65.1551 124.09 64.9207 124.118 64.7408 124.142C64.3052 124.199 63.898 124.291 63.5192 124.419C63.1451 124.542 62.8421 124.729 62.6101 124.98C62.3828 125.226 62.2692 125.562 62.2692 125.989C62.2692 126.571 62.4846 127.011 62.9155 127.31C63.3511 127.603 63.9027 127.75 64.5703 127.75ZM72.6012 129V114.455H74.2773V119.824H74.4194C74.5425 119.634 74.7129 119.393 74.9308 119.099C75.1533 118.801 75.4705 118.536 75.8825 118.304C76.2991 118.067 76.8626 117.949 77.5728 117.949C78.4914 117.949 79.301 118.179 80.0018 118.638C80.7025 119.097 81.2494 119.748 81.6424 120.591C82.0354 121.434 82.2319 122.428 82.2319 123.574C82.2319 124.729 82.0354 125.731 81.6424 126.578C81.2494 127.421 80.7049 128.074 80.0089 128.538C79.3129 128.998 78.5103 129.227 77.6012 129.227C76.9004 129.227 76.3394 129.111 75.918 128.879C75.4966 128.643 75.1722 128.375 74.945 128.077C74.7177 127.774 74.5425 127.523 74.4194 127.324H74.2205V129H72.6012ZM74.2489 123.545C74.2489 124.369 74.3697 125.096 74.6112 125.726C74.8526 126.351 75.2054 126.841 75.6694 127.196C76.1334 127.546 76.7016 127.722 77.3739 127.722C78.0747 127.722 78.6594 127.537 79.1282 127.168C79.6017 126.794 79.9568 126.292 80.1935 125.662C80.435 125.027 80.5558 124.322 80.5558 123.545C80.5558 122.778 80.4374 122.087 80.2006 121.472C79.9686 120.851 79.6159 120.361 79.1424 120.001C78.6737 119.637 78.0842 119.455 77.3739 119.455C76.6921 119.455 76.1192 119.627 75.6552 119.973C75.1912 120.314 74.8408 120.792 74.604 121.408C74.3673 122.018 74.2489 122.731 74.2489 123.545ZM86.4719 114.455V129H84.7958V114.455H86.4719ZM94.1158 129.227C93.0646 129.227 92.1579 128.995 91.3956 128.531C90.638 128.062 90.0533 127.409 89.6413 126.571C89.2341 125.728 89.0305 124.748 89.0305 123.631C89.0305 122.513 89.2341 121.528 89.6413 120.676C90.0533 119.819 90.6262 119.152 91.3601 118.673C92.0987 118.19 92.9605 117.949 93.9453 117.949C94.5135 117.949 95.0746 118.044 95.6286 118.233C96.1825 118.422 96.6868 118.73 97.1413 119.156C97.5959 119.578 97.9581 120.136 98.228 120.832C98.4979 121.528 98.6328 122.385 98.6328 123.403V124.114H90.2237V122.665H96.9283C96.9283 122.049 96.8052 121.5 96.5589 121.017C96.3175 120.534 95.9718 120.153 95.522 119.874C95.0769 119.594 94.5514 119.455 93.9453 119.455C93.2777 119.455 92.7 119.62 92.2124 119.952C91.7294 120.278 91.3577 120.705 91.0973 121.23C90.8369 121.756 90.7067 122.319 90.7067 122.92V123.886C90.7067 124.71 90.8487 125.409 91.1328 125.982C91.4216 126.55 91.8217 126.983 92.3331 127.281C92.8445 127.575 93.4387 127.722 94.1158 127.722C94.5561 127.722 94.9538 127.66 95.3089 127.537C95.6688 127.409 95.9789 127.22 96.2393 126.969C96.4998 126.713 96.701 126.396 96.843 126.017L98.4624 126.472C98.2919 127.021 98.0054 127.504 97.603 127.92C97.2005 128.332 96.7034 128.654 96.1115 128.886C95.5196 129.114 94.8544 129.227 94.1158 129.227ZM105.302 129.227C104.393 129.227 103.59 128.998 102.894 128.538C102.198 128.074 101.654 127.421 101.261 126.578C100.868 125.731 100.671 124.729 100.671 123.574C100.671 122.428 100.868 121.434 101.261 120.591C101.654 119.748 102.201 119.097 102.901 118.638C103.602 118.179 104.412 117.949 105.33 117.949C106.04 117.949 106.602 118.067 107.013 118.304C107.43 118.536 107.747 118.801 107.965 119.099C108.188 119.393 108.361 119.634 108.484 119.824H108.626V114.455H110.302V129H108.683V127.324H108.484C108.361 127.523 108.185 127.774 107.958 128.077C107.731 128.375 107.406 128.643 106.985 128.879C106.564 129.111 106.003 129.227 105.302 129.227ZM105.529 127.722C106.201 127.722 106.77 127.546 107.234 127.196C107.698 126.841 108.05 126.351 108.292 125.726C108.533 125.096 108.654 124.369 108.654 123.545C108.654 122.731 108.536 122.018 108.299 121.408C108.062 120.792 107.712 120.314 107.248 119.973C106.784 119.627 106.211 119.455 105.529 119.455C104.819 119.455 104.227 119.637 103.754 120.001C103.285 120.361 102.932 120.851 102.695 121.472C102.463 122.087 102.347 122.778 102.347 123.545C102.347 124.322 102.466 125.027 102.702 125.662C102.944 126.292 103.299 126.794 103.768 127.168C104.241 127.537 104.828 127.722 105.529 127.722ZM116.104 127.011L115.991 127.778C115.91 128.318 115.787 128.896 115.621 129.511C115.46 130.127 115.292 130.707 115.117 131.251C114.942 131.796 114.798 132.229 114.684 132.551H113.406C113.467 132.248 113.548 131.848 113.647 131.351C113.746 130.854 113.846 130.297 113.945 129.682C114.049 129.071 114.135 128.446 114.201 127.807L114.286 127.011H116.104ZM125.062 129V114.455H129.977C131.113 114.455 132.046 114.649 132.775 115.037C133.504 115.42 134.044 115.948 134.395 116.621C134.745 117.293 134.92 118.058 134.92 118.915C134.92 119.772 134.745 120.532 134.395 121.195C134.044 121.857 133.507 122.378 132.782 122.757C132.058 123.131 131.132 123.318 130.005 123.318H126.028V121.727H129.949C130.725 121.727 131.35 121.614 131.824 121.386C132.302 121.159 132.647 120.837 132.86 120.42C133.078 119.999 133.187 119.497 133.187 118.915C133.187 118.332 133.078 117.823 132.86 117.388C132.643 116.952 132.295 116.616 131.816 116.379C131.338 116.138 130.706 116.017 129.92 116.017H126.824V129H125.062ZM131.909 122.466L135.488 129H133.443L129.92 122.466H131.909ZM142.085 129.227C141.033 129.227 140.127 128.995 139.364 128.531C138.607 128.062 138.022 127.409 137.61 126.571C137.203 125.728 136.999 124.748 136.999 123.631C136.999 122.513 137.203 121.528 137.61 120.676C138.022 119.819 138.595 119.152 139.329 118.673C140.067 118.19 140.929 117.949 141.914 117.949C142.482 117.949 143.043 118.044 143.597 118.233C144.151 118.422 144.656 118.73 145.11 119.156C145.565 119.578 145.927 120.136 146.197 120.832C146.467 121.528 146.602 122.385 146.602 123.403V124.114H138.192V122.665H144.897C144.897 122.049 144.774 121.5 144.528 121.017C144.286 120.534 143.941 120.153 143.491 119.874C143.046 119.594 142.52 119.455 141.914 119.455C141.246 119.455 140.669 119.62 140.181 119.952C139.698 120.278 139.326 120.705 139.066 121.23C138.806 121.756 138.675 122.319 138.675 122.92V123.886C138.675 124.71 138.817 125.409 139.102 125.982C139.39 126.55 139.79 126.983 140.302 127.281C140.813 127.575 141.407 127.722 142.085 127.722C142.525 127.722 142.923 127.66 143.278 127.537C143.638 127.409 143.948 127.22 144.208 126.969C144.469 126.713 144.67 126.396 144.812 126.017L146.431 126.472C146.261 127.021 145.974 127.504 145.572 127.92C145.169 128.332 144.672 128.654 144.08 128.886C143.488 129.114 142.823 129.227 142.085 129.227ZM152.362 129.256C151.67 129.256 151.043 129.125 150.479 128.865C149.916 128.6 149.469 128.219 149.137 127.722C148.806 127.22 148.64 126.614 148.64 125.903C148.64 125.278 148.763 124.772 149.009 124.384C149.255 123.991 149.585 123.683 149.996 123.46C150.408 123.238 150.863 123.072 151.36 122.963C151.862 122.849 152.366 122.759 152.873 122.693C153.536 122.608 154.073 122.544 154.485 122.501C154.902 122.454 155.205 122.376 155.394 122.267C155.588 122.158 155.685 121.969 155.685 121.699V121.642C155.685 120.941 155.494 120.397 155.11 120.009C154.731 119.62 154.156 119.426 153.384 119.426C152.584 119.426 151.957 119.601 151.502 119.952C151.048 120.302 150.728 120.676 150.543 121.074L148.952 120.506C149.237 119.843 149.615 119.327 150.089 118.957C150.567 118.583 151.088 118.323 151.651 118.176C152.219 118.025 152.778 117.949 153.327 117.949C153.678 117.949 154.08 117.991 154.535 118.077C154.994 118.157 155.437 118.325 155.863 118.581C156.294 118.837 156.651 119.223 156.935 119.739C157.219 120.255 157.362 120.946 157.362 121.812V129H155.685V127.523H155.6C155.487 127.759 155.297 128.013 155.032 128.283C154.767 128.553 154.414 128.782 153.974 128.972C153.533 129.161 152.996 129.256 152.362 129.256ZM152.617 127.75C153.28 127.75 153.839 127.62 154.293 127.359C154.753 127.099 155.098 126.763 155.33 126.351C155.567 125.939 155.685 125.506 155.685 125.051V123.517C155.614 123.602 155.458 123.68 155.217 123.751C154.98 123.818 154.705 123.877 154.393 123.929C154.085 123.976 153.784 124.019 153.491 124.057C153.202 124.09 152.968 124.118 152.788 124.142C152.352 124.199 151.945 124.291 151.566 124.419C151.192 124.542 150.889 124.729 150.657 124.98C150.43 125.226 150.316 125.562 150.316 125.989C150.316 126.571 150.531 127.011 150.962 127.31C151.398 127.603 151.95 127.75 152.617 127.75ZM164.54 129.227C163.631 129.227 162.828 128.998 162.132 128.538C161.436 128.074 160.892 127.421 160.499 126.578C160.106 125.731 159.909 124.729 159.909 123.574C159.909 122.428 160.106 121.434 160.499 120.591C160.892 119.748 161.439 119.097 162.14 118.638C162.84 118.179 163.65 117.949 164.569 117.949C165.279 117.949 165.84 118.067 166.252 118.304C166.668 118.536 166.986 118.801 167.203 119.099C167.426 119.393 167.599 119.634 167.722 119.824H167.864V114.455H169.54V129H167.921V127.324H167.722C167.599 127.523 167.424 127.774 167.196 128.077C166.969 128.375 166.645 128.643 166.223 128.879C165.802 129.111 165.241 129.227 164.54 129.227ZM164.767 127.722C165.44 127.722 166.008 127.546 166.472 127.196C166.936 126.841 167.289 126.351 167.53 125.726C167.772 125.096 167.892 124.369 167.892 123.545C167.892 122.731 167.774 122.018 167.537 121.408C167.301 120.792 166.95 120.314 166.486 119.973C166.022 119.627 165.449 119.455 164.767 119.455C164.057 119.455 163.465 119.637 162.992 120.001C162.523 120.361 162.17 120.851 161.934 121.472C161.702 122.087 161.586 122.778 161.586 123.545C161.586 124.322 161.704 125.027 161.941 125.662C162.182 126.292 162.537 126.794 163.006 127.168C163.48 127.537 164.067 127.722 164.767 127.722ZM35.9659 159.227C34.9811 159.227 34.117 158.993 33.3736 158.524C32.6349 158.055 32.0573 157.4 31.6406 156.557C31.2287 155.714 31.0227 154.729 31.0227 153.602C31.0227 152.466 31.2287 151.474 31.6406 150.626C32.0573 149.779 32.6349 149.121 33.3736 148.652C34.117 148.183 34.9811 147.949 35.9659 147.949C36.9508 147.949 37.8125 148.183 38.5511 148.652C39.2945 149.121 39.8722 149.779 40.2841 150.626C40.7008 151.474 40.9091 152.466 40.9091 153.602C40.9091 154.729 40.7008 155.714 40.2841 156.557C39.8722 157.4 39.2945 158.055 38.5511 158.524C37.8125 158.993 36.9508 159.227 35.9659 159.227ZM35.9659 157.722C36.714 157.722 37.3295 157.53 37.8125 157.146C38.2955 156.763 38.6529 156.259 38.8849 155.634C39.117 155.009 39.233 154.331 39.233 153.602C39.233 152.873 39.117 152.194 38.8849 151.564C38.6529 150.934 38.2955 150.425 37.8125 150.037C37.3295 149.649 36.714 149.455 35.9659 149.455C35.2178 149.455 34.6023 149.649 34.1193 150.037C33.6364 150.425 33.2789 150.934 33.0469 151.564C32.8149 152.194 32.6989 152.873 32.6989 153.602C32.6989 154.331 32.8149 155.009 33.0469 155.634C33.2789 156.259 33.6364 156.763 34.1193 157.146C34.6023 157.53 35.2178 157.722 35.9659 157.722ZM45.1438 152.438V159H43.4677V148.091H45.087V149.795H45.229C45.4847 149.241 45.873 148.796 46.3938 148.46C46.9147 148.119 47.587 147.949 48.4109 147.949C49.1495 147.949 49.7958 148.1 50.3498 148.403C50.9038 148.702 51.3346 149.156 51.6424 149.767C51.9502 150.373 52.104 151.14 52.104 152.068V159H50.4279V152.182C50.4279 151.325 50.2054 150.657 49.7603 150.179C49.3152 149.696 48.7044 149.455 47.9279 149.455C47.3929 149.455 46.9147 149.571 46.4933 149.803C46.0766 150.035 45.7475 150.373 45.506 150.818C45.2646 151.263 45.1438 151.803 45.1438 152.438ZM56.843 144.455V159H55.1669V144.455H56.843ZM61.5891 152.438V159H59.913V144.455H61.5891V149.795H61.7312C61.9869 149.232 62.3704 148.785 62.8817 148.453C63.3978 148.117 64.0844 147.949 64.9414 147.949C65.6848 147.949 66.3358 148.098 66.8945 148.396C67.4532 148.69 67.8865 149.142 68.1942 149.753C68.5067 150.359 68.663 151.131 68.663 152.068V159H66.9869V152.182C66.9869 151.315 66.762 150.645 66.3121 150.172C65.8671 149.694 65.2492 149.455 64.4585 149.455C63.9092 149.455 63.4168 149.571 62.9812 149.803C62.5503 150.035 62.2094 150.373 61.9585 150.818C61.7122 151.263 61.5891 151.803 61.5891 152.438ZM72.4183 163.062C72.1342 163.062 71.8809 163.039 71.6584 162.991C71.4358 162.949 71.282 162.906 71.1967 162.864L71.6229 161.386C72.2337 161.543 72.7427 161.538 73.1499 161.372C73.5571 161.211 73.9098 160.723 74.2081 159.909L74.5206 159.057L70.4865 148.091H72.3047L75.3161 156.784H75.4297L78.4411 148.091L80.2734 148.119L75.6286 160.591C75.4202 161.145 75.1622 161.604 74.8544 161.969C74.5466 162.338 74.1892 162.613 73.782 162.793C73.3795 162.973 72.925 163.062 72.4183 163.062Z" fill="white" fill-opacity="0.95"/>
</svg>
