<svg width="220" height="556" viewBox="0 0 220 556" fill="none" xmlns="http://www.w3.org/2000/svg">
<mask id="path-1-inside-1_2144_60975" fill="white">
<path d="M0 0H220V556H0V0Z"/>
</mask>
<path d="M0 0H220V556H0V0Z" fill="#1A1A1A"/>
<path d="M220 556V557H221V556H220ZM219 0V556H221V0H219ZM220 555H0V557H220V555Z" fill="#707070" mask="url(#path-1-inside-1_2144_60975)"/>
<path d="M31.7614 285V270.455H33.5227V276.932H41.2784V270.455H43.0398V285H41.2784V278.494H33.5227V285H31.7614ZM51.2251 285.199C50.2876 285.199 49.4519 285.038 48.718 284.716C47.9889 284.394 47.4089 283.946 46.978 283.374C46.5518 282.796 46.3198 282.126 46.282 281.364H48.0717C48.1096 281.832 48.2706 282.237 48.5547 282.578C48.8388 282.914 49.2105 283.175 49.6697 283.359C50.129 283.544 50.638 283.636 51.1967 283.636C51.8217 283.636 52.3757 283.527 52.8587 283.31C53.3416 283.092 53.7204 282.789 53.995 282.401C54.2696 282.012 54.407 281.562 54.407 281.051C54.407 280.516 54.2744 280.045 54.0092 279.638C53.7441 279.226 53.3558 278.904 52.8445 278.672C52.3331 278.44 51.7081 278.324 50.9695 278.324H49.8047V276.761H50.9695C51.5471 276.761 52.0537 276.657 52.4893 276.449C52.9297 276.241 53.273 275.947 53.5192 275.568C53.7701 275.189 53.8956 274.744 53.8956 274.233C53.8956 273.741 53.7867 273.312 53.5689 272.947C53.3511 272.583 53.0433 272.299 52.6456 272.095C52.2526 271.892 51.7886 271.79 51.2536 271.79C50.7517 271.79 50.2782 271.882 49.8331 272.067C49.3928 272.247 49.0329 272.509 48.7536 272.855C48.4742 273.196 48.3227 273.608 48.299 274.091H46.5945C46.6229 273.329 46.8525 272.661 47.2834 272.088C47.7143 271.51 48.2777 271.061 48.9737 270.739C49.6745 270.417 50.4439 270.256 51.282 270.256C52.1816 270.256 52.9534 270.438 53.5973 270.803C54.2412 271.162 54.736 271.638 55.0817 272.23C55.4273 272.822 55.6001 273.461 55.6001 274.148C55.6001 274.967 55.3847 275.665 54.9538 276.243C54.5277 276.821 53.9477 277.221 53.2138 277.443V277.557C54.1323 277.708 54.8497 278.099 55.3658 278.729C55.8819 279.354 56.1399 280.128 56.1399 281.051C56.1399 281.842 55.9245 282.552 55.4936 283.182C55.0675 283.807 54.4851 284.299 53.7464 284.659C53.0078 285.019 52.1674 285.199 51.2251 285.199ZM59.0447 285V283.722L63.8459 278.466C64.4093 277.85 64.8733 277.315 65.2379 276.861C65.6025 276.402 65.8724 275.971 66.0476 275.568C66.2275 275.161 66.3175 274.735 66.3175 274.29C66.3175 273.778 66.1944 273.336 65.9482 272.962C65.7067 272.588 65.3752 272.299 64.9538 272.095C64.5324 271.892 64.0589 271.79 63.5334 271.79C62.9747 271.79 62.487 271.906 62.0703 272.138C61.6584 272.365 61.3388 272.685 61.1115 273.097C60.889 273.509 60.7777 273.991 60.7777 274.545H59.1016C59.1016 273.693 59.2981 272.945 59.6911 272.301C60.084 271.657 60.6191 271.155 61.2962 270.795C61.978 270.436 62.7427 270.256 63.5902 270.256C64.4425 270.256 65.1977 270.436 65.8558 270.795C66.514 271.155 67.0301 271.641 67.4041 272.251C67.7782 272.862 67.9652 273.542 67.9652 274.29C67.9652 274.825 67.8681 275.348 67.674 275.859C67.4846 276.366 67.1532 276.932 66.6797 277.557C66.2109 278.177 65.5599 278.935 64.7266 279.83L61.4595 283.324V283.438H68.2209V285H59.0447ZM71.1825 289.091V274.091H72.8018V275.824H73.0007C73.1238 275.634 73.2943 275.393 73.5121 275.099C73.7346 274.801 74.0518 274.536 74.4638 274.304C74.8804 274.067 75.4439 273.949 76.1541 273.949C77.0727 273.949 77.8823 274.179 78.5831 274.638C79.2839 275.097 79.8307 275.748 80.2237 276.591C80.6167 277.434 80.8132 278.428 80.8132 279.574C80.8132 280.729 80.6167 281.731 80.2237 282.578C79.8307 283.421 79.2862 284.074 78.5902 284.538C77.8942 284.998 77.0916 285.227 76.1825 285.227C75.4818 285.227 74.9207 285.111 74.4993 284.879C74.0779 284.643 73.7536 284.375 73.5263 284.077C73.299 283.774 73.1238 283.523 73.0007 283.324H72.8587V289.091H71.1825ZM72.8303 279.545C72.8303 280.369 72.951 281.096 73.1925 281.726C73.4339 282.351 73.7867 282.841 74.2507 283.196C74.7147 283.546 75.2829 283.722 75.9553 283.722C76.656 283.722 77.2408 283.537 77.7095 283.168C78.183 282.794 78.5381 282.292 78.7749 281.662C79.0163 281.027 79.1371 280.322 79.1371 279.545C79.1371 278.778 79.0187 278.087 78.782 277.472C78.55 276.851 78.1972 276.361 77.7237 276.001C77.255 275.637 76.6655 275.455 75.9553 275.455C75.2734 275.455 74.7005 275.627 74.2365 275.973C73.7725 276.314 73.4221 276.792 73.1854 277.408C72.9486 278.018 72.8303 278.731 72.8303 279.545ZM84.1708 274.091L86.7844 278.551L89.3981 274.091H91.3299L87.8072 279.545L91.3299 285H89.3981L86.7844 280.767L84.1708 285H82.239L85.7049 279.545L82.239 274.091H84.1708Z" fill="white" fill-opacity="0.95"/>
</svg>
