<svg width="320" height="274" viewBox="0 0 320 274" fill="none" xmlns="http://www.w3.org/2000/svg">
<mask id="path-1-inside-1_2144_60842" fill="white">
<path d="M0 0H320V274H0V0Z"/>
</mask>
<path d="M0 0H320V274H0V0Z" fill="#1A1A1A"/>
<path d="M320 274V275H321V274H320ZM319 0V274H321V0H319ZM320 273H0V275H320V273Z" fill="white" fill-opacity="0.2" mask="url(#path-1-inside-1_2144_60842)"/>
<path d="M44.3537 133.646C44.26 133.553 44.1328 133.5 44.0002 133.5C43.8676 133.5 43.7405 133.553 43.6467 133.646L38 139.293L32.3535 133.646C32.2593 133.555 32.1328 133.504 32.0016 133.505C31.8703 133.506 31.7446 133.559 31.6518 133.652C31.559 133.745 31.5064 133.87 31.5054 134.002C31.5044 134.133 31.5551 134.259 31.6465 134.353L37.6465 140.353C37.7403 140.447 37.8674 140.5 38 140.5C38.1326 140.5 38.2597 140.447 38.3535 140.353L44.3535 134.353C44.4473 134.26 44.5 134.133 44.5 134C44.5001 133.867 44.4475 133.74 44.3537 133.646Z" fill="white" fill-opacity="0.2"/>
</svg>
