<svg width="220" height="214" viewBox="0 0 220 214" fill="none" xmlns="http://www.w3.org/2000/svg">
<mask id="path-1-inside-1_2144_60775" fill="white">
<path d="M0 0H220V214H0V0Z"/>
</mask>
<path d="M0 0H220V214H0V0Z" fill="#1A1A1A"/>
<path d="M220 214V215H221V214H220ZM219 0V214H221V0H219ZM220 213H0V215H220V213Z" fill="#707070" mask="url(#path-1-inside-1_2144_60775)"/>
<path d="M36.6193 99.4545V114H34.858V101.301H34.7727L31.2216 103.659V101.869L34.858 99.4545H36.6193ZM40.4616 111.017V109.568L46.8537 99.4545H47.9048V101.699H47.1946L42.3651 109.341V109.455H50.973V111.017H40.4616ZM47.3082 114V110.577V109.902V99.4545H48.9844V114H47.3082ZM53.663 118.091V103.091H55.2823V104.824H55.4812C55.6043 104.634 55.7747 104.393 55.9925 104.099C56.2151 103.801 56.5323 103.536 56.9442 103.304C57.3609 103.067 57.9244 102.949 58.6346 102.949C59.5531 102.949 60.3628 103.179 61.0636 103.638C61.7643 104.097 62.3112 104.748 62.7042 105.591C63.0972 106.434 63.2937 107.428 63.2937 108.574C63.2937 109.729 63.0972 110.731 62.7042 111.578C62.3112 112.421 61.7667 113.074 61.0707 113.538C60.3746 113.998 59.5721 114.227 58.663 114.227C57.9622 114.227 57.4012 114.111 56.9798 113.879C56.5584 113.643 56.234 113.375 56.0067 113.077C55.7795 112.774 55.6043 112.523 55.4812 112.324H55.3391V118.091H53.663ZM55.3107 108.545C55.3107 109.369 55.4315 110.096 55.6729 110.726C55.9144 111.351 56.2672 111.841 56.7312 112.196C57.1952 112.546 57.7634 112.722 58.4357 112.722C59.1365 112.722 59.7212 112.537 60.19 112.168C60.6635 111.794 61.0186 111.292 61.2553 110.662C61.4968 110.027 61.6175 109.322 61.6175 108.545C61.6175 107.778 61.4992 107.087 61.2624 106.472C61.0304 105.851 60.6777 105.361 60.2042 105.001C59.7354 104.637 59.146 104.455 58.4357 104.455C57.7539 104.455 57.181 104.627 56.717 104.973C56.253 105.314 55.9026 105.792 55.6658 106.408C55.4291 107.018 55.3107 107.731 55.3107 108.545ZM70.5948 103.091V104.511H64.9414V103.091H70.5948ZM66.5891 100.477H68.2653V110.875C68.2653 111.348 68.3339 111.704 68.4712 111.94C68.6133 112.172 68.7932 112.329 69.011 112.409C69.2335 112.485 69.4679 112.523 69.7141 112.523C69.8988 112.523 70.0503 112.513 70.1687 112.494C70.2871 112.471 70.3817 112.452 70.4528 112.438L70.7937 113.943C70.68 113.986 70.5214 114.028 70.3178 114.071C70.1142 114.118 69.8562 114.142 69.5437 114.142C69.0702 114.142 68.6062 114.04 68.1516 113.837C67.7018 113.633 67.3278 113.323 67.0295 112.906C66.7359 112.49 66.5891 111.964 66.5891 111.33V100.477Z" fill="white" fill-opacity="0.95"/>
</svg>
