<svg width="244" height="604" viewBox="0 0 244 604" fill="none" xmlns="http://www.w3.org/2000/svg">
<mask id="path-1-inside-1_2144_60937" fill="white">
<path d="M0 0H244V604H0V0Z"/>
</mask>
<path d="M0 0H244V604H0V0Z" fill="#1A1A1A"/>
<path d="M244 604V605H245V604H244ZM243 0V604H245V0H243ZM244 603H0V605H244V603Z" fill="#707070" mask="url(#path-1-inside-1_2144_60937)"/>
<path d="M36.25 294H31.7614V279.455H36.4489C37.8598 279.455 39.0672 279.746 40.071 280.328C41.0748 280.906 41.8442 281.737 42.3793 282.821C42.9143 283.901 43.1818 285.193 43.1818 286.699C43.1818 288.214 42.9119 289.518 42.3722 290.612C41.8324 291.701 41.0464 292.539 40.0142 293.126C38.982 293.709 37.7273 294 36.25 294ZM33.5227 292.438H36.1364C37.339 292.438 38.3357 292.205 39.1264 291.741C39.9171 291.277 40.5066 290.617 40.8949 289.76C41.2831 288.903 41.4773 287.883 41.4773 286.699C41.4773 285.525 41.2855 284.514 40.902 283.666C40.5185 282.814 39.9455 282.161 39.1832 281.706C38.4209 281.247 37.4716 281.017 36.3352 281.017H33.5227V292.438ZM45.9091 294V283.091H47.5284V284.739H47.642C47.8409 284.199 48.2008 283.761 48.7216 283.425C49.2424 283.089 49.8295 282.92 50.483 282.92C50.6061 282.92 50.7599 282.923 50.9446 282.928C51.1293 282.932 51.2689 282.939 51.3636 282.949V284.653C51.3068 284.639 51.1766 284.618 50.973 284.589C50.7741 284.556 50.5634 284.54 50.3409 284.54C49.8106 284.54 49.3371 284.651 48.9205 284.874C48.5085 285.091 48.1818 285.394 47.9403 285.783C47.7036 286.166 47.5852 286.604 47.5852 287.097V294H45.9091ZM57.4503 294.227C56.4654 294.227 55.6013 293.993 54.858 293.524C54.1193 293.055 53.5417 292.4 53.125 291.557C52.7131 290.714 52.5071 289.729 52.5071 288.602C52.5071 287.466 52.7131 286.474 53.125 285.626C53.5417 284.779 54.1193 284.121 54.858 283.652C55.6013 283.183 56.4654 282.949 57.4503 282.949C58.4351 282.949 59.2969 283.183 60.0355 283.652C60.7789 284.121 61.3565 284.779 61.7685 285.626C62.1851 286.474 62.3935 287.466 62.3935 288.602C62.3935 289.729 62.1851 290.714 61.7685 291.557C61.3565 292.4 60.7789 293.055 60.0355 293.524C59.2969 293.993 58.4351 294.227 57.4503 294.227ZM57.4503 292.722C58.1984 292.722 58.8139 292.53 59.2969 292.146C59.7798 291.763 60.1373 291.259 60.3693 290.634C60.6013 290.009 60.7173 289.331 60.7173 288.602C60.7173 287.873 60.6013 287.194 60.3693 286.564C60.1373 285.934 59.7798 285.425 59.2969 285.037C58.8139 284.649 58.1984 284.455 57.4503 284.455C56.7022 284.455 56.0866 284.649 55.6037 285.037C55.1207 285.425 54.7633 285.934 54.5312 286.564C54.2992 287.194 54.1832 287.873 54.1832 288.602C54.1832 289.331 54.2992 290.009 54.5312 290.634C54.7633 291.259 55.1207 291.763 55.6037 292.146C56.0866 292.53 56.7022 292.722 57.4503 292.722ZM64.9521 298.091V283.091H66.5714V284.824H66.7702C66.8933 284.634 67.0638 284.393 67.2816 284.099C67.5041 283.801 67.8214 283.536 68.2333 283.304C68.65 283.067 69.2134 282.949 69.9237 282.949C70.8422 282.949 71.6519 283.179 72.3526 283.638C73.0534 284.097 73.6003 284.748 73.9933 285.591C74.3862 286.434 74.5827 287.428 74.5827 288.574C74.5827 289.729 74.3862 290.731 73.9933 291.578C73.6003 292.421 73.0558 293.074 72.3597 293.538C71.6637 293.998 70.8612 294.227 69.9521 294.227C69.2513 294.227 68.6902 294.111 68.2688 293.879C67.8474 293.643 67.5231 293.375 67.2958 293.077C67.0685 292.774 66.8933 292.523 66.7702 292.324H66.6282V298.091H64.9521ZM66.5998 288.545C66.5998 289.369 66.7205 290.096 66.962 290.726C67.2035 291.351 67.5562 291.841 68.0202 292.196C68.4843 292.546 69.0524 292.722 69.7248 292.722C70.4255 292.722 71.0103 292.537 71.479 292.168C71.9525 291.794 72.3076 291.292 72.5444 290.662C72.7859 290.027 72.9066 289.322 72.9066 288.545C72.9066 287.778 72.7882 287.087 72.5515 286.472C72.3195 285.851 71.9667 285.361 71.4933 285.001C71.0245 284.637 70.435 284.455 69.7248 284.455C69.043 284.455 68.4701 284.627 68.006 284.973C67.542 285.314 67.1916 285.792 66.9549 286.408C66.7182 287.018 66.5998 287.731 66.5998 288.545ZM81.2589 294.227C80.3498 294.227 79.5472 293.998 78.8512 293.538C78.1552 293.074 77.6107 292.421 77.2177 291.578C76.8247 290.731 76.6282 289.729 76.6282 288.574C76.6282 287.428 76.8247 286.434 77.2177 285.591C77.6107 284.748 78.1576 284.097 78.8583 283.638C79.5591 283.179 80.3687 282.949 81.2873 282.949C81.9975 282.949 82.5586 283.067 82.9705 283.304C83.3872 283.536 83.7044 283.801 83.9222 284.099C84.1448 284.393 84.3176 284.634 84.4407 284.824H84.5827V279.455H86.2589V294H84.6396V292.324H84.4407C84.3176 292.523 84.1424 292.774 83.9151 293.077C83.6879 293.375 83.3635 293.643 82.9421 293.879C82.5207 294.111 81.9596 294.227 81.2589 294.227ZM81.4862 292.722C82.1585 292.722 82.7267 292.546 83.1907 292.196C83.6547 291.841 84.0075 291.351 84.2489 290.726C84.4904 290.096 84.6112 289.369 84.6112 288.545C84.6112 287.731 84.4928 287.018 84.256 286.408C84.0193 285.792 83.6689 285.314 83.2049 284.973C82.7409 284.627 82.168 284.455 81.4862 284.455C80.7759 284.455 80.1841 284.637 79.7106 285.001C79.2418 285.361 78.8891 285.851 78.6523 286.472C78.4203 287.087 78.3043 287.778 78.3043 288.545C78.3043 289.322 78.4227 290.027 78.6594 290.662C78.9009 291.292 79.256 291.794 79.7248 292.168C80.1983 292.537 80.7854 292.722 81.4862 292.722ZM93.9933 294.227C93.0084 294.227 92.1443 293.993 91.4009 293.524C90.6623 293.055 90.0846 292.4 89.668 291.557C89.256 290.714 89.0501 289.729 89.0501 288.602C89.0501 287.466 89.256 286.474 89.668 285.626C90.0846 284.779 90.6623 284.121 91.4009 283.652C92.1443 283.183 93.0084 282.949 93.9933 282.949C94.9781 282.949 95.8398 283.183 96.5785 283.652C97.3219 284.121 97.8995 284.779 98.3114 285.626C98.7281 286.474 98.9364 287.466 98.9364 288.602C98.9364 289.729 98.7281 290.714 98.3114 291.557C97.8995 292.4 97.3219 293.055 96.5785 293.524C95.8398 293.993 94.9781 294.227 93.9933 294.227ZM93.9933 292.722C94.7414 292.722 95.3569 292.53 95.8398 292.146C96.3228 291.763 96.6803 291.259 96.9123 290.634C97.1443 290.009 97.2603 289.331 97.2603 288.602C97.2603 287.873 97.1443 287.194 96.9123 286.564C96.6803 285.934 96.3228 285.425 95.8398 285.037C95.3569 284.649 94.7414 284.455 93.9933 284.455C93.2451 284.455 92.6296 284.649 92.1467 285.037C91.6637 285.425 91.3062 285.934 91.0742 286.564C90.8422 287.194 90.7262 287.873 90.7262 288.602C90.7262 289.331 90.8422 290.009 91.0742 290.634C91.3062 291.259 91.6637 291.763 92.1467 292.146C92.6296 292.53 93.2451 292.722 93.9933 292.722ZM103.596 294L100.272 283.091H102.033L104.391 291.443H104.505L106.834 283.091H108.624L110.925 291.415H111.039L113.397 283.091H115.158L111.834 294H110.186L107.8 285.619H107.63L105.243 294H103.596ZM119.05 287.438V294H117.374V283.091H118.993V284.795H119.135C119.391 284.241 119.779 283.796 120.3 283.46C120.821 283.119 121.493 282.949 122.317 282.949C123.056 282.949 123.702 283.1 124.256 283.403C124.81 283.702 125.241 284.156 125.549 284.767C125.856 285.373 126.01 286.14 126.01 287.068V294H124.334V287.182C124.334 286.325 124.112 285.657 123.667 285.179C123.221 284.696 122.611 284.455 121.834 284.455C121.299 284.455 120.821 284.571 120.4 284.803C119.983 285.035 119.654 285.373 119.412 285.818C119.171 286.263 119.05 286.803 119.05 287.438ZM31.5341 324V313.091H33.2102V324H31.5341ZM32.3864 311.273C32.0597 311.273 31.7779 311.161 31.5412 310.939C31.3092 310.716 31.1932 310.449 31.1932 310.136C31.1932 309.824 31.3092 309.556 31.5412 309.334C31.7779 309.111 32.0597 309 32.3864 309C32.7131 309 32.9924 309.111 33.2244 309.334C33.4612 309.556 33.5795 309.824 33.5795 310.136C33.5795 310.449 33.4612 310.716 33.2244 310.939C32.9924 311.161 32.7131 311.273 32.3864 311.273ZM37.9563 317.438V324H36.2802V313.091H37.8995V314.795H38.0415C38.2972 314.241 38.6855 313.796 39.2063 313.46C39.7272 313.119 40.3995 312.949 41.2234 312.949C41.962 312.949 42.6083 313.1 43.1623 313.403C43.7163 313.702 44.1471 314.156 44.4549 314.767C44.7627 315.373 44.9165 316.14 44.9165 317.068V324H43.2404V317.182C43.2404 316.325 43.0179 315.657 42.5728 315.179C42.1277 314.696 41.5169 314.455 40.7404 314.455C40.2054 314.455 39.7272 314.571 39.3058 314.803C38.8891 315.035 38.56 315.373 38.3185 315.818C38.0771 316.263 37.9563 316.803 37.9563 317.438ZM52.0987 324.227C51.1896 324.227 50.3871 323.998 49.6911 323.538C48.995 323.074 48.4505 322.421 48.0575 321.578C47.6645 320.731 47.468 319.729 47.468 318.574C47.468 317.428 47.6645 316.434 48.0575 315.591C48.4505 314.748 48.9974 314.097 49.6982 313.638C50.3989 313.179 51.2086 312.949 52.1271 312.949C52.8374 312.949 53.3984 313.067 53.8104 313.304C54.227 313.536 54.5443 313.801 54.7621 314.099C54.9846 314.393 55.1574 314.634 55.2805 314.824H55.4226V309.455H57.0987V324H55.4794V322.324H55.2805C55.1574 322.523 54.9822 322.774 54.755 323.077C54.5277 323.375 54.2034 323.643 53.782 323.879C53.3606 324.111 52.7995 324.227 52.0987 324.227ZM52.326 322.722C52.9983 322.722 53.5665 322.546 54.0305 322.196C54.4946 321.841 54.8473 321.351 55.0888 320.726C55.3303 320.096 55.451 319.369 55.451 318.545C55.451 317.731 55.3326 317.018 55.0959 316.408C54.8591 315.792 54.5088 315.314 54.0447 314.973C53.5807 314.627 53.0078 314.455 52.326 314.455C51.6158 314.455 51.0239 314.637 50.5504 315.001C50.0817 315.361 49.7289 315.851 49.4922 316.472C49.2602 317.087 49.1442 317.778 49.1442 318.545C49.1442 319.322 49.2625 320.027 49.4993 320.662C49.7408 321.292 50.0959 321.794 50.5646 322.168C51.0381 322.537 51.6252 322.722 52.326 322.722ZM60.4013 324V313.091H62.0774V324H60.4013ZM61.2536 311.273C60.9268 311.273 60.6451 311.161 60.4084 310.939C60.1764 310.716 60.0604 310.449 60.0604 310.136C60.0604 309.824 60.1764 309.556 60.4084 309.334C60.6451 309.111 60.9268 309 61.2536 309C61.5803 309 61.8596 309.111 62.0916 309.334C62.3284 309.556 62.4467 309.824 62.4467 310.136C62.4467 310.449 62.3284 310.716 62.0916 310.939C61.8596 311.161 61.5803 311.273 61.2536 311.273ZM69.5792 324.227C68.5565 324.227 67.6758 323.986 66.9371 323.503C66.1985 323.02 65.6303 322.355 65.2326 321.507C64.8349 320.66 64.636 319.691 64.636 318.602C64.636 317.494 64.8396 316.517 65.2468 315.669C65.6587 314.817 66.2317 314.152 66.9656 313.673C67.7042 313.19 68.5659 312.949 69.5508 312.949C70.3178 312.949 71.0091 313.091 71.6246 313.375C72.2402 313.659 72.7444 314.057 73.1374 314.568C73.5304 315.08 73.7743 315.676 73.869 316.358H72.1928C72.065 315.861 71.7809 315.42 71.3406 315.037C70.9049 314.649 70.3178 314.455 69.5792 314.455C68.9258 314.455 68.3529 314.625 67.8604 314.966C67.3728 315.302 66.9916 315.778 66.717 316.393C66.4471 317.004 66.3121 317.722 66.3121 318.545C66.3121 319.388 66.4447 320.122 66.7099 320.747C66.9798 321.372 67.3585 321.857 67.8462 322.203C68.3387 322.549 68.9163 322.722 69.5792 322.722C70.0148 322.722 70.4102 322.646 70.7653 322.494C71.1204 322.343 71.421 322.125 71.6673 321.841C71.9135 321.557 72.0887 321.216 72.1928 320.818H73.869C73.7743 321.462 73.5399 322.042 73.1658 322.558C72.7965 323.07 72.3065 323.477 71.6957 323.78C71.0896 324.078 70.3841 324.227 69.5792 324.227ZM79.5295 324.256C78.8382 324.256 78.2108 324.125 77.6474 323.865C77.0839 323.6 76.6365 323.219 76.305 322.722C75.9736 322.22 75.8079 321.614 75.8079 320.903C75.8079 320.278 75.931 319.772 76.1772 319.384C76.4234 318.991 76.7525 318.683 77.1644 318.46C77.5763 318.238 78.0309 318.072 78.5281 317.963C79.0299 317.849 79.5342 317.759 80.0408 317.693C80.7037 317.608 81.2411 317.544 81.6531 317.501C82.0697 317.454 82.3728 317.376 82.5621 317.267C82.7563 317.158 82.8533 316.969 82.8533 316.699V316.642C82.8533 315.941 82.6616 315.397 82.2781 315.009C81.8993 314.62 81.324 314.426 80.5522 314.426C79.752 314.426 79.1246 314.601 78.6701 314.952C78.2156 315.302 77.896 315.676 77.7113 316.074L76.1204 315.506C76.4045 314.843 76.7833 314.327 77.2567 313.957C77.735 313.583 78.2558 313.323 78.8192 313.176C79.3874 313.025 79.9461 312.949 80.4954 312.949C80.8458 312.949 81.2482 312.991 81.7028 313.077C82.1621 313.157 82.6048 313.325 83.0309 313.581C83.4618 313.837 83.8192 314.223 84.1033 314.739C84.3874 315.255 84.5295 315.946 84.5295 316.812V324H82.8533V322.523H82.7681C82.6545 322.759 82.4651 323.013 82.1999 323.283C81.9348 323.553 81.582 323.782 81.1417 323.972C80.7013 324.161 80.1639 324.256 79.5295 324.256ZM79.7852 322.75C80.448 322.75 81.0067 322.62 81.4613 322.359C81.9206 322.099 82.2662 321.763 82.4982 321.351C82.735 320.939 82.8533 320.506 82.8533 320.051V318.517C82.7823 318.602 82.6261 318.68 82.3846 318.751C82.1478 318.818 81.8732 318.877 81.5607 318.929C81.253 318.976 80.9523 319.019 80.6587 319.057C80.3699 319.09 80.1355 319.118 79.9556 319.142C79.52 319.199 79.1128 319.291 78.734 319.419C78.36 319.542 78.0569 319.729 77.8249 319.98C77.5977 320.226 77.484 320.562 77.484 320.989C77.484 321.571 77.6995 322.011 78.1303 322.31C78.5659 322.603 79.1175 322.75 79.7852 322.75ZM92.3331 313.091V314.511H86.6797V313.091H92.3331ZM88.3274 310.477H90.0036V320.875C90.0036 321.348 90.0722 321.704 90.2095 321.94C90.3516 322.172 90.5315 322.329 90.7493 322.409C90.9718 322.485 91.2062 322.523 91.4524 322.523C91.6371 322.523 91.7886 322.513 91.907 322.494C92.0253 322.471 92.12 322.452 92.1911 322.438L92.532 323.943C92.4183 323.986 92.2597 324.028 92.0561 324.071C91.8525 324.118 91.5945 324.142 91.282 324.142C90.8085 324.142 90.3445 324.04 89.8899 323.837C89.4401 323.633 89.0661 323.323 88.7678 322.906C88.4742 322.49 88.3274 321.964 88.3274 321.33V310.477ZM99.169 324.227C98.1842 324.227 97.3201 323.993 96.5767 323.524C95.8381 323.055 95.2604 322.4 94.8438 321.557C94.4318 320.714 94.2259 319.729 94.2259 318.602C94.2259 317.466 94.4318 316.474 94.8438 315.626C95.2604 314.779 95.8381 314.121 96.5767 313.652C97.3201 313.183 98.1842 312.949 99.169 312.949C100.154 312.949 101.016 313.183 101.754 313.652C102.498 314.121 103.075 314.779 103.487 315.626C103.904 316.474 104.112 317.466 104.112 318.602C104.112 319.729 103.904 320.714 103.487 321.557C103.075 322.4 102.498 323.055 101.754 323.524C101.016 323.993 100.154 324.227 99.169 324.227ZM99.169 322.722C99.9171 322.722 100.533 322.53 101.016 322.146C101.499 321.763 101.856 321.259 102.088 320.634C102.32 320.009 102.436 319.331 102.436 318.602C102.436 317.873 102.32 317.194 102.088 316.564C101.856 315.934 101.499 315.425 101.016 315.037C100.533 314.649 99.9171 314.455 99.169 314.455C98.4209 314.455 97.8054 314.649 97.3224 315.037C96.8395 315.425 96.482 315.934 96.25 316.564C96.018 317.194 95.902 317.873 95.902 318.602C95.902 319.331 96.018 320.009 96.25 320.634C96.482 321.259 96.8395 321.763 97.3224 322.146C97.8054 322.53 98.4209 322.722 99.169 322.722ZM106.671 324V313.091H108.29V314.739H108.404C108.603 314.199 108.962 313.761 109.483 313.425C110.004 313.089 110.591 312.92 111.245 312.92C111.368 312.92 111.522 312.923 111.706 312.928C111.891 312.932 112.031 312.939 112.125 312.949V314.653C112.069 314.639 111.938 314.618 111.735 314.589C111.536 314.556 111.325 314.54 111.103 314.54C110.572 314.54 110.099 314.651 109.682 314.874C109.27 315.091 108.944 315.394 108.702 315.783C108.465 316.166 108.347 316.604 108.347 317.097V324H106.671Z" fill="white" fill-opacity="0.95"/>
</svg>
