<svg width="244" height="214" viewBox="0 0 244 214" fill="none" xmlns="http://www.w3.org/2000/svg">
<mask id="path-1-inside-1_2144_60827" fill="white">
<path d="M0 0H244V214H0V0Z"/>
</mask>
<path d="M0 0H244V214H0V0Z" fill="#1A1A1A"/>
<path d="M244 214V215H245V214H244ZM243 0V214H245V0H243ZM244 213H0V215H244V213Z" fill="#707070" mask="url(#path-1-inside-1_2144_60827)"/>
<path d="M30.9659 101.017V99.4545H41.875V101.017H37.3011V114H35.5398V101.017H30.9659ZM44.1957 118.062C43.9116 118.062 43.6583 118.039 43.4357 117.991C43.2132 117.949 43.0593 117.906 42.9741 117.864L43.4002 116.386C44.011 116.543 44.52 116.538 44.9272 116.372C45.3344 116.211 45.6871 115.723 45.9854 114.909L46.2979 114.057L42.2638 103.091H44.082L47.0934 111.784H47.207L50.2184 103.091L52.0508 103.119L47.4059 115.591C47.1976 116.145 46.9395 116.604 46.6317 116.969C46.324 117.338 45.9665 117.613 45.5593 117.793C45.1568 117.973 44.7023 118.062 44.1957 118.062ZM54.2685 118.091V103.091H55.8878V104.824H56.0866C56.2098 104.634 56.3802 104.393 56.598 104.099C56.8205 103.801 57.1378 103.536 57.5497 103.304C57.9664 103.067 58.5298 102.949 59.2401 102.949C60.1586 102.949 60.9683 103.179 61.669 103.638C62.3698 104.097 62.9167 104.748 63.3097 105.591C63.7027 106.434 63.8991 107.428 63.8991 108.574C63.8991 109.729 63.7027 110.731 63.3097 111.578C62.9167 112.421 62.3722 113.074 61.6761 113.538C60.9801 113.998 60.1776 114.227 59.2685 114.227C58.5677 114.227 58.0066 114.111 57.5852 113.879C57.1638 113.643 56.8395 113.375 56.6122 113.077C56.3849 112.774 56.2098 112.523 56.0866 112.324H55.9446V118.091H54.2685ZM55.9162 108.545C55.9162 109.369 56.0369 110.096 56.2784 110.726C56.5199 111.351 56.8726 111.841 57.3366 112.196C57.8007 112.546 58.3688 112.722 59.0412 112.722C59.742 112.722 60.3267 112.537 60.7955 112.168C61.2689 111.794 61.6241 111.292 61.8608 110.662C62.1023 110.027 62.223 109.322 62.223 108.545C62.223 107.778 62.1046 107.087 61.8679 106.472C61.6359 105.851 61.2831 105.361 60.8097 105.001C60.3409 104.637 59.7514 104.455 59.0412 104.455C58.3594 104.455 57.7865 104.627 57.3224 104.973C56.8584 105.314 56.508 105.792 56.2713 106.408C56.0346 107.018 55.9162 107.731 55.9162 108.545ZM71.0298 114.227C69.9787 114.227 69.072 113.995 68.3097 113.531C67.5521 113.062 66.9673 112.409 66.5554 111.571C66.1482 110.728 65.9446 109.748 65.9446 108.631C65.9446 107.513 66.1482 106.528 66.5554 105.676C66.9673 104.819 67.5402 104.152 68.2741 103.673C69.0128 103.19 69.8745 102.949 70.8594 102.949C71.4276 102.949 71.9886 103.044 72.5426 103.233C73.0966 103.422 73.6009 103.73 74.0554 104.156C74.5099 104.578 74.8722 105.136 75.142 105.832C75.4119 106.528 75.5469 107.385 75.5469 108.403V109.114H67.1378V107.665H73.8423C73.8423 107.049 73.7192 106.5 73.473 106.017C73.2315 105.534 72.8859 105.153 72.4361 104.874C71.991 104.594 71.4654 104.455 70.8594 104.455C70.1918 104.455 69.6141 104.62 69.1264 104.952C68.6435 105.278 68.2718 105.705 68.0114 106.23C67.7509 106.756 67.6207 107.319 67.6207 107.92V108.886C67.6207 109.71 67.7628 110.409 68.0469 110.982C68.3357 111.55 68.7358 111.983 69.2472 112.281C69.7585 112.575 70.3527 112.722 71.0298 112.722C71.4702 112.722 71.8679 112.66 72.223 112.537C72.5829 112.409 72.893 112.22 73.1534 111.969C73.4138 111.713 73.6151 111.396 73.7571 111.017L75.3764 111.472C75.206 112.021 74.9195 112.504 74.517 112.92C74.1146 113.332 73.6174 113.654 73.0256 113.886C72.4337 114.114 71.7685 114.227 71.0298 114.227ZM82.2159 114.227C81.3068 114.227 80.5043 113.998 79.8082 113.538C79.1122 113.074 78.5677 112.421 78.1747 111.578C77.7817 110.731 77.5852 109.729 77.5852 108.574C77.5852 107.428 77.7817 106.434 78.1747 105.591C78.5677 104.748 79.1146 104.097 79.8153 103.638C80.5161 103.179 81.3258 102.949 82.2443 102.949C82.9545 102.949 83.5156 103.067 83.9276 103.304C84.3442 103.536 84.6615 103.801 84.8793 104.099C85.1018 104.393 85.2746 104.634 85.3977 104.824H85.5398V99.4545H87.2159V114H85.5966V112.324H85.3977C85.2746 112.523 85.0994 112.774 84.8722 113.077C84.6449 113.375 84.3205 113.643 83.8991 113.879C83.4777 114.111 82.9167 114.227 82.2159 114.227ZM82.4432 112.722C83.1155 112.722 83.6837 112.546 84.1477 112.196C84.6117 111.841 84.9645 111.351 85.206 110.726C85.4474 110.096 85.5682 109.369 85.5682 108.545C85.5682 107.731 85.4498 107.018 85.2131 106.408C84.9763 105.792 84.6259 105.314 84.1619 104.973C83.6979 104.627 83.125 104.455 82.4432 104.455C81.733 104.455 81.1411 104.637 80.6676 105.001C80.1989 105.361 79.8461 105.851 79.6094 106.472C79.3774 107.087 79.2614 107.778 79.2614 108.545C79.2614 109.322 79.3797 110.027 79.6165 110.662C79.858 111.292 80.2131 111.794 80.6818 112.168C81.1553 112.537 81.7424 112.722 82.4432 112.722ZM100.888 103.091V104.511H95.2344V103.091H100.888ZM96.8821 100.477H98.5582V110.875C98.5582 111.348 98.6269 111.704 98.7642 111.94C98.9063 112.172 99.0862 112.329 99.304 112.409C99.5265 112.485 99.7609 112.523 100.007 112.523C100.192 112.523 100.343 112.513 100.462 112.494C100.58 112.471 100.675 112.452 100.746 112.438L101.087 113.943C100.973 113.986 100.814 114.028 100.611 114.071C100.407 114.118 100.149 114.142 99.8366 114.142C99.3632 114.142 98.8991 114.04 98.4446 113.837C97.9948 113.633 97.6207 113.323 97.3224 112.906C97.0289 112.49 96.8821 111.964 96.8821 111.33V100.477ZM107.866 114.227C106.815 114.227 105.908 113.995 105.146 113.531C104.388 113.062 103.803 112.409 103.391 111.571C102.984 110.728 102.781 109.748 102.781 108.631C102.781 107.513 102.984 106.528 103.391 105.676C103.803 104.819 104.376 104.152 105.11 103.673C105.849 103.19 106.71 102.949 107.695 102.949C108.263 102.949 108.825 103.044 109.379 103.233C109.933 103.422 110.437 103.73 110.891 104.156C111.346 104.578 111.708 105.136 111.978 105.832C112.248 106.528 112.383 107.385 112.383 108.403V109.114H103.974V107.665H110.678C110.678 107.049 110.555 106.5 110.309 106.017C110.067 105.534 109.722 105.153 109.272 104.874C108.827 104.594 108.301 104.455 107.695 104.455C107.028 104.455 106.45 104.62 105.962 104.952C105.479 105.278 105.108 105.705 104.847 106.23C104.587 106.756 104.457 107.319 104.457 107.92V108.886C104.457 109.71 104.599 110.409 104.883 110.982C105.172 111.55 105.572 111.983 106.083 112.281C106.594 112.575 107.189 112.722 107.866 112.722C108.306 112.722 108.704 112.66 109.059 112.537C109.419 112.409 109.729 112.22 109.989 111.969C110.25 111.713 110.451 111.396 110.593 111.017L112.212 111.472C112.042 112.021 111.755 112.504 111.353 112.92C110.951 113.332 110.453 113.654 109.862 113.886C109.27 114.114 108.604 114.227 107.866 114.227ZM115.89 103.091L118.503 107.551L121.117 103.091H123.049L119.526 108.545L123.049 114H121.117L118.503 109.767L115.89 114H113.958L117.424 108.545L113.958 103.091H115.89ZM130.185 103.091V104.511H124.531V103.091H130.185ZM126.179 100.477H127.855V110.875C127.855 111.348 127.924 111.704 128.061 111.94C128.203 112.172 128.383 112.329 128.601 112.409C128.823 112.485 129.058 112.523 129.304 112.523C129.489 112.523 129.64 112.513 129.759 112.494C129.877 112.471 129.972 112.452 130.043 112.438L130.384 113.943C130.27 113.986 130.111 114.028 129.908 114.071C129.704 114.118 129.446 114.142 129.134 114.142C128.66 114.142 128.196 114.04 127.741 113.837C127.292 113.633 126.918 113.323 126.619 112.906C126.326 112.49 126.179 111.964 126.179 111.33V100.477Z" fill="white" fill-opacity="0.95"/>
</svg>
