<svg width="383" height="347" viewBox="0 0 383 347" fill="none" xmlns="http://www.w3.org/2000/svg">
<path d="M57.4227 8H56.1898C56.1168 7.64536 55.9892 7.33381 55.807 7.06534C55.628 6.79688 55.4092 6.5715 55.1507 6.3892C54.8955 6.2036 54.6121 6.06439 54.3006 5.97159C53.989 5.87879 53.6642 5.83239 53.3261 5.83239C52.7097 5.83239 52.1512 5.98816 51.6507 6.29972C51.1535 6.61127 50.7575 7.07031 50.4625 7.67685C50.1708 8.28338 50.025 9.02746 50.025 9.90909C50.025 10.7907 50.1708 11.5348 50.4625 12.1413C50.7575 12.7479 51.1535 13.2069 51.6507 13.5185C52.1512 13.83 52.7097 13.9858 53.3261 13.9858C53.6642 13.9858 53.989 13.9394 54.3006 13.8466C54.6121 13.7538 54.8955 13.6162 55.1507 13.4339C55.4092 13.2483 55.628 13.0213 55.807 12.7528C55.9892 12.4811 56.1168 12.1695 56.1898 11.8182H57.4227C57.3299 12.3385 57.1609 12.8042 56.9156 13.2152C56.6704 13.6262 56.3654 13.9759 56.0008 14.2642C55.6363 14.5492 55.2269 14.7663 54.7729 14.9155C54.3221 15.0646 53.8399 15.1392 53.3261 15.1392C52.4578 15.1392 51.6855 14.9271 51.0094 14.5028C50.3332 14.0786 49.8013 13.4754 49.4135 12.6932C49.0257 11.911 48.8318 10.983 48.8318 9.90909C48.8318 8.83523 49.0257 7.9072 49.4135 7.125C49.8013 6.3428 50.3332 5.73958 51.0094 5.31534C51.6855 4.8911 52.4578 4.67898 53.3261 4.67898C53.8399 4.67898 54.3221 4.75355 54.7729 4.9027C55.2269 5.05185 55.6363 5.2706 56.0008 5.55895C56.3654 5.84399 56.6704 6.192 56.9156 6.60298C57.1609 7.01065 57.3299 7.47633 57.4227 8ZM62.3583 15.1591C61.6689 15.1591 61.064 14.995 60.5436 14.6669C60.0266 14.3388 59.6222 13.8797 59.3306 13.2898C59.0422 12.6998 58.898 12.0104 58.898 11.2216C58.898 10.4261 59.0422 9.73177 59.3306 9.13849C59.6222 8.54522 60.0266 8.08452 60.5436 7.75639C61.064 7.42827 61.6689 7.2642 62.3583 7.2642C63.0477 7.2642 63.6509 7.42827 64.1679 7.75639C64.6883 8.08452 65.0926 8.54522 65.381 9.13849C65.6727 9.73177 65.8185 10.4261 65.8185 11.2216C65.8185 12.0104 65.6727 12.6998 65.381 13.2898C65.0926 13.8797 64.6883 14.3388 64.1679 14.6669C63.6509 14.995 63.0477 15.1591 62.3583 15.1591ZM62.3583 14.1051C62.8819 14.1051 63.3128 13.9709 63.6509 13.7024C63.9889 13.4339 64.2392 13.081 64.4016 12.6435C64.564 12.206 64.6452 11.732 64.6452 11.2216C64.6452 10.7112 64.564 10.2356 64.4016 9.79474C64.2392 9.35393 63.9889 8.99763 63.6509 8.72585C63.3128 8.45407 62.8819 8.31818 62.3583 8.31818C61.8346 8.31818 61.4037 8.45407 61.0657 8.72585C60.7276 8.99763 60.4773 9.35393 60.3149 9.79474C60.1525 10.2356 60.0713 10.7112 60.0713 11.2216C60.0713 11.732 60.1525 12.206 60.3149 12.6435C60.4773 13.081 60.7276 13.4339 61.0657 13.7024C61.4037 13.9709 61.8346 14.1051 62.3583 14.1051ZM72.422 11.8778V7.36364H73.5953V15H72.422V13.7074H72.3425C72.1635 14.0952 71.8851 14.425 71.5072 14.6967C71.1294 14.9652 70.6521 15.0994 70.0754 15.0994C69.5981 15.0994 69.1739 14.995 68.8027 14.7862C68.4315 14.5741 68.1398 14.2559 67.9277 13.8317C67.7156 13.4041 67.6095 12.8655 67.6095 12.2159V7.36364H68.7828V12.1364C68.7828 12.6932 68.9386 13.1373 69.2501 13.4688C69.565 13.8002 69.966 13.9659 70.4533 13.9659C70.7449 13.9659 71.0416 13.8913 71.3432 13.7422C71.6481 13.593 71.9033 13.3643 72.1088 13.0561C72.3176 12.7479 72.422 12.3551 72.422 11.8778ZM76.9176 10.4062V15H75.7443V7.36364H76.8778V8.55682H76.9772C77.1562 8.16903 77.428 7.85748 77.7926 7.62216C78.1572 7.38352 78.6278 7.2642 79.2045 7.2642C79.7215 7.2642 80.174 7.37027 80.5617 7.58239C80.9495 7.79119 81.2511 8.10938 81.4666 8.53693C81.682 8.96117 81.7897 9.49811 81.7897 10.1477V15H80.6164V10.2273C80.6164 9.62737 80.4607 9.16004 80.1491 8.82528C79.8376 8.48722 79.41 8.31818 78.8664 8.31818C78.4919 8.31818 78.1572 8.39938 77.8622 8.56179C77.5705 8.72419 77.3402 8.96117 77.1711 9.27273C77.0021 9.58428 76.9176 9.96212 76.9176 10.4062ZM87.2547 7.36364V8.35795H83.2974V7.36364H87.2547ZM84.4508 5.53409H85.6241V12.8125C85.6241 13.1439 85.6721 13.3925 85.7682 13.5582C85.8677 13.7206 85.9936 13.83 86.1461 13.8864C86.3019 13.9394 86.4659 13.9659 86.6383 13.9659C86.7675 13.9659 86.8736 13.9593 86.9565 13.946C87.0393 13.9295 87.1056 13.9162 87.1553 13.9062L87.394 14.9602C87.3144 14.9901 87.2034 15.0199 87.0609 15.0497C86.9183 15.0829 86.7377 15.0994 86.519 15.0994C86.1875 15.0994 85.8627 15.0282 85.5445 14.8857C85.2297 14.7431 84.9678 14.526 84.759 14.2344C84.5535 13.9427 84.4508 13.5748 84.4508 13.1307V5.53409ZM89.0197 15V7.36364H90.1532V8.51705H90.2327C90.3719 8.1392 90.6238 7.83262 90.9884 7.5973C91.353 7.36198 91.764 7.24432 92.2214 7.24432C92.3075 7.24432 92.4153 7.24597 92.5445 7.24929C92.6738 7.2526 92.7716 7.25758 92.8378 7.2642V8.45739C92.7981 8.44744 92.7069 8.43253 92.5644 8.41264C92.4252 8.38944 92.2777 8.37784 92.1219 8.37784C91.7507 8.37784 91.4193 8.45573 91.1276 8.61151C90.8393 8.76397 90.6106 8.97609 90.4415 9.24787C90.2758 9.51634 90.193 9.82292 90.193 10.1676V15H89.0197ZM95.2168 17.8438C95.0179 17.8438 94.8406 17.8272 94.6848 17.794C94.529 17.7642 94.4213 17.7344 94.3616 17.7045L94.6599 16.6705C95.0875 16.7798 95.4438 16.7765 95.7288 16.6605C96.0139 16.5478 96.2608 16.2064 96.4696 15.6364L96.6883 15.0398L93.8645 7.36364H95.1372L97.2452 13.4489H97.3247L99.4327 7.36364L100.715 7.38352L97.4639 16.1136C97.3181 16.5014 97.1374 16.8229 96.922 17.0781C96.7066 17.3366 96.4563 17.5289 96.1713 17.6548C95.8896 17.7808 95.5714 17.8438 95.2168 17.8438Z" fill="white" fill-opacity="0.95"/>
<mask id="path-3-inside-1_2149_76998" fill="white">
<path d="M47.9966 36C47.9966 31.5817 51.5783 28 55.9966 28H303.766V60H55.9966C51.5783 60 47.9966 56.4183 47.9966 52V36Z"/>
</mask>
<path d="M46.9966 36C46.9966 31.0294 51.026 27 55.9966 27H303.766V29H55.9966C52.1306 29 48.9966 32.134 48.9966 36H46.9966ZM303.766 61H55.9966C51.026 61 46.9966 56.9706 46.9966 52H48.9966C48.9966 55.866 52.1306 59 55.9966 59H303.766V61ZM55.9966 61C51.026 61 46.9966 56.9706 46.9966 52V36C46.9966 31.0294 51.026 27 55.9966 27V29C52.1306 29 48.9966 32.134 48.9966 36V52C48.9966 55.866 52.1306 59 55.9966 59V61ZM303.766 28V60V28Z" fill="white" fill-opacity="0.5" mask="url(#path-3-inside-1_2149_76998)"/>
<path d="M67.9114 38.8182H69.1443V45.5597C69.1443 46.2557 68.9802 46.8771 68.6521 47.424C68.3273 47.9676 67.8683 48.3968 67.275 48.7116C66.6817 49.0232 65.9857 49.179 65.1869 49.179C64.3882 49.179 63.6921 49.0232 63.0989 48.7116C62.5056 48.3968 62.0449 47.9676 61.7168 47.424C61.3919 46.8771 61.2295 46.2557 61.2295 45.5597V38.8182H62.4625V45.4602C62.4625 45.9574 62.5719 46.3999 62.7906 46.7876C63.0094 47.1721 63.3209 47.4754 63.7253 47.6974C64.1329 47.9162 64.6202 48.0256 65.1869 48.0256C65.7537 48.0256 66.2409 47.9162 66.6486 47.6974C67.0562 47.4754 67.3678 47.1721 67.5832 46.7876C67.802 46.3999 67.9114 45.9574 67.9114 45.4602V38.8182ZM72.6207 44.4062V49H71.4474V41.3636H72.5809V42.5568H72.6804C72.8593 42.169 73.1311 41.8575 73.4957 41.6222C73.8603 41.3835 74.3309 41.2642 74.9076 41.2642C75.4247 41.2642 75.8771 41.3703 76.2649 41.5824C76.6527 41.7912 76.9543 42.1094 77.1697 42.5369C77.3851 42.9612 77.4929 43.4981 77.4929 44.1477V49H76.3196V44.2273C76.3196 43.6274 76.1638 43.16 75.8522 42.8253C75.5407 42.4872 75.1131 42.3182 74.5696 42.3182C74.195 42.3182 73.8603 42.3994 73.5653 42.5618C73.2736 42.7242 73.0433 42.9612 72.8742 43.2727C72.7052 43.5843 72.6207 43.9621 72.6207 44.4062ZM79.6369 49V41.3636H80.8101V49H79.6369ZM80.2334 40.0909C80.0047 40.0909 79.8075 40.013 79.6418 39.8572C79.4794 39.7015 79.3982 39.5142 79.3982 39.2955C79.3982 39.0767 79.4794 38.8894 79.6418 38.7337C79.8075 38.5779 80.0047 38.5 80.2334 38.5C80.4621 38.5 80.6577 38.5779 80.8201 38.7337C80.9858 38.8894 81.0687 39.0767 81.0687 39.2955C81.0687 39.5142 80.9858 39.7015 80.8201 39.8572C80.6577 40.013 80.4621 40.0909 80.2334 40.0909ZM86.2801 41.3636V42.358H82.3228V41.3636H86.2801ZM83.4762 39.5341H84.6495V46.8125C84.6495 47.1439 84.6975 47.3925 84.7936 47.5582C84.8931 47.7206 85.019 47.83 85.1715 47.8864C85.3273 47.9394 85.4913 47.9659 85.6637 47.9659C85.7929 47.9659 85.899 47.9593 85.9818 47.946C86.0647 47.9295 86.131 47.9162 86.1807 47.9062L86.4193 48.9602C86.3398 48.9901 86.2288 49.0199 86.0862 49.0497C85.9437 49.0829 85.7631 49.0994 85.5443 49.0994C85.2129 49.0994 84.8881 49.0282 84.5699 48.8857C84.255 48.7431 83.9932 48.526 83.7844 48.2344C83.5789 47.9427 83.4762 47.5748 83.4762 47.1307V39.5341ZM91.1647 49.1591C90.4289 49.1591 89.7942 48.9967 89.2606 48.6719C88.7303 48.3438 88.321 47.8864 88.0326 47.2997C87.7476 46.7098 87.6051 46.0237 87.6051 45.2415C87.6051 44.4593 87.7476 43.7699 88.0326 43.1733C88.321 42.5734 88.722 42.1061 89.2358 41.7713C89.7528 41.4332 90.356 41.2642 91.0454 41.2642C91.4431 41.2642 91.8359 41.3305 92.2237 41.4631C92.6115 41.5956 92.9644 41.8111 93.2826 42.1094C93.6008 42.4044 93.8544 42.7955 94.0433 43.2827C94.2322 43.7699 94.3267 44.3698 94.3267 45.0824V45.5795H88.4403V44.5653H93.1335C93.1335 44.1345 93.0473 43.75 92.875 43.4119C92.7059 43.0739 92.464 42.8071 92.1491 42.6115C91.8376 42.416 91.4697 42.3182 91.0454 42.3182C90.5781 42.3182 90.1737 42.4342 89.8323 42.6662C89.4943 42.8949 89.2341 43.1932 89.0518 43.5611C88.8695 43.929 88.7784 44.3234 88.7784 44.7443V45.4205C88.7784 45.9972 88.8778 46.486 89.0767 46.8871C89.2788 47.2848 89.5589 47.5881 89.9169 47.7969C90.2748 48.0024 90.6908 48.1051 91.1647 48.1051C91.473 48.1051 91.7514 48.062 92 47.9759C92.2518 47.8864 92.4689 47.7538 92.6512 47.5781C92.8335 47.3991 92.9744 47.1771 93.0738 46.9119L94.2073 47.2301C94.088 47.6146 93.8875 47.9527 93.6058 48.2443C93.3241 48.5327 92.976 48.758 92.5617 48.9205C92.1474 49.0795 91.6818 49.1591 91.1647 49.1591ZM98.995 49.1591C98.3586 49.1591 97.7968 48.9983 97.3096 48.6768C96.8224 48.352 96.4412 47.8946 96.1661 47.3047C95.8911 46.7114 95.7535 46.0104 95.7535 45.2017C95.7535 44.3996 95.8911 43.7036 96.1661 43.1136C96.4412 42.5237 96.8241 42.0679 97.3146 41.7464C97.8051 41.425 98.3719 41.2642 99.0149 41.2642C99.512 41.2642 99.9048 41.3471 100.193 41.5128C100.485 41.6752 100.707 41.8608 100.859 42.0696C101.015 42.2751 101.136 42.4441 101.222 42.5767H101.322V38.8182H102.495V49H101.361V47.8267H101.222C101.136 47.9659 101.013 48.1416 100.854 48.3537C100.695 48.5625 100.468 48.7498 100.173 48.9155C99.8783 49.0779 99.4855 49.1591 98.995 49.1591ZM99.1541 48.1051C99.6247 48.1051 100.022 47.9825 100.347 47.7372C100.672 47.4886 100.919 47.1456 101.088 46.7081C101.257 46.2673 101.342 45.7585 101.342 45.1818C101.342 44.6117 101.259 44.1129 101.093 43.6854C100.927 43.2545 100.682 42.9197 100.357 42.6811C100.032 42.4392 99.6313 42.3182 99.1541 42.3182C98.6569 42.3182 98.2426 42.4458 97.9112 42.701C97.5831 42.9529 97.3361 43.2959 97.1704 43.7301C97.008 44.161 96.9268 44.6449 96.9268 45.1818C96.9268 45.7254 97.0097 46.2192 97.1754 46.6634C97.3444 47.1042 97.593 47.4555 97.9211 47.7173C98.2526 47.9759 98.6635 48.1051 99.1541 48.1051ZM108.903 49V38.8182H110.136V43.8693H110.256L114.83 38.8182H116.44L112.165 43.4119L116.44 49H114.949L111.409 44.267L110.136 45.6989V49H108.903ZM118.356 49V41.3636H119.529V49H118.356ZM118.952 40.0909C118.723 40.0909 118.526 40.013 118.361 39.8572C118.198 39.7015 118.117 39.5142 118.117 39.2955C118.117 39.0767 118.198 38.8894 118.361 38.7337C118.526 38.5779 118.723 38.5 118.952 38.5C119.181 38.5 119.376 38.5779 119.539 38.7337C119.705 38.8894 119.787 39.0767 119.787 39.2955C119.787 39.5142 119.705 39.7015 119.539 39.8572C119.376 40.013 119.181 40.0909 118.952 40.0909ZM122.851 44.4062V49H121.678V41.3636H122.811V42.5568H122.911C123.09 42.169 123.362 41.8575 123.726 41.6222C124.091 41.3835 124.561 41.2642 125.138 41.2642C125.655 41.2642 126.108 41.3703 126.495 41.5824C126.883 41.7912 127.185 42.1094 127.4 42.5369C127.616 42.9612 127.723 43.4981 127.723 44.1477V49H126.55V44.2273C126.55 43.6274 126.394 43.16 126.083 42.8253C125.771 42.4872 125.344 42.3182 124.8 42.3182C124.426 42.3182 124.091 42.3994 123.796 42.5618C123.504 42.7242 123.274 42.9612 123.105 43.2727C122.936 43.5843 122.851 43.9621 122.851 44.4062ZM132.95 52.0227C132.383 52.0227 131.896 51.9498 131.488 51.804C131.08 51.6615 130.741 51.4725 130.469 51.2372C130.2 51.0052 129.987 50.7566 129.828 50.4915L130.762 49.8352C130.868 49.9744 131.003 50.1335 131.165 50.3125C131.327 50.4948 131.549 50.6522 131.831 50.7848C132.116 50.9207 132.489 50.9886 132.95 50.9886C133.566 50.9886 134.075 50.8395 134.476 50.5412C134.877 50.2429 135.078 49.7756 135.078 49.1392V47.5881H134.978C134.892 47.7273 134.769 47.8996 134.61 48.1051C134.454 48.3073 134.229 48.4879 133.934 48.647C133.642 48.8028 133.248 48.8807 132.751 48.8807C132.134 48.8807 131.581 48.7348 131.09 48.4432C130.603 48.1515 130.217 47.7273 129.932 47.1705C129.65 46.6136 129.509 45.9375 129.509 45.142C129.509 44.3598 129.647 43.6787 129.922 43.0987C130.197 42.5154 130.58 42.0646 131.07 41.7464C131.561 41.425 132.128 41.2642 132.771 41.2642C133.268 41.2642 133.662 41.3471 133.954 41.5128C134.249 41.6752 134.474 41.8608 134.63 42.0696C134.789 42.2751 134.912 42.4441 134.998 42.5767H135.117V41.3636H136.251V49.2188C136.251 49.875 136.102 50.4086 135.803 50.8196C135.508 51.2339 135.111 51.5372 134.61 51.7294C134.113 51.925 133.56 52.0227 132.95 52.0227ZM132.91 47.8267C133.381 47.8267 133.778 47.719 134.103 47.5036C134.428 47.2881 134.675 46.9782 134.844 46.5739C135.013 46.1695 135.097 45.6856 135.097 45.1222C135.097 44.572 135.015 44.0864 134.849 43.6655C134.683 43.2446 134.438 42.9148 134.113 42.6761C133.788 42.4375 133.387 42.3182 132.91 42.3182C132.413 42.3182 131.998 42.4441 131.667 42.696C131.339 42.9479 131.092 43.286 130.926 43.7102C130.764 44.1345 130.683 44.6051 130.683 45.1222C130.683 45.6525 130.766 46.1214 130.931 46.5291C131.1 46.9335 131.349 47.2517 131.677 47.4837C132.008 47.7124 132.419 47.8267 132.91 47.8267ZM141.282 49.1591C140.646 49.1591 140.084 48.9983 139.597 48.6768C139.11 48.352 138.728 47.8946 138.453 47.3047C138.178 46.7114 138.041 46.0104 138.041 45.2017C138.041 44.3996 138.178 43.7036 138.453 43.1136C138.728 42.5237 139.111 42.0679 139.602 41.7464C140.092 41.425 140.659 41.2642 141.302 41.2642C141.799 41.2642 142.192 41.3471 142.48 41.5128C142.772 41.6752 142.994 41.8608 143.146 42.0696C143.302 42.2751 143.423 42.4441 143.509 42.5767H143.609V38.8182H144.782V49H143.649V47.8267H143.509C143.423 47.9659 143.301 48.1416 143.141 48.3537C142.982 48.5625 142.755 48.7498 142.46 48.9155C142.165 49.0779 141.773 49.1591 141.282 49.1591ZM141.441 48.1051C141.912 48.1051 142.31 47.9825 142.634 47.7372C142.959 47.4886 143.206 47.1456 143.375 46.7081C143.544 46.2673 143.629 45.7585 143.629 45.1818C143.629 44.6117 143.546 44.1129 143.38 43.6854C143.214 43.2545 142.969 42.9197 142.644 42.6811C142.319 42.4392 141.918 42.3182 141.441 42.3182C140.944 42.3182 140.53 42.4458 140.198 42.701C139.87 42.9529 139.623 43.2959 139.458 43.7301C139.295 44.161 139.214 44.6449 139.214 45.1818C139.214 45.7254 139.297 46.2192 139.462 46.6634C139.632 47.1042 139.88 47.4555 140.208 47.7173C140.54 47.9759 140.951 48.1051 141.441 48.1051ZM150.196 49.1591C149.507 49.1591 148.902 48.995 148.382 48.6669C147.864 48.3388 147.46 47.8797 147.168 47.2898C146.88 46.6998 146.736 46.0104 146.736 45.2216C146.736 44.4261 146.88 43.7318 147.168 43.1385C147.46 42.5452 147.864 42.0845 148.382 41.7564C148.902 41.4283 149.507 41.2642 150.196 41.2642C150.886 41.2642 151.489 41.4283 152.006 41.7564C152.526 42.0845 152.931 42.5452 153.219 43.1385C153.511 43.7318 153.656 44.4261 153.656 45.2216C153.656 46.0104 153.511 46.6998 153.219 47.2898C152.931 47.8797 152.526 48.3388 152.006 48.6669C151.489 48.995 150.886 49.1591 150.196 49.1591ZM150.196 48.1051C150.72 48.1051 151.151 47.9709 151.489 47.7024C151.827 47.4339 152.077 47.081 152.239 46.6435C152.402 46.206 152.483 45.732 152.483 45.2216C152.483 44.7112 152.402 44.2356 152.239 43.7947C152.077 43.3539 151.827 42.9976 151.489 42.7259C151.151 42.4541 150.72 42.3182 150.196 42.3182C149.672 42.3182 149.242 42.4541 148.904 42.7259C148.565 42.9976 148.315 43.3539 148.153 43.7947C147.99 44.2356 147.909 44.7112 147.909 45.2216C147.909 45.732 147.99 46.206 148.153 46.6435C148.315 47.081 148.565 47.4339 148.904 47.7024C149.242 47.9709 149.672 48.1051 150.196 48.1051ZM155.447 49V41.3636H156.581V42.5568H156.68C156.839 42.1491 157.096 41.8326 157.451 41.6072C157.806 41.3786 158.231 41.2642 158.729 41.2642C159.232 41.2642 159.652 41.3786 159.986 41.6072C160.325 41.8326 160.588 42.1491 160.777 42.5568H160.856C161.052 42.1624 161.345 41.8492 161.736 41.6172C162.128 41.3819 162.597 41.2642 163.143 41.2642C163.826 41.2642 164.385 41.478 164.819 41.9055C165.253 42.3298 165.47 42.991 165.47 43.8892V49H164.297V43.8892C164.297 43.3258 164.143 42.9231 163.834 42.6811C163.526 42.4392 163.163 42.3182 162.746 42.3182C162.209 42.3182 161.793 42.4806 161.498 42.8054C161.203 43.1269 161.055 43.5346 161.055 44.0284V49H159.862V43.7699C159.862 43.3357 159.721 42.986 159.44 42.7209C159.158 42.4524 158.795 42.3182 158.351 42.3182C158.046 42.3182 157.761 42.3994 157.496 42.5618C157.234 42.7242 157.022 42.9496 156.859 43.2379C156.7 43.523 156.621 43.8527 156.621 44.2273V49H155.447Z" fill="white" fill-opacity="0.95"/>
<rect width="1" height="30" transform="translate(302.766 29)" fill="white" fill-opacity="0.5"/>
<g filter="url(#filter0_ddd_2149_76998)">
<mask id="path-6-inside-2_2149_76998" fill="white">
<path d="M303.766 28H327.766C332.185 28 335.766 31.5817 335.766 36V52C335.766 56.4183 332.185 60 327.766 60H303.766V28Z"/>
</mask>
<path d="M303.766 28H327.766C332.185 28 335.766 31.5817 335.766 36V52C335.766 56.4183 332.185 60 327.766 60H303.766V28Z" fill="white" fill-opacity="0.11" shape-rendering="crispEdges"/>
<path d="M303.766 27H327.766C332.737 27 336.766 31.0294 336.766 36H334.766C334.766 32.134 331.632 29 327.766 29H303.766V27ZM336.766 52C336.766 56.9706 332.737 61 327.766 61H303.766V59H327.766C331.632 59 334.766 55.866 334.766 52H336.766ZM303.766 60V28V60ZM327.766 27C332.737 27 336.766 31.0294 336.766 36V52C336.766 56.9706 332.737 61 327.766 61V59C331.632 59 334.766 55.866 334.766 52V36C334.766 32.134 331.632 29 327.766 29V27Z" fill="white" fill-opacity="0.5" mask="url(#path-6-inside-2_2149_76998)"/>
<path d="M326.12 46.6467L320.12 40.6467C320.026 40.5529 319.899 40.5002 319.766 40.5002C319.634 40.5002 319.507 40.5529 319.413 40.6467L313.413 46.6467C313.366 46.6929 313.328 46.748 313.302 46.8089C313.276 46.8699 313.262 46.9353 313.262 47.0015C313.262 47.0677 313.274 47.1333 313.299 47.1945C313.325 47.2558 313.362 47.3114 313.408 47.3582C313.455 47.405 313.511 47.4421 313.572 47.4672C313.633 47.4923 313.699 47.5051 313.765 47.5047C313.831 47.5042 313.897 47.4907 313.958 47.4648C314.019 47.4389 314.074 47.4011 314.12 47.3537L319.766 41.7072L325.413 47.3537C325.459 47.4011 325.514 47.4389 325.575 47.4648C325.636 47.4907 325.702 47.5042 325.768 47.5047C325.834 47.5051 325.9 47.4923 325.961 47.4672C326.022 47.4421 326.078 47.405 326.124 47.3582C326.171 47.3114 326.208 47.2558 326.233 47.1945C326.259 47.1333 326.271 47.0677 326.271 47.0015C326.27 46.9353 326.257 46.8699 326.231 46.8089C326.205 46.748 326.167 46.6929 326.12 46.6467Z" fill="white" fill-opacity="0.95"/>
</g>
<path d="M49.2295 83V72.8182H55.3744V73.9119H50.4625V77.3523H55.0562V78.446H50.4625V81.9062H55.454V83H49.2295ZM58.3126 75.3636L60.1422 78.4858L61.9717 75.3636H63.324L60.8581 79.1818L63.324 83H61.9717L60.1422 80.0369L58.3126 83H56.9604L59.3865 79.1818L56.9604 75.3636H58.3126ZM67.2453 83.179C66.7614 83.179 66.3223 83.0878 65.9279 82.9055C65.5335 82.7199 65.2202 82.4531 64.9882 82.1051C64.7562 81.7538 64.6402 81.3295 64.6402 80.8324C64.6402 80.3949 64.7264 80.0402 64.8987 79.7685C65.0711 79.4934 65.3014 79.2779 65.5898 79.1222C65.8782 78.9664 66.1963 78.8504 66.5443 78.7741C66.8957 78.6946 67.2487 78.6316 67.6033 78.5852C68.0673 78.5256 68.4435 78.4808 68.7318 78.451C69.0235 78.4179 69.2356 78.3632 69.3682 78.2869C69.5041 78.2107 69.572 78.0781 69.572 77.8892V77.8494C69.572 77.3589 69.4378 76.9777 69.1693 76.706C68.9042 76.4342 68.5015 76.2983 67.9612 76.2983C67.4011 76.2983 66.962 76.4209 66.6438 76.6662C66.3256 76.9115 66.1019 77.1733 65.9726 77.4517L64.859 77.054C65.0578 76.59 65.323 76.2287 65.6544 75.9702C65.9892 75.7083 66.3538 75.526 66.7482 75.4233C67.1459 75.3172 67.537 75.2642 67.9215 75.2642C68.1667 75.2642 68.4485 75.294 68.7666 75.3537C69.0881 75.41 69.398 75.5277 69.6963 75.7067C69.9979 75.8857 70.2482 76.1558 70.447 76.517C70.6459 76.8783 70.7453 77.3622 70.7453 77.9688V83H69.572V81.9659H69.5124C69.4328 82.1316 69.3003 82.3089 69.1147 82.4979C68.9291 82.6868 68.6821 82.8475 68.3739 82.9801C68.0657 83.1127 67.6895 83.179 67.2453 83.179ZM67.4243 82.125C67.8883 82.125 68.2794 82.0339 68.5976 81.8516C68.9191 81.6693 69.1611 81.4339 69.3235 81.1456C69.4892 80.8572 69.572 80.554 69.572 80.2358V79.1619C69.5223 79.2216 69.413 79.2763 69.2439 79.326C69.0782 79.3724 68.886 79.4138 68.6672 79.4503C68.4518 79.4834 68.2413 79.5133 68.0358 79.5398C67.8336 79.563 67.6696 79.5829 67.5436 79.5994C67.2387 79.6392 66.9537 79.7038 66.6885 79.7933C66.4267 79.8795 66.2146 80.0104 66.0522 80.1861C65.8931 80.3584 65.8135 80.5937 65.8135 80.892C65.8135 81.2997 65.9643 81.608 66.2659 81.8168C66.5709 82.0223 66.957 82.125 67.4243 82.125ZM72.8869 83V75.3636H74.0204V76.5568H74.1198C74.2789 76.1491 74.5358 75.8326 74.8904 75.6072C75.245 75.3786 75.6709 75.2642 76.1681 75.2642C76.6719 75.2642 77.0912 75.3786 77.4259 75.6072C77.764 75.8326 78.0275 76.1491 78.2164 76.5568H78.2959C78.4915 76.1624 78.7848 75.8492 79.1759 75.6172C79.567 75.3819 80.036 75.2642 80.5829 75.2642C81.2656 75.2642 81.8241 75.478 82.2583 75.9055C82.6925 76.3298 82.9096 76.991 82.9096 77.8892V83H81.7363V77.8892C81.7363 77.3258 81.5822 76.9231 81.2739 76.6811C80.9657 76.4392 80.6028 76.3182 80.1851 76.3182C79.6482 76.3182 79.2323 76.4806 78.9373 76.8054C78.6423 77.1269 78.4948 77.5346 78.4948 78.0284V83H77.3016V77.7699C77.3016 77.3357 77.1608 76.986 76.879 76.7209C76.5973 76.4524 76.2344 76.3182 75.7903 76.3182C75.4853 76.3182 75.2003 76.3994 74.9351 76.5618C74.6733 76.7242 74.4612 76.9496 74.2988 77.2379C74.1397 77.523 74.0601 77.8527 74.0601 78.2273V83H72.8869ZM85.0548 85.8636V75.3636H86.1883V76.5767H86.3275C86.4137 76.4441 86.533 76.2751 86.6855 76.0696C86.8413 75.8608 87.0633 75.6752 87.3517 75.5128C87.6434 75.3471 88.0378 75.2642 88.5349 75.2642C89.1779 75.2642 89.7447 75.425 90.2352 75.7464C90.7257 76.0679 91.1086 76.5237 91.3837 77.1136C91.6588 77.7036 91.7963 78.3996 91.7963 79.2017C91.7963 80.0104 91.6588 80.7114 91.3837 81.3047C91.1086 81.8946 90.7274 82.352 90.2402 82.6768C89.753 82.9983 89.1912 83.1591 88.5548 83.1591C88.0643 83.1591 87.6715 83.0779 87.3766 82.9155C87.0816 82.7498 86.8545 82.5625 86.6954 82.3537C86.5364 82.1416 86.4137 81.9659 86.3275 81.8267H86.2281V85.8636H85.0548ZM86.2082 79.1818C86.2082 79.7585 86.2927 80.2673 86.4618 80.7081C86.6308 81.1456 86.8777 81.4886 87.2025 81.7372C87.5274 81.9825 87.9251 82.1051 88.3957 82.1051C88.8863 82.1051 89.2956 81.9759 89.6237 81.7173C89.9552 81.4555 90.2037 81.1042 90.3695 80.6634C90.5385 80.2192 90.623 79.7254 90.623 79.1818C90.623 78.6449 90.5401 78.161 90.3744 77.7301C90.212 77.2959 89.9651 76.9529 89.6337 76.701C89.3055 76.4458 88.8929 76.3182 88.3957 76.3182C87.9185 76.3182 87.5174 76.4392 87.1926 76.6811C86.8678 76.9197 86.6225 77.2545 86.4568 77.6854C86.2911 78.1129 86.2082 78.6117 86.2082 79.1818ZM94.7594 72.8182V83H93.5861V72.8182H94.7594ZM100.11 83.1591C99.3742 83.1591 98.7395 82.9967 98.2059 82.6719C97.6756 82.3438 97.2663 81.8864 96.9779 81.2997C96.6929 80.7098 96.5504 80.0237 96.5504 79.2415C96.5504 78.4593 96.6929 77.7699 96.9779 77.1733C97.2663 76.5734 97.6673 76.1061 98.1811 75.7713C98.6981 75.4332 99.3013 75.2642 99.9907 75.2642C100.388 75.2642 100.781 75.3305 101.169 75.4631C101.557 75.5956 101.91 75.8111 102.228 76.1094C102.546 76.4044 102.8 76.7955 102.989 77.2827C103.178 77.7699 103.272 78.3698 103.272 79.0824V79.5795H97.3856V78.5653H102.079C102.079 78.1345 101.993 77.75 101.82 77.4119C101.651 77.0739 101.409 76.8071 101.094 76.6115C100.783 76.416 100.415 76.3182 99.9907 76.3182C99.5234 76.3182 99.119 76.4342 98.7777 76.6662C98.4396 76.8949 98.1794 77.1932 97.9971 77.5611C97.8148 77.929 97.7237 78.3234 97.7237 78.7443V79.4205C97.7237 79.9972 97.8231 80.486 98.022 80.8871C98.2242 81.2848 98.5042 81.5881 98.8622 81.7969C99.2201 82.0024 99.6361 82.1051 100.11 82.1051C100.418 82.1051 100.697 82.062 100.945 81.9759C101.197 81.8864 101.414 81.7538 101.597 81.5781C101.779 81.3991 101.92 81.1771 102.019 80.9119L103.153 81.2301C103.033 81.6146 102.833 81.9527 102.551 82.2443C102.269 82.5327 101.921 82.758 101.507 82.9205C101.093 83.0795 100.627 83.1591 100.11 83.1591ZM105.912 83.0795C105.667 83.0795 105.456 82.9917 105.28 82.8161C105.105 82.6404 105.017 82.4299 105.017 82.1847C105.017 81.9394 105.105 81.7289 105.28 81.5533C105.456 81.3776 105.667 81.2898 105.912 81.2898C106.157 81.2898 106.368 81.3776 106.543 81.5533C106.719 81.7289 106.807 81.9394 106.807 82.1847C106.807 82.3471 106.765 82.4962 106.682 82.6321C106.603 82.768 106.495 82.8774 106.359 82.9602C106.227 83.0398 106.078 83.0795 105.912 83.0795ZM105.912 77.4119C105.667 77.4119 105.456 77.3241 105.28 77.1484C105.105 76.9728 105.017 76.7623 105.017 76.517C105.017 76.2718 105.105 76.0613 105.28 75.8857C105.456 75.71 105.667 75.6222 105.912 75.6222C106.157 75.6222 106.368 75.71 106.543 75.8857C106.719 76.0613 106.807 76.2718 106.807 76.517C106.807 76.6795 106.765 76.8286 106.682 76.9645C106.603 77.1004 106.495 77.2098 106.359 77.2926C106.227 77.3722 106.078 77.4119 105.912 77.4119ZM115.833 82.304V75.7415H116.946V82.304H115.833ZM113.108 79.5795V78.4659H119.671V79.5795H113.108ZM125.638 72.8182V83H124.405V74.1108H124.345L121.86 75.7614V74.5085L124.405 72.8182H125.638ZM136.083 72.8182V83H134.85V74.1108H134.791L132.305 75.7614V74.5085L134.85 72.8182H136.083ZM139.011 83V82.1051L142.372 78.4261C142.767 77.9953 143.092 77.6207 143.347 77.3026C143.602 76.9811 143.791 76.6795 143.913 76.3977C144.039 76.1127 144.102 75.8144 144.102 75.5028C144.102 75.1449 144.016 74.835 143.844 74.5732C143.675 74.3113 143.443 74.1091 143.148 73.9666C142.853 73.8241 142.521 73.7528 142.154 73.7528C141.762 73.7528 141.421 73.834 141.129 73.9964C140.841 74.1555 140.617 74.3793 140.458 74.6676C140.302 74.956 140.225 75.294 140.225 75.6818H139.051C139.051 75.0852 139.189 74.5616 139.464 74.1108C139.739 73.66 140.114 73.3087 140.587 73.0568C141.065 72.8049 141.6 72.679 142.193 72.679C142.79 72.679 143.319 72.8049 143.779 73.0568C144.24 73.3087 144.601 73.6484 144.863 74.076C145.125 74.5036 145.256 74.9792 145.256 75.5028C145.256 75.8774 145.188 76.2436 145.052 76.6016C144.919 76.9562 144.687 77.3523 144.356 77.7898C144.028 78.224 143.572 78.7543 142.989 79.3807L140.702 81.8267V81.9062H145.435V83H139.011ZM150.928 83.1392C150.272 83.1392 149.687 83.0265 149.173 82.8011C148.663 82.5758 148.257 82.2625 147.955 81.8615C147.657 81.4571 147.495 80.9882 147.468 80.4545H148.721C148.748 80.7827 148.86 81.0661 149.059 81.3047C149.258 81.54 149.518 81.7223 149.84 81.8516C150.161 81.9808 150.517 82.0455 150.909 82.0455C151.346 82.0455 151.734 81.9692 152.072 81.8168C152.41 81.6643 152.675 81.4522 152.867 81.1804C153.06 80.9086 153.156 80.5938 153.156 80.2358C153.156 79.8613 153.063 79.5315 152.877 79.2464C152.692 78.9581 152.42 78.7327 152.062 78.5703C151.704 78.4079 151.266 78.3267 150.749 78.3267H149.934V77.233H150.749C151.154 77.233 151.508 77.16 151.813 77.0142C152.122 76.8684 152.362 76.6629 152.534 76.3977C152.71 76.1326 152.798 75.821 152.798 75.4631C152.798 75.1184 152.721 74.8184 152.569 74.5632C152.417 74.308 152.201 74.1091 151.923 73.9666C151.648 73.8241 151.323 73.7528 150.948 73.7528C150.597 73.7528 150.266 73.8175 149.954 73.9467C149.646 74.0727 149.394 74.2566 149.198 74.4986C149.003 74.7372 148.897 75.0256 148.88 75.3636H147.687C147.707 74.83 147.868 74.3627 148.169 73.9616C148.471 73.5573 148.865 73.2424 149.352 73.017C149.843 72.7917 150.382 72.679 150.968 72.679C151.598 72.679 152.138 72.8066 152.589 73.0618C153.04 73.3137 153.386 73.6468 153.628 74.0611C153.87 74.4754 153.991 74.9228 153.991 75.4034C153.991 75.9768 153.84 76.4657 153.538 76.87C153.24 77.2744 152.834 77.5545 152.32 77.7102V77.7898C152.963 77.8958 153.466 78.1693 153.827 78.6101C154.188 79.0476 154.369 79.5895 154.369 80.2358C154.369 80.7893 154.218 81.2865 153.916 81.7273C153.618 82.1648 153.21 82.5095 152.693 82.7614C152.176 83.0133 151.588 83.1392 150.928 83.1392ZM160.797 77.3622V78.456H156.342V77.3622H160.797ZM162.603 80.9119V79.8977L167.077 72.8182H167.813V74.3892H167.316L163.935 79.7386V79.8182H169.961V80.9119H162.603ZM167.396 83V80.6037V80.1314V72.8182H168.569V83H167.396ZM175.006 83.1392C174.422 83.1392 173.897 83.0232 173.43 82.7912C172.962 82.5592 172.588 82.241 172.306 81.8366C172.025 81.4323 171.87 80.9716 171.844 80.4545H173.037C173.083 80.9152 173.292 81.2964 173.663 81.598C174.038 81.8963 174.485 82.0455 175.006 82.0455C175.423 82.0455 175.795 81.9477 176.119 81.7521C176.448 81.5566 176.704 81.2881 176.89 80.9467C177.079 80.602 177.173 80.2126 177.173 79.7784C177.173 79.3343 177.076 78.9382 176.88 78.5902C176.688 78.2389 176.423 77.9621 176.085 77.7599C175.747 77.5578 175.36 77.455 174.926 77.4517C174.615 77.4484 174.295 77.4964 173.967 77.5959C173.639 77.692 173.369 77.8163 173.156 77.9688L172.003 77.8295L172.619 72.8182H177.909V73.9119H173.654L173.296 76.9148H173.355C173.564 76.7491 173.826 76.6115 174.141 76.5021C174.456 76.3928 174.784 76.3381 175.125 76.3381C175.748 76.3381 176.303 76.4872 176.791 76.7855C177.281 77.0805 177.666 77.4848 177.944 77.9986C178.226 78.5123 178.367 79.099 178.367 79.7585C178.367 80.4081 178.221 80.9882 177.929 81.4986C177.641 82.0057 177.243 82.4067 176.736 82.7017C176.229 82.9934 175.652 83.1392 175.006 83.1392ZM183.722 83.1392C183.305 83.1326 182.887 83.053 182.469 82.9006C182.052 82.7481 181.671 82.4912 181.326 82.13C180.981 81.7654 180.705 81.2732 180.496 80.6534C180.287 80.0303 180.182 79.2481 180.182 78.3068C180.182 77.402 180.267 76.5999 180.436 75.9006C180.605 75.1979 180.85 74.6063 181.172 74.1257C181.493 73.6451 181.881 73.2805 182.335 73.032C182.793 72.7834 183.308 72.6591 183.881 72.6591C184.451 72.6591 184.959 72.7734 185.403 73.0021C185.85 73.2308 186.215 73.549 186.496 73.9567C186.778 74.361 186.96 74.83 187.043 75.3636H185.83C185.718 74.8963 185.499 74.5118 185.174 74.2102C184.849 73.9053 184.418 73.7528 183.881 73.7528C183.093 73.7528 182.471 74.0975 182.017 74.7869C181.566 75.473 181.339 76.4408 181.336 77.6903H181.415C181.601 77.4086 181.821 77.1683 182.077 76.9695C182.335 76.7673 182.62 76.6115 182.932 76.5021C183.243 76.3928 183.573 76.3381 183.921 76.3381C184.504 76.3381 185.038 76.4839 185.522 76.7756C186.006 77.0639 186.394 77.4633 186.685 77.9737C186.977 78.4808 187.123 79.0625 187.123 79.7188C187.123 80.3485 186.982 80.9252 186.7 81.4489C186.419 81.9692 186.022 82.3835 185.512 82.6918C185.005 82.9967 184.408 83.1458 183.722 83.1392ZM183.722 82.0455C184.14 82.0455 184.514 81.9411 184.846 81.7322C185.181 81.5234 185.444 81.2434 185.636 80.892C185.832 80.5407 185.93 80.1496 185.93 79.7188C185.93 79.2978 185.835 78.915 185.646 78.5703C185.461 78.2223 185.204 77.9455 184.876 77.7401C184.551 77.5346 184.18 77.4318 183.762 77.4318C183.447 77.4318 183.154 77.4948 182.882 77.6207C182.61 77.7434 182.372 77.9124 182.166 78.1278C181.964 78.3433 181.805 78.5902 181.689 78.8686C181.573 79.1437 181.515 79.4337 181.515 79.7386C181.515 80.143 181.609 80.5208 181.798 80.8722C181.99 81.2235 182.252 81.5069 182.584 81.7223C182.919 81.9377 183.298 82.0455 183.722 82.0455ZM193.473 77.3622V78.456H189.018V77.3622H193.473ZM195.521 83L200.075 73.9915V73.9119H194.825V72.8182H201.348V73.9716L196.814 83H195.521ZM206.257 83.1392C205.574 83.1392 204.971 83.0182 204.448 82.7763C203.927 82.531 203.521 82.1946 203.23 81.767C202.938 81.3362 202.794 80.8456 202.797 80.2955C202.794 79.8646 202.878 79.4669 203.051 79.1023C203.223 78.7344 203.458 78.4278 203.757 78.1825C204.058 77.9339 204.395 77.7765 204.766 77.7102V77.6506C204.279 77.5246 203.891 77.2512 203.602 76.8303C203.314 76.406 203.172 75.9238 203.175 75.3835C203.172 74.8665 203.302 74.4041 203.568 73.9964C203.833 73.5888 204.197 73.2673 204.661 73.032C205.129 72.7966 205.661 72.679 206.257 72.679C206.847 72.679 207.374 72.7966 207.838 73.032C208.302 73.2673 208.667 73.5888 208.932 73.9964C209.2 74.4041 209.336 74.8665 209.34 75.3835C209.336 75.9238 209.189 76.406 208.897 76.8303C208.609 77.2512 208.226 77.5246 207.749 77.6506V77.7102C208.117 77.7765 208.448 77.9339 208.743 78.1825C209.038 78.4278 209.273 78.7344 209.449 79.1023C209.625 79.4669 209.714 79.8646 209.717 80.2955C209.714 80.8456 209.565 81.3362 209.27 81.767C208.978 82.1946 208.572 82.531 208.052 82.7763C207.535 83.0182 206.937 83.1392 206.257 83.1392ZM206.257 82.0455C206.718 82.0455 207.116 81.9709 207.45 81.8217C207.785 81.6726 208.044 81.4621 208.226 81.1903C208.408 80.9186 208.501 80.6004 208.504 80.2358C208.501 79.8513 208.402 79.5116 208.206 79.2166C208.011 78.9216 207.744 78.6896 207.406 78.5206C207.071 78.3516 206.688 78.267 206.257 78.267C205.823 78.267 205.435 78.3516 205.094 78.5206C204.756 78.6896 204.489 78.9216 204.293 79.2166C204.101 79.5116 204.007 79.8513 204.01 80.2358C204.007 80.6004 204.095 80.9186 204.274 81.1903C204.456 81.4621 204.716 81.6726 205.054 81.8217C205.392 81.9709 205.793 82.0455 206.257 82.0455ZM206.257 77.2131C206.622 77.2131 206.945 77.1402 207.227 76.9943C207.512 76.8485 207.735 76.6446 207.898 76.3828C208.06 76.121 208.143 75.8144 208.146 75.4631C208.143 75.1184 208.062 74.8184 207.903 74.5632C207.744 74.3047 207.523 74.1058 207.242 73.9666C206.96 73.8241 206.632 73.7528 206.257 73.7528C205.876 73.7528 205.543 73.8241 205.258 73.9666C204.973 74.1058 204.753 74.3047 204.597 74.5632C204.441 74.8184 204.365 75.1184 204.368 75.4631C204.365 75.8144 204.443 76.121 204.602 76.3828C204.764 76.6446 204.988 76.8485 205.273 76.9943C205.558 77.1402 205.886 77.2131 206.257 77.2131ZM214.864 72.6591C215.282 72.6624 215.7 72.742 216.117 72.8977C216.535 73.0535 216.916 73.312 217.261 73.6733C217.605 74.0346 217.882 74.5268 218.091 75.1499C218.3 75.7696 218.404 76.5502 218.404 77.4915C218.404 78.3963 218.318 79.2 218.146 79.9027C217.977 80.602 217.731 81.192 217.41 81.6726C217.092 82.1532 216.704 82.5178 216.246 82.7663C215.792 83.0149 215.279 83.1392 214.705 83.1392C214.135 83.1392 213.626 83.0265 213.179 82.8011C212.735 82.5724 212.37 82.2559 212.085 81.8516C211.803 81.4439 211.623 80.9716 211.543 80.4347H212.756C212.866 80.902 213.083 81.2881 213.408 81.593C213.736 81.8946 214.168 82.0455 214.705 82.0455C215.491 82.0455 216.111 81.7024 216.565 81.0163C217.022 80.3303 217.251 79.3608 217.251 78.108H217.171C216.986 78.3864 216.765 78.6267 216.51 78.8288C216.255 79.031 215.971 79.1868 215.66 79.2962C215.348 79.4055 215.017 79.4602 214.665 79.4602C214.082 79.4602 213.547 79.3161 213.06 79.0277C212.576 78.736 212.188 78.3366 211.896 77.8295C211.608 77.3191 211.464 76.7358 211.464 76.0795C211.464 75.4498 211.603 74.8748 211.881 74.3544C212.163 73.834 212.557 73.4197 213.065 73.1115C213.575 72.8033 214.175 72.6525 214.864 72.6591ZM214.864 73.7528C214.447 73.7528 214.071 73.8572 213.736 74.0661C213.404 74.2749 213.141 74.5549 212.945 74.9062C212.753 75.2576 212.657 75.6487 212.657 76.0795C212.657 76.5038 212.75 76.8899 212.935 77.2379C213.124 77.5826 213.381 77.8577 213.706 78.0632C214.034 78.2654 214.407 78.3665 214.825 78.3665C215.139 78.3665 215.433 78.3052 215.705 78.1825C215.976 78.0566 216.213 77.8859 216.415 77.6705C216.621 77.4517 216.782 77.2048 216.898 76.9297C217.014 76.6513 217.072 76.3613 217.072 76.0597C217.072 75.6553 216.976 75.2775 216.783 74.9261C216.594 74.5748 216.333 74.2914 215.998 74.076C215.666 73.8606 215.289 73.7528 214.864 73.7528ZM223.68 83.1392C222.931 83.1392 222.293 82.9354 221.766 82.5277C221.239 82.1167 220.836 81.5218 220.558 80.7429C220.28 79.9607 220.14 79.0161 220.14 77.9091C220.14 76.8087 220.28 75.8691 220.558 75.0902C220.84 74.308 221.244 73.7114 221.771 73.3004C222.301 72.8861 222.938 72.679 223.68 72.679C224.423 72.679 225.057 72.8861 225.584 73.3004C226.115 73.7114 226.519 74.308 226.797 75.0902C227.079 75.8691 227.22 76.8087 227.22 77.9091C227.22 79.0161 227.081 79.9607 226.802 80.7429C226.524 81.5218 226.121 82.1167 225.594 82.5277C225.067 82.9354 224.429 83.1392 223.68 83.1392ZM223.68 82.0455C224.423 82.0455 224.999 81.6875 225.41 80.9716C225.821 80.2557 226.027 79.2348 226.027 77.9091C226.027 77.0275 225.932 76.2768 225.743 75.657C225.558 75.0372 225.289 74.5649 224.938 74.2401C224.59 73.9152 224.171 73.7528 223.68 73.7528C222.944 73.7528 222.369 74.1158 221.955 74.8416C221.541 75.5642 221.334 76.5866 221.334 77.9091C221.334 78.7907 221.426 79.5398 221.612 80.1562C221.798 80.7727 222.064 81.2417 222.412 81.5632C222.764 81.8847 223.186 82.0455 223.68 82.0455Z" fill="white" fill-opacity="0.7"/>
<g filter="url(#filter1_d_2149_76998)">
<mask id="path-10-inside-3_2149_76998" fill="white">
<path d="M48 74.25C48 69.8317 51.5817 66.25 56 66.25H327C331.418 66.25 335 69.8317 335 74.25V266.25C335 270.668 331.418 274.25 327 274.25H56C51.5817 274.25 48 270.668 48 266.25V74.25Z"/>
</mask>
<path d="M48 74.25C48 69.8317 51.5817 66.25 56 66.25H327C331.418 66.25 335 69.8317 335 74.25V266.25C335 270.668 331.418 274.25 327 274.25H56C51.5817 274.25 48 270.668 48 266.25V74.25Z" fill="black"/>
<path d="M56 67.25H327V65.25H56V67.25ZM334 74.25V266.25H336V74.25H334ZM327 273.25H56V275.25H327V273.25ZM49 266.25V74.25H47V266.25H49ZM56 273.25C52.134 273.25 49 270.116 49 266.25H47C47 271.221 51.0294 275.25 56 275.25V273.25ZM334 266.25C334 270.116 330.866 273.25 327 273.25V275.25C331.971 275.25 336 271.221 336 266.25H334ZM327 67.25C330.866 67.25 334 70.384 334 74.25H336C336 69.2794 331.971 65.25 327 65.25V67.25ZM56 65.25C51.0294 65.25 47 69.2794 47 74.25H49C49 70.384 52.134 67.25 56 67.25V65.25Z" fill="white" fill-opacity="0.2" mask="url(#path-10-inside-3_2149_76998)"/>
</g>
<g filter="url(#filter2_ddd_2149_76998)">
<g clip-path="url(#clip0_2149_76998)">
<rect x="56" y="78.25" width="271.05" height="36" rx="8" fill="white" fill-opacity="0.01" shape-rendering="crispEdges"/>
<path d="M75.9148 91.0682H77.1477V97.8097C77.1477 98.5057 76.9837 99.1271 76.6555 99.674C76.3307 100.218 75.8717 100.647 75.2784 100.962C74.6851 101.273 73.9891 101.429 73.1903 101.429C72.3916 101.429 71.6955 101.273 71.1023 100.962C70.509 100.647 70.0483 100.218 69.7202 99.674C69.3954 99.1271 69.233 98.5057 69.233 97.8097V91.0682H70.4659V97.7102C70.4659 98.2074 70.5753 98.6499 70.794 99.0376C71.0128 99.4221 71.3243 99.7254 71.7287 99.9474C72.1364 100.166 72.6236 100.276 73.1903 100.276C73.7571 100.276 74.2443 100.166 74.652 99.9474C75.0597 99.7254 75.3712 99.4221 75.5866 99.0376C75.8054 98.6499 75.9148 98.2074 75.9148 97.7102V91.0682ZM80.6241 96.6562V101.25H79.4508V93.6136H80.5843V94.8068H80.6838C80.8627 94.419 81.1345 94.1075 81.4991 93.8722C81.8637 93.6335 82.3343 93.5142 82.911 93.5142C83.4281 93.5142 83.8805 93.6203 84.2683 93.8324C84.6561 94.0412 84.9577 94.3594 85.1731 94.7869C85.3886 95.2112 85.4963 95.7481 85.4963 96.3977V101.25H84.323V96.4773C84.323 95.8774 84.1672 95.41 83.8556 95.0753C83.5441 94.7372 83.1165 94.5682 82.573 94.5682C82.1984 94.5682 81.8637 94.6494 81.5687 94.8118C81.277 94.9742 81.0467 95.2112 80.8777 95.5227C80.7086 95.8343 80.6241 96.2121 80.6241 96.6562ZM87.6403 101.25V93.6136H88.8136V101.25H87.6403ZM88.2369 92.3409C88.0082 92.3409 87.811 92.263 87.6452 92.1072C87.4828 91.9515 87.4016 91.7642 87.4016 91.5455C87.4016 91.3267 87.4828 91.1394 87.6452 90.9837C87.811 90.8279 88.0082 90.75 88.2369 90.75C88.4656 90.75 88.6611 90.8279 88.8235 90.9837C88.9892 91.1394 89.0721 91.3267 89.0721 91.5455C89.0721 91.7642 88.9892 91.9515 88.8235 92.1072C88.6611 92.263 88.4656 92.3409 88.2369 92.3409ZM94.2836 93.6136V94.608H90.3262V93.6136H94.2836ZM91.4796 91.7841H92.6529V99.0625C92.6529 99.3939 92.7009 99.6425 92.7971 99.8082C92.8965 99.9706 93.0224 100.08 93.1749 100.136C93.3307 100.189 93.4947 100.216 93.6671 100.216C93.7963 100.216 93.9024 100.209 93.9853 100.196C94.0681 100.179 94.1344 100.166 94.1841 100.156L94.4228 101.21C94.3432 101.24 94.2322 101.27 94.0897 101.3C93.9471 101.333 93.7665 101.349 93.5478 101.349C93.2163 101.349 92.8915 101.278 92.5733 101.136C92.2585 100.993 91.9966 100.776 91.7878 100.484C91.5823 100.193 91.4796 99.8248 91.4796 99.3807V91.7841ZM99.1681 101.409C98.4324 101.409 97.7976 101.247 97.264 100.922C96.7337 100.594 96.3244 100.136 96.036 99.5497C95.751 98.9598 95.6085 98.2737 95.6085 97.4915C95.6085 96.7093 95.751 96.0199 96.036 95.4233C96.3244 94.8234 96.7254 94.3561 97.2392 94.0213C97.7562 93.6832 98.3594 93.5142 99.0488 93.5142C99.4466 93.5142 99.8393 93.5805 100.227 93.7131C100.615 93.8456 100.968 94.0611 101.286 94.3594C101.604 94.6544 101.858 95.0455 102.047 95.5327C102.236 96.0199 102.33 96.6198 102.33 97.3324V97.8295H96.4437V96.8153H101.137C101.137 96.3845 101.051 96 100.878 95.6619C100.709 95.3239 100.467 95.0571 100.153 94.8615C99.841 94.666 99.4731 94.5682 99.0488 94.5682C98.5815 94.5682 98.1771 94.6842 97.8358 94.9162C97.4977 95.1449 97.2375 95.4432 97.0552 95.8111C96.8729 96.179 96.7818 96.5734 96.7818 96.9943V97.6705C96.7818 98.2472 96.8812 98.736 97.0801 99.1371C97.2823 99.5348 97.5623 99.8381 97.9203 100.047C98.2782 100.252 98.6942 100.355 99.1681 100.355C99.4764 100.355 99.7548 100.312 100.003 100.226C100.255 100.136 100.472 100.004 100.655 99.8281C100.837 99.6491 100.978 99.4271 101.077 99.1619L102.211 99.4801C102.091 99.8646 101.891 100.203 101.609 100.494C101.327 100.783 100.979 101.008 100.565 101.17C100.151 101.33 99.6852 101.409 99.1681 101.409ZM106.998 101.409C106.362 101.409 105.8 101.248 105.313 100.927C104.826 100.602 104.445 100.145 104.17 99.5547C103.894 98.9614 103.757 98.2604 103.757 97.4517C103.757 96.6496 103.894 95.9536 104.17 95.3636C104.445 94.7737 104.827 94.3179 105.318 93.9964C105.809 93.675 106.375 93.5142 107.018 93.5142C107.515 93.5142 107.908 93.5971 108.197 93.7628C108.488 93.9252 108.71 94.1108 108.863 94.3196C109.019 94.5251 109.14 94.6941 109.226 94.8267H109.325V91.0682H110.498V101.25H109.365V100.077H109.226C109.14 100.216 109.017 100.392 108.858 100.604C108.699 100.812 108.472 101 108.177 101.165C107.882 101.328 107.489 101.409 106.998 101.409ZM107.157 100.355C107.628 100.355 108.026 100.232 108.351 99.9872C108.675 99.7386 108.922 99.3956 109.091 98.9581C109.26 98.5173 109.345 98.0085 109.345 97.4318C109.345 96.8617 109.262 96.3629 109.096 95.9354C108.931 95.5045 108.685 95.1697 108.361 94.9311C108.036 94.6892 107.635 94.5682 107.157 94.5682C106.66 94.5682 106.246 94.6958 105.915 94.951C105.586 95.2029 105.34 95.5459 105.174 95.9801C105.011 96.411 104.93 96.8949 104.93 97.4318C104.93 97.9754 105.013 98.4692 105.179 98.9134C105.348 99.3542 105.596 99.7055 105.925 99.9673C106.256 100.226 106.667 100.355 107.157 100.355ZM116.907 101.25V91.0682H118.14V96.1193H118.259L122.833 91.0682H124.444L120.168 95.6619L124.444 101.25H122.952L119.412 96.517L118.14 97.9489V101.25H116.907ZM126.359 101.25V93.6136H127.532V101.25H126.359ZM126.956 92.3409C126.727 92.3409 126.53 92.263 126.364 92.1072C126.202 91.9515 126.12 91.7642 126.12 91.5455C126.12 91.3267 126.202 91.1394 126.364 90.9837C126.53 90.8279 126.727 90.75 126.956 90.75C127.184 90.75 127.38 90.8279 127.542 90.9837C127.708 91.1394 127.791 91.3267 127.791 91.5455C127.791 91.7642 127.708 91.9515 127.542 92.1072C127.38 92.263 127.184 92.3409 126.956 92.3409ZM130.855 96.6562V101.25H129.681V93.6136H130.815V94.8068H130.914C131.093 94.419 131.365 94.1075 131.73 93.8722C132.094 93.6335 132.565 93.5142 133.142 93.5142C133.659 93.5142 134.111 93.6203 134.499 93.8324C134.887 94.0412 135.188 94.3594 135.404 94.7869C135.619 95.2112 135.727 95.7481 135.727 96.3977V101.25H134.553V96.4773C134.553 95.8774 134.398 95.41 134.086 95.0753C133.775 94.7372 133.347 94.5682 132.803 94.5682C132.429 94.5682 132.094 94.6494 131.799 94.8118C131.508 94.9742 131.277 95.2112 131.108 95.5227C130.939 95.8343 130.855 96.2121 130.855 96.6562ZM140.953 104.273C140.386 104.273 139.899 104.2 139.491 104.054C139.084 103.911 138.744 103.723 138.472 103.487C138.204 103.255 137.99 103.007 137.831 102.741L138.766 102.085C138.872 102.224 139.006 102.384 139.168 102.562C139.331 102.745 139.553 102.902 139.835 103.035C140.12 103.171 140.492 103.239 140.953 103.239C141.57 103.239 142.078 103.089 142.479 102.791C142.88 102.493 143.081 102.026 143.081 101.389V99.8381H142.982C142.895 99.9773 142.773 100.15 142.614 100.355C142.458 100.557 142.232 100.738 141.938 100.897C141.646 101.053 141.251 101.131 140.754 101.131C140.138 101.131 139.584 100.985 139.094 100.693C138.607 100.402 138.22 99.9773 137.935 99.4205C137.654 98.8636 137.513 98.1875 137.513 97.392C137.513 96.6098 137.65 95.9287 137.925 95.3487C138.201 94.7654 138.583 94.3146 139.074 93.9964C139.564 93.675 140.131 93.5142 140.774 93.5142C141.271 93.5142 141.666 93.5971 141.957 93.7628C142.252 93.9252 142.478 94.1108 142.634 94.3196C142.793 94.5251 142.915 94.6941 143.001 94.8267H143.121V93.6136H144.254V101.469C144.254 102.125 144.105 102.659 143.807 103.07C143.512 103.484 143.114 103.787 142.614 103.979C142.116 104.175 141.563 104.273 140.953 104.273ZM140.913 100.077C141.384 100.077 141.782 99.969 142.107 99.7536C142.431 99.5381 142.678 99.2282 142.847 98.8239C143.016 98.4195 143.101 97.9356 143.101 97.3722C143.101 96.822 143.018 96.3364 142.852 95.9155C142.687 95.4946 142.441 95.1648 142.116 94.9261C141.792 94.6875 141.391 94.5682 140.913 94.5682C140.416 94.5682 140.002 94.6941 139.67 94.946C139.342 95.1979 139.095 95.536 138.93 95.9602C138.767 96.3845 138.686 96.8551 138.686 97.3722C138.686 97.9025 138.769 98.3714 138.935 98.7791C139.104 99.1835 139.352 99.5017 139.68 99.7337C140.012 99.9624 140.423 100.077 140.913 100.077ZM149.286 101.409C148.649 101.409 148.087 101.248 147.6 100.927C147.113 100.602 146.732 100.145 146.457 99.5547C146.182 98.9614 146.044 98.2604 146.044 97.4517C146.044 96.6496 146.182 95.9536 146.457 95.3636C146.732 94.7737 147.115 94.3179 147.605 93.9964C148.096 93.675 148.662 93.5142 149.305 93.5142C149.803 93.5142 150.195 93.5971 150.484 93.7628C150.775 93.9252 150.997 94.1108 151.15 94.3196C151.306 94.5251 151.427 94.6941 151.513 94.8267H151.612V91.0682H152.786V101.25H151.652V100.077H151.513C151.427 100.216 151.304 100.392 151.145 100.604C150.986 100.812 150.759 101 150.464 101.165C150.169 101.328 149.776 101.409 149.286 101.409ZM149.445 100.355C149.915 100.355 150.313 100.232 150.638 99.9872C150.963 99.7386 151.21 99.3956 151.379 98.9581C151.548 98.5173 151.632 98.0085 151.632 97.4318C151.632 96.8617 151.549 96.3629 151.384 95.9354C151.218 95.5045 150.973 95.1697 150.648 94.9311C150.323 94.6892 149.922 94.5682 149.445 94.5682C148.947 94.5682 148.533 94.6958 148.202 94.951C147.874 95.2029 147.627 95.5459 147.461 95.9801C147.299 96.411 147.217 96.8949 147.217 97.4318C147.217 97.9754 147.3 98.4692 147.466 98.9134C147.635 99.3542 147.884 99.7055 148.212 99.9673C148.543 100.226 148.954 100.355 149.445 100.355ZM158.2 101.409C157.51 101.409 156.905 101.245 156.385 100.917C155.868 100.589 155.464 100.13 155.172 99.5398C154.884 98.9498 154.739 98.2604 154.739 97.4716C154.739 96.6761 154.884 95.9818 155.172 95.3885C155.464 94.7952 155.868 94.3345 156.385 94.0064C156.905 93.6783 157.51 93.5142 158.2 93.5142C158.889 93.5142 159.492 93.6783 160.009 94.0064C160.53 94.3345 160.934 94.7952 161.222 95.3885C161.514 95.9818 161.66 96.6761 161.66 97.4716C161.66 98.2604 161.514 98.9498 161.222 99.5398C160.934 100.13 160.53 100.589 160.009 100.917C159.492 101.245 158.889 101.409 158.2 101.409ZM158.2 100.355C158.723 100.355 159.154 100.221 159.492 99.9524C159.83 99.6839 160.08 99.331 160.243 98.8935C160.405 98.456 160.487 97.982 160.487 97.4716C160.487 96.9612 160.405 96.4856 160.243 96.0447C160.08 95.6039 159.83 95.2476 159.492 94.9759C159.154 94.7041 158.723 94.5682 158.2 94.5682C157.676 94.5682 157.245 94.7041 156.907 94.9759C156.569 95.2476 156.319 95.6039 156.156 96.0447C155.994 96.4856 155.913 96.9612 155.913 97.4716C155.913 97.982 155.994 98.456 156.156 98.8935C156.319 99.331 156.569 99.6839 156.907 99.9524C157.245 100.221 157.676 100.355 158.2 100.355ZM163.451 101.25V93.6136H164.584V94.8068H164.684C164.843 94.3991 165.1 94.0826 165.454 93.8572C165.809 93.6286 166.235 93.5142 166.732 93.5142C167.236 93.5142 167.655 93.6286 167.99 93.8572C168.328 94.0826 168.591 94.3991 168.78 94.8068H168.86C169.055 94.4124 169.349 94.0992 169.74 93.8672C170.131 93.6319 170.6 93.5142 171.147 93.5142C171.83 93.5142 172.388 93.728 172.822 94.1555C173.256 94.5798 173.474 95.241 173.474 96.1392V101.25H172.3V96.1392C172.3 95.5758 172.146 95.1731 171.838 94.9311C171.53 94.6892 171.167 94.5682 170.749 94.5682C170.212 94.5682 169.796 94.7306 169.501 95.0554C169.206 95.3769 169.059 95.7846 169.059 96.2784V101.25H167.866V96.0199C167.866 95.5857 167.725 95.236 167.443 94.9709C167.161 94.7024 166.798 94.5682 166.354 94.5682C166.049 94.5682 165.764 94.6494 165.499 94.8118C165.237 94.9742 165.025 95.1996 164.863 95.4879C164.704 95.773 164.624 96.1027 164.624 96.4773V101.25H163.451Z" fill="white" fill-opacity="0.95"/>
<path d="M304.651 100.35C304.585 100.35 304.519 100.337 304.459 100.312C304.398 100.287 304.342 100.249 304.296 100.203L300.696 96.5849C300.65 96.5383 300.613 96.4831 300.588 96.4224C300.563 96.3617 300.55 96.2966 300.551 96.231C300.551 96.1653 300.564 96.1003 300.589 96.0398C300.614 95.9792 300.651 95.9242 300.698 95.8779C300.745 95.8316 300.8 95.7949 300.86 95.7699C300.921 95.745 300.986 95.7322 301.052 95.7324C301.118 95.7326 301.183 95.7457 301.243 95.771C301.304 95.7963 301.359 95.8333 301.405 95.8798L304.677 99.1684L312.725 92.2709C312.826 92.1847 312.957 92.1419 313.089 92.1521C313.221 92.1623 313.344 92.2245 313.43 92.3251C313.516 92.4258 313.559 92.5565 313.549 92.6887C313.539 92.8208 313.476 92.9435 313.376 93.0297L304.976 100.229C304.885 100.307 304.77 100.35 304.651 100.35Z" fill="white" fill-opacity="0.95"/>
</g>
</g>
<path d="M75.9148 127.068H77.1477V133.81C77.1477 134.506 76.9837 135.127 76.6555 135.674C76.3307 136.218 75.8717 136.647 75.2784 136.962C74.6851 137.273 73.9891 137.429 73.1903 137.429C72.3916 137.429 71.6955 137.273 71.1023 136.962C70.509 136.647 70.0483 136.218 69.7202 135.674C69.3954 135.127 69.233 134.506 69.233 133.81V127.068H70.4659V133.71C70.4659 134.207 70.5753 134.65 70.794 135.038C71.0128 135.422 71.3243 135.725 71.7287 135.947C72.1364 136.166 72.6236 136.276 73.1903 136.276C73.7571 136.276 74.2443 136.166 74.652 135.947C75.0597 135.725 75.3712 135.422 75.5866 135.038C75.8054 134.65 75.9148 134.207 75.9148 133.71V127.068ZM80.6241 132.656V137.25H79.4508V129.614H80.5843V130.807H80.6838C80.8627 130.419 81.1345 130.107 81.4991 129.872C81.8637 129.634 82.3343 129.514 82.911 129.514C83.4281 129.514 83.8805 129.62 84.2683 129.832C84.6561 130.041 84.9577 130.359 85.1731 130.787C85.3886 131.211 85.4963 131.748 85.4963 132.398V137.25H84.323V132.477C84.323 131.877 84.1672 131.41 83.8556 131.075C83.5441 130.737 83.1165 130.568 82.573 130.568C82.1984 130.568 81.8637 130.649 81.5687 130.812C81.277 130.974 81.0467 131.211 80.8777 131.523C80.7086 131.834 80.6241 132.212 80.6241 132.656ZM87.6403 137.25V129.614H88.8136V137.25H87.6403ZM88.2369 128.341C88.0082 128.341 87.811 128.263 87.6452 128.107C87.4828 127.951 87.4016 127.764 87.4016 127.545C87.4016 127.327 87.4828 127.139 87.6452 126.984C87.811 126.828 88.0082 126.75 88.2369 126.75C88.4656 126.75 88.6611 126.828 88.8235 126.984C88.9892 127.139 89.0721 127.327 89.0721 127.545C89.0721 127.764 88.9892 127.951 88.8235 128.107C88.6611 128.263 88.4656 128.341 88.2369 128.341ZM94.2836 129.614V130.608H90.3262V129.614H94.2836ZM91.4796 127.784H92.6529V135.062C92.6529 135.394 92.7009 135.643 92.7971 135.808C92.8965 135.971 93.0224 136.08 93.1749 136.136C93.3307 136.189 93.4947 136.216 93.6671 136.216C93.7963 136.216 93.9024 136.209 93.9853 136.196C94.0681 136.179 94.1344 136.166 94.1841 136.156L94.4228 137.21C94.3432 137.24 94.2322 137.27 94.0897 137.3C93.9471 137.333 93.7665 137.349 93.5478 137.349C93.2163 137.349 92.8915 137.278 92.5733 137.136C92.2585 136.993 91.9966 136.776 91.7878 136.484C91.5823 136.193 91.4796 135.825 91.4796 135.381V127.784ZM99.1681 137.409C98.4324 137.409 97.7976 137.247 97.264 136.922C96.7337 136.594 96.3244 136.136 96.036 135.55C95.751 134.96 95.6085 134.274 95.6085 133.491C95.6085 132.709 95.751 132.02 96.036 131.423C96.3244 130.823 96.7254 130.356 97.2392 130.021C97.7562 129.683 98.3594 129.514 99.0488 129.514C99.4466 129.514 99.8393 129.58 100.227 129.713C100.615 129.846 100.968 130.061 101.286 130.359C101.604 130.654 101.858 131.045 102.047 131.533C102.236 132.02 102.33 132.62 102.33 133.332V133.83H96.4437V132.815H101.137C101.137 132.384 101.051 132 100.878 131.662C100.709 131.324 100.467 131.057 100.153 130.862C99.841 130.666 99.4731 130.568 99.0488 130.568C98.5815 130.568 98.1771 130.684 97.8358 130.916C97.4977 131.145 97.2375 131.443 97.0552 131.811C96.8729 132.179 96.7818 132.573 96.7818 132.994V133.67C96.7818 134.247 96.8812 134.736 97.0801 135.137C97.2823 135.535 97.5623 135.838 97.9203 136.047C98.2782 136.252 98.6942 136.355 99.1681 136.355C99.4764 136.355 99.7548 136.312 100.003 136.226C100.255 136.136 100.472 136.004 100.655 135.828C100.837 135.649 100.978 135.427 101.077 135.162L102.211 135.48C102.091 135.865 101.891 136.203 101.609 136.494C101.327 136.783 100.979 137.008 100.565 137.17C100.151 137.33 99.6852 137.409 99.1681 137.409ZM106.998 137.409C106.362 137.409 105.8 137.248 105.313 136.927C104.826 136.602 104.445 136.145 104.17 135.555C103.894 134.961 103.757 134.26 103.757 133.452C103.757 132.65 103.894 131.954 104.17 131.364C104.445 130.774 104.827 130.318 105.318 129.996C105.809 129.675 106.375 129.514 107.018 129.514C107.515 129.514 107.908 129.597 108.197 129.763C108.488 129.925 108.71 130.111 108.863 130.32C109.019 130.525 109.14 130.694 109.226 130.827H109.325V127.068H110.498V137.25H109.365V136.077H109.226C109.14 136.216 109.017 136.392 108.858 136.604C108.699 136.812 108.472 137 108.177 137.165C107.882 137.328 107.489 137.409 106.998 137.409ZM107.157 136.355C107.628 136.355 108.026 136.232 108.351 135.987C108.675 135.739 108.922 135.396 109.091 134.958C109.26 134.517 109.345 134.009 109.345 133.432C109.345 132.862 109.262 132.363 109.096 131.935C108.931 131.504 108.685 131.17 108.361 130.931C108.036 130.689 107.635 130.568 107.157 130.568C106.66 130.568 106.246 130.696 105.915 130.951C105.586 131.203 105.34 131.546 105.174 131.98C105.011 132.411 104.93 132.895 104.93 133.432C104.93 133.975 105.013 134.469 105.179 134.913C105.348 135.354 105.596 135.705 105.925 135.967C106.256 136.226 106.667 136.355 107.157 136.355ZM122.475 129.614C122.415 129.11 122.173 128.719 121.749 128.44C121.325 128.162 120.805 128.023 120.188 128.023C119.737 128.023 119.343 128.096 119.005 128.241C118.67 128.387 118.408 128.588 118.219 128.843C118.034 129.098 117.941 129.388 117.941 129.713C117.941 129.985 118.006 130.219 118.135 130.414C118.267 130.606 118.436 130.767 118.642 130.896C118.847 131.022 119.063 131.127 119.288 131.21C119.514 131.289 119.721 131.354 119.91 131.403L120.944 131.682C121.209 131.751 121.504 131.848 121.829 131.97C122.157 132.093 122.47 132.26 122.768 132.472C123.07 132.681 123.318 132.95 123.514 133.278C123.71 133.606 123.807 134.009 123.807 134.486C123.807 135.036 123.663 135.533 123.375 135.977C123.09 136.421 122.672 136.774 122.122 137.036C121.575 137.298 120.911 137.429 120.128 137.429C119.399 137.429 118.768 137.311 118.234 137.076C117.704 136.841 117.286 136.513 116.981 136.092C116.68 135.671 116.509 135.182 116.469 134.625H117.742C117.775 135.009 117.904 135.328 118.13 135.58C118.358 135.828 118.647 136.014 118.995 136.136C119.346 136.256 119.724 136.315 120.128 136.315C120.599 136.315 121.022 136.239 121.396 136.087C121.771 135.931 122.067 135.715 122.286 135.44C122.505 135.162 122.614 134.837 122.614 134.466C122.614 134.128 122.52 133.853 122.331 133.641C122.142 133.429 121.893 133.256 121.585 133.124C121.277 132.991 120.944 132.875 120.586 132.776L119.333 132.418C118.537 132.189 117.908 131.862 117.444 131.438C116.98 131.014 116.748 130.459 116.748 129.773C116.748 129.203 116.902 128.705 117.21 128.281C117.522 127.854 117.939 127.522 118.463 127.287C118.99 127.048 119.578 126.929 120.228 126.929C120.884 126.929 121.467 127.047 121.978 127.282C122.488 127.514 122.893 127.832 123.191 128.237C123.492 128.641 123.652 129.1 123.668 129.614H122.475ZM128.996 129.614V130.608H125.039V129.614H128.996ZM126.192 127.784H127.366V135.062C127.366 135.394 127.414 135.643 127.51 135.808C127.609 135.971 127.735 136.08 127.888 136.136C128.044 136.189 128.208 136.216 128.38 136.216C128.509 136.216 128.615 136.209 128.698 136.196C128.781 136.179 128.847 136.166 128.897 136.156L129.136 137.21C129.056 137.24 128.945 137.27 128.803 137.3C128.66 137.333 128.479 137.349 128.261 137.349C127.929 137.349 127.604 137.278 127.286 137.136C126.971 136.993 126.71 136.776 126.501 136.484C126.295 136.193 126.192 135.825 126.192 135.381V127.784ZM133.009 137.429C132.525 137.429 132.085 137.338 131.691 137.156C131.297 136.97 130.983 136.703 130.751 136.355C130.519 136.004 130.403 135.58 130.403 135.082C130.403 134.645 130.49 134.29 130.662 134.018C130.834 133.743 131.065 133.528 131.353 133.372C131.641 133.216 131.96 133.1 132.308 133.024C132.659 132.945 133.012 132.882 133.366 132.835C133.83 132.776 134.207 132.731 134.495 132.701C134.787 132.668 134.999 132.613 135.131 132.537C135.267 132.461 135.335 132.328 135.335 132.139V132.099C135.335 131.609 135.201 131.228 134.933 130.956C134.667 130.684 134.265 130.548 133.724 130.548C133.164 130.548 132.725 130.671 132.407 130.916C132.089 131.161 131.865 131.423 131.736 131.702L130.622 131.304C130.821 130.84 131.086 130.479 131.418 130.22C131.752 129.958 132.117 129.776 132.511 129.673C132.909 129.567 133.3 129.514 133.685 129.514C133.93 129.514 134.212 129.544 134.53 129.604C134.851 129.66 135.161 129.778 135.46 129.957C135.761 130.136 136.011 130.406 136.21 130.767C136.409 131.128 136.509 131.612 136.509 132.219V137.25H135.335V136.216H135.276C135.196 136.382 135.063 136.559 134.878 136.748C134.692 136.937 134.445 137.098 134.137 137.23C133.829 137.363 133.453 137.429 133.009 137.429ZM133.188 136.375C133.652 136.375 134.043 136.284 134.361 136.102C134.682 135.919 134.924 135.684 135.087 135.396C135.252 135.107 135.335 134.804 135.335 134.486V133.412C135.286 133.472 135.176 133.526 135.007 133.576C134.841 133.622 134.649 133.664 134.43 133.7C134.215 133.733 134.004 133.763 133.799 133.79C133.597 133.813 133.433 133.833 133.307 133.849C133.002 133.889 132.717 133.954 132.452 134.043C132.19 134.129 131.978 134.26 131.815 134.436C131.656 134.608 131.577 134.844 131.577 135.142C131.577 135.55 131.728 135.858 132.029 136.067C132.334 136.272 132.72 136.375 133.188 136.375ZM141.971 129.614V130.608H138.014V129.614H141.971ZM139.167 127.784H140.34V135.062C140.34 135.394 140.388 135.643 140.485 135.808C140.584 135.971 140.71 136.08 140.862 136.136C141.018 136.189 141.182 136.216 141.355 136.216C141.484 136.216 141.59 136.209 141.673 136.196C141.756 136.179 141.822 136.166 141.872 136.156L142.11 137.21C142.031 137.24 141.92 137.27 141.777 137.3C141.635 137.333 141.454 137.349 141.235 137.349C140.904 137.349 140.579 137.278 140.261 137.136C139.946 136.993 139.684 136.776 139.475 136.484C139.27 136.193 139.167 135.825 139.167 135.381V127.784ZM146.856 137.409C146.12 137.409 145.485 137.247 144.952 136.922C144.421 136.594 144.012 136.136 143.724 135.55C143.439 134.96 143.296 134.274 143.296 133.491C143.296 132.709 143.439 132.02 143.724 131.423C144.012 130.823 144.413 130.356 144.927 130.021C145.444 129.683 146.047 129.514 146.736 129.514C147.134 129.514 147.527 129.58 147.915 129.713C148.302 129.846 148.655 130.061 148.974 130.359C149.292 130.654 149.545 131.045 149.734 131.533C149.923 132.02 150.018 132.62 150.018 133.332V133.83H144.131V132.815H148.824C148.824 132.384 148.738 132 148.566 131.662C148.397 131.324 148.155 131.057 147.84 130.862C147.528 130.666 147.161 130.568 146.736 130.568C146.269 130.568 145.865 130.684 145.523 130.916C145.185 131.145 144.925 131.443 144.743 131.811C144.56 132.179 144.469 132.573 144.469 132.994V133.67C144.469 134.247 144.569 134.736 144.768 135.137C144.97 135.535 145.25 135.838 145.608 136.047C145.966 136.252 146.382 136.355 146.856 136.355C147.164 136.355 147.442 136.312 147.691 136.226C147.943 136.136 148.16 136.004 148.342 135.828C148.524 135.649 148.665 135.427 148.765 135.162L149.898 135.48C149.779 135.865 149.578 136.203 149.297 136.494C149.015 136.783 148.667 137.008 148.253 137.17C147.838 137.33 147.373 137.409 146.856 137.409ZM157.211 131.324L156.157 131.622C156.091 131.446 155.993 131.276 155.864 131.11C155.738 130.941 155.566 130.802 155.347 130.692C155.128 130.583 154.848 130.528 154.507 130.528C154.04 130.528 153.65 130.636 153.339 130.852C153.03 131.064 152.876 131.334 152.876 131.662C152.876 131.954 152.982 132.184 153.194 132.353C153.407 132.522 153.738 132.663 154.189 132.776L155.322 133.054C156.005 133.22 156.514 133.473 156.849 133.815C157.183 134.153 157.351 134.589 157.351 135.122C157.351 135.56 157.225 135.951 156.973 136.295C156.724 136.64 156.376 136.912 155.929 137.111C155.481 137.31 154.961 137.409 154.368 137.409C153.589 137.409 152.944 137.24 152.434 136.902C151.923 136.564 151.6 136.07 151.464 135.42L152.578 135.142C152.684 135.553 152.885 135.861 153.18 136.067C153.478 136.272 153.867 136.375 154.348 136.375C154.895 136.375 155.329 136.259 155.65 136.027C155.975 135.792 156.138 135.51 156.138 135.182C156.138 134.917 156.045 134.695 155.859 134.516C155.674 134.333 155.389 134.197 155.004 134.108L153.731 133.81C153.032 133.644 152.518 133.387 152.19 133.039C151.865 132.688 151.703 132.249 151.703 131.722C151.703 131.291 151.824 130.91 152.066 130.578C152.311 130.247 152.644 129.987 153.065 129.798C153.489 129.609 153.97 129.514 154.507 129.514C155.263 129.514 155.856 129.68 156.287 130.011C156.721 130.343 157.029 130.78 157.211 131.324ZM166.157 137.409C165.467 137.409 164.862 137.245 164.342 136.917C163.825 136.589 163.421 136.13 163.129 135.54C162.841 134.95 162.696 134.26 162.696 133.472C162.696 132.676 162.841 131.982 163.129 131.388C163.421 130.795 163.825 130.335 164.342 130.006C164.862 129.678 165.467 129.514 166.157 129.514C166.846 129.514 167.449 129.678 167.966 130.006C168.487 130.335 168.891 130.795 169.179 131.388C169.471 131.982 169.617 132.676 169.617 133.472C169.617 134.26 169.471 134.95 169.179 135.54C168.891 136.13 168.487 136.589 167.966 136.917C167.449 137.245 166.846 137.409 166.157 137.409ZM166.157 136.355C166.68 136.355 167.111 136.221 167.449 135.952C167.787 135.684 168.038 135.331 168.2 134.893C168.362 134.456 168.444 133.982 168.444 133.472C168.444 132.961 168.362 132.486 168.2 132.045C168.038 131.604 167.787 131.248 167.449 130.976C167.111 130.704 166.68 130.568 166.157 130.568C165.633 130.568 165.202 130.704 164.864 130.976C164.526 131.248 164.276 131.604 164.113 132.045C163.951 132.486 163.87 132.961 163.87 133.472C163.87 133.982 163.951 134.456 164.113 134.893C164.276 135.331 164.526 135.684 164.864 135.952C165.202 136.221 165.633 136.355 166.157 136.355ZM174.808 129.614V130.608H170.692V129.614H174.808ZM171.925 137.25V128.56C171.925 128.122 172.028 127.758 172.233 127.466C172.439 127.174 172.705 126.955 173.034 126.81C173.362 126.664 173.708 126.591 174.073 126.591C174.361 126.591 174.596 126.614 174.779 126.661C174.961 126.707 175.097 126.75 175.186 126.79L174.848 127.804C174.789 127.784 174.706 127.759 174.6 127.729C174.497 127.7 174.361 127.685 174.192 127.685C173.804 127.685 173.524 127.782 173.352 127.978C173.183 128.174 173.098 128.46 173.098 128.838V137.25H171.925ZM180.967 137.25H179.674L183.413 127.068H184.686L188.424 137.25H187.132L184.089 128.679H184.01L180.967 137.25ZM181.444 133.273H186.654V134.366H181.444V133.273ZM189.851 137.25V129.614H190.985V130.807H191.084C191.243 130.399 191.5 130.083 191.855 129.857C192.209 129.629 192.635 129.514 193.132 129.514C193.636 129.514 194.056 129.629 194.39 129.857C194.728 130.083 194.992 130.399 195.181 130.807H195.26C195.456 130.412 195.749 130.099 196.14 129.867C196.531 129.632 197 129.514 197.547 129.514C198.23 129.514 198.788 129.728 199.223 130.156C199.657 130.58 199.874 131.241 199.874 132.139V137.25H198.701V132.139C198.701 131.576 198.547 131.173 198.238 130.931C197.93 130.689 197.567 130.568 197.15 130.568C196.613 130.568 196.197 130.731 195.902 131.055C195.607 131.377 195.459 131.785 195.459 132.278V137.25H194.266V132.02C194.266 131.586 194.125 131.236 193.843 130.971C193.562 130.702 193.199 130.568 192.755 130.568C192.45 130.568 192.165 130.649 191.9 130.812C191.638 130.974 191.426 131.2 191.263 131.488C191.104 131.773 191.025 132.103 191.025 132.477V137.25H189.851ZM205.221 137.409C204.485 137.409 203.85 137.247 203.317 136.922C202.786 136.594 202.377 136.136 202.089 135.55C201.804 134.96 201.661 134.274 201.661 133.491C201.661 132.709 201.804 132.02 202.089 131.423C202.377 130.823 202.778 130.356 203.292 130.021C203.809 129.683 204.412 129.514 205.102 129.514C205.499 129.514 205.892 129.58 206.28 129.713C206.668 129.846 207.021 130.061 207.339 130.359C207.657 130.654 207.911 131.045 208.099 131.533C208.288 132.02 208.383 132.62 208.383 133.332V133.83H202.496V132.815H207.19C207.19 132.384 207.103 132 206.931 131.662C206.762 131.324 206.52 131.057 206.205 130.862C205.894 130.666 205.526 130.568 205.102 130.568C204.634 130.568 204.23 130.684 203.888 130.916C203.55 131.145 203.29 131.443 203.108 131.811C202.926 132.179 202.835 132.573 202.835 132.994V133.67C202.835 134.247 202.934 134.736 203.133 135.137C203.335 135.535 203.615 135.838 203.973 136.047C204.331 136.252 204.747 136.355 205.221 136.355C205.529 136.355 205.808 136.312 206.056 136.226C206.308 136.136 206.525 136.004 206.707 135.828C206.89 135.649 207.031 135.427 207.13 135.162L208.263 135.48C208.144 135.865 207.944 136.203 207.662 136.494C207.38 136.783 207.032 137.008 206.618 137.17C206.204 137.33 205.738 137.409 205.221 137.409ZM210.168 137.25V129.614H211.301V130.767H211.381C211.52 130.389 211.772 130.083 212.136 129.847C212.501 129.612 212.912 129.494 213.369 129.494C213.455 129.494 213.563 129.496 213.692 129.499C213.822 129.503 213.92 129.508 213.986 129.514V130.707C213.946 130.697 213.855 130.683 213.712 130.663C213.573 130.639 213.426 130.628 213.27 130.628C212.899 130.628 212.567 130.706 212.276 130.862C211.987 131.014 211.759 131.226 211.589 131.498C211.424 131.766 211.341 132.073 211.341 132.418V137.25H210.168ZM215.377 137.25V129.614H216.55V137.25H215.377ZM215.973 128.341C215.744 128.341 215.547 128.263 215.382 128.107C215.219 127.951 215.138 127.764 215.138 127.545C215.138 127.327 215.219 127.139 215.382 126.984C215.547 126.828 215.744 126.75 215.973 126.75C216.202 126.75 216.397 126.828 216.56 126.984C216.726 127.139 216.808 127.327 216.808 127.545C216.808 127.764 216.726 127.951 216.56 128.107C216.397 128.263 216.202 128.341 215.973 128.341ZM221.801 137.409C221.085 137.409 220.469 137.24 219.952 136.902C219.435 136.564 219.037 136.098 218.759 135.505C218.48 134.912 218.341 134.234 218.341 133.472C218.341 132.696 218.483 132.012 218.768 131.418C219.057 130.822 219.458 130.356 219.972 130.021C220.489 129.683 221.092 129.514 221.781 129.514C222.318 129.514 222.802 129.614 223.233 129.812C223.664 130.011 224.017 130.29 224.292 130.648C224.567 131.006 224.738 131.423 224.804 131.901H223.631C223.541 131.553 223.342 131.244 223.034 130.976C222.729 130.704 222.318 130.568 221.801 130.568C221.344 130.568 220.943 130.687 220.598 130.926C220.257 131.161 219.99 131.495 219.798 131.925C219.609 132.353 219.514 132.855 219.514 133.432C219.514 134.022 219.607 134.536 219.793 134.973C219.982 135.411 220.247 135.75 220.588 135.992C220.933 136.234 221.337 136.355 221.801 136.355C222.106 136.355 222.383 136.302 222.631 136.196C222.88 136.09 223.09 135.938 223.263 135.739C223.435 135.54 223.558 135.301 223.631 135.023H224.804C224.738 135.473 224.574 135.879 224.312 136.241C224.053 136.599 223.71 136.884 223.283 137.096C222.858 137.305 222.365 137.409 221.801 137.409ZM228.766 137.429C228.282 137.429 227.843 137.338 227.449 137.156C227.054 136.97 226.741 136.703 226.509 136.355C226.277 136.004 226.161 135.58 226.161 135.082C226.161 134.645 226.247 134.29 226.42 134.018C226.592 133.743 226.822 133.528 227.111 133.372C227.399 133.216 227.717 133.1 228.065 133.024C228.417 132.945 228.77 132.882 229.124 132.835C229.588 132.776 229.964 132.731 230.253 132.701C230.545 132.668 230.757 132.613 230.889 132.537C231.025 132.461 231.093 132.328 231.093 132.139V132.099C231.093 131.609 230.959 131.228 230.69 130.956C230.425 130.684 230.022 130.548 229.482 130.548C228.922 130.548 228.483 130.671 228.165 130.916C227.847 131.161 227.623 131.423 227.494 131.702L226.38 131.304C226.579 130.84 226.844 130.479 227.175 130.22C227.51 129.958 227.875 129.776 228.269 129.673C228.667 129.567 229.058 129.514 229.442 129.514C229.688 129.514 229.969 129.544 230.288 129.604C230.609 129.66 230.919 129.778 231.217 129.957C231.519 130.136 231.769 130.406 231.968 130.767C232.167 131.128 232.266 131.612 232.266 132.219V137.25H231.093V136.216H231.033C230.954 136.382 230.821 136.559 230.636 136.748C230.45 136.937 230.203 137.098 229.895 137.23C229.587 137.363 229.21 137.429 228.766 137.429ZM228.945 136.375C229.409 136.375 229.8 136.284 230.119 136.102C230.44 135.919 230.682 135.684 230.844 135.396C231.01 135.107 231.093 134.804 231.093 134.486V133.412C231.043 133.472 230.934 133.526 230.765 133.576C230.599 133.622 230.407 133.664 230.188 133.7C229.973 133.733 229.762 133.763 229.557 133.79C229.355 133.813 229.191 133.833 229.065 133.849C228.76 133.889 228.475 133.954 228.21 134.043C227.948 134.129 227.736 134.26 227.573 134.436C227.414 134.608 227.335 134.844 227.335 135.142C227.335 135.55 227.485 135.858 227.787 136.067C228.092 136.272 228.478 136.375 228.945 136.375Z" fill="white" fill-opacity="0.95"/>
<path d="M75.9148 163.068H77.1477V169.81C77.1477 170.506 76.9837 171.127 76.6555 171.674C76.3307 172.218 75.8717 172.647 75.2784 172.962C74.6851 173.273 73.9891 173.429 73.1903 173.429C72.3916 173.429 71.6955 173.273 71.1023 172.962C70.509 172.647 70.0483 172.218 69.7202 171.674C69.3954 171.127 69.233 170.506 69.233 169.81V163.068H70.4659V169.71C70.4659 170.207 70.5753 170.65 70.794 171.038C71.0128 171.422 71.3243 171.725 71.7287 171.947C72.1364 172.166 72.6236 172.276 73.1903 172.276C73.7571 172.276 74.2443 172.166 74.652 171.947C75.0597 171.725 75.3712 171.422 75.5866 171.038C75.8054 170.65 75.9148 170.207 75.9148 169.71V163.068ZM79.4508 173.25V165.614H80.5843V166.767H80.6639C80.8031 166.389 81.055 166.083 81.4196 165.847C81.7842 165.612 82.1951 165.494 82.6525 165.494C82.7387 165.494 82.8464 165.496 82.9757 165.499C83.1049 165.503 83.2027 165.508 83.269 165.514V166.707C83.2292 166.697 83.1381 166.683 82.9956 166.663C82.8564 166.639 82.7089 166.628 82.5531 166.628C82.1819 166.628 81.8504 166.706 81.5588 166.862C81.2704 167.014 81.0417 167.226 80.8727 167.498C80.707 167.766 80.6241 168.073 80.6241 168.418V173.25H79.4508ZM89.4723 170.128V165.614H90.6456V173.25H89.4723V171.957H89.3928C89.2138 172.345 88.9354 172.675 88.5575 172.947C88.1797 173.215 87.7024 173.349 87.1257 173.349C86.6484 173.349 86.2242 173.245 85.853 173.036C85.4818 172.824 85.1901 172.506 84.978 172.082C84.7659 171.654 84.6598 171.116 84.6598 170.466V165.614H85.8331V170.386C85.8331 170.943 85.9889 171.387 86.3004 171.719C86.6153 172.05 87.0163 172.216 87.5036 172.216C87.7952 172.216 88.0919 172.141 88.3935 171.992C88.6984 171.843 88.9536 171.614 89.1591 171.306C89.3679 170.998 89.4723 170.605 89.4723 170.128ZM72.1562 196.273C71.5895 196.273 71.1023 196.2 70.6946 196.054C70.2869 195.911 69.9472 195.723 69.6754 195.487C69.407 195.255 69.1932 195.007 69.0341 194.741L69.9688 194.085C70.0748 194.224 70.209 194.384 70.3714 194.562C70.5339 194.745 70.7559 194.902 71.0376 195.035C71.3227 195.171 71.6955 195.239 72.1562 195.239C72.7727 195.239 73.2815 195.089 73.6825 194.791C74.0836 194.493 74.2841 194.026 74.2841 193.389V191.838H74.1847C74.0985 191.977 73.9759 192.15 73.8168 192.355C73.661 192.557 73.4356 192.738 73.1406 192.897C72.849 193.053 72.4545 193.131 71.9574 193.131C71.3409 193.131 70.7874 192.985 70.2969 192.693C69.8097 192.402 69.4235 191.977 69.1385 191.42C68.8568 190.864 68.7159 190.187 68.7159 189.392C68.7159 188.61 68.8535 187.929 69.1286 187.349C69.4036 186.765 69.7865 186.315 70.277 185.996C70.7675 185.675 71.3343 185.514 71.9773 185.514C72.4744 185.514 72.8688 185.597 73.1605 185.763C73.4555 185.925 73.6809 186.111 73.8366 186.32C73.9957 186.525 74.1184 186.694 74.2045 186.827H74.3239V185.614H75.4574V193.469C75.4574 194.125 75.3082 194.659 75.0099 195.07C74.715 195.484 74.3172 195.787 73.8168 195.979C73.3196 196.175 72.7661 196.273 72.1562 196.273ZM72.1165 192.077C72.5871 192.077 72.9848 191.969 73.3097 191.754C73.6345 191.538 73.8814 191.228 74.0504 190.824C74.2195 190.42 74.304 189.936 74.304 189.372C74.304 188.822 74.2211 188.336 74.0554 187.915C73.8897 187.495 73.6444 187.165 73.3196 186.926C72.9948 186.687 72.5938 186.568 72.1165 186.568C71.6193 186.568 71.205 186.694 70.8736 186.946C70.5455 187.198 70.2985 187.536 70.1328 187.96C69.9704 188.384 69.8892 188.855 69.8892 189.372C69.8892 189.902 69.9721 190.371 70.1378 190.779C70.3068 191.183 70.5554 191.502 70.8835 191.734C71.215 191.962 71.6259 192.077 72.1165 192.077ZM82.4176 190.128V185.614H83.5909V193.25H82.4176V191.957H82.3381C82.1591 192.345 81.8807 192.675 81.5028 192.947C81.125 193.215 80.6477 193.349 80.071 193.349C79.5938 193.349 79.1695 193.245 78.7983 193.036C78.4271 192.824 78.1354 192.506 77.9233 192.082C77.7112 191.654 77.6051 191.116 77.6051 190.466V185.614H78.7784V190.386C78.7784 190.943 78.9342 191.387 79.2457 191.719C79.5606 192.05 79.9616 192.216 80.4489 192.216C80.7405 192.216 81.0372 192.141 81.3388 191.992C81.6437 191.843 81.8989 191.614 82.1044 191.306C82.3132 190.998 82.4176 190.605 82.4176 190.128ZM87.987 193.429C87.5031 193.429 87.064 193.338 86.6696 193.156C86.2752 192.97 85.9619 192.703 85.7299 192.355C85.4979 192.004 85.3819 191.58 85.3819 191.082C85.3819 190.645 85.4681 190.29 85.6404 190.018C85.8128 189.743 86.0431 189.528 86.3315 189.372C86.6199 189.216 86.938 189.1 87.286 189.024C87.6374 188.945 87.9904 188.882 88.345 188.835C88.809 188.776 89.1852 188.731 89.4735 188.701C89.7652 188.668 89.9773 188.613 90.1099 188.537C90.2458 188.461 90.3137 188.328 90.3137 188.139V188.099C90.3137 187.609 90.1795 187.228 89.911 186.956C89.6459 186.684 89.2432 186.548 88.7029 186.548C88.1428 186.548 87.7037 186.671 87.3855 186.916C87.0673 187.161 86.8436 187.423 86.7143 187.702L85.6007 187.304C85.7995 186.84 86.0647 186.479 86.3961 186.22C86.7309 185.958 87.0955 185.776 87.4899 185.673C87.8876 185.567 88.2787 185.514 88.6632 185.514C88.9084 185.514 89.1902 185.544 89.5083 185.604C89.8298 185.66 90.1397 185.778 90.438 185.957C90.7396 186.136 90.9899 186.406 91.1887 186.767C91.3876 187.128 91.487 187.612 91.487 188.219V193.25H90.3137V192.216H90.2541C90.1745 192.382 90.042 192.559 89.8564 192.748C89.6708 192.937 89.4238 193.098 89.1156 193.23C88.8074 193.363 88.4312 193.429 87.987 193.429ZM88.166 192.375C88.63 192.375 89.0211 192.284 89.3393 192.102C89.6608 191.919 89.9028 191.684 90.0652 191.396C90.2309 191.107 90.3137 190.804 90.3137 190.486V189.412C90.264 189.472 90.1547 189.526 89.9856 189.576C89.8199 189.622 89.6277 189.664 89.4089 189.7C89.1935 189.733 88.983 189.763 88.7775 189.79C88.5753 189.813 88.4113 189.833 88.2853 189.849C87.9804 189.889 87.6954 189.954 87.4302 190.043C87.1684 190.129 86.9563 190.26 86.7939 190.436C86.6348 190.608 86.5552 190.844 86.5552 191.142C86.5552 191.55 86.706 191.858 87.0076 192.067C87.3126 192.272 87.6987 192.375 88.166 192.375ZM69.8295 216.094C69.6307 216.094 69.4534 216.077 69.2976 216.044C69.1418 216.014 69.0341 215.984 68.9744 215.955L69.2727 214.92C69.7003 215.03 70.0566 215.027 70.3416 214.911C70.6267 214.798 70.8736 214.456 71.0824 213.886L71.3011 213.29L68.4773 205.614H69.75L71.858 211.699H71.9375L74.0455 205.614L75.3281 205.634L72.0767 214.364C71.9309 214.751 71.7502 215.073 71.5348 215.328C71.3194 215.587 71.0691 215.779 70.7841 215.905C70.5024 216.031 70.1842 216.094 69.8295 216.094Z" fill="white" fill-opacity="0.95"/>
<path d="M75.9148 239.068H77.1477V245.81C77.1477 246.506 76.9837 247.127 76.6555 247.674C76.3307 248.218 75.8717 248.647 75.2784 248.962C74.6851 249.273 73.9891 249.429 73.1903 249.429C72.3916 249.429 71.6955 249.273 71.1023 248.962C70.509 248.647 70.0483 248.218 69.7202 247.674C69.3954 247.127 69.233 246.506 69.233 245.81V239.068H70.4659V245.71C70.4659 246.207 70.5753 246.65 70.794 247.038C71.0128 247.422 71.3243 247.725 71.7287 247.947C72.1364 248.166 72.6236 248.276 73.1903 248.276C73.7571 248.276 74.2443 248.166 74.652 247.947C75.0597 247.725 75.3712 247.422 75.5866 247.038C75.8054 246.65 75.9148 246.207 75.9148 245.71V239.068ZM79.2321 249.25V248.355L83.5673 242.787V242.707H79.3713V241.614H85.0787V242.548L80.8627 248.077V248.156H85.2179V249.25H79.2321ZM87.1841 249.25V239.068H88.3574V242.827H88.4569C88.543 242.694 88.6623 242.525 88.8148 242.32C88.9706 242.111 89.1926 241.925 89.481 241.763C89.7727 241.597 90.1671 241.514 90.6642 241.514C91.3072 241.514 91.874 241.675 92.3645 241.996C92.8551 242.318 93.2379 242.774 93.513 243.364C93.7881 243.954 93.9256 244.65 93.9256 245.452C93.9256 246.26 93.7881 246.961 93.513 247.555C93.2379 248.145 92.8567 248.602 92.3695 248.927C91.8823 249.248 91.3205 249.409 90.6841 249.409C90.1936 249.409 89.8008 249.328 89.5059 249.165C89.2109 249 88.9838 248.812 88.8248 248.604C88.6657 248.392 88.543 248.216 88.4569 248.077H88.3176V249.25H87.1841ZM88.3375 245.432C88.3375 246.009 88.4221 246.517 88.5911 246.958C88.7601 247.396 89.007 247.739 89.3319 247.987C89.6567 248.232 90.0544 248.355 90.525 248.355C91.0156 248.355 91.4249 248.226 91.753 247.967C92.0845 247.705 92.333 247.354 92.4988 246.913C92.6678 246.469 92.7523 245.975 92.7523 245.432C92.7523 244.895 92.6694 244.411 92.5037 243.98C92.3413 243.546 92.0944 243.203 91.763 242.951C91.4348 242.696 91.0222 242.568 90.525 242.568C90.0478 242.568 89.6467 242.689 89.3219 242.931C88.9971 243.17 88.7518 243.504 88.5861 243.935C88.4204 244.363 88.3375 244.862 88.3375 245.432ZM98.9221 249.409C98.1863 249.409 97.5516 249.247 97.0179 248.922C96.4876 248.594 96.0783 248.136 95.79 247.55C95.5049 246.96 95.3624 246.274 95.3624 245.491C95.3624 244.709 95.5049 244.02 95.79 243.423C96.0783 242.823 96.4793 242.356 96.9931 242.021C97.5101 241.683 98.1133 241.514 98.8027 241.514C99.2005 241.514 99.5932 241.58 99.981 241.713C100.369 241.846 100.722 242.061 101.04 242.359C101.358 242.654 101.612 243.045 101.801 243.533C101.99 244.02 102.084 244.62 102.084 245.332V245.83H96.1976V244.815H100.891C100.891 244.384 100.805 244 100.632 243.662C100.463 243.324 100.221 243.057 99.9064 242.862C99.5949 242.666 99.227 242.568 98.8027 242.568C98.3354 242.568 97.931 242.684 97.5897 242.916C97.2516 243.145 96.9914 243.443 96.8091 243.811C96.6268 244.179 96.5357 244.573 96.5357 244.994V245.67C96.5357 246.247 96.6351 246.736 96.834 247.137C97.0362 247.535 97.3162 247.838 97.6742 248.047C98.0321 248.252 98.4481 248.355 98.9221 248.355C99.2303 248.355 99.5087 248.312 99.7573 248.226C100.009 248.136 100.226 248.004 100.409 247.828C100.591 247.649 100.732 247.427 100.831 247.162L101.965 247.48C101.845 247.865 101.645 248.203 101.363 248.494C101.081 248.783 100.733 249.008 100.319 249.17C99.9048 249.33 99.4391 249.409 98.9221 249.409ZM104.963 246.466L104.943 245.014H105.181L108.522 241.614H109.974L106.414 245.213H106.315L104.963 246.466ZM103.869 249.25V239.068H105.042V249.25H103.869ZM108.721 249.25L105.738 245.472L106.573 244.656L110.213 249.25H108.721ZM111.484 249.25V241.614H112.657V249.25H111.484ZM112.081 240.341C111.852 240.341 111.655 240.263 111.489 240.107C111.327 239.951 111.245 239.764 111.245 239.545C111.245 239.327 111.327 239.139 111.489 238.984C111.655 238.828 111.852 238.75 112.081 238.75C112.309 238.75 112.505 238.828 112.667 238.984C112.833 239.139 112.916 239.327 112.916 239.545C112.916 239.764 112.833 239.951 112.667 240.107C112.505 240.263 112.309 240.341 112.081 240.341ZM120.215 243.324L119.161 243.622C119.095 243.446 118.997 243.276 118.868 243.11C118.742 242.941 118.57 242.802 118.351 242.692C118.132 242.583 117.852 242.528 117.511 242.528C117.044 242.528 116.654 242.636 116.343 242.852C116.034 243.064 115.88 243.334 115.88 243.662C115.88 243.954 115.986 244.184 116.198 244.353C116.41 244.522 116.742 244.663 117.193 244.776L118.326 245.054C119.009 245.22 119.518 245.473 119.852 245.815C120.187 246.153 120.355 246.589 120.355 247.122C120.355 247.56 120.229 247.951 119.977 248.295C119.728 248.64 119.38 248.912 118.933 249.111C118.485 249.31 117.965 249.409 117.372 249.409C116.593 249.409 115.948 249.24 115.438 248.902C114.927 248.564 114.604 248.07 114.468 247.42L115.582 247.142C115.688 247.553 115.888 247.861 116.183 248.067C116.482 248.272 116.871 248.375 117.352 248.375C117.899 248.375 118.333 248.259 118.654 248.027C118.979 247.792 119.142 247.51 119.142 247.182C119.142 246.917 119.049 246.695 118.863 246.516C118.677 246.333 118.392 246.197 118.008 246.108L116.735 245.81C116.036 245.644 115.522 245.387 115.194 245.039C114.869 244.688 114.707 244.249 114.707 243.722C114.707 243.291 114.828 242.91 115.07 242.578C115.315 242.247 115.648 241.987 116.069 241.798C116.493 241.609 116.974 241.514 117.511 241.514C118.267 241.514 118.86 241.68 119.291 242.011C119.725 242.343 120.033 242.78 120.215 243.324ZM125.442 241.614V242.608H121.484V241.614H125.442ZM122.638 239.784H123.811V247.062C123.811 247.394 123.859 247.643 123.955 247.808C124.055 247.971 124.181 248.08 124.333 248.136C124.489 248.189 124.653 248.216 124.825 248.216C124.955 248.216 125.061 248.209 125.143 248.196C125.226 248.179 125.293 248.166 125.342 248.156L125.581 249.21C125.501 249.24 125.39 249.27 125.248 249.3C125.105 249.333 124.925 249.349 124.706 249.349C124.375 249.349 124.05 249.278 123.732 249.136C123.417 248.993 123.155 248.776 122.946 248.484C122.741 248.193 122.638 247.825 122.638 247.381V239.784ZM129.454 249.429C128.97 249.429 128.531 249.338 128.136 249.156C127.742 248.97 127.429 248.703 127.197 248.355C126.965 248.004 126.849 247.58 126.849 247.082C126.849 246.645 126.935 246.29 127.107 246.018C127.28 245.743 127.51 245.528 127.798 245.372C128.087 245.216 128.405 245.1 128.753 245.024C129.104 244.945 129.457 244.882 129.812 244.835C130.276 244.776 130.652 244.731 130.94 244.701C131.232 244.668 131.444 244.613 131.577 244.537C131.713 244.461 131.781 244.328 131.781 244.139V244.099C131.781 243.609 131.646 243.228 131.378 242.956C131.113 242.684 130.71 242.548 130.17 242.548C129.61 242.548 129.17 242.671 128.852 242.916C128.534 243.161 128.31 243.423 128.181 243.702L127.067 243.304C127.266 242.84 127.531 242.479 127.863 242.22C128.198 241.958 128.562 241.776 128.957 241.673C129.354 241.567 129.746 241.514 130.13 241.514C130.375 241.514 130.657 241.544 130.975 241.604C131.297 241.66 131.607 241.778 131.905 241.957C132.206 242.136 132.457 242.406 132.656 242.767C132.854 243.128 132.954 243.612 132.954 244.219V249.25H131.781V248.216H131.721C131.641 248.382 131.509 248.559 131.323 248.748C131.138 248.937 130.891 249.098 130.582 249.23C130.274 249.363 129.898 249.429 129.454 249.429ZM129.633 248.375C130.097 248.375 130.488 248.284 130.806 248.102C131.128 247.919 131.37 247.684 131.532 247.396C131.698 247.107 131.781 246.804 131.781 246.486V245.412C131.731 245.472 131.621 245.526 131.452 245.576C131.287 245.622 131.094 245.664 130.876 245.7C130.66 245.733 130.45 245.763 130.244 245.79C130.042 245.813 129.878 245.833 129.752 245.849C129.447 245.889 129.162 245.954 128.897 246.043C128.635 246.129 128.423 246.26 128.261 246.436C128.102 246.608 128.022 246.844 128.022 247.142C128.022 247.55 128.173 247.858 128.474 248.067C128.779 248.272 129.165 248.375 129.633 248.375ZM136.269 244.656V249.25H135.095V241.614H136.229V242.807H136.328C136.507 242.419 136.779 242.107 137.144 241.872C137.508 241.634 137.979 241.514 138.556 241.514C139.073 241.514 139.525 241.62 139.913 241.832C140.301 242.041 140.602 242.359 140.818 242.787C141.033 243.211 141.141 243.748 141.141 244.398V249.25H139.968V244.477C139.968 243.877 139.812 243.41 139.5 243.075C139.189 242.737 138.761 242.568 138.218 242.568C137.843 242.568 137.508 242.649 137.213 242.812C136.922 242.974 136.691 243.211 136.522 243.523C136.353 243.834 136.269 244.212 136.269 244.656Z" fill="white" fill-opacity="0.95"/>
<rect x="46.9966" y="66.5791" width="284" height="62" rx="5" stroke="#DA0087" stroke-width="2"/>
<rect x="48.9966" y="68.5791" width="280" height="58" rx="3" stroke="white" stroke-opacity="0.9" stroke-width="2"/>
<rect x="311.997" y="49.5791" width="36" height="36" rx="18" fill="#DA0087"/>
<rect x="312.997" y="50.5791" width="34" height="34" rx="17" stroke="white" stroke-opacity="0.9" stroke-width="2"/>
<path d="M329.869 61.7496C330.467 61.7496 331.043 61.8499 331.596 62.0507C332.153 62.2477 332.649 62.5677 333.085 63.0109C333.524 63.4541 333.871 64.0412 334.124 64.7723C334.382 65.4996 334.513 66.3954 334.516 67.4598C334.513 68.4484 334.399 69.331 334.176 70.1075C333.956 70.8802 333.64 71.5374 333.227 72.0791C332.814 72.6208 332.316 73.0336 331.732 73.3177C331.153 73.598 330.503 73.7382 329.784 73.7382C329.007 73.7382 328.321 73.5886 327.727 73.2893C327.132 72.9863 326.653 72.5753 326.289 72.0564C325.929 71.5336 325.712 70.9465 325.636 70.295H328.062C328.157 70.7193 328.355 71.0488 328.659 71.2836C328.962 71.5147 329.337 71.6302 329.784 71.6302C330.541 71.6302 331.117 71.3007 331.511 70.6416C331.905 69.9787 332.104 69.0715 332.107 67.92H332.028C331.854 68.2609 331.619 68.5545 331.323 68.8007C331.028 69.0431 330.689 69.2306 330.306 69.3632C329.927 69.4958 329.524 69.5621 329.096 69.5621C328.41 69.5621 327.797 69.4011 327.255 69.0791C326.717 68.7571 326.293 68.314 325.982 67.7496C325.672 67.1814 325.518 66.5336 325.522 65.8064C325.518 65.0185 325.698 64.3196 326.062 63.7098C326.426 63.0961 326.933 62.6151 327.585 62.2666C328.24 61.9181 329.001 61.7458 329.869 61.7496ZM329.886 63.6814C329.503 63.6814 329.162 63.7723 328.863 63.9541C328.568 64.1359 328.333 64.3821 328.159 64.6927C327.988 65.0033 327.905 65.3518 327.909 65.7382C327.905 66.1246 327.986 66.4711 328.153 66.778C328.323 67.0848 328.556 67.3291 328.852 67.5109C329.147 67.6889 329.484 67.778 329.863 67.778C330.147 67.778 330.409 67.7249 330.647 67.6189C330.89 67.5128 331.1 67.367 331.278 67.1814C331.46 66.992 331.602 66.7742 331.704 66.528C331.806 66.278 331.859 66.0109 331.863 65.7268C331.859 65.3518 331.772 65.009 331.602 64.6984C331.431 64.3878 331.196 64.1416 330.897 63.9598C330.598 63.7742 330.261 63.6814 329.886 63.6814Z" fill="white" fill-opacity="0.95"/>
<defs>
<filter id="filter0_ddd_2149_76998" x="298.766" y="23" width="42" height="42" filterUnits="userSpaceOnUse" color-interpolation-filters="sRGB">
<feFlood flood-opacity="0" result="BackgroundImageFix"/>
<feColorMatrix in="SourceAlpha" type="matrix" values="0 0 0 0 0 0 0 0 0 0 0 0 0 0 0 0 0 0 127 0" result="hardAlpha"/>
<feMorphology radius="4" operator="dilate" in="SourceAlpha" result="effect1_dropShadow_2149_76998"/>
<feOffset/>
<feComposite in2="hardAlpha" operator="out"/>
<feColorMatrix type="matrix" values="0 0 0 0 0.392157 0 0 0 0 0.705882 0 0 0 0 0.980392 0 0 0 1 0"/>
<feBlend mode="normal" in2="BackgroundImageFix" result="effect1_dropShadow_2149_76998"/>
<feColorMatrix in="SourceAlpha" type="matrix" values="0 0 0 0 0 0 0 0 0 0 0 0 0 0 0 0 0 0 127 0" result="hardAlpha"/>
<feMorphology radius="5" operator="dilate" in="SourceAlpha" result="effect2_dropShadow_2149_76998"/>
<feOffset/>
<feComposite in2="hardAlpha" operator="out"/>
<feColorMatrix type="matrix" values="0 0 0 0 0.392157 0 0 0 0 0.705882 0 0 0 0 0.980392 0 0 0 0.3 0"/>
<feBlend mode="normal" in2="effect1_dropShadow_2149_76998" result="effect2_dropShadow_2149_76998"/>
<feColorMatrix in="SourceAlpha" type="matrix" values="0 0 0 0 0 0 0 0 0 0 0 0 0 0 0 0 0 0 127 0" result="hardAlpha"/>
<feMorphology radius="2" operator="dilate" in="SourceAlpha" result="effect3_dropShadow_2149_76998"/>
<feOffset/>
<feComposite in2="hardAlpha" operator="out"/>
<feColorMatrix type="matrix" values="0 0 0 0 0 0 0 0 0 0 0 0 0 0 0 0 0 0 1 0"/>
<feBlend mode="normal" in2="effect2_dropShadow_2149_76998" result="effect3_dropShadow_2149_76998"/>
<feBlend mode="normal" in="SourceGraphic" in2="effect3_dropShadow_2149_76998" result="shape"/>
</filter>
<filter id="filter1_d_2149_76998" x="0" y="42.25" width="383" height="304" filterUnits="userSpaceOnUse" color-interpolation-filters="sRGB">
<feFlood flood-opacity="0" result="BackgroundImageFix"/>
<feColorMatrix in="SourceAlpha" type="matrix" values="0 0 0 0 0 0 0 0 0 0 0 0 0 0 0 0 0 0 127 0" result="hardAlpha"/>
<feOffset dy="24"/>
<feGaussianBlur stdDeviation="24"/>
<feComposite in2="hardAlpha" operator="out"/>
<feColorMatrix type="matrix" values="0 0 0 0 0 0 0 0 0 0 0 0 0 0 0 0 0 0 0.2 0"/>
<feBlend mode="normal" in2="BackgroundImageFix" result="effect1_dropShadow_2149_76998"/>
<feBlend mode="normal" in="SourceGraphic" in2="effect1_dropShadow_2149_76998" result="shape"/>
</filter>
<filter id="filter2_ddd_2149_76998" x="51" y="73.25" width="281.05" height="46" filterUnits="userSpaceOnUse" color-interpolation-filters="sRGB">
<feFlood flood-opacity="0" result="BackgroundImageFix"/>
<feColorMatrix in="SourceAlpha" type="matrix" values="0 0 0 0 0 0 0 0 0 0 0 0 0 0 0 0 0 0 127 0" result="hardAlpha"/>
<feMorphology radius="4" operator="dilate" in="SourceAlpha" result="effect1_dropShadow_2149_76998"/>
<feOffset/>
<feComposite in2="hardAlpha" operator="out"/>
<feColorMatrix type="matrix" values="0 0 0 0 0.392157 0 0 0 0 0.705882 0 0 0 0 0.980392 0 0 0 1 0"/>
<feBlend mode="normal" in2="BackgroundImageFix" result="effect1_dropShadow_2149_76998"/>
<feColorMatrix in="SourceAlpha" type="matrix" values="0 0 0 0 0 0 0 0 0 0 0 0 0 0 0 0 0 0 127 0" result="hardAlpha"/>
<feMorphology radius="5" operator="dilate" in="SourceAlpha" result="effect2_dropShadow_2149_76998"/>
<feOffset/>
<feComposite in2="hardAlpha" operator="out"/>
<feColorMatrix type="matrix" values="0 0 0 0 0.392157 0 0 0 0 0.705882 0 0 0 0 0.980392 0 0 0 0.3 0"/>
<feBlend mode="normal" in2="effect1_dropShadow_2149_76998" result="effect2_dropShadow_2149_76998"/>
<feColorMatrix in="SourceAlpha" type="matrix" values="0 0 0 0 0 0 0 0 0 0 0 0 0 0 0 0 0 0 127 0" result="hardAlpha"/>
<feMorphology radius="2" operator="dilate" in="SourceAlpha" result="effect3_dropShadow_2149_76998"/>
<feOffset/>
<feComposite in2="hardAlpha" operator="out"/>
<feColorMatrix type="matrix" values="0 0 0 0 0 0 0 0 0 0 0 0 0 0 0 0 0 0 1 0"/>
<feBlend mode="normal" in2="effect2_dropShadow_2149_76998" result="effect3_dropShadow_2149_76998"/>
<feBlend mode="normal" in="SourceGraphic" in2="effect3_dropShadow_2149_76998" result="shape"/>
</filter>
<clipPath id="clip0_2149_76998">
<rect x="56" y="78.25" width="271.05" height="36" rx="8" fill="white"/>
</clipPath>
</defs>
</svg>
