<svg width="647" height="326" viewBox="0 0 647 326" fill="none" xmlns="http://www.w3.org/2000/svg">
<path d="M647 1.50029C647 0.671703 646.328 0 645.5 0C644.671 0 643.999 0.671703 643.999 1.50029H647ZM9.98718 324.966C10.5731 325.552 11.523 325.552 12.1089 324.966L21.6567 315.418C22.2426 314.832 22.2426 313.882 21.6567 313.296C21.0708 312.71 20.1209 312.71 19.535 313.296L11.048 321.783L2.56112 313.296C1.97521 312.71 1.02528 312.71 0.439382 313.296C-0.146519 313.882 -0.146519 314.832 0.439382 315.418L9.98718 324.966ZM643.999 1.50029V133.282H647V1.50029H643.999ZM621.495 155.787H35.0527V158.787H621.495V155.787ZM9.54775 181.292V323.905H12.5483V181.292H9.54775ZM35.0527 155.787C20.9667 155.787 9.54775 167.206 9.54775 181.292H12.5483C12.5483 168.863 22.6239 158.787 35.0527 158.787V155.787ZM643.999 133.282C643.999 145.711 633.924 155.787 621.495 155.787V158.787C635.581 158.787 647 147.368 647 133.282H643.999Z" fill="#DA0087"/>
</svg>
