<svg width="53" height="23" viewBox="0 0 53 23" fill="none" xmlns="http://www.w3.org/2000/svg">
<path d="M1.5 9.5459C0.671573 9.5459 0 10.2175 0 11.0459C0 11.8743 0.671573 12.5459 1.5 12.5459V9.5459ZM52.5607 12.1066C53.1464 11.5208 53.1464 10.571 52.5607 9.98524L43.0147 0.439297C42.4289 -0.14649 41.4792 -0.14649 40.8934 0.439297C40.3076 1.02508 40.3076 1.97483 40.8934 2.56062L49.3787 11.0459L40.8934 19.5312C40.3076 20.117 40.3076 21.0667 40.8934 21.6525C41.4792 22.2383 42.4289 22.2383 43.0147 21.6525L52.5607 12.1066ZM1.5 12.5459H51.5V9.5459H1.5V12.5459Z" fill="#DA0087"/>
</svg>
