<svg width="527" height="326" viewBox="0 0 527 326" fill="none" xmlns="http://www.w3.org/2000/svg">
<path d="M527 1.50036C527 0.671733 526.328 0 525.5 0C524.671 0 523.999 0.671733 523.999 1.50036H527ZM9.98762 324.98C10.5735 325.566 11.5235 325.566 12.1094 324.98L21.6577 315.432C22.2436 314.846 22.2436 313.896 21.6577 313.31C21.0717 312.724 20.1218 312.724 19.5358 313.31L11.0485 321.797L2.56123 313.31C1.9753 312.724 1.02533 312.724 0.439402 313.31C-0.146525 313.896 -0.146525 314.846 0.439402 315.432L9.98762 324.98ZM523.999 1.50036V133.288H527V1.50036H523.999ZM501.494 155.794H35.0543V158.794H501.494V155.794ZM9.54818 181.3V323.919H12.5489V181.3H9.54818ZM35.0543 155.794C20.9676 155.794 9.54818 167.213 9.54818 181.3H12.5489C12.5489 168.87 22.6249 158.794 35.0543 158.794V155.794ZM523.999 133.288C523.999 145.718 513.923 155.794 501.494 155.794V158.794C515.581 158.794 527 147.375 527 133.288H523.999Z" fill="#DA0087"/>
</svg>
