<svg width="244" height="232" viewBox="0 0 244 232" fill="none" xmlns="http://www.w3.org/2000/svg">
<mask id="path-1-inside-1_2165_29156" fill="white">
<path d="M0 0H244V232H0V0Z"/>
</mask>
<path d="M0 0H244V232H0V0Z" fill="#1A1A1A"/>
<path d="M244 232V233H245V232H244ZM243 0V232H245V0H243ZM244 231H0V233H244V231Z" fill="#707070" mask="url(#path-1-inside-1_2165_29156)"/>
<path d="M31.4091 122V110.364H32.8182V120.75H38.2273V122H31.4091ZM42.7955 122.205C42.2424 122.205 41.7405 122.1 41.2898 121.892C40.839 121.68 40.4811 121.375 40.2159 120.977C39.9508 120.576 39.8182 120.091 39.8182 119.523C39.8182 119.023 39.9167 118.617 40.1136 118.307C40.3106 117.992 40.5739 117.746 40.9034 117.568C41.233 117.39 41.5966 117.258 41.9943 117.17C42.3958 117.08 42.7992 117.008 43.2045 116.955C43.7348 116.886 44.1648 116.835 44.4943 116.801C44.8277 116.763 45.0701 116.701 45.2216 116.614C45.3769 116.527 45.4545 116.375 45.4545 116.159V116.114C45.4545 115.553 45.3011 115.117 44.9943 114.807C44.6913 114.496 44.2311 114.341 43.6136 114.341C42.9735 114.341 42.4716 114.481 42.108 114.761C41.7443 115.042 41.4886 115.341 41.3409 115.659L40.0682 115.205C40.2955 114.674 40.5985 114.261 40.9773 113.966C41.3598 113.667 41.7765 113.458 42.2273 113.341C42.6818 113.22 43.1288 113.159 43.5682 113.159C43.8485 113.159 44.1705 113.193 44.5341 113.261C44.9015 113.326 45.2557 113.46 45.5966 113.665C45.9413 113.869 46.2273 114.178 46.4545 114.591C46.6818 115.004 46.7955 115.557 46.7955 116.25V122H45.4545V120.818H45.3864C45.2955 121.008 45.1439 121.21 44.9318 121.426C44.7197 121.642 44.4375 121.826 44.0852 121.977C43.733 122.129 43.303 122.205 42.7955 122.205ZM43 121C43.5303 121 43.9773 120.896 44.3409 120.688C44.7083 120.479 44.9848 120.21 45.1705 119.881C45.3598 119.551 45.4545 119.205 45.4545 118.841V117.614C45.3977 117.682 45.2727 117.744 45.0795 117.801C44.8902 117.854 44.6705 117.902 44.4205 117.943C44.1742 117.981 43.9337 118.015 43.6989 118.045C43.4678 118.072 43.2803 118.095 43.1364 118.114C42.7879 118.159 42.4621 118.233 42.1591 118.335C41.8598 118.434 41.6174 118.583 41.4318 118.784C41.25 118.981 41.1591 119.25 41.1591 119.591C41.1591 120.057 41.3314 120.409 41.6761 120.648C42.0246 120.883 42.4659 121 43 121ZM49.4247 122V110.364H50.7656V114.659H50.8793C50.9777 114.508 51.1141 114.314 51.2884 114.08C51.4664 113.841 51.7202 113.629 52.0497 113.443C52.383 113.254 52.8338 113.159 53.402 113.159C54.1368 113.159 54.7846 113.343 55.3452 113.71C55.9058 114.078 56.3433 114.598 56.6577 115.273C56.9721 115.947 57.1293 116.742 57.1293 117.659C57.1293 118.583 56.9721 119.384 56.6577 120.062C56.3433 120.737 55.9077 121.259 55.3509 121.631C54.794 121.998 54.152 122.182 53.4247 122.182C52.8641 122.182 52.4152 122.089 52.0781 121.903C51.741 121.714 51.4815 121.5 51.2997 121.261C51.1179 121.019 50.9777 120.818 50.8793 120.659H50.7202V122H49.4247ZM50.7429 117.636C50.7429 118.295 50.8395 118.877 51.0327 119.381C51.2259 119.881 51.508 120.273 51.8793 120.557C52.2505 120.837 52.705 120.977 53.2429 120.977C53.8035 120.977 54.2713 120.83 54.6463 120.534C55.0251 120.235 55.3092 119.833 55.4986 119.33C55.6918 118.822 55.7884 118.258 55.7884 117.636C55.7884 117.023 55.6937 116.47 55.5043 115.977C55.3187 115.481 55.0365 115.089 54.6577 114.801C54.2827 114.509 53.8111 114.364 53.2429 114.364C52.6974 114.364 52.2391 114.502 51.8679 114.778C51.4967 115.051 51.2164 115.434 51.027 115.926C50.8376 116.415 50.7429 116.985 50.7429 117.636ZM62.8395 122.182C61.9986 122.182 61.2732 121.996 60.6634 121.625C60.0573 121.25 59.5895 120.727 59.2599 120.057C58.9342 119.383 58.7713 118.598 58.7713 117.705C58.7713 116.811 58.9342 116.023 59.2599 115.341C59.5895 114.655 60.0478 114.121 60.6349 113.739C61.2259 113.352 61.9152 113.159 62.7031 113.159C63.1577 113.159 63.6065 113.235 64.0497 113.386C64.4929 113.538 64.8963 113.784 65.2599 114.125C65.6236 114.462 65.9134 114.909 66.1293 115.466C66.3452 116.023 66.4531 116.708 66.4531 117.523V118.091H59.7259V116.932H65.0895C65.0895 116.439 64.991 116 64.794 115.614C64.6009 115.227 64.3243 114.922 63.9645 114.699C63.6084 114.475 63.188 114.364 62.7031 114.364C62.169 114.364 61.7069 114.496 61.3168 114.761C60.9304 115.023 60.633 115.364 60.4247 115.784C60.2164 116.205 60.1122 116.655 60.1122 117.136V117.909C60.1122 118.568 60.2259 119.127 60.4531 119.585C60.6842 120.04 61.0043 120.386 61.4134 120.625C61.8224 120.86 62.2978 120.977 62.8395 120.977C63.1918 120.977 63.5099 120.928 63.794 120.83C64.0819 120.727 64.33 120.576 64.5384 120.375C64.7467 120.17 64.9077 119.917 65.0213 119.614L66.3168 119.977C66.1804 120.417 65.9512 120.803 65.6293 121.136C65.3073 121.466 64.9096 121.723 64.4361 121.909C63.9626 122.091 63.4304 122.182 62.8395 122.182ZM69.8338 110.364V122H68.4929V110.364H69.8338Z" fill="white" fill-opacity="0.95"/>
</svg>
