<svg width="245" height="352" viewBox="0 0 245 352" fill="none" xmlns="http://www.w3.org/2000/svg">
<mask id="path-1-inside-1_2165_29198" fill="white">
<path d="M0 0H245V352H0V0Z"/>
</mask>
<path d="M0 0H245V352H0V0Z" fill="#1A1A1A"/>
<path d="M244 0V352H246V0H244Z" fill="#707070" mask="url(#path-1-inside-1_2165_29198)"/>
<path d="M35 182H31.4091V170.364H35.1591C36.2879 170.364 37.2538 170.597 38.0568 171.062C38.8598 171.525 39.4754 172.189 39.9034 173.057C40.3314 173.92 40.5455 174.955 40.5455 176.159C40.5455 177.371 40.3295 178.415 39.8977 179.29C39.4659 180.161 38.8371 180.831 38.0114 181.301C37.1856 181.767 36.1818 182 35 182ZM32.8182 180.75H34.9091C35.8712 180.75 36.6686 180.564 37.3011 180.193C37.9337 179.822 38.4053 179.294 38.7159 178.608C39.0265 177.922 39.1818 177.106 39.1818 176.159C39.1818 175.22 39.0284 174.411 38.7216 173.733C38.4148 173.051 37.9564 172.528 37.3466 172.165C36.7367 171.797 35.9773 171.614 35.0682 171.614H32.8182V180.75ZM46.3864 182.182C45.5455 182.182 44.8201 181.996 44.2102 181.625C43.6042 181.25 43.1364 180.727 42.8068 180.057C42.4811 179.383 42.3182 178.598 42.3182 177.705C42.3182 176.811 42.4811 176.023 42.8068 175.341C43.1364 174.655 43.5947 174.121 44.1818 173.739C44.7727 173.352 45.4621 173.159 46.25 173.159C46.7045 173.159 47.1534 173.235 47.5966 173.386C48.0398 173.538 48.4432 173.784 48.8068 174.125C49.1705 174.462 49.4602 174.909 49.6761 175.466C49.892 176.023 50 176.708 50 177.523V178.091H43.2727V176.932H48.6364C48.6364 176.439 48.5379 176 48.3409 175.614C48.1477 175.227 47.8712 174.922 47.5114 174.699C47.1553 174.475 46.7348 174.364 46.25 174.364C45.7159 174.364 45.2538 174.496 44.8636 174.761C44.4773 175.023 44.1799 175.364 43.9716 175.784C43.7633 176.205 43.6591 176.655 43.6591 177.136V177.909C43.6591 178.568 43.7727 179.127 44 179.585C44.2311 180.04 44.5511 180.386 44.9602 180.625C45.3693 180.86 45.8447 180.977 46.3864 180.977C46.7386 180.977 47.0568 180.928 47.3409 180.83C47.6288 180.727 47.8769 180.576 48.0852 180.375C48.2936 180.17 48.4545 179.917 48.5682 179.614L49.8636 179.977C49.7273 180.417 49.4981 180.803 49.1761 181.136C48.8542 181.466 48.4564 181.723 47.983 181.909C47.5095 182.091 46.9773 182.182 46.3864 182.182ZM55.9261 173.273V174.409H51.2216V173.273H55.9261ZM52.6307 182V172.068C52.6307 171.568 52.7481 171.152 52.983 170.818C53.2178 170.485 53.5227 170.235 53.8977 170.068C54.2727 169.902 54.6686 169.818 55.0852 169.818C55.4148 169.818 55.6837 169.845 55.892 169.898C56.1004 169.951 56.2557 170 56.358 170.045L55.9716 171.205C55.9034 171.182 55.8087 171.153 55.6875 171.119C55.5701 171.085 55.4148 171.068 55.2216 171.068C54.7784 171.068 54.4583 171.18 54.2614 171.403C54.0682 171.627 53.9716 171.955 53.9716 172.386V182H52.6307ZM60.1236 182.205C59.5705 182.205 59.0687 182.1 58.6179 181.892C58.1671 181.68 57.8092 181.375 57.544 180.977C57.2789 180.576 57.1463 180.091 57.1463 179.523C57.1463 179.023 57.2448 178.617 57.4418 178.307C57.6387 177.992 57.902 177.746 58.2315 177.568C58.5611 177.39 58.9247 177.258 59.3224 177.17C59.724 177.08 60.1274 177.008 60.5327 176.955C61.063 176.886 61.4929 176.835 61.8224 176.801C62.1558 176.763 62.3982 176.701 62.5497 176.614C62.705 176.527 62.7827 176.375 62.7827 176.159V176.114C62.7827 175.553 62.6293 175.117 62.3224 174.807C62.0194 174.496 61.5592 174.341 60.9418 174.341C60.3016 174.341 59.7997 174.481 59.4361 174.761C59.0724 175.042 58.8168 175.341 58.669 175.659L57.3963 175.205C57.6236 174.674 57.9266 174.261 58.3054 173.966C58.688 173.667 59.1046 173.458 59.5554 173.341C60.0099 173.22 60.4569 173.159 60.8963 173.159C61.1766 173.159 61.4986 173.193 61.8622 173.261C62.2296 173.326 62.5838 173.46 62.9247 173.665C63.2694 173.869 63.5554 174.178 63.7827 174.591C64.0099 175.004 64.1236 175.557 64.1236 176.25V182H62.7827V180.818H62.7145C62.6236 181.008 62.4721 181.21 62.2599 181.426C62.0478 181.642 61.7656 181.826 61.4134 181.977C61.0611 182.129 60.6312 182.205 60.1236 182.205ZM60.3281 181C60.8584 181 61.3054 180.896 61.669 180.688C62.0365 180.479 62.313 180.21 62.4986 179.881C62.688 179.551 62.7827 179.205 62.7827 178.841V177.614C62.7259 177.682 62.6009 177.744 62.4077 177.801C62.2183 177.854 61.9986 177.902 61.7486 177.943C61.5024 177.981 61.2618 178.015 61.027 178.045C60.7959 178.072 60.6084 178.095 60.4645 178.114C60.116 178.159 59.7902 178.233 59.4872 178.335C59.188 178.434 58.9455 178.583 58.7599 178.784C58.5781 178.981 58.4872 179.25 58.4872 179.591C58.4872 180.057 58.6596 180.409 59.0043 180.648C59.3527 180.883 59.794 181 60.3281 181ZM72.071 178.432V173.273H73.4119V182H72.071V180.523H71.9801C71.7756 180.966 71.4574 181.343 71.0256 181.653C70.5938 181.96 70.0483 182.114 69.3892 182.114C68.8438 182.114 68.3589 181.994 67.9347 181.756C67.5104 181.513 67.1771 181.15 66.9347 180.665C66.6922 180.176 66.571 179.561 66.571 178.818V173.273H67.9119V178.727C67.9119 179.364 68.09 179.871 68.446 180.25C68.8059 180.629 69.2642 180.818 69.821 180.818C70.1544 180.818 70.4934 180.733 70.8381 180.562C71.1866 180.392 71.4782 180.131 71.7131 179.778C71.9517 179.426 72.071 178.977 72.071 178.432ZM77.2088 170.364V182H75.8679V170.364H77.2088ZM83.4602 173.273V174.409H78.9375V173.273H83.4602ZM80.2557 171.182H81.5966V179.5C81.5966 179.879 81.6515 180.163 81.7614 180.352C81.875 180.538 82.0189 180.663 82.1932 180.727C82.3712 180.788 82.5587 180.818 82.7557 180.818C82.9034 180.818 83.0246 180.811 83.1193 180.795C83.214 180.777 83.2898 180.761 83.3466 180.75L83.6193 181.955C83.5284 181.989 83.4015 182.023 83.2386 182.057C83.0758 182.095 82.8693 182.114 82.6193 182.114C82.2405 182.114 81.8693 182.032 81.5057 181.869C81.1458 181.706 80.8466 181.458 80.608 181.125C80.3731 180.792 80.2557 180.371 80.2557 179.864V171.182Z" fill="white" fill-opacity="0.95"/>
</svg>
