<svg width="244" height="160" viewBox="0 0 244 160" fill="none" xmlns="http://www.w3.org/2000/svg">
<mask id="path-1-inside-1_2165_29188" fill="white">
<path d="M0 0H244V160H0V0Z"/>
</mask>
<path d="M0 0H244V160H0V0Z" fill="#1A1A1A"/>
<path d="M244 160V161H245V160H244ZM243 0V160H245V0H243ZM244 159H0V161H244V159Z" fill="#707070" mask="url(#path-1-inside-1_2165_29188)"/>
<path d="M30.7727 75.6136V74.3636H39.5V75.6136H35.8409V86H34.4318V75.6136H30.7727ZM41.3565 89.25C41.1293 89.25 40.9266 89.2311 40.7486 89.1932C40.5705 89.1591 40.4474 89.125 40.3793 89.0909L40.7202 87.9091C41.2088 88.0341 41.616 88.0303 41.9418 87.8977C42.2675 87.7689 42.5497 87.3788 42.7884 86.7273L43.0384 86.0455L39.8111 77.2727H41.2656L43.6747 84.2273H43.7656L46.1747 77.2727L47.6406 77.2955L43.9247 87.2727C43.758 87.7159 43.5516 88.0833 43.3054 88.375C43.0592 88.6705 42.7732 88.8902 42.4474 89.0341C42.1255 89.178 41.7618 89.25 41.3565 89.25ZM49.4148 89.2727V77.2727H50.7102V78.6591H50.8693C50.9678 78.5076 51.1042 78.3144 51.2784 78.0795C51.4564 77.8409 51.7102 77.6288 52.0398 77.4432C52.3731 77.2538 52.8239 77.1591 53.392 77.1591C54.1269 77.1591 54.7746 77.3428 55.3352 77.7102C55.8958 78.0777 56.3333 78.5985 56.6477 79.2727C56.9621 79.947 57.1193 80.7424 57.1193 81.6591C57.1193 82.5833 56.9621 83.3845 56.6477 84.0625C56.3333 84.7367 55.8977 85.2595 55.3409 85.6307C54.7841 85.9981 54.142 86.1818 53.4148 86.1818C52.8542 86.1818 52.4053 86.089 52.0682 85.9034C51.7311 85.714 51.4716 85.5 51.2898 85.2614C51.108 85.0189 50.9678 84.8182 50.8693 84.6591H50.7557V89.2727H49.4148ZM50.733 81.6364C50.733 82.2955 50.8295 82.8769 51.0227 83.3807C51.2159 83.8807 51.4981 84.2727 51.8693 84.5568C52.2405 84.8371 52.6951 84.9773 53.233 84.9773C53.7936 84.9773 54.2614 84.8295 54.6364 84.5341C55.0152 84.2348 55.2992 83.8333 55.4886 83.3295C55.6818 82.822 55.7784 82.2576 55.7784 81.6364C55.7784 81.0227 55.6837 80.4697 55.4943 79.9773C55.3087 79.4811 55.0265 79.089 54.6477 78.8011C54.2727 78.5095 53.8011 78.3636 53.233 78.3636C52.6875 78.3636 52.2292 78.5019 51.858 78.7784C51.4867 79.0511 51.2064 79.4337 51.017 79.9261C50.8277 80.4148 50.733 80.9848 50.733 81.6364ZM62.8239 86.1818C61.983 86.1818 61.2576 85.9962 60.6477 85.625C60.0417 85.25 59.5739 84.7273 59.2443 84.0568C58.9186 83.3826 58.7557 82.5985 58.7557 81.7045C58.7557 80.8106 58.9186 80.0227 59.2443 79.3409C59.5739 78.6553 60.0322 78.1212 60.6193 77.7386C61.2102 77.3523 61.8996 77.1591 62.6875 77.1591C63.142 77.1591 63.5909 77.2348 64.0341 77.3864C64.4773 77.5379 64.8807 77.7841 65.2443 78.125C65.608 78.4621 65.8977 78.9091 66.1136 79.4659C66.3295 80.0227 66.4375 80.7083 66.4375 81.5227V82.0909H59.7102V80.9318H65.0739C65.0739 80.4394 64.9754 80 64.7784 79.6136C64.5852 79.2273 64.3087 78.9223 63.9489 78.6989C63.5928 78.4754 63.1723 78.3636 62.6875 78.3636C62.1534 78.3636 61.6913 78.4962 61.3011 78.7614C60.9148 79.0227 60.6174 79.3636 60.4091 79.7841C60.2008 80.2045 60.0966 80.6553 60.0966 81.1364V81.9091C60.0966 82.5682 60.2102 83.1269 60.4375 83.5852C60.6686 84.0398 60.9886 84.3864 61.3977 84.625C61.8068 84.8598 62.2822 84.9773 62.8239 84.9773C63.1761 84.9773 63.4943 84.928 63.7784 84.8295C64.0663 84.7273 64.3144 84.5758 64.5227 84.375C64.7311 84.1705 64.892 83.9167 65.0057 83.6136L66.3011 83.9773C66.1648 84.4167 65.9356 84.803 65.6136 85.1364C65.2917 85.4659 64.8939 85.7235 64.4205 85.9091C63.947 86.0909 63.4148 86.1818 62.8239 86.1818ZM71.7727 86.1818C71.0455 86.1818 70.4034 85.9981 69.8466 85.6307C69.2898 85.2595 68.8542 84.7367 68.5398 84.0625C68.2254 83.3845 68.0682 82.5833 68.0682 81.6591C68.0682 80.7424 68.2254 79.947 68.5398 79.2727C68.8542 78.5985 69.2917 78.0777 69.8523 77.7102C70.4129 77.3428 71.0606 77.1591 71.7955 77.1591C72.3636 77.1591 72.8125 77.2538 73.142 77.4432C73.4754 77.6288 73.7292 77.8409 73.9034 78.0795C74.0814 78.3144 74.2197 78.5076 74.3182 78.6591H74.4318V74.3636H75.7727V86H74.4773V84.6591H74.3182C74.2197 84.8182 74.0795 85.0189 73.8977 85.2614C73.7159 85.5 73.4564 85.714 73.1193 85.9034C72.7822 86.089 72.3333 86.1818 71.7727 86.1818ZM71.9545 84.9773C72.4924 84.9773 72.947 84.8371 73.3182 84.5568C73.6894 84.2727 73.9716 83.8807 74.1648 83.3807C74.358 82.8769 74.4545 82.2955 74.4545 81.6364C74.4545 80.9848 74.3598 80.4148 74.1705 79.9261C73.9811 79.4337 73.7008 79.0511 73.3295 78.7784C72.9583 78.5019 72.5 78.3636 71.9545 78.3636C71.3864 78.3636 70.9129 78.5095 70.5341 78.8011C70.1591 79.089 69.8769 79.4811 69.6875 79.9773C69.5019 80.4697 69.4091 81.0227 69.4091 81.6364C69.4091 82.2576 69.5038 82.822 69.6932 83.3295C69.8864 83.8333 70.1705 84.2348 70.5455 84.5341C70.9242 84.8295 71.3939 84.9773 71.9545 84.9773ZM86.7102 77.2727V78.4091H82.1875V77.2727H86.7102ZM83.5057 75.1818H84.8466V83.5C84.8466 83.8788 84.9015 84.1629 85.0114 84.3523C85.125 84.5379 85.2689 84.6629 85.4432 84.7273C85.6212 84.7879 85.8087 84.8182 86.0057 84.8182C86.1534 84.8182 86.2746 84.8106 86.3693 84.7955C86.464 84.7765 86.5398 84.7614 86.5966 84.75L86.8693 85.9545C86.7784 85.9886 86.6515 86.0227 86.4886 86.0568C86.3258 86.0947 86.1193 86.1136 85.8693 86.1136C85.4905 86.1136 85.1193 86.0322 84.7557 85.8693C84.3958 85.7064 84.0966 85.4583 83.858 85.125C83.6231 84.7917 83.5057 84.3712 83.5057 83.8636V75.1818ZM92.2926 86.1818C91.4517 86.1818 90.7263 85.9962 90.1165 85.625C89.5104 85.25 89.0426 84.7273 88.7131 84.0568C88.3873 83.3826 88.2244 82.5985 88.2244 81.7045C88.2244 80.8106 88.3873 80.0227 88.7131 79.3409C89.0426 78.6553 89.5009 78.1212 90.0881 77.7386C90.679 77.3523 91.3684 77.1591 92.1562 77.1591C92.6108 77.1591 93.0597 77.2348 93.5028 77.3864C93.946 77.5379 94.3494 77.7841 94.7131 78.125C95.0767 78.4621 95.3665 78.9091 95.5824 79.4659C95.7983 80.0227 95.9062 80.7083 95.9062 81.5227V82.0909H89.179V80.9318H94.5426C94.5426 80.4394 94.4441 80 94.2472 79.6136C94.054 79.2273 93.7775 78.9223 93.4176 78.6989C93.0616 78.4754 92.6411 78.3636 92.1562 78.3636C91.6222 78.3636 91.16 78.4962 90.7699 78.7614C90.3835 79.0227 90.0862 79.3636 89.8778 79.7841C89.6695 80.2045 89.5653 80.6553 89.5653 81.1364V81.9091C89.5653 82.5682 89.679 83.1269 89.9062 83.5852C90.1373 84.0398 90.4574 84.3864 90.8665 84.625C91.2756 84.8598 91.7509 84.9773 92.2926 84.9773C92.6449 84.9773 92.9631 84.928 93.2472 84.8295C93.535 84.7273 93.7831 84.5758 93.9915 84.375C94.1998 84.1705 94.3608 83.9167 94.4744 83.6136L95.7699 83.9773C95.6335 84.4167 95.4044 84.803 95.0824 85.1364C94.7604 85.4659 94.3627 85.7235 93.8892 85.9091C93.4157 86.0909 92.8835 86.1818 92.2926 86.1818ZM98.7116 77.2727L100.803 80.8409L102.893 77.2727H104.439L101.621 81.6364L104.439 86H102.893L100.803 82.6136L98.7116 86H97.1662L99.9389 81.6364L97.1662 77.2727H98.7116ZM110.148 77.2727V78.4091H105.625V77.2727H110.148ZM106.943 75.1818H108.284V83.5C108.284 83.8788 108.339 84.1629 108.449 84.3523C108.563 84.5379 108.706 84.6629 108.881 84.7273C109.059 84.7879 109.246 84.8182 109.443 84.8182C109.591 84.8182 109.712 84.8106 109.807 84.7955C109.902 84.7765 109.977 84.7614 110.034 84.75L110.307 85.9545C110.216 85.9886 110.089 86.0227 109.926 86.0568C109.763 86.0947 109.557 86.1136 109.307 86.1136C108.928 86.1136 108.557 86.0322 108.193 85.8693C107.833 85.7064 107.534 85.4583 107.295 85.125C107.061 84.7917 106.943 84.3712 106.943 83.8636V75.1818Z" fill="white" fill-opacity="0.95"/>
</svg>
