<svg width="244" height="232" viewBox="0 0 244 232" fill="none" xmlns="http://www.w3.org/2000/svg">
<mask id="path-1-inside-1_2165_29188" fill="white">
<path d="M0 0H244V232H0V0Z"/>
</mask>
<path d="M0 0H244V232H0V0Z" fill="#1A1A1A"/>
<path d="M244 232V233H245V232H244ZM243 0V232H245V0H243ZM244 231H0V233H244V231Z" fill="#707070" mask="url(#path-1-inside-1_2165_29188)"/>
<path d="M30.7727 111.614V110.364H39.5V111.614H35.8409V122H34.4318V111.614H30.7727ZM41.3565 125.25C41.1293 125.25 40.9266 125.231 40.7486 125.193C40.5705 125.159 40.4474 125.125 40.3793 125.091L40.7202 123.909C41.2088 124.034 41.616 124.03 41.9418 123.898C42.2675 123.769 42.5497 123.379 42.7884 122.727L43.0384 122.045L39.8111 113.273H41.2656L43.6747 120.227H43.7656L46.1747 113.273L47.6406 113.295L43.9247 123.273C43.758 123.716 43.5516 124.083 43.3054 124.375C43.0592 124.67 42.7732 124.89 42.4474 125.034C42.1255 125.178 41.7618 125.25 41.3565 125.25ZM49.4148 125.273V113.273H50.7102V114.659H50.8693C50.9678 114.508 51.1042 114.314 51.2784 114.08C51.4564 113.841 51.7102 113.629 52.0398 113.443C52.3731 113.254 52.8239 113.159 53.392 113.159C54.1269 113.159 54.7746 113.343 55.3352 113.71C55.8958 114.078 56.3333 114.598 56.6477 115.273C56.9621 115.947 57.1193 116.742 57.1193 117.659C57.1193 118.583 56.9621 119.384 56.6477 120.062C56.3333 120.737 55.8977 121.259 55.3409 121.631C54.7841 121.998 54.142 122.182 53.4148 122.182C52.8542 122.182 52.4053 122.089 52.0682 121.903C51.7311 121.714 51.4716 121.5 51.2898 121.261C51.108 121.019 50.9678 120.818 50.8693 120.659H50.7557V125.273H49.4148ZM50.733 117.636C50.733 118.295 50.8295 118.877 51.0227 119.381C51.2159 119.881 51.4981 120.273 51.8693 120.557C52.2405 120.837 52.6951 120.977 53.233 120.977C53.7936 120.977 54.2614 120.83 54.6364 120.534C55.0152 120.235 55.2992 119.833 55.4886 119.33C55.6818 118.822 55.7784 118.258 55.7784 117.636C55.7784 117.023 55.6837 116.47 55.4943 115.977C55.3087 115.481 55.0265 115.089 54.6477 114.801C54.2727 114.509 53.8011 114.364 53.233 114.364C52.6875 114.364 52.2292 114.502 51.858 114.778C51.4867 115.051 51.2064 115.434 51.017 115.926C50.8277 116.415 50.733 116.985 50.733 117.636ZM62.8239 122.182C61.983 122.182 61.2576 121.996 60.6477 121.625C60.0417 121.25 59.5739 120.727 59.2443 120.057C58.9186 119.383 58.7557 118.598 58.7557 117.705C58.7557 116.811 58.9186 116.023 59.2443 115.341C59.5739 114.655 60.0322 114.121 60.6193 113.739C61.2102 113.352 61.8996 113.159 62.6875 113.159C63.142 113.159 63.5909 113.235 64.0341 113.386C64.4773 113.538 64.8807 113.784 65.2443 114.125C65.608 114.462 65.8977 114.909 66.1136 115.466C66.3295 116.023 66.4375 116.708 66.4375 117.523V118.091H59.7102V116.932H65.0739C65.0739 116.439 64.9754 116 64.7784 115.614C64.5852 115.227 64.3087 114.922 63.9489 114.699C63.5928 114.475 63.1723 114.364 62.6875 114.364C62.1534 114.364 61.6913 114.496 61.3011 114.761C60.9148 115.023 60.6174 115.364 60.4091 115.784C60.2008 116.205 60.0966 116.655 60.0966 117.136V117.909C60.0966 118.568 60.2102 119.127 60.4375 119.585C60.6686 120.04 60.9886 120.386 61.3977 120.625C61.8068 120.86 62.2822 120.977 62.8239 120.977C63.1761 120.977 63.4943 120.928 63.7784 120.83C64.0663 120.727 64.3144 120.576 64.5227 120.375C64.7311 120.17 64.892 119.917 65.0057 119.614L66.3011 119.977C66.1648 120.417 65.9356 120.803 65.6136 121.136C65.2917 121.466 64.8939 121.723 64.4205 121.909C63.947 122.091 63.4148 122.182 62.8239 122.182ZM71.7727 122.182C71.0455 122.182 70.4034 121.998 69.8466 121.631C69.2898 121.259 68.8542 120.737 68.5398 120.062C68.2254 119.384 68.0682 118.583 68.0682 117.659C68.0682 116.742 68.2254 115.947 68.5398 115.273C68.8542 114.598 69.2917 114.078 69.8523 113.71C70.4129 113.343 71.0606 113.159 71.7955 113.159C72.3636 113.159 72.8125 113.254 73.142 113.443C73.4754 113.629 73.7292 113.841 73.9034 114.08C74.0814 114.314 74.2197 114.508 74.3182 114.659H74.4318V110.364H75.7727V122H74.4773V120.659H74.3182C74.2197 120.818 74.0795 121.019 73.8977 121.261C73.7159 121.5 73.4564 121.714 73.1193 121.903C72.7822 122.089 72.3333 122.182 71.7727 122.182ZM71.9545 120.977C72.4924 120.977 72.947 120.837 73.3182 120.557C73.6894 120.273 73.9716 119.881 74.1648 119.381C74.358 118.877 74.4545 118.295 74.4545 117.636C74.4545 116.985 74.3598 116.415 74.1705 115.926C73.9811 115.434 73.7008 115.051 73.3295 114.778C72.9583 114.502 72.5 114.364 71.9545 114.364C71.3864 114.364 70.9129 114.509 70.5341 114.801C70.1591 115.089 69.8769 115.481 69.6875 115.977C69.5019 116.47 69.4091 117.023 69.4091 117.636C69.4091 118.258 69.5038 118.822 69.6932 119.33C69.8864 119.833 70.1705 120.235 70.5455 120.534C70.9242 120.83 71.3939 120.977 71.9545 120.977ZM86.7102 113.273V114.409H82.1875V113.273H86.7102ZM83.5057 111.182H84.8466V119.5C84.8466 119.879 84.9015 120.163 85.0114 120.352C85.125 120.538 85.2689 120.663 85.4432 120.727C85.6212 120.788 85.8087 120.818 86.0057 120.818C86.1534 120.818 86.2746 120.811 86.3693 120.795C86.464 120.777 86.5398 120.761 86.5966 120.75L86.8693 121.955C86.7784 121.989 86.6515 122.023 86.4886 122.057C86.3258 122.095 86.1193 122.114 85.8693 122.114C85.4905 122.114 85.1193 122.032 84.7557 121.869C84.3958 121.706 84.0966 121.458 83.858 121.125C83.6231 120.792 83.5057 120.371 83.5057 119.864V111.182ZM92.2926 122.182C91.4517 122.182 90.7263 121.996 90.1165 121.625C89.5104 121.25 89.0426 120.727 88.7131 120.057C88.3873 119.383 88.2244 118.598 88.2244 117.705C88.2244 116.811 88.3873 116.023 88.7131 115.341C89.0426 114.655 89.5009 114.121 90.0881 113.739C90.679 113.352 91.3684 113.159 92.1562 113.159C92.6108 113.159 93.0597 113.235 93.5028 113.386C93.946 113.538 94.3494 113.784 94.7131 114.125C95.0767 114.462 95.3665 114.909 95.5824 115.466C95.7983 116.023 95.9062 116.708 95.9062 117.523V118.091H89.179V116.932H94.5426C94.5426 116.439 94.4441 116 94.2472 115.614C94.054 115.227 93.7775 114.922 93.4176 114.699C93.0616 114.475 92.6411 114.364 92.1562 114.364C91.6222 114.364 91.16 114.496 90.7699 114.761C90.3835 115.023 90.0862 115.364 89.8778 115.784C89.6695 116.205 89.5653 116.655 89.5653 117.136V117.909C89.5653 118.568 89.679 119.127 89.9062 119.585C90.1373 120.04 90.4574 120.386 90.8665 120.625C91.2756 120.86 91.7509 120.977 92.2926 120.977C92.6449 120.977 92.9631 120.928 93.2472 120.83C93.535 120.727 93.7831 120.576 93.9915 120.375C94.1998 120.17 94.3608 119.917 94.4744 119.614L95.7699 119.977C95.6335 120.417 95.4044 120.803 95.0824 121.136C94.7604 121.466 94.3627 121.723 93.8892 121.909C93.4157 122.091 92.8835 122.182 92.2926 122.182ZM98.7116 113.273L100.803 116.841L102.893 113.273H104.439L101.621 117.636L104.439 122H102.893L100.803 118.614L98.7116 122H97.1662L99.9389 117.636L97.1662 113.273H98.7116ZM110.148 113.273V114.409H105.625V113.273H110.148ZM106.943 111.182H108.284V119.5C108.284 119.879 108.339 120.163 108.449 120.352C108.563 120.538 108.706 120.663 108.881 120.727C109.059 120.788 109.246 120.818 109.443 120.818C109.591 120.818 109.712 120.811 109.807 120.795C109.902 120.777 109.977 120.761 110.034 120.75L110.307 121.955C110.216 121.989 110.089 122.023 109.926 122.057C109.763 122.095 109.557 122.114 109.307 122.114C108.928 122.114 108.557 122.032 108.193 121.869C107.833 121.706 107.534 121.458 107.295 121.125C107.061 120.792 106.943 120.371 106.943 119.864V111.182Z" fill="white" fill-opacity="0.95"/>
</svg>
