<svg width="1150" height="160" viewBox="0 0 1150 160" fill="none" xmlns="http://www.w3.org/2000/svg">
<mask id="path-1-inside-1_2165_29219" fill="white">
<path d="M0 0H300V160H0V0Z"/>
</mask>
<path d="M0 0H300V160H0V0Z" fill="#1A1A1A"/>
<path d="M300 160V161H301V160H300ZM299 0V160H301V0H299ZM300 159H0V161H300V159Z" fill="white" fill-opacity="0.2" mask="url(#path-1-inside-1_2165_29219)"/>
<g clip-path="url(#clip0_2165_29219)">
<path d="M31.233 65V54.8182H32.4659V63.9062H37.1989V65H31.233ZM41.196 65.179C40.7121 65.179 40.273 65.0878 39.8786 64.9055C39.4841 64.7199 39.1709 64.4531 38.9389 64.1051C38.7069 63.7538 38.5909 63.3295 38.5909 62.8324C38.5909 62.3949 38.6771 62.0402 38.8494 61.7685C39.0218 61.4934 39.2521 61.2779 39.5405 61.1222C39.8288 60.9664 40.147 60.8504 40.495 60.7741C40.8464 60.6946 41.1993 60.6316 41.554 60.5852C42.018 60.5256 42.3942 60.4808 42.6825 60.451C42.9742 60.4179 43.1863 60.3632 43.3189 60.2869C43.4548 60.2107 43.5227 60.0781 43.5227 59.8892V59.8494C43.5227 59.3589 43.3885 58.9777 43.12 58.706C42.8549 58.4342 42.4522 58.2983 41.9119 58.2983C41.3518 58.2983 40.9126 58.4209 40.5945 58.6662C40.2763 58.9115 40.0526 59.1733 39.9233 59.4517L38.8097 59.054C39.0085 58.59 39.2737 58.2287 39.6051 57.9702C39.9399 57.7083 40.3045 57.526 40.6989 57.4233C41.0966 57.3172 41.4877 57.2642 41.8722 57.2642C42.1174 57.2642 42.3991 57.294 42.7173 57.3537C43.0388 57.41 43.3487 57.5277 43.647 57.7067C43.9486 57.8857 44.1989 58.1558 44.3977 58.517C44.5966 58.8783 44.696 59.3622 44.696 59.9688V65H43.5227V63.9659H43.4631C43.3835 64.1316 43.2509 64.3089 43.0653 64.4979C42.8797 64.6868 42.6328 64.8475 42.3246 64.9801C42.0163 65.1127 41.6402 65.179 41.196 65.179ZM41.375 64.125C41.839 64.125 42.2301 64.0339 42.5483 63.8516C42.8698 63.6693 43.1117 63.4339 43.2741 63.1456C43.4399 62.8572 43.5227 62.554 43.5227 62.2358V61.1619C43.473 61.2216 43.3636 61.2763 43.1946 61.326C43.0289 61.3724 42.8366 61.4138 42.6179 61.4503C42.4025 61.4834 42.192 61.5133 41.9865 61.5398C41.7843 61.563 41.6203 61.5829 41.4943 61.5994C41.1894 61.6392 40.9044 61.7038 40.6392 61.7933C40.3774 61.8795 40.1652 62.0104 40.0028 62.1861C39.8438 62.3584 39.7642 62.5937 39.7642 62.892C39.7642 63.2997 39.915 63.608 40.2166 63.8168C40.5215 64.0223 40.9077 64.125 41.375 64.125ZM46.9966 65V54.8182H48.1699V58.5767H48.2694C48.3555 58.4441 48.4748 58.2751 48.6273 58.0696C48.7831 57.8608 49.0051 57.6752 49.2935 57.5128C49.5852 57.3471 49.9796 57.2642 50.4767 57.2642C51.1197 57.2642 51.6865 57.425 52.177 57.7464C52.6676 58.0679 53.0504 58.5237 53.3255 59.1136C53.6006 59.7036 53.7381 60.3996 53.7381 61.2017C53.7381 62.0104 53.6006 62.7114 53.3255 63.3047C53.0504 63.8946 52.6692 64.352 52.182 64.6768C51.6948 64.9983 51.133 65.1591 50.4966 65.1591C50.0061 65.1591 49.6133 65.0779 49.3184 64.9155C49.0234 64.7498 48.7963 64.5625 48.6373 64.3537C48.4782 64.1416 48.3555 63.9659 48.2694 63.8267H48.1301V65H46.9966ZM48.15 61.1818C48.15 61.7585 48.2346 62.2673 48.4036 62.7081C48.5726 63.1456 48.8195 63.4886 49.1444 63.7372C49.4692 63.9825 49.8669 64.1051 50.3375 64.1051C50.8281 64.1051 51.2374 63.9759 51.5655 63.7173C51.897 63.4555 52.1455 63.1042 52.3113 62.6634C52.4803 62.2192 52.5648 61.7254 52.5648 61.1818C52.5648 60.6449 52.4819 60.161 52.3162 59.7301C52.1538 59.2959 51.9069 58.9529 51.5755 58.701C51.2473 58.4458 50.8347 58.3182 50.3375 58.3182C49.8603 58.3182 49.4592 58.4392 49.1344 58.6811C48.8096 58.9197 48.5643 59.2545 48.3986 59.6854C48.2329 60.1129 48.15 60.6117 48.15 61.1818ZM58.7346 65.1591C57.9988 65.1591 57.3641 64.9967 56.8304 64.6719C56.3001 64.3438 55.8908 63.8864 55.6025 63.2997C55.3174 62.7098 55.1749 62.0237 55.1749 61.2415C55.1749 60.4593 55.3174 59.7699 55.6025 59.1733C55.8908 58.5734 56.2918 58.1061 56.8056 57.7713C57.3226 57.4332 57.9258 57.2642 58.6152 57.2642C59.013 57.2642 59.4057 57.3305 59.7935 57.4631C60.1813 57.5956 60.5343 57.8111 60.8525 58.1094C61.1706 58.4044 61.4242 58.7955 61.6131 59.2827C61.802 59.7699 61.8965 60.3698 61.8965 61.0824V61.5795H56.0101V60.5653H60.7033C60.7033 60.1345 60.6171 59.75 60.4448 59.4119C60.2757 59.0739 60.0338 58.8071 59.7189 58.6115C59.4074 58.416 59.0395 58.3182 58.6152 58.3182C58.1479 58.3182 57.7435 58.4342 57.4022 58.6662C57.0641 58.8949 56.8039 59.1932 56.6216 59.5611C56.4393 59.929 56.3482 60.3234 56.3482 60.7443V61.4205C56.3482 61.9972 56.4476 62.486 56.6465 62.8871C56.8487 63.2848 57.1287 63.5881 57.4867 63.7969C57.8446 64.0024 58.2606 64.1051 58.7346 64.1051C59.0428 64.1051 59.3212 64.062 59.5698 63.9759C59.8217 63.8864 60.0388 63.7538 60.2211 63.5781C60.4034 63.3991 60.5442 63.1771 60.6436 62.9119L61.7772 63.2301C61.6578 63.6146 61.4573 63.9527 61.1756 64.2443C60.8939 64.5327 60.5459 64.758 60.1316 64.9205C59.7173 65.0795 59.2516 65.1591 58.7346 65.1591ZM64.8546 54.8182V65H63.6813V54.8182H64.8546Z" fill="white" fill-opacity="0.95"/>
<rect x="30" y="78" width="400" height="32" rx="8" fill="white" fill-opacity="0.07"/>
<rect x="30.5" y="78.5" width="399" height="31" rx="7.5" stroke="white" stroke-opacity="0.5"/>
</g>
<mask id="path-6-inside-2_2165_29219" fill="white">
<path d="M300 0H500V160H300V0Z"/>
</mask>
<path d="M300 0H500V160H300V0Z" fill="#1A1A1A"/>
<path d="M500 160V161H501V160H500ZM499 0V160H501V0H499ZM500 159H300V161H500V159Z" fill="#707070" mask="url(#path-6-inside-2_2165_29219)"/>
<path d="M330.773 75.6136V74.3636H339.5V75.6136H335.841V86H334.432V75.6136H330.773ZM343.886 86.1818C343.045 86.1818 342.32 85.9962 341.71 85.625C341.104 85.25 340.636 84.7273 340.307 84.0568C339.981 83.3826 339.818 82.5985 339.818 81.7045C339.818 80.8106 339.981 80.0227 340.307 79.3409C340.636 78.6553 341.095 78.1212 341.682 77.7386C342.273 77.3523 342.962 77.1591 343.75 77.1591C344.205 77.1591 344.653 77.2348 345.097 77.3864C345.54 77.5379 345.943 77.7841 346.307 78.125C346.67 78.4621 346.96 78.9091 347.176 79.4659C347.392 80.0227 347.5 80.7083 347.5 81.5227V82.0909H340.773V80.9318H346.136C346.136 80.4394 346.038 80 345.841 79.6136C345.648 79.2273 345.371 78.9223 345.011 78.6989C344.655 78.4754 344.235 78.3636 343.75 78.3636C343.216 78.3636 342.754 78.4962 342.364 78.7614C341.977 79.0227 341.68 79.3636 341.472 79.7841C341.263 80.2045 341.159 80.6553 341.159 81.1364V81.9091C341.159 82.5682 341.273 83.1269 341.5 83.5852C341.731 84.0398 342.051 84.3864 342.46 84.625C342.869 84.8598 343.345 84.9773 343.886 84.9773C344.239 84.9773 344.557 84.928 344.841 84.8295C345.129 84.7273 345.377 84.5758 345.585 84.375C345.794 84.1705 345.955 83.9167 346.068 83.6136L347.364 83.9773C347.227 84.4167 346.998 84.803 346.676 85.1364C346.354 85.4659 345.956 85.7235 345.483 85.9091C345.009 86.0909 344.477 86.1818 343.886 86.1818ZM350.305 77.2727L352.396 80.8409L354.487 77.2727H356.033L353.214 81.6364L356.033 86H354.487L352.396 82.6136L350.305 86H348.76L351.533 81.6364L348.76 77.2727H350.305ZM361.741 77.2727V78.4091H357.219V77.2727H361.741ZM358.537 75.1818H359.878V83.5C359.878 83.8788 359.933 84.1629 360.043 84.3523C360.156 84.5379 360.3 84.6629 360.474 84.7273C360.652 84.7879 360.84 84.8182 361.037 84.8182C361.185 84.8182 361.306 84.8106 361.401 84.7955C361.495 84.7765 361.571 84.7614 361.628 84.75L361.901 85.9545C361.81 85.9886 361.683 86.0227 361.52 86.0568C361.357 86.0947 361.151 86.1136 360.901 86.1136C360.522 86.1136 360.151 86.0322 359.787 85.8693C359.427 85.7064 359.128 85.4583 358.889 85.125C358.654 84.7917 358.537 84.3712 358.537 83.8636V75.1818ZM372.145 77.2727V78.4091H367.44V77.2727H372.145ZM368.849 86V76.0682C368.849 75.5682 368.967 75.1515 369.202 74.8182C369.437 74.4848 369.741 74.2348 370.116 74.0682C370.491 73.9015 370.887 73.8182 371.304 73.8182C371.634 73.8182 371.902 73.8447 372.111 73.8977C372.319 73.9508 372.474 74 372.577 74.0455L372.19 75.2045C372.122 75.1818 372.027 75.1534 371.906 75.1193C371.789 75.0852 371.634 75.0682 371.44 75.0682C370.997 75.0682 370.677 75.1799 370.48 75.4034C370.287 75.6269 370.19 75.9545 370.19 76.3864V86H368.849ZM374.024 86V77.2727H375.365V86H374.024ZM374.706 75.8182C374.445 75.8182 374.219 75.7292 374.03 75.5511C373.844 75.3731 373.751 75.1591 373.751 74.9091C373.751 74.6591 373.844 74.4451 374.03 74.267C374.219 74.089 374.445 74 374.706 74C374.967 74 375.191 74.089 375.376 74.267C375.566 74.4451 375.661 74.6591 375.661 74.9091C375.661 75.1591 375.566 75.3731 375.376 75.5511C375.191 75.7292 374.967 75.8182 374.706 75.8182ZM381.48 86.1818C380.639 86.1818 379.914 85.9962 379.304 85.625C378.698 85.25 378.23 84.7273 377.901 84.0568C377.575 83.3826 377.412 82.5985 377.412 81.7045C377.412 80.8106 377.575 80.0227 377.901 79.3409C378.23 78.6553 378.688 78.1212 379.276 77.7386C379.866 77.3523 380.556 77.1591 381.344 77.1591C381.798 77.1591 382.247 77.2348 382.69 77.3864C383.134 77.5379 383.537 77.7841 383.901 78.125C384.264 78.4621 384.554 78.9091 384.77 79.4659C384.986 80.0227 385.094 80.7083 385.094 81.5227V82.0909H378.366V80.9318H383.73C383.73 80.4394 383.632 80 383.435 79.6136C383.241 79.2273 382.965 78.9223 382.605 78.6989C382.249 78.4754 381.829 78.3636 381.344 78.3636C380.81 78.3636 380.348 78.4962 379.957 78.7614C379.571 79.0227 379.274 79.3636 379.065 79.7841C378.857 80.2045 378.753 80.6553 378.753 81.1364V81.9091C378.753 82.5682 378.866 83.1269 379.094 83.5852C379.325 84.0398 379.645 84.3864 380.054 84.625C380.463 84.8598 380.938 84.9773 381.48 84.9773C381.832 84.9773 382.151 84.928 382.435 84.8295C382.723 84.7273 382.971 84.5758 383.179 84.375C383.387 84.1705 383.548 83.9167 383.662 83.6136L384.957 83.9773C384.821 84.4167 384.592 84.803 384.27 85.1364C383.948 85.4659 383.55 85.7235 383.077 85.9091C382.603 86.0909 382.071 86.1818 381.48 86.1818ZM388.474 74.3636V86H387.134V74.3636H388.474ZM394.226 86.1818C393.499 86.1818 392.857 85.9981 392.3 85.6307C391.743 85.2595 391.307 84.7367 390.993 84.0625C390.679 83.3845 390.521 82.5833 390.521 81.6591C390.521 80.7424 390.679 79.947 390.993 79.2727C391.307 78.5985 391.745 78.0777 392.305 77.7102C392.866 77.3428 393.514 77.1591 394.249 77.1591C394.817 77.1591 395.266 77.2538 395.595 77.4432C395.929 77.6288 396.182 77.8409 396.357 78.0795C396.535 78.3144 396.673 78.5076 396.771 78.6591H396.885V74.3636H398.226V86H396.93V84.6591H396.771C396.673 84.8182 396.533 85.0189 396.351 85.2614C396.169 85.5 395.91 85.714 395.572 85.9034C395.235 86.089 394.786 86.1818 394.226 86.1818ZM394.408 84.9773C394.946 84.9773 395.4 84.8371 395.771 84.5568C396.143 84.2727 396.425 83.8807 396.618 83.3807C396.811 82.8769 396.908 82.2955 396.908 81.6364C396.908 80.9848 396.813 80.4148 396.624 79.9261C396.434 79.4337 396.154 79.0511 395.783 78.7784C395.411 78.5019 394.953 78.3636 394.408 78.3636C393.839 78.3636 393.366 78.5095 392.987 78.8011C392.612 79.089 392.33 79.4811 392.141 79.9773C391.955 80.4697 391.862 81.0227 391.862 81.6364C391.862 82.2576 391.957 82.822 392.146 83.3295C392.339 83.8333 392.624 84.2348 392.999 84.5341C393.377 84.8295 393.847 84.9773 394.408 84.9773Z" fill="white" fill-opacity="0.95"/>
<mask id="path-9-inside-3_2165_29219" fill="white">
<path d="M500 0H700V160H500V0Z"/>
</mask>
<path d="M500 0H700V160H500V0Z" fill="#1A1A1A"/>
<path d="M700 160V161H701V160H700ZM699 0V160H701V0H699ZM700 159H500V161H700V159Z" fill="#707070" mask="url(#path-9-inside-3_2165_29219)"/>
<path d="M531.409 86V74.3636H532.818V79.5455H539.023V74.3636H540.432V86H539.023V80.7955H532.818V86H531.409ZM546.616 86.1818C545.829 86.1818 545.137 85.9943 544.543 85.6193C543.952 85.2443 543.49 84.7197 543.156 84.0455C542.827 83.3712 542.662 82.5833 542.662 81.6818C542.662 80.7727 542.827 79.9792 543.156 79.3011C543.49 78.6231 543.952 78.0966 544.543 77.7216C545.137 77.3466 545.829 77.1591 546.616 77.1591C547.404 77.1591 548.094 77.3466 548.685 77.7216C549.279 78.0966 549.741 78.6231 550.071 79.3011C550.404 79.9792 550.571 80.7727 550.571 81.6818C550.571 82.5833 550.404 83.3712 550.071 84.0455C549.741 84.7197 549.279 85.2443 548.685 85.6193C548.094 85.9943 547.404 86.1818 546.616 86.1818ZM546.616 84.9773C547.215 84.9773 547.707 84.8239 548.094 84.517C548.48 84.2102 548.766 83.8068 548.952 83.3068C549.137 82.8068 549.23 82.2652 549.23 81.6818C549.23 81.0985 549.137 80.5549 548.952 80.0511C548.766 79.5473 548.48 79.1402 548.094 78.8295C547.707 78.5189 547.215 78.3636 546.616 78.3636C546.018 78.3636 545.526 78.5189 545.139 78.8295C544.753 79.1402 544.467 79.5473 544.281 80.0511C544.096 80.5549 544.003 81.0985 544.003 81.6818C544.003 82.2652 544.096 82.8068 544.281 83.3068C544.467 83.8068 544.753 84.2102 545.139 84.517C545.526 84.8239 546.018 84.9773 546.616 84.9773ZM559.442 77.2727L556.214 86H554.851L551.624 77.2727H553.078L555.487 84.2273H555.578L557.987 77.2727H559.442ZM564.558 86.1818C563.717 86.1818 562.992 85.9962 562.382 85.625C561.776 85.25 561.308 84.7273 560.979 84.0568C560.653 83.3826 560.49 82.5985 560.49 81.7045C560.49 80.8106 560.653 80.0227 560.979 79.3409C561.308 78.6553 561.767 78.1212 562.354 77.7386C562.945 77.3523 563.634 77.1591 564.422 77.1591C564.876 77.1591 565.325 77.2348 565.768 77.3864C566.212 77.5379 566.615 77.7841 566.979 78.125C567.342 78.4621 567.632 78.9091 567.848 79.4659C568.064 80.0227 568.172 80.7083 568.172 81.5227V82.0909H561.445V80.9318H566.808C566.808 80.4394 566.71 80 566.513 79.6136C566.32 79.2273 566.043 78.9223 565.683 78.6989C565.327 78.4754 564.907 78.3636 564.422 78.3636C563.888 78.3636 563.426 78.4962 563.036 78.7614C562.649 79.0227 562.352 79.3636 562.143 79.7841C561.935 80.2045 561.831 80.6553 561.831 81.1364V81.9091C561.831 82.5682 561.945 83.1269 562.172 83.5852C562.403 84.0398 562.723 84.3864 563.132 84.625C563.541 84.8598 564.017 84.9773 564.558 84.9773C564.911 84.9773 565.229 84.928 565.513 84.8295C565.801 84.7273 566.049 84.5758 566.257 84.375C566.465 84.1705 566.626 83.9167 566.74 83.6136L568.036 83.9773C567.899 84.4167 567.67 84.803 567.348 85.1364C567.026 85.4659 566.628 85.7235 566.155 85.9091C565.681 86.0909 565.149 86.1818 564.558 86.1818ZM570.212 86V77.2727H571.507V78.5909H571.598C571.757 78.1591 572.045 77.8087 572.462 77.5398C572.878 77.2708 573.348 77.1364 573.871 77.1364C573.969 77.1364 574.092 77.1383 574.24 77.142C574.388 77.1458 574.5 77.1515 574.575 77.1591V78.5227C574.53 78.5114 574.426 78.4943 574.263 78.4716C574.104 78.4451 573.935 78.4318 573.757 78.4318C573.333 78.4318 572.954 78.5208 572.621 78.6989C572.291 78.8731 572.03 79.1155 571.837 79.4261C571.647 79.733 571.553 80.0833 571.553 80.4773V86H570.212Z" fill="white" fill-opacity="0.95"/>
<mask id="path-12-inside-4_2165_29219" fill="white">
<path d="M700 0H900V160H700V0Z"/>
</mask>
<path d="M700 0H900V160H700V0Z" fill="#1A1A1A"/>
<path d="M900 160V161H901V160H900ZM899 0V160H901V0H899ZM900 159H700V161H900V159Z" fill="#707070" mask="url(#path-12-inside-4_2165_29219)"/>
<path d="M731.409 86V74.3636H732.818V79.5455H739.023V74.3636H740.432V86H739.023V80.7955H732.818V86H731.409ZM746.98 86.1591C746.23 86.1591 745.562 86.0303 744.974 85.7727C744.391 85.5152 743.927 85.1572 743.582 84.6989C743.241 84.2367 743.056 83.7008 743.026 83.0909H744.457C744.488 83.4659 744.616 83.7898 744.844 84.0625C745.071 84.3314 745.368 84.5398 745.736 84.6875C746.103 84.8352 746.51 84.9091 746.957 84.9091C747.457 84.9091 747.901 84.822 748.287 84.6477C748.673 84.4735 748.976 84.2311 749.196 83.9205C749.416 83.6098 749.526 83.25 749.526 82.8409C749.526 82.4129 749.42 82.036 749.207 81.7102C748.995 81.3807 748.685 81.1231 748.276 80.9375C747.866 80.7519 747.366 80.6591 746.776 80.6591H745.844V79.4091H746.776C747.238 79.4091 747.643 79.3258 747.991 79.1591C748.344 78.9924 748.618 78.7576 748.815 78.4545C749.016 78.1515 749.116 77.7955 749.116 77.3864C749.116 76.9924 749.029 76.6496 748.855 76.358C748.681 76.0663 748.435 75.839 748.116 75.6761C747.802 75.5133 747.431 75.4318 747.003 75.4318C746.601 75.4318 746.223 75.5057 745.866 75.6534C745.514 75.7973 745.226 76.0076 745.003 76.2841C744.779 76.5568 744.658 76.8864 744.639 77.2727H743.276C743.298 76.6629 743.482 76.1288 743.827 75.6705C744.171 75.2083 744.622 74.8485 745.179 74.5909C745.74 74.3333 746.355 74.2045 747.026 74.2045C747.745 74.2045 748.363 74.3504 748.878 74.642C749.393 74.9299 749.789 75.3106 750.065 75.7841C750.342 76.2576 750.48 76.7689 750.48 77.3182C750.48 77.9735 750.308 78.5322 749.963 78.9943C749.622 79.4564 749.158 79.7765 748.571 79.9545V80.0455C749.306 80.1667 749.88 80.4792 750.293 80.983C750.705 81.483 750.912 82.1023 750.912 82.8409C750.912 83.4735 750.74 84.0417 750.395 84.5455C750.054 85.0455 749.588 85.4394 748.997 85.7273C748.406 86.0152 747.734 86.1591 746.98 86.1591ZM753.236 86V84.9773L757.077 80.7727C757.527 80.2803 757.899 79.8523 758.19 79.4886C758.482 79.1212 758.698 78.7765 758.838 78.4545C758.982 78.1288 759.054 77.7879 759.054 77.4318C759.054 77.0227 758.955 76.6686 758.759 76.3693C758.565 76.0701 758.3 75.839 757.963 75.6761C757.626 75.5133 757.247 75.4318 756.827 75.4318C756.38 75.4318 755.99 75.5246 755.656 75.7102C755.327 75.892 755.071 76.1477 754.889 76.4773C754.711 76.8068 754.622 77.1932 754.622 77.6364H753.281C753.281 76.9545 753.438 76.3561 753.753 75.8409C754.067 75.3258 754.495 74.9242 755.037 74.6364C755.582 74.3485 756.194 74.2045 756.872 74.2045C757.554 74.2045 758.158 74.3485 758.685 74.6364C759.211 74.9242 759.624 75.3125 759.923 75.8011C760.223 76.2898 760.372 76.8333 760.372 77.4318C760.372 77.8598 760.295 78.2784 760.139 78.6875C759.988 79.0928 759.723 79.5455 759.344 80.0455C758.969 80.5417 758.448 81.1477 757.781 81.8636L755.168 84.6591V84.75H760.577V86H753.236ZM762.946 89.2727V77.2727H764.241V78.6591H764.401C764.499 78.5076 764.635 78.3144 764.81 78.0795C764.988 77.8409 765.241 77.6288 765.571 77.4432C765.904 77.2538 766.355 77.1591 766.923 77.1591C767.658 77.1591 768.306 77.3428 768.866 77.7102C769.427 78.0777 769.865 78.5985 770.179 79.2727C770.493 79.947 770.651 80.7424 770.651 81.6591C770.651 82.5833 770.493 83.3845 770.179 84.0625C769.865 84.7367 769.429 85.2595 768.872 85.6307C768.315 85.9981 767.673 86.1818 766.946 86.1818C766.385 86.1818 765.937 86.089 765.599 85.9034C765.262 85.714 765.003 85.5 764.821 85.2614C764.639 85.0189 764.499 84.8182 764.401 84.6591H764.287V89.2727H762.946ZM764.264 81.6364C764.264 82.2955 764.361 82.8769 764.554 83.3807C764.747 83.8807 765.029 84.2727 765.401 84.5568C765.772 84.8371 766.226 84.9773 766.764 84.9773C767.325 84.9773 767.793 84.8295 768.168 84.5341C768.546 84.2348 768.83 83.8333 769.02 83.3295C769.213 82.822 769.31 82.2576 769.31 81.6364C769.31 81.0227 769.215 80.4697 769.026 79.9773C768.84 79.4811 768.558 79.089 768.179 78.8011C767.804 78.5095 767.332 78.3636 766.764 78.3636C766.219 78.3636 765.76 78.5019 765.389 78.7784C765.018 79.0511 764.738 79.4337 764.548 79.9261C764.359 80.4148 764.264 80.9848 764.264 81.6364ZM773.337 77.2727L775.428 80.8409L777.518 77.2727H779.064L776.246 81.6364L779.064 86H777.518L775.428 82.6136L773.337 86H771.791L774.564 81.6364L771.791 77.2727H773.337Z" fill="white" fill-opacity="0.95"/>
<mask id="path-15-inside-5_2165_29219" fill="white">
<path d="M900 0H1150V160H900V0Z"/>
</mask>
<path d="M900 0H1150V160H900V0Z" fill="#1A1A1A"/>
<path d="M1150 159H900V161H1150V159Z" fill="#707070" mask="url(#path-15-inside-5_2165_29219)"/>
<path d="M940.773 42H939.364C939.28 41.5947 939.134 41.2386 938.926 40.9318C938.722 40.625 938.472 40.3674 938.176 40.1591C937.884 39.947 937.561 39.7879 937.205 39.6818C936.848 39.5758 936.477 39.5227 936.091 39.5227C935.386 39.5227 934.748 39.7008 934.176 40.0568C933.608 40.4129 933.155 40.9375 932.818 41.6307C932.485 42.3239 932.318 43.1742 932.318 44.1818C932.318 45.1894 932.485 46.0398 932.818 46.733C933.155 47.4261 933.608 47.9508 934.176 48.3068C934.748 48.6629 935.386 48.8409 936.091 48.8409C936.477 48.8409 936.848 48.7879 937.205 48.6818C937.561 48.5758 937.884 48.4186 938.176 48.2102C938.472 47.9981 938.722 47.7386 938.926 47.4318C939.134 47.1212 939.28 46.7652 939.364 46.3636H940.773C940.667 46.9583 940.473 47.4905 940.193 47.9602C939.913 48.4299 939.564 48.8295 939.148 49.1591C938.731 49.4848 938.263 49.733 937.744 49.9034C937.229 50.0739 936.678 50.1591 936.091 50.1591C935.098 50.1591 934.216 49.9167 933.443 49.4318C932.67 48.947 932.063 48.2576 931.619 47.3636C931.176 46.4697 930.955 45.4091 930.955 44.1818C930.955 42.9545 931.176 41.8939 931.619 41C932.063 40.1061 932.67 39.4167 933.443 38.9318C934.216 38.447 935.098 38.2045 936.091 38.2045C936.678 38.2045 937.229 38.2898 937.744 38.4602C938.263 38.6307 938.731 38.8807 939.148 39.2102C939.564 39.536 939.913 39.9337 940.193 40.4034C940.473 40.8693 940.667 41.4015 940.773 42ZM946.413 50.1818C945.625 50.1818 944.934 49.9943 944.339 49.6193C943.749 49.2443 943.286 48.7197 942.953 48.0455C942.624 47.3712 942.459 46.5833 942.459 45.6818C942.459 44.7727 942.624 43.9792 942.953 43.3011C943.286 42.6231 943.749 42.0966 944.339 41.7216C944.934 41.3466 945.625 41.1591 946.413 41.1591C947.201 41.1591 947.891 41.3466 948.482 41.7216C949.076 42.0966 949.538 42.6231 949.868 43.3011C950.201 43.9792 950.368 44.7727 950.368 45.6818C950.368 46.5833 950.201 47.3712 949.868 48.0455C949.538 48.7197 949.076 49.2443 948.482 49.6193C947.891 49.9943 947.201 50.1818 946.413 50.1818ZM946.413 48.9773C947.012 48.9773 947.504 48.8239 947.891 48.517C948.277 48.2102 948.563 47.8068 948.749 47.3068C948.934 46.8068 949.027 46.2652 949.027 45.6818C949.027 45.0985 948.934 44.5549 948.749 44.0511C948.563 43.5473 948.277 43.1402 947.891 42.8295C947.504 42.5189 947.012 42.3636 946.413 42.3636C945.815 42.3636 945.322 42.5189 944.936 42.8295C944.55 43.1402 944.264 43.5473 944.078 44.0511C943.893 44.5549 943.8 45.0985 943.8 45.6818C943.8 46.2652 943.893 46.8068 944.078 47.3068C944.264 47.8068 944.55 48.2102 944.936 48.517C945.322 48.8239 945.815 48.9773 946.413 48.9773ZM953.756 38.3636V50H952.415V38.3636H953.756ZM959.757 50.1818C958.969 50.1818 958.278 49.9943 957.683 49.6193C957.092 49.2443 956.63 48.7197 956.297 48.0455C955.967 47.3712 955.803 46.5833 955.803 45.6818C955.803 44.7727 955.967 43.9792 956.297 43.3011C956.63 42.6231 957.092 42.0966 957.683 41.7216C958.278 41.3466 958.969 41.1591 959.757 41.1591C960.545 41.1591 961.234 41.3466 961.825 41.7216C962.42 42.0966 962.882 42.6231 963.212 43.3011C963.545 43.9792 963.712 44.7727 963.712 45.6818C963.712 46.5833 963.545 47.3712 963.212 48.0455C962.882 48.7197 962.42 49.2443 961.825 49.6193C961.234 49.9943 960.545 50.1818 959.757 50.1818ZM959.757 48.9773C960.356 48.9773 960.848 48.8239 961.234 48.517C961.621 48.2102 961.907 47.8068 962.092 47.3068C962.278 46.8068 962.371 46.2652 962.371 45.6818C962.371 45.0985 962.278 44.5549 962.092 44.0511C961.907 43.5473 961.621 43.1402 961.234 42.8295C960.848 42.5189 960.356 42.3636 959.757 42.3636C959.159 42.3636 958.666 42.5189 958.28 42.8295C957.893 43.1402 957.607 43.5473 957.422 44.0511C957.236 44.5549 957.143 45.0985 957.143 45.6818C957.143 46.2652 957.236 46.8068 957.422 47.3068C957.607 47.8068 957.893 48.2102 958.28 48.517C958.666 48.8239 959.159 48.9773 959.757 48.9773ZM965.759 50V41.2727H967.054V42.5909H967.145C967.304 42.1591 967.592 41.8087 968.009 41.5398C968.425 41.2708 968.895 41.1364 969.418 41.1364C969.516 41.1364 969.639 41.1383 969.787 41.142C969.935 41.1458 970.046 41.1515 970.122 41.1591V42.5227C970.077 42.5114 969.973 42.4943 969.81 42.4716C969.651 42.4451 969.482 42.4318 969.304 42.4318C968.88 42.4318 968.501 42.5208 968.168 42.6989C967.838 42.8731 967.577 43.1155 967.384 43.4261C967.194 43.733 967.099 44.0833 967.099 44.4773V50H965.759ZM972.689 50.0909C972.409 50.0909 972.168 49.9905 971.967 49.7898C971.767 49.589 971.666 49.3485 971.666 49.0682C971.666 48.7879 971.767 48.5473 971.967 48.3466C972.168 48.1458 972.409 48.0455 972.689 48.0455C972.969 48.0455 973.21 48.1458 973.411 48.3466C973.611 48.5473 973.712 48.7879 973.712 49.0682C973.712 49.2538 973.664 49.4242 973.57 49.5795C973.479 49.7348 973.356 49.8598 973.2 49.9545C973.049 50.0455 972.878 50.0909 972.689 50.0909ZM972.689 43.6136C972.409 43.6136 972.168 43.5133 971.967 43.3125C971.767 43.1117 971.666 42.8712 971.666 42.5909C971.666 42.3106 971.767 42.0701 971.967 41.8693C972.168 41.6686 972.409 41.5682 972.689 41.5682C972.969 41.5682 973.21 41.6686 973.411 41.8693C973.611 42.0701 973.712 42.3106 973.712 42.5909C973.712 42.7765 973.664 42.947 973.57 43.1023C973.479 43.2576 973.356 43.3826 973.2 43.4773C973.049 43.5682 972.878 43.6136 972.689 43.6136ZM984.163 50.1818C983.345 50.1818 982.641 49.9886 982.05 49.6023C981.459 49.2159 981.004 48.6837 980.686 48.0057C980.368 47.3277 980.209 46.553 980.209 45.6818C980.209 44.7955 980.372 44.0133 980.697 43.3352C981.027 42.6534 981.485 42.1212 982.072 41.7386C982.663 41.3523 983.353 41.1591 984.141 41.1591C984.754 41.1591 985.307 41.2727 985.8 41.5C986.292 41.7273 986.696 42.0455 987.01 42.4545C987.324 42.8636 987.519 43.3409 987.595 43.8864H986.254C986.152 43.4886 985.925 43.1364 985.572 42.8295C985.224 42.5189 984.754 42.3636 984.163 42.3636C983.641 42.3636 983.182 42.5 982.788 42.7727C982.398 43.0417 982.093 43.4223 981.874 43.9148C981.658 44.4034 981.55 44.9773 981.55 45.6364C981.55 46.3106 981.656 46.8977 981.868 47.3977C982.084 47.8977 982.387 48.286 982.777 48.5625C983.171 48.839 983.633 48.9773 984.163 48.9773C984.512 48.9773 984.828 48.9167 985.112 48.7955C985.396 48.6742 985.637 48.5 985.834 48.2727C986.031 48.0455 986.171 47.7727 986.254 47.4545H987.595C987.519 47.9697 987.332 48.4337 987.033 48.8466C986.737 49.2557 986.345 49.5814 985.857 49.8239C985.372 50.0625 984.807 50.1818 984.163 50.1818ZM993.101 50.1818C992.313 50.1818 991.622 49.9943 991.027 49.6193C990.436 49.2443 989.974 48.7197 989.641 48.0455C989.311 47.3712 989.146 46.5833 989.146 45.6818C989.146 44.7727 989.311 43.9792 989.641 43.3011C989.974 42.6231 990.436 42.0966 991.027 41.7216C991.622 41.3466 992.313 41.1591 993.101 41.1591C993.889 41.1591 994.578 41.3466 995.169 41.7216C995.764 42.0966 996.226 42.6231 996.555 43.3011C996.889 43.9792 997.055 44.7727 997.055 45.6818C997.055 46.5833 996.889 47.3712 996.555 48.0455C996.226 48.7197 995.764 49.2443 995.169 49.6193C994.578 49.9943 993.889 50.1818 993.101 50.1818ZM993.101 48.9773C993.699 48.9773 994.192 48.8239 994.578 48.517C994.964 48.2102 995.25 47.8068 995.436 47.3068C995.622 46.8068 995.714 46.2652 995.714 45.6818C995.714 45.0985 995.622 44.5549 995.436 44.0511C995.25 43.5473 994.964 43.1402 994.578 42.8295C994.192 42.5189 993.699 42.3636 993.101 42.3636C992.502 42.3636 992.01 42.5189 991.624 42.8295C991.237 43.1402 990.951 43.5473 990.766 44.0511C990.58 44.5549 990.487 45.0985 990.487 45.6818C990.487 46.2652 990.58 46.8068 990.766 47.3068C990.951 47.8068 991.237 48.2102 991.624 48.517C992.01 48.8239 992.502 48.9773 993.101 48.9773ZM1000.44 38.3636V50H999.102V38.3636H1000.44ZM1006.44 50.1818C1005.66 50.1818 1004.97 49.9943 1004.37 49.6193C1003.78 49.2443 1003.32 48.7197 1002.98 48.0455C1002.65 47.3712 1002.49 46.5833 1002.49 45.6818C1002.49 44.7727 1002.65 43.9792 1002.98 43.3011C1003.32 42.6231 1003.78 42.0966 1004.37 41.7216C1004.97 41.3466 1005.66 41.1591 1006.44 41.1591C1007.23 41.1591 1007.92 41.3466 1008.51 41.7216C1009.11 42.0966 1009.57 42.6231 1009.9 43.3011C1010.23 43.9792 1010.4 44.7727 1010.4 45.6818C1010.4 46.5833 1010.23 47.3712 1009.9 48.0455C1009.57 48.7197 1009.11 49.2443 1008.51 49.6193C1007.92 49.9943 1007.23 50.1818 1006.44 50.1818ZM1006.44 48.9773C1007.04 48.9773 1007.54 48.8239 1007.92 48.517C1008.31 48.2102 1008.59 47.8068 1008.78 47.3068C1008.97 46.8068 1009.06 46.2652 1009.06 45.6818C1009.06 45.0985 1008.97 44.5549 1008.78 44.0511C1008.59 43.5473 1008.31 43.1402 1007.92 42.8295C1007.54 42.5189 1007.04 42.3636 1006.44 42.3636C1005.85 42.3636 1005.35 42.5189 1004.97 42.8295C1004.58 43.1402 1004.29 43.5473 1004.11 44.0511C1003.92 44.5549 1003.83 45.0985 1003.83 45.6818C1003.83 46.2652 1003.92 46.8068 1004.11 47.3068C1004.29 47.8068 1004.58 48.2102 1004.97 48.517C1005.35 48.8239 1005.85 48.9773 1006.44 48.9773ZM1012.45 50V41.2727H1013.74V42.5909H1013.83C1013.99 42.1591 1014.28 41.8087 1014.7 41.5398C1015.11 41.2708 1015.58 41.1364 1016.11 41.1364C1016.2 41.1364 1016.33 41.1383 1016.47 41.142C1016.62 41.1458 1016.73 41.1515 1016.81 41.1591V42.5227C1016.76 42.5114 1016.66 42.4943 1016.5 42.4716C1016.34 42.4451 1016.17 42.4318 1015.99 42.4318C1015.57 42.4318 1015.19 42.5208 1014.86 42.6989C1014.53 42.8731 1014.26 43.1155 1014.07 43.4261C1013.88 43.733 1013.79 44.0833 1013.79 44.4773V50H1012.45ZM1021.97 37.8182L1018.22 51.75H1016.99L1020.74 37.8182H1021.97ZM1027.35 41.2727V42.4091H1022.83V41.2727H1027.35ZM1024.15 39.1818H1025.49V47.5C1025.49 47.8788 1025.54 48.1629 1025.65 48.3523C1025.77 48.5379 1025.91 48.6629 1026.08 48.7273C1026.26 48.7879 1026.45 48.8182 1026.65 48.8182C1026.79 48.8182 1026.92 48.8106 1027.01 48.7955C1027.1 48.7765 1027.18 48.7614 1027.24 48.75L1027.51 49.9545C1027.42 49.9886 1027.29 50.0227 1027.13 50.0568C1026.97 50.0947 1026.76 50.1136 1026.51 50.1136C1026.13 50.1136 1025.76 50.0322 1025.4 49.8693C1025.04 49.7064 1024.74 49.4583 1024.5 49.125C1024.26 48.7917 1024.15 48.3712 1024.15 47.8636V39.1818ZM1030.9 44.75V50H1029.56V38.3636H1030.9V42.6364H1031.01C1031.21 42.1856 1031.52 41.8277 1031.93 41.5625C1032.34 41.2936 1032.89 41.1591 1033.58 41.1591C1034.17 41.1591 1034.69 41.2784 1035.14 41.517C1035.59 41.7519 1035.93 42.1136 1036.18 42.6023C1036.43 43.0871 1036.56 43.7045 1036.56 44.4545V50H1035.21V44.5455C1035.21 43.8523 1035.03 43.3163 1034.67 42.9375C1034.32 42.5549 1033.82 42.3636 1033.19 42.3636C1032.75 42.3636 1032.36 42.4564 1032.01 42.642C1031.67 42.8277 1031.39 43.0985 1031.19 43.4545C1030.99 43.8106 1030.9 44.2424 1030.9 44.75ZM1042.67 50.1818C1041.83 50.1818 1041.1 49.9962 1040.49 49.625C1039.89 49.25 1039.42 48.7273 1039.09 48.0568C1038.76 47.3826 1038.6 46.5985 1038.6 45.7045C1038.6 44.8106 1038.76 44.0227 1039.09 43.3409C1039.42 42.6553 1039.88 42.1212 1040.46 41.7386C1041.05 41.3523 1041.74 41.1591 1042.53 41.1591C1042.99 41.1591 1043.43 41.2348 1043.88 41.3864C1044.32 41.5379 1044.72 41.7841 1045.09 42.125C1045.45 42.4621 1045.74 42.9091 1045.96 43.4659C1046.17 44.0227 1046.28 44.7083 1046.28 45.5227V46.0909H1039.55V44.9318H1044.92C1044.92 44.4394 1044.82 44 1044.62 43.6136C1044.43 43.2273 1044.15 42.9223 1043.79 42.6989C1043.44 42.4754 1043.02 42.3636 1042.53 42.3636C1042 42.3636 1041.54 42.4962 1041.14 42.7614C1040.76 43.0227 1040.46 43.3636 1040.25 43.7841C1040.04 44.2045 1039.94 44.6553 1039.94 45.1364V45.9091C1039.94 46.5682 1040.05 47.1269 1040.28 47.5852C1040.51 48.0398 1040.83 48.3864 1041.24 48.625C1041.65 48.8598 1042.13 48.9773 1042.67 48.9773C1043.02 48.9773 1043.34 48.928 1043.62 48.8295C1043.91 48.7273 1044.16 48.5758 1044.37 48.375C1044.57 48.1705 1044.74 47.9167 1044.85 47.6136L1046.14 47.9773C1046.01 48.4167 1045.78 48.803 1045.46 49.1364C1045.14 49.4659 1044.74 49.7235 1044.26 49.9091C1043.79 50.0909 1043.26 50.1818 1042.67 50.1818ZM1048.32 50V41.2727H1049.62V42.6364H1049.73C1049.91 42.1705 1050.21 41.8087 1050.61 41.5511C1051.02 41.2898 1051.5 41.1591 1052.07 41.1591C1052.65 41.1591 1053.13 41.2898 1053.51 41.5511C1053.89 41.8087 1054.2 42.1705 1054.41 42.6364H1054.5C1054.73 42.1856 1055.06 41.8277 1055.51 41.5625C1055.96 41.2936 1056.49 41.1591 1057.12 41.1591C1057.9 41.1591 1058.54 41.4034 1059.03 41.892C1059.53 42.3769 1059.78 43.1326 1059.78 44.1591V50H1058.43V44.1591C1058.43 43.5152 1058.26 43.0549 1057.91 42.7784C1057.55 42.5019 1057.14 42.3636 1056.66 42.3636C1056.05 42.3636 1055.57 42.5492 1055.24 42.9205C1054.9 43.2879 1054.73 43.7538 1054.73 44.3182V50H1053.37V44.0227C1053.37 43.5265 1053.21 43.1269 1052.88 42.8239C1052.56 42.517 1052.15 42.3636 1051.64 42.3636C1051.29 42.3636 1050.96 42.4564 1050.66 42.642C1050.36 42.8277 1050.12 43.0852 1049.93 43.4148C1049.75 43.7405 1049.66 44.1174 1049.66 44.5455V50H1048.32ZM1065.89 50.1818C1065.05 50.1818 1064.32 49.9962 1063.71 49.625C1063.1 49.25 1062.64 48.7273 1062.31 48.0568C1061.98 47.3826 1061.82 46.5985 1061.82 45.7045C1061.82 44.8106 1061.98 44.0227 1062.31 43.3409C1062.64 42.6553 1063.09 42.1212 1063.68 41.7386C1064.27 41.3523 1064.96 41.1591 1065.75 41.1591C1066.2 41.1591 1066.65 41.2348 1067.1 41.3864C1067.54 41.5379 1067.94 41.7841 1068.31 42.125C1068.67 42.4621 1068.96 42.9091 1069.18 43.4659C1069.39 44.0227 1069.5 44.7083 1069.5 45.5227V46.0909H1062.77V44.9318H1068.14C1068.14 44.4394 1068.04 44 1067.84 43.6136C1067.65 43.2273 1067.37 42.9223 1067.01 42.6989C1066.66 42.4754 1066.23 42.3636 1065.75 42.3636C1065.22 42.3636 1064.75 42.4962 1064.36 42.7614C1063.98 43.0227 1063.68 43.3636 1063.47 43.7841C1063.26 44.2045 1063.16 44.6553 1063.16 45.1364V45.9091C1063.16 46.5682 1063.27 47.1269 1063.5 47.5852C1063.73 48.0398 1064.05 48.3864 1064.46 48.625C1064.87 48.8598 1065.34 48.9773 1065.89 48.9773C1066.24 48.9773 1066.56 48.928 1066.84 48.8295C1067.13 48.7273 1067.38 48.5758 1067.59 48.375C1067.79 48.1705 1067.95 47.9167 1068.07 47.6136L1069.36 47.9773C1069.23 48.4167 1069 48.803 1068.68 49.1364C1068.35 49.4659 1067.96 49.7235 1067.48 49.9091C1067.01 50.0909 1066.48 50.1818 1065.89 50.1818ZM1075.65 37.8182L1071.9 51.75H1070.68L1074.43 37.8182H1075.65ZM937.409 67.2273L936.205 67.5682C936.129 67.3674 936.017 67.1723 935.869 66.983C935.725 66.7898 935.528 66.6307 935.278 66.5057C935.028 66.3807 934.708 66.3182 934.318 66.3182C933.784 66.3182 933.339 66.4413 932.983 66.6875C932.631 66.9299 932.455 67.2386 932.455 67.6136C932.455 67.947 932.576 68.2102 932.818 68.4034C933.061 68.5966 933.439 68.7576 933.955 68.8864L935.25 69.2045C936.03 69.3939 936.612 69.6837 936.994 70.0739C937.377 70.4602 937.568 70.9583 937.568 71.5682C937.568 72.0682 937.424 72.5152 937.136 72.9091C936.852 73.303 936.455 73.6136 935.943 73.8409C935.432 74.0682 934.837 74.1818 934.159 74.1818C933.269 74.1818 932.532 73.9886 931.949 73.6023C931.366 73.2159 930.996 72.6515 930.841 71.9091L932.114 71.5909C932.235 72.0606 932.464 72.4129 932.801 72.6477C933.142 72.8826 933.587 73 934.136 73C934.761 73 935.258 72.8674 935.625 72.6023C935.996 72.3333 936.182 72.0114 936.182 71.6364C936.182 71.3333 936.076 71.0795 935.864 70.875C935.652 70.6667 935.326 70.5114 934.886 70.4091L933.432 70.0682C932.633 69.8788 932.045 69.5852 931.67 69.1875C931.299 68.786 931.114 68.2841 931.114 67.6818C931.114 67.1894 931.252 66.7538 931.528 66.375C931.809 65.9962 932.189 65.6989 932.67 65.483C933.155 65.267 933.705 65.1591 934.318 65.1591C935.182 65.1591 935.86 65.3485 936.352 65.7273C936.848 66.1061 937.201 66.6061 937.409 67.2273ZM945.087 70.4318V65.2727H946.428V74H945.087V72.5227H944.996C944.791 72.9659 944.473 73.3428 944.041 73.6534C943.609 73.9602 943.064 74.1136 942.405 74.1136C941.859 74.1136 941.375 73.9943 940.95 73.7557C940.526 73.5133 940.193 73.1496 939.95 72.6648C939.708 72.1761 939.587 71.5606 939.587 70.8182V65.2727H940.928V70.7273C940.928 71.3636 941.106 71.8712 941.462 72.25C941.821 72.6288 942.28 72.8182 942.837 72.8182C943.17 72.8182 943.509 72.733 943.854 72.5625C944.202 72.392 944.494 72.1307 944.729 71.7784C944.967 71.4261 945.087 70.9773 945.087 70.4318ZM948.884 74V65.2727H950.179V66.5909H950.27C950.429 66.1591 950.717 65.8087 951.134 65.5398C951.55 65.2708 952.02 65.1364 952.543 65.1364C952.641 65.1364 952.764 65.1383 952.912 65.142C953.06 65.1458 953.171 65.1515 953.247 65.1591V66.5227C953.202 66.5114 953.098 66.4943 952.935 66.4716C952.776 66.4451 952.607 66.4318 952.429 66.4318C952.005 66.4318 951.626 66.5208 951.293 66.6989C950.963 66.8731 950.702 67.1155 950.509 67.4261C950.319 67.733 950.224 68.0833 950.224 68.4773V74H948.884ZM959.27 65.2727V66.4091H954.565V65.2727H959.27ZM955.974 74V64.0682C955.974 63.5682 956.092 63.1515 956.327 62.8182C956.562 62.4848 956.866 62.2348 957.241 62.0682C957.616 61.9015 958.012 61.8182 958.429 61.8182C958.759 61.8182 959.027 61.8447 959.236 61.8977C959.444 61.9508 959.599 62 959.702 62.0455L959.315 63.2045C959.247 63.1818 959.152 63.1534 959.031 63.1193C958.914 63.0852 958.759 63.0682 958.565 63.0682C958.122 63.0682 957.802 63.1799 957.605 63.4034C957.412 63.6269 957.315 63.9545 957.315 64.3864V74H955.974ZM963.467 74.2045C962.914 74.2045 962.412 74.1004 961.962 73.892C961.511 73.6799 961.153 73.375 960.888 72.9773C960.623 72.5758 960.49 72.0909 960.49 71.5227C960.49 71.0227 960.589 70.6174 960.786 70.3068C960.982 69.9924 961.246 69.7462 961.575 69.5682C961.905 69.3902 962.268 69.2576 962.666 69.1705C963.068 69.0795 963.471 69.0076 963.876 68.9545C964.407 68.8864 964.837 68.8352 965.166 68.8011C965.5 68.7633 965.742 68.7008 965.893 68.6136C966.049 68.5265 966.126 68.375 966.126 68.1591V68.1136C966.126 67.553 965.973 67.1174 965.666 66.8068C965.363 66.4962 964.903 66.3409 964.286 66.3409C963.645 66.3409 963.143 66.4811 962.78 66.7614C962.416 67.0417 962.161 67.3409 962.013 67.6591L960.74 67.2045C960.967 66.6742 961.27 66.2614 961.649 65.9659C962.032 65.6667 962.448 65.4583 962.899 65.3409C963.354 65.2197 963.801 65.1591 964.24 65.1591C964.52 65.1591 964.842 65.1932 965.206 65.2614C965.573 65.3258 965.928 65.4602 966.268 65.6648C966.613 65.8693 966.899 66.178 967.126 66.5909C967.354 67.0038 967.467 67.5568 967.467 68.25V74H966.126V72.8182H966.058C965.967 73.0076 965.816 73.2102 965.604 73.4261C965.392 73.642 965.109 73.8258 964.757 73.9773C964.405 74.1288 963.975 74.2045 963.467 74.2045ZM963.672 73C964.202 73 964.649 72.8958 965.013 72.6875C965.38 72.4792 965.657 72.2102 965.842 71.8807C966.032 71.5511 966.126 71.2045 966.126 70.8409V69.6136C966.07 69.6818 965.945 69.7443 965.751 69.8011C965.562 69.8542 965.342 69.9015 965.092 69.9432C964.846 69.9811 964.606 70.0152 964.371 70.0455C964.14 70.072 963.952 70.0947 963.808 70.1136C963.46 70.1591 963.134 70.233 962.831 70.3352C962.532 70.4337 962.289 70.5833 962.104 70.7841C961.922 70.9811 961.831 71.25 961.831 71.5909C961.831 72.0568 962.003 72.4091 962.348 72.6477C962.696 72.8826 963.138 73 963.672 73ZM973.46 74.1818C972.642 74.1818 971.938 73.9886 971.347 73.6023C970.756 73.2159 970.301 72.6837 969.983 72.0057C969.665 71.3277 969.506 70.553 969.506 69.6818C969.506 68.7955 969.669 68.0133 969.994 67.3352C970.324 66.6534 970.782 66.1212 971.369 65.7386C971.96 65.3523 972.65 65.1591 973.438 65.1591C974.051 65.1591 974.604 65.2727 975.097 65.5C975.589 65.7273 975.992 66.0455 976.307 66.4545C976.621 66.8636 976.816 67.3409 976.892 67.8864H975.551C975.449 67.4886 975.222 67.1364 974.869 66.8295C974.521 66.5189 974.051 66.3636 973.46 66.3636C972.938 66.3636 972.479 66.5 972.085 66.7727C971.695 67.0417 971.39 67.4223 971.17 67.9148C970.955 68.4034 970.847 68.9773 970.847 69.6364C970.847 70.3106 970.953 70.8977 971.165 71.3977C971.381 71.8977 971.684 72.286 972.074 72.5625C972.468 72.839 972.93 72.9773 973.46 72.9773C973.809 72.9773 974.125 72.9167 974.409 72.7955C974.693 72.6742 974.934 72.5 975.131 72.2727C975.328 72.0455 975.468 71.7727 975.551 71.4545H976.892C976.816 71.9697 976.629 72.4337 976.33 72.8466C976.034 73.2557 975.642 73.5814 975.153 73.8239C974.669 74.0625 974.104 74.1818 973.46 74.1818ZM982.511 74.1818C981.67 74.1818 980.945 73.9962 980.335 73.625C979.729 73.25 979.261 72.7273 978.932 72.0568C978.606 71.3826 978.443 70.5985 978.443 69.7045C978.443 68.8106 978.606 68.0227 978.932 67.3409C979.261 66.6553 979.72 66.1212 980.307 65.7386C980.898 65.3523 981.587 65.1591 982.375 65.1591C982.83 65.1591 983.278 65.2348 983.722 65.3864C984.165 65.5379 984.568 65.7841 984.932 66.125C985.295 66.4621 985.585 66.9091 985.801 67.4659C986.017 68.0227 986.125 68.7083 986.125 69.5227V70.0909H979.398V68.9318H984.761C984.761 68.4394 984.663 68 984.466 67.6136C984.273 67.2273 983.996 66.9223 983.636 66.6989C983.28 66.4754 982.86 66.3636 982.375 66.3636C981.841 66.3636 981.379 66.4962 980.989 66.7614C980.602 67.0227 980.305 67.3636 980.097 67.7841C979.888 68.2045 979.784 68.6553 979.784 69.1364V69.9091C979.784 70.5682 979.898 71.1269 980.125 71.5852C980.356 72.0398 980.676 72.3864 981.085 72.625C981.494 72.8598 981.97 72.9773 982.511 72.9773C982.864 72.9773 983.182 72.928 983.466 72.8295C983.754 72.7273 984.002 72.5758 984.21 72.375C984.419 72.1705 984.58 71.9167 984.693 71.6136L985.989 71.9773C985.852 72.4167 985.623 72.803 985.301 73.1364C984.979 73.4659 984.581 73.7235 984.108 73.9091C983.634 74.0909 983.102 74.1818 982.511 74.1818ZM992.278 61.8182L988.528 75.75H987.301L991.051 61.8182H992.278ZM995.209 68.75V74H993.868V65.2727H995.163V66.6364H995.277C995.482 66.1932 995.792 65.8371 996.209 65.5682C996.625 65.2955 997.163 65.1591 997.822 65.1591C998.413 65.1591 998.93 65.2803 999.374 65.5227C999.817 65.7614 1000.16 66.125 1000.41 66.6136C1000.65 67.0985 1000.78 67.7121 1000.78 68.4545V74H999.436V68.5455C999.436 67.8598 999.258 67.3258 998.902 66.9432C998.546 66.5568 998.057 66.3636 997.436 66.3636C997.008 66.3636 996.625 66.4564 996.288 66.642C995.955 66.8277 995.692 67.0985 995.499 67.4545C995.305 67.8106 995.209 68.2424 995.209 68.75ZM1006.89 74.1818C1006.05 74.1818 1005.32 73.9962 1004.71 73.625C1004.1 73.25 1003.64 72.7273 1003.31 72.0568C1002.98 71.3826 1002.82 70.5985 1002.82 69.7045C1002.82 68.8106 1002.98 68.0227 1003.31 67.3409C1003.64 66.6553 1004.09 66.1212 1004.68 65.7386C1005.27 65.3523 1005.96 65.1591 1006.75 65.1591C1007.2 65.1591 1007.65 65.2348 1008.1 65.3864C1008.54 65.5379 1008.94 65.7841 1009.31 66.125C1009.67 66.4621 1009.96 66.9091 1010.18 67.4659C1010.39 68.0227 1010.5 68.7083 1010.5 69.5227V70.0909H1003.77V68.9318H1009.14C1009.14 68.4394 1009.04 68 1008.84 67.6136C1008.65 67.2273 1008.37 66.9223 1008.01 66.6989C1007.66 66.4754 1007.23 66.3636 1006.75 66.3636C1006.22 66.3636 1005.75 66.4962 1005.36 66.7614C1004.98 67.0227 1004.68 67.3636 1004.47 67.7841C1004.26 68.2045 1004.16 68.6553 1004.16 69.1364V69.9091C1004.16 70.5682 1004.27 71.1269 1004.5 71.5852C1004.73 72.0398 1005.05 72.3864 1005.46 72.625C1005.87 72.8598 1006.34 72.9773 1006.89 72.9773C1007.24 72.9773 1007.56 72.928 1007.84 72.8295C1008.13 72.7273 1008.38 72.5758 1008.59 72.375C1008.79 72.1705 1008.95 71.9167 1009.07 71.6136L1010.36 71.9773C1010.23 72.4167 1010 72.803 1009.68 73.1364C1009.35 73.4659 1008.96 73.7235 1008.48 73.9091C1008.01 74.0909 1007.48 74.1818 1006.89 74.1818ZM1018.04 70.4318V65.2727H1019.38V74H1018.04V72.5227H1017.95C1017.74 72.9659 1017.43 73.3428 1016.99 73.6534C1016.56 73.9602 1016.02 74.1136 1015.36 74.1136C1014.81 74.1136 1014.33 73.9943 1013.9 73.7557C1013.48 73.5133 1013.15 73.1496 1012.9 72.6648C1012.66 72.1761 1012.54 71.5606 1012.54 70.8182V65.2727H1013.88V70.7273C1013.88 71.3636 1014.06 71.8712 1014.41 72.25C1014.77 72.6288 1015.23 72.8182 1015.79 72.8182C1016.12 72.8182 1016.46 72.733 1016.81 72.5625C1017.16 72.392 1017.45 72.1307 1017.68 71.7784C1017.92 71.4261 1018.04 70.9773 1018.04 70.4318ZM1025.63 65.2727V66.4091H1021.11V65.2727H1025.63ZM1022.43 63.1818H1023.77V71.5C1023.77 71.8788 1023.82 72.1629 1023.93 72.3523C1024.05 72.5379 1024.19 72.6629 1024.37 72.7273C1024.54 72.7879 1024.73 72.8182 1024.93 72.8182C1025.08 72.8182 1025.2 72.8106 1025.29 72.7955C1025.39 72.7765 1025.46 72.7614 1025.52 72.75L1025.79 73.9545C1025.7 73.9886 1025.57 74.0227 1025.41 74.0568C1025.25 74.0947 1025.04 74.1136 1024.79 74.1136C1024.41 74.1136 1024.04 74.0322 1023.68 73.8693C1023.32 73.7064 1023.02 73.4583 1022.78 73.125C1022.54 72.7917 1022.43 72.3712 1022.43 71.8636V63.1818ZM1027.65 74V65.2727H1028.94V66.5909H1029.04C1029.19 66.1591 1029.48 65.8087 1029.9 65.5398C1030.32 65.2708 1030.79 65.1364 1031.31 65.1364C1031.41 65.1364 1031.53 65.1383 1031.68 65.142C1031.83 65.1458 1031.94 65.1515 1032.01 65.1591V66.5227C1031.97 66.5114 1031.86 66.4943 1031.7 66.4716C1031.54 66.4451 1031.37 66.4318 1031.19 66.4318C1030.77 66.4318 1030.39 66.5208 1030.06 66.6989C1029.73 66.8731 1029.47 67.1155 1029.27 67.4261C1029.08 67.733 1028.99 68.0833 1028.99 68.4773V74H1027.65ZM1036.17 74.2045C1035.62 74.2045 1035.12 74.1004 1034.66 73.892C1034.21 73.6799 1033.86 73.375 1033.59 72.9773C1033.33 72.5758 1033.19 72.0909 1033.19 71.5227C1033.19 71.0227 1033.29 70.6174 1033.49 70.3068C1033.69 69.9924 1033.95 69.7462 1034.28 69.5682C1034.61 69.3902 1034.97 69.2576 1035.37 69.1705C1035.77 69.0795 1036.17 69.0076 1036.58 68.9545C1037.11 68.8864 1037.54 68.8352 1037.87 68.8011C1038.2 68.7633 1038.45 68.7008 1038.6 68.6136C1038.75 68.5265 1038.83 68.375 1038.83 68.1591V68.1136C1038.83 67.553 1038.68 67.1174 1038.37 66.8068C1038.07 66.4962 1037.61 66.3409 1036.99 66.3409C1036.35 66.3409 1035.85 66.4811 1035.48 66.7614C1035.12 67.0417 1034.86 67.3409 1034.72 67.6591L1033.44 67.2045C1033.67 66.6742 1033.97 66.2614 1034.35 65.9659C1034.73 65.6667 1035.15 65.4583 1035.6 65.3409C1036.06 65.2197 1036.5 65.1591 1036.94 65.1591C1037.22 65.1591 1037.55 65.1932 1037.91 65.2614C1038.28 65.3258 1038.63 65.4602 1038.97 65.6648C1039.32 65.8693 1039.6 66.178 1039.83 66.5909C1040.06 67.0038 1040.17 67.5568 1040.17 68.25V74H1038.83V72.8182H1038.76C1038.67 73.0076 1038.52 73.2102 1038.31 73.4261C1038.09 73.642 1037.81 73.8258 1037.46 73.9773C1037.11 74.1288 1036.68 74.2045 1036.17 74.2045ZM1036.38 73C1036.91 73 1037.35 72.8958 1037.72 72.6875C1038.08 72.4792 1038.36 72.2102 1038.55 71.8807C1038.73 71.5511 1038.83 71.2045 1038.83 70.8409V69.6136C1038.77 69.6818 1038.65 69.7443 1038.45 69.8011C1038.27 69.8542 1038.05 69.9015 1037.8 69.9432C1037.55 69.9811 1037.31 70.0152 1037.07 70.0455C1036.84 70.072 1036.66 70.0947 1036.51 70.1136C1036.16 70.1591 1035.84 70.233 1035.53 70.3352C1035.23 70.4337 1034.99 70.5833 1034.81 70.7841C1034.63 70.9811 1034.53 71.25 1034.53 71.5909C1034.53 72.0568 1034.71 72.4091 1035.05 72.6477C1035.4 72.8826 1035.84 73 1036.38 73ZM1043.96 62.3636V74H1042.62V62.3636H1043.96ZM1050.53 61.8182L1046.78 75.75H1045.55L1049.3 61.8182H1050.53ZM1055.89 74.1591C1055.03 74.1591 1054.31 73.9261 1053.7 73.4602C1053.1 72.9905 1052.64 72.3106 1052.32 71.4205C1052 70.5265 1051.85 69.447 1051.85 68.1818C1051.85 66.9242 1052 65.8504 1052.32 64.9602C1052.64 64.0663 1053.11 63.3845 1053.71 62.9148C1054.31 62.4413 1055.04 62.2045 1055.89 62.2045C1056.74 62.2045 1057.46 62.4413 1058.07 62.9148C1058.67 63.3845 1059.13 64.0663 1059.45 64.9602C1059.78 65.8504 1059.94 66.9242 1059.94 68.1818C1059.94 69.447 1059.78 70.5265 1059.46 71.4205C1059.14 72.3106 1058.68 72.9905 1058.08 73.4602C1057.48 73.9261 1056.75 74.1591 1055.89 74.1591ZM1055.89 72.9091C1056.74 72.9091 1057.4 72.5 1057.87 71.6818C1058.34 70.8636 1058.57 69.697 1058.57 68.1818C1058.57 67.1742 1058.46 66.3163 1058.25 65.608C1058.04 64.8996 1057.73 64.3598 1057.33 63.9886C1056.93 63.6174 1056.45 63.4318 1055.89 63.4318C1055.05 63.4318 1054.39 63.8466 1053.92 64.6761C1053.45 65.5019 1053.21 66.6705 1053.21 68.1818C1053.21 69.1894 1053.31 70.0455 1053.53 70.75C1053.74 71.4545 1054.04 71.9905 1054.44 72.358C1054.84 72.7254 1055.33 72.9091 1055.89 72.9091ZM1065.89 74.1591C1065.03 74.1591 1064.31 73.9261 1063.7 73.4602C1063.1 72.9905 1062.64 72.3106 1062.32 71.4205C1062 70.5265 1061.85 69.447 1061.85 68.1818C1061.85 66.9242 1062 65.8504 1062.32 64.9602C1062.64 64.0663 1063.11 63.3845 1063.71 62.9148C1064.31 62.4413 1065.04 62.2045 1065.89 62.2045C1066.74 62.2045 1067.46 62.4413 1068.07 62.9148C1068.67 63.3845 1069.13 64.0663 1069.45 64.9602C1069.78 65.8504 1069.94 66.9242 1069.94 68.1818C1069.94 69.447 1069.78 70.5265 1069.46 71.4205C1069.14 72.3106 1068.68 72.9905 1068.08 73.4602C1067.48 73.9261 1066.75 74.1591 1065.89 74.1591ZM1065.89 72.9091C1066.74 72.9091 1067.4 72.5 1067.87 71.6818C1068.34 70.8636 1068.57 69.697 1068.57 68.1818C1068.57 67.1742 1068.46 66.3163 1068.25 65.608C1068.04 64.8996 1067.73 64.3598 1067.33 63.9886C1066.93 63.6174 1066.45 63.4318 1065.89 63.4318C1065.05 63.4318 1064.39 63.8466 1063.92 64.6761C1063.45 65.5019 1063.21 66.6705 1063.21 68.1818C1063.21 69.1894 1063.31 70.0455 1063.53 70.75C1063.74 71.4545 1064.04 71.9905 1064.44 72.358C1064.84 72.7254 1065.33 72.9091 1065.89 72.9091ZM1076.23 61.8182L1072.48 75.75H1071.25L1075 61.8182H1076.23ZM1079.16 68.75V74H1077.82V62.3636H1079.16V66.6364H1079.28C1079.48 66.1856 1079.79 65.8277 1080.2 65.5625C1080.61 65.2936 1081.16 65.1591 1081.84 65.1591C1082.44 65.1591 1082.96 65.2784 1083.41 65.517C1083.85 65.7519 1084.2 66.1136 1084.45 66.6023C1084.7 67.0871 1084.82 67.7045 1084.82 68.4545V74H1083.48V68.5455C1083.48 67.8523 1083.3 67.3163 1082.94 66.9375C1082.58 66.5549 1082.09 66.3636 1081.46 66.3636C1081.02 66.3636 1080.62 66.4564 1080.28 66.642C1079.93 66.8277 1079.66 67.0985 1079.46 67.4545C1079.26 67.8106 1079.16 68.2424 1079.16 68.75ZM1090.82 74.1818C1090.03 74.1818 1089.34 73.9943 1088.75 73.6193C1088.15 73.2443 1087.69 72.7197 1087.36 72.0455C1087.03 71.3712 1086.87 70.5833 1086.87 69.6818C1086.87 68.7727 1087.03 67.9792 1087.36 67.3011C1087.69 66.6231 1088.15 66.0966 1088.75 65.7216C1089.34 65.3466 1090.03 65.1591 1090.82 65.1591C1091.61 65.1591 1092.3 65.3466 1092.89 65.7216C1093.48 66.0966 1093.94 66.6231 1094.27 67.3011C1094.61 67.9792 1094.77 68.7727 1094.77 69.6818C1094.77 70.5833 1094.61 71.3712 1094.27 72.0455C1093.94 72.7197 1093.48 73.2443 1092.89 73.6193C1092.3 73.9943 1091.61 74.1818 1090.82 74.1818ZM1090.82 72.9773C1091.42 72.9773 1091.91 72.8239 1092.3 72.517C1092.68 72.2102 1092.97 71.8068 1093.15 71.3068C1093.34 70.8068 1093.43 70.2652 1093.43 69.6818C1093.43 69.0985 1093.34 68.5549 1093.15 68.0511C1092.97 67.5473 1092.68 67.1402 1092.3 66.8295C1091.91 66.5189 1091.42 66.3636 1090.82 66.3636C1090.22 66.3636 1089.73 66.5189 1089.34 66.8295C1088.96 67.1402 1088.67 67.5473 1088.48 68.0511C1088.3 68.5549 1088.21 69.0985 1088.21 69.6818C1088.21 70.2652 1088.3 70.8068 1088.48 71.3068C1088.67 71.8068 1088.96 72.2102 1089.34 72.517C1089.73 72.8239 1090.22 72.9773 1090.82 72.9773ZM1103.64 65.2727L1100.42 74H1099.05L1095.83 65.2727H1097.28L1099.69 72.2273H1099.78L1102.19 65.2727H1103.64ZM1108.76 74.1818C1107.92 74.1818 1107.2 73.9962 1106.59 73.625C1105.98 73.25 1105.51 72.7273 1105.18 72.0568C1104.86 71.3826 1104.69 70.5985 1104.69 69.7045C1104.69 68.8106 1104.86 68.0227 1105.18 67.3409C1105.51 66.6553 1105.97 66.1212 1106.56 65.7386C1107.15 65.3523 1107.84 65.1591 1108.62 65.1591C1109.08 65.1591 1109.53 65.2348 1109.97 65.3864C1110.41 65.5379 1110.82 65.7841 1111.18 66.125C1111.55 66.4621 1111.84 66.9091 1112.05 67.4659C1112.27 68.0227 1112.38 68.7083 1112.38 69.5227V70.0909H1105.65V68.9318H1111.01C1111.01 68.4394 1110.91 68 1110.72 67.6136C1110.52 67.2273 1110.25 66.9223 1109.89 66.6989C1109.53 66.4754 1109.11 66.3636 1108.62 66.3636C1108.09 66.3636 1107.63 66.4962 1107.24 66.7614C1106.85 67.0227 1106.55 67.3636 1106.35 67.7841C1106.14 68.2045 1106.03 68.6553 1106.03 69.1364V69.9091C1106.03 70.5682 1106.15 71.1269 1106.38 71.5852C1106.61 72.0398 1106.93 72.3864 1107.34 72.625C1107.74 72.8598 1108.22 72.9773 1108.76 72.9773C1109.11 72.9773 1109.43 72.928 1109.72 72.8295C1110 72.7273 1110.25 72.5758 1110.46 72.375C1110.67 72.1705 1110.83 71.9167 1110.94 71.6136L1112.24 71.9773C1112.1 72.4167 1111.87 72.803 1111.55 73.1364C1111.23 73.4659 1110.83 73.7235 1110.36 73.9091C1109.88 74.0909 1109.35 74.1818 1108.76 74.1818ZM1114.41 74V65.2727H1115.71V66.5909H1115.8C1115.96 66.1591 1116.25 65.8087 1116.66 65.5398C1117.08 65.2708 1117.55 65.1364 1118.07 65.1364C1118.17 65.1364 1118.3 65.1383 1118.44 65.142C1118.59 65.1458 1118.7 65.1515 1118.78 65.1591V66.5227C1118.73 66.5114 1118.63 66.4943 1118.47 66.4716C1118.31 66.4451 1118.14 66.4318 1117.96 66.4318C1117.54 66.4318 1117.16 66.5208 1116.82 66.6989C1116.49 66.8731 1116.23 67.1155 1116.04 67.4261C1115.85 67.733 1115.76 68.0833 1115.76 68.4773V74H1114.41ZM941.227 92.1818C941.227 93.4091 941.006 94.4697 940.562 95.3636C940.119 96.2576 939.511 96.947 938.739 97.4318C937.966 97.9167 937.083 98.1591 936.091 98.1591C935.098 98.1591 934.216 97.9167 933.443 97.4318C932.67 96.947 932.063 96.2576 931.619 95.3636C931.176 94.4697 930.955 93.4091 930.955 92.1818C930.955 90.9545 931.176 89.8939 931.619 89C932.063 88.1061 932.67 87.4167 933.443 86.9318C934.216 86.447 935.098 86.2045 936.091 86.2045C937.083 86.2045 937.966 86.447 938.739 86.9318C939.511 87.4167 940.119 88.1061 940.562 89C941.006 89.8939 941.227 90.9545 941.227 92.1818ZM939.864 92.1818C939.864 91.1742 939.695 90.3239 939.358 89.6307C939.025 88.9375 938.572 88.4129 938 88.0568C937.432 87.7008 936.795 87.5227 936.091 87.5227C935.386 87.5227 934.748 87.7008 934.176 88.0568C933.608 88.4129 933.155 88.9375 932.818 89.6307C932.485 90.3239 932.318 91.1742 932.318 92.1818C932.318 93.1894 932.485 94.0398 932.818 94.733C933.155 95.4261 933.608 95.9508 934.176 96.3068C934.748 96.6629 935.386 96.8409 936.091 96.8409C936.795 96.8409 937.432 96.6629 938 96.3068C938.572 95.9508 939.025 95.4261 939.358 94.733C939.695 94.0398 939.864 93.1894 939.864 92.1818ZM948.915 94.4318V89.2727H950.256V98H948.915V96.5227H948.824C948.619 96.9659 948.301 97.3428 947.869 97.6534C947.438 97.9602 946.892 98.1136 946.233 98.1136C945.688 98.1136 945.203 97.9943 944.778 97.7557C944.354 97.5133 944.021 97.1496 943.778 96.6648C943.536 96.1761 943.415 95.5606 943.415 94.8182V89.2727H944.756V94.7273C944.756 95.3636 944.934 95.8712 945.29 96.25C945.65 96.6288 946.108 96.8182 946.665 96.8182C946.998 96.8182 947.337 96.733 947.682 96.5625C948.03 96.392 948.322 96.1307 948.557 95.7784C948.795 95.4261 948.915 94.9773 948.915 94.4318ZM956.507 89.2727V90.4091H951.984V89.2727H956.507ZM953.303 87.1818H954.643V95.5C954.643 95.8788 954.698 96.1629 954.808 96.3523C954.922 96.5379 955.066 96.6629 955.24 96.7273C955.418 96.7879 955.606 96.8182 955.803 96.8182C955.95 96.8182 956.071 96.8106 956.166 96.7955C956.261 96.7765 956.337 96.7614 956.393 96.75L956.666 97.9545C956.575 97.9886 956.448 98.0227 956.286 98.0568C956.123 98.0947 955.916 98.1136 955.666 98.1136C955.287 98.1136 954.916 98.0322 954.553 97.8693C954.193 97.7064 953.893 97.4583 953.655 97.125C953.42 96.7917 953.303 96.3712 953.303 95.8636V87.1818ZM960.053 86.3636V98H958.712V86.3636H960.053ZM962.509 98V89.2727H963.849V98H962.509ZM963.19 87.8182C962.929 87.8182 962.704 87.7292 962.514 87.5511C962.329 87.3731 962.236 87.1591 962.236 86.9091C962.236 86.6591 962.329 86.4451 962.514 86.267C962.704 86.089 962.929 86 963.19 86C963.452 86 963.675 86.089 963.861 86.267C964.05 86.4451 964.145 86.6591 964.145 86.9091C964.145 87.1591 964.05 87.3731 963.861 87.5511C963.675 87.7292 963.452 87.8182 963.19 87.8182ZM967.646 92.75V98H966.305V89.2727H967.601V90.6364H967.714C967.919 90.1932 968.23 89.8371 968.646 89.5682C969.063 89.2955 969.601 89.1591 970.26 89.1591C970.851 89.1591 971.368 89.2803 971.811 89.5227C972.254 89.7614 972.599 90.125 972.845 90.6136C973.091 91.0985 973.214 91.7121 973.214 92.4545V98H971.874V92.5455C971.874 91.8598 971.696 91.3258 971.339 90.9432C970.983 90.5568 970.495 90.3636 969.874 90.3636C969.446 90.3636 969.063 90.4564 968.726 90.642C968.393 90.8277 968.129 91.0985 967.936 91.4545C967.743 91.8106 967.646 92.2424 967.646 92.75ZM979.324 98.1818C978.483 98.1818 977.758 97.9962 977.148 97.625C976.542 97.25 976.074 96.7273 975.744 96.0568C975.419 95.3826 975.256 94.5985 975.256 93.7045C975.256 92.8106 975.419 92.0227 975.744 91.3409C976.074 90.6553 976.532 90.1212 977.119 89.7386C977.71 89.3523 978.4 89.1591 979.188 89.1591C979.642 89.1591 980.091 89.2348 980.534 89.3864C980.977 89.5379 981.381 89.7841 981.744 90.125C982.108 90.4621 982.398 90.9091 982.614 91.4659C982.83 92.0227 982.938 92.7083 982.938 93.5227V94.0909H976.21V92.9318H981.574C981.574 92.4394 981.475 92 981.278 91.6136C981.085 91.2273 980.809 90.9223 980.449 90.6989C980.093 90.4754 979.672 90.3636 979.188 90.3636C978.653 90.3636 978.191 90.4962 977.801 90.7614C977.415 91.0227 977.117 91.3636 976.909 91.7841C976.701 92.2045 976.597 92.6553 976.597 93.1364V93.9091C976.597 94.5682 976.71 95.1269 976.938 95.5852C977.169 96.0398 977.489 96.3864 977.898 96.625C978.307 96.8598 978.782 96.9773 979.324 96.9773C979.676 96.9773 979.994 96.928 980.278 96.8295C980.566 96.7273 980.814 96.5758 981.023 96.375C981.231 96.1705 981.392 95.9167 981.506 95.6136L982.801 95.9773C982.665 96.4167 982.436 96.803 982.114 97.1364C981.792 97.4659 981.394 97.7235 980.92 97.9091C980.447 98.0909 979.915 98.1818 979.324 98.1818ZM985.955 98.0909C985.674 98.0909 985.434 97.9905 985.233 97.7898C985.032 97.589 984.932 97.3485 984.932 97.0682C984.932 96.7879 985.032 96.5473 985.233 96.3466C985.434 96.1458 985.674 96.0455 985.955 96.0455C986.235 96.0455 986.475 96.1458 986.676 96.3466C986.877 96.5473 986.977 96.7879 986.977 97.0682C986.977 97.2538 986.93 97.4242 986.835 97.5795C986.744 97.7348 986.621 97.8598 986.466 97.9545C986.314 98.0455 986.144 98.0909 985.955 98.0909ZM985.955 91.6136C985.674 91.6136 985.434 91.5133 985.233 91.3125C985.032 91.1117 984.932 90.8712 984.932 90.5909C984.932 90.3106 985.032 90.0701 985.233 89.8693C985.434 89.6686 985.674 89.5682 985.955 89.5682C986.235 89.5682 986.475 89.6686 986.676 89.8693C986.877 90.0701 986.977 90.3106 986.977 90.5909C986.977 90.7765 986.93 90.947 986.835 91.1023C986.744 91.2576 986.621 91.3826 986.466 91.4773C986.314 91.5682 986.144 91.6136 985.955 91.6136ZM997.429 98.1818C996.611 98.1818 995.906 97.9886 995.315 97.6023C994.724 97.2159 994.27 96.6837 993.952 96.0057C993.634 95.3277 993.474 94.553 993.474 93.6818C993.474 92.7955 993.637 92.0133 993.963 91.3352C994.293 90.6534 994.751 90.1212 995.338 89.7386C995.929 89.3523 996.618 89.1591 997.406 89.1591C998.02 89.1591 998.573 89.2727 999.065 89.5C999.558 89.7273 999.961 90.0455 1000.28 90.4545C1000.59 90.8636 1000.79 91.3409 1000.86 91.8864H999.52C999.418 91.4886 999.19 91.1364 998.838 90.8295C998.49 90.5189 998.02 90.3636 997.429 90.3636C996.906 90.3636 996.448 90.5 996.054 90.7727C995.664 91.0417 995.359 91.4223 995.139 91.9148C994.923 92.4034 994.815 92.9773 994.815 93.6364C994.815 94.3106 994.921 94.8977 995.134 95.3977C995.349 95.8977 995.652 96.286 996.043 96.5625C996.437 96.839 996.899 96.9773 997.429 96.9773C997.777 96.9773 998.094 96.9167 998.378 96.7955C998.662 96.6742 998.902 96.5 999.099 96.2727C999.296 96.0455 999.437 95.7727 999.52 95.4545H1000.86C1000.79 95.9697 1000.6 96.4337 1000.3 96.8466C1000 97.2557 999.611 97.5814 999.122 97.8239C998.637 98.0625 998.073 98.1818 997.429 98.1818ZM1006.37 98.1818C1005.58 98.1818 1004.89 97.9943 1004.29 97.6193C1003.7 97.2443 1003.24 96.7197 1002.91 96.0455C1002.58 95.3712 1002.41 94.5833 1002.41 93.6818C1002.41 92.7727 1002.58 91.9792 1002.91 91.3011C1003.24 90.6231 1003.7 90.0966 1004.29 89.7216C1004.89 89.3466 1005.58 89.1591 1006.37 89.1591C1007.15 89.1591 1007.84 89.3466 1008.43 89.7216C1009.03 90.0966 1009.49 90.6231 1009.82 91.3011C1010.15 91.9792 1010.32 92.7727 1010.32 93.6818C1010.32 94.5833 1010.15 95.3712 1009.82 96.0455C1009.49 96.7197 1009.03 97.2443 1008.43 97.6193C1007.84 97.9943 1007.15 98.1818 1006.37 98.1818ZM1006.37 96.9773C1006.96 96.9773 1007.46 96.8239 1007.84 96.517C1008.23 96.2102 1008.52 95.8068 1008.7 95.3068C1008.89 94.8068 1008.98 94.2652 1008.98 93.6818C1008.98 93.0985 1008.89 92.5549 1008.7 92.0511C1008.52 91.5473 1008.23 91.1402 1007.84 90.8295C1007.46 90.5189 1006.96 90.3636 1006.37 90.3636C1005.77 90.3636 1005.28 90.5189 1004.89 90.8295C1004.5 91.1402 1004.22 91.5473 1004.03 92.0511C1003.85 92.5549 1003.75 93.0985 1003.75 93.6818C1003.75 94.2652 1003.85 94.8068 1004.03 95.3068C1004.22 95.8068 1004.5 96.2102 1004.89 96.517C1005.28 96.8239 1005.77 96.9773 1006.37 96.9773ZM1013.71 86.3636V98H1012.37V86.3636H1013.71ZM1019.71 98.1818C1018.92 98.1818 1018.23 97.9943 1017.64 97.6193C1017.05 97.2443 1016.58 96.7197 1016.25 96.0455C1015.92 95.3712 1015.76 94.5833 1015.76 93.6818C1015.76 92.7727 1015.92 91.9792 1016.25 91.3011C1016.58 90.6231 1017.05 90.0966 1017.64 89.7216C1018.23 89.3466 1018.92 89.1591 1019.71 89.1591C1020.5 89.1591 1021.19 89.3466 1021.78 89.7216C1022.37 90.0966 1022.84 90.6231 1023.16 91.3011C1023.5 91.9792 1023.66 92.7727 1023.66 93.6818C1023.66 94.5833 1023.5 95.3712 1023.16 96.0455C1022.84 96.7197 1022.37 97.2443 1021.78 97.6193C1021.19 97.9943 1020.5 98.1818 1019.71 98.1818ZM1019.71 96.9773C1020.31 96.9773 1020.8 96.8239 1021.19 96.517C1021.57 96.2102 1021.86 95.8068 1022.05 95.3068C1022.23 94.8068 1022.32 94.2652 1022.32 93.6818C1022.32 93.0985 1022.23 92.5549 1022.05 92.0511C1021.86 91.5473 1021.57 91.1402 1021.19 90.8295C1020.8 90.5189 1020.31 90.3636 1019.71 90.3636C1019.11 90.3636 1018.62 90.5189 1018.23 90.8295C1017.85 91.1402 1017.56 91.5473 1017.38 92.0511C1017.19 92.5549 1017.1 93.0985 1017.1 93.6818C1017.1 94.2652 1017.19 94.8068 1017.38 95.3068C1017.56 95.8068 1017.85 96.2102 1018.23 96.517C1018.62 96.8239 1019.11 96.9773 1019.71 96.9773ZM1025.71 98V89.2727H1027.01V90.5909H1027.1C1027.26 90.1591 1027.54 89.8087 1027.96 89.5398C1028.38 89.2708 1028.85 89.1364 1029.37 89.1364C1029.47 89.1364 1029.59 89.1383 1029.74 89.142C1029.89 89.1458 1030 89.1515 1030.08 89.1591V90.5227C1030.03 90.5114 1029.93 90.4943 1029.76 90.4716C1029.6 90.4451 1029.44 90.4318 1029.26 90.4318C1028.83 90.4318 1028.45 90.5208 1028.12 90.6989C1027.79 90.8731 1027.53 91.1155 1027.34 91.4261C1027.15 91.733 1027.05 92.0833 1027.05 92.4773V98H1025.71ZM1035.23 85.8182L1031.48 99.75H1030.25L1034 85.8182H1035.23ZM1040.62 89.2727V90.4091H1036.09V89.2727H1040.62ZM1037.41 87.1818H1038.75V95.5C1038.75 95.8788 1038.81 96.1629 1038.92 96.3523C1039.03 96.5379 1039.18 96.6629 1039.35 96.7273C1039.53 96.7879 1039.71 96.8182 1039.91 96.8182C1040.06 96.8182 1040.18 96.8106 1040.28 96.7955C1040.37 96.7765 1040.45 96.7614 1040.5 96.75L1040.78 97.9545C1040.68 97.9886 1040.56 98.0227 1040.39 98.0568C1040.23 98.0947 1040.03 98.1136 1039.78 98.1136C1039.4 98.1136 1039.03 98.0322 1038.66 97.8693C1038.3 97.7064 1038 97.4583 1037.76 97.125C1037.53 96.7917 1037.41 96.3712 1037.41 95.8636V87.1818ZM1044.16 92.75V98H1042.82V86.3636H1044.16V90.6364H1044.28C1044.48 90.1856 1044.79 89.8277 1045.2 89.5625C1045.61 89.2936 1046.16 89.1591 1046.84 89.1591C1047.44 89.1591 1047.96 89.2784 1048.41 89.517C1048.85 89.7519 1049.2 90.1136 1049.45 90.6023C1049.7 91.0871 1049.82 91.7045 1049.82 92.4545V98H1048.48V92.5455C1048.48 91.8523 1048.3 91.3163 1047.94 90.9375C1047.58 90.5549 1047.09 90.3636 1046.46 90.3636C1046.02 90.3636 1045.62 90.4564 1045.28 90.642C1044.93 90.8277 1044.66 91.0985 1044.46 91.4545C1044.26 91.8106 1044.16 92.2424 1044.16 92.75ZM1055.93 98.1818C1055.09 98.1818 1054.37 97.9962 1053.76 97.625C1053.15 97.25 1052.68 96.7273 1052.35 96.0568C1052.03 95.3826 1051.87 94.5985 1051.87 93.7045C1051.87 92.8106 1052.03 92.0227 1052.35 91.3409C1052.68 90.6553 1053.14 90.1212 1053.73 89.7386C1054.32 89.3523 1055.01 89.1591 1055.8 89.1591C1056.25 89.1591 1056.7 89.2348 1057.14 89.3864C1057.59 89.5379 1057.99 89.7841 1058.35 90.125C1058.72 90.4621 1059.01 90.9091 1059.22 91.4659C1059.44 92.0227 1059.55 92.7083 1059.55 93.5227V94.0909H1052.82V92.9318H1058.18C1058.18 92.4394 1058.08 92 1057.89 91.6136C1057.69 91.2273 1057.42 90.9223 1057.06 90.6989C1056.7 90.4754 1056.28 90.3636 1055.8 90.3636C1055.26 90.3636 1054.8 90.4962 1054.41 90.7614C1054.02 91.0227 1053.73 91.3636 1053.52 91.7841C1053.31 92.2045 1053.21 92.6553 1053.21 93.1364V93.9091C1053.21 94.5682 1053.32 95.1269 1053.55 95.5852C1053.78 96.0398 1054.1 96.3864 1054.51 96.625C1054.92 96.8598 1055.39 96.9773 1055.93 96.9773C1056.29 96.9773 1056.6 96.928 1056.89 96.8295C1057.18 96.7273 1057.42 96.5758 1057.63 96.375C1057.84 96.1705 1058 95.9167 1058.12 95.6136L1059.41 95.9773C1059.27 96.4167 1059.04 96.803 1058.72 97.1364C1058.4 97.4659 1058 97.7235 1057.53 97.9091C1057.06 98.0909 1056.52 98.1818 1055.93 98.1818ZM1061.59 98V89.2727H1062.88V90.6364H1063C1063.18 90.1705 1063.47 89.8087 1063.88 89.5511C1064.28 89.2898 1064.77 89.1591 1065.34 89.1591C1065.91 89.1591 1066.39 89.2898 1066.77 89.5511C1067.16 89.8087 1067.46 90.1705 1067.68 90.6364H1067.77C1067.99 90.1856 1068.33 89.8277 1068.77 89.5625C1069.22 89.2936 1069.76 89.1591 1070.38 89.1591C1071.16 89.1591 1071.8 89.4034 1072.3 89.892C1072.79 90.3769 1073.04 91.1326 1073.04 92.1591V98H1071.7V92.1591C1071.7 91.5152 1071.52 91.0549 1071.17 90.7784C1070.82 90.5019 1070.4 90.3636 1069.93 90.3636C1069.31 90.3636 1068.84 90.5492 1068.5 90.9205C1068.16 91.2879 1068 91.7538 1068 92.3182V98H1066.63V92.0227C1066.63 91.5265 1066.47 91.1269 1066.15 90.8239C1065.83 90.517 1065.41 90.3636 1064.9 90.3636C1064.56 90.3636 1064.23 90.4564 1063.93 90.642C1063.63 90.8277 1063.39 91.0852 1063.2 91.4148C1063.02 91.7405 1062.93 92.1174 1062.93 92.5455V98H1061.59ZM1079.15 98.1818C1078.31 98.1818 1077.59 97.9962 1076.98 97.625C1076.37 97.25 1075.9 96.7273 1075.57 96.0568C1075.25 95.3826 1075.08 94.5985 1075.08 93.7045C1075.08 92.8106 1075.25 92.0227 1075.57 91.3409C1075.9 90.6553 1076.36 90.1212 1076.95 89.7386C1077.54 89.3523 1078.23 89.1591 1079.02 89.1591C1079.47 89.1591 1079.92 89.2348 1080.36 89.3864C1080.81 89.5379 1081.21 89.7841 1081.57 90.125C1081.94 90.4621 1082.23 90.9091 1082.44 91.4659C1082.66 92.0227 1082.77 92.7083 1082.77 93.5227V94.0909H1076.04V92.9318H1081.4C1081.4 92.4394 1081.3 92 1081.11 91.6136C1080.91 91.2273 1080.64 90.9223 1080.28 90.6989C1079.92 90.4754 1079.5 90.3636 1079.02 90.3636C1078.48 90.3636 1078.02 90.4962 1077.63 90.7614C1077.24 91.0227 1076.95 91.3636 1076.74 91.7841C1076.53 92.2045 1076.42 92.6553 1076.42 93.1364V93.9091C1076.42 94.5682 1076.54 95.1269 1076.77 95.5852C1077 96.0398 1077.32 96.3864 1077.73 96.625C1078.13 96.8598 1078.61 96.9773 1079.15 96.9773C1079.5 96.9773 1079.82 96.928 1080.11 96.8295C1080.39 96.7273 1080.64 96.5758 1080.85 96.375C1081.06 96.1705 1081.22 95.9167 1081.33 95.6136L1082.63 95.9773C1082.49 96.4167 1082.26 96.803 1081.94 97.1364C1081.62 97.4659 1081.22 97.7235 1080.75 97.9091C1080.28 98.0909 1079.74 98.1818 1079.15 98.1818ZM1088.92 85.8182L1085.17 99.75H1083.94L1087.69 85.8182H1088.92ZM931.409 122V110.364H932.75V114.659H932.864C932.962 114.508 933.098 114.314 933.273 114.08C933.451 113.841 933.705 113.629 934.034 113.443C934.367 113.254 934.818 113.159 935.386 113.159C936.121 113.159 936.769 113.343 937.33 113.71C937.89 114.078 938.328 114.598 938.642 115.273C938.956 115.947 939.114 116.742 939.114 117.659C939.114 118.583 938.956 119.384 938.642 120.062C938.328 120.737 937.892 121.259 937.335 121.631C936.778 121.998 936.136 122.182 935.409 122.182C934.848 122.182 934.4 122.089 934.062 121.903C933.725 121.714 933.466 121.5 933.284 121.261C933.102 121.019 932.962 120.818 932.864 120.659H932.705V122H931.409ZM932.727 117.636C932.727 118.295 932.824 118.877 933.017 119.381C933.21 119.881 933.492 120.273 933.864 120.557C934.235 120.837 934.689 120.977 935.227 120.977C935.788 120.977 936.256 120.83 936.631 120.534C937.009 120.235 937.294 119.833 937.483 119.33C937.676 118.822 937.773 118.258 937.773 117.636C937.773 117.023 937.678 116.47 937.489 115.977C937.303 115.481 937.021 115.089 936.642 114.801C936.267 114.509 935.795 114.364 935.227 114.364C934.682 114.364 934.223 114.502 933.852 114.778C933.481 115.051 933.201 115.434 933.011 115.926C932.822 116.415 932.727 116.985 932.727 117.636ZM944.71 122.182C943.922 122.182 943.231 121.994 942.636 121.619C942.045 121.244 941.583 120.72 941.25 120.045C940.92 119.371 940.756 118.583 940.756 117.682C940.756 116.773 940.92 115.979 941.25 115.301C941.583 114.623 942.045 114.097 942.636 113.722C943.231 113.347 943.922 113.159 944.71 113.159C945.498 113.159 946.188 113.347 946.778 113.722C947.373 114.097 947.835 114.623 948.165 115.301C948.498 115.979 948.665 116.773 948.665 117.682C948.665 118.583 948.498 119.371 948.165 120.045C947.835 120.72 947.373 121.244 946.778 121.619C946.188 121.994 945.498 122.182 944.71 122.182ZM944.71 120.977C945.309 120.977 945.801 120.824 946.188 120.517C946.574 120.21 946.86 119.807 947.045 119.307C947.231 118.807 947.324 118.265 947.324 117.682C947.324 117.098 947.231 116.555 947.045 116.051C946.86 115.547 946.574 115.14 946.188 114.83C945.801 114.519 945.309 114.364 944.71 114.364C944.112 114.364 943.619 114.519 943.233 114.83C942.847 115.14 942.561 115.547 942.375 116.051C942.189 116.555 942.097 117.098 942.097 117.682C942.097 118.265 942.189 118.807 942.375 119.307C942.561 119.807 942.847 120.21 943.233 120.517C943.619 120.824 944.112 120.977 944.71 120.977ZM950.712 122V113.273H952.007V114.591H952.098C952.257 114.159 952.545 113.809 952.962 113.54C953.378 113.271 953.848 113.136 954.371 113.136C954.469 113.136 954.592 113.138 954.74 113.142C954.888 113.146 955 113.152 955.075 113.159V114.523C955.03 114.511 954.926 114.494 954.763 114.472C954.604 114.445 954.435 114.432 954.257 114.432C953.833 114.432 953.454 114.521 953.121 114.699C952.791 114.873 952.53 115.116 952.337 115.426C952.147 115.733 952.053 116.083 952.053 116.477V122H950.712ZM959.695 122.182C958.967 122.182 958.325 121.998 957.768 121.631C957.212 121.259 956.776 120.737 956.462 120.062C956.147 119.384 955.99 118.583 955.99 117.659C955.99 116.742 956.147 115.947 956.462 115.273C956.776 114.598 957.214 114.078 957.774 113.71C958.335 113.343 958.982 113.159 959.717 113.159C960.286 113.159 960.734 113.254 961.064 113.443C961.397 113.629 961.651 113.841 961.825 114.08C962.003 114.314 962.142 114.508 962.24 114.659H962.354V110.364H963.695V122H962.399V120.659H962.24C962.142 120.818 962.001 121.019 961.82 121.261C961.638 121.5 961.378 121.714 961.041 121.903C960.704 122.089 960.255 122.182 959.695 122.182ZM959.876 120.977C960.414 120.977 960.869 120.837 961.24 120.557C961.611 120.273 961.893 119.881 962.087 119.381C962.28 118.877 962.376 118.295 962.376 117.636C962.376 116.985 962.282 116.415 962.092 115.926C961.903 115.434 961.623 115.051 961.251 114.778C960.88 114.502 960.422 114.364 959.876 114.364C959.308 114.364 958.835 114.509 958.456 114.801C958.081 115.089 957.799 115.481 957.609 115.977C957.424 116.47 957.331 117.023 957.331 117.636C957.331 118.258 957.426 118.822 957.615 119.33C957.808 119.833 958.092 120.235 958.467 120.534C958.846 120.83 959.316 120.977 959.876 120.977ZM969.996 122.182C969.155 122.182 968.429 121.996 967.82 121.625C967.214 121.25 966.746 120.727 966.416 120.057C966.09 119.383 965.928 118.598 965.928 117.705C965.928 116.811 966.09 116.023 966.416 115.341C966.746 114.655 967.204 114.121 967.791 113.739C968.382 113.352 969.071 113.159 969.859 113.159C970.314 113.159 970.763 113.235 971.206 113.386C971.649 113.538 972.053 113.784 972.416 114.125C972.78 114.462 973.07 114.909 973.286 115.466C973.501 116.023 973.609 116.708 973.609 117.523V118.091H966.882V116.932H972.246C972.246 116.439 972.147 116 971.95 115.614C971.757 115.227 971.481 114.922 971.121 114.699C970.765 114.475 970.344 114.364 969.859 114.364C969.325 114.364 968.863 114.496 968.473 114.761C968.087 115.023 967.789 115.364 967.581 115.784C967.373 116.205 967.268 116.655 967.268 117.136V117.909C967.268 118.568 967.382 119.127 967.609 119.585C967.84 120.04 968.161 120.386 968.57 120.625C968.979 120.86 969.454 120.977 969.996 120.977C970.348 120.977 970.666 120.928 970.95 120.83C971.238 120.727 971.486 120.576 971.695 120.375C971.903 120.17 972.064 119.917 972.178 119.614L973.473 119.977C973.337 120.417 973.107 120.803 972.786 121.136C972.464 121.466 972.066 121.723 971.592 121.909C971.119 122.091 970.587 122.182 969.996 122.182ZM975.649 122V113.273H976.945V114.591H977.036C977.195 114.159 977.482 113.809 977.899 113.54C978.316 113.271 978.786 113.136 979.308 113.136C979.407 113.136 979.53 113.138 979.678 113.142C979.825 113.146 979.937 113.152 980.013 113.159V114.523C979.967 114.511 979.863 114.494 979.7 114.472C979.541 114.445 979.373 114.432 979.195 114.432C978.77 114.432 978.392 114.521 978.058 114.699C977.729 114.873 977.467 115.116 977.274 115.426C977.085 115.733 976.99 116.083 976.99 116.477V122H975.649ZM985.169 109.818L981.419 123.75H980.192L983.942 109.818H985.169ZM988.099 116.75V122H986.759V113.273H988.054V114.636H988.168C988.372 114.193 988.683 113.837 989.099 113.568C989.516 113.295 990.054 113.159 990.713 113.159C991.304 113.159 991.821 113.28 992.264 113.523C992.707 113.761 993.052 114.125 993.298 114.614C993.545 115.098 993.668 115.712 993.668 116.455V122H992.327V116.545C992.327 115.86 992.149 115.326 991.793 114.943C991.437 114.557 990.948 114.364 990.327 114.364C989.899 114.364 989.516 114.456 989.179 114.642C988.846 114.828 988.582 115.098 988.389 115.455C988.196 115.811 988.099 116.242 988.099 116.75ZM999.777 122.182C998.936 122.182 998.211 121.996 997.601 121.625C996.995 121.25 996.527 120.727 996.197 120.057C995.872 119.383 995.709 118.598 995.709 117.705C995.709 116.811 995.872 116.023 996.197 115.341C996.527 114.655 996.985 114.121 997.572 113.739C998.163 113.352 998.853 113.159 999.641 113.159C1000.1 113.159 1000.54 113.235 1000.99 113.386C1001.43 113.538 1001.83 113.784 1002.2 114.125C1002.56 114.462 1002.85 114.909 1003.07 115.466C1003.28 116.023 1003.39 116.708 1003.39 117.523V118.091H996.663V116.932H1002.03C1002.03 116.439 1001.93 116 1001.73 115.614C1001.54 115.227 1001.26 114.922 1000.9 114.699C1000.55 114.475 1000.13 114.364 999.641 114.364C999.107 114.364 998.644 114.496 998.254 114.761C997.868 115.023 997.571 115.364 997.362 115.784C997.154 116.205 997.05 116.655 997.05 117.136V117.909C997.05 118.568 997.163 119.127 997.391 119.585C997.622 120.04 997.942 120.386 998.351 120.625C998.76 120.86 999.235 120.977 999.777 120.977C1000.13 120.977 1000.45 120.928 1000.73 120.83C1001.02 120.727 1001.27 120.576 1001.48 120.375C1001.68 120.17 1001.85 119.917 1001.96 119.614L1003.25 119.977C1003.12 120.417 1002.89 120.803 1002.57 121.136C1002.24 121.466 1001.85 121.723 1001.37 121.909C1000.9 122.091 1000.37 122.182 999.777 122.182ZM1010.93 118.432V113.273H1012.27V122H1010.93V120.523H1010.84C1010.63 120.966 1010.32 121.343 1009.88 121.653C1009.45 121.96 1008.91 122.114 1008.25 122.114C1007.7 122.114 1007.22 121.994 1006.79 121.756C1006.37 121.513 1006.04 121.15 1005.79 120.665C1005.55 120.176 1005.43 119.561 1005.43 118.818V113.273H1006.77V118.727C1006.77 119.364 1006.95 119.871 1007.31 120.25C1007.67 120.629 1008.12 120.818 1008.68 120.818C1009.01 120.818 1009.35 120.733 1009.7 120.562C1010.05 120.392 1010.34 120.131 1010.57 119.778C1010.81 119.426 1010.93 118.977 1010.93 118.432ZM1018.52 113.273V114.409H1014V113.273H1018.52ZM1015.32 111.182H1016.66V119.5C1016.66 119.879 1016.71 120.163 1016.82 120.352C1016.94 120.538 1017.08 120.663 1017.26 120.727C1017.43 120.788 1017.62 120.818 1017.82 120.818C1017.97 120.818 1018.09 120.811 1018.18 120.795C1018.28 120.777 1018.35 120.761 1018.41 120.75L1018.68 121.955C1018.59 121.989 1018.46 122.023 1018.3 122.057C1018.14 122.095 1017.93 122.114 1017.68 122.114C1017.3 122.114 1016.93 122.032 1016.57 121.869C1016.21 121.706 1015.91 121.458 1015.67 121.125C1015.44 120.792 1015.32 120.371 1015.32 119.864V111.182ZM1020.54 122V113.273H1021.84V114.591H1021.93C1022.09 114.159 1022.37 113.809 1022.79 113.54C1023.21 113.271 1023.68 113.136 1024.2 113.136C1024.3 113.136 1024.42 113.138 1024.57 113.142C1024.72 113.146 1024.83 113.152 1024.9 113.159V114.523C1024.86 114.511 1024.75 114.494 1024.59 114.472C1024.43 114.445 1024.26 114.432 1024.09 114.432C1023.66 114.432 1023.28 114.521 1022.95 114.699C1022.62 114.873 1022.36 115.116 1022.16 115.426C1021.98 115.733 1021.88 116.083 1021.88 116.477V122H1020.54ZM1029.06 122.205C1028.51 122.205 1028.01 122.1 1027.56 121.892C1027.1 121.68 1026.75 121.375 1026.48 120.977C1026.22 120.576 1026.08 120.091 1026.08 119.523C1026.08 119.023 1026.18 118.617 1026.38 118.307C1026.58 117.992 1026.84 117.746 1027.17 117.568C1027.5 117.39 1027.86 117.258 1028.26 117.17C1028.66 117.08 1029.06 117.008 1029.47 116.955C1030 116.886 1030.43 116.835 1030.76 116.801C1031.09 116.763 1031.34 116.701 1031.49 116.614C1031.64 116.527 1031.72 116.375 1031.72 116.159V116.114C1031.72 115.553 1031.57 115.117 1031.26 114.807C1030.96 114.496 1030.5 114.341 1029.88 114.341C1029.24 114.341 1028.74 114.481 1028.37 114.761C1028.01 115.042 1027.75 115.341 1027.61 115.659L1026.33 115.205C1026.56 114.674 1026.86 114.261 1027.24 113.966C1027.63 113.667 1028.04 113.458 1028.49 113.341C1028.95 113.22 1029.39 113.159 1029.83 113.159C1030.11 113.159 1030.44 113.193 1030.8 113.261C1031.17 113.326 1031.52 113.46 1031.86 113.665C1032.21 113.869 1032.49 114.178 1032.72 114.591C1032.95 115.004 1033.06 115.557 1033.06 116.25V122H1031.72V120.818H1031.65C1031.56 121.008 1031.41 121.21 1031.2 121.426C1030.99 121.642 1030.7 121.826 1030.35 121.977C1030 122.129 1029.57 122.205 1029.06 122.205ZM1029.27 121C1029.8 121 1030.24 120.896 1030.61 120.688C1030.97 120.479 1031.25 120.21 1031.44 119.881C1031.63 119.551 1031.72 119.205 1031.72 118.841V117.614C1031.66 117.682 1031.54 117.744 1031.35 117.801C1031.16 117.854 1030.94 117.902 1030.69 117.943C1030.44 117.981 1030.2 118.015 1029.96 118.045C1029.73 118.072 1029.55 118.095 1029.4 118.114C1029.05 118.159 1028.73 118.233 1028.42 118.335C1028.13 118.434 1027.88 118.583 1027.7 118.784C1027.52 118.981 1027.42 119.25 1027.42 119.591C1027.42 120.057 1027.6 120.409 1027.94 120.648C1028.29 120.883 1028.73 121 1029.27 121ZM1036.85 110.364V122H1035.51V110.364H1036.85ZM1043.42 109.818L1039.67 123.75H1038.44L1042.19 109.818H1043.42ZM1048.78 122.159C1047.93 122.159 1047.2 121.926 1046.59 121.46C1045.99 120.991 1045.53 120.311 1045.21 119.42C1044.89 118.527 1044.74 117.447 1044.74 116.182C1044.74 114.924 1044.89 113.85 1045.21 112.96C1045.54 112.066 1046 111.384 1046.6 110.915C1047.21 110.441 1047.93 110.205 1048.78 110.205C1049.63 110.205 1050.36 110.441 1050.96 110.915C1051.56 111.384 1052.03 112.066 1052.34 112.96C1052.67 113.85 1052.83 114.924 1052.83 116.182C1052.83 117.447 1052.67 118.527 1052.35 119.42C1052.03 120.311 1051.57 120.991 1050.97 121.46C1050.37 121.926 1049.64 122.159 1048.78 122.159ZM1048.78 120.909C1049.63 120.909 1050.29 120.5 1050.76 119.682C1051.23 118.864 1051.46 117.697 1051.46 116.182C1051.46 115.174 1051.36 114.316 1051.14 113.608C1050.93 112.9 1050.62 112.36 1050.22 111.989C1049.82 111.617 1049.34 111.432 1048.78 111.432C1047.94 111.432 1047.28 111.847 1046.81 112.676C1046.34 113.502 1046.1 114.67 1046.1 116.182C1046.1 117.189 1046.21 118.045 1046.42 118.75C1046.63 119.455 1046.93 119.991 1047.33 120.358C1047.73 120.725 1048.22 120.909 1048.78 120.909ZM1058.92 122.159C1058.17 122.159 1057.5 122.03 1056.91 121.773C1056.33 121.515 1055.86 121.157 1055.52 120.699C1055.18 120.237 1054.99 119.701 1054.96 119.091H1056.39C1056.43 119.466 1056.55 119.79 1056.78 120.062C1057.01 120.331 1057.31 120.54 1057.67 120.688C1058.04 120.835 1058.45 120.909 1058.89 120.909C1059.39 120.909 1059.84 120.822 1060.22 120.648C1060.61 120.473 1060.91 120.231 1061.13 119.92C1061.35 119.61 1061.46 119.25 1061.46 118.841C1061.46 118.413 1061.36 118.036 1061.14 117.71C1060.93 117.381 1060.62 117.123 1060.21 116.938C1059.8 116.752 1059.3 116.659 1058.71 116.659H1057.78V115.409H1058.71C1059.18 115.409 1059.58 115.326 1059.93 115.159C1060.28 114.992 1060.56 114.758 1060.75 114.455C1060.95 114.152 1061.05 113.795 1061.05 113.386C1061.05 112.992 1060.97 112.65 1060.79 112.358C1060.62 112.066 1060.37 111.839 1060.05 111.676C1059.74 111.513 1059.37 111.432 1058.94 111.432C1058.54 111.432 1058.16 111.506 1057.8 111.653C1057.45 111.797 1057.16 112.008 1056.94 112.284C1056.72 112.557 1056.6 112.886 1056.58 113.273H1055.21C1055.24 112.663 1055.42 112.129 1055.76 111.67C1056.11 111.208 1056.56 110.848 1057.12 110.591C1057.68 110.333 1058.29 110.205 1058.96 110.205C1059.68 110.205 1060.3 110.35 1060.82 110.642C1061.33 110.93 1061.73 111.311 1062 111.784C1062.28 112.258 1062.42 112.769 1062.42 113.318C1062.42 113.973 1062.25 114.532 1061.9 114.994C1061.56 115.456 1061.1 115.777 1060.51 115.955V116.045C1061.24 116.167 1061.82 116.479 1062.23 116.983C1062.64 117.483 1062.85 118.102 1062.85 118.841C1062.85 119.473 1062.68 120.042 1062.33 120.545C1061.99 121.045 1061.53 121.439 1060.93 121.727C1060.34 122.015 1059.67 122.159 1058.92 122.159Z" fill="white" fill-opacity="0.95"/>
<defs>
<clipPath id="clip0_2165_29219">
<rect width="300" height="80" fill="white" transform="translate(0 40)"/>
</clipPath>
</defs>
</svg>
