<svg width="1150" height="360" viewBox="0 0 1150 360" fill="none" xmlns="http://www.w3.org/2000/svg">
<rect width="1150" height="360" rx="24" fill="#262626"/>
<path d="M394.168 167V156.818H395.4V165.906H400.133V167H394.168ZM404.131 167.179C403.647 167.179 403.208 167.088 402.813 166.906C402.419 166.72 402.105 166.453 401.873 166.105C401.641 165.754 401.525 165.33 401.525 164.832C401.525 164.395 401.612 164.04 401.784 163.768C401.956 163.493 402.187 163.278 402.475 163.122C402.763 162.966 403.082 162.85 403.43 162.774C403.781 162.695 404.134 162.632 404.489 162.585C404.953 162.526 405.329 162.481 405.617 162.451C405.909 162.418 406.121 162.363 406.253 162.287C406.389 162.211 406.457 162.078 406.457 161.889V161.849C406.457 161.359 406.323 160.978 406.055 160.706C405.789 160.434 405.387 160.298 404.847 160.298C404.286 160.298 403.847 160.421 403.529 160.666C403.211 160.911 402.987 161.173 402.858 161.452L401.744 161.054C401.943 160.59 402.208 160.229 402.54 159.97C402.874 159.708 403.239 159.526 403.633 159.423C404.031 159.317 404.422 159.264 404.807 159.264C405.052 159.264 405.334 159.294 405.652 159.354C405.973 159.41 406.283 159.528 406.582 159.707C406.883 159.886 407.133 160.156 407.332 160.517C407.531 160.878 407.631 161.362 407.631 161.969V167H406.457V165.966H406.398C406.318 166.132 406.186 166.309 406 166.498C405.814 166.687 405.567 166.848 405.259 166.98C404.951 167.113 404.575 167.179 404.131 167.179ZM404.31 166.125C404.774 166.125 405.165 166.034 405.483 165.852C405.804 165.669 406.046 165.434 406.209 165.146C406.374 164.857 406.457 164.554 406.457 164.236V163.162C406.408 163.222 406.298 163.276 406.129 163.326C405.963 163.372 405.771 163.414 405.552 163.45C405.337 163.483 405.127 163.513 404.921 163.54C404.719 163.563 404.555 163.583 404.429 163.599C404.124 163.639 403.839 163.704 403.574 163.793C403.312 163.879 403.1 164.01 402.937 164.186C402.778 164.358 402.699 164.594 402.699 164.892C402.699 165.3 402.85 165.608 403.151 165.817C403.456 166.022 403.842 166.125 404.31 166.125ZM409.931 167V156.818H411.104V160.577H411.204C411.29 160.444 411.409 160.275 411.562 160.07C411.718 159.861 411.94 159.675 412.228 159.513C412.52 159.347 412.914 159.264 413.411 159.264C414.054 159.264 414.621 159.425 415.112 159.746C415.602 160.068 415.985 160.524 416.26 161.114C416.535 161.704 416.673 162.4 416.673 163.202C416.673 164.01 416.535 164.711 416.26 165.305C415.985 165.895 415.604 166.352 415.117 166.677C414.629 166.998 414.068 167.159 413.431 167.159C412.941 167.159 412.548 167.078 412.253 166.915C411.958 166.75 411.731 166.562 411.572 166.354C411.413 166.142 411.29 165.966 411.204 165.827H411.065V167H409.931ZM411.085 163.182C411.085 163.759 411.169 164.267 411.338 164.708C411.507 165.146 411.754 165.489 412.079 165.737C412.404 165.982 412.801 166.105 413.272 166.105C413.763 166.105 414.172 165.976 414.5 165.717C414.832 165.455 415.08 165.104 415.246 164.663C415.415 164.219 415.499 163.725 415.499 163.182C415.499 162.645 415.417 162.161 415.251 161.73C415.088 161.296 414.841 160.953 414.51 160.701C414.182 160.446 413.769 160.318 413.272 160.318C412.795 160.318 412.394 160.439 412.069 160.681C411.744 160.92 411.499 161.254 411.333 161.685C411.167 162.113 411.085 162.612 411.085 163.182ZM421.669 167.159C420.933 167.159 420.299 166.997 419.765 166.672C419.235 166.344 418.825 165.886 418.537 165.3C418.252 164.71 418.109 164.024 418.109 163.241C418.109 162.459 418.252 161.77 418.537 161.173C418.825 160.573 419.226 160.106 419.74 159.771C420.257 159.433 420.86 159.264 421.55 159.264C421.948 159.264 422.34 159.33 422.728 159.463C423.116 159.596 423.469 159.811 423.787 160.109C424.105 160.404 424.359 160.795 424.548 161.283C424.737 161.77 424.831 162.37 424.831 163.082V163.58H418.945V162.565H423.638C423.638 162.134 423.552 161.75 423.379 161.412C423.21 161.074 422.968 160.807 422.653 160.612C422.342 160.416 421.974 160.318 421.55 160.318C421.082 160.318 420.678 160.434 420.337 160.666C419.999 160.895 419.738 161.193 419.556 161.561C419.374 161.929 419.283 162.323 419.283 162.744V163.42C419.283 163.997 419.382 164.486 419.581 164.887C419.783 165.285 420.063 165.588 420.421 165.797C420.779 166.002 421.195 166.105 421.669 166.105C421.977 166.105 422.256 166.062 422.504 165.976C422.756 165.886 422.973 165.754 423.156 165.578C423.338 165.399 423.479 165.177 423.578 164.912L424.712 165.23C424.592 165.615 424.392 165.953 424.11 166.244C423.828 166.533 423.48 166.758 423.066 166.92C422.652 167.08 422.186 167.159 421.669 167.159ZM427.789 156.818V167H426.616V156.818H427.789Z" fill="white" fill-opacity="0.95"/>
<rect x="393.435" y="180.5" width="399" height="31" rx="7.5" stroke="white" stroke-opacity="0.5"/>
<path d="M411.435 189C408.397 189 405.935 191.462 405.935 194.5C405.935 197.538 408.397 200 411.435 200C412.773 200 414 199.522 414.954 198.727L419.081 202.854C419.276 203.049 419.593 203.049 419.788 202.854C419.983 202.658 419.983 202.342 419.788 202.146L415.661 198.02C416.456 197.066 416.935 195.839 416.935 194.5C416.935 191.462 414.472 189 411.435 189ZM406.935 194.5C406.935 192.015 408.949 190 411.435 190C413.92 190 415.935 192.015 415.935 194.5C415.935 196.985 413.92 199 411.435 199C408.949 199 406.935 196.985 406.935 194.5Z" fill="white" fill-opacity="0.95"/>
<path d="M427.611 191.912V190.818H435.247V191.912H432.045V201H430.812V191.912H427.611ZM436.872 203.844C436.673 203.844 436.495 203.827 436.34 203.794C436.184 203.764 436.076 203.734 436.016 203.705L436.315 202.67C436.742 202.78 437.099 202.777 437.384 202.661C437.669 202.548 437.916 202.206 438.124 201.636L438.343 201.04L435.519 193.364H436.792L438.9 199.449H438.979L441.087 193.364L442.37 193.384L439.119 202.114C438.973 202.501 438.792 202.823 438.577 203.078C438.361 203.337 438.111 203.529 437.826 203.655C437.544 203.781 437.226 203.844 436.872 203.844ZM443.922 203.864V193.364H445.056V194.577H445.195C445.281 194.444 445.401 194.275 445.553 194.07C445.709 193.861 445.931 193.675 446.219 193.513C446.511 193.347 446.905 193.264 447.403 193.264C448.046 193.264 448.612 193.425 449.103 193.746C449.593 194.068 449.976 194.524 450.251 195.114C450.526 195.704 450.664 196.4 450.664 197.202C450.664 198.01 450.526 198.711 450.251 199.305C449.976 199.895 449.595 200.352 449.108 200.677C448.621 200.998 448.059 201.159 447.422 201.159C446.932 201.159 446.539 201.078 446.244 200.915C445.949 200.75 445.722 200.562 445.563 200.354C445.404 200.142 445.281 199.966 445.195 199.827H445.096V203.864H443.922ZM445.076 197.182C445.076 197.759 445.16 198.267 445.329 198.708C445.498 199.146 445.745 199.489 446.07 199.737C446.395 199.982 446.793 200.105 447.263 200.105C447.754 200.105 448.163 199.976 448.491 199.717C448.823 199.455 449.071 199.104 449.237 198.663C449.406 198.219 449.491 197.725 449.491 197.182C449.491 196.645 449.408 196.161 449.242 195.73C449.08 195.296 448.833 194.953 448.501 194.701C448.173 194.446 447.761 194.318 447.263 194.318C446.786 194.318 446.385 194.439 446.06 194.681C445.735 194.92 445.49 195.254 445.324 195.685C445.159 196.113 445.076 196.612 445.076 197.182ZM455.655 201.159C454.92 201.159 454.285 200.997 453.751 200.672C453.221 200.344 452.812 199.886 452.523 199.3C452.238 198.71 452.096 198.024 452.096 197.241C452.096 196.459 452.238 195.77 452.523 195.173C452.812 194.573 453.213 194.106 453.726 193.771C454.244 193.433 454.847 193.264 455.536 193.264C455.934 193.264 456.327 193.33 456.714 193.463C457.102 193.596 457.455 193.811 457.773 194.109C458.092 194.404 458.345 194.795 458.534 195.283C458.723 195.77 458.817 196.37 458.817 197.082V197.58H452.931V196.565H457.624C457.624 196.134 457.538 195.75 457.366 195.412C457.197 195.074 456.955 194.807 456.64 194.612C456.328 194.416 455.96 194.318 455.536 194.318C455.069 194.318 454.664 194.434 454.323 194.666C453.985 194.895 453.725 195.193 453.543 195.561C453.36 195.929 453.269 196.323 453.269 196.744V197.42C453.269 197.997 453.369 198.486 453.567 198.887C453.77 199.285 454.05 199.588 454.408 199.797C454.766 200.002 455.181 200.105 455.655 200.105C455.964 200.105 456.242 200.062 456.491 199.976C456.743 199.886 456.96 199.754 457.142 199.578C457.324 199.399 457.465 199.177 457.565 198.912L458.698 199.23C458.579 199.615 458.378 199.953 458.097 200.244C457.815 200.533 457.467 200.758 457.052 200.92C456.638 201.08 456.172 201.159 455.655 201.159ZM463.486 201.159C462.849 201.159 462.288 200.998 461.8 200.677C461.313 200.352 460.932 199.895 460.657 199.305C460.382 198.711 460.244 198.01 460.244 197.202C460.244 196.4 460.382 195.704 460.657 195.114C460.932 194.524 461.315 194.068 461.805 193.746C462.296 193.425 462.863 193.264 463.506 193.264C464.003 193.264 464.396 193.347 464.684 193.513C464.976 193.675 465.198 193.861 465.35 194.07C465.506 194.275 465.627 194.444 465.713 194.577H465.812V190.818H466.986V201H465.852V199.827H465.713C465.627 199.966 465.504 200.142 465.345 200.354C465.186 200.562 464.959 200.75 464.664 200.915C464.369 201.078 463.976 201.159 463.486 201.159ZM463.645 200.105C464.115 200.105 464.513 199.982 464.838 199.737C465.163 199.489 465.41 199.146 465.579 198.708C465.748 198.267 465.832 197.759 465.832 197.182C465.832 196.612 465.749 196.113 465.584 195.685C465.418 195.254 465.173 194.92 464.848 194.681C464.523 194.439 464.122 194.318 463.645 194.318C463.148 194.318 462.733 194.446 462.402 194.701C462.074 194.953 461.827 195.296 461.661 195.73C461.499 196.161 461.418 196.645 461.418 197.182C461.418 197.725 461.5 198.219 461.666 198.663C461.835 199.104 462.084 199.455 462.412 199.717C462.743 199.976 463.154 200.105 463.645 200.105ZM476.556 193.364V194.358H472.599V193.364H476.556ZM473.752 191.534H474.925V198.812C474.925 199.144 474.973 199.393 475.07 199.558C475.169 199.721 475.295 199.83 475.447 199.886C475.603 199.939 475.767 199.966 475.94 199.966C476.069 199.966 476.175 199.959 476.258 199.946C476.341 199.929 476.407 199.916 476.457 199.906L476.695 200.96C476.616 200.99 476.505 201.02 476.362 201.05C476.22 201.083 476.039 201.099 475.82 201.099C475.489 201.099 475.164 201.028 474.846 200.886C474.531 200.743 474.269 200.526 474.06 200.234C473.855 199.943 473.752 199.575 473.752 199.131V191.534ZM481.441 201.159C480.705 201.159 480.07 200.997 479.536 200.672C479.006 200.344 478.597 199.886 478.309 199.3C478.023 198.71 477.881 198.024 477.881 197.241C477.881 196.459 478.023 195.77 478.309 195.173C478.597 194.573 478.998 194.106 479.512 193.771C480.029 193.433 480.632 193.264 481.321 193.264C481.719 193.264 482.112 193.33 482.5 193.463C482.887 193.596 483.24 193.811 483.559 194.109C483.877 194.404 484.13 194.795 484.319 195.283C484.508 195.77 484.603 196.37 484.603 197.082V197.58H478.716V196.565H483.409C483.409 196.134 483.323 195.75 483.151 195.412C482.982 195.074 482.74 194.807 482.425 194.612C482.113 194.416 481.746 194.318 481.321 194.318C480.854 194.318 480.45 194.434 480.108 194.666C479.77 194.895 479.51 195.193 479.328 195.561C479.145 195.929 479.054 196.323 479.054 196.744V197.42C479.054 197.997 479.154 198.486 479.353 198.887C479.555 199.285 479.835 199.588 480.193 199.797C480.551 200.002 480.967 200.105 481.441 200.105C481.749 200.105 482.027 200.062 482.276 199.976C482.528 199.886 482.745 199.754 482.927 199.578C483.109 199.399 483.25 199.177 483.35 198.912L484.483 199.23C484.364 199.615 484.163 199.953 483.882 200.244C483.6 200.533 483.252 200.758 482.838 200.92C482.423 201.08 481.958 201.159 481.441 201.159ZM487.057 193.364L488.887 196.486L490.716 193.364H492.069L489.603 197.182L492.069 201H490.716L488.887 198.037L487.057 201H485.705L488.131 197.182L485.705 193.364H487.057ZM497.064 193.364V194.358H493.106V193.364H497.064ZM494.26 191.534H495.433V198.812C495.433 199.144 495.481 199.393 495.577 199.558C495.677 199.721 495.803 199.83 495.955 199.886C496.111 199.939 496.275 199.966 496.447 199.966C496.577 199.966 496.683 199.959 496.766 199.946C496.848 199.929 496.915 199.916 496.964 199.906L497.203 200.96C497.123 200.99 497.012 201.02 496.87 201.05C496.727 201.083 496.547 201.099 496.328 201.099C495.997 201.099 495.672 201.028 495.354 200.886C495.039 200.743 494.777 200.526 494.568 200.234C494.363 199.943 494.26 199.575 494.26 199.131V191.534Z" fill="white" fill-opacity="0.95"/>
<path d="M777.642 196L781.788 191.854C781.835 191.807 781.871 191.752 781.896 191.691C781.922 191.631 781.935 191.566 781.935 191.5C781.935 191.434 781.922 191.369 781.896 191.309C781.871 191.248 781.835 191.193 781.788 191.146C781.742 191.1 781.687 191.063 781.626 191.038C781.565 191.013 781.5 191 781.435 191C781.369 191 781.304 191.013 781.243 191.038C781.183 191.063 781.128 191.1 781.081 191.146L776.935 195.293L772.788 191.146C772.742 191.1 772.687 191.062 772.626 191.037C772.565 191.011 772.5 190.998 772.434 190.998C772.368 190.998 772.303 191.011 772.242 191.036C772.181 191.061 772.126 191.098 772.079 191.144C772.032 191.191 771.996 191.246 771.97 191.307C771.945 191.368 771.932 191.434 771.933 191.499C771.933 191.565 771.946 191.631 771.972 191.691C771.997 191.752 772.034 191.807 772.081 191.854L776.228 196L772.081 200.147C772.035 200.193 771.998 200.248 771.973 200.309C771.948 200.369 771.935 200.434 771.935 200.5C771.935 200.566 771.948 200.631 771.973 200.691C771.998 200.752 772.035 200.807 772.081 200.854C772.128 200.9 772.183 200.937 772.243 200.962C772.304 200.987 772.369 201 772.435 201C772.5 201 772.565 200.987 772.626 200.962C772.687 200.937 772.742 200.9 772.788 200.854L776.935 196.707L781.081 200.854C781.175 200.947 781.302 201 781.435 201C781.567 201 781.694 200.947 781.788 200.854C781.882 200.76 781.935 200.633 781.935 200.5C781.935 200.367 781.882 200.24 781.788 200.147L777.642 196Z" fill="white" fill-opacity="0.95"/>
<path d="M359.494 195.785H360.471C360.763 195.785 361.018 195.746 361.237 195.669C361.456 195.587 361.636 195.473 361.777 195.327C361.909 195.2 362.009 195.042 362.078 194.855C362.151 194.664 362.187 194.459 362.187 194.24C362.187 194.003 362.153 193.791 362.085 193.604C362.021 193.418 361.925 193.258 361.798 193.126C361.67 193.003 361.508 192.907 361.312 192.839C361.121 192.771 360.9 192.736 360.649 192.736C360.426 192.736 360.218 192.771 360.027 192.839C359.84 192.903 359.678 192.996 359.542 193.119C359.4 193.242 359.289 193.39 359.207 193.563C359.129 193.737 359.091 193.93 359.091 194.145H357.457C357.457 193.748 357.536 193.383 357.696 193.051C357.855 192.718 358.077 192.429 358.359 192.183C358.642 191.941 358.974 191.752 359.357 191.615C359.744 191.479 360.168 191.41 360.629 191.41C361.098 191.41 361.529 191.472 361.921 191.595C362.317 191.713 362.654 191.891 362.932 192.128C363.215 192.369 363.434 192.666 363.589 193.017C363.744 193.368 363.821 193.775 363.821 194.24C363.821 194.445 363.789 194.65 363.725 194.855C363.666 195.061 363.575 195.259 363.452 195.45C363.329 195.637 363.174 195.812 362.987 195.977C362.8 196.141 362.581 196.28 362.331 196.394C362.627 196.494 362.878 196.626 363.083 196.79C363.292 196.95 363.463 197.13 363.595 197.33C363.728 197.535 363.823 197.756 363.882 197.993C363.942 198.226 363.971 198.467 363.971 198.718C363.971 199.183 363.885 199.597 363.712 199.962C363.543 200.322 363.311 200.625 363.014 200.871C362.714 201.122 362.358 201.313 361.948 201.445C361.542 201.573 361.103 201.637 360.629 201.637C360.2 201.637 359.788 201.577 359.391 201.459C358.995 201.34 358.646 201.163 358.345 200.926C358.045 200.689 357.803 200.397 357.621 200.051C357.443 199.7 357.354 199.292 357.354 198.827H358.988C358.988 199.046 359.027 199.249 359.104 199.436C359.186 199.618 359.302 199.773 359.453 199.9C359.599 200.033 359.772 200.135 359.972 200.208C360.177 200.281 360.403 200.317 360.649 200.317C360.913 200.317 361.15 200.283 361.36 200.215C361.574 200.142 361.754 200.035 361.9 199.894C362.041 199.761 362.148 199.597 362.221 199.401C362.299 199.201 362.338 198.973 362.338 198.718C362.338 198.431 362.294 198.185 362.208 197.979C362.121 197.774 361.996 197.604 361.832 197.467C361.668 197.335 361.469 197.237 361.237 197.173C361.009 197.104 360.754 197.07 360.471 197.07H359.494V195.785ZM372.369 201.5H365.691V200.365L368.931 196.838C369.2 196.542 369.425 196.277 369.608 196.045C369.79 195.808 369.938 195.591 370.052 195.396C370.161 195.2 370.239 195.017 370.284 194.849C370.335 194.675 370.36 194.502 370.36 194.329C370.36 194.097 370.326 193.885 370.257 193.693C370.189 193.502 370.089 193.338 369.956 193.201C369.824 193.064 369.665 192.957 369.478 192.88C369.296 192.802 369.09 192.764 368.863 192.764C368.571 192.764 368.318 192.805 368.104 192.887C367.89 192.969 367.712 193.085 367.571 193.235C367.425 193.395 367.315 193.589 367.242 193.816C367.17 194.04 367.133 194.295 367.133 194.582H365.492C365.492 194.149 365.572 193.741 365.732 193.358C365.891 192.971 366.119 192.634 366.415 192.347C366.707 192.06 367.062 191.832 367.482 191.663C367.906 191.494 368.377 191.41 368.897 191.41C369.384 191.41 369.82 191.481 370.202 191.622C370.59 191.763 370.916 191.959 371.18 192.21C371.44 192.461 371.638 192.761 371.775 193.112C371.911 193.459 371.98 193.841 371.98 194.261C371.98 194.575 371.927 194.881 371.823 195.177C371.722 195.468 371.583 195.758 371.406 196.045C371.223 196.332 371.007 196.621 370.756 196.913C370.51 197.205 370.241 197.506 369.95 197.815L367.735 200.181H372.369V201.5Z" fill="#C7A5FA"/>
<rect width="16" height="1" transform="translate(375.543 180.5)" fill="#C7A5FA"/>
<rect width="1" height="30" transform="translate(383.043 181.5)" fill="#C7A5FA"/>
<rect width="16" height="1" transform="translate(375.543 211.5)" fill="#C7A5FA"/>
<path d="M424.657 118.979V120.469H424.548C424.028 120.469 423.57 120.539 423.174 120.681C422.782 120.817 422.451 121.011 422.183 121.262C421.909 121.517 421.693 121.822 421.533 122.178C421.378 122.529 421.283 122.914 421.246 123.333C421.355 123.215 421.479 123.098 421.615 122.984C421.757 122.87 421.916 122.768 422.094 122.677C422.262 122.59 422.447 122.52 422.647 122.465C422.853 122.41 423.071 122.383 423.304 122.383C423.782 122.383 424.197 122.474 424.548 122.656C424.903 122.839 425.2 123.082 425.437 123.388C425.674 123.698 425.849 124.055 425.963 124.461C426.077 124.867 426.134 125.29 426.134 125.732C426.134 126.211 426.059 126.658 425.908 127.072C425.762 127.487 425.548 127.847 425.266 128.152C424.983 128.458 424.639 128.699 424.233 128.877C423.828 129.05 423.372 129.137 422.866 129.137C422.338 129.137 421.861 129.036 421.438 128.836C421.018 128.635 420.665 128.362 420.378 128.016C420.077 127.665 419.847 127.25 419.688 126.771C419.533 126.288 419.455 125.771 419.455 125.22V124.516C419.455 123.718 419.56 122.971 419.77 122.273C419.979 121.572 420.312 120.968 420.768 120.462C421.182 119.993 421.697 119.628 422.312 119.368C422.928 119.108 423.636 118.979 424.438 118.979H424.657ZM422.818 123.812C422.632 123.812 422.454 123.839 422.285 123.894C422.117 123.948 421.962 124.028 421.82 124.133C421.693 124.224 421.579 124.333 421.479 124.461C421.378 124.589 421.294 124.728 421.226 124.878V125.411C421.226 125.789 421.267 126.122 421.349 126.409C421.431 126.696 421.545 126.936 421.69 127.127C421.836 127.318 422.007 127.464 422.203 127.564C422.399 127.66 422.611 127.708 422.839 127.708C423.076 127.708 423.29 127.66 423.481 127.564C423.673 127.464 423.837 127.327 423.974 127.154C424.106 126.986 424.206 126.783 424.274 126.546C424.347 126.309 424.384 126.049 424.384 125.767C424.384 125.493 424.35 125.238 424.281 125.001C424.213 124.759 424.11 124.55 423.974 124.372C423.841 124.199 423.677 124.062 423.481 123.962C423.29 123.862 423.069 123.812 422.818 123.812Z" fill="#FEB73D"/>
<path d="M422.887 199.667C424.359 199.667 425.553 198.473 425.553 197C425.553 195.527 424.359 194.333 422.887 194.333C421.414 194.333 420.22 195.527 420.22 197C420.22 198.473 421.414 199.667 422.887 199.667ZM423.387 197L423.387 138L422.387 138L422.387 197L423.387 197Z" fill="#EC6400"/>
<path d="M398.029 129H396.245V121.214L393.709 122.137V120.585L397.927 119.047H398.029V129ZM408.324 129H401.591V127.783L404.817 124.29C405.077 124.007 405.296 123.752 405.474 123.524C405.651 123.292 405.795 123.08 405.904 122.889C406.014 122.702 406.091 122.526 406.137 122.362C406.187 122.194 406.212 122.03 406.212 121.87C406.212 121.638 406.178 121.433 406.109 121.255C406.046 121.073 405.952 120.915 405.829 120.783C405.701 120.656 405.551 120.558 405.378 120.489C405.205 120.416 405.013 120.38 404.804 120.38C404.53 120.38 404.291 120.419 404.086 120.496C403.885 120.574 403.717 120.683 403.58 120.824C403.443 120.975 403.339 121.159 403.266 121.378C403.197 121.597 403.163 121.845 403.163 122.123H401.386C401.386 121.686 401.468 121.273 401.632 120.886C401.796 120.494 402.031 120.152 402.336 119.86C402.632 119.564 402.994 119.332 403.423 119.163C403.851 118.994 404.327 118.91 404.852 118.91C405.348 118.91 405.79 118.981 406.178 119.122C406.565 119.263 406.891 119.459 407.155 119.71C407.415 119.965 407.613 120.271 407.75 120.626C407.887 120.977 407.955 121.364 407.955 121.788C407.955 122.112 407.903 122.422 407.798 122.718C407.698 123.014 407.556 123.308 407.374 123.6C407.187 123.887 406.964 124.181 406.704 124.481C406.449 124.778 406.169 125.085 405.863 125.404L403.819 127.578H408.324V129Z" fill="#FEB73D"/>
<path d="M400.887 199.667C402.359 199.667 403.553 198.473 403.553 197C403.553 195.527 402.359 194.333 400.887 194.333C399.414 194.333 398.22 195.527 398.22 197C398.22 198.473 399.414 199.667 400.887 199.667ZM401.387 197L401.387 138L400.387 138L400.387 197L401.387 197Z" fill="#EC6400"/>
<path d="M440.957 110.078L441.511 105.047H446.945V106.578H442.967L442.721 108.868C442.876 108.777 443.083 108.688 443.343 108.602C443.607 108.515 443.91 108.472 444.252 108.472C444.726 108.472 445.15 108.549 445.523 108.704C445.897 108.859 446.214 109.08 446.474 109.367C446.729 109.654 446.925 110.005 447.062 110.42C447.198 110.83 447.267 111.295 447.267 111.814C447.267 112.27 447.201 112.699 447.068 113.1C446.936 113.501 446.736 113.852 446.467 114.152C446.198 114.458 445.858 114.699 445.448 114.877C445.038 115.05 444.555 115.137 443.999 115.137C443.575 115.137 443.167 115.075 442.775 114.952C442.383 114.825 442.037 114.64 441.736 114.398C441.431 114.157 441.183 113.858 440.991 113.503C440.8 113.147 440.695 112.74 440.677 112.279H442.406C442.461 112.74 442.627 113.095 442.905 113.346C443.188 113.592 443.55 113.715 443.992 113.715C444.257 113.715 444.484 113.667 444.676 113.571C444.867 113.471 445.024 113.334 445.147 113.161C445.266 112.983 445.353 112.774 445.407 112.532C445.466 112.291 445.496 112.029 445.496 111.746C445.496 111.473 445.46 111.22 445.387 110.987C445.318 110.755 445.214 110.554 445.072 110.386C444.926 110.222 444.746 110.094 444.532 110.003C444.323 109.907 444.074 109.859 443.787 109.859C443.596 109.859 443.429 109.875 443.288 109.907C443.147 109.939 443.021 109.98 442.912 110.03C442.807 110.08 442.709 110.14 442.618 110.208C442.532 110.276 442.447 110.352 442.365 110.434L440.957 110.078ZM451.177 113.961C451.177 113.624 451.284 113.339 451.498 113.106C451.717 112.874 452.024 112.758 452.421 112.758C452.817 112.758 453.125 112.874 453.344 113.106C453.567 113.334 453.679 113.619 453.679 113.961C453.679 114.298 453.565 114.578 453.337 114.802C453.114 115.025 452.808 115.137 452.421 115.137C452.034 115.137 451.728 115.025 451.505 114.802C451.286 114.574 451.177 114.294 451.177 113.961ZM457.773 110.078L458.327 105.047H463.762V106.578H459.783L459.537 108.868C459.692 108.777 459.899 108.688 460.159 108.602C460.424 108.515 460.727 108.472 461.068 108.472C461.542 108.472 461.966 108.549 462.34 108.704C462.714 108.859 463.03 109.08 463.29 109.367C463.545 109.654 463.741 110.005 463.878 110.42C464.015 110.83 464.083 111.295 464.083 111.814C464.083 112.27 464.017 112.699 463.885 113.1C463.753 113.501 463.552 113.852 463.283 114.152C463.014 114.458 462.675 114.699 462.265 114.877C461.854 115.05 461.371 115.137 460.815 115.137C460.392 115.137 459.984 115.075 459.592 114.952C459.2 114.825 458.854 114.64 458.553 114.398C458.247 114.157 457.999 113.858 457.808 113.503C457.616 113.147 457.511 112.74 457.493 112.279H459.223C459.277 112.74 459.444 113.095 459.722 113.346C460.004 113.592 460.367 113.715 460.809 113.715C461.073 113.715 461.301 113.667 461.492 113.571C461.684 113.471 461.841 113.334 461.964 113.161C462.082 112.983 462.169 112.774 462.224 112.532C462.283 112.291 462.312 112.029 462.312 111.746C462.312 111.473 462.276 111.22 462.203 110.987C462.135 110.755 462.03 110.554 461.889 110.386C461.743 110.222 461.563 110.094 461.349 110.003C461.139 109.907 460.891 109.859 460.604 109.859C460.412 109.859 460.246 109.875 460.104 109.907C459.963 109.939 459.838 109.98 459.729 110.03C459.624 110.08 459.526 110.14 459.435 110.208C459.348 110.276 459.264 110.352 459.182 110.434L457.773 110.078Z" fill="#FEB73D"/>
<path d="M452.387 185.667C453.859 185.667 455.053 184.473 455.053 183C455.053 181.527 453.859 180.333 452.387 180.333C450.914 180.333 449.72 181.527 449.72 183C449.72 184.473 450.914 185.667 452.387 185.667ZM452.887 183L452.887 124L451.887 124L451.887 183L452.887 183Z" fill="#EC6400"/>
<path d="M782.1 129H780.315V121.214L777.779 122.137V120.585L781.997 119.047H782.1V129ZM792.395 129H785.661V127.783L788.888 124.29C789.147 124.007 789.366 123.752 789.544 123.524C789.722 123.292 789.865 123.08 789.975 122.889C790.084 122.702 790.161 122.526 790.207 122.362C790.257 122.194 790.282 122.03 790.282 121.87C790.282 121.638 790.248 121.433 790.18 121.255C790.116 121.073 790.022 120.915 789.899 120.783C789.772 120.656 789.621 120.558 789.448 120.489C789.275 120.416 789.084 120.38 788.874 120.38C788.601 120.38 788.361 120.419 788.156 120.496C787.956 120.574 787.787 120.683 787.65 120.824C787.514 120.975 787.409 121.159 787.336 121.378C787.268 121.597 787.233 121.845 787.233 122.123H785.456C785.456 121.686 785.538 121.273 785.702 120.886C785.866 120.494 786.101 120.152 786.406 119.86C786.702 119.564 787.065 119.332 787.493 119.163C787.922 118.994 788.398 118.91 788.922 118.91C789.419 118.91 789.861 118.981 790.248 119.122C790.635 119.263 790.961 119.459 791.226 119.71C791.485 119.965 791.684 120.271 791.82 120.626C791.957 120.977 792.025 121.364 792.025 121.788C792.025 122.112 791.973 122.422 791.868 122.718C791.768 123.014 791.627 123.308 791.444 123.6C791.257 123.887 791.034 124.181 790.774 124.481C790.519 124.778 790.239 125.085 789.934 125.404L787.89 127.578H792.395V129Z" fill="#FEB73D"/>
<path d="M784.957 199.667C786.43 199.667 787.624 198.473 787.624 197C787.624 195.527 786.43 194.333 784.957 194.333C783.484 194.333 782.29 195.527 782.29 197C782.29 198.473 783.484 199.667 784.957 199.667ZM785.457 197L785.457 138L784.457 138L784.457 197L785.457 197Z" fill="#EC6400"/>
<path d="M553.969 201.667C555.442 201.667 556.635 200.473 556.635 199C556.635 197.527 555.442 196.333 553.969 196.333C552.496 196.333 551.302 197.527 551.302 199C551.302 200.473 552.496 201.667 553.969 201.667ZM554.469 236L554.469 199L553.469 199L553.469 236L554.469 236Z" fill="#EC6400"/>
<path d="M556.238 251.377H557.441V252.806H556.238V255H554.468V252.806H550.25L550.188 251.712L554.434 245.047H556.238V251.377ZM551.959 251.377H554.468V247.419L554.283 247.761L551.959 251.377Z" fill="#FEB73D"/>
<path d="M760.969 199.667C762.442 199.667 763.635 198.473 763.635 197C763.635 195.527 762.442 194.333 760.969 194.333C759.496 194.333 758.302 195.527 758.302 197C758.302 198.473 759.496 199.667 760.969 199.667ZM761.469 234L761.469 197L760.469 197L760.469 234L761.469 234Z" fill="#EC6400"/>
<path d="M762.739 242.979V244.469H762.63C762.11 244.469 761.652 244.539 761.256 244.681C760.864 244.817 760.534 245.011 760.265 245.262C759.991 245.517 759.775 245.822 759.615 246.178C759.46 246.529 759.365 246.914 759.328 247.333C759.438 247.215 759.561 247.098 759.697 246.984C759.839 246.87 759.998 246.768 760.176 246.677C760.344 246.59 760.529 246.52 760.729 246.465C760.935 246.41 761.153 246.383 761.386 246.383C761.864 246.383 762.279 246.474 762.63 246.656C762.985 246.839 763.282 247.082 763.519 247.388C763.756 247.698 763.931 248.055 764.045 248.461C764.159 248.867 764.216 249.29 764.216 249.732C764.216 250.211 764.141 250.658 763.99 251.072C763.844 251.487 763.63 251.847 763.348 252.152C763.065 252.458 762.721 252.699 762.315 252.877C761.91 253.05 761.454 253.137 760.948 253.137C760.42 253.137 759.943 253.036 759.52 252.836C759.1 252.635 758.747 252.362 758.46 252.016C758.159 251.665 757.929 251.25 757.77 250.771C757.615 250.288 757.537 249.771 757.537 249.22V248.516C757.537 247.718 757.642 246.971 757.852 246.273C758.061 245.572 758.394 244.968 758.85 244.462C759.264 243.993 759.779 243.628 760.395 243.368C761.01 243.108 761.718 242.979 762.521 242.979H762.739ZM760.9 247.812C760.714 247.812 760.536 247.839 760.367 247.894C760.199 247.948 760.044 248.028 759.902 248.133C759.775 248.224 759.661 248.333 759.561 248.461C759.46 248.589 759.376 248.728 759.308 248.878V249.411C759.308 249.789 759.349 250.122 759.431 250.409C759.513 250.696 759.627 250.936 759.772 251.127C759.918 251.318 760.089 251.464 760.285 251.564C760.481 251.66 760.693 251.708 760.921 251.708C761.158 251.708 761.372 251.66 761.563 251.564C761.755 251.464 761.919 251.327 762.056 251.154C762.188 250.986 762.288 250.783 762.356 250.546C762.429 250.309 762.466 250.049 762.466 249.767C762.466 249.493 762.432 249.238 762.363 249.001C762.295 248.759 762.192 248.55 762.056 248.372C761.924 248.199 761.759 248.062 761.563 247.962C761.372 247.862 761.151 247.812 760.9 247.812Z" fill="#FEB73D"/>
</svg>
