<svg width="244" height="232" viewBox="0 0 244 232" fill="none" xmlns="http://www.w3.org/2000/svg">
<mask id="path-1-inside-1_2165_29181" fill="white">
<path d="M0 0H244V232H0V0Z"/>
</mask>
<path d="M0 0H244V232H0V0Z" fill="#1A1A1A"/>
<path d="M244 232V233H245V232H244ZM243 0V232H245V0H243ZM244 231H0V233H244V231Z" fill="#707070" mask="url(#path-1-inside-1_2165_29181)"/>
<path d="M31.4091 122V110.364H35.3409C36.2538 110.364 37 110.528 37.5795 110.858C38.1629 111.184 38.5947 111.625 38.875 112.182C39.1553 112.739 39.2955 113.36 39.2955 114.045C39.2955 114.731 39.1553 115.354 38.875 115.915C38.5985 116.475 38.1705 116.922 37.5909 117.256C37.0114 117.585 36.2689 117.75 35.3636 117.75H32.5455V116.5H35.3182C35.9432 116.5 36.4451 116.392 36.8239 116.176C37.2027 115.96 37.4773 115.669 37.6477 115.301C37.822 114.93 37.9091 114.511 37.9091 114.045C37.9091 113.58 37.822 113.163 37.6477 112.795C37.4773 112.428 37.2008 112.14 36.8182 111.932C36.4356 111.72 35.928 111.614 35.2955 111.614H32.8182V122H31.4091ZM42.7244 110.364V122H41.3835V110.364H42.7244ZM47.7486 122.205C47.1955 122.205 46.6937 122.1 46.2429 121.892C45.7921 121.68 45.4342 121.375 45.169 120.977C44.9039 120.576 44.7713 120.091 44.7713 119.523C44.7713 119.023 44.8698 118.617 45.0668 118.307C45.2637 117.992 45.527 117.746 45.8565 117.568C46.1861 117.39 46.5497 117.258 46.9474 117.17C47.349 117.08 47.7524 117.008 48.1577 116.955C48.688 116.886 49.1179 116.835 49.4474 116.801C49.7808 116.763 50.0232 116.701 50.1747 116.614C50.33 116.527 50.4077 116.375 50.4077 116.159V116.114C50.4077 115.553 50.2543 115.117 49.9474 114.807C49.6444 114.496 49.1842 114.341 48.5668 114.341C47.9266 114.341 47.4247 114.481 47.0611 114.761C46.6974 115.042 46.4418 115.341 46.294 115.659L45.0213 115.205C45.2486 114.674 45.5516 114.261 45.9304 113.966C46.313 113.667 46.7296 113.458 47.1804 113.341C47.6349 113.22 48.0819 113.159 48.5213 113.159C48.8016 113.159 49.1236 113.193 49.4872 113.261C49.8546 113.326 50.2088 113.46 50.5497 113.665C50.8944 113.869 51.1804 114.178 51.4077 114.591C51.6349 115.004 51.7486 115.557 51.7486 116.25V122H50.4077V120.818H50.3395C50.2486 121.008 50.0971 121.21 49.8849 121.426C49.6728 121.642 49.3906 121.826 49.0384 121.977C48.6861 122.129 48.2562 122.205 47.7486 122.205ZM47.9531 121C48.4834 121 48.9304 120.896 49.294 120.688C49.6615 120.479 49.938 120.21 50.1236 119.881C50.313 119.551 50.4077 119.205 50.4077 118.841V117.614C50.3509 117.682 50.2259 117.744 50.0327 117.801C49.8433 117.854 49.6236 117.902 49.3736 117.943C49.1274 117.981 48.8868 118.015 48.652 118.045C48.4209 118.072 48.2334 118.095 48.0895 118.114C47.741 118.159 47.4152 118.233 47.1122 118.335C46.813 118.434 46.5705 118.583 46.3849 118.784C46.2031 118.981 46.1122 119.25 46.1122 119.591C46.1122 120.057 46.2846 120.409 46.6293 120.648C46.9777 120.883 47.419 121 47.9531 121ZM57.7415 122.182C56.9233 122.182 56.2188 121.989 55.6278 121.602C55.0369 121.216 54.5824 120.684 54.2642 120.006C53.946 119.328 53.7869 118.553 53.7869 117.682C53.7869 116.795 53.9498 116.013 54.2756 115.335C54.6051 114.653 55.0634 114.121 55.6506 113.739C56.2415 113.352 56.9309 113.159 57.7188 113.159C58.3324 113.159 58.8854 113.273 59.3778 113.5C59.8703 113.727 60.2737 114.045 60.5881 114.455C60.9025 114.864 61.0975 115.341 61.1733 115.886H59.8324C59.7301 115.489 59.5028 115.136 59.1506 114.83C58.8021 114.519 58.3324 114.364 57.7415 114.364C57.2188 114.364 56.7604 114.5 56.3665 114.773C55.9763 115.042 55.6714 115.422 55.4517 115.915C55.2358 116.403 55.1278 116.977 55.1278 117.636C55.1278 118.311 55.2339 118.898 55.446 119.398C55.6619 119.898 55.965 120.286 56.3551 120.562C56.7491 120.839 57.2112 120.977 57.7415 120.977C58.09 120.977 58.4062 120.917 58.6903 120.795C58.9744 120.674 59.215 120.5 59.4119 120.273C59.6089 120.045 59.7491 119.773 59.8324 119.455H61.1733C61.0975 119.97 60.91 120.434 60.6108 120.847C60.3153 121.256 59.9233 121.581 59.4347 121.824C58.9498 122.062 58.3854 122.182 57.7415 122.182ZM66.7926 122.182C65.9517 122.182 65.2263 121.996 64.6165 121.625C64.0104 121.25 63.5426 120.727 63.2131 120.057C62.8873 119.383 62.7244 118.598 62.7244 117.705C62.7244 116.811 62.8873 116.023 63.2131 115.341C63.5426 114.655 64.0009 114.121 64.5881 113.739C65.179 113.352 65.8684 113.159 66.6562 113.159C67.1108 113.159 67.5597 113.235 68.0028 113.386C68.446 113.538 68.8494 113.784 69.2131 114.125C69.5767 114.462 69.8665 114.909 70.0824 115.466C70.2983 116.023 70.4062 116.708 70.4062 117.523V118.091H63.679V116.932H69.0426C69.0426 116.439 68.9441 116 68.7472 115.614C68.554 115.227 68.2775 114.922 67.9176 114.699C67.5616 114.475 67.1411 114.364 66.6562 114.364C66.1222 114.364 65.66 114.496 65.2699 114.761C64.8835 115.023 64.5862 115.364 64.3778 115.784C64.1695 116.205 64.0653 116.655 64.0653 117.136V117.909C64.0653 118.568 64.179 119.127 64.4062 119.585C64.6373 120.04 64.9574 120.386 65.3665 120.625C65.7756 120.86 66.2509 120.977 66.7926 120.977C67.1449 120.977 67.4631 120.928 67.7472 120.83C68.035 120.727 68.2831 120.576 68.4915 120.375C68.6998 120.17 68.8608 119.917 68.9744 119.614L70.2699 119.977C70.1335 120.417 69.9044 120.803 69.5824 121.136C69.2604 121.466 68.8627 121.723 68.3892 121.909C67.9157 122.091 67.3835 122.182 66.7926 122.182ZM73.7869 116.75V122H72.446V110.364H73.7869V114.636H73.9006C74.1051 114.186 74.4119 113.828 74.821 113.562C75.2339 113.294 75.7831 113.159 76.4688 113.159C77.0634 113.159 77.5843 113.278 78.0312 113.517C78.4782 113.752 78.8248 114.114 79.071 114.602C79.321 115.087 79.446 115.705 79.446 116.455V122H78.1051V116.545C78.1051 115.852 77.9252 115.316 77.5653 114.938C77.2093 114.555 76.715 114.364 76.0824 114.364C75.643 114.364 75.2491 114.456 74.9006 114.642C74.5559 114.828 74.2831 115.098 74.0824 115.455C73.8854 115.811 73.7869 116.242 73.7869 116.75ZM85.4446 122.182C84.6567 122.182 83.9654 121.994 83.3707 121.619C82.7798 121.244 82.3177 120.72 81.9844 120.045C81.6548 119.371 81.4901 118.583 81.4901 117.682C81.4901 116.773 81.6548 115.979 81.9844 115.301C82.3177 114.623 82.7798 114.097 83.3707 113.722C83.9654 113.347 84.6567 113.159 85.4446 113.159C86.2325 113.159 86.9219 113.347 87.5128 113.722C88.1075 114.097 88.5696 114.623 88.8991 115.301C89.2325 115.979 89.3991 116.773 89.3991 117.682C89.3991 118.583 89.2325 119.371 88.8991 120.045C88.5696 120.72 88.1075 121.244 87.5128 121.619C86.9219 121.994 86.2325 122.182 85.4446 122.182ZM85.4446 120.977C86.0431 120.977 86.5355 120.824 86.9219 120.517C87.3082 120.21 87.5942 119.807 87.7798 119.307C87.9654 118.807 88.0582 118.265 88.0582 117.682C88.0582 117.098 87.9654 116.555 87.7798 116.051C87.5942 115.547 87.3082 115.14 86.9219 114.83C86.5355 114.519 86.0431 114.364 85.4446 114.364C84.8461 114.364 84.3537 114.519 83.9673 114.83C83.581 115.14 83.295 115.547 83.1094 116.051C82.9238 116.555 82.831 117.098 82.831 117.682C82.831 118.265 82.9238 118.807 83.1094 119.307C83.295 119.807 83.581 120.21 83.9673 120.517C84.3537 120.824 84.8461 120.977 85.4446 120.977ZM92.7869 110.364V122H91.446V110.364H92.7869ZM98.5384 122.182C97.8111 122.182 97.169 121.998 96.6122 121.631C96.0554 121.259 95.6198 120.737 95.3054 120.062C94.991 119.384 94.8338 118.583 94.8338 117.659C94.8338 116.742 94.991 115.947 95.3054 115.273C95.6198 114.598 96.0573 114.078 96.6179 113.71C97.1785 113.343 97.8262 113.159 98.5611 113.159C99.1293 113.159 99.5781 113.254 99.9077 113.443C100.241 113.629 100.495 113.841 100.669 114.08C100.847 114.314 100.985 114.508 101.084 114.659H101.197V110.364H102.538V122H101.243V120.659H101.084C100.985 120.818 100.845 121.019 100.663 121.261C100.482 121.5 100.222 121.714 99.8849 121.903C99.5478 122.089 99.099 122.182 98.5384 122.182ZM98.7202 120.977C99.258 120.977 99.7126 120.837 100.084 120.557C100.455 120.273 100.737 119.881 100.93 119.381C101.124 118.877 101.22 118.295 101.22 117.636C101.22 116.985 101.125 116.415 100.936 115.926C100.747 115.434 100.466 115.051 100.095 114.778C99.724 114.502 99.2656 114.364 98.7202 114.364C98.152 114.364 97.6785 114.509 97.2997 114.801C96.9247 115.089 96.6425 115.481 96.4531 115.977C96.2675 116.47 96.1747 117.023 96.1747 117.636C96.1747 118.258 96.2694 118.822 96.4588 119.33C96.652 119.833 96.9361 120.235 97.3111 120.534C97.6899 120.83 98.1596 120.977 98.7202 120.977ZM108.839 122.182C107.999 122.182 107.273 121.996 106.663 121.625C106.057 121.25 105.589 120.727 105.26 120.057C104.934 119.383 104.771 118.598 104.771 117.705C104.771 116.811 104.934 116.023 105.26 115.341C105.589 114.655 106.048 114.121 106.635 113.739C107.226 113.352 107.915 113.159 108.703 113.159C109.158 113.159 109.607 113.235 110.05 113.386C110.493 113.538 110.896 113.784 111.26 114.125C111.624 114.462 111.913 114.909 112.129 115.466C112.345 116.023 112.453 116.708 112.453 117.523V118.091H105.726V116.932H111.089C111.089 116.439 110.991 116 110.794 115.614C110.601 115.227 110.324 114.922 109.964 114.699C109.608 114.475 109.188 114.364 108.703 114.364C108.169 114.364 107.707 114.496 107.317 114.761C106.93 115.023 106.633 115.364 106.425 115.784C106.216 116.205 106.112 116.655 106.112 117.136V117.909C106.112 118.568 106.226 119.127 106.453 119.585C106.684 120.04 107.004 120.386 107.413 120.625C107.822 120.86 108.298 120.977 108.839 120.977C109.192 120.977 109.51 120.928 109.794 120.83C110.082 120.727 110.33 120.576 110.538 120.375C110.747 120.17 110.908 119.917 111.021 119.614L112.317 119.977C112.18 120.417 111.951 120.803 111.629 121.136C111.307 121.466 110.91 121.723 110.436 121.909C109.963 122.091 109.43 122.182 108.839 122.182ZM114.493 122V113.273H115.788V114.591H115.879C116.038 114.159 116.326 113.809 116.743 113.54C117.16 113.271 117.629 113.136 118.152 113.136C118.25 113.136 118.374 113.138 118.521 113.142C118.669 113.146 118.781 113.152 118.857 113.159V114.523C118.811 114.511 118.707 114.494 118.544 114.472C118.385 114.445 118.216 114.432 118.038 114.432C117.614 114.432 117.235 114.521 116.902 114.699C116.572 114.873 116.311 115.116 116.118 115.426C115.929 115.733 115.834 116.083 115.834 116.477V122H114.493ZM128.741 113.273V114.409H124.219V113.273H128.741ZM125.537 111.182H126.878V119.5C126.878 119.879 126.933 120.163 127.043 120.352C127.156 120.538 127.3 120.663 127.474 120.727C127.652 120.788 127.84 120.818 128.037 120.818C128.185 120.818 128.306 120.811 128.401 120.795C128.495 120.777 128.571 120.761 128.628 120.75L128.901 121.955C128.81 121.989 128.683 122.023 128.52 122.057C128.357 122.095 128.151 122.114 127.901 122.114C127.522 122.114 127.151 122.032 126.787 121.869C126.427 121.706 126.128 121.458 125.889 121.125C125.654 120.792 125.537 120.371 125.537 119.864V111.182ZM134.324 122.182C133.483 122.182 132.758 121.996 132.148 121.625C131.542 121.25 131.074 120.727 130.744 120.057C130.419 119.383 130.256 118.598 130.256 117.705C130.256 116.811 130.419 116.023 130.744 115.341C131.074 114.655 131.532 114.121 132.119 113.739C132.71 113.352 133.4 113.159 134.188 113.159C134.642 113.159 135.091 113.235 135.534 113.386C135.977 113.538 136.381 113.784 136.744 114.125C137.108 114.462 137.398 114.909 137.614 115.466C137.83 116.023 137.938 116.708 137.938 117.523V118.091H131.21V116.932H136.574C136.574 116.439 136.475 116 136.278 115.614C136.085 115.227 135.809 114.922 135.449 114.699C135.093 114.475 134.672 114.364 134.188 114.364C133.653 114.364 133.191 114.496 132.801 114.761C132.415 115.023 132.117 115.364 131.909 115.784C131.701 116.205 131.597 116.655 131.597 117.136V117.909C131.597 118.568 131.71 119.127 131.938 119.585C132.169 120.04 132.489 120.386 132.898 120.625C133.307 120.86 133.782 120.977 134.324 120.977C134.676 120.977 134.994 120.928 135.278 120.83C135.566 120.727 135.814 120.576 136.023 120.375C136.231 120.17 136.392 119.917 136.506 119.614L137.801 119.977C137.665 120.417 137.436 120.803 137.114 121.136C136.792 121.466 136.394 121.723 135.92 121.909C135.447 122.091 134.915 122.182 134.324 122.182ZM140.743 113.273L142.834 116.841L144.925 113.273H146.47L143.652 117.636L146.47 122H144.925L142.834 118.614L140.743 122H139.197L141.97 117.636L139.197 113.273H140.743ZM152.179 113.273V114.409H147.656V113.273H152.179ZM148.974 111.182H150.315V119.5C150.315 119.879 150.37 120.163 150.48 120.352C150.594 120.538 150.738 120.663 150.912 120.727C151.09 120.788 151.277 120.818 151.474 120.818C151.622 120.818 151.743 120.811 151.838 120.795C151.933 120.777 152.009 120.761 152.065 120.75L152.338 121.955C152.247 121.989 152.12 122.023 151.957 122.057C151.795 122.095 151.588 122.114 151.338 122.114C150.959 122.114 150.588 122.032 150.224 121.869C149.865 121.706 149.565 121.458 149.327 121.125C149.092 120.792 148.974 120.371 148.974 119.864V111.182Z" fill="white" fill-opacity="0.95"/>
</svg>
