<svg width="1150" height="184" viewBox="0 0 1150 184" fill="none" xmlns="http://www.w3.org/2000/svg">
<mask id="path-1-inside-1_2165_29210" fill="white">
<path d="M0 0H300V184H0V0Z"/>
</mask>
<path d="M0 0H300V184H0V0Z" fill="#1A1A1A"/>
<path d="M300 184V185H301V184H300ZM299 0V184H301V0H299ZM300 183H0V185H300V183Z" fill="white" fill-opacity="0.2" mask="url(#path-1-inside-1_2165_29210)"/>
<g clip-path="url(#clip0_2165_29210)">
<path d="M31.233 77V66.8182H32.4659V75.9062H37.1989V77H31.233ZM41.196 77.179C40.7121 77.179 40.273 77.0878 39.8786 76.9055C39.4841 76.7199 39.1709 76.4531 38.9389 76.1051C38.7069 75.7538 38.5909 75.3295 38.5909 74.8324C38.5909 74.3949 38.6771 74.0402 38.8494 73.7685C39.0218 73.4934 39.2521 73.2779 39.5405 73.1222C39.8288 72.9664 40.147 72.8504 40.495 72.7741C40.8464 72.6946 41.1993 72.6316 41.554 72.5852C42.018 72.5256 42.3942 72.4808 42.6825 72.451C42.9742 72.4179 43.1863 72.3632 43.3189 72.2869C43.4548 72.2107 43.5227 72.0781 43.5227 71.8892V71.8494C43.5227 71.3589 43.3885 70.9777 43.12 70.706C42.8549 70.4342 42.4522 70.2983 41.9119 70.2983C41.3518 70.2983 40.9126 70.4209 40.5945 70.6662C40.2763 70.9115 40.0526 71.1733 39.9233 71.4517L38.8097 71.054C39.0085 70.59 39.2737 70.2287 39.6051 69.9702C39.9399 69.7083 40.3045 69.526 40.6989 69.4233C41.0966 69.3172 41.4877 69.2642 41.8722 69.2642C42.1174 69.2642 42.3991 69.294 42.7173 69.3537C43.0388 69.41 43.3487 69.5277 43.647 69.7067C43.9486 69.8857 44.1989 70.1558 44.3977 70.517C44.5966 70.8783 44.696 71.3622 44.696 71.9688V77H43.5227V75.9659H43.4631C43.3835 76.1316 43.2509 76.3089 43.0653 76.4979C42.8797 76.6868 42.6328 76.8475 42.3246 76.9801C42.0163 77.1127 41.6402 77.179 41.196 77.179ZM41.375 76.125C41.839 76.125 42.2301 76.0339 42.5483 75.8516C42.8698 75.6693 43.1117 75.4339 43.2741 75.1456C43.4399 74.8572 43.5227 74.554 43.5227 74.2358V73.1619C43.473 73.2216 43.3636 73.2763 43.1946 73.326C43.0289 73.3724 42.8366 73.4138 42.6179 73.4503C42.4025 73.4834 42.192 73.5133 41.9865 73.5398C41.7843 73.563 41.6203 73.5829 41.4943 73.5994C41.1894 73.6392 40.9044 73.7038 40.6392 73.7933C40.3774 73.8795 40.1652 74.0104 40.0028 74.1861C39.8438 74.3584 39.7642 74.5937 39.7642 74.892C39.7642 75.2997 39.915 75.608 40.2166 75.8168C40.5215 76.0223 40.9077 76.125 41.375 76.125ZM46.9966 77V66.8182H48.1699V70.5767H48.2694C48.3555 70.4441 48.4748 70.2751 48.6273 70.0696C48.7831 69.8608 49.0051 69.6752 49.2935 69.5128C49.5852 69.3471 49.9796 69.2642 50.4767 69.2642C51.1197 69.2642 51.6865 69.425 52.177 69.7464C52.6676 70.0679 53.0504 70.5237 53.3255 71.1136C53.6006 71.7036 53.7381 72.3996 53.7381 73.2017C53.7381 74.0104 53.6006 74.7114 53.3255 75.3047C53.0504 75.8946 52.6692 76.352 52.182 76.6768C51.6948 76.9983 51.133 77.1591 50.4966 77.1591C50.0061 77.1591 49.6133 77.0779 49.3184 76.9155C49.0234 76.7498 48.7963 76.5625 48.6373 76.3537C48.4782 76.1416 48.3555 75.9659 48.2694 75.8267H48.1301V77H46.9966ZM48.15 73.1818C48.15 73.7585 48.2346 74.2673 48.4036 74.7081C48.5726 75.1456 48.8195 75.4886 49.1444 75.7372C49.4692 75.9825 49.8669 76.1051 50.3375 76.1051C50.8281 76.1051 51.2374 75.9759 51.5655 75.7173C51.897 75.4555 52.1455 75.1042 52.3113 74.6634C52.4803 74.2192 52.5648 73.7254 52.5648 73.1818C52.5648 72.6449 52.4819 72.161 52.3162 71.7301C52.1538 71.2959 51.9069 70.9529 51.5755 70.701C51.2473 70.4458 50.8347 70.3182 50.3375 70.3182C49.8603 70.3182 49.4592 70.4392 49.1344 70.6811C48.8096 70.9197 48.5643 71.2545 48.3986 71.6854C48.2329 72.1129 48.15 72.6117 48.15 73.1818ZM58.7346 77.1591C57.9988 77.1591 57.3641 76.9967 56.8304 76.6719C56.3001 76.3438 55.8908 75.8864 55.6025 75.2997C55.3174 74.7098 55.1749 74.0237 55.1749 73.2415C55.1749 72.4593 55.3174 71.7699 55.6025 71.1733C55.8908 70.5734 56.2918 70.1061 56.8056 69.7713C57.3226 69.4332 57.9258 69.2642 58.6152 69.2642C59.013 69.2642 59.4057 69.3305 59.7935 69.4631C60.1813 69.5956 60.5343 69.8111 60.8525 70.1094C61.1706 70.4044 61.4242 70.7955 61.6131 71.2827C61.802 71.7699 61.8965 72.3698 61.8965 73.0824V73.5795H56.0101V72.5653H60.7033C60.7033 72.1345 60.6171 71.75 60.4448 71.4119C60.2757 71.0739 60.0338 70.8071 59.7189 70.6115C59.4074 70.416 59.0395 70.3182 58.6152 70.3182C58.1479 70.3182 57.7435 70.4342 57.4022 70.6662C57.0641 70.8949 56.8039 71.1932 56.6216 71.5611C56.4393 71.929 56.3482 72.3234 56.3482 72.7443V73.4205C56.3482 73.9972 56.4476 74.486 56.6465 74.8871C56.8487 75.2848 57.1287 75.5881 57.4867 75.7969C57.8446 76.0024 58.2606 76.1051 58.7346 76.1051C59.0428 76.1051 59.3212 76.062 59.5698 75.9759C59.8217 75.8864 60.0388 75.7538 60.2211 75.5781C60.4034 75.3991 60.5442 75.1771 60.6436 74.9119L61.7772 75.2301C61.6578 75.6146 61.4573 75.9527 61.1756 76.2443C60.8939 76.5327 60.5459 76.758 60.1316 76.9205C59.7173 77.0795 59.2516 77.1591 58.7346 77.1591ZM64.8546 66.8182V77H63.6813V66.8182H64.8546Z" fill="white" fill-opacity="0.95"/>
<rect x="30.5" y="90.5" width="399" height="31" rx="7.5" stroke="white" stroke-opacity="0.5"/>
</g>
<mask id="path-6-inside-2_2165_29210" fill="white">
<path d="M300 0H500V184H300V0Z"/>
</mask>
<path d="M300 0H500V184H300V0Z" fill="#1A1A1A"/>
<path d="M500 184V185H501V184H500ZM499 0V184H501V0H499ZM500 183H300V185H500V183Z" fill="#707070" mask="url(#path-6-inside-2_2165_29210)"/>
<path d="M330.773 87.6136V86.3636H339.5V87.6136H335.841V98H334.432V87.6136H330.773ZM343.886 98.1818C343.045 98.1818 342.32 97.9962 341.71 97.625C341.104 97.25 340.636 96.7273 340.307 96.0568C339.981 95.3826 339.818 94.5985 339.818 93.7045C339.818 92.8106 339.981 92.0227 340.307 91.3409C340.636 90.6553 341.095 90.1212 341.682 89.7386C342.273 89.3523 342.962 89.1591 343.75 89.1591C344.205 89.1591 344.653 89.2348 345.097 89.3864C345.54 89.5379 345.943 89.7841 346.307 90.125C346.67 90.4621 346.96 90.9091 347.176 91.4659C347.392 92.0227 347.5 92.7083 347.5 93.5227V94.0909H340.773V92.9318H346.136C346.136 92.4394 346.038 92 345.841 91.6136C345.648 91.2273 345.371 90.9223 345.011 90.6989C344.655 90.4754 344.235 90.3636 343.75 90.3636C343.216 90.3636 342.754 90.4962 342.364 90.7614C341.977 91.0227 341.68 91.3636 341.472 91.7841C341.263 92.2045 341.159 92.6553 341.159 93.1364V93.9091C341.159 94.5682 341.273 95.1269 341.5 95.5852C341.731 96.0398 342.051 96.3864 342.46 96.625C342.869 96.8598 343.345 96.9773 343.886 96.9773C344.239 96.9773 344.557 96.928 344.841 96.8295C345.129 96.7273 345.377 96.5758 345.585 96.375C345.794 96.1705 345.955 95.9167 346.068 95.6136L347.364 95.9773C347.227 96.4167 346.998 96.803 346.676 97.1364C346.354 97.4659 345.956 97.7235 345.483 97.9091C345.009 98.0909 344.477 98.1818 343.886 98.1818ZM350.305 89.2727L352.396 92.8409L354.487 89.2727H356.033L353.214 93.6364L356.033 98H354.487L352.396 94.6136L350.305 98H348.76L351.533 93.6364L348.76 89.2727H350.305ZM361.741 89.2727V90.4091H357.219V89.2727H361.741ZM358.537 87.1818H359.878V95.5C359.878 95.8788 359.933 96.1629 360.043 96.3523C360.156 96.5379 360.3 96.6629 360.474 96.7273C360.652 96.7879 360.84 96.8182 361.037 96.8182C361.185 96.8182 361.306 96.8106 361.401 96.7955C361.495 96.7765 361.571 96.7614 361.628 96.75L361.901 97.9545C361.81 97.9886 361.683 98.0227 361.52 98.0568C361.357 98.0947 361.151 98.1136 360.901 98.1136C360.522 98.1136 360.151 98.0322 359.787 97.8693C359.427 97.7064 359.128 97.4583 358.889 97.125C358.654 96.7917 358.537 96.3712 358.537 95.8636V87.1818ZM372.145 89.2727V90.4091H367.44V89.2727H372.145ZM368.849 98V88.0682C368.849 87.5682 368.967 87.1515 369.202 86.8182C369.437 86.4848 369.741 86.2348 370.116 86.0682C370.491 85.9015 370.887 85.8182 371.304 85.8182C371.634 85.8182 371.902 85.8447 372.111 85.8977C372.319 85.9508 372.474 86 372.577 86.0455L372.19 87.2045C372.122 87.1818 372.027 87.1534 371.906 87.1193C371.789 87.0852 371.634 87.0682 371.44 87.0682C370.997 87.0682 370.677 87.1799 370.48 87.4034C370.287 87.6269 370.19 87.9545 370.19 88.3864V98H368.849ZM374.024 98V89.2727H375.365V98H374.024ZM374.706 87.8182C374.445 87.8182 374.219 87.7292 374.03 87.5511C373.844 87.3731 373.751 87.1591 373.751 86.9091C373.751 86.6591 373.844 86.4451 374.03 86.267C374.219 86.089 374.445 86 374.706 86C374.967 86 375.191 86.089 375.376 86.267C375.566 86.4451 375.661 86.6591 375.661 86.9091C375.661 87.1591 375.566 87.3731 375.376 87.5511C375.191 87.7292 374.967 87.8182 374.706 87.8182ZM381.48 98.1818C380.639 98.1818 379.914 97.9962 379.304 97.625C378.698 97.25 378.23 96.7273 377.901 96.0568C377.575 95.3826 377.412 94.5985 377.412 93.7045C377.412 92.8106 377.575 92.0227 377.901 91.3409C378.23 90.6553 378.688 90.1212 379.276 89.7386C379.866 89.3523 380.556 89.1591 381.344 89.1591C381.798 89.1591 382.247 89.2348 382.69 89.3864C383.134 89.5379 383.537 89.7841 383.901 90.125C384.264 90.4621 384.554 90.9091 384.77 91.4659C384.986 92.0227 385.094 92.7083 385.094 93.5227V94.0909H378.366V92.9318H383.73C383.73 92.4394 383.632 92 383.435 91.6136C383.241 91.2273 382.965 90.9223 382.605 90.6989C382.249 90.4754 381.829 90.3636 381.344 90.3636C380.81 90.3636 380.348 90.4962 379.957 90.7614C379.571 91.0227 379.274 91.3636 379.065 91.7841C378.857 92.2045 378.753 92.6553 378.753 93.1364V93.9091C378.753 94.5682 378.866 95.1269 379.094 95.5852C379.325 96.0398 379.645 96.3864 380.054 96.625C380.463 96.8598 380.938 96.9773 381.48 96.9773C381.832 96.9773 382.151 96.928 382.435 96.8295C382.723 96.7273 382.971 96.5758 383.179 96.375C383.387 96.1705 383.548 95.9167 383.662 95.6136L384.957 95.9773C384.821 96.4167 384.592 96.803 384.27 97.1364C383.948 97.4659 383.55 97.7235 383.077 97.9091C382.603 98.0909 382.071 98.1818 381.48 98.1818ZM388.474 86.3636V98H387.134V86.3636H388.474ZM394.226 98.1818C393.499 98.1818 392.857 97.9981 392.3 97.6307C391.743 97.2595 391.307 96.7367 390.993 96.0625C390.679 95.3845 390.521 94.5833 390.521 93.6591C390.521 92.7424 390.679 91.947 390.993 91.2727C391.307 90.5985 391.745 90.0777 392.305 89.7102C392.866 89.3428 393.514 89.1591 394.249 89.1591C394.817 89.1591 395.266 89.2538 395.595 89.4432C395.929 89.6288 396.182 89.8409 396.357 90.0795C396.535 90.3144 396.673 90.5076 396.771 90.6591H396.885V86.3636H398.226V98H396.93V96.6591H396.771C396.673 96.8182 396.533 97.0189 396.351 97.2614C396.169 97.5 395.91 97.714 395.572 97.9034C395.235 98.089 394.786 98.1818 394.226 98.1818ZM394.408 96.9773C394.946 96.9773 395.4 96.8371 395.771 96.5568C396.143 96.2727 396.425 95.8807 396.618 95.3807C396.811 94.8769 396.908 94.2955 396.908 93.6364C396.908 92.9848 396.813 92.4148 396.624 91.9261C396.434 91.4337 396.154 91.0511 395.783 90.7784C395.411 90.5019 394.953 90.3636 394.408 90.3636C393.839 90.3636 393.366 90.5095 392.987 90.8011C392.612 91.089 392.33 91.4811 392.141 91.9773C391.955 92.4697 391.862 93.0227 391.862 93.6364C391.862 94.2576 391.957 94.822 392.146 95.3295C392.339 95.8333 392.624 96.2348 392.999 96.5341C393.377 96.8295 393.847 96.9773 394.408 96.9773Z" fill="white" fill-opacity="0.95"/>
<mask id="path-9-inside-3_2165_29210" fill="white">
<path d="M500 0H700V184H500V0Z"/>
</mask>
<path d="M500 0H700V184H500V0Z" fill="#1A1A1A"/>
<path d="M700 184V185H701V184H700ZM699 0V184H701V0H699ZM700 183H500V185H700V183Z" fill="#707070" mask="url(#path-9-inside-3_2165_29210)"/>
<path d="M531.409 98V86.3636H535.341C536.25 86.3636 536.996 86.5189 537.58 86.8295C538.163 87.1364 538.595 87.5587 538.875 88.0966C539.155 88.6345 539.295 89.2462 539.295 89.9318C539.295 90.6174 539.155 91.2254 538.875 91.7557C538.595 92.286 538.165 92.7027 537.585 93.0057C537.006 93.3049 536.265 93.4545 535.364 93.4545H532.182V92.1818H535.318C535.939 92.1818 536.439 92.0909 536.818 91.9091C537.201 91.7273 537.477 91.4697 537.648 91.1364C537.822 90.7992 537.909 90.3977 537.909 89.9318C537.909 89.4659 537.822 89.0587 537.648 88.7102C537.473 88.3617 537.195 88.0928 536.812 87.9034C536.43 87.7102 535.924 87.6136 535.295 87.6136H532.818V98H531.409ZM536.886 92.7727L539.75 98H538.114L535.295 92.7727H536.886ZM545.027 98.1818C544.186 98.1818 543.461 97.9962 542.851 97.625C542.245 97.25 541.777 96.7273 541.447 96.0568C541.122 95.3826 540.959 94.5985 540.959 93.7045C540.959 92.8106 541.122 92.0227 541.447 91.3409C541.777 90.6553 542.235 90.1212 542.822 89.7386C543.413 89.3523 544.103 89.1591 544.891 89.1591C545.345 89.1591 545.794 89.2348 546.237 89.3864C546.68 89.5379 547.084 89.7841 547.447 90.125C547.811 90.4621 548.101 90.9091 548.317 91.4659C548.533 92.0227 548.641 92.7083 548.641 93.5227V94.0909H541.913V92.9318H547.277C547.277 92.4394 547.179 92 546.982 91.6136C546.788 91.2273 546.512 90.9223 546.152 90.6989C545.796 90.4754 545.375 90.3636 544.891 90.3636C544.357 90.3636 543.894 90.4962 543.504 90.7614C543.118 91.0227 542.821 91.3636 542.612 91.7841C542.404 92.2045 542.3 92.6553 542.3 93.1364V93.9091C542.3 94.5682 542.413 95.1269 542.641 95.5852C542.872 96.0398 543.192 96.3864 543.601 96.625C544.01 96.8598 544.485 96.9773 545.027 96.9773C545.379 96.9773 545.697 96.928 545.982 96.8295C546.269 96.7273 546.518 96.5758 546.726 96.375C546.934 96.1705 547.095 95.9167 547.209 95.6136L548.504 95.9773C548.368 96.4167 548.139 96.803 547.817 97.1364C547.495 97.4659 547.097 97.7235 546.624 97.9091C546.15 98.0909 545.618 98.1818 545.027 98.1818ZM556.862 91.2273L555.658 91.5682C555.582 91.3674 555.47 91.1723 555.322 90.983C555.179 90.7898 554.982 90.6307 554.732 90.5057C554.482 90.3807 554.161 90.3182 553.771 90.3182C553.237 90.3182 552.792 90.4413 552.436 90.6875C552.084 90.9299 551.908 91.2386 551.908 91.6136C551.908 91.947 552.029 92.2102 552.271 92.4034C552.514 92.5966 552.893 92.7576 553.408 92.8864L554.703 93.2045C555.483 93.3939 556.065 93.6837 556.447 94.0739C556.83 94.4602 557.021 94.9583 557.021 95.5682C557.021 96.0682 556.877 96.5152 556.589 96.9091C556.305 97.303 555.908 97.6136 555.396 97.8409C554.885 98.0682 554.29 98.1818 553.612 98.1818C552.722 98.1818 551.985 97.9886 551.402 97.6023C550.819 97.2159 550.449 96.6515 550.294 95.9091L551.567 95.5909C551.688 96.0606 551.917 96.4129 552.254 96.6477C552.595 96.8826 553.04 97 553.589 97C554.214 97 554.711 96.8674 555.078 96.6023C555.449 96.3333 555.635 96.0114 555.635 95.6364C555.635 95.3333 555.529 95.0795 555.317 94.875C555.105 94.6667 554.779 94.5114 554.339 94.4091L552.885 94.0682C552.086 93.8788 551.499 93.5852 551.124 93.1875C550.752 92.786 550.567 92.2841 550.567 91.6818C550.567 91.1894 550.705 90.7538 550.982 90.375C551.262 89.9962 551.643 89.6989 552.124 89.483C552.608 89.267 553.158 89.1591 553.771 89.1591C554.635 89.1591 555.313 89.3485 555.805 89.7273C556.302 90.1061 556.654 90.6061 556.862 91.2273ZM562.835 89.2727V90.4091H558.312V89.2727H562.835ZM559.631 87.1818H560.972V95.5C560.972 95.8788 561.027 96.1629 561.136 96.3523C561.25 96.5379 561.394 96.6629 561.568 96.7273C561.746 96.7879 561.934 96.8182 562.131 96.8182C562.278 96.8182 562.4 96.8106 562.494 96.7955C562.589 96.7765 562.665 96.7614 562.722 96.75L562.994 97.9545C562.903 97.9886 562.777 98.0227 562.614 98.0568C562.451 98.0947 562.244 98.1136 561.994 98.1136C561.616 98.1136 561.244 98.0322 560.881 97.8693C560.521 97.7064 560.222 97.4583 559.983 97.125C559.748 96.7917 559.631 96.3712 559.631 95.8636V87.1818Z" fill="white" fill-opacity="0.95"/>
<mask id="path-12-inside-4_2165_29210" fill="white">
<path d="M700 0H900V184H700V0Z"/>
</mask>
<path d="M700 0H900V184H700V0Z" fill="#1A1A1A"/>
<path d="M900 184V185H901V184H900ZM899 0V184H901V0H899ZM900 183H700V185H900V183Z" fill="#707070" mask="url(#path-12-inside-4_2165_29210)"/>
<path d="M731.409 98V86.3636H732.818V91.5455H739.023V86.3636H740.432V98H739.023V92.7955H732.818V98H731.409ZM746.98 98.1591C746.23 98.1591 745.562 98.0303 744.974 97.7727C744.391 97.5152 743.927 97.1572 743.582 96.6989C743.241 96.2367 743.056 95.7008 743.026 95.0909H744.457C744.488 95.4659 744.616 95.7898 744.844 96.0625C745.071 96.3314 745.368 96.5398 745.736 96.6875C746.103 96.8352 746.51 96.9091 746.957 96.9091C747.457 96.9091 747.901 96.822 748.287 96.6477C748.673 96.4735 748.976 96.2311 749.196 95.9205C749.416 95.6098 749.526 95.25 749.526 94.8409C749.526 94.4129 749.42 94.036 749.207 93.7102C748.995 93.3807 748.685 93.1231 748.276 92.9375C747.866 92.7519 747.366 92.6591 746.776 92.6591H745.844V91.4091H746.776C747.238 91.4091 747.643 91.3258 747.991 91.1591C748.344 90.9924 748.618 90.7576 748.815 90.4545C749.016 90.1515 749.116 89.7955 749.116 89.3864C749.116 88.9924 749.029 88.6496 748.855 88.358C748.681 88.0663 748.435 87.839 748.116 87.6761C747.802 87.5133 747.431 87.4318 747.003 87.4318C746.601 87.4318 746.223 87.5057 745.866 87.6534C745.514 87.7973 745.226 88.0076 745.003 88.2841C744.779 88.5568 744.658 88.8864 744.639 89.2727H743.276C743.298 88.6629 743.482 88.1288 743.827 87.6705C744.171 87.2083 744.622 86.8485 745.179 86.5909C745.74 86.3333 746.355 86.2045 747.026 86.2045C747.745 86.2045 748.363 86.3504 748.878 86.642C749.393 86.9299 749.789 87.3106 750.065 87.7841C750.342 88.2576 750.48 88.7689 750.48 89.3182C750.48 89.9735 750.308 90.5322 749.963 90.9943C749.622 91.4564 749.158 91.7765 748.571 91.9545V92.0455C749.306 92.1667 749.88 92.4792 750.293 92.983C750.705 93.483 750.912 94.1023 750.912 94.8409C750.912 95.4735 750.74 96.0417 750.395 96.5455C750.054 97.0455 749.588 97.4394 748.997 97.7273C748.406 98.0152 747.734 98.1591 746.98 98.1591ZM753.236 98V96.9773L757.077 92.7727C757.527 92.2803 757.899 91.8523 758.19 91.4886C758.482 91.1212 758.698 90.7765 758.838 90.4545C758.982 90.1288 759.054 89.7879 759.054 89.4318C759.054 89.0227 758.955 88.6686 758.759 88.3693C758.565 88.0701 758.3 87.839 757.963 87.6761C757.626 87.5133 757.247 87.4318 756.827 87.4318C756.38 87.4318 755.99 87.5246 755.656 87.7102C755.327 87.892 755.071 88.1477 754.889 88.4773C754.711 88.8068 754.622 89.1932 754.622 89.6364H753.281C753.281 88.9545 753.438 88.3561 753.753 87.8409C754.067 87.3258 754.495 86.9242 755.037 86.6364C755.582 86.3485 756.194 86.2045 756.872 86.2045C757.554 86.2045 758.158 86.3485 758.685 86.6364C759.211 86.9242 759.624 87.3125 759.923 87.8011C760.223 88.2898 760.372 88.8333 760.372 89.4318C760.372 89.8598 760.295 90.2784 760.139 90.6875C759.988 91.0928 759.723 91.5455 759.344 92.0455C758.969 92.5417 758.448 93.1477 757.781 93.8636L755.168 96.6591V96.75H760.577V98H753.236ZM762.946 101.273V89.2727H764.241V90.6591H764.401C764.499 90.5076 764.635 90.3144 764.81 90.0795C764.988 89.8409 765.241 89.6288 765.571 89.4432C765.904 89.2538 766.355 89.1591 766.923 89.1591C767.658 89.1591 768.306 89.3428 768.866 89.7102C769.427 90.0777 769.865 90.5985 770.179 91.2727C770.493 91.947 770.651 92.7424 770.651 93.6591C770.651 94.5833 770.493 95.3845 770.179 96.0625C769.865 96.7367 769.429 97.2595 768.872 97.6307C768.315 97.9981 767.673 98.1818 766.946 98.1818C766.385 98.1818 765.937 98.089 765.599 97.9034C765.262 97.714 765.003 97.5 764.821 97.2614C764.639 97.0189 764.499 96.8182 764.401 96.6591H764.287V101.273H762.946ZM764.264 93.6364C764.264 94.2955 764.361 94.8769 764.554 95.3807C764.747 95.8807 765.029 96.2727 765.401 96.5568C765.772 96.8371 766.226 96.9773 766.764 96.9773C767.325 96.9773 767.793 96.8295 768.168 96.5341C768.546 96.2348 768.83 95.8333 769.02 95.3295C769.213 94.822 769.31 94.2576 769.31 93.6364C769.31 93.0227 769.215 92.4697 769.026 91.9773C768.84 91.4811 768.558 91.089 768.179 90.8011C767.804 90.5095 767.332 90.3636 766.764 90.3636C766.219 90.3636 765.76 90.5019 765.389 90.7784C765.018 91.0511 764.738 91.4337 764.548 91.9261C764.359 92.4148 764.264 92.9848 764.264 93.6364ZM773.337 89.2727L775.428 92.8409L777.518 89.2727H779.064L776.246 93.6364L779.064 98H777.518L775.428 94.6136L773.337 98H771.791L774.564 93.6364L771.791 89.2727H773.337Z" fill="white" fill-opacity="0.95"/>
<mask id="path-15-inside-5_2165_29210" fill="white">
<path d="M900 0H1150V184H900V0Z"/>
</mask>
<path d="M900 0H1150V184H900V0Z" fill="#1A1A1A"/>
<path d="M1150 183H900V185H1150V183Z" fill="#707070" mask="url(#path-15-inside-5_2165_29210)"/>
<path d="M940.773 42H939.364C939.28 41.5947 939.134 41.2386 938.926 40.9318C938.722 40.625 938.472 40.3674 938.176 40.1591C937.884 39.947 937.561 39.7879 937.205 39.6818C936.848 39.5758 936.477 39.5227 936.091 39.5227C935.386 39.5227 934.748 39.7008 934.176 40.0568C933.608 40.4129 933.155 40.9375 932.818 41.6307C932.485 42.3239 932.318 43.1742 932.318 44.1818C932.318 45.1894 932.485 46.0398 932.818 46.733C933.155 47.4261 933.608 47.9508 934.176 48.3068C934.748 48.6629 935.386 48.8409 936.091 48.8409C936.477 48.8409 936.848 48.7879 937.205 48.6818C937.561 48.5758 937.884 48.4186 938.176 48.2102C938.472 47.9981 938.722 47.7386 938.926 47.4318C939.134 47.1212 939.28 46.7652 939.364 46.3636H940.773C940.667 46.9583 940.473 47.4905 940.193 47.9602C939.913 48.4299 939.564 48.8295 939.148 49.1591C938.731 49.4848 938.263 49.733 937.744 49.9034C937.229 50.0739 936.678 50.1591 936.091 50.1591C935.098 50.1591 934.216 49.9167 933.443 49.4318C932.67 48.947 932.063 48.2576 931.619 47.3636C931.176 46.4697 930.955 45.4091 930.955 44.1818C930.955 42.9545 931.176 41.8939 931.619 41C932.063 40.1061 932.67 39.4167 933.443 38.9318C934.216 38.447 935.098 38.2045 936.091 38.2045C936.678 38.2045 937.229 38.2898 937.744 38.4602C938.263 38.6307 938.731 38.8807 939.148 39.2102C939.564 39.536 939.913 39.9337 940.193 40.4034C940.473 40.8693 940.667 41.4015 940.773 42ZM946.413 50.1818C945.625 50.1818 944.934 49.9943 944.339 49.6193C943.749 49.2443 943.286 48.7197 942.953 48.0455C942.624 47.3712 942.459 46.5833 942.459 45.6818C942.459 44.7727 942.624 43.9792 942.953 43.3011C943.286 42.6231 943.749 42.0966 944.339 41.7216C944.934 41.3466 945.625 41.1591 946.413 41.1591C947.201 41.1591 947.891 41.3466 948.482 41.7216C949.076 42.0966 949.538 42.6231 949.868 43.3011C950.201 43.9792 950.368 44.7727 950.368 45.6818C950.368 46.5833 950.201 47.3712 949.868 48.0455C949.538 48.7197 949.076 49.2443 948.482 49.6193C947.891 49.9943 947.201 50.1818 946.413 50.1818ZM946.413 48.9773C947.012 48.9773 947.504 48.8239 947.891 48.517C948.277 48.2102 948.563 47.8068 948.749 47.3068C948.934 46.8068 949.027 46.2652 949.027 45.6818C949.027 45.0985 948.934 44.5549 948.749 44.0511C948.563 43.5473 948.277 43.1402 947.891 42.8295C947.504 42.5189 947.012 42.3636 946.413 42.3636C945.815 42.3636 945.322 42.5189 944.936 42.8295C944.55 43.1402 944.264 43.5473 944.078 44.0511C943.893 44.5549 943.8 45.0985 943.8 45.6818C943.8 46.2652 943.893 46.8068 944.078 47.3068C944.264 47.8068 944.55 48.2102 944.936 48.517C945.322 48.8239 945.815 48.9773 946.413 48.9773ZM953.756 38.3636V50H952.415V38.3636H953.756ZM959.757 50.1818C958.969 50.1818 958.278 49.9943 957.683 49.6193C957.092 49.2443 956.63 48.7197 956.297 48.0455C955.967 47.3712 955.803 46.5833 955.803 45.6818C955.803 44.7727 955.967 43.9792 956.297 43.3011C956.63 42.6231 957.092 42.0966 957.683 41.7216C958.278 41.3466 958.969 41.1591 959.757 41.1591C960.545 41.1591 961.234 41.3466 961.825 41.7216C962.42 42.0966 962.882 42.6231 963.212 43.3011C963.545 43.9792 963.712 44.7727 963.712 45.6818C963.712 46.5833 963.545 47.3712 963.212 48.0455C962.882 48.7197 962.42 49.2443 961.825 49.6193C961.234 49.9943 960.545 50.1818 959.757 50.1818ZM959.757 48.9773C960.356 48.9773 960.848 48.8239 961.234 48.517C961.621 48.2102 961.907 47.8068 962.092 47.3068C962.278 46.8068 962.371 46.2652 962.371 45.6818C962.371 45.0985 962.278 44.5549 962.092 44.0511C961.907 43.5473 961.621 43.1402 961.234 42.8295C960.848 42.5189 960.356 42.3636 959.757 42.3636C959.159 42.3636 958.666 42.5189 958.28 42.8295C957.893 43.1402 957.607 43.5473 957.422 44.0511C957.236 44.5549 957.143 45.0985 957.143 45.6818C957.143 46.2652 957.236 46.8068 957.422 47.3068C957.607 47.8068 957.893 48.2102 958.28 48.517C958.666 48.8239 959.159 48.9773 959.757 48.9773ZM965.759 50V41.2727H967.054V42.5909H967.145C967.304 42.1591 967.592 41.8087 968.009 41.5398C968.425 41.2708 968.895 41.1364 969.418 41.1364C969.516 41.1364 969.639 41.1383 969.787 41.142C969.935 41.1458 970.046 41.1515 970.122 41.1591V42.5227C970.077 42.5114 969.973 42.4943 969.81 42.4716C969.651 42.4451 969.482 42.4318 969.304 42.4318C968.88 42.4318 968.501 42.5208 968.168 42.6989C967.838 42.8731 967.577 43.1155 967.384 43.4261C967.194 43.733 967.099 44.0833 967.099 44.4773V50H965.759ZM972.689 50.0909C972.409 50.0909 972.168 49.9905 971.967 49.7898C971.767 49.589 971.666 49.3485 971.666 49.0682C971.666 48.7879 971.767 48.5473 971.967 48.3466C972.168 48.1458 972.409 48.0455 972.689 48.0455C972.969 48.0455 973.21 48.1458 973.411 48.3466C973.611 48.5473 973.712 48.7879 973.712 49.0682C973.712 49.2538 973.664 49.4242 973.57 49.5795C973.479 49.7348 973.356 49.8598 973.2 49.9545C973.049 50.0455 972.878 50.0909 972.689 50.0909ZM972.689 43.6136C972.409 43.6136 972.168 43.5133 971.967 43.3125C971.767 43.1117 971.666 42.8712 971.666 42.5909C971.666 42.3106 971.767 42.0701 971.967 41.8693C972.168 41.6686 972.409 41.5682 972.689 41.5682C972.969 41.5682 973.21 41.6686 973.411 41.8693C973.611 42.0701 973.712 42.3106 973.712 42.5909C973.712 42.7765 973.664 42.947 973.57 43.1023C973.479 43.2576 973.356 43.3826 973.2 43.4773C973.049 43.5682 972.878 43.6136 972.689 43.6136ZM984.163 50.1818C983.345 50.1818 982.641 49.9886 982.05 49.6023C981.459 49.2159 981.004 48.6837 980.686 48.0057C980.368 47.3277 980.209 46.553 980.209 45.6818C980.209 44.7955 980.372 44.0133 980.697 43.3352C981.027 42.6534 981.485 42.1212 982.072 41.7386C982.663 41.3523 983.353 41.1591 984.141 41.1591C984.754 41.1591 985.307 41.2727 985.8 41.5C986.292 41.7273 986.696 42.0455 987.01 42.4545C987.324 42.8636 987.519 43.3409 987.595 43.8864H986.254C986.152 43.4886 985.925 43.1364 985.572 42.8295C985.224 42.5189 984.754 42.3636 984.163 42.3636C983.641 42.3636 983.182 42.5 982.788 42.7727C982.398 43.0417 982.093 43.4223 981.874 43.9148C981.658 44.4034 981.55 44.9773 981.55 45.6364C981.55 46.3106 981.656 46.8977 981.868 47.3977C982.084 47.8977 982.387 48.286 982.777 48.5625C983.171 48.839 983.633 48.9773 984.163 48.9773C984.512 48.9773 984.828 48.9167 985.112 48.7955C985.396 48.6742 985.637 48.5 985.834 48.2727C986.031 48.0455 986.171 47.7727 986.254 47.4545H987.595C987.519 47.9697 987.332 48.4337 987.033 48.8466C986.737 49.2557 986.345 49.5814 985.857 49.8239C985.372 50.0625 984.807 50.1818 984.163 50.1818ZM993.101 50.1818C992.313 50.1818 991.622 49.9943 991.027 49.6193C990.436 49.2443 989.974 48.7197 989.641 48.0455C989.311 47.3712 989.146 46.5833 989.146 45.6818C989.146 44.7727 989.311 43.9792 989.641 43.3011C989.974 42.6231 990.436 42.0966 991.027 41.7216C991.622 41.3466 992.313 41.1591 993.101 41.1591C993.889 41.1591 994.578 41.3466 995.169 41.7216C995.764 42.0966 996.226 42.6231 996.555 43.3011C996.889 43.9792 997.055 44.7727 997.055 45.6818C997.055 46.5833 996.889 47.3712 996.555 48.0455C996.226 48.7197 995.764 49.2443 995.169 49.6193C994.578 49.9943 993.889 50.1818 993.101 50.1818ZM993.101 48.9773C993.699 48.9773 994.192 48.8239 994.578 48.517C994.964 48.2102 995.25 47.8068 995.436 47.3068C995.622 46.8068 995.714 46.2652 995.714 45.6818C995.714 45.0985 995.622 44.5549 995.436 44.0511C995.25 43.5473 994.964 43.1402 994.578 42.8295C994.192 42.5189 993.699 42.3636 993.101 42.3636C992.502 42.3636 992.01 42.5189 991.624 42.8295C991.237 43.1402 990.951 43.5473 990.766 44.0511C990.58 44.5549 990.487 45.0985 990.487 45.6818C990.487 46.2652 990.58 46.8068 990.766 47.3068C990.951 47.8068 991.237 48.2102 991.624 48.517C992.01 48.8239 992.502 48.9773 993.101 48.9773ZM1000.44 38.3636V50H999.102V38.3636H1000.44ZM1006.44 50.1818C1005.66 50.1818 1004.97 49.9943 1004.37 49.6193C1003.78 49.2443 1003.32 48.7197 1002.98 48.0455C1002.65 47.3712 1002.49 46.5833 1002.49 45.6818C1002.49 44.7727 1002.65 43.9792 1002.98 43.3011C1003.32 42.6231 1003.78 42.0966 1004.37 41.7216C1004.97 41.3466 1005.66 41.1591 1006.44 41.1591C1007.23 41.1591 1007.92 41.3466 1008.51 41.7216C1009.11 42.0966 1009.57 42.6231 1009.9 43.3011C1010.23 43.9792 1010.4 44.7727 1010.4 45.6818C1010.4 46.5833 1010.23 47.3712 1009.9 48.0455C1009.57 48.7197 1009.11 49.2443 1008.51 49.6193C1007.92 49.9943 1007.23 50.1818 1006.44 50.1818ZM1006.44 48.9773C1007.04 48.9773 1007.54 48.8239 1007.92 48.517C1008.31 48.2102 1008.59 47.8068 1008.78 47.3068C1008.97 46.8068 1009.06 46.2652 1009.06 45.6818C1009.06 45.0985 1008.97 44.5549 1008.78 44.0511C1008.59 43.5473 1008.31 43.1402 1007.92 42.8295C1007.54 42.5189 1007.04 42.3636 1006.44 42.3636C1005.85 42.3636 1005.35 42.5189 1004.97 42.8295C1004.58 43.1402 1004.29 43.5473 1004.11 44.0511C1003.92 44.5549 1003.83 45.0985 1003.83 45.6818C1003.83 46.2652 1003.92 46.8068 1004.11 47.3068C1004.29 47.8068 1004.58 48.2102 1004.97 48.517C1005.35 48.8239 1005.85 48.9773 1006.44 48.9773ZM1012.45 50V41.2727H1013.74V42.5909H1013.83C1013.99 42.1591 1014.28 41.8087 1014.7 41.5398C1015.11 41.2708 1015.58 41.1364 1016.11 41.1364C1016.2 41.1364 1016.33 41.1383 1016.47 41.142C1016.62 41.1458 1016.73 41.1515 1016.81 41.1591V42.5227C1016.76 42.5114 1016.66 42.4943 1016.5 42.4716C1016.34 42.4451 1016.17 42.4318 1015.99 42.4318C1015.57 42.4318 1015.19 42.5208 1014.86 42.6989C1014.53 42.8731 1014.26 43.1155 1014.07 43.4261C1013.88 43.733 1013.79 44.0833 1013.79 44.4773V50H1012.45ZM1021.97 37.8182L1018.22 51.75H1016.99L1020.74 37.8182H1021.97ZM1027.35 41.2727V42.4091H1022.83V41.2727H1027.35ZM1024.15 39.1818H1025.49V47.5C1025.49 47.8788 1025.54 48.1629 1025.65 48.3523C1025.77 48.5379 1025.91 48.6629 1026.08 48.7273C1026.26 48.7879 1026.45 48.8182 1026.65 48.8182C1026.79 48.8182 1026.92 48.8106 1027.01 48.7955C1027.1 48.7765 1027.18 48.7614 1027.24 48.75L1027.51 49.9545C1027.42 49.9886 1027.29 50.0227 1027.13 50.0568C1026.97 50.0947 1026.76 50.1136 1026.51 50.1136C1026.13 50.1136 1025.76 50.0322 1025.4 49.8693C1025.04 49.7064 1024.74 49.4583 1024.5 49.125C1024.26 48.7917 1024.15 48.3712 1024.15 47.8636V39.1818ZM1030.9 44.75V50H1029.56V38.3636H1030.9V42.6364H1031.01C1031.21 42.1856 1031.52 41.8277 1031.93 41.5625C1032.34 41.2936 1032.89 41.1591 1033.58 41.1591C1034.17 41.1591 1034.69 41.2784 1035.14 41.517C1035.59 41.7519 1035.93 42.1136 1036.18 42.6023C1036.43 43.0871 1036.56 43.7045 1036.56 44.4545V50H1035.21V44.5455C1035.21 43.8523 1035.03 43.3163 1034.67 42.9375C1034.32 42.5549 1033.82 42.3636 1033.19 42.3636C1032.75 42.3636 1032.36 42.4564 1032.01 42.642C1031.67 42.8277 1031.39 43.0985 1031.19 43.4545C1030.99 43.8106 1030.9 44.2424 1030.9 44.75ZM1042.67 50.1818C1041.83 50.1818 1041.1 49.9962 1040.49 49.625C1039.89 49.25 1039.42 48.7273 1039.09 48.0568C1038.76 47.3826 1038.6 46.5985 1038.6 45.7045C1038.6 44.8106 1038.76 44.0227 1039.09 43.3409C1039.42 42.6553 1039.88 42.1212 1040.46 41.7386C1041.05 41.3523 1041.74 41.1591 1042.53 41.1591C1042.99 41.1591 1043.43 41.2348 1043.88 41.3864C1044.32 41.5379 1044.72 41.7841 1045.09 42.125C1045.45 42.4621 1045.74 42.9091 1045.96 43.4659C1046.17 44.0227 1046.28 44.7083 1046.28 45.5227V46.0909H1039.55V44.9318H1044.92C1044.92 44.4394 1044.82 44 1044.62 43.6136C1044.43 43.2273 1044.15 42.9223 1043.79 42.6989C1043.44 42.4754 1043.02 42.3636 1042.53 42.3636C1042 42.3636 1041.54 42.4962 1041.14 42.7614C1040.76 43.0227 1040.46 43.3636 1040.25 43.7841C1040.04 44.2045 1039.94 44.6553 1039.94 45.1364V45.9091C1039.94 46.5682 1040.05 47.1269 1040.28 47.5852C1040.51 48.0398 1040.83 48.3864 1041.24 48.625C1041.65 48.8598 1042.13 48.9773 1042.67 48.9773C1043.02 48.9773 1043.34 48.928 1043.62 48.8295C1043.91 48.7273 1044.16 48.5758 1044.37 48.375C1044.57 48.1705 1044.74 47.9167 1044.85 47.6136L1046.14 47.9773C1046.01 48.4167 1045.78 48.803 1045.46 49.1364C1045.14 49.4659 1044.74 49.7235 1044.26 49.9091C1043.79 50.0909 1043.26 50.1818 1042.67 50.1818ZM1048.32 50V41.2727H1049.62V42.6364H1049.73C1049.91 42.1705 1050.21 41.8087 1050.61 41.5511C1051.02 41.2898 1051.5 41.1591 1052.07 41.1591C1052.65 41.1591 1053.13 41.2898 1053.51 41.5511C1053.89 41.8087 1054.2 42.1705 1054.41 42.6364H1054.5C1054.73 42.1856 1055.06 41.8277 1055.51 41.5625C1055.96 41.2936 1056.49 41.1591 1057.12 41.1591C1057.9 41.1591 1058.54 41.4034 1059.03 41.892C1059.53 42.3769 1059.78 43.1326 1059.78 44.1591V50H1058.43V44.1591C1058.43 43.5152 1058.26 43.0549 1057.91 42.7784C1057.55 42.5019 1057.14 42.3636 1056.66 42.3636C1056.05 42.3636 1055.57 42.5492 1055.24 42.9205C1054.9 43.2879 1054.73 43.7538 1054.73 44.3182V50H1053.37V44.0227C1053.37 43.5265 1053.21 43.1269 1052.88 42.8239C1052.56 42.517 1052.15 42.3636 1051.64 42.3636C1051.29 42.3636 1050.96 42.4564 1050.66 42.642C1050.36 42.8277 1050.12 43.0852 1049.93 43.4148C1049.75 43.7405 1049.66 44.1174 1049.66 44.5455V50H1048.32ZM1065.89 50.1818C1065.05 50.1818 1064.32 49.9962 1063.71 49.625C1063.1 49.25 1062.64 48.7273 1062.31 48.0568C1061.98 47.3826 1061.82 46.5985 1061.82 45.7045C1061.82 44.8106 1061.98 44.0227 1062.31 43.3409C1062.64 42.6553 1063.09 42.1212 1063.68 41.7386C1064.27 41.3523 1064.96 41.1591 1065.75 41.1591C1066.2 41.1591 1066.65 41.2348 1067.1 41.3864C1067.54 41.5379 1067.94 41.7841 1068.31 42.125C1068.67 42.4621 1068.96 42.9091 1069.18 43.4659C1069.39 44.0227 1069.5 44.7083 1069.5 45.5227V46.0909H1062.77V44.9318H1068.14C1068.14 44.4394 1068.04 44 1067.84 43.6136C1067.65 43.2273 1067.37 42.9223 1067.01 42.6989C1066.66 42.4754 1066.23 42.3636 1065.75 42.3636C1065.22 42.3636 1064.75 42.4962 1064.36 42.7614C1063.98 43.0227 1063.68 43.3636 1063.47 43.7841C1063.26 44.2045 1063.16 44.6553 1063.16 45.1364V45.9091C1063.16 46.5682 1063.27 47.1269 1063.5 47.5852C1063.73 48.0398 1064.05 48.3864 1064.46 48.625C1064.87 48.8598 1065.34 48.9773 1065.89 48.9773C1066.24 48.9773 1066.56 48.928 1066.84 48.8295C1067.13 48.7273 1067.38 48.5758 1067.59 48.375C1067.79 48.1705 1067.95 47.9167 1068.07 47.6136L1069.36 47.9773C1069.23 48.4167 1069 48.803 1068.68 49.1364C1068.35 49.4659 1067.96 49.7235 1067.48 49.9091C1067.01 50.0909 1066.48 50.1818 1065.89 50.1818ZM1075.65 37.8182L1071.9 51.75H1070.68L1074.43 37.8182H1075.65ZM937.409 67.2273L936.205 67.5682C936.129 67.3674 936.017 67.1723 935.869 66.983C935.725 66.7898 935.528 66.6307 935.278 66.5057C935.028 66.3807 934.708 66.3182 934.318 66.3182C933.784 66.3182 933.339 66.4413 932.983 66.6875C932.631 66.9299 932.455 67.2386 932.455 67.6136C932.455 67.947 932.576 68.2102 932.818 68.4034C933.061 68.5966 933.439 68.7576 933.955 68.8864L935.25 69.2045C936.03 69.3939 936.612 69.6837 936.994 70.0739C937.377 70.4602 937.568 70.9583 937.568 71.5682C937.568 72.0682 937.424 72.5152 937.136 72.9091C936.852 73.303 936.455 73.6136 935.943 73.8409C935.432 74.0682 934.837 74.1818 934.159 74.1818C933.269 74.1818 932.532 73.9886 931.949 73.6023C931.366 73.2159 930.996 72.6515 930.841 71.9091L932.114 71.5909C932.235 72.0606 932.464 72.4129 932.801 72.6477C933.142 72.8826 933.587 73 934.136 73C934.761 73 935.258 72.8674 935.625 72.6023C935.996 72.3333 936.182 72.0114 936.182 71.6364C936.182 71.3333 936.076 71.0795 935.864 70.875C935.652 70.6667 935.326 70.5114 934.886 70.4091L933.432 70.0682C932.633 69.8788 932.045 69.5852 931.67 69.1875C931.299 68.786 931.114 68.2841 931.114 67.6818C931.114 67.1894 931.252 66.7538 931.528 66.375C931.809 65.9962 932.189 65.6989 932.67 65.483C933.155 65.267 933.705 65.1591 934.318 65.1591C935.182 65.1591 935.86 65.3485 936.352 65.7273C936.848 66.1061 937.201 66.6061 937.409 67.2273ZM945.087 70.4318V65.2727H946.428V74H945.087V72.5227H944.996C944.791 72.9659 944.473 73.3428 944.041 73.6534C943.609 73.9602 943.064 74.1136 942.405 74.1136C941.859 74.1136 941.375 73.9943 940.95 73.7557C940.526 73.5133 940.193 73.1496 939.95 72.6648C939.708 72.1761 939.587 71.5606 939.587 70.8182V65.2727H940.928V70.7273C940.928 71.3636 941.106 71.8712 941.462 72.25C941.821 72.6288 942.28 72.8182 942.837 72.8182C943.17 72.8182 943.509 72.733 943.854 72.5625C944.202 72.392 944.494 72.1307 944.729 71.7784C944.967 71.4261 945.087 70.9773 945.087 70.4318ZM948.884 74V65.2727H950.179V66.5909H950.27C950.429 66.1591 950.717 65.8087 951.134 65.5398C951.55 65.2708 952.02 65.1364 952.543 65.1364C952.641 65.1364 952.764 65.1383 952.912 65.142C953.06 65.1458 953.171 65.1515 953.247 65.1591V66.5227C953.202 66.5114 953.098 66.4943 952.935 66.4716C952.776 66.4451 952.607 66.4318 952.429 66.4318C952.005 66.4318 951.626 66.5208 951.293 66.6989C950.963 66.8731 950.702 67.1155 950.509 67.4261C950.319 67.733 950.224 68.0833 950.224 68.4773V74H948.884ZM959.27 65.2727V66.4091H954.565V65.2727H959.27ZM955.974 74V64.0682C955.974 63.5682 956.092 63.1515 956.327 62.8182C956.562 62.4848 956.866 62.2348 957.241 62.0682C957.616 61.9015 958.012 61.8182 958.429 61.8182C958.759 61.8182 959.027 61.8447 959.236 61.8977C959.444 61.9508 959.599 62 959.702 62.0455L959.315 63.2045C959.247 63.1818 959.152 63.1534 959.031 63.1193C958.914 63.0852 958.759 63.0682 958.565 63.0682C958.122 63.0682 957.802 63.1799 957.605 63.4034C957.412 63.6269 957.315 63.9545 957.315 64.3864V74H955.974ZM963.467 74.2045C962.914 74.2045 962.412 74.1004 961.962 73.892C961.511 73.6799 961.153 73.375 960.888 72.9773C960.623 72.5758 960.49 72.0909 960.49 71.5227C960.49 71.0227 960.589 70.6174 960.786 70.3068C960.982 69.9924 961.246 69.7462 961.575 69.5682C961.905 69.3902 962.268 69.2576 962.666 69.1705C963.068 69.0795 963.471 69.0076 963.876 68.9545C964.407 68.8864 964.837 68.8352 965.166 68.8011C965.5 68.7633 965.742 68.7008 965.893 68.6136C966.049 68.5265 966.126 68.375 966.126 68.1591V68.1136C966.126 67.553 965.973 67.1174 965.666 66.8068C965.363 66.4962 964.903 66.3409 964.286 66.3409C963.645 66.3409 963.143 66.4811 962.78 66.7614C962.416 67.0417 962.161 67.3409 962.013 67.6591L960.74 67.2045C960.967 66.6742 961.27 66.2614 961.649 65.9659C962.032 65.6667 962.448 65.4583 962.899 65.3409C963.354 65.2197 963.801 65.1591 964.24 65.1591C964.52 65.1591 964.842 65.1932 965.206 65.2614C965.573 65.3258 965.928 65.4602 966.268 65.6648C966.613 65.8693 966.899 66.178 967.126 66.5909C967.354 67.0038 967.467 67.5568 967.467 68.25V74H966.126V72.8182H966.058C965.967 73.0076 965.816 73.2102 965.604 73.4261C965.392 73.642 965.109 73.8258 964.757 73.9773C964.405 74.1288 963.975 74.2045 963.467 74.2045ZM963.672 73C964.202 73 964.649 72.8958 965.013 72.6875C965.38 72.4792 965.657 72.2102 965.842 71.8807C966.032 71.5511 966.126 71.2045 966.126 70.8409V69.6136C966.07 69.6818 965.945 69.7443 965.751 69.8011C965.562 69.8542 965.342 69.9015 965.092 69.9432C964.846 69.9811 964.606 70.0152 964.371 70.0455C964.14 70.072 963.952 70.0947 963.808 70.1136C963.46 70.1591 963.134 70.233 962.831 70.3352C962.532 70.4337 962.289 70.5833 962.104 70.7841C961.922 70.9811 961.831 71.25 961.831 71.5909C961.831 72.0568 962.003 72.4091 962.348 72.6477C962.696 72.8826 963.138 73 963.672 73ZM973.46 74.1818C972.642 74.1818 971.938 73.9886 971.347 73.6023C970.756 73.2159 970.301 72.6837 969.983 72.0057C969.665 71.3277 969.506 70.553 969.506 69.6818C969.506 68.7955 969.669 68.0133 969.994 67.3352C970.324 66.6534 970.782 66.1212 971.369 65.7386C971.96 65.3523 972.65 65.1591 973.438 65.1591C974.051 65.1591 974.604 65.2727 975.097 65.5C975.589 65.7273 975.992 66.0455 976.307 66.4545C976.621 66.8636 976.816 67.3409 976.892 67.8864H975.551C975.449 67.4886 975.222 67.1364 974.869 66.8295C974.521 66.5189 974.051 66.3636 973.46 66.3636C972.938 66.3636 972.479 66.5 972.085 66.7727C971.695 67.0417 971.39 67.4223 971.17 67.9148C970.955 68.4034 970.847 68.9773 970.847 69.6364C970.847 70.3106 970.953 70.8977 971.165 71.3977C971.381 71.8977 971.684 72.286 972.074 72.5625C972.468 72.839 972.93 72.9773 973.46 72.9773C973.809 72.9773 974.125 72.9167 974.409 72.7955C974.693 72.6742 974.934 72.5 975.131 72.2727C975.328 72.0455 975.468 71.7727 975.551 71.4545H976.892C976.816 71.9697 976.629 72.4337 976.33 72.8466C976.034 73.2557 975.642 73.5814 975.153 73.8239C974.669 74.0625 974.104 74.1818 973.46 74.1818ZM982.511 74.1818C981.67 74.1818 980.945 73.9962 980.335 73.625C979.729 73.25 979.261 72.7273 978.932 72.0568C978.606 71.3826 978.443 70.5985 978.443 69.7045C978.443 68.8106 978.606 68.0227 978.932 67.3409C979.261 66.6553 979.72 66.1212 980.307 65.7386C980.898 65.3523 981.587 65.1591 982.375 65.1591C982.83 65.1591 983.278 65.2348 983.722 65.3864C984.165 65.5379 984.568 65.7841 984.932 66.125C985.295 66.4621 985.585 66.9091 985.801 67.4659C986.017 68.0227 986.125 68.7083 986.125 69.5227V70.0909H979.398V68.9318H984.761C984.761 68.4394 984.663 68 984.466 67.6136C984.273 67.2273 983.996 66.9223 983.636 66.6989C983.28 66.4754 982.86 66.3636 982.375 66.3636C981.841 66.3636 981.379 66.4962 980.989 66.7614C980.602 67.0227 980.305 67.3636 980.097 67.7841C979.888 68.2045 979.784 68.6553 979.784 69.1364V69.9091C979.784 70.5682 979.898 71.1269 980.125 71.5852C980.356 72.0398 980.676 72.3864 981.085 72.625C981.494 72.8598 981.97 72.9773 982.511 72.9773C982.864 72.9773 983.182 72.928 983.466 72.8295C983.754 72.7273 984.002 72.5758 984.21 72.375C984.419 72.1705 984.58 71.9167 984.693 71.6136L985.989 71.9773C985.852 72.4167 985.623 72.803 985.301 73.1364C984.979 73.4659 984.581 73.7235 984.108 73.9091C983.634 74.0909 983.102 74.1818 982.511 74.1818ZM992.278 61.8182L988.528 75.75H987.301L991.051 61.8182H992.278ZM995.209 68.75V74H993.868V65.2727H995.163V66.6364H995.277C995.482 66.1932 995.792 65.8371 996.209 65.5682C996.625 65.2955 997.163 65.1591 997.822 65.1591C998.413 65.1591 998.93 65.2803 999.374 65.5227C999.817 65.7614 1000.16 66.125 1000.41 66.6136C1000.65 67.0985 1000.78 67.7121 1000.78 68.4545V74H999.436V68.5455C999.436 67.8598 999.258 67.3258 998.902 66.9432C998.546 66.5568 998.057 66.3636 997.436 66.3636C997.008 66.3636 996.625 66.4564 996.288 66.642C995.955 66.8277 995.692 67.0985 995.499 67.4545C995.305 67.8106 995.209 68.2424 995.209 68.75ZM1006.89 74.1818C1006.05 74.1818 1005.32 73.9962 1004.71 73.625C1004.1 73.25 1003.64 72.7273 1003.31 72.0568C1002.98 71.3826 1002.82 70.5985 1002.82 69.7045C1002.82 68.8106 1002.98 68.0227 1003.31 67.3409C1003.64 66.6553 1004.09 66.1212 1004.68 65.7386C1005.27 65.3523 1005.96 65.1591 1006.75 65.1591C1007.2 65.1591 1007.65 65.2348 1008.1 65.3864C1008.54 65.5379 1008.94 65.7841 1009.31 66.125C1009.67 66.4621 1009.96 66.9091 1010.18 67.4659C1010.39 68.0227 1010.5 68.7083 1010.5 69.5227V70.0909H1003.77V68.9318H1009.14C1009.14 68.4394 1009.04 68 1008.84 67.6136C1008.65 67.2273 1008.37 66.9223 1008.01 66.6989C1007.66 66.4754 1007.23 66.3636 1006.75 66.3636C1006.22 66.3636 1005.75 66.4962 1005.36 66.7614C1004.98 67.0227 1004.68 67.3636 1004.47 67.7841C1004.26 68.2045 1004.16 68.6553 1004.16 69.1364V69.9091C1004.16 70.5682 1004.27 71.1269 1004.5 71.5852C1004.73 72.0398 1005.05 72.3864 1005.46 72.625C1005.87 72.8598 1006.34 72.9773 1006.89 72.9773C1007.24 72.9773 1007.56 72.928 1007.84 72.8295C1008.13 72.7273 1008.38 72.5758 1008.59 72.375C1008.79 72.1705 1008.95 71.9167 1009.07 71.6136L1010.36 71.9773C1010.23 72.4167 1010 72.803 1009.68 73.1364C1009.35 73.4659 1008.96 73.7235 1008.48 73.9091C1008.01 74.0909 1007.48 74.1818 1006.89 74.1818ZM1018.04 70.4318V65.2727H1019.38V74H1018.04V72.5227H1017.95C1017.74 72.9659 1017.43 73.3428 1016.99 73.6534C1016.56 73.9602 1016.02 74.1136 1015.36 74.1136C1014.81 74.1136 1014.33 73.9943 1013.9 73.7557C1013.48 73.5133 1013.15 73.1496 1012.9 72.6648C1012.66 72.1761 1012.54 71.5606 1012.54 70.8182V65.2727H1013.88V70.7273C1013.88 71.3636 1014.06 71.8712 1014.41 72.25C1014.77 72.6288 1015.23 72.8182 1015.79 72.8182C1016.12 72.8182 1016.46 72.733 1016.81 72.5625C1017.16 72.392 1017.45 72.1307 1017.68 71.7784C1017.92 71.4261 1018.04 70.9773 1018.04 70.4318ZM1025.63 65.2727V66.4091H1021.11V65.2727H1025.63ZM1022.43 63.1818H1023.77V71.5C1023.77 71.8788 1023.82 72.1629 1023.93 72.3523C1024.05 72.5379 1024.19 72.6629 1024.37 72.7273C1024.54 72.7879 1024.73 72.8182 1024.93 72.8182C1025.08 72.8182 1025.2 72.8106 1025.29 72.7955C1025.39 72.7765 1025.46 72.7614 1025.52 72.75L1025.79 73.9545C1025.7 73.9886 1025.57 74.0227 1025.41 74.0568C1025.25 74.0947 1025.04 74.1136 1024.79 74.1136C1024.41 74.1136 1024.04 74.0322 1023.68 73.8693C1023.32 73.7064 1023.02 73.4583 1022.78 73.125C1022.54 72.7917 1022.43 72.3712 1022.43 71.8636V63.1818ZM1027.65 74V65.2727H1028.94V66.5909H1029.04C1029.19 66.1591 1029.48 65.8087 1029.9 65.5398C1030.32 65.2708 1030.79 65.1364 1031.31 65.1364C1031.41 65.1364 1031.53 65.1383 1031.68 65.142C1031.83 65.1458 1031.94 65.1515 1032.01 65.1591V66.5227C1031.97 66.5114 1031.86 66.4943 1031.7 66.4716C1031.54 66.4451 1031.37 66.4318 1031.19 66.4318C1030.77 66.4318 1030.39 66.5208 1030.06 66.6989C1029.73 66.8731 1029.47 67.1155 1029.27 67.4261C1029.08 67.733 1028.99 68.0833 1028.99 68.4773V74H1027.65ZM1036.17 74.2045C1035.62 74.2045 1035.12 74.1004 1034.66 73.892C1034.21 73.6799 1033.86 73.375 1033.59 72.9773C1033.33 72.5758 1033.19 72.0909 1033.19 71.5227C1033.19 71.0227 1033.29 70.6174 1033.49 70.3068C1033.69 69.9924 1033.95 69.7462 1034.28 69.5682C1034.61 69.3902 1034.97 69.2576 1035.37 69.1705C1035.77 69.0795 1036.17 69.0076 1036.58 68.9545C1037.11 68.8864 1037.54 68.8352 1037.87 68.8011C1038.2 68.7633 1038.45 68.7008 1038.6 68.6136C1038.75 68.5265 1038.83 68.375 1038.83 68.1591V68.1136C1038.83 67.553 1038.68 67.1174 1038.37 66.8068C1038.07 66.4962 1037.61 66.3409 1036.99 66.3409C1036.35 66.3409 1035.85 66.4811 1035.48 66.7614C1035.12 67.0417 1034.86 67.3409 1034.72 67.6591L1033.44 67.2045C1033.67 66.6742 1033.97 66.2614 1034.35 65.9659C1034.73 65.6667 1035.15 65.4583 1035.6 65.3409C1036.06 65.2197 1036.5 65.1591 1036.94 65.1591C1037.22 65.1591 1037.55 65.1932 1037.91 65.2614C1038.28 65.3258 1038.63 65.4602 1038.97 65.6648C1039.32 65.8693 1039.6 66.178 1039.83 66.5909C1040.06 67.0038 1040.17 67.5568 1040.17 68.25V74H1038.83V72.8182H1038.76C1038.67 73.0076 1038.52 73.2102 1038.31 73.4261C1038.09 73.642 1037.81 73.8258 1037.46 73.9773C1037.11 74.1288 1036.68 74.2045 1036.17 74.2045ZM1036.38 73C1036.91 73 1037.35 72.8958 1037.72 72.6875C1038.08 72.4792 1038.36 72.2102 1038.55 71.8807C1038.73 71.5511 1038.83 71.2045 1038.83 70.8409V69.6136C1038.77 69.6818 1038.65 69.7443 1038.45 69.8011C1038.27 69.8542 1038.05 69.9015 1037.8 69.9432C1037.55 69.9811 1037.31 70.0152 1037.07 70.0455C1036.84 70.072 1036.66 70.0947 1036.51 70.1136C1036.16 70.1591 1035.84 70.233 1035.53 70.3352C1035.23 70.4337 1034.99 70.5833 1034.81 70.7841C1034.63 70.9811 1034.53 71.25 1034.53 71.5909C1034.53 72.0568 1034.71 72.4091 1035.05 72.6477C1035.4 72.8826 1035.84 73 1036.38 73ZM1043.96 62.3636V74H1042.62V62.3636H1043.96ZM1050.53 61.8182L1046.78 75.75H1045.55L1049.3 61.8182H1050.53ZM1055.89 74.1591C1055.03 74.1591 1054.31 73.9261 1053.7 73.4602C1053.1 72.9905 1052.64 72.3106 1052.32 71.4205C1052 70.5265 1051.85 69.447 1051.85 68.1818C1051.85 66.9242 1052 65.8504 1052.32 64.9602C1052.64 64.0663 1053.11 63.3845 1053.71 62.9148C1054.31 62.4413 1055.04 62.2045 1055.89 62.2045C1056.74 62.2045 1057.46 62.4413 1058.07 62.9148C1058.67 63.3845 1059.13 64.0663 1059.45 64.9602C1059.78 65.8504 1059.94 66.9242 1059.94 68.1818C1059.94 69.447 1059.78 70.5265 1059.46 71.4205C1059.14 72.3106 1058.68 72.9905 1058.08 73.4602C1057.48 73.9261 1056.75 74.1591 1055.89 74.1591ZM1055.89 72.9091C1056.74 72.9091 1057.4 72.5 1057.87 71.6818C1058.34 70.8636 1058.57 69.697 1058.57 68.1818C1058.57 67.1742 1058.46 66.3163 1058.25 65.608C1058.04 64.8996 1057.73 64.3598 1057.33 63.9886C1056.93 63.6174 1056.45 63.4318 1055.89 63.4318C1055.05 63.4318 1054.39 63.8466 1053.92 64.6761C1053.45 65.5019 1053.21 66.6705 1053.21 68.1818C1053.21 69.1894 1053.31 70.0455 1053.53 70.75C1053.74 71.4545 1054.04 71.9905 1054.44 72.358C1054.84 72.7254 1055.33 72.9091 1055.89 72.9091ZM1065.89 74.1591C1065.03 74.1591 1064.31 73.9261 1063.7 73.4602C1063.1 72.9905 1062.64 72.3106 1062.32 71.4205C1062 70.5265 1061.85 69.447 1061.85 68.1818C1061.85 66.9242 1062 65.8504 1062.32 64.9602C1062.64 64.0663 1063.11 63.3845 1063.71 62.9148C1064.31 62.4413 1065.04 62.2045 1065.89 62.2045C1066.74 62.2045 1067.46 62.4413 1068.07 62.9148C1068.67 63.3845 1069.13 64.0663 1069.45 64.9602C1069.78 65.8504 1069.94 66.9242 1069.94 68.1818C1069.94 69.447 1069.78 70.5265 1069.46 71.4205C1069.14 72.3106 1068.68 72.9905 1068.08 73.4602C1067.48 73.9261 1066.75 74.1591 1065.89 74.1591ZM1065.89 72.9091C1066.74 72.9091 1067.4 72.5 1067.87 71.6818C1068.34 70.8636 1068.57 69.697 1068.57 68.1818C1068.57 67.1742 1068.46 66.3163 1068.25 65.608C1068.04 64.8996 1067.73 64.3598 1067.33 63.9886C1066.93 63.6174 1066.45 63.4318 1065.89 63.4318C1065.05 63.4318 1064.39 63.8466 1063.92 64.6761C1063.45 65.5019 1063.21 66.6705 1063.21 68.1818C1063.21 69.1894 1063.31 70.0455 1063.53 70.75C1063.74 71.4545 1064.04 71.9905 1064.44 72.358C1064.84 72.7254 1065.33 72.9091 1065.89 72.9091ZM1076.23 61.8182L1072.48 75.75H1071.25L1075 61.8182H1076.23ZM934.523 98.1818C933.795 98.1818 933.153 97.9981 932.597 97.6307C932.04 97.2595 931.604 96.7367 931.29 96.0625C930.975 95.3845 930.818 94.5833 930.818 93.6591C930.818 92.7424 930.975 91.947 931.29 91.2727C931.604 90.5985 932.042 90.0777 932.602 89.7102C933.163 89.3428 933.811 89.1591 934.545 89.1591C935.114 89.1591 935.563 89.2538 935.892 89.4432C936.225 89.6288 936.479 89.8409 936.653 90.0795C936.831 90.3144 936.97 90.5076 937.068 90.6591H937.182V86.3636H938.523V98H937.227V96.6591H937.068C936.97 96.8182 936.83 97.0189 936.648 97.2614C936.466 97.5 936.206 97.714 935.869 97.9034C935.532 98.089 935.083 98.1818 934.523 98.1818ZM934.705 96.9773C935.242 96.9773 935.697 96.8371 936.068 96.5568C936.439 96.2727 936.722 95.8807 936.915 95.3807C937.108 94.8769 937.205 94.2955 937.205 93.6364C937.205 92.9848 937.11 92.4148 936.92 91.9261C936.731 91.4337 936.451 91.0511 936.08 90.7784C935.708 90.5019 935.25 90.3636 934.705 90.3636C934.136 90.3636 933.663 90.5095 933.284 90.8011C932.909 91.089 932.627 91.4811 932.438 91.9773C932.252 92.4697 932.159 93.0227 932.159 93.6364C932.159 94.2576 932.254 94.822 932.443 95.3295C932.636 95.8333 932.92 96.2348 933.295 96.5341C933.674 96.8295 934.144 96.9773 934.705 96.9773ZM944.824 98.1818C943.983 98.1818 943.258 97.9962 942.648 97.625C942.042 97.25 941.574 96.7273 941.244 96.0568C940.919 95.3826 940.756 94.5985 940.756 93.7045C940.756 92.8106 940.919 92.0227 941.244 91.3409C941.574 90.6553 942.032 90.1212 942.619 89.7386C943.21 89.3523 943.9 89.1591 944.688 89.1591C945.142 89.1591 945.591 89.2348 946.034 89.3864C946.477 89.5379 946.881 89.7841 947.244 90.125C947.608 90.4621 947.898 90.9091 948.114 91.4659C948.33 92.0227 948.438 92.7083 948.438 93.5227V94.0909H941.71V92.9318H947.074C947.074 92.4394 946.975 92 946.778 91.6136C946.585 91.2273 946.309 90.9223 945.949 90.6989C945.593 90.4754 945.172 90.3636 944.688 90.3636C944.153 90.3636 943.691 90.4962 943.301 90.7614C942.915 91.0227 942.617 91.3636 942.409 91.7841C942.201 92.2045 942.097 92.6553 942.097 93.1364V93.9091C942.097 94.5682 942.21 95.1269 942.438 95.5852C942.669 96.0398 942.989 96.3864 943.398 96.625C943.807 96.8598 944.282 96.9773 944.824 96.9773C945.176 96.9773 945.494 96.928 945.778 96.8295C946.066 96.7273 946.314 96.5758 946.523 96.375C946.731 96.1705 946.892 95.9167 947.006 95.6136L948.301 95.9773C948.165 96.4167 947.936 96.803 947.614 97.1364C947.292 97.4659 946.894 97.7235 946.42 97.9091C945.947 98.0909 945.415 98.1818 944.824 98.1818ZM954.364 89.2727V90.4091H949.659V89.2727H954.364ZM951.068 98V88.0682C951.068 87.5682 951.186 87.1515 951.42 86.8182C951.655 86.4848 951.96 86.2348 952.335 86.0682C952.71 85.9015 953.106 85.8182 953.523 85.8182C953.852 85.8182 954.121 85.8447 954.33 85.8977C954.538 85.9508 954.693 86 954.795 86.0455L954.409 87.2045C954.341 87.1818 954.246 87.1534 954.125 87.1193C954.008 87.0852 953.852 87.0682 953.659 87.0682C953.216 87.0682 952.896 87.1799 952.699 87.4034C952.506 87.6269 952.409 87.9545 952.409 88.3864V98H951.068ZM958.561 98.2045C958.008 98.2045 957.506 98.1004 957.055 97.892C956.605 97.6799 956.247 97.375 955.982 96.9773C955.716 96.5758 955.584 96.0909 955.584 95.5227C955.584 95.0227 955.682 94.6174 955.879 94.3068C956.076 93.9924 956.339 93.7462 956.669 93.5682C956.999 93.3902 957.362 93.2576 957.76 93.1705C958.161 93.0795 958.565 93.0076 958.97 92.9545C959.5 92.8864 959.93 92.8352 960.26 92.8011C960.593 92.7633 960.836 92.7008 960.987 92.6136C961.143 92.5265 961.22 92.375 961.22 92.1591V92.1136C961.22 91.553 961.067 91.1174 960.76 90.8068C960.457 90.4962 959.997 90.3409 959.379 90.3409C958.739 90.3409 958.237 90.4811 957.874 90.7614C957.51 91.0417 957.254 91.3409 957.107 91.6591L955.834 91.2045C956.061 90.6742 956.364 90.2614 956.743 89.9659C957.125 89.6667 957.542 89.4583 957.993 89.3409C958.447 89.2197 958.894 89.1591 959.334 89.1591C959.614 89.1591 959.936 89.1932 960.3 89.2614C960.667 89.3258 961.021 89.4602 961.362 89.6648C961.707 89.8693 961.993 90.178 962.22 90.5909C962.447 91.0038 962.561 91.5568 962.561 92.25V98H961.22V96.8182H961.152C961.061 97.0076 960.91 97.2102 960.697 97.4261C960.485 97.642 960.203 97.8258 959.851 97.9773C959.499 98.1288 959.069 98.2045 958.561 98.2045ZM958.766 97C959.296 97 959.743 96.8958 960.107 96.6875C960.474 96.4792 960.75 96.2102 960.936 95.8807C961.125 95.5511 961.22 95.2045 961.22 94.8409V93.6136C961.163 93.6818 961.038 93.7443 960.845 93.8011C960.656 93.8542 960.436 93.9015 960.186 93.9432C959.94 93.9811 959.699 94.0152 959.464 94.0455C959.233 94.072 959.046 94.0947 958.902 94.1136C958.554 94.1591 958.228 94.233 957.925 94.3352C957.625 94.4337 957.383 94.5833 957.197 94.7841C957.016 94.9811 956.925 95.25 956.925 95.5909C956.925 96.0568 957.097 96.4091 957.442 96.6477C957.79 96.8826 958.232 97 958.766 97ZM970.509 94.4318V89.2727H971.849V98H970.509V96.5227H970.418C970.213 96.9659 969.895 97.3428 969.463 97.6534C969.031 97.9602 968.486 98.1136 967.827 98.1136C967.281 98.1136 966.796 97.9943 966.372 97.7557C965.948 97.5133 965.615 97.1496 965.372 96.6648C965.13 96.1761 965.009 95.5606 965.009 94.8182V89.2727H966.349V94.7273C966.349 95.3636 966.527 95.8712 966.884 96.25C967.243 96.6288 967.702 96.8182 968.259 96.8182C968.592 96.8182 968.931 96.733 969.276 96.5625C969.624 96.392 969.916 96.1307 970.151 95.7784C970.389 95.4261 970.509 94.9773 970.509 94.4318ZM975.646 86.3636V98H974.305V86.3636H975.646ZM981.898 89.2727V90.4091H977.375V89.2727H981.898ZM978.693 87.1818H980.034V95.5C980.034 95.8788 980.089 96.1629 980.199 96.3523C980.313 96.5379 980.456 96.6629 980.631 96.7273C980.809 96.7879 980.996 96.8182 981.193 96.8182C981.341 96.8182 981.462 96.8106 981.557 96.7955C981.652 96.7765 981.727 96.7614 981.784 96.75L982.057 97.9545C981.966 97.9886 981.839 98.0227 981.676 98.0568C981.513 98.0947 981.307 98.1136 981.057 98.1136C980.678 98.1136 980.307 98.0322 979.943 97.8693C979.583 97.7064 979.284 97.4583 979.045 97.125C978.811 96.7917 978.693 96.3712 978.693 95.8636V87.1818ZM941.227 116.182C941.227 117.409 941.006 118.47 940.562 119.364C940.119 120.258 939.511 120.947 938.739 121.432C937.966 121.917 937.083 122.159 936.091 122.159C935.098 122.159 934.216 121.917 933.443 121.432C932.67 120.947 932.063 120.258 931.619 119.364C931.176 118.47 930.955 117.409 930.955 116.182C930.955 114.955 931.176 113.894 931.619 113C932.063 112.106 932.67 111.417 933.443 110.932C934.216 110.447 935.098 110.205 936.091 110.205C937.083 110.205 937.966 110.447 938.739 110.932C939.511 111.417 940.119 112.106 940.562 113C941.006 113.894 941.227 114.955 941.227 116.182ZM939.864 116.182C939.864 115.174 939.695 114.324 939.358 113.631C939.025 112.938 938.572 112.413 938 112.057C937.432 111.701 936.795 111.523 936.091 111.523C935.386 111.523 934.748 111.701 934.176 112.057C933.608 112.413 933.155 112.938 932.818 113.631C932.485 114.324 932.318 115.174 932.318 116.182C932.318 117.189 932.485 118.04 932.818 118.733C933.155 119.426 933.608 119.951 934.176 120.307C934.748 120.663 935.386 120.841 936.091 120.841C936.795 120.841 937.432 120.663 938 120.307C938.572 119.951 939.025 119.426 939.358 118.733C939.695 118.04 939.864 117.189 939.864 116.182ZM948.915 118.432V113.273H950.256V122H948.915V120.523H948.824C948.619 120.966 948.301 121.343 947.869 121.653C947.438 121.96 946.892 122.114 946.233 122.114C945.688 122.114 945.203 121.994 944.778 121.756C944.354 121.513 944.021 121.15 943.778 120.665C943.536 120.176 943.415 119.561 943.415 118.818V113.273H944.756V118.727C944.756 119.364 944.934 119.871 945.29 120.25C945.65 120.629 946.108 120.818 946.665 120.818C946.998 120.818 947.337 120.733 947.682 120.562C948.03 120.392 948.322 120.131 948.557 119.778C948.795 119.426 948.915 118.977 948.915 118.432ZM956.507 113.273V114.409H951.984V113.273H956.507ZM953.303 111.182H954.643V119.5C954.643 119.879 954.698 120.163 954.808 120.352C954.922 120.538 955.066 120.663 955.24 120.727C955.418 120.788 955.606 120.818 955.803 120.818C955.95 120.818 956.071 120.811 956.166 120.795C956.261 120.777 956.337 120.761 956.393 120.75L956.666 121.955C956.575 121.989 956.448 122.023 956.286 122.057C956.123 122.095 955.916 122.114 955.666 122.114C955.287 122.114 954.916 122.032 954.553 121.869C954.193 121.706 953.893 121.458 953.655 121.125C953.42 120.792 953.303 120.371 953.303 119.864V111.182ZM960.053 110.364V122H958.712V110.364H960.053ZM962.509 122V113.273H963.849V122H962.509ZM963.19 111.818C962.929 111.818 962.704 111.729 962.514 111.551C962.329 111.373 962.236 111.159 962.236 110.909C962.236 110.659 962.329 110.445 962.514 110.267C962.704 110.089 962.929 110 963.19 110C963.452 110 963.675 110.089 963.861 110.267C964.05 110.445 964.145 110.659 964.145 110.909C964.145 111.159 964.05 111.373 963.861 111.551C963.675 111.729 963.452 111.818 963.19 111.818ZM967.646 116.75V122H966.305V113.273H967.601V114.636H967.714C967.919 114.193 968.23 113.837 968.646 113.568C969.063 113.295 969.601 113.159 970.26 113.159C970.851 113.159 971.368 113.28 971.811 113.523C972.254 113.761 972.599 114.125 972.845 114.614C973.091 115.098 973.214 115.712 973.214 116.455V122H971.874V116.545C971.874 115.86 971.696 115.326 971.339 114.943C970.983 114.557 970.495 114.364 969.874 114.364C969.446 114.364 969.063 114.456 968.726 114.642C968.393 114.828 968.129 115.098 967.936 115.455C967.743 115.811 967.646 116.242 967.646 116.75ZM979.324 122.182C978.483 122.182 977.758 121.996 977.148 121.625C976.542 121.25 976.074 120.727 975.744 120.057C975.419 119.383 975.256 118.598 975.256 117.705C975.256 116.811 975.419 116.023 975.744 115.341C976.074 114.655 976.532 114.121 977.119 113.739C977.71 113.352 978.4 113.159 979.188 113.159C979.642 113.159 980.091 113.235 980.534 113.386C980.977 113.538 981.381 113.784 981.744 114.125C982.108 114.462 982.398 114.909 982.614 115.466C982.83 116.023 982.938 116.708 982.938 117.523V118.091H976.21V116.932H981.574C981.574 116.439 981.475 116 981.278 115.614C981.085 115.227 980.809 114.922 980.449 114.699C980.093 114.475 979.672 114.364 979.188 114.364C978.653 114.364 978.191 114.496 977.801 114.761C977.415 115.023 977.117 115.364 976.909 115.784C976.701 116.205 976.597 116.655 976.597 117.136V117.909C976.597 118.568 976.71 119.127 976.938 119.585C977.169 120.04 977.489 120.386 977.898 120.625C978.307 120.86 978.782 120.977 979.324 120.977C979.676 120.977 979.994 120.928 980.278 120.83C980.566 120.727 980.814 120.576 981.023 120.375C981.231 120.17 981.392 119.917 981.506 119.614L982.801 119.977C982.665 120.417 982.436 120.803 982.114 121.136C981.792 121.466 981.394 121.723 980.92 121.909C980.447 122.091 979.915 122.182 979.324 122.182ZM985.955 122.091C985.674 122.091 985.434 121.991 985.233 121.79C985.032 121.589 984.932 121.348 984.932 121.068C984.932 120.788 985.032 120.547 985.233 120.347C985.434 120.146 985.674 120.045 985.955 120.045C986.235 120.045 986.475 120.146 986.676 120.347C986.877 120.547 986.977 120.788 986.977 121.068C986.977 121.254 986.93 121.424 986.835 121.58C986.744 121.735 986.621 121.86 986.466 121.955C986.314 122.045 986.144 122.091 985.955 122.091ZM985.955 115.614C985.674 115.614 985.434 115.513 985.233 115.312C985.032 115.112 984.932 114.871 984.932 114.591C984.932 114.311 985.032 114.07 985.233 113.869C985.434 113.669 985.674 113.568 985.955 113.568C986.235 113.568 986.475 113.669 986.676 113.869C986.877 114.07 986.977 114.311 986.977 114.591C986.977 114.777 986.93 114.947 986.835 115.102C986.744 115.258 986.621 115.383 986.466 115.477C986.314 115.568 986.144 115.614 985.955 115.614ZM997.429 122.182C996.611 122.182 995.906 121.989 995.315 121.602C994.724 121.216 994.27 120.684 993.952 120.006C993.634 119.328 993.474 118.553 993.474 117.682C993.474 116.795 993.637 116.013 993.963 115.335C994.293 114.653 994.751 114.121 995.338 113.739C995.929 113.352 996.618 113.159 997.406 113.159C998.02 113.159 998.573 113.273 999.065 113.5C999.558 113.727 999.961 114.045 1000.28 114.455C1000.59 114.864 1000.79 115.341 1000.86 115.886H999.52C999.418 115.489 999.19 115.136 998.838 114.83C998.49 114.519 998.02 114.364 997.429 114.364C996.906 114.364 996.448 114.5 996.054 114.773C995.664 115.042 995.359 115.422 995.139 115.915C994.923 116.403 994.815 116.977 994.815 117.636C994.815 118.311 994.921 118.898 995.134 119.398C995.349 119.898 995.652 120.286 996.043 120.562C996.437 120.839 996.899 120.977 997.429 120.977C997.777 120.977 998.094 120.917 998.378 120.795C998.662 120.674 998.902 120.5 999.099 120.273C999.296 120.045 999.437 119.773 999.52 119.455H1000.86C1000.79 119.97 1000.6 120.434 1000.3 120.847C1000 121.256 999.611 121.581 999.122 121.824C998.637 122.062 998.073 122.182 997.429 122.182ZM1006.37 122.182C1005.58 122.182 1004.89 121.994 1004.29 121.619C1003.7 121.244 1003.24 120.72 1002.91 120.045C1002.58 119.371 1002.41 118.583 1002.41 117.682C1002.41 116.773 1002.58 115.979 1002.91 115.301C1003.24 114.623 1003.7 114.097 1004.29 113.722C1004.89 113.347 1005.58 113.159 1006.37 113.159C1007.15 113.159 1007.84 113.347 1008.43 113.722C1009.03 114.097 1009.49 114.623 1009.82 115.301C1010.15 115.979 1010.32 116.773 1010.32 117.682C1010.32 118.583 1010.15 119.371 1009.82 120.045C1009.49 120.72 1009.03 121.244 1008.43 121.619C1007.84 121.994 1007.15 122.182 1006.37 122.182ZM1006.37 120.977C1006.96 120.977 1007.46 120.824 1007.84 120.517C1008.23 120.21 1008.52 119.807 1008.7 119.307C1008.89 118.807 1008.98 118.265 1008.98 117.682C1008.98 117.098 1008.89 116.555 1008.7 116.051C1008.52 115.547 1008.23 115.14 1007.84 114.83C1007.46 114.519 1006.96 114.364 1006.37 114.364C1005.77 114.364 1005.28 114.519 1004.89 114.83C1004.5 115.14 1004.22 115.547 1004.03 116.051C1003.85 116.555 1003.75 117.098 1003.75 117.682C1003.75 118.265 1003.85 118.807 1004.03 119.307C1004.22 119.807 1004.5 120.21 1004.89 120.517C1005.28 120.824 1005.77 120.977 1006.37 120.977ZM1013.71 110.364V122H1012.37V110.364H1013.71ZM1019.71 122.182C1018.92 122.182 1018.23 121.994 1017.64 121.619C1017.05 121.244 1016.58 120.72 1016.25 120.045C1015.92 119.371 1015.76 118.583 1015.76 117.682C1015.76 116.773 1015.92 115.979 1016.25 115.301C1016.58 114.623 1017.05 114.097 1017.64 113.722C1018.23 113.347 1018.92 113.159 1019.71 113.159C1020.5 113.159 1021.19 113.347 1021.78 113.722C1022.37 114.097 1022.84 114.623 1023.16 115.301C1023.5 115.979 1023.66 116.773 1023.66 117.682C1023.66 118.583 1023.5 119.371 1023.16 120.045C1022.84 120.72 1022.37 121.244 1021.78 121.619C1021.19 121.994 1020.5 122.182 1019.71 122.182ZM1019.71 120.977C1020.31 120.977 1020.8 120.824 1021.19 120.517C1021.57 120.21 1021.86 119.807 1022.05 119.307C1022.23 118.807 1022.32 118.265 1022.32 117.682C1022.32 117.098 1022.23 116.555 1022.05 116.051C1021.86 115.547 1021.57 115.14 1021.19 114.83C1020.8 114.519 1020.31 114.364 1019.71 114.364C1019.11 114.364 1018.62 114.519 1018.23 114.83C1017.85 115.14 1017.56 115.547 1017.38 116.051C1017.19 116.555 1017.1 117.098 1017.1 117.682C1017.1 118.265 1017.19 118.807 1017.38 119.307C1017.56 119.807 1017.85 120.21 1018.23 120.517C1018.62 120.824 1019.11 120.977 1019.71 120.977ZM1025.71 122V113.273H1027.01V114.591H1027.1C1027.26 114.159 1027.54 113.809 1027.96 113.54C1028.38 113.271 1028.85 113.136 1029.37 113.136C1029.47 113.136 1029.59 113.138 1029.74 113.142C1029.89 113.146 1030 113.152 1030.08 113.159V114.523C1030.03 114.511 1029.93 114.494 1029.76 114.472C1029.6 114.445 1029.44 114.432 1029.26 114.432C1028.83 114.432 1028.45 114.521 1028.12 114.699C1027.79 114.873 1027.53 115.116 1027.34 115.426C1027.15 115.733 1027.05 116.083 1027.05 116.477V122H1025.71ZM1035.23 109.818L1031.48 123.75H1030.25L1034 109.818H1035.23ZM1040.62 113.273V114.409H1036.09V113.273H1040.62ZM1037.41 111.182H1038.75V119.5C1038.75 119.879 1038.81 120.163 1038.92 120.352C1039.03 120.538 1039.18 120.663 1039.35 120.727C1039.53 120.788 1039.71 120.818 1039.91 120.818C1040.06 120.818 1040.18 120.811 1040.28 120.795C1040.37 120.777 1040.45 120.761 1040.5 120.75L1040.78 121.955C1040.68 121.989 1040.56 122.023 1040.39 122.057C1040.23 122.095 1040.03 122.114 1039.78 122.114C1039.4 122.114 1039.03 122.032 1038.66 121.869C1038.3 121.706 1038 121.458 1037.76 121.125C1037.53 120.792 1037.41 120.371 1037.41 119.864V111.182ZM1044.16 116.75V122H1042.82V110.364H1044.16V114.636H1044.28C1044.48 114.186 1044.79 113.828 1045.2 113.562C1045.61 113.294 1046.16 113.159 1046.84 113.159C1047.44 113.159 1047.96 113.278 1048.41 113.517C1048.85 113.752 1049.2 114.114 1049.45 114.602C1049.7 115.087 1049.82 115.705 1049.82 116.455V122H1048.48V116.545C1048.48 115.852 1048.3 115.316 1047.94 114.938C1047.58 114.555 1047.09 114.364 1046.46 114.364C1046.02 114.364 1045.62 114.456 1045.28 114.642C1044.93 114.828 1044.66 115.098 1044.46 115.455C1044.26 115.811 1044.16 116.242 1044.16 116.75ZM1055.93 122.182C1055.09 122.182 1054.37 121.996 1053.76 121.625C1053.15 121.25 1052.68 120.727 1052.35 120.057C1052.03 119.383 1051.87 118.598 1051.87 117.705C1051.87 116.811 1052.03 116.023 1052.35 115.341C1052.68 114.655 1053.14 114.121 1053.73 113.739C1054.32 113.352 1055.01 113.159 1055.8 113.159C1056.25 113.159 1056.7 113.235 1057.14 113.386C1057.59 113.538 1057.99 113.784 1058.35 114.125C1058.72 114.462 1059.01 114.909 1059.22 115.466C1059.44 116.023 1059.55 116.708 1059.55 117.523V118.091H1052.82V116.932H1058.18C1058.18 116.439 1058.08 116 1057.89 115.614C1057.69 115.227 1057.42 114.922 1057.06 114.699C1056.7 114.475 1056.28 114.364 1055.8 114.364C1055.26 114.364 1054.8 114.496 1054.41 114.761C1054.02 115.023 1053.73 115.364 1053.52 115.784C1053.31 116.205 1053.21 116.655 1053.21 117.136V117.909C1053.21 118.568 1053.32 119.127 1053.55 119.585C1053.78 120.04 1054.1 120.386 1054.51 120.625C1054.92 120.86 1055.39 120.977 1055.93 120.977C1056.29 120.977 1056.6 120.928 1056.89 120.83C1057.18 120.727 1057.42 120.576 1057.63 120.375C1057.84 120.17 1058 119.917 1058.12 119.614L1059.41 119.977C1059.27 120.417 1059.04 120.803 1058.72 121.136C1058.4 121.466 1058 121.723 1057.53 121.909C1057.06 122.091 1056.52 122.182 1055.93 122.182ZM1061.59 122V113.273H1062.88V114.636H1063C1063.18 114.17 1063.47 113.809 1063.88 113.551C1064.28 113.29 1064.77 113.159 1065.34 113.159C1065.91 113.159 1066.39 113.29 1066.77 113.551C1067.16 113.809 1067.46 114.17 1067.68 114.636H1067.77C1067.99 114.186 1068.33 113.828 1068.77 113.562C1069.22 113.294 1069.76 113.159 1070.38 113.159C1071.16 113.159 1071.8 113.403 1072.3 113.892C1072.79 114.377 1073.04 115.133 1073.04 116.159V122H1071.7V116.159C1071.7 115.515 1071.52 115.055 1071.17 114.778C1070.82 114.502 1070.4 114.364 1069.93 114.364C1069.31 114.364 1068.84 114.549 1068.5 114.92C1068.16 115.288 1068 115.754 1068 116.318V122H1066.63V116.023C1066.63 115.527 1066.47 115.127 1066.15 114.824C1065.83 114.517 1065.41 114.364 1064.9 114.364C1064.56 114.364 1064.23 114.456 1063.93 114.642C1063.63 114.828 1063.39 115.085 1063.2 115.415C1063.02 115.741 1062.93 116.117 1062.93 116.545V122H1061.59ZM1079.15 122.182C1078.31 122.182 1077.59 121.996 1076.98 121.625C1076.37 121.25 1075.9 120.727 1075.57 120.057C1075.25 119.383 1075.08 118.598 1075.08 117.705C1075.08 116.811 1075.25 116.023 1075.57 115.341C1075.9 114.655 1076.36 114.121 1076.95 113.739C1077.54 113.352 1078.23 113.159 1079.02 113.159C1079.47 113.159 1079.92 113.235 1080.36 113.386C1080.81 113.538 1081.21 113.784 1081.57 114.125C1081.94 114.462 1082.23 114.909 1082.44 115.466C1082.66 116.023 1082.77 116.708 1082.77 117.523V118.091H1076.04V116.932H1081.4C1081.4 116.439 1081.3 116 1081.11 115.614C1080.91 115.227 1080.64 114.922 1080.28 114.699C1079.92 114.475 1079.5 114.364 1079.02 114.364C1078.48 114.364 1078.02 114.496 1077.63 114.761C1077.24 115.023 1076.95 115.364 1076.74 115.784C1076.53 116.205 1076.42 116.655 1076.42 117.136V117.909C1076.42 118.568 1076.54 119.127 1076.77 119.585C1077 120.04 1077.32 120.386 1077.73 120.625C1078.13 120.86 1078.61 120.977 1079.15 120.977C1079.5 120.977 1079.82 120.928 1080.11 120.83C1080.39 120.727 1080.64 120.576 1080.85 120.375C1081.06 120.17 1081.22 119.917 1081.33 119.614L1082.63 119.977C1082.49 120.417 1082.26 120.803 1081.94 121.136C1081.62 121.466 1081.22 121.723 1080.75 121.909C1080.28 122.091 1079.74 122.182 1079.15 122.182ZM1088.92 109.818L1085.17 123.75H1083.94L1087.69 109.818H1088.92ZM931.409 146V134.364H932.75V138.659H932.864C932.962 138.508 933.098 138.314 933.273 138.08C933.451 137.841 933.705 137.629 934.034 137.443C934.367 137.254 934.818 137.159 935.386 137.159C936.121 137.159 936.769 137.343 937.33 137.71C937.89 138.078 938.328 138.598 938.642 139.273C938.956 139.947 939.114 140.742 939.114 141.659C939.114 142.583 938.956 143.384 938.642 144.062C938.328 144.737 937.892 145.259 937.335 145.631C936.778 145.998 936.136 146.182 935.409 146.182C934.848 146.182 934.4 146.089 934.062 145.903C933.725 145.714 933.466 145.5 933.284 145.261C933.102 145.019 932.962 144.818 932.864 144.659H932.705V146H931.409ZM932.727 141.636C932.727 142.295 932.824 142.877 933.017 143.381C933.21 143.881 933.492 144.273 933.864 144.557C934.235 144.837 934.689 144.977 935.227 144.977C935.788 144.977 936.256 144.83 936.631 144.534C937.009 144.235 937.294 143.833 937.483 143.33C937.676 142.822 937.773 142.258 937.773 141.636C937.773 141.023 937.678 140.47 937.489 139.977C937.303 139.481 937.021 139.089 936.642 138.801C936.267 138.509 935.795 138.364 935.227 138.364C934.682 138.364 934.223 138.502 933.852 138.778C933.481 139.051 933.201 139.434 933.011 139.926C932.822 140.415 932.727 140.985 932.727 141.636ZM944.71 146.182C943.922 146.182 943.231 145.994 942.636 145.619C942.045 145.244 941.583 144.72 941.25 144.045C940.92 143.371 940.756 142.583 940.756 141.682C940.756 140.773 940.92 139.979 941.25 139.301C941.583 138.623 942.045 138.097 942.636 137.722C943.231 137.347 943.922 137.159 944.71 137.159C945.498 137.159 946.188 137.347 946.778 137.722C947.373 138.097 947.835 138.623 948.165 139.301C948.498 139.979 948.665 140.773 948.665 141.682C948.665 142.583 948.498 143.371 948.165 144.045C947.835 144.72 947.373 145.244 946.778 145.619C946.188 145.994 945.498 146.182 944.71 146.182ZM944.71 144.977C945.309 144.977 945.801 144.824 946.188 144.517C946.574 144.21 946.86 143.807 947.045 143.307C947.231 142.807 947.324 142.265 947.324 141.682C947.324 141.098 947.231 140.555 947.045 140.051C946.86 139.547 946.574 139.14 946.188 138.83C945.801 138.519 945.309 138.364 944.71 138.364C944.112 138.364 943.619 138.519 943.233 138.83C942.847 139.14 942.561 139.547 942.375 140.051C942.189 140.555 942.097 141.098 942.097 141.682C942.097 142.265 942.189 142.807 942.375 143.307C942.561 143.807 942.847 144.21 943.233 144.517C943.619 144.824 944.112 144.977 944.71 144.977ZM950.712 146V137.273H952.007V138.591H952.098C952.257 138.159 952.545 137.809 952.962 137.54C953.378 137.271 953.848 137.136 954.371 137.136C954.469 137.136 954.592 137.138 954.74 137.142C954.888 137.146 955 137.152 955.075 137.159V138.523C955.03 138.511 954.926 138.494 954.763 138.472C954.604 138.445 954.435 138.432 954.257 138.432C953.833 138.432 953.454 138.521 953.121 138.699C952.791 138.873 952.53 139.116 952.337 139.426C952.147 139.733 952.053 140.083 952.053 140.477V146H950.712ZM959.695 146.182C958.967 146.182 958.325 145.998 957.768 145.631C957.212 145.259 956.776 144.737 956.462 144.062C956.147 143.384 955.99 142.583 955.99 141.659C955.99 140.742 956.147 139.947 956.462 139.273C956.776 138.598 957.214 138.078 957.774 137.71C958.335 137.343 958.982 137.159 959.717 137.159C960.286 137.159 960.734 137.254 961.064 137.443C961.397 137.629 961.651 137.841 961.825 138.08C962.003 138.314 962.142 138.508 962.24 138.659H962.354V134.364H963.695V146H962.399V144.659H962.24C962.142 144.818 962.001 145.019 961.82 145.261C961.638 145.5 961.378 145.714 961.041 145.903C960.704 146.089 960.255 146.182 959.695 146.182ZM959.876 144.977C960.414 144.977 960.869 144.837 961.24 144.557C961.611 144.273 961.893 143.881 962.087 143.381C962.28 142.877 962.376 142.295 962.376 141.636C962.376 140.985 962.282 140.415 962.092 139.926C961.903 139.434 961.623 139.051 961.251 138.778C960.88 138.502 960.422 138.364 959.876 138.364C959.308 138.364 958.835 138.509 958.456 138.801C958.081 139.089 957.799 139.481 957.609 139.977C957.424 140.47 957.331 141.023 957.331 141.636C957.331 142.258 957.426 142.822 957.615 143.33C957.808 143.833 958.092 144.235 958.467 144.534C958.846 144.83 959.316 144.977 959.876 144.977ZM969.996 146.182C969.155 146.182 968.429 145.996 967.82 145.625C967.214 145.25 966.746 144.727 966.416 144.057C966.09 143.383 965.928 142.598 965.928 141.705C965.928 140.811 966.09 140.023 966.416 139.341C966.746 138.655 967.204 138.121 967.791 137.739C968.382 137.352 969.071 137.159 969.859 137.159C970.314 137.159 970.763 137.235 971.206 137.386C971.649 137.538 972.053 137.784 972.416 138.125C972.78 138.462 973.07 138.909 973.286 139.466C973.501 140.023 973.609 140.708 973.609 141.523V142.091H966.882V140.932H972.246C972.246 140.439 972.147 140 971.95 139.614C971.757 139.227 971.481 138.922 971.121 138.699C970.765 138.475 970.344 138.364 969.859 138.364C969.325 138.364 968.863 138.496 968.473 138.761C968.087 139.023 967.789 139.364 967.581 139.784C967.373 140.205 967.268 140.655 967.268 141.136V141.909C967.268 142.568 967.382 143.127 967.609 143.585C967.84 144.04 968.161 144.386 968.57 144.625C968.979 144.86 969.454 144.977 969.996 144.977C970.348 144.977 970.666 144.928 970.95 144.83C971.238 144.727 971.486 144.576 971.695 144.375C971.903 144.17 972.064 143.917 972.178 143.614L973.473 143.977C973.337 144.417 973.107 144.803 972.786 145.136C972.464 145.466 972.066 145.723 971.592 145.909C971.119 146.091 970.587 146.182 969.996 146.182ZM975.649 146V137.273H976.945V138.591H977.036C977.195 138.159 977.482 137.809 977.899 137.54C978.316 137.271 978.786 137.136 979.308 137.136C979.407 137.136 979.53 137.138 979.678 137.142C979.825 137.146 979.937 137.152 980.013 137.159V138.523C979.967 138.511 979.863 138.494 979.7 138.472C979.541 138.445 979.373 138.432 979.195 138.432C978.77 138.432 978.392 138.521 978.058 138.699C977.729 138.873 977.467 139.116 977.274 139.426C977.085 139.733 976.99 140.083 976.99 140.477V146H975.649ZM985.169 133.818L981.419 147.75H980.192L983.942 133.818H985.169ZM988.099 140.75V146H986.759V137.273H988.054V138.636H988.168C988.372 138.193 988.683 137.837 989.099 137.568C989.516 137.295 990.054 137.159 990.713 137.159C991.304 137.159 991.821 137.28 992.264 137.523C992.707 137.761 993.052 138.125 993.298 138.614C993.545 139.098 993.668 139.712 993.668 140.455V146H992.327V140.545C992.327 139.86 992.149 139.326 991.793 138.943C991.437 138.557 990.948 138.364 990.327 138.364C989.899 138.364 989.516 138.456 989.179 138.642C988.846 138.828 988.582 139.098 988.389 139.455C988.196 139.811 988.099 140.242 988.099 140.75ZM999.777 146.182C998.936 146.182 998.211 145.996 997.601 145.625C996.995 145.25 996.527 144.727 996.197 144.057C995.872 143.383 995.709 142.598 995.709 141.705C995.709 140.811 995.872 140.023 996.197 139.341C996.527 138.655 996.985 138.121 997.572 137.739C998.163 137.352 998.853 137.159 999.641 137.159C1000.1 137.159 1000.54 137.235 1000.99 137.386C1001.43 137.538 1001.83 137.784 1002.2 138.125C1002.56 138.462 1002.85 138.909 1003.07 139.466C1003.28 140.023 1003.39 140.708 1003.39 141.523V142.091H996.663V140.932H1002.03C1002.03 140.439 1001.93 140 1001.73 139.614C1001.54 139.227 1001.26 138.922 1000.9 138.699C1000.55 138.475 1000.13 138.364 999.641 138.364C999.107 138.364 998.644 138.496 998.254 138.761C997.868 139.023 997.571 139.364 997.362 139.784C997.154 140.205 997.05 140.655 997.05 141.136V141.909C997.05 142.568 997.163 143.127 997.391 143.585C997.622 144.04 997.942 144.386 998.351 144.625C998.76 144.86 999.235 144.977 999.777 144.977C1000.13 144.977 1000.45 144.928 1000.73 144.83C1001.02 144.727 1001.27 144.576 1001.48 144.375C1001.68 144.17 1001.85 143.917 1001.96 143.614L1003.25 143.977C1003.12 144.417 1002.89 144.803 1002.57 145.136C1002.24 145.466 1001.85 145.723 1001.37 145.909C1000.9 146.091 1000.37 146.182 999.777 146.182ZM1010.93 142.432V137.273H1012.27V146H1010.93V144.523H1010.84C1010.63 144.966 1010.32 145.343 1009.88 145.653C1009.45 145.96 1008.91 146.114 1008.25 146.114C1007.7 146.114 1007.22 145.994 1006.79 145.756C1006.37 145.513 1006.04 145.15 1005.79 144.665C1005.55 144.176 1005.43 143.561 1005.43 142.818V137.273H1006.77V142.727C1006.77 143.364 1006.95 143.871 1007.31 144.25C1007.67 144.629 1008.12 144.818 1008.68 144.818C1009.01 144.818 1009.35 144.733 1009.7 144.562C1010.05 144.392 1010.34 144.131 1010.57 143.778C1010.81 143.426 1010.93 142.977 1010.93 142.432ZM1018.52 137.273V138.409H1014V137.273H1018.52ZM1015.32 135.182H1016.66V143.5C1016.66 143.879 1016.71 144.163 1016.82 144.352C1016.94 144.538 1017.08 144.663 1017.26 144.727C1017.43 144.788 1017.62 144.818 1017.82 144.818C1017.97 144.818 1018.09 144.811 1018.18 144.795C1018.28 144.777 1018.35 144.761 1018.41 144.75L1018.68 145.955C1018.59 145.989 1018.46 146.023 1018.3 146.057C1018.14 146.095 1017.93 146.114 1017.68 146.114C1017.3 146.114 1016.93 146.032 1016.57 145.869C1016.21 145.706 1015.91 145.458 1015.67 145.125C1015.44 144.792 1015.32 144.371 1015.32 143.864V135.182ZM1020.54 146V137.273H1021.84V138.591H1021.93C1022.09 138.159 1022.37 137.809 1022.79 137.54C1023.21 137.271 1023.68 137.136 1024.2 137.136C1024.3 137.136 1024.42 137.138 1024.57 137.142C1024.72 137.146 1024.83 137.152 1024.9 137.159V138.523C1024.86 138.511 1024.75 138.494 1024.59 138.472C1024.43 138.445 1024.26 138.432 1024.09 138.432C1023.66 138.432 1023.28 138.521 1022.95 138.699C1022.62 138.873 1022.36 139.116 1022.16 139.426C1021.98 139.733 1021.88 140.083 1021.88 140.477V146H1020.54ZM1029.06 146.205C1028.51 146.205 1028.01 146.1 1027.56 145.892C1027.1 145.68 1026.75 145.375 1026.48 144.977C1026.22 144.576 1026.08 144.091 1026.08 143.523C1026.08 143.023 1026.18 142.617 1026.38 142.307C1026.58 141.992 1026.84 141.746 1027.17 141.568C1027.5 141.39 1027.86 141.258 1028.26 141.17C1028.66 141.08 1029.06 141.008 1029.47 140.955C1030 140.886 1030.43 140.835 1030.76 140.801C1031.09 140.763 1031.34 140.701 1031.49 140.614C1031.64 140.527 1031.72 140.375 1031.72 140.159V140.114C1031.72 139.553 1031.57 139.117 1031.26 138.807C1030.96 138.496 1030.5 138.341 1029.88 138.341C1029.24 138.341 1028.74 138.481 1028.37 138.761C1028.01 139.042 1027.75 139.341 1027.61 139.659L1026.33 139.205C1026.56 138.674 1026.86 138.261 1027.24 137.966C1027.63 137.667 1028.04 137.458 1028.49 137.341C1028.95 137.22 1029.39 137.159 1029.83 137.159C1030.11 137.159 1030.44 137.193 1030.8 137.261C1031.17 137.326 1031.52 137.46 1031.86 137.665C1032.21 137.869 1032.49 138.178 1032.72 138.591C1032.95 139.004 1033.06 139.557 1033.06 140.25V146H1031.72V144.818H1031.65C1031.56 145.008 1031.41 145.21 1031.2 145.426C1030.99 145.642 1030.7 145.826 1030.35 145.977C1030 146.129 1029.57 146.205 1029.06 146.205ZM1029.27 145C1029.8 145 1030.24 144.896 1030.61 144.688C1030.97 144.479 1031.25 144.21 1031.44 143.881C1031.63 143.551 1031.72 143.205 1031.72 142.841V141.614C1031.66 141.682 1031.54 141.744 1031.35 141.801C1031.16 141.854 1030.94 141.902 1030.69 141.943C1030.44 141.981 1030.2 142.015 1029.96 142.045C1029.73 142.072 1029.55 142.095 1029.4 142.114C1029.05 142.159 1028.73 142.233 1028.42 142.335C1028.13 142.434 1027.88 142.583 1027.7 142.784C1027.52 142.981 1027.42 143.25 1027.42 143.591C1027.42 144.057 1027.6 144.409 1027.94 144.648C1028.29 144.883 1028.73 145 1029.27 145ZM1036.85 134.364V146H1035.51V134.364H1036.85ZM1043.42 133.818L1039.67 147.75H1038.44L1042.19 133.818H1043.42ZM1048.78 146.159C1047.93 146.159 1047.2 145.926 1046.59 145.46C1045.99 144.991 1045.53 144.311 1045.21 143.42C1044.89 142.527 1044.74 141.447 1044.74 140.182C1044.74 138.924 1044.89 137.85 1045.21 136.96C1045.54 136.066 1046 135.384 1046.6 134.915C1047.21 134.441 1047.93 134.205 1048.78 134.205C1049.63 134.205 1050.36 134.441 1050.96 134.915C1051.56 135.384 1052.03 136.066 1052.34 136.96C1052.67 137.85 1052.83 138.924 1052.83 140.182C1052.83 141.447 1052.67 142.527 1052.35 143.42C1052.03 144.311 1051.57 144.991 1050.97 145.46C1050.37 145.926 1049.64 146.159 1048.78 146.159ZM1048.78 144.909C1049.63 144.909 1050.29 144.5 1050.76 143.682C1051.23 142.864 1051.46 141.697 1051.46 140.182C1051.46 139.174 1051.36 138.316 1051.14 137.608C1050.93 136.9 1050.62 136.36 1050.22 135.989C1049.82 135.617 1049.34 135.432 1048.78 135.432C1047.94 135.432 1047.28 135.847 1046.81 136.676C1046.34 137.502 1046.1 138.67 1046.1 140.182C1046.1 141.189 1046.21 142.045 1046.42 142.75C1046.63 143.455 1046.93 143.991 1047.33 144.358C1047.73 144.725 1048.22 144.909 1048.78 144.909ZM1058.92 146.159C1058.17 146.159 1057.5 146.03 1056.91 145.773C1056.33 145.515 1055.86 145.157 1055.52 144.699C1055.18 144.237 1054.99 143.701 1054.96 143.091H1056.39C1056.43 143.466 1056.55 143.79 1056.78 144.062C1057.01 144.331 1057.31 144.54 1057.67 144.688C1058.04 144.835 1058.45 144.909 1058.89 144.909C1059.39 144.909 1059.84 144.822 1060.22 144.648C1060.61 144.473 1060.91 144.231 1061.13 143.92C1061.35 143.61 1061.46 143.25 1061.46 142.841C1061.46 142.413 1061.36 142.036 1061.14 141.71C1060.93 141.381 1060.62 141.123 1060.21 140.938C1059.8 140.752 1059.3 140.659 1058.71 140.659H1057.78V139.409H1058.71C1059.18 139.409 1059.58 139.326 1059.93 139.159C1060.28 138.992 1060.56 138.758 1060.75 138.455C1060.95 138.152 1061.05 137.795 1061.05 137.386C1061.05 136.992 1060.97 136.65 1060.79 136.358C1060.62 136.066 1060.37 135.839 1060.05 135.676C1059.74 135.513 1059.37 135.432 1058.94 135.432C1058.54 135.432 1058.16 135.506 1057.8 135.653C1057.45 135.797 1057.16 136.008 1056.94 136.284C1056.72 136.557 1056.6 136.886 1056.58 137.273H1055.21C1055.24 136.663 1055.42 136.129 1055.76 135.67C1056.11 135.208 1056.56 134.848 1057.12 134.591C1057.68 134.333 1058.29 134.205 1058.96 134.205C1059.68 134.205 1060.3 134.35 1060.82 134.642C1061.33 134.93 1061.73 135.311 1062 135.784C1062.28 136.258 1062.42 136.769 1062.42 137.318C1062.42 137.973 1062.25 138.532 1061.9 138.994C1061.56 139.456 1061.1 139.777 1060.51 139.955V140.045C1061.24 140.167 1061.82 140.479 1062.23 140.983C1062.64 141.483 1062.85 142.102 1062.85 142.841C1062.85 143.473 1062.68 144.042 1062.33 144.545C1061.99 145.045 1061.53 145.439 1060.93 145.727C1060.34 146.015 1059.67 146.159 1058.92 146.159Z" fill="white" fill-opacity="0.95"/>
<defs>
<clipPath id="clip0_2165_29210">
<rect width="300" height="80" fill="white" transform="translate(0 52)"/>
</clipPath>
</defs>
</svg>
