<svg width="245" height="160" viewBox="0 0 245 160" fill="none" xmlns="http://www.w3.org/2000/svg">
<mask id="path-1-inside-1_2165_29166" fill="white">
<path d="M0 0H245V160H0V0Z"/>
</mask>
<path d="M0 0H245V160H0V0Z" fill="#1A1A1A"/>
<path d="M245 160V161H246V160H245ZM244 0V160H246V0H244ZM245 159H0V161H245V159Z" fill="#707070" mask="url(#path-1-inside-1_2165_29166)"/>
<path d="M35 86H31.4091V74.3636H35.1591C36.2879 74.3636 37.2538 74.5966 38.0568 75.0625C38.8598 75.5246 39.4754 76.1894 39.9034 77.0568C40.3314 77.9205 40.5455 78.9545 40.5455 80.1591C40.5455 81.3712 40.3295 82.4148 39.8977 83.2898C39.4659 84.161 38.8371 84.8314 38.0114 85.3011C37.1856 85.767 36.1818 86 35 86ZM32.8182 84.75H34.9091C35.8712 84.75 36.6686 84.5644 37.3011 84.1932C37.9337 83.822 38.4053 83.2936 38.7159 82.608C39.0265 81.9223 39.1818 81.1061 39.1818 80.1591C39.1818 79.2197 39.0284 78.411 38.7216 77.733C38.4148 77.0511 37.9564 76.5284 37.3466 76.1648C36.7367 75.7973 35.9773 75.6136 35.0682 75.6136H32.8182V84.75ZM42.7273 86V77.2727H44.0682V86H42.7273ZM43.4091 75.8182C43.1477 75.8182 42.9223 75.7292 42.733 75.5511C42.5473 75.3731 42.4545 75.1591 42.4545 74.9091C42.4545 74.6591 42.5473 74.4451 42.733 74.267C42.9223 74.089 43.1477 74 43.4091 74C43.6705 74 43.8939 74.089 44.0795 74.267C44.2689 74.4451 44.3636 74.6591 44.3636 74.9091C44.3636 75.1591 44.2689 75.3731 44.0795 75.5511C43.8939 75.7292 43.6705 75.8182 43.4091 75.8182ZM52.706 79.2273L51.5014 79.5682C51.4257 79.3674 51.3139 79.1723 51.1662 78.983C51.0223 78.7898 50.8253 78.6307 50.5753 78.5057C50.3253 78.3807 50.0052 78.3182 49.6151 78.3182C49.081 78.3182 48.6359 78.4413 48.2798 78.6875C47.9276 78.9299 47.7514 79.2386 47.7514 79.6136C47.7514 79.947 47.8726 80.2102 48.1151 80.4034C48.3575 80.5966 48.7363 80.7576 49.2514 80.8864L50.5469 81.2045C51.3272 81.3939 51.9086 81.6837 52.2912 82.0739C52.6738 82.4602 52.8651 82.9583 52.8651 83.5682C52.8651 84.0682 52.7211 84.5152 52.4332 84.9091C52.1491 85.303 51.7514 85.6136 51.2401 85.8409C50.7287 86.0682 50.134 86.1818 49.456 86.1818C48.5658 86.1818 47.8291 85.9886 47.2457 85.6023C46.6624 85.2159 46.2931 84.6515 46.1378 83.9091L47.4105 83.5909C47.5317 84.0606 47.7609 84.4129 48.098 84.6477C48.4389 84.8826 48.884 85 49.4332 85C50.0582 85 50.5545 84.8674 50.9219 84.6023C51.2931 84.3333 51.4787 84.0114 51.4787 83.6364C51.4787 83.3333 51.3726 83.0795 51.1605 82.875C50.9484 82.6667 50.6226 82.5114 50.1832 82.4091L48.7287 82.0682C47.9295 81.8788 47.3423 81.5852 46.9673 81.1875C46.5961 80.786 46.4105 80.2841 46.4105 79.6818C46.4105 79.1894 46.5488 78.7538 46.8253 78.375C47.1056 77.9962 47.4863 77.6989 47.9673 77.483C48.4522 77.267 49.0014 77.1591 49.6151 77.1591C50.4787 77.1591 51.1567 77.3485 51.6491 77.7273C52.1454 78.1061 52.4976 78.6061 52.706 79.2273ZM57.4517 86.2045C56.8987 86.2045 56.3968 86.1004 55.946 85.892C55.4953 85.6799 55.1373 85.375 54.8722 84.9773C54.607 84.5758 54.4744 84.0909 54.4744 83.5227C54.4744 83.0227 54.5729 82.6174 54.7699 82.3068C54.9669 81.9924 55.2301 81.7462 55.5597 81.5682C55.8892 81.3902 56.2528 81.2576 56.6506 81.1705C57.0521 81.0795 57.4555 81.0076 57.8608 80.9545C58.3911 80.8864 58.821 80.8352 59.1506 80.8011C59.4839 80.7633 59.7263 80.7008 59.8778 80.6136C60.0331 80.5265 60.1108 80.375 60.1108 80.1591V80.1136C60.1108 79.553 59.9574 79.1174 59.6506 78.8068C59.3475 78.4962 58.8873 78.3409 58.2699 78.3409C57.6297 78.3409 57.1278 78.4811 56.7642 78.7614C56.4006 79.0417 56.1449 79.3409 55.9972 79.6591L54.7244 79.2045C54.9517 78.6742 55.2547 78.2614 55.6335 77.9659C56.0161 77.6667 56.4328 77.4583 56.8835 77.3409C57.3381 77.2197 57.785 77.1591 58.2244 77.1591C58.5047 77.1591 58.8267 77.1932 59.1903 77.2614C59.5578 77.3258 59.9119 77.4602 60.2528 77.6648C60.5975 77.8693 60.8835 78.178 61.1108 78.5909C61.3381 79.0038 61.4517 79.5568 61.4517 80.25V86H60.1108V84.8182H60.0426C59.9517 85.0076 59.8002 85.2102 59.5881 85.4261C59.3759 85.642 59.0938 85.8258 58.7415 85.9773C58.3892 86.1288 57.9593 86.2045 57.4517 86.2045ZM57.6562 85C58.1866 85 58.6335 84.8958 58.9972 84.6875C59.3646 84.4792 59.6411 84.2102 59.8267 83.8807C60.0161 83.5511 60.1108 83.2045 60.1108 82.8409V81.6136C60.054 81.6818 59.929 81.7443 59.7358 81.8011C59.5464 81.8542 59.3267 81.9015 59.0767 81.9432C58.8305 81.9811 58.59 82.0152 58.3551 82.0455C58.1241 82.072 57.9366 82.0947 57.7926 82.1136C57.4441 82.1591 57.1184 82.233 56.8153 82.3352C56.5161 82.4337 56.2737 82.5833 56.0881 82.7841C55.9063 82.9811 55.8153 83.25 55.8153 83.5909C55.8153 84.0568 55.9877 84.4091 56.3324 84.6477C56.6809 84.8826 57.1222 85 57.6562 85ZM64.081 86V74.3636H65.4219V78.6591H65.5355C65.634 78.5076 65.7704 78.3144 65.9446 78.0795C66.1226 77.8409 66.3764 77.6288 66.706 77.4432C67.0393 77.2538 67.4901 77.1591 68.0582 77.1591C68.7931 77.1591 69.4408 77.3428 70.0014 77.7102C70.562 78.0777 70.9995 78.5985 71.3139 79.2727C71.6283 79.947 71.7855 80.7424 71.7855 81.6591C71.7855 82.5833 71.6283 83.3845 71.3139 84.0625C70.9995 84.7367 70.5639 85.2595 70.0071 85.6307C69.4503 85.9981 68.8082 86.1818 68.081 86.1818C67.5204 86.1818 67.0715 86.089 66.7344 85.9034C66.3973 85.714 66.1378 85.5 65.956 85.2614C65.7741 85.0189 65.634 84.8182 65.5355 84.6591H65.3764V86H64.081ZM65.3991 81.6364C65.3991 82.2955 65.4957 82.8769 65.6889 83.3807C65.8821 83.8807 66.1643 84.2727 66.5355 84.5568C66.9067 84.8371 67.3613 84.9773 67.8991 84.9773C68.4598 84.9773 68.9276 84.8295 69.3026 84.5341C69.6813 84.2348 69.9654 83.8333 70.1548 83.3295C70.348 82.822 70.4446 82.2576 70.4446 81.6364C70.4446 81.0227 70.3499 80.4697 70.1605 79.9773C69.9749 79.4811 69.6927 79.089 69.3139 78.8011C68.9389 78.5095 68.4673 78.3636 67.8991 78.3636C67.3537 78.3636 66.8954 78.5019 66.5241 78.7784C66.1529 79.0511 65.8726 79.4337 65.6832 79.9261C65.4938 80.4148 65.3991 80.9848 65.3991 81.6364ZM75.1776 74.3636V86H73.8366V74.3636H75.1776ZM81.2926 86.1818C80.4517 86.1818 79.7263 85.9962 79.1165 85.625C78.5104 85.25 78.0426 84.7273 77.7131 84.0568C77.3873 83.3826 77.2244 82.5985 77.2244 81.7045C77.2244 80.8106 77.3873 80.0227 77.7131 79.3409C78.0426 78.6553 78.5009 78.1212 79.0881 77.7386C79.679 77.3523 80.3684 77.1591 81.1562 77.1591C81.6108 77.1591 82.0597 77.2348 82.5028 77.3864C82.946 77.5379 83.3494 77.7841 83.7131 78.125C84.0767 78.4621 84.3665 78.9091 84.5824 79.4659C84.7983 80.0227 84.9062 80.7083 84.9062 81.5227V82.0909H78.179V80.9318H83.5426C83.5426 80.4394 83.4441 80 83.2472 79.6136C83.054 79.2273 82.7775 78.9223 82.4176 78.6989C82.0616 78.4754 81.6411 78.3636 81.1562 78.3636C80.6222 78.3636 80.16 78.4962 79.7699 78.7614C79.3835 79.0227 79.0862 79.3636 78.8778 79.7841C78.6695 80.2045 78.5653 80.6553 78.5653 81.1364V81.9091C78.5653 82.5682 78.679 83.1269 78.9062 83.5852C79.1373 84.0398 79.4574 84.3864 79.8665 84.625C80.2756 84.8598 80.7509 84.9773 81.2926 84.9773C81.6449 84.9773 81.9631 84.928 82.2472 84.8295C82.535 84.7273 82.7831 84.5758 82.9915 84.375C83.1998 84.1705 83.3608 83.9167 83.4744 83.6136L84.7699 83.9773C84.6335 84.4167 84.4044 84.803 84.0824 85.1364C83.7604 85.4659 83.3627 85.7235 82.8892 85.9091C82.4157 86.0909 81.8835 86.1818 81.2926 86.1818ZM90.2415 86.1818C89.5142 86.1818 88.8722 85.9981 88.3153 85.6307C87.7585 85.2595 87.3229 84.7367 87.0085 84.0625C86.6941 83.3845 86.5369 82.5833 86.5369 81.6591C86.5369 80.7424 86.6941 79.947 87.0085 79.2727C87.3229 78.5985 87.7604 78.0777 88.321 77.7102C88.8816 77.3428 89.5294 77.1591 90.2642 77.1591C90.8324 77.1591 91.2813 77.2538 91.6108 77.4432C91.9441 77.6288 92.1979 77.8409 92.3722 78.0795C92.5502 78.3144 92.6884 78.5076 92.7869 78.6591H92.9006V74.3636H94.2415V86H92.946V84.6591H92.7869C92.6884 84.8182 92.5483 85.0189 92.3665 85.2614C92.1847 85.5 91.9252 85.714 91.5881 85.9034C91.2509 86.089 90.8021 86.1818 90.2415 86.1818ZM90.4233 84.9773C90.9612 84.9773 91.4157 84.8371 91.7869 84.5568C92.1581 84.2727 92.4403 83.8807 92.6335 83.3807C92.8267 82.8769 92.9233 82.2955 92.9233 81.6364C92.9233 80.9848 92.8286 80.4148 92.6392 79.9261C92.4498 79.4337 92.1695 79.0511 91.7983 78.7784C91.4271 78.5019 90.9688 78.3636 90.4233 78.3636C89.8551 78.3636 89.3816 78.5095 89.0028 78.8011C88.6278 79.089 88.3456 79.4811 88.1562 79.9773C87.9706 80.4697 87.8778 81.0227 87.8778 81.6364C87.8778 82.2576 87.9725 82.822 88.1619 83.3295C88.3551 83.8333 88.6392 84.2348 89.0142 84.5341C89.393 84.8295 89.8627 84.9773 90.4233 84.9773Z" fill="white" fill-opacity="0.95"/>
</svg>
