<svg width="244" height="160" viewBox="0 0 244 160" fill="none" xmlns="http://www.w3.org/2000/svg">
<mask id="path-1-inside-1_2165_29165" fill="white">
<path d="M0 0H244V160H0V0Z"/>
</mask>
<path d="M0 0H244V160H0V0Z" fill="#1A1A1A"/>
<path d="M244 160V161H245V160H244ZM243 0V160H245V0H243ZM244 159H0V161H244V159Z" fill="#707070" mask="url(#path-1-inside-1_2165_29165)"/>
<path d="M31.4091 86V74.3636H32.8182V84.75H38.2273V86H31.4091ZM42.7955 86.2045C42.2424 86.2045 41.7405 86.1004 41.2898 85.892C40.839 85.6799 40.4811 85.375 40.2159 84.9773C39.9508 84.5758 39.8182 84.0909 39.8182 83.5227C39.8182 83.0227 39.9167 82.6174 40.1136 82.3068C40.3106 81.9924 40.5739 81.7462 40.9034 81.5682C41.233 81.3902 41.5966 81.2576 41.9943 81.1705C42.3958 81.0795 42.7992 81.0076 43.2045 80.9545C43.7348 80.8864 44.1648 80.8352 44.4943 80.8011C44.8277 80.7633 45.0701 80.7008 45.2216 80.6136C45.3769 80.5265 45.4545 80.375 45.4545 80.1591V80.1136C45.4545 79.553 45.3011 79.1174 44.9943 78.8068C44.6913 78.4962 44.2311 78.3409 43.6136 78.3409C42.9735 78.3409 42.4716 78.4811 42.108 78.7614C41.7443 79.0417 41.4886 79.3409 41.3409 79.6591L40.0682 79.2045C40.2955 78.6742 40.5985 78.2614 40.9773 77.9659C41.3598 77.6667 41.7765 77.4583 42.2273 77.3409C42.6818 77.2197 43.1288 77.1591 43.5682 77.1591C43.8485 77.1591 44.1705 77.1932 44.5341 77.2614C44.9015 77.3258 45.2557 77.4602 45.5966 77.6648C45.9413 77.8693 46.2273 78.178 46.4545 78.5909C46.6818 79.0038 46.7955 79.5568 46.7955 80.25V86H45.4545V84.8182H45.3864C45.2955 85.0076 45.1439 85.2102 44.9318 85.4261C44.7197 85.642 44.4375 85.8258 44.0852 85.9773C43.733 86.1288 43.303 86.2045 42.7955 86.2045ZM43 85C43.5303 85 43.9773 84.8958 44.3409 84.6875C44.7083 84.4792 44.9848 84.2102 45.1705 83.8807C45.3598 83.5511 45.4545 83.2045 45.4545 82.8409V81.6136C45.3977 81.6818 45.2727 81.7443 45.0795 81.8011C44.8902 81.8542 44.6705 81.9015 44.4205 81.9432C44.1742 81.9811 43.9337 82.0152 43.6989 82.0455C43.4678 82.072 43.2803 82.0947 43.1364 82.1136C42.7879 82.1591 42.4621 82.233 42.1591 82.3352C41.8598 82.4337 41.6174 82.5833 41.4318 82.7841C41.25 82.9811 41.1591 83.25 41.1591 83.5909C41.1591 84.0568 41.3314 84.4091 41.6761 84.6477C42.0246 84.8826 42.4659 85 43 85ZM49.4247 86V74.3636H50.7656V78.6591H50.8793C50.9777 78.5076 51.1141 78.3144 51.2884 78.0795C51.4664 77.8409 51.7202 77.6288 52.0497 77.4432C52.383 77.2538 52.8338 77.1591 53.402 77.1591C54.1368 77.1591 54.7846 77.3428 55.3452 77.7102C55.9058 78.0777 56.3433 78.5985 56.6577 79.2727C56.9721 79.947 57.1293 80.7424 57.1293 81.6591C57.1293 82.5833 56.9721 83.3845 56.6577 84.0625C56.3433 84.7367 55.9077 85.2595 55.3509 85.6307C54.794 85.9981 54.152 86.1818 53.4247 86.1818C52.8641 86.1818 52.4152 86.089 52.0781 85.9034C51.741 85.714 51.4815 85.5 51.2997 85.2614C51.1179 85.0189 50.9777 84.8182 50.8793 84.6591H50.7202V86H49.4247ZM50.7429 81.6364C50.7429 82.2955 50.8395 82.8769 51.0327 83.3807C51.2259 83.8807 51.508 84.2727 51.8793 84.5568C52.2505 84.8371 52.705 84.9773 53.2429 84.9773C53.8035 84.9773 54.2713 84.8295 54.6463 84.5341C55.0251 84.2348 55.3092 83.8333 55.4986 83.3295C55.6918 82.822 55.7884 82.2576 55.7884 81.6364C55.7884 81.0227 55.6937 80.4697 55.5043 79.9773C55.3187 79.4811 55.0365 79.089 54.6577 78.8011C54.2827 78.5095 53.8111 78.3636 53.2429 78.3636C52.6974 78.3636 52.2391 78.5019 51.8679 78.7784C51.4967 79.0511 51.2164 79.4337 51.027 79.9261C50.8376 80.4148 50.7429 80.9848 50.7429 81.6364ZM62.8395 86.1818C61.9986 86.1818 61.2732 85.9962 60.6634 85.625C60.0573 85.25 59.5895 84.7273 59.2599 84.0568C58.9342 83.3826 58.7713 82.5985 58.7713 81.7045C58.7713 80.8106 58.9342 80.0227 59.2599 79.3409C59.5895 78.6553 60.0478 78.1212 60.6349 77.7386C61.2259 77.3523 61.9152 77.1591 62.7031 77.1591C63.1577 77.1591 63.6065 77.2348 64.0497 77.3864C64.4929 77.5379 64.8963 77.7841 65.2599 78.125C65.6236 78.4621 65.9134 78.9091 66.1293 79.4659C66.3452 80.0227 66.4531 80.7083 66.4531 81.5227V82.0909H59.7259V80.9318H65.0895C65.0895 80.4394 64.991 80 64.794 79.6136C64.6009 79.2273 64.3243 78.9223 63.9645 78.6989C63.6084 78.4754 63.188 78.3636 62.7031 78.3636C62.169 78.3636 61.7069 78.4962 61.3168 78.7614C60.9304 79.0227 60.633 79.3636 60.4247 79.7841C60.2164 80.2045 60.1122 80.6553 60.1122 81.1364V81.9091C60.1122 82.5682 60.2259 83.1269 60.4531 83.5852C60.6842 84.0398 61.0043 84.3864 61.4134 84.625C61.8224 84.8598 62.2978 84.9773 62.8395 84.9773C63.1918 84.9773 63.5099 84.928 63.794 84.8295C64.0819 84.7273 64.33 84.5758 64.5384 84.375C64.7467 84.1705 64.9077 83.9167 65.0213 83.6136L66.3168 83.9773C66.1804 84.4167 65.9512 84.803 65.6293 85.1364C65.3073 85.4659 64.9096 85.7235 64.4361 85.9091C63.9626 86.0909 63.4304 86.1818 62.8395 86.1818ZM69.8338 74.3636V86H68.4929V74.3636H69.8338Z" fill="white" fill-opacity="0.95"/>
</svg>
