<svg width="250" height="232" viewBox="0 0 250 232" fill="none" xmlns="http://www.w3.org/2000/svg">
<mask id="path-1-inside-1_2165_29187" fill="white">
<path d="M0 0H250V232H0V0Z"/>
</mask>
<path d="M0 0H250V232H0V0Z" fill="#1A1A1A"/>
<path d="M250 232V233H251V232H250ZM249 0V232H251V0H249ZM250 231H0V233H250V231Z" fill="#707070" mask="url(#path-1-inside-1_2165_29187)"/>
<path d="M30.6761 111.912V110.818H38.3125V111.912H35.1108V121H33.8778V111.912H30.6761ZM39.937 123.844C39.7381 123.844 39.5608 123.827 39.405 123.794C39.2492 123.764 39.1415 123.734 39.0819 123.705L39.3801 122.67C39.8077 122.78 40.164 122.777 40.449 122.661C40.7341 122.548 40.981 122.206 41.1898 121.636L41.4086 121.04L38.5847 113.364H39.8574L41.9654 119.449H42.0449L44.1529 113.364L45.4355 113.384L42.1841 122.114C42.0383 122.501 41.8577 122.823 41.6422 123.078C41.4268 123.337 41.1766 123.529 40.8915 123.655C40.6098 123.781 40.2916 123.844 39.937 123.844ZM46.9879 123.864V113.364H48.1214V114.577H48.2607C48.3468 114.444 48.4661 114.275 48.6186 114.07C48.7744 113.861 48.9964 113.675 49.2848 113.513C49.5765 113.347 49.9709 113.264 50.468 113.264C51.111 113.264 51.6778 113.425 52.1683 113.746C52.6589 114.068 53.0417 114.524 53.3168 115.114C53.5919 115.704 53.7294 116.4 53.7294 117.202C53.7294 118.01 53.5919 118.711 53.3168 119.305C53.0417 119.895 52.6605 120.352 52.1733 120.677C51.6861 120.998 51.1243 121.159 50.4879 121.159C49.9974 121.159 49.6046 121.078 49.3097 120.915C49.0147 120.75 48.7876 120.562 48.6286 120.354C48.4695 120.142 48.3468 119.966 48.2607 119.827H48.1612V123.864H46.9879ZM48.1413 117.182C48.1413 117.759 48.2259 118.267 48.3949 118.708C48.5639 119.146 48.8108 119.489 49.1357 119.737C49.4605 119.982 49.8582 120.105 50.3288 120.105C50.8194 120.105 51.2287 119.976 51.5568 119.717C51.8883 119.455 52.1368 119.104 52.3026 118.663C52.4716 118.219 52.5561 117.725 52.5561 117.182C52.5561 116.645 52.4732 116.161 52.3075 115.73C52.1451 115.296 51.8982 114.953 51.5668 114.701C51.2386 114.446 50.826 114.318 50.3288 114.318C49.8516 114.318 49.4505 114.439 49.1257 114.681C48.8009 114.92 48.5556 115.254 48.3899 115.685C48.2242 116.113 48.1413 116.612 48.1413 117.182ZM58.7209 121.159C57.9851 121.159 57.3504 120.997 56.8168 120.672C56.2865 120.344 55.8771 119.886 55.5888 119.3C55.3037 118.71 55.1612 118.024 55.1612 117.241C55.1612 116.459 55.3037 115.77 55.5888 115.173C55.8771 114.573 56.2782 114.106 56.7919 113.771C57.3089 113.433 57.9122 113.264 58.6016 113.264C58.9993 113.264 59.392 113.33 59.7798 113.463C60.1676 113.596 60.5206 113.811 60.8388 114.109C61.157 114.404 61.4105 114.795 61.5994 115.283C61.7884 115.77 61.8828 116.37 61.8828 117.082V117.58H55.9964V116.565H60.6896C60.6896 116.134 60.6035 115.75 60.4311 115.412C60.2621 115.074 60.0201 114.807 59.7053 114.612C59.3937 114.416 59.0258 114.318 58.6016 114.318C58.1342 114.318 57.7299 114.434 57.3885 114.666C57.0504 114.895 56.7902 115.193 56.608 115.561C56.4257 115.929 56.3345 116.323 56.3345 116.744V117.42C56.3345 117.997 56.4339 118.486 56.6328 118.887C56.835 119.285 57.1151 119.588 57.473 119.797C57.831 120.002 58.2469 120.105 58.7209 120.105C59.0291 120.105 59.3075 120.062 59.5561 119.976C59.808 119.886 60.0251 119.754 60.2074 119.578C60.3897 119.399 60.5305 119.177 60.63 118.912L61.7635 119.23C61.6442 119.615 61.4437 119.953 61.1619 120.244C60.8802 120.533 60.5322 120.758 60.1179 120.92C59.7036 121.08 59.2379 121.159 58.7209 121.159ZM66.5511 121.159C65.9148 121.159 65.353 120.998 64.8658 120.677C64.3786 120.352 63.9974 119.895 63.7223 119.305C63.4472 118.711 63.3097 118.01 63.3097 117.202C63.3097 116.4 63.4472 115.704 63.7223 115.114C63.9974 114.524 64.3802 114.068 64.8707 113.746C65.3613 113.425 65.928 113.264 66.571 113.264C67.0682 113.264 67.4609 113.347 67.7493 113.513C68.041 113.675 68.263 113.861 68.4155 114.07C68.5713 114.275 68.6922 114.444 68.7784 114.577H68.8778V110.818H70.0511V121H68.9176V119.827H68.7784C68.6922 119.966 68.5696 120.142 68.4105 120.354C68.2514 120.562 68.0244 120.75 67.7294 120.915C67.4344 121.078 67.0417 121.159 66.5511 121.159ZM66.7102 120.105C67.1809 120.105 67.5786 119.982 67.9034 119.737C68.2282 119.489 68.4751 119.146 68.6442 118.708C68.8132 118.267 68.8977 117.759 68.8977 117.182C68.8977 116.612 68.8149 116.113 68.6491 115.685C68.4834 115.254 68.2382 114.92 67.9134 114.681C67.5885 114.439 67.1875 114.318 66.7102 114.318C66.2131 114.318 65.7988 114.446 65.4673 114.701C65.1392 114.953 64.8923 115.296 64.7266 115.73C64.5642 116.161 64.483 116.645 64.483 117.182C64.483 117.725 64.5658 118.219 64.7315 118.663C64.9006 119.104 65.1491 119.455 65.4773 119.717C65.8087 119.976 66.2197 120.105 66.7102 120.105ZM79.6214 113.364V114.358H75.6641V113.364H79.6214ZM76.8175 111.534H77.9908V118.812C77.9908 119.144 78.0388 119.393 78.1349 119.558C78.2344 119.721 78.3603 119.83 78.5128 119.886C78.6686 119.939 78.8326 119.966 79.005 119.966C79.1342 119.966 79.2403 119.959 79.3232 119.946C79.406 119.929 79.4723 119.916 79.522 119.906L79.7607 120.96C79.6811 120.99 79.5701 121.02 79.4276 121.05C79.285 121.083 79.1044 121.099 78.8857 121.099C78.5542 121.099 78.2294 121.028 77.9112 120.886C77.5964 120.743 77.3345 120.526 77.1257 120.234C76.9202 119.943 76.8175 119.575 76.8175 119.131V111.534ZM84.506 121.159C83.7702 121.159 83.1355 120.997 82.6019 120.672C82.0716 120.344 81.6623 119.886 81.3739 119.3C81.0889 118.71 80.9464 118.024 80.9464 117.241C80.9464 116.459 81.0889 115.77 81.3739 115.173C81.6623 114.573 82.0633 114.106 82.5771 113.771C83.0941 113.433 83.6973 113.264 84.3867 113.264C84.7844 113.264 85.1772 113.33 85.565 113.463C85.9528 113.596 86.3058 113.811 86.6239 114.109C86.9421 114.404 87.1957 114.795 87.3846 115.283C87.5735 115.77 87.668 116.37 87.668 117.082V117.58H81.7816V116.565H86.4748C86.4748 116.134 86.3886 115.75 86.2163 115.412C86.0472 115.074 85.8053 114.807 85.4904 114.612C85.1789 114.416 84.811 114.318 84.3867 114.318C83.9194 114.318 83.515 114.434 83.1737 114.666C82.8356 114.895 82.5754 115.193 82.3931 115.561C82.2108 115.929 82.1197 116.323 82.1197 116.744V117.42C82.1197 117.997 82.2191 118.486 82.418 118.887C82.6201 119.285 82.9002 119.588 83.2582 119.797C83.6161 120.002 84.0321 120.105 84.506 120.105C84.8143 120.105 85.0927 120.062 85.3413 119.976C85.5932 119.886 85.8103 119.754 85.9925 119.578C86.1748 119.399 86.3157 119.177 86.4151 118.912L87.5487 119.23C87.4293 119.615 87.2288 119.953 86.9471 120.244C86.6654 120.533 86.3174 120.758 85.9031 120.92C85.4888 121.08 85.0231 121.159 84.506 121.159ZM90.1227 113.364L91.9522 116.486L93.7818 113.364H95.1341L92.6681 117.182L95.1341 121H93.7818L91.9522 118.037L90.1227 121H88.7704L91.1966 117.182L88.7704 113.364H90.1227ZM100.129 113.364V114.358H96.1719V113.364H100.129ZM97.3253 111.534H98.4986V118.812C98.4986 119.144 98.5466 119.393 98.6428 119.558C98.7422 119.721 98.8681 119.83 99.0206 119.886C99.1764 119.939 99.3404 119.966 99.5128 119.966C99.642 119.966 99.7481 119.959 99.831 119.946C99.9138 119.929 99.9801 119.916 100.03 119.906L100.268 120.96C100.189 120.99 100.078 121.02 99.9354 121.05C99.7929 121.083 99.6122 121.099 99.3935 121.099C99.062 121.099 98.7372 121.028 98.419 120.886C98.1042 120.743 97.8423 120.526 97.6335 120.234C97.428 119.943 97.3253 119.575 97.3253 119.131V111.534Z" fill="white" fill-opacity="0.95"/>
</svg>
