<svg width="630" height="310" viewBox="0 0 630 310" fill="none" xmlns="http://www.w3.org/2000/svg">
<rect width="630" height="310" rx="24" fill="#262626"/>
<g clip-path="url(#clip0_2173_7390)">
<mask id="mask0_2173_7390" style="mask-type:luminance" maskUnits="userSpaceOnUse" x="60" y="60" width="370" height="190">
<rect x="60" y="60" width="370" height="190" fill="white"/>
</mask>
<g mask="url(#mask0_2173_7390)">
<path d="M93.2955 84.4545V99H91.5909L83.6648 87.5795H83.5227V99H81.7614V84.4545H83.4659L91.4205 95.9034H91.5625V84.4545H93.2955ZM101.025 99.2273C100.04 99.2273 99.1755 98.9929 98.4322 98.5241C97.6935 98.0554 97.1159 97.3996 96.6992 96.5568C96.2873 95.714 96.0813 94.7292 96.0813 93.6023C96.0813 92.4659 96.2873 91.474 96.6992 90.6264C97.1159 89.7789 97.6935 89.1207 98.4322 88.652C99.1755 88.1832 100.04 87.9489 101.025 87.9489C102.009 87.9489 102.871 88.1832 103.61 88.652C104.353 89.1207 104.931 89.7789 105.343 90.6264C105.759 91.474 105.968 92.4659 105.968 93.6023C105.968 94.7292 105.759 95.714 105.343 96.5568C104.931 97.3996 104.353 98.0554 103.61 98.5241C102.871 98.9929 102.009 99.2273 101.025 99.2273ZM101.025 97.7216C101.773 97.7216 102.388 97.5298 102.871 97.1463C103.354 96.7628 103.712 96.2585 103.944 95.6335C104.176 95.0085 104.292 94.3314 104.292 93.6023C104.292 92.8731 104.176 92.1937 103.944 91.5639C103.712 90.9342 103.354 90.4252 102.871 90.0369C102.388 89.6487 101.773 89.4545 101.025 89.4545C100.276 89.4545 99.6609 89.6487 99.1779 90.0369C98.695 90.4252 98.3375 90.9342 98.1055 91.5639C97.8735 92.1937 97.7575 92.8731 97.7575 93.6023C97.7575 94.3314 97.8735 95.0085 98.1055 95.6335C98.3375 96.2585 98.695 96.7628 99.1779 97.1463C99.6609 97.5298 100.276 97.7216 101.025 97.7216ZM113.271 88.0909V89.5114H107.617V88.0909H113.271ZM109.265 85.4773H110.941V95.875C110.941 96.3485 111.01 96.7036 111.147 96.9403C111.289 97.1723 111.469 97.3286 111.687 97.4091C111.909 97.4848 112.144 97.5227 112.39 97.5227C112.575 97.5227 112.726 97.5133 112.844 97.4943C112.963 97.4706 113.058 97.4517 113.129 97.4375L113.469 98.9432C113.356 98.9858 113.197 99.0284 112.994 99.071C112.79 99.1184 112.532 99.142 112.219 99.142C111.746 99.142 111.282 99.0402 110.827 98.8366C110.378 98.633 110.004 98.3229 109.705 97.9062C109.412 97.4896 109.265 96.964 109.265 96.3295V85.4773ZM115.792 99V88.0909H117.468V99H115.792ZM116.644 86.2727C116.317 86.2727 116.036 86.1615 115.799 85.9389C115.567 85.7164 115.451 85.4489 115.451 85.1364C115.451 84.8239 115.567 84.5563 115.799 84.3338C116.036 84.1113 116.317 84 116.644 84C116.971 84 117.25 84.1113 117.482 84.3338C117.719 84.5563 117.837 84.8239 117.837 85.1364C117.837 85.4489 117.719 85.7164 117.482 85.9389C117.25 86.1615 116.971 86.2727 116.644 86.2727ZM125.396 88.0909V89.5114H119.515V88.0909H125.396ZM121.277 99V86.5852C121.277 85.9602 121.423 85.4394 121.717 85.0227C122.011 84.6061 122.392 84.2936 122.86 84.0852C123.329 83.8769 123.824 83.7727 124.345 83.7727C124.757 83.7727 125.093 83.8059 125.353 83.8722C125.614 83.9384 125.808 84 125.936 84.0568L125.453 85.5057C125.368 85.4773 125.249 85.4418 125.098 85.3991C124.951 85.3565 124.757 85.3352 124.515 85.3352C123.961 85.3352 123.561 85.4749 123.315 85.7543C123.074 86.0336 122.953 86.4432 122.953 86.983V99H121.277ZM127.745 99V88.0909H129.421V99H127.745ZM128.597 86.2727C128.271 86.2727 127.989 86.1615 127.752 85.9389C127.52 85.7164 127.404 85.4489 127.404 85.1364C127.404 84.8239 127.52 84.5563 127.752 84.3338C127.989 84.1113 128.271 84 128.597 84C128.924 84 129.203 84.1113 129.435 84.3338C129.672 84.5563 129.79 84.8239 129.79 85.1364C129.79 85.4489 129.672 85.7164 129.435 85.9389C129.203 86.1615 128.924 86.2727 128.597 86.2727ZM136.923 99.2273C135.9 99.2273 135.02 98.9858 134.281 98.5028C133.542 98.0199 132.974 97.3546 132.576 96.5071C132.179 95.6596 131.98 94.6913 131.98 93.6023C131.98 92.4943 132.183 91.5166 132.591 90.669C133.002 89.8168 133.575 89.1515 134.309 88.6733C135.048 88.1903 135.91 87.9489 136.895 87.9489C137.662 87.9489 138.353 88.0909 138.968 88.375C139.584 88.6591 140.088 89.0568 140.481 89.5682C140.874 90.0795 141.118 90.6761 141.213 91.358H139.537C139.409 90.8608 139.125 90.4205 138.684 90.0369C138.249 89.6487 137.662 89.4545 136.923 89.4545C136.27 89.4545 135.697 89.625 135.204 89.9659C134.717 90.3021 134.335 90.7779 134.061 91.3935C133.791 92.0043 133.656 92.7216 133.656 93.5455C133.656 94.3883 133.788 95.1222 134.054 95.7472C134.324 96.3722 134.702 96.8575 135.19 97.2031C135.682 97.5488 136.26 97.7216 136.923 97.7216C137.359 97.7216 137.754 97.6458 138.109 97.4943C138.464 97.3428 138.765 97.125 139.011 96.8409C139.257 96.5568 139.432 96.2159 139.537 95.8182H141.213C141.118 96.4621 140.884 97.0421 140.51 97.5582C140.14 98.0696 139.65 98.4768 139.039 98.7798C138.433 99.0781 137.728 99.2273 136.923 99.2273ZM146.873 99.2557C146.182 99.2557 145.555 99.1255 144.991 98.8651C144.428 98.5999 143.98 98.2188 143.649 97.7216C143.317 97.2197 143.152 96.6136 143.152 95.9034C143.152 95.2784 143.275 94.7718 143.521 94.3835C143.767 93.9905 144.096 93.6828 144.508 93.4602C144.92 93.2377 145.375 93.072 145.872 92.9631C146.374 92.8494 146.878 92.7595 147.385 92.6932C148.047 92.608 148.585 92.544 148.997 92.5014C149.413 92.4541 149.717 92.3759 149.906 92.267C150.1 92.1581 150.197 91.9687 150.197 91.6989V91.642C150.197 90.9413 150.005 90.3968 149.622 90.0085C149.243 89.6203 148.668 89.4261 147.896 89.4261C147.096 89.4261 146.468 89.6013 146.014 89.9517C145.559 90.3021 145.24 90.6761 145.055 91.0739L143.464 90.5057C143.748 89.8428 144.127 89.3267 144.6 88.9574C145.079 88.5833 145.6 88.3229 146.163 88.1761C146.731 88.0246 147.29 87.9489 147.839 87.9489C148.19 87.9489 148.592 87.9915 149.047 88.0767C149.506 88.1572 149.949 88.3253 150.375 88.581C150.806 88.8366 151.163 89.2225 151.447 89.7386C151.731 90.2547 151.873 90.946 151.873 91.8125V99H150.197V97.5227H150.112C149.998 97.7595 149.809 98.0128 149.544 98.2827C149.279 98.5526 148.926 98.7822 148.485 98.9716C148.045 99.161 147.508 99.2557 146.873 99.2557ZM147.129 97.75C147.792 97.75 148.35 97.6198 148.805 97.3594C149.264 97.099 149.61 96.7628 149.842 96.3509C150.079 95.9389 150.197 95.5057 150.197 95.0511V93.517C150.126 93.6023 149.97 93.6804 149.728 93.7514C149.492 93.8177 149.217 93.8769 148.904 93.929C148.597 93.9763 148.296 94.0189 148.002 94.0568C147.714 94.09 147.479 94.1184 147.299 94.142C146.864 94.1989 146.457 94.2912 146.078 94.419C145.704 94.5421 145.401 94.7292 145.169 94.9801C144.941 95.2263 144.828 95.5625 144.828 95.9886C144.828 96.571 145.043 97.0114 145.474 97.3097C145.91 97.6032 146.461 97.75 147.129 97.75ZM159.677 88.0909V89.5114H154.023V88.0909H159.677ZM155.671 85.4773H157.347V95.875C157.347 96.3485 157.416 96.7036 157.553 96.9403C157.695 97.1723 157.875 97.3286 158.093 97.4091C158.316 97.4848 158.55 97.5227 158.796 97.5227C158.981 97.5227 159.132 97.5133 159.251 97.4943C159.369 97.4706 159.464 97.4517 159.535 97.4375L159.876 98.9432C159.762 98.9858 159.603 99.0284 159.4 99.071C159.196 99.1184 158.938 99.142 158.626 99.142C158.152 99.142 157.688 99.0402 157.234 98.8366C156.784 98.633 156.41 98.3229 156.112 97.9062C155.818 97.4896 155.671 96.964 155.671 96.3295V85.4773ZM162.198 99V88.0909H163.874V99H162.198ZM163.05 86.2727C162.724 86.2727 162.442 86.1615 162.205 85.9389C161.973 85.7164 161.857 85.4489 161.857 85.1364C161.857 84.8239 161.973 84.5563 162.205 84.3338C162.442 84.1113 162.724 84 163.05 84C163.377 84 163.656 84.1113 163.888 84.3338C164.125 84.5563 164.244 84.8239 164.244 85.1364C164.244 85.4489 164.125 85.7164 163.888 85.9389C163.656 86.1615 163.377 86.2727 163.05 86.2727ZM171.376 99.2273C170.391 99.2273 169.527 98.9929 168.784 98.5241C168.045 98.0554 167.467 97.3996 167.051 96.5568C166.639 95.714 166.433 94.7292 166.433 93.6023C166.433 92.4659 166.639 91.474 167.051 90.6264C167.467 89.7789 168.045 89.1207 168.784 88.652C169.527 88.1832 170.391 87.9489 171.376 87.9489C172.361 87.9489 173.223 88.1832 173.961 88.652C174.705 89.1207 175.282 89.7789 175.694 90.6264C176.111 91.474 176.319 92.4659 176.319 93.6023C176.319 94.7292 176.111 95.714 175.694 96.5568C175.282 97.3996 174.705 98.0554 173.961 98.5241C173.223 98.9929 172.361 99.2273 171.376 99.2273ZM171.376 97.7216C172.124 97.7216 172.74 97.5298 173.223 97.1463C173.706 96.7628 174.063 96.2585 174.295 95.6335C174.527 95.0085 174.643 94.3314 174.643 93.6023C174.643 92.8731 174.527 92.1937 174.295 91.5639C174.063 90.9342 173.706 90.4252 173.223 90.0369C172.74 89.6487 172.124 89.4545 171.376 89.4545C170.628 89.4545 170.012 89.6487 169.529 90.0369C169.047 90.4252 168.689 90.9342 168.457 91.5639C168.225 92.1937 168.109 92.8731 168.109 93.6023C168.109 94.3314 168.225 95.0085 168.457 95.6335C168.689 96.2585 169.047 96.7628 169.529 97.1463C170.012 97.5298 170.628 97.7216 171.376 97.7216ZM180.554 92.4375V99H178.878V88.0909H180.497V89.7955H180.639C180.895 89.2415 181.283 88.7964 181.804 88.4602C182.325 88.1193 182.997 87.9489 183.821 87.9489C184.56 87.9489 185.206 88.1004 185.76 88.4034C186.314 88.7017 186.745 89.1562 187.053 89.767C187.36 90.3731 187.514 91.1402 187.514 92.0682V99H185.838V92.1818C185.838 91.3248 185.616 90.6572 185.17 90.179C184.725 89.696 184.115 89.4545 183.338 89.4545C182.803 89.4545 182.325 89.5705 181.903 89.8026C181.487 90.0346 181.158 90.3731 180.916 90.8182C180.675 91.2633 180.554 91.803 180.554 92.4375ZM198.304 90.5341L196.799 90.9602C196.704 90.7093 196.564 90.4654 196.38 90.2287C196.2 89.9872 195.953 89.7884 195.641 89.6321C195.328 89.4759 194.928 89.3977 194.441 89.3977C193.773 89.3977 193.217 89.5516 192.772 89.8594C192.331 90.1624 192.111 90.5483 192.111 91.017C192.111 91.4337 192.263 91.7628 192.566 92.0043C192.869 92.2457 193.342 92.447 193.986 92.608L195.605 93.0057C196.581 93.2424 197.308 93.6046 197.786 94.0923C198.264 94.5753 198.503 95.1979 198.503 95.9602C198.503 96.5852 198.323 97.1439 197.963 97.6364C197.608 98.1288 197.111 98.517 196.472 98.8011C195.833 99.0852 195.089 99.2273 194.242 99.2273C193.129 99.2273 192.208 98.9858 191.479 98.5028C190.75 98.0199 190.288 97.3144 190.094 96.3864L191.685 95.9886C191.837 96.5758 192.123 97.0161 192.544 97.3097C192.971 97.6032 193.527 97.75 194.213 97.75C194.995 97.75 195.615 97.5843 196.074 97.2528C196.538 96.9167 196.77 96.5142 196.77 96.0455C196.77 95.6667 196.638 95.3494 196.373 95.0938C196.107 94.8333 195.7 94.6392 195.151 94.5114L193.333 94.0852C192.334 93.8485 191.6 93.4815 191.131 92.9844C190.667 92.4825 190.435 91.8551 190.435 91.1023C190.435 90.4867 190.608 89.9422 190.953 89.4688C191.304 88.9953 191.78 88.6236 192.381 88.3537C192.987 88.0838 193.674 87.9489 194.441 87.9489C195.52 87.9489 196.368 88.1856 196.983 88.6591C197.604 89.1326 198.044 89.7576 198.304 90.5341Z" fill="white" fill-opacity="0.95"/>
<path d="M80.5682 118.392V116.364H90.125V118.392H86.5625V128H84.1307V118.392H80.5682ZM92.9545 128.165C92.3977 128.165 91.9015 128.068 91.4659 127.875C91.0303 127.678 90.6856 127.388 90.4318 127.006C90.1818 126.619 90.0568 126.138 90.0568 125.562C90.0568 125.078 90.1458 124.67 90.3239 124.341C90.5019 124.011 90.7443 123.746 91.0511 123.545C91.358 123.345 91.7064 123.193 92.0966 123.091C92.4905 122.989 92.9034 122.917 93.3352 122.875C93.8428 122.822 94.2519 122.773 94.5625 122.727C94.8731 122.678 95.0985 122.606 95.2386 122.511C95.3788 122.417 95.4489 122.277 95.4489 122.091V122.057C95.4489 121.697 95.3352 121.419 95.108 121.222C94.8845 121.025 94.5663 120.926 94.1534 120.926C93.7178 120.926 93.3712 121.023 93.1136 121.216C92.8561 121.405 92.6856 121.644 92.6023 121.932L90.3636 121.75C90.4773 121.22 90.7008 120.761 91.0341 120.375C91.3674 119.985 91.7973 119.686 92.3239 119.477C92.8542 119.265 93.4678 119.159 94.1648 119.159C94.6496 119.159 95.1136 119.216 95.5568 119.33C96.0038 119.443 96.3996 119.619 96.7443 119.858C97.0928 120.097 97.3674 120.403 97.5682 120.778C97.7689 121.15 97.8693 121.595 97.8693 122.114V128H95.5739V126.79H95.5057C95.3655 127.062 95.178 127.303 94.9432 127.511C94.7083 127.716 94.4261 127.877 94.0966 127.994C93.767 128.108 93.3864 128.165 92.9545 128.165ZM93.6477 126.494C94.0038 126.494 94.3182 126.424 94.5909 126.284C94.8636 126.14 95.0777 125.947 95.233 125.705C95.3883 125.462 95.4659 125.187 95.4659 124.881V123.955C95.3902 124.004 95.286 124.049 95.1534 124.091C95.0246 124.129 94.8788 124.165 94.7159 124.199C94.553 124.229 94.3902 124.258 94.2273 124.284C94.0644 124.307 93.9167 124.328 93.7841 124.347C93.5 124.388 93.2519 124.455 93.0398 124.545C92.8277 124.636 92.6629 124.759 92.5455 124.915C92.428 125.066 92.3693 125.256 92.3693 125.483C92.3693 125.812 92.4886 126.064 92.7273 126.239C92.9697 126.409 93.2765 126.494 93.6477 126.494ZM107.009 121.761L104.793 121.898C104.755 121.708 104.673 121.538 104.548 121.386C104.423 121.231 104.259 121.108 104.054 121.017C103.853 120.922 103.613 120.875 103.332 120.875C102.957 120.875 102.641 120.955 102.384 121.114C102.126 121.269 101.997 121.477 101.997 121.739C101.997 121.947 102.08 122.123 102.247 122.267C102.414 122.411 102.7 122.527 103.105 122.614L104.685 122.932C105.533 123.106 106.166 123.386 106.582 123.773C106.999 124.159 107.207 124.667 107.207 125.295C107.207 125.867 107.039 126.369 106.702 126.801C106.368 127.233 105.91 127.57 105.327 127.812C104.747 128.051 104.079 128.17 103.321 128.17C102.166 128.17 101.245 127.93 100.56 127.449C99.8778 126.964 99.4782 126.305 99.3608 125.472L101.741 125.347C101.813 125.699 101.988 125.968 102.264 126.153C102.541 126.335 102.895 126.426 103.327 126.426C103.751 126.426 104.092 126.345 104.349 126.182C104.611 126.015 104.743 125.801 104.747 125.54C104.743 125.32 104.651 125.14 104.469 125C104.287 124.856 104.007 124.746 103.628 124.67L102.116 124.369C101.264 124.199 100.63 123.903 100.213 123.483C99.8002 123.062 99.5938 122.527 99.5938 121.875C99.5938 121.314 99.7453 120.831 100.048 120.426C100.355 120.021 100.785 119.708 101.338 119.489C101.895 119.269 102.546 119.159 103.293 119.159C104.395 119.159 105.262 119.392 105.895 119.858C106.531 120.324 106.902 120.958 107.009 121.761ZM110.925 125.489L110.93 122.585H111.283L114.078 119.273H116.857L113.101 123.659H112.527L110.925 125.489ZM108.732 128V116.364H111.152V128H108.732ZM114.186 128L111.618 124.199L113.232 122.489L117.021 128H114.186ZM118.089 128V116.364H120.51V120.739H120.584C120.69 120.504 120.843 120.265 121.044 120.023C121.249 119.777 121.514 119.572 121.839 119.409C122.169 119.242 122.578 119.159 123.067 119.159C123.703 119.159 124.29 119.326 124.828 119.659C125.366 119.989 125.796 120.487 126.118 121.153C126.44 121.816 126.601 122.648 126.601 123.648C126.601 124.621 126.444 125.443 126.129 126.114C125.819 126.78 125.394 127.286 124.857 127.631C124.322 127.972 123.724 128.142 123.061 128.142C122.591 128.142 122.192 128.064 121.862 127.909C121.536 127.754 121.269 127.559 121.061 127.324C120.853 127.085 120.694 126.845 120.584 126.602H120.476V128H118.089ZM120.459 123.636C120.459 124.155 120.531 124.608 120.675 124.994C120.819 125.381 121.027 125.682 121.3 125.898C121.572 126.11 121.904 126.216 122.294 126.216C122.688 126.216 123.021 126.108 123.294 125.892C123.567 125.672 123.773 125.369 123.913 124.983C124.057 124.593 124.129 124.144 124.129 123.636C124.129 123.133 124.059 122.689 123.919 122.307C123.779 121.924 123.572 121.625 123.3 121.409C123.027 121.193 122.692 121.085 122.294 121.085C121.9 121.085 121.567 121.189 121.294 121.398C121.025 121.606 120.819 121.902 120.675 122.284C120.531 122.667 120.459 123.117 120.459 123.636ZM130.705 128.165C130.148 128.165 129.652 128.068 129.216 127.875C128.78 127.678 128.436 127.388 128.182 127.006C127.932 126.619 127.807 126.138 127.807 125.562C127.807 125.078 127.896 124.67 128.074 124.341C128.252 124.011 128.494 123.746 128.801 123.545C129.108 123.345 129.456 123.193 129.847 123.091C130.241 122.989 130.653 122.917 131.085 122.875C131.593 122.822 132.002 122.773 132.312 122.727C132.623 122.678 132.848 122.606 132.989 122.511C133.129 122.417 133.199 122.277 133.199 122.091V122.057C133.199 121.697 133.085 121.419 132.858 121.222C132.634 121.025 132.316 120.926 131.903 120.926C131.468 120.926 131.121 121.023 130.864 121.216C130.606 121.405 130.436 121.644 130.352 121.932L128.114 121.75C128.227 121.22 128.451 120.761 128.784 120.375C129.117 119.985 129.547 119.686 130.074 119.477C130.604 119.265 131.218 119.159 131.915 119.159C132.4 119.159 132.864 119.216 133.307 119.33C133.754 119.443 134.15 119.619 134.494 119.858C134.843 120.097 135.117 120.403 135.318 120.778C135.519 121.15 135.619 121.595 135.619 122.114V128H133.324V126.79H133.256C133.116 127.062 132.928 127.303 132.693 127.511C132.458 127.716 132.176 127.877 131.847 127.994C131.517 128.108 131.136 128.165 130.705 128.165ZM131.398 126.494C131.754 126.494 132.068 126.424 132.341 126.284C132.614 126.14 132.828 125.947 132.983 125.705C133.138 125.462 133.216 125.187 133.216 124.881V123.955C133.14 124.004 133.036 124.049 132.903 124.091C132.775 124.129 132.629 124.165 132.466 124.199C132.303 124.229 132.14 124.258 131.977 124.284C131.814 124.307 131.667 124.328 131.534 124.347C131.25 124.388 131.002 124.455 130.79 124.545C130.578 124.636 130.413 124.759 130.295 124.915C130.178 125.066 130.119 125.256 130.119 125.483C130.119 125.812 130.239 126.064 130.477 126.239C130.72 126.409 131.027 126.494 131.398 126.494ZM137.497 128V119.273H139.844V120.795H139.935C140.094 120.254 140.361 119.845 140.736 119.568C141.111 119.288 141.543 119.148 142.031 119.148C142.152 119.148 142.283 119.155 142.423 119.17C142.563 119.186 142.687 119.206 142.793 119.233V121.381C142.679 121.347 142.522 121.316 142.321 121.29C142.12 121.263 141.937 121.25 141.77 121.25C141.414 121.25 141.096 121.328 140.815 121.483C140.539 121.634 140.319 121.847 140.156 122.119C139.997 122.392 139.918 122.706 139.918 123.062V128H137.497ZM150.168 122.955V128H147.747V119.273H150.054V120.812H150.156C150.349 120.305 150.673 119.903 151.128 119.608C151.582 119.309 152.134 119.159 152.781 119.159C153.387 119.159 153.916 119.292 154.366 119.557C154.817 119.822 155.168 120.201 155.418 120.693C155.668 121.182 155.793 121.765 155.793 122.443V128H153.372V122.875C153.376 122.341 153.24 121.924 152.963 121.625C152.687 121.322 152.306 121.17 151.821 121.17C151.495 121.17 151.207 121.241 150.957 121.381C150.711 121.521 150.518 121.725 150.378 121.994C150.241 122.259 150.171 122.58 150.168 122.955ZM161.643 128.17C160.761 128.17 159.998 127.983 159.354 127.608C158.714 127.229 158.219 126.703 157.871 126.028C157.522 125.35 157.348 124.564 157.348 123.67C157.348 122.769 157.522 121.981 157.871 121.307C158.219 120.629 158.714 120.102 159.354 119.727C159.998 119.348 160.761 119.159 161.643 119.159C162.526 119.159 163.287 119.348 163.928 119.727C164.571 120.102 165.068 120.629 165.416 121.307C165.765 121.981 165.939 122.769 165.939 123.67C165.939 124.564 165.765 125.35 165.416 126.028C165.068 126.703 164.571 127.229 163.928 127.608C163.287 127.983 162.526 128.17 161.643 128.17ZM161.655 126.295C162.056 126.295 162.392 126.182 162.661 125.955C162.929 125.723 163.132 125.409 163.268 125.011C163.409 124.614 163.479 124.161 163.479 123.653C163.479 123.146 163.409 122.693 163.268 122.295C163.132 121.898 162.929 121.583 162.661 121.352C162.392 121.121 162.056 121.006 161.655 121.006C161.25 121.006 160.909 121.121 160.632 121.352C160.359 121.583 160.153 121.898 160.013 122.295C159.876 122.693 159.808 123.146 159.808 123.653C159.808 124.161 159.876 124.614 160.013 125.011C160.153 125.409 160.359 125.723 160.632 125.955C160.909 126.182 161.25 126.295 161.655 126.295ZM172.155 119.273V121.091H166.899V119.273H172.155ZM168.092 117.182H170.513V125.318C170.513 125.542 170.547 125.716 170.615 125.841C170.683 125.962 170.778 126.047 170.899 126.097C171.024 126.146 171.168 126.17 171.331 126.17C171.445 126.17 171.558 126.161 171.672 126.142C171.786 126.119 171.873 126.102 171.933 126.091L172.314 127.892C172.193 127.93 172.022 127.973 171.803 128.023C171.583 128.076 171.316 128.108 171.001 128.119C170.418 128.142 169.907 128.064 169.467 127.886C169.032 127.708 168.693 127.432 168.45 127.057C168.208 126.682 168.089 126.208 168.092 125.636V117.182ZM173.732 128V119.273H176.152V128H173.732ZM174.953 118.148C174.593 118.148 174.285 118.028 174.027 117.79C173.769 117.547 173.641 117.258 173.641 116.92C173.641 116.587 173.769 116.301 174.027 116.062C174.285 115.82 174.591 115.699 174.947 115.699C175.311 115.699 175.62 115.82 175.874 116.062C176.131 116.301 176.26 116.587 176.26 116.92C176.26 117.258 176.131 117.547 175.874 117.79C175.62 118.028 175.313 118.148 174.953 118.148ZM182.784 119.273V121.091H177.398V119.273H182.784ZM178.631 128V118.642C178.631 118.009 178.754 117.485 179 117.068C179.25 116.652 179.591 116.339 180.023 116.131C180.455 115.922 180.945 115.818 181.494 115.818C181.866 115.818 182.205 115.847 182.511 115.903C182.822 115.96 183.053 116.011 183.205 116.057L182.773 117.875C182.678 117.845 182.561 117.816 182.42 117.79C182.284 117.763 182.144 117.75 182 117.75C181.644 117.75 181.396 117.833 181.256 118C181.116 118.163 181.045 118.392 181.045 118.688V128H178.631ZM184.263 128V119.273H186.683V128H184.263ZM185.484 118.148C185.125 118.148 184.816 118.028 184.558 117.79C184.301 117.547 184.172 117.258 184.172 116.92C184.172 116.587 184.301 116.301 184.558 116.062C184.816 115.82 185.123 115.699 185.479 115.699C185.842 115.699 186.151 115.82 186.405 116.062C186.662 116.301 186.791 116.587 186.791 116.92C186.791 117.258 186.662 117.547 186.405 117.79C186.151 118.028 185.844 118.148 185.484 118.148ZM192.565 128.17C191.671 128.17 190.902 127.981 190.259 127.602C189.618 127.22 189.126 126.689 188.781 126.011C188.44 125.333 188.27 124.553 188.27 123.67C188.27 122.777 188.442 121.992 188.787 121.318C189.135 120.64 189.63 120.112 190.27 119.733C190.91 119.35 191.671 119.159 192.554 119.159C193.315 119.159 193.982 119.297 194.554 119.574C195.126 119.85 195.579 120.239 195.912 120.739C196.245 121.239 196.429 121.826 196.463 122.5H194.179C194.115 122.064 193.944 121.714 193.668 121.449C193.395 121.18 193.037 121.045 192.594 121.045C192.219 121.045 191.891 121.148 191.611 121.352C191.334 121.553 191.118 121.847 190.963 122.233C190.808 122.619 190.73 123.087 190.73 123.636C190.73 124.193 190.806 124.667 190.957 125.057C191.113 125.447 191.33 125.744 191.611 125.949C191.891 126.153 192.219 126.256 192.594 126.256C192.87 126.256 193.118 126.199 193.338 126.085C193.562 125.972 193.745 125.807 193.889 125.591C194.037 125.371 194.134 125.108 194.179 124.801H196.463C196.425 125.468 196.243 126.055 195.918 126.562C195.596 127.066 195.151 127.46 194.582 127.744C194.014 128.028 193.342 128.17 192.565 128.17ZM200.501 128.165C199.945 128.165 199.448 128.068 199.013 127.875C198.577 127.678 198.232 127.388 197.979 127.006C197.729 126.619 197.604 126.138 197.604 125.562C197.604 125.078 197.693 124.67 197.871 124.341C198.049 124.011 198.291 123.746 198.598 123.545C198.905 123.345 199.253 123.193 199.643 123.091C200.037 122.989 200.45 122.917 200.882 122.875C201.39 122.822 201.799 122.773 202.109 122.727C202.42 122.678 202.645 122.606 202.786 122.511C202.926 122.417 202.996 122.277 202.996 122.091V122.057C202.996 121.697 202.882 121.419 202.655 121.222C202.431 121.025 202.113 120.926 201.7 120.926C201.265 120.926 200.918 121.023 200.661 121.216C200.403 121.405 200.232 121.644 200.149 121.932L197.911 121.75C198.024 121.22 198.248 120.761 198.581 120.375C198.914 119.985 199.344 119.686 199.871 119.477C200.401 119.265 201.015 119.159 201.712 119.159C202.196 119.159 202.661 119.216 203.104 119.33C203.551 119.443 203.946 119.619 204.291 119.858C204.64 120.097 204.914 120.403 205.115 120.778C205.316 121.15 205.416 121.595 205.416 122.114V128H203.121V126.79H203.053C202.912 127.062 202.725 127.303 202.49 127.511C202.255 127.716 201.973 127.877 201.643 127.994C201.314 128.108 200.933 128.165 200.501 128.165ZM201.195 126.494C201.551 126.494 201.865 126.424 202.138 126.284C202.411 126.14 202.625 125.947 202.78 125.705C202.935 125.462 203.013 125.187 203.013 124.881V123.955C202.937 124.004 202.833 124.049 202.7 124.091C202.571 124.129 202.426 124.165 202.263 124.199C202.1 124.229 201.937 124.258 201.774 124.284C201.611 124.307 201.464 124.328 201.331 124.347C201.047 124.388 200.799 124.455 200.587 124.545C200.375 124.636 200.21 124.759 200.092 124.915C199.975 125.066 199.916 125.256 199.916 125.483C199.916 125.812 200.036 126.064 200.274 126.239C200.517 126.409 200.823 126.494 201.195 126.494ZM211.936 119.273V121.091H206.68V119.273H211.936ZM207.874 117.182H210.294V125.318C210.294 125.542 210.328 125.716 210.396 125.841C210.464 125.962 210.559 126.047 210.68 126.097C210.805 126.146 210.949 126.17 211.112 126.17C211.226 126.17 211.339 126.161 211.453 126.142C211.567 126.119 211.654 126.102 211.714 126.091L212.095 127.892C211.974 127.93 211.804 127.973 211.584 128.023C211.364 128.076 211.097 128.108 210.783 128.119C210.199 128.142 209.688 128.064 209.249 127.886C208.813 127.708 208.474 127.432 208.232 127.057C207.989 126.682 207.87 126.208 207.874 125.636V117.182ZM213.513 128V119.273H215.933V128H213.513ZM214.734 118.148C214.375 118.148 214.066 118.028 213.808 117.79C213.551 117.547 213.422 117.258 213.422 116.92C213.422 116.587 213.551 116.301 213.808 116.062C214.066 115.82 214.373 115.699 214.729 115.699C215.092 115.699 215.401 115.82 215.655 116.062C215.912 116.301 216.041 116.587 216.041 116.92C216.041 117.258 215.912 117.547 215.655 117.79C215.401 118.028 215.094 118.148 214.734 118.148ZM221.815 128.17C220.933 128.17 220.17 127.983 219.526 127.608C218.885 127.229 218.391 126.703 218.043 126.028C217.694 125.35 217.52 124.564 217.52 123.67C217.52 122.769 217.694 121.981 218.043 121.307C218.391 120.629 218.885 120.102 219.526 119.727C220.17 119.348 220.933 119.159 221.815 119.159C222.698 119.159 223.459 119.348 224.099 119.727C224.743 120.102 225.24 120.629 225.588 121.307C225.937 121.981 226.111 122.769 226.111 123.67C226.111 124.564 225.937 125.35 225.588 126.028C225.24 126.703 224.743 127.229 224.099 127.608C223.459 127.983 222.698 128.17 221.815 128.17ZM221.827 126.295C222.228 126.295 222.563 126.182 222.832 125.955C223.101 125.723 223.304 125.409 223.44 125.011C223.58 124.614 223.651 124.161 223.651 123.653C223.651 123.146 223.58 122.693 223.44 122.295C223.304 121.898 223.101 121.583 222.832 121.352C222.563 121.121 222.228 121.006 221.827 121.006C221.421 121.006 221.08 121.121 220.804 121.352C220.531 121.583 220.325 121.898 220.185 122.295C220.048 122.693 219.98 123.146 219.98 123.653C219.98 124.161 220.048 124.614 220.185 125.011C220.325 125.409 220.531 125.723 220.804 125.955C221.08 126.182 221.421 126.295 221.827 126.295ZM230.105 122.955V128H227.685V119.273H229.991V120.812H230.094C230.287 120.305 230.611 119.903 231.065 119.608C231.52 119.309 232.071 119.159 232.719 119.159C233.325 119.159 233.853 119.292 234.304 119.557C234.755 119.822 235.105 120.201 235.355 120.693C235.605 121.182 235.73 121.765 235.73 122.443V128H233.31V122.875C233.313 122.341 233.177 121.924 232.901 121.625C232.624 121.322 232.243 121.17 231.759 121.17C231.433 121.17 231.145 121.241 230.895 121.381C230.649 121.521 230.455 121.725 230.315 121.994C230.179 122.259 230.109 122.58 230.105 122.955ZM244.899 121.761L242.683 121.898C242.645 121.708 242.564 121.538 242.439 121.386C242.314 121.231 242.149 121.108 241.945 121.017C241.744 120.922 241.503 120.875 241.223 120.875C240.848 120.875 240.532 120.955 240.274 121.114C240.017 121.269 239.888 121.477 239.888 121.739C239.888 121.947 239.971 122.123 240.138 122.267C240.304 122.411 240.59 122.527 240.996 122.614L242.575 122.932C243.424 123.106 244.056 123.386 244.473 123.773C244.89 124.159 245.098 124.667 245.098 125.295C245.098 125.867 244.929 126.369 244.592 126.801C244.259 127.233 243.801 127.57 243.217 127.812C242.638 128.051 241.969 128.17 241.212 128.17C240.056 128.17 239.136 127.93 238.45 127.449C237.768 126.964 237.369 126.305 237.251 125.472L239.632 125.347C239.704 125.699 239.878 125.968 240.155 126.153C240.431 126.335 240.786 126.426 241.217 126.426C241.642 126.426 241.982 126.345 242.24 126.182C242.501 126.015 242.634 125.801 242.638 125.54C242.634 125.32 242.541 125.14 242.359 125C242.178 124.856 241.897 124.746 241.518 124.67L240.007 124.369C239.155 124.199 238.52 123.903 238.104 123.483C237.691 123.062 237.484 122.527 237.484 121.875C237.484 121.314 237.636 120.831 237.939 120.426C238.246 120.021 238.676 119.708 239.229 119.489C239.786 119.269 240.437 119.159 241.183 119.159C242.286 119.159 243.153 119.392 243.786 119.858C244.422 120.324 244.793 120.958 244.899 121.761Z" fill="white" fill-opacity="0.95"/>
<rect width="333" height="1" transform="translate(80 190)" fill="white" fill-opacity="0.3"/>
<path d="M81.5912 204.912V203.818H89.2275V204.912H86.0258V214H84.7929V204.912H81.5912ZM92.9662 214.159C92.2768 214.159 91.6719 213.995 91.1515 213.667C90.6345 213.339 90.2301 212.88 89.9385 212.29C89.6501 211.7 89.5059 211.01 89.5059 210.222C89.5059 209.426 89.6501 208.732 89.9385 208.138C90.2301 207.545 90.6345 207.085 91.1515 206.756C91.6719 206.428 92.2768 206.264 92.9662 206.264C93.6556 206.264 94.2588 206.428 94.7758 206.756C95.2962 207.085 95.7006 207.545 95.9889 208.138C96.2806 208.732 96.4264 209.426 96.4264 210.222C96.4264 211.01 96.2806 211.7 95.9889 212.29C95.7006 212.88 95.2962 213.339 94.7758 213.667C94.2588 213.995 93.6556 214.159 92.9662 214.159ZM92.9662 213.105C93.4898 213.105 93.9207 212.971 94.2588 212.702C94.5969 212.434 94.8471 212.081 95.0095 211.643C95.1719 211.206 95.2531 210.732 95.2531 210.222C95.2531 209.711 95.1719 209.236 95.0095 208.795C94.8471 208.354 94.5969 207.998 94.2588 207.726C93.9207 207.454 93.4898 207.318 92.9662 207.318C92.4425 207.318 92.0116 207.454 91.6736 207.726C91.3355 207.998 91.0853 208.354 90.9229 208.795C90.7604 209.236 90.6792 209.711 90.6792 210.222C90.6792 210.732 90.7604 211.206 90.9229 211.643C91.0853 212.081 91.3355 212.434 91.6736 212.702C92.0116 212.971 92.4425 213.105 92.9662 213.105ZM105.257 214.159C104.541 214.159 103.925 213.99 103.408 213.652C102.891 213.314 102.493 212.848 102.215 212.255C101.936 211.662 101.797 210.984 101.797 210.222C101.797 209.446 101.939 208.762 102.225 208.168C102.513 207.572 102.914 207.106 103.428 206.771C103.945 206.433 104.548 206.264 105.237 206.264C105.774 206.264 106.258 206.364 106.689 206.562C107.12 206.761 107.473 207.04 107.748 207.398C108.023 207.756 108.194 208.173 108.26 208.651H107.087C106.997 208.303 106.798 207.994 106.49 207.726C106.185 207.454 105.774 207.318 105.257 207.318C104.8 207.318 104.399 207.437 104.054 207.676C103.713 207.911 103.446 208.245 103.254 208.675C103.065 209.103 102.97 209.605 102.97 210.182C102.97 210.772 103.063 211.286 103.249 211.723C103.438 212.161 103.703 212.5 104.044 212.742C104.389 212.984 104.793 213.105 105.257 213.105C105.562 213.105 105.839 213.052 106.087 212.946C106.336 212.84 106.546 212.688 106.719 212.489C106.891 212.29 107.014 212.051 107.087 211.773H108.26C108.194 212.223 108.03 212.629 107.768 212.991C107.509 213.349 107.166 213.634 106.739 213.846C106.314 214.055 105.821 214.159 105.257 214.159ZM111.149 209.406V214H109.975V203.818H111.149V207.557H111.248C111.427 207.162 111.695 206.849 112.053 206.617C112.415 206.382 112.895 206.264 113.495 206.264C114.015 206.264 114.471 206.369 114.862 206.577C115.253 206.783 115.557 207.099 115.772 207.527C115.991 207.951 116.1 208.491 116.1 209.148V214H114.927V209.227C114.927 208.621 114.77 208.152 114.455 207.82C114.143 207.486 113.711 207.318 113.157 207.318C112.773 207.318 112.428 207.399 112.123 207.562C111.821 207.724 111.583 207.961 111.407 208.273C111.235 208.584 111.149 208.962 111.149 209.406ZM120.494 214.179C120.01 214.179 119.571 214.088 119.176 213.906C118.782 213.72 118.469 213.453 118.237 213.105C118.005 212.754 117.889 212.33 117.889 211.832C117.889 211.395 117.975 211.04 118.147 210.768C118.32 210.493 118.55 210.278 118.838 210.122C119.127 209.966 119.445 209.85 119.793 209.774C120.144 209.695 120.497 209.632 120.852 209.585C121.316 209.526 121.692 209.481 121.98 209.451C122.272 209.418 122.484 209.363 122.617 209.287C122.753 209.211 122.821 209.078 122.821 208.889V208.849C122.821 208.359 122.686 207.978 122.418 207.706C122.153 207.434 121.75 207.298 121.21 207.298C120.65 207.298 120.21 207.421 119.892 207.666C119.574 207.911 119.35 208.173 119.221 208.452L118.108 208.054C118.306 207.59 118.572 207.229 118.903 206.97C119.238 206.708 119.602 206.526 119.997 206.423C120.394 206.317 120.786 206.264 121.17 206.264C121.415 206.264 121.697 206.294 122.015 206.354C122.337 206.41 122.647 206.528 122.945 206.707C123.246 206.886 123.497 207.156 123.696 207.517C123.894 207.878 123.994 208.362 123.994 208.969V214H122.821V212.966H122.761C122.681 213.132 122.549 213.309 122.363 213.498C122.178 213.687 121.931 213.848 121.622 213.98C121.314 214.113 120.938 214.179 120.494 214.179ZM120.673 213.125C121.137 213.125 121.528 213.034 121.846 212.852C122.168 212.669 122.41 212.434 122.572 212.146C122.738 211.857 122.821 211.554 122.821 211.236V210.162C122.771 210.222 122.661 210.276 122.492 210.326C122.327 210.372 122.134 210.414 121.916 210.45C121.7 210.483 121.49 210.513 121.284 210.54C121.082 210.563 120.918 210.583 120.792 210.599C120.487 210.639 120.202 210.704 119.937 210.793C119.675 210.879 119.463 211.01 119.301 211.186C119.142 211.358 119.062 211.594 119.062 211.892C119.062 212.3 119.213 212.608 119.514 212.817C119.819 213.022 120.206 213.125 120.673 213.125ZM127.309 209.406V214H126.135V206.364H127.269V207.557H127.368C127.547 207.169 127.819 206.857 128.184 206.622C128.548 206.384 129.019 206.264 129.596 206.264C130.113 206.264 130.565 206.37 130.953 206.582C131.341 206.791 131.642 207.109 131.858 207.537C132.073 207.961 132.181 208.498 132.181 209.148V214H131.008V209.227C131.008 208.627 130.852 208.16 130.54 207.825C130.229 207.487 129.801 207.318 129.258 207.318C128.883 207.318 128.548 207.399 128.253 207.562C127.962 207.724 127.731 207.961 127.562 208.273C127.393 208.584 127.309 208.962 127.309 209.406ZM137.407 217.023C136.84 217.023 136.353 216.95 135.946 216.804C135.538 216.661 135.198 216.473 134.926 216.237C134.658 216.005 134.444 215.757 134.285 215.491L135.22 214.835C135.326 214.974 135.46 215.134 135.622 215.312C135.785 215.495 136.007 215.652 136.289 215.785C136.574 215.921 136.947 215.989 137.407 215.989C138.024 215.989 138.532 215.839 138.934 215.541C139.335 215.243 139.535 214.776 139.535 214.139V212.588H139.436C139.349 212.727 139.227 212.9 139.068 213.105C138.912 213.307 138.687 213.488 138.392 213.647C138.1 213.803 137.706 213.881 137.208 213.881C136.592 213.881 136.038 213.735 135.548 213.443C135.061 213.152 134.675 212.727 134.389 212.17C134.108 211.614 133.967 210.937 133.967 210.142C133.967 209.36 134.104 208.679 134.38 208.099C134.655 207.515 135.037 207.065 135.528 206.746C136.018 206.425 136.585 206.264 137.228 206.264C137.725 206.264 138.12 206.347 138.411 206.513C138.706 206.675 138.932 206.861 139.088 207.07C139.247 207.275 139.369 207.444 139.456 207.577H139.575V206.364H140.708V214.219C140.708 214.875 140.559 215.409 140.261 215.82C139.966 216.234 139.568 216.537 139.068 216.729C138.571 216.925 138.017 217.023 137.407 217.023ZM137.367 212.827C137.838 212.827 138.236 212.719 138.561 212.504C138.885 212.288 139.132 211.978 139.301 211.574C139.47 211.17 139.555 210.686 139.555 210.122C139.555 209.572 139.472 209.086 139.306 208.665C139.141 208.245 138.895 207.915 138.571 207.676C138.246 207.437 137.845 207.318 137.367 207.318C136.87 207.318 136.456 207.444 136.125 207.696C135.796 207.948 135.55 208.286 135.384 208.71C135.221 209.134 135.14 209.605 135.14 210.122C135.14 210.652 135.223 211.121 135.389 211.529C135.558 211.933 135.806 212.252 136.134 212.484C136.466 212.712 136.877 212.827 137.367 212.827ZM146.058 214.159C145.322 214.159 144.687 213.997 144.154 213.672C143.623 213.344 143.214 212.886 142.926 212.3C142.641 211.71 142.498 211.024 142.498 210.241C142.498 209.459 142.641 208.77 142.926 208.173C143.214 207.573 143.615 207.106 144.129 206.771C144.646 206.433 145.249 206.264 145.938 206.264C146.336 206.264 146.729 206.33 147.117 206.463C147.505 206.596 147.858 206.811 148.176 207.109C148.494 207.404 148.747 207.795 148.936 208.283C149.125 208.77 149.22 209.37 149.22 210.082V210.58H143.333V209.565H148.027C148.027 209.134 147.94 208.75 147.768 208.412C147.599 208.074 147.357 207.807 147.042 207.612C146.731 207.416 146.363 207.318 145.938 207.318C145.471 207.318 145.067 207.434 144.725 207.666C144.387 207.895 144.127 208.193 143.945 208.561C143.763 208.929 143.671 209.323 143.671 209.744V210.42C143.671 210.997 143.771 211.486 143.97 211.887C144.172 212.285 144.452 212.588 144.81 212.797C145.168 213.002 145.584 213.105 146.058 213.105C146.366 213.105 146.644 213.062 146.893 212.976C147.145 212.886 147.362 212.754 147.544 212.578C147.727 212.399 147.867 212.177 147.967 211.912L149.1 212.23C148.981 212.615 148.781 212.953 148.499 213.244C148.217 213.533 147.869 213.758 147.455 213.92C147.041 214.08 146.575 214.159 146.058 214.159ZM158.263 206.364V207.358H154.306V206.364H158.263ZM155.459 204.534H156.632V211.812C156.632 212.144 156.68 212.393 156.777 212.558C156.876 212.721 157.002 212.83 157.154 212.886C157.31 212.939 157.474 212.966 157.647 212.966C157.776 212.966 157.882 212.959 157.965 212.946C158.048 212.929 158.114 212.916 158.164 212.906L158.402 213.96C158.323 213.99 158.212 214.02 158.069 214.05C157.927 214.083 157.746 214.099 157.527 214.099C157.196 214.099 156.871 214.028 156.553 213.886C156.238 213.743 155.976 213.526 155.767 213.234C155.562 212.943 155.459 212.575 155.459 212.131V204.534ZM161.365 209.406V214H160.192V203.818H161.365V207.557H161.465C161.644 207.162 161.912 206.849 162.27 206.617C162.631 206.382 163.112 206.264 163.712 206.264C164.232 206.264 164.688 206.369 165.079 206.577C165.47 206.783 165.773 207.099 165.989 207.527C166.208 207.951 166.317 208.491 166.317 209.148V214H165.144V209.227C165.144 208.621 164.986 208.152 164.671 207.82C164.36 207.486 163.927 207.318 163.374 207.318C162.989 207.318 162.645 207.399 162.34 207.562C162.038 207.724 161.8 207.961 161.624 208.273C161.451 208.584 161.365 208.962 161.365 209.406ZM171.665 214.159C170.929 214.159 170.295 213.997 169.761 213.672C169.231 213.344 168.821 212.886 168.533 212.3C168.248 211.71 168.106 211.024 168.106 210.241C168.106 209.459 168.248 208.77 168.533 208.173C168.821 207.573 169.223 207.106 169.736 206.771C170.253 206.433 170.857 206.264 171.546 206.264C171.944 206.264 172.336 206.33 172.724 206.463C173.112 206.596 173.465 206.811 173.783 207.109C174.101 207.404 174.355 207.795 174.544 208.283C174.733 208.77 174.827 209.37 174.827 210.082V210.58H168.941V209.565H173.634C173.634 209.134 173.548 208.75 173.375 208.412C173.206 208.074 172.964 207.807 172.65 207.612C172.338 207.416 171.97 207.318 171.546 207.318C171.079 207.318 170.674 207.434 170.333 207.666C169.995 207.895 169.735 208.193 169.552 208.561C169.37 208.929 169.279 209.323 169.279 209.744V210.42C169.279 210.997 169.378 211.486 169.577 211.887C169.779 212.285 170.059 212.588 170.417 212.797C170.775 213.002 171.191 213.105 171.665 213.105C171.973 213.105 172.252 213.062 172.5 212.976C172.752 212.886 172.969 212.754 173.152 212.578C173.334 212.399 173.475 212.177 173.574 211.912L174.708 212.23C174.589 212.615 174.388 212.953 174.106 213.244C173.825 213.533 173.477 213.758 173.062 213.92C172.648 214.08 172.182 214.159 171.665 214.159ZM186.794 206.364L183.97 214H182.777L179.953 206.364H181.226L183.334 212.449H183.413L185.521 206.364H186.794ZM191.171 214.159C190.482 214.159 189.877 213.995 189.357 213.667C188.84 213.339 188.435 212.88 188.144 212.29C187.855 211.7 187.711 211.01 187.711 210.222C187.711 209.426 187.855 208.732 188.144 208.138C188.435 207.545 188.84 207.085 189.357 206.756C189.877 206.428 190.482 206.264 191.171 206.264C191.861 206.264 192.464 206.428 192.981 206.756C193.501 207.085 193.906 207.545 194.194 208.138C194.486 208.732 194.631 209.426 194.631 210.222C194.631 211.01 194.486 211.7 194.194 212.29C193.906 212.88 193.501 213.339 192.981 213.667C192.464 213.995 191.861 214.159 191.171 214.159ZM191.171 213.105C191.695 213.105 192.126 212.971 192.464 212.702C192.802 212.434 193.052 212.081 193.215 211.643C193.377 211.206 193.458 210.732 193.458 210.222C193.458 209.711 193.377 209.236 193.215 208.795C193.052 208.354 192.802 207.998 192.464 207.726C192.126 207.454 191.695 207.318 191.171 207.318C190.648 207.318 190.217 207.454 189.879 207.726C189.541 207.998 189.29 208.354 189.128 208.795C188.966 209.236 188.884 209.711 188.884 210.222C188.884 210.732 188.966 211.206 189.128 211.643C189.29 212.081 189.541 212.434 189.879 212.702C190.217 212.971 190.648 213.105 191.171 213.105ZM197.596 203.818V214H196.422V203.818H197.596ZM204.557 210.878V206.364H205.731V214H204.557V212.707H204.478C204.299 213.095 204.02 213.425 203.642 213.697C203.265 213.965 202.787 214.099 202.211 214.099C201.733 214.099 201.309 213.995 200.938 213.786C200.567 213.574 200.275 213.256 200.063 212.832C199.851 212.404 199.745 211.866 199.745 211.216V206.364H200.918V211.136C200.918 211.693 201.074 212.137 201.385 212.469C201.7 212.8 202.101 212.966 202.589 212.966C202.88 212.966 203.177 212.891 203.478 212.742C203.783 212.593 204.039 212.364 204.244 212.056C204.453 211.748 204.557 211.355 204.557 210.878ZM207.88 214V206.364H209.013V207.557H209.112C209.272 207.149 209.528 206.833 209.883 206.607C210.238 206.379 210.664 206.264 211.161 206.264C211.665 206.264 212.084 206.379 212.419 206.607C212.757 206.833 213.02 207.149 213.209 207.557H213.289C213.484 207.162 213.777 206.849 214.169 206.617C214.56 206.382 215.029 206.264 215.576 206.264C216.258 206.264 216.817 206.478 217.251 206.906C217.685 207.33 217.902 207.991 217.902 208.889V214H216.729V208.889C216.729 208.326 216.575 207.923 216.267 207.681C215.958 207.439 215.595 207.318 215.178 207.318C214.641 207.318 214.225 207.481 213.93 207.805C213.635 208.127 213.487 208.535 213.487 209.028V214H212.294V208.77C212.294 208.336 212.153 207.986 211.872 207.721C211.59 207.452 211.227 207.318 210.783 207.318C210.478 207.318 210.193 207.399 209.928 207.562C209.666 207.724 209.454 207.95 209.291 208.238C209.132 208.523 209.053 208.853 209.053 209.227V214H207.88ZM223.249 214.159C222.513 214.159 221.879 213.997 221.345 213.672C220.815 213.344 220.405 212.886 220.117 212.3C219.832 211.71 219.69 211.024 219.69 210.241C219.69 209.459 219.832 208.77 220.117 208.173C220.405 207.573 220.806 207.106 221.32 206.771C221.837 206.433 222.44 206.264 223.13 206.264C223.528 206.264 223.92 206.33 224.308 206.463C224.696 206.596 225.049 206.811 225.367 207.109C225.685 207.404 225.939 207.795 226.128 208.283C226.317 208.77 226.411 209.37 226.411 210.082V210.58H220.525V209.565H225.218C225.218 209.134 225.132 208.75 224.959 208.412C224.79 208.074 224.548 207.807 224.234 207.612C223.922 207.416 223.554 207.318 223.13 207.318C222.663 207.318 222.258 207.434 221.917 207.666C221.579 207.895 221.319 208.193 221.136 208.561C220.954 208.929 220.863 209.323 220.863 209.744V210.42C220.863 210.997 220.962 211.486 221.161 211.887C221.363 212.285 221.643 212.588 222.001 212.797C222.359 213.002 222.775 213.105 223.249 213.105C223.557 213.105 223.836 213.062 224.084 212.976C224.336 212.886 224.553 212.754 224.736 212.578C224.918 212.399 225.059 212.177 225.158 211.912L226.292 212.23C226.172 212.615 225.972 212.953 225.69 213.244C225.409 213.533 225.061 213.758 224.646 213.92C224.232 214.08 223.766 214.159 223.249 214.159ZM235.236 214.159C234.546 214.159 233.941 213.995 233.421 213.667C232.904 213.339 232.5 212.88 232.208 212.29C231.92 211.7 231.775 211.01 231.775 210.222C231.775 209.426 231.92 208.732 232.208 208.138C232.5 207.545 232.904 207.085 233.421 206.756C233.941 206.428 234.546 206.264 235.236 206.264C235.925 206.264 236.528 206.428 237.045 206.756C237.566 207.085 237.97 207.545 238.258 208.138C238.55 208.732 238.696 209.426 238.696 210.222C238.696 211.01 238.55 211.7 238.258 212.29C237.97 212.88 237.566 213.339 237.045 213.667C236.528 213.995 235.925 214.159 235.236 214.159ZM235.236 213.105C235.759 213.105 236.19 212.971 236.528 212.702C236.866 212.434 237.117 212.081 237.279 211.643C237.441 211.206 237.523 210.732 237.523 210.222C237.523 209.711 237.441 209.236 237.279 208.795C237.117 208.354 236.866 207.998 236.528 207.726C236.19 207.454 235.759 207.318 235.236 207.318C234.712 207.318 234.281 207.454 233.943 207.726C233.605 207.998 233.355 208.354 233.192 208.795C233.03 209.236 232.949 209.711 232.949 210.222C232.949 210.732 233.03 211.206 233.192 211.643C233.355 212.081 233.605 212.434 233.943 212.702C234.281 212.971 234.712 213.105 235.236 213.105ZM243.888 206.364V207.358H239.771V206.364H243.888ZM241.004 214V205.31C241.004 204.872 241.107 204.508 241.312 204.216C241.518 203.924 241.785 203.705 242.113 203.56C242.441 203.414 242.787 203.341 243.152 203.341C243.44 203.341 243.675 203.364 243.858 203.411C244.04 203.457 244.176 203.5 244.265 203.54L243.927 204.554C243.868 204.534 243.785 204.509 243.679 204.479C243.576 204.45 243.44 204.435 243.271 204.435C242.883 204.435 242.603 204.532 242.431 204.728C242.262 204.924 242.177 205.21 242.177 205.588V214H241.004ZM250.225 216.864C250.026 216.864 249.849 216.847 249.693 216.814C249.537 216.784 249.43 216.754 249.37 216.724L249.668 215.69C249.953 215.763 250.205 215.79 250.424 215.77C250.643 215.75 250.837 215.652 251.006 215.477C251.178 215.304 251.335 215.024 251.478 214.636L251.697 214.04L248.873 206.364H250.146L252.253 212.449H252.333L254.441 206.364H255.714L252.472 215.114C252.326 215.508 252.146 215.835 251.93 216.093C251.715 216.355 251.465 216.549 251.18 216.675C250.898 216.801 250.58 216.864 250.225 216.864ZM260.091 214.159C259.402 214.159 258.797 213.995 258.277 213.667C257.759 213.339 257.355 212.88 257.063 212.29C256.775 211.7 256.631 211.01 256.631 210.222C256.631 209.426 256.775 208.732 257.063 208.138C257.355 207.545 257.759 207.085 258.277 206.756C258.797 206.428 259.402 206.264 260.091 206.264C260.781 206.264 261.384 206.428 261.901 206.756C262.421 207.085 262.826 207.545 263.114 208.138C263.406 208.732 263.551 209.426 263.551 210.222C263.551 211.01 263.406 211.7 263.114 212.29C262.826 212.88 262.421 213.339 261.901 213.667C261.384 213.995 260.781 214.159 260.091 214.159ZM260.091 213.105C260.615 213.105 261.046 212.971 261.384 212.702C261.722 212.434 261.972 212.081 262.134 211.643C262.297 211.206 262.378 210.732 262.378 210.222C262.378 209.711 262.297 209.236 262.134 208.795C261.972 208.354 261.722 207.998 261.384 207.726C261.046 207.454 260.615 207.318 260.091 207.318C259.568 207.318 259.137 207.454 258.799 207.726C258.46 207.998 258.21 208.354 258.048 208.795C257.885 209.236 257.804 209.711 257.804 210.222C257.804 210.732 257.885 211.206 258.048 211.643C258.21 212.081 258.46 212.434 258.799 212.702C259.137 212.971 259.568 213.105 260.091 213.105ZM270.155 210.878V206.364H271.328V214H270.155V212.707H270.075C269.896 213.095 269.618 213.425 269.24 213.697C268.862 213.965 268.385 214.099 267.808 214.099C267.331 214.099 266.907 213.995 266.536 213.786C266.164 213.574 265.873 213.256 265.661 212.832C265.448 212.404 265.342 211.866 265.342 211.216V206.364H266.516V211.136C266.516 211.693 266.671 212.137 266.983 212.469C267.298 212.8 267.699 212.966 268.186 212.966C268.478 212.966 268.774 212.891 269.076 212.742C269.381 212.593 269.636 212.364 269.842 212.056C270.051 211.748 270.155 211.355 270.155 210.878ZM273.477 214V206.364H274.611V207.517H274.69C274.829 207.139 275.081 206.833 275.446 206.597C275.811 206.362 276.222 206.244 276.679 206.244C276.765 206.244 276.873 206.246 277.002 206.249C277.131 206.253 277.229 206.258 277.295 206.264V207.457C277.256 207.447 277.164 207.433 277.022 207.413C276.883 207.389 276.735 207.378 276.579 207.378C276.208 207.378 275.877 207.456 275.585 207.612C275.297 207.764 275.068 207.976 274.899 208.248C274.733 208.516 274.65 208.823 274.65 209.168V214H273.477ZM283.797 209.406V214H282.624V206.364H283.757V207.557H283.857C284.036 207.169 284.307 206.857 284.672 206.622C285.037 206.384 285.507 206.264 286.084 206.264C286.601 206.264 287.053 206.37 287.441 206.582C287.829 206.791 288.131 207.109 288.346 207.537C288.561 207.961 288.669 208.498 288.669 209.148V214H287.496V209.227C287.496 208.627 287.34 208.16 287.028 207.825C286.717 207.487 286.289 207.318 285.746 207.318C285.371 207.318 285.037 207.399 284.742 207.562C284.45 207.724 284.22 207.961 284.051 208.273C283.881 208.584 283.797 208.962 283.797 209.406ZM293.915 214.159C293.226 214.159 292.621 213.995 292.101 213.667C291.584 213.339 291.179 212.88 290.888 212.29C290.599 211.7 290.455 211.01 290.455 210.222C290.455 209.426 290.599 208.732 290.888 208.138C291.179 207.545 291.584 207.085 292.101 206.756C292.621 206.428 293.226 206.264 293.915 206.264C294.605 206.264 295.208 206.428 295.725 206.756C296.245 207.085 296.65 207.545 296.938 208.138C297.23 208.732 297.376 209.426 297.376 210.222C297.376 211.01 297.23 211.7 296.938 212.29C296.65 212.88 296.245 213.339 295.725 213.667C295.208 213.995 294.605 214.159 293.915 214.159ZM293.915 213.105C294.439 213.105 294.87 212.971 295.208 212.702C295.546 212.434 295.796 212.081 295.959 211.643C296.121 211.206 296.202 210.732 296.202 210.222C296.202 209.711 296.121 209.236 295.959 208.795C295.796 208.354 295.546 207.998 295.208 207.726C294.87 207.454 294.439 207.318 293.915 207.318C293.392 207.318 292.961 207.454 292.623 207.726C292.285 207.998 292.034 208.354 291.872 208.795C291.71 209.236 291.628 209.711 291.628 210.222C291.628 210.732 291.71 211.206 291.872 211.643C292.034 212.081 292.285 212.434 292.623 212.702C292.961 212.971 293.392 213.105 293.915 213.105ZM302.488 206.364V207.358H298.53V206.364H302.488ZM299.684 204.534H300.857V211.812C300.857 212.144 300.905 212.393 301.001 212.558C301.101 212.721 301.227 212.83 301.379 212.886C301.535 212.939 301.699 212.966 301.871 212.966C302 212.966 302.107 212.959 302.189 212.946C302.272 212.929 302.339 212.916 302.388 212.906L302.627 213.96C302.547 213.99 302.436 214.02 302.294 214.05C302.151 214.083 301.971 214.099 301.752 214.099C301.42 214.099 301.096 214.028 300.777 213.886C300.463 213.743 300.201 213.526 299.992 213.234C299.786 212.943 299.684 212.575 299.684 212.131V204.534ZM304.253 214V206.364H305.426V214H304.253ZM304.849 205.091C304.62 205.091 304.423 205.013 304.258 204.857C304.095 204.701 304.014 204.514 304.014 204.295C304.014 204.077 304.095 203.889 304.258 203.734C304.423 203.578 304.62 203.5 304.849 203.5C305.078 203.5 305.273 203.578 305.436 203.734C305.602 203.889 305.684 204.077 305.684 204.295C305.684 204.514 305.602 204.701 305.436 204.857C305.273 205.013 305.078 205.091 304.849 205.091ZM310.975 206.364V207.358H306.859V206.364H310.975ZM308.092 214V205.31C308.092 204.872 308.195 204.508 308.4 204.216C308.606 203.924 308.872 203.705 309.201 203.56C309.529 203.414 309.875 203.341 310.24 203.341C310.528 203.341 310.763 203.364 310.946 203.411C311.128 203.457 311.264 203.5 311.353 203.54L311.015 204.554C310.956 204.534 310.873 204.509 310.767 204.479C310.664 204.45 310.528 204.435 310.359 204.435C309.971 204.435 309.691 204.532 309.519 204.728C309.35 204.924 309.265 205.21 309.265 205.588V214H308.092ZM312.62 214V206.364H313.793V214H312.62ZM313.216 205.091C312.988 205.091 312.79 205.013 312.625 204.857C312.462 204.701 312.381 204.514 312.381 204.295C312.381 204.077 312.462 203.889 312.625 203.734C312.79 203.578 312.988 203.5 313.216 203.5C313.445 203.5 313.641 203.578 313.803 203.734C313.969 203.889 314.052 204.077 314.052 204.295C314.052 204.514 313.969 204.701 313.803 204.857C313.641 205.013 313.445 205.091 313.216 205.091ZM319.044 214.159C318.328 214.159 317.712 213.99 317.195 213.652C316.678 213.314 316.28 212.848 316.002 212.255C315.723 211.662 315.584 210.984 315.584 210.222C315.584 209.446 315.727 208.762 316.012 208.168C316.3 207.572 316.701 207.106 317.215 206.771C317.732 206.433 318.335 206.264 319.024 206.264C319.561 206.264 320.045 206.364 320.476 206.562C320.907 206.761 321.26 207.04 321.535 207.398C321.81 207.756 321.981 208.173 322.047 208.651H320.874C320.784 208.303 320.585 207.994 320.277 207.726C319.972 207.454 319.561 207.318 319.044 207.318C318.587 207.318 318.186 207.437 317.841 207.676C317.5 207.911 317.233 208.245 317.041 208.675C316.852 209.103 316.757 209.605 316.757 210.182C316.757 210.772 316.85 211.286 317.036 211.723C317.225 212.161 317.49 212.5 317.831 212.742C318.176 212.984 318.58 213.105 319.044 213.105C319.349 213.105 319.626 213.052 319.875 212.946C320.123 212.84 320.334 212.688 320.506 212.489C320.678 212.29 320.801 212.051 320.874 211.773H322.047C321.981 212.223 321.817 212.629 321.555 212.991C321.296 213.349 320.953 213.634 320.526 213.846C320.102 214.055 319.608 214.159 319.044 214.159ZM326.009 214.179C325.526 214.179 325.086 214.088 324.692 213.906C324.298 213.72 323.984 213.453 323.752 213.105C323.52 212.754 323.404 212.33 323.404 211.832C323.404 211.395 323.491 211.04 323.663 210.768C323.835 210.493 324.066 210.278 324.354 210.122C324.642 209.966 324.96 209.85 325.309 209.774C325.66 209.695 326.013 209.632 326.367 209.585C326.831 209.526 327.208 209.481 327.496 209.451C327.788 209.418 328 209.363 328.132 209.287C328.268 209.211 328.336 209.078 328.336 208.889V208.849C328.336 208.359 328.202 207.978 327.934 207.706C327.668 207.434 327.266 207.298 326.725 207.298C326.165 207.298 325.726 207.421 325.408 207.666C325.09 207.911 324.866 208.173 324.737 208.452L323.623 208.054C323.822 207.59 324.087 207.229 324.419 206.97C324.753 206.708 325.118 206.526 325.512 206.423C325.91 206.317 326.301 206.264 326.686 206.264C326.931 206.264 327.213 206.294 327.531 206.354C327.852 206.41 328.162 206.528 328.46 206.707C328.762 206.886 329.012 207.156 329.211 207.517C329.41 207.878 329.509 208.362 329.509 208.969V214H328.336V212.966H328.277C328.197 213.132 328.064 213.309 327.879 213.498C327.693 213.687 327.446 213.848 327.138 213.98C326.83 214.113 326.454 214.179 326.009 214.179ZM326.188 213.125C326.652 213.125 327.044 213.034 327.362 212.852C327.683 212.669 327.925 212.434 328.088 212.146C328.253 211.857 328.336 211.554 328.336 211.236V210.162C328.286 210.222 328.177 210.276 328.008 210.326C327.842 210.372 327.65 210.414 327.431 210.45C327.216 210.483 327.005 210.513 326.8 210.54C326.598 210.563 326.434 210.583 326.308 210.599C326.003 210.639 325.718 210.704 325.453 210.793C325.191 210.879 324.979 211.01 324.816 211.186C324.657 211.358 324.578 211.594 324.578 211.892C324.578 212.3 324.728 212.608 325.03 212.817C325.335 213.022 325.721 213.125 326.188 213.125ZM334.972 206.364V207.358H331.015V206.364H334.972ZM332.168 204.534H333.341V211.812C333.341 212.144 333.389 212.393 333.486 212.558C333.585 212.721 333.711 212.83 333.863 212.886C334.019 212.939 334.183 212.966 334.356 212.966C334.485 212.966 334.591 212.959 334.674 212.946C334.757 212.929 334.823 212.916 334.873 212.906L335.111 213.96C335.032 213.99 334.921 214.02 334.778 214.05C334.636 214.083 334.455 214.099 334.236 214.099C333.905 214.099 333.58 214.028 333.262 213.886C332.947 213.743 332.685 213.526 332.476 213.234C332.271 212.943 332.168 212.575 332.168 212.131V204.534ZM336.737 214V206.364H337.91V214H336.737ZM337.334 205.091C337.105 205.091 336.908 205.013 336.742 204.857C336.58 204.701 336.498 204.514 336.498 204.295C336.498 204.077 336.58 203.889 336.742 203.734C336.908 203.578 337.105 203.5 337.334 203.5C337.562 203.5 337.758 203.578 337.92 203.734C338.086 203.889 338.169 204.077 338.169 204.295C338.169 204.514 338.086 204.701 337.92 204.857C337.758 205.013 337.562 205.091 337.334 205.091ZM343.161 214.159C342.472 214.159 341.867 213.995 341.347 213.667C340.83 213.339 340.425 212.88 340.134 212.29C339.845 211.7 339.701 211.01 339.701 210.222C339.701 209.426 339.845 208.732 340.134 208.138C340.425 207.545 340.83 207.085 341.347 206.756C341.867 206.428 342.472 206.264 343.161 206.264C343.851 206.264 344.454 206.428 344.971 206.756C345.492 207.085 345.896 207.545 346.184 208.138C346.476 208.732 346.622 209.426 346.622 210.222C346.622 211.01 346.476 211.7 346.184 212.29C345.896 212.88 345.492 213.339 344.971 213.667C344.454 213.995 343.851 214.159 343.161 214.159ZM343.161 213.105C343.685 213.105 344.116 212.971 344.454 212.702C344.792 212.434 345.042 212.081 345.205 211.643C345.367 211.206 345.448 210.732 345.448 210.222C345.448 209.711 345.367 209.236 345.205 208.795C345.042 208.354 344.792 207.998 344.454 207.726C344.116 207.454 343.685 207.318 343.161 207.318C342.638 207.318 342.207 207.454 341.869 207.726C341.531 207.998 341.281 208.354 341.118 208.795C340.956 209.236 340.875 209.711 340.875 210.222C340.875 210.732 340.956 211.206 341.118 211.643C341.281 212.081 341.531 212.434 341.869 212.702C342.207 212.971 342.638 213.105 343.161 213.105ZM349.586 209.406V214H348.413V206.364H349.546V207.557H349.646C349.825 207.169 350.096 206.857 350.461 206.622C350.826 206.384 351.296 206.264 351.873 206.264C352.39 206.264 352.842 206.37 353.23 206.582C353.618 206.791 353.92 207.109 354.135 207.537C354.35 207.961 354.458 208.498 354.458 209.148V214H353.285V209.227C353.285 208.627 353.129 208.16 352.818 207.825C352.506 207.487 352.078 207.318 351.535 207.318C351.16 207.318 350.826 207.399 350.531 207.562C350.239 207.724 350.009 207.961 349.84 208.273C349.671 208.584 349.586 208.962 349.586 209.406ZM365.949 208.074L364.895 208.372C364.829 208.196 364.731 208.026 364.601 207.86C364.476 207.691 364.303 207.552 364.084 207.442C363.866 207.333 363.586 207.278 363.244 207.278C362.777 207.278 362.387 207.386 362.076 207.602C361.768 207.814 361.614 208.084 361.614 208.412C361.614 208.704 361.72 208.934 361.932 209.103C362.144 209.272 362.475 209.413 362.926 209.526L364.06 209.804C364.742 209.97 365.251 210.223 365.586 210.565C365.921 210.903 366.088 211.339 366.088 211.872C366.088 212.31 365.962 212.701 365.71 213.045C365.462 213.39 365.114 213.662 364.666 213.861C364.219 214.06 363.698 214.159 363.105 214.159C362.326 214.159 361.681 213.99 361.171 213.652C360.661 213.314 360.338 212.82 360.202 212.17L361.315 211.892C361.421 212.303 361.622 212.611 361.917 212.817C362.215 213.022 362.605 213.125 363.085 213.125C363.632 213.125 364.066 213.009 364.388 212.777C364.713 212.542 364.875 212.26 364.875 211.932C364.875 211.667 364.782 211.445 364.597 211.266C364.411 211.083 364.126 210.947 363.741 210.858L362.469 210.56C361.769 210.394 361.256 210.137 360.927 209.789C360.603 209.438 360.44 208.999 360.44 208.472C360.44 208.041 360.561 207.66 360.803 207.328C361.048 206.997 361.382 206.737 361.802 206.548C362.227 206.359 362.707 206.264 363.244 206.264C364 206.264 364.593 206.43 365.024 206.761C365.458 207.093 365.766 207.53 365.949 208.074ZM370.956 214.159C370.267 214.159 369.662 213.995 369.142 213.667C368.625 213.339 368.22 212.88 367.929 212.29C367.64 211.7 367.496 211.01 367.496 210.222C367.496 209.426 367.64 208.732 367.929 208.138C368.22 207.545 368.625 207.085 369.142 206.756C369.662 206.428 370.267 206.264 370.956 206.264C371.646 206.264 372.249 206.428 372.766 206.756C373.286 207.085 373.691 207.545 373.979 208.138C374.271 208.732 374.417 209.426 374.417 210.222C374.417 211.01 374.271 211.7 373.979 212.29C373.691 212.88 373.286 213.339 372.766 213.667C372.249 213.995 371.646 214.159 370.956 214.159ZM370.956 213.105C371.48 213.105 371.911 212.971 372.249 212.702C372.587 212.434 372.837 212.081 373 211.643C373.162 211.206 373.243 210.732 373.243 210.222C373.243 209.711 373.162 209.236 373 208.795C372.837 208.354 372.587 207.998 372.249 207.726C371.911 207.454 371.48 207.318 370.956 207.318C370.433 207.318 370.002 207.454 369.664 207.726C369.326 207.998 369.075 208.354 368.913 208.795C368.751 209.236 368.669 209.711 368.669 210.222C368.669 210.732 368.751 211.206 368.913 211.643C369.075 212.081 369.326 212.434 369.664 212.702C370.002 212.971 370.433 213.105 370.956 213.105ZM381.02 210.878V206.364H382.193V214H381.02V212.707H380.941C380.762 213.095 380.483 213.425 380.105 213.697C379.728 213.965 379.25 214.099 378.674 214.099C378.196 214.099 377.772 213.995 377.401 213.786C377.03 213.574 376.738 213.256 376.526 212.832C376.314 212.404 376.208 211.866 376.208 211.216V206.364H377.381V211.136C377.381 211.693 377.537 212.137 377.848 212.469C378.163 212.8 378.564 212.966 379.051 212.966C379.343 212.966 379.64 212.891 379.941 212.742C380.246 212.593 380.501 212.364 380.707 212.056C380.916 211.748 381.02 211.355 381.02 210.878ZM385.516 209.406V214H384.342V206.364H385.476V207.557H385.575C385.754 207.169 386.026 206.857 386.391 206.622C386.755 206.384 387.226 206.264 387.803 206.264C388.32 206.264 388.772 206.37 389.16 206.582C389.548 206.791 389.849 207.109 390.065 207.537C390.28 207.961 390.388 208.498 390.388 209.148V214H389.215V209.227C389.215 208.627 389.059 208.16 388.747 207.825C388.436 207.487 388.008 207.318 387.465 207.318C387.09 207.318 386.755 207.399 386.46 207.562C386.169 207.724 385.938 207.961 385.769 208.273C385.6 208.584 385.516 208.962 385.516 209.406ZM395.415 214.159C394.779 214.159 394.217 213.998 393.73 213.677C393.243 213.352 392.862 212.895 392.587 212.305C392.311 211.711 392.174 211.01 392.174 210.202C392.174 209.4 392.311 208.704 392.587 208.114C392.862 207.524 393.244 207.068 393.735 206.746C394.226 206.425 394.792 206.264 395.435 206.264C395.932 206.264 396.325 206.347 396.614 206.513C396.905 206.675 397.127 206.861 397.28 207.07C397.436 207.275 397.556 207.444 397.643 207.577H397.742V203.818H398.915V214H397.782V212.827H397.643C397.556 212.966 397.434 213.142 397.275 213.354C397.116 213.562 396.889 213.75 396.594 213.915C396.299 214.078 395.906 214.159 395.415 214.159ZM395.574 213.105C396.045 213.105 396.443 212.982 396.768 212.737C397.092 212.489 397.339 212.146 397.508 211.708C397.677 211.267 397.762 210.759 397.762 210.182C397.762 209.612 397.679 209.113 397.513 208.685C397.348 208.254 397.102 207.92 396.778 207.681C396.453 207.439 396.052 207.318 395.574 207.318C395.077 207.318 394.663 207.446 394.332 207.701C394.003 207.953 393.757 208.296 393.591 208.73C393.428 209.161 393.347 209.645 393.347 210.182C393.347 210.725 393.43 211.219 393.596 211.663C393.765 212.104 394.013 212.455 394.342 212.717C394.673 212.976 395.084 213.105 395.574 213.105ZM406.636 208.074L405.582 208.372C405.516 208.196 405.418 208.026 405.289 207.86C405.163 207.691 404.991 207.552 404.772 207.442C404.553 207.333 404.273 207.278 403.932 207.278C403.464 207.278 403.075 207.386 402.763 207.602C402.455 207.814 402.301 208.084 402.301 208.412C402.301 208.704 402.407 208.934 402.619 209.103C402.831 209.272 403.163 209.413 403.614 209.526L404.747 209.804C405.43 209.97 405.939 210.223 406.273 210.565C406.608 210.903 406.775 211.339 406.775 211.872C406.775 212.31 406.65 212.701 406.398 213.045C406.149 213.39 405.801 213.662 405.354 213.861C404.906 214.06 404.386 214.159 403.793 214.159C403.014 214.159 402.369 213.99 401.859 213.652C401.348 213.314 401.025 212.82 400.889 212.17L402.003 211.892C402.109 212.303 402.309 212.611 402.604 212.817C402.903 213.022 403.292 213.125 403.773 213.125C404.32 213.125 404.754 213.009 405.075 212.777C405.4 212.542 405.562 212.26 405.562 211.932C405.562 211.667 405.47 211.445 405.284 211.266C405.098 211.083 404.813 210.947 404.429 210.858L403.156 210.56C402.457 210.394 401.943 210.137 401.615 209.789C401.29 209.438 401.128 208.999 401.128 208.472C401.128 208.041 401.249 207.66 401.491 207.328C401.736 206.997 402.069 206.737 402.49 206.548C402.914 206.359 403.395 206.264 403.932 206.264C404.687 206.264 405.281 206.43 405.712 206.761C406.146 207.093 406.454 207.53 406.636 208.074ZM410.292 212.608L410.212 213.145C410.156 213.523 410.07 213.927 409.954 214.358C409.841 214.789 409.723 215.195 409.601 215.576C409.478 215.957 409.377 216.26 409.297 216.486H408.402C408.446 216.274 408.502 215.994 408.571 215.646C408.641 215.298 408.711 214.908 408.78 214.477C408.853 214.05 408.913 213.612 408.959 213.165L409.019 212.608H410.292Z" fill="white" fill-opacity="0.7"/>
<path d="M81.811 234.49H83.253C83.3184 234.863 83.505 235.153 83.813 235.358C84.1304 235.563 84.5457 235.666 85.059 235.666C85.7777 235.666 86.3144 235.479 86.669 235.106C86.9677 234.789 87.117 234.345 87.117 233.776V232.838C86.5757 233.473 85.7684 233.79 84.695 233.79C83.7244 233.79 82.9357 233.44 82.329 232.74C81.7597 232.087 81.475 231.237 81.475 230.192C81.475 228.979 81.8204 228.041 82.511 227.378C83.099 226.799 83.855 226.51 84.779 226.51C85.8244 226.51 86.613 226.902 87.145 227.686L87.355 226.72H88.461V233.846C88.461 234.761 88.1297 235.479 87.467 236.002C86.8697 236.487 86.081 236.73 85.101 236.73C84.0837 236.73 83.2857 236.501 82.707 236.044C82.2217 235.661 81.923 235.143 81.811 234.49ZM82.875 230.22C82.875 231.013 83.1084 231.634 83.575 232.082C83.9577 232.455 84.429 232.642 84.989 232.642C85.7264 232.642 86.291 232.399 86.683 231.914C87.019 231.503 87.187 230.953 87.187 230.262C87.187 229.375 86.9584 228.699 86.501 228.232C86.1184 227.849 85.6144 227.658 84.989 227.658C84.2984 227.658 83.7664 227.896 83.393 228.372C83.0477 228.82 82.875 229.436 82.875 230.22ZM90.0063 230.36C90.0063 229.025 90.403 228.017 91.1963 227.336C91.831 226.785 92.6336 226.51 93.6043 226.51C94.7336 226.51 95.6203 226.869 96.2643 227.588C96.8803 228.26 97.1883 229.184 97.1883 230.36C97.1883 231.676 96.801 232.679 96.0263 233.37C95.3916 233.93 94.5796 234.21 93.5903 234.21C92.461 234.21 91.5696 233.837 90.9163 233.09C90.3096 232.409 90.0063 231.499 90.0063 230.36ZM91.4063 230.36C91.4063 231.293 91.6443 232.007 92.1203 232.502C92.5123 232.913 93.0116 233.118 93.6183 233.118C94.3276 233.118 94.8736 232.852 95.2563 232.32C95.611 231.835 95.7883 231.181 95.7883 230.36C95.7883 229.408 95.555 228.689 95.0883 228.204C94.7056 227.803 94.211 227.602 93.6043 227.602C92.9043 227.602 92.3583 227.868 91.9663 228.4C91.593 228.885 91.4063 229.539 91.4063 230.36ZM106.17 232.922V234.07C105.825 234.163 105.494 234.21 105.176 234.21C104.504 234.21 104 234 103.664 233.58C103.375 233.235 103.23 232.773 103.23 232.194V227.868H102.152V226.72H103.23L103.314 224.97H104.574V226.72H106.142V227.868H104.574V232.222C104.574 232.763 104.831 233.034 105.344 233.034C105.587 233.034 105.862 232.997 106.17 232.922ZM106.946 230.36C106.946 229.025 107.342 228.017 108.136 227.336C108.77 226.785 109.573 226.51 110.544 226.51C111.673 226.51 112.56 226.869 113.204 227.588C113.82 228.26 114.128 229.184 114.128 230.36C114.128 231.676 113.74 232.679 112.966 233.37C112.331 233.93 111.519 234.21 110.53 234.21C109.4 234.21 108.509 233.837 107.856 233.09C107.249 232.409 106.946 231.499 106.946 230.36ZM108.346 230.36C108.346 231.293 108.584 232.007 109.06 232.502C109.452 232.913 109.951 233.118 110.558 233.118C111.267 233.118 111.813 232.852 112.196 232.32C112.55 231.835 112.728 231.181 112.728 230.36C112.728 229.408 112.494 228.689 112.028 228.204C111.645 227.803 111.15 227.602 110.544 227.602C109.844 227.602 109.298 227.868 108.906 228.4C108.532 228.885 108.346 229.539 108.346 230.36ZM128.766 234H127.184L126.19 231.452H121.388L120.38 234H118.882L123.026 223.92H124.636L128.766 234ZM123.81 225.348L121.85 230.29H125.728L123.81 225.348ZM129.677 226.72H131.021V231.494C131.021 232.539 131.525 233.062 132.533 233.062C133.149 233.062 133.62 232.843 133.947 232.404C134.199 232.068 134.325 231.653 134.325 231.158V226.72H135.669V234H134.563L134.409 233.16C133.895 233.86 133.167 234.21 132.225 234.21C131.394 234.21 130.755 233.953 130.307 233.44C129.887 232.964 129.677 232.306 129.677 231.466V226.72ZM144.201 234H143.095L142.857 232.978C142.297 233.799 141.49 234.21 140.435 234.21C139.418 234.21 138.615 233.841 138.027 233.104C137.486 232.423 137.215 231.522 137.215 230.402C137.215 229.049 137.561 228.031 138.251 227.35C138.83 226.79 139.586 226.51 140.519 226.51C141.527 226.51 142.307 226.888 142.857 227.644V223.92H144.201V234ZM138.615 230.43C138.615 231.335 138.839 232.021 139.287 232.488C139.661 232.871 140.141 233.062 140.729 233.062C141.457 233.062 142.022 232.787 142.423 232.236C142.759 231.76 142.927 231.163 142.927 230.444C142.927 229.501 142.703 228.783 142.255 228.288C141.873 227.868 141.364 227.658 140.729 227.658C140.02 227.658 139.483 227.915 139.119 228.428C138.783 228.895 138.615 229.562 138.615 230.43ZM147.595 225.502H146.083V223.92H147.595V225.502ZM147.511 234H146.167V226.72H147.511V234ZM149.055 230.36C149.055 229.025 149.452 228.017 150.245 227.336C150.88 226.785 151.682 226.51 152.653 226.51C153.782 226.51 154.669 226.869 155.313 227.588C155.929 228.26 156.237 229.184 156.237 230.36C156.237 231.676 155.85 232.679 155.075 233.37C154.44 233.93 153.628 234.21 152.639 234.21C151.51 234.21 150.618 233.837 149.965 233.09C149.358 232.409 149.055 231.499 149.055 230.36ZM150.455 230.36C150.455 231.293 150.693 232.007 151.169 232.502C151.561 232.913 152.06 233.118 152.667 233.118C153.376 233.118 153.922 232.852 154.305 232.32C154.66 231.835 154.837 231.181 154.837 230.36C154.837 229.408 154.604 228.689 154.137 228.204C153.754 227.803 153.26 227.602 152.653 227.602C151.953 227.602 151.407 227.868 151.015 228.4C150.642 228.885 150.455 229.539 150.455 230.36ZM159.501 234H157.877V232.376H159.501V234Z" fill="#64B4FA"/>
<path d="M80.915 235.26H160.789V236.45H80.915V235.26Z" fill="#64B4FA"/>
<rect x="81.5" y="146.5" width="15" height="15" rx="1.5" stroke="white" stroke-opacity="0.4"/>
<path d="M106.233 146.818H107.705L111.165 155.27H111.284L114.744 146.818H116.216V157H115.062V149.264H114.963L111.781 157H110.668L107.486 149.264H107.386V157H106.233V146.818ZM123.341 153.878V149.364H124.515V157H123.341V155.707H123.262C123.083 156.095 122.805 156.425 122.427 156.697C122.049 156.965 121.572 157.099 120.995 157.099C120.518 157.099 120.093 156.995 119.722 156.786C119.351 156.574 119.059 156.256 118.847 155.832C118.635 155.404 118.529 154.866 118.529 154.216V149.364H119.702V154.136C119.702 154.693 119.858 155.137 120.17 155.469C120.484 155.8 120.885 155.966 121.373 155.966C121.664 155.966 121.961 155.891 122.263 155.742C122.568 155.593 122.823 155.364 123.028 155.056C123.237 154.748 123.341 154.355 123.341 153.878ZM129.985 149.364V150.358H126.027V149.364H129.985ZM127.181 147.534H128.354V154.812C128.354 155.144 128.402 155.393 128.498 155.558C128.598 155.721 128.724 155.83 128.876 155.886C129.032 155.939 129.196 155.966 129.368 155.966C129.498 155.966 129.604 155.959 129.686 155.946C129.769 155.929 129.836 155.916 129.885 155.906L130.124 156.96C130.044 156.99 129.933 157.02 129.791 157.05C129.648 157.083 129.468 157.099 129.249 157.099C128.917 157.099 128.593 157.028 128.275 156.886C127.96 156.743 127.698 156.526 127.489 156.234C127.283 155.943 127.181 155.575 127.181 155.131V147.534ZM134.869 157.159C134.134 157.159 133.499 156.997 132.965 156.672C132.435 156.344 132.026 155.886 131.737 155.3C131.452 154.71 131.31 154.024 131.31 153.241C131.31 152.459 131.452 151.77 131.737 151.173C132.026 150.573 132.427 150.106 132.94 149.771C133.457 149.433 134.061 149.264 134.75 149.264C135.148 149.264 135.54 149.33 135.928 149.463C136.316 149.596 136.669 149.811 136.987 150.109C137.305 150.404 137.559 150.795 137.748 151.283C137.937 151.77 138.031 152.37 138.031 153.082V153.58H132.145V152.565H136.838C136.838 152.134 136.752 151.75 136.58 151.412C136.411 151.074 136.169 150.807 135.854 150.612C135.542 150.416 135.174 150.318 134.75 150.318C134.283 150.318 133.878 150.434 133.537 150.666C133.199 150.895 132.939 151.193 132.756 151.561C132.574 151.929 132.483 152.323 132.483 152.744V153.42C132.483 153.997 132.582 154.486 132.781 154.887C132.983 155.285 133.263 155.588 133.621 155.797C133.979 156.002 134.395 156.105 134.869 156.105C135.178 156.105 135.456 156.062 135.705 155.976C135.956 155.886 136.174 155.754 136.356 155.578C136.538 155.399 136.679 155.177 136.778 154.912L137.912 155.23C137.793 155.615 137.592 155.953 137.31 156.244C137.029 156.533 136.681 156.758 136.266 156.92C135.852 157.08 135.386 157.159 134.869 157.159ZM145.484 157L143.157 149.364H144.39L146.04 155.21H146.12L147.751 149.364H149.004L150.614 155.19H150.694L152.344 149.364H153.577L151.251 157H150.097L148.427 151.134H148.308L146.637 157H145.484ZM156.302 152.406V157H155.129V146.818H156.302V150.557H156.401C156.58 150.162 156.849 149.849 157.207 149.617C157.568 149.382 158.049 149.264 158.648 149.264C159.169 149.264 159.625 149.369 160.016 149.577C160.407 149.783 160.71 150.099 160.925 150.527C161.144 150.951 161.254 151.491 161.254 152.148V157H160.08V152.227C160.08 151.621 159.923 151.152 159.608 150.82C159.296 150.486 158.864 150.318 158.31 150.318C157.926 150.318 157.581 150.399 157.276 150.562C156.975 150.724 156.736 150.961 156.56 151.273C156.388 151.584 156.302 151.962 156.302 152.406ZM166.602 157.159C165.866 157.159 165.231 156.997 164.698 156.672C164.167 156.344 163.758 155.886 163.47 155.3C163.185 154.71 163.042 154.024 163.042 153.241C163.042 152.459 163.185 151.77 163.47 151.173C163.758 150.573 164.159 150.106 164.673 149.771C165.19 149.433 165.793 149.264 166.482 149.264C166.88 149.264 167.273 149.33 167.661 149.463C168.048 149.596 168.401 149.811 168.72 150.109C169.038 150.404 169.291 150.795 169.48 151.283C169.669 151.77 169.764 152.37 169.764 153.082V153.58H163.877V152.565H168.57C168.57 152.134 168.484 151.75 168.312 151.412C168.143 151.074 167.901 150.807 167.586 150.612C167.275 150.416 166.907 150.318 166.482 150.318C166.015 150.318 165.611 150.434 165.269 150.666C164.931 150.895 164.671 151.193 164.489 151.561C164.307 151.929 164.215 152.323 164.215 152.744V153.42C164.215 153.997 164.315 154.486 164.514 154.887C164.716 155.285 164.996 155.588 165.354 155.797C165.712 156.002 166.128 156.105 166.602 156.105C166.91 156.105 167.188 156.062 167.437 155.976C167.689 155.886 167.906 155.754 168.088 155.578C168.271 155.399 168.411 155.177 168.511 154.912L169.644 155.23C169.525 155.615 169.325 155.953 169.043 156.244C168.761 156.533 168.413 156.758 167.999 156.92C167.584 157.08 167.119 157.159 166.602 157.159ZM172.722 152.406V157H171.548V149.364H172.682V150.557H172.781C172.96 150.169 173.232 149.857 173.597 149.622C173.961 149.384 174.432 149.264 175.009 149.264C175.526 149.264 175.978 149.37 176.366 149.582C176.754 149.791 177.055 150.109 177.271 150.537C177.486 150.961 177.594 151.498 177.594 152.148V157H176.421V152.227C176.421 151.627 176.265 151.16 175.953 150.825C175.642 150.487 175.214 150.318 174.671 150.318C174.296 150.318 173.961 150.399 173.666 150.562C173.375 150.724 173.144 150.961 172.975 151.273C172.806 151.584 172.722 151.962 172.722 152.406ZM185.684 157L182.9 146.818H184.153L186.281 155.111H186.38L188.548 146.818H189.94L192.107 155.111H192.207L194.335 146.818H195.587L192.803 157H191.531L189.283 148.886H189.204L186.957 157H185.684ZM199.455 157.159C198.719 157.159 198.085 156.997 197.551 156.672C197.021 156.344 196.612 155.886 196.323 155.3C196.038 154.71 195.896 154.024 195.896 153.241C195.896 152.459 196.038 151.77 196.323 151.173C196.612 150.573 197.013 150.106 197.526 149.771C198.043 149.433 198.647 149.264 199.336 149.264C199.734 149.264 200.126 149.33 200.514 149.463C200.902 149.596 201.255 149.811 201.573 150.109C201.891 150.404 202.145 150.795 202.334 151.283C202.523 151.77 202.617 152.37 202.617 153.082V153.58H196.731V152.565H201.424C201.424 152.134 201.338 151.75 201.165 151.412C200.996 151.074 200.754 150.807 200.44 150.612C200.128 150.416 199.76 150.318 199.336 150.318C198.869 150.318 198.464 150.434 198.123 150.666C197.785 150.895 197.525 151.193 197.342 151.561C197.16 151.929 197.069 152.323 197.069 152.744V153.42C197.069 153.997 197.168 154.486 197.367 154.887C197.569 155.285 197.849 155.588 198.207 155.797C198.565 156.002 198.981 156.105 199.455 156.105C199.763 156.105 200.042 156.062 200.29 155.976C200.542 155.886 200.759 155.754 200.942 155.578C201.124 155.399 201.265 155.177 201.364 154.912L202.498 155.23C202.379 155.615 202.178 155.953 201.896 156.244C201.615 156.533 201.267 156.758 200.852 156.92C200.438 157.08 199.972 157.159 199.455 157.159ZM204.561 157V146.818H205.734V150.577H205.834C205.92 150.444 206.039 150.275 206.192 150.07C206.348 149.861 206.57 149.675 206.858 149.513C207.15 149.347 207.544 149.264 208.041 149.264C208.684 149.264 209.251 149.425 209.741 149.746C210.232 150.068 210.615 150.524 210.89 151.114C211.165 151.704 211.303 152.4 211.303 153.202C211.303 154.01 211.165 154.711 210.89 155.305C210.615 155.895 210.234 156.352 209.746 156.677C209.259 156.998 208.697 157.159 208.061 157.159C207.571 157.159 207.178 157.078 206.883 156.915C206.588 156.75 206.361 156.562 206.202 156.354C206.043 156.142 205.92 155.966 205.834 155.827H205.695V157H204.561ZM205.714 153.182C205.714 153.759 205.799 154.267 205.968 154.708C206.137 155.146 206.384 155.489 206.709 155.737C207.034 155.982 207.431 156.105 207.902 156.105C208.393 156.105 208.802 155.976 209.13 155.717C209.461 155.455 209.71 155.104 209.876 154.663C210.045 154.219 210.129 153.725 210.129 153.182C210.129 152.645 210.046 152.161 209.881 151.73C209.718 151.296 209.471 150.953 209.14 150.701C208.812 150.446 208.399 150.318 207.902 150.318C207.425 150.318 207.024 150.439 206.699 150.681C206.374 150.92 206.129 151.254 205.963 151.685C205.797 152.113 205.714 152.612 205.714 153.182ZM216.299 157.159C215.563 157.159 214.929 156.997 214.395 156.672C213.865 156.344 213.455 155.886 213.167 155.3C212.882 154.71 212.739 154.024 212.739 153.241C212.739 152.459 212.882 151.77 213.167 151.173C213.455 150.573 213.856 150.106 214.37 149.771C214.887 149.433 215.49 149.264 216.18 149.264C216.577 149.264 216.97 149.33 217.358 149.463C217.746 149.596 218.099 149.811 218.417 150.109C218.735 150.404 218.989 150.795 219.178 151.283C219.366 151.77 219.461 152.37 219.461 153.082V153.58H213.575V152.565H218.268C218.268 152.134 218.182 151.75 218.009 151.412C217.84 151.074 217.598 150.807 217.283 150.612C216.972 150.416 216.604 150.318 216.18 150.318C215.712 150.318 215.308 150.434 214.967 150.666C214.629 150.895 214.368 151.193 214.186 151.561C214.004 151.929 213.913 152.323 213.913 152.744V153.42C213.913 153.997 214.012 154.486 214.211 154.887C214.413 155.285 214.693 155.588 215.051 155.797C215.409 156.002 215.825 156.105 216.299 156.105C216.607 156.105 216.886 156.062 217.134 155.976C217.386 155.886 217.603 155.754 217.786 155.578C217.968 155.399 218.109 155.177 218.208 154.912L219.342 155.23C219.222 155.615 219.022 155.953 218.74 156.244C218.458 156.533 218.11 156.758 217.696 156.92C217.282 157.08 216.816 157.159 216.299 157.159ZM221.916 149.364L223.745 152.486L225.575 149.364H226.927L224.461 153.182L226.927 157H225.575L223.745 154.037L221.916 157H220.563L222.99 153.182L220.563 149.364H221.916ZM232.539 157V149.364H233.712V157H232.539ZM233.135 148.091C232.907 148.091 232.709 148.013 232.544 147.857C232.381 147.701 232.3 147.514 232.3 147.295C232.3 147.077 232.381 146.889 232.544 146.734C232.709 146.578 232.907 146.5 233.135 146.5C233.364 146.5 233.56 146.578 233.722 146.734C233.888 146.889 233.971 147.077 233.971 147.295C233.971 147.514 233.888 147.701 233.722 147.857C233.56 148.013 233.364 148.091 233.135 148.091ZM241.27 151.074L240.216 151.372C240.15 151.196 240.052 151.026 239.923 150.86C239.797 150.691 239.624 150.552 239.406 150.442C239.187 150.333 238.907 150.278 238.566 150.278C238.098 150.278 237.709 150.386 237.397 150.602C237.089 150.814 236.935 151.084 236.935 151.412C236.935 151.704 237.041 151.934 237.253 152.103C237.465 152.272 237.797 152.413 238.247 152.526L239.381 152.804C240.064 152.97 240.572 153.223 240.907 153.565C241.242 153.903 241.409 154.339 241.409 154.872C241.409 155.31 241.283 155.701 241.031 156.045C240.783 156.39 240.435 156.662 239.987 156.861C239.54 157.06 239.02 157.159 238.426 157.159C237.647 157.159 237.003 156.99 236.492 156.652C235.982 156.314 235.659 155.82 235.523 155.17L236.637 154.892C236.743 155.303 236.943 155.611 237.238 155.817C237.536 156.022 237.926 156.125 238.406 156.125C238.953 156.125 239.387 156.009 239.709 155.777C240.034 155.542 240.196 155.26 240.196 154.932C240.196 154.667 240.103 154.445 239.918 154.266C239.732 154.083 239.447 153.947 239.063 153.858L237.79 153.56C237.091 153.394 236.577 153.137 236.249 152.789C235.924 152.438 235.762 151.999 235.762 151.472C235.762 151.041 235.883 150.66 236.124 150.328C236.37 149.997 236.703 149.737 237.124 149.548C237.548 149.359 238.029 149.264 238.566 149.264C239.321 149.264 239.914 149.43 240.345 149.761C240.78 150.093 241.088 150.53 241.27 151.074ZM250.215 157.159C249.499 157.159 248.883 156.99 248.366 156.652C247.849 156.314 247.451 155.848 247.173 155.255C246.894 154.662 246.755 153.984 246.755 153.222C246.755 152.446 246.897 151.762 247.183 151.168C247.471 150.572 247.872 150.106 248.386 149.771C248.903 149.433 249.506 149.264 250.195 149.264C250.732 149.264 251.216 149.364 251.647 149.562C252.078 149.761 252.431 150.04 252.706 150.398C252.981 150.756 253.152 151.173 253.218 151.651H252.045C251.955 151.303 251.756 150.994 251.448 150.726C251.143 150.454 250.732 150.318 250.215 150.318C249.758 150.318 249.357 150.437 249.012 150.676C248.671 150.911 248.404 151.245 248.212 151.675C248.023 152.103 247.928 152.605 247.928 153.182C247.928 153.772 248.021 154.286 248.207 154.723C248.396 155.161 248.661 155.5 249.002 155.742C249.347 155.984 249.751 156.105 250.215 156.105C250.52 156.105 250.797 156.052 251.045 155.946C251.294 155.84 251.504 155.688 251.677 155.489C251.849 155.29 251.972 155.051 252.045 154.773H253.218C253.152 155.223 252.988 155.629 252.726 155.991C252.467 156.349 252.124 156.634 251.697 156.846C251.272 157.055 250.779 157.159 250.215 157.159ZM256.107 146.818V157H254.933V146.818H256.107ZM261.358 157.159C260.668 157.159 260.064 156.995 259.543 156.667C259.026 156.339 258.622 155.88 258.33 155.29C258.042 154.7 257.898 154.01 257.898 153.222C257.898 152.426 258.042 151.732 258.33 151.138C258.622 150.545 259.026 150.085 259.543 149.756C260.064 149.428 260.668 149.264 261.358 149.264C262.047 149.264 262.65 149.428 263.167 149.756C263.688 150.085 264.092 150.545 264.381 151.138C264.672 151.732 264.818 152.426 264.818 153.222C264.818 154.01 264.672 154.7 264.381 155.29C264.092 155.88 263.688 156.339 263.167 156.667C262.65 156.995 262.047 157.159 261.358 157.159ZM261.358 156.105C261.881 156.105 262.312 155.971 262.65 155.702C262.988 155.434 263.239 155.081 263.401 154.643C263.564 154.206 263.645 153.732 263.645 153.222C263.645 152.711 263.564 152.236 263.401 151.795C263.239 151.354 262.988 150.998 262.65 150.726C262.312 150.454 261.881 150.318 261.358 150.318C260.834 150.318 260.403 150.454 260.065 150.726C259.727 150.998 259.477 151.354 259.314 151.795C259.152 152.236 259.071 152.711 259.071 153.222C259.071 153.732 259.152 154.206 259.314 154.643C259.477 155.081 259.727 155.434 260.065 155.702C260.403 155.971 260.834 156.105 261.358 156.105ZM272.018 151.074L270.964 151.372C270.898 151.196 270.8 151.026 270.671 150.86C270.545 150.691 270.373 150.552 270.154 150.442C269.935 150.333 269.655 150.278 269.314 150.278C268.846 150.278 268.457 150.386 268.145 150.602C267.837 150.814 267.683 151.084 267.683 151.412C267.683 151.704 267.789 151.934 268.001 152.103C268.213 152.272 268.545 152.413 268.995 152.526L270.129 152.804C270.812 152.97 271.32 153.223 271.655 153.565C271.99 153.903 272.157 154.339 272.157 154.872C272.157 155.31 272.031 155.701 271.779 156.045C271.531 156.39 271.183 156.662 270.735 156.861C270.288 157.06 269.768 157.159 269.174 157.159C268.395 157.159 267.751 156.99 267.24 156.652C266.73 156.314 266.407 155.82 266.271 155.17L267.385 154.892C267.491 155.303 267.691 155.611 267.986 155.817C268.284 156.022 268.674 156.125 269.154 156.125C269.701 156.125 270.136 156.009 270.457 155.777C270.782 155.542 270.944 155.26 270.944 154.932C270.944 154.667 270.851 154.445 270.666 154.266C270.48 154.083 270.195 153.947 269.811 153.858L268.538 153.56C267.839 153.394 267.325 153.137 266.997 152.789C266.672 152.438 266.51 151.999 266.51 151.472C266.51 151.041 266.631 150.66 266.873 150.328C267.118 149.997 267.451 149.737 267.872 149.548C268.296 149.359 268.777 149.264 269.314 149.264C270.069 149.264 270.663 149.43 271.093 149.761C271.528 150.093 271.836 150.53 272.018 151.074ZM277.125 157.159C276.389 157.159 275.755 156.997 275.221 156.672C274.691 156.344 274.281 155.886 273.993 155.3C273.708 154.71 273.566 154.024 273.566 153.241C273.566 152.459 273.708 151.77 273.993 151.173C274.281 150.573 274.682 150.106 275.196 149.771C275.713 149.433 276.316 149.264 277.006 149.264C277.404 149.264 277.796 149.33 278.184 149.463C278.572 149.596 278.925 149.811 279.243 150.109C279.561 150.404 279.815 150.795 280.004 151.283C280.193 151.77 280.287 152.37 280.287 153.082V153.58H274.401V152.565H279.094C279.094 152.134 279.008 151.75 278.835 151.412C278.666 151.074 278.424 150.807 278.11 150.612C277.798 150.416 277.43 150.318 277.006 150.318C276.539 150.318 276.134 150.434 275.793 150.666C275.455 150.895 275.195 151.193 275.012 151.561C274.83 151.929 274.739 152.323 274.739 152.744V153.42C274.739 153.997 274.838 154.486 275.037 154.887C275.239 155.285 275.519 155.588 275.877 155.797C276.235 156.002 276.651 156.105 277.125 156.105C277.433 156.105 277.712 156.062 277.96 155.976C278.212 155.886 278.429 155.754 278.612 155.578C278.794 155.399 278.935 155.177 279.034 154.912L280.168 155.23C280.048 155.615 279.848 155.953 279.566 156.244C279.285 156.533 278.936 156.758 278.522 156.92C278.108 157.08 277.642 157.159 277.125 157.159ZM284.955 157.159C284.319 157.159 283.757 156.998 283.27 156.677C282.783 156.352 282.402 155.895 282.127 155.305C281.852 154.711 281.714 154.01 281.714 153.202C281.714 152.4 281.852 151.704 282.127 151.114C282.402 150.524 282.785 150.068 283.275 149.746C283.766 149.425 284.332 149.264 284.975 149.264C285.472 149.264 285.865 149.347 286.154 149.513C286.445 149.675 286.667 149.861 286.82 150.07C286.976 150.275 287.097 150.444 287.183 150.577H287.282V146.818H288.455V157H287.322V155.827H287.183C287.097 155.966 286.974 156.142 286.815 156.354C286.656 156.562 286.429 156.75 286.134 156.915C285.839 157.078 285.446 157.159 284.955 157.159ZM285.115 156.105C285.585 156.105 285.983 155.982 286.308 155.737C286.633 155.489 286.879 155.146 287.048 154.708C287.218 154.267 287.302 153.759 287.302 153.182C287.302 152.612 287.219 152.113 287.053 151.685C286.888 151.254 286.642 150.92 286.318 150.681C285.993 150.439 285.592 150.318 285.115 150.318C284.617 150.318 284.203 150.446 283.872 150.701C283.544 150.953 283.297 151.296 283.131 151.73C282.968 152.161 282.887 152.645 282.887 153.182C282.887 153.725 282.97 154.219 283.136 154.663C283.305 155.104 283.553 155.455 283.882 155.717C284.213 155.976 284.624 156.105 285.115 156.105Z" fill="white" fill-opacity="0.95"/>
<rect opacity="0.5" x="81" y="106" width="160" height="4" fill="#30C9B0" fill-opacity="0.5"/>
<g clip-path="url(#clip1_2173_7390)">
<line x1="249" y1="106.5" x2="264" y2="106.5" stroke="#30C9B0"/>
<line x1="256.5" y1="111" x2="256.5" y2="107" stroke="#30C9B0"/>
<line x1="249" y1="109.5" x2="264" y2="109.5" stroke="#30C9B0"/>
</g>
<path d="M274.433 109.452H275.684V110.778H274.433V113H272.799V110.778H268.492L268.451 109.773L272.751 103.047H274.433V109.452ZM270.119 109.452H272.799V105.234L272.607 105.59L270.119 109.452Z" fill="#30C9B0"/>
</g>
</g>
<defs>
<clipPath id="clip0_2173_7390">
<rect width="370" height="190" fill="white" transform="translate(60 60)"/>
</clipPath>
<clipPath id="clip1_2173_7390">
<rect width="15" height="4" fill="white" transform="translate(249 106)"/>
</clipPath>
</defs>
</svg>
