<svg width="92" height="74" viewBox="0 0 92 74" fill="none" xmlns="http://www.w3.org/2000/svg">
<rect x="1" y="1" width="90" height="72" rx="9" fill="#063A75"/>
<rect x="1" y="1" width="90" height="72" rx="9" stroke="#64B4FA" stroke-width="2"/>
<rect x="1" y="1" width="90" height="72" rx="9" fill="#063A75"/>
<rect x="1" y="1" width="90" height="72" rx="9" stroke="#64B4FA" stroke-width="2"/>
<path d="M14.5682 20.392V18.3636H24.125V20.392H20.5625V30H18.1307V20.392H14.5682ZM27.2745 30.1648C26.7177 30.1648 26.2215 30.0682 25.7859 29.875C25.3503 29.678 25.0056 29.3883 24.7518 29.0057C24.5018 28.6193 24.3768 28.1383 24.3768 27.5625C24.3768 27.0777 24.4658 26.6705 24.6439 26.3409C24.8219 26.0114 25.0643 25.7462 25.3711 25.5455C25.678 25.3447 26.0264 25.1932 26.4166 25.0909C26.8105 24.9886 27.2234 24.9167 27.6552 24.875C28.1628 24.822 28.5719 24.7727 28.8825 24.7273C29.1931 24.678 29.4185 24.6061 29.5586 24.5114C29.6988 24.4167 29.7689 24.2765 29.7689 24.0909V24.0568C29.7689 23.697 29.6552 23.4186 29.428 23.2216C29.2045 23.0246 28.8863 22.9261 28.4734 22.9261C28.0378 22.9261 27.6912 23.0227 27.4336 23.2159C27.1761 23.4053 27.0056 23.6439 26.9223 23.9318L24.6836 23.75C24.7973 23.2197 25.0208 22.7614 25.3541 22.375C25.6874 21.9848 26.1173 21.6856 26.6439 21.4773C27.1742 21.2652 27.7878 21.1591 28.4848 21.1591C28.9696 21.1591 29.4336 21.2159 29.8768 21.3295C30.3238 21.4432 30.7196 21.6193 31.0643 21.858C31.4128 22.0966 31.6874 22.4034 31.8882 22.7784C32.0889 23.1496 32.1893 23.5947 32.1893 24.1136V30H29.8939V28.7898H29.8257C29.6855 29.0625 29.498 29.303 29.2632 29.5114C29.0283 29.7159 28.7461 29.8769 28.4166 29.9943C28.087 30.108 27.7064 30.1648 27.2745 30.1648ZM27.9677 28.4943C28.3238 28.4943 28.6382 28.4242 28.9109 28.2841C29.1836 28.1402 29.3977 27.947 29.553 27.7045C29.7083 27.4621 29.7859 27.1875 29.7859 26.8807V25.9545C29.7102 26.0038 29.606 26.0492 29.4734 26.0909C29.3446 26.1288 29.1988 26.1648 29.0359 26.1989C28.873 26.2292 28.7102 26.2576 28.5473 26.2841C28.3844 26.3068 28.2367 26.3277 28.1041 26.3466C27.82 26.3883 27.5719 26.4545 27.3598 26.5455C27.1477 26.6364 26.9829 26.7595 26.8655 26.9148C26.748 27.0663 26.6893 27.2557 26.6893 27.483C26.6893 27.8125 26.8086 28.0644 27.0473 28.2386C27.2897 28.4091 27.5965 28.4943 27.9677 28.4943ZM34.4326 30V18.3636H36.8531V22.7386H36.9269C37.033 22.5038 37.1864 22.2652 37.3872 22.0227C37.5917 21.7765 37.8569 21.572 38.1826 21.4091C38.5122 21.2424 38.9212 21.1591 39.4099 21.1591C40.0462 21.1591 40.6334 21.3258 41.1712 21.6591C41.7091 21.9886 42.1391 22.4867 42.461 23.1534C42.783 23.8163 42.944 24.6477 42.944 25.6477C42.944 26.6212 42.7868 27.4432 42.4724 28.1136C42.1618 28.7803 41.7375 29.286 41.1997 29.6307C40.6656 29.9716 40.0671 30.142 39.4042 30.142C38.9345 30.142 38.5349 30.0644 38.2053 29.9091C37.8796 29.7538 37.6125 29.5587 37.4042 29.3239C37.1959 29.0852 37.0368 28.8447 36.9269 28.6023H36.819V30H34.4326ZM36.8019 25.6364C36.8019 26.1553 36.8739 26.608 37.0178 26.9943C37.1618 27.3807 37.3701 27.6818 37.6428 27.8977C37.9156 28.1098 38.247 28.2159 38.6372 28.2159C39.0311 28.2159 39.3644 28.108 39.6372 27.892C39.9099 27.6723 40.1163 27.3693 40.2565 26.983C40.4004 26.5928 40.4724 26.1439 40.4724 25.6364C40.4724 25.1326 40.4023 24.6894 40.2622 24.3068C40.122 23.9242 39.9156 23.625 39.6428 23.4091C39.3701 23.1932 39.0349 23.0852 38.6372 23.0852C38.2432 23.0852 37.9099 23.1894 37.6372 23.3977C37.3682 23.6061 37.1618 23.9015 37.0178 24.2841C36.8739 24.6667 36.8019 25.1174 36.8019 25.6364Z" fill="#C7EEFF"/>
<path d="M44.9859 42.4051C44.9853 42.1842 45.1639 42.0047 45.3849 42.0041L46.5849 42.001C46.8058 42.0005 46.9853 42.1791 46.9859 42.4L47.0146 53.6C47.0152 53.8209 46.8366 54.0004 46.6156 54.001L45.4156 54.0041C45.1947 54.0046 45.0152 53.826 45.0146 53.6051L45.0053 49.9644C45.0044 49.6085 44.5741 49.431 44.3224 49.6826L40.5827 53.4223C40.3308 53.6743 39.8999 53.4958 39.8999 53.1394V49.4051C39.8999 49.1842 39.7208 49.0051 39.4999 49.0051H14.4C14.1791 49.0051 14 48.826 14 48.6051V47.4051C14 47.1842 14.1791 47.0051 14.4 47.0051H39.4999C39.7208 47.0051 39.8999 46.826 39.8999 46.6051V42.9596C39.8999 42.6049 40.3275 42.4257 40.5804 42.6745L44.3148 46.3476C44.5681 46.5968 44.9962 46.4167 44.9953 46.0614L44.9859 42.4051Z" fill="#C7EEFF"/>
</svg>
