<svg width="630" height="266" viewBox="0 0 630 266" fill="none" xmlns="http://www.w3.org/2000/svg">
<path d="M0 24C0 10.7452 10.7452 0 24 0H606C619.255 0 630 10.7452 630 24V242C630 255.255 619.255 266 606 266H24C10.7452 266 0 255.255 0 242V24Z" fill="#262626"/>
<path d="M590 25.9997C587.231 25.9997 584.524 26.8208 582.222 28.3591C579.92 29.8975 578.125 32.084 577.066 34.6421C576.006 37.2003 575.729 40.0152 576.269 42.731C576.809 45.4467 578.143 47.9413 580.101 49.8992C582.058 51.8571 584.553 53.1905 587.269 53.7307C589.984 54.2709 592.799 53.9936 595.358 52.934C597.916 51.8744 600.102 50.08 601.641 47.7777C603.179 45.4754 604 42.7686 604 39.9997C603.996 36.2879 602.52 32.7294 599.895 30.1048C597.27 27.4802 593.712 26.0039 590 25.9997ZM599.155 47.7404L582.259 30.8449C584.554 28.8985 587.497 27.8864 590.504 28.0097C593.511 28.1331 596.361 29.3828 598.489 31.5106C600.617 33.6385 601.867 36.4889 601.99 39.4956C602.113 42.5023 601.101 45.4454 599.155 47.7404ZM580.845 32.259L597.741 49.1545C595.446 51.1009 592.503 52.1129 589.496 51.9896C586.489 51.8662 583.639 50.6165 581.511 48.4887C579.383 46.3608 578.134 43.5105 578.01 40.5038C577.887 37.4971 578.899 34.554 580.845 32.259Z" fill="#FC8B98"/>
<path d="M0 243H630C630 255.703 619.703 266 607 266H23C10.2975 266 0 255.703 0 243Z" fill="url(#paint0_linear_2315_11649)"/>
<defs>
<linearGradient id="paint0_linear_2315_11649" x1="315" y1="243" x2="315" y2="266" gradientUnits="userSpaceOnUse">
<stop stop-color="#F0677E"/>
<stop offset="1" stop-color="#DB1F2E"/>
</linearGradient>
</defs>
</svg>
