<svg width="1300" height="307" viewBox="0 0 1300 307" fill="none" xmlns="http://www.w3.org/2000/svg">
<rect width="1300" height="307" rx="20" fill="#262626"/>
<path d="M537.183 159.25C537.183 162.012 534.944 164.25 532.183 164.25C529.421 164.25 527.183 162.012 527.183 159.25C527.183 156.489 529.421 154.25 532.183 154.25C534.944 154.25 537.183 156.489 537.183 159.25Z" stroke="#64B4FA" stroke-width="2"/>
<g clip-path="url(#clip0_2322_16777)">
<path d="M547.451 164.25V154.068H548.684V163.156H553.417V164.25H547.451ZM557.414 164.429C556.93 164.429 556.491 164.338 556.096 164.156C555.702 163.97 555.389 163.703 555.157 163.355C554.925 163.004 554.809 162.58 554.809 162.083C554.809 161.645 554.895 161.29 555.067 161.019C555.24 160.743 555.47 160.528 555.758 160.372C556.047 160.217 556.365 160.101 556.713 160.024C557.064 159.945 557.417 159.882 557.772 159.835C558.236 159.776 558.612 159.731 558.9 159.701C559.192 159.668 559.404 159.613 559.537 159.537C559.673 159.461 559.741 159.328 559.741 159.139V159.1C559.741 158.609 559.606 158.228 559.338 157.956C559.073 157.684 558.67 157.548 558.13 157.548C557.57 157.548 557.13 157.671 556.812 157.916C556.494 158.162 556.27 158.423 556.141 158.702L555.027 158.304C555.226 157.84 555.491 157.479 555.823 157.22C556.158 156.958 556.522 156.776 556.917 156.673C557.314 156.567 557.705 156.514 558.09 156.514C558.335 156.514 558.617 156.544 558.935 156.604C559.257 156.66 559.566 156.778 559.865 156.957C560.166 157.136 560.417 157.406 560.616 157.767C560.814 158.128 560.914 158.612 560.914 159.219V164.25H559.741V163.216H559.681C559.601 163.382 559.469 163.559 559.283 163.748C559.098 163.937 558.851 164.098 558.542 164.23C558.234 164.363 557.858 164.429 557.414 164.429ZM557.593 163.375C558.057 163.375 558.448 163.284 558.766 163.102C559.088 162.919 559.33 162.684 559.492 162.396C559.658 162.107 559.741 161.804 559.741 161.486V160.412C559.691 160.472 559.581 160.526 559.412 160.576C559.247 160.623 559.054 160.664 558.836 160.7C558.62 160.734 558.41 160.763 558.204 160.79C558.002 160.813 557.838 160.833 557.712 160.85C557.407 160.889 557.122 160.954 556.857 161.043C556.595 161.13 556.383 161.261 556.221 161.436C556.062 161.609 555.982 161.844 555.982 162.142C555.982 162.55 556.133 162.858 556.434 163.067C556.739 163.272 557.125 163.375 557.593 163.375ZM563.214 164.25V154.068H564.388V157.827H564.487C564.573 157.694 564.693 157.525 564.845 157.32C565.001 157.111 565.223 156.925 565.511 156.763C565.803 156.597 566.197 156.514 566.695 156.514C567.338 156.514 567.904 156.675 568.395 156.997C568.885 157.318 569.268 157.774 569.543 158.364C569.818 158.954 569.956 159.65 569.956 160.452C569.956 161.261 569.818 161.962 569.543 162.555C569.268 163.145 568.887 163.602 568.4 163.927C567.913 164.248 567.351 164.409 566.714 164.409C566.224 164.409 565.831 164.328 565.536 164.166C565.241 164 565.014 163.813 564.855 163.604C564.696 163.392 564.573 163.216 564.487 163.077H564.348V164.25H563.214ZM564.368 160.432C564.368 161.009 564.452 161.517 564.621 161.958C564.79 162.396 565.037 162.739 565.362 162.987C565.687 163.233 566.085 163.355 566.555 163.355C567.046 163.355 567.455 163.226 567.783 162.967C568.115 162.706 568.363 162.354 568.529 161.913C568.698 161.469 568.783 160.976 568.783 160.432C568.783 159.895 568.7 159.411 568.534 158.98C568.372 158.546 568.125 158.203 567.793 157.951C567.465 157.696 567.052 157.568 566.555 157.568C566.078 157.568 565.677 157.689 565.352 157.931C565.027 158.17 564.782 158.505 564.616 158.935C564.451 159.363 564.368 159.862 564.368 160.432ZM574.952 164.409C574.217 164.409 573.582 164.247 573.048 163.922C572.518 163.594 572.109 163.136 571.82 162.55C571.535 161.96 571.393 161.274 571.393 160.492C571.393 159.709 571.535 159.02 571.82 158.423C572.109 157.824 572.51 157.356 573.023 157.021C573.54 156.683 574.144 156.514 574.833 156.514C575.231 156.514 575.623 156.581 576.011 156.713C576.399 156.846 576.752 157.061 577.07 157.359C577.388 157.654 577.642 158.046 577.831 158.533C578.02 159.02 578.114 159.62 578.114 160.333V160.83H572.228V159.815H576.921C576.921 159.385 576.835 159 576.663 158.662C576.494 158.324 576.252 158.057 575.937 157.862C575.625 157.666 575.257 157.568 574.833 157.568C574.366 157.568 573.961 157.684 573.62 157.916C573.282 158.145 573.022 158.443 572.839 158.811C572.657 159.179 572.566 159.574 572.566 159.994V160.671C572.566 161.247 572.665 161.736 572.864 162.137C573.066 162.535 573.347 162.838 573.704 163.047C574.062 163.252 574.478 163.355 574.952 163.355C575.261 163.355 575.539 163.312 575.788 163.226C576.039 163.136 576.257 163.004 576.439 162.828C576.621 162.649 576.762 162.427 576.861 162.162L577.995 162.48C577.876 162.865 577.675 163.203 577.393 163.494C577.112 163.783 576.764 164.008 576.349 164.171C575.935 164.33 575.469 164.409 574.952 164.409ZM581.072 154.068V164.25H579.899V154.068H581.072Z" fill="white" fill-opacity="0.7"/>
</g>
<rect x="590.183" y="158.25" width="24" height="2" fill="#8F8F8F"/>
<path d="M633.183 159.25C633.183 162.012 630.944 164.25 628.183 164.25C625.421 164.25 623.183 162.012 623.183 159.25C623.183 156.489 625.421 154.25 628.183 154.25C630.944 154.25 633.183 156.489 633.183 159.25Z" stroke="#64B4FA" stroke-width="2"/>
<g clip-path="url(#clip1_2322_16777)">
<path d="M643.451 164.25V154.068H644.684V163.156H649.417V164.25H643.451ZM653.414 164.429C652.93 164.429 652.491 164.338 652.096 164.156C651.702 163.97 651.389 163.703 651.157 163.355C650.925 163.004 650.809 162.58 650.809 162.083C650.809 161.645 650.895 161.29 651.067 161.019C651.24 160.743 651.47 160.528 651.758 160.372C652.047 160.217 652.365 160.101 652.713 160.024C653.064 159.945 653.417 159.882 653.772 159.835C654.236 159.776 654.612 159.731 654.9 159.701C655.192 159.668 655.404 159.613 655.537 159.537C655.673 159.461 655.741 159.328 655.741 159.139V159.1C655.741 158.609 655.606 158.228 655.338 157.956C655.073 157.684 654.67 157.548 654.13 157.548C653.57 157.548 653.13 157.671 652.812 157.916C652.494 158.162 652.27 158.423 652.141 158.702L651.027 158.304C651.226 157.84 651.491 157.479 651.823 157.22C652.158 156.958 652.522 156.776 652.917 156.673C653.314 156.567 653.705 156.514 654.09 156.514C654.335 156.514 654.617 156.544 654.935 156.604C655.257 156.66 655.566 156.778 655.865 156.957C656.166 157.136 656.417 157.406 656.616 157.767C656.814 158.128 656.914 158.612 656.914 159.219V164.25H655.741V163.216H655.681C655.601 163.382 655.469 163.559 655.283 163.748C655.098 163.937 654.851 164.098 654.542 164.23C654.234 164.363 653.858 164.429 653.414 164.429ZM653.593 163.375C654.057 163.375 654.448 163.284 654.766 163.102C655.088 162.919 655.33 162.684 655.492 162.396C655.658 162.107 655.741 161.804 655.741 161.486V160.412C655.691 160.472 655.581 160.526 655.412 160.576C655.247 160.623 655.054 160.664 654.836 160.7C654.62 160.734 654.41 160.763 654.204 160.79C654.002 160.813 653.838 160.833 653.712 160.85C653.407 160.889 653.122 160.954 652.857 161.043C652.595 161.13 652.383 161.261 652.221 161.436C652.062 161.609 651.982 161.844 651.982 162.142C651.982 162.55 652.133 162.858 652.434 163.067C652.739 163.272 653.125 163.375 653.593 163.375ZM659.214 164.25V154.068H660.388V157.827H660.487C660.573 157.694 660.693 157.525 660.845 157.32C661.001 157.111 661.223 156.925 661.511 156.763C661.803 156.597 662.197 156.514 662.695 156.514C663.338 156.514 663.904 156.675 664.395 156.997C664.885 157.318 665.268 157.774 665.543 158.364C665.818 158.954 665.956 159.65 665.956 160.452C665.956 161.261 665.818 161.962 665.543 162.555C665.268 163.145 664.887 163.602 664.4 163.927C663.913 164.248 663.351 164.409 662.714 164.409C662.224 164.409 661.831 164.328 661.536 164.166C661.241 164 661.014 163.813 660.855 163.604C660.696 163.392 660.573 163.216 660.487 163.077H660.348V164.25H659.214ZM660.368 160.432C660.368 161.009 660.452 161.517 660.621 161.958C660.79 162.396 661.037 162.739 661.362 162.987C661.687 163.233 662.085 163.355 662.555 163.355C663.046 163.355 663.455 163.226 663.783 162.967C664.115 162.706 664.363 162.354 664.529 161.913C664.698 161.469 664.783 160.976 664.783 160.432C664.783 159.895 664.7 159.411 664.534 158.98C664.372 158.546 664.125 158.203 663.793 157.951C663.465 157.696 663.052 157.568 662.555 157.568C662.078 157.568 661.677 157.689 661.352 157.931C661.027 158.17 660.782 158.505 660.616 158.935C660.451 159.363 660.368 159.862 660.368 160.432ZM670.952 164.409C670.217 164.409 669.582 164.247 669.048 163.922C668.518 163.594 668.109 163.136 667.82 162.55C667.535 161.96 667.393 161.274 667.393 160.492C667.393 159.709 667.535 159.02 667.82 158.423C668.109 157.824 668.51 157.356 669.023 157.021C669.54 156.683 670.144 156.514 670.833 156.514C671.231 156.514 671.623 156.581 672.011 156.713C672.399 156.846 672.752 157.061 673.07 157.359C673.388 157.654 673.642 158.046 673.831 158.533C674.02 159.02 674.114 159.62 674.114 160.333V160.83H668.228V159.815H672.921C672.921 159.385 672.835 159 672.663 158.662C672.494 158.324 672.252 158.057 671.937 157.862C671.625 157.666 671.257 157.568 670.833 157.568C670.366 157.568 669.961 157.684 669.62 157.916C669.282 158.145 669.022 158.443 668.839 158.811C668.657 159.179 668.566 159.574 668.566 159.994V160.671C668.566 161.247 668.665 161.736 668.864 162.137C669.066 162.535 669.347 162.838 669.704 163.047C670.062 163.252 670.478 163.355 670.952 163.355C671.261 163.355 671.539 163.312 671.788 163.226C672.039 163.136 672.257 163.004 672.439 162.828C672.621 162.649 672.762 162.427 672.861 162.162L673.995 162.48C673.876 162.865 673.675 163.203 673.393 163.494C673.112 163.783 672.764 164.008 672.349 164.171C671.935 164.33 671.469 164.409 670.952 164.409ZM677.072 154.068V164.25H675.899V154.068H677.072Z" fill="white" fill-opacity="0.7"/>
</g>
<rect x="686.183" y="158.25" width="24" height="2" fill="#8F8F8F"/>
<path d="M729.183 159.25C729.183 162.012 726.944 164.25 724.183 164.25C721.421 164.25 719.183 162.012 719.183 159.25C719.183 156.489 721.421 154.25 724.183 154.25C726.944 154.25 729.183 156.489 729.183 159.25Z" stroke="#64B4FA" stroke-width="2"/>
<g clip-path="url(#clip2_2322_16777)">
<path d="M739.451 164.25V154.068H740.684V163.156H745.417V164.25H739.451ZM749.414 164.429C748.93 164.429 748.491 164.338 748.096 164.156C747.702 163.97 747.389 163.703 747.157 163.355C746.925 163.004 746.809 162.58 746.809 162.083C746.809 161.645 746.895 161.29 747.067 161.019C747.24 160.743 747.47 160.528 747.758 160.372C748.047 160.217 748.365 160.101 748.713 160.024C749.064 159.945 749.417 159.882 749.772 159.835C750.236 159.776 750.612 159.731 750.9 159.701C751.192 159.668 751.404 159.613 751.537 159.537C751.673 159.461 751.741 159.328 751.741 159.139V159.1C751.741 158.609 751.606 158.228 751.338 157.956C751.073 157.684 750.67 157.548 750.13 157.548C749.57 157.548 749.13 157.671 748.812 157.916C748.494 158.162 748.27 158.423 748.141 158.702L747.027 158.304C747.226 157.84 747.491 157.479 747.823 157.22C748.158 156.958 748.522 156.776 748.917 156.673C749.314 156.567 749.705 156.514 750.09 156.514C750.335 156.514 750.617 156.544 750.935 156.604C751.257 156.66 751.566 156.778 751.865 156.957C752.166 157.136 752.417 157.406 752.616 157.767C752.814 158.128 752.914 158.612 752.914 159.219V164.25H751.741V163.216H751.681C751.601 163.382 751.469 163.559 751.283 163.748C751.098 163.937 750.851 164.098 750.542 164.23C750.234 164.363 749.858 164.429 749.414 164.429ZM749.593 163.375C750.057 163.375 750.448 163.284 750.766 163.102C751.088 162.919 751.33 162.684 751.492 162.396C751.658 162.107 751.741 161.804 751.741 161.486V160.412C751.691 160.472 751.581 160.526 751.412 160.576C751.247 160.623 751.054 160.664 750.836 160.7C750.62 160.734 750.41 160.763 750.204 160.79C750.002 160.813 749.838 160.833 749.712 160.85C749.407 160.889 749.122 160.954 748.857 161.043C748.595 161.13 748.383 161.261 748.221 161.436C748.062 161.609 747.982 161.844 747.982 162.142C747.982 162.55 748.133 162.858 748.434 163.067C748.739 163.272 749.125 163.375 749.593 163.375ZM755.214 164.25V154.068H756.388V157.827H756.487C756.573 157.694 756.693 157.525 756.845 157.32C757.001 157.111 757.223 156.925 757.511 156.763C757.803 156.597 758.197 156.514 758.695 156.514C759.338 156.514 759.904 156.675 760.395 156.997C760.885 157.318 761.268 157.774 761.543 158.364C761.818 158.954 761.956 159.65 761.956 160.452C761.956 161.261 761.818 161.962 761.543 162.555C761.268 163.145 760.887 163.602 760.4 163.927C759.913 164.248 759.351 164.409 758.714 164.409C758.224 164.409 757.831 164.328 757.536 164.166C757.241 164 757.014 163.813 756.855 163.604C756.696 163.392 756.573 163.216 756.487 163.077H756.348V164.25H755.214ZM756.368 160.432C756.368 161.009 756.452 161.517 756.621 161.958C756.79 162.396 757.037 162.739 757.362 162.987C757.687 163.233 758.085 163.355 758.555 163.355C759.046 163.355 759.455 163.226 759.783 162.967C760.115 162.706 760.363 162.354 760.529 161.913C760.698 161.469 760.783 160.976 760.783 160.432C760.783 159.895 760.7 159.411 760.534 158.98C760.372 158.546 760.125 158.203 759.793 157.951C759.465 157.696 759.052 157.568 758.555 157.568C758.078 157.568 757.677 157.689 757.352 157.931C757.027 158.17 756.782 158.505 756.616 158.935C756.451 159.363 756.368 159.862 756.368 160.432ZM766.952 164.409C766.217 164.409 765.582 164.247 765.048 163.922C764.518 163.594 764.109 163.136 763.82 162.55C763.535 161.96 763.393 161.274 763.393 160.492C763.393 159.709 763.535 159.02 763.82 158.423C764.109 157.824 764.51 157.356 765.023 157.021C765.54 156.683 766.144 156.514 766.833 156.514C767.231 156.514 767.623 156.581 768.011 156.713C768.399 156.846 768.752 157.061 769.07 157.359C769.388 157.654 769.642 158.046 769.831 158.533C770.02 159.02 770.114 159.62 770.114 160.333V160.83H764.228V159.815H768.921C768.921 159.385 768.835 159 768.663 158.662C768.494 158.324 768.252 158.057 767.937 157.862C767.625 157.666 767.257 157.568 766.833 157.568C766.366 157.568 765.961 157.684 765.62 157.916C765.282 158.145 765.022 158.443 764.839 158.811C764.657 159.179 764.566 159.574 764.566 159.994V160.671C764.566 161.247 764.665 161.736 764.864 162.137C765.066 162.535 765.347 162.838 765.704 163.047C766.062 163.252 766.478 163.355 766.952 163.355C767.261 163.355 767.539 163.312 767.788 163.226C768.039 163.136 768.257 163.004 768.439 162.828C768.621 162.649 768.762 162.427 768.861 162.162L769.995 162.48C769.876 162.865 769.675 163.203 769.393 163.494C769.112 163.783 768.764 164.008 768.349 164.171C767.935 164.33 767.469 164.409 766.952 164.409ZM773.072 154.068V164.25H771.899V154.068H773.072Z" fill="white" fill-opacity="0.7"/>
</g>
<g clip-path="url(#clip3_2322_16777)">
<line x1="526.598" y1="149.5" x2="526.598" y2="134.5" stroke="#C7A5FA"/>
<line x1="526.098" y1="142" x2="538.098" y2="142" stroke="#C7A5FA"/>
<line x1="537.598" y1="149.5" x2="537.598" y2="134.5" stroke="#C7A5FA"/>
</g>
<path d="M529.242 127.5H527.594V119.57L525.045 120.507V119.064L529.139 117.547H529.242V127.5ZM539.424 127.5H532.745V126.365L535.986 122.838C536.255 122.542 536.48 122.277 536.662 122.045C536.845 121.808 536.993 121.591 537.107 121.396C537.216 121.2 537.294 121.017 537.339 120.849C537.389 120.675 537.414 120.502 537.414 120.329C537.414 120.097 537.38 119.885 537.312 119.693C537.243 119.502 537.143 119.338 537.011 119.201C536.879 119.064 536.719 118.957 536.533 118.88C536.35 118.802 536.145 118.764 535.917 118.764C535.626 118.764 535.373 118.805 535.159 118.887C534.944 118.969 534.767 119.085 534.625 119.235C534.479 119.395 534.37 119.589 534.297 119.816C534.224 120.04 534.188 120.295 534.188 120.582H532.547C532.547 120.149 532.627 119.741 532.786 119.358C532.946 118.971 533.174 118.634 533.47 118.347C533.762 118.06 534.117 117.832 534.536 117.663C534.96 117.494 535.432 117.41 535.951 117.41C536.439 117.41 536.874 117.481 537.257 117.622C537.645 117.763 537.97 117.959 538.235 118.21C538.494 118.461 538.693 118.761 538.829 119.112C538.966 119.459 539.034 119.841 539.034 120.261C539.034 120.575 538.982 120.881 538.877 121.177C538.777 121.468 538.638 121.758 538.46 122.045C538.278 122.332 538.062 122.621 537.811 122.913C537.565 123.205 537.296 123.506 537.004 123.815L534.789 126.181H539.424V127.5Z" fill="#C7A5FA"/>
<g clip-path="url(#clip4_2322_16777)">
<rect x="526.598" y="154" width="11" height="11" stroke="#C7A5FA" stroke-opacity="0.5" stroke-dasharray="4 4"/>
</g>
<g clip-path="url(#clip5_2322_16777)">
<line x1="541.226" y1="186.5" x2="541.226" y2="171.5" stroke="#C7A5FA"/>
<line x1="540.726" y1="179" x2="700.726" y2="179" stroke="#C7A5FA"/>
<line x1="700.226" y1="186.5" x2="700.226" y2="171.5" stroke="#C7A5FA"/>
</g>
<path d="M555.858 204.875H554.211V196.945L551.661 197.882V196.439L555.756 194.922H555.858V204.875ZM564.584 194.874V196.262H564.475C563.933 196.262 563.461 196.337 563.06 196.487C562.664 196.633 562.329 196.838 562.055 197.103C561.777 197.367 561.561 197.684 561.406 198.053C561.255 198.422 561.162 198.818 561.126 199.242C561.235 199.119 561.362 199.001 561.508 198.887C561.654 198.768 561.816 198.663 561.994 198.572C562.162 198.486 562.349 198.417 562.554 198.367C562.759 198.312 562.976 198.285 563.204 198.285C563.687 198.285 564.106 198.376 564.461 198.559C564.821 198.741 565.118 198.987 565.35 199.297C565.587 199.607 565.76 199.962 565.87 200.363C565.984 200.764 566.041 201.181 566.041 201.614C566.041 202.088 565.968 202.533 565.822 202.947C565.681 203.357 565.473 203.715 565.2 204.021C564.922 204.33 564.582 204.574 564.181 204.752C563.785 204.925 563.331 205.012 562.821 205.012C562.297 205.012 561.83 204.911 561.419 204.711C561.009 204.51 560.663 204.239 560.38 203.897C560.08 203.542 559.852 203.125 559.697 202.646C559.542 202.163 559.464 201.655 559.464 201.122V200.445C559.464 199.643 559.567 198.88 559.772 198.155C559.982 197.426 560.328 196.799 560.811 196.275C561.221 195.824 561.727 195.478 562.329 195.236C562.93 194.995 563.618 194.874 564.393 194.874H564.584ZM562.8 199.611C562.604 199.611 562.418 199.641 562.24 199.7C562.062 199.759 561.898 199.841 561.748 199.946C561.611 200.051 561.488 200.172 561.378 200.309C561.269 200.445 561.178 200.598 561.105 200.767V201.272C561.105 201.669 561.148 202.018 561.235 202.318C561.326 202.619 561.449 202.87 561.604 203.07C561.759 203.271 561.939 203.424 562.144 203.528C562.349 203.633 562.568 203.686 562.8 203.686C563.056 203.686 563.283 203.635 563.484 203.535C563.684 203.43 563.855 203.289 563.997 203.111C564.138 202.929 564.245 202.715 564.318 202.469C564.391 202.218 564.427 201.947 564.427 201.655C564.427 201.377 564.391 201.115 564.318 200.869C564.25 200.618 564.147 200.4 564.01 200.213C563.874 200.026 563.703 199.88 563.498 199.775C563.297 199.666 563.065 199.611 562.8 199.611ZM574.357 201.081C574.357 201.719 574.281 202.284 574.131 202.776C573.985 203.264 573.773 203.672 573.495 204C573.222 204.337 572.885 204.592 572.484 204.766C572.087 204.934 571.636 205.019 571.13 205.019C570.629 205.019 570.178 204.934 569.777 204.766C569.375 204.592 569.036 204.337 568.758 204C568.475 203.672 568.259 203.264 568.109 202.776C567.963 202.284 567.89 201.719 567.89 201.081V198.723C567.89 198.085 567.963 197.522 568.109 197.034C568.259 196.542 568.473 196.127 568.751 195.79C569.029 195.457 569.366 195.207 569.763 195.038C570.164 194.865 570.615 194.778 571.116 194.778C571.622 194.778 572.073 194.865 572.47 195.038C572.871 195.207 573.213 195.457 573.495 195.79C573.769 196.127 573.981 196.542 574.131 197.034C574.281 197.522 574.357 198.085 574.357 198.723V201.081ZM569.53 200.5L572.695 198.101C572.677 197.745 572.627 197.438 572.545 197.178C572.468 196.918 572.356 196.706 572.21 196.542C572.083 196.396 571.925 196.287 571.738 196.214C571.556 196.141 571.349 196.104 571.116 196.104C570.866 196.104 570.645 196.148 570.453 196.234C570.262 196.321 570.102 196.449 569.975 196.617C569.824 196.809 569.713 197.057 569.64 197.362C569.567 197.663 569.53 198.019 569.53 198.429V199.769C569.53 199.942 569.53 200.074 569.53 200.165C569.53 200.256 569.53 200.368 569.53 200.5ZM572.709 201.354V200.097C572.709 199.983 572.709 199.864 572.709 199.741C572.709 199.618 572.709 199.491 572.709 199.358L569.544 201.744C569.567 202.059 569.615 202.337 569.688 202.578C569.765 202.82 569.868 203.02 569.995 203.18C570.123 203.353 570.28 203.483 570.467 203.569C570.658 203.656 570.879 203.699 571.13 203.699C571.376 203.699 571.593 203.658 571.779 203.576C571.966 203.49 572.126 203.364 572.258 203.2C572.408 203.009 572.52 202.758 572.593 202.448C572.67 202.138 572.709 201.774 572.709 201.354ZM576.254 207.719V197.479H577.758L577.819 198.237C577.919 198.114 578.029 198.003 578.147 197.902C578.266 197.802 578.393 197.715 578.53 197.643C578.708 197.547 578.904 197.474 579.118 197.424C579.332 197.369 579.56 197.342 579.802 197.342C580.276 197.342 580.693 197.433 581.053 197.615C581.417 197.798 581.722 198.055 581.969 198.388C582.21 198.72 582.395 199.119 582.522 199.584C582.65 200.044 582.714 200.552 582.714 201.108V201.252C582.714 201.785 582.65 202.282 582.522 202.742C582.399 203.202 582.215 203.599 581.969 203.932C581.722 204.269 581.419 204.533 581.059 204.725C580.699 204.916 580.287 205.012 579.822 205.012C579.558 205.012 579.314 204.984 579.091 204.93C578.872 204.875 578.669 204.795 578.482 204.69C578.373 204.627 578.268 204.554 578.168 204.472C578.068 204.39 577.974 204.301 577.888 204.205V207.719H576.254ZM581.08 201.108C581.08 200.776 581.046 200.464 580.977 200.172C580.914 199.876 580.813 199.618 580.677 199.399C580.535 199.181 580.355 199.007 580.137 198.88C579.918 198.752 579.656 198.688 579.35 198.688C579.182 198.688 579.025 198.707 578.879 198.743C578.733 198.78 578.603 198.832 578.489 198.9C578.357 198.973 578.241 199.064 578.14 199.174C578.045 199.283 577.96 199.406 577.888 199.543V202.831C577.951 202.959 578.029 203.075 578.12 203.18C578.211 203.285 578.316 203.376 578.434 203.453C578.557 203.526 578.696 203.585 578.851 203.631C579.006 203.672 579.177 203.692 579.364 203.692C579.669 203.692 579.929 203.629 580.143 203.501C580.362 203.369 580.54 203.191 580.677 202.968C580.818 202.74 580.92 202.48 580.984 202.188C581.048 201.892 581.08 201.58 581.08 201.252V201.108ZM587.755 199.967L589.526 197.479H591.337L588.74 201.122L591.419 204.875H589.615L587.769 202.291L585.93 204.875H584.119L586.798 201.122L584.207 197.479H586.005L587.755 199.967ZM602.378 200.828C602.378 200.186 602.428 199.579 602.528 199.01C602.628 198.436 602.763 197.905 602.931 197.417C603.105 196.938 603.303 196.499 603.526 196.098C603.754 195.697 603.993 195.341 604.244 195.031C604.49 194.721 604.743 194.459 605.003 194.245C605.262 194.026 605.513 193.858 605.755 193.739L606.083 194.689C605.937 194.799 605.791 194.931 605.645 195.086C605.499 195.241 605.356 195.416 605.215 195.612C605.019 195.89 604.834 196.216 604.661 196.59C604.492 196.964 604.346 197.371 604.223 197.813C604.109 198.228 604.018 198.686 603.95 199.188C603.886 199.689 603.854 200.231 603.854 200.814V200.958C603.854 201.528 603.886 202.059 603.95 202.551C604.014 203.038 604.089 203.453 604.176 203.795C604.285 204.205 604.41 204.586 604.551 204.937C604.697 205.287 604.85 205.597 605.009 205.866C605.178 206.14 605.354 206.381 605.536 206.591C605.718 206.8 605.9 206.976 606.083 207.117L605.755 208.033C605.513 207.915 605.262 207.746 605.003 207.527C604.743 207.313 604.488 207.051 604.237 206.741C603.986 206.431 603.747 206.076 603.519 205.675C603.296 205.278 603.1 204.836 602.931 204.349C602.763 203.866 602.628 203.341 602.528 202.776C602.428 202.207 602.378 201.596 602.378 200.944V200.828ZM611.22 194.922L612.451 199.181L613.811 194.922H615.855V204.875H614.31V201.498L614.406 197.055L612.874 201.806H612.02L610.632 197.219L610.721 201.498V204.875H609.183V194.922H611.22ZM622.305 204.875C622.255 204.784 622.214 204.674 622.182 204.547C622.154 204.415 622.129 204.278 622.106 204.137C621.993 204.255 621.863 204.369 621.717 204.479C621.576 204.583 621.416 204.674 621.238 204.752C621.061 204.834 620.869 204.898 620.664 204.943C620.459 204.989 620.238 205.012 620.001 205.012C619.618 205.012 619.267 204.957 618.948 204.848C618.634 204.734 618.365 204.579 618.142 204.383C617.914 204.191 617.736 203.961 617.608 203.692C617.485 203.419 617.424 203.125 617.424 202.811C617.424 202.405 617.504 202.047 617.663 201.737C617.827 201.423 618.064 201.163 618.374 200.958C618.661 200.767 619.014 200.621 619.434 200.521C619.857 200.42 620.336 200.37 620.869 200.37H622.059V199.871C622.059 199.68 622.024 199.507 621.956 199.352C621.892 199.197 621.799 199.062 621.676 198.948C621.544 198.834 621.382 198.748 621.19 198.688C621.004 198.625 620.787 198.593 620.541 198.593C620.318 198.593 620.122 198.62 619.953 198.675C619.789 198.729 619.652 198.805 619.543 198.9C619.434 198.987 619.352 199.094 619.297 199.222C619.247 199.345 619.222 199.477 619.222 199.618H617.581C617.586 199.322 617.656 199.037 617.793 198.764C617.93 198.49 618.13 198.249 618.395 198.039C618.65 197.825 618.964 197.656 619.338 197.533C619.716 197.406 620.147 197.342 620.63 197.342C621.063 197.342 621.466 197.396 621.84 197.506C622.218 197.611 622.544 197.768 622.817 197.978C623.091 198.187 623.305 198.454 623.46 198.777C623.615 199.096 623.692 199.465 623.692 199.885V203.173C623.692 203.506 623.715 203.806 623.761 204.075C623.811 204.34 623.882 204.567 623.973 204.759V204.875H622.305ZM620.315 203.699C620.53 203.699 620.728 203.672 620.91 203.617C621.097 203.562 621.266 203.492 621.416 203.405C621.566 203.319 621.696 203.221 621.806 203.111C621.915 203.002 621.999 202.888 622.059 202.77V201.402H621.006C620.65 201.402 620.343 201.437 620.083 201.505C619.823 201.569 619.616 201.662 619.461 201.785C619.324 201.89 619.222 202.015 619.153 202.161C619.09 202.307 619.058 202.471 619.058 202.653C619.058 202.804 619.085 202.945 619.14 203.077C619.194 203.205 619.274 203.314 619.379 203.405C619.484 203.496 619.614 203.569 619.769 203.624C619.924 203.674 620.106 203.699 620.315 203.699ZM629.096 199.967L630.867 197.479H632.678L630.081 201.122L632.76 204.875H630.956L629.11 202.291L627.271 204.875H625.46L628.139 201.122L625.548 197.479H627.346L629.096 199.967ZM642.939 204.875L641.641 194.922H643.165L643.849 201.033L643.896 201.423L643.965 201.013L644.922 194.922H646.18L647.171 201.04L647.239 201.45L647.287 201.033L647.977 194.922H649.509L648.196 204.875H646.644L645.633 198.784L645.564 198.312L645.489 198.784L644.491 204.875H642.939ZM651.03 197.479H654.954V203.521H657.128V204.875H651.03V203.521H653.306V198.839H651.03V197.479ZM653.156 195.564C653.156 195.432 653.179 195.312 653.224 195.202C653.27 195.088 653.336 194.99 653.422 194.908C653.504 194.831 653.602 194.771 653.716 194.73C653.835 194.685 653.967 194.662 654.113 194.662C654.359 194.662 654.557 194.726 654.708 194.854C654.863 194.977 654.951 195.136 654.974 195.332C655.006 195.533 654.972 195.708 654.872 195.858C654.771 196.004 654.626 196.102 654.434 196.152C654.338 196.239 654.225 196.296 654.092 196.323C653.96 196.351 653.814 196.339 653.655 196.289C653.491 196.239 653.365 196.15 653.279 196.022C653.197 195.89 653.156 195.738 653.156 195.564ZM658.703 201.122C658.703 200.562 658.769 200.051 658.902 199.591C659.038 199.126 659.234 198.727 659.489 198.395C659.74 198.062 660.045 197.804 660.405 197.622C660.77 197.435 661.18 197.342 661.636 197.342C662.046 197.342 662.404 197.415 662.709 197.561C663.019 197.702 663.293 197.905 663.529 198.169V194.375H665.163V204.875H663.68L663.605 204.103C663.368 204.394 663.085 204.62 662.757 204.779C662.429 204.934 662.051 205.012 661.622 205.012C661.171 205.012 660.765 204.918 660.405 204.731C660.045 204.54 659.74 204.276 659.489 203.938C659.239 203.606 659.045 203.212 658.908 202.756C658.772 202.296 658.703 201.799 658.703 201.266V201.122ZM660.337 201.266C660.337 201.594 660.369 201.904 660.433 202.195C660.497 202.487 660.597 202.74 660.734 202.954C660.87 203.177 661.046 203.353 661.26 203.48C661.474 203.604 661.732 203.665 662.032 203.665C662.402 203.665 662.707 203.585 662.948 203.426C663.19 203.262 663.384 203.041 663.529 202.763V199.584C663.384 199.311 663.19 199.094 662.948 198.935C662.711 198.771 662.411 198.688 662.046 198.688C661.741 198.688 661.479 198.752 661.26 198.88C661.046 199.007 660.873 199.183 660.74 199.406C660.599 199.63 660.497 199.889 660.433 200.186C660.369 200.477 660.337 200.789 660.337 201.122V201.266ZM670.472 195.674V197.479H673.254V198.702H670.472V202.236C670.472 202.51 670.503 202.74 670.567 202.927C670.636 203.109 670.729 203.253 670.848 203.357C670.966 203.467 671.107 203.544 671.271 203.59C671.435 203.635 671.615 203.658 671.811 203.658C671.953 203.658 672.098 203.651 672.249 203.638C672.399 203.624 672.545 203.606 672.686 203.583C672.823 203.565 672.951 203.544 673.069 203.521C673.192 203.494 673.295 203.471 673.377 203.453L673.555 204.581C673.436 204.654 673.292 204.718 673.124 204.772C672.96 204.823 672.782 204.866 672.591 204.902C672.399 204.939 672.199 204.966 671.989 204.984C671.784 205.007 671.579 205.019 671.374 205.019C671 205.019 670.656 204.968 670.342 204.868C670.032 204.763 669.765 204.602 669.542 204.383C669.319 204.169 669.143 203.893 669.015 203.556C668.892 203.218 668.831 202.813 668.831 202.339V198.702H667.04V197.479H668.831V195.674H670.472ZM677.092 198.531C677.188 198.385 677.295 198.251 677.414 198.128C677.532 198.005 677.657 197.898 677.79 197.807C677.995 197.656 678.22 197.542 678.466 197.465C678.717 197.383 678.981 197.342 679.259 197.342C679.647 197.342 680 197.399 680.319 197.513C680.642 197.627 680.918 197.804 681.146 198.046C681.374 198.287 681.549 198.597 681.672 198.976C681.8 199.349 681.864 199.798 681.864 200.322V204.875H680.23V200.309C680.23 200.035 680.196 199.796 680.127 199.591C680.064 199.386 679.968 199.219 679.84 199.092C679.708 198.955 679.546 198.855 679.355 198.791C679.168 198.723 678.952 198.688 678.706 198.688C678.514 198.688 678.332 198.711 678.159 198.757C677.99 198.802 677.835 198.868 677.694 198.955C677.575 199.023 677.464 199.105 677.359 199.201C677.259 199.297 677.17 199.404 677.092 199.522V204.875H675.458V194.375H677.092V198.531ZM688.601 200.944C688.601 201.582 688.548 202.184 688.443 202.749C688.343 203.314 688.207 203.838 688.033 204.321C687.86 204.809 687.66 205.253 687.432 205.654C687.204 206.055 686.962 206.411 686.707 206.721C686.452 207.04 686.192 207.309 685.928 207.527C685.664 207.746 685.408 207.915 685.162 208.033L684.841 207.117C685.014 206.99 685.187 206.828 685.36 206.632C685.534 206.436 685.702 206.21 685.866 205.955C686.04 205.673 686.201 205.351 686.352 204.991C686.507 204.636 686.637 204.242 686.741 203.809C686.842 203.408 686.919 202.97 686.974 202.496C687.033 202.022 687.063 201.509 687.063 200.958V200.814C687.063 200.245 687.031 199.721 686.967 199.242C686.903 198.764 686.823 198.335 686.728 197.957C686.6 197.465 686.445 197.023 686.263 196.631C686.085 196.239 685.898 195.899 685.702 195.612C685.566 195.407 685.422 195.225 685.272 195.065C685.126 194.901 684.982 194.765 684.841 194.655L685.162 193.739C685.408 193.858 685.664 194.029 685.928 194.252C686.197 194.471 686.457 194.735 686.707 195.045C686.967 195.364 687.211 195.724 687.439 196.125C687.666 196.521 687.865 196.964 688.033 197.451C688.202 197.934 688.339 198.456 688.443 199.017C688.548 199.573 688.601 200.176 688.601 200.828V200.944Z" fill="#C7A5FA"/>
<rect x="541.115" y="149.75" width="159" height="18.7499" stroke="#643ABD"/>
<g opacity="0.5">
<g clip-path="url(#clip6_2322_16777)">
<rect width="7.78753" height="20" transform="translate(743.342 144)" fill="#30C9B0" fill-opacity="0.5"/>
<rect x="743.342" y="144" width="7.78753" height="20" fill="#30C9B0" fill-opacity="0.5"/>
</g>
</g>
<g clip-path="url(#clip7_2322_16777)">
<line x1="743.629" y1="140" x2="743.629" y2="125" stroke="#30C9B0"/>
<line x1="743.129" y1="132.5" x2="750.916" y2="132.5" stroke="#30C9B0"/>
<line x1="750.629" y1="140" x2="750.629" y2="125" stroke="#30C9B0"/>
</g>
<path d="M750.558 110.672C750.558 110.973 750.508 111.253 750.408 111.513C750.312 111.772 750.175 112.005 749.998 112.21C749.888 112.342 749.763 112.465 749.622 112.579C749.48 112.693 749.323 112.793 749.15 112.88C749.355 112.976 749.544 113.087 749.717 113.215C749.895 113.338 750.05 113.481 750.182 113.646C750.369 113.864 750.515 114.113 750.62 114.391C750.725 114.669 750.777 114.969 750.777 115.293C750.777 115.753 750.693 116.161 750.524 116.517C750.355 116.872 750.125 117.168 749.834 117.405C749.537 117.647 749.191 117.829 748.795 117.952C748.403 118.075 747.979 118.137 747.523 118.137C747.058 118.137 746.625 118.075 746.224 117.952C745.828 117.829 745.484 117.647 745.192 117.405C744.896 117.168 744.663 116.874 744.495 116.523C744.331 116.168 744.249 115.758 744.249 115.293C744.249 115.02 744.285 114.76 744.358 114.514C744.436 114.268 744.545 114.04 744.686 113.83C744.827 113.63 744.996 113.45 745.192 113.29C745.393 113.126 745.616 112.987 745.862 112.873C745.652 112.768 745.461 112.641 745.288 112.49C745.119 112.34 744.976 112.174 744.857 111.991C744.734 111.804 744.638 111.599 744.57 111.376C744.502 111.153 744.467 110.918 744.467 110.672C744.467 110.23 744.543 109.838 744.693 109.496C744.848 109.154 745.06 108.865 745.329 108.628C745.593 108.391 745.91 108.213 746.279 108.095C746.653 107.972 747.061 107.91 747.503 107.91C747.94 107.91 748.343 107.972 748.713 108.095C749.086 108.213 749.412 108.391 749.69 108.628C749.959 108.86 750.171 109.15 750.326 109.496C750.481 109.838 750.558 110.23 750.558 110.672ZM749.143 115.204C749.143 114.958 749.102 114.735 749.02 114.534C748.943 114.329 748.833 114.151 748.692 114.001C748.546 113.86 748.373 113.75 748.172 113.673C747.972 113.595 747.751 113.557 747.509 113.557C747.259 113.557 747.033 113.595 746.833 113.673C746.637 113.75 746.468 113.86 746.327 114.001C746.186 114.151 746.076 114.329 745.999 114.534C745.926 114.735 745.889 114.96 745.889 115.211C745.889 115.466 745.928 115.696 746.005 115.901C746.083 116.102 746.195 116.271 746.34 116.407C746.482 116.539 746.65 116.642 746.846 116.715C747.047 116.783 747.272 116.817 747.523 116.817C747.76 116.817 747.977 116.781 748.172 116.708C748.373 116.635 748.546 116.53 748.692 116.394C748.829 116.252 748.938 116.084 749.02 115.888C749.102 115.687 749.143 115.459 749.143 115.204ZM748.931 110.733C748.931 110.51 748.895 110.307 748.822 110.125C748.754 109.943 748.658 109.783 748.535 109.646C748.407 109.519 748.257 109.419 748.084 109.346C747.91 109.273 747.714 109.236 747.496 109.236C747.282 109.236 747.088 109.273 746.915 109.346C746.746 109.414 746.6 109.512 746.477 109.64C746.359 109.767 746.268 109.924 746.204 110.111C746.14 110.298 746.108 110.506 746.108 110.733C746.108 110.957 746.14 111.162 746.204 111.349C746.268 111.531 746.363 111.686 746.491 111.813C746.614 111.946 746.762 112.048 746.935 112.121C747.108 112.194 747.302 112.23 747.516 112.23C747.73 112.23 747.924 112.194 748.097 112.121C748.27 112.048 748.419 111.946 748.542 111.813C748.665 111.686 748.76 111.531 748.829 111.349C748.897 111.162 748.931 110.957 748.931 110.733Z" fill="#30C9B0"/>
<g opacity="0.5">
<g clip-path="url(#clip8_2322_16777)">
<rect width="7.78753" height="20" transform="translate(723.342 144)" fill="#30C9B0" fill-opacity="0.5"/>
<rect x="723.342" y="144" width="7.78753" height="20" fill="#30C9B0" fill-opacity="0.5"/>
</g>
</g>
<g clip-path="url(#clip9_2322_16777)">
<line x1="723.629" y1="140" x2="723.629" y2="125" stroke="#30C9B0"/>
<line x1="723.129" y1="132.5" x2="730.916" y2="132.5" stroke="#30C9B0"/>
<line x1="730.629" y1="140" x2="730.629" y2="125" stroke="#30C9B0"/>
</g>
<path d="M730.558 110.672C730.558 110.973 730.508 111.253 730.408 111.513C730.312 111.772 730.175 112.005 729.998 112.21C729.888 112.342 729.763 112.465 729.622 112.579C729.48 112.693 729.323 112.793 729.15 112.88C729.355 112.976 729.544 113.087 729.717 113.215C729.895 113.338 730.05 113.481 730.182 113.646C730.369 113.864 730.515 114.113 730.62 114.391C730.725 114.669 730.777 114.969 730.777 115.293C730.777 115.753 730.693 116.161 730.524 116.517C730.355 116.872 730.125 117.168 729.834 117.405C729.537 117.647 729.191 117.829 728.795 117.952C728.403 118.075 727.979 118.137 727.523 118.137C727.058 118.137 726.625 118.075 726.224 117.952C725.828 117.829 725.484 117.647 725.192 117.405C724.896 117.168 724.663 116.874 724.495 116.523C724.331 116.168 724.249 115.758 724.249 115.293C724.249 115.02 724.285 114.76 724.358 114.514C724.436 114.268 724.545 114.04 724.686 113.83C724.827 113.63 724.996 113.45 725.192 113.29C725.393 113.126 725.616 112.987 725.862 112.873C725.652 112.768 725.461 112.641 725.288 112.49C725.119 112.34 724.976 112.174 724.857 111.991C724.734 111.804 724.638 111.599 724.57 111.376C724.502 111.153 724.467 110.918 724.467 110.672C724.467 110.23 724.543 109.838 724.693 109.496C724.848 109.154 725.06 108.865 725.329 108.628C725.593 108.391 725.91 108.213 726.279 108.095C726.653 107.972 727.061 107.91 727.503 107.91C727.94 107.91 728.343 107.972 728.713 108.095C729.086 108.213 729.412 108.391 729.69 108.628C729.959 108.86 730.171 109.15 730.326 109.496C730.481 109.838 730.558 110.23 730.558 110.672ZM729.143 115.204C729.143 114.958 729.102 114.735 729.02 114.534C728.943 114.329 728.833 114.151 728.692 114.001C728.546 113.86 728.373 113.75 728.172 113.673C727.972 113.595 727.751 113.557 727.509 113.557C727.259 113.557 727.033 113.595 726.833 113.673C726.637 113.75 726.468 113.86 726.327 114.001C726.186 114.151 726.076 114.329 725.999 114.534C725.926 114.735 725.889 114.96 725.889 115.211C725.889 115.466 725.928 115.696 726.005 115.901C726.083 116.102 726.195 116.271 726.34 116.407C726.482 116.539 726.65 116.642 726.846 116.715C727.047 116.783 727.272 116.817 727.523 116.817C727.76 116.817 727.977 116.781 728.172 116.708C728.373 116.635 728.546 116.53 728.692 116.394C728.829 116.252 728.938 116.084 729.02 115.888C729.102 115.687 729.143 115.459 729.143 115.204ZM728.931 110.733C728.931 110.51 728.895 110.307 728.822 110.125C728.754 109.943 728.658 109.783 728.535 109.646C728.407 109.519 728.257 109.419 728.084 109.346C727.91 109.273 727.714 109.236 727.496 109.236C727.282 109.236 727.088 109.273 726.915 109.346C726.746 109.414 726.6 109.512 726.477 109.64C726.359 109.767 726.268 109.924 726.204 110.111C726.14 110.298 726.108 110.506 726.108 110.733C726.108 110.957 726.14 111.162 726.204 111.349C726.268 111.531 726.363 111.686 726.491 111.813C726.614 111.946 726.762 112.048 726.935 112.121C727.108 112.194 727.302 112.23 727.516 112.23C727.73 112.23 727.924 112.194 728.097 112.121C728.27 112.048 728.419 111.946 728.542 111.813C728.665 111.686 728.76 111.531 728.829 111.349C728.897 111.162 728.931 110.957 728.931 110.733Z" fill="#30C9B0"/>
<defs>
<clipPath id="clip0_2322_16777">
<rect width="36" height="20" fill="white" transform="translate(546.183 149.25)"/>
</clipPath>
<clipPath id="clip1_2322_16777">
<rect width="36" height="20" fill="white" transform="translate(642.183 149.25)"/>
</clipPath>
<clipPath id="clip2_2322_16777">
<rect width="36" height="20" fill="white" transform="translate(738.183 149.25)"/>
</clipPath>
<clipPath id="clip3_2322_16777">
<rect width="12" height="15" fill="white" transform="translate(526.098 134.5)"/>
</clipPath>
<clipPath id="clip4_2322_16777">
<rect width="12" height="12" fill="white" transform="translate(526.098 153.5)"/>
</clipPath>
<clipPath id="clip5_2322_16777">
<rect width="160" height="15" fill="white" transform="translate(540.726 171.5)"/>
</clipPath>
<clipPath id="clip6_2322_16777">
<rect width="7.78753" height="20" fill="white" transform="translate(743.342 144)"/>
</clipPath>
<clipPath id="clip7_2322_16777">
<rect width="7.78753" height="15" fill="white" transform="translate(743.129 125)"/>
</clipPath>
<clipPath id="clip8_2322_16777">
<rect width="7.78753" height="20" fill="white" transform="translate(723.342 144)"/>
</clipPath>
<clipPath id="clip9_2322_16777">
<rect width="7.78753" height="15" fill="white" transform="translate(723.129 125)"/>
</clipPath>
</defs>
</svg>
