<svg width="630" height="197" viewBox="0 0 630 197" fill="none" xmlns="http://www.w3.org/2000/svg">
<path d="M0 24C0 10.7452 10.7452 0 24 0H606C619.255 0 630 10.7452 630 24V173C630 186.255 619.255 197 606 197H24C10.7452 197 0 186.255 0 173V24Z" fill="#262626"/>
<path d="M590 25.9997C587.231 25.9997 584.524 26.8208 582.222 28.3591C579.92 29.8975 578.125 32.084 577.066 34.6421C576.006 37.2003 575.729 40.0152 576.269 42.731C576.809 45.4467 578.143 47.9413 580.101 49.8992C582.058 51.8571 584.553 53.1905 587.269 53.7307C589.984 54.2709 592.799 53.9936 595.358 52.934C597.916 51.8744 600.102 50.08 601.641 47.7777C603.179 45.4754 604 42.7686 604 39.9997C603.996 36.2879 602.52 32.7294 599.895 30.1048C597.27 27.4802 593.712 26.0039 590 25.9997ZM599.155 47.7404L582.259 30.8449C584.554 28.8985 587.497 27.8864 590.504 28.0097C593.511 28.1331 596.361 29.3828 598.489 31.5106C600.617 33.6385 601.867 36.4889 601.99 39.4956C602.113 42.5023 601.101 45.4454 599.155 47.7404ZM580.845 32.259L597.741 49.1545C595.446 51.1009 592.503 52.1129 589.496 51.9896C586.489 51.8662 583.639 50.6165 581.511 48.4887C579.383 46.3608 578.134 43.5105 578.01 40.5038C577.887 37.4971 578.899 34.554 580.845 32.259Z" fill="#FC8B98"/>
<g clip-path="url(#clip0_2395_6696)">
<g clip-path="url(#clip1_2395_6696)">
<rect x="85.5" y="80" width="93" height="32" rx="16" fill="white" fill-opacity="0.2"/>
<path d="M99.0551 90.8182H100.919L104.161 98.733H104.28L107.522 90.8182H109.386V101H107.924V93.6321H107.83L104.827 100.985H103.614L100.611 93.6271H100.517V101H99.0551V90.8182ZM114.791 101.154C114.039 101.154 113.391 100.993 112.848 100.672C112.307 100.347 111.89 99.8913 111.595 99.3047C111.303 98.7147 111.157 98.0237 111.157 97.2315C111.157 96.4493 111.303 95.7599 111.595 95.1634C111.89 94.5668 112.301 94.1011 112.828 93.7663C113.358 93.4316 113.978 93.2642 114.687 93.2642C115.118 93.2642 115.536 93.3355 115.94 93.478C116.344 93.6205 116.707 93.8442 117.029 94.1491C117.35 94.4541 117.604 94.8501 117.789 95.3374C117.975 95.8213 118.068 96.4096 118.068 97.1023V97.6293H111.997V96.5156H116.611C116.611 96.1245 116.532 95.7782 116.372 95.4766C116.213 95.1716 115.99 94.9313 115.701 94.7557C115.416 94.58 115.081 94.4922 114.697 94.4922C114.279 94.4922 113.915 94.5949 113.603 94.8004C113.295 95.0026 113.056 95.2678 112.887 95.5959C112.722 95.9207 112.639 96.2737 112.639 96.6548V97.5249C112.639 98.0353 112.728 98.4695 112.907 98.8274C113.09 99.1854 113.343 99.4588 113.668 99.6477C113.993 99.8333 114.372 99.9261 114.806 99.9261C115.088 99.9261 115.345 99.8864 115.577 99.8068C115.809 99.724 116.009 99.6013 116.179 99.4389C116.348 99.2765 116.477 99.076 116.566 98.8374L117.973 99.0909C117.861 99.5052 117.658 99.8681 117.367 100.18C117.078 100.488 116.715 100.728 116.278 100.901C115.844 101.07 115.348 101.154 114.791 101.154ZM125.439 95.228L124.092 95.4666C124.036 95.2943 123.946 95.1302 123.824 94.9744C123.704 94.8187 123.542 94.6911 123.336 94.5916C123.131 94.4922 122.874 94.4425 122.566 94.4425C122.145 94.4425 121.794 94.5369 121.512 94.7259C121.23 94.9115 121.089 95.1518 121.089 95.4467C121.089 95.7019 121.184 95.9074 121.373 96.0632C121.562 96.219 121.866 96.3466 122.287 96.446L123.5 96.7244C124.203 96.8868 124.727 97.1371 125.071 97.4751C125.416 97.8132 125.589 98.2524 125.589 98.7926C125.589 99.25 125.456 99.6577 125.191 100.016C124.929 100.37 124.563 100.649 124.092 100.851C123.625 101.053 123.083 101.154 122.466 101.154C121.611 101.154 120.914 100.972 120.373 100.607C119.833 100.239 119.502 99.7173 119.379 99.0412L120.816 98.8224C120.905 99.197 121.089 99.4804 121.368 99.6726C121.646 99.8615 122.009 99.956 122.456 99.956C122.944 99.956 123.333 99.8549 123.625 99.6527C123.916 99.4472 124.062 99.197 124.062 98.902C124.062 98.6634 123.973 98.4628 123.794 98.3004C123.618 98.138 123.348 98.0154 122.983 97.9325L121.691 97.6491C120.978 97.4867 120.451 97.2282 120.11 96.8736C119.772 96.5189 119.603 96.0698 119.603 95.5263C119.603 95.0755 119.729 94.6811 119.981 94.343C120.232 94.005 120.58 93.7415 121.025 93.5526C121.469 93.3603 121.977 93.2642 122.551 93.2642C123.376 93.2642 124.026 93.4432 124.5 93.8011C124.974 94.1558 125.287 94.6314 125.439 95.228ZM132.945 95.228L131.598 95.4666C131.542 95.2943 131.452 95.1302 131.329 94.9744C131.21 94.8187 131.048 94.6911 130.842 94.5916C130.637 94.4922 130.38 94.4425 130.072 94.4425C129.651 94.4425 129.299 94.5369 129.018 94.7259C128.736 94.9115 128.595 95.1518 128.595 95.4467C128.595 95.7019 128.69 95.9074 128.878 96.0632C129.067 96.219 129.372 96.3466 129.793 96.446L131.006 96.7244C131.709 96.8868 132.233 97.1371 132.577 97.4751C132.922 97.8132 133.094 98.2524 133.094 98.7926C133.094 99.25 132.962 99.6577 132.697 100.016C132.435 100.37 132.069 100.649 131.598 100.851C131.131 101.053 130.589 101.154 129.972 101.154C129.117 101.154 128.419 100.972 127.879 100.607C127.339 100.239 127.007 99.7173 126.885 99.0412L128.322 98.8224C128.411 99.197 128.595 99.4804 128.873 99.6726C129.152 99.8615 129.515 99.956 129.962 99.956C130.449 99.956 130.839 99.8549 131.131 99.6527C131.422 99.4472 131.568 99.197 131.568 98.902C131.568 98.6634 131.479 98.4628 131.3 98.3004C131.124 98.138 130.854 98.0154 130.489 97.9325L129.197 97.6491C128.484 97.4867 127.957 97.2282 127.616 96.8736C127.278 96.5189 127.109 96.0698 127.109 95.5263C127.109 95.0755 127.235 94.6811 127.486 94.343C127.738 94.005 128.086 93.7415 128.53 93.5526C128.975 93.3603 129.483 93.2642 130.057 93.2642C130.882 93.2642 131.532 93.4432 132.006 93.8011C132.48 94.1558 132.793 94.6314 132.945 95.228ZM136.951 101.169C136.467 101.169 136.03 101.08 135.639 100.901C135.247 100.718 134.938 100.455 134.709 100.11C134.484 99.7654 134.371 99.3428 134.371 98.8423C134.371 98.4115 134.454 98.0568 134.619 97.7784C134.785 97.5 135.009 97.2796 135.291 97.1172C135.572 96.9548 135.887 96.8321 136.235 96.7493C136.583 96.6664 136.938 96.6035 137.299 96.5604C137.756 96.5073 138.128 96.4643 138.413 96.4311C138.698 96.3946 138.905 96.3366 139.034 96.2571C139.163 96.1776 139.228 96.0483 139.228 95.8693V95.8345C139.228 95.4003 139.105 95.0639 138.86 94.8253C138.618 94.5866 138.257 94.4673 137.776 94.4673C137.276 94.4673 136.881 94.5784 136.593 94.8004C136.308 95.0192 136.111 95.2628 136.002 95.5312L134.604 95.2131C134.77 94.7491 135.012 94.3745 135.33 94.0895C135.652 93.8011 136.021 93.5923 136.439 93.4631C136.857 93.3305 137.296 93.2642 137.756 93.2642C138.061 93.2642 138.385 93.3007 138.726 93.3736C139.071 93.4432 139.392 93.5724 139.69 93.7614C139.992 93.9503 140.239 94.2204 140.431 94.5717C140.623 94.9197 140.72 95.3722 140.72 95.929V101H139.268V99.956H139.208C139.112 100.148 138.968 100.337 138.776 100.523C138.583 100.708 138.336 100.862 138.035 100.985C137.733 101.108 137.372 101.169 136.951 101.169ZM137.274 99.9759C137.685 99.9759 138.037 99.8946 138.328 99.7322C138.623 99.5698 138.847 99.3577 138.999 99.0959C139.155 98.8307 139.233 98.5473 139.233 98.2457V97.2614C139.18 97.3144 139.077 97.3641 138.925 97.4105C138.776 97.4536 138.605 97.4917 138.413 97.5249C138.22 97.5547 138.033 97.5829 137.851 97.6094C137.669 97.6326 137.516 97.6525 137.394 97.669C137.105 97.7055 136.842 97.7668 136.603 97.853C136.368 97.9392 136.179 98.0634 136.036 98.2259C135.897 98.3849 135.828 98.5971 135.828 98.8622C135.828 99.2301 135.963 99.5085 136.235 99.6974C136.507 99.883 136.853 99.9759 137.274 99.9759ZM145.901 104.008C145.295 104.008 144.773 103.928 144.335 103.769C143.901 103.61 143.546 103.4 143.271 103.138C142.996 102.879 142.791 102.598 142.655 102.293L143.932 101.766C144.022 101.905 144.141 102.056 144.29 102.218C144.443 102.38 144.648 102.52 144.907 102.636C145.169 102.752 145.505 102.81 145.916 102.81C146.48 102.81 146.945 102.674 147.313 102.402C147.681 102.13 147.865 101.699 147.865 101.109V99.608H147.771C147.681 99.7704 147.552 99.951 147.383 100.15C147.217 100.349 146.988 100.521 146.697 100.667C146.405 100.813 146.025 100.886 145.558 100.886C144.955 100.886 144.411 100.745 143.927 100.463C143.447 100.178 143.066 99.7588 142.784 99.2053C142.506 98.6484 142.366 97.964 142.366 97.152C142.366 96.34 142.504 95.6439 142.779 95.0639C143.057 94.4839 143.439 94.0398 143.922 93.7315C144.406 93.42 144.955 93.2642 145.568 93.2642C146.042 93.2642 146.425 93.3438 146.717 93.5028C147.008 93.6586 147.235 93.8409 147.398 94.0497C147.563 94.2585 147.691 94.4425 147.78 94.6016H147.89V93.3636H149.347V101.169C149.347 101.819 149.194 102.352 148.889 102.77C148.584 103.191 148.172 103.502 147.651 103.705C147.134 103.907 146.551 104.008 145.901 104.008ZM145.886 99.6527C146.314 99.6527 146.675 99.5533 146.97 99.3544C147.268 99.1522 147.494 98.8639 147.646 98.4893C147.802 98.1115 147.88 97.6591 147.88 97.1321C147.88 96.6184 147.804 96.166 147.651 95.7749C147.499 95.3838 147.275 95.0788 146.98 94.8601C146.685 94.638 146.32 94.527 145.886 94.527C145.439 94.527 145.066 94.643 144.768 94.875C144.469 95.1037 144.244 95.4152 144.092 95.8097C143.942 96.2041 143.868 96.6449 143.868 97.1321C143.868 97.6326 143.944 98.0717 144.097 98.4496C144.249 98.8274 144.474 99.1224 144.773 99.3345C145.074 99.5466 145.445 99.6527 145.886 99.6527ZM154.631 101.154C153.879 101.154 153.231 100.993 152.687 100.672C152.147 100.347 151.73 99.8913 151.435 99.3047C151.143 98.7147 150.997 98.0237 150.997 97.2315C150.997 96.4493 151.143 95.7599 151.435 95.1634C151.73 94.5668 152.141 94.1011 152.668 93.7663C153.198 93.4316 153.818 93.2642 154.527 93.2642C154.958 93.2642 155.375 93.3355 155.78 93.478C156.184 93.6205 156.547 93.8442 156.869 94.1491C157.19 94.4541 157.444 94.8501 157.629 95.3374C157.815 95.8213 157.908 96.4096 157.908 97.1023V97.6293H151.837V96.5156H156.451C156.451 96.1245 156.371 95.7782 156.212 95.4766C156.053 95.1716 155.829 94.9313 155.541 94.7557C155.256 94.58 154.921 94.4922 154.537 94.4922C154.119 94.4922 153.755 94.5949 153.443 94.8004C153.135 95.0026 152.896 95.2678 152.727 95.5959C152.561 95.9207 152.479 96.2737 152.479 96.6548V97.5249C152.479 98.0353 152.568 98.4695 152.747 98.8274C152.929 99.1854 153.183 99.4588 153.508 99.6477C153.833 99.8333 154.212 99.9261 154.646 99.9261C154.928 99.9261 155.185 99.8864 155.417 99.8068C155.649 99.724 155.849 99.6013 156.018 99.4389C156.187 99.2765 156.317 99.076 156.406 98.8374L157.813 99.0909C157.7 99.5052 157.498 99.8681 157.207 100.18C156.918 100.488 156.555 100.728 156.118 100.901C155.684 101.07 155.188 101.154 154.631 101.154ZM165.279 95.228L163.932 95.4666C163.876 95.2943 163.786 95.1302 163.663 94.9744C163.544 94.8187 163.382 94.6911 163.176 94.5916C162.971 94.4922 162.714 94.4425 162.406 94.4425C161.985 94.4425 161.633 94.5369 161.352 94.7259C161.07 94.9115 160.929 95.1518 160.929 95.4467C160.929 95.7019 161.024 95.9074 161.212 96.0632C161.401 96.219 161.706 96.3466 162.127 96.446L163.34 96.7244C164.043 96.8868 164.567 97.1371 164.911 97.4751C165.256 97.8132 165.428 98.2524 165.428 98.7926C165.428 99.25 165.296 99.6577 165.031 100.016C164.769 100.37 164.403 100.649 163.932 100.851C163.465 101.053 162.923 101.154 162.306 101.154C161.451 101.154 160.753 100.972 160.213 100.607C159.673 100.239 159.341 99.7173 159.219 99.0412L160.656 98.8224C160.745 99.197 160.929 99.4804 161.207 99.6726C161.486 99.8615 161.849 99.956 162.296 99.956C162.783 99.956 163.173 99.8549 163.465 99.6527C163.756 99.4472 163.902 99.197 163.902 98.902C163.902 98.6634 163.813 98.4628 163.634 98.3004C163.458 98.138 163.188 98.0154 162.823 97.9325L161.531 97.6491C160.818 97.4867 160.291 97.2282 159.95 96.8736C159.612 96.5189 159.443 96.0698 159.443 95.5263C159.443 95.0755 159.569 94.6811 159.82 94.343C160.072 94.005 160.42 93.7415 160.864 93.5526C161.309 93.3603 161.817 93.2642 162.391 93.2642C163.216 93.2642 163.866 93.4432 164.34 93.8011C164.814 94.1558 165.127 94.6314 165.279 95.228Z" fill="white" fill-opacity="0.95"/>
<path d="M199.691 101V90.8182H203.32C204.112 90.8182 204.769 90.9624 205.289 91.2507C205.809 91.5391 206.199 91.9335 206.457 92.4339C206.716 92.9311 206.845 93.4912 206.845 94.1143C206.845 94.7408 206.714 95.3042 206.452 95.8047C206.194 96.3018 205.803 96.6963 205.279 96.9879C204.759 97.2763 204.104 97.4205 203.315 97.4205H200.819V96.1179H203.176C203.676 96.1179 204.082 96.0317 204.394 95.8594C204.706 95.6837 204.934 95.4451 205.08 95.1435C205.226 94.8419 205.299 94.4988 205.299 94.1143C205.299 93.7299 205.226 93.3885 205.08 93.0902C204.934 92.7919 204.704 92.5582 204.389 92.3892C204.077 92.2202 203.666 92.1357 203.156 92.1357H201.227V101H199.691ZM211.722 101.154C210.97 101.154 210.322 100.993 209.778 100.672C209.238 100.347 208.82 99.8913 208.525 99.3047C208.234 98.7147 208.088 98.0237 208.088 97.2315C208.088 96.4493 208.234 95.7599 208.525 95.1634C208.82 94.5668 209.231 94.1011 209.758 93.7663C210.289 93.4316 210.908 93.2642 211.618 93.2642C212.049 93.2642 212.466 93.3355 212.871 93.478C213.275 93.6205 213.638 93.8442 213.959 94.1491C214.281 94.4541 214.534 94.8501 214.72 95.3374C214.906 95.8213 214.998 96.4096 214.998 97.1023V97.6293H208.928V96.5156H213.542C213.542 96.1245 213.462 95.7782 213.303 95.4766C213.144 95.1716 212.92 94.9313 212.632 94.7557C212.347 94.58 212.012 94.4922 211.628 94.4922C211.21 94.4922 210.845 94.5949 210.534 94.8004C210.226 95.0026 209.987 95.2678 209.818 95.5959C209.652 95.9207 209.569 96.2737 209.569 96.6548V97.5249C209.569 98.0353 209.659 98.4695 209.838 98.8274C210.02 99.1854 210.274 99.4588 210.599 99.6477C210.923 99.8333 211.303 99.9261 211.737 99.9261C212.019 99.9261 212.276 99.8864 212.508 99.8068C212.74 99.724 212.94 99.6013 213.109 99.4389C213.278 99.2765 213.407 99.076 213.497 98.8374L214.904 99.0909C214.791 99.5052 214.589 99.8681 214.297 100.18C214.009 100.488 213.646 100.728 213.209 100.901C212.774 101.07 212.279 101.154 211.722 101.154ZM219.864 101.154C219.148 101.154 218.524 100.99 217.99 100.662C217.456 100.334 217.042 99.8748 216.747 99.2848C216.452 98.6948 216.305 98.0054 216.305 97.2166C216.305 96.4245 216.452 95.7318 216.747 95.1385C217.042 94.5452 217.456 94.0845 217.99 93.7564C218.524 93.4283 219.148 93.2642 219.864 93.2642C220.58 93.2642 221.205 93.4283 221.739 93.7564C222.272 94.0845 222.687 94.5452 222.982 95.1385C223.277 95.7318 223.424 96.4245 223.424 97.2166C223.424 98.0054 223.277 98.6948 222.982 99.2848C222.687 99.8748 222.272 100.334 221.739 100.662C221.205 100.99 220.58 101.154 219.864 101.154ZM219.869 99.9062C220.333 99.9062 220.718 99.7836 221.023 99.5384C221.328 99.2931 221.553 98.9666 221.699 98.5589C221.848 98.1513 221.923 97.7022 221.923 97.2116C221.923 96.7244 221.848 96.277 221.699 95.8693C221.553 95.4583 221.328 95.1286 221.023 94.88C220.718 94.6314 220.333 94.5071 219.869 94.5071C219.402 94.5071 219.014 94.6314 218.706 94.88C218.401 95.1286 218.174 95.4583 218.025 95.8693C217.879 96.277 217.806 96.7244 217.806 97.2116C217.806 97.7022 217.879 98.1513 218.025 98.5589C218.174 98.9666 218.401 99.2931 218.706 99.5384C219.014 99.7836 219.402 99.9062 219.869 99.9062ZM225.083 103.864V93.3636H226.535V94.6016H226.659C226.745 94.4425 226.87 94.2585 227.032 94.0497C227.195 93.8409 227.42 93.6586 227.708 93.5028C227.997 93.3438 228.378 93.2642 228.852 93.2642C229.468 93.2642 230.018 93.42 230.502 93.7315C230.986 94.0431 231.366 94.4922 231.641 95.0788C231.919 95.6655 232.058 96.3714 232.058 97.1967C232.058 98.022 231.921 98.7296 231.646 99.3196C231.371 99.9062 230.993 100.359 230.512 100.677C230.032 100.992 229.483 101.149 228.867 101.149C228.403 101.149 228.023 101.071 227.728 100.915C227.436 100.76 227.208 100.577 227.042 100.369C226.876 100.16 226.749 99.9742 226.659 99.8118H226.57V103.864H225.083ZM226.54 97.1818C226.54 97.7187 226.618 98.1894 226.774 98.5938C226.929 98.9981 227.155 99.3146 227.45 99.5433C227.745 99.7687 228.106 99.8814 228.534 99.8814C228.978 99.8814 229.349 99.7637 229.647 99.5284C229.945 99.2898 230.171 98.9666 230.323 98.5589C230.479 98.1513 230.557 97.6922 230.557 97.1818C230.557 96.678 230.481 96.2256 230.328 95.8246C230.179 95.4235 229.954 95.107 229.652 94.875C229.354 94.643 228.981 94.527 228.534 94.527C228.103 94.527 227.738 94.638 227.44 94.8601C227.145 95.0821 226.921 95.392 226.769 95.7898C226.616 96.1875 226.54 96.6515 226.54 97.1818ZM235.21 90.8182V101H233.724V90.8182H235.21ZM240.501 101.154C239.749 101.154 239.101 100.993 238.558 100.672C238.017 100.347 237.6 99.8913 237.305 99.3047C237.013 98.7147 236.867 98.0237 236.867 97.2315C236.867 96.4493 237.013 95.7599 237.305 95.1634C237.6 94.5668 238.011 94.1011 238.538 93.7663C239.068 93.4316 239.688 93.2642 240.397 93.2642C240.828 93.2642 241.246 93.3355 241.65 93.478C242.054 93.6205 242.417 93.8442 242.739 94.1491C243.06 94.4541 243.314 94.8501 243.499 95.3374C243.685 95.8213 243.778 96.4096 243.778 97.1023V97.6293H237.707V96.5156H242.321C242.321 96.1245 242.241 95.7782 242.082 95.4766C241.923 95.1716 241.7 94.9313 241.411 94.7557C241.126 94.58 240.791 94.4922 240.407 94.4922C239.989 94.4922 239.625 94.5949 239.313 94.8004C239.005 95.0026 238.766 95.2678 238.597 95.5959C238.432 95.9207 238.349 96.2737 238.349 96.6548V97.5249C238.349 98.0353 238.438 98.4695 238.617 98.8274C238.799 99.1854 239.053 99.4588 239.378 99.6477C239.703 99.8333 240.082 99.9261 240.516 99.9261C240.798 99.9261 241.055 99.8864 241.287 99.8068C241.519 99.724 241.719 99.6013 241.888 99.4389C242.058 99.2765 242.187 99.076 242.276 98.8374L243.683 99.0909C243.571 99.5052 243.368 99.8681 243.077 100.18C242.788 100.488 242.425 100.728 241.988 100.901C241.554 101.07 241.058 101.154 240.501 101.154Z" fill="white" fill-opacity="0.7"/>
<g clip-path="url(#clip2_2395_6696)">
<path d="M286.566 84.1293H285.015C284.956 83.7978 284.845 83.5062 284.682 83.2543C284.52 83.0024 284.321 82.7886 284.086 82.6129C283.85 82.4373 283.587 82.3047 283.295 82.2152C283.007 82.1257 282.7 82.081 282.375 82.081C281.789 82.081 281.263 82.2285 280.799 82.5234C280.339 82.8184 279.974 83.2509 279.706 83.821C279.441 84.3911 279.308 85.0871 279.308 85.9091C279.308 86.7377 279.441 87.437 279.706 88.0071C279.974 88.5772 280.34 89.008 280.804 89.2997C281.268 89.5914 281.79 89.7372 282.37 89.7372C282.692 89.7372 282.997 89.6941 283.285 89.608C283.577 89.5185 283.84 89.3875 284.076 89.2152C284.311 89.0429 284.51 88.8324 284.672 88.5838C284.838 88.3319 284.952 88.0436 285.015 87.7188L286.566 87.7237C286.484 88.2242 286.323 88.6849 286.084 89.1058C285.849 89.5234 285.546 89.8847 285.174 90.1896C284.807 90.4912 284.386 90.7249 283.912 90.8906C283.438 91.0563 282.921 91.1392 282.361 91.1392C281.479 91.1392 280.693 90.9304 280.004 90.5128C279.315 90.0919 278.771 89.4903 278.373 88.7081C277.979 87.9259 277.782 86.9929 277.782 85.9091C277.782 84.822 277.981 83.889 278.378 83.1101C278.776 82.3279 279.32 81.728 280.009 81.3104C280.698 80.8894 281.482 80.679 282.361 80.679C282.901 80.679 283.405 80.7569 283.872 80.9126C284.343 81.0651 284.765 81.2905 285.14 81.5888C285.514 81.8838 285.824 82.245 286.069 82.6726C286.315 83.0968 286.48 83.5824 286.566 84.1293ZM291.502 91.1541C290.786 91.1541 290.161 90.9901 289.628 90.6619C289.094 90.3338 288.68 89.8748 288.385 89.2848C288.09 88.6948 287.942 88.0054 287.942 87.2166C287.942 86.4245 288.09 85.7318 288.385 85.1385C288.68 84.5452 289.094 84.0845 289.628 83.7564C290.161 83.4283 290.786 83.2642 291.502 83.2642C292.218 83.2642 292.843 83.4283 293.376 83.7564C293.91 84.0845 294.324 84.5452 294.619 85.1385C294.914 85.7318 295.062 86.4245 295.062 87.2166C295.062 88.0054 294.914 88.6948 294.619 89.2848C294.324 89.8748 293.91 90.3338 293.376 90.6619C292.843 90.9901 292.218 91.1541 291.502 91.1541ZM291.507 89.9062C291.971 89.9062 292.355 89.7836 292.66 89.5384C292.965 89.2931 293.191 88.9666 293.337 88.5589C293.486 88.1513 293.56 87.7022 293.56 87.2116C293.56 86.7244 293.486 86.277 293.337 85.8693C293.191 85.4583 292.965 85.1286 292.66 84.88C292.355 84.6314 291.971 84.5071 291.507 84.5071C291.04 84.5071 290.652 84.6314 290.344 84.88C290.039 85.1286 289.812 85.4583 289.663 85.8693C289.517 86.277 289.444 86.7244 289.444 87.2116C289.444 87.7022 289.517 88.1513 289.663 88.5589C289.812 88.9666 290.039 89.2931 290.344 89.5384C290.652 89.7836 291.04 89.9062 291.507 89.9062ZM298.207 86.4659V91H296.721V83.3636H298.148V84.6065H298.242C298.418 84.2022 298.693 83.8774 299.068 83.6321C299.445 83.3868 299.921 83.2642 300.494 83.2642C301.015 83.2642 301.47 83.3736 301.862 83.5923C302.253 83.8078 302.556 84.1293 302.771 84.5568C302.987 84.9844 303.095 85.513 303.095 86.1428V91H301.608V86.3217C301.608 85.7682 301.464 85.3357 301.176 85.0241C300.887 84.7093 300.491 84.5518 299.987 84.5518C299.643 84.5518 299.336 84.6264 299.068 84.7756C298.802 84.9247 298.592 85.1435 298.436 85.4318C298.284 85.7169 298.207 86.0616 298.207 86.4659ZM308.653 83.3636V84.5568H304.482V83.3636H308.653ZM305.6 81.5341H307.087V88.7578C307.087 89.0462 307.13 89.2633 307.216 89.4091C307.302 89.5516 307.413 89.6494 307.549 89.7024C307.688 89.7521 307.839 89.777 308.002 89.777C308.121 89.777 308.225 89.7687 308.315 89.7521C308.404 89.7356 308.474 89.7223 308.524 89.7124L308.792 90.9403C308.706 90.9735 308.583 91.0066 308.424 91.0398C308.265 91.0762 308.066 91.0961 307.828 91.0994C307.436 91.1061 307.072 91.0365 306.734 90.8906C306.396 90.7448 306.122 90.5194 305.913 90.2145C305.705 89.9096 305.6 89.5268 305.6 89.0661V81.5341ZM313.506 91.1541C312.754 91.1541 312.106 90.9934 311.562 90.6719C311.022 90.3471 310.605 89.8913 310.31 89.3047C310.018 88.7147 309.872 88.0237 309.872 87.2315C309.872 86.4493 310.018 85.7599 310.31 85.1634C310.605 84.5668 311.016 84.1011 311.543 83.7663C312.073 83.4316 312.693 83.2642 313.402 83.2642C313.833 83.2642 314.25 83.3355 314.655 83.478C315.059 83.6205 315.422 83.8442 315.744 84.1491C316.065 84.4541 316.319 84.8501 316.504 85.3374C316.69 85.8213 316.783 86.4096 316.783 87.1023V87.6293H310.712V86.5156H315.326C315.326 86.1245 315.246 85.7782 315.087 85.4766C314.928 85.1716 314.704 84.9313 314.416 84.7557C314.131 84.58 313.796 84.4922 313.412 84.4922C312.994 84.4922 312.63 84.5949 312.318 84.8004C312.01 85.0026 311.771 85.2678 311.602 85.5959C311.436 85.9207 311.354 86.2737 311.354 86.6548V87.5249C311.354 88.0353 311.443 88.4695 311.622 88.8274C311.804 89.1854 312.058 89.4588 312.383 89.6477C312.708 89.8333 313.087 89.9261 313.521 89.9261C313.803 89.9261 314.06 89.8864 314.292 89.8068C314.524 89.724 314.724 89.6013 314.893 89.4389C315.062 89.2765 315.192 89.076 315.281 88.8374L316.688 89.0909C316.575 89.5052 316.373 89.8681 316.082 90.1797C315.793 90.4879 315.43 90.7282 314.993 90.9006C314.559 91.0696 314.063 91.1541 313.506 91.1541ZM319.918 86.4659V91H318.432V83.3636H319.859V84.6065H319.953C320.129 84.2022 320.404 83.8774 320.778 83.6321C321.156 83.3868 321.632 83.2642 322.205 83.2642C322.726 83.2642 323.181 83.3736 323.573 83.5923C323.964 83.8078 324.267 84.1293 324.482 84.5568C324.698 84.9844 324.805 85.513 324.805 86.1428V91H323.319V86.3217C323.319 85.7682 323.175 85.3357 322.886 85.0241C322.598 84.7093 322.202 84.5518 321.698 84.5518C321.354 84.5518 321.047 84.6264 320.778 84.7756C320.513 84.9247 320.303 85.1435 320.147 85.4318C319.995 85.7169 319.918 86.0616 319.918 86.4659ZM330.364 83.3636V84.5568H326.193V83.3636H330.364ZM327.311 81.5341H328.798V88.7578C328.798 89.0462 328.841 89.2633 328.927 89.4091C329.013 89.5516 329.124 89.6494 329.26 89.7024C329.399 89.7521 329.55 89.777 329.712 89.777C329.832 89.777 329.936 89.7687 330.026 89.7521C330.115 89.7356 330.185 89.7223 330.234 89.7124L330.503 90.9403C330.417 90.9735 330.294 91.0066 330.135 91.0398C329.976 91.0762 329.777 91.0961 329.538 91.0994C329.147 91.1061 328.783 91.0365 328.445 90.8906C328.107 90.7448 327.833 90.5194 327.624 90.2145C327.416 89.9096 327.311 89.5268 327.311 89.0661V81.5341ZM294.231 103.493C294.178 103.022 293.96 102.658 293.575 102.399C293.191 102.137 292.707 102.006 292.123 102.006C291.706 102.006 291.345 102.073 291.04 102.205C290.735 102.335 290.498 102.513 290.329 102.742C290.163 102.968 290.08 103.224 290.08 103.513C290.08 103.755 290.137 103.964 290.249 104.139C290.365 104.315 290.516 104.462 290.702 104.582C290.891 104.698 291.093 104.795 291.308 104.875C291.524 104.951 291.731 105.014 291.93 105.064L292.924 105.322C293.249 105.402 293.582 105.51 293.923 105.646C294.265 105.781 294.581 105.96 294.873 106.183C295.164 106.405 295.4 106.68 295.579 107.008C295.761 107.336 295.852 107.729 295.852 108.186C295.852 108.763 295.703 109.275 295.405 109.722C295.11 110.17 294.681 110.523 294.117 110.781C293.557 111.04 292.879 111.169 292.084 111.169C291.321 111.169 290.662 111.048 290.105 110.806C289.548 110.564 289.112 110.221 288.797 109.777C288.483 109.33 288.309 108.799 288.275 108.186H289.817C289.847 108.554 289.966 108.861 290.175 109.106C290.387 109.348 290.657 109.528 290.985 109.648C291.316 109.764 291.679 109.822 292.074 109.822C292.508 109.822 292.894 109.754 293.232 109.618C293.574 109.479 293.842 109.286 294.038 109.041C294.233 108.793 294.331 108.503 294.331 108.171C294.331 107.87 294.245 107.623 294.072 107.43C293.903 107.238 293.673 107.079 293.381 106.953C293.093 106.827 292.766 106.716 292.402 106.62L291.199 106.292C290.383 106.07 289.737 105.743 289.26 105.312C288.786 104.882 288.549 104.312 288.549 103.602C288.549 103.016 288.708 102.504 289.026 102.066C289.344 101.629 289.775 101.289 290.319 101.047C290.862 100.802 291.476 100.679 292.158 100.679C292.848 100.679 293.456 100.8 293.983 101.042C294.513 101.284 294.931 101.617 295.236 102.041C295.541 102.462 295.7 102.946 295.713 103.493H294.231ZM301.133 103.364V104.557H296.962V103.364H301.133ZM298.081 101.534H299.567V108.758C299.567 109.046 299.61 109.263 299.696 109.409C299.783 109.552 299.894 109.649 300.03 109.702C300.169 109.752 300.32 109.777 300.482 109.777C300.601 109.777 300.706 109.769 300.795 109.752C300.885 109.736 300.954 109.722 301.004 109.712L301.272 110.94C301.186 110.973 301.064 111.007 300.905 111.04C300.745 111.076 300.547 111.096 300.308 111.099C299.917 111.106 299.552 111.036 299.214 110.891C298.876 110.745 298.603 110.519 298.394 110.214C298.185 109.91 298.081 109.527 298.081 109.066V101.534ZM307.615 107.833V103.364H309.106V111H307.645V109.678H307.565C307.39 110.085 307.108 110.425 306.72 110.697C306.336 110.965 305.857 111.099 305.283 111.099C304.793 111.099 304.359 110.992 303.981 110.776C303.606 110.558 303.311 110.234 303.096 109.807C302.884 109.379 302.778 108.851 302.778 108.221V103.364H304.264V108.042C304.264 108.562 304.408 108.977 304.697 109.285C304.985 109.593 305.36 109.747 305.82 109.747C306.099 109.747 306.375 109.678 306.65 109.538C306.929 109.399 307.159 109.189 307.342 108.907C307.527 108.625 307.618 108.267 307.615 107.833ZM314.738 103.364V104.557H310.423V103.364H314.738ZM311.606 111V102.479C311.606 102.001 311.71 101.605 311.919 101.29C312.128 100.972 312.405 100.735 312.749 100.58C313.094 100.42 313.469 100.341 313.873 100.341C314.171 100.341 314.426 100.366 314.639 100.415C314.851 100.462 315.008 100.505 315.111 100.545L314.763 101.748C314.693 101.728 314.604 101.705 314.494 101.678C314.385 101.648 314.252 101.634 314.097 101.634C313.735 101.634 313.477 101.723 313.321 101.902C313.169 102.081 313.092 102.339 313.092 102.678V111H311.606ZM319.906 103.364V104.557H315.591V103.364H319.906ZM316.774 111V102.479C316.774 102.001 316.878 101.605 317.087 101.29C317.296 100.972 317.573 100.735 317.917 100.58C318.262 100.42 318.637 100.341 319.041 100.341C319.339 100.341 319.594 100.366 319.807 100.415C320.019 100.462 320.176 100.505 320.279 100.545L319.931 101.748C319.861 101.728 319.772 101.705 319.662 101.678C319.553 101.648 319.42 101.634 319.265 101.634C318.903 101.634 318.645 101.723 318.489 101.902C318.337 102.081 318.26 102.339 318.26 102.678V111H316.774Z" fill="white" fill-opacity="0.7"/>
</g>
<path d="M364.955 90.8182H366.819L370.06 98.733H370.18L373.421 90.8182H375.286V101H373.824V93.6321H373.729L370.727 100.985H369.513L366.511 93.6271H366.416V101H364.955V90.8182ZM380.691 101.154C379.939 101.154 379.291 100.993 378.747 100.672C378.207 100.347 377.789 99.8913 377.494 99.3047C377.202 98.7147 377.057 98.0237 377.057 97.2315C377.057 96.4493 377.202 95.7599 377.494 95.1634C377.789 94.5668 378.2 94.1011 378.727 93.7663C379.257 93.4316 379.877 93.2642 380.586 93.2642C381.017 93.2642 381.435 93.3355 381.839 93.478C382.244 93.6205 382.607 93.8442 382.928 94.1491C383.25 94.4541 383.503 94.8501 383.689 95.3374C383.874 95.8213 383.967 96.4096 383.967 97.1023V97.6293H377.897V96.5156H382.51C382.51 96.1245 382.431 95.7782 382.272 95.4766C382.113 95.1716 381.889 94.9313 381.601 94.7557C381.316 94.58 380.981 94.4922 380.596 94.4922C380.179 94.4922 379.814 94.5949 379.503 94.8004C379.194 95.0026 378.956 95.2678 378.787 95.5959C378.621 95.9207 378.538 96.2737 378.538 96.6548V97.5249C378.538 98.0353 378.628 98.4695 378.807 98.8274C378.989 99.1854 379.242 99.4588 379.567 99.6477C379.892 99.8333 380.272 99.9261 380.706 99.9261C380.988 99.9261 381.244 99.8864 381.476 99.8068C381.708 99.724 381.909 99.6013 382.078 99.4389C382.247 99.2765 382.376 99.076 382.466 98.8374L383.873 99.0909C383.76 99.5052 383.558 99.8681 383.266 100.18C382.978 100.488 382.615 100.728 382.177 100.901C381.743 101.07 381.248 101.154 380.691 101.154ZM388.908 101.154C388.155 101.154 387.507 100.993 386.964 100.672C386.424 100.347 386.006 99.8913 385.711 99.3047C385.419 98.7147 385.273 98.0237 385.273 97.2315C385.273 96.4493 385.419 95.7599 385.711 95.1634C386.006 94.5668 386.417 94.1011 386.944 93.7663C387.474 93.4316 388.094 93.2642 388.803 93.2642C389.234 93.2642 389.652 93.3355 390.056 93.478C390.46 93.6205 390.823 93.8442 391.145 94.1491C391.466 94.4541 391.72 94.8501 391.906 95.3374C392.091 95.8213 392.184 96.4096 392.184 97.1023V97.6293H386.114V96.5156H390.727C390.727 96.1245 390.648 95.7782 390.489 95.4766C390.33 95.1716 390.106 94.9313 389.817 94.7557C389.532 94.58 389.198 94.4922 388.813 94.4922C388.396 94.4922 388.031 94.5949 387.719 94.8004C387.411 95.0026 387.173 95.2678 387.004 95.5959C386.838 95.9207 386.755 96.2737 386.755 96.6548V97.5249C386.755 98.0353 386.844 98.4695 387.023 98.8274C387.206 99.1854 387.459 99.4588 387.784 99.6477C388.109 99.8333 388.488 99.9261 388.923 99.9261C389.204 99.9261 389.461 99.8864 389.693 99.8068C389.925 99.724 390.126 99.6013 390.295 99.4389C390.464 99.2765 390.593 99.076 390.683 98.8374L392.089 99.0909C391.977 99.5052 391.775 99.8681 391.483 100.18C391.195 100.488 390.832 100.728 390.394 100.901C389.96 101.07 389.464 101.154 388.908 101.154ZM397.398 93.3636V94.5568H393.227V93.3636H397.398ZM394.345 91.5341H395.832V98.7578C395.832 99.0462 395.875 99.2633 395.961 99.4091C396.047 99.5516 396.158 99.6494 396.294 99.7024C396.433 99.7521 396.584 99.777 396.747 99.777C396.866 99.777 396.97 99.7687 397.06 99.7521C397.149 99.7356 397.219 99.7223 397.269 99.7124L397.537 100.94C397.451 100.973 397.328 101.007 397.169 101.04C397.01 101.076 396.811 101.096 396.573 101.099C396.182 101.106 395.817 101.036 395.479 100.891C395.141 100.745 394.867 100.519 394.659 100.214C394.45 99.9096 394.345 99.5268 394.345 99.0661V91.5341ZM399.042 101V93.3636H400.529V101H399.042ZM399.793 92.1854C399.534 92.1854 399.312 92.0992 399.127 91.9268C398.944 91.7512 398.853 91.5424 398.853 91.3004C398.853 91.0552 398.944 90.8464 399.127 90.674C399.312 90.4983 399.534 90.4105 399.793 90.4105C400.051 90.4105 400.272 90.4983 400.454 90.674C400.64 90.8464 400.733 91.0552 400.733 91.3004C400.733 91.5424 400.64 91.7512 400.454 91.9268C400.272 92.0992 400.051 92.1854 399.793 92.1854ZM404.015 96.4659V101H402.529V93.3636H403.955V94.6065H404.05C404.226 94.2022 404.501 93.8774 404.875 93.6321C405.253 93.3868 405.729 93.2642 406.302 93.2642C406.822 93.2642 407.278 93.3736 407.669 93.5923C408.06 93.8078 408.364 94.1293 408.579 94.5568C408.794 94.9844 408.902 95.513 408.902 96.1428V101H407.416V96.3217C407.416 95.7682 407.271 95.3357 406.983 95.0241C406.695 94.7093 406.299 94.5518 405.795 94.5518C405.45 94.5518 405.144 94.6264 404.875 94.7756C404.61 94.9247 404.4 95.1435 404.244 95.4318C404.091 95.7169 404.015 96.0616 404.015 96.4659ZM414.097 104.008C413.491 104.008 412.969 103.928 412.531 103.769C412.097 103.61 411.743 103.4 411.468 103.138C411.192 102.879 410.987 102.598 410.851 102.293L412.129 101.766C412.218 101.905 412.338 102.056 412.487 102.218C412.639 102.38 412.845 102.52 413.103 102.636C413.365 102.752 413.701 102.81 414.112 102.81C414.676 102.81 415.142 102.674 415.509 102.402C415.877 102.13 416.061 101.699 416.061 101.109V99.608H415.967C415.877 99.7704 415.748 99.951 415.579 100.15C415.413 100.349 415.185 100.521 414.893 100.667C414.601 100.813 414.222 100.886 413.754 100.886C413.151 100.886 412.608 100.745 412.124 100.463C411.643 100.178 411.262 99.7588 410.98 99.2053C410.702 98.6484 410.563 97.964 410.563 97.152C410.563 96.34 410.7 95.6439 410.975 95.0639C411.254 94.4839 411.635 94.0398 412.119 93.7315C412.603 93.42 413.151 93.2642 413.764 93.2642C414.238 93.2642 414.621 93.3438 414.913 93.5028C415.204 93.6586 415.432 93.8409 415.594 94.0497C415.76 94.2585 415.887 94.4425 415.977 94.6016H416.086V93.3636H417.543V101.169C417.543 101.819 417.39 102.352 417.085 102.77C416.78 103.191 416.368 103.502 415.847 103.705C415.33 103.907 414.747 104.008 414.097 104.008ZM414.083 99.6527C414.51 99.6527 414.871 99.5533 415.166 99.3544C415.465 99.1522 415.69 98.8639 415.843 98.4893C415.998 98.1115 416.076 97.6591 416.076 97.1321C416.076 96.6184 416 96.166 415.847 95.7749C415.695 95.3838 415.471 95.0788 415.176 94.8601C414.881 94.638 414.517 94.527 414.083 94.527C413.635 94.527 413.262 94.643 412.964 94.875C412.666 95.1037 412.44 95.4152 412.288 95.8097C412.139 96.2041 412.064 96.6449 412.064 97.1321C412.064 97.6326 412.14 98.0717 412.293 98.4496C412.445 98.8274 412.671 99.1224 412.969 99.3345C413.271 99.5466 413.642 99.6527 414.083 99.6527ZM425.464 101.169C424.98 101.169 424.542 101.08 424.151 100.901C423.76 100.718 423.45 100.455 423.222 100.11C422.996 99.7654 422.884 99.3428 422.884 98.8423C422.884 98.4115 422.966 98.0568 423.132 97.7784C423.298 97.5 423.522 97.2796 423.803 97.1172C424.085 96.9548 424.4 96.8321 424.748 96.7493C425.096 96.6664 425.451 96.6035 425.812 96.5604C426.269 96.5073 426.64 96.4643 426.925 96.4311C427.21 96.3946 427.418 96.3366 427.547 96.2571C427.676 96.1776 427.741 96.0483 427.741 95.8693V95.8345C427.741 95.4003 427.618 95.0639 427.373 94.8253C427.131 94.5866 426.77 94.4673 426.289 94.4673C425.789 94.4673 425.394 94.5784 425.106 94.8004C424.821 95.0192 424.624 95.2628 424.514 95.5312L423.117 95.2131C423.283 94.7491 423.525 94.3745 423.843 94.0895C424.165 93.8011 424.534 93.5923 424.952 93.4631C425.369 93.3305 425.808 93.2642 426.269 93.2642C426.574 93.2642 426.897 93.3007 427.239 93.3736C427.583 93.4432 427.905 93.5724 428.203 93.7614C428.505 93.9503 428.752 94.2204 428.944 94.5717C429.136 94.9197 429.232 95.3722 429.232 95.929V101H427.781V99.956H427.721C427.625 100.148 427.481 100.337 427.288 100.523C427.096 100.708 426.849 100.862 426.548 100.985C426.246 101.108 425.885 101.169 425.464 101.169ZM425.787 99.9759C426.198 99.9759 426.549 99.8946 426.841 99.7322C427.136 99.5698 427.36 99.3577 427.512 99.0959C427.668 98.8307 427.746 98.5473 427.746 98.2457V97.2614C427.693 97.3144 427.59 97.3641 427.438 97.4105C427.288 97.4536 427.118 97.4917 426.925 97.5249C426.733 97.5547 426.546 97.5829 426.364 97.6094C426.181 97.6326 426.029 97.6525 425.906 97.669C425.618 97.7055 425.354 97.7668 425.116 97.853C424.88 97.9392 424.692 98.0634 424.549 98.2259C424.41 98.3849 424.34 98.5971 424.34 98.8622C424.34 99.2301 424.476 99.5085 424.748 99.6974C425.02 99.883 425.366 99.9759 425.787 99.9759ZM434.414 104.008C433.807 104.008 433.285 103.928 432.848 103.769C432.414 103.61 432.059 103.4 431.784 103.138C431.509 102.879 431.303 102.598 431.167 102.293L432.445 101.766C432.535 101.905 432.654 102.056 432.803 102.218C432.956 102.38 433.161 102.52 433.42 102.636C433.681 102.752 434.018 102.81 434.429 102.81C434.992 102.81 435.458 102.674 435.826 102.402C436.194 102.13 436.378 101.699 436.378 101.109V99.608H436.283C436.194 99.7704 436.064 99.951 435.895 100.15C435.73 100.349 435.501 100.521 435.209 100.667C434.918 100.813 434.538 100.886 434.071 100.886C433.468 100.886 432.924 100.745 432.44 100.463C431.96 100.178 431.578 99.7588 431.297 99.2053C431.018 98.6484 430.879 97.964 430.879 97.152C430.879 96.34 431.017 95.6439 431.292 95.0639C431.57 94.4839 431.951 94.0398 432.435 93.7315C432.919 93.42 433.468 93.2642 434.081 93.2642C434.555 93.2642 434.938 93.3438 435.229 93.5028C435.521 93.6586 435.748 93.8409 435.91 94.0497C436.076 94.2585 436.204 94.4425 436.293 94.6016H436.403V93.3636H437.859V101.169C437.859 101.819 437.707 102.352 437.402 102.77C437.097 103.191 436.684 103.502 436.164 103.705C435.647 103.907 435.064 104.008 434.414 104.008ZM434.399 99.6527C434.827 99.6527 435.188 99.5533 435.483 99.3544C435.781 99.1522 436.006 98.8639 436.159 98.4893C436.315 98.1115 436.393 97.6591 436.393 97.1321C436.393 96.6184 436.316 96.166 436.164 95.7749C436.011 95.3838 435.788 95.0788 435.493 94.8601C435.198 94.638 434.833 94.527 434.399 94.527C433.952 94.527 433.579 94.643 433.28 94.875C432.982 95.1037 432.757 95.4152 432.604 95.8097C432.455 96.2041 432.381 96.6449 432.381 97.1321C432.381 97.6326 432.457 98.0717 432.609 98.4496C432.762 98.8274 432.987 99.1224 433.285 99.3345C433.587 99.5466 433.958 99.6527 434.399 99.6527ZM443.144 101.154C442.392 101.154 441.744 100.993 441.2 100.672C440.66 100.347 440.242 99.8913 439.947 99.3047C439.656 98.7147 439.51 98.0237 439.51 97.2315C439.51 96.4493 439.656 95.7599 439.947 95.1634C440.242 94.5668 440.653 94.1011 441.18 93.7663C441.711 93.4316 442.33 93.2642 443.04 93.2642C443.47 93.2642 443.888 93.3355 444.292 93.478C444.697 93.6205 445.06 93.8442 445.381 94.1491C445.703 94.4541 445.956 94.8501 446.142 95.3374C446.327 95.8213 446.42 96.4096 446.42 97.1023V97.6293H440.35V96.5156H444.964C444.964 96.1245 444.884 95.7782 444.725 95.4766C444.566 95.1716 444.342 94.9313 444.054 94.7557C443.769 94.58 443.434 94.4922 443.05 94.4922C442.632 94.4922 442.267 94.5949 441.956 94.8004C441.648 95.0026 441.409 95.2678 441.24 95.5959C441.074 95.9207 440.991 96.2737 440.991 96.6548V97.5249C440.991 98.0353 441.081 98.4695 441.26 98.8274C441.442 99.1854 441.696 99.4588 442.02 99.6477C442.345 99.8333 442.725 99.9261 443.159 99.9261C443.441 99.9261 443.698 99.8864 443.93 99.8068C444.162 99.724 444.362 99.6013 444.531 99.4389C444.7 99.2765 444.829 99.076 444.919 98.8374L446.326 99.0909C446.213 99.5052 446.011 99.8681 445.719 100.18C445.431 100.488 445.068 100.728 444.631 100.901C444.196 101.07 443.701 101.154 443.144 101.154ZM449.556 96.4659V101H448.07V93.3636H449.496V94.6065H449.591C449.767 94.2022 450.042 93.8774 450.416 93.6321C450.794 93.3868 451.27 93.2642 451.843 93.2642C452.363 93.2642 452.819 93.3736 453.21 93.5923C453.601 93.8078 453.905 94.1293 454.12 94.5568C454.335 94.9844 454.443 95.513 454.443 96.1428V101H452.957V96.3217C452.957 95.7682 452.813 95.3357 452.524 95.0241C452.236 94.7093 451.84 94.5518 451.336 94.5518C450.991 94.5518 450.685 94.6264 450.416 94.7756C450.151 94.9247 449.941 95.1435 449.785 95.4318C449.632 95.7169 449.556 96.0616 449.556 96.4659ZM459.295 101.149C458.679 101.149 458.129 100.992 457.645 100.677C457.164 100.359 456.786 99.9062 456.511 99.3196C456.24 98.7296 456.104 98.022 456.104 97.1967C456.104 96.3714 456.241 95.6655 456.516 95.0788C456.795 94.4922 457.176 94.0431 457.66 93.7315C458.144 93.42 458.692 93.2642 459.305 93.2642C459.779 93.2642 460.161 93.3438 460.449 93.5028C460.741 93.6586 460.966 93.8409 461.125 94.0497C461.287 94.2585 461.413 94.4425 461.503 94.6016H461.592V90.8182H463.079V101H461.627V99.8118H461.503C461.413 99.9742 461.284 100.16 461.115 100.369C460.949 100.577 460.721 100.76 460.429 100.915C460.137 101.071 459.759 101.149 459.295 101.149ZM459.624 99.8814C460.051 99.8814 460.412 99.7687 460.707 99.5433C461.006 99.3146 461.231 98.9981 461.384 98.5938C461.539 98.1894 461.617 97.7187 461.617 97.1818C461.617 96.6515 461.541 96.1875 461.388 95.7898C461.236 95.392 461.012 95.0821 460.717 94.8601C460.422 94.638 460.058 94.527 459.624 94.527C459.176 94.527 458.803 94.643 458.505 94.875C458.207 95.107 457.981 95.4235 457.829 95.8246C457.68 96.2256 457.605 96.678 457.605 97.1818C457.605 97.6922 457.681 98.1513 457.834 98.5589C457.986 98.9666 458.212 99.2898 458.51 99.5284C458.812 99.7637 459.183 99.8814 459.624 99.8814ZM467.423 101.169C466.939 101.169 466.501 101.08 466.11 100.901C465.719 100.718 465.409 100.455 465.181 100.11C464.955 99.7654 464.843 99.3428 464.843 98.8423C464.843 98.4115 464.925 98.0568 465.091 97.7784C465.257 97.5 465.481 97.2796 465.762 97.1172C466.044 96.9548 466.359 96.8321 466.707 96.7493C467.055 96.6664 467.41 96.6035 467.771 96.5604C468.228 96.5073 468.599 96.4643 468.884 96.4311C469.169 96.3946 469.377 96.3366 469.506 96.2571C469.635 96.1776 469.7 96.0483 469.7 95.8693V95.8345C469.7 95.4003 469.577 95.0639 469.332 94.8253C469.09 94.5866 468.729 94.4673 468.248 94.4673C467.748 94.4673 467.353 94.5784 467.065 94.8004C466.78 95.0192 466.583 95.2628 466.473 95.5312L465.076 95.2131C465.242 94.7491 465.484 94.3745 465.802 94.0895C466.124 93.8011 466.493 93.5923 466.911 93.4631C467.328 93.3305 467.767 93.2642 468.228 93.2642C468.533 93.2642 468.856 93.3007 469.198 93.3736C469.542 93.4432 469.864 93.5724 470.162 93.7614C470.464 93.9503 470.711 94.2204 470.903 94.5717C471.095 94.9197 471.191 95.3722 471.191 95.929V101H469.74V99.956H469.68C469.584 100.148 469.44 100.337 469.247 100.523C469.055 100.708 468.808 100.862 468.507 100.985C468.205 101.108 467.844 101.169 467.423 101.169ZM467.746 99.9759C468.157 99.9759 468.508 99.8946 468.8 99.7322C469.095 99.5698 469.319 99.3577 469.471 99.0959C469.627 98.8307 469.705 98.5473 469.705 98.2457V97.2614C469.652 97.3144 469.549 97.3641 469.396 97.4105C469.247 97.4536 469.077 97.4917 468.884 97.5249C468.692 97.5547 468.505 97.5829 468.323 97.6094C468.14 97.6326 467.988 97.6525 467.865 97.669C467.577 97.7055 467.313 97.7668 467.075 97.853C466.839 97.9392 466.651 98.0634 466.508 98.2259C466.369 98.3849 466.299 98.5971 466.299 98.8622C466.299 99.2301 466.435 99.5085 466.707 99.6974C466.979 99.883 467.325 99.9759 467.746 99.9759ZM480.51 93.3636V94.5568H476.195V93.3636H480.51ZM477.378 101V92.4787C477.378 92.0014 477.483 91.6053 477.692 91.2905C477.9 90.9723 478.177 90.7353 478.522 90.5795C478.867 90.4205 479.241 90.3409 479.645 90.3409C479.944 90.3409 480.199 90.3658 480.411 90.4155C480.623 90.4619 480.781 90.505 480.883 90.5447L480.535 91.7479C480.466 91.728 480.376 91.7048 480.267 91.6783C480.157 91.6484 480.025 91.6335 479.869 91.6335C479.508 91.6335 479.249 91.723 479.094 91.902C478.941 92.081 478.865 92.3395 478.865 92.6776V101H477.378ZM484.96 101.154C484.244 101.154 483.619 100.99 483.086 100.662C482.552 100.334 482.138 99.8748 481.843 99.2848C481.548 98.6948 481.4 98.0054 481.4 97.2166C481.4 96.4245 481.548 95.7318 481.843 95.1385C482.138 94.5452 482.552 94.0845 483.086 93.7564C483.619 93.4283 484.244 93.2642 484.96 93.2642C485.676 93.2642 486.301 93.4283 486.834 93.7564C487.368 94.0845 487.782 94.5452 488.077 95.1385C488.372 95.7318 488.52 96.4245 488.52 97.2166C488.52 98.0054 488.372 98.6948 488.077 99.2848C487.782 99.8748 487.368 100.334 486.834 100.662C486.301 100.99 485.676 101.154 484.96 101.154ZM484.965 99.9062C485.429 99.9062 485.814 99.7836 486.118 99.5384C486.423 99.2931 486.649 98.9666 486.795 98.5589C486.944 98.1513 487.018 97.7022 487.018 97.2116C487.018 96.7244 486.944 96.277 486.795 95.8693C486.649 95.4583 486.423 95.1286 486.118 94.88C485.814 94.6314 485.429 94.5071 484.965 94.5071C484.498 94.5071 484.11 94.6314 483.802 94.88C483.497 95.1286 483.27 95.4583 483.121 95.8693C482.975 96.277 482.902 96.7244 482.902 97.2116C482.902 97.7022 482.975 98.1513 483.121 98.5589C483.27 98.9666 483.497 99.2931 483.802 99.5384C484.11 99.7836 484.498 99.9062 484.965 99.9062ZM490.179 101V93.3636H491.616V94.5767H491.695C491.835 94.1657 492.08 93.8426 492.431 93.6072C492.786 93.3686 493.187 93.2493 493.634 93.2493C493.727 93.2493 493.836 93.2526 493.962 93.2592C494.092 93.2659 494.193 93.2741 494.266 93.2841V94.706C494.206 94.6894 494.1 94.6712 493.947 94.6513C493.795 94.6281 493.643 94.6165 493.49 94.6165C493.139 94.6165 492.826 94.6911 492.55 94.8402C492.279 94.986 492.063 95.1899 491.904 95.4517C491.745 95.7102 491.665 96.0052 491.665 96.3366V101H490.179ZM502.822 93.3636V94.5568H498.651V93.3636H502.822ZM499.769 91.5341H501.256V98.7578C501.256 99.0462 501.299 99.2633 501.385 99.4091C501.471 99.5516 501.582 99.6494 501.718 99.7024C501.857 99.7521 502.008 99.777 502.17 99.777C502.29 99.777 502.394 99.7687 502.484 99.7521C502.573 99.7356 502.643 99.7223 502.692 99.7124L502.961 100.94C502.875 100.973 502.752 101.007 502.593 101.04C502.434 101.076 502.235 101.096 501.996 101.099C501.605 101.106 501.241 101.036 500.903 100.891C500.565 100.745 500.291 100.519 500.082 100.214C499.874 99.9096 499.769 99.5268 499.769 99.0661V91.5341ZM506.117 96.4659V101H504.63V90.8182H506.097V94.6065H506.191C506.37 94.1955 506.644 93.8691 507.012 93.6271C507.379 93.3852 507.86 93.2642 508.453 93.2642C508.977 93.2642 509.434 93.3719 509.825 93.5874C510.22 93.8028 510.525 94.1243 510.74 94.5518C510.959 94.9761 511.068 95.5064 511.068 96.1428V101H509.582V96.3217C509.582 95.7616 509.438 95.3274 509.149 95.0192C508.861 94.7076 508.46 94.5518 507.946 94.5518C507.595 94.5518 507.28 94.6264 507.002 94.7756C506.727 94.9247 506.509 95.1435 506.35 95.4318C506.195 95.7169 506.117 96.0616 506.117 96.4659ZM516.343 101.154C515.591 101.154 514.943 100.993 514.399 100.672C513.859 100.347 513.441 99.8913 513.146 99.3047C512.855 98.7147 512.709 98.0237 512.709 97.2315C512.709 96.4493 512.855 95.7599 513.146 95.1634C513.441 94.5668 513.852 94.1011 514.379 93.7663C514.91 93.4316 515.53 93.2642 516.239 93.2642C516.67 93.2642 517.087 93.3355 517.492 93.478C517.896 93.6205 518.259 93.8442 518.58 94.1491C518.902 94.4541 519.155 94.8501 519.341 95.3374C519.527 95.8213 519.619 96.4096 519.619 97.1023V97.6293H513.549V96.5156H518.163C518.163 96.1245 518.083 95.7782 517.924 95.4766C517.765 95.1716 517.541 94.9313 517.253 94.7557C516.968 94.58 516.633 94.4922 516.249 94.4922C515.831 94.4922 515.467 94.5949 515.155 94.8004C514.847 95.0026 514.608 95.2678 514.439 95.5959C514.273 95.9207 514.191 96.2737 514.191 96.6548V97.5249C514.191 98.0353 514.28 98.4695 514.459 98.8274C514.641 99.1854 514.895 99.4588 515.22 99.6477C515.544 99.8333 515.924 99.9261 516.358 99.9261C516.64 99.9261 516.897 99.8864 517.129 99.8068C517.361 99.724 517.561 99.6013 517.73 99.4389C517.899 99.2765 518.029 99.076 518.118 98.8374L519.525 99.0909C519.412 99.5052 519.21 99.8681 518.919 100.18C518.63 100.488 518.267 100.728 517.83 100.901C517.396 101.07 516.9 101.154 516.343 101.154ZM522.248 101.094C521.976 101.094 521.743 100.998 521.547 100.806C521.352 100.611 521.254 100.375 521.254 100.1C521.254 99.8284 521.352 99.5964 521.547 99.4041C521.743 99.2086 521.976 99.1108 522.248 99.1108C522.52 99.1108 522.754 99.2086 522.949 99.4041C523.145 99.5964 523.243 99.8284 523.243 100.1C523.243 100.282 523.196 100.45 523.103 100.602C523.014 100.751 522.895 100.871 522.745 100.96C522.596 101.05 522.431 101.094 522.248 101.094ZM526.213 101.094C525.941 101.094 525.708 100.998 525.512 100.806C525.317 100.611 525.219 100.375 525.219 100.1C525.219 99.8284 525.317 99.5964 525.512 99.4041C525.708 99.2086 525.941 99.1108 526.213 99.1108C526.485 99.1108 526.719 99.2086 526.914 99.4041C527.11 99.5964 527.207 99.8284 527.207 100.1C527.207 100.282 527.161 100.45 527.068 100.602C526.979 100.751 526.859 100.871 526.71 100.96C526.561 101.05 526.395 101.094 526.213 101.094ZM530.178 101.094C529.906 101.094 529.672 100.998 529.477 100.806C529.281 100.611 529.184 100.375 529.184 100.1C529.184 99.8284 529.281 99.5964 529.477 99.4041C529.672 99.2086 529.906 99.1108 530.178 99.1108C530.45 99.1108 530.683 99.2086 530.879 99.4041C531.074 99.5964 531.172 99.8284 531.172 100.1C531.172 100.282 531.126 100.45 531.033 100.602C530.944 100.751 530.824 100.871 530.675 100.96C530.526 101.05 530.36 101.094 530.178 101.094Z" fill="white" fill-opacity="0.7"/>
</g>
</g>
<path d="M0 174H630C630 186.703 619.703 197 607 197H23C10.2975 197 0 186.703 0 174Z" fill="url(#paint0_linear_2395_6696)"/>
<defs>
<linearGradient id="paint0_linear_2395_6696" x1="315" y1="174" x2="315" y2="197" gradientUnits="userSpaceOnUse">
<stop stop-color="#F0677E"/>
<stop offset="1" stop-color="#DB1F2E"/>
</linearGradient>
<clipPath id="clip0_2395_6696">
<rect width="547" height="32" fill="white" transform="translate(41.5 80)"/>
</clipPath>
<clipPath id="clip1_2395_6696">
<rect width="459" height="32" fill="white" transform="translate(85.5 80)"/>
</clipPath>
<clipPath id="clip2_2395_6696">
<rect x="264.5" y="80" width="79" height="32" rx="16" fill="white"/>
</clipPath>
</defs>
</svg>
