<svg width="1300" height="80" viewBox="0 0 1300 80" fill="none" xmlns="http://www.w3.org/2000/svg">
<rect width="1300" height="68" transform="translate(0 6)" fill="#1A1A1A"/>
<mask id="path-1-inside-1_2395_6599" fill="white">
<path d="M0 6H300V74H0V6Z"/>
</mask>
<path d="M300 74V75H301V74H300ZM299 6V74H301V6H299ZM300 73H0V75H300V73Z" fill="#707070" mask="url(#path-1-inside-1_2395_6599)"/>
<path d="M40.7727 38H39.3636C39.2803 37.5947 39.1345 37.2386 38.9261 36.9318C38.7216 36.625 38.4716 36.3674 38.1761 36.1591C37.8845 35.947 37.5606 35.7879 37.2045 35.6818C36.8485 35.5758 36.4773 35.5227 36.0909 35.5227C35.3864 35.5227 34.7481 35.7008 34.1761 36.0568C33.608 36.4129 33.1553 36.9375 32.8182 37.6307C32.4848 38.3239 32.3182 39.1742 32.3182 40.1818C32.3182 41.1894 32.4848 42.0398 32.8182 42.733C33.1553 43.4261 33.608 43.9508 34.1761 44.3068C34.7481 44.6629 35.3864 44.8409 36.0909 44.8409C36.4773 44.8409 36.8485 44.7879 37.2045 44.6818C37.5606 44.5758 37.8845 44.4186 38.1761 44.2102C38.4716 43.9981 38.7216 43.7386 38.9261 43.4318C39.1345 43.1212 39.2803 42.7652 39.3636 42.3636H40.7727C40.6667 42.9583 40.4735 43.4905 40.1932 43.9602C39.9129 44.4299 39.5644 44.8295 39.1477 45.1591C38.7311 45.4848 38.2633 45.733 37.7443 45.9034C37.2292 46.0739 36.678 46.1591 36.0909 46.1591C35.0985 46.1591 34.2159 45.9167 33.4432 45.4318C32.6705 44.947 32.0625 44.2576 31.6193 43.3636C31.1761 42.4697 30.9545 41.4091 30.9545 40.1818C30.9545 38.9545 31.1761 37.8939 31.6193 37C32.0625 36.1061 32.6705 35.4167 33.4432 34.9318C34.2159 34.447 35.0985 34.2045 36.0909 34.2045C36.678 34.2045 37.2292 34.2898 37.7443 34.4602C38.2633 34.6307 38.7311 34.8807 39.1477 35.2102C39.5644 35.536 39.9129 35.9337 40.1932 36.4034C40.4735 36.8693 40.6667 37.4015 40.7727 38ZM46.4134 46.1818C45.6255 46.1818 44.9342 45.9943 44.3395 45.6193C43.7486 45.2443 43.2865 44.7197 42.9531 44.0455C42.6236 43.3712 42.4588 42.5833 42.4588 41.6818C42.4588 40.7727 42.6236 39.9792 42.9531 39.3011C43.2865 38.6231 43.7486 38.0966 44.3395 37.7216C44.9342 37.3466 45.6255 37.1591 46.4134 37.1591C47.2012 37.1591 47.8906 37.3466 48.4815 37.7216C49.0762 38.0966 49.5384 38.6231 49.8679 39.3011C50.2012 39.9792 50.3679 40.7727 50.3679 41.6818C50.3679 42.5833 50.2012 43.3712 49.8679 44.0455C49.5384 44.7197 49.0762 45.2443 48.4815 45.6193C47.8906 45.9943 47.2012 46.1818 46.4134 46.1818ZM46.4134 44.9773C47.0118 44.9773 47.5043 44.8239 47.8906 44.517C48.277 44.2102 48.563 43.8068 48.7486 43.3068C48.9342 42.8068 49.027 42.2652 49.027 41.6818C49.027 41.0985 48.9342 40.5549 48.7486 40.0511C48.563 39.5473 48.277 39.1402 47.8906 38.8295C47.5043 38.5189 47.0118 38.3636 46.4134 38.3636C45.8149 38.3636 45.3224 38.5189 44.9361 38.8295C44.5497 39.1402 44.2637 39.5473 44.0781 40.0511C43.8925 40.5549 43.7997 41.0985 43.7997 41.6818C43.7997 42.2652 43.8925 42.8068 44.0781 43.3068C44.2637 43.8068 44.5497 44.2102 44.9361 44.517C45.3224 44.8239 45.8149 44.9773 46.4134 44.9773ZM52.4148 46V37.2727H53.7102V38.6364H53.8239C54.0057 38.1705 54.2992 37.8087 54.7045 37.5511C55.1098 37.2898 55.5966 37.1591 56.1648 37.1591C56.7405 37.1591 57.2197 37.2898 57.6023 37.5511C57.9886 37.8087 58.2898 38.1705 58.5057 38.6364H58.5966C58.8201 38.1856 59.1553 37.8277 59.6023 37.5625C60.0492 37.2936 60.5852 37.1591 61.2102 37.1591C61.9905 37.1591 62.6288 37.4034 63.125 37.892C63.6212 38.3769 63.8693 39.1326 63.8693 40.1591V46H62.5284V40.1591C62.5284 39.5152 62.3523 39.0549 62 38.7784C61.6477 38.5019 61.233 38.3636 60.7557 38.3636C60.142 38.3636 59.6667 38.5492 59.3295 38.9205C58.9924 39.2879 58.8239 39.7538 58.8239 40.3182V46H57.4602V40.0227C57.4602 39.5265 57.2992 39.1269 56.9773 38.8239C56.6553 38.517 56.2405 38.3636 55.733 38.3636C55.3845 38.3636 55.0587 38.4564 54.7557 38.642C54.4564 38.8277 54.214 39.0852 54.0284 39.4148C53.8466 39.7405 53.7557 40.1174 53.7557 40.5455V46H52.4148ZM66.321 49.2727V37.2727H67.6165V38.6591H67.7756C67.8741 38.5076 68.0104 38.3144 68.1847 38.0795C68.3627 37.8409 68.6165 37.6288 68.946 37.4432C69.2794 37.2538 69.7301 37.1591 70.2983 37.1591C71.0331 37.1591 71.6809 37.3428 72.2415 37.7102C72.8021 38.0777 73.2396 38.5985 73.554 39.2727C73.8684 39.947 74.0256 40.7424 74.0256 41.6591C74.0256 42.5833 73.8684 43.3845 73.554 44.0625C73.2396 44.7367 72.804 45.2595 72.2472 45.6307C71.6903 45.9981 71.0483 46.1818 70.321 46.1818C69.7604 46.1818 69.3116 46.089 68.9744 45.9034C68.6373 45.714 68.3778 45.5 68.196 45.2614C68.0142 45.0189 67.8741 44.8182 67.7756 44.6591H67.6619V49.2727H66.321ZM67.6392 41.6364C67.6392 42.2955 67.7358 42.8769 67.929 43.3807C68.1222 43.8807 68.4044 44.2727 68.7756 44.5568C69.1468 44.8371 69.6013 44.9773 70.1392 44.9773C70.6998 44.9773 71.1676 44.8295 71.5426 44.5341C71.9214 44.2348 72.2055 43.8333 72.3949 43.3295C72.5881 42.822 72.6847 42.2576 72.6847 41.6364C72.6847 41.0227 72.59 40.4697 72.4006 39.9773C72.215 39.4811 71.9328 39.089 71.554 38.8011C71.179 38.5095 70.7074 38.3636 70.1392 38.3636C69.5938 38.3636 69.1354 38.5019 68.7642 38.7784C68.393 39.0511 68.1127 39.4337 67.9233 39.9261C67.7339 40.4148 67.6392 40.9848 67.6392 41.6364ZM79.6165 46.1818C78.8286 46.1818 78.1373 45.9943 77.5426 45.6193C76.9517 45.2443 76.4896 44.7197 76.1562 44.0455C75.8267 43.3712 75.6619 42.5833 75.6619 41.6818C75.6619 40.7727 75.8267 39.9792 76.1562 39.3011C76.4896 38.6231 76.9517 38.0966 77.5426 37.7216C78.1373 37.3466 78.8286 37.1591 79.6165 37.1591C80.4044 37.1591 81.0938 37.3466 81.6847 37.7216C82.2794 38.0966 82.7415 38.6231 83.071 39.3011C83.4044 39.9792 83.571 40.7727 83.571 41.6818C83.571 42.5833 83.4044 43.3712 83.071 44.0455C82.7415 44.7197 82.2794 45.2443 81.6847 45.6193C81.0938 45.9943 80.4044 46.1818 79.6165 46.1818ZM79.6165 44.9773C80.215 44.9773 80.7074 44.8239 81.0938 44.517C81.4801 44.2102 81.7661 43.8068 81.9517 43.3068C82.1373 42.8068 82.2301 42.2652 82.2301 41.6818C82.2301 41.0985 82.1373 40.5549 81.9517 40.0511C81.7661 39.5473 81.4801 39.1402 81.0938 38.8295C80.7074 38.5189 80.215 38.3636 79.6165 38.3636C79.018 38.3636 78.5256 38.5189 78.1392 38.8295C77.7528 39.1402 77.4669 39.5473 77.2812 40.0511C77.0956 40.5549 77.0028 41.0985 77.0028 41.6818C77.0028 42.2652 77.0956 42.8068 77.2812 43.3068C77.4669 43.8068 77.7528 44.2102 78.1392 44.517C78.5256 44.8239 79.018 44.9773 79.6165 44.9773ZM86.9588 40.75V46H85.6179V37.2727H86.9134V38.6364H87.027C87.2315 38.1932 87.5421 37.8371 87.9588 37.5682C88.3755 37.2955 88.9134 37.1591 89.5724 37.1591C90.1634 37.1591 90.6804 37.2803 91.1236 37.5227C91.5668 37.7614 91.9115 38.125 92.1577 38.6136C92.4039 39.0985 92.527 39.7121 92.527 40.4545V46H91.1861V40.5455C91.1861 39.8598 91.008 39.3258 90.652 38.9432C90.2959 38.5568 89.8073 38.3636 89.1861 38.3636C88.758 38.3636 88.3755 38.4564 88.0384 38.642C87.705 38.8277 87.4418 39.0985 87.2486 39.4545C87.0554 39.8106 86.9588 40.2424 86.9588 40.75ZM98.6364 46.1818C97.7955 46.1818 97.0701 45.9962 96.4602 45.625C95.8542 45.25 95.3864 44.7273 95.0568 44.0568C94.7311 43.3826 94.5682 42.5985 94.5682 41.7045C94.5682 40.8106 94.7311 40.0227 95.0568 39.3409C95.3864 38.6553 95.8447 38.1212 96.4318 37.7386C97.0227 37.3523 97.7121 37.1591 98.5 37.1591C98.9545 37.1591 99.4034 37.2348 99.8466 37.3864C100.29 37.5379 100.693 37.7841 101.057 38.125C101.42 38.4621 101.71 38.9091 101.926 39.4659C102.142 40.0227 102.25 40.7083 102.25 41.5227V42.0909H95.5227V40.9318H100.886C100.886 40.4394 100.788 40 100.591 39.6136C100.398 39.2273 100.121 38.9223 99.7614 38.6989C99.4053 38.4754 98.9848 38.3636 98.5 38.3636C97.9659 38.3636 97.5038 38.4962 97.1136 38.7614C96.7273 39.0227 96.4299 39.3636 96.2216 39.7841C96.0133 40.2045 95.9091 40.6553 95.9091 41.1364V41.9091C95.9091 42.5682 96.0227 43.1269 96.25 43.5852C96.4811 44.0398 96.8011 44.3864 97.2102 44.625C97.6193 44.8598 98.0947 44.9773 98.6364 44.9773C98.9886 44.9773 99.3068 44.928 99.5909 44.8295C99.8788 44.7273 100.127 44.5758 100.335 44.375C100.544 44.1705 100.705 43.9167 100.818 43.6136L102.114 43.9773C101.977 44.4167 101.748 44.803 101.426 45.1364C101.104 45.4659 100.706 45.7235 100.233 45.9091C99.7595 46.0909 99.2273 46.1818 98.6364 46.1818ZM105.631 40.75V46H104.29V37.2727H105.585V38.6364H105.699C105.903 38.1932 106.214 37.8371 106.631 37.5682C107.047 37.2955 107.585 37.1591 108.244 37.1591C108.835 37.1591 109.352 37.2803 109.795 37.5227C110.239 37.7614 110.583 38.125 110.83 38.6136C111.076 39.0985 111.199 39.7121 111.199 40.4545V46H109.858V40.5455C109.858 39.8598 109.68 39.3258 109.324 38.9432C108.968 38.5568 108.479 38.3636 107.858 38.3636C107.43 38.3636 107.047 38.4564 106.71 38.642C106.377 38.8277 106.114 39.0985 105.92 39.4545C105.727 39.8106 105.631 40.2424 105.631 40.75ZM117.445 37.2727V38.4091H112.922V37.2727H117.445ZM114.24 35.1818H115.581V43.5C115.581 43.8788 115.636 44.1629 115.746 44.3523C115.859 44.5379 116.003 44.6629 116.178 44.7273C116.356 44.7879 116.543 44.8182 116.74 44.8182C116.888 44.8182 117.009 44.8106 117.104 44.7955C117.198 44.7765 117.274 44.7614 117.331 44.75L117.604 45.9545C117.513 45.9886 117.386 46.0227 117.223 46.0568C117.06 46.0947 116.854 46.1136 116.604 46.1136C116.225 46.1136 115.854 46.0322 115.49 45.8693C115.13 45.7064 114.831 45.4583 114.592 45.125C114.357 44.7917 114.24 44.3712 114.24 43.8636V35.1818ZM124.621 34.3636L128.075 44.1591H128.212L131.666 34.3636H133.143L128.871 46H127.416L123.143 34.3636H124.621ZM136.53 46.2045C135.977 46.2045 135.475 46.1004 135.024 45.892C134.573 45.6799 134.215 45.375 133.95 44.9773C133.685 44.5758 133.553 44.0909 133.553 43.5227C133.553 43.0227 133.651 42.6174 133.848 42.3068C134.045 41.9924 134.308 41.7462 134.638 41.5682C134.967 41.3902 135.331 41.2576 135.729 41.1705C136.13 41.0795 136.534 41.0076 136.939 40.9545C137.469 40.8864 137.899 40.8352 138.229 40.8011C138.562 40.7633 138.804 40.7008 138.956 40.6136C139.111 40.5265 139.189 40.375 139.189 40.1591V40.1136C139.189 39.553 139.036 39.1174 138.729 38.8068C138.426 38.4962 137.965 38.3409 137.348 38.3409C136.708 38.3409 136.206 38.4811 135.842 38.7614C135.479 39.0417 135.223 39.3409 135.075 39.6591L133.803 39.2045C134.03 38.6742 134.333 38.2614 134.712 37.9659C135.094 37.6667 135.511 37.4583 135.962 37.3409C136.416 37.2197 136.863 37.1591 137.303 37.1591C137.583 37.1591 137.905 37.1932 138.268 37.2614C138.636 37.3258 138.99 37.4602 139.331 37.6648C139.676 37.8693 139.962 38.178 140.189 38.5909C140.416 39.0038 140.53 39.5568 140.53 40.25V46H139.189V44.8182H139.121C139.03 45.0076 138.878 45.2102 138.666 45.4261C138.454 45.642 138.172 45.8258 137.82 45.9773C137.467 46.1288 137.037 46.2045 136.53 46.2045ZM136.734 45C137.265 45 137.712 44.8958 138.075 44.6875C138.443 44.4792 138.719 44.2102 138.905 43.8807C139.094 43.5511 139.189 43.2045 139.189 42.8409V41.6136C139.132 41.6818 139.007 41.7443 138.814 41.8011C138.625 41.8542 138.405 41.9015 138.155 41.9432C137.909 41.9811 137.668 42.0152 137.433 42.0455C137.202 42.072 137.015 42.0947 136.871 42.1136C136.522 42.1591 136.196 42.233 135.893 42.3352C135.594 42.4337 135.352 42.5833 135.166 42.7841C134.984 42.9811 134.893 43.25 134.893 43.5909C134.893 44.0568 135.066 44.4091 135.411 44.6477C135.759 44.8826 136.2 45 136.734 45ZM142.977 46V37.2727H144.273V38.5909H144.364C144.523 38.1591 144.811 37.8087 145.227 37.5398C145.644 37.2708 146.114 37.1364 146.636 37.1364C146.735 37.1364 146.858 37.1383 147.006 37.142C147.153 37.1458 147.265 37.1515 147.341 37.1591V38.5227C147.295 38.5114 147.191 38.4943 147.028 38.4716C146.869 38.4451 146.701 38.4318 146.523 38.4318C146.098 38.4318 145.72 38.5208 145.386 38.6989C145.057 38.8731 144.795 39.1155 144.602 39.4261C144.413 39.733 144.318 40.0833 144.318 40.4773V46H142.977ZM148.93 46V37.2727H150.271V46H148.93ZM149.612 35.8182C149.351 35.8182 149.125 35.7292 148.936 35.5511C148.75 35.3731 148.658 35.1591 148.658 34.9091C148.658 34.6591 148.75 34.4451 148.936 34.267C149.125 34.089 149.351 34 149.612 34C149.874 34 150.097 34.089 150.283 34.267C150.472 34.4451 150.567 34.6591 150.567 34.9091C150.567 35.1591 150.472 35.3731 150.283 35.5511C150.097 35.7292 149.874 35.8182 149.612 35.8182ZM155.295 46.2045C154.742 46.2045 154.241 46.1004 153.79 45.892C153.339 45.6799 152.981 45.375 152.716 44.9773C152.451 44.5758 152.318 44.0909 152.318 43.5227C152.318 43.0227 152.417 42.6174 152.614 42.3068C152.811 41.9924 153.074 41.7462 153.403 41.5682C153.733 41.3902 154.097 41.2576 154.494 41.1705C154.896 41.0795 155.299 41.0076 155.705 40.9545C156.235 40.8864 156.665 40.8352 156.994 40.8011C157.328 40.7633 157.57 40.7008 157.722 40.6136C157.877 40.5265 157.955 40.375 157.955 40.1591V40.1136C157.955 39.553 157.801 39.1174 157.494 38.8068C157.191 38.4962 156.731 38.3409 156.114 38.3409C155.473 38.3409 154.972 38.4811 154.608 38.7614C154.244 39.0417 153.989 39.3409 153.841 39.6591L152.568 39.2045C152.795 38.6742 153.098 38.2614 153.477 37.9659C153.86 37.6667 154.277 37.4583 154.727 37.3409C155.182 37.2197 155.629 37.1591 156.068 37.1591C156.348 37.1591 156.67 37.1932 157.034 37.2614C157.402 37.3258 157.756 37.4602 158.097 37.6648C158.441 37.8693 158.727 38.178 158.955 38.5909C159.182 39.0038 159.295 39.5568 159.295 40.25V46H157.955V44.8182H157.886C157.795 45.0076 157.644 45.2102 157.432 45.4261C157.22 45.642 156.938 45.8258 156.585 45.9773C156.233 46.1288 155.803 46.2045 155.295 46.2045ZM155.5 45C156.03 45 156.477 44.8958 156.841 44.6875C157.208 44.4792 157.485 44.2102 157.67 43.8807C157.86 43.5511 157.955 43.2045 157.955 42.8409V41.6136C157.898 41.6818 157.773 41.7443 157.58 41.8011C157.39 41.8542 157.17 41.9015 156.92 41.9432C156.674 41.9811 156.434 42.0152 156.199 42.0455C155.968 42.072 155.78 42.0947 155.636 42.1136C155.288 42.1591 154.962 42.233 154.659 42.3352C154.36 42.4337 154.117 42.5833 153.932 42.7841C153.75 42.9811 153.659 43.25 153.659 43.5909C153.659 44.0568 153.831 44.4091 154.176 44.6477C154.525 44.8826 154.966 45 155.5 45ZM163.084 40.75V46H161.743V37.2727H163.038V38.6364H163.152C163.357 38.1932 163.667 37.8371 164.084 37.5682C164.5 37.2955 165.038 37.1591 165.697 37.1591C166.288 37.1591 166.805 37.2803 167.249 37.5227C167.692 37.7614 168.036 38.125 168.283 38.6136C168.529 39.0985 168.652 39.7121 168.652 40.4545V46H167.311V40.5455C167.311 39.8598 167.133 39.3258 166.777 38.9432C166.421 38.5568 165.932 38.3636 165.311 38.3636C164.883 38.3636 164.5 38.4564 164.163 38.642C163.83 38.8277 163.567 39.0985 163.374 39.4545C163.18 39.8106 163.084 40.2424 163.084 40.75ZM174.898 37.2727V38.4091H170.375V37.2727H174.898ZM171.693 35.1818H173.034V43.5C173.034 43.8788 173.089 44.1629 173.199 44.3523C173.313 44.5379 173.456 44.6629 173.631 44.7273C173.809 44.7879 173.996 44.8182 174.193 44.8182C174.341 44.8182 174.462 44.8106 174.557 44.7955C174.652 44.7765 174.727 44.7614 174.784 44.75L175.057 45.9545C174.966 45.9886 174.839 46.0227 174.676 46.0568C174.513 46.0947 174.307 46.1136 174.057 46.1136C173.678 46.1136 173.307 46.0322 172.943 45.8693C172.583 45.7064 172.284 45.4583 172.045 45.125C171.811 44.7917 171.693 44.3712 171.693 43.8636V35.1818Z" fill="white" fill-opacity="0.95"/>
<mask id="path-4-inside-2_2395_6599" fill="white">
<path d="M300 6H800V74H300V6Z"/>
</mask>
<path d="M800 74V75H801V74H800ZM799 6V74H801V6H799ZM800 73H300V75H800V73Z" fill="#707070" mask="url(#path-4-inside-2_2395_6599)"/>
<rect x="332.5" y="32.5" width="15" height="15" rx="1.5" stroke="white" stroke-opacity="0.5"/>
<path d="M365.426 36H364.193C364.12 35.6454 363.993 35.3338 363.81 35.0653C363.631 34.7969 363.413 34.5715 363.154 34.3892C362.899 34.2036 362.616 34.0644 362.304 33.9716C361.992 33.8788 361.668 33.8324 361.33 33.8324C360.713 33.8324 360.155 33.9882 359.654 34.2997C359.157 34.6113 358.761 35.0703 358.466 35.6768C358.174 36.2834 358.028 37.0275 358.028 37.9091C358.028 38.7907 358.174 39.5348 358.466 40.1413C358.761 40.7479 359.157 41.2069 359.654 41.5185C360.155 41.83 360.713 41.9858 361.33 41.9858C361.668 41.9858 361.992 41.9394 362.304 41.8466C362.616 41.7538 362.899 41.6162 363.154 41.4339C363.413 41.2483 363.631 41.0213 363.81 40.7528C363.993 40.4811 364.12 40.1695 364.193 39.8182H365.426C365.333 40.3385 365.164 40.8042 364.919 41.2152C364.674 41.6262 364.369 41.9759 364.004 42.2642C363.64 42.5492 363.23 42.7663 362.776 42.9155C362.326 43.0646 361.843 43.1392 361.33 43.1392C360.461 43.1392 359.689 42.9271 359.013 42.5028C358.337 42.0786 357.805 41.4754 357.417 40.6932C357.029 39.911 356.835 38.983 356.835 37.9091C356.835 36.8352 357.029 35.9072 357.417 35.125C357.805 34.3428 358.337 33.7396 359.013 33.3153C359.689 32.8911 360.461 32.679 361.33 32.679C361.843 32.679 362.326 32.7536 362.776 32.9027C363.23 33.0518 363.64 33.2706 364.004 33.5589C364.369 33.844 364.674 34.192 364.919 34.603C365.164 35.0107 365.333 35.4763 365.426 36ZM368.433 38.4062V43H367.259V32.8182H368.433V36.5568H368.532C368.711 36.1624 368.98 35.8492 369.338 35.6172C369.699 35.3819 370.179 35.2642 370.779 35.2642C371.3 35.2642 371.755 35.3686 372.146 35.5774C372.538 35.7829 372.841 36.0994 373.056 36.527C373.275 36.9512 373.384 37.4915 373.384 38.1477V43H372.211V38.2273C372.211 37.6207 372.054 37.1518 371.739 36.8203C371.427 36.4856 370.995 36.3182 370.441 36.3182C370.057 36.3182 369.712 36.3994 369.407 36.5618C369.106 36.7242 368.867 36.9612 368.691 37.2727C368.519 37.5843 368.433 37.9621 368.433 38.4062ZM378.733 43.1591C377.997 43.1591 377.362 42.9967 376.828 42.6719C376.298 42.3438 375.889 41.8864 375.6 41.2997C375.315 40.7098 375.173 40.0237 375.173 39.2415C375.173 38.4593 375.315 37.7699 375.6 37.1733C375.889 36.5734 376.29 36.1061 376.804 35.7713C377.321 35.4332 377.924 35.2642 378.613 35.2642C379.011 35.2642 379.404 35.3305 379.792 35.4631C380.179 35.5956 380.532 35.8111 380.85 36.1094C381.169 36.4044 381.422 36.7955 381.611 37.2827C381.8 37.7699 381.895 38.3698 381.895 39.0824V39.5795H376.008V38.5653H380.701C380.701 38.1345 380.615 37.75 380.443 37.4119C380.274 37.0739 380.032 36.8071 379.717 36.6115C379.405 36.416 379.038 36.3182 378.613 36.3182C378.146 36.3182 377.742 36.4342 377.4 36.6662C377.062 36.8949 376.802 37.1932 376.62 37.5611C376.437 37.929 376.346 38.3234 376.346 38.7443V39.4205C376.346 39.9972 376.446 40.486 376.645 40.8871C376.847 41.2848 377.127 41.5881 377.485 41.7969C377.843 42.0024 378.259 42.1051 378.733 42.1051C379.041 42.1051 379.319 42.062 379.568 41.9759C379.82 41.8864 380.037 41.7538 380.219 41.5781C380.401 41.3991 380.542 41.1771 380.642 40.9119L381.775 41.2301C381.656 41.6146 381.455 41.9527 381.174 42.2443C380.892 42.5327 380.544 42.758 380.13 42.9205C379.715 43.0795 379.25 43.1591 378.733 43.1591ZM386.782 43.1591C386.066 43.1591 385.449 42.9901 384.932 42.652C384.415 42.3139 384.017 41.8482 383.739 41.255C383.461 40.6617 383.321 39.9839 383.321 39.2216C383.321 38.446 383.464 37.7616 383.749 37.1683C384.037 36.5717 384.438 36.1061 384.952 35.7713C385.469 35.4332 386.072 35.2642 386.762 35.2642C387.299 35.2642 387.783 35.3636 388.213 35.5625C388.644 35.7614 388.997 36.0398 389.272 36.3977C389.547 36.7557 389.718 37.1733 389.784 37.6506H388.611C388.522 37.3026 388.323 36.9943 388.015 36.7259C387.71 36.4541 387.299 36.3182 386.782 36.3182C386.324 36.3182 385.923 36.4375 385.578 36.6761C385.237 36.9115 384.97 37.2446 384.778 37.6754C384.589 38.103 384.495 38.6051 384.495 39.1818C384.495 39.7718 384.587 40.2855 384.773 40.723C384.962 41.1605 385.227 41.5002 385.569 41.7422C385.913 41.9841 386.318 42.1051 386.782 42.1051C387.087 42.1051 387.363 42.0521 387.612 41.946C387.86 41.84 388.071 41.6875 388.243 41.4886C388.416 41.2898 388.538 41.0511 388.611 40.7727H389.784C389.718 41.2235 389.554 41.6295 389.292 41.9908C389.034 42.3487 388.691 42.6338 388.263 42.8459C387.839 43.0547 387.345 43.1591 386.782 43.1591ZM392.593 40.2159L392.574 38.7642H392.812L396.153 35.3636H397.605L394.045 38.9631H393.946L392.593 40.2159ZM391.5 43V32.8182H392.673V43H391.5ZM396.352 43L393.369 39.2216L394.204 38.4062L397.843 43H396.352ZM399.274 43V32.8182H400.447V36.5767H400.547C400.633 36.4441 400.752 36.2751 400.905 36.0696C401.06 35.8608 401.282 35.6752 401.571 35.5128C401.863 35.3471 402.257 35.2642 402.754 35.2642C403.397 35.2642 403.964 35.425 404.454 35.7464C404.945 36.0679 405.328 36.5237 405.603 37.1136C405.878 37.7036 406.015 38.3996 406.015 39.2017C406.015 40.0104 405.878 40.7114 405.603 41.3047C405.328 41.8946 404.947 42.352 404.459 42.6768C403.972 42.9983 403.41 43.1591 402.774 43.1591C402.283 43.1591 401.891 43.0779 401.596 42.9155C401.301 42.7498 401.074 42.5625 400.915 42.3537C400.756 42.1416 400.633 41.9659 400.547 41.8267H400.407V43H399.274ZM400.427 39.1818C400.427 39.7585 400.512 40.2673 400.681 40.7081C400.85 41.1456 401.097 41.4886 401.422 41.7372C401.747 41.9825 402.144 42.1051 402.615 42.1051C403.105 42.1051 403.515 41.9759 403.843 41.7173C404.174 41.4555 404.423 41.1042 404.589 40.6634C404.758 40.2192 404.842 39.7254 404.842 39.1818C404.842 38.6449 404.759 38.161 404.594 37.7301C404.431 37.2959 404.184 36.9529 403.853 36.701C403.525 36.4458 403.112 36.3182 402.615 36.3182C402.138 36.3182 401.737 36.4392 401.412 36.6811C401.087 36.9197 400.842 37.2545 400.676 37.6854C400.51 38.1129 400.427 38.6117 400.427 39.1818ZM410.912 43.1591C410.223 43.1591 409.618 42.995 409.098 42.6669C408.581 42.3388 408.176 41.8797 407.885 41.2898C407.596 40.6998 407.452 40.0104 407.452 39.2216C407.452 38.4261 407.596 37.7318 407.885 37.1385C408.176 36.5452 408.581 36.0845 409.098 35.7564C409.618 35.4283 410.223 35.2642 410.912 35.2642C411.602 35.2642 412.205 35.4283 412.722 35.7564C413.242 36.0845 413.647 36.5452 413.935 37.1385C414.227 37.7318 414.373 38.4261 414.373 39.2216C414.373 40.0104 414.227 40.6998 413.935 41.2898C413.647 41.8797 413.242 42.3388 412.722 42.6669C412.205 42.995 411.602 43.1591 410.912 43.1591ZM410.912 42.1051C411.436 42.1051 411.867 41.9709 412.205 41.7024C412.543 41.4339 412.793 41.081 412.956 40.6435C413.118 40.206 413.199 39.732 413.199 39.2216C413.199 38.7112 413.118 38.2356 412.956 37.7947C412.793 37.3539 412.543 36.9976 412.205 36.7259C411.867 36.4541 411.436 36.3182 410.912 36.3182C410.389 36.3182 409.958 36.4541 409.62 36.7259C409.282 36.9976 409.032 37.3539 408.869 37.7947C408.707 38.2356 408.626 38.7112 408.626 39.2216C408.626 39.732 408.707 40.206 408.869 40.6435C409.032 41.081 409.282 41.4339 409.62 41.7024C409.958 41.9709 410.389 42.1051 410.912 42.1051ZM416.724 35.3636L418.554 38.4858L420.383 35.3636H421.736L419.27 39.1818L421.736 43H420.383L418.554 40.0369L416.724 43H415.372L417.798 39.1818L415.372 35.3636H416.724ZM427.506 43V32.8182H428.739V41.9062H433.472V43H427.506ZM437.469 43.179C436.986 43.179 436.546 43.0878 436.152 42.9055C435.758 42.7199 435.444 42.4531 435.212 42.1051C434.98 41.7538 434.864 41.3295 434.864 40.8324C434.864 40.3949 434.951 40.0402 435.123 39.7685C435.295 39.4934 435.526 39.2779 435.814 39.1222C436.102 38.9664 436.42 38.8504 436.768 38.7741C437.12 38.6946 437.473 38.6316 437.827 38.5852C438.291 38.5256 438.668 38.4808 438.956 38.451C439.248 38.4179 439.46 38.3632 439.592 38.2869C439.728 38.2107 439.796 38.0781 439.796 37.8892V37.8494C439.796 37.3589 439.662 36.9777 439.393 36.706C439.128 36.4342 438.726 36.2983 438.185 36.2983C437.625 36.2983 437.186 36.4209 436.868 36.6662C436.55 36.9115 436.326 37.1733 436.197 37.4517L435.083 37.054C435.282 36.59 435.547 36.2287 435.879 35.9702C436.213 35.7083 436.578 35.526 436.972 35.4233C437.37 35.3172 437.761 35.2642 438.146 35.2642C438.391 35.2642 438.673 35.294 438.991 35.3537C439.312 35.41 439.622 35.5277 439.92 35.7067C440.222 35.8857 440.472 36.1558 440.671 36.517C440.87 36.8783 440.969 37.3622 440.969 37.9688V43H439.796V41.9659H439.737C439.657 42.1316 439.524 42.3089 439.339 42.4979C439.153 42.6868 438.906 42.8475 438.598 42.9801C438.29 43.1127 437.914 43.179 437.469 43.179ZM437.648 42.125C438.112 42.125 438.504 42.0339 438.822 41.8516C439.143 41.6693 439.385 41.4339 439.548 41.1456C439.713 40.8572 439.796 40.554 439.796 40.2358V39.1619C439.746 39.2216 439.637 39.2763 439.468 39.326C439.302 39.3724 439.11 39.4138 438.891 39.4503C438.676 39.4834 438.465 39.5133 438.26 39.5398C438.058 39.563 437.894 39.5829 437.768 39.5994C437.463 39.6392 437.178 39.7038 436.913 39.7933C436.651 39.8795 436.439 40.0104 436.276 40.1861C436.117 40.3584 436.038 40.5937 436.038 40.892C436.038 41.2997 436.188 41.608 436.49 41.8168C436.795 42.0223 437.181 42.125 437.648 42.125ZM443.27 43V32.8182H444.443V36.5767H444.543C444.629 36.4441 444.748 36.2751 444.901 36.0696C445.057 35.8608 445.279 35.6752 445.567 35.5128C445.859 35.3471 446.253 35.2642 446.75 35.2642C447.393 35.2642 447.96 35.425 448.45 35.7464C448.941 36.0679 449.324 36.5237 449.599 37.1136C449.874 37.7036 450.012 38.3996 450.012 39.2017C450.012 40.0104 449.874 40.7114 449.599 41.3047C449.324 41.8946 448.943 42.352 448.455 42.6768C447.968 42.9983 447.406 43.1591 446.77 43.1591C446.28 43.1591 445.887 43.0779 445.592 42.9155C445.297 42.7498 445.07 42.5625 444.911 42.3537C444.752 42.1416 444.629 41.9659 444.543 41.8267H444.404V43H443.27ZM444.423 39.1818C444.423 39.7585 444.508 40.2673 444.677 40.7081C444.846 41.1456 445.093 41.4886 445.418 41.7372C445.743 41.9825 446.14 42.1051 446.611 42.1051C447.102 42.1051 447.511 41.9759 447.839 41.7173C448.17 41.4555 448.419 41.1042 448.585 40.6634C448.754 40.2192 448.838 39.7254 448.838 39.1818C448.838 38.6449 448.755 38.161 448.59 37.7301C448.427 37.2959 448.18 36.9529 447.849 36.701C447.521 36.4458 447.108 36.3182 446.611 36.3182C446.134 36.3182 445.733 36.4392 445.408 36.6811C445.083 36.9197 444.838 37.2545 444.672 37.6854C444.506 38.1129 444.423 38.6117 444.423 39.1818ZM455.008 43.1591C454.272 43.1591 453.637 42.9967 453.104 42.6719C452.574 42.3438 452.164 41.8864 451.876 41.2997C451.591 40.7098 451.448 40.0237 451.448 39.2415C451.448 38.4593 451.591 37.7699 451.876 37.1733C452.164 36.5734 452.565 36.1061 453.079 35.7713C453.596 35.4332 454.199 35.2642 454.889 35.2642C455.286 35.2642 455.679 35.3305 456.067 35.4631C456.455 35.5956 456.808 35.8111 457.126 36.1094C457.444 36.4044 457.698 36.7955 457.887 37.2827C458.075 37.7699 458.17 38.3698 458.17 39.0824V39.5795H452.284V38.5653H456.977C456.977 38.1345 456.891 37.75 456.718 37.4119C456.549 37.0739 456.307 36.8071 455.992 36.6115C455.681 36.416 455.313 36.3182 454.889 36.3182C454.421 36.3182 454.017 36.4342 453.676 36.6662C453.338 36.8949 453.077 37.1932 452.895 37.5611C452.713 37.929 452.622 38.3234 452.622 38.7443V39.4205C452.622 39.9972 452.721 40.486 452.92 40.8871C453.122 41.2848 453.402 41.5881 453.76 41.7969C454.118 42.0024 454.534 42.1051 455.008 42.1051C455.316 42.1051 455.595 42.062 455.843 41.9759C456.095 41.8864 456.312 41.7538 456.494 41.5781C456.677 41.3991 456.818 41.1771 456.917 40.9119L458.051 41.2301C457.931 41.6146 457.731 41.9527 457.449 42.2443C457.167 42.5327 456.819 42.758 456.405 42.9205C455.991 43.0795 455.525 43.1591 455.008 43.1591ZM461.128 32.8182V43H459.955V32.8182H461.128Z" fill="white" fill-opacity="0.95"/>
<mask id="path-9-inside-3_2395_6599" fill="white">
<path d="M800 6H1300V74H800V6Z"/>
</mask>
<path d="M1300 74V75H1301V74H1300ZM1299 6V74H1301V6H1299ZM1300 73H800V75H1300V73Z" fill="white" fill-opacity="0.3" mask="url(#path-9-inside-3_2395_6599)"/>
<path d="M832.818 22.3636V34H831.409V22.3636H832.818ZM836.803 28.75V34H835.462V25.2727H836.757V26.6364H836.871C837.075 26.1932 837.386 25.8371 837.803 25.5682C838.219 25.2955 838.757 25.1591 839.416 25.1591C840.007 25.1591 840.524 25.2803 840.967 25.5227C841.411 25.7614 841.755 26.125 842.001 26.6136C842.248 27.0985 842.371 27.7121 842.371 28.4545V34H841.03V28.5455C841.03 27.8598 840.852 27.3258 840.496 26.9432C840.14 26.5568 839.651 26.3636 839.03 26.3636C838.602 26.3636 838.219 26.4564 837.882 26.642C837.549 26.8277 837.286 27.0985 837.092 27.4545C836.899 27.8106 836.803 28.2424 836.803 28.75ZM848.707 25.2727V26.4091H844.003V25.2727H848.707ZM845.412 34V24.0682C845.412 23.5682 845.529 23.1515 845.764 22.8182C845.999 22.4848 846.304 22.2348 846.679 22.0682C847.054 21.9015 847.45 21.8182 847.866 21.8182C848.196 21.8182 848.465 21.8447 848.673 21.8977C848.882 21.9508 849.037 22 849.139 22.0455L848.753 23.2045C848.685 23.1818 848.59 23.1534 848.469 23.1193C848.351 23.0852 848.196 23.0682 848.003 23.0682C847.56 23.0682 847.24 23.1799 847.043 23.4034C846.849 23.6269 846.753 23.9545 846.753 24.3864V34H845.412ZM853.773 34.1818C852.985 34.1818 852.294 33.9943 851.699 33.6193C851.108 33.2443 850.646 32.7197 850.312 32.0455C849.983 31.3712 849.818 30.5833 849.818 29.6818C849.818 28.7727 849.983 27.9792 850.312 27.3011C850.646 26.6231 851.108 26.0966 851.699 25.7216C852.294 25.3466 852.985 25.1591 853.773 25.1591C854.561 25.1591 855.25 25.3466 855.841 25.7216C856.436 26.0966 856.898 26.6231 857.227 27.3011C857.561 27.9792 857.727 28.7727 857.727 29.6818C857.727 30.5833 857.561 31.3712 857.227 32.0455C856.898 32.7197 856.436 33.2443 855.841 33.6193C855.25 33.9943 854.561 34.1818 853.773 34.1818ZM853.773 32.9773C854.371 32.9773 854.864 32.8239 855.25 32.517C855.636 32.2102 855.922 31.8068 856.108 31.3068C856.294 30.8068 856.386 30.2652 856.386 29.6818C856.386 29.0985 856.294 28.5549 856.108 28.0511C855.922 27.5473 855.636 27.1402 855.25 26.8295C854.864 26.5189 854.371 26.3636 853.773 26.3636C853.174 26.3636 852.682 26.5189 852.295 26.8295C851.909 27.1402 851.623 27.5473 851.438 28.0511C851.252 28.5549 851.159 29.0985 851.159 29.6818C851.159 30.2652 851.252 30.8068 851.438 31.3068C851.623 31.8068 851.909 32.2102 852.295 32.517C852.682 32.8239 853.174 32.9773 853.773 32.9773ZM859.774 34V25.2727H861.07V26.5909H861.161C861.32 26.1591 861.607 25.8087 862.024 25.5398C862.441 25.2708 862.911 25.1364 863.433 25.1364C863.532 25.1364 863.655 25.1383 863.803 25.142C863.95 25.1458 864.062 25.1515 864.138 25.1591V26.5227C864.092 26.5114 863.988 26.4943 863.825 26.4716C863.666 26.4451 863.498 26.4318 863.32 26.4318C862.895 26.4318 862.517 26.5208 862.183 26.6989C861.854 26.8731 861.592 27.1155 861.399 27.4261C861.21 27.733 861.115 28.0833 861.115 28.4773V34H859.774ZM865.727 34V25.2727H867.023V26.6364H867.136C867.318 26.1705 867.612 25.8087 868.017 25.5511C868.422 25.2898 868.909 25.1591 869.477 25.1591C870.053 25.1591 870.532 25.2898 870.915 25.5511C871.301 25.8087 871.602 26.1705 871.818 26.6364H871.909C872.133 26.1856 872.468 25.8277 872.915 25.5625C873.362 25.2936 873.898 25.1591 874.523 25.1591C875.303 25.1591 875.941 25.4034 876.438 25.892C876.934 26.3769 877.182 27.1326 877.182 28.1591V34H875.841V28.1591C875.841 27.5152 875.665 27.0549 875.312 26.7784C874.96 26.5019 874.545 26.3636 874.068 26.3636C873.455 26.3636 872.979 26.5492 872.642 26.9205C872.305 27.2879 872.136 27.7538 872.136 28.3182V34H870.773V28.0227C870.773 27.5265 870.612 27.1269 870.29 26.8239C869.968 26.517 869.553 26.3636 869.045 26.3636C868.697 26.3636 868.371 26.4564 868.068 26.642C867.769 26.8277 867.527 27.0852 867.341 27.4148C867.159 27.7405 867.068 28.1174 867.068 28.5455V34H865.727ZM882.202 34.2045C881.649 34.2045 881.147 34.1004 880.696 33.892C880.245 33.6799 879.887 33.375 879.622 32.9773C879.357 32.5758 879.224 32.0909 879.224 31.5227C879.224 31.0227 879.323 30.6174 879.52 30.3068C879.717 29.9924 879.98 29.7462 880.31 29.5682C880.639 29.3902 881.003 29.2576 881.401 29.1705C881.802 29.0795 882.205 29.0076 882.611 28.9545C883.141 28.8864 883.571 28.8352 883.901 28.8011C884.234 28.7633 884.476 28.7008 884.628 28.6136C884.783 28.5265 884.861 28.375 884.861 28.1591V28.1136C884.861 27.553 884.707 27.1174 884.401 26.8068C884.098 26.4962 883.637 26.3409 883.02 26.3409C882.38 26.3409 881.878 26.4811 881.514 26.7614C881.151 27.0417 880.895 27.3409 880.747 27.6591L879.474 27.2045C879.702 26.6742 880.005 26.2614 880.384 25.9659C880.766 25.6667 881.183 25.4583 881.634 25.3409C882.088 25.2197 882.535 25.1591 882.974 25.1591C883.255 25.1591 883.577 25.1932 883.94 25.2614C884.308 25.3258 884.662 25.4602 885.003 25.6648C885.348 25.8693 885.634 26.178 885.861 26.5909C886.088 27.0038 886.202 27.5568 886.202 28.25V34H884.861V32.8182H884.793C884.702 33.0076 884.55 33.2102 884.338 33.4261C884.126 33.642 883.844 33.8258 883.491 33.9773C883.139 34.1288 882.709 34.2045 882.202 34.2045ZM882.406 33C882.937 33 883.384 32.8958 883.747 32.6875C884.115 32.4792 884.391 32.2102 884.577 31.8807C884.766 31.5511 884.861 31.2045 884.861 30.8409V29.6136C884.804 29.6818 884.679 29.7443 884.486 29.8011C884.296 29.8542 884.077 29.9015 883.827 29.9432C883.58 29.9811 883.34 30.0152 883.105 30.0455C882.874 30.072 882.687 30.0947 882.543 30.1136C882.194 30.1591 881.868 30.233 881.565 30.3352C881.266 30.4337 881.024 30.5833 880.838 30.7841C880.656 30.9811 880.565 31.25 880.565 31.5909C880.565 32.0568 880.738 32.4091 881.082 32.6477C881.431 32.8826 881.872 33 882.406 33ZM892.445 25.2727V26.4091H887.922V25.2727H892.445ZM889.24 23.1818H890.581V31.5C890.581 31.8788 890.636 32.1629 890.746 32.3523C890.859 32.5379 891.003 32.6629 891.178 32.7273C891.356 32.7879 891.543 32.8182 891.74 32.8182C891.888 32.8182 892.009 32.8106 892.104 32.7955C892.198 32.7765 892.274 32.7614 892.331 32.75L892.604 33.9545C892.513 33.9886 892.386 34.0227 892.223 34.0568C892.06 34.0947 891.854 34.1136 891.604 34.1136C891.225 34.1136 890.854 34.0322 890.49 33.8693C890.13 33.7064 889.831 33.4583 889.592 33.125C889.357 32.7917 889.24 32.3712 889.24 31.8636V23.1818ZM894.462 34V25.2727H895.803V34H894.462ZM895.143 23.8182C894.882 23.8182 894.657 23.7292 894.467 23.5511C894.282 23.3731 894.189 23.1591 894.189 22.9091C894.189 22.6591 894.282 22.4451 894.467 22.267C894.657 22.089 894.882 22 895.143 22C895.405 22 895.628 22.089 895.814 22.267C896.003 22.4451 896.098 22.6591 896.098 22.9091C896.098 23.1591 896.003 23.3731 895.814 23.5511C895.628 23.7292 895.405 23.8182 895.143 23.8182ZM901.804 34.1818C901.016 34.1818 900.325 33.9943 899.73 33.6193C899.139 33.2443 898.677 32.7197 898.344 32.0455C898.014 31.3712 897.849 30.5833 897.849 29.6818C897.849 28.7727 898.014 27.9792 898.344 27.3011C898.677 26.6231 899.139 26.0966 899.73 25.7216C900.325 25.3466 901.016 25.1591 901.804 25.1591C902.592 25.1591 903.281 25.3466 903.872 25.7216C904.467 26.0966 904.929 26.6231 905.259 27.3011C905.592 27.9792 905.759 28.7727 905.759 29.6818C905.759 30.5833 905.592 31.3712 905.259 32.0455C904.929 32.7197 904.467 33.2443 903.872 33.6193C903.281 33.9943 902.592 34.1818 901.804 34.1818ZM901.804 32.9773C902.402 32.9773 902.895 32.8239 903.281 32.517C903.668 32.2102 903.954 31.8068 904.139 31.3068C904.325 30.8068 904.418 30.2652 904.418 29.6818C904.418 29.0985 904.325 28.5549 904.139 28.0511C903.954 27.5473 903.668 27.1402 903.281 26.8295C902.895 26.5189 902.402 26.3636 901.804 26.3636C901.205 26.3636 900.713 26.5189 900.327 26.8295C899.94 27.1402 899.654 27.5473 899.469 28.0511C899.283 28.5549 899.19 29.0985 899.19 29.6818C899.19 30.2652 899.283 30.8068 899.469 31.3068C899.654 31.8068 899.94 32.2102 900.327 32.517C900.713 32.8239 901.205 32.9773 901.804 32.9773ZM909.146 28.75V34H907.805V25.2727H909.101V26.6364H909.214C909.419 26.1932 909.73 25.8371 910.146 25.5682C910.563 25.2955 911.101 25.1591 911.76 25.1591C912.351 25.1591 912.868 25.2803 913.311 25.5227C913.754 25.7614 914.099 26.125 914.345 26.6136C914.591 27.0985 914.714 27.7121 914.714 28.4545V34H913.374V28.5455C913.374 27.8598 913.196 27.3258 912.839 26.9432C912.483 26.5568 911.995 26.3636 911.374 26.3636C910.946 26.3636 910.563 26.4564 910.226 26.642C909.893 26.8277 909.629 27.0985 909.436 27.4545C909.243 27.8106 909.146 28.2424 909.146 28.75ZM925.21 34.1818C924.422 34.1818 923.731 33.9943 923.136 33.6193C922.545 33.2443 922.083 32.7197 921.75 32.0455C921.42 31.3712 921.256 30.5833 921.256 29.6818C921.256 28.7727 921.42 27.9792 921.75 27.3011C922.083 26.6231 922.545 26.0966 923.136 25.7216C923.731 25.3466 924.422 25.1591 925.21 25.1591C925.998 25.1591 926.688 25.3466 927.278 25.7216C927.873 26.0966 928.335 26.6231 928.665 27.3011C928.998 27.9792 929.165 28.7727 929.165 29.6818C929.165 30.5833 928.998 31.3712 928.665 32.0455C928.335 32.7197 927.873 33.2443 927.278 33.6193C926.688 33.9943 925.998 34.1818 925.21 34.1818ZM925.21 32.9773C925.809 32.9773 926.301 32.8239 926.688 32.517C927.074 32.2102 927.36 31.8068 927.545 31.3068C927.731 30.8068 927.824 30.2652 927.824 29.6818C927.824 29.0985 927.731 28.5549 927.545 28.0511C927.36 27.5473 927.074 27.1402 926.688 26.8295C926.301 26.5189 925.809 26.3636 925.21 26.3636C924.612 26.3636 924.119 26.5189 923.733 26.8295C923.347 27.1402 923.061 27.5473 922.875 28.0511C922.689 28.5549 922.597 29.0985 922.597 29.6818C922.597 30.2652 922.689 30.8068 922.875 31.3068C923.061 31.8068 923.347 32.2102 923.733 32.517C924.119 32.8239 924.612 32.9773 925.21 32.9773ZM932.553 28.75V34H931.212V25.2727H932.507V26.6364H932.621C932.825 26.1932 933.136 25.8371 933.553 25.5682C933.969 25.2955 934.507 25.1591 935.166 25.1591C935.757 25.1591 936.274 25.2803 936.717 25.5227C937.161 25.7614 937.505 26.125 937.751 26.6136C937.998 27.0985 938.121 27.7121 938.121 28.4545V34H936.78V28.5455C936.78 27.8598 936.602 27.3258 936.246 26.9432C935.89 26.5568 935.401 26.3636 934.78 26.3636C934.352 26.3636 933.969 26.4564 933.632 26.642C933.299 26.8277 933.036 27.0985 932.842 27.4545C932.649 27.8106 932.553 28.2424 932.553 28.75ZM948.866 25.2727V26.4091H944.344V25.2727H948.866ZM945.662 23.1818H947.003V31.5C947.003 31.8788 947.058 32.1629 947.168 32.3523C947.281 32.5379 947.425 32.6629 947.599 32.7273C947.777 32.7879 947.965 32.8182 948.162 32.8182C948.31 32.8182 948.431 32.8106 948.526 32.7955C948.62 32.7765 948.696 32.7614 948.753 32.75L949.026 33.9545C948.935 33.9886 948.808 34.0227 948.645 34.0568C948.482 34.0947 948.276 34.1136 948.026 34.1136C947.647 34.1136 947.276 34.0322 946.912 33.8693C946.552 33.7064 946.253 33.4583 946.014 33.125C945.779 32.7917 945.662 32.3712 945.662 31.8636V23.1818ZM952.412 28.75V34H951.071V22.3636H952.412V26.6364H952.526C952.73 26.1856 953.037 25.8277 953.446 25.5625C953.859 25.2936 954.408 25.1591 955.094 25.1591C955.688 25.1591 956.209 25.2784 956.656 25.517C957.103 25.7519 957.45 26.1136 957.696 26.6023C957.946 27.0871 958.071 27.7045 958.071 28.4545V34H956.73V28.5455C956.73 27.8523 956.55 27.3163 956.19 26.9375C955.834 26.5549 955.34 26.3636 954.707 26.3636C954.268 26.3636 953.874 26.4564 953.526 26.642C953.181 26.8277 952.908 27.0985 952.707 27.4545C952.51 27.8106 952.412 28.2424 952.412 28.75ZM960.524 34V25.2727H961.865V34H960.524ZM961.206 23.8182C960.945 23.8182 960.719 23.7292 960.53 23.5511C960.344 23.3731 960.251 23.1591 960.251 22.9091C960.251 22.6591 960.344 22.4451 960.53 22.267C960.719 22.089 960.945 22 961.206 22C961.467 22 961.691 22.089 961.876 22.267C962.066 22.4451 962.161 22.6591 962.161 22.9091C962.161 23.1591 962.066 23.3731 961.876 23.5511C961.691 23.7292 961.467 23.8182 961.206 23.8182ZM970.503 27.2273L969.298 27.5682C969.223 27.3674 969.111 27.1723 968.963 26.983C968.819 26.7898 968.622 26.6307 968.372 26.5057C968.122 26.3807 967.802 26.3182 967.412 26.3182C966.878 26.3182 966.433 26.4413 966.077 26.6875C965.724 26.9299 965.548 27.2386 965.548 27.6136C965.548 27.947 965.67 28.2102 965.912 28.4034C966.154 28.5966 966.533 28.7576 967.048 28.8864L968.344 29.2045C969.124 29.3939 969.705 29.6837 970.088 30.0739C970.471 30.4602 970.662 30.9583 970.662 31.5682C970.662 32.0682 970.518 32.5152 970.23 32.9091C969.946 33.303 969.548 33.6136 969.037 33.8409C968.526 34.0682 967.931 34.1818 967.253 34.1818C966.363 34.1818 965.626 33.9886 965.043 33.6023C964.459 33.2159 964.09 32.6515 963.935 31.9091L965.207 31.5909C965.329 32.0606 965.558 32.4129 965.895 32.6477C966.236 32.8826 966.681 33 967.23 33C967.855 33 968.351 32.8674 968.719 32.6023C969.09 32.3333 969.276 32.0114 969.276 31.6364C969.276 31.3333 969.17 31.0795 968.957 30.875C968.745 30.6667 968.42 30.5114 967.98 30.4091L966.526 30.0682C965.726 29.8788 965.139 29.5852 964.764 29.1875C964.393 28.786 964.207 28.2841 964.207 27.6818C964.207 27.1894 964.346 26.7538 964.622 26.375C964.902 25.9962 965.283 25.6989 965.764 25.483C966.249 25.267 966.798 25.1591 967.412 25.1591C968.276 25.1591 968.954 25.3485 969.446 25.7273C969.942 26.1061 970.295 26.6061 970.503 27.2273ZM978.521 22.3636V34H977.18V22.3636H978.521ZM983.545 34.2045C982.992 34.2045 982.491 34.1004 982.04 33.892C981.589 33.6799 981.231 33.375 980.966 32.9773C980.701 32.5758 980.568 32.0909 980.568 31.5227C980.568 31.0227 980.667 30.6174 980.864 30.3068C981.061 29.9924 981.324 29.7462 981.653 29.5682C981.983 29.3902 982.347 29.2576 982.744 29.1705C983.146 29.0795 983.549 29.0076 983.955 28.9545C984.485 28.8864 984.915 28.8352 985.244 28.8011C985.578 28.7633 985.82 28.7008 985.972 28.6136C986.127 28.5265 986.205 28.375 986.205 28.1591V28.1136C986.205 27.553 986.051 27.1174 985.744 26.8068C985.441 26.4962 984.981 26.3409 984.364 26.3409C983.723 26.3409 983.222 26.4811 982.858 26.7614C982.494 27.0417 982.239 27.3409 982.091 27.6591L980.818 27.2045C981.045 26.6742 981.348 26.2614 981.727 25.9659C982.11 25.6667 982.527 25.4583 982.977 25.3409C983.432 25.2197 983.879 25.1591 984.318 25.1591C984.598 25.1591 984.92 25.1932 985.284 25.2614C985.652 25.3258 986.006 25.4602 986.347 25.6648C986.691 25.8693 986.977 26.178 987.205 26.5909C987.432 27.0038 987.545 27.5568 987.545 28.25V34H986.205V32.8182H986.136C986.045 33.0076 985.894 33.2102 985.682 33.4261C985.47 33.642 985.188 33.8258 984.835 33.9773C984.483 34.1288 984.053 34.2045 983.545 34.2045ZM983.75 33C984.28 33 984.727 32.8958 985.091 32.6875C985.458 32.4792 985.735 32.2102 985.92 31.8807C986.11 31.5511 986.205 31.2045 986.205 30.8409V29.6136C986.148 29.6818 986.023 29.7443 985.83 29.8011C985.64 29.8542 985.42 29.9015 985.17 29.9432C984.924 29.9811 984.684 30.0152 984.449 30.0455C984.218 30.072 984.03 30.0947 983.886 30.1136C983.538 30.1591 983.212 30.233 982.909 30.3352C982.61 30.4337 982.367 30.5833 982.182 30.7841C982 30.9811 981.909 31.25 981.909 31.5909C981.909 32.0568 982.081 32.4091 982.426 32.6477C982.775 32.8826 983.216 33 983.75 33ZM990.544 37.25C990.317 37.25 990.114 37.2311 989.936 37.1932C989.758 37.1591 989.635 37.125 989.567 37.0909L989.908 35.9091C990.396 36.0341 990.804 36.0303 991.129 35.8977C991.455 35.7689 991.737 35.3788 991.976 34.7273L992.226 34.0455L988.999 25.2727H990.453L992.862 32.2273H992.953L995.362 25.2727L996.828 25.2955L993.112 35.2727C992.946 35.7159 992.739 36.0833 992.493 36.375C992.247 36.6705 991.961 36.8902 991.635 37.0341C991.313 37.178 990.949 37.25 990.544 37.25ZM1001.84 34.1818C1001.05 34.1818 1000.36 33.9943 999.761 33.6193C999.17 33.2443 998.708 32.7197 998.375 32.0455C998.045 31.3712 997.881 30.5833 997.881 29.6818C997.881 28.7727 998.045 27.9792 998.375 27.3011C998.708 26.6231 999.17 26.0966 999.761 25.7216C1000.36 25.3466 1001.05 25.1591 1001.84 25.1591C1002.62 25.1591 1003.31 25.3466 1003.9 25.7216C1004.5 26.0966 1004.96 26.6231 1005.29 27.3011C1005.62 27.9792 1005.79 28.7727 1005.79 29.6818C1005.79 30.5833 1005.62 31.3712 1005.29 32.0455C1004.96 32.7197 1004.5 33.2443 1003.9 33.6193C1003.31 33.9943 1002.62 34.1818 1001.84 34.1818ZM1001.84 32.9773C1002.43 32.9773 1002.93 32.8239 1003.31 32.517C1003.7 32.2102 1003.98 31.8068 1004.17 31.3068C1004.36 30.8068 1004.45 30.2652 1004.45 29.6818C1004.45 29.0985 1004.36 28.5549 1004.17 28.0511C1003.98 27.5473 1003.7 27.1402 1003.31 26.8295C1002.93 26.5189 1002.43 26.3636 1001.84 26.3636C1001.24 26.3636 1000.74 26.5189 1000.36 26.8295C999.972 27.1402 999.686 27.5473 999.5 28.0511C999.314 28.5549 999.222 29.0985 999.222 29.6818C999.222 30.2652 999.314 30.8068 999.5 31.3068C999.686 31.8068 999.972 32.2102 1000.36 32.517C1000.74 32.8239 1001.24 32.9773 1001.84 32.9773ZM1013.34 30.4318V25.2727H1014.68V34H1013.34V32.5227H1013.25C1013.04 32.9659 1012.72 33.3428 1012.29 33.6534C1011.86 33.9602 1011.31 34.1136 1010.65 34.1136C1010.11 34.1136 1009.62 33.9943 1009.2 33.7557C1008.78 33.5133 1008.44 33.1496 1008.2 32.6648C1007.96 32.1761 1007.84 31.5606 1007.84 30.8182V25.2727H1009.18V30.7273C1009.18 31.3636 1009.36 31.8712 1009.71 32.25C1010.07 32.6288 1010.53 32.8182 1011.09 32.8182C1011.42 32.8182 1011.76 32.733 1012.1 32.5625C1012.45 32.392 1012.74 32.1307 1012.98 31.7784C1013.22 31.4261 1013.34 30.9773 1013.34 30.4318ZM1020.93 25.2727V26.4091H1016.41V25.2727H1020.93ZM1017.72 23.1818H1019.07V31.5C1019.07 31.8788 1019.12 32.1629 1019.23 32.3523C1019.34 32.5379 1019.49 32.6629 1019.66 32.7273C1019.84 32.7879 1020.03 32.8182 1020.22 32.8182C1020.37 32.8182 1020.49 32.8106 1020.59 32.7955C1020.68 32.7765 1020.76 32.7614 1020.82 32.75L1021.09 33.9545C1021 33.9886 1020.87 34.0227 1020.71 34.0568C1020.54 34.0947 1020.34 34.1136 1020.09 34.1136C1019.71 34.1136 1019.34 34.0322 1018.97 33.8693C1018.61 33.7064 1018.32 33.4583 1018.08 33.125C1017.84 32.7917 1017.72 32.3712 1017.72 31.8636V23.1818ZM1024.58 22.3636V23.3864C1024.58 23.697 1024.52 24.0284 1024.41 24.3807C1024.3 24.7292 1024.14 25.0682 1023.92 25.3977C1023.71 25.7235 1023.45 26.0076 1023.15 26.25L1022.42 25.6591C1022.66 25.3182 1022.87 24.964 1023.04 24.5966C1023.22 24.2254 1023.31 23.8295 1023.31 23.4091V22.3636H1024.58ZM1031.3 27.2273L1030.1 27.5682C1030.02 27.3674 1029.91 27.1723 1029.76 26.983C1029.62 26.7898 1029.42 26.6307 1029.17 26.5057C1028.92 26.3807 1028.6 26.3182 1028.21 26.3182C1027.67 26.3182 1027.23 26.4413 1026.87 26.6875C1026.52 26.9299 1026.35 27.2386 1026.35 27.6136C1026.35 27.947 1026.47 28.2102 1026.71 28.4034C1026.95 28.5966 1027.33 28.7576 1027.85 28.8864L1029.14 29.2045C1029.92 29.3939 1030.5 29.6837 1030.88 30.0739C1031.27 30.4602 1031.46 30.9583 1031.46 31.5682C1031.46 32.0682 1031.31 32.5152 1031.03 32.9091C1030.74 33.303 1030.35 33.6136 1029.83 33.8409C1029.32 34.0682 1028.73 34.1818 1028.05 34.1818C1027.16 34.1818 1026.42 33.9886 1025.84 33.6023C1025.26 33.2159 1024.89 32.6515 1024.73 31.9091L1026 31.5909C1026.13 32.0606 1026.35 32.4129 1026.69 32.6477C1027.03 32.8826 1027.48 33 1028.03 33C1028.65 33 1029.15 32.8674 1029.52 32.6023C1029.89 32.3333 1030.07 32.0114 1030.07 31.6364C1030.07 31.3333 1029.97 31.0795 1029.75 30.875C1029.54 30.6667 1029.22 30.5114 1028.78 30.4091L1027.32 30.0682C1026.52 29.8788 1025.94 29.5852 1025.56 29.1875C1025.19 28.786 1025 28.2841 1025 27.6818C1025 27.1894 1025.14 26.7538 1025.42 26.375C1025.7 25.9962 1026.08 25.6989 1026.56 25.483C1027.05 25.267 1027.6 25.1591 1028.21 25.1591C1029.07 25.1591 1029.75 25.3485 1030.24 25.7273C1030.74 26.1061 1031.09 26.6061 1031.3 27.2273ZM1044.16 27.2273L1042.95 27.5682C1042.88 27.3674 1042.77 27.1723 1042.62 26.983C1042.48 26.7898 1042.28 26.6307 1042.03 26.5057C1041.78 26.3807 1041.46 26.3182 1041.07 26.3182C1040.53 26.3182 1040.09 26.4413 1039.73 26.6875C1039.38 26.9299 1039.2 27.2386 1039.2 27.6136C1039.2 27.947 1039.33 28.2102 1039.57 28.4034C1039.81 28.5966 1040.19 28.7576 1040.7 28.8864L1042 29.2045C1042.78 29.3939 1043.36 29.6837 1043.74 30.0739C1044.13 30.4602 1044.32 30.9583 1044.32 31.5682C1044.32 32.0682 1044.17 32.5152 1043.89 32.9091C1043.6 33.303 1043.2 33.6136 1042.69 33.8409C1042.18 34.0682 1041.59 34.1818 1040.91 34.1818C1040.02 34.1818 1039.28 33.9886 1038.7 33.6023C1038.12 33.2159 1037.75 32.6515 1037.59 31.9091L1038.86 31.5909C1038.98 32.0606 1039.21 32.4129 1039.55 32.6477C1039.89 32.8826 1040.34 33 1040.89 33C1041.51 33 1042.01 32.8674 1042.38 32.6023C1042.75 32.3333 1042.93 32.0114 1042.93 31.6364C1042.93 31.3333 1042.83 31.0795 1042.61 30.875C1042.4 30.6667 1042.08 30.5114 1041.64 30.4091L1040.18 30.0682C1039.38 29.8788 1038.8 29.5852 1038.42 29.1875C1038.05 28.786 1037.86 28.2841 1037.86 27.6818C1037.86 27.1894 1038 26.7538 1038.28 26.375C1038.56 25.9962 1038.94 25.6989 1039.42 25.483C1039.91 25.267 1040.45 25.1591 1041.07 25.1591C1041.93 25.1591 1042.61 25.3485 1043.1 25.7273C1043.6 26.1061 1043.95 26.6061 1044.16 27.2273ZM1046.34 37.2727V25.2727H1047.63V26.6591H1047.79C1047.89 26.5076 1048.03 26.3144 1048.2 26.0795C1048.38 25.8409 1048.63 25.6288 1048.96 25.4432C1049.29 25.2538 1049.75 25.1591 1050.31 25.1591C1051.05 25.1591 1051.7 25.3428 1052.26 25.7102C1052.82 26.0777 1053.26 26.5985 1053.57 27.2727C1053.88 27.947 1054.04 28.7424 1054.04 29.6591C1054.04 30.5833 1053.88 31.3845 1053.57 32.0625C1053.26 32.7367 1052.82 33.2595 1052.26 33.6307C1051.71 33.9981 1051.06 34.1818 1050.34 34.1818C1049.78 34.1818 1049.33 34.089 1048.99 33.9034C1048.65 33.714 1048.39 33.5 1048.21 33.2614C1048.03 33.0189 1047.89 32.8182 1047.79 32.6591H1047.68V37.2727H1046.34ZM1047.65 29.6364C1047.65 30.2955 1047.75 30.8769 1047.94 31.3807C1048.14 31.8807 1048.42 32.2727 1048.79 32.5568C1049.16 32.8371 1049.62 32.9773 1050.15 32.9773C1050.72 32.9773 1051.18 32.8295 1051.56 32.5341C1051.94 32.2348 1052.22 31.8333 1052.41 31.3295C1052.6 30.822 1052.7 30.2576 1052.7 29.6364C1052.7 29.0227 1052.61 28.4697 1052.42 27.9773C1052.23 27.4811 1051.95 27.089 1051.57 26.8011C1051.19 26.5095 1050.72 26.3636 1050.15 26.3636C1049.61 26.3636 1049.15 26.5019 1048.78 26.7784C1048.41 27.0511 1048.13 27.4337 1047.94 27.9261C1047.75 28.4148 1047.65 28.9848 1047.65 29.6364ZM1059.75 34.1818C1058.9 34.1818 1058.18 33.9962 1057.57 33.625C1056.96 33.25 1056.5 32.7273 1056.17 32.0568C1055.84 31.3826 1055.68 30.5985 1055.68 29.7045C1055.68 28.8106 1055.84 28.0227 1056.17 27.3409C1056.5 26.6553 1056.95 26.1212 1057.54 25.7386C1058.13 25.3523 1058.82 25.1591 1059.61 25.1591C1060.06 25.1591 1060.51 25.2348 1060.96 25.3864C1061.4 25.5379 1061.8 25.7841 1062.17 26.125C1062.53 26.4621 1062.82 26.9091 1063.04 27.4659C1063.25 28.0227 1063.36 28.7083 1063.36 29.5227V30.0909H1056.63V28.9318H1062C1062 28.4394 1061.9 28 1061.7 27.6136C1061.51 27.2273 1061.23 26.9223 1060.87 26.6989C1060.51 26.4754 1060.09 26.3636 1059.61 26.3636C1059.08 26.3636 1058.61 26.4962 1058.22 26.7614C1057.84 27.0227 1057.54 27.3636 1057.33 27.7841C1057.12 28.2045 1057.02 28.6553 1057.02 29.1364V29.9091C1057.02 30.5682 1057.13 31.1269 1057.36 31.5852C1057.59 32.0398 1057.91 32.3864 1058.32 32.625C1058.73 32.8598 1059.2 32.9773 1059.75 32.9773C1060.1 32.9773 1060.42 32.928 1060.7 32.8295C1060.99 32.7273 1061.24 32.5758 1061.44 32.375C1061.65 32.1705 1061.81 31.9167 1061.93 31.6136L1063.22 31.9773C1063.09 32.4167 1062.86 32.803 1062.54 33.1364C1062.21 33.4659 1061.82 33.7235 1061.34 33.9091C1060.87 34.0909 1060.34 34.1818 1059.75 34.1818ZM1068.94 34.1818C1068.13 34.1818 1067.42 33.9886 1066.83 33.6023C1066.24 33.2159 1065.79 32.6837 1065.47 32.0057C1065.15 31.3277 1064.99 30.553 1064.99 29.6818C1064.99 28.7955 1065.15 28.0133 1065.48 27.3352C1065.81 26.6534 1066.27 26.1212 1066.85 25.7386C1067.44 25.3523 1068.13 25.1591 1068.92 25.1591C1069.54 25.1591 1070.09 25.2727 1070.58 25.5C1071.07 25.7273 1071.48 26.0455 1071.79 26.4545C1072.11 26.8636 1072.3 27.3409 1072.38 27.8864H1071.04C1070.93 27.4886 1070.71 27.1364 1070.35 26.8295C1070.01 26.5189 1069.54 26.3636 1068.94 26.3636C1068.42 26.3636 1067.96 26.5 1067.57 26.7727C1067.18 27.0417 1066.87 27.4223 1066.65 27.9148C1066.44 28.4034 1066.33 28.9773 1066.33 29.6364C1066.33 30.3106 1066.44 30.8977 1066.65 31.3977C1066.87 31.8977 1067.17 32.286 1067.56 32.5625C1067.95 32.839 1068.41 32.9773 1068.94 32.9773C1069.29 32.9773 1069.61 32.9167 1069.89 32.7955C1070.18 32.6742 1070.42 32.5 1070.62 32.2727C1070.81 32.0455 1070.95 31.7727 1071.04 31.4545H1072.38C1072.3 31.9697 1072.11 32.4337 1071.81 32.8466C1071.52 33.2557 1071.13 33.5814 1070.64 33.8239C1070.15 34.0625 1069.59 34.1818 1068.94 34.1818ZM1074.34 34V25.2727H1075.68V34H1074.34ZM1075.02 23.8182C1074.76 23.8182 1074.53 23.7292 1074.34 23.5511C1074.16 23.3731 1074.06 23.1591 1074.06 22.9091C1074.06 22.6591 1074.16 22.4451 1074.34 22.267C1074.53 22.089 1074.76 22 1075.02 22C1075.28 22 1075.5 22.089 1075.69 22.267C1075.88 22.4451 1075.97 22.6591 1075.97 22.9091C1075.97 23.1591 1075.88 23.3731 1075.69 23.5511C1075.5 23.7292 1075.28 23.8182 1075.02 23.8182ZM1082.02 25.2727V26.4091H1077.32V25.2727H1082.02ZM1078.72 34V24.0682C1078.72 23.5682 1078.84 23.1515 1079.08 22.8182C1079.31 22.4848 1079.62 22.2348 1079.99 22.0682C1080.37 21.9015 1080.76 21.8182 1081.18 21.8182C1081.51 21.8182 1081.78 21.8447 1081.99 21.8977C1082.19 21.9508 1082.35 22 1082.45 22.0455L1082.07 23.2045C1082 23.1818 1081.9 23.1534 1081.78 23.1193C1081.66 23.0852 1081.51 23.0682 1081.32 23.0682C1080.87 23.0682 1080.55 23.1799 1080.36 23.4034C1080.16 23.6269 1080.07 23.9545 1080.07 24.3864V34H1078.72ZM1083.9 34V25.2727H1085.24V34H1083.9ZM1084.58 23.8182C1084.32 23.8182 1084.09 23.7292 1083.9 23.5511C1083.72 23.3731 1083.63 23.1591 1083.63 22.9091C1083.63 22.6591 1083.72 22.4451 1083.9 22.267C1084.09 22.089 1084.32 22 1084.58 22C1084.84 22 1085.07 22.089 1085.25 22.267C1085.44 22.4451 1085.54 22.6591 1085.54 22.9091C1085.54 23.1591 1085.44 23.3731 1085.25 23.5511C1085.07 23.7292 1084.84 23.8182 1084.58 23.8182ZM1091.24 34.1818C1090.42 34.1818 1089.72 33.9886 1089.13 33.6023C1088.54 33.2159 1088.08 32.6837 1087.76 32.0057C1087.45 31.3277 1087.29 30.553 1087.29 29.6818C1087.29 28.7955 1087.45 28.0133 1087.78 27.3352C1088.11 26.6534 1088.56 26.1212 1089.15 25.7386C1089.74 25.3523 1090.43 25.1591 1091.22 25.1591C1091.83 25.1591 1092.39 25.2727 1092.88 25.5C1093.37 25.7273 1093.77 26.0455 1094.09 26.4545C1094.4 26.8636 1094.6 27.3409 1094.67 27.8864H1093.33C1093.23 27.4886 1093 27.1364 1092.65 26.8295C1092.3 26.5189 1091.83 26.3636 1091.24 26.3636C1090.72 26.3636 1090.26 26.5 1089.87 26.7727C1089.48 27.0417 1089.17 27.4223 1088.95 27.9148C1088.74 28.4034 1088.63 28.9773 1088.63 29.6364C1088.63 30.3106 1088.73 30.8977 1088.95 31.3977C1089.16 31.8977 1089.46 32.286 1089.86 32.5625C1090.25 32.839 1090.71 32.9773 1091.24 32.9773C1091.59 32.9773 1091.91 32.9167 1092.19 32.7955C1092.47 32.6742 1092.71 32.5 1092.91 32.2727C1093.11 32.0455 1093.25 31.7727 1093.33 31.4545H1094.67C1094.6 31.9697 1094.41 32.4337 1094.11 32.8466C1093.82 33.2557 1093.42 33.5814 1092.93 33.8239C1092.45 34.0625 1091.89 34.1818 1091.24 34.1818ZM1106.63 30.4318V25.2727H1107.97V34H1106.63V32.5227H1106.54C1106.34 32.9659 1106.02 33.3428 1105.59 33.6534C1105.16 33.9602 1104.61 34.1136 1103.95 34.1136C1103.41 34.1136 1102.92 33.9943 1102.5 33.7557C1102.07 33.5133 1101.74 33.1496 1101.5 32.6648C1101.25 32.1761 1101.13 31.5606 1101.13 30.8182V25.2727H1102.47V30.7273C1102.47 31.3636 1102.65 31.8712 1103.01 32.25C1103.37 32.6288 1103.83 32.8182 1104.38 32.8182C1104.72 32.8182 1105.06 32.733 1105.4 32.5625C1105.75 32.392 1106.04 32.1307 1106.28 31.7784C1106.51 31.4261 1106.63 30.9773 1106.63 30.4318ZM1116.61 27.2273L1115.41 27.5682C1115.33 27.3674 1115.22 27.1723 1115.07 26.983C1114.93 26.7898 1114.73 26.6307 1114.48 26.5057C1114.23 26.3807 1113.91 26.3182 1113.52 26.3182C1112.99 26.3182 1112.54 26.4413 1112.19 26.6875C1111.83 26.9299 1111.66 27.2386 1111.66 27.6136C1111.66 27.947 1111.78 28.2102 1112.02 28.4034C1112.26 28.5966 1112.64 28.7576 1113.16 28.8864L1114.45 29.2045C1115.23 29.3939 1115.81 29.6837 1116.2 30.0739C1116.58 30.4602 1116.77 30.9583 1116.77 31.5682C1116.77 32.0682 1116.63 32.5152 1116.34 32.9091C1116.06 33.303 1115.66 33.6136 1115.15 33.8409C1114.63 34.0682 1114.04 34.1818 1113.36 34.1818C1112.47 34.1818 1111.74 33.9886 1111.15 33.6023C1110.57 33.2159 1110.2 32.6515 1110.04 31.9091L1111.32 31.5909C1111.44 32.0606 1111.67 32.4129 1112 32.6477C1112.35 32.8826 1112.79 33 1113.34 33C1113.96 33 1114.46 32.8674 1114.83 32.6023C1115.2 32.3333 1115.38 32.0114 1115.38 31.6364C1115.38 31.3333 1115.28 31.0795 1115.07 30.875C1114.85 30.6667 1114.53 30.5114 1114.09 30.4091L1112.63 30.0682C1111.84 29.8788 1111.25 29.5852 1110.87 29.1875C1110.5 28.786 1110.32 28.2841 1110.32 27.6818C1110.32 27.1894 1110.46 26.7538 1110.73 26.375C1111.01 25.9962 1111.39 25.6989 1111.87 25.483C1112.36 25.267 1112.91 25.1591 1113.52 25.1591C1114.38 25.1591 1115.06 25.3485 1115.56 25.7273C1116.05 26.1061 1116.4 26.6061 1116.61 27.2273ZM1122.45 34.1818C1121.61 34.1818 1120.88 33.9962 1120.27 33.625C1119.67 33.25 1119.2 32.7273 1118.87 32.0568C1118.54 31.3826 1118.38 30.5985 1118.38 29.7045C1118.38 28.8106 1118.54 28.0227 1118.87 27.3409C1119.2 26.6553 1119.66 26.1212 1120.24 25.7386C1120.84 25.3523 1121.52 25.1591 1122.31 25.1591C1122.77 25.1591 1123.22 25.2348 1123.66 25.3864C1124.1 25.5379 1124.51 25.7841 1124.87 26.125C1125.23 26.4621 1125.52 26.9091 1125.74 27.4659C1125.95 28.0227 1126.06 28.7083 1126.06 29.5227V30.0909H1119.34V28.9318H1124.7C1124.7 28.4394 1124.6 28 1124.4 27.6136C1124.21 27.2273 1123.93 26.9223 1123.57 26.6989C1123.22 26.4754 1122.8 26.3636 1122.31 26.3636C1121.78 26.3636 1121.32 26.4962 1120.93 26.7614C1120.54 27.0227 1120.24 27.3636 1120.03 27.7841C1119.83 28.2045 1119.72 28.6553 1119.72 29.1364V29.9091C1119.72 30.5682 1119.84 31.1269 1120.06 31.5852C1120.29 32.0398 1120.61 32.3864 1121.02 32.625C1121.43 32.8598 1121.91 32.9773 1122.45 32.9773C1122.8 32.9773 1123.12 32.928 1123.4 32.8295C1123.69 32.7273 1123.94 32.5758 1124.15 32.375C1124.36 32.1705 1124.52 31.9167 1124.63 31.6136L1125.93 31.9773C1125.79 32.4167 1125.56 32.803 1125.24 33.1364C1124.92 33.4659 1124.52 33.7235 1124.05 33.9091C1123.57 34.0909 1123.04 34.1818 1122.45 34.1818ZM1136.15 34.1818C1135.33 34.1818 1134.63 33.9886 1134.03 33.6023C1133.44 33.2159 1132.99 32.6837 1132.67 32.0057C1132.35 31.3277 1132.19 30.553 1132.19 29.6818C1132.19 28.7955 1132.36 28.0133 1132.68 27.3352C1133.01 26.6534 1133.47 26.1212 1134.06 25.7386C1134.65 25.3523 1135.34 25.1591 1136.12 25.1591C1136.74 25.1591 1137.29 25.2727 1137.78 25.5C1138.28 25.7273 1138.68 26.0455 1138.99 26.4545C1139.31 26.8636 1139.5 27.3409 1139.58 27.8864H1138.24C1138.14 27.4886 1137.91 27.1364 1137.56 26.8295C1137.21 26.5189 1136.74 26.3636 1136.15 26.3636C1135.63 26.3636 1135.17 26.5 1134.77 26.7727C1134.38 27.0417 1134.08 27.4223 1133.86 27.9148C1133.64 28.4034 1133.53 28.9773 1133.53 29.6364C1133.53 30.3106 1133.64 30.8977 1133.85 31.3977C1134.07 31.8977 1134.37 32.286 1134.76 32.5625C1135.16 32.839 1135.62 32.9773 1136.15 32.9773C1136.5 32.9773 1136.81 32.9167 1137.1 32.7955C1137.38 32.6742 1137.62 32.5 1137.82 32.2727C1138.02 32.0455 1138.16 31.7727 1138.24 31.4545H1139.58C1139.5 31.9697 1139.32 32.4337 1139.02 32.8466C1138.72 33.2557 1138.33 33.5814 1137.84 33.8239C1137.36 34.0625 1136.79 34.1818 1136.15 34.1818ZM1144.11 34.2045C1143.55 34.2045 1143.05 34.1004 1142.6 33.892C1142.15 33.6799 1141.79 33.375 1141.53 32.9773C1141.26 32.5758 1141.13 32.0909 1141.13 31.5227C1141.13 31.0227 1141.23 30.6174 1141.43 30.3068C1141.62 29.9924 1141.89 29.7462 1142.22 29.5682C1142.55 29.3902 1142.91 29.2576 1143.31 29.1705C1143.71 29.0795 1144.11 29.0076 1144.52 28.9545C1145.05 28.8864 1145.48 28.8352 1145.81 28.8011C1146.14 28.7633 1146.38 28.7008 1146.53 28.6136C1146.69 28.5265 1146.77 28.375 1146.77 28.1591V28.1136C1146.77 27.553 1146.61 27.1174 1146.31 26.8068C1146 26.4962 1145.54 26.3409 1144.93 26.3409C1144.29 26.3409 1143.78 26.4811 1143.42 26.7614C1143.06 27.0417 1142.8 27.3409 1142.65 27.6591L1141.38 27.2045C1141.61 26.6742 1141.91 26.2614 1142.29 25.9659C1142.67 25.6667 1143.09 25.4583 1143.54 25.3409C1143.99 25.2197 1144.44 25.1591 1144.88 25.1591C1145.16 25.1591 1145.48 25.1932 1145.85 25.2614C1146.21 25.3258 1146.57 25.4602 1146.91 25.6648C1147.25 25.8693 1147.54 26.178 1147.77 26.5909C1147.99 27.0038 1148.11 27.5568 1148.11 28.25V34H1146.77V32.8182H1146.7C1146.61 33.0076 1146.46 33.2102 1146.24 33.4261C1146.03 33.642 1145.75 33.8258 1145.4 33.9773C1145.05 34.1288 1144.62 34.2045 1144.11 34.2045ZM1144.31 33C1144.84 33 1145.29 32.8958 1145.65 32.6875C1146.02 32.4792 1146.3 32.2102 1146.48 31.8807C1146.67 31.5511 1146.77 31.2045 1146.77 30.8409V29.6136C1146.71 29.6818 1146.59 29.7443 1146.39 29.8011C1146.2 29.8542 1145.98 29.9015 1145.73 29.9432C1145.49 29.9811 1145.25 30.0152 1145.01 30.0455C1144.78 30.072 1144.59 30.0947 1144.45 30.1136C1144.1 30.1591 1143.77 30.233 1143.47 30.3352C1143.17 30.4337 1142.93 30.5833 1142.74 30.7841C1142.56 30.9811 1142.47 31.25 1142.47 31.5909C1142.47 32.0568 1142.64 32.4091 1142.99 32.6477C1143.34 32.8826 1143.78 33 1144.31 33ZM1156.74 27.2273L1155.53 27.5682C1155.46 27.3674 1155.35 27.1723 1155.2 26.983C1155.05 26.7898 1154.86 26.6307 1154.61 26.5057C1154.36 26.3807 1154.04 26.3182 1153.65 26.3182C1153.11 26.3182 1152.67 26.4413 1152.31 26.6875C1151.96 26.9299 1151.78 27.2386 1151.78 27.6136C1151.78 27.947 1151.9 28.2102 1152.15 28.4034C1152.39 28.5966 1152.77 28.7576 1153.28 28.8864L1154.58 29.2045C1155.36 29.3939 1155.94 29.6837 1156.32 30.0739C1156.71 30.4602 1156.9 30.9583 1156.9 31.5682C1156.9 32.0682 1156.75 32.5152 1156.46 32.9091C1156.18 33.303 1155.78 33.6136 1155.27 33.8409C1154.76 34.0682 1154.17 34.1818 1153.49 34.1818C1152.6 34.1818 1151.86 33.9886 1151.28 33.6023C1150.69 33.2159 1150.32 32.6515 1150.17 31.9091L1151.44 31.5909C1151.56 32.0606 1151.79 32.4129 1152.13 32.6477C1152.47 32.8826 1152.92 33 1153.46 33C1154.09 33 1154.59 32.8674 1154.95 32.6023C1155.32 32.3333 1155.51 32.0114 1155.51 31.6364C1155.51 31.3333 1155.4 31.0795 1155.19 30.875C1154.98 30.6667 1154.65 30.5114 1154.21 30.4091L1152.76 30.0682C1151.96 29.8788 1151.37 29.5852 1151 29.1875C1150.63 28.786 1150.44 28.2841 1150.44 27.6818C1150.44 27.1894 1150.58 26.7538 1150.86 26.375C1151.14 25.9962 1151.52 25.6989 1152 25.483C1152.48 25.267 1153.03 25.1591 1153.65 25.1591C1154.51 25.1591 1155.19 25.3485 1155.68 25.7273C1156.18 26.1061 1156.53 26.6061 1156.74 27.2273ZM1162.57 34.1818C1161.73 34.1818 1161.01 33.9962 1160.4 33.625C1159.79 33.25 1159.32 32.7273 1158.99 32.0568C1158.67 31.3826 1158.51 30.5985 1158.51 29.7045C1158.51 28.8106 1158.67 28.0227 1158.99 27.3409C1159.32 26.6553 1159.78 26.1212 1160.37 25.7386C1160.96 25.3523 1161.65 25.1591 1162.44 25.1591C1162.89 25.1591 1163.34 25.2348 1163.78 25.3864C1164.23 25.5379 1164.63 25.7841 1164.99 26.125C1165.36 26.4621 1165.65 26.9091 1165.86 27.4659C1166.08 28.0227 1166.19 28.7083 1166.19 29.5227V30.0909H1159.46V28.9318H1164.82C1164.82 28.4394 1164.73 28 1164.53 27.6136C1164.34 27.2273 1164.06 26.9223 1163.7 26.6989C1163.34 26.4754 1162.92 26.3636 1162.44 26.3636C1161.9 26.3636 1161.44 26.4962 1161.05 26.7614C1160.66 27.0227 1160.37 27.3636 1160.16 27.7841C1159.95 28.2045 1159.85 28.6553 1159.85 29.1364V29.9091C1159.85 30.5682 1159.96 31.1269 1160.19 31.5852C1160.42 32.0398 1160.74 32.3864 1161.15 32.625C1161.56 32.8598 1162.03 32.9773 1162.57 32.9773C1162.93 32.9773 1163.24 32.928 1163.53 32.8295C1163.82 32.7273 1164.06 32.5758 1164.27 32.375C1164.48 32.1705 1164.64 31.9167 1164.76 31.6136L1166.05 31.9773C1165.91 32.4167 1165.69 32.803 1165.36 33.1364C1165.04 33.4659 1164.64 33.7235 1164.17 33.9091C1163.7 34.0909 1163.16 34.1818 1162.57 34.1818ZM1174.41 27.2273L1173.2 27.5682C1173.13 27.3674 1173.02 27.1723 1172.87 26.983C1172.73 26.7898 1172.53 26.6307 1172.28 26.5057C1172.03 26.3807 1171.71 26.3182 1171.32 26.3182C1170.78 26.3182 1170.34 26.4413 1169.98 26.6875C1169.63 26.9299 1169.45 27.2386 1169.45 27.6136C1169.45 27.947 1169.58 28.2102 1169.82 28.4034C1170.06 28.5966 1170.44 28.7576 1170.95 28.8864L1172.25 29.2045C1173.03 29.3939 1173.61 29.6837 1173.99 30.0739C1174.38 30.4602 1174.57 30.9583 1174.57 31.5682C1174.57 32.0682 1174.42 32.5152 1174.14 32.9091C1173.85 33.303 1173.45 33.6136 1172.94 33.8409C1172.43 34.0682 1171.84 34.1818 1171.16 34.1818C1170.27 34.1818 1169.53 33.9886 1168.95 33.6023C1168.37 33.2159 1168 32.6515 1167.84 31.9091L1169.11 31.5909C1169.23 32.0606 1169.46 32.4129 1169.8 32.6477C1170.14 32.8826 1170.59 33 1171.14 33C1171.76 33 1172.26 32.8674 1172.62 32.6023C1173 32.3333 1173.18 32.0114 1173.18 31.6364C1173.18 31.3333 1173.08 31.0795 1172.86 30.875C1172.65 30.6667 1172.33 30.5114 1171.89 30.4091L1170.43 30.0682C1169.63 29.8788 1169.05 29.5852 1168.67 29.1875C1168.3 28.786 1168.11 28.2841 1168.11 27.6818C1168.11 27.1894 1168.25 26.7538 1168.53 26.375C1168.81 25.9962 1169.19 25.6989 1169.67 25.483C1170.16 25.267 1170.7 25.1591 1171.32 25.1591C1172.18 25.1591 1172.86 25.3485 1173.35 25.7273C1173.85 26.1061 1174.2 26.6061 1174.41 27.2273ZM1183.65 34.2045C1183.1 34.2045 1182.6 34.1004 1182.15 33.892C1181.7 33.6799 1181.34 33.375 1181.08 32.9773C1180.81 32.5758 1180.68 32.0909 1180.68 31.5227C1180.68 31.0227 1180.78 30.6174 1180.97 30.3068C1181.17 29.9924 1181.43 29.7462 1181.76 29.5682C1182.09 29.3902 1182.46 29.2576 1182.85 29.1705C1183.26 29.0795 1183.66 29.0076 1184.06 28.9545C1184.59 28.8864 1185.02 28.8352 1185.35 28.8011C1185.69 28.7633 1185.93 28.7008 1186.08 28.6136C1186.24 28.5265 1186.31 28.375 1186.31 28.1591V28.1136C1186.31 27.553 1186.16 27.1174 1185.85 26.8068C1185.55 26.4962 1185.09 26.3409 1184.47 26.3409C1183.83 26.3409 1183.33 26.4811 1182.97 26.7614C1182.6 27.0417 1182.35 27.3409 1182.2 27.6591L1180.93 27.2045C1181.15 26.6742 1181.46 26.2614 1181.84 25.9659C1182.22 25.6667 1182.64 25.4583 1183.09 25.3409C1183.54 25.2197 1183.99 25.1591 1184.43 25.1591C1184.71 25.1591 1185.03 25.1932 1185.39 25.2614C1185.76 25.3258 1186.12 25.4602 1186.46 25.6648C1186.8 25.8693 1187.09 26.178 1187.31 26.5909C1187.54 27.0038 1187.65 27.5568 1187.65 28.25V34H1186.31V32.8182H1186.25C1186.15 33.0076 1186 33.2102 1185.79 33.4261C1185.58 33.642 1185.3 33.8258 1184.94 33.9773C1184.59 34.1288 1184.16 34.2045 1183.65 34.2045ZM1183.86 33C1184.39 33 1184.84 32.8958 1185.2 32.6875C1185.57 32.4792 1185.84 32.2102 1186.03 31.8807C1186.22 31.5511 1186.31 31.2045 1186.31 30.8409V29.6136C1186.26 29.6818 1186.13 29.7443 1185.94 29.8011C1185.75 29.8542 1185.53 29.9015 1185.28 29.9432C1185.03 29.9811 1184.79 30.0152 1184.56 30.0455C1184.33 30.072 1184.14 30.0947 1184 30.1136C1183.65 30.1591 1183.32 30.233 1183.02 30.3352C1182.72 30.4337 1182.48 30.5833 1182.29 30.7841C1182.11 30.9811 1182.02 31.25 1182.02 31.5909C1182.02 32.0568 1182.19 32.4091 1182.54 32.6477C1182.88 32.8826 1183.33 33 1183.86 33ZM1191.44 28.75V34H1190.1V25.2727H1191.4V26.6364H1191.51C1191.72 26.1932 1192.03 25.8371 1192.44 25.5682C1192.86 25.2955 1193.4 25.1591 1194.06 25.1591C1194.65 25.1591 1195.16 25.2803 1195.61 25.5227C1196.05 25.7614 1196.4 26.125 1196.64 26.6136C1196.89 27.0985 1197.01 27.7121 1197.01 28.4545V34H1195.67V28.5455C1195.67 27.8598 1195.49 27.3258 1195.14 26.9432C1194.78 26.5568 1194.29 26.3636 1193.67 26.3636C1193.24 26.3636 1192.86 26.4564 1192.52 26.642C1192.19 26.8277 1191.93 27.0985 1191.73 27.4545C1191.54 27.8106 1191.44 28.2424 1191.44 28.75ZM1202.76 34.1818C1202.03 34.1818 1201.39 33.9981 1200.83 33.6307C1200.27 33.2595 1199.84 32.7367 1199.52 32.0625C1199.21 31.3845 1199.05 30.5833 1199.05 29.6591C1199.05 28.7424 1199.21 27.947 1199.52 27.2727C1199.84 26.5985 1200.28 26.0777 1200.84 25.7102C1201.4 25.3428 1202.04 25.1591 1202.78 25.1591C1203.35 25.1591 1203.8 25.2538 1204.13 25.4432C1204.46 25.6288 1204.71 25.8409 1204.89 26.0795C1205.07 26.3144 1205.2 26.5076 1205.3 26.6591H1205.42V22.3636H1206.76V34H1205.46V32.6591H1205.3C1205.2 32.8182 1205.06 33.0189 1204.88 33.2614C1204.7 33.5 1204.44 33.714 1204.1 33.9034C1203.77 34.089 1203.32 34.1818 1202.76 34.1818ZM1202.94 32.9773C1203.48 32.9773 1203.93 32.8371 1204.3 32.5568C1204.67 32.2727 1204.96 31.8807 1205.15 31.3807C1205.34 30.8769 1205.44 30.2955 1205.44 29.6364C1205.44 28.9848 1205.34 28.4148 1205.15 27.9261C1204.97 27.4337 1204.69 27.0511 1204.31 26.7784C1203.94 26.5019 1203.48 26.3636 1202.94 26.3636C1202.37 26.3636 1201.9 26.5095 1201.52 26.8011C1201.14 27.089 1200.86 27.4811 1200.67 27.9773C1200.49 28.4697 1200.39 29.0227 1200.39 29.6364C1200.39 30.2576 1200.49 30.822 1200.68 31.3295C1200.87 31.8333 1201.15 32.2348 1201.53 32.5341C1201.91 32.8295 1202.38 32.9773 1202.94 32.9773ZM1215.88 34L1213.22 25.2727H1214.63L1216.51 31.9545H1216.6L1218.47 25.2727H1219.9L1221.74 31.9318H1221.83L1223.72 25.2727H1225.13L1222.47 34H1221.15L1219.24 27.2955H1219.1L1217.19 34H1215.88ZM1228.24 28.75V34H1226.9V22.3636H1228.24V26.6364H1228.35C1228.56 26.1856 1228.87 25.8277 1229.27 25.5625C1229.69 25.2936 1230.24 25.1591 1230.92 25.1591C1231.52 25.1591 1232.04 25.2784 1232.48 25.517C1232.93 25.7519 1233.28 26.1136 1233.52 26.6023C1233.77 27.0871 1233.9 27.7045 1233.9 28.4545V34H1232.56V28.5455C1232.56 27.8523 1232.38 27.3163 1232.02 26.9375C1231.66 26.5549 1231.17 26.3636 1230.54 26.3636C1230.1 26.3636 1229.7 26.4564 1229.35 26.642C1229.01 26.8277 1228.74 27.0985 1228.54 27.4545C1228.34 27.8106 1228.24 28.2424 1228.24 28.75ZM1240.01 34.1818C1239.17 34.1818 1238.45 33.9962 1237.84 33.625C1237.23 33.25 1236.76 32.7273 1236.43 32.0568C1236.11 31.3826 1235.94 30.5985 1235.94 29.7045C1235.94 28.8106 1236.11 28.0227 1236.43 27.3409C1236.76 26.6553 1237.22 26.1212 1237.81 25.7386C1238.4 25.3523 1239.09 25.1591 1239.88 25.1591C1240.33 25.1591 1240.78 25.2348 1241.22 25.3864C1241.66 25.5379 1242.07 25.7841 1242.43 26.125C1242.8 26.4621 1243.09 26.9091 1243.3 27.4659C1243.52 28.0227 1243.62 28.7083 1243.62 29.5227V30.0909H1236.9V28.9318H1242.26C1242.26 28.4394 1242.16 28 1241.97 27.6136C1241.77 27.2273 1241.5 26.9223 1241.14 26.6989C1240.78 26.4754 1240.36 26.3636 1239.88 26.3636C1239.34 26.3636 1238.88 26.4962 1238.49 26.7614C1238.1 27.0227 1237.8 27.3636 1237.6 27.7841C1237.39 28.2045 1237.28 28.6553 1237.28 29.1364V29.9091C1237.28 30.5682 1237.4 31.1269 1237.62 31.5852C1237.86 32.0398 1238.18 32.3864 1238.59 32.625C1238.99 32.8598 1239.47 32.9773 1240.01 32.9773C1240.36 32.9773 1240.68 32.928 1240.97 32.8295C1241.25 32.7273 1241.5 32.5758 1241.71 32.375C1241.92 32.1705 1242.08 31.9167 1242.19 31.6136L1243.49 31.9773C1243.35 32.4167 1243.12 32.803 1242.8 33.1364C1242.48 33.4659 1242.08 33.7235 1241.61 33.9091C1241.13 34.0909 1240.6 34.1818 1240.01 34.1818ZM1245.66 34V25.2727H1246.96V26.5909H1247.05C1247.21 26.1591 1247.5 25.8087 1247.91 25.5398C1248.33 25.2708 1248.8 25.1364 1249.32 25.1364C1249.42 25.1364 1249.55 25.1383 1249.69 25.142C1249.84 25.1458 1249.95 25.1515 1250.03 25.1591V26.5227C1249.98 26.5114 1249.88 26.4943 1249.72 26.4716C1249.56 26.4451 1249.39 26.4318 1249.21 26.4318C1248.79 26.4318 1248.41 26.5208 1248.07 26.6989C1247.74 26.8731 1247.48 27.1155 1247.29 27.4261C1247.1 27.733 1247.01 28.0833 1247.01 28.4773V34H1245.66ZM1255.01 34.1818C1254.17 34.1818 1253.45 33.9962 1252.84 33.625C1252.23 33.25 1251.76 32.7273 1251.43 32.0568C1251.11 31.3826 1250.94 30.5985 1250.94 29.7045C1250.94 28.8106 1251.11 28.0227 1251.43 27.3409C1251.76 26.6553 1252.22 26.1212 1252.81 25.7386C1253.4 25.3523 1254.09 25.1591 1254.88 25.1591C1255.33 25.1591 1255.78 25.2348 1256.22 25.3864C1256.66 25.5379 1257.07 25.7841 1257.43 26.125C1257.8 26.4621 1258.09 26.9091 1258.3 27.4659C1258.52 28.0227 1258.62 28.7083 1258.62 29.5227V30.0909H1251.9V28.9318H1257.26C1257.26 28.4394 1257.16 28 1256.97 27.6136C1256.77 27.2273 1256.5 26.9223 1256.14 26.6989C1255.78 26.4754 1255.36 26.3636 1254.88 26.3636C1254.34 26.3636 1253.88 26.4962 1253.49 26.7614C1253.1 27.0227 1252.8 27.3636 1252.6 27.7841C1252.39 28.2045 1252.28 28.6553 1252.28 29.1364V29.9091C1252.28 30.5682 1252.4 31.1269 1252.62 31.5852C1252.86 32.0398 1253.18 32.3864 1253.59 32.625C1253.99 32.8598 1254.47 32.9773 1255.01 32.9773C1255.36 32.9773 1255.68 32.928 1255.97 32.8295C1256.25 32.7273 1256.5 32.5758 1256.71 32.375C1256.92 32.1705 1257.08 31.9167 1257.19 31.6136L1258.49 31.9773C1258.35 32.4167 1258.12 32.803 1257.8 33.1364C1257.48 33.4659 1257.08 33.7235 1256.61 33.9091C1256.13 34.0909 1255.6 34.1818 1255.01 34.1818ZM831.227 58V49.2727H832.568V58H831.227ZM831.909 47.8182C831.648 47.8182 831.422 47.7292 831.233 47.5511C831.047 47.3731 830.955 47.1591 830.955 46.9091C830.955 46.6591 831.047 46.4451 831.233 46.267C831.422 46.089 831.648 46 831.909 46C832.17 46 832.394 46.089 832.58 46.267C832.769 46.4451 832.864 46.6591 832.864 46.9091C832.864 47.1591 832.769 47.3731 832.58 47.5511C832.394 47.7292 832.17 47.8182 831.909 47.8182ZM838.82 49.2727V50.4091H834.297V49.2727H838.82ZM835.615 47.1818H836.956V55.5C836.956 55.8788 837.011 56.1629 837.121 56.3523C837.234 56.5379 837.378 56.6629 837.553 56.7273C837.731 56.7879 837.918 56.8182 838.115 56.8182C838.263 56.8182 838.384 56.8106 838.479 56.7955C838.573 56.7765 838.649 56.7614 838.706 56.75L838.979 57.9545C838.888 57.9886 838.761 58.0227 838.598 58.0568C838.435 58.0947 838.229 58.1136 837.979 58.1136C837.6 58.1136 837.229 58.0322 836.865 57.8693C836.505 57.7064 836.206 57.4583 835.967 57.125C835.732 56.7917 835.615 56.3712 835.615 55.8636V47.1818ZM849.132 49.2727V50.4091H844.609V49.2727H849.132ZM845.928 47.1818H847.268V55.5C847.268 55.8788 847.323 56.1629 847.433 56.3523C847.547 56.5379 847.691 56.6629 847.865 56.7273C848.043 56.7879 848.231 56.8182 848.428 56.8182C848.575 56.8182 848.696 56.8106 848.791 56.7955C848.886 56.7765 848.962 56.7614 849.018 56.75L849.291 57.9545C849.2 57.9886 849.073 58.0227 848.911 58.0568C848.748 58.0947 848.541 58.1136 848.291 58.1136C847.912 58.1136 847.541 58.0322 847.178 57.8693C846.818 57.7064 846.518 57.4583 846.28 57.125C846.045 56.7917 845.928 56.3712 845.928 55.8636V47.1818ZM852.013 61.25C851.786 61.25 851.583 61.2311 851.405 61.1932C851.227 61.1591 851.104 61.125 851.036 61.0909L851.376 59.9091C851.865 60.0341 852.272 60.0303 852.598 59.8977C852.924 59.7689 853.206 59.3788 853.445 58.7273L853.695 58.0455L850.467 49.2727H851.922L854.331 56.2273H854.422L856.831 49.2727L858.297 49.2955L854.581 59.2727C854.414 59.7159 854.208 60.0833 853.962 60.375C853.715 60.6705 853.429 60.8902 853.104 61.0341C852.782 61.178 852.418 61.25 852.013 61.25ZM860.071 61.2727V49.2727H861.366V50.6591H861.526C861.624 50.5076 861.76 50.3144 861.935 50.0795C862.113 49.8409 862.366 49.6288 862.696 49.4432C863.029 49.2538 863.48 49.1591 864.048 49.1591C864.783 49.1591 865.431 49.3428 865.991 49.7102C866.552 50.0777 866.99 50.5985 867.304 51.2727C867.618 51.947 867.776 52.7424 867.776 53.6591C867.776 54.5833 867.618 55.3845 867.304 56.0625C866.99 56.7367 866.554 57.2595 865.997 57.6307C865.44 57.9981 864.798 58.1818 864.071 58.1818C863.51 58.1818 863.062 58.089 862.724 57.9034C862.387 57.714 862.128 57.5 861.946 57.2614C861.764 57.0189 861.624 56.8182 861.526 56.6591H861.412V61.2727H860.071ZM861.389 53.6364C861.389 54.2955 861.486 54.8769 861.679 55.3807C861.872 55.8807 862.154 56.2727 862.526 56.5568C862.897 56.8371 863.351 56.9773 863.889 56.9773C864.45 56.9773 864.918 56.8295 865.293 56.5341C865.671 56.2348 865.955 55.8333 866.145 55.3295C866.338 54.822 866.435 54.2576 866.435 53.6364C866.435 53.0227 866.34 52.4697 866.151 51.9773C865.965 51.4811 865.683 51.089 865.304 50.8011C864.929 50.5095 864.457 50.3636 863.889 50.3636C863.344 50.3636 862.885 50.5019 862.514 50.7784C862.143 51.0511 861.863 51.4337 861.673 51.9261C861.484 52.4148 861.389 52.9848 861.389 53.6364ZM869.821 58V49.2727H871.162V58H869.821ZM870.503 47.8182C870.241 47.8182 870.016 47.7292 869.827 47.5511C869.641 47.3731 869.548 47.1591 869.548 46.9091C869.548 46.6591 869.641 46.4451 869.827 46.267C870.016 46.089 870.241 46 870.503 46C870.764 46 870.988 46.089 871.173 46.267C871.363 46.4451 871.457 46.6591 871.457 46.9091C871.457 47.1591 871.363 47.3731 871.173 47.5511C870.988 47.7292 870.764 47.8182 870.503 47.8182ZM877.163 58.1818C876.345 58.1818 875.641 57.9886 875.05 57.6023C874.459 57.2159 874.004 56.6837 873.686 56.0057C873.368 55.3277 873.209 54.553 873.209 53.6818C873.209 52.7955 873.372 52.0133 873.697 51.3352C874.027 50.6534 874.485 50.1212 875.072 49.7386C875.663 49.3523 876.353 49.1591 877.141 49.1591C877.754 49.1591 878.307 49.2727 878.8 49.5C879.292 49.7273 879.696 50.0455 880.01 50.4545C880.324 50.8636 880.519 51.3409 880.595 51.8864H879.254C879.152 51.4886 878.925 51.1364 878.572 50.8295C878.224 50.5189 877.754 50.3636 877.163 50.3636C876.641 50.3636 876.182 50.5 875.788 50.7727C875.398 51.0417 875.093 51.4223 874.874 51.9148C874.658 52.4034 874.55 52.9773 874.55 53.6364C874.55 54.3106 874.656 54.8977 874.868 55.3977C875.084 55.8977 875.387 56.286 875.777 56.5625C876.171 56.839 876.633 56.9773 877.163 56.9773C877.512 56.9773 877.828 56.9167 878.112 56.7955C878.396 56.6742 878.637 56.5 878.834 56.2727C879.031 56.0455 879.171 55.7727 879.254 55.4545H880.595C880.519 55.9697 880.332 56.4337 880.033 56.8466C879.737 57.2557 879.345 57.5814 878.857 57.8239C878.372 58.0625 877.807 58.1818 877.163 58.1818ZM885.124 58.2045C884.571 58.2045 884.069 58.1004 883.618 57.892C883.167 57.6799 882.809 57.375 882.544 56.9773C882.279 56.5758 882.146 56.0909 882.146 55.5227C882.146 55.0227 882.245 54.6174 882.442 54.3068C882.639 53.9924 882.902 53.7462 883.232 53.5682C883.561 53.3902 883.925 53.2576 884.322 53.1705C884.724 53.0795 885.127 53.0076 885.533 52.9545C886.063 52.8864 886.493 52.8352 886.822 52.8011C887.156 52.7633 887.398 52.7008 887.55 52.6136C887.705 52.5265 887.783 52.375 887.783 52.1591V52.1136C887.783 51.553 887.629 51.1174 887.322 50.8068C887.019 50.4962 886.559 50.3409 885.942 50.3409C885.302 50.3409 884.8 50.4811 884.436 50.7614C884.072 51.0417 883.817 51.3409 883.669 51.6591L882.396 51.2045C882.624 50.6742 882.927 50.2614 883.305 49.9659C883.688 49.6667 884.105 49.4583 884.555 49.3409C885.01 49.2197 885.457 49.1591 885.896 49.1591C886.177 49.1591 886.499 49.1932 886.862 49.2614C887.23 49.3258 887.584 49.4602 887.925 49.6648C888.269 49.8693 888.555 50.178 888.783 50.5909C889.01 51.0038 889.124 51.5568 889.124 52.25V58H887.783V56.8182H887.714C887.624 57.0076 887.472 57.2102 887.26 57.4261C887.048 57.642 886.766 57.8258 886.413 57.9773C886.061 58.1288 885.631 58.2045 885.124 58.2045ZM885.328 57C885.858 57 886.305 56.8958 886.669 56.6875C887.036 56.4792 887.313 56.2102 887.499 55.8807C887.688 55.5511 887.783 55.2045 887.783 54.8409V53.6136C887.726 53.6818 887.601 53.7443 887.408 53.8011C887.218 53.8542 886.999 53.9015 886.749 53.9432C886.502 53.9811 886.262 54.0152 886.027 54.0455C885.796 54.072 885.608 54.0947 885.464 54.1136C885.116 54.1591 884.79 54.233 884.487 54.3352C884.188 54.4337 883.946 54.5833 883.76 54.7841C883.578 54.9811 883.487 55.25 883.487 55.5909C883.487 56.0568 883.66 56.4091 884.004 56.6477C884.353 56.8826 884.794 57 885.328 57ZM892.912 46.3636V58H891.571V46.3636H892.912ZM896.709 46.3636V58H895.368V46.3636H896.709ZM900.028 61.25C899.801 61.25 899.598 61.2311 899.42 61.1932C899.242 61.1591 899.119 61.125 899.051 61.0909L899.392 59.9091C899.881 60.0341 900.288 60.0303 900.614 59.8977C900.939 59.7689 901.222 59.3788 901.46 58.7273L901.71 58.0455L898.483 49.2727H899.938L902.347 56.2273H902.438L904.847 49.2727L906.312 49.2955L902.597 59.2727C902.43 59.7159 902.223 60.0833 901.977 60.375C901.731 60.6705 901.445 60.8902 901.119 61.0341C900.797 61.178 900.434 61.25 900.028 61.25ZM915.155 58.2045C914.602 58.2045 914.1 58.1004 913.649 57.892C913.198 57.6799 912.84 57.375 912.575 56.9773C912.31 56.5758 912.178 56.0909 912.178 55.5227C912.178 55.0227 912.276 54.6174 912.473 54.3068C912.67 53.9924 912.933 53.7462 913.263 53.5682C913.592 53.3902 913.956 53.2576 914.354 53.1705C914.755 53.0795 915.159 53.0076 915.564 52.9545C916.094 52.8864 916.524 52.8352 916.854 52.8011C917.187 52.7633 917.429 52.7008 917.581 52.6136C917.736 52.5265 917.814 52.375 917.814 52.1591V52.1136C917.814 51.553 917.661 51.1174 917.354 50.8068C917.051 50.4962 916.59 50.3409 915.973 50.3409C915.333 50.3409 914.831 50.4811 914.467 50.7614C914.104 51.0417 913.848 51.3409 913.7 51.6591L912.428 51.2045C912.655 50.6742 912.958 50.2614 913.337 49.9659C913.719 49.6667 914.136 49.4583 914.587 49.3409C915.041 49.2197 915.488 49.1591 915.928 49.1591C916.208 49.1591 916.53 49.1932 916.893 49.2614C917.261 49.3258 917.615 49.4602 917.956 49.6648C918.301 49.8693 918.587 50.178 918.814 50.5909C919.041 51.0038 919.155 51.5568 919.155 52.25V58H917.814V56.8182H917.746C917.655 57.0076 917.503 57.2102 917.291 57.4261C917.079 57.642 916.797 57.8258 916.445 57.9773C916.092 58.1288 915.662 58.2045 915.155 58.2045ZM915.359 57C915.89 57 916.337 56.8958 916.7 56.6875C917.068 56.4792 917.344 56.2102 917.53 55.8807C917.719 55.5511 917.814 55.2045 917.814 54.8409V53.6136C917.757 53.6818 917.632 53.7443 917.439 53.8011C917.25 53.8542 917.03 53.9015 916.78 53.9432C916.534 53.9811 916.293 54.0152 916.058 54.0455C915.827 54.072 915.64 54.0947 915.496 54.1136C915.147 54.1591 914.821 54.233 914.518 54.3352C914.219 54.4337 913.977 54.5833 913.791 54.7841C913.609 54.9811 913.518 55.25 913.518 55.5909C913.518 56.0568 913.691 56.4091 914.036 56.6477C914.384 56.8826 914.825 57 915.359 57ZM921.602 61.2727V49.2727H922.898V50.6591H923.057C923.155 50.5076 923.292 50.3144 923.466 50.0795C923.644 49.8409 923.898 49.6288 924.227 49.4432C924.561 49.2538 925.011 49.1591 925.58 49.1591C926.314 49.1591 926.962 49.3428 927.523 49.7102C928.083 50.0777 928.521 50.5985 928.835 51.2727C929.15 51.947 929.307 52.7424 929.307 53.6591C929.307 54.5833 929.15 55.3845 928.835 56.0625C928.521 56.7367 928.085 57.2595 927.528 57.6307C926.972 57.9981 926.33 58.1818 925.602 58.1818C925.042 58.1818 924.593 58.089 924.256 57.9034C923.919 57.714 923.659 57.5 923.477 57.2614C923.295 57.0189 923.155 56.8182 923.057 56.6591H922.943V61.2727H921.602ZM922.92 53.6364C922.92 54.2955 923.017 54.8769 923.21 55.3807C923.403 55.8807 923.686 56.2727 924.057 56.5568C924.428 56.8371 924.883 56.9773 925.42 56.9773C925.981 56.9773 926.449 56.8295 926.824 56.5341C927.203 56.2348 927.487 55.8333 927.676 55.3295C927.869 54.822 927.966 54.2576 927.966 53.6364C927.966 53.0227 927.871 52.4697 927.682 51.9773C927.496 51.4811 927.214 51.089 926.835 50.8011C926.46 50.5095 925.989 50.3636 925.42 50.3636C924.875 50.3636 924.417 50.5019 924.045 50.7784C923.674 51.0511 923.394 51.4337 923.205 51.9261C923.015 52.4148 922.92 52.9848 922.92 53.6364ZM931.352 61.2727V49.2727H932.648V50.6591H932.807C932.905 50.5076 933.042 50.3144 933.216 50.0795C933.394 49.8409 933.648 49.6288 933.977 49.4432C934.311 49.2538 934.761 49.1591 935.33 49.1591C936.064 49.1591 936.712 49.3428 937.273 49.7102C937.833 50.0777 938.271 50.5985 938.585 51.2727C938.9 51.947 939.057 52.7424 939.057 53.6591C939.057 54.5833 938.9 55.3845 938.585 56.0625C938.271 56.7367 937.835 57.2595 937.278 57.6307C936.722 57.9981 936.08 58.1818 935.352 58.1818C934.792 58.1818 934.343 58.089 934.006 57.9034C933.669 57.714 933.409 57.5 933.227 57.2614C933.045 57.0189 932.905 56.8182 932.807 56.6591H932.693V61.2727H931.352ZM932.67 53.6364C932.67 54.2955 932.767 54.8769 932.96 55.3807C933.153 55.8807 933.436 56.2727 933.807 56.5568C934.178 56.8371 934.633 56.9773 935.17 56.9773C935.731 56.9773 936.199 56.8295 936.574 56.5341C936.953 56.2348 937.237 55.8333 937.426 55.3295C937.619 54.822 937.716 54.2576 937.716 53.6364C937.716 53.0227 937.621 52.4697 937.432 51.9773C937.246 51.4811 936.964 51.089 936.585 50.8011C936.21 50.5095 935.739 50.3636 935.17 50.3636C934.625 50.3636 934.167 50.5019 933.795 50.7784C933.424 51.0511 933.144 51.4337 932.955 51.9261C932.765 52.4148 932.67 52.9848 932.67 53.6364ZM944.761 58.1818C943.92 58.1818 943.195 57.9962 942.585 57.625C941.979 57.25 941.511 56.7273 941.182 56.0568C940.856 55.3826 940.693 54.5985 940.693 53.7045C940.693 52.8106 940.856 52.0227 941.182 51.3409C941.511 50.6553 941.97 50.1212 942.557 49.7386C943.148 49.3523 943.837 49.1591 944.625 49.1591C945.08 49.1591 945.528 49.2348 945.972 49.3864C946.415 49.5379 946.818 49.7841 947.182 50.125C947.545 50.4621 947.835 50.9091 948.051 51.4659C948.267 52.0227 948.375 52.7083 948.375 53.5227V54.0909H941.648V52.9318H947.011C947.011 52.4394 946.913 52 946.716 51.6136C946.523 51.2273 946.246 50.9223 945.886 50.6989C945.53 50.4754 945.11 50.3636 944.625 50.3636C944.091 50.3636 943.629 50.4962 943.239 50.7614C942.852 51.0227 942.555 51.3636 942.347 51.7841C942.138 52.2045 942.034 52.6553 942.034 53.1364V53.9091C942.034 54.5682 942.148 55.1269 942.375 55.5852C942.606 56.0398 942.926 56.3864 943.335 56.625C943.744 56.8598 944.22 56.9773 944.761 56.9773C945.114 56.9773 945.432 56.928 945.716 56.8295C946.004 56.7273 946.252 56.5758 946.46 56.375C946.669 56.1705 946.83 55.9167 946.943 55.6136L948.239 55.9773C948.102 56.4167 947.873 56.803 947.551 57.1364C947.229 57.4659 946.831 57.7235 946.358 57.9091C945.884 58.0909 945.352 58.1818 944.761 58.1818ZM952.983 58.2045C952.43 58.2045 951.928 58.1004 951.477 57.892C951.027 57.6799 950.669 57.375 950.403 56.9773C950.138 56.5758 950.006 56.0909 950.006 55.5227C950.006 55.0227 950.104 54.6174 950.301 54.3068C950.498 53.9924 950.761 53.7462 951.091 53.5682C951.42 53.3902 951.784 53.2576 952.182 53.1705C952.583 53.0795 952.987 53.0076 953.392 52.9545C953.922 52.8864 954.352 52.8352 954.682 52.8011C955.015 52.7633 955.258 52.7008 955.409 52.6136C955.564 52.5265 955.642 52.375 955.642 52.1591V52.1136C955.642 51.553 955.489 51.1174 955.182 50.8068C954.879 50.4962 954.419 50.3409 953.801 50.3409C953.161 50.3409 952.659 50.4811 952.295 50.7614C951.932 51.0417 951.676 51.3409 951.528 51.6591L950.256 51.2045C950.483 50.6742 950.786 50.2614 951.165 49.9659C951.547 49.6667 951.964 49.4583 952.415 49.3409C952.869 49.2197 953.316 49.1591 953.756 49.1591C954.036 49.1591 954.358 49.1932 954.722 49.2614C955.089 49.3258 955.443 49.4602 955.784 49.6648C956.129 49.8693 956.415 50.178 956.642 50.5909C956.869 51.0038 956.983 51.5568 956.983 52.25V58H955.642V56.8182H955.574C955.483 57.0076 955.331 57.2102 955.119 57.4261C954.907 57.642 954.625 57.8258 954.273 57.9773C953.92 58.1288 953.491 58.2045 952.983 58.2045ZM953.188 57C953.718 57 954.165 56.8958 954.528 56.6875C954.896 56.4792 955.172 56.2102 955.358 55.8807C955.547 55.5511 955.642 55.2045 955.642 54.8409V53.6136C955.585 53.6818 955.46 53.7443 955.267 53.8011C955.078 53.8542 954.858 53.9015 954.608 53.9432C954.362 53.9811 954.121 54.0152 953.886 54.0455C953.655 54.072 953.468 54.0947 953.324 54.1136C952.975 54.1591 952.65 54.233 952.347 54.3352C952.047 54.4337 951.805 54.5833 951.619 54.7841C951.438 54.9811 951.347 55.25 951.347 55.5909C951.347 56.0568 951.519 56.4091 951.864 56.6477C952.212 56.8826 952.653 57 953.188 57ZM959.43 58V49.2727H960.726V50.5909H960.817C960.976 50.1591 961.264 49.8087 961.68 49.5398C962.097 49.2708 962.567 49.1364 963.089 49.1364C963.188 49.1364 963.311 49.1383 963.459 49.142C963.607 49.1458 963.718 49.1515 963.794 49.1591V50.5227C963.749 50.5114 963.644 50.4943 963.482 50.4716C963.322 50.4451 963.154 50.4318 962.976 50.4318C962.552 50.4318 962.173 50.5208 961.839 50.6989C961.51 50.8731 961.249 51.1155 961.055 51.4261C960.866 51.733 960.771 52.0833 960.771 52.4773V58H959.43ZM971.565 51.2273L970.361 51.5682C970.285 51.3674 970.173 51.1723 970.026 50.983C969.882 50.7898 969.685 50.6307 969.435 50.5057C969.185 50.3807 968.865 50.3182 968.474 50.3182C967.94 50.3182 967.495 50.4413 967.139 50.6875C966.787 50.9299 966.611 51.2386 966.611 51.6136C966.611 51.947 966.732 52.2102 966.974 52.4034C967.217 52.5966 967.596 52.7576 968.111 52.8864L969.406 53.2045C970.187 53.3939 970.768 53.6837 971.151 54.0739C971.533 54.4602 971.724 54.9583 971.724 55.5682C971.724 56.0682 971.58 56.5152 971.293 56.9091C971.009 57.303 970.611 57.6136 970.099 57.8409C969.588 58.0682 968.993 58.1818 968.315 58.1818C967.425 58.1818 966.688 57.9886 966.105 57.6023C965.522 57.2159 965.152 56.6515 964.997 55.9091L966.27 55.5909C966.391 56.0606 966.62 56.4129 966.957 56.6477C967.298 56.8826 967.743 57 968.293 57C968.918 57 969.414 56.8674 969.781 56.6023C970.152 56.3333 970.338 56.0114 970.338 55.6364C970.338 55.3333 970.232 55.0795 970.02 54.875C969.808 54.6667 969.482 54.5114 969.043 54.4091L967.588 54.0682C966.789 53.8788 966.202 53.5852 965.827 53.1875C965.455 52.786 965.27 52.2841 965.27 51.6818C965.27 51.1894 965.408 50.7538 965.685 50.375C965.965 49.9962 966.346 49.6989 966.827 49.483C967.312 49.267 967.861 49.1591 968.474 49.1591C969.338 49.1591 970.016 49.3485 970.509 49.7273C971.005 50.1061 971.357 50.6061 971.565 51.2273ZM974.72 58.0909C974.44 58.0909 974.199 57.9905 973.999 57.7898C973.798 57.589 973.697 57.3485 973.697 57.0682C973.697 56.7879 973.798 56.5473 973.999 56.3466C974.199 56.1458 974.44 56.0455 974.72 56.0455C975 56.0455 975.241 56.1458 975.442 56.3466C975.643 56.5473 975.743 56.7879 975.743 57.0682C975.743 57.2538 975.696 57.4242 975.601 57.5795C975.51 57.7348 975.387 57.8598 975.232 57.9545C975.08 58.0455 974.91 58.0909 974.72 58.0909Z" fill="white" fill-opacity="0.95"/>
</svg>
