<svg width="630" height="197" viewBox="0 0 630 197" fill="none" xmlns="http://www.w3.org/2000/svg">
<path d="M0 24C0 10.7452 10.7452 0 24 0H606C619.255 0 630 10.7452 630 24V173C630 186.255 619.255 197 606 197H24C10.7452 197 0 186.255 0 173V24Z" fill="#262626"/>
<path d="M585.2 48.1999C585.068 48.2002 584.938 48.1743 584.816 48.1236C584.694 48.073 584.584 47.9987 584.491 47.905L577.291 40.6696C577.198 40.5765 577.125 40.4661 577.075 40.3446C577.025 40.2232 577 40.0931 577 39.9618C577 39.8305 577.027 39.7005 577.077 39.5793C577.128 39.4581 577.202 39.3481 577.295 39.2555C577.388 39.1629 577.498 39.0896 577.62 39.0397C577.741 38.9898 577.871 38.9643 578.003 38.9646C578.134 38.965 578.264 38.9912 578.385 39.0418C578.506 39.0924 578.616 39.1663 578.709 39.2595L585.254 45.8366L601.35 32.0417C601.551 31.8692 601.812 31.7837 602.077 31.804C602.341 31.8244 602.586 31.9488 602.759 32.1501C602.931 32.3513 603.017 32.6129 602.996 32.8771C602.976 33.1414 602.852 33.3868 602.65 33.5593L585.85 47.9587C585.67 48.1145 585.439 48.2001 585.2 48.1999Z" fill="url(#paint0_linear_2395_6687)"/>
<g clip-path="url(#clip0_2395_6687)">
<path d="M113.707 96L119.353 90.3536C119.445 90.2594 119.496 90.133 119.495 90.0017C119.494 89.8704 119.441 89.7448 119.348 89.652C119.255 89.5591 119.13 89.5065 118.998 89.5055C118.867 89.5045 118.741 89.5552 118.646 89.6466L112.646 95.6466C112.553 95.7404 112.5 95.8675 112.5 96.0001C112.5 96.1327 112.553 96.2599 112.646 96.3536L118.646 102.354C118.693 102.401 118.748 102.439 118.809 102.465C118.87 102.491 118.935 102.505 119.002 102.505C119.068 102.506 119.134 102.493 119.195 102.468C119.256 102.443 119.312 102.406 119.359 102.359C119.406 102.312 119.443 102.256 119.468 102.195C119.493 102.134 119.506 102.068 119.505 102.002C119.505 101.935 119.491 101.87 119.465 101.809C119.439 101.748 119.401 101.693 119.353 101.647L113.707 96Z" fill="white" fill-opacity="0.95"/>
<g clip-path="url(#clip1_2395_6687)">
<rect x="144" y="80" width="93" height="32" rx="16" fill="white" fill-opacity="0.2"/>
<path d="M157.555 90.8182H159.419L162.661 98.733H162.78L166.022 90.8182H167.886V101H166.424V93.6321H166.33L163.327 100.985H162.114L159.111 93.6271H159.017V101H157.555V90.8182ZM173.291 101.154C172.539 101.154 171.891 100.993 171.348 100.672C170.807 100.347 170.39 99.8913 170.095 99.3047C169.803 98.7147 169.657 98.0237 169.657 97.2315C169.657 96.4493 169.803 95.7599 170.095 95.1634C170.39 94.5668 170.801 94.1011 171.328 93.7663C171.858 93.4316 172.478 93.2642 173.187 93.2642C173.618 93.2642 174.036 93.3355 174.44 93.478C174.844 93.6205 175.207 93.8442 175.529 94.1491C175.85 94.4541 176.104 94.8501 176.289 95.3374C176.475 95.8213 176.568 96.4096 176.568 97.1023V97.6293H170.497V96.5156H175.111C175.111 96.1245 175.032 95.7782 174.872 95.4766C174.713 95.1716 174.49 94.9313 174.201 94.7557C173.916 94.58 173.581 94.4922 173.197 94.4922C172.779 94.4922 172.415 94.5949 172.103 94.8004C171.795 95.0026 171.556 95.2678 171.387 95.5959C171.222 95.9207 171.139 96.2737 171.139 96.6548V97.5249C171.139 98.0353 171.228 98.4695 171.407 98.8274C171.59 99.1854 171.843 99.4588 172.168 99.6477C172.493 99.8333 172.872 99.9261 173.306 99.9261C173.588 99.9261 173.845 99.8864 174.077 99.8068C174.309 99.724 174.509 99.6013 174.679 99.4389C174.848 99.2765 174.977 99.076 175.066 98.8374L176.473 99.0909C176.361 99.5052 176.158 99.8681 175.867 100.18C175.578 100.488 175.215 100.728 174.778 100.901C174.344 101.07 173.848 101.154 173.291 101.154ZM183.939 95.228L182.592 95.4666C182.536 95.2943 182.446 95.1302 182.324 94.9744C182.204 94.8187 182.042 94.6911 181.836 94.5916C181.631 94.4922 181.374 94.4425 181.066 94.4425C180.645 94.4425 180.294 94.5369 180.012 94.7259C179.73 94.9115 179.589 95.1518 179.589 95.4467C179.589 95.7019 179.684 95.9074 179.873 96.0632C180.062 96.219 180.366 96.3466 180.787 96.446L182 96.7244C182.703 96.8868 183.227 97.1371 183.571 97.4751C183.916 97.8132 184.089 98.2524 184.089 98.7926C184.089 99.25 183.956 99.6577 183.691 100.016C183.429 100.37 183.063 100.649 182.592 100.851C182.125 101.053 181.583 101.154 180.966 101.154C180.111 101.154 179.414 100.972 178.873 100.607C178.333 100.239 178.002 99.7173 177.879 99.0412L179.316 98.8224C179.405 99.197 179.589 99.4804 179.868 99.6726C180.146 99.8615 180.509 99.956 180.956 99.956C181.444 99.956 181.833 99.8549 182.125 99.6527C182.416 99.4472 182.562 99.197 182.562 98.902C182.562 98.6634 182.473 98.4628 182.294 98.3004C182.118 98.138 181.848 98.0154 181.483 97.9325L180.191 97.6491C179.478 97.4867 178.951 97.2282 178.61 96.8736C178.272 96.5189 178.103 96.0698 178.103 95.5263C178.103 95.0755 178.229 94.6811 178.481 94.343C178.732 94.005 179.08 93.7415 179.525 93.5526C179.969 93.3603 180.477 93.2642 181.051 93.2642C181.876 93.2642 182.526 93.4432 183 93.8011C183.474 94.1558 183.787 94.6314 183.939 95.228ZM191.445 95.228L190.098 95.4666C190.042 95.2943 189.952 95.1302 189.829 94.9744C189.71 94.8187 189.548 94.6911 189.342 94.5916C189.137 94.4922 188.88 94.4425 188.572 94.4425C188.151 94.4425 187.799 94.5369 187.518 94.7259C187.236 94.9115 187.095 95.1518 187.095 95.4467C187.095 95.7019 187.19 95.9074 187.378 96.0632C187.567 96.219 187.872 96.3466 188.293 96.446L189.506 96.7244C190.209 96.8868 190.733 97.1371 191.077 97.4751C191.422 97.8132 191.594 98.2524 191.594 98.7926C191.594 99.25 191.462 99.6577 191.197 100.016C190.935 100.37 190.569 100.649 190.098 100.851C189.631 101.053 189.089 101.154 188.472 101.154C187.617 101.154 186.919 100.972 186.379 100.607C185.839 100.239 185.507 99.7173 185.385 99.0412L186.822 98.8224C186.911 99.197 187.095 99.4804 187.373 99.6726C187.652 99.8615 188.015 99.956 188.462 99.956C188.949 99.956 189.339 99.8549 189.631 99.6527C189.922 99.4472 190.068 99.197 190.068 98.902C190.068 98.6634 189.979 98.4628 189.8 98.3004C189.624 98.138 189.354 98.0154 188.989 97.9325L187.697 97.6491C186.984 97.4867 186.457 97.2282 186.116 96.8736C185.778 96.5189 185.609 96.0698 185.609 95.5263C185.609 95.0755 185.735 94.6811 185.986 94.343C186.238 94.005 186.586 93.7415 187.03 93.5526C187.475 93.3603 187.983 93.2642 188.557 93.2642C189.382 93.2642 190.032 93.4432 190.506 93.8011C190.98 94.1558 191.293 94.6314 191.445 95.228ZM195.451 101.169C194.967 101.169 194.53 101.08 194.139 100.901C193.747 100.718 193.438 100.455 193.209 100.11C192.984 99.7654 192.871 99.3428 192.871 98.8423C192.871 98.4115 192.954 98.0568 193.119 97.7784C193.285 97.5 193.509 97.2796 193.791 97.1172C194.072 96.9548 194.387 96.8321 194.735 96.7493C195.083 96.6664 195.438 96.6035 195.799 96.5604C196.256 96.5073 196.628 96.4643 196.913 96.4311C197.198 96.3946 197.405 96.3366 197.534 96.2571C197.663 96.1776 197.728 96.0483 197.728 95.8693V95.8345C197.728 95.4003 197.605 95.0639 197.36 94.8253C197.118 94.5866 196.757 94.4673 196.276 94.4673C195.776 94.4673 195.381 94.5784 195.093 94.8004C194.808 95.0192 194.611 95.2628 194.502 95.5312L193.104 95.2131C193.27 94.7491 193.512 94.3745 193.83 94.0895C194.152 93.8011 194.521 93.5923 194.939 93.4631C195.357 93.3305 195.796 93.2642 196.256 93.2642C196.561 93.2642 196.885 93.3007 197.226 93.3736C197.571 93.4432 197.892 93.5724 198.19 93.7614C198.492 93.9503 198.739 94.2204 198.931 94.5717C199.123 94.9197 199.22 95.3722 199.22 95.929V101H197.768V99.956H197.708C197.612 100.148 197.468 100.337 197.276 100.523C197.083 100.708 196.836 100.862 196.535 100.985C196.233 101.108 195.872 101.169 195.451 101.169ZM195.774 99.9759C196.185 99.9759 196.537 99.8946 196.828 99.7322C197.123 99.5698 197.347 99.3577 197.499 99.0959C197.655 98.8307 197.733 98.5473 197.733 98.2457V97.2614C197.68 97.3144 197.577 97.3641 197.425 97.4105C197.276 97.4536 197.105 97.4917 196.913 97.5249C196.72 97.5547 196.533 97.5829 196.351 97.6094C196.169 97.6326 196.016 97.6525 195.894 97.669C195.605 97.7055 195.342 97.7668 195.103 97.853C194.868 97.9392 194.679 98.0634 194.536 98.2259C194.397 98.3849 194.328 98.5971 194.328 98.8622C194.328 99.2301 194.463 99.5085 194.735 99.6974C195.007 99.883 195.353 99.9759 195.774 99.9759ZM204.401 104.008C203.795 104.008 203.273 103.928 202.835 103.769C202.401 103.61 202.046 103.4 201.771 103.138C201.496 102.879 201.291 102.598 201.155 102.293L202.432 101.766C202.522 101.905 202.641 102.056 202.79 102.218C202.943 102.38 203.148 102.52 203.407 102.636C203.669 102.752 204.005 102.81 204.416 102.81C204.98 102.81 205.445 102.674 205.813 102.402C206.181 102.13 206.365 101.699 206.365 101.109V99.608H206.271C206.181 99.7704 206.052 99.951 205.883 100.15C205.717 100.349 205.488 100.521 205.197 100.667C204.905 100.813 204.525 100.886 204.058 100.886C203.455 100.886 202.911 100.745 202.427 100.463C201.947 100.178 201.566 99.7588 201.284 99.2053C201.006 98.6484 200.866 97.964 200.866 97.152C200.866 96.34 201.004 95.6439 201.279 95.0639C201.557 94.4839 201.939 94.0398 202.422 93.7315C202.906 93.42 203.455 93.2642 204.068 93.2642C204.542 93.2642 204.925 93.3438 205.217 93.5028C205.508 93.6586 205.735 93.8409 205.898 94.0497C206.063 94.2585 206.191 94.4425 206.28 94.6016H206.39V93.3636H207.847V101.169C207.847 101.819 207.694 102.352 207.389 102.77C207.084 103.191 206.672 103.502 206.151 103.705C205.634 103.907 205.051 104.008 204.401 104.008ZM204.386 99.6527C204.814 99.6527 205.175 99.5533 205.47 99.3544C205.768 99.1522 205.994 98.8639 206.146 98.4893C206.302 98.1115 206.38 97.6591 206.38 97.1321C206.38 96.6184 206.304 96.166 206.151 95.7749C205.999 95.3838 205.775 95.0788 205.48 94.8601C205.185 94.638 204.82 94.527 204.386 94.527C203.939 94.527 203.566 94.643 203.268 94.875C202.969 95.1037 202.744 95.4152 202.592 95.8097C202.442 96.2041 202.368 96.6449 202.368 97.1321C202.368 97.6326 202.444 98.0717 202.597 98.4496C202.749 98.8274 202.974 99.1224 203.273 99.3345C203.574 99.5466 203.945 99.6527 204.386 99.6527ZM213.131 101.154C212.379 101.154 211.731 100.993 211.187 100.672C210.647 100.347 210.23 99.8913 209.935 99.3047C209.643 98.7147 209.497 98.0237 209.497 97.2315C209.497 96.4493 209.643 95.7599 209.935 95.1634C210.23 94.5668 210.641 94.1011 211.168 93.7663C211.698 93.4316 212.318 93.2642 213.027 93.2642C213.458 93.2642 213.875 93.3355 214.28 93.478C214.684 93.6205 215.047 93.8442 215.369 94.1491C215.69 94.4541 215.944 94.8501 216.129 95.3374C216.315 95.8213 216.408 96.4096 216.408 97.1023V97.6293H210.337V96.5156H214.951C214.951 96.1245 214.871 95.7782 214.712 95.4766C214.553 95.1716 214.329 94.9313 214.041 94.7557C213.756 94.58 213.421 94.4922 213.037 94.4922C212.619 94.4922 212.255 94.5949 211.943 94.8004C211.635 95.0026 211.396 95.2678 211.227 95.5959C211.061 95.9207 210.979 96.2737 210.979 96.6548V97.5249C210.979 98.0353 211.068 98.4695 211.247 98.8274C211.429 99.1854 211.683 99.4588 212.008 99.6477C212.333 99.8333 212.712 99.9261 213.146 99.9261C213.428 99.9261 213.685 99.8864 213.917 99.8068C214.149 99.724 214.349 99.6013 214.518 99.4389C214.687 99.2765 214.817 99.076 214.906 98.8374L216.313 99.0909C216.2 99.5052 215.998 99.8681 215.707 100.18C215.418 100.488 215.055 100.728 214.618 100.901C214.184 101.07 213.688 101.154 213.131 101.154ZM223.779 95.228L222.432 95.4666C222.376 95.2943 222.286 95.1302 222.163 94.9744C222.044 94.8187 221.882 94.6911 221.676 94.5916C221.471 94.4922 221.214 94.4425 220.906 94.4425C220.485 94.4425 220.133 94.5369 219.852 94.7259C219.57 94.9115 219.429 95.1518 219.429 95.4467C219.429 95.7019 219.524 95.9074 219.712 96.0632C219.901 96.219 220.206 96.3466 220.627 96.446L221.84 96.7244C222.543 96.8868 223.067 97.1371 223.411 97.4751C223.756 97.8132 223.928 98.2524 223.928 98.7926C223.928 99.25 223.796 99.6577 223.531 100.016C223.269 100.37 222.903 100.649 222.432 100.851C221.965 101.053 221.423 101.154 220.806 101.154C219.951 101.154 219.253 100.972 218.713 100.607C218.173 100.239 217.841 99.7173 217.719 99.0412L219.156 98.8224C219.245 99.197 219.429 99.4804 219.707 99.6726C219.986 99.8615 220.349 99.956 220.796 99.956C221.283 99.956 221.673 99.8549 221.965 99.6527C222.256 99.4472 222.402 99.197 222.402 98.902C222.402 98.6634 222.313 98.4628 222.134 98.3004C221.958 98.138 221.688 98.0154 221.323 97.9325L220.031 97.6491C219.318 97.4867 218.791 97.2282 218.45 96.8736C218.112 96.5189 217.943 96.0698 217.943 95.5263C217.943 95.0755 218.069 94.6811 218.32 94.343C218.572 94.005 218.92 93.7415 219.364 93.5526C219.809 93.3603 220.317 93.2642 220.891 93.2642C221.716 93.2642 222.366 93.4432 222.84 93.8011C223.314 94.1558 223.627 94.6314 223.779 95.228Z" fill="white" fill-opacity="0.95"/>
<path d="M258.191 101V90.8182H261.82C262.612 90.8182 263.269 90.9624 263.789 91.2507C264.309 91.5391 264.699 91.9335 264.957 92.4339C265.216 92.9311 265.345 93.4912 265.345 94.1143C265.345 94.7408 265.214 95.3042 264.952 95.8047C264.694 96.3018 264.303 96.6963 263.779 96.9879C263.259 97.2763 262.604 97.4205 261.815 97.4205H259.319V96.1179H261.676C262.176 96.1179 262.582 96.0317 262.894 95.8594C263.206 95.6837 263.434 95.4451 263.58 95.1435C263.726 94.8419 263.799 94.4988 263.799 94.1143C263.799 93.7299 263.726 93.3885 263.58 93.0902C263.434 92.7919 263.204 92.5582 262.889 92.3892C262.577 92.2202 262.166 92.1357 261.656 92.1357H259.727V101H258.191ZM270.222 101.154C269.47 101.154 268.822 100.993 268.278 100.672C267.738 100.347 267.32 99.8913 267.025 99.3047C266.734 98.7147 266.588 98.0237 266.588 97.2315C266.588 96.4493 266.734 95.7599 267.025 95.1634C267.32 94.5668 267.731 94.1011 268.258 93.7663C268.789 93.4316 269.408 93.2642 270.118 93.2642C270.549 93.2642 270.966 93.3355 271.371 93.478C271.775 93.6205 272.138 93.8442 272.459 94.1491C272.781 94.4541 273.034 94.8501 273.22 95.3374C273.406 95.8213 273.498 96.4096 273.498 97.1023V97.6293H267.428V96.5156H272.042C272.042 96.1245 271.962 95.7782 271.803 95.4766C271.644 95.1716 271.42 94.9313 271.132 94.7557C270.847 94.58 270.512 94.4922 270.128 94.4922C269.71 94.4922 269.345 94.5949 269.034 94.8004C268.726 95.0026 268.487 95.2678 268.318 95.5959C268.152 95.9207 268.069 96.2737 268.069 96.6548V97.5249C268.069 98.0353 268.159 98.4695 268.338 98.8274C268.52 99.1854 268.774 99.4588 269.099 99.6477C269.423 99.8333 269.803 99.9261 270.237 99.9261C270.519 99.9261 270.776 99.8864 271.008 99.8068C271.24 99.724 271.44 99.6013 271.609 99.4389C271.778 99.2765 271.907 99.076 271.997 98.8374L273.404 99.0909C273.291 99.5052 273.089 99.8681 272.797 100.18C272.509 100.488 272.146 100.728 271.709 100.901C271.274 101.07 270.779 101.154 270.222 101.154ZM278.364 101.154C277.648 101.154 277.024 100.99 276.49 100.662C275.956 100.334 275.542 99.8748 275.247 99.2848C274.952 98.6948 274.805 98.0054 274.805 97.2166C274.805 96.4245 274.952 95.7318 275.247 95.1385C275.542 94.5452 275.956 94.0845 276.49 93.7564C277.024 93.4283 277.648 93.2642 278.364 93.2642C279.08 93.2642 279.705 93.4283 280.239 93.7564C280.772 94.0845 281.187 94.5452 281.482 95.1385C281.777 95.7318 281.924 96.4245 281.924 97.2166C281.924 98.0054 281.777 98.6948 281.482 99.2848C281.187 99.8748 280.772 100.334 280.239 100.662C279.705 100.99 279.08 101.154 278.364 101.154ZM278.369 99.9062C278.833 99.9062 279.218 99.7836 279.523 99.5384C279.828 99.2931 280.053 98.9666 280.199 98.5589C280.348 98.1513 280.423 97.7022 280.423 97.2116C280.423 96.7244 280.348 96.277 280.199 95.8693C280.053 95.4583 279.828 95.1286 279.523 94.88C279.218 94.6314 278.833 94.5071 278.369 94.5071C277.902 94.5071 277.514 94.6314 277.206 94.88C276.901 95.1286 276.674 95.4583 276.525 95.8693C276.379 96.277 276.306 96.7244 276.306 97.2116C276.306 97.7022 276.379 98.1513 276.525 98.5589C276.674 98.9666 276.901 99.2931 277.206 99.5384C277.514 99.7836 277.902 99.9062 278.369 99.9062ZM283.583 103.864V93.3636H285.035V94.6016H285.159C285.245 94.4425 285.37 94.2585 285.532 94.0497C285.695 93.8409 285.92 93.6586 286.208 93.5028C286.497 93.3438 286.878 93.2642 287.352 93.2642C287.968 93.2642 288.518 93.42 289.002 93.7315C289.486 94.0431 289.866 94.4922 290.141 95.0788C290.419 95.6655 290.558 96.3714 290.558 97.1967C290.558 98.022 290.421 98.7296 290.146 99.3196C289.871 99.9062 289.493 100.359 289.012 100.677C288.532 100.992 287.983 101.149 287.367 101.149C286.903 101.149 286.523 101.071 286.228 100.915C285.936 100.76 285.708 100.577 285.542 100.369C285.376 100.16 285.249 99.9742 285.159 99.8118H285.07V103.864H283.583ZM285.04 97.1818C285.04 97.7187 285.118 98.1894 285.274 98.5938C285.429 98.9981 285.655 99.3146 285.95 99.5433C286.245 99.7687 286.606 99.8814 287.034 99.8814C287.478 99.8814 287.849 99.7637 288.147 99.5284C288.445 99.2898 288.671 98.9666 288.823 98.5589C288.979 98.1513 289.057 97.6922 289.057 97.1818C289.057 96.678 288.981 96.2256 288.828 95.8246C288.679 95.4235 288.454 95.107 288.152 94.875C287.854 94.643 287.481 94.527 287.034 94.527C286.603 94.527 286.238 94.638 285.94 94.8601C285.645 95.0821 285.421 95.392 285.269 95.7898C285.116 96.1875 285.04 96.6515 285.04 97.1818ZM293.71 90.8182V101H292.224V90.8182H293.71ZM299.001 101.154C298.249 101.154 297.601 100.993 297.058 100.672C296.517 100.347 296.1 99.8913 295.805 99.3047C295.513 98.7147 295.367 98.0237 295.367 97.2315C295.367 96.4493 295.513 95.7599 295.805 95.1634C296.1 94.5668 296.511 94.1011 297.038 93.7663C297.568 93.4316 298.188 93.2642 298.897 93.2642C299.328 93.2642 299.746 93.3355 300.15 93.478C300.554 93.6205 300.917 93.8442 301.239 94.1491C301.56 94.4541 301.814 94.8501 301.999 95.3374C302.185 95.8213 302.278 96.4096 302.278 97.1023V97.6293H296.207V96.5156H300.821C300.821 96.1245 300.741 95.7782 300.582 95.4766C300.423 95.1716 300.2 94.9313 299.911 94.7557C299.626 94.58 299.291 94.4922 298.907 94.4922C298.489 94.4922 298.125 94.5949 297.813 94.8004C297.505 95.0026 297.266 95.2678 297.097 95.5959C296.932 95.9207 296.849 96.2737 296.849 96.6548V97.5249C296.849 98.0353 296.938 98.4695 297.117 98.8274C297.299 99.1854 297.553 99.4588 297.878 99.6477C298.203 99.8333 298.582 99.9261 299.016 99.9261C299.298 99.9261 299.555 99.8864 299.787 99.8068C300.019 99.724 300.219 99.6013 300.388 99.4389C300.558 99.2765 300.687 99.076 300.776 98.8374L302.183 99.0909C302.071 99.5052 301.868 99.8681 301.577 100.18C301.288 100.488 300.925 100.728 300.488 100.901C300.054 101.07 299.558 101.154 299.001 101.154Z" fill="white" fill-opacity="0.7"/>
<path d="M345.066 94.1293H343.515C343.456 93.7978 343.345 93.5062 343.182 93.2543C343.02 93.0024 342.821 92.7886 342.586 92.6129C342.35 92.4373 342.087 92.3047 341.795 92.2152C341.507 92.1257 341.2 92.081 340.875 92.081C340.289 92.081 339.763 92.2285 339.299 92.5234C338.839 92.8184 338.474 93.2509 338.206 93.821C337.941 94.3911 337.808 95.0871 337.808 95.9091C337.808 96.7377 337.941 97.437 338.206 98.0071C338.474 98.5772 338.84 99.008 339.304 99.2997C339.768 99.5914 340.29 99.7372 340.87 99.7372C341.192 99.7372 341.497 99.6941 341.785 99.608C342.077 99.5185 342.34 99.3875 342.576 99.2152C342.811 99.0429 343.01 98.8324 343.172 98.5838C343.338 98.3319 343.452 98.0436 343.515 97.7188L345.066 97.7237C344.984 98.2242 344.823 98.6849 344.584 99.1058C344.349 99.5234 344.046 99.8847 343.674 100.19C343.307 100.491 342.886 100.725 342.412 100.891C341.938 101.056 341.421 101.139 340.861 101.139C339.979 101.139 339.193 100.93 338.504 100.513C337.815 100.092 337.271 99.4903 336.873 98.7081C336.479 97.9259 336.282 96.9929 336.282 95.9091C336.282 94.822 336.481 93.889 336.878 93.1101C337.276 92.3279 337.82 91.728 338.509 91.3104C339.198 90.8894 339.982 90.679 340.861 90.679C341.401 90.679 341.905 90.7569 342.372 90.9126C342.843 91.0651 343.265 91.2905 343.64 91.5888C344.014 91.8838 344.324 92.245 344.569 92.6726C344.815 93.0968 344.98 93.5824 345.066 94.1293ZM350.002 101.154C349.286 101.154 348.661 100.99 348.128 100.662C347.594 100.334 347.18 99.8748 346.885 99.2848C346.59 98.6948 346.442 98.0054 346.442 97.2166C346.442 96.4245 346.59 95.7318 346.885 95.1385C347.18 94.5452 347.594 94.0845 348.128 93.7564C348.661 93.4283 349.286 93.2642 350.002 93.2642C350.718 93.2642 351.343 93.4283 351.876 93.7564C352.41 94.0845 352.824 94.5452 353.119 95.1385C353.414 95.7318 353.562 96.4245 353.562 97.2166C353.562 98.0054 353.414 98.6948 353.119 99.2848C352.824 99.8748 352.41 100.334 351.876 100.662C351.343 100.99 350.718 101.154 350.002 101.154ZM350.007 99.9062C350.471 99.9062 350.855 99.7836 351.16 99.5384C351.465 99.2931 351.691 98.9666 351.837 98.5589C351.986 98.1513 352.06 97.7022 352.06 97.2116C352.06 96.7244 351.986 96.277 351.837 95.8693C351.691 95.4583 351.465 95.1286 351.16 94.88C350.855 94.6314 350.471 94.5071 350.007 94.5071C349.54 94.5071 349.152 94.6314 348.844 94.88C348.539 95.1286 348.312 95.4583 348.163 95.8693C348.017 96.277 347.944 96.7244 347.944 97.2116C347.944 97.7022 348.017 98.1513 348.163 98.5589C348.312 98.9666 348.539 99.2931 348.844 99.5384C349.152 99.7836 349.54 99.9062 350.007 99.9062ZM356.707 96.4659V101H355.221V93.3636H356.648V94.6065H356.742C356.918 94.2022 357.193 93.8774 357.568 93.6321C357.945 93.3868 358.421 93.2642 358.994 93.2642C359.515 93.2642 359.97 93.3736 360.362 93.5923C360.753 93.8078 361.056 94.1293 361.271 94.5568C361.487 94.9844 361.595 95.513 361.595 96.1428V101H360.108V96.3217C360.108 95.7682 359.964 95.3357 359.676 95.0241C359.387 94.7093 358.991 94.5518 358.487 94.5518C358.143 94.5518 357.836 94.6264 357.568 94.7756C357.302 94.9247 357.092 95.1435 356.936 95.4318C356.784 95.7169 356.707 96.0616 356.707 96.4659ZM367.153 93.3636V94.5568H362.982V93.3636H367.153ZM364.1 91.5341H365.587V98.7578C365.587 99.0462 365.63 99.2633 365.716 99.4091C365.802 99.5516 365.913 99.6494 366.049 99.7024C366.188 99.7521 366.339 99.777 366.502 99.777C366.621 99.777 366.725 99.7687 366.815 99.7521C366.904 99.7356 366.974 99.7223 367.024 99.7124L367.292 100.94C367.206 100.973 367.083 101.007 366.924 101.04C366.765 101.076 366.566 101.096 366.328 101.099C365.936 101.106 365.572 101.036 365.234 100.891C364.896 100.745 364.622 100.519 364.413 100.214C364.205 99.9096 364.1 99.5268 364.1 99.0661V91.5341ZM372.006 101.154C371.254 101.154 370.606 100.993 370.062 100.672C369.522 100.347 369.105 99.8913 368.81 99.3047C368.518 98.7147 368.372 98.0237 368.372 97.2315C368.372 96.4493 368.518 95.7599 368.81 95.1634C369.105 94.5668 369.516 94.1011 370.043 93.7663C370.573 93.4316 371.193 93.2642 371.902 93.2642C372.333 93.2642 372.75 93.3355 373.155 93.478C373.559 93.6205 373.922 93.8442 374.244 94.1491C374.565 94.4541 374.819 94.8501 375.004 95.3374C375.19 95.8213 375.283 96.4096 375.283 97.1023V97.6293H369.212V96.5156H373.826C373.826 96.1245 373.746 95.7782 373.587 95.4766C373.428 95.1716 373.204 94.9313 372.916 94.7557C372.631 94.58 372.296 94.4922 371.912 94.4922C371.494 94.4922 371.13 94.5949 370.818 94.8004C370.51 95.0026 370.271 95.2678 370.102 95.5959C369.936 95.9207 369.854 96.2737 369.854 96.6548V97.5249C369.854 98.0353 369.943 98.4695 370.122 98.8274C370.304 99.1854 370.558 99.4588 370.883 99.6477C371.208 99.8333 371.587 99.9261 372.021 99.9261C372.303 99.9261 372.56 99.8864 372.792 99.8068C373.024 99.724 373.224 99.6013 373.393 99.4389C373.562 99.2765 373.692 99.076 373.781 98.8374L375.188 99.0909C375.075 99.5052 374.873 99.8681 374.582 100.18C374.293 100.488 373.93 100.728 373.493 100.901C373.059 101.07 372.563 101.154 372.006 101.154ZM378.418 96.4659V101H376.932V93.3636H378.359V94.6065H378.453C378.629 94.2022 378.904 93.8774 379.278 93.6321C379.656 93.3868 380.132 93.2642 380.705 93.2642C381.226 93.2642 381.681 93.3736 382.073 93.5923C382.464 93.8078 382.767 94.1293 382.982 94.5568C383.198 94.9844 383.305 95.513 383.305 96.1428V101H381.819V96.3217C381.819 95.7682 381.675 95.3357 381.386 95.0241C381.098 94.7093 380.702 94.5518 380.198 94.5518C379.854 94.5518 379.547 94.6264 379.278 94.7756C379.013 94.9247 378.803 95.1435 378.647 95.4318C378.495 95.7169 378.418 96.0616 378.418 96.4659ZM388.864 93.3636V94.5568H384.693V93.3636H388.864ZM385.811 91.5341H387.298V98.7578C387.298 99.0462 387.341 99.2633 387.427 99.4091C387.513 99.5516 387.624 99.6494 387.76 99.7024C387.899 99.7521 388.05 99.777 388.212 99.777C388.332 99.777 388.436 99.7687 388.526 99.7521C388.615 99.7356 388.685 99.7223 388.734 99.7124L389.003 100.94C388.917 100.973 388.794 101.007 388.635 101.04C388.476 101.076 388.277 101.096 388.038 101.099C387.647 101.106 387.283 101.036 386.945 100.891C386.607 100.745 386.333 100.519 386.124 100.214C385.916 99.9096 385.811 99.5268 385.811 99.0661V91.5341Z" fill="white" fill-opacity="0.7"/>
<path d="M424.159 101H422.529L426.193 90.8182H427.968L431.632 101H430.001L427.122 92.6676H427.043L424.159 101ZM424.433 97.0128H429.723V98.3054H424.433V97.0128ZM436.061 104.008C435.455 104.008 434.933 103.928 434.495 103.769C434.061 103.61 433.706 103.4 433.431 103.138C433.156 102.879 432.951 102.598 432.815 102.293L434.093 101.766C434.182 101.905 434.301 102.056 434.451 102.218C434.603 102.38 434.809 102.52 435.067 102.636C435.329 102.752 435.665 102.81 436.076 102.81C436.64 102.81 437.105 102.674 437.473 102.402C437.841 102.13 438.025 101.699 438.025 101.109V99.608H437.931C437.841 99.7704 437.712 99.951 437.543 100.15C437.377 100.349 437.148 100.521 436.857 100.667C436.565 100.813 436.186 100.886 435.718 100.886C435.115 100.886 434.572 100.745 434.088 100.463C433.607 100.178 433.226 99.7588 432.944 99.2053C432.666 98.6484 432.527 97.964 432.527 97.152C432.527 96.34 432.664 95.6439 432.939 95.0639C433.218 94.4839 433.599 94.0398 434.083 93.7315C434.567 93.42 435.115 93.2642 435.728 93.2642C436.202 93.2642 436.585 93.3438 436.877 93.5028C437.168 93.6586 437.395 93.8409 437.558 94.0497C437.724 94.2585 437.851 94.4425 437.941 94.6016H438.05V93.3636H439.507V101.169C439.507 101.819 439.354 102.352 439.049 102.77C438.744 103.191 438.332 103.502 437.811 103.705C437.294 103.907 436.711 104.008 436.061 104.008ZM436.046 99.6527C436.474 99.6527 436.835 99.5533 437.13 99.3544C437.429 99.1522 437.654 98.8639 437.806 98.4893C437.962 98.1115 438.04 97.6591 438.04 97.1321C438.04 96.6184 437.964 96.166 437.811 95.7749C437.659 95.3838 437.435 95.0788 437.14 94.8601C436.845 94.638 436.481 94.527 436.046 94.527C435.599 94.527 435.226 94.643 434.928 94.875C434.63 95.1037 434.404 95.4152 434.252 95.8097C434.103 96.2041 434.028 96.6449 434.028 97.1321C434.028 97.6326 434.104 98.0717 434.257 98.4496C434.409 98.8274 434.634 99.1224 434.933 99.3345C435.234 99.5466 435.606 99.6527 436.046 99.6527ZM444.791 101.154C444.039 101.154 443.391 100.993 442.848 100.672C442.307 100.347 441.89 99.8913 441.595 99.3047C441.303 98.7147 441.157 98.0237 441.157 97.2315C441.157 96.4493 441.303 95.7599 441.595 95.1634C441.89 94.5668 442.301 94.1011 442.828 93.7663C443.358 93.4316 443.978 93.2642 444.687 93.2642C445.118 93.2642 445.536 93.3355 445.94 93.478C446.344 93.6205 446.707 93.8442 447.029 94.1491C447.35 94.4541 447.604 94.8501 447.789 95.3374C447.975 95.8213 448.068 96.4096 448.068 97.1023V97.6293H441.997V96.5156H446.611C446.611 96.1245 446.532 95.7782 446.372 95.4766C446.213 95.1716 445.99 94.9313 445.701 94.7557C445.416 94.58 445.081 94.4922 444.697 94.4922C444.279 94.4922 443.915 94.5949 443.603 94.8004C443.295 95.0026 443.056 95.2678 442.887 95.5959C442.722 95.9207 442.639 96.2737 442.639 96.6548V97.5249C442.639 98.0353 442.728 98.4695 442.907 98.8274C443.09 99.1854 443.343 99.4588 443.668 99.6477C443.993 99.8333 444.372 99.9261 444.806 99.9261C445.088 99.9261 445.345 99.8864 445.577 99.8068C445.809 99.724 446.009 99.6013 446.179 99.4389C446.348 99.2765 446.477 99.076 446.566 98.8374L447.973 99.0909C447.861 99.5052 447.658 99.8681 447.367 100.18C447.078 100.488 446.715 100.728 446.278 100.901C445.844 101.07 445.348 101.154 444.791 101.154ZM451.204 96.4659V101H449.717V93.3636H451.144V94.6065H451.238C451.414 94.2022 451.689 93.8774 452.064 93.6321C452.441 93.3868 452.917 93.2642 453.491 93.2642C454.011 93.2642 454.467 93.3736 454.858 93.5923C455.249 93.8078 455.552 94.1293 455.767 94.5568C455.983 94.9844 456.091 95.513 456.091 96.1428V101H454.604V96.3217C454.604 95.7682 454.46 95.3357 454.172 95.0241C453.883 94.7093 453.487 94.5518 452.983 94.5518C452.639 94.5518 452.332 94.6264 452.064 94.7756C451.799 94.9247 451.588 95.1435 451.432 95.4318C451.28 95.7169 451.204 96.0616 451.204 96.4659ZM460.943 101.149C460.326 101.149 459.776 100.992 459.292 100.677C458.812 100.359 458.434 99.9062 458.159 99.3196C457.887 98.7296 457.751 98.022 457.751 97.1967C457.751 96.3714 457.889 95.6655 458.164 95.0788C458.442 94.4922 458.823 94.0431 459.307 93.7315C459.791 93.42 460.34 93.2642 460.953 93.2642C461.427 93.2642 461.808 93.3438 462.096 93.5028C462.388 93.6586 462.613 93.8409 462.772 94.0497C462.935 94.2585 463.061 94.4425 463.15 94.6016H463.24V90.8182H464.726V101H463.275V99.8118H463.15C463.061 99.9742 462.932 100.16 462.763 100.369C462.597 100.577 462.368 100.76 462.076 100.915C461.785 101.071 461.407 101.149 460.943 101.149ZM461.271 99.8814C461.699 99.8814 462.06 99.7687 462.355 99.5433C462.653 99.3146 462.879 98.9981 463.031 98.5938C463.187 98.1894 463.265 97.7187 463.265 97.1818C463.265 96.6515 463.188 96.1875 463.036 95.7898C462.883 95.392 462.66 95.0821 462.365 94.8601C462.07 94.638 461.705 94.527 461.271 94.527C460.824 94.527 460.451 94.643 460.152 94.875C459.854 95.107 459.629 95.4235 459.476 95.8246C459.327 96.2256 459.253 96.678 459.253 97.1818C459.253 97.6922 459.329 98.1513 459.481 98.5589C459.634 98.9666 459.859 99.2898 460.157 99.5284C460.459 99.7637 460.83 99.8814 461.271 99.8814ZM469.07 101.169C468.586 101.169 468.149 101.08 467.758 100.901C467.367 100.718 467.057 100.455 466.828 100.11C466.603 99.7654 466.49 99.3428 466.49 98.8423C466.49 98.4115 466.573 98.0568 466.739 97.7784C466.904 97.5 467.128 97.2796 467.41 97.1172C467.691 96.9548 468.006 96.8321 468.354 96.7493C468.702 96.6664 469.057 96.6035 469.418 96.5604C469.876 96.5073 470.247 96.4643 470.532 96.4311C470.817 96.3946 471.024 96.3366 471.153 96.2571C471.283 96.1776 471.347 96.0483 471.347 95.8693V95.8345C471.347 95.4003 471.225 95.0639 470.979 94.8253C470.737 94.5866 470.376 94.4673 469.896 94.4673C469.395 94.4673 469.001 94.5784 468.712 94.8004C468.427 95.0192 468.23 95.2628 468.121 95.5312L466.724 95.2131C466.889 94.7491 467.131 94.3745 467.449 94.0895C467.771 93.8011 468.141 93.5923 468.558 93.4631C468.976 93.3305 469.415 93.2642 469.876 93.2642C470.181 93.2642 470.504 93.3007 470.845 93.3736C471.19 93.4432 471.511 93.5724 471.81 93.7614C472.111 93.9503 472.358 94.2204 472.55 94.5717C472.743 94.9197 472.839 95.3722 472.839 95.929V101H471.387V99.956H471.327C471.231 100.148 471.087 100.337 470.895 100.523C470.703 100.708 470.456 100.862 470.154 100.985C469.852 101.108 469.491 101.169 469.07 101.169ZM469.393 99.9759C469.804 99.9759 470.156 99.8946 470.447 99.7322C470.742 99.5698 470.966 99.3577 471.119 99.0959C471.274 98.8307 471.352 98.5473 471.352 98.2457V97.2614C471.299 97.3144 471.196 97.3641 471.044 97.4105C470.895 97.4536 470.724 97.4917 470.532 97.5249C470.34 97.5547 470.152 97.5829 469.97 97.6094C469.788 97.6326 469.635 97.6525 469.513 97.669C469.224 97.7055 468.961 97.7668 468.722 97.853C468.487 97.9392 468.298 98.0634 468.155 98.2259C468.016 98.3849 467.947 98.5971 467.947 98.8622C467.947 99.2301 468.083 99.5085 468.354 99.6974C468.626 99.883 468.972 99.9759 469.393 99.9759Z" fill="white" fill-opacity="0.7"/>
</g>
<path d="M517.354 95.6466L511.354 89.6466C511.308 89.599 511.253 89.5611 511.192 89.535C511.131 89.5089 511.065 89.4953 510.999 89.4948C510.933 89.4943 510.867 89.507 510.806 89.5321C510.744 89.5572 510.688 89.5943 510.642 89.6412C510.595 89.6881 510.558 89.7438 510.532 89.8052C510.507 89.8665 510.495 89.9323 510.495 89.9986C510.496 90.0649 510.509 90.1304 510.535 90.1914C510.561 90.2523 510.599 90.3075 510.647 90.3537L516.293 96L510.647 101.647C510.599 101.693 510.561 101.748 510.535 101.809C510.509 101.87 510.496 101.935 510.495 102.002C510.495 102.068 510.507 102.134 510.532 102.195C510.558 102.256 510.595 102.312 510.642 102.359C510.688 102.406 510.744 102.443 510.806 102.468C510.867 102.493 510.933 102.506 510.999 102.505C511.065 102.505 511.131 102.491 511.192 102.465C511.253 102.439 511.308 102.401 511.354 102.354L517.354 96.3537C517.448 96.2599 517.5 96.1327 517.5 96.0001C517.5 95.8675 517.448 95.7404 517.354 95.6466Z" fill="white" fill-opacity="0.95"/>
</g>
<path d="M0 174H630C630 186.703 619.703 197 607 197H23C10.2975 197 0 186.703 0 174Z" fill="url(#paint1_linear_2395_6687)"/>
<defs>
<linearGradient id="paint0_linear_2395_6687" x1="590" y1="31.8011" x2="590" y2="48.1999" gradientUnits="userSpaceOnUse">
<stop stop-color="#3CC29A"/>
<stop offset="1" stop-color="#93C437"/>
</linearGradient>
<linearGradient id="paint1_linear_2395_6687" x1="315" y1="174" x2="315" y2="197" gradientUnits="userSpaceOnUse">
<stop stop-color="#3CC29A"/>
<stop offset="1" stop-color="#93C437"/>
</linearGradient>
<clipPath id="clip0_2395_6687">
<rect width="430" height="32" fill="white" transform="translate(100 80)"/>
</clipPath>
<clipPath id="clip1_2395_6687">
<rect width="342" height="32" fill="white" transform="translate(144 80)"/>
</clipPath>
</defs>
</svg>
