<svg width="407" height="240" viewBox="0 0 407 240" fill="none" xmlns="http://www.w3.org/2000/svg">
<rect width="406.667" height="240" rx="24" fill="#262626"/>
<path d="M55.1043 127.5H51.8089L56.8302 112.955H60.7932L65.8074 127.5H62.512L58.8685 116.278H58.7549L55.1043 127.5ZM54.8983 121.783H62.6824V124.183H54.8983V121.783ZM71.0134 127.678C70.1848 127.678 69.4343 127.464 68.762 127.038C68.0944 126.607 67.5641 125.975 67.1711 125.142C66.7828 124.304 66.5887 123.277 66.5887 122.06C66.5887 120.81 66.7899 119.77 67.1924 118.942C67.5948 118.108 68.1299 117.486 68.7975 117.074C69.4698 116.657 70.2061 116.449 71.0063 116.449C71.6171 116.449 72.1261 116.553 72.5333 116.761C72.9452 116.965 73.2767 117.221 73.5276 117.528C73.7833 117.831 73.9774 118.13 74.11 118.423H74.2023V112.955H77.2208V127.5H74.2378V125.753H74.11C73.968 126.056 73.7667 126.357 73.5063 126.655C73.2506 126.948 72.9168 127.192 72.5049 127.386C72.0977 127.58 71.6005 127.678 71.0134 127.678ZM71.9722 125.27C72.4599 125.27 72.8718 125.137 73.208 124.872C73.5489 124.602 73.8093 124.226 73.9893 123.743C74.1739 123.26 74.2662 122.694 74.2662 122.045C74.2662 121.397 74.1763 120.833 73.9964 120.355C73.8164 119.877 73.556 119.508 73.2151 119.247C72.8742 118.987 72.4599 118.857 71.9722 118.857C71.4751 118.857 71.056 118.991 70.7151 119.261C70.3742 119.531 70.1162 119.905 69.941 120.384C69.7658 120.862 69.6782 121.416 69.6782 122.045C69.6782 122.68 69.7658 123.241 69.941 123.729C70.1209 124.212 70.3789 124.59 70.7151 124.865C71.056 125.135 71.4751 125.27 71.9722 125.27ZM83.7282 127.678C82.8997 127.678 82.1492 127.464 81.4768 127.038C80.8092 126.607 80.2789 125.975 79.8859 125.142C79.4977 124.304 79.3035 123.277 79.3035 122.06C79.3035 120.81 79.5048 119.77 79.9072 118.942C80.3097 118.108 80.8447 117.486 81.5123 117.074C82.1847 116.657 82.921 116.449 83.7211 116.449C84.3319 116.449 84.8409 116.553 85.2481 116.761C85.6601 116.965 85.9915 117.221 86.2425 117.528C86.4981 117.831 86.6923 118.13 86.8248 118.423H86.9172V112.955H89.9356V127.5H86.9527V125.753H86.8248C86.6828 126.056 86.4816 126.357 86.2211 126.655C85.9655 126.948 85.6317 127.192 85.2197 127.386C84.8125 127.58 84.3154 127.678 83.7282 127.678ZM84.6871 125.27C85.1747 125.27 85.5867 125.137 85.9229 124.872C86.2638 124.602 86.5242 124.226 86.7041 123.743C86.8888 123.26 86.9811 122.694 86.9811 122.045C86.9811 121.397 86.8911 120.833 86.7112 120.355C86.5313 119.877 86.2709 119.508 85.93 119.247C85.589 118.987 85.1747 118.857 84.6871 118.857C84.1899 118.857 83.7709 118.991 83.43 119.261C83.089 119.531 82.831 119.905 82.6558 120.384C82.4806 120.862 82.393 121.416 82.393 122.045C82.393 122.68 82.4806 123.241 82.6558 123.729C82.8357 124.212 83.0938 124.59 83.43 124.865C83.7709 125.135 84.1899 125.27 84.6871 125.27ZM102.024 127.713C100.902 127.713 99.9356 127.486 99.126 127.031C98.3211 126.572 97.7008 125.923 97.2652 125.085C96.8296 124.242 96.6118 123.246 96.6118 122.095C96.6118 120.973 96.8296 119.988 97.2652 119.141C97.7008 118.293 98.314 117.633 99.1047 117.159C99.9001 116.686 100.833 116.449 101.903 116.449C102.623 116.449 103.293 116.565 103.913 116.797C104.538 117.024 105.082 117.367 105.546 117.827C106.015 118.286 106.38 118.864 106.64 119.56C106.901 120.251 107.031 121.061 107.031 121.989V122.82H97.8192V120.945H104.183C104.183 120.509 104.088 120.123 103.899 119.787C103.709 119.451 103.447 119.188 103.11 118.999C102.779 118.804 102.393 118.707 101.953 118.707C101.493 118.707 101.086 118.814 100.731 119.027C100.381 119.235 100.106 119.517 99.9072 119.872C99.7084 120.223 99.6066 120.613 99.6018 121.044V122.827C99.6018 123.366 99.7013 123.833 99.9001 124.226C100.104 124.619 100.39 124.922 100.759 125.135C101.129 125.348 101.567 125.455 102.073 125.455C102.41 125.455 102.717 125.407 102.997 125.312C103.276 125.218 103.515 125.076 103.714 124.886C103.913 124.697 104.064 124.465 104.169 124.19L106.967 124.375C106.825 125.047 106.534 125.634 106.093 126.136C105.658 126.634 105.094 127.022 104.403 127.301C103.716 127.576 102.923 127.713 102.024 127.713ZM111.338 116.591L113.341 120.405L115.394 116.591H118.497L115.337 122.045L118.583 127.5H115.493L113.341 123.729L111.225 127.5H108.1L111.338 122.045L108.213 116.591H111.338ZM123.347 127.706C122.65 127.706 122.03 127.585 121.486 127.344C120.941 127.098 120.51 126.735 120.193 126.257C119.881 125.774 119.724 125.173 119.724 124.453C119.724 123.847 119.836 123.338 120.058 122.926C120.281 122.514 120.584 122.183 120.967 121.932C121.351 121.681 121.786 121.491 122.274 121.364C122.766 121.236 123.283 121.146 123.822 121.094C124.457 121.027 124.968 120.966 125.356 120.909C125.745 120.848 126.026 120.758 126.202 120.639C126.377 120.521 126.464 120.346 126.464 120.114V120.071C126.464 119.621 126.322 119.273 126.038 119.027C125.759 118.781 125.361 118.658 124.845 118.658C124.301 118.658 123.867 118.778 123.545 119.02C123.223 119.257 123.01 119.555 122.906 119.915L120.108 119.688C120.25 119.025 120.529 118.452 120.946 117.969C121.363 117.481 121.9 117.107 122.558 116.847C123.221 116.581 123.988 116.449 124.859 116.449C125.465 116.449 126.045 116.52 126.599 116.662C127.158 116.804 127.653 117.024 128.084 117.322C128.519 117.621 128.863 118.004 129.114 118.473C129.364 118.937 129.49 119.493 129.49 120.142V127.5H126.621V125.987H126.535C126.36 126.328 126.126 126.629 125.832 126.889C125.539 127.145 125.186 127.346 124.774 127.493C124.362 127.635 123.886 127.706 123.347 127.706ZM124.213 125.618C124.658 125.618 125.051 125.53 125.392 125.355C125.733 125.175 126 124.934 126.195 124.631C126.389 124.328 126.486 123.984 126.486 123.601V122.443C126.391 122.505 126.261 122.562 126.095 122.614C125.934 122.661 125.752 122.706 125.548 122.749C125.345 122.786 125.141 122.822 124.937 122.855C124.734 122.884 124.549 122.91 124.383 122.933C124.028 122.985 123.718 123.068 123.453 123.182C123.188 123.295 122.982 123.449 122.835 123.643C122.688 123.833 122.615 124.07 122.615 124.354C122.615 124.766 122.764 125.08 123.062 125.298C123.365 125.511 123.749 125.618 124.213 125.618ZM131.837 127.5V116.591H134.721V118.516H134.849C135.076 117.876 135.455 117.372 135.985 117.003C136.515 116.634 137.15 116.449 137.888 116.449C138.637 116.449 139.273 116.636 139.799 117.01C140.324 117.379 140.675 117.881 140.85 118.516H140.964C141.186 117.891 141.589 117.391 142.171 117.017C142.758 116.638 143.452 116.449 144.252 116.449C145.27 116.449 146.096 116.773 146.731 117.422C147.37 118.066 147.69 118.98 147.69 120.163V127.5H144.671V120.76C144.671 120.154 144.51 119.699 144.188 119.396C143.866 119.093 143.464 118.942 142.981 118.942C142.431 118.942 142.003 119.117 141.695 119.467C141.387 119.813 141.234 120.27 141.234 120.838V127.5H138.3V120.696C138.3 120.161 138.146 119.735 137.839 119.418C137.536 119.1 137.136 118.942 136.638 118.942C136.302 118.942 135.999 119.027 135.729 119.197C135.464 119.363 135.253 119.598 135.097 119.901C134.941 120.199 134.863 120.549 134.863 120.952V127.5H131.837ZM150.079 131.591V116.591H153.062V118.423H153.197C153.33 118.13 153.522 117.831 153.773 117.528C154.028 117.221 154.36 116.965 154.767 116.761C155.179 116.553 155.69 116.449 156.301 116.449C157.097 116.449 157.83 116.657 158.503 117.074C159.175 117.486 159.713 118.108 160.115 118.942C160.517 119.77 160.719 120.81 160.719 122.06C160.719 123.277 160.522 124.304 160.129 125.142C159.741 125.975 159.211 126.607 158.538 127.038C157.871 127.464 157.123 127.678 156.294 127.678C155.707 127.678 155.207 127.58 154.795 127.386C154.388 127.192 154.054 126.948 153.794 126.655C153.534 126.357 153.335 126.056 153.197 125.753H153.105V131.591H150.079ZM153.041 122.045C153.041 122.694 153.131 123.26 153.311 123.743C153.491 124.226 153.751 124.602 154.092 124.872C154.433 125.137 154.847 125.27 155.335 125.27C155.828 125.27 156.244 125.135 156.585 124.865C156.926 124.59 157.184 124.212 157.359 123.729C157.539 123.241 157.629 122.68 157.629 122.045C157.629 121.416 157.542 120.862 157.366 120.384C157.191 119.905 156.933 119.531 156.592 119.261C156.251 118.991 155.832 118.857 155.335 118.857C154.843 118.857 154.426 118.987 154.085 119.247C153.749 119.508 153.491 119.877 153.311 120.355C153.131 120.833 153.041 121.397 153.041 122.045ZM165.761 112.955V127.5H162.736V112.955H165.761ZM173.157 127.713C172.034 127.713 171.068 127.486 170.259 127.031C169.454 126.572 168.834 125.923 168.398 125.085C167.962 124.242 167.745 123.246 167.745 122.095C167.745 120.973 167.962 119.988 168.398 119.141C168.834 118.293 169.447 117.633 170.237 117.159C171.033 116.686 171.966 116.449 173.036 116.449C173.755 116.449 174.425 116.565 175.046 116.797C175.671 117.024 176.215 117.367 176.679 117.827C177.148 118.286 177.513 118.864 177.773 119.56C178.033 120.251 178.164 121.061 178.164 121.989V122.82H168.952V120.945H175.316C175.316 120.509 175.221 120.123 175.032 119.787C174.842 119.451 174.579 119.188 174.243 118.999C173.912 118.804 173.526 118.707 173.085 118.707C172.626 118.707 172.219 118.814 171.864 119.027C171.514 119.235 171.239 119.517 171.04 119.872C170.841 120.223 170.739 120.613 170.735 121.044V122.827C170.735 123.366 170.834 123.833 171.033 124.226C171.237 124.619 171.523 124.922 171.892 125.135C172.262 125.348 172.7 125.455 173.206 125.455C173.542 125.455 173.85 125.407 174.13 125.312C174.409 125.218 174.648 125.076 174.847 124.886C175.046 124.697 175.197 124.465 175.301 124.19L178.1 124.375C177.958 125.047 177.666 125.634 177.226 126.136C176.791 126.634 176.227 127.022 175.536 127.301C174.849 127.576 174.056 127.713 173.157 127.713ZM189.215 119.702L186.445 119.872C186.398 119.635 186.296 119.422 186.139 119.233C185.983 119.039 185.777 118.885 185.522 118.771C185.271 118.653 184.97 118.594 184.62 118.594C184.151 118.594 183.755 118.693 183.434 118.892C183.112 119.086 182.951 119.347 182.951 119.673C182.951 119.934 183.055 120.154 183.263 120.334C183.471 120.514 183.829 120.658 184.335 120.767L186.31 121.165C187.371 121.383 188.161 121.733 188.682 122.216C189.203 122.699 189.463 123.333 189.463 124.119C189.463 124.834 189.253 125.462 188.831 126.001C188.415 126.541 187.842 126.963 187.112 127.266C186.388 127.564 185.552 127.713 184.605 127.713C183.161 127.713 182.011 127.412 181.154 126.811C180.301 126.205 179.802 125.381 179.655 124.339L182.631 124.183C182.721 124.624 182.939 124.96 183.284 125.192C183.63 125.419 184.073 125.533 184.612 125.533C185.143 125.533 185.569 125.431 185.891 125.227C186.218 125.019 186.383 124.751 186.388 124.425C186.383 124.15 186.267 123.925 186.04 123.75C185.813 123.57 185.462 123.433 184.989 123.338L183.1 122.962C182.034 122.749 181.241 122.379 180.72 121.854C180.204 121.328 179.946 120.658 179.946 119.844C179.946 119.143 180.136 118.539 180.514 118.033C180.898 117.526 181.435 117.135 182.127 116.861C182.823 116.586 183.637 116.449 184.57 116.449C185.948 116.449 187.032 116.74 187.823 117.322C188.618 117.905 189.082 118.698 189.215 119.702ZM200.926 127.713C199.809 127.713 198.848 127.476 198.043 127.003C197.243 126.525 196.627 125.862 196.196 125.014C195.77 124.167 195.557 123.191 195.557 122.088C195.557 120.971 195.773 119.991 196.203 119.148C196.639 118.3 197.257 117.64 198.057 117.166C198.857 116.688 199.809 116.449 200.912 116.449C201.864 116.449 202.697 116.622 203.412 116.967C204.127 117.313 204.693 117.798 205.11 118.423C205.526 119.048 205.756 119.782 205.799 120.625H202.943C202.863 120.08 202.65 119.643 202.304 119.311C201.963 118.975 201.516 118.807 200.962 118.807C200.493 118.807 200.084 118.935 199.733 119.19C199.388 119.441 199.118 119.808 198.924 120.291C198.729 120.774 198.632 121.359 198.632 122.045C198.632 122.741 198.727 123.333 198.916 123.821C199.111 124.309 199.383 124.68 199.733 124.936C200.084 125.192 200.493 125.32 200.962 125.32C201.308 125.32 201.618 125.249 201.892 125.107C202.172 124.964 202.401 124.759 202.581 124.489C202.766 124.214 202.887 123.885 202.943 123.501H205.799C205.751 124.335 205.524 125.069 205.117 125.703C204.714 126.333 204.158 126.825 203.448 127.18C202.737 127.536 201.897 127.713 200.926 127.713ZM212.665 127.713C211.561 127.713 210.607 127.479 209.802 127.01C209.002 126.536 208.384 125.878 207.949 125.036C207.513 124.188 207.295 123.205 207.295 122.088C207.295 120.961 207.513 119.976 207.949 119.134C208.384 118.286 209.002 117.628 209.802 117.159C210.607 116.686 211.561 116.449 212.665 116.449C213.768 116.449 214.72 116.686 215.52 117.159C216.325 117.628 216.945 118.286 217.381 119.134C217.816 119.976 218.034 120.961 218.034 122.088C218.034 123.205 217.816 124.188 217.381 125.036C216.945 125.878 216.325 126.536 215.52 127.01C214.72 127.479 213.768 127.713 212.665 127.713ZM212.679 125.369C213.181 125.369 213.6 125.227 213.936 124.943C214.272 124.654 214.525 124.261 214.696 123.764C214.871 123.267 214.959 122.701 214.959 122.067C214.959 121.432 214.871 120.866 214.696 120.369C214.525 119.872 214.272 119.479 213.936 119.19C213.6 118.902 213.181 118.757 212.679 118.757C212.172 118.757 211.746 118.902 211.4 119.19C211.06 119.479 210.802 119.872 210.626 120.369C210.456 120.866 210.371 121.432 210.371 122.067C210.371 122.701 210.456 123.267 210.626 123.764C210.802 124.261 211.06 124.654 211.4 124.943C211.746 125.227 212.172 125.369 212.679 125.369ZM220.001 127.5V116.591H222.885V118.516H223.013C223.24 117.876 223.619 117.372 224.149 117.003C224.679 116.634 225.314 116.449 226.052 116.449C226.801 116.449 227.437 116.636 227.963 117.01C228.489 117.379 228.839 117.881 229.014 118.516H229.128C229.35 117.891 229.753 117.391 230.335 117.017C230.922 116.638 231.616 116.449 232.416 116.449C233.434 116.449 234.26 116.773 234.895 117.422C235.534 118.066 235.854 118.98 235.854 120.163V127.5H232.835V120.76C232.835 120.154 232.674 119.699 232.352 119.396C232.03 119.093 231.628 118.942 231.145 118.942C230.596 118.942 230.167 119.117 229.859 119.467C229.552 119.813 229.398 120.27 229.398 120.838V127.5H226.464V120.696C226.464 120.161 226.311 119.735 226.003 119.418C225.7 119.1 225.3 118.942 224.802 118.942C224.466 118.942 224.163 119.027 223.893 119.197C223.628 119.363 223.418 119.598 223.261 119.901C223.105 120.199 223.027 120.549 223.027 120.952V127.5H220.001ZM238.244 131.591V116.591H241.226V118.423H241.361C241.494 118.13 241.686 117.831 241.937 117.528C242.192 117.221 242.524 116.965 242.931 116.761C243.343 116.553 243.854 116.449 244.465 116.449C245.261 116.449 245.994 116.657 246.667 117.074C247.339 117.486 247.877 118.108 248.279 118.942C248.681 119.77 248.883 120.81 248.883 122.06C248.883 123.277 248.686 124.304 248.293 125.142C247.905 125.975 247.375 126.607 246.702 127.038C246.035 127.464 245.287 127.678 244.458 127.678C243.871 127.678 243.371 127.58 242.959 127.386C242.552 127.192 242.218 126.948 241.958 126.655C241.698 126.357 241.499 126.056 241.361 125.753H241.269V131.591H238.244ZM241.205 122.045C241.205 122.694 241.295 123.26 241.475 123.743C241.655 124.226 241.915 124.602 242.256 124.872C242.597 125.137 243.012 125.27 243.499 125.27C243.992 125.27 244.408 125.135 244.749 124.865C245.09 124.59 245.348 124.212 245.523 123.729C245.703 123.241 245.793 122.68 245.793 122.045C245.793 121.416 245.706 120.862 245.53 120.384C245.355 119.905 245.097 119.531 244.756 119.261C244.415 118.991 243.996 118.857 243.499 118.857C243.007 118.857 242.59 118.987 242.249 119.247C241.913 119.508 241.655 119.877 241.475 120.355C241.295 120.833 241.205 121.397 241.205 122.045ZM255.829 127.713C254.726 127.713 253.771 127.479 252.967 127.01C252.166 126.536 251.548 125.878 251.113 125.036C250.677 124.188 250.459 123.205 250.459 122.088C250.459 120.961 250.677 119.976 251.113 119.134C251.548 118.286 252.166 117.628 252.967 117.159C253.771 116.686 254.726 116.449 255.829 116.449C256.932 116.449 257.884 116.686 258.684 117.159C259.489 117.628 260.109 118.286 260.545 119.134C260.98 119.976 261.198 120.961 261.198 122.088C261.198 123.205 260.98 124.188 260.545 125.036C260.109 125.878 259.489 126.536 258.684 127.01C257.884 127.479 256.932 127.713 255.829 127.713ZM255.843 125.369C256.345 125.369 256.764 125.227 257.1 124.943C257.436 124.654 257.69 124.261 257.86 123.764C258.035 123.267 258.123 122.701 258.123 122.067C258.123 121.432 258.035 120.866 257.86 120.369C257.69 119.872 257.436 119.479 257.1 119.19C256.764 118.902 256.345 118.757 255.843 118.757C255.336 118.757 254.91 118.902 254.565 119.19C254.224 119.479 253.966 119.872 253.79 120.369C253.62 120.866 253.535 121.432 253.535 122.067C253.535 122.701 253.62 123.267 253.79 123.764C253.966 124.261 254.224 124.654 254.565 124.943C254.91 125.227 255.336 125.369 255.843 125.369ZM266.191 121.193V127.5H263.165V116.591H266.049V118.516H266.177C266.418 117.881 266.823 117.379 267.391 117.01C267.959 116.636 268.648 116.449 269.458 116.449C270.216 116.449 270.876 116.615 271.44 116.946C272.003 117.277 272.441 117.751 272.753 118.366C273.066 118.977 273.222 119.706 273.222 120.554V127.5H270.197V121.094C270.201 120.426 270.031 119.905 269.685 119.531C269.34 119.152 268.864 118.963 268.258 118.963C267.851 118.963 267.491 119.051 267.178 119.226C266.87 119.401 266.629 119.657 266.454 119.993C266.283 120.324 266.196 120.724 266.191 121.193ZM280.578 127.713C279.456 127.713 278.49 127.486 277.681 127.031C276.876 126.572 276.255 125.923 275.82 125.085C275.384 124.242 275.166 123.246 275.166 122.095C275.166 120.973 275.384 119.988 275.82 119.141C276.255 118.293 276.869 117.633 277.659 117.159C278.455 116.686 279.388 116.449 280.458 116.449C281.177 116.449 281.847 116.565 282.468 116.797C283.093 117.024 283.637 117.367 284.101 117.827C284.57 118.286 284.934 118.864 285.195 119.56C285.455 120.251 285.585 121.061 285.585 121.989V122.82H276.374V120.945H282.737C282.737 120.509 282.643 120.123 282.453 119.787C282.264 119.451 282.001 119.188 281.665 118.999C281.334 118.804 280.948 118.707 280.507 118.707C280.048 118.707 279.641 118.814 279.286 119.027C278.935 119.235 278.661 119.517 278.462 119.872C278.263 120.223 278.161 120.613 278.157 121.044V122.827C278.157 123.366 278.256 123.833 278.455 124.226C278.658 124.619 278.945 124.922 279.314 125.135C279.684 125.348 280.121 125.455 280.628 125.455C280.964 125.455 281.272 125.407 281.551 125.312C281.831 125.218 282.07 125.076 282.269 124.886C282.468 124.697 282.619 124.465 282.723 124.19L285.522 124.375C285.38 125.047 285.088 125.634 284.648 126.136C284.212 126.634 283.649 127.022 282.958 127.301C282.271 127.576 281.478 127.713 280.578 127.713ZM290.585 121.193V127.5H287.56V116.591H290.443V118.516H290.571C290.813 117.881 291.218 117.379 291.786 117.01C292.354 116.636 293.043 116.449 293.853 116.449C294.61 116.449 295.271 116.615 295.834 116.946C296.398 117.277 296.835 117.751 297.148 118.366C297.46 118.977 297.617 119.706 297.617 120.554V127.5H294.591V121.094C294.596 120.426 294.425 119.905 294.08 119.531C293.734 119.152 293.258 118.963 292.652 118.963C292.245 118.963 291.885 119.051 291.573 119.226C291.265 119.401 291.023 119.657 290.848 119.993C290.678 120.324 290.59 120.724 290.585 121.193ZM305.804 116.591V118.864H299.234V116.591H305.804ZM300.726 113.977H303.751V124.148C303.751 124.427 303.794 124.645 303.879 124.801C303.964 124.953 304.083 125.059 304.234 125.121C304.391 125.182 304.57 125.213 304.774 125.213C304.916 125.213 305.058 125.201 305.2 125.178C305.342 125.149 305.451 125.128 305.527 125.114L306.003 127.365C305.851 127.412 305.638 127.467 305.364 127.528C305.089 127.595 304.755 127.635 304.362 127.649C303.633 127.678 302.994 127.58 302.445 127.358C301.9 127.135 301.476 126.79 301.173 126.321C300.87 125.852 300.721 125.26 300.726 124.545V113.977ZM315.429 121.193V127.5H312.404V112.955H315.344V118.516H315.472C315.718 117.872 316.116 117.367 316.665 117.003C317.214 116.634 317.903 116.449 318.732 116.449C319.489 116.449 320.15 116.615 320.713 116.946C321.282 117.273 321.722 117.744 322.034 118.359C322.352 118.97 322.508 119.702 322.503 120.554V127.5H319.478V121.094C319.482 120.421 319.312 119.898 318.966 119.524C318.625 119.15 318.147 118.963 317.532 118.963C317.12 118.963 316.755 119.051 316.438 119.226C316.125 119.401 315.879 119.657 315.699 119.993C315.524 120.324 315.434 120.724 315.429 121.193ZM329.856 127.713C328.734 127.713 327.768 127.486 326.958 127.031C326.153 126.572 325.533 125.923 325.097 125.085C324.662 124.242 324.444 123.246 324.444 122.095C324.444 120.973 324.662 119.988 325.097 119.141C325.533 118.293 326.146 117.633 326.937 117.159C327.732 116.686 328.665 116.449 329.735 116.449C330.455 116.449 331.125 116.565 331.745 116.797C332.37 117.024 332.914 117.367 333.378 117.827C333.847 118.286 334.212 118.864 334.472 119.56C334.733 120.251 334.863 121.061 334.863 121.989V122.82H325.651V120.945H332.015C332.015 120.509 331.92 120.123 331.731 119.787C331.541 119.451 331.279 119.188 330.942 118.999C330.611 118.804 330.225 118.707 329.785 118.707C329.325 118.707 328.918 118.814 328.563 119.027C328.213 119.235 327.938 119.517 327.739 119.872C327.54 120.223 327.439 120.613 327.434 121.044V122.827C327.434 123.366 327.533 123.833 327.732 124.226C327.936 124.619 328.222 124.922 328.592 125.135C328.961 125.348 329.399 125.455 329.905 125.455C330.242 125.455 330.549 125.407 330.829 125.312C331.108 125.218 331.347 125.076 331.546 124.886C331.745 124.697 331.896 124.465 332.001 124.19L334.799 124.375C334.657 125.047 334.366 125.634 333.925 126.136C333.49 126.634 332.926 127.022 332.235 127.301C331.548 127.576 330.755 127.713 329.856 127.713ZM336.837 127.5V116.591H339.771V118.494H339.884C340.083 117.817 340.417 117.306 340.886 116.96C341.354 116.61 341.894 116.435 342.505 116.435C342.656 116.435 342.82 116.444 342.995 116.463C343.17 116.482 343.324 116.508 343.457 116.541V119.226C343.315 119.183 343.118 119.145 342.867 119.112C342.616 119.079 342.387 119.062 342.178 119.062C341.733 119.062 341.335 119.16 340.985 119.354C340.639 119.543 340.365 119.808 340.161 120.149C339.962 120.49 339.863 120.883 339.863 121.328V127.5H336.837ZM349.485 127.713C348.362 127.713 347.397 127.486 346.587 127.031C345.782 126.572 345.162 125.923 344.726 125.085C344.291 124.242 344.073 123.246 344.073 122.095C344.073 120.973 344.291 119.988 344.726 119.141C345.162 118.293 345.775 117.633 346.566 117.159C347.361 116.686 348.294 116.449 349.364 116.449C350.084 116.449 350.754 116.565 351.374 116.797C351.999 117.024 352.543 117.367 353.007 117.827C353.476 118.286 353.841 118.864 354.101 119.56C354.362 120.251 354.492 121.061 354.492 121.989V122.82H345.28V120.945H351.644C351.644 120.509 351.549 120.123 351.36 119.787C351.17 119.451 350.907 119.188 350.571 118.999C350.24 118.804 349.854 118.707 349.414 118.707C348.954 118.707 348.547 118.814 348.192 119.027C347.842 119.235 347.567 119.517 347.368 119.872C347.169 120.223 347.068 120.613 347.063 121.044V122.827C347.063 123.366 347.162 123.833 347.361 124.226C347.565 124.619 347.851 124.922 348.22 125.135C348.59 125.348 349.028 125.455 349.534 125.455C349.871 125.455 350.178 125.407 350.458 125.312C350.737 125.218 350.976 125.076 351.175 124.886C351.374 124.697 351.525 124.465 351.63 124.19L354.428 124.375C354.286 125.047 353.995 125.634 353.554 126.136C353.119 126.634 352.555 127.022 351.864 127.301C351.177 127.576 350.384 127.713 349.485 127.713Z" fill="white" fill-opacity="0.95"/>
</svg>
