<svg width="113" height="24" viewBox="0 0 113 24" fill="none" xmlns="http://www.w3.org/2000/svg">
<rect width="48" height="24" rx="12" fill="#64B4FA"/>
<rect x="26" y="2" width="20" height="20" rx="10" fill="white"/>
<path d="M34.1827 15.075C34.1333 15.0751 34.0843 15.0654 34.0387 15.0464C33.993 15.0274 33.9516 14.9995 33.9168 14.9644L31.2168 12.2511C31.182 12.2162 31.1545 12.1748 31.1358 12.1292C31.1171 12.0837 31.1075 12.0349 31.1077 11.9857C31.1078 11.9364 31.1176 11.8877 31.1366 11.8423C31.1556 11.7968 31.1833 11.7556 31.2182 11.7208C31.2531 11.6861 31.2946 11.6586 31.3401 11.6399C31.3856 11.6212 31.4344 11.6116 31.4837 11.6117C31.5329 11.6119 31.5816 11.6217 31.6271 11.6407C31.6725 11.6597 31.7138 11.6874 31.7485 11.7223L34.2029 14.1887L40.2387 9.01564C40.3142 8.95095 40.4123 8.9189 40.5114 8.92652C40.6105 8.93414 40.7025 8.98082 40.7672 9.05629C40.8319 9.13176 40.8639 9.22983 40.8563 9.32893C40.8487 9.42803 40.802 9.52005 40.7265 9.58473L34.4266 14.9845C34.3588 15.0429 34.2722 15.075 34.1827 15.075Z" fill="black" fill-opacity="0.95"/>
<path d="M69.8239 11.9091C69.8239 12.983 69.63 13.911 69.2422 14.6932C68.8544 15.4754 68.3224 16.0786 67.6463 16.5028C66.9702 16.9271 66.1979 17.1392 65.3295 17.1392C64.4612 17.1392 63.6889 16.9271 63.0128 16.5028C62.3366 16.0786 61.8047 15.4754 61.4169 14.6932C61.0291 13.911 60.8352 12.983 60.8352 11.9091C60.8352 10.8352 61.0291 9.9072 61.4169 9.125C61.8047 8.3428 62.3366 7.73958 63.0128 7.31534C63.6889 6.8911 64.4612 6.67898 65.3295 6.67898C66.1979 6.67898 66.9702 6.8911 67.6463 7.31534C68.3224 7.73958 68.8544 8.3428 69.2422 9.125C69.63 9.9072 69.8239 10.8352 69.8239 11.9091ZM68.6307 11.9091C68.6307 11.0275 68.4832 10.2834 68.1882 9.67685C67.8965 9.07031 67.5005 8.61127 67 8.29972C66.5028 7.98816 65.946 7.83239 65.3295 7.83239C64.7131 7.83239 64.1546 7.98816 63.6541 8.29972C63.157 8.61127 62.7609 9.07031 62.4659 9.67685C62.1742 10.2834 62.0284 11.0275 62.0284 11.9091C62.0284 12.7907 62.1742 13.5348 62.4659 14.1413C62.7609 14.7479 63.157 15.2069 63.6541 15.5185C64.1546 15.83 64.7131 15.9858 65.3295 15.9858C65.946 15.9858 66.5028 15.83 67 15.5185C67.5005 15.2069 67.8965 14.7479 68.1882 14.1413C68.4832 13.5348 68.6307 12.7907 68.6307 11.9091ZM72.9112 12.4062V17H71.7379V9.36364H72.8714V10.5568H72.9709C73.1499 10.169 73.4216 9.85748 73.7862 9.62216C74.1508 9.38352 74.6214 9.2642 75.1982 9.2642C75.7152 9.2642 76.1676 9.37027 76.5554 9.58239C76.9432 9.79119 77.2448 10.1094 77.4602 10.5369C77.6757 10.9612 77.7834 11.4981 77.7834 12.1477V17H76.6101V12.2273C76.6101 11.6274 76.4543 11.16 76.1428 10.8253C75.8312 10.4872 75.4036 10.3182 74.8601 10.3182C74.4856 10.3182 74.1508 10.3994 73.8558 10.5618C73.5642 10.7242 73.3338 10.9612 73.1648 11.2727C72.9957 11.5843 72.9112 11.9621 72.9112 12.4062ZM84.024 17V6.81818H87.4643C88.2598 6.81818 88.9127 6.95407 89.4231 7.22585C89.9335 7.49432 90.3114 7.86387 90.5566 8.33452C90.8019 8.80516 90.9245 9.34044 90.9245 9.94034C90.9245 10.5402 90.8019 11.0722 90.5566 11.5362C90.3114 12.0002 89.9352 12.3648 89.4281 12.63C88.921 12.8918 88.273 13.0227 87.4842 13.0227H84.7001V11.9091H87.4444C87.988 11.9091 88.4255 11.8295 88.7569 11.6705C89.0917 11.5114 89.3336 11.286 89.4828 10.9943C89.6352 10.6993 89.7115 10.348 89.7115 9.94034C89.7115 9.53267 89.6352 9.17637 89.4828 8.87145C89.3303 8.56652 89.0867 8.3312 88.752 8.16548C88.4172 7.99645 87.9747 7.91193 87.4245 7.91193H85.2569V17H84.024ZM88.8166 12.4261L91.3223 17H89.8904L87.4245 12.4261H88.8166ZM95.9396 17.1591C95.2038 17.1591 94.5691 16.9967 94.0355 16.6719C93.5052 16.3438 93.0959 15.8864 92.8075 15.2997C92.5225 14.7098 92.38 14.0237 92.38 13.2415C92.38 12.4593 92.5225 11.7699 92.8075 11.1733C93.0959 10.5734 93.4969 10.1061 94.0107 9.77131C94.5277 9.43324 95.1309 9.2642 95.8203 9.2642C96.218 9.2642 96.6108 9.33049 96.9986 9.46307C97.3864 9.59564 97.7393 9.81108 98.0575 10.1094C98.3757 10.4044 98.6293 10.7955 98.8182 11.2827C99.0071 11.7699 99.1016 12.3698 99.1016 13.0824V13.5795H93.2152V12.5653H97.9084C97.9084 12.1345 97.8222 11.75 97.6499 11.4119C97.4808 11.0739 97.2389 10.8071 96.924 10.6115C96.6125 10.416 96.2446 10.3182 95.8203 10.3182C95.353 10.3182 94.9486 10.4342 94.6072 10.6662C94.2692 10.8949 94.009 11.1932 93.8267 11.5611C93.6444 11.929 93.5533 12.3234 93.5533 12.7443V13.4205C93.5533 13.9972 93.6527 14.486 93.8516 14.8871C94.0537 15.2848 94.3338 15.5881 94.6918 15.7969C95.0497 16.0024 95.4657 16.1051 95.9396 16.1051C96.2479 16.1051 96.5263 16.062 96.7749 15.9759C97.0268 15.8864 97.2438 15.7538 97.4261 15.5781C97.6084 15.3991 97.7493 15.1771 97.8487 14.9119L98.9822 15.2301C98.8629 15.6146 98.6624 15.9527 98.3807 16.2443C98.099 16.5327 97.7509 16.758 97.3366 16.9205C96.9223 17.0795 96.4567 17.1591 95.9396 17.1591ZM106.295 11.0739L105.241 11.3722C105.175 11.1965 105.077 11.0258 104.948 10.8601C104.822 10.6911 104.65 10.5518 104.431 10.4425C104.212 10.3331 103.932 10.2784 103.591 10.2784C103.124 10.2784 102.734 10.3861 102.423 10.6016C102.114 10.8137 101.96 11.0838 101.96 11.4119C101.96 11.7036 102.066 11.9339 102.278 12.103C102.491 12.272 102.822 12.4129 103.273 12.5256L104.406 12.804C105.089 12.9697 105.598 13.2232 105.933 13.5646C106.267 13.9027 106.435 14.3385 106.435 14.8722C106.435 15.3097 106.309 15.7008 106.057 16.0455C105.808 16.3902 105.46 16.6619 105.013 16.8608C104.565 17.0597 104.045 17.1591 103.452 17.1591C102.673 17.1591 102.028 16.9901 101.518 16.652C101.007 16.3139 100.684 15.8201 100.548 15.1705L101.662 14.892C101.768 15.303 101.969 15.6113 102.263 15.8168C102.562 16.0223 102.951 16.125 103.432 16.125C103.979 16.125 104.413 16.009 104.734 15.777C105.059 15.5417 105.222 15.2599 105.222 14.9318C105.222 14.6667 105.129 14.4446 104.943 14.2656C104.758 14.0833 104.473 13.9474 104.088 13.858L102.815 13.5597C102.116 13.3939 101.602 13.1371 101.274 12.7891C100.949 12.4377 100.787 11.9986 100.787 11.4716C100.787 11.0407 100.908 10.6596 101.15 10.3281C101.395 9.99669 101.728 9.73651 102.149 9.54758C102.573 9.35866 103.054 9.2642 103.591 9.2642C104.347 9.2642 104.94 9.42992 105.371 9.76136C105.805 10.0928 106.113 10.5303 106.295 11.0739ZM111.522 9.36364V10.358H107.564V9.36364H111.522ZM108.718 7.53409H109.891V14.8125C109.891 15.1439 109.939 15.3925 110.035 15.5582C110.135 15.7206 110.261 15.83 110.413 15.8864C110.569 15.9394 110.733 15.9659 110.905 15.9659C111.035 15.9659 111.141 15.9593 111.224 15.946C111.306 15.9295 111.373 15.9162 111.422 15.9062L111.661 16.9602C111.581 16.9901 111.47 17.0199 111.328 17.0497C111.185 17.0829 111.005 17.0994 110.786 17.0994C110.455 17.0994 110.13 17.0282 109.812 16.8857C109.497 16.7431 109.235 16.526 109.026 16.2344C108.821 15.9427 108.718 15.5748 108.718 15.1307V7.53409Z" fill="white" fill-opacity="0.95"/>
</svg>
