<svg width="669" height="42" viewBox="0 0 669 42" fill="none" xmlns="http://www.w3.org/2000/svg">
<path d="M82.4403 7.58074C82.4403 11.2441 79.4706 14.2139 75.8072 14.2139C72.1438 14.2139 69.1741 11.2441 69.1741 7.58074C69.1741 3.91735 72.1438 0.947592 75.8072 0.947592C79.4706 0.947592 82.4403 3.91735 82.4403 7.58074Z" stroke="#64B4FA" stroke-width="1.89408"/>
<path d="M58.7642 29.5144C58.7077 29.037 58.4784 28.6664 58.0764 28.4026C57.6744 28.1387 57.1813 28.0068 56.5971 28.0068C56.17 28.0068 55.7962 28.0759 55.4759 28.2141C55.1587 28.3523 54.9106 28.5423 54.7315 28.7841C54.5557 29.026 54.4677 29.3008 54.4677 29.6086C54.4677 29.8661 54.529 30.0875 54.6514 30.2728C54.7771 30.455 54.9373 30.6073 55.132 30.7298C55.3267 30.8492 55.5308 30.9481 55.7444 31.0266C55.958 31.102 56.1543 31.1632 56.3333 31.2103L57.3132 31.4741C57.5644 31.5401 57.844 31.6312 58.1518 31.7474C58.4627 31.8636 58.7595 32.0222 59.0421 32.2232C59.3279 32.4211 59.5635 32.6755 59.7488 32.9864C59.9341 33.2973 60.0267 33.6789 60.0267 34.1312C60.0267 34.6525 59.8901 35.1236 59.6169 35.5445C59.3468 35.9653 58.9511 36.2998 58.4297 36.5479C57.9115 36.7961 57.2818 36.9201 56.5406 36.9201C55.8496 36.9201 55.2513 36.8086 54.7457 36.5856C54.2432 36.3626 53.8474 36.0517 53.5585 35.6528C53.2727 35.254 53.1109 34.7907 53.0733 34.2631H54.2793C54.3107 34.6274 54.4332 34.9289 54.6467 35.1676C54.8634 35.4032 55.1367 35.579 55.4665 35.6952C55.7994 35.8083 56.1574 35.8648 56.5406 35.8648C56.9866 35.8648 57.387 35.7926 57.7419 35.6481C58.0968 35.5005 58.3779 35.2964 58.5852 35.0357C58.7925 34.7719 58.8961 34.4641 58.8961 34.1123C58.8961 33.792 58.8066 33.5313 58.6276 33.3303C58.4485 33.1293 58.213 32.966 57.9209 32.8404C57.6288 32.7147 57.3132 32.6048 56.974 32.5106L55.7868 32.1714C55.033 31.9547 54.4363 31.6453 53.9966 31.2433C53.5569 30.8413 53.3371 30.3152 53.3371 29.6651C53.3371 29.1249 53.4831 28.6538 53.7752 28.2518C54.0704 27.8466 54.4661 27.5326 54.9624 27.3096C55.4617 27.0835 56.0192 26.9704 56.6348 26.9704C57.2567 26.9704 57.8094 27.0819 58.2931 27.3049C58.7768 27.5247 59.1599 27.8262 59.4426 28.2094C59.7284 28.5926 59.8791 29.0275 59.8948 29.5144H58.7642ZM61.7969 36.7505V29.5144H62.9087V36.7505H61.7969ZM62.3622 28.3083C62.1455 28.3083 61.9587 28.2345 61.8016 28.0869C61.6477 27.9393 61.5708 27.7618 61.5708 27.5546C61.5708 27.3473 61.6477 27.1698 61.8016 27.0222C61.9587 26.8746 62.1455 26.8008 62.3622 26.8008C62.579 26.8008 62.7643 26.8746 62.9181 27.0222C63.0752 27.1698 63.1537 27.3473 63.1537 27.5546C63.1537 27.7618 63.0752 27.9393 62.9181 28.0869C62.7643 28.2345 62.579 28.3083 62.3622 28.3083ZM67.8659 39.6148C67.3289 39.6148 66.8672 39.5457 66.4809 39.4075C66.0946 39.2725 65.7726 39.0935 65.5151 38.8705C65.2607 38.6506 65.0581 38.4151 64.9074 38.1638L65.7931 37.542C65.8936 37.6739 66.0208 37.8246 66.1747 37.9942C66.3286 38.167 66.539 38.3162 66.8059 38.4418C67.076 38.5705 67.4294 38.6349 67.8659 38.6349C68.4501 38.6349 68.9322 38.4936 69.3122 38.2109C69.6922 37.9283 69.8822 37.4854 69.8822 36.8824V35.4126H69.788C69.7064 35.5445 69.5902 35.7078 69.4394 35.9025C69.2918 36.0941 69.0782 36.2653 68.7987 36.416C68.5223 36.5636 68.1486 36.6375 67.6775 36.6375C67.0933 36.6375 66.5688 36.4993 66.104 36.2229C65.6423 35.9465 65.2764 35.5445 65.0063 35.0169C64.7394 34.4892 64.6059 33.8485 64.6059 33.0947C64.6059 32.3535 64.7362 31.7081 64.9969 31.1585C65.2576 30.6057 65.6203 30.1786 66.0851 29.8771C66.55 29.5725 67.087 29.4201 67.6963 29.4201C68.1674 29.4201 68.5412 29.4987 68.8176 29.6557C69.0971 29.8096 69.3106 29.9855 69.4583 30.1833C69.609 30.378 69.7252 30.5382 69.8069 30.6639H69.9199V29.5144H70.9941V36.9578C70.9941 37.5797 70.8527 38.0853 70.5701 38.4748C70.2905 38.8673 69.9137 39.1547 69.4394 39.3369C68.9683 39.5222 68.4438 39.6148 67.8659 39.6148ZM67.8282 35.6387C68.2742 35.6387 68.6511 35.5366 68.9589 35.3325C69.2667 35.1283 69.5007 34.8347 69.6608 34.4515C69.821 34.0684 69.9011 33.6098 69.9011 33.0759C69.9011 32.5545 69.8226 32.0944 69.6655 31.6956C69.5085 31.2967 69.2761 30.9842 68.9683 30.7581C68.6605 30.5319 68.2805 30.4189 67.8282 30.4189C67.3571 30.4189 66.9645 30.5382 66.6505 30.7769C66.3395 31.0156 66.1056 31.336 65.9485 31.738C65.7946 32.14 65.7177 32.586 65.7177 33.0759C65.7177 33.5784 65.7962 34.0228 65.9532 34.4091C66.1134 34.7923 66.349 35.0938 66.6599 35.3136C66.974 35.5304 67.3634 35.6387 67.8282 35.6387ZM74.141 32.3975V36.7505H73.0292V29.5144H74.1033V30.645H74.1976C74.3672 30.2775 74.6247 29.9823 74.9702 29.7593C75.3156 29.5332 75.7616 29.4201 76.3081 29.4201C76.7981 29.4201 77.2268 29.5206 77.5942 29.7216C77.9617 29.9195 78.2475 30.221 78.4516 30.6262C78.6558 31.0282 78.7578 31.537 78.7578 32.1525V36.7505H77.646V32.2279C77.646 31.6595 77.4984 31.2166 77.2032 30.8994C76.908 30.5791 76.5028 30.4189 75.9878 30.4189C75.6329 30.4189 75.3156 30.4958 75.0361 30.6497C74.7597 30.8036 74.5415 31.0282 74.3813 31.3234C74.2211 31.6186 74.141 31.9767 74.141 32.3975ZM89.0809 33.792V29.5144H90.1927V36.7505H89.0809V35.5256H89.0055C88.8359 35.8931 88.5721 36.2056 88.2141 36.4631C87.856 36.7175 87.4038 36.8447 86.8573 36.8447C86.405 36.8447 86.003 36.7458 85.6513 36.5479C85.2995 36.3469 85.0231 36.0454 84.8221 35.6434C84.6211 35.2383 84.5206 34.7279 84.5206 34.1123V29.5144H85.6324V34.037C85.6324 34.5646 85.78 34.9854 86.0753 35.2995C86.3736 35.6136 86.7537 35.7706 87.2153 35.7706C87.4917 35.7706 87.7728 35.7 88.0586 35.5586C88.3476 35.4173 88.5894 35.2006 88.7841 34.9085C88.982 34.6164 89.0809 34.2442 89.0809 33.792ZM92.2291 39.4641V29.5144H93.3032V30.6639H93.4351C93.5168 30.5382 93.6298 30.378 93.7743 30.1833C93.9219 29.9855 94.1323 29.8096 94.4056 29.6557C94.682 29.4987 95.0557 29.4201 95.5268 29.4201C96.1361 29.4201 96.6732 29.5725 97.138 29.8771C97.6028 30.1818 97.9656 30.6136 98.2262 31.1726C98.4869 31.7317 98.6172 32.3912 98.6172 33.1513C98.6172 33.9176 98.4869 34.5819 98.2262 35.1441C97.9656 35.7031 97.6044 36.1365 97.1427 36.4443C96.681 36.7489 96.1487 36.9013 95.5456 36.9013C95.0808 36.9013 94.7087 36.8243 94.4291 36.6704C94.1496 36.5134 93.9345 36.3359 93.7837 36.1381C93.633 35.9371 93.5168 35.7706 93.4351 35.6387H93.3409V39.4641H92.2291ZM93.322 33.1324C93.322 33.6789 93.4021 34.161 93.5623 34.5787C93.7225 34.9933 93.9565 35.3184 94.2642 35.5539C94.572 35.7863 94.9489 35.9025 95.3949 35.9025C95.8597 35.9025 96.2476 35.78 96.5585 35.5351C96.8726 35.287 97.1081 34.954 97.2652 34.5363C97.4254 34.1155 97.5054 33.6475 97.5054 33.1324C97.5054 32.6236 97.4269 32.1651 97.2699 31.7568C97.116 31.3454 96.882 31.0203 96.5679 30.7816C96.257 30.5398 95.866 30.4189 95.3949 30.4189C94.9426 30.4189 94.5626 30.5335 94.2548 30.7628C93.947 30.9889 93.7146 31.3061 93.5576 31.7144C93.4006 32.1196 93.322 32.5922 93.322 33.1324Z" fill="white" fill-opacity="0.7"/>
<rect x="90.9688" y="6.63303" width="142.139" height="1.89518" fill="#8F8F8F"/>
<path d="M254.902 7.58074C254.902 11.2441 251.932 14.2139 248.269 14.2139C244.606 14.2139 241.636 11.2441 241.636 7.58074C241.636 3.91735 244.606 0.947592 248.269 0.947592C251.932 0.947592 254.902 3.91735 254.902 7.58074Z" stroke="#64B4FA" stroke-width="1.89408"/>
<path d="M218.132 36.7505H216.907L220.449 27.1023H221.655L225.198 36.7505H223.973L221.09 28.6287H221.015L218.132 36.7505ZM218.584 32.9817H223.521V34.0181H218.584V32.9817ZM229.283 36.9013C228.68 36.9013 228.147 36.7489 227.686 36.4443C227.224 36.1365 226.863 35.7031 226.602 35.1441C226.341 34.5819 226.211 33.9176 226.211 33.1513C226.211 32.3912 226.341 31.7317 226.602 31.1726C226.863 30.6136 227.226 30.1818 227.69 29.8771C228.155 29.5725 228.692 29.4201 229.302 29.4201C229.773 29.4201 230.145 29.4987 230.418 29.6557C230.694 29.8096 230.905 29.9855 231.049 30.1833C231.197 30.378 231.312 30.5382 231.393 30.6639H231.487V27.1023H232.599V36.7505H231.525V35.6387H231.393C231.312 35.7706 231.195 35.9371 231.045 36.1381C230.894 36.3359 230.679 36.5134 230.399 36.6704C230.12 36.8243 229.747 36.9013 229.283 36.9013ZM229.433 35.9025C229.879 35.9025 230.256 35.7863 230.564 35.5539C230.872 35.3184 231.106 34.9933 231.266 34.5787C231.426 34.161 231.506 33.6789 231.506 33.1324C231.506 32.5922 231.428 32.1196 231.271 31.7144C231.114 31.3061 230.881 30.9889 230.573 30.7628C230.266 30.5335 229.886 30.4189 229.433 30.4189C228.962 30.4189 228.57 30.5398 228.256 30.7816C227.945 31.0203 227.711 31.3454 227.554 31.7568C227.4 32.1651 227.323 32.6236 227.323 33.1324C227.323 33.6475 227.401 34.1155 227.558 34.5363C227.719 34.954 227.954 35.287 228.265 35.5351C228.579 35.78 228.969 35.9025 229.433 35.9025ZM237.522 36.9013C236.919 36.9013 236.387 36.7489 235.925 36.4443C235.464 36.1365 235.102 35.7031 234.842 35.1441C234.581 34.5819 234.451 33.9176 234.451 33.1513C234.451 32.3912 234.581 31.7317 234.842 31.1726C235.102 30.6136 235.465 30.1818 235.93 29.8771C236.395 29.5725 236.932 29.4201 237.541 29.4201C238.012 29.4201 238.384 29.4987 238.658 29.6557C238.934 29.8096 239.144 29.9855 239.289 30.1833C239.437 30.378 239.551 30.5382 239.633 30.6639H239.727V27.1023H240.839V36.7505H239.765V35.6387H239.633C239.551 35.7706 239.435 35.9371 239.284 36.1381C239.133 36.3359 238.918 36.5134 238.639 36.6704C238.359 36.8243 237.987 36.9013 237.522 36.9013ZM237.673 35.9025C238.119 35.9025 238.496 35.7863 238.804 35.5539C239.111 35.3184 239.345 34.9933 239.506 34.5787C239.666 34.161 239.746 33.6789 239.746 33.1324C239.746 32.5922 239.667 32.1196 239.51 31.7144C239.353 31.3061 239.121 30.9889 238.813 30.7628C238.505 30.5335 238.125 30.4189 237.673 30.4189C237.202 30.4189 236.809 30.5398 236.495 30.7816C236.184 31.0203 235.95 31.3454 235.793 31.7568C235.639 32.1651 235.562 32.6236 235.562 33.1324C235.562 33.6475 235.641 34.1155 235.798 34.5363C235.958 34.954 236.194 35.287 236.505 35.5351C236.819 35.78 237.208 35.9025 237.673 35.9025ZM251.321 33.792V29.5144H252.433V36.7505H251.321V35.5256H251.246C251.076 35.8931 250.812 36.2056 250.454 36.4631C250.096 36.7175 249.644 36.8447 249.097 36.8447C248.645 36.8447 248.243 36.7458 247.891 36.5479C247.54 36.3469 247.263 36.0454 247.062 35.6434C246.861 35.2383 246.761 34.7279 246.761 34.1123V29.5144H247.872V34.037C247.872 34.5646 248.02 34.9854 248.315 35.2995C248.614 35.6136 248.994 35.7706 249.455 35.7706C249.732 35.7706 250.013 35.7 250.299 35.5586C250.588 35.4173 250.829 35.2006 251.024 34.9085C251.222 34.6164 251.321 34.2442 251.321 33.792ZM259.595 31.135L258.596 31.4176C258.533 31.2512 258.44 31.0894 258.318 30.9324C258.199 30.7722 258.035 30.6403 257.828 30.5367C257.621 30.433 257.355 30.3812 257.032 30.3812C256.589 30.3812 256.22 30.4833 255.925 30.6874C255.633 30.8884 255.487 31.1444 255.487 31.4553C255.487 31.7317 255.587 31.95 255.788 32.1101C255.989 32.2703 256.303 32.4038 256.73 32.5106L257.804 32.7744C258.451 32.9314 258.934 33.1717 259.251 33.4952C259.568 33.8155 259.727 34.2285 259.727 34.7342C259.727 35.1488 259.607 35.5194 259.369 35.846C259.133 36.1726 258.803 36.4302 258.379 36.6186C257.955 36.807 257.462 36.9013 256.9 36.9013C256.162 36.9013 255.551 36.7411 255.067 36.4207C254.584 36.1004 254.277 35.6324 254.149 35.0169L255.204 34.753C255.304 35.1425 255.495 35.4346 255.774 35.6293C256.057 35.824 256.426 35.9214 256.881 35.9214C257.399 35.9214 257.811 35.8114 258.115 35.5916C258.423 35.3686 258.577 35.1017 258.577 34.7907C258.577 34.5395 258.489 34.329 258.313 34.1594C258.137 33.9867 257.867 33.8579 257.503 33.7731L256.297 33.4905C255.634 33.3334 255.147 33.09 254.837 32.7603C254.529 32.4274 254.375 32.0112 254.375 31.5118C254.375 31.1035 254.489 30.7424 254.719 30.4283C254.951 30.1142 255.267 29.8677 255.666 29.6887C256.068 29.5096 256.523 29.4201 257.032 29.4201C257.748 29.4201 258.31 29.5772 258.718 29.8912C259.13 30.2053 259.422 30.6199 259.595 31.135ZM264.434 36.9013C263.737 36.9013 263.135 36.7474 262.63 36.4396C262.127 36.1287 261.739 35.6952 261.466 35.1393C261.196 34.5803 261.061 33.9302 261.061 33.189C261.061 32.4478 261.196 31.7945 261.466 31.2292C261.739 30.6607 262.119 30.2179 262.606 29.9007C263.096 29.5803 263.668 29.4201 264.321 29.4201C264.698 29.4201 265.07 29.4829 265.438 29.6086C265.805 29.7342 266.14 29.9384 266.441 30.221C266.743 30.5005 266.983 30.8711 267.162 31.3328C267.341 31.7945 267.43 32.363 267.43 33.0382V33.5093H261.852V32.5483H266.3C266.3 32.14 266.218 31.7757 266.055 31.4553C265.895 31.135 265.665 30.8821 265.367 30.6968C265.072 30.5115 264.723 30.4189 264.321 30.4189C263.878 30.4189 263.495 30.5288 263.172 30.7486C262.851 30.9654 262.605 31.248 262.432 31.5966C262.259 31.9453 262.173 32.319 262.173 32.7179V33.3586C262.173 33.905 262.267 34.3683 262.455 34.7483C262.647 35.1252 262.912 35.4126 263.252 35.6104C263.591 35.8052 263.985 35.9025 264.434 35.9025C264.726 35.9025 264.99 35.8617 265.226 35.78C265.464 35.6952 265.67 35.5696 265.843 35.4032C266.015 35.2336 266.149 35.0231 266.243 34.7719L267.317 35.0734C267.204 35.4377 267.014 35.7581 266.747 36.0344C266.48 36.3077 266.15 36.5212 265.758 36.6751C265.365 36.8259 264.924 36.9013 264.434 36.9013ZM269.122 36.7505V29.5144H270.196V30.6073H270.271C270.403 30.2493 270.642 29.9588 270.987 29.7358C271.333 29.5128 271.722 29.4013 272.156 29.4013C272.237 29.4013 272.339 29.4029 272.462 29.406C272.584 29.4091 272.677 29.4139 272.74 29.4201V30.5508C272.702 30.5414 272.616 30.5272 272.481 30.5084C272.349 30.4864 272.209 30.4754 272.061 30.4754C271.71 30.4754 271.395 30.5492 271.119 30.6968C270.846 30.8413 270.629 31.0423 270.469 31.2998C270.312 31.5542 270.233 31.8448 270.233 32.1714V36.7505H269.122ZM279.183 31.135L278.184 31.4176C278.122 31.2512 278.029 31.0894 277.907 30.9324C277.787 30.7722 277.624 30.6403 277.417 30.5367C277.209 30.433 276.944 30.3812 276.62 30.3812C276.178 30.3812 275.809 30.4833 275.513 30.6874C275.221 30.8884 275.075 31.1444 275.075 31.4553C275.075 31.7317 275.176 31.95 275.377 32.1101C275.578 32.2703 275.892 32.4038 276.319 32.5106L277.393 32.7744C278.04 32.9314 278.522 33.1717 278.839 33.4952C279.157 33.8155 279.315 34.2285 279.315 34.7342C279.315 35.1488 279.196 35.5194 278.957 35.846C278.722 36.1726 278.392 36.4302 277.968 36.6186C277.544 36.807 277.051 36.9013 276.488 36.9013C275.75 36.9013 275.14 36.7411 274.656 36.4207C274.172 36.1004 273.866 35.6324 273.737 35.0169L274.793 34.753C274.893 35.1425 275.083 35.4346 275.363 35.6293C275.645 35.824 276.014 35.9214 276.47 35.9214C276.988 35.9214 277.399 35.8114 277.704 35.5916C278.012 35.3686 278.166 35.1017 278.166 34.7907C278.166 34.5395 278.078 34.329 277.902 34.1594C277.726 33.9867 277.456 33.8579 277.092 33.7731L275.885 33.4905C275.223 33.3334 274.736 33.09 274.425 32.7603C274.117 32.4274 273.963 32.0112 273.963 31.5118C273.963 31.1035 274.078 30.7424 274.307 30.4283C274.54 30.1142 274.855 29.8677 275.254 29.6887C275.656 29.5096 276.112 29.4201 276.62 29.4201C277.336 29.4201 277.899 29.5772 278.307 29.8912C278.718 30.2053 279.01 30.6199 279.183 31.135Z" fill="white" fill-opacity="0.7"/>
<rect x="263.431" y="6.63303" width="142.139" height="1.89518" fill="#8F8F8F"/>
<path d="M427.364 7.58074C427.364 11.2441 424.394 14.2139 420.731 14.2139C417.067 14.2139 414.098 11.2441 414.098 7.58074C414.098 3.91735 417.067 0.947592 420.731 0.947592C424.394 0.947592 427.364 3.91735 427.364 7.58074Z" stroke="#64B4FA" stroke-width="1.89408"/>
<path d="M382.911 36.7505H381.686L385.229 27.1023H386.435L389.977 36.7505H388.753L385.869 28.6287H385.794L382.911 36.7505ZM383.363 32.9817H388.3V34.0181H383.363V32.9817ZM394.062 36.9013C393.459 36.9013 392.927 36.7489 392.465 36.4443C392.003 36.1365 391.642 35.7031 391.381 35.1441C391.121 34.5819 390.99 33.9176 390.99 33.1513C390.99 32.3912 391.121 31.7317 391.381 31.1726C391.642 30.6136 392.005 30.1818 392.47 29.8771C392.934 29.5725 393.471 29.4201 394.081 29.4201C394.552 29.4201 394.924 29.4987 395.197 29.6557C395.474 29.8096 395.684 29.9855 395.829 30.1833C395.976 30.378 396.091 30.5382 396.172 30.6639H396.267V27.1023H397.379V36.7505H396.304V35.6387H396.172C396.091 35.7706 395.975 35.9371 395.824 36.1381C395.673 36.3359 395.458 36.5134 395.178 36.6704C394.899 36.8243 394.527 36.9013 394.062 36.9013ZM394.213 35.9025C394.659 35.9025 395.036 35.7863 395.343 35.5539C395.651 35.3184 395.885 34.9933 396.045 34.5787C396.205 34.161 396.286 33.6789 396.286 33.1324C396.286 32.5922 396.207 32.1196 396.05 31.7144C395.893 31.3061 395.661 30.9889 395.353 30.7628C395.045 30.5335 394.665 30.4189 394.213 30.4189C393.742 30.4189 393.349 30.5398 393.035 30.7816C392.724 31.0203 392.49 31.3454 392.333 31.7568C392.179 32.1651 392.102 32.6236 392.102 33.1324C392.102 33.6475 392.181 34.1155 392.338 34.5363C392.498 34.954 392.733 35.287 393.044 35.5351C393.358 35.78 393.748 35.9025 394.213 35.9025ZM402.302 36.9013C401.699 36.9013 401.166 36.7489 400.705 36.4443C400.243 36.1365 399.882 35.7031 399.621 35.1441C399.36 34.5819 399.23 33.9176 399.23 33.1513C399.23 32.3912 399.36 31.7317 399.621 31.1726C399.882 30.6136 400.244 30.1818 400.709 29.8771C401.174 29.5725 401.711 29.4201 402.32 29.4201C402.791 29.4201 403.164 29.4987 403.437 29.6557C403.713 29.8096 403.924 29.9855 404.068 30.1833C404.216 30.378 404.33 30.5382 404.412 30.6639H404.506V27.1023H405.618V36.7505H404.544V35.6387H404.412C404.33 35.7706 404.214 35.9371 404.063 36.1381C403.913 36.3359 403.698 36.5134 403.418 36.6704C403.139 36.8243 402.766 36.9013 402.302 36.9013ZM402.452 35.9025C402.898 35.9025 403.275 35.7863 403.583 35.5539C403.891 35.3184 404.125 34.9933 404.285 34.5787C404.445 34.161 404.525 33.6789 404.525 33.1324C404.525 32.5922 404.447 32.1196 404.29 31.7144C404.133 31.3061 403.9 30.9889 403.592 30.7628C403.285 30.5335 402.905 30.4189 402.452 30.4189C401.981 30.4189 401.589 30.5398 401.275 30.7816C400.964 31.0203 400.73 31.3454 400.573 31.7568C400.419 32.1651 400.342 32.6236 400.342 33.1324C400.342 33.6475 400.42 34.1155 400.577 34.5363C400.737 34.954 400.973 35.287 401.284 35.5351C401.598 35.78 401.987 35.9025 402.452 35.9025ZM412.652 27.1023V36.7505H411.54V27.1023H412.652ZM417.628 36.9013C416.974 36.9013 416.401 36.7458 415.908 36.4349C415.418 36.1239 415.035 35.689 414.759 35.1299C414.485 34.5709 414.349 33.9176 414.349 33.1701C414.349 32.4164 414.485 31.7584 414.759 31.1962C415.035 30.634 415.418 30.1975 415.908 29.8865C416.401 29.5756 416.974 29.4201 417.628 29.4201C418.281 29.4201 418.853 29.5756 419.343 29.8865C419.836 30.1975 420.219 30.634 420.492 31.1962C420.768 31.7584 420.907 32.4164 420.907 33.1701C420.907 33.9176 420.768 34.5709 420.492 35.1299C420.219 35.689 419.836 36.1239 419.343 36.4349C418.853 36.7458 418.281 36.9013 417.628 36.9013ZM417.628 35.9025C418.124 35.9025 418.532 35.7753 418.853 35.5209C419.173 35.2665 419.41 34.9321 419.564 34.5175C419.718 34.1029 419.795 33.6538 419.795 33.1701C419.795 32.6865 419.718 32.2358 419.564 31.8181C419.41 31.4003 419.173 31.0627 418.853 30.8052C418.532 30.5476 418.124 30.4189 417.628 30.4189C417.132 30.4189 416.723 30.5476 416.403 30.8052C416.083 31.0627 415.845 31.4003 415.692 31.8181C415.538 32.2358 415.461 32.6865 415.461 33.1701C415.461 33.6538 415.538 34.1029 415.692 34.5175C415.845 34.9321 416.083 35.2665 416.403 35.5209C416.723 35.7753 417.132 35.9025 417.628 35.9025ZM425.543 36.9013C424.865 36.9013 424.281 36.7411 423.791 36.4207C423.301 36.1004 422.924 35.6591 422.66 35.0969C422.396 34.5348 422.265 33.8925 422.265 33.1701C422.265 32.4352 422.4 31.7866 422.67 31.2245C422.943 30.6591 423.323 30.2179 423.81 29.9007C424.3 29.5803 424.871 29.4201 425.525 29.4201C426.033 29.4201 426.492 29.5144 426.9 29.7028C427.309 29.8912 427.643 30.1551 427.904 30.4943C428.164 30.8334 428.326 31.2292 428.389 31.6814H427.277C427.192 31.3517 427.004 31.0596 426.712 30.8052C426.423 30.5476 426.033 30.4189 425.543 30.4189C425.11 30.4189 424.73 30.5319 424.403 30.7581C424.08 30.9811 423.827 31.2967 423.645 31.705C423.466 32.1101 423.376 32.586 423.376 33.1324C423.376 33.6915 423.464 34.1783 423.64 34.5929C423.819 35.0074 424.07 35.3294 424.394 35.5586C424.721 35.7879 425.104 35.9025 425.543 35.9025C425.832 35.9025 426.095 35.8523 426.33 35.7518C426.566 35.6513 426.765 35.5068 426.929 35.3184C427.092 35.1299 427.208 34.9038 427.277 34.64H428.389C428.326 35.0671 428.171 35.4518 427.923 35.7942C427.678 36.1334 427.353 36.4035 426.947 36.6045C426.545 36.8023 426.077 36.9013 425.543 36.9013ZM432.144 36.9201C431.685 36.9201 431.269 36.8337 430.895 36.661C430.521 36.4851 430.225 36.2323 430.005 35.9025C429.785 35.5696 429.675 35.1676 429.675 34.6965C429.675 34.2819 429.757 33.9459 429.92 33.6883C430.083 33.4277 430.302 33.2235 430.575 33.0759C430.848 32.9283 431.15 32.8184 431.479 32.7461C431.812 32.6708 432.147 32.6111 432.483 32.5671C432.923 32.5106 433.279 32.4682 433.552 32.4399C433.829 32.4085 434.03 32.3567 434.155 32.2844C434.284 32.2122 434.348 32.0866 434.348 31.9076V31.8699C434.348 31.4051 434.221 31.0439 433.967 30.7863C433.716 30.5288 433.334 30.4 432.822 30.4C432.291 30.4 431.875 30.5162 431.574 30.7486C431.272 30.9811 431.06 31.2292 430.938 31.493L429.882 31.1161C430.071 30.6764 430.322 30.3341 430.636 30.0891C430.953 29.841 431.299 29.6683 431.673 29.5709C432.049 29.4704 432.42 29.4201 432.784 29.4201C433.017 29.4201 433.284 29.4484 433.585 29.5049C433.89 29.5583 434.184 29.6698 434.466 29.8394C434.752 30.009 434.989 30.265 435.178 30.6073C435.366 30.9497 435.46 31.4082 435.46 31.9829V36.7505H434.348V35.7706H434.292C434.216 35.9277 434.091 36.0957 433.915 36.2747C433.739 36.4537 433.505 36.606 433.213 36.7317C432.921 36.8573 432.564 36.9201 432.144 36.9201ZM432.313 35.9214C432.753 35.9214 433.124 35.835 433.425 35.6623C433.73 35.4895 433.959 35.2665 434.113 34.9933C434.27 34.7201 434.348 34.4327 434.348 34.1312V33.1136C434.301 33.1701 434.198 33.2219 434.037 33.2691C433.88 33.313 433.698 33.3523 433.491 33.3868C433.287 33.4182 433.087 33.4465 432.893 33.4716C432.701 33.4936 432.546 33.5125 432.426 33.5282C432.137 33.5659 431.867 33.6271 431.616 33.7119C431.368 33.7936 431.167 33.9176 431.013 34.0841C430.862 34.2474 430.787 34.4704 430.787 34.753C430.787 35.1393 430.93 35.4314 431.216 35.6293C431.505 35.824 431.87 35.9214 432.313 35.9214ZM440.636 29.5144V30.4566H436.886V29.5144H440.636ZM437.979 27.7807H439.091V34.6777C439.091 34.9917 439.137 35.2273 439.228 35.3843C439.322 35.5382 439.441 35.6419 439.586 35.6952C439.734 35.7455 439.889 35.7706 440.052 35.7706C440.175 35.7706 440.275 35.7643 440.354 35.7518C440.432 35.7361 440.495 35.7235 440.542 35.7141L440.768 36.7128C440.693 36.7411 440.588 36.7694 440.453 36.7976C440.318 36.829 440.147 36.8447 439.939 36.8447C439.625 36.8447 439.317 36.7772 439.016 36.6422C438.718 36.5071 438.469 36.3014 438.272 36.025C438.077 35.7486 437.979 35.4 437.979 34.9792V27.7807ZM442.309 36.7505V29.5144H443.421V36.7505H442.309ZM442.874 28.3083C442.658 28.3083 442.471 28.2345 442.314 28.0869C442.16 27.9393 442.083 27.7618 442.083 27.5546C442.083 27.3473 442.16 27.1698 442.314 27.0222C442.471 26.8746 442.658 26.8008 442.874 26.8008C443.091 26.8008 443.276 26.8746 443.43 27.0222C443.587 27.1698 443.666 27.3473 443.666 27.5546C443.666 27.7618 443.587 27.9393 443.43 28.0869C443.276 28.2345 443.091 28.3083 442.874 28.3083ZM448.397 36.9013C447.743 36.9013 447.17 36.7458 446.677 36.4349C446.187 36.1239 445.804 35.689 445.528 35.1299C445.254 34.5709 445.118 33.9176 445.118 33.1701C445.118 32.4164 445.254 31.7584 445.528 31.1962C445.804 30.634 446.187 30.1975 446.677 29.8865C447.17 29.5756 447.743 29.4201 448.397 29.4201C449.05 29.4201 449.622 29.5756 450.112 29.8865C450.605 30.1975 450.988 30.634 451.261 31.1962C451.537 31.7584 451.676 32.4164 451.676 33.1701C451.676 33.9176 451.537 34.5709 451.261 35.1299C450.988 35.689 450.605 36.1239 450.112 36.4349C449.622 36.7458 449.05 36.9013 448.397 36.9013ZM448.397 35.9025C448.893 35.9025 449.301 35.7753 449.622 35.5209C449.942 35.2665 450.179 34.9321 450.333 34.5175C450.487 34.1029 450.564 33.6538 450.564 33.1701C450.564 32.6865 450.487 32.2358 450.333 31.8181C450.179 31.4003 449.942 31.0627 449.622 30.8052C449.301 30.5476 448.893 30.4189 448.397 30.4189C447.9 30.4189 447.492 30.5476 447.172 30.8052C446.852 31.0627 446.614 31.4003 446.46 31.8181C446.307 32.2358 446.23 32.6865 446.23 33.1701C446.23 33.6538 446.307 34.1029 446.46 34.5175C446.614 34.9321 446.852 35.2665 447.172 35.5209C447.492 35.7753 447.9 35.9025 448.397 35.9025ZM454.485 32.3975V36.7505H453.373V29.5144H454.447V30.645H454.541C454.711 30.2775 454.968 29.9823 455.314 29.7593C455.659 29.5332 456.105 29.4201 456.652 29.4201C457.142 29.4201 457.57 29.5206 457.938 29.7216C458.305 29.9195 458.591 30.221 458.795 30.6262C458.999 31.0282 459.101 31.537 459.101 32.1525V36.7505H457.99V32.2279C457.99 31.6595 457.842 31.2166 457.547 30.8994C457.252 30.5791 456.846 30.4189 456.331 30.4189C455.976 30.4189 455.659 30.4958 455.38 30.6497C455.103 30.8036 454.885 31.0282 454.725 31.3234C454.565 31.6186 454.485 31.9767 454.485 32.3975Z" fill="white" fill-opacity="0.7"/>
<rect x="435.892" y="6.63303" width="142.139" height="1.89518" fill="#8F8F8F"/>
<path d="M599.826 7.58074C599.826 11.2441 596.856 14.2139 593.193 14.2139C589.529 14.2139 586.559 11.2441 586.559 7.58074C586.559 3.91735 589.529 0.947592 593.193 0.947592C596.856 0.947592 599.826 3.91735 599.826 7.58074Z" stroke="#64B4FA" stroke-width="1.89408"/>
<path d="M570.009 29.5144C569.952 29.037 569.723 28.6664 569.321 28.4026C568.919 28.1387 568.426 28.0068 567.842 28.0068C567.415 28.0068 567.041 28.0759 566.72 28.2141C566.403 28.3523 566.155 28.5423 565.976 28.7841C565.8 29.026 565.712 29.3008 565.712 29.6086C565.712 29.8661 565.773 30.0875 565.896 30.2728C566.022 30.455 566.182 30.6073 566.377 30.7298C566.571 30.8492 566.775 30.9481 566.989 31.0266C567.203 31.102 567.399 31.1632 567.578 31.2103L568.558 31.4741C568.809 31.5401 569.088 31.6312 569.396 31.7474C569.707 31.8636 570.004 32.0222 570.287 32.2232C570.572 32.4211 570.808 32.6755 570.993 32.9864C571.179 33.2973 571.271 33.6789 571.271 34.1312C571.271 34.6525 571.135 35.1236 570.861 35.5445C570.591 35.9653 570.196 36.2998 569.674 36.5479C569.156 36.7961 568.526 36.9201 567.785 36.9201C567.094 36.9201 566.496 36.8086 565.99 36.5856C565.488 36.3626 565.092 36.0517 564.803 35.6528C564.517 35.254 564.355 34.7907 564.318 34.2631H565.524C565.555 34.6274 565.678 34.9289 565.891 35.1676C566.108 35.4032 566.381 35.579 566.711 35.6952C567.044 35.8083 567.402 35.8648 567.785 35.8648C568.231 35.8648 568.632 35.7926 568.986 35.6481C569.341 35.5005 569.622 35.2964 569.83 35.0357C570.037 34.7719 570.141 34.4641 570.141 34.1123C570.141 33.792 570.051 33.5313 569.872 33.3303C569.693 33.1293 569.458 32.966 569.165 32.8404C568.873 32.7147 568.558 32.6048 568.219 32.5106L567.031 32.1714C566.278 31.9547 565.681 31.6453 565.241 31.2433C564.801 30.8413 564.582 30.3152 564.582 29.6651C564.582 29.1249 564.728 28.6538 565.02 28.2518C565.315 27.8466 565.711 27.5326 566.207 27.3096C566.706 27.0835 567.264 26.9704 567.879 26.9704C568.501 26.9704 569.054 27.0819 569.538 27.3049C570.021 27.5247 570.404 27.8262 570.687 28.2094C570.973 28.5926 571.124 29.0275 571.139 29.5144H570.009ZM577.602 33.792V29.5144H578.714V36.7505H577.602V35.5256H577.526C577.357 35.8931 577.093 36.2056 576.735 36.4631C576.377 36.7175 575.925 36.8447 575.378 36.8447C574.926 36.8447 574.524 36.7458 574.172 36.5479C573.82 36.3469 573.544 36.0454 573.343 35.6434C573.142 35.2383 573.041 34.7279 573.041 34.1123V29.5144H574.153V34.037C574.153 34.5646 574.301 34.9854 574.596 35.2995C574.894 35.6136 575.274 35.7706 575.736 35.7706C576.013 35.7706 576.294 35.7 576.579 35.5586C576.868 35.4173 577.11 35.2006 577.305 34.9085C577.503 34.6164 577.602 34.2442 577.602 33.792ZM580.75 36.7505V29.5144H581.824V30.645H581.918C582.069 30.2587 582.312 29.9588 582.648 29.7452C582.984 29.5285 583.388 29.4201 583.859 29.4201C584.337 29.4201 584.734 29.5285 585.051 29.7452C585.371 29.9588 585.621 30.2587 585.8 30.645H585.876C586.061 30.2713 586.339 29.9745 586.709 29.7546C587.08 29.5316 587.524 29.4201 588.043 29.4201C588.69 29.4201 589.219 29.6227 589.63 30.0279C590.042 30.4299 590.247 31.0564 590.247 31.9076V36.7505H589.136V31.9076C589.136 31.3736 588.99 30.9921 588.697 30.7628C588.405 30.5335 588.061 30.4189 587.666 30.4189C587.157 30.4189 586.763 30.5728 586.483 30.8806C586.204 31.1852 586.064 31.5715 586.064 32.0395V36.7505H584.933V31.7945C584.933 31.3831 584.8 31.0517 584.533 30.8005C584.266 30.5461 583.922 30.4189 583.501 30.4189C583.212 30.4189 582.942 30.4958 582.691 30.6497C582.443 30.8036 582.242 31.0172 582.088 31.2904C581.937 31.5605 581.862 31.873 581.862 32.2279V36.7505H580.75ZM592.28 36.7505V29.5144H593.354V30.645H593.449C593.599 30.2587 593.843 29.9588 594.179 29.7452C594.515 29.5285 594.918 29.4201 595.389 29.4201C595.867 29.4201 596.264 29.5285 596.581 29.7452C596.902 29.9588 597.151 30.2587 597.33 30.645H597.406C597.591 30.2713 597.869 29.9745 598.24 29.7546C598.61 29.5316 599.055 29.4201 599.573 29.4201C600.22 29.4201 600.749 29.6227 601.16 30.0279C601.572 30.4299 601.778 31.0564 601.778 31.9076V36.7505H600.666V31.9076C600.666 31.3736 600.52 30.9921 600.228 30.7628C599.936 30.5335 599.592 30.4189 599.196 30.4189C598.687 30.4189 598.293 30.5728 598.014 30.8806C597.734 31.1852 597.594 31.5715 597.594 32.0395V36.7505H596.464V31.7945C596.464 31.3831 596.33 31.0517 596.063 30.8005C595.796 30.5461 595.452 30.4189 595.031 30.4189C594.742 30.4189 594.472 30.4958 594.221 30.6497C593.973 30.8036 593.772 31.0172 593.618 31.2904C593.467 31.5605 593.392 31.873 593.392 32.2279V36.7505H592.28ZM605.94 36.9201C605.481 36.9201 605.065 36.8337 604.691 36.661C604.318 36.4851 604.021 36.2323 603.801 35.9025C603.581 35.5696 603.471 35.1676 603.471 34.6965C603.471 34.2819 603.553 33.9459 603.716 33.6883C603.88 33.4277 604.098 33.2235 604.371 33.0759C604.644 32.9283 604.946 32.8184 605.276 32.7461C605.608 32.6708 605.943 32.6111 606.279 32.5671C606.719 32.5106 607.075 32.4682 607.348 32.4399C607.625 32.4085 607.826 32.3567 607.951 32.2844C608.08 32.2122 608.145 32.0866 608.145 31.9076V31.8699C608.145 31.4051 608.017 31.0439 607.763 30.7863C607.512 30.5288 607.13 30.4 606.618 30.4C606.087 30.4 605.671 30.5162 605.37 30.7486C605.068 30.9811 604.856 31.2292 604.734 31.493L603.679 31.1161C603.867 30.6764 604.118 30.3341 604.432 30.0891C604.75 29.841 605.095 29.6683 605.469 29.5709C605.846 29.4704 606.216 29.4201 606.581 29.4201C606.813 29.4201 607.08 29.4484 607.381 29.5049C607.686 29.5583 607.98 29.6698 608.262 29.8394C608.548 30.009 608.785 30.265 608.974 30.6073C609.162 30.9497 609.256 31.4082 609.256 31.9829V36.7505H608.145V35.7706H608.088C608.013 35.9277 607.887 36.0957 607.711 36.2747C607.535 36.4537 607.301 36.606 607.009 36.7317C606.717 36.8573 606.361 36.9201 605.94 36.9201ZM606.109 35.9214C606.549 35.9214 606.92 35.835 607.221 35.6623C607.526 35.4895 607.755 35.2665 607.909 34.9933C608.066 34.7201 608.145 34.4327 608.145 34.1312V33.1136C608.097 33.1701 607.994 33.2219 607.834 33.2691C607.677 33.313 607.494 33.3523 607.287 33.3868C607.083 33.4182 606.884 33.4465 606.689 33.4716C606.497 33.4936 606.342 33.5125 606.222 33.5282C605.934 33.5659 605.663 33.6271 605.412 33.7119C605.164 33.7936 604.963 33.9176 604.809 34.0841C604.658 34.2474 604.583 34.4704 604.583 34.753C604.583 35.1393 604.726 35.4314 605.012 35.6293C605.301 35.824 605.667 35.9214 606.109 35.9214ZM611.286 36.7505V29.5144H612.36V30.6073H612.435C612.567 30.2493 612.806 29.9588 613.151 29.7358C613.497 29.5128 613.886 29.4013 614.32 29.4013C614.401 29.4013 614.503 29.4029 614.626 29.406C614.748 29.4091 614.841 29.4139 614.904 29.4201V30.5508C614.866 30.5414 614.78 30.5272 614.645 30.5084C614.513 30.4864 614.373 30.4754 614.225 30.4754C613.874 30.4754 613.56 30.5492 613.283 30.6968C613.01 30.8413 612.793 31.0423 612.633 31.2998C612.476 31.5542 612.397 31.8448 612.397 32.1714V36.7505H611.286ZM617.158 39.4452C616.97 39.4452 616.802 39.4295 616.654 39.3981C616.506 39.3699 616.404 39.3416 616.348 39.3133L616.63 38.3334C617.036 38.4371 617.373 38.4339 617.643 38.324C617.913 38.2172 618.147 37.8937 618.345 37.3535L618.552 36.7882L615.877 29.5144H617.083L619.08 35.2807H619.155L621.153 29.5144L622.368 29.5332L619.287 37.8058C619.149 38.1733 618.978 38.4779 618.774 38.7197C618.57 38.9647 618.333 39.1469 618.063 39.2662C617.796 39.3856 617.494 39.4452 617.158 39.4452Z" fill="white" fill-opacity="0.7"/>
</svg>
