<svg width="1300" height="240" viewBox="0 0 1300 240" fill="none" xmlns="http://www.w3.org/2000/svg">
<rect width="1300" height="240" rx="24" fill="#262626"/>
<path d="M537.183 125.75C537.183 128.512 534.944 130.75 532.183 130.75C529.421 130.75 527.183 128.512 527.183 125.75C527.183 122.989 529.421 120.75 532.183 120.75C534.944 120.75 537.183 122.989 537.183 125.75Z" stroke="#64B4FA" stroke-width="2"/>
<g clip-path="url(#clip0_2462_35471)">
<path d="M547.451 130.75V120.568H548.684V129.656H553.417V130.75H547.451ZM557.414 130.929C556.93 130.929 556.491 130.838 556.096 130.656C555.702 130.47 555.389 130.203 555.157 129.855C554.925 129.504 554.809 129.08 554.809 128.583C554.809 128.145 554.895 127.79 555.067 127.519C555.24 127.243 555.47 127.028 555.758 126.872C556.047 126.717 556.365 126.601 556.713 126.524C557.064 126.445 557.417 126.382 557.772 126.335C558.236 126.276 558.612 126.231 558.9 126.201C559.192 126.168 559.404 126.113 559.537 126.037C559.673 125.961 559.741 125.828 559.741 125.639V125.6C559.741 125.109 559.606 124.728 559.338 124.456C559.073 124.184 558.67 124.048 558.13 124.048C557.57 124.048 557.13 124.171 556.812 124.416C556.494 124.662 556.27 124.923 556.141 125.202L555.027 124.804C555.226 124.34 555.491 123.979 555.823 123.72C556.158 123.458 556.522 123.276 556.917 123.173C557.314 123.067 557.705 123.014 558.09 123.014C558.335 123.014 558.617 123.044 558.935 123.104C559.257 123.16 559.566 123.278 559.865 123.457C560.166 123.636 560.417 123.906 560.616 124.267C560.814 124.628 560.914 125.112 560.914 125.719V130.75H559.741V129.716H559.681C559.601 129.882 559.469 130.059 559.283 130.248C559.098 130.437 558.851 130.598 558.542 130.73C558.234 130.863 557.858 130.929 557.414 130.929ZM557.593 129.875C558.057 129.875 558.448 129.784 558.766 129.602C559.088 129.419 559.33 129.184 559.492 128.896C559.658 128.607 559.741 128.304 559.741 127.986V126.912C559.691 126.972 559.581 127.026 559.412 127.076C559.247 127.123 559.054 127.164 558.836 127.2C558.62 127.234 558.41 127.263 558.204 127.29C558.002 127.313 557.838 127.333 557.712 127.35C557.407 127.389 557.122 127.454 556.857 127.543C556.595 127.63 556.383 127.761 556.221 127.936C556.062 128.109 555.982 128.344 555.982 128.642C555.982 129.05 556.133 129.358 556.434 129.567C556.739 129.772 557.125 129.875 557.593 129.875ZM563.214 130.75V120.568H564.388V124.327H564.487C564.573 124.194 564.693 124.025 564.845 123.82C565.001 123.611 565.223 123.425 565.511 123.263C565.803 123.097 566.197 123.014 566.695 123.014C567.338 123.014 567.904 123.175 568.395 123.497C568.885 123.818 569.268 124.274 569.543 124.864C569.818 125.454 569.956 126.15 569.956 126.952C569.956 127.761 569.818 128.462 569.543 129.055C569.268 129.645 568.887 130.102 568.4 130.427C567.913 130.748 567.351 130.909 566.714 130.909C566.224 130.909 565.831 130.828 565.536 130.666C565.241 130.5 565.014 130.313 564.855 130.104C564.696 129.892 564.573 129.716 564.487 129.577H564.348V130.75H563.214ZM564.368 126.932C564.368 127.509 564.452 128.017 564.621 128.458C564.79 128.896 565.037 129.239 565.362 129.487C565.687 129.733 566.085 129.855 566.555 129.855C567.046 129.855 567.455 129.726 567.783 129.467C568.115 129.206 568.363 128.854 568.529 128.413C568.698 127.969 568.783 127.476 568.783 126.932C568.783 126.395 568.7 125.911 568.534 125.48C568.372 125.046 568.125 124.703 567.793 124.451C567.465 124.196 567.052 124.068 566.555 124.068C566.078 124.068 565.677 124.189 565.352 124.431C565.027 124.67 564.782 125.005 564.616 125.435C564.451 125.863 564.368 126.362 564.368 126.932ZM574.952 130.909C574.217 130.909 573.582 130.747 573.048 130.422C572.518 130.094 572.109 129.636 571.82 129.05C571.535 128.46 571.393 127.774 571.393 126.992C571.393 126.209 571.535 125.52 571.82 124.923C572.109 124.324 572.51 123.856 573.023 123.521C573.54 123.183 574.144 123.014 574.833 123.014C575.231 123.014 575.623 123.081 576.011 123.213C576.399 123.346 576.752 123.561 577.07 123.859C577.388 124.154 577.642 124.546 577.831 125.033C578.02 125.52 578.114 126.12 578.114 126.833V127.33H572.228V126.315H576.921C576.921 125.885 576.835 125.5 576.663 125.162C576.494 124.824 576.252 124.557 575.937 124.362C575.625 124.166 575.257 124.068 574.833 124.068C574.366 124.068 573.961 124.184 573.62 124.416C573.282 124.645 573.022 124.943 572.839 125.311C572.657 125.679 572.566 126.074 572.566 126.494V127.171C572.566 127.747 572.665 128.236 572.864 128.637C573.066 129.035 573.347 129.338 573.704 129.547C574.062 129.752 574.478 129.855 574.952 129.855C575.261 129.855 575.539 129.812 575.788 129.726C576.039 129.636 576.257 129.504 576.439 129.328C576.621 129.149 576.762 128.927 576.861 128.662L577.995 128.98C577.876 129.365 577.675 129.703 577.393 129.994C577.112 130.283 576.764 130.508 576.349 130.671C575.935 130.83 575.469 130.909 574.952 130.909ZM581.072 120.568V130.75H579.899V120.568H581.072Z" fill="white" fill-opacity="0.7"/>
</g>
<rect x="590.183" y="124.75" width="24" height="2" fill="#8F8F8F"/>
<path d="M633.183 125.75C633.183 128.512 630.944 130.75 628.183 130.75C625.421 130.75 623.183 128.512 623.183 125.75C623.183 122.989 625.421 120.75 628.183 120.75C630.944 120.75 633.183 122.989 633.183 125.75Z" stroke="#64B4FA" stroke-width="2"/>
<g clip-path="url(#clip1_2462_35471)">
<path d="M643.451 130.75V120.568H644.684V129.656H649.417V130.75H643.451ZM653.414 130.929C652.93 130.929 652.491 130.838 652.096 130.656C651.702 130.47 651.389 130.203 651.157 129.855C650.925 129.504 650.809 129.08 650.809 128.583C650.809 128.145 650.895 127.79 651.067 127.519C651.24 127.243 651.47 127.028 651.758 126.872C652.047 126.717 652.365 126.601 652.713 126.524C653.064 126.445 653.417 126.382 653.772 126.335C654.236 126.276 654.612 126.231 654.9 126.201C655.192 126.168 655.404 126.113 655.537 126.037C655.673 125.961 655.741 125.828 655.741 125.639V125.6C655.741 125.109 655.606 124.728 655.338 124.456C655.073 124.184 654.67 124.048 654.13 124.048C653.57 124.048 653.13 124.171 652.812 124.416C652.494 124.662 652.27 124.923 652.141 125.202L651.027 124.804C651.226 124.34 651.491 123.979 651.823 123.72C652.158 123.458 652.522 123.276 652.917 123.173C653.314 123.067 653.705 123.014 654.09 123.014C654.335 123.014 654.617 123.044 654.935 123.104C655.257 123.16 655.566 123.278 655.865 123.457C656.166 123.636 656.417 123.906 656.616 124.267C656.814 124.628 656.914 125.112 656.914 125.719V130.75H655.741V129.716H655.681C655.601 129.882 655.469 130.059 655.283 130.248C655.098 130.437 654.851 130.598 654.542 130.73C654.234 130.863 653.858 130.929 653.414 130.929ZM653.593 129.875C654.057 129.875 654.448 129.784 654.766 129.602C655.088 129.419 655.33 129.184 655.492 128.896C655.658 128.607 655.741 128.304 655.741 127.986V126.912C655.691 126.972 655.581 127.026 655.412 127.076C655.247 127.123 655.054 127.164 654.836 127.2C654.62 127.234 654.41 127.263 654.204 127.29C654.002 127.313 653.838 127.333 653.712 127.35C653.407 127.389 653.122 127.454 652.857 127.543C652.595 127.63 652.383 127.761 652.221 127.936C652.062 128.109 651.982 128.344 651.982 128.642C651.982 129.05 652.133 129.358 652.434 129.567C652.739 129.772 653.125 129.875 653.593 129.875ZM659.214 130.75V120.568H660.388V124.327H660.487C660.573 124.194 660.693 124.025 660.845 123.82C661.001 123.611 661.223 123.425 661.511 123.263C661.803 123.097 662.197 123.014 662.695 123.014C663.338 123.014 663.904 123.175 664.395 123.497C664.885 123.818 665.268 124.274 665.543 124.864C665.818 125.454 665.956 126.15 665.956 126.952C665.956 127.761 665.818 128.462 665.543 129.055C665.268 129.645 664.887 130.102 664.4 130.427C663.913 130.748 663.351 130.909 662.714 130.909C662.224 130.909 661.831 130.828 661.536 130.666C661.241 130.5 661.014 130.313 660.855 130.104C660.696 129.892 660.573 129.716 660.487 129.577H660.348V130.75H659.214ZM660.368 126.932C660.368 127.509 660.452 128.017 660.621 128.458C660.79 128.896 661.037 129.239 661.362 129.487C661.687 129.733 662.085 129.855 662.555 129.855C663.046 129.855 663.455 129.726 663.783 129.467C664.115 129.206 664.363 128.854 664.529 128.413C664.698 127.969 664.783 127.476 664.783 126.932C664.783 126.395 664.7 125.911 664.534 125.48C664.372 125.046 664.125 124.703 663.793 124.451C663.465 124.196 663.052 124.068 662.555 124.068C662.078 124.068 661.677 124.189 661.352 124.431C661.027 124.67 660.782 125.005 660.616 125.435C660.451 125.863 660.368 126.362 660.368 126.932ZM670.952 130.909C670.217 130.909 669.582 130.747 669.048 130.422C668.518 130.094 668.109 129.636 667.82 129.05C667.535 128.46 667.393 127.774 667.393 126.992C667.393 126.209 667.535 125.52 667.82 124.923C668.109 124.324 668.51 123.856 669.023 123.521C669.54 123.183 670.144 123.014 670.833 123.014C671.231 123.014 671.623 123.081 672.011 123.213C672.399 123.346 672.752 123.561 673.07 123.859C673.388 124.154 673.642 124.546 673.831 125.033C674.02 125.52 674.114 126.12 674.114 126.833V127.33H668.228V126.315H672.921C672.921 125.885 672.835 125.5 672.663 125.162C672.494 124.824 672.252 124.557 671.937 124.362C671.625 124.166 671.257 124.068 670.833 124.068C670.366 124.068 669.961 124.184 669.62 124.416C669.282 124.645 669.022 124.943 668.839 125.311C668.657 125.679 668.566 126.074 668.566 126.494V127.171C668.566 127.747 668.665 128.236 668.864 128.637C669.066 129.035 669.347 129.338 669.704 129.547C670.062 129.752 670.478 129.855 670.952 129.855C671.261 129.855 671.539 129.812 671.788 129.726C672.039 129.636 672.257 129.504 672.439 129.328C672.621 129.149 672.762 128.927 672.861 128.662L673.995 128.98C673.876 129.365 673.675 129.703 673.393 129.994C673.112 130.283 672.764 130.508 672.349 130.671C671.935 130.83 671.469 130.909 670.952 130.909ZM677.072 120.568V130.75H675.899V120.568H677.072Z" fill="white" fill-opacity="0.7"/>
</g>
<rect x="686.183" y="124.75" width="24" height="2" fill="#8F8F8F"/>
<path d="M729.183 125.75C729.183 128.512 726.944 130.75 724.183 130.75C721.421 130.75 719.183 128.512 719.183 125.75C719.183 122.989 721.421 120.75 724.183 120.75C726.944 120.75 729.183 122.989 729.183 125.75Z" stroke="#64B4FA" stroke-width="2"/>
<g clip-path="url(#clip2_2462_35471)">
<path d="M739.451 130.75V120.568H740.684V129.656H745.417V130.75H739.451ZM749.414 130.929C748.93 130.929 748.491 130.838 748.096 130.656C747.702 130.47 747.389 130.203 747.157 129.855C746.925 129.504 746.809 129.08 746.809 128.583C746.809 128.145 746.895 127.79 747.067 127.519C747.24 127.243 747.47 127.028 747.758 126.872C748.047 126.717 748.365 126.601 748.713 126.524C749.064 126.445 749.417 126.382 749.772 126.335C750.236 126.276 750.612 126.231 750.9 126.201C751.192 126.168 751.404 126.113 751.537 126.037C751.673 125.961 751.741 125.828 751.741 125.639V125.6C751.741 125.109 751.606 124.728 751.338 124.456C751.073 124.184 750.67 124.048 750.13 124.048C749.57 124.048 749.13 124.171 748.812 124.416C748.494 124.662 748.27 124.923 748.141 125.202L747.027 124.804C747.226 124.34 747.491 123.979 747.823 123.72C748.158 123.458 748.522 123.276 748.917 123.173C749.314 123.067 749.705 123.014 750.09 123.014C750.335 123.014 750.617 123.044 750.935 123.104C751.257 123.16 751.566 123.278 751.865 123.457C752.166 123.636 752.417 123.906 752.616 124.267C752.814 124.628 752.914 125.112 752.914 125.719V130.75H751.741V129.716H751.681C751.601 129.882 751.469 130.059 751.283 130.248C751.098 130.437 750.851 130.598 750.542 130.73C750.234 130.863 749.858 130.929 749.414 130.929ZM749.593 129.875C750.057 129.875 750.448 129.784 750.766 129.602C751.088 129.419 751.33 129.184 751.492 128.896C751.658 128.607 751.741 128.304 751.741 127.986V126.912C751.691 126.972 751.581 127.026 751.412 127.076C751.247 127.123 751.054 127.164 750.836 127.2C750.62 127.234 750.41 127.263 750.204 127.29C750.002 127.313 749.838 127.333 749.712 127.35C749.407 127.389 749.122 127.454 748.857 127.543C748.595 127.63 748.383 127.761 748.221 127.936C748.062 128.109 747.982 128.344 747.982 128.642C747.982 129.05 748.133 129.358 748.434 129.567C748.739 129.772 749.125 129.875 749.593 129.875ZM755.214 130.75V120.568H756.388V124.327H756.487C756.573 124.194 756.693 124.025 756.845 123.82C757.001 123.611 757.223 123.425 757.511 123.263C757.803 123.097 758.197 123.014 758.695 123.014C759.338 123.014 759.904 123.175 760.395 123.497C760.885 123.818 761.268 124.274 761.543 124.864C761.818 125.454 761.956 126.15 761.956 126.952C761.956 127.761 761.818 128.462 761.543 129.055C761.268 129.645 760.887 130.102 760.4 130.427C759.913 130.748 759.351 130.909 758.714 130.909C758.224 130.909 757.831 130.828 757.536 130.666C757.241 130.5 757.014 130.313 756.855 130.104C756.696 129.892 756.573 129.716 756.487 129.577H756.348V130.75H755.214ZM756.368 126.932C756.368 127.509 756.452 128.017 756.621 128.458C756.79 128.896 757.037 129.239 757.362 129.487C757.687 129.733 758.085 129.855 758.555 129.855C759.046 129.855 759.455 129.726 759.783 129.467C760.115 129.206 760.363 128.854 760.529 128.413C760.698 127.969 760.783 127.476 760.783 126.932C760.783 126.395 760.7 125.911 760.534 125.48C760.372 125.046 760.125 124.703 759.793 124.451C759.465 124.196 759.052 124.068 758.555 124.068C758.078 124.068 757.677 124.189 757.352 124.431C757.027 124.67 756.782 125.005 756.616 125.435C756.451 125.863 756.368 126.362 756.368 126.932ZM766.952 130.909C766.217 130.909 765.582 130.747 765.048 130.422C764.518 130.094 764.109 129.636 763.82 129.05C763.535 128.46 763.393 127.774 763.393 126.992C763.393 126.209 763.535 125.52 763.82 124.923C764.109 124.324 764.51 123.856 765.023 123.521C765.54 123.183 766.144 123.014 766.833 123.014C767.231 123.014 767.623 123.081 768.011 123.213C768.399 123.346 768.752 123.561 769.07 123.859C769.388 124.154 769.642 124.546 769.831 125.033C770.02 125.52 770.114 126.12 770.114 126.833V127.33H764.228V126.315H768.921C768.921 125.885 768.835 125.5 768.663 125.162C768.494 124.824 768.252 124.557 767.937 124.362C767.625 124.166 767.257 124.068 766.833 124.068C766.366 124.068 765.961 124.184 765.62 124.416C765.282 124.645 765.022 124.943 764.839 125.311C764.657 125.679 764.566 126.074 764.566 126.494V127.171C764.566 127.747 764.665 128.236 764.864 128.637C765.066 129.035 765.347 129.338 765.704 129.547C766.062 129.752 766.478 129.855 766.952 129.855C767.261 129.855 767.539 129.812 767.788 129.726C768.039 129.636 768.257 129.504 768.439 129.328C768.621 129.149 768.762 128.927 768.861 128.662L769.995 128.98C769.876 129.365 769.675 129.703 769.393 129.994C769.112 130.283 768.764 130.508 768.349 130.671C767.935 130.83 767.469 130.909 766.952 130.909ZM773.072 120.568V130.75H771.899V120.568H773.072Z" fill="white" fill-opacity="0.7"/>
</g>
<g clip-path="url(#clip3_2462_35471)">
<line x1="526.598" y1="116" x2="526.598" y2="101" stroke="#C7A5FA"/>
<line x1="526.098" y1="108.5" x2="538.098" y2="108.5" stroke="#C7A5FA"/>
<line x1="537.598" y1="116" x2="537.598" y2="101" stroke="#C7A5FA"/>
</g>
<path d="M529.242 94H527.594V86.0703L525.045 87.0068V85.5645L529.139 84.0469H529.242V94ZM539.424 94H532.745V92.8652L535.986 89.3379C536.255 89.0417 536.48 88.7773 536.662 88.5449C536.845 88.3079 536.993 88.0915 537.107 87.8955C537.216 87.6995 537.294 87.5173 537.339 87.3486C537.389 87.1755 537.414 87.0023 537.414 86.8291C537.414 86.5967 537.38 86.3848 537.312 86.1934C537.243 86.002 537.143 85.8379 537.011 85.7012C536.879 85.5645 536.719 85.4574 536.533 85.3799C536.35 85.3024 536.145 85.2637 535.917 85.2637C535.626 85.2637 535.373 85.3047 535.159 85.3867C534.944 85.4688 534.767 85.585 534.625 85.7354C534.479 85.8949 534.37 86.0885 534.297 86.3164C534.224 86.5397 534.188 86.7949 534.188 87.082H532.547C532.547 86.6491 532.627 86.2412 532.786 85.8584C532.946 85.471 533.174 85.1338 533.47 84.8467C533.762 84.5596 534.117 84.3317 534.536 84.1631C534.96 83.9945 535.432 83.9102 535.951 83.9102C536.439 83.9102 536.874 83.9808 537.257 84.1221C537.645 84.2633 537.97 84.4593 538.235 84.71C538.494 84.9606 538.693 85.2614 538.829 85.6123C538.966 85.9587 539.034 86.3415 539.034 86.7607C539.034 87.0752 538.982 87.3805 538.877 87.6768C538.777 87.9684 538.638 88.2578 538.46 88.5449C538.278 88.832 538.062 89.1214 537.811 89.4131C537.565 89.7048 537.296 90.0055 537.004 90.3154L534.789 92.6807H539.424V94Z" fill="#C7A5FA"/>
<g clip-path="url(#clip4_2462_35471)">
<rect x="526.598" y="120.5" width="11" height="11" stroke="#C7A5FA" stroke-opacity="0.5" stroke-dasharray="4 4"/>
</g>
<g clip-path="url(#clip5_2462_35471)">
<line x1="541.226" y1="153" x2="541.226" y2="138" stroke="#C7A5FA"/>
<line x1="540.726" y1="145.5" x2="700.726" y2="145.5" stroke="#C7A5FA"/>
<line x1="700.226" y1="153" x2="700.226" y2="138" stroke="#C7A5FA"/>
</g>
<path d="M555.858 171.375H554.211V163.445L551.661 164.382V162.939L555.756 161.422H555.858V171.375ZM564.584 161.374V162.762H564.475C563.933 162.762 563.461 162.837 563.06 162.987C562.664 163.133 562.329 163.338 562.055 163.603C561.777 163.867 561.561 164.184 561.406 164.553C561.255 164.922 561.162 165.318 561.126 165.742C561.235 165.619 561.362 165.501 561.508 165.387C561.654 165.268 561.816 165.163 561.994 165.072C562.162 164.986 562.349 164.917 562.554 164.867C562.759 164.812 562.976 164.785 563.204 164.785C563.687 164.785 564.106 164.876 564.461 165.059C564.821 165.241 565.118 165.487 565.35 165.797C565.587 166.107 565.76 166.462 565.87 166.863C565.984 167.264 566.041 167.681 566.041 168.114C566.041 168.588 565.968 169.033 565.822 169.447C565.681 169.857 565.473 170.215 565.2 170.521C564.922 170.83 564.582 171.074 564.181 171.252C563.785 171.425 563.331 171.512 562.821 171.512C562.297 171.512 561.83 171.411 561.419 171.211C561.009 171.01 560.663 170.739 560.38 170.397C560.08 170.042 559.852 169.625 559.697 169.146C559.542 168.663 559.464 168.155 559.464 167.622V166.945C559.464 166.143 559.567 165.38 559.772 164.655C559.982 163.926 560.328 163.299 560.811 162.775C561.221 162.324 561.727 161.978 562.329 161.736C562.93 161.495 563.618 161.374 564.393 161.374H564.584ZM562.8 166.111C562.604 166.111 562.418 166.141 562.24 166.2C562.062 166.259 561.898 166.341 561.748 166.446C561.611 166.551 561.488 166.672 561.378 166.809C561.269 166.945 561.178 167.098 561.105 167.267V167.772C561.105 168.169 561.148 168.518 561.235 168.818C561.326 169.119 561.449 169.37 561.604 169.57C561.759 169.771 561.939 169.924 562.144 170.028C562.349 170.133 562.568 170.186 562.8 170.186C563.056 170.186 563.283 170.135 563.484 170.035C563.684 169.93 563.855 169.789 563.997 169.611C564.138 169.429 564.245 169.215 564.318 168.969C564.391 168.718 564.427 168.447 564.427 168.155C564.427 167.877 564.391 167.615 564.318 167.369C564.25 167.118 564.147 166.9 564.01 166.713C563.874 166.526 563.703 166.38 563.498 166.275C563.297 166.166 563.065 166.111 562.8 166.111ZM574.357 167.581C574.357 168.219 574.281 168.784 574.131 169.276C573.985 169.764 573.773 170.172 573.495 170.5C573.222 170.837 572.885 171.092 572.484 171.266C572.087 171.434 571.636 171.519 571.13 171.519C570.629 171.519 570.178 171.434 569.777 171.266C569.375 171.092 569.036 170.837 568.758 170.5C568.475 170.172 568.259 169.764 568.109 169.276C567.963 168.784 567.89 168.219 567.89 167.581V165.223C567.89 164.585 567.963 164.022 568.109 163.534C568.259 163.042 568.473 162.627 568.751 162.29C569.029 161.957 569.366 161.707 569.763 161.538C570.164 161.365 570.615 161.278 571.116 161.278C571.622 161.278 572.073 161.365 572.47 161.538C572.871 161.707 573.213 161.957 573.495 162.29C573.769 162.627 573.981 163.042 574.131 163.534C574.281 164.022 574.357 164.585 574.357 165.223V167.581ZM569.53 167L572.695 164.601C572.677 164.245 572.627 163.938 572.545 163.678C572.468 163.418 572.356 163.206 572.21 163.042C572.083 162.896 571.925 162.787 571.738 162.714C571.556 162.641 571.349 162.604 571.116 162.604C570.866 162.604 570.645 162.648 570.453 162.734C570.262 162.821 570.102 162.949 569.975 163.117C569.824 163.309 569.713 163.557 569.64 163.862C569.567 164.163 569.53 164.519 569.53 164.929V166.269C569.53 166.442 569.53 166.574 569.53 166.665C569.53 166.756 569.53 166.868 569.53 167ZM572.709 167.854V166.597C572.709 166.483 572.709 166.364 572.709 166.241C572.709 166.118 572.709 165.991 572.709 165.858L569.544 168.244C569.567 168.559 569.615 168.837 569.688 169.078C569.765 169.32 569.868 169.52 569.995 169.68C570.123 169.853 570.28 169.983 570.467 170.069C570.658 170.156 570.879 170.199 571.13 170.199C571.376 170.199 571.593 170.158 571.779 170.076C571.966 169.99 572.126 169.864 572.258 169.7C572.408 169.509 572.52 169.258 572.593 168.948C572.67 168.638 572.709 168.274 572.709 167.854ZM576.254 174.219V163.979H577.758L577.819 164.737C577.919 164.614 578.029 164.503 578.147 164.402C578.266 164.302 578.393 164.215 578.53 164.143C578.708 164.047 578.904 163.974 579.118 163.924C579.332 163.869 579.56 163.842 579.802 163.842C580.276 163.842 580.693 163.933 581.053 164.115C581.417 164.298 581.722 164.555 581.969 164.888C582.21 165.22 582.395 165.619 582.522 166.084C582.65 166.544 582.714 167.052 582.714 167.608V167.752C582.714 168.285 582.65 168.782 582.522 169.242C582.399 169.702 582.215 170.099 581.969 170.432C581.722 170.769 581.419 171.033 581.059 171.225C580.699 171.416 580.287 171.512 579.822 171.512C579.558 171.512 579.314 171.484 579.091 171.43C578.872 171.375 578.669 171.295 578.482 171.19C578.373 171.127 578.268 171.054 578.168 170.972C578.068 170.89 577.974 170.801 577.888 170.705V174.219H576.254ZM581.08 167.608C581.08 167.276 581.046 166.964 580.977 166.672C580.914 166.376 580.813 166.118 580.677 165.899C580.535 165.681 580.355 165.507 580.137 165.38C579.918 165.252 579.656 165.188 579.35 165.188C579.182 165.188 579.025 165.207 578.879 165.243C578.733 165.28 578.603 165.332 578.489 165.4C578.357 165.473 578.241 165.564 578.14 165.674C578.045 165.783 577.96 165.906 577.888 166.043V169.331C577.951 169.459 578.029 169.575 578.12 169.68C578.211 169.785 578.316 169.876 578.434 169.953C578.557 170.026 578.696 170.085 578.851 170.131C579.006 170.172 579.177 170.192 579.364 170.192C579.669 170.192 579.929 170.129 580.143 170.001C580.362 169.869 580.54 169.691 580.677 169.468C580.818 169.24 580.92 168.98 580.984 168.688C581.048 168.392 581.08 168.08 581.08 167.752V167.608ZM587.755 166.467L589.526 163.979H591.337L588.74 167.622L591.419 171.375H589.615L587.769 168.791L585.93 171.375H584.119L586.798 167.622L584.207 163.979H586.005L587.755 166.467ZM602.378 167.328C602.378 166.686 602.428 166.079 602.528 165.51C602.628 164.936 602.763 164.405 602.931 163.917C603.105 163.438 603.303 162.999 603.526 162.598C603.754 162.197 603.993 161.841 604.244 161.531C604.49 161.221 604.743 160.959 605.003 160.745C605.262 160.526 605.513 160.358 605.755 160.239L606.083 161.189C605.937 161.299 605.791 161.431 605.645 161.586C605.499 161.741 605.356 161.916 605.215 162.112C605.019 162.39 604.834 162.716 604.661 163.09C604.492 163.464 604.346 163.871 604.223 164.313C604.109 164.728 604.018 165.186 603.95 165.688C603.886 166.189 603.854 166.731 603.854 167.314V167.458C603.854 168.028 603.886 168.559 603.95 169.051C604.014 169.538 604.089 169.953 604.176 170.295C604.285 170.705 604.41 171.086 604.551 171.437C604.697 171.787 604.85 172.097 605.009 172.366C605.178 172.64 605.354 172.881 605.536 173.091C605.718 173.3 605.9 173.476 606.083 173.617L605.755 174.533C605.513 174.415 605.262 174.246 605.003 174.027C604.743 173.813 604.488 173.551 604.237 173.241C603.986 172.931 603.747 172.576 603.519 172.175C603.296 171.778 603.1 171.336 602.931 170.849C602.763 170.366 602.628 169.841 602.528 169.276C602.428 168.707 602.378 168.096 602.378 167.444V167.328ZM611.22 161.422L612.451 165.681L613.811 161.422H615.855V171.375H614.31V167.998L614.406 163.555L612.874 168.306H612.02L610.632 163.719L610.721 167.998V171.375H609.183V161.422H611.22ZM622.305 171.375C622.255 171.284 622.214 171.174 622.182 171.047C622.154 170.915 622.129 170.778 622.106 170.637C621.993 170.755 621.863 170.869 621.717 170.979C621.576 171.083 621.416 171.174 621.238 171.252C621.061 171.334 620.869 171.398 620.664 171.443C620.459 171.489 620.238 171.512 620.001 171.512C619.618 171.512 619.267 171.457 618.948 171.348C618.634 171.234 618.365 171.079 618.142 170.883C617.914 170.691 617.736 170.461 617.608 170.192C617.485 169.919 617.424 169.625 617.424 169.311C617.424 168.905 617.504 168.547 617.663 168.237C617.827 167.923 618.064 167.663 618.374 167.458C618.661 167.267 619.014 167.121 619.434 167.021C619.857 166.92 620.336 166.87 620.869 166.87H622.059V166.371C622.059 166.18 622.024 166.007 621.956 165.852C621.892 165.697 621.799 165.562 621.676 165.448C621.544 165.334 621.382 165.248 621.19 165.188C621.004 165.125 620.787 165.093 620.541 165.093C620.318 165.093 620.122 165.12 619.953 165.175C619.789 165.229 619.652 165.305 619.543 165.4C619.434 165.487 619.352 165.594 619.297 165.722C619.247 165.845 619.222 165.977 619.222 166.118H617.581C617.586 165.822 617.656 165.537 617.793 165.264C617.93 164.99 618.13 164.749 618.395 164.539C618.65 164.325 618.964 164.156 619.338 164.033C619.716 163.906 620.147 163.842 620.63 163.842C621.063 163.842 621.466 163.896 621.84 164.006C622.218 164.111 622.544 164.268 622.817 164.478C623.091 164.687 623.305 164.954 623.46 165.277C623.615 165.596 623.692 165.965 623.692 166.385V169.673C623.692 170.006 623.715 170.306 623.761 170.575C623.811 170.84 623.882 171.067 623.973 171.259V171.375H622.305ZM620.315 170.199C620.53 170.199 620.728 170.172 620.91 170.117C621.097 170.062 621.266 169.992 621.416 169.905C621.566 169.819 621.696 169.721 621.806 169.611C621.915 169.502 621.999 169.388 622.059 169.27V167.902H621.006C620.65 167.902 620.343 167.937 620.083 168.005C619.823 168.069 619.616 168.162 619.461 168.285C619.324 168.39 619.222 168.515 619.153 168.661C619.09 168.807 619.058 168.971 619.058 169.153C619.058 169.304 619.085 169.445 619.14 169.577C619.194 169.705 619.274 169.814 619.379 169.905C619.484 169.996 619.614 170.069 619.769 170.124C619.924 170.174 620.106 170.199 620.315 170.199ZM629.096 166.467L630.867 163.979H632.678L630.081 167.622L632.76 171.375H630.956L629.11 168.791L627.271 171.375H625.46L628.139 167.622L625.548 163.979H627.346L629.096 166.467ZM642.939 171.375L641.641 161.422H643.165L643.849 167.533L643.896 167.923L643.965 167.513L644.922 161.422H646.18L647.171 167.54L647.239 167.95L647.287 167.533L647.977 161.422H649.509L648.196 171.375H646.644L645.633 165.284L645.564 164.812L645.489 165.284L644.491 171.375H642.939ZM651.03 163.979H654.954V170.021H657.128V171.375H651.03V170.021H653.306V165.339H651.03V163.979ZM653.156 162.064C653.156 161.932 653.179 161.812 653.224 161.702C653.27 161.588 653.336 161.49 653.422 161.408C653.504 161.331 653.602 161.271 653.716 161.23C653.835 161.185 653.967 161.162 654.113 161.162C654.359 161.162 654.557 161.226 654.708 161.354C654.863 161.477 654.951 161.636 654.974 161.832C655.006 162.033 654.972 162.208 654.872 162.358C654.771 162.504 654.626 162.602 654.434 162.652C654.338 162.739 654.225 162.796 654.092 162.823C653.96 162.851 653.814 162.839 653.655 162.789C653.491 162.739 653.365 162.65 653.279 162.522C653.197 162.39 653.156 162.238 653.156 162.064ZM658.703 167.622C658.703 167.062 658.769 166.551 658.902 166.091C659.038 165.626 659.234 165.227 659.489 164.895C659.74 164.562 660.045 164.304 660.405 164.122C660.77 163.935 661.18 163.842 661.636 163.842C662.046 163.842 662.404 163.915 662.709 164.061C663.019 164.202 663.293 164.405 663.529 164.669V160.875H665.163V171.375H663.68L663.605 170.603C663.368 170.894 663.085 171.12 662.757 171.279C662.429 171.434 662.051 171.512 661.622 171.512C661.171 171.512 660.765 171.418 660.405 171.231C660.045 171.04 659.74 170.776 659.489 170.438C659.239 170.106 659.045 169.712 658.908 169.256C658.772 168.796 658.703 168.299 658.703 167.766V167.622ZM660.337 167.766C660.337 168.094 660.369 168.404 660.433 168.695C660.497 168.987 660.597 169.24 660.734 169.454C660.87 169.677 661.046 169.853 661.26 169.98C661.474 170.104 661.732 170.165 662.032 170.165C662.402 170.165 662.707 170.085 662.948 169.926C663.19 169.762 663.384 169.541 663.529 169.263V166.084C663.384 165.811 663.19 165.594 662.948 165.435C662.711 165.271 662.411 165.188 662.046 165.188C661.741 165.188 661.479 165.252 661.26 165.38C661.046 165.507 660.873 165.683 660.74 165.906C660.599 166.13 660.497 166.389 660.433 166.686C660.369 166.977 660.337 167.289 660.337 167.622V167.766ZM670.472 162.174V163.979H673.254V165.202H670.472V168.736C670.472 169.01 670.503 169.24 670.567 169.427C670.636 169.609 670.729 169.753 670.848 169.857C670.966 169.967 671.107 170.044 671.271 170.09C671.435 170.135 671.615 170.158 671.811 170.158C671.953 170.158 672.098 170.151 672.249 170.138C672.399 170.124 672.545 170.106 672.686 170.083C672.823 170.065 672.951 170.044 673.069 170.021C673.192 169.994 673.295 169.971 673.377 169.953L673.555 171.081C673.436 171.154 673.292 171.218 673.124 171.272C672.96 171.323 672.782 171.366 672.591 171.402C672.399 171.439 672.199 171.466 671.989 171.484C671.784 171.507 671.579 171.519 671.374 171.519C671 171.519 670.656 171.468 670.342 171.368C670.032 171.263 669.765 171.102 669.542 170.883C669.319 170.669 669.143 170.393 669.015 170.056C668.892 169.718 668.831 169.313 668.831 168.839V165.202H667.04V163.979H668.831V162.174H670.472ZM677.092 165.031C677.188 164.885 677.295 164.751 677.414 164.628C677.532 164.505 677.657 164.398 677.79 164.307C677.995 164.156 678.22 164.042 678.466 163.965C678.717 163.883 678.981 163.842 679.259 163.842C679.647 163.842 680 163.899 680.319 164.013C680.642 164.127 680.918 164.304 681.146 164.546C681.374 164.787 681.549 165.097 681.672 165.476C681.8 165.849 681.864 166.298 681.864 166.822V171.375H680.23V166.809C680.23 166.535 680.196 166.296 680.127 166.091C680.064 165.886 679.968 165.719 679.84 165.592C679.708 165.455 679.546 165.355 679.355 165.291C679.168 165.223 678.952 165.188 678.706 165.188C678.514 165.188 678.332 165.211 678.159 165.257C677.99 165.302 677.835 165.368 677.694 165.455C677.575 165.523 677.464 165.605 677.359 165.701C677.259 165.797 677.17 165.904 677.092 166.022V171.375H675.458V160.875H677.092V165.031ZM688.601 167.444C688.601 168.082 688.548 168.684 688.443 169.249C688.343 169.814 688.207 170.338 688.033 170.821C687.86 171.309 687.66 171.753 687.432 172.154C687.204 172.555 686.962 172.911 686.707 173.221C686.452 173.54 686.192 173.809 685.928 174.027C685.664 174.246 685.408 174.415 685.162 174.533L684.841 173.617C685.014 173.49 685.187 173.328 685.36 173.132C685.534 172.936 685.702 172.71 685.866 172.455C686.04 172.173 686.201 171.851 686.352 171.491C686.507 171.136 686.637 170.742 686.741 170.309C686.842 169.908 686.919 169.47 686.974 168.996C687.033 168.522 687.063 168.009 687.063 167.458V167.314C687.063 166.745 687.031 166.221 686.967 165.742C686.903 165.264 686.823 164.835 686.728 164.457C686.6 163.965 686.445 163.523 686.263 163.131C686.085 162.739 685.898 162.399 685.702 162.112C685.566 161.907 685.422 161.725 685.272 161.565C685.126 161.401 684.982 161.265 684.841 161.155L685.162 160.239C685.408 160.358 685.664 160.529 685.928 160.752C686.197 160.971 686.457 161.235 686.707 161.545C686.967 161.864 687.211 162.224 687.439 162.625C687.666 163.021 687.865 163.464 688.033 163.951C688.202 164.434 688.339 164.956 688.443 165.517C688.548 166.073 688.601 166.676 688.601 167.328V167.444Z" fill="#C7A5FA"/>
<rect x="541.115" y="116.25" width="159" height="18.7499" stroke="#643ABD"/>
<g opacity="0.5">
<g clip-path="url(#clip6_2462_35471)">
<rect width="7.78753" height="20" transform="translate(730.342 110.5)" fill="#30C9B0" fill-opacity="0.5"/>
<rect x="730.342" y="110.5" width="7.78753" height="20" fill="#30C9B0" fill-opacity="0.5"/>
</g>
</g>
<g clip-path="url(#clip7_2462_35471)">
<line x1="730.629" y1="106.5" x2="730.629" y2="91.5" stroke="#30C9B0"/>
<line x1="730.129" y1="99" x2="737.916" y2="99" stroke="#30C9B0"/>
<line x1="737.629" y1="106.5" x2="737.629" y2="91.5" stroke="#30C9B0"/>
</g>
<path d="M737.558 77.1719C737.558 77.4727 737.508 77.7529 737.408 78.0127C737.312 78.2725 737.175 78.5049 736.998 78.71C736.888 78.8421 736.763 78.9652 736.622 79.0791C736.48 79.193 736.323 79.2933 736.15 79.3799C736.355 79.4756 736.544 79.5872 736.717 79.7148C736.895 79.8379 737.05 79.9814 737.182 80.1455C737.369 80.3643 737.515 80.6126 737.62 80.8906C737.725 81.1686 737.777 81.4694 737.777 81.793C737.777 82.2533 737.693 82.6611 737.524 83.0166C737.355 83.3721 737.125 83.6683 736.834 83.9053C736.537 84.1468 736.191 84.3291 735.795 84.4521C735.403 84.5752 734.979 84.6367 734.523 84.6367C734.058 84.6367 733.625 84.5752 733.224 84.4521C732.828 84.3291 732.484 84.1468 732.192 83.9053C731.896 83.6683 731.663 83.3743 731.495 83.0234C731.331 82.668 731.249 82.2578 731.249 81.793C731.249 81.5195 731.285 81.2598 731.358 81.0137C731.436 80.7676 731.545 80.5397 731.686 80.3301C731.827 80.1296 731.996 79.9495 732.192 79.79C732.393 79.626 732.616 79.487 732.862 79.373C732.652 79.2682 732.461 79.1406 732.288 78.9902C732.119 78.8398 731.976 78.6735 731.857 78.4912C731.734 78.3044 731.638 78.0993 731.57 77.876C731.502 77.6527 731.467 77.418 731.467 77.1719C731.467 76.7298 731.543 76.3379 731.693 75.9961C731.848 75.6543 732.06 75.3649 732.329 75.1279C732.593 74.891 732.91 74.7132 733.279 74.5947C733.653 74.4717 734.061 74.4102 734.503 74.4102C734.94 74.4102 735.343 74.4717 735.713 74.5947C736.086 74.7132 736.412 74.891 736.69 75.1279C736.959 75.3604 737.171 75.6497 737.326 75.9961C737.481 76.3379 737.558 76.7298 737.558 77.1719ZM736.143 81.7041C736.143 81.458 736.102 81.2347 736.02 81.0342C735.943 80.8291 735.833 80.6514 735.692 80.501C735.546 80.3597 735.373 80.2503 735.172 80.1729C734.972 80.0954 734.751 80.0566 734.509 80.0566C734.259 80.0566 734.033 80.0954 733.833 80.1729C733.637 80.2503 733.468 80.3597 733.327 80.501C733.186 80.6514 733.076 80.8291 732.999 81.0342C732.926 81.2347 732.889 81.4603 732.889 81.7109C732.889 81.9661 732.928 82.1963 733.005 82.4014C733.083 82.6019 733.195 82.7705 733.34 82.9072C733.482 83.0394 733.65 83.1419 733.846 83.2148C734.047 83.2832 734.272 83.3174 734.523 83.3174C734.76 83.3174 734.977 83.2809 735.172 83.208C735.373 83.1351 735.546 83.0303 735.692 82.8936C735.829 82.7523 735.938 82.5837 736.02 82.3877C736.102 82.1872 736.143 81.9593 736.143 81.7041ZM735.931 77.2334C735.931 77.0101 735.895 76.8073 735.822 76.625C735.754 76.4427 735.658 76.2832 735.535 76.1465C735.407 76.0189 735.257 75.9186 735.084 75.8457C734.91 75.7728 734.714 75.7363 734.496 75.7363C734.282 75.7363 734.088 75.7728 733.915 75.8457C733.746 75.9141 733.6 76.012 733.477 76.1396C733.359 76.2673 733.268 76.4245 733.204 76.6113C733.14 76.7982 733.108 77.0055 733.108 77.2334C733.108 77.4567 733.14 77.6618 733.204 77.8486C733.268 78.0309 733.363 78.1859 733.491 78.3135C733.614 78.4456 733.762 78.5482 733.935 78.6211C734.108 78.694 734.302 78.7305 734.516 78.7305C734.73 78.7305 734.924 78.694 735.097 78.6211C735.27 78.5482 735.419 78.4456 735.542 78.3135C735.665 78.1859 735.76 78.0309 735.829 77.8486C735.897 77.6618 735.931 77.4567 735.931 77.2334Z" fill="#30C9B0"/>
<g opacity="0.5">
<g clip-path="url(#clip8_2462_35471)">
<rect width="7.78753" height="20" transform="translate(710.342 110.5)" fill="#30C9B0" fill-opacity="0.5"/>
<rect x="710.342" y="110.5" width="7.78753" height="20" fill="#30C9B0" fill-opacity="0.5"/>
</g>
</g>
<g clip-path="url(#clip9_2462_35471)">
<line x1="710.629" y1="106.5" x2="710.629" y2="91.5" stroke="#30C9B0"/>
<line x1="710.129" y1="99" x2="717.916" y2="99" stroke="#30C9B0"/>
<line x1="717.629" y1="106.5" x2="717.629" y2="91.5" stroke="#30C9B0"/>
</g>
<path d="M717.558 77.1719C717.558 77.4727 717.508 77.7529 717.408 78.0127C717.312 78.2725 717.175 78.5049 716.998 78.71C716.888 78.8421 716.763 78.9652 716.622 79.0791C716.48 79.193 716.323 79.2933 716.15 79.3799C716.355 79.4756 716.544 79.5872 716.717 79.7148C716.895 79.8379 717.05 79.9814 717.182 80.1455C717.369 80.3643 717.515 80.6126 717.62 80.8906C717.725 81.1686 717.777 81.4694 717.777 81.793C717.777 82.2533 717.693 82.6611 717.524 83.0166C717.355 83.3721 717.125 83.6683 716.834 83.9053C716.537 84.1468 716.191 84.3291 715.795 84.4521C715.403 84.5752 714.979 84.6367 714.523 84.6367C714.058 84.6367 713.625 84.5752 713.224 84.4521C712.828 84.3291 712.484 84.1468 712.192 83.9053C711.896 83.6683 711.663 83.3743 711.495 83.0234C711.331 82.668 711.249 82.2578 711.249 81.793C711.249 81.5195 711.285 81.2598 711.358 81.0137C711.436 80.7676 711.545 80.5397 711.686 80.3301C711.827 80.1296 711.996 79.9495 712.192 79.79C712.393 79.626 712.616 79.487 712.862 79.373C712.652 79.2682 712.461 79.1406 712.288 78.9902C712.119 78.8398 711.976 78.6735 711.857 78.4912C711.734 78.3044 711.638 78.0993 711.57 77.876C711.502 77.6527 711.467 77.418 711.467 77.1719C711.467 76.7298 711.543 76.3379 711.693 75.9961C711.848 75.6543 712.06 75.3649 712.329 75.1279C712.593 74.891 712.91 74.7132 713.279 74.5947C713.653 74.4717 714.061 74.4102 714.503 74.4102C714.94 74.4102 715.343 74.4717 715.713 74.5947C716.086 74.7132 716.412 74.891 716.69 75.1279C716.959 75.3604 717.171 75.6497 717.326 75.9961C717.481 76.3379 717.558 76.7298 717.558 77.1719ZM716.143 81.7041C716.143 81.458 716.102 81.2347 716.02 81.0342C715.943 80.8291 715.833 80.6514 715.692 80.501C715.546 80.3597 715.373 80.2503 715.172 80.1729C714.972 80.0954 714.751 80.0566 714.509 80.0566C714.259 80.0566 714.033 80.0954 713.833 80.1729C713.637 80.2503 713.468 80.3597 713.327 80.501C713.186 80.6514 713.076 80.8291 712.999 81.0342C712.926 81.2347 712.889 81.4603 712.889 81.7109C712.889 81.9661 712.928 82.1963 713.005 82.4014C713.083 82.6019 713.195 82.7705 713.34 82.9072C713.482 83.0394 713.65 83.1419 713.846 83.2148C714.047 83.2832 714.272 83.3174 714.523 83.3174C714.76 83.3174 714.977 83.2809 715.172 83.208C715.373 83.1351 715.546 83.0303 715.692 82.8936C715.829 82.7523 715.938 82.5837 716.02 82.3877C716.102 82.1872 716.143 81.9593 716.143 81.7041ZM715.931 77.2334C715.931 77.0101 715.895 76.8073 715.822 76.625C715.754 76.4427 715.658 76.2832 715.535 76.1465C715.407 76.0189 715.257 75.9186 715.084 75.8457C714.91 75.7728 714.714 75.7363 714.496 75.7363C714.282 75.7363 714.088 75.7728 713.915 75.8457C713.746 75.9141 713.6 76.012 713.477 76.1396C713.359 76.2673 713.268 76.4245 713.204 76.6113C713.14 76.7982 713.108 77.0055 713.108 77.2334C713.108 77.4567 713.14 77.6618 713.204 77.8486C713.268 78.0309 713.363 78.1859 713.491 78.3135C713.614 78.4456 713.762 78.5482 713.935 78.6211C714.108 78.694 714.302 78.7305 714.516 78.7305C714.73 78.7305 714.924 78.694 715.097 78.6211C715.27 78.5482 715.419 78.4456 715.542 78.3135C715.665 78.1859 715.76 78.0309 715.829 77.8486C715.897 77.6618 715.931 77.4567 715.931 77.2334Z" fill="#30C9B0"/>
<defs>
<clipPath id="clip0_2462_35471">
<rect width="36" height="20" fill="white" transform="translate(546.183 115.75)"/>
</clipPath>
<clipPath id="clip1_2462_35471">
<rect width="36" height="20" fill="white" transform="translate(642.183 115.75)"/>
</clipPath>
<clipPath id="clip2_2462_35471">
<rect width="36" height="20" fill="white" transform="translate(738.183 115.75)"/>
</clipPath>
<clipPath id="clip3_2462_35471">
<rect width="12" height="15" fill="white" transform="translate(526.098 101)"/>
</clipPath>
<clipPath id="clip4_2462_35471">
<rect width="12" height="12" fill="white" transform="translate(526.098 120)"/>
</clipPath>
<clipPath id="clip5_2462_35471">
<rect width="160" height="15" fill="white" transform="translate(540.726 138)"/>
</clipPath>
<clipPath id="clip6_2462_35471">
<rect width="7.78753" height="20" fill="white" transform="translate(730.342 110.5)"/>
</clipPath>
<clipPath id="clip7_2462_35471">
<rect width="7.78753" height="15" fill="white" transform="translate(730.129 91.5)"/>
</clipPath>
<clipPath id="clip8_2462_35471">
<rect width="7.78753" height="20" fill="white" transform="translate(710.342 110.5)"/>
</clipPath>
<clipPath id="clip9_2462_35471">
<rect width="7.78753" height="15" fill="white" transform="translate(710.129 91.5)"/>
</clipPath>
</defs>
</svg>
