<svg width="426" height="240" viewBox="0 0 426 240" fill="none" xmlns="http://www.w3.org/2000/svg">
<rect x="32" width="362" height="240" rx="24" fill="#262626"/>
<path d="M5.27983 130H0.666193L7.69602 109.636H13.2443L20.2642 130H15.6506L10.5497 114.29H10.3906L5.27983 130ZM4.99148 121.996H15.8892V125.357H4.99148V121.996ZM27.5526 130.249C26.3925 130.249 25.3419 129.95 24.4006 129.354C23.4659 128.75 22.7235 127.866 22.1733 126.699C21.6297 125.526 21.358 124.087 21.358 122.384C21.358 120.634 21.6397 119.179 22.2031 118.018C22.7666 116.852 23.5156 115.98 24.4503 115.403C25.3916 114.82 26.4223 114.528 27.5426 114.528C28.3977 114.528 29.1103 114.674 29.6804 114.966C30.2571 115.251 30.7211 115.609 31.0724 116.04C31.4304 116.464 31.7022 116.882 31.8878 117.293H32.017V109.636H36.2429V130H32.0668V127.554H31.8878C31.6889 127.978 31.4072 128.399 31.0426 128.817C30.6847 129.228 30.2173 129.569 29.6406 129.841C29.0705 130.113 28.3745 130.249 27.5526 130.249ZM28.8949 126.878C29.5777 126.878 30.1544 126.692 30.625 126.321C31.1023 125.943 31.4669 125.416 31.7188 124.74C31.9773 124.064 32.1065 123.272 32.1065 122.364C32.1065 121.455 31.9806 120.667 31.7287 119.997C31.4768 119.328 31.1122 118.811 30.6349 118.446C30.1577 118.081 29.5777 117.899 28.8949 117.899C28.1989 117.899 27.6122 118.088 27.1349 118.466C26.6577 118.844 26.2964 119.367 26.0511 120.037C25.8059 120.706 25.6832 121.482 25.6832 122.364C25.6832 123.252 25.8059 124.037 26.0511 124.72C26.303 125.396 26.6643 125.927 27.1349 126.311C27.6122 126.689 28.1989 126.878 28.8949 126.878ZM45.3533 130.249C44.1933 130.249 43.1426 129.95 42.2013 129.354C41.2667 128.75 40.5243 127.866 39.9741 126.699C39.4305 125.526 39.1587 124.087 39.1587 122.384C39.1587 120.634 39.4405 119.179 40.0039 118.018C40.5674 116.852 41.3164 115.98 42.2511 115.403C43.1924 114.82 44.2231 114.528 45.3434 114.528C46.1985 114.528 46.9111 114.674 47.4812 114.966C48.0579 115.251 48.5219 115.609 48.8732 116.04C49.2312 116.464 49.503 116.882 49.6886 117.293H49.8178V109.636H54.0437V130H49.8675V127.554H49.6886C49.4897 127.978 49.208 128.399 48.8434 128.817C48.4854 129.228 48.0181 129.569 47.4414 129.841C46.8713 130.113 46.1753 130.249 45.3533 130.249ZM46.6957 126.878C47.3784 126.878 47.9551 126.692 48.4258 126.321C48.9031 125.943 49.2676 125.416 49.5195 124.74C49.7781 124.064 49.9073 123.272 49.9073 122.364C49.9073 121.455 49.7814 120.667 49.5295 119.997C49.2776 119.328 48.913 118.811 48.4357 118.446C47.9585 118.081 47.3784 117.899 46.6957 117.899C45.9996 117.899 45.413 118.088 44.9357 118.466C44.4585 118.844 44.0972 119.367 43.8519 120.037C43.6067 120.706 43.484 121.482 43.484 122.364C43.484 123.252 43.6067 124.037 43.8519 124.72C44.1038 125.396 44.4651 125.927 44.9357 126.311C45.413 126.689 45.9996 126.878 46.6957 126.878ZM70.967 130.298C69.396 130.298 68.0437 129.98 66.9102 129.344C65.7833 128.701 64.9149 127.793 64.305 126.619C63.6952 125.439 63.3903 124.044 63.3903 122.433C63.3903 120.862 63.6952 119.483 64.305 118.297C64.9149 117.11 65.7733 116.186 66.8803 115.523C67.994 114.86 69.2998 114.528 70.7979 114.528C71.8055 114.528 72.7435 114.691 73.6119 115.016C74.4869 115.334 75.2492 115.814 75.8988 116.457C76.555 117.1 77.0655 117.909 77.43 118.884C77.7946 119.851 77.9769 120.985 77.9769 122.284V123.447H65.0806V120.822H73.9897C73.9897 120.213 73.8571 119.672 73.592 119.202C73.3268 118.731 72.9589 118.363 72.4883 118.098C72.0243 117.826 71.484 117.69 70.8675 117.69C70.2246 117.69 69.6545 117.839 69.1573 118.138C68.6668 118.429 68.2823 118.824 68.0039 119.321C67.7255 119.812 67.583 120.358 67.5763 120.962V123.457C67.5763 124.213 67.7156 124.866 67.994 125.416C68.279 125.966 68.68 126.391 69.1971 126.689C69.7141 126.987 70.3273 127.136 71.0366 127.136C71.5072 127.136 71.9381 127.07 72.3292 126.938C72.7203 126.805 73.055 126.606 73.3335 126.341C73.6119 126.076 73.824 125.751 73.9698 125.366L77.8874 125.625C77.6886 126.566 77.2809 127.388 76.6644 128.091C76.0546 128.787 75.2657 129.33 74.2979 129.722C73.3368 130.106 72.2264 130.298 70.967 130.298ZM84.0075 114.727L86.8114 120.067L89.685 114.727H94.0302L89.6055 122.364L94.1495 130H89.8242L86.8114 124.72L83.8484 130H79.4734L84.0075 122.364L79.6325 114.727H84.0075ZM100.819 130.288C99.8445 130.288 98.9761 130.119 98.2138 129.781C97.4515 129.437 96.8482 128.929 96.4041 128.26C95.9666 127.584 95.7479 126.742 95.7479 125.734C95.7479 124.886 95.9036 124.173 96.2152 123.597C96.5268 123.02 96.951 122.556 97.4879 122.205C98.0249 121.853 98.6347 121.588 99.3175 121.409C100.007 121.23 100.729 121.104 101.485 121.031C102.373 120.938 103.089 120.852 103.633 120.773C104.176 120.687 104.571 120.561 104.816 120.395C105.061 120.229 105.184 119.984 105.184 119.659V119.599C105.184 118.97 104.985 118.482 104.587 118.138C104.196 117.793 103.639 117.621 102.917 117.621C102.155 117.621 101.548 117.79 101.097 118.128C100.647 118.459 100.348 118.877 100.202 119.381L96.2848 119.062C96.4837 118.134 96.8748 117.332 97.4581 116.656C98.0414 115.973 98.7938 115.45 99.7152 115.085C100.643 114.714 101.717 114.528 102.937 114.528C103.785 114.528 104.597 114.628 105.373 114.827C106.155 115.026 106.848 115.334 107.451 115.751C108.061 116.169 108.541 116.706 108.893 117.362C109.244 118.012 109.42 118.791 109.42 119.699V130H105.403V127.882H105.283C105.038 128.359 104.71 128.78 104.299 129.145C103.888 129.503 103.394 129.785 102.817 129.99C102.241 130.189 101.575 130.288 100.819 130.288ZM102.032 127.365C102.655 127.365 103.205 127.242 103.683 126.997C104.16 126.745 104.534 126.407 104.806 125.983C105.078 125.559 105.214 125.078 105.214 124.541V122.92C105.081 123.007 104.899 123.086 104.667 123.159C104.442 123.225 104.186 123.288 103.901 123.348C103.616 123.401 103.331 123.451 103.046 123.497C102.761 123.537 102.503 123.573 102.271 123.607C101.773 123.679 101.339 123.795 100.968 123.955C100.597 124.114 100.308 124.329 100.103 124.601C99.8975 124.866 99.7947 125.197 99.7947 125.595C99.7947 126.172 100.004 126.613 100.421 126.918C100.845 127.216 101.382 127.365 102.032 127.365ZM112.706 130V114.727H116.743V117.422H116.922C117.24 116.527 117.77 115.821 118.513 115.304C119.255 114.787 120.143 114.528 121.178 114.528C122.225 114.528 123.116 114.79 123.852 115.314C124.588 115.831 125.079 116.534 125.324 117.422H125.483C125.795 116.547 126.358 115.848 127.173 115.324C127.995 114.794 128.966 114.528 130.087 114.528C131.512 114.528 132.669 114.982 133.557 115.891C134.452 116.792 134.899 118.071 134.899 119.729V130H130.673V120.564C130.673 119.715 130.448 119.079 129.997 118.655C129.546 118.231 128.983 118.018 128.307 118.018C127.538 118.018 126.938 118.264 126.507 118.754C126.076 119.238 125.861 119.878 125.861 120.673V130H121.754V120.474C121.754 119.725 121.539 119.129 121.108 118.685C120.684 118.241 120.124 118.018 119.428 118.018C118.957 118.018 118.533 118.138 118.155 118.376C117.784 118.608 117.489 118.937 117.27 119.361C117.051 119.778 116.942 120.269 116.942 120.832V130H112.706ZM138.245 135.727V114.727H142.421V117.293H142.61C142.796 116.882 143.064 116.464 143.415 116.04C143.773 115.609 144.237 115.251 144.808 114.966C145.384 114.674 146.1 114.528 146.955 114.528C148.069 114.528 149.096 114.82 150.038 115.403C150.979 115.98 151.731 116.852 152.295 118.018C152.858 119.179 153.14 120.634 153.14 122.384C153.14 124.087 152.865 125.526 152.315 126.699C151.771 127.866 151.029 128.75 150.087 129.354C149.153 129.95 148.105 130.249 146.945 130.249C146.123 130.249 145.424 130.113 144.847 129.841C144.277 129.569 143.81 129.228 143.445 128.817C143.081 128.399 142.802 127.978 142.61 127.554H142.481V135.727H138.245ZM142.391 122.364C142.391 123.272 142.517 124.064 142.769 124.74C143.021 125.416 143.386 125.943 143.863 126.321C144.34 126.692 144.92 126.878 145.603 126.878C146.292 126.878 146.876 126.689 147.353 126.311C147.83 125.927 148.192 125.396 148.437 124.72C148.689 124.037 148.815 123.252 148.815 122.364C148.815 121.482 148.692 120.706 148.447 120.037C148.201 119.367 147.84 118.844 147.363 118.466C146.886 118.088 146.299 117.899 145.603 117.899C144.914 117.899 144.33 118.081 143.853 118.446C143.382 118.811 143.021 119.328 142.769 119.997C142.517 120.667 142.391 121.455 142.391 122.364ZM160.2 109.636V130H155.964V109.636H160.2ZM170.553 130.298C168.982 130.298 167.63 129.98 166.496 129.344C165.369 128.701 164.501 127.793 163.891 126.619C163.281 125.439 162.976 124.044 162.976 122.433C162.976 120.862 163.281 119.483 163.891 118.297C164.501 117.11 165.359 116.186 166.466 115.523C167.58 114.86 168.886 114.528 170.384 114.528C171.391 114.528 172.329 114.691 173.198 115.016C174.073 115.334 174.835 115.814 175.485 116.457C176.141 117.1 176.651 117.909 177.016 118.884C177.381 119.851 177.563 120.985 177.563 122.284V123.447H164.667V120.822H173.576C173.576 120.213 173.443 119.672 173.178 119.202C172.913 118.731 172.545 118.363 172.074 118.098C171.61 117.826 171.07 117.69 170.453 117.69C169.81 117.69 169.24 117.839 168.743 118.138C168.253 118.429 167.868 118.824 167.59 119.321C167.311 119.812 167.169 120.358 167.162 120.962V123.457C167.162 124.213 167.301 124.866 167.58 125.416C167.865 125.966 168.266 126.391 168.783 126.689C169.3 126.987 169.913 127.136 170.623 127.136C171.093 127.136 171.524 127.07 171.915 126.938C172.306 126.805 172.641 126.606 172.919 126.341C173.198 126.076 173.41 125.751 173.556 125.366L177.473 125.625C177.275 126.566 176.867 127.388 176.25 128.091C175.641 128.787 174.852 129.33 173.884 129.722C172.923 130.106 171.812 130.298 170.553 130.298ZM193.034 119.082L189.157 119.321C189.09 118.99 188.948 118.691 188.729 118.426C188.51 118.154 188.222 117.939 187.864 117.78C187.513 117.614 187.092 117.531 186.601 117.531C185.945 117.531 185.391 117.67 184.941 117.949C184.49 118.221 184.265 118.585 184.265 119.043C184.265 119.407 184.41 119.715 184.702 119.967C184.994 120.219 185.494 120.421 186.203 120.574L188.968 121.131C190.453 121.436 191.56 121.926 192.289 122.602C193.018 123.278 193.382 124.167 193.382 125.267C193.382 126.268 193.087 127.146 192.498 127.902C191.914 128.658 191.112 129.248 190.091 129.672C189.077 130.089 187.907 130.298 186.581 130.298C184.56 130.298 182.949 129.877 181.749 129.036C180.556 128.187 179.856 127.034 179.651 125.575L183.817 125.357C183.943 125.973 184.248 126.444 184.732 126.768C185.216 127.087 185.836 127.246 186.591 127.246C187.334 127.246 187.93 127.103 188.381 126.818C188.838 126.527 189.07 126.152 189.077 125.695C189.07 125.31 188.908 124.995 188.59 124.75C188.272 124.498 187.781 124.306 187.118 124.173L184.473 123.646C182.982 123.348 181.872 122.831 181.142 122.095C180.42 121.359 180.059 120.421 180.059 119.281C180.059 118.3 180.324 117.455 180.854 116.746C181.391 116.036 182.143 115.49 183.111 115.105C184.086 114.721 185.226 114.528 186.532 114.528C188.461 114.528 189.979 114.936 191.086 115.751C192.199 116.567 192.849 117.677 193.034 119.082ZM209.431 130.298C207.866 130.298 206.521 129.967 205.394 129.304C204.274 128.634 203.412 127.706 202.809 126.52C202.212 125.333 201.914 123.968 201.914 122.423C201.914 120.859 202.215 119.487 202.819 118.307C203.428 117.12 204.293 116.196 205.414 115.533C206.534 114.863 207.866 114.528 209.411 114.528C210.743 114.528 211.91 114.77 212.911 115.254C213.912 115.738 214.704 116.418 215.287 117.293C215.871 118.168 216.192 119.195 216.252 120.375H212.255C212.142 119.613 211.844 119 211.36 118.536C210.882 118.065 210.256 117.83 209.48 117.83C208.824 117.83 208.251 118.009 207.76 118.366C207.276 118.718 206.899 119.232 206.627 119.908C206.355 120.584 206.219 121.402 206.219 122.364C206.219 123.338 206.352 124.167 206.617 124.849C206.889 125.532 207.27 126.053 207.76 126.411C208.251 126.768 208.824 126.947 209.48 126.947C209.964 126.947 210.399 126.848 210.783 126.649C211.174 126.45 211.496 126.162 211.748 125.784C212.006 125.4 212.175 124.939 212.255 124.402H216.252C216.185 125.569 215.867 126.596 215.297 127.484C214.734 128.366 213.955 129.055 212.961 129.553C211.966 130.05 210.79 130.298 209.431 130.298ZM225.864 130.298C224.32 130.298 222.984 129.97 221.857 129.314C220.737 128.651 219.872 127.73 219.262 126.55C218.652 125.363 218.347 123.988 218.347 122.423C218.347 120.846 218.652 119.467 219.262 118.287C219.872 117.1 220.737 116.179 221.857 115.523C222.984 114.86 224.32 114.528 225.864 114.528C227.409 114.528 228.741 114.86 229.862 115.523C230.988 116.179 231.857 117.1 232.467 118.287C233.076 119.467 233.381 120.846 233.381 122.423C233.381 123.988 233.076 125.363 232.467 126.55C231.857 127.73 230.988 128.651 229.862 129.314C228.741 129.97 227.409 130.298 225.864 130.298ZM225.884 127.017C226.587 127.017 227.174 126.818 227.644 126.42C228.115 126.016 228.469 125.466 228.708 124.77C228.953 124.074 229.076 123.282 229.076 122.393C229.076 121.505 228.953 120.713 228.708 120.017C228.469 119.321 228.115 118.771 227.644 118.366C227.174 117.962 226.587 117.76 225.884 117.76C225.175 117.76 224.578 117.962 224.094 118.366C223.617 118.771 223.256 119.321 223.011 120.017C222.772 120.713 222.653 121.505 222.653 122.393C222.653 123.282 222.772 124.074 223.011 124.77C223.256 125.466 223.617 126.016 224.094 126.42C224.578 126.818 225.175 127.017 225.884 127.017ZM236.136 130V114.727H240.173V117.422H240.352C240.67 116.527 241.2 115.821 241.942 115.304C242.685 114.787 243.573 114.528 244.607 114.528C245.655 114.528 246.546 114.79 247.282 115.314C248.018 115.831 248.508 116.534 248.754 117.422H248.913C249.224 116.547 249.788 115.848 250.603 115.324C251.425 114.794 252.396 114.528 253.516 114.528C254.942 114.528 256.098 114.982 256.987 115.891C257.881 116.792 258.329 118.071 258.329 119.729V130H254.103V120.564C254.103 119.715 253.878 119.079 253.427 118.655C252.976 118.231 252.413 118.018 251.737 118.018C250.968 118.018 250.368 118.264 249.937 118.754C249.506 119.238 249.29 119.878 249.29 120.673V130H245.184V120.474C245.184 119.725 244.969 119.129 244.538 118.685C244.113 118.241 243.553 118.018 242.857 118.018C242.387 118.018 241.962 118.138 241.585 118.376C241.213 118.608 240.918 118.937 240.7 119.361C240.481 119.778 240.371 120.269 240.371 120.832V130H236.136ZM261.675 135.727V114.727H265.851V117.293H266.04C266.225 116.882 266.494 116.464 266.845 116.04C267.203 115.609 267.667 115.251 268.237 114.966C268.814 114.674 269.53 114.528 270.385 114.528C271.499 114.528 272.526 114.82 273.467 115.403C274.409 115.98 275.161 116.852 275.724 118.018C276.288 119.179 276.57 120.634 276.57 122.384C276.57 124.087 276.295 125.526 275.744 126.699C275.201 127.866 274.458 128.75 273.517 129.354C272.582 129.95 271.535 130.249 270.375 130.249C269.553 130.249 268.854 130.113 268.277 129.841C267.707 129.569 267.24 129.228 266.875 128.817C266.51 128.399 266.232 127.978 266.04 127.554H265.911V135.727H261.675ZM265.821 122.364C265.821 123.272 265.947 124.064 266.199 124.74C266.451 125.416 266.815 125.943 267.293 126.321C267.77 126.692 268.35 126.878 269.033 126.878C269.722 126.878 270.305 126.689 270.783 126.311C271.26 125.927 271.621 125.396 271.866 124.72C272.118 124.037 272.244 123.252 272.244 122.364C272.244 121.482 272.122 120.706 271.876 120.037C271.631 119.367 271.27 118.844 270.793 118.466C270.315 118.088 269.729 117.899 269.033 117.899C268.343 117.899 267.76 118.081 267.283 118.446C266.812 118.811 266.451 119.328 266.199 119.997C265.947 120.667 265.821 121.455 265.821 122.364ZM286.294 130.298C284.75 130.298 283.414 129.97 282.287 129.314C281.167 128.651 280.302 127.73 279.692 126.55C279.082 125.363 278.777 123.988 278.777 122.423C278.777 120.846 279.082 119.467 279.692 118.287C280.302 117.1 281.167 116.179 282.287 115.523C283.414 114.86 284.75 114.528 286.294 114.528C287.839 114.528 289.171 114.86 290.291 115.523C291.418 116.179 292.286 117.1 292.896 118.287C293.506 119.467 293.811 120.846 293.811 122.423C293.811 123.988 293.506 125.363 292.896 126.55C292.286 127.73 291.418 128.651 290.291 129.314C289.171 129.97 287.839 130.298 286.294 130.298ZM286.314 127.017C287.017 127.017 287.603 126.818 288.074 126.42C288.545 126.016 288.899 125.466 289.138 124.77C289.383 124.074 289.506 123.282 289.506 122.393C289.506 121.505 289.383 120.713 289.138 120.017C288.899 119.321 288.545 118.771 288.074 118.366C287.603 117.962 287.017 117.76 286.314 117.76C285.605 117.76 285.008 117.962 284.524 118.366C284.047 118.771 283.686 119.321 283.44 120.017C283.202 120.713 283.082 121.505 283.082 122.393C283.082 123.282 283.202 124.074 283.44 124.77C283.686 125.466 284.047 126.016 284.524 126.42C285.008 126.818 285.605 127.017 286.314 127.017ZM300.801 121.17V130H296.565V114.727H300.602V117.422H300.781C301.119 116.534 301.686 115.831 302.482 115.314C303.277 114.79 304.241 114.528 305.375 114.528C306.436 114.528 307.36 114.76 308.149 115.224C308.938 115.688 309.551 116.351 309.989 117.213C310.426 118.068 310.645 119.089 310.645 120.276V130H306.409V121.031C306.416 120.097 306.177 119.367 305.693 118.844C305.209 118.313 304.543 118.048 303.695 118.048C303.125 118.048 302.621 118.171 302.183 118.416C301.752 118.661 301.414 119.019 301.169 119.49C300.93 119.954 300.808 120.514 300.801 121.17ZM320.944 130.298C319.373 130.298 318.02 129.98 316.887 129.344C315.76 128.701 314.891 127.793 314.282 126.619C313.672 125.439 313.367 124.044 313.367 122.433C313.367 120.862 313.672 119.483 314.282 118.297C314.891 117.11 315.75 116.186 316.857 115.523C317.971 114.86 319.276 114.528 320.775 114.528C321.782 114.528 322.72 114.691 323.588 115.016C324.463 115.334 325.226 115.814 325.875 116.457C326.532 117.1 327.042 117.909 327.407 118.884C327.771 119.851 327.953 120.985 327.953 122.284V123.447H315.057V120.822H323.966C323.966 120.213 323.834 119.672 323.569 119.202C323.303 118.731 322.935 118.363 322.465 118.098C322.001 117.826 321.461 117.69 320.844 117.69C320.201 117.69 319.631 117.839 319.134 118.138C318.643 118.429 318.259 118.824 317.98 119.321C317.702 119.812 317.56 120.358 317.553 120.962V123.457C317.553 124.213 317.692 124.866 317.971 125.416C318.256 125.966 318.657 126.391 319.174 126.689C319.691 126.987 320.304 127.136 321.013 127.136C321.484 127.136 321.915 127.07 322.306 126.938C322.697 126.805 323.032 126.606 323.31 126.341C323.588 126.076 323.801 125.751 323.946 125.366L327.864 125.625C327.665 126.566 327.257 127.388 326.641 128.091C326.031 128.787 325.242 129.33 324.275 129.722C323.313 130.106 322.203 130.298 320.944 130.298ZM334.953 121.17V130H330.718V114.727H334.755V117.422H334.934C335.272 116.534 335.838 115.831 336.634 115.314C337.429 114.79 338.394 114.528 339.527 114.528C340.588 114.528 341.513 114.76 342.301 115.224C343.09 115.688 343.703 116.351 344.141 117.213C344.578 118.068 344.797 119.089 344.797 120.276V130H340.561V121.031C340.568 120.097 340.329 119.367 339.846 118.844C339.362 118.313 338.695 118.048 337.847 118.048C337.277 118.048 336.773 118.171 336.336 118.416C335.905 118.661 335.567 119.019 335.321 119.49C335.083 119.954 334.96 120.514 334.953 121.17ZM356.259 114.727V117.909H347.062V114.727H356.259ZM349.15 111.068H353.386V125.307C353.386 125.698 353.445 126.003 353.565 126.222C353.684 126.434 353.85 126.583 354.062 126.669C354.281 126.755 354.532 126.798 354.817 126.798C355.016 126.798 355.215 126.782 355.414 126.749C355.613 126.709 355.765 126.679 355.871 126.659L356.538 129.811C356.326 129.877 356.027 129.954 355.643 130.04C355.258 130.133 354.791 130.189 354.241 130.209C353.22 130.249 352.325 130.113 351.556 129.801C350.794 129.49 350.201 129.006 349.776 128.349C349.352 127.693 349.143 126.865 349.15 125.864V111.068ZM369.735 121.17V130H365.499V109.636H369.615V117.422H369.794C370.139 116.52 370.696 115.814 371.465 115.304C372.234 114.787 373.198 114.528 374.358 114.528C375.419 114.528 376.344 114.76 377.132 115.224C377.928 115.682 378.544 116.341 378.982 117.203C379.426 118.058 379.645 119.082 379.638 120.276V130H375.402V121.031C375.409 120.09 375.17 119.357 374.686 118.834C374.209 118.31 373.54 118.048 372.678 118.048C372.101 118.048 371.591 118.171 371.147 118.416C370.709 118.661 370.364 119.019 370.113 119.49C369.867 119.954 369.741 120.514 369.735 121.17ZM389.932 130.298C388.361 130.298 387.009 129.98 385.875 129.344C384.748 128.701 383.88 127.793 383.27 126.619C382.66 125.439 382.355 124.044 382.355 122.433C382.355 120.862 382.66 119.483 383.27 118.297C383.88 117.11 384.738 116.186 385.845 115.523C386.959 114.86 388.265 114.528 389.763 114.528C390.77 114.528 391.708 114.691 392.577 115.016C393.452 115.334 394.214 115.814 394.864 116.457C395.52 117.1 396.03 117.909 396.395 118.884C396.759 119.851 396.942 120.985 396.942 122.284V123.447H384.045V120.822H392.955C392.955 120.213 392.822 119.672 392.557 119.202C392.292 118.731 391.924 118.363 391.453 118.098C390.989 117.826 390.449 117.69 389.832 117.69C389.189 117.69 388.619 117.839 388.122 118.138C387.632 118.429 387.247 118.824 386.969 119.321C386.69 119.812 386.548 120.358 386.541 120.962V123.457C386.541 124.213 386.68 124.866 386.959 125.416C387.244 125.966 387.645 126.391 388.162 126.689C388.679 126.987 389.292 127.136 390.001 127.136C390.472 127.136 390.903 127.07 391.294 126.938C391.685 126.805 392.02 126.606 392.298 126.341C392.577 126.076 392.789 125.751 392.935 125.366L396.852 125.625C396.653 126.566 396.246 127.388 395.629 128.091C395.019 128.787 394.231 129.33 393.263 129.722C392.302 130.106 391.191 130.298 389.932 130.298ZM399.706 130V114.727H403.812V117.392H403.972C404.25 116.444 404.717 115.728 405.374 115.244C406.03 114.754 406.786 114.509 407.641 114.509C407.853 114.509 408.081 114.522 408.327 114.548C408.572 114.575 408.787 114.611 408.973 114.658V118.416C408.774 118.357 408.499 118.304 408.148 118.257C407.796 118.211 407.475 118.188 407.183 118.188C406.56 118.188 406.003 118.323 405.513 118.595C405.029 118.86 404.644 119.232 404.359 119.709C404.081 120.186 403.942 120.736 403.942 121.359V130H399.706ZM417.412 130.298C415.841 130.298 414.489 129.98 413.355 129.344C412.229 128.701 411.36 127.793 410.75 126.619C410.141 125.439 409.836 124.044 409.836 122.433C409.836 120.862 410.141 119.483 410.75 118.297C411.36 117.11 412.219 116.186 413.326 115.523C414.439 114.86 415.745 114.528 417.243 114.528C418.251 114.528 419.189 114.691 420.057 115.016C420.932 115.334 421.694 115.814 422.344 116.457C423 117.1 423.511 117.909 423.875 118.884C424.24 119.851 424.422 120.985 424.422 122.284V123.447H411.526V120.822H420.435C420.435 120.213 420.302 119.672 420.037 119.202C419.772 118.731 419.404 118.363 418.934 118.098C418.47 117.826 417.929 117.69 417.313 117.69C416.67 117.69 416.1 117.839 415.603 118.138C415.112 118.429 414.728 118.824 414.449 119.321C414.171 119.812 414.028 120.358 414.022 120.962V123.457C414.022 124.213 414.161 124.866 414.439 125.416C414.724 125.966 415.125 126.391 415.642 126.689C416.159 126.987 416.773 127.136 417.482 127.136C417.953 127.136 418.383 127.07 418.775 126.938C419.166 126.805 419.5 126.606 419.779 126.341C420.057 126.076 420.269 125.751 420.415 125.366L424.333 125.625C424.134 126.566 423.726 127.388 423.11 128.091C422.5 128.787 421.711 129.33 420.743 129.722C419.782 130.106 418.672 130.298 417.412 130.298Z" fill="white" fill-opacity="0.95"/>
</svg>
