<svg width="1150" height="240" viewBox="0 0 1150 240" fill="none" xmlns="http://www.w3.org/2000/svg">
<rect width="1150" height="240" rx="24" fill="#262626"/>
<path d="M460.183 125.75C460.183 129.616 457.049 132.75 453.183 132.75C449.317 132.75 446.183 129.616 446.183 125.75C446.183 121.884 449.317 118.75 453.183 118.75C457.049 118.75 460.183 121.884 460.183 125.75Z" stroke="#64B4FA" stroke-width="2"/>
<g clip-path="url(#clip0_2462_35471)">
<path d="M470.451 130.75V120.568H471.684V129.656H476.417V130.75H470.451ZM480.414 130.929C479.93 130.929 479.491 130.838 479.096 130.656C478.702 130.47 478.389 130.203 478.157 129.855C477.925 129.504 477.809 129.08 477.809 128.583C477.809 128.145 477.895 127.79 478.067 127.519C478.24 127.243 478.47 127.028 478.758 126.872C479.047 126.717 479.365 126.601 479.713 126.524C480.064 126.445 480.417 126.382 480.772 126.335C481.236 126.276 481.612 126.231 481.9 126.201C482.192 126.168 482.404 126.113 482.537 126.037C482.673 125.961 482.741 125.828 482.741 125.639V125.6C482.741 125.109 482.606 124.728 482.338 124.456C482.073 124.184 481.67 124.048 481.13 124.048C480.57 124.048 480.13 124.171 479.812 124.416C479.494 124.662 479.27 124.923 479.141 125.202L478.027 124.804C478.226 124.34 478.491 123.979 478.823 123.72C479.158 123.458 479.522 123.276 479.917 123.173C480.314 123.067 480.705 123.014 481.09 123.014C481.335 123.014 481.617 123.044 481.935 123.104C482.257 123.16 482.566 123.278 482.865 123.457C483.166 123.636 483.417 123.906 483.616 124.267C483.814 124.628 483.914 125.112 483.914 125.719V130.75H482.741V129.716H482.681C482.601 129.882 482.469 130.059 482.283 130.248C482.098 130.437 481.851 130.598 481.542 130.73C481.234 130.863 480.858 130.929 480.414 130.929ZM480.593 129.875C481.057 129.875 481.448 129.784 481.766 129.602C482.088 129.419 482.33 129.184 482.492 128.896C482.658 128.607 482.741 128.304 482.741 127.986V126.912C482.691 126.972 482.581 127.026 482.412 127.076C482.247 127.123 482.054 127.164 481.836 127.2C481.62 127.234 481.41 127.263 481.204 127.29C481.002 127.313 480.838 127.333 480.712 127.35C480.407 127.389 480.122 127.454 479.857 127.543C479.595 127.63 479.383 127.761 479.221 127.936C479.062 128.109 478.982 128.344 478.982 128.642C478.982 129.05 479.133 129.358 479.434 129.567C479.739 129.772 480.125 129.875 480.593 129.875ZM486.214 130.75V120.568H487.388V124.327H487.487C487.573 124.194 487.693 124.025 487.845 123.82C488.001 123.611 488.223 123.425 488.511 123.263C488.803 123.097 489.197 123.014 489.695 123.014C490.338 123.014 490.904 123.175 491.395 123.497C491.885 123.818 492.268 124.274 492.543 124.864C492.818 125.454 492.956 126.15 492.956 126.952C492.956 127.761 492.818 128.462 492.543 129.055C492.268 129.645 491.887 130.102 491.4 130.427C490.913 130.748 490.351 130.909 489.714 130.909C489.224 130.909 488.831 130.828 488.536 130.666C488.241 130.5 488.014 130.313 487.855 130.104C487.696 129.892 487.573 129.716 487.487 129.577H487.348V130.75H486.214ZM487.368 126.932C487.368 127.509 487.452 128.017 487.621 128.458C487.79 128.896 488.037 129.239 488.362 129.487C488.687 129.733 489.085 129.855 489.555 129.855C490.046 129.855 490.455 129.726 490.783 129.467C491.115 129.206 491.363 128.854 491.529 128.413C491.698 127.969 491.783 127.476 491.783 126.932C491.783 126.395 491.7 125.911 491.534 125.48C491.372 125.046 491.125 124.703 490.793 124.451C490.465 124.196 490.052 124.068 489.555 124.068C489.078 124.068 488.677 124.189 488.352 124.431C488.027 124.67 487.782 125.005 487.616 125.435C487.451 125.863 487.368 126.362 487.368 126.932ZM497.952 130.909C497.217 130.909 496.582 130.747 496.048 130.422C495.518 130.094 495.109 129.636 494.82 129.05C494.535 128.46 494.393 127.774 494.393 126.992C494.393 126.209 494.535 125.52 494.82 124.923C495.109 124.324 495.51 123.856 496.023 123.521C496.54 123.183 497.144 123.014 497.833 123.014C498.231 123.014 498.623 123.081 499.011 123.213C499.399 123.346 499.752 123.561 500.07 123.859C500.388 124.154 500.642 124.546 500.831 125.033C501.02 125.52 501.114 126.12 501.114 126.833V127.33H495.228V126.315H499.921C499.921 125.885 499.835 125.5 499.663 125.162C499.494 124.824 499.252 124.557 498.937 124.362C498.625 124.166 498.257 124.068 497.833 124.068C497.366 124.068 496.961 124.184 496.62 124.416C496.282 124.645 496.022 124.943 495.839 125.311C495.657 125.679 495.566 126.074 495.566 126.494V127.171C495.566 127.747 495.665 128.236 495.864 128.637C496.066 129.035 496.347 129.338 496.704 129.547C497.062 129.752 497.478 129.855 497.952 129.855C498.261 129.855 498.539 129.812 498.788 129.726C499.039 129.636 499.257 129.504 499.439 129.328C499.621 129.149 499.762 128.927 499.861 128.662L500.995 128.98C500.876 129.365 500.675 129.703 500.393 129.994C500.112 130.283 499.764 130.508 499.349 130.671C498.935 130.83 498.469 130.909 497.952 130.909ZM504.072 120.568V130.75H502.899V120.568H504.072Z" fill="white" fill-opacity="0.7"/>
</g>
<rect x="513.183" y="124.75" width="24" height="2" fill="#8F8F8F"/>
<path d="M560.183 125.75C560.183 129.616 557.049 132.75 553.183 132.75C549.317 132.75 546.183 129.616 546.183 125.75C546.183 121.884 549.317 118.75 553.183 118.75C557.049 118.75 560.183 121.884 560.183 125.75Z" stroke="#64B4FA" stroke-width="2"/>
<g clip-path="url(#clip1_2462_35471)">
<path d="M570.451 130.75V120.568H571.684V129.656H576.417V130.75H570.451ZM580.414 130.929C579.93 130.929 579.491 130.838 579.096 130.656C578.702 130.47 578.389 130.203 578.157 129.855C577.925 129.504 577.809 129.08 577.809 128.583C577.809 128.145 577.895 127.79 578.067 127.519C578.24 127.243 578.47 127.028 578.758 126.872C579.047 126.717 579.365 126.601 579.713 126.524C580.064 126.445 580.417 126.382 580.772 126.335C581.236 126.276 581.612 126.231 581.9 126.201C582.192 126.168 582.404 126.113 582.537 126.037C582.673 125.961 582.741 125.828 582.741 125.639V125.6C582.741 125.109 582.606 124.728 582.338 124.456C582.073 124.184 581.67 124.048 581.13 124.048C580.57 124.048 580.13 124.171 579.812 124.416C579.494 124.662 579.27 124.923 579.141 125.202L578.027 124.804C578.226 124.34 578.491 123.979 578.823 123.72C579.158 123.458 579.522 123.276 579.917 123.173C580.314 123.067 580.705 123.014 581.09 123.014C581.335 123.014 581.617 123.044 581.935 123.104C582.257 123.16 582.566 123.278 582.865 123.457C583.166 123.636 583.417 123.906 583.616 124.267C583.814 124.628 583.914 125.112 583.914 125.719V130.75H582.741V129.716H582.681C582.601 129.882 582.469 130.059 582.283 130.248C582.098 130.437 581.851 130.598 581.542 130.73C581.234 130.863 580.858 130.929 580.414 130.929ZM580.593 129.875C581.057 129.875 581.448 129.784 581.766 129.602C582.088 129.419 582.33 129.184 582.492 128.896C582.658 128.607 582.741 128.304 582.741 127.986V126.912C582.691 126.972 582.581 127.026 582.412 127.076C582.247 127.123 582.054 127.164 581.836 127.2C581.62 127.234 581.41 127.263 581.204 127.29C581.002 127.313 580.838 127.333 580.712 127.35C580.407 127.389 580.122 127.454 579.857 127.543C579.595 127.63 579.383 127.761 579.221 127.936C579.062 128.109 578.982 128.344 578.982 128.642C578.982 129.05 579.133 129.358 579.434 129.567C579.739 129.772 580.125 129.875 580.593 129.875ZM586.214 130.75V120.568H587.388V124.327H587.487C587.573 124.194 587.693 124.025 587.845 123.82C588.001 123.611 588.223 123.425 588.511 123.263C588.803 123.097 589.197 123.014 589.695 123.014C590.338 123.014 590.904 123.175 591.395 123.497C591.885 123.818 592.268 124.274 592.543 124.864C592.818 125.454 592.956 126.15 592.956 126.952C592.956 127.761 592.818 128.462 592.543 129.055C592.268 129.645 591.887 130.102 591.4 130.427C590.913 130.748 590.351 130.909 589.714 130.909C589.224 130.909 588.831 130.828 588.536 130.666C588.241 130.5 588.014 130.313 587.855 130.104C587.696 129.892 587.573 129.716 587.487 129.577H587.348V130.75H586.214ZM587.368 126.932C587.368 127.509 587.452 128.017 587.621 128.458C587.79 128.896 588.037 129.239 588.362 129.487C588.687 129.733 589.085 129.855 589.555 129.855C590.046 129.855 590.455 129.726 590.783 129.467C591.115 129.206 591.363 128.854 591.529 128.413C591.698 127.969 591.783 127.476 591.783 126.932C591.783 126.395 591.7 125.911 591.534 125.48C591.372 125.046 591.125 124.703 590.793 124.451C590.465 124.196 590.052 124.068 589.555 124.068C589.078 124.068 588.677 124.189 588.352 124.431C588.027 124.67 587.782 125.005 587.616 125.435C587.451 125.863 587.368 126.362 587.368 126.932ZM597.952 130.909C597.217 130.909 596.582 130.747 596.048 130.422C595.518 130.094 595.109 129.636 594.82 129.05C594.535 128.46 594.393 127.774 594.393 126.992C594.393 126.209 594.535 125.52 594.82 124.923C595.109 124.324 595.51 123.856 596.023 123.521C596.54 123.183 597.144 123.014 597.833 123.014C598.231 123.014 598.623 123.081 599.011 123.213C599.399 123.346 599.752 123.561 600.07 123.859C600.388 124.154 600.642 124.546 600.831 125.033C601.02 125.52 601.114 126.12 601.114 126.833V127.33H595.228V126.315H599.921C599.921 125.885 599.835 125.5 599.663 125.162C599.494 124.824 599.252 124.557 598.937 124.362C598.625 124.166 598.257 124.068 597.833 124.068C597.366 124.068 596.961 124.184 596.62 124.416C596.282 124.645 596.022 124.943 595.839 125.311C595.657 125.679 595.566 126.074 595.566 126.494V127.171C595.566 127.747 595.665 128.236 595.864 128.637C596.066 129.035 596.347 129.338 596.704 129.547C597.062 129.752 597.478 129.855 597.952 129.855C598.261 129.855 598.539 129.812 598.788 129.726C599.039 129.636 599.257 129.504 599.439 129.328C599.621 129.149 599.762 128.927 599.861 128.662L600.995 128.98C600.876 129.365 600.675 129.703 600.393 129.994C600.112 130.283 599.764 130.508 599.349 130.671C598.935 130.83 598.469 130.909 597.952 130.909ZM604.072 120.568V130.75H602.899V120.568H604.072Z" fill="white" fill-opacity="0.7"/>
</g>
<rect x="613.183" y="124.75" width="24" height="2" fill="#8F8F8F"/>
<path d="M660.183 125.75C660.183 129.616 657.049 132.75 653.183 132.75C649.317 132.75 646.183 129.616 646.183 125.75C646.183 121.884 649.317 118.75 653.183 118.75C657.049 118.75 660.183 121.884 660.183 125.75Z" stroke="#64B4FA" stroke-width="2"/>
<g clip-path="url(#clip2_2462_35471)">
<path d="M670.451 130.75V120.568H671.684V129.656H676.417V130.75H670.451ZM680.414 130.929C679.93 130.929 679.491 130.838 679.096 130.656C678.702 130.47 678.389 130.203 678.157 129.855C677.925 129.504 677.809 129.08 677.809 128.583C677.809 128.145 677.895 127.79 678.067 127.519C678.24 127.243 678.47 127.028 678.758 126.872C679.047 126.717 679.365 126.601 679.713 126.524C680.064 126.445 680.417 126.382 680.772 126.335C681.236 126.276 681.612 126.231 681.9 126.201C682.192 126.168 682.404 126.113 682.537 126.037C682.673 125.961 682.741 125.828 682.741 125.639V125.6C682.741 125.109 682.606 124.728 682.338 124.456C682.073 124.184 681.67 124.048 681.13 124.048C680.57 124.048 680.13 124.171 679.812 124.416C679.494 124.662 679.27 124.923 679.141 125.202L678.027 124.804C678.226 124.34 678.491 123.979 678.823 123.72C679.158 123.458 679.522 123.276 679.917 123.173C680.314 123.067 680.705 123.014 681.09 123.014C681.335 123.014 681.617 123.044 681.935 123.104C682.257 123.16 682.566 123.278 682.865 123.457C683.166 123.636 683.417 123.906 683.616 124.267C683.814 124.628 683.914 125.112 683.914 125.719V130.75H682.741V129.716H682.681C682.601 129.882 682.469 130.059 682.283 130.248C682.098 130.437 681.851 130.598 681.542 130.73C681.234 130.863 680.858 130.929 680.414 130.929ZM680.593 129.875C681.057 129.875 681.448 129.784 681.766 129.602C682.088 129.419 682.33 129.184 682.492 128.896C682.658 128.607 682.741 128.304 682.741 127.986V126.912C682.691 126.972 682.581 127.026 682.412 127.076C682.247 127.123 682.054 127.164 681.836 127.2C681.62 127.234 681.41 127.263 681.204 127.29C681.002 127.313 680.838 127.333 680.712 127.35C680.407 127.389 680.122 127.454 679.857 127.543C679.595 127.63 679.383 127.761 679.221 127.936C679.062 128.109 678.982 128.344 678.982 128.642C678.982 129.05 679.133 129.358 679.434 129.567C679.739 129.772 680.125 129.875 680.593 129.875ZM686.214 130.75V120.568H687.388V124.327H687.487C687.573 124.194 687.693 124.025 687.845 123.82C688.001 123.611 688.223 123.425 688.511 123.263C688.803 123.097 689.197 123.014 689.695 123.014C690.338 123.014 690.904 123.175 691.395 123.497C691.885 123.818 692.268 124.274 692.543 124.864C692.818 125.454 692.956 126.15 692.956 126.952C692.956 127.761 692.818 128.462 692.543 129.055C692.268 129.645 691.887 130.102 691.4 130.427C690.913 130.748 690.351 130.909 689.714 130.909C689.224 130.909 688.831 130.828 688.536 130.666C688.241 130.5 688.014 130.313 687.855 130.104C687.696 129.892 687.573 129.716 687.487 129.577H687.348V130.75H686.214ZM687.368 126.932C687.368 127.509 687.452 128.017 687.621 128.458C687.79 128.896 688.037 129.239 688.362 129.487C688.687 129.733 689.085 129.855 689.555 129.855C690.046 129.855 690.455 129.726 690.783 129.467C691.115 129.206 691.363 128.854 691.529 128.413C691.698 127.969 691.783 127.476 691.783 126.932C691.783 126.395 691.7 125.911 691.534 125.48C691.372 125.046 691.125 124.703 690.793 124.451C690.465 124.196 690.052 124.068 689.555 124.068C689.078 124.068 688.677 124.189 688.352 124.431C688.027 124.67 687.782 125.005 687.616 125.435C687.451 125.863 687.368 126.362 687.368 126.932ZM697.952 130.909C697.217 130.909 696.582 130.747 696.048 130.422C695.518 130.094 695.109 129.636 694.82 129.05C694.535 128.46 694.393 127.774 694.393 126.992C694.393 126.209 694.535 125.52 694.82 124.923C695.109 124.324 695.51 123.856 696.023 123.521C696.54 123.183 697.144 123.014 697.833 123.014C698.231 123.014 698.623 123.081 699.011 123.213C699.399 123.346 699.752 123.561 700.07 123.859C700.388 124.154 700.642 124.546 700.831 125.033C701.02 125.52 701.114 126.12 701.114 126.833V127.33H695.228V126.315H699.921C699.921 125.885 699.835 125.5 699.663 125.162C699.494 124.824 699.252 124.557 698.937 124.362C698.625 124.166 698.257 124.068 697.833 124.068C697.366 124.068 696.961 124.184 696.62 124.416C696.282 124.645 696.022 124.943 695.839 125.311C695.657 125.679 695.566 126.074 695.566 126.494V127.171C695.566 127.747 695.665 128.236 695.864 128.637C696.066 129.035 696.347 129.338 696.704 129.547C697.062 129.752 697.478 129.855 697.952 129.855C698.261 129.855 698.539 129.812 698.788 129.726C699.039 129.636 699.257 129.504 699.439 129.328C699.621 129.149 699.762 128.927 699.861 128.662L700.995 128.98C700.876 129.365 700.675 129.703 700.393 129.994C700.112 130.283 699.764 130.508 699.349 130.671C698.935 130.83 698.469 130.909 697.952 130.909ZM704.072 120.568V130.75H702.899V120.568H704.072Z" fill="white" fill-opacity="0.7"/>
</g>
<g clip-path="url(#clip3_2462_35471)">
<line x1="445.598" y1="116" x2="445.598" y2="101" stroke="#C7A5FA"/>
<line x1="445.098" y1="108.5" x2="457.098" y2="108.5" stroke="#C7A5FA"/>
<line x1="456.598" y1="116" x2="456.598" y2="101" stroke="#C7A5FA"/>
</g>
<path d="M448.242 94H446.594V86.0703L444.045 87.0068V85.5645L448.139 84.0469H448.242V94ZM458.424 94H451.745V92.8652L454.986 89.3379C455.255 89.0417 455.48 88.7773 455.662 88.5449C455.845 88.3079 455.993 88.0915 456.107 87.8955C456.216 87.6995 456.294 87.5173 456.339 87.3486C456.389 87.1755 456.414 87.0023 456.414 86.8291C456.414 86.5967 456.38 86.3848 456.312 86.1934C456.243 86.002 456.143 85.8379 456.011 85.7012C455.879 85.5645 455.719 85.4574 455.533 85.3799C455.35 85.3024 455.145 85.2637 454.917 85.2637C454.626 85.2637 454.373 85.3047 454.159 85.3867C453.944 85.4688 453.767 85.585 453.625 85.7354C453.479 85.8949 453.37 86.0885 453.297 86.3164C453.224 86.5397 453.188 86.7949 453.188 87.082H451.547C451.547 86.6491 451.627 86.2412 451.786 85.8584C451.946 85.471 452.174 85.1338 452.47 84.8467C452.762 84.5596 453.117 84.3317 453.536 84.1631C453.96 83.9945 454.432 83.9102 454.951 83.9102C455.439 83.9102 455.874 83.9808 456.257 84.1221C456.645 84.2633 456.97 84.4593 457.235 84.71C457.494 84.9606 457.693 85.2614 457.829 85.6123C457.966 85.9587 458.034 86.3415 458.034 86.7607C458.034 87.0752 457.982 87.3805 457.877 87.6768C457.777 87.9684 457.638 88.2578 457.46 88.5449C457.278 88.832 457.062 89.1214 456.811 89.4131C456.565 89.7048 456.296 90.0055 456.004 90.3154L453.789 92.6807H458.424V94Z" fill="#C7A5FA"/>
<g clip-path="url(#clip4_2462_35471)">
<rect x="445.598" y="120.5" width="11" height="11" stroke="#C7A5FA" stroke-opacity="0.5" stroke-dasharray="4 4"/>
</g>
<g clip-path="url(#clip5_2462_35471)">
<line x1="460.226" y1="153" x2="460.226" y2="138" stroke="#C7A5FA"/>
<line x1="459.726" y1="145.5" x2="619.726" y2="145.5" stroke="#C7A5FA"/>
<line x1="619.226" y1="153" x2="619.226" y2="138" stroke="#C7A5FA"/>
</g>
<path d="M474.858 171.375H473.211V163.445L470.661 164.382V162.939L474.756 161.422H474.858V171.375ZM483.584 161.374V162.762H483.475C482.933 162.762 482.461 162.837 482.06 162.987C481.664 163.133 481.329 163.338 481.055 163.603C480.777 163.867 480.561 164.184 480.406 164.553C480.255 164.922 480.162 165.318 480.126 165.742C480.235 165.619 480.362 165.501 480.508 165.387C480.654 165.268 480.816 165.163 480.994 165.072C481.162 164.986 481.349 164.917 481.554 164.867C481.759 164.812 481.976 164.785 482.204 164.785C482.687 164.785 483.106 164.876 483.461 165.059C483.821 165.241 484.118 165.487 484.35 165.797C484.587 166.107 484.76 166.462 484.87 166.863C484.984 167.264 485.041 167.681 485.041 168.114C485.041 168.588 484.968 169.033 484.822 169.447C484.681 169.857 484.473 170.215 484.2 170.521C483.922 170.83 483.582 171.074 483.181 171.252C482.785 171.425 482.331 171.512 481.821 171.512C481.297 171.512 480.83 171.411 480.419 171.211C480.009 171.01 479.663 170.739 479.38 170.397C479.08 170.042 478.852 169.625 478.697 169.146C478.542 168.663 478.464 168.155 478.464 167.622V166.945C478.464 166.143 478.567 165.38 478.772 164.655C478.982 163.926 479.328 163.299 479.811 162.775C480.221 162.324 480.727 161.978 481.329 161.736C481.93 161.495 482.618 161.374 483.393 161.374H483.584ZM481.8 166.111C481.604 166.111 481.418 166.141 481.24 166.2C481.062 166.259 480.898 166.341 480.748 166.446C480.611 166.551 480.488 166.672 480.378 166.809C480.269 166.945 480.178 167.098 480.105 167.267V167.772C480.105 168.169 480.148 168.518 480.235 168.818C480.326 169.119 480.449 169.37 480.604 169.57C480.759 169.771 480.939 169.924 481.144 170.028C481.349 170.133 481.568 170.186 481.8 170.186C482.056 170.186 482.283 170.135 482.484 170.035C482.684 169.93 482.855 169.789 482.997 169.611C483.138 169.429 483.245 169.215 483.318 168.969C483.391 168.718 483.427 168.447 483.427 168.155C483.427 167.877 483.391 167.615 483.318 167.369C483.25 167.118 483.147 166.9 483.01 166.713C482.874 166.526 482.703 166.38 482.498 166.275C482.297 166.166 482.065 166.111 481.8 166.111ZM493.357 167.581C493.357 168.219 493.281 168.784 493.131 169.276C492.985 169.764 492.773 170.172 492.495 170.5C492.222 170.837 491.885 171.092 491.484 171.266C491.087 171.434 490.636 171.519 490.13 171.519C489.629 171.519 489.178 171.434 488.777 171.266C488.375 171.092 488.036 170.837 487.758 170.5C487.475 170.172 487.259 169.764 487.109 169.276C486.963 168.784 486.89 168.219 486.89 167.581V165.223C486.89 164.585 486.963 164.022 487.109 163.534C487.259 163.042 487.473 162.627 487.751 162.29C488.029 161.957 488.366 161.707 488.763 161.538C489.164 161.365 489.615 161.278 490.116 161.278C490.622 161.278 491.073 161.365 491.47 161.538C491.871 161.707 492.213 161.957 492.495 162.29C492.769 162.627 492.981 163.042 493.131 163.534C493.281 164.022 493.357 164.585 493.357 165.223V167.581ZM488.53 167L491.695 164.601C491.677 164.245 491.627 163.938 491.545 163.678C491.468 163.418 491.356 163.206 491.21 163.042C491.083 162.896 490.925 162.787 490.738 162.714C490.556 162.641 490.349 162.604 490.116 162.604C489.866 162.604 489.645 162.648 489.453 162.734C489.262 162.821 489.102 162.949 488.975 163.117C488.824 163.309 488.713 163.557 488.64 163.862C488.567 164.163 488.53 164.519 488.53 164.929V166.269C488.53 166.442 488.53 166.574 488.53 166.665C488.53 166.756 488.53 166.868 488.53 167ZM491.709 167.854V166.597C491.709 166.483 491.709 166.364 491.709 166.241C491.709 166.118 491.709 165.991 491.709 165.858L488.544 168.244C488.567 168.559 488.615 168.837 488.688 169.078C488.765 169.32 488.868 169.52 488.995 169.68C489.123 169.853 489.28 169.983 489.467 170.069C489.658 170.156 489.879 170.199 490.13 170.199C490.376 170.199 490.593 170.158 490.779 170.076C490.966 169.99 491.126 169.864 491.258 169.7C491.408 169.509 491.52 169.258 491.593 168.948C491.67 168.638 491.709 168.274 491.709 167.854ZM495.254 174.219V163.979H496.758L496.819 164.737C496.919 164.614 497.029 164.503 497.147 164.402C497.266 164.302 497.393 164.215 497.53 164.143C497.708 164.047 497.904 163.974 498.118 163.924C498.332 163.869 498.56 163.842 498.802 163.842C499.276 163.842 499.693 163.933 500.053 164.115C500.417 164.298 500.722 164.555 500.969 164.888C501.21 165.22 501.395 165.619 501.522 166.084C501.65 166.544 501.714 167.052 501.714 167.608V167.752C501.714 168.285 501.65 168.782 501.522 169.242C501.399 169.702 501.215 170.099 500.969 170.432C500.722 170.769 500.419 171.033 500.059 171.225C499.699 171.416 499.287 171.512 498.822 171.512C498.558 171.512 498.314 171.484 498.091 171.43C497.872 171.375 497.669 171.295 497.482 171.19C497.373 171.127 497.268 171.054 497.168 170.972C497.068 170.89 496.974 170.801 496.888 170.705V174.219H495.254ZM500.08 167.608C500.08 167.276 500.046 166.964 499.977 166.672C499.914 166.376 499.813 166.118 499.677 165.899C499.535 165.681 499.355 165.507 499.137 165.38C498.918 165.252 498.656 165.188 498.35 165.188C498.182 165.188 498.025 165.207 497.879 165.243C497.733 165.28 497.603 165.332 497.489 165.4C497.357 165.473 497.241 165.564 497.14 165.674C497.045 165.783 496.96 165.906 496.888 166.043V169.331C496.951 169.459 497.029 169.575 497.12 169.68C497.211 169.785 497.316 169.876 497.434 169.953C497.557 170.026 497.696 170.085 497.851 170.131C498.006 170.172 498.177 170.192 498.364 170.192C498.669 170.192 498.929 170.129 499.143 170.001C499.362 169.869 499.54 169.691 499.677 169.468C499.818 169.24 499.92 168.98 499.984 168.688C500.048 168.392 500.08 168.08 500.08 167.752V167.608ZM506.755 166.467L508.526 163.979H510.337L507.74 167.622L510.419 171.375H508.615L506.769 168.791L504.93 171.375H503.119L505.798 167.622L503.207 163.979H505.005L506.755 166.467ZM521.378 167.328C521.378 166.686 521.428 166.079 521.528 165.51C521.628 164.936 521.763 164.405 521.931 163.917C522.105 163.438 522.303 162.999 522.526 162.598C522.754 162.197 522.993 161.841 523.244 161.531C523.49 161.221 523.743 160.959 524.003 160.745C524.262 160.526 524.513 160.358 524.755 160.239L525.083 161.189C524.937 161.299 524.791 161.431 524.645 161.586C524.499 161.741 524.356 161.916 524.215 162.112C524.019 162.39 523.834 162.716 523.661 163.09C523.492 163.464 523.346 163.871 523.223 164.313C523.109 164.728 523.018 165.186 522.95 165.688C522.886 166.189 522.854 166.731 522.854 167.314V167.458C522.854 168.028 522.886 168.559 522.95 169.051C523.014 169.538 523.089 169.953 523.176 170.295C523.285 170.705 523.41 171.086 523.551 171.437C523.697 171.787 523.85 172.097 524.009 172.366C524.178 172.64 524.354 172.881 524.536 173.091C524.718 173.3 524.9 173.476 525.083 173.617L524.755 174.533C524.513 174.415 524.262 174.246 524.003 174.027C523.743 173.813 523.488 173.551 523.237 173.241C522.986 172.931 522.747 172.576 522.519 172.175C522.296 171.778 522.1 171.336 521.931 170.849C521.763 170.366 521.628 169.841 521.528 169.276C521.428 168.707 521.378 168.096 521.378 167.444V167.328ZM530.22 161.422L531.451 165.681L532.811 161.422H534.855V171.375H533.31V167.998L533.406 163.555L531.874 168.306H531.02L529.632 163.719L529.721 167.998V171.375H528.183V161.422H530.22ZM541.305 171.375C541.255 171.284 541.214 171.174 541.182 171.047C541.154 170.915 541.129 170.778 541.106 170.637C540.993 170.755 540.863 170.869 540.717 170.979C540.576 171.083 540.416 171.174 540.238 171.252C540.061 171.334 539.869 171.398 539.664 171.443C539.459 171.489 539.238 171.512 539.001 171.512C538.618 171.512 538.267 171.457 537.948 171.348C537.634 171.234 537.365 171.079 537.142 170.883C536.914 170.691 536.736 170.461 536.608 170.192C536.485 169.919 536.424 169.625 536.424 169.311C536.424 168.905 536.504 168.547 536.663 168.237C536.827 167.923 537.064 167.663 537.374 167.458C537.661 167.267 538.014 167.121 538.434 167.021C538.857 166.92 539.336 166.87 539.869 166.87H541.059V166.371C541.059 166.18 541.024 166.007 540.956 165.852C540.892 165.697 540.799 165.562 540.676 165.448C540.544 165.334 540.382 165.248 540.19 165.188C540.004 165.125 539.787 165.093 539.541 165.093C539.318 165.093 539.122 165.12 538.953 165.175C538.789 165.229 538.652 165.305 538.543 165.4C538.434 165.487 538.352 165.594 538.297 165.722C538.247 165.845 538.222 165.977 538.222 166.118H536.581C536.586 165.822 536.656 165.537 536.793 165.264C536.93 164.99 537.13 164.749 537.395 164.539C537.65 164.325 537.964 164.156 538.338 164.033C538.716 163.906 539.147 163.842 539.63 163.842C540.063 163.842 540.466 163.896 540.84 164.006C541.218 164.111 541.544 164.268 541.817 164.478C542.091 164.687 542.305 164.954 542.46 165.277C542.615 165.596 542.692 165.965 542.692 166.385V169.673C542.692 170.006 542.715 170.306 542.761 170.575C542.811 170.84 542.882 171.067 542.973 171.259V171.375H541.305ZM539.315 170.199C539.53 170.199 539.728 170.172 539.91 170.117C540.097 170.062 540.266 169.992 540.416 169.905C540.566 169.819 540.696 169.721 540.806 169.611C540.915 169.502 540.999 169.388 541.059 169.27V167.902H540.006C539.65 167.902 539.343 167.937 539.083 168.005C538.823 168.069 538.616 168.162 538.461 168.285C538.324 168.39 538.222 168.515 538.153 168.661C538.09 168.807 538.058 168.971 538.058 169.153C538.058 169.304 538.085 169.445 538.14 169.577C538.194 169.705 538.274 169.814 538.379 169.905C538.484 169.996 538.614 170.069 538.769 170.124C538.924 170.174 539.106 170.199 539.315 170.199ZM548.096 166.467L549.867 163.979H551.678L549.081 167.622L551.76 171.375H549.956L548.11 168.791L546.271 171.375H544.46L547.139 167.622L544.548 163.979H546.346L548.096 166.467ZM561.939 171.375L560.641 161.422H562.165L562.849 167.533L562.896 167.923L562.965 167.513L563.922 161.422H565.18L566.171 167.54L566.239 167.95L566.287 167.533L566.977 161.422H568.509L567.196 171.375H565.644L564.633 165.284L564.564 164.812L564.489 165.284L563.491 171.375H561.939ZM570.03 163.979H573.954V170.021H576.128V171.375H570.03V170.021H572.306V165.339H570.03V163.979ZM572.156 162.064C572.156 161.932 572.179 161.812 572.224 161.702C572.27 161.588 572.336 161.49 572.422 161.408C572.504 161.331 572.602 161.271 572.716 161.23C572.835 161.185 572.967 161.162 573.113 161.162C573.359 161.162 573.557 161.226 573.708 161.354C573.863 161.477 573.951 161.636 573.974 161.832C574.006 162.033 573.972 162.208 573.872 162.358C573.771 162.504 573.626 162.602 573.434 162.652C573.338 162.739 573.225 162.796 573.092 162.823C572.96 162.851 572.814 162.839 572.655 162.789C572.491 162.739 572.365 162.65 572.279 162.522C572.197 162.39 572.156 162.238 572.156 162.064ZM577.703 167.622C577.703 167.062 577.769 166.551 577.902 166.091C578.038 165.626 578.234 165.227 578.489 164.895C578.74 164.562 579.045 164.304 579.405 164.122C579.77 163.935 580.18 163.842 580.636 163.842C581.046 163.842 581.404 163.915 581.709 164.061C582.019 164.202 582.293 164.405 582.529 164.669V160.875H584.163V171.375H582.68L582.605 170.603C582.368 170.894 582.085 171.12 581.757 171.279C581.429 171.434 581.051 171.512 580.622 171.512C580.171 171.512 579.765 171.418 579.405 171.231C579.045 171.04 578.74 170.776 578.489 170.438C578.239 170.106 578.045 169.712 577.908 169.256C577.772 168.796 577.703 168.299 577.703 167.766V167.622ZM579.337 167.766C579.337 168.094 579.369 168.404 579.433 168.695C579.497 168.987 579.597 169.24 579.734 169.454C579.87 169.677 580.046 169.853 580.26 169.98C580.474 170.104 580.732 170.165 581.032 170.165C581.402 170.165 581.707 170.085 581.948 169.926C582.19 169.762 582.384 169.541 582.529 169.263V166.084C582.384 165.811 582.19 165.594 581.948 165.435C581.711 165.271 581.411 165.188 581.046 165.188C580.741 165.188 580.479 165.252 580.26 165.38C580.046 165.507 579.873 165.683 579.74 165.906C579.599 166.13 579.497 166.389 579.433 166.686C579.369 166.977 579.337 167.289 579.337 167.622V167.766ZM589.472 162.174V163.979H592.254V165.202H589.472V168.736C589.472 169.01 589.503 169.24 589.567 169.427C589.636 169.609 589.729 169.753 589.848 169.857C589.966 169.967 590.107 170.044 590.271 170.09C590.435 170.135 590.615 170.158 590.811 170.158C590.953 170.158 591.098 170.151 591.249 170.138C591.399 170.124 591.545 170.106 591.686 170.083C591.823 170.065 591.951 170.044 592.069 170.021C592.192 169.994 592.295 169.971 592.377 169.953L592.555 171.081C592.436 171.154 592.292 171.218 592.124 171.272C591.96 171.323 591.782 171.366 591.591 171.402C591.399 171.439 591.199 171.466 590.989 171.484C590.784 171.507 590.579 171.519 590.374 171.519C590 171.519 589.656 171.468 589.342 171.368C589.032 171.263 588.765 171.102 588.542 170.883C588.319 170.669 588.143 170.393 588.015 170.056C587.892 169.718 587.831 169.313 587.831 168.839V165.202H586.04V163.979H587.831V162.174H589.472ZM596.092 165.031C596.188 164.885 596.295 164.751 596.414 164.628C596.532 164.505 596.657 164.398 596.79 164.307C596.995 164.156 597.22 164.042 597.466 163.965C597.717 163.883 597.981 163.842 598.259 163.842C598.647 163.842 599 163.899 599.319 164.013C599.642 164.127 599.918 164.304 600.146 164.546C600.374 164.787 600.549 165.097 600.672 165.476C600.8 165.849 600.864 166.298 600.864 166.822V171.375H599.23V166.809C599.23 166.535 599.196 166.296 599.127 166.091C599.064 165.886 598.968 165.719 598.84 165.592C598.708 165.455 598.546 165.355 598.355 165.291C598.168 165.223 597.952 165.188 597.706 165.188C597.514 165.188 597.332 165.211 597.159 165.257C596.99 165.302 596.835 165.368 596.694 165.455C596.575 165.523 596.464 165.605 596.359 165.701C596.259 165.797 596.17 165.904 596.092 166.022V171.375H594.458V160.875H596.092V165.031ZM607.601 167.444C607.601 168.082 607.548 168.684 607.443 169.249C607.343 169.814 607.207 170.338 607.033 170.821C606.86 171.309 606.66 171.753 606.432 172.154C606.204 172.555 605.962 172.911 605.707 173.221C605.452 173.54 605.192 173.809 604.928 174.027C604.664 174.246 604.408 174.415 604.162 174.533L603.841 173.617C604.014 173.49 604.187 173.328 604.36 173.132C604.534 172.936 604.702 172.71 604.866 172.455C605.04 172.173 605.201 171.851 605.352 171.491C605.507 171.136 605.637 170.742 605.741 170.309C605.842 169.908 605.919 169.47 605.974 168.996C606.033 168.522 606.063 168.009 606.063 167.458V167.314C606.063 166.745 606.031 166.221 605.967 165.742C605.903 165.264 605.823 164.835 605.728 164.457C605.6 163.965 605.445 163.523 605.263 163.131C605.085 162.739 604.898 162.399 604.702 162.112C604.566 161.907 604.422 161.725 604.272 161.565C604.126 161.401 603.982 161.265 603.841 161.155L604.162 160.239C604.408 160.358 604.664 160.529 604.928 160.752C605.197 160.971 605.457 161.235 605.707 161.545C605.967 161.864 606.211 162.224 606.439 162.625C606.666 163.021 606.865 163.464 607.033 163.951C607.202 164.434 607.339 164.956 607.443 165.517C607.548 166.073 607.601 166.676 607.601 167.328V167.444Z" fill="#C7A5FA"/>
<rect x="460.115" y="116.25" width="159" height="18.7499" stroke="#643ABD"/>
<g opacity="0.5">
<g clip-path="url(#clip6_2462_35471)">
<rect width="7.78753" height="20" transform="translate(649.342 110.5)" fill="#30C9B0" fill-opacity="0.5"/>
<rect x="649.342" y="110.5" width="7.78753" height="20" fill="#30C9B0" fill-opacity="0.5"/>
</g>
</g>
<g clip-path="url(#clip7_2462_35471)">
<line x1="649.629" y1="106.5" x2="649.629" y2="91.5" stroke="#30C9B0"/>
<line x1="649.129" y1="99" x2="656.916" y2="99" stroke="#30C9B0"/>
<line x1="656.629" y1="106.5" x2="656.629" y2="91.5" stroke="#30C9B0"/>
</g>
<path d="M656.558 77.1719C656.558 77.4727 656.508 77.7529 656.408 78.0127C656.312 78.2725 656.175 78.5049 655.998 78.71C655.888 78.8421 655.763 78.9652 655.622 79.0791C655.48 79.193 655.323 79.2933 655.15 79.3799C655.355 79.4756 655.544 79.5872 655.717 79.7148C655.895 79.8379 656.05 79.9814 656.182 80.1455C656.369 80.3643 656.515 80.6126 656.62 80.8906C656.725 81.1686 656.777 81.4694 656.777 81.793C656.777 82.2533 656.693 82.6611 656.524 83.0166C656.355 83.3721 656.125 83.6683 655.834 83.9053C655.537 84.1468 655.191 84.3291 654.795 84.4521C654.403 84.5752 653.979 84.6367 653.523 84.6367C653.058 84.6367 652.625 84.5752 652.224 84.4521C651.828 84.3291 651.484 84.1468 651.192 83.9053C650.896 83.6683 650.663 83.3743 650.495 83.0234C650.331 82.668 650.249 82.2578 650.249 81.793C650.249 81.5195 650.285 81.2598 650.358 81.0137C650.436 80.7676 650.545 80.5397 650.686 80.3301C650.827 80.1296 650.996 79.9495 651.192 79.79C651.393 79.626 651.616 79.487 651.862 79.373C651.652 79.2682 651.461 79.1406 651.288 78.9902C651.119 78.8398 650.976 78.6735 650.857 78.4912C650.734 78.3044 650.638 78.0993 650.57 77.876C650.502 77.6527 650.467 77.418 650.467 77.1719C650.467 76.7298 650.543 76.3379 650.693 75.9961C650.848 75.6543 651.06 75.3649 651.329 75.1279C651.593 74.891 651.91 74.7132 652.279 74.5947C652.653 74.4717 653.061 74.4102 653.503 74.4102C653.94 74.4102 654.343 74.4717 654.713 74.5947C655.086 74.7132 655.412 74.891 655.69 75.1279C655.959 75.3604 656.171 75.6497 656.326 75.9961C656.481 76.3379 656.558 76.7298 656.558 77.1719ZM655.143 81.7041C655.143 81.458 655.102 81.2347 655.02 81.0342C654.943 80.8291 654.833 80.6514 654.692 80.501C654.546 80.3597 654.373 80.2503 654.172 80.1729C653.972 80.0954 653.751 80.0566 653.509 80.0566C653.259 80.0566 653.033 80.0954 652.833 80.1729C652.637 80.2503 652.468 80.3597 652.327 80.501C652.186 80.6514 652.076 80.8291 651.999 81.0342C651.926 81.2347 651.889 81.4603 651.889 81.7109C651.889 81.9661 651.928 82.1963 652.005 82.4014C652.083 82.6019 652.195 82.7705 652.34 82.9072C652.482 83.0394 652.65 83.1419 652.846 83.2148C653.047 83.2832 653.272 83.3174 653.523 83.3174C653.76 83.3174 653.977 83.2809 654.172 83.208C654.373 83.1351 654.546 83.0303 654.692 82.8936C654.829 82.7523 654.938 82.5837 655.02 82.3877C655.102 82.1872 655.143 81.9593 655.143 81.7041ZM654.931 77.2334C654.931 77.0101 654.895 76.8073 654.822 76.625C654.754 76.4427 654.658 76.2832 654.535 76.1465C654.407 76.0189 654.257 75.9186 654.084 75.8457C653.91 75.7728 653.714 75.7363 653.496 75.7363C653.282 75.7363 653.088 75.7728 652.915 75.8457C652.746 75.9141 652.6 76.012 652.477 76.1396C652.359 76.2673 652.268 76.4245 652.204 76.6113C652.14 76.7982 652.108 77.0055 652.108 77.2334C652.108 77.4567 652.14 77.6618 652.204 77.8486C652.268 78.0309 652.363 78.1859 652.491 78.3135C652.614 78.4456 652.762 78.5482 652.935 78.6211C653.108 78.694 653.302 78.7305 653.516 78.7305C653.73 78.7305 653.924 78.694 654.097 78.6211C654.27 78.5482 654.419 78.4456 654.542 78.3135C654.665 78.1859 654.76 78.0309 654.829 77.8486C654.897 77.6618 654.931 77.4567 654.931 77.2334Z" fill="#30C9B0"/>
<g opacity="0.5">
<g clip-path="url(#clip8_2462_35471)">
<rect width="7.78753" height="20" transform="translate(629.342 110.5)" fill="#30C9B0" fill-opacity="0.5"/>
<rect x="629.342" y="110.5" width="7.78753" height="20" fill="#30C9B0" fill-opacity="0.5"/>
</g>
</g>
<g clip-path="url(#clip9_2462_35471)">
<line x1="629.629" y1="106.5" x2="629.629" y2="91.5" stroke="#30C9B0"/>
<line x1="629.129" y1="99" x2="636.916" y2="99" stroke="#30C9B0"/>
<line x1="636.629" y1="106.5" x2="636.629" y2="91.5" stroke="#30C9B0"/>
</g>
<path d="M636.558 77.1719C636.558 77.4727 636.508 77.7529 636.408 78.0127C636.312 78.2725 636.175 78.5049 635.998 78.71C635.888 78.8421 635.763 78.9652 635.622 79.0791C635.48 79.193 635.323 79.2933 635.15 79.3799C635.355 79.4756 635.544 79.5872 635.717 79.7148C635.895 79.8379 636.05 79.9814 636.182 80.1455C636.369 80.3643 636.515 80.6126 636.62 80.8906C636.725 81.1686 636.777 81.4694 636.777 81.793C636.777 82.2533 636.693 82.6611 636.524 83.0166C636.355 83.3721 636.125 83.6683 635.834 83.9053C635.537 84.1468 635.191 84.3291 634.795 84.4521C634.403 84.5752 633.979 84.6367 633.523 84.6367C633.058 84.6367 632.625 84.5752 632.224 84.4521C631.828 84.3291 631.484 84.1468 631.192 83.9053C630.896 83.6683 630.663 83.3743 630.495 83.0234C630.331 82.668 630.249 82.2578 630.249 81.793C630.249 81.5195 630.285 81.2598 630.358 81.0137C630.436 80.7676 630.545 80.5397 630.686 80.3301C630.827 80.1296 630.996 79.9495 631.192 79.79C631.393 79.626 631.616 79.487 631.862 79.373C631.652 79.2682 631.461 79.1406 631.288 78.9902C631.119 78.8398 630.976 78.6735 630.857 78.4912C630.734 78.3044 630.638 78.0993 630.57 77.876C630.502 77.6527 630.467 77.418 630.467 77.1719C630.467 76.7298 630.543 76.3379 630.693 75.9961C630.848 75.6543 631.06 75.3649 631.329 75.1279C631.593 74.891 631.91 74.7132 632.279 74.5947C632.653 74.4717 633.061 74.4102 633.503 74.4102C633.94 74.4102 634.343 74.4717 634.713 74.5947C635.086 74.7132 635.412 74.891 635.69 75.1279C635.959 75.3604 636.171 75.6497 636.326 75.9961C636.481 76.3379 636.558 76.7298 636.558 77.1719ZM635.143 81.7041C635.143 81.458 635.102 81.2347 635.02 81.0342C634.943 80.8291 634.833 80.6514 634.692 80.501C634.546 80.3597 634.373 80.2503 634.172 80.1729C633.972 80.0954 633.751 80.0566 633.509 80.0566C633.259 80.0566 633.033 80.0954 632.833 80.1729C632.637 80.2503 632.468 80.3597 632.327 80.501C632.186 80.6514 632.076 80.8291 631.999 81.0342C631.926 81.2347 631.889 81.4603 631.889 81.7109C631.889 81.9661 631.928 82.1963 632.005 82.4014C632.083 82.6019 632.195 82.7705 632.34 82.9072C632.482 83.0394 632.65 83.1419 632.846 83.2148C633.047 83.2832 633.272 83.3174 633.523 83.3174C633.76 83.3174 633.977 83.2809 634.172 83.208C634.373 83.1351 634.546 83.0303 634.692 82.8936C634.829 82.7523 634.938 82.5837 635.02 82.3877C635.102 82.1872 635.143 81.9593 635.143 81.7041ZM634.931 77.2334C634.931 77.0101 634.895 76.8073 634.822 76.625C634.754 76.4427 634.658 76.2832 634.535 76.1465C634.407 76.0189 634.257 75.9186 634.084 75.8457C633.91 75.7728 633.714 75.7363 633.496 75.7363C633.282 75.7363 633.088 75.7728 632.915 75.8457C632.746 75.9141 632.6 76.012 632.477 76.1396C632.359 76.2673 632.268 76.4245 632.204 76.6113C632.14 76.7982 632.108 77.0055 632.108 77.2334C632.108 77.4567 632.14 77.6618 632.204 77.8486C632.268 78.0309 632.363 78.1859 632.491 78.3135C632.614 78.4456 632.762 78.5482 632.935 78.6211C633.108 78.694 633.302 78.7305 633.516 78.7305C633.73 78.7305 633.924 78.694 634.097 78.6211C634.27 78.5482 634.419 78.4456 634.542 78.3135C634.665 78.1859 634.76 78.0309 634.829 77.8486C634.897 77.6618 634.931 77.4567 634.931 77.2334Z" fill="#30C9B0"/>
<defs>
<clipPath id="clip0_2462_35471">
<rect width="36" height="20" fill="white" transform="translate(469.183 115.75)"/>
</clipPath>
<clipPath id="clip1_2462_35471">
<rect width="36" height="20" fill="white" transform="translate(569.183 115.75)"/>
</clipPath>
<clipPath id="clip2_2462_35471">
<rect width="36" height="20" fill="white" transform="translate(669.183 115.75)"/>
</clipPath>
<clipPath id="clip3_2462_35471">
<rect width="12" height="15" fill="white" transform="translate(445.098 101)"/>
</clipPath>
<clipPath id="clip4_2462_35471">
<rect width="12" height="12" fill="white" transform="translate(445.098 120)"/>
</clipPath>
<clipPath id="clip5_2462_35471">
<rect width="160" height="15" fill="white" transform="translate(459.726 138)"/>
</clipPath>
<clipPath id="clip6_2462_35471">
<rect width="7.78753" height="20" fill="white" transform="translate(649.342 110.5)"/>
</clipPath>
<clipPath id="clip7_2462_35471">
<rect width="7.78753" height="15" fill="white" transform="translate(649.129 91.5)"/>
</clipPath>
<clipPath id="clip8_2462_35471">
<rect width="7.78753" height="20" fill="white" transform="translate(629.342 110.5)"/>
</clipPath>
<clipPath id="clip9_2462_35471">
<rect width="7.78753" height="15" fill="white" transform="translate(629.129 91.5)"/>
</clipPath>
</defs>
</svg>
