<svg width="362" height="240" viewBox="0 0 362 240" fill="none" xmlns="http://www.w3.org/2000/svg">
<rect width="362" height="240" rx="24" fill="#262626"/>
<path d="M44.5256 113H40.571L46.5966 95.5455H51.3523L57.3693 113H53.4148L49.0426 99.5341H48.9062L44.5256 113ZM44.2784 106.139H53.6193V109.02H44.2784V106.139ZM63.6165 113.213C62.6222 113.213 61.7216 112.957 60.9148 112.446C60.1136 111.929 59.4773 111.17 59.0057 110.17C58.5398 109.165 58.3068 107.932 58.3068 106.472C58.3068 104.972 58.5483 103.724 59.0312 102.73C59.5142 101.73 60.1563 100.983 60.9574 100.489C61.7642 99.9886 62.6477 99.7386 63.608 99.7386C64.3409 99.7386 64.9517 99.8636 65.4403 100.114C65.9347 100.358 66.3324 100.665 66.6335 101.034C66.9403 101.398 67.1733 101.756 67.3324 102.108H67.4432V95.5455H71.0653V113H67.4858V110.903H67.3324C67.1619 111.267 66.9205 111.628 66.608 111.986C66.3011 112.338 65.9006 112.631 65.4062 112.864C64.9176 113.097 64.321 113.213 63.6165 113.213ZM64.767 110.324C65.3523 110.324 65.8466 110.165 66.25 109.847C66.6591 109.523 66.9716 109.071 67.1875 108.491C67.4091 107.912 67.5199 107.233 67.5199 106.455C67.5199 105.676 67.4119 105 67.196 104.426C66.9801 103.852 66.6676 103.409 66.2585 103.097C65.8494 102.784 65.3523 102.628 64.767 102.628C64.1705 102.628 63.6676 102.79 63.2585 103.114C62.8494 103.437 62.5398 103.886 62.3295 104.46C62.1193 105.034 62.0142 105.699 62.0142 106.455C62.0142 107.216 62.1193 107.889 62.3295 108.474C62.5455 109.054 62.8551 109.509 63.2585 109.838C63.6676 110.162 64.1705 110.324 64.767 110.324ZM78.8743 113.213C77.88 113.213 76.9794 112.957 76.1726 112.446C75.3714 111.929 74.7351 111.17 74.2635 110.17C73.7976 109.165 73.5646 107.932 73.5646 106.472C73.5646 104.972 73.8061 103.724 74.2891 102.73C74.772 101.73 75.4141 100.983 76.2152 100.489C77.022 99.9886 77.9055 99.7386 78.8658 99.7386C79.5987 99.7386 80.2095 99.8636 80.6982 100.114C81.1925 100.358 81.5902 100.665 81.8913 101.034C82.1982 101.398 82.4311 101.756 82.5902 102.108H82.701V95.5455H86.3232V113H82.7436V110.903H82.5902C82.4197 111.267 82.1783 111.628 81.8658 111.986C81.5589 112.338 81.1584 112.631 80.6641 112.864C80.1754 113.097 79.5788 113.213 78.8743 113.213ZM80.0249 110.324C80.6101 110.324 81.1044 110.165 81.5078 109.847C81.9169 109.523 82.2294 109.071 82.4453 108.491C82.6669 107.912 82.7777 107.233 82.7777 106.455C82.7777 105.676 82.6697 105 82.4538 104.426C82.2379 103.852 81.9254 103.409 81.5163 103.097C81.1072 102.784 80.6101 102.628 80.0249 102.628C79.4283 102.628 78.9254 102.79 78.5163 103.114C78.1072 103.437 77.7976 103.886 77.5874 104.46C77.3771 105.034 77.272 105.699 77.272 106.455C77.272 107.216 77.3771 107.889 77.5874 108.474C77.8033 109.054 78.1129 109.509 78.5163 109.838C78.9254 110.162 79.4283 110.324 80.0249 110.324ZM100.829 113.256C99.4822 113.256 98.3232 112.983 97.3516 112.438C96.3857 111.886 95.6413 111.108 95.1186 110.102C94.5959 109.091 94.3345 107.895 94.3345 106.514C94.3345 105.168 94.5959 103.986 95.1186 102.969C95.6413 101.952 96.3771 101.159 97.326 100.591C98.2805 100.023 99.3999 99.7386 100.684 99.7386C101.548 99.7386 102.352 99.8778 103.096 100.156C103.846 100.429 104.499 100.841 105.056 101.392C105.619 101.943 106.056 102.636 106.369 103.472C106.681 104.301 106.837 105.273 106.837 106.386V107.384H95.7834V105.134H103.42C103.42 104.611 103.306 104.148 103.079 103.744C102.852 103.341 102.536 103.026 102.133 102.798C101.735 102.565 101.272 102.449 100.744 102.449C100.192 102.449 99.7038 102.577 99.2777 102.832C98.8572 103.082 98.5277 103.42 98.2891 103.847C98.0504 104.267 97.9283 104.736 97.9226 105.253V107.392C97.9226 108.04 98.0419 108.599 98.2805 109.071C98.5249 109.543 98.8686 109.906 99.3118 110.162C99.755 110.418 100.281 110.545 100.888 110.545C101.292 110.545 101.661 110.489 101.996 110.375C102.332 110.261 102.619 110.091 102.857 109.864C103.096 109.636 103.278 109.358 103.403 109.028L106.761 109.25C106.59 110.057 106.241 110.761 105.712 111.364C105.19 111.96 104.513 112.426 103.684 112.761C102.86 113.091 101.908 113.256 100.829 113.256ZM112.006 99.9091L114.41 104.486L116.873 99.9091H120.597L116.805 106.455L120.7 113H116.992L114.41 108.474L111.87 113H108.12L112.006 106.455L108.256 99.9091H112.006ZM126.416 113.247C125.581 113.247 124.837 113.102 124.183 112.812C123.53 112.517 123.013 112.082 122.632 111.509C122.257 110.929 122.07 110.207 122.07 109.344C122.07 108.616 122.203 108.006 122.47 107.511C122.737 107.017 123.101 106.619 123.561 106.318C124.021 106.017 124.544 105.79 125.129 105.636C125.72 105.483 126.339 105.375 126.987 105.312C127.749 105.233 128.362 105.159 128.828 105.091C129.294 105.017 129.632 104.909 129.842 104.767C130.053 104.625 130.158 104.415 130.158 104.136V104.085C130.158 103.545 129.987 103.128 129.646 102.832C129.311 102.537 128.834 102.389 128.214 102.389C127.561 102.389 127.041 102.534 126.655 102.824C126.268 103.108 126.013 103.466 125.888 103.898L122.53 103.625C122.7 102.83 123.036 102.142 123.536 101.562C124.036 100.977 124.68 100.528 125.47 100.216C126.266 99.8977 127.186 99.7386 128.232 99.7386C128.959 99.7386 129.655 99.8239 130.32 99.9943C130.99 100.165 131.584 100.429 132.101 100.787C132.624 101.145 133.036 101.605 133.337 102.168C133.638 102.724 133.788 103.392 133.788 104.17V113H130.345V111.185H130.243C130.033 111.594 129.751 111.955 129.399 112.267C129.047 112.574 128.624 112.815 128.129 112.991C127.635 113.162 127.064 113.247 126.416 113.247ZM127.456 110.741C127.99 110.741 128.462 110.636 128.871 110.426C129.28 110.21 129.601 109.92 129.834 109.557C130.067 109.193 130.183 108.781 130.183 108.321V106.932C130.07 107.006 129.913 107.074 129.714 107.136C129.521 107.193 129.303 107.247 129.058 107.298C128.814 107.344 128.57 107.386 128.325 107.426C128.081 107.46 127.859 107.491 127.661 107.52C127.234 107.582 126.862 107.682 126.544 107.818C126.226 107.955 125.979 108.139 125.803 108.372C125.626 108.599 125.538 108.884 125.538 109.224C125.538 109.719 125.717 110.097 126.075 110.358C126.439 110.614 126.899 110.741 127.456 110.741ZM136.605 113V99.9091H140.065V102.219H140.219C140.491 101.452 140.946 100.847 141.582 100.403C142.219 99.9602 142.98 99.7386 143.866 99.7386C144.764 99.7386 145.528 99.9631 146.159 100.412C146.79 100.855 147.21 101.457 147.42 102.219H147.557C147.824 101.469 148.307 100.869 149.006 100.42C149.71 99.9659 150.543 99.7386 151.503 99.7386C152.724 99.7386 153.716 100.128 154.477 100.906C155.244 101.679 155.628 102.776 155.628 104.196V113H152.006V104.912C152.006 104.185 151.813 103.639 151.426 103.276C151.04 102.912 150.557 102.73 149.977 102.73C149.318 102.73 148.804 102.94 148.435 103.361C148.065 103.776 147.881 104.324 147.881 105.006V113H144.361V104.835C144.361 104.193 144.176 103.682 143.807 103.301C143.443 102.92 142.963 102.73 142.366 102.73C141.963 102.73 141.599 102.832 141.276 103.037C140.957 103.236 140.705 103.517 140.517 103.881C140.33 104.239 140.236 104.659 140.236 105.142V113H136.605ZM158.496 117.909V99.9091H162.075V102.108H162.237C162.396 101.756 162.626 101.398 162.928 101.034C163.234 100.665 163.632 100.358 164.121 100.114C164.615 99.8636 165.229 99.7386 165.962 99.7386C166.916 99.7386 167.797 99.9886 168.604 100.489C169.411 100.983 170.055 101.73 170.538 102.73C171.021 103.724 171.263 104.972 171.263 106.472C171.263 107.932 171.027 109.165 170.555 110.17C170.089 111.17 169.453 111.929 168.646 112.446C167.845 112.957 166.947 113.213 165.953 113.213C165.249 113.213 164.649 113.097 164.155 112.864C163.666 112.631 163.266 112.338 162.953 111.986C162.641 111.628 162.402 111.267 162.237 110.903H162.126V117.909H158.496ZM162.05 106.455C162.05 107.233 162.158 107.912 162.374 108.491C162.589 109.071 162.902 109.523 163.311 109.847C163.72 110.165 164.217 110.324 164.803 110.324C165.393 110.324 165.893 110.162 166.303 109.838C166.712 109.509 167.021 109.054 167.232 108.474C167.447 107.889 167.555 107.216 167.555 106.455C167.555 105.699 167.45 105.034 167.24 104.46C167.03 103.886 166.72 103.437 166.311 103.114C165.902 102.79 165.399 102.628 164.803 102.628C164.212 102.628 163.712 102.784 163.303 103.097C162.899 103.409 162.589 103.852 162.374 104.426C162.158 105 162.05 105.676 162.05 106.455ZM177.314 95.5455V113H173.683V95.5455H177.314ZM186.188 113.256C184.842 113.256 183.683 112.983 182.711 112.438C181.745 111.886 181.001 111.108 180.478 110.102C179.955 109.091 179.694 107.895 179.694 106.514C179.694 105.168 179.955 103.986 180.478 102.969C181.001 101.952 181.737 101.159 182.685 100.591C183.64 100.023 184.759 99.7386 186.043 99.7386C186.907 99.7386 187.711 99.8778 188.455 100.156C189.205 100.429 189.859 100.841 190.415 101.392C190.978 101.943 191.415 102.636 191.728 103.472C192.04 104.301 192.197 105.273 192.197 106.386V107.384H181.143V105.134H188.779C188.779 104.611 188.665 104.148 188.438 103.744C188.211 103.341 187.896 103.026 187.492 102.798C187.094 102.565 186.631 102.449 186.103 102.449C185.552 102.449 185.063 102.577 184.637 102.832C184.217 103.082 183.887 103.42 183.648 103.847C183.41 104.267 183.288 104.736 183.282 105.253V107.392C183.282 108.04 183.401 108.599 183.64 109.071C183.884 109.543 184.228 109.906 184.671 110.162C185.114 110.418 185.64 110.545 186.248 110.545C186.651 110.545 187.021 110.489 187.356 110.375C187.691 110.261 187.978 110.091 188.217 109.864C188.455 109.636 188.637 109.358 188.762 109.028L192.12 109.25C191.95 110.057 191.6 110.761 191.072 111.364C190.549 111.96 189.873 112.426 189.043 112.761C188.219 113.091 187.268 113.256 186.188 113.256ZM205.458 103.642L202.134 103.847C202.077 103.562 201.955 103.307 201.768 103.08C201.58 102.847 201.333 102.662 201.026 102.526C200.725 102.384 200.364 102.312 199.944 102.312C199.381 102.312 198.907 102.432 198.521 102.67C198.134 102.903 197.941 103.216 197.941 103.608C197.941 103.92 198.066 104.185 198.316 104.401C198.566 104.616 198.995 104.79 199.603 104.92L201.972 105.398C203.245 105.659 204.194 106.08 204.819 106.659C205.444 107.239 205.756 108 205.756 108.943C205.756 109.801 205.504 110.554 204.998 111.202C204.498 111.849 203.81 112.355 202.935 112.719C202.066 113.077 201.063 113.256 199.927 113.256C198.194 113.256 196.813 112.895 195.785 112.173C194.762 111.446 194.163 110.457 193.987 109.207L197.558 109.02C197.665 109.548 197.927 109.952 198.342 110.23C198.756 110.503 199.288 110.639 199.935 110.639C200.572 110.639 201.083 110.517 201.469 110.273C201.862 110.023 202.06 109.702 202.066 109.31C202.06 108.98 201.921 108.71 201.648 108.5C201.376 108.284 200.955 108.119 200.387 108.006L198.12 107.554C196.842 107.298 195.89 106.855 195.265 106.224C194.646 105.594 194.336 104.79 194.336 103.812C194.336 102.972 194.563 102.247 195.018 101.639C195.478 101.031 196.123 100.562 196.952 100.233C197.788 99.9034 198.765 99.7386 199.884 99.7386C201.538 99.7386 202.839 100.088 203.788 100.787C204.742 101.486 205.299 102.437 205.458 103.642ZM47.3636 144.256C46.0227 144.256 44.8693 143.972 43.9034 143.403C42.9432 142.83 42.2045 142.034 41.6875 141.017C41.1761 140 40.9205 138.83 40.9205 137.506C40.9205 136.165 41.179 134.989 41.696 133.977C42.2188 132.96 42.9602 132.168 43.9205 131.599C44.8807 131.026 46.0227 130.739 47.3466 130.739C48.4886 130.739 49.4886 130.946 50.3466 131.361C51.2045 131.776 51.8835 132.358 52.3835 133.108C52.8835 133.858 53.1591 134.739 53.2102 135.75H49.7841C49.6875 135.097 49.4318 134.571 49.017 134.173C48.608 133.77 48.071 133.568 47.4062 133.568C46.8438 133.568 46.3523 133.722 45.9318 134.028C45.517 134.33 45.1932 134.77 44.9602 135.349C44.7273 135.929 44.6108 136.631 44.6108 137.455C44.6108 138.29 44.7244 139 44.9517 139.585C45.1847 140.17 45.5114 140.616 45.9318 140.923C46.3523 141.23 46.8438 141.384 47.4062 141.384C47.821 141.384 48.1932 141.298 48.5227 141.128C48.858 140.957 49.1335 140.71 49.3494 140.386C49.571 140.057 49.7159 139.662 49.7841 139.202H53.2102C53.1534 140.202 52.8807 141.082 52.392 141.844C51.9091 142.599 51.2415 143.19 50.3892 143.616C49.5369 144.043 48.5284 144.256 47.3636 144.256ZM61.4496 144.256C60.1257 144.256 58.9808 143.974 58.0149 143.412C57.0547 142.844 56.3132 142.054 55.7905 141.043C55.2678 140.026 55.0064 138.847 55.0064 137.506C55.0064 136.153 55.2678 134.972 55.7905 133.96C56.3132 132.943 57.0547 132.153 58.0149 131.591C58.9808 131.023 60.1257 130.739 61.4496 130.739C62.7734 130.739 63.9155 131.023 64.8757 131.591C65.8416 132.153 66.5859 132.943 67.1087 133.96C67.6314 134.972 67.8928 136.153 67.8928 137.506C67.8928 138.847 67.6314 140.026 67.1087 141.043C66.5859 142.054 65.8416 142.844 64.8757 143.412C63.9155 143.974 62.7734 144.256 61.4496 144.256ZM61.4666 141.443C62.0689 141.443 62.5717 141.273 62.9751 140.932C63.3786 140.585 63.6825 140.114 63.8871 139.517C64.0973 138.92 64.2024 138.241 64.2024 137.48C64.2024 136.719 64.0973 136.04 63.8871 135.443C63.6825 134.847 63.3786 134.375 62.9751 134.028C62.5717 133.682 62.0689 133.509 61.4666 133.509C60.8587 133.509 60.3473 133.682 59.9325 134.028C59.5234 134.375 59.2138 134.847 59.0036 135.443C58.799 136.04 58.6967 136.719 58.6967 137.48C58.6967 138.241 58.799 138.92 59.0036 139.517C59.2138 140.114 59.5234 140.585 59.9325 140.932C60.3473 141.273 60.8587 141.443 61.4666 141.443ZM70.2536 144V130.909H73.7138V133.219H73.8672C74.1399 132.452 74.5945 131.847 75.2308 131.403C75.8672 130.96 76.6286 130.739 77.5149 130.739C78.4126 130.739 79.1768 130.963 79.8075 131.412C80.4382 131.855 80.8587 132.457 81.0689 133.219H81.2053C81.4723 132.469 81.9553 131.869 82.6541 131.42C83.3587 130.966 84.1911 130.739 85.1513 130.739C86.3729 130.739 87.3643 131.128 88.1257 131.906C88.8928 132.679 89.2763 133.776 89.2763 135.196V144H85.6541V135.912C85.6541 135.185 85.4609 134.639 85.0746 134.276C84.6882 133.912 84.2053 133.73 83.6257 133.73C82.9666 133.73 82.4524 133.94 82.0831 134.361C81.7138 134.776 81.5291 135.324 81.5291 136.006V144H78.0092V135.835C78.0092 135.193 77.8246 134.682 77.4553 134.301C77.0916 133.92 76.6115 133.73 76.0149 133.73C75.6115 133.73 75.2479 133.832 74.924 134.037C74.6058 134.236 74.353 134.517 74.1655 134.881C73.978 135.239 73.8842 135.659 73.8842 136.142V144H70.2536ZM92.1442 148.909V130.909H95.7237V133.108H95.8857C96.0447 132.756 96.2749 132.398 96.576 132.034C96.8828 131.665 97.2805 131.358 97.7692 131.114C98.2635 130.864 98.8771 130.739 99.6101 130.739C100.565 130.739 101.445 130.989 102.252 131.489C103.059 131.983 103.704 132.73 104.187 133.73C104.67 134.724 104.911 135.972 104.911 137.472C104.911 138.932 104.675 140.165 104.204 141.17C103.738 142.17 103.102 142.929 102.295 143.446C101.494 143.957 100.596 144.213 99.6016 144.213C98.897 144.213 98.2976 144.097 97.8033 143.864C97.3146 143.631 96.9141 143.338 96.6016 142.986C96.2891 142.628 96.0504 142.267 95.8857 141.903H95.7749V148.909H92.1442ZM95.6982 137.455C95.6982 138.233 95.8061 138.912 96.022 139.491C96.2379 140.071 96.5504 140.523 96.9595 140.847C97.3686 141.165 97.8658 141.324 98.451 141.324C99.0419 141.324 99.5419 141.162 99.951 140.838C100.36 140.509 100.67 140.054 100.88 139.474C101.096 138.889 101.204 138.216 101.204 137.455C101.204 136.699 101.099 136.034 100.888 135.46C100.678 134.886 100.369 134.437 99.9595 134.114C99.5504 133.79 99.0476 133.628 98.451 133.628C97.8601 133.628 97.3601 133.784 96.951 134.097C96.5476 134.409 96.2379 134.852 96.022 135.426C95.8061 136 95.6982 136.676 95.6982 137.455ZM113.246 144.256C111.923 144.256 110.778 143.974 109.812 143.412C108.852 142.844 108.11 142.054 107.587 141.043C107.065 140.026 106.803 138.847 106.803 137.506C106.803 136.153 107.065 134.972 107.587 133.96C108.11 132.943 108.852 132.153 109.812 131.591C110.778 131.023 111.923 130.739 113.246 130.739C114.57 130.739 115.712 131.023 116.673 131.591C117.638 132.153 118.383 132.943 118.906 133.96C119.428 134.972 119.69 136.153 119.69 137.506C119.69 138.847 119.428 140.026 118.906 141.043C118.383 142.054 117.638 142.844 116.673 143.412C115.712 143.974 114.57 144.256 113.246 144.256ZM113.263 141.443C113.866 141.443 114.369 141.273 114.772 140.932C115.175 140.585 115.479 140.114 115.684 139.517C115.894 138.92 115.999 138.241 115.999 137.48C115.999 136.719 115.894 136.04 115.684 135.443C115.479 134.847 115.175 134.375 114.772 134.028C114.369 133.682 113.866 133.509 113.263 133.509C112.656 133.509 112.144 133.682 111.729 134.028C111.32 134.375 111.011 134.847 110.8 135.443C110.596 136.04 110.494 136.719 110.494 137.48C110.494 138.241 110.596 138.92 110.8 139.517C111.011 140.114 111.32 140.585 111.729 140.932C112.144 141.273 112.656 141.443 113.263 141.443ZM125.681 136.432V144H122.05V130.909H125.511V133.219H125.664C125.954 132.457 126.44 131.855 127.121 131.412C127.803 130.963 128.63 130.739 129.602 130.739C130.511 130.739 131.303 130.938 131.979 131.335C132.656 131.733 133.181 132.301 133.556 133.04C133.931 133.773 134.119 134.648 134.119 135.665V144H130.488V136.312C130.494 135.511 130.289 134.886 129.874 134.438C129.46 133.983 128.888 133.756 128.161 133.756C127.673 133.756 127.241 133.861 126.866 134.071C126.496 134.281 126.207 134.588 125.996 134.991C125.792 135.389 125.687 135.869 125.681 136.432ZM142.946 144.256C141.599 144.256 140.44 143.983 139.469 143.438C138.503 142.886 137.759 142.108 137.236 141.102C136.713 140.091 136.452 138.895 136.452 137.514C136.452 136.168 136.713 134.986 137.236 133.969C137.759 132.952 138.494 132.159 139.443 131.591C140.398 131.023 141.517 130.739 142.801 130.739C143.665 130.739 144.469 130.878 145.213 131.156C145.963 131.429 146.616 131.841 147.173 132.392C147.736 132.943 148.173 133.636 148.486 134.472C148.798 135.301 148.955 136.273 148.955 137.386V138.384H137.901V136.134H145.537C145.537 135.611 145.423 135.148 145.196 134.744C144.969 134.341 144.653 134.026 144.25 133.798C143.852 133.565 143.389 133.449 142.861 133.449C142.31 133.449 141.821 133.577 141.395 133.832C140.974 134.082 140.645 134.42 140.406 134.847C140.168 135.267 140.045 135.736 140.04 136.253V138.392C140.04 139.04 140.159 139.599 140.398 140.071C140.642 140.543 140.986 140.906 141.429 141.162C141.872 141.418 142.398 141.545 143.006 141.545C143.409 141.545 143.778 141.489 144.114 141.375C144.449 141.261 144.736 141.091 144.974 140.864C145.213 140.636 145.395 140.358 145.52 140.028L148.878 140.25C148.707 141.057 148.358 141.761 147.83 142.364C147.307 142.96 146.631 143.426 145.801 143.761C144.977 144.091 144.026 144.256 142.946 144.256ZM154.955 136.432V144H151.324V130.909H154.784V133.219H154.938C155.227 132.457 155.713 131.855 156.395 131.412C157.077 130.963 157.903 130.739 158.875 130.739C159.784 130.739 160.577 130.938 161.253 131.335C161.929 131.733 162.455 132.301 162.83 133.04C163.205 133.773 163.392 134.648 163.392 135.665V144H159.761V136.312C159.767 135.511 159.563 134.886 159.148 134.438C158.733 133.983 158.162 133.756 157.435 133.756C156.946 133.756 156.514 133.861 156.139 134.071C155.77 134.281 155.48 134.588 155.27 134.991C155.065 135.389 154.96 135.869 154.955 136.432ZM173.217 130.909V133.636H165.333V130.909H173.217ZM167.123 127.773H170.754V139.977C170.754 140.312 170.805 140.574 170.907 140.761C171.009 140.943 171.151 141.071 171.333 141.145C171.521 141.219 171.737 141.256 171.981 141.256C172.151 141.256 172.322 141.241 172.492 141.213C172.663 141.179 172.793 141.153 172.884 141.136L173.455 143.838C173.273 143.895 173.018 143.96 172.688 144.034C172.359 144.114 171.958 144.162 171.487 144.179C170.612 144.213 169.844 144.097 169.185 143.83C168.532 143.562 168.023 143.148 167.66 142.585C167.296 142.023 167.117 141.312 167.123 140.455V127.773ZM184.767 136.432V144H181.136V126.545H184.665V133.219H184.818C185.114 132.446 185.591 131.841 186.25 131.403C186.909 130.96 187.736 130.739 188.73 130.739C189.639 130.739 190.432 130.938 191.108 131.335C191.79 131.727 192.318 132.293 192.693 133.031C193.074 133.764 193.261 134.642 193.256 135.665V144H189.625V136.312C189.631 135.506 189.426 134.878 189.011 134.429C188.602 133.98 188.028 133.756 187.29 133.756C186.795 133.756 186.358 133.861 185.977 134.071C185.602 134.281 185.307 134.588 185.091 134.991C184.881 135.389 184.773 135.869 184.767 136.432ZM202.079 144.256C200.732 144.256 199.573 143.983 198.602 143.438C197.636 142.886 196.891 142.108 196.369 141.102C195.846 140.091 195.585 138.895 195.585 137.514C195.585 136.168 195.846 134.986 196.369 133.969C196.891 132.952 197.627 132.159 198.576 131.591C199.531 131.023 200.65 130.739 201.934 130.739C202.798 130.739 203.602 130.878 204.346 131.156C205.096 131.429 205.749 131.841 206.306 132.392C206.869 132.943 207.306 133.636 207.619 134.472C207.931 135.301 208.087 136.273 208.087 137.386V138.384H197.033V136.134H204.67C204.67 135.611 204.556 135.148 204.329 134.744C204.102 134.341 203.786 134.026 203.383 133.798C202.985 133.565 202.522 133.449 201.994 133.449C201.442 133.449 200.954 133.577 200.528 133.832C200.107 134.082 199.778 134.42 199.539 134.847C199.3 135.267 199.178 135.736 199.173 136.253V138.392C199.173 139.04 199.292 139.599 199.531 140.071C199.775 140.543 200.119 140.906 200.562 141.162C201.005 141.418 201.531 141.545 202.138 141.545C202.542 141.545 202.911 141.489 203.246 141.375C203.582 141.261 203.869 141.091 204.107 140.864C204.346 140.636 204.528 140.358 204.653 140.028L208.011 140.25C207.84 141.057 207.491 141.761 206.962 142.364C206.44 142.96 205.763 143.426 204.934 143.761C204.11 144.091 203.158 144.256 202.079 144.256ZM210.457 144V130.909H213.977V133.193H214.113C214.352 132.381 214.752 131.767 215.315 131.352C215.877 130.932 216.525 130.722 217.258 130.722C217.44 130.722 217.636 130.733 217.846 130.756C218.056 130.778 218.241 130.81 218.4 130.849V134.071C218.229 134.02 217.994 133.974 217.692 133.935C217.391 133.895 217.116 133.875 216.866 133.875C216.332 133.875 215.854 133.991 215.434 134.224C215.019 134.452 214.69 134.77 214.445 135.179C214.207 135.588 214.087 136.06 214.087 136.594V144H210.457ZM225.634 144.256C224.287 144.256 223.128 143.983 222.156 143.438C221.19 142.886 220.446 142.108 219.923 141.102C219.401 140.091 219.139 138.895 219.139 137.514C219.139 136.168 219.401 134.986 219.923 133.969C220.446 132.952 221.182 132.159 222.131 131.591C223.085 131.023 224.205 130.739 225.489 130.739C226.352 130.739 227.156 130.878 227.901 131.156C228.651 131.429 229.304 131.841 229.861 132.392C230.423 132.943 230.861 133.636 231.173 134.472C231.486 135.301 231.642 136.273 231.642 137.386V138.384H220.588V136.134H228.224C228.224 135.611 228.111 135.148 227.884 134.744C227.656 134.341 227.341 134.026 226.938 133.798C226.54 133.565 226.077 133.449 225.548 133.449C224.997 133.449 224.509 133.577 224.082 133.832C223.662 134.082 223.332 134.42 223.094 134.847C222.855 135.267 222.733 135.736 222.727 136.253V138.392C222.727 139.04 222.847 139.599 223.085 140.071C223.33 140.543 223.673 140.906 224.116 141.162C224.56 141.418 225.085 141.545 225.693 141.545C226.097 141.545 226.466 141.489 226.801 141.375C227.136 141.261 227.423 141.091 227.662 140.864C227.901 140.636 228.082 140.358 228.207 140.028L231.565 140.25C231.395 141.057 231.045 141.761 230.517 142.364C229.994 142.96 229.318 143.426 228.489 143.761C227.665 144.091 226.713 144.256 225.634 144.256Z" fill="white" fill-opacity="0.95"/>
</svg>
