<svg width="1300" height="262" viewBox="0 0 1300 262" fill="none" xmlns="http://www.w3.org/2000/svg">
<rect width="1300" height="262" rx="24" fill="#262626"/>
<rect x="423.875" y="100" width="32" height="32" rx="16" fill="#DA0087"/>
<path d="M441.63 111.318V121.5H439.477V113.362H439.418L437.086 114.823V112.914L439.607 111.318H441.63Z" fill="white" fill-opacity="0.95"/>
<rect x="575.875" y="100" width="32" height="32" rx="16" fill="#DA0087"/>
<path d="M588.2 121.5V119.949L591.825 116.593C592.133 116.295 592.391 116.026 592.6 115.788C592.812 115.549 592.973 115.315 593.082 115.087C593.192 114.855 593.246 114.604 593.246 114.336C593.246 114.038 593.179 113.781 593.043 113.565C592.907 113.347 592.721 113.179 592.486 113.063C592.25 112.944 591.984 112.884 591.685 112.884C591.374 112.884 591.102 112.947 590.87 113.073C590.638 113.199 590.459 113.38 590.333 113.615C590.207 113.85 590.144 114.13 590.144 114.455H588.101C588.101 113.789 588.252 113.211 588.553 112.72C588.855 112.23 589.277 111.85 589.821 111.582C590.365 111.313 590.991 111.179 591.7 111.179C592.429 111.179 593.064 111.308 593.604 111.567C594.148 111.822 594.571 112.177 594.872 112.631C595.174 113.085 595.325 113.605 595.325 114.192C595.325 114.576 595.248 114.956 595.096 115.33C594.947 115.705 594.68 116.121 594.295 116.578C593.911 117.032 593.369 117.577 592.67 118.214L591.183 119.67V119.74H595.459V121.5H588.2Z" fill="white" fill-opacity="0.95"/>
<rect x="728.125" y="100" width="32" height="32" rx="16" fill="#DA0087"/>
<path d="M743.714 121.639C742.971 121.639 742.31 121.512 741.73 121.256C741.153 120.998 740.698 120.643 740.363 120.192C740.031 119.738 739.861 119.215 739.851 118.621H742.018C742.032 118.87 742.113 119.089 742.262 119.278C742.415 119.463 742.617 119.607 742.869 119.71C743.121 119.813 743.404 119.864 743.719 119.864C744.047 119.864 744.337 119.806 744.589 119.69C744.841 119.574 745.038 119.414 745.18 119.208C745.323 119.003 745.394 118.766 745.394 118.497C745.394 118.225 745.318 117.985 745.165 117.776C745.016 117.564 744.801 117.398 744.519 117.279C744.241 117.16 743.909 117.1 743.525 117.1H742.575V115.519H743.525C743.85 115.519 744.136 115.463 744.385 115.35C744.637 115.237 744.832 115.082 744.972 114.883C745.111 114.681 745.18 114.445 745.18 114.177C745.18 113.922 745.119 113.698 744.996 113.506C744.877 113.31 744.708 113.158 744.489 113.048C744.274 112.939 744.022 112.884 743.734 112.884C743.442 112.884 743.175 112.937 742.933 113.043C742.691 113.146 742.497 113.294 742.352 113.486C742.206 113.678 742.128 113.903 742.118 114.162H740.055C740.065 113.575 740.232 113.058 740.557 112.611C740.882 112.163 741.319 111.814 741.869 111.562C742.423 111.307 743.048 111.179 743.744 111.179C744.446 111.179 745.061 111.307 745.588 111.562C746.115 111.817 746.524 112.162 746.816 112.596C747.111 113.027 747.257 113.511 747.254 114.048C747.257 114.618 747.08 115.093 746.722 115.474C746.367 115.856 745.905 116.098 745.335 116.2V116.28C746.084 116.376 746.654 116.636 747.045 117.06C747.439 117.481 747.635 118.008 747.631 118.641C747.635 119.221 747.467 119.737 747.129 120.188C746.795 120.638 746.332 120.993 745.742 121.251C745.152 121.51 744.476 121.639 743.714 121.639Z" fill="white" fill-opacity="0.95"/>
<rect x="879.875" y="100" width="32" height="32" rx="16" fill="#DA0087"/>
<path d="M891.546 119.71V118.015L895.797 111.318H897.259V113.665H896.393L893.714 117.906V117.985H899.754V119.71H891.546ZM896.433 121.5V119.193L896.473 118.442V111.318H898.491V121.5H896.433Z" fill="white" fill-opacity="0.95"/>
<path d="M418.75 147.125C418.602 147.125 418.456 147.096 418.319 147.04C418.183 146.983 418.059 146.9 417.954 146.796C417.85 146.691 417.767 146.567 417.71 146.431C417.654 146.294 417.625 146.148 417.625 146C417.625 148.67 416.833 151.28 415.35 153.5C413.866 155.72 411.758 157.451 409.291 158.472C406.824 159.494 404.11 159.762 401.491 159.241C398.873 158.72 396.467 157.434 394.579 155.546C392.691 153.658 391.405 151.252 390.884 148.634C390.364 146.015 390.631 143.301 391.653 140.834C392.674 138.367 394.405 136.259 396.625 134.775C398.845 133.292 401.455 132.5 404.125 132.5C403.827 132.5 403.54 132.381 403.33 132.17C403.119 131.96 403 131.673 403 131.375C403 131.077 403.119 130.79 403.33 130.58C403.54 130.369 403.827 130.25 404.125 130.25C401.01 130.25 397.965 131.174 395.375 132.904C392.785 134.635 390.766 137.095 389.574 139.973C388.382 142.851 388.07 146.017 388.678 149.073C389.285 152.128 390.785 154.934 392.988 157.137C395.191 159.34 397.997 160.84 401.052 161.447C404.108 162.055 407.274 161.743 410.152 160.551C413.03 159.359 415.49 157.34 417.221 154.75C418.951 152.16 419.875 149.115 419.875 146C419.875 146.148 419.846 146.294 419.79 146.431C419.733 146.567 419.65 146.691 419.546 146.796C419.441 146.9 419.317 146.983 419.181 147.04C419.044 147.096 418.898 147.125 418.75 147.125Z" fill="#3B3B3B"/>
<path d="M403 131.375C403 131.523 403.029 131.669 403.085 131.806C403.142 131.942 403.225 132.066 403.329 132.171C403.434 132.275 403.558 132.358 403.694 132.415C403.831 132.471 403.977 132.5 404.125 132.5C407.704 132.504 411.136 133.927 413.667 136.458C416.198 138.989 417.621 142.421 417.625 146C417.625 146.298 417.744 146.585 417.955 146.795C418.165 147.006 418.452 147.125 418.75 147.125C419.048 147.125 419.335 147.006 419.545 146.795C419.756 146.585 419.875 146.298 419.875 146C419.87 141.824 418.209 137.821 415.257 134.868C412.304 131.916 408.301 130.255 404.125 130.25C403.977 130.25 403.831 130.279 403.694 130.335C403.558 130.392 403.434 130.475 403.329 130.579C403.225 130.684 403.142 130.808 403.085 130.944C403.029 131.081 403 131.227 403 131.375Z" fill="#3492EB"/>
<path d="M570.75 147.125C570.602 147.125 570.456 147.096 570.319 147.04C570.183 146.983 570.059 146.9 569.954 146.796C569.85 146.691 569.767 146.567 569.71 146.431C569.654 146.294 569.625 146.148 569.625 146C569.625 148.67 568.833 151.28 567.35 153.5C565.866 155.72 563.758 157.451 561.291 158.472C558.824 159.494 556.11 159.762 553.491 159.241C550.873 158.72 548.467 157.434 546.579 155.546C544.691 153.658 543.405 151.252 542.884 148.634C542.364 146.015 542.631 143.301 543.653 140.834C544.674 138.367 546.405 136.259 548.625 134.775C550.845 133.292 553.455 132.5 556.125 132.5C555.827 132.5 555.54 132.381 555.33 132.17C555.119 131.96 555 131.673 555 131.375C555 131.077 555.119 130.79 555.33 130.58C555.54 130.369 555.827 130.25 556.125 130.25C553.01 130.25 549.965 131.174 547.375 132.904C544.785 134.635 542.766 137.095 541.574 139.973C540.382 142.851 540.07 146.017 540.678 149.073C541.285 152.128 542.785 154.934 544.988 157.137C547.191 159.34 549.997 160.84 553.052 161.447C556.108 162.055 559.274 161.743 562.152 160.551C565.03 159.359 567.49 157.34 569.221 154.75C570.951 152.16 571.875 149.115 571.875 146C571.875 146.148 571.846 146.294 571.79 146.431C571.733 146.567 571.65 146.691 571.546 146.796C571.441 146.9 571.317 146.983 571.181 147.04C571.044 147.096 570.898 147.125 570.75 147.125Z" fill="#3B3B3B"/>
<path d="M555 131.375C555 131.523 555.029 131.669 555.085 131.806C555.142 131.942 555.225 132.066 555.329 132.171C555.434 132.275 555.558 132.358 555.694 132.415C555.831 132.471 555.977 132.5 556.125 132.5C559.704 132.504 563.136 133.927 565.667 136.458C568.198 138.989 569.621 142.421 569.625 146C569.625 146.298 569.744 146.585 569.955 146.795C570.165 147.006 570.452 147.125 570.75 147.125C571.048 147.125 571.335 147.006 571.545 146.795C571.756 146.585 571.875 146.298 571.875 146C571.87 141.824 570.209 137.821 567.257 134.868C564.304 131.916 560.301 130.255 556.125 130.25C555.977 130.25 555.831 130.279 555.694 130.335C555.558 130.392 555.434 130.475 555.329 130.579C555.225 130.684 555.142 130.808 555.085 130.944C555.029 131.081 555 131.227 555 131.375Z" fill="#3492EB"/>
<path d="M570.75 144.88C570.602 144.88 570.456 144.909 570.319 144.965C570.183 145.022 570.059 145.105 569.954 145.209C569.85 145.314 569.767 145.438 569.71 145.574C569.654 145.711 569.625 145.857 569.625 146.005C569.621 149.584 568.198 153.016 565.667 155.547C563.136 158.078 559.704 159.501 556.125 159.505C555.827 159.505 555.54 159.624 555.33 159.835C555.119 160.045 555 160.332 555 160.63C555 160.928 555.119 161.215 555.33 161.425C555.54 161.636 555.827 161.755 556.125 161.755C560.301 161.75 564.304 160.089 567.257 157.137C570.209 154.184 571.87 150.181 571.875 146.005C571.875 145.857 571.846 145.711 571.79 145.574C571.733 145.438 571.65 145.314 571.546 145.209C571.441 145.105 571.317 145.022 571.181 144.965C571.044 144.909 570.898 144.88 570.75 144.88Z" fill="#3492EB"/>
<path d="M541.51 144.88C541.658 144.88 541.804 144.909 541.94 144.965C542.077 145.022 542.201 145.105 542.305 145.209C542.41 145.314 542.493 145.438 542.549 145.574C542.606 145.711 542.635 145.857 542.635 146.005C542.639 149.584 544.062 153.016 546.593 155.547C549.124 158.078 552.556 159.501 556.135 159.505C556.433 159.505 556.719 159.624 556.93 159.835C557.141 160.045 557.26 160.332 557.26 160.63C557.26 160.928 557.141 161.215 556.93 161.425C556.719 161.636 556.433 161.755 556.135 161.755C551.959 161.75 547.956 160.089 545.003 157.137C542.05 154.184 540.389 150.181 540.385 146.005C540.385 145.857 540.414 145.711 540.47 145.574C540.527 145.438 540.61 145.314 540.714 145.209C540.819 145.105 540.943 145.022 541.079 144.965C541.216 144.909 541.362 144.88 541.51 144.88Z" fill="#3492EB"/>
<path d="M707 131.375C707 131.523 707.029 131.669 707.085 131.806C707.142 131.942 707.225 132.066 707.329 132.171C707.434 132.275 707.558 132.358 707.694 132.415C707.831 132.471 707.977 132.5 708.125 132.5C711.704 132.504 715.136 133.927 717.667 136.458C720.198 138.989 721.621 142.421 721.625 146C721.625 146.298 721.744 146.585 721.955 146.795C722.165 147.006 722.452 147.125 722.75 147.125C723.048 147.125 723.335 147.006 723.545 146.795C723.756 146.585 723.875 146.298 723.875 146C723.87 141.824 722.209 137.821 719.257 134.868C716.304 131.916 712.301 130.255 708.125 130.25C707.977 130.25 707.831 130.279 707.694 130.335C707.558 130.392 707.434 130.475 707.329 130.579C707.225 130.684 707.142 130.808 707.085 130.944C707.029 131.081 707 131.227 707 131.375Z" fill="#27A17A"/>
<path d="M705.125 151.125C705.043 151.125 704.961 151.109 704.885 151.077C704.809 151.046 704.74 150.999 704.682 150.941L700.182 146.419C700.124 146.36 700.078 146.291 700.047 146.215C700.016 146.14 700 146.058 700 145.976C700 145.894 700.017 145.813 700.048 145.737C700.08 145.661 700.126 145.593 700.184 145.535C700.242 145.477 700.311 145.431 700.387 145.4C700.463 145.369 700.545 145.353 700.627 145.353C700.709 145.353 700.79 145.37 700.866 145.401C700.941 145.433 701.01 145.479 701.068 145.537L705.159 149.648L715.218 141.026C715.344 140.918 715.508 140.865 715.673 140.878C715.838 140.89 715.991 140.968 716.099 141.094C716.207 141.22 716.26 141.383 716.248 141.548C716.235 141.713 716.157 141.867 716.031 141.975L705.532 150.974C705.419 151.072 705.274 151.125 705.125 151.125Z" fill="#27A17A"/>
<path d="M709.265 131.375C709.265 131.523 709.236 131.669 709.179 131.806C709.123 131.942 709.04 132.066 708.935 132.171C708.831 132.275 708.707 132.358 708.57 132.415C708.434 132.471 708.287 132.5 708.14 132.5C704.56 132.504 701.129 133.927 698.598 136.458C696.067 138.989 694.644 142.421 694.64 146C694.64 146.298 694.521 146.585 694.31 146.795C694.099 147.006 693.813 147.125 693.515 147.125C693.216 147.125 692.93 147.006 692.719 146.795C692.508 146.585 692.39 146.298 692.39 146C692.394 141.824 694.055 137.821 697.008 134.868C699.961 131.916 703.964 130.255 708.14 130.25C708.287 130.25 708.434 130.279 708.57 130.335C708.707 130.392 708.831 130.475 708.935 130.579C709.04 130.684 709.123 130.808 709.179 130.944C709.236 131.081 709.265 131.227 709.265 131.375Z" fill="#27A17A"/>
<path d="M722.75 144.88C722.602 144.88 722.456 144.909 722.319 144.965C722.183 145.022 722.059 145.105 721.954 145.209C721.85 145.314 721.767 145.438 721.71 145.574C721.654 145.711 721.625 145.857 721.625 146.005C721.621 149.584 720.198 153.016 717.667 155.547C715.136 158.078 711.704 159.501 708.125 159.505C707.827 159.505 707.54 159.624 707.33 159.835C707.119 160.045 707 160.332 707 160.63C707 160.928 707.119 161.215 707.33 161.425C707.54 161.636 707.827 161.755 708.125 161.755C712.301 161.75 716.304 160.089 719.257 157.137C722.209 154.184 723.87 150.181 723.875 146.005C723.875 145.857 723.846 145.711 723.79 145.574C723.733 145.438 723.65 145.314 723.546 145.209C723.441 145.105 723.317 145.022 723.181 144.965C723.044 144.909 722.898 144.88 722.75 144.88Z" fill="#27A17A"/>
<path d="M693.51 144.88C693.658 144.88 693.804 144.909 693.94 144.965C694.077 145.022 694.201 145.105 694.305 145.209C694.41 145.314 694.493 145.438 694.549 145.574C694.606 145.711 694.635 145.857 694.635 146.005C694.639 149.584 696.062 153.016 698.593 155.547C701.124 158.078 704.556 159.501 708.135 159.505C708.433 159.505 708.719 159.624 708.93 159.835C709.141 160.045 709.26 160.332 709.26 160.63C709.26 160.928 709.141 161.215 708.93 161.425C708.719 161.636 708.433 161.755 708.135 161.755C703.959 161.75 699.956 160.089 697.003 157.137C694.05 154.184 692.389 150.181 692.385 146.005C692.385 145.857 692.414 145.711 692.47 145.574C692.527 145.438 692.61 145.314 692.714 145.209C692.819 145.105 692.943 145.022 693.079 144.965C693.216 144.909 693.362 144.88 693.51 144.88Z" fill="#27A17A"/>
<path d="M859 131.375C859 131.523 859.029 131.669 859.085 131.806C859.142 131.942 859.225 132.066 859.329 132.171C859.434 132.275 859.558 132.358 859.694 132.415C859.831 132.471 859.977 132.5 860.125 132.5C863.704 132.504 867.136 133.927 869.667 136.458C872.198 138.989 873.621 142.421 873.625 146C873.625 146.298 873.744 146.585 873.955 146.795C874.165 147.006 874.452 147.125 874.75 147.125C875.048 147.125 875.335 147.006 875.545 146.795C875.756 146.585 875.875 146.298 875.875 146C875.87 141.824 874.209 137.821 871.257 134.868C868.304 131.916 864.301 130.255 860.125 130.25C859.977 130.25 859.831 130.279 859.694 130.335C859.558 130.392 859.434 130.475 859.329 130.579C859.225 130.684 859.142 130.808 859.085 130.944C859.029 131.081 859 131.227 859 131.375Z" fill="#F55868"/>
<path d="M860.125 154C860.832 154 861.405 153.427 861.405 152.72C861.405 152.013 860.832 151.44 860.125 151.44C859.418 151.44 858.845 152.013 858.845 152.72C858.845 153.427 859.418 154 860.125 154Z" fill="#F55868"/>
<path d="M860.125 148.88C860.38 148.88 860.624 148.779 860.804 148.599C860.984 148.419 861.085 148.175 861.085 147.92V138.96C861.085 138.705 860.984 138.461 860.804 138.281C860.624 138.101 860.38 138 860.125 138C859.87 138 859.626 138.101 859.446 138.281C859.266 138.461 859.165 138.705 859.165 138.96V147.92C859.165 148.175 859.266 148.419 859.446 148.599C859.626 148.779 859.87 148.88 860.125 148.88Z" fill="#F55868"/>
<path d="M861.266 131.375C861.266 131.523 861.237 131.669 861.18 131.806C861.124 131.942 861.041 132.066 860.936 132.171C860.832 132.275 860.708 132.358 860.571 132.415C860.435 132.471 860.288 132.5 860.141 132.5C856.561 132.504 853.13 133.927 850.599 136.458C848.068 138.989 846.645 142.421 846.641 146C846.641 146.298 846.522 146.585 846.311 146.795C846.1 147.006 845.814 147.125 845.516 147.125C845.217 147.125 844.931 147.006 844.72 146.795C844.509 146.585 844.391 146.298 844.391 146C844.395 141.824 846.056 137.821 849.009 134.868C851.962 131.916 855.965 130.255 860.141 130.25C860.288 130.25 860.435 130.279 860.571 130.335C860.708 130.392 860.832 130.475 860.936 130.579C861.041 130.684 861.124 130.808 861.18 130.944C861.237 131.081 861.266 131.227 861.266 131.375Z" fill="#F55868"/>
<path d="M874.75 144.88C874.602 144.88 874.456 144.909 874.319 144.965C874.183 145.022 874.059 145.105 873.954 145.209C873.85 145.314 873.767 145.438 873.71 145.574C873.654 145.711 873.625 145.857 873.625 146.005C873.621 149.584 872.198 153.016 869.667 155.547C867.136 158.077 863.704 159.501 860.125 159.505C859.827 159.505 859.54 159.623 859.33 159.834C859.119 160.045 859 160.332 859 160.63C859 160.928 859.119 161.214 859.33 161.425C859.54 161.636 859.827 161.755 860.125 161.755C864.301 161.75 868.304 160.089 871.257 157.137C874.209 154.184 875.87 150.181 875.875 146.005C875.875 145.857 875.846 145.711 875.79 145.574C875.733 145.438 875.65 145.314 875.546 145.209C875.441 145.105 875.317 145.022 875.181 144.965C875.044 144.909 874.898 144.88 874.75 144.88Z" fill="#F55868"/>
<path d="M845.51 144.88C845.658 144.88 845.804 144.909 845.94 144.965C846.077 145.022 846.201 145.105 846.305 145.209C846.41 145.314 846.493 145.438 846.549 145.574C846.606 145.711 846.635 145.857 846.635 146.005C846.639 149.584 848.062 153.016 850.593 155.547C853.124 158.077 856.556 159.501 860.135 159.505C860.433 159.505 860.719 159.623 860.93 159.834C861.141 160.045 861.26 160.332 861.26 160.63C861.26 160.928 861.141 161.214 860.93 161.425C860.719 161.636 860.433 161.755 860.135 161.755C855.959 161.75 851.956 160.089 849.003 157.137C846.05 154.184 844.389 150.181 844.385 146.005C844.385 145.857 844.414 145.711 844.47 145.574C844.527 145.438 844.61 145.314 844.714 145.209C844.819 145.105 844.943 145.022 845.079 144.965C845.216 144.909 845.362 144.88 845.51 144.88Z" fill="#F55868"/>
</svg>
