<svg width="634" height="245" viewBox="0 0 634 245" fill="none" xmlns="http://www.w3.org/2000/svg">
<rect width="634" height="245" rx="24" fill="#262626"/>
<path d="M505.5 108C505.5 111.866 502.366 115 498.5 115C494.634 115 491.5 111.866 491.5 108C491.5 104.134 494.634 101 498.5 101C502.366 101 505.5 104.134 505.5 108Z" stroke="#64B4FA" stroke-width="2"/>
<path d="M481.768 139V128.818H483.001V137.906H487.734V139H481.768ZM491.731 139.179C491.247 139.179 490.808 139.088 490.414 138.906C490.019 138.72 489.706 138.453 489.474 138.105C489.242 137.754 489.126 137.33 489.126 136.832C489.126 136.395 489.212 136.04 489.385 135.768C489.557 135.493 489.787 135.278 490.076 135.122C490.364 134.966 490.682 134.85 491.03 134.774C491.382 134.695 491.734 134.632 492.089 134.585C492.553 134.526 492.929 134.481 493.218 134.451C493.509 134.418 493.721 134.363 493.854 134.287C493.99 134.211 494.058 134.078 494.058 133.889V133.849C494.058 133.359 493.924 132.978 493.655 132.706C493.39 132.434 492.987 132.298 492.447 132.298C491.887 132.298 491.448 132.421 491.13 132.666C490.811 132.911 490.588 133.173 490.458 133.452L489.345 133.054C489.544 132.59 489.809 132.229 490.14 131.97C490.475 131.708 490.84 131.526 491.234 131.423C491.632 131.317 492.023 131.264 492.407 131.264C492.653 131.264 492.934 131.294 493.252 131.354C493.574 131.41 493.884 131.528 494.182 131.707C494.484 131.886 494.734 132.156 494.933 132.517C495.132 132.878 495.231 133.362 495.231 133.969V139H494.058V137.966H493.998C493.919 138.132 493.786 138.309 493.6 138.498C493.415 138.687 493.168 138.848 492.86 138.98C492.551 139.113 492.175 139.179 491.731 139.179ZM491.91 138.125C492.374 138.125 492.765 138.034 493.083 137.852C493.405 137.669 493.647 137.434 493.809 137.146C493.975 136.857 494.058 136.554 494.058 136.236V135.162C494.008 135.222 493.899 135.276 493.73 135.326C493.564 135.372 493.372 135.414 493.153 135.45C492.938 135.483 492.727 135.513 492.522 135.54C492.319 135.563 492.155 135.583 492.029 135.599C491.725 135.639 491.44 135.704 491.174 135.793C490.913 135.879 490.7 136.01 490.538 136.186C490.379 136.358 490.299 136.594 490.299 136.892C490.299 137.3 490.45 137.608 490.752 137.817C491.057 138.022 491.443 138.125 491.91 138.125ZM497.532 139V128.818H498.705V132.577H498.805C498.891 132.444 499.01 132.275 499.162 132.07C499.318 131.861 499.54 131.675 499.829 131.513C500.12 131.347 500.515 131.264 501.012 131.264C501.655 131.264 502.222 131.425 502.712 131.746C503.203 132.068 503.586 132.524 503.861 133.114C504.136 133.704 504.273 134.4 504.273 135.202C504.273 136.01 504.136 136.711 503.861 137.305C503.586 137.895 503.204 138.352 502.717 138.677C502.23 138.998 501.668 139.159 501.032 139.159C500.541 139.159 500.148 139.078 499.854 138.915C499.559 138.75 499.331 138.562 499.172 138.354C499.013 138.142 498.891 137.966 498.805 137.827H498.665V139H497.532ZM498.685 135.182C498.685 135.759 498.77 136.267 498.939 136.708C499.108 137.146 499.355 137.489 499.68 137.737C500.004 137.982 500.402 138.105 500.873 138.105C501.363 138.105 501.773 137.976 502.101 137.717C502.432 137.455 502.681 137.104 502.846 136.663C503.015 136.219 503.1 135.725 503.1 135.182C503.1 134.645 503.017 134.161 502.851 133.73C502.689 133.296 502.442 132.953 502.111 132.701C501.782 132.446 501.37 132.318 500.873 132.318C500.395 132.318 499.994 132.439 499.67 132.681C499.345 132.92 499.099 133.254 498.934 133.685C498.768 134.113 498.685 134.612 498.685 135.182ZM509.27 139.159C508.534 139.159 507.899 138.997 507.366 138.672C506.835 138.344 506.426 137.886 506.138 137.3C505.853 136.71 505.71 136.024 505.71 135.241C505.71 134.459 505.853 133.77 506.138 133.173C506.426 132.573 506.827 132.106 507.341 131.771C507.858 131.433 508.461 131.264 509.15 131.264C509.548 131.264 509.941 131.33 510.329 131.463C510.716 131.596 511.069 131.811 511.388 132.109C511.706 132.404 511.959 132.795 512.148 133.283C512.337 133.77 512.432 134.37 512.432 135.082V135.58H506.545V134.565H511.238C511.238 134.134 511.152 133.75 510.98 133.412C510.811 133.074 510.569 132.807 510.254 132.612C509.943 132.416 509.575 132.318 509.15 132.318C508.683 132.318 508.279 132.434 507.937 132.666C507.599 132.895 507.339 133.193 507.157 133.561C506.974 133.929 506.883 134.323 506.883 134.744V135.42C506.883 135.997 506.983 136.486 507.182 136.887C507.384 137.285 507.664 137.588 508.022 137.797C508.38 138.002 508.796 138.105 509.27 138.105C509.578 138.105 509.856 138.062 510.105 137.976C510.357 137.886 510.574 137.754 510.756 137.578C510.939 137.399 511.079 137.177 511.179 136.912L512.312 137.23C512.193 137.615 511.992 137.953 511.711 138.244C511.429 138.533 511.081 138.758 510.667 138.92C510.252 139.08 509.787 139.159 509.27 139.159ZM515.39 128.818V139H514.216V128.818H515.39Z" fill="white" fill-opacity="0.7"/>
<rect x="332.5" y="107" width="150" height="2" fill="#8F8F8F"/>
<path d="M323.5 108C323.5 111.866 320.366 115 316.5 115C312.634 115 309.5 111.866 309.5 108C309.5 104.134 312.634 101 316.5 101C320.366 101 323.5 104.134 323.5 108Z" stroke="#F55868" stroke-width="2"/>
<g clip-path="url(#clip0_2462_35145)">
<path d="M280.869 131.707L277.793 128.631C277.712 128.55 277.616 128.485 277.51 128.441C277.403 128.397 277.29 128.375 277.175 128.375H272.825C272.71 128.375 272.596 128.397 272.49 128.441C272.384 128.485 272.288 128.55 272.207 128.631L269.13 131.708C269.049 131.789 268.985 131.885 268.941 131.991C268.897 132.097 268.875 132.21 268.875 132.325V136.675C268.876 136.907 268.968 137.129 269.131 137.293L272.207 140.369C272.288 140.45 272.384 140.515 272.49 140.559C272.596 140.603 272.71 140.625 272.825 140.625H277.175C277.407 140.624 277.629 140.532 277.793 140.369L280.868 137.294C281.032 137.129 281.124 136.907 281.125 136.675V132.325C281.124 132.093 281.032 131.871 280.869 131.707ZM277.175 139.75L272.826 139.75L269.75 136.675L269.75 132.326L272.825 129.25H277.175L280.25 132.325L280.25 136.674L277.175 139.75Z" fill="#FC8B98"/>
<path d="M277.059 132.441C277.019 132.4 276.97 132.368 276.917 132.346C276.864 132.324 276.807 132.312 276.75 132.312C276.693 132.312 276.636 132.324 276.583 132.346C276.53 132.368 276.481 132.4 276.441 132.441L275 133.881L273.559 132.441C273.519 132.4 273.47 132.367 273.417 132.345C273.364 132.323 273.307 132.312 273.25 132.312C273.192 132.312 273.135 132.323 273.082 132.345C273.029 132.367 272.981 132.399 272.94 132.44C272.899 132.481 272.867 132.529 272.845 132.582C272.823 132.635 272.812 132.692 272.812 132.75C272.812 132.807 272.823 132.864 272.845 132.917C272.868 132.97 272.9 133.019 272.941 133.059L274.381 134.5L272.941 135.941C272.9 135.981 272.868 136.029 272.845 136.083C272.823 136.136 272.812 136.193 272.812 136.25C272.812 136.308 272.823 136.365 272.845 136.418C272.867 136.471 272.899 136.519 272.94 136.56C272.981 136.6 273.029 136.633 273.082 136.655C273.135 136.677 273.192 136.688 273.25 136.688C273.307 136.688 273.364 136.676 273.417 136.654C273.47 136.632 273.519 136.6 273.559 136.559L275 135.119L276.441 136.559C276.481 136.6 276.529 136.632 276.583 136.654C276.636 136.676 276.693 136.688 276.75 136.688C276.808 136.688 276.865 136.677 276.918 136.655C276.971 136.633 277.019 136.6 277.06 136.56C277.101 136.519 277.133 136.471 277.155 136.418C277.177 136.365 277.188 136.308 277.188 136.25C277.188 136.193 277.177 136.136 277.154 136.083C277.132 136.029 277.1 135.981 277.059 135.941L275.619 134.5L277.059 133.059C277.1 133.019 277.132 132.97 277.154 132.917C277.176 132.864 277.188 132.807 277.188 132.75C277.188 132.692 277.176 132.636 277.154 132.582C277.132 132.529 277.1 132.481 277.059 132.441Z" fill="#FC8B98"/>
<path d="M287.233 140V129.818H288.466V138.906H293.199V140H287.233ZM298.051 140.159C297.362 140.159 296.757 139.995 296.237 139.667C295.719 139.339 295.315 138.88 295.023 138.29C294.735 137.7 294.591 137.01 294.591 136.222C294.591 135.426 294.735 134.732 295.023 134.138C295.315 133.545 295.719 133.085 296.237 132.756C296.757 132.428 297.362 132.264 298.051 132.264C298.741 132.264 299.344 132.428 299.861 132.756C300.381 133.085 300.786 133.545 301.074 134.138C301.366 134.732 301.511 135.426 301.511 136.222C301.511 137.01 301.366 137.7 301.074 138.29C300.786 138.88 300.381 139.339 299.861 139.667C299.344 139.995 298.741 140.159 298.051 140.159ZM298.051 139.105C298.575 139.105 299.006 138.971 299.344 138.702C299.682 138.434 299.932 138.081 300.094 137.643C300.257 137.206 300.338 136.732 300.338 136.222C300.338 135.711 300.257 135.236 300.094 134.795C299.932 134.354 299.682 133.998 299.344 133.726C299.006 133.454 298.575 133.318 298.051 133.318C297.527 133.318 297.097 133.454 296.759 133.726C296.42 133.998 296.17 134.354 296.008 134.795C295.845 135.236 295.764 135.711 295.764 136.222C295.764 136.732 295.845 137.206 296.008 137.643C296.17 138.081 296.42 138.434 296.759 138.702C297.097 138.971 297.527 139.105 298.051 139.105ZM306.405 140.159C305.689 140.159 305.072 139.99 304.555 139.652C304.038 139.314 303.64 138.848 303.362 138.255C303.084 137.662 302.944 136.984 302.944 136.222C302.944 135.446 303.087 134.762 303.372 134.168C303.66 133.572 304.061 133.106 304.575 132.771C305.092 132.433 305.695 132.264 306.385 132.264C306.922 132.264 307.406 132.364 307.836 132.562C308.267 132.761 308.62 133.04 308.895 133.398C309.171 133.756 309.341 134.173 309.407 134.651H308.234C308.145 134.303 307.946 133.994 307.638 133.726C307.333 133.454 306.922 133.318 306.405 133.318C305.947 133.318 305.546 133.437 305.202 133.676C304.86 133.911 304.593 134.245 304.401 134.675C304.212 135.103 304.118 135.605 304.118 136.182C304.118 136.772 304.211 137.286 304.396 137.723C304.585 138.161 304.85 138.5 305.192 138.742C305.536 138.984 305.941 139.105 306.405 139.105C306.71 139.105 306.986 139.052 307.235 138.946C307.483 138.84 307.694 138.688 307.866 138.489C308.039 138.29 308.161 138.051 308.234 137.773H309.407C309.341 138.223 309.177 138.629 308.915 138.991C308.657 139.349 308.314 139.634 307.886 139.846C307.462 140.055 306.968 140.159 306.405 140.159ZM313.37 140.179C312.886 140.179 312.447 140.088 312.052 139.906C311.658 139.72 311.345 139.453 311.113 139.105C310.881 138.754 310.765 138.33 310.765 137.832C310.765 137.395 310.851 137.04 311.023 136.768C311.196 136.493 311.426 136.278 311.714 136.122C312.003 135.966 312.321 135.85 312.669 135.774C313.02 135.695 313.373 135.632 313.728 135.585C314.192 135.526 314.568 135.481 314.856 135.451C315.148 135.418 315.36 135.363 315.493 135.287C315.629 135.211 315.697 135.078 315.697 134.889V134.849C315.697 134.359 315.562 133.978 315.294 133.706C315.029 133.434 314.626 133.298 314.086 133.298C313.526 133.298 313.086 133.421 312.768 133.666C312.45 133.911 312.226 134.173 312.097 134.452L310.983 134.054C311.182 133.59 311.448 133.229 311.779 132.97C312.114 132.708 312.478 132.526 312.873 132.423C313.27 132.317 313.662 132.264 314.046 132.264C314.291 132.264 314.573 132.294 314.891 132.354C315.213 132.41 315.523 132.528 315.821 132.707C316.122 132.886 316.373 133.156 316.572 133.517C316.77 133.878 316.87 134.362 316.87 134.969V140H315.697V138.966H315.637C315.557 139.132 315.425 139.309 315.239 139.498C315.054 139.687 314.807 139.848 314.498 139.98C314.19 140.113 313.814 140.179 313.37 140.179ZM313.549 139.125C314.013 139.125 314.404 139.034 314.722 138.852C315.044 138.669 315.286 138.434 315.448 138.146C315.614 137.857 315.697 137.554 315.697 137.236V136.162C315.647 136.222 315.537 136.276 315.368 136.326C315.203 136.372 315.01 136.414 314.792 136.45C314.576 136.483 314.366 136.513 314.16 136.54C313.958 136.563 313.794 136.583 313.668 136.599C313.363 136.639 313.078 136.704 312.813 136.793C312.551 136.879 312.339 137.01 312.177 137.186C312.018 137.358 311.938 137.594 311.938 137.892C311.938 138.3 312.089 138.608 312.39 138.817C312.695 139.022 313.081 139.125 313.549 139.125ZM320.185 129.818V140H319.011V129.818H320.185ZM322.334 140V132.364H323.507V140H322.334ZM322.93 131.091C322.702 131.091 322.504 131.013 322.339 130.857C322.176 130.701 322.095 130.514 322.095 130.295C322.095 130.077 322.176 129.889 322.339 129.734C322.504 129.578 322.702 129.5 322.93 129.5C323.159 129.5 323.354 129.578 323.517 129.734C323.683 129.889 323.765 130.077 323.765 130.295C323.765 130.514 323.683 130.701 323.517 130.857C323.354 131.013 323.159 131.091 322.93 131.091ZM325.437 140V139.105L329.772 133.537V133.457H325.576V132.364H331.284V133.298L327.068 138.827V138.906H331.423V140H325.437ZM335.477 140.179C334.993 140.179 334.554 140.088 334.16 139.906C333.765 139.72 333.452 139.453 333.22 139.105C332.988 138.754 332.872 138.33 332.872 137.832C332.872 137.395 332.958 137.04 333.131 136.768C333.303 136.493 333.533 136.278 333.822 136.122C334.11 135.966 334.428 135.85 334.776 135.774C335.128 135.695 335.481 135.632 335.835 135.585C336.299 135.526 336.675 135.481 336.964 135.451C337.255 135.418 337.468 135.363 337.6 135.287C337.736 135.211 337.804 135.078 337.804 134.889V134.849C337.804 134.359 337.67 133.978 337.401 133.706C337.136 133.434 336.733 133.298 336.193 133.298C335.633 133.298 335.194 133.421 334.876 133.666C334.558 133.911 334.334 134.173 334.205 134.452L333.091 134.054C333.29 133.59 333.555 133.229 333.886 132.97C334.221 132.708 334.586 132.526 334.98 132.423C335.378 132.317 335.769 132.264 336.153 132.264C336.399 132.264 336.68 132.294 336.999 132.354C337.32 132.41 337.63 132.528 337.928 132.707C338.23 132.886 338.48 133.156 338.679 133.517C338.878 133.878 338.977 134.362 338.977 134.969V140H337.804V138.966H337.744C337.665 139.132 337.532 139.309 337.347 139.498C337.161 139.687 336.914 139.848 336.606 139.98C336.298 140.113 335.921 140.179 335.477 140.179ZM335.656 139.125C336.12 139.125 336.511 139.034 336.83 138.852C337.151 138.669 337.393 138.434 337.555 138.146C337.721 137.857 337.804 137.554 337.804 137.236V136.162C337.754 136.222 337.645 136.276 337.476 136.326C337.31 136.372 337.118 136.414 336.899 136.45C336.684 136.483 336.473 136.513 336.268 136.54C336.066 136.563 335.902 136.583 335.776 136.599C335.471 136.639 335.186 136.704 334.92 136.793C334.659 136.879 334.446 137.01 334.284 137.186C334.125 137.358 334.045 137.594 334.045 137.892C334.045 138.3 334.196 138.608 334.498 138.817C334.803 139.022 335.189 139.125 335.656 139.125ZM344.44 132.364V133.358H340.482V132.364H344.44ZM341.636 130.534H342.809V137.812C342.809 138.144 342.857 138.393 342.953 138.558C343.053 138.721 343.179 138.83 343.331 138.886C343.487 138.939 343.651 138.966 343.823 138.966C343.953 138.966 344.059 138.959 344.142 138.946C344.224 138.929 344.291 138.916 344.34 138.906L344.579 139.96C344.499 139.99 344.388 140.02 344.246 140.05C344.103 140.083 343.923 140.099 343.704 140.099C343.373 140.099 343.048 140.028 342.73 139.886C342.415 139.743 342.153 139.526 341.944 139.234C341.739 138.943 341.636 138.575 341.636 138.131V130.534ZM346.205 140V132.364H347.378V140H346.205ZM346.801 131.091C346.573 131.091 346.375 131.013 346.21 130.857C346.047 130.701 345.966 130.514 345.966 130.295C345.966 130.077 346.047 129.889 346.21 129.734C346.375 129.578 346.573 129.5 346.801 129.5C347.03 129.5 347.226 129.578 347.388 129.734C347.554 129.889 347.637 130.077 347.637 130.295C347.637 130.514 347.554 130.701 347.388 130.857C347.226 131.013 347.03 131.091 346.801 131.091ZM352.629 140.159C351.94 140.159 351.335 139.995 350.815 139.667C350.298 139.339 349.893 138.88 349.602 138.29C349.313 137.7 349.169 137.01 349.169 136.222C349.169 135.426 349.313 134.732 349.602 134.138C349.893 133.545 350.298 133.085 350.815 132.756C351.335 132.428 351.94 132.264 352.629 132.264C353.319 132.264 353.922 132.428 354.439 132.756C354.959 133.085 355.364 133.545 355.652 134.138C355.944 134.732 356.089 135.426 356.089 136.222C356.089 137.01 355.944 137.7 355.652 138.29C355.364 138.88 354.959 139.339 354.439 139.667C353.922 139.995 353.319 140.159 352.629 140.159ZM352.629 139.105C353.153 139.105 353.584 138.971 353.922 138.702C354.26 138.434 354.51 138.081 354.673 137.643C354.835 137.206 354.916 136.732 354.916 136.222C354.916 135.711 354.835 135.236 354.673 134.795C354.51 134.354 354.26 133.998 353.922 133.726C353.584 133.454 353.153 133.318 352.629 133.318C352.106 133.318 351.675 133.454 351.337 133.726C350.999 133.998 350.748 134.354 350.586 134.795C350.424 135.236 350.342 135.711 350.342 136.222C350.342 136.732 350.424 137.206 350.586 137.643C350.748 138.081 350.999 138.434 351.337 138.702C351.675 138.971 352.106 139.105 352.629 139.105ZM359.054 135.406V140H357.881V132.364H359.014V133.557H359.113C359.292 133.169 359.564 132.857 359.929 132.622C360.293 132.384 360.764 132.264 361.341 132.264C361.858 132.264 362.31 132.37 362.698 132.582C363.086 132.791 363.387 133.109 363.603 133.537C363.818 133.961 363.926 134.498 363.926 135.148V140H362.753V135.227C362.753 134.627 362.597 134.16 362.285 133.825C361.974 133.487 361.546 133.318 361.003 133.318C360.628 133.318 360.293 133.399 359.998 133.562C359.707 133.724 359.476 133.961 359.307 134.273C359.138 134.584 359.054 134.962 359.054 135.406Z" fill="white" fill-opacity="0.7"/>
</g>
<rect x="150.5" y="107" width="150" height="2" fill="#3492EB"/>
<path fill-rule="evenodd" clip-rule="evenodd" d="M134.5 116C138.918 116 142.5 112.418 142.5 108C142.5 103.582 138.918 100 134.5 100C130.082 100 126.5 103.582 126.5 108C126.5 112.418 130.082 116 134.5 116Z" fill="#3492EB"/>
<g clip-path="url(#clip1_2462_35145)">
<path d="M90.0534 138.006C90.9214 138.006 91.6354 137.731 92.1954 137.18C92.6807 136.704 92.9421 136.125 92.9794 135.444H94.4214C94.3841 136.107 94.1787 136.723 93.8054 137.292C93.4227 137.871 92.9141 138.328 92.2794 138.664C91.5981 139.028 90.8467 139.21 90.0254 139.21C88.5041 139.21 87.3281 138.692 86.4974 137.656C85.7694 136.741 85.4054 135.509 85.4054 133.96C85.4054 132.187 85.9047 130.829 86.9034 129.886C87.7341 129.102 88.8121 128.71 90.1374 128.71C91.3974 128.71 92.4427 129.097 93.2734 129.872C93.9641 130.507 94.3421 131.267 94.4074 132.154H92.9654C92.8721 131.417 92.5407 130.843 91.9714 130.432C91.4674 130.077 90.8561 129.9 90.1374 129.9C89.0641 129.9 88.2381 130.283 87.6594 131.048C87.1274 131.748 86.8614 132.719 86.8614 133.96C86.8614 135.323 87.1974 136.368 87.8694 137.096C88.4294 137.703 89.1574 138.006 90.0534 138.006ZM97.2986 139H95.9546V131.72H97.0606L97.2426 132.798C97.6533 131.939 98.2693 131.51 99.0906 131.51C99.3613 131.51 99.6273 131.543 99.8886 131.608V132.952C99.5713 132.868 99.2866 132.826 99.0346 132.826C98.4933 132.826 98.0686 133.045 97.7606 133.484C97.4526 133.923 97.2986 134.543 97.2986 135.346V139ZM105.764 136.9H107.22C107.015 137.637 106.609 138.216 106.002 138.636C105.433 139.019 104.751 139.21 103.958 139.21C102.81 139.21 101.914 138.846 101.27 138.118C100.682 137.437 100.388 136.517 100.388 135.36C100.388 134.044 100.761 133.045 101.508 132.364C102.124 131.795 102.917 131.51 103.888 131.51C105.027 131.51 105.885 131.879 106.464 132.616C107.024 133.325 107.304 134.338 107.304 135.654H101.76C101.816 136.513 102.077 137.152 102.544 137.572C102.927 137.908 103.412 138.076 104 138.076C104.457 138.076 104.854 137.95 105.19 137.698C105.47 137.483 105.661 137.217 105.764 136.9ZM103.916 132.588C103.319 132.588 102.838 132.775 102.474 133.148C102.129 133.493 101.909 133.974 101.816 134.59H105.932C105.885 133.89 105.652 133.367 105.232 133.022C104.896 132.733 104.457 132.588 103.916 132.588ZM110.064 133.75H108.636C108.71 133.022 109.056 132.457 109.672 132.056C110.222 131.692 110.918 131.51 111.758 131.51C112.756 131.51 113.522 131.771 114.054 132.294C114.502 132.742 114.726 133.321 114.726 134.03V139H113.62L113.452 138.006C112.882 138.809 112.07 139.21 111.016 139.21C110.185 139.21 109.536 138.986 109.07 138.538C108.687 138.165 108.496 137.693 108.496 137.124C108.496 136.405 108.743 135.85 109.238 135.458C109.676 135.113 110.348 134.861 111.254 134.702L113.382 134.338V133.974C113.382 133.498 113.218 133.139 112.892 132.896C112.602 132.681 112.206 132.574 111.702 132.574C110.712 132.574 110.166 132.966 110.064 133.75ZM111.338 138.076C111.907 138.076 112.402 137.889 112.822 137.516C113.195 137.171 113.382 136.774 113.382 136.326V135.388L111.576 135.71C110.913 135.822 110.46 135.995 110.218 136.228C110.022 136.415 109.924 136.667 109.924 136.984C109.924 137.339 110.045 137.609 110.288 137.796C110.53 137.983 110.88 138.076 111.338 138.076ZM119.861 137.922V139.07C119.515 139.163 119.184 139.21 118.867 139.21C118.195 139.21 117.691 139 117.355 138.58C117.065 138.235 116.921 137.773 116.921 137.194V132.868H115.843V131.72H116.921L117.005 129.97H118.265V131.72H119.833V132.868H118.265V137.222C118.265 137.763 118.521 138.034 119.035 138.034C119.277 138.034 119.553 137.997 119.861 137.922ZM126.012 136.9H127.468C127.263 137.637 126.857 138.216 126.25 138.636C125.681 139.019 125 139.21 124.206 139.21C123.058 139.21 122.162 138.846 121.518 138.118C120.93 137.437 120.636 136.517 120.636 135.36C120.636 134.044 121.01 133.045 121.756 132.364C122.372 131.795 123.166 131.51 124.136 131.51C125.275 131.51 126.134 131.879 126.712 132.616C127.272 133.325 127.552 134.338 127.552 135.654H122.008C122.064 136.513 122.326 137.152 122.792 137.572C123.175 137.908 123.66 138.076 124.248 138.076C124.706 138.076 125.102 137.95 125.438 137.698C125.718 137.483 125.91 137.217 126.012 136.9ZM124.164 132.588C123.567 132.588 123.086 132.775 122.722 133.148C122.377 133.493 122.158 133.974 122.064 134.59H126.18C126.134 133.89 125.9 133.367 125.48 133.022C125.144 132.733 124.706 132.588 124.164 132.588ZM134.509 133.75H133.081C133.156 133.022 133.501 132.457 134.117 132.056C134.668 131.692 135.363 131.51 136.203 131.51C137.202 131.51 137.967 131.771 138.499 132.294C138.947 132.742 139.171 133.321 139.171 134.03V139H138.065L137.897 138.006C137.328 138.809 136.516 139.21 135.461 139.21C134.63 139.21 133.982 138.986 133.515 138.538C133.132 138.165 132.941 137.693 132.941 137.124C132.941 136.405 133.188 135.85 133.683 135.458C134.122 135.113 134.794 134.861 135.699 134.702L137.827 134.338V133.974C137.827 133.498 137.664 133.139 137.337 132.896C137.048 132.681 136.651 132.574 136.147 132.574C135.158 132.574 134.612 132.966 134.509 133.75ZM135.783 138.076C136.352 138.076 136.847 137.889 137.267 137.516C137.64 137.171 137.827 136.774 137.827 136.326V135.388L136.021 135.71C135.358 135.822 134.906 135.995 134.663 136.228C134.467 136.415 134.369 136.667 134.369 136.984C134.369 137.339 134.49 137.609 134.733 137.796C134.976 137.983 135.326 138.076 135.783 138.076ZM145.804 136.662H147.274C147.162 137.446 146.793 138.076 146.168 138.552C145.599 138.991 144.903 139.21 144.082 139.21C143.009 139.21 142.155 138.841 141.52 138.104C140.932 137.423 140.638 136.527 140.638 135.416C140.638 134.128 140.993 133.129 141.702 132.42C142.309 131.813 143.097 131.51 144.068 131.51C144.964 131.51 145.701 131.748 146.28 132.224C146.793 132.644 147.106 133.195 147.218 133.876H145.734C145.641 133.484 145.449 133.181 145.16 132.966C144.88 132.751 144.525 132.644 144.096 132.644C143.433 132.644 142.925 132.905 142.57 133.428C142.234 133.913 142.066 134.59 142.066 135.458C142.066 136.363 142.29 137.049 142.738 137.516C143.093 137.889 143.55 138.076 144.11 138.076C144.595 138.076 144.992 137.936 145.3 137.656C145.571 137.413 145.739 137.082 145.804 136.662ZM153.556 136.662H155.026C154.914 137.446 154.545 138.076 153.92 138.552C153.351 138.991 152.655 139.21 151.834 139.21C150.761 139.21 149.907 138.841 149.272 138.104C148.684 137.423 148.39 136.527 148.39 135.416C148.39 134.128 148.745 133.129 149.454 132.42C150.061 131.813 150.849 131.51 151.82 131.51C152.716 131.51 153.453 131.748 154.032 132.224C154.545 132.644 154.858 133.195 154.97 133.876H153.486C153.393 133.484 153.201 133.181 152.912 132.966C152.632 132.751 152.277 132.644 151.848 132.644C151.185 132.644 150.677 132.905 150.322 133.428C149.986 133.913 149.818 134.59 149.818 135.458C149.818 136.363 150.042 137.049 150.49 137.516C150.845 137.889 151.302 138.076 151.862 138.076C152.347 138.076 152.744 137.936 153.052 137.656C153.323 137.413 153.491 137.082 153.556 136.662ZM156.142 135.36C156.142 134.025 156.539 133.017 157.332 132.336C157.967 131.785 158.769 131.51 159.74 131.51C160.869 131.51 161.756 131.869 162.4 132.588C163.016 133.26 163.324 134.184 163.324 135.36C163.324 136.676 162.937 137.679 162.162 138.37C161.527 138.93 160.715 139.21 159.726 139.21C158.597 139.21 157.705 138.837 157.052 138.09C156.445 137.409 156.142 136.499 156.142 135.36ZM157.542 135.36C157.542 136.293 157.78 137.007 158.256 137.502C158.648 137.913 159.147 138.118 159.754 138.118C160.463 138.118 161.009 137.852 161.392 137.32C161.747 136.835 161.924 136.181 161.924 135.36C161.924 134.408 161.691 133.689 161.224 133.204C160.841 132.803 160.347 132.602 159.74 132.602C159.04 132.602 158.494 132.868 158.102 133.4C157.729 133.885 157.542 134.539 157.542 135.36ZM164.791 131.72H166.135V136.494C166.135 137.539 166.639 138.062 167.647 138.062C168.263 138.062 168.734 137.843 169.061 137.404C169.313 137.068 169.439 136.653 169.439 136.158V131.72H170.783V139H169.677L169.523 138.16C169.01 138.86 168.282 139.21 167.339 139.21C166.508 139.21 165.869 138.953 165.421 138.44C165.001 137.964 164.791 137.306 164.791 136.466V131.72ZM174.094 139H172.75V131.72H173.856L174.01 132.644C174.551 131.888 175.288 131.51 176.222 131.51C177.08 131.51 177.738 131.776 178.196 132.308C178.597 132.784 178.798 133.433 178.798 134.254V139H177.454V134.268C177.454 133.195 176.936 132.658 175.9 132.658C175.358 132.658 174.915 132.845 174.57 133.218C174.252 133.554 174.094 133.983 174.094 134.506V139ZM183.941 137.922V139.07C183.596 139.163 183.264 139.21 182.947 139.21C182.275 139.21 181.771 139 181.435 138.58C181.146 138.235 181.001 137.773 181.001 137.194V132.868H179.923V131.72H181.001L181.085 129.97H182.345V131.72H183.913V132.868H182.345V137.222C182.345 137.763 182.602 138.034 183.115 138.034C183.358 138.034 183.633 137.997 183.941 137.922Z" fill="white" fill-opacity="0.95"/>
</g>
<defs>
<clipPath id="clip0_2462_35145">
<rect width="97" height="21" fill="white" transform="translate(268 124)"/>
</clipPath>
<clipPath id="clip1_2462_35145">
<rect width="160" height="21" fill="white" transform="translate(54.5 124)"/>
</clipPath>
</defs>
</svg>
