<svg width="484" height="144" viewBox="0 0 484 144" fill="none" xmlns="http://www.w3.org/2000/svg">
<rect width="484" height="144" rx="16" fill="#1A1A1A"/>
<rect x="163" y="64.5" width="15" height="15" rx="1.5" stroke="white" stroke-opacity="0.4"/>
<path d="M195.926 68H194.693C194.62 67.6454 194.493 67.3338 194.31 67.0653C194.131 66.7969 193.913 66.5715 193.654 66.3892C193.399 66.2036 193.116 66.0644 192.804 65.9716C192.492 65.8788 192.168 65.8324 191.83 65.8324C191.213 65.8324 190.655 65.9882 190.154 66.2997C189.657 66.6113 189.261 67.0703 188.966 67.6768C188.674 68.2834 188.528 69.0275 188.528 69.9091C188.528 70.7907 188.674 71.5348 188.966 72.1413C189.261 72.7479 189.657 73.2069 190.154 73.5185C190.655 73.83 191.213 73.9858 191.83 73.9858C192.168 73.9858 192.492 73.9394 192.804 73.8466C193.116 73.7538 193.399 73.6162 193.654 73.4339C193.913 73.2483 194.131 73.0213 194.31 72.7528C194.493 72.4811 194.62 72.1695 194.693 71.8182H195.926C195.833 72.3385 195.664 72.8042 195.419 73.2152C195.174 73.6262 194.869 73.9759 194.504 74.2642C194.14 74.5492 193.73 74.7663 193.276 74.9155C192.826 75.0646 192.343 75.1392 191.83 75.1392C190.961 75.1392 190.189 74.9271 189.513 74.5028C188.837 74.0786 188.305 73.4754 187.917 72.6932C187.529 71.911 187.335 70.983 187.335 69.9091C187.335 68.8352 187.529 67.9072 187.917 67.125C188.305 66.3428 188.837 65.7396 189.513 65.3153C190.189 64.8911 190.961 64.679 191.83 64.679C192.343 64.679 192.826 64.7536 193.276 64.9027C193.73 65.0518 194.14 65.2706 194.504 65.5589C194.869 65.844 195.174 66.192 195.419 66.603C195.664 67.0107 195.833 67.4763 195.926 68ZM198.933 70.4062V75H197.759V64.8182H198.933V68.5568H199.032C199.211 68.1624 199.48 67.8492 199.838 67.6172C200.199 67.3819 200.679 67.2642 201.279 67.2642C201.8 67.2642 202.255 67.3686 202.646 67.5774C203.038 67.7829 203.341 68.0994 203.556 68.527C203.775 68.9512 203.884 69.4915 203.884 70.1477V75H202.711V70.2273C202.711 69.6207 202.554 69.1518 202.239 68.8203C201.927 68.4856 201.495 68.3182 200.941 68.3182C200.557 68.3182 200.212 68.3994 199.907 68.5618C199.606 68.7242 199.367 68.9612 199.191 69.2727C199.019 69.5843 198.933 69.9621 198.933 70.4062ZM209.233 75.1591C208.497 75.1591 207.862 74.9967 207.328 74.6719C206.798 74.3438 206.389 73.8864 206.1 73.2997C205.815 72.7098 205.673 72.0237 205.673 71.2415C205.673 70.4593 205.815 69.7699 206.1 69.1733C206.389 68.5734 206.79 68.1061 207.304 67.7713C207.821 67.4332 208.424 67.2642 209.113 67.2642C209.511 67.2642 209.904 67.3305 210.292 67.4631C210.679 67.5956 211.032 67.8111 211.35 68.1094C211.669 68.4044 211.922 68.7955 212.111 69.2827C212.3 69.7699 212.395 70.3698 212.395 71.0824V71.5795H206.508V70.5653H211.201C211.201 70.1345 211.115 69.75 210.943 69.4119C210.774 69.0739 210.532 68.8071 210.217 68.6115C209.905 68.416 209.538 68.3182 209.113 68.3182C208.646 68.3182 208.242 68.4342 207.9 68.6662C207.562 68.8949 207.302 69.1932 207.12 69.5611C206.937 69.929 206.846 70.3234 206.846 70.7443V71.4205C206.846 71.9972 206.946 72.486 207.145 72.8871C207.347 73.2848 207.627 73.5881 207.985 73.7969C208.343 74.0024 208.759 74.1051 209.233 74.1051C209.541 74.1051 209.819 74.062 210.068 73.9759C210.32 73.8864 210.537 73.7538 210.719 73.5781C210.901 73.3991 211.042 73.1771 211.142 72.9119L212.275 73.2301C212.156 73.6146 211.955 73.9527 211.674 74.2443C211.392 74.5327 211.044 74.758 210.63 74.9205C210.215 75.0795 209.75 75.1591 209.233 75.1591ZM217.282 75.1591C216.566 75.1591 215.949 74.9901 215.432 74.652C214.915 74.3139 214.517 73.8482 214.239 73.255C213.961 72.6617 213.821 71.9839 213.821 71.2216C213.821 70.446 213.964 69.7616 214.249 69.1683C214.537 68.5717 214.938 68.1061 215.452 67.7713C215.969 67.4332 216.572 67.2642 217.262 67.2642C217.799 67.2642 218.283 67.3636 218.713 67.5625C219.144 67.7614 219.497 68.0398 219.772 68.3977C220.047 68.7557 220.218 69.1733 220.284 69.6506H219.111C219.022 69.3026 218.823 68.9943 218.515 68.7259C218.21 68.4541 217.799 68.3182 217.282 68.3182C216.824 68.3182 216.423 68.4375 216.078 68.6761C215.737 68.9115 215.47 69.2446 215.278 69.6754C215.089 70.103 214.995 70.6051 214.995 71.1818C214.995 71.7718 215.087 72.2855 215.273 72.723C215.462 73.1605 215.727 73.5002 216.069 73.7422C216.413 73.9841 216.818 74.1051 217.282 74.1051C217.587 74.1051 217.863 74.0521 218.112 73.946C218.36 73.84 218.571 73.6875 218.743 73.4886C218.916 73.2898 219.038 73.0511 219.111 72.7727H220.284C220.218 73.2235 220.054 73.6295 219.792 73.9908C219.534 74.3487 219.191 74.6338 218.763 74.8459C218.339 75.0547 217.845 75.1591 217.282 75.1591ZM223.093 72.2159L223.074 70.7642H223.312L226.653 67.3636H228.105L224.545 70.9631H224.446L223.093 72.2159ZM222 75V64.8182H223.173V75H222ZM226.852 75L223.869 71.2216L224.704 70.4062L228.343 75H226.852ZM229.774 75V64.8182H230.947V68.5767H231.047C231.133 68.4441 231.252 68.2751 231.405 68.0696C231.56 67.8608 231.782 67.6752 232.071 67.5128C232.363 67.3471 232.757 67.2642 233.254 67.2642C233.897 67.2642 234.464 67.425 234.954 67.7464C235.445 68.0679 235.828 68.5237 236.103 69.1136C236.378 69.7036 236.515 70.3996 236.515 71.2017C236.515 72.0104 236.378 72.7114 236.103 73.3047C235.828 73.8946 235.447 74.352 234.959 74.6768C234.472 74.9983 233.91 75.1591 233.274 75.1591C232.783 75.1591 232.391 75.0779 232.096 74.9155C231.801 74.7498 231.574 74.5625 231.415 74.3537C231.256 74.1416 231.133 73.9659 231.047 73.8267H230.907V75H229.774ZM230.927 71.1818C230.927 71.7585 231.012 72.2673 231.181 72.7081C231.35 73.1456 231.597 73.4886 231.922 73.7372C232.247 73.9825 232.644 74.1051 233.115 74.1051C233.605 74.1051 234.015 73.9759 234.343 73.7173C234.674 73.4555 234.923 73.1042 235.089 72.6634C235.258 72.2192 235.342 71.7254 235.342 71.1818C235.342 70.6449 235.259 70.161 235.094 69.7301C234.931 69.2959 234.684 68.9529 234.353 68.701C234.025 68.4458 233.612 68.3182 233.115 68.3182C232.638 68.3182 232.237 68.4392 231.912 68.6811C231.587 68.9197 231.342 69.2545 231.176 69.6854C231.01 70.1129 230.927 70.6117 230.927 71.1818ZM241.412 75.1591C240.723 75.1591 240.118 74.995 239.598 74.6669C239.081 74.3388 238.676 73.8797 238.385 73.2898C238.096 72.6998 237.952 72.0104 237.952 71.2216C237.952 70.4261 238.096 69.7318 238.385 69.1385C238.676 68.5452 239.081 68.0845 239.598 67.7564C240.118 67.4283 240.723 67.2642 241.412 67.2642C242.102 67.2642 242.705 67.4283 243.222 67.7564C243.742 68.0845 244.147 68.5452 244.435 69.1385C244.727 69.7318 244.873 70.4261 244.873 71.2216C244.873 72.0104 244.727 72.6998 244.435 73.2898C244.147 73.8797 243.742 74.3388 243.222 74.6669C242.705 74.995 242.102 75.1591 241.412 75.1591ZM241.412 74.1051C241.936 74.1051 242.367 73.9709 242.705 73.7024C243.043 73.4339 243.293 73.081 243.456 72.6435C243.618 72.206 243.699 71.732 243.699 71.2216C243.699 70.7112 243.618 70.2356 243.456 69.7947C243.293 69.3539 243.043 68.9976 242.705 68.7259C242.367 68.4541 241.936 68.3182 241.412 68.3182C240.889 68.3182 240.458 68.4541 240.12 68.7259C239.782 68.9976 239.532 69.3539 239.369 69.7947C239.207 70.2356 239.126 70.7112 239.126 71.2216C239.126 71.732 239.207 72.206 239.369 72.6435C239.532 73.081 239.782 73.4339 240.12 73.7024C240.458 73.9709 240.889 74.1051 241.412 74.1051ZM247.224 67.3636L249.054 70.4858L250.883 67.3636H252.236L249.77 71.1818L252.236 75H250.883L249.054 72.0369L247.224 75H245.872L248.298 71.1818L245.872 67.3636H247.224ZM258.006 75V64.8182H259.239V73.9062H263.972V75H258.006ZM267.969 75.179C267.486 75.179 267.046 75.0878 266.652 74.9055C266.258 74.7199 265.944 74.4531 265.712 74.1051C265.48 73.7538 265.364 73.3295 265.364 72.8324C265.364 72.3949 265.451 72.0402 265.623 71.7685C265.795 71.4934 266.026 71.2779 266.314 71.1222C266.602 70.9664 266.92 70.8504 267.268 70.7741C267.62 70.6946 267.973 70.6316 268.327 70.5852C268.791 70.5256 269.168 70.4808 269.456 70.451C269.748 70.4179 269.96 70.3632 270.092 70.2869C270.228 70.2107 270.296 70.0781 270.296 69.8892V69.8494C270.296 69.3589 270.162 68.9777 269.893 68.706C269.628 68.4342 269.226 68.2983 268.685 68.2983C268.125 68.2983 267.686 68.4209 267.368 68.6662C267.05 68.9115 266.826 69.1733 266.697 69.4517L265.583 69.054C265.782 68.59 266.047 68.2287 266.379 67.9702C266.713 67.7083 267.078 67.526 267.472 67.4233C267.87 67.3172 268.261 67.2642 268.646 67.2642C268.891 67.2642 269.173 67.294 269.491 67.3537C269.812 67.41 270.122 67.5277 270.42 67.7067C270.722 67.8857 270.972 68.1558 271.171 68.517C271.37 68.8783 271.469 69.3622 271.469 69.9688V75H270.296V73.9659H270.237C270.157 74.1316 270.024 74.3089 269.839 74.4979C269.653 74.6868 269.406 74.8475 269.098 74.9801C268.79 75.1127 268.414 75.179 267.969 75.179ZM268.148 74.125C268.612 74.125 269.004 74.0339 269.322 73.8516C269.643 73.6693 269.885 73.4339 270.048 73.1456C270.213 72.8572 270.296 72.554 270.296 72.2358V71.1619C270.246 71.2216 270.137 71.2763 269.968 71.326C269.802 71.3724 269.61 71.4138 269.391 71.4503C269.176 71.4834 268.965 71.5133 268.76 71.5398C268.558 71.563 268.394 71.5829 268.268 71.5994C267.963 71.6392 267.678 71.7038 267.413 71.7933C267.151 71.8795 266.939 72.0104 266.776 72.1861C266.617 72.3584 266.538 72.5937 266.538 72.892C266.538 73.2997 266.688 73.608 266.99 73.8168C267.295 74.0223 267.681 74.125 268.148 74.125ZM273.77 75V64.8182H274.943V68.5767H275.043C275.129 68.4441 275.248 68.2751 275.401 68.0696C275.557 67.8608 275.779 67.6752 276.067 67.5128C276.359 67.3471 276.753 67.2642 277.25 67.2642C277.893 67.2642 278.46 67.425 278.95 67.7464C279.441 68.0679 279.824 68.5237 280.099 69.1136C280.374 69.7036 280.512 70.3996 280.512 71.2017C280.512 72.0104 280.374 72.7114 280.099 73.3047C279.824 73.8946 279.443 74.352 278.955 74.6768C278.468 74.9983 277.906 75.1591 277.27 75.1591C276.78 75.1591 276.387 75.0779 276.092 74.9155C275.797 74.7498 275.57 74.5625 275.411 74.3537C275.252 74.1416 275.129 73.9659 275.043 73.8267H274.904V75H273.77ZM274.923 71.1818C274.923 71.7585 275.008 72.2673 275.177 72.7081C275.346 73.1456 275.593 73.4886 275.918 73.7372C276.243 73.9825 276.64 74.1051 277.111 74.1051C277.602 74.1051 278.011 73.9759 278.339 73.7173C278.67 73.4555 278.919 73.1042 279.085 72.6634C279.254 72.2192 279.338 71.7254 279.338 71.1818C279.338 70.6449 279.255 70.161 279.09 69.7301C278.927 69.2959 278.68 68.9529 278.349 68.701C278.021 68.4458 277.608 68.3182 277.111 68.3182C276.634 68.3182 276.233 68.4392 275.908 68.6811C275.583 68.9197 275.338 69.2545 275.172 69.6854C275.006 70.1129 274.923 70.6117 274.923 71.1818ZM285.508 75.1591C284.772 75.1591 284.137 74.9967 283.604 74.6719C283.074 74.3438 282.664 73.8864 282.376 73.2997C282.091 72.7098 281.948 72.0237 281.948 71.2415C281.948 70.4593 282.091 69.7699 282.376 69.1733C282.664 68.5734 283.065 68.1061 283.579 67.7713C284.096 67.4332 284.699 67.2642 285.389 67.2642C285.786 67.2642 286.179 67.3305 286.567 67.4631C286.955 67.5956 287.308 67.8111 287.626 68.1094C287.944 68.4044 288.198 68.7955 288.387 69.2827C288.575 69.7699 288.67 70.3698 288.67 71.0824V71.5795H282.784V70.5653H287.477C287.477 70.1345 287.391 69.75 287.218 69.4119C287.049 69.0739 286.807 68.8071 286.492 68.6115C286.181 68.416 285.813 68.3182 285.389 68.3182C284.921 68.3182 284.517 68.4342 284.176 68.6662C283.838 68.8949 283.577 69.1932 283.395 69.5611C283.213 69.929 283.122 70.3234 283.122 70.7443V71.4205C283.122 71.9972 283.221 72.486 283.42 72.8871C283.622 73.2848 283.902 73.5881 284.26 73.7969C284.618 74.0024 285.034 74.1051 285.508 74.1051C285.816 74.1051 286.095 74.062 286.343 73.9759C286.595 73.8864 286.812 73.7538 286.994 73.5781C287.177 73.3991 287.318 73.1771 287.417 72.9119L288.551 73.2301C288.431 73.6146 288.231 73.9527 287.949 74.2443C287.667 74.5327 287.319 74.758 286.905 74.9205C286.491 75.0795 286.025 75.1591 285.508 75.1591ZM291.628 64.8182V75H290.455V64.8182H291.628Z" fill="white" fill-opacity="0.95"/>
<path d="M311.5 76.75C315.228 76.75 318.25 73.7279 318.25 70C318.25 66.2721 315.228 63.25 311.5 63.25C307.772 63.25 304.75 66.2721 304.75 70C304.75 73.7279 307.772 76.75 311.5 76.75ZM309.786 65.7143C309.786 64.9253 310.425 64.2857 311.214 64.2857C312.003 64.2857 312.643 64.9253 312.643 65.7143C312.643 66.5033 312.003 67.1429 311.214 67.1429C310.425 67.1429 309.786 66.5033 309.786 65.7143ZM310.357 70C309.726 70 309.214 69.4883 309.214 68.8571C309.214 68.226 309.726 67.7143 310.357 67.7143H311.5C312.131 67.7143 312.643 68.226 312.643 68.8571V72.8571H313.786C314.417 72.8571 314.929 73.3688 314.929 74C314.929 74.6312 314.417 75.1429 313.786 75.1429H309.214C308.583 75.1429 308.071 74.6312 308.071 74C308.071 73.3688 308.583 72.8571 309.214 72.8571H310.357V70Z" fill="white" fill-opacity="0.95"/>
</svg>
