<svg width="484" height="144" viewBox="0 0 484 144" fill="none" xmlns="http://www.w3.org/2000/svg">
<rect width="484" height="144" rx="16" fill="#1A1A1A"/>
<rect x="177" y="64.5" width="15" height="15" rx="1.5" stroke="white" stroke-opacity="0.4"/>
<path d="M209.926 68H208.693C208.62 67.6454 208.493 67.3338 208.31 67.0653C208.131 66.7969 207.913 66.5715 207.654 66.3892C207.399 66.2036 207.116 66.0644 206.804 65.9716C206.492 65.8788 206.168 65.8324 205.83 65.8324C205.213 65.8324 204.655 65.9882 204.154 66.2997C203.657 66.6113 203.261 67.0703 202.966 67.6768C202.674 68.2834 202.528 69.0275 202.528 69.9091C202.528 70.7907 202.674 71.5348 202.966 72.1413C203.261 72.7479 203.657 73.2069 204.154 73.5185C204.655 73.83 205.213 73.9858 205.83 73.9858C206.168 73.9858 206.492 73.9394 206.804 73.8466C207.116 73.7538 207.399 73.6162 207.654 73.4339C207.913 73.2483 208.131 73.0213 208.31 72.7528C208.493 72.4811 208.62 72.1695 208.693 71.8182H209.926C209.833 72.3385 209.664 72.8042 209.419 73.2152C209.174 73.6262 208.869 73.9759 208.504 74.2642C208.14 74.5492 207.73 74.7663 207.276 74.9155C206.826 75.0646 206.343 75.1392 205.83 75.1392C204.961 75.1392 204.189 74.9271 203.513 74.5028C202.837 74.0786 202.305 73.4754 201.917 72.6932C201.529 71.911 201.335 70.983 201.335 69.9091C201.335 68.8352 201.529 67.9072 201.917 67.125C202.305 66.3428 202.837 65.7396 203.513 65.3153C204.189 64.8911 204.961 64.679 205.83 64.679C206.343 64.679 206.826 64.7536 207.276 64.9027C207.73 65.0518 208.14 65.2706 208.504 65.5589C208.869 65.844 209.174 66.192 209.419 66.603C209.664 67.0107 209.833 67.4763 209.926 68ZM212.933 70.4062V75H211.759V64.8182H212.933V68.5568H213.032C213.211 68.1624 213.48 67.8492 213.838 67.6172C214.199 67.3819 214.679 67.2642 215.279 67.2642C215.8 67.2642 216.255 67.3686 216.646 67.5774C217.038 67.7829 217.341 68.0994 217.556 68.527C217.775 68.9512 217.884 69.4915 217.884 70.1477V75H216.711V70.2273C216.711 69.6207 216.554 69.1518 216.239 68.8203C215.927 68.4856 215.495 68.3182 214.941 68.3182C214.557 68.3182 214.212 68.3994 213.907 68.5618C213.606 68.7242 213.367 68.9612 213.191 69.2727C213.019 69.5843 212.933 69.9621 212.933 70.4062ZM223.233 75.1591C222.497 75.1591 221.862 74.9967 221.328 74.6719C220.798 74.3438 220.389 73.8864 220.1 73.2997C219.815 72.7098 219.673 72.0237 219.673 71.2415C219.673 70.4593 219.815 69.7699 220.1 69.1733C220.389 68.5734 220.79 68.1061 221.304 67.7713C221.821 67.4332 222.424 67.2642 223.113 67.2642C223.511 67.2642 223.904 67.3305 224.292 67.4631C224.679 67.5956 225.032 67.8111 225.35 68.1094C225.669 68.4044 225.922 68.7955 226.111 69.2827C226.3 69.7699 226.395 70.3698 226.395 71.0824V71.5795H220.508V70.5653H225.201C225.201 70.1345 225.115 69.75 224.943 69.4119C224.774 69.0739 224.532 68.8071 224.217 68.6115C223.905 68.416 223.538 68.3182 223.113 68.3182C222.646 68.3182 222.242 68.4342 221.9 68.6662C221.562 68.8949 221.302 69.1932 221.12 69.5611C220.937 69.929 220.846 70.3234 220.846 70.7443V71.4205C220.846 71.9972 220.946 72.486 221.145 72.8871C221.347 73.2848 221.627 73.5881 221.985 73.7969C222.343 74.0024 222.759 74.1051 223.233 74.1051C223.541 74.1051 223.819 74.062 224.068 73.9759C224.32 73.8864 224.537 73.7538 224.719 73.5781C224.901 73.3991 225.042 73.1771 225.142 72.9119L226.275 73.2301C226.156 73.6146 225.955 73.9527 225.674 74.2443C225.392 74.5327 225.044 74.758 224.63 74.9205C224.215 75.0795 223.75 75.1591 223.233 75.1591ZM231.282 75.1591C230.566 75.1591 229.949 74.9901 229.432 74.652C228.915 74.3139 228.517 73.8482 228.239 73.255C227.961 72.6617 227.821 71.9839 227.821 71.2216C227.821 70.446 227.964 69.7616 228.249 69.1683C228.537 68.5717 228.938 68.1061 229.452 67.7713C229.969 67.4332 230.572 67.2642 231.262 67.2642C231.799 67.2642 232.283 67.3636 232.713 67.5625C233.144 67.7614 233.497 68.0398 233.772 68.3977C234.047 68.7557 234.218 69.1733 234.284 69.6506H233.111C233.022 69.3026 232.823 68.9943 232.515 68.7259C232.21 68.4541 231.799 68.3182 231.282 68.3182C230.824 68.3182 230.423 68.4375 230.078 68.6761C229.737 68.9115 229.47 69.2446 229.278 69.6754C229.089 70.103 228.995 70.6051 228.995 71.1818C228.995 71.7718 229.087 72.2855 229.273 72.723C229.462 73.1605 229.727 73.5002 230.069 73.7422C230.413 73.9841 230.818 74.1051 231.282 74.1051C231.587 74.1051 231.863 74.0521 232.112 73.946C232.36 73.84 232.571 73.6875 232.743 73.4886C232.916 73.2898 233.038 73.0511 233.111 72.7727H234.284C234.218 73.2235 234.054 73.6295 233.792 73.9908C233.534 74.3487 233.191 74.6338 232.763 74.8459C232.339 75.0547 231.845 75.1591 231.282 75.1591ZM237.093 72.2159L237.074 70.7642H237.312L240.653 67.3636H242.105L238.545 70.9631H238.446L237.093 72.2159ZM236 75V64.8182H237.173V75H236ZM240.852 75L237.869 71.2216L238.704 70.4062L242.343 75H240.852ZM243.774 75V64.8182H244.947V68.5767H245.047C245.133 68.4441 245.252 68.2751 245.405 68.0696C245.56 67.8608 245.782 67.6752 246.071 67.5128C246.363 67.3471 246.757 67.2642 247.254 67.2642C247.897 67.2642 248.464 67.425 248.954 67.7464C249.445 68.0679 249.828 68.5237 250.103 69.1136C250.378 69.7036 250.515 70.3996 250.515 71.2017C250.515 72.0104 250.378 72.7114 250.103 73.3047C249.828 73.8946 249.447 74.352 248.959 74.6768C248.472 74.9983 247.91 75.1591 247.274 75.1591C246.783 75.1591 246.391 75.0779 246.096 74.9155C245.801 74.7498 245.574 74.5625 245.415 74.3537C245.256 74.1416 245.133 73.9659 245.047 73.8267H244.907V75H243.774ZM244.927 71.1818C244.927 71.7585 245.012 72.2673 245.181 72.7081C245.35 73.1456 245.597 73.4886 245.922 73.7372C246.247 73.9825 246.644 74.1051 247.115 74.1051C247.605 74.1051 248.015 73.9759 248.343 73.7173C248.674 73.4555 248.923 73.1042 249.089 72.6634C249.258 72.2192 249.342 71.7254 249.342 71.1818C249.342 70.6449 249.259 70.161 249.094 69.7301C248.931 69.2959 248.684 68.9529 248.353 68.701C248.025 68.4458 247.612 68.3182 247.115 68.3182C246.638 68.3182 246.237 68.4392 245.912 68.6811C245.587 68.9197 245.342 69.2545 245.176 69.6854C245.01 70.1129 244.927 70.6117 244.927 71.1818ZM255.412 75.1591C254.723 75.1591 254.118 74.995 253.598 74.6669C253.081 74.3388 252.676 73.8797 252.385 73.2898C252.096 72.6998 251.952 72.0104 251.952 71.2216C251.952 70.4261 252.096 69.7318 252.385 69.1385C252.676 68.5452 253.081 68.0845 253.598 67.7564C254.118 67.4283 254.723 67.2642 255.412 67.2642C256.102 67.2642 256.705 67.4283 257.222 67.7564C257.742 68.0845 258.147 68.5452 258.435 69.1385C258.727 69.7318 258.873 70.4261 258.873 71.2216C258.873 72.0104 258.727 72.6998 258.435 73.2898C258.147 73.8797 257.742 74.3388 257.222 74.6669C256.705 74.995 256.102 75.1591 255.412 75.1591ZM255.412 74.1051C255.936 74.1051 256.367 73.9709 256.705 73.7024C257.043 73.4339 257.293 73.081 257.456 72.6435C257.618 72.206 257.699 71.732 257.699 71.2216C257.699 70.7112 257.618 70.2356 257.456 69.7947C257.293 69.3539 257.043 68.9976 256.705 68.7259C256.367 68.4541 255.936 68.3182 255.412 68.3182C254.889 68.3182 254.458 68.4541 254.12 68.7259C253.782 68.9976 253.532 69.3539 253.369 69.7947C253.207 70.2356 253.126 70.7112 253.126 71.2216C253.126 71.732 253.207 72.206 253.369 72.6435C253.532 73.081 253.782 73.4339 254.12 73.7024C254.458 73.9709 254.889 74.1051 255.412 74.1051ZM261.224 67.3636L263.054 70.4858L264.883 67.3636H266.236L263.77 71.1818L266.236 75H264.883L263.054 72.0369L261.224 75H259.872L262.298 71.1818L259.872 67.3636H261.224ZM272.006 75V64.8182H273.239V73.9062H277.972V75H272.006ZM281.969 75.179C281.486 75.179 281.046 75.0878 280.652 74.9055C280.258 74.7199 279.944 74.4531 279.712 74.1051C279.48 73.7538 279.364 73.3295 279.364 72.8324C279.364 72.3949 279.451 72.0402 279.623 71.7685C279.795 71.4934 280.026 71.2779 280.314 71.1222C280.602 70.9664 280.92 70.8504 281.268 70.7741C281.62 70.6946 281.973 70.6316 282.327 70.5852C282.791 70.5256 283.168 70.4808 283.456 70.451C283.748 70.4179 283.96 70.3632 284.092 70.2869C284.228 70.2107 284.296 70.0781 284.296 69.8892V69.8494C284.296 69.3589 284.162 68.9777 283.893 68.706C283.628 68.4342 283.226 68.2983 282.685 68.2983C282.125 68.2983 281.686 68.4209 281.368 68.6662C281.05 68.9115 280.826 69.1733 280.697 69.4517L279.583 69.054C279.782 68.59 280.047 68.2287 280.379 67.9702C280.713 67.7083 281.078 67.526 281.472 67.4233C281.87 67.3172 282.261 67.2642 282.646 67.2642C282.891 67.2642 283.173 67.294 283.491 67.3537C283.812 67.41 284.122 67.5277 284.42 67.7067C284.722 67.8857 284.972 68.1558 285.171 68.517C285.37 68.8783 285.469 69.3622 285.469 69.9688V75H284.296V73.9659H284.237C284.157 74.1316 284.024 74.3089 283.839 74.4979C283.653 74.6868 283.406 74.8475 283.098 74.9801C282.79 75.1127 282.414 75.179 281.969 75.179ZM282.148 74.125C282.612 74.125 283.004 74.0339 283.322 73.8516C283.643 73.6693 283.885 73.4339 284.048 73.1456C284.213 72.8572 284.296 72.554 284.296 72.2358V71.1619C284.246 71.2216 284.137 71.2763 283.968 71.326C283.802 71.3724 283.61 71.4138 283.391 71.4503C283.176 71.4834 282.965 71.5133 282.76 71.5398C282.558 71.563 282.394 71.5829 282.268 71.5994C281.963 71.6392 281.678 71.7038 281.413 71.7933C281.151 71.8795 280.939 72.0104 280.776 72.1861C280.617 72.3584 280.538 72.5937 280.538 72.892C280.538 73.2997 280.688 73.608 280.99 73.8168C281.295 74.0223 281.681 74.125 282.148 74.125ZM287.77 75V64.8182H288.943V68.5767H289.043C289.129 68.4441 289.248 68.2751 289.401 68.0696C289.557 67.8608 289.779 67.6752 290.067 67.5128C290.359 67.3471 290.753 67.2642 291.25 67.2642C291.893 67.2642 292.46 67.425 292.95 67.7464C293.441 68.0679 293.824 68.5237 294.099 69.1136C294.374 69.7036 294.512 70.3996 294.512 71.2017C294.512 72.0104 294.374 72.7114 294.099 73.3047C293.824 73.8946 293.443 74.352 292.955 74.6768C292.468 74.9983 291.906 75.1591 291.27 75.1591C290.78 75.1591 290.387 75.0779 290.092 74.9155C289.797 74.7498 289.57 74.5625 289.411 74.3537C289.252 74.1416 289.129 73.9659 289.043 73.8267H288.904V75H287.77ZM288.923 71.1818C288.923 71.7585 289.008 72.2673 289.177 72.7081C289.346 73.1456 289.593 73.4886 289.918 73.7372C290.243 73.9825 290.64 74.1051 291.111 74.1051C291.602 74.1051 292.011 73.9759 292.339 73.7173C292.67 73.4555 292.919 73.1042 293.085 72.6634C293.254 72.2192 293.338 71.7254 293.338 71.1818C293.338 70.6449 293.255 70.161 293.09 69.7301C292.927 69.2959 292.68 68.9529 292.349 68.701C292.021 68.4458 291.608 68.3182 291.111 68.3182C290.634 68.3182 290.233 68.4392 289.908 68.6811C289.583 68.9197 289.338 69.2545 289.172 69.6854C289.006 70.1129 288.923 70.6117 288.923 71.1818ZM299.508 75.1591C298.772 75.1591 298.137 74.9967 297.604 74.6719C297.074 74.3438 296.664 73.8864 296.376 73.2997C296.091 72.7098 295.948 72.0237 295.948 71.2415C295.948 70.4593 296.091 69.7699 296.376 69.1733C296.664 68.5734 297.065 68.1061 297.579 67.7713C298.096 67.4332 298.699 67.2642 299.389 67.2642C299.786 67.2642 300.179 67.3305 300.567 67.4631C300.955 67.5956 301.308 67.8111 301.626 68.1094C301.944 68.4044 302.198 68.7955 302.387 69.2827C302.575 69.7699 302.67 70.3698 302.67 71.0824V71.5795H296.784V70.5653H301.477C301.477 70.1345 301.391 69.75 301.218 69.4119C301.049 69.0739 300.807 68.8071 300.492 68.6115C300.181 68.416 299.813 68.3182 299.389 68.3182C298.921 68.3182 298.517 68.4342 298.176 68.6662C297.838 68.8949 297.577 69.1932 297.395 69.5611C297.213 69.929 297.122 70.3234 297.122 70.7443V71.4205C297.122 71.9972 297.221 72.486 297.42 72.8871C297.622 73.2848 297.902 73.5881 298.26 73.7969C298.618 74.0024 299.034 74.1051 299.508 74.1051C299.816 74.1051 300.095 74.062 300.343 73.9759C300.595 73.8864 300.812 73.7538 300.994 73.5781C301.177 73.3991 301.318 73.1771 301.417 72.9119L302.551 73.2301C302.431 73.6146 302.231 73.9527 301.949 74.2443C301.667 74.5327 301.319 74.758 300.905 74.9205C300.491 75.0795 300.025 75.1591 299.508 75.1591ZM305.628 64.8182V75H304.455V64.8182H305.628Z" fill="white" fill-opacity="0.95"/>
</svg>
