<svg width="634" height="144" viewBox="0 0 634 144" fill="none" xmlns="http://www.w3.org/2000/svg">
<rect width="634" height="144" rx="24" fill="#262626"/>
<rect x="252" y="64.5" width="15" height="15" rx="1.5" stroke="white" stroke-opacity="0.4"/>
<path d="M284.926 68H283.693C283.62 67.6454 283.493 67.3338 283.31 67.0653C283.131 66.7969 282.913 66.5715 282.654 66.3892C282.399 66.2036 282.116 66.0644 281.804 65.9716C281.492 65.8788 281.168 65.8324 280.83 65.8324C280.213 65.8324 279.655 65.9882 279.154 66.2997C278.657 66.6113 278.261 67.0703 277.966 67.6768C277.674 68.2834 277.528 69.0275 277.528 69.9091C277.528 70.7907 277.674 71.5348 277.966 72.1413C278.261 72.7479 278.657 73.2069 279.154 73.5185C279.655 73.83 280.213 73.9858 280.83 73.9858C281.168 73.9858 281.492 73.9394 281.804 73.8466C282.116 73.7538 282.399 73.6162 282.654 73.4339C282.913 73.2483 283.131 73.0213 283.31 72.7528C283.493 72.4811 283.62 72.1695 283.693 71.8182H284.926C284.833 72.3385 284.664 72.8042 284.419 73.2152C284.174 73.6262 283.869 73.9759 283.504 74.2642C283.14 74.5492 282.73 74.7663 282.276 74.9155C281.826 75.0646 281.343 75.1392 280.83 75.1392C279.961 75.1392 279.189 74.9271 278.513 74.5028C277.837 74.0786 277.305 73.4754 276.917 72.6932C276.529 71.911 276.335 70.983 276.335 69.9091C276.335 68.8352 276.529 67.9072 276.917 67.125C277.305 66.3428 277.837 65.7396 278.513 65.3153C279.189 64.8911 279.961 64.679 280.83 64.679C281.343 64.679 281.826 64.7536 282.276 64.9027C282.73 65.0518 283.14 65.2706 283.504 65.5589C283.869 65.844 284.174 66.192 284.419 66.603C284.664 67.0107 284.833 67.4763 284.926 68ZM287.933 70.4062V75H286.759V64.8182H287.933V68.5568H288.032C288.211 68.1624 288.48 67.8492 288.838 67.6172C289.199 67.3819 289.679 67.2642 290.279 67.2642C290.8 67.2642 291.255 67.3686 291.646 67.5774C292.038 67.7829 292.341 68.0994 292.556 68.527C292.775 68.9512 292.884 69.4915 292.884 70.1477V75H291.711V70.2273C291.711 69.6207 291.554 69.1518 291.239 68.8203C290.927 68.4856 290.495 68.3182 289.941 68.3182C289.557 68.3182 289.212 68.3994 288.907 68.5618C288.606 68.7242 288.367 68.9612 288.191 69.2727C288.019 69.5843 287.933 69.9621 287.933 70.4062ZM298.233 75.1591C297.497 75.1591 296.862 74.9967 296.328 74.6719C295.798 74.3438 295.389 73.8864 295.1 73.2997C294.815 72.7098 294.673 72.0237 294.673 71.2415C294.673 70.4593 294.815 69.7699 295.1 69.1733C295.389 68.5734 295.79 68.1061 296.304 67.7713C296.821 67.4332 297.424 67.2642 298.113 67.2642C298.511 67.2642 298.904 67.3305 299.292 67.4631C299.679 67.5956 300.032 67.8111 300.35 68.1094C300.669 68.4044 300.922 68.7955 301.111 69.2827C301.3 69.7699 301.395 70.3698 301.395 71.0824V71.5795H295.508V70.5653H300.201C300.201 70.1345 300.115 69.75 299.943 69.4119C299.774 69.0739 299.532 68.8071 299.217 68.6115C298.905 68.416 298.538 68.3182 298.113 68.3182C297.646 68.3182 297.242 68.4342 296.9 68.6662C296.562 68.8949 296.302 69.1932 296.12 69.5611C295.937 69.929 295.846 70.3234 295.846 70.7443V71.4205C295.846 71.9972 295.946 72.486 296.145 72.8871C296.347 73.2848 296.627 73.5881 296.985 73.7969C297.343 74.0024 297.759 74.1051 298.233 74.1051C298.541 74.1051 298.819 74.062 299.068 73.9759C299.32 73.8864 299.537 73.7538 299.719 73.5781C299.901 73.3991 300.042 73.1771 300.142 72.9119L301.275 73.2301C301.156 73.6146 300.955 73.9527 300.674 74.2443C300.392 74.5327 300.044 74.758 299.63 74.9205C299.215 75.0795 298.75 75.1591 298.233 75.1591ZM306.282 75.1591C305.566 75.1591 304.949 74.9901 304.432 74.652C303.915 74.3139 303.517 73.8482 303.239 73.255C302.961 72.6617 302.821 71.9839 302.821 71.2216C302.821 70.446 302.964 69.7616 303.249 69.1683C303.537 68.5717 303.938 68.1061 304.452 67.7713C304.969 67.4332 305.572 67.2642 306.262 67.2642C306.799 67.2642 307.283 67.3636 307.713 67.5625C308.144 67.7614 308.497 68.0398 308.772 68.3977C309.047 68.7557 309.218 69.1733 309.284 69.6506H308.111C308.022 69.3026 307.823 68.9943 307.515 68.7259C307.21 68.4541 306.799 68.3182 306.282 68.3182C305.824 68.3182 305.423 68.4375 305.078 68.6761C304.737 68.9115 304.47 69.2446 304.278 69.6754C304.089 70.103 303.995 70.6051 303.995 71.1818C303.995 71.7718 304.087 72.2855 304.273 72.723C304.462 73.1605 304.727 73.5002 305.069 73.7422C305.413 73.9841 305.818 74.1051 306.282 74.1051C306.587 74.1051 306.863 74.0521 307.112 73.946C307.36 73.84 307.571 73.6875 307.743 73.4886C307.916 73.2898 308.038 73.0511 308.111 72.7727H309.284C309.218 73.2235 309.054 73.6295 308.792 73.9908C308.534 74.3487 308.191 74.6338 307.763 74.8459C307.339 75.0547 306.845 75.1591 306.282 75.1591ZM312.093 72.2159L312.074 70.7642H312.312L315.653 67.3636H317.105L313.545 70.9631H313.446L312.093 72.2159ZM311 75V64.8182H312.173V75H311ZM315.852 75L312.869 71.2216L313.704 70.4062L317.343 75H315.852ZM318.774 75V64.8182H319.947V68.5767H320.047C320.133 68.4441 320.252 68.2751 320.405 68.0696C320.56 67.8608 320.782 67.6752 321.071 67.5128C321.363 67.3471 321.757 67.2642 322.254 67.2642C322.897 67.2642 323.464 67.425 323.954 67.7464C324.445 68.0679 324.828 68.5237 325.103 69.1136C325.378 69.7036 325.515 70.3996 325.515 71.2017C325.515 72.0104 325.378 72.7114 325.103 73.3047C324.828 73.8946 324.447 74.352 323.959 74.6768C323.472 74.9983 322.91 75.1591 322.274 75.1591C321.783 75.1591 321.391 75.0779 321.096 74.9155C320.801 74.7498 320.574 74.5625 320.415 74.3537C320.256 74.1416 320.133 73.9659 320.047 73.8267H319.907V75H318.774ZM319.927 71.1818C319.927 71.7585 320.012 72.2673 320.181 72.7081C320.35 73.1456 320.597 73.4886 320.922 73.7372C321.247 73.9825 321.644 74.1051 322.115 74.1051C322.605 74.1051 323.015 73.9759 323.343 73.7173C323.674 73.4555 323.923 73.1042 324.089 72.6634C324.258 72.2192 324.342 71.7254 324.342 71.1818C324.342 70.6449 324.259 70.161 324.094 69.7301C323.931 69.2959 323.684 68.9529 323.353 68.701C323.025 68.4458 322.612 68.3182 322.115 68.3182C321.638 68.3182 321.237 68.4392 320.912 68.6811C320.587 68.9197 320.342 69.2545 320.176 69.6854C320.01 70.1129 319.927 70.6117 319.927 71.1818ZM330.412 75.1591C329.723 75.1591 329.118 74.995 328.598 74.6669C328.081 74.3388 327.676 73.8797 327.385 73.2898C327.096 72.6998 326.952 72.0104 326.952 71.2216C326.952 70.4261 327.096 69.7318 327.385 69.1385C327.676 68.5452 328.081 68.0845 328.598 67.7564C329.118 67.4283 329.723 67.2642 330.412 67.2642C331.102 67.2642 331.705 67.4283 332.222 67.7564C332.742 68.0845 333.147 68.5452 333.435 69.1385C333.727 69.7318 333.873 70.4261 333.873 71.2216C333.873 72.0104 333.727 72.6998 333.435 73.2898C333.147 73.8797 332.742 74.3388 332.222 74.6669C331.705 74.995 331.102 75.1591 330.412 75.1591ZM330.412 74.1051C330.936 74.1051 331.367 73.9709 331.705 73.7024C332.043 73.4339 332.293 73.081 332.456 72.6435C332.618 72.206 332.699 71.732 332.699 71.2216C332.699 70.7112 332.618 70.2356 332.456 69.7947C332.293 69.3539 332.043 68.9976 331.705 68.7259C331.367 68.4541 330.936 68.3182 330.412 68.3182C329.889 68.3182 329.458 68.4541 329.12 68.7259C328.782 68.9976 328.532 69.3539 328.369 69.7947C328.207 70.2356 328.126 70.7112 328.126 71.2216C328.126 71.732 328.207 72.206 328.369 72.6435C328.532 73.081 328.782 73.4339 329.12 73.7024C329.458 73.9709 329.889 74.1051 330.412 74.1051ZM336.224 67.3636L338.054 70.4858L339.883 67.3636H341.236L338.77 71.1818L341.236 75H339.883L338.054 72.0369L336.224 75H334.872L337.298 71.1818L334.872 67.3636H336.224ZM347.006 75V64.8182H348.239V73.9062H352.972V75H347.006ZM356.969 75.179C356.486 75.179 356.046 75.0878 355.652 74.9055C355.258 74.7199 354.944 74.4531 354.712 74.1051C354.48 73.7538 354.364 73.3295 354.364 72.8324C354.364 72.3949 354.451 72.0402 354.623 71.7685C354.795 71.4934 355.026 71.2779 355.314 71.1222C355.602 70.9664 355.92 70.8504 356.268 70.7741C356.62 70.6946 356.973 70.6316 357.327 70.5852C357.791 70.5256 358.168 70.4808 358.456 70.451C358.748 70.4179 358.96 70.3632 359.092 70.2869C359.228 70.2107 359.296 70.0781 359.296 69.8892V69.8494C359.296 69.3589 359.162 68.9777 358.893 68.706C358.628 68.4342 358.226 68.2983 357.685 68.2983C357.125 68.2983 356.686 68.4209 356.368 68.6662C356.05 68.9115 355.826 69.1733 355.697 69.4517L354.583 69.054C354.782 68.59 355.047 68.2287 355.379 67.9702C355.713 67.7083 356.078 67.526 356.472 67.4233C356.87 67.3172 357.261 67.2642 357.646 67.2642C357.891 67.2642 358.173 67.294 358.491 67.3537C358.812 67.41 359.122 67.5277 359.42 67.7067C359.722 67.8857 359.972 68.1558 360.171 68.517C360.37 68.8783 360.469 69.3622 360.469 69.9688V75H359.296V73.9659H359.237C359.157 74.1316 359.024 74.3089 358.839 74.4979C358.653 74.6868 358.406 74.8475 358.098 74.9801C357.79 75.1127 357.414 75.179 356.969 75.179ZM357.148 74.125C357.612 74.125 358.004 74.0339 358.322 73.8516C358.643 73.6693 358.885 73.4339 359.048 73.1456C359.213 72.8572 359.296 72.554 359.296 72.2358V71.1619C359.246 71.2216 359.137 71.2763 358.968 71.326C358.802 71.3724 358.61 71.4138 358.391 71.4503C358.176 71.4834 357.965 71.5133 357.76 71.5398C357.558 71.563 357.394 71.5829 357.268 71.5994C356.963 71.6392 356.678 71.7038 356.413 71.7933C356.151 71.8795 355.939 72.0104 355.776 72.1861C355.617 72.3584 355.538 72.5937 355.538 72.892C355.538 73.2997 355.688 73.608 355.99 73.8168C356.295 74.0223 356.681 74.125 357.148 74.125ZM362.77 75V64.8182H363.943V68.5767H364.043C364.129 68.4441 364.248 68.2751 364.401 68.0696C364.557 67.8608 364.779 67.6752 365.067 67.5128C365.359 67.3471 365.753 67.2642 366.25 67.2642C366.893 67.2642 367.46 67.425 367.95 67.7464C368.441 68.0679 368.824 68.5237 369.099 69.1136C369.374 69.7036 369.512 70.3996 369.512 71.2017C369.512 72.0104 369.374 72.7114 369.099 73.3047C368.824 73.8946 368.443 74.352 367.955 74.6768C367.468 74.9983 366.906 75.1591 366.27 75.1591C365.78 75.1591 365.387 75.0779 365.092 74.9155C364.797 74.7498 364.57 74.5625 364.411 74.3537C364.252 74.1416 364.129 73.9659 364.043 73.8267H363.904V75H362.77ZM363.923 71.1818C363.923 71.7585 364.008 72.2673 364.177 72.7081C364.346 73.1456 364.593 73.4886 364.918 73.7372C365.243 73.9825 365.64 74.1051 366.111 74.1051C366.602 74.1051 367.011 73.9759 367.339 73.7173C367.67 73.4555 367.919 73.1042 368.085 72.6634C368.254 72.2192 368.338 71.7254 368.338 71.1818C368.338 70.6449 368.255 70.161 368.09 69.7301C367.927 69.2959 367.68 68.9529 367.349 68.701C367.021 68.4458 366.608 68.3182 366.111 68.3182C365.634 68.3182 365.233 68.4392 364.908 68.6811C364.583 68.9197 364.338 69.2545 364.172 69.6854C364.006 70.1129 363.923 70.6117 363.923 71.1818ZM374.508 75.1591C373.772 75.1591 373.137 74.9967 372.604 74.6719C372.074 74.3438 371.664 73.8864 371.376 73.2997C371.091 72.7098 370.948 72.0237 370.948 71.2415C370.948 70.4593 371.091 69.7699 371.376 69.1733C371.664 68.5734 372.065 68.1061 372.579 67.7713C373.096 67.4332 373.699 67.2642 374.389 67.2642C374.786 67.2642 375.179 67.3305 375.567 67.4631C375.955 67.5956 376.308 67.8111 376.626 68.1094C376.944 68.4044 377.198 68.7955 377.387 69.2827C377.575 69.7699 377.67 70.3698 377.67 71.0824V71.5795H371.784V70.5653H376.477C376.477 70.1345 376.391 69.75 376.218 69.4119C376.049 69.0739 375.807 68.8071 375.492 68.6115C375.181 68.416 374.813 68.3182 374.389 68.3182C373.921 68.3182 373.517 68.4342 373.176 68.6662C372.838 68.8949 372.577 69.1932 372.395 69.5611C372.213 69.929 372.122 70.3234 372.122 70.7443V71.4205C372.122 71.9972 372.221 72.486 372.42 72.8871C372.622 73.2848 372.902 73.5881 373.26 73.7969C373.618 74.0024 374.034 74.1051 374.508 74.1051C374.816 74.1051 375.095 74.062 375.343 73.9759C375.595 73.8864 375.812 73.7538 375.994 73.5781C376.177 73.3991 376.318 73.1771 376.417 72.9119L377.551 73.2301C377.431 73.6146 377.231 73.9527 376.949 74.2443C376.667 74.5327 376.319 74.758 375.905 74.9205C375.491 75.0795 375.025 75.1591 374.508 75.1591ZM380.628 64.8182V75H379.455V64.8182H380.628Z" fill="white" fill-opacity="0.95"/>
</svg>
