<svg width="16" height="16" viewBox="0 0 16 16" fill="none" xmlns="http://www.w3.org/2000/svg">
<rect width="16" height="16" rx="8" fill="#AB0A15"/>
<g clip-path="url(#clip0_2893_36632)">
<path d="M13.0303 5.60572L10.3943 2.96973C10.3248 2.89985 10.2422 2.84445 10.1512 2.80674C10.0601 2.76902 9.96254 2.74974 9.86401 2.75H6.13562C6.03725 2.74985 5.93982 2.76915 5.84894 2.8068C5.75806 2.84445 5.67552 2.8997 5.60608 2.96938L2.96863 5.60683C2.89915 5.67623 2.84407 5.75867 2.80655 5.84942C2.76903 5.94017 2.74981 6.03744 2.75 6.13564V9.86439C2.75056 10.0629 2.82939 10.2532 2.96938 10.3939L5.60609 13.0306C5.67548 13.1004 5.758 13.1557 5.8489 13.1933C5.93979 13.231 6.03724 13.2503 6.13563 13.25H9.86439C10.0629 13.2496 10.2533 13.1708 10.3939 13.0306L13.0299 10.3947C13.1704 10.2539 13.2496 10.0633 13.25 9.86438V6.13599C13.2494 5.93721 13.1704 5.74668 13.0303 5.60572ZM9.86438 12.5L6.13635 12.5004L3.5 9.86439L3.49962 6.13637L6.13561 3.50001H9.864L12.5 6.136L12.5004 9.86366L9.86438 12.5Z" fill="white" fill-opacity="0.95"/>
<path d="M9.76514 6.23487C9.73033 6.20004 9.68899 6.17241 9.6435 6.15356C9.59801 6.13471 9.54924 6.125 9.5 6.125C9.45076 6.125 9.40199 6.13471 9.3565 6.15356C9.31101 6.17241 9.26967 6.20004 9.23486 6.23487L7.99999 7.46974L6.76511 6.23487C6.73031 6.19995 6.68897 6.17224 6.64346 6.15331C6.59794 6.13439 6.54913 6.12462 6.49984 6.12458C6.45054 6.12454 6.40172 6.13422 6.35617 6.15306C6.31062 6.17191 6.26923 6.19955 6.23437 6.23441C6.19952 6.26926 6.17187 6.31065 6.15303 6.3562C6.13418 6.40175 6.12451 6.45057 6.12455 6.49987C6.12459 6.54917 6.13436 6.59797 6.15328 6.64349C6.1722 6.68901 6.19992 6.73035 6.23484 6.76514L7.46971 8.00002L6.23484 9.23489C6.19992 9.26969 6.1722 9.31103 6.15328 9.35655C6.13436 9.40207 6.12459 9.45087 6.12455 9.50017C6.12451 9.54946 6.13418 9.59828 6.15303 9.64383C6.17187 9.68938 6.19952 9.73077 6.23437 9.76563C6.26923 9.80049 6.31062 9.82813 6.35617 9.84698C6.40172 9.86582 6.45054 9.8755 6.49984 9.87545C6.54913 9.87541 6.59794 9.86565 6.64346 9.84672C6.68897 9.8278 6.73031 9.80009 6.76511 9.76517L7.99999 8.53029L9.23486 9.76517C9.26966 9.80009 9.311 9.8278 9.35652 9.84672C9.40204 9.86565 9.45084 9.87541 9.50014 9.87545C9.54943 9.8755 9.59825 9.86582 9.6438 9.84698C9.68935 9.82813 9.73074 9.80049 9.7656 9.76563C9.80046 9.73077 9.8281 9.68938 9.84694 9.64383C9.86579 9.59828 9.87547 9.54946 9.87542 9.50017C9.87538 9.45087 9.86562 9.40207 9.84669 9.35655C9.82777 9.31103 9.80006 9.26969 9.76514 9.23489L8.53026 8.00002L9.76514 6.76514C9.79997 6.73033 9.8276 6.689 9.84645 6.6435C9.8653 6.59801 9.875 6.54925 9.875 6.50001C9.875 6.45076 9.8653 6.402 9.84645 6.35651C9.8276 6.31101 9.79997 6.26968 9.76514 6.23487Z" fill="white" fill-opacity="0.95"/>
</g>
<defs>
<clipPath id="clip0_2893_36632">
<rect width="12" height="12" fill="white" transform="translate(2 2)"/>
</clipPath>
</defs>
</svg>
