<svg width="1150" height="160" viewBox="0 0 1150 160" fill="none" xmlns="http://www.w3.org/2000/svg">
<rect width="1150" height="160" rx="24" fill="#262626"/>
<path d="M607.907 82.5312C607.574 82.5314 607.245 82.4661 606.938 82.339C606.63 82.2118 606.351 82.0254 606.116 81.7903C605.881 81.5552 605.695 81.2761 605.568 80.9689C605.44 80.6617 605.375 80.3325 605.375 80C605.375 86.0076 603.594 91.8803 600.256 96.8754C596.919 101.871 592.175 105.764 586.624 108.063C581.074 110.362 574.967 110.963 569.074 109.791C563.182 108.619 557.77 105.726 553.522 101.478C549.274 97.2303 546.381 91.818 545.209 85.9259C544.037 80.0337 544.638 73.9263 546.937 68.376C549.236 62.8257 553.13 58.0818 558.125 54.7441C563.12 51.4065 568.993 49.625 575 49.625C574.329 49.625 573.685 49.3583 573.21 48.8836C572.736 48.4089 572.469 47.7651 572.469 47.0938C572.469 46.4224 572.736 45.7786 573.21 45.3039C573.685 44.8292 574.329 44.5625 575 44.5625C567.991 44.5625 561.14 46.6409 555.312 50.5348C549.485 54.4287 544.942 59.9633 542.26 66.4387C539.578 72.914 538.876 80.0393 540.244 86.9135C541.611 93.7877 544.986 100.102 549.942 105.058C554.898 110.014 561.213 113.389 568.087 114.757C574.961 116.124 582.086 115.422 588.562 112.74C595.037 110.058 600.572 105.516 604.465 99.688C608.359 93.8604 610.438 87.0089 610.438 80C610.438 80.3325 610.373 80.6617 610.245 80.9689C610.118 81.2761 609.932 81.5552 609.697 81.7903C609.462 82.0254 609.183 82.2118 608.875 82.339C608.568 82.4661 608.239 82.5314 607.907 82.5312Z" fill="white" fill-opacity="0.2"/>
<path d="M572.469 47.0938C572.469 47.4262 572.534 47.7555 572.661 48.0626C572.788 48.3698 572.975 48.649 573.21 48.884C573.445 49.1191 573.724 49.3056 574.031 49.4327C574.339 49.5599 574.668 49.6252 575 49.625C583.053 49.6338 590.774 52.8368 596.469 58.5313C602.163 64.2259 605.366 71.9467 605.375 80C605.375 80.6713 605.642 81.3152 606.117 81.7899C606.591 82.2646 607.235 82.5312 607.906 82.5312C608.578 82.5312 609.222 82.2646 609.696 81.7899C610.171 81.3152 610.438 80.6713 610.438 80C610.427 70.6046 606.69 61.5971 600.047 54.9536C593.403 48.31 584.396 44.573 575 44.5625C574.668 44.5623 574.339 44.6276 574.031 44.7548C573.724 44.8819 573.445 45.0684 573.21 45.3035C572.975 45.5385 572.788 45.8177 572.661 46.1249C572.534 46.432 572.469 46.7613 572.469 47.0938Z" fill="#3492EB"/>
<path d="M607.906 77.48C607.574 77.4798 607.245 77.5451 606.937 77.6723C606.63 77.7994 606.351 77.9858 606.116 78.2209C605.881 78.456 605.694 78.7351 605.567 79.0423C605.44 79.3495 605.375 79.6788 605.375 80.0112C605.366 88.0645 602.163 95.7854 596.469 101.48C590.774 107.174 583.053 110.377 575 110.386C574.329 110.386 573.685 110.653 573.21 111.128C572.735 111.602 572.469 112.246 572.469 112.917C572.469 113.589 572.735 114.233 573.21 114.707C573.685 115.182 574.329 115.449 575 115.449C584.395 115.438 593.403 111.701 600.046 105.058C606.69 98.4141 610.427 89.4066 610.437 80.0112C610.438 79.6788 610.372 79.3495 610.245 79.0423C610.118 78.7351 609.932 78.456 609.697 78.2209C609.461 77.9858 609.182 77.7994 608.875 77.6723C608.568 77.5451 608.239 77.4798 607.906 77.48Z" fill="#3492EB"/>
<path d="M542.116 77.48C542.449 77.4798 542.778 77.5451 543.085 77.6723C543.392 77.7994 543.671 77.9858 543.907 78.2209C544.142 78.456 544.328 78.7351 544.455 79.0423C544.582 79.3495 544.648 79.6788 544.648 80.0112C544.656 88.0645 547.859 95.7854 553.554 101.48C559.248 107.174 566.969 110.377 575.023 110.386C575.694 110.386 576.338 110.653 576.812 111.128C577.287 111.602 577.554 112.246 577.554 112.917C577.554 113.589 577.287 114.233 576.812 114.707C576.338 115.182 575.694 115.449 575.023 115.449C565.627 115.438 556.62 111.701 549.976 105.058C543.333 98.4141 539.596 89.4066 539.585 80.0112C539.585 79.6788 539.65 79.3495 539.777 79.0423C539.904 78.7351 540.091 78.456 540.326 78.2209C540.561 77.9858 540.84 77.7994 541.147 77.6723C541.455 77.5451 541.784 77.4798 542.116 77.48Z" fill="#3492EB"/>
</svg>
