<svg width="20" height="20" viewBox="0 0 20 20" fill="none" xmlns="http://www.w3.org/2000/svg">
<rect width="20" height="20" rx="10" fill="white"/>
<path d="M8.18258 13.0748C8.13314 13.075 8.08418 13.0652 8.03853 13.0462C7.99289 13.0273 7.95147 12.9994 7.9167 12.9642L5.21664 10.251C5.18191 10.2161 5.15441 10.1747 5.13569 10.1291C5.11697 10.0836 5.10741 10.0348 5.10755 9.98555C5.10768 9.93631 5.11752 9.88757 5.13649 9.84213C5.15546 9.79669 5.18319 9.75543 5.2181 9.72071C5.25302 9.68599 5.29443 9.65848 5.33998 9.63977C5.38552 9.62105 5.43431 9.61148 5.48355 9.61162C5.53279 9.61176 5.58152 9.62159 5.62696 9.64056C5.6724 9.65953 5.71366 9.68727 5.74839 9.72218L8.20273 12.1886L14.2386 7.01552C14.3141 6.95083 14.4121 6.91877 14.5112 6.9264C14.6103 6.93402 14.7024 6.9807 14.767 7.05617C14.8317 7.13163 14.8638 7.2297 14.8562 7.32881C14.8485 7.42791 14.8019 7.51992 14.7264 7.58461L8.42647 12.9844C8.35866 13.0428 8.27209 13.0749 8.18258 13.0748Z" fill="black" fill-opacity="0.95"/>
</svg>
