<svg width="48" height="24" viewBox="0 0 48 24" fill="none" xmlns="http://www.w3.org/2000/svg">
<rect x="26" y="2" width="20" height="20" rx="10" fill="white" fill-opacity="0.2"/>
<path d="M34.1826 15.0748C34.1331 15.075 34.0842 15.0652 34.0385 15.0462C33.9929 15.0273 33.9515 14.9994 33.9167 14.9642L31.2166 12.251C31.1819 12.2161 31.1544 12.1747 31.1357 12.1291C31.117 12.0836 31.1074 12.0348 31.1075 11.9855C31.1077 11.9363 31.1175 11.8876 31.1365 11.8421C31.1555 11.7967 31.1832 11.7554 31.2181 11.7207C31.253 11.686 31.2944 11.6585 31.34 11.6398C31.3855 11.621 31.4343 11.6115 31.4835 11.6116C31.5328 11.6118 31.5815 11.6216 31.627 11.6406C31.6724 11.6595 31.7137 11.6873 31.7484 11.7222L34.2027 14.1886L40.2386 9.01552C40.3141 8.95083 40.4121 8.91877 40.5112 8.9264C40.6103 8.93402 40.7024 8.9807 40.767 9.05617C40.8317 9.13163 40.8638 9.2297 40.8562 9.32881C40.8485 9.42791 40.8019 9.51992 40.7264 9.58461L34.4265 14.9844C34.3587 15.0428 34.2721 15.0749 34.1826 15.0748Z" fill="black" fill-opacity="0.95"/>
</svg>
