<svg width="768" height="280" viewBox="0 0 768 280" fill="none" xmlns="http://www.w3.org/2000/svg">
<path d="M91.528 17H88.344L85.8 12.792H84.328V17H81.64V5.48H85.88C87.5867 5.48 88.856 5.832 89.688 6.536C90.4027 7.15467 90.76 8.01867 90.76 9.128C90.76 10.696 89.9973 11.7627 88.472 12.328L91.528 17ZM85.912 7.336H84.328V10.936H86.008C86.6373 10.936 87.1333 10.76 87.496 10.408C87.816 10.088 87.976 9.66133 87.976 9.128C87.976 7.93333 87.288 7.336 85.912 7.336ZM100.521 10.264V12.12H95.8974V15.064H100.985V17H93.2094V5.48H100.985V7.448H95.8974V10.264H100.521ZM107.69 17.24C106.144 17.24 104.922 16.8667 104.026 16.12C103.269 15.4907 102.816 14.6533 102.666 13.608H105.21C105.306 14.1733 105.584 14.6107 106.042 14.92C106.48 15.2187 107.04 15.368 107.722 15.368C109.152 15.368 109.866 14.9253 109.866 14.04C109.866 13.4747 109.557 13.0427 108.938 12.744C108.586 12.5733 107.936 12.376 106.986 12.152C105.685 11.8533 104.746 11.4693 104.17 11C103.445 10.4027 103.082 9.592 103.082 8.568C103.082 7.45867 103.525 6.61067 104.41 6.024C105.21 5.50133 106.309 5.24 107.706 5.24C109.125 5.24 110.234 5.56 111.034 6.2C111.728 6.75467 112.144 7.50133 112.282 8.44H109.77C109.706 7.98133 109.456 7.62933 109.018 7.384C108.645 7.18133 108.186 7.08 107.642 7.08C106.405 7.08 105.786 7.46933 105.786 8.248C105.786 8.67467 105.946 8.99467 106.266 9.208C106.586 9.42133 107.205 9.62933 108.122 9.832C109.562 10.1413 110.634 10.5787 111.338 11.144C112.16 11.7947 112.57 12.6587 112.57 13.736C112.57 14.8133 112.128 15.672 111.242 16.312C110.389 16.9307 109.205 17.24 107.69 17.24ZM123.019 5.48V7.496H119.595V17H116.907V7.496H113.531V5.48H123.019Z" fill="white" fill-opacity="0.7"/>
<rect x="188.5" y="4.5" width="15" height="15" rx="1.5" stroke="white" stroke-opacity="0.4"/>
<path d="M223.008 9.176H221.36C221.152 7.608 219.904 6.6 218.128 6.6C215.92 6.6 214.384 8.12 214.384 11.24C214.384 14.216 215.872 15.864 218.032 15.864C219.904 15.864 221.28 14.6 221.376 12.936H223.024C222.896 15.176 220.928 17.24 218 17.24C214.784 17.24 212.72 15.08 212.72 11.24C212.72 7.352 214.96 5.24 218.128 5.24C220.896 5.24 222.848 7.064 223.008 9.176ZM226.312 17H224.776V5.48H226.312V9.624C226.92 8.84 227.8 8.44 228.744 8.44C230.552 8.44 231.688 9.544 231.688 11.576V17H230.152V11.592C230.152 10.344 229.512 9.752 228.376 9.752C227.24 9.752 226.312 10.552 226.312 11.928V17ZM239.518 14.6H241.182C240.766 16.12 239.454 17.24 237.454 17.24C235.086 17.24 233.374 15.768 233.374 12.84C233.374 9.944 235.07 8.44 237.374 8.44C239.678 8.44 241.278 9.816 241.278 13.176H234.942C235.07 15.096 236.11 15.944 237.502 15.944C238.51 15.944 239.278 15.368 239.518 14.6ZM235.006 11.96H239.71C239.598 10.408 238.686 9.672 237.406 9.672C236.174 9.672 235.246 10.424 235.006 11.96ZM248.544 14.328H250.224C250 15.944 248.64 17.24 246.576 17.24C244.368 17.24 242.64 15.72 242.64 12.904C242.64 10.12 244.208 8.44 246.56 8.44C248.448 8.44 249.888 9.448 250.16 11.144H248.464C248.256 10.232 247.568 9.736 246.592 9.736C245.232 9.736 244.272 10.744 244.272 12.952C244.272 14.984 245.312 15.944 246.608 15.944C247.632 15.944 248.384 15.368 248.544 14.328ZM253.515 17H251.979V5.48H253.515V11.912L256.779 8.68H258.795L255.051 12.296L259.259 17H257.211L253.515 12.808V17ZM261.556 17H260.292V5.48H261.828V9.832C262.388 9.032 263.316 8.44 264.612 8.44C266.804 8.44 268.276 10.008 268.276 12.776C268.276 15.656 266.692 17.24 264.5 17.24C263.22 17.24 262.34 16.68 261.796 15.896L261.556 17ZM266.676 12.744C266.676 10.696 265.636 9.752 264.26 9.752C262.884 9.752 261.748 10.76 261.748 12.744C261.748 14.76 262.756 15.928 264.26 15.928C265.7 15.928 266.676 14.936 266.676 12.744ZM269.562 12.84C269.562 9.848 271.418 8.44 273.674 8.44C275.946 8.44 277.77 9.848 277.77 12.84C277.77 15.752 276.01 17.24 273.658 17.24C271.338 17.24 269.562 15.72 269.562 12.84ZM271.162 12.84C271.162 14.904 272.25 15.992 273.69 15.992C275.162 15.992 276.17 14.904 276.17 12.84C276.17 10.728 275.098 9.688 273.674 9.688C272.25 9.688 271.162 10.76 271.162 12.84ZM285.746 8.68L282.962 12.568L286.226 17H284.354L282.098 13.784L279.89 17H278.082L281.186 12.68L278.274 8.68H280.114L282.098 11.48L283.986 8.68H285.746ZM292.388 5.48H294.036V15.544H299.46V17H292.388V5.48ZM302.448 11H300.816C300.976 9.464 302.304 8.44 304.384 8.44C306.56 8.44 307.776 9.608 307.776 11.32V17H306.512L306.32 15.864C305.776 16.632 304.88 17.24 303.536 17.24C301.712 17.24 300.656 16.216 300.656 14.856C300.656 13.336 301.568 12.472 303.808 12.088L306.24 11.672V11.256C306.24 10.232 305.552 9.656 304.32 9.656C303.136 9.656 302.56 10.168 302.448 11ZM306.24 12.872L304.176 13.24C302.688 13.496 302.288 13.96 302.288 14.696C302.288 15.496 302.864 15.944 303.904 15.944C305.072 15.944 306.24 15.08 306.24 13.944V12.872ZM311.197 17H309.933V5.48H311.469V9.832C312.029 9.032 312.957 8.44 314.253 8.44C316.445 8.44 317.917 10.008 317.917 12.776C317.917 15.656 316.333 17.24 314.141 17.24C312.861 17.24 311.981 16.68 311.437 15.896L311.197 17ZM316.317 12.744C316.317 10.696 315.277 9.752 313.901 9.752C312.525 9.752 311.389 10.76 311.389 12.744C311.389 14.76 312.397 15.928 313.901 15.928C315.341 15.928 316.317 14.936 316.317 12.744ZM325.347 14.6H327.01C326.595 16.12 325.283 17.24 323.283 17.24C320.914 17.24 319.203 15.768 319.203 12.84C319.203 9.944 320.899 8.44 323.203 8.44C325.507 8.44 327.107 9.816 327.107 13.176H320.771C320.899 15.096 321.939 15.944 323.331 15.944C324.339 15.944 325.107 15.368 325.347 14.6ZM320.835 11.96H325.539C325.427 10.408 324.515 9.672 323.235 9.672C322.003 9.672 321.075 10.424 320.835 11.96ZM330.484 5.48V17H328.948V5.48H330.484Z" fill="white" fill-opacity="0.95"/>
<rect x="396" y="4" width="16" height="16" rx="2" fill="#64B4FA"/>
<path d="M401.6 16.1C401.534 16.1002 401.469 16.0872 401.408 16.0619C401.347 16.0366 401.292 15.9994 401.246 15.9526L397.646 12.3349C397.599 12.2883 397.563 12.2331 397.538 12.1724C397.513 12.1117 397.5 12.0466 397.5 11.981C397.5 11.9153 397.513 11.8503 397.539 11.7898C397.564 11.7292 397.601 11.6742 397.648 11.6279C397.694 11.5816 397.749 11.5449 397.81 11.5199C397.871 11.495 397.936 11.4822 398.002 11.4824C398.067 11.4826 398.132 11.4957 398.193 11.521C398.253 11.5463 398.308 11.5833 398.355 11.6298L401.627 14.9184L409.675 8.02093C409.776 7.93469 409.906 7.89194 410.038 7.90211C410.171 7.91227 410.293 7.97451 410.38 8.07513C410.466 8.17575 410.509 8.30652 410.498 8.43865C410.488 8.57079 410.426 8.69348 410.325 8.77972L401.925 15.9794C401.835 16.0573 401.72 16.1001 401.6 16.1Z" fill="black" fill-opacity="0.95"/>
<path d="M431.008 9.176H429.36C429.152 7.608 427.904 6.6 426.128 6.6C423.92 6.6 422.384 8.12 422.384 11.24C422.384 14.216 423.872 15.864 426.032 15.864C427.904 15.864 429.28 14.6 429.376 12.936H431.024C430.896 15.176 428.928 17.24 426 17.24C422.784 17.24 420.72 15.08 420.72 11.24C420.72 7.352 422.96 5.24 426.128 5.24C428.896 5.24 430.848 7.064 431.008 9.176ZM434.312 17H432.776V5.48H434.312V9.624C434.92 8.84 435.8 8.44 436.744 8.44C438.552 8.44 439.688 9.544 439.688 11.576V17H438.152V11.592C438.152 10.344 437.512 9.752 436.376 9.752C435.24 9.752 434.312 10.552 434.312 11.928V17ZM447.518 14.6H449.182C448.766 16.12 447.454 17.24 445.454 17.24C443.086 17.24 441.374 15.768 441.374 12.84C441.374 9.944 443.07 8.44 445.374 8.44C447.678 8.44 449.278 9.816 449.278 13.176H442.942C443.07 15.096 444.11 15.944 445.502 15.944C446.51 15.944 447.278 15.368 447.518 14.6ZM443.006 11.96H447.71C447.598 10.408 446.686 9.672 445.406 9.672C444.174 9.672 443.246 10.424 443.006 11.96ZM456.544 14.328H458.224C458 15.944 456.64 17.24 454.576 17.24C452.368 17.24 450.64 15.72 450.64 12.904C450.64 10.12 452.208 8.44 454.56 8.44C456.448 8.44 457.888 9.448 458.16 11.144H456.464C456.256 10.232 455.568 9.736 454.592 9.736C453.232 9.736 452.272 10.744 452.272 12.952C452.272 14.984 453.312 15.944 454.608 15.944C455.632 15.944 456.384 15.368 456.544 14.328ZM461.515 17H459.979V5.48H461.515V11.912L464.779 8.68H466.795L463.051 12.296L467.259 17H465.211L461.515 12.808V17ZM469.556 17H468.292V5.48H469.828V9.832C470.388 9.032 471.316 8.44 472.612 8.44C474.804 8.44 476.276 10.008 476.276 12.776C476.276 15.656 474.692 17.24 472.5 17.24C471.22 17.24 470.34 16.68 469.796 15.896L469.556 17ZM474.676 12.744C474.676 10.696 473.636 9.752 472.26 9.752C470.884 9.752 469.748 10.76 469.748 12.744C469.748 14.76 470.756 15.928 472.26 15.928C473.7 15.928 474.676 14.936 474.676 12.744ZM477.562 12.84C477.562 9.848 479.418 8.44 481.674 8.44C483.946 8.44 485.77 9.848 485.77 12.84C485.77 15.752 484.01 17.24 481.658 17.24C479.338 17.24 477.562 15.72 477.562 12.84ZM479.162 12.84C479.162 14.904 480.25 15.992 481.69 15.992C483.162 15.992 484.17 14.904 484.17 12.84C484.17 10.728 483.098 9.688 481.674 9.688C480.25 9.688 479.162 10.76 479.162 12.84ZM493.746 8.68L490.962 12.568L494.226 17H492.354L490.098 13.784L487.89 17H486.082L489.186 12.68L486.274 8.68H488.114L490.098 11.48L491.986 8.68H493.746ZM500.388 5.48H502.036V15.544H507.46V17H500.388V5.48ZM510.448 11H508.816C508.976 9.464 510.304 8.44 512.384 8.44C514.56 8.44 515.776 9.608 515.776 11.32V17H514.512L514.32 15.864C513.776 16.632 512.88 17.24 511.536 17.24C509.712 17.24 508.656 16.216 508.656 14.856C508.656 13.336 509.568 12.472 511.808 12.088L514.24 11.672V11.256C514.24 10.232 513.552 9.656 512.32 9.656C511.136 9.656 510.56 10.168 510.448 11ZM514.24 12.872L512.176 13.24C510.688 13.496 510.288 13.96 510.288 14.696C510.288 15.496 510.864 15.944 511.904 15.944C513.072 15.944 514.24 15.08 514.24 13.944V12.872ZM519.197 17H517.933V5.48H519.469V9.832C520.029 9.032 520.957 8.44 522.253 8.44C524.445 8.44 525.917 10.008 525.917 12.776C525.917 15.656 524.333 17.24 522.141 17.24C520.861 17.24 519.981 16.68 519.437 15.896L519.197 17ZM524.317 12.744C524.317 10.696 523.277 9.752 521.901 9.752C520.525 9.752 519.389 10.76 519.389 12.744C519.389 14.76 520.397 15.928 521.901 15.928C523.341 15.928 524.317 14.936 524.317 12.744ZM533.347 14.6H535.01C534.595 16.12 533.283 17.24 531.283 17.24C528.914 17.24 527.203 15.768 527.203 12.84C527.203 9.944 528.899 8.44 531.203 8.44C533.507 8.44 535.107 9.816 535.107 13.176H528.771C528.899 15.096 529.939 15.944 531.331 15.944C532.339 15.944 533.107 15.368 533.347 14.6ZM528.835 11.96H533.539C533.427 10.408 532.515 9.672 531.235 9.672C530.003 9.672 529.075 10.424 528.835 11.96ZM538.484 5.48V17H536.948V5.48H538.484Z" fill="white" fill-opacity="0.95"/>
<rect x="604" y="4" width="16" height="16" rx="2" fill="#64B4FA"/>
<path d="M617 12.4998H607C606.867 12.4998 606.74 12.4471 606.646 12.3533C606.553 12.2595 606.5 12.1324 606.5 11.9998C606.5 11.8671 606.553 11.74 606.646 11.6462C606.74 11.5524 606.867 11.4998 607 11.4998H617C617.133 11.4998 617.26 11.5524 617.354 11.6462C617.447 11.74 617.5 11.8671 617.5 11.9998C617.5 12.1324 617.447 12.2595 617.354 12.3533C617.26 12.4471 617.133 12.4998 617 12.4998Z" fill="black" fill-opacity="0.95"/>
<path d="M639.008 9.176H637.36C637.152 7.608 635.904 6.6 634.128 6.6C631.92 6.6 630.384 8.12 630.384 11.24C630.384 14.216 631.872 15.864 634.032 15.864C635.904 15.864 637.28 14.6 637.376 12.936H639.024C638.896 15.176 636.928 17.24 634 17.24C630.784 17.24 628.72 15.08 628.72 11.24C628.72 7.352 630.96 5.24 634.128 5.24C636.896 5.24 638.848 7.064 639.008 9.176ZM642.312 17H640.776V5.48H642.312V9.624C642.92 8.84 643.8 8.44 644.744 8.44C646.552 8.44 647.688 9.544 647.688 11.576V17H646.152V11.592C646.152 10.344 645.512 9.752 644.376 9.752C643.24 9.752 642.312 10.552 642.312 11.928V17ZM655.518 14.6H657.182C656.766 16.12 655.454 17.24 653.454 17.24C651.086 17.24 649.374 15.768 649.374 12.84C649.374 9.944 651.07 8.44 653.374 8.44C655.678 8.44 657.278 9.816 657.278 13.176H650.942C651.07 15.096 652.11 15.944 653.502 15.944C654.51 15.944 655.278 15.368 655.518 14.6ZM651.006 11.96H655.71C655.598 10.408 654.686 9.672 653.406 9.672C652.174 9.672 651.246 10.424 651.006 11.96ZM664.544 14.328H666.224C666 15.944 664.64 17.24 662.576 17.24C660.368 17.24 658.64 15.72 658.64 12.904C658.64 10.12 660.208 8.44 662.56 8.44C664.448 8.44 665.888 9.448 666.16 11.144H664.464C664.256 10.232 663.568 9.736 662.592 9.736C661.232 9.736 660.272 10.744 660.272 12.952C660.272 14.984 661.312 15.944 662.608 15.944C663.632 15.944 664.384 15.368 664.544 14.328ZM669.515 17H667.979V5.48H669.515V11.912L672.779 8.68H674.795L671.051 12.296L675.259 17H673.211L669.515 12.808V17ZM677.556 17H676.292V5.48H677.828V9.832C678.388 9.032 679.316 8.44 680.612 8.44C682.804 8.44 684.276 10.008 684.276 12.776C684.276 15.656 682.692 17.24 680.5 17.24C679.22 17.24 678.34 16.68 677.796 15.896L677.556 17ZM682.676 12.744C682.676 10.696 681.636 9.752 680.26 9.752C678.884 9.752 677.748 10.76 677.748 12.744C677.748 14.76 678.756 15.928 680.26 15.928C681.7 15.928 682.676 14.936 682.676 12.744ZM685.562 12.84C685.562 9.848 687.418 8.44 689.674 8.44C691.946 8.44 693.77 9.848 693.77 12.84C693.77 15.752 692.01 17.24 689.658 17.24C687.338 17.24 685.562 15.72 685.562 12.84ZM687.162 12.84C687.162 14.904 688.25 15.992 689.69 15.992C691.162 15.992 692.17 14.904 692.17 12.84C692.17 10.728 691.098 9.688 689.674 9.688C688.25 9.688 687.162 10.76 687.162 12.84ZM701.746 8.68L698.962 12.568L702.226 17H700.354L698.098 13.784L695.89 17H694.082L697.186 12.68L694.274 8.68H696.114L698.098 11.48L699.986 8.68H701.746ZM708.388 5.48H710.036V15.544H715.46V17H708.388V5.48ZM718.448 11H716.816C716.976 9.464 718.304 8.44 720.384 8.44C722.56 8.44 723.776 9.608 723.776 11.32V17H722.512L722.32 15.864C721.776 16.632 720.88 17.24 719.536 17.24C717.712 17.24 716.656 16.216 716.656 14.856C716.656 13.336 717.568 12.472 719.808 12.088L722.24 11.672V11.256C722.24 10.232 721.552 9.656 720.32 9.656C719.136 9.656 718.56 10.168 718.448 11ZM722.24 12.872L720.176 13.24C718.688 13.496 718.288 13.96 718.288 14.696C718.288 15.496 718.864 15.944 719.904 15.944C721.072 15.944 722.24 15.08 722.24 13.944V12.872ZM727.197 17H725.933V5.48H727.469V9.832C728.029 9.032 728.957 8.44 730.253 8.44C732.445 8.44 733.917 10.008 733.917 12.776C733.917 15.656 732.333 17.24 730.141 17.24C728.861 17.24 727.981 16.68 727.437 15.896L727.197 17ZM732.317 12.744C732.317 10.696 731.277 9.752 729.901 9.752C728.525 9.752 727.389 10.76 727.389 12.744C727.389 14.76 728.397 15.928 729.901 15.928C731.341 15.928 732.317 14.936 732.317 12.744ZM741.347 14.6H743.01C742.595 16.12 741.283 17.24 739.283 17.24C736.914 17.24 735.203 15.768 735.203 12.84C735.203 9.944 736.899 8.44 739.203 8.44C741.507 8.44 743.107 9.816 743.107 13.176H736.771C736.899 15.096 737.939 15.944 739.331 15.944C740.339 15.944 741.107 15.368 741.347 14.6ZM736.835 11.96H741.539C741.427 10.408 740.515 9.672 739.235 9.672C738.003 9.672 737.075 10.424 736.835 11.96ZM746.484 5.48V17H744.948V5.48H746.484Z" fill="white" fill-opacity="0.95"/>
<path d="M74.936 69.48H77.608V81H74.936V76.136H70.648V81H67.96V69.48H70.648V74.216H74.936V69.48ZM85.4745 79.336C86.3705 79.336 87.0745 79 87.5865 78.328C88.1198 77.624 88.3865 76.5947 88.3865 75.24C88.3865 73.7147 88.0452 72.6 87.3625 71.896C86.8612 71.384 86.2318 71.128 85.4745 71.128C84.5678 71.128 83.8638 71.4693 83.3625 72.152C82.8292 72.8667 82.5625 73.9013 82.5625 75.256C82.5625 76.7813 82.9092 77.8907 83.6025 78.584C84.0932 79.0853 84.7172 79.336 85.4745 79.336ZM85.4745 81.24C83.7572 81.24 82.3972 80.7333 81.3945 79.72C80.3598 78.6853 79.8425 77.1973 79.8425 75.256C79.8425 73.0907 80.4985 71.48 81.8105 70.424C82.7918 69.6347 84.0132 69.24 85.4745 69.24C87.1918 69.24 88.5518 69.7467 89.5545 70.76C90.5892 71.8053 91.1065 73.2987 91.1065 75.24C91.1065 77.4053 90.4505 79.016 89.1385 80.072C88.1572 80.8507 86.9358 81.24 85.4745 81.24ZM99.889 69.48H102.481L98.801 81H95.585L91.905 69.48H94.673L97.265 78.904L99.889 69.48ZM111.395 74.264V76.12H106.771V79.064H111.859V81H104.083V69.48H111.859V71.448H106.771V74.264H111.395ZM123.588 81H120.404L117.86 76.792H116.388V81H113.7V69.48H117.94C119.647 69.48 120.916 69.832 121.748 70.536C122.463 71.1547 122.82 72.0187 122.82 73.128C122.82 74.696 122.057 75.7627 120.532 76.328L123.588 81ZM117.972 71.336H116.388V74.936H118.068C118.697 74.936 119.193 74.76 119.556 74.408C119.876 74.088 120.036 73.6613 120.036 73.128C120.036 71.9333 119.348 71.336 117.972 71.336Z" fill="white" fill-opacity="0.7"/>
<rect x="188" y="68" width="16" height="16" rx="2" fill="white" fill-opacity="0.3"/>
<rect x="188.5" y="68.5" width="15" height="15" rx="1.5" stroke="white" stroke-opacity="0.4"/>
<path d="M223.008 73.176H221.36C221.152 71.608 219.904 70.6 218.128 70.6C215.92 70.6 214.384 72.12 214.384 75.24C214.384 78.216 215.872 79.864 218.032 79.864C219.904 79.864 221.28 78.6 221.376 76.936H223.024C222.896 79.176 220.928 81.24 218 81.24C214.784 81.24 212.72 79.08 212.72 75.24C212.72 71.352 214.96 69.24 218.128 69.24C220.896 69.24 222.848 71.064 223.008 73.176ZM226.312 81H224.776V69.48H226.312V73.624C226.92 72.84 227.8 72.44 228.744 72.44C230.552 72.44 231.688 73.544 231.688 75.576V81H230.152V75.592C230.152 74.344 229.512 73.752 228.376 73.752C227.24 73.752 226.312 74.552 226.312 75.928V81ZM239.518 78.6H241.182C240.766 80.12 239.454 81.24 237.454 81.24C235.086 81.24 233.374 79.768 233.374 76.84C233.374 73.944 235.07 72.44 237.374 72.44C239.678 72.44 241.278 73.816 241.278 77.176H234.942C235.07 79.096 236.11 79.944 237.502 79.944C238.51 79.944 239.278 79.368 239.518 78.6ZM235.006 75.96H239.71C239.598 74.408 238.686 73.672 237.406 73.672C236.174 73.672 235.246 74.424 235.006 75.96ZM248.544 78.328H250.224C250 79.944 248.64 81.24 246.576 81.24C244.368 81.24 242.64 79.72 242.64 76.904C242.64 74.12 244.208 72.44 246.56 72.44C248.448 72.44 249.888 73.448 250.16 75.144H248.464C248.256 74.232 247.568 73.736 246.592 73.736C245.232 73.736 244.272 74.744 244.272 76.952C244.272 78.984 245.312 79.944 246.608 79.944C247.632 79.944 248.384 79.368 248.544 78.328ZM253.515 81H251.979V69.48H253.515V75.912L256.779 72.68H258.795L255.051 76.296L259.259 81H257.211L253.515 76.808V81ZM261.556 81H260.292V69.48H261.828V73.832C262.388 73.032 263.316 72.44 264.612 72.44C266.804 72.44 268.276 74.008 268.276 76.776C268.276 79.656 266.692 81.24 264.5 81.24C263.22 81.24 262.34 80.68 261.796 79.896L261.556 81ZM266.676 76.744C266.676 74.696 265.636 73.752 264.26 73.752C262.884 73.752 261.748 74.76 261.748 76.744C261.748 78.76 262.756 79.928 264.26 79.928C265.7 79.928 266.676 78.936 266.676 76.744ZM269.562 76.84C269.562 73.848 271.418 72.44 273.674 72.44C275.946 72.44 277.77 73.848 277.77 76.84C277.77 79.752 276.01 81.24 273.658 81.24C271.338 81.24 269.562 79.72 269.562 76.84ZM271.162 76.84C271.162 78.904 272.25 79.992 273.69 79.992C275.162 79.992 276.17 78.904 276.17 76.84C276.17 74.728 275.098 73.688 273.674 73.688C272.25 73.688 271.162 74.76 271.162 76.84ZM285.746 72.68L282.962 76.568L286.226 81H284.354L282.098 77.784L279.89 81H278.082L281.186 76.68L278.274 72.68H280.114L282.098 75.48L283.986 72.68H285.746ZM292.388 69.48H294.036V79.544H299.46V81H292.388V69.48ZM302.448 75H300.816C300.976 73.464 302.304 72.44 304.384 72.44C306.56 72.44 307.776 73.608 307.776 75.32V81H306.512L306.32 79.864C305.776 80.632 304.88 81.24 303.536 81.24C301.712 81.24 300.656 80.216 300.656 78.856C300.656 77.336 301.568 76.472 303.808 76.088L306.24 75.672V75.256C306.24 74.232 305.552 73.656 304.32 73.656C303.136 73.656 302.56 74.168 302.448 75ZM306.24 76.872L304.176 77.24C302.688 77.496 302.288 77.96 302.288 78.696C302.288 79.496 302.864 79.944 303.904 79.944C305.072 79.944 306.24 79.08 306.24 77.944V76.872ZM311.197 81H309.933V69.48H311.469V73.832C312.029 73.032 312.957 72.44 314.253 72.44C316.445 72.44 317.917 74.008 317.917 76.776C317.917 79.656 316.333 81.24 314.141 81.24C312.861 81.24 311.981 80.68 311.437 79.896L311.197 81ZM316.317 76.744C316.317 74.696 315.277 73.752 313.901 73.752C312.525 73.752 311.389 74.76 311.389 76.744C311.389 78.76 312.397 79.928 313.901 79.928C315.341 79.928 316.317 78.936 316.317 76.744ZM325.347 78.6H327.01C326.595 80.12 325.283 81.24 323.283 81.24C320.914 81.24 319.203 79.768 319.203 76.84C319.203 73.944 320.899 72.44 323.203 72.44C325.507 72.44 327.107 73.816 327.107 77.176H320.771C320.899 79.096 321.939 79.944 323.331 79.944C324.339 79.944 325.107 79.368 325.347 78.6ZM320.835 75.96H325.539C325.427 74.408 324.515 73.672 323.235 73.672C322.003 73.672 321.075 74.424 320.835 75.96ZM330.484 69.48V81H328.948V69.48H330.484Z" fill="white" fill-opacity="0.95"/>
<rect x="396" y="68" width="16" height="16" rx="2" fill="#3492EB"/>
<path d="M401.6 80.1C401.534 80.1002 401.469 80.0872 401.408 80.0619C401.347 80.0366 401.292 79.9994 401.246 79.9526L397.646 76.3349C397.599 76.2883 397.563 76.2331 397.538 76.1724C397.513 76.1117 397.5 76.0466 397.5 75.981C397.5 75.9153 397.513 75.8503 397.539 75.7898C397.564 75.7292 397.601 75.6742 397.648 75.6279C397.694 75.5816 397.749 75.5449 397.81 75.5199C397.871 75.495 397.936 75.4822 398.002 75.4824C398.067 75.4826 398.132 75.4957 398.193 75.521C398.253 75.5463 398.308 75.5833 398.355 75.6298L401.627 78.9184L409.675 72.0209C409.776 71.9347 409.906 71.8919 410.038 71.9021C410.171 71.9123 410.293 71.9745 410.38 72.0751C410.466 72.1758 410.509 72.3065 410.498 72.4387C410.488 72.5708 410.426 72.6935 410.325 72.7797L401.925 79.9794C401.835 80.0573 401.72 80.1001 401.6 80.1Z" fill="black" fill-opacity="0.95"/>
<path d="M431.008 73.176H429.36C429.152 71.608 427.904 70.6 426.128 70.6C423.92 70.6 422.384 72.12 422.384 75.24C422.384 78.216 423.872 79.864 426.032 79.864C427.904 79.864 429.28 78.6 429.376 76.936H431.024C430.896 79.176 428.928 81.24 426 81.24C422.784 81.24 420.72 79.08 420.72 75.24C420.72 71.352 422.96 69.24 426.128 69.24C428.896 69.24 430.848 71.064 431.008 73.176ZM434.312 81H432.776V69.48H434.312V73.624C434.92 72.84 435.8 72.44 436.744 72.44C438.552 72.44 439.688 73.544 439.688 75.576V81H438.152V75.592C438.152 74.344 437.512 73.752 436.376 73.752C435.24 73.752 434.312 74.552 434.312 75.928V81ZM447.518 78.6H449.182C448.766 80.12 447.454 81.24 445.454 81.24C443.086 81.24 441.374 79.768 441.374 76.84C441.374 73.944 443.07 72.44 445.374 72.44C447.678 72.44 449.278 73.816 449.278 77.176H442.942C443.07 79.096 444.11 79.944 445.502 79.944C446.51 79.944 447.278 79.368 447.518 78.6ZM443.006 75.96H447.71C447.598 74.408 446.686 73.672 445.406 73.672C444.174 73.672 443.246 74.424 443.006 75.96ZM456.544 78.328H458.224C458 79.944 456.64 81.24 454.576 81.24C452.368 81.24 450.64 79.72 450.64 76.904C450.64 74.12 452.208 72.44 454.56 72.44C456.448 72.44 457.888 73.448 458.16 75.144H456.464C456.256 74.232 455.568 73.736 454.592 73.736C453.232 73.736 452.272 74.744 452.272 76.952C452.272 78.984 453.312 79.944 454.608 79.944C455.632 79.944 456.384 79.368 456.544 78.328ZM461.515 81H459.979V69.48H461.515V75.912L464.779 72.68H466.795L463.051 76.296L467.259 81H465.211L461.515 76.808V81ZM469.556 81H468.292V69.48H469.828V73.832C470.388 73.032 471.316 72.44 472.612 72.44C474.804 72.44 476.276 74.008 476.276 76.776C476.276 79.656 474.692 81.24 472.5 81.24C471.22 81.24 470.34 80.68 469.796 79.896L469.556 81ZM474.676 76.744C474.676 74.696 473.636 73.752 472.26 73.752C470.884 73.752 469.748 74.76 469.748 76.744C469.748 78.76 470.756 79.928 472.26 79.928C473.7 79.928 474.676 78.936 474.676 76.744ZM477.562 76.84C477.562 73.848 479.418 72.44 481.674 72.44C483.946 72.44 485.77 73.848 485.77 76.84C485.77 79.752 484.01 81.24 481.658 81.24C479.338 81.24 477.562 79.72 477.562 76.84ZM479.162 76.84C479.162 78.904 480.25 79.992 481.69 79.992C483.162 79.992 484.17 78.904 484.17 76.84C484.17 74.728 483.098 73.688 481.674 73.688C480.25 73.688 479.162 74.76 479.162 76.84ZM493.746 72.68L490.962 76.568L494.226 81H492.354L490.098 77.784L487.89 81H486.082L489.186 76.68L486.274 72.68H488.114L490.098 75.48L491.986 72.68H493.746ZM500.388 69.48H502.036V79.544H507.46V81H500.388V69.48ZM510.448 75H508.816C508.976 73.464 510.304 72.44 512.384 72.44C514.56 72.44 515.776 73.608 515.776 75.32V81H514.512L514.32 79.864C513.776 80.632 512.88 81.24 511.536 81.24C509.712 81.24 508.656 80.216 508.656 78.856C508.656 77.336 509.568 76.472 511.808 76.088L514.24 75.672V75.256C514.24 74.232 513.552 73.656 512.32 73.656C511.136 73.656 510.56 74.168 510.448 75ZM514.24 76.872L512.176 77.24C510.688 77.496 510.288 77.96 510.288 78.696C510.288 79.496 510.864 79.944 511.904 79.944C513.072 79.944 514.24 79.08 514.24 77.944V76.872ZM519.197 81H517.933V69.48H519.469V73.832C520.029 73.032 520.957 72.44 522.253 72.44C524.445 72.44 525.917 74.008 525.917 76.776C525.917 79.656 524.333 81.24 522.141 81.24C520.861 81.24 519.981 80.68 519.437 79.896L519.197 81ZM524.317 76.744C524.317 74.696 523.277 73.752 521.901 73.752C520.525 73.752 519.389 74.76 519.389 76.744C519.389 78.76 520.397 79.928 521.901 79.928C523.341 79.928 524.317 78.936 524.317 76.744ZM533.347 78.6H535.01C534.595 80.12 533.283 81.24 531.283 81.24C528.914 81.24 527.203 79.768 527.203 76.84C527.203 73.944 528.899 72.44 531.203 72.44C533.507 72.44 535.107 73.816 535.107 77.176H528.771C528.899 79.096 529.939 79.944 531.331 79.944C532.339 79.944 533.107 79.368 533.347 78.6ZM528.835 75.96H533.539C533.427 74.408 532.515 73.672 531.235 73.672C530.003 73.672 529.075 74.424 528.835 75.96ZM538.484 69.48V81H536.948V69.48H538.484Z" fill="white" fill-opacity="0.95"/>
<rect x="604" y="68" width="16" height="16" rx="2" fill="#3492EB"/>
<path d="M617 76.4998H607C606.867 76.4998 606.74 76.4471 606.646 76.3533C606.553 76.2595 606.5 76.1324 606.5 75.9998C606.5 75.8671 606.553 75.74 606.646 75.6462C606.74 75.5524 606.867 75.4998 607 75.4998H617C617.133 75.4998 617.26 75.5524 617.354 75.6462C617.447 75.74 617.5 75.8671 617.5 75.9998C617.5 76.1324 617.447 76.2595 617.354 76.3533C617.26 76.4471 617.133 76.4998 617 76.4998Z" fill="black" fill-opacity="0.95"/>
<path d="M639.008 73.176H637.36C637.152 71.608 635.904 70.6 634.128 70.6C631.92 70.6 630.384 72.12 630.384 75.24C630.384 78.216 631.872 79.864 634.032 79.864C635.904 79.864 637.28 78.6 637.376 76.936H639.024C638.896 79.176 636.928 81.24 634 81.24C630.784 81.24 628.72 79.08 628.72 75.24C628.72 71.352 630.96 69.24 634.128 69.24C636.896 69.24 638.848 71.064 639.008 73.176ZM642.312 81H640.776V69.48H642.312V73.624C642.92 72.84 643.8 72.44 644.744 72.44C646.552 72.44 647.688 73.544 647.688 75.576V81H646.152V75.592C646.152 74.344 645.512 73.752 644.376 73.752C643.24 73.752 642.312 74.552 642.312 75.928V81ZM655.518 78.6H657.182C656.766 80.12 655.454 81.24 653.454 81.24C651.086 81.24 649.374 79.768 649.374 76.84C649.374 73.944 651.07 72.44 653.374 72.44C655.678 72.44 657.278 73.816 657.278 77.176H650.942C651.07 79.096 652.11 79.944 653.502 79.944C654.51 79.944 655.278 79.368 655.518 78.6ZM651.006 75.96H655.71C655.598 74.408 654.686 73.672 653.406 73.672C652.174 73.672 651.246 74.424 651.006 75.96ZM664.544 78.328H666.224C666 79.944 664.64 81.24 662.576 81.24C660.368 81.24 658.64 79.72 658.64 76.904C658.64 74.12 660.208 72.44 662.56 72.44C664.448 72.44 665.888 73.448 666.16 75.144H664.464C664.256 74.232 663.568 73.736 662.592 73.736C661.232 73.736 660.272 74.744 660.272 76.952C660.272 78.984 661.312 79.944 662.608 79.944C663.632 79.944 664.384 79.368 664.544 78.328ZM669.515 81H667.979V69.48H669.515V75.912L672.779 72.68H674.795L671.051 76.296L675.259 81H673.211L669.515 76.808V81ZM677.556 81H676.292V69.48H677.828V73.832C678.388 73.032 679.316 72.44 680.612 72.44C682.804 72.44 684.276 74.008 684.276 76.776C684.276 79.656 682.692 81.24 680.5 81.24C679.22 81.24 678.34 80.68 677.796 79.896L677.556 81ZM682.676 76.744C682.676 74.696 681.636 73.752 680.26 73.752C678.884 73.752 677.748 74.76 677.748 76.744C677.748 78.76 678.756 79.928 680.26 79.928C681.7 79.928 682.676 78.936 682.676 76.744ZM685.562 76.84C685.562 73.848 687.418 72.44 689.674 72.44C691.946 72.44 693.77 73.848 693.77 76.84C693.77 79.752 692.01 81.24 689.658 81.24C687.338 81.24 685.562 79.72 685.562 76.84ZM687.162 76.84C687.162 78.904 688.25 79.992 689.69 79.992C691.162 79.992 692.17 78.904 692.17 76.84C692.17 74.728 691.098 73.688 689.674 73.688C688.25 73.688 687.162 74.76 687.162 76.84ZM701.746 72.68L698.962 76.568L702.226 81H700.354L698.098 77.784L695.89 81H694.082L697.186 76.68L694.274 72.68H696.114L698.098 75.48L699.986 72.68H701.746ZM708.388 69.48H710.036V79.544H715.46V81H708.388V69.48ZM718.448 75H716.816C716.976 73.464 718.304 72.44 720.384 72.44C722.56 72.44 723.776 73.608 723.776 75.32V81H722.512L722.32 79.864C721.776 80.632 720.88 81.24 719.536 81.24C717.712 81.24 716.656 80.216 716.656 78.856C716.656 77.336 717.568 76.472 719.808 76.088L722.24 75.672V75.256C722.24 74.232 721.552 73.656 720.32 73.656C719.136 73.656 718.56 74.168 718.448 75ZM722.24 76.872L720.176 77.24C718.688 77.496 718.288 77.96 718.288 78.696C718.288 79.496 718.864 79.944 719.904 79.944C721.072 79.944 722.24 79.08 722.24 77.944V76.872ZM727.197 81H725.933V69.48H727.469V73.832C728.029 73.032 728.957 72.44 730.253 72.44C732.445 72.44 733.917 74.008 733.917 76.776C733.917 79.656 732.333 81.24 730.141 81.24C728.861 81.24 727.981 80.68 727.437 79.896L727.197 81ZM732.317 76.744C732.317 74.696 731.277 73.752 729.901 73.752C728.525 73.752 727.389 74.76 727.389 76.744C727.389 78.76 728.397 79.928 729.901 79.928C731.341 79.928 732.317 78.936 732.317 76.744ZM741.347 78.6H743.01C742.595 80.12 741.283 81.24 739.283 81.24C736.914 81.24 735.203 79.768 735.203 76.84C735.203 73.944 736.899 72.44 739.203 72.44C741.507 72.44 743.107 73.816 743.107 77.176H736.771C736.899 79.096 737.939 79.944 739.331 79.944C740.339 79.944 741.107 79.368 741.347 78.6ZM736.835 75.96H741.539C741.427 74.408 740.515 73.672 739.235 73.672C738.003 73.672 737.075 74.424 736.835 75.96ZM746.484 69.48V81H744.948V69.48H746.484Z" fill="white" fill-opacity="0.95"/>
<path d="M47.96 133.48H52.12C53.9653 133.48 55.2827 133.837 56.072 134.552C56.7547 135.171 57.096 136.093 57.096 137.32C57.096 138.717 56.6373 139.725 55.72 140.344C54.92 140.877 53.752 141.144 52.216 141.144H50.648V145H47.96V133.48ZM52.152 135.32H50.648V139.304H52.248C53.6347 139.304 54.328 138.643 54.328 137.32C54.328 135.987 53.6027 135.32 52.152 135.32ZM68.8243 145H65.6403L63.0963 140.792H61.6243V145H58.9363V133.48H63.1763C64.8829 133.48 66.1523 133.832 66.9843 134.536C67.6989 135.155 68.0563 136.019 68.0563 137.128C68.0563 138.696 67.2936 139.763 65.7683 140.328L68.8243 145ZM63.2083 135.336H61.6243V138.936H63.3043C63.9336 138.936 64.4296 138.76 64.7923 138.408C65.1123 138.088 65.2723 137.661 65.2723 137.128C65.2723 135.933 64.5843 135.336 63.2083 135.336ZM77.8176 138.264V140.12H73.1936V143.064H78.2816V145H70.5056V133.48H78.2816V135.448H73.1936V138.264H77.8176ZM84.9865 145.24C83.4398 145.24 82.2185 144.867 81.3225 144.12C80.5652 143.491 80.1118 142.653 79.9625 141.608H82.5065C82.6025 142.173 82.8798 142.611 83.3385 142.92C83.7758 143.219 84.3358 143.368 85.0185 143.368C86.4478 143.368 87.1625 142.925 87.1625 142.04C87.1625 141.475 86.8532 141.043 86.2345 140.744C85.8825 140.573 85.2318 140.376 84.2825 140.152C82.9812 139.853 82.0425 139.469 81.4665 139C80.7412 138.403 80.3785 137.592 80.3785 136.568C80.3785 135.459 80.8212 134.611 81.7065 134.024C82.5065 133.501 83.6052 133.24 85.0025 133.24C86.4212 133.24 87.5305 133.56 88.3305 134.2C89.0238 134.755 89.4398 135.501 89.5785 136.44H87.0665C87.0025 135.981 86.7518 135.629 86.3145 135.384C85.9412 135.181 85.4825 135.08 84.9385 135.08C83.7012 135.08 83.0825 135.469 83.0825 136.248C83.0825 136.675 83.2425 136.995 83.5625 137.208C83.8825 137.421 84.5012 137.629 85.4185 137.832C86.8585 138.141 87.9305 138.579 88.6345 139.144C89.4558 139.795 89.8665 140.659 89.8665 141.736C89.8665 142.813 89.4238 143.672 88.5385 144.312C87.6852 144.931 86.5012 145.24 84.9865 145.24ZM96.2515 145.24C94.7048 145.24 93.4835 144.867 92.5875 144.12C91.8302 143.491 91.3768 142.653 91.2275 141.608H93.7715C93.8675 142.173 94.1448 142.611 94.6035 142.92C95.0408 143.219 95.6008 143.368 96.2835 143.368C97.7128 143.368 98.4275 142.925 98.4275 142.04C98.4275 141.475 98.1182 141.043 97.4995 140.744C97.1475 140.573 96.4968 140.376 95.5475 140.152C94.2462 139.853 93.3075 139.469 92.7315 139C92.0062 138.403 91.6435 137.592 91.6435 136.568C91.6435 135.459 92.0862 134.611 92.9715 134.024C93.7715 133.501 94.8702 133.24 96.2675 133.24C97.6862 133.24 98.7955 133.56 99.5955 134.2C100.289 134.755 100.705 135.501 100.844 136.44H98.3315C98.2675 135.981 98.0168 135.629 97.5795 135.384C97.2062 135.181 96.7475 135.08 96.2035 135.08C94.9662 135.08 94.3475 135.469 94.3475 136.248C94.3475 136.675 94.5075 136.995 94.8275 137.208C95.1475 137.421 95.7662 137.629 96.6835 137.832C98.1235 138.141 99.1955 138.579 99.8995 139.144C100.721 139.795 101.132 140.659 101.132 141.736C101.132 142.813 100.689 143.672 99.8035 144.312C98.9502 144.931 97.7662 145.24 96.2515 145.24ZM110.441 138.264V140.12H105.817V143.064H110.905V145H103.129V133.48H110.905V135.448H105.817V138.264H110.441ZM113.066 133.48H117.386C121.215 133.48 123.13 135.4 123.13 139.24C123.13 143.08 121.226 145 117.418 145H113.066V133.48ZM117.386 135.336H115.754V143.128H117.418C119.423 143.128 120.426 141.832 120.426 139.24C120.426 137.832 120.116 136.803 119.498 136.152C118.986 135.608 118.282 135.336 117.386 135.336Z" fill="white" fill-opacity="0.7"/>
<rect x="188" y="132" width="16" height="16" rx="2" fill="white" fill-opacity="0.4"/>
<rect x="188.5" y="132.5" width="15" height="15" rx="1.5" stroke="white" stroke-opacity="0.4"/>
<path d="M223.008 137.176H221.36C221.152 135.608 219.904 134.6 218.128 134.6C215.92 134.6 214.384 136.12 214.384 139.24C214.384 142.216 215.872 143.864 218.032 143.864C219.904 143.864 221.28 142.6 221.376 140.936H223.024C222.896 143.176 220.928 145.24 218 145.24C214.784 145.24 212.72 143.08 212.72 139.24C212.72 135.352 214.96 133.24 218.128 133.24C220.896 133.24 222.848 135.064 223.008 137.176ZM226.312 145H224.776V133.48H226.312V137.624C226.92 136.84 227.8 136.44 228.744 136.44C230.552 136.44 231.688 137.544 231.688 139.576V145H230.152V139.592C230.152 138.344 229.512 137.752 228.376 137.752C227.24 137.752 226.312 138.552 226.312 139.928V145ZM239.518 142.6H241.182C240.766 144.12 239.454 145.24 237.454 145.24C235.086 145.24 233.374 143.768 233.374 140.84C233.374 137.944 235.07 136.44 237.374 136.44C239.678 136.44 241.278 137.816 241.278 141.176H234.942C235.07 143.096 236.11 143.944 237.502 143.944C238.51 143.944 239.278 143.368 239.518 142.6ZM235.006 139.96H239.71C239.598 138.408 238.686 137.672 237.406 137.672C236.174 137.672 235.246 138.424 235.006 139.96ZM248.544 142.328H250.224C250 143.944 248.64 145.24 246.576 145.24C244.368 145.24 242.64 143.72 242.64 140.904C242.64 138.12 244.208 136.44 246.56 136.44C248.448 136.44 249.888 137.448 250.16 139.144H248.464C248.256 138.232 247.568 137.736 246.592 137.736C245.232 137.736 244.272 138.744 244.272 140.952C244.272 142.984 245.312 143.944 246.608 143.944C247.632 143.944 248.384 143.368 248.544 142.328ZM253.515 145H251.979V133.48H253.515V139.912L256.779 136.68H258.795L255.051 140.296L259.259 145H257.211L253.515 140.808V145ZM261.556 145H260.292V133.48H261.828V137.832C262.388 137.032 263.316 136.44 264.612 136.44C266.804 136.44 268.276 138.008 268.276 140.776C268.276 143.656 266.692 145.24 264.5 145.24C263.22 145.24 262.34 144.68 261.796 143.896L261.556 145ZM266.676 140.744C266.676 138.696 265.636 137.752 264.26 137.752C262.884 137.752 261.748 138.76 261.748 140.744C261.748 142.76 262.756 143.928 264.26 143.928C265.7 143.928 266.676 142.936 266.676 140.744ZM269.562 140.84C269.562 137.848 271.418 136.44 273.674 136.44C275.946 136.44 277.77 137.848 277.77 140.84C277.77 143.752 276.01 145.24 273.658 145.24C271.338 145.24 269.562 143.72 269.562 140.84ZM271.162 140.84C271.162 142.904 272.25 143.992 273.69 143.992C275.162 143.992 276.17 142.904 276.17 140.84C276.17 138.728 275.098 137.688 273.674 137.688C272.25 137.688 271.162 138.76 271.162 140.84ZM285.746 136.68L282.962 140.568L286.226 145H284.354L282.098 141.784L279.89 145H278.082L281.186 140.68L278.274 136.68H280.114L282.098 139.48L283.986 136.68H285.746ZM292.388 133.48H294.036V143.544H299.46V145H292.388V133.48ZM302.448 139H300.816C300.976 137.464 302.304 136.44 304.384 136.44C306.56 136.44 307.776 137.608 307.776 139.32V145H306.512L306.32 143.864C305.776 144.632 304.88 145.24 303.536 145.24C301.712 145.24 300.656 144.216 300.656 142.856C300.656 141.336 301.568 140.472 303.808 140.088L306.24 139.672V139.256C306.24 138.232 305.552 137.656 304.32 137.656C303.136 137.656 302.56 138.168 302.448 139ZM306.24 140.872L304.176 141.24C302.688 141.496 302.288 141.96 302.288 142.696C302.288 143.496 302.864 143.944 303.904 143.944C305.072 143.944 306.24 143.08 306.24 141.944V140.872ZM311.197 145H309.933V133.48H311.469V137.832C312.029 137.032 312.957 136.44 314.253 136.44C316.445 136.44 317.917 138.008 317.917 140.776C317.917 143.656 316.333 145.24 314.141 145.24C312.861 145.24 311.981 144.68 311.437 143.896L311.197 145ZM316.317 140.744C316.317 138.696 315.277 137.752 313.901 137.752C312.525 137.752 311.389 138.76 311.389 140.744C311.389 142.76 312.397 143.928 313.901 143.928C315.341 143.928 316.317 142.936 316.317 140.744ZM325.347 142.6H327.01C326.595 144.12 325.283 145.24 323.283 145.24C320.914 145.24 319.203 143.768 319.203 140.84C319.203 137.944 320.899 136.44 323.203 136.44C325.507 136.44 327.107 137.816 327.107 141.176H320.771C320.899 143.096 321.939 143.944 323.331 143.944C324.339 143.944 325.107 143.368 325.347 142.6ZM320.835 139.96H325.539C325.427 138.408 324.515 137.672 323.235 137.672C322.003 137.672 321.075 138.424 320.835 139.96ZM330.484 133.48V145H328.948V133.48H330.484Z" fill="white" fill-opacity="0.95"/>
<rect x="396" y="132" width="16" height="16" rx="2" fill="#3492EB"/>
<path d="M401.6 144.1C401.534 144.1 401.469 144.087 401.408 144.062C401.347 144.037 401.292 143.999 401.246 143.953L397.646 140.335C397.599 140.288 397.563 140.233 397.538 140.172C397.513 140.112 397.5 140.047 397.5 139.981C397.5 139.915 397.513 139.85 397.539 139.79C397.564 139.729 397.601 139.674 397.648 139.628C397.694 139.582 397.749 139.545 397.81 139.52C397.871 139.495 397.936 139.482 398.002 139.482C398.067 139.483 398.132 139.496 398.193 139.521C398.253 139.546 398.308 139.583 398.355 139.63L401.627 142.918L409.675 136.021C409.776 135.935 409.906 135.892 410.038 135.902C410.171 135.912 410.293 135.975 410.38 136.075C410.466 136.176 410.509 136.307 410.498 136.439C410.488 136.571 410.426 136.693 410.325 136.78L401.925 143.979C401.835 144.057 401.72 144.1 401.6 144.1Z" fill="black" fill-opacity="0.95"/>
<path d="M431.008 137.176H429.36C429.152 135.608 427.904 134.6 426.128 134.6C423.92 134.6 422.384 136.12 422.384 139.24C422.384 142.216 423.872 143.864 426.032 143.864C427.904 143.864 429.28 142.6 429.376 140.936H431.024C430.896 143.176 428.928 145.24 426 145.24C422.784 145.24 420.72 143.08 420.72 139.24C420.72 135.352 422.96 133.24 426.128 133.24C428.896 133.24 430.848 135.064 431.008 137.176ZM434.312 145H432.776V133.48H434.312V137.624C434.92 136.84 435.8 136.44 436.744 136.44C438.552 136.44 439.688 137.544 439.688 139.576V145H438.152V139.592C438.152 138.344 437.512 137.752 436.376 137.752C435.24 137.752 434.312 138.552 434.312 139.928V145ZM447.518 142.6H449.182C448.766 144.12 447.454 145.24 445.454 145.24C443.086 145.24 441.374 143.768 441.374 140.84C441.374 137.944 443.07 136.44 445.374 136.44C447.678 136.44 449.278 137.816 449.278 141.176H442.942C443.07 143.096 444.11 143.944 445.502 143.944C446.51 143.944 447.278 143.368 447.518 142.6ZM443.006 139.96H447.71C447.598 138.408 446.686 137.672 445.406 137.672C444.174 137.672 443.246 138.424 443.006 139.96ZM456.544 142.328H458.224C458 143.944 456.64 145.24 454.576 145.24C452.368 145.24 450.64 143.72 450.64 140.904C450.64 138.12 452.208 136.44 454.56 136.44C456.448 136.44 457.888 137.448 458.16 139.144H456.464C456.256 138.232 455.568 137.736 454.592 137.736C453.232 137.736 452.272 138.744 452.272 140.952C452.272 142.984 453.312 143.944 454.608 143.944C455.632 143.944 456.384 143.368 456.544 142.328ZM461.515 145H459.979V133.48H461.515V139.912L464.779 136.68H466.795L463.051 140.296L467.259 145H465.211L461.515 140.808V145ZM469.556 145H468.292V133.48H469.828V137.832C470.388 137.032 471.316 136.44 472.612 136.44C474.804 136.44 476.276 138.008 476.276 140.776C476.276 143.656 474.692 145.24 472.5 145.24C471.22 145.24 470.34 144.68 469.796 143.896L469.556 145ZM474.676 140.744C474.676 138.696 473.636 137.752 472.26 137.752C470.884 137.752 469.748 138.76 469.748 140.744C469.748 142.76 470.756 143.928 472.26 143.928C473.7 143.928 474.676 142.936 474.676 140.744ZM477.562 140.84C477.562 137.848 479.418 136.44 481.674 136.44C483.946 136.44 485.77 137.848 485.77 140.84C485.77 143.752 484.01 145.24 481.658 145.24C479.338 145.24 477.562 143.72 477.562 140.84ZM479.162 140.84C479.162 142.904 480.25 143.992 481.69 143.992C483.162 143.992 484.17 142.904 484.17 140.84C484.17 138.728 483.098 137.688 481.674 137.688C480.25 137.688 479.162 138.76 479.162 140.84ZM493.746 136.68L490.962 140.568L494.226 145H492.354L490.098 141.784L487.89 145H486.082L489.186 140.68L486.274 136.68H488.114L490.098 139.48L491.986 136.68H493.746ZM500.388 133.48H502.036V143.544H507.46V145H500.388V133.48ZM510.448 139H508.816C508.976 137.464 510.304 136.44 512.384 136.44C514.56 136.44 515.776 137.608 515.776 139.32V145H514.512L514.32 143.864C513.776 144.632 512.88 145.24 511.536 145.24C509.712 145.24 508.656 144.216 508.656 142.856C508.656 141.336 509.568 140.472 511.808 140.088L514.24 139.672V139.256C514.24 138.232 513.552 137.656 512.32 137.656C511.136 137.656 510.56 138.168 510.448 139ZM514.24 140.872L512.176 141.24C510.688 141.496 510.288 141.96 510.288 142.696C510.288 143.496 510.864 143.944 511.904 143.944C513.072 143.944 514.24 143.08 514.24 141.944V140.872ZM519.197 145H517.933V133.48H519.469V137.832C520.029 137.032 520.957 136.44 522.253 136.44C524.445 136.44 525.917 138.008 525.917 140.776C525.917 143.656 524.333 145.24 522.141 145.24C520.861 145.24 519.981 144.68 519.437 143.896L519.197 145ZM524.317 140.744C524.317 138.696 523.277 137.752 521.901 137.752C520.525 137.752 519.389 138.76 519.389 140.744C519.389 142.76 520.397 143.928 521.901 143.928C523.341 143.928 524.317 142.936 524.317 140.744ZM533.347 142.6H535.01C534.595 144.12 533.283 145.24 531.283 145.24C528.914 145.24 527.203 143.768 527.203 140.84C527.203 137.944 528.899 136.44 531.203 136.44C533.507 136.44 535.107 137.816 535.107 141.176H528.771C528.899 143.096 529.939 143.944 531.331 143.944C532.339 143.944 533.107 143.368 533.347 142.6ZM528.835 139.96H533.539C533.427 138.408 532.515 137.672 531.235 137.672C530.003 137.672 529.075 138.424 528.835 139.96ZM538.484 133.48V145H536.948V133.48H538.484Z" fill="white" fill-opacity="0.95"/>
<rect x="604" y="132" width="16" height="16" rx="2" fill="#1170CF"/>
<path d="M617 140.5H607C606.867 140.5 606.74 140.447 606.646 140.353C606.553 140.26 606.5 140.132 606.5 140C606.5 139.867 606.553 139.74 606.646 139.646C606.74 139.552 606.867 139.5 607 139.5H617C617.133 139.5 617.26 139.552 617.354 139.646C617.447 139.74 617.5 139.867 617.5 140C617.5 140.132 617.447 140.26 617.354 140.353C617.26 140.447 617.133 140.5 617 140.5Z" fill="black" fill-opacity="0.95"/>
<path d="M639.008 137.176H637.36C637.152 135.608 635.904 134.6 634.128 134.6C631.92 134.6 630.384 136.12 630.384 139.24C630.384 142.216 631.872 143.864 634.032 143.864C635.904 143.864 637.28 142.6 637.376 140.936H639.024C638.896 143.176 636.928 145.24 634 145.24C630.784 145.24 628.72 143.08 628.72 139.24C628.72 135.352 630.96 133.24 634.128 133.24C636.896 133.24 638.848 135.064 639.008 137.176ZM642.312 145H640.776V133.48H642.312V137.624C642.92 136.84 643.8 136.44 644.744 136.44C646.552 136.44 647.688 137.544 647.688 139.576V145H646.152V139.592C646.152 138.344 645.512 137.752 644.376 137.752C643.24 137.752 642.312 138.552 642.312 139.928V145ZM655.518 142.6H657.182C656.766 144.12 655.454 145.24 653.454 145.24C651.086 145.24 649.374 143.768 649.374 140.84C649.374 137.944 651.07 136.44 653.374 136.44C655.678 136.44 657.278 137.816 657.278 141.176H650.942C651.07 143.096 652.11 143.944 653.502 143.944C654.51 143.944 655.278 143.368 655.518 142.6ZM651.006 139.96H655.71C655.598 138.408 654.686 137.672 653.406 137.672C652.174 137.672 651.246 138.424 651.006 139.96ZM664.544 142.328H666.224C666 143.944 664.64 145.24 662.576 145.24C660.368 145.24 658.64 143.72 658.64 140.904C658.64 138.12 660.208 136.44 662.56 136.44C664.448 136.44 665.888 137.448 666.16 139.144H664.464C664.256 138.232 663.568 137.736 662.592 137.736C661.232 137.736 660.272 138.744 660.272 140.952C660.272 142.984 661.312 143.944 662.608 143.944C663.632 143.944 664.384 143.368 664.544 142.328ZM669.515 145H667.979V133.48H669.515V139.912L672.779 136.68H674.795L671.051 140.296L675.259 145H673.211L669.515 140.808V145ZM677.556 145H676.292V133.48H677.828V137.832C678.388 137.032 679.316 136.44 680.612 136.44C682.804 136.44 684.276 138.008 684.276 140.776C684.276 143.656 682.692 145.24 680.5 145.24C679.22 145.24 678.34 144.68 677.796 143.896L677.556 145ZM682.676 140.744C682.676 138.696 681.636 137.752 680.26 137.752C678.884 137.752 677.748 138.76 677.748 140.744C677.748 142.76 678.756 143.928 680.26 143.928C681.7 143.928 682.676 142.936 682.676 140.744ZM685.562 140.84C685.562 137.848 687.418 136.44 689.674 136.44C691.946 136.44 693.77 137.848 693.77 140.84C693.77 143.752 692.01 145.24 689.658 145.24C687.338 145.24 685.562 143.72 685.562 140.84ZM687.162 140.84C687.162 142.904 688.25 143.992 689.69 143.992C691.162 143.992 692.17 142.904 692.17 140.84C692.17 138.728 691.098 137.688 689.674 137.688C688.25 137.688 687.162 138.76 687.162 140.84ZM701.746 136.68L698.962 140.568L702.226 145H700.354L698.098 141.784L695.89 145H694.082L697.186 140.68L694.274 136.68H696.114L698.098 139.48L699.986 136.68H701.746ZM708.388 133.48H710.036V143.544H715.46V145H708.388V133.48ZM718.448 139H716.816C716.976 137.464 718.304 136.44 720.384 136.44C722.56 136.44 723.776 137.608 723.776 139.32V145H722.512L722.32 143.864C721.776 144.632 720.88 145.24 719.536 145.24C717.712 145.24 716.656 144.216 716.656 142.856C716.656 141.336 717.568 140.472 719.808 140.088L722.24 139.672V139.256C722.24 138.232 721.552 137.656 720.32 137.656C719.136 137.656 718.56 138.168 718.448 139ZM722.24 140.872L720.176 141.24C718.688 141.496 718.288 141.96 718.288 142.696C718.288 143.496 718.864 143.944 719.904 143.944C721.072 143.944 722.24 143.08 722.24 141.944V140.872ZM727.197 145H725.933V133.48H727.469V137.832C728.029 137.032 728.957 136.44 730.253 136.44C732.445 136.44 733.917 138.008 733.917 140.776C733.917 143.656 732.333 145.24 730.141 145.24C728.861 145.24 727.981 144.68 727.437 143.896L727.197 145ZM732.317 140.744C732.317 138.696 731.277 137.752 729.901 137.752C728.525 137.752 727.389 138.76 727.389 140.744C727.389 142.76 728.397 143.928 729.901 143.928C731.341 143.928 732.317 142.936 732.317 140.744ZM741.347 142.6H743.01C742.595 144.12 741.283 145.24 739.283 145.24C736.914 145.24 735.203 143.768 735.203 140.84C735.203 137.944 736.899 136.44 739.203 136.44C741.507 136.44 743.107 137.816 743.107 141.176H736.771C736.899 143.096 737.939 143.944 739.331 143.944C740.339 143.944 741.107 143.368 741.347 142.6ZM736.835 139.96H741.539C741.427 138.408 740.515 137.672 739.235 137.672C738.003 137.672 737.075 138.424 736.835 139.96ZM746.484 133.48V145H744.948V133.48H746.484Z" fill="white" fill-opacity="0.95"/>
<path d="M51.776 202.488V204.344H47.648V209H44.96V197.48H52.272V199.416H47.648V202.488H51.776ZM59.3495 207.336C60.2455 207.336 60.9495 207 61.4615 206.328C61.9948 205.624 62.2615 204.595 62.2615 203.24C62.2615 201.715 61.9202 200.6 61.2375 199.896C60.7362 199.384 60.1068 199.128 59.3495 199.128C58.4428 199.128 57.7388 199.469 57.2375 200.152C56.7042 200.867 56.4375 201.901 56.4375 203.256C56.4375 204.781 56.7842 205.891 57.4775 206.584C57.9682 207.085 58.5922 207.336 59.3495 207.336ZM59.3495 209.24C57.6322 209.24 56.2722 208.733 55.2695 207.72C54.2348 206.685 53.7175 205.197 53.7175 203.256C53.7175 201.091 54.3735 199.48 55.6855 198.424C56.6668 197.635 57.8882 197.24 59.3495 197.24C61.0668 197.24 62.4268 197.747 63.4295 198.76C64.4642 199.805 64.9815 201.299 64.9815 203.24C64.9815 205.405 64.3255 207.016 63.0135 208.072C62.0322 208.851 60.8108 209.24 59.3495 209.24ZM72.3124 207.352C73.8697 207.352 74.707 206.488 74.8244 204.76H77.5604C77.3684 206.328 76.771 207.491 75.7684 208.248C74.883 208.909 73.715 209.24 72.2644 209.24C70.547 209.24 69.2084 208.669 68.2484 207.528C67.3524 206.461 66.9044 205.021 66.9044 203.208C66.9044 201.16 67.4644 199.613 68.5844 198.568C69.5337 197.683 70.803 197.24 72.3924 197.24C73.8537 197.24 75.043 197.629 75.9604 198.408C76.7817 199.112 77.2884 200.056 77.4804 201.24H74.7924C74.4937 199.821 73.6937 199.112 72.3924 199.112C71.4964 199.112 70.819 199.48 70.3604 200.216C69.923 200.909 69.7044 201.907 69.7044 203.208C69.7044 204.733 69.9924 205.848 70.5684 206.552C71.0164 207.085 71.5977 207.352 72.3124 207.352ZM79.6437 197.48H82.3317V205.32C82.3317 206.013 82.5451 206.536 82.9717 206.888C83.3451 207.187 83.8571 207.336 84.5077 207.336C85.2651 207.336 85.8411 207.139 86.2357 206.744C86.5877 206.392 86.7637 205.917 86.7637 205.32V197.48H89.3397V205.144C89.3397 206.52 88.8597 207.571 87.8997 208.296C87.0677 208.925 85.9317 209.24 84.4917 209.24C82.8491 209.24 81.6011 208.829 80.7477 208.008C80.0117 207.304 79.6437 206.349 79.6437 205.144V197.48ZM96.3609 209.24C94.8142 209.24 93.5929 208.867 92.6969 208.12C91.9395 207.491 91.4862 206.653 91.3369 205.608H93.8809C93.9769 206.173 94.2542 206.611 94.7129 206.92C95.1502 207.219 95.7102 207.368 96.3929 207.368C97.8222 207.368 98.5369 206.925 98.5369 206.04C98.5369 205.475 98.2275 205.043 97.6089 204.744C97.2569 204.573 96.6062 204.376 95.6569 204.152C94.3555 203.853 93.4169 203.469 92.8409 203C92.1155 202.403 91.7529 201.592 91.7529 200.568C91.7529 199.459 92.1955 198.611 93.0809 198.024C93.8809 197.501 94.9795 197.24 96.3769 197.24C97.7955 197.24 98.9049 197.56 99.7049 198.2C100.398 198.755 100.814 199.501 100.953 200.44H98.4409C98.3769 199.981 98.1262 199.629 97.6889 199.384C97.3155 199.181 96.8569 199.08 96.3129 199.08C95.0755 199.08 94.4569 199.469 94.4569 200.248C94.4569 200.675 94.6169 200.995 94.9369 201.208C95.2569 201.421 95.8755 201.629 96.7929 201.832C98.2329 202.141 99.3049 202.579 100.009 203.144C100.83 203.795 101.241 204.659 101.241 205.736C101.241 206.813 100.798 207.672 99.9129 208.312C99.0595 208.931 97.8755 209.24 96.3609 209.24ZM110.55 202.264V204.12H105.926V207.064H111.014V209H103.238V197.48H111.014V199.448H105.926V202.264H110.55ZM113.175 197.48H117.495C121.324 197.48 123.239 199.4 123.239 203.24C123.239 207.08 121.335 209 117.527 209H113.175V197.48ZM117.495 199.336H115.863V207.128H117.527C119.532 207.128 120.535 205.832 120.535 203.24C120.535 201.832 120.226 200.803 119.607 200.152C119.095 199.608 118.391 199.336 117.495 199.336Z" fill="white" fill-opacity="0.7"/>
<g filter="url(#filter0_ddd_304_3551)">
<rect x="188" y="196" width="16" height="16" rx="2" fill="white" fill-opacity="0.01" shape-rendering="crispEdges"/>
<rect x="188.5" y="196.5" width="15" height="15" rx="1.5" stroke="white" stroke-opacity="0.4" shape-rendering="crispEdges"/>
</g>
<path d="M223.008 201.176H221.36C221.152 199.608 219.904 198.6 218.128 198.6C215.92 198.6 214.384 200.12 214.384 203.24C214.384 206.216 215.872 207.864 218.032 207.864C219.904 207.864 221.28 206.6 221.376 204.936H223.024C222.896 207.176 220.928 209.24 218 209.24C214.784 209.24 212.72 207.08 212.72 203.24C212.72 199.352 214.96 197.24 218.128 197.24C220.896 197.24 222.848 199.064 223.008 201.176ZM226.312 209H224.776V197.48H226.312V201.624C226.92 200.84 227.8 200.44 228.744 200.44C230.552 200.44 231.688 201.544 231.688 203.576V209H230.152V203.592C230.152 202.344 229.512 201.752 228.376 201.752C227.24 201.752 226.312 202.552 226.312 203.928V209ZM239.518 206.6H241.182C240.766 208.12 239.454 209.24 237.454 209.24C235.086 209.24 233.374 207.768 233.374 204.84C233.374 201.944 235.07 200.44 237.374 200.44C239.678 200.44 241.278 201.816 241.278 205.176H234.942C235.07 207.096 236.11 207.944 237.502 207.944C238.51 207.944 239.278 207.368 239.518 206.6ZM235.006 203.96H239.71C239.598 202.408 238.686 201.672 237.406 201.672C236.174 201.672 235.246 202.424 235.006 203.96ZM248.544 206.328H250.224C250 207.944 248.64 209.24 246.576 209.24C244.368 209.24 242.64 207.72 242.64 204.904C242.64 202.12 244.208 200.44 246.56 200.44C248.448 200.44 249.888 201.448 250.16 203.144H248.464C248.256 202.232 247.568 201.736 246.592 201.736C245.232 201.736 244.272 202.744 244.272 204.952C244.272 206.984 245.312 207.944 246.608 207.944C247.632 207.944 248.384 207.368 248.544 206.328ZM253.515 209H251.979V197.48H253.515V203.912L256.779 200.68H258.795L255.051 204.296L259.259 209H257.211L253.515 204.808V209ZM261.556 209H260.292V197.48H261.828V201.832C262.388 201.032 263.316 200.44 264.612 200.44C266.804 200.44 268.276 202.008 268.276 204.776C268.276 207.656 266.692 209.24 264.5 209.24C263.22 209.24 262.34 208.68 261.796 207.896L261.556 209ZM266.676 204.744C266.676 202.696 265.636 201.752 264.26 201.752C262.884 201.752 261.748 202.76 261.748 204.744C261.748 206.76 262.756 207.928 264.26 207.928C265.7 207.928 266.676 206.936 266.676 204.744ZM269.562 204.84C269.562 201.848 271.418 200.44 273.674 200.44C275.946 200.44 277.77 201.848 277.77 204.84C277.77 207.752 276.01 209.24 273.658 209.24C271.338 209.24 269.562 207.72 269.562 204.84ZM271.162 204.84C271.162 206.904 272.25 207.992 273.69 207.992C275.162 207.992 276.17 206.904 276.17 204.84C276.17 202.728 275.098 201.688 273.674 201.688C272.25 201.688 271.162 202.76 271.162 204.84ZM285.746 200.68L282.962 204.568L286.226 209H284.354L282.098 205.784L279.89 209H278.082L281.186 204.68L278.274 200.68H280.114L282.098 203.48L283.986 200.68H285.746ZM292.388 197.48H294.036V207.544H299.46V209H292.388V197.48ZM302.448 203H300.816C300.976 201.464 302.304 200.44 304.384 200.44C306.56 200.44 307.776 201.608 307.776 203.32V209H306.512L306.32 207.864C305.776 208.632 304.88 209.24 303.536 209.24C301.712 209.24 300.656 208.216 300.656 206.856C300.656 205.336 301.568 204.472 303.808 204.088L306.24 203.672V203.256C306.24 202.232 305.552 201.656 304.32 201.656C303.136 201.656 302.56 202.168 302.448 203ZM306.24 204.872L304.176 205.24C302.688 205.496 302.288 205.96 302.288 206.696C302.288 207.496 302.864 207.944 303.904 207.944C305.072 207.944 306.24 207.08 306.24 205.944V204.872ZM311.197 209H309.933V197.48H311.469V201.832C312.029 201.032 312.957 200.44 314.253 200.44C316.445 200.44 317.917 202.008 317.917 204.776C317.917 207.656 316.333 209.24 314.141 209.24C312.861 209.24 311.981 208.68 311.437 207.896L311.197 209ZM316.317 204.744C316.317 202.696 315.277 201.752 313.901 201.752C312.525 201.752 311.389 202.76 311.389 204.744C311.389 206.76 312.397 207.928 313.901 207.928C315.341 207.928 316.317 206.936 316.317 204.744ZM325.347 206.6H327.01C326.595 208.12 325.283 209.24 323.283 209.24C320.914 209.24 319.203 207.768 319.203 204.84C319.203 201.944 320.899 200.44 323.203 200.44C325.507 200.44 327.107 201.816 327.107 205.176H320.771C320.899 207.096 321.939 207.944 323.331 207.944C324.339 207.944 325.107 207.368 325.347 206.6ZM320.835 203.96H325.539C325.427 202.408 324.515 201.672 323.235 201.672C322.003 201.672 321.075 202.424 320.835 203.96ZM330.484 197.48V209H328.948V197.48H330.484Z" fill="white" fill-opacity="0.95"/>
<g filter="url(#filter1_ddd_304_3551)">
<g clip-path="url(#clip0_304_3551)">
<rect x="396" y="196" width="16" height="16" rx="2" fill="#64B4FA"/>
<path d="M401.6 208.1C401.534 208.1 401.469 208.087 401.408 208.062C401.347 208.037 401.292 207.999 401.246 207.953L397.646 204.335C397.599 204.288 397.563 204.233 397.538 204.172C397.513 204.112 397.5 204.047 397.5 203.981C397.5 203.915 397.513 203.85 397.539 203.79C397.564 203.729 397.601 203.674 397.648 203.628C397.694 203.582 397.749 203.545 397.81 203.52C397.871 203.495 397.936 203.482 398.002 203.482C398.067 203.483 398.132 203.496 398.193 203.521C398.253 203.546 398.308 203.583 398.355 203.63L401.627 206.918L409.675 200.021C409.776 199.935 409.906 199.892 410.038 199.902C410.171 199.912 410.293 199.975 410.38 200.075C410.466 200.176 410.509 200.307 410.498 200.439C410.488 200.571 410.426 200.693 410.325 200.78L401.925 207.979C401.835 208.057 401.72 208.1 401.6 208.1Z" fill="black" fill-opacity="0.95"/>
</g>
</g>
<path d="M431.008 201.176H429.36C429.152 199.608 427.904 198.6 426.128 198.6C423.92 198.6 422.384 200.12 422.384 203.24C422.384 206.216 423.872 207.864 426.032 207.864C427.904 207.864 429.28 206.6 429.376 204.936H431.024C430.896 207.176 428.928 209.24 426 209.24C422.784 209.24 420.72 207.08 420.72 203.24C420.72 199.352 422.96 197.24 426.128 197.24C428.896 197.24 430.848 199.064 431.008 201.176ZM434.312 209H432.776V197.48H434.312V201.624C434.92 200.84 435.8 200.44 436.744 200.44C438.552 200.44 439.688 201.544 439.688 203.576V209H438.152V203.592C438.152 202.344 437.512 201.752 436.376 201.752C435.24 201.752 434.312 202.552 434.312 203.928V209ZM447.518 206.6H449.182C448.766 208.12 447.454 209.24 445.454 209.24C443.086 209.24 441.374 207.768 441.374 204.84C441.374 201.944 443.07 200.44 445.374 200.44C447.678 200.44 449.278 201.816 449.278 205.176H442.942C443.07 207.096 444.11 207.944 445.502 207.944C446.51 207.944 447.278 207.368 447.518 206.6ZM443.006 203.96H447.71C447.598 202.408 446.686 201.672 445.406 201.672C444.174 201.672 443.246 202.424 443.006 203.96ZM456.544 206.328H458.224C458 207.944 456.64 209.24 454.576 209.24C452.368 209.24 450.64 207.72 450.64 204.904C450.64 202.12 452.208 200.44 454.56 200.44C456.448 200.44 457.888 201.448 458.16 203.144H456.464C456.256 202.232 455.568 201.736 454.592 201.736C453.232 201.736 452.272 202.744 452.272 204.952C452.272 206.984 453.312 207.944 454.608 207.944C455.632 207.944 456.384 207.368 456.544 206.328ZM461.515 209H459.979V197.48H461.515V203.912L464.779 200.68H466.795L463.051 204.296L467.259 209H465.211L461.515 204.808V209ZM469.556 209H468.292V197.48H469.828V201.832C470.388 201.032 471.316 200.44 472.612 200.44C474.804 200.44 476.276 202.008 476.276 204.776C476.276 207.656 474.692 209.24 472.5 209.24C471.22 209.24 470.34 208.68 469.796 207.896L469.556 209ZM474.676 204.744C474.676 202.696 473.636 201.752 472.26 201.752C470.884 201.752 469.748 202.76 469.748 204.744C469.748 206.76 470.756 207.928 472.26 207.928C473.7 207.928 474.676 206.936 474.676 204.744ZM477.562 204.84C477.562 201.848 479.418 200.44 481.674 200.44C483.946 200.44 485.77 201.848 485.77 204.84C485.77 207.752 484.01 209.24 481.658 209.24C479.338 209.24 477.562 207.72 477.562 204.84ZM479.162 204.84C479.162 206.904 480.25 207.992 481.69 207.992C483.162 207.992 484.17 206.904 484.17 204.84C484.17 202.728 483.098 201.688 481.674 201.688C480.25 201.688 479.162 202.76 479.162 204.84ZM493.746 200.68L490.962 204.568L494.226 209H492.354L490.098 205.784L487.89 209H486.082L489.186 204.68L486.274 200.68H488.114L490.098 203.48L491.986 200.68H493.746ZM500.388 197.48H502.036V207.544H507.46V209H500.388V197.48ZM510.448 203H508.816C508.976 201.464 510.304 200.44 512.384 200.44C514.56 200.44 515.776 201.608 515.776 203.32V209H514.512L514.32 207.864C513.776 208.632 512.88 209.24 511.536 209.24C509.712 209.24 508.656 208.216 508.656 206.856C508.656 205.336 509.568 204.472 511.808 204.088L514.24 203.672V203.256C514.24 202.232 513.552 201.656 512.32 201.656C511.136 201.656 510.56 202.168 510.448 203ZM514.24 204.872L512.176 205.24C510.688 205.496 510.288 205.96 510.288 206.696C510.288 207.496 510.864 207.944 511.904 207.944C513.072 207.944 514.24 207.08 514.24 205.944V204.872ZM519.197 209H517.933V197.48H519.469V201.832C520.029 201.032 520.957 200.44 522.253 200.44C524.445 200.44 525.917 202.008 525.917 204.776C525.917 207.656 524.333 209.24 522.141 209.24C520.861 209.24 519.981 208.68 519.437 207.896L519.197 209ZM524.317 204.744C524.317 202.696 523.277 201.752 521.901 201.752C520.525 201.752 519.389 202.76 519.389 204.744C519.389 206.76 520.397 207.928 521.901 207.928C523.341 207.928 524.317 206.936 524.317 204.744ZM533.347 206.6H535.01C534.595 208.12 533.283 209.24 531.283 209.24C528.914 209.24 527.203 207.768 527.203 204.84C527.203 201.944 528.899 200.44 531.203 200.44C533.507 200.44 535.107 201.816 535.107 205.176H528.771C528.899 207.096 529.939 207.944 531.331 207.944C532.339 207.944 533.107 207.368 533.347 206.6ZM528.835 203.96H533.539C533.427 202.408 532.515 201.672 531.235 201.672C530.003 201.672 529.075 202.424 528.835 203.96ZM538.484 197.48V209H536.948V197.48H538.484Z" fill="white" fill-opacity="0.95"/>
<g filter="url(#filter2_ddd_304_3551)">
<g clip-path="url(#clip1_304_3551)">
<rect x="604" y="196" width="16" height="16" rx="2" fill="#64B4FA"/>
<path d="M617 204.5H607C606.867 204.5 606.74 204.447 606.646 204.353C606.553 204.26 606.5 204.132 606.5 204C606.5 203.867 606.553 203.74 606.646 203.646C606.74 203.552 606.867 203.5 607 203.5H617C617.133 203.5 617.26 203.552 617.354 203.646C617.447 203.74 617.5 203.867 617.5 204C617.5 204.132 617.447 204.26 617.354 204.353C617.26 204.447 617.133 204.5 617 204.5Z" fill="black" fill-opacity="0.95"/>
</g>
</g>
<path d="M639.008 201.176H637.36C637.152 199.608 635.904 198.6 634.128 198.6C631.92 198.6 630.384 200.12 630.384 203.24C630.384 206.216 631.872 207.864 634.032 207.864C635.904 207.864 637.28 206.6 637.376 204.936H639.024C638.896 207.176 636.928 209.24 634 209.24C630.784 209.24 628.72 207.08 628.72 203.24C628.72 199.352 630.96 197.24 634.128 197.24C636.896 197.24 638.848 199.064 639.008 201.176ZM642.312 209H640.776V197.48H642.312V201.624C642.92 200.84 643.8 200.44 644.744 200.44C646.552 200.44 647.688 201.544 647.688 203.576V209H646.152V203.592C646.152 202.344 645.512 201.752 644.376 201.752C643.24 201.752 642.312 202.552 642.312 203.928V209ZM655.518 206.6H657.182C656.766 208.12 655.454 209.24 653.454 209.24C651.086 209.24 649.374 207.768 649.374 204.84C649.374 201.944 651.07 200.44 653.374 200.44C655.678 200.44 657.278 201.816 657.278 205.176H650.942C651.07 207.096 652.11 207.944 653.502 207.944C654.51 207.944 655.278 207.368 655.518 206.6ZM651.006 203.96H655.71C655.598 202.408 654.686 201.672 653.406 201.672C652.174 201.672 651.246 202.424 651.006 203.96ZM664.544 206.328H666.224C666 207.944 664.64 209.24 662.576 209.24C660.368 209.24 658.64 207.72 658.64 204.904C658.64 202.12 660.208 200.44 662.56 200.44C664.448 200.44 665.888 201.448 666.16 203.144H664.464C664.256 202.232 663.568 201.736 662.592 201.736C661.232 201.736 660.272 202.744 660.272 204.952C660.272 206.984 661.312 207.944 662.608 207.944C663.632 207.944 664.384 207.368 664.544 206.328ZM669.515 209H667.979V197.48H669.515V203.912L672.779 200.68H674.795L671.051 204.296L675.259 209H673.211L669.515 204.808V209ZM677.556 209H676.292V197.48H677.828V201.832C678.388 201.032 679.316 200.44 680.612 200.44C682.804 200.44 684.276 202.008 684.276 204.776C684.276 207.656 682.692 209.24 680.5 209.24C679.22 209.24 678.34 208.68 677.796 207.896L677.556 209ZM682.676 204.744C682.676 202.696 681.636 201.752 680.26 201.752C678.884 201.752 677.748 202.76 677.748 204.744C677.748 206.76 678.756 207.928 680.26 207.928C681.7 207.928 682.676 206.936 682.676 204.744ZM685.562 204.84C685.562 201.848 687.418 200.44 689.674 200.44C691.946 200.44 693.77 201.848 693.77 204.84C693.77 207.752 692.01 209.24 689.658 209.24C687.338 209.24 685.562 207.72 685.562 204.84ZM687.162 204.84C687.162 206.904 688.25 207.992 689.69 207.992C691.162 207.992 692.17 206.904 692.17 204.84C692.17 202.728 691.098 201.688 689.674 201.688C688.25 201.688 687.162 202.76 687.162 204.84ZM701.746 200.68L698.962 204.568L702.226 209H700.354L698.098 205.784L695.89 209H694.082L697.186 204.68L694.274 200.68H696.114L698.098 203.48L699.986 200.68H701.746ZM708.388 197.48H710.036V207.544H715.46V209H708.388V197.48ZM718.448 203H716.816C716.976 201.464 718.304 200.44 720.384 200.44C722.56 200.44 723.776 201.608 723.776 203.32V209H722.512L722.32 207.864C721.776 208.632 720.88 209.24 719.536 209.24C717.712 209.24 716.656 208.216 716.656 206.856C716.656 205.336 717.568 204.472 719.808 204.088L722.24 203.672V203.256C722.24 202.232 721.552 201.656 720.32 201.656C719.136 201.656 718.56 202.168 718.448 203ZM722.24 204.872L720.176 205.24C718.688 205.496 718.288 205.96 718.288 206.696C718.288 207.496 718.864 207.944 719.904 207.944C721.072 207.944 722.24 207.08 722.24 205.944V204.872ZM727.197 209H725.933V197.48H727.469V201.832C728.029 201.032 728.957 200.44 730.253 200.44C732.445 200.44 733.917 202.008 733.917 204.776C733.917 207.656 732.333 209.24 730.141 209.24C728.861 209.24 727.981 208.68 727.437 207.896L727.197 209ZM732.317 204.744C732.317 202.696 731.277 201.752 729.901 201.752C728.525 201.752 727.389 202.76 727.389 204.744C727.389 206.76 728.397 207.928 729.901 207.928C731.341 207.928 732.317 206.936 732.317 204.744ZM741.347 206.6H743.01C742.595 208.12 741.283 209.24 739.283 209.24C736.914 209.24 735.203 207.768 735.203 204.84C735.203 201.944 736.899 200.44 739.203 200.44C741.507 200.44 743.107 201.816 743.107 205.176H736.771C736.899 207.096 737.939 207.944 739.331 207.944C740.339 207.944 741.107 207.368 741.347 206.6ZM736.835 203.96H741.539C741.427 202.408 740.515 201.672 739.235 201.672C738.003 201.672 737.075 202.424 736.835 203.96ZM746.484 197.48V209H744.948V197.48H746.484Z" fill="white" fill-opacity="0.95"/>
<path d="M40.96 261.48H45.28C49.1093 261.48 51.024 263.4 51.024 267.24C51.024 271.08 49.12 273 45.312 273H40.96V261.48ZM45.28 263.336H43.648V271.128H45.312C47.3173 271.128 48.32 269.832 48.32 267.24C48.32 265.832 48.0107 264.803 47.392 264.152C46.88 263.608 46.176 263.336 45.28 263.336ZM53.2563 261.48H55.9443V273H53.2563V261.48ZM63.0496 273.24C61.503 273.24 60.2816 272.867 59.3856 272.12C58.6283 271.491 58.175 270.653 58.0256 269.608H60.5696C60.6656 270.173 60.943 270.611 61.4016 270.92C61.839 271.219 62.399 271.368 63.0816 271.368C64.511 271.368 65.2256 270.925 65.2256 270.04C65.2256 269.475 64.9163 269.043 64.2976 268.744C63.9456 268.573 63.295 268.376 62.3456 268.152C61.0443 267.853 60.1056 267.469 59.5296 267C58.8043 266.403 58.4416 265.592 58.4416 264.568C58.4416 263.459 58.8843 262.611 59.7696 262.024C60.5696 261.501 61.6683 261.24 63.0656 261.24C64.4843 261.24 65.5936 261.56 66.3936 262.2C67.087 262.755 67.503 263.501 67.6416 264.44H65.1296C65.0656 263.981 64.815 263.629 64.3776 263.384C64.0043 263.181 63.5456 263.08 63.0016 263.08C61.7643 263.08 61.1456 263.469 61.1456 264.248C61.1456 264.675 61.3056 264.995 61.6256 265.208C61.9456 265.421 62.5643 265.629 63.4816 265.832C64.9216 266.141 65.9936 266.579 66.6976 267.144C67.519 267.795 67.9296 268.659 67.9296 269.736C67.9296 270.813 67.487 271.672 66.6016 272.312C65.7483 272.931 64.5643 273.24 63.0496 273.24ZM79.9485 273H77.1165L76.3005 270.36H72.2045L71.3885 273H68.7325L72.8285 261.48H75.8205L79.9485 273ZM74.2685 263.688L72.7485 268.6H75.7725L74.2685 263.688ZM81.5513 261.48H85.3913C87.1086 261.48 88.3353 261.768 89.0713 262.344C89.7006 262.835 90.0153 263.565 90.0153 264.536C90.0153 265.165 89.7753 265.704 89.2953 266.152C88.9326 266.504 88.4739 266.755 87.9193 266.904C88.7619 267.075 89.4073 267.416 89.8553 267.928C90.2606 268.397 90.4633 268.979 90.4633 269.672C90.4633 270.877 90.0419 271.747 89.1993 272.28C88.4313 272.76 87.2579 273 85.6793 273H81.5513V261.48ZM85.8713 267.816H84.2393V271.24H85.7913C86.5273 271.24 87.0446 271.091 87.3433 270.792C87.5993 270.536 87.7273 270.136 87.7273 269.592C87.7273 268.984 87.5459 268.525 87.1833 268.216C86.8633 267.949 86.4259 267.816 85.8713 267.816ZM85.5833 263.24H84.2393V266.152H85.6313C86.2073 266.152 86.6393 266.008 86.9273 265.72C87.1939 265.453 87.3273 265.085 87.3273 264.616C87.3273 264.179 87.1726 263.843 86.8633 263.608C86.5646 263.363 86.1379 263.24 85.5833 263.24ZM92.5506 261.48H95.2386V270.984H100.839V273H92.5506V261.48ZM110.065 266.264V268.12H105.441V271.064H110.529V273H102.753V261.48H110.529V263.448H105.441V266.264H110.065ZM112.69 261.48H117.01C120.839 261.48 122.754 263.4 122.754 267.24C122.754 271.08 120.85 273 117.042 273H112.69V261.48ZM117.01 263.336H115.378V271.128H117.042C119.047 271.128 120.05 269.832 120.05 267.24C120.05 265.832 119.741 264.803 119.122 264.152C118.61 263.608 117.906 263.336 117.01 263.336Z" fill="white" fill-opacity="0.7"/>
<rect x="188.5" y="260.5" width="15" height="15" rx="1.5" stroke="white" stroke-opacity="0.2"/>
<path d="M223.008 265.176H221.36C221.152 263.608 219.904 262.6 218.128 262.6C215.92 262.6 214.384 264.12 214.384 267.24C214.384 270.216 215.872 271.864 218.032 271.864C219.904 271.864 221.28 270.6 221.376 268.936H223.024C222.896 271.176 220.928 273.24 218 273.24C214.784 273.24 212.72 271.08 212.72 267.24C212.72 263.352 214.96 261.24 218.128 261.24C220.896 261.24 222.848 263.064 223.008 265.176ZM226.312 273H224.776V261.48H226.312V265.624C226.92 264.84 227.8 264.44 228.744 264.44C230.552 264.44 231.688 265.544 231.688 267.576V273H230.152V267.592C230.152 266.344 229.512 265.752 228.376 265.752C227.24 265.752 226.312 266.552 226.312 267.928V273ZM239.518 270.6H241.182C240.766 272.12 239.454 273.24 237.454 273.24C235.086 273.24 233.374 271.768 233.374 268.84C233.374 265.944 235.07 264.44 237.374 264.44C239.678 264.44 241.278 265.816 241.278 269.176H234.942C235.07 271.096 236.11 271.944 237.502 271.944C238.51 271.944 239.278 271.368 239.518 270.6ZM235.006 267.96H239.71C239.598 266.408 238.686 265.672 237.406 265.672C236.174 265.672 235.246 266.424 235.006 267.96ZM248.544 270.328H250.224C250 271.944 248.64 273.24 246.576 273.24C244.368 273.24 242.64 271.72 242.64 268.904C242.64 266.12 244.208 264.44 246.56 264.44C248.448 264.44 249.888 265.448 250.16 267.144H248.464C248.256 266.232 247.568 265.736 246.592 265.736C245.232 265.736 244.272 266.744 244.272 268.952C244.272 270.984 245.312 271.944 246.608 271.944C247.632 271.944 248.384 271.368 248.544 270.328ZM253.515 273H251.979V261.48H253.515V267.912L256.779 264.68H258.795L255.051 268.296L259.259 273H257.211L253.515 268.808V273ZM261.556 273H260.292V261.48H261.828V265.832C262.388 265.032 263.316 264.44 264.612 264.44C266.804 264.44 268.276 266.008 268.276 268.776C268.276 271.656 266.692 273.24 264.5 273.24C263.22 273.24 262.34 272.68 261.796 271.896L261.556 273ZM266.676 268.744C266.676 266.696 265.636 265.752 264.26 265.752C262.884 265.752 261.748 266.76 261.748 268.744C261.748 270.76 262.756 271.928 264.26 271.928C265.7 271.928 266.676 270.936 266.676 268.744ZM269.562 268.84C269.562 265.848 271.418 264.44 273.674 264.44C275.946 264.44 277.77 265.848 277.77 268.84C277.77 271.752 276.01 273.24 273.658 273.24C271.338 273.24 269.562 271.72 269.562 268.84ZM271.162 268.84C271.162 270.904 272.25 271.992 273.69 271.992C275.162 271.992 276.17 270.904 276.17 268.84C276.17 266.728 275.098 265.688 273.674 265.688C272.25 265.688 271.162 266.76 271.162 268.84ZM285.746 264.68L282.962 268.568L286.226 273H284.354L282.098 269.784L279.89 273H278.082L281.186 268.68L278.274 264.68H280.114L282.098 267.48L283.986 264.68H285.746ZM292.388 261.48H294.036V271.544H299.46V273H292.388V261.48ZM302.448 267H300.816C300.976 265.464 302.304 264.44 304.384 264.44C306.56 264.44 307.776 265.608 307.776 267.32V273H306.512L306.32 271.864C305.776 272.632 304.88 273.24 303.536 273.24C301.712 273.24 300.656 272.216 300.656 270.856C300.656 269.336 301.568 268.472 303.808 268.088L306.24 267.672V267.256C306.24 266.232 305.552 265.656 304.32 265.656C303.136 265.656 302.56 266.168 302.448 267ZM306.24 268.872L304.176 269.24C302.688 269.496 302.288 269.96 302.288 270.696C302.288 271.496 302.864 271.944 303.904 271.944C305.072 271.944 306.24 271.08 306.24 269.944V268.872ZM311.197 273H309.933V261.48H311.469V265.832C312.029 265.032 312.957 264.44 314.253 264.44C316.445 264.44 317.917 266.008 317.917 268.776C317.917 271.656 316.333 273.24 314.141 273.24C312.861 273.24 311.981 272.68 311.437 271.896L311.197 273ZM316.317 268.744C316.317 266.696 315.277 265.752 313.901 265.752C312.525 265.752 311.389 266.76 311.389 268.744C311.389 270.76 312.397 271.928 313.901 271.928C315.341 271.928 316.317 270.936 316.317 268.744ZM325.347 270.6H327.01C326.595 272.12 325.283 273.24 323.283 273.24C320.914 273.24 319.203 271.768 319.203 268.84C319.203 265.944 320.899 264.44 323.203 264.44C325.507 264.44 327.107 265.816 327.107 269.176H320.771C320.899 271.096 321.939 271.944 323.331 271.944C324.339 271.944 325.107 271.368 325.347 270.6ZM320.835 267.96H325.539C325.427 266.408 324.515 265.672 323.235 265.672C322.003 265.672 321.075 266.424 320.835 267.96ZM330.484 261.48V273H328.948V261.48H330.484Z" fill="white" fill-opacity="0.2"/>
<rect x="396" y="260" width="16" height="16" rx="2" fill="white" fill-opacity="0.2"/>
<path d="M401.6 272.1C401.534 272.1 401.469 272.087 401.408 272.062C401.347 272.037 401.292 271.999 401.246 271.953L397.646 268.335C397.599 268.288 397.563 268.233 397.538 268.172C397.513 268.112 397.5 268.047 397.5 267.981C397.5 267.915 397.513 267.85 397.539 267.79C397.564 267.729 397.601 267.674 397.648 267.628C397.694 267.582 397.749 267.545 397.81 267.52C397.871 267.495 397.936 267.482 398.002 267.482C398.067 267.483 398.132 267.496 398.193 267.521C398.253 267.546 398.308 267.583 398.355 267.63L401.627 270.918L409.675 264.021C409.776 263.935 409.906 263.892 410.038 263.902C410.171 263.912 410.293 263.975 410.38 264.075C410.466 264.176 410.509 264.307 410.498 264.439C410.488 264.571 410.426 264.693 410.325 264.78L401.925 271.979C401.835 272.057 401.72 272.1 401.6 272.1Z" fill="black" fill-opacity="0.2"/>
<path d="M431.008 265.176H429.36C429.152 263.608 427.904 262.6 426.128 262.6C423.92 262.6 422.384 264.12 422.384 267.24C422.384 270.216 423.872 271.864 426.032 271.864C427.904 271.864 429.28 270.6 429.376 268.936H431.024C430.896 271.176 428.928 273.24 426 273.24C422.784 273.24 420.72 271.08 420.72 267.24C420.72 263.352 422.96 261.24 426.128 261.24C428.896 261.24 430.848 263.064 431.008 265.176ZM434.312 273H432.776V261.48H434.312V265.624C434.92 264.84 435.8 264.44 436.744 264.44C438.552 264.44 439.688 265.544 439.688 267.576V273H438.152V267.592C438.152 266.344 437.512 265.752 436.376 265.752C435.24 265.752 434.312 266.552 434.312 267.928V273ZM447.518 270.6H449.182C448.766 272.12 447.454 273.24 445.454 273.24C443.086 273.24 441.374 271.768 441.374 268.84C441.374 265.944 443.07 264.44 445.374 264.44C447.678 264.44 449.278 265.816 449.278 269.176H442.942C443.07 271.096 444.11 271.944 445.502 271.944C446.51 271.944 447.278 271.368 447.518 270.6ZM443.006 267.96H447.71C447.598 266.408 446.686 265.672 445.406 265.672C444.174 265.672 443.246 266.424 443.006 267.96ZM456.544 270.328H458.224C458 271.944 456.64 273.24 454.576 273.24C452.368 273.24 450.64 271.72 450.64 268.904C450.64 266.12 452.208 264.44 454.56 264.44C456.448 264.44 457.888 265.448 458.16 267.144H456.464C456.256 266.232 455.568 265.736 454.592 265.736C453.232 265.736 452.272 266.744 452.272 268.952C452.272 270.984 453.312 271.944 454.608 271.944C455.632 271.944 456.384 271.368 456.544 270.328ZM461.515 273H459.979V261.48H461.515V267.912L464.779 264.68H466.795L463.051 268.296L467.259 273H465.211L461.515 268.808V273ZM469.556 273H468.292V261.48H469.828V265.832C470.388 265.032 471.316 264.44 472.612 264.44C474.804 264.44 476.276 266.008 476.276 268.776C476.276 271.656 474.692 273.24 472.5 273.24C471.22 273.24 470.34 272.68 469.796 271.896L469.556 273ZM474.676 268.744C474.676 266.696 473.636 265.752 472.26 265.752C470.884 265.752 469.748 266.76 469.748 268.744C469.748 270.76 470.756 271.928 472.26 271.928C473.7 271.928 474.676 270.936 474.676 268.744ZM477.562 268.84C477.562 265.848 479.418 264.44 481.674 264.44C483.946 264.44 485.77 265.848 485.77 268.84C485.77 271.752 484.01 273.24 481.658 273.24C479.338 273.24 477.562 271.72 477.562 268.84ZM479.162 268.84C479.162 270.904 480.25 271.992 481.69 271.992C483.162 271.992 484.17 270.904 484.17 268.84C484.17 266.728 483.098 265.688 481.674 265.688C480.25 265.688 479.162 266.76 479.162 268.84ZM493.746 264.68L490.962 268.568L494.226 273H492.354L490.098 269.784L487.89 273H486.082L489.186 268.68L486.274 264.68H488.114L490.098 267.48L491.986 264.68H493.746ZM500.388 261.48H502.036V271.544H507.46V273H500.388V261.48ZM510.448 267H508.816C508.976 265.464 510.304 264.44 512.384 264.44C514.56 264.44 515.776 265.608 515.776 267.32V273H514.512L514.32 271.864C513.776 272.632 512.88 273.24 511.536 273.24C509.712 273.24 508.656 272.216 508.656 270.856C508.656 269.336 509.568 268.472 511.808 268.088L514.24 267.672V267.256C514.24 266.232 513.552 265.656 512.32 265.656C511.136 265.656 510.56 266.168 510.448 267ZM514.24 268.872L512.176 269.24C510.688 269.496 510.288 269.96 510.288 270.696C510.288 271.496 510.864 271.944 511.904 271.944C513.072 271.944 514.24 271.08 514.24 269.944V268.872ZM519.197 273H517.933V261.48H519.469V265.832C520.029 265.032 520.957 264.44 522.253 264.44C524.445 264.44 525.917 266.008 525.917 268.776C525.917 271.656 524.333 273.24 522.141 273.24C520.861 273.24 519.981 272.68 519.437 271.896L519.197 273ZM524.317 268.744C524.317 266.696 523.277 265.752 521.901 265.752C520.525 265.752 519.389 266.76 519.389 268.744C519.389 270.76 520.397 271.928 521.901 271.928C523.341 271.928 524.317 270.936 524.317 268.744ZM533.347 270.6H535.01C534.595 272.12 533.283 273.24 531.283 273.24C528.914 273.24 527.203 271.768 527.203 268.84C527.203 265.944 528.899 264.44 531.203 264.44C533.507 264.44 535.107 265.816 535.107 269.176H528.771C528.899 271.096 529.939 271.944 531.331 271.944C532.339 271.944 533.107 271.368 533.347 270.6ZM528.835 267.96H533.539C533.427 266.408 532.515 265.672 531.235 265.672C530.003 265.672 529.075 266.424 528.835 267.96ZM538.484 261.48V273H536.948V261.48H538.484Z" fill="white" fill-opacity="0.2"/>
<rect x="604" y="260" width="16" height="16" rx="2" fill="white" fill-opacity="0.2"/>
<path d="M617 268.5H607C606.867 268.5 606.74 268.447 606.646 268.353C606.553 268.26 606.5 268.132 606.5 268C606.5 267.867 606.553 267.74 606.646 267.646C606.74 267.552 606.867 267.5 607 267.5H617C617.133 267.5 617.26 267.552 617.354 267.646C617.447 267.74 617.5 267.867 617.5 268C617.5 268.132 617.447 268.26 617.354 268.353C617.26 268.447 617.133 268.5 617 268.5Z" fill="black" fill-opacity="0.2"/>
<path d="M639.008 265.176H637.36C637.152 263.608 635.904 262.6 634.128 262.6C631.92 262.6 630.384 264.12 630.384 267.24C630.384 270.216 631.872 271.864 634.032 271.864C635.904 271.864 637.28 270.6 637.376 268.936H639.024C638.896 271.176 636.928 273.24 634 273.24C630.784 273.24 628.72 271.08 628.72 267.24C628.72 263.352 630.96 261.24 634.128 261.24C636.896 261.24 638.848 263.064 639.008 265.176ZM642.312 273H640.776V261.48H642.312V265.624C642.92 264.84 643.8 264.44 644.744 264.44C646.552 264.44 647.688 265.544 647.688 267.576V273H646.152V267.592C646.152 266.344 645.512 265.752 644.376 265.752C643.24 265.752 642.312 266.552 642.312 267.928V273ZM655.518 270.6H657.182C656.766 272.12 655.454 273.24 653.454 273.24C651.086 273.24 649.374 271.768 649.374 268.84C649.374 265.944 651.07 264.44 653.374 264.44C655.678 264.44 657.278 265.816 657.278 269.176H650.942C651.07 271.096 652.11 271.944 653.502 271.944C654.51 271.944 655.278 271.368 655.518 270.6ZM651.006 267.96H655.71C655.598 266.408 654.686 265.672 653.406 265.672C652.174 265.672 651.246 266.424 651.006 267.96ZM664.544 270.328H666.224C666 271.944 664.64 273.24 662.576 273.24C660.368 273.24 658.64 271.72 658.64 268.904C658.64 266.12 660.208 264.44 662.56 264.44C664.448 264.44 665.888 265.448 666.16 267.144H664.464C664.256 266.232 663.568 265.736 662.592 265.736C661.232 265.736 660.272 266.744 660.272 268.952C660.272 270.984 661.312 271.944 662.608 271.944C663.632 271.944 664.384 271.368 664.544 270.328ZM669.515 273H667.979V261.48H669.515V267.912L672.779 264.68H674.795L671.051 268.296L675.259 273H673.211L669.515 268.808V273ZM677.556 273H676.292V261.48H677.828V265.832C678.388 265.032 679.316 264.44 680.612 264.44C682.804 264.44 684.276 266.008 684.276 268.776C684.276 271.656 682.692 273.24 680.5 273.24C679.22 273.24 678.34 272.68 677.796 271.896L677.556 273ZM682.676 268.744C682.676 266.696 681.636 265.752 680.26 265.752C678.884 265.752 677.748 266.76 677.748 268.744C677.748 270.76 678.756 271.928 680.26 271.928C681.7 271.928 682.676 270.936 682.676 268.744ZM685.562 268.84C685.562 265.848 687.418 264.44 689.674 264.44C691.946 264.44 693.77 265.848 693.77 268.84C693.77 271.752 692.01 273.24 689.658 273.24C687.338 273.24 685.562 271.72 685.562 268.84ZM687.162 268.84C687.162 270.904 688.25 271.992 689.69 271.992C691.162 271.992 692.17 270.904 692.17 268.84C692.17 266.728 691.098 265.688 689.674 265.688C688.25 265.688 687.162 266.76 687.162 268.84ZM701.746 264.68L698.962 268.568L702.226 273H700.354L698.098 269.784L695.89 273H694.082L697.186 268.68L694.274 264.68H696.114L698.098 267.48L699.986 264.68H701.746ZM708.388 261.48H710.036V271.544H715.46V273H708.388V261.48ZM718.448 267H716.816C716.976 265.464 718.304 264.44 720.384 264.44C722.56 264.44 723.776 265.608 723.776 267.32V273H722.512L722.32 271.864C721.776 272.632 720.88 273.24 719.536 273.24C717.712 273.24 716.656 272.216 716.656 270.856C716.656 269.336 717.568 268.472 719.808 268.088L722.24 267.672V267.256C722.24 266.232 721.552 265.656 720.32 265.656C719.136 265.656 718.56 266.168 718.448 267ZM722.24 268.872L720.176 269.24C718.688 269.496 718.288 269.96 718.288 270.696C718.288 271.496 718.864 271.944 719.904 271.944C721.072 271.944 722.24 271.08 722.24 269.944V268.872ZM727.197 273H725.933V261.48H727.469V265.832C728.029 265.032 728.957 264.44 730.253 264.44C732.445 264.44 733.917 266.008 733.917 268.776C733.917 271.656 732.333 273.24 730.141 273.24C728.861 273.24 727.981 272.68 727.437 271.896L727.197 273ZM732.317 268.744C732.317 266.696 731.277 265.752 729.901 265.752C728.525 265.752 727.389 266.76 727.389 268.744C727.389 270.76 728.397 271.928 729.901 271.928C731.341 271.928 732.317 270.936 732.317 268.744ZM741.347 270.6H743.01C742.595 272.12 741.283 273.24 739.283 273.24C736.914 273.24 735.203 271.768 735.203 268.84C735.203 265.944 736.899 264.44 739.203 264.44C741.507 264.44 743.107 265.816 743.107 269.176H736.771C736.899 271.096 737.939 271.944 739.331 271.944C740.339 271.944 741.107 271.368 741.347 270.6ZM736.835 267.96H741.539C741.427 266.408 740.515 265.672 739.235 265.672C738.003 265.672 737.075 266.424 736.835 267.96ZM746.484 261.48V273H744.948V261.48H746.484Z" fill="white" fill-opacity="0.2"/>
<defs>
<filter id="filter0_ddd_304_3551" x="183" y="191" width="26" height="26" filterUnits="userSpaceOnUse" color-interpolation-filters="sRGB">
<feFlood flood-opacity="0" result="BackgroundImageFix"/>
<feColorMatrix in="SourceAlpha" type="matrix" values="0 0 0 0 0 0 0 0 0 0 0 0 0 0 0 0 0 0 127 0" result="hardAlpha"/>
<feMorphology radius="4" operator="dilate" in="SourceAlpha" result="effect1_dropShadow_304_3551"/>
<feOffset/>
<feComposite in2="hardAlpha" operator="out"/>
<feColorMatrix type="matrix" values="0 0 0 0 0.392157 0 0 0 0 0.705882 0 0 0 0 0.980392 0 0 0 1 0"/>
<feBlend mode="exclusion" in2="BackgroundImageFix" result="effect1_dropShadow_304_3551"/>
<feColorMatrix in="SourceAlpha" type="matrix" values="0 0 0 0 0 0 0 0 0 0 0 0 0 0 0 0 0 0 127 0" result="hardAlpha"/>
<feMorphology radius="5" operator="dilate" in="SourceAlpha" result="effect2_dropShadow_304_3551"/>
<feOffset/>
<feComposite in2="hardAlpha" operator="out"/>
<feColorMatrix type="matrix" values="0 0 0 0 0.392157 0 0 0 0 0.705882 0 0 0 0 0.980392 0 0 0 0.3 0"/>
<feBlend mode="normal" in2="effect1_dropShadow_304_3551" result="effect2_dropShadow_304_3551"/>
<feColorMatrix in="SourceAlpha" type="matrix" values="0 0 0 0 0 0 0 0 0 0 0 0 0 0 0 0 0 0 127 0" result="hardAlpha"/>
<feMorphology radius="2" operator="dilate" in="SourceAlpha" result="effect3_dropShadow_304_3551"/>
<feOffset/>
<feComposite in2="hardAlpha" operator="out"/>
<feColorMatrix type="matrix" values="0 0 0 0 0 0 0 0 0 0 0 0 0 0 0 0 0 0 1 0"/>
<feBlend mode="normal" in2="effect2_dropShadow_304_3551" result="effect3_dropShadow_304_3551"/>
<feBlend mode="normal" in="SourceGraphic" in2="effect3_dropShadow_304_3551" result="shape"/>
</filter>
<filter id="filter1_ddd_304_3551" x="391" y="191" width="26" height="26" filterUnits="userSpaceOnUse" color-interpolation-filters="sRGB">
<feFlood flood-opacity="0" result="BackgroundImageFix"/>
<feColorMatrix in="SourceAlpha" type="matrix" values="0 0 0 0 0 0 0 0 0 0 0 0 0 0 0 0 0 0 127 0" result="hardAlpha"/>
<feMorphology radius="4" operator="dilate" in="SourceAlpha" result="effect1_dropShadow_304_3551"/>
<feOffset/>
<feComposite in2="hardAlpha" operator="out"/>
<feColorMatrix type="matrix" values="0 0 0 0 0.392157 0 0 0 0 0.705882 0 0 0 0 0.980392 0 0 0 1 0"/>
<feBlend mode="exclusion" in2="BackgroundImageFix" result="effect1_dropShadow_304_3551"/>
<feColorMatrix in="SourceAlpha" type="matrix" values="0 0 0 0 0 0 0 0 0 0 0 0 0 0 0 0 0 0 127 0" result="hardAlpha"/>
<feMorphology radius="5" operator="dilate" in="SourceAlpha" result="effect2_dropShadow_304_3551"/>
<feOffset/>
<feComposite in2="hardAlpha" operator="out"/>
<feColorMatrix type="matrix" values="0 0 0 0 0.392157 0 0 0 0 0.705882 0 0 0 0 0.980392 0 0 0 0.3 0"/>
<feBlend mode="normal" in2="effect1_dropShadow_304_3551" result="effect2_dropShadow_304_3551"/>
<feColorMatrix in="SourceAlpha" type="matrix" values="0 0 0 0 0 0 0 0 0 0 0 0 0 0 0 0 0 0 127 0" result="hardAlpha"/>
<feMorphology radius="2" operator="dilate" in="SourceAlpha" result="effect3_dropShadow_304_3551"/>
<feOffset/>
<feComposite in2="hardAlpha" operator="out"/>
<feColorMatrix type="matrix" values="0 0 0 0 0 0 0 0 0 0 0 0 0 0 0 0 0 0 1 0"/>
<feBlend mode="normal" in2="effect2_dropShadow_304_3551" result="effect3_dropShadow_304_3551"/>
<feBlend mode="normal" in="SourceGraphic" in2="effect3_dropShadow_304_3551" result="shape"/>
</filter>
<filter id="filter2_ddd_304_3551" x="599" y="191" width="26" height="26" filterUnits="userSpaceOnUse" color-interpolation-filters="sRGB">
<feFlood flood-opacity="0" result="BackgroundImageFix"/>
<feColorMatrix in="SourceAlpha" type="matrix" values="0 0 0 0 0 0 0 0 0 0 0 0 0 0 0 0 0 0 127 0" result="hardAlpha"/>
<feMorphology radius="4" operator="dilate" in="SourceAlpha" result="effect1_dropShadow_304_3551"/>
<feOffset/>
<feComposite in2="hardAlpha" operator="out"/>
<feColorMatrix type="matrix" values="0 0 0 0 0.392157 0 0 0 0 0.705882 0 0 0 0 0.980392 0 0 0 1 0"/>
<feBlend mode="exclusion" in2="BackgroundImageFix" result="effect1_dropShadow_304_3551"/>
<feColorMatrix in="SourceAlpha" type="matrix" values="0 0 0 0 0 0 0 0 0 0 0 0 0 0 0 0 0 0 127 0" result="hardAlpha"/>
<feMorphology radius="5" operator="dilate" in="SourceAlpha" result="effect2_dropShadow_304_3551"/>
<feOffset/>
<feComposite in2="hardAlpha" operator="out"/>
<feColorMatrix type="matrix" values="0 0 0 0 0.392157 0 0 0 0 0.705882 0 0 0 0 0.980392 0 0 0 0.3 0"/>
<feBlend mode="normal" in2="effect1_dropShadow_304_3551" result="effect2_dropShadow_304_3551"/>
<feColorMatrix in="SourceAlpha" type="matrix" values="0 0 0 0 0 0 0 0 0 0 0 0 0 0 0 0 0 0 127 0" result="hardAlpha"/>
<feMorphology radius="2" operator="dilate" in="SourceAlpha" result="effect3_dropShadow_304_3551"/>
<feOffset/>
<feComposite in2="hardAlpha" operator="out"/>
<feColorMatrix type="matrix" values="0 0 0 0 0 0 0 0 0 0 0 0 0 0 0 0 0 0 1 0"/>
<feBlend mode="normal" in2="effect2_dropShadow_304_3551" result="effect3_dropShadow_304_3551"/>
<feBlend mode="normal" in="SourceGraphic" in2="effect3_dropShadow_304_3551" result="shape"/>
</filter>
<clipPath id="clip0_304_3551">
<rect x="396" y="196" width="16" height="16" rx="2" fill="white"/>
</clipPath>
<clipPath id="clip1_304_3551">
<rect x="604" y="196" width="16" height="16" rx="2" fill="white"/>
</clipPath>
</defs>
</svg>
