<svg width="177" height="50" viewBox="0 0 177 50" fill="none" xmlns="http://www.w3.org/2000/svg">
<rect width="177" height="50" rx="25" fill="white" fill-opacity="0.95"/>
<path d="M28 30H26.208L22.96 21.424V30H21.104V18.48H23.696L27.152 27.84L30.432 18.48H32.976V30H31.088V21.456L28 30ZM34.6861 25.824C34.6861 24.3093 35.1341 23.1627 36.0301 22.384C36.7661 21.7547 37.7261 21.44 38.9101 21.44C40.2861 21.44 41.3475 21.856 42.0941 22.688C42.7875 23.4453 43.1341 24.4907 43.1341 25.824C43.1341 27.3387 42.6968 28.4853 41.8221 29.264C41.0861 29.9147 40.1155 30.24 38.9101 30.24C37.5448 30.24 36.4835 29.8133 35.7261 28.96C35.0328 28.1813 34.6861 27.136 34.6861 25.824ZM38.9261 28.816C39.6835 28.816 40.2488 28.5387 40.6221 27.984C40.9741 27.4827 41.1501 26.7627 41.1501 25.824C41.1501 24.7573 40.9155 23.9733 40.4461 23.472C40.0728 23.0667 39.5608 22.864 38.9101 22.864C38.1635 22.864 37.5981 23.136 37.2141 23.68C36.8515 24.1813 36.6701 24.896 36.6701 25.824C36.6701 26.88 36.9048 27.664 37.3741 28.176C37.7688 28.6027 38.2861 28.816 38.9261 28.816ZM46.6784 30H44.7584V21.68H46.2144L46.4864 22.624C47.073 21.8347 47.8997 21.44 48.9664 21.44C50.129 21.44 50.9557 21.856 51.4464 22.688C52.0437 21.856 52.9504 21.44 54.1664 21.44C55.1264 21.44 55.8624 21.7227 56.3744 22.288C56.8437 22.8107 57.0784 23.5467 57.0784 24.496V30H55.1584V24.544C55.1584 23.4667 54.657 22.928 53.6544 22.928C53.0784 22.928 52.6197 23.152 52.2784 23.6C52.0117 23.9733 51.8784 24.416 51.8784 24.928V30H49.9584V24.544C49.9584 23.4667 49.457 22.928 48.4544 22.928C47.9104 22.928 47.4677 23.1413 47.1264 23.568C46.8277 23.9307 46.6784 24.3573 46.6784 24.848V30ZM64.6876 27.6H66.7036C66.4796 28.4533 66.0156 29.1147 65.3116 29.584C64.6396 30.0213 63.813 30.24 62.8316 30.24C61.477 30.24 60.421 29.8133 59.6636 28.96C58.9703 28.1813 58.6236 27.1413 58.6236 25.84C58.6236 24.3467 59.0556 23.2053 59.9196 22.416C60.645 21.7653 61.589 21.44 62.7516 21.44C64.1063 21.44 65.1303 21.8827 65.8236 22.768C66.4743 23.5893 66.7996 24.7627 66.7996 26.288H60.5756C60.6503 27.184 60.9276 27.84 61.4076 28.256C61.7916 28.5973 62.293 28.768 62.9116 28.768C63.349 28.768 63.7276 28.6613 64.0476 28.448C64.3676 28.2347 64.581 27.952 64.6876 27.6ZM64.8316 24.976C64.789 24.1973 64.5543 23.6267 64.1276 23.264C63.7756 22.9547 63.317 22.8 62.7516 22.8C62.133 22.8 61.637 23.0027 61.2636 23.408C60.9223 23.7707 60.7036 24.2933 60.6076 24.976H64.8316ZM70.3659 30H68.4459V21.68H70.0299L70.2379 22.672C70.8459 21.8507 71.6885 21.44 72.7659 21.44C73.7685 21.44 74.5365 21.7493 75.0699 22.368C75.5392 22.912 75.7739 23.6533 75.7739 24.592V30H73.8539V24.64C73.8539 23.4987 73.3259 22.928 72.2699 22.928C71.6939 22.928 71.2245 23.1307 70.8619 23.536C70.5312 23.9093 70.3659 24.3787 70.3659 24.944V30ZM81.8708 28.592V30.048C81.4228 30.176 80.9961 30.24 80.5908 30.24C79.7694 30.24 79.1454 29.9947 78.7188 29.504C78.3561 29.088 78.1748 28.528 78.1748 27.824V23.152H76.9268V21.68H78.1748L78.3028 19.68H80.0948V21.68H81.8548V23.152H80.0948V27.888C80.0948 28.4427 80.3774 28.72 80.9427 28.72C81.1881 28.72 81.4974 28.6773 81.8708 28.592ZM83.1003 21.68H85.0203V27.152C85.0203 28.2187 85.5429 28.752 86.5883 28.752C87.1963 28.752 87.6709 28.5333 88.0123 28.096C88.2896 27.7227 88.4283 27.264 88.4283 26.72V21.68H90.3483V30H88.7643L88.5563 29.072C87.9589 29.8507 87.1269 30.24 86.0603 30.24C85.0789 30.24 84.3269 29.9413 83.8043 29.344C83.3349 28.8 83.1003 28.0533 83.1003 27.104V21.68ZM94.319 30H92.399V21.68H93.855L94.127 22.624C94.7137 21.8347 95.5403 21.44 96.607 21.44C97.7697 21.44 98.5963 21.856 99.087 22.688C99.6843 21.856 100.591 21.44 101.807 21.44C102.767 21.44 103.503 21.7227 104.015 22.288C104.484 22.8107 104.719 23.5467 104.719 24.496V30H102.799V24.544C102.799 23.4667 102.298 22.928 101.295 22.928C100.719 22.928 100.26 23.152 99.919 23.6C99.6523 23.9733 99.519 24.416 99.519 24.928V30H97.599V24.544C97.599 23.4667 97.0977 22.928 96.095 22.928C95.551 22.928 95.1083 23.1413 94.767 23.568C94.4683 23.9307 94.319 24.3573 94.319 24.848V30ZM117.931 23.664V25.216H113.355V30H111.307V18.48H118.459V20.08H113.355V23.664H117.931ZM122.118 20.416H120.006V18.48H122.118V20.416ZM122.022 30H120.102V21.68H122.022V30ZM123.959 30.544H125.975C126.178 31.312 126.812 31.696 127.879 31.696C129.255 31.696 129.943 31.04 129.943 29.728V28.8C129.314 29.44 128.46 29.76 127.383 29.76C126.252 29.76 125.335 29.36 124.631 28.56C123.98 27.8133 123.655 26.848 123.655 25.664C123.655 24.2667 124.055 23.184 124.855 22.416C125.527 21.7653 126.391 21.44 127.447 21.44C128.556 21.44 129.42 21.8453 130.039 22.656L130.343 21.68H131.863V29.712C131.863 30.8107 131.468 31.6693 130.679 32.288C129.975 32.8427 129.047 33.12 127.895 33.12C126.658 33.12 125.692 32.8587 124.999 32.336C124.434 31.8987 124.087 31.3013 123.959 30.544ZM125.623 25.68C125.623 26.544 125.863 27.2107 126.343 27.68C126.738 28.0533 127.234 28.24 127.831 28.24C128.599 28.24 129.18 27.9893 129.575 27.488C129.916 27.0507 130.087 26.4533 130.087 25.696C130.087 24.7467 129.852 24.032 129.383 23.552C128.999 23.1573 128.482 22.96 127.831 22.96C127.116 22.96 126.562 23.216 126.167 23.728C125.804 24.1973 125.623 24.848 125.623 25.68ZM135.835 30H133.915V21.68H135.371L135.643 22.624C136.229 21.8347 137.056 21.44 138.123 21.44C139.285 21.44 140.112 21.856 140.603 22.688C141.2 21.856 142.107 21.44 143.323 21.44C144.283 21.44 145.019 21.7227 145.531 22.288C146 22.8107 146.235 23.5467 146.235 24.496V30H144.315V24.544C144.315 23.4667 143.813 22.928 142.811 22.928C142.235 22.928 141.776 23.152 141.435 23.6C141.168 23.9733 141.035 24.416 141.035 24.928V30H139.115V24.544C139.115 23.4667 138.613 22.928 137.611 22.928C137.067 22.928 136.624 23.1413 136.283 23.568C135.984 23.9307 135.835 24.3573 135.835 24.848V30ZM149.94 24.032H147.94C148.079 23.168 148.511 22.5067 149.236 22.048C149.887 21.6427 150.703 21.44 151.684 21.44C152.868 21.44 153.775 21.744 154.404 22.352C154.948 22.8747 155.22 23.552 155.22 24.384V30H153.684L153.444 28.976C152.793 29.8187 151.871 30.24 150.676 30.24C149.727 30.24 148.991 29.984 148.468 29.472C148.009 29.024 147.78 28.4533 147.78 27.76C147.78 26.9813 148.063 26.3733 148.628 25.936C149.14 25.5307 149.935 25.2373 151.012 25.056L153.3 24.672V24.272C153.3 23.7707 153.135 23.3973 152.804 23.152C152.516 22.928 152.121 22.816 151.62 22.816C150.628 22.816 150.068 23.2213 149.94 24.032ZM153.3 25.936L151.492 26.256C150.873 26.3733 150.431 26.5387 150.164 26.752C149.897 26.9547 149.764 27.2427 149.764 27.616C149.764 28.3947 150.239 28.784 151.188 28.784C151.807 28.784 152.329 28.5813 152.756 28.176C153.119 27.824 153.3 27.4133 153.3 26.944V25.936Z" fill="black" fill-opacity="0.95"/>
</svg>
