<svg width="559" height="197" viewBox="0 0 559 197" fill="none" xmlns="http://www.w3.org/2000/svg">
<path d="M0 24C0 10.7452 10.7452 0 24 0H535C548.255 0 559 10.7452 559 24V173C559 186.255 548.255 197 535 197H24C10.7452 197 0 186.255 0 173V24Z" fill="#262626"/>
<path d="M519 25.9998C516.232 25.9998 513.525 26.8208 511.223 28.3592C508.92 29.8975 507.126 32.084 506.066 34.6422C505.007 37.2004 504.729 40.0153 505.27 42.731C505.81 45.4468 507.143 47.9413 509.101 49.8993C511.059 51.8572 513.553 53.1906 516.269 53.7308C518.985 54.2709 521.8 53.9937 524.358 52.9341C526.916 51.8744 529.103 50.08 530.641 47.7777C532.179 45.4755 533 42.7687 533 39.9998C532.996 36.288 531.52 32.7295 528.895 30.1049C526.271 27.4803 522.712 26.0039 519 25.9998ZM528.155 47.7405L511.26 30.845C513.555 28.8985 516.498 27.8865 519.505 28.0098C522.511 28.1331 525.362 29.3828 527.49 31.5107C529.617 33.6386 530.867 36.4889 530.99 39.4956C531.114 42.5024 530.102 45.4455 528.155 47.7405ZM509.846 32.2591L526.741 49.1545C524.446 51.101 521.503 52.113 518.496 51.9896C515.49 51.8663 512.639 50.6166 510.512 48.4888C508.384 46.3609 507.134 43.5106 507.011 40.5039C506.887 37.4972 507.899 34.5541 509.846 32.2591Z" fill="#FC8B98"/>
<g clip-path="url(#clip0_3163_10991)">
<path d="M19.7072 96.0001L25.3537 90.3538C25.4451 90.2595 25.4958 90.1331 25.4948 90.0018C25.4938 89.8705 25.4412 89.7449 25.3484 89.6521C25.2555 89.5592 25.1299 89.5066 24.9986 89.5056C24.8673 89.5046 24.7409 89.5553 24.6467 89.6467L18.6467 95.6467C18.5529 95.7405 18.5002 95.8676 18.5002 96.0002C18.5002 96.1328 18.5529 96.26 18.6467 96.3538L24.6467 102.354C24.6928 102.401 24.748 102.439 24.809 102.465C24.8699 102.491 24.9355 102.505 25.0018 102.506C25.0681 102.506 25.1338 102.493 25.1951 102.468C25.2565 102.443 25.3122 102.406 25.3591 102.359C25.406 102.312 25.4431 102.257 25.4682 102.195C25.4933 102.134 25.506 102.068 25.5055 102.002C25.505 101.935 25.4913 101.87 25.4653 101.809C25.4392 101.748 25.4013 101.693 25.3537 101.647L19.7072 96.0001Z" fill="white" fill-opacity="0.95"/>
<g clip-path="url(#clip1_3163_10991)">
<rect x="50" y="80" width="93" height="32" rx="16" fill="white" fill-opacity="0.2"/>
<path d="M63.5551 90.8182H65.4195L68.661 98.733H68.7803L72.0218 90.8182H73.8861V101H72.4244V93.6321H72.33L69.3271 100.985H68.1141L65.1112 93.6271H65.0168V101H63.5551V90.8182ZM79.2915 101.154C78.5391 101.154 77.8911 100.993 77.3476 100.672C76.8073 100.347 76.3897 99.8913 76.0947 99.3047C75.8031 98.7147 75.6572 98.0237 75.6572 97.2315C75.6572 96.4493 75.8031 95.7599 76.0947 95.1634C76.3897 94.5668 76.8007 94.1011 77.3277 93.7663C77.858 93.4316 78.4778 93.2642 79.1871 93.2642C79.6179 93.2642 80.0355 93.3355 80.4399 93.478C80.8443 93.6205 81.2072 93.8442 81.5287 94.1491C81.8502 94.4541 82.1037 94.8501 82.2893 95.3374C82.4749 95.8213 82.5677 96.4096 82.5677 97.1023V97.6293H76.4974V96.5156H81.1111C81.1111 96.1245 81.0315 95.7782 80.8724 95.4766C80.7133 95.1716 80.4896 94.9313 80.2013 94.7557C79.9162 94.58 79.5815 94.4922 79.197 94.4922C78.7794 94.4922 78.4148 94.5949 78.1032 94.8004C77.795 95.0026 77.5564 95.2678 77.3873 95.5959C77.2216 95.9207 77.1388 96.2737 77.1388 96.6548V97.5249C77.1388 98.0353 77.2282 98.4695 77.4072 98.8274C77.5895 99.1854 77.8431 99.4588 78.1679 99.6477C78.4927 99.8333 78.8722 99.9261 79.3064 99.9261C79.5881 99.9261 79.845 99.8864 80.077 99.8068C80.309 99.724 80.5095 99.6013 80.6785 99.4389C80.8476 99.2765 80.9768 99.076 81.0663 98.8374L82.4733 99.0909C82.3606 99.5052 82.1584 99.8681 81.8667 100.18C81.5784 100.488 81.2155 100.728 80.778 100.901C80.3438 101.07 79.8483 101.154 79.2915 101.154ZM89.9394 95.228L88.5921 95.4666C88.5357 95.2943 88.4462 95.1302 88.3236 94.9744C88.2043 94.8187 88.0419 94.6911 87.8364 94.5916C87.6309 94.4922 87.374 94.4425 87.0658 94.4425C86.6449 94.4425 86.2935 94.5369 86.0118 94.7259C85.7301 94.9115 85.5892 95.1518 85.5892 95.4467C85.5892 95.7019 85.6837 95.9074 85.8726 96.0632C86.0615 96.219 86.3664 96.3466 86.7874 96.446L88.0004 96.7244C88.7031 96.8868 89.2268 97.1371 89.5715 97.4751C89.9162 97.8132 90.0885 98.2524 90.0885 98.7926C90.0885 99.25 89.9559 99.6577 89.6908 100.016C89.4289 100.37 89.0627 100.649 88.5921 100.851C88.1247 101.053 87.5828 101.154 86.9664 101.154C86.1112 101.154 85.4136 100.972 84.8733 100.607C84.3331 100.239 84.0016 99.7173 83.879 99.0412L85.3158 98.8224C85.4053 99.197 85.5892 99.4804 85.8676 99.6726C86.146 99.8615 86.509 99.956 86.9564 99.956C87.4436 99.956 87.8331 99.8549 88.1247 99.6527C88.4164 99.4472 88.5622 99.197 88.5622 98.902C88.5622 98.6634 88.4727 98.4628 88.2938 98.3004C88.1181 98.138 87.848 98.0154 87.4834 97.9325L86.1908 97.6491C85.4782 97.4867 84.9512 97.2282 84.6098 96.8736C84.2718 96.5189 84.1027 96.0698 84.1027 95.5263C84.1027 95.0755 84.2287 94.6811 84.4806 94.343C84.7325 94.005 85.0805 93.7415 85.5246 93.5526C85.9687 93.3603 86.4775 93.2642 87.0509 93.2642C87.8762 93.2642 88.5258 93.4432 88.9997 93.8011C89.4737 94.1558 89.7869 94.6314 89.9394 95.228ZM97.4452 95.228L96.0979 95.4666C96.0416 95.2943 95.9521 95.1302 95.8295 94.9744C95.7101 94.8187 95.5477 94.6911 95.3422 94.5916C95.1367 94.4922 94.8799 94.4425 94.5716 94.4425C94.1507 94.4425 93.7994 94.5369 93.5177 94.7259C93.2359 94.9115 93.0951 95.1518 93.0951 95.4467C93.0951 95.7019 93.1895 95.9074 93.3785 96.0632C93.5674 96.219 93.8723 96.3466 94.2932 96.446L95.5063 96.7244C96.209 96.8868 96.7326 97.1371 97.0773 97.4751C97.422 97.8132 97.5944 98.2524 97.5944 98.7926C97.5944 99.25 97.4618 99.6577 97.1966 100.016C96.9348 100.37 96.5686 100.649 96.0979 100.851C95.6306 101.053 95.0887 101.154 94.4722 101.154C93.6171 101.154 92.9194 100.972 92.3792 100.607C91.8389 100.239 91.5075 99.7173 91.3849 99.0412L92.8216 98.8224C92.9111 99.197 93.0951 99.4804 93.3735 99.6726C93.6519 99.8615 94.0148 99.956 94.4623 99.956C94.9495 99.956 95.3389 99.8549 95.6306 99.6527C95.9223 99.4472 96.0681 99.197 96.0681 98.902C96.0681 98.6634 95.9786 98.4628 95.7996 98.3004C95.624 98.138 95.3538 98.0154 94.9893 97.9325L93.6966 97.6491C92.984 97.4867 92.4571 97.2282 92.1157 96.8736C91.7776 96.5189 91.6086 96.0698 91.6086 95.5263C91.6086 95.0755 91.7345 94.6811 91.9864 94.343C92.2383 94.005 92.5863 93.7415 93.0305 93.5526C93.4746 93.3603 93.9833 93.2642 94.5567 93.2642C95.382 93.2642 96.0316 93.4432 96.5056 93.8011C96.9796 94.1558 97.2928 94.6314 97.4452 95.228ZM101.451 101.169C100.967 101.169 100.53 101.08 100.139 100.901C99.7475 100.718 99.4376 100.455 99.2089 100.11C98.9835 99.7654 98.8708 99.3428 98.8708 98.8423C98.8708 98.4115 98.9537 98.0568 99.1194 97.7784C99.2851 97.5 99.5088 97.2796 99.7906 97.1172C100.072 96.9548 100.387 96.8321 100.735 96.7493C101.083 96.6664 101.438 96.6035 101.799 96.5604C102.256 96.5073 102.628 96.4643 102.913 96.4311C103.198 96.3946 103.405 96.3366 103.534 96.2571C103.663 96.1776 103.728 96.0483 103.728 95.8693V95.8345C103.728 95.4003 103.605 95.0639 103.36 94.8253C103.118 94.5866 102.757 94.4673 102.276 94.4673C101.776 94.4673 101.381 94.5784 101.093 94.8004C100.808 95.0192 100.611 95.2628 100.502 95.5312L99.1045 95.2131C99.2702 94.7491 99.5122 94.3745 99.8303 94.0895C100.152 93.8011 100.521 93.5923 100.939 93.4631C101.357 93.3305 101.796 93.2642 102.256 93.2642C102.561 93.2642 102.885 93.3007 103.226 93.3736C103.571 93.4432 103.892 93.5724 104.19 93.7614C104.492 93.9503 104.739 94.2204 104.931 94.5717C105.123 94.9197 105.22 95.3722 105.22 95.929V101H103.768V99.956H103.708C103.612 100.148 103.468 100.337 103.276 100.523C103.083 100.708 102.836 100.862 102.535 100.985C102.233 101.108 101.872 101.169 101.451 101.169ZM101.774 99.9759C102.185 99.9759 102.537 99.8946 102.828 99.7322C103.123 99.5698 103.347 99.3577 103.499 99.0959C103.655 98.8307 103.733 98.5473 103.733 98.2457V97.2614C103.68 97.3144 103.577 97.3641 103.425 97.4105C103.276 97.4536 103.105 97.4917 102.913 97.5249C102.72 97.5547 102.533 97.5829 102.351 97.6094C102.169 97.6326 102.016 97.6525 101.894 97.669C101.605 97.7055 101.342 97.7668 101.103 97.853C100.868 97.9392 100.679 98.0634 100.536 98.2259C100.397 98.3849 100.328 98.5971 100.328 98.8622C100.328 99.2301 100.463 99.5085 100.735 99.6974C101.007 99.883 101.353 99.9759 101.774 99.9759ZM110.401 104.008C109.795 104.008 109.273 103.928 108.835 103.769C108.401 103.61 108.046 103.4 107.771 103.138C107.496 102.879 107.291 102.598 107.155 102.293L108.432 101.766C108.522 101.905 108.641 102.056 108.79 102.218C108.943 102.38 109.148 102.52 109.407 102.636C109.669 102.752 110.005 102.81 110.416 102.81C110.98 102.81 111.445 102.674 111.813 102.402C112.181 102.13 112.365 101.699 112.365 101.109V99.608H112.271C112.181 99.7704 112.052 99.951 111.883 100.15C111.717 100.349 111.488 100.521 111.197 100.667C110.905 100.813 110.525 100.886 110.058 100.886C109.455 100.886 108.911 100.745 108.427 100.463C107.947 100.178 107.566 99.7588 107.284 99.2053C107.006 98.6484 106.866 97.964 106.866 97.152C106.866 96.34 107.004 95.6439 107.279 95.0639C107.557 94.4839 107.939 94.0398 108.422 93.7315C108.906 93.42 109.455 93.2642 110.068 93.2642C110.542 93.2642 110.925 93.3438 111.217 93.5028C111.508 93.6586 111.735 93.8409 111.898 94.0497C112.063 94.2585 112.191 94.4425 112.28 94.6016H112.39V93.3636H113.847V101.169C113.847 101.819 113.694 102.352 113.389 102.77C113.084 103.191 112.672 103.502 112.151 103.705C111.634 103.907 111.051 104.008 110.401 104.008ZM110.386 99.6527C110.814 99.6527 111.175 99.5533 111.47 99.3544C111.768 99.1522 111.994 98.8639 112.146 98.4893C112.302 98.1115 112.38 97.6591 112.38 97.1321C112.38 96.6184 112.304 96.166 112.151 95.7749C111.999 95.3838 111.775 95.0788 111.48 94.8601C111.185 94.638 110.82 94.527 110.386 94.527C109.939 94.527 109.566 94.643 109.268 94.875C108.969 95.1037 108.744 95.4152 108.592 95.8097C108.442 96.2041 108.368 96.6449 108.368 97.1321C108.368 97.6326 108.444 98.0717 108.597 98.4496C108.749 98.8274 108.974 99.1224 109.273 99.3345C109.574 99.5466 109.945 99.6527 110.386 99.6527ZM119.131 101.154C118.379 101.154 117.731 100.993 117.187 100.672C116.647 100.347 116.23 99.8913 115.935 99.3047C115.643 98.7147 115.497 98.0237 115.497 97.2315C115.497 96.4493 115.643 95.7599 115.935 95.1634C116.23 94.5668 116.641 94.1011 117.168 93.7663C117.698 93.4316 118.318 93.2642 119.027 93.2642C119.458 93.2642 119.875 93.3355 120.28 93.478C120.684 93.6205 121.047 93.8442 121.369 94.1491C121.69 94.4541 121.944 94.8501 122.129 95.3374C122.315 95.8213 122.408 96.4096 122.408 97.1023V97.6293H116.337V96.5156H120.951C120.951 96.1245 120.871 95.7782 120.712 95.4766C120.553 95.1716 120.329 94.9313 120.041 94.7557C119.756 94.58 119.421 94.4922 119.037 94.4922C118.619 94.4922 118.255 94.5949 117.943 94.8004C117.635 95.0026 117.396 95.2678 117.227 95.5959C117.061 95.9207 116.979 96.2737 116.979 96.6548V97.5249C116.979 98.0353 117.068 98.4695 117.247 98.8274C117.429 99.1854 117.683 99.4588 118.008 99.6477C118.333 99.8333 118.712 99.9261 119.146 99.9261C119.428 99.9261 119.685 99.8864 119.917 99.8068C120.149 99.724 120.349 99.6013 120.518 99.4389C120.687 99.2765 120.817 99.076 120.906 98.8374L122.313 99.0909C122.2 99.5052 121.998 99.8681 121.707 100.18C121.418 100.488 121.055 100.728 120.618 100.901C120.184 101.07 119.688 101.154 119.131 101.154ZM129.779 95.228L128.432 95.4666C128.376 95.2943 128.286 95.1302 128.163 94.9744C128.044 94.8187 127.882 94.6911 127.676 94.5916C127.471 94.4922 127.214 94.4425 126.906 94.4425C126.485 94.4425 126.133 94.5369 125.852 94.7259C125.57 94.9115 125.429 95.1518 125.429 95.4467C125.429 95.7019 125.524 95.9074 125.712 96.0632C125.901 96.219 126.206 96.3466 126.627 96.446L127.84 96.7244C128.543 96.8868 129.067 97.1371 129.411 97.4751C129.756 97.8132 129.928 98.2524 129.928 98.7926C129.928 99.25 129.796 99.6577 129.531 100.016C129.269 100.37 128.903 100.649 128.432 100.851C127.965 101.053 127.423 101.154 126.806 101.154C125.951 101.154 125.253 100.972 124.713 100.607C124.173 100.239 123.841 99.7173 123.719 99.0412L125.156 98.8224C125.245 99.197 125.429 99.4804 125.707 99.6726C125.986 99.8615 126.349 99.956 126.796 99.956C127.283 99.956 127.673 99.8549 127.965 99.6527C128.256 99.4472 128.402 99.197 128.402 98.902C128.402 98.6634 128.313 98.4628 128.134 98.3004C127.958 98.138 127.688 98.0154 127.323 97.9325L126.031 97.6491C125.318 97.4867 124.791 97.2282 124.45 96.8736C124.112 96.5189 123.943 96.0698 123.943 95.5263C123.943 95.0755 124.069 94.6811 124.32 94.343C124.572 94.005 124.92 93.7415 125.364 93.5526C125.809 93.3603 126.317 93.2642 126.891 93.2642C127.716 93.2642 128.366 93.4432 128.84 93.8011C129.314 94.1558 129.627 94.6314 129.779 95.228Z" fill="white" fill-opacity="0.95"/>
<path d="M164.191 101V90.8182H167.82C168.612 90.8182 169.269 90.9624 169.789 91.2507C170.309 91.5391 170.699 91.9335 170.957 92.4339C171.216 92.9311 171.345 93.4912 171.345 94.1143C171.345 94.7408 171.214 95.3042 170.952 95.8047C170.694 96.3018 170.303 96.6963 169.779 96.9879C169.259 97.2763 168.604 97.4205 167.815 97.4205H165.319V96.1179H167.676C168.176 96.1179 168.582 96.0317 168.894 95.8594C169.206 95.6837 169.434 95.4451 169.58 95.1435C169.726 94.8419 169.799 94.4988 169.799 94.1143C169.799 93.7299 169.726 93.3885 169.58 93.0902C169.434 92.7919 169.204 92.5582 168.889 92.3892C168.577 92.2202 168.166 92.1357 167.656 92.1357H165.727V101H164.191ZM176.222 101.154C175.47 101.154 174.822 100.993 174.278 100.672C173.738 100.347 173.32 99.8913 173.025 99.3047C172.734 98.7147 172.588 98.0237 172.588 97.2315C172.588 96.4493 172.734 95.7599 173.025 95.1634C173.32 94.5668 173.731 94.1011 174.258 93.7663C174.789 93.4316 175.408 93.2642 176.118 93.2642C176.549 93.2642 176.966 93.3355 177.371 93.478C177.775 93.6205 178.138 93.8442 178.459 94.1491C178.781 94.4541 179.034 94.8501 179.22 95.3374C179.406 95.8213 179.498 96.4096 179.498 97.1023V97.6293H173.428V96.5156H178.042C178.042 96.1245 177.962 95.7782 177.803 95.4766C177.644 95.1716 177.42 94.9313 177.132 94.7557C176.847 94.58 176.512 94.4922 176.128 94.4922C175.71 94.4922 175.345 94.5949 175.034 94.8004C174.726 95.0026 174.487 95.2678 174.318 95.5959C174.152 95.9207 174.069 96.2737 174.069 96.6548V97.5249C174.069 98.0353 174.159 98.4695 174.338 98.8274C174.52 99.1854 174.774 99.4588 175.099 99.6477C175.423 99.8333 175.803 99.9261 176.237 99.9261C176.519 99.9261 176.776 99.8864 177.008 99.8068C177.24 99.724 177.44 99.6013 177.609 99.4389C177.778 99.2765 177.907 99.076 177.997 98.8374L179.404 99.0909C179.291 99.5052 179.089 99.8681 178.797 100.18C178.509 100.488 178.146 100.728 177.709 100.901C177.274 101.07 176.779 101.154 176.222 101.154ZM184.364 101.154C183.648 101.154 183.024 100.99 182.49 100.662C181.956 100.334 181.542 99.8748 181.247 99.2848C180.952 98.6948 180.805 98.0054 180.805 97.2166C180.805 96.4245 180.952 95.7318 181.247 95.1385C181.542 94.5452 181.956 94.0845 182.49 93.7564C183.024 93.4283 183.648 93.2642 184.364 93.2642C185.08 93.2642 185.705 93.4283 186.239 93.7564C186.772 94.0845 187.187 94.5452 187.482 95.1385C187.777 95.7318 187.924 96.4245 187.924 97.2166C187.924 98.0054 187.777 98.6948 187.482 99.2848C187.187 99.8748 186.772 100.334 186.239 100.662C185.705 100.99 185.08 101.154 184.364 101.154ZM184.369 99.9062C184.833 99.9062 185.218 99.7836 185.523 99.5384C185.828 99.2931 186.053 98.9666 186.199 98.5589C186.348 98.1513 186.423 97.7022 186.423 97.2116C186.423 96.7244 186.348 96.277 186.199 95.8693C186.053 95.4583 185.828 95.1286 185.523 94.88C185.218 94.6314 184.833 94.5071 184.369 94.5071C183.902 94.5071 183.514 94.6314 183.206 94.88C182.901 95.1286 182.674 95.4583 182.525 95.8693C182.379 96.277 182.306 96.7244 182.306 97.2116C182.306 97.7022 182.379 98.1513 182.525 98.5589C182.674 98.9666 182.901 99.2931 183.206 99.5384C183.514 99.7836 183.902 99.9062 184.369 99.9062ZM189.583 103.864V93.3636H191.035V94.6016H191.159C191.245 94.4425 191.37 94.2585 191.532 94.0497C191.695 93.8409 191.92 93.6586 192.208 93.5028C192.497 93.3438 192.878 93.2642 193.352 93.2642C193.968 93.2642 194.518 93.42 195.002 93.7315C195.486 94.0431 195.866 94.4922 196.141 95.0788C196.419 95.6655 196.558 96.3714 196.558 97.1967C196.558 98.022 196.421 98.7296 196.146 99.3196C195.871 99.9062 195.493 100.359 195.012 100.677C194.532 100.992 193.983 101.149 193.367 101.149C192.903 101.149 192.523 101.071 192.228 100.915C191.936 100.76 191.708 100.577 191.542 100.369C191.376 100.16 191.249 99.9742 191.159 99.8118H191.07V103.864H189.583ZM191.04 97.1818C191.04 97.7187 191.118 98.1894 191.274 98.5938C191.429 98.9981 191.655 99.3146 191.95 99.5433C192.245 99.7687 192.606 99.8814 193.034 99.8814C193.478 99.8814 193.849 99.7637 194.147 99.5284C194.445 99.2898 194.671 98.9666 194.823 98.5589C194.979 98.1513 195.057 97.6922 195.057 97.1818C195.057 96.678 194.981 96.2256 194.828 95.8246C194.679 95.4235 194.454 95.107 194.152 94.875C193.854 94.643 193.481 94.527 193.034 94.527C192.603 94.527 192.238 94.638 191.94 94.8601C191.645 95.0821 191.421 95.392 191.269 95.7898C191.116 96.1875 191.04 96.6515 191.04 97.1818ZM199.71 90.8182V101H198.224V90.8182H199.71ZM205.001 101.154C204.249 101.154 203.601 100.993 203.058 100.672C202.517 100.347 202.1 99.8913 201.805 99.3047C201.513 98.7147 201.367 98.0237 201.367 97.2315C201.367 96.4493 201.513 95.7599 201.805 95.1634C202.1 94.5668 202.511 94.1011 203.038 93.7663C203.568 93.4316 204.188 93.2642 204.897 93.2642C205.328 93.2642 205.746 93.3355 206.15 93.478C206.554 93.6205 206.917 93.8442 207.239 94.1491C207.56 94.4541 207.814 94.8501 207.999 95.3374C208.185 95.8213 208.278 96.4096 208.278 97.1023V97.6293H202.207V96.5156H206.821C206.821 96.1245 206.741 95.7782 206.582 95.4766C206.423 95.1716 206.2 94.9313 205.911 94.7557C205.626 94.58 205.291 94.4922 204.907 94.4922C204.489 94.4922 204.125 94.5949 203.813 94.8004C203.505 95.0026 203.266 95.2678 203.097 95.5959C202.932 95.9207 202.849 96.2737 202.849 96.6548V97.5249C202.849 98.0353 202.938 98.4695 203.117 98.8274C203.299 99.1854 203.553 99.4588 203.878 99.6477C204.203 99.8333 204.582 99.9261 205.016 99.9261C205.298 99.9261 205.555 99.8864 205.787 99.8068C206.019 99.724 206.219 99.6013 206.388 99.4389C206.558 99.2765 206.687 99.076 206.776 98.8374L208.183 99.0909C208.071 99.5052 207.868 99.8681 207.577 100.18C207.288 100.488 206.925 100.728 206.488 100.901C206.054 101.07 205.558 101.154 205.001 101.154Z" fill="white" fill-opacity="0.7"/>
<g clip-path="url(#clip2_3163_10991)">
<path d="M251.066 84.1293H249.515C249.456 83.7978 249.345 83.5062 249.182 83.2543C249.02 83.0024 248.821 82.7886 248.586 82.6129C248.35 82.4373 248.087 82.3047 247.795 82.2152C247.507 82.1257 247.2 82.081 246.875 82.081C246.289 82.081 245.763 82.2285 245.299 82.5234C244.839 82.8184 244.474 83.2509 244.206 83.821C243.941 84.3911 243.808 85.0871 243.808 85.9091C243.808 86.7377 243.941 87.437 244.206 88.0071C244.474 88.5772 244.84 89.008 245.304 89.2997C245.768 89.5914 246.29 89.7372 246.87 89.7372C247.192 89.7372 247.497 89.6941 247.785 89.608C248.077 89.5185 248.34 89.3875 248.576 89.2152C248.811 89.0429 249.01 88.8324 249.172 88.5838C249.338 88.3319 249.452 88.0436 249.515 87.7188L251.066 87.7237C250.984 88.2242 250.823 88.6849 250.584 89.1058C250.349 89.5234 250.046 89.8847 249.674 90.1896C249.307 90.4912 248.886 90.7249 248.412 90.8906C247.938 91.0563 247.421 91.1392 246.861 91.1392C245.979 91.1392 245.193 90.9304 244.504 90.5128C243.815 90.0919 243.271 89.4903 242.873 88.7081C242.479 87.9259 242.282 86.9929 242.282 85.9091C242.282 84.822 242.481 83.889 242.878 83.1101C243.276 82.3279 243.82 81.728 244.509 81.3104C245.198 80.8894 245.982 80.679 246.861 80.679C247.401 80.679 247.905 80.7569 248.372 80.9126C248.843 81.0651 249.265 81.2905 249.64 81.5888C250.014 81.8838 250.324 82.245 250.569 82.6726C250.815 83.0968 250.98 83.5824 251.066 84.1293ZM256.002 91.1541C255.286 91.1541 254.661 90.9901 254.128 90.6619C253.594 90.3338 253.18 89.8748 252.885 89.2848C252.59 88.6948 252.442 88.0054 252.442 87.2166C252.442 86.4245 252.59 85.7318 252.885 85.1385C253.18 84.5452 253.594 84.0845 254.128 83.7564C254.661 83.4283 255.286 83.2642 256.002 83.2642C256.718 83.2642 257.343 83.4283 257.876 83.7564C258.41 84.0845 258.824 84.5452 259.119 85.1385C259.414 85.7318 259.562 86.4245 259.562 87.2166C259.562 88.0054 259.414 88.6948 259.119 89.2848C258.824 89.8748 258.41 90.3338 257.876 90.6619C257.343 90.9901 256.718 91.1541 256.002 91.1541ZM256.007 89.9062C256.471 89.9062 256.855 89.7836 257.16 89.5384C257.465 89.2931 257.691 88.9666 257.837 88.5589C257.986 88.1513 258.06 87.7022 258.06 87.2116C258.06 86.7244 257.986 86.277 257.837 85.8693C257.691 85.4583 257.465 85.1286 257.16 84.88C256.855 84.6314 256.471 84.5071 256.007 84.5071C255.54 84.5071 255.152 84.6314 254.844 84.88C254.539 85.1286 254.312 85.4583 254.163 85.8693C254.017 86.277 253.944 86.7244 253.944 87.2116C253.944 87.7022 254.017 88.1513 254.163 88.5589C254.312 88.9666 254.539 89.2931 254.844 89.5384C255.152 89.7836 255.54 89.9062 256.007 89.9062ZM262.707 86.4659V91H261.221V83.3636H262.648V84.6065H262.742C262.918 84.2022 263.193 83.8774 263.568 83.6321C263.945 83.3868 264.421 83.2642 264.994 83.2642C265.515 83.2642 265.97 83.3736 266.362 83.5923C266.753 83.8078 267.056 84.1293 267.271 84.5568C267.487 84.9844 267.595 85.513 267.595 86.1428V91H266.108V86.3217C266.108 85.7682 265.964 85.3357 265.676 85.0241C265.387 84.7093 264.991 84.5518 264.487 84.5518C264.143 84.5518 263.836 84.6264 263.568 84.7756C263.302 84.9247 263.092 85.1435 262.936 85.4318C262.784 85.7169 262.707 86.0616 262.707 86.4659ZM273.153 83.3636V84.5568H268.982V83.3636H273.153ZM270.1 81.5341H271.587V88.7578C271.587 89.0462 271.63 89.2633 271.716 89.4091C271.802 89.5516 271.913 89.6494 272.049 89.7024C272.188 89.7521 272.339 89.777 272.502 89.777C272.621 89.777 272.725 89.7687 272.815 89.7521C272.904 89.7356 272.974 89.7223 273.024 89.7124L273.292 90.9403C273.206 90.9735 273.083 91.0066 272.924 91.0398C272.765 91.0762 272.566 91.0961 272.328 91.0994C271.936 91.1061 271.572 91.0365 271.234 90.8906C270.896 90.7448 270.622 90.5194 270.413 90.2145C270.205 89.9096 270.1 89.5268 270.1 89.0661V81.5341ZM278.006 91.1541C277.254 91.1541 276.606 90.9934 276.062 90.6719C275.522 90.3471 275.105 89.8913 274.81 89.3047C274.518 88.7147 274.372 88.0237 274.372 87.2315C274.372 86.4493 274.518 85.7599 274.81 85.1634C275.105 84.5668 275.516 84.1011 276.043 83.7663C276.573 83.4316 277.193 83.2642 277.902 83.2642C278.333 83.2642 278.75 83.3355 279.155 83.478C279.559 83.6205 279.922 83.8442 280.244 84.1491C280.565 84.4541 280.819 84.8501 281.004 85.3374C281.19 85.8213 281.283 86.4096 281.283 87.1023V87.6293H275.212V86.5156H279.826C279.826 86.1245 279.746 85.7782 279.587 85.4766C279.428 85.1716 279.204 84.9313 278.916 84.7557C278.631 84.58 278.296 84.4922 277.912 84.4922C277.494 84.4922 277.13 84.5949 276.818 84.8004C276.51 85.0026 276.271 85.2678 276.102 85.5959C275.936 85.9207 275.854 86.2737 275.854 86.6548V87.5249C275.854 88.0353 275.943 88.4695 276.122 88.8274C276.304 89.1854 276.558 89.4588 276.883 89.6477C277.208 89.8333 277.587 89.9261 278.021 89.9261C278.303 89.9261 278.56 89.8864 278.792 89.8068C279.024 89.724 279.224 89.6013 279.393 89.4389C279.562 89.2765 279.692 89.076 279.781 88.8374L281.188 89.0909C281.075 89.5052 280.873 89.8681 280.582 90.1797C280.293 90.4879 279.93 90.7282 279.493 90.9006C279.059 91.0696 278.563 91.1541 278.006 91.1541ZM284.418 86.4659V91H282.932V83.3636H284.359V84.6065H284.453C284.629 84.2022 284.904 83.8774 285.278 83.6321C285.656 83.3868 286.132 83.2642 286.705 83.2642C287.226 83.2642 287.681 83.3736 288.073 83.5923C288.464 83.8078 288.767 84.1293 288.982 84.5568C289.198 84.9844 289.305 85.513 289.305 86.1428V91H287.819V86.3217C287.819 85.7682 287.675 85.3357 287.386 85.0241C287.098 84.7093 286.702 84.5518 286.198 84.5518C285.854 84.5518 285.547 84.6264 285.278 84.7756C285.013 84.9247 284.803 85.1435 284.647 85.4318C284.495 85.7169 284.418 86.0616 284.418 86.4659ZM294.864 83.3636V84.5568H290.693V83.3636H294.864ZM291.811 81.5341H293.298V88.7578C293.298 89.0462 293.341 89.2633 293.427 89.4091C293.513 89.5516 293.624 89.6494 293.76 89.7024C293.899 89.7521 294.05 89.777 294.212 89.777C294.332 89.777 294.436 89.7687 294.526 89.7521C294.615 89.7356 294.685 89.7223 294.734 89.7124L295.003 90.9403C294.917 90.9735 294.794 91.0066 294.635 91.0398C294.476 91.0762 294.277 91.0961 294.038 91.0994C293.647 91.1061 293.283 91.0365 292.945 90.8906C292.607 90.7448 292.333 90.5194 292.124 90.2145C291.916 89.9096 291.811 89.5268 291.811 89.0661V81.5341ZM258.731 103.493C258.678 103.022 258.46 102.658 258.075 102.399C257.691 102.137 257.207 102.006 256.623 102.006C256.206 102.006 255.845 102.073 255.54 102.205C255.235 102.335 254.998 102.513 254.829 102.742C254.663 102.968 254.58 103.224 254.58 103.513C254.58 103.755 254.637 103.964 254.749 104.139C254.865 104.315 255.016 104.462 255.202 104.582C255.391 104.698 255.593 104.795 255.808 104.875C256.024 104.951 256.231 105.014 256.43 105.064L257.424 105.322C257.749 105.402 258.082 105.51 258.423 105.646C258.765 105.781 259.081 105.96 259.373 106.183C259.664 106.405 259.9 106.68 260.079 107.008C260.261 107.336 260.352 107.729 260.352 108.186C260.352 108.763 260.203 109.275 259.905 109.722C259.61 110.17 259.181 110.523 258.617 110.781C258.057 111.04 257.379 111.169 256.584 111.169C255.821 111.169 255.162 111.048 254.605 110.806C254.048 110.564 253.612 110.221 253.297 109.777C252.983 109.33 252.809 108.799 252.775 108.186H254.317C254.347 108.554 254.466 108.861 254.675 109.106C254.887 109.348 255.157 109.528 255.485 109.648C255.816 109.764 256.179 109.822 256.574 109.822C257.008 109.822 257.394 109.754 257.732 109.618C258.074 109.479 258.342 109.286 258.538 109.041C258.733 108.793 258.831 108.503 258.831 108.171C258.831 107.87 258.745 107.623 258.572 107.43C258.403 107.238 258.173 107.079 257.881 106.953C257.593 106.827 257.266 106.716 256.902 106.62L255.699 106.292C254.883 106.07 254.237 105.743 253.76 105.312C253.286 104.882 253.049 104.312 253.049 103.602C253.049 103.016 253.208 102.504 253.526 102.066C253.844 101.629 254.275 101.289 254.819 101.047C255.362 100.802 255.976 100.679 256.658 100.679C257.348 100.679 257.956 100.8 258.483 101.042C259.013 101.284 259.431 101.617 259.736 102.041C260.041 102.462 260.2 102.946 260.213 103.493H258.731ZM265.633 103.364V104.557H261.462V103.364H265.633ZM262.581 101.534H264.067V108.758C264.067 109.046 264.11 109.263 264.196 109.409C264.283 109.552 264.394 109.649 264.53 109.702C264.669 109.752 264.82 109.777 264.982 109.777C265.101 109.777 265.206 109.769 265.295 109.752C265.385 109.736 265.454 109.722 265.504 109.712L265.772 110.94C265.686 110.973 265.564 111.007 265.405 111.04C265.245 111.076 265.047 111.096 264.808 111.099C264.417 111.106 264.052 111.036 263.714 110.891C263.376 110.745 263.103 110.519 262.894 110.214C262.685 109.91 262.581 109.527 262.581 109.066V101.534ZM272.115 107.833V103.364H273.606V111H272.145V109.678H272.065C271.89 110.085 271.608 110.425 271.22 110.697C270.836 110.965 270.357 111.099 269.783 111.099C269.293 111.099 268.859 110.992 268.481 110.776C268.106 110.558 267.811 110.234 267.596 109.807C267.384 109.379 267.278 108.851 267.278 108.221V103.364H268.764V108.042C268.764 108.562 268.908 108.977 269.197 109.285C269.485 109.593 269.86 109.747 270.32 109.747C270.599 109.747 270.875 109.678 271.15 109.538C271.429 109.399 271.659 109.189 271.842 108.907C272.027 108.625 272.118 108.267 272.115 107.833ZM279.238 103.364V104.557H274.923V103.364H279.238ZM276.106 111V102.479C276.106 102.001 276.21 101.605 276.419 101.29C276.628 100.972 276.905 100.735 277.249 100.58C277.594 100.42 277.969 100.341 278.373 100.341C278.671 100.341 278.926 100.366 279.139 100.415C279.351 100.462 279.508 100.505 279.611 100.545L279.263 101.748C279.193 101.728 279.104 101.705 278.994 101.678C278.885 101.648 278.752 101.634 278.597 101.634C278.235 101.634 277.977 101.723 277.821 101.902C277.669 102.081 277.592 102.339 277.592 102.678V111H276.106ZM284.406 103.364V104.557H280.091V103.364H284.406ZM281.274 111V102.479C281.274 102.001 281.378 101.605 281.587 101.29C281.796 100.972 282.073 100.735 282.417 100.58C282.762 100.42 283.137 100.341 283.541 100.341C283.839 100.341 284.094 100.366 284.307 100.415C284.519 100.462 284.676 100.505 284.779 100.545L284.431 101.748C284.361 101.728 284.272 101.705 284.162 101.678C284.053 101.648 283.92 101.634 283.765 101.634C283.403 101.634 283.145 101.723 282.989 101.902C282.837 102.081 282.76 102.339 282.76 102.678V111H281.274Z" fill="white" fill-opacity="0.7"/>
</g>
<path d="M329.455 90.8182H331.319L334.56 98.733H334.68L337.921 90.8182H339.786V101H338.324V93.6321H338.229L335.227 100.985H334.013L331.011 93.6271H330.916V101H329.455V90.8182ZM345.191 101.154C344.439 101.154 343.791 100.993 343.247 100.672C342.707 100.347 342.289 99.8913 341.994 99.3047C341.702 98.7147 341.557 98.0237 341.557 97.2315C341.557 96.4493 341.702 95.7599 341.994 95.1634C342.289 94.5668 342.7 94.1011 343.227 93.7663C343.757 93.4316 344.377 93.2642 345.086 93.2642C345.517 93.2642 345.935 93.3355 346.339 93.478C346.744 93.6205 347.107 93.8442 347.428 94.1491C347.75 94.4541 348.003 94.8501 348.189 95.3374C348.374 95.8213 348.467 96.4096 348.467 97.1023V97.6293H342.397V96.5156H347.01C347.01 96.1245 346.931 95.7782 346.772 95.4766C346.613 95.1716 346.389 94.9313 346.101 94.7557C345.816 94.58 345.481 94.4922 345.096 94.4922C344.679 94.4922 344.314 94.5949 344.003 94.8004C343.694 95.0026 343.456 95.2678 343.287 95.5959C343.121 95.9207 343.038 96.2737 343.038 96.6548V97.5249C343.038 98.0353 343.128 98.4695 343.307 98.8274C343.489 99.1854 343.742 99.4588 344.067 99.6477C344.392 99.8333 344.772 99.9261 345.206 99.9261C345.488 99.9261 345.744 99.8864 345.976 99.8068C346.208 99.724 346.409 99.6013 346.578 99.4389C346.747 99.2765 346.876 99.076 346.966 98.8374L348.373 99.0909C348.26 99.5052 348.058 99.8681 347.766 100.18C347.478 100.488 347.115 100.728 346.677 100.901C346.243 101.07 345.748 101.154 345.191 101.154ZM353.408 101.154C352.655 101.154 352.007 100.993 351.464 100.672C350.924 100.347 350.506 99.8913 350.211 99.3047C349.919 98.7147 349.773 98.0237 349.773 97.2315C349.773 96.4493 349.919 95.7599 350.211 95.1634C350.506 94.5668 350.917 94.1011 351.444 93.7663C351.974 93.4316 352.594 93.2642 353.303 93.2642C353.734 93.2642 354.152 93.3355 354.556 93.478C354.96 93.6205 355.323 93.8442 355.645 94.1491C355.966 94.4541 356.22 94.8501 356.406 95.3374C356.591 95.8213 356.684 96.4096 356.684 97.1023V97.6293H350.614V96.5156H355.227C355.227 96.1245 355.148 95.7782 354.989 95.4766C354.83 95.1716 354.606 94.9313 354.317 94.7557C354.032 94.58 353.698 94.4922 353.313 94.4922C352.896 94.4922 352.531 94.5949 352.219 94.8004C351.911 95.0026 351.673 95.2678 351.504 95.5959C351.338 95.9207 351.255 96.2737 351.255 96.6548V97.5249C351.255 98.0353 351.344 98.4695 351.523 98.8274C351.706 99.1854 351.959 99.4588 352.284 99.6477C352.609 99.8333 352.988 99.9261 353.423 99.9261C353.704 99.9261 353.961 99.8864 354.193 99.8068C354.425 99.724 354.626 99.6013 354.795 99.4389C354.964 99.2765 355.093 99.076 355.183 98.8374L356.589 99.0909C356.477 99.5052 356.275 99.8681 355.983 100.18C355.695 100.488 355.332 100.728 354.894 100.901C354.46 101.07 353.964 101.154 353.408 101.154ZM361.898 93.3636V94.5568H357.727V93.3636H361.898ZM358.845 91.5341H360.332V98.7578C360.332 99.0462 360.375 99.2633 360.461 99.4091C360.547 99.5516 360.658 99.6494 360.794 99.7024C360.933 99.7521 361.084 99.777 361.247 99.777C361.366 99.777 361.47 99.7687 361.56 99.7521C361.649 99.7356 361.719 99.7223 361.769 99.7124L362.037 100.94C361.951 100.973 361.828 101.007 361.669 101.04C361.51 101.076 361.311 101.096 361.073 101.099C360.682 101.106 360.317 101.036 359.979 100.891C359.641 100.745 359.367 100.519 359.159 100.214C358.95 99.9096 358.845 99.5268 358.845 99.0661V91.5341ZM363.542 101V93.3636H365.029V101H363.542ZM364.293 92.1854C364.034 92.1854 363.812 92.0992 363.627 91.9268C363.444 91.7512 363.353 91.5424 363.353 91.3004C363.353 91.0552 363.444 90.8464 363.627 90.674C363.812 90.4983 364.034 90.4105 364.293 90.4105C364.551 90.4105 364.772 90.4983 364.954 90.674C365.14 90.8464 365.233 91.0552 365.233 91.3004C365.233 91.5424 365.14 91.7512 364.954 91.9268C364.772 92.0992 364.551 92.1854 364.293 92.1854ZM368.515 96.4659V101H367.029V93.3636H368.455V94.6065H368.55C368.726 94.2022 369.001 93.8774 369.375 93.6321C369.753 93.3868 370.229 93.2642 370.802 93.2642C371.322 93.2642 371.778 93.3736 372.169 93.5923C372.56 93.8078 372.864 94.1293 373.079 94.5568C373.294 94.9844 373.402 95.513 373.402 96.1428V101H371.916V96.3217C371.916 95.7682 371.771 95.3357 371.483 95.0241C371.195 94.7093 370.799 94.5518 370.295 94.5518C369.95 94.5518 369.644 94.6264 369.375 94.7756C369.11 94.9247 368.9 95.1435 368.744 95.4318C368.591 95.7169 368.515 96.0616 368.515 96.4659ZM378.597 104.008C377.991 104.008 377.469 103.928 377.031 103.769C376.597 103.61 376.243 103.4 375.968 103.138C375.692 102.879 375.487 102.598 375.351 102.293L376.629 101.766C376.718 101.905 376.838 102.056 376.987 102.218C377.139 102.38 377.345 102.52 377.603 102.636C377.865 102.752 378.201 102.81 378.612 102.81C379.176 102.81 379.642 102.674 380.009 102.402C380.377 102.13 380.561 101.699 380.561 101.109V99.608H380.467C380.377 99.7704 380.248 99.951 380.079 100.15C379.913 100.349 379.685 100.521 379.393 100.667C379.101 100.813 378.722 100.886 378.254 100.886C377.651 100.886 377.108 100.745 376.624 100.463C376.143 100.178 375.762 99.7588 375.48 99.2053C375.202 98.6484 375.063 97.964 375.063 97.152C375.063 96.34 375.2 95.6439 375.475 95.0639C375.754 94.4839 376.135 94.0398 376.619 93.7315C377.103 93.42 377.651 93.2642 378.264 93.2642C378.738 93.2642 379.121 93.3438 379.413 93.5028C379.704 93.6586 379.932 93.8409 380.094 94.0497C380.26 94.2585 380.387 94.4425 380.477 94.6016H380.586V93.3636H382.043V101.169C382.043 101.819 381.89 102.352 381.585 102.77C381.28 103.191 380.868 103.502 380.347 103.705C379.83 103.907 379.247 104.008 378.597 104.008ZM378.583 99.6527C379.01 99.6527 379.371 99.5533 379.666 99.3544C379.965 99.1522 380.19 98.8639 380.343 98.4893C380.498 98.1115 380.576 97.6591 380.576 97.1321C380.576 96.6184 380.5 96.166 380.347 95.7749C380.195 95.3838 379.971 95.0788 379.676 94.8601C379.381 94.638 379.017 94.527 378.583 94.527C378.135 94.527 377.762 94.643 377.464 94.875C377.166 95.1037 376.94 95.4152 376.788 95.8097C376.639 96.2041 376.564 96.6449 376.564 97.1321C376.564 97.6326 376.64 98.0717 376.793 98.4496C376.945 98.8274 377.171 99.1224 377.469 99.3345C377.771 99.5466 378.142 99.6527 378.583 99.6527ZM389.964 101.169C389.48 101.169 389.042 101.08 388.651 100.901C388.26 100.718 387.95 100.455 387.722 100.11C387.496 99.7654 387.384 99.3428 387.384 98.8423C387.384 98.4115 387.466 98.0568 387.632 97.7784C387.798 97.5 388.022 97.2796 388.303 97.1172C388.585 96.9548 388.9 96.8321 389.248 96.7493C389.596 96.6664 389.951 96.6035 390.312 96.5604C390.769 96.5073 391.14 96.4643 391.425 96.4311C391.71 96.3946 391.918 96.3366 392.047 96.2571C392.176 96.1776 392.241 96.0483 392.241 95.8693V95.8345C392.241 95.4003 392.118 95.0639 391.873 94.8253C391.631 94.5866 391.27 94.4673 390.789 94.4673C390.289 94.4673 389.894 94.5784 389.606 94.8004C389.321 95.0192 389.124 95.2628 389.014 95.5312L387.617 95.2131C387.783 94.7491 388.025 94.3745 388.343 94.0895C388.665 93.8011 389.034 93.5923 389.452 93.4631C389.869 93.3305 390.308 93.2642 390.769 93.2642C391.074 93.2642 391.397 93.3007 391.739 93.3736C392.083 93.4432 392.405 93.5724 392.703 93.7614C393.005 93.9503 393.252 94.2204 393.444 94.5717C393.636 94.9197 393.732 95.3722 393.732 95.929V101H392.281V99.956H392.221C392.125 100.148 391.981 100.337 391.788 100.523C391.596 100.708 391.349 100.862 391.048 100.985C390.746 101.108 390.385 101.169 389.964 101.169ZM390.287 99.9759C390.698 99.9759 391.049 99.8946 391.341 99.7322C391.636 99.5698 391.86 99.3577 392.012 99.0959C392.168 98.8307 392.246 98.5473 392.246 98.2457V97.2614C392.193 97.3144 392.09 97.3641 391.938 97.4105C391.788 97.4536 391.618 97.4917 391.425 97.5249C391.233 97.5547 391.046 97.5829 390.864 97.6094C390.681 97.6326 390.529 97.6525 390.406 97.669C390.118 97.7055 389.854 97.7668 389.616 97.853C389.38 97.9392 389.192 98.0634 389.049 98.2259C388.91 98.3849 388.84 98.5971 388.84 98.8622C388.84 99.2301 388.976 99.5085 389.248 99.6974C389.52 99.883 389.866 99.9759 390.287 99.9759ZM398.914 104.008C398.307 104.008 397.785 103.928 397.348 103.769C396.914 103.61 396.559 103.4 396.284 103.138C396.009 102.879 395.803 102.598 395.667 102.293L396.945 101.766C397.035 101.905 397.154 102.056 397.303 102.218C397.456 102.38 397.661 102.52 397.92 102.636C398.181 102.752 398.518 102.81 398.929 102.81C399.492 102.81 399.958 102.674 400.326 102.402C400.694 102.13 400.878 101.699 400.878 101.109V99.608H400.783C400.694 99.7704 400.564 99.951 400.395 100.15C400.23 100.349 400.001 100.521 399.709 100.667C399.418 100.813 399.038 100.886 398.571 100.886C397.968 100.886 397.424 100.745 396.94 100.463C396.46 100.178 396.078 99.7588 395.797 99.2053C395.518 98.6484 395.379 97.964 395.379 97.152C395.379 96.34 395.517 95.6439 395.792 95.0639C396.07 94.4839 396.451 94.0398 396.935 93.7315C397.419 93.42 397.968 93.2642 398.581 93.2642C399.055 93.2642 399.438 93.3438 399.729 93.5028C400.021 93.6586 400.248 93.8409 400.41 94.0497C400.576 94.2585 400.704 94.4425 400.793 94.6016H400.903V93.3636H402.359V101.169C402.359 101.819 402.207 102.352 401.902 102.77C401.597 103.191 401.184 103.502 400.664 103.705C400.147 103.907 399.564 104.008 398.914 104.008ZM398.899 99.6527C399.327 99.6527 399.688 99.5533 399.983 99.3544C400.281 99.1522 400.506 98.8639 400.659 98.4893C400.815 98.1115 400.893 97.6591 400.893 97.1321C400.893 96.6184 400.816 96.166 400.664 95.7749C400.511 95.3838 400.288 95.0788 399.993 94.8601C399.698 94.638 399.333 94.527 398.899 94.527C398.452 94.527 398.079 94.643 397.78 94.875C397.482 95.1037 397.257 95.4152 397.104 95.8097C396.955 96.2041 396.881 96.6449 396.881 97.1321C396.881 97.6326 396.957 98.0717 397.109 98.4496C397.262 98.8274 397.487 99.1224 397.785 99.3345C398.087 99.5466 398.458 99.6527 398.899 99.6527ZM407.644 101.154C406.892 101.154 406.244 100.993 405.7 100.672C405.16 100.347 404.742 99.8913 404.447 99.3047C404.156 98.7147 404.01 98.0237 404.01 97.2315C404.01 96.4493 404.156 95.7599 404.447 95.1634C404.742 94.5668 405.153 94.1011 405.68 93.7663C406.211 93.4316 406.83 93.2642 407.54 93.2642C407.97 93.2642 408.388 93.3355 408.792 93.478C409.197 93.6205 409.56 93.8442 409.881 94.1491C410.203 94.4541 410.456 94.8501 410.642 95.3374C410.827 95.8213 410.92 96.4096 410.92 97.1023V97.6293H404.85V96.5156H409.464C409.464 96.1245 409.384 95.7782 409.225 95.4766C409.066 95.1716 408.842 94.9313 408.554 94.7557C408.269 94.58 407.934 94.4922 407.55 94.4922C407.132 94.4922 406.767 94.5949 406.456 94.8004C406.148 95.0026 405.909 95.2678 405.74 95.5959C405.574 95.9207 405.491 96.2737 405.491 96.6548V97.5249C405.491 98.0353 405.581 98.4695 405.76 98.8274C405.942 99.1854 406.196 99.4588 406.52 99.6477C406.845 99.8333 407.225 99.9261 407.659 99.9261C407.941 99.9261 408.198 99.8864 408.43 99.8068C408.662 99.724 408.862 99.6013 409.031 99.4389C409.2 99.2765 409.329 99.076 409.419 98.8374L410.826 99.0909C410.713 99.5052 410.511 99.8681 410.219 100.18C409.931 100.488 409.568 100.728 409.131 100.901C408.696 101.07 408.201 101.154 407.644 101.154ZM414.056 96.4659V101H412.57V93.3636H413.996V94.6065H414.091C414.267 94.2022 414.542 93.8774 414.916 93.6321C415.294 93.3868 415.77 93.2642 416.343 93.2642C416.863 93.2642 417.319 93.3736 417.71 93.5923C418.101 93.8078 418.405 94.1293 418.62 94.5568C418.835 94.9844 418.943 95.513 418.943 96.1428V101H417.457V96.3217C417.457 95.7682 417.313 95.3357 417.024 95.0241C416.736 94.7093 416.34 94.5518 415.836 94.5518C415.491 94.5518 415.185 94.6264 414.916 94.7756C414.651 94.9247 414.441 95.1435 414.285 95.4318C414.132 95.7169 414.056 96.0616 414.056 96.4659ZM423.795 101.149C423.179 101.149 422.629 100.992 422.145 100.677C421.664 100.359 421.286 99.9062 421.011 99.3196C420.74 98.7296 420.604 98.022 420.604 97.1967C420.604 96.3714 420.741 95.6655 421.016 95.0788C421.295 94.4922 421.676 94.0431 422.16 93.7315C422.644 93.42 423.192 93.2642 423.805 93.2642C424.279 93.2642 424.661 93.3438 424.949 93.5028C425.241 93.6586 425.466 93.8409 425.625 94.0497C425.787 94.2585 425.913 94.4425 426.003 94.6016H426.092V90.8182H427.579V101H426.127V99.8118H426.003C425.913 99.9742 425.784 100.16 425.615 100.369C425.449 100.577 425.221 100.76 424.929 100.915C424.637 101.071 424.259 101.149 423.795 101.149ZM424.124 99.8814C424.551 99.8814 424.912 99.7687 425.207 99.5433C425.506 99.3146 425.731 98.9981 425.884 98.5938C426.039 98.1894 426.117 97.7187 426.117 97.1818C426.117 96.6515 426.041 96.1875 425.888 95.7898C425.736 95.392 425.512 95.0821 425.217 94.8601C424.922 94.638 424.558 94.527 424.124 94.527C423.676 94.527 423.303 94.643 423.005 94.875C422.707 95.107 422.481 95.4235 422.329 95.8246C422.18 96.2256 422.105 96.678 422.105 97.1818C422.105 97.6922 422.181 98.1513 422.334 98.5589C422.486 98.9666 422.712 99.2898 423.01 99.5284C423.312 99.7637 423.683 99.8814 424.124 99.8814ZM431.923 101.169C431.439 101.169 431.001 101.08 430.61 100.901C430.219 100.718 429.909 100.455 429.681 100.11C429.455 99.7654 429.343 99.3428 429.343 98.8423C429.343 98.4115 429.425 98.0568 429.591 97.7784C429.757 97.5 429.981 97.2796 430.262 97.1172C430.544 96.9548 430.859 96.8321 431.207 96.7493C431.555 96.6664 431.91 96.6035 432.271 96.5604C432.728 96.5073 433.099 96.4643 433.384 96.4311C433.669 96.3946 433.877 96.3366 434.006 96.2571C434.135 96.1776 434.2 96.0483 434.2 95.8693V95.8345C434.2 95.4003 434.077 95.0639 433.832 94.8253C433.59 94.5866 433.229 94.4673 432.748 94.4673C432.248 94.4673 431.853 94.5784 431.565 94.8004C431.28 95.0192 431.083 95.2628 430.973 95.5312L429.576 95.2131C429.742 94.7491 429.984 94.3745 430.302 94.0895C430.624 93.8011 430.993 93.5923 431.411 93.4631C431.828 93.3305 432.267 93.2642 432.728 93.2642C433.033 93.2642 433.356 93.3007 433.698 93.3736C434.042 93.4432 434.364 93.5724 434.662 93.7614C434.964 93.9503 435.211 94.2204 435.403 94.5717C435.595 94.9197 435.691 95.3722 435.691 95.929V101H434.24V99.956H434.18C434.084 100.148 433.94 100.337 433.747 100.523C433.555 100.708 433.308 100.862 433.007 100.985C432.705 101.108 432.344 101.169 431.923 101.169ZM432.246 99.9759C432.657 99.9759 433.008 99.8946 433.3 99.7322C433.595 99.5698 433.819 99.3577 433.971 99.0959C434.127 98.8307 434.205 98.5473 434.205 98.2457V97.2614C434.152 97.3144 434.049 97.3641 433.896 97.4105C433.747 97.4536 433.577 97.4917 433.384 97.5249C433.192 97.5547 433.005 97.5829 432.823 97.6094C432.64 97.6326 432.488 97.6525 432.365 97.669C432.077 97.7055 431.813 97.7668 431.575 97.853C431.339 97.9392 431.151 98.0634 431.008 98.2259C430.869 98.3849 430.799 98.5971 430.799 98.8622C430.799 99.2301 430.935 99.5085 431.207 99.6974C431.479 99.883 431.825 99.9759 432.246 99.9759ZM445.01 93.3636V94.5568H440.695V93.3636H445.01ZM441.878 101V92.4787C441.878 92.0014 441.983 91.6053 442.192 91.2905C442.4 90.9723 442.677 90.7353 443.022 90.5795C443.367 90.4205 443.741 90.3409 444.145 90.3409C444.444 90.3409 444.699 90.3658 444.911 90.4155C445.123 90.4619 445.281 90.505 445.383 90.5447L445.035 91.7479C444.966 91.728 444.876 91.7048 444.767 91.6783C444.657 91.6484 444.525 91.6335 444.369 91.6335C444.008 91.6335 443.749 91.723 443.594 91.902C443.441 92.081 443.365 92.3395 443.365 92.6776V101H441.878ZM449.46 101.154C448.744 101.154 448.119 100.99 447.586 100.662C447.052 100.334 446.638 99.8748 446.343 99.2848C446.048 98.6948 445.9 98.0054 445.9 97.2166C445.9 96.4245 446.048 95.7318 446.343 95.1385C446.638 94.5452 447.052 94.0845 447.586 93.7564C448.119 93.4283 448.744 93.2642 449.46 93.2642C450.176 93.2642 450.801 93.4283 451.334 93.7564C451.868 94.0845 452.282 94.5452 452.577 95.1385C452.872 95.7318 453.02 96.4245 453.02 97.2166C453.02 98.0054 452.872 98.6948 452.577 99.2848C452.282 99.8748 451.868 100.334 451.334 100.662C450.801 100.99 450.176 101.154 449.46 101.154ZM449.465 99.9062C449.929 99.9062 450.314 99.7836 450.618 99.5384C450.923 99.2931 451.149 98.9666 451.295 98.5589C451.444 98.1513 451.518 97.7022 451.518 97.2116C451.518 96.7244 451.444 96.277 451.295 95.8693C451.149 95.4583 450.923 95.1286 450.618 94.88C450.314 94.6314 449.929 94.5071 449.465 94.5071C448.998 94.5071 448.61 94.6314 448.302 94.88C447.997 95.1286 447.77 95.4583 447.621 95.8693C447.475 96.277 447.402 96.7244 447.402 97.2116C447.402 97.7022 447.475 98.1513 447.621 98.5589C447.77 98.9666 447.997 99.2931 448.302 99.5384C448.61 99.7836 448.998 99.9062 449.465 99.9062ZM454.679 101V93.3636H456.116V94.5767H456.195C456.335 94.1657 456.58 93.8426 456.931 93.6072C457.286 93.3686 457.687 93.2493 458.134 93.2493C458.227 93.2493 458.336 93.2526 458.462 93.2592C458.592 93.2659 458.693 93.2741 458.766 93.2841V94.706C458.706 94.6894 458.6 94.6712 458.447 94.6513C458.295 94.6281 458.143 94.6165 457.99 94.6165C457.639 94.6165 457.326 94.6911 457.05 94.8402C456.779 94.986 456.563 95.1899 456.404 95.4517C456.245 95.7102 456.165 96.0052 456.165 96.3366V101H454.679ZM467.322 93.3636V94.5568H463.151V93.3636H467.322ZM464.269 91.5341H465.756V98.7578C465.756 99.0462 465.799 99.2633 465.885 99.4091C465.971 99.5516 466.082 99.6494 466.218 99.7024C466.357 99.7521 466.508 99.777 466.67 99.777C466.79 99.777 466.894 99.7687 466.984 99.7521C467.073 99.7356 467.143 99.7223 467.192 99.7124L467.461 100.94C467.375 100.973 467.252 101.007 467.093 101.04C466.934 101.076 466.735 101.096 466.496 101.099C466.105 101.106 465.741 101.036 465.403 100.891C465.065 100.745 464.791 100.519 464.582 100.214C464.374 99.9096 464.269 99.5268 464.269 99.0661V91.5341ZM470.617 96.4659V101H469.13V90.8182H470.597V94.6065H470.691C470.87 94.1955 471.144 93.8691 471.512 93.6271C471.879 93.3852 472.36 93.2642 472.953 93.2642C473.477 93.2642 473.934 93.3719 474.325 93.5874C474.72 93.8028 475.025 94.1243 475.24 94.5518C475.459 94.9761 475.568 95.5064 475.568 96.1428V101H474.082V96.3217C474.082 95.7616 473.938 95.3274 473.649 95.0192C473.361 94.7076 472.96 94.5518 472.446 94.5518C472.095 94.5518 471.78 94.6264 471.502 94.7756C471.227 94.9247 471.009 95.1435 470.85 95.4318C470.695 95.7169 470.617 96.0616 470.617 96.4659ZM480.843 101.154C480.091 101.154 479.443 100.993 478.899 100.672C478.359 100.347 477.941 99.8913 477.646 99.3047C477.355 98.7147 477.209 98.0237 477.209 97.2315C477.209 96.4493 477.355 95.7599 477.646 95.1634C477.941 94.5668 478.352 94.1011 478.879 93.7663C479.41 93.4316 480.03 93.2642 480.739 93.2642C481.17 93.2642 481.587 93.3355 481.992 93.478C482.396 93.6205 482.759 93.8442 483.08 94.1491C483.402 94.4541 483.655 94.8501 483.841 95.3374C484.027 95.8213 484.119 96.4096 484.119 97.1023V97.6293H478.049V96.5156H482.663C482.663 96.1245 482.583 95.7782 482.424 95.4766C482.265 95.1716 482.041 94.9313 481.753 94.7557C481.468 94.58 481.133 94.4922 480.749 94.4922C480.331 94.4922 479.967 94.5949 479.655 94.8004C479.347 95.0026 479.108 95.2678 478.939 95.5959C478.773 95.9207 478.691 96.2737 478.691 96.6548V97.5249C478.691 98.0353 478.78 98.4695 478.959 98.8274C479.141 99.1854 479.395 99.4588 479.72 99.6477C480.044 99.8333 480.424 99.9261 480.858 99.9261C481.14 99.9261 481.397 99.8864 481.629 99.8068C481.861 99.724 482.061 99.6013 482.23 99.4389C482.399 99.2765 482.529 99.076 482.618 98.8374L484.025 99.0909C483.912 99.5052 483.71 99.8681 483.419 100.18C483.13 100.488 482.767 100.728 482.33 100.901C481.896 101.07 481.4 101.154 480.843 101.154ZM486.748 101.094C486.476 101.094 486.243 100.998 486.047 100.806C485.852 100.611 485.754 100.375 485.754 100.1C485.754 99.8284 485.852 99.5964 486.047 99.4041C486.243 99.2086 486.476 99.1108 486.748 99.1108C487.02 99.1108 487.254 99.2086 487.449 99.4041C487.645 99.5964 487.743 99.8284 487.743 100.1C487.743 100.282 487.696 100.45 487.603 100.602C487.514 100.751 487.395 100.871 487.245 100.96C487.096 101.05 486.931 101.094 486.748 101.094ZM490.713 101.094C490.441 101.094 490.208 100.998 490.012 100.806C489.817 100.611 489.719 100.375 489.719 100.1C489.719 99.8284 489.817 99.5964 490.012 99.4041C490.208 99.2086 490.441 99.1108 490.713 99.1108C490.985 99.1108 491.219 99.2086 491.414 99.4041C491.61 99.5964 491.707 99.8284 491.707 100.1C491.707 100.282 491.661 100.45 491.568 100.602C491.479 100.751 491.359 100.871 491.21 100.96C491.061 101.05 490.895 101.094 490.713 101.094ZM494.678 101.094C494.406 101.094 494.172 100.998 493.977 100.806C493.781 100.611 493.684 100.375 493.684 100.1C493.684 99.8284 493.781 99.5964 493.977 99.4041C494.172 99.2086 494.406 99.1108 494.678 99.1108C494.95 99.1108 495.183 99.2086 495.379 99.4041C495.574 99.5964 495.672 99.8284 495.672 100.1C495.672 100.282 495.626 100.45 495.533 100.602C495.444 100.751 495.324 100.871 495.175 100.96C495.026 101.05 494.86 101.094 494.678 101.094Z" fill="white" fill-opacity="0.7"/>
</g>
<path d="M540.354 95.6465L534.354 89.6465C534.307 89.5989 534.252 89.561 534.191 89.5349C534.13 89.5088 534.065 89.4951 533.998 89.4946C533.932 89.4941 533.866 89.5068 533.805 89.532C533.744 89.5571 533.688 89.5942 533.641 89.6411C533.594 89.688 533.557 89.7437 533.532 89.8051C533.507 89.8664 533.494 89.9321 533.495 89.9984C533.495 90.0647 533.509 90.1303 533.535 90.1912C533.561 90.2522 533.599 90.3074 533.647 90.3535L539.293 95.9999L533.647 101.646C533.599 101.693 533.561 101.748 533.535 101.809C533.509 101.87 533.495 101.935 533.495 102.002C533.494 102.068 533.507 102.134 533.532 102.195C533.557 102.256 533.594 102.312 533.641 102.359C533.688 102.406 533.744 102.443 533.805 102.468C533.866 102.493 533.932 102.506 533.998 102.505C534.065 102.505 534.13 102.491 534.191 102.465C534.252 102.439 534.307 102.401 534.354 102.354L540.354 96.3535C540.447 96.2598 540.5 96.1326 540.5 96C540.5 95.8674 540.447 95.7402 540.354 95.6465Z" fill="white" fill-opacity="0.95"/>
</g>
<path d="M0 174H559C559 186.703 548.703 197 536 197H23C10.2975 197 0 186.703 0 174Z" fill="url(#paint0_linear_3163_10991)"/>
<defs>
<linearGradient id="paint0_linear_3163_10991" x1="279.5" y1="174" x2="279.5" y2="197" gradientUnits="userSpaceOnUse">
<stop stop-color="#F0677E"/>
<stop offset="1" stop-color="#DB1F2E"/>
</linearGradient>
<clipPath id="clip0_3163_10991">
<rect width="547" height="32" fill="white" transform="translate(6 80)"/>
</clipPath>
<clipPath id="clip1_3163_10991">
<rect width="459" height="32" fill="white" transform="translate(50 80)"/>
</clipPath>
<clipPath id="clip2_3163_10991">
<rect x="229" y="80" width="79" height="32" rx="16" fill="white"/>
</clipPath>
</defs>
</svg>
