<svg width="559" height="184" viewBox="0 0 559 184" fill="none" xmlns="http://www.w3.org/2000/svg">
<rect width="559" height="184" rx="24" fill="#262626"/>
<path d="M87.4148 64.8182H88.6477V71.5597C88.6477 72.2557 88.4837 72.8771 88.1555 73.424C87.8307 73.9676 87.3717 74.3968 86.7784 74.7116C86.1851 75.0232 85.4891 75.179 84.6903 75.179C83.8916 75.179 83.1955 75.0232 82.6023 74.7116C82.009 74.3968 81.5483 73.9676 81.2202 73.424C80.8954 72.8771 80.733 72.2557 80.733 71.5597V64.8182H81.9659V71.4602C81.9659 71.9574 82.0753 72.3999 82.294 72.7876C82.5128 73.1721 82.8243 73.4754 83.2287 73.6974C83.6364 73.9162 84.1236 74.0256 84.6903 74.0256C85.2571 74.0256 85.7443 73.9162 86.152 73.6974C86.5597 73.4754 86.8712 73.1721 87.0866 72.7876C87.3054 72.3999 87.4148 71.9574 87.4148 71.4602V64.8182ZM90.9508 77.8636V67.3636H92.0843V68.5767H92.2235C92.3097 68.4441 92.429 68.2751 92.5815 68.0696C92.7373 67.8608 92.9593 67.6752 93.2477 67.5128C93.5394 67.3471 93.9338 67.2642 94.4309 67.2642C95.0739 67.2642 95.6407 67.425 96.1312 67.7464C96.6217 68.0679 97.0046 68.5237 97.2797 69.1136C97.5547 69.7036 97.6923 70.3996 97.6923 71.2017C97.6923 72.0104 97.5547 72.7114 97.2797 73.3047C97.0046 73.8946 96.6234 74.352 96.1362 74.6768C95.649 74.9983 95.0872 75.1591 94.4508 75.1591C93.9603 75.1591 93.5675 75.0779 93.2725 74.9155C92.9776 74.7498 92.7505 74.5625 92.5914 74.3537C92.4324 74.1416 92.3097 73.9659 92.2235 73.8267H92.1241V77.8636H90.9508ZM92.1042 71.1818C92.1042 71.7585 92.1887 72.2673 92.3578 72.7081C92.5268 73.1456 92.7737 73.4886 93.0985 73.7372C93.4234 73.9825 93.8211 74.1051 94.2917 74.1051C94.7823 74.1051 95.1916 73.9759 95.5197 73.7173C95.8511 73.4555 96.0997 73.1042 96.2654 72.6634C96.4345 72.2192 96.519 71.7254 96.519 71.1818C96.519 70.6449 96.4361 70.161 96.2704 69.7301C96.108 69.2959 95.8611 68.9529 95.5297 68.701C95.2015 68.4458 94.7889 68.3182 94.2917 68.3182C93.8145 68.3182 93.4134 68.4392 93.0886 68.6811C92.7638 68.9197 92.5185 69.2545 92.3528 69.6854C92.1871 70.1129 92.1042 70.6117 92.1042 71.1818ZM100.655 64.8182V75H99.4821V64.8182H100.655ZM105.907 75.1591C105.217 75.1591 104.612 74.995 104.092 74.6669C103.575 74.3388 103.171 73.8797 102.879 73.2898C102.591 72.6998 102.446 72.0104 102.446 71.2216C102.446 70.4261 102.591 69.7318 102.879 69.1385C103.171 68.5452 103.575 68.0845 104.092 67.7564C104.612 67.4283 105.217 67.2642 105.907 67.2642C106.596 67.2642 107.199 67.4283 107.716 67.7564C108.237 68.0845 108.641 68.5452 108.929 69.1385C109.221 69.7318 109.367 70.4261 109.367 71.2216C109.367 72.0104 109.221 72.6998 108.929 73.2898C108.641 73.8797 108.237 74.3388 107.716 74.6669C107.199 74.995 106.596 75.1591 105.907 75.1591ZM105.907 74.1051C106.43 74.1051 106.861 73.9709 107.199 73.7024C107.537 73.4339 107.788 73.081 107.95 72.6435C108.112 72.206 108.194 71.732 108.194 71.2216C108.194 70.7112 108.112 70.2356 107.95 69.7947C107.788 69.3539 107.537 68.9976 107.199 68.7259C106.861 68.4541 106.43 68.3182 105.907 68.3182C105.383 68.3182 104.952 68.4541 104.614 68.7259C104.276 68.9976 104.026 69.3539 103.863 69.7947C103.701 70.2356 103.62 70.7112 103.62 71.2216C103.62 71.732 103.701 72.206 103.863 72.6435C104.026 73.081 104.276 73.4339 104.614 73.7024C104.952 73.9709 105.383 74.1051 105.907 74.1051ZM113.405 75.179C112.921 75.179 112.482 75.0878 112.088 74.9055C111.693 74.7199 111.38 74.4531 111.148 74.1051C110.916 73.7538 110.8 73.3295 110.8 72.8324C110.8 72.3949 110.886 72.0402 111.058 71.7685C111.231 71.4934 111.461 71.2779 111.749 71.1222C112.038 70.9664 112.356 70.8504 112.704 70.7741C113.055 70.6946 113.408 70.6316 113.763 70.5852C114.227 70.5256 114.603 70.4808 114.892 70.451C115.183 70.4179 115.395 70.3632 115.528 70.2869C115.664 70.2107 115.732 70.0781 115.732 69.8892V69.8494C115.732 69.3589 115.597 68.9777 115.329 68.706C115.064 68.4342 114.661 68.2983 114.121 68.2983C113.561 68.2983 113.122 68.4209 112.803 68.6662C112.485 68.9115 112.262 69.1733 112.132 69.4517L111.019 69.054C111.218 68.59 111.483 68.2287 111.814 67.9702C112.149 67.7083 112.513 67.526 112.908 67.4233C113.306 67.3172 113.697 67.2642 114.081 67.2642C114.326 67.2642 114.608 67.294 114.926 67.3537C115.248 67.41 115.558 67.5277 115.856 67.7067C116.158 67.8857 116.408 68.1558 116.607 68.517C116.806 68.8783 116.905 69.3622 116.905 69.9688V75H115.732V73.9659H115.672C115.593 74.1316 115.46 74.3089 115.274 74.4979C115.089 74.6868 114.842 74.8475 114.534 74.9801C114.225 75.1127 113.849 75.179 113.405 75.179ZM113.584 74.125C114.048 74.125 114.439 74.0339 114.757 73.8516C115.079 73.6693 115.321 73.4339 115.483 73.1456C115.649 72.8572 115.732 72.554 115.732 72.2358V71.1619C115.682 71.2216 115.573 71.2763 115.404 71.326C115.238 71.3724 115.046 71.4138 114.827 71.4503C114.611 71.4834 114.401 71.5133 114.195 71.5398C113.993 71.563 113.829 71.5829 113.703 71.5994C113.398 71.6392 113.113 71.7038 112.848 71.7933C112.586 71.8795 112.374 72.0104 112.212 72.1861C112.053 72.3584 111.973 72.5937 111.973 72.892C111.973 73.2997 112.124 73.608 112.426 73.8168C112.731 74.0223 113.117 74.125 113.584 74.125ZM121.93 75.1591C121.294 75.1591 120.732 74.9983 120.245 74.6768C119.757 74.352 119.376 73.8946 119.101 73.3047C118.826 72.7114 118.689 72.0104 118.689 71.2017C118.689 70.3996 118.826 69.7036 119.101 69.1136C119.376 68.5237 119.759 68.0679 120.25 67.7464C120.74 67.425 121.307 67.2642 121.95 67.2642C122.447 67.2642 122.84 67.3471 123.128 67.5128C123.42 67.6752 123.642 67.8608 123.794 68.0696C123.95 68.2751 124.071 68.4441 124.157 68.5767H124.257V64.8182H125.43V75H124.297V73.8267H124.157C124.071 73.9659 123.949 74.1416 123.789 74.3537C123.63 74.5625 123.403 74.7498 123.108 74.9155C122.813 75.0779 122.421 75.1591 121.93 75.1591ZM122.089 74.1051C122.56 74.1051 122.958 73.9825 123.282 73.7372C123.607 73.4886 123.854 73.1456 124.023 72.7081C124.192 72.2673 124.277 71.7585 124.277 71.1818C124.277 70.6117 124.194 70.1129 124.028 69.6854C123.862 69.2545 123.617 68.9197 123.292 68.6811C122.967 68.4392 122.566 68.3182 122.089 68.3182C121.592 68.3182 121.178 68.4458 120.846 68.701C120.518 68.9529 120.271 69.2959 120.105 69.7301C119.943 70.161 119.862 70.6449 119.862 71.1818C119.862 71.7254 119.945 72.2192 120.11 72.6634C120.279 73.1042 120.528 73.4555 120.856 73.7173C121.188 73.9759 121.599 74.1051 122.089 74.1051ZM127.742 75V67.3636H128.915V75H127.742ZM128.338 66.0909C128.11 66.0909 127.913 66.013 127.747 65.8572C127.584 65.7015 127.503 65.5142 127.503 65.2955C127.503 65.0767 127.584 64.8894 127.747 64.7337C127.913 64.5779 128.11 64.5 128.338 64.5C128.567 64.5 128.763 64.5779 128.925 64.7337C129.091 64.8894 129.174 65.0767 129.174 65.2955C129.174 65.5142 129.091 65.7015 128.925 65.8572C128.763 66.013 128.567 66.0909 128.338 66.0909ZM132.237 70.4062V75H131.064V67.3636H132.198V68.5568H132.297C132.476 68.169 132.748 67.8575 133.112 67.6222C133.477 67.3835 133.948 67.2642 134.524 67.2642C135.041 67.2642 135.494 67.3703 135.882 67.5824C136.269 67.7912 136.571 68.1094 136.786 68.5369C137.002 68.9612 137.11 69.4981 137.11 70.1477V75H135.936V70.2273C135.936 69.6274 135.78 69.16 135.469 68.8253C135.157 68.4872 134.73 68.3182 134.186 68.3182C133.812 68.3182 133.477 68.3994 133.182 68.5618C132.89 68.7242 132.66 68.9612 132.491 69.2727C132.322 69.5843 132.237 69.9621 132.237 70.4062ZM142.336 78.0227C141.769 78.0227 141.282 77.9498 140.874 77.804C140.467 77.6615 140.127 77.4725 139.855 77.2372C139.587 77.0052 139.373 76.7566 139.214 76.4915L140.148 75.8352C140.254 75.9744 140.389 76.1335 140.551 76.3125C140.714 76.4948 140.936 76.6522 141.217 76.7848C141.502 76.9207 141.875 76.9886 142.336 76.9886C142.952 76.9886 143.461 76.8395 143.862 76.5412C144.263 76.2429 144.464 75.7756 144.464 75.1392V73.5881H144.364C144.278 73.7273 144.156 73.8996 143.996 74.1051C143.841 74.3073 143.615 74.4879 143.32 74.647C143.029 74.8028 142.634 74.8807 142.137 74.8807C141.521 74.8807 140.967 74.7348 140.477 74.4432C139.989 74.1515 139.603 73.7273 139.318 73.1705C139.036 72.6136 138.896 71.9375 138.896 71.142C138.896 70.3598 139.033 69.6787 139.308 69.0987C139.583 68.5154 139.966 68.0646 140.457 67.7464C140.947 67.425 141.514 67.2642 142.157 67.2642C142.654 67.2642 143.049 67.3471 143.34 67.5128C143.635 67.6752 143.861 67.8608 144.016 68.0696C144.175 68.2751 144.298 68.4441 144.384 68.5767H144.504V67.3636H145.637V75.2188C145.637 75.875 145.488 76.4086 145.19 76.8196C144.895 77.2339 144.497 77.5372 143.996 77.7294C143.499 77.925 142.946 78.0227 142.336 78.0227ZM142.296 73.8267C142.767 73.8267 143.165 73.719 143.489 73.5036C143.814 73.2881 144.061 72.9782 144.23 72.5739C144.399 72.1695 144.484 71.6856 144.484 71.1222C144.484 70.572 144.401 70.0864 144.235 69.6655C144.069 69.2446 143.824 68.9148 143.499 68.6761C143.174 68.4375 142.773 68.3182 142.296 68.3182C141.799 68.3182 141.385 68.4441 141.053 68.696C140.725 68.9479 140.478 69.286 140.312 69.7102C140.15 70.1345 140.069 70.6051 140.069 71.1222C140.069 71.6525 140.152 72.1214 140.317 72.5291C140.487 72.9335 140.735 73.2517 141.063 73.4837C141.395 73.7124 141.806 73.8267 142.296 73.8267Z" fill="white" fill-opacity="0.95"/>
<path d="M453.118 75L457.672 65.9915V65.9119H452.422V64.8182H458.945V65.9716L454.411 75H453.118ZM463.843 75.1392C463.26 75.1392 462.735 75.0232 462.267 74.7912C461.8 74.5592 461.425 74.241 461.144 73.8366C460.862 73.4323 460.708 72.9716 460.681 72.4545H461.874C461.921 72.9152 462.13 73.2964 462.501 73.598C462.875 73.8963 463.323 74.0455 463.843 74.0455C464.261 74.0455 464.632 73.9477 464.957 73.7521C465.285 73.5566 465.542 73.2881 465.727 72.9467C465.916 72.602 466.011 72.2126 466.011 71.7784C466.011 71.3343 465.913 70.9382 465.718 70.5902C465.525 70.2389 465.26 69.9621 464.922 69.7599C464.584 69.5578 464.198 69.455 463.764 69.4517C463.452 69.4484 463.132 69.4964 462.804 69.5959C462.476 69.692 462.206 69.8163 461.994 69.9688L460.84 69.8295L461.457 64.8182H466.747V65.9119H462.491L462.133 68.9148H462.193C462.401 68.7491 462.663 68.6115 462.978 68.5021C463.293 68.3928 463.621 68.3381 463.963 68.3381C464.586 68.3381 465.141 68.4872 465.628 68.7855C466.119 69.0805 466.503 69.4848 466.781 69.9986C467.063 70.5123 467.204 71.099 467.204 71.7585C467.204 72.4081 467.058 72.9882 466.767 73.4986C466.478 74.0057 466.08 74.4067 465.573 74.7017C465.066 74.9934 464.49 75.1392 463.843 75.1392ZM474.369 73.0909V72.554C474.369 72.1828 474.446 71.843 474.598 71.5348C474.754 71.2232 474.979 70.9747 475.274 70.7891C475.572 70.6001 475.934 70.5057 476.358 70.5057C476.789 70.5057 477.15 70.6001 477.442 70.7891C477.733 70.9747 477.954 71.2232 478.103 71.5348C478.252 71.843 478.327 72.1828 478.327 72.554V73.0909C478.327 73.4621 478.25 73.8035 478.098 74.1151C477.949 74.4233 477.727 74.6719 477.432 74.8608C477.14 75.0464 476.782 75.1392 476.358 75.1392C475.927 75.1392 475.564 75.0464 475.269 74.8608C474.974 74.6719 474.75 74.4233 474.598 74.1151C474.446 73.8035 474.369 73.4621 474.369 73.0909ZM475.384 72.554V73.0909C475.384 73.3991 475.456 73.6759 475.602 73.9212C475.748 74.1631 476 74.2841 476.358 74.2841C476.706 74.2841 476.951 74.1631 477.094 73.9212C477.24 73.6759 477.312 73.3991 477.312 73.0909V72.554C477.312 72.2457 477.243 71.9706 477.104 71.7287C476.964 71.4834 476.716 71.3608 476.358 71.3608C476.01 71.3608 475.76 71.4834 475.607 71.7287C475.458 71.9706 475.384 72.2457 475.384 72.554ZM469.298 67.2642V66.7273C469.298 66.3561 469.375 66.0163 469.527 65.7081C469.683 65.3965 469.908 65.148 470.203 64.9624C470.501 64.7734 470.863 64.679 471.287 64.679C471.718 64.679 472.079 64.7734 472.371 64.9624C472.662 65.148 472.883 65.3965 473.032 65.7081C473.181 66.0163 473.256 66.3561 473.256 66.7273V67.2642C473.256 67.6354 473.179 67.9768 473.027 68.2884C472.878 68.5966 472.656 68.8452 472.361 69.0341C472.069 69.2197 471.711 69.3125 471.287 69.3125C470.856 69.3125 470.493 69.2197 470.198 69.0341C469.903 68.8452 469.679 68.5966 469.527 68.2884C469.375 67.9768 469.298 67.6354 469.298 67.2642ZM470.312 66.7273V67.2642C470.312 67.5724 470.385 67.8492 470.531 68.0945C470.677 68.3364 470.929 68.4574 471.287 68.4574C471.635 68.4574 471.88 68.3364 472.023 68.0945C472.169 67.8492 472.241 67.5724 472.241 67.2642V66.7273C472.241 66.419 472.172 66.1439 472.033 65.902C471.893 65.6567 471.645 65.5341 471.287 65.5341C470.939 65.5341 470.689 65.6567 470.536 65.902C470.387 66.1439 470.312 66.419 470.312 66.7273ZM469.676 75L476.676 64.8182H477.81L470.81 75H469.676Z" fill="white" fill-opacity="0.95"/>
<rect x="79.5" y="88" width="400" height="8" rx="4" fill="#8F8F8F"/>
<rect x="79.5" y="88" width="300" height="8" rx="4" fill="#3492EB"/>
<path d="M80.8722 119L85.4261 109.991V109.912H80.1761V108.818H86.6989V109.972L82.1648 119H80.8722ZM91.5971 119.139C91.0138 119.139 90.4885 119.023 90.0211 118.791C89.5538 118.559 89.1793 118.241 88.8975 117.837C88.6158 117.432 88.4617 116.972 88.4352 116.455H89.6284C89.6748 116.915 89.8836 117.296 90.2548 117.598C90.6293 117.896 91.0768 118.045 91.5971 118.045C92.0147 118.045 92.3859 117.948 92.7108 117.752C93.0389 117.557 93.2958 117.288 93.4814 116.947C93.6703 116.602 93.7647 116.213 93.7647 115.778C93.7647 115.334 93.667 114.938 93.4714 114.59C93.2792 114.239 93.014 113.962 92.676 113.76C92.3379 113.558 91.9518 113.455 91.5176 113.452C91.206 113.448 90.8862 113.496 90.5581 113.596C90.2299 113.692 89.9598 113.816 89.7477 113.969L88.5943 113.83L89.2108 108.818H94.5005V109.912H90.2449L89.8869 112.915H89.9466C90.1554 112.749 90.4172 112.612 90.7321 112.502C91.0469 112.393 91.3751 112.338 91.7164 112.338C92.3395 112.338 92.8947 112.487 93.3819 112.786C93.8725 113.08 94.2569 113.485 94.5353 113.999C94.8171 114.512 94.9579 115.099 94.9579 115.759C94.9579 116.408 94.8121 116.988 94.5204 117.499C94.2321 118.006 93.8343 118.407 93.3272 118.702C92.8201 118.993 92.2434 119.139 91.5971 119.139ZM96.9528 119V111.364H98.0863V112.557H98.1857C98.3448 112.149 98.6017 111.833 98.9563 111.607C99.311 111.379 99.7369 111.264 100.234 111.264C100.738 111.264 101.157 111.379 101.492 111.607C101.83 111.833 102.093 112.149 102.282 112.557H102.362C102.557 112.162 102.851 111.849 103.242 111.617C103.633 111.382 104.102 111.264 104.649 111.264C105.332 111.264 105.89 111.478 106.324 111.906C106.758 112.33 106.975 112.991 106.975 113.889V119H105.802V113.889C105.802 113.326 105.648 112.923 105.34 112.681C105.032 112.439 104.669 112.318 104.251 112.318C103.714 112.318 103.298 112.481 103.003 112.805C102.708 113.127 102.561 113.535 102.561 114.028V119H101.368V113.77C101.368 113.336 101.227 112.986 100.945 112.721C100.663 112.452 100.3 112.318 99.8562 112.318C99.5513 112.318 99.2662 112.399 99.0011 112.562C98.7392 112.724 98.5271 112.95 98.3647 113.238C98.2056 113.523 98.1261 113.853 98.1261 114.227V119H96.9528ZM109.28 119V108.818H110.453V112.577H110.553C110.639 112.444 110.758 112.275 110.911 112.07C111.066 111.861 111.288 111.675 111.577 111.513C111.868 111.347 112.263 111.264 112.76 111.264C113.403 111.264 113.97 111.425 114.46 111.746C114.951 112.068 115.334 112.524 115.609 113.114C115.884 113.704 116.021 114.4 116.021 115.202C116.021 116.01 115.884 116.711 115.609 117.305C115.334 117.895 114.952 118.352 114.465 118.677C113.978 118.998 113.416 119.159 112.78 119.159C112.289 119.159 111.897 119.078 111.602 118.915C111.307 118.75 111.08 118.562 110.92 118.354C110.761 118.142 110.639 117.966 110.553 117.827H110.413V119H109.28ZM110.433 115.182C110.433 115.759 110.518 116.267 110.687 116.708C110.856 117.146 111.103 117.489 111.428 117.737C111.752 117.982 112.15 118.105 112.621 118.105C113.111 118.105 113.521 117.976 113.849 117.717C114.18 117.455 114.429 117.104 114.594 116.663C114.763 116.219 114.848 115.725 114.848 115.182C114.848 114.645 114.765 114.161 114.599 113.73C114.437 113.296 114.19 112.953 113.859 112.701C113.531 112.446 113.118 112.318 112.621 112.318C112.143 112.318 111.742 112.439 111.418 112.681C111.093 112.92 110.848 113.254 110.682 113.685C110.516 114.113 110.433 114.612 110.433 115.182ZM124.856 119.159C124.166 119.159 123.562 118.995 123.041 118.667C122.524 118.339 122.12 117.88 121.828 117.29C121.54 116.7 121.396 116.01 121.396 115.222C121.396 114.426 121.54 113.732 121.828 113.138C122.12 112.545 122.524 112.085 123.041 111.756C123.562 111.428 124.166 111.264 124.856 111.264C125.545 111.264 126.148 111.428 126.665 111.756C127.186 112.085 127.59 112.545 127.879 113.138C128.17 113.732 128.316 114.426 128.316 115.222C128.316 116.01 128.17 116.7 127.879 117.29C127.59 117.88 127.186 118.339 126.665 118.667C126.148 118.995 125.545 119.159 124.856 119.159ZM124.856 118.105C125.379 118.105 125.81 117.971 126.148 117.702C126.487 117.434 126.737 117.081 126.899 116.643C127.062 116.206 127.143 115.732 127.143 115.222C127.143 114.711 127.062 114.236 126.899 113.795C126.737 113.354 126.487 112.998 126.148 112.726C125.81 112.454 125.379 112.318 124.856 112.318C124.332 112.318 123.901 112.454 123.563 112.726C123.225 112.998 122.975 113.354 122.812 113.795C122.65 114.236 122.569 114.711 122.569 115.222C122.569 115.732 122.65 116.206 122.812 116.643C122.975 117.081 123.225 117.434 123.563 117.702C123.901 117.971 124.332 118.105 124.856 118.105ZM133.508 111.364V112.358H129.391V111.364H133.508ZM130.624 119V110.31C130.624 109.872 130.727 109.508 130.932 109.216C131.138 108.924 131.405 108.705 131.733 108.56C132.061 108.414 132.407 108.341 132.772 108.341C133.06 108.341 133.296 108.364 133.478 108.411C133.66 108.457 133.796 108.5 133.885 108.54L133.547 109.554C133.488 109.534 133.405 109.509 133.299 109.479C133.196 109.45 133.06 109.435 132.891 109.435C132.503 109.435 132.223 109.532 132.051 109.728C131.882 109.924 131.797 110.21 131.797 110.588V119H130.624ZM142.649 108.818V119H141.416V110.111H141.357L138.871 111.761V110.509L141.416 108.818H142.649ZM148.898 119.139C148.149 119.139 147.511 118.935 146.984 118.528C146.457 118.117 146.055 117.522 145.776 116.743C145.498 115.961 145.359 115.016 145.359 113.909C145.359 112.809 145.498 111.869 145.776 111.09C146.058 110.308 146.462 109.711 146.989 109.3C147.52 108.886 148.156 108.679 148.898 108.679C149.641 108.679 150.276 108.886 150.803 109.3C151.333 109.711 151.737 110.308 152.016 111.09C152.297 111.869 152.438 112.809 152.438 113.909C152.438 115.016 152.299 115.961 152.021 116.743C151.742 117.522 151.339 118.117 150.812 118.528C150.286 118.935 149.647 119.139 148.898 119.139ZM148.898 118.045C149.641 118.045 150.218 117.687 150.629 116.972C151.04 116.256 151.245 115.235 151.245 113.909C151.245 113.027 151.151 112.277 150.962 111.657C150.776 111.037 150.508 110.565 150.156 110.24C149.808 109.915 149.389 109.753 148.898 109.753C148.163 109.753 147.588 110.116 147.173 110.842C146.759 111.564 146.552 112.587 146.552 113.909C146.552 114.791 146.645 115.54 146.83 116.156C147.016 116.773 147.283 117.242 147.631 117.563C147.982 117.885 148.405 118.045 148.898 118.045ZM157.648 119.139C156.899 119.139 156.261 118.935 155.734 118.528C155.207 118.117 154.805 117.522 154.526 116.743C154.248 115.961 154.109 115.016 154.109 113.909C154.109 112.809 154.248 111.869 154.526 111.09C154.808 110.308 155.212 109.711 155.739 109.3C156.27 108.886 156.906 108.679 157.648 108.679C158.391 108.679 159.026 108.886 159.553 109.3C160.083 109.711 160.487 110.308 160.766 111.09C161.047 111.869 161.188 112.809 161.188 113.909C161.188 115.016 161.049 115.961 160.771 116.743C160.492 117.522 160.089 118.117 159.562 118.528C159.036 118.935 158.397 119.139 157.648 119.139ZM157.648 118.045C158.391 118.045 158.968 117.687 159.379 116.972C159.79 116.256 159.995 115.235 159.995 113.909C159.995 113.027 159.901 112.277 159.712 111.657C159.526 111.037 159.258 110.565 158.906 110.24C158.558 109.915 158.139 109.753 157.648 109.753C156.913 109.753 156.338 110.116 155.923 110.842C155.509 111.564 155.302 112.587 155.302 113.909C155.302 114.791 155.395 115.54 155.58 116.156C155.766 116.773 156.033 117.242 156.381 117.563C156.732 117.885 157.155 118.045 157.648 118.045ZM163.097 119V111.364H164.231V112.557H164.33C164.489 112.149 164.746 111.833 165.101 111.607C165.455 111.379 165.881 111.264 166.379 111.264C166.882 111.264 167.302 111.379 167.636 111.607C167.974 111.833 168.238 112.149 168.427 112.557H168.506C168.702 112.162 168.995 111.849 169.386 111.617C169.777 111.382 170.246 111.264 170.793 111.264C171.476 111.264 172.035 111.478 172.469 111.906C172.903 112.33 173.12 112.991 173.12 113.889V119H171.947V113.889C171.947 113.326 171.793 112.923 171.484 112.681C171.176 112.439 170.813 112.318 170.396 112.318C169.859 112.318 169.443 112.481 169.148 112.805C168.853 113.127 168.705 113.535 168.705 114.028V119H167.512V113.77C167.512 113.336 167.371 112.986 167.089 112.721C166.808 112.452 166.445 112.318 166.001 112.318C165.696 112.318 165.411 112.399 165.146 112.562C164.884 112.724 164.672 112.95 164.509 113.238C164.35 113.523 164.271 113.853 164.271 114.227V119H163.097ZM175.424 119V108.818H176.598V112.577H176.697C176.783 112.444 176.903 112.275 177.055 112.07C177.211 111.861 177.433 111.675 177.721 111.513C178.013 111.347 178.407 111.264 178.904 111.264C179.547 111.264 180.114 111.425 180.605 111.746C181.095 112.068 181.478 112.524 181.753 113.114C182.028 113.704 182.166 114.4 182.166 115.202C182.166 116.01 182.028 116.711 181.753 117.305C181.478 117.895 181.097 118.352 180.61 118.677C180.123 118.998 179.561 119.159 178.924 119.159C178.434 119.159 178.041 119.078 177.746 118.915C177.451 118.75 177.224 118.562 177.065 118.354C176.906 118.142 176.783 117.966 176.697 117.827H176.558V119H175.424ZM176.578 115.182C176.578 115.759 176.662 116.267 176.831 116.708C177 117.146 177.247 117.489 177.572 117.737C177.897 117.982 178.295 118.105 178.765 118.105C179.256 118.105 179.665 117.976 179.993 117.717C180.325 117.455 180.573 117.104 180.739 116.663C180.908 116.219 180.993 115.725 180.993 115.182C180.993 114.645 180.91 114.161 180.744 113.73C180.582 113.296 180.335 112.953 180.003 112.701C179.675 112.446 179.262 112.318 178.765 112.318C178.288 112.318 177.887 112.439 177.562 112.681C177.237 112.92 176.992 113.254 176.826 113.685C176.661 114.113 176.578 114.612 176.578 115.182Z" fill="white" fill-opacity="0.7"/>
</svg>
