<svg width="417" height="371" viewBox="0 0 417 371" fill="none" xmlns="http://www.w3.org/2000/svg">
<path d="M0 24C0 10.7452 10.7452 0 24 0H393C406.255 0 417 10.7452 417 24V347C417 360.255 406.255 371 393 371H24C10.7452 371 0 360.255 0 347V24Z" fill="#262626"/>
<path d="M377 25.9997C374.232 25.9997 371.525 26.8208 369.223 28.3591C366.92 29.8975 365.126 32.084 364.066 34.6421C363.007 37.2003 362.729 40.0152 363.27 42.731C363.81 45.4467 365.143 47.9413 367.101 49.8992C369.059 51.8571 371.553 53.1905 374.269 53.7307C376.985 54.2709 379.8 53.9936 382.358 52.934C384.916 51.8744 387.103 50.08 388.641 47.7777C390.179 45.4754 391 42.7686 391 39.9997C390.996 36.2879 389.52 32.7294 386.895 30.1048C384.271 27.4802 380.712 26.0039 377 25.9997ZM386.155 47.7404L369.26 30.8449C371.555 28.8985 374.498 27.8864 377.505 28.0097C380.511 28.1331 383.362 29.3828 385.49 31.5106C387.617 33.6385 388.867 36.4889 388.99 39.4956C389.114 42.5023 388.102 45.4454 386.155 47.7404ZM367.846 32.259L384.741 49.1545C382.446 51.1009 379.503 52.1129 376.496 51.9896C373.49 51.8662 370.639 50.6165 368.512 48.4887C366.384 46.3608 365.134 43.5105 365.011 40.5038C364.887 37.4971 365.899 34.554 367.846 32.259Z" fill="#F55868"/>
<rect x="48.5" y="135" width="16" height="16" rx="2" fill="#64B4FA"/>
<path d="M54.1002 147.1C54.0343 147.1 53.969 147.087 53.9082 147.062C53.8473 147.037 53.7921 146.999 53.7457 146.952L50.1456 143.335C50.0993 143.288 50.0627 143.233 50.0377 143.172C50.0128 143.112 50 143.047 50.0002 142.981C50.0004 142.915 50.0135 142.85 50.0388 142.79C50.0641 142.729 50.101 142.674 50.1476 142.628C50.1942 142.581 50.2494 142.545 50.3101 142.52C50.3708 142.495 50.4359 142.482 50.5015 142.482C50.5672 142.482 50.6322 142.496 50.6927 142.521C50.7533 142.546 50.8083 142.583 50.8546 142.63L54.1271 145.918L62.1749 139.021C62.2756 138.935 62.4063 138.892 62.5385 138.902C62.6706 138.912 62.7933 138.974 62.8795 139.075C62.9658 139.176 63.0085 139.306 62.9983 139.439C62.9882 139.571 62.9259 139.693 62.8253 139.78L54.4254 146.979C54.335 147.057 54.2196 147.1 54.1002 147.1Z" fill="black" fill-opacity="0.95"/>
<path d="M74.9659 135.818V146H73.733V135.818H74.9659ZM77.2789 146V138.364H78.4125V139.517H78.492C78.6312 139.139 78.8831 138.833 79.2477 138.597C79.6123 138.362 80.0233 138.244 80.4806 138.244C80.5668 138.244 80.6745 138.246 80.8038 138.249C80.9331 138.253 81.0308 138.258 81.0971 138.264V139.457C81.0574 139.447 80.9662 139.433 80.8237 139.413C80.6845 139.389 80.537 139.378 80.3812 139.378C80.01 139.378 79.6786 139.456 79.3869 139.612C79.0985 139.764 78.8699 139.976 78.7008 140.248C78.5351 140.516 78.4522 140.823 78.4522 141.168V146H77.2789ZM85.3578 146.159C84.6684 146.159 84.0635 145.995 83.5431 145.667C83.0261 145.339 82.6217 144.88 82.3301 144.29C82.0417 143.7 81.8975 143.01 81.8975 142.222C81.8975 141.426 82.0417 140.732 82.3301 140.138C82.6217 139.545 83.0261 139.085 83.5431 138.756C84.0635 138.428 84.6684 138.264 85.3578 138.264C86.0472 138.264 86.6504 138.428 87.1674 138.756C87.6878 139.085 88.0922 139.545 88.3805 140.138C88.6722 140.732 88.818 141.426 88.818 142.222C88.818 143.01 88.6722 143.7 88.3805 144.29C88.0922 144.88 87.6878 145.339 87.1674 145.667C86.6504 145.995 86.0472 146.159 85.3578 146.159ZM85.3578 145.105C85.8815 145.105 86.3123 144.971 86.6504 144.702C86.9885 144.434 87.2387 144.081 87.4011 143.643C87.5635 143.206 87.6447 142.732 87.6447 142.222C87.6447 141.711 87.5635 141.236 87.4011 140.795C87.2387 140.354 86.9885 139.998 86.6504 139.726C86.3123 139.454 85.8815 139.318 85.3578 139.318C84.8341 139.318 84.4032 139.454 84.0652 139.726C83.7271 139.998 83.4769 140.354 83.3145 140.795C83.152 141.236 83.0708 141.711 83.0708 142.222C83.0708 142.732 83.152 143.206 83.3145 143.643C83.4769 144.081 83.7271 144.434 84.0652 144.702C84.4032 144.971 84.8341 145.105 85.3578 145.105ZM91.7823 141.406V146H90.609V138.364H91.7425V139.557H91.842C92.021 139.169 92.2927 138.857 92.6573 138.622C93.0219 138.384 93.4925 138.264 94.0692 138.264C94.5863 138.264 95.0387 138.37 95.4265 138.582C95.8143 138.791 96.1159 139.109 96.3313 139.537C96.5468 139.961 96.6545 140.498 96.6545 141.148V146H95.4812V141.227C95.4812 140.627 95.3254 140.16 95.0138 139.825C94.7023 139.487 94.2747 139.318 93.7312 139.318C93.3567 139.318 93.0219 139.399 92.7269 139.562C92.4353 139.724 92.2049 139.961 92.0359 140.273C91.8668 140.584 91.7823 140.962 91.7823 141.406ZM102.895 135.818H104.367L107.827 144.27H107.946L111.406 135.818H112.878V146H111.725V138.264H111.625L108.443 146H107.33L104.148 138.264H104.048V146H102.895V135.818ZM117.438 146.179C116.954 146.179 116.515 146.088 116.121 145.906C115.726 145.72 115.413 145.453 115.181 145.105C114.949 144.754 114.833 144.33 114.833 143.832C114.833 143.395 114.919 143.04 115.092 142.768C115.264 142.493 115.494 142.278 115.783 142.122C116.071 141.966 116.389 141.85 116.737 141.774C117.089 141.695 117.442 141.632 117.796 141.585C118.26 141.526 118.636 141.481 118.925 141.451C119.216 141.418 119.429 141.363 119.561 141.287C119.697 141.211 119.765 141.078 119.765 140.889V140.849C119.765 140.359 119.631 139.978 119.362 139.706C119.097 139.434 118.694 139.298 118.154 139.298C117.594 139.298 117.155 139.421 116.837 139.666C116.518 139.911 116.295 140.173 116.165 140.452L115.052 140.054C115.251 139.59 115.516 139.229 115.847 138.97C116.182 138.708 116.547 138.526 116.941 138.423C117.339 138.317 117.73 138.264 118.114 138.264C118.36 138.264 118.641 138.294 118.96 138.354C119.281 138.41 119.591 138.528 119.889 138.707C120.191 138.886 120.441 139.156 120.64 139.517C120.839 139.878 120.938 140.362 120.938 140.969V146H119.765V144.966H119.705C119.626 145.132 119.493 145.309 119.308 145.498C119.122 145.687 118.875 145.848 118.567 145.98C118.259 146.113 117.882 146.179 117.438 146.179ZM117.617 145.125C118.081 145.125 118.472 145.034 118.79 144.852C119.112 144.669 119.354 144.434 119.516 144.146C119.682 143.857 119.765 143.554 119.765 143.236V142.162C119.715 142.222 119.606 142.276 119.437 142.326C119.271 142.372 119.079 142.414 118.86 142.45C118.645 142.483 118.434 142.513 118.229 142.54C118.027 142.563 117.862 142.583 117.737 142.599C117.432 142.639 117.147 142.704 116.881 142.793C116.62 142.879 116.407 143.01 116.245 143.186C116.086 143.358 116.006 143.594 116.006 143.892C116.006 144.3 116.157 144.608 116.459 144.817C116.764 145.022 117.15 145.125 117.617 145.125ZM124.253 141.406V146H123.08V138.364H124.213V139.557H124.313C124.492 139.169 124.763 138.857 125.128 138.622C125.493 138.384 125.963 138.264 126.54 138.264C127.057 138.264 127.509 138.37 127.897 138.582C128.285 138.791 128.587 139.109 128.802 139.537C129.017 139.961 129.125 140.498 129.125 141.148V146H127.952V141.227C127.952 140.627 127.796 140.16 127.485 139.825C127.173 139.487 126.745 139.318 126.202 139.318C125.827 139.318 125.493 139.399 125.198 139.562C124.906 139.724 124.676 139.961 124.507 140.273C124.338 140.584 124.253 140.962 124.253 141.406Z" fill="white" fill-opacity="0.95"/>
<path d="M74.9659 159.818V170H73.733V159.818H74.9659ZM77.2789 170V162.364H78.4125V163.517H78.492C78.6312 163.139 78.8831 162.833 79.2477 162.597C79.6123 162.362 80.0233 162.244 80.4806 162.244C80.5668 162.244 80.6745 162.246 80.8038 162.249C80.9331 162.253 81.0308 162.258 81.0971 162.264V163.457C81.0574 163.447 80.9662 163.433 80.8237 163.413C80.6845 163.389 80.537 163.378 80.3812 163.378C80.01 163.378 79.6786 163.456 79.3869 163.612C79.0985 163.764 78.8699 163.976 78.7008 164.248C78.5351 164.516 78.4522 164.823 78.4522 165.168V170H77.2789ZM85.3578 170.159C84.6684 170.159 84.0635 169.995 83.5431 169.667C83.0261 169.339 82.6217 168.88 82.3301 168.29C82.0417 167.7 81.8975 167.01 81.8975 166.222C81.8975 165.426 82.0417 164.732 82.3301 164.138C82.6217 163.545 83.0261 163.085 83.5431 162.756C84.0635 162.428 84.6684 162.264 85.3578 162.264C86.0472 162.264 86.6504 162.428 87.1674 162.756C87.6878 163.085 88.0922 163.545 88.3805 164.138C88.6722 164.732 88.818 165.426 88.818 166.222C88.818 167.01 88.6722 167.7 88.3805 168.29C88.0922 168.88 87.6878 169.339 87.1674 169.667C86.6504 169.995 86.0472 170.159 85.3578 170.159ZM85.3578 169.105C85.8815 169.105 86.3123 168.971 86.6504 168.702C86.9885 168.434 87.2387 168.081 87.4011 167.643C87.5635 167.206 87.6447 166.732 87.6447 166.222C87.6447 165.711 87.5635 165.236 87.4011 164.795C87.2387 164.354 86.9885 163.998 86.6504 163.726C86.3123 163.454 85.8815 163.318 85.3578 163.318C84.8341 163.318 84.4032 163.454 84.0652 163.726C83.7271 163.998 83.4769 164.354 83.3145 164.795C83.152 165.236 83.0708 165.711 83.0708 166.222C83.0708 166.732 83.152 167.206 83.3145 167.643C83.4769 168.081 83.7271 168.434 84.0652 168.702C84.4032 168.971 84.8341 169.105 85.3578 169.105ZM91.7823 165.406V170H90.609V162.364H91.7425V163.557H91.842C92.021 163.169 92.2927 162.857 92.6573 162.622C93.0219 162.384 93.4925 162.264 94.0692 162.264C94.5863 162.264 95.0387 162.37 95.4265 162.582C95.8143 162.791 96.1159 163.109 96.3313 163.537C96.5468 163.961 96.6545 164.498 96.6545 165.148V170H95.4812V165.227C95.4812 164.627 95.3254 164.16 95.0138 163.825C94.7023 163.487 94.2747 163.318 93.7312 163.318C93.3567 163.318 93.0219 163.399 92.7269 163.562C92.4353 163.724 92.2049 163.961 92.0359 164.273C91.8668 164.584 91.7823 164.962 91.7823 165.406ZM102.736 170V162.364H103.869V163.557H103.969C104.128 163.149 104.385 162.833 104.74 162.607C105.094 162.379 105.52 162.264 106.017 162.264C106.521 162.264 106.94 162.379 107.275 162.607C107.613 162.833 107.877 163.149 108.066 163.557H108.145C108.341 163.162 108.634 162.849 109.025 162.617C109.416 162.382 109.885 162.264 110.432 162.264C111.115 162.264 111.673 162.478 112.107 162.906C112.542 163.33 112.759 163.991 112.759 164.889V170H111.585V164.889C111.585 164.326 111.431 163.923 111.123 163.681C110.815 163.439 110.452 163.318 110.034 163.318C109.497 163.318 109.081 163.481 108.786 163.805C108.491 164.127 108.344 164.535 108.344 165.028V170H107.151V164.77C107.151 164.336 107.01 163.986 106.728 163.721C106.446 163.452 106.084 163.318 105.639 163.318C105.334 163.318 105.049 163.399 104.784 163.562C104.522 163.724 104.31 163.95 104.148 164.238C103.989 164.523 103.909 164.853 103.909 165.227V170H102.736ZM117.151 170.179C116.667 170.179 116.228 170.088 115.834 169.906C115.439 169.72 115.126 169.453 114.894 169.105C114.662 168.754 114.546 168.33 114.546 167.832C114.546 167.395 114.632 167.04 114.805 166.768C114.977 166.493 115.207 166.278 115.496 166.122C115.784 165.966 116.102 165.85 116.45 165.774C116.801 165.695 117.154 165.632 117.509 165.585C117.973 165.526 118.349 165.481 118.638 165.451C118.929 165.418 119.141 165.363 119.274 165.287C119.41 165.211 119.478 165.078 119.478 164.889V164.849C119.478 164.359 119.344 163.978 119.075 163.706C118.81 163.434 118.407 163.298 117.867 163.298C117.307 163.298 116.868 163.421 116.55 163.666C116.231 163.911 116.008 164.173 115.878 164.452L114.765 164.054C114.964 163.59 115.229 163.229 115.56 162.97C115.895 162.708 116.26 162.526 116.654 162.423C117.052 162.317 117.443 162.264 117.827 162.264C118.073 162.264 118.354 162.294 118.672 162.354C118.994 162.41 119.304 162.528 119.602 162.707C119.904 162.886 120.154 163.156 120.353 163.517C120.552 163.878 120.651 164.362 120.651 164.969V170H119.478V168.966H119.418C119.339 169.132 119.206 169.309 119.02 169.498C118.835 169.687 118.588 169.848 118.28 169.98C117.971 170.113 117.595 170.179 117.151 170.179ZM117.33 169.125C117.794 169.125 118.185 169.034 118.503 168.852C118.825 168.669 119.067 168.434 119.229 168.146C119.395 167.857 119.478 167.554 119.478 167.236V166.162C119.428 166.222 119.319 166.276 119.15 166.326C118.984 166.372 118.792 166.414 118.573 166.45C118.358 166.483 118.147 166.513 117.942 166.54C117.739 166.563 117.575 166.583 117.449 166.599C117.144 166.639 116.859 166.704 116.594 166.793C116.332 166.879 116.12 167.01 115.958 167.186C115.799 167.358 115.719 167.594 115.719 167.892C115.719 168.3 115.87 168.608 116.172 168.817C116.477 169.022 116.863 169.125 117.33 169.125ZM123.966 165.406V170H122.793V162.364H123.926V163.557H124.026C124.205 163.169 124.476 162.857 124.841 162.622C125.205 162.384 125.676 162.264 126.253 162.264C126.77 162.264 127.222 162.37 127.61 162.582C127.998 162.791 128.299 163.109 128.515 163.537C128.73 163.961 128.838 164.498 128.838 165.148V170H127.665V165.227C127.665 164.627 127.509 164.16 127.197 163.825C126.886 163.487 126.458 163.318 125.915 163.318C125.54 163.318 125.205 163.399 124.911 163.562C124.619 163.724 124.388 163.961 124.219 164.273C124.05 164.584 123.966 164.962 123.966 165.406ZM134.92 172.864V162.364H136.053V163.577H136.192C136.278 163.444 136.398 163.275 136.55 163.07C136.706 162.861 136.928 162.675 137.216 162.513C137.508 162.347 137.903 162.264 138.4 162.264C139.043 162.264 139.609 162.425 140.1 162.746C140.59 163.068 140.973 163.524 141.248 164.114C141.523 164.704 141.661 165.4 141.661 166.202C141.661 167.01 141.523 167.711 141.248 168.305C140.973 168.895 140.592 169.352 140.105 169.677C139.618 169.998 139.056 170.159 138.42 170.159C137.929 170.159 137.536 170.078 137.241 169.915C136.946 169.75 136.719 169.562 136.56 169.354C136.401 169.142 136.278 168.966 136.192 168.827H136.093V172.864H134.92ZM136.073 166.182C136.073 166.759 136.157 167.267 136.327 167.708C136.496 168.146 136.742 168.489 137.067 168.737C137.392 168.982 137.79 169.105 138.26 169.105C138.751 169.105 139.16 168.976 139.488 168.717C139.82 168.455 140.068 168.104 140.234 167.663C140.403 167.219 140.488 166.725 140.488 166.182C140.488 165.645 140.405 165.161 140.239 164.73C140.077 164.296 139.83 163.953 139.498 163.701C139.17 163.446 138.758 163.318 138.26 163.318C137.783 163.318 137.382 163.439 137.057 163.681C136.733 163.92 136.487 164.254 136.322 164.685C136.156 165.113 136.073 165.612 136.073 166.182ZM143.451 170V162.364H144.584V163.517H144.664C144.803 163.139 145.055 162.833 145.42 162.597C145.784 162.362 146.195 162.244 146.653 162.244C146.739 162.244 146.846 162.246 146.976 162.249C147.105 162.253 147.203 162.258 147.269 162.264V163.457C147.229 163.447 147.138 163.433 146.996 163.413C146.856 163.389 146.709 163.378 146.553 163.378C146.182 163.378 145.85 163.456 145.559 163.612C145.27 163.764 145.042 163.976 144.873 164.248C144.707 164.516 144.624 164.823 144.624 165.168V170H143.451ZM151.53 170.159C150.84 170.159 150.235 169.995 149.715 169.667C149.198 169.339 148.794 168.88 148.502 168.29C148.214 167.7 148.069 167.01 148.069 166.222C148.069 165.426 148.214 164.732 148.502 164.138C148.794 163.545 149.198 163.085 149.715 162.756C150.235 162.428 150.84 162.264 151.53 162.264C152.219 162.264 152.822 162.428 153.339 162.756C153.86 163.085 154.264 163.545 154.552 164.138C154.844 164.732 154.99 165.426 154.99 166.222C154.99 167.01 154.844 167.7 154.552 168.29C154.264 168.88 153.86 169.339 153.339 169.667C152.822 169.995 152.219 170.159 151.53 170.159ZM151.53 169.105C152.053 169.105 152.484 168.971 152.822 168.702C153.16 168.434 153.411 168.081 153.573 167.643C153.735 167.206 153.817 166.732 153.817 166.222C153.817 165.711 153.735 165.236 153.573 164.795C153.411 164.354 153.16 163.998 152.822 163.726C152.484 163.454 152.053 163.318 151.53 163.318C151.006 163.318 150.575 163.454 150.237 163.726C149.899 163.998 149.649 164.354 149.486 164.795C149.324 165.236 149.243 165.711 149.243 166.222C149.243 166.732 149.324 167.206 149.486 167.643C149.649 168.081 149.899 168.434 150.237 168.702C150.575 168.971 151.006 169.105 151.53 169.105ZM162.752 162.364L159.928 170H158.735L155.911 162.364H157.184L159.292 168.449H159.371L161.479 162.364H162.752ZM167.229 170.159C166.493 170.159 165.858 169.997 165.325 169.672C164.794 169.344 164.385 168.886 164.097 168.3C163.812 167.71 163.669 167.024 163.669 166.241C163.669 165.459 163.812 164.77 164.097 164.173C164.385 163.573 164.786 163.106 165.3 162.771C165.817 162.433 166.42 162.264 167.109 162.264C167.507 162.264 167.9 162.33 168.288 162.463C168.675 162.596 169.028 162.811 169.347 163.109C169.665 163.404 169.918 163.795 170.107 164.283C170.296 164.77 170.391 165.37 170.391 166.082V166.58H164.504V165.565H169.197C169.197 165.134 169.111 164.75 168.939 164.412C168.77 164.074 168.528 163.807 168.213 163.612C167.902 163.416 167.534 163.318 167.109 163.318C166.642 163.318 166.238 163.434 165.896 163.666C165.558 163.895 165.298 164.193 165.116 164.561C164.933 164.929 164.842 165.323 164.842 165.744V166.42C164.842 166.997 164.942 167.486 165.141 167.887C165.343 168.285 165.623 168.588 165.981 168.797C166.339 169.002 166.755 169.105 167.229 169.105C167.537 169.105 167.815 169.062 168.064 168.976C168.316 168.886 168.533 168.754 168.715 168.578C168.897 168.399 169.038 168.177 169.138 167.912L170.271 168.23C170.152 168.615 169.951 168.953 169.67 169.244C169.388 169.533 169.04 169.758 168.626 169.92C168.211 170.08 167.746 170.159 167.229 170.159ZM177.585 164.074L176.531 164.372C176.464 164.196 176.366 164.026 176.237 163.86C176.111 163.691 175.939 163.552 175.72 163.442C175.501 163.333 175.221 163.278 174.88 163.278C174.413 163.278 174.023 163.386 173.712 163.602C173.403 163.814 173.249 164.084 173.249 164.412C173.249 164.704 173.355 164.934 173.567 165.103C173.78 165.272 174.111 165.413 174.562 165.526L175.695 165.804C176.378 165.97 176.887 166.223 177.222 166.565C177.556 166.903 177.724 167.339 177.724 167.872C177.724 168.31 177.598 168.701 177.346 169.045C177.097 169.39 176.749 169.662 176.302 169.861C175.854 170.06 175.334 170.159 174.741 170.159C173.962 170.159 173.317 169.99 172.807 169.652C172.296 169.314 171.973 168.82 171.837 168.17L172.951 167.892C173.057 168.303 173.258 168.611 173.553 168.817C173.851 169.022 174.24 169.125 174.721 169.125C175.268 169.125 175.702 169.009 176.023 168.777C176.348 168.542 176.511 168.26 176.511 167.932C176.511 167.667 176.418 167.445 176.232 167.266C176.047 167.083 175.762 166.947 175.377 166.858L174.104 166.56C173.405 166.394 172.891 166.137 172.563 165.789C172.238 165.438 172.076 164.999 172.076 164.472C172.076 164.041 172.197 163.66 172.439 163.328C172.684 162.997 173.017 162.737 173.438 162.548C173.862 162.359 174.343 162.264 174.88 162.264C175.636 162.264 176.229 162.43 176.66 162.761C177.094 163.093 177.402 163.53 177.585 164.074ZM184.183 172.844C183.984 172.844 183.807 172.827 183.651 172.794C183.495 172.764 183.388 172.734 183.328 172.705L183.626 171.67C184.054 171.78 184.41 171.777 184.695 171.661C184.98 171.548 185.227 171.206 185.436 170.636L185.655 170.04L182.831 162.364H184.104L186.211 168.449H186.291L188.399 162.364L189.682 162.384L186.43 171.114C186.284 171.501 186.104 171.823 185.888 172.078C185.673 172.337 185.423 172.529 185.138 172.655C184.856 172.781 184.538 172.844 184.183 172.844ZM194.063 170.159C193.373 170.159 192.769 169.995 192.248 169.667C191.731 169.339 191.327 168.88 191.035 168.29C190.747 167.7 190.603 167.01 190.603 166.222C190.603 165.426 190.747 164.732 191.035 164.138C191.327 163.545 191.731 163.085 192.248 162.756C192.769 162.428 193.373 162.264 194.063 162.264C194.752 162.264 195.355 162.428 195.873 162.756C196.393 163.085 196.797 163.545 197.086 164.138C197.377 164.732 197.523 165.426 197.523 166.222C197.523 167.01 197.377 167.7 197.086 168.29C196.797 168.88 196.393 169.339 195.873 169.667C195.355 169.995 194.752 170.159 194.063 170.159ZM194.063 169.105C194.587 169.105 195.017 168.971 195.355 168.702C195.694 168.434 195.944 168.081 196.106 167.643C196.269 167.206 196.35 166.732 196.35 166.222C196.35 165.711 196.269 165.236 196.106 164.795C195.944 164.354 195.694 163.998 195.355 163.726C195.017 163.454 194.587 163.318 194.063 163.318C193.539 163.318 193.108 163.454 192.77 163.726C192.432 163.998 192.182 164.354 192.02 164.795C191.857 165.236 191.776 165.711 191.776 166.222C191.776 166.732 191.857 167.206 192.02 167.643C192.182 168.081 192.432 168.434 192.77 168.702C193.108 168.971 193.539 169.105 194.063 169.105ZM204.127 166.878V162.364H205.3V170H204.127V168.707H204.047C203.868 169.095 203.59 169.425 203.212 169.697C202.834 169.965 202.357 170.099 201.78 170.099C201.303 170.099 200.878 169.995 200.507 169.786C200.136 169.574 199.844 169.256 199.632 168.832C199.42 168.404 199.314 167.866 199.314 167.216V162.364H200.487V167.136C200.487 167.693 200.643 168.137 200.955 168.469C201.27 168.8 201.671 168.966 202.158 168.966C202.45 168.966 202.746 168.891 203.048 168.742C203.353 168.593 203.608 168.364 203.813 168.056C204.022 167.748 204.127 167.355 204.127 166.878ZM214.27 170.159C213.634 170.159 213.072 169.998 212.585 169.677C212.097 169.352 211.716 168.895 211.441 168.305C211.166 167.711 211.028 167.01 211.028 166.202C211.028 165.4 211.166 164.704 211.441 164.114C211.716 163.524 212.099 163.068 212.589 162.746C213.08 162.425 213.647 162.264 214.29 162.264C214.787 162.264 215.18 162.347 215.468 162.513C215.76 162.675 215.982 162.861 216.134 163.07C216.29 163.275 216.411 163.444 216.497 163.577H216.597V159.818H217.77V170H216.636V168.827H216.497C216.411 168.966 216.288 169.142 216.129 169.354C215.97 169.562 215.743 169.75 215.448 169.915C215.153 170.078 214.76 170.159 214.27 170.159ZM214.429 169.105C214.9 169.105 215.297 168.982 215.622 168.737C215.947 168.489 216.194 168.146 216.363 167.708C216.532 167.267 216.616 166.759 216.616 166.182C216.616 165.612 216.534 165.113 216.368 164.685C216.202 164.254 215.957 163.92 215.632 163.681C215.307 163.439 214.906 163.318 214.429 163.318C213.932 163.318 213.518 163.446 213.186 163.701C212.858 163.953 212.611 164.296 212.445 164.73C212.283 165.161 212.202 165.645 212.202 166.182C212.202 166.725 212.285 167.219 212.45 167.663C212.619 168.104 212.868 168.455 213.196 168.717C213.527 168.976 213.938 169.105 214.429 169.105ZM223.184 170.159C222.495 170.159 221.89 169.995 221.369 169.667C220.852 169.339 220.448 168.88 220.156 168.29C219.868 167.7 219.724 167.01 219.724 166.222C219.724 165.426 219.868 164.732 220.156 164.138C220.448 163.545 220.852 163.085 221.369 162.756C221.89 162.428 222.495 162.264 223.184 162.264C223.873 162.264 224.477 162.428 224.994 162.756C225.514 163.085 225.918 163.545 226.207 164.138C226.498 164.732 226.644 165.426 226.644 166.222C226.644 167.01 226.498 167.7 226.207 168.29C225.918 168.88 225.514 169.339 224.994 169.667C224.477 169.995 223.873 170.159 223.184 170.159ZM223.184 169.105C223.708 169.105 224.138 168.971 224.477 168.702C224.815 168.434 225.065 168.081 225.227 167.643C225.39 167.206 225.471 166.732 225.471 166.222C225.471 165.711 225.39 165.236 225.227 164.795C225.065 164.354 224.815 163.998 224.477 163.726C224.138 163.454 223.708 163.318 223.184 163.318C222.66 163.318 222.229 163.454 221.891 163.726C221.553 163.998 221.303 164.354 221.141 164.795C220.978 165.236 220.897 165.711 220.897 166.222C220.897 166.732 220.978 167.206 221.141 167.643C221.303 168.081 221.553 168.434 221.891 168.702C222.229 168.971 222.66 169.105 223.184 169.105ZM229.608 165.406V170H228.435V162.364H229.569V163.557H229.668C229.847 163.169 230.119 162.857 230.483 162.622C230.848 162.384 231.319 162.264 231.895 162.264C232.412 162.264 232.865 162.37 233.253 162.582C233.64 162.791 233.942 163.109 234.157 163.537C234.373 163.961 234.481 164.498 234.481 165.148V170H233.307V165.227C233.307 164.627 233.152 164.16 232.84 163.825C232.528 163.487 232.101 163.318 231.557 163.318C231.183 163.318 230.848 163.399 230.553 163.562C230.261 163.724 230.031 163.961 229.862 164.273C229.693 164.584 229.608 164.962 229.608 165.406ZM237.659 159.818V160.713C237.659 160.985 237.609 161.275 237.51 161.583C237.413 161.888 237.271 162.185 237.082 162.473C236.896 162.758 236.671 163.007 236.406 163.219L235.77 162.702C235.978 162.403 236.159 162.094 236.311 161.772C236.467 161.447 236.545 161.101 236.545 160.733V159.818H237.659ZM242.735 162.364V163.358H238.777V162.364H242.735ZM239.931 160.534H241.104V167.812C241.104 168.144 241.152 168.393 241.248 168.558C241.348 168.721 241.474 168.83 241.626 168.886C241.782 168.939 241.946 168.966 242.118 168.966C242.248 168.966 242.354 168.959 242.436 168.946C242.519 168.929 242.586 168.916 242.635 168.906L242.874 169.96C242.794 169.99 242.683 170.02 242.541 170.05C242.398 170.083 242.218 170.099 241.999 170.099C241.667 170.099 241.343 170.028 241.025 169.886C240.71 169.743 240.448 169.526 240.239 169.234C240.033 168.943 239.931 168.575 239.931 168.131V160.534ZM249.61 165.406V170H248.437V162.364H249.571V163.557H249.67C249.849 163.169 250.121 162.857 250.485 162.622C250.85 162.384 251.321 162.264 251.897 162.264C252.414 162.264 252.867 162.37 253.255 162.582C253.642 162.791 253.944 163.109 254.159 163.537C254.375 163.961 254.483 164.498 254.483 165.148V170H253.309V165.227C253.309 164.627 253.154 164.16 252.842 163.825C252.53 163.487 252.103 163.318 251.559 163.318C251.185 163.318 250.85 163.399 250.555 163.562C250.263 163.724 250.033 163.961 249.864 164.273C249.695 164.584 249.61 164.962 249.61 165.406ZM259.828 170.159C259.093 170.159 258.458 169.997 257.924 169.672C257.394 169.344 256.985 168.886 256.696 168.3C256.411 167.71 256.269 167.024 256.269 166.241C256.269 165.459 256.411 164.77 256.696 164.173C256.985 163.573 257.386 163.106 257.899 162.771C258.416 162.433 259.02 162.264 259.709 162.264C260.107 162.264 260.499 162.33 260.887 162.463C261.275 162.596 261.628 162.811 261.946 163.109C262.264 163.404 262.518 163.795 262.707 164.283C262.896 164.77 262.99 165.37 262.99 166.082V166.58H257.104V165.565H261.797C261.797 165.134 261.711 164.75 261.539 164.412C261.369 164.074 261.128 163.807 260.813 163.612C260.501 163.416 260.133 163.318 259.709 163.318C259.242 163.318 258.837 163.434 258.496 163.666C258.158 163.895 257.898 164.193 257.715 164.561C257.533 164.929 257.442 165.323 257.442 165.744V166.42C257.442 166.997 257.541 167.486 257.74 167.887C257.942 168.285 258.222 168.588 258.58 168.797C258.938 169.002 259.354 169.105 259.828 169.105C260.137 169.105 260.415 169.062 260.664 168.976C260.915 168.886 261.133 168.754 261.315 168.578C261.497 168.399 261.638 168.177 261.737 167.912L262.871 168.23C262.752 168.615 262.551 168.953 262.269 169.244C261.988 169.533 261.64 169.758 261.225 169.92C260.811 170.08 260.345 170.159 259.828 170.159ZM267.977 170.159C267.241 170.159 266.606 169.997 266.073 169.672C265.542 169.344 265.133 168.886 264.845 168.3C264.56 167.71 264.417 167.024 264.417 166.241C264.417 165.459 264.56 164.77 264.845 164.173C265.133 163.573 265.534 163.106 266.048 162.771C266.565 162.433 267.168 162.264 267.857 162.264C268.255 162.264 268.648 162.33 269.036 162.463C269.423 162.596 269.776 162.811 270.095 163.109C270.413 163.404 270.666 163.795 270.855 164.283C271.044 164.77 271.139 165.37 271.139 166.082V166.58H265.252V165.565H269.945C269.945 165.134 269.859 164.75 269.687 164.412C269.518 164.074 269.276 163.807 268.961 163.612C268.65 163.416 268.282 163.318 267.857 163.318C267.39 163.318 266.986 163.434 266.644 163.666C266.306 163.895 266.046 164.193 265.864 164.561C265.682 164.929 265.59 165.323 265.59 165.744V166.42C265.59 166.997 265.69 167.486 265.889 167.887C266.091 168.285 266.371 168.588 266.729 168.797C267.087 169.002 267.503 169.105 267.977 169.105C268.285 169.105 268.563 169.062 268.812 168.976C269.064 168.886 269.281 168.754 269.463 168.578C269.646 168.399 269.786 168.177 269.886 167.912L271.019 168.23C270.9 168.615 270.7 168.953 270.418 169.244C270.136 169.533 269.788 169.758 269.374 169.92C268.959 170.08 268.494 170.159 267.977 170.159ZM275.807 170.159C275.171 170.159 274.609 169.998 274.122 169.677C273.634 169.352 273.253 168.895 272.978 168.305C272.703 167.711 272.566 167.01 272.566 166.202C272.566 165.4 272.703 164.704 272.978 164.114C273.253 163.524 273.636 163.068 274.127 162.746C274.617 162.425 275.184 162.264 275.827 162.264C276.324 162.264 276.717 162.347 277.005 162.513C277.297 162.675 277.519 162.861 277.671 163.07C277.827 163.275 277.948 163.444 278.034 163.577H278.134V159.818H279.307V170H278.173V168.827H278.034C277.948 168.966 277.825 169.142 277.666 169.354C277.507 169.562 277.28 169.75 276.985 169.915C276.69 170.078 276.298 170.159 275.807 170.159ZM275.966 169.105C276.437 169.105 276.834 168.982 277.159 168.737C277.484 168.489 277.731 168.146 277.9 167.708C278.069 167.267 278.154 166.759 278.154 166.182C278.154 165.612 278.071 165.113 277.905 164.685C277.739 164.254 277.494 163.92 277.169 163.681C276.844 163.439 276.443 163.318 275.966 163.318C275.469 163.318 275.055 163.446 274.723 163.701C274.395 163.953 274.148 164.296 273.982 164.73C273.82 165.161 273.739 165.645 273.739 166.182C273.739 166.725 273.822 167.219 273.987 167.663C274.156 168.104 274.405 168.455 274.733 168.717C275.065 168.976 275.476 169.105 275.966 169.105ZM78.983 184.074L77.929 184.372C77.8627 184.196 77.7649 184.026 77.6357 183.86C77.5097 183.691 77.3374 183.552 77.1186 183.442C76.8999 183.333 76.6198 183.278 76.2784 183.278C75.8111 183.278 75.4216 183.386 75.1101 183.602C74.8018 183.814 74.6477 184.084 74.6477 184.412C74.6477 184.704 74.7538 184.934 74.9659 185.103C75.178 185.272 75.5095 185.413 75.9602 185.526L77.0938 185.804C77.7765 185.97 78.2853 186.223 78.62 186.565C78.9548 186.903 79.1222 187.339 79.1222 187.872C79.1222 188.31 78.9962 188.701 78.7443 189.045C78.4957 189.39 78.1477 189.662 77.7003 189.861C77.2528 190.06 76.7325 190.159 76.1392 190.159C75.3603 190.159 74.7157 189.99 74.2053 189.652C73.6948 189.314 73.3717 188.82 73.2358 188.17L74.3494 187.892C74.4555 188.303 74.656 188.611 74.951 188.817C75.2493 189.022 75.6387 189.125 76.1193 189.125C76.6662 189.125 77.1004 189.009 77.4219 188.777C77.7467 188.542 77.9091 188.26 77.9091 187.932C77.9091 187.667 77.8163 187.445 77.6307 187.266C77.4451 187.083 77.16 186.947 76.7756 186.858L75.5028 186.56C74.8035 186.394 74.2898 186.137 73.9616 185.789C73.6368 185.438 73.4744 184.999 73.4744 184.472C73.4744 184.041 73.5954 183.66 73.8374 183.328C74.0826 182.997 74.4157 182.737 74.8366 182.548C75.2609 182.359 75.7415 182.264 76.2784 182.264C77.0341 182.264 77.6274 182.43 78.0582 182.761C78.4924 183.093 78.8007 183.53 78.983 184.074ZM85.7008 186.878V182.364H86.8741V190H85.7008V188.707H85.6213C85.4423 189.095 85.1639 189.425 84.786 189.697C84.4082 189.965 83.9309 190.099 83.3542 190.099C82.877 190.099 82.4527 189.995 82.0815 189.786C81.7103 189.574 81.4186 189.256 81.2065 188.832C80.9944 188.404 80.8883 187.866 80.8883 187.216V182.364H82.0616V187.136C82.0616 187.693 82.2174 188.137 82.5289 188.469C82.8438 188.8 83.2449 188.966 83.7321 188.966C84.0237 188.966 84.3204 188.891 84.622 188.742C84.9269 188.593 85.1821 188.364 85.3876 188.056C85.5964 187.748 85.7008 187.355 85.7008 186.878ZM89.0231 192.864V182.364H90.1566V183.577H90.2958C90.382 183.444 90.5013 183.275 90.6538 183.07C90.8095 182.861 91.0316 182.675 91.32 182.513C91.6116 182.347 92.006 182.264 92.5032 182.264C93.1462 182.264 93.713 182.425 94.2035 182.746C94.694 183.068 95.0768 183.524 95.3519 184.114C95.627 184.704 95.7646 185.4 95.7646 186.202C95.7646 187.01 95.627 187.711 95.3519 188.305C95.0768 188.895 94.6957 189.352 94.2085 189.677C93.7212 189.998 93.1594 190.159 92.5231 190.159C92.0326 190.159 91.6398 190.078 91.3448 189.915C91.0498 189.75 90.8228 189.562 90.6637 189.354C90.5046 189.142 90.382 188.966 90.2958 188.827H90.1964V192.864H89.0231ZM90.1765 186.182C90.1765 186.759 90.261 187.267 90.43 187.708C90.5991 188.146 90.846 188.489 91.1708 188.737C91.4956 188.982 91.8933 189.105 92.364 189.105C92.8545 189.105 93.2638 188.976 93.592 188.717C93.9234 188.455 94.172 188.104 94.3377 187.663C94.5067 187.219 94.5913 186.725 94.5913 186.182C94.5913 185.645 94.5084 185.161 94.3427 184.73C94.1803 184.296 93.9334 183.953 93.6019 183.701C93.2738 183.446 92.8612 183.318 92.364 183.318C91.8867 183.318 91.4857 183.439 91.1609 183.681C90.8361 183.92 90.5908 184.254 90.4251 184.685C90.2594 185.113 90.1765 185.612 90.1765 186.182ZM100.756 190.159C100.02 190.159 99.3855 189.997 98.8519 189.672C98.3216 189.344 97.9123 188.886 97.6239 188.3C97.3389 187.71 97.1964 187.024 97.1964 186.241C97.1964 185.459 97.3389 184.77 97.6239 184.173C97.9123 183.573 98.3133 183.106 98.8271 182.771C99.3441 182.433 99.9473 182.264 100.637 182.264C101.034 182.264 101.427 182.33 101.815 182.463C102.203 182.596 102.556 182.811 102.874 183.109C103.192 183.404 103.446 183.795 103.635 184.283C103.824 184.77 103.918 185.37 103.918 186.082V186.58H98.0316V185.565H102.725C102.725 185.134 102.639 184.75 102.466 184.412C102.297 184.074 102.055 183.807 101.74 183.612C101.429 183.416 101.061 183.318 100.637 183.318C100.169 183.318 99.765 183.434 99.4237 183.666C99.0856 183.895 98.8254 184.193 98.6431 184.561C98.4608 184.929 98.3697 185.323 98.3697 185.744V186.42C98.3697 186.997 98.4691 187.486 98.668 187.887C98.8701 188.285 99.1502 188.588 99.5082 188.797C99.8661 189.002 100.282 189.105 100.756 189.105C101.064 189.105 101.343 189.062 101.591 188.976C101.843 188.886 102.06 188.754 102.243 188.578C102.425 188.399 102.566 188.177 102.665 187.912L103.799 188.23C103.679 188.615 103.479 188.953 103.197 189.244C102.915 189.533 102.567 189.758 102.153 189.92C101.739 190.08 101.273 190.159 100.756 190.159ZM105.703 190V182.364H106.836V183.517H106.916C107.055 183.139 107.307 182.833 107.672 182.597C108.036 182.362 108.447 182.244 108.904 182.244C108.991 182.244 109.098 182.246 109.228 182.249C109.357 182.253 109.455 182.258 109.521 182.264V183.457C109.481 183.447 109.39 183.433 109.248 183.413C109.108 183.389 108.961 183.378 108.805 183.378C108.434 183.378 108.102 183.456 107.811 183.612C107.522 183.764 107.294 183.976 107.125 184.248C106.959 184.516 106.876 184.823 106.876 185.168V190H105.703ZM110.912 192.864V182.364H112.045V183.577H112.184C112.271 183.444 112.39 183.275 112.542 183.07C112.698 182.861 112.92 182.675 113.209 182.513C113.5 182.347 113.895 182.264 114.392 182.264C115.035 182.264 115.602 182.425 116.092 182.746C116.583 183.068 116.965 183.524 117.241 184.114C117.516 184.704 117.653 185.4 117.653 186.202C117.653 187.01 117.516 187.711 117.241 188.305C116.965 188.895 116.584 189.352 116.097 189.677C115.61 189.998 115.048 190.159 114.412 190.159C113.921 190.159 113.528 190.078 113.233 189.915C112.939 189.75 112.711 189.562 112.552 189.354C112.393 189.142 112.271 188.966 112.184 188.827H112.085V192.864H110.912ZM112.065 186.182C112.065 186.759 112.15 187.267 112.319 187.708C112.488 188.146 112.735 188.489 113.059 188.737C113.384 188.982 113.782 189.105 114.253 189.105C114.743 189.105 115.153 188.976 115.481 188.717C115.812 188.455 116.061 188.104 116.226 187.663C116.395 187.219 116.48 186.725 116.48 186.182C116.48 185.645 116.397 185.161 116.231 184.73C116.069 184.296 115.822 183.953 115.491 183.701C115.162 183.446 114.75 183.318 114.253 183.318C113.775 183.318 113.374 183.439 113.05 183.681C112.725 183.92 112.479 184.254 112.314 184.685C112.148 185.113 112.065 185.612 112.065 186.182ZM122.545 190.159C121.856 190.159 121.251 189.995 120.731 189.667C120.214 189.339 119.809 188.88 119.518 188.29C119.229 187.7 119.085 187.01 119.085 186.222C119.085 185.426 119.229 184.732 119.518 184.138C119.809 183.545 120.214 183.085 120.731 182.756C121.251 182.428 121.856 182.264 122.545 182.264C123.235 182.264 123.838 182.428 124.355 182.756C124.875 183.085 125.28 183.545 125.568 184.138C125.86 184.732 126.006 185.426 126.006 186.222C126.006 187.01 125.86 187.7 125.568 188.29C125.28 188.88 124.875 189.339 124.355 189.667C123.838 189.995 123.235 190.159 122.545 190.159ZM122.545 189.105C123.069 189.105 123.5 188.971 123.838 188.702C124.176 188.434 124.426 188.081 124.589 187.643C124.751 187.206 124.832 186.732 124.832 186.222C124.832 185.711 124.751 185.236 124.589 184.795C124.426 184.354 124.176 183.998 123.838 183.726C123.5 183.454 123.069 183.318 122.545 183.318C122.022 183.318 121.591 183.454 121.253 183.726C120.915 183.998 120.664 184.354 120.502 184.795C120.34 185.236 120.258 185.711 120.258 186.222C120.258 186.732 120.34 187.206 120.502 187.643C120.664 188.081 120.915 188.434 121.253 188.702C121.591 188.971 122.022 189.105 122.545 189.105ZM129.267 190L126.94 182.364H128.173L129.824 188.21H129.903L131.534 182.364H132.787L134.398 188.19H134.477L136.128 182.364H137.361L135.034 190H133.881L132.21 184.134H132.091L130.42 190H129.267ZM141.854 190.159C141.118 190.159 140.483 189.997 139.95 189.672C139.419 189.344 139.01 188.886 138.722 188.3C138.437 187.71 138.294 187.024 138.294 186.241C138.294 185.459 138.437 184.77 138.722 184.173C139.01 183.573 139.411 183.106 139.925 182.771C140.442 182.433 141.045 182.264 141.734 182.264C142.132 182.264 142.525 182.33 142.913 182.463C143.3 182.596 143.653 182.811 143.972 183.109C144.29 183.404 144.543 183.795 144.732 184.283C144.921 184.77 145.016 185.37 145.016 186.082V186.58H139.129V185.565H143.822C143.822 185.134 143.736 184.75 143.564 184.412C143.395 184.074 143.153 183.807 142.838 183.612C142.527 183.416 142.159 183.318 141.734 183.318C141.267 183.318 140.863 183.434 140.521 183.666C140.183 183.895 139.923 184.193 139.741 184.561C139.558 184.929 139.467 185.323 139.467 185.744V186.42C139.467 186.997 139.567 187.486 139.766 187.887C139.968 188.285 140.248 188.588 140.606 188.797C140.964 189.002 141.38 189.105 141.854 189.105C142.162 189.105 142.44 189.062 142.689 188.976C142.941 188.886 143.158 188.754 143.34 188.578C143.522 188.399 143.663 188.177 143.763 187.912L144.896 188.23C144.777 188.615 144.576 188.953 144.295 189.244C144.013 189.533 143.665 189.758 143.251 189.92C142.836 190.08 142.371 190.159 141.854 190.159ZM146.8 190V182.364H147.934V183.517H148.013C148.153 183.139 148.405 182.833 148.769 182.597C149.134 182.362 149.545 182.244 150.002 182.244C150.088 182.244 150.196 182.246 150.325 182.249C150.455 182.253 150.552 182.258 150.619 182.264V183.457C150.579 183.447 150.488 183.433 150.345 183.413C150.206 183.389 150.058 183.378 149.903 183.378C149.531 183.378 149.2 183.456 148.908 183.612C148.62 183.764 148.391 183.976 148.222 184.248C148.057 184.516 147.974 184.823 147.974 185.168V190H146.8ZM157.419 184.074L156.365 184.372C156.298 184.196 156.2 184.026 156.071 183.86C155.945 183.691 155.773 183.552 155.554 183.442C155.335 183.333 155.055 183.278 154.714 183.278C154.247 183.278 153.857 183.386 153.546 183.602C153.237 183.814 153.083 184.084 153.083 184.412C153.083 184.704 153.189 184.934 153.401 185.103C153.614 185.272 153.945 185.413 154.396 185.526L155.529 185.804C156.212 185.97 156.721 186.223 157.056 186.565C157.39 186.903 157.558 187.339 157.558 187.872C157.558 188.31 157.432 188.701 157.18 189.045C156.931 189.39 156.583 189.662 156.136 189.861C155.688 190.06 155.168 190.159 154.575 190.159C153.796 190.159 153.151 189.99 152.641 189.652C152.13 189.314 151.807 188.82 151.671 188.17L152.785 187.892C152.891 188.303 153.092 188.611 153.387 188.817C153.685 189.022 154.074 189.125 154.555 189.125C155.102 189.125 155.536 189.009 155.857 188.777C156.182 188.542 156.345 188.26 156.345 187.932C156.345 187.667 156.252 187.445 156.066 187.266C155.881 187.083 155.596 186.947 155.211 186.858L153.938 186.56C153.239 186.394 152.725 186.137 152.397 185.789C152.072 185.438 151.91 184.999 151.91 184.472C151.91 184.041 152.031 183.66 152.273 183.328C152.518 182.997 152.851 182.737 153.272 182.548C153.696 182.359 154.177 182.264 154.714 182.264C155.47 182.264 156.063 182.43 156.494 182.761C156.928 183.093 157.236 183.53 157.419 184.074ZM166.582 182.364V183.358H162.625V182.364H166.582ZM163.778 180.534H164.952V187.812C164.952 188.144 165 188.393 165.096 188.558C165.195 188.721 165.321 188.83 165.474 188.886C165.629 188.939 165.794 188.966 165.966 188.966C166.095 188.966 166.201 188.959 166.284 188.946C166.367 188.929 166.433 188.916 166.483 188.906L166.722 189.96C166.642 189.99 166.531 190.02 166.388 190.05C166.246 190.083 166.065 190.099 165.847 190.099C165.515 190.099 165.19 190.028 164.872 189.886C164.557 189.743 164.295 189.526 164.087 189.234C163.881 188.943 163.778 188.575 163.778 188.131V180.534ZM171.368 190.159C170.678 190.159 170.073 189.995 169.553 189.667C169.036 189.339 168.632 188.88 168.34 188.29C168.051 187.7 167.907 187.01 167.907 186.222C167.907 185.426 168.051 184.732 168.34 184.138C168.632 183.545 169.036 183.085 169.553 182.756C170.073 182.428 170.678 182.264 171.368 182.264C172.057 182.264 172.66 182.428 173.177 182.756C173.698 183.085 174.102 183.545 174.39 184.138C174.682 184.732 174.828 185.426 174.828 186.222C174.828 187.01 174.682 187.7 174.39 188.29C174.102 188.88 173.698 189.339 173.177 189.667C172.66 189.995 172.057 190.159 171.368 190.159ZM171.368 189.105C171.891 189.105 172.322 188.971 172.66 188.702C172.998 188.434 173.248 188.081 173.411 187.643C173.573 187.206 173.654 186.732 173.654 186.222C173.654 185.711 173.573 185.236 173.411 184.795C173.248 184.354 172.998 183.998 172.66 183.726C172.322 183.454 171.891 183.318 171.368 183.318C170.844 183.318 170.413 183.454 170.075 183.726C169.737 183.998 169.487 184.354 169.324 184.795C169.162 185.236 169.081 185.711 169.081 186.222C169.081 186.732 169.162 187.206 169.324 187.643C169.487 188.081 169.737 188.434 170.075 188.702C170.413 188.971 170.844 189.105 171.368 189.105ZM185.965 184.074L184.911 184.372C184.845 184.196 184.747 184.026 184.618 183.86C184.492 183.691 184.32 183.552 184.101 183.442C183.882 183.333 183.602 183.278 183.261 183.278C182.794 183.278 182.404 183.386 182.093 183.602C181.784 183.814 181.63 184.084 181.63 184.412C181.63 184.704 181.736 184.934 181.948 185.103C182.16 185.272 182.492 185.413 182.943 185.526L184.076 185.804C184.759 185.97 185.268 186.223 185.602 186.565C185.937 186.903 186.105 187.339 186.105 187.872C186.105 188.31 185.979 188.701 185.727 189.045C185.478 189.39 185.13 189.662 184.683 189.861C184.235 190.06 183.715 190.159 183.122 190.159C182.343 190.159 181.698 189.99 181.188 189.652C180.677 189.314 180.354 188.82 180.218 188.17L181.332 187.892C181.438 188.303 181.638 188.611 181.933 188.817C182.232 189.022 182.621 189.125 183.102 189.125C183.649 189.125 184.083 189.009 184.404 188.777C184.729 188.542 184.892 188.26 184.892 187.932C184.892 187.667 184.799 187.445 184.613 187.266C184.427 187.083 184.142 186.947 183.758 186.858L182.485 186.56C181.786 186.394 181.272 186.137 180.944 185.789C180.619 185.438 180.457 184.999 180.457 184.472C180.457 184.041 180.578 183.66 180.82 183.328C181.065 182.997 181.398 182.737 181.819 182.548C182.243 182.359 182.724 182.264 183.261 182.264C184.017 182.264 184.61 182.43 185.041 182.761C185.475 183.093 185.783 183.53 185.965 184.074ZM190.118 190.179C189.634 190.179 189.195 190.088 188.8 189.906C188.406 189.72 188.093 189.453 187.861 189.105C187.629 188.754 187.513 188.33 187.513 187.832C187.513 187.395 187.599 187.04 187.771 186.768C187.944 186.493 188.174 186.278 188.462 186.122C188.751 185.966 189.069 185.85 189.417 185.774C189.768 185.695 190.121 185.632 190.476 185.585C190.94 185.526 191.316 185.481 191.604 185.451C191.896 185.418 192.108 185.363 192.241 185.287C192.377 185.211 192.445 185.078 192.445 184.889V184.849C192.445 184.359 192.31 183.978 192.042 183.706C191.777 183.434 191.374 183.298 190.834 183.298C190.274 183.298 189.835 183.421 189.516 183.666C189.198 183.911 188.974 184.173 188.845 184.452L187.732 184.054C187.93 183.59 188.196 183.229 188.527 182.97C188.862 182.708 189.226 182.526 189.621 182.423C190.018 182.317 190.41 182.264 190.794 182.264C191.039 182.264 191.321 182.294 191.639 182.354C191.961 182.41 192.271 182.528 192.569 182.707C192.871 182.886 193.121 183.156 193.32 183.517C193.518 183.878 193.618 184.362 193.618 184.969V190H192.445V188.966H192.385C192.305 189.132 192.173 189.309 191.987 189.498C191.802 189.687 191.555 189.848 191.246 189.98C190.938 190.113 190.562 190.179 190.118 190.179ZM190.297 189.125C190.761 189.125 191.152 189.034 191.47 188.852C191.792 188.669 192.034 188.434 192.196 188.146C192.362 187.857 192.445 187.554 192.445 187.236V186.162C192.395 186.222 192.286 186.276 192.116 186.326C191.951 186.372 191.759 186.414 191.54 186.45C191.324 186.483 191.114 186.513 190.908 186.54C190.706 186.563 190.542 186.583 190.416 186.599C190.111 186.639 189.826 186.704 189.561 186.793C189.299 186.879 189.087 187.01 188.925 187.186C188.766 187.358 188.686 187.594 188.686 187.892C188.686 188.3 188.837 188.608 189.138 188.817C189.443 189.022 189.83 189.125 190.297 189.125ZM201.73 182.364L198.906 190H197.713L194.889 182.364H196.162L198.27 188.449H198.35L200.458 182.364H201.73ZM206.207 190.159C205.471 190.159 204.837 189.997 204.303 189.672C203.773 189.344 203.363 188.886 203.075 188.3C202.79 187.71 202.648 187.024 202.648 186.241C202.648 185.459 202.79 184.77 203.075 184.173C203.363 183.573 203.765 183.106 204.278 182.771C204.795 182.433 205.398 182.264 206.088 182.264C206.486 182.264 206.878 182.33 207.266 182.463C207.654 182.596 208.007 182.811 208.325 183.109C208.643 183.404 208.897 183.795 209.086 184.283C209.275 184.77 209.369 185.37 209.369 186.082V186.58H203.483V185.565H208.176C208.176 185.134 208.09 184.75 207.917 184.412C207.748 184.074 207.506 183.807 207.192 183.612C206.88 183.416 206.512 183.318 206.088 183.318C205.621 183.318 205.216 183.434 204.875 183.666C204.537 183.895 204.277 184.193 204.094 184.561C203.912 184.929 203.821 185.323 203.821 185.744V186.42C203.821 186.997 203.92 187.486 204.119 187.887C204.321 188.285 204.601 188.588 204.959 188.797C205.317 189.002 205.733 189.105 206.207 189.105C206.515 189.105 206.794 189.062 207.042 188.976C207.294 188.886 207.511 188.754 207.694 188.578C207.876 188.399 208.017 188.177 208.116 187.912L209.25 188.23C209.131 188.615 208.93 188.953 208.648 189.244C208.367 189.533 208.019 189.758 207.604 189.92C207.19 190.08 206.724 190.159 206.207 190.159ZM218.412 182.364V183.358H214.455V182.364H218.412ZM215.608 180.534H216.782V187.812C216.782 188.144 216.83 188.393 216.926 188.558C217.025 188.721 217.151 188.83 217.304 188.886C217.46 188.939 217.624 188.966 217.796 188.966C217.925 188.966 218.031 188.959 218.114 188.946C218.197 188.929 218.263 188.916 218.313 188.906L218.552 189.96C218.472 189.99 218.361 190.02 218.219 190.05C218.076 190.083 217.895 190.099 217.677 190.099C217.345 190.099 217.02 190.028 216.702 189.886C216.387 189.743 216.126 189.526 215.917 189.234C215.711 188.943 215.608 188.575 215.608 188.131V180.534ZM221.515 185.406V190H220.341V179.818H221.515V183.557H221.614C221.793 183.162 222.062 182.849 222.42 182.617C222.781 182.382 223.261 182.264 223.861 182.264C224.382 182.264 224.837 182.369 225.229 182.577C225.62 182.783 225.923 183.099 226.138 183.527C226.357 183.951 226.466 184.491 226.466 185.148V190H225.293V185.227C225.293 184.621 225.136 184.152 224.821 183.82C224.509 183.486 224.077 183.318 223.523 183.318C223.139 183.318 222.794 183.399 222.489 183.562C222.188 183.724 221.949 183.961 221.773 184.273C221.601 184.584 221.515 184.962 221.515 185.406ZM231.815 190.159C231.079 190.159 230.444 189.997 229.911 189.672C229.38 189.344 228.971 188.886 228.683 188.3C228.397 187.71 228.255 187.024 228.255 186.241C228.255 185.459 228.397 184.77 228.683 184.173C228.971 183.573 229.372 183.106 229.886 182.771C230.403 182.433 231.006 182.264 231.695 182.264C232.093 182.264 232.486 182.33 232.874 182.463C233.261 182.596 233.614 182.811 233.933 183.109C234.251 183.404 234.504 183.795 234.693 184.283C234.882 184.77 234.977 185.37 234.977 186.082V186.58H229.09V185.565H233.783C233.783 185.134 233.697 184.75 233.525 184.412C233.356 184.074 233.114 183.807 232.799 183.612C232.487 183.416 232.12 183.318 231.695 183.318C231.228 183.318 230.824 183.434 230.482 183.666C230.144 183.895 229.884 184.193 229.702 184.561C229.519 184.929 229.428 185.323 229.428 185.744V186.42C229.428 186.997 229.528 187.486 229.727 187.887C229.929 188.285 230.209 188.588 230.567 188.797C230.925 189.002 231.341 189.105 231.815 189.105C232.123 189.105 232.401 189.062 232.65 188.976C232.902 188.886 233.119 188.754 233.301 188.578C233.483 188.399 233.624 188.177 233.724 187.912L234.857 188.23C234.738 188.615 234.537 188.953 234.256 189.244C233.974 189.533 233.626 189.758 233.212 189.92C232.797 190.08 232.332 190.159 231.815 190.159ZM242.429 190L240.102 182.364H241.335L242.986 188.21H243.065L244.696 182.364H245.949L247.56 188.19H247.639L249.29 182.364H250.523L248.196 190H247.043L245.372 184.134H245.253L243.582 190H242.429ZM254.916 190.159C254.227 190.159 253.622 189.995 253.102 189.667C252.585 189.339 252.18 188.88 251.889 188.29C251.6 187.7 251.456 187.01 251.456 186.222C251.456 185.426 251.6 184.732 251.889 184.138C252.18 183.545 252.585 183.085 253.102 182.756C253.622 182.428 254.227 182.264 254.916 182.264C255.606 182.264 256.209 182.428 256.726 182.756C257.246 183.085 257.651 183.545 257.939 184.138C258.231 184.732 258.377 185.426 258.377 186.222C258.377 187.01 258.231 187.7 257.939 188.29C257.651 188.88 257.246 189.339 256.726 189.667C256.209 189.995 255.606 190.159 254.916 190.159ZM254.916 189.105C255.44 189.105 255.871 188.971 256.209 188.702C256.547 188.434 256.797 188.081 256.96 187.643C257.122 187.206 257.203 186.732 257.203 186.222C257.203 185.711 257.122 185.236 256.96 184.795C256.797 184.354 256.547 183.998 256.209 183.726C255.871 183.454 255.44 183.318 254.916 183.318C254.393 183.318 253.962 183.454 253.624 183.726C253.286 183.998 253.035 184.354 252.873 184.795C252.711 185.236 252.629 185.711 252.629 186.222C252.629 186.732 252.711 187.206 252.873 187.643C253.035 188.081 253.286 188.434 253.624 188.702C253.962 188.971 254.393 189.105 254.916 189.105ZM260.168 190V182.364H261.301V183.517H261.381C261.52 183.139 261.772 182.833 262.136 182.597C262.501 182.362 262.912 182.244 263.369 182.244C263.455 182.244 263.563 182.246 263.692 182.249C263.822 182.253 263.92 182.258 263.986 182.264V183.457C263.946 183.447 263.855 183.433 263.712 183.413C263.573 183.389 263.426 183.378 263.27 183.378C262.899 183.378 262.567 183.456 262.276 183.612C261.987 183.764 261.759 183.976 261.589 184.248C261.424 184.516 261.341 184.823 261.341 185.168V190H260.168ZM266.55 179.818V190H265.377V179.818H266.55ZM271.582 190.159C270.946 190.159 270.384 189.998 269.897 189.677C269.41 189.352 269.029 188.895 268.754 188.305C268.478 187.711 268.341 187.01 268.341 186.202C268.341 185.4 268.478 184.704 268.754 184.114C269.029 183.524 269.411 183.068 269.902 182.746C270.393 182.425 270.959 182.264 271.602 182.264C272.099 182.264 272.492 182.347 272.781 182.513C273.072 182.675 273.294 182.861 273.447 183.07C273.603 183.275 273.723 183.444 273.81 183.577H273.909V179.818H275.082V190H273.949V188.827H273.81C273.723 188.966 273.601 189.142 273.442 189.354C273.283 189.562 273.056 189.75 272.761 189.915C272.466 190.078 272.073 190.159 271.582 190.159ZM271.741 189.105C272.212 189.105 272.61 188.982 272.935 188.737C273.259 188.489 273.506 188.146 273.675 187.708C273.844 187.267 273.929 186.759 273.929 186.182C273.929 185.612 273.846 185.113 273.68 184.685C273.515 184.254 273.269 183.92 272.945 183.681C272.62 183.439 272.219 183.318 271.741 183.318C271.244 183.318 270.83 183.446 270.499 183.701C270.17 183.953 269.924 184.296 269.758 184.73C269.595 185.161 269.514 185.645 269.514 186.182C269.514 186.725 269.597 187.219 269.763 187.663C269.932 188.104 270.18 188.455 270.509 188.717C270.84 188.976 271.251 189.105 271.741 189.105ZM279.144 188.608L279.065 189.145C279.008 189.523 278.922 189.927 278.806 190.358C278.693 190.789 278.576 191.195 278.453 191.576C278.33 191.957 278.229 192.26 278.15 192.486H277.255C277.298 192.274 277.354 191.994 277.424 191.646C277.494 191.298 277.563 190.908 277.633 190.477C277.706 190.05 277.765 189.612 277.812 189.165L277.871 188.608H279.144ZM285.256 182.364H286.429V190.557C286.429 191.027 286.348 191.435 286.185 191.78C286.026 192.125 285.784 192.391 285.459 192.58C285.138 192.769 284.732 192.864 284.241 192.864C284.202 192.864 284.162 192.864 284.122 192.864C284.082 192.864 284.042 192.864 284.003 192.864V191.77C284.042 191.77 284.079 191.77 284.112 191.77C284.145 191.77 284.182 191.77 284.221 191.77C284.579 191.77 284.841 191.664 285.007 191.452C285.173 191.243 285.256 190.945 285.256 190.557V182.364ZM285.832 181.091C285.604 181.091 285.406 181.013 285.241 180.857C285.078 180.701 284.997 180.514 284.997 180.295C284.997 180.077 285.078 179.889 285.241 179.734C285.406 179.578 285.604 179.5 285.832 179.5C286.061 179.5 286.256 179.578 286.419 179.734C286.585 179.889 286.667 180.077 286.667 180.295C286.667 180.514 286.585 180.701 286.419 180.857C286.256 181.013 286.061 181.091 285.832 181.091ZM293.39 186.878V182.364H294.564V190H293.39V188.707H293.311C293.132 189.095 292.853 189.425 292.475 189.697C292.098 189.965 291.62 190.099 291.044 190.099C290.566 190.099 290.142 189.995 289.771 189.786C289.4 189.574 289.108 189.256 288.896 188.832C288.684 188.404 288.578 187.866 288.578 187.216V182.364H289.751V187.136C289.751 187.693 289.907 188.137 290.218 188.469C290.533 188.8 290.934 188.966 291.422 188.966C291.713 188.966 292.01 188.891 292.311 188.742C292.616 188.593 292.872 188.364 293.077 188.056C293.286 187.748 293.39 187.355 293.39 186.878ZM302.122 184.074L301.068 184.372C301.001 184.196 300.904 184.026 300.774 183.86C300.648 183.691 300.476 183.552 300.257 183.442C300.039 183.333 299.758 183.278 299.417 183.278C298.95 183.278 298.56 183.386 298.249 183.602C297.941 183.814 297.786 184.084 297.786 184.412C297.786 184.704 297.892 184.934 298.105 185.103C298.317 185.272 298.648 185.413 299.099 185.526L300.232 185.804C300.915 185.97 301.424 186.223 301.759 186.565C302.093 186.903 302.261 187.339 302.261 187.872C302.261 188.31 302.135 188.701 301.883 189.045C301.634 189.39 301.286 189.662 300.839 189.861C300.392 190.06 299.871 190.159 299.278 190.159C298.499 190.159 297.854 189.99 297.344 189.652C296.834 189.314 296.51 188.82 296.374 188.17L297.488 187.892C297.594 188.303 297.795 188.611 298.09 188.817C298.388 189.022 298.777 189.125 299.258 189.125C299.805 189.125 300.239 189.009 300.561 188.777C300.885 188.542 301.048 188.26 301.048 187.932C301.048 187.667 300.955 187.445 300.769 187.266C300.584 187.083 300.299 186.947 299.914 186.858L298.642 186.56C297.942 186.394 297.428 186.137 297.1 185.789C296.776 185.438 296.613 184.999 296.613 184.472C296.613 184.041 296.734 183.66 296.976 183.328C297.221 182.997 297.554 182.737 297.975 182.548C298.4 182.359 298.88 182.264 299.417 182.264C300.173 182.264 300.766 182.43 301.197 182.761C301.631 183.093 301.939 183.53 302.122 184.074ZM307.348 182.364V183.358H303.391V182.364H307.348ZM304.544 180.534H305.717V187.812C305.717 188.144 305.765 188.393 305.862 188.558C305.961 188.721 306.087 188.83 306.239 188.886C306.395 188.939 306.559 188.966 306.732 188.966C306.861 188.966 306.967 188.959 307.05 188.946C307.133 188.929 307.199 188.916 307.249 188.906L307.487 189.96C307.408 189.99 307.297 190.02 307.154 190.05C307.012 190.083 306.831 190.099 306.612 190.099C306.281 190.099 305.956 190.028 305.638 189.886C305.323 189.743 305.061 189.526 304.852 189.234C304.647 188.943 304.544 188.575 304.544 188.131V180.534ZM315.298 190.179C314.814 190.179 314.375 190.088 313.98 189.906C313.586 189.72 313.272 189.453 313.04 189.105C312.808 188.754 312.692 188.33 312.692 187.832C312.692 187.395 312.779 187.04 312.951 186.768C313.123 186.493 313.354 186.278 313.642 186.122C313.93 185.966 314.249 185.85 314.597 185.774C314.948 185.695 315.301 185.632 315.656 185.585C316.12 185.526 316.496 185.481 316.784 185.451C317.076 185.418 317.288 185.363 317.42 185.287C317.556 185.211 317.624 185.078 317.624 184.889V184.849C317.624 184.359 317.49 183.978 317.222 183.706C316.956 183.434 316.554 183.298 316.013 183.298C315.453 183.298 315.014 183.421 314.696 183.666C314.378 183.911 314.154 184.173 314.025 184.452L312.911 184.054C313.11 183.59 313.375 183.229 313.707 182.97C314.041 182.708 314.406 182.526 314.8 182.423C315.198 182.317 315.589 182.264 315.974 182.264C316.219 182.264 316.501 182.294 316.819 182.354C317.14 182.41 317.45 182.528 317.749 182.707C318.05 182.886 318.3 183.156 318.499 183.517C318.698 183.878 318.798 184.362 318.798 184.969V190H317.624V188.966H317.565C317.485 189.132 317.353 189.309 317.167 189.498C316.981 189.687 316.734 189.848 316.426 189.98C316.118 190.113 315.742 190.179 315.298 190.179ZM315.477 189.125C315.941 189.125 316.332 189.034 316.65 188.852C316.971 188.669 317.213 188.434 317.376 188.146C317.541 187.857 317.624 187.554 317.624 187.236V186.162C317.575 186.222 317.465 186.276 317.296 186.326C317.13 186.372 316.938 186.414 316.719 186.45C316.504 186.483 316.294 186.513 316.088 186.54C315.886 186.563 315.722 186.583 315.596 186.599C315.291 186.639 315.006 186.704 314.741 186.793C314.479 186.879 314.267 187.01 314.104 187.186C313.945 187.358 313.866 187.594 313.866 187.892C313.866 188.3 314.017 188.608 314.318 188.817C314.623 189.022 315.009 189.125 315.477 189.125ZM324.877 190V182.364H326.01V183.517H326.09C326.229 183.139 326.481 182.833 326.845 182.597C327.21 182.362 327.621 182.244 328.078 182.244C328.164 182.244 328.272 182.246 328.401 182.249C328.531 182.253 328.628 182.258 328.695 182.264V183.457C328.655 183.447 328.564 183.433 328.421 183.413C328.282 183.389 328.135 183.378 327.979 183.378C327.608 183.378 327.276 183.456 326.985 183.612C326.696 183.764 326.468 183.976 326.298 184.248C326.133 184.516 326.05 184.823 326.05 185.168V190H324.877ZM333.055 190.159C332.319 190.159 331.684 189.997 331.151 189.672C330.62 189.344 330.211 188.886 329.923 188.3C329.638 187.71 329.495 187.024 329.495 186.241C329.495 185.459 329.638 184.77 329.923 184.173C330.211 183.573 330.612 183.106 331.126 182.771C331.643 182.433 332.246 182.264 332.936 182.264C333.333 182.264 333.726 182.33 334.114 182.463C334.502 182.596 334.855 182.811 335.173 183.109C335.491 183.404 335.744 183.795 335.933 184.283C336.122 184.77 336.217 185.37 336.217 186.082V186.58H330.33V185.565H335.024C335.024 185.134 334.937 184.75 334.765 184.412C334.596 184.074 334.354 183.807 334.039 183.612C333.728 183.416 333.36 183.318 332.936 183.318C332.468 183.318 332.064 183.434 331.722 183.666C331.384 183.895 331.124 184.193 330.942 184.561C330.76 184.929 330.669 185.323 330.669 185.744V186.42C330.669 186.997 330.768 187.486 330.967 187.887C331.169 188.285 331.449 188.588 331.807 188.797C332.165 189.002 332.581 189.105 333.055 189.105C333.363 189.105 333.642 189.062 333.89 188.976C334.142 188.886 334.359 188.754 334.541 188.578C334.724 188.399 334.865 188.177 334.964 187.912L336.097 188.23C335.978 188.615 335.778 188.953 335.496 189.244C335.214 189.533 334.866 189.758 334.452 189.92C334.038 190.08 333.572 190.159 333.055 190.159ZM340.249 190.179C339.765 190.179 339.326 190.088 338.931 189.906C338.537 189.72 338.224 189.453 337.992 189.105C337.76 188.754 337.644 188.33 337.644 187.832C337.644 187.395 337.73 187.04 337.902 186.768C338.075 186.493 338.305 186.278 338.593 186.122C338.882 185.966 339.2 185.85 339.548 185.774C339.899 185.695 340.252 185.632 340.607 185.585C341.071 185.526 341.447 185.481 341.735 185.451C342.027 185.418 342.239 185.363 342.372 185.287C342.508 185.211 342.575 185.078 342.575 184.889V184.849C342.575 184.359 342.441 183.978 342.173 183.706C341.908 183.434 341.505 183.298 340.965 183.298C340.405 183.298 339.965 183.421 339.647 183.666C339.329 183.911 339.105 184.173 338.976 184.452L337.862 184.054C338.061 183.59 338.326 183.229 338.658 182.97C338.993 182.708 339.357 182.526 339.752 182.423C340.149 182.317 340.54 182.264 340.925 182.264C341.17 182.264 341.452 182.294 341.77 182.354C342.092 182.41 342.401 182.528 342.7 182.707C343.001 182.886 343.252 183.156 343.45 183.517C343.649 183.878 343.749 184.362 343.749 184.969V190H342.575V188.966H342.516C342.436 189.132 342.304 189.309 342.118 189.498C341.932 189.687 341.686 189.848 341.377 189.98C341.069 190.113 340.693 190.179 340.249 190.179ZM340.428 189.125C340.892 189.125 341.283 189.034 341.601 188.852C341.923 188.669 342.164 188.434 342.327 188.146C342.493 187.857 342.575 187.554 342.575 187.236V186.162C342.526 186.222 342.416 186.276 342.247 186.326C342.082 186.372 341.889 186.414 341.671 186.45C341.455 186.483 341.245 186.513 341.039 186.54C340.837 186.563 340.673 186.583 340.547 186.599C340.242 186.639 339.957 186.704 339.692 186.793C339.43 186.879 339.218 187.01 339.056 187.186C338.896 187.358 338.817 187.594 338.817 187.892C338.817 188.3 338.968 188.608 339.269 188.817C339.574 189.022 339.96 189.125 340.428 189.125ZM347.064 179.818V190H345.89V179.818H347.064ZM350.386 179.818V190H349.213V179.818H350.386ZM353.29 192.844C353.092 192.844 352.914 192.827 352.759 192.794C352.603 192.764 352.495 192.734 352.435 192.705L352.734 191.67C353.161 191.78 353.518 191.777 353.803 191.661C354.088 191.548 354.335 191.206 354.543 190.636L354.762 190.04L351.938 182.364H353.211L355.319 188.449H355.398L357.506 182.364L358.789 182.384L355.538 191.114C355.392 191.501 355.211 191.823 354.996 192.078C354.78 192.337 354.53 192.529 354.245 192.655C353.963 192.781 353.645 192.844 353.29 192.844ZM75.821 210.179C75.3371 210.179 74.898 210.088 74.5036 209.906C74.1091 209.72 73.7959 209.453 73.5639 209.105C73.3319 208.754 73.2159 208.33 73.2159 207.832C73.2159 207.395 73.3021 207.04 73.4744 206.768C73.6468 206.493 73.8771 206.278 74.1655 206.122C74.4538 205.966 74.772 205.85 75.12 205.774C75.4714 205.695 75.8243 205.632 76.179 205.585C76.643 205.526 77.0192 205.481 77.3075 205.451C77.5992 205.418 77.8113 205.363 77.9439 205.287C78.0798 205.211 78.1477 205.078 78.1477 204.889V204.849C78.1477 204.359 78.0135 203.978 77.745 203.706C77.4799 203.434 77.0772 203.298 76.5369 203.298C75.9768 203.298 75.5376 203.421 75.2195 203.666C74.9013 203.911 74.6776 204.173 74.5483 204.452L73.4347 204.054C73.6335 203.59 73.8987 203.229 74.2301 202.97C74.5649 202.708 74.9295 202.526 75.3239 202.423C75.7216 202.317 76.1127 202.264 76.4972 202.264C76.7424 202.264 77.0241 202.294 77.3423 202.354C77.6638 202.41 77.9737 202.528 78.272 202.707C78.5736 202.886 78.8239 203.156 79.0227 203.517C79.2216 203.878 79.321 204.362 79.321 204.969V210H78.1477V208.966H78.0881C78.0085 209.132 77.8759 209.309 77.6903 209.498C77.5047 209.687 77.2578 209.848 76.9496 209.98C76.6413 210.113 76.2652 210.179 75.821 210.179ZM76 209.125C76.464 209.125 76.8551 209.034 77.1733 208.852C77.4948 208.669 77.7367 208.434 77.8991 208.146C78.0649 207.857 78.1477 207.554 78.1477 207.236V206.162C78.098 206.222 77.9886 206.276 77.8196 206.326C77.6539 206.372 77.4616 206.414 77.2429 206.45C77.0275 206.483 76.817 206.513 76.6115 206.54C76.4093 206.563 76.2453 206.583 76.1193 206.599C75.8144 206.639 75.5294 206.704 75.2642 206.793C75.0024 206.879 74.7902 207.01 74.6278 207.186C74.4688 207.358 74.3892 207.594 74.3892 207.892C74.3892 208.3 74.54 208.608 74.8416 208.817C75.1465 209.022 75.5327 209.125 76 209.125ZM83.1926 210L80.8659 202.364H82.0989L83.7495 208.21H83.829L85.4597 202.364H86.7125L88.3233 208.19H88.4029L90.0534 202.364H91.2864L88.9597 210H87.8063L86.1358 204.134H86.0165L84.3461 210H83.1926ZM95.7795 210.159C95.0437 210.159 94.409 209.997 93.8754 209.672C93.3451 209.344 92.9357 208.886 92.6474 208.3C92.3623 207.71 92.2198 207.024 92.2198 206.241C92.2198 205.459 92.3623 204.77 92.6474 204.173C92.9357 203.573 93.3368 203.106 93.8505 202.771C94.3675 202.433 94.9708 202.264 95.6602 202.264C96.0579 202.264 96.4506 202.33 96.8384 202.463C97.2262 202.596 97.5792 202.811 97.8974 203.109C98.2156 203.404 98.4691 203.795 98.658 204.283C98.8469 204.77 98.9414 205.37 98.9414 206.082V206.58H93.055V205.565H97.7482C97.7482 205.134 97.6621 204.75 97.4897 204.412C97.3207 204.074 97.0787 203.807 96.7638 203.612C96.4523 203.416 96.0844 203.318 95.6602 203.318C95.1928 203.318 94.7885 203.434 94.4471 203.666C94.109 203.895 93.8488 204.193 93.6665 204.561C93.4843 204.929 93.3931 205.323 93.3931 205.744V206.42C93.3931 206.997 93.4925 207.486 93.6914 207.887C93.8936 208.285 94.1737 208.588 94.5316 208.797C94.8896 209.002 95.3055 209.105 95.7795 209.105C96.0877 209.105 96.3661 209.062 96.6147 208.976C96.8666 208.886 97.0837 208.754 97.266 208.578C97.4483 208.399 97.5891 208.177 97.6886 207.912L98.8221 208.23C98.7028 208.615 98.5022 208.953 98.2205 209.244C97.9388 209.533 97.5908 209.758 97.1765 209.92C96.7622 210.08 96.2965 210.159 95.7795 210.159ZM106.135 204.074L105.081 204.372C105.015 204.196 104.917 204.026 104.788 203.86C104.662 203.691 104.49 203.552 104.271 203.442C104.052 203.333 103.772 203.278 103.431 203.278C102.963 203.278 102.574 203.386 102.262 203.602C101.954 203.814 101.8 204.084 101.8 204.412C101.8 204.704 101.906 204.934 102.118 205.103C102.33 205.272 102.662 205.413 103.113 205.526L104.246 205.804C104.929 205.97 105.438 206.223 105.772 206.565C106.107 206.903 106.275 207.339 106.275 207.872C106.275 208.31 106.149 208.701 105.897 209.045C105.648 209.39 105.3 209.662 104.853 209.861C104.405 210.06 103.885 210.159 103.292 210.159C102.513 210.159 101.868 209.99 101.358 209.652C100.847 209.314 100.524 208.82 100.388 208.17L101.502 207.892C101.608 208.303 101.808 208.611 102.103 208.817C102.402 209.022 102.791 209.125 103.272 209.125C103.819 209.125 104.253 209.009 104.574 208.777C104.899 208.542 105.061 208.26 105.061 207.932C105.061 207.667 104.969 207.445 104.783 207.266C104.597 207.083 104.312 206.947 103.928 206.858L102.655 206.56C101.956 206.394 101.442 206.137 101.114 205.789C100.789 205.438 100.627 204.999 100.627 204.472C100.627 204.041 100.748 203.66 100.99 203.328C101.235 202.997 101.568 202.737 101.989 202.548C102.413 202.359 102.894 202.264 103.431 202.264C104.186 202.264 104.78 202.43 105.211 202.761C105.645 203.093 105.953 203.53 106.135 204.074ZM111.143 210.159C110.454 210.159 109.849 209.995 109.328 209.667C108.811 209.339 108.407 208.88 108.115 208.29C107.827 207.7 107.683 207.01 107.683 206.222C107.683 205.426 107.827 204.732 108.115 204.138C108.407 203.545 108.811 203.085 109.328 202.756C109.849 202.428 110.454 202.264 111.143 202.264C111.832 202.264 112.436 202.428 112.953 202.756C113.473 203.085 113.877 203.545 114.166 204.138C114.457 204.732 114.603 205.426 114.603 206.222C114.603 207.01 114.457 207.7 114.166 208.29C113.877 208.88 113.473 209.339 112.953 209.667C112.436 209.995 111.832 210.159 111.143 210.159ZM111.143 209.105C111.667 209.105 112.097 208.971 112.436 208.702C112.774 208.434 113.024 208.081 113.186 207.643C113.349 207.206 113.43 206.732 113.43 206.222C113.43 205.711 113.349 205.236 113.186 204.795C113.024 204.354 112.774 203.998 112.436 203.726C112.097 203.454 111.667 203.318 111.143 203.318C110.619 203.318 110.188 203.454 109.85 203.726C109.512 203.998 109.262 204.354 109.1 204.795C108.937 205.236 108.856 205.711 108.856 206.222C108.856 206.732 108.937 207.206 109.1 207.643C109.262 208.081 109.512 208.434 109.85 208.702C110.188 208.971 110.619 209.105 111.143 209.105ZM116.394 210V202.364H117.528V203.557H117.627C117.786 203.149 118.043 202.833 118.398 202.607C118.752 202.379 119.178 202.264 119.675 202.264C120.179 202.264 120.598 202.379 120.933 202.607C121.271 202.833 121.535 203.149 121.724 203.557H121.803C121.999 203.162 122.292 202.849 122.683 202.617C123.074 202.382 123.543 202.264 124.09 202.264C124.773 202.264 125.331 202.478 125.766 202.906C126.2 203.33 126.417 203.991 126.417 204.889V210H125.244V204.889C125.244 204.326 125.089 203.923 124.781 203.681C124.473 203.439 124.11 203.318 123.692 203.318C123.156 203.318 122.74 203.481 122.445 203.805C122.15 204.127 122.002 204.535 122.002 205.028V210H120.809V204.77C120.809 204.336 120.668 203.986 120.386 203.721C120.105 203.452 119.742 203.318 119.298 203.318C118.993 203.318 118.708 203.399 118.442 203.562C118.181 203.724 117.969 203.95 117.806 204.238C117.647 204.523 117.567 204.853 117.567 205.227V210H116.394ZM131.764 210.159C131.028 210.159 130.393 209.997 129.86 209.672C129.329 209.344 128.92 208.886 128.632 208.3C128.347 207.71 128.204 207.024 128.204 206.241C128.204 205.459 128.347 204.77 128.632 204.173C128.92 203.573 129.321 203.106 129.835 202.771C130.352 202.433 130.955 202.264 131.645 202.264C132.042 202.264 132.435 202.33 132.823 202.463C133.211 202.596 133.564 202.811 133.882 203.109C134.2 203.404 134.453 203.795 134.642 204.283C134.831 204.77 134.926 205.37 134.926 206.082V206.58H129.039V205.565H133.733C133.733 205.134 133.646 204.75 133.474 204.412C133.305 204.074 133.063 203.807 132.748 203.612C132.437 203.416 132.069 203.318 131.645 203.318C131.177 203.318 130.773 203.434 130.431 203.666C130.093 203.895 129.833 204.193 129.651 204.561C129.469 204.929 129.377 205.323 129.377 205.744V206.42C129.377 206.997 129.477 207.486 129.676 207.887C129.878 208.285 130.158 208.588 130.516 208.797C130.874 209.002 131.29 209.105 131.764 209.105C132.072 209.105 132.35 209.062 132.599 208.976C132.851 208.886 133.068 208.754 133.25 208.578C133.433 208.399 133.574 208.177 133.673 207.912L134.806 208.23C134.687 208.615 134.487 208.953 134.205 209.244C133.923 209.533 133.575 209.758 133.161 209.92C132.747 210.08 132.281 210.159 131.764 210.159ZM146.057 204.074L145.003 204.372C144.937 204.196 144.839 204.026 144.71 203.86C144.584 203.691 144.412 203.552 144.193 203.442C143.974 203.333 143.694 203.278 143.353 203.278C142.885 203.278 142.496 203.386 142.184 203.602C141.876 203.814 141.722 204.084 141.722 204.412C141.722 204.704 141.828 204.934 142.04 205.103C142.252 205.272 142.584 205.413 143.034 205.526L144.168 205.804C144.851 205.97 145.359 206.223 145.694 206.565C146.029 206.903 146.196 207.339 146.196 207.872C146.196 208.31 146.07 208.701 145.819 209.045C145.57 209.39 145.222 209.662 144.775 209.861C144.327 210.06 143.807 210.159 143.213 210.159C142.435 210.159 141.79 209.99 141.279 209.652C140.769 209.314 140.446 208.82 140.31 208.17L141.424 207.892C141.53 208.303 141.73 208.611 142.025 208.817C142.324 209.022 142.713 209.125 143.194 209.125C143.74 209.125 144.175 209.009 144.496 208.777C144.821 208.542 144.983 208.26 144.983 207.932C144.983 207.667 144.891 207.445 144.705 207.266C144.519 207.083 144.234 206.947 143.85 206.858L142.577 206.56C141.878 206.394 141.364 206.137 141.036 205.789C140.711 205.438 140.549 204.999 140.549 204.472C140.549 204.041 140.67 203.66 140.912 203.328C141.157 202.997 141.49 202.737 141.911 202.548C142.335 202.359 142.816 202.264 143.353 202.264C144.108 202.264 144.702 202.43 145.132 202.761C145.567 203.093 145.875 203.53 146.057 204.074ZM152.775 206.878V202.364H153.948V210H152.775V208.707H152.695C152.517 209.095 152.238 209.425 151.86 209.697C151.482 209.965 151.005 210.099 150.428 210.099C149.951 210.099 149.527 209.995 149.156 209.786C148.785 209.574 148.493 209.256 148.281 208.832C148.069 208.404 147.963 207.866 147.963 207.216V202.364H149.136V207.136C149.136 207.693 149.292 208.137 149.603 208.469C149.918 208.8 150.319 208.966 150.806 208.966C151.098 208.966 151.395 208.891 151.696 208.742C152.001 208.593 152.256 208.364 152.462 208.056C152.671 207.748 152.775 207.355 152.775 206.878ZM156.097 210V202.364H157.271V210H156.097ZM156.694 201.091C156.465 201.091 156.268 201.013 156.102 200.857C155.94 200.701 155.859 200.514 155.859 200.295C155.859 200.077 155.94 199.889 156.102 199.734C156.268 199.578 156.465 199.5 156.694 199.5C156.923 199.5 157.118 199.578 157.281 199.734C157.446 199.889 157.529 200.077 157.529 200.295C157.529 200.514 157.446 200.701 157.281 200.857C157.118 201.013 156.923 201.091 156.694 201.091ZM162.741 202.364V203.358H158.783V202.364H162.741ZM159.937 200.534H161.11V207.812C161.11 208.144 161.158 208.393 161.254 208.558C161.354 208.721 161.479 208.83 161.632 208.886C161.788 208.939 161.952 208.966 162.124 208.966C162.253 208.966 162.359 208.959 162.442 208.946C162.525 208.929 162.591 208.916 162.641 208.906L162.88 209.96C162.8 209.99 162.689 210.02 162.547 210.05C162.404 210.083 162.224 210.099 162.005 210.099C161.673 210.099 161.349 210.028 161.03 209.886C160.715 209.743 160.454 209.526 160.245 209.234C160.039 208.943 159.937 208.575 159.937 208.131V200.534ZM170.69 210.179C170.206 210.179 169.767 210.088 169.373 209.906C168.978 209.72 168.665 209.453 168.433 209.105C168.201 208.754 168.085 208.33 168.085 207.832C168.085 207.395 168.171 207.04 168.344 206.768C168.516 206.493 168.746 206.278 169.035 206.122C169.323 205.966 169.641 205.85 169.989 205.774C170.34 205.695 170.693 205.632 171.048 205.585C171.512 205.526 171.888 205.481 172.177 205.451C172.468 205.418 172.68 205.363 172.813 205.287C172.949 205.211 173.017 205.078 173.017 204.889V204.849C173.017 204.359 172.883 203.978 172.614 203.706C172.349 203.434 171.946 203.298 171.406 203.298C170.846 203.298 170.407 203.421 170.089 203.666C169.77 203.911 169.547 204.173 169.417 204.452L168.304 204.054C168.503 203.59 168.768 203.229 169.099 202.97C169.434 202.708 169.799 202.526 170.193 202.423C170.591 202.317 170.982 202.264 171.366 202.264C171.612 202.264 171.893 202.294 172.211 202.354C172.533 202.41 172.843 202.528 173.141 202.707C173.443 202.886 173.693 203.156 173.892 203.517C174.091 203.878 174.19 204.362 174.19 204.969V210H173.017V208.966H172.957C172.878 209.132 172.745 209.309 172.559 209.498C172.374 209.687 172.127 209.848 171.819 209.98C171.51 210.113 171.134 210.179 170.69 210.179ZM170.869 209.125C171.333 209.125 171.724 209.034 172.042 208.852C172.364 208.669 172.606 208.434 172.768 208.146C172.934 207.857 173.017 207.554 173.017 207.236V206.162C172.967 206.222 172.858 206.276 172.689 206.326C172.523 206.372 172.331 206.414 172.112 206.45C171.897 206.483 171.686 206.513 171.481 206.54C171.278 206.563 171.114 206.583 170.988 206.599C170.684 206.639 170.398 206.704 170.133 206.793C169.872 206.879 169.659 207.01 169.497 207.186C169.338 207.358 169.258 207.594 169.258 207.892C169.258 208.3 169.409 208.608 169.711 208.817C170.016 209.022 170.402 209.125 170.869 209.125ZM177.505 205.406V210H176.332V202.364H177.465V203.557H177.565C177.744 203.169 178.015 202.857 178.38 202.622C178.745 202.384 179.215 202.264 179.792 202.264C180.309 202.264 180.761 202.37 181.149 202.582C181.537 202.791 181.839 203.109 182.054 203.537C182.269 203.961 182.377 204.498 182.377 205.148V210H181.204V205.227C181.204 204.627 181.048 204.16 180.737 203.825C180.425 203.487 179.997 203.318 179.454 203.318C179.079 203.318 178.745 203.399 178.45 203.562C178.158 203.724 177.928 203.961 177.759 204.273C177.589 204.584 177.505 204.962 177.505 205.406ZM187.405 210.159C186.768 210.159 186.206 209.998 185.719 209.677C185.232 209.352 184.851 208.895 184.576 208.305C184.301 207.711 184.163 207.01 184.163 206.202C184.163 205.4 184.301 204.704 184.576 204.114C184.851 203.524 185.234 203.068 185.724 202.746C186.215 202.425 186.782 202.264 187.425 202.264C187.922 202.264 188.314 202.347 188.603 202.513C188.894 202.675 189.117 202.861 189.269 203.07C189.425 203.275 189.546 203.444 189.632 203.577H189.731V199.818H190.905V210H189.771V208.827H189.632C189.546 208.966 189.423 209.142 189.264 209.354C189.105 209.562 188.878 209.75 188.583 209.915C188.288 210.078 187.895 210.159 187.405 210.159ZM187.564 209.105C188.034 209.105 188.432 208.982 188.757 208.737C189.082 208.489 189.329 208.146 189.498 207.708C189.667 207.267 189.751 206.759 189.751 206.182C189.751 205.612 189.668 205.113 189.503 204.685C189.337 204.254 189.092 203.92 188.767 203.681C188.442 203.439 188.041 203.318 187.564 203.318C187.067 203.318 186.652 203.446 186.321 203.701C185.993 203.953 185.746 204.296 185.58 204.73C185.418 205.161 185.336 205.645 185.336 206.182C185.336 206.725 185.419 207.219 185.585 207.663C185.754 208.104 186.003 208.455 186.331 208.717C186.662 208.976 187.073 209.105 187.564 209.105ZM199.401 210.179C198.917 210.179 198.478 210.088 198.084 209.906C197.689 209.72 197.376 209.453 197.144 209.105C196.912 208.754 196.796 208.33 196.796 207.832C196.796 207.395 196.882 207.04 197.055 206.768C197.227 206.493 197.457 206.278 197.746 206.122C198.034 205.966 198.352 205.85 198.7 205.774C199.051 205.695 199.404 205.632 199.759 205.585C200.223 205.526 200.599 205.481 200.888 205.451C201.179 205.418 201.391 205.363 201.524 205.287C201.66 205.211 201.728 205.078 201.728 204.889V204.849C201.728 204.359 201.594 203.978 201.325 203.706C201.06 203.434 200.657 203.298 200.117 203.298C199.557 203.298 199.118 203.421 198.8 203.666C198.481 203.911 198.258 204.173 198.128 204.452L197.015 204.054C197.214 203.59 197.479 203.229 197.81 202.97C198.145 202.708 198.51 202.526 198.904 202.423C199.302 202.317 199.693 202.264 200.077 202.264C200.323 202.264 200.604 202.294 200.922 202.354C201.244 202.41 201.554 202.528 201.852 202.707C202.154 202.886 202.404 203.156 202.603 203.517C202.802 203.878 202.901 204.362 202.901 204.969V210H201.728V208.966H201.668C201.589 209.132 201.456 209.309 201.27 209.498C201.085 209.687 200.838 209.848 200.53 209.98C200.221 210.113 199.845 210.179 199.401 210.179ZM199.58 209.125C200.044 209.125 200.435 209.034 200.753 208.852C201.075 208.669 201.317 208.434 201.479 208.146C201.645 207.857 201.728 207.554 201.728 207.236V206.162C201.678 206.222 201.569 206.276 201.4 206.326C201.234 206.372 201.042 206.414 200.823 206.45C200.608 206.483 200.397 206.513 200.192 206.54C199.989 206.563 199.825 206.583 199.699 206.599C199.394 206.639 199.109 206.704 198.844 206.793C198.582 206.879 198.37 207.01 198.208 207.186C198.049 207.358 197.969 207.594 197.969 207.892C197.969 208.3 198.12 208.608 198.422 208.817C198.727 209.022 199.113 209.125 199.58 209.125ZM210.71 210L208.384 202.364H209.616L211.267 208.21H211.347L212.977 202.364H214.23L215.841 208.19H215.92L217.571 202.364H218.804L216.477 210H215.324L213.653 204.134H213.534L211.864 210H210.71ZM221.528 205.406V210H220.355V199.818H221.528V203.557H221.628C221.807 203.162 222.075 202.849 222.433 202.617C222.795 202.382 223.275 202.264 223.875 202.264C224.395 202.264 224.851 202.369 225.242 202.577C225.633 202.783 225.937 203.099 226.152 203.527C226.371 203.951 226.48 204.491 226.48 205.148V210H225.307V205.227C225.307 204.621 225.149 204.152 224.835 203.82C224.523 203.486 224.09 203.318 223.537 203.318C223.152 203.318 222.808 203.399 222.503 203.562C222.201 203.724 221.963 203.961 221.787 204.273C221.615 204.584 221.528 204.962 221.528 205.406ZM231.729 210.159C231.039 210.159 230.435 209.995 229.914 209.667C229.397 209.339 228.993 208.88 228.701 208.29C228.413 207.7 228.269 207.01 228.269 206.222C228.269 205.426 228.413 204.732 228.701 204.138C228.993 203.545 229.397 203.085 229.914 202.756C230.435 202.428 231.039 202.264 231.729 202.264C232.418 202.264 233.021 202.428 233.539 202.756C234.059 203.085 234.463 203.545 234.752 204.138C235.043 204.732 235.189 205.426 235.189 206.222C235.189 207.01 235.043 207.7 234.752 208.29C234.463 208.88 234.059 209.339 233.539 209.667C233.021 209.995 232.418 210.159 231.729 210.159ZM231.729 209.105C232.253 209.105 232.683 208.971 233.021 208.702C233.36 208.434 233.61 208.081 233.772 207.643C233.935 207.206 234.016 206.732 234.016 206.222C234.016 205.711 233.935 205.236 233.772 204.795C233.61 204.354 233.36 203.998 233.021 203.726C232.683 203.454 232.253 203.318 231.729 203.318C231.205 203.318 230.774 203.454 230.436 203.726C230.098 203.998 229.848 204.354 229.686 204.795C229.523 205.236 229.442 205.711 229.442 206.222C229.442 206.732 229.523 207.206 229.686 207.643C229.848 208.081 230.098 208.434 230.436 208.702C230.774 208.971 231.205 209.105 231.729 209.105ZM238.153 199.818V210H236.98V199.818H238.153ZM243.504 210.159C242.768 210.159 242.134 209.997 241.6 209.672C241.07 209.344 240.66 208.886 240.372 208.3C240.087 207.71 239.944 207.024 239.944 206.241C239.944 205.459 240.087 204.77 240.372 204.173C240.66 203.573 241.061 203.106 241.575 202.771C242.092 202.433 242.695 202.264 243.385 202.264C243.782 202.264 244.175 202.33 244.563 202.463C244.951 202.596 245.304 202.811 245.622 203.109C245.94 203.404 246.194 203.795 246.383 204.283C246.572 204.77 246.666 205.37 246.666 206.082V206.58H240.78V205.565H245.473C245.473 205.134 245.387 204.75 245.214 204.412C245.045 204.074 244.803 203.807 244.488 203.612C244.177 203.416 243.809 203.318 243.385 203.318C242.917 203.318 242.513 203.434 242.172 203.666C241.834 203.895 241.573 204.193 241.391 204.561C241.209 204.929 241.118 205.323 241.118 205.744V206.42C241.118 206.997 241.217 207.486 241.416 207.887C241.618 208.285 241.898 208.588 242.256 208.797C242.614 209.002 243.03 209.105 243.504 209.105C243.812 209.105 244.091 209.062 244.339 208.976C244.591 208.886 244.808 208.754 244.991 208.578C245.173 208.399 245.314 208.177 245.413 207.912L246.547 208.23C246.427 208.615 246.227 208.953 245.945 209.244C245.663 209.533 245.315 209.758 244.901 209.92C244.487 210.08 244.021 210.159 243.504 210.159ZM253.562 199.818V210H252.388V199.818H253.562ZM258.813 210.159C258.123 210.159 257.519 209.995 256.998 209.667C256.481 209.339 256.077 208.88 255.785 208.29C255.497 207.7 255.353 207.01 255.353 206.222C255.353 205.426 255.497 204.732 255.785 204.138C256.077 203.545 256.481 203.085 256.998 202.756C257.519 202.428 258.123 202.264 258.813 202.264C259.502 202.264 260.105 202.428 260.623 202.756C261.143 203.085 261.547 203.545 261.836 204.138C262.127 204.732 262.273 205.426 262.273 206.222C262.273 207.01 262.127 207.7 261.836 208.29C261.547 208.88 261.143 209.339 260.623 209.667C260.105 209.995 259.502 210.159 258.813 210.159ZM258.813 209.105C259.337 209.105 259.767 208.971 260.105 208.702C260.444 208.434 260.694 208.081 260.856 207.643C261.019 207.206 261.1 206.732 261.1 206.222C261.1 205.711 261.019 205.236 260.856 204.795C260.694 204.354 260.444 203.998 260.105 203.726C259.767 203.454 259.337 203.318 258.813 203.318C258.289 203.318 257.858 203.454 257.52 203.726C257.182 203.998 256.932 204.354 256.77 204.795C256.607 205.236 256.526 205.711 256.526 206.222C256.526 206.732 256.607 207.206 256.77 207.643C256.932 208.081 257.182 208.434 257.52 208.702C257.858 208.971 258.289 209.105 258.813 209.105ZM267.385 202.364V203.358H263.428V202.364H267.385ZM264.581 200.534H265.754V207.812C265.754 208.144 265.802 208.393 265.899 208.558C265.998 208.721 266.124 208.83 266.276 208.886C266.432 208.939 266.596 208.966 266.769 208.966C266.898 208.966 267.004 208.959 267.087 208.946C267.17 208.929 267.236 208.916 267.286 208.906L267.524 209.96C267.445 209.99 267.334 210.02 267.191 210.05C267.049 210.083 266.868 210.099 266.649 210.099C266.318 210.099 265.993 210.028 265.675 209.886C265.36 209.743 265.098 209.526 264.889 209.234C264.684 208.943 264.581 208.575 264.581 208.131V200.534ZM276.19 210.159C275.5 210.159 274.896 209.995 274.375 209.667C273.858 209.339 273.454 208.88 273.162 208.29C272.874 207.7 272.73 207.01 272.73 206.222C272.73 205.426 272.874 204.732 273.162 204.138C273.454 203.545 273.858 203.085 274.375 202.756C274.896 202.428 275.5 202.264 276.19 202.264C276.879 202.264 277.482 202.428 277.999 202.756C278.52 203.085 278.924 203.545 279.213 204.138C279.504 204.732 279.65 205.426 279.65 206.222C279.65 207.01 279.504 207.7 279.213 208.29C278.924 208.88 278.52 209.339 277.999 209.667C277.482 209.995 276.879 210.159 276.19 210.159ZM276.19 209.105C276.713 209.105 277.144 208.971 277.482 208.702C277.82 208.434 278.071 208.081 278.233 207.643C278.396 207.206 278.477 206.732 278.477 206.222C278.477 205.711 278.396 205.236 278.233 204.795C278.071 204.354 277.82 203.998 277.482 203.726C277.144 203.454 276.713 203.318 276.19 203.318C275.666 203.318 275.235 203.454 274.897 203.726C274.559 203.998 274.309 204.354 274.146 204.795C273.984 205.236 273.903 205.711 273.903 206.222C273.903 206.732 273.984 207.206 274.146 207.643C274.309 208.081 274.559 208.434 274.897 208.702C275.235 208.971 275.666 209.105 276.19 209.105ZM284.842 202.364V203.358H280.725V202.364H284.842ZM281.958 210V201.31C281.958 200.872 282.061 200.508 282.266 200.216C282.472 199.924 282.739 199.705 283.067 199.56C283.395 199.414 283.741 199.341 284.106 199.341C284.394 199.341 284.629 199.364 284.812 199.411C284.994 199.457 285.13 199.5 285.219 199.54L284.881 200.554C284.822 200.534 284.739 200.509 284.633 200.479C284.53 200.45 284.394 200.435 284.225 200.435C283.837 200.435 283.557 200.532 283.385 200.728C283.216 200.924 283.131 201.21 283.131 201.588V210H281.958ZM295.833 204.074L294.779 204.372C294.712 204.196 294.615 204.026 294.485 203.86C294.359 203.691 294.187 203.552 293.968 203.442C293.749 203.333 293.469 203.278 293.128 203.278C292.661 203.278 292.271 203.386 291.96 203.602C291.651 203.814 291.497 204.084 291.497 204.412C291.497 204.704 291.603 204.934 291.816 205.103C292.028 205.272 292.359 205.413 292.81 205.526L293.943 205.804C294.626 205.97 295.135 206.223 295.47 206.565C295.804 206.903 295.972 207.339 295.972 207.872C295.972 208.31 295.846 208.701 295.594 209.045C295.345 209.39 294.997 209.662 294.55 209.861C294.102 210.06 293.582 210.159 292.989 210.159C292.21 210.159 291.565 209.99 291.055 209.652C290.544 209.314 290.221 208.82 290.085 208.17L291.199 207.892C291.305 208.303 291.506 208.611 291.801 208.817C292.099 209.022 292.488 209.125 292.969 209.125C293.516 209.125 293.95 209.009 294.271 208.777C294.596 208.542 294.759 208.26 294.759 207.932C294.759 207.667 294.666 207.445 294.48 207.266C294.295 207.083 294.01 206.947 293.625 206.858L292.352 206.56C291.653 206.394 291.139 206.137 290.811 205.789C290.486 205.438 290.324 204.999 290.324 204.472C290.324 204.041 290.445 203.66 290.687 203.328C290.932 202.997 291.265 202.737 291.686 202.548C292.11 202.359 292.591 202.264 293.128 202.264C293.884 202.264 294.477 202.43 294.908 202.761C295.342 203.093 295.65 203.53 295.833 204.074ZM298.911 205.406V210H297.738V202.364H298.871V203.557H298.971C299.15 203.169 299.422 202.857 299.786 202.622C300.151 202.384 300.621 202.264 301.198 202.264C301.715 202.264 302.168 202.37 302.555 202.582C302.943 202.791 303.245 203.109 303.46 203.537C303.676 203.961 303.783 204.498 303.783 205.148V210H302.61V205.227C302.61 204.627 302.454 204.16 302.143 203.825C301.831 203.487 301.404 203.318 300.86 203.318C300.486 203.318 300.151 203.399 299.856 203.562C299.564 203.724 299.334 203.961 299.165 204.273C298.996 204.584 298.911 204.962 298.911 205.406ZM308.175 210.179C307.691 210.179 307.251 210.088 306.857 209.906C306.463 209.72 306.149 209.453 305.917 209.105C305.685 208.754 305.569 208.33 305.569 207.832C305.569 207.395 305.656 207.04 305.828 206.768C306 206.493 306.231 206.278 306.519 206.122C306.807 205.966 307.126 205.85 307.474 205.774C307.825 205.695 308.178 205.632 308.532 205.585C308.997 205.526 309.373 205.481 309.661 205.451C309.953 205.418 310.165 205.363 310.297 205.287C310.433 205.211 310.501 205.078 310.501 204.889V204.849C310.501 204.359 310.367 203.978 310.099 203.706C309.833 203.434 309.431 203.298 308.89 203.298C308.33 203.298 307.891 203.421 307.573 203.666C307.255 203.911 307.031 204.173 306.902 204.452L305.788 204.054C305.987 203.59 306.252 203.229 306.584 202.97C306.918 202.708 307.283 202.526 307.677 202.423C308.075 202.317 308.466 202.264 308.851 202.264C309.096 202.264 309.378 202.294 309.696 202.354C310.017 202.41 310.327 202.528 310.626 202.707C310.927 202.886 311.177 203.156 311.376 203.517C311.575 203.878 311.675 204.362 311.675 204.969V210H310.501V208.966H310.442C310.362 209.132 310.229 209.309 310.044 209.498C309.858 209.687 309.611 209.848 309.303 209.98C308.995 210.113 308.619 210.179 308.175 210.179ZM308.354 209.125C308.818 209.125 309.209 209.034 309.527 208.852C309.848 208.669 310.09 208.434 310.253 208.146C310.418 207.857 310.501 207.554 310.501 207.236V206.162C310.452 206.222 310.342 206.276 310.173 206.326C310.007 206.372 309.815 206.414 309.596 206.45C309.381 206.483 309.171 206.513 308.965 206.54C308.763 206.563 308.599 206.583 308.473 206.599C308.168 206.639 307.883 206.704 307.618 206.793C307.356 206.879 307.144 207.01 306.981 207.186C306.822 207.358 306.743 207.594 306.743 207.892C306.743 208.3 306.894 208.608 307.195 208.817C307.5 209.022 307.886 209.125 308.354 209.125ZM313.816 210V202.364H314.95V203.517H315.029C315.168 203.139 315.42 202.833 315.785 202.597C316.149 202.362 316.56 202.244 317.018 202.244C317.104 202.244 317.212 202.246 317.341 202.249C317.47 202.253 317.568 202.258 317.634 202.264V203.457C317.594 203.447 317.503 203.433 317.361 203.413C317.222 203.389 317.074 203.378 316.918 203.378C316.547 203.378 316.216 203.456 315.924 203.612C315.636 203.764 315.407 203.976 315.238 204.248C315.072 204.516 314.989 204.823 314.989 205.168V210H313.816ZM320.119 207.216L320.099 205.764H320.338L323.678 202.364H325.13L321.57 205.963H321.471L320.119 207.216ZM319.025 210V199.818H320.198V210H319.025ZM323.877 210L320.894 206.222L321.73 205.406L325.369 210H323.877ZM327.495 210.08C327.25 210.08 327.04 209.992 326.864 209.816C326.688 209.64 326.6 209.43 326.6 209.185C326.6 208.939 326.688 208.729 326.864 208.553C327.04 208.378 327.25 208.29 327.495 208.29C327.741 208.29 327.951 208.378 328.127 208.553C328.302 208.729 328.39 208.939 328.39 209.185C328.39 209.347 328.349 209.496 328.266 209.632C328.186 209.768 328.079 209.877 327.943 209.96C327.81 210.04 327.661 210.08 327.495 210.08Z" fill="white" fill-opacity="0.7"/>
<path d="M0 348H417C417 360.703 406.703 371 394 371H23C10.2975 371 0 360.703 0 348Z" fill="#F55868"/>
</svg>
