<svg width="1150" height="330" viewBox="0 0 1150 330" fill="none" xmlns="http://www.w3.org/2000/svg">
<rect width="1150" height="330" rx="24" fill="#262626"/>
<rect x="226.5" y="149" width="32" height="32" rx="16" fill="#932099"/>
<path d="M244.255 160.318V170.5H242.102V162.362H242.043L239.711 163.823V161.914L242.232 160.318H244.255Z" fill="white" fill-opacity="0.95"/>
<rect x="275" y="157.5" width="15" height="15" rx="1.5" stroke="white" stroke-opacity="0.4"/>
<path d="M307.926 161H306.693C306.62 160.645 306.493 160.334 306.31 160.065C306.131 159.797 305.913 159.571 305.654 159.389C305.399 159.204 305.116 159.064 304.804 158.972C304.492 158.879 304.168 158.832 303.83 158.832C303.213 158.832 302.655 158.988 302.154 159.3C301.657 159.611 301.261 160.07 300.966 160.677C300.674 161.283 300.528 162.027 300.528 162.909C300.528 163.791 300.674 164.535 300.966 165.141C301.261 165.748 301.657 166.207 302.154 166.518C302.655 166.83 303.213 166.986 303.83 166.986C304.168 166.986 304.492 166.939 304.804 166.847C305.116 166.754 305.399 166.616 305.654 166.434C305.913 166.248 306.131 166.021 306.31 165.753C306.493 165.481 306.62 165.17 306.693 164.818H307.926C307.833 165.339 307.664 165.804 307.419 166.215C307.174 166.626 306.869 166.976 306.504 167.264C306.14 167.549 305.73 167.766 305.276 167.915C304.826 168.065 304.343 168.139 303.83 168.139C302.961 168.139 302.189 167.927 301.513 167.503C300.837 167.079 300.305 166.475 299.917 165.693C299.529 164.911 299.335 163.983 299.335 162.909C299.335 161.835 299.529 160.907 299.917 160.125C300.305 159.343 300.837 158.74 301.513 158.315C302.189 157.891 302.961 157.679 303.83 157.679C304.343 157.679 304.826 157.754 305.276 157.903C305.73 158.052 306.14 158.271 306.504 158.559C306.869 158.844 307.174 159.192 307.419 159.603C307.664 160.011 307.833 160.476 307.926 161ZM310.933 163.406V168H309.759V157.818H310.933V161.557H311.032C311.211 161.162 311.48 160.849 311.838 160.617C312.199 160.382 312.679 160.264 313.279 160.264C313.8 160.264 314.255 160.369 314.646 160.577C315.038 160.783 315.341 161.099 315.556 161.527C315.775 161.951 315.884 162.491 315.884 163.148V168H314.711V163.227C314.711 162.621 314.554 162.152 314.239 161.82C313.927 161.486 313.495 161.318 312.941 161.318C312.557 161.318 312.212 161.399 311.907 161.562C311.606 161.724 311.367 161.961 311.191 162.273C311.019 162.584 310.933 162.962 310.933 163.406ZM321.233 168.159C320.497 168.159 319.862 167.997 319.328 167.672C318.798 167.344 318.389 166.886 318.1 166.3C317.815 165.71 317.673 165.024 317.673 164.241C317.673 163.459 317.815 162.77 318.1 162.173C318.389 161.573 318.79 161.106 319.304 160.771C319.821 160.433 320.424 160.264 321.113 160.264C321.511 160.264 321.904 160.33 322.292 160.463C322.679 160.596 323.032 160.811 323.35 161.109C323.669 161.404 323.922 161.795 324.111 162.283C324.3 162.77 324.395 163.37 324.395 164.082V164.58H318.508V163.565H323.201C323.201 163.134 323.115 162.75 322.943 162.412C322.774 162.074 322.532 161.807 322.217 161.612C321.905 161.416 321.538 161.318 321.113 161.318C320.646 161.318 320.242 161.434 319.9 161.666C319.562 161.895 319.302 162.193 319.12 162.561C318.937 162.929 318.846 163.323 318.846 163.744V164.42C318.846 164.997 318.946 165.486 319.145 165.887C319.347 166.285 319.627 166.588 319.985 166.797C320.343 167.002 320.759 167.105 321.233 167.105C321.541 167.105 321.819 167.062 322.068 166.976C322.32 166.886 322.537 166.754 322.719 166.578C322.901 166.399 323.042 166.177 323.142 165.912L324.275 166.23C324.156 166.615 323.955 166.953 323.674 167.244C323.392 167.533 323.044 167.758 322.63 167.92C322.215 168.08 321.75 168.159 321.233 168.159ZM329.282 168.159C328.566 168.159 327.949 167.99 327.432 167.652C326.915 167.314 326.517 166.848 326.239 166.255C325.961 165.662 325.821 164.984 325.821 164.222C325.821 163.446 325.964 162.762 326.249 162.168C326.537 161.572 326.938 161.106 327.452 160.771C327.969 160.433 328.572 160.264 329.262 160.264C329.799 160.264 330.283 160.364 330.713 160.562C331.144 160.761 331.497 161.04 331.772 161.398C332.047 161.756 332.218 162.173 332.284 162.651H331.111C331.022 162.303 330.823 161.994 330.515 161.726C330.21 161.454 329.799 161.318 329.282 161.318C328.824 161.318 328.423 161.437 328.078 161.676C327.737 161.911 327.47 162.245 327.278 162.675C327.089 163.103 326.995 163.605 326.995 164.182C326.995 164.772 327.087 165.286 327.273 165.723C327.462 166.161 327.727 166.5 328.069 166.742C328.413 166.984 328.818 167.105 329.282 167.105C329.587 167.105 329.863 167.052 330.112 166.946C330.36 166.84 330.571 166.688 330.743 166.489C330.916 166.29 331.038 166.051 331.111 165.773H332.284C332.218 166.223 332.054 166.629 331.792 166.991C331.534 167.349 331.191 167.634 330.763 167.846C330.339 168.055 329.845 168.159 329.282 168.159ZM335.093 165.216L335.074 163.764H335.312L338.653 160.364H340.105L336.545 163.963H336.446L335.093 165.216ZM334 168V157.818H335.173V168H334ZM338.852 168L335.869 164.222L336.704 163.406L340.343 168H338.852ZM341.774 168V157.818H342.947V161.577H343.047C343.133 161.444 343.252 161.275 343.405 161.07C343.56 160.861 343.782 160.675 344.071 160.513C344.363 160.347 344.757 160.264 345.254 160.264C345.897 160.264 346.464 160.425 346.954 160.746C347.445 161.068 347.828 161.524 348.103 162.114C348.378 162.704 348.515 163.4 348.515 164.202C348.515 165.01 348.378 165.711 348.103 166.305C347.828 166.895 347.447 167.352 346.959 167.677C346.472 167.998 345.91 168.159 345.274 168.159C344.783 168.159 344.391 168.078 344.096 167.915C343.801 167.75 343.574 167.562 343.415 167.354C343.256 167.142 343.133 166.966 343.047 166.827H342.907V168H341.774ZM342.927 164.182C342.927 164.759 343.012 165.267 343.181 165.708C343.35 166.146 343.597 166.489 343.922 166.737C344.247 166.982 344.644 167.105 345.115 167.105C345.605 167.105 346.015 166.976 346.343 166.717C346.674 166.455 346.923 166.104 347.089 165.663C347.258 165.219 347.342 164.725 347.342 164.182C347.342 163.645 347.259 163.161 347.094 162.73C346.931 162.296 346.684 161.953 346.353 161.701C346.025 161.446 345.612 161.318 345.115 161.318C344.638 161.318 344.237 161.439 343.912 161.681C343.587 161.92 343.342 162.254 343.176 162.685C343.01 163.113 342.927 163.612 342.927 164.182ZM353.412 168.159C352.723 168.159 352.118 167.995 351.598 167.667C351.081 167.339 350.676 166.88 350.385 166.29C350.096 165.7 349.952 165.01 349.952 164.222C349.952 163.426 350.096 162.732 350.385 162.138C350.676 161.545 351.081 161.085 351.598 160.756C352.118 160.428 352.723 160.264 353.412 160.264C354.102 160.264 354.705 160.428 355.222 160.756C355.742 161.085 356.147 161.545 356.435 162.138C356.727 162.732 356.873 163.426 356.873 164.222C356.873 165.01 356.727 165.7 356.435 166.29C356.147 166.88 355.742 167.339 355.222 167.667C354.705 167.995 354.102 168.159 353.412 168.159ZM353.412 167.105C353.936 167.105 354.367 166.971 354.705 166.702C355.043 166.434 355.293 166.081 355.456 165.643C355.618 165.206 355.699 164.732 355.699 164.222C355.699 163.711 355.618 163.236 355.456 162.795C355.293 162.354 355.043 161.998 354.705 161.726C354.367 161.454 353.936 161.318 353.412 161.318C352.889 161.318 352.458 161.454 352.12 161.726C351.782 161.998 351.532 162.354 351.369 162.795C351.207 163.236 351.126 163.711 351.126 164.222C351.126 164.732 351.207 165.206 351.369 165.643C351.532 166.081 351.782 166.434 352.12 166.702C352.458 166.971 352.889 167.105 353.412 167.105ZM359.224 160.364L361.054 163.486L362.883 160.364H364.236L361.77 164.182L364.236 168H362.883L361.054 165.037L359.224 168H357.872L360.298 164.182L357.872 160.364H359.224ZM370.006 168V157.818H371.239V166.906H375.972V168H370.006ZM379.969 168.179C379.486 168.179 379.046 168.088 378.652 167.906C378.258 167.72 377.944 167.453 377.712 167.105C377.48 166.754 377.364 166.33 377.364 165.832C377.364 165.395 377.451 165.04 377.623 164.768C377.795 164.493 378.026 164.278 378.314 164.122C378.602 163.966 378.92 163.85 379.268 163.774C379.62 163.695 379.973 163.632 380.327 163.585C380.791 163.526 381.168 163.481 381.456 163.451C381.748 163.418 381.96 163.363 382.092 163.287C382.228 163.211 382.296 163.078 382.296 162.889V162.849C382.296 162.359 382.162 161.978 381.893 161.706C381.628 161.434 381.226 161.298 380.685 161.298C380.125 161.298 379.686 161.421 379.368 161.666C379.05 161.911 378.826 162.173 378.697 162.452L377.583 162.054C377.782 161.59 378.047 161.229 378.379 160.97C378.713 160.708 379.078 160.526 379.472 160.423C379.87 160.317 380.261 160.264 380.646 160.264C380.891 160.264 381.173 160.294 381.491 160.354C381.812 160.41 382.122 160.528 382.42 160.707C382.722 160.886 382.972 161.156 383.171 161.517C383.37 161.878 383.469 162.362 383.469 162.969V168H382.296V166.966H382.237C382.157 167.132 382.024 167.309 381.839 167.498C381.653 167.687 381.406 167.848 381.098 167.98C380.79 168.113 380.414 168.179 379.969 168.179ZM380.148 167.125C380.612 167.125 381.004 167.034 381.322 166.852C381.643 166.669 381.885 166.434 382.048 166.146C382.213 165.857 382.296 165.554 382.296 165.236V164.162C382.246 164.222 382.137 164.276 381.968 164.326C381.802 164.372 381.61 164.414 381.391 164.45C381.176 164.483 380.965 164.513 380.76 164.54C380.558 164.563 380.394 164.583 380.268 164.599C379.963 164.639 379.678 164.704 379.413 164.793C379.151 164.879 378.939 165.01 378.776 165.186C378.617 165.358 378.538 165.594 378.538 165.892C378.538 166.3 378.688 166.608 378.99 166.817C379.295 167.022 379.681 167.125 380.148 167.125ZM385.77 168V157.818H386.943V161.577H387.043C387.129 161.444 387.248 161.275 387.401 161.07C387.557 160.861 387.779 160.675 388.067 160.513C388.359 160.347 388.753 160.264 389.25 160.264C389.893 160.264 390.46 160.425 390.95 160.746C391.441 161.068 391.824 161.524 392.099 162.114C392.374 162.704 392.512 163.4 392.512 164.202C392.512 165.01 392.374 165.711 392.099 166.305C391.824 166.895 391.443 167.352 390.955 167.677C390.468 167.998 389.906 168.159 389.27 168.159C388.78 168.159 388.387 168.078 388.092 167.915C387.797 167.75 387.57 167.562 387.411 167.354C387.252 167.142 387.129 166.966 387.043 166.827H386.904V168H385.77ZM386.923 164.182C386.923 164.759 387.008 165.267 387.177 165.708C387.346 166.146 387.593 166.489 387.918 166.737C388.243 166.982 388.64 167.105 389.111 167.105C389.602 167.105 390.011 166.976 390.339 166.717C390.67 166.455 390.919 166.104 391.085 165.663C391.254 165.219 391.338 164.725 391.338 164.182C391.338 163.645 391.255 163.161 391.09 162.73C390.927 162.296 390.68 161.953 390.349 161.701C390.021 161.446 389.608 161.318 389.111 161.318C388.634 161.318 388.233 161.439 387.908 161.681C387.583 161.92 387.338 162.254 387.172 162.685C387.006 163.113 386.923 163.612 386.923 164.182ZM397.508 168.159C396.772 168.159 396.137 167.997 395.604 167.672C395.074 167.344 394.664 166.886 394.376 166.3C394.091 165.71 393.948 165.024 393.948 164.241C393.948 163.459 394.091 162.77 394.376 162.173C394.664 161.573 395.065 161.106 395.579 160.771C396.096 160.433 396.699 160.264 397.389 160.264C397.786 160.264 398.179 160.33 398.567 160.463C398.955 160.596 399.308 160.811 399.626 161.109C399.944 161.404 400.198 161.795 400.387 162.283C400.575 162.77 400.67 163.37 400.67 164.082V164.58H394.784V163.565H399.477C399.477 163.134 399.391 162.75 399.218 162.412C399.049 162.074 398.807 161.807 398.492 161.612C398.181 161.416 397.813 161.318 397.389 161.318C396.921 161.318 396.517 161.434 396.176 161.666C395.838 161.895 395.577 162.193 395.395 162.561C395.213 162.929 395.122 163.323 395.122 163.744V164.42C395.122 164.997 395.221 165.486 395.42 165.887C395.622 166.285 395.902 166.588 396.26 166.797C396.618 167.002 397.034 167.105 397.508 167.105C397.816 167.105 398.095 167.062 398.343 166.976C398.595 166.886 398.812 166.754 398.994 166.578C399.177 166.399 399.318 166.177 399.417 165.912L400.551 166.23C400.431 166.615 400.231 166.953 399.949 167.244C399.667 167.533 399.319 167.758 398.905 167.92C398.491 168.08 398.025 168.159 397.508 168.159ZM403.628 157.818V168H402.455V157.818H403.628Z" fill="white" fill-opacity="0.95"/>
<rect x="485.5" y="149" width="32" height="32" rx="16" fill="#932099"/>
<path d="M497.825 170.5V168.949L501.45 165.593C501.758 165.295 502.016 165.026 502.225 164.788C502.437 164.549 502.598 164.315 502.707 164.087C502.817 163.855 502.871 163.604 502.871 163.336C502.871 163.038 502.804 162.781 502.668 162.565C502.532 162.347 502.346 162.179 502.111 162.063C501.875 161.944 501.609 161.884 501.31 161.884C500.999 161.884 500.727 161.947 500.495 162.073C500.263 162.199 500.084 162.38 499.958 162.615C499.832 162.85 499.769 163.13 499.769 163.455H497.726C497.726 162.789 497.877 162.211 498.178 161.72C498.48 161.23 498.902 160.85 499.446 160.582C499.99 160.313 500.616 160.179 501.325 160.179C502.054 160.179 502.689 160.308 503.229 160.567C503.773 160.822 504.196 161.177 504.497 161.631C504.799 162.085 504.95 162.605 504.95 163.192C504.95 163.576 504.873 163.956 504.721 164.33C504.572 164.705 504.305 165.121 503.92 165.578C503.536 166.032 502.994 166.577 502.295 167.214L500.808 168.67V168.74H505.084V170.5H497.825Z" fill="white" fill-opacity="0.95"/>
<rect x="533.5" y="157" width="16" height="16" rx="2" fill="#64B4FA"/>
<path d="M539.1 169.1C539.034 169.1 538.969 169.087 538.908 169.062C538.847 169.036 538.792 168.999 538.746 168.952L535.146 165.335C535.099 165.288 535.063 165.233 535.038 165.172C535.013 165.112 535 165.047 535 164.981C535 164.915 535.013 164.85 535.039 164.79C535.064 164.729 535.101 164.674 535.148 164.628C535.194 164.581 535.249 164.545 535.31 164.52C535.371 164.495 535.436 164.482 535.502 164.482C535.567 164.482 535.632 164.496 535.693 164.521C535.753 164.546 535.808 164.583 535.855 164.63L539.127 167.918L547.175 161.021C547.276 160.935 547.406 160.892 547.538 160.902C547.671 160.912 547.793 160.974 547.88 161.075C547.966 161.176 548.009 161.306 547.998 161.439C547.988 161.571 547.926 161.693 547.825 161.78L539.425 168.979C539.335 169.057 539.22 169.1 539.1 169.1Z" fill="black" fill-opacity="0.95"/>
<path d="M566.926 161H565.693C565.62 160.645 565.493 160.334 565.31 160.065C565.131 159.797 564.913 159.571 564.654 159.389C564.399 159.204 564.116 159.064 563.804 158.972C563.492 158.879 563.168 158.832 562.83 158.832C562.213 158.832 561.655 158.988 561.154 159.3C560.657 159.611 560.261 160.07 559.966 160.677C559.674 161.283 559.528 162.027 559.528 162.909C559.528 163.791 559.674 164.535 559.966 165.141C560.261 165.748 560.657 166.207 561.154 166.518C561.655 166.83 562.213 166.986 562.83 166.986C563.168 166.986 563.492 166.939 563.804 166.847C564.116 166.754 564.399 166.616 564.654 166.434C564.913 166.248 565.131 166.021 565.31 165.753C565.493 165.481 565.62 165.17 565.693 164.818H566.926C566.833 165.339 566.664 165.804 566.419 166.215C566.174 166.626 565.869 166.976 565.504 167.264C565.14 167.549 564.73 167.766 564.276 167.915C563.826 168.065 563.343 168.139 562.83 168.139C561.961 168.139 561.189 167.927 560.513 167.503C559.837 167.079 559.305 166.475 558.917 165.693C558.529 164.911 558.335 163.983 558.335 162.909C558.335 161.835 558.529 160.907 558.917 160.125C559.305 159.343 559.837 158.74 560.513 158.315C561.189 157.891 561.961 157.679 562.83 157.679C563.343 157.679 563.826 157.754 564.276 157.903C564.73 158.052 565.14 158.271 565.504 158.559C565.869 158.844 566.174 159.192 566.419 159.603C566.664 160.011 566.833 160.476 566.926 161ZM569.933 163.406V168H568.759V157.818H569.933V161.557H570.032C570.211 161.162 570.48 160.849 570.838 160.617C571.199 160.382 571.679 160.264 572.279 160.264C572.8 160.264 573.255 160.369 573.646 160.577C574.038 160.783 574.341 161.099 574.556 161.527C574.775 161.951 574.884 162.491 574.884 163.148V168H573.711V163.227C573.711 162.621 573.554 162.152 573.239 161.82C572.927 161.486 572.495 161.318 571.941 161.318C571.557 161.318 571.212 161.399 570.907 161.562C570.606 161.724 570.367 161.961 570.191 162.273C570.019 162.584 569.933 162.962 569.933 163.406ZM580.233 168.159C579.497 168.159 578.862 167.997 578.328 167.672C577.798 167.344 577.389 166.886 577.1 166.3C576.815 165.71 576.673 165.024 576.673 164.241C576.673 163.459 576.815 162.77 577.1 162.173C577.389 161.573 577.79 161.106 578.304 160.771C578.821 160.433 579.424 160.264 580.113 160.264C580.511 160.264 580.904 160.33 581.292 160.463C581.679 160.596 582.032 160.811 582.35 161.109C582.669 161.404 582.922 161.795 583.111 162.283C583.3 162.77 583.395 163.37 583.395 164.082V164.58H577.508V163.565H582.201C582.201 163.134 582.115 162.75 581.943 162.412C581.774 162.074 581.532 161.807 581.217 161.612C580.905 161.416 580.538 161.318 580.113 161.318C579.646 161.318 579.242 161.434 578.9 161.666C578.562 161.895 578.302 162.193 578.12 162.561C577.937 162.929 577.846 163.323 577.846 163.744V164.42C577.846 164.997 577.946 165.486 578.145 165.887C578.347 166.285 578.627 166.588 578.985 166.797C579.343 167.002 579.759 167.105 580.233 167.105C580.541 167.105 580.819 167.062 581.068 166.976C581.32 166.886 581.537 166.754 581.719 166.578C581.901 166.399 582.042 166.177 582.142 165.912L583.275 166.23C583.156 166.615 582.955 166.953 582.674 167.244C582.392 167.533 582.044 167.758 581.63 167.92C581.215 168.08 580.75 168.159 580.233 168.159ZM588.282 168.159C587.566 168.159 586.949 167.99 586.432 167.652C585.915 167.314 585.517 166.848 585.239 166.255C584.961 165.662 584.821 164.984 584.821 164.222C584.821 163.446 584.964 162.762 585.249 162.168C585.537 161.572 585.938 161.106 586.452 160.771C586.969 160.433 587.572 160.264 588.262 160.264C588.799 160.264 589.283 160.364 589.713 160.562C590.144 160.761 590.497 161.04 590.772 161.398C591.047 161.756 591.218 162.173 591.284 162.651H590.111C590.022 162.303 589.823 161.994 589.515 161.726C589.21 161.454 588.799 161.318 588.282 161.318C587.824 161.318 587.423 161.437 587.078 161.676C586.737 161.911 586.47 162.245 586.278 162.675C586.089 163.103 585.995 163.605 585.995 164.182C585.995 164.772 586.087 165.286 586.273 165.723C586.462 166.161 586.727 166.5 587.069 166.742C587.413 166.984 587.818 167.105 588.282 167.105C588.587 167.105 588.863 167.052 589.112 166.946C589.36 166.84 589.571 166.688 589.743 166.489C589.916 166.29 590.038 166.051 590.111 165.773H591.284C591.218 166.223 591.054 166.629 590.792 166.991C590.534 167.349 590.191 167.634 589.763 167.846C589.339 168.055 588.845 168.159 588.282 168.159ZM594.093 165.216L594.074 163.764H594.312L597.653 160.364H599.105L595.545 163.963H595.446L594.093 165.216ZM593 168V157.818H594.173V168H593ZM597.852 168L594.869 164.222L595.704 163.406L599.343 168H597.852ZM600.774 168V157.818H601.947V161.577H602.047C602.133 161.444 602.252 161.275 602.405 161.07C602.56 160.861 602.782 160.675 603.071 160.513C603.363 160.347 603.757 160.264 604.254 160.264C604.897 160.264 605.464 160.425 605.954 160.746C606.445 161.068 606.828 161.524 607.103 162.114C607.378 162.704 607.515 163.4 607.515 164.202C607.515 165.01 607.378 165.711 607.103 166.305C606.828 166.895 606.447 167.352 605.959 167.677C605.472 167.998 604.91 168.159 604.274 168.159C603.783 168.159 603.391 168.078 603.096 167.915C602.801 167.75 602.574 167.562 602.415 167.354C602.256 167.142 602.133 166.966 602.047 166.827H601.907V168H600.774ZM601.927 164.182C601.927 164.759 602.012 165.267 602.181 165.708C602.35 166.146 602.597 166.489 602.922 166.737C603.247 166.982 603.644 167.105 604.115 167.105C604.605 167.105 605.015 166.976 605.343 166.717C605.674 166.455 605.923 166.104 606.089 165.663C606.258 165.219 606.342 164.725 606.342 164.182C606.342 163.645 606.259 163.161 606.094 162.73C605.931 162.296 605.684 161.953 605.353 161.701C605.025 161.446 604.612 161.318 604.115 161.318C603.638 161.318 603.237 161.439 602.912 161.681C602.587 161.92 602.342 162.254 602.176 162.685C602.01 163.113 601.927 163.612 601.927 164.182ZM612.412 168.159C611.723 168.159 611.118 167.995 610.598 167.667C610.081 167.339 609.676 166.88 609.385 166.29C609.096 165.7 608.952 165.01 608.952 164.222C608.952 163.426 609.096 162.732 609.385 162.138C609.676 161.545 610.081 161.085 610.598 160.756C611.118 160.428 611.723 160.264 612.412 160.264C613.102 160.264 613.705 160.428 614.222 160.756C614.742 161.085 615.147 161.545 615.435 162.138C615.727 162.732 615.873 163.426 615.873 164.222C615.873 165.01 615.727 165.7 615.435 166.29C615.147 166.88 614.742 167.339 614.222 167.667C613.705 167.995 613.102 168.159 612.412 168.159ZM612.412 167.105C612.936 167.105 613.367 166.971 613.705 166.702C614.043 166.434 614.293 166.081 614.456 165.643C614.618 165.206 614.699 164.732 614.699 164.222C614.699 163.711 614.618 163.236 614.456 162.795C614.293 162.354 614.043 161.998 613.705 161.726C613.367 161.454 612.936 161.318 612.412 161.318C611.889 161.318 611.458 161.454 611.12 161.726C610.782 161.998 610.532 162.354 610.369 162.795C610.207 163.236 610.126 163.711 610.126 164.222C610.126 164.732 610.207 165.206 610.369 165.643C610.532 166.081 610.782 166.434 611.12 166.702C611.458 166.971 611.889 167.105 612.412 167.105ZM618.224 160.364L620.054 163.486L621.883 160.364H623.236L620.77 164.182L623.236 168H621.883L620.054 165.037L618.224 168H616.872L619.298 164.182L616.872 160.364H618.224ZM629.006 168V157.818H630.239V166.906H634.972V168H629.006ZM638.969 168.179C638.486 168.179 638.046 168.088 637.652 167.906C637.258 167.72 636.944 167.453 636.712 167.105C636.48 166.754 636.364 166.33 636.364 165.832C636.364 165.395 636.451 165.04 636.623 164.768C636.795 164.493 637.026 164.278 637.314 164.122C637.602 163.966 637.92 163.85 638.268 163.774C638.62 163.695 638.973 163.632 639.327 163.585C639.791 163.526 640.168 163.481 640.456 163.451C640.748 163.418 640.96 163.363 641.092 163.287C641.228 163.211 641.296 163.078 641.296 162.889V162.849C641.296 162.359 641.162 161.978 640.893 161.706C640.628 161.434 640.226 161.298 639.685 161.298C639.125 161.298 638.686 161.421 638.368 161.666C638.05 161.911 637.826 162.173 637.697 162.452L636.583 162.054C636.782 161.59 637.047 161.229 637.379 160.97C637.713 160.708 638.078 160.526 638.472 160.423C638.87 160.317 639.261 160.264 639.646 160.264C639.891 160.264 640.173 160.294 640.491 160.354C640.812 160.41 641.122 160.528 641.42 160.707C641.722 160.886 641.972 161.156 642.171 161.517C642.37 161.878 642.469 162.362 642.469 162.969V168H641.296V166.966H641.237C641.157 167.132 641.024 167.309 640.839 167.498C640.653 167.687 640.406 167.848 640.098 167.98C639.79 168.113 639.414 168.179 638.969 168.179ZM639.148 167.125C639.612 167.125 640.004 167.034 640.322 166.852C640.643 166.669 640.885 166.434 641.048 166.146C641.213 165.857 641.296 165.554 641.296 165.236V164.162C641.246 164.222 641.137 164.276 640.968 164.326C640.802 164.372 640.61 164.414 640.391 164.45C640.176 164.483 639.965 164.513 639.76 164.54C639.558 164.563 639.394 164.583 639.268 164.599C638.963 164.639 638.678 164.704 638.413 164.793C638.151 164.879 637.939 165.01 637.776 165.186C637.617 165.358 637.538 165.594 637.538 165.892C637.538 166.3 637.688 166.608 637.99 166.817C638.295 167.022 638.681 167.125 639.148 167.125ZM644.77 168V157.818H645.943V161.577H646.043C646.129 161.444 646.248 161.275 646.401 161.07C646.557 160.861 646.779 160.675 647.067 160.513C647.359 160.347 647.753 160.264 648.25 160.264C648.893 160.264 649.46 160.425 649.95 160.746C650.441 161.068 650.824 161.524 651.099 162.114C651.374 162.704 651.512 163.4 651.512 164.202C651.512 165.01 651.374 165.711 651.099 166.305C650.824 166.895 650.443 167.352 649.955 167.677C649.468 167.998 648.906 168.159 648.27 168.159C647.78 168.159 647.387 168.078 647.092 167.915C646.797 167.75 646.57 167.562 646.411 167.354C646.252 167.142 646.129 166.966 646.043 166.827H645.904V168H644.77ZM645.923 164.182C645.923 164.759 646.008 165.267 646.177 165.708C646.346 166.146 646.593 166.489 646.918 166.737C647.243 166.982 647.64 167.105 648.111 167.105C648.602 167.105 649.011 166.976 649.339 166.717C649.67 166.455 649.919 166.104 650.085 165.663C650.254 165.219 650.338 164.725 650.338 164.182C650.338 163.645 650.255 163.161 650.09 162.73C649.927 162.296 649.68 161.953 649.349 161.701C649.021 161.446 648.608 161.318 648.111 161.318C647.634 161.318 647.233 161.439 646.908 161.681C646.583 161.92 646.338 162.254 646.172 162.685C646.006 163.113 645.923 163.612 645.923 164.182ZM656.508 168.159C655.772 168.159 655.137 167.997 654.604 167.672C654.074 167.344 653.664 166.886 653.376 166.3C653.091 165.71 652.948 165.024 652.948 164.241C652.948 163.459 653.091 162.77 653.376 162.173C653.664 161.573 654.065 161.106 654.579 160.771C655.096 160.433 655.699 160.264 656.389 160.264C656.786 160.264 657.179 160.33 657.567 160.463C657.955 160.596 658.308 160.811 658.626 161.109C658.944 161.404 659.198 161.795 659.387 162.283C659.575 162.77 659.67 163.37 659.67 164.082V164.58H653.784V163.565H658.477C658.477 163.134 658.391 162.75 658.218 162.412C658.049 162.074 657.807 161.807 657.492 161.612C657.181 161.416 656.813 161.318 656.389 161.318C655.921 161.318 655.517 161.434 655.176 161.666C654.838 161.895 654.577 162.193 654.395 162.561C654.213 162.929 654.122 163.323 654.122 163.744V164.42C654.122 164.997 654.221 165.486 654.42 165.887C654.622 166.285 654.902 166.588 655.26 166.797C655.618 167.002 656.034 167.105 656.508 167.105C656.816 167.105 657.095 167.062 657.343 166.976C657.595 166.886 657.812 166.754 657.994 166.578C658.177 166.399 658.318 166.177 658.417 165.912L659.551 166.23C659.431 166.615 659.231 166.953 658.949 167.244C658.667 167.533 658.319 167.758 657.905 167.92C657.491 168.08 657.025 168.159 656.508 168.159ZM662.628 157.818V168H661.455V157.818H662.628Z" fill="white" fill-opacity="0.95"/>
<rect x="744.5" y="149" width="32" height="32" rx="16" fill="#932099"/>
<path d="M760.089 170.639C759.346 170.639 758.685 170.512 758.105 170.256C757.528 169.998 757.073 169.643 756.738 169.192C756.406 168.738 756.236 168.215 756.226 167.621H758.393C758.407 167.87 758.488 168.089 758.637 168.278C758.79 168.463 758.992 168.607 759.244 168.71C759.496 168.813 759.779 168.864 760.094 168.864C760.422 168.864 760.712 168.806 760.964 168.69C761.216 168.574 761.413 168.414 761.555 168.208C761.698 168.003 761.769 167.766 761.769 167.497C761.769 167.225 761.693 166.985 761.54 166.776C761.391 166.564 761.176 166.398 760.894 166.279C760.616 166.16 760.284 166.1 759.9 166.1H758.95V164.519H759.9C760.225 164.519 760.511 164.463 760.76 164.35C761.012 164.237 761.207 164.082 761.347 163.883C761.486 163.681 761.555 163.445 761.555 163.177C761.555 162.922 761.494 162.698 761.371 162.506C761.252 162.31 761.083 162.158 760.864 162.048C760.649 161.939 760.397 161.884 760.109 161.884C759.817 161.884 759.55 161.937 759.308 162.043C759.066 162.146 758.872 162.294 758.727 162.486C758.581 162.678 758.503 162.903 758.493 163.162H756.43C756.44 162.575 756.607 162.058 756.932 161.611C757.257 161.163 757.694 160.814 758.244 160.562C758.798 160.307 759.423 160.179 760.119 160.179C760.821 160.179 761.436 160.307 761.963 160.562C762.49 160.817 762.899 161.162 763.191 161.596C763.486 162.027 763.632 162.511 763.629 163.048C763.632 163.618 763.455 164.093 763.097 164.474C762.742 164.856 762.28 165.098 761.71 165.2V165.28C762.459 165.376 763.029 165.636 763.42 166.06C763.814 166.481 764.01 167.008 764.006 167.641C764.01 168.221 763.842 168.737 763.504 169.188C763.17 169.638 762.707 169.993 762.117 170.251C761.527 170.51 760.851 170.639 760.089 170.639Z" fill="white" fill-opacity="0.95"/>
<rect x="792.5" y="157" width="16" height="16" rx="2" fill="#64B4FA"/>
<path d="M805.5 165.5H795.5C795.367 165.5 795.24 165.447 795.146 165.353C795.053 165.26 795 165.132 795 165C795 164.867 795.053 164.74 795.146 164.646C795.24 164.553 795.367 164.5 795.5 164.5H805.5C805.633 164.5 805.76 164.553 805.854 164.646C805.947 164.74 806 164.867 806 165C806 165.132 805.947 165.26 805.854 165.353C805.76 165.447 805.633 165.5 805.5 165.5Z" fill="black" fill-opacity="0.95"/>
<path d="M825.926 161H824.693C824.62 160.645 824.493 160.334 824.31 160.065C824.131 159.797 823.913 159.571 823.654 159.389C823.399 159.204 823.116 159.064 822.804 158.972C822.492 158.879 822.168 158.832 821.83 158.832C821.213 158.832 820.655 158.988 820.154 159.3C819.657 159.611 819.261 160.07 818.966 160.677C818.674 161.283 818.528 162.027 818.528 162.909C818.528 163.791 818.674 164.535 818.966 165.141C819.261 165.748 819.657 166.207 820.154 166.518C820.655 166.83 821.213 166.986 821.83 166.986C822.168 166.986 822.492 166.939 822.804 166.847C823.116 166.754 823.399 166.616 823.654 166.434C823.913 166.248 824.131 166.021 824.31 165.753C824.493 165.481 824.62 165.17 824.693 164.818H825.926C825.833 165.339 825.664 165.804 825.419 166.215C825.174 166.626 824.869 166.976 824.504 167.264C824.14 167.549 823.73 167.766 823.276 167.915C822.826 168.065 822.343 168.139 821.83 168.139C820.961 168.139 820.189 167.927 819.513 167.503C818.837 167.079 818.305 166.475 817.917 165.693C817.529 164.911 817.335 163.983 817.335 162.909C817.335 161.835 817.529 160.907 817.917 160.125C818.305 159.343 818.837 158.74 819.513 158.315C820.189 157.891 820.961 157.679 821.83 157.679C822.343 157.679 822.826 157.754 823.276 157.903C823.73 158.052 824.14 158.271 824.504 158.559C824.869 158.844 825.174 159.192 825.419 159.603C825.664 160.011 825.833 160.476 825.926 161ZM828.933 163.406V168H827.759V157.818H828.933V161.557H829.032C829.211 161.162 829.48 160.849 829.838 160.617C830.199 160.382 830.679 160.264 831.279 160.264C831.8 160.264 832.255 160.369 832.646 160.577C833.038 160.783 833.341 161.099 833.556 161.527C833.775 161.951 833.884 162.491 833.884 163.148V168H832.711V163.227C832.711 162.621 832.554 162.152 832.239 161.82C831.927 161.486 831.495 161.318 830.941 161.318C830.557 161.318 830.212 161.399 829.907 161.562C829.606 161.724 829.367 161.961 829.191 162.273C829.019 162.584 828.933 162.962 828.933 163.406ZM839.233 168.159C838.497 168.159 837.862 167.997 837.328 167.672C836.798 167.344 836.389 166.886 836.1 166.3C835.815 165.71 835.673 165.024 835.673 164.241C835.673 163.459 835.815 162.77 836.1 162.173C836.389 161.573 836.79 161.106 837.304 160.771C837.821 160.433 838.424 160.264 839.113 160.264C839.511 160.264 839.904 160.33 840.292 160.463C840.679 160.596 841.032 160.811 841.35 161.109C841.669 161.404 841.922 161.795 842.111 162.283C842.3 162.77 842.395 163.37 842.395 164.082V164.58H836.508V163.565H841.201C841.201 163.134 841.115 162.75 840.943 162.412C840.774 162.074 840.532 161.807 840.217 161.612C839.905 161.416 839.538 161.318 839.113 161.318C838.646 161.318 838.242 161.434 837.9 161.666C837.562 161.895 837.302 162.193 837.12 162.561C836.937 162.929 836.846 163.323 836.846 163.744V164.42C836.846 164.997 836.946 165.486 837.145 165.887C837.347 166.285 837.627 166.588 837.985 166.797C838.343 167.002 838.759 167.105 839.233 167.105C839.541 167.105 839.819 167.062 840.068 166.976C840.32 166.886 840.537 166.754 840.719 166.578C840.901 166.399 841.042 166.177 841.142 165.912L842.275 166.23C842.156 166.615 841.955 166.953 841.674 167.244C841.392 167.533 841.044 167.758 840.63 167.92C840.215 168.08 839.75 168.159 839.233 168.159ZM847.282 168.159C846.566 168.159 845.949 167.99 845.432 167.652C844.915 167.314 844.517 166.848 844.239 166.255C843.961 165.662 843.821 164.984 843.821 164.222C843.821 163.446 843.964 162.762 844.249 162.168C844.537 161.572 844.938 161.106 845.452 160.771C845.969 160.433 846.572 160.264 847.262 160.264C847.799 160.264 848.283 160.364 848.713 160.562C849.144 160.761 849.497 161.04 849.772 161.398C850.047 161.756 850.218 162.173 850.284 162.651H849.111C849.022 162.303 848.823 161.994 848.515 161.726C848.21 161.454 847.799 161.318 847.282 161.318C846.824 161.318 846.423 161.437 846.078 161.676C845.737 161.911 845.47 162.245 845.278 162.675C845.089 163.103 844.995 163.605 844.995 164.182C844.995 164.772 845.087 165.286 845.273 165.723C845.462 166.161 845.727 166.5 846.069 166.742C846.413 166.984 846.818 167.105 847.282 167.105C847.587 167.105 847.863 167.052 848.112 166.946C848.36 166.84 848.571 166.688 848.743 166.489C848.916 166.29 849.038 166.051 849.111 165.773H850.284C850.218 166.223 850.054 166.629 849.792 166.991C849.534 167.349 849.191 167.634 848.763 167.846C848.339 168.055 847.845 168.159 847.282 168.159ZM853.093 165.216L853.074 163.764H853.312L856.653 160.364H858.105L854.545 163.963H854.446L853.093 165.216ZM852 168V157.818H853.173V168H852ZM856.852 168L853.869 164.222L854.704 163.406L858.343 168H856.852ZM859.774 168V157.818H860.947V161.577H861.047C861.133 161.444 861.252 161.275 861.405 161.07C861.56 160.861 861.782 160.675 862.071 160.513C862.363 160.347 862.757 160.264 863.254 160.264C863.897 160.264 864.464 160.425 864.954 160.746C865.445 161.068 865.828 161.524 866.103 162.114C866.378 162.704 866.515 163.4 866.515 164.202C866.515 165.01 866.378 165.711 866.103 166.305C865.828 166.895 865.447 167.352 864.959 167.677C864.472 167.998 863.91 168.159 863.274 168.159C862.783 168.159 862.391 168.078 862.096 167.915C861.801 167.75 861.574 167.562 861.415 167.354C861.256 167.142 861.133 166.966 861.047 166.827H860.907V168H859.774ZM860.927 164.182C860.927 164.759 861.012 165.267 861.181 165.708C861.35 166.146 861.597 166.489 861.922 166.737C862.247 166.982 862.644 167.105 863.115 167.105C863.605 167.105 864.015 166.976 864.343 166.717C864.674 166.455 864.923 166.104 865.089 165.663C865.258 165.219 865.342 164.725 865.342 164.182C865.342 163.645 865.259 163.161 865.094 162.73C864.931 162.296 864.684 161.953 864.353 161.701C864.025 161.446 863.612 161.318 863.115 161.318C862.638 161.318 862.237 161.439 861.912 161.681C861.587 161.92 861.342 162.254 861.176 162.685C861.01 163.113 860.927 163.612 860.927 164.182ZM871.412 168.159C870.723 168.159 870.118 167.995 869.598 167.667C869.081 167.339 868.676 166.88 868.385 166.29C868.096 165.7 867.952 165.01 867.952 164.222C867.952 163.426 868.096 162.732 868.385 162.138C868.676 161.545 869.081 161.085 869.598 160.756C870.118 160.428 870.723 160.264 871.412 160.264C872.102 160.264 872.705 160.428 873.222 160.756C873.742 161.085 874.147 161.545 874.435 162.138C874.727 162.732 874.873 163.426 874.873 164.222C874.873 165.01 874.727 165.7 874.435 166.29C874.147 166.88 873.742 167.339 873.222 167.667C872.705 167.995 872.102 168.159 871.412 168.159ZM871.412 167.105C871.936 167.105 872.367 166.971 872.705 166.702C873.043 166.434 873.293 166.081 873.456 165.643C873.618 165.206 873.699 164.732 873.699 164.222C873.699 163.711 873.618 163.236 873.456 162.795C873.293 162.354 873.043 161.998 872.705 161.726C872.367 161.454 871.936 161.318 871.412 161.318C870.889 161.318 870.458 161.454 870.12 161.726C869.782 161.998 869.532 162.354 869.369 162.795C869.207 163.236 869.126 163.711 869.126 164.222C869.126 164.732 869.207 165.206 869.369 165.643C869.532 166.081 869.782 166.434 870.12 166.702C870.458 166.971 870.889 167.105 871.412 167.105ZM877.224 160.364L879.054 163.486L880.883 160.364H882.236L879.77 164.182L882.236 168H880.883L879.054 165.037L877.224 168H875.872L878.298 164.182L875.872 160.364H877.224ZM888.006 168V157.818H889.239V166.906H893.972V168H888.006ZM897.969 168.179C897.486 168.179 897.046 168.088 896.652 167.906C896.258 167.72 895.944 167.453 895.712 167.105C895.48 166.754 895.364 166.33 895.364 165.832C895.364 165.395 895.451 165.04 895.623 164.768C895.795 164.493 896.026 164.278 896.314 164.122C896.602 163.966 896.92 163.85 897.268 163.774C897.62 163.695 897.973 163.632 898.327 163.585C898.791 163.526 899.168 163.481 899.456 163.451C899.748 163.418 899.96 163.363 900.092 163.287C900.228 163.211 900.296 163.078 900.296 162.889V162.849C900.296 162.359 900.162 161.978 899.893 161.706C899.628 161.434 899.226 161.298 898.685 161.298C898.125 161.298 897.686 161.421 897.368 161.666C897.05 161.911 896.826 162.173 896.697 162.452L895.583 162.054C895.782 161.59 896.047 161.229 896.379 160.97C896.713 160.708 897.078 160.526 897.472 160.423C897.87 160.317 898.261 160.264 898.646 160.264C898.891 160.264 899.173 160.294 899.491 160.354C899.812 160.41 900.122 160.528 900.42 160.707C900.722 160.886 900.972 161.156 901.171 161.517C901.37 161.878 901.469 162.362 901.469 162.969V168H900.296V166.966H900.237C900.157 167.132 900.024 167.309 899.839 167.498C899.653 167.687 899.406 167.848 899.098 167.98C898.79 168.113 898.414 168.179 897.969 168.179ZM898.148 167.125C898.612 167.125 899.004 167.034 899.322 166.852C899.643 166.669 899.885 166.434 900.048 166.146C900.213 165.857 900.296 165.554 900.296 165.236V164.162C900.246 164.222 900.137 164.276 899.968 164.326C899.802 164.372 899.61 164.414 899.391 164.45C899.176 164.483 898.965 164.513 898.76 164.54C898.558 164.563 898.394 164.583 898.268 164.599C897.963 164.639 897.678 164.704 897.413 164.793C897.151 164.879 896.939 165.01 896.776 165.186C896.617 165.358 896.538 165.594 896.538 165.892C896.538 166.3 896.688 166.608 896.99 166.817C897.295 167.022 897.681 167.125 898.148 167.125ZM903.77 168V157.818H904.943V161.577H905.043C905.129 161.444 905.248 161.275 905.401 161.07C905.557 160.861 905.779 160.675 906.067 160.513C906.359 160.347 906.753 160.264 907.25 160.264C907.893 160.264 908.46 160.425 908.95 160.746C909.441 161.068 909.824 161.524 910.099 162.114C910.374 162.704 910.512 163.4 910.512 164.202C910.512 165.01 910.374 165.711 910.099 166.305C909.824 166.895 909.443 167.352 908.955 167.677C908.468 167.998 907.906 168.159 907.27 168.159C906.78 168.159 906.387 168.078 906.092 167.915C905.797 167.75 905.57 167.562 905.411 167.354C905.252 167.142 905.129 166.966 905.043 166.827H904.904V168H903.77ZM904.923 164.182C904.923 164.759 905.008 165.267 905.177 165.708C905.346 166.146 905.593 166.489 905.918 166.737C906.243 166.982 906.64 167.105 907.111 167.105C907.602 167.105 908.011 166.976 908.339 166.717C908.67 166.455 908.919 166.104 909.085 165.663C909.254 165.219 909.338 164.725 909.338 164.182C909.338 163.645 909.255 163.161 909.09 162.73C908.927 162.296 908.68 161.953 908.349 161.701C908.021 161.446 907.608 161.318 907.111 161.318C906.634 161.318 906.233 161.439 905.908 161.681C905.583 161.92 905.338 162.254 905.172 162.685C905.006 163.113 904.923 163.612 904.923 164.182ZM915.508 168.159C914.772 168.159 914.137 167.997 913.604 167.672C913.074 167.344 912.664 166.886 912.376 166.3C912.091 165.71 911.948 165.024 911.948 164.241C911.948 163.459 912.091 162.77 912.376 162.173C912.664 161.573 913.065 161.106 913.579 160.771C914.096 160.433 914.699 160.264 915.389 160.264C915.786 160.264 916.179 160.33 916.567 160.463C916.955 160.596 917.308 160.811 917.626 161.109C917.944 161.404 918.198 161.795 918.387 162.283C918.575 162.77 918.67 163.37 918.67 164.082V164.58H912.784V163.565H917.477C917.477 163.134 917.391 162.75 917.218 162.412C917.049 162.074 916.807 161.807 916.492 161.612C916.181 161.416 915.813 161.318 915.389 161.318C914.921 161.318 914.517 161.434 914.176 161.666C913.838 161.895 913.577 162.193 913.395 162.561C913.213 162.929 913.122 163.323 913.122 163.744V164.42C913.122 164.997 913.221 165.486 913.42 165.887C913.622 166.285 913.902 166.588 914.26 166.797C914.618 167.002 915.034 167.105 915.508 167.105C915.816 167.105 916.095 167.062 916.343 166.976C916.595 166.886 916.812 166.754 916.994 166.578C917.177 166.399 917.318 166.177 917.417 165.912L918.551 166.23C918.431 166.615 918.231 166.953 917.949 167.244C917.667 167.533 917.319 167.758 916.905 167.92C916.491 168.08 916.025 168.159 915.508 168.159ZM921.628 157.818V168H920.455V157.818H921.628Z" fill="white" fill-opacity="0.95"/>
</svg>
