<svg width="144" height="24" viewBox="0 0 144 24" fill="none" xmlns="http://www.w3.org/2000/svg">
<rect x="0.5" y="4.5" width="15" height="15" rx="1.5" stroke="white" stroke-opacity="0.4"/>
<path d="M35.008 9.176H33.36C33.152 7.608 31.904 6.6 30.128 6.6C27.92 6.6 26.384 8.12 26.384 11.24C26.384 14.216 27.872 15.864 30.032 15.864C31.904 15.864 33.28 14.6 33.376 12.936H35.024C34.896 15.176 32.928 17.24 30 17.24C26.784 17.24 24.72 15.08 24.72 11.24C24.72 7.352 26.96 5.24 30.128 5.24C32.896 5.24 34.848 7.064 35.008 9.176ZM38.3123 17H36.7763V5.48H38.3123V9.624C38.9203 8.84 39.8003 8.44 40.7443 8.44C42.5523 8.44 43.6883 9.544 43.6883 11.576V17H42.1523V11.592C42.1523 10.344 41.5123 9.752 40.3763 9.752C39.2403 9.752 38.3123 10.552 38.3123 11.928V17ZM51.5184 14.6H53.1824C52.7664 16.12 51.4544 17.24 49.4544 17.24C47.0864 17.24 45.3744 15.768 45.3744 12.84C45.3744 9.944 47.0704 8.44 49.3744 8.44C51.6784 8.44 53.2784 9.816 53.2784 13.176H46.9424C47.0704 15.096 48.1104 15.944 49.5024 15.944C50.5104 15.944 51.2784 15.368 51.5184 14.6ZM47.0064 11.96H51.7104C51.5984 10.408 50.6864 9.672 49.4064 9.672C48.1744 9.672 47.2464 10.424 47.0064 11.96ZM60.544 14.328H62.224C62 15.944 60.64 17.24 58.576 17.24C56.368 17.24 54.64 15.72 54.64 12.904C54.64 10.12 56.208 8.44 58.56 8.44C60.448 8.44 61.888 9.448 62.16 11.144H60.464C60.256 10.232 59.568 9.736 58.592 9.736C57.232 9.736 56.272 10.744 56.272 12.952C56.272 14.984 57.312 15.944 58.608 15.944C59.632 15.944 60.384 15.368 60.544 14.328ZM65.5154 17H63.9794V5.48H65.5154V11.912L68.7794 8.68H70.7954L67.0514 12.296L71.2594 17H69.2114L65.5154 12.808V17ZM73.5559 17H72.2919V5.48H73.8279V9.832C74.3879 9.032 75.3159 8.44 76.6119 8.44C78.8039 8.44 80.2759 10.008 80.2759 12.776C80.2759 15.656 78.6919 17.24 76.4999 17.24C75.2199 17.24 74.3399 16.68 73.7959 15.896L73.5559 17ZM78.6759 12.744C78.6759 10.696 77.6359 9.752 76.2599 9.752C74.8839 9.752 73.7479 10.76 73.7479 12.744C73.7479 14.76 74.7559 15.928 76.2599 15.928C77.6999 15.928 78.6759 14.936 78.6759 12.744ZM81.5619 12.84C81.5619 9.848 83.4179 8.44 85.6739 8.44C87.9459 8.44 89.7699 9.848 89.7699 12.84C89.7699 15.752 88.0099 17.24 85.6579 17.24C83.3379 17.24 81.5619 15.72 81.5619 12.84ZM83.1619 12.84C83.1619 14.904 84.2499 15.992 85.6899 15.992C87.1619 15.992 88.1699 14.904 88.1699 12.84C88.1699 10.728 87.0979 9.688 85.6739 9.688C84.2499 9.688 83.1619 10.76 83.1619 12.84ZM97.7459 8.68L94.9619 12.568L98.2259 17H96.3539L94.0979 13.784L91.8899 17H90.0819L93.1859 12.68L90.2739 8.68H92.1139L94.0979 11.48L95.9859 8.68H97.7459ZM104.388 5.48H106.036V15.544H111.46V17H104.388V5.48ZM114.448 11H112.816C112.976 9.464 114.304 8.44 116.384 8.44C118.56 8.44 119.776 9.608 119.776 11.32V17H118.512L118.32 15.864C117.776 16.632 116.88 17.24 115.536 17.24C113.712 17.24 112.656 16.216 112.656 14.856C112.656 13.336 113.568 12.472 115.808 12.088L118.24 11.672V11.256C118.24 10.232 117.552 9.656 116.32 9.656C115.136 9.656 114.56 10.168 114.448 11ZM118.24 12.872L116.176 13.24C114.688 13.496 114.288 13.96 114.288 14.696C114.288 15.496 114.864 15.944 115.904 15.944C117.072 15.944 118.24 15.08 118.24 13.944V12.872ZM123.197 17H121.933V5.48H123.469V9.832C124.029 9.032 124.957 8.44 126.253 8.44C128.445 8.44 129.917 10.008 129.917 12.776C129.917 15.656 128.333 17.24 126.141 17.24C124.861 17.24 123.981 16.68 123.437 15.896L123.197 17ZM128.317 12.744C128.317 10.696 127.277 9.752 125.901 9.752C124.525 9.752 123.389 10.76 123.389 12.744C123.389 14.76 124.397 15.928 125.901 15.928C127.341 15.928 128.317 14.936 128.317 12.744ZM137.347 14.6H139.01C138.595 16.12 137.283 17.24 135.283 17.24C132.914 17.24 131.203 15.768 131.203 12.84C131.203 9.944 132.899 8.44 135.203 8.44C137.507 8.44 139.107 9.816 139.107 13.176H132.771C132.899 15.096 133.939 15.944 135.331 15.944C136.339 15.944 137.107 15.368 137.347 14.6ZM132.835 11.96H137.539C137.427 10.408 136.515 9.672 135.235 9.672C134.003 9.672 133.075 10.424 132.835 11.96ZM142.484 5.48V17H140.948V5.48H142.484Z" fill="white" fill-opacity="0.95"/>
</svg>
