<svg width="622" height="270" viewBox="0 0 622 270" fill="none" xmlns="http://www.w3.org/2000/svg">
<rect width="622" height="270" rx="24" fill="#1A1A1A"/>
<g clip-path="url(#clip0_333_11709)">
<mask id="mask0_333_11709" style="mask-type:luminance" maskUnits="userSpaceOnUse" x="40" y="40" width="532" height="190">
<rect x="40" y="40" width="532" height="190" fill="white"/>
</mask>
<g mask="url(#mask0_333_11709)">
<path d="M73.2955 64.4545V79H71.5909L63.6648 67.5795H63.5227V79H61.7614V64.4545H63.4659L71.4205 75.9034H71.5625V64.4545H73.2955ZM81.0245 79.2273C80.0397 79.2273 79.1755 78.9929 78.4322 78.5241C77.6935 78.0554 77.1159 77.3996 76.6992 76.5568C76.2873 75.714 76.0813 74.7292 76.0813 73.6023C76.0813 72.4659 76.2873 71.474 76.6992 70.6264C77.1159 69.7789 77.6935 69.1207 78.4322 68.652C79.1755 68.1832 80.0397 67.9489 81.0245 67.9489C82.0094 67.9489 82.8711 68.1832 83.6097 68.652C84.3531 69.1207 84.9308 69.7789 85.3427 70.6264C85.7594 71.474 85.9677 72.4659 85.9677 73.6023C85.9677 74.7292 85.7594 75.714 85.3427 76.5568C84.9308 77.3996 84.3531 78.0554 83.6097 78.5241C82.8711 78.9929 82.0094 79.2273 81.0245 79.2273ZM81.0245 77.7216C81.7726 77.7216 82.3881 77.5298 82.8711 77.1463C83.354 76.7628 83.7115 76.2585 83.9435 75.6335C84.1755 75.0085 84.2915 74.3314 84.2915 73.6023C84.2915 72.8731 84.1755 72.1937 83.9435 71.5639C83.7115 70.9342 83.354 70.4252 82.8711 70.0369C82.3881 69.6487 81.7726 69.4545 81.0245 69.4545C80.2764 69.4545 79.6609 69.6487 79.1779 70.0369C78.695 70.4252 78.3375 70.9342 78.1055 71.5639C77.8735 72.1937 77.7575 72.8731 77.7575 73.6023C77.7575 74.3314 77.8735 75.0085 78.1055 75.6335C78.3375 76.2585 78.695 76.7628 79.1779 77.1463C79.6609 77.5298 80.2764 77.7216 81.0245 77.7216ZM93.2706 68.0909V69.5114H87.6172V68.0909H93.2706ZM89.2649 65.4773H90.9411V75.875C90.9411 76.3485 91.0097 76.7036 91.147 76.9403C91.2891 77.1723 91.469 77.3286 91.6868 77.4091C91.9093 77.4848 92.1437 77.5227 92.3899 77.5227C92.5746 77.5227 92.7261 77.5133 92.8445 77.4943C92.9628 77.4706 93.0575 77.4517 93.1286 77.4375L93.4695 78.9432C93.3558 78.9858 93.1972 79.0284 92.9936 79.071C92.79 79.1184 92.532 79.142 92.2195 79.142C91.746 79.142 91.282 79.0402 90.8274 78.8366C90.3776 78.633 90.0036 78.3229 89.7053 77.9062C89.4117 77.4896 89.2649 76.964 89.2649 76.3295V65.4773ZM95.7919 79V68.0909H97.468V79H95.7919ZM96.6442 66.2727C96.3175 66.2727 96.0357 66.1615 95.799 65.9389C95.567 65.7164 95.451 65.4489 95.451 65.1364C95.451 64.8239 95.567 64.5563 95.799 64.3338C96.0357 64.1113 96.3175 64 96.6442 64C96.9709 64 97.2502 64.1113 97.4822 64.3338C97.719 64.5563 97.8374 64.8239 97.8374 65.1364C97.8374 65.4489 97.719 65.7164 97.4822 65.9389C97.2502 66.1615 96.9709 66.2727 96.6442 66.2727ZM105.396 68.0909V69.5114H99.5153V68.0909H105.396ZM101.277 79V66.5852C101.277 65.9602 101.423 65.4394 101.717 65.0227C102.011 64.6061 102.392 64.2936 102.86 64.0852C103.329 63.8769 103.824 63.7727 104.345 63.7727C104.757 63.7727 105.093 63.8059 105.353 63.8722C105.614 63.9384 105.808 64 105.936 64.0568L105.453 65.5057C105.368 65.4773 105.249 65.4418 105.098 65.3991C104.951 65.3565 104.757 65.3352 104.515 65.3352C103.961 65.3352 103.561 65.4749 103.315 65.7543C103.074 66.0336 102.953 66.4432 102.953 66.983V79H101.277ZM107.745 79V68.0909H109.421V79H107.745ZM108.597 66.2727C108.271 66.2727 107.989 66.1615 107.752 65.9389C107.52 65.7164 107.404 65.4489 107.404 65.1364C107.404 64.8239 107.52 64.5563 107.752 64.3338C107.989 64.1113 108.271 64 108.597 64C108.924 64 109.203 64.1113 109.435 64.3338C109.672 64.5563 109.79 64.8239 109.79 65.1364C109.79 65.4489 109.672 65.7164 109.435 65.9389C109.203 66.1615 108.924 66.2727 108.597 66.2727ZM116.923 79.2273C115.9 79.2273 115.02 78.9858 114.281 78.5028C113.542 78.0199 112.974 77.3546 112.576 76.5071C112.179 75.6596 111.98 74.6913 111.98 73.6023C111.98 72.4943 112.183 71.5166 112.591 70.669C113.002 69.8168 113.575 69.1515 114.309 68.6733C115.048 68.1903 115.91 67.9489 116.895 67.9489C117.662 67.9489 118.353 68.0909 118.968 68.375C119.584 68.6591 120.088 69.0568 120.481 69.5682C120.874 70.0795 121.118 70.6761 121.213 71.358H119.537C119.409 70.8608 119.125 70.4205 118.684 70.0369C118.249 69.6487 117.662 69.4545 116.923 69.4545C116.27 69.4545 115.697 69.625 115.204 69.9659C114.717 70.3021 114.335 70.7779 114.061 71.3935C113.791 72.0043 113.656 72.7216 113.656 73.5455C113.656 74.3883 113.788 75.1222 114.054 75.7472C114.324 76.3722 114.702 76.8575 115.19 77.2031C115.682 77.5488 116.26 77.7216 116.923 77.7216C117.359 77.7216 117.754 77.6458 118.109 77.4943C118.464 77.3428 118.765 77.125 119.011 76.8409C119.257 76.5568 119.432 76.2159 119.537 75.8182H121.213C121.118 76.4621 120.884 77.0421 120.51 77.5582C120.14 78.0696 119.65 78.4768 119.039 78.7798C118.433 79.0781 117.728 79.2273 116.923 79.2273ZM126.873 79.2557C126.182 79.2557 125.555 79.1255 124.991 78.8651C124.428 78.5999 123.98 78.2188 123.649 77.7216C123.317 77.2197 123.152 76.6136 123.152 75.9034C123.152 75.2784 123.275 74.7718 123.521 74.3835C123.767 73.9905 124.096 73.6828 124.508 73.4602C124.92 73.2377 125.375 73.072 125.872 72.9631C126.374 72.8494 126.878 72.7595 127.385 72.6932C128.047 72.608 128.585 72.544 128.997 72.5014C129.413 72.4541 129.717 72.3759 129.906 72.267C130.1 72.1581 130.197 71.9687 130.197 71.6989V71.642C130.197 70.9413 130.005 70.3968 129.622 70.0085C129.243 69.6203 128.668 69.4261 127.896 69.4261C127.096 69.4261 126.468 69.6013 126.014 69.9517C125.559 70.3021 125.24 70.6761 125.055 71.0739L123.464 70.5057C123.748 69.8428 124.127 69.3267 124.6 68.9574C125.079 68.5833 125.6 68.3229 126.163 68.1761C126.731 68.0246 127.29 67.9489 127.839 67.9489C128.19 67.9489 128.592 67.9915 129.047 68.0767C129.506 68.1572 129.949 68.3253 130.375 68.581C130.806 68.8366 131.163 69.2225 131.447 69.7386C131.731 70.2547 131.873 70.946 131.873 71.8125V79H130.197V77.5227H130.112C129.998 77.7595 129.809 78.0128 129.544 78.2827C129.279 78.5526 128.926 78.7822 128.485 78.9716C128.045 79.161 127.508 79.2557 126.873 79.2557ZM127.129 77.75C127.792 77.75 128.35 77.6198 128.805 77.3594C129.264 77.099 129.61 76.7628 129.842 76.3509C130.079 75.9389 130.197 75.5057 130.197 75.0511V73.517C130.126 73.6023 129.97 73.6804 129.728 73.7514C129.492 73.8177 129.217 73.8769 128.904 73.929C128.597 73.9763 128.296 74.0189 128.002 74.0568C127.714 74.09 127.479 74.1184 127.299 74.142C126.864 74.1989 126.457 74.2912 126.078 74.419C125.704 74.5421 125.401 74.7292 125.169 74.9801C124.941 75.2263 124.828 75.5625 124.828 75.9886C124.828 76.571 125.043 77.0114 125.474 77.3097C125.91 77.6032 126.461 77.75 127.129 77.75ZM139.677 68.0909V69.5114H134.023V68.0909H139.677ZM135.671 65.4773H137.347V75.875C137.347 76.3485 137.416 76.7036 137.553 76.9403C137.695 77.1723 137.875 77.3286 138.093 77.4091C138.316 77.4848 138.55 77.5227 138.796 77.5227C138.981 77.5227 139.132 77.5133 139.251 77.4943C139.369 77.4706 139.464 77.4517 139.535 77.4375L139.876 78.9432C139.762 78.9858 139.603 79.0284 139.4 79.071C139.196 79.1184 138.938 79.142 138.626 79.142C138.152 79.142 137.688 79.0402 137.234 78.8366C136.784 78.633 136.41 78.3229 136.112 77.9062C135.818 77.4896 135.671 76.964 135.671 76.3295V65.4773ZM142.198 79V68.0909H143.874V79H142.198ZM143.05 66.2727C142.724 66.2727 142.442 66.1615 142.205 65.9389C141.973 65.7164 141.857 65.4489 141.857 65.1364C141.857 64.8239 141.973 64.5563 142.205 64.3338C142.442 64.1113 142.724 64 143.05 64C143.377 64 143.656 64.1113 143.888 64.3338C144.125 64.5563 144.244 64.8239 144.244 65.1364C144.244 65.4489 144.125 65.7164 143.888 65.9389C143.656 66.1615 143.377 66.2727 143.05 66.2727ZM151.376 79.2273C150.391 79.2273 149.527 78.9929 148.784 78.5241C148.045 78.0554 147.467 77.3996 147.051 76.5568C146.639 75.714 146.433 74.7292 146.433 73.6023C146.433 72.4659 146.639 71.474 147.051 70.6264C147.467 69.7789 148.045 69.1207 148.784 68.652C149.527 68.1832 150.391 67.9489 151.376 67.9489C152.361 67.9489 153.223 68.1832 153.961 68.652C154.705 69.1207 155.282 69.7789 155.694 70.6264C156.111 71.474 156.319 72.4659 156.319 73.6023C156.319 74.7292 156.111 75.714 155.694 76.5568C155.282 77.3996 154.705 78.0554 153.961 78.5241C153.223 78.9929 152.361 79.2273 151.376 79.2273ZM151.376 77.7216C152.124 77.7216 152.74 77.5298 153.223 77.1463C153.706 76.7628 154.063 76.2585 154.295 75.6335C154.527 75.0085 154.643 74.3314 154.643 73.6023C154.643 72.8731 154.527 72.1937 154.295 71.5639C154.063 70.9342 153.706 70.4252 153.223 70.0369C152.74 69.6487 152.124 69.4545 151.376 69.4545C150.628 69.4545 150.012 69.6487 149.529 70.0369C149.047 70.4252 148.689 70.9342 148.457 71.5639C148.225 72.1937 148.109 72.8731 148.109 73.6023C148.109 74.3314 148.225 75.0085 148.457 75.6335C148.689 76.2585 149.047 76.7628 149.529 77.1463C150.012 77.5298 150.628 77.7216 151.376 77.7216ZM160.554 72.4375V79H158.878V68.0909H160.497V69.7955H160.639C160.895 69.2415 161.283 68.7964 161.804 68.4602C162.325 68.1193 162.997 67.9489 163.821 67.9489C164.56 67.9489 165.206 68.1004 165.76 68.4034C166.314 68.7017 166.745 69.1562 167.053 69.767C167.36 70.3731 167.514 71.1402 167.514 72.0682V79H165.838V72.1818C165.838 71.3248 165.616 70.6572 165.17 70.179C164.725 69.696 164.115 69.4545 163.338 69.4545C162.803 69.4545 162.325 69.5705 161.903 69.8026C161.487 70.0346 161.158 70.3731 160.916 70.8182C160.675 71.2633 160.554 71.803 160.554 72.4375ZM178.304 70.5341L176.799 70.9602C176.704 70.7093 176.564 70.4654 176.38 70.2287C176.2 69.9872 175.953 69.7884 175.641 69.6321C175.328 69.4759 174.928 69.3977 174.441 69.3977C173.773 69.3977 173.217 69.5516 172.772 69.8594C172.331 70.1624 172.111 70.5483 172.111 71.017C172.111 71.4337 172.263 71.7628 172.566 72.0043C172.869 72.2457 173.342 72.447 173.986 72.608L175.605 73.0057C176.581 73.2424 177.308 73.6046 177.786 74.0923C178.264 74.5753 178.503 75.1979 178.503 75.9602C178.503 76.5852 178.323 77.1439 177.963 77.6364C177.608 78.1288 177.111 78.517 176.472 78.8011C175.833 79.0852 175.089 79.2273 174.242 79.2273C173.129 79.2273 172.208 78.9858 171.479 78.5028C170.75 78.0199 170.288 77.3144 170.094 76.3864L171.685 75.9886C171.837 76.5758 172.123 77.0161 172.544 77.3097C172.971 77.6032 173.527 77.75 174.213 77.75C174.995 77.75 175.615 77.5843 176.074 77.2528C176.538 76.9167 176.77 76.5142 176.77 76.0455C176.77 75.6667 176.638 75.3494 176.373 75.0938C176.107 74.8333 175.7 74.6392 175.151 74.5114L173.333 74.0852C172.334 73.8485 171.6 73.4815 171.131 72.9844C170.667 72.4825 170.435 71.8551 170.435 71.1023C170.435 70.4867 170.608 69.9422 170.953 69.4688C171.304 68.9953 171.78 68.6236 172.381 68.3537C172.987 68.0838 173.674 67.9489 174.441 67.9489C175.52 67.9489 176.368 68.1856 176.983 68.6591C177.604 69.1326 178.044 69.7576 178.304 70.5341Z" fill="white" fill-opacity="0.95"/>
<path d="M60.5682 98.392V96.3636H70.125V98.392H66.5625V108H64.1307V98.392H60.5682ZM72.9545 108.165C72.3977 108.165 71.9015 108.068 71.4659 107.875C71.0303 107.678 70.6856 107.388 70.4318 107.006C70.1818 106.619 70.0568 106.138 70.0568 105.562C70.0568 105.078 70.1458 104.67 70.3239 104.341C70.5019 104.011 70.7443 103.746 71.0511 103.545C71.358 103.345 71.7064 103.193 72.0966 103.091C72.4905 102.989 72.9034 102.917 73.3352 102.875C73.8428 102.822 74.2519 102.773 74.5625 102.727C74.8731 102.678 75.0985 102.606 75.2386 102.511C75.3788 102.417 75.4489 102.277 75.4489 102.091V102.057C75.4489 101.697 75.3352 101.419 75.108 101.222C74.8845 101.025 74.5663 100.926 74.1534 100.926C73.7178 100.926 73.3712 101.023 73.1136 101.216C72.8561 101.405 72.6856 101.644 72.6023 101.932L70.3636 101.75C70.4773 101.22 70.7008 100.761 71.0341 100.375C71.3674 99.9848 71.7973 99.6856 72.3239 99.4773C72.8542 99.2652 73.4678 99.1591 74.1648 99.1591C74.6496 99.1591 75.1136 99.2159 75.5568 99.3295C76.0038 99.4432 76.3996 99.6193 76.7443 99.858C77.0928 100.097 77.3674 100.403 77.5682 100.778C77.7689 101.15 77.8693 101.595 77.8693 102.114V108H75.5739V106.79H75.5057C75.3655 107.062 75.178 107.303 74.9432 107.511C74.7083 107.716 74.4261 107.877 74.0966 107.994C73.767 108.108 73.3864 108.165 72.9545 108.165ZM73.6477 106.494C74.0038 106.494 74.3182 106.424 74.5909 106.284C74.8636 106.14 75.0777 105.947 75.233 105.705C75.3883 105.462 75.4659 105.187 75.4659 104.881V103.955C75.3902 104.004 75.286 104.049 75.1534 104.091C75.0246 104.129 74.8788 104.165 74.7159 104.199C74.553 104.229 74.3902 104.258 74.2273 104.284C74.0644 104.307 73.9167 104.328 73.7841 104.347C73.5 104.388 73.2519 104.455 73.0398 104.545C72.8277 104.636 72.6629 104.759 72.5455 104.915C72.428 105.066 72.3693 105.256 72.3693 105.483C72.3693 105.812 72.4886 106.064 72.7273 106.239C72.9697 106.409 73.2765 106.494 73.6477 106.494ZM87.0085 101.761L84.7926 101.898C84.7547 101.708 84.6733 101.538 84.5483 101.386C84.4233 101.231 84.2585 101.108 84.054 101.017C83.8532 100.922 83.6127 100.875 83.3324 100.875C82.9574 100.875 82.6411 100.955 82.3835 101.114C82.1259 101.269 81.9972 101.477 81.9972 101.739C81.9972 101.947 82.0805 102.123 82.2472 102.267C82.4138 102.411 82.6998 102.527 83.1051 102.614L84.6847 102.932C85.5331 103.106 86.1657 103.386 86.5824 103.773C86.9991 104.159 87.2074 104.667 87.2074 105.295C87.2074 105.867 87.0388 106.369 86.7017 106.801C86.3684 107.233 85.91 107.57 85.3267 107.812C84.7472 108.051 84.0786 108.17 83.321 108.17C82.1657 108.17 81.2453 107.93 80.5597 107.449C79.8778 106.964 79.4782 106.305 79.3608 105.472L81.7415 105.347C81.8134 105.699 81.9877 105.968 82.2642 106.153C82.5407 106.335 82.8949 106.426 83.3267 106.426C83.7509 106.426 84.0919 106.345 84.3494 106.182C84.6108 106.015 84.7434 105.801 84.7472 105.54C84.7434 105.32 84.6506 105.14 84.4688 105C84.2869 104.856 84.0066 104.746 83.6278 104.67L82.1165 104.369C81.2642 104.199 80.6297 103.903 80.2131 103.483C79.8002 103.062 79.5938 102.527 79.5938 101.875C79.5938 101.314 79.7453 100.831 80.0483 100.426C80.3551 100.021 80.785 99.7083 81.3381 99.4886C81.8949 99.2689 82.5464 99.1591 83.2926 99.1591C84.3949 99.1591 85.2623 99.392 85.8949 99.858C86.5313 100.324 86.9025 100.958 87.0085 101.761ZM90.9247 105.489L90.9304 102.585H91.2827L94.0781 99.2727H96.8565L93.1009 103.659H92.527L90.9247 105.489ZM88.7315 108V96.3636H91.152V108H88.7315ZM94.1861 108L91.6179 104.199L93.2315 102.489L97.0213 108H94.1861ZM98.0895 108V96.3636H100.51V100.739H100.584C100.69 100.504 100.843 100.265 101.044 100.023C101.249 99.7765 101.514 99.572 101.839 99.4091C102.169 99.2424 102.578 99.1591 103.067 99.1591C103.703 99.1591 104.29 99.3258 104.828 99.6591C105.366 99.9886 105.796 100.487 106.118 101.153C106.44 101.816 106.601 102.648 106.601 103.648C106.601 104.621 106.444 105.443 106.129 106.114C105.819 106.78 105.394 107.286 104.857 107.631C104.322 107.972 103.724 108.142 103.061 108.142C102.591 108.142 102.192 108.064 101.862 107.909C101.536 107.754 101.269 107.559 101.061 107.324C100.853 107.085 100.694 106.845 100.584 106.602H100.476V108H98.0895ZM100.459 103.636C100.459 104.155 100.531 104.608 100.675 104.994C100.819 105.381 101.027 105.682 101.3 105.898C101.572 106.11 101.904 106.216 102.294 106.216C102.688 106.216 103.021 106.108 103.294 105.892C103.567 105.672 103.773 105.369 103.913 104.983C104.057 104.593 104.129 104.144 104.129 103.636C104.129 103.133 104.059 102.689 103.919 102.307C103.779 101.924 103.572 101.625 103.3 101.409C103.027 101.193 102.692 101.085 102.294 101.085C101.9 101.085 101.567 101.189 101.294 101.398C101.025 101.606 100.819 101.902 100.675 102.284C100.531 102.667 100.459 103.117 100.459 103.636ZM110.705 108.165C110.148 108.165 109.652 108.068 109.216 107.875C108.78 107.678 108.436 107.388 108.182 107.006C107.932 106.619 107.807 106.138 107.807 105.562C107.807 105.078 107.896 104.67 108.074 104.341C108.252 104.011 108.494 103.746 108.801 103.545C109.108 103.345 109.456 103.193 109.847 103.091C110.241 102.989 110.653 102.917 111.085 102.875C111.593 102.822 112.002 102.773 112.312 102.727C112.623 102.678 112.848 102.606 112.989 102.511C113.129 102.417 113.199 102.277 113.199 102.091V102.057C113.199 101.697 113.085 101.419 112.858 101.222C112.634 101.025 112.316 100.926 111.903 100.926C111.468 100.926 111.121 101.023 110.864 101.216C110.606 101.405 110.436 101.644 110.352 101.932L108.114 101.75C108.227 101.22 108.451 100.761 108.784 100.375C109.117 99.9848 109.547 99.6856 110.074 99.4773C110.604 99.2652 111.218 99.1591 111.915 99.1591C112.4 99.1591 112.864 99.2159 113.307 99.3295C113.754 99.4432 114.15 99.6193 114.494 99.858C114.843 100.097 115.117 100.403 115.318 100.778C115.519 101.15 115.619 101.595 115.619 102.114V108H113.324V106.79H113.256C113.116 107.062 112.928 107.303 112.693 107.511C112.458 107.716 112.176 107.877 111.847 107.994C111.517 108.108 111.136 108.165 110.705 108.165ZM111.398 106.494C111.754 106.494 112.068 106.424 112.341 106.284C112.614 106.14 112.828 105.947 112.983 105.705C113.138 105.462 113.216 105.187 113.216 104.881V103.955C113.14 104.004 113.036 104.049 112.903 104.091C112.775 104.129 112.629 104.165 112.466 104.199C112.303 104.229 112.14 104.258 111.977 104.284C111.814 104.307 111.667 104.328 111.534 104.347C111.25 104.388 111.002 104.455 110.79 104.545C110.578 104.636 110.413 104.759 110.295 104.915C110.178 105.066 110.119 105.256 110.119 105.483C110.119 105.812 110.239 106.064 110.477 106.239C110.72 106.409 111.027 106.494 111.398 106.494ZM117.497 108V99.2727H119.844V100.795H119.935C120.094 100.254 120.361 99.8447 120.736 99.5682C121.111 99.2879 121.543 99.1477 122.031 99.1477C122.152 99.1477 122.283 99.1553 122.423 99.1705C122.563 99.1856 122.687 99.2064 122.793 99.233V101.381C122.679 101.347 122.522 101.316 122.321 101.29C122.12 101.263 121.937 101.25 121.77 101.25C121.414 101.25 121.096 101.328 120.815 101.483C120.539 101.634 120.319 101.847 120.156 102.119C119.997 102.392 119.918 102.706 119.918 103.062V108H117.497ZM130.168 102.955V108H127.747V99.2727H130.054V100.812H130.156C130.349 100.305 130.673 99.9034 131.128 99.608C131.582 99.3087 132.134 99.1591 132.781 99.1591C133.387 99.1591 133.916 99.2917 134.366 99.5568C134.817 99.822 135.168 100.201 135.418 100.693C135.668 101.182 135.793 101.765 135.793 102.443V108H133.372V102.875C133.376 102.341 133.24 101.924 132.963 101.625C132.687 101.322 132.306 101.17 131.821 101.17C131.495 101.17 131.207 101.241 130.957 101.381C130.711 101.521 130.518 101.725 130.378 101.994C130.241 102.259 130.171 102.58 130.168 102.955ZM141.643 108.17C140.761 108.17 139.998 107.983 139.354 107.608C138.714 107.229 138.219 106.703 137.871 106.028C137.522 105.35 137.348 104.564 137.348 103.67C137.348 102.769 137.522 101.981 137.871 101.307C138.219 100.629 138.714 100.102 139.354 99.7273C139.998 99.3485 140.761 99.1591 141.643 99.1591C142.526 99.1591 143.287 99.3485 143.928 99.7273C144.571 100.102 145.068 100.629 145.416 101.307C145.765 101.981 145.939 102.769 145.939 103.67C145.939 104.564 145.765 105.35 145.416 106.028C145.068 106.703 144.571 107.229 143.928 107.608C143.287 107.983 142.526 108.17 141.643 108.17ZM141.655 106.295C142.056 106.295 142.392 106.182 142.661 105.955C142.929 105.723 143.132 105.409 143.268 105.011C143.409 104.614 143.479 104.161 143.479 103.653C143.479 103.146 143.409 102.693 143.268 102.295C143.132 101.898 142.929 101.583 142.661 101.352C142.392 101.121 142.056 101.006 141.655 101.006C141.25 101.006 140.909 101.121 140.632 101.352C140.359 101.583 140.153 101.898 140.013 102.295C139.876 102.693 139.808 103.146 139.808 103.653C139.808 104.161 139.876 104.614 140.013 105.011C140.153 105.409 140.359 105.723 140.632 105.955C140.909 106.182 141.25 106.295 141.655 106.295ZM152.155 99.2727V101.091H146.899V99.2727H152.155ZM148.092 97.1818H150.513V105.318C150.513 105.542 150.547 105.716 150.615 105.841C150.683 105.962 150.778 106.047 150.899 106.097C151.024 106.146 151.168 106.17 151.331 106.17C151.445 106.17 151.558 106.161 151.672 106.142C151.786 106.119 151.873 106.102 151.933 106.091L152.314 107.892C152.193 107.93 152.022 107.973 151.803 108.023C151.583 108.076 151.316 108.108 151.001 108.119C150.418 108.142 149.907 108.064 149.467 107.886C149.032 107.708 148.693 107.432 148.45 107.057C148.208 106.682 148.089 106.208 148.092 105.636V97.1818ZM153.732 108V99.2727H156.152V108H153.732ZM154.953 98.1477C154.593 98.1477 154.285 98.0284 154.027 97.7898C153.769 97.5473 153.641 97.2576 153.641 96.9205C153.641 96.5871 153.769 96.3011 154.027 96.0625C154.285 95.8201 154.591 95.6989 154.947 95.6989C155.311 95.6989 155.62 95.8201 155.874 96.0625C156.131 96.3011 156.26 96.5871 156.26 96.9205C156.26 97.2576 156.131 97.5473 155.874 97.7898C155.62 98.0284 155.313 98.1477 154.953 98.1477ZM162.784 99.2727V101.091H157.398V99.2727H162.784ZM158.631 108V98.642C158.631 98.0095 158.754 97.4848 159 97.0682C159.25 96.6515 159.591 96.339 160.023 96.1307C160.455 95.9223 160.945 95.8182 161.494 95.8182C161.866 95.8182 162.205 95.8466 162.511 95.9034C162.822 95.9602 163.053 96.0114 163.205 96.0568L162.773 97.875C162.678 97.8447 162.561 97.8163 162.42 97.7898C162.284 97.7633 162.144 97.75 162 97.75C161.644 97.75 161.396 97.8333 161.256 98C161.116 98.1629 161.045 98.392 161.045 98.6875V108H158.631ZM164.263 108V99.2727H166.683V108H164.263ZM165.484 98.1477C165.125 98.1477 164.816 98.0284 164.558 97.7898C164.301 97.5473 164.172 97.2576 164.172 96.9205C164.172 96.5871 164.301 96.3011 164.558 96.0625C164.816 95.8201 165.123 95.6989 165.479 95.6989C165.842 95.6989 166.151 95.8201 166.405 96.0625C166.662 96.3011 166.791 96.5871 166.791 96.9205C166.791 97.2576 166.662 97.5473 166.405 97.7898C166.151 98.0284 165.844 98.1477 165.484 98.1477ZM172.565 108.17C171.671 108.17 170.902 107.981 170.259 107.602C169.618 107.22 169.126 106.689 168.781 106.011C168.44 105.333 168.27 104.553 168.27 103.67C168.27 102.777 168.442 101.992 168.787 101.318C169.135 100.64 169.63 100.112 170.27 99.733C170.91 99.3504 171.671 99.1591 172.554 99.1591C173.315 99.1591 173.982 99.2973 174.554 99.5739C175.126 99.8504 175.579 100.239 175.912 100.739C176.245 101.239 176.429 101.826 176.463 102.5H174.179C174.115 102.064 173.944 101.714 173.668 101.449C173.395 101.18 173.037 101.045 172.594 101.045C172.219 101.045 171.891 101.148 171.611 101.352C171.334 101.553 171.118 101.847 170.963 102.233C170.808 102.619 170.73 103.087 170.73 103.636C170.73 104.193 170.806 104.667 170.957 105.057C171.113 105.447 171.33 105.744 171.611 105.949C171.891 106.153 172.219 106.256 172.594 106.256C172.87 106.256 173.118 106.199 173.338 106.085C173.562 105.972 173.745 105.807 173.889 105.591C174.037 105.371 174.134 105.108 174.179 104.801H176.463C176.425 105.468 176.243 106.055 175.918 106.562C175.596 107.066 175.151 107.46 174.582 107.744C174.014 108.028 173.342 108.17 172.565 108.17ZM180.501 108.165C179.945 108.165 179.448 108.068 179.013 107.875C178.577 107.678 178.232 107.388 177.979 107.006C177.729 106.619 177.604 106.138 177.604 105.562C177.604 105.078 177.693 104.67 177.871 104.341C178.049 104.011 178.291 103.746 178.598 103.545C178.905 103.345 179.253 103.193 179.643 103.091C180.037 102.989 180.45 102.917 180.882 102.875C181.39 102.822 181.799 102.773 182.109 102.727C182.42 102.678 182.645 102.606 182.786 102.511C182.926 102.417 182.996 102.277 182.996 102.091V102.057C182.996 101.697 182.882 101.419 182.655 101.222C182.431 101.025 182.113 100.926 181.7 100.926C181.265 100.926 180.918 101.023 180.661 101.216C180.403 101.405 180.232 101.644 180.149 101.932L177.911 101.75C178.024 101.22 178.248 100.761 178.581 100.375C178.914 99.9848 179.344 99.6856 179.871 99.4773C180.401 99.2652 181.015 99.1591 181.712 99.1591C182.196 99.1591 182.661 99.2159 183.104 99.3295C183.551 99.4432 183.946 99.6193 184.291 99.858C184.64 100.097 184.914 100.403 185.115 100.778C185.316 101.15 185.416 101.595 185.416 102.114V108H183.121V106.79H183.053C182.912 107.062 182.725 107.303 182.49 107.511C182.255 107.716 181.973 107.877 181.643 107.994C181.314 108.108 180.933 108.165 180.501 108.165ZM181.195 106.494C181.551 106.494 181.865 106.424 182.138 106.284C182.411 106.14 182.625 105.947 182.78 105.705C182.935 105.462 183.013 105.187 183.013 104.881V103.955C182.937 104.004 182.833 104.049 182.7 104.091C182.571 104.129 182.426 104.165 182.263 104.199C182.1 104.229 181.937 104.258 181.774 104.284C181.611 104.307 181.464 104.328 181.331 104.347C181.047 104.388 180.799 104.455 180.587 104.545C180.375 104.636 180.21 104.759 180.092 104.915C179.975 105.066 179.916 105.256 179.916 105.483C179.916 105.812 180.036 106.064 180.274 106.239C180.517 106.409 180.823 106.494 181.195 106.494ZM191.936 99.2727V101.091H186.68V99.2727H191.936ZM187.874 97.1818H190.294V105.318C190.294 105.542 190.328 105.716 190.396 105.841C190.464 105.962 190.559 106.047 190.68 106.097C190.805 106.146 190.949 106.17 191.112 106.17C191.226 106.17 191.339 106.161 191.453 106.142C191.567 106.119 191.654 106.102 191.714 106.091L192.095 107.892C191.974 107.93 191.804 107.973 191.584 108.023C191.364 108.076 191.097 108.108 190.783 108.119C190.199 108.142 189.688 108.064 189.249 107.886C188.813 107.708 188.474 107.432 188.232 107.057C187.989 106.682 187.87 106.208 187.874 105.636V97.1818ZM193.513 108V99.2727H195.933V108H193.513ZM194.734 98.1477C194.375 98.1477 194.066 98.0284 193.808 97.7898C193.551 97.5473 193.422 97.2576 193.422 96.9205C193.422 96.5871 193.551 96.3011 193.808 96.0625C194.066 95.8201 194.373 95.6989 194.729 95.6989C195.092 95.6989 195.401 95.8201 195.655 96.0625C195.912 96.3011 196.041 96.5871 196.041 96.9205C196.041 97.2576 195.912 97.5473 195.655 97.7898C195.401 98.0284 195.094 98.1477 194.734 98.1477ZM201.815 108.17C200.933 108.17 200.17 107.983 199.526 107.608C198.885 107.229 198.391 106.703 198.043 106.028C197.694 105.35 197.52 104.564 197.52 103.67C197.52 102.769 197.694 101.981 198.043 101.307C198.391 100.629 198.885 100.102 199.526 99.7273C200.17 99.3485 200.933 99.1591 201.815 99.1591C202.698 99.1591 203.459 99.3485 204.099 99.7273C204.743 100.102 205.24 100.629 205.588 101.307C205.937 101.981 206.111 102.769 206.111 103.67C206.111 104.564 205.937 105.35 205.588 106.028C205.24 106.703 204.743 107.229 204.099 107.608C203.459 107.983 202.698 108.17 201.815 108.17ZM201.827 106.295C202.228 106.295 202.563 106.182 202.832 105.955C203.101 105.723 203.304 105.409 203.44 105.011C203.58 104.614 203.651 104.161 203.651 103.653C203.651 103.146 203.58 102.693 203.44 102.295C203.304 101.898 203.101 101.583 202.832 101.352C202.563 101.121 202.228 101.006 201.827 101.006C201.421 101.006 201.08 101.121 200.804 101.352C200.531 101.583 200.325 101.898 200.185 102.295C200.048 102.693 199.98 103.146 199.98 103.653C199.98 104.161 200.048 104.614 200.185 105.011C200.325 105.409 200.531 105.723 200.804 105.955C201.08 106.182 201.421 106.295 201.827 106.295ZM210.105 102.955V108H207.685V99.2727H209.991V100.812H210.094C210.287 100.305 210.611 99.9034 211.065 99.608C211.52 99.3087 212.071 99.1591 212.719 99.1591C213.325 99.1591 213.853 99.2917 214.304 99.5568C214.755 99.822 215.105 100.201 215.355 100.693C215.605 101.182 215.73 101.765 215.73 102.443V108H213.31V102.875C213.313 102.341 213.177 101.924 212.901 101.625C212.624 101.322 212.243 101.17 211.759 101.17C211.433 101.17 211.145 101.241 210.895 101.381C210.649 101.521 210.455 101.725 210.315 101.994C210.179 102.259 210.109 102.58 210.105 102.955ZM224.899 101.761L222.683 101.898C222.645 101.708 222.564 101.538 222.439 101.386C222.314 101.231 222.149 101.108 221.945 101.017C221.744 100.922 221.503 100.875 221.223 100.875C220.848 100.875 220.532 100.955 220.274 101.114C220.017 101.269 219.888 101.477 219.888 101.739C219.888 101.947 219.971 102.123 220.138 102.267C220.304 102.411 220.59 102.527 220.996 102.614L222.575 102.932C223.424 103.106 224.056 103.386 224.473 103.773C224.89 104.159 225.098 104.667 225.098 105.295C225.098 105.867 224.929 106.369 224.592 106.801C224.259 107.233 223.801 107.57 223.217 107.812C222.638 108.051 221.969 108.17 221.212 108.17C220.056 108.17 219.136 107.93 218.45 107.449C217.768 106.964 217.369 106.305 217.251 105.472L219.632 105.347C219.704 105.699 219.878 105.968 220.155 106.153C220.431 106.335 220.786 106.426 221.217 106.426C221.642 106.426 221.982 106.345 222.24 106.182C222.501 106.015 222.634 105.801 222.638 105.54C222.634 105.32 222.541 105.14 222.359 105C222.178 104.856 221.897 104.746 221.518 104.67L220.007 104.369C219.155 104.199 218.52 103.903 218.104 103.483C217.691 103.062 217.484 102.527 217.484 101.875C217.484 101.314 217.636 100.831 217.939 100.426C218.246 100.021 218.676 99.7083 219.229 99.4886C219.786 99.2689 220.437 99.1591 221.183 99.1591C222.286 99.1591 223.153 99.392 223.786 99.858C224.422 100.324 224.793 100.958 224.899 101.761Z" fill="white" fill-opacity="0.95"/>
<rect width="476" height="1" transform="translate(60 170)" fill="white" fill-opacity="0.3"/>
<path d="M60.6761 183.912V182.818H68.3125V183.912H65.1108V193H63.8778V183.912H60.6761ZM72.0511 193.159C71.3617 193.159 70.7569 192.995 70.2365 192.667C69.7195 192.339 69.3151 191.88 69.0234 191.29C68.7351 190.7 68.5909 190.01 68.5909 189.222C68.5909 188.426 68.7351 187.732 69.0234 187.138C69.3151 186.545 69.7195 186.085 70.2365 185.756C70.7569 185.428 71.3617 185.264 72.0511 185.264C72.7405 185.264 73.3438 185.428 73.8608 185.756C74.3812 186.085 74.7855 186.545 75.0739 187.138C75.3655 187.732 75.5114 188.426 75.5114 189.222C75.5114 190.01 75.3655 190.7 75.0739 191.29C74.7855 191.88 74.3812 192.339 73.8608 192.667C73.3438 192.995 72.7405 193.159 72.0511 193.159ZM72.0511 192.105C72.5748 192.105 73.0057 191.971 73.3438 191.702C73.6818 191.434 73.9321 191.081 74.0945 190.643C74.2569 190.206 74.3381 189.732 74.3381 189.222C74.3381 188.711 74.2569 188.236 74.0945 187.795C73.9321 187.354 73.6818 186.998 73.3438 186.726C73.0057 186.454 72.5748 186.318 72.0511 186.318C71.5275 186.318 71.0966 186.454 70.7585 186.726C70.4205 186.998 70.1702 187.354 70.0078 187.795C69.8454 188.236 69.7642 188.711 69.7642 189.222C69.7642 189.732 69.8454 190.206 70.0078 190.643C70.1702 191.081 70.4205 191.434 70.7585 191.702C71.0966 191.971 71.5275 192.105 72.0511 192.105ZM84.3422 193.159C83.6262 193.159 83.0098 192.99 82.4927 192.652C81.9757 192.314 81.5779 191.848 81.2995 191.255C81.0211 190.662 80.8819 189.984 80.8819 189.222C80.8819 188.446 81.0244 187.762 81.3095 187.168C81.5978 186.572 81.9989 186.106 82.5126 185.771C83.0297 185.433 83.6329 185.264 84.3223 185.264C84.8592 185.264 85.3431 185.364 85.774 185.562C86.2048 185.761 86.5578 186.04 86.8329 186.398C87.108 186.756 87.2787 187.173 87.345 187.651H86.1717C86.0822 187.303 85.8833 186.994 85.5751 186.726C85.2702 186.454 84.8592 186.318 84.3422 186.318C83.8848 186.318 83.4837 186.437 83.139 186.676C82.7976 186.911 82.5308 187.245 82.3386 187.675C82.1497 188.103 82.0552 188.605 82.0552 189.182C82.0552 189.772 82.148 190.286 82.3336 190.723C82.5225 191.161 82.7877 191.5 83.1291 191.742C83.4738 191.984 83.8781 192.105 84.3422 192.105C84.6471 192.105 84.9238 192.052 85.1724 191.946C85.421 191.84 85.6315 191.688 85.8038 191.489C85.9761 191.29 86.0988 191.051 86.1717 190.773H87.345C87.2787 191.223 87.1146 191.629 86.8528 191.991C86.5943 192.349 86.2512 192.634 85.8237 192.846C85.3994 193.055 84.9056 193.159 84.3422 193.159ZM90.2335 188.406V193H89.0602V182.818H90.2335V186.557H90.3329C90.5119 186.162 90.7804 185.849 91.1383 185.617C91.4996 185.382 91.9802 185.264 92.5801 185.264C93.1004 185.264 93.5562 185.369 93.9473 185.577C94.3384 185.783 94.6416 186.099 94.8571 186.527C95.0758 186.951 95.1852 187.491 95.1852 188.148V193H94.0119V188.227C94.0119 187.621 93.8545 187.152 93.5396 186.82C93.228 186.486 92.7955 186.318 92.242 186.318C91.8575 186.318 91.5128 186.399 91.2079 186.562C90.9063 186.724 90.6677 186.961 90.492 187.273C90.3197 187.584 90.2335 187.962 90.2335 188.406ZM99.5788 193.179C99.0949 193.179 98.6558 193.088 98.2614 192.906C97.867 192.72 97.5537 192.453 97.3217 192.105C97.0897 191.754 96.9737 191.33 96.9737 190.832C96.9737 190.395 97.0599 190.04 97.2322 189.768C97.4046 189.493 97.6349 189.278 97.9233 189.122C98.2116 188.966 98.5298 188.85 98.8778 188.774C99.2292 188.695 99.5821 188.632 99.9368 188.585C100.401 188.526 100.777 188.481 101.065 188.451C101.357 188.418 101.569 188.363 101.702 188.287C101.838 188.211 101.906 188.078 101.906 187.889V187.849C101.906 187.359 101.771 186.978 101.503 186.706C101.238 186.434 100.835 186.298 100.295 186.298C99.7346 186.298 99.2955 186.421 98.9773 186.666C98.6591 186.911 98.4354 187.173 98.3061 187.452L97.1925 187.054C97.3913 186.59 97.6565 186.229 97.9879 185.97C98.3227 185.708 98.6873 185.526 99.0817 185.423C99.4794 185.317 99.8705 185.264 100.255 185.264C100.5 185.264 100.782 185.294 101.1 185.354C101.422 185.41 101.732 185.528 102.03 185.707C102.331 185.886 102.582 186.156 102.781 186.517C102.979 186.878 103.079 187.362 103.079 187.969V193H101.906V191.966H101.846C101.766 192.132 101.634 192.309 101.448 192.498C101.263 192.687 101.016 192.848 100.707 192.98C100.399 193.113 100.023 193.179 99.5788 193.179ZM99.7578 192.125C100.222 192.125 100.613 192.034 100.931 191.852C101.253 191.669 101.495 191.434 101.657 191.146C101.823 190.857 101.906 190.554 101.906 190.236V189.162C101.856 189.222 101.746 189.276 101.577 189.326C101.412 189.372 101.219 189.414 101.001 189.45C100.785 189.483 100.575 189.513 100.369 189.54C100.167 189.563 100.003 189.583 99.8771 189.599C99.5722 189.639 99.2872 189.704 99.022 189.793C98.7602 189.879 98.5481 190.01 98.3857 190.186C98.2266 190.358 98.147 190.594 98.147 190.892C98.147 191.3 98.2978 191.608 98.5994 191.817C98.9044 192.022 99.2905 192.125 99.7578 192.125ZM106.394 188.406V193H105.22V185.364H106.354V186.557H106.453C106.632 186.169 106.904 185.857 107.269 185.622C107.633 185.384 108.104 185.264 108.681 185.264C109.198 185.264 109.65 185.37 110.038 185.582C110.426 185.791 110.727 186.109 110.943 186.537C111.158 186.961 111.266 187.498 111.266 188.148V193H110.093V188.227C110.093 187.627 109.937 187.16 109.625 186.825C109.314 186.487 108.886 186.318 108.343 186.318C107.968 186.318 107.633 186.399 107.338 186.562C107.047 186.724 106.816 186.961 106.647 187.273C106.478 187.584 106.394 187.962 106.394 188.406ZM116.492 196.023C115.925 196.023 115.438 195.95 115.031 195.804C114.623 195.661 114.283 195.473 114.011 195.237C113.743 195.005 113.529 194.757 113.37 194.491L114.305 193.835C114.411 193.974 114.545 194.134 114.707 194.312C114.87 194.495 115.092 194.652 115.374 194.785C115.659 194.921 116.031 194.989 116.492 194.989C117.109 194.989 117.617 194.839 118.018 194.541C118.42 194.243 118.62 193.776 118.62 193.139V191.588H118.521C118.434 191.727 118.312 191.9 118.153 192.105C117.997 192.307 117.772 192.488 117.477 192.647C117.185 192.803 116.79 192.881 116.293 192.881C115.677 192.881 115.123 192.735 114.633 192.443C114.146 192.152 113.759 191.727 113.474 191.17C113.193 190.614 113.052 189.937 113.052 189.142C113.052 188.36 113.189 187.679 113.464 187.099C113.74 186.515 114.122 186.065 114.613 185.746C115.103 185.425 115.67 185.264 116.313 185.264C116.81 185.264 117.205 185.347 117.496 185.513C117.791 185.675 118.017 185.861 118.173 186.07C118.332 186.275 118.454 186.444 118.54 186.577H118.66V185.364H119.793V193.219C119.793 193.875 119.644 194.409 119.346 194.82C119.051 195.234 118.653 195.537 118.153 195.729C117.656 195.925 117.102 196.023 116.492 196.023ZM116.452 191.827C116.923 191.827 117.321 191.719 117.646 191.504C117.97 191.288 118.217 190.978 118.386 190.574C118.555 190.17 118.64 189.686 118.64 189.122C118.64 188.572 118.557 188.086 118.391 187.665C118.226 187.245 117.98 186.915 117.656 186.676C117.331 186.437 116.93 186.318 116.452 186.318C115.955 186.318 115.541 186.444 115.21 186.696C114.881 186.948 114.634 187.286 114.469 187.71C114.306 188.134 114.225 188.605 114.225 189.122C114.225 189.652 114.308 190.121 114.474 190.529C114.643 190.933 114.891 191.252 115.219 191.484C115.551 191.712 115.962 191.827 116.452 191.827ZM125.143 193.159C124.407 193.159 123.772 192.997 123.239 192.672C122.708 192.344 122.299 191.886 122.011 191.3C121.726 190.71 121.583 190.024 121.583 189.241C121.583 188.459 121.726 187.77 122.011 187.173C122.299 186.573 122.7 186.106 123.214 185.771C123.731 185.433 124.334 185.264 125.023 185.264C125.421 185.264 125.814 185.33 126.202 185.463C126.589 185.596 126.942 185.811 127.261 186.109C127.579 186.404 127.832 186.795 128.021 187.283C128.21 187.77 128.305 188.37 128.305 189.082V189.58H122.418V188.565H127.112C127.112 188.134 127.025 187.75 126.853 187.412C126.684 187.074 126.442 186.807 126.127 186.612C125.816 186.416 125.448 186.318 125.023 186.318C124.556 186.318 124.152 186.434 123.81 186.666C123.472 186.895 123.212 187.193 123.03 187.561C122.848 187.929 122.756 188.323 122.756 188.744V189.42C122.756 189.997 122.856 190.486 123.055 190.887C123.257 191.285 123.537 191.588 123.895 191.797C124.253 192.002 124.669 192.105 125.143 192.105C125.451 192.105 125.729 192.062 125.978 191.976C126.23 191.886 126.447 191.754 126.629 191.578C126.812 191.399 126.952 191.177 127.052 190.912L128.185 191.23C128.066 191.615 127.866 191.953 127.584 192.244C127.302 192.533 126.954 192.758 126.54 192.92C126.125 193.08 125.66 193.159 125.143 193.159ZM137.348 185.364V186.358H133.391V185.364H137.348ZM134.544 183.534H135.717V190.812C135.717 191.144 135.765 191.393 135.862 191.558C135.961 191.721 136.087 191.83 136.239 191.886C136.395 191.939 136.559 191.966 136.732 191.966C136.861 191.966 136.967 191.959 137.05 191.946C137.133 191.929 137.199 191.916 137.249 191.906L137.487 192.96C137.408 192.99 137.297 193.02 137.154 193.05C137.012 193.083 136.831 193.099 136.612 193.099C136.281 193.099 135.956 193.028 135.638 192.886C135.323 192.743 135.061 192.526 134.852 192.234C134.647 191.943 134.544 191.575 134.544 191.131V183.534ZM140.45 188.406V193H139.277V182.818H140.45V186.557H140.55C140.729 186.162 140.997 185.849 141.355 185.617C141.716 185.382 142.197 185.264 142.797 185.264C143.317 185.264 143.773 185.369 144.164 185.577C144.555 185.783 144.858 186.099 145.074 186.527C145.293 186.951 145.402 187.491 145.402 188.148V193H144.229V188.227C144.229 187.621 144.071 187.152 143.756 186.82C143.445 186.486 143.012 186.318 142.459 186.318C142.074 186.318 141.73 186.399 141.425 186.562C141.123 186.724 140.884 186.961 140.709 187.273C140.536 187.584 140.45 187.962 140.45 188.406ZM150.75 193.159C150.014 193.159 149.38 192.997 148.846 192.672C148.316 192.344 147.906 191.886 147.618 191.3C147.333 190.71 147.191 190.024 147.191 189.241C147.191 188.459 147.333 187.77 147.618 187.173C147.906 186.573 148.307 186.106 148.821 185.771C149.338 185.433 149.941 185.264 150.631 185.264C151.029 185.264 151.421 185.33 151.809 185.463C152.197 185.596 152.55 185.811 152.868 186.109C153.186 186.404 153.44 186.795 153.629 187.283C153.818 187.77 153.912 188.37 153.912 189.082V189.58H148.026V188.565H152.719C152.719 188.134 152.633 187.75 152.46 187.412C152.291 187.074 152.049 186.807 151.735 186.612C151.423 186.416 151.055 186.318 150.631 186.318C150.164 186.318 149.759 186.434 149.418 186.666C149.08 186.895 148.82 187.193 148.637 187.561C148.455 187.929 148.364 188.323 148.364 188.744V189.42C148.364 189.997 148.463 190.486 148.662 190.887C148.864 191.285 149.144 191.588 149.502 191.797C149.86 192.002 150.276 192.105 150.75 192.105C151.058 192.105 151.337 192.062 151.585 191.976C151.837 191.886 152.054 191.754 152.237 191.578C152.419 191.399 152.56 191.177 152.659 190.912L153.793 191.23C153.673 191.615 153.473 191.953 153.191 192.244C152.91 192.533 152.561 192.758 152.147 192.92C151.733 193.08 151.267 193.159 150.75 193.159ZM165.879 185.364L163.055 193H161.862L159.038 185.364H160.311L162.419 191.449H162.498L164.606 185.364H165.879ZM170.256 193.159C169.567 193.159 168.962 192.995 168.442 192.667C167.925 192.339 167.52 191.88 167.229 191.29C166.94 190.7 166.796 190.01 166.796 189.222C166.796 188.426 166.94 187.732 167.229 187.138C167.52 186.545 167.925 186.085 168.442 185.756C168.962 185.428 169.567 185.264 170.256 185.264C170.946 185.264 171.549 185.428 172.066 185.756C172.586 186.085 172.991 186.545 173.279 187.138C173.571 187.732 173.716 188.426 173.716 189.222C173.716 190.01 173.571 190.7 173.279 191.29C172.991 191.88 172.586 192.339 172.066 192.667C171.549 192.995 170.946 193.159 170.256 193.159ZM170.256 192.105C170.78 192.105 171.211 191.971 171.549 191.702C171.887 191.434 172.137 191.081 172.3 190.643C172.462 190.206 172.543 189.732 172.543 189.222C172.543 188.711 172.462 188.236 172.3 187.795C172.137 187.354 171.887 186.998 171.549 186.726C171.211 186.454 170.78 186.318 170.256 186.318C169.733 186.318 169.302 186.454 168.964 186.726C168.626 186.998 168.375 187.354 168.213 187.795C168.05 188.236 167.969 188.711 167.969 189.222C167.969 189.732 168.05 190.206 168.213 190.643C168.375 191.081 168.626 191.434 168.964 191.702C169.302 191.971 169.733 192.105 170.256 192.105ZM176.681 182.818V193H175.507V182.818H176.681ZM183.642 189.878V185.364H184.816V193H183.642V191.707H183.563C183.384 192.095 183.105 192.425 182.727 192.697C182.35 192.965 181.872 193.099 181.296 193.099C180.818 193.099 180.394 192.995 180.023 192.786C179.652 192.574 179.36 192.256 179.148 191.832C178.936 191.404 178.83 190.866 178.83 190.216V185.364H180.003V190.136C180.003 190.693 180.159 191.137 180.47 191.469C180.785 191.8 181.186 191.966 181.673 191.966C181.965 191.966 182.262 191.891 182.563 191.742C182.868 191.593 183.124 191.364 183.329 191.056C183.538 190.748 183.642 190.355 183.642 189.878ZM186.964 193V185.364H188.098V186.557H188.197C188.357 186.149 188.613 185.833 188.968 185.607C189.323 185.379 189.749 185.264 190.246 185.264C190.75 185.264 191.169 185.379 191.504 185.607C191.842 185.833 192.105 186.149 192.294 186.557H192.374C192.569 186.162 192.862 185.849 193.254 185.617C193.645 185.382 194.114 185.264 194.661 185.264C195.343 185.264 195.902 185.478 196.336 185.906C196.77 186.33 196.987 186.991 196.987 187.889V193H195.814V187.889C195.814 187.326 195.66 186.923 195.352 186.681C195.043 186.439 194.68 186.318 194.263 186.318C193.726 186.318 193.31 186.481 193.015 186.805C192.72 187.127 192.572 187.535 192.572 188.028V193H191.379V187.77C191.379 187.336 191.238 186.986 190.957 186.721C190.675 186.452 190.312 186.318 189.868 186.318C189.563 186.318 189.278 186.399 189.013 186.562C188.751 186.724 188.539 186.95 188.376 187.238C188.217 187.523 188.138 187.853 188.138 188.227V193H186.964ZM202.334 193.159C201.598 193.159 200.964 192.997 200.43 192.672C199.9 192.344 199.49 191.886 199.202 191.3C198.917 190.71 198.775 190.024 198.775 189.241C198.775 188.459 198.917 187.77 199.202 187.173C199.49 186.573 199.891 186.106 200.405 185.771C200.922 185.433 201.525 185.264 202.215 185.264C202.613 185.264 203.005 185.33 203.393 185.463C203.781 185.596 204.134 185.811 204.452 186.109C204.77 186.404 205.024 186.795 205.213 187.283C205.402 187.77 205.496 188.37 205.496 189.082V189.58H199.61V188.565H204.303C204.303 188.134 204.217 187.75 204.044 187.412C203.875 187.074 203.633 186.807 203.319 186.612C203.007 186.416 202.639 186.318 202.215 186.318C201.748 186.318 201.343 186.434 201.002 186.666C200.664 186.895 200.404 187.193 200.221 187.561C200.039 187.929 199.948 188.323 199.948 188.744V189.42C199.948 189.997 200.047 190.486 200.246 190.887C200.448 191.285 200.728 191.588 201.086 191.797C201.444 192.002 201.86 192.105 202.334 192.105C202.642 192.105 202.921 192.062 203.169 191.976C203.421 191.886 203.638 191.754 203.821 191.578C204.003 191.399 204.144 191.177 204.243 190.912L205.377 191.23C205.257 191.615 205.057 191.953 204.775 192.244C204.493 192.533 204.145 192.758 203.731 192.92C203.317 193.08 202.851 193.159 202.334 193.159ZM214.321 193.159C213.631 193.159 213.026 192.995 212.506 192.667C211.989 192.339 211.585 191.88 211.293 191.29C211.005 190.7 210.86 190.01 210.86 189.222C210.86 188.426 211.005 187.732 211.293 187.138C211.585 186.545 211.989 186.085 212.506 185.756C213.026 185.428 213.631 185.264 214.321 185.264C215.01 185.264 215.613 185.428 216.13 185.756C216.651 186.085 217.055 186.545 217.343 187.138C217.635 187.732 217.781 188.426 217.781 189.222C217.781 190.01 217.635 190.7 217.343 191.29C217.055 191.88 216.651 192.339 216.13 192.667C215.613 192.995 215.01 193.159 214.321 193.159ZM214.321 192.105C214.844 192.105 215.275 191.971 215.613 191.702C215.951 191.434 216.202 191.081 216.364 190.643C216.526 190.206 216.608 189.732 216.608 189.222C216.608 188.711 216.526 188.236 216.364 187.795C216.202 187.354 215.951 186.998 215.613 186.726C215.275 186.454 214.844 186.318 214.321 186.318C213.797 186.318 213.366 186.454 213.028 186.726C212.69 186.998 212.44 187.354 212.277 187.795C212.115 188.236 212.034 188.711 212.034 189.222C212.034 189.732 212.115 190.206 212.277 190.643C212.44 191.081 212.69 191.434 213.028 191.702C213.366 191.971 213.797 192.105 214.321 192.105ZM222.972 185.364V186.358H218.856V185.364H222.972ZM220.089 193V184.31C220.089 183.872 220.192 183.508 220.397 183.216C220.603 182.924 220.869 182.705 221.198 182.56C221.526 182.414 221.872 182.341 222.237 182.341C222.525 182.341 222.76 182.364 222.943 182.411C223.125 182.457 223.261 182.5 223.35 182.54L223.012 183.554C222.953 183.534 222.87 183.509 222.764 183.479C222.661 183.45 222.525 183.435 222.356 183.435C221.968 183.435 221.688 183.532 221.516 183.728C221.347 183.924 221.262 184.21 221.262 184.588V193H220.089ZM229.31 195.844C229.111 195.844 228.934 195.827 228.778 195.794C228.622 195.764 228.515 195.734 228.455 195.705L228.753 194.67C229.181 194.78 229.537 194.777 229.822 194.661C230.107 194.548 230.354 194.206 230.563 193.636L230.782 193.04L227.958 185.364H229.23L231.338 191.449H231.418L233.526 185.364L234.809 185.384L231.557 194.114C231.411 194.501 231.231 194.823 231.015 195.078C230.8 195.337 230.55 195.529 230.265 195.655C229.983 195.781 229.665 195.844 229.31 195.844ZM239.19 193.159C238.5 193.159 237.896 192.995 237.375 192.667C236.858 192.339 236.454 191.88 236.162 191.29C235.874 190.7 235.73 190.01 235.73 189.222C235.73 188.426 235.874 187.732 236.162 187.138C236.454 186.545 236.858 186.085 237.375 185.756C237.896 185.428 238.5 185.264 239.19 185.264C239.879 185.264 240.482 185.428 240.999 185.756C241.52 186.085 241.924 186.545 242.213 187.138C242.504 187.732 242.65 188.426 242.65 189.222C242.65 190.01 242.504 190.7 242.213 191.29C241.924 191.88 241.52 192.339 240.999 192.667C240.482 192.995 239.879 193.159 239.19 193.159ZM239.19 192.105C239.713 192.105 240.144 191.971 240.482 191.702C240.82 191.434 241.071 191.081 241.233 190.643C241.396 190.206 241.477 189.732 241.477 189.222C241.477 188.711 241.396 188.236 241.233 187.795C241.071 187.354 240.82 186.998 240.482 186.726C240.144 186.454 239.713 186.318 239.19 186.318C238.666 186.318 238.235 186.454 237.897 186.726C237.559 186.998 237.309 187.354 237.146 187.795C236.984 188.236 236.903 188.711 236.903 189.222C236.903 189.732 236.984 190.206 237.146 190.643C237.309 191.081 237.559 191.434 237.897 191.702C238.235 191.971 238.666 192.105 239.19 192.105ZM249.254 189.878V185.364H250.427V193H249.254V191.707H249.174C248.995 192.095 248.717 192.425 248.339 192.697C247.961 192.965 247.484 193.099 246.907 193.099C246.43 193.099 246.005 192.995 245.634 192.786C245.263 192.574 244.971 192.256 244.759 191.832C244.547 191.404 244.441 190.866 244.441 190.216V185.364H245.614V190.136C245.614 190.693 245.77 191.137 246.082 191.469C246.397 191.8 246.798 191.966 247.285 191.966C247.576 191.966 247.873 191.891 248.175 191.742C248.48 191.593 248.735 191.364 248.94 191.056C249.149 190.748 249.254 190.355 249.254 189.878ZM252.576 193V185.364H253.709V186.517H253.789C253.928 186.139 254.18 185.833 254.545 185.597C254.909 185.362 255.32 185.244 255.778 185.244C255.864 185.244 255.971 185.246 256.101 185.249C256.23 185.253 256.328 185.258 256.394 185.264V186.457C256.354 186.447 256.263 186.433 256.121 186.413C255.981 186.389 255.834 186.378 255.678 186.378C255.307 186.378 254.975 186.456 254.684 186.612C254.395 186.764 254.167 186.976 253.998 187.248C253.832 187.516 253.749 187.823 253.749 188.168V193H252.576ZM262.896 188.406V193H261.722V185.364H262.856V186.557H262.955C263.134 186.169 263.406 185.857 263.771 185.622C264.135 185.384 264.606 185.264 265.183 185.264C265.7 185.264 266.152 185.37 266.54 185.582C266.928 185.791 267.229 186.109 267.445 186.537C267.66 186.961 267.768 187.498 267.768 188.148V193H266.594V188.227C266.594 187.627 266.439 187.16 266.127 186.825C265.816 186.487 265.388 186.318 264.844 186.318C264.47 186.318 264.135 186.399 263.84 186.562C263.549 186.724 263.318 186.961 263.149 187.273C262.98 187.584 262.896 187.962 262.896 188.406ZM273.014 193.159C272.325 193.159 271.72 192.995 271.199 192.667C270.682 192.339 270.278 191.88 269.986 191.29C269.698 190.7 269.554 190.01 269.554 189.222C269.554 188.426 269.698 187.732 269.986 187.138C270.278 186.545 270.682 186.085 271.199 185.756C271.72 185.428 272.325 185.264 273.014 185.264C273.703 185.264 274.307 185.428 274.824 185.756C275.344 186.085 275.748 186.545 276.037 187.138C276.328 187.732 276.474 188.426 276.474 189.222C276.474 190.01 276.328 190.7 276.037 191.29C275.748 191.88 275.344 192.339 274.824 192.667C274.307 192.995 273.703 193.159 273.014 193.159ZM273.014 192.105C273.538 192.105 273.969 191.971 274.307 191.702C274.645 191.434 274.895 191.081 275.057 190.643C275.22 190.206 275.301 189.732 275.301 189.222C275.301 188.711 275.22 188.236 275.057 187.795C274.895 187.354 274.645 186.998 274.307 186.726C273.969 186.454 273.538 186.318 273.014 186.318C272.49 186.318 272.059 186.454 271.721 186.726C271.383 186.998 271.133 187.354 270.971 187.795C270.808 188.236 270.727 188.711 270.727 189.222C270.727 189.732 270.808 190.206 270.971 190.643C271.133 191.081 271.383 191.434 271.721 191.702C272.059 191.971 272.49 192.105 273.014 192.105ZM281.586 185.364V186.358H277.629V185.364H281.586ZM278.782 183.534H279.956V190.812C279.956 191.144 280.004 191.393 280.1 191.558C280.199 191.721 280.325 191.83 280.478 191.886C280.633 191.939 280.797 191.966 280.97 191.966C281.099 191.966 281.205 191.959 281.288 191.946C281.371 191.929 281.437 191.916 281.487 191.906L281.725 192.96C281.646 192.99 281.535 193.02 281.392 193.05C281.25 193.083 281.069 193.099 280.85 193.099C280.519 193.099 280.194 193.028 279.876 192.886C279.561 192.743 279.299 192.526 279.091 192.234C278.885 191.943 278.782 191.575 278.782 191.131V183.534ZM283.351 193V185.364H284.525V193H283.351ZM283.948 184.091C283.719 184.091 283.522 184.013 283.356 183.857C283.194 183.701 283.113 183.514 283.113 183.295C283.113 183.077 283.194 182.889 283.356 182.734C283.522 182.578 283.719 182.5 283.948 182.5C284.176 182.5 284.372 182.578 284.534 182.734C284.7 182.889 284.783 183.077 284.783 183.295C284.783 183.514 284.7 183.701 284.534 183.857C284.372 184.013 284.176 184.091 283.948 184.091ZM290.074 185.364V186.358H285.958V185.364H290.074ZM287.191 193V184.31C287.191 183.872 287.293 183.508 287.499 183.216C287.704 182.924 287.971 182.705 288.299 182.56C288.627 182.414 288.974 182.341 289.338 182.341C289.627 182.341 289.862 182.364 290.044 182.411C290.227 182.457 290.362 182.5 290.452 182.54L290.114 183.554C290.054 183.534 289.971 183.509 289.865 183.479C289.762 183.45 289.627 183.435 289.458 183.435C289.07 183.435 288.79 183.532 288.617 183.728C288.448 183.924 288.364 184.21 288.364 184.588V193H287.191ZM291.718 193V185.364H292.892V193H291.718ZM292.315 184.091C292.086 184.091 291.889 184.013 291.723 183.857C291.561 183.701 291.48 183.514 291.48 183.295C291.48 183.077 291.561 182.889 291.723 182.734C291.889 182.578 292.086 182.5 292.315 182.5C292.544 182.5 292.739 182.578 292.902 182.734C293.067 182.889 293.15 183.077 293.15 183.295C293.15 183.514 293.067 183.701 292.902 183.857C292.739 184.013 292.544 184.091 292.315 184.091ZM298.143 193.159C297.427 193.159 296.811 192.99 296.294 192.652C295.776 192.314 295.379 191.848 295.1 191.255C294.822 190.662 294.683 189.984 294.683 189.222C294.683 188.446 294.825 187.762 295.11 187.168C295.399 186.572 295.8 186.106 296.313 185.771C296.83 185.433 297.434 185.264 298.123 185.264C298.66 185.264 299.144 185.364 299.575 185.562C300.006 185.761 300.359 186.04 300.634 186.398C300.909 186.756 301.079 187.173 301.146 187.651H299.972C299.883 187.303 299.684 186.994 299.376 186.726C299.071 186.454 298.66 186.318 298.143 186.318C297.686 186.318 297.285 186.437 296.94 186.676C296.598 186.911 296.332 187.245 296.139 187.675C295.95 188.103 295.856 188.605 295.856 189.182C295.856 189.772 295.949 190.286 296.134 190.723C296.323 191.161 296.588 191.5 296.93 191.742C297.275 191.984 297.679 192.105 298.143 192.105C298.448 192.105 298.725 192.052 298.973 191.946C299.222 191.84 299.432 191.688 299.605 191.489C299.777 191.29 299.9 191.051 299.972 190.773H301.146C301.079 191.223 300.915 191.629 300.654 191.991C300.395 192.349 300.052 192.634 299.624 192.846C299.2 193.055 298.706 193.159 298.143 193.159ZM305.108 193.179C304.624 193.179 304.185 193.088 303.791 192.906C303.396 192.72 303.083 192.453 302.851 192.105C302.619 191.754 302.503 191.33 302.503 190.832C302.503 190.395 302.589 190.04 302.762 189.768C302.934 189.493 303.164 189.278 303.453 189.122C303.741 188.966 304.059 188.85 304.407 188.774C304.758 188.695 305.111 188.632 305.466 188.585C305.93 188.526 306.306 188.481 306.595 188.451C306.886 188.418 307.098 188.363 307.231 188.287C307.367 188.211 307.435 188.078 307.435 187.889V187.849C307.435 187.359 307.301 186.978 307.032 186.706C306.767 186.434 306.364 186.298 305.824 186.298C305.264 186.298 304.825 186.421 304.507 186.666C304.188 186.911 303.965 187.173 303.835 187.452L302.722 187.054C302.921 186.59 303.186 186.229 303.517 185.97C303.852 185.708 304.217 185.526 304.611 185.423C305.009 185.317 305.4 185.264 305.784 185.264C306.03 185.264 306.311 185.294 306.629 185.354C306.951 185.41 307.261 185.528 307.559 185.707C307.861 185.886 308.111 186.156 308.31 186.517C308.509 186.878 308.608 187.362 308.608 187.969V193H307.435V191.966H307.375C307.296 192.132 307.163 192.309 306.977 192.498C306.792 192.687 306.545 192.848 306.237 192.98C305.928 193.113 305.552 193.179 305.108 193.179ZM305.287 192.125C305.751 192.125 306.142 192.034 306.46 191.852C306.782 191.669 307.024 191.434 307.186 191.146C307.352 190.857 307.435 190.554 307.435 190.236V189.162C307.385 189.222 307.276 189.276 307.107 189.326C306.941 189.372 306.749 189.414 306.53 189.45C306.315 189.483 306.104 189.513 305.899 189.54C305.696 189.563 305.532 189.583 305.406 189.599C305.102 189.639 304.816 189.704 304.551 189.793C304.289 189.879 304.077 190.01 303.915 190.186C303.756 190.358 303.676 190.594 303.676 190.892C303.676 191.3 303.827 191.608 304.129 191.817C304.434 192.022 304.82 192.125 305.287 192.125ZM314.071 185.364V186.358H310.113V185.364H314.071ZM311.267 183.534H312.44V190.812C312.44 191.144 312.488 191.393 312.584 191.558C312.684 191.721 312.81 191.83 312.962 191.886C313.118 191.939 313.282 191.966 313.454 191.966C313.583 191.966 313.69 191.959 313.772 191.946C313.855 191.929 313.922 191.916 313.971 191.906L314.21 192.96C314.13 192.99 314.019 193.02 313.877 193.05C313.734 193.083 313.554 193.099 313.335 193.099C313.003 193.099 312.679 193.028 312.36 192.886C312.046 192.743 311.784 192.526 311.575 192.234C311.369 191.943 311.267 191.575 311.267 191.131V183.534ZM315.836 193V185.364H317.009V193H315.836ZM316.432 184.091C316.203 184.091 316.006 184.013 315.841 183.857C315.678 183.701 315.597 183.514 315.597 183.295C315.597 183.077 315.678 182.889 315.841 182.734C316.006 182.578 316.203 182.5 316.432 182.5C316.661 182.5 316.856 182.578 317.019 182.734C317.185 182.889 317.267 183.077 317.267 183.295C317.267 183.514 317.185 183.701 317.019 183.857C316.856 184.013 316.661 184.091 316.432 184.091ZM322.26 193.159C321.571 193.159 320.966 192.995 320.445 192.667C319.928 192.339 319.524 191.88 319.232 191.29C318.944 190.7 318.8 190.01 318.8 189.222C318.8 188.426 318.944 187.732 319.232 187.138C319.524 186.545 319.928 186.085 320.445 185.756C320.966 185.428 321.571 185.264 322.26 185.264C322.95 185.264 323.553 185.428 324.07 185.756C324.59 186.085 324.994 186.545 325.283 187.138C325.575 187.732 325.72 188.426 325.72 189.222C325.72 190.01 325.575 190.7 325.283 191.29C324.994 191.88 324.59 192.339 324.07 192.667C323.553 192.995 322.95 193.159 322.26 193.159ZM322.26 192.105C322.784 192.105 323.215 191.971 323.553 191.702C323.891 191.434 324.141 191.081 324.303 190.643C324.466 190.206 324.547 189.732 324.547 189.222C324.547 188.711 324.466 188.236 324.303 187.795C324.141 187.354 323.891 186.998 323.553 186.726C323.215 186.454 322.784 186.318 322.26 186.318C321.736 186.318 321.306 186.454 320.968 186.726C320.629 186.998 320.379 187.354 320.217 187.795C320.054 188.236 319.973 188.711 319.973 189.222C319.973 189.732 320.054 190.206 320.217 190.643C320.379 191.081 320.629 191.434 320.968 191.702C321.306 191.971 321.736 192.105 322.26 192.105ZM328.685 188.406V193H327.511V185.364H328.645V186.557H328.744C328.923 186.169 329.195 185.857 329.56 185.622C329.924 185.384 330.395 185.264 330.972 185.264C331.489 185.264 331.941 185.37 332.329 185.582C332.717 185.791 333.018 186.109 333.234 186.537C333.449 186.961 333.557 187.498 333.557 188.148V193H332.384V188.227C332.384 187.627 332.228 187.16 331.916 186.825C331.605 186.487 331.177 186.318 330.634 186.318C330.259 186.318 329.924 186.399 329.629 186.562C329.338 186.724 329.107 186.961 328.938 187.273C328.769 187.584 328.685 187.962 328.685 188.406ZM345.047 187.074L343.993 187.372C343.927 187.196 343.829 187.026 343.7 186.86C343.574 186.691 343.402 186.552 343.183 186.442C342.964 186.333 342.684 186.278 342.343 186.278C341.876 186.278 341.486 186.386 341.175 186.602C340.866 186.814 340.712 187.084 340.712 187.412C340.712 187.704 340.818 187.934 341.03 188.103C341.242 188.272 341.574 188.413 342.025 188.526L343.158 188.804C343.841 188.97 344.35 189.223 344.684 189.565C345.019 189.903 345.187 190.339 345.187 190.872C345.187 191.31 345.061 191.701 344.809 192.045C344.56 192.39 344.212 192.662 343.765 192.861C343.317 193.06 342.797 193.159 342.204 193.159C341.425 193.159 340.78 192.99 340.27 192.652C339.759 192.314 339.436 191.82 339.3 191.17L340.414 190.892C340.52 191.303 340.72 191.611 341.015 191.817C341.314 192.022 341.703 192.125 342.184 192.125C342.731 192.125 343.165 192.009 343.486 191.777C343.811 191.542 343.974 191.26 343.974 190.932C343.974 190.667 343.881 190.445 343.695 190.266C343.51 190.083 343.224 189.947 342.84 189.858L341.567 189.56C340.868 189.394 340.354 189.137 340.026 188.789C339.701 188.438 339.539 187.999 339.539 187.472C339.539 187.041 339.66 186.66 339.902 186.328C340.147 185.997 340.48 185.737 340.901 185.548C341.325 185.359 341.806 185.264 342.343 185.264C343.099 185.264 343.692 185.43 344.123 185.761C344.557 186.093 344.865 186.53 345.047 187.074ZM350.055 193.159C349.366 193.159 348.761 192.995 348.24 192.667C347.723 192.339 347.319 191.88 347.027 191.29C346.739 190.7 346.595 190.01 346.595 189.222C346.595 188.426 346.739 187.732 347.027 187.138C347.319 186.545 347.723 186.085 348.24 185.756C348.761 185.428 349.366 185.264 350.055 185.264C350.744 185.264 351.348 185.428 351.865 185.756C352.385 186.085 352.789 186.545 353.078 187.138C353.369 187.732 353.515 188.426 353.515 189.222C353.515 190.01 353.369 190.7 353.078 191.29C352.789 191.88 352.385 192.339 351.865 192.667C351.348 192.995 350.744 193.159 350.055 193.159ZM350.055 192.105C350.579 192.105 351.01 191.971 351.348 191.702C351.686 191.434 351.936 191.081 352.098 190.643C352.261 190.206 352.342 189.732 352.342 189.222C352.342 188.711 352.261 188.236 352.098 187.795C351.936 187.354 351.686 186.998 351.348 186.726C351.01 186.454 350.579 186.318 350.055 186.318C349.531 186.318 349.1 186.454 348.762 186.726C348.424 186.998 348.174 187.354 348.012 187.795C347.849 188.236 347.768 188.711 347.768 189.222C347.768 189.732 347.849 190.206 348.012 190.643C348.174 191.081 348.424 191.434 348.762 191.702C349.1 191.971 349.531 192.105 350.055 192.105ZM360.119 189.878V185.364H361.292V193H360.119V191.707H360.039C359.86 192.095 359.582 192.425 359.204 192.697C358.826 192.965 358.349 193.099 357.772 193.099C357.295 193.099 356.871 192.995 356.499 192.786C356.128 192.574 355.837 192.256 355.624 191.832C355.412 191.404 355.306 190.866 355.306 190.216V185.364H356.48V190.136C356.48 190.693 356.635 191.137 356.947 191.469C357.262 191.8 357.663 191.966 358.15 191.966C358.442 191.966 358.738 191.891 359.04 191.742C359.345 191.593 359.6 191.364 359.806 191.056C360.014 190.748 360.119 190.355 360.119 189.878ZM364.614 188.406V193H363.441V185.364H364.575V186.557H364.674C364.853 186.169 365.125 185.857 365.489 185.622C365.854 185.384 366.325 185.264 366.901 185.264C367.418 185.264 367.871 185.37 368.259 185.582C368.646 185.791 368.948 186.109 369.163 186.537C369.379 186.961 369.487 187.498 369.487 188.148V193H368.313V188.227C368.313 187.627 368.157 187.16 367.846 186.825C367.534 186.487 367.107 186.318 366.563 186.318C366.189 186.318 365.854 186.399 365.559 186.562C365.267 186.724 365.037 186.961 364.868 187.273C364.699 187.584 364.614 187.962 364.614 188.406ZM374.514 193.159C373.878 193.159 373.316 192.998 372.829 192.677C372.341 192.352 371.96 191.895 371.685 191.305C371.41 190.711 371.273 190.01 371.273 189.202C371.273 188.4 371.41 187.704 371.685 187.114C371.96 186.524 372.343 186.068 372.834 185.746C373.324 185.425 373.891 185.264 374.534 185.264C375.031 185.264 375.424 185.347 375.712 185.513C376.004 185.675 376.226 185.861 376.378 186.07C376.534 186.275 376.655 186.444 376.741 186.577H376.841V182.818H378.014V193H376.881V191.827H376.741C376.655 191.966 376.532 192.142 376.373 192.354C376.214 192.562 375.987 192.75 375.692 192.915C375.397 193.078 375.005 193.159 374.514 193.159ZM374.673 192.105C375.144 192.105 375.541 191.982 375.866 191.737C376.191 191.489 376.438 191.146 376.607 190.708C376.776 190.267 376.861 189.759 376.861 189.182C376.861 188.612 376.778 188.113 376.612 187.685C376.446 187.254 376.201 186.92 375.876 186.681C375.551 186.439 375.15 186.318 374.673 186.318C374.176 186.318 373.762 186.446 373.43 186.701C373.102 186.953 372.855 187.296 372.689 187.73C372.527 188.161 372.446 188.645 372.446 189.182C372.446 189.725 372.529 190.219 372.694 190.663C372.863 191.104 373.112 191.455 373.44 191.717C373.772 191.976 374.183 192.105 374.673 192.105ZM385.735 187.074L384.681 187.372C384.615 187.196 384.517 187.026 384.388 186.86C384.262 186.691 384.089 186.552 383.871 186.442C383.652 186.333 383.372 186.278 383.03 186.278C382.563 186.278 382.174 186.386 381.862 186.602C381.554 186.814 381.4 187.084 381.4 187.412C381.4 187.704 381.506 187.934 381.718 188.103C381.93 188.272 382.261 188.413 382.712 188.526L383.846 188.804C384.528 188.97 385.037 189.223 385.372 189.565C385.707 189.903 385.874 190.339 385.874 190.872C385.874 191.31 385.748 191.701 385.496 192.045C385.248 192.39 384.9 192.662 384.452 192.861C384.005 193.06 383.484 193.159 382.891 193.159C382.112 193.159 381.468 192.99 380.957 192.652C380.447 192.314 380.124 191.82 379.988 191.17L381.101 190.892C381.207 191.303 381.408 191.611 381.703 191.817C382.001 192.022 382.391 192.125 382.871 192.125C383.418 192.125 383.852 192.009 384.174 191.777C384.499 191.542 384.661 191.26 384.661 190.932C384.661 190.667 384.568 190.445 384.383 190.266C384.197 190.083 383.912 189.947 383.528 189.858L382.255 189.56C381.555 189.394 381.042 189.137 380.714 188.789C380.389 188.438 380.226 187.999 380.226 187.472C380.226 187.041 380.347 186.66 380.589 186.328C380.835 185.997 381.168 185.737 381.589 185.548C382.013 185.359 382.493 185.264 383.03 185.264C383.786 185.264 384.379 185.43 384.81 185.761C385.244 186.093 385.553 186.53 385.735 187.074ZM389.39 191.608L389.311 192.145C389.254 192.523 389.168 192.927 389.052 193.358C388.94 193.789 388.822 194.195 388.699 194.576C388.577 194.957 388.475 195.26 388.396 195.486H387.501C387.544 195.274 387.6 194.994 387.67 194.646C387.74 194.298 387.809 193.908 387.879 193.477C387.952 193.05 388.011 192.612 388.058 192.165L388.118 191.608H389.39Z" fill="white" fill-opacity="0.7"/>
<path d="M395.324 193.49H396.766C396.831 193.863 397.018 194.153 397.326 194.358C397.643 194.563 398.058 194.666 398.572 194.666C399.29 194.666 399.827 194.479 400.182 194.106C400.48 193.789 400.63 193.345 400.63 192.776V191.838C400.088 192.473 399.281 192.79 398.208 192.79C397.237 192.79 396.448 192.44 395.842 191.74C395.272 191.087 394.988 190.237 394.988 189.192C394.988 187.979 395.333 187.041 396.024 186.378C396.612 185.799 397.368 185.51 398.292 185.51C399.337 185.51 400.126 185.902 400.658 186.686L400.868 185.72H401.974V192.846C401.974 193.761 401.642 194.479 400.98 195.002C400.382 195.487 399.594 195.73 398.614 195.73C397.596 195.73 396.798 195.501 396.22 195.044C395.734 194.661 395.436 194.143 395.324 193.49ZM396.388 189.22C396.388 190.013 396.621 190.634 397.088 191.082C397.47 191.455 397.942 191.642 398.502 191.642C399.239 191.642 399.804 191.399 400.196 190.914C400.532 190.503 400.7 189.953 400.7 189.262C400.7 188.375 400.471 187.699 400.014 187.232C399.631 186.849 399.127 186.658 398.502 186.658C397.811 186.658 397.279 186.896 396.906 187.372C396.56 187.82 396.388 188.436 396.388 189.22ZM403.519 189.36C403.519 188.025 403.916 187.017 404.709 186.336C405.344 185.785 406.146 185.51 407.117 185.51C408.246 185.51 409.133 185.869 409.777 186.588C410.393 187.26 410.701 188.184 410.701 189.36C410.701 190.676 410.314 191.679 409.539 192.37C408.904 192.93 408.092 193.21 407.103 193.21C405.974 193.21 405.082 192.837 404.429 192.09C403.822 191.409 403.519 190.499 403.519 189.36ZM404.919 189.36C404.919 190.293 405.157 191.007 405.633 191.502C406.025 191.913 406.524 192.118 407.131 192.118C407.84 192.118 408.386 191.852 408.769 191.32C409.124 190.835 409.301 190.181 409.301 189.36C409.301 188.408 409.068 187.689 408.601 187.204C408.218 186.803 407.724 186.602 407.117 186.602C406.417 186.602 405.871 186.868 405.479 187.4C405.106 187.885 404.919 188.539 404.919 189.36ZM419.683 191.922V193.07C419.338 193.163 419.006 193.21 418.689 193.21C418.017 193.21 417.513 193 417.177 192.58C416.888 192.235 416.743 191.773 416.743 191.194V186.868H415.665V185.72H416.743L416.827 183.97H418.087V185.72H419.655V186.868H418.087V191.222C418.087 191.763 418.344 192.034 418.857 192.034C419.1 192.034 419.375 191.997 419.683 191.922ZM420.458 189.36C420.458 188.025 420.855 187.017 421.648 186.336C422.283 185.785 423.086 185.51 424.056 185.51C425.186 185.51 426.072 185.869 426.716 186.588C427.332 187.26 427.64 188.184 427.64 189.36C427.64 190.676 427.253 191.679 426.478 192.37C425.844 192.93 425.032 193.21 424.042 193.21C422.913 193.21 422.022 192.837 421.368 192.09C420.762 191.409 420.458 190.499 420.458 189.36ZM421.858 189.36C421.858 190.293 422.096 191.007 422.572 191.502C422.964 191.913 423.464 192.118 424.07 192.118C424.78 192.118 425.326 191.852 425.708 191.32C426.063 190.835 426.24 190.181 426.24 189.36C426.24 188.408 426.007 187.689 425.54 187.204C425.158 186.803 424.663 186.602 424.056 186.602C423.356 186.602 422.81 186.868 422.418 187.4C422.045 187.885 421.858 188.539 421.858 189.36ZM442.279 193H440.697L439.703 190.452H434.901L433.893 193H432.395L436.539 182.92H438.149L442.279 193ZM437.323 184.348L435.363 189.29H439.241L437.323 184.348ZM443.189 185.72H444.533V190.494C444.533 191.539 445.037 192.062 446.045 192.062C446.661 192.062 447.133 191.843 447.459 191.404C447.711 191.068 447.837 190.653 447.837 190.158V185.72H449.181V193H448.075L447.921 192.16C447.408 192.86 446.68 193.21 445.737 193.21C444.907 193.21 444.267 192.953 443.819 192.44C443.399 191.964 443.189 191.306 443.189 190.466V185.72ZM457.714 193H456.608L456.37 191.978C455.81 192.799 455.003 193.21 453.948 193.21C452.931 193.21 452.128 192.841 451.54 192.104C450.999 191.423 450.728 190.522 450.728 189.402C450.728 188.049 451.073 187.031 451.764 186.35C452.343 185.79 453.099 185.51 454.032 185.51C455.04 185.51 455.819 185.888 456.37 186.644V182.92H457.714V193ZM452.128 189.43C452.128 190.335 452.352 191.021 452.8 191.488C453.173 191.871 453.654 192.062 454.242 192.062C454.97 192.062 455.535 191.787 455.936 191.236C456.272 190.76 456.44 190.163 456.44 189.444C456.44 188.501 456.216 187.783 455.768 187.288C455.385 186.868 454.877 186.658 454.242 186.658C453.533 186.658 452.996 186.915 452.632 187.428C452.296 187.895 452.128 188.562 452.128 189.43ZM461.107 184.502H459.595V182.92H461.107V184.502ZM461.023 193H459.679V185.72H461.023V193ZM462.568 189.36C462.568 188.025 462.964 187.017 463.758 186.336C464.392 185.785 465.195 185.51 466.166 185.51C467.295 185.51 468.182 185.869 468.826 186.588C469.442 187.26 469.75 188.184 469.75 189.36C469.75 190.676 469.362 191.679 468.588 192.37C467.953 192.93 467.141 193.21 466.152 193.21C465.022 193.21 464.131 192.837 463.478 192.09C462.871 191.409 462.568 190.499 462.568 189.36ZM463.968 189.36C463.968 190.293 464.206 191.007 464.682 191.502C465.074 191.913 465.573 192.118 466.18 192.118C466.889 192.118 467.435 191.852 467.818 191.32C468.172 190.835 468.35 190.181 468.35 189.36C468.35 188.408 468.116 187.689 467.65 187.204C467.267 186.803 466.772 186.602 466.166 186.602C465.466 186.602 464.92 186.868 464.528 187.4C464.154 187.885 463.968 188.539 463.968 189.36ZM473.014 193H471.39V191.376H473.014V193Z" fill="#64B4FA"/>
<path d="M394.428 194.26H474.302V195.45H394.428V194.26Z" fill="#64B4FA"/>
<rect x="60.5" y="126.5" width="15" height="15" rx="1.5" stroke="white" stroke-opacity="0.4"/>
<path d="M85.233 126.818H86.7045L90.1648 135.27H90.2841L93.7443 126.818H95.2159V137H94.0625V129.264H93.9631L90.7812 137H89.6676L86.4858 129.264H86.3864V137H85.233V126.818ZM102.341 133.878V129.364H103.515V137H102.341V135.707H102.262C102.083 136.095 101.805 136.425 101.427 136.697C101.049 136.965 100.572 137.099 99.9949 137.099C99.5176 137.099 99.0933 136.995 98.7221 136.786C98.3509 136.574 98.0592 136.256 97.8471 135.832C97.635 135.404 97.5289 134.866 97.5289 134.216V129.364H98.7022V134.136C98.7022 134.693 98.858 135.137 99.1696 135.469C99.4844 135.8 99.8855 135.966 100.373 135.966C100.664 135.966 100.961 135.891 101.263 135.742C101.568 135.593 101.823 135.364 102.028 135.056C102.237 134.748 102.341 134.355 102.341 133.878ZM108.985 129.364V130.358H105.027V129.364H108.985ZM106.181 127.534H107.354V134.812C107.354 135.144 107.402 135.393 107.498 135.558C107.598 135.721 107.724 135.83 107.876 135.886C108.032 135.939 108.196 135.966 108.368 135.966C108.498 135.966 108.604 135.959 108.686 135.946C108.769 135.929 108.836 135.916 108.885 135.906L109.124 136.96C109.044 136.99 108.933 137.02 108.791 137.05C108.648 137.083 108.468 137.099 108.249 137.099C107.917 137.099 107.593 137.028 107.275 136.886C106.96 136.743 106.698 136.526 106.489 136.234C106.283 135.943 106.181 135.575 106.181 135.131V127.534ZM113.869 137.159C113.134 137.159 112.499 136.997 111.965 136.672C111.435 136.344 111.026 135.886 110.737 135.3C110.452 134.71 110.31 134.024 110.31 133.241C110.31 132.459 110.452 131.77 110.737 131.173C111.026 130.573 111.427 130.106 111.94 129.771C112.457 129.433 113.061 129.264 113.75 129.264C114.148 129.264 114.54 129.33 114.928 129.463C115.316 129.596 115.669 129.811 115.987 130.109C116.305 130.404 116.559 130.795 116.748 131.283C116.937 131.77 117.031 132.37 117.031 133.082V133.58H111.145V132.565H115.838C115.838 132.134 115.752 131.75 115.58 131.412C115.411 131.074 115.169 130.807 114.854 130.612C114.542 130.416 114.174 130.318 113.75 130.318C113.283 130.318 112.878 130.434 112.537 130.666C112.199 130.895 111.939 131.193 111.756 131.561C111.574 131.929 111.483 132.323 111.483 132.744V133.42C111.483 133.997 111.582 134.486 111.781 134.887C111.983 135.285 112.263 135.588 112.621 135.797C112.979 136.002 113.395 136.105 113.869 136.105C114.178 136.105 114.456 136.062 114.705 135.976C114.956 135.886 115.174 135.754 115.356 135.578C115.538 135.399 115.679 135.177 115.778 134.912L116.912 135.23C116.793 135.615 116.592 135.953 116.31 136.244C116.029 136.533 115.681 136.758 115.266 136.92C114.852 137.08 114.386 137.159 113.869 137.159ZM124.484 137L122.157 129.364H123.39L125.04 135.21H125.12L126.751 129.364H128.004L129.614 135.19H129.694L131.344 129.364H132.577L130.251 137H129.097L127.427 131.134H127.308L125.637 137H124.484ZM135.302 132.406V137H134.129V126.818H135.302V130.557H135.401C135.58 130.162 135.849 129.849 136.207 129.617C136.568 129.382 137.049 129.264 137.648 129.264C138.169 129.264 138.625 129.369 139.016 129.577C139.407 129.783 139.71 130.099 139.925 130.527C140.144 130.951 140.254 131.491 140.254 132.148V137H139.08V132.227C139.08 131.621 138.923 131.152 138.608 130.82C138.296 130.486 137.864 130.318 137.31 130.318C136.926 130.318 136.581 130.399 136.276 130.562C135.975 130.724 135.736 130.961 135.56 131.273C135.388 131.584 135.302 131.962 135.302 132.406ZM145.602 137.159C144.866 137.159 144.231 136.997 143.698 136.672C143.167 136.344 142.758 135.886 142.47 135.3C142.185 134.71 142.042 134.024 142.042 133.241C142.042 132.459 142.185 131.77 142.47 131.173C142.758 130.573 143.159 130.106 143.673 129.771C144.19 129.433 144.793 129.264 145.482 129.264C145.88 129.264 146.273 129.33 146.661 129.463C147.048 129.596 147.401 129.811 147.72 130.109C148.038 130.404 148.291 130.795 148.48 131.283C148.669 131.77 148.764 132.37 148.764 133.082V133.58H142.877V132.565H147.57C147.57 132.134 147.484 131.75 147.312 131.412C147.143 131.074 146.901 130.807 146.586 130.612C146.275 130.416 145.907 130.318 145.482 130.318C145.015 130.318 144.611 130.434 144.269 130.666C143.931 130.895 143.671 131.193 143.489 131.561C143.307 131.929 143.215 132.323 143.215 132.744V133.42C143.215 133.997 143.315 134.486 143.514 134.887C143.716 135.285 143.996 135.588 144.354 135.797C144.712 136.002 145.128 136.105 145.602 136.105C145.91 136.105 146.188 136.062 146.437 135.976C146.689 135.886 146.906 135.754 147.088 135.578C147.271 135.399 147.411 135.177 147.511 134.912L148.644 135.23C148.525 135.615 148.325 135.953 148.043 136.244C147.761 136.533 147.413 136.758 146.999 136.92C146.584 137.08 146.119 137.159 145.602 137.159ZM151.722 132.406V137H150.548V129.364H151.682V130.557H151.781C151.96 130.169 152.232 129.857 152.597 129.622C152.961 129.384 153.432 129.264 154.009 129.264C154.526 129.264 154.978 129.37 155.366 129.582C155.754 129.791 156.055 130.109 156.271 130.537C156.486 130.961 156.594 131.498 156.594 132.148V137H155.421V132.227C155.421 131.627 155.265 131.16 154.953 130.825C154.642 130.487 154.214 130.318 153.671 130.318C153.296 130.318 152.961 130.399 152.666 130.562C152.375 130.724 152.144 130.961 151.975 131.273C151.806 131.584 151.722 131.962 151.722 132.406ZM164.684 137L161.9 126.818H163.153L165.281 135.111H165.38L167.548 126.818H168.94L171.107 135.111H171.207L173.335 126.818H174.587L171.803 137H170.531L168.283 128.886H168.204L165.957 137H164.684ZM178.455 137.159C177.719 137.159 177.085 136.997 176.551 136.672C176.021 136.344 175.612 135.886 175.323 135.3C175.038 134.71 174.896 134.024 174.896 133.241C174.896 132.459 175.038 131.77 175.323 131.173C175.612 130.573 176.013 130.106 176.526 129.771C177.043 129.433 177.647 129.264 178.336 129.264C178.734 129.264 179.126 129.33 179.514 129.463C179.902 129.596 180.255 129.811 180.573 130.109C180.891 130.404 181.145 130.795 181.334 131.283C181.523 131.77 181.617 132.37 181.617 133.082V133.58H175.731V132.565H180.424C180.424 132.134 180.338 131.75 180.165 131.412C179.996 131.074 179.754 130.807 179.44 130.612C179.128 130.416 178.76 130.318 178.336 130.318C177.869 130.318 177.464 130.434 177.123 130.666C176.785 130.895 176.525 131.193 176.342 131.561C176.16 131.929 176.069 132.323 176.069 132.744V133.42C176.069 133.997 176.168 134.486 176.367 134.887C176.569 135.285 176.849 135.588 177.207 135.797C177.565 136.002 177.981 136.105 178.455 136.105C178.763 136.105 179.042 136.062 179.29 135.976C179.542 135.886 179.759 135.754 179.942 135.578C180.124 135.399 180.265 135.177 180.364 134.912L181.498 135.23C181.379 135.615 181.178 135.953 180.896 136.244C180.615 136.533 180.267 136.758 179.852 136.92C179.438 137.08 178.972 137.159 178.455 137.159ZM183.561 137V126.818H184.734V130.577H184.834C184.92 130.444 185.039 130.275 185.192 130.07C185.348 129.861 185.57 129.675 185.858 129.513C186.15 129.347 186.544 129.264 187.041 129.264C187.684 129.264 188.251 129.425 188.741 129.746C189.232 130.068 189.615 130.524 189.89 131.114C190.165 131.704 190.303 132.4 190.303 133.202C190.303 134.01 190.165 134.711 189.89 135.305C189.615 135.895 189.234 136.352 188.746 136.677C188.259 136.998 187.697 137.159 187.061 137.159C186.571 137.159 186.178 137.078 185.883 136.915C185.588 136.75 185.361 136.562 185.202 136.354C185.043 136.142 184.92 135.966 184.834 135.827H184.695V137H183.561ZM184.714 133.182C184.714 133.759 184.799 134.267 184.968 134.708C185.137 135.146 185.384 135.489 185.709 135.737C186.034 135.982 186.431 136.105 186.902 136.105C187.393 136.105 187.802 135.976 188.13 135.717C188.461 135.455 188.71 135.104 188.876 134.663C189.045 134.219 189.129 133.725 189.129 133.182C189.129 132.645 189.046 132.161 188.881 131.73C188.718 131.296 188.471 130.953 188.14 130.701C187.812 130.446 187.399 130.318 186.902 130.318C186.425 130.318 186.024 130.439 185.699 130.681C185.374 130.92 185.129 131.254 184.963 131.685C184.797 132.113 184.714 132.612 184.714 133.182ZM195.299 137.159C194.563 137.159 193.929 136.997 193.395 136.672C192.865 136.344 192.455 135.886 192.167 135.3C191.882 134.71 191.739 134.024 191.739 133.241C191.739 132.459 191.882 131.77 192.167 131.173C192.455 130.573 192.856 130.106 193.37 129.771C193.887 129.433 194.49 129.264 195.18 129.264C195.577 129.264 195.97 129.33 196.358 129.463C196.746 129.596 197.099 129.811 197.417 130.109C197.735 130.404 197.989 130.795 198.178 131.283C198.366 131.77 198.461 132.37 198.461 133.082V133.58H192.575V132.565H197.268C197.268 132.134 197.182 131.75 197.009 131.412C196.84 131.074 196.598 130.807 196.283 130.612C195.972 130.416 195.604 130.318 195.18 130.318C194.712 130.318 194.308 130.434 193.967 130.666C193.629 130.895 193.368 131.193 193.186 131.561C193.004 131.929 192.913 132.323 192.913 132.744V133.42C192.913 133.997 193.012 134.486 193.211 134.887C193.413 135.285 193.693 135.588 194.051 135.797C194.409 136.002 194.825 136.105 195.299 136.105C195.607 136.105 195.886 136.062 196.134 135.976C196.386 135.886 196.603 135.754 196.786 135.578C196.968 135.399 197.109 135.177 197.208 134.912L198.342 135.23C198.222 135.615 198.022 135.953 197.74 136.244C197.458 136.533 197.11 136.758 196.696 136.92C196.282 137.08 195.816 137.159 195.299 137.159ZM200.916 129.364L202.745 132.486L204.575 129.364H205.927L203.461 133.182L205.927 137H204.575L202.745 134.037L200.916 137H199.563L201.99 133.182L199.563 129.364H200.916ZM211.539 137V129.364H212.712V137H211.539ZM212.135 128.091C211.907 128.091 211.709 128.013 211.544 127.857C211.381 127.701 211.3 127.514 211.3 127.295C211.3 127.077 211.381 126.889 211.544 126.734C211.709 126.578 211.907 126.5 212.135 126.5C212.364 126.5 212.56 126.578 212.722 126.734C212.888 126.889 212.971 127.077 212.971 127.295C212.971 127.514 212.888 127.701 212.722 127.857C212.56 128.013 212.364 128.091 212.135 128.091ZM220.27 131.074L219.216 131.372C219.15 131.196 219.052 131.026 218.923 130.86C218.797 130.691 218.624 130.552 218.406 130.442C218.187 130.333 217.907 130.278 217.566 130.278C217.098 130.278 216.709 130.386 216.397 130.602C216.089 130.814 215.935 131.084 215.935 131.412C215.935 131.704 216.041 131.934 216.253 132.103C216.465 132.272 216.797 132.413 217.247 132.526L218.381 132.804C219.064 132.97 219.572 133.223 219.907 133.565C220.242 133.903 220.409 134.339 220.409 134.872C220.409 135.31 220.283 135.701 220.031 136.045C219.783 136.39 219.435 136.662 218.987 136.861C218.54 137.06 218.02 137.159 217.426 137.159C216.647 137.159 216.003 136.99 215.492 136.652C214.982 136.314 214.659 135.82 214.523 135.17L215.637 134.892C215.743 135.303 215.943 135.611 216.238 135.817C216.536 136.022 216.926 136.125 217.406 136.125C217.953 136.125 218.387 136.009 218.709 135.777C219.034 135.542 219.196 135.26 219.196 134.932C219.196 134.667 219.103 134.445 218.918 134.266C218.732 134.083 218.447 133.947 218.063 133.858L216.79 133.56C216.091 133.394 215.577 133.137 215.249 132.789C214.924 132.438 214.762 131.999 214.762 131.472C214.762 131.041 214.883 130.66 215.124 130.328C215.37 129.997 215.703 129.737 216.124 129.548C216.548 129.359 217.029 129.264 217.566 129.264C218.321 129.264 218.914 129.43 219.345 129.761C219.78 130.093 220.088 130.53 220.27 131.074ZM229.215 137.159C228.499 137.159 227.883 136.99 227.366 136.652C226.849 136.314 226.451 135.848 226.173 135.255C225.894 134.662 225.755 133.984 225.755 133.222C225.755 132.446 225.897 131.762 226.183 131.168C226.471 130.572 226.872 130.106 227.386 129.771C227.903 129.433 228.506 129.264 229.195 129.264C229.732 129.264 230.216 129.364 230.647 129.562C231.078 129.761 231.431 130.04 231.706 130.398C231.981 130.756 232.152 131.173 232.218 131.651H231.045C230.955 131.303 230.756 130.994 230.448 130.726C230.143 130.454 229.732 130.318 229.215 130.318C228.758 130.318 228.357 130.437 228.012 130.676C227.671 130.911 227.404 131.245 227.212 131.675C227.023 132.103 226.928 132.605 226.928 133.182C226.928 133.772 227.021 134.286 227.207 134.723C227.396 135.161 227.661 135.5 228.002 135.742C228.347 135.984 228.751 136.105 229.215 136.105C229.52 136.105 229.797 136.052 230.045 135.946C230.294 135.84 230.504 135.688 230.677 135.489C230.849 135.29 230.972 135.051 231.045 134.773H232.218C232.152 135.223 231.988 135.629 231.726 135.991C231.467 136.349 231.124 136.634 230.697 136.846C230.272 137.055 229.779 137.159 229.215 137.159ZM235.107 126.818V137H233.933V126.818H235.107ZM240.358 137.159C239.668 137.159 239.064 136.995 238.543 136.667C238.026 136.339 237.622 135.88 237.33 135.29C237.042 134.7 236.898 134.01 236.898 133.222C236.898 132.426 237.042 131.732 237.33 131.138C237.622 130.545 238.026 130.085 238.543 129.756C239.064 129.428 239.668 129.264 240.358 129.264C241.047 129.264 241.65 129.428 242.167 129.756C242.688 130.085 243.092 130.545 243.381 131.138C243.672 131.732 243.818 132.426 243.818 133.222C243.818 134.01 243.672 134.7 243.381 135.29C243.092 135.88 242.688 136.339 242.167 136.667C241.65 136.995 241.047 137.159 240.358 137.159ZM240.358 136.105C240.881 136.105 241.312 135.971 241.65 135.702C241.988 135.434 242.239 135.081 242.401 134.643C242.564 134.206 242.645 133.732 242.645 133.222C242.645 132.711 242.564 132.236 242.401 131.795C242.239 131.354 241.988 130.998 241.65 130.726C241.312 130.454 240.881 130.318 240.358 130.318C239.834 130.318 239.403 130.454 239.065 130.726C238.727 130.998 238.477 131.354 238.314 131.795C238.152 132.236 238.071 132.711 238.071 133.222C238.071 133.732 238.152 134.206 238.314 134.643C238.477 135.081 238.727 135.434 239.065 135.702C239.403 135.971 239.834 136.105 240.358 136.105ZM251.018 131.074L249.964 131.372C249.898 131.196 249.8 131.026 249.671 130.86C249.545 130.691 249.373 130.552 249.154 130.442C248.935 130.333 248.655 130.278 248.314 130.278C247.846 130.278 247.457 130.386 247.145 130.602C246.837 130.814 246.683 131.084 246.683 131.412C246.683 131.704 246.789 131.934 247.001 132.103C247.213 132.272 247.545 132.413 247.995 132.526L249.129 132.804C249.812 132.97 250.32 133.223 250.655 133.565C250.99 133.903 251.157 134.339 251.157 134.872C251.157 135.31 251.031 135.701 250.779 136.045C250.531 136.39 250.183 136.662 249.735 136.861C249.288 137.06 248.768 137.159 248.174 137.159C247.395 137.159 246.751 136.99 246.24 136.652C245.73 136.314 245.407 135.82 245.271 135.17L246.385 134.892C246.491 135.303 246.691 135.611 246.986 135.817C247.284 136.022 247.674 136.125 248.154 136.125C248.701 136.125 249.136 136.009 249.457 135.777C249.782 135.542 249.944 135.26 249.944 134.932C249.944 134.667 249.851 134.445 249.666 134.266C249.48 134.083 249.195 133.947 248.811 133.858L247.538 133.56C246.839 133.394 246.325 133.137 245.997 132.789C245.672 132.438 245.51 131.999 245.51 131.472C245.51 131.041 245.631 130.66 245.873 130.328C246.118 129.997 246.451 129.737 246.872 129.548C247.296 129.359 247.777 129.264 248.314 129.264C249.069 129.264 249.663 129.43 250.093 129.761C250.528 130.093 250.836 130.53 251.018 131.074ZM256.125 137.159C255.389 137.159 254.755 136.997 254.221 136.672C253.691 136.344 253.281 135.886 252.993 135.3C252.708 134.71 252.566 134.024 252.566 133.241C252.566 132.459 252.708 131.77 252.993 131.173C253.281 130.573 253.682 130.106 254.196 129.771C254.713 129.433 255.316 129.264 256.006 129.264C256.404 129.264 256.796 129.33 257.184 129.463C257.572 129.596 257.925 129.811 258.243 130.109C258.561 130.404 258.815 130.795 259.004 131.283C259.193 131.77 259.287 132.37 259.287 133.082V133.58H253.401V132.565H258.094C258.094 132.134 258.008 131.75 257.835 131.412C257.666 131.074 257.424 130.807 257.11 130.612C256.798 130.416 256.43 130.318 256.006 130.318C255.539 130.318 255.134 130.434 254.793 130.666C254.455 130.895 254.195 131.193 254.012 131.561C253.83 131.929 253.739 132.323 253.739 132.744V133.42C253.739 133.997 253.838 134.486 254.037 134.887C254.239 135.285 254.519 135.588 254.877 135.797C255.235 136.002 255.651 136.105 256.125 136.105C256.433 136.105 256.712 136.062 256.96 135.976C257.212 135.886 257.429 135.754 257.612 135.578C257.794 135.399 257.935 135.177 258.034 134.912L259.168 135.23C259.048 135.615 258.848 135.953 258.566 136.244C258.285 136.533 257.936 136.758 257.522 136.92C257.108 137.08 256.642 137.159 256.125 137.159ZM263.955 137.159C263.319 137.159 262.757 136.998 262.27 136.677C261.783 136.352 261.402 135.895 261.127 135.305C260.852 134.711 260.714 134.01 260.714 133.202C260.714 132.4 260.852 131.704 261.127 131.114C261.402 130.524 261.785 130.068 262.275 129.746C262.766 129.425 263.332 129.264 263.975 129.264C264.472 129.264 264.865 129.347 265.154 129.513C265.445 129.675 265.667 129.861 265.82 130.07C265.976 130.275 266.097 130.444 266.183 130.577H266.282V126.818H267.455V137H266.322V135.827H266.183C266.097 135.966 265.974 136.142 265.815 136.354C265.656 136.562 265.429 136.75 265.134 136.915C264.839 137.078 264.446 137.159 263.955 137.159ZM264.115 136.105C264.585 136.105 264.983 135.982 265.308 135.737C265.633 135.489 265.879 135.146 266.048 134.708C266.218 134.267 266.302 133.759 266.302 133.182C266.302 132.612 266.219 132.113 266.053 131.685C265.888 131.254 265.642 130.92 265.318 130.681C264.993 130.439 264.592 130.318 264.115 130.318C263.617 130.318 263.203 130.446 262.872 130.701C262.544 130.953 262.297 131.296 262.131 131.73C261.968 132.161 261.887 132.645 261.887 133.182C261.887 133.725 261.97 134.219 262.136 134.663C262.305 135.104 262.553 135.455 262.882 135.717C263.213 135.976 263.624 136.105 264.115 136.105Z" fill="white" fill-opacity="0.95"/>
<rect opacity="0.5" x="60" y="86" width="160" height="4" fill="#30C9B0" fill-opacity="0.5"/>
<g clip-path="url(#clip1_333_11709)">
<line x1="228" y1="86.5" x2="243" y2="86.5" stroke="#30C9B0"/>
<line x1="235.5" y1="91" x2="235.5" y2="87" stroke="#30C9B0"/>
<line x1="228" y1="89.5" x2="243" y2="89.5" stroke="#30C9B0"/>
</g>
<path d="M253.433 89.4521H254.684V90.7783H253.433V93H251.799V90.7783H247.492L247.451 89.7734L251.751 83.0469H253.433V89.4521ZM249.119 89.4521H251.799V85.2344L251.607 85.5898L249.119 89.4521Z" fill="#30C9B0"/>
</g>
</g>
<defs>
<clipPath id="clip0_333_11709">
<rect width="532" height="190" fill="white" transform="translate(40 40)"/>
</clipPath>
<clipPath id="clip1_333_11709">
<rect width="15" height="4" fill="white" transform="translate(228 86)"/>
</clipPath>
</defs>
</svg>
