<svg width="372" height="249" viewBox="0 0 372 249" fill="none" xmlns="http://www.w3.org/2000/svg">
<rect width="371.5" height="249" rx="24" fill="#262626"/>
<rect x="100.875" y="110.625" width="15" height="15" rx="1.5" stroke="white" stroke-opacity="0.4"/>
<path d="M126.841 110.943V121.125H125.608V110.943H126.841ZM135.339 121.304C134.855 121.304 134.416 121.213 134.021 121.031C133.627 120.845 133.314 120.578 133.081 120.23C132.849 119.879 132.733 119.455 132.733 118.957C132.733 118.52 132.82 118.165 132.992 117.893C133.164 117.618 133.395 117.403 133.683 117.247C133.971 117.091 134.29 116.975 134.638 116.899C134.989 116.82 135.342 116.757 135.697 116.71C136.161 116.651 136.537 116.606 136.825 116.576C137.117 116.543 137.329 116.488 137.461 116.412C137.597 116.336 137.665 116.203 137.665 116.014V115.974C137.665 115.484 137.531 115.103 137.263 114.831C136.997 114.559 136.595 114.423 136.055 114.423C135.494 114.423 135.055 114.546 134.737 114.791C134.419 115.036 134.195 115.298 134.066 115.577L132.952 115.179C133.151 114.715 133.416 114.354 133.748 114.095C134.082 113.833 134.447 113.651 134.841 113.548C135.239 113.442 135.63 113.389 136.015 113.389C136.26 113.389 136.542 113.419 136.86 113.479C137.181 113.535 137.491 113.653 137.79 113.832C138.091 114.011 138.341 114.281 138.54 114.642C138.739 115.003 138.839 115.487 138.839 116.094V121.125H137.665V120.091H137.606C137.526 120.257 137.394 120.434 137.208 120.623C137.022 120.812 136.775 120.973 136.467 121.105C136.159 121.238 135.783 121.304 135.339 121.304ZM135.518 120.25C135.982 120.25 136.373 120.159 136.691 119.977C137.012 119.794 137.254 119.559 137.417 119.271C137.582 118.982 137.665 118.679 137.665 118.361V117.287C137.616 117.347 137.506 117.401 137.337 117.451C137.171 117.497 136.979 117.539 136.76 117.575C136.545 117.608 136.335 117.638 136.129 117.665C135.927 117.688 135.763 117.708 135.637 117.724C135.332 117.764 135.047 117.829 134.782 117.918C134.52 118.004 134.308 118.135 134.145 118.311C133.986 118.483 133.907 118.719 133.907 119.017C133.907 119.425 134.058 119.733 134.359 119.942C134.664 120.147 135.05 120.25 135.518 120.25ZM140.98 121.125V113.489H142.114V114.682H142.213C142.372 114.274 142.629 113.958 142.984 113.732C143.338 113.504 143.764 113.389 144.261 113.389C144.765 113.389 145.184 113.504 145.519 113.732C145.857 113.958 146.121 114.274 146.31 114.682H146.389C146.585 114.287 146.878 113.974 147.269 113.742C147.66 113.507 148.129 113.389 148.676 113.389C149.359 113.389 149.917 113.603 150.352 114.031C150.786 114.455 151.003 115.116 151.003 116.014V121.125H149.83V116.014C149.83 115.451 149.675 115.048 149.367 114.806C149.059 114.564 148.696 114.443 148.278 114.443C147.741 114.443 147.326 114.606 147.031 114.93C146.736 115.252 146.588 115.66 146.588 116.153V121.125H145.395V115.895C145.395 115.461 145.254 115.111 144.972 114.846C144.691 114.577 144.328 114.443 143.884 114.443C143.579 114.443 143.294 114.524 143.028 114.687C142.767 114.849 142.554 115.075 142.392 115.363C142.233 115.648 142.153 115.978 142.153 116.352V121.125H140.98ZM159.333 121.304C158.849 121.304 158.41 121.213 158.015 121.031C157.621 120.845 157.308 120.578 157.076 120.23C156.844 119.879 156.728 119.455 156.728 118.957C156.728 118.52 156.814 118.165 156.986 117.893C157.158 117.618 157.389 117.403 157.677 117.247C157.966 117.091 158.284 116.975 158.632 116.899C158.983 116.82 159.336 116.757 159.691 116.71C160.155 116.651 160.531 116.606 160.819 116.576C161.111 116.543 161.323 116.488 161.456 116.412C161.592 116.336 161.659 116.203 161.659 116.014V115.974C161.659 115.484 161.525 115.103 161.257 114.831C160.992 114.559 160.589 114.423 160.049 114.423C159.489 114.423 159.049 114.546 158.731 114.791C158.413 115.036 158.189 115.298 158.06 115.577L156.946 115.179C157.145 114.715 157.41 114.354 157.742 114.095C158.077 113.833 158.441 113.651 158.836 113.548C159.233 113.442 159.624 113.389 160.009 113.389C160.254 113.389 160.536 113.419 160.854 113.479C161.176 113.535 161.485 113.653 161.784 113.832C162.085 114.011 162.336 114.281 162.534 114.642C162.733 115.003 162.833 115.487 162.833 116.094V121.125H161.659V120.091H161.6C161.52 120.257 161.388 120.434 161.202 120.623C161.016 120.812 160.77 120.973 160.461 121.105C160.153 121.238 159.777 121.304 159.333 121.304ZM159.512 120.25C159.976 120.25 160.367 120.159 160.685 119.977C161.007 119.794 161.248 119.559 161.411 119.271C161.577 118.982 161.659 118.679 161.659 118.361V117.287C161.61 117.347 161.5 117.401 161.331 117.451C161.166 117.497 160.973 117.539 160.755 117.575C160.539 117.608 160.329 117.638 160.123 117.665C159.921 117.688 159.757 117.708 159.631 117.724C159.326 117.764 159.041 117.829 158.776 117.918C158.514 118.004 158.302 118.135 158.14 118.311C157.98 118.483 157.901 118.719 157.901 119.017C157.901 119.425 158.052 119.733 158.353 119.942C158.658 120.147 159.044 120.25 159.512 120.25ZM166.148 110.943V121.125H164.974V110.943H166.148ZM173.706 115.199L172.652 115.497C172.585 115.321 172.488 115.151 172.358 114.985C172.232 114.816 172.06 114.677 171.841 114.567C171.623 114.458 171.342 114.403 171.001 114.403C170.534 114.403 170.144 114.511 169.833 114.727C169.525 114.939 169.37 115.209 169.37 115.537C169.37 115.829 169.476 116.059 169.689 116.228C169.901 116.397 170.232 116.538 170.683 116.651L171.816 116.929C172.499 117.095 173.008 117.348 173.343 117.69C173.677 118.028 173.845 118.464 173.845 118.997C173.845 119.435 173.719 119.826 173.467 120.17C173.218 120.515 172.87 120.787 172.423 120.986C171.975 121.185 171.455 121.284 170.862 121.284C170.083 121.284 169.438 121.115 168.928 120.777C168.417 120.439 168.094 119.945 167.958 119.295L169.072 119.017C169.178 119.428 169.379 119.736 169.674 119.942C169.972 120.147 170.361 120.25 170.842 120.25C171.389 120.25 171.823 120.134 172.145 119.902C172.469 119.667 172.632 119.385 172.632 119.057C172.632 118.792 172.539 118.57 172.353 118.391C172.168 118.208 171.883 118.072 171.498 117.983L170.225 117.685C169.526 117.519 169.012 117.262 168.684 116.914C168.359 116.563 168.197 116.124 168.197 115.597C168.197 115.166 168.318 114.785 168.56 114.453C168.805 114.122 169.138 113.862 169.559 113.673C169.984 113.484 170.464 113.389 171.001 113.389C171.757 113.389 172.35 113.555 172.781 113.886C173.215 114.218 173.523 114.655 173.706 115.199ZM178.713 121.284C178.024 121.284 177.419 121.12 176.899 120.792C176.382 120.464 175.977 120.005 175.686 119.415C175.397 118.825 175.253 118.135 175.253 117.347C175.253 116.551 175.397 115.857 175.686 115.263C175.977 114.67 176.382 114.21 176.899 113.881C177.419 113.553 178.024 113.389 178.713 113.389C179.403 113.389 180.006 113.553 180.523 113.881C181.043 114.21 181.448 114.67 181.736 115.263C182.028 115.857 182.173 116.551 182.173 117.347C182.173 118.135 182.028 118.825 181.736 119.415C181.448 120.005 181.043 120.464 180.523 120.792C180.006 121.12 179.403 121.284 178.713 121.284ZM178.713 120.23C179.237 120.23 179.668 120.096 180.006 119.827C180.344 119.559 180.594 119.206 180.757 118.768C180.919 118.331 181 117.857 181 117.347C181 116.836 180.919 116.361 180.757 115.92C180.594 115.479 180.344 115.123 180.006 114.851C179.668 114.579 179.237 114.443 178.713 114.443C178.19 114.443 177.759 114.579 177.421 114.851C177.083 115.123 176.832 115.479 176.67 115.92C176.508 116.361 176.426 116.836 176.426 117.347C176.426 117.857 176.508 118.331 176.67 118.768C176.832 119.206 177.083 119.559 177.421 119.827C177.759 120.096 178.19 120.23 178.713 120.23ZM191.004 121.284C190.288 121.284 189.672 121.115 189.155 120.777C188.638 120.439 188.24 119.973 187.962 119.38C187.683 118.787 187.544 118.109 187.544 117.347C187.544 116.571 187.687 115.887 187.972 115.293C188.26 114.697 188.661 114.231 189.175 113.896C189.692 113.558 190.295 113.389 190.984 113.389C191.521 113.389 192.005 113.489 192.436 113.688C192.867 113.886 193.22 114.165 193.495 114.523C193.77 114.881 193.941 115.298 194.007 115.776H192.834C192.744 115.428 192.545 115.119 192.237 114.851C191.932 114.579 191.521 114.443 191.004 114.443C190.547 114.443 190.146 114.562 189.801 114.801C189.46 115.036 189.193 115.37 189.001 115.8C188.812 116.228 188.717 116.73 188.717 117.307C188.717 117.897 188.81 118.411 188.996 118.848C189.185 119.286 189.45 119.625 189.791 119.867C190.136 120.109 190.54 120.23 191.004 120.23C191.309 120.23 191.586 120.177 191.835 120.071C192.083 119.965 192.294 119.812 192.466 119.614C192.638 119.415 192.761 119.176 192.834 118.898H194.007C193.941 119.348 193.777 119.754 193.515 120.116C193.256 120.474 192.913 120.759 192.486 120.971C192.062 121.18 191.568 121.284 191.004 121.284ZM196.896 110.943V121.125H195.722V110.943H196.896ZM199.045 121.125V113.489H200.218V121.125H199.045ZM199.641 112.216C199.412 112.216 199.215 112.138 199.05 111.982C198.887 111.826 198.806 111.639 198.806 111.42C198.806 111.202 198.887 111.014 199.05 110.859C199.215 110.703 199.412 110.625 199.641 110.625C199.87 110.625 200.065 110.703 200.228 110.859C200.394 111.014 200.476 111.202 200.476 111.42C200.476 111.639 200.394 111.826 200.228 111.982C200.065 112.138 199.87 112.216 199.641 112.216ZM205.469 121.284C204.753 121.284 204.137 121.115 203.62 120.777C203.103 120.439 202.705 119.973 202.426 119.38C202.148 118.787 202.009 118.109 202.009 117.347C202.009 116.571 202.151 115.887 202.436 115.293C202.725 114.697 203.126 114.231 203.64 113.896C204.157 113.558 204.76 113.389 205.449 113.389C205.986 113.389 206.47 113.489 206.901 113.688C207.332 113.886 207.685 114.165 207.96 114.523C208.235 114.881 208.406 115.298 208.472 115.776H207.299C207.209 115.428 207.01 115.119 206.702 114.851C206.397 114.579 205.986 114.443 205.469 114.443C205.012 114.443 204.611 114.562 204.266 114.801C203.925 115.036 203.658 115.37 203.466 115.8C203.277 116.228 203.182 116.73 203.182 117.307C203.182 117.897 203.275 118.411 203.461 118.848C203.65 119.286 203.915 119.625 204.256 119.867C204.601 120.109 205.005 120.23 205.469 120.23C205.774 120.23 206.051 120.177 206.299 120.071C206.548 119.965 206.758 119.812 206.931 119.614C207.103 119.415 207.226 119.176 207.299 118.898H208.472C208.406 119.348 208.242 119.754 207.98 120.116C207.721 120.474 207.378 120.759 206.951 120.971C206.526 121.18 206.033 121.284 205.469 121.284ZM211.281 118.341L211.261 116.889H211.5L214.841 113.489H216.292L212.733 117.088H212.633L211.281 118.341ZM210.187 121.125V110.943H211.36V121.125H210.187ZM215.039 121.125L212.056 117.347L212.892 116.531L216.531 121.125H215.039ZM220.05 121.304C219.566 121.304 219.126 121.213 218.732 121.031C218.338 120.845 218.024 120.578 217.792 120.23C217.56 119.879 217.444 119.455 217.444 118.957C217.444 118.52 217.531 118.165 217.703 117.893C217.875 117.618 218.106 117.403 218.394 117.247C218.682 117.091 219.001 116.975 219.349 116.899C219.7 116.82 220.053 116.757 220.407 116.71C220.872 116.651 221.248 116.606 221.536 116.576C221.828 116.543 222.04 116.488 222.172 116.412C222.308 116.336 222.376 116.203 222.376 116.014V115.974C222.376 115.484 222.242 115.103 221.974 114.831C221.708 114.559 221.306 114.423 220.765 114.423C220.205 114.423 219.766 114.546 219.448 114.791C219.13 115.036 218.906 115.298 218.777 115.577L217.663 115.179C217.862 114.715 218.127 114.354 218.459 114.095C218.793 113.833 219.158 113.651 219.552 113.548C219.95 113.442 220.341 113.389 220.726 113.389C220.971 113.389 221.253 113.419 221.571 113.479C221.892 113.535 222.202 113.653 222.501 113.832C222.802 114.011 223.052 114.281 223.251 114.642C223.45 115.003 223.55 115.487 223.55 116.094V121.125H222.376V120.091H222.317C222.237 120.257 222.104 120.434 221.919 120.623C221.733 120.812 221.486 120.973 221.178 121.105C220.87 121.238 220.494 121.304 220.05 121.304ZM220.229 120.25C220.693 120.25 221.084 120.159 221.402 119.977C221.723 119.794 221.965 119.559 222.128 119.271C222.293 118.982 222.376 118.679 222.376 118.361V117.287C222.327 117.347 222.217 117.401 222.048 117.451C221.882 117.497 221.69 117.539 221.471 117.575C221.256 117.608 221.046 117.638 220.84 117.665C220.638 117.688 220.474 117.708 220.348 117.724C220.043 117.764 219.758 117.829 219.493 117.918C219.231 118.004 219.019 118.135 218.856 118.311C218.697 118.483 218.618 118.719 218.618 119.017C218.618 119.425 218.769 119.733 219.07 119.942C219.375 120.147 219.761 120.25 220.229 120.25ZM225.85 121.125V110.943H227.023V114.702H227.123C227.209 114.569 227.328 114.4 227.481 114.195C227.637 113.986 227.859 113.8 228.147 113.638C228.439 113.472 228.833 113.389 229.33 113.389C229.973 113.389 230.54 113.55 231.031 113.871C231.521 114.193 231.904 114.649 232.179 115.239C232.454 115.829 232.592 116.525 232.592 117.327C232.592 118.135 232.454 118.836 232.179 119.43C231.904 120.02 231.523 120.477 231.036 120.802C230.548 121.123 229.987 121.284 229.35 121.284C228.86 121.284 228.467 121.203 228.172 121.04C227.877 120.875 227.65 120.687 227.491 120.479C227.332 120.267 227.209 120.091 227.123 119.952H226.984V121.125H225.85ZM227.004 117.307C227.004 117.884 227.088 118.392 227.257 118.833C227.426 119.271 227.673 119.614 227.998 119.862C228.323 120.107 228.72 120.23 229.191 120.23C229.682 120.23 230.091 120.101 230.419 119.842C230.75 119.58 230.999 119.229 231.165 118.788C231.334 118.344 231.418 117.85 231.418 117.307C231.418 116.77 231.335 116.286 231.17 115.855C231.007 115.421 230.76 115.078 230.429 114.826C230.101 114.571 229.688 114.443 229.191 114.443C228.714 114.443 228.313 114.564 227.988 114.806C227.663 115.045 227.418 115.379 227.252 115.81C227.086 116.238 227.004 116.737 227.004 117.307ZM235.56 110.943V121.125H234.386V110.943H235.56ZM240.91 121.284C240.175 121.284 239.54 121.122 239.006 120.797C238.476 120.469 238.067 120.011 237.778 119.425C237.493 118.835 237.351 118.149 237.351 117.366C237.351 116.584 237.493 115.895 237.778 115.298C238.067 114.698 238.468 114.231 238.981 113.896C239.498 113.558 240.102 113.389 240.791 113.389C241.189 113.389 241.581 113.455 241.969 113.588C242.357 113.721 242.71 113.936 243.028 114.234C243.346 114.529 243.6 114.92 243.789 115.408C243.978 115.895 244.072 116.495 244.072 117.207V117.705H238.186V116.69H242.879C242.879 116.259 242.793 115.875 242.621 115.537C242.452 115.199 242.21 114.932 241.895 114.737C241.583 114.541 241.215 114.443 240.791 114.443C240.324 114.443 239.919 114.559 239.578 114.791C239.24 115.02 238.98 115.318 238.797 115.686C238.615 116.054 238.524 116.448 238.524 116.869V117.545C238.524 118.122 238.623 118.611 238.822 119.012C239.024 119.41 239.305 119.713 239.662 119.922C240.02 120.127 240.436 120.23 240.91 120.23C241.219 120.23 241.497 120.187 241.746 120.101C241.997 120.011 242.215 119.879 242.397 119.703C242.579 119.524 242.72 119.302 242.819 119.037L243.953 119.355C243.834 119.74 243.633 120.078 243.351 120.369C243.07 120.658 242.722 120.883 242.307 121.045C241.893 121.205 241.427 121.284 240.91 121.284Z" fill="white" fill-opacity="0.95"/>
<g filter="url(#filter0_d_334_13470)">
<path d="M257.395 137.155C257.115 136.795 256.765 136.065 256.155 135.155C255.805 134.655 254.945 133.705 254.685 133.215C254.498 132.917 254.443 132.555 254.535 132.215C254.692 131.569 255.305 131.141 255.965 131.215C256.476 131.318 256.945 131.568 257.315 131.935C257.573 132.178 257.811 132.442 258.025 132.725C258.185 132.925 258.225 133.005 258.405 133.235C258.585 133.465 258.705 133.695 258.615 133.355C258.545 132.855 258.425 132.015 258.255 131.265C258.125 130.695 258.095 130.605 257.975 130.175C257.855 129.745 257.785 129.385 257.655 128.895C257.536 128.414 257.443 127.926 257.375 127.435C257.249 126.807 257.341 126.154 257.635 125.585C257.985 125.256 258.497 125.17 258.935 125.365C259.376 125.69 259.704 126.145 259.875 126.665C260.137 127.305 260.312 127.978 260.395 128.665C260.555 129.665 260.865 131.125 260.875 131.425C260.875 131.055 260.805 130.275 260.875 129.925C260.944 129.56 261.198 129.257 261.545 129.125C261.843 129.034 262.158 129.013 262.465 129.065C262.775 129.13 263.05 129.308 263.235 129.565C263.467 130.148 263.595 130.768 263.615 131.395C263.642 130.846 263.736 130.302 263.895 129.775C264.062 129.54 264.306 129.37 264.585 129.295C264.916 129.235 265.255 129.235 265.585 129.295C265.856 129.386 266.093 129.557 266.265 129.785C266.477 130.315 266.605 130.875 266.645 131.445C266.645 131.585 266.715 131.055 266.935 130.705C267.049 130.366 267.336 130.113 267.687 130.042C268.038 129.972 268.4 130.094 268.637 130.362C268.874 130.631 268.949 131.006 268.835 131.345C268.835 131.995 268.835 131.965 268.835 132.405C268.835 132.845 268.835 133.235 268.835 133.605C268.799 134.19 268.718 134.772 268.595 135.345C268.421 135.852 268.179 136.333 267.875 136.775C267.39 137.315 266.988 137.925 266.685 138.585C266.61 138.913 266.576 139.249 266.585 139.585C266.584 139.896 266.624 140.205 266.705 140.505C266.296 140.548 265.884 140.548 265.475 140.505C265.085 140.445 264.605 139.665 264.475 139.425C264.411 139.296 264.279 139.215 264.135 139.215C263.991 139.215 263.859 139.296 263.795 139.425C263.575 139.805 263.085 140.495 262.745 140.535C262.075 140.615 260.695 140.535 259.605 140.535C259.605 140.535 259.785 139.535 259.375 139.175C258.965 138.815 258.545 138.395 258.235 138.115L257.395 137.155Z" fill="white"/>
<path d="M257.395 137.155C257.115 136.795 256.765 136.065 256.155 135.155C255.805 134.655 254.945 133.705 254.685 133.215C254.498 132.917 254.443 132.555 254.535 132.215C254.692 131.569 255.305 131.141 255.965 131.215C256.476 131.318 256.945 131.568 257.315 131.935C257.573 132.178 257.811 132.442 258.025 132.725C258.185 132.925 258.225 133.005 258.405 133.235C258.585 133.465 258.705 133.695 258.615 133.355C258.545 132.855 258.425 132.015 258.255 131.265C258.125 130.695 258.095 130.605 257.975 130.175C257.855 129.745 257.785 129.385 257.655 128.895C257.536 128.414 257.443 127.926 257.375 127.435C257.249 126.807 257.341 126.154 257.635 125.585C257.985 125.256 258.497 125.17 258.935 125.365C259.376 125.69 259.704 126.145 259.875 126.665C260.137 127.305 260.312 127.978 260.395 128.665C260.555 129.665 260.865 131.125 260.875 131.425C260.875 131.055 260.805 130.275 260.875 129.925C260.944 129.56 261.198 129.257 261.545 129.125C261.843 129.034 262.158 129.013 262.465 129.065C262.775 129.13 263.05 129.308 263.235 129.565C263.467 130.148 263.595 130.768 263.615 131.395C263.642 130.846 263.736 130.302 263.895 129.775C264.062 129.54 264.306 129.37 264.585 129.295C264.916 129.235 265.255 129.235 265.585 129.295C265.856 129.386 266.093 129.557 266.265 129.785C266.477 130.315 266.605 130.875 266.645 131.445C266.645 131.585 266.715 131.055 266.935 130.705C267.049 130.366 267.336 130.113 267.687 130.042C268.038 129.972 268.4 130.094 268.637 130.362C268.874 130.631 268.949 131.006 268.835 131.345C268.835 131.995 268.835 131.965 268.835 132.405C268.835 132.845 268.835 133.235 268.835 133.605C268.799 134.19 268.718 134.772 268.595 135.345C268.421 135.852 268.179 136.333 267.875 136.775C267.39 137.315 266.988 137.925 266.685 138.585C266.61 138.913 266.576 139.249 266.585 139.585C266.584 139.896 266.624 140.205 266.705 140.505C266.296 140.548 265.884 140.548 265.475 140.505C265.085 140.445 264.605 139.665 264.475 139.425C264.411 139.296 264.279 139.215 264.135 139.215C263.991 139.215 263.859 139.296 263.795 139.425C263.575 139.805 263.085 140.495 262.745 140.535C262.075 140.615 260.695 140.535 259.605 140.535C259.605 140.535 259.785 139.535 259.375 139.175C258.965 138.815 258.545 138.395 258.235 138.115L257.395 137.155Z" stroke="black" stroke-width="0.75"/>
</g>
<path d="M266.375 137.701V134.249C266.375 133.765 265.982 133.375 265.5 133.375C265.018 133.375 264.625 133.765 264.625 134.249V137.701C264.625 138.185 265.018 138.575 265.5 138.575C265.982 138.575 266.375 138.185 266.375 137.701Z" fill="black" stroke="white"/>
<path d="M264.395 137.697L264.375 134.243C264.372 133.759 263.976 133.372 263.495 133.375C263.014 133.378 262.622 133.769 262.625 134.253L262.645 137.707C262.648 138.191 263.044 138.578 263.525 138.575C264.006 138.572 264.398 138.181 264.395 137.697Z" fill="black" stroke="white"/>
<path d="M260.625 134.257L260.645 137.703C260.648 138.185 261.04 138.578 261.525 138.575C262.011 138.572 262.398 138.175 262.395 137.693L262.375 134.247C262.372 133.765 261.98 133.372 261.495 133.375C261.009 133.378 260.622 133.775 260.625 134.257Z" fill="black" stroke="white"/>
<defs>
<filter id="filter0_d_334_13470" x="252.316" y="124.087" width="18.7462" height="19.6588" filterUnits="userSpaceOnUse" color-interpolation-filters="sRGB">
<feFlood flood-opacity="0" result="BackgroundImageFix"/>
<feColorMatrix in="SourceAlpha" type="matrix" values="0 0 0 0 0 0 0 0 0 0 0 0 0 0 0 0 0 0 127 0" result="hardAlpha"/>
<feOffset dy="1"/>
<feGaussianBlur stdDeviation="0.9"/>
<feColorMatrix type="matrix" values="0 0 0 0 0 0 0 0 0 0 0 0 0 0 0 0 0 0 0.65 0"/>
<feBlend mode="normal" in2="BackgroundImageFix" result="effect1_dropShadow_334_13470"/>
<feBlend mode="normal" in="SourceGraphic" in2="effect1_dropShadow_334_13470" result="shape"/>
</filter>
</defs>
</svg>
