<svg width="372" height="249" viewBox="0 0 372 249" fill="none" xmlns="http://www.w3.org/2000/svg">
<rect width="371.5" height="249" rx="24" fill="#262626"/>
<rect x="100.875" y="110.625" width="15" height="15" rx="1.5" stroke="white" stroke-opacity="0.4"/>
<path d="M125.575 111.605H127.207V123.125H125.575V111.605ZM135.635 117.125H134.003C134.163 115.589 135.491 114.565 137.571 114.565C139.747 114.565 140.963 115.733 140.963 117.445V123.125H139.699L139.507 121.989C138.963 122.757 138.067 123.365 136.723 123.365C134.899 123.365 133.843 122.341 133.843 120.981C133.843 119.461 134.755 118.597 136.995 118.213L139.427 117.797V117.381C139.427 116.357 138.739 115.781 137.507 115.781C136.323 115.781 135.747 116.293 135.635 117.125ZM139.427 118.997L137.363 119.365C135.875 119.621 135.475 120.085 135.475 120.821C135.475 121.621 136.051 122.069 137.091 122.069C138.259 122.069 139.427 121.205 139.427 120.069V118.997ZM144.656 123.125H143.12V114.805H144.384L144.544 115.781C145.152 114.901 146.064 114.565 146.992 114.565C148.096 114.565 148.976 115.013 149.44 115.877C150.08 114.869 151.136 114.565 152.144 114.565C153.84 114.565 154.96 115.573 154.96 117.557V123.125H153.424V117.669C153.424 116.405 152.88 115.877 151.808 115.877C150.576 115.877 149.808 116.917 149.808 118.053V123.125H148.272V117.669C148.272 116.389 147.712 115.877 146.656 115.877C145.536 115.877 144.656 116.821 144.656 118.005V123.125ZM163.229 117.125H161.597C161.757 115.589 163.085 114.565 165.165 114.565C167.341 114.565 168.557 115.733 168.557 117.445V123.125H167.293L167.101 121.989C166.557 122.757 165.661 123.365 164.317 123.365C162.493 123.365 161.437 122.341 161.437 120.981C161.437 119.461 162.349 118.597 164.589 118.213L167.021 117.797V117.381C167.021 116.357 166.333 115.781 165.101 115.781C163.917 115.781 163.341 116.293 163.229 117.125ZM167.021 118.997L164.957 119.365C163.469 119.621 163.069 120.085 163.069 120.821C163.069 121.621 163.645 122.069 164.685 122.069C165.853 122.069 167.021 121.205 167.021 120.069V118.997ZM172.25 111.605V123.125H170.714V111.605H172.25ZM173.855 120.741H175.423C175.599 121.733 176.287 122.149 177.455 122.149C178.703 122.149 179.359 121.589 179.359 120.869C179.359 119.893 178.431 119.669 176.943 119.333C174.991 118.901 174.207 118.165 174.207 116.933C174.207 115.509 175.343 114.565 177.439 114.565C179.295 114.565 180.575 115.477 180.847 116.997H179.279C179.103 116.229 178.479 115.781 177.423 115.781C176.271 115.781 175.759 116.213 175.759 116.789C175.759 117.429 176.095 117.717 177.695 118.069C179.631 118.501 180.911 119.045 180.911 120.757C180.911 122.277 179.647 123.365 177.439 123.365C175.359 123.365 173.999 122.341 173.855 120.741ZM182.187 118.965C182.187 115.973 184.043 114.565 186.299 114.565C188.571 114.565 190.395 115.973 190.395 118.965C190.395 121.877 188.635 123.365 186.283 123.365C183.963 123.365 182.187 121.845 182.187 118.965ZM183.787 118.965C183.787 121.029 184.875 122.117 186.315 122.117C187.787 122.117 188.795 121.029 188.795 118.965C188.795 116.853 187.723 115.813 186.299 115.813C184.875 115.813 183.787 116.885 183.787 118.965ZM202.372 120.453H204.052C203.828 122.069 202.468 123.365 200.404 123.365C198.196 123.365 196.468 121.845 196.468 119.029C196.468 116.245 198.036 114.565 200.388 114.565C202.276 114.565 203.716 115.573 203.988 117.269H202.292C202.084 116.357 201.396 115.861 200.42 115.861C199.06 115.861 198.1 116.869 198.1 119.077C198.1 121.109 199.14 122.069 200.436 122.069C201.46 122.069 202.212 121.493 202.372 120.453ZM207.344 111.605V123.125H205.808V111.605H207.344ZM211.221 113.413H209.493V111.605H211.221V113.413ZM211.125 123.125H209.589V114.805H211.125V123.125ZM218.794 120.453H220.474C220.25 122.069 218.89 123.365 216.826 123.365C214.618 123.365 212.89 121.845 212.89 119.029C212.89 116.245 214.458 114.565 216.81 114.565C218.698 114.565 220.138 115.573 220.41 117.269H218.714C218.506 116.357 217.818 115.861 216.842 115.861C215.482 115.861 214.522 116.869 214.522 119.077C214.522 121.109 215.562 122.069 216.858 122.069C217.882 122.069 218.634 121.493 218.794 120.453ZM223.765 123.125H222.229V111.605H223.765V118.037L227.029 114.805H229.045L225.301 118.421L229.509 123.125H227.461L223.765 118.933V123.125ZM231.854 117.125H230.222C230.382 115.589 231.71 114.565 233.79 114.565C235.966 114.565 237.182 115.733 237.182 117.445V123.125H235.918L235.726 121.989C235.182 122.757 234.286 123.365 232.942 123.365C231.118 123.365 230.062 122.341 230.062 120.981C230.062 119.461 230.974 118.597 233.214 118.213L235.646 117.797V117.381C235.646 116.357 234.958 115.781 233.726 115.781C232.542 115.781 231.966 116.293 231.854 117.125ZM235.646 118.997L233.582 119.365C232.094 119.621 231.694 120.085 231.694 120.821C231.694 121.621 232.27 122.069 233.31 122.069C234.478 122.069 235.646 121.205 235.646 120.069V118.997ZM240.603 123.125H239.339V111.605H240.875V115.957C241.435 115.157 242.363 114.565 243.659 114.565C245.851 114.565 247.323 116.133 247.323 118.901C247.323 121.781 245.739 123.365 243.547 123.365C242.267 123.365 241.387 122.805 240.843 122.021L240.603 123.125ZM245.723 118.869C245.723 116.821 244.683 115.877 243.307 115.877C241.931 115.877 240.795 116.885 240.795 118.869C240.795 120.885 241.803 122.053 243.307 122.053C244.747 122.053 245.723 121.061 245.723 118.869ZM250.625 111.605V123.125H249.089V111.605H250.625ZM258.534 120.725H260.198C259.782 122.245 258.47 123.365 256.47 123.365C254.102 123.365 252.39 121.893 252.39 118.965C252.39 116.069 254.086 114.565 256.39 114.565C258.694 114.565 260.294 115.941 260.294 119.301H253.958C254.086 121.221 255.126 122.069 256.518 122.069C257.526 122.069 258.294 121.493 258.534 120.725ZM254.022 118.085H258.726C258.614 116.533 257.702 115.797 256.422 115.797C255.19 115.797 254.262 116.549 254.022 118.085Z" fill="white" fill-opacity="0.95"/>
<g filter="url(#filter0_d_334_13470)">
<path d="M257.395 137.155C257.115 136.795 256.765 136.065 256.155 135.155C255.805 134.655 254.945 133.705 254.685 133.215C254.498 132.917 254.443 132.555 254.535 132.215C254.692 131.569 255.305 131.141 255.965 131.215C256.476 131.318 256.945 131.568 257.315 131.935C257.573 132.178 257.811 132.442 258.025 132.725C258.185 132.925 258.225 133.005 258.405 133.235C258.585 133.465 258.705 133.695 258.615 133.355C258.545 132.855 258.425 132.015 258.255 131.265C258.125 130.695 258.095 130.605 257.975 130.175C257.855 129.745 257.785 129.385 257.655 128.895C257.536 128.414 257.443 127.926 257.375 127.435C257.249 126.807 257.341 126.154 257.635 125.585C257.985 125.256 258.497 125.17 258.935 125.365C259.376 125.69 259.704 126.145 259.875 126.665C260.137 127.305 260.312 127.978 260.395 128.665C260.555 129.665 260.865 131.125 260.875 131.425C260.875 131.055 260.805 130.275 260.875 129.925C260.944 129.56 261.198 129.257 261.545 129.125C261.843 129.034 262.158 129.013 262.465 129.065C262.775 129.13 263.05 129.308 263.235 129.565C263.467 130.148 263.595 130.768 263.615 131.395C263.642 130.846 263.736 130.302 263.895 129.775C264.062 129.54 264.306 129.37 264.585 129.295C264.916 129.235 265.255 129.235 265.585 129.295C265.856 129.386 266.093 129.557 266.265 129.785C266.477 130.315 266.605 130.875 266.645 131.445C266.645 131.585 266.715 131.055 266.935 130.705C267.049 130.366 267.336 130.113 267.687 130.042C268.038 129.972 268.4 130.094 268.637 130.362C268.874 130.631 268.949 131.006 268.835 131.345C268.835 131.995 268.835 131.965 268.835 132.405C268.835 132.845 268.835 133.235 268.835 133.605C268.799 134.19 268.718 134.772 268.595 135.345C268.421 135.852 268.179 136.333 267.875 136.775C267.39 137.315 266.988 137.925 266.685 138.585C266.61 138.913 266.576 139.249 266.585 139.585C266.584 139.896 266.624 140.205 266.705 140.505C266.296 140.548 265.884 140.548 265.475 140.505C265.085 140.445 264.605 139.665 264.475 139.425C264.411 139.296 264.279 139.215 264.135 139.215C263.991 139.215 263.859 139.296 263.795 139.425C263.575 139.805 263.085 140.495 262.745 140.535C262.075 140.615 260.695 140.535 259.605 140.535C259.605 140.535 259.785 139.535 259.375 139.175C258.965 138.815 258.545 138.395 258.235 138.115L257.395 137.155Z" fill="white"/>
<path d="M257.395 137.155C257.115 136.795 256.765 136.065 256.155 135.155C255.805 134.655 254.945 133.705 254.685 133.215C254.498 132.917 254.443 132.555 254.535 132.215C254.692 131.569 255.305 131.141 255.965 131.215C256.476 131.318 256.945 131.568 257.315 131.935C257.573 132.178 257.811 132.442 258.025 132.725C258.185 132.925 258.225 133.005 258.405 133.235C258.585 133.465 258.705 133.695 258.615 133.355C258.545 132.855 258.425 132.015 258.255 131.265C258.125 130.695 258.095 130.605 257.975 130.175C257.855 129.745 257.785 129.385 257.655 128.895C257.536 128.414 257.443 127.926 257.375 127.435C257.249 126.807 257.341 126.154 257.635 125.585C257.985 125.256 258.497 125.17 258.935 125.365C259.376 125.69 259.704 126.145 259.875 126.665C260.137 127.305 260.312 127.978 260.395 128.665C260.555 129.665 260.865 131.125 260.875 131.425C260.875 131.055 260.805 130.275 260.875 129.925C260.944 129.56 261.198 129.257 261.545 129.125C261.843 129.034 262.158 129.013 262.465 129.065C262.775 129.13 263.05 129.308 263.235 129.565C263.467 130.148 263.595 130.768 263.615 131.395C263.642 130.846 263.736 130.302 263.895 129.775C264.062 129.54 264.306 129.37 264.585 129.295C264.916 129.235 265.255 129.235 265.585 129.295C265.856 129.386 266.093 129.557 266.265 129.785C266.477 130.315 266.605 130.875 266.645 131.445C266.645 131.585 266.715 131.055 266.935 130.705C267.049 130.366 267.336 130.113 267.687 130.042C268.038 129.972 268.4 130.094 268.637 130.362C268.874 130.631 268.949 131.006 268.835 131.345C268.835 131.995 268.835 131.965 268.835 132.405C268.835 132.845 268.835 133.235 268.835 133.605C268.799 134.19 268.718 134.772 268.595 135.345C268.421 135.852 268.179 136.333 267.875 136.775C267.39 137.315 266.988 137.925 266.685 138.585C266.61 138.913 266.576 139.249 266.585 139.585C266.584 139.896 266.624 140.205 266.705 140.505C266.296 140.548 265.884 140.548 265.475 140.505C265.085 140.445 264.605 139.665 264.475 139.425C264.411 139.296 264.279 139.215 264.135 139.215C263.991 139.215 263.859 139.296 263.795 139.425C263.575 139.805 263.085 140.495 262.745 140.535C262.075 140.615 260.695 140.535 259.605 140.535C259.605 140.535 259.785 139.535 259.375 139.175C258.965 138.815 258.545 138.395 258.235 138.115L257.395 137.155Z" stroke="black" stroke-width="0.75"/>
</g>
<path d="M266.375 137.701V134.249C266.375 133.765 265.982 133.375 265.5 133.375C265.018 133.375 264.625 133.765 264.625 134.249V137.701C264.625 138.185 265.018 138.575 265.5 138.575C265.982 138.575 266.375 138.185 266.375 137.701Z" fill="black" stroke="white"/>
<path d="M264.395 137.697L264.375 134.243C264.372 133.759 263.976 133.372 263.495 133.375C263.014 133.378 262.622 133.769 262.625 134.253L262.645 137.707C262.648 138.191 263.044 138.578 263.525 138.575C264.006 138.572 264.398 138.181 264.395 137.697Z" fill="black" stroke="white"/>
<path d="M260.625 134.257L260.645 137.703C260.648 138.185 261.04 138.578 261.525 138.575C262.011 138.572 262.398 138.175 262.395 137.693L262.375 134.247C262.372 133.765 261.98 133.372 261.495 133.375C261.009 133.378 260.622 133.775 260.625 134.257Z" fill="black" stroke="white"/>
<defs>
<filter id="filter0_d_334_13470" x="252.316" y="124.087" width="18.7462" height="19.6588" filterUnits="userSpaceOnUse" color-interpolation-filters="sRGB">
<feFlood flood-opacity="0" result="BackgroundImageFix"/>
<feColorMatrix in="SourceAlpha" type="matrix" values="0 0 0 0 0 0 0 0 0 0 0 0 0 0 0 0 0 0 127 0" result="hardAlpha"/>
<feOffset dy="1"/>
<feGaussianBlur stdDeviation="0.9"/>
<feColorMatrix type="matrix" values="0 0 0 0 0 0 0 0 0 0 0 0 0 0 0 0 0 0 0.65 0"/>
<feBlend mode="normal" in2="BackgroundImageFix" result="effect1_dropShadow_334_13470"/>
<feBlend mode="normal" in="SourceGraphic" in2="effect1_dropShadow_334_13470" result="shape"/>
</filter>
</defs>
</svg>
