<svg width="634" height="249" viewBox="0 0 634 249" fill="none" xmlns="http://www.w3.org/2000/svg">
<rect width="634" height="249" rx="24" fill="#262626"/>
<rect x="232.125" y="110.625" width="15" height="15" rx="1.5" stroke="white" stroke-opacity="0.4"/>
<path d="M258.091 110.943V121.125H256.858V110.943H258.091ZM266.589 121.304C266.105 121.304 265.666 121.213 265.271 121.031C264.877 120.845 264.564 120.578 264.331 120.23C264.099 119.879 263.983 119.455 263.983 118.957C263.983 118.52 264.07 118.165 264.242 117.893C264.414 117.618 264.645 117.403 264.933 117.247C265.221 117.091 265.54 116.975 265.888 116.899C266.239 116.82 266.592 116.757 266.947 116.71C267.411 116.651 267.787 116.606 268.075 116.576C268.367 116.543 268.579 116.488 268.711 116.412C268.847 116.336 268.915 116.203 268.915 116.014V115.974C268.915 115.484 268.781 115.103 268.513 114.831C268.247 114.559 267.845 114.423 267.305 114.423C266.744 114.423 266.305 114.546 265.987 114.791C265.669 115.036 265.445 115.298 265.316 115.577L264.202 115.179C264.401 114.715 264.666 114.354 264.998 114.095C265.332 113.833 265.697 113.651 266.091 113.548C266.489 113.442 266.88 113.389 267.265 113.389C267.51 113.389 267.792 113.419 268.11 113.479C268.431 113.535 268.741 113.653 269.04 113.832C269.341 114.011 269.591 114.281 269.79 114.642C269.989 115.003 270.089 115.487 270.089 116.094V121.125H268.915V120.091H268.856C268.776 120.257 268.644 120.434 268.458 120.623C268.272 120.812 268.025 120.973 267.717 121.105C267.409 121.238 267.033 121.304 266.589 121.304ZM266.768 120.25C267.232 120.25 267.623 120.159 267.941 119.977C268.262 119.794 268.504 119.559 268.667 119.271C268.832 118.982 268.915 118.679 268.915 118.361V117.287C268.866 117.347 268.756 117.401 268.587 117.451C268.421 117.497 268.229 117.539 268.01 117.575C267.795 117.608 267.585 117.638 267.379 117.665C267.177 117.688 267.013 117.708 266.887 117.724C266.582 117.764 266.297 117.829 266.032 117.918C265.77 118.004 265.558 118.135 265.395 118.311C265.236 118.483 265.157 118.719 265.157 119.017C265.157 119.425 265.308 119.733 265.609 119.942C265.914 120.147 266.3 120.25 266.768 120.25ZM272.23 121.125V113.489H273.364V114.682H273.463C273.622 114.274 273.879 113.958 274.234 113.732C274.588 113.504 275.014 113.389 275.511 113.389C276.015 113.389 276.434 113.504 276.769 113.732C277.107 113.958 277.371 114.274 277.56 114.682H277.639C277.835 114.287 278.128 113.974 278.519 113.742C278.91 113.507 279.379 113.389 279.926 113.389C280.609 113.389 281.167 113.603 281.602 114.031C282.036 114.455 282.253 115.116 282.253 116.014V121.125H281.08V116.014C281.08 115.451 280.925 115.048 280.617 114.806C280.309 114.564 279.946 114.443 279.528 114.443C278.991 114.443 278.576 114.606 278.281 114.93C277.986 115.252 277.838 115.66 277.838 116.153V121.125H276.645V115.895C276.645 115.461 276.504 115.111 276.222 114.846C275.941 114.577 275.578 114.443 275.134 114.443C274.829 114.443 274.544 114.524 274.278 114.687C274.017 114.849 273.804 115.075 273.642 115.363C273.483 115.648 273.403 115.978 273.403 116.352V121.125H272.23ZM290.583 121.304C290.099 121.304 289.66 121.213 289.265 121.031C288.871 120.845 288.558 120.578 288.326 120.23C288.094 119.879 287.978 119.455 287.978 118.957C287.978 118.52 288.064 118.165 288.236 117.893C288.408 117.618 288.639 117.403 288.927 117.247C289.216 117.091 289.534 116.975 289.882 116.899C290.233 116.82 290.586 116.757 290.941 116.71C291.405 116.651 291.781 116.606 292.069 116.576C292.361 116.543 292.573 116.488 292.706 116.412C292.842 116.336 292.909 116.203 292.909 116.014V115.974C292.909 115.484 292.775 115.103 292.507 114.831C292.242 114.559 291.839 114.423 291.299 114.423C290.739 114.423 290.299 114.546 289.981 114.791C289.663 115.036 289.439 115.298 289.31 115.577L288.196 115.179C288.395 114.715 288.66 114.354 288.992 114.095C289.327 113.833 289.691 113.651 290.086 113.548C290.483 113.442 290.874 113.389 291.259 113.389C291.504 113.389 291.786 113.419 292.104 113.479C292.426 113.535 292.735 113.653 293.034 113.832C293.335 114.011 293.586 114.281 293.784 114.642C293.983 115.003 294.083 115.487 294.083 116.094V121.125H292.909V120.091H292.85C292.77 120.257 292.638 120.434 292.452 120.623C292.266 120.812 292.02 120.973 291.711 121.105C291.403 121.238 291.027 121.304 290.583 121.304ZM290.762 120.25C291.226 120.25 291.617 120.159 291.935 119.977C292.257 119.794 292.498 119.559 292.661 119.271C292.827 118.982 292.909 118.679 292.909 118.361V117.287C292.86 117.347 292.75 117.401 292.581 117.451C292.416 117.497 292.223 117.539 292.005 117.575C291.789 117.608 291.579 117.638 291.373 117.665C291.171 117.688 291.007 117.708 290.881 117.724C290.576 117.764 290.291 117.829 290.026 117.918C289.764 118.004 289.552 118.135 289.39 118.311C289.23 118.483 289.151 118.719 289.151 119.017C289.151 119.425 289.302 119.733 289.603 119.942C289.908 120.147 290.294 120.25 290.762 120.25ZM297.398 110.943V121.125H296.224V110.943H297.398ZM304.956 115.199L303.902 115.497C303.835 115.321 303.738 115.151 303.608 114.985C303.482 114.816 303.31 114.677 303.091 114.567C302.873 114.458 302.592 114.403 302.251 114.403C301.784 114.403 301.394 114.511 301.083 114.727C300.775 114.939 300.62 115.209 300.62 115.537C300.62 115.829 300.726 116.059 300.939 116.228C301.151 116.397 301.482 116.538 301.933 116.651L303.066 116.929C303.749 117.095 304.258 117.348 304.593 117.69C304.927 118.028 305.095 118.464 305.095 118.997C305.095 119.435 304.969 119.826 304.717 120.17C304.468 120.515 304.12 120.787 303.673 120.986C303.225 121.185 302.705 121.284 302.112 121.284C301.333 121.284 300.688 121.115 300.178 120.777C299.667 120.439 299.344 119.945 299.208 119.295L300.322 119.017C300.428 119.428 300.629 119.736 300.924 119.942C301.222 120.147 301.611 120.25 302.092 120.25C302.639 120.25 303.073 120.134 303.395 119.902C303.719 119.667 303.882 119.385 303.882 119.057C303.882 118.792 303.789 118.57 303.603 118.391C303.418 118.208 303.133 118.072 302.748 117.983L301.475 117.685C300.776 117.519 300.262 117.262 299.934 116.914C299.609 116.563 299.447 116.124 299.447 115.597C299.447 115.166 299.568 114.785 299.81 114.453C300.055 114.122 300.388 113.862 300.809 113.673C301.234 113.484 301.714 113.389 302.251 113.389C303.007 113.389 303.6 113.555 304.031 113.886C304.465 114.218 304.773 114.655 304.956 115.199ZM309.963 121.284C309.274 121.284 308.669 121.12 308.149 120.792C307.632 120.464 307.227 120.005 306.936 119.415C306.647 118.825 306.503 118.135 306.503 117.347C306.503 116.551 306.647 115.857 306.936 115.263C307.227 114.67 307.632 114.21 308.149 113.881C308.669 113.553 309.274 113.389 309.963 113.389C310.653 113.389 311.256 113.553 311.773 113.881C312.293 114.21 312.698 114.67 312.986 115.263C313.278 115.857 313.423 116.551 313.423 117.347C313.423 118.135 313.278 118.825 312.986 119.415C312.698 120.005 312.293 120.464 311.773 120.792C311.256 121.12 310.653 121.284 309.963 121.284ZM309.963 120.23C310.487 120.23 310.918 120.096 311.256 119.827C311.594 119.559 311.844 119.206 312.007 118.768C312.169 118.331 312.25 117.857 312.25 117.347C312.25 116.836 312.169 116.361 312.007 115.92C311.844 115.479 311.594 115.123 311.256 114.851C310.918 114.579 310.487 114.443 309.963 114.443C309.44 114.443 309.009 114.579 308.671 114.851C308.333 115.123 308.082 115.479 307.92 115.92C307.758 116.361 307.676 116.836 307.676 117.347C307.676 117.857 307.758 118.331 307.92 118.768C308.082 119.206 308.333 119.559 308.671 119.827C309.009 120.096 309.44 120.23 309.963 120.23ZM322.254 121.284C321.538 121.284 320.922 121.115 320.405 120.777C319.888 120.439 319.49 119.973 319.212 119.38C318.933 118.787 318.794 118.109 318.794 117.347C318.794 116.571 318.937 115.887 319.222 115.293C319.51 114.697 319.911 114.231 320.425 113.896C320.942 113.558 321.545 113.389 322.234 113.389C322.771 113.389 323.255 113.489 323.686 113.688C324.117 113.886 324.47 114.165 324.745 114.523C325.02 114.881 325.191 115.298 325.257 115.776H324.084C323.994 115.428 323.795 115.119 323.487 114.851C323.182 114.579 322.771 114.443 322.254 114.443C321.797 114.443 321.396 114.562 321.051 114.801C320.71 115.036 320.443 115.37 320.251 115.8C320.062 116.228 319.967 116.73 319.967 117.307C319.967 117.897 320.06 118.411 320.246 118.848C320.435 119.286 320.7 119.625 321.041 119.867C321.386 120.109 321.79 120.23 322.254 120.23C322.559 120.23 322.836 120.177 323.085 120.071C323.333 119.965 323.544 119.812 323.716 119.614C323.888 119.415 324.011 119.176 324.084 118.898H325.257C325.191 119.348 325.027 119.754 324.765 120.116C324.506 120.474 324.163 120.759 323.736 120.971C323.312 121.18 322.818 121.284 322.254 121.284ZM328.146 110.943V121.125H326.972V110.943H328.146ZM330.295 121.125V113.489H331.468V121.125H330.295ZM330.891 112.216C330.662 112.216 330.465 112.138 330.3 111.982C330.137 111.826 330.056 111.639 330.056 111.42C330.056 111.202 330.137 111.014 330.3 110.859C330.465 110.703 330.662 110.625 330.891 110.625C331.12 110.625 331.315 110.703 331.478 110.859C331.644 111.014 331.726 111.202 331.726 111.42C331.726 111.639 331.644 111.826 331.478 111.982C331.315 112.138 331.12 112.216 330.891 112.216ZM336.719 121.284C336.003 121.284 335.387 121.115 334.87 120.777C334.353 120.439 333.955 119.973 333.676 119.38C333.398 118.787 333.259 118.109 333.259 117.347C333.259 116.571 333.401 115.887 333.686 115.293C333.975 114.697 334.376 114.231 334.89 113.896C335.407 113.558 336.01 113.389 336.699 113.389C337.236 113.389 337.72 113.489 338.151 113.688C338.582 113.886 338.935 114.165 339.21 114.523C339.485 114.881 339.656 115.298 339.722 115.776H338.549C338.459 115.428 338.26 115.119 337.952 114.851C337.647 114.579 337.236 114.443 336.719 114.443C336.262 114.443 335.861 114.562 335.516 114.801C335.175 115.036 334.908 115.37 334.716 115.8C334.527 116.228 334.432 116.73 334.432 117.307C334.432 117.897 334.525 118.411 334.711 118.848C334.9 119.286 335.165 119.625 335.506 119.867C335.851 120.109 336.255 120.23 336.719 120.23C337.024 120.23 337.301 120.177 337.549 120.071C337.798 119.965 338.008 119.812 338.181 119.614C338.353 119.415 338.476 119.176 338.549 118.898H339.722C339.656 119.348 339.492 119.754 339.23 120.116C338.971 120.474 338.628 120.759 338.201 120.971C337.776 121.18 337.283 121.284 336.719 121.284ZM342.531 118.341L342.511 116.889H342.75L346.091 113.489H347.542L343.983 117.088H343.883L342.531 118.341ZM341.437 121.125V110.943H342.61V121.125H341.437ZM346.289 121.125L343.306 117.347L344.142 116.531L347.781 121.125H346.289ZM351.3 121.304C350.816 121.304 350.376 121.213 349.982 121.031C349.588 120.845 349.274 120.578 349.042 120.23C348.81 119.879 348.694 119.455 348.694 118.957C348.694 118.52 348.781 118.165 348.953 117.893C349.125 117.618 349.356 117.403 349.644 117.247C349.932 117.091 350.251 116.975 350.599 116.899C350.95 116.82 351.303 116.757 351.657 116.71C352.122 116.651 352.498 116.606 352.786 116.576C353.078 116.543 353.29 116.488 353.422 116.412C353.558 116.336 353.626 116.203 353.626 116.014V115.974C353.626 115.484 353.492 115.103 353.224 114.831C352.958 114.559 352.556 114.423 352.015 114.423C351.455 114.423 351.016 114.546 350.698 114.791C350.38 115.036 350.156 115.298 350.027 115.577L348.913 115.179C349.112 114.715 349.377 114.354 349.709 114.095C350.043 113.833 350.408 113.651 350.802 113.548C351.2 113.442 351.591 113.389 351.976 113.389C352.221 113.389 352.503 113.419 352.821 113.479C353.142 113.535 353.452 113.653 353.751 113.832C354.052 114.011 354.302 114.281 354.501 114.642C354.7 115.003 354.8 115.487 354.8 116.094V121.125H353.626V120.091H353.567C353.487 120.257 353.354 120.434 353.169 120.623C352.983 120.812 352.736 120.973 352.428 121.105C352.12 121.238 351.744 121.304 351.3 121.304ZM351.479 120.25C351.943 120.25 352.334 120.159 352.652 119.977C352.973 119.794 353.215 119.559 353.378 119.271C353.543 118.982 353.626 118.679 353.626 118.361V117.287C353.577 117.347 353.467 117.401 353.298 117.451C353.132 117.497 352.94 117.539 352.721 117.575C352.506 117.608 352.296 117.638 352.09 117.665C351.888 117.688 351.724 117.708 351.598 117.724C351.293 117.764 351.008 117.829 350.743 117.918C350.481 118.004 350.269 118.135 350.106 118.311C349.947 118.483 349.868 118.719 349.868 119.017C349.868 119.425 350.019 119.733 350.32 119.942C350.625 120.147 351.011 120.25 351.479 120.25ZM357.1 121.125V110.943H358.273V114.702H358.373C358.459 114.569 358.578 114.4 358.731 114.195C358.887 113.986 359.109 113.8 359.397 113.638C359.689 113.472 360.083 113.389 360.58 113.389C361.223 113.389 361.79 113.55 362.281 113.871C362.771 114.193 363.154 114.649 363.429 115.239C363.704 115.829 363.842 116.525 363.842 117.327C363.842 118.135 363.704 118.836 363.429 119.43C363.154 120.02 362.773 120.477 362.286 120.802C361.798 121.123 361.237 121.284 360.6 121.284C360.11 121.284 359.717 121.203 359.422 121.04C359.127 120.875 358.9 120.687 358.741 120.479C358.582 120.267 358.459 120.091 358.373 119.952H358.234V121.125H357.1ZM358.254 117.307C358.254 117.884 358.338 118.392 358.507 118.833C358.676 119.271 358.923 119.614 359.248 119.862C359.573 120.107 359.97 120.23 360.441 120.23C360.932 120.23 361.341 120.101 361.669 119.842C362 119.58 362.249 119.229 362.415 118.788C362.584 118.344 362.668 117.85 362.668 117.307C362.668 116.77 362.585 116.286 362.42 115.855C362.257 115.421 362.01 115.078 361.679 114.826C361.351 114.571 360.938 114.443 360.441 114.443C359.964 114.443 359.563 114.564 359.238 114.806C358.913 115.045 358.668 115.379 358.502 115.81C358.336 116.238 358.254 116.737 358.254 117.307ZM366.81 110.943V121.125H365.636V110.943H366.81ZM372.16 121.284C371.425 121.284 370.79 121.122 370.256 120.797C369.726 120.469 369.317 120.011 369.028 119.425C368.743 118.835 368.601 118.149 368.601 117.366C368.601 116.584 368.743 115.895 369.028 115.298C369.317 114.698 369.718 114.231 370.231 113.896C370.748 113.558 371.352 113.389 372.041 113.389C372.439 113.389 372.831 113.455 373.219 113.588C373.607 113.721 373.96 113.936 374.278 114.234C374.596 114.529 374.85 114.92 375.039 115.408C375.228 115.895 375.322 116.495 375.322 117.207V117.705H369.436V116.69H374.129C374.129 116.259 374.043 115.875 373.871 115.537C373.702 115.199 373.46 114.932 373.145 114.737C372.833 114.541 372.465 114.443 372.041 114.443C371.574 114.443 371.169 114.559 370.828 114.791C370.49 115.02 370.23 115.318 370.047 115.686C369.865 116.054 369.774 116.448 369.774 116.869V117.545C369.774 118.122 369.873 118.611 370.072 119.012C370.274 119.41 370.555 119.713 370.912 119.922C371.27 120.127 371.686 120.23 372.16 120.23C372.469 120.23 372.747 120.187 372.996 120.101C373.247 120.011 373.465 119.879 373.647 119.703C373.829 119.524 373.97 119.302 374.069 119.037L375.203 119.355C375.084 119.74 374.883 120.078 374.601 120.369C374.32 120.658 373.972 120.883 373.557 121.045C373.143 121.205 372.677 121.284 372.16 121.284Z" fill="white" fill-opacity="0.95"/>
<g filter="url(#filter0_d_334_13470)">
<path d="M388.645 137.155C388.365 136.795 388.015 136.065 387.405 135.155C387.055 134.655 386.195 133.705 385.935 133.215C385.747 132.917 385.693 132.555 385.785 132.215C385.942 131.569 386.554 131.141 387.215 131.215C387.726 131.318 388.195 131.568 388.565 131.935C388.823 132.178 389.061 132.442 389.275 132.725C389.435 132.925 389.475 133.005 389.655 133.235C389.835 133.465 389.955 133.695 389.865 133.355C389.795 132.855 389.675 132.015 389.505 131.265C389.375 130.695 389.345 130.605 389.225 130.175C389.105 129.745 389.035 129.385 388.905 128.895C388.786 128.414 388.693 127.926 388.625 127.435C388.499 126.807 388.591 126.154 388.885 125.585C389.234 125.256 389.747 125.17 390.185 125.365C390.625 125.69 390.954 126.145 391.125 126.665C391.387 127.305 391.562 127.978 391.645 128.665C391.805 129.665 392.115 131.125 392.125 131.425C392.125 131.055 392.055 130.275 392.125 129.925C392.194 129.56 392.448 129.257 392.795 129.125C393.093 129.034 393.408 129.013 393.715 129.065C394.025 129.13 394.3 129.308 394.485 129.565C394.717 130.148 394.845 130.768 394.865 131.395C394.892 130.846 394.986 130.302 395.145 129.775C395.312 129.54 395.556 129.37 395.835 129.295C396.165 129.235 396.504 129.235 396.835 129.295C397.106 129.386 397.343 129.557 397.515 129.785C397.727 130.315 397.855 130.875 397.895 131.445C397.895 131.585 397.965 131.055 398.185 130.705C398.299 130.366 398.586 130.113 398.937 130.042C399.288 129.972 399.65 130.094 399.887 130.362C400.124 130.631 400.199 131.006 400.085 131.345C400.085 131.995 400.085 131.965 400.085 132.405C400.085 132.845 400.085 133.235 400.085 133.605C400.048 134.19 399.968 134.772 399.845 135.345C399.671 135.852 399.429 136.333 399.125 136.775C398.639 137.315 398.238 137.925 397.935 138.585C397.86 138.913 397.826 139.249 397.835 139.585C397.834 139.896 397.874 140.205 397.955 140.505C397.546 140.548 397.134 140.548 396.725 140.505C396.335 140.445 395.855 139.665 395.725 139.425C395.661 139.296 395.529 139.215 395.385 139.215C395.241 139.215 395.109 139.296 395.045 139.425C394.825 139.805 394.335 140.495 393.995 140.535C393.325 140.615 391.945 140.535 390.855 140.535C390.855 140.535 391.035 139.535 390.625 139.175C390.215 138.815 389.795 138.395 389.485 138.115L388.645 137.155Z" fill="white"/>
<path d="M388.645 137.155C388.365 136.795 388.015 136.065 387.405 135.155C387.055 134.655 386.195 133.705 385.935 133.215C385.747 132.917 385.693 132.555 385.785 132.215C385.942 131.569 386.554 131.141 387.215 131.215C387.726 131.318 388.195 131.568 388.565 131.935C388.823 132.178 389.061 132.442 389.275 132.725C389.435 132.925 389.475 133.005 389.655 133.235C389.835 133.465 389.955 133.695 389.865 133.355C389.795 132.855 389.675 132.015 389.505 131.265C389.375 130.695 389.345 130.605 389.225 130.175C389.105 129.745 389.035 129.385 388.905 128.895C388.786 128.414 388.693 127.926 388.625 127.435C388.499 126.807 388.591 126.154 388.885 125.585C389.234 125.256 389.747 125.17 390.185 125.365C390.625 125.69 390.954 126.145 391.125 126.665C391.387 127.305 391.562 127.978 391.645 128.665C391.805 129.665 392.115 131.125 392.125 131.425C392.125 131.055 392.055 130.275 392.125 129.925C392.194 129.56 392.448 129.257 392.795 129.125C393.093 129.034 393.408 129.013 393.715 129.065C394.025 129.13 394.3 129.308 394.485 129.565C394.717 130.148 394.845 130.768 394.865 131.395C394.892 130.846 394.986 130.302 395.145 129.775C395.312 129.54 395.556 129.37 395.835 129.295C396.165 129.235 396.504 129.235 396.835 129.295C397.106 129.386 397.343 129.557 397.515 129.785C397.727 130.315 397.855 130.875 397.895 131.445C397.895 131.585 397.965 131.055 398.185 130.705C398.299 130.366 398.586 130.113 398.937 130.042C399.288 129.972 399.65 130.094 399.887 130.362C400.124 130.631 400.199 131.006 400.085 131.345C400.085 131.995 400.085 131.965 400.085 132.405C400.085 132.845 400.085 133.235 400.085 133.605C400.048 134.19 399.968 134.772 399.845 135.345C399.671 135.852 399.429 136.333 399.125 136.775C398.639 137.315 398.238 137.925 397.935 138.585C397.86 138.913 397.826 139.249 397.835 139.585C397.834 139.896 397.874 140.205 397.955 140.505C397.546 140.548 397.134 140.548 396.725 140.505C396.335 140.445 395.855 139.665 395.725 139.425C395.661 139.296 395.529 139.215 395.385 139.215C395.241 139.215 395.109 139.296 395.045 139.425C394.825 139.805 394.335 140.495 393.995 140.535C393.325 140.615 391.945 140.535 390.855 140.535C390.855 140.535 391.035 139.535 390.625 139.175C390.215 138.815 389.795 138.395 389.485 138.115L388.645 137.155Z" stroke="black" stroke-width="0.75"/>
</g>
<path d="M397.625 137.701V134.249C397.625 133.765 397.232 133.375 396.75 133.375C396.268 133.375 395.875 133.765 395.875 134.249V137.701C395.875 138.185 396.268 138.575 396.75 138.575C397.232 138.575 397.625 138.185 397.625 137.701Z" fill="black" stroke="white"/>
<path d="M395.645 137.697L395.625 134.243C395.622 133.759 395.226 133.372 394.745 133.375C394.264 133.378 393.872 133.769 393.875 134.253L393.895 137.707C393.898 138.191 394.294 138.578 394.775 138.575C395.256 138.572 395.648 138.181 395.645 137.697Z" fill="black" stroke="white"/>
<path d="M391.875 134.257L391.895 137.703C391.898 138.185 392.29 138.578 392.775 138.575C393.261 138.572 393.648 138.175 393.645 137.693L393.625 134.247C393.622 133.765 393.23 133.372 392.745 133.375C392.259 133.378 391.872 133.775 391.875 134.257Z" fill="black" stroke="white"/>
<defs>
<filter id="filter0_d_334_13470" x="383.566" y="124.087" width="18.746" height="19.6588" filterUnits="userSpaceOnUse" color-interpolation-filters="sRGB">
<feFlood flood-opacity="0" result="BackgroundImageFix"/>
<feColorMatrix in="SourceAlpha" type="matrix" values="0 0 0 0 0 0 0 0 0 0 0 0 0 0 0 0 0 0 127 0" result="hardAlpha"/>
<feOffset dy="1"/>
<feGaussianBlur stdDeviation="0.9"/>
<feColorMatrix type="matrix" values="0 0 0 0 0 0 0 0 0 0 0 0 0 0 0 0 0 0 0.65 0"/>
<feBlend mode="normal" in2="BackgroundImageFix" result="effect1_dropShadow_334_13470"/>
<feBlend mode="normal" in="SourceGraphic" in2="effect1_dropShadow_334_13470" result="shape"/>
</filter>
</defs>
</svg>
