<svg width="222" height="122" viewBox="0 0 222 122" fill="none" xmlns="http://www.w3.org/2000/svg">
<path d="M16.824 25H12.576L11.352 21.04H5.208L3.984 25H0L6.144 7.72H10.632L16.824 25ZM8.304 11.032L6.024 18.4H10.56L8.304 11.032ZM26.4281 12.52H30.2921L25.9721 25H21.2441L16.9481 12.52H21.0041L23.7401 22.24L26.4281 12.52ZM34.8731 16.12H31.0331C31.3531 14.776 32.0811 13.76 33.2171 13.072C34.2411 12.464 35.5211 12.16 37.0571 12.16C38.9131 12.16 40.3451 12.624 41.3531 13.552C42.2331 14.352 42.6731 15.416 42.6731 16.744V25H39.7451L39.2891 23.704C38.3291 24.808 36.9531 25.36 35.1611 25.36C33.7691 25.36 32.6731 24.968 31.8731 24.184C31.1531 23.496 30.7931 22.568 30.7931 21.4C30.7931 20.312 31.2171 19.456 32.0651 18.832C32.8811 18.224 34.1371 17.776 35.8331 17.488L38.9291 16.984V16.432C38.9291 15.2 38.2651 14.584 36.9371 14.584C35.7691 14.584 35.0811 15.096 34.8731 16.12ZM36.2411 22.792C37.1051 22.792 37.7931 22.528 38.3051 22C38.7211 21.552 38.9291 21.016 38.9291 20.392V19.024L36.7931 19.456C35.9771 19.616 35.3931 19.84 35.0411 20.128C34.7051 20.4 34.5371 20.768 34.5371 21.232C34.5371 22.272 35.1051 22.792 36.2411 22.792ZM52.347 22.48V25.024C51.563 25.248 50.803 25.36 50.067 25.36C48.707 25.36 47.667 24.984 46.947 24.232C46.323 23.576 46.011 22.672 46.011 21.52V15.112H44.115V12.52H46.011L46.251 9.52H49.755V12.52H52.323V15.112H49.755V21.64C49.755 21.976 49.859 22.24 50.067 22.432C50.291 22.608 50.595 22.696 50.979 22.696C51.283 22.696 51.739 22.624 52.347 22.48ZM57.6309 16.12H53.7909C54.1109 14.776 54.8389 13.76 55.9749 13.072C56.9989 12.464 58.2789 12.16 59.8149 12.16C61.6709 12.16 63.1029 12.624 64.1109 13.552C64.9909 14.352 65.4309 15.416 65.4309 16.744V25H62.5029L62.0469 23.704C61.0869 24.808 59.7109 25.36 57.9189 25.36C56.5269 25.36 55.4309 24.968 54.6309 24.184C53.9109 23.496 53.5509 22.568 53.5509 21.4C53.5509 20.312 53.9749 19.456 54.8229 18.832C55.6389 18.224 56.8949 17.776 58.5909 17.488L61.6869 16.984V16.432C61.6869 15.2 61.0229 14.584 59.6949 14.584C58.5269 14.584 57.8389 15.096 57.6309 16.12ZM58.9989 22.792C59.8629 22.792 60.5509 22.528 61.0629 22C61.4789 21.552 61.6869 21.016 61.6869 20.392V19.024L59.5509 19.456C58.7349 19.616 58.1509 19.84 57.7989 20.128C57.4629 20.4 57.2949 20.768 57.2949 21.232C57.2949 22.272 57.8629 22.792 58.9989 22.792ZM71.6968 25H67.9528V12.52H71.0728L71.4808 14.416C72.1688 12.912 73.2568 12.16 74.7448 12.16C75.3048 12.16 75.7768 12.216 76.1608 12.328V15.808C75.6488 15.648 75.1128 15.568 74.5528 15.568C73.7048 15.568 73.0088 15.976 72.4648 16.792C71.9528 17.56 71.6968 18.568 71.6968 19.816V25ZM91.4783 22.528C93.8143 22.528 95.0703 21.232 95.2463 18.64H99.3503C99.0623 20.992 98.1663 22.736 96.6623 23.872C95.3343 24.864 93.5823 25.36 91.4063 25.36C88.8303 25.36 86.8223 24.504 85.3823 22.792C84.0383 21.192 83.3663 19.032 83.3663 16.312C83.3663 13.24 84.2063 10.92 85.8863 9.352C87.3103 8.024 89.2143 7.36 91.5983 7.36C93.7903 7.36 95.5743 7.944 96.9503 9.112C98.1823 10.168 98.9423 11.584 99.2303 13.36H95.1983C94.7503 11.232 93.5503 10.168 91.5983 10.168C90.2543 10.168 89.2383 10.72 88.5503 11.824C87.8943 12.864 87.5663 14.36 87.5663 16.312C87.5663 18.6 87.9983 20.272 88.8623 21.328C89.5343 22.128 90.4063 22.528 91.4783 22.528ZM101.515 25V7.72H105.259V13.648C106.139 12.656 107.323 12.16 108.811 12.16C110.363 12.16 111.547 12.624 112.363 13.552C113.067 14.384 113.419 15.512 113.419 16.936V25H109.675V17.08C109.675 15.56 109.035 14.8 107.755 14.8C106.987 14.8 106.363 15.072 105.883 15.616C105.467 16.112 105.259 16.736 105.259 17.488V25H101.515ZM119.817 10.912H115.785V7.72H119.817V10.912ZM119.673 25H115.929V12.52H119.673V25ZM129.48 25.36C128.12 25.36 126.976 24.88 126.048 23.92V29.32H122.304V12.52H125.136L125.856 13.912C126.864 12.744 128.184 12.16 129.816 12.16C131.64 12.16 133.048 12.784 134.04 14.032C134.936 15.168 135.384 16.68 135.384 18.568C135.384 20.808 134.744 22.552 133.464 23.8C132.408 24.84 131.08 25.36 129.48 25.36ZM131.616 18.664C131.616 16.152 130.688 14.896 128.832 14.896C127.888 14.896 127.16 15.24 126.648 15.928C126.168 16.584 125.928 17.48 125.928 18.616C125.928 21.288 126.856 22.624 128.712 22.624C129.656 22.624 130.384 22.256 130.896 21.52C131.376 20.832 131.616 19.88 131.616 18.664ZM142.771 22.816C144.163 22.816 144.859 22.424 144.859 21.64C144.859 21.256 144.699 20.984 144.379 20.824C144.075 20.664 143.243 20.416 141.883 20.08C140.331 19.712 139.219 19.256 138.547 18.712C137.747 18.056 137.347 17.168 137.347 16.048C137.347 14.768 137.875 13.784 138.931 13.096C139.875 12.472 141.187 12.16 142.867 12.16C144.579 12.16 145.947 12.544 146.971 13.312C147.851 13.968 148.395 14.856 148.603 15.976H144.835C144.643 15.128 143.955 14.704 142.771 14.704C141.651 14.704 141.091 15.048 141.091 15.736C141.091 16.072 141.251 16.336 141.571 16.528C141.891 16.704 142.595 16.928 143.683 17.2L144.139 17.32C145.579 17.688 146.603 18.072 147.211 18.472C148.171 19.096 148.651 19.984 148.651 21.136C148.651 22.512 148.107 23.576 147.019 24.328C145.995 25.016 144.587 25.36 142.795 25.36C141.003 25.36 139.563 24.952 138.475 24.136C137.563 23.448 137.011 22.56 136.819 21.472H140.587C140.667 21.872 140.907 22.2 141.307 22.456C141.707 22.696 142.195 22.816 142.771 22.816Z" fill="white" fill-opacity="0.95"/>
<path d="M1.88636 68H0.409091L4.68182 56.3636H6.13636L10.4091 68H8.93182L5.45455 58.2045H5.36364L1.88636 68ZM2.43182 63.4545H8.38636V64.7045H2.43182V63.4545ZM18.0824 59.2727L14.8551 68H13.4915L10.2642 59.2727H11.7188L14.1278 66.2273H14.2188L16.6278 59.2727H18.0824ZM22.1548 68.2045C21.6018 68.2045 21.0999 68.1004 20.6491 67.892C20.1984 67.6799 19.8404 67.375 19.5753 66.9773C19.3101 66.5758 19.1776 66.0909 19.1776 65.5227C19.1776 65.0227 19.276 64.6174 19.473 64.3068C19.67 63.9924 19.9332 63.7462 20.2628 63.5682C20.5923 63.3902 20.956 63.2576 21.3537 63.1705C21.7552 63.0795 22.1586 63.0076 22.5639 62.9545C23.0942 62.8864 23.5241 62.8352 23.8537 62.8011C24.187 62.7633 24.4295 62.7008 24.581 62.6136C24.7363 62.5265 24.8139 62.375 24.8139 62.1591V62.1136C24.8139 61.553 24.6605 61.1174 24.3537 60.8068C24.0507 60.4962 23.5904 60.3409 22.973 60.3409C22.3329 60.3409 21.831 60.4811 21.4673 60.7614C21.1037 61.0417 20.848 61.3409 20.7003 61.6591L19.4276 61.2045C19.6548 60.6742 19.9579 60.2614 20.3366 59.9659C20.7192 59.6667 21.1359 59.4583 21.5866 59.3409C22.0412 59.2197 22.4882 59.1591 22.9276 59.1591C23.2079 59.1591 23.5298 59.1932 23.8935 59.2614C24.2609 59.3258 24.6151 59.4602 24.956 59.6648C25.3007 59.8693 25.5866 60.178 25.8139 60.5909C26.0412 61.0038 26.1548 61.5568 26.1548 62.25V68H24.8139V66.8182H24.7457C24.6548 67.0076 24.5033 67.2102 24.2912 67.4261C24.0791 67.642 23.7969 67.8258 23.4446 67.9773C23.0923 68.1288 22.6624 68.2045 22.1548 68.2045ZM22.3594 67C22.8897 67 23.3366 66.8958 23.7003 66.6875C24.0677 66.4792 24.3442 66.2102 24.5298 65.8807C24.7192 65.5511 24.8139 65.2045 24.8139 64.8409V63.6136C24.7571 63.6818 24.6321 63.7443 24.4389 63.8011C24.2495 63.8542 24.0298 63.9015 23.7798 63.9432C23.5336 63.9811 23.2931 64.0152 23.0582 64.0455C22.8272 64.072 22.6397 64.0947 22.4957 64.1136C22.1473 64.1591 21.8215 64.233 21.5185 64.3352C21.2192 64.4337 20.9768 64.5833 20.7912 64.7841C20.6094 64.9811 20.5185 65.25 20.5185 65.5909C20.5185 66.0568 20.6908 66.4091 21.0355 66.6477C21.384 66.8826 21.8253 67 22.3594 67ZM32.3977 59.2727V60.4091H27.875V59.2727H32.3977ZM29.1932 57.1818H30.5341V65.5C30.5341 65.8788 30.589 66.1629 30.6989 66.3523C30.8125 66.5379 30.9564 66.6629 31.1307 66.7273C31.3087 66.7879 31.4962 66.8182 31.6932 66.8182C31.8409 66.8182 31.9621 66.8106 32.0568 66.7955C32.1515 66.7765 32.2273 66.7614 32.2841 66.75L32.5568 67.9545C32.4659 67.9886 32.339 68.0227 32.1761 68.0568C32.0133 68.0947 31.8068 68.1136 31.5568 68.1136C31.178 68.1136 30.8068 68.0322 30.4432 67.8693C30.0833 67.7064 29.7841 67.4583 29.5455 67.125C29.3106 66.7917 29.1932 66.3712 29.1932 65.8636V57.1818ZM36.983 68.2045C36.4299 68.2045 35.928 68.1004 35.4773 67.892C35.0265 67.6799 34.6686 67.375 34.4034 66.9773C34.1383 66.5758 34.0057 66.0909 34.0057 65.5227C34.0057 65.0227 34.1042 64.6174 34.3011 64.3068C34.4981 63.9924 34.7614 63.7462 35.0909 63.5682C35.4205 63.3902 35.7841 63.2576 36.1818 63.1705C36.5833 63.0795 36.9867 63.0076 37.392 62.9545C37.9223 62.8864 38.3523 62.8352 38.6818 62.8011C39.0152 62.7633 39.2576 62.7008 39.4091 62.6136C39.5644 62.5265 39.642 62.375 39.642 62.1591V62.1136C39.642 61.553 39.4886 61.1174 39.1818 60.8068C38.8788 60.4962 38.4186 60.3409 37.8011 60.3409C37.161 60.3409 36.6591 60.4811 36.2955 60.7614C35.9318 61.0417 35.6761 61.3409 35.5284 61.6591L34.2557 61.2045C34.483 60.6742 34.786 60.2614 35.1648 59.9659C35.5473 59.6667 35.964 59.4583 36.4148 59.3409C36.8693 59.2197 37.3163 59.1591 37.7557 59.1591C38.036 59.1591 38.358 59.1932 38.7216 59.2614C39.089 59.3258 39.4432 59.4602 39.7841 59.6648C40.1288 59.8693 40.4148 60.178 40.642 60.5909C40.8693 61.0038 40.983 61.5568 40.983 62.25V68H39.642V66.8182H39.5739C39.483 67.0076 39.3314 67.2102 39.1193 67.4261C38.9072 67.642 38.625 67.8258 38.2727 67.9773C37.9205 68.1288 37.4905 68.2045 36.983 68.2045ZM37.1875 67C37.7178 67 38.1648 66.8958 38.5284 66.6875C38.8958 66.4792 39.1723 66.2102 39.358 65.8807C39.5473 65.5511 39.642 65.2045 39.642 64.8409V63.6136C39.5852 63.6818 39.4602 63.7443 39.267 63.8011C39.0777 63.8542 38.858 63.9015 38.608 63.9432C38.3617 63.9811 38.1212 64.0152 37.8864 64.0455C37.6553 64.072 37.4678 64.0947 37.3239 64.1136C36.9754 64.1591 36.6496 64.233 36.3466 64.3352C36.0473 64.4337 35.8049 64.5833 35.6193 64.7841C35.4375 64.9811 35.3466 65.25 35.3466 65.5909C35.3466 66.0568 35.5189 66.4091 35.8636 66.6477C36.2121 66.8826 36.6534 67 37.1875 67ZM43.4304 68V59.2727H44.7259V60.5909H44.8168C44.9759 60.1591 45.2637 59.8087 45.6804 59.5398C46.0971 59.2708 46.5668 59.1364 47.0895 59.1364C47.188 59.1364 47.3111 59.1383 47.4588 59.142C47.6065 59.1458 47.7183 59.1515 47.794 59.1591V60.5227C47.7486 60.5114 47.6444 60.4943 47.4815 60.4716C47.3224 60.4451 47.1539 60.4318 46.9759 60.4318C46.5516 60.4318 46.1728 60.5208 45.8395 60.6989C45.5099 60.8731 45.2486 61.1155 45.0554 61.4261C44.866 61.733 44.7713 62.0833 44.7713 62.4773V68H43.4304ZM57.429 68.1818C56.6108 68.1818 55.9063 67.9886 55.3153 67.6023C54.7244 67.2159 54.2699 66.6837 53.9517 66.0057C53.6335 65.3277 53.4744 64.553 53.4744 63.6818C53.4744 62.7955 53.6373 62.0133 53.9631 61.3352C54.2926 60.6534 54.7509 60.1212 55.3381 59.7386C55.929 59.3523 56.6184 59.1591 57.4062 59.1591C58.0199 59.1591 58.5729 59.2727 59.0653 59.5C59.5578 59.7273 59.9612 60.0455 60.2756 60.4545C60.59 60.8636 60.785 61.3409 60.8608 61.8864H59.5199C59.4176 61.4886 59.1903 61.1364 58.8381 60.8295C58.4896 60.5189 58.0199 60.3636 57.429 60.3636C56.9063 60.3636 56.4479 60.5 56.054 60.7727C55.6638 61.0417 55.3589 61.4223 55.1392 61.9148C54.9233 62.4034 54.8153 62.9773 54.8153 63.6364C54.8153 64.3106 54.9214 64.8977 55.1335 65.3977C55.3494 65.8977 55.6525 66.286 56.0426 66.5625C56.4366 66.839 56.8987 66.9773 57.429 66.9773C57.7775 66.9773 58.0938 66.9167 58.3778 66.7955C58.6619 66.6742 58.9025 66.5 59.0994 66.2727C59.2964 66.0455 59.4366 65.7727 59.5199 65.4545H60.8608C60.785 65.9697 60.5975 66.4337 60.2983 66.8466C60.0028 67.2557 59.6108 67.5814 59.1222 67.8239C58.6373 68.0625 58.0729 68.1818 57.429 68.1818ZM64.1619 62.75V68H62.821V56.3636H64.1619V60.6364H64.2756C64.4801 60.1856 64.7869 59.8277 65.196 59.5625C65.6089 59.2936 66.1581 59.1591 66.8438 59.1591C67.4384 59.1591 67.9593 59.2784 68.4062 59.517C68.8532 59.7519 69.1998 60.1136 69.446 60.6023C69.696 61.0871 69.821 61.7045 69.821 62.4545V68H68.4801V62.5455C68.4801 61.8523 68.3002 61.3163 67.9403 60.9375C67.5843 60.5549 67.09 60.3636 66.4574 60.3636C66.018 60.3636 65.6241 60.4564 65.2756 60.642C64.9309 60.8277 64.6581 61.0985 64.4574 61.4545C64.2604 61.8106 64.1619 62.2424 64.1619 62.75ZM72.2741 68V59.2727H73.6151V68H72.2741ZM72.956 57.8182C72.6946 57.8182 72.4692 57.7292 72.2798 57.5511C72.0942 57.3731 72.0014 57.1591 72.0014 56.9091C72.0014 56.6591 72.0942 56.4451 72.2798 56.267C72.4692 56.089 72.6946 56 72.956 56C73.2173 56 73.4408 56.089 73.6264 56.267C73.8158 56.4451 73.9105 56.6591 73.9105 56.9091C73.9105 57.1591 73.8158 57.3731 73.6264 57.5511C73.4408 57.7292 73.2173 57.8182 72.956 57.8182ZM76.071 71.2727V59.2727H77.3665V60.6591H77.5256C77.6241 60.5076 77.7604 60.3144 77.9347 60.0795C78.1127 59.8409 78.3665 59.6288 78.696 59.4432C79.0294 59.2538 79.4801 59.1591 80.0483 59.1591C80.7831 59.1591 81.4309 59.3428 81.9915 59.7102C82.5521 60.0777 82.9896 60.5985 83.304 61.2727C83.6184 61.947 83.7756 62.7424 83.7756 63.6591C83.7756 64.5833 83.6184 65.3845 83.304 66.0625C82.9896 66.7367 82.554 67.2595 81.9972 67.6307C81.4403 67.9981 80.7983 68.1818 80.071 68.1818C79.5104 68.1818 79.0616 68.089 78.7244 67.9034C78.3873 67.714 78.1278 67.5 77.946 67.2614C77.7642 67.0189 77.6241 66.8182 77.5256 66.6591H77.4119V71.2727H76.071ZM77.3892 63.6364C77.3892 64.2955 77.4858 64.8769 77.679 65.3807C77.8722 65.8807 78.1544 66.2727 78.5256 66.5568C78.8968 66.8371 79.3513 66.9773 79.8892 66.9773C80.4498 66.9773 80.9176 66.8295 81.2926 66.5341C81.6714 66.2348 81.9555 65.8333 82.1449 65.3295C82.3381 64.822 82.4347 64.2576 82.4347 63.6364C82.4347 63.0227 82.34 62.4697 82.1506 61.9773C81.965 61.4811 81.6828 61.089 81.304 60.8011C80.929 60.5095 80.4574 60.3636 79.8892 60.3636C79.3438 60.3636 78.8854 60.5019 78.5142 60.7784C78.143 61.0511 77.8627 61.4337 77.6733 61.9261C77.4839 62.4148 77.3892 62.9848 77.3892 63.6364ZM90.321 68V59.2727H91.6619V68H90.321ZM91.0028 57.8182C90.7415 57.8182 90.5161 57.7292 90.3267 57.5511C90.1411 57.3731 90.0483 57.1591 90.0483 56.9091C90.0483 56.6591 90.1411 56.4451 90.3267 56.267C90.5161 56.089 90.7415 56 91.0028 56C91.2642 56 91.4877 56.089 91.6733 56.267C91.8627 56.4451 91.9574 56.6591 91.9574 56.9091C91.9574 57.1591 91.8627 57.3731 91.6733 57.5511C91.4877 57.7292 91.2642 57.8182 91.0028 57.8182ZM100.3 61.2273L99.0952 61.5682C99.0194 61.3674 98.9077 61.1723 98.7599 60.983C98.616 60.7898 98.419 60.6307 98.169 60.5057C97.919 60.3807 97.599 60.3182 97.2088 60.3182C96.6747 60.3182 96.2296 60.4413 95.8736 60.6875C95.5213 60.9299 95.3452 61.2386 95.3452 61.6136C95.3452 61.947 95.4664 62.2102 95.7088 62.4034C95.9512 62.5966 96.33 62.7576 96.8452 62.8864L98.1406 63.2045C98.9209 63.3939 99.5024 63.6837 99.8849 64.0739C100.268 64.4602 100.459 64.9583 100.459 65.5682C100.459 66.0682 100.315 66.5152 100.027 66.9091C99.7429 67.303 99.3452 67.6136 98.8338 67.8409C98.3224 68.0682 97.7277 68.1818 97.0497 68.1818C96.1596 68.1818 95.4228 67.9886 94.8395 67.6023C94.2562 67.2159 93.8868 66.6515 93.7315 65.9091L95.0043 65.5909C95.1255 66.0606 95.3546 66.4129 95.6918 66.6477C96.0327 66.8826 96.4777 67 97.027 67C97.652 67 98.1482 66.8674 98.5156 66.6023C98.8868 66.3333 99.0724 66.0114 99.0724 65.6364C99.0724 65.3333 98.9664 65.0795 98.7543 64.875C98.5421 64.6667 98.2164 64.5114 97.777 64.4091L96.3224 64.0682C95.5232 63.8788 94.9361 63.5852 94.5611 63.1875C94.1899 62.786 94.0043 62.2841 94.0043 61.6818C94.0043 61.1894 94.1425 60.7538 94.419 60.375C94.6993 59.9962 95.08 59.6989 95.5611 59.483C96.0459 59.267 96.5952 59.1591 97.2088 59.1591C98.0724 59.1591 98.7505 59.3485 99.2429 59.7273C99.7391 60.1061 100.091 60.6061 100.3 61.2273ZM112.477 64.4318V59.2727H113.818V68H112.477V66.5227H112.386C112.182 66.9659 111.864 67.3428 111.432 67.6534C111 67.9602 110.455 68.1136 109.795 68.1136C109.25 68.1136 108.765 67.9943 108.341 67.7557C107.917 67.5133 107.583 67.1496 107.341 66.6648C107.098 66.1761 106.977 65.5606 106.977 64.8182V59.2727H108.318V64.7273C108.318 65.3636 108.496 65.8712 108.852 66.25C109.212 66.6288 109.67 66.8182 110.227 66.8182C110.561 66.8182 110.9 66.733 111.244 66.5625C111.593 66.392 111.884 66.1307 112.119 65.7784C112.358 65.4261 112.477 64.9773 112.477 64.4318ZM122.456 61.2273L121.251 61.5682C121.176 61.3674 121.064 61.1723 120.916 60.983C120.772 60.7898 120.575 60.6307 120.325 60.5057C120.075 60.3807 119.755 60.3182 119.365 60.3182C118.831 60.3182 118.386 60.4413 118.03 60.6875C117.678 60.9299 117.501 61.2386 117.501 61.6136C117.501 61.947 117.623 62.2102 117.865 62.4034C118.107 62.5966 118.486 62.7576 119.001 62.8864L120.297 63.2045C121.077 63.3939 121.659 63.6837 122.041 64.0739C122.424 64.4602 122.615 64.9583 122.615 65.5682C122.615 66.0682 122.471 66.5152 122.183 66.9091C121.899 67.303 121.501 67.6136 120.99 67.8409C120.479 68.0682 119.884 68.1818 119.206 68.1818C118.316 68.1818 117.579 67.9886 116.996 67.6023C116.412 67.2159 116.043 66.6515 115.888 65.9091L117.161 65.5909C117.282 66.0606 117.511 66.4129 117.848 66.6477C118.189 66.8826 118.634 67 119.183 67C119.808 67 120.304 66.8674 120.672 66.6023C121.043 66.3333 121.229 66.0114 121.229 65.6364C121.229 65.3333 121.123 65.0795 120.911 64.875C120.698 64.6667 120.373 64.5114 119.933 64.4091L118.479 64.0682C117.679 63.8788 117.092 63.5852 116.717 63.1875C116.346 62.786 116.161 62.2841 116.161 61.6818C116.161 61.1894 116.299 60.7538 116.575 60.375C116.856 59.9962 117.236 59.6989 117.717 59.483C118.202 59.267 118.751 59.1591 119.365 59.1591C120.229 59.1591 120.907 59.3485 121.399 59.7273C121.895 60.1061 122.248 60.6061 122.456 61.2273ZM128.293 68.1818C127.452 68.1818 126.726 67.9962 126.116 67.625C125.51 67.25 125.043 66.7273 124.713 66.0568C124.387 65.3826 124.224 64.5985 124.224 63.7045C124.224 62.8106 124.387 62.0227 124.713 61.3409C125.043 60.6553 125.501 60.1212 126.088 59.7386C126.679 59.3523 127.368 59.1591 128.156 59.1591C128.611 59.1591 129.06 59.2348 129.503 59.3864C129.946 59.5379 130.349 59.7841 130.713 60.125C131.077 60.4621 131.366 60.9091 131.582 61.4659C131.798 62.0227 131.906 62.7083 131.906 63.5227V64.0909H125.179V62.9318H130.543C130.543 62.4394 130.444 62 130.247 61.6136C130.054 61.2273 129.777 60.9223 129.418 60.6989C129.062 60.4754 128.641 60.3636 128.156 60.3636C127.622 60.3636 127.16 60.4962 126.77 60.7614C126.384 61.0227 126.086 61.3636 125.878 61.7841C125.67 62.2045 125.565 62.6553 125.565 63.1364V63.9091C125.565 64.5682 125.679 65.1269 125.906 65.5852C126.137 66.0398 126.457 66.3864 126.866 66.625C127.276 66.8598 127.751 66.9773 128.293 66.9773C128.645 66.9773 128.963 66.928 129.247 66.8295C129.535 66.7273 129.783 66.5758 129.991 66.375C130.2 66.1705 130.361 65.9167 130.474 65.6136L131.77 65.9773C131.634 66.4167 131.404 66.803 131.082 67.1364C130.76 67.4659 130.363 67.7235 129.889 67.9091C129.416 68.0909 128.884 68.1818 128.293 68.1818ZM142.241 59.2727V60.4091H137.719V59.2727H142.241ZM139.037 57.1818H140.378V65.5C140.378 65.8788 140.433 66.1629 140.543 66.3523C140.656 66.5379 140.8 66.6629 140.974 66.7273C141.152 66.7879 141.34 66.8182 141.537 66.8182C141.685 66.8182 141.806 66.8106 141.901 66.7955C141.995 66.7765 142.071 66.7614 142.128 66.75L142.401 67.9545C142.31 67.9886 142.183 68.0227 142.02 68.0568C141.857 68.0947 141.651 68.1136 141.401 68.1136C141.022 68.1136 140.651 68.0322 140.287 67.8693C139.927 67.7064 139.628 67.4583 139.389 67.125C139.154 66.7917 139.037 66.3712 139.037 65.8636V57.1818ZM147.71 68.1818C146.922 68.1818 146.231 67.9943 145.636 67.6193C145.045 67.2443 144.583 66.7197 144.25 66.0455C143.92 65.3712 143.756 64.5833 143.756 63.6818C143.756 62.7727 143.92 61.9792 144.25 61.3011C144.583 60.6231 145.045 60.0966 145.636 59.7216C146.231 59.3466 146.922 59.1591 147.71 59.1591C148.498 59.1591 149.188 59.3466 149.778 59.7216C150.373 60.0966 150.835 60.6231 151.165 61.3011C151.498 61.9792 151.665 62.7727 151.665 63.6818C151.665 64.5833 151.498 65.3712 151.165 66.0455C150.835 66.7197 150.373 67.2443 149.778 67.6193C149.188 67.9943 148.498 68.1818 147.71 68.1818ZM147.71 66.9773C148.309 66.9773 148.801 66.8239 149.188 66.517C149.574 66.2102 149.86 65.8068 150.045 65.3068C150.231 64.8068 150.324 64.2652 150.324 63.6818C150.324 63.0985 150.231 62.5549 150.045 62.0511C149.86 61.5473 149.574 61.1402 149.188 60.8295C148.801 60.5189 148.309 60.3636 147.71 60.3636C147.112 60.3636 146.619 60.5189 146.233 60.8295C145.847 61.1402 145.561 61.5473 145.375 62.0511C145.189 62.5549 145.097 63.0985 145.097 63.6818C145.097 64.2652 145.189 64.8068 145.375 65.3068C145.561 65.8068 145.847 66.2102 146.233 66.517C146.619 66.8239 147.112 66.9773 147.71 66.9773ZM164.393 61.2273L163.189 61.5682C163.113 61.3674 163.001 61.1723 162.854 60.983C162.71 60.7898 162.513 60.6307 162.263 60.5057C162.013 60.3807 161.693 60.3182 161.303 60.3182C160.768 60.3182 160.323 60.4413 159.967 60.6875C159.615 60.9299 159.439 61.2386 159.439 61.6136C159.439 61.947 159.56 62.2102 159.803 62.4034C160.045 62.5966 160.424 62.7576 160.939 62.8864L162.234 63.2045C163.015 63.3939 163.596 63.6837 163.979 64.0739C164.361 64.4602 164.553 64.9583 164.553 65.5682C164.553 66.0682 164.409 66.5152 164.121 66.9091C163.837 67.303 163.439 67.6136 162.928 67.8409C162.416 68.0682 161.821 68.1818 161.143 68.1818C160.253 68.1818 159.517 67.9886 158.933 67.6023C158.35 67.2159 157.981 66.6515 157.825 65.9091L159.098 65.5909C159.219 66.0606 159.448 66.4129 159.786 66.6477C160.126 66.8826 160.571 67 161.121 67C161.746 67 162.242 66.8674 162.609 66.6023C162.981 66.3333 163.166 66.0114 163.166 65.6364C163.166 65.3333 163.06 65.0795 162.848 64.875C162.636 64.6667 162.31 64.5114 161.871 64.4091L160.416 64.0682C159.617 63.8788 159.03 63.5852 158.655 63.1875C158.284 62.786 158.098 62.2841 158.098 61.6818C158.098 61.1894 158.236 60.7538 158.513 60.375C158.793 59.9962 159.174 59.6989 159.655 59.483C160.14 59.267 160.689 59.1591 161.303 59.1591C162.166 59.1591 162.844 59.3485 163.337 59.7273C163.833 60.1061 164.185 60.6061 164.393 61.2273ZM167.912 62.75V68H166.571V56.3636H167.912V60.6364H168.026C168.23 60.1856 168.537 59.8277 168.946 59.5625C169.359 59.2936 169.908 59.1591 170.594 59.1591C171.188 59.1591 171.709 59.2784 172.156 59.517C172.603 59.7519 172.95 60.1136 173.196 60.6023C173.446 61.0871 173.571 61.7045 173.571 62.4545V68H172.23V62.5455C172.23 61.8523 172.05 61.3163 171.69 60.9375C171.334 60.5549 170.84 60.3636 170.207 60.3636C169.768 60.3636 169.374 60.4564 169.026 60.642C168.681 60.8277 168.408 61.0985 168.207 61.4545C168.01 61.8106 167.912 62.2424 167.912 62.75ZM179.57 68.1818C178.782 68.1818 178.09 67.9943 177.496 67.6193C176.905 67.2443 176.443 66.7197 176.109 66.0455C175.78 65.3712 175.615 64.5833 175.615 63.6818C175.615 62.7727 175.78 61.9792 176.109 61.3011C176.443 60.6231 176.905 60.0966 177.496 59.7216C178.09 59.3466 178.782 59.1591 179.57 59.1591C180.357 59.1591 181.047 59.3466 181.638 59.7216C182.232 60.0966 182.695 60.6231 183.024 61.3011C183.357 61.9792 183.524 62.7727 183.524 63.6818C183.524 64.5833 183.357 65.3712 183.024 66.0455C182.695 66.7197 182.232 67.2443 181.638 67.6193C181.047 67.9943 180.357 68.1818 179.57 68.1818ZM179.57 66.9773C180.168 66.9773 180.661 66.8239 181.047 66.517C181.433 66.2102 181.719 65.8068 181.905 65.3068C182.09 64.8068 182.183 64.2652 182.183 63.6818C182.183 63.0985 182.09 62.5549 181.905 62.0511C181.719 61.5473 181.433 61.1402 181.047 60.8295C180.661 60.5189 180.168 60.3636 179.57 60.3636C178.971 60.3636 178.479 60.5189 178.092 60.8295C177.706 61.1402 177.42 61.5473 177.234 62.0511C177.049 62.5549 176.956 63.0985 176.956 63.6818C176.956 64.2652 177.049 64.8068 177.234 65.3068C177.42 65.8068 177.706 66.2102 178.092 66.517C178.479 66.8239 178.971 66.9773 179.57 66.9773ZM187.251 68L184.592 59.2727H186.001L187.888 65.9545H187.979L189.842 59.2727H191.274L193.115 65.9318H193.206L195.092 59.2727H196.501L193.842 68H192.524L190.615 61.2955H190.479L188.57 68H187.251ZM202.388 55.8182L198.638 69.75H197.411L201.161 55.8182H202.388ZM1.22727 92V83.2727H2.56818V92H1.22727ZM1.90909 81.8182C1.64773 81.8182 1.42235 81.7292 1.23295 81.5511C1.04735 81.3731 0.954545 81.1591 0.954545 80.9091C0.954545 80.6591 1.04735 80.4451 1.23295 80.267C1.42235 80.089 1.64773 80 1.90909 80C2.17045 80 2.39394 80.089 2.57955 80.267C2.76894 80.4451 2.86364 80.6591 2.86364 80.9091C2.86364 81.1591 2.76894 81.3731 2.57955 81.5511C2.39394 81.7292 2.17045 81.8182 1.90909 81.8182ZM6.36506 86.75V92H5.02415V83.2727H6.3196V84.6364H6.43324C6.63778 84.1932 6.94839 83.8371 7.36506 83.5682C7.78172 83.2955 8.3196 83.1591 8.97869 83.1591C9.5696 83.1591 10.0866 83.2803 10.5298 83.5227C10.973 83.7614 11.3177 84.125 11.5639 84.6136C11.8101 85.0985 11.9332 85.7121 11.9332 86.4545V92H10.5923V86.5455C10.5923 85.8598 10.4143 85.3258 10.0582 84.9432C9.70218 84.5568 9.21354 84.3636 8.59233 84.3636C8.1643 84.3636 7.78172 84.4564 7.4446 84.642C7.11127 84.8277 6.84801 85.0985 6.65483 85.4545C6.46165 85.8106 6.36506 86.2424 6.36506 86.75ZM17.679 92.1818C16.9517 92.1818 16.3097 91.9981 15.7528 91.6307C15.196 91.2595 14.7604 90.7367 14.446 90.0625C14.1316 89.3845 13.9744 88.5833 13.9744 87.6591C13.9744 86.7424 14.1316 85.947 14.446 85.2727C14.7604 84.5985 15.1979 84.0777 15.7585 83.7102C16.3191 83.3428 16.9669 83.1591 17.7017 83.1591C18.2699 83.1591 18.7188 83.2538 19.0483 83.4432C19.3816 83.6288 19.6354 83.8409 19.8097 84.0795C19.9877 84.3144 20.1259 84.5076 20.2244 84.6591H20.3381V80.3636H21.679V92H20.3835V90.6591H20.2244C20.1259 90.8182 19.9858 91.0189 19.804 91.2614C19.6222 91.5 19.3627 91.714 19.0256 91.9034C18.6884 92.089 18.2396 92.1818 17.679 92.1818ZM17.8608 90.9773C18.3987 90.9773 18.8532 90.8371 19.2244 90.5568C19.5956 90.2727 19.8778 89.8807 20.071 89.3807C20.2642 88.8769 20.3608 88.2955 20.3608 87.6364C20.3608 86.9848 20.2661 86.4148 20.0767 85.9261C19.8873 85.4337 19.607 85.0511 19.2358 84.7784C18.8646 84.5019 18.4063 84.3636 17.8608 84.3636C17.2926 84.3636 16.8191 84.5095 16.4403 84.8011C16.0653 85.089 15.7831 85.4811 15.5938 85.9773C15.4081 86.4697 15.3153 87.0227 15.3153 87.6364C15.3153 88.2576 15.41 88.822 15.5994 89.3295C15.7926 89.8333 16.0767 90.2348 16.4517 90.5341C16.8305 90.8295 17.3002 90.9773 17.8608 90.9773ZM24.321 92V83.2727H25.6619V92H24.321ZM25.0028 81.8182C24.7415 81.8182 24.5161 81.7292 24.3267 81.5511C24.1411 81.3731 24.0483 81.1591 24.0483 80.9091C24.0483 80.6591 24.1411 80.4451 24.3267 80.267C24.5161 80.089 24.7415 80 25.0028 80C25.2642 80 25.4877 80.089 25.6733 80.267C25.8627 80.4451 25.9574 80.6591 25.9574 80.9091C25.9574 81.1591 25.8627 81.3731 25.6733 81.5511C25.4877 81.7292 25.2642 81.8182 25.0028 81.8182ZM31.6634 92.1818C30.8452 92.1818 30.1406 91.9886 29.5497 91.6023C28.9588 91.2159 28.5043 90.6837 28.1861 90.0057C27.8679 89.3277 27.7088 88.553 27.7088 87.6818C27.7088 86.7955 27.8717 86.0133 28.1974 85.3352C28.527 84.6534 28.9853 84.1212 29.5724 83.7386C30.1634 83.3523 30.8527 83.1591 31.6406 83.1591C32.2543 83.1591 32.8073 83.2727 33.2997 83.5C33.7921 83.7273 34.1955 84.0455 34.5099 84.4545C34.8243 84.8636 35.0194 85.3409 35.0952 85.8864H33.7543C33.652 85.4886 33.4247 85.1364 33.0724 84.8295C32.724 84.5189 32.2543 84.3636 31.6634 84.3636C31.1406 84.3636 30.6823 84.5 30.2884 84.7727C29.8982 85.0417 29.5933 85.4223 29.3736 85.9148C29.1577 86.4034 29.0497 86.9773 29.0497 87.6364C29.0497 88.3106 29.1558 88.8977 29.3679 89.3977C29.5838 89.8977 29.8868 90.286 30.277 90.5625C30.6709 90.839 31.133 90.9773 31.6634 90.9773C32.0118 90.9773 32.3281 90.9167 32.6122 90.7955C32.8963 90.6742 33.1368 90.5 33.3338 90.2727C33.5308 90.0455 33.6709 89.7727 33.7543 89.4545H35.0952C35.0194 89.9697 34.8319 90.4337 34.5327 90.8466C34.2372 91.2557 33.8452 91.5814 33.3565 91.8239C32.8717 92.0625 32.3073 92.1818 31.6634 92.1818ZM39.6236 92.2045C39.0705 92.2045 38.5687 92.1004 38.1179 91.892C37.6671 91.6799 37.3092 91.375 37.044 90.9773C36.7789 90.5758 36.6463 90.0909 36.6463 89.5227C36.6463 89.0227 36.7448 88.6174 36.9418 88.3068C37.1387 87.9924 37.402 87.7462 37.7315 87.5682C38.0611 87.3902 38.4247 87.2576 38.8224 87.1705C39.224 87.0795 39.6274 87.0076 40.0327 86.9545C40.563 86.8864 40.9929 86.8352 41.3224 86.8011C41.6558 86.7633 41.8982 86.7008 42.0497 86.6136C42.205 86.5265 42.2827 86.375 42.2827 86.1591V86.1136C42.2827 85.553 42.1293 85.1174 41.8224 84.8068C41.5194 84.4962 41.0592 84.3409 40.4418 84.3409C39.8016 84.3409 39.2997 84.4811 38.9361 84.7614C38.5724 85.0417 38.3168 85.3409 38.169 85.6591L36.8963 85.2045C37.1236 84.6742 37.4266 84.2614 37.8054 83.9659C38.188 83.6667 38.6046 83.4583 39.0554 83.3409C39.5099 83.2197 39.9569 83.1591 40.3963 83.1591C40.6766 83.1591 40.9986 83.1932 41.3622 83.2614C41.7296 83.3258 42.0838 83.4602 42.4247 83.6648C42.7694 83.8693 43.0554 84.178 43.2827 84.5909C43.5099 85.0038 43.6236 85.5568 43.6236 86.25V92H42.2827V90.8182H42.2145C42.1236 91.0076 41.9721 91.2102 41.7599 91.4261C41.5478 91.642 41.2656 91.8258 40.9134 91.9773C40.5611 92.1288 40.1312 92.2045 39.6236 92.2045ZM39.8281 91C40.3584 91 40.8054 90.8958 41.169 90.6875C41.5365 90.4792 41.813 90.2102 41.9986 89.8807C42.188 89.5511 42.2827 89.2045 42.2827 88.8409V87.6136C42.2259 87.6818 42.1009 87.7443 41.9077 87.8011C41.7183 87.8542 41.4986 87.9015 41.2486 87.9432C41.0024 87.9811 40.7618 88.0152 40.527 88.0455C40.2959 88.072 40.1084 88.0947 39.9645 88.1136C39.616 88.1591 39.2902 88.233 38.9872 88.3352C38.688 88.4337 38.4455 88.5833 38.2599 88.7841C38.0781 88.9811 37.9872 89.25 37.9872 89.5909C37.9872 90.0568 38.1596 90.4091 38.5043 90.6477C38.8527 90.8826 39.294 91 39.8281 91ZM49.8665 83.2727V84.4091H45.3438V83.2727H49.8665ZM46.6619 81.1818H48.0028V89.5C48.0028 89.8788 48.0578 90.1629 48.1676 90.3523C48.2813 90.5379 48.4252 90.6629 48.5994 90.7273C48.7775 90.7879 48.965 90.8182 49.1619 90.8182C49.3097 90.8182 49.4309 90.8106 49.5256 90.7955C49.6203 90.7765 49.696 90.7614 49.7528 90.75L50.0256 91.9545C49.9347 91.9886 49.8078 92.0227 49.6449 92.0568C49.482 92.0947 49.2756 92.1136 49.0256 92.1136C48.6468 92.1136 48.2756 92.0322 47.9119 91.8693C47.5521 91.7064 47.2528 91.4583 47.0142 91.125C46.7794 90.7917 46.6619 90.3712 46.6619 89.8636V81.1818ZM55.4489 92.1818C54.608 92.1818 53.8826 91.9962 53.2727 91.625C52.6667 91.25 52.1989 90.7273 51.8693 90.0568C51.5436 89.3826 51.3807 88.5985 51.3807 87.7045C51.3807 86.8106 51.5436 86.0227 51.8693 85.3409C52.1989 84.6553 52.6572 84.1212 53.2443 83.7386C53.8352 83.3523 54.5246 83.1591 55.3125 83.1591C55.767 83.1591 56.2159 83.2348 56.6591 83.3864C57.1023 83.5379 57.5057 83.7841 57.8693 84.125C58.233 84.4621 58.5227 84.9091 58.7386 85.4659C58.9545 86.0227 59.0625 86.7083 59.0625 87.5227V88.0909H52.3352V86.9318H57.6989C57.6989 86.4394 57.6004 86 57.4034 85.6136C57.2102 85.2273 56.9337 84.9223 56.5739 84.6989C56.2178 84.4754 55.7973 84.3636 55.3125 84.3636C54.7784 84.3636 54.3163 84.4962 53.9261 84.7614C53.5398 85.0227 53.2424 85.3636 53.0341 85.7841C52.8258 86.2045 52.7216 86.6553 52.7216 87.1364V87.9091C52.7216 88.5682 52.8352 89.1269 53.0625 89.5852C53.2936 90.0398 53.6136 90.3864 54.0227 90.625C54.4318 90.8598 54.9072 90.9773 55.4489 90.9773C55.8011 90.9773 56.1193 90.928 56.4034 90.8295C56.6913 90.7273 56.9394 90.5758 57.1477 90.375C57.3561 90.1705 57.517 89.9167 57.6307 89.6136L58.9261 89.9773C58.7898 90.4167 58.5606 90.803 58.2386 91.1364C57.9167 91.4659 57.5189 91.7235 57.0455 91.9091C56.572 92.0909 56.0398 92.1818 55.4489 92.1818ZM69.3977 83.2727V84.4091H64.875V83.2727H69.3977ZM66.1932 81.1818H67.5341V89.5C67.5341 89.8788 67.589 90.1629 67.6989 90.3523C67.8125 90.5379 67.9564 90.6629 68.1307 90.7273C68.3087 90.7879 68.4962 90.8182 68.6932 90.8182C68.8409 90.8182 68.9621 90.8106 69.0568 90.7955C69.1515 90.7765 69.2273 90.7614 69.2841 90.75L69.5568 91.9545C69.4659 91.9886 69.339 92.0227 69.1761 92.0568C69.0133 92.0947 68.8068 92.1136 68.5568 92.1136C68.178 92.1136 67.8068 92.0322 67.4432 91.8693C67.0833 91.7064 66.7841 91.4583 66.5455 91.125C66.3106 90.7917 66.1932 90.3712 66.1932 89.8636V81.1818ZM72.9432 86.75V92H71.6023V80.3636H72.9432V84.6364H73.0568C73.2614 84.1856 73.5682 83.8277 73.9773 83.5625C74.3902 83.2936 74.9394 83.1591 75.625 83.1591C76.2197 83.1591 76.7405 83.2784 77.1875 83.517C77.6345 83.7519 77.9811 84.1136 78.2273 84.6023C78.4773 85.0871 78.6023 85.7045 78.6023 86.4545V92H77.2614V86.5455C77.2614 85.8523 77.0814 85.3163 76.7216 84.9375C76.3655 84.5549 75.8712 84.3636 75.2386 84.3636C74.7992 84.3636 74.4053 84.4564 74.0568 84.642C73.7121 84.8277 73.4394 85.0985 73.2386 85.4545C73.0417 85.8106 72.9432 86.2424 72.9432 86.75ZM83.6236 92.2045C83.0705 92.2045 82.5687 92.1004 82.1179 91.892C81.6671 91.6799 81.3092 91.375 81.044 90.9773C80.7789 90.5758 80.6463 90.0909 80.6463 89.5227C80.6463 89.0227 80.7448 88.6174 80.9418 88.3068C81.1387 87.9924 81.402 87.7462 81.7315 87.5682C82.0611 87.3902 82.4247 87.2576 82.8224 87.1705C83.224 87.0795 83.6274 87.0076 84.0327 86.9545C84.563 86.8864 84.9929 86.8352 85.3224 86.8011C85.6558 86.7633 85.8982 86.7008 86.0497 86.6136C86.205 86.5265 86.2827 86.375 86.2827 86.1591V86.1136C86.2827 85.553 86.1293 85.1174 85.8224 84.8068C85.5194 84.4962 85.0592 84.3409 84.4418 84.3409C83.8016 84.3409 83.2997 84.4811 82.9361 84.7614C82.5724 85.0417 82.3168 85.3409 82.169 85.6591L80.8963 85.2045C81.1236 84.6742 81.4266 84.2614 81.8054 83.9659C82.188 83.6667 82.6046 83.4583 83.0554 83.3409C83.5099 83.2197 83.9569 83.1591 84.3963 83.1591C84.6766 83.1591 84.9986 83.1932 85.3622 83.2614C85.7296 83.3258 86.0838 83.4602 86.4247 83.6648C86.7694 83.8693 87.0554 84.178 87.2827 84.5909C87.5099 85.0038 87.6236 85.5568 87.6236 86.25V92H86.2827V90.8182H86.2145C86.1236 91.0076 85.9721 91.2102 85.7599 91.4261C85.5478 91.642 85.2656 91.8258 84.9134 91.9773C84.5611 92.1288 84.1312 92.2045 83.6236 92.2045ZM83.8281 91C84.3584 91 84.8054 90.8958 85.169 90.6875C85.5365 90.4792 85.813 90.2102 85.9986 89.8807C86.188 89.5511 86.2827 89.2045 86.2827 88.8409V87.6136C86.2259 87.6818 86.1009 87.7443 85.9077 87.8011C85.7183 87.8542 85.4986 87.9015 85.2486 87.9432C85.0024 87.9811 84.7618 88.0152 84.527 88.0455C84.2959 88.072 84.1084 88.0947 83.9645 88.1136C83.616 88.1591 83.2902 88.233 82.9872 88.3352C82.688 88.4337 82.4455 88.5833 82.2599 88.7841C82.0781 88.9811 81.9872 89.25 81.9872 89.5909C81.9872 90.0568 82.1596 90.4091 82.5043 90.6477C82.8527 90.8826 83.294 91 83.8281 91ZM93.8665 83.2727V84.4091H89.3438V83.2727H93.8665ZM90.6619 81.1818H92.0028V89.5C92.0028 89.8788 92.0578 90.1629 92.1676 90.3523C92.2813 90.5379 92.4252 90.6629 92.5994 90.7273C92.7775 90.7879 92.965 90.8182 93.1619 90.8182C93.3097 90.8182 93.4309 90.8106 93.5256 90.7955C93.6203 90.7765 93.696 90.7614 93.7528 90.75L94.0256 91.9545C93.9347 91.9886 93.8078 92.0227 93.6449 92.0568C93.482 92.0947 93.2756 92.1136 93.0256 92.1136C92.6468 92.1136 92.2756 92.0322 91.9119 91.8693C91.5521 91.7064 91.2528 91.4583 91.0142 91.125C90.7794 90.7917 90.6619 90.3712 90.6619 89.8636V81.1818ZM100.384 92V83.2727H101.724V92H100.384ZM101.065 81.8182C100.804 81.8182 100.579 81.7292 100.389 81.5511C100.204 81.3731 100.111 81.1591 100.111 80.9091C100.111 80.6591 100.204 80.4451 100.389 80.267C100.579 80.089 100.804 80 101.065 80C101.327 80 101.55 80.089 101.736 80.267C101.925 80.4451 102.02 80.6591 102.02 80.9091C102.02 81.1591 101.925 81.3731 101.736 81.5511C101.55 81.7292 101.327 81.8182 101.065 81.8182ZM107.976 83.2727V84.4091H103.453V83.2727H107.976ZM104.771 81.1818H106.112V89.5C106.112 89.8788 106.167 90.1629 106.277 90.3523C106.391 90.5379 106.535 90.6629 106.709 90.7273C106.887 90.7879 107.074 90.8182 107.271 90.8182C107.419 90.8182 107.54 90.8106 107.635 90.7955C107.73 90.7765 107.805 90.7614 107.862 90.75L108.135 91.9545C108.044 91.9886 107.917 92.0227 107.754 92.0568C107.591 92.0947 107.385 92.1136 107.135 92.1136C106.756 92.1136 106.385 92.0322 106.021 91.8693C105.661 91.7064 105.362 91.4583 105.124 91.125C104.889 90.7917 104.771 90.3712 104.771 89.8636V81.1818ZM114.493 92V83.2727H115.788V84.5909H115.879C116.038 84.1591 116.326 83.8087 116.743 83.5398C117.16 83.2708 117.629 83.1364 118.152 83.1364C118.25 83.1364 118.374 83.1383 118.521 83.142C118.669 83.1458 118.781 83.1515 118.857 83.1591V84.5227C118.811 84.5114 118.707 84.4943 118.544 84.4716C118.385 84.4451 118.216 84.4318 118.038 84.4318C117.614 84.4318 117.235 84.5208 116.902 84.6989C116.572 84.8731 116.311 85.1155 116.118 85.4261C115.929 85.733 115.834 86.0833 115.834 86.4773V92H114.493ZM123.839 92.1818C122.999 92.1818 122.273 91.9962 121.663 91.625C121.057 91.25 120.589 90.7273 120.26 90.0568C119.934 89.3826 119.771 88.5985 119.771 87.7045C119.771 86.8106 119.934 86.0227 120.26 85.3409C120.589 84.6553 121.048 84.1212 121.635 83.7386C122.226 83.3523 122.915 83.1591 123.703 83.1591C124.158 83.1591 124.607 83.2348 125.05 83.3864C125.493 83.5379 125.896 83.7841 126.26 84.125C126.624 84.4621 126.913 84.9091 127.129 85.4659C127.345 86.0227 127.453 86.7083 127.453 87.5227V88.0909H120.726V86.9318H126.089C126.089 86.4394 125.991 86 125.794 85.6136C125.601 85.2273 125.324 84.9223 124.964 84.6989C124.608 84.4754 124.188 84.3636 123.703 84.3636C123.169 84.3636 122.707 84.4962 122.317 84.7614C121.93 85.0227 121.633 85.3636 121.425 85.7841C121.216 86.2045 121.112 86.6553 121.112 87.1364V87.9091C121.112 88.5682 121.226 89.1269 121.453 89.5852C121.684 90.0398 122.004 90.3864 122.413 90.625C122.822 90.8598 123.298 90.9773 123.839 90.9773C124.192 90.9773 124.51 90.928 124.794 90.8295C125.082 90.7273 125.33 90.5758 125.538 90.375C125.747 90.1705 125.908 89.9167 126.021 89.6136L127.317 89.9773C127.18 90.4167 126.951 90.803 126.629 91.1364C126.307 91.4659 125.91 91.7235 125.436 91.9091C124.963 92.0909 124.43 92.1818 123.839 92.1818ZM129.493 95.2727V83.2727H130.788V84.6591H130.947C131.046 84.5076 131.182 84.3144 131.357 84.0795C131.535 83.8409 131.788 83.6288 132.118 83.4432C132.451 83.2538 132.902 83.1591 133.47 83.1591C134.205 83.1591 134.853 83.3428 135.413 83.7102C135.974 84.0777 136.411 84.5985 136.726 85.2727C137.04 85.947 137.197 86.7424 137.197 87.6591C137.197 88.5833 137.04 89.3845 136.726 90.0625C136.411 90.7367 135.976 91.2595 135.419 91.6307C134.862 91.9981 134.22 92.1818 133.493 92.1818C132.932 92.1818 132.483 92.089 132.146 91.9034C131.809 91.714 131.55 91.5 131.368 91.2614C131.186 91.0189 131.046 90.8182 130.947 90.6591H130.834V95.2727H129.493ZM130.811 87.6364C130.811 88.2955 130.908 88.8769 131.101 89.3807C131.294 89.8807 131.576 90.2727 131.947 90.5568C132.319 90.8371 132.773 90.9773 133.311 90.9773C133.872 90.9773 134.339 90.8295 134.714 90.5341C135.093 90.2348 135.377 89.8333 135.567 89.3295C135.76 88.822 135.857 88.2576 135.857 87.6364C135.857 87.0227 135.762 86.4697 135.572 85.9773C135.387 85.4811 135.105 85.089 134.726 84.8011C134.351 84.5095 133.879 84.3636 133.311 84.3636C132.766 84.3636 132.307 84.5019 131.936 84.7784C131.565 85.0511 131.285 85.4337 131.095 85.9261C130.906 86.4148 130.811 86.9848 130.811 87.6364ZM139.243 92V83.2727H140.538V84.5909H140.629C140.788 84.1591 141.076 83.8087 141.493 83.5398C141.91 83.2708 142.379 83.1364 142.902 83.1364C143 83.1364 143.124 83.1383 143.271 83.142C143.419 83.1458 143.531 83.1515 143.607 83.1591V84.5227C143.561 84.5114 143.457 84.4943 143.294 84.4716C143.135 84.4451 142.966 84.4318 142.788 84.4318C142.364 84.4318 141.985 84.5208 141.652 84.6989C141.322 84.8731 141.061 85.1155 140.868 85.4261C140.679 85.733 140.584 86.0833 140.584 86.4773V92H139.243ZM148.589 92.1818C147.749 92.1818 147.023 91.9962 146.413 91.625C145.807 91.25 145.339 90.7273 145.01 90.0568C144.684 89.3826 144.521 88.5985 144.521 87.7045C144.521 86.8106 144.684 86.0227 145.01 85.3409C145.339 84.6553 145.798 84.1212 146.385 83.7386C146.976 83.3523 147.665 83.1591 148.453 83.1591C148.908 83.1591 149.357 83.2348 149.8 83.3864C150.243 83.5379 150.646 83.7841 151.01 84.125C151.374 84.4621 151.663 84.9091 151.879 85.4659C152.095 86.0227 152.203 86.7083 152.203 87.5227V88.0909H145.476V86.9318H150.839C150.839 86.4394 150.741 86 150.544 85.6136C150.351 85.2273 150.074 84.9223 149.714 84.6989C149.358 84.4754 148.938 84.3636 148.453 84.3636C147.919 84.3636 147.457 84.4962 147.067 84.7614C146.68 85.0227 146.383 85.3636 146.175 85.7841C145.966 86.2045 145.862 86.6553 145.862 87.1364V87.9091C145.862 88.5682 145.976 89.1269 146.203 89.5852C146.434 90.0398 146.754 90.3864 147.163 90.625C147.572 90.8598 148.048 90.9773 148.589 90.9773C148.942 90.9773 149.26 90.928 149.544 90.8295C149.832 90.7273 150.08 90.5758 150.288 90.375C150.497 90.1705 150.658 89.9167 150.771 89.6136L152.067 89.9773C151.93 90.4167 151.701 90.803 151.379 91.1364C151.057 91.4659 150.66 91.7235 150.186 91.9091C149.713 92.0909 149.18 92.1818 148.589 92.1818ZM160.425 85.2273L159.22 85.5682C159.144 85.3674 159.033 85.1723 158.885 84.983C158.741 84.7898 158.544 84.6307 158.294 84.5057C158.044 84.3807 157.724 84.3182 157.334 84.3182C156.8 84.3182 156.355 84.4413 155.999 84.6875C155.646 84.9299 155.47 85.2386 155.47 85.6136C155.47 85.947 155.591 86.2102 155.834 86.4034C156.076 86.5966 156.455 86.7576 156.97 86.8864L158.266 87.2045C159.046 87.3939 159.627 87.6837 160.01 88.0739C160.393 88.4602 160.584 88.9583 160.584 89.5682C160.584 90.0682 160.44 90.5152 160.152 90.9091C159.868 91.303 159.47 91.6136 158.959 91.8409C158.447 92.0682 157.853 92.1818 157.175 92.1818C156.285 92.1818 155.548 91.9886 154.964 91.6023C154.381 91.2159 154.012 90.6515 153.857 89.9091L155.129 89.5909C155.25 90.0606 155.48 90.4129 155.817 90.6477C156.158 90.8826 156.603 91 157.152 91C157.777 91 158.273 90.8674 158.641 90.6023C159.012 90.3333 159.197 90.0114 159.197 89.6364C159.197 89.3333 159.091 89.0795 158.879 88.875C158.667 88.6667 158.341 88.5114 157.902 88.4091L156.447 88.0682C155.648 87.8788 155.061 87.5852 154.686 87.1875C154.315 86.786 154.129 86.2841 154.129 85.6818C154.129 85.1894 154.268 84.7538 154.544 84.375C154.824 83.9962 155.205 83.6989 155.686 83.483C156.171 83.267 156.72 83.1591 157.334 83.1591C158.197 83.1591 158.875 83.3485 159.368 83.7273C159.864 84.1061 160.216 84.6061 160.425 85.2273ZM166.261 92.1818C165.42 92.1818 164.695 91.9962 164.085 91.625C163.479 91.25 163.011 90.7273 162.682 90.0568C162.356 89.3826 162.193 88.5985 162.193 87.7045C162.193 86.8106 162.356 86.0227 162.682 85.3409C163.011 84.6553 163.47 84.1212 164.057 83.7386C164.648 83.3523 165.337 83.1591 166.125 83.1591C166.58 83.1591 167.028 83.2348 167.472 83.3864C167.915 83.5379 168.318 83.7841 168.682 84.125C169.045 84.4621 169.335 84.9091 169.551 85.4659C169.767 86.0227 169.875 86.7083 169.875 87.5227V88.0909H163.148V86.9318H168.511C168.511 86.4394 168.413 86 168.216 85.6136C168.023 85.2273 167.746 84.9223 167.386 84.6989C167.03 84.4754 166.61 84.3636 166.125 84.3636C165.591 84.3636 165.129 84.4962 164.739 84.7614C164.352 85.0227 164.055 85.3636 163.847 85.7841C163.638 86.2045 163.534 86.6553 163.534 87.1364V87.9091C163.534 88.5682 163.648 89.1269 163.875 89.5852C164.106 90.0398 164.426 90.3864 164.835 90.625C165.244 90.8598 165.72 90.9773 166.261 90.9773C166.614 90.9773 166.932 90.928 167.216 90.8295C167.504 90.7273 167.752 90.5758 167.96 90.375C168.169 90.1705 168.33 89.9167 168.443 89.6136L169.739 89.9773C169.602 90.4167 169.373 90.803 169.051 91.1364C168.729 91.4659 168.331 91.7235 167.858 91.9091C167.384 92.0909 166.852 92.1818 166.261 92.1818ZM173.256 86.75V92H171.915V83.2727H173.21V84.6364H173.324C173.528 84.1932 173.839 83.8371 174.256 83.5682C174.672 83.2955 175.21 83.1591 175.869 83.1591C176.46 83.1591 176.977 83.2803 177.42 83.5227C177.864 83.7614 178.208 84.125 178.455 84.6136C178.701 85.0985 178.824 85.7121 178.824 86.4545V92H177.483V86.5455C177.483 85.8598 177.305 85.3258 176.949 84.9432C176.593 84.5568 176.104 84.3636 175.483 84.3636C175.055 84.3636 174.672 84.4564 174.335 84.642C174.002 84.8277 173.739 85.0985 173.545 85.4545C173.352 85.8106 173.256 86.2424 173.256 86.75ZM185.07 83.2727V84.4091H180.547V83.2727H185.07ZM181.865 81.1818H183.206V89.5C183.206 89.8788 183.261 90.1629 183.371 90.3523C183.484 90.5379 183.628 90.6629 183.803 90.7273C183.981 90.7879 184.168 90.8182 184.365 90.8182C184.513 90.8182 184.634 90.8106 184.729 90.7955C184.823 90.7765 184.899 90.7614 184.956 90.75L185.229 91.9545C185.138 91.9886 185.011 92.0227 184.848 92.0568C184.685 92.0947 184.479 92.1136 184.229 92.1136C183.85 92.1136 183.479 92.0322 183.115 91.8693C182.755 91.7064 182.456 91.4583 182.217 91.125C181.982 90.7917 181.865 90.3712 181.865 89.8636V81.1818ZM193.112 85.2273L191.908 85.5682C191.832 85.3674 191.72 85.1723 191.572 84.983C191.429 84.7898 191.232 84.6307 190.982 84.5057C190.732 84.3807 190.411 84.3182 190.021 84.3182C189.487 84.3182 189.042 84.4413 188.686 84.6875C188.334 84.9299 188.158 85.2386 188.158 85.6136C188.158 85.947 188.279 86.2102 188.521 86.4034C188.764 86.5966 189.143 86.7576 189.658 86.8864L190.953 87.2045C191.733 87.3939 192.315 87.6837 192.697 88.0739C193.08 88.4602 193.271 88.9583 193.271 89.5682C193.271 90.0682 193.127 90.5152 192.839 90.9091C192.555 91.303 192.158 91.6136 191.646 91.8409C191.135 92.0682 190.54 92.1818 189.862 92.1818C188.972 92.1818 188.235 91.9886 187.652 91.6023C187.069 91.2159 186.699 90.6515 186.544 89.9091L187.817 89.5909C187.938 90.0606 188.167 90.4129 188.504 90.6477C188.845 90.8826 189.29 91 189.839 91C190.464 91 190.961 90.8674 191.328 90.6023C191.699 90.3333 191.885 90.0114 191.885 89.6364C191.885 89.3333 191.779 89.0795 191.567 88.875C191.355 88.6667 191.029 88.5114 190.589 88.4091L189.135 88.0682C188.336 87.8788 187.749 87.5852 187.374 87.1875C187.002 86.786 186.817 86.2841 186.817 85.6818C186.817 85.1894 186.955 84.7538 187.232 84.375C187.512 83.9962 187.893 83.6989 188.374 83.483C188.858 83.267 189.408 83.1591 190.021 83.1591C190.885 83.1591 191.563 83.3485 192.055 83.7273C192.552 84.1061 192.904 84.6061 193.112 85.2273ZM4.77273 116.182C3.95455 116.182 3.25 115.989 2.65909 115.602C2.06818 115.216 1.61364 114.684 1.29545 114.006C0.977273 113.328 0.818182 112.553 0.818182 111.682C0.818182 110.795 0.981061 110.013 1.30682 109.335C1.63636 108.653 2.0947 108.121 2.68182 107.739C3.27273 107.352 3.96212 107.159 4.75 107.159C5.36364 107.159 5.91667 107.273 6.40909 107.5C6.90152 107.727 7.30492 108.045 7.61932 108.455C7.93371 108.864 8.12879 109.341 8.20455 109.886H6.86364C6.76136 109.489 6.53409 109.136 6.18182 108.83C5.83333 108.519 5.36364 108.364 4.77273 108.364C4.25 108.364 3.79167 108.5 3.39773 108.773C3.00758 109.042 2.70265 109.422 2.48295 109.915C2.26705 110.403 2.15909 110.977 2.15909 111.636C2.15909 112.311 2.26515 112.898 2.47727 113.398C2.69318 113.898 2.99621 114.286 3.38636 114.562C3.7803 114.839 4.24242 114.977 4.77273 114.977C5.12121 114.977 5.4375 114.917 5.72159 114.795C6.00568 114.674 6.24621 114.5 6.44318 114.273C6.64015 114.045 6.7803 113.773 6.86364 113.455H8.20455C8.12879 113.97 7.94129 114.434 7.64205 114.847C7.34659 115.256 6.95455 115.581 6.46591 115.824C5.98106 116.062 5.41667 116.182 4.77273 116.182ZM13.8239 116.182C12.983 116.182 12.2576 115.996 11.6477 115.625C11.0417 115.25 10.5739 114.727 10.2443 114.057C9.91856 113.383 9.75568 112.598 9.75568 111.705C9.75568 110.811 9.91856 110.023 10.2443 109.341C10.5739 108.655 11.0322 108.121 11.6193 107.739C12.2102 107.352 12.8996 107.159 13.6875 107.159C14.142 107.159 14.5909 107.235 15.0341 107.386C15.4773 107.538 15.8807 107.784 16.2443 108.125C16.608 108.462 16.8977 108.909 17.1136 109.466C17.3295 110.023 17.4375 110.708 17.4375 111.523V112.091H10.7102V110.932H16.0739C16.0739 110.439 15.9754 110 15.7784 109.614C15.5852 109.227 15.3087 108.922 14.9489 108.699C14.5928 108.475 14.1723 108.364 13.6875 108.364C13.1534 108.364 12.6913 108.496 12.3011 108.761C11.9148 109.023 11.6174 109.364 11.4091 109.784C11.2008 110.205 11.0966 110.655 11.0966 111.136V111.909C11.0966 112.568 11.2102 113.127 11.4375 113.585C11.6686 114.04 11.9886 114.386 12.3977 114.625C12.8068 114.86 13.2822 114.977 13.8239 114.977C14.1761 114.977 14.4943 114.928 14.7784 114.83C15.0663 114.727 15.3144 114.576 15.5227 114.375C15.7311 114.17 15.892 113.917 16.0057 113.614L17.3011 113.977C17.1648 114.417 16.9356 114.803 16.6136 115.136C16.2917 115.466 15.8939 115.723 15.4205 115.909C14.947 116.091 14.4148 116.182 13.8239 116.182ZM19.4773 116V107.273H20.7727V108.591H20.8636C21.0227 108.159 21.3106 107.809 21.7273 107.54C22.1439 107.271 22.6136 107.136 23.1364 107.136C23.2348 107.136 23.358 107.138 23.5057 107.142C23.6534 107.146 23.7652 107.152 23.8409 107.159V108.523C23.7955 108.511 23.6913 108.494 23.5284 108.472C23.3693 108.445 23.2008 108.432 23.0227 108.432C22.5985 108.432 22.2197 108.521 21.8864 108.699C21.5568 108.873 21.2955 109.116 21.1023 109.426C20.9129 109.733 20.8182 110.083 20.8182 110.477V116H19.4773ZM29.7727 107.273V108.409H25.25V107.273H29.7727ZM26.5682 105.182H27.9091V113.5C27.9091 113.879 27.964 114.163 28.0739 114.352C28.1875 114.538 28.3314 114.663 28.5057 114.727C28.6837 114.788 28.8712 114.818 29.0682 114.818C29.2159 114.818 29.3371 114.811 29.4318 114.795C29.5265 114.777 29.6023 114.761 29.6591 114.75L29.9318 115.955C29.8409 115.989 29.714 116.023 29.5511 116.057C29.3883 116.095 29.1818 116.114 28.9318 116.114C28.553 116.114 28.1818 116.032 27.8182 115.869C27.4583 115.706 27.1591 115.458 26.9205 115.125C26.6856 114.792 26.5682 114.371 26.5682 113.864V105.182ZM34.358 116.205C33.8049 116.205 33.303 116.1 32.8523 115.892C32.4015 115.68 32.0436 115.375 31.7784 114.977C31.5133 114.576 31.3807 114.091 31.3807 113.523C31.3807 113.023 31.4792 112.617 31.6761 112.307C31.8731 111.992 32.1364 111.746 32.4659 111.568C32.7955 111.39 33.1591 111.258 33.5568 111.17C33.9583 111.08 34.3617 111.008 34.767 110.955C35.2973 110.886 35.7273 110.835 36.0568 110.801C36.3902 110.763 36.6326 110.701 36.7841 110.614C36.9394 110.527 37.017 110.375 37.017 110.159V110.114C37.017 109.553 36.8636 109.117 36.5568 108.807C36.2538 108.496 35.7936 108.341 35.1761 108.341C34.536 108.341 34.0341 108.481 33.6705 108.761C33.3068 109.042 33.0511 109.341 32.9034 109.659L31.6307 109.205C31.858 108.674 32.161 108.261 32.5398 107.966C32.9223 107.667 33.339 107.458 33.7898 107.341C34.2443 107.22 34.6913 107.159 35.1307 107.159C35.411 107.159 35.733 107.193 36.0966 107.261C36.464 107.326 36.8182 107.46 37.1591 107.665C37.5038 107.869 37.7898 108.178 38.017 108.591C38.2443 109.004 38.358 109.557 38.358 110.25V116H37.017V114.818H36.9489C36.858 115.008 36.7064 115.21 36.4943 115.426C36.2822 115.642 36 115.826 35.6477 115.977C35.2955 116.129 34.8655 116.205 34.358 116.205ZM34.5625 115C35.0928 115 35.5398 114.896 35.9034 114.688C36.2708 114.479 36.5473 114.21 36.733 113.881C36.9223 113.551 37.017 113.205 37.017 112.841V111.614C36.9602 111.682 36.8352 111.744 36.642 111.801C36.4527 111.854 36.233 111.902 35.983 111.943C35.7367 111.981 35.4962 112.015 35.2614 112.045C35.0303 112.072 34.8428 112.095 34.6989 112.114C34.3504 112.159 34.0246 112.233 33.7216 112.335C33.4223 112.434 33.1799 112.583 32.9943 112.784C32.8125 112.981 32.7216 113.25 32.7216 113.591C32.7216 114.057 32.8939 114.409 33.2386 114.648C33.5871 114.883 34.0284 115 34.5625 115ZM40.8054 116V107.273H42.1463V116H40.8054ZM41.4872 105.818C41.2259 105.818 41.0005 105.729 40.8111 105.551C40.6255 105.373 40.5327 105.159 40.5327 104.909C40.5327 104.659 40.6255 104.445 40.8111 104.267C41.0005 104.089 41.2259 104 41.4872 104C41.7486 104 41.9721 104.089 42.1577 104.267C42.3471 104.445 42.4418 104.659 42.4418 104.909C42.4418 105.159 42.3471 105.373 42.1577 105.551C41.9721 105.729 41.7486 105.818 41.4872 105.818ZM45.9432 110.75V116H44.6023V107.273H45.8977V108.636H46.0114C46.2159 108.193 46.5265 107.837 46.9432 107.568C47.3598 107.295 47.8977 107.159 48.5568 107.159C49.1477 107.159 49.6648 107.28 50.108 107.523C50.5511 107.761 50.8958 108.125 51.142 108.614C51.3883 109.098 51.5114 109.712 51.5114 110.455V116H50.1705V110.545C50.1705 109.86 49.9924 109.326 49.6364 108.943C49.2803 108.557 48.7917 108.364 48.1705 108.364C47.7424 108.364 47.3598 108.456 47.0227 108.642C46.6894 108.828 46.4261 109.098 46.233 109.455C46.0398 109.811 45.9432 110.242 45.9432 110.75ZM63.9616 112.432V107.273H65.3026V116H63.9616V114.523H63.8707C63.6662 114.966 63.348 115.343 62.9162 115.653C62.4844 115.96 61.9389 116.114 61.2798 116.114C60.7344 116.114 60.2495 115.994 59.8253 115.756C59.401 115.513 59.0677 115.15 58.8253 114.665C58.5829 114.176 58.4616 113.561 58.4616 112.818V107.273H59.8026V112.727C59.8026 113.364 59.9806 113.871 60.3366 114.25C60.6965 114.629 61.1548 114.818 61.7116 114.818C62.045 114.818 62.384 114.733 62.7287 114.562C63.0772 114.392 63.3688 114.131 63.6037 113.778C63.8423 113.426 63.9616 112.977 63.9616 112.432ZM73.9403 109.227L72.7358 109.568C72.66 109.367 72.5483 109.172 72.4006 108.983C72.2566 108.79 72.0597 108.631 71.8097 108.506C71.5597 108.381 71.2396 108.318 70.8494 108.318C70.3153 108.318 69.8703 108.441 69.5142 108.688C69.1619 108.93 68.9858 109.239 68.9858 109.614C68.9858 109.947 69.107 110.21 69.3494 110.403C69.5919 110.597 69.9706 110.758 70.4858 110.886L71.7812 111.205C72.5616 111.394 73.143 111.684 73.5256 112.074C73.9081 112.46 74.0994 112.958 74.0994 113.568C74.0994 114.068 73.9555 114.515 73.6676 114.909C73.3835 115.303 72.9858 115.614 72.4744 115.841C71.9631 116.068 71.3684 116.182 70.6903 116.182C69.8002 116.182 69.0634 115.989 68.4801 115.602C67.8968 115.216 67.5275 114.652 67.3722 113.909L68.6449 113.591C68.7661 114.061 68.9953 114.413 69.3324 114.648C69.6733 114.883 70.1184 115 70.6676 115C71.2926 115 71.7888 114.867 72.1562 114.602C72.5275 114.333 72.7131 114.011 72.7131 113.636C72.7131 113.333 72.607 113.08 72.3949 112.875C72.1828 112.667 71.857 112.511 71.4176 112.409L69.9631 112.068C69.1638 111.879 68.5767 111.585 68.2017 111.188C67.8305 110.786 67.6449 110.284 67.6449 109.682C67.6449 109.189 67.7831 108.754 68.0597 108.375C68.34 107.996 68.7206 107.699 69.2017 107.483C69.6866 107.267 70.2358 107.159 70.8494 107.159C71.7131 107.159 72.3911 107.348 72.8835 107.727C73.3797 108.106 73.732 108.606 73.9403 109.227ZM79.777 116.182C78.9361 116.182 78.2107 115.996 77.6009 115.625C76.9948 115.25 76.527 114.727 76.1974 114.057C75.8717 113.383 75.7088 112.598 75.7088 111.705C75.7088 110.811 75.8717 110.023 76.1974 109.341C76.527 108.655 76.9853 108.121 77.5724 107.739C78.1634 107.352 78.8527 107.159 79.6406 107.159C80.0952 107.159 80.544 107.235 80.9872 107.386C81.4304 107.538 81.8338 107.784 82.1974 108.125C82.5611 108.462 82.8509 108.909 83.0668 109.466C83.2827 110.023 83.3906 110.708 83.3906 111.523V112.091H76.6634V110.932H82.027C82.027 110.439 81.9285 110 81.7315 109.614C81.5384 109.227 81.2618 108.922 80.902 108.699C80.5459 108.475 80.1255 108.364 79.6406 108.364C79.1065 108.364 78.6444 108.496 78.2543 108.761C77.8679 109.023 77.5705 109.364 77.3622 109.784C77.1539 110.205 77.0497 110.655 77.0497 111.136V111.909C77.0497 112.568 77.1634 113.127 77.3906 113.585C77.6217 114.04 77.9418 114.386 78.3509 114.625C78.7599 114.86 79.2353 114.977 79.777 114.977C80.1293 114.977 80.4474 114.928 80.7315 114.83C81.0194 114.727 81.2675 114.576 81.4759 114.375C81.6842 114.17 81.8452 113.917 81.9588 113.614L83.2543 113.977C83.1179 114.417 82.8887 114.803 82.5668 115.136C82.2448 115.466 81.8471 115.723 81.3736 115.909C80.9001 116.091 80.3679 116.182 79.777 116.182ZM85.4304 116V107.273H86.7259V108.591H86.8168C86.9759 108.159 87.2637 107.809 87.6804 107.54C88.0971 107.271 88.5668 107.136 89.0895 107.136C89.188 107.136 89.3111 107.138 89.4588 107.142C89.6065 107.146 89.7183 107.152 89.794 107.159V108.523C89.7486 108.511 89.6444 108.494 89.4815 108.472C89.3224 108.445 89.1539 108.432 88.9759 108.432C88.5516 108.432 88.1728 108.521 87.8395 108.699C87.5099 108.873 87.2486 109.116 87.0554 109.426C86.866 109.733 86.7713 110.083 86.7713 110.477V116H85.4304ZM91.3608 116.091C91.0805 116.091 90.84 115.991 90.6392 115.79C90.4384 115.589 90.3381 115.348 90.3381 115.068C90.3381 114.788 90.4384 114.547 90.6392 114.347C90.84 114.146 91.0805 114.045 91.3608 114.045C91.6411 114.045 91.8816 114.146 92.0824 114.347C92.2831 114.547 92.3835 114.788 92.3835 115.068C92.3835 115.254 92.3362 115.424 92.2415 115.58C92.1506 115.735 92.0275 115.86 91.8722 115.955C91.7206 116.045 91.5502 116.091 91.3608 116.091Z" fill="white" fill-opacity="0.95"/>
</svg>
