<svg width="1300" height="300" viewBox="0 0 1300 300" fill="none" xmlns="http://www.w3.org/2000/svg">
<rect width="1300" height="300" rx="24" fill="#1A1A1A"/>
<rect width="1300" height="300" rx="24" fill="#262626"/>
<rect x="423.875" y="119" width="32" height="32" rx="16" fill="#DA0087"/>
<path d="M439.001 139.5V131.716L436.761 132.864V130.89L439.015 129.7H441.185V139.5H439.001Z" fill="white" fill-opacity="0.95"/>
<rect x="575.875" y="119" width="32" height="32" rx="16" fill="#DA0087"/>
<path d="M590.273 132.388H587.991C588.131 131.417 588.616 130.666 589.447 130.134C590.11 129.705 590.88 129.49 591.757 129.49C592.812 129.49 593.656 129.784 594.291 130.372C594.851 130.885 595.131 131.525 595.131 132.29C595.131 133.046 594.907 133.732 594.459 134.348C594.17 134.731 593.516 135.417 592.499 136.406L591.141 137.722H595.061V139.5H588.271V137.722L590.637 135.398L590.959 135.076C591.799 134.245 592.331 133.667 592.555 133.34C592.788 133.013 592.905 132.663 592.905 132.29C592.905 131.898 592.779 131.595 592.527 131.38C592.312 131.203 592.032 131.114 591.687 131.114C591.332 131.114 591.029 131.226 590.777 131.45C590.534 131.674 590.366 131.987 590.273 132.388Z" fill="white" fill-opacity="0.95"/>
<rect x="728.125" y="119" width="32" height="32" rx="16" fill="#DA0087"/>
<path d="M743.657 138.128C744.105 138.128 744.455 137.993 744.707 137.722C744.94 137.47 745.057 137.129 745.057 136.7C745.057 135.627 744.492 135.09 743.363 135.09H742.509V133.592H743.475C743.886 133.592 744.226 133.457 744.497 133.186C744.749 132.943 744.875 132.631 744.875 132.248C744.875 131.856 744.749 131.548 744.497 131.324C744.282 131.147 744.021 131.058 743.713 131.058C743.022 131.058 742.607 131.38 742.467 132.024H740.339C740.47 131.193 740.88 130.549 741.571 130.092C742.187 129.691 742.943 129.49 743.839 129.49C744.838 129.49 745.636 129.728 746.233 130.204C746.802 130.652 747.087 131.273 747.087 132.066C747.087 132.635 746.868 133.135 746.429 133.564C746.046 133.928 745.589 134.152 745.057 134.236C745.729 134.311 746.284 134.605 746.723 135.118C747.115 135.575 747.311 136.089 747.311 136.658C747.311 137.638 746.938 138.413 746.191 138.982C745.538 139.467 744.702 139.71 743.685 139.71C742.602 139.71 741.73 139.416 741.067 138.828C740.498 138.333 740.18 137.722 740.115 136.994H742.285C742.341 137.349 742.486 137.629 742.719 137.834C742.962 138.03 743.274 138.128 743.657 138.128Z" fill="white" fill-opacity="0.95"/>
<rect x="879.875" y="119" width="32" height="32" rx="16" fill="#DA0087"/>
<path d="M896.065 129.7H898.263V136.042H899.369V137.652H898.263V139.5H896.191V137.652H891.949V135.804L896.065 129.7ZM893.979 136.042H896.191V132.626L893.979 136.042Z" fill="white" fill-opacity="0.95"/>
<path d="M418.75 166.125C418.602 166.125 418.456 166.096 418.319 166.04C418.183 165.983 418.059 165.9 417.954 165.796C417.85 165.691 417.767 165.567 417.71 165.431C417.654 165.294 417.625 165.148 417.625 165C417.625 167.67 416.833 170.28 415.35 172.5C413.866 174.72 411.758 176.451 409.291 177.472C406.824 178.494 404.11 178.762 401.491 178.241C398.873 177.72 396.467 176.434 394.579 174.546C392.691 172.658 391.405 170.252 390.884 167.634C390.364 165.015 390.631 162.301 391.653 159.834C392.674 157.367 394.405 155.259 396.625 153.775C398.845 152.292 401.455 151.5 404.125 151.5C403.827 151.5 403.54 151.381 403.33 151.17C403.119 150.96 403 150.673 403 150.375C403 150.077 403.119 149.79 403.33 149.58C403.54 149.369 403.827 149.25 404.125 149.25C401.01 149.25 397.965 150.174 395.375 151.904C392.785 153.635 390.766 156.095 389.574 158.973C388.382 161.851 388.07 165.017 388.678 168.073C389.285 171.128 390.785 173.934 392.988 176.137C395.191 178.34 397.997 179.84 401.052 180.447C404.108 181.055 407.274 180.743 410.152 179.551C413.03 178.359 415.49 176.34 417.221 173.75C418.951 171.16 419.875 168.115 419.875 165C419.875 165.148 419.846 165.294 419.79 165.431C419.733 165.567 419.65 165.691 419.546 165.796C419.441 165.9 419.317 165.983 419.181 166.04C419.044 166.096 418.898 166.125 418.75 166.125Z" fill="#3B3B3B"/>
<path d="M403 150.375C403 150.523 403.029 150.669 403.085 150.806C403.142 150.942 403.225 151.066 403.329 151.171C403.434 151.275 403.558 151.358 403.694 151.415C403.831 151.471 403.977 151.5 404.125 151.5C407.704 151.504 411.136 152.927 413.667 155.458C416.198 157.989 417.621 161.421 417.625 165C417.625 165.298 417.744 165.585 417.955 165.795C418.165 166.006 418.452 166.125 418.75 166.125C419.048 166.125 419.335 166.006 419.545 165.795C419.756 165.585 419.875 165.298 419.875 165C419.87 160.824 418.209 156.821 415.257 153.868C412.304 150.916 408.301 149.255 404.125 149.25C403.977 149.25 403.831 149.279 403.694 149.335C403.558 149.392 403.434 149.475 403.329 149.579C403.225 149.684 403.142 149.808 403.085 149.944C403.029 150.081 403 150.227 403 150.375Z" fill="#3492EB"/>
<path d="M570.75 166.125C570.602 166.125 570.456 166.096 570.319 166.04C570.183 165.983 570.059 165.9 569.954 165.796C569.85 165.691 569.767 165.567 569.71 165.431C569.654 165.294 569.625 165.148 569.625 165C569.625 167.67 568.833 170.28 567.35 172.5C565.866 174.72 563.758 176.451 561.291 177.472C558.824 178.494 556.11 178.762 553.491 178.241C550.873 177.72 548.467 176.434 546.579 174.546C544.691 172.658 543.405 170.252 542.884 167.634C542.364 165.015 542.631 162.301 543.653 159.834C544.674 157.367 546.405 155.259 548.625 153.775C550.845 152.292 553.455 151.5 556.125 151.5C555.827 151.5 555.54 151.381 555.33 151.17C555.119 150.96 555 150.673 555 150.375C555 150.077 555.119 149.79 555.33 149.58C555.54 149.369 555.827 149.25 556.125 149.25C553.01 149.25 549.965 150.174 547.375 151.904C544.785 153.635 542.766 156.095 541.574 158.973C540.382 161.851 540.07 165.017 540.678 168.073C541.285 171.128 542.785 173.934 544.988 176.137C547.191 178.34 549.997 179.84 553.052 180.447C556.108 181.055 559.274 180.743 562.152 179.551C565.03 178.359 567.49 176.34 569.221 173.75C570.951 171.16 571.875 168.115 571.875 165C571.875 165.148 571.846 165.294 571.79 165.431C571.733 165.567 571.65 165.691 571.546 165.796C571.441 165.9 571.317 165.983 571.181 166.04C571.044 166.096 570.898 166.125 570.75 166.125Z" fill="#3B3B3B"/>
<path d="M555 150.375C555 150.523 555.029 150.669 555.085 150.806C555.142 150.942 555.225 151.066 555.329 151.171C555.434 151.275 555.558 151.358 555.694 151.415C555.831 151.471 555.977 151.5 556.125 151.5C559.704 151.504 563.136 152.927 565.667 155.458C568.198 157.989 569.621 161.421 569.625 165C569.625 165.298 569.744 165.585 569.955 165.795C570.165 166.006 570.452 166.125 570.75 166.125C571.048 166.125 571.335 166.006 571.545 165.795C571.756 165.585 571.875 165.298 571.875 165C571.87 160.824 570.209 156.821 567.257 153.868C564.304 150.916 560.301 149.255 556.125 149.25C555.977 149.25 555.831 149.279 555.694 149.335C555.558 149.392 555.434 149.475 555.329 149.579C555.225 149.684 555.142 149.808 555.085 149.944C555.029 150.081 555 150.227 555 150.375Z" fill="#3492EB"/>
<path d="M570.75 163.88C570.602 163.88 570.456 163.909 570.319 163.965C570.183 164.022 570.059 164.105 569.954 164.209C569.85 164.314 569.767 164.438 569.71 164.574C569.654 164.711 569.625 164.857 569.625 165.005C569.621 168.584 568.198 172.016 565.667 174.547C563.136 177.077 559.704 178.501 556.125 178.505C555.827 178.505 555.54 178.623 555.33 178.834C555.119 179.045 555 179.332 555 179.63C555 179.928 555.119 180.214 555.33 180.425C555.54 180.636 555.827 180.755 556.125 180.755C560.301 180.75 564.304 179.089 567.257 176.137C570.209 173.184 571.87 169.181 571.875 165.005C571.875 164.857 571.846 164.711 571.79 164.574C571.733 164.438 571.65 164.314 571.546 164.209C571.441 164.105 571.317 164.022 571.181 163.965C571.044 163.909 570.898 163.88 570.75 163.88Z" fill="#3492EB"/>
<path d="M541.51 163.88C541.658 163.88 541.804 163.909 541.941 163.965C542.077 164.022 542.201 164.105 542.306 164.209C542.41 164.314 542.493 164.438 542.55 164.574C542.606 164.711 542.635 164.857 542.635 165.005C542.639 168.584 544.062 172.016 546.593 174.547C549.124 177.077 552.556 178.501 556.135 178.505C556.433 178.505 556.72 178.623 556.931 178.834C557.141 179.045 557.26 179.332 557.26 179.63C557.26 179.928 557.141 180.214 556.931 180.425C556.72 180.636 556.433 180.755 556.135 180.755C551.959 180.75 547.956 179.089 545.003 176.137C542.051 173.184 540.39 169.181 540.385 165.005C540.385 164.857 540.414 164.711 540.47 164.574C540.527 164.438 540.61 164.314 540.714 164.209C540.819 164.105 540.943 164.022 541.079 163.965C541.216 163.909 541.362 163.88 541.51 163.88Z" fill="#3492EB"/>
<path d="M707 150.375C707 150.523 707.029 150.669 707.085 150.806C707.142 150.942 707.225 151.066 707.329 151.171C707.434 151.275 707.558 151.358 707.694 151.415C707.831 151.471 707.977 151.5 708.125 151.5C711.704 151.504 715.136 152.927 717.667 155.458C720.198 157.989 721.621 161.421 721.625 165C721.625 165.298 721.744 165.585 721.955 165.795C722.165 166.006 722.452 166.125 722.75 166.125C723.048 166.125 723.335 166.006 723.545 165.795C723.756 165.585 723.875 165.298 723.875 165C723.87 160.824 722.209 156.821 719.257 153.868C716.304 150.916 712.301 149.255 708.125 149.25C707.977 149.25 707.831 149.279 707.694 149.335C707.558 149.392 707.434 149.475 707.329 149.579C707.225 149.684 707.142 149.808 707.085 149.944C707.029 150.081 707 150.227 707 150.375Z" fill="#27A17A"/>
<path d="M705.125 170.125C705.043 170.125 704.961 170.109 704.885 170.077C704.809 170.046 704.74 169.999 704.682 169.941L700.182 165.419C700.124 165.36 700.078 165.291 700.047 165.215C700.016 165.14 700 165.058 700 164.976C700 164.894 700.017 164.813 700.048 164.737C700.08 164.661 700.126 164.593 700.185 164.535C700.243 164.477 700.312 164.431 700.388 164.4C700.464 164.369 700.545 164.353 700.627 164.353C700.709 164.353 700.79 164.37 700.866 164.401C700.942 164.433 701.01 164.479 701.068 164.537L705.159 168.648L715.219 160.026C715.344 159.918 715.508 159.865 715.673 159.878C715.838 159.89 715.992 159.968 716.099 160.094C716.207 160.22 716.261 160.383 716.248 160.548C716.235 160.713 716.157 160.867 716.032 160.975L705.532 169.974C705.419 170.072 705.274 170.125 705.125 170.125Z" fill="#27A17A"/>
<path d="M709.265 150.375C709.265 150.523 709.236 150.669 709.179 150.806C709.123 150.942 709.04 151.066 708.936 151.171C708.831 151.275 708.707 151.358 708.571 151.415C708.434 151.471 708.288 151.5 708.14 151.5C704.561 151.504 701.129 152.927 698.598 155.458C696.067 157.989 694.644 161.421 694.64 165C694.64 165.298 694.521 165.585 694.31 165.795C694.099 166.006 693.813 166.125 693.515 166.125C693.217 166.125 692.93 166.006 692.719 165.795C692.508 165.585 692.39 165.298 692.39 165C692.395 160.824 694.055 156.821 697.008 153.868C699.961 150.916 703.964 149.255 708.14 149.25C708.288 149.25 708.434 149.279 708.571 149.335C708.707 149.392 708.831 149.475 708.936 149.579C709.04 149.684 709.123 149.808 709.179 149.944C709.236 150.081 709.265 150.227 709.265 150.375Z" fill="#27A17A"/>
<path d="M722.75 163.88C722.602 163.88 722.456 163.909 722.319 163.965C722.183 164.022 722.059 164.105 721.954 164.209C721.85 164.314 721.767 164.438 721.71 164.574C721.654 164.711 721.625 164.857 721.625 165.005C721.621 168.584 720.198 172.016 717.667 174.547C715.136 177.077 711.704 178.501 708.125 178.505C707.827 178.505 707.54 178.623 707.33 178.834C707.119 179.045 707 179.332 707 179.63C707 179.928 707.119 180.214 707.33 180.425C707.54 180.636 707.827 180.755 708.125 180.755C712.301 180.75 716.304 179.089 719.257 176.137C722.209 173.184 723.87 169.181 723.875 165.005C723.875 164.857 723.846 164.711 723.79 164.574C723.733 164.438 723.65 164.314 723.546 164.209C723.441 164.105 723.317 164.022 723.181 163.965C723.044 163.909 722.898 163.88 722.75 163.88Z" fill="#27A17A"/>
<path d="M693.51 163.88C693.658 163.88 693.804 163.909 693.941 163.965C694.077 164.022 694.201 164.105 694.306 164.209C694.41 164.314 694.493 164.438 694.55 164.574C694.606 164.711 694.635 164.857 694.635 165.005C694.639 168.584 696.062 172.016 698.593 174.547C701.124 177.077 704.556 178.501 708.135 178.505C708.433 178.505 708.72 178.623 708.931 178.834C709.141 179.045 709.26 179.332 709.26 179.63C709.26 179.928 709.141 180.214 708.931 180.425C708.72 180.636 708.433 180.755 708.135 180.755C703.959 180.75 699.956 179.089 697.003 176.137C694.051 173.184 692.39 169.181 692.385 165.005C692.385 164.857 692.414 164.711 692.47 164.574C692.527 164.438 692.61 164.314 692.714 164.209C692.819 164.105 692.943 164.022 693.079 163.965C693.216 163.909 693.362 163.88 693.51 163.88Z" fill="#27A17A"/>
<path d="M859 150.375C859 150.523 859.029 150.669 859.085 150.806C859.142 150.942 859.225 151.066 859.329 151.171C859.434 151.275 859.558 151.358 859.694 151.415C859.831 151.471 859.977 151.5 860.125 151.5C863.704 151.504 867.136 152.927 869.667 155.458C872.198 157.989 873.621 161.421 873.625 165C873.625 165.298 873.744 165.585 873.955 165.795C874.165 166.006 874.452 166.125 874.75 166.125C875.048 166.125 875.335 166.006 875.545 165.795C875.756 165.585 875.875 165.298 875.875 165C875.87 160.824 874.209 156.821 871.257 153.868C868.304 150.916 864.301 149.255 860.125 149.25C859.977 149.25 859.831 149.279 859.694 149.335C859.558 149.392 859.434 149.475 859.329 149.579C859.225 149.684 859.142 149.808 859.085 149.944C859.029 150.081 859 150.227 859 150.375Z" fill="#F55868"/>
<path d="M860.125 173C860.832 173 861.405 172.427 861.405 171.72C861.405 171.013 860.832 170.44 860.125 170.44C859.418 170.44 858.845 171.013 858.845 171.72C858.845 172.427 859.418 173 860.125 173Z" fill="#F55868"/>
<path d="M860.125 167.88C860.38 167.88 860.624 167.779 860.804 167.599C860.984 167.419 861.085 167.175 861.085 166.92V157.96C861.085 157.705 860.984 157.461 860.804 157.281C860.624 157.101 860.38 157 860.125 157C859.871 157 859.626 157.101 859.446 157.281C859.266 157.461 859.165 157.705 859.165 157.96V166.92C859.165 167.175 859.267 167.419 859.447 167.599C859.627 167.779 859.871 167.88 860.125 167.88Z" fill="#F55868"/>
<path d="M861.265 150.375C861.265 150.523 861.236 150.669 861.18 150.806C861.123 150.942 861.04 151.066 860.936 151.171C860.831 151.275 860.707 151.358 860.571 151.415C860.434 151.471 860.288 151.5 860.14 151.5C856.561 151.504 853.129 152.927 850.599 155.458C848.068 157.989 846.644 161.421 846.64 165C846.64 165.298 846.522 165.585 846.311 165.795C846.1 166.006 845.814 166.125 845.515 166.125C845.217 166.125 844.931 166.006 844.72 165.795C844.509 165.585 844.39 165.298 844.39 165C844.395 160.824 846.056 156.821 849.008 153.868C851.961 150.916 855.964 149.255 860.14 149.25C860.288 149.25 860.434 149.279 860.571 149.335C860.707 149.392 860.831 149.475 860.936 149.579C861.04 149.684 861.123 149.808 861.18 149.944C861.236 150.081 861.265 150.227 861.265 150.375Z" fill="#F55868"/>
<path d="M874.75 163.88C874.602 163.88 874.456 163.909 874.319 163.965C874.183 164.022 874.059 164.105 873.954 164.209C873.85 164.314 873.767 164.438 873.71 164.574C873.654 164.711 873.625 164.857 873.625 165.005C873.621 168.584 872.198 172.016 869.667 174.547C867.136 177.077 863.704 178.501 860.125 178.505C859.827 178.505 859.54 178.623 859.33 178.834C859.119 179.045 859 179.332 859 179.63C859 179.928 859.119 180.214 859.33 180.425C859.54 180.636 859.827 180.755 860.125 180.755C864.301 180.75 868.304 179.089 871.257 176.137C874.209 173.184 875.87 169.181 875.875 165.005C875.875 164.857 875.846 164.711 875.79 164.574C875.733 164.438 875.65 164.314 875.546 164.209C875.441 164.105 875.317 164.022 875.181 163.965C875.044 163.909 874.898 163.88 874.75 163.88Z" fill="#F55868"/>
<path d="M845.51 163.88C845.658 163.88 845.804 163.909 845.94 163.965C846.077 164.022 846.201 164.105 846.305 164.209C846.41 164.314 846.493 164.438 846.549 164.574C846.606 164.711 846.635 164.857 846.635 165.005C846.639 168.584 848.062 172.016 850.593 174.547C853.124 177.077 856.556 178.501 860.135 178.505C860.433 178.505 860.719 178.623 860.93 178.834C861.141 179.045 861.26 179.332 861.26 179.63C861.26 179.928 861.141 180.214 860.93 180.425C860.719 180.636 860.433 180.755 860.135 180.755C855.959 180.75 851.956 179.089 849.003 176.137C846.05 173.184 844.389 169.181 844.385 165.005C844.385 164.857 844.414 164.711 844.47 164.574C844.527 164.438 844.61 164.314 844.714 164.209C844.819 164.105 844.943 164.022 845.079 163.965C845.216 163.909 845.362 163.88 845.51 163.88Z" fill="#F55868"/>
</svg>
