<svg width="1560" height="300" viewBox="0 0 1560 300" fill="none" xmlns="http://www.w3.org/2000/svg">
<rect width="1560" height="300" rx="24" fill="#1A1A1A"/>
<rect x="495" y="94" width="32" height="32" rx="16" fill="#DA0087"/>
<path d="M510.126 114.5V106.716L507.886 107.864V105.89L510.14 104.7H512.31V114.5H510.126Z" fill="white" fill-opacity="0.95"/>
<rect x="630" y="94" width="32" height="32" rx="16" fill="#DA0087"/>
<path d="M644.398 107.388H642.116C642.256 106.417 642.741 105.666 643.572 105.134C644.235 104.705 645.005 104.49 645.882 104.49C646.937 104.49 647.781 104.784 648.416 105.372C648.976 105.885 649.256 106.525 649.256 107.29C649.256 108.046 649.032 108.732 648.584 109.348C648.295 109.731 647.641 110.417 646.624 111.406L645.266 112.722H649.186V114.5H642.396V112.722L644.762 110.398L645.084 110.076C645.924 109.245 646.456 108.667 646.68 108.34C646.913 108.013 647.03 107.663 647.03 107.29C647.03 106.898 646.904 106.595 646.652 106.38C646.437 106.203 646.157 106.114 645.812 106.114C645.457 106.114 645.154 106.226 644.902 106.45C644.659 106.674 644.491 106.987 644.398 107.388Z" fill="white" fill-opacity="0.95"/>
<rect x="784.344" y="94" width="32" height="32" rx="16" fill="#DA0087"/>
<path d="M799.876 113.128C800.324 113.128 800.674 112.993 800.926 112.722C801.159 112.47 801.276 112.129 801.276 111.7C801.276 110.627 800.711 110.09 799.582 110.09H798.728V108.592H799.694C800.105 108.592 800.445 108.457 800.716 108.186C800.968 107.943 801.094 107.631 801.094 107.248C801.094 106.856 800.968 106.548 800.716 106.324C800.501 106.147 800.24 106.058 799.932 106.058C799.241 106.058 798.826 106.38 798.686 107.024H796.558C796.689 106.193 797.099 105.549 797.79 105.092C798.406 104.691 799.162 104.49 800.058 104.49C801.057 104.49 801.855 104.728 802.452 105.204C803.021 105.652 803.306 106.273 803.306 107.066C803.306 107.635 803.087 108.135 802.648 108.564C802.265 108.928 801.808 109.152 801.276 109.236C801.948 109.311 802.503 109.605 802.942 110.118C803.334 110.575 803.53 111.089 803.53 111.658C803.53 112.638 803.157 113.413 802.41 113.982C801.757 114.467 800.921 114.71 799.904 114.71C798.821 114.71 797.949 114.416 797.286 113.828C796.717 113.333 796.399 112.722 796.334 111.994H798.504C798.56 112.349 798.705 112.629 798.938 112.834C799.181 113.03 799.493 113.128 799.876 113.128Z" fill="white" fill-opacity="0.95"/>
<rect x="948" y="94" width="32" height="32" rx="16" fill="#DA0087"/>
<path d="M964.19 104.7H966.388V111.042H967.494V112.652H966.388V114.5H964.316V112.652H960.074V110.804L964.19 104.7ZM962.104 111.042H964.316V107.626L962.104 111.042Z" fill="white" fill-opacity="0.95"/>
<path d="M533.313 140.562C533.239 140.563 533.165 140.548 533.097 140.52C533.029 140.492 532.967 140.45 532.915 140.398C532.862 140.346 532.821 140.284 532.793 140.215C532.764 140.147 532.75 140.074 532.75 140C532.75 141.335 532.354 142.64 531.612 143.75C530.871 144.86 529.817 145.725 528.583 146.236C527.35 146.747 525.993 146.881 524.683 146.62C523.374 146.36 522.171 145.717 521.227 144.773C520.283 143.829 519.64 142.626 519.38 141.317C519.119 140.007 519.253 138.65 519.764 137.417C520.275 136.183 521.14 135.129 522.25 134.388C523.36 133.646 524.665 133.25 526 133.25C525.851 133.25 525.708 133.191 525.602 133.085C525.497 132.98 525.438 132.837 525.438 132.688C525.438 132.538 525.497 132.395 525.602 132.29C525.708 132.184 525.851 132.125 526 132.125C524.442 132.125 522.92 132.587 521.625 133.452C520.33 134.317 519.32 135.547 518.724 136.986C518.128 138.425 517.972 140.009 518.276 141.536C518.58 143.064 519.33 144.467 520.432 145.568C521.533 146.67 522.936 147.42 524.464 147.724C525.991 148.028 527.575 147.872 529.014 147.276C530.453 146.68 531.683 145.67 532.548 144.375C533.413 143.08 533.875 141.558 533.875 140C533.875 140.074 533.861 140.147 533.832 140.215C533.804 140.284 533.763 140.346 533.71 140.398C533.658 140.45 533.596 140.492 533.528 140.52C533.46 140.548 533.386 140.563 533.313 140.562Z" fill="#3B3B3B"/>
<path d="M525.438 132.688C525.437 132.761 525.452 132.835 525.48 132.903C525.508 132.971 525.55 133.033 525.602 133.085C525.654 133.138 525.716 133.179 525.785 133.207C525.853 133.236 525.926 133.25 526 133.25C527.79 133.252 529.505 133.964 530.771 135.229C532.036 136.495 532.748 138.21 532.75 140C532.75 140.149 532.809 140.292 532.915 140.398C533.02 140.503 533.163 140.562 533.312 140.562C533.462 140.562 533.605 140.503 533.71 140.398C533.816 140.292 533.875 140.149 533.875 140C533.873 137.912 533.042 135.91 531.566 134.434C530.09 132.958 528.088 132.127 526 132.125C525.926 132.125 525.853 132.139 525.785 132.168C525.716 132.196 525.654 132.237 525.602 132.29C525.55 132.342 525.508 132.404 525.48 132.472C525.452 132.54 525.437 132.614 525.438 132.688Z" fill="#3492EB"/>
<path d="M684.625 141.125C684.477 141.125 684.331 141.096 684.194 141.04C684.058 140.983 683.934 140.9 683.829 140.796C683.725 140.691 683.642 140.567 683.585 140.431C683.529 140.294 683.5 140.148 683.5 140C683.5 142.67 682.708 145.28 681.225 147.5C679.741 149.72 677.633 151.451 675.166 152.472C672.699 153.494 669.985 153.762 667.366 153.241C664.748 152.72 662.342 151.434 660.454 149.546C658.566 147.658 657.28 145.252 656.759 142.634C656.239 140.015 656.506 137.301 657.528 134.834C658.549 132.367 660.28 130.259 662.5 128.775C664.72 127.292 667.33 126.5 670 126.5C669.702 126.5 669.415 126.381 669.205 126.17C668.994 125.96 668.875 125.673 668.875 125.375C668.875 125.077 668.994 124.79 669.205 124.58C669.415 124.369 669.702 124.25 670 124.25C666.885 124.25 663.84 125.174 661.25 126.904C658.66 128.635 656.641 131.095 655.449 133.973C654.257 136.851 653.945 140.017 654.553 143.073C655.16 146.128 656.66 148.934 658.863 151.137C661.066 153.34 663.872 154.84 666.927 155.447C669.983 156.055 673.149 155.743 676.027 154.551C678.905 153.359 681.365 151.34 683.096 148.75C684.826 146.16 685.75 143.115 685.75 140C685.75 140.148 685.721 140.294 685.665 140.431C685.608 140.567 685.525 140.691 685.421 140.796C685.316 140.9 685.192 140.983 685.056 141.04C684.919 141.096 684.773 141.125 684.625 141.125Z" fill="#3B3B3B"/>
<path d="M668.875 125.375C668.875 125.523 668.904 125.669 668.96 125.806C669.017 125.942 669.1 126.066 669.204 126.171C669.309 126.275 669.433 126.358 669.569 126.415C669.706 126.471 669.852 126.5 670 126.5C673.579 126.504 677.011 127.927 679.542 130.458C682.073 132.989 683.496 136.421 683.5 140C683.5 140.298 683.619 140.585 683.83 140.795C684.04 141.006 684.327 141.125 684.625 141.125C684.923 141.125 685.21 141.006 685.42 140.795C685.631 140.585 685.75 140.298 685.75 140C685.745 135.824 684.084 131.821 681.132 128.868C678.179 125.916 674.176 124.255 670 124.25C669.852 124.25 669.706 124.279 669.569 124.335C669.433 124.392 669.309 124.475 669.204 124.579C669.1 124.684 669.017 124.808 668.96 124.944C668.904 125.081 668.875 125.227 668.875 125.375Z" fill="#3492EB"/>
<path d="M684.625 138.88C684.477 138.88 684.331 138.909 684.194 138.965C684.058 139.022 683.934 139.105 683.829 139.209C683.725 139.314 683.642 139.438 683.585 139.574C683.529 139.711 683.5 139.857 683.5 140.005C683.496 143.584 682.073 147.016 679.542 149.547C677.011 152.077 673.579 153.501 670 153.505C669.702 153.505 669.415 153.623 669.205 153.834C668.994 154.045 668.875 154.332 668.875 154.63C668.875 154.928 668.994 155.214 669.205 155.425C669.415 155.636 669.702 155.755 670 155.755C674.176 155.75 678.179 154.089 681.132 151.137C684.084 148.184 685.745 144.181 685.75 140.005C685.75 139.857 685.721 139.711 685.665 139.574C685.608 139.438 685.525 139.314 685.421 139.209C685.316 139.105 685.192 139.022 685.056 138.965C684.919 138.909 684.773 138.88 684.625 138.88Z" fill="#3492EB"/>
<path d="M655.385 138.88C655.533 138.88 655.679 138.909 655.816 138.965C655.952 139.022 656.076 139.105 656.181 139.209C656.285 139.314 656.368 139.438 656.425 139.574C656.481 139.711 656.51 139.857 656.51 140.005C656.514 143.584 657.937 147.016 660.468 149.547C662.999 152.077 666.431 153.501 670.01 153.505C670.308 153.505 670.595 153.623 670.806 153.834C671.016 154.045 671.135 154.332 671.135 154.63C671.135 154.928 671.016 155.214 670.806 155.425C670.595 155.636 670.308 155.755 670.01 155.755C665.834 155.75 661.831 154.089 658.878 151.137C655.926 148.184 654.265 144.181 654.26 140.005C654.26 139.857 654.289 139.711 654.345 139.574C654.402 139.438 654.485 139.314 654.589 139.209C654.694 139.105 654.818 139.022 654.954 138.965C655.091 138.909 655.237 138.88 655.385 138.88Z" fill="#3492EB"/>
<path d="M848.11 141.547C847.906 141.547 847.705 141.507 847.518 141.429C847.33 141.352 847.159 141.238 847.016 141.094C846.872 140.95 846.758 140.78 846.68 140.592C846.603 140.404 846.563 140.203 846.563 140C846.563 143.671 845.474 147.26 843.434 150.313C841.395 153.365 838.496 155.745 835.104 157.15C831.712 158.554 827.98 158.922 824.379 158.206C820.778 157.49 817.471 155.722 814.875 153.126C812.279 150.53 810.511 147.222 809.794 143.621C809.078 140.021 809.446 136.288 810.851 132.896C812.256 129.505 814.635 126.606 817.687 124.566C820.74 122.526 824.329 121.438 828 121.438C827.59 121.438 827.197 121.275 826.906 120.984C826.616 120.694 826.453 120.301 826.453 119.891C826.453 119.48 826.616 119.087 826.906 118.797C827.197 118.507 827.59 118.344 828 118.344C823.717 118.344 819.53 119.614 815.969 121.993C812.407 124.373 809.632 127.755 807.992 131.713C806.353 135.67 805.925 140.024 806.76 144.225C807.596 148.426 809.658 152.285 812.687 155.313C815.716 158.342 819.574 160.405 823.775 161.24C827.976 162.076 832.331 161.647 836.288 160.008C840.245 158.369 843.627 155.593 846.007 152.032C848.386 148.47 849.657 144.283 849.657 140C849.657 140.203 849.617 140.404 849.539 140.592C849.461 140.78 849.347 140.95 849.204 141.094C849.06 141.238 848.889 141.352 848.702 141.429C848.514 141.507 848.313 141.547 848.11 141.547Z" fill="#3B3B3B"/>
<path d="M826.453 119.891C826.453 120.094 826.493 120.295 826.571 120.483C826.649 120.67 826.763 120.841 826.906 120.985C827.05 121.128 827.22 121.242 827.408 121.32C827.596 121.398 827.797 121.438 828 121.438C832.922 121.443 837.64 123.4 841.12 126.88C844.6 130.36 846.557 135.079 846.563 140C846.563 140.41 846.726 140.804 847.016 141.094C847.306 141.384 847.699 141.547 848.11 141.547C848.52 141.547 848.913 141.384 849.203 141.094C849.494 140.804 849.656 140.41 849.656 140C849.65 134.258 847.366 128.754 843.306 124.694C839.246 120.634 833.742 118.35 828 118.344C827.797 118.344 827.596 118.384 827.408 118.461C827.22 118.539 827.05 118.653 826.906 118.797C826.763 118.94 826.649 119.111 826.571 119.299C826.493 119.486 826.453 119.687 826.453 119.891Z" fill="#3492EB"/>
<path d="M1038.91 142.531C1038.57 142.531 1038.24 142.466 1037.94 142.339C1037.63 142.212 1037.35 142.025 1037.12 141.79C1036.88 141.555 1036.69 141.276 1036.57 140.969C1036.44 140.662 1036.38 140.332 1036.38 140C1036.38 146.008 1034.59 151.88 1031.26 156.875C1027.92 161.871 1023.17 165.764 1017.62 168.063C1012.07 170.362 1005.97 170.963 1000.07 169.791C994.182 168.619 988.77 165.726 984.522 161.478C980.274 157.23 977.381 151.818 976.209 145.926C975.037 140.034 975.638 133.926 977.937 128.376C980.236 122.826 984.13 118.082 989.125 114.744C994.12 111.406 999.993 109.625 1006 109.625C1005.33 109.625 1004.69 109.358 1004.21 108.884C1003.74 108.409 1003.47 107.765 1003.47 107.094C1003.47 106.422 1003.74 105.779 1004.21 105.304C1004.69 104.829 1005.33 104.562 1006 104.562C998.991 104.562 992.14 106.641 986.312 110.535C980.485 114.429 975.942 119.963 973.26 126.439C970.578 132.914 969.876 140.039 971.244 146.914C972.611 153.788 975.986 160.102 980.942 165.058C985.898 170.014 992.213 173.389 999.087 174.757C1005.96 176.124 1013.09 175.422 1019.56 172.74C1026.04 170.058 1031.57 165.516 1035.47 159.688C1039.36 153.86 1041.44 147.009 1041.44 140C1041.44 140.332 1041.37 140.662 1041.25 140.969C1041.12 141.276 1040.93 141.555 1040.7 141.79C1040.46 142.025 1040.18 142.212 1039.88 142.339C1039.57 142.466 1039.24 142.531 1038.91 142.531Z" fill="#3B3B3B"/>
<path d="M1003.47 107.094C1003.47 107.426 1003.53 107.755 1003.66 108.063C1003.79 108.37 1003.97 108.649 1004.21 108.884C1004.45 109.119 1004.72 109.306 1005.03 109.433C1005.34 109.56 1005.67 109.625 1006 109.625C1014.05 109.634 1021.77 112.837 1027.47 118.531C1033.16 124.226 1036.37 131.947 1036.38 140C1036.38 140.671 1036.64 141.315 1037.12 141.79C1037.59 142.265 1038.24 142.531 1038.91 142.531C1039.58 142.531 1040.22 142.265 1040.7 141.79C1041.17 141.315 1041.44 140.671 1041.44 140C1041.43 130.605 1037.69 121.597 1031.05 114.954C1024.4 108.31 1015.4 104.573 1006 104.563C1005.67 104.562 1005.34 104.628 1005.03 104.755C1004.72 104.882 1004.45 105.068 1004.21 105.303C1003.97 105.539 1003.79 105.818 1003.66 106.125C1003.53 106.432 1003.47 106.761 1003.47 107.094Z" fill="#3492EB"/>
<path d="M1038.91 137.48C1038.57 137.48 1038.24 137.545 1037.94 137.672C1037.63 137.799 1037.35 137.986 1037.12 138.221C1036.88 138.456 1036.69 138.735 1036.57 139.042C1036.44 139.35 1036.37 139.679 1036.37 140.011C1036.37 148.064 1033.16 155.785 1027.47 161.48C1021.77 167.174 1014.05 170.377 1006 170.386C1005.33 170.386 1004.68 170.653 1004.21 171.128C1003.74 171.602 1003.47 172.246 1003.47 172.917C1003.47 173.589 1003.74 174.233 1004.21 174.707C1004.68 175.182 1005.33 175.449 1006 175.449C1015.4 175.438 1024.4 171.701 1031.05 165.058C1037.69 158.414 1041.43 149.407 1041.44 140.011C1041.44 139.679 1041.37 139.35 1041.25 139.042C1041.12 138.735 1040.93 138.456 1040.7 138.221C1040.46 137.986 1040.18 137.799 1039.88 137.672C1039.57 137.545 1039.24 137.48 1038.91 137.48Z" fill="#3492EB"/>
<path d="M973.116 137.48C973.449 137.48 973.778 137.545 974.085 137.672C974.392 137.799 974.671 137.986 974.907 138.221C975.142 138.456 975.328 138.735 975.455 139.042C975.582 139.35 975.648 139.679 975.647 140.011C975.656 148.064 978.859 155.785 984.554 161.48C990.248 167.174 997.969 170.377 1006.02 170.386C1006.69 170.386 1007.34 170.653 1007.81 171.128C1008.29 171.602 1008.55 172.246 1008.55 172.917C1008.55 173.589 1008.29 174.233 1007.81 174.707C1007.34 175.182 1006.69 175.449 1006.02 175.449C996.627 175.438 987.62 171.701 980.976 165.058C974.332 158.414 970.596 149.407 970.585 140.011C970.585 139.679 970.65 139.35 970.777 139.042C970.904 138.735 971.091 138.456 971.326 138.221C971.561 137.986 971.84 137.799 972.147 137.672C972.455 137.545 972.784 137.48 973.116 137.48Z" fill="#3492EB"/>
</svg>
