<svg width="500" height="250" viewBox="0 0 500 250" fill="none" xmlns="http://www.w3.org/2000/svg">
<rect width="500" height="250" rx="20" fill="#262626"/>
<path d="M282.907 127.531C282.574 127.531 282.245 127.466 281.938 127.339C281.63 127.212 281.351 127.025 281.116 126.79C280.881 126.555 280.695 126.276 280.568 125.969C280.44 125.662 280.375 125.332 280.375 125C280.375 131.008 278.594 136.88 275.256 141.875C271.919 146.871 267.175 150.764 261.624 153.063C256.074 155.362 249.967 155.963 244.074 154.791C238.182 153.619 232.77 150.726 228.522 146.478C224.274 142.23 221.381 136.818 220.209 130.926C219.037 125.034 219.638 118.926 221.937 113.376C224.236 107.826 228.13 103.082 233.125 99.7441C238.12 96.4065 243.993 94.625 250 94.625C249.329 94.625 248.685 94.3583 248.21 93.8836C247.736 93.4089 247.469 92.7651 247.469 92.0938C247.469 91.4224 247.736 90.7786 248.21 90.3039C248.685 89.8292 249.329 89.5625 250 89.5625C242.991 89.5625 236.14 91.6409 230.312 95.5348C224.485 99.4287 219.942 104.963 217.26 111.439C214.578 117.914 213.876 125.039 215.244 131.914C216.611 138.788 219.986 145.102 224.942 150.058C229.898 155.014 236.213 158.389 243.087 159.757C249.961 161.124 257.086 160.422 263.562 157.74C270.037 155.058 275.572 150.516 279.465 144.688C283.359 138.86 285.438 132.009 285.438 125C285.438 125.332 285.373 125.662 285.245 125.969C285.118 126.276 284.932 126.555 284.697 126.79C284.462 127.025 284.183 127.212 283.875 127.339C283.568 127.466 283.239 127.531 282.907 127.531Z" fill="#3B3B3B"/>
<path d="M247.469 92.0938C247.469 92.4262 247.534 92.7555 247.661 93.0626C247.788 93.3698 247.975 93.649 248.21 93.884C248.445 94.1191 248.724 94.3056 249.031 94.4327C249.339 94.5599 249.668 94.6252 250 94.625C258.053 94.6338 265.774 97.8368 271.469 103.531C277.163 109.226 280.366 116.947 280.375 125C280.375 125.671 280.642 126.315 281.117 126.79C281.591 127.265 282.235 127.531 282.906 127.531C283.578 127.531 284.222 127.265 284.696 126.79C285.171 126.315 285.438 125.671 285.438 125C285.427 115.605 281.69 106.597 275.047 99.9536C268.403 93.31 259.396 89.573 250 89.5625C249.668 89.5623 249.339 89.6276 249.031 89.7548C248.724 89.8819 248.445 90.0684 248.21 90.3035C247.975 90.5385 247.788 90.8177 247.661 91.1249C247.534 91.432 247.469 91.7613 247.469 92.0938Z" fill="#3492EB"/>
<path d="M282.906 122.48C282.574 122.48 282.245 122.545 281.937 122.672C281.63 122.799 281.351 122.986 281.116 123.221C280.881 123.456 280.694 123.735 280.567 124.042C280.44 124.35 280.375 124.679 280.375 125.011C280.366 133.064 277.163 140.785 271.469 146.48C265.774 152.174 258.053 155.377 250 155.386C249.329 155.386 248.685 155.653 248.21 156.128C247.735 156.602 247.469 157.246 247.469 157.917C247.469 158.589 247.735 159.233 248.21 159.707C248.685 160.182 249.329 160.449 250 160.449C259.395 160.438 268.403 156.701 275.046 150.058C281.69 143.414 285.427 134.407 285.437 125.011C285.438 124.679 285.372 124.35 285.245 124.042C285.118 123.735 284.932 123.456 284.697 123.221C284.461 122.986 284.182 122.799 283.875 122.672C283.568 122.545 283.239 122.48 282.906 122.48Z" fill="#3492EB"/>
<path d="M217.116 122.48C217.449 122.48 217.778 122.545 218.085 122.672C218.392 122.799 218.671 122.986 218.907 123.221C219.142 123.456 219.328 123.735 219.455 124.042C219.582 124.35 219.648 124.679 219.648 125.011C219.656 133.064 222.859 140.785 228.554 146.48C234.248 152.174 241.969 155.377 250.023 155.386C250.694 155.386 251.338 155.653 251.812 156.128C252.287 156.602 252.554 157.246 252.554 157.917C252.554 158.589 252.287 159.233 251.812 159.707C251.338 160.182 250.694 160.449 250.023 160.449C240.627 160.438 231.62 156.701 224.976 150.058C218.333 143.414 214.596 134.407 214.585 125.011C214.585 124.679 214.65 124.35 214.777 124.042C214.904 123.735 215.091 123.456 215.326 123.221C215.561 122.986 215.84 122.799 216.147 122.672C216.455 122.545 216.784 122.48 217.116 122.48Z" fill="#3492EB"/>
</svg>
