<svg width="768" height="400" viewBox="0 0 768 400" fill="none" xmlns="http://www.w3.org/2000/svg">
<rect width="768" height="400" rx="24" fill="#262626"/>
<path d="M398.625 130.125C398.477 130.125 398.331 130.096 398.194 130.04C398.058 129.983 397.934 129.9 397.829 129.796C397.725 129.691 397.642 129.567 397.585 129.431C397.529 129.294 397.5 129.148 397.5 129C397.5 131.67 396.708 134.28 395.225 136.5C393.741 138.72 391.633 140.451 389.166 141.472C386.699 142.494 383.985 142.762 381.366 142.241C378.748 141.72 376.342 140.434 374.454 138.546C372.566 136.658 371.28 134.252 370.759 131.634C370.239 129.015 370.506 126.301 371.528 123.834C372.549 121.367 374.28 119.259 376.5 117.775C378.72 116.292 381.33 115.5 384 115.5C383.702 115.5 383.415 115.381 383.205 115.17C382.994 114.96 382.875 114.673 382.875 114.375C382.875 114.077 382.994 113.79 383.205 113.58C383.415 113.369 383.702 113.25 384 113.25C380.885 113.25 377.84 114.174 375.25 115.904C372.66 117.635 370.641 120.095 369.449 122.973C368.257 125.851 367.945 129.017 368.553 132.073C369.16 135.128 370.66 137.934 372.863 140.137C375.066 142.34 377.872 143.84 380.927 144.447C383.983 145.055 387.149 144.743 390.027 143.551C392.905 142.359 395.365 140.34 397.096 137.75C398.826 135.16 399.75 132.115 399.75 129C399.75 129.148 399.721 129.294 399.665 129.431C399.608 129.567 399.525 129.691 399.421 129.796C399.316 129.9 399.192 129.983 399.056 130.04C398.919 130.096 398.773 130.125 398.625 130.125Z" fill="#3B3B3B"/>
<path d="M382.875 114.375C382.875 114.523 382.904 114.669 382.96 114.806C383.017 114.942 383.1 115.066 383.204 115.171C383.309 115.275 383.433 115.358 383.569 115.415C383.706 115.471 383.852 115.5 384 115.5C387.579 115.504 391.011 116.927 393.542 119.458C396.073 121.989 397.496 125.421 397.5 129C397.5 129.298 397.619 129.585 397.83 129.795C398.04 130.006 398.327 130.125 398.625 130.125C398.923 130.125 399.21 130.006 399.42 129.795C399.631 129.585 399.75 129.298 399.75 129C399.745 124.824 398.084 120.821 395.132 117.868C392.179 114.916 388.176 113.255 384 113.25C383.852 113.25 383.706 113.279 383.569 113.335C383.433 113.392 383.309 113.475 383.204 113.579C383.1 113.684 383.017 113.808 382.96 113.944C382.904 114.081 382.875 114.227 382.875 114.375Z" fill="#3492EB"/>
<path d="M339.261 181V166.455H341.023V179.438H347.784V181H339.261ZM354.716 181.227C353.731 181.227 352.867 180.993 352.124 180.524C351.385 180.055 350.807 179.4 350.391 178.557C349.979 177.714 349.773 176.729 349.773 175.602C349.773 174.466 349.979 173.474 350.391 172.626C350.807 171.779 351.385 171.121 352.124 170.652C352.867 170.183 353.731 169.949 354.716 169.949C355.701 169.949 356.563 170.183 357.301 170.652C358.045 171.121 358.622 171.779 359.034 172.626C359.451 173.474 359.659 174.466 359.659 175.602C359.659 176.729 359.451 177.714 359.034 178.557C358.622 179.4 358.045 180.055 357.301 180.524C356.563 180.993 355.701 181.227 354.716 181.227ZM354.716 179.722C355.464 179.722 356.08 179.53 356.562 179.146C357.045 178.763 357.403 178.259 357.635 177.634C357.867 177.009 357.983 176.331 357.983 175.602C357.983 174.873 357.867 174.194 357.635 173.564C357.403 172.934 357.045 172.425 356.562 172.037C356.08 171.649 355.464 171.455 354.716 171.455C353.968 171.455 353.352 171.649 352.869 172.037C352.386 172.425 352.029 172.934 351.797 173.564C351.565 174.194 351.449 174.873 351.449 175.602C351.449 176.331 351.565 177.009 351.797 177.634C352.029 178.259 352.386 178.763 352.869 179.146C353.352 179.53 353.968 179.722 354.716 179.722ZM365.428 181.256C364.737 181.256 364.109 181.125 363.546 180.865C362.982 180.6 362.535 180.219 362.203 179.722C361.872 179.22 361.706 178.614 361.706 177.903C361.706 177.278 361.829 176.772 362.076 176.384C362.322 175.991 362.651 175.683 363.063 175.46C363.475 175.238 363.929 175.072 364.426 174.963C364.928 174.849 365.433 174.759 365.939 174.693C366.602 174.608 367.14 174.544 367.551 174.501C367.968 174.454 368.271 174.376 368.461 174.267C368.655 174.158 368.752 173.969 368.752 173.699V173.642C368.752 172.941 368.56 172.397 368.176 172.009C367.798 171.62 367.222 171.426 366.451 171.426C365.65 171.426 365.023 171.601 364.569 171.952C364.114 172.302 363.794 172.676 363.61 173.074L362.019 172.506C362.303 171.843 362.682 171.327 363.155 170.957C363.633 170.583 364.154 170.323 364.718 170.176C365.286 170.025 365.845 169.949 366.394 169.949C366.744 169.949 367.147 169.991 367.601 170.077C368.06 170.157 368.503 170.325 368.929 170.581C369.36 170.837 369.718 171.223 370.002 171.739C370.286 172.255 370.428 172.946 370.428 173.812V181H368.752V179.523H368.667C368.553 179.759 368.364 180.013 368.098 180.283C367.833 180.553 367.48 180.782 367.04 180.972C366.6 181.161 366.062 181.256 365.428 181.256ZM365.684 179.75C366.346 179.75 366.905 179.62 367.36 179.359C367.819 179.099 368.165 178.763 368.397 178.351C368.633 177.939 368.752 177.506 368.752 177.051V175.517C368.681 175.602 368.525 175.68 368.283 175.751C368.046 175.818 367.772 175.877 367.459 175.929C367.151 175.976 366.851 176.019 366.557 176.057C366.268 176.09 366.034 176.118 365.854 176.142C365.418 176.199 365.011 176.291 364.632 176.419C364.258 176.542 363.955 176.729 363.723 176.98C363.496 177.226 363.382 177.562 363.382 177.989C363.382 178.571 363.598 179.011 364.029 179.31C364.464 179.603 365.016 179.75 365.684 179.75ZM377.607 181.227C376.697 181.227 375.895 180.998 375.199 180.538C374.503 180.074 373.958 179.421 373.565 178.578C373.172 177.731 372.976 176.729 372.976 175.574C372.976 174.428 373.172 173.434 373.565 172.591C373.958 171.748 374.505 171.097 375.206 170.638C375.907 170.179 376.716 169.949 377.635 169.949C378.345 169.949 378.906 170.067 379.318 170.304C379.735 170.536 380.052 170.801 380.27 171.099C380.492 171.393 380.665 171.634 380.788 171.824H380.93V166.455H382.607V181H380.987V179.324H380.788C380.665 179.523 380.49 179.774 380.263 180.077C380.036 180.375 379.711 180.643 379.29 180.879C378.868 181.111 378.307 181.227 377.607 181.227ZM377.834 179.722C378.506 179.722 379.074 179.546 379.538 179.196C380.002 178.841 380.355 178.351 380.597 177.726C380.838 177.096 380.959 176.369 380.959 175.545C380.959 174.731 380.84 174.018 380.604 173.408C380.367 172.792 380.017 172.314 379.553 171.973C379.089 171.627 378.516 171.455 377.834 171.455C377.124 171.455 376.532 171.637 376.058 172.001C375.589 172.361 375.237 172.851 375 173.472C374.768 174.087 374.652 174.778 374.652 175.545C374.652 176.322 374.77 177.027 375.007 177.662C375.249 178.292 375.604 178.794 376.072 179.168C376.546 179.537 377.133 179.722 377.834 179.722ZM385.909 181V170.091H387.585V181H385.909ZM386.761 168.273C386.435 168.273 386.153 168.161 385.916 167.939C385.684 167.716 385.568 167.449 385.568 167.136C385.568 166.824 385.684 166.556 385.916 166.334C386.153 166.111 386.435 166 386.761 166C387.088 166 387.367 166.111 387.599 166.334C387.836 166.556 387.955 166.824 387.955 167.136C387.955 167.449 387.836 167.716 387.599 167.939C387.367 168.161 387.088 168.273 386.761 168.273ZM392.331 174.438V181H390.655V170.091H392.275V171.795H392.417C392.672 171.241 393.06 170.796 393.581 170.46C394.102 170.119 394.775 169.949 395.598 169.949C396.337 169.949 396.983 170.1 397.537 170.403C398.091 170.702 398.522 171.156 398.83 171.767C399.138 172.373 399.292 173.14 399.292 174.068V181H397.615V174.182C397.615 173.325 397.393 172.657 396.948 172.179C396.503 171.696 395.892 171.455 395.115 171.455C394.58 171.455 394.102 171.571 393.681 171.803C393.264 172.035 392.935 172.373 392.694 172.818C392.452 173.263 392.331 173.803 392.331 174.438ZM406.758 185.318C405.948 185.318 405.252 185.214 404.67 185.006C404.087 184.802 403.602 184.532 403.214 184.196C402.83 183.865 402.525 183.509 402.298 183.131L403.633 182.193C403.784 182.392 403.976 182.619 404.208 182.875C404.44 183.135 404.757 183.36 405.16 183.55C405.567 183.744 406.1 183.841 406.758 183.841C407.638 183.841 408.365 183.628 408.938 183.202C409.511 182.776 409.798 182.108 409.798 181.199V178.983H409.656C409.532 179.182 409.357 179.428 409.13 179.722C408.907 180.01 408.585 180.268 408.164 180.496C407.747 180.718 407.184 180.83 406.474 180.83C405.593 180.83 404.802 180.621 404.102 180.205C403.406 179.788 402.854 179.182 402.447 178.386C402.044 177.591 401.843 176.625 401.843 175.489C401.843 174.371 402.04 173.398 402.433 172.57C402.826 171.736 403.372 171.092 404.073 170.638C404.774 170.179 405.584 169.949 406.502 169.949C407.212 169.949 407.776 170.067 408.192 170.304C408.614 170.536 408.936 170.801 409.158 171.099C409.386 171.393 409.561 171.634 409.684 171.824H409.854V170.091H411.474V181.312C411.474 182.25 411.261 183.012 410.835 183.599C410.413 184.191 409.845 184.625 409.13 184.899C408.42 185.179 407.629 185.318 406.758 185.318ZM406.701 179.324C407.373 179.324 407.942 179.17 408.406 178.862C408.87 178.554 409.222 178.112 409.464 177.534C409.705 176.956 409.826 176.265 409.826 175.46C409.826 174.674 409.708 173.981 409.471 173.379C409.234 172.778 408.884 172.307 408.42 171.966C407.956 171.625 407.383 171.455 406.701 171.455C405.991 171.455 405.399 171.634 404.925 171.994C404.457 172.354 404.104 172.837 403.867 173.443C403.635 174.049 403.519 174.722 403.519 175.46C403.519 176.218 403.638 176.888 403.874 177.47C404.116 178.048 404.471 178.502 404.94 178.834C405.413 179.161 406 179.324 406.701 179.324ZM415.763 181.114C415.413 181.114 415.112 180.988 414.862 180.737C414.611 180.486 414.485 180.186 414.485 179.835C414.485 179.485 414.611 179.184 414.862 178.933C415.112 178.682 415.413 178.557 415.763 178.557C416.114 178.557 416.415 178.682 416.665 178.933C416.916 179.184 417.042 179.485 417.042 179.835C417.042 180.067 416.983 180.28 416.864 180.474C416.751 180.669 416.597 180.825 416.403 180.943C416.213 181.057 416 181.114 415.763 181.114ZM421.271 181.114C420.921 181.114 420.62 180.988 420.369 180.737C420.118 180.486 419.993 180.186 419.993 179.835C419.993 179.485 420.118 179.184 420.369 178.933C420.62 178.682 420.921 178.557 421.271 178.557C421.622 178.557 421.922 178.682 422.173 178.933C422.424 179.184 422.55 179.485 422.55 179.835C422.55 180.067 422.491 180.28 422.372 180.474C422.259 180.669 422.105 180.825 421.911 180.943C421.721 181.057 421.508 181.114 421.271 181.114ZM426.779 181.114C426.429 181.114 426.128 180.988 425.877 180.737C425.626 180.486 425.501 180.186 425.501 179.835C425.501 179.485 425.626 179.184 425.877 178.933C426.128 178.682 426.429 178.557 426.779 178.557C427.129 178.557 427.43 178.682 427.681 178.933C427.932 179.184 428.058 179.485 428.058 179.835C428.058 180.067 427.998 180.28 427.88 180.474C427.766 180.669 427.612 180.825 427.418 180.943C427.229 181.057 427.016 181.114 426.779 181.114Z" fill="white" fill-opacity="0.95"/>
<path d="M346.125 272.125C345.977 272.125 345.831 272.096 345.694 272.04C345.558 271.983 345.434 271.9 345.329 271.796C345.225 271.691 345.142 271.567 345.085 271.431C345.029 271.294 345 271.148 345 271C345 273.67 344.208 276.28 342.725 278.5C341.241 280.72 339.133 282.451 336.666 283.472C334.199 284.494 331.485 284.762 328.866 284.241C326.248 283.72 323.842 282.434 321.954 280.546C320.066 278.658 318.78 276.252 318.259 273.634C317.739 271.015 318.006 268.301 319.028 265.834C320.049 263.367 321.78 261.259 324 259.775C326.22 258.292 328.83 257.5 331.5 257.5C331.202 257.5 330.915 257.381 330.705 257.17C330.494 256.96 330.375 256.673 330.375 256.375C330.375 256.077 330.494 255.79 330.705 255.58C330.915 255.369 331.202 255.25 331.5 255.25C328.385 255.25 325.34 256.174 322.75 257.904C320.16 259.635 318.141 262.095 316.949 264.973C315.757 267.851 315.445 271.017 316.053 274.073C316.66 277.128 318.16 279.934 320.363 282.137C322.566 284.34 325.372 285.84 328.427 286.447C331.483 287.055 334.649 286.743 337.527 285.551C340.405 284.359 342.865 282.34 344.596 279.75C346.326 277.16 347.25 274.115 347.25 271C347.25 271.148 347.221 271.294 347.165 271.431C347.108 271.567 347.025 271.691 346.921 271.796C346.816 271.9 346.692 271.983 346.556 272.04C346.419 272.096 346.273 272.125 346.125 272.125Z" fill="#3B3B3B"/>
<path d="M330.375 256.375C330.375 256.523 330.404 256.669 330.46 256.806C330.517 256.942 330.6 257.066 330.704 257.171C330.809 257.275 330.933 257.358 331.069 257.415C331.206 257.471 331.352 257.5 331.5 257.5C335.079 257.504 338.511 258.927 341.042 261.458C343.573 263.989 344.996 267.421 345 271C345 271.298 345.119 271.585 345.33 271.795C345.54 272.006 345.827 272.125 346.125 272.125C346.423 272.125 346.71 272.006 346.92 271.795C347.131 271.585 347.25 271.298 347.25 271C347.245 266.824 345.584 262.821 342.632 259.868C339.679 256.916 335.676 255.255 331.5 255.25C331.352 255.25 331.206 255.279 331.069 255.335C330.933 255.392 330.809 255.475 330.704 255.579C330.6 255.684 330.517 255.808 330.46 255.944C330.404 256.081 330.375 256.227 330.375 256.375Z" fill="#3492EB"/>
<path d="M363.261 278V263.455H365.023V276.438H371.784V278H363.261ZM378.716 278.227C377.731 278.227 376.867 277.993 376.124 277.524C375.385 277.055 374.807 276.4 374.391 275.557C373.979 274.714 373.773 273.729 373.773 272.602C373.773 271.466 373.979 270.474 374.391 269.626C374.807 268.779 375.385 268.121 376.124 267.652C376.867 267.183 377.731 266.949 378.716 266.949C379.701 266.949 380.563 267.183 381.301 267.652C382.045 268.121 382.622 268.779 383.034 269.626C383.451 270.474 383.659 271.466 383.659 272.602C383.659 273.729 383.451 274.714 383.034 275.557C382.622 276.4 382.045 277.055 381.301 277.524C380.563 277.993 379.701 278.227 378.716 278.227ZM378.716 276.722C379.464 276.722 380.08 276.53 380.562 276.146C381.045 275.763 381.403 275.259 381.635 274.634C381.867 274.009 381.983 273.331 381.983 272.602C381.983 271.873 381.867 271.194 381.635 270.564C381.403 269.934 381.045 269.425 380.562 269.037C380.08 268.649 379.464 268.455 378.716 268.455C377.968 268.455 377.352 268.649 376.869 269.037C376.386 269.425 376.029 269.934 375.797 270.564C375.565 271.194 375.449 271.873 375.449 272.602C375.449 273.331 375.565 274.009 375.797 274.634C376.029 275.259 376.386 275.763 376.869 276.146C377.352 276.53 377.968 276.722 378.716 276.722ZM389.428 278.256C388.737 278.256 388.109 278.125 387.546 277.865C386.982 277.6 386.535 277.219 386.203 276.722C385.872 276.22 385.706 275.614 385.706 274.903C385.706 274.278 385.829 273.772 386.076 273.384C386.322 272.991 386.651 272.683 387.063 272.46C387.475 272.238 387.929 272.072 388.426 271.963C388.928 271.849 389.433 271.759 389.939 271.693C390.602 271.608 391.14 271.544 391.551 271.501C391.968 271.454 392.271 271.376 392.461 271.267C392.655 271.158 392.752 270.969 392.752 270.699V270.642C392.752 269.941 392.56 269.397 392.176 269.009C391.798 268.62 391.222 268.426 390.451 268.426C389.65 268.426 389.023 268.601 388.569 268.952C388.114 269.302 387.794 269.676 387.61 270.074L386.019 269.506C386.303 268.843 386.682 268.327 387.155 267.957C387.633 267.583 388.154 267.323 388.718 267.176C389.286 267.025 389.845 266.949 390.394 266.949C390.744 266.949 391.147 266.991 391.601 267.077C392.06 267.157 392.503 267.325 392.929 267.581C393.36 267.837 393.718 268.223 394.002 268.739C394.286 269.255 394.428 269.946 394.428 270.812V278H392.752V276.523H392.667C392.553 276.759 392.364 277.013 392.098 277.283C391.833 277.553 391.48 277.782 391.04 277.972C390.6 278.161 390.062 278.256 389.428 278.256ZM389.684 276.75C390.346 276.75 390.905 276.62 391.36 276.359C391.819 276.099 392.165 275.763 392.397 275.351C392.633 274.939 392.752 274.506 392.752 274.051V272.517C392.681 272.602 392.525 272.68 392.283 272.751C392.046 272.818 391.772 272.877 391.459 272.929C391.151 272.976 390.851 273.019 390.557 273.057C390.268 273.09 390.034 273.118 389.854 273.142C389.418 273.199 389.011 273.291 388.632 273.419C388.258 273.542 387.955 273.729 387.723 273.98C387.496 274.226 387.382 274.562 387.382 274.989C387.382 275.571 387.598 276.011 388.029 276.31C388.464 276.603 389.016 276.75 389.684 276.75ZM401.607 278.227C400.697 278.227 399.895 277.998 399.199 277.538C398.503 277.074 397.958 276.421 397.565 275.578C397.172 274.731 396.976 273.729 396.976 272.574C396.976 271.428 397.172 270.434 397.565 269.591C397.958 268.748 398.505 268.097 399.206 267.638C399.907 267.179 400.716 266.949 401.635 266.949C402.345 266.949 402.906 267.067 403.318 267.304C403.735 267.536 404.052 267.801 404.27 268.099C404.492 268.393 404.665 268.634 404.788 268.824H404.93V263.455H406.607V278H404.987V276.324H404.788C404.665 276.523 404.49 276.774 404.263 277.077C404.036 277.375 403.711 277.643 403.29 277.879C402.868 278.111 402.307 278.227 401.607 278.227ZM401.834 276.722C402.506 276.722 403.074 276.546 403.538 276.196C404.002 275.841 404.355 275.351 404.597 274.726C404.838 274.096 404.959 273.369 404.959 272.545C404.959 271.731 404.84 271.018 404.604 270.408C404.367 269.792 404.017 269.314 403.553 268.973C403.089 268.627 402.516 268.455 401.834 268.455C401.124 268.455 400.532 268.637 400.058 269.001C399.589 269.361 399.237 269.851 399 270.472C398.768 271.087 398.652 271.778 398.652 272.545C398.652 273.322 398.77 274.027 399.007 274.662C399.249 275.292 399.604 275.794 400.072 276.168C400.546 276.537 401.133 276.722 401.834 276.722ZM409.909 278V267.091H411.585V278H409.909ZM410.761 265.273C410.435 265.273 410.153 265.161 409.916 264.939C409.684 264.716 409.568 264.449 409.568 264.136C409.568 263.824 409.684 263.556 409.916 263.334C410.153 263.111 410.435 263 410.761 263C411.088 263 411.367 263.111 411.599 263.334C411.836 263.556 411.955 263.824 411.955 264.136C411.955 264.449 411.836 264.716 411.599 264.939C411.367 265.161 411.088 265.273 410.761 265.273ZM416.331 271.438V278H414.655V267.091H416.275V268.795H416.417C416.672 268.241 417.06 267.796 417.581 267.46C418.102 267.119 418.775 266.949 419.598 266.949C420.337 266.949 420.983 267.1 421.537 267.403C422.091 267.702 422.522 268.156 422.83 268.767C423.138 269.373 423.292 270.14 423.292 271.068V278H421.615V271.182C421.615 270.325 421.393 269.657 420.948 269.179C420.503 268.696 419.892 268.455 419.115 268.455C418.58 268.455 418.102 268.571 417.681 268.803C417.264 269.035 416.935 269.373 416.694 269.818C416.452 270.263 416.331 270.803 416.331 271.438ZM430.758 282.318C429.948 282.318 429.252 282.214 428.67 282.006C428.087 281.802 427.602 281.532 427.214 281.196C426.83 280.865 426.525 280.509 426.298 280.131L427.633 279.193C427.784 279.392 427.976 279.619 428.208 279.875C428.44 280.135 428.757 280.36 429.16 280.55C429.567 280.744 430.1 280.841 430.758 280.841C431.638 280.841 432.365 280.628 432.938 280.202C433.511 279.776 433.798 279.108 433.798 278.199V275.983H433.656C433.532 276.182 433.357 276.428 433.13 276.722C432.907 277.01 432.585 277.268 432.164 277.496C431.747 277.718 431.184 277.83 430.474 277.83C429.593 277.83 428.802 277.621 428.102 277.205C427.406 276.788 426.854 276.182 426.447 275.386C426.044 274.591 425.843 273.625 425.843 272.489C425.843 271.371 426.04 270.398 426.433 269.57C426.826 268.736 427.372 268.092 428.073 267.638C428.774 267.179 429.584 266.949 430.502 266.949C431.212 266.949 431.776 267.067 432.192 267.304C432.614 267.536 432.936 267.801 433.158 268.099C433.386 268.393 433.561 268.634 433.684 268.824H433.854V267.091H435.474V278.312C435.474 279.25 435.261 280.012 434.835 280.599C434.413 281.191 433.845 281.625 433.13 281.899C432.42 282.179 431.629 282.318 430.758 282.318ZM430.701 276.324C431.373 276.324 431.942 276.17 432.406 275.862C432.87 275.554 433.222 275.112 433.464 274.534C433.705 273.956 433.826 273.265 433.826 272.46C433.826 271.674 433.708 270.981 433.471 270.379C433.234 269.778 432.884 269.307 432.42 268.966C431.956 268.625 431.383 268.455 430.701 268.455C429.991 268.455 429.399 268.634 428.925 268.994C428.457 269.354 428.104 269.837 427.867 270.443C427.635 271.049 427.519 271.722 427.519 272.46C427.519 273.218 427.638 273.888 427.874 274.47C428.116 275.048 428.471 275.502 428.94 275.834C429.413 276.161 430 276.324 430.701 276.324ZM439.763 278.114C439.413 278.114 439.112 277.988 438.862 277.737C438.611 277.486 438.485 277.186 438.485 276.835C438.485 276.485 438.611 276.184 438.862 275.933C439.112 275.682 439.413 275.557 439.763 275.557C440.114 275.557 440.415 275.682 440.665 275.933C440.916 276.184 441.042 276.485 441.042 276.835C441.042 277.067 440.983 277.28 440.864 277.474C440.751 277.669 440.597 277.825 440.403 277.943C440.213 278.057 440 278.114 439.763 278.114ZM445.271 278.114C444.921 278.114 444.62 277.988 444.369 277.737C444.118 277.486 443.993 277.186 443.993 276.835C443.993 276.485 444.118 276.184 444.369 275.933C444.62 275.682 444.921 275.557 445.271 275.557C445.622 275.557 445.922 275.682 446.173 275.933C446.424 276.184 446.55 276.485 446.55 276.835C446.55 277.067 446.491 277.28 446.372 277.474C446.259 277.669 446.105 277.825 445.911 277.943C445.721 278.057 445.508 278.114 445.271 278.114ZM450.779 278.114C450.429 278.114 450.128 277.988 449.877 277.737C449.626 277.486 449.501 277.186 449.501 276.835C449.501 276.485 449.626 276.184 449.877 275.933C450.128 275.682 450.429 275.557 450.779 275.557C451.129 275.557 451.43 275.682 451.681 275.933C451.932 276.184 452.058 276.485 452.058 276.835C452.058 277.067 451.998 277.28 451.88 277.474C451.766 277.669 451.612 277.825 451.418 277.943C451.229 278.057 451.016 278.114 450.779 278.114Z" fill="white" fill-opacity="0.95"/>
</svg>
