<svg width="1300" height="300" viewBox="0 0 1300 300" fill="none" xmlns="http://www.w3.org/2000/svg">
<rect width="1300" height="300" rx="24" fill="#262626"/>
<path d="M396.313 134.562C396.239 134.563 396.165 134.548 396.097 134.52C396.029 134.492 395.967 134.45 395.915 134.398C395.862 134.346 395.821 134.284 395.793 134.215C395.764 134.147 395.75 134.074 395.75 134C395.75 135.335 395.354 136.64 394.612 137.75C393.871 138.86 392.817 139.725 391.583 140.236C390.35 140.747 388.993 140.881 387.683 140.62C386.374 140.36 385.171 139.717 384.227 138.773C383.283 137.829 382.64 136.626 382.38 135.317C382.119 134.007 382.253 132.65 382.764 131.417C383.275 130.183 384.14 129.129 385.25 128.388C386.36 127.646 387.665 127.25 389 127.25C388.851 127.25 388.708 127.191 388.602 127.085C388.497 126.98 388.438 126.837 388.438 126.688C388.438 126.538 388.497 126.395 388.602 126.29C388.708 126.184 388.851 126.125 389 126.125C387.442 126.125 385.92 126.587 384.625 127.452C383.33 128.317 382.32 129.547 381.724 130.986C381.128 132.425 380.972 134.009 381.276 135.536C381.58 137.064 382.33 138.467 383.432 139.568C384.533 140.67 385.936 141.42 387.464 141.724C388.991 142.028 390.575 141.872 392.014 141.276C393.453 140.68 394.683 139.67 395.548 138.375C396.413 137.08 396.875 135.558 396.875 134C396.875 134.074 396.861 134.147 396.832 134.215C396.804 134.284 396.763 134.346 396.71 134.398C396.658 134.45 396.596 134.492 396.528 134.52C396.46 134.548 396.386 134.563 396.313 134.562Z" fill="#3B3B3B"/>
<path d="M388.438 126.688C388.437 126.761 388.452 126.835 388.48 126.903C388.508 126.971 388.55 127.033 388.602 127.085C388.654 127.138 388.716 127.179 388.785 127.207C388.853 127.236 388.926 127.25 389 127.25C390.79 127.252 392.505 127.964 393.771 129.229C395.036 130.495 395.748 132.21 395.75 134C395.75 134.149 395.809 134.292 395.915 134.398C396.02 134.503 396.163 134.562 396.312 134.562C396.462 134.562 396.605 134.503 396.71 134.398C396.816 134.292 396.875 134.149 396.875 134C396.873 131.912 396.042 129.91 394.566 128.434C393.09 126.958 391.088 126.127 389 126.125C388.926 126.125 388.853 126.139 388.785 126.168C388.716 126.196 388.654 126.237 388.602 126.29C388.55 126.342 388.508 126.404 388.48 126.472C388.452 126.54 388.437 126.614 388.438 126.688Z" fill="#3492EB"/>
<path d="M397 126H401L405 126" stroke="#DB1F2E" stroke-linecap="round" stroke-dasharray="0.01 4"/>
<path d="M397 142H401L405 142" stroke="#DB1F2E" stroke-linecap="round" stroke-dasharray="0.01 4"/>
<path d="M413 126H421L429 126" stroke="#DB1F2E"/>
<path d="M421 127V126" stroke="#DB1F2E"/>
<path d="M418.854 138H417.904V132L416.334 132.81V131.82L417.914 131H418.854V138ZM424.32 133.42C425.04 133.42 425.6 133.67 426 134.17C426.333 134.59 426.5 135.123 426.5 135.77C426.5 136.577 426.223 137.2 425.67 137.64C425.243 137.98 424.74 138.15 424.16 138.15C423.3 138.15 422.66 137.82 422.24 137.16C421.88 136.593 421.7 135.8 421.7 134.78C421.7 133.253 421.997 132.167 422.59 131.52C423.003 131.073 423.557 130.85 424.25 130.85C424.817 130.85 425.297 131 425.69 131.3C426.037 131.567 426.26 131.91 426.36 132.33H425.3C425.24 132.11 425.117 131.94 424.93 131.82C424.743 131.693 424.513 131.63 424.24 131.63C423.273 131.63 422.743 132.53 422.65 134.33C422.83 134.043 423.067 133.82 423.36 133.66C423.653 133.5 423.973 133.42 424.32 133.42ZM422.75 135.74C422.75 136.28 422.903 136.697 423.21 136.99C423.457 137.23 423.773 137.35 424.16 137.35C424.587 137.35 424.927 137.2 425.18 136.9C425.413 136.62 425.53 136.26 425.53 135.82C425.53 135.293 425.39 134.887 425.11 134.6C424.863 134.347 424.543 134.22 424.15 134.22C423.67 134.22 423.303 134.39 423.05 134.73C422.85 135.003 422.75 135.34 422.75 135.74Z" fill="white" fill-opacity="0.95"/>
<path d="M421 143V142" stroke="#DB1F2E"/>
<path d="M413 143H421L429 143" stroke="#DB1F2E"/>
<path d="M381 142V146L381 150" stroke="#FF634E" stroke-linecap="round" stroke-dasharray="0.01 4"/>
<path d="M397 142V146L397 150" stroke="#DB1F2E" stroke-linecap="round" stroke-dasharray="0.01 4"/>
<path d="M381 158V166L381 174" stroke="#DB1F2E"/>
<path d="M381 166H382" stroke="#DB1F2E"/>
<path d="M386.854 169.5H385.904V163.5L384.334 164.31V163.32L385.914 162.5H386.854V169.5ZM392.32 164.92C393.04 164.92 393.6 165.17 394 165.67C394.333 166.09 394.5 166.623 394.5 167.27C394.5 168.077 394.223 168.7 393.67 169.14C393.243 169.48 392.74 169.65 392.16 169.65C391.3 169.65 390.66 169.32 390.24 168.66C389.88 168.093 389.7 167.3 389.7 166.28C389.7 164.753 389.997 163.667 390.59 163.02C391.003 162.573 391.557 162.35 392.25 162.35C392.817 162.35 393.297 162.5 393.69 162.8C394.037 163.067 394.26 163.41 394.36 163.83H393.3C393.24 163.61 393.117 163.44 392.93 163.32C392.743 163.193 392.513 163.13 392.24 163.13C391.273 163.13 390.743 164.03 390.65 165.83C390.83 165.543 391.067 165.32 391.36 165.16C391.653 165 391.973 164.92 392.32 164.92ZM390.75 167.24C390.75 167.78 390.903 168.197 391.21 168.49C391.457 168.73 391.773 168.85 392.16 168.85C392.587 168.85 392.927 168.7 393.18 168.4C393.413 168.12 393.53 167.76 393.53 167.32C393.53 166.793 393.39 166.387 393.11 166.1C392.863 165.847 392.543 165.72 392.15 165.72C391.67 165.72 391.303 165.89 391.05 166.23C390.85 166.503 390.75 166.84 390.75 167.24Z" fill="white" fill-opacity="0.95"/>
<path d="M396 166H397" stroke="#DB1F2E"/>
<path d="M397 158V166L397 174" stroke="#DB1F2E"/>
<path d="M541.625 135.125C541.477 135.125 541.331 135.096 541.194 135.04C541.058 134.983 540.934 134.9 540.829 134.796C540.725 134.691 540.642 134.567 540.585 134.431C540.529 134.294 540.5 134.148 540.5 134C540.5 136.67 539.708 139.28 538.225 141.5C536.741 143.72 534.633 145.451 532.166 146.472C529.699 147.494 526.985 147.762 524.366 147.241C521.748 146.72 519.342 145.434 517.454 143.546C515.566 141.658 514.28 139.252 513.759 136.634C513.239 134.015 513.506 131.301 514.528 128.834C515.549 126.367 517.28 124.259 519.5 122.775C521.72 121.292 524.33 120.5 527 120.5C526.702 120.5 526.415 120.381 526.205 120.17C525.994 119.96 525.875 119.673 525.875 119.375C525.875 119.077 525.994 118.79 526.205 118.58C526.415 118.369 526.702 118.25 527 118.25C523.885 118.25 520.84 119.174 518.25 120.904C515.66 122.635 513.641 125.095 512.449 127.973C511.257 130.851 510.945 134.017 511.553 137.073C512.16 140.128 513.66 142.934 515.863 145.137C518.066 147.34 520.872 148.84 523.927 149.447C526.983 150.055 530.149 149.743 533.027 148.551C535.905 147.359 538.365 145.34 540.096 142.75C541.826 140.16 542.75 137.115 542.75 134C542.75 134.148 542.721 134.294 542.665 134.431C542.608 134.567 542.525 134.691 542.421 134.796C542.316 134.9 542.192 134.983 542.056 135.04C541.919 135.096 541.773 135.125 541.625 135.125Z" fill="#3B3B3B"/>
<path d="M525.875 119.375C525.875 119.523 525.904 119.669 525.96 119.806C526.017 119.942 526.1 120.066 526.204 120.171C526.309 120.275 526.433 120.358 526.569 120.415C526.706 120.471 526.852 120.5 527 120.5C530.579 120.504 534.011 121.927 536.542 124.458C539.073 126.989 540.496 130.421 540.5 134C540.5 134.298 540.619 134.585 540.83 134.795C541.04 135.006 541.327 135.125 541.625 135.125C541.923 135.125 542.21 135.006 542.42 134.795C542.631 134.585 542.75 134.298 542.75 134C542.745 129.824 541.084 125.821 538.132 122.868C535.179 119.916 531.176 118.255 527 118.25C526.852 118.25 526.706 118.279 526.569 118.335C526.433 118.392 526.309 118.475 526.204 118.579C526.1 118.684 526.017 118.808 525.96 118.944C525.904 119.081 525.875 119.227 525.875 119.375Z" fill="#3492EB"/>
<path d="M543 118.046H547L551 118.046" stroke="#DB1F2E" stroke-linecap="round" stroke-dasharray="0.01 4"/>
<path d="M543 150.046H547L551 150.046" stroke="#DB1F2E" stroke-linecap="round" stroke-dasharray="0.01 4"/>
<path d="M559 118.046H567L575 118.046" stroke="#DB1F2E"/>
<path d="M567 126.546V118.046" stroke="#DB1F2E"/>
<path d="M566.494 135.636C566.494 136.283 566.237 136.799 565.724 137.186C565.277 137.519 564.707 137.686 564.014 137.686C563.247 137.686 562.637 137.489 562.184 137.096C561.797 136.769 561.567 136.339 561.494 135.806H562.514C562.681 136.526 563.174 136.886 563.994 136.886C564.501 136.886 564.891 136.753 565.164 136.486C565.397 136.259 565.514 135.969 565.514 135.616C565.514 135.149 565.347 134.796 565.014 134.556C564.767 134.383 564.474 134.296 564.134 134.296H563.554V133.466H564.114C564.441 133.466 564.714 133.359 564.934 133.146C565.161 132.933 565.274 132.649 565.274 132.296C565.274 131.923 565.117 131.633 564.804 131.426C564.564 131.273 564.274 131.196 563.934 131.196C563.521 131.196 563.184 131.299 562.924 131.506C562.704 131.686 562.571 131.916 562.524 132.196H561.514C561.607 131.609 561.904 131.153 562.404 130.826C562.837 130.539 563.364 130.396 563.984 130.396C564.664 130.396 565.217 130.566 565.644 130.906C566.051 131.233 566.254 131.673 566.254 132.226C566.254 132.626 566.121 132.976 565.854 133.276C565.627 133.536 565.341 133.719 564.994 133.826C565.454 133.926 565.821 134.139 566.094 134.466C566.361 134.786 566.494 135.176 566.494 135.636ZM568.61 132.376H567.6C567.68 131.756 567.967 131.263 568.46 130.896C568.9 130.563 569.433 130.396 570.06 130.396C570.773 130.396 571.343 130.596 571.77 130.996C572.15 131.363 572.34 131.826 572.34 132.386C572.34 132.879 572.2 133.336 571.92 133.756C571.693 134.109 571.277 134.573 570.67 135.146L569.07 136.666H572.31V137.546H567.77V136.666L570.05 134.476C570.557 133.989 570.9 133.603 571.08 133.316C571.267 133.023 571.36 132.716 571.36 132.396C571.36 132.009 571.227 131.709 570.96 131.496C570.727 131.303 570.42 131.206 570.04 131.206C569.613 131.206 569.27 131.323 569.01 131.556C568.783 131.763 568.65 132.036 568.61 132.376Z" fill="white" fill-opacity="0.95"/>
<path d="M567 150.046V141.546" stroke="#DB1F2E"/>
<path d="M559 150.046H567L575 150.046" stroke="#DB1F2E"/>
<path d="M511 150V154L511 158" stroke="#DB1F2E" stroke-linecap="round" stroke-dasharray="0.01 4"/>
<path d="M543 150V154L543 158" stroke="#DB1F2E" stroke-linecap="round" stroke-dasharray="0.01 4"/>
<path d="M511 166V174L511 182" stroke="#DB1F2E"/>
<path d="M511 174H517" stroke="#DB1F2E"/>
<path d="M526.494 175.59C526.494 176.237 526.237 176.753 525.724 177.14C525.277 177.473 524.707 177.64 524.014 177.64C523.247 177.64 522.637 177.443 522.184 177.05C521.797 176.723 521.567 176.293 521.494 175.76H522.514C522.681 176.48 523.174 176.84 523.994 176.84C524.501 176.84 524.891 176.707 525.164 176.44C525.397 176.213 525.514 175.923 525.514 175.57C525.514 175.103 525.347 174.75 525.014 174.51C524.767 174.337 524.474 174.25 524.134 174.25H523.554V173.42H524.114C524.441 173.42 524.714 173.313 524.934 173.1C525.161 172.887 525.274 172.603 525.274 172.25C525.274 171.877 525.117 171.587 524.804 171.38C524.564 171.227 524.274 171.15 523.934 171.15C523.521 171.15 523.184 171.253 522.924 171.46C522.704 171.64 522.571 171.87 522.524 172.15H521.514C521.607 171.563 521.904 171.107 522.404 170.78C522.837 170.493 523.364 170.35 523.984 170.35C524.664 170.35 525.217 170.52 525.644 170.86C526.051 171.187 526.254 171.627 526.254 172.18C526.254 172.58 526.121 172.93 525.854 173.23C525.627 173.49 525.341 173.673 524.994 173.78C525.454 173.88 525.821 174.093 526.094 174.42C526.361 174.74 526.494 175.13 526.494 175.59ZM528.61 172.33H527.6C527.68 171.71 527.967 171.217 528.46 170.85C528.9 170.517 529.433 170.35 530.06 170.35C530.773 170.35 531.343 170.55 531.77 170.95C532.15 171.317 532.34 171.78 532.34 172.34C532.34 172.833 532.2 173.29 531.92 173.71C531.693 174.063 531.277 174.527 530.67 175.1L529.07 176.62H532.31V177.5H527.77V176.62L530.05 174.43C530.557 173.943 530.9 173.557 531.08 173.27C531.267 172.977 531.36 172.67 531.36 172.35C531.36 171.963 531.227 171.663 530.96 171.45C530.727 171.257 530.42 171.16 530.04 171.16C529.613 171.16 529.27 171.277 529.01 171.51C528.783 171.717 528.65 171.99 528.61 172.33Z" fill="white" fill-opacity="0.95"/>
<path d="M537 174H543" stroke="#DB1F2E"/>
<path d="M543 166V174L543 182" stroke="#DB1F2E"/>
<path d="M699.11 135.547C698.906 135.547 698.705 135.507 698.518 135.429C698.33 135.352 698.159 135.238 698.016 135.094C697.872 134.95 697.758 134.78 697.68 134.592C697.603 134.404 697.563 134.203 697.563 134C697.563 137.671 696.474 141.26 694.434 144.313C692.395 147.365 689.496 149.745 686.104 151.15C682.712 152.554 678.98 152.922 675.379 152.206C671.778 151.49 668.471 149.722 665.875 147.126C663.279 144.53 661.511 141.222 660.794 137.621C660.078 134.021 660.446 130.288 661.851 126.896C663.256 123.505 665.635 120.606 668.687 118.566C671.74 116.526 675.329 115.438 679 115.438C678.59 115.438 678.197 115.275 677.906 114.984C677.616 114.694 677.453 114.301 677.453 113.891C677.453 113.48 677.616 113.087 677.906 112.797C678.197 112.507 678.59 112.344 679 112.344C674.717 112.344 670.53 113.614 666.969 115.993C663.407 118.373 660.632 121.755 658.992 125.713C657.353 129.67 656.925 134.024 657.76 138.225C658.596 142.426 660.658 146.285 663.687 149.313C666.716 152.342 670.574 154.405 674.775 155.24C678.976 156.076 683.331 155.647 687.288 154.008C691.245 152.369 694.627 149.593 697.007 146.032C699.386 142.47 700.657 138.283 700.657 134C700.657 134.203 700.617 134.404 700.539 134.592C700.461 134.78 700.347 134.95 700.204 135.094C700.06 135.238 699.889 135.352 699.702 135.429C699.514 135.507 699.313 135.547 699.11 135.547Z" fill="#3B3B3B"/>
<path d="M677.453 113.891C677.453 114.094 677.493 114.295 677.571 114.483C677.649 114.67 677.763 114.841 677.906 114.985C678.05 115.128 678.22 115.242 678.408 115.32C678.596 115.398 678.797 115.438 679 115.438C683.922 115.443 688.64 117.4 692.12 120.88C695.6 124.36 697.557 129.079 697.563 134C697.563 134.41 697.726 134.804 698.016 135.094C698.306 135.384 698.699 135.547 699.11 135.547C699.52 135.547 699.913 135.384 700.203 135.094C700.494 134.804 700.656 134.41 700.656 134C700.65 128.258 698.366 122.754 694.306 118.694C690.246 114.634 684.742 112.35 679 112.344C678.797 112.344 678.596 112.384 678.408 112.461C678.22 112.539 678.05 112.653 677.906 112.797C677.763 112.94 677.649 113.111 677.571 113.299C677.493 113.486 677.453 113.687 677.453 113.891Z" fill="#3492EB"/>
<path d="M701 112.046H705L709 112.046" stroke="#DB1F2E" stroke-linecap="round" stroke-dasharray="0.01 4"/>
<path d="M701 156.046H705L709 156.046" stroke="#DB1F2E" stroke-linecap="round" stroke-dasharray="0.01 4"/>
<path d="M717 112.046H725L733 112.046" stroke="#DB1F2E"/>
<path d="M725 126.546V112.046" stroke="#DB1F2E"/>
<path d="M722.444 130.546H723.444V135.406H724.574V136.226H723.444V137.546H722.514V136.226H719.444V135.336L722.444 130.546ZM720.514 135.406H722.514V132.096L720.514 135.406ZM728.44 130.546H729.44V135.406H730.57V136.226H729.44V137.546H728.51V136.226H725.44V135.336L728.44 130.546ZM726.51 135.406H728.51V132.096L726.51 135.406Z" fill="white" fill-opacity="0.95"/>
<path d="M725 156.046V141.546" stroke="#DB1F2E"/>
<path d="M717 156.046H725L733 156.046" stroke="#DB1F2E"/>
<path d="M657 156V160L657 164" stroke="#DB1F2E" stroke-linecap="round" stroke-dasharray="0.01 4"/>
<path d="M701 156V160L701 164" stroke="#DB1F2E" stroke-linecap="round" stroke-dasharray="0.01 4"/>
<path d="M657 172V180L657 188" stroke="#DB1F2E"/>
<path d="M657 180H669" stroke="#DB1F2E"/>
<path d="M676.444 176.5H677.444V181.36H678.574V182.18H677.444V183.5H676.514V182.18H673.444V181.29L676.444 176.5ZM674.514 181.36H676.514V178.05L674.514 181.36ZM682.44 176.5H683.44V181.36H684.57V182.18H683.44V183.5H682.51V182.18H679.44V181.29L682.44 176.5ZM680.51 181.36H682.51V178.05L680.51 181.36Z" fill="white" fill-opacity="0.95"/>
<path d="M689 180H701" stroke="#DB1F2E"/>
<path d="M701 172V180L701 188" stroke="#DB1F2E"/>
<path d="M883.907 136.531C883.574 136.531 883.245 136.466 882.938 136.339C882.63 136.212 882.351 136.025 882.116 135.79C881.881 135.555 881.695 135.276 881.568 134.969C881.44 134.662 881.375 134.332 881.375 134C881.375 140.008 879.594 145.88 876.256 150.875C872.919 155.871 868.175 159.764 862.624 162.063C857.074 164.362 850.967 164.963 845.074 163.791C839.182 162.619 833.77 159.726 829.522 155.478C825.274 151.23 822.381 145.818 821.209 139.926C820.037 134.034 820.638 127.926 822.937 122.376C825.236 116.826 829.13 112.082 834.125 108.744C839.12 105.406 844.993 103.625 851 103.625C850.329 103.625 849.685 103.358 849.21 102.884C848.736 102.409 848.469 101.765 848.469 101.094C848.469 100.422 848.736 99.7786 849.21 99.3039C849.685 98.8292 850.329 98.5625 851 98.5625C843.991 98.5625 837.14 100.641 831.312 104.535C825.485 108.429 820.942 113.963 818.26 120.439C815.578 126.914 814.876 134.039 816.244 140.914C817.611 147.788 820.986 154.102 825.942 159.058C830.898 164.014 837.213 167.389 844.087 168.757C850.961 170.124 858.086 169.422 864.562 166.74C871.037 164.058 876.572 159.516 880.465 153.688C884.359 147.86 886.438 141.009 886.438 134C886.438 134.332 886.373 134.662 886.245 134.969C886.118 135.276 885.932 135.555 885.697 135.79C885.462 136.025 885.183 136.212 884.875 136.339C884.568 136.466 884.239 136.531 883.907 136.531Z" fill="#3B3B3B"/>
<path d="M848.469 101.094C848.469 101.426 848.534 101.755 848.661 102.063C848.788 102.37 848.975 102.649 849.21 102.884C849.445 103.119 849.724 103.306 850.031 103.433C850.339 103.56 850.668 103.625 851 103.625C859.053 103.634 866.774 106.837 872.469 112.531C878.163 118.226 881.366 125.947 881.375 134C881.375 134.671 881.642 135.315 882.117 135.79C882.591 136.265 883.235 136.531 883.906 136.531C884.578 136.531 885.222 136.265 885.696 135.79C886.171 135.315 886.438 134.671 886.438 134C886.427 124.605 882.69 115.597 876.047 108.954C869.403 102.31 860.396 98.573 851 98.5625C850.668 98.5623 850.339 98.6276 850.031 98.7548C849.724 98.8819 849.445 99.0684 849.21 99.3035C848.975 99.5385 848.788 99.8177 848.661 100.125C848.534 100.432 848.469 100.761 848.469 101.094Z" fill="#3492EB"/>
<path d="M887 98.0459H891L895 98.0459" stroke="#DB1F2E" stroke-linecap="round" stroke-dasharray="0.01 4"/>
<path d="M887 170.046H891L895 170.046" stroke="#DB1F2E" stroke-linecap="round" stroke-dasharray="0.01 4"/>
<path d="M903 98.0459H911L919 98.0459" stroke="#DB1F2E"/>
<path d="M911 126.546V98.0459" stroke="#DB1F2E"/>
<path d="M910.204 131.406L907.344 137.546H906.254L909.184 131.406H905.754V130.546H910.204V131.406ZM912.61 132.376H911.6C911.68 131.756 911.967 131.263 912.46 130.896C912.9 130.563 913.433 130.396 914.06 130.396C914.773 130.396 915.343 130.596 915.77 130.996C916.15 131.363 916.34 131.826 916.34 132.386C916.34 132.879 916.2 133.336 915.92 133.756C915.693 134.109 915.277 134.573 914.67 135.146L913.07 136.666H916.31V137.546H911.77V136.666L914.05 134.476C914.557 133.989 914.9 133.603 915.08 133.316C915.267 133.023 915.36 132.716 915.36 132.396C915.36 132.009 915.227 131.709 914.96 131.496C914.727 131.303 914.42 131.206 914.04 131.206C913.613 131.206 913.27 131.323 913.01 131.556C912.783 131.763 912.65 132.036 912.61 132.376Z" fill="white" fill-opacity="0.95"/>
<path d="M911 170.046V141.546" stroke="#DB1F2E"/>
<path d="M903 170.046H911L919 170.046" stroke="#DB1F2E"/>
<path d="M815 170V174L815 178" stroke="#DB1F2E" stroke-linecap="round" stroke-dasharray="0.01 4"/>
<path d="M887 170V174L887 178" stroke="#DB1F2E" stroke-linecap="round" stroke-dasharray="0.01 4"/>
<path d="M815 186V194L815 202" stroke="#DB1F2E"/>
<path d="M815 194H841" stroke="#DB1F2E"/>
<path d="M850.204 191.36L847.344 197.5H846.254L849.184 191.36H845.754V190.5H850.204V191.36ZM852.61 192.33H851.6C851.68 191.71 851.967 191.217 852.46 190.85C852.9 190.517 853.433 190.35 854.06 190.35C854.773 190.35 855.343 190.55 855.77 190.95C856.15 191.317 856.34 191.78 856.34 192.34C856.34 192.833 856.2 193.29 855.92 193.71C855.693 194.063 855.277 194.527 854.67 195.1L853.07 196.62H856.31V197.5H851.77V196.62L854.05 194.43C854.557 193.943 854.9 193.557 855.08 193.27C855.267 192.977 855.36 192.67 855.36 192.35C855.36 191.963 855.227 191.663 854.96 191.45C854.727 191.257 854.42 191.16 854.04 191.16C853.613 191.16 853.27 191.277 853.01 191.51C852.783 191.717 852.65 191.99 852.61 192.33Z" fill="white" fill-opacity="0.95"/>
<path d="M861 194H887" stroke="#DB1F2E"/>
<path d="M887 186V194L887 202" stroke="#DB1F2E"/>
</svg>
