<svg width="1560" height="300" viewBox="0 0 1560 300" fill="none" xmlns="http://www.w3.org/2000/svg">
<rect width="768" height="300" rx="24" fill="#1A1A1A"/>
<rect width="1560" height="300" rx="24" fill="#262626"/>
<rect x="553.875" y="119" width="32" height="32" rx="16" fill="#DA0087"/>
<path d="M569.001 139.5V131.716L566.761 132.864V130.89L569.015 129.7H571.185V139.5H569.001Z" fill="white" fill-opacity="0.95"/>
<rect x="705.875" y="119" width="32" height="32" rx="16" fill="#DA0087"/>
<path d="M720.273 132.388H717.991C718.131 131.417 718.616 130.666 719.447 130.134C720.11 129.705 720.88 129.49 721.757 129.49C722.812 129.49 723.656 129.784 724.291 130.372C724.851 130.885 725.131 131.525 725.131 132.29C725.131 133.046 724.907 133.732 724.459 134.348C724.17 134.731 723.516 135.417 722.499 136.406L721.141 137.722H725.061V139.5H718.271V137.722L720.637 135.398L720.959 135.076C721.799 134.245 722.331 133.667 722.555 133.34C722.788 133.013 722.905 132.663 722.905 132.29C722.905 131.898 722.779 131.595 722.527 131.38C722.312 131.203 722.032 131.114 721.687 131.114C721.332 131.114 721.029 131.226 720.777 131.45C720.534 131.674 720.366 131.987 720.273 132.388Z" fill="white" fill-opacity="0.95"/>
<rect x="858.125" y="119" width="32" height="32" rx="16" fill="#DA0087"/>
<path d="M873.657 138.128C874.105 138.128 874.455 137.993 874.707 137.722C874.94 137.47 875.057 137.129 875.057 136.7C875.057 135.627 874.492 135.09 873.363 135.09H872.509V133.592H873.475C873.886 133.592 874.226 133.457 874.497 133.186C874.749 132.943 874.875 132.631 874.875 132.248C874.875 131.856 874.749 131.548 874.497 131.324C874.282 131.147 874.021 131.058 873.713 131.058C873.022 131.058 872.607 131.38 872.467 132.024H870.339C870.47 131.193 870.88 130.549 871.571 130.092C872.187 129.691 872.943 129.49 873.839 129.49C874.838 129.49 875.636 129.728 876.233 130.204C876.802 130.652 877.087 131.273 877.087 132.066C877.087 132.635 876.868 133.135 876.429 133.564C876.046 133.928 875.589 134.152 875.057 134.236C875.729 134.311 876.284 134.605 876.723 135.118C877.115 135.575 877.311 136.089 877.311 136.658C877.311 137.638 876.938 138.413 876.191 138.982C875.538 139.467 874.702 139.71 873.685 139.71C872.602 139.71 871.73 139.416 871.067 138.828C870.498 138.333 870.18 137.722 870.115 136.994H872.285C872.341 137.349 872.486 137.629 872.719 137.834C872.962 138.03 873.274 138.128 873.657 138.128Z" fill="white" fill-opacity="0.95"/>
<rect x="1009.88" y="119" width="32" height="32" rx="16" fill="#DA0087"/>
<path d="M1026.07 129.7H1028.26V136.042H1029.37V137.652H1028.26V139.5H1026.19V137.652H1021.95V135.804L1026.07 129.7ZM1023.98 136.042H1026.19V132.626L1023.98 136.042Z" fill="white" fill-opacity="0.95"/>
<path d="M548.75 166.125C548.602 166.125 548.456 166.096 548.319 166.04C548.183 165.983 548.059 165.9 547.954 165.796C547.85 165.691 547.767 165.567 547.71 165.431C547.654 165.294 547.625 165.148 547.625 165C547.625 167.67 546.833 170.28 545.35 172.5C543.866 174.72 541.758 176.451 539.291 177.472C536.824 178.494 534.11 178.762 531.491 178.241C528.873 177.72 526.467 176.434 524.579 174.546C522.691 172.658 521.405 170.252 520.884 167.634C520.364 165.015 520.631 162.301 521.653 159.834C522.674 157.367 524.405 155.259 526.625 153.775C528.845 152.292 531.455 151.5 534.125 151.5C533.827 151.5 533.54 151.381 533.33 151.17C533.119 150.96 533 150.673 533 150.375C533 150.077 533.119 149.79 533.33 149.58C533.54 149.369 533.827 149.25 534.125 149.25C531.01 149.25 527.965 150.174 525.375 151.904C522.785 153.635 520.766 156.095 519.574 158.973C518.382 161.851 518.07 165.017 518.678 168.073C519.285 171.128 520.785 173.934 522.988 176.137C525.191 178.34 527.997 179.84 531.052 180.447C534.108 181.055 537.274 180.743 540.152 179.551C543.03 178.359 545.49 176.34 547.221 173.75C548.951 171.16 549.875 168.115 549.875 165C549.875 165.148 549.846 165.294 549.79 165.431C549.733 165.567 549.65 165.691 549.546 165.796C549.441 165.9 549.317 165.983 549.181 166.04C549.044 166.096 548.898 166.125 548.75 166.125Z" fill="#3B3B3B"/>
<path d="M533 150.375C533 150.523 533.029 150.669 533.085 150.806C533.142 150.942 533.225 151.066 533.329 151.171C533.434 151.275 533.558 151.358 533.694 151.415C533.831 151.471 533.977 151.5 534.125 151.5C537.704 151.504 541.136 152.927 543.667 155.458C546.198 157.989 547.621 161.421 547.625 165C547.625 165.298 547.744 165.585 547.955 165.795C548.165 166.006 548.452 166.125 548.75 166.125C549.048 166.125 549.335 166.006 549.545 165.795C549.756 165.585 549.875 165.298 549.875 165C549.87 160.824 548.209 156.821 545.257 153.868C542.304 150.916 538.301 149.255 534.125 149.25C533.977 149.25 533.831 149.279 533.694 149.335C533.558 149.392 533.434 149.475 533.329 149.579C533.225 149.684 533.142 149.808 533.085 149.944C533.029 150.081 533 150.227 533 150.375Z" fill="#3492EB"/>
<path d="M700.75 166.125C700.602 166.125 700.456 166.096 700.319 166.04C700.183 165.983 700.059 165.9 699.954 165.796C699.85 165.691 699.767 165.567 699.71 165.431C699.654 165.294 699.625 165.148 699.625 165C699.625 167.67 698.833 170.28 697.35 172.5C695.866 174.72 693.758 176.451 691.291 177.472C688.824 178.494 686.11 178.762 683.491 178.241C680.873 177.72 678.467 176.434 676.579 174.546C674.691 172.658 673.405 170.252 672.884 167.634C672.364 165.015 672.631 162.301 673.653 159.834C674.674 157.367 676.405 155.259 678.625 153.775C680.845 152.292 683.455 151.5 686.125 151.5C685.827 151.5 685.54 151.381 685.33 151.17C685.119 150.96 685 150.673 685 150.375C685 150.077 685.119 149.79 685.33 149.58C685.54 149.369 685.827 149.25 686.125 149.25C683.01 149.25 679.965 150.174 677.375 151.904C674.785 153.635 672.766 156.095 671.574 158.973C670.382 161.851 670.07 165.017 670.678 168.073C671.285 171.128 672.785 173.934 674.988 176.137C677.191 178.34 679.997 179.84 683.052 180.447C686.108 181.055 689.274 180.743 692.152 179.551C695.03 178.359 697.49 176.34 699.221 173.75C700.951 171.16 701.875 168.115 701.875 165C701.875 165.148 701.846 165.294 701.79 165.431C701.733 165.567 701.65 165.691 701.546 165.796C701.441 165.9 701.317 165.983 701.181 166.04C701.044 166.096 700.898 166.125 700.75 166.125Z" fill="#3B3B3B"/>
<path d="M685 150.375C685 150.523 685.029 150.669 685.085 150.806C685.142 150.942 685.225 151.066 685.329 151.171C685.434 151.275 685.558 151.358 685.694 151.415C685.831 151.471 685.977 151.5 686.125 151.5C689.704 151.504 693.136 152.927 695.667 155.458C698.198 157.989 699.621 161.421 699.625 165C699.625 165.298 699.744 165.585 699.955 165.795C700.165 166.006 700.452 166.125 700.75 166.125C701.048 166.125 701.335 166.006 701.545 165.795C701.756 165.585 701.875 165.298 701.875 165C701.87 160.824 700.209 156.821 697.257 153.868C694.304 150.916 690.301 149.255 686.125 149.25C685.977 149.25 685.831 149.279 685.694 149.335C685.558 149.392 685.434 149.475 685.329 149.579C685.225 149.684 685.142 149.808 685.085 149.944C685.029 150.081 685 150.227 685 150.375Z" fill="#3492EB"/>
<path d="M700.75 163.88C700.602 163.88 700.456 163.909 700.319 163.965C700.183 164.022 700.059 164.105 699.954 164.209C699.85 164.314 699.767 164.438 699.71 164.574C699.654 164.711 699.625 164.857 699.625 165.005C699.621 168.584 698.198 172.016 695.667 174.547C693.136 177.077 689.704 178.501 686.125 178.505C685.827 178.505 685.54 178.623 685.33 178.834C685.119 179.045 685 179.332 685 179.63C685 179.928 685.119 180.214 685.33 180.425C685.54 180.636 685.827 180.755 686.125 180.755C690.301 180.75 694.304 179.089 697.257 176.137C700.209 173.184 701.87 169.181 701.875 165.005C701.875 164.857 701.846 164.711 701.79 164.574C701.733 164.438 701.65 164.314 701.546 164.209C701.441 164.105 701.317 164.022 701.181 163.965C701.044 163.909 700.898 163.88 700.75 163.88Z" fill="#3492EB"/>
<path d="M671.51 163.88C671.658 163.88 671.804 163.909 671.941 163.965C672.077 164.022 672.201 164.105 672.306 164.209C672.41 164.314 672.493 164.438 672.55 164.574C672.606 164.711 672.635 164.857 672.635 165.005C672.639 168.584 674.062 172.016 676.593 174.547C679.124 177.077 682.556 178.501 686.135 178.505C686.433 178.505 686.72 178.623 686.931 178.834C687.141 179.045 687.26 179.332 687.26 179.63C687.26 179.928 687.141 180.214 686.931 180.425C686.72 180.636 686.433 180.755 686.135 180.755C681.959 180.75 677.956 179.089 675.003 176.137C672.051 173.184 670.39 169.181 670.385 165.005C670.385 164.857 670.414 164.711 670.47 164.574C670.527 164.438 670.61 164.314 670.714 164.209C670.819 164.105 670.943 164.022 671.079 163.965C671.216 163.909 671.362 163.88 671.51 163.88Z" fill="#3492EB"/>
<path d="M837 150.375C837 150.523 837.029 150.669 837.085 150.806C837.142 150.942 837.225 151.066 837.329 151.171C837.434 151.275 837.558 151.358 837.694 151.415C837.831 151.471 837.977 151.5 838.125 151.5C841.704 151.504 845.136 152.927 847.667 155.458C850.198 157.989 851.621 161.421 851.625 165C851.625 165.298 851.744 165.585 851.955 165.795C852.165 166.006 852.452 166.125 852.75 166.125C853.048 166.125 853.335 166.006 853.545 165.795C853.756 165.585 853.875 165.298 853.875 165C853.87 160.824 852.209 156.821 849.257 153.868C846.304 150.916 842.301 149.255 838.125 149.25C837.977 149.25 837.831 149.279 837.694 149.335C837.558 149.392 837.434 149.475 837.329 149.579C837.225 149.684 837.142 149.808 837.085 149.944C837.029 150.081 837 150.227 837 150.375Z" fill="#27A17A"/>
<path d="M835.125 170.125C835.043 170.125 834.961 170.109 834.885 170.077C834.809 170.046 834.74 169.999 834.682 169.941L830.182 165.419C830.124 165.36 830.078 165.291 830.047 165.215C830.016 165.14 830 165.058 830 164.976C830 164.894 830.017 164.813 830.048 164.737C830.08 164.661 830.126 164.593 830.185 164.535C830.243 164.477 830.312 164.431 830.388 164.4C830.464 164.369 830.545 164.353 830.627 164.353C830.709 164.353 830.79 164.37 830.866 164.401C830.942 164.433 831.01 164.479 831.068 164.537L835.159 168.648L845.219 160.026C845.344 159.918 845.508 159.865 845.673 159.878C845.838 159.89 845.992 159.968 846.099 160.094C846.207 160.22 846.261 160.383 846.248 160.548C846.235 160.713 846.157 160.867 846.032 160.975L835.532 169.974C835.419 170.072 835.274 170.125 835.125 170.125Z" fill="#27A17A"/>
<path d="M839.265 150.375C839.265 150.523 839.236 150.669 839.179 150.806C839.123 150.942 839.04 151.066 838.936 151.171C838.831 151.275 838.707 151.358 838.571 151.415C838.434 151.471 838.288 151.5 838.14 151.5C834.561 151.504 831.129 152.927 828.598 155.458C826.067 157.989 824.644 161.421 824.64 165C824.64 165.298 824.521 165.585 824.31 165.795C824.099 166.006 823.813 166.125 823.515 166.125C823.217 166.125 822.93 166.006 822.719 165.795C822.508 165.585 822.39 165.298 822.39 165C822.395 160.824 824.055 156.821 827.008 153.868C829.961 150.916 833.964 149.255 838.14 149.25C838.288 149.25 838.434 149.279 838.571 149.335C838.707 149.392 838.831 149.475 838.936 149.579C839.04 149.684 839.123 149.808 839.179 149.944C839.236 150.081 839.265 150.227 839.265 150.375Z" fill="#27A17A"/>
<path d="M852.75 163.88C852.602 163.88 852.456 163.909 852.319 163.965C852.183 164.022 852.059 164.105 851.954 164.209C851.85 164.314 851.767 164.438 851.71 164.574C851.654 164.711 851.625 164.857 851.625 165.005C851.621 168.584 850.198 172.016 847.667 174.547C845.136 177.077 841.704 178.501 838.125 178.505C837.827 178.505 837.54 178.623 837.33 178.834C837.119 179.045 837 179.332 837 179.63C837 179.928 837.119 180.214 837.33 180.425C837.54 180.636 837.827 180.755 838.125 180.755C842.301 180.75 846.304 179.089 849.257 176.137C852.209 173.184 853.87 169.181 853.875 165.005C853.875 164.857 853.846 164.711 853.79 164.574C853.733 164.438 853.65 164.314 853.546 164.209C853.441 164.105 853.317 164.022 853.181 163.965C853.044 163.909 852.898 163.88 852.75 163.88Z" fill="#27A17A"/>
<path d="M823.51 163.88C823.658 163.88 823.804 163.909 823.941 163.965C824.077 164.022 824.201 164.105 824.306 164.209C824.41 164.314 824.493 164.438 824.55 164.574C824.606 164.711 824.635 164.857 824.635 165.005C824.639 168.584 826.062 172.016 828.593 174.547C831.124 177.077 834.556 178.501 838.135 178.505C838.433 178.505 838.72 178.623 838.931 178.834C839.141 179.045 839.26 179.332 839.26 179.63C839.26 179.928 839.141 180.214 838.931 180.425C838.72 180.636 838.433 180.755 838.135 180.755C833.959 180.75 829.956 179.089 827.003 176.137C824.051 173.184 822.39 169.181 822.385 165.005C822.385 164.857 822.414 164.711 822.47 164.574C822.527 164.438 822.61 164.314 822.714 164.209C822.819 164.105 822.943 164.022 823.079 163.965C823.216 163.909 823.362 163.88 823.51 163.88Z" fill="#27A17A"/>
<path d="M989 150.375C989 150.523 989.029 150.669 989.085 150.806C989.142 150.942 989.225 151.066 989.329 151.171C989.434 151.275 989.558 151.358 989.694 151.415C989.831 151.471 989.977 151.5 990.125 151.5C993.704 151.504 997.136 152.927 999.667 155.458C1002.2 157.989 1003.62 161.421 1003.62 165C1003.62 165.298 1003.74 165.585 1003.95 165.795C1004.17 166.006 1004.45 166.125 1004.75 166.125C1005.05 166.125 1005.33 166.006 1005.55 165.795C1005.76 165.585 1005.87 165.298 1005.87 165C1005.87 160.824 1004.21 156.821 1001.26 153.868C998.304 150.916 994.301 149.255 990.125 149.25C989.977 149.25 989.831 149.279 989.694 149.335C989.558 149.392 989.434 149.475 989.329 149.579C989.225 149.684 989.142 149.808 989.085 149.944C989.029 150.081 989 150.227 989 150.375Z" fill="#F55868"/>
<path d="M990.125 173C990.832 173 991.405 172.427 991.405 171.72C991.405 171.013 990.832 170.44 990.125 170.44C989.418 170.44 988.845 171.013 988.845 171.72C988.845 172.427 989.418 173 990.125 173Z" fill="#F55868"/>
<path d="M990.125 167.88C990.38 167.88 990.624 167.779 990.804 167.599C990.984 167.419 991.085 167.175 991.085 166.92V157.96C991.085 157.705 990.984 157.461 990.804 157.281C990.624 157.101 990.38 157 990.125 157C989.871 157 989.626 157.101 989.446 157.281C989.266 157.461 989.165 157.705 989.165 157.96V166.92C989.165 167.175 989.267 167.419 989.447 167.599C989.627 167.779 989.871 167.88 990.125 167.88Z" fill="#F55868"/>
<path d="M991.265 150.375C991.265 150.523 991.236 150.669 991.18 150.806C991.123 150.942 991.04 151.066 990.936 151.171C990.831 151.275 990.707 151.358 990.571 151.415C990.434 151.471 990.288 151.5 990.14 151.5C986.561 151.504 983.129 152.927 980.599 155.458C978.068 157.989 976.644 161.421 976.64 165C976.64 165.298 976.522 165.585 976.311 165.795C976.1 166.006 975.814 166.125 975.515 166.125C975.217 166.125 974.931 166.006 974.72 165.795C974.509 165.585 974.39 165.298 974.39 165C974.395 160.824 976.056 156.821 979.008 153.868C981.961 150.916 985.964 149.255 990.14 149.25C990.288 149.25 990.434 149.279 990.571 149.335C990.707 149.392 990.831 149.475 990.936 149.579C991.04 149.684 991.123 149.808 991.18 149.944C991.236 150.081 991.265 150.227 991.265 150.375Z" fill="#F55868"/>
<path d="M1004.75 163.88C1004.6 163.88 1004.46 163.909 1004.32 163.965C1004.18 164.022 1004.06 164.105 1003.95 164.209C1003.85 164.314 1003.77 164.438 1003.71 164.574C1003.65 164.711 1003.62 164.857 1003.62 165.005C1003.62 168.584 1002.2 172.016 999.667 174.547C997.136 177.077 993.704 178.501 990.125 178.505C989.827 178.505 989.54 178.623 989.33 178.834C989.119 179.045 989 179.332 989 179.63C989 179.928 989.119 180.214 989.33 180.425C989.54 180.636 989.827 180.755 990.125 180.755C994.301 180.75 998.304 179.089 1001.26 176.137C1004.21 173.184 1005.87 169.181 1005.87 165.005C1005.88 164.857 1005.85 164.711 1005.79 164.574C1005.73 164.438 1005.65 164.314 1005.55 164.209C1005.44 164.105 1005.32 164.022 1005.18 163.965C1005.04 163.909 1004.9 163.88 1004.75 163.88Z" fill="#F55868"/>
<path d="M975.51 163.88C975.658 163.88 975.804 163.909 975.94 163.965C976.077 164.022 976.201 164.105 976.305 164.209C976.41 164.314 976.493 164.438 976.549 164.574C976.606 164.711 976.635 164.857 976.635 165.005C976.639 168.584 978.062 172.016 980.593 174.547C983.124 177.077 986.556 178.501 990.135 178.505C990.433 178.505 990.719 178.623 990.93 178.834C991.141 179.045 991.26 179.332 991.26 179.63C991.26 179.928 991.141 180.214 990.93 180.425C990.719 180.636 990.433 180.755 990.135 180.755C985.959 180.75 981.956 179.089 979.003 176.137C976.05 173.184 974.389 169.181 974.385 165.005C974.385 164.857 974.414 164.711 974.47 164.574C974.527 164.438 974.61 164.314 974.714 164.209C974.819 164.105 974.943 164.022 975.079 163.965C975.216 163.909 975.362 163.88 975.51 163.88Z" fill="#F55868"/>
</svg>
