<svg width="628" height="213" viewBox="0 0 628 213" fill="none" xmlns="http://www.w3.org/2000/svg">
<rect width="628" height="212.344" rx="24" fill="#262626"/>
<path d="M347.021 95.5469C346.817 95.547 346.616 95.5071 346.428 95.4294C346.241 95.3517 346.07 95.2377 345.926 95.0941C345.783 94.9504 345.669 94.7798 345.591 94.5921C345.513 94.4044 345.474 94.2032 345.474 94C345.474 97.6713 344.385 101.26 342.345 104.313C340.306 107.365 337.407 109.745 334.015 111.15C330.623 112.554 326.891 112.922 323.29 112.206C319.689 111.49 316.381 109.722 313.785 107.126C311.189 104.53 309.422 101.222 308.705 97.6214C307.989 94.0206 308.357 90.2883 309.762 86.8964C311.167 83.5046 313.546 80.6055 316.598 78.5658C319.651 76.5262 323.24 75.4375 326.911 75.4375C326.501 75.4375 326.107 75.2745 325.817 74.9844C325.527 74.6943 325.364 74.3009 325.364 73.8906C325.364 73.4804 325.527 73.0869 325.817 72.7968C326.107 72.5067 326.501 72.3438 326.911 72.3438C322.628 72.3437 318.441 73.6139 314.88 75.9935C311.318 78.3731 308.542 81.7554 306.903 85.7125C305.264 89.6697 304.835 94.024 305.671 98.2249C306.507 102.426 308.569 106.285 311.598 109.313C314.627 112.342 318.485 114.405 322.686 115.24C326.887 116.076 331.241 115.647 335.199 114.008C339.156 112.369 342.538 109.593 344.918 106.032C347.297 102.47 348.567 98.2832 348.567 94C348.568 94.2032 348.528 94.4044 348.45 94.5921C348.372 94.7798 348.258 94.9504 348.115 95.0941C347.971 95.2377 347.8 95.3517 347.613 95.4294C347.425 95.5071 347.224 95.547 347.021 95.5469Z" fill="#3B3B3B"/>
<path d="M325.364 73.8906C325.364 74.0938 325.404 74.295 325.482 74.4827C325.559 74.6705 325.673 74.841 325.817 74.9847C325.961 75.1284 326.131 75.2423 326.319 75.32C326.507 75.3977 326.708 75.4376 326.911 75.4375C331.833 75.4429 336.551 77.4003 340.031 80.8803C343.511 84.3602 345.468 89.0786 345.474 94C345.474 94.4103 345.637 94.8037 345.927 95.0938C346.217 95.3839 346.61 95.5469 347.021 95.5469C347.431 95.5469 347.824 95.3839 348.114 95.0938C348.404 94.8037 348.567 94.4103 348.567 94C348.561 88.2584 346.277 82.7538 342.217 78.6938C338.157 74.6339 332.653 72.3502 326.911 72.3438C326.708 72.3436 326.507 72.3836 326.319 72.4613C326.131 72.539 325.961 72.6529 325.817 72.7966C325.673 72.9402 325.559 73.1108 325.482 73.2985C325.404 73.4863 325.364 73.6875 325.364 73.8906Z" fill="#3492EB"/>
<path d="M347.02 92.46C346.817 92.4598 346.616 92.4998 346.428 92.5775C346.24 92.6552 346.07 92.7691 345.926 92.9128C345.783 93.0564 345.669 93.227 345.591 93.4147C345.513 93.6025 345.473 93.8037 345.473 94.0068C345.468 98.9283 343.511 103.647 340.031 107.127C336.551 110.607 331.832 112.564 326.911 112.569C326.501 112.569 326.107 112.732 325.817 113.022C325.527 113.312 325.364 113.706 325.364 114.116C325.364 114.526 325.527 114.92 325.817 115.21C326.107 115.5 326.501 115.663 326.911 115.663C332.653 115.657 338.157 113.373 342.217 109.313C346.277 105.253 348.561 99.7485 348.567 94.0068C348.567 93.8037 348.527 93.6025 348.45 93.4147C348.372 93.227 348.258 93.0564 348.114 92.9128C347.971 92.7691 347.8 92.6552 347.612 92.5775C347.425 92.4998 347.223 92.4598 347.02 92.46Z" fill="#3492EB"/>
<path d="M306.815 92.46C307.018 92.4598 307.22 92.4998 307.407 92.5775C307.595 92.6552 307.766 92.7691 307.909 92.9128C308.053 93.0564 308.167 93.227 308.245 93.4147C308.322 93.6025 308.362 93.8037 308.362 94.0068C308.367 98.9283 310.325 103.647 313.805 107.127C317.285 110.607 322.003 112.564 326.925 112.569C327.335 112.569 327.728 112.732 328.018 113.022C328.308 113.312 328.471 113.706 328.471 114.116C328.471 114.526 328.308 114.92 328.018 115.21C327.728 115.5 327.335 115.663 326.925 115.663C321.183 115.657 315.678 113.373 311.618 109.313C307.558 105.253 305.275 99.7485 305.268 94.0068C305.268 93.8037 305.308 93.6025 305.386 93.4147C305.464 93.227 305.577 93.0564 305.721 92.9128C305.865 92.7691 306.035 92.6552 306.223 92.5775C306.411 92.4998 306.612 92.4598 306.815 92.46Z" fill="#3492EB"/>
<g clip-path="url(#clip0_489_5466)">
<line x1="349.411" y1="137.368" x2="349.411" y2="122.368" stroke="#30C9B0"/>
<line x1="348.911" y1="129.868" x2="360.911" y2="129.868" stroke="#30C9B0"/>
<line x1="360.411" y1="137.368" x2="360.411" y2="122.368" stroke="#30C9B0"/>
</g>
<path d="M352.428 152.891V144.36H352.341L348.831 145.66V146.897L351.016 146.094V152.891H352.428ZM361.156 152.891V151.76H357.183L359.082 149.733C359.332 149.467 359.562 149.209 359.773 148.959C359.988 148.709 360.174 148.461 360.33 148.215C360.482 147.969 360.601 147.721 360.687 147.471C360.777 147.217 360.822 146.955 360.822 146.686C360.822 146.326 360.763 145.998 360.646 145.701C360.529 145.401 360.359 145.143 360.137 144.928C359.91 144.713 359.631 144.545 359.299 144.424C358.971 144.303 358.597 144.242 358.18 144.242C357.734 144.242 357.33 144.315 356.967 144.459C356.607 144.604 356.303 144.799 356.053 145.045C355.799 145.291 355.603 145.58 355.467 145.912C355.33 146.24 355.262 146.59 355.262 146.961H356.668C356.668 146.715 356.699 146.496 356.762 146.305C356.824 146.11 356.918 145.944 357.043 145.807C357.164 145.678 357.316 145.578 357.5 145.508C357.683 145.438 357.9 145.403 358.15 145.403C358.346 145.403 358.521 145.436 358.678 145.502C358.838 145.569 358.974 145.66 359.088 145.778C359.201 145.895 359.287 146.035 359.346 146.199C359.404 146.364 359.433 146.545 359.433 146.744C359.433 146.893 359.412 147.041 359.369 147.19C359.33 147.334 359.263 147.49 359.17 147.658C359.072 147.826 358.945 148.012 358.789 148.215C358.633 148.414 358.439 148.641 358.209 148.895L355.431 151.918V152.891H361.156Z" fill="#30C9B0"/>
<rect opacity="0.5" x="348.911" y="72.3438" width="12" height="44" fill="#30C9B0"/>
<rect opacity="0.5" x="304.911" y="60" width="44" height="12" fill="#30C9B0"/>
<g clip-path="url(#clip1_489_5466)">
<line x1="288.317" y1="60.5" x2="303.317" y2="60.5" stroke="#30C9B0"/>
<line x1="295.817" y1="73.5" x2="295.817" y2="61.5" stroke="#30C9B0"/>
<line x1="288.317" y1="71.5" x2="303.317" y2="71.5" stroke="#30C9B0"/>
</g>
<path d="M272.8 71H271.152V63.0703L268.603 64.0068V62.5645L272.697 61.0469H272.8V71ZM282.982 71H276.303V69.8652L279.544 66.3379C279.812 66.0417 280.038 65.7773 280.22 65.5449C280.403 65.3079 280.551 65.0915 280.665 64.8955C280.774 64.6995 280.852 64.5173 280.897 64.3486C280.947 64.1755 280.972 64.0023 280.972 63.8291C280.972 63.5967 280.938 63.3848 280.87 63.1934C280.801 63.002 280.701 62.8379 280.569 62.7012C280.437 62.5645 280.277 62.4574 280.09 62.3799C279.908 62.3024 279.703 62.2637 279.475 62.2637C279.184 62.2637 278.931 62.3047 278.716 62.3867C278.502 62.4688 278.325 62.585 278.183 62.7354C278.037 62.8949 277.928 63.0885 277.855 63.3164C277.782 63.5397 277.746 63.7949 277.746 64.082H276.105C276.105 63.6491 276.185 63.2412 276.344 62.8584C276.504 62.471 276.732 62.1338 277.028 61.8467C277.32 61.5596 277.675 61.3317 278.094 61.1631C278.518 60.9945 278.99 60.9102 279.509 60.9102C279.997 60.9102 280.432 60.9808 280.815 61.1221C281.202 61.2633 281.528 61.4593 281.793 61.71C282.052 61.9606 282.251 62.2614 282.387 62.6123C282.524 62.9587 282.592 63.3415 282.592 63.7607C282.592 64.0752 282.54 64.3805 282.435 64.6768C282.335 64.9684 282.196 65.2578 282.018 65.5449C281.836 65.832 281.619 66.1214 281.369 66.4131C281.123 66.7048 280.854 67.0055 280.562 67.3154L278.347 69.6807H282.982V71Z" fill="#30C9B0"/>
<defs>
<clipPath id="clip0_489_5466">
<rect width="12" height="15" fill="white" transform="translate(348.911 122.368)"/>
</clipPath>
<clipPath id="clip1_489_5466">
<rect width="15" height="12" fill="white" transform="translate(288.317 60)"/>
</clipPath>
</defs>
</svg>
