<svg width="638" height="250" viewBox="0 0 638 250" fill="none" xmlns="http://www.w3.org/2000/svg">
<rect width="638" height="250" rx="20" fill="#262626"/>
<path d="M351.907 127.531C351.574 127.531 351.245 127.466 350.938 127.339C350.63 127.212 350.351 127.025 350.116 126.79C349.881 126.555 349.695 126.276 349.568 125.969C349.44 125.662 349.375 125.332 349.375 125C349.375 131.008 347.594 136.88 344.256 141.875C340.919 146.871 336.175 150.764 330.624 153.063C325.074 155.362 318.967 155.963 313.074 154.791C307.182 153.619 301.77 150.726 297.522 146.478C293.274 142.23 290.381 136.818 289.209 130.926C288.037 125.034 288.638 118.926 290.937 113.376C293.236 107.826 297.13 103.082 302.125 99.7441C307.12 96.4065 312.993 94.625 319 94.625C318.329 94.625 317.685 94.3583 317.21 93.8836C316.736 93.4089 316.469 92.7651 316.469 92.0938C316.469 91.4224 316.736 90.7786 317.21 90.3039C317.685 89.8292 318.329 89.5625 319 89.5625C311.991 89.5625 305.14 91.6409 299.312 95.5348C293.485 99.4287 288.942 104.963 286.26 111.439C283.578 117.914 282.876 125.039 284.244 131.914C285.611 138.788 288.986 145.102 293.942 150.058C298.898 155.014 305.213 158.389 312.087 159.757C318.961 161.124 326.086 160.422 332.562 157.74C339.037 155.058 344.572 150.516 348.465 144.688C352.359 138.86 354.438 132.009 354.438 125C354.438 125.332 354.373 125.662 354.245 125.969C354.118 126.276 353.932 126.555 353.697 126.79C353.462 127.025 353.183 127.212 352.875 127.339C352.568 127.466 352.239 127.531 351.907 127.531Z" fill="#3B3B3B"/>
<path d="M316.469 92.0938C316.469 92.4262 316.534 92.7555 316.661 93.0626C316.788 93.3698 316.975 93.649 317.21 93.884C317.445 94.1191 317.724 94.3056 318.031 94.4327C318.339 94.5599 318.668 94.6252 319 94.625C327.053 94.6338 334.774 97.8368 340.469 103.531C346.163 109.226 349.366 116.947 349.375 125C349.375 125.671 349.642 126.315 350.117 126.79C350.591 127.265 351.235 127.531 351.906 127.531C352.578 127.531 353.222 127.265 353.696 126.79C354.171 126.315 354.438 125.671 354.438 125C354.427 115.605 350.69 106.597 344.047 99.9536C337.403 93.31 328.396 89.573 319 89.5625C318.668 89.5623 318.339 89.6276 318.031 89.7548C317.724 89.8819 317.445 90.0684 317.21 90.3035C316.975 90.5385 316.788 90.8177 316.661 91.1249C316.534 91.432 316.469 91.7613 316.469 92.0938Z" fill="#3492EB"/>
<path d="M351.906 122.48C351.574 122.48 351.245 122.545 350.937 122.672C350.63 122.799 350.351 122.986 350.116 123.221C349.881 123.456 349.694 123.735 349.567 124.042C349.44 124.35 349.375 124.679 349.375 125.011C349.366 133.064 346.163 140.785 340.469 146.48C334.774 152.174 327.053 155.377 319 155.386C318.329 155.386 317.685 155.653 317.21 156.128C316.735 156.602 316.469 157.246 316.469 157.917C316.469 158.589 316.735 159.233 317.21 159.707C317.685 160.182 318.329 160.449 319 160.449C328.395 160.438 337.403 156.701 344.046 150.058C350.69 143.414 354.427 134.407 354.437 125.011C354.438 124.679 354.372 124.35 354.245 124.042C354.118 123.735 353.932 123.456 353.697 123.221C353.461 122.986 353.182 122.799 352.875 122.672C352.568 122.545 352.239 122.48 351.906 122.48Z" fill="#3492EB"/>
<path d="M286.116 122.48C286.449 122.48 286.778 122.545 287.085 122.672C287.392 122.799 287.671 122.986 287.907 123.221C288.142 123.456 288.328 123.735 288.455 124.042C288.582 124.35 288.648 124.679 288.648 125.011C288.656 133.064 291.859 140.785 297.554 146.48C303.248 152.174 310.969 155.377 319.023 155.386C319.694 155.386 320.338 155.653 320.812 156.128C321.287 156.602 321.554 157.246 321.554 157.917C321.554 158.589 321.287 159.233 320.812 159.707C320.338 160.182 319.694 160.449 319.023 160.449C309.627 160.438 300.62 156.701 293.976 150.058C287.333 143.414 283.596 134.407 283.585 125.011C283.585 124.679 283.65 124.35 283.777 124.042C283.904 123.735 284.091 123.456 284.326 123.221C284.561 122.986 284.84 122.799 285.147 122.672C285.455 122.545 285.784 122.48 286.116 122.48Z" fill="#3492EB"/>
</svg>
