<svg width="370" height="156" viewBox="0 0 370 156" fill="none" xmlns="http://www.w3.org/2000/svg">
<rect width="370" height="156" rx="24" fill="#1A1A1A"/>
<path d="M214.313 54.5625C214.239 54.5625 214.165 54.548 214.097 54.5198C214.029 54.4915 213.967 54.4501 213.915 54.3978C213.862 54.3456 213.821 54.2836 213.793 54.2153C213.764 54.147 213.75 54.0739 213.75 54C213.75 55.335 213.354 56.6401 212.612 57.7501C211.871 58.8601 210.817 59.7253 209.583 60.2362C208.35 60.7471 206.993 60.8808 205.683 60.6203C204.374 60.3598 203.171 59.717 202.227 58.773C201.283 57.829 200.64 56.6262 200.38 55.3169C200.119 54.0075 200.253 52.6503 200.764 51.4169C201.275 50.1835 202.14 49.1293 203.25 48.3876C204.36 47.6459 205.665 47.25 207 47.25C206.851 47.25 206.708 47.1907 206.602 47.0852C206.497 46.9798 206.438 46.8367 206.438 46.6875C206.438 46.5383 206.497 46.3952 206.602 46.2898C206.708 46.1843 206.851 46.125 207 46.125C205.442 46.125 203.92 46.5869 202.625 47.4522C201.33 48.3175 200.32 49.5474 199.724 50.9864C199.128 52.4253 198.972 54.0087 199.276 55.5363C199.58 57.0639 200.33 58.4671 201.432 59.5685C202.533 60.6698 203.936 61.4198 205.464 61.7237C206.991 62.0275 208.575 61.8716 210.014 61.2756C211.453 60.6795 212.683 59.6702 213.548 58.3751C214.413 57.0801 214.875 55.5575 214.875 54C214.875 54.0739 214.861 54.147 214.832 54.2153C214.804 54.2836 214.763 54.3456 214.71 54.3978C214.658 54.4501 214.596 54.4915 214.528 54.5198C214.46 54.548 214.386 54.5625 214.313 54.5625Z" fill="#3B3B3B"/>
<path d="M206.438 46.6875C206.437 46.7614 206.452 46.8345 206.48 46.9028C206.508 46.9711 206.55 47.0331 206.602 47.0853C206.654 47.1376 206.716 47.179 206.785 47.2073C206.853 47.2355 206.926 47.25 207 47.25C208.79 47.252 210.505 47.9637 211.771 49.2292C213.036 50.4946 213.748 52.2104 213.75 54C213.75 54.1492 213.809 54.2923 213.915 54.3977C214.02 54.5032 214.163 54.5625 214.312 54.5625C214.462 54.5625 214.605 54.5032 214.71 54.3977C214.816 54.2923 214.875 54.1492 214.875 54C214.873 51.9121 214.042 49.9105 212.566 48.4341C211.09 46.9578 209.088 46.1273 207 46.125C206.926 46.125 206.853 46.1395 206.785 46.1677C206.716 46.196 206.654 46.2374 206.602 46.2897C206.55 46.3419 206.508 46.4039 206.48 46.4722C206.452 46.5405 206.437 46.6136 206.438 46.6875Z" fill="#3492EB"/>
<path d="M214.312 53.4399C214.239 53.4399 214.165 53.4544 214.097 53.4827C214.029 53.5109 213.967 53.5524 213.915 53.6046C213.862 53.6568 213.821 53.7189 213.793 53.7871C213.764 53.8554 213.75 53.9286 213.75 54.0024C213.748 55.7921 213.036 57.5078 211.771 58.7733C210.505 60.0387 208.79 60.7505 207 60.7524C206.851 60.7524 206.708 60.8117 206.602 60.9172C206.497 61.0227 206.437 61.1658 206.437 61.3149C206.437 61.4641 206.497 61.6072 206.602 61.7127C206.708 61.8182 206.851 61.8774 207 61.8774C209.088 61.8751 211.09 61.0447 212.566 59.5683C214.042 58.092 214.873 56.0903 214.875 54.0024C214.875 53.9286 214.861 53.8554 214.832 53.7871C214.804 53.7189 214.763 53.6568 214.71 53.6046C214.658 53.5524 214.596 53.5109 214.528 53.4827C214.46 53.4544 214.386 53.4399 214.312 53.4399Z" fill="#3492EB"/>
<path d="M199.692 53.4399C199.766 53.4399 199.839 53.4544 199.908 53.4827C199.976 53.5109 200.038 53.5524 200.09 53.6046C200.142 53.6568 200.184 53.7189 200.212 53.7871C200.24 53.8554 200.255 53.9286 200.255 54.0024C200.257 55.7921 200.969 57.5078 202.234 58.7733C203.5 60.0387 205.215 60.7505 207.005 60.7524C207.154 60.7524 207.297 60.8117 207.403 60.9172C207.508 61.0227 207.567 61.1658 207.567 61.3149C207.567 61.4641 207.508 61.6072 207.403 61.7127C207.297 61.8182 207.154 61.8774 207.005 61.8774C204.917 61.8751 202.915 61.0447 201.439 59.5683C199.963 58.092 199.132 56.0903 199.13 54.0024C199.13 53.9286 199.144 53.8554 199.173 53.7871C199.201 53.7189 199.242 53.6568 199.295 53.6046C199.347 53.5524 199.409 53.5109 199.477 53.4827C199.545 53.4544 199.619 53.4399 199.692 53.4399Z" fill="#3492EB"/>
<g clip-path="url(#clip0_489_5422)">
<line x1="215.5" y1="97.4775" x2="215.5" y2="82.4775" stroke="#30C9B0"/>
<line x1="215" y1="89.9775" x2="217" y2="89.9775" stroke="#30C9B0"/>
<line x1="216.5" y1="97.4775" x2="216.5" y2="82.4775" stroke="#30C9B0"/>
</g>
<path d="M218.736 113V111.869H214.764L216.662 109.842C216.912 109.576 217.143 109.318 217.354 109.068C217.568 108.818 217.754 108.57 217.91 108.324C218.062 108.078 218.182 107.83 218.268 107.58C218.357 107.326 218.402 107.064 218.402 106.795C218.402 106.436 218.344 106.107 218.227 105.811C218.109 105.51 217.939 105.252 217.717 105.037C217.49 104.822 217.211 104.654 216.879 104.533C216.551 104.412 216.178 104.352 215.76 104.352C215.314 104.352 214.91 104.424 214.547 104.568C214.188 104.713 213.883 104.908 213.633 105.154C213.379 105.4 213.184 105.689 213.047 106.021C212.91 106.35 212.842 106.699 212.842 107.07H214.248C214.248 106.824 214.279 106.605 214.342 106.414C214.404 106.219 214.498 106.053 214.623 105.916C214.744 105.787 214.896 105.688 215.08 105.617C215.264 105.547 215.48 105.512 215.73 105.512C215.926 105.512 216.102 105.545 216.258 105.611C216.418 105.678 216.555 105.77 216.668 105.887C216.781 106.004 216.867 106.145 216.926 106.309C216.984 106.473 217.014 106.654 217.014 106.854C217.014 107.002 216.992 107.15 216.949 107.299C216.91 107.443 216.844 107.6 216.75 107.768C216.652 107.936 216.525 108.121 216.369 108.324C216.213 108.523 216.02 108.75 215.789 109.004L213.012 112.027V113H218.736Z" fill="#30C9B0"/>
<rect opacity="0.5" x="215" y="46" width="2" height="32" fill="#30C9B0"/>
<rect opacity="0.5" x="185" y="44" width="32" height="2" fill="#30C9B0"/>
<g clip-path="url(#clip1_489_5422)">
<line x1="166" y1="44.5" x2="181" y2="44.5" stroke="#30C9B0"/>
<line x1="173.5" y1="46.25" x2="173.5" y2="44.25" stroke="#30C9B0"/>
<line x1="166" y1="45.5" x2="181" y2="45.5" stroke="#30C9B0"/>
</g>
<path d="M162.396 50V48.6807H157.762L159.977 46.3154C160.268 46.0055 160.537 45.7048 160.783 45.4131C161.034 45.1214 161.25 44.832 161.433 44.5449C161.61 44.2578 161.749 43.9684 161.85 43.6768C161.954 43.3805 162.007 43.0752 162.007 42.7607C162.007 42.3415 161.938 41.9587 161.802 41.6123C161.665 41.2614 161.467 40.9606 161.207 40.71C160.943 40.4593 160.617 40.2633 160.229 40.1221C159.847 39.9808 159.411 39.9102 158.924 39.9102C158.404 39.9102 157.933 39.9945 157.509 40.1631C157.09 40.3317 156.734 40.5596 156.442 40.8467C156.146 41.1338 155.918 41.471 155.759 41.8584C155.599 42.2412 155.52 42.6491 155.52 43.082H157.16C157.16 42.7949 157.197 42.5397 157.27 42.3164C157.342 42.0885 157.452 41.8949 157.598 41.7354C157.739 41.585 157.917 41.4688 158.131 41.3867C158.345 41.3047 158.598 41.2637 158.89 41.2637C159.118 41.2637 159.323 41.3024 159.505 41.3799C159.692 41.4574 159.851 41.5645 159.983 41.7012C160.116 41.8379 160.216 42.002 160.284 42.1934C160.353 42.3848 160.387 42.5967 160.387 42.8291C160.387 43.0023 160.362 43.1755 160.312 43.3486C160.266 43.5173 160.188 43.6995 160.079 43.8955C159.965 44.0915 159.817 44.3079 159.635 44.5449C159.452 44.7773 159.227 45.0417 158.958 45.3379L155.718 48.8652V50H162.396Z" fill="#30C9B0"/>
<defs>
<clipPath id="clip0_489_5422">
<rect width="2" height="15" fill="white" transform="translate(215 82.4775)"/>
</clipPath>
<clipPath id="clip1_489_5422">
<rect width="15" height="2" fill="white" transform="translate(166 44)"/>
</clipPath>
</defs>
</svg>
