<svg width="768" height="250" viewBox="0 0 768 250" fill="none" xmlns="http://www.w3.org/2000/svg">
<rect width="768" height="250" rx="24" fill="#262626"/>
<path d="M284.625 126.125C284.477 126.125 284.331 126.096 284.194 126.04C284.058 125.983 283.934 125.9 283.829 125.796C283.725 125.691 283.642 125.567 283.585 125.431C283.529 125.294 283.5 125.148 283.5 125C283.5 127.67 282.708 130.28 281.225 132.5C279.741 134.72 277.633 136.451 275.166 137.472C272.699 138.494 269.985 138.762 267.366 138.241C264.748 137.72 262.342 136.434 260.454 134.546C258.566 132.658 257.28 130.252 256.759 127.634C256.239 125.015 256.506 122.301 257.528 119.834C258.549 117.367 260.28 115.259 262.5 113.775C264.72 112.292 267.33 111.5 270 111.5C269.702 111.5 269.415 111.381 269.205 111.17C268.994 110.96 268.875 110.673 268.875 110.375C268.875 110.077 268.994 109.79 269.205 109.58C269.415 109.369 269.702 109.25 270 109.25C266.885 109.25 263.84 110.174 261.25 111.904C258.66 113.635 256.641 116.095 255.449 118.973C254.257 121.851 253.945 125.017 254.553 128.073C255.16 131.128 256.66 133.934 258.863 136.137C261.066 138.34 263.872 139.84 266.927 140.447C269.983 141.055 273.149 140.743 276.027 139.551C278.905 138.359 281.365 136.34 283.096 133.75C284.826 131.16 285.75 128.115 285.75 125C285.75 125.148 285.721 125.294 285.665 125.431C285.608 125.567 285.525 125.691 285.421 125.796C285.316 125.9 285.192 125.983 285.056 126.04C284.919 126.096 284.773 126.125 284.625 126.125Z" fill="#3B3B3B"/>
<path d="M268.875 110.375C268.875 110.523 268.904 110.669 268.96 110.806C269.017 110.942 269.1 111.066 269.204 111.171C269.309 111.275 269.433 111.358 269.569 111.415C269.706 111.471 269.852 111.5 270 111.5C273.579 111.504 277.011 112.927 279.542 115.458C282.073 117.989 283.496 121.421 283.5 125C283.5 125.298 283.619 125.585 283.83 125.795C284.04 126.006 284.327 126.125 284.625 126.125C284.923 126.125 285.21 126.006 285.42 125.795C285.631 125.585 285.75 125.298 285.75 125C285.745 120.824 284.084 116.821 281.132 113.868C278.179 110.916 274.176 109.255 270 109.25C269.852 109.25 269.706 109.279 269.569 109.335C269.433 109.392 269.309 109.475 269.204 109.579C269.1 109.684 269.017 109.808 268.96 109.944C268.904 110.081 268.875 110.227 268.875 110.375Z" fill="#3492EB"/>
<path d="M360.625 126.125C360.477 126.125 360.331 126.096 360.194 126.04C360.058 125.983 359.934 125.9 359.829 125.796C359.725 125.691 359.642 125.567 359.585 125.431C359.529 125.294 359.5 125.148 359.5 125C359.5 127.67 358.708 130.28 357.225 132.5C355.741 134.72 353.633 136.451 351.166 137.472C348.699 138.494 345.985 138.762 343.366 138.241C340.748 137.72 338.342 136.434 336.454 134.546C334.566 132.658 333.28 130.252 332.759 127.634C332.239 125.015 332.506 122.301 333.528 119.834C334.549 117.367 336.28 115.259 338.5 113.775C340.72 112.292 343.33 111.5 346 111.5C345.702 111.5 345.415 111.381 345.205 111.17C344.994 110.96 344.875 110.673 344.875 110.375C344.875 110.077 344.994 109.79 345.205 109.58C345.415 109.369 345.702 109.25 346 109.25C342.885 109.25 339.84 110.174 337.25 111.904C334.66 113.635 332.641 116.095 331.449 118.973C330.257 121.851 329.945 125.017 330.553 128.073C331.16 131.128 332.66 133.934 334.863 136.137C337.066 138.34 339.872 139.84 342.927 140.447C345.983 141.055 349.149 140.743 352.027 139.551C354.905 138.359 357.365 136.34 359.096 133.75C360.826 131.16 361.75 128.115 361.75 125C361.75 125.148 361.721 125.294 361.665 125.431C361.608 125.567 361.525 125.691 361.421 125.796C361.316 125.9 361.192 125.983 361.056 126.04C360.919 126.096 360.773 126.125 360.625 126.125Z" fill="#3B3B3B"/>
<path d="M344.875 110.375C344.875 110.523 344.904 110.669 344.96 110.806C345.017 110.942 345.1 111.066 345.204 111.171C345.309 111.275 345.433 111.358 345.569 111.415C345.706 111.471 345.852 111.5 346 111.5C349.579 111.504 353.011 112.927 355.542 115.458C358.073 117.989 359.496 121.421 359.5 125C359.5 125.298 359.619 125.585 359.83 125.795C360.04 126.006 360.327 126.125 360.625 126.125C360.923 126.125 361.21 126.006 361.42 125.795C361.631 125.585 361.75 125.298 361.75 125C361.745 120.824 360.084 116.821 357.132 113.868C354.179 110.916 350.176 109.255 346 109.25C345.852 109.25 345.706 109.279 345.569 109.335C345.433 109.392 345.309 109.475 345.204 109.579C345.1 109.684 345.017 109.808 344.96 109.944C344.904 110.081 344.875 110.227 344.875 110.375Z" fill="#3492EB"/>
<path d="M360.625 123.88C360.477 123.88 360.331 123.909 360.194 123.965C360.058 124.022 359.934 124.105 359.829 124.209C359.725 124.314 359.642 124.438 359.585 124.574C359.529 124.711 359.5 124.857 359.5 125.005C359.496 128.584 358.073 132.016 355.542 134.547C353.011 137.077 349.579 138.501 346 138.505C345.702 138.505 345.415 138.623 345.205 138.834C344.994 139.045 344.875 139.332 344.875 139.63C344.875 139.928 344.994 140.214 345.205 140.425C345.415 140.636 345.702 140.755 346 140.755C350.176 140.75 354.179 139.089 357.132 136.137C360.084 133.184 361.745 129.181 361.75 125.005C361.75 124.857 361.721 124.711 361.665 124.574C361.608 124.438 361.525 124.314 361.421 124.209C361.316 124.105 361.192 124.022 361.056 123.965C360.919 123.909 360.773 123.88 360.625 123.88Z" fill="#3492EB"/>
<path d="M331.385 123.88C331.533 123.88 331.679 123.909 331.815 123.965C331.952 124.022 332.076 124.105 332.18 124.209C332.285 124.314 332.368 124.438 332.424 124.574C332.481 124.711 332.51 124.857 332.51 125.005C332.514 128.584 333.937 132.016 336.468 134.547C338.999 137.077 342.431 138.501 346.01 138.505C346.308 138.505 346.594 138.623 346.805 138.834C347.016 139.045 347.135 139.332 347.135 139.63C347.135 139.928 347.016 140.214 346.805 140.425C346.594 140.636 346.308 140.755 346.01 140.755C341.834 140.75 337.831 139.089 334.878 136.137C331.925 133.184 330.264 129.181 330.26 125.005C330.26 124.857 330.289 124.711 330.345 124.574C330.402 124.438 330.485 124.314 330.589 124.209C330.694 124.105 330.818 124.022 330.954 123.965C331.091 123.909 331.237 123.88 331.385 123.88Z" fill="#3492EB"/>
<path d="M420.875 110.375C420.875 110.523 420.904 110.669 420.96 110.806C421.017 110.942 421.1 111.066 421.204 111.171C421.309 111.275 421.433 111.358 421.569 111.415C421.706 111.471 421.852 111.5 422 111.5C425.579 111.504 429.011 112.927 431.542 115.458C434.073 117.989 435.496 121.421 435.5 125C435.5 125.298 435.619 125.585 435.83 125.795C436.04 126.006 436.327 126.125 436.625 126.125C436.923 126.125 437.21 126.006 437.42 125.795C437.631 125.585 437.75 125.298 437.75 125C437.745 120.824 436.084 116.821 433.132 113.868C430.179 110.916 426.176 109.255 422 109.25C421.852 109.25 421.706 109.279 421.569 109.335C421.433 109.392 421.309 109.475 421.204 109.579C421.1 109.684 421.017 109.808 420.96 109.944C420.904 110.081 420.875 110.227 420.875 110.375Z" fill="#27A17A"/>
<path d="M419 130.125C418.918 130.125 418.836 130.109 418.76 130.077C418.684 130.046 418.615 129.999 418.557 129.941L414.057 125.419C413.999 125.36 413.953 125.291 413.922 125.215C413.891 125.14 413.875 125.058 413.875 124.976C413.875 124.894 413.892 124.813 413.923 124.737C413.955 124.661 414.001 124.593 414.059 124.535C414.117 124.477 414.186 124.431 414.262 124.4C414.338 124.369 414.42 124.353 414.502 124.353C414.584 124.353 414.665 124.37 414.741 124.401C414.816 124.433 414.885 124.479 414.943 124.537L419.034 128.648L429.093 120.026C429.219 119.918 429.383 119.865 429.548 119.878C429.713 119.89 429.866 119.968 429.974 120.094C430.082 120.22 430.135 120.383 430.123 120.548C430.11 120.713 430.032 120.867 429.906 120.975L419.407 129.974C419.294 130.072 419.149 130.125 419 130.125Z" fill="#27A17A"/>
<path d="M423.14 110.375C423.14 110.523 423.111 110.669 423.054 110.806C422.998 110.942 422.915 111.066 422.811 111.171C422.706 111.275 422.582 111.358 422.446 111.415C422.309 111.471 422.163 111.5 422.015 111.5C418.436 111.504 415.004 112.927 412.473 115.458C409.942 117.989 408.519 121.421 408.515 125C408.515 125.298 408.396 125.585 408.185 125.795C407.974 126.006 407.688 126.125 407.39 126.125C407.092 126.125 406.805 126.006 406.594 125.795C406.383 125.585 406.265 125.298 406.265 125C406.27 120.824 407.93 116.821 410.883 113.868C413.836 110.916 417.839 109.255 422.015 109.25C422.163 109.25 422.309 109.279 422.446 109.335C422.582 109.392 422.706 109.475 422.811 109.579C422.915 109.684 422.998 109.808 423.054 109.944C423.111 110.081 423.14 110.227 423.14 110.375Z" fill="#27A17A"/>
<path d="M436.625 123.88C436.477 123.88 436.331 123.909 436.194 123.965C436.058 124.022 435.934 124.105 435.829 124.209C435.725 124.314 435.642 124.438 435.585 124.574C435.529 124.711 435.5 124.857 435.5 125.005C435.496 128.584 434.073 132.016 431.542 134.547C429.011 137.077 425.579 138.501 422 138.505C421.702 138.505 421.415 138.623 421.205 138.834C420.994 139.045 420.875 139.332 420.875 139.63C420.875 139.928 420.994 140.214 421.205 140.425C421.415 140.636 421.702 140.755 422 140.755C426.176 140.75 430.179 139.089 433.132 136.137C436.084 133.184 437.745 129.181 437.75 125.005C437.75 124.857 437.721 124.711 437.665 124.574C437.608 124.438 437.525 124.314 437.421 124.209C437.316 124.105 437.192 124.022 437.056 123.965C436.919 123.909 436.773 123.88 436.625 123.88Z" fill="#27A17A"/>
<path d="M407.385 123.88C407.533 123.88 407.679 123.909 407.815 123.965C407.952 124.022 408.076 124.105 408.18 124.209C408.285 124.314 408.368 124.438 408.424 124.574C408.481 124.711 408.51 124.857 408.51 125.005C408.514 128.584 409.937 132.016 412.468 134.547C414.999 137.077 418.431 138.501 422.01 138.505C422.308 138.505 422.594 138.623 422.805 138.834C423.016 139.045 423.135 139.332 423.135 139.63C423.135 139.928 423.016 140.214 422.805 140.425C422.594 140.636 422.308 140.755 422.01 140.755C417.834 140.75 413.831 139.089 410.878 136.137C407.925 133.184 406.264 129.181 406.26 125.005C406.26 124.857 406.289 124.711 406.345 124.574C406.402 124.438 406.485 124.314 406.589 124.209C406.694 124.105 406.818 124.022 406.954 123.965C407.091 123.909 407.237 123.88 407.385 123.88Z" fill="#27A17A"/>
<path d="M496.875 110.375C496.875 110.523 496.904 110.669 496.96 110.806C497.017 110.942 497.1 111.066 497.204 111.171C497.309 111.275 497.433 111.358 497.569 111.415C497.706 111.471 497.852 111.5 498 111.5C501.579 111.504 505.011 112.927 507.542 115.458C510.073 117.989 511.496 121.421 511.5 125C511.5 125.298 511.619 125.585 511.83 125.795C512.04 126.006 512.327 126.125 512.625 126.125C512.923 126.125 513.21 126.006 513.42 125.795C513.631 125.585 513.75 125.298 513.75 125C513.745 120.824 512.084 116.821 509.132 113.868C506.179 110.916 502.176 109.255 498 109.25C497.852 109.25 497.706 109.279 497.569 109.335C497.433 109.392 497.309 109.475 497.204 109.579C497.1 109.684 497.017 109.808 496.96 109.944C496.904 110.081 496.875 110.227 496.875 110.375Z" fill="#F55868"/>
<path d="M498 133C498.707 133 499.28 132.427 499.28 131.72C499.28 131.013 498.707 130.44 498 130.44C497.293 130.44 496.72 131.013 496.72 131.72C496.72 132.427 497.293 133 498 133Z" fill="#F55868"/>
<path d="M498 127.88C498.255 127.88 498.499 127.779 498.679 127.599C498.859 127.419 498.96 127.175 498.96 126.92V117.96C498.96 117.705 498.859 117.461 498.679 117.281C498.499 117.101 498.255 117 498 117C497.746 117 497.501 117.101 497.321 117.281C497.141 117.461 497.04 117.705 497.04 117.96V126.92C497.04 127.175 497.142 127.419 497.322 127.599C497.502 127.779 497.746 127.88 498 127.88Z" fill="#F55868"/>
<path d="M499.14 110.375C499.14 110.523 499.111 110.669 499.055 110.806C498.998 110.942 498.915 111.066 498.811 111.171C498.706 111.275 498.582 111.358 498.446 111.415C498.309 111.471 498.163 111.5 498.015 111.5C494.436 111.504 491.004 112.927 488.474 115.458C485.943 117.989 484.519 121.421 484.515 125C484.515 125.298 484.397 125.585 484.186 125.795C483.975 126.006 483.689 126.125 483.39 126.125C483.092 126.125 482.806 126.006 482.595 125.795C482.384 125.585 482.265 125.298 482.265 125C482.27 120.824 483.931 116.821 486.883 113.868C489.836 110.916 493.839 109.255 498.015 109.25C498.163 109.25 498.309 109.279 498.446 109.335C498.582 109.392 498.706 109.475 498.811 109.579C498.915 109.684 498.998 109.808 499.055 109.944C499.111 110.081 499.14 110.227 499.14 110.375Z" fill="#F55868"/>
<path d="M512.625 123.88C512.477 123.88 512.331 123.909 512.194 123.965C512.058 124.022 511.934 124.105 511.829 124.209C511.725 124.314 511.642 124.438 511.585 124.574C511.529 124.711 511.5 124.857 511.5 125.005C511.496 128.584 510.073 132.016 507.542 134.547C505.011 137.077 501.579 138.501 498 138.505C497.702 138.505 497.415 138.623 497.205 138.834C496.994 139.045 496.875 139.332 496.875 139.63C496.875 139.928 496.994 140.214 497.205 140.425C497.415 140.636 497.702 140.755 498 140.755C502.176 140.75 506.179 139.089 509.132 136.137C512.084 133.184 513.745 129.181 513.75 125.005C513.75 124.857 513.721 124.711 513.665 124.574C513.608 124.438 513.525 124.314 513.421 124.209C513.316 124.105 513.192 124.022 513.056 123.965C512.919 123.909 512.773 123.88 512.625 123.88Z" fill="#F55868"/>
<path d="M483.385 123.88C483.533 123.88 483.679 123.909 483.815 123.965C483.952 124.022 484.076 124.105 484.18 124.209C484.285 124.314 484.368 124.438 484.424 124.574C484.481 124.711 484.51 124.857 484.51 125.005C484.514 128.584 485.937 132.016 488.468 134.547C490.999 137.077 494.431 138.501 498.01 138.505C498.308 138.505 498.594 138.623 498.805 138.834C499.016 139.045 499.135 139.332 499.135 139.63C499.135 139.928 499.016 140.214 498.805 140.425C498.594 140.636 498.308 140.755 498.01 140.755C493.834 140.75 489.831 139.089 486.878 136.137C483.925 133.184 482.264 129.181 482.26 125.005C482.26 124.857 482.289 124.711 482.345 124.574C482.402 124.438 482.485 124.314 482.589 124.209C482.694 124.105 482.818 124.022 482.954 123.965C483.091 123.909 483.237 123.88 483.385 123.88Z" fill="#F55868"/>
</svg>
