<svg width="424" height="320" viewBox="0 0 424 320" fill="none" xmlns="http://www.w3.org/2000/svg">
<rect width="424" height="320" rx="20" fill="#262626"/>
<path d="M244.907 162.531C244.574 162.531 244.245 162.466 243.938 162.339C243.63 162.212 243.351 162.025 243.116 161.79C242.881 161.555 242.695 161.276 242.568 160.969C242.44 160.662 242.375 160.332 242.375 160C242.375 166.008 240.594 171.88 237.256 176.875C233.919 181.871 229.175 185.764 223.624 188.063C218.074 190.362 211.967 190.963 206.074 189.791C200.182 188.619 194.77 185.726 190.522 181.478C186.274 177.23 183.381 171.818 182.209 165.926C181.037 160.034 181.638 153.926 183.937 148.376C186.236 142.826 190.13 138.082 195.125 134.744C200.12 131.406 205.993 129.625 212 129.625C211.329 129.625 210.685 129.358 210.21 128.884C209.736 128.409 209.469 127.765 209.469 127.094C209.469 126.422 209.736 125.779 210.21 125.304C210.685 124.829 211.329 124.562 212 124.562C204.991 124.562 198.14 126.641 192.312 130.535C186.485 134.429 181.942 139.963 179.26 146.439C176.578 152.914 175.876 160.039 177.244 166.914C178.611 173.788 181.986 180.102 186.942 185.058C191.898 190.014 198.213 193.389 205.087 194.757C211.961 196.124 219.086 195.422 225.562 192.74C232.037 190.058 237.572 185.516 241.465 179.688C245.359 173.86 247.438 167.009 247.438 160C247.438 160.332 247.373 160.662 247.245 160.969C247.118 161.276 246.932 161.555 246.697 161.79C246.462 162.025 246.183 162.212 245.875 162.339C245.568 162.466 245.239 162.531 244.907 162.531Z" fill="#3B3B3B"/>
<path d="M209.469 127.094C209.469 127.426 209.534 127.755 209.661 128.063C209.788 128.37 209.975 128.649 210.21 128.884C210.445 129.119 210.724 129.306 211.031 129.433C211.339 129.56 211.668 129.625 212 129.625C220.053 129.634 227.774 132.837 233.469 138.531C239.163 144.226 242.366 151.947 242.375 160C242.375 160.671 242.642 161.315 243.117 161.79C243.591 162.265 244.235 162.531 244.906 162.531C245.578 162.531 246.222 162.265 246.696 161.79C247.171 161.315 247.438 160.671 247.438 160C247.427 150.605 243.69 141.597 237.047 134.954C230.403 128.31 221.396 124.573 212 124.563C211.668 124.562 211.339 124.628 211.031 124.755C210.724 124.882 210.445 125.068 210.21 125.303C209.975 125.539 209.788 125.818 209.661 126.125C209.534 126.432 209.469 126.761 209.469 127.094Z" fill="#3492EB"/>
<path d="M244.906 157.48C244.574 157.48 244.245 157.545 243.937 157.672C243.63 157.799 243.351 157.986 243.116 158.221C242.881 158.456 242.694 158.735 242.567 159.042C242.44 159.35 242.375 159.679 242.375 160.011C242.366 168.064 239.163 175.785 233.469 181.48C227.774 187.174 220.053 190.377 212 190.386C211.329 190.386 210.685 190.653 210.21 191.128C209.735 191.602 209.469 192.246 209.469 192.917C209.469 193.589 209.735 194.233 210.21 194.707C210.685 195.182 211.329 195.449 212 195.449C221.395 195.438 230.403 191.701 237.046 185.058C243.69 178.414 247.427 169.407 247.437 160.011C247.438 159.679 247.372 159.35 247.245 159.042C247.118 158.735 246.932 158.456 246.697 158.221C246.461 157.986 246.182 157.799 245.875 157.672C245.568 157.545 245.239 157.48 244.906 157.48Z" fill="#3492EB"/>
<path d="M179.116 157.48C179.449 157.48 179.778 157.545 180.085 157.672C180.392 157.799 180.671 157.986 180.907 158.221C181.142 158.456 181.328 158.735 181.455 159.042C181.582 159.35 181.648 159.679 181.648 160.011C181.656 168.064 184.859 175.785 190.554 181.48C196.248 187.174 203.969 190.377 212.023 190.386C212.694 190.386 213.338 190.653 213.812 191.128C214.287 191.602 214.554 192.246 214.554 192.917C214.554 193.589 214.287 194.233 213.812 194.707C213.338 195.182 212.694 195.449 212.023 195.449C202.627 195.438 193.62 191.701 186.976 185.058C180.333 178.414 176.596 169.407 176.585 160.011C176.585 159.679 176.65 159.35 176.777 159.042C176.904 158.735 177.091 158.456 177.326 158.221C177.561 157.986 177.84 157.799 178.147 157.672C178.455 157.545 178.784 157.48 179.116 157.48Z" fill="#3492EB"/>
</svg>
