<svg width="1150" height="232" viewBox="0 0 1150 232" fill="none" xmlns="http://www.w3.org/2000/svg">
<rect width="1150" height="232" rx="24" fill="#262626"/>
<path d="M475.625 117.125C475.477 117.125 475.331 117.096 475.194 117.04C475.058 116.983 474.934 116.9 474.829 116.796C474.725 116.691 474.642 116.567 474.585 116.431C474.529 116.294 474.5 116.148 474.5 116C474.5 118.67 473.708 121.28 472.225 123.5C470.741 125.72 468.633 127.451 466.166 128.472C463.699 129.494 460.985 129.762 458.366 129.241C455.748 128.72 453.342 127.434 451.454 125.546C449.566 123.658 448.28 121.252 447.759 118.634C447.239 116.015 447.506 113.301 448.528 110.834C449.549 108.367 451.28 106.259 453.5 104.775C455.72 103.292 458.33 102.5 461 102.5C460.702 102.5 460.415 102.381 460.205 102.17C459.994 101.96 459.875 101.673 459.875 101.375C459.875 101.077 459.994 100.79 460.205 100.58C460.415 100.369 460.702 100.25 461 100.25C457.885 100.25 454.84 101.174 452.25 102.904C449.66 104.635 447.641 107.095 446.449 109.973C445.257 112.851 444.945 116.017 445.553 119.073C446.16 122.128 447.66 124.934 449.863 127.137C452.066 129.34 454.872 130.84 457.927 131.447C460.983 132.055 464.149 131.743 467.027 130.551C469.905 129.359 472.365 127.34 474.096 124.75C475.826 122.16 476.75 119.115 476.75 116C476.75 116.148 476.721 116.294 476.665 116.431C476.608 116.567 476.525 116.691 476.421 116.796C476.316 116.9 476.192 116.983 476.056 117.04C475.919 117.096 475.773 117.125 475.625 117.125Z" fill="white" fill-opacity="0.2"/>
<path d="M459.875 101.375C459.875 101.523 459.904 101.669 459.96 101.806C460.017 101.942 460.1 102.066 460.204 102.171C460.309 102.275 460.433 102.358 460.569 102.415C460.706 102.471 460.852 102.5 461 102.5C464.579 102.504 468.011 103.927 470.542 106.458C473.073 108.989 474.496 112.421 474.5 116C474.5 116.298 474.619 116.585 474.83 116.795C475.04 117.006 475.327 117.125 475.625 117.125C475.923 117.125 476.21 117.006 476.42 116.795C476.631 116.585 476.75 116.298 476.75 116C476.745 111.824 475.084 107.821 472.132 104.868C469.179 101.916 465.176 100.255 461 100.25C460.852 100.25 460.706 100.279 460.569 100.335C460.433 100.392 460.309 100.475 460.204 100.579C460.1 100.684 460.017 100.808 459.96 100.944C459.904 101.081 459.875 101.227 459.875 101.375Z" fill="#3492EB"/>
<path d="M551.625 117.125C551.477 117.125 551.331 117.096 551.194 117.04C551.058 116.983 550.934 116.9 550.829 116.796C550.725 116.691 550.642 116.567 550.585 116.431C550.529 116.294 550.5 116.148 550.5 116C550.5 118.67 549.708 121.28 548.225 123.5C546.741 125.72 544.633 127.451 542.166 128.472C539.699 129.494 536.985 129.762 534.366 129.241C531.748 128.72 529.342 127.434 527.454 125.546C525.566 123.658 524.28 121.252 523.759 118.634C523.239 116.015 523.506 113.301 524.528 110.834C525.549 108.367 527.28 106.259 529.5 104.775C531.72 103.292 534.33 102.5 537 102.5C536.702 102.5 536.415 102.381 536.205 102.17C535.994 101.96 535.875 101.673 535.875 101.375C535.875 101.077 535.994 100.79 536.205 100.58C536.415 100.369 536.702 100.25 537 100.25C533.885 100.25 530.84 101.174 528.25 102.904C525.66 104.635 523.641 107.095 522.449 109.973C521.257 112.851 520.945 116.017 521.553 119.073C522.16 122.128 523.66 124.934 525.863 127.137C528.066 129.34 530.872 130.84 533.927 131.447C536.983 132.055 540.149 131.743 543.027 130.551C545.905 129.359 548.365 127.34 550.096 124.75C551.826 122.16 552.75 119.115 552.75 116C552.75 116.148 552.721 116.294 552.665 116.431C552.608 116.567 552.525 116.691 552.421 116.796C552.316 116.9 552.192 116.983 552.056 117.04C551.919 117.096 551.773 117.125 551.625 117.125Z" fill="white" fill-opacity="0.2"/>
<path d="M535.875 101.375C535.875 101.523 535.904 101.669 535.96 101.806C536.017 101.942 536.1 102.066 536.204 102.171C536.309 102.275 536.433 102.358 536.569 102.415C536.706 102.471 536.852 102.5 537 102.5C540.579 102.504 544.011 103.927 546.542 106.458C549.073 108.989 550.496 112.421 550.5 116C550.5 116.298 550.619 116.585 550.83 116.795C551.04 117.006 551.327 117.125 551.625 117.125C551.923 117.125 552.21 117.006 552.42 116.795C552.631 116.585 552.75 116.298 552.75 116C552.745 111.824 551.084 107.821 548.132 104.868C545.179 101.916 541.176 100.255 537 100.25C536.852 100.25 536.706 100.279 536.569 100.335C536.433 100.392 536.309 100.475 536.204 100.579C536.1 100.684 536.017 100.808 535.96 100.944C535.904 101.081 535.875 101.227 535.875 101.375Z" fill="#3492EB"/>
<path d="M551.625 114.88C551.477 114.88 551.331 114.909 551.194 114.965C551.058 115.022 550.934 115.105 550.829 115.209C550.725 115.314 550.642 115.438 550.585 115.574C550.529 115.711 550.5 115.857 550.5 116.005C550.496 119.584 549.073 123.016 546.542 125.547C544.011 128.077 540.579 129.501 537 129.505C536.702 129.505 536.415 129.623 536.205 129.834C535.994 130.045 535.875 130.332 535.875 130.63C535.875 130.928 535.994 131.214 536.205 131.425C536.415 131.636 536.702 131.755 537 131.755C541.176 131.75 545.179 130.089 548.132 127.137C551.084 124.184 552.745 120.181 552.75 116.005C552.75 115.857 552.721 115.711 552.665 115.574C552.608 115.438 552.525 115.314 552.421 115.209C552.316 115.105 552.192 115.022 552.056 114.965C551.919 114.909 551.773 114.88 551.625 114.88Z" fill="#3492EB"/>
<path d="M522.385 114.88C522.533 114.88 522.679 114.909 522.816 114.965C522.952 115.022 523.076 115.105 523.181 115.209C523.285 115.314 523.368 115.438 523.425 115.574C523.481 115.711 523.51 115.857 523.51 116.005C523.514 119.584 524.937 123.016 527.468 125.547C529.999 128.077 533.431 129.501 537.01 129.505C537.308 129.505 537.595 129.623 537.806 129.834C538.016 130.045 538.135 130.332 538.135 130.63C538.135 130.928 538.016 131.214 537.806 131.425C537.595 131.636 537.308 131.755 537.01 131.755C532.834 131.75 528.831 130.089 525.878 127.137C522.926 124.184 521.265 120.181 521.26 116.005C521.26 115.857 521.289 115.711 521.345 115.574C521.402 115.438 521.485 115.314 521.589 115.209C521.694 115.105 521.818 115.022 521.954 114.965C522.091 114.909 522.237 114.88 522.385 114.88Z" fill="#3492EB"/>
<path d="M611.875 101.375C611.875 101.523 611.904 101.669 611.96 101.806C612.017 101.942 612.1 102.066 612.204 102.171C612.309 102.275 612.433 102.358 612.569 102.415C612.706 102.471 612.852 102.5 613 102.5C616.579 102.504 620.011 103.927 622.542 106.458C625.073 108.989 626.496 112.421 626.5 116C626.5 116.298 626.619 116.585 626.83 116.795C627.04 117.006 627.327 117.125 627.625 117.125C627.923 117.125 628.21 117.006 628.42 116.795C628.631 116.585 628.75 116.298 628.75 116C628.745 111.824 627.084 107.821 624.132 104.868C621.179 101.916 617.176 100.255 613 100.25C612.852 100.25 612.706 100.279 612.569 100.335C612.433 100.392 612.309 100.475 612.204 100.579C612.1 100.684 612.017 100.808 611.96 100.944C611.904 101.081 611.875 101.227 611.875 101.375Z" fill="#27A17A"/>
<path d="M610 121.125C609.918 121.125 609.836 121.109 609.76 121.077C609.684 121.046 609.615 120.999 609.557 120.941L605.057 116.419C604.999 116.36 604.953 116.291 604.922 116.215C604.891 116.14 604.875 116.058 604.875 115.976C604.875 115.894 604.892 115.813 604.923 115.737C604.955 115.661 605.001 115.593 605.06 115.535C605.118 115.477 605.187 115.431 605.263 115.4C605.339 115.369 605.42 115.353 605.502 115.353C605.584 115.353 605.665 115.37 605.741 115.401C605.817 115.433 605.885 115.479 605.943 115.537L610.034 119.648L620.094 111.026C620.219 110.918 620.383 110.865 620.548 110.878C620.713 110.89 620.867 110.968 620.974 111.094C621.082 111.22 621.136 111.383 621.123 111.548C621.11 111.713 621.032 111.867 620.907 111.975L610.407 120.974C610.294 121.072 610.149 121.125 610 121.125Z" fill="#27A17A"/>
<path d="M614.14 101.375C614.14 101.523 614.111 101.669 614.054 101.806C613.998 101.942 613.915 102.066 613.811 102.171C613.706 102.275 613.582 102.358 613.446 102.415C613.309 102.471 613.163 102.5 613.015 102.5C609.436 102.504 606.004 103.927 603.473 106.458C600.942 108.989 599.519 112.421 599.515 116C599.515 116.298 599.396 116.585 599.185 116.795C598.974 117.006 598.688 117.125 598.39 117.125C598.092 117.125 597.805 117.006 597.594 116.795C597.383 116.585 597.265 116.298 597.265 116C597.27 111.824 598.93 107.821 601.883 104.868C604.836 101.916 608.839 100.255 613.015 100.25C613.163 100.25 613.309 100.279 613.446 100.335C613.582 100.392 613.706 100.475 613.811 100.579C613.915 100.684 613.998 100.808 614.054 100.944C614.111 101.081 614.14 101.227 614.14 101.375Z" fill="#27A17A"/>
<path d="M627.625 114.88C627.477 114.88 627.331 114.909 627.194 114.965C627.058 115.022 626.934 115.105 626.829 115.209C626.725 115.314 626.642 115.438 626.585 115.574C626.529 115.711 626.5 115.857 626.5 116.005C626.496 119.584 625.073 123.016 622.542 125.547C620.011 128.077 616.579 129.501 613 129.505C612.702 129.505 612.415 129.623 612.205 129.834C611.994 130.045 611.875 130.332 611.875 130.63C611.875 130.928 611.994 131.214 612.205 131.425C612.415 131.636 612.702 131.755 613 131.755C617.176 131.75 621.179 130.089 624.132 127.137C627.084 124.184 628.745 120.181 628.75 116.005C628.75 115.857 628.721 115.711 628.665 115.574C628.608 115.438 628.525 115.314 628.421 115.209C628.316 115.105 628.192 115.022 628.056 114.965C627.919 114.909 627.773 114.88 627.625 114.88Z" fill="#27A17A"/>
<path d="M598.385 114.88C598.533 114.88 598.679 114.909 598.816 114.965C598.952 115.022 599.076 115.105 599.181 115.209C599.285 115.314 599.368 115.438 599.425 115.574C599.481 115.711 599.51 115.857 599.51 116.005C599.514 119.584 600.937 123.016 603.468 125.547C605.999 128.077 609.431 129.501 613.01 129.505C613.308 129.505 613.595 129.623 613.806 129.834C614.016 130.045 614.135 130.332 614.135 130.63C614.135 130.928 614.016 131.214 613.806 131.425C613.595 131.636 613.308 131.755 613.01 131.755C608.834 131.75 604.831 130.089 601.878 127.137C598.926 124.184 597.265 120.181 597.26 116.005C597.26 115.857 597.289 115.711 597.345 115.574C597.402 115.438 597.485 115.314 597.589 115.209C597.694 115.105 597.818 115.022 597.954 114.965C598.091 114.909 598.237 114.88 598.385 114.88Z" fill="#27A17A"/>
<path d="M687.875 101.375C687.875 101.523 687.904 101.669 687.96 101.806C688.017 101.942 688.1 102.066 688.204 102.171C688.309 102.275 688.433 102.358 688.569 102.415C688.706 102.471 688.852 102.5 689 102.5C692.579 102.504 696.011 103.927 698.542 106.458C701.073 108.989 702.496 112.421 702.5 116C702.5 116.298 702.619 116.585 702.83 116.795C703.04 117.006 703.327 117.125 703.625 117.125C703.923 117.125 704.21 117.006 704.42 116.795C704.631 116.585 704.75 116.298 704.75 116C704.745 111.824 703.084 107.821 700.132 104.868C697.179 101.916 693.176 100.255 689 100.25C688.852 100.25 688.706 100.279 688.569 100.335C688.433 100.392 688.309 100.475 688.204 100.579C688.1 100.684 688.017 100.808 687.96 100.944C687.904 101.081 687.875 101.227 687.875 101.375Z" fill="#F55868"/>
<path d="M689 124C689.707 124 690.28 123.427 690.28 122.72C690.28 122.013 689.707 121.44 689 121.44C688.293 121.44 687.72 122.013 687.72 122.72C687.72 123.427 688.293 124 689 124Z" fill="#F55868"/>
<path d="M689 118.88C689.255 118.88 689.499 118.779 689.679 118.599C689.859 118.419 689.96 118.175 689.96 117.92V108.96C689.96 108.705 689.859 108.461 689.679 108.281C689.499 108.101 689.255 108 689 108C688.746 108 688.501 108.101 688.321 108.281C688.141 108.461 688.04 108.705 688.04 108.96V117.92C688.04 118.175 688.142 118.419 688.322 118.599C688.502 118.779 688.746 118.88 689 118.88Z" fill="#F55868"/>
<path d="M690.14 101.375C690.14 101.523 690.111 101.669 690.055 101.806C689.998 101.942 689.915 102.066 689.811 102.171C689.706 102.275 689.582 102.358 689.446 102.415C689.309 102.471 689.163 102.5 689.015 102.5C685.436 102.504 682.004 103.927 679.474 106.458C676.943 108.989 675.519 112.421 675.515 116C675.515 116.298 675.397 116.585 675.186 116.795C674.975 117.006 674.689 117.125 674.39 117.125C674.092 117.125 673.806 117.006 673.595 116.795C673.384 116.585 673.265 116.298 673.265 116C673.27 111.824 674.931 107.821 677.883 104.868C680.836 101.916 684.839 100.255 689.015 100.25C689.163 100.25 689.309 100.279 689.446 100.335C689.582 100.392 689.706 100.475 689.811 100.579C689.915 100.684 689.998 100.808 690.055 100.944C690.111 101.081 690.14 101.227 690.14 101.375Z" fill="#F55868"/>
<path d="M703.625 114.88C703.477 114.88 703.331 114.909 703.194 114.965C703.058 115.022 702.934 115.105 702.829 115.209C702.725 115.314 702.642 115.438 702.585 115.574C702.529 115.711 702.5 115.857 702.5 116.005C702.496 119.584 701.073 123.016 698.542 125.547C696.011 128.077 692.579 129.501 689 129.505C688.702 129.505 688.415 129.623 688.205 129.834C687.994 130.045 687.875 130.332 687.875 130.63C687.875 130.928 687.994 131.214 688.205 131.425C688.415 131.636 688.702 131.755 689 131.755C693.176 131.75 697.179 130.089 700.132 127.137C703.084 124.184 704.745 120.181 704.75 116.005C704.75 115.857 704.721 115.711 704.665 115.574C704.608 115.438 704.525 115.314 704.421 115.209C704.316 115.105 704.192 115.022 704.056 114.965C703.919 114.909 703.773 114.88 703.625 114.88Z" fill="#F55868"/>
<path d="M674.385 114.88C674.533 114.88 674.679 114.909 674.815 114.965C674.952 115.022 675.076 115.105 675.18 115.209C675.285 115.314 675.368 115.438 675.424 115.574C675.481 115.711 675.51 115.857 675.51 116.005C675.514 119.584 676.937 123.016 679.468 125.547C681.999 128.077 685.431 129.501 689.01 129.505C689.308 129.505 689.594 129.623 689.805 129.834C690.016 130.045 690.135 130.332 690.135 130.63C690.135 130.928 690.016 131.214 689.805 131.425C689.594 131.636 689.308 131.755 689.01 131.755C684.834 131.75 680.831 130.089 677.878 127.137C674.925 124.184 673.264 120.181 673.26 116.005C673.26 115.857 673.289 115.711 673.345 115.574C673.402 115.438 673.485 115.314 673.589 115.209C673.694 115.105 673.818 115.022 673.954 114.965C674.091 114.909 674.237 114.88 674.385 114.88Z" fill="#F55868"/>
</svg>
