<svg width="628" height="188" viewBox="0 0 628 188" fill="none" xmlns="http://www.w3.org/2000/svg">
<rect width="628" height="188" rx="24" fill="#262626"/>
<path d="M343.313 70.5625C343.239 70.5625 343.165 70.548 343.097 70.5198C343.029 70.4915 342.967 70.4501 342.915 70.3978C342.862 70.3456 342.821 70.2836 342.793 70.2153C342.764 70.147 342.75 70.0739 342.75 70C342.75 71.335 342.354 72.6401 341.612 73.7501C340.871 74.8601 339.817 75.7253 338.583 76.2362C337.35 76.7471 335.993 76.8808 334.683 76.6203C333.374 76.3598 332.171 75.717 331.227 74.773C330.283 73.829 329.64 72.6262 329.38 71.3169C329.119 70.0075 329.253 68.6503 329.764 67.4169C330.275 66.1835 331.14 65.1293 332.25 64.3876C333.36 63.6459 334.665 63.25 336 63.25C335.851 63.25 335.708 63.1907 335.602 63.0852C335.497 62.9798 335.438 62.8367 335.438 62.6875C335.438 62.5383 335.497 62.3952 335.602 62.2898C335.708 62.1843 335.851 62.125 336 62.125C334.442 62.125 332.92 62.5869 331.625 63.4522C330.33 64.3175 329.32 65.5474 328.724 66.9864C328.128 68.4253 327.972 70.0087 328.276 71.5363C328.58 73.0639 329.33 74.4671 330.432 75.5685C331.533 76.6698 332.936 77.4198 334.464 77.7237C335.991 78.0275 337.575 77.8716 339.014 77.2756C340.453 76.6795 341.683 75.6702 342.548 74.3751C343.413 73.0801 343.875 71.5575 343.875 70C343.875 70.0739 343.861 70.147 343.832 70.2153C343.804 70.2836 343.763 70.3456 343.71 70.3978C343.658 70.4501 343.596 70.4915 343.528 70.5198C343.46 70.548 343.386 70.5625 343.313 70.5625Z" fill="#3B3B3B"/>
<path d="M335.438 62.6875C335.437 62.7614 335.452 62.8345 335.48 62.9028C335.508 62.9711 335.55 63.0331 335.602 63.0853C335.654 63.1376 335.716 63.179 335.785 63.2073C335.853 63.2355 335.926 63.25 336 63.25C337.79 63.252 339.505 63.9637 340.771 65.2292C342.036 66.4946 342.748 68.2104 342.75 70C342.75 70.1492 342.809 70.2923 342.915 70.3977C343.02 70.5032 343.163 70.5625 343.312 70.5625C343.462 70.5625 343.605 70.5032 343.71 70.3977C343.816 70.2923 343.875 70.1492 343.875 70C343.873 67.9121 343.042 65.9105 341.566 64.4341C340.09 62.9578 338.088 62.1273 336 62.125C335.926 62.125 335.853 62.1395 335.785 62.1677C335.716 62.196 335.654 62.2374 335.602 62.2897C335.55 62.3419 335.508 62.4039 335.48 62.4722C335.452 62.5405 335.437 62.6136 335.438 62.6875Z" fill="#3492EB"/>
<path d="M343.312 69.4399C343.239 69.4399 343.165 69.4544 343.097 69.4827C343.029 69.5109 342.967 69.5524 342.915 69.6046C342.862 69.6568 342.821 69.7189 342.793 69.7871C342.764 69.8554 342.75 69.9286 342.75 70.0024C342.748 71.7921 342.036 73.5078 340.771 74.7733C339.505 76.0387 337.79 76.7505 336 76.7524C335.851 76.7524 335.708 76.8117 335.602 76.9172C335.497 77.0227 335.437 77.1658 335.437 77.3149C335.437 77.4641 335.497 77.6072 335.602 77.7127C335.708 77.8182 335.851 77.8774 336 77.8774C338.088 77.8751 340.09 77.0447 341.566 75.5683C343.042 74.092 343.873 72.0903 343.875 70.0024C343.875 69.9286 343.861 69.8554 343.832 69.7871C343.804 69.7189 343.763 69.6568 343.71 69.6046C343.658 69.5524 343.596 69.5109 343.528 69.4827C343.46 69.4544 343.386 69.4399 343.312 69.4399Z" fill="#3492EB"/>
<path d="M328.692 69.4399C328.766 69.4399 328.839 69.4544 328.908 69.4827C328.976 69.5109 329.038 69.5524 329.09 69.6046C329.142 69.6568 329.184 69.7189 329.212 69.7871C329.24 69.8554 329.255 69.9286 329.255 70.0024C329.257 71.7921 329.969 73.5078 331.234 74.7733C332.5 76.0387 334.215 76.7505 336.005 76.7524C336.154 76.7524 336.297 76.8117 336.403 76.9172C336.508 77.0227 336.567 77.1658 336.567 77.3149C336.567 77.4641 336.508 77.6072 336.403 77.7127C336.297 77.8182 336.154 77.8774 336.005 77.8774C333.917 77.8751 331.915 77.0447 330.439 75.5683C328.963 74.092 328.132 72.0903 328.13 70.0024C328.13 69.9286 328.144 69.8554 328.173 69.7871C328.201 69.7189 328.242 69.6568 328.295 69.6046C328.347 69.5524 328.409 69.5109 328.477 69.4827C328.545 69.4544 328.619 69.4399 328.692 69.4399Z" fill="#3492EB"/>
<g clip-path="url(#clip0_489_5422)">
<line x1="344.5" y1="113.478" x2="344.5" y2="98.4775" stroke="#30C9B0"/>
<line x1="344" y1="105.978" x2="346" y2="105.978" stroke="#30C9B0"/>
<line x1="345.5" y1="113.478" x2="345.5" y2="98.4775" stroke="#30C9B0"/>
</g>
<path d="M347.736 129V127.869H343.764L345.662 125.842C345.912 125.576 346.143 125.318 346.354 125.068C346.568 124.818 346.754 124.57 346.91 124.324C347.062 124.078 347.182 123.83 347.268 123.58C347.357 123.326 347.402 123.064 347.402 122.795C347.402 122.436 347.344 122.107 347.227 121.811C347.109 121.51 346.939 121.252 346.717 121.037C346.49 120.822 346.211 120.654 345.879 120.533C345.551 120.412 345.178 120.352 344.76 120.352C344.314 120.352 343.91 120.424 343.547 120.568C343.188 120.713 342.883 120.908 342.633 121.154C342.379 121.4 342.184 121.689 342.047 122.021C341.91 122.35 341.842 122.699 341.842 123.07H343.248C343.248 122.824 343.279 122.605 343.342 122.414C343.404 122.219 343.498 122.053 343.623 121.916C343.744 121.787 343.896 121.688 344.08 121.617C344.264 121.547 344.48 121.512 344.73 121.512C344.926 121.512 345.102 121.545 345.258 121.611C345.418 121.678 345.555 121.77 345.668 121.887C345.781 122.004 345.867 122.145 345.926 122.309C345.984 122.473 346.014 122.654 346.014 122.854C346.014 123.002 345.992 123.15 345.949 123.299C345.91 123.443 345.844 123.6 345.75 123.768C345.652 123.936 345.525 124.121 345.369 124.324C345.213 124.523 345.02 124.75 344.789 125.004L342.012 128.027V129H347.736Z" fill="#30C9B0"/>
<rect opacity="0.5" x="344" y="62" width="2" height="32" fill="#30C9B0"/>
<rect opacity="0.5" x="314" y="60" width="32" height="2" fill="#30C9B0"/>
<g clip-path="url(#clip1_489_5422)">
<line x1="295" y1="60.5" x2="310" y2="60.5" stroke="#30C9B0"/>
<line x1="302.5" y1="62.25" x2="302.5" y2="60.25" stroke="#30C9B0"/>
<line x1="295" y1="61.5" x2="310" y2="61.5" stroke="#30C9B0"/>
</g>
<path d="M291.396 66V64.6807H286.762L288.977 62.3154C289.268 62.0055 289.537 61.7048 289.783 61.4131C290.034 61.1214 290.25 60.832 290.433 60.5449C290.61 60.2578 290.749 59.9684 290.85 59.6768C290.954 59.3805 291.007 59.0752 291.007 58.7607C291.007 58.3415 290.938 57.9587 290.802 57.6123C290.665 57.2614 290.467 56.9606 290.207 56.71C289.943 56.4593 289.617 56.2633 289.229 56.1221C288.847 55.9808 288.411 55.9102 287.924 55.9102C287.404 55.9102 286.933 55.9945 286.509 56.1631C286.09 56.3317 285.734 56.5596 285.442 56.8467C285.146 57.1338 284.918 57.471 284.759 57.8584C284.599 58.2412 284.52 58.6491 284.52 59.082H286.16C286.16 58.7949 286.197 58.5397 286.27 58.3164C286.342 58.0885 286.452 57.8949 286.598 57.7354C286.739 57.585 286.917 57.4688 287.131 57.3867C287.345 57.3047 287.598 57.2637 287.89 57.2637C288.118 57.2637 288.323 57.3024 288.505 57.3799C288.692 57.4574 288.851 57.5645 288.983 57.7012C289.116 57.8379 289.216 58.002 289.284 58.1934C289.353 58.3848 289.387 58.5967 289.387 58.8291C289.387 59.0023 289.362 59.1755 289.312 59.3486C289.266 59.5173 289.188 59.6995 289.079 59.8955C288.965 60.0915 288.817 60.3079 288.635 60.5449C288.452 60.7773 288.227 61.0417 287.958 61.3379L284.718 64.8652V66H291.396Z" fill="#30C9B0"/>
<defs>
<clipPath id="clip0_489_5422">
<rect width="2" height="15" fill="white" transform="translate(344 98.4775)"/>
</clipPath>
<clipPath id="clip1_489_5422">
<rect width="15" height="2" fill="white" transform="translate(295 60)"/>
</clipPath>
</defs>
</svg>
