<svg width="559" height="192" viewBox="0 0 559 192" fill="none" xmlns="http://www.w3.org/2000/svg">
<rect width="559" height="192" rx="16" fill="#262626"/>
<path d="M312.407 98.5312C312.074 98.5314 311.745 98.4661 311.438 98.339C311.13 98.2118 310.851 98.0254 310.616 97.7903C310.381 97.5552 310.195 97.2761 310.068 96.9689C309.94 96.6617 309.875 96.3325 309.875 96C309.875 102.008 308.094 107.88 304.756 112.875C301.419 117.871 296.675 121.764 291.124 124.063C285.574 126.362 279.467 126.963 273.574 125.791C267.682 124.619 262.27 121.726 258.022 117.478C253.774 113.23 250.881 107.818 249.709 101.926C248.537 96.0337 249.138 89.9263 251.437 84.376C253.736 78.8257 257.63 74.0818 262.625 70.7441C267.62 67.4065 273.493 65.625 279.5 65.625C278.829 65.625 278.185 65.3583 277.71 64.8836C277.236 64.4089 276.969 63.7651 276.969 63.0938C276.969 62.4224 277.236 61.7786 277.71 61.3039C278.185 60.8292 278.829 60.5625 279.5 60.5625C272.491 60.5625 265.64 62.6409 259.812 66.5348C253.985 70.4287 249.442 75.9633 246.76 82.4387C244.078 88.914 243.376 96.0393 244.744 102.914C246.111 109.788 249.486 116.102 254.442 121.058C259.398 126.014 265.713 129.389 272.587 130.757C279.461 132.124 286.586 131.422 293.062 128.74C299.537 126.058 305.072 121.516 308.965 115.688C312.859 109.86 314.938 103.009 314.938 96C314.938 96.3325 314.873 96.6617 314.745 96.9689C314.618 97.2761 314.432 97.5552 314.197 97.7903C313.962 98.0254 313.683 98.2118 313.375 98.339C313.068 98.4661 312.739 98.5314 312.407 98.5312Z" fill="white" fill-opacity="0.2"/>
<path d="M276.969 63.0938C276.969 63.4262 277.034 63.7555 277.161 64.0626C277.288 64.3698 277.475 64.649 277.71 64.884C277.945 65.1191 278.224 65.3056 278.531 65.4327C278.839 65.5599 279.168 65.6252 279.5 65.625C287.553 65.6338 295.274 68.8368 300.969 74.5313C306.663 80.2259 309.866 87.9467 309.875 96C309.875 96.6713 310.142 97.3152 310.617 97.7899C311.091 98.2646 311.735 98.5312 312.406 98.5312C313.078 98.5312 313.722 98.2646 314.196 97.7899C314.671 97.3152 314.938 96.6713 314.938 96C314.927 86.6046 311.19 77.5971 304.547 70.9536C297.903 64.31 288.896 60.573 279.5 60.5625C279.168 60.5623 278.839 60.6276 278.531 60.7548C278.224 60.8819 277.945 61.0684 277.71 61.3035C277.475 61.5385 277.288 61.8177 277.161 62.1249C277.034 62.432 276.969 62.7613 276.969 63.0938Z" fill="#3492EB"/>
<path d="M312.406 93.48C312.074 93.4798 311.745 93.5451 311.437 93.6723C311.13 93.7994 310.851 93.9858 310.616 94.2209C310.381 94.456 310.194 94.7351 310.067 95.0423C309.94 95.3495 309.875 95.6788 309.875 96.0112C309.866 104.064 306.663 111.785 300.969 117.48C295.274 123.174 287.553 126.377 279.5 126.386C278.829 126.386 278.185 126.653 277.71 127.128C277.235 127.602 276.969 128.246 276.969 128.917C276.969 129.589 277.235 130.233 277.71 130.707C278.185 131.182 278.829 131.449 279.5 131.449C288.895 131.438 297.903 127.701 304.546 121.058C311.19 114.414 314.927 105.407 314.937 96.0112C314.938 95.6788 314.872 95.3495 314.745 95.0423C314.618 94.7351 314.432 94.456 314.197 94.2209C313.961 93.9858 313.682 93.7994 313.375 93.6723C313.068 93.5451 312.739 93.4798 312.406 93.48Z" fill="#3492EB"/>
<path d="M246.616 93.48C246.949 93.4798 247.278 93.5451 247.585 93.6723C247.892 93.7994 248.171 93.9858 248.407 94.2209C248.642 94.456 248.828 94.7351 248.955 95.0423C249.082 95.3495 249.148 95.6788 249.147 96.0112C249.156 104.064 252.359 111.785 258.054 117.48C263.748 123.174 271.469 126.377 279.522 126.386C280.194 126.386 280.838 126.653 281.312 127.128C281.787 127.602 282.054 128.246 282.054 128.917C282.054 129.589 281.787 130.233 281.312 130.707C280.838 131.182 280.194 131.449 279.522 131.449C270.127 131.438 261.12 127.701 254.476 121.058C247.832 114.414 244.096 105.407 244.085 96.0112C244.085 95.6788 244.15 95.3495 244.277 95.0423C244.404 94.7351 244.591 94.456 244.826 94.2209C245.061 93.9858 245.34 93.7994 245.647 93.6723C245.955 93.5451 246.284 93.4798 246.616 93.48Z" fill="#3492EB"/>
</svg>
