<svg width="634" height="400" viewBox="0 0 634 400" fill="none" xmlns="http://www.w3.org/2000/svg">
<rect width="634" height="400" rx="24" fill="#262626"/>
<path d="M103.94 48.72H110.42C116.164 48.72 119.036 51.6 119.036 57.36C119.036 63.12 116.18 66 110.468 66H103.94V48.72ZM110.42 51.504H107.972V63.192H110.468C113.476 63.192 114.98 61.248 114.98 57.36C114.98 55.248 114.516 53.704 113.588 52.728C112.82 51.912 111.764 51.504 110.42 51.504ZM129.752 62.376H133.568C133.248 63.688 132.552 64.688 131.48 65.376C130.424 66.032 129.064 66.36 127.4 66.36C125.288 66.36 123.632 65.704 122.432 64.392C121.36 63.208 120.824 61.664 120.824 59.76C120.824 57.52 121.488 55.816 122.816 54.648C123.952 53.656 125.44 53.16 127.28 53.16C129.456 53.16 131.096 53.864 132.2 55.272C133.208 56.552 133.712 58.352 133.712 60.672H124.616C124.856 62.72 125.848 63.744 127.592 63.744C128.152 63.744 128.624 63.624 129.008 63.384C129.392 63.144 129.64 62.808 129.752 62.376ZM127.208 55.512C125.688 55.512 124.824 56.504 124.616 58.488H129.872C129.776 56.504 128.888 55.512 127.208 55.512ZM142.894 63.48V66.024C142.11 66.248 141.35 66.36 140.614 66.36C139.254 66.36 138.214 65.984 137.494 65.232C136.87 64.576 136.558 63.672 136.558 62.52V56.112H134.662V53.52H136.558L136.798 50.52H140.302V53.52H142.87V56.112H140.302V62.64C140.302 62.976 140.406 63.24 140.614 63.432C140.838 63.608 141.142 63.696 141.526 63.696C141.83 63.696 142.286 63.624 142.894 63.48ZM152.909 62.376H156.725C156.405 63.688 155.709 64.688 154.637 65.376C153.581 66.032 152.221 66.36 150.557 66.36C148.445 66.36 146.789 65.704 145.589 64.392C144.517 63.208 143.981 61.664 143.981 59.76C143.981 57.52 144.645 55.816 145.973 54.648C147.109 53.656 148.597 53.16 150.437 53.16C152.613 53.16 154.253 53.864 155.357 55.272C156.365 56.552 156.869 58.352 156.869 60.672H147.773C148.013 62.72 149.005 63.744 150.749 63.744C151.309 63.744 151.781 63.624 152.165 63.384C152.549 63.144 152.797 62.808 152.909 62.376ZM150.365 55.512C148.845 55.512 147.981 56.504 147.773 58.488H153.029C152.933 56.504 152.045 55.512 150.365 55.512ZM162.642 66H158.898V53.52H162.018L162.426 55.416C163.114 53.912 164.202 53.16 165.69 53.16C166.25 53.16 166.722 53.216 167.106 53.328V56.808C166.594 56.648 166.058 56.568 165.498 56.568C164.65 56.568 163.954 56.976 163.41 57.792C162.898 58.56 162.642 59.568 162.642 60.816V66ZM172.181 66H168.437V53.52H171.077L171.701 54.888C172.661 53.736 173.933 53.16 175.517 53.16C177.261 53.16 178.525 53.736 179.309 54.888C180.333 53.736 181.709 53.16 183.437 53.16C184.941 53.16 186.085 53.576 186.869 54.408C187.621 55.208 187.997 56.368 187.997 57.888V66H184.253V57.792C184.253 56.464 183.589 55.8 182.261 55.8C181.509 55.8 180.933 56.088 180.533 56.664C180.229 57.112 180.077 57.68 180.077 58.368V66H176.333V57.792C176.333 56.464 175.669 55.8 174.341 55.8C173.653 55.8 173.101 56.072 172.685 56.616C172.349 57.064 172.181 57.592 172.181 58.2V66ZM194.403 51.912H190.371V48.72H194.403V51.912ZM194.259 66H190.515V53.52H194.259V66ZM200.634 66H196.89V53.52H199.986L200.346 54.888C201.258 53.736 202.53 53.16 204.162 53.16C205.714 53.16 206.898 53.632 207.714 54.576C208.434 55.408 208.794 56.528 208.794 57.936V66H205.05V58.08C205.05 56.56 204.41 55.8 203.13 55.8C202.346 55.8 201.722 56.088 201.258 56.664C200.842 57.16 200.634 57.808 200.634 58.608V66ZM214.904 57.12H211.064C211.384 55.776 212.112 54.76 213.248 54.072C214.272 53.464 215.552 53.16 217.088 53.16C218.944 53.16 220.376 53.624 221.384 54.552C222.264 55.352 222.704 56.416 222.704 57.744V66H219.776L219.32 64.704C218.36 65.808 216.984 66.36 215.192 66.36C213.8 66.36 212.704 65.968 211.904 65.184C211.184 64.496 210.824 63.568 210.824 62.4C210.824 61.312 211.248 60.456 212.096 59.832C212.912 59.224 214.168 58.776 215.864 58.488L218.96 57.984V57.432C218.96 56.2 218.296 55.584 216.968 55.584C215.8 55.584 215.112 56.096 214.904 57.12ZM216.272 63.792C217.136 63.792 217.824 63.528 218.336 63C218.752 62.552 218.96 62.016 218.96 61.392V60.024L216.824 60.456C216.008 60.616 215.424 60.84 215.072 61.128C214.736 61.4 214.568 61.768 214.568 62.232C214.568 63.272 215.136 63.792 216.272 63.792ZM232.378 63.48V66.024C231.594 66.248 230.834 66.36 230.098 66.36C228.738 66.36 227.698 65.984 226.978 65.232C226.354 64.576 226.042 63.672 226.042 62.52V56.112H224.146V53.52H226.042L226.282 50.52H229.786V53.52H232.354V56.112H229.786V62.64C229.786 62.976 229.89 63.24 230.098 63.432C230.322 63.608 230.626 63.696 231.01 63.696C231.314 63.696 231.77 63.624 232.378 63.48ZM242.393 62.376H246.209C245.889 63.688 245.193 64.688 244.121 65.376C243.065 66.032 241.705 66.36 240.041 66.36C237.929 66.36 236.273 65.704 235.073 64.392C234.001 63.208 233.465 61.664 233.465 59.76C233.465 57.52 234.129 55.816 235.457 54.648C236.593 53.656 238.081 53.16 239.921 53.16C242.097 53.16 243.737 53.864 244.841 55.272C245.849 56.552 246.353 58.352 246.353 60.672H237.257C237.497 62.72 238.489 63.744 240.233 63.744C240.793 63.744 241.265 63.624 241.649 63.384C242.033 63.144 242.281 62.808 242.393 62.376ZM239.849 55.512C238.329 55.512 237.465 56.504 237.257 58.488H242.513C242.417 56.504 241.529 55.512 239.849 55.512Z" fill="white" fill-opacity="0.95"/>
<path d="M207.906 118.531C207.574 118.531 207.245 118.466 206.937 118.339C206.63 118.212 206.351 118.025 206.116 117.79C205.881 117.555 205.694 117.276 205.567 116.969C205.44 116.662 205.375 116.332 205.375 116C205.375 122.008 203.594 127.88 200.256 132.875C196.918 137.871 192.174 141.764 186.624 144.063C181.074 146.362 174.966 146.963 169.074 145.791C163.182 144.619 157.77 141.726 153.522 137.478C149.274 133.23 146.381 127.818 145.209 121.926C144.037 116.034 144.638 109.926 146.937 104.376C149.236 98.8257 153.129 94.0818 158.125 90.7441C163.12 87.4065 168.992 85.625 175 85.625C174.329 85.625 173.685 85.3583 173.21 84.8836C172.735 84.4089 172.469 83.7651 172.469 83.0938C172.469 82.4224 172.735 81.7786 173.21 81.3039C173.685 80.8292 174.329 80.5625 175 80.5625C167.991 80.5625 161.14 82.6409 155.312 86.5348C149.484 90.4287 144.942 95.9633 142.26 102.439C139.578 108.914 138.876 116.039 140.243 122.914C141.611 129.788 144.986 136.102 149.942 141.058C154.898 146.014 161.212 149.389 168.087 150.757C174.961 152.124 182.086 151.422 188.561 148.74C195.037 146.058 200.571 141.516 204.465 135.688C208.359 129.86 210.438 123.009 210.438 116C210.438 116.332 210.372 116.662 210.245 116.969C210.118 117.276 209.932 117.555 209.697 117.79C209.461 118.025 209.182 118.212 208.875 118.339C208.568 118.466 208.239 118.531 207.906 118.531Z" fill="#3B3B3B"/>
<path d="M172.469 83.0938C172.469 83.4262 172.534 83.7555 172.662 84.0626C172.789 84.3698 172.975 84.649 173.21 84.884C173.445 85.1191 173.724 85.3056 174.032 85.4327C174.339 85.5599 174.668 85.6252 175 85.625C183.054 85.6338 190.775 88.8368 196.469 94.5313C202.164 100.226 205.367 107.947 205.375 116C205.375 116.671 205.642 117.315 206.117 117.79C206.592 118.265 207.235 118.531 207.907 118.531C208.578 118.531 209.222 118.265 209.697 117.79C210.171 117.315 210.438 116.671 210.438 116C210.427 106.605 206.69 97.5971 200.047 90.9536C193.403 84.31 184.396 80.573 175 80.5625C174.668 80.5623 174.339 80.6276 174.032 80.7548C173.724 80.8819 173.445 81.0684 173.21 81.3035C172.975 81.5385 172.789 81.8177 172.662 82.1249C172.534 82.432 172.469 82.7613 172.469 83.0938Z" fill="#3492EB"/>
<path d="M181.354 164.647C181.26 164.553 181.133 164.5 181 164.5C180.868 164.5 180.74 164.553 180.647 164.647L175 170.293L169.353 164.647C169.259 164.555 169.133 164.504 169.002 164.505C168.87 164.506 168.745 164.559 168.652 164.652C168.559 164.745 168.506 164.87 168.505 165.002C168.504 165.133 168.555 165.259 168.646 165.354L174.646 171.354C174.74 171.447 174.867 171.5 175 171.5C175.133 171.5 175.26 171.447 175.353 171.354L181.353 165.354C181.447 165.26 181.5 165.133 181.5 165C181.5 164.868 181.447 164.74 181.354 164.647Z" fill="white" fill-opacity="0.7"/>
<path d="M207.906 222.531C207.574 222.531 207.245 222.466 206.937 222.339C206.63 222.212 206.351 222.025 206.116 221.79C205.881 221.555 205.694 221.276 205.567 220.969C205.44 220.662 205.375 220.332 205.375 220C205.375 226.008 203.594 231.88 200.256 236.875C196.918 241.871 192.174 245.764 186.624 248.063C181.074 250.362 174.966 250.963 169.074 249.791C163.182 248.619 157.77 245.726 153.522 241.478C149.274 237.23 146.381 231.818 145.209 225.926C144.037 220.034 144.638 213.926 146.937 208.376C149.236 202.826 153.129 198.082 158.125 194.744C163.12 191.406 168.992 189.625 175 189.625C174.329 189.625 173.685 189.358 173.21 188.884C172.735 188.409 172.469 187.765 172.469 187.094C172.469 186.422 172.735 185.779 173.21 185.304C173.685 184.829 174.329 184.562 175 184.562C167.991 184.562 161.14 186.641 155.312 190.535C149.484 194.429 144.942 199.963 142.26 206.439C139.578 212.914 138.876 220.039 140.243 226.914C141.611 233.788 144.986 240.102 149.942 245.058C154.898 250.014 161.212 253.389 168.087 254.757C174.961 256.124 182.086 255.422 188.561 252.74C195.037 250.058 200.571 245.516 204.465 239.688C208.359 233.86 210.438 227.009 210.438 220C210.438 220.332 210.372 220.662 210.245 220.969C210.118 221.276 209.932 221.555 209.697 221.79C209.461 222.025 209.182 222.212 208.875 222.339C208.568 222.466 208.239 222.531 207.906 222.531Z" fill="#3B3B3B"/>
<path d="M172.469 187.094C172.469 187.426 172.534 187.755 172.662 188.063C172.789 188.37 172.975 188.649 173.21 188.884C173.445 189.119 173.724 189.306 174.032 189.433C174.339 189.56 174.668 189.625 175 189.625C183.054 189.634 190.775 192.837 196.469 198.531C202.164 204.226 205.367 211.947 205.375 220C205.375 220.671 205.642 221.315 206.117 221.79C206.592 222.265 207.235 222.531 207.907 222.531C208.578 222.531 209.222 222.265 209.697 221.79C210.171 221.315 210.438 220.671 210.438 220C210.427 210.605 206.69 201.597 200.047 194.954C193.403 188.31 184.396 184.573 175 184.563C174.668 184.562 174.339 184.628 174.032 184.755C173.724 184.882 173.445 185.068 173.21 185.303C172.975 185.539 172.789 185.818 172.662 186.125C172.534 186.432 172.469 186.761 172.469 187.094Z" fill="#3492EB"/>
<path d="M207.906 217.48C207.574 217.48 207.245 217.545 206.937 217.672C206.63 217.799 206.351 217.986 206.116 218.221C205.881 218.456 205.694 218.735 205.567 219.042C205.44 219.35 205.375 219.679 205.375 220.011C205.366 228.064 202.163 235.785 196.469 241.48C190.774 247.174 183.053 250.377 175 250.386C174.329 250.386 173.685 250.653 173.21 251.128C172.735 251.602 172.469 252.246 172.469 252.917C172.469 253.589 172.735 254.233 173.21 254.707C173.685 255.182 174.329 255.449 175 255.449C184.395 255.438 193.403 251.701 200.046 245.058C206.69 238.414 210.427 229.407 210.437 220.011C210.438 219.679 210.372 219.35 210.245 219.042C210.118 218.735 209.932 218.456 209.697 218.221C209.461 217.986 209.182 217.799 208.875 217.672C208.568 217.545 208.239 217.48 207.906 217.48Z" fill="#3492EB"/>
<path d="M142.116 217.48C142.449 217.48 142.778 217.545 143.085 217.672C143.392 217.799 143.671 217.986 143.907 218.221C144.142 218.456 144.328 218.735 144.455 219.042C144.582 219.35 144.648 219.679 144.647 220.011C144.656 228.064 147.859 235.785 153.554 241.48C159.248 247.174 166.969 250.377 175.022 250.386C175.694 250.386 176.338 250.653 176.812 251.128C177.287 251.602 177.554 252.246 177.554 252.917C177.554 253.589 177.287 254.233 176.812 254.707C176.338 255.182 175.694 255.449 175.022 255.449C165.627 255.438 156.62 251.701 149.976 245.058C143.332 238.414 139.596 229.407 139.585 220.011C139.585 219.679 139.65 219.35 139.777 219.042C139.904 218.735 140.091 218.456 140.326 218.221C140.561 217.986 140.84 217.799 141.147 217.672C141.455 217.545 141.784 217.48 142.116 217.48Z" fill="#3492EB"/>
<path d="M181.354 268.647C181.26 268.553 181.133 268.5 181 268.5C180.868 268.5 180.74 268.553 180.647 268.647L175 274.293L169.353 268.647C169.259 268.555 169.133 268.504 169.002 268.505C168.87 268.506 168.745 268.559 168.652 268.652C168.559 268.745 168.506 268.87 168.505 269.002C168.504 269.133 168.555 269.259 168.646 269.354L174.646 275.354C174.74 275.447 174.867 275.5 175 275.5C175.133 275.5 175.26 275.447 175.353 275.354L181.353 269.354C181.447 269.26 181.5 269.133 181.5 269C181.5 268.868 181.447 268.74 181.354 268.647Z" fill="white" fill-opacity="0.7"/>
<path d="M207.906 326.531C207.574 326.531 207.245 326.466 206.937 326.339C206.63 326.212 206.351 326.025 206.116 325.79C205.881 325.555 205.694 325.276 205.567 324.969C205.44 324.662 205.375 324.332 205.375 324C205.375 330.008 203.594 335.88 200.256 340.875C196.918 345.871 192.174 349.764 186.624 352.063C181.074 354.362 174.966 354.963 169.074 353.791C163.182 352.619 157.77 349.726 153.522 345.478C149.274 341.23 146.381 335.818 145.209 329.926C144.037 324.034 144.638 317.926 146.937 312.376C149.236 306.826 153.129 302.082 158.125 298.744C163.12 295.406 168.992 293.625 175 293.625C174.329 293.625 173.685 293.358 173.21 292.884C172.735 292.409 172.469 291.765 172.469 291.094C172.469 290.422 172.735 289.779 173.21 289.304C173.685 288.829 174.329 288.562 175 288.562C167.991 288.562 161.14 290.641 155.312 294.535C149.484 298.429 144.942 303.963 142.26 310.439C139.578 316.914 138.876 324.039 140.243 330.914C141.611 337.788 144.986 344.102 149.942 349.058C154.898 354.014 161.212 357.389 168.087 358.757C174.961 360.124 182.086 359.422 188.561 356.74C195.037 354.058 200.571 349.516 204.465 343.688C208.359 337.86 210.438 331.009 210.438 324C210.438 324.332 210.372 324.662 210.245 324.969C210.118 325.276 209.932 325.555 209.697 325.79C209.461 326.025 209.182 326.212 208.875 326.339C208.568 326.466 208.239 326.531 207.906 326.531Z" fill="#3B3B3B"/>
<path d="M172.469 291.094C172.469 291.426 172.534 291.755 172.662 292.063C172.789 292.37 172.975 292.649 173.21 292.884C173.445 293.119 173.724 293.306 174.032 293.433C174.339 293.56 174.668 293.625 175 293.625C183.054 293.634 190.775 296.837 196.469 302.531C202.164 308.226 205.367 315.947 205.375 324C205.375 324.671 205.642 325.315 206.117 325.79C206.592 326.265 207.235 326.531 207.907 326.531C208.578 326.531 209.222 326.265 209.697 325.79C210.171 325.315 210.438 324.671 210.438 324C210.427 314.605 206.69 305.597 200.047 298.954C193.403 292.31 184.396 288.573 175 288.563C174.668 288.562 174.339 288.628 174.032 288.755C173.724 288.882 173.445 289.068 173.21 289.303C172.975 289.539 172.789 289.818 172.662 290.125C172.534 290.432 172.469 290.761 172.469 291.094Z" fill="#3492EB"/>
<path d="M142.004 326.531C142.337 326.531 142.666 326.466 142.973 326.339C143.28 326.212 143.56 326.025 143.795 325.79C144.03 325.555 144.216 325.276 144.343 324.969C144.47 324.662 144.536 324.332 144.536 324C144.544 315.947 147.747 308.226 153.442 302.531C159.136 296.837 166.857 293.634 174.911 293.625C175.582 293.625 176.226 293.358 176.701 292.884C177.175 292.409 177.442 291.765 177.442 291.094C177.442 290.422 177.175 289.779 176.701 289.304C176.226 288.829 175.582 288.562 174.911 288.562C165.515 288.573 156.508 292.31 149.864 298.954C143.221 305.597 139.484 314.605 139.473 324C139.473 324.332 139.538 324.662 139.665 324.969C139.793 325.276 139.979 325.555 140.214 325.79C140.449 326.025 140.728 326.212 141.035 326.339C141.343 326.466 141.672 326.531 142.004 326.531Z" fill="#3492EB"/>
<path d="M207.906 321.48C207.574 321.48 207.245 321.545 206.937 321.672C206.63 321.799 206.351 321.986 206.116 322.221C205.881 322.456 205.694 322.735 205.567 323.042C205.44 323.35 205.375 323.679 205.375 324.011C205.366 332.064 202.163 339.785 196.469 345.48C190.774 351.174 183.053 354.377 175 354.386C174.329 354.386 173.685 354.653 173.21 355.128C172.735 355.602 172.469 356.246 172.469 356.917C172.469 357.589 172.735 358.233 173.21 358.707C173.685 359.182 174.329 359.449 175 359.449C184.395 359.438 193.403 355.701 200.046 349.058C206.69 342.414 210.427 333.407 210.437 324.011C210.438 323.679 210.372 323.35 210.245 323.042C210.118 322.735 209.932 322.456 209.697 322.221C209.461 321.986 209.182 321.799 208.875 321.672C208.568 321.545 208.239 321.48 207.906 321.48Z" fill="#3492EB"/>
<path d="M142.116 321.48C142.449 321.48 142.778 321.545 143.085 321.672C143.392 321.799 143.671 321.986 143.907 322.221C144.142 322.456 144.328 322.735 144.455 323.042C144.582 323.35 144.648 323.679 144.647 324.011C144.656 332.064 147.859 339.785 153.554 345.48C159.248 351.174 166.969 354.377 175.022 354.386C175.694 354.386 176.338 354.653 176.812 355.128C177.287 355.602 177.554 356.246 177.554 356.917C177.554 357.589 177.287 358.233 176.812 358.707C176.338 359.182 175.694 359.449 175.022 359.449C165.627 359.438 156.62 355.701 149.976 349.058C143.332 342.414 139.596 333.407 139.585 324.011C139.585 323.679 139.65 323.35 139.777 323.042C139.904 322.735 140.091 322.456 140.326 322.221C140.561 321.986 140.84 321.799 141.147 321.672C141.455 321.545 141.784 321.48 142.116 321.48Z" fill="#3492EB"/>
<path d="M368.94 48.72H372.972V66H368.94V48.72ZM379.478 66H375.734V53.52H378.83L379.19 54.888C380.102 53.736 381.374 53.16 383.006 53.16C384.558 53.16 385.742 53.632 386.558 54.576C387.278 55.408 387.638 56.528 387.638 57.936V66H383.894V58.08C383.894 56.56 383.254 55.8 381.974 55.8C381.19 55.8 380.566 56.088 380.102 56.664C379.686 57.16 379.478 57.808 379.478 58.608V66ZM402.748 66H399.82L399.196 64.632C398.204 65.784 396.932 66.36 395.38 66.36C393.556 66.36 392.116 65.712 391.06 64.416C390.132 63.248 389.668 61.736 389.668 59.88C389.668 57.656 390.268 55.936 391.468 54.72C392.492 53.68 393.78 53.16 395.332 53.16C396.884 53.16 398.108 53.672 399.004 54.696V48.72H402.748V66ZM393.436 59.856C393.436 61.216 393.732 62.216 394.324 62.856C394.82 63.368 395.484 63.624 396.316 63.624C398.188 63.624 399.124 62.344 399.124 59.784C399.124 57.192 398.188 55.896 396.316 55.896C395.356 55.896 394.628 56.272 394.132 57.024C393.668 57.712 393.436 58.656 393.436 59.856ZM413.831 62.376H417.647C417.327 63.688 416.631 64.688 415.559 65.376C414.503 66.032 413.143 66.36 411.479 66.36C409.367 66.36 407.711 65.704 406.511 64.392C405.439 63.208 404.903 61.664 404.903 59.76C404.903 57.52 405.567 55.816 406.895 54.648C408.031 53.656 409.519 53.16 411.359 53.16C413.535 53.16 415.175 53.864 416.279 55.272C417.287 56.552 417.791 58.352 417.791 60.672H408.695C408.935 62.72 409.927 63.744 411.671 63.744C412.231 63.744 412.703 63.624 413.087 63.384C413.471 63.144 413.719 62.808 413.831 62.376ZM411.287 55.512C409.767 55.512 408.903 56.504 408.695 58.488H413.951C413.855 56.504 412.967 55.512 411.287 55.512ZM426.972 63.48V66.024C426.188 66.248 425.428 66.36 424.692 66.36C423.332 66.36 422.292 65.984 421.572 65.232C420.948 64.576 420.636 63.672 420.636 62.52V56.112H418.74V53.52H420.636L420.876 50.52H424.38V53.52H426.948V56.112H424.38V62.64C424.38 62.976 424.484 63.24 424.692 63.432C424.916 63.608 425.22 63.696 425.604 63.696C425.908 63.696 426.364 63.624 426.972 63.48ZM436.987 62.376H440.803C440.483 63.688 439.787 64.688 438.715 65.376C437.659 66.032 436.299 66.36 434.635 66.36C432.523 66.36 430.867 65.704 429.667 64.392C428.595 63.208 428.059 61.664 428.059 59.76C428.059 57.52 428.723 55.816 430.051 54.648C431.187 53.656 432.675 53.16 434.515 53.16C436.691 53.16 438.331 53.864 439.435 55.272C440.443 56.552 440.947 58.352 440.947 60.672H431.851C432.091 62.72 433.083 63.744 434.827 63.744C435.387 63.744 435.859 63.624 436.243 63.384C436.627 63.144 436.875 62.808 436.987 62.376ZM434.443 55.512C432.923 55.512 432.059 56.504 431.851 58.488H437.107C437.011 56.504 436.123 55.512 434.443 55.512ZM446.72 66H442.976V53.52H446.096L446.504 55.416C447.192 53.912 448.28 53.16 449.768 53.16C450.328 53.16 450.8 53.216 451.184 53.328V56.808C450.672 56.648 450.136 56.568 449.576 56.568C448.728 56.568 448.032 56.976 447.488 57.792C446.976 58.56 446.72 59.568 446.72 60.816V66ZM456.259 66H452.515V53.52H455.155L455.779 54.888C456.739 53.736 458.011 53.16 459.595 53.16C461.339 53.16 462.603 53.736 463.387 54.888C464.411 53.736 465.787 53.16 467.515 53.16C469.019 53.16 470.163 53.576 470.947 54.408C471.699 55.208 472.075 56.368 472.075 57.888V66H468.331V57.792C468.331 56.464 467.667 55.8 466.339 55.8C465.587 55.8 465.011 56.088 464.611 56.664C464.307 57.112 464.155 57.68 464.155 58.368V66H460.411V57.792C460.411 56.464 459.747 55.8 458.419 55.8C457.731 55.8 457.179 56.072 456.763 56.616C456.427 57.064 456.259 57.592 456.259 58.2V66ZM478.481 51.912H474.449V48.72H478.481V51.912ZM478.337 66H474.593V53.52H478.337V66ZM484.712 66H480.968V53.52H484.064L484.424 54.888C485.336 53.736 486.608 53.16 488.24 53.16C489.792 53.16 490.976 53.632 491.792 54.576C492.512 55.408 492.872 56.528 492.872 57.936V66H489.128V58.08C489.128 56.56 488.488 55.8 487.208 55.8C486.424 55.8 485.8 56.088 485.336 56.664C484.92 57.16 484.712 57.808 484.712 58.608V66ZM498.983 57.12H495.143C495.463 55.776 496.191 54.76 497.327 54.072C498.351 53.464 499.631 53.16 501.167 53.16C503.023 53.16 504.455 53.624 505.463 54.552C506.343 55.352 506.783 56.416 506.783 57.744V66H503.855L503.399 64.704C502.439 65.808 501.063 66.36 499.271 66.36C497.879 66.36 496.783 65.968 495.983 65.184C495.263 64.496 494.903 63.568 494.903 62.4C494.903 61.312 495.327 60.456 496.175 59.832C496.991 59.224 498.247 58.776 499.943 58.488L503.039 57.984V57.432C503.039 56.2 502.375 55.584 501.047 55.584C499.879 55.584 499.191 56.096 498.983 57.12ZM500.351 63.792C501.215 63.792 501.903 63.528 502.415 63C502.831 62.552 503.039 62.016 503.039 61.392V60.024L500.903 60.456C500.087 60.616 499.503 60.84 499.151 61.128C498.815 61.4 498.647 61.768 498.647 62.232C498.647 63.272 499.215 63.792 500.351 63.792ZM516.456 63.48V66.024C515.672 66.248 514.912 66.36 514.176 66.36C512.816 66.36 511.776 65.984 511.056 65.232C510.432 64.576 510.12 63.672 510.12 62.52V56.112H508.224V53.52H510.12L510.36 50.52H513.864V53.52H516.432V56.112H513.864V62.64C513.864 62.976 513.968 63.24 514.176 63.432C514.4 63.608 514.704 63.696 515.088 63.696C515.392 63.696 515.848 63.624 516.456 63.48ZM526.471 62.376H530.287C529.967 63.688 529.271 64.688 528.199 65.376C527.143 66.032 525.783 66.36 524.119 66.36C522.007 66.36 520.351 65.704 519.151 64.392C518.079 63.208 517.543 61.664 517.543 59.76C517.543 57.52 518.207 55.816 519.535 54.648C520.671 53.656 522.159 53.16 523.999 53.16C526.175 53.16 527.815 53.864 528.919 55.272C529.927 56.552 530.431 58.352 530.431 60.672H521.335C521.575 62.72 522.567 63.744 524.311 63.744C524.871 63.744 525.343 63.624 525.727 63.384C526.111 63.144 526.359 62.808 526.471 62.376ZM523.927 55.512C522.407 55.512 521.543 56.504 521.335 58.488H526.591C526.495 56.504 525.607 55.512 523.927 55.512Z" fill="white" fill-opacity="0.95"/>
<path d="M482.406 118.531C482.074 118.531 481.745 118.466 481.437 118.339C481.13 118.212 480.851 118.025 480.616 117.79C480.381 117.555 480.194 117.276 480.067 116.969C479.94 116.662 479.875 116.332 479.875 116C479.875 122.008 478.094 127.88 474.756 132.875C471.418 137.871 466.674 141.764 461.124 144.063C455.574 146.362 449.466 146.963 443.574 145.791C437.682 144.619 432.27 141.726 428.022 137.478C423.774 133.23 420.881 127.818 419.709 121.926C418.537 116.034 419.138 109.926 421.437 104.376C423.736 98.8257 427.629 94.0818 432.625 90.7441C437.62 87.4065 443.492 85.625 449.5 85.625C448.829 85.625 448.185 85.3583 447.71 84.8836C447.235 84.4089 446.969 83.7651 446.969 83.0938C446.969 82.4224 447.235 81.7786 447.71 81.3039C448.185 80.8292 448.829 80.5625 449.5 80.5625C442.491 80.5625 435.64 82.6409 429.812 86.5348C423.984 90.4287 419.442 95.9633 416.76 102.439C414.078 108.914 413.376 116.039 414.743 122.914C416.111 129.788 419.486 136.102 424.442 141.058C429.398 146.014 435.712 149.389 442.587 150.757C449.461 152.124 456.586 151.422 463.061 148.74C469.537 146.058 475.071 141.516 478.965 135.688C482.859 129.86 484.938 123.009 484.938 116C484.938 116.332 484.872 116.662 484.745 116.969C484.618 117.276 484.432 117.555 484.197 117.79C483.961 118.025 483.682 118.212 483.375 118.339C483.068 118.466 482.739 118.531 482.406 118.531Z" fill="#3B3B3B"/>
<path d="M446.969 83.0938C446.969 83.4262 447.034 83.7555 447.161 84.0626C447.288 84.3698 447.475 84.649 447.71 84.884C447.945 85.1191 448.224 85.3056 448.531 85.4327C448.839 85.5599 449.168 85.6252 449.5 85.625C457.553 85.6338 465.274 88.8368 470.969 94.5313C476.663 100.226 479.866 107.947 479.875 116C479.875 116.671 480.142 117.315 480.617 117.79C481.091 118.265 481.735 118.531 482.406 118.531C483.078 118.531 483.722 118.265 484.196 117.79C484.671 117.315 484.938 116.671 484.938 116C484.927 106.605 481.19 97.5971 474.547 90.9536C467.903 84.31 458.896 80.573 449.5 80.5625C449.168 80.5623 448.839 80.6276 448.531 80.7548C448.224 80.8819 447.945 81.0684 447.71 81.3035C447.475 81.5385 447.288 81.8177 447.161 82.1249C447.034 82.432 446.969 82.7613 446.969 83.0938Z" fill="#3492EB"/>
<path d="M455.854 164.647C455.76 164.553 455.633 164.5 455.5 164.5C455.368 164.5 455.24 164.553 455.147 164.647L449.5 170.293L443.853 164.647C443.759 164.555 443.633 164.504 443.502 164.505C443.37 164.506 443.245 164.559 443.152 164.652C443.059 164.745 443.006 164.87 443.005 165.002C443.004 165.133 443.055 165.259 443.146 165.354L449.146 171.354C449.24 171.447 449.367 171.5 449.5 171.5C449.633 171.5 449.76 171.447 449.853 171.354L455.853 165.354C455.947 165.26 456 165.133 456 165C456 164.868 455.947 164.74 455.854 164.647Z" fill="white" fill-opacity="0.7"/>
<path d="M482.406 222.531C482.074 222.531 481.745 222.466 481.437 222.339C481.13 222.212 480.851 222.025 480.616 221.79C480.381 221.555 480.194 221.276 480.067 220.969C479.94 220.662 479.875 220.332 479.875 220C479.875 226.008 478.094 231.88 474.756 236.875C471.418 241.871 466.674 245.764 461.124 248.063C455.574 250.362 449.466 250.963 443.574 249.791C437.682 248.619 432.27 245.726 428.022 241.478C423.774 237.23 420.881 231.818 419.709 225.926C418.537 220.034 419.138 213.926 421.437 208.376C423.736 202.826 427.629 198.082 432.625 194.744C437.62 191.406 443.492 189.625 449.5 189.625C448.829 189.625 448.185 189.358 447.71 188.884C447.235 188.409 446.969 187.765 446.969 187.094C446.969 186.422 447.235 185.779 447.71 185.304C448.185 184.829 448.829 184.562 449.5 184.562C442.491 184.562 435.64 186.641 429.812 190.535C423.984 194.429 419.442 199.963 416.76 206.439C414.078 212.914 413.376 220.039 414.743 226.914C416.111 233.788 419.486 240.102 424.442 245.058C429.398 250.014 435.712 253.389 442.587 254.757C449.461 256.124 456.586 255.422 463.061 252.74C469.537 250.058 475.071 245.516 478.965 239.688C482.859 233.86 484.938 227.009 484.938 220C484.938 220.332 484.872 220.662 484.745 220.969C484.618 221.276 484.432 221.555 484.197 221.79C483.961 222.025 483.682 222.212 483.375 222.339C483.068 222.466 482.739 222.531 482.406 222.531Z" fill="#3B3B3B"/>
<path d="M446.969 187.094C446.969 187.426 447.034 187.755 447.161 188.063C447.288 188.37 447.475 188.649 447.71 188.884C447.945 189.119 448.224 189.306 448.531 189.433C448.839 189.56 449.168 189.625 449.5 189.625C457.553 189.634 465.274 192.837 470.969 198.531C476.663 204.226 479.866 211.947 479.875 220C479.875 220.671 480.142 221.315 480.617 221.79C481.091 222.265 481.735 222.531 482.406 222.531C483.078 222.531 483.722 222.265 484.196 221.79C484.671 221.315 484.938 220.671 484.938 220C484.927 210.605 481.19 201.597 474.547 194.954C467.903 188.31 458.896 184.573 449.5 184.563C449.168 184.562 448.839 184.628 448.531 184.755C448.224 184.882 447.945 185.068 447.71 185.303C447.475 185.539 447.288 185.818 447.161 186.125C447.034 186.432 446.969 186.761 446.969 187.094Z" fill="#3492EB"/>
<path d="M482.406 217.48C482.074 217.48 481.745 217.545 481.437 217.672C481.13 217.799 480.851 217.986 480.616 218.221C480.381 218.456 480.194 218.735 480.067 219.042C479.94 219.35 479.875 219.679 479.875 220.011C479.866 228.064 476.663 235.785 470.969 241.48C465.274 247.174 457.553 250.377 449.5 250.386C448.829 250.386 448.185 250.653 447.71 251.128C447.235 251.602 446.969 252.246 446.969 252.917C446.969 253.589 447.235 254.233 447.71 254.707C448.185 255.182 448.829 255.449 449.5 255.449C458.895 255.438 467.903 251.701 474.546 245.058C481.19 238.414 484.927 229.407 484.937 220.011C484.938 219.679 484.872 219.35 484.745 219.042C484.618 218.735 484.432 218.456 484.197 218.221C483.961 217.986 483.682 217.799 483.375 217.672C483.068 217.545 482.739 217.48 482.406 217.48Z" fill="#3492EB"/>
<path d="M416.616 217.48C416.949 217.48 417.278 217.545 417.585 217.672C417.892 217.799 418.171 217.986 418.407 218.221C418.642 218.456 418.828 218.735 418.955 219.042C419.082 219.35 419.148 219.679 419.147 220.011C419.156 228.064 422.359 235.785 428.054 241.48C433.748 247.174 441.469 250.377 449.522 250.386C450.194 250.386 450.838 250.653 451.312 251.128C451.787 251.602 452.054 252.246 452.054 252.917C452.054 253.589 451.787 254.233 451.312 254.707C450.838 255.182 450.194 255.449 449.522 255.449C440.127 255.438 431.12 251.701 424.476 245.058C417.832 238.414 414.096 229.407 414.085 220.011C414.085 219.679 414.15 219.35 414.277 219.042C414.404 218.735 414.591 218.456 414.826 218.221C415.061 217.986 415.34 217.799 415.647 217.672C415.955 217.545 416.284 217.48 416.616 217.48Z" fill="#3492EB"/>
<path d="M455.854 268.647C455.76 268.553 455.633 268.5 455.5 268.5C455.368 268.5 455.24 268.553 455.147 268.647L449.5 274.293L443.853 268.647C443.759 268.555 443.633 268.504 443.502 268.505C443.37 268.506 443.245 268.559 443.152 268.652C443.059 268.745 443.006 268.87 443.005 269.002C443.004 269.133 443.055 269.259 443.146 269.354L449.146 275.354C449.24 275.447 449.367 275.5 449.5 275.5C449.633 275.5 449.76 275.447 449.853 275.354L455.853 269.354C455.947 269.26 456 269.133 456 269C456 268.868 455.947 268.74 455.854 268.647Z" fill="white" fill-opacity="0.7"/>
<path d="M482.406 326.531C482.074 326.531 481.745 326.466 481.437 326.339C481.13 326.212 480.851 326.025 480.616 325.79C480.381 325.555 480.194 325.276 480.067 324.969C479.94 324.662 479.875 324.332 479.875 324C479.875 330.008 478.094 335.88 474.756 340.875C471.418 345.871 466.674 349.764 461.124 352.063C455.574 354.362 449.466 354.963 443.574 353.791C437.682 352.619 432.27 349.726 428.022 345.478C423.774 341.23 420.881 335.818 419.709 329.926C418.537 324.034 419.138 317.926 421.437 312.376C423.736 306.826 427.629 302.082 432.625 298.744C437.62 295.406 443.492 293.625 449.5 293.625C448.829 293.625 448.185 293.358 447.71 292.884C447.235 292.409 446.969 291.765 446.969 291.094C446.969 290.422 447.235 289.779 447.71 289.304C448.185 288.829 448.829 288.562 449.5 288.562C442.491 288.562 435.64 290.641 429.812 294.535C423.984 298.429 419.442 303.963 416.76 310.439C414.078 316.914 413.376 324.039 414.743 330.914C416.111 337.788 419.486 344.102 424.442 349.058C429.398 354.014 435.712 357.389 442.587 358.757C449.461 360.124 456.586 359.422 463.061 356.74C469.537 354.058 475.071 349.516 478.965 343.688C482.859 337.86 484.938 331.009 484.938 324C484.938 324.332 484.872 324.662 484.745 324.969C484.618 325.276 484.432 325.555 484.197 325.79C483.961 326.025 483.682 326.212 483.375 326.339C483.068 326.466 482.739 326.531 482.406 326.531Z" fill="#3B3B3B"/>
<path d="M446.969 291.094C446.969 291.426 447.034 291.755 447.161 292.063C447.288 292.37 447.475 292.649 447.71 292.884C447.945 293.119 448.224 293.306 448.531 293.433C448.839 293.56 449.168 293.625 449.5 293.625C457.553 293.634 465.274 296.837 470.969 302.531C476.663 308.226 479.866 315.947 479.875 324C479.875 324.671 480.142 325.315 480.617 325.79C481.091 326.265 481.735 326.531 482.406 326.531C483.078 326.531 483.722 326.265 484.196 325.79C484.671 325.315 484.938 324.671 484.938 324C484.927 314.605 481.19 305.597 474.547 298.954C467.903 292.31 458.896 288.573 449.5 288.563C449.168 288.562 448.839 288.628 448.531 288.755C448.224 288.882 447.945 289.068 447.71 289.303C447.475 289.539 447.288 289.818 447.161 290.125C447.034 290.432 446.969 290.761 446.969 291.094Z" fill="#3492EB"/>
</svg>
