<svg width="18" height="18" viewBox="0 0 18 18" fill="none" xmlns="http://www.w3.org/2000/svg">
<path d="M16.3125 9.5625C16.2386 9.56254 16.1655 9.54802 16.0972 9.51977C16.0289 9.49152 15.9669 9.45008 15.9147 9.39784C15.8624 9.3456 15.821 9.28358 15.7927 9.21531C15.7645 9.14705 15.75 9.07388 15.75 9C15.75 10.335 15.3541 11.6401 14.6124 12.7501C13.8707 13.8601 12.8165 14.7253 11.5831 15.2362C10.3497 15.7471 8.99252 15.8808 7.68314 15.6203C6.37377 15.3598 5.17104 14.717 4.22703 13.773C3.28303 12.829 2.64015 11.6262 2.3797 10.3169C2.11925 9.00749 2.25293 7.65029 2.76382 6.41689C3.27471 5.18349 4.13987 4.12928 5.2499 3.38758C6.35994 2.64588 7.66498 2.25 9 2.25C8.85082 2.25 8.70775 2.19074 8.60226 2.08525C8.49677 1.97976 8.4375 1.83668 8.4375 1.6875C8.4375 1.53832 8.49677 1.39524 8.60226 1.28975C8.70775 1.18426 8.85082 1.125 9 1.125C7.44248 1.125 5.91992 1.58686 4.62489 2.45218C3.32985 3.31749 2.32049 4.5474 1.72445 5.98637C1.12841 7.42534 0.972461 9.00874 1.27632 10.5363C1.58018 12.0639 2.3302 13.4671 3.43154 14.5685C4.53288 15.6698 5.93607 16.4198 7.46367 16.7237C8.99127 17.0275 10.5747 16.8716 12.0136 16.2756C13.4526 15.6795 14.6825 14.6702 15.5478 13.3751C16.4131 12.0801 16.875 10.5575 16.875 9C16.875 9.07388 16.8605 9.14705 16.8323 9.21531C16.804 9.28358 16.7626 9.3456 16.7103 9.39784C16.6581 9.45008 16.5961 9.49152 16.5278 9.51977C16.4595 9.54802 16.3864 9.56254 16.3125 9.5625Z" fill="#3B3B3B"/>
<path d="M8.4375 1.6875C8.43746 1.76138 8.45198 1.83455 8.48023 1.90281C8.50848 1.97108 8.54992 2.0331 8.60216 2.08534C8.6544 2.13758 8.71643 2.17902 8.78469 2.20727C8.85296 2.23552 8.92612 2.25004 9 2.25C10.7896 2.25195 12.5054 2.96374 13.7708 4.22919C15.0363 5.49463 15.748 7.21039 15.75 9C15.75 9.14918 15.8093 9.29226 15.9148 9.39775C16.0202 9.50324 16.1633 9.5625 16.3125 9.5625C16.4617 9.5625 16.6048 9.50324 16.7102 9.39775C16.8157 9.29226 16.875 9.14918 16.875 9C16.8727 6.91214 16.0422 4.91046 14.5659 3.43412C13.0895 1.95778 11.0879 1.12734 9 1.125C8.92612 1.12496 8.85296 1.13948 8.78469 1.16773C8.71643 1.19598 8.6544 1.23742 8.60216 1.28966C8.54992 1.3419 8.50848 1.40392 8.48023 1.47219C8.45198 1.54045 8.43746 1.61362 8.4375 1.6875Z" fill="#3492EB"/>
</svg>
