<svg width="36" height="36" viewBox="0 0 36 36" fill="none" xmlns="http://www.w3.org/2000/svg">
<path d="M16.875 3.375C16.8749 3.52276 16.904 3.66909 16.9605 3.80562C17.017 3.94215 17.0998 4.0662 17.2043 4.17069C17.3088 4.27517 17.4329 4.35803 17.5694 4.41454C17.7059 4.47105 17.8522 4.50009 18 4.5C21.5792 4.50391 25.0107 5.92748 27.5416 8.45837C30.0725 10.9893 31.4961 14.4208 31.5 18C31.5 18.2984 31.6185 18.5845 31.8295 18.7955C32.0405 19.0065 32.3266 19.125 32.625 19.125C32.9234 19.125 33.2095 19.0065 33.4205 18.7955C33.6315 18.5845 33.75 18.2984 33.75 18C33.7453 13.8243 32.0844 9.82093 29.1318 6.86824C26.1791 3.91556 22.1757 2.25469 18 2.25C17.8522 2.24991 17.7059 2.27895 17.5694 2.33546C17.4329 2.39197 17.3088 2.47483 17.2043 2.57931C17.0998 2.6838 17.017 2.80785 16.9605 2.94438C16.904 3.08091 16.8749 3.22724 16.875 3.375Z" fill="#27A17A"/>
<path d="M15.0003 23.125C14.9179 23.1252 14.8363 23.109 14.7602 23.0773C14.6841 23.0457 14.6151 22.9992 14.5572 22.9407L10.0571 18.4186C9.99919 18.3604 9.95335 18.2913 9.92215 18.2154C9.89096 18.1395 9.87502 18.0582 9.87525 17.9762C9.87547 17.8941 9.89186 17.8129 9.92348 17.7371C9.9551 17.6614 10.0013 17.5926 10.0595 17.5348C10.1177 17.4769 10.1867 17.431 10.2626 17.3999C10.3385 17.3687 10.4199 17.3527 10.5019 17.3529C10.584 17.3532 10.6652 17.3696 10.7409 17.4012C10.8167 17.4328 10.8854 17.479 10.9433 17.5372L15.0339 21.6479L25.0937 13.0261C25.2195 12.9183 25.3829 12.8649 25.5481 12.8776C25.7133 12.8903 25.8666 12.9681 25.9744 13.0939C26.0822 13.2196 26.1357 13.3831 26.123 13.5483C26.1102 13.7134 26.0324 13.8668 25.9067 13.9746L15.4068 22.9742C15.2938 23.0716 15.1495 23.1251 15.0003 23.125Z" fill="#27A17A"/>
<path d="M19.1399 3.375C19.14 3.52276 19.1109 3.66909 19.0544 3.80562C18.9979 3.94215 18.9151 4.0662 18.8106 4.17069C18.7061 4.27517 18.582 4.35803 18.4455 4.41454C18.309 4.47105 18.1627 4.50009 18.0149 4.5C14.4357 4.50391 11.0042 5.92748 8.47327 8.45837C5.94237 10.9893 4.5188 14.4208 4.51489 18C4.51489 18.2984 4.39637 18.5845 4.18539 18.7955C3.97441 19.0065 3.68826 19.125 3.38989 19.125C3.09153 19.125 2.80538 19.0065 2.5944 18.7955C2.38342 18.5845 2.26489 18.2984 2.26489 18C2.26958 13.8243 3.93046 9.82093 6.88314 6.86824C9.83582 3.91556 13.8392 2.25469 18.0149 2.25C18.1627 2.24991 18.309 2.27895 18.4455 2.33546C18.582 2.39197 18.7061 2.47483 18.8106 2.57931C18.9151 2.6838 18.9979 2.80785 19.0544 2.94438C19.1109 3.08091 19.14 3.22724 19.1399 3.375Z" fill="#27A17A"/>
<path d="M32.625 16.8799C32.4772 16.8798 32.3309 16.9088 32.1944 16.9653C32.0578 17.0218 31.9338 17.1047 31.8293 17.2092C31.7248 17.3137 31.642 17.4377 31.5855 17.5743C31.529 17.7108 31.4999 17.8571 31.5 18.0049C31.4961 21.5841 30.0725 25.0156 27.5416 27.5465C25.0107 30.0774 21.5792 31.501 18 31.5049C17.7016 31.5049 17.4155 31.6234 17.2045 31.8344C16.9935 32.0454 16.875 32.3315 16.875 32.6299C16.875 32.9282 16.9935 33.2144 17.2045 33.4254C17.4155 33.6364 17.7016 33.7549 18 33.7549C22.1757 33.7502 26.1791 32.0893 29.1318 29.1366C32.0844 26.184 33.7453 22.1806 33.75 18.0049C33.7501 17.8571 33.721 17.7108 33.6645 17.5743C33.608 17.4377 33.5252 17.3137 33.4207 17.2092C33.3162 17.1047 33.1922 17.0218 33.0556 16.9653C32.9191 16.9088 32.7728 16.8798 32.625 16.8799Z" fill="#27A17A"/>
<path d="M3.38501 16.8799C3.53277 16.8798 3.6791 16.9088 3.81563 16.9653C3.95216 17.0218 4.07621 17.1047 4.1807 17.2092C4.28518 17.3137 4.36804 17.4377 4.42455 17.5743C4.48106 17.7108 4.5101 17.8571 4.51001 18.0049C4.51392 21.5841 5.93749 25.0156 8.46838 27.5465C10.9993 30.0774 14.4308 31.501 18.01 31.5049C18.3084 31.5049 18.5945 31.6234 18.8055 31.8344C19.0165 32.0454 19.135 32.3315 19.135 32.6299C19.135 32.9282 19.0165 33.2144 18.8055 33.4254C18.5945 33.6364 18.3084 33.7549 18.01 33.7549C13.8343 33.7502 9.83094 32.0893 6.87825 29.1366C3.92557 26.184 2.2647 22.1806 2.26001 18.0049C2.25992 17.8571 2.28896 17.7108 2.34547 17.5743C2.40198 17.4377 2.48484 17.3137 2.58932 17.2092C2.69381 17.1047 2.81786 17.0218 2.95439 16.9653C3.09092 16.9088 3.23725 16.8798 3.38501 16.8799Z" fill="#27A17A"/>
</svg>
