<svg width="370" height="210" viewBox="0 0 370 210" fill="none" xmlns="http://www.w3.org/2000/svg">
<rect width="370" height="210" rx="24" fill="#1A1A1A"/>
<path d="M226.907 98.5312C226.574 98.5314 226.245 98.4661 225.938 98.339C225.63 98.2118 225.351 98.0254 225.116 97.7903C224.881 97.5552 224.695 97.2761 224.568 96.9689C224.44 96.6617 224.375 96.3325 224.375 96C224.375 102.008 222.594 107.88 219.256 112.875C215.919 117.871 211.175 121.764 205.624 124.063C200.074 126.362 193.967 126.963 188.074 125.791C182.182 124.619 176.77 121.726 172.522 117.478C168.274 113.23 165.381 107.818 164.209 101.926C163.037 96.0337 163.638 89.9263 165.937 84.376C168.236 78.8257 172.13 74.0818 177.125 70.7441C182.12 67.4065 187.993 65.625 194 65.625C193.329 65.625 192.685 65.3583 192.21 64.8836C191.736 64.4089 191.469 63.7651 191.469 63.0938C191.469 62.4224 191.736 61.7786 192.21 61.3039C192.685 60.8292 193.329 60.5625 194 60.5625C186.991 60.5625 180.14 62.6409 174.312 66.5348C168.485 70.4287 163.942 75.9633 161.26 82.4387C158.578 88.914 157.876 96.0393 159.244 102.914C160.611 109.788 163.986 116.102 168.942 121.058C173.898 126.014 180.213 129.389 187.087 130.757C193.961 132.124 201.086 131.422 207.562 128.74C214.037 126.058 219.572 121.516 223.465 115.688C227.359 109.86 229.438 103.009 229.438 96C229.438 96.3325 229.373 96.6617 229.245 96.9689C229.118 97.2761 228.932 97.5552 228.697 97.7903C228.462 98.0254 228.183 98.2118 227.875 98.339C227.568 98.4661 227.239 98.5314 226.907 98.5312Z" fill="#3B3B3B"/>
<path d="M191.469 63.0938C191.469 63.4262 191.534 63.7555 191.661 64.0626C191.788 64.3698 191.975 64.649 192.21 64.884C192.445 65.1191 192.724 65.3056 193.031 65.4327C193.339 65.5599 193.668 65.6252 194 65.625C202.053 65.6338 209.774 68.8368 215.469 74.5313C221.163 80.2259 224.366 87.9467 224.375 96C224.375 96.6713 224.642 97.3152 225.117 97.7899C225.591 98.2646 226.235 98.5312 226.906 98.5312C227.578 98.5312 228.222 98.2646 228.696 97.7899C229.171 97.3152 229.438 96.6713 229.438 96C229.427 86.6046 225.69 77.5971 219.047 70.9536C212.403 64.31 203.396 60.573 194 60.5625C193.668 60.5623 193.339 60.6276 193.031 60.7548C192.724 60.8819 192.445 61.0684 192.21 61.3035C191.975 61.5385 191.788 61.8177 191.661 62.1249C191.534 62.432 191.469 62.7613 191.469 63.0938Z" fill="#3492EB"/>
<path d="M226.906 93.48C226.574 93.4798 226.245 93.5451 225.937 93.6723C225.63 93.7994 225.351 93.9858 225.116 94.2209C224.881 94.456 224.694 94.7351 224.567 95.0423C224.44 95.3495 224.375 95.6788 224.375 96.0112C224.366 104.064 221.163 111.785 215.469 117.48C209.774 123.174 202.053 126.377 194 126.386C193.329 126.386 192.685 126.653 192.21 127.128C191.735 127.602 191.469 128.246 191.469 128.917C191.469 129.589 191.735 130.233 192.21 130.707C192.685 131.182 193.329 131.449 194 131.449C203.395 131.438 212.403 127.701 219.046 121.058C225.69 114.414 229.427 105.407 229.437 96.0112C229.438 95.6788 229.372 95.3495 229.245 95.0423C229.118 94.7351 228.932 94.456 228.697 94.2209C228.461 93.9858 228.182 93.7994 227.875 93.6723C227.568 93.5451 227.239 93.4798 226.906 93.48Z" fill="#3492EB"/>
<path d="M161.116 93.48C161.449 93.4798 161.778 93.5451 162.085 93.6723C162.392 93.7994 162.671 93.9858 162.907 94.2209C163.142 94.456 163.328 94.7351 163.455 95.0423C163.582 95.3495 163.648 95.6788 163.647 96.0112C163.656 104.064 166.859 111.785 172.554 117.48C178.248 123.174 185.969 126.377 194.022 126.386C194.694 126.386 195.338 126.653 195.812 127.128C196.287 127.602 196.554 128.246 196.554 128.917C196.554 129.589 196.287 130.233 195.812 130.707C195.338 131.182 194.694 131.449 194.022 131.449C184.627 131.438 175.62 127.701 168.976 121.058C162.332 114.414 158.596 105.407 158.585 96.0112C158.585 95.6788 158.65 95.3495 158.777 95.0423C158.904 94.7351 159.091 94.456 159.326 94.2209C159.561 93.9858 159.84 93.7994 160.147 93.6723C160.455 93.5451 160.784 93.4798 161.116 93.48Z" fill="#3492EB"/>
<g clip-path="url(#clip0_489_5488)">
<line x1="228.5" y1="151.478" x2="228.5" y2="136.478" stroke="#30C9B0"/>
<line x1="228" y1="143.978" x2="244" y2="143.978" stroke="#30C9B0"/>
<line x1="243.5" y1="151.478" x2="243.5" y2="136.478" stroke="#30C9B0"/>
</g>
<path d="M233.552 167H232.14V160.203L229.955 161.006V159.77L233.464 158.469H233.552V167ZM241.032 158.428V159.617H240.938C240.473 159.617 240.069 159.682 239.725 159.811C239.385 159.936 239.098 160.111 238.864 160.338C238.626 160.564 238.44 160.836 238.307 161.152C238.178 161.469 238.098 161.809 238.067 162.172C238.161 162.066 238.27 161.965 238.395 161.867C238.52 161.766 238.659 161.676 238.811 161.598C238.956 161.523 239.116 161.465 239.292 161.422C239.467 161.375 239.653 161.352 239.848 161.352C240.262 161.352 240.622 161.43 240.926 161.586C241.235 161.742 241.489 161.953 241.688 162.219C241.891 162.484 242.04 162.789 242.133 163.133C242.231 163.477 242.28 163.834 242.28 164.205C242.28 164.611 242.217 164.992 242.092 165.348C241.971 165.699 241.794 166.006 241.559 166.268C241.321 166.533 241.03 166.742 240.686 166.895C240.346 167.043 239.958 167.117 239.52 167.117C239.071 167.117 238.67 167.031 238.319 166.859C237.967 166.688 237.67 166.455 237.428 166.162C237.17 165.857 236.975 165.5 236.842 165.09C236.71 164.676 236.643 164.24 236.643 163.783V163.203C236.643 162.516 236.731 161.861 236.907 161.24C237.086 160.615 237.383 160.078 237.797 159.629C238.149 159.242 238.583 158.945 239.098 158.738C239.614 158.531 240.204 158.428 240.868 158.428H241.032ZM239.503 162.488C239.335 162.488 239.174 162.514 239.022 162.564C238.87 162.615 238.729 162.686 238.6 162.775C238.483 162.865 238.378 162.969 238.284 163.086C238.19 163.203 238.112 163.334 238.049 163.479V163.912C238.049 164.252 238.086 164.551 238.161 164.809C238.239 165.066 238.344 165.281 238.477 165.453C238.61 165.625 238.764 165.756 238.94 165.846C239.116 165.936 239.303 165.98 239.503 165.98C239.721 165.98 239.917 165.938 240.088 165.852C240.26 165.762 240.407 165.641 240.528 165.488C240.649 165.332 240.741 165.148 240.803 164.938C240.866 164.723 240.897 164.49 240.897 164.24C240.897 164.002 240.866 163.777 240.803 163.566C240.745 163.352 240.657 163.164 240.54 163.004C240.422 162.844 240.276 162.719 240.1 162.629C239.928 162.535 239.729 162.488 239.503 162.488Z" fill="#30C9B0"/>
<rect opacity="0.5" x="228" y="60" width="16" height="70" fill="#30C9B0"/>
<rect opacity="0.5" x="158" y="44" width="70" height="16" fill="#30C9B0"/>
<g clip-path="url(#clip1_489_5488)">
<line x1="139" y1="44.5" x2="154" y2="44.5" stroke="#30C9B0"/>
<line x1="146.5" y1="62" x2="146.5" y2="46" stroke="#30C9B0"/>
<line x1="139" y1="59.5" x2="154" y2="59.5" stroke="#30C9B0"/>
</g>
<path d="M123.482 57V47.0469H123.38L119.285 48.5645V50.0068L121.835 49.0703V57H123.482ZM132.209 46.999H132.017C131.242 46.999 130.554 47.1198 129.953 47.3613C129.351 47.6029 128.845 47.9492 128.435 48.4004C127.952 48.9245 127.606 49.5511 127.396 50.2803C127.191 51.0049 127.089 51.7682 127.089 52.5703V53.2471C127.089 53.7803 127.166 54.2884 127.321 54.7715C127.476 55.25 127.704 55.667 128.005 56.0225C128.287 56.3643 128.633 56.6354 129.044 56.8359C129.454 57.0365 129.921 57.1367 130.445 57.1367C130.955 57.1367 131.409 57.0501 131.805 56.877C132.206 56.6992 132.546 56.4554 132.824 56.1455C133.097 55.8402 133.305 55.4824 133.446 55.0723C133.592 54.6576 133.665 54.2132 133.665 53.7393C133.665 53.3063 133.608 52.8893 133.494 52.4883C133.384 52.0872 133.211 51.7318 132.974 51.4219C132.742 51.112 132.446 50.8659 132.086 50.6836C131.73 50.5013 131.311 50.4102 130.828 50.4102C130.6 50.4102 130.383 50.4375 130.178 50.4922C129.973 50.5423 129.786 50.6107 129.618 50.6973C129.44 50.7884 129.278 50.8932 129.132 51.0117C128.987 51.1257 128.859 51.2441 128.75 51.3672C128.786 50.9434 128.88 50.5469 129.03 50.1777C129.185 49.8086 129.401 49.4919 129.679 49.2275C129.953 48.9632 130.288 48.7581 130.684 48.6123C131.085 48.4619 131.557 48.3867 132.099 48.3867H132.209V46.999ZM130.424 51.7363C130.689 51.7363 130.921 51.791 131.122 51.9004C131.327 52.0052 131.498 52.151 131.634 52.3379C131.771 52.5247 131.874 52.7435 131.942 52.9941C132.015 53.2402 132.051 53.5023 132.051 53.7803C132.051 54.0719 132.015 54.3431 131.942 54.5938C131.869 54.8398 131.762 55.054 131.621 55.2363C131.479 55.4141 131.309 55.5553 131.108 55.6602C130.908 55.7604 130.68 55.8105 130.424 55.8105C130.192 55.8105 129.973 55.7581 129.768 55.6533C129.563 55.5485 129.383 55.3958 129.228 55.1953C129.073 54.9948 128.95 54.7441 128.859 54.4434C128.772 54.1426 128.729 53.7939 128.729 53.3975V52.8916C128.802 52.723 128.893 52.5703 129.003 52.4336C129.112 52.2969 129.235 52.1761 129.372 52.0713C129.522 51.9665 129.686 51.8844 129.864 51.8252C130.042 51.766 130.228 51.7363 130.424 51.7363Z" fill="#30C9B0"/>
<defs>
<clipPath id="clip0_489_5488">
<rect width="16" height="15" fill="white" transform="translate(228 136.478)"/>
</clipPath>
<clipPath id="clip1_489_5488">
<rect width="15" height="16" fill="white" transform="translate(139 44)"/>
</clipPath>
</defs>
</svg>
