<svg width="1300" height="232" viewBox="0 0 1300 232" fill="none" xmlns="http://www.w3.org/2000/svg">
<rect width="1300" height="232" rx="24" fill="#262626"/>
<path d="M550.625 117.125C550.477 117.125 550.331 117.096 550.194 117.04C550.058 116.983 549.934 116.9 549.829 116.796C549.725 116.691 549.642 116.567 549.585 116.431C549.529 116.294 549.5 116.148 549.5 116C549.5 118.67 548.708 121.28 547.225 123.5C545.741 125.72 543.633 127.451 541.166 128.472C538.699 129.494 535.985 129.762 533.366 129.241C530.748 128.72 528.342 127.434 526.454 125.546C524.566 123.658 523.28 121.252 522.759 118.634C522.239 116.015 522.506 113.301 523.528 110.834C524.549 108.367 526.28 106.259 528.5 104.775C530.72 103.292 533.33 102.5 536 102.5C535.702 102.5 535.415 102.381 535.205 102.17C534.994 101.96 534.875 101.673 534.875 101.375C534.875 101.077 534.994 100.79 535.205 100.58C535.415 100.369 535.702 100.25 536 100.25C532.885 100.25 529.84 101.174 527.25 102.904C524.66 104.635 522.641 107.095 521.449 109.973C520.257 112.851 519.945 116.017 520.553 119.073C521.16 122.128 522.66 124.934 524.863 127.137C527.066 129.34 529.872 130.84 532.927 131.447C535.983 132.055 539.149 131.743 542.027 130.551C544.905 129.359 547.365 127.34 549.096 124.75C550.826 122.16 551.75 119.115 551.75 116C551.75 116.148 551.721 116.294 551.665 116.431C551.608 116.567 551.525 116.691 551.421 116.796C551.316 116.9 551.192 116.983 551.056 117.04C550.919 117.096 550.773 117.125 550.625 117.125Z" fill="#3B3B3B"/>
<path d="M534.875 101.375C534.875 101.523 534.904 101.669 534.96 101.806C535.017 101.942 535.1 102.066 535.204 102.171C535.309 102.275 535.433 102.358 535.569 102.415C535.706 102.471 535.852 102.5 536 102.5C539.579 102.504 543.011 103.927 545.542 106.458C548.073 108.989 549.496 112.421 549.5 116C549.5 116.298 549.619 116.585 549.83 116.795C550.04 117.006 550.327 117.125 550.625 117.125C550.923 117.125 551.21 117.006 551.42 116.795C551.631 116.585 551.75 116.298 551.75 116C551.745 111.824 550.084 107.821 547.132 104.868C544.179 101.916 540.176 100.255 536 100.25C535.852 100.25 535.706 100.279 535.569 100.335C535.433 100.392 535.309 100.475 535.204 100.579C535.1 100.684 535.017 100.808 534.96 100.944C534.904 101.081 534.875 101.227 534.875 101.375Z" fill="#3492EB"/>
<path d="M626.625 117.125C626.477 117.125 626.331 117.096 626.194 117.04C626.058 116.983 625.934 116.9 625.829 116.796C625.725 116.691 625.642 116.567 625.585 116.431C625.529 116.294 625.5 116.148 625.5 116C625.5 118.67 624.708 121.28 623.225 123.5C621.741 125.72 619.633 127.451 617.166 128.472C614.699 129.494 611.985 129.762 609.366 129.241C606.748 128.72 604.342 127.434 602.454 125.546C600.566 123.658 599.28 121.252 598.759 118.634C598.239 116.015 598.506 113.301 599.528 110.834C600.549 108.367 602.28 106.259 604.5 104.775C606.72 103.292 609.33 102.5 612 102.5C611.702 102.5 611.415 102.381 611.205 102.17C610.994 101.96 610.875 101.673 610.875 101.375C610.875 101.077 610.994 100.79 611.205 100.58C611.415 100.369 611.702 100.25 612 100.25C608.885 100.25 605.84 101.174 603.25 102.904C600.66 104.635 598.641 107.095 597.449 109.973C596.257 112.851 595.945 116.017 596.553 119.073C597.16 122.128 598.66 124.934 600.863 127.137C603.066 129.34 605.872 130.84 608.927 131.447C611.983 132.055 615.149 131.743 618.027 130.551C620.905 129.359 623.365 127.34 625.096 124.75C626.826 122.16 627.75 119.115 627.75 116C627.75 116.148 627.721 116.294 627.665 116.431C627.608 116.567 627.525 116.691 627.421 116.796C627.316 116.9 627.192 116.983 627.056 117.04C626.919 117.096 626.773 117.125 626.625 117.125Z" fill="#3B3B3B"/>
<path d="M610.875 101.375C610.875 101.523 610.904 101.669 610.96 101.806C611.017 101.942 611.1 102.066 611.204 102.171C611.309 102.275 611.433 102.358 611.569 102.415C611.706 102.471 611.852 102.5 612 102.5C615.579 102.504 619.011 103.927 621.542 106.458C624.073 108.989 625.496 112.421 625.5 116C625.5 116.298 625.619 116.585 625.83 116.795C626.04 117.006 626.327 117.125 626.625 117.125C626.923 117.125 627.21 117.006 627.42 116.795C627.631 116.585 627.75 116.298 627.75 116C627.745 111.824 626.084 107.821 623.132 104.868C620.179 101.916 616.176 100.255 612 100.25C611.852 100.25 611.706 100.279 611.569 100.335C611.433 100.392 611.309 100.475 611.204 100.579C611.1 100.684 611.017 100.808 610.96 100.944C610.904 101.081 610.875 101.227 610.875 101.375Z" fill="#3492EB"/>
<path d="M626.625 114.88C626.477 114.88 626.331 114.909 626.194 114.965C626.058 115.022 625.934 115.105 625.829 115.209C625.725 115.314 625.642 115.438 625.585 115.574C625.529 115.711 625.5 115.857 625.5 116.005C625.496 119.584 624.073 123.016 621.542 125.547C619.011 128.077 615.579 129.501 612 129.505C611.702 129.505 611.415 129.623 611.205 129.834C610.994 130.045 610.875 130.332 610.875 130.63C610.875 130.928 610.994 131.214 611.205 131.425C611.415 131.636 611.702 131.755 612 131.755C616.176 131.75 620.179 130.089 623.132 127.137C626.084 124.184 627.745 120.181 627.75 116.005C627.75 115.857 627.721 115.711 627.665 115.574C627.608 115.438 627.525 115.314 627.421 115.209C627.316 115.105 627.192 115.022 627.056 114.965C626.919 114.909 626.773 114.88 626.625 114.88Z" fill="#3492EB"/>
<path d="M597.385 114.88C597.533 114.88 597.679 114.909 597.816 114.965C597.952 115.022 598.076 115.105 598.181 115.209C598.285 115.314 598.368 115.438 598.425 115.574C598.481 115.711 598.51 115.857 598.51 116.005C598.514 119.584 599.937 123.016 602.468 125.547C604.999 128.077 608.431 129.501 612.01 129.505C612.308 129.505 612.595 129.623 612.806 129.834C613.016 130.045 613.135 130.332 613.135 130.63C613.135 130.928 613.016 131.214 612.806 131.425C612.595 131.636 612.308 131.755 612.01 131.755C607.834 131.75 603.831 130.089 600.878 127.137C597.926 124.184 596.265 120.181 596.26 116.005C596.26 115.857 596.289 115.711 596.345 115.574C596.402 115.438 596.485 115.314 596.589 115.209C596.694 115.105 596.818 115.022 596.954 114.965C597.091 114.909 597.237 114.88 597.385 114.88Z" fill="#3492EB"/>
<path d="M686.875 101.375C686.875 101.523 686.904 101.669 686.96 101.806C687.017 101.942 687.1 102.066 687.204 102.171C687.309 102.275 687.433 102.358 687.569 102.415C687.706 102.471 687.852 102.5 688 102.5C691.579 102.504 695.011 103.927 697.542 106.458C700.073 108.989 701.496 112.421 701.5 116C701.5 116.298 701.619 116.585 701.83 116.795C702.04 117.006 702.327 117.125 702.625 117.125C702.923 117.125 703.21 117.006 703.42 116.795C703.631 116.585 703.75 116.298 703.75 116C703.745 111.824 702.084 107.821 699.132 104.868C696.179 101.916 692.176 100.255 688 100.25C687.852 100.25 687.706 100.279 687.569 100.335C687.433 100.392 687.309 100.475 687.204 100.579C687.1 100.684 687.017 100.808 686.96 100.944C686.904 101.081 686.875 101.227 686.875 101.375Z" fill="#27A17A"/>
<path d="M685 121.125C684.918 121.125 684.836 121.109 684.76 121.077C684.684 121.046 684.615 120.999 684.557 120.941L680.057 116.419C679.999 116.36 679.953 116.291 679.922 116.215C679.891 116.14 679.875 116.058 679.875 115.976C679.875 115.894 679.892 115.813 679.923 115.737C679.955 115.661 680.001 115.593 680.06 115.535C680.118 115.477 680.187 115.431 680.263 115.4C680.339 115.369 680.42 115.353 680.502 115.353C680.584 115.353 680.665 115.37 680.741 115.401C680.817 115.433 680.885 115.479 680.943 115.537L685.034 119.648L695.094 111.026C695.219 110.918 695.383 110.865 695.548 110.878C695.713 110.89 695.867 110.968 695.974 111.094C696.082 111.22 696.136 111.383 696.123 111.548C696.11 111.713 696.032 111.867 695.907 111.975L685.407 120.974C685.294 121.072 685.149 121.125 685 121.125Z" fill="#27A17A"/>
<path d="M689.14 101.375C689.14 101.523 689.111 101.669 689.054 101.806C688.998 101.942 688.915 102.066 688.811 102.171C688.706 102.275 688.582 102.358 688.446 102.415C688.309 102.471 688.163 102.5 688.015 102.5C684.436 102.504 681.004 103.927 678.473 106.458C675.942 108.989 674.519 112.421 674.515 116C674.515 116.298 674.396 116.585 674.185 116.795C673.974 117.006 673.688 117.125 673.39 117.125C673.092 117.125 672.805 117.006 672.594 116.795C672.383 116.585 672.265 116.298 672.265 116C672.27 111.824 673.93 107.821 676.883 104.868C679.836 101.916 683.839 100.255 688.015 100.25C688.163 100.25 688.309 100.279 688.446 100.335C688.582 100.392 688.706 100.475 688.811 100.579C688.915 100.684 688.998 100.808 689.054 100.944C689.111 101.081 689.14 101.227 689.14 101.375Z" fill="#27A17A"/>
<path d="M702.625 114.88C702.477 114.88 702.331 114.909 702.194 114.965C702.058 115.022 701.934 115.105 701.829 115.209C701.725 115.314 701.642 115.438 701.585 115.574C701.529 115.711 701.5 115.857 701.5 116.005C701.496 119.584 700.073 123.016 697.542 125.547C695.011 128.077 691.579 129.501 688 129.505C687.702 129.505 687.415 129.623 687.205 129.834C686.994 130.045 686.875 130.332 686.875 130.63C686.875 130.928 686.994 131.214 687.205 131.425C687.415 131.636 687.702 131.755 688 131.755C692.176 131.75 696.179 130.089 699.132 127.137C702.084 124.184 703.745 120.181 703.75 116.005C703.75 115.857 703.721 115.711 703.665 115.574C703.608 115.438 703.525 115.314 703.421 115.209C703.316 115.105 703.192 115.022 703.056 114.965C702.919 114.909 702.773 114.88 702.625 114.88Z" fill="#27A17A"/>
<path d="M673.385 114.88C673.533 114.88 673.679 114.909 673.816 114.965C673.952 115.022 674.076 115.105 674.181 115.209C674.285 115.314 674.368 115.438 674.425 115.574C674.481 115.711 674.51 115.857 674.51 116.005C674.514 119.584 675.937 123.016 678.468 125.547C680.999 128.077 684.431 129.501 688.01 129.505C688.308 129.505 688.595 129.623 688.806 129.834C689.016 130.045 689.135 130.332 689.135 130.63C689.135 130.928 689.016 131.214 688.806 131.425C688.595 131.636 688.308 131.755 688.01 131.755C683.834 131.75 679.831 130.089 676.878 127.137C673.926 124.184 672.265 120.181 672.26 116.005C672.26 115.857 672.289 115.711 672.345 115.574C672.402 115.438 672.485 115.314 672.589 115.209C672.694 115.105 672.818 115.022 672.954 114.965C673.091 114.909 673.237 114.88 673.385 114.88Z" fill="#27A17A"/>
<path d="M762.875 101.375C762.875 101.523 762.904 101.669 762.96 101.806C763.017 101.942 763.1 102.066 763.204 102.171C763.309 102.275 763.433 102.358 763.569 102.415C763.706 102.471 763.852 102.5 764 102.5C767.579 102.504 771.011 103.927 773.542 106.458C776.073 108.989 777.496 112.421 777.5 116C777.5 116.298 777.619 116.585 777.83 116.795C778.04 117.006 778.327 117.125 778.625 117.125C778.923 117.125 779.21 117.006 779.42 116.795C779.631 116.585 779.75 116.298 779.75 116C779.745 111.824 778.084 107.821 775.132 104.868C772.179 101.916 768.176 100.255 764 100.25C763.852 100.25 763.706 100.279 763.569 100.335C763.433 100.392 763.309 100.475 763.204 100.579C763.1 100.684 763.017 100.808 762.96 100.944C762.904 101.081 762.875 101.227 762.875 101.375Z" fill="#F55868"/>
<path d="M764 124C764.707 124 765.28 123.427 765.28 122.72C765.28 122.013 764.707 121.44 764 121.44C763.293 121.44 762.72 122.013 762.72 122.72C762.72 123.427 763.293 124 764 124Z" fill="#F55868"/>
<path d="M764 118.88C764.255 118.88 764.499 118.779 764.679 118.599C764.859 118.419 764.96 118.175 764.96 117.92V108.96C764.96 108.705 764.859 108.461 764.679 108.281C764.499 108.101 764.255 108 764 108C763.746 108 763.501 108.101 763.321 108.281C763.141 108.461 763.04 108.705 763.04 108.96V117.92C763.04 118.175 763.142 118.419 763.322 118.599C763.502 118.779 763.746 118.88 764 118.88Z" fill="#F55868"/>
<path d="M765.14 101.375C765.14 101.523 765.111 101.669 765.055 101.806C764.998 101.942 764.915 102.066 764.811 102.171C764.706 102.275 764.582 102.358 764.446 102.415C764.309 102.471 764.163 102.5 764.015 102.5C760.436 102.504 757.004 103.927 754.474 106.458C751.943 108.989 750.519 112.421 750.515 116C750.515 116.298 750.397 116.585 750.186 116.795C749.975 117.006 749.689 117.125 749.39 117.125C749.092 117.125 748.806 117.006 748.595 116.795C748.384 116.585 748.265 116.298 748.265 116C748.27 111.824 749.931 107.821 752.883 104.868C755.836 101.916 759.839 100.255 764.015 100.25C764.163 100.25 764.309 100.279 764.446 100.335C764.582 100.392 764.706 100.475 764.811 100.579C764.915 100.684 764.998 100.808 765.055 100.944C765.111 101.081 765.14 101.227 765.14 101.375Z" fill="#F55868"/>
<path d="M778.625 114.88C778.477 114.88 778.331 114.909 778.194 114.965C778.058 115.022 777.934 115.105 777.829 115.209C777.725 115.314 777.642 115.438 777.585 115.574C777.529 115.711 777.5 115.857 777.5 116.005C777.496 119.584 776.073 123.016 773.542 125.547C771.011 128.077 767.579 129.501 764 129.505C763.702 129.505 763.415 129.623 763.205 129.834C762.994 130.045 762.875 130.332 762.875 130.63C762.875 130.928 762.994 131.214 763.205 131.425C763.415 131.636 763.702 131.755 764 131.755C768.176 131.75 772.179 130.089 775.132 127.137C778.084 124.184 779.745 120.181 779.75 116.005C779.75 115.857 779.721 115.711 779.665 115.574C779.608 115.438 779.525 115.314 779.421 115.209C779.316 115.105 779.192 115.022 779.056 114.965C778.919 114.909 778.773 114.88 778.625 114.88Z" fill="#F55868"/>
<path d="M749.385 114.88C749.533 114.88 749.679 114.909 749.815 114.965C749.952 115.022 750.076 115.105 750.18 115.209C750.285 115.314 750.368 115.438 750.424 115.574C750.481 115.711 750.51 115.857 750.51 116.005C750.514 119.584 751.937 123.016 754.468 125.547C756.999 128.077 760.431 129.501 764.01 129.505C764.308 129.505 764.594 129.623 764.805 129.834C765.016 130.045 765.135 130.332 765.135 130.63C765.135 130.928 765.016 131.214 764.805 131.425C764.594 131.636 764.308 131.755 764.01 131.755C759.834 131.75 755.831 130.089 752.878 127.137C749.925 124.184 748.264 120.181 748.26 116.005C748.26 115.857 748.289 115.711 748.345 115.574C748.402 115.438 748.485 115.314 748.589 115.209C748.694 115.105 748.818 115.022 748.954 114.965C749.091 114.909 749.237 114.88 749.385 114.88Z" fill="#F55868"/>
</svg>
