<svg width="1300" height="250" viewBox="0 0 1300 250" fill="none" xmlns="http://www.w3.org/2000/svg">
<rect width="1300" height="250" rx="24" fill="#262626"/>
<path d="M550.625 126.125C550.477 126.125 550.331 126.096 550.194 126.04C550.058 125.983 549.934 125.9 549.829 125.796C549.725 125.691 549.642 125.567 549.585 125.431C549.529 125.294 549.5 125.148 549.5 125C549.5 127.67 548.708 130.28 547.225 132.5C545.741 134.72 543.633 136.451 541.166 137.472C538.699 138.494 535.985 138.762 533.366 138.241C530.748 137.72 528.342 136.434 526.454 134.546C524.566 132.658 523.28 130.252 522.759 127.634C522.239 125.015 522.506 122.301 523.528 119.834C524.549 117.367 526.28 115.259 528.5 113.775C530.72 112.292 533.33 111.5 536 111.5C535.702 111.5 535.415 111.381 535.205 111.17C534.994 110.96 534.875 110.673 534.875 110.375C534.875 110.077 534.994 109.79 535.205 109.58C535.415 109.369 535.702 109.25 536 109.25C532.885 109.25 529.84 110.174 527.25 111.904C524.66 113.635 522.641 116.095 521.449 118.973C520.257 121.851 519.945 125.017 520.553 128.073C521.16 131.128 522.66 133.934 524.863 136.137C527.066 138.34 529.872 139.84 532.927 140.447C535.983 141.055 539.149 140.743 542.027 139.551C544.905 138.359 547.365 136.34 549.096 133.75C550.826 131.16 551.75 128.115 551.75 125C551.75 125.148 551.721 125.294 551.665 125.431C551.608 125.567 551.525 125.691 551.421 125.796C551.316 125.9 551.192 125.983 551.056 126.04C550.919 126.096 550.773 126.125 550.625 126.125Z" fill="#3B3B3B"/>
<path d="M534.875 110.375C534.875 110.523 534.904 110.669 534.96 110.806C535.017 110.942 535.1 111.066 535.204 111.171C535.309 111.275 535.433 111.358 535.569 111.415C535.706 111.471 535.852 111.5 536 111.5C539.579 111.504 543.011 112.927 545.542 115.458C548.073 117.989 549.496 121.421 549.5 125C549.5 125.298 549.619 125.585 549.83 125.795C550.04 126.006 550.327 126.125 550.625 126.125C550.923 126.125 551.21 126.006 551.42 125.795C551.631 125.585 551.75 125.298 551.75 125C551.745 120.824 550.084 116.821 547.132 113.868C544.179 110.916 540.176 109.255 536 109.25C535.852 109.25 535.706 109.279 535.569 109.335C535.433 109.392 535.309 109.475 535.204 109.579C535.1 109.684 535.017 109.808 534.96 109.944C534.904 110.081 534.875 110.227 534.875 110.375Z" fill="#3492EB"/>
<path d="M626.625 126.125C626.477 126.125 626.331 126.096 626.194 126.04C626.058 125.983 625.934 125.9 625.829 125.796C625.725 125.691 625.642 125.567 625.585 125.431C625.529 125.294 625.5 125.148 625.5 125C625.5 127.67 624.708 130.28 623.225 132.5C621.741 134.72 619.633 136.451 617.166 137.472C614.699 138.494 611.985 138.762 609.366 138.241C606.748 137.72 604.342 136.434 602.454 134.546C600.566 132.658 599.28 130.252 598.759 127.634C598.239 125.015 598.506 122.301 599.528 119.834C600.549 117.367 602.28 115.259 604.5 113.775C606.72 112.292 609.33 111.5 612 111.5C611.702 111.5 611.415 111.381 611.205 111.17C610.994 110.96 610.875 110.673 610.875 110.375C610.875 110.077 610.994 109.79 611.205 109.58C611.415 109.369 611.702 109.25 612 109.25C608.885 109.25 605.84 110.174 603.25 111.904C600.66 113.635 598.641 116.095 597.449 118.973C596.257 121.851 595.945 125.017 596.553 128.073C597.16 131.128 598.66 133.934 600.863 136.137C603.066 138.34 605.872 139.84 608.927 140.447C611.983 141.055 615.149 140.743 618.027 139.551C620.905 138.359 623.365 136.34 625.096 133.75C626.826 131.16 627.75 128.115 627.75 125C627.75 125.148 627.721 125.294 627.665 125.431C627.608 125.567 627.525 125.691 627.421 125.796C627.316 125.9 627.192 125.983 627.056 126.04C626.919 126.096 626.773 126.125 626.625 126.125Z" fill="#3B3B3B"/>
<path d="M610.875 110.375C610.875 110.523 610.904 110.669 610.96 110.806C611.017 110.942 611.1 111.066 611.204 111.171C611.309 111.275 611.433 111.358 611.569 111.415C611.706 111.471 611.852 111.5 612 111.5C615.579 111.504 619.011 112.927 621.542 115.458C624.073 117.989 625.496 121.421 625.5 125C625.5 125.298 625.619 125.585 625.83 125.795C626.04 126.006 626.327 126.125 626.625 126.125C626.923 126.125 627.21 126.006 627.42 125.795C627.631 125.585 627.75 125.298 627.75 125C627.745 120.824 626.084 116.821 623.132 113.868C620.179 110.916 616.176 109.255 612 109.25C611.852 109.25 611.706 109.279 611.569 109.335C611.433 109.392 611.309 109.475 611.204 109.579C611.1 109.684 611.017 109.808 610.96 109.944C610.904 110.081 610.875 110.227 610.875 110.375Z" fill="#3492EB"/>
<path d="M626.625 123.88C626.477 123.88 626.331 123.909 626.194 123.965C626.058 124.022 625.934 124.105 625.829 124.209C625.725 124.314 625.642 124.438 625.585 124.574C625.529 124.711 625.5 124.857 625.5 125.005C625.496 128.584 624.073 132.016 621.542 134.547C619.011 137.077 615.579 138.501 612 138.505C611.702 138.505 611.415 138.623 611.205 138.834C610.994 139.045 610.875 139.332 610.875 139.63C610.875 139.928 610.994 140.214 611.205 140.425C611.415 140.636 611.702 140.755 612 140.755C616.176 140.75 620.179 139.089 623.132 136.137C626.084 133.184 627.745 129.181 627.75 125.005C627.75 124.857 627.721 124.711 627.665 124.574C627.608 124.438 627.525 124.314 627.421 124.209C627.316 124.105 627.192 124.022 627.056 123.965C626.919 123.909 626.773 123.88 626.625 123.88Z" fill="#3492EB"/>
<path d="M597.385 123.88C597.533 123.88 597.679 123.909 597.816 123.965C597.952 124.022 598.076 124.105 598.181 124.209C598.285 124.314 598.368 124.438 598.425 124.574C598.481 124.711 598.51 124.857 598.51 125.005C598.514 128.584 599.937 132.016 602.468 134.547C604.999 137.077 608.431 138.501 612.01 138.505C612.308 138.505 612.595 138.623 612.806 138.834C613.016 139.045 613.135 139.332 613.135 139.63C613.135 139.928 613.016 140.214 612.806 140.425C612.595 140.636 612.308 140.755 612.01 140.755C607.834 140.75 603.831 139.089 600.878 136.137C597.926 133.184 596.265 129.181 596.26 125.005C596.26 124.857 596.289 124.711 596.345 124.574C596.402 124.438 596.485 124.314 596.589 124.209C596.694 124.105 596.818 124.022 596.954 123.965C597.091 123.909 597.237 123.88 597.385 123.88Z" fill="#3492EB"/>
<path d="M686.875 110.375C686.875 110.523 686.904 110.669 686.96 110.806C687.017 110.942 687.1 111.066 687.204 111.171C687.309 111.275 687.433 111.358 687.569 111.415C687.706 111.471 687.852 111.5 688 111.5C691.579 111.504 695.011 112.927 697.542 115.458C700.073 117.989 701.496 121.421 701.5 125C701.5 125.298 701.619 125.585 701.83 125.795C702.04 126.006 702.327 126.125 702.625 126.125C702.923 126.125 703.21 126.006 703.42 125.795C703.631 125.585 703.75 125.298 703.75 125C703.745 120.824 702.084 116.821 699.132 113.868C696.179 110.916 692.176 109.255 688 109.25C687.852 109.25 687.706 109.279 687.569 109.335C687.433 109.392 687.309 109.475 687.204 109.579C687.1 109.684 687.017 109.808 686.96 109.944C686.904 110.081 686.875 110.227 686.875 110.375Z" fill="#27A17A"/>
<path d="M685 130.125C684.918 130.125 684.836 130.109 684.76 130.077C684.684 130.046 684.615 129.999 684.557 129.941L680.057 125.419C679.999 125.36 679.953 125.291 679.922 125.215C679.891 125.14 679.875 125.058 679.875 124.976C679.875 124.894 679.892 124.813 679.923 124.737C679.955 124.661 680.001 124.593 680.06 124.535C680.118 124.477 680.187 124.431 680.263 124.4C680.339 124.369 680.42 124.353 680.502 124.353C680.584 124.353 680.665 124.37 680.741 124.401C680.817 124.433 680.885 124.479 680.943 124.537L685.034 128.648L695.094 120.026C695.219 119.918 695.383 119.865 695.548 119.878C695.713 119.89 695.867 119.968 695.974 120.094C696.082 120.22 696.136 120.383 696.123 120.548C696.11 120.713 696.032 120.867 695.907 120.975L685.407 129.974C685.294 130.072 685.149 130.125 685 130.125Z" fill="#27A17A"/>
<path d="M689.14 110.375C689.14 110.523 689.111 110.669 689.054 110.806C688.998 110.942 688.915 111.066 688.811 111.171C688.706 111.275 688.582 111.358 688.446 111.415C688.309 111.471 688.163 111.5 688.015 111.5C684.436 111.504 681.004 112.927 678.473 115.458C675.942 117.989 674.519 121.421 674.515 125C674.515 125.298 674.396 125.585 674.185 125.795C673.974 126.006 673.688 126.125 673.39 126.125C673.092 126.125 672.805 126.006 672.594 125.795C672.383 125.585 672.265 125.298 672.265 125C672.27 120.824 673.93 116.821 676.883 113.868C679.836 110.916 683.839 109.255 688.015 109.25C688.163 109.25 688.309 109.279 688.446 109.335C688.582 109.392 688.706 109.475 688.811 109.579C688.915 109.684 688.998 109.808 689.054 109.944C689.111 110.081 689.14 110.227 689.14 110.375Z" fill="#27A17A"/>
<path d="M702.625 123.88C702.477 123.88 702.331 123.909 702.194 123.965C702.058 124.022 701.934 124.105 701.829 124.209C701.725 124.314 701.642 124.438 701.585 124.574C701.529 124.711 701.5 124.857 701.5 125.005C701.496 128.584 700.073 132.016 697.542 134.547C695.011 137.077 691.579 138.501 688 138.505C687.702 138.505 687.415 138.623 687.205 138.834C686.994 139.045 686.875 139.332 686.875 139.63C686.875 139.928 686.994 140.214 687.205 140.425C687.415 140.636 687.702 140.755 688 140.755C692.176 140.75 696.179 139.089 699.132 136.137C702.084 133.184 703.745 129.181 703.75 125.005C703.75 124.857 703.721 124.711 703.665 124.574C703.608 124.438 703.525 124.314 703.421 124.209C703.316 124.105 703.192 124.022 703.056 123.965C702.919 123.909 702.773 123.88 702.625 123.88Z" fill="#27A17A"/>
<path d="M673.385 123.88C673.533 123.88 673.679 123.909 673.816 123.965C673.952 124.022 674.076 124.105 674.181 124.209C674.285 124.314 674.368 124.438 674.425 124.574C674.481 124.711 674.51 124.857 674.51 125.005C674.514 128.584 675.937 132.016 678.468 134.547C680.999 137.077 684.431 138.501 688.01 138.505C688.308 138.505 688.595 138.623 688.806 138.834C689.016 139.045 689.135 139.332 689.135 139.63C689.135 139.928 689.016 140.214 688.806 140.425C688.595 140.636 688.308 140.755 688.01 140.755C683.834 140.75 679.831 139.089 676.878 136.137C673.926 133.184 672.265 129.181 672.26 125.005C672.26 124.857 672.289 124.711 672.345 124.574C672.402 124.438 672.485 124.314 672.589 124.209C672.694 124.105 672.818 124.022 672.954 123.965C673.091 123.909 673.237 123.88 673.385 123.88Z" fill="#27A17A"/>
<path d="M762.875 110.375C762.875 110.523 762.904 110.669 762.96 110.806C763.017 110.942 763.1 111.066 763.204 111.171C763.309 111.275 763.433 111.358 763.569 111.415C763.706 111.471 763.852 111.5 764 111.5C767.579 111.504 771.011 112.927 773.542 115.458C776.073 117.989 777.496 121.421 777.5 125C777.5 125.298 777.619 125.585 777.83 125.795C778.04 126.006 778.327 126.125 778.625 126.125C778.923 126.125 779.21 126.006 779.42 125.795C779.631 125.585 779.75 125.298 779.75 125C779.745 120.824 778.084 116.821 775.132 113.868C772.179 110.916 768.176 109.255 764 109.25C763.852 109.25 763.706 109.279 763.569 109.335C763.433 109.392 763.309 109.475 763.204 109.579C763.1 109.684 763.017 109.808 762.96 109.944C762.904 110.081 762.875 110.227 762.875 110.375Z" fill="#F55868"/>
<path d="M764 133C764.707 133 765.28 132.427 765.28 131.72C765.28 131.013 764.707 130.44 764 130.44C763.293 130.44 762.72 131.013 762.72 131.72C762.72 132.427 763.293 133 764 133Z" fill="#F55868"/>
<path d="M764 127.88C764.255 127.88 764.499 127.779 764.679 127.599C764.859 127.419 764.96 127.175 764.96 126.92V117.96C764.96 117.705 764.859 117.461 764.679 117.281C764.499 117.101 764.255 117 764 117C763.746 117 763.501 117.101 763.321 117.281C763.141 117.461 763.04 117.705 763.04 117.96V126.92C763.04 127.175 763.142 127.419 763.322 127.599C763.502 127.779 763.746 127.88 764 127.88Z" fill="#F55868"/>
<path d="M765.14 110.375C765.14 110.523 765.111 110.669 765.055 110.806C764.998 110.942 764.915 111.066 764.811 111.171C764.706 111.275 764.582 111.358 764.446 111.415C764.309 111.471 764.163 111.5 764.015 111.5C760.436 111.504 757.004 112.927 754.474 115.458C751.943 117.989 750.519 121.421 750.515 125C750.515 125.298 750.397 125.585 750.186 125.795C749.975 126.006 749.689 126.125 749.39 126.125C749.092 126.125 748.806 126.006 748.595 125.795C748.384 125.585 748.265 125.298 748.265 125C748.27 120.824 749.931 116.821 752.883 113.868C755.836 110.916 759.839 109.255 764.015 109.25C764.163 109.25 764.309 109.279 764.446 109.335C764.582 109.392 764.706 109.475 764.811 109.579C764.915 109.684 764.998 109.808 765.055 109.944C765.111 110.081 765.14 110.227 765.14 110.375Z" fill="#F55868"/>
<path d="M778.625 123.88C778.477 123.88 778.331 123.909 778.194 123.965C778.058 124.022 777.934 124.105 777.829 124.209C777.725 124.314 777.642 124.438 777.585 124.574C777.529 124.711 777.5 124.857 777.5 125.005C777.496 128.584 776.073 132.016 773.542 134.547C771.011 137.077 767.579 138.501 764 138.505C763.702 138.505 763.415 138.623 763.205 138.834C762.994 139.045 762.875 139.332 762.875 139.63C762.875 139.928 762.994 140.214 763.205 140.425C763.415 140.636 763.702 140.755 764 140.755C768.176 140.75 772.179 139.089 775.132 136.137C778.084 133.184 779.745 129.181 779.75 125.005C779.75 124.857 779.721 124.711 779.665 124.574C779.608 124.438 779.525 124.314 779.421 124.209C779.316 124.105 779.192 124.022 779.056 123.965C778.919 123.909 778.773 123.88 778.625 123.88Z" fill="#F55868"/>
<path d="M749.385 123.88C749.533 123.88 749.679 123.909 749.815 123.965C749.952 124.022 750.076 124.105 750.18 124.209C750.285 124.314 750.368 124.438 750.424 124.574C750.481 124.711 750.51 124.857 750.51 125.005C750.514 128.584 751.937 132.016 754.468 134.547C756.999 137.077 760.431 138.501 764.01 138.505C764.308 138.505 764.594 138.623 764.805 138.834C765.016 139.045 765.135 139.332 765.135 139.63C765.135 139.928 765.016 140.214 764.805 140.425C764.594 140.636 764.308 140.755 764.01 140.755C759.834 140.75 755.831 139.089 752.878 136.137C749.925 133.184 748.264 129.181 748.26 125.005C748.26 124.857 748.289 124.711 748.345 124.574C748.402 124.438 748.485 124.314 748.589 124.209C748.694 124.105 748.818 124.022 748.954 123.965C749.091 123.909 749.237 123.88 749.385 123.88Z" fill="#F55868"/>
</svg>
