<svg width="968" height="300" viewBox="0 0 968 300" fill="none" xmlns="http://www.w3.org/2000/svg">
<rect width="968" height="300" rx="24" fill="#262626"/>
<path d="M230.313 134.562C230.239 134.563 230.165 134.548 230.097 134.52C230.029 134.492 229.967 134.45 229.915 134.398C229.862 134.346 229.821 134.284 229.793 134.215C229.764 134.147 229.75 134.074 229.75 134C229.75 135.335 229.354 136.64 228.612 137.75C227.871 138.86 226.817 139.725 225.583 140.236C224.35 140.747 222.993 140.881 221.683 140.62C220.374 140.36 219.171 139.717 218.227 138.773C217.283 137.829 216.64 136.626 216.38 135.317C216.119 134.007 216.253 132.65 216.764 131.417C217.275 130.183 218.14 129.129 219.25 128.388C220.36 127.646 221.665 127.25 223 127.25C222.851 127.25 222.708 127.191 222.602 127.085C222.497 126.98 222.438 126.837 222.438 126.688C222.438 126.538 222.497 126.395 222.602 126.29C222.708 126.184 222.851 126.125 223 126.125C221.442 126.125 219.92 126.587 218.625 127.452C217.33 128.317 216.32 129.547 215.724 130.986C215.128 132.425 214.972 134.009 215.276 135.536C215.58 137.064 216.33 138.467 217.432 139.568C218.533 140.67 219.936 141.42 221.464 141.724C222.991 142.028 224.575 141.872 226.014 141.276C227.453 140.68 228.683 139.67 229.548 138.375C230.413 137.08 230.875 135.558 230.875 134C230.875 134.074 230.861 134.147 230.832 134.215C230.804 134.284 230.763 134.346 230.71 134.398C230.658 134.45 230.596 134.492 230.528 134.52C230.46 134.548 230.386 134.563 230.313 134.562Z" fill="#3B3B3B"/>
<path d="M222.438 126.688C222.437 126.761 222.452 126.835 222.48 126.903C222.508 126.971 222.55 127.033 222.602 127.085C222.654 127.138 222.716 127.179 222.785 127.207C222.853 127.236 222.926 127.25 223 127.25C224.79 127.252 226.505 127.964 227.771 129.229C229.036 130.495 229.748 132.21 229.75 134C229.75 134.149 229.809 134.292 229.915 134.398C230.02 134.503 230.163 134.562 230.312 134.562C230.462 134.562 230.605 134.503 230.71 134.398C230.816 134.292 230.875 134.149 230.875 134C230.873 131.912 230.042 129.91 228.566 128.434C227.09 126.958 225.088 126.127 223 126.125C222.926 126.125 222.853 126.139 222.785 126.168C222.716 126.196 222.654 126.237 222.602 126.29C222.55 126.342 222.508 126.404 222.48 126.472C222.452 126.54 222.437 126.614 222.438 126.688Z" fill="#3492EB"/>
<path d="M231 126H235L239 126" stroke="#DB1F2E" stroke-linecap="round" stroke-dasharray="0.01 4"/>
<path d="M231 142H235L239 142" stroke="#DB1F2E" stroke-linecap="round" stroke-dasharray="0.01 4"/>
<path d="M247 126H255L263 126" stroke="#DB1F2E"/>
<path d="M255 127V126" stroke="#DB1F2E"/>
<path d="M252.854 138H251.904V132L250.334 132.81V131.82L251.914 131H252.854V138ZM258.32 133.42C259.04 133.42 259.6 133.67 260 134.17C260.333 134.59 260.5 135.123 260.5 135.77C260.5 136.577 260.223 137.2 259.67 137.64C259.243 137.98 258.74 138.15 258.16 138.15C257.3 138.15 256.66 137.82 256.24 137.16C255.88 136.593 255.7 135.8 255.7 134.78C255.7 133.253 255.997 132.167 256.59 131.52C257.003 131.073 257.557 130.85 258.25 130.85C258.817 130.85 259.297 131 259.69 131.3C260.037 131.567 260.26 131.91 260.36 132.33H259.3C259.24 132.11 259.117 131.94 258.93 131.82C258.743 131.693 258.513 131.63 258.24 131.63C257.273 131.63 256.743 132.53 256.65 134.33C256.83 134.043 257.067 133.82 257.36 133.66C257.653 133.5 257.973 133.42 258.32 133.42ZM256.75 135.74C256.75 136.28 256.903 136.697 257.21 136.99C257.457 137.23 257.773 137.35 258.16 137.35C258.587 137.35 258.927 137.2 259.18 136.9C259.413 136.62 259.53 136.26 259.53 135.82C259.53 135.293 259.39 134.887 259.11 134.6C258.863 134.347 258.543 134.22 258.15 134.22C257.67 134.22 257.303 134.39 257.05 134.73C256.85 135.003 256.75 135.34 256.75 135.74Z" fill="white" fill-opacity="0.95"/>
<path d="M255 143V142" stroke="#DB1F2E"/>
<path d="M247 143H255L263 143" stroke="#DB1F2E"/>
<path d="M215 142V146L215 150" stroke="#FF634E" stroke-linecap="round" stroke-dasharray="0.01 4"/>
<path d="M231 142V146L231 150" stroke="#DB1F2E" stroke-linecap="round" stroke-dasharray="0.01 4"/>
<path d="M215 158V166L215 174" stroke="#DB1F2E"/>
<path d="M215 166H216" stroke="#DB1F2E"/>
<path d="M220.854 169.5H219.904V163.5L218.334 164.31V163.32L219.914 162.5H220.854V169.5ZM226.32 164.92C227.04 164.92 227.6 165.17 228 165.67C228.333 166.09 228.5 166.623 228.5 167.27C228.5 168.077 228.223 168.7 227.67 169.14C227.243 169.48 226.74 169.65 226.16 169.65C225.3 169.65 224.66 169.32 224.24 168.66C223.88 168.093 223.7 167.3 223.7 166.28C223.7 164.753 223.997 163.667 224.59 163.02C225.003 162.573 225.557 162.35 226.25 162.35C226.817 162.35 227.297 162.5 227.69 162.8C228.037 163.067 228.26 163.41 228.36 163.83H227.3C227.24 163.61 227.117 163.44 226.93 163.32C226.743 163.193 226.513 163.13 226.24 163.13C225.273 163.13 224.743 164.03 224.65 165.83C224.83 165.543 225.067 165.32 225.36 165.16C225.653 165 225.973 164.92 226.32 164.92ZM224.75 167.24C224.75 167.78 224.903 168.197 225.21 168.49C225.457 168.73 225.773 168.85 226.16 168.85C226.587 168.85 226.927 168.7 227.18 168.4C227.413 168.12 227.53 167.76 227.53 167.32C227.53 166.793 227.39 166.387 227.11 166.1C226.863 165.847 226.543 165.72 226.15 165.72C225.67 165.72 225.303 165.89 225.05 166.23C224.85 166.503 224.75 166.84 224.75 167.24Z" fill="white" fill-opacity="0.95"/>
<path d="M230 166H231" stroke="#DB1F2E"/>
<path d="M231 158V166L231 174" stroke="#DB1F2E"/>
<path d="M375.625 135.125C375.477 135.125 375.331 135.096 375.194 135.04C375.058 134.983 374.934 134.9 374.829 134.796C374.725 134.691 374.642 134.567 374.585 134.431C374.529 134.294 374.5 134.148 374.5 134C374.5 136.67 373.708 139.28 372.225 141.5C370.741 143.72 368.633 145.451 366.166 146.472C363.699 147.494 360.985 147.762 358.366 147.241C355.748 146.72 353.342 145.434 351.454 143.546C349.566 141.658 348.28 139.252 347.759 136.634C347.239 134.015 347.506 131.301 348.528 128.834C349.549 126.367 351.28 124.259 353.5 122.775C355.72 121.292 358.33 120.5 361 120.5C360.702 120.5 360.415 120.381 360.205 120.17C359.994 119.96 359.875 119.673 359.875 119.375C359.875 119.077 359.994 118.79 360.205 118.58C360.415 118.369 360.702 118.25 361 118.25C357.885 118.25 354.84 119.174 352.25 120.904C349.66 122.635 347.641 125.095 346.449 127.973C345.257 130.851 344.945 134.017 345.553 137.073C346.16 140.128 347.66 142.934 349.863 145.137C352.066 147.34 354.872 148.84 357.927 149.447C360.983 150.055 364.149 149.743 367.027 148.551C369.905 147.359 372.365 145.34 374.096 142.75C375.826 140.16 376.75 137.115 376.75 134C376.75 134.148 376.721 134.294 376.665 134.431C376.608 134.567 376.525 134.691 376.421 134.796C376.316 134.9 376.192 134.983 376.056 135.04C375.919 135.096 375.773 135.125 375.625 135.125Z" fill="#3B3B3B"/>
<path d="M359.875 119.375C359.875 119.523 359.904 119.669 359.96 119.806C360.017 119.942 360.1 120.066 360.204 120.171C360.309 120.275 360.433 120.358 360.569 120.415C360.706 120.471 360.852 120.5 361 120.5C364.579 120.504 368.011 121.927 370.542 124.458C373.073 126.989 374.496 130.421 374.5 134C374.5 134.298 374.619 134.585 374.83 134.795C375.04 135.006 375.327 135.125 375.625 135.125C375.923 135.125 376.21 135.006 376.42 134.795C376.631 134.585 376.75 134.298 376.75 134C376.745 129.824 375.084 125.821 372.132 122.868C369.179 119.916 365.176 118.255 361 118.25C360.852 118.25 360.706 118.279 360.569 118.335C360.433 118.392 360.309 118.475 360.204 118.579C360.1 118.684 360.017 118.808 359.96 118.944C359.904 119.081 359.875 119.227 359.875 119.375Z" fill="#3492EB"/>
<path d="M377 118.046H381L385 118.046" stroke="#DB1F2E" stroke-linecap="round" stroke-dasharray="0.01 4"/>
<path d="M377 150.046H381L385 150.046" stroke="#DB1F2E" stroke-linecap="round" stroke-dasharray="0.01 4"/>
<path d="M393 118.046H401L409 118.046" stroke="#DB1F2E"/>
<path d="M401 126.546V118.046" stroke="#DB1F2E"/>
<path d="M400.494 135.636C400.494 136.283 400.237 136.799 399.724 137.186C399.277 137.519 398.707 137.686 398.014 137.686C397.247 137.686 396.637 137.489 396.184 137.096C395.797 136.769 395.567 136.339 395.494 135.806H396.514C396.681 136.526 397.174 136.886 397.994 136.886C398.501 136.886 398.891 136.753 399.164 136.486C399.397 136.259 399.514 135.969 399.514 135.616C399.514 135.149 399.347 134.796 399.014 134.556C398.767 134.383 398.474 134.296 398.134 134.296H397.554V133.466H398.114C398.441 133.466 398.714 133.359 398.934 133.146C399.161 132.933 399.274 132.649 399.274 132.296C399.274 131.923 399.117 131.633 398.804 131.426C398.564 131.273 398.274 131.196 397.934 131.196C397.521 131.196 397.184 131.299 396.924 131.506C396.704 131.686 396.571 131.916 396.524 132.196H395.514C395.607 131.609 395.904 131.153 396.404 130.826C396.837 130.539 397.364 130.396 397.984 130.396C398.664 130.396 399.217 130.566 399.644 130.906C400.051 131.233 400.254 131.673 400.254 132.226C400.254 132.626 400.121 132.976 399.854 133.276C399.627 133.536 399.341 133.719 398.994 133.826C399.454 133.926 399.821 134.139 400.094 134.466C400.361 134.786 400.494 135.176 400.494 135.636ZM402.61 132.376H401.6C401.68 131.756 401.967 131.263 402.46 130.896C402.9 130.563 403.433 130.396 404.06 130.396C404.773 130.396 405.343 130.596 405.77 130.996C406.15 131.363 406.34 131.826 406.34 132.386C406.34 132.879 406.2 133.336 405.92 133.756C405.693 134.109 405.277 134.573 404.67 135.146L403.07 136.666H406.31V137.546H401.77V136.666L404.05 134.476C404.557 133.989 404.9 133.603 405.08 133.316C405.267 133.023 405.36 132.716 405.36 132.396C405.36 132.009 405.227 131.709 404.96 131.496C404.727 131.303 404.42 131.206 404.04 131.206C403.613 131.206 403.27 131.323 403.01 131.556C402.783 131.763 402.65 132.036 402.61 132.376Z" fill="white" fill-opacity="0.95"/>
<path d="M401 150.046V141.546" stroke="#DB1F2E"/>
<path d="M393 150.046H401L409 150.046" stroke="#DB1F2E"/>
<path d="M345 150V154L345 158" stroke="#DB1F2E" stroke-linecap="round" stroke-dasharray="0.01 4"/>
<path d="M377 150V154L377 158" stroke="#DB1F2E" stroke-linecap="round" stroke-dasharray="0.01 4"/>
<path d="M345 166V174L345 182" stroke="#DB1F2E"/>
<path d="M345 174H351" stroke="#DB1F2E"/>
<path d="M360.494 175.59C360.494 176.237 360.237 176.753 359.724 177.14C359.277 177.473 358.707 177.64 358.014 177.64C357.247 177.64 356.637 177.443 356.184 177.05C355.797 176.723 355.567 176.293 355.494 175.76H356.514C356.681 176.48 357.174 176.84 357.994 176.84C358.501 176.84 358.891 176.707 359.164 176.44C359.397 176.213 359.514 175.923 359.514 175.57C359.514 175.103 359.347 174.75 359.014 174.51C358.767 174.337 358.474 174.25 358.134 174.25H357.554V173.42H358.114C358.441 173.42 358.714 173.313 358.934 173.1C359.161 172.887 359.274 172.603 359.274 172.25C359.274 171.877 359.117 171.587 358.804 171.38C358.564 171.227 358.274 171.15 357.934 171.15C357.521 171.15 357.184 171.253 356.924 171.46C356.704 171.64 356.571 171.87 356.524 172.15H355.514C355.607 171.563 355.904 171.107 356.404 170.78C356.837 170.493 357.364 170.35 357.984 170.35C358.664 170.35 359.217 170.52 359.644 170.86C360.051 171.187 360.254 171.627 360.254 172.18C360.254 172.58 360.121 172.93 359.854 173.23C359.627 173.49 359.341 173.673 358.994 173.78C359.454 173.88 359.821 174.093 360.094 174.42C360.361 174.74 360.494 175.13 360.494 175.59ZM362.61 172.33H361.6C361.68 171.71 361.967 171.217 362.46 170.85C362.9 170.517 363.433 170.35 364.06 170.35C364.773 170.35 365.343 170.55 365.77 170.95C366.15 171.317 366.34 171.78 366.34 172.34C366.34 172.833 366.2 173.29 365.92 173.71C365.693 174.063 365.277 174.527 364.67 175.1L363.07 176.62H366.31V177.5H361.77V176.62L364.05 174.43C364.557 173.943 364.9 173.557 365.08 173.27C365.267 172.977 365.36 172.67 365.36 172.35C365.36 171.963 365.227 171.663 364.96 171.45C364.727 171.257 364.42 171.16 364.04 171.16C363.613 171.16 363.27 171.277 363.01 171.51C362.783 171.717 362.65 171.99 362.61 172.33Z" fill="white" fill-opacity="0.95"/>
<path d="M371 174H377" stroke="#DB1F2E"/>
<path d="M377 166V174L377 182" stroke="#DB1F2E"/>
<path d="M533.11 135.547C532.906 135.547 532.705 135.507 532.518 135.429C532.33 135.352 532.159 135.238 532.016 135.094C531.872 134.95 531.758 134.78 531.68 134.592C531.603 134.404 531.563 134.203 531.563 134C531.563 137.671 530.474 141.26 528.434 144.313C526.395 147.365 523.496 149.745 520.104 151.15C516.712 152.554 512.98 152.922 509.379 152.206C505.778 151.49 502.471 149.722 499.875 147.126C497.279 144.53 495.511 141.222 494.794 137.621C494.078 134.021 494.446 130.288 495.851 126.896C497.256 123.505 499.635 120.606 502.687 118.566C505.74 116.526 509.329 115.438 513 115.438C512.59 115.438 512.197 115.275 511.906 114.984C511.616 114.694 511.453 114.301 511.453 113.891C511.453 113.48 511.616 113.087 511.906 112.797C512.197 112.507 512.59 112.344 513 112.344C508.717 112.344 504.53 113.614 500.969 115.993C497.407 118.373 494.632 121.755 492.992 125.713C491.353 129.67 490.925 134.024 491.76 138.225C492.596 142.426 494.658 146.285 497.687 149.313C500.716 152.342 504.574 154.405 508.775 155.24C512.976 156.076 517.331 155.647 521.288 154.008C525.245 152.369 528.627 149.593 531.007 146.032C533.386 142.47 534.657 138.283 534.657 134C534.657 134.203 534.617 134.404 534.539 134.592C534.461 134.78 534.347 134.95 534.204 135.094C534.06 135.238 533.889 135.352 533.702 135.429C533.514 135.507 533.313 135.547 533.11 135.547Z" fill="#3B3B3B"/>
<path d="M511.453 113.891C511.453 114.094 511.493 114.295 511.571 114.483C511.649 114.67 511.763 114.841 511.906 114.985C512.05 115.128 512.22 115.242 512.408 115.32C512.596 115.398 512.797 115.438 513 115.438C517.922 115.443 522.64 117.4 526.12 120.88C529.6 124.36 531.557 129.079 531.563 134C531.563 134.41 531.726 134.804 532.016 135.094C532.306 135.384 532.699 135.547 533.11 135.547C533.52 135.547 533.913 135.384 534.203 135.094C534.494 134.804 534.656 134.41 534.656 134C534.65 128.258 532.366 122.754 528.306 118.694C524.246 114.634 518.742 112.35 513 112.344C512.797 112.344 512.596 112.384 512.408 112.461C512.22 112.539 512.05 112.653 511.906 112.797C511.763 112.94 511.649 113.111 511.571 113.299C511.493 113.486 511.453 113.687 511.453 113.891Z" fill="#3492EB"/>
<path d="M535 112.046H539L543 112.046" stroke="#DB1F2E" stroke-linecap="round" stroke-dasharray="0.01 4"/>
<path d="M535 156.046H539L543 156.046" stroke="#DB1F2E" stroke-linecap="round" stroke-dasharray="0.01 4"/>
<path d="M551 112.046H559L567 112.046" stroke="#DB1F2E"/>
<path d="M559 126.546V112.046" stroke="#DB1F2E"/>
<path d="M556.444 130.546H557.444V135.406H558.574V136.226H557.444V137.546H556.514V136.226H553.444V135.336L556.444 130.546ZM554.514 135.406H556.514V132.096L554.514 135.406ZM562.44 130.546H563.44V135.406H564.57V136.226H563.44V137.546H562.51V136.226H559.44V135.336L562.44 130.546ZM560.51 135.406H562.51V132.096L560.51 135.406Z" fill="white" fill-opacity="0.95"/>
<path d="M559 156.046V141.546" stroke="#DB1F2E"/>
<path d="M551 156.046H559L567 156.046" stroke="#DB1F2E"/>
<path d="M491 156V160L491 164" stroke="#DB1F2E" stroke-linecap="round" stroke-dasharray="0.01 4"/>
<path d="M535 156V160L535 164" stroke="#DB1F2E" stroke-linecap="round" stroke-dasharray="0.01 4"/>
<path d="M491 172V180L491 188" stroke="#DB1F2E"/>
<path d="M491 180H503" stroke="#DB1F2E"/>
<path d="M510.444 176.5H511.444V181.36H512.574V182.18H511.444V183.5H510.514V182.18H507.444V181.29L510.444 176.5ZM508.514 181.36H510.514V178.05L508.514 181.36ZM516.44 176.5H517.44V181.36H518.57V182.18H517.44V183.5H516.51V182.18H513.44V181.29L516.44 176.5ZM514.51 181.36H516.51V178.05L514.51 181.36Z" fill="white" fill-opacity="0.95"/>
<path d="M523 180H535" stroke="#DB1F2E"/>
<path d="M535 172V180L535 188" stroke="#DB1F2E"/>
<path d="M717.907 136.531C717.574 136.531 717.245 136.466 716.938 136.339C716.63 136.212 716.351 136.025 716.116 135.79C715.881 135.555 715.695 135.276 715.568 134.969C715.44 134.662 715.375 134.332 715.375 134C715.375 140.008 713.594 145.88 710.256 150.875C706.919 155.871 702.175 159.764 696.624 162.063C691.074 164.362 684.967 164.963 679.074 163.791C673.182 162.619 667.77 159.726 663.522 155.478C659.274 151.23 656.381 145.818 655.209 139.926C654.037 134.034 654.638 127.926 656.937 122.376C659.236 116.826 663.13 112.082 668.125 108.744C673.12 105.406 678.993 103.625 685 103.625C684.329 103.625 683.685 103.358 683.21 102.884C682.736 102.409 682.469 101.765 682.469 101.094C682.469 100.422 682.736 99.7786 683.21 99.3039C683.685 98.8292 684.329 98.5625 685 98.5625C677.991 98.5625 671.14 100.641 665.312 104.535C659.485 108.429 654.942 113.963 652.26 120.439C649.578 126.914 648.876 134.039 650.244 140.914C651.611 147.788 654.986 154.102 659.942 159.058C664.898 164.014 671.213 167.389 678.087 168.757C684.961 170.124 692.086 169.422 698.562 166.74C705.037 164.058 710.572 159.516 714.465 153.688C718.359 147.86 720.438 141.009 720.438 134C720.438 134.332 720.373 134.662 720.245 134.969C720.118 135.276 719.932 135.555 719.697 135.79C719.462 136.025 719.183 136.212 718.875 136.339C718.568 136.466 718.239 136.531 717.907 136.531Z" fill="#3B3B3B"/>
<path d="M682.469 101.094C682.469 101.426 682.534 101.755 682.661 102.063C682.788 102.37 682.975 102.649 683.21 102.884C683.445 103.119 683.724 103.306 684.031 103.433C684.339 103.56 684.668 103.625 685 103.625C693.053 103.634 700.774 106.837 706.469 112.531C712.163 118.226 715.366 125.947 715.375 134C715.375 134.671 715.642 135.315 716.117 135.79C716.591 136.265 717.235 136.531 717.906 136.531C718.578 136.531 719.222 136.265 719.696 135.79C720.171 135.315 720.438 134.671 720.438 134C720.427 124.605 716.69 115.597 710.047 108.954C703.403 102.31 694.396 98.573 685 98.5625C684.668 98.5623 684.339 98.6276 684.031 98.7548C683.724 98.8819 683.445 99.0684 683.21 99.3035C682.975 99.5385 682.788 99.8177 682.661 100.125C682.534 100.432 682.469 100.761 682.469 101.094Z" fill="#3492EB"/>
<path d="M721 98.0459H725L729 98.0459" stroke="#DB1F2E" stroke-linecap="round" stroke-dasharray="0.01 4"/>
<path d="M721 170.046H725L729 170.046" stroke="#DB1F2E" stroke-linecap="round" stroke-dasharray="0.01 4"/>
<path d="M737 98.0459H745L753 98.0459" stroke="#DB1F2E"/>
<path d="M745 126.546V98.0459" stroke="#DB1F2E"/>
<path d="M744.204 131.406L741.344 137.546H740.254L743.184 131.406H739.754V130.546H744.204V131.406ZM746.61 132.376H745.6C745.68 131.756 745.967 131.263 746.46 130.896C746.9 130.563 747.433 130.396 748.06 130.396C748.773 130.396 749.343 130.596 749.77 130.996C750.15 131.363 750.34 131.826 750.34 132.386C750.34 132.879 750.2 133.336 749.92 133.756C749.693 134.109 749.277 134.573 748.67 135.146L747.07 136.666H750.31V137.546H745.77V136.666L748.05 134.476C748.557 133.989 748.9 133.603 749.08 133.316C749.267 133.023 749.36 132.716 749.36 132.396C749.36 132.009 749.227 131.709 748.96 131.496C748.727 131.303 748.42 131.206 748.04 131.206C747.613 131.206 747.27 131.323 747.01 131.556C746.783 131.763 746.65 132.036 746.61 132.376Z" fill="white" fill-opacity="0.95"/>
<path d="M745 170.046V141.546" stroke="#DB1F2E"/>
<path d="M737 170.046H745L753 170.046" stroke="#DB1F2E"/>
<path d="M649 170V174L649 178" stroke="#DB1F2E" stroke-linecap="round" stroke-dasharray="0.01 4"/>
<path d="M721 170V174L721 178" stroke="#DB1F2E" stroke-linecap="round" stroke-dasharray="0.01 4"/>
<path d="M649 186V194L649 202" stroke="#DB1F2E"/>
<path d="M649 194H675" stroke="#DB1F2E"/>
<path d="M684.204 191.36L681.344 197.5H680.254L683.184 191.36H679.754V190.5H684.204V191.36ZM686.61 192.33H685.6C685.68 191.71 685.967 191.217 686.46 190.85C686.9 190.517 687.433 190.35 688.06 190.35C688.773 190.35 689.343 190.55 689.77 190.95C690.15 191.317 690.34 191.78 690.34 192.34C690.34 192.833 690.2 193.29 689.92 193.71C689.693 194.063 689.277 194.527 688.67 195.1L687.07 196.62H690.31V197.5H685.77V196.62L688.05 194.43C688.557 193.943 688.9 193.557 689.08 193.27C689.267 192.977 689.36 192.67 689.36 192.35C689.36 191.963 689.227 191.663 688.96 191.45C688.727 191.257 688.42 191.16 688.04 191.16C687.613 191.16 687.27 191.277 687.01 191.51C686.783 191.717 686.65 191.99 686.61 192.33Z" fill="white" fill-opacity="0.95"/>
<path d="M695 194H721" stroke="#DB1F2E"/>
<path d="M721 186V194L721 202" stroke="#DB1F2E"/>
</svg>
