<svg width="1300" height="232" viewBox="0 0 1300 232" fill="none" xmlns="http://www.w3.org/2000/svg">
<rect width="1300" height="232" rx="24" fill="#262626"/>
<path d="M504.625 117.125C504.477 117.125 504.331 117.096 504.194 117.04C504.058 116.983 503.934 116.9 503.829 116.796C503.725 116.691 503.642 116.567 503.585 116.431C503.529 116.294 503.5 116.148 503.5 116C503.5 118.67 502.708 121.28 501.225 123.5C499.741 125.72 497.633 127.451 495.166 128.472C492.699 129.494 489.985 129.762 487.366 129.241C484.748 128.72 482.342 127.434 480.454 125.546C478.566 123.658 477.28 121.252 476.759 118.634C476.239 116.015 476.506 113.301 477.528 110.834C478.549 108.367 480.28 106.259 482.5 104.775C484.72 103.292 487.33 102.5 490 102.5C489.702 102.5 489.415 102.381 489.205 102.17C488.994 101.96 488.875 101.673 488.875 101.375C488.875 101.077 488.994 100.79 489.205 100.58C489.415 100.369 489.702 100.25 490 100.25C486.885 100.25 483.84 101.174 481.25 102.904C478.66 104.635 476.641 107.095 475.449 109.973C474.257 112.851 473.945 116.017 474.553 119.073C475.16 122.128 476.66 124.934 478.863 127.137C481.066 129.34 483.872 130.84 486.927 131.447C489.983 132.055 493.149 131.743 496.027 130.551C498.905 129.359 501.365 127.34 503.096 124.75C504.826 122.16 505.75 119.115 505.75 116C505.75 116.148 505.721 116.294 505.665 116.431C505.608 116.567 505.525 116.691 505.421 116.796C505.316 116.9 505.192 116.983 505.056 117.04C504.919 117.096 504.773 117.125 504.625 117.125Z" fill="#3B3B3B"/>
<path d="M488.875 101.375C488.875 101.523 488.904 101.669 488.96 101.806C489.017 101.942 489.1 102.066 489.204 102.171C489.309 102.275 489.433 102.358 489.569 102.415C489.706 102.471 489.852 102.5 490 102.5C493.579 102.504 497.011 103.927 499.542 106.458C502.073 108.989 503.496 112.421 503.5 116C503.5 116.298 503.619 116.585 503.83 116.795C504.04 117.006 504.327 117.125 504.625 117.125C504.923 117.125 505.21 117.006 505.42 116.795C505.631 116.585 505.75 116.298 505.75 116C505.745 111.824 504.084 107.821 501.132 104.868C498.179 101.916 494.176 100.255 490 100.25C489.852 100.25 489.706 100.279 489.569 100.335C489.433 100.392 489.309 100.475 489.204 100.579C489.1 100.684 489.017 100.808 488.96 100.944C488.904 101.081 488.875 101.227 488.875 101.375Z" fill="#3492EB"/>
<path d="M568.625 117.125C568.477 117.125 568.331 117.096 568.194 117.04C568.058 116.983 567.934 116.9 567.829 116.796C567.725 116.691 567.642 116.567 567.585 116.431C567.529 116.294 567.5 116.148 567.5 116C567.5 118.67 566.708 121.28 565.225 123.5C563.741 125.72 561.633 127.451 559.166 128.472C556.699 129.494 553.985 129.762 551.366 129.241C548.748 128.72 546.342 127.434 544.454 125.546C542.566 123.658 541.28 121.252 540.759 118.634C540.239 116.015 540.506 113.301 541.528 110.834C542.549 108.367 544.28 106.259 546.5 104.775C548.72 103.292 551.33 102.5 554 102.5C553.702 102.5 553.415 102.381 553.205 102.17C552.994 101.96 552.875 101.673 552.875 101.375C552.875 101.077 552.994 100.79 553.205 100.58C553.415 100.369 553.702 100.25 554 100.25C550.885 100.25 547.84 101.174 545.25 102.904C542.66 104.635 540.641 107.095 539.449 109.973C538.257 112.851 537.945 116.017 538.553 119.073C539.16 122.128 540.66 124.934 542.863 127.137C545.066 129.34 547.872 130.84 550.927 131.447C553.983 132.055 557.149 131.743 560.027 130.551C562.905 129.359 565.365 127.34 567.096 124.75C568.826 122.16 569.75 119.115 569.75 116C569.75 116.148 569.721 116.294 569.665 116.431C569.608 116.567 569.525 116.691 569.421 116.796C569.316 116.9 569.192 116.983 569.056 117.04C568.919 117.096 568.773 117.125 568.625 117.125Z" fill="#3B3B3B"/>
<path d="M552.875 101.375C552.875 101.523 552.904 101.669 552.96 101.806C553.017 101.942 553.1 102.066 553.204 102.171C553.309 102.275 553.433 102.358 553.569 102.415C553.706 102.471 553.852 102.5 554 102.5C557.579 102.504 561.011 103.927 563.542 106.458C566.073 108.989 567.496 112.421 567.5 116C567.5 116.298 567.619 116.585 567.83 116.795C568.04 117.006 568.327 117.125 568.625 117.125C568.923 117.125 569.21 117.006 569.42 116.795C569.631 116.585 569.75 116.298 569.75 116C569.745 111.824 568.084 107.821 565.132 104.868C562.179 101.916 558.176 100.255 554 100.25C553.852 100.25 553.706 100.279 553.569 100.335C553.433 100.392 553.309 100.475 553.204 100.579C553.1 100.684 553.017 100.808 552.96 100.944C552.904 101.081 552.875 101.227 552.875 101.375Z" fill="#3492EB"/>
<path d="M568.625 114.88C568.477 114.88 568.331 114.909 568.194 114.965C568.058 115.022 567.934 115.105 567.829 115.209C567.725 115.314 567.642 115.438 567.585 115.574C567.529 115.711 567.5 115.857 567.5 116.005C567.496 119.584 566.073 123.016 563.542 125.547C561.011 128.077 557.579 129.501 554 129.505C553.702 129.505 553.415 129.623 553.205 129.834C552.994 130.045 552.875 130.332 552.875 130.63C552.875 130.928 552.994 131.214 553.205 131.425C553.415 131.636 553.702 131.755 554 131.755C558.176 131.75 562.179 130.089 565.132 127.137C568.084 124.184 569.745 120.181 569.75 116.005C569.75 115.857 569.721 115.711 569.665 115.574C569.608 115.438 569.525 115.314 569.421 115.209C569.316 115.105 569.192 115.022 569.056 114.965C568.919 114.909 568.773 114.88 568.625 114.88Z" fill="#3492EB"/>
<path d="M539.385 114.88C539.533 114.88 539.679 114.909 539.816 114.965C539.952 115.022 540.076 115.105 540.181 115.209C540.285 115.314 540.368 115.438 540.425 115.574C540.481 115.711 540.51 115.857 540.51 116.005C540.514 119.584 541.937 123.016 544.468 125.547C546.999 128.077 550.431 129.501 554.01 129.505C554.308 129.505 554.595 129.623 554.806 129.834C555.016 130.045 555.135 130.332 555.135 130.63C555.135 130.928 555.016 131.214 554.806 131.425C554.595 131.636 554.308 131.755 554.01 131.755C549.834 131.75 545.831 130.089 542.878 127.137C539.926 124.184 538.265 120.181 538.26 116.005C538.26 115.857 538.289 115.711 538.345 115.574C538.402 115.438 538.485 115.314 538.589 115.209C538.694 115.105 538.818 115.022 538.954 114.965C539.091 114.909 539.237 114.88 539.385 114.88Z" fill="#3492EB"/>
<path d="M632.625 117.125C632.477 117.125 632.331 117.096 632.194 117.04C632.058 116.983 631.934 116.9 631.829 116.796C631.725 116.691 631.642 116.567 631.585 116.431C631.529 116.294 631.5 116.148 631.5 116C631.5 118.67 630.708 121.28 629.225 123.5C627.741 125.72 625.633 127.451 623.166 128.472C620.699 129.494 617.985 129.762 615.366 129.241C612.748 128.72 610.342 127.434 608.454 125.546C606.566 123.658 605.28 121.252 604.759 118.634C604.239 116.015 604.506 113.301 605.528 110.834C606.549 108.367 608.28 106.259 610.5 104.775C612.72 103.292 615.33 102.5 618 102.5C617.702 102.5 617.415 102.381 617.205 102.17C616.994 101.96 616.875 101.673 616.875 101.375C616.875 101.077 616.994 100.79 617.205 100.58C617.415 100.369 617.702 100.25 618 100.25C614.885 100.25 611.84 101.174 609.25 102.904C606.66 104.635 604.641 107.095 603.449 109.973C602.257 112.851 601.945 116.017 602.553 119.073C603.16 122.128 604.66 124.934 606.863 127.137C609.066 129.34 611.872 130.84 614.927 131.447C617.983 132.055 621.149 131.743 624.027 130.551C626.905 129.359 629.365 127.34 631.096 124.75C632.826 122.16 633.75 119.115 633.75 116C633.75 116.148 633.721 116.294 633.665 116.431C633.608 116.567 633.525 116.691 633.421 116.796C633.316 116.9 633.192 116.983 633.056 117.04C632.919 117.096 632.773 117.125 632.625 117.125Z" fill="#3B3B3B"/>
<path d="M616.875 101.375C616.875 101.523 616.904 101.669 616.96 101.806C617.017 101.942 617.1 102.066 617.204 102.171C617.309 102.275 617.433 102.358 617.569 102.415C617.706 102.471 617.852 102.5 618 102.5C621.579 102.504 625.011 103.927 627.542 106.458C630.073 108.989 631.496 112.421 631.5 116C631.5 116.298 631.619 116.585 631.83 116.795C632.04 117.006 632.327 117.125 632.625 117.125C632.923 117.125 633.21 117.006 633.42 116.795C633.631 116.585 633.75 116.298 633.75 116C633.745 111.824 632.084 107.821 629.132 104.868C626.179 101.916 622.176 100.255 618 100.25C617.852 100.25 617.706 100.279 617.569 100.335C617.433 100.392 617.309 100.475 617.204 100.579C617.1 100.684 617.017 100.808 616.96 100.944C616.904 101.081 616.875 101.227 616.875 101.375Z" fill="#8F8F8F"/>
<path d="M696.625 117.125C696.477 117.125 696.331 117.096 696.194 117.04C696.058 116.983 695.934 116.9 695.829 116.796C695.725 116.691 695.642 116.567 695.585 116.431C695.529 116.294 695.5 116.148 695.5 116C695.5 118.67 694.708 121.28 693.225 123.5C691.741 125.72 689.633 127.451 687.166 128.472C684.699 129.494 681.985 129.762 679.366 129.241C676.748 128.72 674.342 127.434 672.454 125.546C670.566 123.658 669.28 121.252 668.759 118.634C668.239 116.015 668.506 113.301 669.528 110.834C670.549 108.367 672.28 106.259 674.5 104.775C676.72 103.292 679.33 102.5 682 102.5C681.702 102.5 681.415 102.381 681.205 102.17C680.994 101.96 680.875 101.673 680.875 101.375C680.875 101.077 680.994 100.79 681.205 100.58C681.415 100.369 681.702 100.25 682 100.25C678.885 100.25 675.84 101.174 673.25 102.904C670.66 104.635 668.641 107.095 667.449 109.973C666.257 112.851 665.945 116.017 666.553 119.073C667.16 122.128 668.66 124.934 670.863 127.137C673.066 129.34 675.872 130.84 678.927 131.447C681.983 132.055 685.149 131.743 688.027 130.551C690.905 129.359 693.365 127.34 695.096 124.75C696.826 122.16 697.75 119.115 697.75 116C697.75 116.148 697.721 116.294 697.665 116.431C697.608 116.567 697.525 116.691 697.421 116.796C697.316 116.9 697.192 116.983 697.056 117.04C696.919 117.096 696.773 117.125 696.625 117.125Z" fill="#3B3B3B"/>
<path d="M680.875 101.375C680.875 101.523 680.904 101.669 680.96 101.806C681.017 101.942 681.1 102.066 681.204 102.171C681.309 102.275 681.433 102.358 681.569 102.415C681.706 102.471 681.852 102.5 682 102.5C685.579 102.504 689.011 103.927 691.542 106.458C694.073 108.989 695.496 112.421 695.5 116C695.5 116.298 695.619 116.585 695.83 116.795C696.04 117.006 696.327 117.125 696.625 117.125C696.923 117.125 697.21 117.006 697.42 116.795C697.631 116.585 697.75 116.298 697.75 116C697.745 111.824 696.084 107.821 693.132 104.868C690.179 101.916 686.176 100.255 682 100.25C681.852 100.25 681.706 100.279 681.569 100.335C681.433 100.392 681.309 100.475 681.204 100.579C681.1 100.684 681.017 100.808 680.96 100.944C680.904 101.081 680.875 101.227 680.875 101.375Z" fill="#8F8F8F"/>
<path d="M696.625 114.88C696.477 114.88 696.331 114.909 696.194 114.965C696.058 115.022 695.934 115.105 695.829 115.209C695.725 115.314 695.642 115.438 695.585 115.574C695.529 115.711 695.5 115.857 695.5 116.005C695.496 119.584 694.073 123.016 691.542 125.547C689.011 128.077 685.579 129.501 682 129.505C681.702 129.505 681.415 129.623 681.205 129.834C680.994 130.045 680.875 130.332 680.875 130.63C680.875 130.928 680.994 131.214 681.205 131.425C681.415 131.636 681.702 131.755 682 131.755C686.176 131.75 690.179 130.089 693.132 127.137C696.084 124.184 697.745 120.181 697.75 116.005C697.75 115.857 697.721 115.711 697.665 115.574C697.608 115.438 697.525 115.314 697.421 115.209C697.316 115.105 697.192 115.022 697.056 114.965C696.919 114.909 696.773 114.88 696.625 114.88Z" fill="#8F8F8F"/>
<path d="M667.385 114.88C667.533 114.88 667.679 114.909 667.816 114.965C667.952 115.022 668.076 115.105 668.181 115.209C668.285 115.314 668.368 115.438 668.425 115.574C668.481 115.711 668.51 115.857 668.51 116.005C668.514 119.584 669.937 123.016 672.468 125.547C674.999 128.077 678.431 129.501 682.01 129.505C682.308 129.505 682.595 129.623 682.806 129.834C683.016 130.045 683.135 130.332 683.135 130.63C683.135 130.928 683.016 131.214 682.806 131.425C682.595 131.636 682.308 131.755 682.01 131.755C677.834 131.75 673.831 130.089 670.878 127.137C667.926 124.184 666.265 120.181 666.26 116.005C666.26 115.857 666.289 115.711 666.345 115.574C666.402 115.438 666.485 115.314 666.589 115.209C666.694 115.105 666.818 115.022 666.954 114.965C667.091 114.909 667.237 114.88 667.385 114.88Z" fill="#8F8F8F"/>
<path d="M744.875 101.375C744.875 101.523 744.904 101.669 744.96 101.806C745.017 101.942 745.1 102.066 745.204 102.171C745.309 102.275 745.433 102.358 745.569 102.415C745.706 102.471 745.852 102.5 746 102.5C749.579 102.504 753.011 103.927 755.542 106.458C758.073 108.989 759.496 112.421 759.5 116C759.5 116.298 759.619 116.585 759.83 116.795C760.04 117.006 760.327 117.125 760.625 117.125C760.923 117.125 761.21 117.006 761.42 116.795C761.631 116.585 761.75 116.298 761.75 116C761.745 111.824 760.084 107.821 757.132 104.868C754.179 101.916 750.176 100.255 746 100.25C745.852 100.25 745.706 100.279 745.569 100.335C745.433 100.392 745.309 100.475 745.204 100.579C745.1 100.684 745.017 100.808 744.96 100.944C744.904 101.081 744.875 101.227 744.875 101.375Z" fill="#27A17A"/>
<path d="M743 121.125C742.918 121.125 742.836 121.109 742.76 121.077C742.684 121.046 742.615 120.999 742.557 120.941L738.057 116.419C737.999 116.36 737.953 116.291 737.922 116.215C737.891 116.14 737.875 116.058 737.875 115.976C737.875 115.894 737.892 115.813 737.923 115.737C737.955 115.661 738.001 115.593 738.06 115.535C738.118 115.477 738.187 115.431 738.263 115.4C738.339 115.369 738.42 115.353 738.502 115.353C738.584 115.353 738.665 115.37 738.741 115.401C738.817 115.433 738.885 115.479 738.943 115.537L743.034 119.648L753.094 111.026C753.219 110.918 753.383 110.865 753.548 110.878C753.713 110.89 753.867 110.968 753.974 111.094C754.082 111.22 754.136 111.383 754.123 111.548C754.11 111.713 754.032 111.867 753.907 111.975L743.407 120.974C743.294 121.072 743.149 121.125 743 121.125Z" fill="#27A17A"/>
<path d="M747.14 101.375C747.14 101.523 747.111 101.669 747.054 101.806C746.998 101.942 746.915 102.066 746.811 102.171C746.706 102.275 746.582 102.358 746.446 102.415C746.309 102.471 746.163 102.5 746.015 102.5C742.436 102.504 739.004 103.927 736.473 106.458C733.942 108.989 732.519 112.421 732.515 116C732.515 116.298 732.396 116.585 732.185 116.795C731.974 117.006 731.688 117.125 731.39 117.125C731.092 117.125 730.805 117.006 730.594 116.795C730.383 116.585 730.265 116.298 730.265 116C730.27 111.824 731.93 107.821 734.883 104.868C737.836 101.916 741.839 100.255 746.015 100.25C746.163 100.25 746.309 100.279 746.446 100.335C746.582 100.392 746.706 100.475 746.811 100.579C746.915 100.684 746.998 100.808 747.054 100.944C747.111 101.081 747.14 101.227 747.14 101.375Z" fill="#27A17A"/>
<path d="M760.625 114.88C760.477 114.88 760.331 114.909 760.194 114.965C760.058 115.022 759.934 115.105 759.829 115.209C759.725 115.314 759.642 115.438 759.585 115.574C759.529 115.711 759.5 115.857 759.5 116.005C759.496 119.584 758.073 123.016 755.542 125.547C753.011 128.077 749.579 129.501 746 129.505C745.702 129.505 745.415 129.623 745.205 129.834C744.994 130.045 744.875 130.332 744.875 130.63C744.875 130.928 744.994 131.214 745.205 131.425C745.415 131.636 745.702 131.755 746 131.755C750.176 131.75 754.179 130.089 757.132 127.137C760.084 124.184 761.745 120.181 761.75 116.005C761.75 115.857 761.721 115.711 761.665 115.574C761.608 115.438 761.525 115.314 761.421 115.209C761.316 115.105 761.192 115.022 761.056 114.965C760.919 114.909 760.773 114.88 760.625 114.88Z" fill="#27A17A"/>
<path d="M731.385 114.88C731.533 114.88 731.679 114.909 731.816 114.965C731.952 115.022 732.076 115.105 732.181 115.209C732.285 115.314 732.368 115.438 732.425 115.574C732.481 115.711 732.51 115.857 732.51 116.005C732.514 119.584 733.937 123.016 736.468 125.547C738.999 128.077 742.431 129.501 746.01 129.505C746.308 129.505 746.595 129.623 746.806 129.834C747.016 130.045 747.135 130.332 747.135 130.63C747.135 130.928 747.016 131.214 746.806 131.425C746.595 131.636 746.308 131.755 746.01 131.755C741.834 131.75 737.831 130.089 734.878 127.137C731.926 124.184 730.265 120.181 730.26 116.005C730.26 115.857 730.289 115.711 730.345 115.574C730.402 115.438 730.485 115.314 730.589 115.209C730.694 115.105 730.818 115.022 730.954 114.965C731.091 114.909 731.237 114.88 731.385 114.88Z" fill="#27A17A"/>
<path d="M808.875 101.375C808.875 101.523 808.904 101.669 808.96 101.806C809.017 101.942 809.1 102.066 809.204 102.171C809.309 102.275 809.433 102.358 809.569 102.415C809.706 102.471 809.852 102.5 810 102.5C813.579 102.504 817.011 103.927 819.542 106.458C822.073 108.989 823.496 112.421 823.5 116C823.5 116.298 823.619 116.585 823.83 116.795C824.04 117.006 824.327 117.125 824.625 117.125C824.923 117.125 825.21 117.006 825.42 116.795C825.631 116.585 825.75 116.298 825.75 116C825.745 111.824 824.084 107.821 821.132 104.868C818.179 101.916 814.176 100.255 810 100.25C809.852 100.25 809.706 100.279 809.569 100.335C809.433 100.392 809.309 100.475 809.204 100.579C809.1 100.684 809.017 100.808 808.96 100.944C808.904 101.081 808.875 101.227 808.875 101.375Z" fill="#F55868"/>
<path d="M810 124C810.707 124 811.28 123.427 811.28 122.72C811.28 122.013 810.707 121.44 810 121.44C809.293 121.44 808.72 122.013 808.72 122.72C808.72 123.427 809.293 124 810 124Z" fill="#F55868"/>
<path d="M810 118.88C810.255 118.88 810.499 118.779 810.679 118.599C810.859 118.419 810.96 118.175 810.96 117.92V108.96C810.96 108.705 810.859 108.461 810.679 108.281C810.499 108.101 810.255 108 810 108C809.746 108 809.501 108.101 809.321 108.281C809.141 108.461 809.04 108.705 809.04 108.96V117.92C809.04 118.175 809.142 118.419 809.322 118.599C809.502 118.779 809.746 118.88 810 118.88Z" fill="#F55868"/>
<path d="M811.14 101.375C811.14 101.523 811.111 101.669 811.055 101.806C810.998 101.942 810.915 102.066 810.811 102.171C810.706 102.275 810.582 102.358 810.446 102.415C810.309 102.471 810.163 102.5 810.015 102.5C806.436 102.504 803.004 103.927 800.474 106.458C797.943 108.989 796.519 112.421 796.515 116C796.515 116.298 796.397 116.585 796.186 116.795C795.975 117.006 795.689 117.125 795.39 117.125C795.092 117.125 794.806 117.006 794.595 116.795C794.384 116.585 794.265 116.298 794.265 116C794.27 111.824 795.931 107.821 798.883 104.868C801.836 101.916 805.839 100.255 810.015 100.25C810.163 100.25 810.309 100.279 810.446 100.335C810.582 100.392 810.706 100.475 810.811 100.579C810.915 100.684 810.998 100.808 811.055 100.944C811.111 101.081 811.14 101.227 811.14 101.375Z" fill="#F55868"/>
<path d="M824.625 114.88C824.477 114.88 824.331 114.909 824.194 114.965C824.058 115.022 823.934 115.105 823.829 115.209C823.725 115.314 823.642 115.438 823.585 115.574C823.529 115.711 823.5 115.857 823.5 116.005C823.496 119.584 822.073 123.016 819.542 125.547C817.011 128.077 813.579 129.501 810 129.505C809.702 129.505 809.415 129.623 809.205 129.834C808.994 130.045 808.875 130.332 808.875 130.63C808.875 130.928 808.994 131.214 809.205 131.425C809.415 131.636 809.702 131.755 810 131.755C814.176 131.75 818.179 130.089 821.132 127.137C824.084 124.184 825.745 120.181 825.75 116.005C825.75 115.857 825.721 115.711 825.665 115.574C825.608 115.438 825.525 115.314 825.421 115.209C825.316 115.105 825.192 115.022 825.056 114.965C824.919 114.909 824.773 114.88 824.625 114.88Z" fill="#F55868"/>
<path d="M795.385 114.88C795.533 114.88 795.679 114.909 795.815 114.965C795.952 115.022 796.076 115.105 796.18 115.209C796.285 115.314 796.368 115.438 796.424 115.574C796.481 115.711 796.51 115.857 796.51 116.005C796.514 119.584 797.937 123.016 800.468 125.547C802.999 128.077 806.431 129.501 810.01 129.505C810.308 129.505 810.594 129.623 810.805 129.834C811.016 130.045 811.135 130.332 811.135 130.63C811.135 130.928 811.016 131.214 810.805 131.425C810.594 131.636 810.308 131.755 810.01 131.755C805.834 131.75 801.831 130.089 798.878 127.137C795.925 124.184 794.264 120.181 794.26 116.005C794.26 115.857 794.289 115.711 794.345 115.574C794.402 115.438 794.485 115.314 794.589 115.209C794.694 115.105 794.818 115.022 794.954 114.965C795.091 114.909 795.237 114.88 795.385 114.88Z" fill="#F55868"/>
</svg>
