<svg width="1300" height="300" viewBox="0 0 1300 300" fill="none" xmlns="http://www.w3.org/2000/svg">
<rect width="1300" height="300" rx="24" fill="#262626"/>
<path d="M550.625 151.125C550.477 151.125 550.331 151.096 550.194 151.04C550.058 150.983 549.934 150.9 549.829 150.796C549.725 150.691 549.642 150.567 549.585 150.431C549.529 150.294 549.5 150.148 549.5 150C549.5 152.67 548.708 155.28 547.225 157.5C545.741 159.72 543.633 161.451 541.166 162.472C538.699 163.494 535.985 163.762 533.366 163.241C530.748 162.72 528.342 161.434 526.454 159.546C524.566 157.658 523.28 155.252 522.759 152.634C522.239 150.015 522.506 147.301 523.528 144.834C524.549 142.367 526.28 140.259 528.5 138.775C530.72 137.292 533.33 136.5 536 136.5C535.702 136.5 535.415 136.381 535.205 136.17C534.994 135.96 534.875 135.673 534.875 135.375C534.875 135.077 534.994 134.79 535.205 134.58C535.415 134.369 535.702 134.25 536 134.25C532.885 134.25 529.84 135.174 527.25 136.904C524.66 138.635 522.641 141.095 521.449 143.973C520.257 146.851 519.945 150.017 520.553 153.073C521.16 156.128 522.66 158.934 524.863 161.137C527.066 163.34 529.872 164.84 532.927 165.447C535.983 166.055 539.149 165.743 542.027 164.551C544.905 163.359 547.365 161.34 549.096 158.75C550.826 156.16 551.75 153.115 551.75 150C551.75 150.148 551.721 150.294 551.665 150.431C551.608 150.567 551.525 150.691 551.421 150.796C551.316 150.9 551.192 150.983 551.056 151.04C550.919 151.096 550.773 151.125 550.625 151.125Z" fill="#3B3B3B"/>
<path d="M534.875 135.375C534.875 135.523 534.904 135.669 534.96 135.806C535.017 135.942 535.1 136.066 535.204 136.171C535.309 136.275 535.433 136.358 535.569 136.415C535.706 136.471 535.852 136.5 536 136.5C539.579 136.504 543.011 137.927 545.542 140.458C548.073 142.989 549.496 146.421 549.5 150C549.5 150.298 549.619 150.585 549.83 150.795C550.04 151.006 550.327 151.125 550.625 151.125C550.923 151.125 551.21 151.006 551.42 150.795C551.631 150.585 551.75 150.298 551.75 150C551.745 145.824 550.084 141.821 547.132 138.868C544.179 135.916 540.176 134.255 536 134.25C535.852 134.25 535.706 134.279 535.569 134.335C535.433 134.392 535.309 134.475 535.204 134.579C535.1 134.684 535.017 134.808 534.96 134.944C534.904 135.081 534.875 135.227 534.875 135.375Z" fill="#3492EB"/>
<path d="M626.625 151.125C626.477 151.125 626.331 151.096 626.194 151.04C626.058 150.983 625.934 150.9 625.829 150.796C625.725 150.691 625.642 150.567 625.585 150.431C625.529 150.294 625.5 150.148 625.5 150C625.5 152.67 624.708 155.28 623.225 157.5C621.741 159.72 619.633 161.451 617.166 162.472C614.699 163.494 611.985 163.762 609.366 163.241C606.748 162.72 604.342 161.434 602.454 159.546C600.566 157.658 599.28 155.252 598.759 152.634C598.239 150.015 598.506 147.301 599.528 144.834C600.549 142.367 602.28 140.259 604.5 138.775C606.72 137.292 609.33 136.5 612 136.5C611.702 136.5 611.415 136.381 611.205 136.17C610.994 135.96 610.875 135.673 610.875 135.375C610.875 135.077 610.994 134.79 611.205 134.58C611.415 134.369 611.702 134.25 612 134.25C608.885 134.25 605.84 135.174 603.25 136.904C600.66 138.635 598.641 141.095 597.449 143.973C596.257 146.851 595.945 150.017 596.553 153.073C597.16 156.128 598.66 158.934 600.863 161.137C603.066 163.34 605.872 164.84 608.927 165.447C611.983 166.055 615.149 165.743 618.027 164.551C620.905 163.359 623.365 161.34 625.096 158.75C626.826 156.16 627.75 153.115 627.75 150C627.75 150.148 627.721 150.294 627.665 150.431C627.608 150.567 627.525 150.691 627.421 150.796C627.316 150.9 627.192 150.983 627.056 151.04C626.919 151.096 626.773 151.125 626.625 151.125Z" fill="#3B3B3B"/>
<path d="M610.875 135.375C610.875 135.523 610.904 135.669 610.96 135.806C611.017 135.942 611.1 136.066 611.204 136.171C611.309 136.275 611.433 136.358 611.569 136.415C611.706 136.471 611.852 136.5 612 136.5C615.579 136.504 619.011 137.927 621.542 140.458C624.073 142.989 625.496 146.421 625.5 150C625.5 150.298 625.619 150.585 625.83 150.795C626.04 151.006 626.327 151.125 626.625 151.125C626.923 151.125 627.21 151.006 627.42 150.795C627.631 150.585 627.75 150.298 627.75 150C627.745 145.824 626.084 141.821 623.132 138.868C620.179 135.916 616.176 134.255 612 134.25C611.852 134.25 611.706 134.279 611.569 134.335C611.433 134.392 611.309 134.475 611.204 134.579C611.1 134.684 611.017 134.808 610.96 134.944C610.904 135.081 610.875 135.227 610.875 135.375Z" fill="#3492EB"/>
<path d="M626.625 148.88C626.477 148.88 626.331 148.909 626.194 148.965C626.058 149.022 625.934 149.105 625.829 149.209C625.725 149.314 625.642 149.438 625.585 149.574C625.529 149.711 625.5 149.857 625.5 150.005C625.496 153.584 624.073 157.016 621.542 159.547C619.011 162.077 615.579 163.501 612 163.505C611.702 163.505 611.415 163.623 611.205 163.834C610.994 164.045 610.875 164.332 610.875 164.63C610.875 164.928 610.994 165.214 611.205 165.425C611.415 165.636 611.702 165.755 612 165.755C616.176 165.75 620.179 164.089 623.132 161.137C626.084 158.184 627.745 154.181 627.75 150.005C627.75 149.857 627.721 149.711 627.665 149.574C627.608 149.438 627.525 149.314 627.421 149.209C627.316 149.105 627.192 149.022 627.056 148.965C626.919 148.909 626.773 148.88 626.625 148.88Z" fill="#3492EB"/>
<path d="M597.385 148.88C597.533 148.88 597.679 148.909 597.816 148.965C597.952 149.022 598.076 149.105 598.181 149.209C598.285 149.314 598.368 149.438 598.425 149.574C598.481 149.711 598.51 149.857 598.51 150.005C598.514 153.584 599.937 157.016 602.468 159.547C604.999 162.077 608.431 163.501 612.01 163.505C612.308 163.505 612.595 163.623 612.806 163.834C613.016 164.045 613.135 164.332 613.135 164.63C613.135 164.928 613.016 165.214 612.806 165.425C612.595 165.636 612.308 165.755 612.01 165.755C607.834 165.75 603.831 164.089 600.878 161.137C597.926 158.184 596.265 154.181 596.26 150.005C596.26 149.857 596.289 149.711 596.345 149.574C596.402 149.438 596.485 149.314 596.589 149.209C596.694 149.105 596.818 149.022 596.954 148.965C597.091 148.909 597.237 148.88 597.385 148.88Z" fill="#3492EB"/>
<path d="M686.875 135.375C686.875 135.523 686.904 135.669 686.96 135.806C687.017 135.942 687.1 136.066 687.204 136.171C687.309 136.275 687.433 136.358 687.569 136.415C687.706 136.471 687.852 136.5 688 136.5C691.579 136.504 695.011 137.927 697.542 140.458C700.073 142.989 701.496 146.421 701.5 150C701.5 150.298 701.619 150.585 701.83 150.795C702.04 151.006 702.327 151.125 702.625 151.125C702.923 151.125 703.21 151.006 703.42 150.795C703.631 150.585 703.75 150.298 703.75 150C703.745 145.824 702.084 141.821 699.132 138.868C696.179 135.916 692.176 134.255 688 134.25C687.852 134.25 687.706 134.279 687.569 134.335C687.433 134.392 687.309 134.475 687.204 134.579C687.1 134.684 687.017 134.808 686.96 134.944C686.904 135.081 686.875 135.227 686.875 135.375Z" fill="#27A17A"/>
<path d="M685 155.125C684.918 155.125 684.836 155.109 684.76 155.077C684.684 155.046 684.615 154.999 684.557 154.941L680.057 150.419C679.999 150.36 679.953 150.291 679.922 150.215C679.891 150.14 679.875 150.058 679.875 149.976C679.875 149.894 679.892 149.813 679.923 149.737C679.955 149.661 680.001 149.593 680.06 149.535C680.118 149.477 680.187 149.431 680.263 149.4C680.339 149.369 680.42 149.353 680.502 149.353C680.584 149.353 680.665 149.37 680.741 149.401C680.817 149.433 680.885 149.479 680.943 149.537L685.034 153.648L695.094 145.026C695.219 144.918 695.383 144.865 695.548 144.878C695.713 144.89 695.867 144.968 695.974 145.094C696.082 145.22 696.136 145.383 696.123 145.548C696.11 145.713 696.032 145.867 695.907 145.975L685.407 154.974C685.294 155.072 685.149 155.125 685 155.125Z" fill="#27A17A"/>
<path d="M689.14 135.375C689.14 135.523 689.111 135.669 689.054 135.806C688.998 135.942 688.915 136.066 688.811 136.171C688.706 136.275 688.582 136.358 688.446 136.415C688.309 136.471 688.163 136.5 688.015 136.5C684.436 136.504 681.004 137.927 678.473 140.458C675.942 142.989 674.519 146.421 674.515 150C674.515 150.298 674.396 150.585 674.185 150.795C673.974 151.006 673.688 151.125 673.39 151.125C673.092 151.125 672.805 151.006 672.594 150.795C672.383 150.585 672.265 150.298 672.265 150C672.27 145.824 673.93 141.821 676.883 138.868C679.836 135.916 683.839 134.255 688.015 134.25C688.163 134.25 688.309 134.279 688.446 134.335C688.582 134.392 688.706 134.475 688.811 134.579C688.915 134.684 688.998 134.808 689.054 134.944C689.111 135.081 689.14 135.227 689.14 135.375Z" fill="#27A17A"/>
<path d="M702.625 148.88C702.477 148.88 702.331 148.909 702.194 148.965C702.058 149.022 701.934 149.105 701.829 149.209C701.725 149.314 701.642 149.438 701.585 149.574C701.529 149.711 701.5 149.857 701.5 150.005C701.496 153.584 700.073 157.016 697.542 159.547C695.011 162.077 691.579 163.501 688 163.505C687.702 163.505 687.415 163.623 687.205 163.834C686.994 164.045 686.875 164.332 686.875 164.63C686.875 164.928 686.994 165.214 687.205 165.425C687.415 165.636 687.702 165.755 688 165.755C692.176 165.75 696.179 164.089 699.132 161.137C702.084 158.184 703.745 154.181 703.75 150.005C703.75 149.857 703.721 149.711 703.665 149.574C703.608 149.438 703.525 149.314 703.421 149.209C703.316 149.105 703.192 149.022 703.056 148.965C702.919 148.909 702.773 148.88 702.625 148.88Z" fill="#27A17A"/>
<path d="M673.385 148.88C673.533 148.88 673.679 148.909 673.816 148.965C673.952 149.022 674.076 149.105 674.181 149.209C674.285 149.314 674.368 149.438 674.425 149.574C674.481 149.711 674.51 149.857 674.51 150.005C674.514 153.584 675.937 157.016 678.468 159.547C680.999 162.077 684.431 163.501 688.01 163.505C688.308 163.505 688.595 163.623 688.806 163.834C689.016 164.045 689.135 164.332 689.135 164.63C689.135 164.928 689.016 165.214 688.806 165.425C688.595 165.636 688.308 165.755 688.01 165.755C683.834 165.75 679.831 164.089 676.878 161.137C673.926 158.184 672.265 154.181 672.26 150.005C672.26 149.857 672.289 149.711 672.345 149.574C672.402 149.438 672.485 149.314 672.589 149.209C672.694 149.105 672.818 149.022 672.954 148.965C673.091 148.909 673.237 148.88 673.385 148.88Z" fill="#27A17A"/>
<path d="M762.875 135.375C762.875 135.523 762.904 135.669 762.96 135.806C763.017 135.942 763.1 136.066 763.204 136.171C763.309 136.275 763.433 136.358 763.569 136.415C763.706 136.471 763.852 136.5 764 136.5C767.579 136.504 771.011 137.927 773.542 140.458C776.073 142.989 777.496 146.421 777.5 150C777.5 150.298 777.619 150.585 777.83 150.795C778.04 151.006 778.327 151.125 778.625 151.125C778.923 151.125 779.21 151.006 779.42 150.795C779.631 150.585 779.75 150.298 779.75 150C779.745 145.824 778.084 141.821 775.132 138.868C772.179 135.916 768.176 134.255 764 134.25C763.852 134.25 763.706 134.279 763.569 134.335C763.433 134.392 763.309 134.475 763.204 134.579C763.1 134.684 763.017 134.808 762.96 134.944C762.904 135.081 762.875 135.227 762.875 135.375Z" fill="#F55868"/>
<path d="M764 158C764.707 158 765.28 157.427 765.28 156.72C765.28 156.013 764.707 155.44 764 155.44C763.293 155.44 762.72 156.013 762.72 156.72C762.72 157.427 763.293 158 764 158Z" fill="#F55868"/>
<path d="M764 152.88C764.255 152.88 764.499 152.779 764.679 152.599C764.859 152.419 764.96 152.175 764.96 151.92V142.96C764.96 142.705 764.859 142.461 764.679 142.281C764.499 142.101 764.255 142 764 142C763.746 142 763.501 142.101 763.321 142.281C763.141 142.461 763.04 142.705 763.04 142.96V151.92C763.04 152.175 763.142 152.419 763.322 152.599C763.502 152.779 763.746 152.88 764 152.88Z" fill="#F55868"/>
<path d="M765.14 135.375C765.14 135.523 765.111 135.669 765.055 135.806C764.998 135.942 764.915 136.066 764.811 136.171C764.706 136.275 764.582 136.358 764.446 136.415C764.309 136.471 764.163 136.5 764.015 136.5C760.436 136.504 757.004 137.927 754.474 140.458C751.943 142.989 750.519 146.421 750.515 150C750.515 150.298 750.397 150.585 750.186 150.795C749.975 151.006 749.689 151.125 749.39 151.125C749.092 151.125 748.806 151.006 748.595 150.795C748.384 150.585 748.265 150.298 748.265 150C748.27 145.824 749.931 141.821 752.883 138.868C755.836 135.916 759.839 134.255 764.015 134.25C764.163 134.25 764.309 134.279 764.446 134.335C764.582 134.392 764.706 134.475 764.811 134.579C764.915 134.684 764.998 134.808 765.055 134.944C765.111 135.081 765.14 135.227 765.14 135.375Z" fill="#F55868"/>
<path d="M778.625 148.88C778.477 148.88 778.331 148.909 778.194 148.965C778.058 149.022 777.934 149.105 777.829 149.209C777.725 149.314 777.642 149.438 777.585 149.574C777.529 149.711 777.5 149.857 777.5 150.005C777.496 153.584 776.073 157.016 773.542 159.547C771.011 162.077 767.579 163.501 764 163.505C763.702 163.505 763.415 163.623 763.205 163.834C762.994 164.045 762.875 164.332 762.875 164.63C762.875 164.928 762.994 165.214 763.205 165.425C763.415 165.636 763.702 165.755 764 165.755C768.176 165.75 772.179 164.089 775.132 161.137C778.084 158.184 779.745 154.181 779.75 150.005C779.75 149.857 779.721 149.711 779.665 149.574C779.608 149.438 779.525 149.314 779.421 149.209C779.316 149.105 779.192 149.022 779.056 148.965C778.919 148.909 778.773 148.88 778.625 148.88Z" fill="#F55868"/>
<path d="M749.385 148.88C749.533 148.88 749.679 148.909 749.815 148.965C749.952 149.022 750.076 149.105 750.18 149.209C750.285 149.314 750.368 149.438 750.424 149.574C750.481 149.711 750.51 149.857 750.51 150.005C750.514 153.584 751.937 157.016 754.468 159.547C756.999 162.077 760.431 163.501 764.01 163.505C764.308 163.505 764.594 163.623 764.805 163.834C765.016 164.045 765.135 164.332 765.135 164.63C765.135 164.928 765.016 165.214 764.805 165.425C764.594 165.636 764.308 165.755 764.01 165.755C759.834 165.75 755.831 164.089 752.878 161.137C749.925 158.184 748.264 154.181 748.26 150.005C748.26 149.857 748.289 149.711 748.345 149.574C748.402 149.438 748.485 149.314 748.589 149.209C748.694 149.105 748.818 149.022 748.954 148.965C749.091 148.909 749.237 148.88 749.385 148.88Z" fill="#F55868"/>
</svg>
