<svg width="768" height="483" viewBox="0 0 768 483" fill="none" xmlns="http://www.w3.org/2000/svg">
<path d="M0 24C0 10.7452 10.7452 0 24 0H744C757.255 0 768 10.7452 768 24V459C768 472.255 757.255 483 744 483H24C10.7452 483 0 472.255 0 459V24Z" fill="#262626"/>
<path d="M723.201 48.1999C723.069 48.2002 722.938 48.1743 722.816 48.1236C722.695 48.073 722.584 47.9987 722.492 47.905L715.291 40.6696C715.199 40.5765 715.125 40.4661 715.076 40.3446C715.026 40.2232 715 40.0931 715 39.9618C715.001 39.8305 715.027 39.7005 715.078 39.5793C715.128 39.4582 715.202 39.3481 715.295 39.2555C715.388 39.1629 715.499 39.0896 715.62 39.0397C715.742 38.9898 715.872 38.9643 716.003 38.9646C716.134 38.965 716.264 38.9912 716.386 39.0418C716.507 39.0924 716.617 39.1664 716.709 39.2595L723.254 45.8366L739.35 32.0417C739.551 31.8692 739.813 31.7837 740.077 31.804C740.341 31.8244 740.587 31.9488 740.759 32.1501C740.932 32.3513 741.017 32.6129 740.997 32.8771C740.976 33.1414 740.852 33.3868 740.651 33.5593L723.851 47.9587C723.67 48.1145 723.439 48.2001 723.201 48.1999Z" fill="url(#paint0_linear_489_5180)"/>
<rect width="347" height="387" transform="translate(210.5 40)" fill="black"/>
<path fill-rule="evenodd" clip-rule="evenodd" d="M526.5 62C526.5 62.553 526.052 63 525.5 63C524.948 63 524.5 62.553 524.5 62C524.5 61.447 524.948 61 525.5 61C526.052 61 526.5 61.447 526.5 62ZM532.501 62C532.501 62.553 532.053 63 531.501 63C530.949 63 530.501 62.553 530.501 62C530.501 61.447 530.949 61 531.501 61C532.053 61 532.501 61.447 532.501 62ZM538.504 62C538.504 62.553 538.056 63 537.504 63C536.952 63 536.504 62.553 536.504 62C536.504 61.447 536.952 61 537.504 61C538.056 61 538.504 61.447 538.504 62Z" fill="white" fill-opacity="0.95"/>
<path d="M231.946 67.21C230.434 67.21 229.235 66.72 228.348 65.74C227.517 64.816 227.102 63.556 227.102 61.96C227.102 60.1587 227.648 58.782 228.74 57.83C229.599 57.0833 230.672 56.71 231.96 56.71C233.453 56.71 234.639 57.1907 235.516 58.152C236.365 59.076 236.79 60.3453 236.79 61.96C236.79 63.7613 236.249 65.1333 235.166 66.076C234.307 66.832 233.234 67.21 231.946 67.21ZM231.946 65.852C232.917 65.852 233.668 65.4973 234.2 64.788C234.713 64.1067 234.97 63.164 234.97 61.96C234.97 60.588 234.639 59.5613 233.976 58.88C233.453 58.3387 232.777 58.068 231.946 58.068C230.975 58.068 230.224 58.4273 229.692 59.146C229.179 59.8273 228.922 60.77 228.922 61.974C228.922 63.3367 229.253 64.3587 229.916 65.04C230.439 65.5813 231.115 65.852 231.946 65.852ZM239.972 67H238.292V59.72H239.678L239.86 60.588C240.392 59.8693 241.13 59.51 242.072 59.51C242.95 59.51 243.622 59.7807 244.088 60.322C244.499 60.798 244.704 61.4467 244.704 62.268V67H243.024V62.31C243.024 61.3113 242.562 60.812 241.638 60.812C241.134 60.812 240.724 60.9893 240.406 61.344C240.117 61.6707 239.972 62.0813 239.972 62.576V67ZM246.427 56.92H248.107V60.602C248.686 59.874 249.465 59.51 250.445 59.51C251.5 59.51 252.312 59.8693 252.881 60.588C253.404 61.2413 253.665 62.1187 253.665 63.22C253.665 64.564 253.306 65.5953 252.587 66.314C251.999 66.9113 251.239 67.21 250.305 67.21C249.344 67.21 248.588 66.846 248.037 66.118L247.771 67H246.427V56.92ZM251.943 63.29C251.943 62.4127 251.743 61.764 251.341 61.344C251.015 61.008 250.576 60.84 250.025 60.84C249.4 60.84 248.905 61.0687 248.541 61.526C248.205 61.9647 248.037 62.548 248.037 63.276C248.037 64.1907 248.243 64.872 248.653 65.32C248.999 65.6933 249.447 65.88 249.997 65.88C250.641 65.88 251.131 65.642 251.467 65.166C251.785 64.718 251.943 64.0927 251.943 63.29ZM254.731 63.346C254.731 62.0207 255.123 61.0173 255.907 60.336C256.551 59.7853 257.391 59.51 258.427 59.51C259.631 59.51 260.56 59.874 261.213 60.602C261.82 61.2647 262.123 62.1793 262.123 63.346C262.123 64.6713 261.741 65.6747 260.975 66.356C260.331 66.9253 259.482 67.21 258.427 67.21C257.233 67.21 256.304 66.8367 255.641 66.09C255.035 65.4087 254.731 64.494 254.731 63.346ZM258.441 65.964C259.104 65.964 259.599 65.7213 259.925 65.236C260.233 64.7973 260.387 64.1673 260.387 63.346C260.387 62.4127 260.182 61.7267 259.771 61.288C259.445 60.9333 258.997 60.756 258.427 60.756C257.774 60.756 257.279 60.994 256.943 61.47C256.626 61.9087 256.467 62.534 256.467 63.346C256.467 64.27 256.673 64.956 257.083 65.404C257.429 65.7773 257.881 65.964 258.441 65.964ZM265.07 61.778H263.32C263.442 61.022 263.82 60.4433 264.454 60.042C265.024 59.6873 265.738 59.51 266.596 59.51C267.632 59.51 268.426 59.776 268.976 60.308C269.452 60.7653 269.69 61.358 269.69 62.086V67H268.346L268.136 66.104C267.567 66.8413 266.76 67.21 265.714 67.21C264.884 67.21 264.24 66.986 263.782 66.538C263.381 66.146 263.18 65.6467 263.18 65.04C263.18 64.3587 263.428 63.8267 263.922 63.444C264.37 63.0893 265.066 62.8327 266.008 62.674L268.01 62.338V61.988C268.01 61.5493 267.866 61.2227 267.576 61.008C267.324 60.812 266.979 60.714 266.54 60.714C265.672 60.714 265.182 61.0687 265.07 61.778ZM268.01 63.444L266.428 63.724C265.887 63.8267 265.5 63.9713 265.266 64.158C265.033 64.3353 264.916 64.5873 264.916 64.914C264.916 65.5953 265.332 65.936 266.162 65.936C266.704 65.936 267.161 65.7587 267.534 65.404C267.852 65.096 268.01 64.7367 268.01 64.326V63.444ZM275.676 59.608V61.232C275.368 61.1387 275.074 61.092 274.794 61.092C274.271 61.092 273.851 61.3207 273.534 61.778C273.235 62.2167 273.086 62.8233 273.086 63.598V67H271.406V59.72H272.792L273.002 60.812C273.412 59.944 274.033 59.51 274.864 59.51C275.162 59.51 275.433 59.5427 275.676 59.608ZM283.352 67H282.008L281.714 66.062C281.145 66.8273 280.365 67.21 279.376 67.21C278.34 67.21 277.523 66.8367 276.926 66.09C276.385 65.4087 276.114 64.5173 276.114 63.416C276.114 62.0907 276.464 61.078 277.164 60.378C277.743 59.7993 278.494 59.51 279.418 59.51C280.379 59.51 281.131 59.8553 281.672 60.546V56.92H283.352V67ZM277.836 63.43C277.836 64.2887 278.041 64.928 278.452 65.348C278.788 65.7027 279.227 65.88 279.768 65.88C280.431 65.88 280.935 65.6373 281.28 65.152C281.588 64.7227 281.742 64.144 281.742 63.416C281.742 62.5013 281.527 61.82 281.098 61.372C280.762 61.0173 280.319 60.84 279.768 60.84C279.124 60.84 278.634 61.0827 278.298 61.568C277.99 62.0067 277.836 62.6273 277.836 63.43ZM286.91 58.614H285.062V56.92H286.91V58.614ZM286.826 67H285.146V59.72H286.826V67ZM290.299 67H288.619V59.72H290.005L290.187 60.588C290.719 59.8693 291.456 59.51 292.399 59.51C293.276 59.51 293.948 59.7807 294.415 60.322C294.825 60.798 295.031 61.4467 295.031 62.268V67H293.351V62.31C293.351 61.3113 292.889 60.812 291.965 60.812C291.461 60.812 291.05 60.9893 290.733 61.344C290.443 61.6707 290.299 62.0813 290.299 62.576V67ZM296.655 67.476H298.419C298.597 68.148 299.152 68.484 300.085 68.484C301.289 68.484 301.891 67.91 301.891 66.762V65.95C301.341 66.51 300.594 66.79 299.651 66.79C298.662 66.79 297.859 66.44 297.243 65.74C296.674 65.0867 296.389 64.242 296.389 63.206C296.389 61.9833 296.739 61.036 297.439 60.364C298.027 59.7947 298.783 59.51 299.707 59.51C300.678 59.51 301.434 59.8647 301.975 60.574L302.241 59.72H303.571V66.748C303.571 67.7093 303.226 68.4607 302.535 69.002C301.919 69.4873 301.107 69.73 300.099 69.73C299.017 69.73 298.172 69.5013 297.565 69.044C297.071 68.6613 296.767 68.1387 296.655 67.476ZM298.111 63.22C298.111 63.976 298.321 64.5593 298.741 64.97C299.087 65.2967 299.521 65.46 300.043 65.46C300.715 65.46 301.224 65.2407 301.569 64.802C301.868 64.4193 302.017 63.8967 302.017 63.234C302.017 62.4033 301.812 61.778 301.401 61.358C301.065 61.0127 300.613 60.84 300.043 60.84C299.418 60.84 298.933 61.064 298.587 61.512C298.27 61.9227 298.111 62.492 298.111 63.22Z" fill="white" fill-opacity="0.95"/>
<path d="M398.625 207.125C398.477 207.125 398.331 207.096 398.194 207.04C398.058 206.983 397.934 206.9 397.829 206.796C397.725 206.691 397.642 206.567 397.585 206.431C397.529 206.294 397.5 206.148 397.5 206C397.5 208.67 396.708 211.28 395.225 213.5C393.741 215.72 391.633 217.451 389.166 218.472C386.699 219.494 383.985 219.762 381.366 219.241C378.748 218.72 376.342 217.434 374.454 215.546C372.566 213.658 371.28 211.252 370.759 208.634C370.239 206.015 370.506 203.301 371.528 200.834C372.549 198.367 374.28 196.259 376.5 194.775C378.72 193.292 381.33 192.5 384 192.5C383.702 192.5 383.415 192.381 383.205 192.17C382.994 191.96 382.875 191.673 382.875 191.375C382.875 191.077 382.994 190.79 383.205 190.58C383.415 190.369 383.702 190.25 384 190.25C380.885 190.25 377.84 191.174 375.25 192.904C372.66 194.635 370.641 197.095 369.449 199.973C368.257 202.851 367.945 206.017 368.553 209.073C369.16 212.128 370.66 214.934 372.863 217.137C375.066 219.34 377.872 220.84 380.927 221.447C383.983 222.055 387.149 221.743 390.027 220.551C392.905 219.359 395.365 217.34 397.096 214.75C398.826 212.16 399.75 209.115 399.75 206C399.75 206.148 399.721 206.294 399.665 206.431C399.608 206.567 399.525 206.691 399.421 206.796C399.316 206.9 399.192 206.983 399.056 207.04C398.919 207.096 398.773 207.125 398.625 207.125Z" fill="#3B3B3B"/>
<path d="M382.875 191.375C382.875 191.523 382.904 191.669 382.96 191.806C383.017 191.942 383.1 192.066 383.204 192.171C383.309 192.275 383.433 192.358 383.569 192.415C383.706 192.471 383.852 192.5 384 192.5C387.579 192.504 391.011 193.927 393.542 196.458C396.073 198.989 397.496 202.421 397.5 206C397.5 206.298 397.619 206.585 397.83 206.795C398.04 207.006 398.327 207.125 398.625 207.125C398.923 207.125 399.21 207.006 399.42 206.795C399.631 206.585 399.75 206.298 399.75 206C399.745 201.824 398.084 197.821 395.132 194.868C392.179 191.916 388.176 190.255 384 190.25C383.852 190.25 383.706 190.279 383.569 190.335C383.433 190.392 383.309 190.475 383.204 190.579C383.1 190.684 383.017 190.808 382.96 190.944C382.904 191.081 382.875 191.227 382.875 191.375Z" fill="#3492EB"/>
<path d="M398.625 204.88C398.477 204.88 398.331 204.909 398.194 204.965C398.058 205.022 397.934 205.105 397.829 205.209C397.725 205.314 397.642 205.438 397.585 205.574C397.529 205.711 397.5 205.857 397.5 206.005C397.496 209.584 396.073 213.016 393.542 215.547C391.011 218.078 387.579 219.501 384 219.505C383.702 219.505 383.415 219.624 383.205 219.835C382.994 220.045 382.875 220.332 382.875 220.63C382.875 220.928 382.994 221.215 383.205 221.425C383.415 221.636 383.702 221.755 384 221.755C388.176 221.75 392.179 220.089 395.132 217.137C398.084 214.184 399.745 210.181 399.75 206.005C399.75 205.857 399.721 205.711 399.665 205.574C399.608 205.438 399.525 205.314 399.421 205.209C399.316 205.105 399.192 205.022 399.056 204.965C398.919 204.909 398.773 204.88 398.625 204.88Z" fill="#3492EB"/>
<path d="M369.385 204.88C369.533 204.88 369.679 204.909 369.815 204.965C369.952 205.022 370.076 205.105 370.18 205.209C370.285 205.314 370.368 205.438 370.424 205.574C370.481 205.711 370.51 205.857 370.51 206.005C370.514 209.584 371.937 213.016 374.468 215.547C376.999 218.078 380.431 219.501 384.01 219.505C384.308 219.505 384.594 219.624 384.805 219.835C385.016 220.045 385.135 220.332 385.135 220.63C385.135 220.928 385.016 221.215 384.805 221.425C384.594 221.636 384.308 221.755 384.01 221.755C379.834 221.75 375.831 220.089 372.878 217.137C369.925 214.184 368.264 210.181 368.26 206.005C368.26 205.857 368.289 205.711 368.345 205.574C368.402 205.438 368.485 205.314 368.589 205.209C368.694 205.105 368.818 205.022 368.954 204.965C369.091 204.909 369.237 204.88 369.385 204.88Z" fill="#3492EB"/>
<path d="M536.899 324.4H538.699V333.148H540.733V334.624H538.699V337H537.025V334.624H531.499V333.022L536.899 324.4ZM533.425 333.148H537.025V327.19L533.425 333.148Z" fill="white" fill-opacity="0.7"/>
<path d="M263.918 335.21C261.118 335.21 259.13 333.292 259.13 329.96C259.13 326.572 261.272 324.71 263.932 324.71C266.592 324.71 268.706 326.488 268.706 329.96C268.706 333.292 266.634 335.21 263.918 335.21ZM263.918 334.048C265.892 334.048 267.25 332.62 267.25 329.96C267.25 327.3 265.892 325.872 263.918 325.872C261.944 325.872 260.586 327.3 260.586 329.96C260.586 332.62 261.944 334.048 263.918 334.048ZM271.666 335H270.322V327.72H271.428L271.582 328.644C272.114 327.902 272.926 327.51 273.794 327.51C275.376 327.51 276.37 328.476 276.37 330.254V335H275.026V330.268C275.026 329.176 274.466 328.658 273.472 328.658C272.506 328.658 271.666 329.358 271.666 330.506V335ZM279.609 324.92V335H278.265V324.92H279.609ZM283.002 326.502H281.49V324.92H283.002V326.502ZM282.918 335H281.574V327.72H282.918V335ZM286.226 335H284.882V327.72H285.988L286.142 328.644C286.674 327.902 287.486 327.51 288.354 327.51C289.936 327.51 290.93 328.476 290.93 330.254V335H289.586V330.268C289.586 329.176 289.026 328.658 288.032 328.658C287.066 328.658 286.226 329.358 286.226 330.506V335ZM297.782 332.9H299.238C298.874 334.23 297.726 335.21 295.976 335.21C293.904 335.21 292.406 333.922 292.406 331.36C292.406 328.826 293.89 327.51 295.906 327.51C297.922 327.51 299.322 328.714 299.322 331.654H293.778C293.89 333.334 294.8 334.076 296.018 334.076C296.9 334.076 297.572 333.572 297.782 332.9ZM293.834 330.59H297.95C297.852 329.232 297.054 328.588 295.934 328.588C294.856 328.588 294.044 329.246 293.834 330.59Z" fill="white" fill-opacity="0.7"/>
<circle cx="238.5" cy="331" r="11.5" fill="#1D805F" stroke="#1D805F"/>
<circle cx="238.5" cy="331" r="8" fill="#1D805F"/>
<path d="M237.299 333.5V333.5C237.246 333.5 237.195 333.479 237.157 333.442L234.958 331.242C234.88 331.163 234.88 331.037 234.958 330.958C235.037 330.88 235.163 330.88 235.241 330.958L237.299 333.017L241.758 328.558C241.837 328.481 241.963 328.481 242.041 328.558C242.12 328.637 242.12 328.763 242.041 328.842L237.44 333.442C237.403 333.479 237.352 333.5 237.299 333.5" stroke="white" stroke-opacity="0.95"/>
<path d="M536.107 369.27C533.551 369.27 531.607 367.182 531.607 362.664C531.607 358.02 533.569 356.13 536.107 356.13C538.645 356.13 540.607 358.02 540.607 362.664C540.607 367.182 538.663 369.27 536.107 369.27ZM536.107 367.83C537.943 367.83 538.843 366.192 538.843 362.664C538.843 359.154 537.943 357.57 536.107 357.57C534.271 357.57 533.371 359.154 533.371 362.664C533.371 366.192 534.271 367.83 536.107 367.83Z" fill="white" fill-opacity="0.7"/>
<path d="M263.918 367.21C261.118 367.21 259.13 365.292 259.13 361.96C259.13 358.572 261.272 356.71 263.932 356.71C266.592 356.71 268.706 358.488 268.706 361.96C268.706 365.292 266.634 367.21 263.918 367.21ZM263.918 366.048C265.892 366.048 267.25 364.62 267.25 361.96C267.25 359.3 265.892 357.872 263.918 357.872C261.944 357.872 260.586 359.3 260.586 361.96C260.586 364.62 261.944 366.048 263.918 366.048ZM270.252 359.72H271.596V364.494C271.596 365.572 272.17 366.062 273.108 366.062C274.326 366.062 274.9 365.152 274.9 364.158V359.72H276.244V367H275.138L274.984 366.16C274.466 366.86 273.682 367.21 272.8 367.21C271.302 367.21 270.252 366.328 270.252 364.466V359.72ZM281.458 365.922V367.07C281.094 367.168 280.8 367.21 280.464 367.21C279.176 367.21 278.518 366.398 278.518 365.194V360.868H277.44V359.72H278.518L278.602 357.97H279.862V359.72H281.43V360.868H279.862V365.222C279.862 365.768 280.128 366.034 280.632 366.034C280.87 366.034 281.052 366.02 281.458 365.922ZM283.87 361.75H282.442C282.582 360.406 283.744 359.51 285.564 359.51C287.468 359.51 288.532 360.532 288.532 362.03V367H287.426L287.258 366.006C286.782 366.678 285.998 367.21 284.822 367.21C283.226 367.21 282.302 366.314 282.302 365.124C282.302 363.794 283.1 363.038 285.06 362.702L287.188 362.338V361.974C287.188 361.078 286.586 360.574 285.508 360.574C284.472 360.574 283.968 361.022 283.87 361.75ZM287.188 363.388L285.382 363.71C284.08 363.934 283.73 364.34 283.73 364.984C283.73 365.684 284.234 366.076 285.144 366.076C286.166 366.076 287.188 365.32 287.188 364.326V363.388ZM290.335 367.49H291.777C291.903 368.218 292.519 368.666 293.583 368.666C294.941 368.666 295.641 367.98 295.641 366.776V365.838C295.151 366.412 294.339 366.79 293.219 366.79C291.511 366.79 289.999 365.516 289.999 363.192C289.999 360.91 291.329 359.51 293.303 359.51C294.437 359.51 295.207 360 295.669 360.686L295.879 359.72H296.985V366.846C296.985 368.498 295.781 369.73 293.625 369.73C291.679 369.73 290.573 368.848 290.335 367.49ZM291.399 363.22C291.399 364.76 292.351 365.642 293.513 365.642C294.899 365.642 295.711 364.732 295.711 363.262C295.711 361.554 294.815 360.658 293.513 360.658C292.281 360.658 291.399 361.484 291.399 363.22ZM303.907 364.9H305.363C304.999 366.23 303.851 367.21 302.101 367.21C300.029 367.21 298.531 365.922 298.531 363.36C298.531 360.826 300.015 359.51 302.031 359.51C304.047 359.51 305.447 360.714 305.447 363.654H299.903C300.015 365.334 300.925 366.076 302.143 366.076C303.025 366.076 303.697 365.572 303.907 364.9ZM299.959 362.59H304.075C303.977 361.232 303.179 360.588 302.059 360.588C300.981 360.588 300.169 361.246 299.959 362.59ZM306.498 364.914H307.87C308.024 365.782 308.626 366.146 309.648 366.146C310.74 366.146 311.314 365.656 311.314 365.026C311.314 364.172 310.502 363.976 309.2 363.682C307.492 363.304 306.806 362.66 306.806 361.582C306.806 360.336 307.8 359.51 309.634 359.51C311.258 359.51 312.378 360.308 312.616 361.638H311.244C311.09 360.966 310.544 360.574 309.62 360.574C308.612 360.574 308.164 360.952 308.164 361.456C308.164 362.016 308.458 362.268 309.858 362.576C311.552 362.954 312.672 363.43 312.672 364.928C312.672 366.258 311.566 367.21 309.634 367.21C307.814 367.21 306.624 366.314 306.498 364.914Z" fill="white" fill-opacity="0.7"/>
<circle cx="238.5" cy="363" r="11.5" stroke="#F2990A"/>
<circle cx="238.5" cy="363" r="8" fill="#F2990A"/>
<path fill-rule="evenodd" clip-rule="evenodd" d="M238.1 365.8C238.1 365.579 238.279 365.4 238.5 365.4C238.721 365.4 238.9 365.579 238.9 365.8C238.9 366.021 238.721 366.2 238.5 366.2C238.279 366.2 238.1 366.021 238.1 365.8ZM238.5 364.6C238.721 364.6 238.9 364.421 238.9 364.2V360.2C238.9 359.979 238.721 359.8 238.5 359.8C238.279 359.8 238.1 359.979 238.1 360.2V364.2C238.1 364.421 238.279 364.6 238.5 364.6Z" fill="white" fill-opacity="0.95"/>
<path d="M238.5 365.15C238.141 365.15 237.85 365.441 237.85 365.8H238.35C238.35 365.717 238.417 365.65 238.5 365.65V365.15ZM239.15 365.8C239.15 365.441 238.859 365.15 238.5 365.15V365.65C238.583 365.65 238.65 365.717 238.65 365.8H239.15ZM238.5 366.45C238.859 366.45 239.15 366.159 239.15 365.8H238.65C238.65 365.883 238.583 365.95 238.5 365.95V366.45ZM237.85 365.8C237.85 366.159 238.141 366.45 238.5 366.45V365.95C238.417 365.95 238.35 365.883 238.35 365.8H237.85ZM238.65 364.2C238.65 364.283 238.583 364.35 238.5 364.35V364.85C238.859 364.85 239.15 364.559 239.15 364.2H238.65ZM238.65 360.2V364.2H239.15V360.2H238.65ZM238.5 360.05C238.583 360.05 238.65 360.117 238.65 360.2H239.15C239.15 359.841 238.859 359.55 238.5 359.55V360.05ZM238.35 360.2C238.35 360.117 238.417 360.05 238.5 360.05V359.55C238.141 359.55 237.85 359.841 237.85 360.2H238.35ZM238.35 364.2V360.2H237.85V364.2H238.35ZM238.5 364.35C238.417 364.35 238.35 364.283 238.35 364.2H237.85C237.85 364.559 238.141 364.85 238.5 364.85V364.35Z" fill="white" fill-opacity="0.95"/>
<path d="M536.107 401.27C533.551 401.27 531.607 399.182 531.607 394.664C531.607 390.02 533.569 388.13 536.107 388.13C538.645 388.13 540.607 390.02 540.607 394.664C540.607 399.182 538.663 401.27 536.107 401.27ZM536.107 399.83C537.943 399.83 538.843 398.192 538.843 394.664C538.843 391.154 537.943 389.57 536.107 389.57C534.271 389.57 533.371 391.154 533.371 394.664C533.371 398.192 534.271 399.83 536.107 399.83Z" fill="white" fill-opacity="0.7"/>
<path d="M263.918 399.21C261.118 399.21 259.13 397.292 259.13 393.96C259.13 390.572 261.272 388.71 263.932 388.71C266.592 388.71 268.706 390.488 268.706 393.96C268.706 397.292 266.634 399.21 263.918 399.21ZM263.918 398.048C265.892 398.048 267.25 396.62 267.25 393.96C267.25 391.3 265.892 389.872 263.918 389.872C261.944 389.872 260.586 391.3 260.586 393.96C260.586 396.62 261.944 398.048 263.918 398.048ZM280.052 399H278.708V390.082C278.26 389.97 277.672 389.872 277.252 389.872C276.44 389.872 276.062 390.124 276.062 390.754V391.72H277.49V392.868H276.062V399H274.718V392.868H272.044V399H270.7V392.868H269.622V391.72H270.7V391.118C270.7 389.928 271.372 388.85 273.024 388.85C273.85 388.85 274.648 389.06 275.292 389.298C275.67 388.934 276.23 388.71 277.042 388.71C277.658 388.71 278.33 388.836 278.722 388.934L280.052 388.85V399ZM274.718 391.72V390.838C274.718 390.614 274.732 390.404 274.788 390.208C274.368 390.068 273.906 389.942 273.206 389.942C272.394 389.942 272.044 390.362 272.044 391.034V391.72H274.718ZM283.439 390.502H281.927V388.92H283.439V390.502ZM283.355 399H282.011V391.72H283.355V399ZM286.664 399H285.32V391.72H286.426L286.58 392.644C287.112 391.902 287.924 391.51 288.792 391.51C290.374 391.51 291.368 392.476 291.368 394.254V399H290.024V394.268C290.024 393.176 289.464 392.658 288.47 392.658C287.504 392.658 286.664 393.358 286.664 394.506V399ZM298.219 396.9H299.675C299.311 398.23 298.163 399.21 296.413 399.21C294.341 399.21 292.843 397.922 292.843 395.36C292.843 392.826 294.327 391.51 296.343 391.51C298.359 391.51 299.759 392.714 299.759 395.654H294.215C294.327 397.334 295.237 398.076 296.455 398.076C297.337 398.076 298.009 397.572 298.219 396.9ZM294.271 394.59H298.387C298.289 393.232 297.491 392.588 296.371 392.588C295.293 392.588 294.481 393.246 294.271 394.59Z" fill="white" fill-opacity="0.7"/>
<circle cx="238.5" cy="395" r="11.5" stroke="#C94403"/>
<circle cx="238.5" cy="395" r="8" fill="#C94403"/>
<path fill-rule="evenodd" clip-rule="evenodd" d="M238.814 395L241.546 392.268C241.633 392.181 241.633 392.041 241.546 391.954C241.459 391.867 241.319 391.867 241.231 391.954L238.5 394.686L235.768 391.954C235.681 391.867 235.541 391.867 235.454 391.954C235.367 392.041 235.367 392.181 235.454 392.268L238.186 395L235.454 397.732C235.367 397.819 235.367 397.959 235.454 398.046C235.497 398.089 235.554 398.111 235.611 398.111C235.668 398.111 235.725 398.089 235.768 398.046L238.5 395.314L241.231 398.046C241.275 398.089 241.332 398.111 241.389 398.111C241.446 398.111 241.503 398.089 241.546 398.046C241.633 397.959 241.633 397.819 241.546 397.732L238.814 395Z" fill="white" fill-opacity="0.95" stroke="white" stroke-opacity="0.95"/>
<path d="M227.55 292.92V303H230.728C233.682 303 235.782 301.222 235.782 297.96C235.782 294.502 233.794 292.92 230.826 292.92H227.55ZM230.84 294.054C232.996 294.054 234.34 295.314 234.34 297.96C234.34 300.494 233.08 301.824 230.868 301.824H228.978V294.054H230.84ZM238.82 294.502V292.92H237.308V294.502H238.82ZM238.736 303V295.72H237.392V303H238.736ZM242.045 303V299.346C242.045 297.512 242.857 296.826 243.781 296.826C244.103 296.826 244.369 296.882 244.635 296.952V295.608C244.467 295.566 244.187 295.51 243.837 295.51C243.025 295.51 242.395 295.958 241.989 296.798L241.807 295.72H240.701V303H242.045ZM250.51 300.9C250.3 301.572 249.628 302.076 248.746 302.076C247.528 302.076 246.618 301.334 246.506 299.654H252.05C252.05 296.714 250.65 295.51 248.634 295.51C246.618 295.51 245.134 296.826 245.134 299.36C245.134 301.922 246.632 303.21 248.704 303.21C250.454 303.21 251.602 302.23 251.966 300.9H250.51ZM246.562 298.59C246.772 297.246 247.584 296.588 248.662 296.588C249.782 296.588 250.58 297.232 250.678 298.59H246.562ZM258.408 300.662C258.268 301.572 257.61 302.076 256.714 302.076C255.58 302.076 254.67 301.236 254.67 299.458C254.67 297.526 255.51 296.644 256.7 296.644C257.554 296.644 258.156 297.078 258.338 297.876H259.822C259.584 296.392 258.324 295.51 256.672 295.51C254.614 295.51 253.242 296.98 253.242 299.416C253.242 301.88 254.754 303.21 256.686 303.21C258.492 303.21 259.682 302.076 259.878 300.662H258.408ZM264.662 301.922C264.256 302.02 264.074 302.034 263.836 302.034C263.332 302.034 263.066 301.768 263.066 301.222V296.868H264.634V295.72H263.066V293.97H261.806L261.722 295.72H260.644V296.868H261.722V301.194C261.722 302.398 262.38 303.21 263.668 303.21C264.004 303.21 264.298 303.168 264.662 303.07V301.922ZM265.437 299.36C265.437 301.88 266.991 303.21 269.021 303.21C271.079 303.21 272.619 301.908 272.619 299.36C272.619 296.742 271.023 295.51 269.035 295.51C267.061 295.51 265.437 296.742 265.437 299.36ZM266.837 299.36C266.837 297.54 267.789 296.602 269.035 296.602C270.281 296.602 271.219 297.512 271.219 299.36C271.219 301.166 270.337 302.118 269.049 302.118C267.789 302.118 266.837 301.166 266.837 299.36ZM275.5 303V299.346C275.5 297.512 276.312 296.826 277.236 296.826C277.558 296.826 277.824 296.882 278.09 296.952V295.608C277.922 295.566 277.642 295.51 277.292 295.51C276.48 295.51 275.85 295.958 275.444 296.798L275.262 295.72H274.156V303H275.5ZM285.222 295.72H283.878L281.82 301.908L279.762 295.72H278.306L280.98 303H281.414C280.994 304.148 280.784 304.61 280.14 304.61C279.916 304.61 279.72 304.582 279.44 304.512V305.604C279.832 305.702 280.014 305.73 280.308 305.73C281.652 305.73 282.142 304.694 282.688 303.098L285.222 295.72ZM290.045 300.172C290.325 302.02 291.963 303.21 294.133 303.21C296.639 303.21 298.067 301.782 298.067 300.214C298.067 298.66 297.269 297.834 294.469 297.05C292.159 296.406 291.823 296.028 291.823 295.244C291.823 294.488 292.467 293.886 294.007 293.886C295.519 293.886 296.373 294.46 296.527 295.44H297.997C297.745 293.732 296.163 292.71 294.007 292.71C291.697 292.71 290.395 293.83 290.395 295.3C290.395 296.686 291.123 297.512 293.461 298.156C296.177 298.898 296.639 299.332 296.639 300.27C296.639 301.222 295.785 302.034 294.105 302.034C292.607 302.034 291.683 301.306 291.515 300.172H290.045ZM305.484 295.72H304.14L302.082 301.908L300.024 295.72H298.568L301.242 303H301.676C301.256 304.148 301.046 304.61 300.402 304.61C300.178 304.61 299.982 304.582 299.702 304.512V305.604C300.094 305.702 300.276 305.73 300.57 305.73C301.914 305.73 302.404 304.694 302.95 303.098L305.484 295.72ZM307.943 303V298.506C307.943 297.358 308.783 296.658 309.749 296.658C310.743 296.658 311.303 297.176 311.303 298.268V303H312.647V298.254C312.647 296.476 311.653 295.51 310.071 295.51C309.203 295.51 308.391 295.902 307.859 296.644L307.705 295.72H306.599V303H307.943ZM319.289 300.662C319.149 301.572 318.491 302.076 317.595 302.076C316.461 302.076 315.551 301.236 315.551 299.458C315.551 297.526 316.391 296.644 317.581 296.644C318.435 296.644 319.037 297.078 319.219 297.876H320.703C320.465 296.392 319.205 295.51 317.553 295.51C315.495 295.51 314.123 296.98 314.123 299.416C314.123 301.88 315.635 303.21 317.567 303.21C319.373 303.21 320.562 302.076 320.758 300.662H319.289ZM323.638 303V298.562C323.638 297.358 324.45 296.658 325.444 296.658C326.438 296.658 326.998 297.176 326.998 298.268V303H328.342V298.254C328.342 296.476 327.348 295.51 325.766 295.51C324.94 295.51 324.17 295.86 323.638 296.546V292.92H322.294V303H323.638ZM331.582 303V299.346C331.582 297.512 332.394 296.826 333.318 296.826C333.64 296.826 333.906 296.882 334.172 296.952V295.608C334.004 295.566 333.724 295.51 333.374 295.51C332.562 295.51 331.932 295.958 331.526 296.798L331.344 295.72H330.238V303H331.582ZM334.671 299.36C334.671 301.88 336.225 303.21 338.255 303.21C340.313 303.21 341.853 301.908 341.853 299.36C341.853 296.742 340.257 295.51 338.269 295.51C336.295 295.51 334.671 296.742 334.671 299.36ZM336.071 299.36C336.071 297.54 337.023 296.602 338.269 296.602C339.515 296.602 340.453 297.512 340.453 299.36C340.453 301.166 339.571 302.118 338.283 302.118C337.023 302.118 336.071 301.166 336.071 299.36ZM344.734 303V298.506C344.734 297.358 345.574 296.658 346.54 296.658C347.534 296.658 348.094 297.176 348.094 298.268V303H349.438V298.254C349.438 296.476 348.444 295.51 346.862 295.51C345.994 295.51 345.182 295.902 344.65 296.644L344.496 295.72H343.39V303H344.734ZM352.762 294.502V292.92H351.25V294.502H352.762ZM352.678 303V295.72H351.334V303H352.678ZM359.99 296.994V295.72H354.292V296.854H358.408L354.082 301.726V303H359.99V301.852H355.664L359.99 296.994ZM362.544 297.75C362.642 297.022 363.146 296.574 364.182 296.574C365.26 296.574 365.862 297.078 365.862 297.974V298.338L363.734 298.702C361.774 299.038 360.976 299.794 360.976 301.124C360.976 302.314 361.9 303.21 363.496 303.21C364.672 303.21 365.456 302.678 365.932 302.006L366.1 303H367.206V298.03C367.206 296.532 366.142 295.51 364.238 295.51C362.418 295.51 361.256 296.406 361.116 297.75H362.544ZM365.862 299.388V300.326C365.862 301.32 364.84 302.076 363.818 302.076C362.908 302.076 362.404 301.684 362.404 300.984C362.404 300.34 362.754 299.934 364.056 299.71L365.862 299.388ZM372.341 301.922C371.935 302.02 371.753 302.034 371.515 302.034C371.011 302.034 370.745 301.768 370.745 301.222V296.868H372.313V295.72H370.745V293.97H369.485L369.401 295.72H368.323V296.868H369.401V301.194C369.401 302.398 370.059 303.21 371.347 303.21C371.683 303.21 371.977 303.168 372.341 303.07V301.922ZM375.033 294.502V292.92H373.521V294.502H375.033ZM374.949 303V295.72H373.605V303H374.949ZM376.494 299.36C376.494 301.88 378.048 303.21 380.078 303.21C382.136 303.21 383.676 301.908 383.676 299.36C383.676 296.742 382.08 295.51 380.092 295.51C378.118 295.51 376.494 296.742 376.494 299.36ZM377.894 299.36C377.894 297.54 378.846 296.602 380.092 296.602C381.338 296.602 382.276 297.512 382.276 299.36C382.276 301.166 381.394 302.118 380.106 302.118C378.846 302.118 377.894 301.166 377.894 299.36ZM386.556 303V298.506C386.556 297.358 387.396 296.658 388.362 296.658C389.356 296.658 389.916 297.176 389.916 298.268V303H391.26V298.254C391.26 296.476 390.266 295.51 388.684 295.51C387.816 295.51 387.004 295.902 386.472 296.644L386.318 295.72H385.212V303H386.556Z" fill="white" fill-opacity="0.95"/>
<path d="M227.4 123.36H228.636V130.908H232.704V132H227.4V123.36ZM234.945 127.5H233.721C233.841 126.348 234.837 125.58 236.397 125.58C238.029 125.58 238.941 126.456 238.941 127.74V132H237.993L237.849 131.148C237.441 131.724 236.769 132.18 235.761 132.18C234.393 132.18 233.601 131.412 233.601 130.392C233.601 129.252 234.285 128.604 235.965 128.316L237.789 128.004V127.692C237.789 126.924 237.273 126.492 236.349 126.492C235.461 126.492 235.029 126.876 234.945 127.5ZM237.789 128.904L236.241 129.18C235.125 129.372 234.825 129.72 234.825 130.272C234.825 130.872 235.257 131.208 236.037 131.208C236.913 131.208 237.789 130.56 237.789 129.708V128.904ZM240.079 130.212H241.255C241.387 130.956 241.903 131.268 242.779 131.268C243.715 131.268 244.207 130.848 244.207 130.308C244.207 129.576 243.511 129.408 242.395 129.156C240.931 128.832 240.343 128.28 240.343 127.356C240.343 126.288 241.195 125.58 242.767 125.58C244.159 125.58 245.119 126.264 245.323 127.404H244.147C244.015 126.828 243.547 126.492 242.755 126.492C241.891 126.492 241.507 126.816 241.507 127.248C241.507 127.728 241.759 127.944 242.959 128.208C244.411 128.532 245.371 128.94 245.371 130.224C245.371 131.364 244.423 132.18 242.767 132.18C241.207 132.18 240.187 131.412 240.079 130.212ZM249.472 131.076V132.06C249.16 132.144 248.908 132.18 248.62 132.18C247.516 132.18 246.952 131.484 246.952 130.452V126.744H246.028V125.76H246.952L247.024 124.26H248.104V125.76H249.448V126.744H248.104V130.476C248.104 130.944 248.332 131.172 248.764 131.172C248.968 131.172 249.124 131.16 249.472 131.076ZM261.569 126.132H260.333C260.177 124.956 259.241 124.2 257.909 124.2C256.253 124.2 255.101 125.34 255.101 127.68C255.101 129.912 256.217 131.148 257.837 131.148C259.241 131.148 260.273 130.2 260.345 128.952H261.581C261.485 130.632 260.009 132.18 257.813 132.18C255.401 132.18 253.853 130.56 253.853 127.68C253.853 124.764 255.533 123.18 257.909 123.18C259.985 123.18 261.449 124.548 261.569 126.132ZM262.475 129.576H263.735C263.879 130.548 264.671 131.172 265.955 131.172C267.395 131.172 268.127 130.476 268.127 129.66C268.127 128.856 267.731 128.484 265.403 127.848C263.399 127.296 262.775 126.588 262.775 125.4C262.775 124.14 263.891 123.18 265.871 123.18C267.719 123.18 269.075 124.056 269.291 125.52H268.031C267.899 124.68 267.167 124.188 265.871 124.188C264.551 124.188 263.999 124.704 263.999 125.352C263.999 126.024 264.287 126.348 266.267 126.9C268.667 127.572 269.351 128.28 269.351 129.612C269.351 130.956 268.127 132.18 265.979 132.18C264.119 132.18 262.715 131.16 262.475 129.576ZM276.283 123.36H277.483L274.387 132H272.863L269.719 123.36H271.015L273.631 130.848L276.283 123.36ZM281.866 125.76H283.018V129.852C283.018 130.776 283.51 131.196 284.314 131.196C285.358 131.196 285.85 130.416 285.85 129.564V125.76H287.002V132H286.054L285.922 131.28C285.478 131.88 284.806 132.18 284.05 132.18C282.766 132.18 281.866 131.424 281.866 129.828V125.76ZM288.688 125.76H289.636L289.816 126.576C290.26 126 290.968 125.58 291.928 125.58C293.572 125.58 294.676 126.756 294.676 128.832C294.676 130.992 293.488 132.18 291.844 132.18C290.896 132.18 290.236 131.772 289.84 131.196V134.16H288.688V125.76ZM293.476 128.808C293.476 127.272 292.696 126.564 291.664 126.564C290.632 126.564 289.78 127.32 289.78 128.808C289.78 130.32 290.536 131.196 291.664 131.196C292.744 131.196 293.476 130.452 293.476 128.808ZM297.152 123.36V132H296V123.36H297.152ZM298.476 128.88C298.476 126.636 299.868 125.58 301.56 125.58C303.264 125.58 304.632 126.636 304.632 128.88C304.632 131.064 303.312 132.18 301.548 132.18C299.808 132.18 298.476 131.04 298.476 128.88ZM299.676 128.88C299.676 130.428 300.492 131.244 301.572 131.244C302.676 131.244 303.432 130.428 303.432 128.88C303.432 127.296 302.628 126.516 301.56 126.516C300.492 126.516 299.676 127.32 299.676 128.88ZM306.933 127.5H305.709C305.829 126.348 306.825 125.58 308.385 125.58C310.017 125.58 310.929 126.456 310.929 127.74V132H309.981L309.837 131.148C309.429 131.724 308.757 132.18 307.749 132.18C306.381 132.18 305.589 131.412 305.589 130.392C305.589 129.252 306.273 128.604 307.953 128.316L309.777 128.004V127.692C309.777 126.924 309.261 126.492 308.337 126.492C307.449 126.492 307.017 126.876 306.933 127.5ZM309.777 128.904L308.229 129.18C307.113 129.372 306.813 129.72 306.813 130.272C306.813 130.872 307.245 131.208 308.025 131.208C308.901 131.208 309.777 130.56 309.777 129.708V128.904ZM318.175 132H317.227L317.023 131.124C316.603 131.736 315.919 132.18 314.947 132.18C313.375 132.18 312.187 131.028 312.187 128.916C312.187 126.684 313.351 125.58 315.019 125.58C315.967 125.58 316.615 125.988 317.023 126.552V123.36H318.175V132ZM313.387 128.94C313.387 130.44 314.155 131.196 315.199 131.196C316.387 131.196 317.083 130.26 317.083 128.952C317.083 127.428 316.351 126.564 315.199 126.564C314.107 126.564 313.387 127.308 313.387 128.94ZM323.097 128.88C323.097 126.636 324.489 125.58 326.181 125.58C327.885 125.58 329.253 126.636 329.253 128.88C329.253 131.064 327.933 132.18 326.169 132.18C324.429 132.18 323.097 131.04 323.097 128.88ZM324.297 128.88C324.297 130.428 325.113 131.244 326.193 131.244C327.297 131.244 328.053 130.428 328.053 128.88C328.053 127.296 327.249 126.516 326.181 126.516C325.113 126.516 324.297 127.32 324.297 128.88ZM331.722 132H330.57V125.76H331.518L331.65 126.552C332.106 125.916 332.802 125.58 333.546 125.58C334.902 125.58 335.754 126.408 335.754 127.932V132H334.602V127.944C334.602 127.008 334.122 126.564 333.27 126.564C332.442 126.564 331.722 127.164 331.722 128.148V132ZM348.609 132H347.253L346.401 129.816H342.285L341.421 132H340.137L343.689 123.36H345.069L348.609 132ZM344.361 124.584L342.681 128.82H346.005L344.361 124.584ZM349.389 125.76H350.541V129.852C350.541 130.776 351.033 131.196 351.837 131.196C352.881 131.196 353.373 130.416 353.373 129.564V125.76H354.525V132H353.577L353.445 131.28C353.001 131.88 352.329 132.18 351.573 132.18C350.289 132.18 349.389 131.424 349.389 129.828V125.76ZM356.139 132.42H357.375C357.483 133.044 358.011 133.428 358.923 133.428C360.087 133.428 360.687 132.84 360.687 131.808V131.004C360.267 131.496 359.571 131.82 358.611 131.82C357.147 131.82 355.851 130.728 355.851 128.736C355.851 126.78 356.991 125.58 358.683 125.58C359.655 125.58 360.315 126 360.711 126.588L360.891 125.76H361.839V131.868C361.839 133.284 360.807 134.34 358.959 134.34C357.291 134.34 356.343 133.584 356.139 132.42ZM357.051 128.76C357.051 130.08 357.867 130.836 358.863 130.836C360.051 130.836 360.747 130.056 360.747 128.796C360.747 127.332 359.979 126.564 358.863 126.564C357.807 126.564 357.051 127.272 357.051 128.76ZM363.464 125.76H364.616V129.852C364.616 130.776 365.108 131.196 365.912 131.196C366.956 131.196 367.448 130.416 367.448 129.564V125.76H368.6V132H367.652L367.52 131.28C367.076 131.88 366.404 132.18 365.648 132.18C364.364 132.18 363.464 131.424 363.464 129.828V125.76ZM369.805 130.212H370.981C371.113 130.956 371.629 131.268 372.505 131.268C373.441 131.268 373.933 130.848 373.933 130.308C373.933 129.576 373.237 129.408 372.121 129.156C370.657 128.832 370.069 128.28 370.069 127.356C370.069 126.288 370.921 125.58 372.493 125.58C373.885 125.58 374.845 126.264 375.049 127.404H373.873C373.741 126.828 373.273 126.492 372.481 126.492C371.617 126.492 371.233 126.816 371.233 127.248C371.233 127.728 371.485 127.944 372.685 128.208C374.137 128.532 375.097 128.94 375.097 130.224C375.097 131.364 374.149 132.18 372.493 132.18C370.933 132.18 369.913 131.412 369.805 130.212ZM379.198 131.076V132.06C378.886 132.144 378.634 132.18 378.346 132.18C377.242 132.18 376.678 131.484 376.678 130.452V126.744H375.754V125.76H376.678L376.75 124.26H377.83V125.76H379.174V126.744H377.83V130.476C377.83 130.944 378.058 131.172 378.49 131.172C378.694 131.172 378.85 131.16 379.198 131.076ZM389.387 125.58C389.387 126.54 388.667 127.176 388.007 127.524C388.799 127.872 389.699 128.544 389.699 129.732C389.699 131.16 388.475 132.18 386.639 132.18C384.803 132.18 383.579 131.184 383.579 129.816C383.579 128.532 384.467 127.884 385.223 127.596C384.587 127.296 383.891 126.732 383.891 125.664C383.891 124.116 385.199 123.42 386.639 123.42C388.079 123.42 389.387 124.056 389.387 125.58ZM388.475 129.732C388.475 128.4 387.323 128.16 386.387 127.956C385.691 128.16 384.803 128.676 384.803 129.732C384.803 130.548 385.391 131.232 386.639 131.232C387.863 131.232 388.475 130.608 388.475 129.732ZM385.019 125.604C385.019 126.876 386.159 127.128 386.879 127.224C387.491 126.984 388.235 126.492 388.235 125.604C388.235 124.812 387.515 124.32 386.639 124.32C385.763 124.32 385.019 124.74 385.019 125.604ZM392.73 130.608V131.82C392.73 133.188 391.914 133.704 391.158 133.8V133.2C391.602 133.104 391.902 132.792 391.902 132H391.338V130.608H392.73ZM399.362 125.796H398.15C398.33 124.452 399.446 123.42 401.102 123.42C402.662 123.42 403.838 124.332 403.838 125.808C403.838 126.948 403.346 127.68 401.834 129.12L399.914 130.944H403.802V132H398.354V130.944L401.09 128.316C402.23 127.224 402.662 126.636 402.662 125.82C402.662 124.968 402.074 124.392 401.078 124.392C400.13 124.392 399.458 124.92 399.362 125.796ZM408.225 132.18C406.521 132.18 405.225 130.788 405.225 127.776C405.225 124.68 406.533 123.42 408.225 123.42C409.917 123.42 411.225 124.68 411.225 127.776C411.225 130.788 409.929 132.18 408.225 132.18ZM408.225 131.22C409.449 131.22 410.049 130.128 410.049 127.776C410.049 125.436 409.449 124.38 408.225 124.38C407.001 124.38 406.401 125.436 406.401 127.776C406.401 130.128 407.001 131.22 408.225 131.22ZM416.44 132H415.3V124.8L413.416 125.772V124.584L415.312 123.6H416.44V132ZM419.976 130.38H421.248C421.404 130.92 421.86 131.244 422.568 131.244C423.588 131.244 424.344 130.488 424.464 128.016C423.96 128.82 423.144 129.096 422.472 129.096C420.936 129.096 419.856 128.04 419.856 126.276C419.856 124.536 421.068 123.42 422.664 123.42C424.608 123.42 425.616 124.764 425.616 127.464C425.616 131.148 424.188 132.18 422.52 132.18C421.224 132.18 420.252 131.472 419.976 130.38ZM424.356 126.312C424.356 125.064 423.624 124.38 422.664 124.38C421.74 124.38 421.02 125.052 421.02 126.216C421.02 127.476 421.74 128.136 422.676 128.136C423.804 128.136 424.356 127.284 424.356 126.312ZM431.633 127.5H430.409C430.529 126.348 431.525 125.58 433.085 125.58C434.717 125.58 435.629 126.456 435.629 127.74V132H434.681L434.537 131.148C434.129 131.724 433.457 132.18 432.449 132.18C431.081 132.18 430.289 131.412 430.289 130.392C430.289 129.252 430.973 128.604 432.653 128.316L434.477 128.004V127.692C434.477 126.924 433.961 126.492 433.037 126.492C432.149 126.492 431.717 126.876 431.633 127.5ZM434.477 128.904L432.929 129.18C431.813 129.372 431.513 129.72 431.513 130.272C431.513 130.872 431.945 131.208 432.725 131.208C433.601 131.208 434.477 130.56 434.477 129.708V128.904ZM440.03 131.076V132.06C439.718 132.144 439.466 132.18 439.178 132.18C438.074 132.18 437.51 131.484 437.51 130.452V126.744H436.586V125.76H437.51L437.582 124.26H438.662V125.76H440.006V126.744H438.662V130.476C438.662 130.944 438.89 131.172 439.322 131.172C439.526 131.172 439.682 131.16 440.03 131.076ZM445.803 125.796H444.591C444.771 124.452 445.887 123.42 447.543 123.42C449.103 123.42 450.279 124.332 450.279 125.808C450.279 126.948 449.787 127.68 448.275 129.12L446.355 130.944H450.243V132H444.795V130.944L447.531 128.316C448.671 127.224 449.103 126.636 449.103 125.82C449.103 124.968 448.515 124.392 447.519 124.392C446.571 124.392 445.899 124.92 445.803 125.796ZM453.562 132H452.17V130.608H453.562V132ZM453.562 127.152H452.17V125.76H453.562V127.152ZM458.264 132.18C456.56 132.18 455.264 130.788 455.264 127.776C455.264 124.68 456.572 123.42 458.264 123.42C459.956 123.42 461.264 124.68 461.264 127.776C461.264 130.788 459.968 132.18 458.264 132.18ZM458.264 131.22C459.488 131.22 460.088 130.128 460.088 127.776C460.088 125.436 459.488 124.38 458.264 124.38C457.04 124.38 456.44 125.436 456.44 127.776C456.44 130.128 457.04 131.22 458.264 131.22ZM466.479 132H465.339V124.8L463.455 125.772V124.584L465.351 123.6H466.479V132ZM469.955 123.36H472.763C474.935 123.36 476.147 124.344 476.147 126.168C476.147 127.92 474.983 128.916 472.715 128.916H471.179V132H469.955V123.36ZM472.787 124.356H471.179V127.92H472.739C474.263 127.92 474.875 127.296 474.875 126.168C474.875 125.028 474.143 124.356 472.787 124.356ZM482.529 132H481.377L478.713 125.232V132H477.525V123.36H479.229L481.977 130.56L484.569 123.36H486.177V132H485.025V125.292L482.529 132Z" fill="white" fill-opacity="0.7"/>
<path d="M334.616 95.86V96.952H331.712V104.5H330.488V96.952H327.62V95.86H334.616ZM334.25 101.38C334.25 99.136 335.642 98.08 337.334 98.08C339.038 98.08 340.406 99.136 340.406 101.38C340.406 103.564 339.086 104.68 337.322 104.68C335.582 104.68 334.25 103.54 334.25 101.38ZM335.45 101.38C335.45 102.928 336.266 103.744 337.346 103.744C338.45 103.744 339.206 102.928 339.206 101.38C339.206 99.796 338.402 99.016 337.334 99.016C336.266 99.016 335.45 99.82 335.45 101.38ZM344.507 103.576V104.56C344.195 104.644 343.943 104.68 343.655 104.68C342.551 104.68 341.987 103.984 341.987 102.952V99.244H341.063V98.26H341.987L342.059 96.76H343.139V98.26H344.483V99.244H343.139V102.976C343.139 103.444 343.367 103.672 343.799 103.672C344.003 103.672 344.159 103.66 344.507 103.576ZM346.574 100H345.35C345.47 98.848 346.466 98.08 348.026 98.08C349.658 98.08 350.57 98.956 350.57 100.24V104.5H349.622L349.478 103.648C349.07 104.224 348.398 104.68 347.39 104.68C346.022 104.68 345.23 103.912 345.23 102.892C345.23 101.752 345.914 101.104 347.594 100.816L349.418 100.504V100.192C349.418 99.424 348.902 98.992 347.978 98.992C347.09 98.992 346.658 99.376 346.574 100ZM349.418 101.404L347.87 101.68C346.754 101.872 346.454 102.22 346.454 102.772C346.454 103.372 346.886 103.708 347.666 103.708C348.542 103.708 349.418 103.06 349.418 102.208V101.404ZM353.34 95.86V104.5H352.188V95.86H353.34ZM358.621 95.86H359.845V101.716C359.845 102.868 360.625 103.648 362.041 103.648C363.457 103.648 364.237 102.856 364.237 101.716V95.86H365.425V101.608C365.425 103.516 364.069 104.68 362.029 104.68C359.941 104.68 358.621 103.468 358.621 101.608V95.86ZM366.626 102.712H367.802C367.934 103.456 368.45 103.768 369.326 103.768C370.262 103.768 370.754 103.348 370.754 102.808C370.754 102.076 370.058 101.908 368.942 101.656C367.478 101.332 366.89 100.78 366.89 99.856C366.89 98.788 367.742 98.08 369.314 98.08C370.706 98.08 371.666 98.764 371.87 99.904H370.694C370.562 99.328 370.094 98.992 369.302 98.992C368.438 98.992 368.054 99.316 368.054 99.748C368.054 100.228 368.306 100.444 369.506 100.708C370.958 101.032 371.918 101.44 371.918 102.724C371.918 103.864 370.97 104.68 369.314 104.68C367.754 104.68 366.734 103.912 366.626 102.712ZM377.483 102.7H378.731C378.419 103.84 377.435 104.68 375.935 104.68C374.159 104.68 372.875 103.576 372.875 101.38C372.875 99.208 374.147 98.08 375.875 98.08C377.603 98.08 378.803 99.112 378.803 101.632H374.051C374.147 103.072 374.927 103.708 375.971 103.708C376.727 103.708 377.303 103.276 377.483 102.7ZM374.099 100.72H377.627C377.543 99.556 376.859 99.004 375.899 99.004C374.975 99.004 374.279 99.568 374.099 100.72ZM381.336 104.5H380.184V98.26H381.132L381.288 99.184C381.636 98.464 382.176 98.08 382.872 98.08C383.172 98.08 383.412 98.128 383.556 98.164V99.316C383.328 99.256 383.1 99.208 382.824 99.208C382.032 99.208 381.336 99.796 381.336 101.368V104.5ZM383.981 102.712H385.157C385.289 103.456 385.805 103.768 386.681 103.768C387.617 103.768 388.109 103.348 388.109 102.808C388.109 102.076 387.413 101.908 386.297 101.656C384.833 101.332 384.245 100.78 384.245 99.856C384.245 98.788 385.097 98.08 386.669 98.08C388.061 98.08 389.021 98.764 389.225 99.904H388.049C387.917 99.328 387.449 98.992 386.657 98.992C385.793 98.992 385.409 99.316 385.409 99.748C385.409 100.228 385.661 100.444 386.861 100.708C388.313 101.032 389.273 101.44 389.273 102.724C389.273 103.864 388.325 104.68 386.669 104.68C385.109 104.68 384.089 103.912 383.981 102.712Z" fill="white" fill-opacity="0.7"/>
<g clip-path="url(#clip0_489_5180)">
<path fill-rule="evenodd" clip-rule="evenodd" d="M406.5 107.5C402.64 107.5 399.5 104.36 399.5 100.5C399.5 96.64 402.64 93.5 406.5 93.5C410.36 93.5 413.5 96.64 413.5 100.5C413.5 104.36 410.36 107.5 406.5 107.5ZM406.5 92.5C402.082 92.5 398.5 96.082 398.5 100.5C398.5 104.918 402.082 108.5 406.5 108.5C410.918 108.5 414.5 104.918 414.5 100.5C414.5 96.082 410.918 92.5 406.5 92.5ZM406.5 97C406.224 97 406 97.224 406 97.5C406 97.776 406.224 98 406.5 98C406.776 98 407 97.776 407 97.5C407 97.224 406.776 97 406.5 97ZM406.5 99C406.225 99 406 99.225 406 99.5V103.5C406 103.775 406.225 104 406.5 104C406.775 104 407 103.775 407 103.5V99.5C407 99.225 406.775 99 406.5 99Z" fill="white" fill-opacity="0.7"/>
</g>
<path d="M231.008 91.524H228.18C228.6 88.388 231.204 85.98 235.068 85.98C238.708 85.98 241.452 88.108 241.452 91.552C241.452 94.212 240.304 95.92 236.776 99.28L232.296 103.536H241.368V106H228.656V103.536L235.04 97.404C237.7 94.856 238.708 93.484 238.708 91.58C238.708 89.592 237.336 88.248 235.012 88.248C232.8 88.248 231.232 89.48 231.008 91.524ZM247.545 91.02H244.717C245.193 87.968 247.909 85.98 251.633 85.98C254.909 85.98 257.989 87.604 257.989 91.104C257.989 93.232 256.505 94.94 254.461 95.584C256.673 96.06 258.661 97.712 258.661 100.652C258.661 104.012 255.917 106.392 251.717 106.392C247.601 106.392 245.109 104.264 244.661 101.128H247.517C247.965 103.088 249.281 104.152 251.661 104.152C254.349 104.152 255.917 102.696 255.917 100.596C255.917 97.908 253.845 96.9 252.053 96.9H250.429V94.576H251.997C253.481 94.576 255.245 93.568 255.245 91.3C255.245 89.2 253.397 88.22 251.493 88.22C249.309 88.22 247.825 89.34 247.545 91.02ZM265.902 102.752V105.58C265.902 108.772 263.998 109.976 262.234 110.2V108.8C263.27 108.576 263.97 107.848 263.97 106H262.654V102.752H265.902ZM283.481 90.124H280.513C280.177 88.948 279.141 88.164 277.545 88.164C275.333 88.164 273.401 89.956 273.093 95.724C274.269 93.848 276.173 93.176 277.769 93.176C281.605 93.176 283.873 95.92 283.873 99.756C283.873 104.264 280.541 106.42 277.321 106.42C272.785 106.42 270.433 103.088 270.433 96.984C270.433 88.192 273.961 85.98 277.573 85.98C280.541 85.98 282.865 87.576 283.481 90.124ZM273.373 99.672C273.373 102.584 275.081 104.18 277.321 104.18C279.449 104.18 281.157 102.64 281.157 99.896C281.157 97.124 279.645 95.416 277.293 95.416C274.661 95.416 273.373 97.404 273.373 99.672ZM294.894 86.4H297.694V100.008H300.858V102.304H297.694V106H295.09V102.304H286.494V99.812L294.894 86.4ZM289.49 100.008H295.09V90.74L289.49 100.008ZM304.291 102.22H307.259C307.623 103.48 308.687 104.236 310.339 104.236C312.719 104.236 314.483 102.472 314.763 96.704C313.587 98.58 311.683 99.224 310.115 99.224C306.531 99.224 304.011 96.76 304.011 92.644C304.011 88.584 306.839 85.98 310.563 85.98C315.099 85.98 317.451 89.116 317.451 95.416C317.451 104.012 314.119 106.42 310.227 106.42C307.203 106.42 304.935 104.768 304.291 102.22ZM314.511 92.728C314.511 89.816 312.803 88.22 310.563 88.22C308.407 88.22 306.727 89.788 306.727 92.504C306.727 95.444 308.407 96.984 310.591 96.984C313.223 96.984 314.511 94.996 314.511 92.728Z" fill="white" fill-opacity="0.7"/>
<path d="M0 460H768C768 472.703 757.703 483 745 483H23C10.2975 483 0 472.703 0 460Z" fill="url(#paint1_linear_489_5180)"/>
<defs>
<linearGradient id="paint0_linear_489_5180" x1="728" y1="31.8011" x2="728" y2="48.1999" gradientUnits="userSpaceOnUse">
<stop stop-color="#3CC29A"/>
<stop offset="1" stop-color="#93C437"/>
</linearGradient>
<linearGradient id="paint1_linear_489_5180" x1="384" y1="460" x2="384" y2="483" gradientUnits="userSpaceOnUse">
<stop stop-color="#3CC29A"/>
<stop offset="1" stop-color="#93C437"/>
</linearGradient>
<clipPath id="clip0_489_5180">
<rect width="16" height="16" fill="white" transform="translate(398.5 92.5)"/>
</clipPath>
</defs>
</svg>
