<svg width="1560" height="300" viewBox="0 0 1560 300" fill="none" xmlns="http://www.w3.org/2000/svg">
<rect width="1560" height="300" rx="24" fill="#262626"/>
<path d="M526.313 134.562C526.239 134.563 526.165 134.548 526.097 134.52C526.029 134.492 525.967 134.45 525.915 134.398C525.862 134.346 525.821 134.284 525.793 134.215C525.764 134.147 525.75 134.074 525.75 134C525.75 135.335 525.354 136.64 524.612 137.75C523.871 138.86 522.817 139.725 521.583 140.236C520.35 140.747 518.993 140.881 517.683 140.62C516.374 140.36 515.171 139.717 514.227 138.773C513.283 137.829 512.64 136.626 512.38 135.317C512.119 134.007 512.253 132.65 512.764 131.417C513.275 130.183 514.14 129.129 515.25 128.388C516.36 127.646 517.665 127.25 519 127.25C518.851 127.25 518.708 127.191 518.602 127.085C518.497 126.98 518.438 126.837 518.438 126.688C518.438 126.538 518.497 126.395 518.602 126.29C518.708 126.184 518.851 126.125 519 126.125C517.442 126.125 515.92 126.587 514.625 127.452C513.33 128.317 512.32 129.547 511.724 130.986C511.128 132.425 510.972 134.009 511.276 135.536C511.58 137.064 512.33 138.467 513.432 139.568C514.533 140.67 515.936 141.42 517.464 141.724C518.991 142.028 520.575 141.872 522.014 141.276C523.453 140.68 524.683 139.67 525.548 138.375C526.413 137.08 526.875 135.558 526.875 134C526.875 134.074 526.861 134.147 526.832 134.215C526.804 134.284 526.763 134.346 526.71 134.398C526.658 134.45 526.596 134.492 526.528 134.52C526.46 134.548 526.386 134.563 526.313 134.562Z" fill="#3B3B3B"/>
<path d="M518.438 126.688C518.437 126.761 518.452 126.835 518.48 126.903C518.508 126.971 518.55 127.033 518.602 127.085C518.654 127.138 518.716 127.179 518.785 127.207C518.853 127.236 518.926 127.25 519 127.25C520.79 127.252 522.505 127.964 523.771 129.229C525.036 130.495 525.748 132.21 525.75 134C525.75 134.149 525.809 134.292 525.915 134.398C526.02 134.503 526.163 134.562 526.312 134.562C526.462 134.562 526.605 134.503 526.71 134.398C526.816 134.292 526.875 134.149 526.875 134C526.873 131.912 526.042 129.91 524.566 128.434C523.09 126.958 521.088 126.127 519 126.125C518.926 126.125 518.853 126.139 518.785 126.168C518.716 126.196 518.654 126.237 518.602 126.29C518.55 126.342 518.508 126.404 518.48 126.472C518.452 126.54 518.437 126.614 518.438 126.688Z" fill="#3492EB"/>
<path d="M527 126H531L535 126" stroke="#DB1F2E" stroke-linecap="round" stroke-dasharray="0.01 4"/>
<path d="M527 142H531L535 142" stroke="#DB1F2E" stroke-linecap="round" stroke-dasharray="0.01 4"/>
<path d="M543 126H551L559 126" stroke="#DB1F2E"/>
<path d="M551 127V126" stroke="#DB1F2E"/>
<path d="M548.854 138H547.904V132L546.334 132.81V131.82L547.914 131H548.854V138ZM554.32 133.42C555.04 133.42 555.6 133.67 556 134.17C556.333 134.59 556.5 135.123 556.5 135.77C556.5 136.577 556.223 137.2 555.67 137.64C555.243 137.98 554.74 138.15 554.16 138.15C553.3 138.15 552.66 137.82 552.24 137.16C551.88 136.593 551.7 135.8 551.7 134.78C551.7 133.253 551.997 132.167 552.59 131.52C553.003 131.073 553.557 130.85 554.25 130.85C554.817 130.85 555.297 131 555.69 131.3C556.037 131.567 556.26 131.91 556.36 132.33H555.3C555.24 132.11 555.117 131.94 554.93 131.82C554.743 131.693 554.513 131.63 554.24 131.63C553.273 131.63 552.743 132.53 552.65 134.33C552.83 134.043 553.067 133.82 553.36 133.66C553.653 133.5 553.973 133.42 554.32 133.42ZM552.75 135.74C552.75 136.28 552.903 136.697 553.21 136.99C553.457 137.23 553.773 137.35 554.16 137.35C554.587 137.35 554.927 137.2 555.18 136.9C555.413 136.62 555.53 136.26 555.53 135.82C555.53 135.293 555.39 134.887 555.11 134.6C554.863 134.347 554.543 134.22 554.15 134.22C553.67 134.22 553.303 134.39 553.05 134.73C552.85 135.003 552.75 135.34 552.75 135.74Z" fill="white" fill-opacity="0.95"/>
<path d="M551 143V142" stroke="#DB1F2E"/>
<path d="M543 143H551L559 143" stroke="#DB1F2E"/>
<path d="M511 142V146L511 150" stroke="#FF634E" stroke-linecap="round" stroke-dasharray="0.01 4"/>
<path d="M527 142V146L527 150" stroke="#DB1F2E" stroke-linecap="round" stroke-dasharray="0.01 4"/>
<path d="M511 158V166L511 174" stroke="#DB1F2E"/>
<path d="M511 166H512" stroke="#DB1F2E"/>
<path d="M516.854 169.5H515.904V163.5L514.334 164.31V163.32L515.914 162.5H516.854V169.5ZM522.32 164.92C523.04 164.92 523.6 165.17 524 165.67C524.333 166.09 524.5 166.623 524.5 167.27C524.5 168.077 524.223 168.7 523.67 169.14C523.243 169.48 522.74 169.65 522.16 169.65C521.3 169.65 520.66 169.32 520.24 168.66C519.88 168.093 519.7 167.3 519.7 166.28C519.7 164.753 519.997 163.667 520.59 163.02C521.003 162.573 521.557 162.35 522.25 162.35C522.817 162.35 523.297 162.5 523.69 162.8C524.037 163.067 524.26 163.41 524.36 163.83H523.3C523.24 163.61 523.117 163.44 522.93 163.32C522.743 163.193 522.513 163.13 522.24 163.13C521.273 163.13 520.743 164.03 520.65 165.83C520.83 165.543 521.067 165.32 521.36 165.16C521.653 165 521.973 164.92 522.32 164.92ZM520.75 167.24C520.75 167.78 520.903 168.197 521.21 168.49C521.457 168.73 521.773 168.85 522.16 168.85C522.587 168.85 522.927 168.7 523.18 168.4C523.413 168.12 523.53 167.76 523.53 167.32C523.53 166.793 523.39 166.387 523.11 166.1C522.863 165.847 522.543 165.72 522.15 165.72C521.67 165.72 521.303 165.89 521.05 166.23C520.85 166.503 520.75 166.84 520.75 167.24Z" fill="white" fill-opacity="0.95"/>
<path d="M526 166H527" stroke="#DB1F2E"/>
<path d="M527 158V166L527 174" stroke="#DB1F2E"/>
<path d="M671.625 135.125C671.477 135.125 671.331 135.096 671.195 135.04C671.058 134.983 670.934 134.9 670.829 134.796C670.725 134.691 670.642 134.567 670.586 134.431C670.529 134.294 670.5 134.148 670.5 134C670.5 136.67 669.708 139.28 668.225 141.5C666.742 143.72 664.633 145.451 662.166 146.472C659.7 147.494 656.985 147.762 654.366 147.241C651.748 146.72 649.342 145.434 647.454 143.546C645.566 141.658 644.28 139.252 643.76 136.634C643.239 134.015 643.506 131.301 644.528 128.834C645.55 126.367 647.28 124.259 649.5 122.775C651.72 121.292 654.33 120.5 657 120.5C656.702 120.5 656.416 120.381 656.205 120.17C655.994 119.96 655.875 119.673 655.875 119.375C655.875 119.077 655.994 118.79 656.205 118.58C656.416 118.369 656.702 118.25 657 118.25C653.885 118.25 650.84 119.174 648.25 120.904C645.66 122.635 643.641 125.095 642.449 127.973C641.257 130.851 640.945 134.017 641.553 137.073C642.16 140.128 643.661 142.934 645.863 145.137C648.066 147.34 650.872 148.84 653.927 149.447C656.983 150.055 660.149 149.743 663.027 148.551C665.905 147.359 668.365 145.34 670.096 142.75C671.826 140.16 672.75 137.115 672.75 134C672.75 134.148 672.721 134.294 672.665 134.431C672.608 134.567 672.525 134.691 672.421 134.796C672.316 134.9 672.192 134.983 672.056 135.04C671.919 135.096 671.773 135.125 671.625 135.125Z" fill="#3B3B3B"/>
<path d="M655.875 119.375C655.875 119.523 655.904 119.669 655.961 119.806C656.017 119.942 656.1 120.066 656.204 120.171C656.309 120.275 656.433 120.358 656.57 120.415C656.706 120.471 656.852 120.5 657 120.5C660.579 120.504 664.011 121.927 666.542 124.458C669.073 126.989 670.496 130.421 670.5 134C670.5 134.298 670.619 134.585 670.83 134.795C671.041 135.006 671.327 135.125 671.625 135.125C671.923 135.125 672.21 135.006 672.421 134.795C672.632 134.585 672.75 134.298 672.75 134C672.745 129.824 671.085 125.821 668.132 122.868C665.179 119.916 661.176 118.255 657 118.25C656.852 118.25 656.706 118.279 656.57 118.335C656.433 118.392 656.309 118.475 656.204 118.579C656.1 118.684 656.017 118.808 655.961 118.944C655.904 119.081 655.875 119.227 655.875 119.375Z" fill="#3492EB"/>
<path d="M673 118.046H677L681 118.046" stroke="#DB1F2E" stroke-linecap="round" stroke-dasharray="0.01 4"/>
<path d="M673 150.046H677L681 150.046" stroke="#DB1F2E" stroke-linecap="round" stroke-dasharray="0.01 4"/>
<path d="M689 118.046H697L705 118.046" stroke="#DB1F2E"/>
<path d="M697 126.546V118.046" stroke="#DB1F2E"/>
<path d="M696.494 135.636C696.494 136.283 696.237 136.799 695.724 137.186C695.277 137.519 694.707 137.686 694.014 137.686C693.247 137.686 692.637 137.489 692.184 137.096C691.797 136.769 691.567 136.339 691.494 135.806H692.514C692.681 136.526 693.174 136.886 693.994 136.886C694.501 136.886 694.891 136.753 695.164 136.486C695.397 136.259 695.514 135.969 695.514 135.616C695.514 135.149 695.347 134.796 695.014 134.556C694.767 134.383 694.474 134.296 694.134 134.296H693.554V133.466H694.114C694.441 133.466 694.714 133.359 694.934 133.146C695.161 132.933 695.274 132.649 695.274 132.296C695.274 131.923 695.117 131.633 694.804 131.426C694.564 131.273 694.274 131.196 693.934 131.196C693.521 131.196 693.184 131.299 692.924 131.506C692.704 131.686 692.571 131.916 692.524 132.196H691.514C691.607 131.609 691.904 131.153 692.404 130.826C692.837 130.539 693.364 130.396 693.984 130.396C694.664 130.396 695.217 130.566 695.644 130.906C696.051 131.233 696.254 131.673 696.254 132.226C696.254 132.626 696.121 132.976 695.854 133.276C695.627 133.536 695.341 133.719 694.994 133.826C695.454 133.926 695.821 134.139 696.094 134.466C696.361 134.786 696.494 135.176 696.494 135.636ZM698.61 132.376H697.6C697.68 131.756 697.967 131.263 698.46 130.896C698.9 130.563 699.433 130.396 700.06 130.396C700.773 130.396 701.343 130.596 701.77 130.996C702.15 131.363 702.34 131.826 702.34 132.386C702.34 132.879 702.2 133.336 701.92 133.756C701.693 134.109 701.277 134.573 700.67 135.146L699.07 136.666H702.31V137.546H697.77V136.666L700.05 134.476C700.557 133.989 700.9 133.603 701.08 133.316C701.267 133.023 701.36 132.716 701.36 132.396C701.36 132.009 701.227 131.709 700.96 131.496C700.727 131.303 700.42 131.206 700.04 131.206C699.613 131.206 699.27 131.323 699.01 131.556C698.783 131.763 698.65 132.036 698.61 132.376Z" fill="white" fill-opacity="0.95"/>
<path d="M697 150.046V141.546" stroke="#DB1F2E"/>
<path d="M689 150.046H697L705 150.046" stroke="#DB1F2E"/>
<path d="M641 150V154L641 158" stroke="#DB1F2E" stroke-linecap="round" stroke-dasharray="0.01 4"/>
<path d="M673 150V154L673 158" stroke="#DB1F2E" stroke-linecap="round" stroke-dasharray="0.01 4"/>
<path d="M641 166V174L641 182" stroke="#DB1F2E"/>
<path d="M641 174H647" stroke="#DB1F2E"/>
<path d="M656.494 175.59C656.494 176.237 656.237 176.753 655.724 177.14C655.277 177.473 654.707 177.64 654.014 177.64C653.247 177.64 652.637 177.443 652.184 177.05C651.797 176.723 651.567 176.293 651.494 175.76H652.514C652.681 176.48 653.174 176.84 653.994 176.84C654.501 176.84 654.891 176.707 655.164 176.44C655.397 176.213 655.514 175.923 655.514 175.57C655.514 175.103 655.347 174.75 655.014 174.51C654.767 174.337 654.474 174.25 654.134 174.25H653.554V173.42H654.114C654.441 173.42 654.714 173.313 654.934 173.1C655.161 172.887 655.274 172.603 655.274 172.25C655.274 171.877 655.117 171.587 654.804 171.38C654.564 171.227 654.274 171.15 653.934 171.15C653.521 171.15 653.184 171.253 652.924 171.46C652.704 171.64 652.571 171.87 652.524 172.15H651.514C651.607 171.563 651.904 171.107 652.404 170.78C652.837 170.493 653.364 170.35 653.984 170.35C654.664 170.35 655.217 170.52 655.644 170.86C656.051 171.187 656.254 171.627 656.254 172.18C656.254 172.58 656.121 172.93 655.854 173.23C655.627 173.49 655.341 173.673 654.994 173.78C655.454 173.88 655.821 174.093 656.094 174.42C656.361 174.74 656.494 175.13 656.494 175.59ZM658.61 172.33H657.6C657.68 171.71 657.967 171.217 658.46 170.85C658.9 170.517 659.433 170.35 660.06 170.35C660.773 170.35 661.343 170.55 661.77 170.95C662.15 171.317 662.34 171.78 662.34 172.34C662.34 172.833 662.2 173.29 661.92 173.71C661.693 174.063 661.277 174.527 660.67 175.1L659.07 176.62H662.31V177.5H657.77V176.62L660.05 174.43C660.557 173.943 660.9 173.557 661.08 173.27C661.267 172.977 661.36 172.67 661.36 172.35C661.36 171.963 661.227 171.663 660.96 171.45C660.727 171.257 660.42 171.16 660.04 171.16C659.613 171.16 659.27 171.277 659.01 171.51C658.783 171.717 658.65 171.99 658.61 172.33Z" fill="white" fill-opacity="0.95"/>
<path d="M667 174H673" stroke="#DB1F2E"/>
<path d="M673 166V174L673 182" stroke="#DB1F2E"/>
<path d="M829.11 135.547C828.906 135.547 828.705 135.507 828.517 135.429C828.33 135.352 828.159 135.238 828.015 135.094C827.872 134.95 827.758 134.78 827.68 134.592C827.602 134.404 827.563 134.203 827.563 134C827.563 137.671 826.474 141.26 824.434 144.313C822.395 147.365 819.496 149.745 816.104 151.15C812.712 152.554 808.98 152.922 805.379 152.206C801.778 151.49 798.47 149.722 795.874 147.126C793.278 144.53 791.511 141.222 790.794 137.621C790.078 134.021 790.446 130.288 791.851 126.896C793.256 123.505 795.635 120.606 798.687 118.566C801.74 116.526 805.329 115.438 809 115.438C808.59 115.438 808.196 115.275 807.906 114.984C807.616 114.694 807.453 114.301 807.453 113.891C807.453 113.48 807.616 113.087 807.906 112.797C808.196 112.507 808.59 112.344 809 112.344C804.717 112.344 800.53 113.614 796.969 115.993C793.407 118.373 790.631 121.755 788.992 125.713C787.353 129.67 786.924 134.024 787.76 138.225C788.596 142.426 790.658 146.285 793.687 149.313C796.716 152.342 800.574 154.405 804.775 155.24C808.976 156.076 813.33 155.647 817.288 154.008C821.245 152.369 824.627 149.593 827.007 146.032C829.386 142.47 830.656 138.283 830.656 134C830.656 134.203 830.617 134.404 830.539 134.592C830.461 134.78 830.347 134.95 830.204 135.094C830.06 135.238 829.889 135.352 829.702 135.429C829.514 135.507 829.313 135.547 829.11 135.547Z" fill="#3B3B3B"/>
<path d="M807.453 113.891C807.453 114.094 807.493 114.295 807.571 114.483C807.648 114.67 807.762 114.841 807.906 114.985C808.05 115.128 808.22 115.242 808.408 115.32C808.596 115.398 808.797 115.438 809 115.438C813.922 115.443 818.64 117.4 822.12 120.88C825.6 124.36 827.557 129.079 827.563 134C827.563 134.41 827.726 134.804 828.016 135.094C828.306 135.384 828.699 135.547 829.109 135.547C829.52 135.547 829.913 135.384 830.203 135.094C830.493 134.804 830.656 134.41 830.656 134C830.65 128.258 828.366 122.754 824.306 118.694C820.246 114.634 814.742 112.35 809 112.344C808.797 112.344 808.596 112.384 808.408 112.461C808.22 112.539 808.05 112.653 807.906 112.797C807.762 112.94 807.648 113.111 807.571 113.299C807.493 113.486 807.453 113.687 807.453 113.891Z" fill="#3492EB"/>
<path d="M831 112.046H835L839 112.046" stroke="#DB1F2E" stroke-linecap="round" stroke-dasharray="0.01 4"/>
<path d="M831 156.046H835L839 156.046" stroke="#DB1F2E" stroke-linecap="round" stroke-dasharray="0.01 4"/>
<path d="M847 112.046H855L863 112.046" stroke="#DB1F2E"/>
<path d="M855 126.546V112.046" stroke="#DB1F2E"/>
<path d="M852.444 130.546H853.444V135.406H854.574V136.226H853.444V137.546H852.514V136.226H849.444V135.336L852.444 130.546ZM850.514 135.406H852.514V132.096L850.514 135.406ZM858.44 130.546H859.44V135.406H860.57V136.226H859.44V137.546H858.51V136.226H855.44V135.336L858.44 130.546ZM856.51 135.406H858.51V132.096L856.51 135.406Z" fill="white" fill-opacity="0.95"/>
<path d="M855 156.046V141.546" stroke="#DB1F2E"/>
<path d="M847 156.046H855L863 156.046" stroke="#DB1F2E"/>
<path d="M787 156V160L787 164" stroke="#DB1F2E" stroke-linecap="round" stroke-dasharray="0.01 4"/>
<path d="M831 156V160L831 164" stroke="#DB1F2E" stroke-linecap="round" stroke-dasharray="0.01 4"/>
<path d="M787 172V180L787 188" stroke="#DB1F2E"/>
<path d="M787 180H799" stroke="#DB1F2E"/>
<path d="M806.444 176.5H807.444V181.36H808.574V182.18H807.444V183.5H806.514V182.18H803.444V181.29L806.444 176.5ZM804.514 181.36H806.514V178.05L804.514 181.36ZM812.44 176.5H813.44V181.36H814.57V182.18H813.44V183.5H812.51V182.18H809.44V181.29L812.44 176.5ZM810.51 181.36H812.51V178.05L810.51 181.36Z" fill="white" fill-opacity="0.95"/>
<path d="M819 180H831" stroke="#DB1F2E"/>
<path d="M831 172V180L831 188" stroke="#DB1F2E"/>
<path d="M1013.91 136.531C1013.57 136.531 1013.24 136.466 1012.94 136.339C1012.63 136.212 1012.35 136.025 1012.12 135.79C1011.88 135.555 1011.69 135.276 1011.57 134.969C1011.44 134.662 1011.38 134.332 1011.38 134C1011.38 140.008 1009.59 145.88 1006.26 150.875C1002.92 155.871 998.175 159.764 992.624 162.063C987.074 164.362 980.967 164.963 975.074 163.791C969.182 162.619 963.77 159.726 959.522 155.478C955.274 151.23 952.381 145.818 951.209 139.926C950.037 134.034 950.638 127.926 952.937 122.376C955.236 116.826 959.13 112.082 964.125 108.744C969.12 105.406 974.993 103.625 981 103.625C980.329 103.625 979.685 103.358 979.21 102.884C978.736 102.409 978.469 101.765 978.469 101.094C978.469 100.422 978.736 99.7786 979.21 99.3039C979.685 98.8292 980.329 98.5625 981 98.5625C973.991 98.5625 967.14 100.641 961.312 104.535C955.485 108.429 950.942 113.963 948.26 120.439C945.578 126.914 944.876 134.039 946.244 140.914C947.611 147.788 950.986 154.102 955.942 159.058C960.898 164.014 967.213 167.389 974.087 168.757C980.961 170.124 988.086 169.422 994.562 166.74C1001.04 164.058 1006.57 159.516 1010.47 153.688C1014.36 147.86 1016.44 141.009 1016.44 134C1016.44 134.332 1016.37 134.662 1016.25 134.969C1016.12 135.276 1015.93 135.555 1015.7 135.79C1015.46 136.025 1015.18 136.212 1014.88 136.339C1014.57 136.466 1014.24 136.531 1013.91 136.531Z" fill="#3B3B3B"/>
<path d="M978.469 101.094C978.469 101.426 978.534 101.755 978.661 102.063C978.788 102.37 978.975 102.649 979.21 102.884C979.445 103.119 979.724 103.306 980.031 103.433C980.339 103.56 980.668 103.625 981 103.625C989.053 103.634 996.774 106.837 1002.47 112.531C1008.16 118.226 1011.37 125.947 1011.38 134C1011.38 134.671 1011.64 135.315 1012.12 135.79C1012.59 136.265 1013.24 136.531 1013.91 136.531C1014.58 136.531 1015.22 136.265 1015.7 135.79C1016.17 135.315 1016.44 134.671 1016.44 134C1016.43 124.605 1012.69 115.597 1006.05 108.954C999.403 102.31 990.396 98.573 981 98.5625C980.668 98.5623 980.339 98.6276 980.031 98.7548C979.724 98.8819 979.445 99.0684 979.21 99.3035C978.975 99.5385 978.788 99.8177 978.661 100.125C978.534 100.432 978.469 100.761 978.469 101.094Z" fill="#3492EB"/>
<path d="M1017 98.0459H1021L1025 98.0459" stroke="#DB1F2E" stroke-linecap="round" stroke-dasharray="0.01 4"/>
<path d="M1017 170.046H1021L1025 170.046" stroke="#DB1F2E" stroke-linecap="round" stroke-dasharray="0.01 4"/>
<path d="M1033 98.0459H1041L1049 98.0459" stroke="#DB1F2E"/>
<path d="M1041 126.546V98.0459" stroke="#DB1F2E"/>
<path d="M1040.2 131.406L1037.34 137.546H1036.25L1039.18 131.406H1035.75V130.546H1040.2V131.406ZM1042.61 132.376H1041.6C1041.68 131.756 1041.97 131.263 1042.46 130.896C1042.9 130.563 1043.43 130.396 1044.06 130.396C1044.77 130.396 1045.34 130.596 1045.77 130.996C1046.15 131.363 1046.34 131.826 1046.34 132.386C1046.34 132.879 1046.2 133.336 1045.92 133.756C1045.69 134.109 1045.28 134.573 1044.67 135.146L1043.07 136.666H1046.31V137.546H1041.77V136.666L1044.05 134.476C1044.56 133.989 1044.9 133.603 1045.08 133.316C1045.27 133.023 1045.36 132.716 1045.36 132.396C1045.36 132.009 1045.23 131.709 1044.96 131.496C1044.73 131.303 1044.42 131.206 1044.04 131.206C1043.61 131.206 1043.27 131.323 1043.01 131.556C1042.78 131.763 1042.65 132.036 1042.61 132.376Z" fill="white" fill-opacity="0.95"/>
<path d="M1041 170.046V141.546" stroke="#DB1F2E"/>
<path d="M1033 170.046H1041L1049 170.046" stroke="#DB1F2E"/>
<path d="M945 170V174L945 178" stroke="#DB1F2E" stroke-linecap="round" stroke-dasharray="0.01 4"/>
<path d="M1017 170V174L1017 178" stroke="#DB1F2E" stroke-linecap="round" stroke-dasharray="0.01 4"/>
<path d="M945 186V194L945 202" stroke="#DB1F2E"/>
<path d="M945 194H971" stroke="#DB1F2E"/>
<path d="M980.204 191.36L977.344 197.5H976.254L979.184 191.36H975.754V190.5H980.204V191.36ZM982.61 192.33H981.6C981.68 191.71 981.967 191.217 982.46 190.85C982.9 190.517 983.433 190.35 984.06 190.35C984.773 190.35 985.343 190.55 985.77 190.95C986.15 191.317 986.34 191.78 986.34 192.34C986.34 192.833 986.2 193.29 985.92 193.71C985.693 194.063 985.277 194.527 984.67 195.1L983.07 196.62H986.31V197.5H981.77V196.62L984.05 194.43C984.557 193.943 984.9 193.557 985.08 193.27C985.267 192.977 985.36 192.67 985.36 192.35C985.36 191.963 985.227 191.663 984.96 191.45C984.727 191.257 984.42 191.16 984.04 191.16C983.613 191.16 983.27 191.277 983.01 191.51C982.783 191.717 982.65 191.99 982.61 192.33Z" fill="white" fill-opacity="0.95"/>
<path d="M991 194H1017" stroke="#DB1F2E"/>
<path d="M1017 186V194L1017 202" stroke="#DB1F2E"/>
</svg>
