<svg width="636" height="200" viewBox="0 0 636 200" fill="none" xmlns="http://www.w3.org/2000/svg">
<rect width="636" height="200" rx="24" fill="#1A1A1A"/>
<path d="M347.313 76.5625C347.239 76.5625 347.165 76.548 347.097 76.5198C347.029 76.4915 346.967 76.4501 346.915 76.3978C346.862 76.3456 346.821 76.2836 346.793 76.2153C346.764 76.147 346.75 76.0739 346.75 76C346.75 77.335 346.354 78.6401 345.612 79.7501C344.871 80.8601 343.817 81.7253 342.583 82.2362C341.35 82.7471 339.993 82.8808 338.683 82.6203C337.374 82.3598 336.171 81.717 335.227 80.773C334.283 79.829 333.64 78.6262 333.38 77.3169C333.119 76.0075 333.253 74.6503 333.764 73.4169C334.275 72.1835 335.14 71.1293 336.25 70.3876C337.36 69.6459 338.665 69.25 340 69.25C339.851 69.25 339.708 69.1907 339.602 69.0852C339.497 68.9798 339.438 68.8367 339.438 68.6875C339.438 68.5383 339.497 68.3952 339.602 68.2898C339.708 68.1843 339.851 68.125 340 68.125C338.442 68.125 336.92 68.5869 335.625 69.4522C334.33 70.3175 333.32 71.5474 332.724 72.9864C332.128 74.4253 331.972 76.0087 332.276 77.5363C332.58 79.0639 333.33 80.4671 334.432 81.5685C335.533 82.6698 336.936 83.4198 338.464 83.7237C339.991 84.0275 341.575 83.8716 343.014 83.2756C344.453 82.6795 345.683 81.6702 346.548 80.3751C347.413 79.0801 347.875 77.5575 347.875 76C347.875 76.0739 347.861 76.147 347.832 76.2153C347.804 76.2836 347.763 76.3456 347.71 76.3978C347.658 76.4501 347.596 76.4915 347.528 76.5198C347.46 76.548 347.386 76.5625 347.313 76.5625Z" fill="#3B3B3B"/>
<path d="M339.438 68.6875C339.437 68.7614 339.452 68.8345 339.48 68.9028C339.508 68.9711 339.55 69.0331 339.602 69.0853C339.654 69.1376 339.716 69.179 339.785 69.2073C339.853 69.2355 339.926 69.25 340 69.25C341.79 69.252 343.505 69.9637 344.771 71.2292C346.036 72.4946 346.748 74.2104 346.75 76C346.75 76.1492 346.809 76.2923 346.915 76.3977C347.02 76.5032 347.163 76.5625 347.312 76.5625C347.462 76.5625 347.605 76.5032 347.71 76.3977C347.816 76.2923 347.875 76.1492 347.875 76C347.873 73.9121 347.042 71.9105 345.566 70.4341C344.09 68.9578 342.088 68.1273 340 68.125C339.926 68.125 339.853 68.1395 339.785 68.1677C339.716 68.196 339.654 68.2374 339.602 68.2897C339.55 68.3419 339.508 68.4039 339.48 68.4722C339.452 68.5405 339.437 68.6136 339.438 68.6875Z" fill="#3492EB"/>
<path d="M347.312 75.4399C347.239 75.4399 347.165 75.4544 347.097 75.4827C347.029 75.5109 346.967 75.5524 346.915 75.6046C346.862 75.6568 346.821 75.7189 346.793 75.7871C346.764 75.8554 346.75 75.9286 346.75 76.0024C346.748 77.7921 346.036 79.5078 344.771 80.7733C343.505 82.0387 341.79 82.7505 340 82.7524C339.851 82.7524 339.708 82.8117 339.602 82.9172C339.497 83.0227 339.437 83.1658 339.437 83.3149C339.437 83.4641 339.497 83.6072 339.602 83.7127C339.708 83.8182 339.851 83.8774 340 83.8774C342.088 83.8751 344.09 83.0447 345.566 81.5683C347.042 80.092 347.873 78.0903 347.875 76.0024C347.875 75.9286 347.861 75.8554 347.832 75.7871C347.804 75.7189 347.763 75.6568 347.71 75.6046C347.658 75.5524 347.596 75.5109 347.528 75.4827C347.46 75.4544 347.386 75.4399 347.312 75.4399Z" fill="#3492EB"/>
<path d="M332.692 75.4399C332.766 75.4399 332.839 75.4544 332.908 75.4827C332.976 75.5109 333.038 75.5524 333.09 75.6046C333.142 75.6568 333.184 75.7189 333.212 75.7871C333.24 75.8554 333.255 75.9286 333.255 76.0024C333.257 77.7921 333.969 79.5078 335.234 80.7733C336.5 82.0387 338.215 82.7505 340.005 82.7524C340.154 82.7524 340.297 82.8117 340.403 82.9172C340.508 83.0227 340.567 83.1658 340.567 83.3149C340.567 83.4641 340.508 83.6072 340.403 83.7127C340.297 83.8182 340.154 83.8774 340.005 83.8774C337.917 83.8751 335.915 83.0447 334.439 81.5683C332.963 80.092 332.132 78.0903 332.13 76.0024C332.13 75.9286 332.144 75.8554 332.173 75.7871C332.201 75.7189 332.242 75.6568 332.295 75.6046C332.347 75.5524 332.409 75.5109 332.477 75.4827C332.545 75.4544 332.619 75.4399 332.692 75.4399Z" fill="#3492EB"/>
<g clip-path="url(#clip0_489_5422)">
<line x1="348.5" y1="119.478" x2="348.5" y2="104.478" stroke="#30C9B0"/>
<line x1="348" y1="111.978" x2="350" y2="111.978" stroke="#30C9B0"/>
<line x1="349.5" y1="119.478" x2="349.5" y2="104.478" stroke="#30C9B0"/>
</g>
<path d="M351.736 135V133.869H347.764L349.662 131.842C349.912 131.576 350.143 131.318 350.354 131.068C350.568 130.818 350.754 130.57 350.91 130.324C351.062 130.078 351.182 129.83 351.268 129.58C351.357 129.326 351.402 129.064 351.402 128.795C351.402 128.436 351.344 128.107 351.227 127.811C351.109 127.51 350.939 127.252 350.717 127.037C350.49 126.822 350.211 126.654 349.879 126.533C349.551 126.412 349.178 126.352 348.76 126.352C348.314 126.352 347.91 126.424 347.547 126.568C347.188 126.713 346.883 126.908 346.633 127.154C346.379 127.4 346.184 127.689 346.047 128.021C345.91 128.35 345.842 128.699 345.842 129.07H347.248C347.248 128.824 347.279 128.605 347.342 128.414C347.404 128.219 347.498 128.053 347.623 127.916C347.744 127.787 347.896 127.688 348.08 127.617C348.264 127.547 348.48 127.512 348.73 127.512C348.926 127.512 349.102 127.545 349.258 127.611C349.418 127.678 349.555 127.77 349.668 127.887C349.781 128.004 349.867 128.145 349.926 128.309C349.984 128.473 350.014 128.654 350.014 128.854C350.014 129.002 349.992 129.15 349.949 129.299C349.91 129.443 349.844 129.6 349.75 129.768C349.652 129.936 349.525 130.121 349.369 130.324C349.213 130.523 349.02 130.75 348.789 131.004L346.012 134.027V135H351.736Z" fill="#30C9B0"/>
<rect opacity="0.5" x="348" y="68" width="2" height="32" fill="#30C9B0"/>
<rect opacity="0.5" x="318" y="66" width="32" height="2" fill="#30C9B0"/>
<g clip-path="url(#clip1_489_5422)">
<line x1="299" y1="66.5" x2="314" y2="66.5" stroke="#30C9B0"/>
<line x1="306.5" y1="68.25" x2="306.5" y2="66.25" stroke="#30C9B0"/>
<line x1="299" y1="67.5" x2="314" y2="67.5" stroke="#30C9B0"/>
</g>
<path d="M295.396 72V70.6807H290.762L292.977 68.3154C293.268 68.0055 293.537 67.7048 293.783 67.4131C294.034 67.1214 294.25 66.832 294.433 66.5449C294.61 66.2578 294.749 65.9684 294.85 65.6768C294.954 65.3805 295.007 65.0752 295.007 64.7607C295.007 64.3415 294.938 63.9587 294.802 63.6123C294.665 63.2614 294.467 62.9606 294.207 62.71C293.943 62.4593 293.617 62.2633 293.229 62.1221C292.847 61.9808 292.411 61.9102 291.924 61.9102C291.404 61.9102 290.933 61.9945 290.509 62.1631C290.09 62.3317 289.734 62.5596 289.442 62.8467C289.146 63.1338 288.918 63.471 288.759 63.8584C288.599 64.2412 288.52 64.6491 288.52 65.082H290.16C290.16 64.7949 290.197 64.5397 290.27 64.3164C290.342 64.0885 290.452 63.8949 290.598 63.7354C290.739 63.585 290.917 63.4688 291.131 63.3867C291.345 63.3047 291.598 63.2637 291.89 63.2637C292.118 63.2637 292.323 63.3024 292.505 63.3799C292.692 63.4574 292.851 63.5645 292.983 63.7012C293.116 63.8379 293.216 64.002 293.284 64.1934C293.353 64.3848 293.387 64.5967 293.387 64.8291C293.387 65.0023 293.362 65.1755 293.312 65.3486C293.266 65.5173 293.188 65.6995 293.079 65.8955C292.965 66.0915 292.817 66.3079 292.635 66.5449C292.452 66.7773 292.227 67.0417 291.958 67.3379L288.718 70.8652V72H295.396Z" fill="#30C9B0"/>
<defs>
<clipPath id="clip0_489_5422">
<rect width="2" height="15" fill="white" transform="translate(348 104.478)"/>
</clipPath>
<clipPath id="clip1_489_5422">
<rect width="15" height="2" fill="white" transform="translate(299 66)"/>
</clipPath>
</defs>
</svg>
