<svg width="350" height="200" viewBox="0 0 350 200" fill="none" xmlns="http://www.w3.org/2000/svg">
<rect width="350" height="200" rx="20" fill="#262626"/>
<path d="M207.907 102.531C207.574 102.531 207.245 102.466 206.938 102.339C206.63 102.212 206.351 102.025 206.116 101.79C205.881 101.555 205.695 101.276 205.568 100.969C205.44 100.662 205.375 100.332 205.375 100C205.375 106.008 203.594 111.88 200.256 116.875C196.919 121.871 192.175 125.764 186.624 128.063C181.074 130.362 174.967 130.963 169.074 129.791C163.182 128.619 157.77 125.726 153.522 121.478C149.274 117.23 146.381 111.818 145.209 105.926C144.037 100.034 144.638 93.9263 146.937 88.376C149.236 82.8257 153.13 78.0818 158.125 74.7441C163.12 71.4065 168.993 69.625 175 69.625C174.329 69.625 173.685 69.3583 173.21 68.8836C172.736 68.4089 172.469 67.7651 172.469 67.0938C172.469 66.4224 172.736 65.7786 173.21 65.3039C173.685 64.8292 174.329 64.5625 175 64.5625C167.991 64.5625 161.14 66.6409 155.312 70.5348C149.485 74.4287 144.942 79.9633 142.26 86.4387C139.578 92.914 138.876 100.039 140.244 106.914C141.611 113.788 144.986 120.102 149.942 125.058C154.898 130.014 161.213 133.389 168.087 134.757C174.961 136.124 182.086 135.422 188.562 132.74C195.037 130.058 200.572 125.516 204.465 119.688C208.359 113.86 210.438 107.009 210.438 100C210.438 100.332 210.373 100.662 210.245 100.969C210.118 101.276 209.932 101.555 209.697 101.79C209.462 102.025 209.183 102.212 208.875 102.339C208.568 102.466 208.239 102.531 207.907 102.531Z" fill="#3B3B3B"/>
<path d="M172.469 67.0938C172.469 67.4262 172.534 67.7555 172.661 68.0626C172.788 68.3698 172.975 68.649 173.21 68.884C173.445 69.1191 173.724 69.3056 174.031 69.4327C174.339 69.5599 174.668 69.6252 175 69.625C183.053 69.6338 190.774 72.8368 196.469 78.5313C202.163 84.2259 205.366 91.9467 205.375 100C205.375 100.671 205.642 101.315 206.117 101.79C206.591 102.265 207.235 102.531 207.906 102.531C208.578 102.531 209.222 102.265 209.696 101.79C210.171 101.315 210.438 100.671 210.438 100C210.427 90.6046 206.69 81.5971 200.047 74.9536C193.403 68.31 184.396 64.573 175 64.5625C174.668 64.5623 174.339 64.6276 174.031 64.7548C173.724 64.8819 173.445 65.0684 173.21 65.3035C172.975 65.5385 172.788 65.8177 172.661 66.1249C172.534 66.432 172.469 66.7613 172.469 67.0938Z" fill="#3492EB"/>
<path d="M207.906 97.48C207.574 97.4798 207.245 97.5451 206.937 97.6723C206.63 97.7994 206.351 97.9858 206.116 98.2209C205.881 98.456 205.694 98.7351 205.567 99.0423C205.44 99.3495 205.375 99.6788 205.375 100.011C205.366 108.064 202.163 115.785 196.469 121.48C190.774 127.174 183.053 130.377 175 130.386C174.329 130.386 173.685 130.653 173.21 131.128C172.735 131.602 172.469 132.246 172.469 132.917C172.469 133.589 172.735 134.233 173.21 134.707C173.685 135.182 174.329 135.449 175 135.449C184.395 135.438 193.403 131.701 200.046 125.058C206.69 118.414 210.427 109.407 210.437 100.011C210.438 99.6788 210.372 99.3495 210.245 99.0423C210.118 98.7351 209.932 98.456 209.697 98.2209C209.461 97.9858 209.182 97.7994 208.875 97.6723C208.568 97.5451 208.239 97.4798 207.906 97.48Z" fill="#3492EB"/>
<path d="M142.116 97.48C142.449 97.4798 142.778 97.5451 143.085 97.6723C143.392 97.7994 143.671 97.9858 143.907 98.2209C144.142 98.456 144.328 98.7351 144.455 99.0423C144.582 99.3495 144.648 99.6788 144.648 100.011C144.656 108.064 147.859 115.785 153.554 121.48C159.248 127.174 166.969 130.377 175.023 130.386C175.694 130.386 176.338 130.653 176.812 131.128C177.287 131.602 177.554 132.246 177.554 132.917C177.554 133.589 177.287 134.233 176.812 134.707C176.338 135.182 175.694 135.449 175.023 135.449C165.627 135.438 156.62 131.701 149.976 125.058C143.333 118.414 139.596 109.407 139.585 100.011C139.585 99.6788 139.65 99.3495 139.777 99.0423C139.904 98.7351 140.091 98.456 140.326 98.2209C140.561 97.9858 140.84 97.7994 141.147 97.6723C141.455 97.5451 141.784 97.4798 142.116 97.48Z" fill="#3492EB"/>
</svg>
