<svg width="111" height="109" viewBox="0 0 111 109" fill="none" xmlns="http://www.w3.org/2000/svg">
<path d="M73.7387 43.226C73.4047 43.2262 73.074 43.1605 72.7654 43.0328C72.4568 42.9051 72.1764 42.7178 71.9403 42.4817C71.7041 42.2455 71.5168 41.9651 71.3891 41.6565C71.2614 41.348 71.1958 41.0172 71.196 40.6833C71.196 46.718 69.4064 52.6173 66.0537 57.6351C62.7009 62.6528 57.9355 66.5637 52.3601 68.8731C46.7847 71.1825 40.6497 71.7867 34.7308 70.6094C28.812 69.4321 23.3752 66.5261 19.108 62.2588C14.8407 57.9916 11.9347 52.5548 10.7574 46.6359C9.58003 40.7171 10.1843 34.5821 12.4937 29.0067C14.8031 23.4312 18.714 18.6658 23.7317 15.3131C28.7495 11.9603 34.6487 10.1708 40.6835 10.1708C40.0092 10.1708 39.3624 9.90292 38.8856 9.42607C38.4087 8.94922 38.1408 8.30248 38.1408 7.62811C38.1408 6.95374 38.4087 6.307 38.8856 5.83015C39.3624 5.3533 40.0092 5.08541 40.6835 5.08541C33.6429 5.08541 26.7604 7.17319 20.9064 11.0847C15.0524 14.9963 10.4897 20.5559 7.79539 27.0606C5.10108 33.5652 4.39612 40.7227 5.76967 47.6281C7.14322 54.5334 10.5336 60.8763 15.512 65.8547C20.4905 70.8332 26.8334 74.2236 33.7387 75.5971C40.644 76.9707 47.8016 76.2657 54.3062 73.5714C60.8109 70.8771 66.3705 66.3144 70.282 60.4604C74.1936 54.6063 76.2814 47.7238 76.2814 40.6833C76.2816 41.0172 76.2159 41.348 76.0882 41.6565C75.9605 41.9651 75.7732 42.2455 75.5371 42.4817C75.3009 42.7178 75.0205 42.9051 74.7119 43.0328C74.4034 43.1605 74.0726 43.2262 73.7387 43.226Z" fill="#3B3B3B"/>
<path d="M38.1408 7.62811C38.1406 7.96208 38.2062 8.29281 38.334 8.60139C38.4617 8.90997 38.649 9.19036 38.8851 9.42651C39.1213 9.66266 39.4016 9.84994 39.7102 9.97766C40.0188 10.1054 40.3495 10.171 40.6835 10.1708C48.7732 10.1796 56.529 13.3972 62.2493 19.1175C67.9696 24.8377 71.1871 32.5936 71.1959 40.6833C71.1959 41.3576 71.4638 42.0044 71.9407 42.4812C72.4175 42.9581 73.0643 43.226 73.7387 43.226C74.413 43.226 75.0598 42.9581 75.5366 42.4812C76.0135 42.0044 76.2814 41.3576 76.2814 40.6833C76.2708 31.2454 72.5169 22.1971 65.8433 15.5235C59.1697 8.84988 50.1214 5.096 40.6835 5.08541C40.3495 5.08521 40.0188 5.15085 39.7102 5.27856C39.4016 5.40628 39.1213 5.59357 38.8851 5.82972C38.649 6.06587 38.4617 6.34625 38.334 6.65483C38.2062 6.96341 38.1406 7.29414 38.1408 7.62811Z" fill="#3492EB"/>
<path d="M76.8462 4.56647H80.8643L84.8824 4.56647" stroke="#DB1F2E" stroke-linecap="round" stroke-dasharray="0.01 4"/>
<path d="M76.8462 76.8923H80.8643L84.8824 76.8923" stroke="#DB1F2E" stroke-linecap="round" stroke-dasharray="0.01 4"/>
<path d="M92.9186 4.56647H100.955L108.991 4.56647" stroke="#DB1F2E"/>
<path d="M100.955 33.1954V4.56647" stroke="#DB1F2E"/>
<path d="M100.155 38.0774L97.2821 44.2452H96.1872L99.1304 38.0774H95.6849V37.2135H100.155V38.0774ZM102.572 39.0518H101.557C101.638 38.429 101.926 37.9334 102.421 37.5651C102.863 37.2303 103.399 37.0628 104.029 37.0628C104.745 37.0628 105.318 37.2638 105.746 37.6656C106.128 38.0339 106.319 38.4993 106.319 39.0619C106.319 39.5574 106.178 40.0162 105.897 40.4381C105.669 40.793 105.251 41.2584 104.641 41.8343L103.034 43.3612H106.289V44.2452H101.728V43.3612L104.019 41.1613C104.528 40.6724 104.872 40.284 105.053 39.9961C105.241 39.7014 105.334 39.3933 105.334 39.0719C105.334 38.6835 105.201 38.3821 104.933 38.1678C104.698 37.9736 104.39 37.8765 104.009 37.8765C103.58 37.8765 103.235 37.9937 102.974 38.2281C102.746 38.4357 102.612 38.7103 102.572 39.0518Z" fill="white" fill-opacity="0.95"/>
<path d="M100.955 76.8923V48.2633" stroke="#DB1F2E"/>
<path d="M92.9186 76.8923H100.955L108.991 76.8923" stroke="#DB1F2E"/>
<path d="M4.52036 76.8462L4.52036 80.8643L4.52036 84.8824" stroke="#DB1F2E" stroke-linecap="round" stroke-dasharray="0.01 4"/>
<path d="M76.8462 76.8462V80.8643L76.8462 84.8824" stroke="#DB1F2E" stroke-linecap="round" stroke-dasharray="0.01 4"/>
<path d="M4.52036 92.9186L4.52036 100.955L4.52036 108.991" stroke="#DB1F2E"/>
<path d="M4.52036 100.955H30.638" stroke="#DB1F2E"/>
<path d="M39.8836 98.3028L37.0106 104.471H35.9157L38.8589 98.3028H35.4134L35.4134 97.4389H39.8836L39.8836 98.3028ZM42.3005 99.2772H41.286C41.3663 98.6544 41.6543 98.1588 42.1499 97.7905C42.5919 97.4557 43.1276 97.2882 43.7571 97.2882C44.4737 97.2882 45.0462 97.4891 45.4748 97.8909C45.8566 98.2593 46.0474 98.7247 46.0474 99.2872C46.0474 99.7828 45.9068 100.242 45.6255 100.663C45.3978 101.018 44.9793 101.484 44.3699 102.06L42.7626 103.587H46.0173V104.471H41.4567V103.587L43.7471 101.387C44.256 100.898 44.6009 100.509 44.7817 100.221C44.9692 99.9268 45.063 99.6187 45.063 99.2973C45.063 98.9089 44.929 98.6075 44.6612 98.3932C44.4268 98.199 44.1187 98.1019 43.737 98.1019C43.3084 98.1019 42.9635 98.2191 42.7024 98.4535C42.4747 98.6611 42.3407 98.9357 42.3005 99.2772Z" fill="white" fill-opacity="0.95"/>
<path d="M50.7285 100.955H76.8462" stroke="#DB1F2E"/>
<path d="M76.8462 92.9186V100.955L76.8462 108.991" stroke="#DB1F2E"/>
</svg>
