<svg width="1300" height="300" viewBox="0 0 1300 300" fill="none" xmlns="http://www.w3.org/2000/svg">
<rect width="1300" height="300" rx="24" fill="#1A1A1A"/>
<rect width="1300" height="300" rx="24" fill="#262626"/>
<rect x="376.5" y="109" width="32" height="32" rx="16" fill="#DA0087"/>
<path d="M391.626 129.5V121.716L389.386 122.864V120.89L391.64 119.7H393.81V129.5H391.626Z" fill="white" fill-opacity="0.95"/>
<rect x="511.5" y="109" width="32" height="32" rx="16" fill="#DA0087"/>
<path d="M525.898 122.388H523.616C523.756 121.417 524.241 120.666 525.072 120.134C525.735 119.705 526.505 119.49 527.382 119.49C528.437 119.49 529.281 119.784 529.916 120.372C530.476 120.885 530.756 121.525 530.756 122.29C530.756 123.046 530.532 123.732 530.084 124.348C529.795 124.731 529.141 125.417 528.124 126.406L526.766 127.722H530.686V129.5H523.896V127.722L526.262 125.398L526.584 125.076C527.424 124.245 527.956 123.667 528.18 123.34C528.413 123.013 528.53 122.663 528.53 122.29C528.53 121.898 528.404 121.595 528.152 121.38C527.937 121.203 527.657 121.114 527.312 121.114C526.957 121.114 526.654 121.226 526.402 121.45C526.159 121.674 525.991 121.987 525.898 122.388Z" fill="white" fill-opacity="0.95"/>
<rect x="665.844" y="109" width="32" height="32" rx="16" fill="#DA0087"/>
<path d="M681.376 128.128C681.824 128.128 682.174 127.993 682.426 127.722C682.659 127.47 682.776 127.129 682.776 126.7C682.776 125.627 682.211 125.09 681.082 125.09H680.228V123.592H681.194C681.604 123.592 681.945 123.457 682.216 123.186C682.468 122.943 682.594 122.631 682.594 122.248C682.594 121.856 682.468 121.548 682.216 121.324C682.001 121.147 681.74 121.058 681.432 121.058C680.741 121.058 680.326 121.38 680.186 122.024H678.058C678.188 121.193 678.599 120.549 679.29 120.092C679.906 119.691 680.662 119.49 681.558 119.49C682.556 119.49 683.354 119.728 683.952 120.204C684.521 120.652 684.806 121.273 684.806 122.066C684.806 122.635 684.586 123.135 684.148 123.564C683.765 123.928 683.308 124.152 682.776 124.236C683.448 124.311 684.003 124.605 684.442 125.118C684.834 125.575 685.03 126.089 685.03 126.658C685.03 127.638 684.656 128.413 683.91 128.982C683.256 129.467 682.421 129.71 681.404 129.71C680.321 129.71 679.448 129.416 678.786 128.828C678.216 128.333 677.899 127.722 677.834 126.994H680.004C680.06 127.349 680.204 127.629 680.438 127.834C680.68 128.03 680.993 128.128 681.376 128.128Z" fill="white" fill-opacity="0.95"/>
<rect x="829.5" y="109" width="32" height="32" rx="16" fill="#DA0087"/>
<path d="M845.69 119.7H847.888V126.042H848.994V127.652H847.888V129.5H845.816V127.652H841.574V125.804L845.69 119.7ZM843.604 126.042H845.816V122.626L843.604 126.042Z" fill="white" fill-opacity="0.95"/>
<path d="M414.813 155.562C414.739 155.563 414.665 155.548 414.597 155.52C414.529 155.492 414.467 155.45 414.415 155.398C414.362 155.346 414.321 155.284 414.293 155.215C414.264 155.147 414.25 155.074 414.25 155C414.25 156.335 413.854 157.64 413.112 158.75C412.371 159.86 411.317 160.725 410.083 161.236C408.85 161.747 407.493 161.881 406.183 161.62C404.874 161.36 403.671 160.717 402.727 159.773C401.783 158.829 401.14 157.626 400.88 156.317C400.619 155.007 400.753 153.65 401.264 152.417C401.775 151.183 402.64 150.129 403.75 149.388C404.86 148.646 406.165 148.25 407.5 148.25C407.351 148.25 407.208 148.191 407.102 148.085C406.997 147.98 406.938 147.837 406.938 147.688C406.938 147.538 406.997 147.395 407.102 147.29C407.208 147.184 407.351 147.125 407.5 147.125C405.942 147.125 404.42 147.587 403.125 148.452C401.83 149.317 400.82 150.547 400.224 151.986C399.628 153.425 399.472 155.009 399.776 156.536C400.08 158.064 400.83 159.467 401.932 160.568C403.033 161.67 404.436 162.42 405.964 162.724C407.491 163.028 409.075 162.872 410.514 162.276C411.953 161.68 413.183 160.67 414.048 159.375C414.913 158.08 415.375 156.558 415.375 155C415.375 155.074 415.361 155.147 415.332 155.215C415.304 155.284 415.263 155.346 415.21 155.398C415.158 155.45 415.096 155.492 415.028 155.52C414.96 155.548 414.886 155.563 414.813 155.562Z" fill="#3B3B3B"/>
<path d="M406.938 147.688C406.937 147.761 406.952 147.835 406.98 147.903C407.008 147.971 407.05 148.033 407.102 148.085C407.154 148.138 407.216 148.179 407.285 148.207C407.353 148.236 407.426 148.25 407.5 148.25C409.29 148.252 411.005 148.964 412.271 150.229C413.536 151.495 414.248 153.21 414.25 155C414.25 155.149 414.309 155.292 414.415 155.398C414.52 155.503 414.663 155.562 414.812 155.562C414.962 155.562 415.105 155.503 415.21 155.398C415.316 155.292 415.375 155.149 415.375 155C415.373 152.912 414.542 150.91 413.066 149.434C411.59 147.958 409.588 147.127 407.5 147.125C407.426 147.125 407.353 147.139 407.285 147.168C407.216 147.196 407.154 147.237 407.102 147.29C407.05 147.342 407.008 147.404 406.98 147.472C406.952 147.54 406.937 147.614 406.938 147.688Z" fill="#3492EB"/>
<path d="M566.125 156.125C565.977 156.125 565.831 156.096 565.694 156.04C565.558 155.983 565.434 155.9 565.329 155.796C565.225 155.691 565.142 155.567 565.085 155.431C565.029 155.294 565 155.148 565 155C565 157.67 564.208 160.28 562.725 162.5C561.241 164.72 559.133 166.451 556.666 167.472C554.199 168.494 551.485 168.762 548.866 168.241C546.248 167.72 543.842 166.434 541.954 164.546C540.066 162.658 538.78 160.252 538.259 157.634C537.739 155.015 538.006 152.301 539.028 149.834C540.049 147.367 541.78 145.259 544 143.775C546.22 142.292 548.83 141.5 551.5 141.5C551.202 141.5 550.915 141.381 550.705 141.17C550.494 140.96 550.375 140.673 550.375 140.375C550.375 140.077 550.494 139.79 550.705 139.58C550.915 139.369 551.202 139.25 551.5 139.25C548.385 139.25 545.34 140.174 542.75 141.904C540.16 143.635 538.141 146.095 536.949 148.973C535.757 151.851 535.445 155.017 536.053 158.073C536.66 161.128 538.16 163.934 540.363 166.137C542.566 168.34 545.372 169.84 548.427 170.447C551.483 171.055 554.649 170.743 557.527 169.551C560.405 168.359 562.865 166.34 564.596 163.75C566.326 161.16 567.25 158.115 567.25 155C567.25 155.148 567.221 155.294 567.165 155.431C567.108 155.567 567.025 155.691 566.921 155.796C566.816 155.9 566.692 155.983 566.556 156.04C566.419 156.096 566.273 156.125 566.125 156.125Z" fill="#3B3B3B"/>
<path d="M550.375 140.375C550.375 140.523 550.404 140.669 550.46 140.806C550.517 140.942 550.6 141.066 550.704 141.171C550.809 141.275 550.933 141.358 551.069 141.415C551.206 141.471 551.352 141.5 551.5 141.5C555.079 141.504 558.511 142.927 561.042 145.458C563.573 147.989 564.996 151.421 565 155C565 155.298 565.119 155.585 565.33 155.795C565.54 156.006 565.827 156.125 566.125 156.125C566.423 156.125 566.71 156.006 566.92 155.795C567.131 155.585 567.25 155.298 567.25 155C567.245 150.824 565.584 146.821 562.632 143.868C559.679 140.916 555.676 139.255 551.5 139.25C551.352 139.25 551.206 139.279 551.069 139.335C550.933 139.392 550.809 139.475 550.704 139.579C550.6 139.684 550.517 139.808 550.46 139.944C550.404 140.081 550.375 140.227 550.375 140.375Z" fill="#3492EB"/>
<path d="M566.125 153.88C565.977 153.88 565.831 153.909 565.694 153.965C565.558 154.022 565.434 154.105 565.329 154.209C565.225 154.314 565.142 154.438 565.085 154.574C565.029 154.711 565 154.857 565 155.005C564.996 158.584 563.573 162.016 561.042 164.547C558.511 167.077 555.079 168.501 551.5 168.505C551.202 168.505 550.915 168.623 550.705 168.834C550.494 169.045 550.375 169.332 550.375 169.63C550.375 169.928 550.494 170.214 550.705 170.425C550.915 170.636 551.202 170.755 551.5 170.755C555.676 170.75 559.679 169.089 562.632 166.137C565.584 163.184 567.245 159.181 567.25 155.005C567.25 154.857 567.221 154.711 567.165 154.574C567.108 154.438 567.025 154.314 566.921 154.209C566.816 154.105 566.692 154.022 566.556 153.965C566.419 153.909 566.273 153.88 566.125 153.88Z" fill="#3492EB"/>
<path d="M536.885 153.88C537.033 153.88 537.179 153.909 537.316 153.965C537.452 154.022 537.576 154.105 537.681 154.209C537.785 154.314 537.868 154.438 537.925 154.574C537.981 154.711 538.01 154.857 538.01 155.005C538.014 158.584 539.437 162.016 541.968 164.547C544.499 167.077 547.931 168.501 551.51 168.505C551.808 168.505 552.095 168.623 552.306 168.834C552.516 169.045 552.635 169.332 552.635 169.63C552.635 169.928 552.516 170.214 552.306 170.425C552.095 170.636 551.808 170.755 551.51 170.755C547.334 170.75 543.331 169.089 540.378 166.137C537.426 163.184 535.765 159.181 535.76 155.005C535.76 154.857 535.789 154.711 535.845 154.574C535.902 154.438 535.985 154.314 536.089 154.209C536.194 154.105 536.318 154.022 536.454 153.965C536.591 153.909 536.737 153.88 536.885 153.88Z" fill="#3492EB"/>
<path d="M729.61 156.547C729.406 156.547 729.205 156.507 729.018 156.429C728.83 156.352 728.659 156.238 728.516 156.094C728.372 155.95 728.258 155.78 728.18 155.592C728.103 155.404 728.063 155.203 728.063 155C728.063 158.671 726.974 162.26 724.934 165.313C722.895 168.365 719.996 170.745 716.604 172.15C713.212 173.554 709.48 173.922 705.879 173.206C702.278 172.49 698.971 170.722 696.375 168.126C693.779 165.53 692.011 162.222 691.294 158.621C690.578 155.021 690.946 151.288 692.351 147.896C693.756 144.505 696.135 141.606 699.187 139.566C702.24 137.526 705.829 136.438 709.5 136.438C709.09 136.438 708.697 136.275 708.406 135.984C708.116 135.694 707.953 135.301 707.953 134.891C707.953 134.48 708.116 134.087 708.406 133.797C708.697 133.507 709.09 133.344 709.5 133.344C705.217 133.344 701.03 134.614 697.469 136.993C693.907 139.373 691.132 142.755 689.492 146.713C687.853 150.67 687.425 155.024 688.26 159.225C689.096 163.426 691.158 167.285 694.187 170.313C697.216 173.342 701.074 175.405 705.275 176.24C709.476 177.076 713.831 176.647 717.788 175.008C721.745 173.369 725.127 170.593 727.507 167.032C729.886 163.47 731.157 159.283 731.157 155C731.157 155.203 731.117 155.404 731.039 155.592C730.961 155.78 730.847 155.95 730.704 156.094C730.56 156.238 730.389 156.352 730.202 156.429C730.014 156.507 729.813 156.547 729.61 156.547Z" fill="#3B3B3B"/>
<path d="M707.953 134.891C707.953 135.094 707.993 135.295 708.071 135.483C708.149 135.67 708.263 135.841 708.406 135.985C708.55 136.128 708.72 136.242 708.908 136.32C709.096 136.398 709.297 136.438 709.5 136.438C714.422 136.443 719.14 138.4 722.62 141.88C726.1 145.36 728.057 150.079 728.063 155C728.063 155.41 728.226 155.804 728.516 156.094C728.806 156.384 729.199 156.547 729.61 156.547C730.02 156.547 730.413 156.384 730.703 156.094C730.994 155.804 731.156 155.41 731.156 155C731.15 149.258 728.866 143.754 724.806 139.694C720.746 135.634 715.242 133.35 709.5 133.344C709.297 133.344 709.096 133.384 708.908 133.461C708.72 133.539 708.55 133.653 708.406 133.797C708.263 133.94 708.149 134.111 708.071 134.299C707.993 134.486 707.953 134.687 707.953 134.891Z" fill="#3492EB"/>
<path d="M920.407 157.531C920.074 157.531 919.745 157.466 919.438 157.339C919.13 157.212 918.851 157.025 918.616 156.79C918.381 156.555 918.195 156.276 918.068 155.969C917.94 155.662 917.875 155.332 917.875 155C917.875 161.008 916.094 166.88 912.756 171.875C909.419 176.871 904.675 180.764 899.124 183.063C893.574 185.362 887.467 185.963 881.574 184.791C875.682 183.619 870.27 180.726 866.022 176.478C861.774 172.23 858.881 166.818 857.709 160.926C856.537 155.034 857.138 148.926 859.437 143.376C861.736 137.826 865.63 133.082 870.625 129.744C875.62 126.406 881.493 124.625 887.5 124.625C886.829 124.625 886.185 124.358 885.71 123.884C885.236 123.409 884.969 122.765 884.969 122.094C884.969 121.422 885.236 120.779 885.71 120.304C886.185 119.829 886.829 119.562 887.5 119.562C880.491 119.562 873.64 121.641 867.812 125.535C861.985 129.429 857.442 134.963 854.76 141.439C852.078 147.914 851.376 155.039 852.744 161.914C854.111 168.788 857.486 175.102 862.442 180.058C867.398 185.014 873.713 188.389 880.587 189.757C887.461 191.124 894.586 190.422 901.062 187.74C907.537 185.058 913.072 180.516 916.965 174.688C920.859 168.86 922.938 162.009 922.938 155C922.938 155.332 922.873 155.662 922.745 155.969C922.618 156.276 922.432 156.555 922.197 156.79C921.962 157.025 921.683 157.212 921.375 157.339C921.068 157.466 920.739 157.531 920.407 157.531Z" fill="#3B3B3B"/>
<path d="M884.969 122.094C884.969 122.426 885.034 122.755 885.161 123.063C885.288 123.37 885.475 123.649 885.71 123.884C885.945 124.119 886.224 124.306 886.531 124.433C886.839 124.56 887.168 124.625 887.5 124.625C895.553 124.634 903.274 127.837 908.969 133.531C914.663 139.226 917.866 146.947 917.875 155C917.875 155.671 918.142 156.315 918.617 156.79C919.091 157.265 919.735 157.531 920.406 157.531C921.078 157.531 921.722 157.265 922.196 156.79C922.671 156.315 922.938 155.671 922.938 155C922.927 145.605 919.19 136.597 912.547 129.954C905.903 123.31 896.896 119.573 887.5 119.563C887.168 119.562 886.839 119.628 886.531 119.755C886.224 119.882 885.945 120.068 885.71 120.303C885.475 120.539 885.288 120.818 885.161 121.125C885.034 121.432 884.969 121.761 884.969 122.094Z" fill="#3492EB"/>
<path d="M920.406 152.48C920.074 152.48 919.745 152.545 919.437 152.672C919.13 152.799 918.851 152.986 918.616 153.221C918.381 153.456 918.194 153.735 918.067 154.042C917.94 154.35 917.875 154.679 917.875 155.011C917.866 163.064 914.663 170.785 908.969 176.48C903.274 182.174 895.553 185.377 887.5 185.386C886.829 185.386 886.185 185.653 885.71 186.128C885.235 186.602 884.969 187.246 884.969 187.917C884.969 188.589 885.235 189.233 885.71 189.707C886.185 190.182 886.829 190.449 887.5 190.449C896.895 190.438 905.903 186.701 912.546 180.058C919.19 173.414 922.927 164.407 922.937 155.011C922.938 154.679 922.872 154.35 922.745 154.042C922.618 153.735 922.432 153.456 922.197 153.221C921.961 152.986 921.682 152.799 921.375 152.672C921.068 152.545 920.739 152.48 920.406 152.48Z" fill="#3492EB"/>
<path d="M854.616 152.48C854.949 152.48 855.278 152.545 855.585 152.672C855.892 152.799 856.171 152.986 856.407 153.221C856.642 153.456 856.828 153.735 856.955 154.042C857.082 154.35 857.148 154.679 857.147 155.011C857.156 163.064 860.359 170.785 866.054 176.48C871.748 182.174 879.469 185.377 887.522 185.386C888.194 185.386 888.838 185.653 889.312 186.128C889.787 186.602 890.054 187.246 890.054 187.917C890.054 188.589 889.787 189.233 889.312 189.707C888.838 190.182 888.194 190.449 887.522 190.449C878.127 190.438 869.12 186.701 862.476 180.058C855.832 173.414 852.096 164.407 852.085 155.011C852.085 154.679 852.15 154.35 852.277 154.042C852.404 153.735 852.591 153.456 852.826 153.221C853.061 152.986 853.34 152.799 853.647 152.672C853.955 152.545 854.284 152.48 854.616 152.48Z" fill="#3492EB"/>
</svg>
