<svg width="494" height="208" viewBox="0 0 494 208" fill="none" xmlns="http://www.w3.org/2000/svg">
<rect width="493.333" height="208" rx="20" fill="#262626"/>
<path d="M98.233 91V80.8182H99.4659V89.9062H104.199V91H98.233ZM108.196 91.179C107.712 91.179 107.273 91.0878 106.879 90.9055C106.484 90.7199 106.171 90.4531 105.939 90.1051C105.707 89.7538 105.591 89.3295 105.591 88.8324C105.591 88.3949 105.677 88.0402 105.849 87.7685C106.022 87.4934 106.252 87.2779 106.54 87.1222C106.829 86.9664 107.147 86.8504 107.495 86.7741C107.846 86.6946 108.199 86.6316 108.554 86.5852C109.018 86.5256 109.394 86.4808 109.683 86.451C109.974 86.4179 110.186 86.3632 110.319 86.2869C110.455 86.2107 110.523 86.0781 110.523 85.8892V85.8494C110.523 85.3589 110.388 84.9777 110.12 84.706C109.855 84.4342 109.452 84.2983 108.912 84.2983C108.352 84.2983 107.913 84.4209 107.594 84.6662C107.276 84.9115 107.053 85.1733 106.923 85.4517L105.81 85.054C106.009 84.59 106.274 84.2287 106.605 83.9702C106.94 83.7083 107.304 83.526 107.699 83.4233C108.097 83.3172 108.488 83.2642 108.872 83.2642C109.117 83.2642 109.399 83.294 109.717 83.3537C110.039 83.41 110.349 83.5277 110.647 83.7067C110.949 83.8857 111.199 84.1558 111.398 84.517C111.597 84.8783 111.696 85.3622 111.696 85.9688V91H110.523V89.9659H110.463C110.384 90.1316 110.251 90.3089 110.065 90.4979C109.88 90.6868 109.633 90.8475 109.325 90.9801C109.016 91.1127 108.64 91.179 108.196 91.179ZM108.375 90.125C108.839 90.125 109.23 90.0339 109.548 89.8516C109.87 89.6693 110.112 89.4339 110.274 89.1456C110.44 88.8572 110.523 88.554 110.523 88.2358V87.1619C110.473 87.2216 110.364 87.2763 110.195 87.326C110.029 87.3724 109.837 87.4138 109.618 87.4503C109.402 87.4834 109.192 87.5133 108.987 87.5398C108.784 87.563 108.62 87.5829 108.494 87.5994C108.189 87.6392 107.904 87.7038 107.639 87.7933C107.377 87.8795 107.165 88.0104 107.003 88.1861C106.844 88.3584 106.764 88.5937 106.764 88.892C106.764 89.2997 106.915 89.608 107.217 89.8168C107.522 90.0223 107.908 90.125 108.375 90.125ZM113.997 91V80.8182H115.17V84.5767H115.269C115.356 84.4441 115.475 84.2751 115.627 84.0696C115.783 83.8608 116.005 83.6752 116.294 83.5128C116.585 83.3471 116.98 83.2642 117.477 83.2642C118.12 83.2642 118.686 83.425 119.177 83.7464C119.668 84.0679 120.05 84.5237 120.325 85.1136C120.601 85.7036 120.738 86.3996 120.738 87.2017C120.738 88.0104 120.601 88.7114 120.325 89.3047C120.05 89.8946 119.669 90.352 119.182 90.6768C118.695 90.9983 118.133 91.1591 117.497 91.1591C117.006 91.1591 116.613 91.0779 116.318 90.9155C116.023 90.7498 115.796 90.5625 115.637 90.3537C115.478 90.1416 115.356 89.9659 115.269 89.8267H115.13V91H113.997ZM115.15 87.1818C115.15 87.7585 115.235 88.2673 115.404 88.7081C115.573 89.1456 115.82 89.4886 116.144 89.7372C116.469 89.9825 116.867 90.1051 117.338 90.1051C117.828 90.1051 118.237 89.9759 118.566 89.7173C118.897 89.4555 119.146 89.1042 119.311 88.6634C119.48 88.2192 119.565 87.7254 119.565 87.1818C119.565 86.6449 119.482 86.161 119.316 85.7301C119.154 85.2959 118.907 84.9529 118.575 84.701C118.247 84.4458 117.835 84.3182 117.338 84.3182C116.86 84.3182 116.459 84.4392 116.134 84.6811C115.81 84.9197 115.564 85.2545 115.399 85.6854C115.233 86.1129 115.15 86.6117 115.15 87.1818ZM125.735 91.1591C124.999 91.1591 124.364 90.9967 123.83 90.6719C123.3 90.3438 122.891 89.8864 122.602 89.2997C122.317 88.7098 122.175 88.0237 122.175 87.2415C122.175 86.4593 122.317 85.7699 122.602 85.1733C122.891 84.5734 123.292 84.1061 123.806 83.7713C124.323 83.4332 124.926 83.2642 125.615 83.2642C126.013 83.2642 126.406 83.3305 126.794 83.4631C127.181 83.5956 127.534 83.8111 127.852 84.1094C128.171 84.4044 128.424 84.7955 128.613 85.2827C128.802 85.7699 128.896 86.3698 128.896 87.0824V87.5795H123.01V86.5653H127.703C127.703 86.1345 127.617 85.75 127.445 85.4119C127.276 85.0739 127.034 84.8071 126.719 84.6115C126.407 84.416 126.039 84.3182 125.615 84.3182C125.148 84.3182 124.744 84.4342 124.402 84.6662C124.064 84.8949 123.804 85.1932 123.622 85.5611C123.439 85.929 123.348 86.3234 123.348 86.7443V87.4205C123.348 87.9972 123.448 88.486 123.646 88.8871C123.849 89.2848 124.129 89.5881 124.487 89.7969C124.845 90.0024 125.261 90.1051 125.735 90.1051C126.043 90.1051 126.321 90.062 126.57 89.9759C126.822 89.8864 127.039 89.7538 127.221 89.5781C127.403 89.3991 127.544 89.1771 127.644 88.9119L128.777 89.2301C128.658 89.6146 128.457 89.9527 128.176 90.2443C127.894 90.5327 127.546 90.758 127.132 90.9205C126.717 91.0795 126.252 91.1591 125.735 91.1591ZM131.855 80.8182V91H130.681V80.8182H131.855ZM137.543 81.9119V80.8182H145.18V81.9119H141.978V91H140.745V81.9119H137.543ZM149.018 91.1591C148.282 91.1591 147.647 90.9967 147.114 90.6719C146.583 90.3438 146.174 89.8864 145.886 89.2997C145.601 88.7098 145.458 88.0237 145.458 87.2415C145.458 86.4593 145.601 85.7699 145.886 85.1733C146.174 84.5734 146.575 84.1061 147.089 83.7713C147.606 83.4332 148.209 83.2642 148.898 83.2642C149.296 83.2642 149.689 83.3305 150.077 83.4631C150.464 83.5956 150.817 83.8111 151.136 84.1094C151.454 84.4044 151.707 84.7955 151.896 85.2827C152.085 85.7699 152.18 86.3698 152.18 87.0824V87.5795H146.293V86.5653H150.987C150.987 86.1345 150.9 85.75 150.728 85.4119C150.559 85.0739 150.317 84.8071 150.002 84.6115C149.691 84.416 149.323 84.3182 148.898 84.3182C148.431 84.3182 148.027 84.4342 147.685 84.6662C147.347 84.8949 147.087 85.1932 146.905 85.5611C146.723 85.929 146.631 86.3234 146.631 86.7443V87.4205C146.631 87.9972 146.731 88.486 146.93 88.8871C147.132 89.2848 147.412 89.5881 147.77 89.7969C148.128 90.0024 148.544 90.1051 149.018 90.1051C149.326 90.1051 149.604 90.062 149.853 89.9759C150.105 89.8864 150.322 89.7538 150.504 89.5781C150.687 89.3991 150.827 89.1771 150.927 88.9119L152.06 89.2301C151.941 89.6146 151.741 89.9527 151.459 90.2443C151.177 90.5327 150.829 90.758 150.415 90.9205C150 91.0795 149.535 91.1591 149.018 91.1591ZM154.634 83.3636L156.464 86.4858L158.294 83.3636H159.646L157.18 87.1818L159.646 91H158.294L156.464 88.0369L154.634 91H153.282L155.708 87.1818L153.282 83.3636H154.634ZM164.641 83.3636V84.358H160.684V83.3636H164.641ZM161.837 81.5341H163.01V88.8125C163.01 89.1439 163.058 89.3925 163.154 89.5582C163.254 89.7206 163.38 89.83 163.532 89.8864C163.688 89.9394 163.852 89.9659 164.025 89.9659C164.154 89.9659 164.26 89.9593 164.343 89.946C164.426 89.9295 164.492 89.9162 164.542 89.9062L164.78 90.9602C164.701 90.9901 164.59 91.0199 164.447 91.0497C164.305 91.0829 164.124 91.0994 163.905 91.0994C163.574 91.0994 163.249 91.0282 162.931 90.8857C162.616 90.7431 162.354 90.526 162.145 90.2344C161.94 89.9427 161.837 89.5748 161.837 89.1307V81.5341Z" fill="white" fill-opacity="0.95"/>
<path d="M370.618 91L375.172 81.9915V81.9119H369.922V80.8182H376.445V81.9716L371.911 91H370.618ZM381.343 91.1392C380.76 91.1392 380.235 91.0232 379.767 90.7912C379.3 90.5592 378.925 90.241 378.644 89.8366C378.362 89.4323 378.208 88.9716 378.181 88.4545H379.374C379.421 88.9152 379.63 89.2964 380.001 89.598C380.375 89.8963 380.823 90.0455 381.343 90.0455C381.761 90.0455 382.132 89.9477 382.457 89.7521C382.785 89.5566 383.042 89.2881 383.227 88.9467C383.416 88.602 383.511 88.2126 383.511 87.7784C383.511 87.3343 383.413 86.9382 383.218 86.5902C383.025 86.2389 382.76 85.9621 382.422 85.7599C382.084 85.5578 381.698 85.455 381.264 85.4517C380.952 85.4484 380.632 85.4964 380.304 85.5959C379.976 85.692 379.706 85.8163 379.494 85.9688L378.34 85.8295L378.957 80.8182H384.247V81.9119H379.991L379.633 84.9148H379.693C379.901 84.7491 380.163 84.6115 380.478 84.5021C380.793 84.3928 381.121 84.3381 381.463 84.3381C382.086 84.3381 382.641 84.4872 383.128 84.7855C383.619 85.0805 384.003 85.4848 384.281 85.9986C384.563 86.5123 384.704 87.099 384.704 87.7585C384.704 88.4081 384.558 88.9882 384.267 89.4986C383.978 90.0057 383.58 90.4067 383.073 90.7017C382.566 90.9934 381.99 91.1392 381.343 91.1392ZM391.869 89.0909V88.554C391.869 88.1828 391.946 87.843 392.098 87.5348C392.254 87.2232 392.479 86.9747 392.774 86.7891C393.072 86.6001 393.434 86.5057 393.858 86.5057C394.289 86.5057 394.65 86.6001 394.942 86.7891C395.233 86.9747 395.454 87.2232 395.603 87.5348C395.752 87.843 395.827 88.1828 395.827 88.554V89.0909C395.827 89.4621 395.75 89.8035 395.598 90.1151C395.449 90.4233 395.227 90.6719 394.932 90.8608C394.64 91.0464 394.282 91.1392 393.858 91.1392C393.427 91.1392 393.064 91.0464 392.769 90.8608C392.474 90.6719 392.25 90.4233 392.098 90.1151C391.946 89.8035 391.869 89.4621 391.869 89.0909ZM392.884 88.554V89.0909C392.884 89.3991 392.956 89.6759 393.102 89.9212C393.248 90.1631 393.5 90.2841 393.858 90.2841C394.206 90.2841 394.451 90.1631 394.594 89.9212C394.74 89.6759 394.812 89.3991 394.812 89.0909V88.554C394.812 88.2457 394.743 87.9706 394.604 87.7287C394.464 87.4834 394.216 87.3608 393.858 87.3608C393.51 87.3608 393.26 87.4834 393.107 87.7287C392.958 87.9706 392.884 88.2457 392.884 88.554ZM386.798 83.2642V82.7273C386.798 82.3561 386.875 82.0163 387.027 81.7081C387.183 81.3965 387.408 81.148 387.703 80.9624C388.001 80.7734 388.363 80.679 388.787 80.679C389.218 80.679 389.579 80.7734 389.871 80.9624C390.162 81.148 390.383 81.3965 390.532 81.7081C390.681 82.0163 390.756 82.3561 390.756 82.7273V83.2642C390.756 83.6354 390.679 83.9768 390.527 84.2884C390.378 84.5966 390.156 84.8452 389.861 85.0341C389.569 85.2197 389.211 85.3125 388.787 85.3125C388.356 85.3125 387.993 85.2197 387.698 85.0341C387.403 84.8452 387.179 84.5966 387.027 84.2884C386.875 83.9768 386.798 83.6354 386.798 83.2642ZM387.812 82.7273V83.2642C387.812 83.5724 387.885 83.8492 388.031 84.0945C388.177 84.3364 388.429 84.4574 388.787 84.4574C389.135 84.4574 389.38 84.3364 389.523 84.0945C389.669 83.8492 389.741 83.5724 389.741 83.2642V82.7273C389.741 82.419 389.672 82.1439 389.533 81.902C389.393 81.6567 389.145 81.5341 388.787 81.5341C388.439 81.5341 388.189 81.6567 388.036 81.902C387.887 82.1439 387.812 82.419 387.812 82.7273ZM387.176 91L394.176 80.8182H395.31L388.31 91H387.176Z" fill="white" fill-opacity="0.95"/>
<rect x="97" y="102" width="300" height="4" rx="2" fill="#8F8F8F"/>
<rect x="97" y="102" width="225" height="4" rx="2" fill="#3492EB"/>
<path d="M98.233 129V118.818H99.4659V123.352H104.895V118.818H106.128V129H104.895V124.446H99.4659V129H98.233ZM111.639 129.159C110.903 129.159 110.268 128.997 109.735 128.672C109.204 128.344 108.795 127.886 108.507 127.3C108.222 126.71 108.079 126.024 108.079 125.241C108.079 124.459 108.222 123.77 108.507 123.173C108.795 122.573 109.196 122.106 109.71 121.771C110.227 121.433 110.83 121.264 111.52 121.264C111.917 121.264 112.31 121.33 112.698 121.463C113.086 121.596 113.439 121.811 113.757 122.109C114.075 122.404 114.328 122.795 114.517 123.283C114.706 123.77 114.801 124.37 114.801 125.082V125.58H108.914V124.565H113.608C113.608 124.134 113.521 123.75 113.349 123.412C113.18 123.074 112.938 122.807 112.623 122.612C112.312 122.416 111.944 122.318 111.52 122.318C111.052 122.318 110.648 122.434 110.306 122.666C109.968 122.895 109.708 123.193 109.526 123.561C109.344 123.929 109.252 124.323 109.252 124.744V125.42C109.252 125.997 109.352 126.486 109.551 126.887C109.753 127.285 110.033 127.588 110.391 127.797C110.749 128.002 111.165 128.105 111.639 128.105C111.947 128.105 112.225 128.062 112.474 127.976C112.726 127.886 112.943 127.754 113.125 127.578C113.308 127.399 113.449 127.177 113.548 126.912L114.681 127.23C114.562 127.615 114.362 127.953 114.08 128.244C113.798 128.533 113.45 128.758 113.036 128.92C112.622 129.08 112.156 129.159 111.639 129.159ZM117.759 118.818V129H116.586V118.818H117.759ZM119.908 131.864V121.364H121.041V122.577H121.181C121.267 122.444 121.386 122.275 121.539 122.07C121.694 121.861 121.916 121.675 122.205 121.513C122.496 121.347 122.891 121.264 123.388 121.264C124.031 121.264 124.598 121.425 125.088 121.746C125.579 122.068 125.962 122.524 126.237 123.114C126.512 123.704 126.649 124.4 126.649 125.202C126.649 126.01 126.512 126.711 126.237 127.305C125.962 127.895 125.58 128.352 125.093 128.677C124.606 128.998 124.044 129.159 123.408 129.159C122.917 129.159 122.525 129.078 122.23 128.915C121.935 128.75 121.708 128.562 121.548 128.354C121.389 128.142 121.267 127.966 121.181 127.827H121.081V131.864H119.908ZM121.061 125.182C121.061 125.759 121.146 126.267 121.315 126.708C121.484 127.146 121.731 127.489 122.056 127.737C122.38 127.982 122.778 128.105 123.249 128.105C123.739 128.105 124.149 127.976 124.477 127.717C124.808 127.455 125.057 127.104 125.222 126.663C125.392 126.219 125.476 125.725 125.476 125.182C125.476 124.645 125.393 124.161 125.227 123.73C125.065 123.296 124.818 122.953 124.487 122.701C124.159 122.446 123.746 122.318 123.249 122.318C122.771 122.318 122.37 122.439 122.046 122.681C121.721 122.92 121.476 123.254 121.31 123.685C121.144 124.113 121.061 124.612 121.061 125.182ZM131.641 129.159C130.905 129.159 130.27 128.997 129.737 128.672C129.206 128.344 128.797 127.886 128.509 127.3C128.224 126.71 128.081 126.024 128.081 125.241C128.081 124.459 128.224 123.77 128.509 123.173C128.797 122.573 129.198 122.106 129.712 121.771C130.229 121.433 130.832 121.264 131.521 121.264C131.919 121.264 132.312 121.33 132.7 121.463C133.088 121.596 133.441 121.811 133.759 122.109C134.077 122.404 134.33 122.795 134.519 123.283C134.708 123.77 134.803 124.37 134.803 125.082V125.58H128.916V124.565H133.61C133.61 124.134 133.523 123.75 133.351 123.412C133.182 123.074 132.94 122.807 132.625 122.612C132.314 122.416 131.946 122.318 131.521 122.318C131.054 122.318 130.65 122.434 130.308 122.666C129.97 122.895 129.71 123.193 129.528 123.561C129.346 123.929 129.254 124.323 129.254 124.744V125.42C129.254 125.997 129.354 126.486 129.553 126.887C129.755 127.285 130.035 127.588 130.393 127.797C130.751 128.002 131.167 128.105 131.641 128.105C131.949 128.105 132.227 128.062 132.476 127.976C132.728 127.886 132.945 127.754 133.127 127.578C133.31 127.399 133.45 127.177 133.55 126.912L134.683 127.23C134.564 127.615 134.364 127.953 134.082 128.244C133.8 128.533 133.452 128.758 133.038 128.92C132.624 129.08 132.158 129.159 131.641 129.159ZM136.588 129V121.364H137.721V122.517H137.801C137.94 122.139 138.192 121.833 138.556 121.597C138.921 121.362 139.332 121.244 139.789 121.244C139.875 121.244 139.983 121.246 140.112 121.249C140.242 121.253 140.339 121.258 140.406 121.264V122.457C140.366 122.447 140.275 122.433 140.132 122.413C139.993 122.389 139.846 122.378 139.69 122.378C139.319 122.378 138.987 122.456 138.695 122.612C138.407 122.764 138.178 122.976 138.009 123.248C137.844 123.516 137.761 123.823 137.761 124.168V129H136.588ZM145.336 119.912V118.818H152.973V119.912H149.771V129H148.538V119.912H145.336ZM156.811 129.159C156.075 129.159 155.44 128.997 154.907 128.672C154.376 128.344 153.967 127.886 153.679 127.3C153.394 126.71 153.251 126.024 153.251 125.241C153.251 124.459 153.394 123.77 153.679 123.173C153.967 122.573 154.368 122.106 154.882 121.771C155.399 121.433 156.002 121.264 156.691 121.264C157.089 121.264 157.482 121.33 157.87 121.463C158.257 121.596 158.61 121.811 158.929 122.109C159.247 122.404 159.5 122.795 159.689 123.283C159.878 123.77 159.973 124.37 159.973 125.082V125.58H154.086V124.565H158.779C158.779 124.134 158.693 123.75 158.521 123.412C158.352 123.074 158.11 122.807 157.795 122.612C157.484 122.416 157.116 122.318 156.691 122.318C156.224 122.318 155.82 122.434 155.478 122.666C155.14 122.895 154.88 123.193 154.698 123.561C154.516 123.929 154.424 124.323 154.424 124.744V125.42C154.424 125.997 154.524 126.486 154.723 126.887C154.925 127.285 155.205 127.588 155.563 127.797C155.921 128.002 156.337 128.105 156.811 128.105C157.119 128.105 157.397 128.062 157.646 127.976C157.898 127.886 158.115 127.754 158.297 127.578C158.48 127.399 158.62 127.177 158.72 126.912L159.853 127.23C159.734 127.615 159.533 127.953 159.252 128.244C158.97 128.533 158.622 128.758 158.208 128.92C157.793 129.08 157.328 129.159 156.811 129.159ZM162.427 121.364L164.257 124.486L166.086 121.364H167.439L164.973 125.182L167.439 129H166.086L164.257 126.037L162.427 129H161.075L163.501 125.182L161.075 121.364H162.427ZM172.434 121.364V122.358H168.477V121.364H172.434ZM169.63 119.534H170.803V126.812C170.803 127.144 170.851 127.393 170.947 127.558C171.047 127.721 171.173 127.83 171.325 127.886C171.481 127.939 171.645 127.966 171.817 127.966C171.947 127.966 172.053 127.959 172.136 127.946C172.219 127.929 172.285 127.916 172.335 127.906L172.573 128.96C172.494 128.99 172.383 129.02 172.24 129.05C172.098 129.083 171.917 129.099 171.698 129.099C171.367 129.099 171.042 129.028 170.724 128.886C170.409 128.743 170.147 128.526 169.938 128.234C169.733 127.943 169.63 127.575 169.63 127.131V119.534Z" fill="white" fill-opacity="0.7"/>
</svg>
