<svg width="500" height="306" viewBox="0 0 500 306" fill="none" xmlns="http://www.w3.org/2000/svg">
<rect width="500" height="306" rx="24" fill="#262626"/>
<path d="M264.625 83.125C264.477 83.1251 264.331 83.096 264.194 83.0395C264.058 82.983 263.934 82.9002 263.829 82.7957C263.725 82.6912 263.642 82.5672 263.585 82.4306C263.529 82.2941 263.5 82.1478 263.5 82C263.5 84.67 262.708 87.2801 261.225 89.5002C259.741 91.7203 257.633 93.4506 255.166 94.4724C252.699 95.4942 249.985 95.7615 247.366 95.2406C244.748 94.7197 242.342 93.434 240.454 91.5459C238.566 89.6579 237.28 87.2525 236.759 84.6337C236.239 82.015 236.506 79.3006 237.528 76.8338C238.549 74.367 240.28 72.2586 242.5 70.7752C244.72 69.2918 247.33 68.5 250 68.5C249.702 68.5 249.415 68.3815 249.205 68.1705C248.994 67.9595 248.875 67.6734 248.875 67.375C248.875 67.0766 248.994 66.7905 249.205 66.5795C249.415 66.3685 249.702 66.25 250 66.25C246.885 66.25 243.84 67.1737 241.25 68.9044C238.66 70.635 236.641 73.0948 235.449 75.9727C234.257 78.8507 233.945 82.0175 234.553 85.0727C235.16 88.1279 236.66 90.9343 238.863 93.1369C241.066 95.3396 243.872 96.8397 246.927 97.4474C249.983 98.0551 253.149 97.7432 256.027 96.5511C258.905 95.359 261.365 93.3403 263.096 90.7502C264.826 88.1602 265.75 85.1151 265.75 82C265.75 82.1478 265.721 82.2941 265.665 82.4306C265.608 82.5672 265.525 82.6912 265.421 82.7957C265.316 82.9002 265.192 82.983 265.056 83.0395C264.919 83.096 264.773 83.1251 264.625 83.125Z" fill="#3B3B3B"/>
<path d="M248.875 67.375C248.875 67.5228 248.904 67.6691 248.96 67.8056C249.017 67.9422 249.1 68.0662 249.204 68.1707C249.309 68.2752 249.433 68.358 249.569 68.4145C249.706 68.471 249.852 68.5001 250 68.5C253.579 68.5039 257.011 69.9275 259.542 72.4584C262.073 74.9893 263.496 78.4208 263.5 82C263.5 82.2984 263.619 82.5845 263.83 82.7955C264.04 83.0065 264.327 83.125 264.625 83.125C264.923 83.125 265.21 83.0065 265.42 82.7955C265.631 82.5845 265.75 82.2984 265.75 82C265.745 77.8243 264.084 73.8209 261.132 70.8682C258.179 67.9156 254.176 66.2547 250 66.25C249.852 66.2499 249.706 66.279 249.569 66.3355C249.433 66.392 249.309 66.4748 249.204 66.5793C249.1 66.6838 249.017 66.8078 248.96 66.9444C248.904 67.0809 248.875 67.2272 248.875 67.375Z" fill="#3492EB"/>
<path d="M205.261 134V119.455H207.023V132.438H213.784V134H205.261ZM220.716 134.227C219.731 134.227 218.867 133.993 218.124 133.524C217.385 133.055 216.807 132.4 216.391 131.557C215.979 130.714 215.773 129.729 215.773 128.602C215.773 127.466 215.979 126.474 216.391 125.626C216.807 124.779 217.385 124.121 218.124 123.652C218.867 123.183 219.731 122.949 220.716 122.949C221.701 122.949 222.563 123.183 223.301 123.652C224.045 124.121 224.622 124.779 225.034 125.626C225.451 126.474 225.659 127.466 225.659 128.602C225.659 129.729 225.451 130.714 225.034 131.557C224.622 132.4 224.045 133.055 223.301 133.524C222.563 133.993 221.701 134.227 220.716 134.227ZM220.716 132.722C221.464 132.722 222.08 132.53 222.562 132.146C223.045 131.763 223.403 131.259 223.635 130.634C223.867 130.009 223.983 129.331 223.983 128.602C223.983 127.873 223.867 127.194 223.635 126.564C223.403 125.934 223.045 125.425 222.562 125.037C222.08 124.649 221.464 124.455 220.716 124.455C219.968 124.455 219.352 124.649 218.869 125.037C218.386 125.425 218.029 125.934 217.797 126.564C217.565 127.194 217.449 127.873 217.449 128.602C217.449 129.331 217.565 130.009 217.797 130.634C218.029 131.259 218.386 131.763 218.869 132.146C219.352 132.53 219.968 132.722 220.716 132.722ZM231.428 134.256C230.737 134.256 230.109 134.125 229.546 133.865C228.982 133.6 228.535 133.219 228.203 132.722C227.872 132.22 227.706 131.614 227.706 130.903C227.706 130.278 227.829 129.772 228.076 129.384C228.322 128.991 228.651 128.683 229.063 128.46C229.475 128.238 229.929 128.072 230.426 127.963C230.928 127.849 231.433 127.759 231.939 127.693C232.602 127.608 233.14 127.544 233.551 127.501C233.968 127.454 234.271 127.376 234.461 127.267C234.655 127.158 234.752 126.969 234.752 126.699V126.642C234.752 125.941 234.56 125.397 234.176 125.009C233.798 124.62 233.222 124.426 232.451 124.426C231.65 124.426 231.023 124.601 230.569 124.952C230.114 125.302 229.794 125.676 229.61 126.074L228.019 125.506C228.303 124.843 228.682 124.327 229.155 123.957C229.633 123.583 230.154 123.323 230.718 123.176C231.286 123.025 231.845 122.949 232.394 122.949C232.744 122.949 233.147 122.991 233.601 123.077C234.06 123.157 234.503 123.325 234.929 123.581C235.36 123.837 235.718 124.223 236.002 124.739C236.286 125.255 236.428 125.946 236.428 126.812V134H234.752V132.523H234.667C234.553 132.759 234.364 133.013 234.098 133.283C233.833 133.553 233.48 133.782 233.04 133.972C232.6 134.161 232.062 134.256 231.428 134.256ZM231.684 132.75C232.346 132.75 232.905 132.62 233.36 132.359C233.819 132.099 234.165 131.763 234.397 131.351C234.633 130.939 234.752 130.506 234.752 130.051V128.517C234.681 128.602 234.525 128.68 234.283 128.751C234.046 128.818 233.772 128.877 233.459 128.929C233.151 128.976 232.851 129.019 232.557 129.057C232.268 129.09 232.034 129.118 231.854 129.142C231.418 129.199 231.011 129.291 230.632 129.419C230.258 129.542 229.955 129.729 229.723 129.98C229.496 130.226 229.382 130.562 229.382 130.989C229.382 131.571 229.598 132.011 230.029 132.31C230.464 132.603 231.016 132.75 231.684 132.75ZM243.607 134.227C242.697 134.227 241.895 133.998 241.199 133.538C240.503 133.074 239.958 132.421 239.565 131.578C239.172 130.731 238.976 129.729 238.976 128.574C238.976 127.428 239.172 126.434 239.565 125.591C239.958 124.748 240.505 124.097 241.206 123.638C241.907 123.179 242.716 122.949 243.635 122.949C244.345 122.949 244.906 123.067 245.318 123.304C245.735 123.536 246.052 123.801 246.27 124.099C246.492 124.393 246.665 124.634 246.788 124.824H246.93V119.455H248.607V134H246.987V132.324H246.788C246.665 132.523 246.49 132.774 246.263 133.077C246.036 133.375 245.711 133.643 245.29 133.879C244.868 134.111 244.307 134.227 243.607 134.227ZM243.834 132.722C244.506 132.722 245.074 132.546 245.538 132.196C246.002 131.841 246.355 131.351 246.597 130.726C246.838 130.096 246.959 129.369 246.959 128.545C246.959 127.731 246.84 127.018 246.604 126.408C246.367 125.792 246.017 125.314 245.553 124.973C245.089 124.627 244.516 124.455 243.834 124.455C243.124 124.455 242.532 124.637 242.058 125.001C241.589 125.361 241.237 125.851 241 126.472C240.768 127.087 240.652 127.778 240.652 128.545C240.652 129.322 240.77 130.027 241.007 130.662C241.249 131.292 241.604 131.794 242.072 132.168C242.546 132.537 243.133 132.722 243.834 132.722ZM251.909 134V123.091H253.585V134H251.909ZM252.761 121.273C252.435 121.273 252.153 121.161 251.916 120.939C251.684 120.716 251.568 120.449 251.568 120.136C251.568 119.824 251.684 119.556 251.916 119.334C252.153 119.111 252.435 119 252.761 119C253.088 119 253.367 119.111 253.599 119.334C253.836 119.556 253.955 119.824 253.955 120.136C253.955 120.449 253.836 120.716 253.599 120.939C253.367 121.161 253.088 121.273 252.761 121.273ZM258.331 127.438V134H256.655V123.091H258.275V124.795H258.417C258.672 124.241 259.06 123.796 259.581 123.46C260.102 123.119 260.775 122.949 261.598 122.949C262.337 122.949 262.983 123.1 263.537 123.403C264.091 123.702 264.522 124.156 264.83 124.767C265.138 125.373 265.292 126.14 265.292 127.068V134H263.615V127.182C263.615 126.325 263.393 125.657 262.948 125.179C262.503 124.696 261.892 124.455 261.115 124.455C260.58 124.455 260.102 124.571 259.681 124.803C259.264 125.035 258.935 125.373 258.694 125.818C258.452 126.263 258.331 126.803 258.331 127.438ZM272.758 138.318C271.948 138.318 271.252 138.214 270.67 138.006C270.087 137.802 269.602 137.532 269.214 137.196C268.83 136.865 268.525 136.509 268.298 136.131L269.633 135.193C269.784 135.392 269.976 135.619 270.208 135.875C270.44 136.135 270.757 136.36 271.16 136.55C271.567 136.744 272.1 136.841 272.758 136.841C273.638 136.841 274.365 136.628 274.938 136.202C275.511 135.776 275.798 135.108 275.798 134.199V131.983H275.656C275.532 132.182 275.357 132.428 275.13 132.722C274.907 133.01 274.585 133.268 274.164 133.496C273.747 133.718 273.184 133.83 272.474 133.83C271.593 133.83 270.802 133.621 270.102 133.205C269.406 132.788 268.854 132.182 268.447 131.386C268.044 130.591 267.843 129.625 267.843 128.489C267.843 127.371 268.04 126.398 268.433 125.57C268.826 124.736 269.372 124.092 270.073 123.638C270.774 123.179 271.584 122.949 272.502 122.949C273.212 122.949 273.776 123.067 274.192 123.304C274.614 123.536 274.936 123.801 275.158 124.099C275.386 124.393 275.561 124.634 275.684 124.824H275.854V123.091H277.474V134.312C277.474 135.25 277.261 136.012 276.835 136.599C276.413 137.191 275.845 137.625 275.13 137.899C274.42 138.179 273.629 138.318 272.758 138.318ZM272.701 132.324C273.373 132.324 273.942 132.17 274.406 131.862C274.87 131.554 275.222 131.112 275.464 130.534C275.705 129.956 275.826 129.265 275.826 128.46C275.826 127.674 275.708 126.981 275.471 126.379C275.234 125.778 274.884 125.307 274.42 124.966C273.956 124.625 273.383 124.455 272.701 124.455C271.991 124.455 271.399 124.634 270.925 124.994C270.457 125.354 270.104 125.837 269.867 126.443C269.635 127.049 269.519 127.722 269.519 128.46C269.519 129.218 269.638 129.888 269.874 130.47C270.116 131.048 270.471 131.502 270.94 131.834C271.413 132.161 272 132.324 272.701 132.324ZM281.763 134.114C281.413 134.114 281.112 133.988 280.862 133.737C280.611 133.486 280.485 133.186 280.485 132.835C280.485 132.485 280.611 132.184 280.862 131.933C281.112 131.682 281.413 131.557 281.763 131.557C282.114 131.557 282.415 131.682 282.665 131.933C282.916 132.184 283.042 132.485 283.042 132.835C283.042 133.067 282.983 133.28 282.864 133.474C282.751 133.669 282.597 133.825 282.403 133.943C282.213 134.057 282 134.114 281.763 134.114ZM287.271 134.114C286.921 134.114 286.62 133.988 286.369 133.737C286.118 133.486 285.993 133.186 285.993 132.835C285.993 132.485 286.118 132.184 286.369 131.933C286.62 131.682 286.921 131.557 287.271 131.557C287.622 131.557 287.922 131.682 288.173 131.933C288.424 132.184 288.55 132.485 288.55 132.835C288.55 133.067 288.491 133.28 288.372 133.474C288.259 133.669 288.105 133.825 287.911 133.943C287.721 134.057 287.508 134.114 287.271 134.114ZM292.779 134.114C292.429 134.114 292.128 133.988 291.877 133.737C291.626 133.486 291.501 133.186 291.501 132.835C291.501 132.485 291.626 132.184 291.877 131.933C292.128 131.682 292.429 131.557 292.779 131.557C293.129 131.557 293.43 131.682 293.681 131.933C293.932 132.184 294.058 132.485 294.058 132.835C294.058 133.067 293.998 133.28 293.88 133.474C293.766 133.669 293.612 133.825 293.418 133.943C293.229 134.057 293.016 134.114 292.779 134.114Z" fill="white" fill-opacity="0.95"/>
<path d="M212.125 225.125C211.977 225.125 211.831 225.096 211.694 225.04C211.558 224.983 211.434 224.9 211.329 224.796C211.225 224.691 211.142 224.567 211.085 224.431C211.029 224.294 211 224.148 211 224C211 226.67 210.208 229.28 208.725 231.5C207.241 233.72 205.133 235.451 202.666 236.472C200.199 237.494 197.485 237.762 194.866 237.241C192.248 236.72 189.842 235.434 187.954 233.546C186.066 231.658 184.78 229.252 184.259 226.634C183.739 224.015 184.006 221.301 185.028 218.834C186.049 216.367 187.78 214.259 190 212.775C192.22 211.292 194.83 210.5 197.5 210.5C197.202 210.5 196.915 210.381 196.705 210.17C196.494 209.96 196.375 209.673 196.375 209.375C196.375 209.077 196.494 208.79 196.705 208.58C196.915 208.369 197.202 208.25 197.5 208.25C194.385 208.25 191.34 209.174 188.75 210.904C186.16 212.635 184.141 215.095 182.949 217.973C181.757 220.851 181.445 224.017 182.053 227.073C182.66 230.128 184.16 232.934 186.363 235.137C188.566 237.34 191.372 238.84 194.427 239.447C197.483 240.055 200.649 239.743 203.527 238.551C206.405 237.359 208.865 235.34 210.596 232.75C212.326 230.16 213.25 227.115 213.25 224C213.25 224.148 213.221 224.294 213.165 224.431C213.108 224.567 213.025 224.691 212.921 224.796C212.816 224.9 212.692 224.983 212.556 225.04C212.419 225.096 212.273 225.125 212.125 225.125Z" fill="#3B3B3B"/>
<path d="M196.375 209.375C196.375 209.523 196.404 209.669 196.46 209.806C196.517 209.942 196.6 210.066 196.704 210.171C196.809 210.275 196.933 210.358 197.069 210.415C197.206 210.471 197.352 210.5 197.5 210.5C201.079 210.504 204.511 211.927 207.042 214.458C209.573 216.989 210.996 220.421 211 224C211 224.298 211.119 224.585 211.33 224.795C211.54 225.006 211.827 225.125 212.125 225.125C212.423 225.125 212.71 225.006 212.92 224.795C213.131 224.585 213.25 224.298 213.25 224C213.245 219.824 211.584 215.821 208.632 212.868C205.679 209.916 201.676 208.255 197.5 208.25C197.352 208.25 197.206 208.279 197.069 208.335C196.933 208.392 196.809 208.475 196.704 208.579C196.6 208.684 196.517 208.808 196.46 208.944C196.404 209.081 196.375 209.227 196.375 209.375Z" fill="#3492EB"/>
<path d="M229.261 231V216.455H231.023V229.438H237.784V231H229.261ZM244.716 231.227C243.731 231.227 242.867 230.993 242.124 230.524C241.385 230.055 240.807 229.4 240.391 228.557C239.979 227.714 239.773 226.729 239.773 225.602C239.773 224.466 239.979 223.474 240.391 222.626C240.807 221.779 241.385 221.121 242.124 220.652C242.867 220.183 243.731 219.949 244.716 219.949C245.701 219.949 246.563 220.183 247.301 220.652C248.045 221.121 248.622 221.779 249.034 222.626C249.451 223.474 249.659 224.466 249.659 225.602C249.659 226.729 249.451 227.714 249.034 228.557C248.622 229.4 248.045 230.055 247.301 230.524C246.563 230.993 245.701 231.227 244.716 231.227ZM244.716 229.722C245.464 229.722 246.08 229.53 246.562 229.146C247.045 228.763 247.403 228.259 247.635 227.634C247.867 227.009 247.983 226.331 247.983 225.602C247.983 224.873 247.867 224.194 247.635 223.564C247.403 222.934 247.045 222.425 246.562 222.037C246.08 221.649 245.464 221.455 244.716 221.455C243.968 221.455 243.352 221.649 242.869 222.037C242.386 222.425 242.029 222.934 241.797 223.564C241.565 224.194 241.449 224.873 241.449 225.602C241.449 226.331 241.565 227.009 241.797 227.634C242.029 228.259 242.386 228.763 242.869 229.146C243.352 229.53 243.968 229.722 244.716 229.722ZM255.428 231.256C254.737 231.256 254.109 231.125 253.546 230.865C252.982 230.6 252.535 230.219 252.203 229.722C251.872 229.22 251.706 228.614 251.706 227.903C251.706 227.278 251.829 226.772 252.076 226.384C252.322 225.991 252.651 225.683 253.063 225.46C253.475 225.238 253.929 225.072 254.426 224.963C254.928 224.849 255.433 224.759 255.939 224.693C256.602 224.608 257.14 224.544 257.551 224.501C257.968 224.454 258.271 224.376 258.461 224.267C258.655 224.158 258.752 223.969 258.752 223.699V223.642C258.752 222.941 258.56 222.397 258.176 222.009C257.798 221.62 257.222 221.426 256.451 221.426C255.65 221.426 255.023 221.601 254.569 221.952C254.114 222.302 253.794 222.676 253.61 223.074L252.019 222.506C252.303 221.843 252.682 221.327 253.155 220.957C253.633 220.583 254.154 220.323 254.718 220.176C255.286 220.025 255.845 219.949 256.394 219.949C256.744 219.949 257.147 219.991 257.601 220.077C258.06 220.157 258.503 220.325 258.929 220.581C259.36 220.837 259.718 221.223 260.002 221.739C260.286 222.255 260.428 222.946 260.428 223.812V231H258.752V229.523H258.667C258.553 229.759 258.364 230.013 258.098 230.283C257.833 230.553 257.48 230.782 257.04 230.972C256.6 231.161 256.062 231.256 255.428 231.256ZM255.684 229.75C256.346 229.75 256.905 229.62 257.36 229.359C257.819 229.099 258.165 228.763 258.397 228.351C258.633 227.939 258.752 227.506 258.752 227.051V225.517C258.681 225.602 258.525 225.68 258.283 225.751C258.046 225.818 257.772 225.877 257.459 225.929C257.151 225.976 256.851 226.019 256.557 226.057C256.268 226.09 256.034 226.118 255.854 226.142C255.418 226.199 255.011 226.291 254.632 226.419C254.258 226.542 253.955 226.729 253.723 226.98C253.496 227.226 253.382 227.562 253.382 227.989C253.382 228.571 253.598 229.011 254.029 229.31C254.464 229.603 255.016 229.75 255.684 229.75ZM267.607 231.227C266.697 231.227 265.895 230.998 265.199 230.538C264.503 230.074 263.958 229.421 263.565 228.578C263.172 227.731 262.976 226.729 262.976 225.574C262.976 224.428 263.172 223.434 263.565 222.591C263.958 221.748 264.505 221.097 265.206 220.638C265.907 220.179 266.716 219.949 267.635 219.949C268.345 219.949 268.906 220.067 269.318 220.304C269.735 220.536 270.052 220.801 270.27 221.099C270.492 221.393 270.665 221.634 270.788 221.824H270.93V216.455H272.607V231H270.987V229.324H270.788C270.665 229.523 270.49 229.774 270.263 230.077C270.036 230.375 269.711 230.643 269.29 230.879C268.868 231.111 268.307 231.227 267.607 231.227ZM267.834 229.722C268.506 229.722 269.074 229.546 269.538 229.196C270.002 228.841 270.355 228.351 270.597 227.726C270.838 227.096 270.959 226.369 270.959 225.545C270.959 224.731 270.84 224.018 270.604 223.408C270.367 222.792 270.017 222.314 269.553 221.973C269.089 221.627 268.516 221.455 267.834 221.455C267.124 221.455 266.532 221.637 266.058 222.001C265.589 222.361 265.237 222.851 265 223.472C264.768 224.087 264.652 224.778 264.652 225.545C264.652 226.322 264.77 227.027 265.007 227.662C265.249 228.292 265.604 228.794 266.072 229.168C266.546 229.537 267.133 229.722 267.834 229.722ZM275.909 231V220.091H277.585V231H275.909ZM276.761 218.273C276.435 218.273 276.153 218.161 275.916 217.939C275.684 217.716 275.568 217.449 275.568 217.136C275.568 216.824 275.684 216.556 275.916 216.334C276.153 216.111 276.435 216 276.761 216C277.088 216 277.367 216.111 277.599 216.334C277.836 216.556 277.955 216.824 277.955 217.136C277.955 217.449 277.836 217.716 277.599 217.939C277.367 218.161 277.088 218.273 276.761 218.273ZM282.331 224.438V231H280.655V220.091H282.275V221.795H282.417C282.672 221.241 283.06 220.796 283.581 220.46C284.102 220.119 284.775 219.949 285.598 219.949C286.337 219.949 286.983 220.1 287.537 220.403C288.091 220.702 288.522 221.156 288.83 221.767C289.138 222.373 289.292 223.14 289.292 224.068V231H287.615V224.182C287.615 223.325 287.393 222.657 286.948 222.179C286.503 221.696 285.892 221.455 285.115 221.455C284.58 221.455 284.102 221.571 283.681 221.803C283.264 222.035 282.935 222.373 282.694 222.818C282.452 223.263 282.331 223.803 282.331 224.438ZM296.758 235.318C295.948 235.318 295.252 235.214 294.67 235.006C294.087 234.802 293.602 234.532 293.214 234.196C292.83 233.865 292.525 233.509 292.298 233.131L293.633 232.193C293.784 232.392 293.976 232.619 294.208 232.875C294.44 233.135 294.757 233.36 295.16 233.55C295.567 233.744 296.1 233.841 296.758 233.841C297.638 233.841 298.365 233.628 298.938 233.202C299.511 232.776 299.798 232.108 299.798 231.199V228.983H299.656C299.532 229.182 299.357 229.428 299.13 229.722C298.907 230.01 298.585 230.268 298.164 230.496C297.747 230.718 297.184 230.83 296.474 230.83C295.593 230.83 294.802 230.621 294.102 230.205C293.406 229.788 292.854 229.182 292.447 228.386C292.044 227.591 291.843 226.625 291.843 225.489C291.843 224.371 292.04 223.398 292.433 222.57C292.826 221.736 293.372 221.092 294.073 220.638C294.774 220.179 295.584 219.949 296.502 219.949C297.212 219.949 297.776 220.067 298.192 220.304C298.614 220.536 298.936 220.801 299.158 221.099C299.386 221.393 299.561 221.634 299.684 221.824H299.854V220.091H301.474V231.312C301.474 232.25 301.261 233.012 300.835 233.599C300.413 234.191 299.845 234.625 299.13 234.899C298.42 235.179 297.629 235.318 296.758 235.318ZM296.701 229.324C297.373 229.324 297.942 229.17 298.406 228.862C298.87 228.554 299.222 228.112 299.464 227.534C299.705 226.956 299.826 226.265 299.826 225.46C299.826 224.674 299.708 223.981 299.471 223.379C299.234 222.778 298.884 222.307 298.42 221.966C297.956 221.625 297.383 221.455 296.701 221.455C295.991 221.455 295.399 221.634 294.925 221.994C294.457 222.354 294.104 222.837 293.867 223.443C293.635 224.049 293.519 224.722 293.519 225.46C293.519 226.218 293.638 226.888 293.874 227.47C294.116 228.048 294.471 228.502 294.94 228.834C295.413 229.161 296 229.324 296.701 229.324ZM305.763 231.114C305.413 231.114 305.112 230.988 304.862 230.737C304.611 230.486 304.485 230.186 304.485 229.835C304.485 229.485 304.611 229.184 304.862 228.933C305.112 228.682 305.413 228.557 305.763 228.557C306.114 228.557 306.415 228.682 306.665 228.933C306.916 229.184 307.042 229.485 307.042 229.835C307.042 230.067 306.983 230.28 306.864 230.474C306.751 230.669 306.597 230.825 306.403 230.943C306.213 231.057 306 231.114 305.763 231.114ZM311.271 231.114C310.921 231.114 310.62 230.988 310.369 230.737C310.118 230.486 309.993 230.186 309.993 229.835C309.993 229.485 310.118 229.184 310.369 228.933C310.62 228.682 310.921 228.557 311.271 228.557C311.622 228.557 311.922 228.682 312.173 228.933C312.424 229.184 312.55 229.485 312.55 229.835C312.55 230.067 312.491 230.28 312.372 230.474C312.259 230.669 312.105 230.825 311.911 230.943C311.721 231.057 311.508 231.114 311.271 231.114ZM316.779 231.114C316.429 231.114 316.128 230.988 315.877 230.737C315.626 230.486 315.501 230.186 315.501 229.835C315.501 229.485 315.626 229.184 315.877 228.933C316.128 228.682 316.429 228.557 316.779 228.557C317.129 228.557 317.43 228.682 317.681 228.933C317.932 229.184 318.058 229.485 318.058 229.835C318.058 230.067 317.998 230.28 317.88 230.474C317.766 230.669 317.612 230.825 317.418 230.943C317.229 231.057 317.016 231.114 316.779 231.114Z" fill="white" fill-opacity="0.95"/>
</svg>
