<svg width="559" height="190" viewBox="0 0 559 190" fill="none" xmlns="http://www.w3.org/2000/svg">
<rect width="559" height="190" rx="24" fill="#262626"/>
<path d="M308.125 81.125C307.977 81.1251 307.831 81.096 307.694 81.0395C307.558 80.983 307.434 80.9002 307.329 80.7957C307.225 80.6912 307.142 80.5672 307.085 80.4306C307.029 80.2941 307 80.1478 307 80C307 82.67 306.208 85.2801 304.725 87.5002C303.241 89.7203 301.133 91.4506 298.666 92.4724C296.199 93.4942 293.485 93.7615 290.866 93.2406C288.248 92.7197 285.842 91.434 283.954 89.5459C282.066 87.6579 280.78 85.2525 280.259 82.6337C279.739 80.015 280.006 77.3006 281.028 74.8338C282.049 72.367 283.78 70.2586 286 68.7752C288.22 67.2918 290.83 66.5 293.5 66.5C293.202 66.5 292.915 66.3815 292.705 66.1705C292.494 65.9595 292.375 65.6734 292.375 65.375C292.375 65.0766 292.494 64.7905 292.705 64.5795C292.915 64.3685 293.202 64.25 293.5 64.25C290.385 64.25 287.34 65.1737 284.75 66.9044C282.16 68.635 280.141 71.0948 278.949 73.9727C277.757 76.8507 277.445 80.0175 278.053 83.0727C278.66 86.1279 280.16 88.9343 282.363 91.1369C284.566 93.3396 287.372 94.8397 290.427 95.4474C293.483 96.0551 296.649 95.7432 299.527 94.5511C302.405 93.359 304.865 91.3403 306.596 88.7502C308.326 86.1602 309.25 83.1151 309.25 80C309.25 80.1478 309.221 80.2941 309.165 80.4306C309.108 80.5672 309.025 80.6912 308.921 80.7957C308.816 80.9002 308.692 80.983 308.556 81.0395C308.419 81.096 308.273 81.1251 308.125 81.125Z" fill="#3B3B3B"/>
<path d="M292.375 65.375C292.375 65.5228 292.404 65.6691 292.46 65.8056C292.517 65.9422 292.6 66.0662 292.704 66.1707C292.809 66.2752 292.933 66.358 293.069 66.4145C293.206 66.471 293.352 66.5001 293.5 66.5C297.079 66.5039 300.511 67.9275 303.042 70.4584C305.573 72.9893 306.996 76.4208 307 80C307 80.2984 307.119 80.5845 307.33 80.7955C307.54 81.0065 307.827 81.125 308.125 81.125C308.423 81.125 308.71 81.0065 308.92 80.7955C309.131 80.5845 309.25 80.2984 309.25 80C309.245 75.8243 307.584 71.8209 304.632 68.8682C301.679 65.9156 297.676 64.2547 293.5 64.25C293.352 64.2499 293.206 64.279 293.069 64.3355C292.933 64.392 292.809 64.4748 292.704 64.5793C292.6 64.6838 292.517 64.8078 292.46 64.9444C292.404 65.0809 292.375 65.2272 292.375 65.375Z" fill="#3492EB"/>
<path d="M308.125 78.8799C307.977 78.8798 307.831 78.9088 307.694 78.9653C307.558 79.0218 307.434 79.1047 307.329 79.2092C307.225 79.3137 307.142 79.4377 307.085 79.5743C307.029 79.7108 307 79.8571 307 80.0049C306.996 83.5841 305.573 87.0156 303.042 89.5465C300.511 92.0774 297.079 93.501 293.5 93.5049C293.202 93.5049 292.915 93.6234 292.705 93.8344C292.494 94.0454 292.375 94.3315 292.375 94.6299C292.375 94.9282 292.494 95.2144 292.705 95.4254C292.915 95.6364 293.202 95.7549 293.5 95.7549C297.676 95.7502 301.679 94.0893 304.632 91.1366C307.584 88.184 309.245 84.1806 309.25 80.0049C309.25 79.8571 309.221 79.7108 309.165 79.5743C309.108 79.4377 309.025 79.3137 308.921 79.2092C308.816 79.1047 308.692 79.0218 308.556 78.9653C308.419 78.9088 308.273 78.8798 308.125 78.8799Z" fill="#3492EB"/>
<path d="M278.885 78.8799C279.033 78.8798 279.179 78.9088 279.316 78.9653C279.452 79.0218 279.576 79.1047 279.681 79.2092C279.785 79.3137 279.868 79.4377 279.925 79.5743C279.981 79.7108 280.01 79.8571 280.01 80.0049C280.014 83.5841 281.437 87.0156 283.968 89.5465C286.499 92.0774 289.931 93.501 293.51 93.5049C293.808 93.5049 294.095 93.6234 294.306 93.8344C294.516 94.0454 294.635 94.3315 294.635 94.6299C294.635 94.9282 294.516 95.2144 294.306 95.4254C294.095 95.6364 293.808 95.7549 293.51 95.7549C289.334 95.7502 285.331 94.0893 282.378 91.1366C279.426 88.184 277.765 84.1806 277.76 80.0049C277.76 79.8571 277.789 79.7108 277.845 79.5743C277.902 79.4377 277.985 79.3137 278.089 79.2092C278.194 79.1047 278.318 79.0218 278.454 78.9653C278.591 78.9088 278.737 78.8798 278.885 78.8799Z" fill="#3492EB"/>
<g clip-path="url(#clip0_489_5444)">
<line x1="310" y1="115.478" x2="310" y2="100.478" stroke="#30C9B0"/>
<line x1="309.5" y1="107.978" x2="313.5" y2="107.978" stroke="#30C9B0"/>
<line x1="313" y1="115.478" x2="313" y2="100.478" stroke="#30C9B0"/>
</g>
<path d="M313.41 127.959V122.469H311.969L308.283 128.234L308.318 129.096H312.01V131H313.41V129.096H314.482V127.959H313.41ZM309.713 127.959L311.846 124.648L312.01 124.344V127.959H309.713Z" fill="#30C9B0"/>
<rect opacity="0.5" x="309.5" y="64" width="4" height="32" fill="#30C9B0"/>
<rect opacity="0.5" x="277.5" y="60" width="32" height="4" fill="#30C9B0"/>
<g clip-path="url(#clip1_489_5444)">
<line x1="258.5" y1="60.5" x2="273.5" y2="60.5" stroke="#30C9B0"/>
<line x1="266" y1="64.5" x2="266" y2="60.5" stroke="#30C9B0"/>
<line x1="258.5" y1="63.5" x2="273.5" y2="63.5" stroke="#30C9B0"/>
</g>
<path d="M253.933 63.4521V57.0469H252.251L247.951 63.7734L247.992 64.7783H252.299V67H253.933V64.7783H255.184V63.4521H253.933ZM249.619 63.4521L252.107 59.5898L252.299 59.2344V63.4521H249.619Z" fill="#30C9B0"/>
<defs>
<clipPath id="clip0_489_5444">
<rect width="4" height="15" fill="white" transform="translate(309.5 100.478)"/>
</clipPath>
<clipPath id="clip1_489_5444">
<rect width="15" height="4" fill="white" transform="translate(258.5 60)"/>
</clipPath>
</defs>
</svg>
