<svg width="634" height="306" viewBox="0 0 634 306" fill="none" xmlns="http://www.w3.org/2000/svg">
<rect width="634" height="306" rx="24" fill="#262626"/>
<path d="M331.625 83.125C331.477 83.1251 331.331 83.096 331.194 83.0395C331.058 82.983 330.934 82.9002 330.829 82.7957C330.725 82.6912 330.642 82.5672 330.585 82.4306C330.529 82.2941 330.5 82.1478 330.5 82C330.5 84.67 329.708 87.2801 328.225 89.5002C326.741 91.7203 324.633 93.4506 322.166 94.4724C319.699 95.4942 316.985 95.7615 314.366 95.2406C311.748 94.7197 309.342 93.434 307.454 91.5459C305.566 89.6579 304.28 87.2525 303.759 84.6337C303.239 82.015 303.506 79.3006 304.528 76.8338C305.549 74.367 307.28 72.2586 309.5 70.7752C311.72 69.2918 314.33 68.5 317 68.5C316.702 68.5 316.415 68.3815 316.205 68.1705C315.994 67.9595 315.875 67.6734 315.875 67.375C315.875 67.0766 315.994 66.7905 316.205 66.5795C316.415 66.3685 316.702 66.25 317 66.25C313.885 66.25 310.84 67.1737 308.25 68.9044C305.66 70.635 303.641 73.0948 302.449 75.9727C301.257 78.8507 300.945 82.0175 301.553 85.0727C302.16 88.1279 303.66 90.9343 305.863 93.1369C308.066 95.3396 310.872 96.8397 313.927 97.4474C316.983 98.0551 320.149 97.7432 323.027 96.5511C325.905 95.359 328.365 93.3403 330.096 90.7502C331.826 88.1602 332.75 85.1151 332.75 82C332.75 82.1478 332.721 82.2941 332.665 82.4306C332.608 82.5672 332.525 82.6912 332.421 82.7957C332.316 82.9002 332.192 82.983 332.056 83.0395C331.919 83.096 331.773 83.1251 331.625 83.125Z" fill="#3B3B3B"/>
<path d="M315.875 67.375C315.875 67.5228 315.904 67.6691 315.96 67.8056C316.017 67.9422 316.1 68.0662 316.204 68.1707C316.309 68.2752 316.433 68.358 316.569 68.4145C316.706 68.471 316.852 68.5001 317 68.5C320.579 68.5039 324.011 69.9275 326.542 72.4584C329.073 74.9893 330.496 78.4208 330.5 82C330.5 82.2984 330.619 82.5845 330.83 82.7955C331.04 83.0065 331.327 83.125 331.625 83.125C331.923 83.125 332.21 83.0065 332.42 82.7955C332.631 82.5845 332.75 82.2984 332.75 82C332.745 77.8243 331.084 73.8209 328.132 70.8682C325.179 67.9156 321.176 66.2547 317 66.25C316.852 66.2499 316.706 66.279 316.569 66.3355C316.433 66.392 316.309 66.4748 316.204 66.5793C316.1 66.6838 316.017 66.8078 315.96 66.9444C315.904 67.0809 315.875 67.2272 315.875 67.375Z" fill="#3492EB"/>
<path d="M272.261 134V119.455H274.023V132.438H280.784V134H272.261ZM287.716 134.227C286.731 134.227 285.867 133.993 285.124 133.524C284.385 133.055 283.807 132.4 283.391 131.557C282.979 130.714 282.773 129.729 282.773 128.602C282.773 127.466 282.979 126.474 283.391 125.626C283.807 124.779 284.385 124.121 285.124 123.652C285.867 123.183 286.731 122.949 287.716 122.949C288.701 122.949 289.563 123.183 290.301 123.652C291.045 124.121 291.622 124.779 292.034 125.626C292.451 126.474 292.659 127.466 292.659 128.602C292.659 129.729 292.451 130.714 292.034 131.557C291.622 132.4 291.045 133.055 290.301 133.524C289.563 133.993 288.701 134.227 287.716 134.227ZM287.716 132.722C288.464 132.722 289.08 132.53 289.562 132.146C290.045 131.763 290.403 131.259 290.635 130.634C290.867 130.009 290.983 129.331 290.983 128.602C290.983 127.873 290.867 127.194 290.635 126.564C290.403 125.934 290.045 125.425 289.562 125.037C289.08 124.649 288.464 124.455 287.716 124.455C286.968 124.455 286.352 124.649 285.869 125.037C285.386 125.425 285.029 125.934 284.797 126.564C284.565 127.194 284.449 127.873 284.449 128.602C284.449 129.331 284.565 130.009 284.797 130.634C285.029 131.259 285.386 131.763 285.869 132.146C286.352 132.53 286.968 132.722 287.716 132.722ZM298.428 134.256C297.737 134.256 297.109 134.125 296.546 133.865C295.982 133.6 295.535 133.219 295.203 132.722C294.872 132.22 294.706 131.614 294.706 130.903C294.706 130.278 294.829 129.772 295.076 129.384C295.322 128.991 295.651 128.683 296.063 128.46C296.475 128.238 296.929 128.072 297.426 127.963C297.928 127.849 298.433 127.759 298.939 127.693C299.602 127.608 300.14 127.544 300.551 127.501C300.968 127.454 301.271 127.376 301.461 127.267C301.655 127.158 301.752 126.969 301.752 126.699V126.642C301.752 125.941 301.56 125.397 301.176 125.009C300.798 124.62 300.222 124.426 299.451 124.426C298.65 124.426 298.023 124.601 297.569 124.952C297.114 125.302 296.794 125.676 296.61 126.074L295.019 125.506C295.303 124.843 295.682 124.327 296.155 123.957C296.633 123.583 297.154 123.323 297.718 123.176C298.286 123.025 298.845 122.949 299.394 122.949C299.744 122.949 300.147 122.991 300.601 123.077C301.06 123.157 301.503 123.325 301.929 123.581C302.36 123.837 302.718 124.223 303.002 124.739C303.286 125.255 303.428 125.946 303.428 126.812V134H301.752V132.523H301.667C301.553 132.759 301.364 133.013 301.098 133.283C300.833 133.553 300.48 133.782 300.04 133.972C299.6 134.161 299.062 134.256 298.428 134.256ZM298.684 132.75C299.346 132.75 299.905 132.62 300.36 132.359C300.819 132.099 301.165 131.763 301.397 131.351C301.633 130.939 301.752 130.506 301.752 130.051V128.517C301.681 128.602 301.525 128.68 301.283 128.751C301.046 128.818 300.772 128.877 300.459 128.929C300.151 128.976 299.851 129.019 299.557 129.057C299.268 129.09 299.034 129.118 298.854 129.142C298.418 129.199 298.011 129.291 297.632 129.419C297.258 129.542 296.955 129.729 296.723 129.98C296.496 130.226 296.382 130.562 296.382 130.989C296.382 131.571 296.598 132.011 297.029 132.31C297.464 132.603 298.016 132.75 298.684 132.75ZM310.607 134.227C309.697 134.227 308.895 133.998 308.199 133.538C307.503 133.074 306.958 132.421 306.565 131.578C306.172 130.731 305.976 129.729 305.976 128.574C305.976 127.428 306.172 126.434 306.565 125.591C306.958 124.748 307.505 124.097 308.206 123.638C308.907 123.179 309.716 122.949 310.635 122.949C311.345 122.949 311.906 123.067 312.318 123.304C312.735 123.536 313.052 123.801 313.27 124.099C313.492 124.393 313.665 124.634 313.788 124.824H313.93V119.455H315.607V134H313.987V132.324H313.788C313.665 132.523 313.49 132.774 313.263 133.077C313.036 133.375 312.711 133.643 312.29 133.879C311.868 134.111 311.307 134.227 310.607 134.227ZM310.834 132.722C311.506 132.722 312.074 132.546 312.538 132.196C313.002 131.841 313.355 131.351 313.597 130.726C313.838 130.096 313.959 129.369 313.959 128.545C313.959 127.731 313.84 127.018 313.604 126.408C313.367 125.792 313.017 125.314 312.553 124.973C312.089 124.627 311.516 124.455 310.834 124.455C310.124 124.455 309.532 124.637 309.058 125.001C308.589 125.361 308.237 125.851 308 126.472C307.768 127.087 307.652 127.778 307.652 128.545C307.652 129.322 307.77 130.027 308.007 130.662C308.249 131.292 308.604 131.794 309.072 132.168C309.546 132.537 310.133 132.722 310.834 132.722ZM318.909 134V123.091H320.585V134H318.909ZM319.761 121.273C319.435 121.273 319.153 121.161 318.916 120.939C318.684 120.716 318.568 120.449 318.568 120.136C318.568 119.824 318.684 119.556 318.916 119.334C319.153 119.111 319.435 119 319.761 119C320.088 119 320.367 119.111 320.599 119.334C320.836 119.556 320.955 119.824 320.955 120.136C320.955 120.449 320.836 120.716 320.599 120.939C320.367 121.161 320.088 121.273 319.761 121.273ZM325.331 127.438V134H323.655V123.091H325.275V124.795H325.417C325.672 124.241 326.06 123.796 326.581 123.46C327.102 123.119 327.775 122.949 328.598 122.949C329.337 122.949 329.983 123.1 330.537 123.403C331.091 123.702 331.522 124.156 331.83 124.767C332.138 125.373 332.292 126.14 332.292 127.068V134H330.615V127.182C330.615 126.325 330.393 125.657 329.948 125.179C329.503 124.696 328.892 124.455 328.115 124.455C327.58 124.455 327.102 124.571 326.681 124.803C326.264 125.035 325.935 125.373 325.694 125.818C325.452 126.263 325.331 126.803 325.331 127.438ZM339.758 138.318C338.948 138.318 338.252 138.214 337.67 138.006C337.087 137.802 336.602 137.532 336.214 137.196C335.83 136.865 335.525 136.509 335.298 136.131L336.633 135.193C336.784 135.392 336.976 135.619 337.208 135.875C337.44 136.135 337.757 136.36 338.16 136.55C338.567 136.744 339.1 136.841 339.758 136.841C340.638 136.841 341.365 136.628 341.938 136.202C342.511 135.776 342.798 135.108 342.798 134.199V131.983H342.656C342.532 132.182 342.357 132.428 342.13 132.722C341.907 133.01 341.585 133.268 341.164 133.496C340.747 133.718 340.184 133.83 339.474 133.83C338.593 133.83 337.802 133.621 337.102 133.205C336.406 132.788 335.854 132.182 335.447 131.386C335.044 130.591 334.843 129.625 334.843 128.489C334.843 127.371 335.04 126.398 335.433 125.57C335.826 124.736 336.372 124.092 337.073 123.638C337.774 123.179 338.584 122.949 339.502 122.949C340.212 122.949 340.776 123.067 341.192 123.304C341.614 123.536 341.936 123.801 342.158 124.099C342.386 124.393 342.561 124.634 342.684 124.824H342.854V123.091H344.474V134.312C344.474 135.25 344.261 136.012 343.835 136.599C343.413 137.191 342.845 137.625 342.13 137.899C341.42 138.179 340.629 138.318 339.758 138.318ZM339.701 132.324C340.373 132.324 340.942 132.17 341.406 131.862C341.87 131.554 342.222 131.112 342.464 130.534C342.705 129.956 342.826 129.265 342.826 128.46C342.826 127.674 342.708 126.981 342.471 126.379C342.234 125.778 341.884 125.307 341.42 124.966C340.956 124.625 340.383 124.455 339.701 124.455C338.991 124.455 338.399 124.634 337.925 124.994C337.457 125.354 337.104 125.837 336.867 126.443C336.635 127.049 336.519 127.722 336.519 128.46C336.519 129.218 336.638 129.888 336.874 130.47C337.116 131.048 337.471 131.502 337.94 131.834C338.413 132.161 339 132.324 339.701 132.324ZM348.763 134.114C348.413 134.114 348.112 133.988 347.862 133.737C347.611 133.486 347.485 133.186 347.485 132.835C347.485 132.485 347.611 132.184 347.862 131.933C348.112 131.682 348.413 131.557 348.763 131.557C349.114 131.557 349.415 131.682 349.665 131.933C349.916 132.184 350.042 132.485 350.042 132.835C350.042 133.067 349.983 133.28 349.864 133.474C349.751 133.669 349.597 133.825 349.403 133.943C349.213 134.057 349 134.114 348.763 134.114ZM354.271 134.114C353.921 134.114 353.62 133.988 353.369 133.737C353.118 133.486 352.993 133.186 352.993 132.835C352.993 132.485 353.118 132.184 353.369 131.933C353.62 131.682 353.921 131.557 354.271 131.557C354.622 131.557 354.922 131.682 355.173 131.933C355.424 132.184 355.55 132.485 355.55 132.835C355.55 133.067 355.491 133.28 355.372 133.474C355.259 133.669 355.105 133.825 354.911 133.943C354.721 134.057 354.508 134.114 354.271 134.114ZM359.779 134.114C359.429 134.114 359.128 133.988 358.877 133.737C358.626 133.486 358.501 133.186 358.501 132.835C358.501 132.485 358.626 132.184 358.877 131.933C359.128 131.682 359.429 131.557 359.779 131.557C360.129 131.557 360.43 131.682 360.681 131.933C360.932 132.184 361.058 132.485 361.058 132.835C361.058 133.067 360.998 133.28 360.88 133.474C360.766 133.669 360.612 133.825 360.418 133.943C360.229 134.057 360.016 134.114 359.779 134.114Z" fill="white" fill-opacity="0.95"/>
<path d="M279.125 225.125C278.977 225.125 278.831 225.096 278.694 225.04C278.558 224.983 278.434 224.9 278.329 224.796C278.225 224.691 278.142 224.567 278.085 224.431C278.029 224.294 278 224.148 278 224C278 226.67 277.208 229.28 275.725 231.5C274.241 233.72 272.133 235.451 269.666 236.472C267.199 237.494 264.485 237.762 261.866 237.241C259.248 236.72 256.842 235.434 254.954 233.546C253.066 231.658 251.78 229.252 251.259 226.634C250.739 224.015 251.006 221.301 252.028 218.834C253.049 216.367 254.78 214.259 257 212.775C259.22 211.292 261.83 210.5 264.5 210.5C264.202 210.5 263.915 210.381 263.705 210.17C263.494 209.96 263.375 209.673 263.375 209.375C263.375 209.077 263.494 208.79 263.705 208.58C263.915 208.369 264.202 208.25 264.5 208.25C261.385 208.25 258.34 209.174 255.75 210.904C253.16 212.635 251.141 215.095 249.949 217.973C248.757 220.851 248.445 224.017 249.053 227.073C249.66 230.128 251.16 232.934 253.363 235.137C255.566 237.34 258.372 238.84 261.427 239.447C264.483 240.055 267.649 239.743 270.527 238.551C273.405 237.359 275.865 235.34 277.596 232.75C279.326 230.16 280.25 227.115 280.25 224C280.25 224.148 280.221 224.294 280.165 224.431C280.108 224.567 280.025 224.691 279.921 224.796C279.816 224.9 279.692 224.983 279.556 225.04C279.419 225.096 279.273 225.125 279.125 225.125Z" fill="#3B3B3B"/>
<path d="M263.375 209.375C263.375 209.523 263.404 209.669 263.46 209.806C263.517 209.942 263.6 210.066 263.704 210.171C263.809 210.275 263.933 210.358 264.069 210.415C264.206 210.471 264.352 210.5 264.5 210.5C268.079 210.504 271.511 211.927 274.042 214.458C276.573 216.989 277.996 220.421 278 224C278 224.298 278.119 224.585 278.33 224.795C278.54 225.006 278.827 225.125 279.125 225.125C279.423 225.125 279.71 225.006 279.92 224.795C280.131 224.585 280.25 224.298 280.25 224C280.245 219.824 278.584 215.821 275.632 212.868C272.679 209.916 268.676 208.255 264.5 208.25C264.352 208.25 264.206 208.279 264.069 208.335C263.933 208.392 263.809 208.475 263.704 208.579C263.6 208.684 263.517 208.808 263.46 208.944C263.404 209.081 263.375 209.227 263.375 209.375Z" fill="#3492EB"/>
<path d="M296.261 231V216.455H298.023V229.438H304.784V231H296.261ZM311.716 231.227C310.731 231.227 309.867 230.993 309.124 230.524C308.385 230.055 307.807 229.4 307.391 228.557C306.979 227.714 306.773 226.729 306.773 225.602C306.773 224.466 306.979 223.474 307.391 222.626C307.807 221.779 308.385 221.121 309.124 220.652C309.867 220.183 310.731 219.949 311.716 219.949C312.701 219.949 313.563 220.183 314.301 220.652C315.045 221.121 315.622 221.779 316.034 222.626C316.451 223.474 316.659 224.466 316.659 225.602C316.659 226.729 316.451 227.714 316.034 228.557C315.622 229.4 315.045 230.055 314.301 230.524C313.563 230.993 312.701 231.227 311.716 231.227ZM311.716 229.722C312.464 229.722 313.08 229.53 313.562 229.146C314.045 228.763 314.403 228.259 314.635 227.634C314.867 227.009 314.983 226.331 314.983 225.602C314.983 224.873 314.867 224.194 314.635 223.564C314.403 222.934 314.045 222.425 313.562 222.037C313.08 221.649 312.464 221.455 311.716 221.455C310.968 221.455 310.352 221.649 309.869 222.037C309.386 222.425 309.029 222.934 308.797 223.564C308.565 224.194 308.449 224.873 308.449 225.602C308.449 226.331 308.565 227.009 308.797 227.634C309.029 228.259 309.386 228.763 309.869 229.146C310.352 229.53 310.968 229.722 311.716 229.722ZM322.428 231.256C321.737 231.256 321.109 231.125 320.546 230.865C319.982 230.6 319.535 230.219 319.203 229.722C318.872 229.22 318.706 228.614 318.706 227.903C318.706 227.278 318.829 226.772 319.076 226.384C319.322 225.991 319.651 225.683 320.063 225.46C320.475 225.238 320.929 225.072 321.426 224.963C321.928 224.849 322.433 224.759 322.939 224.693C323.602 224.608 324.14 224.544 324.551 224.501C324.968 224.454 325.271 224.376 325.461 224.267C325.655 224.158 325.752 223.969 325.752 223.699V223.642C325.752 222.941 325.56 222.397 325.176 222.009C324.798 221.62 324.222 221.426 323.451 221.426C322.65 221.426 322.023 221.601 321.569 221.952C321.114 222.302 320.794 222.676 320.61 223.074L319.019 222.506C319.303 221.843 319.682 221.327 320.155 220.957C320.633 220.583 321.154 220.323 321.718 220.176C322.286 220.025 322.845 219.949 323.394 219.949C323.744 219.949 324.147 219.991 324.601 220.077C325.06 220.157 325.503 220.325 325.929 220.581C326.36 220.837 326.718 221.223 327.002 221.739C327.286 222.255 327.428 222.946 327.428 223.812V231H325.752V229.523H325.667C325.553 229.759 325.364 230.013 325.098 230.283C324.833 230.553 324.48 230.782 324.04 230.972C323.6 231.161 323.062 231.256 322.428 231.256ZM322.684 229.75C323.346 229.75 323.905 229.62 324.36 229.359C324.819 229.099 325.165 228.763 325.397 228.351C325.633 227.939 325.752 227.506 325.752 227.051V225.517C325.681 225.602 325.525 225.68 325.283 225.751C325.046 225.818 324.772 225.877 324.459 225.929C324.151 225.976 323.851 226.019 323.557 226.057C323.268 226.09 323.034 226.118 322.854 226.142C322.418 226.199 322.011 226.291 321.632 226.419C321.258 226.542 320.955 226.729 320.723 226.98C320.496 227.226 320.382 227.562 320.382 227.989C320.382 228.571 320.598 229.011 321.029 229.31C321.464 229.603 322.016 229.75 322.684 229.75ZM334.607 231.227C333.697 231.227 332.895 230.998 332.199 230.538C331.503 230.074 330.958 229.421 330.565 228.578C330.172 227.731 329.976 226.729 329.976 225.574C329.976 224.428 330.172 223.434 330.565 222.591C330.958 221.748 331.505 221.097 332.206 220.638C332.907 220.179 333.716 219.949 334.635 219.949C335.345 219.949 335.906 220.067 336.318 220.304C336.735 220.536 337.052 220.801 337.27 221.099C337.492 221.393 337.665 221.634 337.788 221.824H337.93V216.455H339.607V231H337.987V229.324H337.788C337.665 229.523 337.49 229.774 337.263 230.077C337.036 230.375 336.711 230.643 336.29 230.879C335.868 231.111 335.307 231.227 334.607 231.227ZM334.834 229.722C335.506 229.722 336.074 229.546 336.538 229.196C337.002 228.841 337.355 228.351 337.597 227.726C337.838 227.096 337.959 226.369 337.959 225.545C337.959 224.731 337.84 224.018 337.604 223.408C337.367 222.792 337.017 222.314 336.553 221.973C336.089 221.627 335.516 221.455 334.834 221.455C334.124 221.455 333.532 221.637 333.058 222.001C332.589 222.361 332.237 222.851 332 223.472C331.768 224.087 331.652 224.778 331.652 225.545C331.652 226.322 331.77 227.027 332.007 227.662C332.249 228.292 332.604 228.794 333.072 229.168C333.546 229.537 334.133 229.722 334.834 229.722ZM342.909 231V220.091H344.585V231H342.909ZM343.761 218.273C343.435 218.273 343.153 218.161 342.916 217.939C342.684 217.716 342.568 217.449 342.568 217.136C342.568 216.824 342.684 216.556 342.916 216.334C343.153 216.111 343.435 216 343.761 216C344.088 216 344.367 216.111 344.599 216.334C344.836 216.556 344.955 216.824 344.955 217.136C344.955 217.449 344.836 217.716 344.599 217.939C344.367 218.161 344.088 218.273 343.761 218.273ZM349.331 224.438V231H347.655V220.091H349.275V221.795H349.417C349.672 221.241 350.06 220.796 350.581 220.46C351.102 220.119 351.775 219.949 352.598 219.949C353.337 219.949 353.983 220.1 354.537 220.403C355.091 220.702 355.522 221.156 355.83 221.767C356.138 222.373 356.292 223.14 356.292 224.068V231H354.615V224.182C354.615 223.325 354.393 222.657 353.948 222.179C353.503 221.696 352.892 221.455 352.115 221.455C351.58 221.455 351.102 221.571 350.681 221.803C350.264 222.035 349.935 222.373 349.694 222.818C349.452 223.263 349.331 223.803 349.331 224.438ZM363.758 235.318C362.948 235.318 362.252 235.214 361.67 235.006C361.087 234.802 360.602 234.532 360.214 234.196C359.83 233.865 359.525 233.509 359.298 233.131L360.633 232.193C360.784 232.392 360.976 232.619 361.208 232.875C361.44 233.135 361.757 233.36 362.16 233.55C362.567 233.744 363.1 233.841 363.758 233.841C364.638 233.841 365.365 233.628 365.938 233.202C366.511 232.776 366.798 232.108 366.798 231.199V228.983H366.656C366.532 229.182 366.357 229.428 366.13 229.722C365.907 230.01 365.585 230.268 365.164 230.496C364.747 230.718 364.184 230.83 363.474 230.83C362.593 230.83 361.802 230.621 361.102 230.205C360.406 229.788 359.854 229.182 359.447 228.386C359.044 227.591 358.843 226.625 358.843 225.489C358.843 224.371 359.04 223.398 359.433 222.57C359.826 221.736 360.372 221.092 361.073 220.638C361.774 220.179 362.584 219.949 363.502 219.949C364.212 219.949 364.776 220.067 365.192 220.304C365.614 220.536 365.936 220.801 366.158 221.099C366.386 221.393 366.561 221.634 366.684 221.824H366.854V220.091H368.474V231.312C368.474 232.25 368.261 233.012 367.835 233.599C367.413 234.191 366.845 234.625 366.13 234.899C365.42 235.179 364.629 235.318 363.758 235.318ZM363.701 229.324C364.373 229.324 364.942 229.17 365.406 228.862C365.87 228.554 366.222 228.112 366.464 227.534C366.705 226.956 366.826 226.265 366.826 225.46C366.826 224.674 366.708 223.981 366.471 223.379C366.234 222.778 365.884 222.307 365.42 221.966C364.956 221.625 364.383 221.455 363.701 221.455C362.991 221.455 362.399 221.634 361.925 221.994C361.457 222.354 361.104 222.837 360.867 223.443C360.635 224.049 360.519 224.722 360.519 225.46C360.519 226.218 360.638 226.888 360.874 227.47C361.116 228.048 361.471 228.502 361.94 228.834C362.413 229.161 363 229.324 363.701 229.324ZM372.763 231.114C372.413 231.114 372.112 230.988 371.862 230.737C371.611 230.486 371.485 230.186 371.485 229.835C371.485 229.485 371.611 229.184 371.862 228.933C372.112 228.682 372.413 228.557 372.763 228.557C373.114 228.557 373.415 228.682 373.665 228.933C373.916 229.184 374.042 229.485 374.042 229.835C374.042 230.067 373.983 230.28 373.864 230.474C373.751 230.669 373.597 230.825 373.403 230.943C373.213 231.057 373 231.114 372.763 231.114ZM378.271 231.114C377.921 231.114 377.62 230.988 377.369 230.737C377.118 230.486 376.993 230.186 376.993 229.835C376.993 229.485 377.118 229.184 377.369 228.933C377.62 228.682 377.921 228.557 378.271 228.557C378.622 228.557 378.922 228.682 379.173 228.933C379.424 229.184 379.55 229.485 379.55 229.835C379.55 230.067 379.491 230.28 379.372 230.474C379.259 230.669 379.105 230.825 378.911 230.943C378.721 231.057 378.508 231.114 378.271 231.114ZM383.779 231.114C383.429 231.114 383.128 230.988 382.877 230.737C382.626 230.486 382.501 230.186 382.501 229.835C382.501 229.485 382.626 229.184 382.877 228.933C383.128 228.682 383.429 228.557 383.779 228.557C384.129 228.557 384.43 228.682 384.681 228.933C384.932 229.184 385.058 229.485 385.058 229.835C385.058 230.067 384.998 230.28 384.88 230.474C384.766 230.669 384.612 230.825 384.418 230.943C384.229 231.057 384.016 231.114 383.779 231.114Z" fill="white" fill-opacity="0.95"/>
</svg>
