<svg width="832" height="287" viewBox="0 0 832 287" fill="none" xmlns="http://www.w3.org/2000/svg">
<rect width="768" height="287" rx="24" fill="#1A1A1A"/>
<rect width="768" height="287" rx="24" fill="#262626"/>
<rect x="343.875" y="89" width="32" height="32" rx="16" fill="#DA0087"/>
<path d="M359.001 109.5V101.716L356.761 102.864V100.89L359.015 99.7H361.185V109.5H359.001Z" fill="white" fill-opacity="0.95"/>
<rect x="495.875" y="89" width="32" height="32" rx="16" fill="#DA0087"/>
<path d="M510.273 102.388H507.991C508.131 101.417 508.616 100.666 509.447 100.134C510.11 99.7047 510.88 99.49 511.757 99.49C512.812 99.49 513.656 99.784 514.291 100.372C514.851 100.885 515.131 101.525 515.131 102.29C515.131 103.046 514.907 103.732 514.459 104.348C514.17 104.731 513.516 105.417 512.499 106.406L511.141 107.722H515.061V109.5H508.271V107.722L510.637 105.398L510.959 105.076C511.799 104.245 512.331 103.667 512.555 103.34C512.788 103.013 512.905 102.663 512.905 102.29C512.905 101.898 512.779 101.595 512.527 101.38C512.312 101.203 512.032 101.114 511.687 101.114C511.332 101.114 511.029 101.226 510.777 101.45C510.534 101.674 510.366 101.987 510.273 102.388Z" fill="white" fill-opacity="0.95"/>
<rect x="648.125" y="89" width="32" height="32" rx="16" fill="#DA0087"/>
<path d="M663.657 108.128C664.105 108.128 664.455 107.993 664.707 107.722C664.94 107.47 665.057 107.129 665.057 106.7C665.057 105.627 664.492 105.09 663.363 105.09H662.509V103.592H663.475C663.886 103.592 664.226 103.457 664.497 103.186C664.749 102.943 664.875 102.631 664.875 102.248C664.875 101.856 664.749 101.548 664.497 101.324C664.282 101.147 664.021 101.058 663.713 101.058C663.022 101.058 662.607 101.38 662.467 102.024H660.339C660.47 101.193 660.88 100.549 661.571 100.092C662.187 99.6907 662.943 99.49 663.839 99.49C664.838 99.49 665.636 99.728 666.233 100.204C666.802 100.652 667.087 101.273 667.087 102.066C667.087 102.635 666.868 103.135 666.429 103.564C666.046 103.928 665.589 104.152 665.057 104.236C665.729 104.311 666.284 104.605 666.723 105.118C667.115 105.575 667.311 106.089 667.311 106.658C667.311 107.638 666.938 108.413 666.191 108.982C665.538 109.467 664.702 109.71 663.685 109.71C662.602 109.71 661.73 109.416 661.067 108.828C660.498 108.333 660.18 107.722 660.115 106.994H662.285C662.341 107.349 662.486 107.629 662.719 107.834C662.962 108.03 663.274 108.128 663.657 108.128Z" fill="white" fill-opacity="0.95"/>
<rect x="799.875" y="89" width="32" height="32" rx="16" fill="#DA0087"/>
<path d="M816.065 99.7H818.263V106.042H819.369V107.652H818.263V109.5H816.191V107.652H811.949V105.804L816.065 99.7ZM813.979 106.042H816.191V102.626L813.979 106.042Z" fill="white" fill-opacity="0.95"/>
<path d="M338.75 136.125C338.602 136.125 338.456 136.096 338.319 136.04C338.183 135.983 338.059 135.9 337.954 135.796C337.85 135.691 337.767 135.567 337.71 135.431C337.654 135.294 337.625 135.148 337.625 135C337.625 137.67 336.833 140.28 335.35 142.5C333.866 144.72 331.758 146.451 329.291 147.472C326.824 148.494 324.11 148.762 321.491 148.241C318.873 147.72 316.467 146.434 314.579 144.546C312.691 142.658 311.405 140.252 310.884 137.634C310.364 135.015 310.631 132.301 311.653 129.834C312.674 127.367 314.405 125.259 316.625 123.775C318.845 122.292 321.455 121.5 324.125 121.5C323.827 121.5 323.54 121.381 323.33 121.17C323.119 120.96 323 120.673 323 120.375C323 120.077 323.119 119.79 323.33 119.58C323.54 119.369 323.827 119.25 324.125 119.25C321.01 119.25 317.965 120.174 315.375 121.904C312.785 123.635 310.766 126.095 309.574 128.973C308.382 131.851 308.07 135.017 308.678 138.073C309.285 141.128 310.785 143.934 312.988 146.137C315.191 148.34 317.997 149.84 321.052 150.447C324.108 151.055 327.274 150.743 330.152 149.551C333.03 148.359 335.49 146.34 337.221 143.75C338.951 141.16 339.875 138.115 339.875 135C339.875 135.148 339.846 135.294 339.79 135.431C339.733 135.567 339.65 135.691 339.546 135.796C339.441 135.9 339.317 135.983 339.181 136.04C339.044 136.096 338.898 136.125 338.75 136.125Z" fill="#3B3B3B"/>
<path d="M323 120.375C323 120.523 323.029 120.669 323.085 120.806C323.142 120.942 323.225 121.066 323.329 121.171C323.434 121.275 323.558 121.358 323.694 121.415C323.831 121.471 323.977 121.5 324.125 121.5C327.704 121.504 331.136 122.927 333.667 125.458C336.198 127.989 337.621 131.421 337.625 135C337.625 135.298 337.744 135.585 337.955 135.795C338.165 136.006 338.452 136.125 338.75 136.125C339.048 136.125 339.335 136.006 339.545 135.795C339.756 135.585 339.875 135.298 339.875 135C339.87 130.824 338.209 126.821 335.257 123.868C332.304 120.916 328.301 119.255 324.125 119.25C323.977 119.25 323.831 119.279 323.694 119.335C323.558 119.392 323.434 119.475 323.329 119.579C323.225 119.684 323.142 119.808 323.085 119.944C323.029 120.081 323 120.227 323 120.375Z" fill="#3492EB"/>
<path d="M490.75 136.125C490.602 136.125 490.456 136.096 490.319 136.04C490.183 135.983 490.059 135.9 489.954 135.796C489.85 135.691 489.767 135.567 489.71 135.431C489.654 135.294 489.625 135.148 489.625 135C489.625 137.67 488.833 140.28 487.35 142.5C485.866 144.72 483.758 146.451 481.291 147.472C478.824 148.494 476.11 148.762 473.491 148.241C470.873 147.72 468.467 146.434 466.579 144.546C464.691 142.658 463.405 140.252 462.884 137.634C462.364 135.015 462.631 132.301 463.653 129.834C464.674 127.367 466.405 125.259 468.625 123.775C470.845 122.292 473.455 121.5 476.125 121.5C475.827 121.5 475.54 121.381 475.33 121.17C475.119 120.96 475 120.673 475 120.375C475 120.077 475.119 119.79 475.33 119.58C475.54 119.369 475.827 119.25 476.125 119.25C473.01 119.25 469.965 120.174 467.375 121.904C464.785 123.635 462.766 126.095 461.574 128.973C460.382 131.851 460.07 135.017 460.678 138.073C461.285 141.128 462.785 143.934 464.988 146.137C467.191 148.34 469.997 149.84 473.052 150.447C476.108 151.055 479.274 150.743 482.152 149.551C485.03 148.359 487.49 146.34 489.221 143.75C490.951 141.16 491.875 138.115 491.875 135C491.875 135.148 491.846 135.294 491.79 135.431C491.733 135.567 491.65 135.691 491.546 135.796C491.441 135.9 491.317 135.983 491.181 136.04C491.044 136.096 490.898 136.125 490.75 136.125Z" fill="#3B3B3B"/>
<path d="M475 120.375C475 120.523 475.029 120.669 475.085 120.806C475.142 120.942 475.225 121.066 475.329 121.171C475.434 121.275 475.558 121.358 475.694 121.415C475.831 121.471 475.977 121.5 476.125 121.5C479.704 121.504 483.136 122.927 485.667 125.458C488.198 127.989 489.621 131.421 489.625 135C489.625 135.298 489.744 135.585 489.955 135.795C490.165 136.006 490.452 136.125 490.75 136.125C491.048 136.125 491.335 136.006 491.545 135.795C491.756 135.585 491.875 135.298 491.875 135C491.87 130.824 490.209 126.821 487.257 123.868C484.304 120.916 480.301 119.255 476.125 119.25C475.977 119.25 475.831 119.279 475.694 119.335C475.558 119.392 475.434 119.475 475.329 119.579C475.225 119.684 475.142 119.808 475.085 119.944C475.029 120.081 475 120.227 475 120.375Z" fill="#3492EB"/>
<path d="M490.75 133.88C490.602 133.88 490.456 133.909 490.319 133.965C490.183 134.022 490.059 134.105 489.954 134.209C489.85 134.314 489.767 134.438 489.71 134.574C489.654 134.711 489.625 134.857 489.625 135.005C489.621 138.584 488.198 142.016 485.667 144.547C483.136 147.077 479.704 148.501 476.125 148.505C475.827 148.505 475.54 148.623 475.33 148.834C475.119 149.045 475 149.332 475 149.63C475 149.928 475.119 150.214 475.33 150.425C475.54 150.636 475.827 150.755 476.125 150.755C480.301 150.75 484.304 149.089 487.257 146.137C490.209 143.184 491.87 139.181 491.875 135.005C491.875 134.857 491.846 134.711 491.79 134.574C491.733 134.438 491.65 134.314 491.546 134.209C491.441 134.105 491.317 134.022 491.181 133.965C491.044 133.909 490.898 133.88 490.75 133.88Z" fill="#3492EB"/>
<path d="M461.51 133.88C461.658 133.88 461.804 133.909 461.941 133.965C462.077 134.022 462.201 134.105 462.306 134.209C462.41 134.314 462.493 134.438 462.55 134.574C462.606 134.711 462.635 134.857 462.635 135.005C462.639 138.584 464.062 142.016 466.593 144.547C469.124 147.077 472.556 148.501 476.135 148.505C476.433 148.505 476.72 148.623 476.931 148.834C477.141 149.045 477.26 149.332 477.26 149.63C477.26 149.928 477.141 150.214 476.931 150.425C476.72 150.636 476.433 150.755 476.135 150.755C471.959 150.75 467.956 149.089 465.003 146.137C462.051 143.184 460.39 139.181 460.385 135.005C460.385 134.857 460.414 134.711 460.47 134.574C460.527 134.438 460.61 134.314 460.714 134.209C460.819 134.105 460.943 134.022 461.079 133.965C461.216 133.909 461.362 133.88 461.51 133.88Z" fill="#3492EB"/>
<path d="M627 120.375C627 120.523 627.029 120.669 627.085 120.806C627.142 120.942 627.225 121.066 627.329 121.171C627.434 121.275 627.558 121.358 627.694 121.415C627.831 121.471 627.977 121.5 628.125 121.5C631.704 121.504 635.136 122.927 637.667 125.458C640.198 127.989 641.621 131.421 641.625 135C641.625 135.298 641.744 135.585 641.955 135.795C642.165 136.006 642.452 136.125 642.75 136.125C643.048 136.125 643.335 136.006 643.545 135.795C643.756 135.585 643.875 135.298 643.875 135C643.87 130.824 642.209 126.821 639.257 123.868C636.304 120.916 632.301 119.255 628.125 119.25C627.977 119.25 627.831 119.279 627.694 119.335C627.558 119.392 627.434 119.475 627.329 119.579C627.225 119.684 627.142 119.808 627.085 119.944C627.029 120.081 627 120.227 627 120.375Z" fill="#27A17A"/>
<path d="M625.125 140.125C625.043 140.125 624.961 140.109 624.885 140.077C624.809 140.046 624.74 139.999 624.682 139.941L620.182 135.419C620.124 135.36 620.078 135.291 620.047 135.215C620.016 135.14 620 135.058 620 134.976C620 134.894 620.017 134.813 620.048 134.737C620.08 134.661 620.126 134.593 620.185 134.535C620.243 134.477 620.312 134.431 620.388 134.4C620.464 134.369 620.545 134.353 620.627 134.353C620.709 134.353 620.79 134.37 620.866 134.401C620.942 134.433 621.01 134.479 621.068 134.537L625.159 138.648L635.219 130.026C635.344 129.918 635.508 129.865 635.673 129.878C635.838 129.89 635.992 129.968 636.099 130.094C636.207 130.22 636.261 130.383 636.248 130.548C636.235 130.713 636.157 130.867 636.032 130.975L625.532 139.974C625.419 140.072 625.274 140.125 625.125 140.125Z" fill="#27A17A"/>
<path d="M629.265 120.375C629.265 120.523 629.236 120.669 629.179 120.806C629.123 120.942 629.04 121.066 628.936 121.171C628.831 121.275 628.707 121.358 628.571 121.415C628.434 121.471 628.288 121.5 628.14 121.5C624.561 121.504 621.129 122.927 618.598 125.458C616.067 127.989 614.644 131.421 614.64 135C614.64 135.298 614.521 135.585 614.31 135.795C614.099 136.006 613.813 136.125 613.515 136.125C613.217 136.125 612.93 136.006 612.719 135.795C612.508 135.585 612.39 135.298 612.39 135C612.395 130.824 614.055 126.821 617.008 123.868C619.961 120.916 623.964 119.255 628.14 119.25C628.288 119.25 628.434 119.279 628.571 119.335C628.707 119.392 628.831 119.475 628.936 119.579C629.04 119.684 629.123 119.808 629.179 119.944C629.236 120.081 629.265 120.227 629.265 120.375Z" fill="#27A17A"/>
<path d="M642.75 133.88C642.602 133.88 642.456 133.909 642.319 133.965C642.183 134.022 642.059 134.105 641.954 134.209C641.85 134.314 641.767 134.438 641.71 134.574C641.654 134.711 641.625 134.857 641.625 135.005C641.621 138.584 640.198 142.016 637.667 144.547C635.136 147.077 631.704 148.501 628.125 148.505C627.827 148.505 627.54 148.623 627.33 148.834C627.119 149.045 627 149.332 627 149.63C627 149.928 627.119 150.214 627.33 150.425C627.54 150.636 627.827 150.755 628.125 150.755C632.301 150.75 636.304 149.089 639.257 146.137C642.209 143.184 643.87 139.181 643.875 135.005C643.875 134.857 643.846 134.711 643.79 134.574C643.733 134.438 643.65 134.314 643.546 134.209C643.441 134.105 643.317 134.022 643.181 133.965C643.044 133.909 642.898 133.88 642.75 133.88Z" fill="#27A17A"/>
<path d="M613.51 133.88C613.658 133.88 613.804 133.909 613.941 133.965C614.077 134.022 614.201 134.105 614.306 134.209C614.41 134.314 614.493 134.438 614.55 134.574C614.606 134.711 614.635 134.857 614.635 135.005C614.639 138.584 616.062 142.016 618.593 144.547C621.124 147.077 624.556 148.501 628.135 148.505C628.433 148.505 628.72 148.623 628.931 148.834C629.141 149.045 629.26 149.332 629.26 149.63C629.26 149.928 629.141 150.214 628.931 150.425C628.72 150.636 628.433 150.755 628.135 150.755C623.959 150.75 619.956 149.089 617.003 146.137C614.051 143.184 612.39 139.181 612.385 135.005C612.385 134.857 612.414 134.711 612.47 134.574C612.527 134.438 612.61 134.314 612.714 134.209C612.819 134.105 612.943 134.022 613.079 133.965C613.216 133.909 613.362 133.88 613.51 133.88Z" fill="#27A17A"/>
<path d="M779 120.375C779 120.523 779.029 120.669 779.085 120.806C779.142 120.942 779.225 121.066 779.329 121.171C779.434 121.275 779.558 121.358 779.694 121.415C779.831 121.471 779.977 121.5 780.125 121.5C783.704 121.504 787.136 122.927 789.667 125.458C792.198 127.989 793.621 131.421 793.625 135C793.625 135.298 793.744 135.585 793.955 135.795C794.165 136.006 794.452 136.125 794.75 136.125C795.048 136.125 795.335 136.006 795.545 135.795C795.756 135.585 795.875 135.298 795.875 135C795.87 130.824 794.209 126.821 791.257 123.868C788.304 120.916 784.301 119.255 780.125 119.25C779.977 119.25 779.831 119.279 779.694 119.335C779.558 119.392 779.434 119.475 779.329 119.579C779.225 119.684 779.142 119.808 779.085 119.944C779.029 120.081 779 120.227 779 120.375Z" fill="#F55868"/>
<path d="M780.125 143C780.832 143 781.405 142.427 781.405 141.72C781.405 141.013 780.832 140.44 780.125 140.44C779.418 140.44 778.845 141.013 778.845 141.72C778.845 142.427 779.418 143 780.125 143Z" fill="#F55868"/>
<path d="M780.125 137.88C780.38 137.88 780.624 137.779 780.804 137.599C780.984 137.419 781.085 137.175 781.085 136.92V127.96C781.085 127.705 780.984 127.461 780.804 127.281C780.624 127.101 780.38 127 780.125 127C779.871 127 779.626 127.101 779.446 127.281C779.266 127.461 779.165 127.705 779.165 127.96V136.92C779.165 137.175 779.267 137.419 779.447 137.599C779.627 137.779 779.871 137.88 780.125 137.88Z" fill="#F55868"/>
<path d="M781.265 120.375C781.265 120.523 781.236 120.669 781.18 120.806C781.123 120.942 781.04 121.066 780.936 121.171C780.831 121.275 780.707 121.358 780.571 121.415C780.434 121.471 780.288 121.5 780.14 121.5C776.561 121.504 773.129 122.927 770.599 125.458C768.068 127.989 766.644 131.421 766.64 135C766.64 135.298 766.522 135.585 766.311 135.795C766.1 136.006 765.814 136.125 765.515 136.125C765.217 136.125 764.931 136.006 764.72 135.795C764.509 135.585 764.39 135.298 764.39 135C764.395 130.824 766.056 126.821 769.008 123.868C771.961 120.916 775.964 119.255 780.14 119.25C780.288 119.25 780.434 119.279 780.571 119.335C780.707 119.392 780.831 119.475 780.936 119.579C781.04 119.684 781.123 119.808 781.18 119.944C781.236 120.081 781.265 120.227 781.265 120.375Z" fill="#F55868"/>
<path d="M794.75 133.88C794.602 133.88 794.456 133.909 794.319 133.965C794.183 134.022 794.059 134.105 793.954 134.209C793.85 134.314 793.767 134.438 793.71 134.574C793.654 134.711 793.625 134.857 793.625 135.005C793.621 138.584 792.198 142.016 789.667 144.547C787.136 147.077 783.704 148.501 780.125 148.505C779.827 148.505 779.54 148.623 779.33 148.834C779.119 149.045 779 149.332 779 149.63C779 149.928 779.119 150.214 779.33 150.425C779.54 150.636 779.827 150.755 780.125 150.755C784.301 150.75 788.304 149.089 791.257 146.137C794.209 143.184 795.87 139.181 795.875 135.005C795.875 134.857 795.846 134.711 795.79 134.574C795.733 134.438 795.65 134.314 795.546 134.209C795.441 134.105 795.317 134.022 795.181 133.965C795.044 133.909 794.898 133.88 794.75 133.88Z" fill="#F55868"/>
<path d="M765.51 133.88C765.658 133.88 765.804 133.909 765.94 133.965C766.077 134.022 766.201 134.105 766.305 134.209C766.41 134.314 766.493 134.438 766.549 134.574C766.606 134.711 766.635 134.857 766.635 135.005C766.639 138.584 768.062 142.016 770.593 144.547C773.124 147.077 776.556 148.501 780.135 148.505C780.433 148.505 780.719 148.623 780.93 148.834C781.141 149.045 781.26 149.332 781.26 149.63C781.26 149.928 781.141 150.214 780.93 150.425C780.719 150.636 780.433 150.755 780.135 150.755C775.959 150.75 771.956 149.089 769.003 146.137C766.05 143.184 764.389 139.181 764.385 135.005C764.385 134.857 764.414 134.711 764.47 134.574C764.527 134.438 764.61 134.314 764.714 134.209C764.819 134.105 764.943 134.022 765.079 133.965C765.216 133.909 765.362 133.88 765.51 133.88Z" fill="#F55868"/>
</svg>
