<svg width="552" height="87" viewBox="0 0 552 87" fill="none" xmlns="http://www.w3.org/2000/svg">
<rect width="32.029" height="32.029" rx="16" fill="#DA0087"/>
<path d="M15.1397 20.5186V12.7275L12.8977 13.8766V11.9008L15.1537 10.7097H17.3257V20.5186H15.1397Z" fill="white" fill-opacity="0.95"/>
<rect x="135.122" width="32.029" height="32.029" rx="16" fill="#DA0087"/>
<path d="M149.533 13.4001H147.249C147.39 12.4286 147.875 11.6766 148.707 11.1441C149.37 10.7144 150.141 10.4995 151.019 10.4995C152.074 10.4995 152.92 10.7938 153.555 11.3823C154.116 11.8961 154.396 12.536 154.396 13.302C154.396 14.0587 154.172 14.7454 153.723 15.3619C153.434 15.7449 152.78 16.4316 151.761 17.4218L150.402 18.739H154.326V20.5186H147.53V18.739L149.898 16.4129L150.22 16.0906C151.061 15.2592 151.593 14.68 151.818 14.353C152.051 14.026 152.168 13.6757 152.168 13.302C152.168 12.9097 152.042 12.6061 151.789 12.3912C151.575 12.2137 151.294 12.125 150.949 12.125C150.594 12.125 150.29 12.2371 150.038 12.4613C149.795 12.6855 149.627 12.9984 149.533 13.4001Z" fill="white" fill-opacity="0.95"/>
<rect x="289.606" width="32.029" height="32.029" rx="16" fill="#DA0087"/>
<path d="M305.152 19.1453C305.601 19.1453 305.951 19.0099 306.203 18.739C306.437 18.4867 306.553 18.1458 306.553 17.716C306.553 16.6417 305.988 16.1046 304.858 16.1046H304.003V14.6052H304.97C305.381 14.6052 305.722 14.4698 305.993 14.1989C306.245 13.956 306.371 13.643 306.371 13.26C306.371 12.8677 306.245 12.5594 305.993 12.3352C305.778 12.1577 305.516 12.0689 305.208 12.0689C304.517 12.0689 304.101 12.3912 303.961 13.0358H301.831C301.962 12.2044 302.373 11.5598 303.064 11.1021C303.681 10.7004 304.438 10.4995 305.334 10.4995C306.334 10.4995 307.133 10.7377 307.73 11.2142C308.3 11.6626 308.585 12.2838 308.585 13.0778C308.585 13.6477 308.366 14.1475 307.927 14.5772C307.544 14.9415 307.086 15.1657 306.553 15.2498C307.226 15.3245 307.782 15.6188 308.221 16.1326C308.613 16.5904 308.809 17.1042 308.809 17.674C308.809 18.6549 308.436 19.4303 307.688 20.0001C307.035 20.4859 306.198 20.7288 305.18 20.7288C304.097 20.7288 303.223 20.4345 302.56 19.846C301.99 19.3509 301.672 18.739 301.607 18.0103H303.779C303.835 18.3653 303.98 18.6456 304.213 18.8511C304.456 19.0473 304.769 19.1453 305.152 19.1453Z" fill="white" fill-opacity="0.95"/>
<rect x="453.411" width="32.029" height="32.029" rx="16" fill="#DA0087"/>
<path d="M469.615 10.7097H471.815V17.0575H472.922V18.6689H471.815V20.5186H469.741V18.6689H465.496V16.8192L469.615 10.7097ZM467.527 17.0575H469.741V13.6384L467.527 17.0575Z" fill="white" fill-opacity="0.95"/>
<path d="M38.3472 46.6047C38.2733 46.6048 38.2001 46.5902 38.1317 46.5619C38.0634 46.5337 38.0013 46.4922 37.949 46.4399C37.8967 46.3876 37.8553 46.3255 37.827 46.2572C37.7987 46.1889 37.7842 46.1157 37.7842 46.0417C37.7842 47.3779 37.388 48.6842 36.6456 49.7952C35.9032 50.9062 34.8481 51.7722 33.6136 52.2835C32.379 52.7949 31.0206 52.9287 29.7101 52.668C28.3995 52.4073 27.1957 51.7639 26.2508 50.819C25.306 49.8741 24.6625 48.6703 24.4018 47.3598C24.1411 46.0492 24.2749 44.6908 24.7863 43.4562C25.2976 42.2217 26.1636 41.1666 27.2746 40.4242C28.3856 39.6818 29.6919 39.2856 31.0281 39.2856C30.8788 39.2856 30.7356 39.2263 30.63 39.1207C30.5244 39.0151 30.4651 38.8719 30.4651 38.7226C30.4651 38.5733 30.5244 38.4301 30.63 38.3245C30.7356 38.2189 30.8788 38.1596 31.0281 38.1596C29.4692 38.1596 27.9452 38.6218 26.649 39.4879C25.3528 40.354 24.3425 41.5851 23.746 43.0253C23.1494 44.4656 22.9933 46.0504 23.2974 47.5794C23.6016 49.1084 24.3523 50.5129 25.4546 51.6152C26.5569 52.7176 27.9614 53.4683 29.4904 53.7724C31.0194 54.0765 32.6042 53.9204 34.0445 53.3239C35.4847 52.7273 36.7158 51.717 37.5819 50.4208C38.448 49.1246 38.9102 47.6006 38.9102 46.0417C38.9103 46.1157 38.8958 46.1889 38.8675 46.2572C38.8392 46.3255 38.7977 46.3876 38.7454 46.4399C38.6932 46.4922 38.6311 46.5337 38.5627 46.5619C38.4944 46.5902 38.4212 46.6048 38.3472 46.6047Z" fill="#3B3B3B"/>
<path d="M30.4651 38.7226C30.4651 38.7965 30.4796 38.8698 30.5079 38.9381C30.5361 39.0064 30.5776 39.0685 30.6299 39.1208C30.6822 39.1731 30.7443 39.2145 30.8126 39.2428C30.8809 39.2711 30.9542 39.2856 31.0281 39.2856C32.8193 39.2875 34.5366 40 35.8032 41.2666C37.0698 42.5332 37.7823 44.2505 37.7842 46.0417C37.7842 46.191 37.8435 46.3342 37.9491 46.4398C38.0547 46.5454 38.1979 46.6047 38.3472 46.6047C38.4966 46.6047 38.6398 46.5454 38.7453 46.4398C38.8509 46.3342 38.9102 46.191 38.9102 46.0417C38.9079 43.952 38.0767 41.9485 36.599 40.4708C35.1213 38.9931 33.1179 38.1619 31.0281 38.1596C30.9542 38.1595 30.8809 38.1741 30.8126 38.2023C30.7443 38.2306 30.6822 38.2721 30.6299 38.3244C30.5776 38.3767 30.5361 38.4387 30.5079 38.5071C30.4796 38.5754 30.4651 38.6486 30.4651 38.7226Z" fill="#3492EB"/>
<path d="M189.797 47.1677C189.649 47.1678 189.503 47.1387 189.366 47.0822C189.229 47.0256 189.105 46.9427 189.001 46.8381C188.896 46.7335 188.813 46.6094 188.756 46.4727C188.7 46.3361 188.671 46.1896 188.671 46.0417C188.671 48.7142 187.878 51.3266 186.394 53.5487C184.909 55.7708 182.799 57.5027 180.33 58.5254C177.861 59.5481 175.144 59.8157 172.523 59.2943C169.901 58.7729 167.494 57.486 165.604 55.5963C163.714 53.7066 162.427 51.2989 161.906 48.6778C161.385 46.0567 161.652 43.3398 162.675 40.8708C163.698 38.4018 165.43 36.2914 167.652 34.8067C169.874 33.3219 172.486 32.5295 175.159 32.5295C174.86 32.5295 174.574 32.4108 174.362 32.1997C174.151 31.9885 174.033 31.7021 174.033 31.4034C174.033 31.1048 174.151 30.8184 174.362 30.6072C174.574 30.3961 174.86 30.2774 175.159 30.2774C172.041 30.2774 168.993 31.202 166.401 32.9342C163.808 34.6664 161.788 37.1284 160.594 40.009C159.401 42.8895 159.089 46.0592 159.697 49.1172C160.306 52.1751 161.807 54.9841 164.012 57.1887C166.216 59.3934 169.025 60.8948 172.083 61.5031C175.141 62.1113 178.311 61.7992 181.191 60.606C184.072 59.4128 186.534 57.3923 188.266 54.7999C189.998 52.2074 190.923 49.1596 190.923 46.0417C190.923 46.1896 190.894 46.3361 190.837 46.4727C190.781 46.6094 190.698 46.7335 190.593 46.8381C190.489 46.9427 190.365 47.0256 190.228 47.0822C190.091 47.1387 189.945 47.1678 189.797 47.1677Z" fill="#3B3B3B"/>
<path d="M174.033 31.4034C174.033 31.5513 174.062 31.6978 174.118 31.8345C174.175 31.9711 174.258 32.0953 174.362 32.1999C174.467 32.3044 174.591 32.3874 174.728 32.4439C174.864 32.5005 175.011 32.5296 175.159 32.5295C178.741 32.5334 182.176 33.9582 184.709 36.4914C187.242 39.0246 188.667 42.4592 188.671 46.0417C188.671 46.3403 188.79 46.6268 189.001 46.8379C189.212 47.0491 189.498 47.1677 189.797 47.1677C190.096 47.1677 190.382 47.0491 190.593 46.8379C190.804 46.6268 190.923 46.3403 190.923 46.0417C190.918 41.8622 189.256 37.8552 186.301 34.8999C183.345 31.9445 179.338 30.2821 175.159 30.2774C175.011 30.2773 174.864 30.3064 174.728 30.363C174.591 30.4195 174.467 30.5025 174.362 30.607C174.258 30.7116 174.175 30.8358 174.118 30.9724C174.062 31.1091 174.033 31.2556 174.033 31.4034Z" fill="#3492EB"/>
<path d="M189.797 44.9206C189.649 44.9205 189.503 44.9496 189.366 45.0061C189.229 45.0627 189.105 45.1456 189.001 45.2502C188.896 45.3548 188.813 45.4789 188.756 45.6156C188.7 45.7522 188.671 45.8987 188.671 46.0466C188.667 49.6291 187.242 53.0637 184.709 55.5969C182.176 58.1301 178.741 59.5549 175.159 59.5588C174.86 59.5588 174.574 59.6775 174.362 59.8886C174.151 60.0998 174.033 60.3862 174.033 60.6848C174.033 60.9835 174.151 61.2699 174.362 61.4811C174.574 61.6922 174.86 61.8109 175.159 61.8109C179.338 61.8062 183.345 60.1438 186.301 57.1884C189.256 54.2331 190.918 50.2261 190.923 46.0466C190.923 45.8987 190.894 45.7522 190.837 45.6156C190.781 45.4789 190.698 45.3548 190.593 45.2502C190.489 45.1456 190.365 45.0627 190.228 45.0061C190.091 44.9496 189.945 44.9205 189.797 44.9206Z" fill="#3492EB"/>
<path d="M160.53 44.9206C160.678 44.9205 160.825 44.9496 160.961 45.0061C161.098 45.0627 161.222 45.1456 161.327 45.2502C161.431 45.3548 161.514 45.4789 161.571 45.6156C161.627 45.7522 161.657 45.8987 161.656 46.0466C161.66 49.6291 163.085 53.0637 165.618 55.5969C168.152 58.1301 171.586 59.5549 175.169 59.5588C175.467 59.5588 175.754 59.6775 175.965 59.8886C176.176 60.0998 176.295 60.3862 176.295 60.6848C176.295 60.9835 176.176 61.2699 175.965 61.4811C175.754 61.6922 175.467 61.8109 175.169 61.8109C170.989 61.8062 166.982 60.1438 164.027 57.1884C161.071 54.2331 159.409 50.2261 159.404 46.0466C159.404 45.8987 159.433 45.7522 159.49 45.6156C159.546 45.4789 159.629 45.3548 159.734 45.2502C159.839 45.1456 159.963 45.0627 160.099 45.0061C160.236 44.9496 160.383 44.9205 160.53 44.9206Z" fill="#3492EB"/>
<path d="M353.43 47.59C353.226 47.5901 353.025 47.5501 352.837 47.4724C352.649 47.3946 352.478 47.2806 352.335 47.1368C352.191 46.993 352.077 46.8222 351.999 46.6343C351.921 46.4464 351.881 46.2451 351.881 46.0417C351.881 49.7163 350.792 53.3085 348.75 56.3638C346.709 59.4192 343.807 61.8005 340.412 63.2068C337.017 64.613 333.282 64.9809 329.678 64.264C326.073 63.5471 322.763 61.7776 320.165 59.1793C317.566 56.5809 315.797 53.2704 315.08 49.6664C314.363 46.0623 314.731 42.3266 316.137 38.9317C317.543 35.5368 319.925 32.6351 322.98 30.5936C326.035 28.552 329.628 27.4624 333.302 27.4624C332.892 27.4624 332.498 27.2993 332.207 27.0089C331.917 26.7185 331.754 26.3247 331.754 25.9141C331.754 25.5035 331.917 25.1097 332.207 24.8193C332.498 24.5289 332.892 24.3658 333.302 24.3658C329.015 24.3658 324.824 25.6371 321.26 28.0189C317.695 30.4006 314.917 33.786 313.276 37.7467C311.636 41.7075 311.206 46.0657 312.043 50.2705C312.879 54.4752 314.944 58.3374 317.975 61.3689C321.006 64.4003 324.869 66.4647 329.073 67.3011C333.278 68.1375 337.636 67.7082 341.597 66.0676C345.558 64.427 348.943 61.6488 351.325 58.0842C353.707 54.5196 354.978 50.3288 354.978 46.0417C354.978 46.2451 354.938 46.4464 354.86 46.6343C354.783 46.8222 354.669 46.993 354.525 47.1368C354.381 47.2806 354.21 47.3946 354.022 47.4724C353.835 47.5501 353.633 47.5901 353.43 47.59Z" fill="#3B3B3B"/>
<path d="M331.754 25.9141C331.754 26.1175 331.794 26.3188 331.871 26.5067C331.949 26.6946 332.063 26.8654 332.207 27.0092C332.351 27.153 332.522 27.267 332.71 27.3448C332.897 27.4225 333.099 27.4625 333.302 27.4624C338.228 27.4678 342.951 29.4269 346.434 32.9101C349.917 36.3932 351.876 41.1158 351.881 46.0417C351.881 46.4523 352.045 46.8461 352.335 47.1365C352.625 47.4269 353.019 47.59 353.43 47.59C353.84 47.59 354.234 47.4269 354.525 47.1365C354.815 46.8461 354.978 46.4523 354.978 46.0417C354.972 40.2949 352.686 34.7853 348.622 30.7217C344.559 26.658 339.049 24.3723 333.302 24.3658C333.099 24.3657 332.897 24.4057 332.71 24.4834C332.522 24.5612 332.351 24.6752 332.207 24.819C332.063 24.9628 331.949 25.1336 331.871 25.3215C331.794 25.5094 331.754 25.7107 331.754 25.9141Z" fill="#3492EB"/>
<path d="M544.4 48.5752C544.067 48.5754 543.737 48.51 543.43 48.3828C543.122 48.2555 542.843 48.0689 542.608 47.8336C542.372 47.5983 542.186 47.319 542.059 47.0115C541.931 46.704 541.866 46.3745 541.866 46.0417C541.866 52.0548 540.083 57.9328 536.742 62.9325C533.402 67.9321 528.653 71.8289 523.098 74.13C517.543 76.4311 511.43 77.0332 505.532 75.8601C499.635 74.687 494.218 71.7914 489.966 67.5395C485.714 63.2877 482.818 57.8705 481.645 51.9729C480.472 46.0754 481.074 39.9625 483.375 34.4072C485.676 28.8518 489.573 24.1036 494.573 20.7629C499.572 17.4222 505.45 15.6392 511.464 15.6392C510.792 15.6392 510.147 15.3722 509.672 14.8971C509.197 14.422 508.93 13.7776 508.93 13.1056C508.93 12.4337 509.197 11.7893 509.672 11.3141C510.147 10.839 510.792 10.5721 511.464 10.5721C504.448 10.5721 497.591 12.6523 491.758 16.5498C485.925 20.4472 481.378 25.9868 478.694 32.4681C476.009 38.9493 475.307 46.0811 476.675 52.9615C478.044 59.8419 481.422 66.162 486.383 71.1225C491.343 76.083 497.663 79.4612 504.544 80.8298C511.424 82.1984 518.556 81.496 525.037 78.8114C531.518 76.1268 537.058 71.5805 540.955 65.7476C544.853 59.9146 546.933 53.0569 546.933 46.0417C546.933 46.3745 546.868 46.704 546.741 47.0115C546.613 47.319 546.427 47.5983 546.192 47.8336C545.956 48.0689 545.677 48.2555 545.369 48.3828C545.062 48.51 544.732 48.5754 544.4 48.5752Z" fill="#3B3B3B"/>
<path d="M508.93 13.1056C508.93 13.4384 508.995 13.7679 509.122 14.0754C509.25 14.3829 509.436 14.6622 509.672 14.8975C509.907 15.1328 510.186 15.3195 510.494 15.4467C510.801 15.574 511.131 15.6394 511.464 15.6392C519.524 15.648 527.252 18.8539 532.952 24.5536C538.651 30.2533 541.857 37.9812 541.866 46.0417C541.866 46.7136 542.133 47.3581 542.608 47.8332C543.083 48.3083 543.728 48.5752 544.4 48.5752C545.072 48.5752 545.716 48.3083 546.191 47.8332C546.666 47.3581 546.933 46.7136 546.933 46.0417C546.923 36.6378 543.182 27.6221 536.533 20.9725C529.883 14.323 520.867 10.5826 511.464 10.5721C511.131 10.5719 510.801 10.6373 510.494 10.7645C510.186 10.8918 509.907 11.0784 509.672 11.3137C509.436 11.549 509.25 11.8284 509.122 12.1358C508.995 12.4433 508.93 12.7729 508.93 13.1056Z" fill="#3492EB"/>
<path d="M544.399 43.5194C544.067 43.5192 543.737 43.5846 543.43 43.7119C543.122 43.8391 542.843 44.0257 542.607 44.261C542.372 44.4963 542.186 44.7757 542.058 45.0832C541.931 45.3906 541.866 45.7202 541.866 46.0529C541.857 54.1135 538.651 61.8414 532.951 67.5411C527.252 73.2407 519.524 76.4467 511.463 76.4555C510.791 76.4555 510.147 76.7224 509.672 77.1975C509.197 77.6727 508.93 78.3171 508.93 78.989C508.93 79.661 509.197 80.3054 509.672 80.7805C510.147 81.2556 510.791 81.5226 511.463 81.5226C520.867 81.512 529.883 77.7717 536.532 71.1221C543.182 64.4725 546.922 55.4568 546.933 46.0529C546.933 45.7202 546.868 45.3906 546.74 45.0832C546.613 44.7757 546.427 44.4963 546.191 44.261C545.956 44.0257 545.677 43.8391 545.369 43.7119C545.062 43.5846 544.732 43.5192 544.399 43.5194Z" fill="#3492EB"/>
<path d="M478.55 43.5194C478.882 43.5192 479.212 43.5846 479.519 43.7119C479.827 43.8391 480.106 44.0257 480.342 44.261C480.577 44.4963 480.764 44.7757 480.891 45.0832C481.018 45.3906 481.083 45.7202 481.083 46.0529C481.092 54.1135 484.298 61.8414 489.998 67.5411C495.697 73.2407 503.425 76.4467 511.486 76.4555C512.158 76.4555 512.802 76.7224 513.277 77.1975C513.752 77.6727 514.019 78.3171 514.019 78.989C514.019 79.661 513.752 80.3054 513.277 80.7805C512.802 81.2556 512.158 81.5226 511.486 81.5226C502.082 81.512 493.066 77.7717 486.417 71.1221C479.767 64.4725 476.027 55.4568 476.016 46.0529C476.016 45.7202 476.081 45.3906 476.209 45.0832C476.336 44.7757 476.522 44.4963 476.758 44.261C476.993 44.0257 477.272 43.8391 477.58 43.7119C477.887 43.5846 478.217 43.5192 478.55 43.5194Z" fill="#3492EB"/>
</svg>
