<svg width="630" height="371" viewBox="0 0 630 371" fill="none" xmlns="http://www.w3.org/2000/svg">
<path d="M0 24C0 10.7452 10.7452 0 24 0H606C619.255 0 630 10.7452 630 24V347C630 360.255 619.255 371 606 371H24C10.7452 371 0 360.255 0 347V24Z" fill="#262626"/>
<path d="M590 25.9997C587.232 25.9997 584.525 26.8208 582.223 28.3591C579.92 29.8975 578.126 32.084 577.066 34.6421C576.007 37.2003 575.729 40.0152 576.27 42.731C576.81 45.4467 578.143 47.9413 580.101 49.8992C582.059 51.8571 584.553 53.1905 587.269 53.7307C589.985 54.2709 592.8 53.9936 595.358 52.934C597.916 51.8744 600.103 50.08 601.641 47.7777C603.179 45.4754 604 42.7686 604 39.9997C603.996 36.2879 602.52 32.7294 599.895 30.1048C597.271 27.4802 593.712 26.0039 590 25.9997ZM599.155 47.7404L582.26 30.8449C584.555 28.8985 587.498 27.8864 590.505 28.0097C593.511 28.1331 596.362 29.3828 598.49 31.5106C600.617 33.6385 601.867 36.4889 601.99 39.4956C602.114 42.5023 601.102 45.4454 599.155 47.7404ZM580.846 32.259L597.741 49.1545C595.446 51.1009 592.503 52.1129 589.496 51.9896C586.49 51.8662 583.639 50.6165 581.512 48.4887C579.384 46.3608 578.134 43.5105 578.011 40.5038C577.887 37.4971 578.899 34.554 580.846 32.259Z" fill="#F55868"/>
<mask id="mask0_917_32706" style="mask-type:alpha" maskUnits="userSpaceOnUse" x="253" y="112" width="124" height="124">
<path fill-rule="evenodd" clip-rule="evenodd" d="M340.488 230.535C332.713 234.046 324.085 236 315 236C280.758 236 253 208.242 253 174C253 139.758 280.758 112 315 112C349.242 112 377 139.758 377 174C377 183.085 375.046 191.713 371.535 199.488C367.503 194.898 361.59 192 355 192C342.85 192 333 201.85 333 214C333 220.59 335.898 226.503 340.488 230.535Z" fill="#262626"/>
</mask>
<g mask="url(#mask0_917_32706)">
<rect width="124" height="124" transform="translate(253 112)" fill="#545454"/>
<path d="M288.722 159.44C290.019 159.45 291.297 159.687 292.557 160.151C293.816 160.615 294.953 161.377 295.966 162.438C296.989 163.489 297.803 164.909 298.409 166.699C299.025 168.489 299.337 170.723 299.347 173.403C299.337 175.951 299.077 178.219 298.565 180.207C298.063 182.187 297.334 183.858 296.378 185.222C295.421 186.585 294.266 187.622 292.912 188.332C291.567 189.043 290.047 189.398 288.352 189.398C286.619 189.398 285.08 189.057 283.736 188.375C282.391 187.693 281.297 186.751 280.455 185.548C279.612 184.336 279.086 182.944 278.878 181.372H283.21C283.494 182.622 284.072 183.635 284.943 184.412C285.824 185.179 286.96 185.562 288.352 185.562C290.483 185.562 292.145 184.634 293.338 182.778C294.531 180.913 295.133 178.309 295.142 174.966H294.915C294.422 175.78 293.807 176.481 293.068 177.068C292.339 177.655 291.52 178.11 290.611 178.432C289.702 178.754 288.731 178.915 287.699 178.915C286.023 178.915 284.493 178.503 283.111 177.679C281.738 176.855 280.644 175.723 279.83 174.284C279.025 172.845 278.622 171.197 278.622 169.341C278.622 167.485 279.039 165.809 279.872 164.312C280.715 162.807 281.889 161.618 283.395 160.747C284.91 159.866 286.686 159.431 288.722 159.44ZM288.736 163.134C287.628 163.134 286.629 163.408 285.739 163.957C284.858 164.507 284.162 165.245 283.651 166.173C283.139 167.101 282.884 168.138 282.884 169.284C282.884 170.411 283.13 171.434 283.622 172.352C284.124 173.271 284.806 174 285.668 174.54C286.539 175.07 287.533 175.335 288.651 175.335C289.484 175.335 290.26 175.174 290.98 174.852C291.7 174.53 292.325 174.085 292.855 173.517C293.395 172.939 293.816 172.286 294.119 171.557C294.432 170.818 294.588 170.046 294.588 169.241C294.588 168.152 294.332 167.144 293.821 166.216C293.319 165.288 292.628 164.545 291.747 163.986C290.866 163.418 289.863 163.134 288.736 163.134ZM314.151 159.44C315.449 159.45 316.727 159.687 317.987 160.151C319.246 160.615 320.382 161.377 321.396 162.438C322.418 163.489 323.233 164.909 323.839 166.699C324.454 168.489 324.767 170.723 324.776 173.403C324.767 175.951 324.506 178.219 323.995 180.207C323.493 182.187 322.764 183.858 321.808 185.222C320.851 186.585 319.696 187.622 318.342 188.332C316.997 189.043 315.477 189.398 313.782 189.398C312.049 189.398 310.51 189.057 309.165 188.375C307.821 187.693 306.727 186.751 305.884 185.548C305.041 184.336 304.516 182.944 304.308 181.372H308.64C308.924 182.622 309.502 183.635 310.373 184.412C311.254 185.179 312.39 185.562 313.782 185.562C315.913 185.562 317.575 184.634 318.768 182.778C319.961 180.913 320.562 178.309 320.572 174.966H320.344C319.852 175.78 319.237 176.481 318.498 177.068C317.769 177.655 316.95 178.11 316.04 178.432C315.131 178.754 314.161 178.915 313.129 178.915C311.452 178.915 309.923 178.503 308.54 177.679C307.167 176.855 306.074 175.723 305.259 174.284C304.454 172.845 304.052 171.197 304.052 169.341C304.052 167.485 304.469 165.809 305.302 164.312C306.145 162.807 307.319 161.618 308.825 160.747C310.34 159.866 312.115 159.431 314.151 159.44ZM314.165 163.134C313.058 163.134 312.058 163.408 311.168 163.957C310.288 164.507 309.592 165.245 309.08 166.173C308.569 167.101 308.313 168.138 308.313 169.284C308.313 170.411 308.559 171.434 309.052 172.352C309.554 173.271 310.236 174 311.097 174.54C311.969 175.07 312.963 175.335 314.08 175.335C314.914 175.335 315.69 175.174 316.41 174.852C317.129 174.53 317.754 174.085 318.285 173.517C318.825 172.939 319.246 172.286 319.549 171.557C319.862 170.818 320.018 170.046 320.018 169.241C320.018 168.152 319.762 167.144 319.251 166.216C318.749 165.288 318.058 164.545 317.177 163.986C316.296 163.418 315.292 163.134 314.165 163.134ZM338.516 184.114V164.909H342.337V184.114H338.516ZM330.831 176.415V172.594H350.036V176.415H330.831Z" fill="white" fill-opacity="0.95"/>
</g>
<path d="M355 198.812C351.996 198.812 349.06 199.703 346.562 201.372C344.065 203.041 342.118 205.413 340.969 208.188C339.819 210.963 339.518 214.017 340.104 216.963C340.69 219.909 342.137 222.615 344.261 224.739C346.385 226.863 349.091 228.31 352.037 228.896C354.983 229.482 358.037 229.181 360.812 228.031C363.587 226.882 365.959 224.935 367.628 222.438C369.297 219.94 370.188 217.004 370.188 214C370.183 209.973 368.581 206.113 365.734 203.266C362.887 200.419 359.027 198.817 355 198.812Z" fill="#27A17A"/>
<path d="M0 348H630C630 360.703 619.703 371 607 371H23C10.2975 371 0 360.703 0 348Z" fill="#F55868"/>
</svg>
