<svg width="14" height="15" viewBox="0 0 14 15" fill="none" xmlns="http://www.w3.org/2000/svg">
<path d="M11.375 12.3123H2.625C2.50897 12.3123 2.39769 12.3584 2.31564 12.4405C2.23359 12.5225 2.1875 12.6338 2.1875 12.7498C2.1875 12.8658 2.23359 12.9771 2.31564 13.0592C2.39769 13.1412 2.50897 13.1873 2.625 13.1873H11.375C11.491 13.1873 11.6023 13.1412 11.6844 13.0592C11.7664 12.9771 11.8125 12.8658 11.8125 12.7498C11.8125 12.6338 11.7664 12.5225 11.6844 12.4405C11.6023 12.3584 11.491 12.3123 11.375 12.3123Z" fill="white" fill-opacity="0.95"/>
<path d="M3.06359 11.4358L4.63199 11.4373C4.86379 11.4367 5.08598 11.3446 5.25022 11.181L11.2352 5.19599C11.6073 4.82385 11.8164 4.31913 11.8164 3.79285C11.8164 3.26658 11.6073 2.76187 11.2352 2.38975C10.863 2.01763 10.3583 1.80858 9.83202 1.80859C9.30575 1.80861 8.80104 2.01768 8.42892 2.38982L2.44366 8.37504C2.36222 8.45625 2.29768 8.55279 2.25376 8.65908C2.20983 8.76537 2.18738 8.87931 2.18772 8.99432L2.18942 10.5613C2.18982 10.793 2.28203 11.0152 2.44587 11.1791C2.60972 11.343 2.83183 11.4353 3.06359 11.4358ZM9.0475 3.0084C9.25555 2.80035 9.53773 2.68346 9.83196 2.68346C9.97765 2.68346 10.1219 2.71216 10.2565 2.76791C10.3911 2.82366 10.5134 2.90538 10.6164 3.0084C10.7194 3.11141 10.8012 3.23371 10.8569 3.36831C10.9127 3.50291 10.9414 3.64717 10.9414 3.79286C10.9414 3.93854 10.9127 4.08281 10.8569 4.2174C10.8012 4.352 10.7194 4.4743 10.6164 4.57732L10.2795 4.91419C9.46593 4.83537 8.69516 4.51237 8.06842 3.98761L9.0475 3.0084ZM7.44813 4.60794C8.04493 5.12183 8.75492 5.48711 9.52 5.67391L4.63159 10.5623L3.06442 10.561L3.06272 8.99349L7.44813 4.60794Z" fill="white" fill-opacity="0.95"/>
</svg>
