<svg width="211" height="33" viewBox="0 0 211 33" fill="none" xmlns="http://www.w3.org/2000/svg">
<rect width="211" height="32.627" rx="16.2774" fill="white" fill-opacity="0.95"/>
<path d="M16.4077 14.9324V16.1983H12.4011V19.0173H16.7862V20.3224H10.7306V10.9258H16.7862V12.2439H12.4011V14.9324H16.4077ZM24.0182 13.536L21.7605 16.7073L24.3967 20.3224H22.5044L20.86 17.908L19.2156 20.3224H17.4667L19.9986 16.7726L17.6103 13.536H19.4635L20.9122 15.611L22.3086 13.536H24.0182ZM25.3347 13.536H26.5746L26.8486 14.3712C27.3968 13.6839 28.1407 13.3402 29.0803 13.3402C30.0548 13.3402 30.8117 13.6839 31.3512 14.3712C31.8384 14.9977 32.082 15.8242 32.082 16.8509C32.082 18.0776 31.747 19.0217 31.0771 19.6829C30.5203 20.2397 29.8112 20.5181 28.9498 20.5181C28.0798 20.5181 27.3968 20.2006 26.9008 19.5654V22.6715H25.3347V13.536ZM30.4768 16.8639C30.4768 16.0548 30.2854 15.4501 29.9025 15.0499C29.598 14.7366 29.1934 14.58 28.6888 14.58C28.1059 14.58 27.6447 14.7932 27.3054 15.2195C26.9922 15.6284 26.8356 16.1722 26.8356 16.8509C26.8356 17.7035 27.027 18.3387 27.4098 18.7563C27.7317 19.1043 28.1494 19.2783 28.6627 19.2783C29.263 19.2783 29.7198 19.0565 30.033 18.6127C30.3289 18.1951 30.4768 17.6122 30.4768 16.8639ZM34.9811 10.9258V20.3224H33.415V10.9258H34.9811ZM36.3129 16.9161C36.3129 15.6807 36.6783 14.7453 37.4092 14.1102C38.0095 13.5969 38.7926 13.3402 39.7583 13.3402C40.8807 13.3402 41.7464 13.6795 42.3554 14.3582C42.921 14.9759 43.2037 15.8286 43.2037 16.9161C43.2037 18.1516 42.847 19.0869 42.1336 19.7221C41.5332 20.2528 40.7415 20.5181 39.7583 20.5181C38.6447 20.5181 37.779 20.1701 37.1612 19.4741C36.5957 18.8389 36.3129 17.9863 36.3129 16.9161ZM39.7714 19.3566C40.3891 19.3566 40.8503 19.1304 41.1548 18.678C41.4419 18.2691 41.5854 17.6818 41.5854 16.9161C41.5854 16.0461 41.394 15.4066 41.0112 14.9977C40.7067 14.667 40.2891 14.5017 39.7583 14.5017C39.1493 14.5017 38.6882 14.7236 38.3749 15.1673C38.0791 15.5762 37.9312 16.1592 37.9312 16.9161C37.9312 17.7775 38.1226 18.417 38.5055 18.8346C38.8274 19.1826 39.2494 19.3566 39.7714 19.3566ZM48.5091 13.4316V14.9455C48.222 14.8585 47.9479 14.8149 47.6869 14.8149C47.1997 14.8149 46.8081 15.0281 46.5123 15.4544C46.2339 15.8634 46.0947 16.4289 46.0947 17.151V20.3224H44.5286V13.536H45.8206L46.0164 14.5539C46.3992 13.7448 46.9778 13.3402 47.7522 13.3402C48.0306 13.3402 48.2829 13.3707 48.5091 13.4316ZM53.8639 18.3648H55.5083C55.3256 19.0608 54.9471 19.6002 54.3729 19.9831C53.8248 20.3398 53.1505 20.5181 52.35 20.5181C51.245 20.5181 50.3837 20.1701 49.766 19.4741C49.2004 18.8389 48.9177 17.9906 48.9177 16.9292C48.9177 15.7111 49.27 14.7801 49.9748 14.1363C50.5664 13.6056 51.3364 13.3402 52.2848 13.3402C53.3897 13.3402 54.225 13.7013 54.7905 14.4234C55.3213 15.0934 55.5866 16.0504 55.5866 17.2946H50.5099C50.5708 18.0254 50.797 18.5605 51.1885 18.8998C51.5017 19.1783 51.9106 19.3175 52.4153 19.3175C52.772 19.3175 53.0809 19.2305 53.3419 19.0565C53.6029 18.8824 53.7769 18.6519 53.8639 18.3648ZM53.9814 16.2244C53.9466 15.5893 53.7552 15.1238 53.4071 14.828C53.12 14.5757 52.7459 14.4495 52.2848 14.4495C51.7801 14.4495 51.3756 14.6148 51.071 14.9455C50.7926 15.2413 50.6143 15.6676 50.536 16.2244H53.9814ZM66.3283 20.3224H64.8667L62.2173 13.3272V20.3224H60.7034V10.9258H62.8177L65.6367 18.5605L68.3121 10.9258H70.3871V20.3224H68.8472V13.3533L66.3283 20.3224ZM71.7821 16.9161C71.7821 15.6807 72.1475 14.7453 72.8783 14.1102C73.4787 13.5969 74.2617 13.3402 75.2275 13.3402C76.3498 13.3402 77.2155 13.6795 77.8246 14.3582C78.3901 14.9759 78.6729 15.8286 78.6729 16.9161C78.6729 18.1516 78.3162 19.0869 77.6027 19.7221C77.0024 20.2528 76.2106 20.5181 75.2275 20.5181C74.1138 20.5181 73.2481 20.1701 72.6304 19.4741C72.0648 18.8389 71.7821 17.9863 71.7821 16.9161ZM75.2405 19.3566C75.8583 19.3566 76.3194 19.1304 76.6239 18.678C76.911 18.2691 77.0546 17.6818 77.0546 16.9161C77.0546 16.0461 76.8632 15.4066 76.4803 14.9977C76.1758 14.667 75.7582 14.5017 75.2275 14.5017C74.6184 14.5017 74.1573 14.7236 73.8441 15.1673C73.5483 15.5762 73.4003 16.1592 73.4003 16.9161C73.4003 17.7775 73.5918 18.417 73.9746 18.8346C74.2965 19.1826 74.7185 19.3566 75.2405 19.3566ZM81.5638 20.3224H79.9977V13.536H81.1854L81.4072 14.306C81.8858 13.6621 82.56 13.3402 83.4301 13.3402C84.3785 13.3402 85.0527 13.6795 85.453 14.3582C85.9402 13.6795 86.6797 13.3402 87.6716 13.3402C88.4547 13.3402 89.055 13.5708 89.4726 14.0319C89.8554 14.4582 90.0469 15.0586 90.0469 15.8329V20.3224H88.4808V15.8721C88.4808 14.9933 88.0718 14.5539 87.254 14.5539C86.7842 14.5539 86.41 14.7366 86.1316 15.1021C85.9141 15.4066 85.8053 15.7677 85.8053 16.1853V20.3224H84.2392V15.8721C84.2392 14.9933 83.8303 14.5539 83.0125 14.5539C82.5687 14.5539 82.2077 14.7279 81.9293 15.076C81.6856 15.3718 81.5638 15.7198 81.5638 16.12V20.3224ZM96.2535 18.3648H97.8979C97.7152 19.0608 97.3368 19.6002 96.7625 19.9831C96.2144 20.3398 95.5401 20.5181 94.7396 20.5181C93.6347 20.5181 92.7733 20.1701 92.1556 19.4741C91.59 18.8389 91.3073 17.9906 91.3073 16.9292C91.3073 15.7111 91.6597 14.7801 92.3644 14.1363C92.956 13.6056 93.726 13.3402 94.6744 13.3402C95.7794 13.3402 96.6146 13.7013 97.1801 14.4234C97.7109 15.0934 97.9762 16.0504 97.9762 17.2946H92.8995C92.9604 18.0254 93.1866 18.5605 93.5781 18.8998C93.8913 19.1783 94.3003 19.3175 94.8049 19.3175C95.1616 19.3175 95.4705 19.2305 95.7315 19.0565C95.9925 18.8824 96.1665 18.6519 96.2535 18.3648ZM96.371 16.2244C96.3362 15.5893 96.1448 15.1238 95.7968 14.828C95.5096 14.5757 95.1355 14.4495 94.6744 14.4495C94.1698 14.4495 93.7652 14.6148 93.4607 14.9455C93.1822 15.2413 93.0039 15.6676 92.9256 16.2244H96.371ZM100.885 20.3224H99.319V13.536H100.611L100.781 14.3451C101.277 13.6752 101.964 13.3402 102.843 13.3402C103.661 13.3402 104.287 13.5925 104.722 14.0972C105.105 14.5409 105.296 15.1456 105.296 15.9112V20.3224H103.73V15.9504C103.73 15.0194 103.3 14.5539 102.438 14.5539C101.968 14.5539 101.586 14.7192 101.29 15.0499C101.02 15.3544 100.885 15.7372 100.885 16.1983V20.3224ZM110.269 19.1739V20.3615C109.904 20.4659 109.556 20.5181 109.225 20.5181C108.555 20.5181 108.046 20.318 107.698 19.9178C107.403 19.5785 107.255 19.1217 107.255 18.5475V14.7366H106.237V13.536H107.255L107.359 11.9046H108.821V13.536H110.256V14.7366H108.821V18.5997C108.821 19.0521 109.051 19.2783 109.512 19.2783C109.713 19.2783 109.965 19.2435 110.269 19.1739ZM111.272 13.536H112.838V17.9993C112.838 18.8694 113.265 19.3044 114.117 19.3044C114.613 19.3044 115 19.1261 115.279 18.7693C115.505 18.4648 115.618 18.0907 115.618 17.647V13.536H117.184V20.3224H115.892L115.723 19.5654C115.235 20.2006 114.557 20.5181 113.687 20.5181C112.886 20.5181 112.273 20.2745 111.846 19.7873C111.464 19.3436 111.272 18.7345 111.272 17.9602V13.536ZM120.423 20.3224H118.857V13.536H120.045L120.267 14.306C120.745 13.6621 121.419 13.3402 122.289 13.3402C123.238 13.3402 123.912 13.6795 124.312 14.3582C124.799 13.6795 125.539 13.3402 126.531 13.3402C127.314 13.3402 127.914 13.5708 128.332 14.0319C128.715 14.4582 128.906 15.0586 128.906 15.8329V20.3224H127.34V15.8721C127.34 14.9933 126.931 14.5539 126.113 14.5539C125.643 14.5539 125.269 14.7366 124.991 15.1021C124.773 15.4066 124.665 15.7677 124.665 16.1853V20.3224H123.099V15.8721C123.099 14.9933 122.69 14.5539 121.872 14.5539C121.428 14.5539 121.067 14.7279 120.789 15.076C120.545 15.3718 120.423 15.7198 120.423 16.12V20.3224ZM134.28 10.9258H137.464C140.022 10.9258 141.301 11.9568 141.301 14.0188C141.301 16.0461 140.022 17.0597 137.464 17.0597H135.95V20.3224H134.28V10.9258ZM135.95 15.8068H137.49C138.874 15.8068 139.565 15.2108 139.565 14.0188C139.565 13.375 139.365 12.8965 138.965 12.5833C138.608 12.3135 138.117 12.1787 137.49 12.1787H135.95V15.8068ZM144.192 20.3224H142.626V10.9258H144.192V14.2407C144.68 13.6404 145.337 13.3402 146.163 13.3402C146.981 13.3402 147.603 13.5925 148.029 14.0972C148.412 14.5409 148.604 15.1456 148.604 15.9112V20.3224H147.037V15.9504C147.037 15.0194 146.607 14.5539 145.745 14.5539C145.267 14.5539 144.884 14.7192 144.597 15.0499C144.327 15.3544 144.192 15.7416 144.192 16.2114V20.3224ZM151.854 12.505H150.131V10.9258H151.854V12.505ZM151.776 20.3224H150.21V13.536H151.776V20.3224ZM155.013 10.9258V20.3224H153.447V10.9258H155.013ZM156.345 16.9161C156.345 15.6807 156.71 14.7453 157.441 14.1102C158.041 13.5969 158.824 13.3402 159.79 13.3402C160.912 13.3402 161.778 13.6795 162.387 14.3582C162.953 14.9759 163.235 15.8286 163.235 16.9161C163.235 18.1516 162.879 19.0869 162.165 19.7221C161.565 20.2528 160.773 20.5181 159.79 20.5181C158.676 20.5181 157.811 20.1701 157.193 19.4741C156.627 18.8389 156.345 17.9863 156.345 16.9161ZM159.803 19.3566C160.421 19.3566 160.882 19.1304 161.186 18.678C161.474 18.2691 161.617 17.6818 161.617 16.9161C161.617 16.0461 161.426 15.4066 161.043 14.9977C160.738 14.667 160.321 14.5017 159.79 14.5017C159.181 14.5017 158.72 14.7236 158.407 15.1673C158.111 15.5762 157.963 16.1592 157.963 16.9161C157.963 17.7775 158.154 18.417 158.537 18.8346C158.859 19.1826 159.281 19.3566 159.803 19.3566ZM165.683 18.3909C165.804 19.0434 166.296 19.3697 167.157 19.3697C167.636 19.3697 167.997 19.2783 168.241 19.0956C168.441 18.939 168.541 18.7345 168.541 18.4822C168.541 18.1603 168.367 17.921 168.019 17.7644C167.819 17.6774 167.379 17.5556 166.701 17.399C165.865 17.2076 165.269 16.9466 164.913 16.616C164.556 16.294 164.378 15.8721 164.378 15.35C164.378 14.6888 164.647 14.1798 165.187 13.8231C165.665 13.5012 166.322 13.3402 167.157 13.3402C168.019 13.3402 168.71 13.5447 169.233 13.9536C169.685 14.3016 169.968 14.7714 170.081 15.3631H168.489C168.358 14.7801 167.906 14.4887 167.131 14.4887C166.348 14.4887 165.957 14.7279 165.957 15.2065C165.957 15.4501 166.057 15.6328 166.257 15.7546C166.457 15.8764 166.862 16.0113 167.471 16.1592C168.41 16.3767 169.063 16.6203 169.428 16.89C169.889 17.2293 170.12 17.7079 170.12 18.3256C170.12 19.0304 169.833 19.5828 169.259 19.9831C168.737 20.3398 168.032 20.5181 167.144 20.5181C166.213 20.5181 165.47 20.2963 164.913 19.8526C164.443 19.4784 164.169 18.9912 164.09 18.3909H165.683ZM171.116 16.9161C171.116 15.6807 171.481 14.7453 172.212 14.1102C172.813 13.5969 173.596 13.3402 174.561 13.3402C175.684 13.3402 176.55 13.6795 177.159 14.3582C177.724 14.9759 178.007 15.8286 178.007 16.9161C178.007 18.1516 177.65 19.0869 176.937 19.7221C176.336 20.2528 175.545 20.5181 174.561 20.5181C173.448 20.5181 172.582 20.1701 171.964 19.4741C171.399 18.8389 171.116 17.9863 171.116 16.9161ZM174.574 19.3566C175.192 19.3566 175.653 19.1304 175.958 18.678C176.245 18.2691 176.389 17.6818 176.389 16.9161C176.389 16.0461 176.197 15.4066 175.814 14.9977C175.51 14.667 175.092 14.5017 174.561 14.5017C173.952 14.5017 173.491 14.7236 173.178 15.1673C172.882 15.5762 172.734 16.1592 172.734 16.9161C172.734 17.7775 172.926 18.417 173.309 18.8346C173.63 19.1826 174.052 19.3566 174.574 19.3566ZM179.332 13.536H180.572L180.846 14.3712C181.394 13.6839 182.138 13.3402 183.077 13.3402C184.052 13.3402 184.809 13.6839 185.348 14.3712C185.835 14.9977 186.079 15.8242 186.079 16.8509C186.079 18.0776 185.744 19.0217 185.074 19.6829C184.517 20.2397 183.808 20.5181 182.947 20.5181C182.077 20.5181 181.394 20.2006 180.898 19.5654V22.6715H179.332V13.536ZM184.474 16.8639C184.474 16.0548 184.282 15.4501 183.899 15.0499C183.595 14.7366 183.19 14.58 182.686 14.58C182.103 14.58 181.642 14.7932 181.302 15.2195C180.989 15.6284 180.833 16.1722 180.833 16.8509C180.833 17.7035 181.024 18.3387 181.407 18.7563C181.729 19.1043 182.146 19.2783 182.66 19.2783C183.26 19.2783 183.717 19.0565 184.03 18.6127C184.326 18.1951 184.474 17.6122 184.474 16.8639ZM188.978 20.3224H187.412V10.9258H188.978V14.2407C189.465 13.6404 190.122 13.3402 190.949 13.3402C191.767 13.3402 192.389 13.5925 192.815 14.0972C193.198 14.5409 193.389 15.1456 193.389 15.9112V20.3224H191.823V15.9504C191.823 15.0194 191.392 14.5539 190.531 14.5539C190.053 14.5539 189.67 14.7192 189.383 15.0499C189.113 15.3544 188.978 15.7416 188.978 16.2114V20.3224ZM201.064 13.536L198.676 20.4398C198.362 21.3534 198.032 21.9842 197.684 22.3322C197.336 22.6889 196.883 22.8673 196.326 22.8673C196.048 22.8673 195.739 22.8238 195.4 22.7368V21.5622C195.67 21.6318 195.913 21.6666 196.131 21.6666C196.409 21.6666 196.631 21.5448 196.796 21.3012C196.918 21.1185 197.057 20.7922 197.214 20.3224H196.731L194.264 13.536H195.948L197.697 19.1217L199.498 13.536H201.064Z" fill="black" fill-opacity="0.95"/>
</svg>
