<svg width="195" height="33" viewBox="0 0 195 33" fill="none" xmlns="http://www.w3.org/2000/svg">
<rect width="195" height="32.633" rx="16.2774" fill="white" fill-opacity="0.95"/>
<path d="M14.3677 18.8902L16.9522 10.9278H18.5839L15.3597 20.3261H13.3104L10.0601 10.9278H11.8093L14.3677 18.8902ZM21.0681 12.5072H19.3451V10.9278H21.0681V12.5072ZM20.9898 20.3261H19.4234V13.5384H20.9898V20.3261ZM27.269 18.3681H28.9137C28.731 19.0643 28.3524 19.6038 27.7781 19.9867C27.2299 20.3435 26.5554 20.5219 25.7549 20.5219C24.6497 20.5219 23.7882 20.1738 23.1703 19.4776C22.6047 18.8424 22.3219 17.9939 22.3219 16.9323C22.3219 15.714 22.6743 14.7828 23.3792 14.1389C23.9709 13.608 24.7411 13.3426 25.6896 13.3426C26.7948 13.3426 27.6302 13.7038 28.1958 14.426C28.7266 15.0961 28.992 16.0533 28.992 17.2977H23.9144C23.9753 18.0287 24.2015 18.5639 24.5931 18.9033C24.9064 19.1818 25.3154 19.321 25.8201 19.321C26.1769 19.321 26.4858 19.234 26.7469 19.0599C27.008 18.8859 27.182 18.6553 27.269 18.3681ZM27.3865 16.2274C27.3517 15.5921 27.1602 15.1266 26.8122 14.8307C26.525 14.5783 26.1508 14.4521 25.6896 14.4521C25.1849 14.4521 24.7802 14.6175 24.4756 14.9482C24.1972 15.244 24.0188 15.6704 23.9405 16.2274H27.3865ZM38.6369 13.5384H40.1641L38.2323 20.3261H36.3526L34.9298 15.1179L33.4809 20.3261H31.5882L29.6694 13.5384H31.288L32.5933 18.8511L34.0422 13.5384H35.9219L37.3055 18.8511L38.6369 13.5384ZM53.0902 13.9692H51.4063C51.3019 13.3078 51.0147 12.8031 50.5448 12.455C50.1358 12.1591 49.6354 12.0112 49.0437 12.0112C48.1473 12.0112 47.4642 12.3462 46.9943 13.0163C46.5505 13.6341 46.3286 14.5 46.3286 15.6139C46.3286 16.8757 46.6114 17.8242 47.1771 18.4595C47.6296 18.9729 48.2257 19.2296 48.9653 19.2296C49.7224 19.2296 50.3272 18.999 50.7797 18.5378C51.1713 18.1375 51.3889 17.611 51.4324 16.9584H53.1293C53.0336 18.0809 52.568 18.9729 51.7326 19.6343C50.9842 20.226 50.0531 20.5219 48.9392 20.5219C47.5295 20.5219 46.4374 20.0476 45.6629 19.0991C44.958 18.2376 44.6056 17.0758 44.6056 15.6139C44.6056 13.9518 45.0668 12.69 45.9892 11.8285C46.7637 11.0975 47.7819 10.732 49.0437 10.732C50.2272 10.732 51.2018 11.0757 51.9676 11.7632C52.6202 12.3462 52.9944 13.0816 53.0902 13.9692ZM54.1262 16.9192C54.1262 15.6835 54.4917 14.748 55.2227 14.1128C55.8232 13.5993 56.6064 13.3426 57.5723 13.3426C58.6949 13.3426 59.5607 13.682 60.1699 14.3608C60.7355 14.9786 61.0183 15.8314 61.0183 16.9192C61.0183 18.1549 60.6615 19.0904 59.948 19.7256C59.3475 20.2565 58.5556 20.5219 57.5723 20.5219C56.4584 20.5219 55.5926 20.1738 54.9747 19.4776C54.4091 18.8424 54.1262 17.9896 54.1262 16.9192ZM57.5853 19.3601C58.2032 19.3601 58.6644 19.1339 58.969 18.6814C59.2561 18.2724 59.3997 17.685 59.3997 16.9192C59.3997 16.049 59.2083 15.4094 58.8254 15.0004C58.5208 14.6697 58.1031 14.5044 57.5723 14.5044C56.9631 14.5044 56.5019 14.7263 56.1887 15.1701C55.8928 15.5791 55.7448 16.1621 55.7448 16.9192C55.7448 17.7807 55.9363 18.4203 56.3192 18.838C56.6412 19.1861 57.0632 19.3601 57.5853 19.3601ZM63.9098 20.3261H62.3434V13.5384H63.5313L63.7532 14.3086C64.2318 13.6646 64.9062 13.3426 65.7764 13.3426C66.7249 13.3426 67.3994 13.682 67.7997 14.3608C68.287 13.682 69.0267 13.3426 70.0187 13.3426C70.8019 13.3426 71.4023 13.5732 71.82 14.0344C72.2029 14.4609 72.3944 15.0613 72.3944 15.8358V20.3261H70.828V15.8749C70.828 14.996 70.419 14.5566 69.601 14.5566C69.1311 14.5566 68.7569 14.7393 68.4784 15.1048C68.2609 15.4094 68.1521 15.7705 68.1521 16.1882V20.3261H66.5857V15.8749C66.5857 14.996 66.1767 14.5566 65.3587 14.5566C64.9149 14.5566 64.5538 14.7306 64.2753 15.0787C64.0316 15.3746 63.9098 15.7227 63.9098 16.123V20.3261ZM73.9944 13.5384H75.2345L75.5086 14.3738C76.0568 13.6864 76.8008 13.3426 77.7407 13.3426C78.7153 13.3426 79.4724 13.6864 80.0119 14.3738C80.4992 15.0004 80.7429 15.8271 80.7429 16.8539C80.7429 18.0809 80.4079 19.0251 79.7378 19.6865C79.1809 20.2434 78.4717 20.5219 77.6101 20.5219C76.7399 20.5219 76.0568 20.2043 75.5608 19.569V22.6757H73.9944V13.5384ZM79.1374 16.867C79.1374 16.0577 78.9459 15.4529 78.563 15.0526C78.2585 14.7393 77.8538 14.5827 77.3491 14.5827C76.766 14.5827 76.3048 14.7959 75.9654 15.2223C75.6522 15.6313 75.4955 16.1752 75.4955 16.8539C75.4955 17.7067 75.687 18.342 76.0699 18.7597C76.3918 19.1078 76.8095 19.2818 77.323 19.2818C77.9234 19.2818 78.3803 19.0599 78.6936 18.6161C78.9894 18.1984 79.1374 17.6154 79.1374 16.867ZM81.7368 16.9192C81.7368 15.6835 82.1023 14.748 82.8332 14.1128C83.4337 13.5993 84.2169 13.3426 85.1828 13.3426C86.3054 13.3426 87.1713 13.682 87.7804 14.3608C88.346 14.9786 88.6289 15.8314 88.6289 16.9192C88.6289 18.1549 88.2721 19.0904 87.5585 19.7256C86.9581 20.2565 86.1662 20.5219 85.1828 20.5219C84.0689 20.5219 83.2031 20.1738 82.5852 19.4776C82.0196 18.8424 81.7368 17.9896 81.7368 16.9192ZM85.1959 19.3601C85.8137 19.3601 86.2749 19.1339 86.5795 18.6814C86.8667 18.2724 87.0103 17.685 87.0103 16.9192C87.0103 16.049 86.8188 15.4094 86.4359 15.0004C86.1314 14.6697 85.7136 14.5044 85.1828 14.5044C84.5737 14.5044 84.1125 14.7263 83.7992 15.1701C83.5033 15.5791 83.3554 16.1621 83.3554 16.9192C83.3554 17.7807 83.5468 18.4203 83.9297 18.838C84.2517 19.1861 84.6737 19.3601 85.1959 19.3601ZM91.5203 20.3261H89.954V13.5384H91.2462L91.4159 14.3477C91.9119 13.6777 92.5994 13.3426 93.4783 13.3426C94.2963 13.3426 94.9229 13.595 95.358 14.0997C95.7409 14.5435 95.9323 15.1483 95.9323 15.9141V20.3261H94.3659V15.9533C94.3659 15.0221 93.9352 14.5566 93.0737 14.5566C92.6038 14.5566 92.2209 14.7219 91.925 15.0526C91.6552 15.3572 91.5203 15.7401 91.5203 16.2013V20.3261ZM102.146 18.3681H103.791C103.608 19.0643 103.23 19.6038 102.655 19.9867C102.107 20.3435 101.433 20.5219 100.632 20.5219C99.527 20.5219 98.6655 20.1738 98.0476 19.4776C97.482 18.8424 97.1992 17.9939 97.1992 16.9323C97.1992 15.714 97.5516 14.7828 98.2565 14.1389C98.8482 13.608 99.6184 13.3426 100.567 13.3426C101.672 13.3426 102.507 13.7038 103.073 14.426C103.604 15.0961 103.869 16.0533 103.869 17.2977H98.7917C98.8526 18.0287 99.0788 18.5639 99.4704 18.9033C99.7837 19.1818 100.193 19.321 100.697 19.321C101.054 19.321 101.363 19.234 101.624 19.0599C101.885 18.8859 102.059 18.6553 102.146 18.3681ZM102.264 16.2274C102.229 15.5921 102.038 15.1266 101.689 14.8307C101.402 14.5783 101.028 14.4521 100.567 14.4521C100.062 14.4521 99.6575 14.6175 99.353 14.9482C99.0745 15.244 98.8961 15.6704 98.8178 16.2274H102.264ZM106.779 20.3261H105.212V13.5384H106.505L106.674 14.3477C107.17 13.6777 107.858 13.3426 108.737 13.3426C109.555 13.3426 110.181 13.595 110.616 14.0997C110.999 14.5435 111.191 15.1483 111.191 15.9141V20.3261H109.624V15.9533C109.624 15.0221 109.194 14.5566 108.332 14.5566C107.862 14.5566 107.479 14.7219 107.183 15.0526C106.914 15.3572 106.779 15.7401 106.779 16.2013V20.3261ZM116.165 19.1774V20.3652C115.799 20.4697 115.451 20.5219 115.121 20.5219C114.45 20.5219 113.941 20.3217 113.593 19.9214C113.297 19.582 113.149 19.1252 113.149 18.5508V14.7393H112.131V13.5384H113.149L113.254 11.9068H114.716V13.5384H116.152V14.7393H114.716V18.6031C114.716 19.0556 114.946 19.2818 115.408 19.2818C115.608 19.2818 115.86 19.247 116.165 19.1774ZM129.035 15.1962V20.3261H127.887L127.652 19.3079C127.347 19.6908 126.951 19.991 126.464 20.2086C125.977 20.4175 125.433 20.5219 124.832 20.5219C123.536 20.5219 122.505 20.052 121.739 19.1121C121.025 18.2332 120.668 17.0628 120.668 15.6008C120.668 13.9387 121.143 12.6726 122.091 11.8024C122.866 11.0888 123.862 10.732 125.08 10.732C126.212 10.732 127.147 11.0409 127.887 11.6588C128.513 12.1809 128.892 12.8466 129.022 13.6559H127.378C127.247 13.0903 126.956 12.6639 126.503 12.3767C126.12 12.133 125.646 12.0112 125.08 12.0112C124.219 12.0112 123.549 12.3375 123.07 12.9902C122.618 13.6167 122.391 14.487 122.391 15.6008C122.391 16.8539 122.696 17.8112 123.305 18.4725C123.784 18.986 124.38 19.2427 125.093 19.2427C125.842 19.2427 126.451 19.0208 126.921 18.577C127.347 18.1767 127.56 17.6893 127.56 17.115V16.4101H125.015V15.1962H129.035ZM130.565 13.5384H132.132V18.0026C132.132 18.8728 132.558 19.3079 133.411 19.3079C133.907 19.3079 134.294 19.1295 134.572 18.7728C134.799 18.4682 134.912 18.094 134.912 17.6502V13.5384H136.478V20.3261H135.186L135.016 19.569C134.529 20.2043 133.85 20.5219 132.98 20.5219C132.179 20.5219 131.566 20.2782 131.14 19.7909C130.757 19.3471 130.565 18.7379 130.565 17.9635V13.5384ZM139.796 12.5072H138.073V10.9278H139.796V12.5072ZM139.718 20.3261H138.151V13.5384H139.718V20.3261ZM147.798 20.3261H146.545L146.271 19.4515C145.74 20.1651 145.014 20.5219 144.091 20.5219C143.125 20.5219 142.364 20.1738 141.807 19.4776C141.302 18.8424 141.05 18.0113 141.05 16.9845C141.05 15.7488 141.376 14.8046 142.029 14.1519C142.568 13.6124 143.269 13.3426 144.13 13.3426C145.027 13.3426 145.727 13.6646 146.232 14.3086V10.9278H147.798V20.3261ZM142.655 16.9975C142.655 17.7981 142.847 18.3942 143.23 18.7858C143.543 19.1165 143.952 19.2818 144.457 19.2818C145.074 19.2818 145.544 19.0556 145.866 18.6031C146.154 18.2028 146.297 17.6632 146.297 16.9845C146.297 16.1317 146.097 15.4964 145.697 15.0787C145.383 14.748 144.97 14.5827 144.457 14.5827C143.856 14.5827 143.399 14.8089 143.086 15.2614C142.799 15.6704 142.655 16.2491 142.655 16.9975ZM154.079 18.3681H155.723C155.541 19.0643 155.162 19.6038 154.588 19.9867C154.039 20.3435 153.365 20.5219 152.564 20.5219C151.459 20.5219 150.598 20.1738 149.98 19.4776C149.414 18.8424 149.131 17.9939 149.131 16.9323C149.131 15.714 149.484 14.7828 150.189 14.1389C150.781 13.608 151.551 13.3426 152.499 13.3426C153.604 13.3426 154.44 13.7038 155.005 14.426C155.536 15.0961 155.802 16.0533 155.802 17.2977H150.724C150.785 18.0287 151.011 18.5639 151.403 18.9033C151.716 19.1818 152.125 19.321 152.63 19.321C152.987 19.321 153.295 19.234 153.557 19.0599C153.818 18.8859 153.992 18.6553 154.079 18.3681ZM154.196 16.2274C154.161 15.5921 153.97 15.1266 153.622 14.8307C153.335 14.5783 152.96 14.4521 152.499 14.4521C151.994 14.4521 151.59 14.6175 151.285 14.9482C151.007 15.244 150.828 15.6704 150.75 16.2274H154.196ZM158.711 10.9278V20.3261H157.145V10.9278H158.711ZM162.027 12.5072H160.304V10.9278H162.027V12.5072ZM161.949 20.3261H160.383V13.5384H161.949V20.3261ZM165.187 20.3261H163.62V13.5384H164.913L165.082 14.3477C165.578 13.6777 166.266 13.3426 167.145 13.3426C167.963 13.3426 168.589 13.595 169.024 14.0997C169.407 14.5435 169.599 15.1483 169.599 15.9141V20.3261H168.032V15.9533C168.032 15.0221 167.602 14.5566 166.74 14.5566C166.27 14.5566 165.887 14.7219 165.591 15.0526C165.322 15.3572 165.187 15.7401 165.187 16.2013V20.3261ZM175.813 18.3681H177.457C177.275 19.0643 176.896 19.6038 176.322 19.9867C175.774 20.3435 175.099 20.5219 174.299 20.5219C173.193 20.5219 172.332 20.1738 171.714 19.4776C171.148 18.8424 170.866 17.9939 170.866 16.9323C170.866 15.714 171.218 14.7828 171.923 14.1389C172.515 13.608 173.285 13.3426 174.233 13.3426C175.338 13.3426 176.174 13.7038 176.739 14.426C177.27 15.0961 177.536 16.0533 177.536 17.2977H172.458C172.519 18.0287 172.745 18.5639 173.137 18.9033C173.45 19.1818 173.859 19.321 174.364 19.321C174.721 19.321 175.029 19.234 175.291 19.0599C175.552 18.8859 175.726 18.6553 175.813 18.3681ZM175.93 16.2274C175.895 15.5921 175.704 15.1266 175.356 14.8307C175.069 14.5783 174.694 14.4521 174.233 14.4521C173.729 14.4521 173.324 14.6175 173.019 14.9482C172.741 15.244 172.562 15.6704 172.484 16.2274H175.93ZM180.001 18.3942C180.123 19.0469 180.615 19.3732 181.476 19.3732C181.955 19.3732 182.316 19.2818 182.56 19.0991C182.76 18.9424 182.86 18.7379 182.86 18.4856C182.86 18.1636 182.686 17.9243 182.338 17.7677C182.138 17.6806 181.698 17.5588 181.019 17.4022C180.184 17.2107 179.588 16.9497 179.231 16.619C178.874 16.297 178.696 15.8749 178.696 15.3528C178.696 14.6915 178.966 14.1824 179.505 13.8256C179.984 13.5036 180.641 13.3426 181.476 13.3426C182.338 13.3426 183.03 13.5471 183.552 13.9561C184.004 14.3042 184.287 14.7741 184.4 15.3659H182.808C182.677 14.7828 182.225 14.4913 181.45 14.4913C180.667 14.4913 180.275 14.7306 180.275 15.2092C180.275 15.4529 180.376 15.6356 180.576 15.7575C180.776 15.8793 181.18 16.0142 181.79 16.1621C182.729 16.3797 183.382 16.6233 183.748 16.8931C184.209 17.2325 184.439 17.7111 184.439 18.3289C184.439 19.0338 184.152 19.5864 183.578 19.9867C183.056 20.3435 182.351 20.5219 181.463 20.5219C180.532 20.5219 179.788 20.3 179.231 19.8562C178.761 19.482 178.487 18.9947 178.409 18.3942H180.001Z" fill="black" fill-opacity="0.95"/>
</svg>
