<svg width="120" height="120" viewBox="0 0 120 120" fill="none" xmlns="http://www.w3.org/2000/svg">
<path d="M83.8659 89.6001C88.0659 93.8001 88.0659 100.5 83.8659 104.7L80.4659 108C78.4659 110 75.6659 111.2 72.8659 111.1C55.3659 110.7 37.9659 103.8 24.5659 90.5001C10.6659 76.6001 3.86593 58.5001 3.96593 40.3001C3.96593 37.5001 5.06593 34.7001 7.06593 32.7001L9.56593 30.2001C13.7659 26.0001 20.4659 26.0001 24.6659 30.2001L32.1659 37.7001C36.3659 41.9001 36.3659 48.6001 32.1659 52.8001L27.8659 57.1001C25.5659 59.4001 24.8659 62.7001 25.8659 65.7001C27.7659 70.9001 30.7659 75.9001 34.9659 80.1001C38.6659 83.8001 42.9659 86.6001 47.5659 88.5001C50.6659 89.8001 54.2659 89.1001 56.5659 86.7001L61.2659 82.0001C65.4659 77.8001 72.9659 78.1001 75.9659 81.1001C78.9659 84.1001 75.9659 89.1001 70.9659 89.1001C50.9659 89.1001 31.9659 31.1001 55.9659 19.1001C71.9659 11.1001 87.9659 31.1001 87.9659 31.1001M95.9659 39.1001C105.466 48.6001 115.966 51.1001 115.966 51.1001M90.9659 40.1001V48.1001M86.9659 36.1001H78.9659M92.9659 30.1001V22.1001M96.9659 34.1001H104.966" stroke="white" stroke-opacity="0.95" stroke-width="2.5" stroke-miterlimit="10" stroke-linecap="round" stroke-linejoin="round"/>
</svg>
