<svg width="398" height="228" viewBox="0 0 398 228" fill="none" xmlns="http://www.w3.org/2000/svg">
<path d="M147.922 81.4291L154.969 74.397C156.3 73.0687 158.336 73.0687 159.667 74.397C160.998 75.7253 160.998 77.7568 159.667 79.0851L154.186 84.5545L160.45 90.8053C162.173 92.5243 162.173 95.3371 160.45 97.0561C158.728 98.775 155.909 98.775 154.186 97.0561L147.922 90.8053L141.658 95.1808C140.875 95.7278 140.797 96.8998 141.423 97.603L141.658 97.8374C142.519 98.6969 142.519 100.103 141.658 100.963C140.797 101.822 139.387 101.822 138.526 100.963L133.045 95.4934C132.184 94.6339 132.184 93.2275 133.045 92.368C133.906 91.5085 135.316 91.5085 136.177 92.368L136.412 92.6024C137.117 93.3056 138.213 93.2275 138.839 92.368L143.224 86.1172L136.96 79.8665C135.238 78.1475 135.238 75.3346 136.96 73.6157C138.683 71.8967 141.502 71.8967 143.224 73.6157L146.121 76.5067M70.8752 171.909C70.8752 161.517 62.4971 153.157 52.0832 153.157C52.0832 142.765 43.7051 134.404 33.2913 134.404M164.835 137.53C164.835 130.654 159.197 125.028 152.307 125.028C152.307 118.152 146.669 112.527 139.779 112.527M114.723 87.5236C114.723 80.6478 109.085 75.0221 102.195 75.0221C102.195 68.1463 96.5575 62.5206 89.6671 62.5206M130.853 102.76L100.707 132.842C94.4434 139.092 97.5754 146.125 103.056 146.125C110.103 146.125 111.669 134.404 99.9244 134.404C92.8774 134.404 82.6984 128.935 74.8684 121.121C69.2309 115.496 65.3159 108.776 62.8103 101.744C61.4009 97.6811 62.4188 93.2275 65.4725 90.1802L71.2667 84.3983C76.8259 78.8507 76.8259 69.7871 71.2667 64.2395L61.0877 54.0821C55.5284 48.5345 46.4456 48.5345 40.8863 54.0821L37.5977 57.3637C34.9356 60.0203 33.4479 63.6926 33.3696 67.5212C33.213 91.9773 42.4523 116.355 61.0877 134.873C79.0183 152.766 102.43 161.986 125.92 162.533C129.757 162.611 133.437 161.048 136.177 158.314L140.719 153.782C146.278 148.234 146.278 139.171 140.719 133.623L129.678 122.606" stroke="white" stroke-opacity="0.95" stroke-width="5" stroke-miterlimit="10" stroke-linecap="round" stroke-linejoin="round"/>
<path d="M347.587 81.4291L354.634 74.397C355.965 73.0687 358.001 73.0687 359.332 74.397C360.663 75.7253 360.663 77.7568 359.332 79.0851L353.851 84.5545L360.115 90.8053C361.837 92.5243 361.837 95.3371 360.115 97.0561C358.392 98.775 355.573 98.775 353.851 97.0561L347.587 90.8053L341.323 95.1808C340.54 95.7278 340.461 96.8998 341.088 97.603L341.323 97.8374C342.184 98.6969 342.184 100.103 341.323 100.963C340.461 101.822 339.052 101.822 338.191 100.963L332.71 95.4934C331.848 94.6339 331.848 93.2275 332.71 92.368C333.571 91.5085 334.98 91.5085 335.842 92.368L336.077 92.6024C336.781 93.3056 337.878 93.2275 338.504 92.368L342.889 86.1172L336.625 79.8665C334.902 78.1475 334.902 75.3346 336.625 73.6157C338.347 71.8967 341.166 71.8967 342.889 73.6157L345.786 76.5067M270.54 171.909C270.54 161.517 262.162 153.157 251.748 153.157C251.748 142.765 243.37 134.404 232.956 134.404M364.499 137.53C364.499 130.654 358.862 125.028 351.971 125.028C351.971 118.152 346.334 112.527 339.444 112.527M314.388 87.5236C314.388 80.6478 308.75 75.0221 301.86 75.0221C301.86 68.1463 296.222 62.5206 289.332 62.5206M330.517 102.76L300.372 132.842C294.108 139.092 297.24 146.125 302.721 146.125C309.768 146.125 311.334 134.404 299.589 134.404C292.542 134.404 282.363 128.935 274.533 121.121C268.895 115.496 264.98 108.776 262.475 101.744C261.065 97.6811 262.083 93.2275 265.137 90.1802L270.931 84.3983C276.49 78.8507 276.49 69.7871 270.931 64.2395L260.752 54.0821C255.193 48.5345 246.11 48.5345 240.551 54.0821L237.262 57.3637C234.6 60.0203 233.112 63.6926 233.034 67.5212C232.878 91.9773 242.117 116.355 260.752 134.873C278.683 152.766 302.095 161.986 325.584 162.533C329.421 162.611 333.101 161.048 335.842 158.314L340.383 153.782C345.942 148.234 345.942 139.171 340.383 133.623L329.343 122.606" stroke="white" stroke-opacity="0.95" stroke-miterlimit="10" stroke-linecap="round" stroke-linejoin="round"/>
<line x1="4" y1="-4" x2="250.416" y2="-4" transform="matrix(0.707853 0.70636 -0.707853 0.70636 99.168 24)" stroke="#FC8B98" stroke-width="8" stroke-linecap="round"/>
<line x1="4" y1="-4" x2="250.416" y2="-4" transform="matrix(-0.707853 0.70636 -0.707853 -0.70636 279.257 24)" stroke="#FC8B98" stroke-width="8" stroke-linecap="round"/>
</svg>
