<svg width="782" height="202" viewBox="0 0 782 202" fill="none" xmlns="http://www.w3.org/2000/svg">
<path d="M662.088 91.1394C664.585 91.1394 666.628 89.0989 666.628 86.605C666.628 84.111 664.585 82.0706 662.088 82.0706C659.59 82.0706 657.547 84.111 657.547 86.605C657.547 89.0989 659.59 91.1394 662.088 91.1394Z" fill="white" fill-opacity="0.95"/>
<path d="M680.249 91.1394C682.746 91.1394 684.79 89.0989 684.79 86.605C684.79 84.111 682.746 82.0706 680.249 82.0706C677.752 82.0706 675.709 84.111 675.709 86.605C675.709 89.0989 677.752 91.1394 680.249 91.1394Z" fill="white" fill-opacity="0.95"/>
<path d="M698.411 91.1394C700.908 91.1394 702.951 89.0989 702.951 86.605C702.951 84.111 700.908 82.0706 698.411 82.0706C695.914 82.0706 693.871 84.111 693.871 86.605C693.871 89.0989 695.914 91.1394 698.411 91.1394Z" fill="white" fill-opacity="0.95"/>
<path d="M749.037 99.7544C746.086 117.212 736.551 133.762 720.66 144.872C705.449 155.528 693.19 154.394 686.38 161.196C682.52 165.05 680.931 170.491 682.066 175.479C682.747 179.106 679.115 182.054 675.937 180.693C672.758 179.333 670.034 177.293 667.31 173.892C657.548 162.783 656.186 146.232 665.267 134.443C670.488 127.868 675.483 127.641 678.434 130.588C681.158 133.309 681.385 137.39 676.845 141.698C668.672 149.86 649.375 149.86 633.257 133.762C608.966 109.73 608.739 73.2282 625.765 49.6493C645.516 22.4428 680.023 14.5076 707.947 26.2971C712.033 28.1109 713.622 33.0987 711.125 36.9529L695.233 62.1189C693.19 65.0662 695.461 69.1472 699.093 69.1472H725.881C727.47 69.1472 728.605 70.961 727.924 72.3213L709.763 112.224C708.628 114.491 711.579 116.532 713.395 114.718L769.923 58.2646C772.874 55.3173 770.831 50.5561 766.745 50.5561H750.172C748.356 50.5561 747.221 48.5157 748.356 46.9286L759.707 30.3781" stroke="white" stroke-opacity="0.95" stroke-width="2.5" stroke-miterlimit="10" stroke-linecap="round" stroke-linejoin="round"/>
<line x1="248.676" y1="80.9124" x2="248.676" y2="131.088" stroke="white" stroke-opacity="0.95" stroke-width="5"/>
<line x1="274" y1="106.219" x2="222" y2="106.219" stroke="white" stroke-opacity="0.95" stroke-width="5"/>
<line x1="568" y1="116.219" x2="516" y2="116.219" stroke="white" stroke-opacity="0.95" stroke-width="5"/>
<line x1="568" y1="95.5" x2="516" y2="95.5" stroke="white" stroke-opacity="0.95" stroke-width="5"/>
<path d="M386.166 128.2L372.266 149.1C371.366 150.4 372.366 152.2 373.966 152.2H385.666C386.366 152.2 386.866 153 386.566 153.6L378.566 171.1C378.066 172.1 379.366 173 380.166 172.2L404.866 147.5C406.166 146.2 405.266 144.1 403.466 144.1H396.166C395.366 144.1 394.866 143.2 395.366 142.5L402.866 131.5C404.366 129.3 406.866 128 409.466 128H443.466C457.666 128 469.566 116.9 469.966 102.7C470.366 88 458.566 76 443.966 76C441.866 76 439.766 76.3 437.866 76.7C436.166 51.7 415.366 32 389.966 32C367.466 32.2 348.666 47.6 343.366 68.5C342.266 68.4 341.066 68.3 339.866 68.3C323.066 68.3 309.366 82.2 309.866 99.1C310.266 115.4 324.166 128.3 340.466 128.3H349.866M437.766 77C424.866 81.3 417.866 92.3 422.866 97.3C426.866 101.2 437.866 94.2 437.766 77Z" stroke="white" stroke-opacity="0.95" stroke-width="2.5" stroke-miterlimit="10" stroke-linecap="round" stroke-linejoin="round"/>
<path d="M82.838 59.7917C82.838 59.7917 81.4493 64.0842 80.9443 65.4729C80.313 67.3667 81.5755 67.9979 82.838 67.9979H84.1005M103.038 59.1604C99.2505 59.1604 96.7255 56.6354 94.2005 54.1104C91.6755 51.5854 89.1505 49.0604 84.7318 49.0604C80.1868 49.0604 76.5255 52.7217 76.5255 57.2667V69.8917C76.5255 75.0679 80.818 79.2973 85.9943 79.3604C95.968 79.4867 103.985 70.2704 104.301 65.0942C104.364 63.7686 103.354 62.4429 102.028 62.3167C100.513 62.1904 99.2505 63.3267 99.2505 64.8417V78.7292C99.2505 81.5067 101.523 83.7792 104.301 83.7792H106.257C110.297 83.7792 114.148 85.2942 117.052 88.0717L124.879 95.5836C125.384 96.0254 126.142 96.0254 126.647 95.5836L142.176 80.6229C142.176 74.8154 147.667 71.6592 150.319 70.4598C151.076 70.0811 152.023 70.2704 152.654 70.9017C153.475 71.7223 153.475 73.1111 152.528 73.9317L149.119 76.8986C150.95 79.9917 150.382 85.4836 146.279 88.0717C146.089 88.198 145.963 88.3873 145.963 88.5767V93.2479C145.963 93.9423 146.531 94.5104 147.226 94.5104H173.107M74.0005 52.2167C74.0005 46.6617 78.5455 42.1167 84.1005 42.1167C87.2568 42.1167 94.8318 42.1167 94.8318 42.1167C101.776 42.1167 107.457 47.7979 107.457 54.7417V59.1604M110.613 171.523H85.363C84.6687 171.523 84.1005 170.955 84.1005 170.26V163.948C84.1005 163.254 84.6687 162.685 85.363 162.685H97.988C102.154 162.685 105.563 159.277 105.563 155.11V128.598C105.563 124.432 102.154 121.023 97.988 121.023H57.588C53.4218 121.023 50.013 124.432 50.013 128.598V155.11C50.013 159.277 53.4218 162.685 57.588 162.685H70.213C70.9074 162.685 71.4755 163.254 71.4755 163.948V170.26C71.4755 170.955 70.9074 171.523 70.213 171.523H49.3818C32.6537 171.523 19.0818 157.951 19.0818 141.223C19.0818 124.495 32.6537 110.923 49.3818 110.923H123.869M110.613 171.523L121.597 149.619C124.185 144.505 129.424 141.223 135.169 141.223H140.029C141.923 141.223 143.501 139.645 143.501 137.751C143.501 135.857 141.923 134.279 140.029 134.279H136.494C133.338 134.279 130.876 131.628 130.876 128.472V123.548C130.876 122.854 130.308 122.285 129.614 122.285H128.351C127.089 122.285 125.195 121.654 126.457 117.867L128.351 112.185C130.939 104.484 135.926 100.823 143.501 100.823C151.897 100.823 158.651 107.577 158.651 115.973C158.651 122.285 156.126 124.179 156.126 131.754M110.613 171.523C108.277 176.194 111.244 179.729 114.401 179.729C116.168 179.729 117.557 178.34 117.557 176.573C117.557 174.048 115.032 171.523 110.613 171.523ZM32.9693 110.923H24.1318C21.3543 110.923 19.0818 108.65 19.0818 105.873V85.0417C19.0818 82.2642 21.3543 79.9917 24.1318 79.9917H51.9068C54.6843 79.9917 56.9568 82.2642 56.9568 85.0417V101.454C63.2693 101.454 68.3193 83.7792 83.4693 83.7792H85.9943M145.963 67.9979V54.1104C145.963 53.4161 146.531 52.8479 147.226 52.8479H167.552C167.867 52.8479 168.183 52.9742 168.436 53.2267L175.253 60.0442C175.506 60.2967 175.632 60.6123 175.632 60.9279V73.0479M167.426 53.4792V61.0542H175.001M149.182 123.548C151.329 123.548 153.033 121.78 152.97 119.634C152.907 117.551 151.076 115.973 149.056 115.973H147.352C146.531 115.973 145.711 115.657 145.142 115.026L144.196 114.079C143.059 112.943 142.744 111.175 143.501 109.724L144.511 107.704C144.953 106.883 144.322 105.873 143.375 105.873H137.189M156.063 131.754C156.063 136.994 160.292 141.223 165.532 141.223C173.107 141.223 183.207 131.123 183.207 113.448C183.207 102.59 178.599 91.733 169.382 81.9486C168.688 81.1911 168.688 79.9917 169.446 79.2973C170.14 78.603 171.213 78.5398 171.971 79.108L175.695 81.8854V73.0479C179.861 73.0479 183.27 76.4567 183.27 80.6229V85.6729" stroke="white" stroke-opacity="0.95" stroke-width="1.57812" stroke-miterlimit="10" stroke-linecap="round" stroke-linejoin="round"/>
<path d="M54.4123 52.7483C54.4123 50.9808 53.5917 50.2233 52.5186 50.2233C51.3192 50.2233 50.3723 51.2333 50.6879 53.5689C51.1929 57.672 54.7279 60.6389 58.8311 60.9545C60.0304 61.0177 60.9142 60.8914 61.861 60.5758C62.8079 60.197 62.9342 58.9345 62.0504 58.3664C60.8511 57.5458 60.0935 56.2202 60.0935 54.7052C60.0935 52.0539 62.7448 49.8445 63.6286 44.7945C65.5223 33.8108 57.7579 23.5214 46.6479 22.5745C34.3386 21.5014 24.2385 32.1695 26.2586 44.6052C27.5842 52.622 34.8435 59.7552 44.3123 59.7552C50.6248 59.692 54.4123 55.9045 54.4123 52.7483Z" stroke="#27A17A" stroke-width="1.57812" stroke-miterlimit="10" stroke-linecap="round" stroke-linejoin="round"/>
<path d="M40.2625 42.525C40.9598 42.525 41.525 41.9598 41.525 41.2625C41.525 40.5652 40.9598 40 40.2625 40C39.5652 40 39 40.5652 39 41.2625C39 41.9598 39.5652 42.525 40.2625 42.525Z" fill="#27A17A"/>
<path d="M45.3291 42.5253C46.0264 42.5253 46.5916 41.96 46.5916 41.2628C46.5916 40.5655 46.0264 40.0003 45.3291 40.0003C44.6318 40.0003 44.0666 40.5655 44.0666 41.2628C44.0666 41.96 44.6318 42.5253 45.3291 42.5253Z" fill="#27A17A"/>
<path d="M50.3564 42.5253C51.0537 42.5253 51.6189 41.96 51.6189 41.2628C51.6189 40.5655 51.0537 40.0003 50.3564 40.0003C49.6592 40.0003 49.0939 40.5655 49.0939 41.2628C49.0939 41.96 49.6592 42.5253 50.3564 42.5253Z" fill="#27A17A"/>
<path d="M50.3564 42.5253C51.0537 42.5253 51.6189 41.96 51.6189 41.2628C51.6189 40.5655 51.0537 40.0003 50.3564 40.0003C49.6592 40.0003 49.0939 40.5655 49.0939 41.2628C49.0939 41.96 49.6592 42.5253 50.3564 42.5253Z" fill="#27A17A"/>
<path d="M50.3564 42.5253C51.0537 42.5253 51.6189 41.96 51.6189 41.2628C51.6189 40.5655 51.0537 40.0003 50.3564 40.0003C49.6592 40.0003 49.0939 40.5655 49.0939 41.2628C49.0939 41.96 49.6592 42.5253 50.3564 42.5253Z" fill="#27A17A"/>
<path d="M662.088 91.1394C664.585 91.1394 666.628 89.0989 666.628 86.605C666.628 84.111 664.585 82.0706 662.088 82.0706C659.59 82.0706 657.547 84.111 657.547 86.605C657.547 89.0989 659.59 91.1394 662.088 91.1394Z" fill="white" fill-opacity="0.95"/>
<path d="M680.249 91.1394C682.746 91.1394 684.79 89.0989 684.79 86.605C684.79 84.111 682.746 82.0706 680.249 82.0706C677.752 82.0706 675.709 84.111 675.709 86.605C675.709 89.0989 677.752 91.1394 680.249 91.1394Z" fill="white" fill-opacity="0.95"/>
<path d="M698.411 91.1394C700.908 91.1394 702.951 89.0989 702.951 86.605C702.951 84.111 700.908 82.0706 698.411 82.0706C695.914 82.0706 693.871 84.111 693.871 86.605C693.871 89.0989 695.914 91.1394 698.411 91.1394Z" fill="white" fill-opacity="0.95"/>
<path d="M749.037 99.7544C746.086 117.212 736.551 133.762 720.66 144.872C705.449 155.528 693.19 154.394 686.38 161.196C682.52 165.05 680.931 170.491 682.066 175.479C682.747 179.106 679.115 182.054 675.937 180.693C672.758 179.333 670.034 177.293 667.31 173.892C657.548 162.783 656.186 146.232 665.267 134.443C670.488 127.868 675.483 127.641 678.434 130.588C681.158 133.309 681.385 137.39 676.845 141.698C668.672 149.86 649.375 149.86 633.257 133.762C608.966 109.73 608.739 73.2282 625.765 49.6493C645.516 22.4428 680.023 14.5076 707.947 26.2971C712.033 28.1109 713.622 33.0987 711.125 36.9529L695.233 62.1189C693.19 65.0662 695.461 69.1472 699.093 69.1472H725.881C727.47 69.1472 728.605 70.961 727.924 72.3213L709.763 112.224C708.628 114.491 711.579 116.532 713.395 114.718L769.923 58.2646C772.874 55.3173 770.831 50.5561 766.745 50.5561H750.172C748.356 50.5561 747.221 48.5157 748.356 46.9286L759.707 30.3781" stroke="white" stroke-opacity="0.95" stroke-width="2.5" stroke-miterlimit="10" stroke-linecap="round" stroke-linejoin="round"/>
<path d="M386.166 128.2L372.266 149.1C371.366 150.4 372.366 152.2 373.966 152.2H385.666C386.366 152.2 386.866 153 386.566 153.6L378.566 171.1C378.066 172.1 379.366 173 380.166 172.2L404.866 147.5C406.166 146.2 405.266 144.1 403.466 144.1H396.166C395.366 144.1 394.866 143.2 395.366 142.5L402.866 131.5C404.366 129.3 406.866 128 409.466 128H443.466C457.666 128 469.566 116.9 469.966 102.7C470.366 88 458.566 76 443.966 76C441.866 76 439.766 76.3 437.866 76.7C436.166 51.7 415.366 32 389.966 32C367.466 32.2 348.666 47.6 343.366 68.5C342.266 68.4 341.066 68.3 339.866 68.3C323.066 68.3 309.366 82.2 309.866 99.1C310.266 115.4 324.166 128.3 340.466 128.3H349.866M437.766 77C424.866 81.3 417.866 92.3 422.866 97.3C426.866 101.2 437.866 94.2 437.766 77Z" stroke="white" stroke-opacity="0.95" stroke-width="2.5" stroke-miterlimit="10" stroke-linecap="round" stroke-linejoin="round"/>
<path d="M386.11 128.2L372.21 149.1C371.31 150.4 372.31 152.2 373.91 152.2H385.61C386.31 152.2 386.81 153 386.51 153.6L378.51 171.1C378.01 172.1 379.31 173 380.11 172.2L404.81 147.5C406.11 146.2 405.21 144.1 403.41 144.1H396.11C395.31 144.1 394.81 143.2 395.31 142.5L402.81 131.5" stroke="#27A17A" stroke-width="2.5" stroke-miterlimit="10" stroke-linecap="round" stroke-linejoin="round"/>
<path d="M82.838 59.7917C82.838 59.7917 81.4493 64.0842 80.9443 65.4729C80.313 67.3667 81.5755 67.9979 82.838 67.9979H84.1005M103.038 59.1604C99.2505 59.1604 96.7255 56.6354 94.2005 54.1104C91.6755 51.5854 89.1505 49.0604 84.7318 49.0604C80.1868 49.0604 76.5255 52.7217 76.5255 57.2667V69.8917C76.5255 75.0679 80.818 79.2973 85.9943 79.3604C95.968 79.4867 103.985 70.2704 104.301 65.0942C104.364 63.7686 103.354 62.4429 102.028 62.3167C100.513 62.1904 99.2505 63.3267 99.2505 64.8417V78.7292C99.2505 81.5067 101.523 83.7792 104.301 83.7792H106.257C110.297 83.7792 114.148 85.2942 117.052 88.0717L124.879 95.5836C125.384 96.0254 126.142 96.0254 126.647 95.5836L142.176 80.6229C142.176 74.8154 147.667 71.6592 150.319 70.4598C151.076 70.0811 152.023 70.2704 152.654 70.9017C153.475 71.7223 153.475 73.1111 152.528 73.9317L149.119 76.8986C150.95 79.9917 150.382 85.4836 146.279 88.0717C146.089 88.198 145.963 88.3873 145.963 88.5767V93.2479C145.963 93.9423 146.531 94.5104 147.226 94.5104H173.107M74.0005 52.2167C74.0005 46.6617 78.5455 42.1167 84.1005 42.1167C87.2568 42.1167 94.8318 42.1167 94.8318 42.1167C101.776 42.1167 107.457 47.7979 107.457 54.7417V59.1604M110.613 171.523H85.363C84.6687 171.523 84.1005 170.955 84.1005 170.26V163.948C84.1005 163.254 84.6687 162.685 85.363 162.685H97.988C102.154 162.685 105.563 159.277 105.563 155.11V128.598C105.563 124.432 102.154 121.023 97.988 121.023H57.588C53.4218 121.023 50.013 124.432 50.013 128.598V155.11C50.013 159.277 53.4218 162.685 57.588 162.685H70.213C70.9074 162.685 71.4755 163.254 71.4755 163.948V170.26C71.4755 170.955 70.9074 171.523 70.213 171.523H49.3818C32.6537 171.523 19.0818 157.951 19.0818 141.223C19.0818 124.495 32.6537 110.923 49.3818 110.923H123.869M110.613 171.523L121.597 149.619C124.185 144.505 129.424 141.223 135.169 141.223H140.029C141.923 141.223 143.501 139.645 143.501 137.751C143.501 135.857 141.923 134.279 140.029 134.279H136.494C133.338 134.279 130.876 131.628 130.876 128.472V123.548C130.876 122.854 130.308 122.285 129.614 122.285H128.351C127.089 122.285 125.195 121.654 126.457 117.867L128.351 112.185C130.939 104.484 135.926 100.823 143.501 100.823C151.897 100.823 158.651 107.577 158.651 115.973C158.651 122.285 156.126 124.179 156.126 131.754M110.613 171.523C108.277 176.194 111.244 179.729 114.401 179.729C116.168 179.729 117.557 178.34 117.557 176.573C117.557 174.048 115.032 171.523 110.613 171.523ZM32.9693 110.923H24.1318C21.3543 110.923 19.0818 108.65 19.0818 105.873V85.0417C19.0818 82.2642 21.3543 79.9917 24.1318 79.9917H51.9068C54.6843 79.9917 56.9568 82.2642 56.9568 85.0417V101.454C63.2693 101.454 68.3193 83.7792 83.4693 83.7792H85.9943M145.963 67.9979V54.1104C145.963 53.4161 146.531 52.8479 147.226 52.8479H167.552C167.867 52.8479 168.183 52.9742 168.436 53.2267L175.253 60.0442C175.506 60.2967 175.632 60.6123 175.632 60.9279V73.0479M167.426 53.4792V61.0542H175.001M149.182 123.548C151.329 123.548 153.033 121.78 152.97 119.634C152.907 117.551 151.076 115.973 149.056 115.973H147.352C146.531 115.973 145.711 115.657 145.142 115.026L144.196 114.079C143.059 112.943 142.744 111.175 143.501 109.724L144.511 107.704C144.953 106.883 144.322 105.873 143.375 105.873H137.189M156.063 131.754C156.063 136.994 160.292 141.223 165.532 141.223C173.107 141.223 183.207 131.123 183.207 113.448C183.207 102.59 178.599 91.733 169.382 81.9486C168.688 81.1911 168.688 79.9917 169.446 79.2973C170.14 78.603 171.213 78.5398 171.971 79.108L175.695 81.8854V73.0479C179.861 73.0479 183.27 76.4567 183.27 80.6229V85.6729" stroke="white" stroke-opacity="0.95" stroke-width="1.57812" stroke-miterlimit="10" stroke-linecap="round" stroke-linejoin="round"/>
<path d="M54.4123 52.7483C54.4123 50.9808 53.5917 50.2233 52.5186 50.2233C51.3192 50.2233 50.3723 51.2333 50.6879 53.5689C51.1929 57.672 54.7279 60.6389 58.8311 60.9545C60.0304 61.0177 60.9142 60.8914 61.861 60.5758C62.8079 60.197 62.9342 58.9345 62.0504 58.3664C60.8511 57.5458 60.0935 56.2202 60.0935 54.7052C60.0935 52.0539 62.7448 49.8445 63.6286 44.7945C65.5223 33.8108 57.7579 23.5214 46.6479 22.5745C34.3386 21.5014 24.2385 32.1695 26.2586 44.6052C27.5842 52.622 34.8435 59.7552 44.3123 59.7552C50.6248 59.692 54.4123 55.9045 54.4123 52.7483Z" stroke="#27A17A" stroke-width="1.57812" stroke-miterlimit="10" stroke-linecap="round" stroke-linejoin="round"/>
</svg>
