<svg width="234" height="238" viewBox="0 0 234 238" fill="none" xmlns="http://www.w3.org/2000/svg">
<path d="M111.166 150.2L97.266 171.1C96.366 172.4 97.366 174.2 98.966 174.2H110.666C111.366 174.2 111.866 175 111.566 175.6L103.566 193.1C103.066 194.1 104.366 195 105.166 194.2L129.866 169.5C131.166 168.2 130.266 166.1 128.466 166.1H121.166C120.366 166.1 119.866 165.2 120.366 164.5L127.866 153.5C129.366 151.3 131.866 150 134.466 150H168.466C182.666 150 194.566 138.9 194.966 124.7C195.366 110 183.566 98 168.966 98C166.866 98 164.766 98.3 162.866 98.7C161.166 73.7 140.366 54 114.966 54C92.466 54.2 73.666 69.6 68.366 90.5C67.266 90.4 66.066 90.3 64.866 90.3C48.066 90.3 34.366 104.2 34.866 121.1C35.266 137.4 49.166 150.3 65.466 150.3H74.866M162.766 99C149.866 103.3 142.866 114.3 147.866 119.3C151.866 123.2 162.866 116.2 162.766 99Z" stroke="url(#paint0_linear_1036_2541)" stroke-width="2.5" stroke-miterlimit="10" stroke-linecap="round" stroke-linejoin="round"/>
<line x1="230" y1="9.65685" x2="5.65683" y2="234" stroke="#FC8B98" stroke-width="8" stroke-linecap="round"/>
<line x1="5.65685" y1="4" x2="230" y2="228.343" stroke="#FC8B98" stroke-width="8" stroke-linecap="round"/>
<defs>
<linearGradient id="paint0_linear_1036_2541" x1="114.914" y1="54" x2="114.914" y2="194.508" gradientUnits="userSpaceOnUse">
<stop stop-color="#FFBE4F"/>
<stop offset="1" stop-color="#93C437"/>
</linearGradient>
</defs>
</svg>
