<svg width="634" height="214" viewBox="0 0 634 214" fill="none" xmlns="http://www.w3.org/2000/svg">
<rect width="634" height="213.217" rx="24" fill="#262626"/>
<path d="M269.956 68.2609V67.6087C269.956 64.7392 272.304 62.3914 275.173 62.3914H337.782C340.651 62.3914 342.999 64.7392 342.999 67.6087V75.4348C342.999 83.9131 337.782 85.8696 335.173 83.2609C332.564 80.6522 333.869 76.7392 339.738 74.7827L348.477 71.8479C351.217 70.9348 354.151 72.4348 355.064 75.174L372.608 127.87C373.521 130.609 372.021 133.544 369.282 134.457L308.76 154.609C306.021 155.522 303.086 154.022 302.173 151.283L298.586 140.587M292.13 79.3479H303.869M342.999 87.174V130.217C342.999 133.087 340.651 135.435 337.782 135.435H275.173C272.304 135.435 269.956 133.087 269.956 130.217V86.5218C269.956 86.1957 269.695 85.9348 269.369 85.8696C265.977 85.5435 263.304 82.674 263.434 79.1522C263.564 75.8261 266.238 73.0218 269.63 72.8261C271.782 72.6957 273.673 73.6087 274.977 75.1087L279.869 74.5218C280.977 71.1957 283.13 68.9131 285.673 68.9131C289.26 68.9131 292.195 73.6087 292.195 79.3479C292.195 85.087 289.26 89.7827 285.673 89.7827C283.13 89.7827 280.912 87.2392 279.804 83.9131L275.238 83.2609M282.999 104.848L285.282 102.565C287.304 100.544 290.825 101.978 290.825 104.848C290.825 107.717 294.347 109.152 296.369 107.13L300.934 102.565C302.956 100.544 306.477 101.978 306.477 104.848C306.477 107.717 309.999 109.152 312.021 107.13L316.586 102.565C318.608 100.544 322.13 101.978 322.13 104.848C322.13 107.717 325.651 109.152 327.673 107.13L329.956 104.848M282.999 119.196L285.282 116.913C287.304 114.891 290.825 116.326 290.825 119.196C290.825 122.065 294.347 123.5 296.369 121.478L300.934 116.913C302.956 114.891 306.477 116.326 306.477 119.196C306.477 122.065 309.999 123.5 312.021 121.478L316.586 116.913C318.608 114.891 322.13 116.326 322.13 119.196C322.13 122.065 325.651 123.5 327.673 121.478L329.956 119.196" stroke="url(#paint0_linear_1118_16442)" stroke-width="2.5" stroke-miterlimit="10" stroke-linecap="round" stroke-linejoin="round"/>
<path d="M376.333 52.8042L263.196 165.941" stroke="#FC8B98" stroke-width="4" stroke-linecap="round"/>
<path d="M263.196 52.8042L376.333 165.941" stroke="#FC8B98" stroke-width="4" stroke-linecap="round"/>
<defs>
<linearGradient id="paint0_linear_1118_16442" x1="318.153" y1="62.3914" x2="318.153" y2="154.876" gradientUnits="userSpaceOnUse">
<stop stop-color="#FFBE4F"/>
<stop offset="1" stop-color="#F26B1D"/>
</linearGradient>
</defs>
</svg>
