<svg width="490" height="256" viewBox="0 0 490 256" fill="none" xmlns="http://www.w3.org/2000/svg">
<rect width="490" height="256" rx="24" fill="#262626"/>
<path d="M241.166 159.2L227.266 180.1C226.366 181.4 227.366 183.2 228.966 183.2H240.666C241.366 183.2 241.866 184 241.566 184.6L233.566 202.1C233.066 203.1 234.366 204 235.166 203.2L259.866 178.5C261.166 177.2 260.266 175.1 258.466 175.1H251.166C250.366 175.1 249.866 174.2 250.366 173.5L257.866 162.5C259.366 160.3 261.866 159 264.466 159H298.466C312.666 159 324.566 147.9 324.966 133.7C325.366 119 313.566 107 298.966 107C296.866 107 294.766 107.3 292.866 107.7C291.166 82.7 270.366 63 244.966 63C222.466 63.2 203.666 78.6 198.366 99.5C197.266 99.4 196.066 99.3 194.866 99.3C178.066 99.3 164.366 113.2 164.866 130.1C165.266 146.4 179.166 159.3 195.466 159.3H204.866M292.766 108C279.866 112.3 272.866 123.3 277.866 128.3C281.866 132.2 292.866 125.2 292.766 108Z" stroke="url(#paint0_linear_1118_17208)" stroke-width="2.5" stroke-miterlimit="10" stroke-linecap="round" stroke-linejoin="round"/>
<defs>
<linearGradient id="paint0_linear_1118_17208" x1="244.914" y1="63" x2="244.914" y2="203.508" gradientUnits="userSpaceOnUse">
<stop stop-color="#F0677E"/>
<stop offset="1" stop-color="#DB1F2E"/>
</linearGradient>
</defs>
</svg>
