<svg width="640" height="266" viewBox="0 0 640 266" fill="none" xmlns="http://www.w3.org/2000/svg">
<rect width="640" height="266" rx="24" fill="#262626"/>
<path d="M185.531 214.276C185.456 213.603 185.143 213.082 184.594 212.713C184.045 212.339 183.353 212.152 182.52 212.152C181.923 212.152 181.407 212.247 180.972 212.436C180.536 212.621 180.198 212.876 179.956 213.203C179.719 213.525 179.601 213.892 179.601 214.304C179.601 214.65 179.681 214.948 179.842 215.199C180.008 215.45 180.224 215.661 180.489 215.831C180.759 215.997 181.047 216.136 181.355 216.25C181.663 216.359 181.959 216.449 182.243 216.52L183.663 216.889C184.127 217.003 184.603 217.157 185.091 217.351C185.579 217.545 186.031 217.801 186.448 218.118C186.864 218.435 187.2 218.828 187.456 219.297C187.717 219.766 187.847 220.327 187.847 220.98C187.847 221.804 187.634 222.536 187.208 223.175C186.786 223.814 186.173 224.318 185.368 224.688C184.568 225.057 183.6 225.241 182.463 225.241C181.374 225.241 180.432 225.069 179.636 224.723C178.841 224.377 178.218 223.887 177.769 223.253C177.319 222.614 177.07 221.856 177.023 220.98H179.225C179.267 221.506 179.438 221.944 179.736 222.294C180.039 222.64 180.425 222.898 180.894 223.068C181.367 223.234 181.886 223.317 182.449 223.317C183.069 223.317 183.621 223.22 184.104 223.026C184.592 222.827 184.975 222.552 185.254 222.202C185.534 221.847 185.673 221.432 185.673 220.959C185.673 220.528 185.55 220.175 185.304 219.901C185.063 219.626 184.734 219.399 184.317 219.219C183.905 219.039 183.439 218.88 182.918 218.743L181.199 218.274C180.034 217.957 179.111 217.491 178.429 216.875C177.752 216.259 177.413 215.445 177.413 214.432C177.413 213.594 177.641 212.862 178.095 212.237C178.55 211.612 179.165 211.127 179.942 210.781C180.718 210.431 181.594 210.256 182.57 210.256C183.555 210.256 184.423 210.429 185.176 210.774C185.934 211.12 186.53 211.596 186.966 212.202C187.402 212.803 187.629 213.494 187.648 214.276H185.531Z" fill="white" fill-opacity="0.95"/>
<path d="M281.598 210.455H284.261L288.892 221.761H289.063L293.693 210.455H296.357V225H294.269V214.474H294.134L289.844 224.979H288.111L283.821 214.467H283.686V225H281.598V210.455Z" fill="white" fill-opacity="0.95"/>
<path d="M410.598 225V210.455H412.793V223.111H419.384V225H410.598Z" fill="white" fill-opacity="0.95"/>
<circle cx="182.09" cy="105.607" r="20.5897" stroke="#CACACA"/>
<circle cx="457.91" cy="53.0897" r="20.5897" stroke="white" stroke-opacity="0.9"/>
<circle cx="273.065" cy="114.705" r="20.5897" stroke="#CACACA"/>
<circle cx="379.134" cy="128.145" r="28.6534" stroke="white" stroke-opacity="0.9"/>
<rect x="273.566" y="75.5068" width="38.6983" height="38.6983" stroke="#CACACA"/>
<rect x="379.427" y="53.5898" width="77.9831" height="77.9831" stroke="white" stroke-opacity="0.9"/>
</svg>
