<svg width="490" height="196" viewBox="0 0 490 196" fill="none" xmlns="http://www.w3.org/2000/svg">
<rect width="490" height="163.303" rx="24" fill="#262626"/>
<rect x="138.878" y="40.2215" width="212.244" height="82.8595" stroke="black" stroke-width="0.443099"/>
<g filter="url(#filter0_dd_1118_15458)">
<rect x="138.656" y="40" width="212.687" height="83.3026" fill="black"/>
<rect x="138.435" y="39.7785" width="213.131" height="83.7457" stroke="white" stroke-opacity="0.2" stroke-width="0.443099"/>
</g>
<path d="M309.575 46.5566V47H305.145V46.5566H309.575Z" fill="white" fill-opacity="0.95"/>
<path d="M327.293 44.7852V49.2148H322.864V44.7852H327.293ZM326.85 45.2286H323.307V48.7714H326.85V45.2286Z" fill="white" fill-opacity="0.95"/>
<path d="M343.111 47L345.012 48.9012L344.698 49.2148L342.797 47.3136L340.896 49.2148L340.582 48.9012L342.483 47L340.582 45.0988L340.896 44.7852L342.797 46.6864L344.698 44.7852L345.012 45.0988L343.111 47Z" fill="white" fill-opacity="0.95"/>
<path d="M164.534 84.7528L161.968 88.6114C161.802 88.8515 161.986 89.1838 162.282 89.1838H164.442C164.571 89.1838 164.663 89.3315 164.608 89.4423L163.131 92.6732C163.039 92.8578 163.279 93.024 163.426 92.8763L167.987 88.316C168.227 88.076 168.061 87.6883 167.728 87.6883H166.38C166.233 87.6883 166.14 87.5222 166.233 87.3929L167.617 85.362C167.894 84.9559 168.356 84.7159 168.836 84.7159H175.113C177.735 84.7159 179.932 82.6665 180.006 80.0449C180.08 77.3309 177.901 75.1154 175.206 75.1154C174.818 75.1154 174.43 75.1708 174.079 75.2446C173.765 70.629 169.925 66.9919 165.236 66.9919C161.082 67.0288 157.611 69.8721 156.632 73.7307C156.429 73.7122 156.208 73.6938 155.986 73.6938C152.884 73.6938 150.355 76.2601 150.447 79.3802C150.521 82.3896 153.088 84.7713 156.097 84.7713H157.832M174.061 75.3C171.679 76.0939 170.387 78.1248 171.31 79.0479C172.048 79.7679 174.079 78.4756 174.061 75.3Z" stroke="url(#paint0_linear_1118_15458)" stroke-width="1.10775" stroke-miterlimit="10" stroke-linecap="round" stroke-linejoin="round"/>
<path d="M195.954 69.0924C195.592 69.2678 195.119 69.3554 194.535 69.3554C193.774 69.3554 193.175 69.1316 192.739 68.6839C192.302 68.2362 192.084 67.6396 192.084 66.8942C192.084 66.1003 192.329 65.4564 192.818 64.9625C193.31 64.4687 193.947 64.2217 194.729 64.2217C195.214 64.2217 195.622 64.2829 195.954 64.4052V65.4818C195.622 65.2833 195.244 65.1841 194.819 65.1841C194.353 65.1841 193.977 65.3306 193.691 65.6237C193.404 65.9168 193.261 66.3138 193.261 66.8146C193.261 67.2946 193.396 67.6777 193.666 67.9638C193.936 68.2477 194.3 68.3896 194.757 68.3896C195.193 68.3896 195.592 68.2835 195.954 68.0712V69.0924ZM199.662 69.2689H198.627V68.76H198.613C198.375 69.157 198.023 69.3554 197.557 69.3554C197.213 69.3554 196.942 69.2585 196.744 69.0647C196.548 68.8685 196.45 68.6077 196.45 68.2823C196.45 67.5946 196.857 67.1976 197.671 67.0915L198.634 66.9634C198.634 66.5757 198.424 66.3818 198.004 66.3818C197.581 66.3818 197.18 66.5076 196.799 66.7592V65.9353C196.951 65.8568 197.159 65.7876 197.422 65.7276C197.688 65.6676 197.929 65.6376 198.146 65.6376C199.157 65.6376 199.662 66.1418 199.662 67.1503V69.2689ZM198.634 67.8288V67.59L197.99 67.6731C197.635 67.7192 197.457 67.8796 197.457 68.1542C197.457 68.2789 197.5 68.3816 197.585 68.4623C197.673 68.5408 197.79 68.58 197.938 68.58C198.143 68.58 198.311 68.5096 198.44 68.3689C198.569 68.2258 198.634 68.0458 198.634 67.8288ZM203.951 69.2689H202.861V67.2992C202.861 66.7499 202.664 66.4753 202.272 66.4753C202.083 66.4753 201.927 66.548 201.805 66.6934C201.682 66.8388 201.621 67.0234 201.621 67.2473V69.2689H200.527V65.7241H201.621V66.2849H201.635C201.896 65.8534 202.276 65.6376 202.774 65.6376C203.559 65.6376 203.951 66.1245 203.951 67.0984V69.2689ZM206.09 64.1871L205.422 65.7241H204.751L205.145 64.1871H206.09ZM209.019 69.2274C208.857 69.3128 208.614 69.3554 208.289 69.3554C207.518 69.3554 207.132 68.955 207.132 68.1542V66.5307H206.558V65.7241H207.132V64.9591L208.223 64.6475V65.7241H209.019V66.5307H208.223V67.9638C208.223 68.3331 208.369 68.5177 208.662 68.5177C208.778 68.5177 208.897 68.4843 209.019 68.4173V69.2274ZM214.284 69.1408C214.037 69.2839 213.681 69.3554 213.215 69.3554C212.67 69.3554 212.229 69.1904 211.892 68.8604C211.555 68.5304 211.387 68.1046 211.387 67.5831C211.387 66.9807 211.567 66.5065 211.927 66.1603C212.289 65.8118 212.773 65.6376 213.377 65.6376C213.795 65.6376 214.097 65.693 214.284 65.8037V66.7315C214.056 66.5607 213.801 66.4753 213.519 66.4753C213.205 66.4753 212.956 66.5676 212.771 66.7522C212.589 66.9346 212.498 67.1873 212.498 67.5104C212.498 67.8242 212.586 68.0712 212.761 68.2512C212.936 68.4289 213.178 68.5177 213.485 68.5177C213.757 68.5177 214.023 68.4323 214.284 68.2615V69.1408ZM216.694 69.3554C216.103 69.3554 215.638 69.1904 215.299 68.8604C214.962 68.5281 214.793 68.0781 214.793 67.5104C214.793 66.9242 214.968 66.4661 215.319 66.1361C215.67 65.8037 216.144 65.6376 216.742 65.6376C217.331 65.6376 217.792 65.8037 218.127 66.1361C218.461 66.4661 218.629 66.9034 218.629 67.448C218.629 68.0365 218.456 68.5016 218.109 68.8431C217.766 69.1847 217.294 69.3554 216.694 69.3554ZM216.721 66.4753C216.463 66.4753 216.262 66.5642 216.119 66.7419C215.976 66.9196 215.904 67.1711 215.904 67.4965C215.904 68.1773 216.179 68.5177 216.728 68.5177C217.252 68.5177 217.514 68.1681 217.514 67.4688C217.514 66.8065 217.25 66.4753 216.721 66.4753ZM222.762 69.2689H221.672V67.2992C221.672 66.7499 221.475 66.4753 221.083 66.4753C220.894 66.4753 220.738 66.548 220.616 66.6934C220.493 66.8388 220.432 67.0234 220.432 67.2473V69.2689H219.338V65.7241H220.432V66.2849H220.446C220.707 65.8534 221.086 65.6376 221.585 65.6376C222.37 65.6376 222.762 66.1245 222.762 67.0984V69.2689ZM227.054 69.2689H225.964V67.2992C225.964 66.7499 225.768 66.4753 225.376 66.4753C225.186 66.4753 225.031 66.548 224.908 66.6934C224.786 66.8388 224.725 67.0234 224.725 67.2473V69.2689H223.631V65.7241H224.725V66.2849H224.739C224.999 65.8534 225.379 65.6376 225.877 65.6376C226.662 65.6376 227.054 66.1245 227.054 67.0984V69.2689ZM231.108 67.8081H228.796C228.833 68.3227 229.157 68.58 229.768 68.58C230.158 68.58 230.501 68.4877 230.797 68.3031V69.0924C230.469 69.2678 230.043 69.3554 229.519 69.3554C228.947 69.3554 228.503 69.1974 228.186 68.8812C227.87 68.5627 227.712 68.1196 227.712 67.5519C227.712 66.9634 227.883 66.4972 228.225 66.1534C228.566 65.8095 228.986 65.6376 229.485 65.6376C230.002 65.6376 230.401 65.791 230.682 66.098C230.966 66.4049 231.108 66.8215 231.108 67.3477V67.8081ZM230.094 67.1365C230.094 66.6288 229.888 66.3749 229.478 66.3749C229.302 66.3749 229.15 66.4476 229.021 66.593C228.894 66.7384 228.816 66.9196 228.789 67.1365H230.094ZM234.445 69.1408C234.198 69.2839 233.842 69.3554 233.376 69.3554C232.831 69.3554 232.39 69.1904 232.053 68.8604C231.716 68.5304 231.548 68.1046 231.548 67.5831C231.548 66.9807 231.728 66.5065 232.088 66.1603C232.45 65.8118 232.934 65.6376 233.538 65.6376C233.956 65.6376 234.258 65.693 234.445 65.8037V66.7315C234.217 66.5607 233.962 66.4753 233.68 66.4753C233.366 66.4753 233.117 66.5676 232.932 66.7522C232.75 66.9346 232.659 67.1873 232.659 67.5104C232.659 67.8242 232.747 68.0712 232.922 68.2512C233.097 68.4289 233.339 68.5177 233.646 68.5177C233.918 68.5177 234.184 68.4323 234.445 68.2615V69.1408ZM237.308 69.2274C237.147 69.3128 236.903 69.3554 236.578 69.3554C235.807 69.3554 235.421 68.955 235.421 68.1542V66.5307H234.847V65.7241H235.421V64.9591L236.512 64.6475V65.7241H237.308V66.5307H236.512V67.9638C236.512 68.3331 236.658 68.5177 236.952 68.5177C237.067 68.5177 237.186 68.4843 237.308 68.4173V69.2274ZM242.573 69.1408C242.326 69.2839 241.97 69.3554 241.504 69.3554C240.959 69.3554 240.518 69.1904 240.181 68.8604C239.844 68.5304 239.676 68.1046 239.676 67.5831C239.676 66.9807 239.856 66.5065 240.216 66.1603C240.578 65.8118 241.062 65.6376 241.666 65.6376C242.084 65.6376 242.386 65.693 242.573 65.8037V66.7315C242.345 66.5607 242.09 66.4753 241.808 66.4753C241.494 66.4753 241.245 66.5676 241.061 66.7522C240.878 66.9346 240.787 67.1873 240.787 67.5104C240.787 67.8242 240.875 68.0712 241.05 68.2512C241.226 68.4289 241.467 68.5177 241.774 68.5177C242.046 68.5177 242.313 68.4323 242.573 68.2615V69.1408ZM246.243 69.2689H245.208V68.76H245.194C244.956 69.157 244.604 69.3554 244.138 69.3554C243.794 69.3554 243.523 69.2585 243.325 69.0647C243.128 68.8685 243.03 68.6077 243.03 68.2823C243.03 67.5946 243.438 67.1976 244.252 67.0915L245.215 66.9634C245.215 66.5757 245.005 66.3818 244.585 66.3818C244.162 66.3818 243.761 66.5076 243.38 66.7592V65.9353C243.532 65.8568 243.74 65.7876 244.003 65.7276C244.268 65.6676 244.51 65.6376 244.727 65.6376C245.737 65.6376 246.243 66.1418 246.243 67.1503V69.2689ZM245.215 67.8288V67.59L244.571 67.6731C244.215 67.7192 244.038 67.8796 244.038 68.1542C244.038 68.2789 244.08 68.3816 244.166 68.4623C244.253 68.5408 244.371 68.58 244.519 68.58C244.724 68.58 244.892 68.5096 245.021 68.3689C245.15 68.2258 245.215 68.0458 245.215 67.8288ZM248.202 69.2689H247.108V64.021H248.202V69.2689ZM252.308 67.8081H249.995C250.032 68.3227 250.356 68.58 250.968 68.58C251.358 68.58 251.701 68.4877 251.996 68.3031V69.0924C251.668 69.2678 251.243 69.3554 250.719 69.3554C250.146 69.3554 249.702 69.1974 249.386 68.8812C249.07 68.5627 248.912 68.1196 248.912 67.5519C248.912 66.9634 249.082 66.4972 249.424 66.1534C249.766 65.8095 250.186 65.6376 250.684 65.6376C251.201 65.6376 251.6 65.791 251.882 66.098C252.166 66.4049 252.308 66.8215 252.308 67.3477V67.8081ZM251.293 67.1365C251.293 66.6288 251.088 66.3749 250.677 66.3749C250.502 66.3749 250.349 66.4476 250.22 66.593C250.093 66.7384 250.016 66.9196 249.988 67.1365H251.293ZM256.382 69.2689H255.292V67.2992C255.292 66.7499 255.095 66.4753 254.703 66.4753C254.514 66.4753 254.358 66.548 254.236 66.6934C254.114 66.8388 254.052 67.0234 254.052 67.2473V69.2689H252.958V65.7241H254.052V66.2849H254.066C254.327 65.8534 254.707 65.6376 255.205 65.6376C255.99 65.6376 256.382 66.1245 256.382 67.0984V69.2689ZM260.72 69.2689H259.626V68.7808H259.612C259.363 69.1639 258.997 69.3554 258.514 69.3554C258.071 69.3554 257.715 69.1997 257.445 68.8881C257.175 68.5743 257.04 68.1369 257.04 67.5761C257.04 66.9899 257.189 66.5203 257.486 66.1672C257.784 65.8141 258.174 65.6376 258.656 65.6376C259.113 65.6376 259.432 65.8014 259.612 66.1291H259.626V64.021H260.72V69.2689ZM259.646 67.545V67.2784C259.646 67.0476 259.58 66.8561 259.446 66.7038C259.312 66.5515 259.138 66.4753 258.923 66.4753C258.681 66.4753 258.491 66.5711 258.355 66.7626C258.219 66.9519 258.151 67.2127 258.151 67.545C258.151 67.8565 258.217 68.0965 258.348 68.265C258.48 68.4335 258.662 68.5177 258.895 68.5177C259.117 68.5177 259.297 68.4289 259.435 68.2512C259.576 68.0735 259.646 67.8381 259.646 67.545ZM264.59 69.2689H263.555V68.76H263.541C263.303 69.157 262.951 69.3554 262.485 69.3554C262.141 69.3554 261.87 69.2585 261.672 69.0647C261.475 68.8685 261.377 68.6077 261.377 68.2823C261.377 67.5946 261.785 67.1976 262.599 67.0915L263.562 66.9634C263.562 66.5757 263.352 66.3818 262.932 66.3818C262.509 66.3818 262.108 66.5076 261.727 66.7592V65.9353C261.879 65.8568 262.087 65.7876 262.35 65.7276C262.615 65.6676 262.857 65.6376 263.074 65.6376C264.084 65.6376 264.59 66.1418 264.59 67.1503V69.2689ZM263.562 67.8288V67.59L262.918 67.6731C262.562 67.7192 262.385 67.8796 262.385 68.1542C262.385 68.2789 262.427 68.3816 262.513 68.4623C262.6 68.5408 262.718 68.58 262.866 68.58C263.071 68.58 263.239 68.5096 263.368 68.3689C263.497 68.2258 263.562 68.0458 263.562 67.8288ZM267.768 66.7107C267.636 66.6392 267.483 66.6034 267.307 66.6034C267.07 66.6034 266.884 66.6911 266.75 66.8665C266.616 67.0396 266.549 67.2761 266.549 67.5761V69.2689H265.455V65.7241H266.549V66.3818H266.563C266.736 65.9018 267.048 65.6618 267.498 65.6618C267.613 65.6618 267.703 65.6757 267.768 65.7033V66.7107Z" fill="white" fill-opacity="0.95"/>
<path d="M192.195 80.8656V80.2659C192.324 80.383 192.486 80.4779 192.682 80.5506C192.88 80.6213 193.067 80.6566 193.243 80.6566C193.802 80.6566 194.082 80.4395 194.082 80.0054C194.082 79.8378 194.025 79.6873 193.912 79.5541C193.801 79.4188 193.553 79.2421 193.167 79.024C192.822 78.8281 192.574 78.6373 192.425 78.4515C192.275 78.2657 192.201 78.0436 192.201 77.7851C192.201 77.4459 192.327 77.1682 192.579 76.9522C192.832 76.7341 193.165 76.625 193.579 76.625C193.969 76.625 194.253 76.6765 194.433 76.7795V77.352C194.203 77.1743 193.91 77.0854 193.555 77.0854C193.302 77.0854 193.102 77.146 192.955 77.2672C192.808 77.3883 192.734 77.5458 192.734 77.7397C192.734 77.8992 192.777 78.0436 192.864 78.1728C192.953 78.3001 193.191 78.4707 193.579 78.6847C193.954 78.8948 194.221 79.0967 194.379 79.2905C194.536 79.4844 194.615 79.7025 194.615 79.9448C194.615 80.3022 194.49 80.587 194.239 80.799C193.989 81.009 193.633 81.114 193.173 81.114C193.011 81.114 192.832 81.0898 192.634 81.0413C192.436 80.9908 192.29 80.9323 192.195 80.8656ZM196.711 81.114C196.252 81.114 195.886 80.9696 195.611 80.6809C195.339 80.3901 195.202 80.0054 195.202 79.5268C195.202 79.0058 195.345 78.5989 195.63 78.3061C195.914 78.0133 196.299 77.8669 196.784 77.8669C197.246 77.8669 197.606 78.0093 197.865 78.294C198.125 78.5787 198.256 78.9735 198.256 79.4783C198.256 79.9731 198.115 80.3699 197.835 80.6687C197.556 80.9656 197.181 81.114 196.711 81.114ZM196.747 78.2849C196.428 78.2849 196.176 78.394 195.99 78.6121C195.804 78.8281 195.711 79.127 195.711 79.5086C195.711 79.8762 195.805 80.1659 195.993 80.378C196.181 80.59 196.432 80.696 196.747 80.696C197.068 80.696 197.315 80.592 197.486 80.384C197.66 80.176 197.747 79.8802 197.747 79.4965C197.747 79.1088 197.66 78.8099 197.486 78.5999C197.315 78.3899 197.068 78.2849 196.747 78.2849ZM203.453 81.0413H202.957V79.2603C202.957 78.917 202.903 78.6686 202.796 78.5151C202.691 78.3617 202.513 78.2849 202.263 78.2849C202.051 78.2849 201.87 78.3818 201.721 78.5757C201.573 78.7696 201.5 79.0018 201.5 79.2724V81.0413H201.003V79.1997C201.003 78.5898 200.768 78.2849 200.297 78.2849C200.079 78.2849 199.899 78.3768 199.758 78.5606C199.617 78.7423 199.546 78.9796 199.546 79.2724V81.0413H199.049V77.9396H199.546V78.4303H199.558C199.778 78.0547 200.099 77.8669 200.521 77.8669C200.733 77.8669 200.918 77.9265 201.076 78.0456C201.233 78.1628 201.341 78.3172 201.4 78.5091C201.63 78.081 201.973 77.8669 202.43 77.8669C203.112 77.8669 203.453 78.2879 203.453 79.13V81.0413ZM206.885 79.6146H204.695C204.703 79.96 204.796 80.2265 204.974 80.4143C205.152 80.6021 205.396 80.696 205.707 80.696C206.056 80.696 206.377 80.5809 206.67 80.3507V80.8172C206.398 81.0151 206.037 81.114 205.589 81.114C205.151 81.114 204.806 80.9737 204.556 80.693C204.306 80.4103 204.18 80.0135 204.18 79.5026C204.18 79.02 204.317 78.6272 204.589 78.3243C204.864 78.0194 205.204 77.8669 205.61 77.8669C206.016 77.8669 206.33 77.9982 206.552 78.2607C206.774 78.5232 206.885 78.8877 206.885 79.3542V79.6146ZM206.376 79.1936C206.374 78.9069 206.305 78.6837 206.167 78.5242C206.032 78.3647 205.843 78.2849 205.601 78.2849C205.367 78.2849 205.168 78.3687 205.004 78.5363C204.841 78.7039 204.74 78.923 204.701 79.1936H206.376ZM209.078 81.011C208.961 81.0756 208.807 81.1079 208.615 81.1079C208.072 81.1079 207.8 80.805 207.8 80.1992V78.3637H207.267V77.9396H207.8V77.1824L208.297 77.0218V77.9396H209.078V78.3637H208.297V80.1114C208.297 80.3194 208.332 80.4678 208.403 80.5567C208.473 80.6455 208.591 80.6899 208.754 80.6899C208.879 80.6899 208.987 80.6556 209.078 80.587V81.011ZM212.316 81.0413H211.819V79.2542C211.819 78.608 211.579 78.2849 211.099 78.2849C210.856 78.2849 210.652 78.3788 210.487 78.5666C210.321 78.7524 210.238 78.9917 210.238 79.2845V81.0413H209.742V76.4493H210.238V78.4545H210.25C210.489 78.0628 210.828 77.8669 211.268 77.8669C211.967 77.8669 212.316 78.2879 212.316 79.13V81.0413ZM213.51 77.1521C213.421 77.1521 213.345 77.1218 213.282 77.0612C213.22 77.0006 213.189 76.9239 213.189 76.831C213.189 76.7381 213.22 76.6614 213.282 76.6008C213.345 76.5382 213.421 76.5069 213.51 76.5069C213.601 76.5069 213.677 76.5382 213.74 76.6008C213.804 76.6614 213.837 76.7381 213.837 76.831C213.837 76.9199 213.804 76.9956 213.74 77.0582C213.677 77.1208 213.601 77.1521 213.51 77.1521ZM213.752 81.0413H213.255V77.9396H213.752V81.0413ZM217.332 81.0413H216.836V79.2724C216.836 78.6141 216.595 78.2849 216.115 78.2849C215.866 78.2849 215.66 78.3788 215.497 78.5666C215.335 78.7524 215.254 78.9876 215.254 79.2724V81.0413H214.758V77.9396H215.254V78.4545H215.266C215.501 78.0628 215.84 77.8669 216.284 77.8669C216.623 77.8669 216.883 77.977 217.063 78.1971C217.242 78.4152 217.332 78.7312 217.332 79.1452V81.0413ZM220.919 80.7929C220.919 81.9318 220.373 82.5013 219.283 82.5013C218.899 82.5013 218.564 82.4286 218.277 82.2832V81.7864C218.627 81.9803 218.96 82.0772 219.277 82.0772C220.04 82.0772 220.422 81.6713 220.422 80.8596V80.5203H220.41C220.173 80.9161 219.818 81.114 219.344 81.114C218.958 81.114 218.647 80.9767 218.411 80.7021C218.176 80.4254 218.059 80.0549 218.059 79.5904C218.059 79.0634 218.185 78.6444 218.438 78.3334C218.692 78.0224 219.04 77.8669 219.48 77.8669C219.898 77.8669 220.208 78.0345 220.41 78.3697H220.422V77.9396H220.919V80.7929ZM220.422 79.6389V79.1815C220.422 78.9351 220.338 78.7241 220.17 78.5484C220.005 78.3728 219.798 78.2849 219.549 78.2849C219.243 78.2849 219.002 78.397 218.829 78.6211C218.655 78.8433 218.568 79.1553 218.568 79.5571C218.568 79.9024 218.651 80.1791 218.816 80.387C218.984 80.593 219.205 80.696 219.48 80.696C219.758 80.696 219.985 80.5971 220.158 80.3992C220.334 80.2013 220.422 79.9478 220.422 79.6389ZM227.534 77.9396L226.604 81.0413H226.089L225.45 78.8211C225.426 78.7362 225.41 78.6403 225.402 78.5333H225.389C225.383 78.606 225.362 78.6999 225.326 78.815L224.632 81.0413H224.135L223.196 77.9396H223.717L224.36 80.2719C224.38 80.3426 224.394 80.4355 224.402 80.5506H224.426C224.432 80.4618 224.45 80.3668 224.481 80.2659L225.196 77.9396H225.65L226.292 80.278C226.312 80.3527 226.327 80.4456 226.337 80.5567H226.362C226.366 80.4779 226.383 80.385 226.413 80.278L227.043 77.9396H227.534ZM230.572 79.6146H228.382C228.39 79.96 228.483 80.2265 228.661 80.4143C228.838 80.6021 229.083 80.696 229.394 80.696C229.743 80.696 230.064 80.5809 230.357 80.3507V80.8172C230.084 81.0151 229.724 81.114 229.276 81.114C228.837 81.114 228.493 80.9737 228.243 80.693C227.992 80.4103 227.867 80.0135 227.867 79.5026C227.867 79.02 228.003 78.6272 228.276 78.3243C228.551 78.0194 228.891 77.8669 229.297 77.8669C229.703 77.8669 230.017 77.9982 230.239 78.2607C230.461 78.5232 230.572 78.8877 230.572 79.3542V79.6146ZM230.063 79.1936C230.061 78.9069 229.991 78.6837 229.854 78.5242C229.719 78.3647 229.53 78.2849 229.288 78.2849C229.053 78.2849 228.855 78.3687 228.691 78.5363C228.527 78.7039 228.426 78.923 228.388 79.1936H230.063ZM233.901 81.0413H233.404V79.2724C233.404 78.6141 233.164 78.2849 232.683 78.2849C232.435 78.2849 232.229 78.3788 232.065 78.5666C231.904 78.7524 231.823 78.9876 231.823 79.2724V81.0413H231.326V77.9396H231.823V78.4545H231.835C232.069 78.0628 232.409 77.8669 232.853 77.8669C233.192 77.8669 233.452 77.977 233.631 78.1971C233.811 78.4152 233.901 78.7312 233.901 79.1452V81.0413ZM236.279 81.011C236.162 81.0756 236.007 81.1079 235.815 81.1079C235.272 81.1079 235 80.805 235 80.1992V78.3637H234.467V77.9396H235V77.1824L235.497 77.0218V77.9396H236.279V78.3637H235.497V80.1114C235.497 80.3194 235.532 80.4678 235.603 80.5567C235.674 80.6455 235.791 80.6899 235.955 80.6899C236.08 80.6899 236.188 80.6556 236.279 80.587V81.011ZM242.552 77.9396L241.622 81.0413H241.107L240.468 78.8211C240.444 78.7362 240.427 78.6403 240.419 78.5333H240.407C240.401 78.606 240.38 78.6999 240.344 78.815L239.65 81.0413H239.153L238.214 77.9396H238.735L239.377 80.2719C239.397 80.3426 239.412 80.4355 239.42 80.5506H239.444C239.45 80.4618 239.468 80.3668 239.498 80.2659L240.213 77.9396H240.668L241.31 80.278C241.33 80.3527 241.345 80.4456 241.355 80.5567H241.379C241.383 80.4779 241.401 80.385 241.431 80.278L242.061 77.9396H242.552ZM244.745 78.4424C244.658 78.3758 244.533 78.3425 244.369 78.3425C244.157 78.3425 243.979 78.4424 243.836 78.6423C243.695 78.8423 243.624 79.1149 243.624 79.4602V81.0413H243.127V77.9396H243.624V78.5787H243.636C243.707 78.3606 243.815 78.191 243.96 78.0699C244.106 77.9467 244.268 77.8851 244.448 77.8851C244.577 77.8851 244.676 77.8992 244.745 77.9275V78.4424ZM246.495 81.114C246.037 81.114 245.671 80.9696 245.396 80.6809C245.123 80.3901 244.987 80.0054 244.987 79.5268C244.987 79.0058 245.129 78.5989 245.414 78.3061C245.699 78.0133 246.083 77.8669 246.568 77.8669C247.031 77.8669 247.391 78.0093 247.649 78.294C247.91 78.5787 248.04 78.9735 248.04 79.4783C248.04 79.9731 247.9 80.3699 247.619 80.6687C247.341 80.9656 246.966 81.114 246.495 81.114ZM246.532 78.2849C246.213 78.2849 245.96 78.394 245.775 78.6121C245.589 78.8281 245.496 79.127 245.496 79.5086C245.496 79.8762 245.59 80.1659 245.778 80.378C245.965 80.59 246.217 80.696 246.532 80.696C246.853 80.696 247.099 80.592 247.271 80.384C247.445 80.176 247.531 79.8802 247.531 79.4965C247.531 79.1088 247.445 78.8099 247.271 78.5999C247.099 78.3899 246.853 78.2849 246.532 78.2849ZM251.408 81.0413H250.912V79.2724C250.912 78.6141 250.671 78.2849 250.191 78.2849C249.942 78.2849 249.736 78.3788 249.573 78.5666C249.411 78.7524 249.331 78.9876 249.331 79.2724V81.0413H248.834V77.9396H249.331V78.4545H249.343C249.577 78.0628 249.916 77.8669 250.36 77.8669C250.7 77.8669 250.959 77.977 251.139 78.1971C251.319 78.4152 251.408 78.7312 251.408 79.1452V81.0413ZM254.995 80.7929C254.995 81.9318 254.45 82.5013 253.359 82.5013C252.975 82.5013 252.64 82.4286 252.354 82.2832V81.7864C252.703 81.9803 253.036 82.0772 253.353 82.0772C254.116 82.0772 254.498 81.6713 254.498 80.8596V80.5203H254.486C254.25 80.9161 253.894 81.114 253.42 81.114C253.034 81.114 252.723 80.9767 252.487 80.7021C252.253 80.4254 252.135 80.0549 252.135 79.5904C252.135 79.0634 252.262 78.6444 252.514 78.3334C252.768 78.0224 253.116 77.8669 253.556 77.8669C253.974 77.8669 254.284 78.0345 254.486 78.3697H254.498V77.9396H254.995V80.7929ZM254.498 79.6389V79.1815C254.498 78.9351 254.414 78.7241 254.247 78.5484C254.081 78.3728 253.874 78.2849 253.626 78.2849C253.319 78.2849 253.078 78.397 252.905 78.6211C252.731 78.8433 252.644 79.1553 252.644 79.5571C252.644 79.9024 252.727 80.1791 252.893 80.387C253.06 80.593 253.281 80.696 253.556 80.696C253.835 80.696 254.061 80.5971 254.235 80.3992C254.41 80.2013 254.498 79.9478 254.498 79.6389ZM259.817 80.8989C259.579 81.0423 259.296 81.114 258.969 81.114C258.527 81.114 258.169 80.9706 257.897 80.6839C257.626 80.3951 257.491 80.0215 257.491 79.5632C257.491 79.0523 257.637 78.6423 257.93 78.3334C258.223 78.0224 258.613 77.8669 259.102 77.8669C259.375 77.8669 259.615 77.9174 259.823 78.0184V78.5272C259.593 78.3657 259.346 78.2849 259.084 78.2849C258.767 78.2849 258.506 78.399 258.302 78.6272C258.101 78.8534 258 79.1512 258 79.5207C258 79.8842 258.094 80.171 258.284 80.381C258.476 80.591 258.733 80.696 259.054 80.696C259.324 80.696 259.579 80.6061 259.817 80.4264V80.8989ZM261.865 81.114C261.406 81.114 261.04 80.9696 260.765 80.6809C260.492 80.3901 260.356 80.0054 260.356 79.5268C260.356 79.0058 260.498 78.5989 260.783 78.3061C261.068 78.0133 261.453 77.8669 261.937 77.8669C262.4 77.8669 262.76 78.0093 263.019 78.294C263.279 78.5787 263.409 78.9735 263.409 79.4783C263.409 79.9731 263.269 80.3699 262.988 80.6687C262.71 80.9656 262.335 81.114 261.865 81.114ZM261.901 78.2849C261.582 78.2849 261.329 78.394 261.144 78.6121C260.958 78.8281 260.865 79.127 260.865 79.5086C260.865 79.8762 260.959 80.1659 261.147 80.378C261.334 80.59 261.586 80.696 261.901 80.696C262.222 80.696 262.468 80.592 262.64 80.384C262.814 80.176 262.9 79.8802 262.9 79.4965C262.9 79.1088 262.814 78.8099 262.64 78.5999C262.468 78.3899 262.222 78.2849 261.901 78.2849ZM266.778 81.0413H266.281V79.2724C266.281 78.6141 266.041 78.2849 265.56 78.2849C265.312 78.2849 265.106 78.3788 264.942 78.5666C264.78 78.7524 264.7 78.9876 264.7 79.2724V81.0413H264.203V77.9396H264.7V78.4545H264.712C264.946 78.0628 265.285 77.8669 265.73 77.8669C266.069 77.8669 266.328 77.977 266.508 78.1971C266.688 78.4152 266.778 78.7312 266.778 79.1452V81.0413ZM270.291 81.0413H269.794V79.2724C269.794 78.6141 269.554 78.2849 269.074 78.2849C268.825 78.2849 268.619 78.3788 268.456 78.5666C268.294 78.7524 268.213 78.9876 268.213 79.2724V81.0413H267.717V77.9396H268.213V78.4545H268.225C268.46 78.0628 268.799 77.8669 269.243 77.8669C269.582 77.8669 269.842 77.977 270.022 78.1971C270.201 78.4152 270.291 78.7312 270.291 79.1452V81.0413ZM273.723 79.6146H271.533C271.541 79.96 271.634 80.2265 271.812 80.4143C271.989 80.6021 272.234 80.696 272.545 80.696C272.894 80.696 273.215 80.5809 273.508 80.3507V80.8172C273.235 81.0151 272.875 81.114 272.427 81.114C271.988 81.114 271.644 80.9737 271.394 80.693C271.143 80.4103 271.018 80.0135 271.018 79.5026C271.018 79.02 271.154 78.6272 271.427 78.3243C271.702 78.0194 272.042 77.8669 272.448 77.8669C272.854 77.8669 273.168 77.9982 273.39 78.2607C273.612 78.5232 273.723 78.8877 273.723 79.3542V79.6146ZM273.214 79.1936C273.212 78.9069 273.143 78.6837 273.005 78.5242C272.87 78.3647 272.681 78.2849 272.439 78.2849C272.205 78.2849 272.006 78.3687 271.842 78.5363C271.678 78.7039 271.578 78.923 271.539 79.1936H273.214ZM276.592 80.8989C276.353 81.0423 276.071 81.114 275.743 81.114C275.301 81.114 274.944 80.9706 274.671 80.6839C274.401 80.3951 274.265 80.0215 274.265 79.5632C274.265 79.0523 274.412 78.6423 274.704 78.3334C274.997 78.0224 275.388 77.8669 275.877 77.8669C276.149 77.8669 276.39 77.9174 276.598 78.0184V78.5272C276.367 78.3657 276.121 78.2849 275.859 78.2849C275.541 78.2849 275.281 78.399 275.077 78.6272C274.875 78.8534 274.774 79.1512 274.774 79.5207C274.774 79.8842 274.869 80.171 275.059 80.381C275.251 80.591 275.507 80.696 275.828 80.696C276.099 80.696 276.353 80.6061 276.592 80.4264V80.8989ZM278.781 81.011C278.664 81.0756 278.51 81.1079 278.318 81.1079C277.775 81.1079 277.503 80.805 277.503 80.1992V78.3637H276.97V77.9396H277.503V77.1824L278 77.0218V77.9396H278.781V78.3637H278V80.1114C278 80.3194 278.035 80.4678 278.106 80.5567C278.177 80.6455 278.294 80.6899 278.457 80.6899C278.583 80.6899 278.691 80.6556 278.781 80.587V81.011ZM279.699 77.1521C279.61 77.1521 279.535 77.1218 279.472 77.0612C279.41 77.0006 279.378 76.9239 279.378 76.831C279.378 76.7381 279.41 76.6614 279.472 76.6008C279.535 76.5382 279.61 76.5069 279.699 76.5069C279.79 76.5069 279.867 76.5382 279.929 76.6008C279.994 76.6614 280.026 76.7381 280.026 76.831C280.026 76.9199 279.994 76.9956 279.929 77.0582C279.867 77.1208 279.79 77.1521 279.699 77.1521ZM279.942 81.0413H279.445V77.9396H279.942V81.0413ZM283.522 81.0413H283.025V79.2724C283.025 78.6141 282.785 78.2849 282.304 78.2849C282.056 78.2849 281.85 78.3788 281.686 78.5666C281.525 78.7524 281.444 78.9876 281.444 79.2724V81.0413H280.947V77.9396H281.444V78.4545H281.456C281.69 78.0628 282.03 77.8669 282.474 77.8669C282.813 77.8669 283.073 77.977 283.252 78.1971C283.432 78.4152 283.522 78.7312 283.522 79.1452V81.0413ZM287.108 80.7929C287.108 81.9318 286.563 82.5013 285.473 82.5013C285.089 82.5013 284.754 82.4286 284.467 82.2832V81.7864C284.816 81.9803 285.149 82.0772 285.466 82.0772C286.23 82.0772 286.611 81.6713 286.611 80.8596V80.5203H286.599C286.363 80.9161 286.008 81.114 285.533 81.114C285.147 81.114 284.836 80.9767 284.6 80.7021C284.366 80.4254 284.249 80.0549 284.249 79.5904C284.249 79.0634 284.375 78.6444 284.627 78.3334C284.882 78.0224 285.229 77.8669 285.669 77.8669C286.087 77.8669 286.397 78.0345 286.599 78.3697H286.611V77.9396H287.108V80.7929ZM286.611 79.6389V79.1815C286.611 78.9351 286.528 78.7241 286.36 78.5484C286.194 78.3728 285.987 78.2849 285.739 78.2849C285.432 78.2849 285.192 78.397 285.018 78.6211C284.845 78.8433 284.758 79.1553 284.758 79.5571C284.758 79.9024 284.84 80.1791 285.006 80.387C285.174 80.593 285.395 80.696 285.669 80.696C285.948 80.696 286.174 80.5971 286.348 80.3992C286.524 80.2013 286.611 79.9478 286.611 79.6389ZM291.255 81.011C291.138 81.0756 290.983 81.1079 290.791 81.1079C290.248 81.1079 289.977 80.805 289.977 80.1992V78.3637H289.444V77.9396H289.977V77.1824L290.473 77.0218V77.9396H291.255V78.3637H290.473V80.1114C290.473 80.3194 290.509 80.4678 290.579 80.5567C290.65 80.6455 290.767 80.6899 290.931 80.6899C291.056 80.6899 291.164 80.6556 291.255 80.587V81.011ZM293.166 81.114C292.708 81.114 292.341 80.9696 292.067 80.6809C291.794 80.3901 291.658 80.0054 291.658 79.5268C291.658 79.0058 291.8 78.5989 292.085 78.3061C292.37 78.0133 292.754 77.8669 293.239 77.8669C293.701 77.8669 294.062 78.0093 294.32 78.294C294.581 78.5787 294.711 78.9735 294.711 79.4783C294.711 79.9731 294.571 80.3699 294.29 80.6687C294.011 80.9656 293.637 81.114 293.166 81.114ZM293.203 78.2849C292.883 78.2849 292.631 78.394 292.445 78.6121C292.26 78.8281 292.167 79.127 292.167 79.5086C292.167 79.8762 292.261 80.1659 292.448 80.378C292.636 80.59 292.888 80.696 293.203 80.696C293.524 80.696 293.77 80.592 293.942 80.384C294.115 80.176 294.202 79.8802 294.202 79.4965C294.202 79.1088 294.115 78.8099 293.942 78.5999C293.77 78.3899 293.524 78.2849 293.203 78.2849ZM300.766 80.7505C300.342 80.9949 299.815 81.117 299.185 81.117C298.486 81.117 297.935 80.9242 297.531 80.5385C297.129 80.1508 296.928 79.6177 296.928 78.9392C296.928 78.2566 297.148 77.7003 297.589 77.2702C298.029 76.8401 298.614 76.625 299.345 76.625C299.806 76.625 300.212 76.6886 300.563 76.8159V77.7336C300.228 77.5398 299.818 77.4429 299.333 77.4429C298.927 77.4429 298.596 77.5751 298.34 77.8397C298.085 78.1022 297.958 78.4535 297.958 78.8937C297.958 79.34 298.072 79.6853 298.3 79.9297C298.531 80.174 298.841 80.2962 299.23 80.2962C299.464 80.2962 299.65 80.2629 299.788 80.1962V79.3481H298.918V78.5666H300.766V80.7505ZM302.995 81.117C302.478 81.117 302.071 80.9726 301.775 80.6839C301.48 80.3931 301.332 79.9993 301.332 79.5026C301.332 78.9897 301.486 78.5888 301.793 78.3001C302.1 78.0093 302.515 77.8639 303.038 77.8639C303.553 77.8639 303.956 78.0093 304.249 78.3001C304.542 78.5888 304.688 78.9715 304.688 79.4481C304.688 79.963 304.537 80.3699 304.234 80.6687C303.933 80.9676 303.52 81.117 302.995 81.117ZM303.02 78.5969C302.793 78.5969 302.618 78.6747 302.492 78.8301C302.367 78.9856 302.305 79.2057 302.305 79.4905C302.305 80.0862 302.545 80.384 303.026 80.384C303.484 80.384 303.713 80.0781 303.713 79.4662C303.713 78.8867 303.482 78.5969 303.02 78.5969ZM306.788 81.117C306.271 81.117 305.864 80.9726 305.567 80.6839C305.272 80.3931 305.125 79.9993 305.125 79.5026C305.125 78.9897 305.278 78.5888 305.585 78.3001C305.892 78.0093 306.307 77.8639 306.83 77.8639C307.345 77.8639 307.749 78.0093 308.042 78.3001C308.334 78.5888 308.481 78.9715 308.481 79.4481C308.481 79.963 308.329 80.3699 308.026 80.6687C307.726 80.9676 307.313 81.117 306.788 81.117ZM306.812 78.5969C306.586 78.5969 306.41 78.6747 306.285 78.8301C306.16 78.9856 306.097 79.2057 306.097 79.4905C306.097 80.0862 306.337 80.384 306.818 80.384C307.276 80.384 307.505 80.0781 307.505 79.4662C307.505 78.8867 307.274 78.5969 306.812 78.5969ZM312.143 80.6869C312.143 81.2624 311.976 81.7077 311.643 82.0227C311.31 82.3397 310.827 82.4983 310.195 82.4983C309.777 82.4983 309.446 82.4387 309.202 82.3195V81.5138C309.521 81.6996 309.843 81.7925 310.168 81.7925C310.491 81.7925 310.741 81.7067 310.919 81.535C311.097 81.3654 311.186 81.1342 311.186 80.8414V80.596H311.174C310.955 80.9434 310.633 81.117 310.207 81.117C309.812 81.117 309.498 80.9777 309.265 80.699C309.033 80.4204 308.917 80.0468 308.917 79.5783C308.917 79.0533 309.046 78.6363 309.305 78.3273C309.563 78.0184 309.903 77.8639 310.325 77.8639C310.703 77.8639 310.986 78.0093 311.174 78.3001H311.186V77.9396H312.143V80.6869ZM311.198 79.551V79.3057C311.198 79.1098 311.139 78.9432 311.022 78.8059C310.907 78.6666 310.757 78.5969 310.571 78.5969C310.359 78.5969 310.192 78.6797 310.071 78.8453C309.95 79.0109 309.889 79.2441 309.889 79.545C309.889 79.8035 309.947 80.0084 310.062 80.1599C310.177 80.3093 310.335 80.384 310.534 80.384C310.732 80.384 310.892 80.3083 311.013 80.1568C311.136 80.0034 311.198 79.8014 311.198 79.551ZM313.9 81.0413H312.943V76.4493H313.9V81.0413ZM317.492 79.7631H315.469C315.501 80.2134 315.785 80.4385 316.32 80.4385C316.661 80.4385 316.961 80.3578 317.219 80.1962V80.8868C316.933 81.0403 316.56 81.117 316.102 81.117C315.601 81.117 315.212 80.9787 314.936 80.7021C314.659 80.4234 314.521 80.0357 314.521 79.5389C314.521 79.024 314.67 78.6161 314.969 78.3152C315.268 78.0143 315.635 77.8639 316.071 77.8639C316.524 77.8639 316.873 77.9982 317.119 78.2667C317.368 78.5353 317.492 78.8998 317.492 79.3602V79.7631ZM316.605 79.1754C316.605 78.7312 316.425 78.5091 316.065 78.5091C315.912 78.5091 315.779 78.5727 315.666 78.6999C315.555 78.8271 315.487 78.9856 315.463 79.1754H316.605ZM195.439 90.8868C195.122 91.0403 194.708 91.117 194.197 91.117C193.53 91.117 193.006 90.9212 192.625 90.5294C192.243 90.1377 192.052 89.6157 192.052 88.9634C192.052 88.2688 192.266 87.7054 192.694 87.2732C193.125 86.8411 193.682 86.625 194.366 86.625C194.79 86.625 195.148 86.6785 195.439 86.7856V87.7276C195.148 87.5539 194.817 87.4671 194.445 87.4671C194.037 87.4671 193.708 87.5953 193.458 87.8518C193.207 88.1082 193.082 88.4556 193.082 88.8937C193.082 89.3138 193.2 89.649 193.437 89.8994C193.673 90.1478 193.991 90.2719 194.391 90.2719C194.772 90.2719 195.122 90.1791 195.439 89.9933V90.8868ZM198.683 91.0413H197.777V90.596H197.765C197.557 90.9434 197.249 91.117 196.841 91.117C196.54 91.117 196.303 91.0322 196.129 90.8626C195.958 90.691 195.872 90.4628 195.872 90.178C195.872 89.5763 196.228 89.229 196.941 89.1361L197.783 89.024C197.783 88.6847 197.599 88.5151 197.232 88.5151C196.862 88.5151 196.511 88.6252 196.178 88.8453V88.1244C196.311 88.0557 196.493 87.9951 196.723 87.9426C196.955 87.8901 197.166 87.8639 197.356 87.8639C198.241 87.8639 198.683 88.3051 198.683 89.1876V91.0413ZM197.783 89.7812V89.5722L197.22 89.6449C196.909 89.6853 196.753 89.8257 196.753 90.066C196.753 90.175 196.791 90.2649 196.865 90.3355C196.942 90.4042 197.045 90.4385 197.174 90.4385C197.354 90.4385 197.5 90.3769 197.614 90.2538C197.727 90.1286 197.783 89.9711 197.783 89.7812ZM200.397 91.0413H199.44V86.4493H200.397V91.0413ZM203.99 89.7631H201.966C201.998 90.2134 202.282 90.4385 202.817 90.4385C203.159 90.4385 203.458 90.3578 203.717 90.1962V90.8868C203.43 91.0403 203.058 91.117 202.599 91.117C202.098 91.117 201.71 90.9787 201.433 90.7021C201.156 90.4234 201.018 90.0357 201.018 89.5389C201.018 89.024 201.168 88.6161 201.466 88.3152C201.765 88.0143 202.133 87.8639 202.569 87.8639C203.021 87.8639 203.371 87.9982 203.617 88.2667C203.865 88.5353 203.99 88.8998 203.99 89.3602V89.7631ZM203.102 89.1754C203.102 88.7312 202.922 88.5091 202.563 88.5091C202.409 88.5091 202.276 88.5727 202.163 88.6999C202.052 88.8271 201.984 88.9856 201.96 89.1754H203.102ZM207.555 91.0413H206.601V89.3178C206.601 88.8372 206.429 88.5969 206.086 88.5969C205.92 88.5969 205.784 88.6605 205.677 88.7877C205.57 88.915 205.516 89.0765 205.516 89.2724V91.0413H204.559V87.9396H205.516V88.4303H205.528C205.756 88.0527 206.089 87.8639 206.525 87.8639C207.211 87.8639 207.555 88.29 207.555 89.1421V91.0413ZM211.35 91.0413H210.393V90.6142H210.381C210.163 90.9494 209.843 91.117 209.421 91.117C209.033 91.117 208.721 90.9807 208.485 90.7081C208.248 90.4335 208.13 90.0508 208.13 89.5601C208.13 89.0472 208.26 88.6363 208.521 88.3273C208.781 88.0184 209.123 87.8639 209.545 87.8639C209.945 87.8639 210.223 88.0073 210.381 88.294H210.393V86.4493H211.35V91.0413ZM210.411 89.5329V89.2996C210.411 89.0977 210.352 88.9301 210.235 88.7968C210.118 88.6635 209.966 88.5969 209.778 88.5969C209.566 88.5969 209.4 88.6807 209.281 88.8483C209.162 89.0139 209.102 89.2421 209.102 89.5329C209.102 89.8055 209.16 90.0155 209.275 90.1629C209.39 90.3103 209.55 90.384 209.754 90.384C209.948 90.384 210.105 90.3063 210.226 90.1508C210.349 89.9953 210.411 89.7893 210.411 89.5329ZM214.736 91.0413H213.831V90.596H213.819C213.611 90.9434 213.303 91.117 212.895 91.117C212.594 91.117 212.357 91.0322 212.183 90.8626C212.011 90.691 211.926 90.4628 211.926 90.178C211.926 89.5763 212.282 89.229 212.995 89.1361L213.837 89.024C213.837 88.6847 213.653 88.5151 213.286 88.5151C212.916 88.5151 212.565 88.6252 212.231 88.8453V88.1244C212.365 88.0557 212.546 87.9951 212.777 87.9426C213.009 87.8901 213.22 87.8639 213.41 87.8639C214.294 87.8639 214.736 88.3051 214.736 89.1876V91.0413ZM213.837 89.7812V89.5722L213.273 89.6449C212.962 89.6853 212.807 89.8257 212.807 90.066C212.807 90.175 212.844 90.2649 212.919 90.3355C212.996 90.4042 213.099 90.4385 213.228 90.4385C213.408 90.4385 213.554 90.3769 213.667 90.2538C213.78 90.1286 213.837 89.9711 213.837 89.7812ZM217.517 88.8029C217.402 88.7403 217.268 88.709 217.114 88.709C216.906 88.709 216.744 88.7857 216.627 88.9392C216.509 89.0906 216.451 89.2976 216.451 89.5601V91.0413H215.494V87.9396H216.451V88.5151H216.463C216.614 88.0951 216.887 87.8851 217.281 87.8851C217.382 87.8851 217.46 87.8972 217.517 87.9214V88.8029ZM218.238 91.1079C218.145 91.1079 218.065 91.0746 217.999 91.008C217.934 90.9413 217.902 90.8616 217.902 90.7687C217.902 90.6758 217.934 90.596 217.999 90.5294C218.065 90.4607 218.145 90.4264 218.238 90.4264C218.333 90.4264 218.414 90.4607 218.48 90.5294C218.547 90.596 218.58 90.6758 218.58 90.7687C218.58 90.8616 218.547 90.9413 218.48 91.008C218.414 91.0746 218.333 91.1079 218.238 91.1079ZM223.748 87.1581H222.494V91.0413H221.985V87.1581H220.734V86.6977H223.748V87.1581ZM225.444 88.4424C225.357 88.3758 225.232 88.3425 225.068 88.3425C224.856 88.3425 224.679 88.4424 224.535 88.6423C224.394 88.8423 224.323 89.1149 224.323 89.4602V91.0413H223.826V87.9396H224.323V88.5787H224.335C224.406 88.3606 224.514 88.191 224.659 88.0699C224.805 87.9467 224.967 87.8851 225.147 87.8851C225.276 87.8851 225.375 87.8992 225.444 87.9275V88.4424ZM228.7 87.9396L227.273 91.5381C227.019 92.1802 226.662 92.5013 226.201 92.5013C226.072 92.5013 225.964 92.4882 225.877 92.4619V92.0166C225.984 92.053 226.082 92.0712 226.171 92.0712C226.421 92.0712 226.609 91.9217 226.734 91.6229L226.983 91.0352L225.771 87.9396H226.322L227.161 90.3265C227.171 90.3568 227.193 90.4355 227.225 90.5627H227.243C227.253 90.5143 227.273 90.4375 227.304 90.3325L228.185 87.9396H228.7ZM233.159 91.0413H232.662V90.5567H232.65C232.434 90.9282 232.116 91.114 231.696 91.114C231.387 91.114 231.144 91.0322 230.969 90.8687C230.795 90.7051 230.708 90.488 230.708 90.2174C230.708 89.6379 231.05 89.3006 231.732 89.2057L232.662 89.0755C232.662 88.5484 232.449 88.2849 232.023 88.2849C231.649 88.2849 231.312 88.4121 231.011 88.6666V88.1577C231.316 87.9638 231.667 87.8669 232.065 87.8669C232.794 87.8669 233.159 88.2526 233.159 89.024V91.0413ZM232.662 89.4723L231.914 89.5753C231.684 89.6076 231.51 89.6651 231.393 89.7479C231.276 89.8287 231.217 89.9731 231.217 90.1811C231.217 90.3325 231.271 90.4567 231.378 90.5536C231.487 90.6485 231.631 90.696 231.811 90.696C232.057 90.696 232.26 90.6102 232.42 90.4385C232.581 90.2649 232.662 90.0458 232.662 89.7812V89.4723ZM236.742 90.7929C236.742 91.9318 236.197 92.5013 235.106 92.5013C234.723 92.5013 234.388 92.4286 234.101 92.2832V91.7864C234.45 91.9803 234.783 92.0772 235.1 92.0772C235.864 92.0772 236.245 91.6713 236.245 90.8596V90.5203H236.233C235.997 90.9161 235.642 91.114 235.167 91.114C234.781 91.114 234.47 90.9767 234.234 90.7021C234 90.4254 233.883 90.0549 233.883 89.5904C233.883 89.0634 234.009 88.6444 234.261 88.3334C234.516 88.0224 234.863 87.8669 235.303 87.8669C235.721 87.8669 236.031 88.0345 236.233 88.3697H236.245V87.9396H236.742V90.7929ZM236.245 89.6389V89.1815C236.245 88.9351 236.162 88.7241 235.994 88.5484C235.828 88.3728 235.621 88.2849 235.373 88.2849C235.066 88.2849 234.826 88.397 234.652 88.6211C234.478 88.8433 234.392 89.1553 234.392 89.5571C234.392 89.9024 234.474 90.1791 234.64 90.387C234.808 90.593 235.029 90.696 235.303 90.696C235.582 90.696 235.808 90.5971 235.982 90.3992C236.157 90.2013 236.245 89.9478 236.245 89.6389ZM239.968 91.0413H239.471V90.5567H239.459C239.243 90.9282 238.925 91.114 238.505 91.114C238.196 91.114 237.954 91.0322 237.778 90.8687C237.604 90.7051 237.517 90.488 237.517 90.2174C237.517 89.6379 237.859 89.3006 238.541 89.2057L239.471 89.0755C239.471 88.5484 239.258 88.2849 238.832 88.2849C238.458 88.2849 238.121 88.4121 237.82 88.6666V88.1577C238.125 87.9638 238.477 87.8669 238.874 87.8669C239.603 87.8669 239.968 88.2526 239.968 89.024V91.0413ZM239.471 89.4723L238.723 89.5753C238.493 89.6076 238.319 89.6651 238.202 89.7479C238.085 89.8287 238.026 89.9731 238.026 90.1811C238.026 90.3325 238.08 90.4567 238.187 90.5536C238.296 90.6485 238.44 90.696 238.62 90.696C238.866 90.696 239.069 90.6102 239.229 90.4385C239.39 90.2649 239.471 90.0458 239.471 89.7812V89.4723ZM241.158 87.1521C241.069 87.1521 240.994 87.1218 240.931 87.0612C240.869 87.0006 240.837 86.9239 240.837 86.831C240.837 86.7381 240.869 86.6614 240.931 86.6008C240.994 86.5382 241.069 86.5069 241.158 86.5069C241.249 86.5069 241.326 86.5382 241.389 86.6008C241.453 86.6614 241.485 86.7381 241.485 86.831C241.485 86.9199 241.453 86.9956 241.389 87.0582C241.326 87.1208 241.249 87.1521 241.158 87.1521ZM241.401 91.0413H240.904V87.9396H241.401V91.0413ZM244.981 91.0413H244.484V89.2724C244.484 88.6141 244.244 88.2849 243.763 88.2849C243.515 88.2849 243.309 88.3788 243.145 88.5666C242.984 88.7524 242.903 88.9876 242.903 89.2724V91.0413H242.406V87.9396H242.903V88.4545H242.915C243.149 88.0628 243.489 87.8669 243.933 87.8669C244.272 87.8669 244.532 87.977 244.711 88.1971C244.891 88.4152 244.981 88.7312 244.981 89.1452V91.0413ZM248.119 91.0413H247.622V86.4493H248.119V91.0413ZM251.345 91.0413H250.848V90.5567H250.836C250.62 90.9282 250.302 91.114 249.882 91.114C249.573 91.114 249.331 91.0322 249.155 90.8687C248.981 90.7051 248.894 90.488 248.894 90.2174C248.894 89.6379 249.236 89.3006 249.918 89.2057L250.848 89.0755C250.848 88.5484 250.635 88.2849 250.209 88.2849C249.835 88.2849 249.498 88.4121 249.197 88.6666V88.1577C249.502 87.9638 249.854 87.8669 250.251 87.8669C250.98 87.8669 251.345 88.2526 251.345 89.024V91.0413ZM250.848 89.4723L250.1 89.5753C249.87 89.6076 249.696 89.6651 249.579 89.7479C249.462 89.8287 249.403 89.9731 249.403 90.1811C249.403 90.3325 249.457 90.4567 249.564 90.5536C249.673 90.6485 249.817 90.696 249.997 90.696C250.243 90.696 250.446 90.6102 250.606 90.4385C250.767 90.2649 250.848 90.0458 250.848 89.7812V89.4723ZM253.72 91.011C253.602 91.0756 253.448 91.1079 253.256 91.1079C252.713 91.1079 252.441 90.805 252.441 90.1992V88.3637H251.908V87.9396H252.441V87.1824L252.938 87.0218V87.9396H253.72V88.3637H252.938V90.1114C252.938 90.3194 252.973 90.4678 253.044 90.5567C253.115 90.6455 253.232 90.6899 253.395 90.6899C253.521 90.6899 253.629 90.6556 253.72 90.587V91.011ZM256.827 89.6146H254.637C254.645 89.96 254.738 90.2265 254.916 90.4143C255.094 90.6021 255.338 90.696 255.649 90.696C255.998 90.696 256.319 90.5809 256.612 90.3507V90.8172C256.34 91.0151 255.979 91.114 255.531 91.114C255.093 91.114 254.748 90.9737 254.498 90.693C254.248 90.4103 254.122 90.0135 254.122 89.5026C254.122 89.02 254.259 88.6272 254.531 88.3243C254.806 88.0194 255.146 87.8669 255.552 87.8669C255.958 87.8669 256.272 87.9982 256.494 88.2607C256.716 88.5232 256.827 88.8877 256.827 89.3542V89.6146ZM256.318 89.1936C256.316 88.9069 256.247 88.6837 256.109 88.5242C255.974 88.3647 255.785 88.2849 255.543 88.2849C255.309 88.2849 255.11 88.3687 254.946 88.5363C254.783 88.7039 254.682 88.923 254.643 89.1936H256.318ZM259.199 88.4424C259.112 88.3758 258.987 88.3425 258.823 88.3425C258.611 88.3425 258.434 88.4424 258.29 88.6423C258.149 88.8423 258.078 89.1149 258.078 89.4602V91.0413H257.582V87.9396H258.078V88.5787H258.09C258.161 88.3606 258.269 88.191 258.415 88.0699C258.56 87.9467 258.722 87.8851 258.902 87.8851C259.031 87.8851 259.13 87.8992 259.199 87.9275V88.4424ZM259.396 91.1079C259.303 91.1079 259.223 91.0746 259.157 91.008C259.092 90.9413 259.06 90.8616 259.06 90.7687C259.06 90.6758 259.092 90.596 259.157 90.5294C259.223 90.4607 259.303 90.4264 259.396 90.4264C259.491 90.4264 259.572 90.4607 259.638 90.5294C259.705 90.596 259.738 90.6758 259.738 90.7687C259.738 90.8616 259.705 90.9413 259.638 91.008C259.572 91.0746 259.491 91.1079 259.396 91.1079Z" fill="white" fill-opacity="0.7"/>
<rect x="314.069" y="103.125" width="28.1913" height="13.7361" rx="6.86803" stroke="white" stroke-opacity="0.3" stroke-width="0.443099"/>
<path d="M323.578 112.285C323.204 112.479 322.739 112.576 322.183 112.576C321.463 112.576 320.886 112.349 320.452 111.894C320.018 111.439 319.801 110.843 319.801 110.104C319.801 109.31 320.045 108.669 320.531 108.18C321.021 107.69 321.638 107.446 322.383 107.446C322.864 107.446 323.262 107.514 323.578 107.65V108.467C323.243 108.268 322.874 108.169 322.47 108.169C321.932 108.169 321.496 108.341 321.162 108.685C320.829 109.029 320.663 109.488 320.663 110.063C320.663 110.61 320.819 111.046 321.13 111.371C321.442 111.694 321.852 111.856 322.359 111.856C322.828 111.856 323.234 111.745 323.578 111.524V112.285ZM325.236 112.493H324.429V107.245H325.236V112.493ZM327.856 112.576C327.31 112.576 326.872 112.411 326.544 112.081C326.219 111.749 326.056 111.309 326.056 110.762C326.056 110.167 326.226 109.702 326.565 109.367C326.907 109.032 327.366 108.865 327.943 108.865C328.497 108.865 328.928 109.028 329.238 109.353C329.547 109.678 329.702 110.13 329.702 110.707C329.702 111.272 329.534 111.726 329.2 112.067C328.867 112.406 328.42 112.576 327.856 112.576ZM327.895 109.505C327.581 109.505 327.333 109.615 327.15 109.834C326.968 110.054 326.877 110.356 326.877 110.741C326.877 111.113 326.969 111.406 327.154 111.621C327.338 111.833 327.585 111.939 327.895 111.939C328.211 111.939 328.453 111.834 328.621 111.624C328.792 111.414 328.878 111.115 328.878 110.727C328.878 110.337 328.792 110.036 328.621 109.824C328.453 109.612 328.211 109.505 327.895 109.505ZM330.3 112.382V111.638C330.6 111.866 330.932 111.981 331.294 111.981C331.779 111.981 332.021 111.837 332.021 111.551C332.021 111.471 332 111.402 331.959 111.347C331.917 111.289 331.861 111.239 331.789 111.195C331.72 111.151 331.637 111.112 331.54 111.077C331.445 111.042 331.339 111.003 331.221 110.959C331.076 110.902 330.944 110.84 330.827 110.776C330.711 110.711 330.614 110.639 330.536 110.558C330.46 110.475 330.402 110.381 330.363 110.277C330.324 110.174 330.304 110.052 330.304 109.914C330.304 109.743 330.344 109.593 330.425 109.464C330.506 109.332 330.614 109.223 330.75 109.135C330.887 109.045 331.041 108.978 331.214 108.934C331.387 108.888 331.566 108.865 331.751 108.865C332.079 108.865 332.372 108.915 332.63 109.014V109.717C332.381 109.546 332.095 109.46 331.772 109.46C331.67 109.46 331.578 109.471 331.495 109.492C331.414 109.512 331.345 109.541 331.287 109.578C331.229 109.615 331.184 109.66 331.152 109.713C331.12 109.764 331.104 109.82 331.104 109.883C331.104 109.959 331.12 110.024 331.152 110.077C331.184 110.13 331.232 110.177 331.294 110.219C331.359 110.258 331.435 110.295 331.522 110.329C331.612 110.362 331.715 110.397 331.831 110.437C331.983 110.499 332.119 110.562 332.239 110.627C332.361 110.692 332.465 110.765 332.551 110.849C332.636 110.929 332.702 111.024 332.748 111.132C332.794 111.239 332.817 111.365 332.817 111.513C332.817 111.693 332.776 111.85 332.692 111.984C332.609 112.118 332.499 112.229 332.36 112.316C332.222 112.404 332.061 112.469 331.879 112.51C331.699 112.554 331.509 112.576 331.308 112.576C330.92 112.576 330.584 112.511 330.3 112.382ZM336.583 110.939H334.167C334.176 111.266 334.277 111.519 334.468 111.697C334.662 111.874 334.928 111.963 335.265 111.963C335.643 111.963 335.99 111.85 336.306 111.624V112.271C335.983 112.474 335.556 112.576 335.026 112.576C334.504 112.576 334.094 112.416 333.797 112.095C333.501 111.772 333.354 111.318 333.354 110.734C333.354 110.183 333.516 109.734 333.842 109.388C334.169 109.039 334.576 108.865 335.06 108.865C335.545 108.865 335.92 109.021 336.185 109.332C336.451 109.644 336.583 110.077 336.583 110.63V110.939ZM335.808 110.371C335.806 110.082 335.738 109.858 335.604 109.699C335.47 109.538 335.285 109.457 335.05 109.457C334.819 109.457 334.623 109.541 334.461 109.71C334.302 109.878 334.204 110.099 334.167 110.371H335.808Z" fill="white" fill-opacity="0.95"/>
<defs>
<filter id="filter0_dd_1118_15458" x="90.2132" y="15.5569" width="309.574" height="180.189" filterUnits="userSpaceOnUse" color-interpolation-filters="sRGB">
<feFlood flood-opacity="0" result="BackgroundImageFix"/>
<feColorMatrix in="SourceAlpha" type="matrix" values="0 0 0 0 0 0 0 0 0 0 0 0 0 0 0 0 0 0 127 0" result="hardAlpha"/>
<feOffset/>
<feGaussianBlur stdDeviation="0.5"/>
<feColorMatrix type="matrix" values="0 0 0 0 0 0 0 0 0 0 0 0 0 0 0 0 0 0 0.12 0"/>
<feBlend mode="normal" in2="BackgroundImageFix" result="effect1_dropShadow_1118_15458"/>
<feColorMatrix in="SourceAlpha" type="matrix" values="0 0 0 0 0 0 0 0 0 0 0 0 0 0 0 0 0 0 127 0" result="hardAlpha"/>
<feOffset dy="24"/>
<feGaussianBlur stdDeviation="24"/>
<feColorMatrix type="matrix" values="0 0 0 0 0 0 0 0 0 0 0 0 0 0 0 0 0 0 0.2 0"/>
<feBlend mode="normal" in2="effect1_dropShadow_1118_15458" result="effect2_dropShadow_1118_15458"/>
<feBlend mode="normal" in="SourceGraphic" in2="effect2_dropShadow_1118_15458" result="shape"/>
</filter>
<linearGradient id="paint0_linear_1118_15458" x1="165.226" y1="66.9919" x2="165.226" y2="92.9331" gradientUnits="userSpaceOnUse">
<stop stop-color="#F0677E"/>
<stop offset="1" stop-color="#DB1F2E"/>
</linearGradient>
</defs>
</svg>
