<svg width="640" height="322" viewBox="0 0 640 322" fill="none" xmlns="http://www.w3.org/2000/svg">
<rect width="640" height="322" rx="24" fill="#262626"/>
<path d="M207.7 261.96H209.8C210.04 263.58 211.36 264.62 213.5 264.62C215.9 264.62 217.12 263.46 217.12 262.1C217.12 260.76 216.46 260.14 212.58 259.08C209.24 258.16 208.2 256.98 208.2 255C208.2 252.9 210.06 251.3 213.36 251.3C216.44 251.3 218.7 252.76 219.06 255.2H216.96C216.74 253.8 215.52 252.98 213.36 252.98C211.16 252.98 210.24 253.84 210.24 254.92C210.24 256.04 210.72 256.58 214.02 257.5C218.02 258.62 219.16 259.8 219.16 262.02C219.16 264.26 217.12 266.3 213.54 266.3C210.44 266.3 208.1 264.6 207.7 261.96Z" fill="white" fill-opacity="0.95"/>
<path d="M316.84 263H314.92L310.48 251.72V263H308.5V248.6H311.34L315.92 260.6L320.24 248.6H322.92V263H321V251.82L316.84 263Z" fill="white" fill-opacity="0.95"/>
<path d="M405.5 248.6H407.56V261.18H414.34V263H405.5V248.6Z" fill="white" fill-opacity="0.95"/>
<rect x="191.5" y="193.5" width="96" height="96" stroke="white" stroke-opacity="0.95"/>
<rect x="191.5" y="131.5" width="158" height="158" stroke="white" stroke-opacity="0.95"/>
<rect x="191.5" y="32.5" width="257" height="257" stroke="white" stroke-opacity="0.95"/>
<path d="M333.545 150.854C333.545 150.578 333.322 150.354 333.045 150.354L328.545 150.354C328.269 150.354 328.045 150.578 328.045 150.854C328.045 151.13 328.269 151.354 328.545 151.354L332.545 151.354L332.545 155.354C332.545 155.63 332.769 155.854 333.045 155.854C333.322 155.854 333.545 155.63 333.545 155.354L333.545 150.854ZM317.455 167.151L333.399 151.207L332.692 150.5L316.748 166.444L317.455 167.151Z" fill="white" fill-opacity="0.95"/>
<path d="M302.107 181.292C302.107 181.568 302.331 181.792 302.607 181.792L307.107 181.792C307.383 181.792 307.607 181.568 307.607 181.292C307.607 181.016 307.383 180.792 307.107 180.792L303.107 180.792L303.107 176.792C303.107 176.516 302.883 176.292 302.607 176.292C302.331 176.292 302.107 176.516 302.107 176.792L302.107 181.292ZM316.748 166.444L302.254 180.938L302.961 181.646L317.455 167.151L316.748 166.444Z" fill="white" fill-opacity="0.95"/>
<path d="M435.006 47.9438C435.006 47.6677 434.782 47.4438 434.506 47.4438L430.006 47.4438C429.73 47.4438 429.506 47.6677 429.506 47.9438C429.506 48.22 429.73 48.4438 430.006 48.4438L434.006 48.4438L434.006 52.4438C434.006 52.72 434.23 52.9438 434.506 52.9438C434.782 52.9438 435.006 52.72 435.006 52.4438L435.006 47.9438ZM396.139 87.0181L434.859 48.2974L434.152 47.5903L395.432 86.311L396.139 87.0181Z" fill="white" fill-opacity="0.95"/>
<path d="M360.085 121.865C360.085 122.141 360.308 122.365 360.585 122.365L365.085 122.365C365.361 122.365 365.585 122.141 365.585 121.865C365.585 121.589 365.361 121.365 365.085 121.365L361.085 121.365L361.085 117.365C361.085 117.089 360.861 116.865 360.585 116.865C360.308 116.865 360.085 117.089 360.085 117.365L360.085 121.865ZM395.432 86.311L360.231 121.512L360.938 122.219L396.139 87.0181L395.432 86.311Z" fill="white" fill-opacity="0.95"/>
</svg>
