<svg width="490" height="266" viewBox="0 0 490 266" fill="none" xmlns="http://www.w3.org/2000/svg">
<rect width="490" height="266" rx="24" fill="#262626"/>
<path d="M110.531 214.276C110.456 213.603 110.143 213.082 109.594 212.713C109.045 212.339 108.353 212.152 107.52 212.152C106.923 212.152 106.407 212.247 105.972 212.436C105.536 212.621 105.198 212.876 104.956 213.203C104.719 213.525 104.601 213.892 104.601 214.304C104.601 214.65 104.681 214.948 104.842 215.199C105.008 215.45 105.224 215.661 105.489 215.831C105.759 215.997 106.047 216.136 106.355 216.25C106.663 216.359 106.959 216.449 107.243 216.52L108.663 216.889C109.127 217.003 109.603 217.157 110.091 217.351C110.579 217.545 111.031 217.801 111.448 218.118C111.864 218.435 112.2 218.828 112.456 219.297C112.717 219.766 112.847 220.327 112.847 220.98C112.847 221.804 112.634 222.536 112.208 223.175C111.786 223.814 111.173 224.318 110.368 224.688C109.568 225.057 108.6 225.241 107.463 225.241C106.374 225.241 105.432 225.069 104.636 224.723C103.841 224.377 103.218 223.887 102.769 223.253C102.319 222.614 102.07 221.856 102.023 220.98H104.225C104.267 221.506 104.438 221.944 104.736 222.294C105.039 222.64 105.425 222.898 105.894 223.068C106.367 223.234 106.886 223.317 107.449 223.317C108.069 223.317 108.621 223.22 109.104 223.026C109.592 222.827 109.975 222.552 110.254 222.202C110.534 221.847 110.673 221.432 110.673 220.959C110.673 220.528 110.55 220.175 110.304 219.901C110.063 219.626 109.734 219.399 109.317 219.219C108.905 219.039 108.439 218.88 107.918 218.743L106.199 218.274C105.034 217.957 104.111 217.491 103.429 216.875C102.752 216.259 102.413 215.445 102.413 214.432C102.413 213.594 102.641 212.862 103.095 212.237C103.55 211.612 104.165 211.127 104.942 210.781C105.718 210.431 106.594 210.256 107.57 210.256C108.555 210.256 109.423 210.429 110.176 210.774C110.934 211.12 111.53 211.596 111.966 212.202C112.402 212.803 112.629 213.494 112.648 214.276H110.531Z" fill="white" fill-opacity="0.95"/>
<path d="M206.598 210.455H209.261L213.892 221.761H214.063L218.693 210.455H221.357V225H219.269V214.474H219.134L214.844 224.979H213.111L208.821 214.467H208.686V225H206.598V210.455Z" fill="white" fill-opacity="0.95"/>
<path d="M335.598 225V210.455H337.793V223.111H344.384V225H335.598Z" fill="white" fill-opacity="0.95"/>
<circle cx="107.09" cy="105.607" r="20.5897" stroke="#CACACA"/>
<circle cx="382.91" cy="53.0897" r="20.5897" stroke="white" stroke-opacity="0.9"/>
<circle cx="198.065" cy="114.705" r="20.5897" stroke="#CACACA"/>
<circle cx="304.134" cy="128.145" r="28.6534" stroke="white" stroke-opacity="0.9"/>
<rect x="198.566" y="75.5068" width="38.6983" height="38.6983" stroke="#CACACA"/>
<rect x="304.427" y="53.5898" width="77.9831" height="77.9831" stroke="white" stroke-opacity="0.9"/>
</svg>
