<svg width="1300" height="224" viewBox="0 0 1300 224" fill="none" xmlns="http://www.w3.org/2000/svg">
<path fill-rule="evenodd" clip-rule="evenodd" d="M590.6 82.0795V101.329C601.638 101.815 610.257 110.99 609.994 121.973C609.731 132.956 600.681 141.713 589.633 141.675H569.335V122.45H550V82.0795H590.6ZM553.3 84.0025L570.302 100.908L587.299 84.0025H553.3ZM588.682 85.3613V101.305H572.635L588.682 85.3613ZM588.666 103.24H571.285L571.269 120.527H588.666V103.24ZM551.934 120.527V85.3613L569.335 102.664V120.543L551.934 120.527ZM571.252 139.752H589.616C599.435 139.559 607.366 131.723 607.625 121.961C607.884 112.199 600.379 103.96 590.583 103.252V122.45H571.252V139.752Z" fill="white" fill-opacity="0.95"/>
<path d="M734.392 104.866H732.067V92.3618H733.98L734.222 93.8287C735.077 92.6103 736.312 92.0011 737.926 92.0011C739.686 92.0011 740.92 92.6584 741.63 93.973C742.47 92.6584 743.834 92.0011 745.722 92.0011C747.126 92.0011 748.208 92.4259 748.966 93.2756C749.644 94.0611 749.983 95.1353 749.983 96.4979V104.866H747.659V96.6663C747.659 94.8707 746.844 93.973 745.214 93.973C744.245 93.973 743.47 94.3497 742.889 95.1032C742.421 95.7124 742.187 96.4258 742.187 97.2434V104.866H739.863V96.6663C739.863 94.8707 739.048 93.973 737.418 93.973C736.514 93.973 735.763 94.3257 735.166 95.031C734.65 95.6242 734.392 96.3376 734.392 97.1713V104.866Z" fill="white" fill-opacity="0.95"/>
<path d="M718.304 92.3618H720.628V100.562C720.628 102.358 721.5 103.255 723.243 103.255C724.308 103.255 725.123 102.879 725.688 102.125C726.124 101.548 726.342 100.835 726.342 99.9848V92.3618H728.666V104.866H726.754L726.487 103.424C725.6 104.626 724.341 105.227 722.71 105.227C721.274 105.227 720.168 104.786 719.394 103.905C718.667 103.087 718.304 101.957 718.304 100.514V92.3618Z" fill="white" fill-opacity="0.95"/>
<path d="M716.24 103.015V104.987C715.643 105.147 715.07 105.227 714.521 105.227C713.359 105.227 712.487 104.866 711.906 104.145C711.406 103.552 711.156 102.758 711.156 101.764V94.3337H709.291V92.3618H711.156L711.301 89.3558H713.48V92.3618H716.191V94.3337H713.48V101.812C713.48 102.742 713.924 103.207 714.811 103.207C715.231 103.207 715.707 103.143 716.24 103.015Z" fill="white" fill-opacity="0.95"/>
<path d="M699.211 104.866H696.886V92.3618H698.799L699.065 93.9489C700.001 92.6503 701.277 92.0011 702.891 92.0011C704.376 92.0011 705.513 92.458 706.304 93.3718C706.998 94.1894 707.345 95.3036 707.345 96.7144V104.866H705.021V96.7384C705.021 94.8948 704.125 93.973 702.334 93.973C701.398 93.973 700.631 94.2936 700.034 94.9349C699.485 95.512 699.211 96.2495 699.211 97.1472V104.866Z" fill="white" fill-opacity="0.95"/>
<path d="M691.437 101.259H693.954C693.599 102.526 692.897 103.52 691.848 104.241C690.864 104.899 689.685 105.227 688.313 105.227C686.328 105.227 684.779 104.602 683.665 103.351C682.648 102.181 682.14 100.602 682.14 98.6141C682.14 96.3537 682.785 94.6383 684.077 93.468C685.142 92.49 686.514 92.0011 688.192 92.0011C690.161 92.0011 691.646 92.6343 692.647 93.9008C693.615 95.1192 694.1 96.8587 694.1 99.1191H684.512C684.609 100.594 685.061 101.692 685.868 102.414C686.53 102.991 687.369 103.279 688.386 103.279C689.177 103.279 689.863 103.063 690.444 102.63C690.928 102.261 691.259 101.804 691.437 101.259ZM688.241 93.8527C687.208 93.8527 686.377 94.1734 685.747 94.8146C685.15 95.4078 684.771 96.2334 684.609 97.2915H691.727C691.646 96.0891 691.243 95.1914 690.517 94.5982C689.935 94.1012 689.177 93.8527 688.241 93.8527Z" fill="white" fill-opacity="0.95"/>
<path d="M664.006 104.866H661.682V92.3618H663.594L663.837 93.8287C664.692 92.6103 665.927 92.0011 667.541 92.0011C669.3 92.0011 670.535 92.6584 671.245 93.973C672.084 92.6584 673.448 92.0011 675.337 92.0011C676.741 92.0011 677.822 92.4259 678.581 93.2756C679.259 94.0611 679.598 95.1353 679.598 96.4979V104.866H677.273V96.6663C677.273 94.8707 676.458 93.973 674.828 93.973C673.86 93.973 673.085 94.3497 672.504 95.1032C672.036 95.7124 671.802 96.4258 671.802 97.2434V104.866H669.478V96.6663C669.478 94.8707 668.663 93.973 667.032 93.973C666.128 93.973 665.378 94.3257 664.781 95.031C664.264 95.6242 664.006 96.3376 664.006 97.1713V104.866Z" fill="white" fill-opacity="0.95"/>
<path d="M646.604 98.6141C646.604 96.3216 647.29 94.5902 648.662 93.4199C649.76 92.474 651.148 92.0011 652.826 92.0011C654.779 92.0011 656.313 92.6183 657.426 93.8527C658.492 95.007 659.024 96.5941 659.024 98.6141C659.024 100.875 658.354 102.598 657.015 103.784C655.917 104.746 654.513 105.227 652.802 105.227C650.849 105.227 649.308 104.586 648.178 103.303C647.129 102.133 646.604 100.57 646.604 98.6141ZM649.025 98.6141C649.025 100.217 649.437 101.444 650.26 102.293C650.938 102.999 651.801 103.351 652.85 103.351C654.077 103.351 655.021 102.895 655.683 101.981C656.296 101.147 656.603 100.025 656.603 98.6141C656.603 96.9789 656.2 95.7445 655.393 94.9108C654.731 94.2214 653.875 93.8768 652.826 93.8768C651.616 93.8768 650.672 94.3337 649.994 95.2475C649.348 96.0811 649.025 97.2033 649.025 98.6141Z" fill="white" fill-opacity="0.95"/>
<path d="M628.47 104.866H626.146V92.3618H628.059L628.301 93.8287C629.156 92.6103 630.391 92.0011 632.005 92.0011C633.764 92.0011 634.999 92.6584 635.709 93.973C636.549 92.6584 637.913 92.0011 639.801 92.0011C641.205 92.0011 642.287 92.4259 643.045 93.2756C643.723 94.0611 644.062 95.1353 644.062 96.4979V104.866H641.738V96.6663C641.738 94.8707 640.923 93.973 639.293 93.973C638.324 93.973 637.549 94.3497 636.968 95.1032C636.5 95.7124 636.266 96.4258 636.266 97.2434V104.866H633.942V96.6663C633.942 94.8707 633.127 93.973 631.497 93.973C630.593 93.973 629.842 94.3257 629.245 95.031C628.729 95.6242 628.47 96.3376 628.47 97.1713V104.866Z" fill="white" fill-opacity="0.95"/>
<path d="M690.084 126.22H687.76V113.715H689.673L689.939 115.302C690.875 114.004 692.15 113.354 693.764 113.354C695.249 113.354 696.387 113.811 697.178 114.725C697.872 115.543 698.219 116.657 698.219 118.068V126.22H695.895V118.092C695.895 116.248 694.999 115.326 693.208 115.326C692.271 115.326 691.505 115.647 690.908 116.288C690.359 116.865 690.084 117.603 690.084 118.5V126.22Z" fill="white" fill-opacity="0.95"/>
<path d="M672.862 127.061H675.355C675.468 127.703 675.791 128.2 676.324 128.552C676.872 128.905 677.591 129.081 678.478 129.081C679.721 129.081 680.649 128.761 681.263 128.119C681.779 127.574 682.037 126.813 682.037 125.835V124.224C681.101 125.314 679.705 125.859 677.849 125.859C676.17 125.859 674.806 125.258 673.757 124.055C672.773 122.933 672.281 121.474 672.281 119.679C672.281 117.595 672.878 115.983 674.072 114.845C675.089 113.851 676.396 113.354 677.994 113.354C679.802 113.354 681.166 114.028 682.086 115.374L682.449 113.715H684.362V125.955C684.362 127.526 683.789 128.761 682.643 129.658C681.61 130.492 680.246 130.909 678.551 130.909C676.792 130.909 675.412 130.516 674.411 129.731C673.572 129.073 673.055 128.184 672.862 127.061ZM674.702 119.727C674.702 121.09 675.105 122.156 675.912 122.925C676.574 123.566 677.389 123.887 678.357 123.887C679.632 123.887 680.609 123.47 681.287 122.637C681.868 121.931 682.158 120.985 682.158 119.799C682.158 118.276 681.763 117.114 680.972 116.312C680.31 115.655 679.439 115.326 678.357 115.326C677.163 115.326 676.243 115.735 675.597 116.553C675 117.322 674.702 118.38 674.702 119.727Z" fill="white" fill-opacity="0.95"/>
<path d="M669.755 111.623H667.14V108.905H669.755V111.623ZM669.609 126.22H667.285V113.715H669.609V126.22Z" fill="white" fill-opacity="0.95"/>
<path d="M662.28 122.829C662.28 122.124 661.909 121.595 661.166 121.242C660.73 121.049 659.883 120.809 658.624 120.52C657.075 120.184 655.969 119.695 655.307 119.054C654.758 118.508 654.484 117.795 654.484 116.913C654.484 115.743 654.96 114.845 655.913 114.22C656.768 113.643 657.922 113.354 659.375 113.354C660.876 113.354 662.094 113.723 663.03 114.46C663.837 115.102 664.338 115.951 664.531 117.009H662.159C661.884 115.791 660.948 115.182 659.35 115.182C658.463 115.182 657.801 115.342 657.365 115.663C657.01 115.935 656.833 116.28 656.833 116.697C656.833 117.21 657.026 117.595 657.414 117.851C657.817 118.108 658.6 118.364 659.762 118.621C661.537 119.005 662.772 119.478 663.466 120.039C664.241 120.665 664.628 121.538 664.628 122.661C664.628 123.911 664.112 124.897 663.079 125.618C662.143 126.26 660.908 126.58 659.375 126.58C657.696 126.58 656.364 126.18 655.38 125.378C654.524 124.673 654.048 123.759 653.951 122.637H656.324C656.582 124.047 657.607 124.753 659.399 124.753C660.367 124.753 661.118 124.544 661.65 124.128C662.07 123.791 662.28 123.358 662.28 122.829Z" fill="white" fill-opacity="0.95"/>
<path d="M649.47 122.613H651.988C651.633 123.879 650.931 124.873 649.882 125.594C648.897 126.252 647.719 126.58 646.347 126.58C644.362 126.58 642.812 125.955 641.698 124.705C640.682 123.534 640.173 121.955 640.173 119.967C640.173 117.707 640.819 115.991 642.11 114.821C643.175 113.843 644.547 113.354 646.226 113.354C648.195 113.354 649.68 113.988 650.681 115.254C651.649 116.472 652.133 118.212 652.133 120.472H642.546C642.643 121.947 643.095 123.045 643.902 123.767C644.563 124.344 645.403 124.633 646.42 124.633C647.21 124.633 647.896 124.416 648.477 123.983C648.962 123.615 649.293 123.158 649.47 122.613ZM646.274 115.206C645.241 115.206 644.41 115.527 643.781 116.168C643.183 116.761 642.804 117.587 642.643 118.645H649.761C649.68 117.442 649.276 116.545 648.55 115.951C647.969 115.454 647.21 115.206 646.274 115.206Z" fill="white" fill-opacity="0.95"/>
<path d="M637.501 126.22H635.588L635.177 124.464C634.208 125.875 632.812 126.58 630.988 126.58C629.229 126.58 627.841 125.947 626.824 124.681C625.888 123.51 625.42 121.963 625.42 120.039C625.42 117.715 626.017 115.967 627.212 114.797C628.212 113.835 629.52 113.354 631.134 113.354C632.877 113.354 634.224 114.004 635.177 115.302V108.905H637.501V126.22ZM627.841 120.088C627.841 121.643 628.228 122.821 629.003 123.623C629.649 124.28 630.48 124.608 631.497 124.608C632.756 124.608 633.732 124.136 634.426 123.19C635.007 122.372 635.298 121.346 635.298 120.112C635.298 118.492 634.91 117.258 634.136 116.408C633.474 115.687 632.594 115.326 631.497 115.326C630.27 115.326 629.342 115.767 628.713 116.649C628.132 117.45 627.841 118.597 627.841 120.088Z" fill="white" fill-opacity="0.95"/>
</svg>
