<svg width="636" height="380" viewBox="0 0 636 380" fill="none" xmlns="http://www.w3.org/2000/svg">
<rect x="1.93457" width="634" height="367" rx="24" fill="#262626"/>
<g filter="url(#filter0_dd_1241_30148)">
<rect x="49" y="143" width="400" height="164" rx="12" fill="white"/>
<rect x="48.5" y="142.5" width="401" height="165" rx="12.5" stroke="black" stroke-opacity="0.2"/>
<path d="M90.3868 198.4V183.52C90.3868 182.2 91.4668 181.12 92.7868 181.12C94.1068 181.12 95.1868 182.2 95.1868 183.52V198.4M90.3868 203.92V196.84C90.3868 194.86 88.7668 193.24 86.7868 193.24C86.1268 193.24 85.5868 193.78 85.5868 194.44V206.92C85.5868 212.92 88.5868 215.32 88.5868 215.32M88.5868 215.32L74.1868 222.52M88.5868 215.32C99.3868 209.92 96.9868 223.72 88.5868 215.32ZM99.9868 198.4V183.52C99.9868 182.2 101.067 181.12 102.387 181.12C103.707 181.12 104.787 182.2 104.787 183.52V198.4M95.1868 196.6V181.72C95.1868 180.4 96.2668 179.32 97.5868 179.32C98.9068 179.32 99.9868 180.4 99.9868 181.72V196.6M104.787 221.92L121.587 230.32M89.1868 230.32L99.9868 224.92C105.987 221.92 109.587 216.52 109.587 209.26V185.92C109.587 184.6 110.667 183.52 111.987 183.52C113.307 183.52 114.387 184.6 114.387 185.92V208.78C114.387 210.58 115.407 212.26 117.027 213.1L135.987 222.58M110.187 175.12L114.987 170.32M100.587 175.12L95.7868 170.32M105.387 174.52V167.92" stroke="url(#paint0_linear_1241_30148)" stroke-width="2.5" stroke-miterlimit="10" stroke-linecap="round" stroke-linejoin="round"/>
<path d="M166.568 168.48V170.496H163.144V180H160.456V170.496H157.08V168.48H166.568ZM170.113 170.608H167.425V168.48H170.113V170.608ZM170.017 180H167.521V171.68H170.017V180ZM176.539 178.32V180.016C176.016 180.165 175.509 180.24 175.019 180.24C174.112 180.24 173.419 179.989 172.939 179.488C172.523 179.051 172.315 178.448 172.315 177.68V173.408H171.051V171.68H172.315L172.475 169.68H174.811V171.68H176.523V173.408H174.811V177.76C174.811 177.984 174.88 178.16 175.019 178.288C175.168 178.405 175.371 178.464 175.627 178.464C175.829 178.464 176.133 178.416 176.539 178.32ZM180.157 168.48V180H177.661V168.48H180.157ZM187.543 177.584H190.087C189.874 178.459 189.41 179.125 188.695 179.584C187.991 180.021 187.085 180.24 185.975 180.24C184.567 180.24 183.463 179.803 182.663 178.928C181.949 178.139 181.591 177.109 181.591 175.84C181.591 174.347 182.034 173.211 182.919 172.432C183.677 171.771 184.669 171.44 185.895 171.44C187.346 171.44 188.439 171.909 189.175 172.848C189.847 173.701 190.183 174.901 190.183 176.448H184.119C184.279 177.813 184.941 178.496 186.103 178.496C186.477 178.496 186.791 178.416 187.047 178.256C187.303 178.096 187.469 177.872 187.543 177.584ZM185.847 173.008C184.834 173.008 184.258 173.669 184.119 174.992H187.623C187.559 173.669 186.967 173.008 185.847 173.008Z" fill="black" fill-opacity="0.95"/>
<path d="M158.2 196.48H159.832V208H158.2V196.48ZM163.687 208H162.151V199.68H163.415L163.591 200.736C164.21 199.872 165.053 199.44 166.119 199.44C167.101 199.44 167.853 199.744 168.375 200.352C168.834 200.896 169.063 201.637 169.063 202.576V208H167.527V202.592C167.527 201.365 166.935 200.752 165.751 200.752C165.133 200.752 164.626 200.965 164.231 201.392C163.869 201.776 163.687 202.267 163.687 202.864V208ZM175.946 199.68H177.482V205.136C177.482 206.331 178.058 206.928 179.21 206.928C179.914 206.928 180.453 206.677 180.826 206.176C181.114 205.792 181.258 205.317 181.258 204.752V199.68H182.794V208H181.53L181.354 207.04C180.768 207.84 179.936 208.24 178.858 208.24C177.909 208.24 177.178 207.947 176.666 207.36C176.186 206.816 175.946 206.064 175.946 205.104V199.68ZM186.578 196.48V208H185.042V196.48H186.578ZM192.535 206.768V208.08C192.14 208.187 191.762 208.24 191.399 208.24C190.631 208.24 190.055 208 189.671 207.52C189.34 207.125 189.175 206.597 189.175 205.936V200.992H187.943V199.68H189.175L189.271 197.68H190.711V199.68H192.503V200.992H190.711V205.968C190.711 206.587 191.004 206.896 191.591 206.896C191.868 206.896 192.183 206.853 192.535 206.768ZM195.515 208H193.979V199.68H195.243L195.451 200.912C195.921 199.931 196.625 199.44 197.563 199.44C197.873 199.44 198.177 199.477 198.475 199.552V201.088C198.113 200.992 197.787 200.944 197.499 200.944C196.881 200.944 196.395 201.195 196.043 201.696C195.691 202.197 195.515 202.907 195.515 203.824V208ZM201.315 198.288H199.587V196.48H201.315V198.288ZM201.219 208H199.683V199.68H201.219V208ZM208.888 205.328H210.568C210.44 206.224 210.018 206.944 209.304 207.488C208.653 207.989 207.858 208.24 206.92 208.24C205.693 208.24 204.717 207.819 203.992 206.976C203.32 206.197 202.984 205.173 202.984 203.904C202.984 202.432 203.389 201.291 204.2 200.48C204.893 199.787 205.794 199.44 206.904 199.44C207.928 199.44 208.77 199.712 209.432 200.256C210.018 200.736 210.376 201.365 210.504 202.144H208.808C208.701 201.696 208.482 201.349 208.152 201.104C207.832 200.859 207.426 200.736 206.936 200.736C206.178 200.736 205.597 201.035 205.192 201.632C204.808 202.187 204.616 202.96 204.616 203.952C204.616 204.987 204.872 205.771 205.384 206.304C205.789 206.731 206.312 206.944 206.952 206.944C207.506 206.944 207.96 206.784 208.312 206.464C208.621 206.187 208.813 205.808 208.888 205.328ZM217.987 205.6H219.651C219.416 206.443 218.952 207.104 218.259 207.584C217.608 208.021 216.83 208.24 215.923 208.24C214.611 208.24 213.587 207.824 212.851 206.992C212.179 206.213 211.843 205.163 211.843 203.84C211.843 202.336 212.27 201.195 213.123 200.416C213.827 199.765 214.734 199.44 215.843 199.44C217.144 199.44 218.126 199.861 218.787 200.704C219.427 201.515 219.747 202.672 219.747 204.176H213.411C213.475 205.157 213.774 205.888 214.307 206.368C214.744 206.752 215.299 206.944 215.971 206.944C216.494 206.944 216.947 206.8 217.331 206.512C217.651 206.267 217.87 205.963 217.987 205.6ZM215.875 200.672C215.192 200.672 214.643 200.885 214.227 201.312C213.832 201.707 213.582 202.256 213.475 202.96H218.179C218.126 202.16 217.859 201.563 217.379 201.168C216.995 200.837 216.494 200.672 215.875 200.672ZM226.453 205.744C226.453 205.275 226.207 204.923 225.717 204.688C225.429 204.56 224.869 204.4 224.037 204.208C223.013 203.984 222.282 203.659 221.845 203.232C221.482 202.869 221.301 202.395 221.301 201.808C221.301 201.029 221.615 200.432 222.245 200.016C222.81 199.632 223.573 199.44 224.533 199.44C225.525 199.44 226.33 199.685 226.949 200.176C227.482 200.603 227.813 201.168 227.941 201.872H226.373C226.191 201.061 225.573 200.656 224.517 200.656C223.93 200.656 223.493 200.763 223.205 200.976C222.97 201.157 222.853 201.387 222.853 201.664C222.853 202.005 222.981 202.261 223.237 202.432C223.503 202.603 224.021 202.773 224.789 202.944C225.962 203.2 226.778 203.515 227.237 203.888C227.749 204.304 228.005 204.885 228.005 205.632C228.005 206.464 227.663 207.12 226.981 207.6C226.362 208.027 225.546 208.24 224.533 208.24C223.423 208.24 222.543 207.973 221.893 207.44C221.327 206.971 221.013 206.363 220.949 205.616H222.517C222.687 206.555 223.365 207.024 224.549 207.024C225.189 207.024 225.685 206.885 226.037 206.608C226.314 206.384 226.453 206.096 226.453 205.744ZM242.062 208H240.798L240.526 206.832C239.886 207.771 238.963 208.24 237.758 208.24C236.595 208.24 235.678 207.819 235.006 206.976C234.387 206.197 234.078 205.168 234.078 203.888C234.078 202.341 234.472 201.179 235.262 200.4C235.923 199.76 236.787 199.44 237.854 199.44C239.006 199.44 239.896 199.872 240.526 200.736V196.48H242.062V208ZM235.678 203.92C235.678 204.955 235.934 205.739 236.446 206.272C236.872 206.709 237.422 206.928 238.094 206.928C238.926 206.928 239.571 206.613 240.03 205.984C240.414 205.44 240.606 204.757 240.606 203.936C240.606 202.859 240.35 202.037 239.838 201.472C239.4 200.992 238.819 200.752 238.094 200.752C237.283 200.752 236.67 201.045 236.254 201.632C235.87 202.165 235.678 202.928 235.678 203.92ZM245.62 202H243.988C244.073 201.168 244.468 200.523 245.172 200.064C245.801 199.648 246.596 199.44 247.556 199.44C248.697 199.44 249.572 199.739 250.18 200.336C250.692 200.848 250.948 201.509 250.948 202.32V208H249.684L249.492 206.864C248.841 207.781 247.913 208.24 246.708 208.24C245.758 208.24 245.017 207.984 244.484 207.472C244.046 207.045 243.828 206.507 243.828 205.856C243.828 205.035 244.11 204.4 244.676 203.952C245.177 203.557 245.945 203.269 246.98 203.088L249.412 202.672V202.256C249.412 201.712 249.225 201.301 248.852 201.024C248.521 200.779 248.068 200.656 247.492 200.656C246.361 200.656 245.737 201.104 245.62 202ZM247.076 206.944C247.726 206.944 248.292 206.731 248.772 206.304C249.198 205.909 249.412 205.456 249.412 204.944V203.872L247.348 204.24C246.59 204.368 246.073 204.565 245.796 204.832C245.572 205.045 245.46 205.333 245.46 205.696C245.46 206.101 245.598 206.411 245.876 206.624C246.153 206.837 246.553 206.944 247.076 206.944ZM253.104 199.68H254.368L254.608 200.768C255.291 199.883 256.23 199.44 257.424 199.44C258.619 199.44 259.547 199.867 260.208 200.72C260.795 201.488 261.088 202.507 261.088 203.776C261.088 205.28 260.688 206.432 259.888 207.232C259.216 207.904 258.358 208.24 257.312 208.24C256.128 208.24 255.238 207.803 254.64 206.928V210.88H253.104V199.68ZM259.488 203.744C259.488 202.699 259.227 201.915 258.704 201.392C258.288 200.965 257.744 200.752 257.072 200.752C256.294 200.752 255.675 201.035 255.216 201.6C254.779 202.144 254.56 202.859 254.56 203.744C254.56 204.811 254.822 205.627 255.344 206.192C255.782 206.683 256.358 206.928 257.072 206.928C257.872 206.928 258.48 206.635 258.896 206.048C259.291 205.504 259.488 204.736 259.488 203.744ZM264.486 198.288H262.758V196.48H264.486V198.288ZM264.39 208H262.854V199.68H264.39V208ZM267.9 208H266.636V196.48H268.172V200.832C268.822 199.904 269.75 199.44 270.956 199.44C272.15 199.44 273.078 199.867 273.74 200.72C274.326 201.488 274.62 202.507 274.62 203.776C274.62 205.28 274.22 206.432 273.42 207.232C272.748 207.904 271.889 208.24 270.844 208.24C269.66 208.24 268.758 207.792 268.14 206.896L267.9 208ZM273.02 203.744C273.02 202.699 272.758 201.915 272.236 201.392C271.82 200.965 271.276 200.752 270.604 200.752C269.825 200.752 269.206 201.035 268.748 201.6C268.31 202.144 268.092 202.859 268.092 203.744C268.092 204.811 268.353 205.627 268.876 206.192C269.313 206.683 269.889 206.928 270.604 206.928C271.404 206.928 272.012 206.635 272.428 206.048C272.822 205.504 273.02 204.736 273.02 203.744ZM276.306 199.68H277.842V205.136C277.842 206.331 278.418 206.928 279.57 206.928C280.274 206.928 280.812 206.677 281.186 206.176C281.474 205.792 281.618 205.317 281.618 204.752V199.68H283.154V208H281.89L281.714 207.04C281.127 207.84 280.295 208.24 279.218 208.24C278.268 208.24 277.538 207.947 277.026 207.36C276.546 206.816 276.306 206.064 276.306 205.104V199.68ZM290.265 205.744C290.265 205.275 290.02 204.923 289.529 204.688C289.241 204.56 288.681 204.4 287.849 204.208C286.825 203.984 286.095 203.659 285.657 203.232C285.295 202.869 285.113 202.395 285.113 201.808C285.113 201.029 285.428 200.432 286.057 200.016C286.623 199.632 287.385 199.44 288.345 199.44C289.337 199.44 290.143 199.685 290.761 200.176C291.295 200.603 291.625 201.168 291.753 201.872H290.185C290.004 201.061 289.385 200.656 288.329 200.656C287.743 200.656 287.305 200.763 287.017 200.976C286.783 201.157 286.665 201.387 286.665 201.664C286.665 202.005 286.793 202.261 287.049 202.432C287.316 202.603 287.833 202.773 288.601 202.944C289.775 203.2 290.591 203.515 291.049 203.888C291.561 204.304 291.817 204.885 291.817 205.632C291.817 206.464 291.476 207.12 290.793 207.6C290.175 208.027 289.359 208.24 288.345 208.24C287.236 208.24 286.356 207.973 285.705 207.44C285.14 206.971 284.825 206.363 284.761 205.616H286.329C286.5 206.555 287.177 207.024 288.361 207.024C289.001 207.024 289.497 206.885 289.849 206.608C290.127 206.384 290.265 206.096 290.265 205.744ZM302.082 206.768V208.08C301.687 208.187 301.309 208.24 300.946 208.24C300.178 208.24 299.602 208 299.218 207.52C298.887 207.125 298.722 206.597 298.722 205.936V200.992H297.49V199.68H298.722L298.818 197.68H300.258V199.68H302.05V200.992H300.258V205.968C300.258 206.587 300.551 206.896 301.138 206.896C301.415 206.896 301.73 206.853 302.082 206.768ZM302.968 203.84C302.968 202.315 303.421 201.163 304.328 200.384C305.053 199.755 305.971 199.44 307.08 199.44C308.371 199.44 309.384 199.851 310.12 200.672C310.824 201.44 311.176 202.496 311.176 203.84C311.176 205.344 310.733 206.491 309.848 207.28C309.123 207.92 308.195 208.24 307.064 208.24C305.773 208.24 304.755 207.813 304.008 206.96C303.315 206.181 302.968 205.141 302.968 203.84ZM304.568 203.84C304.568 204.907 304.84 205.723 305.384 206.288C305.832 206.757 306.403 206.992 307.096 206.992C307.907 206.992 308.531 206.688 308.968 206.08C309.373 205.525 309.576 204.779 309.576 203.84C309.576 202.752 309.309 201.931 308.776 201.376C308.339 200.917 307.773 200.688 307.08 200.688C306.28 200.688 305.656 200.992 305.208 201.6C304.781 202.155 304.568 202.901 304.568 203.84ZM314.469 208H312.933V199.68H314.197L314.405 200.912C314.874 199.931 315.578 199.44 316.516 199.44C316.826 199.44 317.13 199.477 317.429 199.552V201.088C317.066 200.992 316.741 200.944 316.453 200.944C315.834 200.944 315.349 201.195 314.997 201.696C314.645 202.197 314.469 202.907 314.469 203.824V208ZM322.348 206.768V208.08C321.953 208.187 321.574 208.24 321.212 208.24C320.444 208.24 319.868 208 319.484 207.52C319.153 207.125 318.988 206.597 318.988 205.936V200.992H317.756V199.68H318.988L319.084 197.68H320.524V199.68H322.316V200.992H320.524V205.968C320.524 206.587 320.817 206.896 321.404 206.896C321.681 206.896 321.996 206.853 322.348 206.768ZM323.234 203.84C323.234 202.315 323.687 201.163 324.594 200.384C325.319 199.755 326.236 199.44 327.346 199.44C328.636 199.44 329.65 199.851 330.386 200.672C331.09 201.44 331.442 202.496 331.442 203.84C331.442 205.344 330.999 206.491 330.114 207.28C329.388 207.92 328.46 208.24 327.33 208.24C326.039 208.24 325.02 207.813 324.274 206.96C323.58 206.181 323.234 205.141 323.234 203.84ZM324.834 203.84C324.834 204.907 325.106 205.723 325.65 206.288C326.098 206.757 326.668 206.992 327.362 206.992C328.172 206.992 328.796 206.688 329.234 206.08C329.639 205.525 329.842 204.779 329.842 203.84C329.842 202.752 329.575 201.931 329.042 201.376C328.604 200.917 328.039 200.688 327.346 200.688C326.546 200.688 325.922 200.992 325.474 201.6C325.047 202.155 324.834 202.901 324.834 203.84ZM334.734 208H333.198V199.68H334.462L334.67 200.912C335.139 199.931 335.843 199.44 336.782 199.44C337.091 199.44 337.395 199.477 337.694 199.552V201.088C337.331 200.992 337.006 200.944 336.718 200.944C336.099 200.944 335.614 201.195 335.262 201.696C334.91 202.197 334.734 202.907 334.734 203.824V208ZM345.33 198.288H343.602V196.48H345.33V198.288ZM345.234 208H343.698V199.68H345.234V208ZM349.015 208H347.479V199.68H348.743L348.919 200.736C349.538 199.872 350.381 199.44 351.447 199.44C352.429 199.44 353.181 199.744 353.703 200.352C354.162 200.896 354.391 201.637 354.391 202.576V208H352.855V202.592C352.855 201.365 352.263 200.752 351.079 200.752C350.461 200.752 349.954 200.965 349.559 201.392C349.197 201.776 349.015 202.267 349.015 202.864V208ZM361.354 199.68H362.618L362.858 200.768C363.541 199.883 364.48 199.44 365.674 199.44C366.869 199.44 367.797 199.867 368.458 200.72C369.045 201.488 369.338 202.507 369.338 203.776C369.338 205.28 368.938 206.432 368.138 207.232C367.466 207.904 366.608 208.24 365.562 208.24C364.378 208.24 363.488 207.803 362.89 206.928V210.88H361.354V199.68ZM367.738 203.744C367.738 202.699 367.477 201.915 366.954 201.392C366.538 200.965 365.994 200.752 365.322 200.752C364.544 200.752 363.925 201.035 363.466 201.6C363.029 202.144 362.81 202.859 362.81 203.744C362.81 204.811 363.072 205.627 363.594 206.192C364.032 206.683 364.608 206.928 365.322 206.928C366.122 206.928 366.73 206.635 367.146 206.048C367.541 205.504 367.738 204.736 367.738 203.744ZM370.624 203.84C370.624 202.315 371.078 201.163 371.984 200.384C372.71 199.755 373.627 199.44 374.736 199.44C376.027 199.44 377.04 199.851 377.776 200.672C378.48 201.44 378.832 202.496 378.832 203.84C378.832 205.344 378.39 206.491 377.504 207.28C376.779 207.92 375.851 208.24 374.72 208.24C373.43 208.24 372.411 207.813 371.664 206.96C370.971 206.181 370.624 205.141 370.624 203.84ZM372.224 203.84C372.224 204.907 372.496 205.723 373.04 206.288C373.488 206.757 374.059 206.992 374.752 206.992C375.563 206.992 376.187 206.688 376.624 206.08C377.03 205.525 377.232 204.779 377.232 203.84C377.232 202.752 376.966 201.931 376.432 201.376C375.995 200.917 375.43 200.688 374.736 200.688C373.936 200.688 373.312 200.992 372.864 201.6C372.438 202.155 372.224 202.901 372.224 203.84ZM385.453 205.744C385.453 205.275 385.207 204.923 384.717 204.688C384.429 204.56 383.869 204.4 383.037 204.208C382.013 203.984 381.282 203.659 380.845 203.232C380.482 202.869 380.301 202.395 380.301 201.808C380.301 201.029 380.615 200.432 381.245 200.016C381.81 199.632 382.573 199.44 383.533 199.44C384.525 199.44 385.33 199.685 385.949 200.176C386.482 200.603 386.813 201.168 386.941 201.872H385.373C385.191 201.061 384.573 200.656 383.517 200.656C382.93 200.656 382.493 200.763 382.205 200.976C381.97 201.157 381.853 201.387 381.853 201.664C381.853 202.005 381.981 202.261 382.237 202.432C382.503 202.603 383.021 202.773 383.789 202.944C384.962 203.2 385.778 203.515 386.237 203.888C386.749 204.304 387.005 204.885 387.005 205.632C387.005 206.464 386.663 207.12 385.981 207.6C385.362 208.027 384.546 208.24 383.533 208.24C382.423 208.24 381.543 207.973 380.893 207.44C380.327 206.971 380.013 206.363 379.949 205.616H381.517C381.687 206.555 382.365 207.024 383.549 207.024C384.189 207.024 384.685 206.885 385.037 206.608C385.314 206.384 385.453 206.096 385.453 205.744ZM388.681 199.68H390.217V205.136C390.217 206.331 390.793 206.928 391.945 206.928C392.649 206.928 393.187 206.677 393.561 206.176C393.849 205.792 393.993 205.317 393.993 204.752V199.68H395.529V208H394.265L394.089 207.04C393.502 207.84 392.67 208.24 391.593 208.24C390.643 208.24 389.913 207.947 389.401 207.36C388.921 206.816 388.681 206.064 388.681 205.104V199.68ZM403.44 205.6H405.104C404.87 206.443 404.406 207.104 403.712 207.584C403.062 208.021 402.283 208.24 401.376 208.24C400.064 208.24 399.04 207.824 398.304 206.992C397.632 206.213 397.296 205.163 397.296 203.84C397.296 202.336 397.723 201.195 398.576 200.416C399.28 199.765 400.187 199.44 401.296 199.44C402.598 199.44 403.579 199.861 404.24 200.704C404.88 201.515 405.2 202.672 405.2 204.176H398.864C398.928 205.157 399.227 205.888 399.76 206.368C400.198 206.752 400.752 206.944 401.424 206.944C401.947 206.944 402.4 206.8 402.784 206.512C403.104 206.267 403.323 205.963 403.44 205.6ZM401.328 200.672C400.646 200.672 400.096 200.885 399.68 201.312C399.286 201.707 399.035 202.256 398.928 202.96H403.632C403.579 202.16 403.312 201.563 402.832 201.168C402.448 200.837 401.947 200.672 401.328 200.672ZM408.578 208H407.042V199.68H408.306L408.514 200.912C408.983 199.931 409.687 199.44 410.626 199.44C410.935 199.44 411.239 199.477 411.538 199.552V201.088C411.175 200.992 410.85 200.944 410.562 200.944C409.943 200.944 409.458 201.195 409.106 201.696C408.754 202.197 408.578 202.907 408.578 203.824V208ZM418.253 205.6H419.917C419.682 206.443 419.218 207.104 418.525 207.584C417.874 208.021 417.095 208.24 416.189 208.24C414.877 208.24 413.853 207.824 413.117 206.992C412.445 206.213 412.109 205.163 412.109 203.84C412.109 202.336 412.535 201.195 413.389 200.416C414.093 199.765 414.999 199.44 416.109 199.44C417.41 199.44 418.391 199.861 419.053 200.704C419.693 201.515 420.013 202.672 420.013 204.176H413.677C413.741 205.157 414.039 205.888 414.573 206.368C415.01 206.752 415.565 206.944 416.237 206.944C416.759 206.944 417.213 206.8 417.597 206.512C417.917 206.267 418.135 205.963 418.253 205.6ZM416.141 200.672C415.458 200.672 414.909 200.885 414.493 201.312C414.098 201.707 413.847 202.256 413.741 202.96H418.445C418.391 202.16 418.125 201.563 417.645 201.168C417.261 200.837 416.759 200.672 416.141 200.672ZM424.062 208H422.206V206.144H424.062V208ZM165.096 228.88C165.096 228.496 165.011 228.192 164.84 227.968C164.648 227.701 164.296 227.456 163.784 227.232C163.272 227.008 162.499 226.752 161.464 226.464C160.077 226.08 159.123 225.605 158.6 225.04C158.173 224.581 157.96 223.968 157.96 223.2C157.96 222.272 158.365 221.536 159.176 220.992C159.923 220.491 160.893 220.24 162.088 220.24C163.421 220.24 164.504 220.555 165.336 221.184C166.083 221.739 166.52 222.464 166.648 223.36H164.968C164.872 222.752 164.552 222.299 164.008 222C163.528 221.723 162.888 221.584 162.088 221.584C161.192 221.584 160.531 221.755 160.104 222.096C159.763 222.363 159.592 222.709 159.592 223.136C159.592 223.413 159.635 223.643 159.72 223.824C159.816 223.995 159.976 224.149 160.2 224.288C160.616 224.565 161.421 224.869 162.616 225.2C164.28 225.669 165.405 226.203 165.992 226.8C166.483 227.291 166.728 227.963 166.728 228.816C166.728 229.829 166.285 230.667 165.4 231.328C164.568 231.936 163.512 232.24 162.232 232.24C160.899 232.24 159.795 231.883 158.92 231.168C158.163 230.549 157.709 229.749 157.56 228.768H159.24C159.347 229.472 159.683 230.011 160.248 230.384C160.76 230.725 161.411 230.896 162.2 230.896C163.181 230.896 163.933 230.672 164.456 230.224C164.883 229.861 165.096 229.413 165.096 228.88ZM174.237 229.6H175.901C175.666 230.443 175.202 231.104 174.509 231.584C173.858 232.021 173.08 232.24 172.173 232.24C170.861 232.24 169.837 231.824 169.101 230.992C168.429 230.213 168.093 229.163 168.093 227.84C168.093 226.336 168.52 225.195 169.373 224.416C170.077 223.765 170.984 223.44 172.093 223.44C173.394 223.44 174.376 223.861 175.037 224.704C175.677 225.515 175.997 226.672 175.997 228.176H169.661C169.725 229.157 170.024 229.888 170.557 230.368C170.994 230.752 171.549 230.944 172.221 230.944C172.744 230.944 173.197 230.8 173.581 230.512C173.901 230.267 174.12 229.963 174.237 229.6ZM172.125 224.672C171.442 224.672 170.893 224.885 170.477 225.312C170.082 225.707 169.832 226.256 169.725 226.96H174.429C174.376 226.16 174.109 225.563 173.629 225.168C173.245 224.837 172.744 224.672 172.125 224.672ZM185.343 232H184.079L183.807 230.832C183.167 231.771 182.244 232.24 181.039 232.24C179.876 232.24 178.959 231.819 178.287 230.976C177.668 230.197 177.359 229.168 177.359 227.888C177.359 226.341 177.753 225.179 178.543 224.4C179.204 223.76 180.068 223.44 181.135 223.44C182.287 223.44 183.177 223.872 183.807 224.736V220.48H185.343V232ZM178.959 227.92C178.959 228.955 179.215 229.739 179.727 230.272C180.153 230.709 180.703 230.928 181.375 230.928C182.207 230.928 182.852 230.613 183.311 229.984C183.695 229.44 183.887 228.757 183.887 227.936C183.887 226.859 183.631 226.037 183.119 225.472C182.681 224.992 182.1 224.752 181.375 224.752C180.564 224.752 179.951 225.045 179.535 225.632C179.151 226.165 178.959 226.928 178.959 227.92ZM193.922 232H192.386V223.68H193.65L193.858 224.912C194.327 223.931 195.031 223.44 195.97 223.44C196.279 223.44 196.583 223.477 196.882 223.552V225.088C196.519 224.992 196.194 224.944 195.906 224.944C195.287 224.944 194.802 225.195 194.45 225.696C194.098 226.197 193.922 226.907 193.922 227.824V232ZM199.625 232H198.089V220.48H199.625V224.624C200.233 223.835 201.043 223.44 202.057 223.44C203.038 223.44 203.79 223.744 204.313 224.352C204.771 224.896 205.001 225.637 205.001 226.576V232H203.465V226.592C203.465 225.365 202.873 224.752 201.689 224.752C201.059 224.752 200.547 224.971 200.153 225.408C199.801 225.803 199.625 226.309 199.625 226.928V232ZM206.687 227.84C206.687 226.315 207.14 225.163 208.047 224.384C208.772 223.755 209.69 223.44 210.799 223.44C212.09 223.44 213.103 223.851 213.839 224.672C214.543 225.44 214.895 226.496 214.895 227.84C214.895 229.344 214.452 230.491 213.567 231.28C212.842 231.92 211.914 232.24 210.783 232.24C209.492 232.24 208.474 231.813 207.727 230.96C207.034 230.181 206.687 229.141 206.687 227.84ZM208.287 227.84C208.287 228.907 208.559 229.723 209.103 230.288C209.551 230.757 210.122 230.992 210.815 230.992C211.626 230.992 212.25 230.688 212.687 230.08C213.092 229.525 213.295 228.779 213.295 227.84C213.295 226.752 213.028 225.931 212.495 225.376C212.058 224.917 211.492 224.688 210.799 224.688C209.999 224.688 209.375 224.992 208.927 225.6C208.5 226.155 208.287 226.901 208.287 227.84ZM218.187 232H216.651V223.68H217.915L218.091 224.736C218.71 223.872 219.553 223.44 220.619 223.44C221.601 223.44 222.353 223.744 222.875 224.352C223.334 224.896 223.563 225.637 223.563 226.576V232H222.027V226.592C222.027 225.365 221.435 224.752 220.251 224.752C219.633 224.752 219.126 224.965 218.731 225.392C218.369 225.776 218.187 226.267 218.187 226.864V232ZM231.153 229.328H232.833C232.705 230.224 232.284 230.944 231.569 231.488C230.919 231.989 230.124 232.24 229.185 232.24C227.959 232.24 226.983 231.819 226.257 230.976C225.585 230.197 225.249 229.173 225.249 227.904C225.249 226.432 225.655 225.291 226.465 224.48C227.159 223.787 228.06 223.44 229.169 223.44C230.193 223.44 231.036 223.712 231.697 224.256C232.284 224.736 232.641 225.365 232.769 226.144H231.073C230.967 225.696 230.748 225.349 230.417 225.104C230.097 224.859 229.692 224.736 229.201 224.736C228.444 224.736 227.863 225.035 227.457 225.632C227.073 226.187 226.881 226.96 226.881 227.952C226.881 228.987 227.137 229.771 227.649 230.304C228.055 230.731 228.577 230.944 229.217 230.944C229.772 230.944 230.225 230.784 230.577 230.464C230.887 230.187 231.079 229.808 231.153 229.328ZM234.509 223.68H236.045V229.136C236.045 230.331 236.621 230.928 237.773 230.928C238.477 230.928 239.015 230.677 239.389 230.176C239.677 229.792 239.821 229.317 239.821 228.752V223.68H241.357V232H240.093L239.917 231.04C239.33 231.84 238.498 232.24 237.421 232.24C236.471 232.24 235.741 231.947 235.229 231.36C234.749 230.816 234.509 230.064 234.509 229.104V223.68ZM248.468 229.744C248.468 229.275 248.223 228.923 247.732 228.688C247.444 228.56 246.884 228.4 246.052 228.208C245.028 227.984 244.298 227.659 243.86 227.232C243.498 226.869 243.316 226.395 243.316 225.808C243.316 225.029 243.631 224.432 244.26 224.016C244.826 223.632 245.588 223.44 246.548 223.44C247.54 223.44 248.346 223.685 248.964 224.176C249.498 224.603 249.828 225.168 249.956 225.872H248.388C248.207 225.061 247.588 224.656 246.532 224.656C245.946 224.656 245.508 224.763 245.22 224.976C244.986 225.157 244.868 225.387 244.868 225.664C244.868 226.005 244.996 226.261 245.252 226.432C245.519 226.603 246.036 226.773 246.804 226.944C247.978 227.2 248.794 227.515 249.252 227.888C249.764 228.304 250.02 228.885 250.02 229.632C250.02 230.464 249.679 231.12 248.996 231.6C248.378 232.027 247.562 232.24 246.548 232.24C245.439 232.24 244.559 231.973 243.908 231.44C243.343 230.971 243.028 230.363 242.964 229.616H244.532C244.703 230.555 245.38 231.024 246.564 231.024C247.204 231.024 247.7 230.885 248.052 230.608C248.33 230.384 248.468 230.096 248.468 229.744ZM258.109 232H256.573V223.68H257.837L257.997 224.656C258.562 223.845 259.378 223.44 260.445 223.44C261.608 223.44 262.424 223.877 262.893 224.752C263.448 223.877 264.349 223.44 265.597 223.44C266.525 223.44 267.24 223.723 267.741 224.288C268.189 224.811 268.413 225.525 268.413 226.432V232H266.877V226.544C266.877 225.349 266.338 224.752 265.261 224.752C264.621 224.752 264.109 225.003 263.725 225.504C263.416 225.909 263.261 226.384 263.261 226.928V232H261.725V226.544C261.725 225.349 261.186 224.752 260.109 224.752C259.512 224.752 259.016 224.987 258.621 225.456C258.28 225.851 258.109 226.325 258.109 226.88V232ZM272.205 222.288H270.477V220.48H272.205V222.288ZM272.109 232H270.573V223.68H272.109V232ZM284.015 229.744C284.015 229.275 283.77 228.923 283.279 228.688C282.991 228.56 282.431 228.4 281.599 228.208C280.575 227.984 279.845 227.659 279.407 227.232C279.045 226.869 278.863 226.395 278.863 225.808C278.863 225.029 279.178 224.432 279.807 224.016C280.373 223.632 281.135 223.44 282.095 223.44C283.087 223.44 283.893 223.685 284.511 224.176C285.045 224.603 285.375 225.168 285.503 225.872H283.935C283.754 225.061 283.135 224.656 282.079 224.656C281.493 224.656 281.055 224.763 280.767 224.976C280.533 225.157 280.415 225.387 280.415 225.664C280.415 226.005 280.543 226.261 280.799 226.432C281.066 226.603 281.583 226.773 282.351 226.944C283.525 227.2 284.341 227.515 284.799 227.888C285.311 228.304 285.567 228.885 285.567 229.632C285.567 230.464 285.226 231.12 284.543 231.6C283.925 232.027 283.109 232.24 282.095 232.24C280.986 232.24 280.106 231.973 279.455 231.44C278.89 230.971 278.575 230.363 278.511 229.616H280.079C280.25 230.555 280.927 231.024 282.111 231.024C282.751 231.024 283.247 230.885 283.599 230.608C283.877 230.384 284.015 230.096 284.015 229.744ZM292.987 229.6H294.651C294.416 230.443 293.952 231.104 293.259 231.584C292.608 232.021 291.83 232.24 290.923 232.24C289.611 232.24 288.587 231.824 287.851 230.992C287.179 230.213 286.843 229.163 286.843 227.84C286.843 226.336 287.27 225.195 288.123 224.416C288.827 223.765 289.734 223.44 290.843 223.44C292.144 223.44 293.126 223.861 293.787 224.704C294.427 225.515 294.747 226.672 294.747 228.176H288.411C288.475 229.157 288.774 229.888 289.307 230.368C289.744 230.752 290.299 230.944 290.971 230.944C291.494 230.944 291.947 230.8 292.331 230.512C292.651 230.267 292.87 229.963 292.987 229.6ZM290.875 224.672C290.192 224.672 289.643 224.885 289.227 225.312C288.832 225.707 288.582 226.256 288.475 226.96H293.179C293.126 226.16 292.859 225.563 292.379 225.168C291.995 224.837 291.494 224.672 290.875 224.672ZM298.125 232H296.589V223.68H297.853L298.013 224.656C298.578 223.845 299.394 223.44 300.461 223.44C301.623 223.44 302.439 223.877 302.909 224.752C303.463 223.877 304.365 223.44 305.613 223.44C306.541 223.44 307.255 223.723 307.757 224.288C308.205 224.811 308.429 225.525 308.429 226.432V232H306.893V226.544C306.893 225.349 306.354 224.752 305.277 224.752C304.637 224.752 304.125 225.003 303.741 225.504C303.431 225.909 303.277 226.384 303.277 226.928V232H301.741V226.544C301.741 225.349 301.202 224.752 300.125 224.752C299.527 224.752 299.031 224.987 298.637 225.456C298.295 225.851 298.125 226.325 298.125 226.88V232ZM312.797 232H310.941V230.144H312.797V232Z" fill="black" fill-opacity="0.7"/>
<rect x="232.5" y="255.5" width="105" height="31" rx="15.5" stroke="black" stroke-opacity="0.4"/>
<path d="M244.794 272.704H246.826C246.922 273.355 247.231 273.856 247.754 274.208C248.234 274.528 248.847 274.688 249.594 274.688C250.5 274.688 251.183 274.501 251.642 274.128C252.004 273.819 252.186 273.424 252.186 272.944C252.186 272.368 251.908 271.925 251.354 271.616C250.906 271.349 250.074 271.056 248.858 270.736C247.514 270.384 246.564 269.947 246.01 269.424C245.466 268.901 245.194 268.208 245.194 267.344C245.194 266.341 245.615 265.563 246.458 265.008C247.226 264.496 248.25 264.24 249.53 264.24C250.895 264.24 251.988 264.555 252.81 265.184C253.524 265.739 253.951 266.475 254.09 267.392H252.074C251.999 266.848 251.711 266.432 251.21 266.144C250.762 265.899 250.191 265.776 249.498 265.776C248.687 265.776 248.09 265.925 247.706 266.224C247.407 266.459 247.258 266.773 247.258 267.168C247.258 267.659 247.466 268.032 247.882 268.288C248.255 268.523 248.964 268.773 250.01 269.04C251.578 269.456 252.682 269.952 253.322 270.528C253.94 271.093 254.25 271.845 254.25 272.784C254.25 273.829 253.807 274.672 252.922 275.312C252.079 275.931 250.975 276.24 249.61 276.24C248.191 276.24 247.039 275.877 246.154 275.152C245.396 274.523 244.943 273.707 244.794 272.704ZM261.516 273.6H263.532C263.308 274.453 262.844 275.115 262.14 275.584C261.468 276.021 260.641 276.24 259.66 276.24C258.305 276.24 257.249 275.813 256.492 274.96C255.798 274.181 255.452 273.141 255.452 271.84C255.452 270.347 255.884 269.205 256.748 268.416C257.473 267.765 258.417 267.44 259.58 267.44C260.934 267.44 261.958 267.883 262.652 268.768C263.302 269.589 263.628 270.763 263.628 272.288H257.404C257.478 273.184 257.756 273.84 258.236 274.256C258.62 274.597 259.121 274.768 259.74 274.768C260.177 274.768 260.556 274.661 260.876 274.448C261.196 274.235 261.409 273.952 261.516 273.6ZM261.66 270.976C261.617 270.197 261.382 269.627 260.956 269.264C260.604 268.955 260.145 268.8 259.58 268.8C258.961 268.8 258.465 269.003 258.092 269.408C257.75 269.771 257.532 270.293 257.436 270.976H261.66ZM270.714 273.296H272.762C272.602 274.224 272.159 274.955 271.434 275.488C270.751 275.989 269.909 276.24 268.906 276.24C267.583 276.24 266.559 275.819 265.834 274.976C265.183 274.219 264.858 273.2 264.858 271.92C264.858 270.427 265.274 269.28 266.106 268.48C266.831 267.787 267.77 267.44 268.922 267.44C269.999 267.44 270.89 267.717 271.594 268.272C272.213 268.763 272.591 269.397 272.73 270.176H270.65C270.554 269.781 270.357 269.472 270.058 269.248C269.759 269.013 269.397 268.896 268.97 268.896C268.277 268.896 267.749 269.173 267.386 269.728C267.045 270.251 266.874 270.997 266.874 271.968C266.874 272.949 267.103 273.691 267.562 274.192C267.925 274.587 268.383 274.784 268.938 274.784C269.407 274.784 269.791 274.656 270.09 274.4C270.399 274.144 270.607 273.776 270.714 273.296ZM273.952 271.824C273.952 270.309 274.4 269.163 275.296 268.384C276.032 267.755 276.992 267.44 278.176 267.44C279.552 267.44 280.613 267.856 281.36 268.688C282.053 269.445 282.4 270.491 282.4 271.824C282.4 273.339 281.962 274.485 281.088 275.264C280.352 275.915 279.381 276.24 278.176 276.24C276.81 276.24 275.749 275.813 274.992 274.96C274.298 274.181 273.952 273.136 273.952 271.824ZM278.192 274.816C278.949 274.816 279.514 274.539 279.888 273.984C280.24 273.483 280.416 272.763 280.416 271.824C280.416 270.757 280.181 269.973 279.712 269.472C279.338 269.067 278.826 268.864 278.176 268.864C277.429 268.864 276.864 269.136 276.48 269.68C276.117 270.181 275.936 270.896 275.936 271.824C275.936 272.88 276.17 273.664 276.64 274.176C277.034 274.603 277.552 274.816 278.192 274.816ZM285.944 276H284.024V267.68H285.608L285.816 268.672C286.424 267.851 287.267 267.44 288.344 267.44C289.347 267.44 290.115 267.749 290.648 268.368C291.117 268.912 291.352 269.653 291.352 270.592V276H289.432V270.64C289.432 269.499 288.904 268.928 287.848 268.928C287.272 268.928 286.803 269.131 286.44 269.536C286.109 269.909 285.944 270.379 285.944 270.944V276ZM301.177 276H299.641L299.305 274.928C298.654 275.803 297.764 276.24 296.633 276.24C295.449 276.24 294.516 275.813 293.833 274.96C293.214 274.181 292.905 273.163 292.905 271.904C292.905 270.389 293.305 269.232 294.105 268.432C294.766 267.771 295.625 267.44 296.681 267.44C297.78 267.44 298.638 267.835 299.257 268.624V264.48H301.177V276ZM294.873 271.92C294.873 272.901 295.108 273.632 295.577 274.112C295.961 274.517 296.462 274.72 297.081 274.72C297.838 274.72 298.414 274.443 298.809 273.888C299.161 273.397 299.337 272.736 299.337 271.904C299.337 270.859 299.092 270.08 298.601 269.568C298.217 269.163 297.71 268.96 297.081 268.96C296.345 268.96 295.785 269.237 295.401 269.792C295.049 270.293 294.873 271.003 294.873 271.92ZM304.971 270.032H302.971C303.11 269.168 303.542 268.507 304.267 268.048C304.918 267.643 305.734 267.44 306.715 267.44C307.899 267.44 308.806 267.744 309.435 268.352C309.979 268.875 310.251 269.552 310.251 270.384V276H308.715L308.475 274.976C307.824 275.819 306.902 276.24 305.707 276.24C304.758 276.24 304.022 275.984 303.499 275.472C303.04 275.024 302.811 274.453 302.811 273.76C302.811 272.981 303.094 272.373 303.659 271.936C304.171 271.531 304.966 271.237 306.043 271.056L308.331 270.672V270.272C308.331 269.771 308.166 269.397 307.835 269.152C307.547 268.928 307.152 268.816 306.651 268.816C305.659 268.816 305.099 269.221 304.971 270.032ZM308.331 271.936L306.523 272.256C305.904 272.373 305.462 272.539 305.195 272.752C304.928 272.955 304.795 273.243 304.795 273.616C304.795 274.395 305.27 274.784 306.219 274.784C306.838 274.784 307.36 274.581 307.787 274.176C308.15 273.824 308.331 273.413 308.331 272.944V271.936ZM317.092 267.552V269.408C316.74 269.301 316.404 269.248 316.084 269.248C315.486 269.248 315.006 269.509 314.644 270.032C314.302 270.533 314.132 271.227 314.132 272.112V276H312.212V267.68H313.796L314.036 268.928C314.505 267.936 315.214 267.44 316.164 267.44C316.505 267.44 316.814 267.477 317.092 267.552ZM325.605 267.68L322.677 276.144C322.293 277.264 321.887 278.037 321.461 278.464C321.034 278.901 320.479 279.12 319.797 279.12C319.455 279.12 319.077 279.067 318.661 278.96V277.52C318.991 277.605 319.29 277.648 319.557 277.648C319.898 277.648 320.17 277.499 320.373 277.2C320.522 276.976 320.693 276.576 320.885 276H320.293L317.269 267.68H319.333L321.477 274.528L323.685 267.68H325.605Z" fill="black" fill-opacity="0.95"/>
<rect x="346" y="255" width="83" height="32" rx="16" fill="black" fill-opacity="0.95"/>
<path d="M359.581 264.48H363.485C366.621 264.48 368.189 265.744 368.189 268.272C368.189 270.757 366.621 272 363.485 272H361.629V276H359.581V264.48ZM361.629 270.464H363.517C365.213 270.464 366.061 269.733 366.061 268.272C366.061 267.483 365.815 266.896 365.325 266.512C364.887 266.181 364.285 266.016 363.517 266.016H361.629V270.464ZM374.693 267.552V269.408C374.341 269.301 374.005 269.248 373.685 269.248C373.088 269.248 372.608 269.509 372.245 270.032C371.904 270.533 371.733 271.227 371.733 272.112V276H369.813V267.68H371.397L371.637 268.928C372.106 267.936 372.816 267.44 373.765 267.44C374.106 267.44 374.416 267.477 374.693 267.552ZM377.782 266.416H375.67V264.48H377.782V266.416ZM377.686 276H375.766V267.68H377.686V276ZM381.655 276H379.735V267.68H381.191L381.463 268.624C382.05 267.835 382.876 267.44 383.943 267.44C385.106 267.44 385.932 267.856 386.423 268.688C387.02 267.856 387.927 267.44 389.143 267.44C390.103 267.44 390.839 267.723 391.351 268.288C391.82 268.811 392.055 269.547 392.055 270.496V276H390.135V270.544C390.135 269.467 389.634 268.928 388.631 268.928C388.055 268.928 387.596 269.152 387.255 269.6C386.988 269.973 386.855 270.416 386.855 270.928V276H384.935V270.544C384.935 269.467 384.434 268.928 383.431 268.928C382.887 268.928 382.444 269.141 382.103 269.568C381.804 269.931 381.655 270.357 381.655 270.848V276ZM395.76 270.032H393.76C393.899 269.168 394.331 268.507 395.056 268.048C395.707 267.643 396.523 267.44 397.504 267.44C398.688 267.44 399.595 267.744 400.224 268.352C400.768 268.875 401.04 269.552 401.04 270.384V276H399.504L399.264 274.976C398.614 275.819 397.691 276.24 396.496 276.24C395.547 276.24 394.811 275.984 394.288 275.472C393.83 275.024 393.6 274.453 393.6 273.76C393.6 272.981 393.883 272.373 394.448 271.936C394.96 271.531 395.755 271.237 396.832 271.056L399.12 270.672V270.272C399.12 269.771 398.955 269.397 398.624 269.152C398.336 268.928 397.942 268.816 397.44 268.816C396.448 268.816 395.888 269.221 395.76 270.032ZM399.12 271.936L397.312 272.256C396.694 272.373 396.251 272.539 395.984 272.752C395.718 272.955 395.584 273.243 395.584 273.616C395.584 274.395 396.059 274.784 397.008 274.784C397.627 274.784 398.15 274.581 398.576 274.176C398.939 273.824 399.12 273.413 399.12 272.944V271.936ZM407.881 267.552V269.408C407.529 269.301 407.193 269.248 406.873 269.248C406.275 269.248 405.795 269.509 405.433 270.032C405.091 270.533 404.921 271.227 404.921 272.112V276H403.001V267.68H404.585L404.825 268.928C405.294 267.936 406.003 267.44 406.953 267.44C407.294 267.44 407.603 267.477 407.881 267.552ZM416.394 267.68L413.466 276.144C413.082 277.264 412.676 278.037 412.25 278.464C411.823 278.901 411.268 279.12 410.586 279.12C410.244 279.12 409.866 279.067 409.45 278.96V277.52C409.78 277.605 410.079 277.648 410.346 277.648C410.687 277.648 410.959 277.499 411.162 277.2C411.311 276.976 411.482 276.576 411.674 276H411.082L408.058 267.68H410.122L412.266 274.528L414.474 267.68H416.394Z" fill="white" fill-opacity="0.95"/>
<path d="M429.707 163L433.854 158.853C433.9 158.807 433.937 158.752 433.962 158.691C433.987 158.631 434 158.566 434 158.5C434 158.434 433.987 158.369 433.962 158.309C433.937 158.248 433.9 158.193 433.854 158.146C433.807 158.1 433.752 158.063 433.691 158.038C433.631 158.013 433.566 158 433.5 158C433.434 158 433.369 158.013 433.309 158.038C433.248 158.063 433.193 158.1 433.147 158.146L429 162.293L424.854 158.146C424.807 158.1 424.752 158.062 424.691 158.037C424.631 158.011 424.565 157.998 424.499 157.998C424.434 157.998 424.368 158.011 424.307 158.036C424.246 158.061 424.191 158.098 424.144 158.144C424.098 158.191 424.061 158.246 424.036 158.307C424.011 158.368 423.998 158.433 423.998 158.499C423.998 158.565 424.011 158.63 424.037 158.691C424.062 158.752 424.1 158.807 424.147 158.853L428.293 163L424.147 167.146C424.1 167.193 424.063 167.248 424.038 167.309C424.013 167.369 424 167.434 424 167.5C424 167.566 424.013 167.631 424.038 167.691C424.063 167.752 424.1 167.807 424.147 167.853C424.193 167.9 424.248 167.937 424.309 167.962C424.369 167.987 424.434 168 424.5 168C424.566 168 424.631 167.987 424.691 167.962C424.752 167.937 424.807 167.9 424.854 167.853L429 163.707L433.147 167.853C433.24 167.947 433.367 168 433.5 168C433.633 168 433.76 167.947 433.854 167.853C433.947 167.76 434 167.633 434 167.5C434 167.367 433.947 167.24 433.854 167.146L429.707 163Z" fill="black" fill-opacity="0.95"/>
</g>
<g clip-path="url(#clip0_1241_30148)">
<path d="M291.869 127V193" stroke="#932099" stroke-dasharray="4 4"/>
<rect width="8" height="8" rx="4" transform="matrix(0 1 1 0 287.869 193)" fill="#932099"/>
<rect x="287.869" y="107" width="301" height="28" rx="14" fill="#932099"/>
<rect x="299.869" y="111" width="20" height="20" rx="10" fill="white" fill-opacity="0.7"/>
<path d="M331.256 121.955V127H328.835V118.273H331.142V119.812H331.244C331.437 119.305 331.761 118.903 332.216 118.608C332.67 118.309 333.221 118.159 333.869 118.159C334.475 118.159 335.004 118.292 335.454 118.557C335.905 118.822 336.256 119.201 336.506 119.693C336.756 120.182 336.881 120.765 336.881 121.443V127H334.46V121.875C334.464 121.341 334.327 120.924 334.051 120.625C333.774 120.322 333.394 120.17 332.909 120.17C332.583 120.17 332.295 120.241 332.045 120.381C331.799 120.521 331.606 120.725 331.466 120.994C331.329 121.259 331.259 121.58 331.256 121.955ZM343.085 127.17C342.188 127.17 341.415 126.989 340.767 126.625C340.123 126.258 339.627 125.739 339.279 125.068C338.93 124.394 338.756 123.597 338.756 122.676C338.756 121.778 338.93 120.991 339.279 120.312C339.627 119.634 340.118 119.106 340.75 118.727C341.387 118.348 342.133 118.159 342.989 118.159C343.565 118.159 344.101 118.252 344.597 118.438C345.097 118.619 345.532 118.894 345.904 119.261C346.279 119.629 346.57 120.091 346.779 120.648C346.987 121.201 347.091 121.848 347.091 122.591V123.256H339.722V121.756H344.813C344.813 121.407 344.737 121.098 344.585 120.83C344.434 120.561 344.224 120.35 343.955 120.199C343.69 120.044 343.381 119.966 343.029 119.966C342.661 119.966 342.335 120.051 342.051 120.222C341.771 120.388 341.551 120.614 341.392 120.898C341.233 121.178 341.152 121.491 341.148 121.835V123.261C341.148 123.693 341.227 124.066 341.387 124.381C341.549 124.695 341.779 124.938 342.074 125.108C342.37 125.278 342.72 125.364 343.125 125.364C343.394 125.364 343.64 125.326 343.864 125.25C344.087 125.174 344.279 125.061 344.438 124.909C344.597 124.758 344.718 124.572 344.801 124.352L347.04 124.5C346.926 125.038 346.693 125.508 346.341 125.909C345.993 126.307 345.542 126.617 344.989 126.841C344.44 127.061 343.805 127.17 343.085 127.17ZM354.587 123.284V118.273H357.008V127H354.684V125.415H354.593C354.396 125.926 354.068 126.337 353.61 126.648C353.155 126.958 352.601 127.114 351.945 127.114C351.362 127.114 350.849 126.981 350.405 126.716C349.962 126.451 349.616 126.074 349.366 125.585C349.119 125.097 348.994 124.511 348.991 123.83V118.273H351.411V123.398C351.415 123.913 351.553 124.32 351.826 124.619C352.099 124.919 352.464 125.068 352.922 125.068C353.214 125.068 353.487 125.002 353.741 124.869C353.994 124.733 354.199 124.532 354.354 124.267C354.513 124.002 354.591 123.674 354.587 123.284ZM363.906 118.273V120.091H358.65V118.273H363.906ZM359.843 116.182H362.264V124.318C362.264 124.542 362.298 124.716 362.366 124.841C362.434 124.962 362.529 125.047 362.65 125.097C362.775 125.146 362.919 125.17 363.082 125.17C363.196 125.17 363.309 125.161 363.423 125.142C363.537 125.119 363.624 125.102 363.684 125.091L364.065 126.892C363.944 126.93 363.773 126.973 363.554 127.023C363.334 127.076 363.067 127.108 362.752 127.119C362.169 127.142 361.658 127.064 361.218 126.886C360.783 126.708 360.444 126.432 360.201 126.057C359.959 125.682 359.84 125.208 359.843 124.636V116.182ZM365.803 127V118.273H368.149V119.795H368.24C368.399 119.254 368.666 118.845 369.041 118.568C369.416 118.288 369.848 118.148 370.337 118.148C370.458 118.148 370.589 118.155 370.729 118.17C370.869 118.186 370.992 118.206 371.098 118.233V120.381C370.984 120.347 370.827 120.316 370.626 120.29C370.426 120.263 370.242 120.25 370.075 120.25C369.719 120.25 369.401 120.328 369.121 120.483C368.844 120.634 368.625 120.847 368.462 121.119C368.303 121.392 368.223 121.706 368.223 122.062V127H365.803ZM374.908 127.165C374.351 127.165 373.855 127.068 373.419 126.875C372.984 126.678 372.639 126.388 372.385 126.006C372.135 125.619 372.01 125.138 372.01 124.562C372.01 124.078 372.099 123.67 372.277 123.341C372.455 123.011 372.698 122.746 373.005 122.545C373.311 122.345 373.66 122.193 374.05 122.091C374.444 121.989 374.857 121.917 375.289 121.875C375.796 121.822 376.205 121.773 376.516 121.727C376.827 121.678 377.052 121.606 377.192 121.511C377.332 121.417 377.402 121.277 377.402 121.091V121.057C377.402 120.697 377.289 120.419 377.061 120.222C376.838 120.025 376.52 119.926 376.107 119.926C375.671 119.926 375.325 120.023 375.067 120.216C374.81 120.405 374.639 120.644 374.556 120.932L372.317 120.75C372.431 120.22 372.654 119.761 372.988 119.375C373.321 118.985 373.751 118.686 374.277 118.477C374.808 118.265 375.421 118.159 376.118 118.159C376.603 118.159 377.067 118.216 377.51 118.33C377.957 118.443 378.353 118.619 378.698 118.858C379.046 119.097 379.321 119.403 379.522 119.778C379.722 120.15 379.823 120.595 379.823 121.114V127H377.527V125.79H377.459C377.319 126.062 377.132 126.303 376.897 126.511C376.662 126.716 376.38 126.877 376.05 126.994C375.721 127.108 375.34 127.165 374.908 127.165ZM375.601 125.494C375.957 125.494 376.272 125.424 376.544 125.284C376.817 125.14 377.031 124.947 377.186 124.705C377.342 124.462 377.419 124.187 377.419 123.881V122.955C377.344 123.004 377.239 123.049 377.107 123.091C376.978 123.129 376.832 123.165 376.669 123.199C376.507 123.229 376.344 123.258 376.181 123.284C376.018 123.307 375.87 123.328 375.738 123.347C375.454 123.388 375.205 123.455 374.993 123.545C374.781 123.636 374.616 123.759 374.499 123.915C374.382 124.066 374.323 124.256 374.323 124.483C374.323 124.812 374.442 125.064 374.681 125.239C374.923 125.409 375.23 125.494 375.601 125.494ZM384.441 115.364V127H382.021V115.364H384.441ZM388.115 127.148C387.74 127.148 387.418 127.015 387.149 126.75C386.884 126.481 386.751 126.159 386.751 125.784C386.751 125.413 386.884 125.095 387.149 124.83C387.418 124.564 387.74 124.432 388.115 124.432C388.478 124.432 388.797 124.564 389.069 124.83C389.342 125.095 389.478 125.413 389.478 125.784C389.478 126.034 389.414 126.263 389.285 126.472C389.16 126.676 388.996 126.841 388.791 126.966C388.586 127.087 388.361 127.148 388.115 127.148ZM396.428 118.273V120.091H391.172V118.273H396.428ZM392.365 116.182H394.786V124.318C394.786 124.542 394.82 124.716 394.888 124.841C394.956 124.962 395.051 125.047 395.172 125.097C395.297 125.146 395.441 125.17 395.604 125.17C395.717 125.17 395.831 125.161 395.945 125.142C396.058 125.119 396.146 125.102 396.206 125.091L396.587 126.892C396.466 126.93 396.295 126.973 396.075 127.023C395.856 127.076 395.589 127.108 395.274 127.119C394.691 127.142 394.18 127.064 393.74 126.886C393.305 126.708 392.966 126.432 392.723 126.057C392.481 125.682 392.361 125.208 392.365 124.636V116.182ZM402.208 127.17C401.31 127.17 400.537 126.989 399.89 126.625C399.246 126.258 398.75 125.739 398.401 125.068C398.053 124.394 397.878 123.597 397.878 122.676C397.878 121.778 398.053 120.991 398.401 120.312C398.75 119.634 399.24 119.106 399.873 118.727C400.509 118.348 401.255 118.159 402.111 118.159C402.687 118.159 403.223 118.252 403.719 118.438C404.219 118.619 404.655 118.894 405.026 119.261C405.401 119.629 405.693 120.091 405.901 120.648C406.109 121.201 406.214 121.848 406.214 122.591V123.256H398.844V121.756H403.935C403.935 121.407 403.859 121.098 403.708 120.83C403.556 120.561 403.346 120.35 403.077 120.199C402.812 120.044 402.503 119.966 402.151 119.966C401.784 119.966 401.458 120.051 401.174 120.222C400.894 120.388 400.674 120.614 400.515 120.898C400.356 121.178 400.274 121.491 400.27 121.835V123.261C400.27 123.693 400.35 124.066 400.509 124.381C400.672 124.695 400.901 124.938 401.197 125.108C401.492 125.278 401.842 125.364 402.248 125.364C402.517 125.364 402.763 125.326 402.986 125.25C403.21 125.174 403.401 125.061 403.56 124.909C403.719 124.758 403.841 124.572 403.924 124.352L406.162 124.5C406.049 125.038 405.816 125.508 405.464 125.909C405.115 126.307 404.664 126.617 404.111 126.841C403.562 127.061 402.928 127.17 402.208 127.17ZM409.98 118.273L411.582 121.324L413.224 118.273H415.707L413.179 122.636L415.775 127H413.304L411.582 123.983L409.889 127H407.389L409.98 122.636L407.48 118.273H409.98ZM422.106 118.273V120.091H416.851V118.273H422.106ZM418.044 116.182H420.464V124.318C420.464 124.542 420.499 124.716 420.567 124.841C420.635 124.962 420.73 125.047 420.851 125.097C420.976 125.146 421.12 125.17 421.283 125.17C421.396 125.17 421.51 125.161 421.624 125.142C421.737 125.119 421.824 125.102 421.885 125.091L422.266 126.892C422.144 126.93 421.974 126.973 421.754 127.023C421.534 127.076 421.267 127.108 420.953 127.119C420.37 127.142 419.858 127.064 419.419 126.886C418.983 126.708 418.644 126.432 418.402 126.057C418.159 125.682 418.04 125.208 418.044 124.636V116.182ZM425.418 127.148C425.043 127.148 424.721 127.015 424.452 126.75C424.187 126.481 424.054 126.159 424.054 125.784C424.054 125.413 424.187 125.095 424.452 124.83C424.721 124.564 425.043 124.432 425.418 124.432C425.782 124.432 426.1 124.564 426.372 124.83C426.645 125.095 426.782 125.413 426.782 125.784C426.782 126.034 426.717 126.263 426.588 126.472C426.463 126.676 426.299 126.841 426.094 126.966C425.89 127.087 425.664 127.148 425.418 127.148ZM436.35 120.761L434.134 120.898C434.096 120.708 434.015 120.538 433.89 120.386C433.765 120.231 433.6 120.108 433.396 120.017C433.195 119.922 432.954 119.875 432.674 119.875C432.299 119.875 431.983 119.955 431.725 120.114C431.468 120.269 431.339 120.477 431.339 120.739C431.339 120.947 431.422 121.123 431.589 121.267C431.755 121.411 432.041 121.527 432.447 121.614L434.026 121.932C434.875 122.106 435.507 122.386 435.924 122.773C436.341 123.159 436.549 123.667 436.549 124.295C436.549 124.867 436.38 125.369 436.043 125.801C435.71 126.233 435.252 126.57 434.668 126.812C434.089 127.051 433.42 127.17 432.663 127.17C431.507 127.17 430.587 126.93 429.901 126.449C429.219 125.964 428.82 125.305 428.702 124.472L431.083 124.347C431.155 124.699 431.329 124.968 431.606 125.153C431.882 125.335 432.237 125.426 432.668 125.426C433.093 125.426 433.434 125.345 433.691 125.182C433.952 125.015 434.085 124.801 434.089 124.54C434.085 124.32 433.992 124.14 433.81 124C433.629 123.856 433.348 123.746 432.969 123.67L431.458 123.369C430.606 123.199 429.971 122.903 429.555 122.483C429.142 122.062 428.935 121.527 428.935 120.875C428.935 120.314 429.087 119.831 429.39 119.426C429.697 119.021 430.127 118.708 430.68 118.489C431.237 118.269 431.888 118.159 432.634 118.159C433.737 118.159 434.604 118.392 435.237 118.858C435.873 119.324 436.244 119.958 436.35 120.761ZM442.37 127.17C441.473 127.17 440.7 126.989 440.052 126.625C439.408 126.258 438.912 125.739 438.564 125.068C438.215 124.394 438.041 123.597 438.041 122.676C438.041 121.778 438.215 120.991 438.564 120.312C438.912 119.634 439.403 119.106 440.035 118.727C440.672 118.348 441.418 118.159 442.274 118.159C442.85 118.159 443.386 118.252 443.882 118.438C444.382 118.619 444.817 118.894 445.189 119.261C445.564 119.629 445.855 120.091 446.064 120.648C446.272 121.201 446.376 121.848 446.376 122.591V123.256H439.007V121.756H444.098C444.098 121.407 444.022 121.098 443.87 120.83C443.719 120.561 443.509 120.35 443.24 120.199C442.975 120.044 442.666 119.966 442.314 119.966C441.946 119.966 441.62 120.051 441.336 120.222C441.056 120.388 440.836 120.614 440.677 120.898C440.518 121.178 440.437 121.491 440.433 121.835V123.261C440.433 123.693 440.512 124.066 440.672 124.381C440.834 124.695 441.064 124.938 441.359 125.108C441.655 125.278 442.005 125.364 442.41 125.364C442.679 125.364 442.925 125.326 443.149 125.25C443.372 125.174 443.564 125.061 443.723 124.909C443.882 124.758 444.003 124.572 444.086 124.352L446.325 124.5C446.211 125.038 445.978 125.508 445.626 125.909C445.278 126.307 444.827 126.617 444.274 126.841C443.725 127.061 443.09 127.17 442.37 127.17ZM452.219 127.17C451.325 127.17 450.556 126.981 449.912 126.602C449.272 126.22 448.779 125.689 448.435 125.011C448.094 124.333 447.923 123.553 447.923 122.67C447.923 121.777 448.096 120.992 448.44 120.318C448.789 119.64 449.283 119.112 449.923 118.733C450.564 118.35 451.325 118.159 452.207 118.159C452.969 118.159 453.636 118.297 454.207 118.574C454.779 118.85 455.232 119.239 455.565 119.739C455.899 120.239 456.082 120.826 456.117 121.5H453.832C453.768 121.064 453.598 120.714 453.321 120.449C453.048 120.18 452.69 120.045 452.247 120.045C451.872 120.045 451.545 120.148 451.264 120.352C450.988 120.553 450.772 120.847 450.617 121.233C450.461 121.619 450.384 122.087 450.384 122.636C450.384 123.193 450.459 123.667 450.611 124.057C450.766 124.447 450.984 124.744 451.264 124.949C451.545 125.153 451.872 125.256 452.247 125.256C452.524 125.256 452.772 125.199 452.992 125.085C453.215 124.972 453.399 124.807 453.543 124.591C453.69 124.371 453.787 124.108 453.832 123.801H456.117C456.079 124.468 455.897 125.055 455.571 125.562C455.249 126.066 454.804 126.46 454.236 126.744C453.668 127.028 452.995 127.17 452.219 127.17ZM461.929 127.17C461.047 127.17 460.284 126.983 459.64 126.608C459 126.229 458.505 125.703 458.157 125.028C457.808 124.35 457.634 123.564 457.634 122.67C457.634 121.769 457.808 120.981 458.157 120.307C458.505 119.629 459 119.102 459.64 118.727C460.284 118.348 461.047 118.159 461.929 118.159C462.812 118.159 463.573 118.348 464.214 118.727C464.858 119.102 465.354 119.629 465.702 120.307C466.051 120.981 466.225 121.769 466.225 122.67C466.225 123.564 466.051 124.35 465.702 125.028C465.354 125.703 464.858 126.229 464.214 126.608C463.573 126.983 462.812 127.17 461.929 127.17ZM461.941 125.295C462.342 125.295 462.678 125.182 462.947 124.955C463.215 124.723 463.418 124.409 463.554 124.011C463.695 123.614 463.765 123.161 463.765 122.653C463.765 122.146 463.695 121.693 463.554 121.295C463.418 120.898 463.215 120.583 462.947 120.352C462.678 120.121 462.342 120.006 461.941 120.006C461.536 120.006 461.195 120.121 460.918 120.352C460.645 120.583 460.439 120.898 460.299 121.295C460.162 121.693 460.094 122.146 460.094 122.653C460.094 123.161 460.162 123.614 460.299 124.011C460.439 124.409 460.645 124.723 460.918 124.955C461.195 125.182 461.536 125.295 461.941 125.295ZM470.539 121.955V127H468.119V118.273H470.426V119.812H470.528C470.721 119.305 471.045 118.903 471.499 118.608C471.954 118.309 472.505 118.159 473.153 118.159C473.759 118.159 474.287 118.292 474.738 118.557C475.189 118.822 475.539 119.201 475.789 119.693C476.039 120.182 476.164 120.765 476.164 121.443V127H473.744V121.875C473.748 121.341 473.611 120.924 473.335 120.625C473.058 120.322 472.678 120.17 472.193 120.17C471.867 120.17 471.579 120.241 471.329 120.381C471.083 120.521 470.89 120.725 470.749 120.994C470.613 121.259 470.543 121.58 470.539 121.955ZM481.608 127.142C480.945 127.142 480.345 126.972 479.807 126.631C479.273 126.286 478.848 125.78 478.534 125.114C478.223 124.443 478.068 123.621 478.068 122.648C478.068 121.648 478.229 120.816 478.551 120.153C478.873 119.487 479.301 118.989 479.835 118.659C480.373 118.326 480.962 118.159 481.602 118.159C482.091 118.159 482.498 118.242 482.824 118.409C483.153 118.572 483.418 118.777 483.619 119.023C483.824 119.265 483.979 119.504 484.085 119.739H484.159V115.364H486.574V127H484.187V125.602H484.085C483.971 125.845 483.81 126.085 483.602 126.324C483.398 126.559 483.131 126.754 482.801 126.909C482.475 127.064 482.078 127.142 481.608 127.142ZM482.375 125.216C482.765 125.216 483.095 125.11 483.364 124.898C483.636 124.682 483.845 124.381 483.989 123.994C484.136 123.608 484.21 123.155 484.21 122.636C484.21 122.117 484.138 121.667 483.994 121.284C483.85 120.902 483.642 120.606 483.369 120.398C483.096 120.189 482.765 120.085 482.375 120.085C481.977 120.085 481.642 120.193 481.369 120.409C481.096 120.625 480.89 120.924 480.75 121.307C480.61 121.689 480.54 122.133 480.54 122.636C480.54 123.144 480.61 123.593 480.75 123.983C480.894 124.369 481.1 124.672 481.369 124.892C481.642 125.108 481.977 125.216 482.375 125.216ZM491.372 127.165C490.816 127.165 490.319 127.068 489.884 126.875C489.448 126.678 489.103 126.388 488.85 126.006C488.6 125.619 488.475 125.138 488.475 124.562C488.475 124.078 488.564 123.67 488.742 123.341C488.92 123.011 489.162 122.746 489.469 122.545C489.776 122.345 490.124 122.193 490.514 122.091C490.908 121.989 491.321 121.917 491.753 121.875C492.261 121.822 492.67 121.773 492.98 121.727C493.291 121.678 493.516 121.606 493.657 121.511C493.797 121.417 493.867 121.277 493.867 121.091V121.057C493.867 120.697 493.753 120.419 493.526 120.222C493.302 120.025 492.984 119.926 492.571 119.926C492.136 119.926 491.789 120.023 491.532 120.216C491.274 120.405 491.103 120.644 491.02 120.932L488.782 120.75C488.895 120.22 489.119 119.761 489.452 119.375C489.785 118.985 490.215 118.686 490.742 118.477C491.272 118.265 491.886 118.159 492.583 118.159C493.068 118.159 493.532 118.216 493.975 118.33C494.422 118.443 494.818 118.619 495.162 118.858C495.511 119.097 495.785 119.403 495.986 119.778C496.187 120.15 496.287 120.595 496.287 121.114V127H493.992V125.79H493.924C493.783 126.062 493.596 126.303 493.361 126.511C493.126 126.716 492.844 126.877 492.514 126.994C492.185 127.108 491.804 127.165 491.372 127.165ZM492.066 125.494C492.422 125.494 492.736 125.424 493.009 125.284C493.282 125.14 493.496 124.947 493.651 124.705C493.806 124.462 493.884 124.187 493.884 123.881V122.955C493.808 123.004 493.704 123.049 493.571 123.091C493.443 123.129 493.297 123.165 493.134 123.199C492.971 123.229 492.808 123.258 492.645 123.284C492.482 123.307 492.335 123.328 492.202 123.347C491.918 123.388 491.67 123.455 491.458 123.545C491.246 123.636 491.081 123.759 490.963 123.915C490.846 124.066 490.787 124.256 490.787 124.483C490.787 124.812 490.907 125.064 491.145 125.239C491.388 125.409 491.694 125.494 492.066 125.494ZM498.485 127V118.273H500.832V119.795H500.923C501.082 119.254 501.349 118.845 501.724 118.568C502.099 118.288 502.53 118.148 503.019 118.148C503.14 118.148 503.271 118.155 503.411 118.17C503.551 118.186 503.674 118.206 503.78 118.233V120.381C503.667 120.347 503.51 120.316 503.309 120.29C503.108 120.263 502.924 120.25 502.758 120.25C502.402 120.25 502.084 120.328 501.803 120.483C501.527 120.634 501.307 120.847 501.144 121.119C500.985 121.392 500.905 121.706 500.905 122.062V127H498.485ZM507.112 130.256C506.805 130.256 506.517 130.231 506.248 130.182C505.983 130.136 505.763 130.08 505.589 130.011L506.135 128.199C506.563 128.331 506.922 128.366 507.214 128.301C507.51 128.241 507.743 128.013 507.913 127.619L508.055 127.25L504.924 118.273H507.47L509.277 124.682H509.368L511.191 118.273L513.754 118.284L510.362 127.943C510.199 128.409 509.977 128.814 509.697 129.159C509.421 129.508 509.07 129.777 508.646 129.966C508.222 130.159 507.71 130.256 507.112 130.256ZM516.18 127.148C515.805 127.148 515.483 127.015 515.215 126.75C514.949 126.481 514.817 126.159 514.817 125.784C514.817 125.413 514.949 125.095 515.215 124.83C515.483 124.564 515.805 124.432 516.18 124.432C516.544 124.432 516.862 124.564 517.135 124.83C517.408 125.095 517.544 125.413 517.544 125.784C517.544 126.034 517.48 126.263 517.351 126.472C517.226 126.676 517.061 126.841 516.857 126.966C516.652 127.087 516.427 127.148 516.18 127.148ZM523.067 127.142C522.404 127.142 521.804 126.972 521.266 126.631C520.732 126.286 520.308 125.78 519.993 125.114C519.683 124.443 519.527 123.621 519.527 122.648C519.527 121.648 519.688 120.816 520.01 120.153C520.332 119.487 520.76 118.989 521.294 118.659C521.832 118.326 522.421 118.159 523.062 118.159C523.55 118.159 523.957 118.242 524.283 118.409C524.613 118.572 524.878 118.777 525.079 119.023C525.283 119.265 525.438 119.504 525.544 119.739H525.618V115.364H528.033V127H525.647V125.602H525.544C525.431 125.845 525.27 126.085 525.062 126.324C524.857 126.559 524.59 126.754 524.26 126.909C523.935 127.064 523.537 127.142 523.067 127.142ZM523.834 125.216C524.224 125.216 524.554 125.11 524.823 124.898C525.096 124.682 525.304 124.381 525.448 123.994C525.596 123.608 525.669 123.155 525.669 122.636C525.669 122.117 525.598 121.667 525.454 121.284C525.31 120.902 525.101 120.606 524.829 120.398C524.556 120.189 524.224 120.085 523.834 120.085C523.437 120.085 523.101 120.193 522.829 120.409C522.556 120.625 522.349 120.924 522.209 121.307C522.069 121.689 521.999 122.133 521.999 122.636C521.999 123.144 522.069 123.593 522.209 123.983C522.353 124.369 522.56 124.672 522.829 124.892C523.101 125.108 523.437 125.216 523.834 125.216ZM534.32 127.17C533.423 127.17 532.65 126.989 532.002 126.625C531.358 126.258 530.862 125.739 530.514 125.068C530.165 124.394 529.991 123.597 529.991 122.676C529.991 121.778 530.165 120.991 530.514 120.312C530.862 119.634 531.353 119.106 531.985 118.727C532.622 118.348 533.368 118.159 534.224 118.159C534.8 118.159 535.336 118.252 535.832 118.438C536.332 118.619 536.767 118.894 537.139 119.261C537.514 119.629 537.805 120.091 538.014 120.648C538.222 121.201 538.326 121.848 538.326 122.591V123.256H530.957V121.756H536.048C536.048 121.407 535.972 121.098 535.82 120.83C535.669 120.561 535.459 120.35 535.19 120.199C534.925 120.044 534.616 119.966 534.264 119.966C533.896 119.966 533.57 120.051 533.286 120.222C533.006 120.388 532.786 120.614 532.627 120.898C532.468 121.178 532.387 121.491 532.383 121.835V123.261C532.383 123.693 532.462 124.066 532.622 124.381C532.784 124.695 533.014 124.938 533.309 125.108C533.605 125.278 533.955 125.364 534.36 125.364C534.629 125.364 534.875 125.326 535.099 125.25C535.322 125.174 535.514 125.061 535.673 124.909C535.832 124.758 535.953 124.572 536.036 124.352L538.275 124.5C538.161 125.038 537.928 125.508 537.576 125.909C537.228 126.307 536.777 126.617 536.224 126.841C535.675 127.061 535.04 127.17 534.32 127.17ZM544.919 118.273V120.091H539.532V118.273H544.919ZM540.765 127V117.642C540.765 117.009 540.889 116.485 541.135 116.068C541.385 115.652 541.726 115.339 542.157 115.131C542.589 114.922 543.08 114.818 543.629 114.818C544 114.818 544.339 114.847 544.646 114.903C544.957 114.96 545.188 115.011 545.339 115.057L544.907 116.875C544.813 116.845 544.695 116.816 544.555 116.79C544.419 116.763 544.279 116.75 544.135 116.75C543.779 116.75 543.531 116.833 543.39 117C543.25 117.163 543.18 117.392 543.18 117.688V127H540.765ZM548.894 127.165C548.337 127.165 547.841 127.068 547.405 126.875C546.969 126.678 546.625 126.388 546.371 126.006C546.121 125.619 545.996 125.138 545.996 124.562C545.996 124.078 546.085 123.67 546.263 123.341C546.441 123.011 546.683 122.746 546.99 122.545C547.297 122.345 547.646 122.193 548.036 122.091C548.43 121.989 548.843 121.917 549.274 121.875C549.782 121.822 550.191 121.773 550.502 121.727C550.812 121.678 551.038 121.606 551.178 121.511C551.318 121.417 551.388 121.277 551.388 121.091V121.057C551.388 120.697 551.274 120.419 551.047 120.222C550.824 120.025 550.505 119.926 550.093 119.926C549.657 119.926 549.31 120.023 549.053 120.216C548.795 120.405 548.625 120.644 548.541 120.932L546.303 120.75C546.416 120.22 546.64 119.761 546.973 119.375C547.307 118.985 547.736 118.686 548.263 118.477C548.793 118.265 549.407 118.159 550.104 118.159C550.589 118.159 551.053 118.216 551.496 118.33C551.943 118.443 552.339 118.619 552.683 118.858C553.032 119.097 553.307 119.403 553.507 119.778C553.708 120.15 553.808 120.595 553.808 121.114V127H551.513V125.79H551.445C551.305 126.062 551.117 126.303 550.882 126.511C550.647 126.716 550.365 126.877 550.036 126.994C549.706 127.108 549.326 127.165 548.894 127.165ZM549.587 125.494C549.943 125.494 550.257 125.424 550.53 125.284C550.803 125.14 551.017 124.947 551.172 124.705C551.327 124.462 551.405 124.187 551.405 123.881V122.955C551.329 123.004 551.225 123.049 551.093 123.091C550.964 123.129 550.818 123.165 550.655 123.199C550.492 123.229 550.329 123.258 550.166 123.284C550.004 123.307 549.856 123.328 549.723 123.347C549.439 123.388 549.191 123.455 548.979 123.545C548.767 123.636 548.602 123.759 548.485 123.915C548.367 124.066 548.308 124.256 548.308 124.483C548.308 124.812 548.428 125.064 548.666 125.239C548.909 125.409 549.216 125.494 549.587 125.494ZM561.603 123.284V118.273H564.023V127H561.699V125.415H561.609C561.412 125.926 561.084 126.337 560.626 126.648C560.171 126.958 559.616 127.114 558.961 127.114C558.378 127.114 557.864 126.981 557.421 126.716C556.978 126.451 556.631 126.074 556.381 125.585C556.135 125.097 556.01 124.511 556.006 123.83V118.273H558.427V123.398C558.431 123.913 558.569 124.32 558.842 124.619C559.114 124.919 559.48 125.068 559.938 125.068C560.23 125.068 560.503 125.002 560.756 124.869C561.01 124.733 561.215 124.532 561.37 124.267C561.529 124.002 561.607 123.674 561.603 123.284ZM568.7 115.364V127H566.279V115.364H568.7ZM575.601 118.273V120.091H570.345V118.273H575.601ZM571.538 116.182H573.959V124.318C573.959 124.542 573.993 124.716 574.061 124.841C574.129 124.962 574.224 125.047 574.345 125.097C574.47 125.146 574.614 125.17 574.777 125.17C574.891 125.17 575.004 125.161 575.118 125.142C575.232 125.119 575.319 125.102 575.379 125.091L575.76 126.892C575.639 126.93 575.468 126.973 575.249 127.023C575.029 127.076 574.762 127.108 574.447 127.119C573.864 127.142 573.353 127.064 572.913 126.886C572.478 126.708 572.139 126.432 571.896 126.057C571.654 125.682 571.535 125.208 571.538 124.636V116.182Z" fill="white"/>
</g>
<g clip-path="url(#clip1_1241_30148)">
<path d="M102.938 80V172" stroke="#932099" stroke-dasharray="4 4"/>
<rect width="8" height="8" rx="4" transform="matrix(0 1 1 0 98.9375 172)" fill="#932099"/>
<rect x="98.9375" y="60" width="348" height="28" rx="14" fill="#932099"/>
<rect x="110.938" y="64" width="20" height="20" rx="10" fill="url(#paint1_linear_1241_30148)"/>
<path d="M143.119 80.142C142.456 80.142 141.856 79.9716 141.318 79.6307C140.784 79.286 140.36 78.7803 140.045 78.1136C139.735 77.4432 139.58 76.6212 139.58 75.6477C139.58 74.6477 139.741 73.8163 140.062 73.1534C140.384 72.4867 140.813 71.9886 141.347 71.6591C141.884 71.3258 142.473 71.1591 143.114 71.1591C143.602 71.1591 144.009 71.2424 144.335 71.4091C144.665 71.572 144.93 71.7765 145.131 72.0227C145.335 72.2652 145.491 72.5038 145.597 72.7386H145.67V68.3636H148.085V80H145.699V78.6023H145.597C145.483 78.8447 145.322 79.0852 145.114 79.3239C144.909 79.5587 144.642 79.7538 144.312 79.9091C143.987 80.0644 143.589 80.142 143.119 80.142ZM143.886 78.2159C144.277 78.2159 144.606 78.1098 144.875 77.8977C145.148 77.6818 145.356 77.3807 145.5 76.9943C145.648 76.608 145.722 76.1553 145.722 75.6364C145.722 75.1174 145.65 74.6667 145.506 74.2841C145.362 73.9015 145.153 73.6061 144.881 73.3977C144.608 73.1894 144.277 73.0852 143.886 73.0852C143.489 73.0852 143.153 73.1932 142.881 73.4091C142.608 73.625 142.402 73.9242 142.261 74.3068C142.121 74.6894 142.051 75.1326 142.051 75.6364C142.051 76.1439 142.121 76.5928 142.261 76.983C142.405 77.3693 142.612 77.6723 142.881 77.892C143.153 78.108 143.489 78.2159 143.886 78.2159ZM154.373 80.1705C153.475 80.1705 152.702 79.9886 152.054 79.625C151.41 79.2576 150.914 78.7386 150.566 78.0682C150.217 77.3939 150.043 76.5966 150.043 75.6761C150.043 74.7784 150.217 73.9905 150.566 73.3125C150.914 72.6345 151.405 72.1061 152.037 71.7273C152.674 71.3485 153.42 71.1591 154.276 71.1591C154.852 71.1591 155.388 71.2519 155.884 71.4375C156.384 71.6193 156.82 71.8939 157.191 72.2614C157.566 72.6288 157.857 73.0909 158.066 73.6477C158.274 74.2008 158.378 74.8485 158.378 75.5909V76.2557H151.009V74.7557H156.1C156.1 74.4072 156.024 74.0985 155.873 73.8295C155.721 73.5606 155.511 73.3504 155.242 73.1989C154.977 73.0436 154.668 72.9659 154.316 72.9659C153.948 72.9659 153.623 73.0511 153.338 73.2216C153.058 73.3883 152.838 73.6136 152.679 73.8977C152.52 74.178 152.439 74.4905 152.435 74.8352V76.2614C152.435 76.6932 152.515 77.0663 152.674 77.3807C152.837 77.6951 153.066 77.9375 153.361 78.108C153.657 78.2784 154.007 78.3636 154.412 78.3636C154.681 78.3636 154.927 78.3258 155.151 78.25C155.374 78.1742 155.566 78.0606 155.725 77.9091C155.884 77.7576 156.005 77.572 156.088 77.3523L158.327 77.5C158.213 78.0379 157.981 78.5076 157.628 78.9091C157.28 79.3068 156.829 79.6174 156.276 79.8409C155.727 80.0606 155.092 80.1705 154.373 80.1705ZM164.221 80.1705C163.327 80.1705 162.558 79.9811 161.914 79.6023C161.274 79.2197 160.782 78.6894 160.437 78.0114C160.096 77.3333 159.926 76.553 159.926 75.6705C159.926 74.7765 160.098 73.9924 160.443 73.3182C160.791 72.6402 161.285 72.1117 161.926 71.733C162.566 71.3504 163.327 71.1591 164.21 71.1591C164.971 71.1591 165.638 71.2973 166.21 71.5739C166.782 71.8504 167.234 72.2386 167.568 72.7386C167.901 73.2386 168.085 73.8258 168.119 74.5H165.835C165.77 74.0644 165.6 73.714 165.323 73.4489C165.051 73.1799 164.693 73.0455 164.249 73.0455C163.874 73.0455 163.547 73.1477 163.266 73.3523C162.99 73.553 162.774 73.8466 162.619 74.233C162.463 74.6193 162.386 75.0871 162.386 75.6364C162.386 76.1932 162.461 76.6667 162.613 77.0568C162.768 77.447 162.986 77.7443 163.266 77.9489C163.547 78.1534 163.874 78.2557 164.249 78.2557C164.526 78.2557 164.774 78.1989 164.994 78.0852C165.217 77.9716 165.401 77.8068 165.545 77.5909C165.693 77.3712 165.789 77.108 165.835 76.8011H168.119C168.081 77.4678 167.899 78.0549 167.573 78.5625C167.251 79.0663 166.806 79.4602 166.238 79.7443C165.67 80.0284 164.997 80.1705 164.221 80.1705ZM173.932 80.1705C173.049 80.1705 172.286 79.983 171.642 79.608C171.002 79.2292 170.507 78.7027 170.159 78.0284C169.81 77.3504 169.636 76.5644 169.636 75.6705C169.636 74.7689 169.81 73.9811 170.159 73.3068C170.507 72.6288 171.002 72.1023 171.642 71.7273C172.286 71.3485 173.049 71.1591 173.932 71.1591C174.814 71.1591 175.576 71.3485 176.216 71.7273C176.86 72.1023 177.356 72.6288 177.704 73.3068C178.053 73.9811 178.227 74.7689 178.227 75.6705C178.227 76.5644 178.053 77.3504 177.704 78.0284C177.356 78.7027 176.86 79.2292 176.216 79.608C175.576 79.983 174.814 80.1705 173.932 80.1705ZM173.943 78.2955C174.344 78.2955 174.68 78.1818 174.949 77.9545C175.218 77.7235 175.42 77.4091 175.557 77.0114C175.697 76.6136 175.767 76.161 175.767 75.6534C175.767 75.1458 175.697 74.6932 175.557 74.2955C175.42 73.8977 175.218 73.5833 174.949 73.3523C174.68 73.1212 174.344 73.0057 173.943 73.0057C173.538 73.0057 173.197 73.1212 172.92 73.3523C172.647 73.5833 172.441 73.8977 172.301 74.2955C172.165 74.6932 172.096 75.1458 172.096 75.6534C172.096 76.161 172.165 76.6136 172.301 77.0114C172.441 77.4091 172.647 77.7235 172.92 77.9545C173.197 78.1818 173.538 78.2955 173.943 78.2955ZM180.121 80V71.2727H182.467V72.7955H182.558C182.717 72.2538 182.985 71.8447 183.36 71.5682C183.735 71.2879 184.166 71.1477 184.655 71.1477C184.776 71.1477 184.907 71.1553 185.047 71.1705C185.187 71.1856 185.31 71.2064 185.416 71.233V73.3807C185.303 73.3466 185.146 73.3163 184.945 73.2898C184.744 73.2633 184.56 73.25 184.394 73.25C184.038 73.25 183.719 73.3277 183.439 73.483C183.163 73.6345 182.943 73.8466 182.78 74.1193C182.621 74.392 182.541 74.7064 182.541 75.0625V80H180.121ZM189.226 80.1648C188.67 80.1648 188.173 80.0682 187.738 79.875C187.302 79.678 186.957 79.3883 186.704 79.0057C186.454 78.6193 186.329 78.1383 186.329 77.5625C186.329 77.0777 186.418 76.6705 186.596 76.3409C186.774 76.0114 187.016 75.7462 187.323 75.5455C187.63 75.3447 187.978 75.1932 188.368 75.0909C188.762 74.9886 189.175 74.9167 189.607 74.875C190.115 74.822 190.524 74.7727 190.834 74.7273C191.145 74.678 191.37 74.6061 191.511 74.5114C191.651 74.4167 191.721 74.2765 191.721 74.0909V74.0568C191.721 73.697 191.607 73.4186 191.38 73.2216C191.156 73.0246 190.838 72.9261 190.425 72.9261C189.99 72.9261 189.643 73.0227 189.386 73.2159C189.128 73.4053 188.957 73.6439 188.874 73.9318L186.636 73.75C186.749 73.2197 186.973 72.7614 187.306 72.375C187.639 71.9848 188.069 71.6856 188.596 71.4773C189.126 71.2652 189.74 71.1591 190.437 71.1591C190.921 71.1591 191.386 71.2159 191.829 71.3295C192.276 71.4432 192.671 71.6193 193.016 71.858C193.365 72.0966 193.639 72.4034 193.84 72.7784C194.041 73.1496 194.141 73.5947 194.141 74.1136V80H191.846V78.7898H191.778C191.637 79.0625 191.45 79.303 191.215 79.5114C190.98 79.7159 190.698 79.8769 190.368 79.9943C190.039 80.108 189.658 80.1648 189.226 80.1648ZM189.92 78.4943C190.276 78.4943 190.59 78.4242 190.863 78.2841C191.136 78.1402 191.35 77.947 191.505 77.7045C191.66 77.4621 191.738 77.1875 191.738 76.8807V75.9545C191.662 76.0038 191.558 76.0492 191.425 76.0909C191.296 76.1288 191.151 76.1648 190.988 76.1989C190.825 76.2292 190.662 76.2576 190.499 76.2841C190.336 76.3068 190.189 76.3277 190.056 76.3466C189.772 76.3883 189.524 76.4545 189.312 76.5455C189.1 76.6364 188.935 76.7595 188.817 76.9148C188.7 77.0663 188.641 77.2557 188.641 77.483C188.641 77.8125 188.761 78.0644 188.999 78.2386C189.242 78.4091 189.548 78.4943 189.92 78.4943ZM200.981 71.2727V73.0909H195.725V71.2727H200.981ZM196.919 69.1818H199.339V77.3182C199.339 77.5417 199.373 77.7159 199.441 77.8409C199.509 77.9621 199.604 78.0473 199.725 78.0966C199.85 78.1458 199.994 78.1705 200.157 78.1705C200.271 78.1705 200.384 78.161 200.498 78.142C200.612 78.1193 200.699 78.1023 200.759 78.0909L201.14 79.892C201.019 79.9299 200.849 79.9735 200.629 80.0227C200.409 80.0758 200.142 80.108 199.828 80.1193C199.244 80.142 198.733 80.0644 198.294 79.8864C197.858 79.7083 197.519 79.4318 197.277 79.0568C197.034 78.6818 196.915 78.2083 196.919 77.6364V69.1818ZM202.878 80V71.2727H205.298V80H202.878ZM204.099 70.1477C203.74 70.1477 203.431 70.0284 203.173 69.7898C202.916 69.5473 202.787 69.2576 202.787 68.9205C202.787 68.5871 202.916 68.3011 203.173 68.0625C203.431 67.8201 203.738 67.6989 204.094 67.6989C204.457 67.6989 204.766 67.8201 205.02 68.0625C205.277 68.3011 205.406 68.5871 205.406 68.9205C205.406 69.2576 205.277 69.5473 205.02 69.7898C204.766 70.0284 204.459 70.1477 204.099 70.1477ZM215.694 71.2727L212.642 80H209.915L206.864 71.2727H209.421L211.233 77.517H211.324L213.131 71.2727H215.694ZM220.948 80.1705C220.05 80.1705 219.278 79.9886 218.63 79.625C217.986 79.2576 217.49 78.7386 217.141 78.0682C216.793 77.3939 216.619 76.5966 216.619 75.6761C216.619 74.7784 216.793 73.9905 217.141 73.3125C217.49 72.6345 217.98 72.1061 218.613 71.7273C219.249 71.3485 219.996 71.1591 220.852 71.1591C221.427 71.1591 221.963 71.2519 222.46 71.4375C222.96 71.6193 223.395 71.8939 223.766 72.2614C224.141 72.6288 224.433 73.0909 224.641 73.6477C224.85 74.2008 224.954 74.8485 224.954 75.5909V76.2557H217.585V74.7557H222.675C222.675 74.4072 222.6 74.0985 222.448 73.8295C222.297 73.5606 222.086 73.3504 221.817 73.1989C221.552 73.0436 221.244 72.9659 220.891 72.9659C220.524 72.9659 220.198 73.0511 219.914 73.2216C219.634 73.3883 219.414 73.6136 219.255 73.8977C219.096 74.178 219.014 74.4905 219.011 74.8352V76.2614C219.011 76.6932 219.09 77.0663 219.249 77.3807C219.412 77.6951 219.641 77.9375 219.937 78.108C220.232 78.2784 220.583 78.3636 220.988 78.3636C221.257 78.3636 221.503 78.3258 221.727 78.25C221.95 78.1742 222.141 78.0606 222.3 77.9091C222.46 77.7576 222.581 77.572 222.664 77.3523L224.903 77.5C224.789 78.0379 224.556 78.5076 224.204 78.9091C223.855 79.3068 223.405 79.6174 222.852 79.8409C222.302 80.0606 221.668 80.1705 220.948 80.1705ZM228.268 80.1477C227.893 80.1477 227.571 80.0152 227.302 79.75C227.037 79.4811 226.905 79.1591 226.905 78.7841C226.905 78.4129 227.037 78.0947 227.302 77.8295C227.571 77.5644 227.893 77.4318 228.268 77.4318C228.632 77.4318 228.95 77.5644 229.223 77.8295C229.495 78.0947 229.632 78.4129 229.632 78.7841C229.632 79.0341 229.567 79.2633 229.439 79.4716C229.314 79.6761 229.149 79.8409 228.944 79.9659C228.74 80.0871 228.514 80.1477 228.268 80.1477ZM231.939 80V71.2727H234.359V80H231.939ZM233.161 70.1477C232.801 70.1477 232.492 70.0284 232.234 69.7898C231.977 69.5473 231.848 69.2576 231.848 68.9205C231.848 68.5871 231.977 68.3011 232.234 68.0625C232.492 67.8201 232.799 67.6989 233.155 67.6989C233.519 67.6989 233.827 67.8201 234.081 68.0625C234.339 68.3011 234.467 68.5871 234.467 68.9205C234.467 69.2576 234.339 69.5473 234.081 69.7898C233.827 70.0284 233.52 70.1477 233.161 70.1477ZM239.039 68.3636V80H236.618V68.3636H239.039ZM243.718 68.3636V80H241.298V68.3636H243.718ZM251.574 76.2841V71.2727H253.994V80H251.67V78.4148H251.579C251.382 78.9261 251.055 79.3371 250.596 79.6477C250.142 79.9583 249.587 80.1136 248.932 80.1136C248.348 80.1136 247.835 79.9811 247.392 79.7159C246.949 79.4508 246.602 79.0739 246.352 78.5852C246.106 78.0966 245.981 77.5114 245.977 76.8295V71.2727H248.398V76.3977C248.401 76.9129 248.54 77.3201 248.812 77.6193C249.085 77.9186 249.451 78.0682 249.909 78.0682C250.201 78.0682 250.473 78.0019 250.727 77.8693C250.981 77.733 251.185 77.5322 251.341 77.267C251.5 77.0019 251.578 76.6742 251.574 76.2841ZM263.512 73.7614L261.296 73.8977C261.258 73.7083 261.176 73.5379 261.051 73.3864C260.926 73.2311 260.762 73.108 260.557 73.017C260.356 72.9223 260.116 72.875 259.836 72.875C259.461 72.875 259.144 72.9545 258.887 73.1136C258.629 73.2689 258.5 73.4773 258.5 73.7386C258.5 73.947 258.584 74.1231 258.75 74.267C258.917 74.411 259.203 74.5265 259.608 74.6136L261.188 74.9318C262.036 75.1061 262.669 75.3864 263.086 75.7727C263.502 76.1591 263.711 76.6667 263.711 77.2955C263.711 77.8674 263.542 78.3693 263.205 78.8011C262.871 79.233 262.413 79.5701 261.83 79.8125C261.25 80.0511 260.582 80.1705 259.824 80.1705C258.669 80.1705 257.748 79.9299 257.063 79.4489C256.381 78.964 255.981 78.3049 255.864 77.4716L258.245 77.3466C258.317 77.6989 258.491 77.9678 258.767 78.1534C259.044 78.3352 259.398 78.4261 259.83 78.4261C260.254 78.4261 260.595 78.3447 260.853 78.1818C261.114 78.0152 261.246 77.8011 261.25 77.5398C261.246 77.3201 261.154 77.1402 260.972 77C260.79 76.8561 260.51 76.7462 260.131 76.6705L258.62 76.3693C257.767 76.1989 257.133 75.9034 256.716 75.483C256.303 75.0625 256.097 74.5265 256.097 73.875C256.097 73.3144 256.248 72.8314 256.551 72.4261C256.858 72.0208 257.288 71.7083 257.841 71.4886C258.398 71.2689 259.05 71.1591 259.796 71.1591C260.898 71.1591 261.765 71.392 262.398 71.858C263.034 72.3239 263.406 72.9583 263.512 73.7614ZM270.197 71.2727V73.0909H264.941V71.2727H270.197ZM266.134 69.1818H268.555V77.3182C268.555 77.5417 268.589 77.7159 268.657 77.8409C268.725 77.9621 268.82 78.0473 268.941 78.0966C269.066 78.1458 269.21 78.1705 269.373 78.1705C269.486 78.1705 269.6 78.161 269.714 78.142C269.827 78.1193 269.915 78.1023 269.975 78.0909L270.356 79.892C270.235 79.9299 270.064 79.9735 269.844 80.0227C269.625 80.0758 269.358 80.108 269.043 80.1193C268.46 80.142 267.949 80.0644 267.509 79.8864C267.074 79.7083 266.735 79.4318 266.492 79.0568C266.25 78.6818 266.13 78.2083 266.134 77.6364V69.1818ZM272.093 80V71.2727H274.44V72.7955H274.531C274.69 72.2538 274.957 71.8447 275.332 71.5682C275.707 71.2879 276.139 71.1477 276.628 71.1477C276.749 71.1477 276.879 71.1553 277.02 71.1705C277.16 71.1856 277.283 71.2064 277.389 71.233V73.3807C277.275 73.3466 277.118 73.3163 276.917 73.2898C276.717 73.2633 276.533 73.25 276.366 73.25C276.01 73.25 275.692 73.3277 275.412 73.483C275.135 73.6345 274.915 73.8466 274.753 74.1193C274.593 74.392 274.514 74.7064 274.514 75.0625V80H272.093ZM281.199 80.1648C280.642 80.1648 280.146 80.0682 279.71 79.875C279.275 79.678 278.93 79.3883 278.676 79.0057C278.426 78.6193 278.301 78.1383 278.301 77.5625C278.301 77.0777 278.39 76.6705 278.568 76.3409C278.746 76.0114 278.989 75.7462 279.296 75.5455C279.602 75.3447 279.951 75.1932 280.341 75.0909C280.735 74.9886 281.148 74.9167 281.58 74.875C282.087 74.822 282.496 74.7727 282.807 74.7273C283.117 74.678 283.343 74.6061 283.483 74.5114C283.623 74.4167 283.693 74.2765 283.693 74.0909V74.0568C283.693 73.697 283.58 73.4186 283.352 73.2216C283.129 73.0246 282.811 72.9261 282.398 72.9261C281.962 72.9261 281.616 73.0227 281.358 73.2159C281.1 73.4053 280.93 73.6439 280.847 73.9318L278.608 73.75C278.722 73.2197 278.945 72.7614 279.278 72.375C279.612 71.9848 280.042 71.6856 280.568 71.4773C281.099 71.2652 281.712 71.1591 282.409 71.1591C282.894 71.1591 283.358 71.2159 283.801 71.3295C284.248 71.4432 284.644 71.6193 284.989 71.858C285.337 72.0966 285.612 72.4034 285.813 72.7784C286.013 73.1496 286.114 73.5947 286.114 74.1136V80H283.818V78.7898H283.75C283.61 79.0625 283.422 79.303 283.188 79.5114C282.953 79.7159 282.671 79.8769 282.341 79.9943C282.011 80.108 281.631 80.1648 281.199 80.1648ZM281.892 78.4943C282.248 78.4943 282.563 78.4242 282.835 78.2841C283.108 78.1402 283.322 77.947 283.477 77.7045C283.633 77.4621 283.71 77.1875 283.71 76.8807V75.9545C283.635 76.0038 283.53 76.0492 283.398 76.0909C283.269 76.1288 283.123 76.1648 282.96 76.1989C282.797 76.2292 282.635 76.2576 282.472 76.2841C282.309 76.3068 282.161 76.3277 282.028 76.3466C281.744 76.3883 281.496 76.4545 281.284 76.5455C281.072 76.6364 280.907 76.7595 280.79 76.9148C280.672 77.0663 280.614 77.2557 280.614 77.483C280.614 77.8125 280.733 78.0644 280.972 78.2386C281.214 78.4091 281.521 78.4943 281.892 78.4943ZM292.954 71.2727V73.0909H287.698V71.2727H292.954ZM288.891 69.1818H291.312V77.3182C291.312 77.5417 291.346 77.7159 291.414 77.8409C291.482 77.9621 291.577 78.0473 291.698 78.0966C291.823 78.1458 291.967 78.1705 292.13 78.1705C292.243 78.1705 292.357 78.161 292.471 78.142C292.584 78.1193 292.671 78.1023 292.732 78.0909L293.113 79.892C292.991 79.9299 292.821 79.9735 292.601 80.0227C292.382 80.0758 292.115 80.108 291.8 80.1193C291.217 80.142 290.705 80.0644 290.266 79.8864C289.83 79.7083 289.491 79.4318 289.249 79.0568C289.007 78.6818 288.887 78.2083 288.891 77.6364V69.1818ZM294.85 80V71.2727H297.271V80H294.85ZM296.072 70.1477C295.712 70.1477 295.403 70.0284 295.146 69.7898C294.888 69.5473 294.759 69.2576 294.759 68.9205C294.759 68.5871 294.888 68.3011 295.146 68.0625C295.403 67.8201 295.71 67.6989 296.066 67.6989C296.43 67.6989 296.739 67.8201 296.992 68.0625C297.25 68.3011 297.379 68.5871 297.379 68.9205C297.379 69.2576 297.25 69.5473 296.992 69.7898C296.739 70.0284 296.432 70.1477 296.072 70.1477ZM303.473 80.1705C302.59 80.1705 301.827 79.983 301.183 79.608C300.543 79.2292 300.049 78.7027 299.7 78.0284C299.352 77.3504 299.177 76.5644 299.177 75.6705C299.177 74.7689 299.352 73.9811 299.7 73.3068C300.049 72.6288 300.543 72.1023 301.183 71.7273C301.827 71.3485 302.59 71.1591 303.473 71.1591C304.355 71.1591 305.117 71.3485 305.757 71.7273C306.401 72.1023 306.897 72.6288 307.246 73.3068C307.594 73.9811 307.768 74.7689 307.768 75.6705C307.768 76.5644 307.594 77.3504 307.246 78.0284C306.897 78.7027 306.401 79.2292 305.757 79.608C305.117 79.983 304.355 80.1705 303.473 80.1705ZM303.484 78.2955C303.886 78.2955 304.221 78.1818 304.49 77.9545C304.759 77.7235 304.961 77.4091 305.098 77.0114C305.238 76.6136 305.308 76.161 305.308 75.6534C305.308 75.1458 305.238 74.6932 305.098 74.2955C304.961 73.8977 304.759 73.5833 304.49 73.3523C304.221 73.1212 303.886 73.0057 303.484 73.0057C303.079 73.0057 302.738 73.1212 302.461 73.3523C302.189 73.5833 301.982 73.8977 301.842 74.2955C301.706 74.6932 301.638 75.1458 301.638 75.6534C301.638 76.161 301.706 76.6136 301.842 77.0114C301.982 77.4091 302.189 77.7235 302.461 77.9545C302.738 78.1818 303.079 78.2955 303.484 78.2955ZM312.083 74.9545V80H309.662V71.2727H311.969V72.8125H312.071C312.264 72.3049 312.588 71.9034 313.043 71.608C313.497 71.3087 314.049 71.1591 314.696 71.1591C315.302 71.1591 315.831 71.2917 316.281 71.5568C316.732 71.822 317.083 72.2008 317.333 72.6932C317.583 73.1818 317.708 73.7652 317.708 74.4432V80H315.287V74.875C315.291 74.3409 315.155 73.9242 314.878 73.625C314.602 73.322 314.221 73.1705 313.736 73.1705C313.41 73.1705 313.122 73.2405 312.872 73.3807C312.626 73.5208 312.433 73.7254 312.293 73.9943C312.156 74.2595 312.086 74.5795 312.083 74.9545ZM321.35 80.1477C320.975 80.1477 320.653 80.0152 320.384 79.75C320.119 79.4811 319.986 79.1591 319.986 78.7841C319.986 78.4129 320.119 78.0947 320.384 77.8295C320.653 77.5644 320.975 77.4318 321.35 77.4318C321.714 77.4318 322.032 77.5644 322.305 77.8295C322.577 78.0947 322.714 78.4129 322.714 78.7841C322.714 79.0341 322.649 79.2633 322.521 79.4716C322.396 79.6761 322.231 79.8409 322.026 79.9659C321.822 80.0871 321.596 80.1477 321.35 80.1477ZM329.714 71.2727V73.0909H324.328V71.2727H329.714ZM325.561 80V70.642C325.561 70.0095 325.684 69.4848 325.93 69.0682C326.18 68.6515 326.521 68.339 326.953 68.1307C327.385 67.9223 327.875 67.8182 328.424 67.8182C328.796 67.8182 329.135 67.8466 329.441 67.9034C329.752 67.9602 329.983 68.0114 330.135 68.0568L329.703 69.875C329.608 69.8447 329.491 69.8163 329.35 69.7898C329.214 69.7633 329.074 69.75 328.93 69.75C328.574 69.75 328.326 69.8333 328.186 70C328.046 70.1629 327.975 70.392 327.975 70.6875V80H325.561ZM331.513 80V71.2727H333.933V80H331.513ZM332.734 70.1477C332.375 70.1477 332.066 70.0284 331.808 69.7898C331.551 69.5473 331.422 69.2576 331.422 68.9205C331.422 68.5871 331.551 68.3011 331.808 68.0625C332.066 67.8201 332.373 67.6989 332.729 67.6989C333.092 67.6989 333.401 67.8201 333.655 68.0625C333.912 68.3011 334.041 68.5871 334.041 68.9205C334.041 69.2576 333.912 69.5473 333.655 69.7898C333.401 70.0284 333.094 70.1477 332.734 70.1477ZM338.215 71.2727L339.817 74.3239L341.459 71.2727H343.942L341.414 75.6364L344.01 80H341.539L339.817 76.983L338.124 80H335.624L338.215 75.6364L335.715 71.2727H338.215ZM349.364 80.1705C348.467 80.1705 347.694 79.9886 347.046 79.625C346.402 79.2576 345.906 78.7386 345.558 78.0682C345.209 77.3939 345.035 76.5966 345.035 75.6761C345.035 74.7784 345.209 73.9905 345.558 73.3125C345.906 72.6345 346.397 72.1061 347.029 71.7273C347.666 71.3485 348.412 71.1591 349.268 71.1591C349.844 71.1591 350.38 71.2519 350.876 71.4375C351.376 71.6193 351.811 71.8939 352.183 72.2614C352.558 72.6288 352.849 73.0909 353.058 73.6477C353.266 74.2008 353.37 74.8485 353.37 75.5909V76.2557H346.001V74.7557H351.092C351.092 74.4072 351.016 74.0985 350.864 73.8295C350.713 73.5606 350.503 73.3504 350.234 73.1989C349.969 73.0436 349.66 72.9659 349.308 72.9659C348.94 72.9659 348.614 73.0511 348.33 73.2216C348.05 73.3883 347.83 73.6136 347.671 73.8977C347.512 74.178 347.431 74.4905 347.427 74.8352V76.2614C347.427 76.6932 347.506 77.0663 347.666 77.3807C347.828 77.6951 348.058 77.9375 348.353 78.108C348.649 78.2784 348.999 78.3636 349.404 78.3636C349.673 78.3636 349.919 78.3258 350.143 78.25C350.366 78.1742 350.558 78.0606 350.717 77.9091C350.876 77.7576 350.997 77.572 351.08 77.3523L353.319 77.5C353.205 78.0379 352.972 78.5076 352.62 78.9091C352.272 79.3068 351.821 79.6174 351.268 79.8409C350.719 80.0606 350.084 80.1705 349.364 80.1705ZM358.486 80.142C357.823 80.142 357.222 79.9716 356.684 79.6307C356.15 79.286 355.726 78.7803 355.412 78.1136C355.101 77.4432 354.946 76.6212 354.946 75.6477C354.946 74.6477 355.107 73.8163 355.429 73.1534C355.751 72.4867 356.179 71.9886 356.713 71.6591C357.251 71.3258 357.84 71.1591 358.48 71.1591C358.969 71.1591 359.376 71.2424 359.701 71.4091C360.031 71.572 360.296 71.7765 360.497 72.0227C360.701 72.2652 360.857 72.5038 360.963 72.7386H361.037V68.3636H363.451V80H361.065V78.6023H360.963C360.849 78.8447 360.688 79.0852 360.48 79.3239C360.275 79.5587 360.008 79.7538 359.679 79.9091C359.353 80.0644 358.955 80.142 358.486 80.142ZM359.253 78.2159C359.643 78.2159 359.972 78.1098 360.241 77.8977C360.514 77.6818 360.722 77.3807 360.866 76.9943C361.014 76.608 361.088 76.1553 361.088 75.6364C361.088 75.1174 361.016 74.6667 360.872 74.2841C360.728 73.9015 360.52 73.6061 360.247 73.3977C359.974 73.1894 359.643 73.0852 359.253 73.0852C358.855 73.0852 358.52 73.1932 358.247 73.4091C357.974 73.625 357.768 73.9242 357.628 74.3068C357.487 74.6894 357.417 75.1326 357.417 75.6364C357.417 76.1439 357.487 76.5928 357.628 76.983C357.772 77.3693 357.978 77.6723 358.247 77.892C358.52 78.108 358.855 78.2159 359.253 78.2159ZM367.176 80.1477C366.801 80.1477 366.479 80.0152 366.21 79.75C365.945 79.4811 365.813 79.1591 365.813 78.7841C365.813 78.4129 365.945 78.0947 366.21 77.8295C366.479 77.5644 366.801 77.4318 367.176 77.4318C367.54 77.4318 367.858 77.5644 368.131 77.8295C368.404 78.0947 368.54 78.4129 368.54 78.7841C368.54 79.0341 368.476 79.2633 368.347 79.4716C368.222 79.6761 368.057 79.8409 367.852 79.9659C367.648 80.0871 367.423 80.1477 367.176 80.1477ZM370.847 83.2727V71.2727H373.234V72.7386H373.341C373.448 72.5038 373.601 72.2652 373.802 72.0227C374.006 71.7765 374.271 71.572 374.597 71.4091C374.927 71.2424 375.336 71.1591 375.824 71.1591C376.461 71.1591 377.048 71.3258 377.586 71.6591C378.124 71.9886 378.554 72.4867 378.876 73.1534C379.198 73.8163 379.359 74.6477 379.359 75.6477C379.359 76.6212 379.201 77.4432 378.887 78.1136C378.576 78.7803 378.152 79.286 377.614 79.6307C377.08 79.9716 376.482 80.142 375.819 80.142C375.349 80.142 374.949 80.0644 374.62 79.9091C374.294 79.7538 374.027 79.5587 373.819 79.3239C373.61 79.0852 373.451 78.8447 373.341 78.6023H373.268V83.2727H370.847ZM373.216 75.6364C373.216 76.1553 373.288 76.608 373.432 76.9943C373.576 77.3807 373.785 77.6818 374.057 77.8977C374.33 78.1098 374.662 78.2159 375.052 78.2159C375.446 78.2159 375.779 78.108 376.052 77.892C376.324 77.6723 376.531 77.3693 376.671 76.983C376.815 76.5928 376.887 76.1439 376.887 75.6364C376.887 75.1326 376.817 74.6894 376.677 74.3068C376.537 73.9242 376.33 73.625 376.057 73.4091C375.785 73.1932 375.449 73.0852 375.052 73.0852C374.658 73.0852 374.324 73.1894 374.052 73.3977C373.783 73.6061 373.576 73.9015 373.432 74.2841C373.288 74.6667 373.216 75.1174 373.216 75.6364ZM385.235 80.1705C384.353 80.1705 383.59 79.983 382.946 79.608C382.305 79.2292 381.811 78.7027 381.463 78.0284C381.114 77.3504 380.94 76.5644 380.94 75.6705C380.94 74.7689 381.114 73.9811 381.463 73.3068C381.811 72.6288 382.305 72.1023 382.946 71.7273C383.59 71.3485 384.353 71.1591 385.235 71.1591C386.118 71.1591 386.879 71.3485 387.519 71.7273C388.163 72.1023 388.66 72.6288 389.008 73.3068C389.357 73.9811 389.531 74.7689 389.531 75.6705C389.531 76.5644 389.357 77.3504 389.008 78.0284C388.66 78.7027 388.163 79.2292 387.519 79.608C386.879 79.983 386.118 80.1705 385.235 80.1705ZM385.247 78.2955C385.648 78.2955 385.983 78.1818 386.252 77.9545C386.521 77.7235 386.724 77.4091 386.86 77.0114C387 76.6136 387.071 76.161 387.071 75.6534C387.071 75.1458 387 74.6932 386.86 74.2955C386.724 73.8977 386.521 73.5833 386.252 73.3523C385.983 73.1212 385.648 73.0057 385.247 73.0057C384.841 73.0057 384.5 73.1212 384.224 73.3523C383.951 73.5833 383.745 73.8977 383.605 74.2955C383.468 74.6932 383.4 75.1458 383.4 75.6534C383.4 76.161 383.468 76.6136 383.605 77.0114C383.745 77.4091 383.951 77.7235 384.224 77.9545C384.5 78.1818 384.841 78.2955 385.247 78.2955ZM398.686 73.7614L396.47 73.8977C396.432 73.7083 396.351 73.5379 396.226 73.3864C396.101 73.2311 395.936 73.108 395.731 73.017C395.531 72.9223 395.29 72.875 395.01 72.875C394.635 72.875 394.319 72.9545 394.061 73.1136C393.803 73.2689 393.675 73.4773 393.675 73.7386C393.675 73.947 393.758 74.1231 393.925 74.267C394.091 74.411 394.377 74.5265 394.783 74.6136L396.362 74.9318C397.211 75.1061 397.843 75.3864 398.26 75.7727C398.677 76.1591 398.885 76.6667 398.885 77.2955C398.885 77.8674 398.716 78.3693 398.379 78.8011C398.046 79.233 397.588 79.5701 397.004 79.8125C396.425 80.0511 395.756 80.1705 394.999 80.1705C393.843 80.1705 392.923 79.9299 392.237 79.4489C391.555 78.964 391.156 78.3049 391.038 77.4716L393.419 77.3466C393.491 77.6989 393.665 77.9678 393.942 78.1534C394.218 78.3352 394.572 78.4261 395.004 78.4261C395.428 78.4261 395.769 78.3447 396.027 78.1818C396.288 78.0152 396.421 77.8011 396.425 77.5398C396.421 77.3201 396.328 77.1402 396.146 77C395.964 76.8561 395.684 76.7462 395.305 76.6705L393.794 76.3693C392.942 76.1989 392.307 75.9034 391.891 75.483C391.478 75.0625 391.271 74.5265 391.271 73.875C391.271 73.3144 391.423 72.8314 391.726 72.4261C392.033 72.0208 392.463 71.7083 393.016 71.4886C393.572 71.2689 394.224 71.1591 394.97 71.1591C396.072 71.1591 396.94 71.392 397.572 71.858C398.209 72.3239 398.58 72.9583 398.686 73.7614ZM400.729 80V71.2727H403.149V80H400.729ZM401.951 70.1477C401.591 70.1477 401.282 70.0284 401.024 69.7898C400.767 69.5473 400.638 69.2576 400.638 68.9205C400.638 68.5871 400.767 68.3011 401.024 68.0625C401.282 67.8201 401.589 67.6989 401.945 67.6989C402.309 67.6989 402.617 67.8201 402.871 68.0625C403.129 68.3011 403.257 68.5871 403.257 68.9205C403.257 69.2576 403.129 69.5473 402.871 69.7898C402.617 70.0284 402.31 70.1477 401.951 70.1477ZM410.05 71.2727V73.0909H404.795V71.2727H410.05ZM405.988 69.1818H408.408V77.3182C408.408 77.5417 408.443 77.7159 408.511 77.8409C408.579 77.9621 408.674 78.0473 408.795 78.0966C408.92 78.1458 409.064 78.1705 409.227 78.1705C409.34 78.1705 409.454 78.161 409.568 78.142C409.681 78.1193 409.768 78.1023 409.829 78.0909L410.21 79.892C410.088 79.9299 409.918 79.9735 409.698 80.0227C409.478 80.0758 409.211 80.108 408.897 80.1193C408.314 80.142 407.802 80.0644 407.363 79.8864C406.927 79.7083 406.588 79.4318 406.346 79.0568C406.103 78.6818 405.984 78.2083 405.988 77.6364V69.1818ZM411.947 80V71.2727H414.368V80H411.947ZM413.169 70.1477C412.809 70.1477 412.5 70.0284 412.243 69.7898C411.985 69.5473 411.856 69.2576 411.856 68.9205C411.856 68.5871 411.985 68.3011 412.243 68.0625C412.5 67.8201 412.807 67.6989 413.163 67.6989C413.527 67.6989 413.835 67.8201 414.089 68.0625C414.347 68.3011 414.476 68.5871 414.476 68.9205C414.476 69.2576 414.347 69.5473 414.089 69.7898C413.835 70.0284 413.529 70.1477 413.169 70.1477ZM424.763 71.2727L421.712 80H418.984L415.933 71.2727H418.49L420.303 77.517H420.394L422.2 71.2727H424.763ZM430.018 80.1705C429.12 80.1705 428.347 79.9886 427.699 79.625C427.055 79.2576 426.559 78.7386 426.211 78.0682C425.862 77.3939 425.688 76.5966 425.688 75.6761C425.688 74.7784 425.862 73.9905 426.211 73.3125C426.559 72.6345 427.05 72.1061 427.682 71.7273C428.319 71.3485 429.065 71.1591 429.921 71.1591C430.497 71.1591 431.033 71.2519 431.529 71.4375C432.029 71.6193 432.465 71.8939 432.836 72.2614C433.211 72.6288 433.502 73.0909 433.711 73.6477C433.919 74.2008 434.023 74.8485 434.023 75.5909V76.2557H426.654V74.7557H431.745C431.745 74.4072 431.669 74.0985 431.518 73.8295C431.366 73.5606 431.156 73.3504 430.887 73.1989C430.622 73.0436 430.313 72.9659 429.961 72.9659C429.593 72.9659 429.268 73.0511 428.983 73.2216C428.703 73.3883 428.483 73.6136 428.324 73.8977C428.165 74.178 428.084 74.4905 428.08 74.8352V76.2614C428.08 76.6932 428.16 77.0663 428.319 77.3807C428.482 77.6951 428.711 77.9375 429.006 78.108C429.302 78.2784 429.652 78.3636 430.057 78.3636C430.326 78.3636 430.572 78.3258 430.796 78.25C431.019 78.1742 431.211 78.0606 431.37 77.9091C431.529 77.7576 431.65 77.572 431.733 77.3523L433.972 77.5C433.858 78.0379 433.626 78.5076 433.273 78.9091C432.925 79.3068 432.474 79.6174 431.921 79.8409C431.372 80.0606 430.737 80.1705 430.018 80.1705Z" fill="white"/>
</g>
<defs>
<filter id="filter0_dd_1241_30148" x="0" y="118" width="498" height="262" filterUnits="userSpaceOnUse" color-interpolation-filters="sRGB">
<feFlood flood-opacity="0" result="BackgroundImageFix"/>
<feColorMatrix in="SourceAlpha" type="matrix" values="0 0 0 0 0 0 0 0 0 0 0 0 0 0 0 0 0 0 127 0" result="hardAlpha"/>
<feOffset/>
<feGaussianBlur stdDeviation="0.5"/>
<feColorMatrix type="matrix" values="0 0 0 0 0 0 0 0 0 0 0 0 0 0 0 0 0 0 0.12 0"/>
<feBlend mode="normal" in2="BackgroundImageFix" result="effect1_dropShadow_1241_30148"/>
<feColorMatrix in="SourceAlpha" type="matrix" values="0 0 0 0 0 0 0 0 0 0 0 0 0 0 0 0 0 0 127 0" result="hardAlpha"/>
<feOffset dy="24"/>
<feGaussianBlur stdDeviation="24"/>
<feColorMatrix type="matrix" values="0 0 0 0 0 0 0 0 0 0 0 0 0 0 0 0 0 0 0.2 0"/>
<feBlend mode="normal" in2="effect1_dropShadow_1241_30148" result="effect2_dropShadow_1241_30148"/>
<feBlend mode="normal" in="SourceGraphic" in2="effect2_dropShadow_1241_30148" result="shape"/>
</filter>
<linearGradient id="paint0_linear_1241_30148" x1="105.087" y1="167.92" x2="105.087" y2="230.32" gradientUnits="userSpaceOnUse">
<stop stop-color="#3CC29A"/>
<stop offset="1" stop-color="#93C437"/>
</linearGradient>
<linearGradient id="paint1_linear_1241_30148" x1="120.938" y1="64" x2="120.938" y2="84" gradientUnits="userSpaceOnUse">
<stop stop-color="#3CC29A"/>
<stop offset="1" stop-color="#93C437"/>
</linearGradient>
<clipPath id="clip0_1241_30148">
<rect width="301" height="94" fill="white" transform="translate(287.869 107)"/>
</clipPath>
<clipPath id="clip1_1241_30148">
<rect width="348" height="120" fill="white" transform="translate(98.9375 60)"/>
</clipPath>
</defs>
</svg>
