<svg width="42" height="42" viewBox="0 0 42 42" fill="none" xmlns="http://www.w3.org/2000/svg">
<path d="M21.8993 8.78744C21.8108 8.62619 21.6806 8.49168 21.5223 8.39799C21.364 8.3043 21.1835 8.25487 20.9995 8.25487C20.8156 8.25487 20.635 8.3043 20.4767 8.39799C20.3184 8.49168 20.1882 8.62619 20.0997 8.78744L9.59974 32.4124C9.54723 32.5306 9.5185 32.6579 9.5152 32.7872C9.5119 32.9165 9.53409 33.0451 9.58051 33.1658C9.62693 33.2865 9.69666 33.3969 9.78573 33.4906C9.8748 33.5843 9.98146 33.6596 10.0996 33.7121C10.2178 33.7646 10.3451 33.7934 10.4744 33.7967C10.6037 33.8 10.7323 33.7778 10.853 33.7313C10.9737 33.6849 11.084 33.6152 11.1778 33.5261C11.2715 33.4371 11.3468 33.3304 11.3993 33.2122L14.6394 25.9217H27.3595L30.5997 33.2122C30.7057 33.4509 30.9023 33.6376 31.146 33.7313C31.3897 33.8251 31.6607 33.8182 31.8994 33.7121C32.138 33.6061 32.3247 33.4095 32.4185 33.1658C32.5122 32.9221 32.5053 32.6511 32.3992 32.4124L21.8993 8.78744ZM15.5144 23.953L20.9995 11.6111L26.4846 23.953H15.5144Z" fill="url(#paint0_linear_1241_12234)"/>
<path d="M32.812 2.95296H9.18701C7.53413 2.95483 5.94948 3.61227 4.78071 4.78104C3.61195 5.9498 2.95451 7.53445 2.95264 9.18733V32.8123C2.95451 34.4652 3.61195 36.0499 4.78071 37.2186C5.94948 38.3874 7.53413 39.0448 9.18701 39.0467H32.812C34.4649 39.0448 36.0495 38.3874 37.2183 37.2186C38.3871 36.0499 39.0445 34.4652 39.0464 32.8123V9.18733C39.0445 7.53445 38.3871 5.9498 37.2183 4.78104C36.0495 3.61227 34.4649 2.95483 32.812 2.95296ZM37.0776 32.8123C37.0763 33.9432 36.6265 35.0275 35.8268 35.8271C35.0271 36.6268 33.9429 37.0767 32.812 37.078H9.18701C8.0561 37.0766 6.97188 36.6268 6.1722 35.8271C5.37253 35.0275 4.92269 33.9432 4.92139 32.8123V9.18733C4.9227 8.05642 5.37253 6.9722 6.17221 6.17253C6.97188 5.37285 8.0561 4.92302 9.18701 4.92171H32.812C33.9429 4.92301 35.0271 5.37285 35.8268 6.17252C36.6265 6.9722 37.0763 8.05642 37.0776 9.18733V32.8123Z" fill="url(#paint1_linear_1241_12234)"/>
<defs>
<linearGradient id="paint0_linear_1241_12234" x1="20.9995" y1="2.95296" x2="20.9995" y2="39.0467" gradientUnits="userSpaceOnUse">
<stop stop-color="#3CC29A"/>
<stop offset="1" stop-color="#93C437"/>
</linearGradient>
<linearGradient id="paint1_linear_1241_12234" x1="20.9995" y1="2.95296" x2="20.9995" y2="39.0467" gradientUnits="userSpaceOnUse">
<stop stop-color="#3CC29A"/>
<stop offset="1" stop-color="#93C437"/>
</linearGradient>
</defs>
</svg>
