<svg width="634" height="179" viewBox="0 0 634 179" fill="none" xmlns="http://www.w3.org/2000/svg">
<rect width="634" height="179" rx="24" fill="#262626"/>
<path fill-rule="evenodd" clip-rule="evenodd" d="M264.783 38.8891C266.228 37.4439 268.188 36.632 270.232 36.632H379.698C381.742 36.632 383.702 37.4439 385.148 38.8891C386.593 40.3343 387.405 42.2944 387.405 44.3383V121.96C387.405 126.265 383.935 129.666 380.196 129.666C379.506 129.666 378.946 130.226 378.946 130.916C378.946 131.606 379.506 132.166 380.196 132.166C385.413 132.166 389.905 127.547 389.905 121.96V44.3383C389.905 41.6314 388.829 39.0354 386.915 37.1213C385.001 35.2073 382.405 34.132 379.698 34.132H270.232C267.525 34.132 264.929 35.2073 263.015 37.1213C261.101 39.0354 260.026 41.6314 260.026 44.3383V46.0874C256.21 46.2731 252.557 47.76 249.688 50.3215C246.499 53.1694 244.519 57.1297 244.156 61.3904C243.793 65.651 245.074 69.8891 247.736 73.2356C250.398 76.5822 254.239 78.7835 258.472 79.3882C262.705 79.9929 267.009 78.9552 270.502 76.4879C273.994 74.0206 276.41 70.3106 277.255 66.1188C278.099 61.9269 277.308 57.5708 275.043 53.9437C272.779 50.3166 269.212 47.6934 265.075 46.6119C264.407 46.4373 263.724 46.8373 263.549 47.5052C263.375 48.1731 263.775 48.8561 264.443 49.0307C267.962 49.9506 270.996 52.1822 272.923 55.2678C274.849 58.3533 275.522 62.0591 274.804 65.6251C274.086 69.1911 272.03 72.3471 269.059 74.4461C266.088 76.545 262.427 77.4278 258.826 76.9133C255.225 76.3989 251.957 74.5262 249.692 71.6794C247.428 68.8325 246.338 65.2272 246.647 61.6026C246.956 57.9781 248.64 54.6091 251.353 52.1864C254.067 49.7637 257.604 48.471 261.241 48.5732C261.578 48.5827 261.905 48.4553 262.147 48.2199C262.389 47.9846 262.526 47.6613 262.526 47.3237V44.3383C262.526 42.2944 263.338 40.3343 264.783 38.8891ZM262.527 82.6517C262.527 81.9613 261.967 81.4017 261.277 81.4017C260.587 81.4017 260.027 81.9613 260.027 82.6517V121.96C260.027 127.547 264.519 132.166 269.736 132.166C270.426 132.166 270.986 131.607 270.986 130.916C270.986 130.226 270.426 129.666 269.736 129.666C265.996 129.666 262.527 126.265 262.527 121.96V82.6517ZM269.159 57.4382C269.474 57.4239 269.786 57.4948 270.064 57.6433C270.341 57.7919 270.573 58.0127 270.736 58.2822C270.898 58.5516 270.985 58.86 270.986 59.1749L270.986 59.1814L270.986 67.1824L270.986 67.1854C270.985 67.5115 270.893 67.8308 270.721 68.1072C270.548 68.3836 270.301 68.6063 270.008 68.75C269.716 68.8937 269.389 68.9525 269.064 68.92C268.74 68.8875 268.431 68.7649 268.173 68.5659L268.172 68.5652L266.506 67.2805C266.477 69.0454 265.038 70.4672 263.266 70.4672H255.305C253.515 70.4672 252.065 69.0165 252.065 67.2269V59.2657C252.065 57.4762 253.515 56.0254 255.305 56.0254H263.266C264.941 56.0254 266.318 57.2955 266.489 58.9248L268.268 57.7305L268.277 57.7244L268.277 57.7244C268.54 57.5513 268.845 57.4524 269.159 57.4382ZM268.486 60.5951L266.508 61.9227V64.1248L268.486 65.6506V60.5951ZM254.565 59.2657C254.565 58.8569 254.896 58.5254 255.305 58.5254H263.266C263.675 58.5254 264.007 58.8569 264.007 59.2657V67.2269C264.007 67.6357 263.675 67.9672 263.266 67.9672H255.305C254.896 67.9672 254.565 67.6357 254.565 67.2269V59.2657Z" fill="url(#paint0_linear_1241_30515)"/>
<path d="M295.11 128.926V135.827C295.109 136.494 294.977 137.155 294.719 137.77C294.461 138.386 294.084 138.944 293.609 139.413C293.135 139.882 292.572 140.252 291.953 140.501C291.334 140.751 290.672 140.875 290.005 140.868C284.631 140.798 281.208 136.389 281.178 132.459C281.173 132.101 281.293 131.754 281.518 131.476C281.742 131.198 282.057 131.007 282.407 130.936C282.624 130.897 282.847 130.907 283.059 130.964C283.272 131.021 283.47 131.125 283.638 131.268C283.805 131.41 283.94 131.589 284.031 131.789C284.122 131.99 284.167 132.208 284.163 132.429V142.878C284.163 143.406 283.954 143.912 283.58 144.285C283.207 144.658 282.701 144.868 282.173 144.868H277.197C276.142 144.868 275.129 144.449 274.383 143.702C273.636 142.956 273.217 141.943 273.217 140.887V120.984C273.217 119.929 273.636 118.916 274.383 118.17C275.129 117.423 276.142 117.004 277.197 117.004H301.081C302.137 117.004 303.149 117.423 303.896 118.17C304.642 118.916 305.062 119.929 305.062 120.984V140.887C305.062 141.943 304.642 142.956 303.896 143.702C303.149 144.449 302.137 144.868 301.081 144.868H291.129" stroke="#279BE8" stroke-width="2.5" stroke-linecap="round" stroke-linejoin="round"/>
<path d="M295.112 128.926C295.112 127.87 294.692 126.858 293.946 126.111C293.199 125.365 292.187 124.946 291.131 124.946C287.648 124.946 287.648 128.926 284.165 128.926" stroke="#279BE7" stroke-width="2.5" stroke-linecap="round" stroke-linejoin="round"/>
<path d="M291.13 130.418L292.126 133.403C292.623 134.896 291.628 134.896 291.13 134.896H290.633" stroke="#279BE7" stroke-width="2.5" stroke-linecap="round" stroke-linejoin="round"/>
<path d="M288.643 122.955C285.16 122.955 285.16 126.936 281.677 126.936" stroke="#279BE7" stroke-width="2.5" stroke-linecap="round" stroke-linejoin="round"/>
<path d="M318.995 128.926V135.827C318.996 136.494 319.128 137.155 319.386 137.77C319.644 138.386 320.021 138.944 320.495 139.413C320.97 139.882 321.533 140.252 322.152 140.501C322.771 140.751 323.433 140.875 324.1 140.868C329.474 140.798 332.897 136.389 332.927 132.459C332.932 132.101 332.812 131.754 332.587 131.476C332.363 131.198 332.048 131.007 331.698 130.936C331.481 130.897 331.258 130.907 331.046 130.964C330.833 131.021 330.635 131.125 330.467 131.268C330.3 131.41 330.165 131.589 330.074 131.789C329.983 131.99 329.938 132.208 329.942 132.429V142.878C329.942 143.406 330.151 143.912 330.525 144.285C330.898 144.658 331.404 144.868 331.932 144.868H336.908C337.963 144.868 338.976 144.449 339.722 143.702C340.469 142.956 340.888 141.943 340.888 140.887V120.984C340.888 119.929 340.469 118.916 339.722 118.17C338.976 117.423 337.963 117.004 336.908 117.004H313.024C311.968 117.004 310.956 117.423 310.209 118.17C309.463 118.916 309.043 119.929 309.043 120.984V140.887C309.043 141.943 309.463 142.956 310.209 143.702C310.956 144.449 311.968 144.868 313.024 144.868H322.976" stroke="#279BE7" stroke-width="2.5" stroke-linecap="round" stroke-linejoin="round"/>
<path d="M318.995 128.926C318.995 127.87 319.414 126.858 320.161 126.111C320.908 125.365 321.92 124.946 322.976 124.946C326.459 124.946 326.459 128.926 329.942 128.926" stroke="#279BE7" stroke-width="2.5" stroke-linecap="round" stroke-linejoin="round"/>
<path d="M322.975 130.418L321.98 133.403C321.482 134.896 322.477 134.896 322.975 134.896H323.473" stroke="#279BE7" stroke-width="2.5" stroke-linecap="round" stroke-linejoin="round"/>
<path d="M318.995 122.955C318.995 122.955 319.493 120.964 322.976 120.964H327.951C328.743 120.964 329.503 121.279 330.062 121.839C330.622 122.399 330.937 123.158 330.937 123.95C331.729 123.95 332.488 124.264 333.048 124.824C333.608 125.384 333.922 126.143 333.922 126.935V128.926" stroke="#279BE7" stroke-width="2.5" stroke-linecap="round" stroke-linejoin="round"/>
<path d="M364.771 130.916L365.766 133.902C366.264 135.394 365.269 135.394 364.771 135.394H364.273" stroke="#279BE7" stroke-width="2.5" stroke-linecap="round" stroke-linejoin="round"/>
<path d="M365.269 127.931H360.791C360.263 127.931 359.756 128.141 359.383 128.514C359.01 128.887 358.8 129.393 358.8 129.921V135.743C358.785 137.026 359.255 138.268 360.115 139.22C360.976 140.172 362.164 140.764 363.443 140.878C364.123 140.924 364.807 140.829 365.449 140.599C366.092 140.37 366.681 140.011 367.179 139.544C367.676 139.077 368.073 138.513 368.344 137.887C368.614 137.26 368.753 136.585 368.752 135.902V129.15C368.752 124.866 365.458 121.189 361.174 120.975C360.096 120.923 359.02 121.091 358.009 121.467C356.999 121.844 356.075 122.422 355.295 123.167C354.515 123.911 353.894 124.807 353.47 125.798C353.046 126.79 352.828 127.858 352.829 128.936V142.868C352.829 143.396 352.62 143.902 352.246 144.276C351.873 144.649 351.367 144.859 350.839 144.859H348.849C347.793 144.859 346.781 144.439 346.034 143.693C345.288 142.946 344.868 141.934 344.868 140.878V120.975C344.868 119.919 345.288 118.907 346.034 118.16C346.781 117.414 347.793 116.994 348.849 116.994H372.732C373.788 116.994 374.8 117.414 375.547 118.16C376.294 118.907 376.713 119.919 376.713 120.975V140.878C376.713 141.934 376.294 142.946 375.547 143.693C374.8 144.439 373.788 144.859 372.732 144.859H364.274" stroke="#279BE7" stroke-width="2.5" stroke-linecap="round" stroke-linejoin="round"/>
<path d="M334.917 68.2213L336.907 74.1922C337.902 77.1776 336.907 78.1728 334.917 78.1728H333.921" stroke="url(#paint1_linear_1241_30515)" stroke-width="2.5" stroke-linecap="round" stroke-linejoin="round"/>
<path d="M328.946 71.2073C329.495 71.2073 329.941 70.7618 329.941 70.2122C329.941 69.6626 329.495 69.217 328.946 69.217C328.396 69.217 327.951 69.6626 327.951 70.2122C327.951 70.7618 328.396 71.2073 328.946 71.2073Z" fill="#87C063"/>
<path d="M315.014 65.2372C315.014 65.2372 320.985 64.2421 320.985 55.2858C326.61 60.9303 334.03 64.4341 341.963 65.1925C342.213 65.2125 342.446 65.3261 342.615 65.5106C342.785 65.6951 342.879 65.9369 342.878 66.1876V81.075C342.871 84.2336 341.625 87.2633 339.407 89.513C337.19 91.7627 334.179 93.0529 331.021 93.1064C319.134 93.1661 309.202 80.3933 309.043 71.4271C309.012 70.658 309.269 69.9049 309.764 69.3157C310.259 68.7265 310.957 68.3437 311.72 68.2426C312.137 68.1992 312.559 68.2443 312.958 68.3748C313.356 68.5053 313.723 68.7183 314.034 69C314.344 69.2816 314.592 69.6256 314.761 70.0095C314.93 70.3934 315.016 70.8086 315.014 71.228V91.131C315.014 97.1019 313.024 97.1019 307.053 99.0922L301.082 101.082C295.111 103.073 287.15 105.561 287.15 113.522" stroke="url(#paint2_linear_1241_30515)" stroke-width="2.5" stroke-linecap="round" stroke-linejoin="round"/>
<path d="M311.531 91.1106H305.063C304.535 91.1106 304.028 90.901 303.655 90.5277C303.282 90.1544 303.072 89.6482 303.072 89.1203V63.2465C303.072 58.4958 304.96 53.9396 308.319 50.5804C311.678 47.2211 316.234 45.3339 320.985 45.3339H326.956C337.405 45.3339 344.868 51.3047 344.868 62.2514" stroke="url(#paint3_linear_1241_30515)" stroke-width="2.5" stroke-linecap="round" stroke-linejoin="round"/>
<path d="M313.521 100.564C314.316 103.213 316.005 105.503 318.301 107.045C320.596 108.587 323.355 109.284 326.108 109.018C328.86 108.752 331.435 107.539 333.392 105.586C335.35 103.634 336.569 101.062 336.842 98.3103C336.861 98.1644 336.912 98.0245 336.991 97.9007C337.071 97.7769 337.177 97.6722 337.301 97.5941C337.426 97.5161 337.566 97.4667 337.712 97.4494C337.858 97.4321 338.006 97.4474 338.146 97.4942L348.849 101.062C354.82 103.052 362.781 105.54 362.781 113.501" stroke="url(#paint4_linear_1241_30515)" stroke-width="2.5" stroke-linecap="round" stroke-linejoin="round"/>
<defs>
<linearGradient id="paint0_linear_1241_30515" x1="317" y1="34.132" x2="317" y2="132.166" gradientUnits="userSpaceOnUse">
<stop stop-color="#93C437"/>
<stop offset="1" stop-color="#279BE8"/>
</linearGradient>
<linearGradient id="paint1_linear_1241_30515" x1="335.609" y1="68.2213" x2="335.609" y2="78.1728" gradientUnits="userSpaceOnUse">
<stop stop-color="#82BD7C"/>
<stop offset="1" stop-color="#78BAA2"/>
</linearGradient>
<linearGradient id="paint2_linear_1241_30515" x1="315.014" y1="55.2858" x2="315.014" y2="113.522" gradientUnits="userSpaceOnUse">
<stop stop-color="#92C437"/>
<stop offset="1" stop-color="#64B4FA"/>
</linearGradient>
<linearGradient id="paint3_linear_1241_30515" x1="323.97" y1="45.3339" x2="323.97" y2="91.1106" gradientUnits="userSpaceOnUse">
<stop stop-color="#8FC248"/>
<stop offset="1" stop-color="#71B8C0"/>
</linearGradient>
<linearGradient id="paint4_linear_1241_30515" x1="338.151" y1="97.4425" x2="338.151" y2="113.501" gradientUnits="userSpaceOnUse">
<stop stop-color="#74B9B3"/>
<stop offset="1" stop-color="#64B4FA"/>
</linearGradient>
</defs>
</svg>
