<svg width="412" height="179" viewBox="0 0 412 179" fill="none" xmlns="http://www.w3.org/2000/svg">
<rect width="412" height="179" rx="24" fill="#262626"/>
<path d="M154.824 94.5H153.48V84.42H154.824V88.046C155.356 87.3553 156.065 87.01 156.952 87.01C157.811 87.01 158.469 87.276 158.926 87.808C159.327 88.284 159.528 88.9327 159.528 89.754V94.5H158.184V89.768C158.184 88.6947 157.666 88.158 156.63 88.158C156.079 88.158 155.631 88.3493 155.286 88.732C154.978 89.0773 154.824 89.5207 154.824 90.062V94.5ZM167.499 87.22L164.965 94.598C164.629 95.578 164.307 96.2453 163.999 96.6C163.635 97.02 163.164 97.23 162.585 97.23C162.343 97.23 162.053 97.188 161.717 97.104V96.012C161.979 96.0773 162.212 96.11 162.417 96.11C162.707 96.11 162.931 96.0073 163.089 95.802C163.248 95.606 163.449 95.172 163.691 94.5H163.257L160.583 87.22H162.039L164.097 93.408L166.155 87.22H167.499ZM168.615 87.22H169.721L169.931 88.172C170.528 87.3973 171.349 87.01 172.395 87.01C173.44 87.01 174.252 87.3833 174.831 88.13C175.344 88.802 175.601 89.6933 175.601 90.804C175.601 92.12 175.251 93.128 174.551 93.828C173.963 94.416 173.211 94.71 172.297 94.71C171.261 94.71 170.481 94.3273 169.959 93.562V97.02H168.615V87.22ZM174.201 90.776C174.201 89.8613 173.972 89.1753 173.515 88.718C173.151 88.3447 172.675 88.158 172.087 88.158C171.405 88.158 170.864 88.4053 170.463 88.9C170.08 89.376 169.889 90.0013 169.889 90.776C169.889 91.7093 170.117 92.4233 170.575 92.918C170.957 93.3473 171.461 93.562 172.087 93.562C172.787 93.562 173.319 93.3053 173.683 92.792C174.028 92.316 174.201 91.644 174.201 90.776ZM182.102 92.4H183.558C183.353 93.1373 182.947 93.716 182.34 94.136C181.771 94.5187 181.089 94.71 180.296 94.71C179.148 94.71 178.252 94.346 177.608 93.618C177.02 92.9367 176.726 92.0173 176.726 90.86C176.726 89.544 177.099 88.5453 177.846 87.864C178.462 87.2947 179.255 87.01 180.226 87.01C181.365 87.01 182.223 87.3787 182.802 88.116C183.362 88.8253 183.642 89.838 183.642 91.154H178.098C178.154 92.0127 178.415 92.652 178.882 93.072C179.265 93.408 179.75 93.576 180.338 93.576C180.795 93.576 181.192 93.45 181.528 93.198C181.808 92.9833 181.999 92.7173 182.102 92.4ZM180.254 88.088C179.657 88.088 179.176 88.2747 178.812 88.648C178.467 88.9933 178.247 89.474 178.154 90.09H182.27C182.223 89.39 181.99 88.8673 181.57 88.522C181.234 88.2327 180.795 88.088 180.254 88.088ZM186.597 94.5H185.253V87.22H186.359L186.541 88.298C186.952 87.4393 187.568 87.01 188.389 87.01C188.66 87.01 188.926 87.0427 189.187 87.108V88.452C188.87 88.368 188.585 88.326 188.333 88.326C187.792 88.326 187.367 88.5453 187.059 88.984C186.751 89.4227 186.597 90.0433 186.597 90.846V94.5ZM191.588 84.42V94.5H190.244V84.42H191.588ZM194.98 86.002H193.468V84.42H194.98V86.002ZM194.896 94.5H193.552V87.22H194.896V94.5ZM198.205 94.5H196.861V87.22H197.967L198.121 88.144C198.662 87.388 199.4 87.01 200.333 87.01C201.192 87.01 201.85 87.276 202.307 87.808C202.708 88.284 202.909 88.9327 202.909 89.754V94.5H201.565V89.768C201.565 88.6947 201.047 88.158 200.011 88.158C199.47 88.158 199.026 88.3447 198.681 88.718C198.364 89.054 198.205 89.4833 198.205 90.006V94.5ZM206.148 94.5H204.804V84.42H206.148V90.048L209.004 87.22H210.768L207.492 90.384L211.174 94.5H209.382L206.148 90.832V94.5Z" fill="#64B4FA"/>
<path d="M152.5 95.76H211.104V96.95H152.5V95.76Z" fill="#64B4FA"/>
<path d="M233.5 84.6251C232.783 84.625 232.076 84.7833 231.427 85.0886C230.779 85.3939 230.206 85.8388 229.75 86.3913V85.0001C229.75 84.9007 229.71 84.8053 229.64 84.735C229.57 84.6646 229.474 84.6251 229.375 84.6251C229.276 84.6251 229.18 84.6646 229.11 84.735C229.04 84.8053 229 84.9007 229 85.0001V87.2501C229 87.2994 229.01 87.3482 229.028 87.3937C229.047 87.4392 229.075 87.4805 229.11 87.5153C229.145 87.5502 229.186 87.5778 229.231 87.5966C229.277 87.6155 229.326 87.6251 229.375 87.6251H231.625C231.724 87.6251 231.82 87.5856 231.89 87.5153C231.96 87.445 232 87.3496 232 87.2501C232 87.1507 231.96 87.0553 231.89 86.985C231.82 86.9146 231.724 86.8751 231.625 86.8751H230.323C230.863 86.2199 231.593 85.7474 232.411 85.5224C233.23 85.2974 234.099 85.3309 234.898 85.6181C235.697 85.9054 236.388 86.4325 236.876 87.1274C237.364 87.8222 237.626 88.6509 237.625 89.5001C237.624 89.731 237.605 89.9615 237.568 90.1893C237.56 90.238 237.561 90.2877 237.573 90.3356C237.584 90.3836 237.604 90.4288 237.633 90.4688C237.662 90.5088 237.698 90.5428 237.74 90.5687C237.782 90.5946 237.829 90.6121 237.877 90.62C237.897 90.6232 237.918 90.6248 237.938 90.6248C238.027 90.6246 238.113 90.5929 238.181 90.5353C238.249 90.4777 238.294 90.3979 238.308 90.3102C238.352 90.0424 238.374 89.7715 238.375 89.5001C238.374 88.2076 237.859 86.9685 236.945 86.0546C236.032 85.1407 234.792 84.6266 233.5 84.6251Z" fill="white" fill-opacity="0.7"/>
<path d="M237.625 91.3751H235.375C235.276 91.3751 235.18 91.4146 235.11 91.485C235.04 91.5553 235 91.6507 235 91.7501C235 91.8496 235.04 91.945 235.11 92.0153C235.18 92.0856 235.276 92.1251 235.375 92.1251H236.677C236.137 92.7804 235.407 93.2528 234.589 93.4778C233.77 93.7028 232.901 93.6694 232.102 93.3821C231.303 93.0948 230.612 92.5677 230.124 91.8729C229.636 91.178 229.374 90.3493 229.375 89.5001C229.376 89.2689 229.396 89.0382 229.434 88.8102C229.45 88.7121 229.426 88.6117 229.368 88.5311C229.31 88.4506 229.222 88.3963 229.124 88.3803C229.026 88.3643 228.926 88.3878 228.845 88.4458C228.764 88.5037 228.71 88.5913 228.693 88.6893C228.649 88.9574 228.626 89.2285 228.625 89.5001C228.624 90.503 228.933 91.4817 229.509 92.3026C230.086 93.1234 230.901 93.7464 231.845 94.0865C232.788 94.4266 233.814 94.4672 234.781 94.2027C235.748 93.9383 236.611 93.3817 237.25 92.609V94.0001C237.25 94.0996 237.29 94.195 237.36 94.2653C237.43 94.3356 237.526 94.3751 237.625 94.3751C237.724 94.3751 237.82 94.3356 237.89 94.2653C237.96 94.195 238 94.0996 238 94.0001V91.7501C238 91.7009 237.99 91.6521 237.972 91.6066C237.953 91.5611 237.925 91.5197 237.89 91.4849C237.855 91.4501 237.814 91.4224 237.769 91.4036C237.723 91.3848 237.674 91.3751 237.625 91.3751Z" fill="white" fill-opacity="0.7"/>
<path d="M257.293 88.8361C257.792 88.6342 258.003 87.9943 257.778 87.4774L257.76 87.4282C257.669 87.2178 257.563 87.0153 257.442 86.8227C257.384 86.722 257.319 86.6265 257.246 86.5372C256.606 85.7102 255.854 85.5626 255.396 85.5626C255.078 85.56 254.763 85.6289 254.472 85.7647C254.182 85.9006 253.922 86.1001 253.71 86.3502C253.821 86.4984 253.919 86.6566 254.004 86.8227C254.317 87.4184 254.513 88.2355 254.677 88.9296C254.69 88.8846 254.703 88.8377 254.716 88.7898C254.795 88.5028 254.885 88.1785 254.985 87.9845C255.177 87.6153 255.307 87.6153 255.396 87.6153C255.662 87.6153 255.877 88.0288 255.98 88.27C255.98 88.27 256.349 89.225 257.293 88.8361Z" fill="white" fill-opacity="0.7"/>
<path d="M249.104 86.7685C248.6 86.8079 248.184 87.3592 248.259 87.9253C248.282 88.132 248.333 88.452 248.399 88.8015C248.427 88.959 248.46 89.1264 248.492 89.2888C248.574 89.6815 248.675 90.0693 248.796 90.4506C248.926 90.8735 249.083 91.2864 249.268 91.6861C249.973 93.1334 250.926 93.4386 251.603 93.4386C251.921 93.4414 252.236 93.3727 252.527 93.2368C252.818 93.101 253.078 92.9012 253.289 92.651C253.171 92.4919 253.067 92.3222 252.977 92.1439C252.678 91.5631 252.486 90.8936 252.323 90.1946C252.248 90.4731 252.148 90.7435 252.024 91.0019C251.827 91.3859 251.692 91.3859 251.603 91.3859C251.412 91.3859 251.211 91.1693 251.005 90.7508C250.899 90.5219 250.806 90.2869 250.725 90.0469C250.669 89.8746 250.613 89.6974 250.566 89.5251L250.555 89.4852C250.507 89.3087 250.433 89.0336 250.398 88.8557C250.315 88.4594 250.218 87.8474 250.188 87.6549C250.183 87.6203 250.179 87.5992 250.179 87.5955C250.137 87.374 249.889 86.6996 249.104 86.7685Z" fill="white" fill-opacity="0.7"/>
<path d="M257.816 86.7588H257.792C257.89 86.9302 257.977 87.1078 258.054 87.2904L258.077 87.3397C258.218 87.6708 258.229 88.0471 258.107 88.3865C257.986 88.7259 257.741 89.0008 257.428 89.1512C257.259 89.2308 257.076 89.2727 256.891 89.2742C256.764 89.2718 256.639 89.252 256.517 89.2152C256.386 89.732 256.181 90.367 255.994 90.751C255.807 91.135 255.588 91.386 255.391 91.386C255.307 91.386 255.172 91.386 254.976 91.002C254.852 90.7436 254.752 90.4733 254.677 90.1947C254.616 89.9782 254.56 89.7468 254.504 89.5056C254.481 89.417 254.462 89.3283 254.443 89.2398C254.266 88.462 254.065 87.6449 253.719 86.9902C253.653 86.8642 253.58 86.7425 253.5 86.6259C253.434 86.5302 253.364 86.4382 253.29 86.3502C253.077 86.0996 252.816 85.8996 252.525 85.7638C252.233 85.6279 251.917 85.5593 251.599 85.5626C251.145 85.5626 250.393 85.7103 249.753 86.5373C249.955 86.633 250.131 86.7813 250.263 86.9681C250.395 87.155 250.481 87.3744 250.51 87.6055C250.543 87.8516 250.622 88.3291 250.716 88.782C250.725 88.8312 250.734 88.8804 250.748 88.9346C250.803 88.7852 250.857 88.6537 250.914 88.5169C250.93 88.4779 250.947 88.4384 250.963 88.398L251.019 88.27C251.122 88.0288 251.337 87.6153 251.599 87.6153C251.692 87.6153 251.823 87.6153 252.014 87.9845C252.143 88.2485 252.247 88.5256 252.323 88.8115C252.383 89.033 252.444 89.2693 252.495 89.5056C252.514 89.5745 252.528 89.6434 252.542 89.7123C252.729 90.5344 252.925 91.3269 253.261 91.9816C253.331 92.1208 253.411 92.2541 253.5 92.3804C253.565 92.4745 253.635 92.5649 253.71 92.6511C254.266 93.2861 254.906 93.4387 255.391 93.4387C256.069 93.4387 257.026 93.1335 257.732 91.6863C258.091 90.943 258.395 89.8452 258.507 89.289C258.619 88.7327 258.703 88.2306 258.741 87.9254C258.758 87.7915 258.751 87.6553 258.718 87.5245C258.686 87.3937 258.629 87.271 258.551 87.1634C258.474 87.0559 258.376 86.9656 258.265 86.8979C258.154 86.8301 258.032 86.7862 257.905 86.7686L257.816 86.7588Z" fill="white" fill-opacity="0.7"/>
</svg>
