<svg width="165" height="33" viewBox="0 0 165 33" fill="none" xmlns="http://www.w3.org/2000/svg">
<rect width="165" height="32.6472" rx="16.2774" fill="white" fill-opacity="0.95"/>
<path d="M14.1313 18.8985L16.7169 10.9326H18.3493L15.1237 20.335H13.0735L9.82184 10.9326H11.5717L14.1313 18.8985ZM20.8347 12.5127H19.1109V10.9326H20.8347V12.5127ZM20.7563 20.335H19.1892V13.5443H20.7563V20.335ZM27.0382 18.3761H28.6837C28.5008 19.0726 28.1221 19.6124 27.5475 19.9954C26.9991 20.3524 26.3244 20.5308 25.5234 20.5308C24.4178 20.5308 23.5559 20.1826 22.9378 19.4861C22.3719 18.8506 22.0889 18.0018 22.0889 16.9396C22.0889 15.7208 22.4415 14.7893 23.1467 14.145C23.7387 13.614 24.5092 13.3485 25.4581 13.3485C26.5638 13.3485 27.3995 13.7098 27.9654 14.4323C28.4965 15.1027 28.762 16.0603 28.762 17.3053H23.6821C23.743 18.0366 23.9694 18.572 24.3612 18.9115C24.6746 19.1901 25.0838 19.3294 25.5887 19.3294C25.9456 19.3294 26.2547 19.2424 26.5159 19.0682C26.7771 18.8941 26.9512 18.6634 27.0382 18.3761ZM27.1558 16.2345C27.1209 15.5989 26.9294 15.1332 26.5812 14.8372C26.2939 14.5847 25.9195 14.4585 25.4581 14.4585C24.9532 14.4585 24.5483 14.6239 24.2436 14.9547C23.965 15.2507 23.7866 15.6773 23.7082 16.2345H27.1558ZM38.4111 13.5443H39.939L38.0063 20.335H36.1258L34.7024 15.1245L33.2528 20.335H31.3593L29.4396 13.5443H31.0589L32.3648 18.8593L33.8144 13.5443H35.6948L37.0791 18.8593L38.4111 13.5443ZM44.7219 10.9326H47.9605C49.545 10.9326 50.7333 11.3679 51.5256 12.2384C52.2482 13.0307 52.6095 14.1625 52.6095 15.6338C52.6095 17.2705 52.1263 18.498 51.1599 19.3164C50.3503 19.9954 49.2707 20.335 47.9213 20.335H44.7219V10.9326ZM46.3934 19.0682H47.9997C49.0009 19.0682 49.7496 18.7461 50.2458 18.1019C50.6985 17.5186 50.9249 16.6959 50.9249 15.6338C50.9249 14.4062 50.6245 13.4965 50.0238 12.9045C49.5276 12.4169 48.8442 12.1732 47.9736 12.1732H46.3934V19.0682ZM58.6142 18.3761H60.2596C60.0768 19.0726 59.6981 19.6124 59.1235 19.9954C58.575 20.3524 57.9003 20.5308 57.0994 20.5308C55.9937 20.5308 55.1318 20.1826 54.5137 19.4861C53.9478 18.8506 53.6649 18.0018 53.6649 16.9396C53.6649 15.7208 54.0175 14.7893 54.7227 14.145C55.3147 13.614 56.0851 13.3485 57.0341 13.3485C58.1397 13.3485 58.9755 13.7098 59.5414 14.4323C60.0724 15.1027 60.338 16.0603 60.338 17.3053H55.2581C55.319 18.0366 55.5454 18.572 55.9371 18.9115C56.2505 19.1901 56.6597 19.3294 57.1647 19.3294C57.5216 19.3294 57.8307 19.2424 58.0918 19.0682C58.353 18.8941 58.5271 18.6634 58.6142 18.3761ZM58.7317 16.2345C58.6969 15.5989 58.5054 15.1332 58.1571 14.8372C57.8698 14.5847 57.4955 14.4585 57.0341 14.4585C56.5291 14.4585 56.1243 14.6239 55.8196 14.9547C55.541 15.2507 55.3625 15.6773 55.2842 16.2345H58.7317ZM62.8047 18.4022C62.9266 19.0552 63.4184 19.3817 64.2803 19.3817C64.7592 19.3817 65.1205 19.2902 65.3642 19.1074C65.5645 18.9507 65.6646 18.7461 65.6646 18.4937C65.6646 18.1715 65.4905 17.9321 65.1422 17.7754C64.942 17.6884 64.5023 17.5665 63.8233 17.4098C62.9875 17.2182 62.3911 16.9571 62.0342 16.6262C61.6773 16.3041 61.4988 15.8819 61.4988 15.3595C61.4988 14.6979 61.7687 14.1886 62.3084 13.8316C62.7873 13.5095 63.4446 13.3485 64.2803 13.3485C65.1422 13.3485 65.8343 13.553 66.3567 13.9622C66.8094 14.3105 67.0923 14.7806 67.2055 15.3726H65.6123C65.4817 14.7893 65.029 14.4976 64.2542 14.4976C63.4707 14.4976 63.0789 14.737 63.0789 15.2159C63.0789 15.4596 63.179 15.6425 63.3793 15.7643C63.5795 15.8862 63.9843 16.0212 64.5937 16.1692C65.534 16.3868 66.1869 16.6306 66.5526 16.9005C67.014 17.24 67.2447 17.7188 67.2447 18.3369C67.2447 19.0421 66.9574 19.595 66.3828 19.9954C65.8605 20.3524 65.1553 20.5308 64.2673 20.5308C63.3357 20.5308 62.5914 20.3088 62.0342 19.8648C61.5641 19.4905 61.2898 19.003 61.2115 18.4022H62.8047ZM70.2263 12.5127H68.5025V10.9326H70.2263V12.5127ZM70.148 20.335H68.5809V13.5443H70.148V20.335ZM71.7287 20.779H73.3741C73.5395 21.4058 74.0575 21.7192 74.9281 21.7192C76.0512 21.7192 76.6127 21.1838 76.6127 20.113V19.3555C76.0991 19.8779 75.4026 20.1391 74.5233 20.1391C73.6005 20.1391 72.8518 19.8126 72.2772 19.1597C71.7461 18.5502 71.4806 17.7624 71.4806 16.796C71.4806 15.6555 71.807 14.7719 72.46 14.145C73.0085 13.614 73.7136 13.3485 74.5755 13.3485C75.4809 13.3485 76.1861 13.6793 76.6911 14.3409L76.9392 13.5443H78.1798V20.0999C78.1798 20.9966 77.8577 21.6974 77.2134 22.2024C76.6388 22.6551 75.8814 22.8814 74.9412 22.8814C73.9313 22.8814 73.1434 22.6681 72.5775 22.2416C72.1161 21.8846 71.8332 21.3971 71.7287 20.779ZM73.0868 16.8091C73.0868 17.5142 73.2827 18.0584 73.6745 18.4414C73.9966 18.7461 74.4014 18.8985 74.8889 18.8985C75.5158 18.8985 75.9902 18.6939 76.3124 18.2847C76.5909 17.9278 76.7302 17.4402 76.7302 16.8221C76.7302 16.0473 76.5387 15.464 76.1557 15.0722C75.8422 14.7501 75.42 14.589 74.8889 14.589C74.3056 14.589 73.8529 14.798 73.5308 15.2159C73.2348 15.5989 73.0868 16.13 73.0868 16.8091ZM81.4214 20.335H79.8544V13.5443H81.1472L81.317 14.354C81.8132 13.6836 82.501 13.3485 83.3803 13.3485C84.1986 13.3485 84.8255 13.6009 85.2607 14.1059C85.6438 14.5499 85.8353 15.1549 85.8353 15.9211V20.335H84.2683V15.9602C84.2683 15.0287 83.8373 14.5629 82.9754 14.5629C82.5053 14.5629 82.1223 14.7283 81.8263 15.0592C81.5564 15.3639 81.4214 15.7469 81.4214 16.2083V20.335ZM99.2499 15.2028V20.335H98.1007L97.8656 19.3164C97.5609 19.6994 97.1648 19.9998 96.6773 20.2174C96.1897 20.4264 95.6456 20.5308 95.0449 20.5308C93.7477 20.5308 92.7161 20.0607 91.95 19.1205C91.2361 18.2412 90.8791 17.0702 90.8791 15.6076C90.8791 13.9448 91.3536 12.6781 92.3025 11.8075C93.0774 11.0936 94.0742 10.7367 95.293 10.7367C96.4248 10.7367 97.3607 11.0457 98.1007 11.6639C98.7275 12.1862 99.1062 12.8522 99.2368 13.6619H97.5914C97.4608 13.096 97.1692 12.6694 96.7165 12.3821C96.3334 12.1383 95.8589 12.0164 95.293 12.0164C94.4311 12.0164 93.7608 12.3429 93.282 12.9959C92.8293 13.6227 92.6029 14.4933 92.6029 15.6076C92.6029 16.8613 92.9076 17.8189 93.517 18.4806C93.9959 18.9942 94.5922 19.2511 95.3061 19.2511C96.0548 19.2511 96.6642 19.0291 97.1343 18.5851C97.5609 18.1846 97.7742 17.6971 97.7742 17.1225V16.4173H95.2277V15.2028H99.2499ZM100.78 13.5443H102.347V18.0105C102.347 18.8811 102.774 19.3164 103.627 19.3164C104.123 19.3164 104.511 19.1379 104.789 18.7809C105.016 18.4762 105.129 18.1019 105.129 17.6579V13.5443H106.696V20.335H105.403L105.233 19.5775C104.746 20.2131 104.067 20.5308 103.196 20.5308C102.395 20.5308 101.781 20.2871 101.355 19.7995C100.972 19.3555 100.78 18.7461 100.78 17.9713V13.5443ZM110.015 12.5127H108.291V10.9326H110.015V12.5127ZM109.937 20.335H108.37V13.5443H109.937V20.335ZM118.021 20.335H116.767L116.493 19.46C115.962 20.1739 115.235 20.5308 114.312 20.5308C113.346 20.5308 112.584 20.1826 112.027 19.4861C111.522 18.8506 111.269 18.0192 111.269 16.9919C111.269 15.7556 111.596 14.811 112.249 14.1581C112.789 13.6183 113.489 13.3485 114.351 13.3485C115.248 13.3485 115.949 13.6706 116.454 14.3148V10.9326H118.021V20.335ZM112.876 17.0049C112.876 17.8059 113.067 18.4022 113.45 18.794C113.764 19.1248 114.173 19.2902 114.678 19.2902C115.296 19.2902 115.766 19.0639 116.088 18.6112C116.375 18.2107 116.519 17.6709 116.519 16.9919C116.519 16.1387 116.319 15.5032 115.918 15.0853C115.605 14.7545 115.191 14.589 114.678 14.589C114.077 14.589 113.62 14.8154 113.307 15.2681C113.019 15.6773 112.876 16.2562 112.876 17.0049ZM124.304 18.3761H125.949C125.767 19.0726 125.388 19.6124 124.813 19.9954C124.265 20.3524 123.59 20.5308 122.789 20.5308C121.683 20.5308 120.822 20.1826 120.203 19.4861C119.638 18.8506 119.355 18.0018 119.355 16.9396C119.355 15.7208 119.707 14.7893 120.412 14.145C121.004 13.614 121.775 13.3485 122.724 13.3485C123.829 13.3485 124.665 13.7098 125.231 14.4323C125.762 15.1027 126.028 16.0603 126.028 17.3053H120.948C121.009 18.0366 121.235 18.572 121.627 18.9115C121.94 19.1901 122.349 19.3294 122.854 19.3294C123.211 19.3294 123.52 19.2424 123.782 19.0682C124.043 18.8941 124.217 18.6634 124.304 18.3761ZM124.421 16.2345C124.387 15.5989 124.195 15.1332 123.847 14.8372C123.56 14.5847 123.185 14.4585 122.724 14.4585C122.219 14.4585 121.814 14.6239 121.509 14.9547C121.231 15.2507 121.052 15.6773 120.974 16.2345H124.421ZM128.938 10.9326V20.335H127.371V10.9326H128.938ZM132.256 12.5127H130.532V10.9326H132.256V12.5127ZM132.178 20.335H130.611V13.5443H132.178V20.335ZM135.417 20.335H133.85V13.5443H135.143L135.312 14.354C135.809 13.6836 136.496 13.3485 137.376 13.3485C138.194 13.3485 138.821 13.6009 139.256 14.1059C139.639 14.5499 139.831 15.1549 139.831 15.9211V20.335H138.264V15.9602C138.264 15.0287 137.833 14.5629 136.971 14.5629C136.501 14.5629 136.118 14.7283 135.822 15.0592C135.552 15.3639 135.417 15.7469 135.417 16.2083V20.335ZM146.047 18.3761H147.693C147.51 19.0726 147.131 19.6124 146.557 19.9954C146.008 20.3524 145.334 20.5308 144.533 20.5308C143.427 20.5308 142.565 20.1826 141.947 19.4861C141.381 18.8506 141.098 18.0018 141.098 16.9396C141.098 15.7208 141.451 14.7893 142.156 14.145C142.748 13.614 143.518 13.3485 144.467 13.3485C145.573 13.3485 146.409 13.7098 146.975 14.4323C147.506 15.1027 147.771 16.0603 147.771 17.3053H142.691C142.752 18.0366 142.979 18.572 143.37 18.9115C143.684 19.1901 144.093 19.3294 144.598 19.3294C144.955 19.3294 145.264 19.2424 145.525 19.0682C145.786 18.8941 145.96 18.6634 146.047 18.3761ZM146.165 16.2345C146.13 15.5989 145.939 15.1332 145.59 14.8372C145.303 14.5847 144.929 14.4585 144.467 14.4585C143.962 14.4585 143.558 14.6239 143.253 14.9547C142.974 15.2507 142.796 15.6773 142.717 16.2345H146.165ZM150.238 18.4022C150.36 19.0552 150.852 19.3817 151.714 19.3817C152.192 19.3817 152.554 19.2902 152.798 19.1074C152.998 18.9507 153.098 18.7461 153.098 18.4937C153.098 18.1715 152.924 17.9321 152.576 17.7754C152.375 17.6884 151.936 17.5665 151.257 17.4098C150.421 17.2182 149.824 16.9571 149.467 16.6262C149.111 16.3041 148.932 15.8819 148.932 15.3595C148.932 14.6979 149.202 14.1886 149.742 13.8316C150.221 13.5095 150.878 13.3485 151.714 13.3485C152.576 13.3485 153.268 13.553 153.79 13.9622C154.243 14.3105 154.526 14.7806 154.639 15.3726H153.046C152.915 14.7893 152.462 14.4976 151.688 14.4976C150.904 14.4976 150.512 14.737 150.512 15.2159C150.512 15.4596 150.612 15.6425 150.813 15.7643C151.013 15.8862 151.418 16.0212 152.027 16.1692C152.967 16.3868 153.62 16.6306 153.986 16.9005C154.447 17.24 154.678 17.7188 154.678 18.3369C154.678 19.0421 154.391 19.595 153.816 19.9954C153.294 20.3524 152.589 20.5308 151.701 20.5308C150.769 20.5308 150.025 20.3088 149.467 19.8648C148.997 19.4905 148.723 19.003 148.645 18.4022H150.238Z" fill="black" fill-opacity="0.95"/>
</svg>
