<svg width="660" height="456" viewBox="0 0 660 456" fill="none" xmlns="http://www.w3.org/2000/svg">
<rect x="13.3652" width="634.436" height="446.293" rx="24" fill="#262626"/>
<g filter="url(#filter0_dd_1241_30408)">
<rect width="299.997" height="300" rx="16" transform="matrix(0.966591 -0.258997 0.973039 0.233606 38.9433 316.17)" fill="url(#paint0_linear_1241_30408)"/>
<rect x="0.969815" y="-0.0126956" width="298.997" height="299" rx="15.5" transform="matrix(0.966591 -0.258997 0.973039 0.233606 38.9881 316.411)" stroke="black" stroke-opacity="0.3"/>
<path d="M398.912 352.948L395.898 341.7L400.401 340.493C401.229 340.272 401.952 340.209 402.57 340.306C403.189 340.404 403.696 340.633 404.091 340.994C404.485 341.351 404.757 341.812 404.908 342.376C405.026 342.815 405.042 343.225 404.955 343.605C404.868 343.982 404.699 344.318 404.448 344.612C404.2 344.902 403.892 345.144 403.524 345.337L403.553 345.447C403.986 345.35 404.42 345.364 404.853 345.487C405.29 345.609 405.68 345.84 406.022 346.18C406.363 346.517 406.608 346.961 406.756 347.514C406.916 348.111 406.91 348.683 406.739 349.231C406.571 349.775 406.236 350.259 405.734 350.684C405.231 351.109 404.559 351.434 403.717 351.66L398.912 352.948ZM400.769 350.366L402.707 349.847C403.37 349.669 403.819 349.413 404.056 349.079C404.291 348.742 404.352 348.36 404.238 347.936C404.154 347.624 404.006 347.37 403.792 347.172C403.578 346.974 403.314 346.845 402.999 346.784C402.688 346.722 402.342 346.742 401.962 346.844L399.968 347.379L400.769 350.366ZM399.537 345.769L401.3 345.297C401.626 345.21 401.9 345.075 402.122 344.894C402.347 344.708 402.504 344.49 402.594 344.238C402.687 343.986 402.694 343.711 402.614 343.414C402.505 343.008 402.273 342.719 401.917 342.548C401.565 342.375 401.125 342.36 400.598 342.501L398.791 342.985L399.537 345.769ZM411.694 349.523L409.145 350.205L410.014 337.917L413.079 337.096L419.97 347.305L417.422 347.988L412.279 340.065L412.191 340.089L411.694 349.523ZM410.35 345.144L416.369 343.531L416.866 345.388L410.847 347.001L410.35 345.144ZM429.379 336.949L426.974 337.594C426.846 337.294 426.683 337.042 426.482 336.836C426.281 336.627 426.051 336.465 425.793 336.35C425.534 336.235 425.254 336.169 424.951 336.152C424.652 336.134 424.341 336.168 424.019 336.255C423.437 336.41 422.968 336.691 422.614 337.096C422.258 337.497 422.035 338.005 421.944 338.617C421.853 339.227 421.911 339.921 422.12 340.701C422.335 341.503 422.634 342.145 423.019 342.627C423.406 343.107 423.854 343.429 424.36 343.592C424.867 343.754 425.404 343.759 425.971 343.607C426.29 343.522 426.573 343.401 426.822 343.244C427.074 343.086 427.284 342.898 427.454 342.68C427.622 342.459 427.744 342.212 427.82 341.94C427.9 341.668 427.928 341.374 427.902 341.059L430.311 340.426C430.387 340.958 430.365 341.498 430.244 342.044C430.126 342.586 429.909 343.101 429.593 343.59C429.279 344.075 428.864 344.504 428.348 344.877C427.835 345.247 427.218 345.528 426.497 345.721C425.493 345.99 424.536 346.003 423.623 345.761C422.714 345.518 421.916 345.027 421.227 344.29C420.543 343.551 420.037 342.57 419.709 341.347C419.381 340.121 419.332 339.015 419.562 338.031C419.793 337.047 420.244 336.224 420.914 335.562C421.583 334.896 422.412 334.431 423.4 334.166C424.052 333.991 424.681 333.921 425.286 333.955C425.896 333.988 426.463 334.122 426.99 334.358C427.515 334.59 427.981 334.922 428.387 335.355C428.797 335.787 429.128 336.318 429.379 336.949ZM433.662 343.636L430.648 332.389L433.026 331.751L434.355 336.711L434.503 336.671L437.222 330.627L440.072 329.863L437.248 336.018L443.135 341.098L440.291 341.86L435.97 338.061L435.183 339.803L436.04 342.999L433.662 343.636ZM449.727 331.173C449.579 330.926 449.407 330.719 449.213 330.551C449.018 330.38 448.801 330.25 448.561 330.161C448.324 330.068 448.067 330.017 447.791 330.009C447.517 329.999 447.227 330.036 446.919 330.118C446.345 330.272 445.878 330.551 445.518 330.953C445.163 331.354 444.937 331.86 444.842 332.47C444.745 333.077 444.802 333.772 445.012 334.556C445.222 335.339 445.52 335.974 445.905 336.459C446.29 336.944 446.739 337.273 447.252 337.446C447.764 337.615 448.317 337.62 448.91 337.461C449.449 337.317 449.882 337.098 450.212 336.806C450.545 336.509 450.765 336.157 450.872 335.752C450.983 335.346 450.974 334.903 450.845 334.423L451.348 334.365L448.448 335.142L447.968 333.351L452.675 332.09L453.054 333.507C453.319 334.496 453.338 335.401 453.111 336.223C452.883 337.042 452.454 337.741 451.825 338.322C451.195 338.899 450.408 339.314 449.463 339.567C448.408 339.85 447.42 339.865 446.497 339.614C445.573 339.359 444.773 338.862 444.096 338.121C443.421 337.376 442.925 336.41 442.607 335.224C442.363 334.312 442.277 333.464 442.349 332.679C442.424 331.89 442.635 331.182 442.981 330.556C443.327 329.929 443.784 329.401 444.351 328.97C444.919 328.539 445.574 328.224 446.317 328.025C446.954 327.855 447.573 327.789 448.172 327.829C448.77 327.864 449.327 327.994 449.842 328.217C450.36 328.439 450.817 328.746 451.213 329.139C451.607 329.527 451.918 329.99 452.144 330.526L449.727 331.173ZM456.693 337.465L453.679 326.218L458.116 325.029C458.966 324.801 459.731 324.759 460.413 324.902C461.098 325.04 461.672 325.343 462.135 325.812C462.6 326.276 462.933 326.879 463.132 327.623C463.332 328.369 463.343 329.055 463.165 329.68C462.986 330.301 462.629 330.836 462.094 331.285C461.563 331.734 460.865 332.074 460.001 332.305L457.03 333.101L456.518 331.19L459.105 330.497C459.559 330.375 459.919 330.212 460.186 330.007C460.453 329.802 460.626 329.556 460.706 329.267C460.789 328.978 460.782 328.649 460.682 328.279C460.582 327.905 460.423 327.611 460.204 327.395C459.989 327.178 459.712 327.044 459.373 326.993C459.036 326.938 458.639 326.972 458.181 327.095L456.578 327.525L459.071 336.828L456.693 337.465ZM461.395 330.719L465.562 335.089L462.937 335.792L458.83 331.406L461.395 330.719ZM476.289 326.187C476.618 327.413 476.665 328.519 476.431 329.504C476.2 330.488 475.746 331.314 475.07 331.982C474.396 332.645 473.563 333.11 472.571 333.375C471.571 333.643 470.613 333.657 469.697 333.416C468.781 333.174 467.977 332.685 467.285 331.949C466.593 331.212 466.083 330.232 465.756 329.009C465.427 327.783 465.378 326.677 465.609 325.693C465.84 324.709 466.292 323.886 466.966 323.222C467.639 322.555 468.475 322.088 469.474 321.82C470.467 321.554 471.421 321.542 472.337 321.783C473.256 322.02 474.061 322.506 474.753 323.243C475.449 323.979 475.961 324.96 476.289 326.187ZM473.878 326.833C473.665 326.038 473.367 325.4 472.983 324.918C472.602 324.435 472.16 324.111 471.656 323.943C471.152 323.776 470.613 323.77 470.038 323.924C469.463 324.078 468.999 324.353 468.647 324.75C468.294 325.147 468.071 325.65 467.98 326.259C467.891 326.867 467.954 327.569 468.167 328.363C468.38 329.158 468.676 329.796 469.057 330.279C469.441 330.761 469.885 331.085 470.389 331.252C470.893 331.419 471.432 331.426 472.007 331.272C472.582 331.118 473.046 330.843 473.399 330.446C473.751 330.049 473.972 329.547 474.06 328.938C474.152 328.329 474.091 327.627 473.878 326.833ZM484.11 318.064L486.488 317.426L488.445 324.731C488.665 325.551 488.661 326.321 488.434 327.041C488.211 327.76 487.796 328.385 487.189 328.917C486.581 329.445 485.812 329.833 484.882 330.083C483.948 330.333 483.086 330.381 482.296 330.228C481.504 330.071 480.832 329.737 480.279 329.226C479.726 328.715 479.34 328.05 479.12 327.229L477.163 319.925L479.541 319.288L481.443 326.389C481.558 326.817 481.754 327.173 482.03 327.456C482.309 327.738 482.647 327.929 483.042 328.027C483.437 328.125 483.863 328.113 484.321 327.99C484.782 327.866 485.158 327.664 485.447 327.382C485.741 327.1 485.936 326.767 486.033 326.384C486.134 325.999 486.128 325.593 486.013 325.165L484.11 318.064ZM498.471 314.216L501.485 325.463L499.431 326.013L492.641 320.245L492.558 320.268L494.455 327.347L492.077 327.984L489.063 316.736L491.15 316.177L497.9 321.95L497.999 321.923L496.104 314.85L498.471 314.216ZM508.055 323.703L504.068 324.771L501.054 313.523L505.075 312.446C506.206 312.143 507.24 312.107 508.177 312.339C509.113 312.567 509.914 313.041 510.578 313.762C511.245 314.481 511.736 315.425 512.048 316.593C512.362 317.765 512.411 318.831 512.193 319.792C511.98 320.752 511.521 321.567 510.818 322.238C510.119 322.908 509.198 323.396 508.055 323.703ZM505.9 322.096L507.411 321.691C508.114 321.503 508.671 321.22 509.084 320.843C509.5 320.461 509.758 319.974 509.858 319.382C509.961 318.785 509.901 318.067 509.676 317.229C509.453 316.398 509.149 315.752 508.762 315.29C508.379 314.828 507.914 314.536 507.368 314.416C506.822 314.295 506.197 314.329 505.494 314.517L503.978 314.924L505.9 322.096Z" fill="black" fill-opacity="0.95"/>
</g>
<rect width="300" height="300" rx="16" transform="matrix(0.966591 -0.258997 0.973039 0.233606 38.9433 246.752)" fill="white"/>
<rect x="0.969815" y="-0.0126956" width="299" height="299" rx="15.5" transform="matrix(0.966591 -0.258997 0.973039 0.233606 38.9881 246.993)" stroke="black" stroke-opacity="0.3"/>
<path d="M402.805 274.856C402.643 274.425 402.362 274.131 401.963 273.975C401.564 273.819 401.079 273.818 400.508 273.971C400.12 274.075 399.807 274.218 399.569 274.399C399.33 274.577 399.165 274.78 399.073 275.009C398.985 275.236 398.973 275.471 399.038 275.713C399.085 275.916 399.174 276.081 399.306 276.206C399.441 276.331 399.606 276.426 399.8 276.492C399.993 276.554 400.209 276.596 400.446 276.619C400.683 276.638 400.931 276.642 401.191 276.631L402.267 276.602C402.787 276.58 403.276 276.606 403.735 276.679C404.194 276.752 404.61 276.882 404.982 277.069C405.354 277.256 405.67 277.509 405.932 277.827C406.198 278.144 406.395 278.537 406.525 279.004C406.705 279.694 406.689 280.338 406.477 280.936C406.267 281.53 405.874 282.053 405.297 282.506C404.722 282.954 403.977 283.301 403.062 283.546C402.154 283.79 401.326 283.863 400.578 283.765C399.833 283.666 399.199 283.394 398.676 282.95C398.155 282.501 397.777 281.874 397.542 281.07L399.843 280.453C399.97 280.824 400.162 281.109 400.42 281.311C400.681 281.508 400.99 281.627 401.346 281.669C401.706 281.706 402.09 281.67 402.5 281.56C402.903 281.452 403.237 281.3 403.502 281.103C403.771 280.906 403.96 280.681 404.069 280.428C404.178 280.175 404.196 279.913 404.123 279.642C404.055 279.389 403.923 279.197 403.727 279.065C403.535 278.932 403.279 278.844 402.961 278.8C402.647 278.754 402.272 278.737 401.835 278.748L400.528 278.769C399.518 278.792 398.673 278.632 397.992 278.289C397.311 277.945 396.861 277.358 396.642 276.525C396.456 275.845 396.478 275.202 396.708 274.595C396.941 273.987 397.342 273.454 397.91 272.995C398.478 272.537 399.172 272.198 399.992 271.978C400.827 271.755 401.593 271.702 402.292 271.821C402.995 271.939 403.588 272.206 404.073 272.621C404.557 273.037 404.894 273.579 405.085 274.246L402.805 274.856ZM413.537 268.514L415.915 267.877L417.872 275.181C418.092 276.001 418.089 276.771 417.862 277.491C417.638 278.21 417.223 278.836 416.616 279.367C416.008 279.895 415.239 280.284 414.309 280.533C413.375 280.783 412.513 280.832 411.723 280.678C410.931 280.522 410.259 280.188 409.706 279.677C409.153 279.165 408.767 278.5 408.547 277.68L406.59 270.375L408.968 269.738L410.871 276.839C410.985 277.268 411.181 277.623 411.457 277.907C411.736 278.189 412.074 278.379 412.469 278.477C412.864 278.575 413.291 278.563 413.748 278.44C414.21 278.317 414.585 278.114 414.874 277.833C415.168 277.55 415.363 277.217 415.46 276.834C415.561 276.45 415.555 276.043 415.44 275.615L413.537 268.514ZM421.504 278.434L418.49 267.187L422.928 265.998C423.777 265.77 424.543 265.728 425.225 265.871C425.909 266.009 426.483 266.312 426.946 266.781C427.412 267.245 427.744 267.848 427.943 268.592C428.144 269.338 428.155 270.024 427.977 270.649C427.798 271.27 427.441 271.805 426.906 272.254C426.375 272.703 425.677 273.043 424.813 273.274L421.842 274.07L421.33 272.159L423.916 271.466C424.37 271.344 424.731 271.181 424.998 270.976C425.264 270.771 425.438 270.525 425.518 270.236C425.601 269.947 425.593 269.618 425.494 269.248C425.394 268.874 425.235 268.58 425.016 268.364C424.801 268.147 424.523 268.013 424.184 267.962C423.848 267.907 423.451 267.941 422.993 268.064L421.389 268.494L423.882 277.797L421.504 278.434ZM426.207 271.688L430.374 276.058L427.748 276.761L423.642 272.375L426.207 271.688ZM432.272 275.549L429.258 264.301L436.705 262.306L437.231 264.267L432.162 265.625L432.88 268.305L437.454 267.079L437.98 269.04L433.405 270.266L434.65 274.912L432.272 275.549ZM442.471 272.816L439.923 273.499L440.792 261.211L443.857 260.39L450.748 270.598L448.199 271.281L443.057 263.359L442.969 263.382L442.471 272.816ZM441.127 268.438L447.147 266.825L447.644 268.681L441.625 270.294L441.127 268.438ZM460.157 260.243L457.751 260.887C457.624 260.588 457.46 260.335 457.26 260.13C457.059 259.921 456.829 259.759 456.571 259.644C456.312 259.528 456.032 259.462 455.729 259.445C455.43 259.427 455.119 259.462 454.797 259.548C454.215 259.704 453.746 259.984 453.392 260.389C453.036 260.791 452.813 261.298 452.722 261.911C452.63 262.52 452.689 263.215 452.898 263.995C453.113 264.797 453.412 265.438 453.796 265.92C454.184 266.401 454.631 266.723 455.138 266.885C455.645 267.048 456.182 267.053 456.749 266.901C457.068 266.815 457.351 266.694 457.6 266.537C457.852 266.38 458.062 266.192 458.231 265.974C458.4 265.752 458.522 265.505 458.598 265.234C458.678 264.961 458.705 264.667 458.68 264.353L461.088 263.719C461.164 264.252 461.142 264.792 461.022 265.338C460.904 265.88 460.687 266.395 460.371 266.884C460.057 267.368 459.642 267.797 459.126 268.171C458.613 268.54 457.996 268.821 457.274 269.014C456.271 269.283 455.313 269.297 454.401 269.054C453.492 268.811 452.693 268.321 452.005 267.583C451.321 266.844 450.815 265.864 450.487 264.641C450.158 263.414 450.109 262.309 450.34 261.325C450.571 260.341 451.021 259.518 451.692 258.855C452.361 258.19 453.19 257.724 454.178 257.459C454.83 257.285 455.459 257.214 456.064 257.248C456.673 257.281 457.241 257.416 457.767 257.651C458.293 257.883 458.758 258.216 459.165 258.648C459.575 259.08 459.905 259.611 460.157 260.243ZM464.439 266.93L461.426 255.682L469.005 253.651L469.53 255.612L464.329 257.006L465.047 259.686L469.858 258.397L470.384 260.357L465.573 261.646L466.292 264.332L471.515 262.932L472.04 264.893L464.439 266.93Z" fill="black" fill-opacity="0.95"/>
<rect width="300" height="300" rx="16" transform="matrix(0.966591 -0.258997 0.973039 0.233606 38.9433 193.715)" fill="#F7F7F7"/>
<rect x="0.969815" y="-0.0126956" width="299" height="299" rx="15.5" transform="matrix(0.966591 -0.258997 0.973039 0.233606 38.9881 193.956)" stroke="black" stroke-opacity="0.3"/>
<path d="M403.875 216.08L401.469 216.725C401.342 216.425 401.178 216.173 400.978 215.967C400.777 215.758 400.547 215.596 400.289 215.481C400.03 215.366 399.749 215.3 399.447 215.283C399.148 215.265 398.837 215.299 398.515 215.385C397.933 215.541 397.464 215.822 397.11 216.227C396.754 216.628 396.531 217.135 396.44 217.748C396.348 218.358 396.407 219.052 396.616 219.832C396.831 220.634 397.13 221.276 397.514 221.758C397.902 222.238 398.349 222.56 398.856 222.722C399.363 222.885 399.9 222.89 400.467 222.738C400.786 222.653 401.069 222.532 401.318 222.375C401.57 222.217 401.78 222.029 401.949 221.811C402.118 221.59 402.24 221.343 402.316 221.071C402.396 220.799 402.423 220.505 402.398 220.19L404.806 219.556C404.882 220.089 404.86 220.629 404.74 221.175C404.622 221.717 404.405 222.232 404.089 222.721C403.775 223.206 403.36 223.635 402.844 224.008C402.331 224.377 401.714 224.659 400.992 224.852C399.989 225.121 399.031 225.134 398.119 224.892C397.21 224.649 396.411 224.158 395.723 223.421C395.039 222.682 394.533 221.701 394.205 220.478C393.876 219.252 393.827 218.146 394.058 217.162C394.289 216.178 394.739 215.355 395.41 214.693C396.079 214.027 396.908 213.562 397.896 213.297C398.548 213.122 399.177 213.052 399.782 213.086C400.391 213.119 400.959 213.253 401.485 213.489C402.011 213.721 402.476 214.053 402.883 214.486C403.293 214.917 403.623 215.449 403.875 216.08ZM416.986 214.374C417.315 215.6 417.362 216.706 417.128 217.691C416.897 218.675 416.443 219.501 415.767 220.169C415.093 220.832 414.26 221.297 413.268 221.563C412.268 221.83 411.31 221.844 410.394 221.603C409.478 221.362 408.674 220.873 407.982 220.136C407.29 219.399 406.781 218.419 406.453 217.196C406.124 215.97 406.075 214.864 406.306 213.88C406.537 212.896 406.989 212.073 407.663 211.41C408.336 210.743 409.172 210.275 410.172 210.007C411.164 209.742 412.118 209.729 413.034 209.97C413.953 210.207 414.758 210.693 415.45 211.43C416.146 212.166 416.658 213.147 416.986 214.374ZM414.575 215.02C414.363 214.225 414.064 213.587 413.68 213.105C413.299 212.623 412.857 212.298 412.353 212.131C411.849 211.963 411.31 211.957 410.735 212.111C410.16 212.265 409.697 212.54 409.344 212.937C408.991 213.334 408.769 213.837 408.677 214.446C408.589 215.054 408.651 215.756 408.864 216.55C409.077 217.345 409.373 217.983 409.754 218.466C410.138 218.948 410.582 219.272 411.086 219.44C411.59 219.607 412.129 219.613 412.704 219.459C413.279 219.305 413.743 219.03 414.096 218.633C414.448 218.236 414.669 217.734 414.757 217.126C414.849 216.516 414.788 215.814 414.575 215.02ZM427.268 205.591L430.281 216.839L428.227 217.389L421.437 211.621L421.355 211.643L423.252 218.723L420.874 219.36L417.86 208.112L419.947 207.553L426.697 213.326L426.796 213.299L424.9 206.226L427.268 205.591ZM429.948 206.975L429.423 205.014L438.66 202.539L439.185 204.499L435.742 205.422L438.23 214.709L435.88 215.339L433.391 206.052L429.948 206.975ZM443.814 213.213L440.8 201.965L448.379 199.935L448.904 201.895L443.703 203.289L444.421 205.969L449.232 204.68L449.758 206.641L444.947 207.93L445.666 210.615L450.889 209.216L451.415 211.176L443.814 213.213ZM460.296 196.742L463.31 207.989L461.256 208.539L454.466 202.771L454.383 202.794L456.28 209.873L453.902 210.51L450.888 199.262L452.975 198.703L459.725 204.476L459.824 204.449L457.929 197.376L460.296 196.742ZM462.976 198.125L462.451 196.164L471.688 193.689L472.214 195.65L468.77 196.572L471.259 205.859L468.908 206.489L466.42 197.202L462.976 198.125Z" fill="black" fill-opacity="0.95"/>
<rect width="300" height="300" rx="16" transform="matrix(0.966591 -0.258997 0.973137 0.233199 40.3056 137.74)" fill="white" fill-opacity="0.05"/>
<rect width="300" height="300" rx="16" transform="matrix(0.966591 -0.258997 0.973137 0.233199 40.3056 137.74)" stroke="#0F0F0F" stroke-width="3" stroke-dasharray="6 6"/>
<path d="M384.386 177.564L381.372 166.316L385.875 165.11C386.703 164.888 387.426 164.826 388.045 164.923C388.663 165.02 389.17 165.249 389.565 165.61C389.959 165.968 390.232 166.429 390.383 166.992C390.5 167.432 390.516 167.842 390.43 168.222C390.342 168.598 390.173 168.934 389.922 169.229C389.674 169.519 389.366 169.76 388.998 169.953L389.028 170.063C389.461 169.967 389.894 169.98 390.327 170.103C390.764 170.226 391.154 170.457 391.496 170.797C391.837 171.133 392.082 171.578 392.23 172.13C392.39 172.727 392.385 173.3 392.214 173.848C392.045 174.391 391.71 174.876 391.208 175.3C390.706 175.725 390.033 176.051 389.191 176.276L384.386 177.564ZM386.243 174.983L388.182 174.463C388.844 174.286 389.294 174.03 389.53 173.696C389.765 173.358 389.826 172.977 389.712 172.552C389.629 172.241 389.48 171.986 389.266 171.789C389.052 171.591 388.788 171.462 388.474 171.401C388.163 171.339 387.817 171.359 387.436 171.461L385.442 171.995L386.243 174.983ZM385.011 170.386L386.774 169.914C387.1 169.826 387.374 169.692 387.596 169.511C387.821 169.325 387.978 169.106 388.068 168.855C388.161 168.602 388.168 168.327 388.089 168.031C387.98 167.624 387.747 167.336 387.391 167.164C387.039 166.992 386.599 166.976 386.072 167.117L384.265 167.601L385.011 170.386ZM404.058 166.265C404.387 167.492 404.434 168.598 404.2 169.583C403.969 170.567 403.515 171.393 402.839 172.06C402.165 172.724 401.332 173.188 400.339 173.454C399.34 173.722 398.382 173.735 397.466 173.494C396.55 173.253 395.746 172.764 395.054 172.027C394.362 171.29 393.852 170.311 393.525 169.088C393.196 167.861 393.147 166.756 393.378 165.772C393.609 164.788 394.061 163.964 394.735 163.301C395.408 162.634 396.244 162.167 397.243 161.899C398.236 161.633 399.19 161.621 400.106 161.862C401.025 162.098 401.83 162.585 402.522 163.322C403.217 164.058 403.73 165.039 404.058 166.265ZM401.647 166.911C401.434 166.117 401.136 165.479 400.752 164.997C400.371 164.514 399.929 164.189 399.425 164.022C398.921 163.855 398.382 163.848 397.807 164.002C397.232 164.156 396.768 164.432 396.415 164.828C396.063 165.225 395.84 165.728 395.748 166.337C395.66 166.946 395.723 167.647 395.936 168.442C396.148 169.236 396.445 169.875 396.826 170.358C397.21 170.839 397.654 171.164 398.158 171.331C398.662 171.498 399.201 171.505 399.776 171.351C400.351 171.197 400.815 170.921 401.167 170.525C401.52 170.128 401.741 169.625 401.829 169.017C401.921 168.408 401.86 167.706 401.647 166.911ZM407.945 171.251L404.932 160.004L409.369 158.815C410.218 158.587 410.984 158.545 411.666 158.688C412.351 158.826 412.924 159.13 413.387 159.598C413.853 160.062 414.185 160.665 414.385 161.409C414.585 162.156 414.596 162.841 414.418 163.466C414.239 164.087 413.882 164.622 413.347 165.071C412.816 165.52 412.118 165.86 411.254 166.091L408.283 166.887L407.771 164.976L410.357 164.283C410.812 164.161 411.172 163.998 411.439 163.793C411.706 163.588 411.879 163.342 411.959 163.053C412.042 162.764 412.034 162.435 411.935 162.065C411.835 161.692 411.676 161.397 411.457 161.181C411.242 160.964 410.965 160.83 410.625 160.78C410.289 160.725 409.892 160.758 409.434 160.881L407.83 161.311L410.323 170.614L407.945 171.251ZM412.648 164.505L416.815 168.875L414.19 169.578L410.083 165.192L412.648 164.505ZM422.7 167.298L418.713 168.366L415.699 157.118L419.719 156.041C420.851 155.738 421.885 155.702 422.822 155.934C423.758 156.162 424.558 156.636 425.222 157.357C425.89 158.077 426.38 159.02 426.693 160.188C427.007 161.36 427.056 162.426 426.838 163.387C426.625 164.347 426.166 165.162 425.463 165.833C424.764 166.504 423.843 166.992 422.7 167.298ZM420.545 165.691L422.055 165.287C422.758 165.098 423.316 164.815 423.729 164.438C424.145 164.056 424.403 163.569 424.503 162.977C424.606 162.38 424.546 161.663 424.321 160.824C424.098 159.993 423.794 159.347 423.407 158.885C423.024 158.423 422.559 158.131 422.013 158.011C421.467 157.89 420.842 157.924 420.139 158.113L418.623 158.519L420.545 165.691ZM430.583 165.185L427.57 153.938L435.149 151.907L435.674 153.868L430.473 155.261L431.191 157.941L436.002 156.652L436.528 158.613L431.717 159.902L432.436 162.588L437.659 161.188L438.184 163.149L430.583 165.185ZM440.672 162.482L437.658 151.235L442.095 150.046C442.945 149.818 443.71 149.776 444.392 149.919C445.077 150.057 445.651 150.361 446.114 150.829C446.579 151.293 446.912 151.896 447.111 152.64C447.311 153.387 447.322 154.072 447.144 154.697C446.965 155.318 446.608 155.853 446.073 156.302C445.542 156.751 444.844 157.091 443.98 157.322L441.009 158.118L440.497 156.207L443.084 155.514C443.538 155.392 443.898 155.229 444.165 155.024C444.432 154.819 444.605 154.573 444.685 154.284C444.768 153.995 444.761 153.666 444.662 153.296C444.561 152.923 444.402 152.628 444.183 152.412C443.968 152.195 443.691 152.061 443.352 152.011C443.015 151.956 442.618 151.989 442.16 152.112L440.557 152.542L443.05 161.845L440.672 162.482ZM445.374 155.736L449.541 160.106L446.916 160.809L442.81 156.423L445.374 155.736Z" fill="black" fill-opacity="0.95"/>
<defs>
<filter id="filter0_dd_1241_30408" x="-9.08975" y="214.455" width="677.952" height="243.846" filterUnits="userSpaceOnUse" color-interpolation-filters="sRGB">
<feFlood flood-opacity="0" result="BackgroundImageFix"/>
<feColorMatrix in="SourceAlpha" type="matrix" values="0 0 0 0 0 0 0 0 0 0 0 0 0 0 0 0 0 0 127 0" result="hardAlpha"/>
<feOffset/>
<feGaussianBlur stdDeviation="0.5"/>
<feColorMatrix type="matrix" values="0 0 0 0 0 0 0 0 0 0 0 0 0 0 0 0 0 0 0.12 0"/>
<feBlend mode="normal" in2="BackgroundImageFix" result="effect1_dropShadow_1241_30408"/>
<feColorMatrix in="SourceAlpha" type="matrix" values="0 0 0 0 0 0 0 0 0 0 0 0 0 0 0 0 0 0 127 0" result="hardAlpha"/>
<feOffset dy="24"/>
<feGaussianBlur stdDeviation="24"/>
<feColorMatrix type="matrix" values="0 0 0 0 0 0 0 0 0 0 0 0 0 0 0 0 0 0 0.2 0"/>
<feBlend mode="normal" in2="effect1_dropShadow_1241_30408" result="effect2_dropShadow_1241_30408"/>
<feBlend mode="normal" in="SourceGraphic" in2="effect2_dropShadow_1241_30408" result="shape"/>
</filter>
<linearGradient id="paint0_linear_1241_30408" x1="149.998" y1="0" x2="149.998" y2="300" gradientUnits="userSpaceOnUse">
<stop stop-color="#F0F0F0"/>
<stop offset="1" stop-color="white"/>
</linearGradient>
</defs>
</svg>
