<svg width="559" height="400" viewBox="0 0 559 400" fill="none" xmlns="http://www.w3.org/2000/svg">
<path d="M390.862 177.87V216.641M451.173 220.166L411.227 144.973C402.22 128.525 378.722 128.525 370.106 144.973L315.67 244.839C307.054 260.504 318.411 279.694 336.426 279.694H397.715M397.715 279.694H449.607C458.223 279.694 465.272 272.644 465.272 264.029C465.272 255.413 458.223 248.363 449.607 248.363C419.566 248.363 404.887 264.209 397.715 279.694ZM397.715 279.694C390.862 294.489 390.862 308.955 390.862 308.955V309.333C390.862 324.061 378.923 336 364.196 336H122.167C107.439 336 95.5001 324.061 95.5001 309.333V112.667C95.5001 97.9392 107.439 86.0002 122.167 86.0002H383.5M215.5 211.333V241.936C215.5 246.481 220.356 249.376 224.353 247.215L279.972 217.15C284.119 214.909 284.18 208.981 280.081 206.654L224.462 175.086C220.462 172.816 215.5 175.705 215.5 180.305V189.333" stroke="url(#paint0_linear_1253_44687)" stroke-width="2.5" stroke-linecap="round" stroke-linejoin="round"/>
<path d="M391.167 236.667C393.928 236.667 396.167 234.428 396.167 231.667C396.167 228.905 393.928 226.667 391.167 226.667C388.405 226.667 386.167 228.905 386.167 231.667C386.167 234.428 388.405 236.667 391.167 236.667Z" fill="#64B283"/>
<defs>
<linearGradient id="paint0_linear_1253_44687" x1="280.386" y1="86.0002" x2="280.386" y2="336" gradientUnits="userSpaceOnUse">
<stop stop-color="#93C437"/>
<stop offset="1" stop-color="#279BE8"/>
</linearGradient>
</defs>
</svg>
