<svg width="634" height="400" viewBox="0 0 634 400" fill="none" xmlns="http://www.w3.org/2000/svg">
<path d="M428.362 177.87V216.641M488.673 220.166L448.727 144.973C439.72 128.525 416.222 128.525 407.606 144.973L353.17 244.839C344.554 260.504 355.911 279.694 373.926 279.694H435.215M435.215 279.694H487.107C495.723 279.694 502.772 272.644 502.772 264.029C502.772 255.413 495.723 248.363 487.107 248.363C457.066 248.363 442.387 264.209 435.215 279.694ZM435.215 279.694C428.362 294.489 428.362 308.955 428.362 308.955V309.333C428.362 324.061 416.423 336 401.696 336H159.667C144.939 336 133 324.061 133 309.333V112.667C133 97.9392 144.939 86.0002 159.667 86.0002H421M253 211.333V241.936C253 246.481 257.856 249.376 261.853 247.215L317.472 217.15C321.619 214.909 321.68 208.981 317.581 206.654L261.962 175.086C257.962 172.816 253 175.705 253 180.305V189.333" stroke="url(#paint0_linear_1253_44687)" stroke-width="2.5" stroke-linecap="round" stroke-linejoin="round"/>
<path d="M428.667 236.667C431.428 236.667 433.667 234.428 433.667 231.667C433.667 228.905 431.428 226.667 428.667 226.667C425.905 226.667 423.667 228.905 423.667 231.667C423.667 234.428 425.905 236.667 428.667 236.667Z" fill="#64B283"/>
<defs>
<linearGradient id="paint0_linear_1253_44687" x1="317.886" y1="86.0002" x2="317.886" y2="336" gradientUnits="userSpaceOnUse">
<stop stop-color="#93C437"/>
<stop offset="1" stop-color="#279BE8"/>
</linearGradient>
</defs>
</svg>
