<svg width="634" height="400" viewBox="0 0 634 400" fill="none" xmlns="http://www.w3.org/2000/svg">
<path d="M382.336 166.739V199.048M432.595 201.986L399.307 139.325C391.8 125.618 372.219 125.618 365.039 139.325L319.675 222.546C312.495 235.6 321.96 251.592 336.972 251.592H388.047M388.047 251.592H431.29C438.47 251.592 444.344 245.718 444.344 238.538C444.344 231.358 438.47 225.483 431.29 225.483C406.256 225.483 394.023 238.688 388.047 251.592ZM388.047 251.592C382.336 263.921 382.336 275.976 382.336 275.976M382.115 108.883V74.3141C382.099 73.1628 381.75 72.0415 381.111 71.0893C380.472 70.1371 379.571 69.3959 378.52 68.9575C377.469 68.5191 376.314 68.4028 375.198 68.623C374.083 68.8433 373.056 69.3904 372.244 70.1965L289.212 150.785H242.76C236.6 150.785 230.693 153.264 226.337 157.676C221.981 162.089 219.534 168.074 219.534 174.314V244.902C219.534 251.143 221.981 257.128 226.337 261.54C230.693 265.953 236.6 268.432 242.76 268.432H289.212L372.244 349.02C373.056 349.826 374.083 350.373 375.198 350.594C376.314 350.814 377.469 350.697 378.52 350.259C379.571 349.821 380.472 349.079 381.111 348.127C381.75 347.175 382.099 346.054 382.115 344.902V277.567" stroke="url(#paint0_linear_1254_44944)" stroke-width="2.5" stroke-linecap="round" stroke-linejoin="round"/>
<path d="M382.711 223.271C386.393 223.271 389.378 220.286 389.378 216.604C389.378 212.923 386.393 209.938 382.711 209.938C379.03 209.938 376.045 212.923 376.045 216.604C376.045 220.286 379.03 223.271 382.711 223.271Z" fill="url(#paint1_linear_1254_44944)"/>
<defs>
<linearGradient id="paint0_linear_1254_44944" x1="331.939" y1="68.5144" x2="331.939" y2="350.702" gradientUnits="userSpaceOnUse">
<stop stop-color="#279BE8"/>
<stop offset="1" stop-color="#875AE0"/>
</linearGradient>
<linearGradient id="paint1_linear_1254_44944" x1="382.711" y1="209.938" x2="382.711" y2="223.271" gradientUnits="userSpaceOnUse">
<stop stop-color="#279BE8"/>
<stop offset="1" stop-color="#875AE0"/>
</linearGradient>
</defs>
</svg>
