<svg width="1300" height="674" viewBox="0 0 1300 674" fill="none" xmlns="http://www.w3.org/2000/svg">
<rect width="1300" height="674" rx="24" fill="#262626"/>
<path d="M43.6307 58L40.3011 46.3636H42.9886L44.9148 54.4489H45.0114L47.1364 46.3636H49.4375L51.5568 54.4659H51.6591L53.5852 46.3636H56.2727L52.9432 58H50.5455L48.3295 50.392H48.2386L46.0284 58H43.6307ZM58.2295 58V46.3636H60.6897V51.1648H65.684V46.3636H68.1386V58H65.684V53.1932H60.6897V58H58.2295ZM73.2672 46.3636V58H70.807V46.3636H73.2672ZM75.4882 48.392V46.3636H85.045V48.392H81.4825V58H79.0507V48.392H75.4882ZM87.2589 58V46.3636H95.0998V48.392H89.7191V51.1648H94.6964V53.1932H89.7191V55.9716H95.1225V58H87.2589ZM103.088 51.2216V53.142H97.781V51.2216H103.088ZM107.841 58H105.205L109.222 46.3636H112.393L116.404 58H113.768L110.853 49.0227H110.762L107.841 58ZM107.677 53.4261H113.904V55.3466H107.677V53.4261ZM118.444 58V46.3636H120.905V55.9716H125.893V58H118.444ZM128.163 58V46.3636H132.754C133.636 46.3636 134.388 46.5322 135.009 46.8693C135.63 47.2027 136.104 47.6667 136.43 48.2614C136.759 48.8523 136.924 49.5341 136.924 50.3068C136.924 51.0795 136.757 51.7614 136.424 52.3523C136.091 52.9432 135.608 53.4034 134.975 53.733C134.346 54.0625 133.585 54.2273 132.691 54.2273H129.765V52.2557H132.293C132.767 52.2557 133.157 52.1742 133.464 52.0114C133.774 51.8447 134.005 51.6155 134.157 51.3239C134.312 51.0284 134.39 50.6894 134.39 50.3068C134.39 49.9205 134.312 49.5833 134.157 49.2955C134.005 49.0038 133.774 48.7784 133.464 48.6193C133.153 48.4564 132.759 48.375 132.282 48.375H130.623V58H128.163ZM139.162 58V46.3636H141.622V51.1648H146.617V46.3636H149.071V58H146.617V53.1932H141.622V58H139.162ZM153.745 58H151.109L155.126 46.3636H158.296L162.308 58H159.671L156.757 49.0227H156.666L153.745 58ZM153.58 53.4261H159.808V55.3466H153.58V53.4261Z" fill="white"/>
<rect x="126.5" y="84.5" width="59" height="59" rx="29.5" stroke="white" stroke-opacity="0.2"/>
<rect x="136" y="164" width="40" height="32" rx="4" fill="white"/>
<rect x="136.5" y="164.5" width="39" height="31" rx="3.5" stroke="white" stroke-opacity="0.2"/>
<path d="M148.8 185.24C146.528 185.24 144.8 183.384 144.8 179.368C144.8 175.24 146.544 173.56 148.8 173.56C151.056 173.56 152.8 175.24 152.8 179.368C152.8 183.384 151.072 185.24 148.8 185.24ZM148.8 183.96C150.432 183.96 151.232 182.504 151.232 179.368C151.232 176.248 150.432 174.84 148.8 174.84C147.168 174.84 146.368 176.248 146.368 179.368C146.368 182.504 147.168 183.96 148.8 183.96ZM159.61 176.264C159.61 178.072 158.266 178.968 156.874 178.968C155.482 178.968 154.154 178.072 154.154 176.264C154.154 174.456 155.482 173.56 156.874 173.56C158.266 173.56 159.61 174.456 159.61 176.264ZM155.45 176.264C155.45 177.416 156.09 177.848 156.874 177.848C157.658 177.848 158.33 177.416 158.33 176.264C158.33 175.112 157.658 174.68 156.874 174.68C156.09 174.68 155.45 175.112 155.45 176.264ZM164.09 173.8L157.978 185H156.442L162.554 173.8H164.09ZM166.49 182.536C166.49 184.344 165.146 185.24 163.754 185.24C162.362 185.24 161.034 184.344 161.034 182.536C161.034 180.728 162.362 179.832 163.754 179.832C165.146 179.832 166.49 180.728 166.49 182.536ZM162.33 182.536C162.33 183.688 162.97 184.12 163.754 184.12C164.538 184.12 165.21 183.688 165.21 182.536C165.21 181.384 164.538 180.952 163.754 180.952C162.97 180.952 162.33 181.384 162.33 182.536Z" fill="black" fill-opacity="0.95"/>
<rect x="202" y="84" width="60" height="60" rx="30" fill="white" fill-opacity="0.05"/>
<rect x="202.5" y="84.5" width="59" height="59" rx="29.5" stroke="white" stroke-opacity="0.2"/>
<rect x="212" y="164" width="40" height="32" rx="4" fill="white"/>
<path d="M220.816 182.28H222.448C222.656 183.192 223.456 183.944 224.816 183.944C226.192 183.944 227.248 182.984 227.248 181.304C227.248 179.656 226.288 178.76 224.848 178.76C224.08 178.76 223.216 179.064 222.608 179.784H221.248L221.488 173.8H228.368V175.096H222.88L222.752 178.376C223.376 177.88 224.16 177.56 225.2 177.56C227.152 177.56 228.832 178.856 228.832 181.368C228.832 183.448 227.36 185.24 224.8 185.24C222.496 185.24 221.072 183.8 220.816 182.28ZM235.61 176.264C235.61 178.072 234.266 178.968 232.874 178.968C231.482 178.968 230.154 178.072 230.154 176.264C230.154 174.456 231.482 173.56 232.874 173.56C234.266 173.56 235.61 174.456 235.61 176.264ZM231.45 176.264C231.45 177.416 232.09 177.848 232.874 177.848C233.658 177.848 234.33 177.416 234.33 176.264C234.33 175.112 233.658 174.68 232.874 174.68C232.09 174.68 231.45 175.112 231.45 176.264ZM240.09 173.8L233.978 185H232.442L238.554 173.8H240.09ZM242.49 182.536C242.49 184.344 241.146 185.24 239.754 185.24C238.362 185.24 237.034 184.344 237.034 182.536C237.034 180.728 238.362 179.832 239.754 179.832C241.146 179.832 242.49 180.728 242.49 182.536ZM238.33 182.536C238.33 183.688 238.97 184.12 239.754 184.12C240.538 184.12 241.21 183.688 241.21 182.536C241.21 181.384 240.538 180.952 239.754 180.952C238.97 180.952 238.33 181.384 238.33 182.536Z" fill="black" fill-opacity="0.95"/>
<rect x="278" y="84" width="60" height="60" rx="30" fill="white" fill-opacity="0.07"/>
<rect x="278.5" y="84.5" width="59" height="59" rx="29.5" stroke="white" stroke-opacity="0.2"/>
<rect x="288" y="164" width="40" height="32" rx="4" fill="white"/>
<path d="M304.32 175.176L299.744 185H298L302.688 175.176H297.2V173.8H304.32V175.176ZM311.61 176.264C311.61 178.072 310.266 178.968 308.874 178.968C307.482 178.968 306.154 178.072 306.154 176.264C306.154 174.456 307.482 173.56 308.874 173.56C310.266 173.56 311.61 174.456 311.61 176.264ZM307.45 176.264C307.45 177.416 308.09 177.848 308.874 177.848C309.658 177.848 310.33 177.416 310.33 176.264C310.33 175.112 309.658 174.68 308.874 174.68C308.09 174.68 307.45 175.112 307.45 176.264ZM316.09 173.8L309.978 185H308.442L314.554 173.8H316.09ZM318.49 182.536C318.49 184.344 317.146 185.24 315.754 185.24C314.362 185.24 313.034 184.344 313.034 182.536C313.034 180.728 314.362 179.832 315.754 179.832C317.146 179.832 318.49 180.728 318.49 182.536ZM314.33 182.536C314.33 183.688 314.97 184.12 315.754 184.12C316.538 184.12 317.21 183.688 317.21 182.536C317.21 181.384 316.538 180.952 315.754 180.952C314.97 180.952 314.33 181.384 314.33 182.536Z" fill="black" fill-opacity="0.95"/>
<rect x="354" y="84" width="60" height="60" rx="30" fill="white" fill-opacity="0.11"/>
<rect x="354.5" y="84.5" width="59" height="59" rx="29.5" stroke="white" stroke-opacity="0.2"/>
<rect x="359.5" y="164" width="49" height="32" rx="4" fill="white"/>
<path d="M373.66 185H372.14V175.4L369.628 176.696V175.112L372.156 173.8H373.66V185ZM383.254 185H381.734V175.4L379.222 176.696V175.112L381.75 173.8H383.254V185ZM392.704 176.264C392.704 178.072 391.36 178.968 389.968 178.968C388.576 178.968 387.248 178.072 387.248 176.264C387.248 174.456 388.576 173.56 389.968 173.56C391.36 173.56 392.704 174.456 392.704 176.264ZM388.544 176.264C388.544 177.416 389.184 177.848 389.968 177.848C390.752 177.848 391.424 177.416 391.424 176.264C391.424 175.112 390.752 174.68 389.968 174.68C389.184 174.68 388.544 175.112 388.544 176.264ZM397.184 173.8L391.072 185H389.536L395.648 173.8H397.184ZM399.584 182.536C399.584 184.344 398.24 185.24 396.848 185.24C395.456 185.24 394.128 184.344 394.128 182.536C394.128 180.728 395.456 179.832 396.848 179.832C398.24 179.832 399.584 180.728 399.584 182.536ZM395.424 182.536C395.424 183.688 396.064 184.12 396.848 184.12C397.632 184.12 398.304 183.688 398.304 182.536C398.304 181.384 397.632 180.952 396.848 180.952C396.064 180.952 395.424 181.384 395.424 182.536Z" fill="black" fill-opacity="0.95"/>
<rect x="430" y="84" width="60" height="60" rx="30" fill="white" fill-opacity="0.2"/>
<rect x="430.5" y="84.5" width="59" height="59" rx="29.5" stroke="white" stroke-opacity="0.2"/>
<rect x="435.5" y="164" width="49" height="32" rx="4" fill="white"/>
<path d="M446.076 176.728H444.46C444.7 174.936 446.188 173.56 448.396 173.56C450.476 173.56 452.044 174.776 452.044 176.744C452.044 178.264 451.388 179.24 449.372 181.16L446.812 183.592H451.996V185H444.732V183.592L448.38 180.088C449.9 178.632 450.476 177.848 450.476 176.76C450.476 175.624 449.692 174.856 448.364 174.856C447.1 174.856 446.204 175.56 446.076 176.728ZM457.894 185.24C455.622 185.24 453.894 183.384 453.894 179.368C453.894 175.24 455.638 173.56 457.894 173.56C460.15 173.56 461.894 175.24 461.894 179.368C461.894 183.384 460.166 185.24 457.894 185.24ZM457.894 183.96C459.526 183.96 460.326 182.504 460.326 179.368C460.326 176.248 459.526 174.84 457.894 174.84C456.262 174.84 455.462 176.248 455.462 179.368C455.462 182.504 456.262 183.96 457.894 183.96ZM468.704 176.264C468.704 178.072 467.36 178.968 465.968 178.968C464.576 178.968 463.248 178.072 463.248 176.264C463.248 174.456 464.576 173.56 465.968 173.56C467.36 173.56 468.704 174.456 468.704 176.264ZM464.544 176.264C464.544 177.416 465.184 177.848 465.968 177.848C466.752 177.848 467.424 177.416 467.424 176.264C467.424 175.112 466.752 174.68 465.968 174.68C465.184 174.68 464.544 175.112 464.544 176.264ZM473.184 173.8L467.072 185H465.536L471.648 173.8H473.184ZM475.584 182.536C475.584 184.344 474.24 185.24 472.848 185.24C471.456 185.24 470.128 184.344 470.128 182.536C470.128 180.728 471.456 179.832 472.848 179.832C474.24 179.832 475.584 180.728 475.584 182.536ZM471.424 182.536C471.424 183.688 472.064 184.12 472.848 184.12C473.632 184.12 474.304 183.688 474.304 182.536C474.304 181.384 473.632 180.952 472.848 180.952C472.064 180.952 471.424 181.384 471.424 182.536Z" fill="black" fill-opacity="0.95"/>
<rect x="506" y="84" width="60" height="60" rx="30" fill="white" fill-opacity="0.3"/>
<rect x="506.5" y="84.5" width="59" height="59" rx="29.5" stroke="white" stroke-opacity="0.2"/>
<rect x="511.5" y="164" width="49" height="32" rx="4" fill="white"/>
<path d="M521.932 176.44H520.316C520.588 174.696 522.14 173.56 524.268 173.56C526.14 173.56 527.9 174.488 527.9 176.488C527.9 177.704 527.052 178.68 525.884 179.048C527.148 179.32 528.284 180.264 528.284 181.944C528.284 183.864 526.716 185.224 524.316 185.224C521.964 185.224 520.54 184.008 520.284 182.216H521.916C522.172 183.336 522.924 183.944 524.284 183.944C525.82 183.944 526.716 183.112 526.716 181.912C526.716 180.376 525.532 179.8 524.508 179.8H523.58V178.472H524.476C525.324 178.472 526.332 177.896 526.332 176.6C526.332 175.4 525.276 174.84 524.188 174.84C522.94 174.84 522.092 175.48 521.932 176.44ZM533.894 185.24C531.622 185.24 529.894 183.384 529.894 179.368C529.894 175.24 531.638 173.56 533.894 173.56C536.15 173.56 537.894 175.24 537.894 179.368C537.894 183.384 536.166 185.24 533.894 185.24ZM533.894 183.96C535.526 183.96 536.326 182.504 536.326 179.368C536.326 176.248 535.526 174.84 533.894 174.84C532.262 174.84 531.462 176.248 531.462 179.368C531.462 182.504 532.262 183.96 533.894 183.96ZM544.704 176.264C544.704 178.072 543.36 178.968 541.968 178.968C540.576 178.968 539.248 178.072 539.248 176.264C539.248 174.456 540.576 173.56 541.968 173.56C543.36 173.56 544.704 174.456 544.704 176.264ZM540.544 176.264C540.544 177.416 541.184 177.848 541.968 177.848C542.752 177.848 543.424 177.416 543.424 176.264C543.424 175.112 542.752 174.68 541.968 174.68C541.184 174.68 540.544 175.112 540.544 176.264ZM549.184 173.8L543.072 185H541.536L547.648 173.8H549.184ZM551.584 182.536C551.584 184.344 550.24 185.24 548.848 185.24C547.456 185.24 546.128 184.344 546.128 182.536C546.128 180.728 547.456 179.832 548.848 179.832C550.24 179.832 551.584 180.728 551.584 182.536ZM547.424 182.536C547.424 183.688 548.064 184.12 548.848 184.12C549.632 184.12 550.304 183.688 550.304 182.536C550.304 181.384 549.632 180.952 548.848 180.952C548.064 180.952 547.424 181.384 547.424 182.536Z" fill="black" fill-opacity="0.95"/>
<rect x="582" y="84" width="60" height="60" rx="30" fill="white" fill-opacity="0.4"/>
<rect x="582.5" y="84.5" width="59" height="59" rx="29.5" stroke="white" stroke-opacity="0.2"/>
<rect x="587.5" y="164" width="49" height="32" rx="4" fill="white"/>
<path d="M601.004 173.8H602.604V181.576H604.412V182.888H602.604V185H601.116V182.888H596.204V181.464L601.004 173.8ZM597.916 181.576H601.116V176.28L597.916 181.576ZM609.894 185.24C607.622 185.24 605.894 183.384 605.894 179.368C605.894 175.24 607.638 173.56 609.894 173.56C612.15 173.56 613.894 175.24 613.894 179.368C613.894 183.384 612.166 185.24 609.894 185.24ZM609.894 183.96C611.526 183.96 612.326 182.504 612.326 179.368C612.326 176.248 611.526 174.84 609.894 174.84C608.262 174.84 607.462 176.248 607.462 179.368C607.462 182.504 608.262 183.96 609.894 183.96ZM620.704 176.264C620.704 178.072 619.36 178.968 617.968 178.968C616.576 178.968 615.248 178.072 615.248 176.264C615.248 174.456 616.576 173.56 617.968 173.56C619.36 173.56 620.704 174.456 620.704 176.264ZM616.544 176.264C616.544 177.416 617.184 177.848 617.968 177.848C618.752 177.848 619.424 177.416 619.424 176.264C619.424 175.112 618.752 174.68 617.968 174.68C617.184 174.68 616.544 175.112 616.544 176.264ZM625.184 173.8L619.072 185H617.536L623.648 173.8H625.184ZM627.584 182.536C627.584 184.344 626.24 185.24 624.848 185.24C623.456 185.24 622.128 184.344 622.128 182.536C622.128 180.728 623.456 179.832 624.848 179.832C626.24 179.832 627.584 180.728 627.584 182.536ZM623.424 182.536C623.424 183.688 624.064 184.12 624.848 184.12C625.632 184.12 626.304 183.688 626.304 182.536C626.304 181.384 625.632 180.952 624.848 180.952C624.064 180.952 623.424 181.384 623.424 182.536Z" fill="black" fill-opacity="0.95"/>
<rect x="658" y="84" width="60" height="60" rx="30" fill="white" fill-opacity="0.5"/>
<rect x="658.5" y="84.5" width="59" height="59" rx="29.5" stroke="white" stroke-opacity="0.2"/>
<rect x="663.5" y="164" width="49" height="32" rx="4" fill="white"/>
<path d="M672.316 182.28H673.948C674.156 183.192 674.956 183.944 676.316 183.944C677.692 183.944 678.748 182.984 678.748 181.304C678.748 179.656 677.788 178.76 676.348 178.76C675.58 178.76 674.716 179.064 674.108 179.784H672.748L672.988 173.8H679.868V175.096H674.38L674.252 178.376C674.876 177.88 675.66 177.56 676.7 177.56C678.652 177.56 680.332 178.856 680.332 181.368C680.332 183.448 678.86 185.24 676.3 185.24C673.996 185.24 672.572 183.8 672.316 182.28ZM685.894 185.24C683.622 185.24 681.894 183.384 681.894 179.368C681.894 175.24 683.638 173.56 685.894 173.56C688.15 173.56 689.894 175.24 689.894 179.368C689.894 183.384 688.166 185.24 685.894 185.24ZM685.894 183.96C687.526 183.96 688.326 182.504 688.326 179.368C688.326 176.248 687.526 174.84 685.894 174.84C684.262 174.84 683.462 176.248 683.462 179.368C683.462 182.504 684.262 183.96 685.894 183.96ZM696.704 176.264C696.704 178.072 695.36 178.968 693.968 178.968C692.576 178.968 691.248 178.072 691.248 176.264C691.248 174.456 692.576 173.56 693.968 173.56C695.36 173.56 696.704 174.456 696.704 176.264ZM692.544 176.264C692.544 177.416 693.184 177.848 693.968 177.848C694.752 177.848 695.424 177.416 695.424 176.264C695.424 175.112 694.752 174.68 693.968 174.68C693.184 174.68 692.544 175.112 692.544 176.264ZM701.184 173.8L695.072 185H693.536L699.648 173.8H701.184ZM703.584 182.536C703.584 184.344 702.24 185.24 700.848 185.24C699.456 185.24 698.128 184.344 698.128 182.536C698.128 180.728 699.456 179.832 700.848 179.832C702.24 179.832 703.584 180.728 703.584 182.536ZM699.424 182.536C699.424 183.688 700.064 184.12 700.848 184.12C701.632 184.12 702.304 183.688 702.304 182.536C702.304 181.384 701.632 180.952 700.848 180.952C700.064 180.952 699.424 181.384 699.424 182.536Z" fill="black" fill-opacity="0.95"/>
<rect x="734" y="84" width="60" height="60" rx="30" fill="white" fill-opacity="0.6"/>
<rect x="734.5" y="84.5" width="59" height="59" rx="29.5" stroke="white" stroke-opacity="0.2"/>
<rect x="739.5" y="164" width="49" height="32" rx="4" fill="white"/>
<path d="M756.076 175.928H754.38C754.188 175.256 753.596 174.808 752.684 174.808C751.42 174.808 750.316 175.832 750.14 179.128C750.812 178.056 751.9 177.672 752.812 177.672C755.004 177.672 756.3 179.24 756.3 181.432C756.3 184.008 754.396 185.24 752.556 185.24C749.964 185.24 748.62 183.336 748.62 179.848C748.62 174.824 750.636 173.56 752.7 173.56C754.396 173.56 755.724 174.472 756.076 175.928ZM750.3 181.384C750.3 183.048 751.276 183.96 752.556 183.96C753.772 183.96 754.748 183.08 754.748 181.512C754.748 179.928 753.884 178.952 752.54 178.952C751.036 178.952 750.3 180.088 750.3 181.384ZM761.894 185.24C759.622 185.24 757.894 183.384 757.894 179.368C757.894 175.24 759.638 173.56 761.894 173.56C764.15 173.56 765.894 175.24 765.894 179.368C765.894 183.384 764.166 185.24 761.894 185.24ZM761.894 183.96C763.526 183.96 764.326 182.504 764.326 179.368C764.326 176.248 763.526 174.84 761.894 174.84C760.262 174.84 759.462 176.248 759.462 179.368C759.462 182.504 760.262 183.96 761.894 183.96ZM772.704 176.264C772.704 178.072 771.36 178.968 769.968 178.968C768.576 178.968 767.248 178.072 767.248 176.264C767.248 174.456 768.576 173.56 769.968 173.56C771.36 173.56 772.704 174.456 772.704 176.264ZM768.544 176.264C768.544 177.416 769.184 177.848 769.968 177.848C770.752 177.848 771.424 177.416 771.424 176.264C771.424 175.112 770.752 174.68 769.968 174.68C769.184 174.68 768.544 175.112 768.544 176.264ZM777.184 173.8L771.072 185H769.536L775.648 173.8H777.184ZM779.584 182.536C779.584 184.344 778.24 185.24 776.848 185.24C775.456 185.24 774.128 184.344 774.128 182.536C774.128 180.728 775.456 179.832 776.848 179.832C778.24 179.832 779.584 180.728 779.584 182.536ZM775.424 182.536C775.424 183.688 776.064 184.12 776.848 184.12C777.632 184.12 778.304 183.688 778.304 182.536C778.304 181.384 777.632 180.952 776.848 180.952C776.064 180.952 775.424 181.384 775.424 182.536Z" fill="black" fill-opacity="0.95"/>
<rect x="810" y="84" width="60" height="60" rx="30" fill="white" fill-opacity="0.7"/>
<rect x="810.5" y="84.5" width="59" height="59" rx="29.5" stroke="white" stroke-opacity="0.2"/>
<rect x="815.5" y="164" width="49" height="32" rx="4" fill="white"/>
<path d="M831.82 175.176L827.244 185H825.5L830.188 175.176H824.7V173.8H831.82V175.176ZM837.894 185.24C835.622 185.24 833.894 183.384 833.894 179.368C833.894 175.24 835.638 173.56 837.894 173.56C840.15 173.56 841.894 175.24 841.894 179.368C841.894 183.384 840.166 185.24 837.894 185.24ZM837.894 183.96C839.526 183.96 840.326 182.504 840.326 179.368C840.326 176.248 839.526 174.84 837.894 174.84C836.262 174.84 835.462 176.248 835.462 179.368C835.462 182.504 836.262 183.96 837.894 183.96ZM848.704 176.264C848.704 178.072 847.36 178.968 845.968 178.968C844.576 178.968 843.248 178.072 843.248 176.264C843.248 174.456 844.576 173.56 845.968 173.56C847.36 173.56 848.704 174.456 848.704 176.264ZM844.544 176.264C844.544 177.416 845.184 177.848 845.968 177.848C846.752 177.848 847.424 177.416 847.424 176.264C847.424 175.112 846.752 174.68 845.968 174.68C845.184 174.68 844.544 175.112 844.544 176.264ZM853.184 173.8L847.072 185H845.536L851.648 173.8H853.184ZM855.584 182.536C855.584 184.344 854.24 185.24 852.848 185.24C851.456 185.24 850.128 184.344 850.128 182.536C850.128 180.728 851.456 179.832 852.848 179.832C854.24 179.832 855.584 180.728 855.584 182.536ZM851.424 182.536C851.424 183.688 852.064 184.12 852.848 184.12C853.632 184.12 854.304 183.688 854.304 182.536C854.304 181.384 853.632 180.952 852.848 180.952C852.064 180.952 851.424 181.384 851.424 182.536Z" fill="black" fill-opacity="0.95"/>
<rect x="886" y="84" width="60" height="60" rx="30" fill="white" fill-opacity="0.8"/>
<rect x="886.5" y="84.5" width="59" height="59" rx="29.5" stroke="white" stroke-opacity="0.2"/>
<rect x="891.5" y="164" width="49" height="32" rx="4" fill="white"/>
<path d="M907.964 176.44C907.964 177.72 907.004 178.568 906.124 179.032C907.18 179.496 908.38 180.392 908.38 181.976C908.38 183.88 906.748 185.24 904.3 185.24C901.852 185.24 900.22 183.912 900.22 182.088C900.22 180.376 901.404 179.512 902.412 179.128C901.564 178.728 900.636 177.976 900.636 176.552C900.636 174.488 902.38 173.56 904.3 173.56C906.22 173.56 907.964 174.408 907.964 176.44ZM906.748 181.976C906.748 180.2 905.212 179.88 903.964 179.608C903.036 179.88 901.852 180.568 901.852 181.976C901.852 183.064 902.636 183.976 904.3 183.976C905.932 183.976 906.748 183.144 906.748 181.976ZM902.14 176.472C902.14 178.168 903.66 178.504 904.62 178.632C905.436 178.312 906.428 177.656 906.428 176.472C906.428 175.416 905.468 174.76 904.3 174.76C903.132 174.76 902.14 175.32 902.14 176.472ZM913.894 185.24C911.622 185.24 909.894 183.384 909.894 179.368C909.894 175.24 911.638 173.56 913.894 173.56C916.15 173.56 917.894 175.24 917.894 179.368C917.894 183.384 916.166 185.24 913.894 185.24ZM913.894 183.96C915.526 183.96 916.326 182.504 916.326 179.368C916.326 176.248 915.526 174.84 913.894 174.84C912.262 174.84 911.462 176.248 911.462 179.368C911.462 182.504 912.262 183.96 913.894 183.96ZM924.704 176.264C924.704 178.072 923.36 178.968 921.968 178.968C920.576 178.968 919.248 178.072 919.248 176.264C919.248 174.456 920.576 173.56 921.968 173.56C923.36 173.56 924.704 174.456 924.704 176.264ZM920.544 176.264C920.544 177.416 921.184 177.848 921.968 177.848C922.752 177.848 923.424 177.416 923.424 176.264C923.424 175.112 922.752 174.68 921.968 174.68C921.184 174.68 920.544 175.112 920.544 176.264ZM929.184 173.8L923.072 185H921.536L927.648 173.8H929.184ZM931.584 182.536C931.584 184.344 930.24 185.24 928.848 185.24C927.456 185.24 926.128 184.344 926.128 182.536C926.128 180.728 927.456 179.832 928.848 179.832C930.24 179.832 931.584 180.728 931.584 182.536ZM927.424 182.536C927.424 183.688 928.064 184.12 928.848 184.12C929.632 184.12 930.304 183.688 930.304 182.536C930.304 181.384 929.632 180.952 928.848 180.952C928.064 180.952 927.424 181.384 927.424 182.536Z" fill="black" fill-opacity="0.95"/>
<rect x="962" y="84" width="60" height="60" rx="30" fill="white" fill-opacity="0.9"/>
<rect x="962.5" y="84.5" width="59" height="59" rx="29.5" stroke="white" stroke-opacity="0.2"/>
<rect x="967.5" y="164" width="49" height="32" rx="4" fill="white"/>
<path d="M976.78 182.84H978.476C978.684 183.56 979.292 183.992 980.236 183.992C981.596 183.992 982.604 182.984 982.764 179.688C982.092 180.76 981.004 181.128 980.108 181.128C978.06 181.128 976.62 179.72 976.62 177.368C976.62 175.048 978.236 173.56 980.364 173.56C982.956 173.56 984.3 175.352 984.3 178.952C984.3 183.864 982.396 185.24 980.172 185.24C978.444 185.24 977.148 184.296 976.78 182.84ZM982.62 177.416C982.62 175.752 981.644 174.84 980.364 174.84C979.132 174.84 978.172 175.736 978.172 177.288C978.172 178.968 979.132 179.848 980.38 179.848C981.884 179.848 982.62 178.712 982.62 177.416ZM989.894 185.24C987.622 185.24 985.894 183.384 985.894 179.368C985.894 175.24 987.638 173.56 989.894 173.56C992.15 173.56 993.894 175.24 993.894 179.368C993.894 183.384 992.166 185.24 989.894 185.24ZM989.894 183.96C991.526 183.96 992.326 182.504 992.326 179.368C992.326 176.248 991.526 174.84 989.894 174.84C988.262 174.84 987.462 176.248 987.462 179.368C987.462 182.504 988.262 183.96 989.894 183.96ZM1000.7 176.264C1000.7 178.072 999.36 178.968 997.968 178.968C996.576 178.968 995.248 178.072 995.248 176.264C995.248 174.456 996.576 173.56 997.968 173.56C999.36 173.56 1000.7 174.456 1000.7 176.264ZM996.544 176.264C996.544 177.416 997.184 177.848 997.968 177.848C998.752 177.848 999.424 177.416 999.424 176.264C999.424 175.112 998.752 174.68 997.968 174.68C997.184 174.68 996.544 175.112 996.544 176.264ZM1005.18 173.8L999.072 185H997.536L1003.65 173.8H1005.18ZM1007.58 182.536C1007.58 184.344 1006.24 185.24 1004.85 185.24C1003.46 185.24 1002.13 184.344 1002.13 182.536C1002.13 180.728 1003.46 179.832 1004.85 179.832C1006.24 179.832 1007.58 180.728 1007.58 182.536ZM1003.42 182.536C1003.42 183.688 1004.06 184.12 1004.85 184.12C1005.63 184.12 1006.3 183.688 1006.3 182.536C1006.3 181.384 1005.63 180.952 1004.85 180.952C1004.06 180.952 1003.42 181.384 1003.42 182.536Z" fill="black" fill-opacity="0.95"/>
<rect x="1038" y="84" width="60" height="60" rx="30" fill="white" fill-opacity="0.95"/>
<rect x="1038.5" y="84.5" width="59" height="59" rx="29.5" stroke="white" stroke-opacity="0.2"/>
<rect x="1043.5" y="164" width="49" height="32" rx="4" fill="white"/>
<path d="M1052.78 182.84H1054.48C1054.68 183.56 1055.29 183.992 1056.24 183.992C1057.6 183.992 1058.6 182.984 1058.76 179.688C1058.09 180.76 1057 181.128 1056.11 181.128C1054.06 181.128 1052.62 179.72 1052.62 177.368C1052.62 175.048 1054.24 173.56 1056.36 173.56C1058.96 173.56 1060.3 175.352 1060.3 178.952C1060.3 183.864 1058.4 185.24 1056.17 185.24C1054.44 185.24 1053.15 184.296 1052.78 182.84ZM1058.62 177.416C1058.62 175.752 1057.64 174.84 1056.36 174.84C1055.13 174.84 1054.17 175.736 1054.17 177.288C1054.17 178.968 1055.13 179.848 1056.38 179.848C1057.88 179.848 1058.62 178.712 1058.62 177.416ZM1061.91 182.28H1063.54C1063.75 183.192 1064.55 183.944 1065.91 183.944C1067.29 183.944 1068.34 182.984 1068.34 181.304C1068.34 179.656 1067.38 178.76 1065.94 178.76C1065.17 178.76 1064.31 179.064 1063.7 179.784H1062.34L1062.58 173.8H1069.46V175.096H1063.97L1063.85 178.376C1064.47 177.88 1065.25 177.56 1066.29 177.56C1068.25 177.56 1069.93 178.856 1069.93 181.368C1069.93 183.448 1068.45 185.24 1065.89 185.24C1063.59 185.24 1062.17 183.8 1061.91 182.28ZM1076.7 176.264C1076.7 178.072 1075.36 178.968 1073.97 178.968C1072.58 178.968 1071.25 178.072 1071.25 176.264C1071.25 174.456 1072.58 173.56 1073.97 173.56C1075.36 173.56 1076.7 174.456 1076.7 176.264ZM1072.54 176.264C1072.54 177.416 1073.18 177.848 1073.97 177.848C1074.75 177.848 1075.42 177.416 1075.42 176.264C1075.42 175.112 1074.75 174.68 1073.97 174.68C1073.18 174.68 1072.54 175.112 1072.54 176.264ZM1081.18 173.8L1075.07 185H1073.54L1079.65 173.8H1081.18ZM1083.58 182.536C1083.58 184.344 1082.24 185.24 1080.85 185.24C1079.46 185.24 1078.13 184.344 1078.13 182.536C1078.13 180.728 1079.46 179.832 1080.85 179.832C1082.24 179.832 1083.58 180.728 1083.58 182.536ZM1079.42 182.536C1079.42 183.688 1080.06 184.12 1080.85 184.12C1081.63 184.12 1082.3 183.688 1082.3 182.536C1082.3 181.384 1081.63 180.952 1080.85 180.952C1080.06 180.952 1079.42 181.384 1079.42 182.536Z" fill="black" fill-opacity="0.95"/>
<rect x="1114" y="84" width="60" height="60" rx="30" fill="white"/>
<rect x="1114.5" y="84.5" width="59" height="59" rx="29.5" stroke="white" stroke-opacity="0.2"/>
<rect x="1114.5" y="164" width="59" height="32" rx="4" fill="white"/>
<path d="M1128.66 185H1127.14V175.4L1124.63 176.696V175.112L1127.16 173.8H1128.66V185ZM1136.89 185.24C1134.62 185.24 1132.89 183.384 1132.89 179.368C1132.89 175.24 1134.64 173.56 1136.89 173.56C1139.15 173.56 1140.89 175.24 1140.89 179.368C1140.89 183.384 1139.17 185.24 1136.89 185.24ZM1136.89 183.96C1138.53 183.96 1139.33 182.504 1139.33 179.368C1139.33 176.248 1138.53 174.84 1136.89 174.84C1135.26 174.84 1134.46 176.248 1134.46 179.368C1134.46 182.504 1135.26 183.96 1136.89 183.96ZM1146.49 185.24C1144.22 185.24 1142.49 183.384 1142.49 179.368C1142.49 175.24 1144.23 173.56 1146.49 173.56C1148.74 173.56 1150.49 175.24 1150.49 179.368C1150.49 183.384 1148.76 185.24 1146.49 185.24ZM1146.49 183.96C1148.12 183.96 1148.92 182.504 1148.92 179.368C1148.92 176.248 1148.12 174.84 1146.49 174.84C1144.86 174.84 1144.06 176.248 1144.06 179.368C1144.06 182.504 1144.86 183.96 1146.49 183.96ZM1157.3 176.264C1157.3 178.072 1155.95 178.968 1154.56 178.968C1153.17 178.968 1151.84 178.072 1151.84 176.264C1151.84 174.456 1153.17 173.56 1154.56 173.56C1155.95 173.56 1157.3 174.456 1157.3 176.264ZM1153.14 176.264C1153.14 177.416 1153.78 177.848 1154.56 177.848C1155.35 177.848 1156.02 177.416 1156.02 176.264C1156.02 175.112 1155.35 174.68 1154.56 174.68C1153.78 174.68 1153.14 175.112 1153.14 176.264ZM1161.78 173.8L1155.67 185H1154.13L1160.24 173.8H1161.78ZM1164.18 182.536C1164.18 184.344 1162.83 185.24 1161.44 185.24C1160.05 185.24 1158.72 184.344 1158.72 182.536C1158.72 180.728 1160.05 179.832 1161.44 179.832C1162.83 179.832 1164.18 180.728 1164.18 182.536ZM1160.02 182.536C1160.02 183.688 1160.66 184.12 1161.44 184.12C1162.23 184.12 1162.9 183.688 1162.9 182.536C1162.9 181.384 1162.23 180.952 1161.44 180.952C1160.66 180.952 1160.02 181.384 1160.02 182.536Z" fill="black" fill-opacity="0.95"/>
<path d="M41.0114 272V260.364H45.6705C46.5265 260.364 47.2405 260.491 47.8125 260.744C48.3845 260.998 48.8144 261.35 49.1023 261.801C49.3902 262.248 49.5341 262.763 49.5341 263.347C49.5341 263.801 49.4432 264.201 49.2614 264.545C49.0795 264.886 48.8295 265.167 48.5114 265.386C48.197 265.602 47.8371 265.756 47.4318 265.847V265.96C47.875 265.979 48.2898 266.104 48.6761 266.335C49.0663 266.566 49.3826 266.89 49.625 267.307C49.8674 267.72 49.9886 268.212 49.9886 268.784C49.9886 269.402 49.8352 269.953 49.5284 270.438C49.2254 270.919 48.7765 271.299 48.1818 271.58C47.5871 271.86 46.8542 272 45.983 272H41.0114ZM43.4716 269.989H45.4773C46.1629 269.989 46.6629 269.858 46.9773 269.597C47.2917 269.331 47.4489 268.979 47.4489 268.54C47.4489 268.218 47.3712 267.934 47.2159 267.688C47.0606 267.441 46.839 267.248 46.5511 267.108C46.267 266.968 45.928 266.898 45.5341 266.898H43.4716V269.989ZM43.4716 265.233H45.2955C45.6326 265.233 45.9318 265.174 46.1932 265.057C46.4583 264.936 46.6667 264.765 46.8182 264.545C46.9735 264.326 47.0511 264.062 47.0511 263.756C47.0511 263.335 46.9015 262.996 46.6023 262.739C46.3068 262.481 45.8864 262.352 45.3409 262.352H43.4716V265.233ZM52.2295 272V260.364H54.6897V269.972H59.6784V272H52.2295ZM64.2502 272H61.6138L65.6309 260.364H68.8013L72.8127 272H70.1763L67.2615 263.023H67.1706L64.2502 272ZM64.0854 267.426H70.3127V269.347H64.0854V267.426ZM84.5734 264.438H82.0848C82.0393 264.116 81.9465 263.83 81.8064 263.58C81.6662 263.326 81.4863 263.11 81.2666 262.932C81.0469 262.754 80.7931 262.617 80.5052 262.523C80.2211 262.428 79.9124 262.381 79.5791 262.381C78.9768 262.381 78.4522 262.53 78.0052 262.83C77.5583 263.125 77.2117 263.557 76.9655 264.125C76.7192 264.689 76.5961 265.375 76.5961 266.182C76.5961 267.011 76.7192 267.708 76.9655 268.273C77.2155 268.837 77.5639 269.263 78.0109 269.551C78.4579 269.839 78.9749 269.983 79.562 269.983C79.8916 269.983 80.1965 269.939 80.4768 269.852C80.7609 269.765 81.0128 269.638 81.2325 269.472C81.4522 269.301 81.634 269.095 81.778 268.852C81.9257 268.61 82.028 268.333 82.0848 268.023L84.5734 268.034C84.509 268.568 84.348 269.083 84.0905 269.58C83.8367 270.072 83.4939 270.513 83.062 270.903C82.634 271.29 82.1226 271.597 81.528 271.824C80.937 272.047 80.2685 272.159 79.5223 272.159C78.4844 272.159 77.5564 271.924 76.7382 271.455C75.9238 270.985 75.2798 270.305 74.8064 269.415C74.3367 268.525 74.1018 267.447 74.1018 266.182C74.1018 264.913 74.3405 263.833 74.8177 262.943C75.295 262.053 75.9427 261.375 76.7609 260.909C77.5791 260.439 78.4995 260.205 79.5223 260.205C80.1965 260.205 80.8215 260.299 81.3973 260.489C81.9768 260.678 82.4901 260.955 82.937 261.318C83.384 261.678 83.7476 262.119 84.028 262.642C84.312 263.165 84.4939 263.763 84.5734 264.438ZM86.9776 272V260.364H89.4378V265.494H89.5913L93.7788 260.364H96.7276L92.4094 265.574L96.7788 272H93.8356L90.6481 267.216L89.4378 268.693V272H86.9776ZM103.338 265.222V267.142H98.031V265.222H103.338ZM108.091 272H105.455L109.472 260.364H112.643L116.654 272H114.018L111.103 263.023H111.012L108.091 272ZM107.927 267.426H114.154V269.347H107.927V267.426ZM118.694 272V260.364H121.155V269.972H126.143V272H118.694ZM128.413 272V260.364H133.004C133.886 260.364 134.638 260.532 135.259 260.869C135.88 261.203 136.354 261.667 136.68 262.261C137.009 262.852 137.174 263.534 137.174 264.307C137.174 265.08 137.007 265.761 136.674 266.352C136.341 266.943 135.858 267.403 135.225 267.733C134.596 268.062 133.835 268.227 132.941 268.227H130.015V266.256H132.543C133.017 266.256 133.407 266.174 133.714 266.011C134.024 265.845 134.255 265.616 134.407 265.324C134.562 265.028 134.64 264.689 134.64 264.307C134.64 263.92 134.562 263.583 134.407 263.295C134.255 263.004 134.024 262.778 133.714 262.619C133.403 262.456 133.009 262.375 132.532 262.375H130.873V272H128.413ZM139.412 272V260.364H141.872V265.165H146.867V260.364H149.321V272H146.867V267.193H141.872V272H139.412ZM153.995 272H151.359L155.376 260.364H158.546L162.558 272H159.921L157.007 263.023H156.916L153.995 272ZM153.83 267.426H160.058V269.347H153.83V267.426Z" fill="white"/>
<rect x="126.5" y="298.5" width="59" height="59" rx="29.5" stroke="white" stroke-opacity="0.2"/>
<rect x="136" y="378" width="40" height="32" rx="4" fill="white"/>
<rect x="136.5" y="378.5" width="39" height="31" rx="3.5" stroke="white" stroke-opacity="0.2"/>
<path d="M148.8 399.24C146.528 399.24 144.8 397.384 144.8 393.368C144.8 389.24 146.544 387.56 148.8 387.56C151.056 387.56 152.8 389.24 152.8 393.368C152.8 397.384 151.072 399.24 148.8 399.24ZM148.8 397.96C150.432 397.96 151.232 396.504 151.232 393.368C151.232 390.248 150.432 388.84 148.8 388.84C147.168 388.84 146.368 390.248 146.368 393.368C146.368 396.504 147.168 397.96 148.8 397.96ZM159.61 390.264C159.61 392.072 158.266 392.968 156.874 392.968C155.482 392.968 154.154 392.072 154.154 390.264C154.154 388.456 155.482 387.56 156.874 387.56C158.266 387.56 159.61 388.456 159.61 390.264ZM155.45 390.264C155.45 391.416 156.09 391.848 156.874 391.848C157.658 391.848 158.33 391.416 158.33 390.264C158.33 389.112 157.658 388.68 156.874 388.68C156.09 388.68 155.45 389.112 155.45 390.264ZM164.09 387.8L157.978 399H156.442L162.554 387.8H164.09ZM166.49 396.536C166.49 398.344 165.146 399.24 163.754 399.24C162.362 399.24 161.034 398.344 161.034 396.536C161.034 394.728 162.362 393.832 163.754 393.832C165.146 393.832 166.49 394.728 166.49 396.536ZM162.33 396.536C162.33 397.688 162.97 398.12 163.754 398.12C164.538 398.12 165.21 397.688 165.21 396.536C165.21 395.384 164.538 394.952 163.754 394.952C162.97 394.952 162.33 395.384 162.33 396.536Z" fill="black" fill-opacity="0.95"/>
<rect x="202" y="298" width="60" height="60" rx="30" fill="black" fill-opacity="0.04"/>
<rect x="202.5" y="298.5" width="59" height="59" rx="29.5" stroke="white" stroke-opacity="0.2"/>
<rect x="212" y="378" width="40" height="32" rx="4" fill="white"/>
<path d="M225.504 387.8H227.104V395.576H228.912V396.888H227.104V399H225.616V396.888H220.704V395.464L225.504 387.8ZM222.416 395.576H225.616V390.28L222.416 395.576ZM235.61 390.264C235.61 392.072 234.266 392.968 232.874 392.968C231.482 392.968 230.154 392.072 230.154 390.264C230.154 388.456 231.482 387.56 232.874 387.56C234.266 387.56 235.61 388.456 235.61 390.264ZM231.45 390.264C231.45 391.416 232.09 391.848 232.874 391.848C233.658 391.848 234.33 391.416 234.33 390.264C234.33 389.112 233.658 388.68 232.874 388.68C232.09 388.68 231.45 389.112 231.45 390.264ZM240.09 387.8L233.978 399H232.442L238.554 387.8H240.09ZM242.49 396.536C242.49 398.344 241.146 399.24 239.754 399.24C238.362 399.24 237.034 398.344 237.034 396.536C237.034 394.728 238.362 393.832 239.754 393.832C241.146 393.832 242.49 394.728 242.49 396.536ZM238.33 396.536C238.33 397.688 238.97 398.12 239.754 398.12C240.538 398.12 241.21 397.688 241.21 396.536C241.21 395.384 240.538 394.952 239.754 394.952C238.97 394.952 238.33 395.384 238.33 396.536Z" fill="black" fill-opacity="0.95"/>
<rect x="278" y="298" width="60" height="60" rx="30" fill="black" fill-opacity="0.07"/>
<rect x="278.5" y="298.5" width="59" height="59" rx="29.5" stroke="white" stroke-opacity="0.2"/>
<rect x="288" y="378" width="40" height="32" rx="4" fill="white"/>
<path d="M304.32 389.176L299.744 399H298L302.688 389.176H297.2V387.8H304.32V389.176ZM311.61 390.264C311.61 392.072 310.266 392.968 308.874 392.968C307.482 392.968 306.154 392.072 306.154 390.264C306.154 388.456 307.482 387.56 308.874 387.56C310.266 387.56 311.61 388.456 311.61 390.264ZM307.45 390.264C307.45 391.416 308.09 391.848 308.874 391.848C309.658 391.848 310.33 391.416 310.33 390.264C310.33 389.112 309.658 388.68 308.874 388.68C308.09 388.68 307.45 389.112 307.45 390.264ZM316.09 387.8L309.978 399H308.442L314.554 387.8H316.09ZM318.49 396.536C318.49 398.344 317.146 399.24 315.754 399.24C314.362 399.24 313.034 398.344 313.034 396.536C313.034 394.728 314.362 393.832 315.754 393.832C317.146 393.832 318.49 394.728 318.49 396.536ZM314.33 396.536C314.33 397.688 314.97 398.12 315.754 398.12C316.538 398.12 317.21 397.688 317.21 396.536C317.21 395.384 316.538 394.952 315.754 394.952C314.97 394.952 314.33 395.384 314.33 396.536Z" fill="black" fill-opacity="0.95"/>
<rect x="354" y="298" width="60" height="60" rx="30" fill="black" fill-opacity="0.11"/>
<rect x="354.5" y="298.5" width="59" height="59" rx="29.5" stroke="white" stroke-opacity="0.2"/>
<rect x="359.5" y="378" width="49" height="32" rx="4" fill="white"/>
<path d="M373.66 399H372.14V389.4L369.628 390.696V389.112L372.156 387.8H373.66V399ZM383.254 399H381.734V389.4L379.222 390.696V389.112L381.75 387.8H383.254V399ZM392.704 390.264C392.704 392.072 391.36 392.968 389.968 392.968C388.576 392.968 387.248 392.072 387.248 390.264C387.248 388.456 388.576 387.56 389.968 387.56C391.36 387.56 392.704 388.456 392.704 390.264ZM388.544 390.264C388.544 391.416 389.184 391.848 389.968 391.848C390.752 391.848 391.424 391.416 391.424 390.264C391.424 389.112 390.752 388.68 389.968 388.68C389.184 388.68 388.544 389.112 388.544 390.264ZM397.184 387.8L391.072 399H389.536L395.648 387.8H397.184ZM399.584 396.536C399.584 398.344 398.24 399.24 396.848 399.24C395.456 399.24 394.128 398.344 394.128 396.536C394.128 394.728 395.456 393.832 396.848 393.832C398.24 393.832 399.584 394.728 399.584 396.536ZM395.424 396.536C395.424 397.688 396.064 398.12 396.848 398.12C397.632 398.12 398.304 397.688 398.304 396.536C398.304 395.384 397.632 394.952 396.848 394.952C396.064 394.952 395.424 395.384 395.424 396.536Z" fill="black" fill-opacity="0.95"/>
<rect x="430" y="298" width="60" height="60" rx="30" fill="black" fill-opacity="0.2"/>
<rect x="430.5" y="298.5" width="59" height="59" rx="29.5" stroke="white" stroke-opacity="0.2"/>
<rect x="435.5" y="378" width="49" height="32" rx="4" fill="white"/>
<path d="M446.076 390.728H444.46C444.7 388.936 446.188 387.56 448.396 387.56C450.476 387.56 452.044 388.776 452.044 390.744C452.044 392.264 451.388 393.24 449.372 395.16L446.812 397.592H451.996V399H444.732V397.592L448.38 394.088C449.9 392.632 450.476 391.848 450.476 390.76C450.476 389.624 449.692 388.856 448.364 388.856C447.1 388.856 446.204 389.56 446.076 390.728ZM457.894 399.24C455.622 399.24 453.894 397.384 453.894 393.368C453.894 389.24 455.638 387.56 457.894 387.56C460.15 387.56 461.894 389.24 461.894 393.368C461.894 397.384 460.166 399.24 457.894 399.24ZM457.894 397.96C459.526 397.96 460.326 396.504 460.326 393.368C460.326 390.248 459.526 388.84 457.894 388.84C456.262 388.84 455.462 390.248 455.462 393.368C455.462 396.504 456.262 397.96 457.894 397.96ZM468.704 390.264C468.704 392.072 467.36 392.968 465.968 392.968C464.576 392.968 463.248 392.072 463.248 390.264C463.248 388.456 464.576 387.56 465.968 387.56C467.36 387.56 468.704 388.456 468.704 390.264ZM464.544 390.264C464.544 391.416 465.184 391.848 465.968 391.848C466.752 391.848 467.424 391.416 467.424 390.264C467.424 389.112 466.752 388.68 465.968 388.68C465.184 388.68 464.544 389.112 464.544 390.264ZM473.184 387.8L467.072 399H465.536L471.648 387.8H473.184ZM475.584 396.536C475.584 398.344 474.24 399.24 472.848 399.24C471.456 399.24 470.128 398.344 470.128 396.536C470.128 394.728 471.456 393.832 472.848 393.832C474.24 393.832 475.584 394.728 475.584 396.536ZM471.424 396.536C471.424 397.688 472.064 398.12 472.848 398.12C473.632 398.12 474.304 397.688 474.304 396.536C474.304 395.384 473.632 394.952 472.848 394.952C472.064 394.952 471.424 395.384 471.424 396.536Z" fill="black" fill-opacity="0.95"/>
<rect x="506" y="298" width="60" height="60" rx="30" fill="black" fill-opacity="0.3"/>
<rect x="506.5" y="298.5" width="59" height="59" rx="29.5" stroke="white" stroke-opacity="0.2"/>
<rect x="511.5" y="378" width="49" height="32" rx="4" fill="white"/>
<path d="M521.932 390.44H520.316C520.588 388.696 522.14 387.56 524.268 387.56C526.14 387.56 527.9 388.488 527.9 390.488C527.9 391.704 527.052 392.68 525.884 393.048C527.148 393.32 528.284 394.264 528.284 395.944C528.284 397.864 526.716 399.224 524.316 399.224C521.964 399.224 520.54 398.008 520.284 396.216H521.916C522.172 397.336 522.924 397.944 524.284 397.944C525.82 397.944 526.716 397.112 526.716 395.912C526.716 394.376 525.532 393.8 524.508 393.8H523.58V392.472H524.476C525.324 392.472 526.332 391.896 526.332 390.6C526.332 389.4 525.276 388.84 524.188 388.84C522.94 388.84 522.092 389.48 521.932 390.44ZM533.894 399.24C531.622 399.24 529.894 397.384 529.894 393.368C529.894 389.24 531.638 387.56 533.894 387.56C536.15 387.56 537.894 389.24 537.894 393.368C537.894 397.384 536.166 399.24 533.894 399.24ZM533.894 397.96C535.526 397.96 536.326 396.504 536.326 393.368C536.326 390.248 535.526 388.84 533.894 388.84C532.262 388.84 531.462 390.248 531.462 393.368C531.462 396.504 532.262 397.96 533.894 397.96ZM544.704 390.264C544.704 392.072 543.36 392.968 541.968 392.968C540.576 392.968 539.248 392.072 539.248 390.264C539.248 388.456 540.576 387.56 541.968 387.56C543.36 387.56 544.704 388.456 544.704 390.264ZM540.544 390.264C540.544 391.416 541.184 391.848 541.968 391.848C542.752 391.848 543.424 391.416 543.424 390.264C543.424 389.112 542.752 388.68 541.968 388.68C541.184 388.68 540.544 389.112 540.544 390.264ZM549.184 387.8L543.072 399H541.536L547.648 387.8H549.184ZM551.584 396.536C551.584 398.344 550.24 399.24 548.848 399.24C547.456 399.24 546.128 398.344 546.128 396.536C546.128 394.728 547.456 393.832 548.848 393.832C550.24 393.832 551.584 394.728 551.584 396.536ZM547.424 396.536C547.424 397.688 548.064 398.12 548.848 398.12C549.632 398.12 550.304 397.688 550.304 396.536C550.304 395.384 549.632 394.952 548.848 394.952C548.064 394.952 547.424 395.384 547.424 396.536Z" fill="black" fill-opacity="0.95"/>
<rect x="582" y="298" width="60" height="60" rx="30" fill="black" fill-opacity="0.4"/>
<rect x="582.5" y="298.5" width="59" height="59" rx="29.5" stroke="white" stroke-opacity="0.2"/>
<rect x="587.5" y="378" width="49" height="32" rx="4" fill="white"/>
<path d="M601.004 387.8H602.604V395.576H604.412V396.888H602.604V399H601.116V396.888H596.204V395.464L601.004 387.8ZM597.916 395.576H601.116V390.28L597.916 395.576ZM609.894 399.24C607.622 399.24 605.894 397.384 605.894 393.368C605.894 389.24 607.638 387.56 609.894 387.56C612.15 387.56 613.894 389.24 613.894 393.368C613.894 397.384 612.166 399.24 609.894 399.24ZM609.894 397.96C611.526 397.96 612.326 396.504 612.326 393.368C612.326 390.248 611.526 388.84 609.894 388.84C608.262 388.84 607.462 390.248 607.462 393.368C607.462 396.504 608.262 397.96 609.894 397.96ZM620.704 390.264C620.704 392.072 619.36 392.968 617.968 392.968C616.576 392.968 615.248 392.072 615.248 390.264C615.248 388.456 616.576 387.56 617.968 387.56C619.36 387.56 620.704 388.456 620.704 390.264ZM616.544 390.264C616.544 391.416 617.184 391.848 617.968 391.848C618.752 391.848 619.424 391.416 619.424 390.264C619.424 389.112 618.752 388.68 617.968 388.68C617.184 388.68 616.544 389.112 616.544 390.264ZM625.184 387.8L619.072 399H617.536L623.648 387.8H625.184ZM627.584 396.536C627.584 398.344 626.24 399.24 624.848 399.24C623.456 399.24 622.128 398.344 622.128 396.536C622.128 394.728 623.456 393.832 624.848 393.832C626.24 393.832 627.584 394.728 627.584 396.536ZM623.424 396.536C623.424 397.688 624.064 398.12 624.848 398.12C625.632 398.12 626.304 397.688 626.304 396.536C626.304 395.384 625.632 394.952 624.848 394.952C624.064 394.952 623.424 395.384 623.424 396.536Z" fill="black" fill-opacity="0.95"/>
<rect x="658" y="298" width="60" height="60" rx="30" fill="black" fill-opacity="0.5"/>
<rect x="658.5" y="298.5" width="59" height="59" rx="29.5" stroke="white" stroke-opacity="0.2"/>
<rect x="663.5" y="378" width="49" height="32" rx="4" fill="white"/>
<path d="M672.316 396.28H673.948C674.156 397.192 674.956 397.944 676.316 397.944C677.692 397.944 678.748 396.984 678.748 395.304C678.748 393.656 677.788 392.76 676.348 392.76C675.58 392.76 674.716 393.064 674.108 393.784H672.748L672.988 387.8H679.868V389.096H674.38L674.252 392.376C674.876 391.88 675.66 391.56 676.7 391.56C678.652 391.56 680.332 392.856 680.332 395.368C680.332 397.448 678.86 399.24 676.3 399.24C673.996 399.24 672.572 397.8 672.316 396.28ZM685.894 399.24C683.622 399.24 681.894 397.384 681.894 393.368C681.894 389.24 683.638 387.56 685.894 387.56C688.15 387.56 689.894 389.24 689.894 393.368C689.894 397.384 688.166 399.24 685.894 399.24ZM685.894 397.96C687.526 397.96 688.326 396.504 688.326 393.368C688.326 390.248 687.526 388.84 685.894 388.84C684.262 388.84 683.462 390.248 683.462 393.368C683.462 396.504 684.262 397.96 685.894 397.96ZM696.704 390.264C696.704 392.072 695.36 392.968 693.968 392.968C692.576 392.968 691.248 392.072 691.248 390.264C691.248 388.456 692.576 387.56 693.968 387.56C695.36 387.56 696.704 388.456 696.704 390.264ZM692.544 390.264C692.544 391.416 693.184 391.848 693.968 391.848C694.752 391.848 695.424 391.416 695.424 390.264C695.424 389.112 694.752 388.68 693.968 388.68C693.184 388.68 692.544 389.112 692.544 390.264ZM701.184 387.8L695.072 399H693.536L699.648 387.8H701.184ZM703.584 396.536C703.584 398.344 702.24 399.24 700.848 399.24C699.456 399.24 698.128 398.344 698.128 396.536C698.128 394.728 699.456 393.832 700.848 393.832C702.24 393.832 703.584 394.728 703.584 396.536ZM699.424 396.536C699.424 397.688 700.064 398.12 700.848 398.12C701.632 398.12 702.304 397.688 702.304 396.536C702.304 395.384 701.632 394.952 700.848 394.952C700.064 394.952 699.424 395.384 699.424 396.536Z" fill="black" fill-opacity="0.95"/>
<rect x="734" y="298" width="60" height="60" rx="30" fill="black" fill-opacity="0.6"/>
<rect x="734.5" y="298.5" width="59" height="59" rx="29.5" stroke="white" stroke-opacity="0.2"/>
<rect x="739.5" y="378" width="49" height="32" rx="4" fill="white"/>
<path d="M756.076 389.928H754.38C754.188 389.256 753.596 388.808 752.684 388.808C751.42 388.808 750.316 389.832 750.14 393.128C750.812 392.056 751.9 391.672 752.812 391.672C755.004 391.672 756.3 393.24 756.3 395.432C756.3 398.008 754.396 399.24 752.556 399.24C749.964 399.24 748.62 397.336 748.62 393.848C748.62 388.824 750.636 387.56 752.7 387.56C754.396 387.56 755.724 388.472 756.076 389.928ZM750.3 395.384C750.3 397.048 751.276 397.96 752.556 397.96C753.772 397.96 754.748 397.08 754.748 395.512C754.748 393.928 753.884 392.952 752.54 392.952C751.036 392.952 750.3 394.088 750.3 395.384ZM761.894 399.24C759.622 399.24 757.894 397.384 757.894 393.368C757.894 389.24 759.638 387.56 761.894 387.56C764.15 387.56 765.894 389.24 765.894 393.368C765.894 397.384 764.166 399.24 761.894 399.24ZM761.894 397.96C763.526 397.96 764.326 396.504 764.326 393.368C764.326 390.248 763.526 388.84 761.894 388.84C760.262 388.84 759.462 390.248 759.462 393.368C759.462 396.504 760.262 397.96 761.894 397.96ZM772.704 390.264C772.704 392.072 771.36 392.968 769.968 392.968C768.576 392.968 767.248 392.072 767.248 390.264C767.248 388.456 768.576 387.56 769.968 387.56C771.36 387.56 772.704 388.456 772.704 390.264ZM768.544 390.264C768.544 391.416 769.184 391.848 769.968 391.848C770.752 391.848 771.424 391.416 771.424 390.264C771.424 389.112 770.752 388.68 769.968 388.68C769.184 388.68 768.544 389.112 768.544 390.264ZM777.184 387.8L771.072 399H769.536L775.648 387.8H777.184ZM779.584 396.536C779.584 398.344 778.24 399.24 776.848 399.24C775.456 399.24 774.128 398.344 774.128 396.536C774.128 394.728 775.456 393.832 776.848 393.832C778.24 393.832 779.584 394.728 779.584 396.536ZM775.424 396.536C775.424 397.688 776.064 398.12 776.848 398.12C777.632 398.12 778.304 397.688 778.304 396.536C778.304 395.384 777.632 394.952 776.848 394.952C776.064 394.952 775.424 395.384 775.424 396.536Z" fill="black" fill-opacity="0.95"/>
<rect x="810" y="298" width="60" height="60" rx="30" fill="black" fill-opacity="0.7"/>
<rect x="810.5" y="298.5" width="59" height="59" rx="29.5" stroke="white" stroke-opacity="0.2"/>
<rect x="815.5" y="378" width="49" height="32" rx="4" fill="white"/>
<path d="M831.82 389.176L827.244 399H825.5L830.188 389.176H824.7V387.8H831.82V389.176ZM837.894 399.24C835.622 399.24 833.894 397.384 833.894 393.368C833.894 389.24 835.638 387.56 837.894 387.56C840.15 387.56 841.894 389.24 841.894 393.368C841.894 397.384 840.166 399.24 837.894 399.24ZM837.894 397.96C839.526 397.96 840.326 396.504 840.326 393.368C840.326 390.248 839.526 388.84 837.894 388.84C836.262 388.84 835.462 390.248 835.462 393.368C835.462 396.504 836.262 397.96 837.894 397.96ZM848.704 390.264C848.704 392.072 847.36 392.968 845.968 392.968C844.576 392.968 843.248 392.072 843.248 390.264C843.248 388.456 844.576 387.56 845.968 387.56C847.36 387.56 848.704 388.456 848.704 390.264ZM844.544 390.264C844.544 391.416 845.184 391.848 845.968 391.848C846.752 391.848 847.424 391.416 847.424 390.264C847.424 389.112 846.752 388.68 845.968 388.68C845.184 388.68 844.544 389.112 844.544 390.264ZM853.184 387.8L847.072 399H845.536L851.648 387.8H853.184ZM855.584 396.536C855.584 398.344 854.24 399.24 852.848 399.24C851.456 399.24 850.128 398.344 850.128 396.536C850.128 394.728 851.456 393.832 852.848 393.832C854.24 393.832 855.584 394.728 855.584 396.536ZM851.424 396.536C851.424 397.688 852.064 398.12 852.848 398.12C853.632 398.12 854.304 397.688 854.304 396.536C854.304 395.384 853.632 394.952 852.848 394.952C852.064 394.952 851.424 395.384 851.424 396.536Z" fill="black" fill-opacity="0.95"/>
<rect x="886" y="298" width="60" height="60" rx="30" fill="black" fill-opacity="0.8"/>
<rect x="886.5" y="298.5" width="59" height="59" rx="29.5" stroke="white" stroke-opacity="0.2"/>
<rect x="891.5" y="378" width="49" height="32" rx="4" fill="white"/>
<path d="M907.964 390.44C907.964 391.72 907.004 392.568 906.124 393.032C907.18 393.496 908.38 394.392 908.38 395.976C908.38 397.88 906.748 399.24 904.3 399.24C901.852 399.24 900.22 397.912 900.22 396.088C900.22 394.376 901.404 393.512 902.412 393.128C901.564 392.728 900.636 391.976 900.636 390.552C900.636 388.488 902.38 387.56 904.3 387.56C906.22 387.56 907.964 388.408 907.964 390.44ZM906.748 395.976C906.748 394.2 905.212 393.88 903.964 393.608C903.036 393.88 901.852 394.568 901.852 395.976C901.852 397.064 902.636 397.976 904.3 397.976C905.932 397.976 906.748 397.144 906.748 395.976ZM902.14 390.472C902.14 392.168 903.66 392.504 904.62 392.632C905.436 392.312 906.428 391.656 906.428 390.472C906.428 389.416 905.468 388.76 904.3 388.76C903.132 388.76 902.14 389.32 902.14 390.472ZM913.894 399.24C911.622 399.24 909.894 397.384 909.894 393.368C909.894 389.24 911.638 387.56 913.894 387.56C916.15 387.56 917.894 389.24 917.894 393.368C917.894 397.384 916.166 399.24 913.894 399.24ZM913.894 397.96C915.526 397.96 916.326 396.504 916.326 393.368C916.326 390.248 915.526 388.84 913.894 388.84C912.262 388.84 911.462 390.248 911.462 393.368C911.462 396.504 912.262 397.96 913.894 397.96ZM924.704 390.264C924.704 392.072 923.36 392.968 921.968 392.968C920.576 392.968 919.248 392.072 919.248 390.264C919.248 388.456 920.576 387.56 921.968 387.56C923.36 387.56 924.704 388.456 924.704 390.264ZM920.544 390.264C920.544 391.416 921.184 391.848 921.968 391.848C922.752 391.848 923.424 391.416 923.424 390.264C923.424 389.112 922.752 388.68 921.968 388.68C921.184 388.68 920.544 389.112 920.544 390.264ZM929.184 387.8L923.072 399H921.536L927.648 387.8H929.184ZM931.584 396.536C931.584 398.344 930.24 399.24 928.848 399.24C927.456 399.24 926.128 398.344 926.128 396.536C926.128 394.728 927.456 393.832 928.848 393.832C930.24 393.832 931.584 394.728 931.584 396.536ZM927.424 396.536C927.424 397.688 928.064 398.12 928.848 398.12C929.632 398.12 930.304 397.688 930.304 396.536C930.304 395.384 929.632 394.952 928.848 394.952C928.064 394.952 927.424 395.384 927.424 396.536Z" fill="black" fill-opacity="0.95"/>
<rect x="962" y="298" width="60" height="60" rx="30" fill="black" fill-opacity="0.9"/>
<rect x="962.5" y="298.5" width="59" height="59" rx="29.5" stroke="white" stroke-opacity="0.2"/>
<rect x="967.5" y="378" width="49" height="32" rx="4" fill="white"/>
<path d="M976.78 396.84H978.476C978.684 397.56 979.292 397.992 980.236 397.992C981.596 397.992 982.604 396.984 982.764 393.688C982.092 394.76 981.004 395.128 980.108 395.128C978.06 395.128 976.62 393.72 976.62 391.368C976.62 389.048 978.236 387.56 980.364 387.56C982.956 387.56 984.3 389.352 984.3 392.952C984.3 397.864 982.396 399.24 980.172 399.24C978.444 399.24 977.148 398.296 976.78 396.84ZM982.62 391.416C982.62 389.752 981.644 388.84 980.364 388.84C979.132 388.84 978.172 389.736 978.172 391.288C978.172 392.968 979.132 393.848 980.38 393.848C981.884 393.848 982.62 392.712 982.62 391.416ZM989.894 399.24C987.622 399.24 985.894 397.384 985.894 393.368C985.894 389.24 987.638 387.56 989.894 387.56C992.15 387.56 993.894 389.24 993.894 393.368C993.894 397.384 992.166 399.24 989.894 399.24ZM989.894 397.96C991.526 397.96 992.326 396.504 992.326 393.368C992.326 390.248 991.526 388.84 989.894 388.84C988.262 388.84 987.462 390.248 987.462 393.368C987.462 396.504 988.262 397.96 989.894 397.96ZM1000.7 390.264C1000.7 392.072 999.36 392.968 997.968 392.968C996.576 392.968 995.248 392.072 995.248 390.264C995.248 388.456 996.576 387.56 997.968 387.56C999.36 387.56 1000.7 388.456 1000.7 390.264ZM996.544 390.264C996.544 391.416 997.184 391.848 997.968 391.848C998.752 391.848 999.424 391.416 999.424 390.264C999.424 389.112 998.752 388.68 997.968 388.68C997.184 388.68 996.544 389.112 996.544 390.264ZM1005.18 387.8L999.072 399H997.536L1003.65 387.8H1005.18ZM1007.58 396.536C1007.58 398.344 1006.24 399.24 1004.85 399.24C1003.46 399.24 1002.13 398.344 1002.13 396.536C1002.13 394.728 1003.46 393.832 1004.85 393.832C1006.24 393.832 1007.58 394.728 1007.58 396.536ZM1003.42 396.536C1003.42 397.688 1004.06 398.12 1004.85 398.12C1005.63 398.12 1006.3 397.688 1006.3 396.536C1006.3 395.384 1005.63 394.952 1004.85 394.952C1004.06 394.952 1003.42 395.384 1003.42 396.536Z" fill="black" fill-opacity="0.95"/>
<rect x="1038" y="298" width="60" height="60" rx="30" fill="black" fill-opacity="0.95"/>
<rect x="1038.5" y="298.5" width="59" height="59" rx="29.5" stroke="white" stroke-opacity="0.2"/>
<rect x="1043.5" y="378" width="49" height="32" rx="4" fill="white"/>
<path d="M1052.78 396.84H1054.48C1054.68 397.56 1055.29 397.992 1056.24 397.992C1057.6 397.992 1058.6 396.984 1058.76 393.688C1058.09 394.76 1057 395.128 1056.11 395.128C1054.06 395.128 1052.62 393.72 1052.62 391.368C1052.62 389.048 1054.24 387.56 1056.36 387.56C1058.96 387.56 1060.3 389.352 1060.3 392.952C1060.3 397.864 1058.4 399.24 1056.17 399.24C1054.44 399.24 1053.15 398.296 1052.78 396.84ZM1058.62 391.416C1058.62 389.752 1057.64 388.84 1056.36 388.84C1055.13 388.84 1054.17 389.736 1054.17 391.288C1054.17 392.968 1055.13 393.848 1056.38 393.848C1057.88 393.848 1058.62 392.712 1058.62 391.416ZM1061.91 396.28H1063.54C1063.75 397.192 1064.55 397.944 1065.91 397.944C1067.29 397.944 1068.34 396.984 1068.34 395.304C1068.34 393.656 1067.38 392.76 1065.94 392.76C1065.17 392.76 1064.31 393.064 1063.7 393.784H1062.34L1062.58 387.8H1069.46V389.096H1063.97L1063.85 392.376C1064.47 391.88 1065.25 391.56 1066.29 391.56C1068.25 391.56 1069.93 392.856 1069.93 395.368C1069.93 397.448 1068.45 399.24 1065.89 399.24C1063.59 399.24 1062.17 397.8 1061.91 396.28ZM1076.7 390.264C1076.7 392.072 1075.36 392.968 1073.97 392.968C1072.58 392.968 1071.25 392.072 1071.25 390.264C1071.25 388.456 1072.58 387.56 1073.97 387.56C1075.36 387.56 1076.7 388.456 1076.7 390.264ZM1072.54 390.264C1072.54 391.416 1073.18 391.848 1073.97 391.848C1074.75 391.848 1075.42 391.416 1075.42 390.264C1075.42 389.112 1074.75 388.68 1073.97 388.68C1073.18 388.68 1072.54 389.112 1072.54 390.264ZM1081.18 387.8L1075.07 399H1073.54L1079.65 387.8H1081.18ZM1083.58 396.536C1083.58 398.344 1082.24 399.24 1080.85 399.24C1079.46 399.24 1078.13 398.344 1078.13 396.536C1078.13 394.728 1079.46 393.832 1080.85 393.832C1082.24 393.832 1083.58 394.728 1083.58 396.536ZM1079.42 396.536C1079.42 397.688 1080.06 398.12 1080.85 398.12C1081.63 398.12 1082.3 397.688 1082.3 396.536C1082.3 395.384 1081.63 394.952 1080.85 394.952C1080.06 394.952 1079.42 395.384 1079.42 396.536Z" fill="black" fill-opacity="0.95"/>
<rect x="1114" y="298" width="60" height="60" rx="30" fill="black"/>
<rect x="1114.5" y="298.5" width="59" height="59" rx="29.5" stroke="white" stroke-opacity="0.2"/>
<rect x="1114.5" y="378" width="59" height="32" rx="4" fill="white"/>
<path d="M1128.66 399H1127.14V389.4L1124.63 390.696V389.112L1127.16 387.8H1128.66V399ZM1136.89 399.24C1134.62 399.24 1132.89 397.384 1132.89 393.368C1132.89 389.24 1134.64 387.56 1136.89 387.56C1139.15 387.56 1140.89 389.24 1140.89 393.368C1140.89 397.384 1139.17 399.24 1136.89 399.24ZM1136.89 397.96C1138.53 397.96 1139.33 396.504 1139.33 393.368C1139.33 390.248 1138.53 388.84 1136.89 388.84C1135.26 388.84 1134.46 390.248 1134.46 393.368C1134.46 396.504 1135.26 397.96 1136.89 397.96ZM1146.49 399.24C1144.22 399.24 1142.49 397.384 1142.49 393.368C1142.49 389.24 1144.23 387.56 1146.49 387.56C1148.74 387.56 1150.49 389.24 1150.49 393.368C1150.49 397.384 1148.76 399.24 1146.49 399.24ZM1146.49 397.96C1148.12 397.96 1148.92 396.504 1148.92 393.368C1148.92 390.248 1148.12 388.84 1146.49 388.84C1144.86 388.84 1144.06 390.248 1144.06 393.368C1144.06 396.504 1144.86 397.96 1146.49 397.96ZM1157.3 390.264C1157.3 392.072 1155.95 392.968 1154.56 392.968C1153.17 392.968 1151.84 392.072 1151.84 390.264C1151.84 388.456 1153.17 387.56 1154.56 387.56C1155.95 387.56 1157.3 388.456 1157.3 390.264ZM1153.14 390.264C1153.14 391.416 1153.78 391.848 1154.56 391.848C1155.35 391.848 1156.02 391.416 1156.02 390.264C1156.02 389.112 1155.35 388.68 1154.56 388.68C1153.78 388.68 1153.14 389.112 1153.14 390.264ZM1161.78 387.8L1155.67 399H1154.13L1160.24 387.8H1161.78ZM1164.18 396.536C1164.18 398.344 1162.83 399.24 1161.44 399.24C1160.05 399.24 1158.72 398.344 1158.72 396.536C1158.72 394.728 1160.05 393.832 1161.44 393.832C1162.83 393.832 1164.18 394.728 1164.18 396.536ZM1160.02 396.536C1160.02 397.688 1160.66 398.12 1161.44 398.12C1162.23 398.12 1162.9 397.688 1162.9 396.536C1162.9 395.384 1162.23 394.952 1161.44 394.952C1160.66 394.952 1160.02 395.384 1160.02 396.536Z" fill="black" fill-opacity="0.95"/>
<path d="M48.7273 478.125C48.6477 477.848 48.536 477.604 48.392 477.392C48.2481 477.176 48.072 476.994 47.8636 476.847C47.6591 476.695 47.4242 476.58 47.1591 476.5C46.8977 476.42 46.608 476.381 46.2898 476.381C45.6951 476.381 45.1723 476.528 44.7216 476.824C44.2746 477.119 43.9261 477.549 43.6761 478.114C43.4261 478.674 43.3011 479.36 43.3011 480.17C43.3011 480.981 43.4242 481.67 43.6705 482.239C43.9167 482.807 44.2652 483.241 44.7159 483.54C45.1667 483.835 45.6989 483.983 46.3125 483.983C46.8693 483.983 47.3447 483.884 47.7386 483.688C48.1364 483.487 48.4394 483.205 48.6477 482.841C48.8598 482.477 48.9659 482.047 48.9659 481.551L49.4659 481.625H46.4659V479.773H51.3352V481.239C51.3352 482.261 51.1193 483.14 50.6875 483.875C50.2557 484.606 49.661 485.17 48.9034 485.568C48.1458 485.962 47.2784 486.159 46.3011 486.159C45.2102 486.159 44.2519 485.919 43.4261 485.438C42.6004 484.953 41.9564 484.265 41.4943 483.375C41.036 482.481 40.8068 481.42 40.8068 480.193C40.8068 479.25 40.9432 478.409 41.2159 477.67C41.4924 476.928 41.8788 476.299 42.375 475.784C42.8712 475.269 43.4489 474.877 44.108 474.608C44.767 474.339 45.4811 474.205 46.25 474.205C46.9091 474.205 47.5227 474.301 48.0909 474.494C48.6591 474.684 49.1629 474.953 49.6023 475.301C50.0455 475.65 50.4072 476.064 50.6875 476.545C50.9678 477.023 51.1477 477.549 51.2273 478.125H48.7273ZM53.8232 486V474.364H58.4141C59.2929 474.364 60.0429 474.521 60.6641 474.835C61.2891 475.146 61.7645 475.587 62.0903 476.159C62.4198 476.727 62.5846 477.396 62.5846 478.165C62.5846 478.937 62.4179 479.602 62.0846 480.159C61.7513 480.712 61.2683 481.136 60.6357 481.432C60.007 481.727 59.2456 481.875 58.3516 481.875H55.2778V479.898H57.9539C58.4236 479.898 58.8138 479.833 59.1244 479.705C59.435 479.576 59.666 479.383 59.8176 479.125C59.9729 478.867 60.0505 478.547 60.0505 478.165C60.0505 477.778 59.9729 477.453 59.8176 477.188C59.666 476.922 59.4331 476.722 59.1187 476.585C58.8081 476.445 58.416 476.375 57.9426 476.375H56.2835V486H53.8232ZM60.1073 480.705L62.9994 486H60.2835L57.4539 480.705H60.1073ZM66.9689 486H64.3326L68.3496 474.364H71.5201L75.5314 486H72.8951L69.9803 477.023H69.8894L66.9689 486ZM66.8041 481.426H73.0314V483.347H66.8041V481.426ZM75.7027 474.364H78.4584L81.1118 479.375H81.2254L83.8788 474.364H86.6345L82.3902 481.886V486H79.947V481.886L75.7027 474.364Z" fill="white"/>
<rect x="46.1575" y="512" width="60" height="60" rx="30" fill="#F7F7F7"/>
<rect x="46.6575" y="512.5" width="59" height="59" rx="29.5" stroke="white" stroke-opacity="0.2"/>
<rect x="42.6575" y="592" width="67" height="32" rx="4" fill="white"/>
<rect x="43.1575" y="592.5" width="66" height="31" rx="3.5" stroke="white" stroke-opacity="0.2"/>
<path d="M51.6815 613.56H53.3295C53.4735 614.392 54.1775 614.904 55.3935 614.904C56.9455 614.904 57.7455 614.12 57.7455 612.744V611.672C57.1855 612.328 56.2575 612.76 54.9775 612.76C53.0255 612.76 51.2975 611.304 51.2975 608.648C51.2975 606.04 52.8175 604.44 55.0735 604.44C56.3695 604.44 57.2495 605 57.7775 605.784L58.0175 604.68H59.2815V612.824C59.2815 614.712 57.9055 616.12 55.4415 616.12C53.2175 616.12 51.9535 615.112 51.6815 613.56ZM52.8975 608.68C52.8975 610.44 53.9855 611.448 55.3135 611.448C56.8975 611.448 57.8255 610.408 57.8255 608.728C57.8255 606.776 56.8015 605.752 55.3135 605.752C53.9055 605.752 52.8975 606.696 52.8975 608.68ZM63.0635 613H61.5275V604.68H62.7915L62.9995 605.912C63.4635 604.952 64.1835 604.44 65.1115 604.44C65.5115 604.44 65.8315 604.504 66.0235 604.552V606.088C65.7195 606.008 65.4155 605.944 65.0475 605.944C63.9915 605.944 63.0635 606.728 63.0635 608.824V613ZM68.5426 607H66.9106C67.0706 605.464 68.3986 604.44 70.4786 604.44C72.6546 604.44 73.8706 605.608 73.8706 607.32V613H72.6066L72.4146 611.864C71.8706 612.632 70.9746 613.24 69.6306 613.24C67.8066 613.24 66.7506 612.216 66.7506 610.856C66.7506 609.336 67.6626 608.472 69.9026 608.088L72.3346 607.672V607.256C72.3346 606.232 71.6466 605.656 70.4146 605.656C69.2306 605.656 68.6546 606.168 68.5426 607ZM72.3346 608.872L70.2706 609.24C68.7826 609.496 68.3826 609.96 68.3826 610.696C68.3826 611.496 68.9586 611.944 69.9986 611.944C71.1666 611.944 72.3346 611.08 72.3346 609.944V608.872ZM82.659 604.68L79.763 613.112C79.139 614.936 78.579 616.12 77.043 616.12C76.707 616.12 76.499 616.088 76.051 615.976V614.728C76.371 614.808 76.595 614.84 76.851 614.84C77.587 614.84 77.827 614.312 78.307 613H77.811L74.755 604.68H76.419L78.771 611.752L81.123 604.68H82.659ZM89.7793 608.52H84.0193V607.16H89.7793V608.52ZM92.036 610.28H93.668C93.876 611.192 94.676 611.944 96.036 611.944C97.412 611.944 98.468 610.984 98.468 609.304C98.468 607.656 97.508 606.76 96.068 606.76C95.3 606.76 94.436 607.064 93.828 607.784H92.468L92.708 601.8H99.588V603.096H94.1L93.972 606.376C94.596 605.88 95.38 605.56 96.42 605.56C98.372 605.56 100.052 606.856 100.052 609.368C100.052 611.448 98.58 613.24 96.02 613.24C93.716 613.24 92.292 611.8 92.036 610.28Z" fill="black" fill-opacity="0.95"/>
<rect x="134.472" y="512" width="60" height="60" rx="30" fill="#EDEDED"/>
<rect x="134.972" y="512.5" width="59" height="59" rx="29.5" stroke="white" stroke-opacity="0.2"/>
<rect x="126.472" y="592" width="76" height="32" rx="4" fill="white"/>
<path d="M135.496 613.56H137.144C137.288 614.392 137.992 614.904 139.208 614.904C140.76 614.904 141.56 614.12 141.56 612.744V611.672C141 612.328 140.072 612.76 138.792 612.76C136.84 612.76 135.112 611.304 135.112 608.648C135.112 606.04 136.632 604.44 138.888 604.44C140.184 604.44 141.064 605 141.592 605.784L141.832 604.68H143.096V612.824C143.096 614.712 141.72 616.12 139.256 616.12C137.032 616.12 135.768 615.112 135.496 613.56ZM136.712 608.68C136.712 610.44 137.8 611.448 139.128 611.448C140.712 611.448 141.64 610.408 141.64 608.728C141.64 606.776 140.616 605.752 139.128 605.752C137.72 605.752 136.712 606.696 136.712 608.68ZM146.878 613H145.342V604.68H146.606L146.814 605.912C147.278 604.952 147.998 604.44 148.926 604.44C149.326 604.44 149.646 604.504 149.838 604.552V606.088C149.534 606.008 149.23 605.944 148.862 605.944C147.806 605.944 146.878 606.728 146.878 608.824V613ZM152.357 607H150.725C150.885 605.464 152.213 604.44 154.293 604.44C156.469 604.44 157.685 605.608 157.685 607.32V613H156.421L156.229 611.864C155.685 612.632 154.789 613.24 153.445 613.24C151.621 613.24 150.565 612.216 150.565 610.856C150.565 609.336 151.477 608.472 153.717 608.088L156.149 607.672V607.256C156.149 606.232 155.461 605.656 154.229 605.656C153.045 605.656 152.469 606.168 152.357 607ZM156.149 608.872L154.085 609.24C152.597 609.496 152.197 609.96 152.197 610.696C152.197 611.496 152.773 611.944 153.813 611.944C154.981 611.944 156.149 611.08 156.149 609.944V608.872ZM166.474 604.68L163.578 613.112C162.954 614.936 162.394 616.12 160.858 616.12C160.522 616.12 160.314 616.088 159.866 615.976V614.728C160.186 614.808 160.41 614.84 160.666 614.84C161.402 614.84 161.642 614.312 162.122 613H161.626L158.57 604.68H160.234L162.586 611.752L164.938 604.68H166.474ZM173.594 608.52H167.834V607.16H173.594V608.52ZM181.195 613H179.675V603.4L177.163 604.696V603.112L179.691 601.8H181.195V613ZM189.428 613.24C187.156 613.24 185.428 611.384 185.428 607.368C185.428 603.24 187.172 601.56 189.428 601.56C191.684 601.56 193.428 603.24 193.428 607.368C193.428 611.384 191.7 613.24 189.428 613.24ZM189.428 611.96C191.06 611.96 191.86 610.504 191.86 607.368C191.86 604.248 191.06 602.84 189.428 602.84C187.796 602.84 186.996 604.248 186.996 607.368C186.996 610.504 187.796 611.96 189.428 611.96Z" fill="black" fill-opacity="0.95"/>
<rect x="222.787" y="512" width="60" height="60" rx="30" fill="#DEDEDE"/>
<rect x="223.287" y="512.5" width="59" height="59" rx="29.5" stroke="white" stroke-opacity="0.2"/>
<rect x="214.787" y="592" width="76" height="32" rx="4" fill="white"/>
<path d="M223.811 613.56H225.459C225.603 614.392 226.307 614.904 227.523 614.904C229.075 614.904 229.875 614.12 229.875 612.744V611.672C229.315 612.328 228.387 612.76 227.107 612.76C225.155 612.76 223.427 611.304 223.427 608.648C223.427 606.04 224.947 604.44 227.203 604.44C228.499 604.44 229.379 605 229.907 605.784L230.147 604.68H231.411V612.824C231.411 614.712 230.035 616.12 227.571 616.12C225.347 616.12 224.083 615.112 223.811 613.56ZM225.027 608.68C225.027 610.44 226.115 611.448 227.443 611.448C229.027 611.448 229.955 610.408 229.955 608.728C229.955 606.776 228.931 605.752 227.443 605.752C226.035 605.752 225.027 606.696 225.027 608.68ZM235.193 613H233.657V604.68H234.921L235.129 605.912C235.593 604.952 236.313 604.44 237.241 604.44C237.641 604.44 237.961 604.504 238.153 604.552V606.088C237.849 606.008 237.545 605.944 237.177 605.944C236.121 605.944 235.193 606.728 235.193 608.824V613ZM240.672 607H239.04C239.2 605.464 240.528 604.44 242.608 604.44C244.784 604.44 246 605.608 246 607.32V613H244.736L244.544 611.864C244 612.632 243.104 613.24 241.76 613.24C239.936 613.24 238.88 612.216 238.88 610.856C238.88 609.336 239.792 608.472 242.032 608.088L244.464 607.672V607.256C244.464 606.232 243.776 605.656 242.544 605.656C241.36 605.656 240.784 606.168 240.672 607ZM244.464 608.872L242.4 609.24C240.912 609.496 240.512 609.96 240.512 610.696C240.512 611.496 241.088 611.944 242.128 611.944C243.296 611.944 244.464 611.08 244.464 609.944V608.872ZM254.789 604.68L251.893 613.112C251.269 614.936 250.709 616.12 249.173 616.12C248.837 616.12 248.629 616.088 248.181 615.976V614.728C248.501 614.808 248.725 614.84 248.981 614.84C249.717 614.84 249.957 614.312 250.437 613H249.941L246.885 604.68H248.549L250.901 611.752L253.253 604.68H254.789ZM261.909 608.52H256.149V607.16H261.909V608.52ZM265.926 604.728H264.31C264.55 602.936 266.038 601.56 268.246 601.56C270.326 601.56 271.894 602.776 271.894 604.744C271.894 606.264 271.238 607.24 269.222 609.16L266.662 611.592H271.846V613H264.582V611.592L268.23 608.088C269.75 606.632 270.326 605.848 270.326 604.76C270.326 603.624 269.542 602.856 268.214 602.856C266.95 602.856 266.054 603.56 265.926 604.728ZM277.743 613.24C275.471 613.24 273.743 611.384 273.743 607.368C273.743 603.24 275.487 601.56 277.743 601.56C279.999 601.56 281.743 603.24 281.743 607.368C281.743 611.384 280.015 613.24 277.743 613.24ZM277.743 611.96C279.375 611.96 280.175 610.504 280.175 607.368C280.175 604.248 279.375 602.84 277.743 602.84C276.111 602.84 275.311 604.248 275.311 607.368C275.311 610.504 276.111 611.96 277.743 611.96Z" fill="black" fill-opacity="0.95"/>
<rect x="311.102" y="512" width="60" height="60" rx="30" fill="#C9C9C9"/>
<rect x="311.602" y="512.5" width="59" height="59" rx="29.5" stroke="white" stroke-opacity="0.2"/>
<rect x="303.102" y="592" width="76" height="32" rx="4" fill="white"/>
<path d="M312.126 613.56H313.774C313.918 614.392 314.622 614.904 315.838 614.904C317.39 614.904 318.19 614.12 318.19 612.744V611.672C317.63 612.328 316.702 612.76 315.422 612.76C313.47 612.76 311.742 611.304 311.742 608.648C311.742 606.04 313.262 604.44 315.518 604.44C316.814 604.44 317.694 605 318.222 605.784L318.462 604.68H319.726V612.824C319.726 614.712 318.35 616.12 315.886 616.12C313.662 616.12 312.398 615.112 312.126 613.56ZM313.342 608.68C313.342 610.44 314.43 611.448 315.758 611.448C317.342 611.448 318.27 610.408 318.27 608.728C318.27 606.776 317.246 605.752 315.758 605.752C314.35 605.752 313.342 606.696 313.342 608.68ZM323.508 613H321.972V604.68H323.236L323.444 605.912C323.908 604.952 324.628 604.44 325.556 604.44C325.956 604.44 326.276 604.504 326.468 604.552V606.088C326.164 606.008 325.86 605.944 325.492 605.944C324.436 605.944 323.508 606.728 323.508 608.824V613ZM328.987 607H327.355C327.515 605.464 328.843 604.44 330.923 604.44C333.099 604.44 334.315 605.608 334.315 607.32V613H333.051L332.859 611.864C332.315 612.632 331.419 613.24 330.075 613.24C328.251 613.24 327.195 612.216 327.195 610.856C327.195 609.336 328.107 608.472 330.347 608.088L332.779 607.672V607.256C332.779 606.232 332.091 605.656 330.859 605.656C329.675 605.656 329.099 606.168 328.987 607ZM332.779 608.872L330.715 609.24C329.227 609.496 328.827 609.96 328.827 610.696C328.827 611.496 329.403 611.944 330.443 611.944C331.611 611.944 332.779 611.08 332.779 609.944V608.872ZM343.103 604.68L340.207 613.112C339.583 614.936 339.023 616.12 337.487 616.12C337.151 616.12 336.943 616.088 336.495 615.976V614.728C336.815 614.808 337.039 614.84 337.295 614.84C338.031 614.84 338.271 614.312 338.751 613H338.255L335.199 604.68H336.863L339.215 611.752L341.567 604.68H343.103ZM350.224 608.52H344.464V607.16H350.224V608.52ZM354.096 604.44H352.48C352.752 602.696 354.304 601.56 356.432 601.56C358.304 601.56 360.064 602.488 360.064 604.488C360.064 605.704 359.216 606.68 358.048 607.048C359.312 607.32 360.448 608.264 360.448 609.944C360.448 611.864 358.88 613.224 356.48 613.224C354.128 613.224 352.704 612.008 352.448 610.216H354.08C354.336 611.336 355.088 611.944 356.448 611.944C357.984 611.944 358.88 611.112 358.88 609.912C358.88 608.376 357.696 607.8 356.672 607.8H355.744V606.472H356.64C357.488 606.472 358.496 605.896 358.496 604.6C358.496 603.4 357.44 602.84 356.352 602.84C355.104 602.84 354.256 603.48 354.096 604.44ZM366.058 613.24C363.786 613.24 362.058 611.384 362.058 607.368C362.058 603.24 363.802 601.56 366.058 601.56C368.314 601.56 370.058 603.24 370.058 607.368C370.058 611.384 368.33 613.24 366.058 613.24ZM366.058 611.96C367.69 611.96 368.49 610.504 368.49 607.368C368.49 604.248 367.69 602.84 366.058 602.84C364.426 602.84 363.626 604.248 363.626 607.368C363.626 610.504 364.426 611.96 366.058 611.96Z" fill="black" fill-opacity="0.95"/>
<rect x="399.417" y="512" width="60" height="60" rx="30" fill="#ADADAD"/>
<rect x="399.917" y="512.5" width="59" height="59" rx="29.5" stroke="white" stroke-opacity="0.2"/>
<rect x="391.417" y="592" width="76" height="32" rx="4" fill="white"/>
<path d="M400.441 613.56H402.089C402.233 614.392 402.937 614.904 404.153 614.904C405.705 614.904 406.505 614.12 406.505 612.744V611.672C405.945 612.328 405.017 612.76 403.737 612.76C401.785 612.76 400.057 611.304 400.057 608.648C400.057 606.04 401.577 604.44 403.833 604.44C405.129 604.44 406.009 605 406.537 605.784L406.777 604.68H408.041V612.824C408.041 614.712 406.665 616.12 404.201 616.12C401.977 616.12 400.713 615.112 400.441 613.56ZM401.657 608.68C401.657 610.44 402.745 611.448 404.073 611.448C405.657 611.448 406.585 610.408 406.585 608.728C406.585 606.776 405.561 605.752 404.073 605.752C402.665 605.752 401.657 606.696 401.657 608.68ZM411.823 613H410.287V604.68H411.551L411.759 605.912C412.223 604.952 412.943 604.44 413.871 604.44C414.271 604.44 414.591 604.504 414.783 604.552V606.088C414.479 606.008 414.175 605.944 413.807 605.944C412.751 605.944 411.823 606.728 411.823 608.824V613ZM417.302 607H415.67C415.83 605.464 417.158 604.44 419.238 604.44C421.414 604.44 422.63 605.608 422.63 607.32V613H421.366L421.174 611.864C420.63 612.632 419.734 613.24 418.39 613.24C416.566 613.24 415.51 612.216 415.51 610.856C415.51 609.336 416.422 608.472 418.662 608.088L421.094 607.672V607.256C421.094 606.232 420.406 605.656 419.174 605.656C417.99 605.656 417.414 606.168 417.302 607ZM421.094 608.872L419.03 609.24C417.542 609.496 417.142 609.96 417.142 610.696C417.142 611.496 417.718 611.944 418.758 611.944C419.926 611.944 421.094 611.08 421.094 609.944V608.872ZM431.418 604.68L428.522 613.112C427.898 614.936 427.338 616.12 425.802 616.12C425.466 616.12 425.258 616.088 424.81 615.976V614.728C425.13 614.808 425.354 614.84 425.61 614.84C426.346 614.84 426.586 614.312 427.066 613H426.57L423.514 604.68H425.178L427.53 611.752L429.882 604.68H431.418ZM438.539 608.52H432.779V607.16H438.539V608.52ZM445.483 601.8H447.083V609.576H448.891V610.888H447.083V613H445.595V610.888H440.683V609.464L445.483 601.8ZM442.395 609.576H445.595V604.28L442.395 609.576ZM454.373 613.24C452.101 613.24 450.373 611.384 450.373 607.368C450.373 603.24 452.117 601.56 454.373 601.56C456.629 601.56 458.373 603.24 458.373 607.368C458.373 611.384 456.645 613.24 454.373 613.24ZM454.373 611.96C456.005 611.96 456.805 610.504 456.805 607.368C456.805 604.248 456.005 602.84 454.373 602.84C452.741 602.84 451.941 604.248 451.941 607.368C451.941 610.504 452.741 611.96 454.373 611.96Z" fill="black" fill-opacity="0.95"/>
<rect x="487.731" y="512" width="60" height="60" rx="30" fill="#8F8F8F"/>
<rect x="488.231" y="512.5" width="59" height="59" rx="29.5" stroke="white" stroke-opacity="0.2"/>
<rect x="479.731" y="592" width="76" height="32" rx="4" fill="white"/>
<path d="M488.755 613.56H490.403C490.547 614.392 491.251 614.904 492.467 614.904C494.019 614.904 494.819 614.12 494.819 612.744V611.672C494.259 612.328 493.331 612.76 492.051 612.76C490.099 612.76 488.371 611.304 488.371 608.648C488.371 606.04 489.891 604.44 492.147 604.44C493.443 604.44 494.323 605 494.851 605.784L495.091 604.68H496.355V612.824C496.355 614.712 494.979 616.12 492.515 616.12C490.291 616.12 489.027 615.112 488.755 613.56ZM489.971 608.68C489.971 610.44 491.059 611.448 492.387 611.448C493.971 611.448 494.899 610.408 494.899 608.728C494.899 606.776 493.875 605.752 492.387 605.752C490.979 605.752 489.971 606.696 489.971 608.68ZM500.137 613H498.601V604.68H499.865L500.073 605.912C500.537 604.952 501.257 604.44 502.185 604.44C502.585 604.44 502.905 604.504 503.097 604.552V606.088C502.793 606.008 502.489 605.944 502.121 605.944C501.065 605.944 500.137 606.728 500.137 608.824V613ZM505.617 607H503.985C504.145 605.464 505.473 604.44 507.553 604.44C509.729 604.44 510.945 605.608 510.945 607.32V613H509.681L509.489 611.864C508.945 612.632 508.049 613.24 506.705 613.24C504.881 613.24 503.825 612.216 503.825 610.856C503.825 609.336 504.737 608.472 506.977 608.088L509.409 607.672V607.256C509.409 606.232 508.721 605.656 507.489 605.656C506.305 605.656 505.729 606.168 505.617 607ZM509.409 608.872L507.345 609.24C505.857 609.496 505.457 609.96 505.457 610.696C505.457 611.496 506.033 611.944 507.073 611.944C508.241 611.944 509.409 611.08 509.409 609.944V608.872ZM519.733 604.68L516.837 613.112C516.213 614.936 515.653 616.12 514.117 616.12C513.781 616.12 513.573 616.088 513.125 615.976V614.728C513.445 614.808 513.669 614.84 513.925 614.84C514.661 614.84 514.901 614.312 515.381 613H514.885L511.829 604.68H513.493L515.845 611.752L518.197 604.68H519.733ZM526.853 608.52H521.093V607.16H526.853V608.52ZM529.11 610.28H530.742C530.95 611.192 531.75 611.944 533.11 611.944C534.486 611.944 535.542 610.984 535.542 609.304C535.542 607.656 534.582 606.76 533.142 606.76C532.374 606.76 531.51 607.064 530.902 607.784H529.542L529.782 601.8H536.662V603.096H531.174L531.046 606.376C531.67 605.88 532.454 605.56 533.494 605.56C535.446 605.56 537.126 606.856 537.126 609.368C537.126 611.448 535.654 613.24 533.094 613.24C530.79 613.24 529.366 611.8 529.11 610.28ZM542.688 613.24C540.416 613.24 538.688 611.384 538.688 607.368C538.688 603.24 540.432 601.56 542.688 601.56C544.944 601.56 546.688 603.24 546.688 607.368C546.688 611.384 544.96 613.24 542.688 613.24ZM542.688 611.96C544.32 611.96 545.12 610.504 545.12 607.368C545.12 604.248 544.32 602.84 542.688 602.84C541.056 602.84 540.256 604.248 540.256 607.368C540.256 610.504 541.056 611.96 542.688 611.96Z" fill="black" fill-opacity="0.95"/>
<rect x="576.046" y="512" width="60" height="60" rx="30" fill="#707070"/>
<rect x="576.546" y="512.5" width="59" height="59" rx="29.5" stroke="white" stroke-opacity="0.2"/>
<rect x="568.046" y="592" width="76" height="32" rx="4" fill="white"/>
<path d="M577.07 613.56H578.718C578.862 614.392 579.566 614.904 580.782 614.904C582.334 614.904 583.134 614.12 583.134 612.744V611.672C582.574 612.328 581.646 612.76 580.366 612.76C578.414 612.76 576.686 611.304 576.686 608.648C576.686 606.04 578.206 604.44 580.462 604.44C581.758 604.44 582.638 605 583.166 605.784L583.406 604.68H584.67V612.824C584.67 614.712 583.294 616.12 580.83 616.12C578.606 616.12 577.342 615.112 577.07 613.56ZM578.286 608.68C578.286 610.44 579.374 611.448 580.702 611.448C582.286 611.448 583.214 610.408 583.214 608.728C583.214 606.776 582.19 605.752 580.702 605.752C579.294 605.752 578.286 606.696 578.286 608.68ZM588.452 613H586.916V604.68H588.18L588.388 605.912C588.852 604.952 589.572 604.44 590.5 604.44C590.9 604.44 591.22 604.504 591.412 604.552V606.088C591.108 606.008 590.804 605.944 590.436 605.944C589.38 605.944 588.452 606.728 588.452 608.824V613ZM593.932 607H592.3C592.46 605.464 593.788 604.44 595.868 604.44C598.044 604.44 599.26 605.608 599.26 607.32V613H597.996L597.804 611.864C597.26 612.632 596.364 613.24 595.02 613.24C593.196 613.24 592.14 612.216 592.14 610.856C592.14 609.336 593.052 608.472 595.292 608.088L597.724 607.672V607.256C597.724 606.232 597.036 605.656 595.804 605.656C594.62 605.656 594.044 606.168 593.932 607ZM597.724 608.872L595.66 609.24C594.172 609.496 593.772 609.96 593.772 610.696C593.772 611.496 594.348 611.944 595.388 611.944C596.556 611.944 597.724 611.08 597.724 609.944V608.872ZM608.048 604.68L605.152 613.112C604.528 614.936 603.968 616.12 602.432 616.12C602.096 616.12 601.888 616.088 601.44 615.976V614.728C601.76 614.808 601.984 614.84 602.24 614.84C602.976 614.84 603.216 614.312 603.696 613H603.2L600.144 604.68H601.808L604.16 611.752L606.512 604.68H608.048ZM615.168 608.52H609.408V607.16H615.168V608.52ZM625.185 603.928H623.489C623.297 603.256 622.705 602.808 621.793 602.808C620.529 602.808 619.425 603.832 619.249 607.128C619.921 606.056 621.009 605.672 621.921 605.672C624.113 605.672 625.409 607.24 625.409 609.432C625.409 612.008 623.505 613.24 621.665 613.24C619.073 613.24 617.729 611.336 617.729 607.848C617.729 602.824 619.745 601.56 621.809 601.56C623.505 601.56 624.833 602.472 625.185 603.928ZM619.409 609.384C619.409 611.048 620.385 611.96 621.665 611.96C622.881 611.96 623.857 611.08 623.857 609.512C623.857 607.928 622.993 606.952 621.649 606.952C620.145 606.952 619.409 608.088 619.409 609.384ZM631.003 613.24C628.731 613.24 627.003 611.384 627.003 607.368C627.003 603.24 628.747 601.56 631.003 601.56C633.259 601.56 635.003 603.24 635.003 607.368C635.003 611.384 633.275 613.24 631.003 613.24ZM631.003 611.96C632.635 611.96 633.435 610.504 633.435 607.368C633.435 604.248 632.635 602.84 631.003 602.84C629.371 602.84 628.571 604.248 628.571 607.368C628.571 610.504 629.371 611.96 631.003 611.96Z" fill="black" fill-opacity="0.95"/>
<rect x="664.361" y="512" width="60" height="60" rx="30" fill="#545454"/>
<rect x="664.861" y="512.5" width="59" height="59" rx="29.5" stroke="white" stroke-opacity="0.2"/>
<rect x="656.361" y="592" width="76" height="32" rx="4" fill="white"/>
<path d="M665.385 613.56H667.033C667.177 614.392 667.881 614.904 669.097 614.904C670.649 614.904 671.449 614.12 671.449 612.744V611.672C670.889 612.328 669.961 612.76 668.681 612.76C666.729 612.76 665.001 611.304 665.001 608.648C665.001 606.04 666.521 604.44 668.777 604.44C670.073 604.44 670.953 605 671.481 605.784L671.721 604.68H672.985V612.824C672.985 614.712 671.609 616.12 669.145 616.12C666.921 616.12 665.657 615.112 665.385 613.56ZM666.601 608.68C666.601 610.44 667.689 611.448 669.017 611.448C670.601 611.448 671.529 610.408 671.529 608.728C671.529 606.776 670.505 605.752 669.017 605.752C667.609 605.752 666.601 606.696 666.601 608.68ZM676.767 613H675.231V604.68H676.495L676.703 605.912C677.167 604.952 677.887 604.44 678.815 604.44C679.215 604.44 679.535 604.504 679.727 604.552V606.088C679.423 606.008 679.119 605.944 678.751 605.944C677.695 605.944 676.767 606.728 676.767 608.824V613ZM682.246 607H680.614C680.774 605.464 682.102 604.44 684.182 604.44C686.358 604.44 687.574 605.608 687.574 607.32V613H686.31L686.118 611.864C685.574 612.632 684.678 613.24 683.334 613.24C681.51 613.24 680.454 612.216 680.454 610.856C680.454 609.336 681.366 608.472 683.606 608.088L686.038 607.672V607.256C686.038 606.232 685.35 605.656 684.118 605.656C682.934 605.656 682.358 606.168 682.246 607ZM686.038 608.872L683.974 609.24C682.486 609.496 682.086 609.96 682.086 610.696C682.086 611.496 682.662 611.944 683.702 611.944C684.87 611.944 686.038 611.08 686.038 609.944V608.872ZM696.363 604.68L693.467 613.112C692.843 614.936 692.283 616.12 690.747 616.12C690.411 616.12 690.203 616.088 689.755 615.976V614.728C690.075 614.808 690.299 614.84 690.555 614.84C691.291 614.84 691.531 614.312 692.011 613H691.515L688.459 604.68H690.123L692.475 611.752L694.827 604.68H696.363ZM703.483 608.52H697.723V607.16H703.483V608.52ZM713.244 603.176L708.668 613H706.924L711.612 603.176H706.124V601.8H713.244V603.176ZM719.317 613.24C717.045 613.24 715.317 611.384 715.317 607.368C715.317 603.24 717.061 601.56 719.317 601.56C721.573 601.56 723.317 603.24 723.317 607.368C723.317 611.384 721.589 613.24 719.317 613.24ZM719.317 611.96C720.949 611.96 721.749 610.504 721.749 607.368C721.749 604.248 720.949 602.84 719.317 602.84C717.685 602.84 716.885 604.248 716.885 607.368C716.885 610.504 717.685 611.96 719.317 611.96Z" fill="black" fill-opacity="0.95"/>
<rect x="752.676" y="512" width="60" height="60" rx="30" fill="#3B3B3B"/>
<rect x="753.176" y="512.5" width="59" height="59" rx="29.5" stroke="white" stroke-opacity="0.2"/>
<rect x="744.676" y="592" width="76" height="32" rx="4" fill="white"/>
<path d="M753.7 613.56H755.348C755.492 614.392 756.196 614.904 757.412 614.904C758.964 614.904 759.764 614.12 759.764 612.744V611.672C759.204 612.328 758.276 612.76 756.996 612.76C755.044 612.76 753.316 611.304 753.316 608.648C753.316 606.04 754.836 604.44 757.092 604.44C758.388 604.44 759.268 605 759.796 605.784L760.036 604.68H761.3V612.824C761.3 614.712 759.924 616.12 757.46 616.12C755.236 616.12 753.972 615.112 753.7 613.56ZM754.916 608.68C754.916 610.44 756.004 611.448 757.332 611.448C758.916 611.448 759.844 610.408 759.844 608.728C759.844 606.776 758.82 605.752 757.332 605.752C755.924 605.752 754.916 606.696 754.916 608.68ZM765.082 613H763.546V604.68H764.81L765.018 605.912C765.482 604.952 766.202 604.44 767.13 604.44C767.53 604.44 767.85 604.504 768.042 604.552V606.088C767.738 606.008 767.434 605.944 767.066 605.944C766.01 605.944 765.082 606.728 765.082 608.824V613ZM770.561 607H768.929C769.089 605.464 770.417 604.44 772.497 604.44C774.673 604.44 775.889 605.608 775.889 607.32V613H774.625L774.433 611.864C773.889 612.632 772.993 613.24 771.649 613.24C769.825 613.24 768.769 612.216 768.769 610.856C768.769 609.336 769.681 608.472 771.921 608.088L774.353 607.672V607.256C774.353 606.232 773.665 605.656 772.433 605.656C771.249 605.656 770.673 606.168 770.561 607ZM774.353 608.872L772.289 609.24C770.801 609.496 770.401 609.96 770.401 610.696C770.401 611.496 770.977 611.944 772.017 611.944C773.185 611.944 774.353 611.08 774.353 609.944V608.872ZM784.678 604.68L781.782 613.112C781.158 614.936 780.598 616.12 779.062 616.12C778.726 616.12 778.518 616.088 778.07 615.976V614.728C778.39 614.808 778.614 614.84 778.87 614.84C779.606 614.84 779.846 614.312 780.326 613H779.83L776.774 604.68H778.438L780.79 611.752L783.142 604.68H784.678ZM791.798 608.52H786.038V607.16H791.798V608.52ZM801.703 604.44C801.703 605.72 800.743 606.568 799.863 607.032C800.919 607.496 802.119 608.392 802.119 609.976C802.119 611.88 800.487 613.24 798.039 613.24C795.591 613.24 793.959 611.912 793.959 610.088C793.959 608.376 795.143 607.512 796.151 607.128C795.303 606.728 794.375 605.976 794.375 604.552C794.375 602.488 796.119 601.56 798.039 601.56C799.959 601.56 801.703 602.408 801.703 604.44ZM800.487 609.976C800.487 608.2 798.951 607.88 797.703 607.608C796.775 607.88 795.591 608.568 795.591 609.976C795.591 611.064 796.375 611.976 798.039 611.976C799.671 611.976 800.487 611.144 800.487 609.976ZM795.879 604.472C795.879 606.168 797.399 606.504 798.359 606.632C799.175 606.312 800.167 605.656 800.167 604.472C800.167 603.416 799.207 602.76 798.039 602.76C796.871 602.76 795.879 603.32 795.879 604.472ZM807.632 613.24C805.36 613.24 803.632 611.384 803.632 607.368C803.632 603.24 805.376 601.56 807.632 601.56C809.888 601.56 811.632 603.24 811.632 607.368C811.632 611.384 809.904 613.24 807.632 613.24ZM807.632 611.96C809.264 611.96 810.064 610.504 810.064 607.368C810.064 604.248 809.264 602.84 807.632 602.84C806 602.84 805.2 604.248 805.2 607.368C805.2 610.504 806 611.96 807.632 611.96Z" fill="black" fill-opacity="0.95"/>
<rect x="840.991" y="512" width="60" height="60" rx="30" fill="#262626"/>
<rect x="841.491" y="512.5" width="59" height="59" rx="29.5" stroke="white" stroke-opacity="0.2"/>
<rect x="832.991" y="592" width="76" height="32" rx="4" fill="white"/>
<path d="M842.015 613.56H843.663C843.807 614.392 844.511 614.904 845.727 614.904C847.279 614.904 848.079 614.12 848.079 612.744V611.672C847.519 612.328 846.591 612.76 845.311 612.76C843.359 612.76 841.631 611.304 841.631 608.648C841.631 606.04 843.151 604.44 845.407 604.44C846.703 604.44 847.583 605 848.111 605.784L848.351 604.68H849.615V612.824C849.615 614.712 848.239 616.12 845.775 616.12C843.551 616.12 842.287 615.112 842.015 613.56ZM843.231 608.68C843.231 610.44 844.319 611.448 845.647 611.448C847.231 611.448 848.159 610.408 848.159 608.728C848.159 606.776 847.135 605.752 845.647 605.752C844.239 605.752 843.231 606.696 843.231 608.68ZM853.397 613H851.861V604.68H853.125L853.333 605.912C853.797 604.952 854.517 604.44 855.445 604.44C855.845 604.44 856.165 604.504 856.357 604.552V606.088C856.053 606.008 855.749 605.944 855.381 605.944C854.325 605.944 853.397 606.728 853.397 608.824V613ZM858.876 607H857.244C857.404 605.464 858.732 604.44 860.812 604.44C862.988 604.44 864.204 605.608 864.204 607.32V613H862.94L862.748 611.864C862.204 612.632 861.308 613.24 859.964 613.24C858.14 613.24 857.084 612.216 857.084 610.856C857.084 609.336 857.996 608.472 860.236 608.088L862.668 607.672V607.256C862.668 606.232 861.98 605.656 860.748 605.656C859.564 605.656 858.988 606.168 858.876 607ZM862.668 608.872L860.604 609.24C859.116 609.496 858.716 609.96 858.716 610.696C858.716 611.496 859.292 611.944 860.332 611.944C861.5 611.944 862.668 611.08 862.668 609.944V608.872ZM872.992 604.68L870.096 613.112C869.472 614.936 868.912 616.12 867.376 616.12C867.04 616.12 866.832 616.088 866.384 615.976V614.728C866.704 614.808 866.928 614.84 867.184 614.84C867.92 614.84 868.16 614.312 868.64 613H868.144L865.088 604.68H866.752L869.104 611.752L871.456 604.68H872.992ZM880.113 608.52H874.353V607.16H880.113V608.52ZM882.833 610.84H884.529C884.737 611.56 885.345 611.992 886.289 611.992C887.649 611.992 888.657 610.984 888.817 607.688C888.145 608.76 887.057 609.128 886.161 609.128C884.113 609.128 882.673 607.72 882.673 605.368C882.673 603.048 884.289 601.56 886.417 601.56C889.009 601.56 890.353 603.352 890.353 606.952C890.353 611.864 888.449 613.24 886.225 613.24C884.497 613.24 883.201 612.296 882.833 610.84ZM888.673 605.416C888.673 603.752 887.697 602.84 886.417 602.84C885.185 602.84 884.225 603.736 884.225 605.288C884.225 606.968 885.185 607.848 886.433 607.848C887.937 607.848 888.673 606.712 888.673 605.416ZM895.947 613.24C893.675 613.24 891.947 611.384 891.947 607.368C891.947 603.24 893.691 601.56 895.947 601.56C898.203 601.56 899.947 603.24 899.947 607.368C899.947 611.384 898.219 613.24 895.947 613.24ZM895.947 611.96C897.579 611.96 898.379 610.504 898.379 607.368C898.379 604.248 897.579 602.84 895.947 602.84C894.315 602.84 893.515 604.248 893.515 607.368C893.515 610.504 894.315 611.96 895.947 611.96Z" fill="black" fill-opacity="0.95"/>
<rect x="929.306" y="512" width="60" height="60" rx="30" fill="#1A1A1A"/>
<rect x="929.806" y="512.5" width="59" height="59" rx="29.5" stroke="white" stroke-opacity="0.2"/>
<rect x="921.306" y="592" width="76" height="32" rx="4" fill="white"/>
<path d="M930.33 613.56H931.978C932.122 614.392 932.826 614.904 934.042 614.904C935.594 614.904 936.394 614.12 936.394 612.744V611.672C935.834 612.328 934.906 612.76 933.626 612.76C931.674 612.76 929.946 611.304 929.946 608.648C929.946 606.04 931.466 604.44 933.722 604.44C935.018 604.44 935.898 605 936.426 605.784L936.666 604.68H937.93V612.824C937.93 614.712 936.554 616.12 934.09 616.12C931.866 616.12 930.602 615.112 930.33 613.56ZM931.546 608.68C931.546 610.44 932.634 611.448 933.962 611.448C935.546 611.448 936.474 610.408 936.474 608.728C936.474 606.776 935.45 605.752 933.962 605.752C932.554 605.752 931.546 606.696 931.546 608.68ZM941.712 613H940.176V604.68H941.44L941.648 605.912C942.112 604.952 942.832 604.44 943.76 604.44C944.16 604.44 944.48 604.504 944.672 604.552V606.088C944.368 606.008 944.064 605.944 943.696 605.944C942.64 605.944 941.712 606.728 941.712 608.824V613ZM947.191 607H945.559C945.719 605.464 947.047 604.44 949.127 604.44C951.303 604.44 952.519 605.608 952.519 607.32V613H951.255L951.063 611.864C950.519 612.632 949.623 613.24 948.279 613.24C946.455 613.24 945.399 612.216 945.399 610.856C945.399 609.336 946.311 608.472 948.551 608.088L950.983 607.672V607.256C950.983 606.232 950.295 605.656 949.063 605.656C947.879 605.656 947.303 606.168 947.191 607ZM950.983 608.872L948.919 609.24C947.431 609.496 947.031 609.96 947.031 610.696C947.031 611.496 947.607 611.944 948.647 611.944C949.815 611.944 950.983 611.08 950.983 609.944V608.872ZM961.307 604.68L958.411 613.112C957.787 614.936 957.227 616.12 955.691 616.12C955.355 616.12 955.147 616.088 954.699 615.976V614.728C955.019 614.808 955.243 614.84 955.499 614.84C956.235 614.84 956.475 614.312 956.955 613H956.459L953.403 604.68H955.067L957.419 611.752L959.771 604.68H961.307ZM968.428 608.52H962.668V607.16H968.428V608.52ZM971.148 610.84H972.844C973.052 611.56 973.66 611.992 974.604 611.992C975.964 611.992 976.972 610.984 977.132 607.688C976.46 608.76 975.372 609.128 974.476 609.128C972.428 609.128 970.988 607.72 970.988 605.368C970.988 603.048 972.604 601.56 974.732 601.56C977.324 601.56 978.668 603.352 978.668 606.952C978.668 611.864 976.764 613.24 974.54 613.24C972.812 613.24 971.516 612.296 971.148 610.84ZM976.988 605.416C976.988 603.752 976.012 602.84 974.732 602.84C973.5 602.84 972.54 603.736 972.54 605.288C972.54 606.968 973.5 607.848 974.748 607.848C976.252 607.848 976.988 606.712 976.988 605.416ZM980.278 610.28H981.91C982.118 611.192 982.918 611.944 984.278 611.944C985.654 611.944 986.71 610.984 986.71 609.304C986.71 607.656 985.75 606.76 984.31 606.76C983.542 606.76 982.678 607.064 982.07 607.784H980.71L980.95 601.8H987.83V603.096H982.342L982.214 606.376C982.838 605.88 983.622 605.56 984.662 605.56C986.614 605.56 988.294 606.856 988.294 609.368C988.294 611.448 986.822 613.24 984.262 613.24C981.958 613.24 980.534 611.8 980.278 610.28Z" fill="black" fill-opacity="0.95"/>
<rect x="1017.62" y="512" width="60" height="60" rx="30" fill="#0F0F0F"/>
<rect x="1018.12" y="512.5" width="59" height="59" rx="29.5" stroke="white" stroke-opacity="0.2"/>
<rect x="1004.62" y="592" width="86" height="32" rx="4" fill="white"/>
<path d="M1013.64 613.56H1015.29C1015.44 614.392 1016.14 614.904 1017.36 614.904C1018.91 614.904 1019.71 614.12 1019.71 612.744V611.672C1019.15 612.328 1018.22 612.76 1016.94 612.76C1014.99 612.76 1013.26 611.304 1013.26 608.648C1013.26 606.04 1014.78 604.44 1017.04 604.44C1018.33 604.44 1019.21 605 1019.74 605.784L1019.98 604.68H1021.24V612.824C1021.24 614.712 1019.87 616.12 1017.4 616.12C1015.18 616.12 1013.92 615.112 1013.64 613.56ZM1014.86 608.68C1014.86 610.44 1015.95 611.448 1017.28 611.448C1018.86 611.448 1019.79 610.408 1019.79 608.728C1019.79 606.776 1018.76 605.752 1017.28 605.752C1015.87 605.752 1014.86 606.696 1014.86 608.68ZM1025.03 613H1023.49V604.68H1024.75L1024.96 605.912C1025.43 604.952 1026.15 604.44 1027.07 604.44C1027.47 604.44 1027.79 604.504 1027.99 604.552V606.088C1027.68 606.008 1027.38 605.944 1027.01 605.944C1025.95 605.944 1025.03 606.728 1025.03 608.824V613ZM1030.51 607H1028.87C1029.03 605.464 1030.36 604.44 1032.44 604.44C1034.62 604.44 1035.83 605.608 1035.83 607.32V613H1034.57L1034.38 611.864C1033.83 612.632 1032.94 613.24 1031.59 613.24C1029.77 613.24 1028.71 612.216 1028.71 610.856C1028.71 609.336 1029.63 608.472 1031.87 608.088L1034.3 607.672V607.256C1034.3 606.232 1033.61 605.656 1032.38 605.656C1031.19 605.656 1030.62 606.168 1030.51 607ZM1034.3 608.872L1032.23 609.24C1030.75 609.496 1030.35 609.96 1030.35 610.696C1030.35 611.496 1030.92 611.944 1031.96 611.944C1033.13 611.944 1034.3 611.08 1034.3 609.944V608.872ZM1044.62 604.68L1041.73 613.112C1041.1 614.936 1040.54 616.12 1039.01 616.12C1038.67 616.12 1038.46 616.088 1038.01 615.976V614.728C1038.33 614.808 1038.56 614.84 1038.81 614.84C1039.55 614.84 1039.79 614.312 1040.27 613H1039.77L1036.72 604.68H1038.38L1040.73 611.752L1043.09 604.68H1044.62ZM1051.74 608.52H1045.98V607.16H1051.74V608.52ZM1059.34 613H1057.82V603.4L1055.31 604.696V603.112L1057.84 601.8H1059.34V613ZM1067.58 613.24C1065.3 613.24 1063.58 611.384 1063.58 607.368C1063.58 603.24 1065.32 601.56 1067.58 601.56C1069.83 601.56 1071.58 603.24 1071.58 607.368C1071.58 611.384 1069.85 613.24 1067.58 613.24ZM1067.58 611.96C1069.21 611.96 1070.01 610.504 1070.01 607.368C1070.01 604.248 1069.21 602.84 1067.58 602.84C1065.94 602.84 1065.14 604.248 1065.14 607.368C1065.14 610.504 1065.94 611.96 1067.58 611.96ZM1077.17 613.24C1074.9 613.24 1073.17 611.384 1073.17 607.368C1073.17 603.24 1074.91 601.56 1077.17 601.56C1079.43 601.56 1081.17 603.24 1081.17 607.368C1081.17 611.384 1079.44 613.24 1077.17 613.24ZM1077.17 611.96C1078.8 611.96 1079.6 610.504 1079.6 607.368C1079.6 604.248 1078.8 602.84 1077.17 602.84C1075.54 602.84 1074.74 604.248 1074.74 607.368C1074.74 610.504 1075.54 611.96 1077.17 611.96Z" fill="black" fill-opacity="0.95"/>
</svg>
