<svg width="634" height="316" viewBox="0 0 634 316" fill="none" xmlns="http://www.w3.org/2000/svg">
<rect width="634" height="316" rx="24" fill="#262626"/>
<path d="M267.781 157.102H254.714C252.918 157.102 251.448 155.632 251.448 153.835V91.7683C251.448 84.5817 257.328 78.7017 264.514 78.7017H375.581C382.768 78.7017 388.648 84.5817 388.648 91.7683V132.602M267.781 157.102C267.781 160.71 270.706 163.635 274.314 163.635C277.923 163.635 280.848 160.71 280.848 157.102M267.781 157.102C267.781 153.493 270.706 150.568 274.314 150.568C277.923 150.568 280.848 153.493 280.848 157.102M240.014 157.102H231.848C228.254 157.102 225.314 160.042 225.314 163.635V232.235C225.314 234.032 226.784 235.502 228.581 235.502H236.421C237.728 235.502 238.871 234.848 239.361 233.705L243.281 225.702H305.348L309.268 233.705C309.758 234.848 310.901 235.502 312.208 235.502H320.048C321.844 235.502 323.314 234.032 323.314 232.235V163.635C323.314 160.042 320.374 157.102 316.781 157.102H280.848M369.048 181.602V202.835C369.048 206.428 371.988 209.368 375.581 209.368H401.714C405.308 209.368 408.248 206.428 408.248 202.835V150.568C408.248 146.975 405.308 144.035 401.714 144.035H375.581C371.988 144.035 369.048 146.975 369.048 150.568V166.902C369.048 168.698 367.578 170.168 365.781 170.168H339.648C337.851 170.168 336.381 171.638 336.381 173.435V193.035C336.381 194.832 337.851 196.302 339.648 196.302H355.981M225.478 215.902H323.314" stroke="url(#paint0_linear_1266_34773)" stroke-width="2.5" stroke-linecap="round" stroke-linejoin="round"/>
<defs>
<linearGradient id="paint0_linear_1266_34773" x1="316.781" y1="78.7017" x2="316.781" y2="235.502" gradientUnits="userSpaceOnUse">
<stop stop-color="#F55868"/>
<stop offset="1" stop-color="#875AE0"/>
</linearGradient>
</defs>
</svg>
