<svg width="32" height="32" viewBox="0 0 32 32" fill="none" xmlns="http://www.w3.org/2000/svg">
<path d="M27.8816 23.6889L20.884 16.6913L27.4314 10.1439C28.2281 9.403 28.6991 8.37679 28.7413 7.28962C28.7836 6.20245 28.3937 5.14276 27.657 4.34219C27.2808 3.96522 26.8283 3.67317 26.3299 3.48569C25.8315 3.29821 25.2987 3.21964 24.7673 3.25528C23.667 3.31435 22.6286 3.78288 21.8562 4.56875L15.3118 11.1191L15.2673 11.0746C15.7352 10.3627 15.9433 9.51117 15.8565 8.66368C15.7697 7.8162 15.3933 7.02457 14.7908 6.42227L12.7029 4.33438C11.9975 3.66116 11.0599 3.28555 10.0848 3.28555C9.10966 3.28555 8.17203 3.66116 7.46661 4.33438C7.39695 4.404 7.34169 4.48667 7.30399 4.57765C7.26628 4.66864 7.24688 4.76616 7.24688 4.86465C7.24688 4.96314 7.26628 5.06066 7.30399 5.15164C7.34169 5.24263 7.39695 5.32529 7.46661 5.39492L9.89141 7.81973C9.91463 7.84293 9.93305 7.87049 9.94562 7.90082C9.95819 7.93114 9.96466 7.96365 9.96466 7.99648C9.96466 8.02931 9.95819 8.06182 9.94562 8.09215C9.93305 8.12248 9.91463 8.15003 9.89141 8.17324L8.17359 9.89101C8.15431 9.92027 8.12807 9.94429 8.09721 9.9609C8.06636 9.97752 8.03187 9.98622 7.99683 9.98622C7.96179 9.98622 7.92729 9.97752 7.89644 9.9609C7.86559 9.94429 7.83935 9.92027 7.82007 9.89101L5.39527 7.46621C5.25194 7.33075 5.06221 7.25527 4.86499 7.25527C4.66778 7.25527 4.47805 7.33075 4.33472 7.46621C3.99076 7.80995 3.7179 8.2181 3.53174 8.66734C3.34557 9.11658 3.24976 9.59809 3.24976 10.0844C3.24976 10.5707 3.34557 11.0522 3.53174 11.5014C3.7179 11.9506 3.99076 12.3588 4.33472 12.7025L6.42261 14.7904C7.03275 15.3793 7.82287 15.7463 8.66641 15.8327C9.50995 15.9191 10.3581 15.7199 11.0749 15.267L13.3735 17.5655L7.46924 23.4694C7.05561 23.2731 6.59146 23.2092 6.1402 23.2866C5.68894 23.364 5.27258 23.5788 4.948 23.9018L3.90211 24.9467C3.48434 25.3646 3.24969 25.9313 3.24978 26.5222C3.24987 27.1131 3.4847 27.6798 3.90259 28.0976C4.32049 28.5153 4.88723 28.75 5.47813 28.7499C6.06903 28.7498 6.6357 28.515 7.05347 28.0971L8.0984 27.0521C8.42149 26.7274 8.63638 26.3108 8.71367 25.8592C8.79097 25.4077 8.72689 24.9433 8.53022 24.5296L14.434 18.6261L23.6892 27.8812C24.2452 28.4372 24.9992 28.7495 25.7854 28.7495C26.5716 28.7495 27.3257 28.4372 27.8816 27.8812C28.4375 27.3253 28.7499 26.5713 28.7499 25.7851C28.7499 24.9988 28.4375 24.2448 27.8816 23.6889ZM7.03785 25.9916L5.99294 27.0365C5.85644 27.1732 5.67127 27.25 5.47814 27.25C5.28502 27.2501 5.09977 27.1735 4.96315 27.037C4.82652 26.9005 4.74972 26.7153 4.74963 26.5222C4.74953 26.3291 4.82616 26.1439 4.96266 26.0072L6.00856 24.9623C6.14505 24.8258 6.33017 24.7491 6.5232 24.7491C6.71623 24.7491 6.90136 24.8258 7.03785 24.9623C7.17435 25.0988 7.25103 25.2839 7.25103 25.4769C7.25103 25.67 7.17434 25.8551 7.03785 25.9916ZM22.9167 5.6293C23.426 5.10771 24.1118 4.79527 24.8396 4.7533C24.8816 4.75134 24.9236 4.75037 24.9656 4.75037C25.2782 4.74316 25.5889 4.80161 25.8776 4.92192C26.1662 5.04224 26.4265 5.22175 26.6414 5.44887C26.8564 5.676 27.0214 5.94568 27.1256 6.2405C27.2299 6.53533 27.2712 6.84875 27.2469 7.16053C27.2049 7.8883 26.8925 8.57411 26.3709 9.08338L19.8235 15.6307L18.6265 14.4337L24.9734 8.08731C25.043 8.01767 25.0983 7.935 25.136 7.84402C25.1736 7.75303 25.193 7.65551 25.193 7.55703C25.193 7.45855 25.1736 7.36103 25.136 7.27005C25.0983 7.17907 25.043 7.09639 24.9734 7.02676C24.9038 6.95712 24.8211 6.90188 24.7301 6.86419C24.6391 6.82651 24.5416 6.80711 24.4431 6.80711C24.3446 6.80711 24.2471 6.82651 24.1561 6.86419C24.0652 6.90188 23.9825 6.95712 23.9128 7.02676L17.566 13.3733L16.3724 12.1796L22.9167 5.6293ZM26.821 26.8207C26.546 27.0946 26.1736 27.2484 25.7854 27.2484C25.3972 27.2484 25.0248 27.0946 24.7498 26.8207L11.6589 13.7299C11.5893 13.6602 11.5066 13.605 11.4157 13.5673C11.3247 13.5296 11.2272 13.5102 11.1287 13.5102C11.0302 13.5102 10.9327 13.5296 10.8417 13.5673C10.7507 13.605 10.668 13.6602 10.5984 13.7299C10.1851 14.1426 9.62487 14.3744 9.04078 14.3744C8.45669 14.3744 7.89647 14.1426 7.48316 13.7299L5.39527 11.642C5.07527 11.3216 4.86156 10.9105 4.78312 10.4645C4.70469 10.0185 4.76531 9.55921 4.95679 9.14885L6.75953 10.9516C7.08808 11.279 7.533 11.4628 7.99683 11.4628C8.46066 11.4628 8.90558 11.279 9.23414 10.9516L10.9519 9.23379C11.2798 8.90546 11.4639 8.46046 11.4639 7.99648C11.4639 7.53251 11.2798 7.0875 10.9519 6.75918L9.14918 4.95645C9.56077 4.77097 10.0186 4.7136 10.4633 4.79179C10.9079 4.86999 11.3187 5.08014 11.6423 5.39492L13.7302 7.48282C14.1425 7.89636 14.374 8.45649 14.374 9.04043C14.374 9.62438 14.1425 10.1845 13.7302 10.598C13.6606 10.6677 13.6053 10.7503 13.5676 10.8413C13.5299 10.9323 13.5105 11.0298 13.5105 11.1283C13.5105 11.2268 13.5299 11.3243 13.5676 11.4153C13.6053 11.5063 13.6606 11.589 13.7302 11.6586L26.821 24.7494C27.0956 25.0242 27.2498 25.3967 27.2498 25.7851C27.2498 26.1735 27.0956 26.546 26.821 26.8207Z" fill="#FCE1FC"/>
</svg>
