<svg width="575" height="719" viewBox="0 0 575 719" fill="none" xmlns="http://www.w3.org/2000/svg">
<rect width="575" height="719" fill="#1A1A1A"/>
<path d="M54 78H46.8182V54.7273H54.3182C56.5758 54.7273 58.5076 55.1932 60.1136 56.125C61.7197 57.0492 62.9508 58.3788 63.8068 60.1136C64.6629 61.8409 65.0909 63.9091 65.0909 66.3182C65.0909 68.7424 64.6591 70.8295 63.7955 72.5795C62.9318 74.322 61.6742 75.6629 60.0227 76.6023C58.3712 77.5341 56.3636 78 54 78ZM49.6364 75.5H53.8182C55.7424 75.5 57.3371 75.1288 58.6023 74.3864C59.8674 73.6439 60.8106 72.5871 61.4318 71.2159C62.053 69.8447 62.3636 68.2121 62.3636 66.3182C62.3636 64.4394 62.0568 62.822 61.4432 61.4659C60.8295 60.1023 59.9129 59.0568 58.6932 58.3295C57.4735 57.5947 55.9545 57.2273 54.1364 57.2273H49.6364V75.5ZM74.5909 78.4091C73.4848 78.4091 72.4811 78.2008 71.5795 77.7841C70.678 77.3598 69.9621 76.75 69.4318 75.9545C68.9015 75.1515 68.6364 74.1818 68.6364 73.0455C68.6364 72.0455 68.8333 71.2348 69.2273 70.6136C69.6212 69.9848 70.1477 69.4924 70.8068 69.1364C71.4659 68.7803 72.1932 68.5152 72.9886 68.3409C73.7917 68.1591 74.5985 68.0152 75.4091 67.9091C76.4697 67.7727 77.3295 67.6705 77.9886 67.6023C78.6553 67.5265 79.1402 67.4015 79.4432 67.2273C79.7538 67.053 79.9091 66.75 79.9091 66.3182V66.2273C79.9091 65.1061 79.6023 64.2348 78.9886 63.6136C78.3826 62.9924 77.4621 62.6818 76.2273 62.6818C74.947 62.6818 73.9432 62.9621 73.2159 63.5227C72.4886 64.0833 71.9773 64.6818 71.6818 65.3182L69.1364 64.4091C69.5909 63.3485 70.197 62.5227 70.9545 61.9318C71.7197 61.3333 72.553 60.9167 73.4545 60.6818C74.3636 60.4394 75.2576 60.3182 76.1364 60.3182C76.697 60.3182 77.3409 60.3864 78.0682 60.5227C78.803 60.6515 79.5114 60.9205 80.1932 61.3295C80.8826 61.7386 81.4545 62.3561 81.9091 63.1818C82.3636 64.0076 82.5909 65.1136 82.5909 66.5V78H79.9091V75.6364H79.7727C79.5909 76.0152 79.2879 76.4205 78.8636 76.8523C78.4394 77.2841 77.875 77.6515 77.1705 77.9545C76.4659 78.2576 75.6061 78.4091 74.5909 78.4091ZM75 76C76.0606 76 76.9545 75.7917 77.6818 75.375C78.4167 74.9583 78.9697 74.4205 79.3409 73.7614C79.7197 73.1023 79.9091 72.4091 79.9091 71.6818V69.2273C79.7955 69.3636 79.5455 69.4886 79.1591 69.6023C78.7803 69.7083 78.3409 69.803 77.8409 69.8864C77.3485 69.9621 76.8674 70.0303 76.3977 70.0909C75.9356 70.1439 75.5606 70.1894 75.2727 70.2273C74.5758 70.3182 73.9242 70.4659 73.3182 70.6705C72.7197 70.8674 72.2348 71.1667 71.8636 71.5682C71.5 71.9621 71.3182 72.5 71.3182 73.1818C71.3182 74.1136 71.6629 74.8182 72.3523 75.2955C73.0492 75.7652 73.9318 76 75 76ZM87.4858 78V60.5455H90.0767V63.1818H90.2585C90.5767 62.3182 91.1525 61.6174 91.9858 61.0795C92.8191 60.5417 93.7585 60.2727 94.804 60.2727C95.0009 60.2727 95.2472 60.2765 95.5426 60.2841C95.8381 60.2917 96.0616 60.303 96.2131 60.3182V63.0455C96.1222 63.0227 95.9138 62.9886 95.5881 62.9432C95.2699 62.8902 94.9328 62.8636 94.5767 62.8636C93.7282 62.8636 92.9706 63.0417 92.304 63.3977C91.6449 63.7462 91.1222 64.2311 90.7358 64.8523C90.357 65.4659 90.1676 66.1667 90.1676 66.9545V78H87.4858ZM101.892 71.6364L101.847 68.3182H102.392L110.028 60.5455H113.347L105.21 68.7727H104.983L101.892 71.6364ZM99.392 78V54.7273H102.074V78H99.392ZM110.483 78L103.665 69.3636L105.574 67.5L113.892 78H110.483ZM141.435 54.7273H144.253V70.1364C144.253 71.7273 143.878 73.1477 143.128 74.3977C142.385 75.6402 141.336 76.6212 139.98 77.3409C138.624 78.053 137.033 78.4091 135.207 78.4091C133.382 78.4091 131.791 78.053 130.435 77.3409C129.079 76.6212 128.026 75.6402 127.276 74.3977C126.533 73.1477 126.162 71.7273 126.162 70.1364V54.7273H128.98V69.9091C128.98 71.0455 129.23 72.0568 129.73 72.9432C130.23 73.822 130.942 74.5152 131.866 75.0227C132.798 75.5227 133.912 75.7727 135.207 75.7727C136.503 75.7727 137.616 75.5227 138.548 75.0227C139.48 74.5152 140.192 73.822 140.685 72.9432C141.185 72.0568 141.435 71.0455 141.435 69.9091V54.7273ZM152.699 54.7273V78H149.881V54.7273H152.699ZM174.304 78.3636C172.622 78.3636 171.171 77.9924 169.952 77.25C168.74 76.5 167.804 75.4545 167.145 74.1136C166.493 72.7652 166.168 71.197 166.168 69.4091C166.168 67.6212 166.493 66.0455 167.145 64.6818C167.804 63.3106 168.721 62.2424 169.895 61.4773C171.077 60.7045 172.455 60.3182 174.031 60.3182C174.94 60.3182 175.838 60.4697 176.724 60.7727C177.611 61.0758 178.418 61.5682 179.145 62.25C179.872 62.9242 180.452 63.8182 180.884 64.9318C181.315 66.0455 181.531 67.4167 181.531 69.0455V70.1818H168.077V67.8636H178.804C178.804 66.8788 178.607 66 178.213 65.2273C177.827 64.4545 177.274 63.8447 176.554 63.3977C175.842 62.9508 175.001 62.7273 174.031 62.7273C172.963 62.7273 172.039 62.9924 171.259 63.5227C170.486 64.0455 169.891 64.7273 169.474 65.5682C169.058 66.4091 168.849 67.3106 168.849 68.2727V69.8182C168.849 71.1364 169.077 72.2538 169.531 73.1705C169.993 74.0795 170.634 74.7727 171.452 75.25C172.27 75.7197 173.221 75.9545 174.304 75.9545C175.009 75.9545 175.645 75.8561 176.213 75.6591C176.789 75.4545 177.285 75.1515 177.702 74.75C178.118 74.3409 178.44 73.8333 178.668 73.2273L181.259 73.9545C180.986 74.8333 180.527 75.6061 179.884 76.2727C179.24 76.9318 178.444 77.447 177.497 77.8182C176.55 78.1818 175.486 78.3636 174.304 78.3636ZM187.142 60.5455L191.324 67.6818L195.506 60.5455H198.597L192.96 69.2727L198.597 78H195.506L191.324 71.2273L187.142 78H184.051L189.597 69.2727L184.051 60.5455H187.142ZM207.56 78.4091C206.454 78.4091 205.45 78.2008 204.548 77.7841C203.647 77.3598 202.931 76.75 202.401 75.9545C201.87 75.1515 201.605 74.1818 201.605 73.0455C201.605 72.0455 201.802 71.2348 202.196 70.6136C202.59 69.9848 203.116 69.4924 203.776 69.1364C204.435 68.7803 205.162 68.5152 205.957 68.3409C206.76 68.1591 207.567 68.0152 208.378 67.9091C209.438 67.7727 210.298 67.6705 210.957 67.6023C211.624 67.5265 212.109 67.4015 212.412 67.2273C212.723 67.053 212.878 66.75 212.878 66.3182V66.2273C212.878 65.1061 212.571 64.2348 211.957 63.6136C211.351 62.9924 210.431 62.6818 209.196 62.6818C207.916 62.6818 206.912 62.9621 206.185 63.5227C205.457 64.0833 204.946 64.6818 204.651 65.3182L202.105 64.4091C202.56 63.3485 203.166 62.5227 203.923 61.9318C204.688 61.3333 205.522 60.9167 206.423 60.6818C207.332 60.4394 208.226 60.3182 209.105 60.3182C209.666 60.3182 210.31 60.3864 211.037 60.5227C211.772 60.6515 212.48 60.9205 213.162 61.3295C213.851 61.7386 214.423 62.3561 214.878 63.1818C215.332 64.0076 215.56 65.1136 215.56 66.5V78H212.878V75.6364H212.741C212.56 76.0152 212.257 76.4205 211.832 76.8523C211.408 77.2841 210.844 77.6515 210.139 77.9545C209.435 78.2576 208.575 78.4091 207.56 78.4091ZM207.969 76C209.029 76 209.923 75.7917 210.651 75.375C211.385 74.9583 211.938 74.4205 212.31 73.7614C212.688 73.1023 212.878 72.4091 212.878 71.6818V69.2273C212.764 69.3636 212.514 69.4886 212.128 69.6023C211.749 69.7083 211.31 69.803 210.81 69.8864C210.317 69.9621 209.836 70.0303 209.366 70.0909C208.904 70.1439 208.529 70.1894 208.241 70.2273C207.545 70.3182 206.893 70.4659 206.287 70.6705C205.688 70.8674 205.204 71.1667 204.832 71.5682C204.469 71.9621 204.287 72.5 204.287 73.1818C204.287 74.1136 204.632 74.8182 205.321 75.2955C206.018 75.7652 206.901 76 207.969 76ZM220.455 78V60.5455H223.045V63.2727H223.273C223.636 62.3409 224.223 61.6174 225.034 61.1023C225.845 60.5795 226.818 60.3182 227.955 60.3182C229.106 60.3182 230.064 60.5795 230.83 61.1023C231.602 61.6174 232.205 62.3409 232.636 63.2727H232.818C233.265 62.3712 233.936 61.6553 234.83 61.125C235.723 60.5871 236.795 60.3182 238.045 60.3182C239.606 60.3182 240.883 60.8068 241.875 61.7841C242.867 62.7538 243.364 64.2652 243.364 66.3182V78H240.682V66.3182C240.682 65.0303 240.33 64.1098 239.625 63.5568C238.92 63.0038 238.091 62.7273 237.136 62.7273C235.909 62.7273 234.958 63.0985 234.284 63.8409C233.61 64.5758 233.273 65.5076 233.273 66.6364V78H230.545V66.0455C230.545 65.053 230.223 64.2538 229.58 63.6477C228.936 63.0341 228.106 62.7273 227.091 62.7273C226.394 62.7273 225.742 62.9129 225.136 63.2841C224.538 63.6553 224.053 64.1705 223.682 64.8295C223.318 65.4811 223.136 66.2348 223.136 67.0909V78H220.455ZM248.267 84.5455V60.5455H250.858V63.3182H251.176C251.373 63.0152 251.646 62.6288 251.994 62.1591C252.35 61.6818 252.858 61.2576 253.517 60.8864C254.184 60.5076 255.085 60.3182 256.222 60.3182C257.691 60.3182 258.987 60.6856 260.108 61.4205C261.229 62.1553 262.104 63.197 262.733 64.5455C263.362 65.8939 263.676 67.4848 263.676 69.3182C263.676 71.1667 263.362 72.7689 262.733 74.125C262.104 75.4735 261.233 76.5189 260.119 77.2614C259.006 77.9962 257.722 78.3636 256.267 78.3636C255.146 78.3636 254.248 78.178 253.574 77.8068C252.9 77.428 252.381 77 252.017 76.5227C251.653 76.0379 251.373 75.6364 251.176 75.3182H250.949V84.5455H248.267ZM250.903 69.2727C250.903 70.5909 251.097 71.7538 251.483 72.7614C251.869 73.7614 252.434 74.5455 253.176 75.1136C253.919 75.6742 254.828 75.9545 255.903 75.9545C257.025 75.9545 257.96 75.6591 258.71 75.0682C259.468 74.4697 260.036 73.6667 260.415 72.6591C260.801 71.6439 260.994 70.5152 260.994 69.2727C260.994 68.0455 260.805 66.9394 260.426 65.9545C260.055 64.9621 259.491 64.178 258.733 63.6023C257.983 63.0189 257.04 62.7273 255.903 62.7273C254.813 62.7273 253.896 63.0038 253.153 63.5568C252.411 64.1023 251.85 64.8674 251.472 65.8523C251.093 66.8295 250.903 67.9697 250.903 69.2727ZM270.449 54.7273V78H267.767V54.7273H270.449ZM282.679 78.3636C280.997 78.3636 279.546 77.9924 278.327 77.25C277.115 76.5 276.179 75.4545 275.52 74.1136C274.868 72.7652 274.543 71.197 274.543 69.4091C274.543 67.6212 274.868 66.0455 275.52 64.6818C276.179 63.3106 277.096 62.2424 278.27 61.4773C279.452 60.7045 280.83 60.3182 282.406 60.3182C283.315 60.3182 284.213 60.4697 285.099 60.7727C285.986 61.0758 286.793 61.5682 287.52 62.25C288.247 62.9242 288.827 63.8182 289.259 64.9318C289.69 66.0455 289.906 67.4167 289.906 69.0455V70.1818H276.452V67.8636H287.179C287.179 66.8788 286.982 66 286.588 65.2273C286.202 64.4545 285.649 63.8447 284.929 63.3977C284.217 62.9508 283.376 62.7273 282.406 62.7273C281.338 62.7273 280.414 62.9924 279.634 63.5227C278.861 64.0455 278.266 64.7273 277.849 65.5682C277.433 66.4091 277.224 67.3106 277.224 68.2727V69.8182C277.224 71.1364 277.452 72.2538 277.906 73.1705C278.368 74.0795 279.009 74.7727 279.827 75.25C280.645 75.7197 281.596 75.9545 282.679 75.9545C283.384 75.9545 284.02 75.8561 284.588 75.6591C285.164 75.4545 285.66 75.1515 286.077 74.75C286.493 74.3409 286.815 73.8333 287.043 73.2273L289.634 73.9545C289.361 74.8333 288.902 75.6061 288.259 76.2727C287.615 76.9318 286.819 77.447 285.872 77.8182C284.925 78.1818 283.861 78.3636 282.679 78.3636Z" fill="white" fill-opacity="0.95"/>
<path d="M284.366 205.2C284.366 180.9 264.666 161.2 240.366 161.2C216.066 161.2 196.366 180.9 196.366 205.2C196.366 220.2 203.866 233.3 215.366 241.2M220.366 281.2C226.966 281.2 232.366 275.8 232.366 269.2V235.2C232.366 231.9 229.666 229.2 226.366 229.2C223.066 229.2 220.366 231.9 220.366 235.2C220.366 249.2 242.466 265.2 258.366 265.2C270.566 265.2 280.366 255.4 280.366 243.2V215.2C280.366 206.4 273.166 199.2 264.366 199.2H256.366C247.566 199.2 240.366 206.4 240.366 215.2M268.366 224.2C268.366 224.2 271.366 233.2 272.366 236.2C273.366 239.2 271.366 241.2 268.366 241.2H266.366M378.466 243.3H372.466C365.866 243.3 360.466 237.9 360.466 231.3V197.3C360.466 194 363.166 191.3 366.466 191.3C369.766 191.3 372.466 194 372.466 197.3C372.466 211.3 350.366 227.3 334.466 227.3C322.266 227.3 312.466 217.5 312.466 205.3V177.3M324.466 186.3C324.466 186.3 321.466 195.3 320.466 198.3C319.466 201.3 321.466 203.3 324.466 203.3H326.466M312.366 177.2C312.366 168.4 319.566 161.2 328.366 161.2C346.366 161.2 343.366 185.2 366.366 185.2M334.366 153.2C352.366 153.2 349.366 177.2 372.366 177.2M340.366 145.2C358.366 145.2 355.366 169.2 378.366 169.2M304.366 309.3C304.366 294.3 296.366 289.3 284.366 285.3L272.366 281.3C266.366 279.3 260.366 277.3 260.366 272.3M332.366 234.2C332.366 239.2 326.366 241.2 320.366 243.2L308.366 247.2C296.366 251.2 288.366 256.2 288.366 271.2V309.2C288.366 313.6 291.966 317.2 296.366 317.2C300.766 317.2 304.366 313.6 304.366 309.2" stroke="white" stroke-width="2.5" stroke-miterlimit="10" stroke-linecap="round" stroke-linejoin="round"/>
<path d="M256.366 229.2C257.471 229.2 258.366 228.305 258.366 227.2C258.366 226.095 257.471 225.2 256.366 225.2C255.261 225.2 254.366 226.095 254.366 227.2C254.366 228.305 255.261 229.2 256.366 229.2Z" fill="white"/>
<path d="M336.466 191.3C337.571 191.3 338.466 190.404 338.466 189.3C338.466 188.195 337.571 187.3 336.466 187.3C335.361 187.3 334.466 188.195 334.466 189.3C334.466 190.404 335.361 191.3 336.466 191.3Z" fill="white"/>
<path d="M223.866 550.4V418.4M223.866 418.4L235.866 414.4C271.866 402.4 303.866 404.4 303.866 426.4C303.866 448.4 303.866 470.4 303.866 470.4M223.866 418.4C208.866 423.4 203.866 406.4 209.866 402.4C215.866 398.4 223.866 405.4 223.866 418.4ZM310.866 433.8C323.466 434.5 341.166 432.6 359.866 426.4V510.4C323.866 522.4 291.866 518.4 291.866 510.4C291.866 504.4 303.866 504.4 303.866 498.4C303.866 490.8 275.266 486.8 241.666 496.6C238.266 497.6 235.866 500.7 235.866 504.3V550.4" stroke="white" stroke-width="2.5" stroke-miterlimit="10" stroke-linecap="round" stroke-linejoin="round"/>
<circle cx="24" cy="24" r="24" transform="matrix(-1 0 0 1 183.5 619)" fill="white"/>
<circle cx="24" cy="24" r="28" transform="matrix(-1 0 0 1 183.5 619)" stroke="white" stroke-opacity="0.2" stroke-width="8"/>
<path d="M216.5 653.18H240.5V629.18H216.5V653.18ZM251.477 634.045V651.5H249.364V634.045H251.477ZM257.454 634.045V651.5H255.442V634.045H257.454ZM263.149 634.045V651.5H261.138V634.045H263.149ZM275.083 646.148V638.409H277.094V651.5H275.083V649.284H274.947C274.64 649.949 274.163 650.514 273.515 650.98C272.867 651.44 272.049 651.67 271.06 651.67C270.242 651.67 269.515 651.491 268.879 651.134C268.242 650.77 267.742 650.224 267.379 649.497C267.015 648.764 266.833 647.841 266.833 646.727V638.409H268.844V646.591C268.844 647.545 269.112 648.307 269.646 648.875C270.185 649.443 270.873 649.727 271.708 649.727C272.208 649.727 272.717 649.599 273.234 649.344C273.756 649.088 274.194 648.696 274.546 648.168C274.904 647.639 275.083 646.966 275.083 646.148ZM290.051 641.341L288.244 641.852C288.131 641.551 287.963 641.259 287.741 640.974C287.526 640.685 287.23 640.446 286.855 640.259C286.48 640.071 286 639.977 285.415 639.977C284.614 639.977 283.946 640.162 283.412 640.531C282.884 640.895 282.619 641.358 282.619 641.92C282.619 642.42 282.801 642.815 283.165 643.105C283.528 643.395 284.097 643.636 284.869 643.83L286.812 644.307C287.983 644.591 288.855 645.026 289.429 645.611C290.003 646.19 290.29 646.937 290.29 647.852C290.29 648.602 290.074 649.273 289.642 649.864C289.216 650.455 288.619 650.92 287.852 651.261C287.085 651.602 286.193 651.773 285.176 651.773C283.841 651.773 282.736 651.483 281.861 650.903C280.986 650.324 280.432 649.477 280.199 648.364L282.108 647.886C282.29 648.591 282.634 649.119 283.139 649.472C283.651 649.824 284.318 650 285.142 650C286.08 650 286.824 649.801 287.375 649.403C287.932 649 288.21 648.517 288.21 647.955C288.21 647.5 288.051 647.119 287.733 646.812C287.415 646.5 286.926 646.267 286.267 646.114L284.085 645.602C282.886 645.318 282.006 644.878 281.443 644.281C280.886 643.679 280.608 642.926 280.608 642.023C280.608 641.284 280.815 640.631 281.23 640.062C281.651 639.494 282.222 639.048 282.943 638.724C283.67 638.401 284.494 638.239 285.415 638.239C286.71 638.239 287.727 638.523 288.466 639.091C289.21 639.659 289.739 640.409 290.051 641.341ZM299.011 638.409V640.114H292.227V638.409H299.011ZM294.204 635.273H296.215V647.75C296.215 648.318 296.298 648.744 296.462 649.028C296.633 649.307 296.849 649.494 297.11 649.591C297.377 649.682 297.658 649.727 297.954 649.727C298.175 649.727 298.357 649.716 298.499 649.693C298.641 649.665 298.755 649.642 298.84 649.625L299.249 651.432C299.113 651.483 298.923 651.534 298.678 651.585C298.434 651.642 298.124 651.67 297.749 651.67C297.181 651.67 296.624 651.548 296.079 651.304C295.539 651.06 295.09 650.688 294.732 650.188C294.38 649.688 294.204 649.057 294.204 648.295V635.273ZM302.036 651.5V638.409H303.979V640.386H304.116C304.354 639.739 304.786 639.213 305.411 638.81C306.036 638.406 306.741 638.205 307.525 638.205C307.673 638.205 307.857 638.207 308.079 638.213C308.3 638.219 308.468 638.227 308.582 638.239V640.284C308.513 640.267 308.357 640.241 308.113 640.207C307.874 640.168 307.621 640.148 307.354 640.148C306.718 640.148 306.15 640.281 305.65 640.548C305.156 640.81 304.763 641.173 304.474 641.639C304.19 642.099 304.048 642.625 304.048 643.216V651.5H302.036ZM314.818 651.807C313.989 651.807 313.236 651.651 312.56 651.338C311.884 651.02 311.347 650.562 310.949 649.966C310.551 649.364 310.352 648.636 310.352 647.784C310.352 647.034 310.5 646.426 310.795 645.96C311.091 645.489 311.486 645.119 311.98 644.852C312.474 644.585 313.02 644.386 313.616 644.256C314.219 644.119 314.824 644.011 315.432 643.932C316.227 643.83 316.872 643.753 317.366 643.702C317.866 643.645 318.23 643.551 318.457 643.42C318.69 643.29 318.807 643.062 318.807 642.739V642.67C318.807 641.83 318.577 641.176 318.116 640.71C317.662 640.244 316.972 640.011 316.045 640.011C315.085 640.011 314.332 640.222 313.787 640.642C313.241 641.062 312.858 641.511 312.636 641.989L310.727 641.307C311.068 640.511 311.523 639.892 312.091 639.449C312.665 639 313.29 638.687 313.966 638.511C314.648 638.33 315.318 638.239 315.977 638.239C316.398 638.239 316.881 638.29 317.426 638.392C317.977 638.489 318.509 638.69 319.02 638.997C319.537 639.304 319.966 639.767 320.307 640.386C320.648 641.006 320.818 641.835 320.818 642.875V651.5H318.807V649.727H318.705C318.568 650.011 318.341 650.315 318.023 650.639C317.705 650.963 317.281 651.239 316.753 651.466C316.224 651.693 315.58 651.807 314.818 651.807ZM315.125 650C315.92 650 316.591 649.844 317.136 649.531C317.688 649.219 318.102 648.815 318.381 648.321C318.665 647.827 318.807 647.307 318.807 646.761V644.92C318.722 645.023 318.534 645.116 318.244 645.202C317.96 645.281 317.631 645.352 317.256 645.415C316.886 645.472 316.526 645.523 316.173 645.568C315.827 645.608 315.545 645.642 315.33 645.67C314.807 645.739 314.318 645.849 313.864 646.003C313.415 646.151 313.051 646.375 312.773 646.676C312.5 646.972 312.364 647.375 312.364 647.886C312.364 648.585 312.622 649.114 313.139 649.472C313.662 649.824 314.324 650 315.125 650ZM330.183 638.409V640.114H323.398V638.409H330.183ZM325.376 635.273H327.387V647.75C327.387 648.318 327.469 648.744 327.634 649.028C327.805 649.307 328.021 649.494 328.282 649.591C328.549 649.682 328.83 649.727 329.126 649.727C329.347 649.727 329.529 649.716 329.671 649.693C329.813 649.665 329.927 649.642 330.012 649.625L330.421 651.432C330.285 651.483 330.094 651.534 329.85 651.585C329.606 651.642 329.296 651.67 328.921 651.67C328.353 651.67 327.796 651.548 327.251 651.304C326.711 651.06 326.262 650.688 325.904 650.188C325.552 649.688 325.376 649.057 325.376 648.295V635.273ZM333.208 651.5V638.409H335.219V651.5H333.208ZM334.231 636.227C333.839 636.227 333.501 636.094 333.217 635.827C332.938 635.56 332.799 635.239 332.799 634.864C332.799 634.489 332.938 634.168 333.217 633.901C333.501 633.634 333.839 633.5 334.231 633.5C334.623 633.5 334.958 633.634 335.237 633.901C335.521 634.168 335.663 634.489 335.663 634.864C335.663 635.239 335.521 635.56 335.237 635.827C334.958 636.094 334.623 636.227 334.231 636.227ZM344.222 651.773C343.04 651.773 342.003 651.491 341.111 650.929C340.224 650.366 339.531 649.58 339.031 648.568C338.537 647.557 338.29 646.375 338.29 645.023C338.29 643.659 338.537 642.469 339.031 641.452C339.531 640.435 340.224 639.645 341.111 639.082C342.003 638.52 343.04 638.239 344.222 638.239C345.403 638.239 346.438 638.52 347.324 639.082C348.216 639.645 348.909 640.435 349.403 641.452C349.903 642.469 350.153 643.659 350.153 645.023C350.153 646.375 349.903 647.557 349.403 648.568C348.909 649.58 348.216 650.366 347.324 650.929C346.438 651.491 345.403 651.773 344.222 651.773ZM344.222 649.966C345.119 649.966 345.858 649.736 346.438 649.276C347.017 648.815 347.446 648.21 347.724 647.46C348.003 646.71 348.142 645.898 348.142 645.023C348.142 644.148 348.003 643.332 347.724 642.577C347.446 641.821 347.017 641.21 346.438 640.744C345.858 640.278 345.119 640.045 344.222 640.045C343.324 640.045 342.585 640.278 342.006 640.744C341.426 641.21 340.997 641.821 340.719 642.577C340.44 643.332 340.301 644.148 340.301 645.023C340.301 645.898 340.44 646.71 340.719 647.46C340.997 648.21 341.426 648.815 342.006 649.276C342.585 649.736 343.324 649.966 344.222 649.966ZM355.235 643.625V651.5H353.224V638.409H355.167V640.455H355.337C355.644 639.79 356.11 639.256 356.735 638.852C357.36 638.443 358.167 638.239 359.156 638.239C360.042 638.239 360.817 638.42 361.482 638.784C362.147 639.142 362.664 639.688 363.033 640.42C363.403 641.148 363.587 642.068 363.587 643.182V651.5H361.576V643.318C361.576 642.29 361.309 641.489 360.775 640.915C360.241 640.335 359.508 640.045 358.576 640.045C357.934 640.045 357.36 640.185 356.854 640.463C356.354 640.741 355.96 641.148 355.67 641.682C355.38 642.216 355.235 642.864 355.235 643.625ZM372.922 651.5H367.536V634.045H373.161C374.854 634.045 376.303 634.395 377.507 635.094C378.712 635.787 379.635 636.784 380.277 638.085C380.919 639.381 381.24 640.932 381.24 642.739C381.24 644.557 380.916 646.122 380.268 647.435C379.621 648.741 378.678 649.747 377.439 650.452C376.2 651.151 374.695 651.5 372.922 651.5ZM369.649 649.625H372.786C374.229 649.625 375.425 649.347 376.374 648.79C377.322 648.233 378.03 647.44 378.496 646.412C378.962 645.384 379.195 644.159 379.195 642.739C379.195 641.33 378.964 640.116 378.504 639.099C378.044 638.077 377.357 637.293 376.442 636.747C375.527 636.196 374.388 635.92 373.024 635.92H369.649V649.625ZM390.001 651.773C388.74 651.773 387.652 651.494 386.737 650.938C385.828 650.375 385.126 649.591 384.632 648.585C384.143 647.574 383.899 646.398 383.899 645.057C383.899 643.716 384.143 642.534 384.632 641.511C385.126 640.483 385.814 639.682 386.695 639.108C387.581 638.528 388.615 638.239 389.797 638.239C390.479 638.239 391.152 638.352 391.817 638.58C392.482 638.807 393.087 639.176 393.632 639.688C394.178 640.193 394.612 640.864 394.936 641.699C395.26 642.534 395.422 643.562 395.422 644.784V645.636H385.331V643.898H393.376C393.376 643.159 393.229 642.5 392.933 641.92C392.643 641.341 392.229 640.884 391.689 640.548C391.155 640.213 390.524 640.045 389.797 640.045C388.996 640.045 388.303 640.244 387.717 640.642C387.138 641.034 386.692 641.545 386.379 642.176C386.067 642.807 385.911 643.483 385.911 644.205V645.364C385.911 646.352 386.081 647.19 386.422 647.878C386.768 648.56 387.249 649.08 387.862 649.438C388.476 649.79 389.189 649.966 390.001 649.966C390.53 649.966 391.007 649.892 391.433 649.744C391.865 649.591 392.237 649.364 392.55 649.062C392.862 648.756 393.104 648.375 393.274 647.92L395.217 648.466C395.013 649.125 394.669 649.705 394.186 650.205C393.703 650.699 393.107 651.085 392.396 651.364C391.686 651.636 390.888 651.773 390.001 651.773ZM404.311 638.409V640.114H397.254V638.409H404.311ZM399.368 651.5V636.602C399.368 635.852 399.544 635.227 399.896 634.727C400.249 634.227 400.706 633.852 401.268 633.602C401.831 633.352 402.425 633.227 403.05 633.227C403.544 633.227 403.947 633.267 404.26 633.347C404.572 633.426 404.805 633.5 404.959 633.568L404.379 635.307C404.277 635.273 404.135 635.23 403.953 635.179C403.777 635.128 403.544 635.102 403.254 635.102C402.589 635.102 402.109 635.27 401.814 635.605C401.524 635.94 401.379 636.432 401.379 637.08V651.5H399.368ZM410.607 651.807C409.778 651.807 409.025 651.651 408.349 651.338C407.673 651.02 407.136 650.562 406.738 649.966C406.34 649.364 406.141 648.636 406.141 647.784C406.141 647.034 406.289 646.426 406.585 645.96C406.88 645.489 407.275 645.119 407.769 644.852C408.263 644.585 408.809 644.386 409.406 644.256C410.008 644.119 410.613 644.011 411.221 643.932C412.016 643.83 412.661 643.753 413.156 643.702C413.656 643.645 414.019 643.551 414.246 643.42C414.479 643.29 414.596 643.062 414.596 642.739V642.67C414.596 641.83 414.366 641.176 413.906 640.71C413.451 640.244 412.761 640.011 411.835 640.011C410.874 640.011 410.121 640.222 409.576 640.642C409.031 641.062 408.647 641.511 408.425 641.989L406.516 641.307C406.857 640.511 407.312 639.892 407.88 639.449C408.454 639 409.079 638.687 409.755 638.511C410.437 638.33 411.107 638.239 411.766 638.239C412.187 638.239 412.67 638.29 413.215 638.392C413.766 638.489 414.298 638.69 414.809 638.997C415.326 639.304 415.755 639.767 416.096 640.386C416.437 641.006 416.607 641.835 416.607 642.875V651.5H414.596V649.727H414.494C414.357 650.011 414.13 650.315 413.812 650.639C413.494 650.963 413.07 651.239 412.542 651.466C412.013 651.693 411.369 651.807 410.607 651.807ZM410.914 650C411.71 650 412.38 649.844 412.925 649.531C413.477 649.219 413.891 648.815 414.17 648.321C414.454 647.827 414.596 647.307 414.596 646.761V644.92C414.511 645.023 414.323 645.116 414.033 645.202C413.749 645.281 413.42 645.352 413.045 645.415C412.675 645.472 412.315 645.523 411.962 645.568C411.616 645.608 411.335 645.642 411.119 645.67C410.596 645.739 410.107 645.849 409.653 646.003C409.204 646.151 408.84 646.375 408.562 646.676C408.289 646.972 408.153 647.375 408.153 647.886C408.153 648.585 408.411 649.114 408.928 649.472C409.451 649.824 410.113 650 410.914 650ZM428.528 646.148V638.409H430.54V651.5H428.528V649.284H428.392C428.085 649.949 427.608 650.514 426.96 650.98C426.313 651.44 425.494 651.67 424.506 651.67C423.688 651.67 422.96 651.491 422.324 651.134C421.688 650.77 421.188 650.224 420.824 649.497C420.46 648.764 420.278 647.841 420.278 646.727V638.409H422.29V646.591C422.29 647.545 422.557 648.307 423.091 648.875C423.631 649.443 424.318 649.727 425.153 649.727C425.653 649.727 426.162 649.599 426.679 649.344C427.202 649.088 427.639 648.696 427.991 648.168C428.349 647.639 428.528 646.966 428.528 646.148ZM436.235 634.045V651.5H434.224V634.045H436.235ZM445.612 638.409V640.114H438.828V638.409H445.612ZM440.805 635.273H442.817V647.75C442.817 648.318 442.899 648.744 443.064 649.028C443.234 649.307 443.45 649.494 443.712 649.591C443.979 649.682 444.26 649.727 444.555 649.727C444.777 649.727 444.959 649.716 445.101 649.693C445.243 649.665 445.357 649.642 445.442 649.625L445.851 651.432C445.714 651.483 445.524 651.534 445.28 651.585C445.036 651.642 444.726 651.67 444.351 651.67C443.783 651.67 443.226 651.548 442.68 651.304C442.141 651.06 441.692 650.688 441.334 650.188C440.982 649.688 440.805 649.057 440.805 648.295V635.273Z" fill="white"/>
</svg>
