<svg width="1150" height="526" viewBox="0 0 1150 526" fill="none" xmlns="http://www.w3.org/2000/svg">
<rect width="1150" height="526" fill="#F7F7F7"/>
<path d="M46.8182 78V54.7273H49.6364V75.5H60.4545V78H46.8182ZM64.4545 78V60.5455H67.1364V78H64.4545ZM65.8182 57.6364C65.2955 57.6364 64.8447 57.4583 64.4659 57.1023C64.0947 56.7462 63.9091 56.3182 63.9091 55.8182C63.9091 55.3182 64.0947 54.8902 64.4659 54.5341C64.8447 54.178 65.2955 54 65.8182 54C66.3409 54 66.7879 54.178 67.1591 54.5341C67.5379 54.8902 67.7273 55.3182 67.7273 55.8182C67.7273 56.3182 67.5379 56.7462 67.1591 57.1023C66.7879 57.4583 66.3409 57.6364 65.8182 57.6364ZM79.0938 84.9091C77.7983 84.9091 76.6847 84.7424 75.7528 84.4091C74.821 84.0833 74.0445 83.6515 73.4233 83.1136C72.8097 82.5833 72.321 82.0152 71.9574 81.4091L74.0938 79.9091C74.3362 80.2273 74.643 80.5909 75.0142 81C75.3854 81.4167 75.893 81.7765 76.5369 82.0795C77.1884 82.3902 78.0407 82.5455 79.0938 82.5455C80.5028 82.5455 81.6657 82.2045 82.5824 81.5227C83.4991 80.8409 83.9574 79.7727 83.9574 78.3182V74.7727H83.7301C83.5331 75.0909 83.2528 75.4848 82.8892 75.9545C82.5331 76.4167 82.018 76.8295 81.3438 77.1932C80.6771 77.5492 79.7756 77.7273 78.6392 77.7273C77.2301 77.7273 75.965 77.3939 74.8438 76.7273C73.7301 76.0606 72.8475 75.0909 72.196 73.8182C71.5521 72.5455 71.2301 71 71.2301 69.1818C71.2301 67.3939 71.5445 65.8371 72.1733 64.5114C72.8021 63.178 73.6771 62.1477 74.7983 61.4205C75.9195 60.6856 77.215 60.3182 78.6847 60.3182C79.821 60.3182 80.7225 60.5076 81.3892 60.8864C82.0634 61.2576 82.5786 61.6818 82.9347 62.1591C83.2983 62.6288 83.5786 63.0152 83.7756 63.3182H84.0483V60.5455H86.6392V78.5C86.6392 80 86.2983 81.2197 85.6165 82.1591C84.9422 83.1061 84.0331 83.7992 82.8892 84.2386C81.7528 84.6856 80.4877 84.9091 79.0938 84.9091ZM79.0028 75.3182C80.0786 75.3182 80.9877 75.072 81.7301 74.5795C82.4725 74.0871 83.0369 73.3788 83.4233 72.4545C83.8097 71.5303 84.0028 70.4242 84.0028 69.1364C84.0028 67.8788 83.8134 66.7689 83.4347 65.8068C83.0559 64.8447 82.4953 64.0909 81.7528 63.5455C81.0104 63 80.0938 62.7273 79.0028 62.7273C77.8665 62.7273 76.9195 63.0152 76.1619 63.5909C75.4119 64.1667 74.8475 64.9394 74.4688 65.9091C74.0975 66.8788 73.9119 67.9545 73.9119 69.1364C73.9119 70.3485 74.1013 71.4205 74.4801 72.3523C74.8665 73.2765 75.4347 74.0038 76.1847 74.5341C76.9422 75.0568 77.8816 75.3182 79.0028 75.3182ZM94.2301 67.5V78H91.5483V54.7273H94.2301V63.2727H94.4574C94.8665 62.3712 95.4801 61.6553 96.2983 61.125C97.1241 60.5871 98.2225 60.3182 99.5938 60.3182C100.783 60.3182 101.825 60.5568 102.719 61.0341C103.613 61.5038 104.306 62.2273 104.798 63.2045C105.298 64.1742 105.548 65.4091 105.548 66.9091V78H102.866V67.0909C102.866 65.7045 102.507 64.6326 101.787 63.875C101.075 63.1098 100.086 62.7273 98.821 62.7273C97.9422 62.7273 97.1544 62.9129 96.4574 63.2841C95.768 63.6553 95.2225 64.197 94.821 64.9091C94.4271 65.6212 94.2301 66.4848 94.2301 67.5ZM118.045 60.5455V62.8182H109V60.5455H118.045ZM111.636 56.3636H114.318V73C114.318 73.7576 114.428 74.3258 114.648 74.7045C114.875 75.0758 115.163 75.3258 115.511 75.4545C115.867 75.5758 116.242 75.6364 116.636 75.6364C116.932 75.6364 117.174 75.6212 117.364 75.5909C117.553 75.553 117.705 75.5227 117.818 75.5L118.364 77.9091C118.182 77.9773 117.928 78.0455 117.602 78.1136C117.277 78.1894 116.864 78.2273 116.364 78.2273C115.606 78.2273 114.864 78.0644 114.136 77.7386C113.417 77.4129 112.818 76.9167 112.341 76.25C111.871 75.5833 111.636 74.7424 111.636 73.7273V56.3636ZM146.716 54.7273H149.534V70.1364C149.534 71.7273 149.159 73.1477 148.409 74.3977C147.667 75.6402 146.617 76.6212 145.261 77.3409C143.905 78.053 142.314 78.4091 140.489 78.4091C138.663 78.4091 137.072 78.053 135.716 77.3409C134.36 76.6212 133.307 75.6402 132.557 74.3977C131.814 73.1477 131.443 71.7273 131.443 70.1364V54.7273H134.261V69.9091C134.261 71.0455 134.511 72.0568 135.011 72.9432C135.511 73.822 136.223 74.5152 137.148 75.0227C138.08 75.5227 139.193 75.7727 140.489 75.7727C141.784 75.7727 142.898 75.5227 143.83 75.0227C144.761 74.5152 145.473 73.822 145.966 72.9432C146.466 72.0568 146.716 71.0455 146.716 69.9091V54.7273ZM157.98 54.7273V78H155.162V54.7273H157.98ZM179.585 78.3636C177.903 78.3636 176.453 77.9924 175.233 77.25C174.021 76.5 173.085 75.4545 172.426 74.1136C171.775 72.7652 171.449 71.197 171.449 69.4091C171.449 67.6212 171.775 66.0455 172.426 64.6818C173.085 63.3106 174.002 62.2424 175.176 61.4773C176.358 60.7045 177.737 60.3182 179.312 60.3182C180.222 60.3182 181.119 60.4697 182.006 60.7727C182.892 61.0758 183.699 61.5682 184.426 62.25C185.153 62.9242 185.733 63.8182 186.165 64.9318C186.597 66.0455 186.812 67.4167 186.812 69.0455V70.1818H173.358V67.8636H184.085C184.085 66.8788 183.888 66 183.494 65.2273C183.108 64.4545 182.555 63.8447 181.835 63.3977C181.123 62.9508 180.282 62.7273 179.312 62.7273C178.244 62.7273 177.32 62.9924 176.54 63.5227C175.767 64.0455 175.172 64.7273 174.756 65.5682C174.339 66.4091 174.131 67.3106 174.131 68.2727V69.8182C174.131 71.1364 174.358 72.2538 174.812 73.1705C175.275 74.0795 175.915 74.7727 176.733 75.25C177.551 75.7197 178.502 75.9545 179.585 75.9545C180.29 75.9545 180.926 75.8561 181.494 75.6591C182.07 75.4545 182.566 75.1515 182.983 74.75C183.4 74.3409 183.722 73.8333 183.949 73.2273L186.54 73.9545C186.267 74.8333 185.809 75.6061 185.165 76.2727C184.521 76.9318 183.725 77.447 182.778 77.8182C181.831 78.1818 180.767 78.3636 179.585 78.3636ZM192.423 60.5455L196.605 67.6818L200.787 60.5455H203.878L198.241 69.2727L203.878 78H200.787L196.605 71.2273L192.423 78H189.332L194.878 69.2727L189.332 60.5455H192.423ZM212.841 78.4091C211.735 78.4091 210.731 78.2008 209.83 77.7841C208.928 77.3598 208.212 76.75 207.682 75.9545C207.152 75.1515 206.886 74.1818 206.886 73.0455C206.886 72.0455 207.083 71.2348 207.477 70.6136C207.871 69.9848 208.398 69.4924 209.057 69.1364C209.716 68.7803 210.443 68.5152 211.239 68.3409C212.042 68.1591 212.848 68.0152 213.659 67.9091C214.72 67.7727 215.58 67.6705 216.239 67.6023C216.905 67.5265 217.39 67.4015 217.693 67.2273C218.004 67.053 218.159 66.75 218.159 66.3182V66.2273C218.159 65.1061 217.852 64.2348 217.239 63.6136C216.633 62.9924 215.712 62.6818 214.477 62.6818C213.197 62.6818 212.193 62.9621 211.466 63.5227C210.739 64.0833 210.227 64.6818 209.932 65.3182L207.386 64.4091C207.841 63.3485 208.447 62.5227 209.205 61.9318C209.97 61.3333 210.803 60.9167 211.705 60.6818C212.614 60.4394 213.508 60.3182 214.386 60.3182C214.947 60.3182 215.591 60.3864 216.318 60.5227C217.053 60.6515 217.761 60.9205 218.443 61.3295C219.133 61.7386 219.705 62.3561 220.159 63.1818C220.614 64.0076 220.841 65.1136 220.841 66.5V78H218.159V75.6364H218.023C217.841 76.0152 217.538 76.4205 217.114 76.8523C216.689 77.2841 216.125 77.6515 215.42 77.9545C214.716 78.2576 213.856 78.4091 212.841 78.4091ZM213.25 76C214.311 76 215.205 75.7917 215.932 75.375C216.667 74.9583 217.22 74.4205 217.591 73.7614C217.97 73.1023 218.159 72.4091 218.159 71.6818V69.2273C218.045 69.3636 217.795 69.4886 217.409 69.6023C217.03 69.7083 216.591 69.803 216.091 69.8864C215.598 69.9621 215.117 70.0303 214.648 70.0909C214.186 70.1439 213.811 70.1894 213.523 70.2273C212.826 70.3182 212.174 70.4659 211.568 70.6705C210.97 70.8674 210.485 71.1667 210.114 71.5682C209.75 71.9621 209.568 72.5 209.568 73.1818C209.568 74.1136 209.913 74.8182 210.602 75.2955C211.299 75.7652 212.182 76 213.25 76ZM225.736 78V60.5455H228.327V63.2727H228.554C228.918 62.3409 229.505 61.6174 230.315 61.1023C231.126 60.5795 232.099 60.3182 233.236 60.3182C234.387 60.3182 235.346 60.5795 236.111 61.1023C236.884 61.6174 237.486 62.3409 237.918 63.2727H238.099C238.546 62.3712 239.217 61.6553 240.111 61.125C241.005 60.5871 242.077 60.3182 243.327 60.3182C244.887 60.3182 246.164 60.8068 247.156 61.7841C248.149 62.7538 248.645 64.2652 248.645 66.3182V78H245.963V66.3182C245.963 65.0303 245.611 64.1098 244.906 63.5568C244.202 63.0038 243.372 62.7273 242.418 62.7273C241.19 62.7273 240.24 63.0985 239.565 63.8409C238.891 64.5758 238.554 65.5076 238.554 66.6364V78H235.827V66.0455C235.827 65.053 235.505 64.2538 234.861 63.6477C234.217 63.0341 233.387 62.7273 232.372 62.7273C231.675 62.7273 231.024 62.9129 230.418 63.2841C229.819 63.6553 229.334 64.1705 228.963 64.8295C228.599 65.4811 228.418 66.2348 228.418 67.0909V78H225.736ZM253.548 84.5455V60.5455H256.139V63.3182H256.457C256.654 63.0152 256.927 62.6288 257.276 62.1591C257.632 61.6818 258.139 61.2576 258.798 60.8864C259.465 60.5076 260.366 60.3182 261.503 60.3182C262.973 60.3182 264.268 60.6856 265.389 61.4205C266.51 62.1553 267.385 63.197 268.014 64.5455C268.643 65.8939 268.957 67.4848 268.957 69.3182C268.957 71.1667 268.643 72.7689 268.014 74.125C267.385 75.4735 266.514 76.5189 265.401 77.2614C264.287 77.9962 263.003 78.3636 261.548 78.3636C260.427 78.3636 259.529 78.178 258.855 77.8068C258.181 77.428 257.662 77 257.298 76.5227C256.935 76.0379 256.654 75.6364 256.457 75.3182H256.23V84.5455H253.548ZM256.185 69.2727C256.185 70.5909 256.378 71.7538 256.764 72.7614C257.151 73.7614 257.715 74.5455 258.457 75.1136C259.2 75.6742 260.109 75.9545 261.185 75.9545C262.306 75.9545 263.241 75.6591 263.991 75.0682C264.749 74.4697 265.317 73.6667 265.696 72.6591C266.082 71.6439 266.276 70.5152 266.276 69.2727C266.276 68.0455 266.086 66.9394 265.707 65.9545C265.336 64.9621 264.772 64.178 264.014 63.6023C263.264 63.0189 262.321 62.7273 261.185 62.7273C260.094 62.7273 259.177 63.0038 258.435 63.5568C257.692 64.1023 257.132 64.8674 256.753 65.8523C256.374 66.8295 256.185 67.9697 256.185 69.2727ZM275.73 54.7273V78H273.048V54.7273H275.73ZM287.96 78.3636C286.278 78.3636 284.828 77.9924 283.608 77.25C282.396 76.5 281.46 75.4545 280.801 74.1136C280.15 72.7652 279.824 71.197 279.824 69.4091C279.824 67.6212 280.15 66.0455 280.801 64.6818C281.46 63.3106 282.377 62.2424 283.551 61.4773C284.733 60.7045 286.112 60.3182 287.688 60.3182C288.597 60.3182 289.494 60.4697 290.381 60.7727C291.267 61.0758 292.074 61.5682 292.801 62.25C293.528 62.9242 294.108 63.8182 294.54 64.9318C294.972 66.0455 295.188 67.4167 295.188 69.0455V70.1818H281.733V67.8636H292.46C292.46 66.8788 292.263 66 291.869 65.2273C291.483 64.4545 290.93 63.8447 290.21 63.3977C289.498 62.9508 288.657 62.7273 287.688 62.7273C286.619 62.7273 285.695 62.9924 284.915 63.5227C284.142 64.0455 283.547 64.7273 283.131 65.5682C282.714 66.4091 282.506 67.3106 282.506 68.2727V69.8182C282.506 71.1364 282.733 72.2538 283.188 73.1705C283.65 74.0795 284.29 74.7727 285.108 75.25C285.926 75.7197 286.877 75.9545 287.96 75.9545C288.665 75.9545 289.301 75.8561 289.869 75.6591C290.445 75.4545 290.941 75.1515 291.358 74.75C291.775 74.3409 292.097 73.8333 292.324 73.2273L294.915 73.9545C294.642 74.8333 294.184 75.6061 293.54 76.2727C292.896 76.9318 292.1 77.447 291.153 77.8182C290.206 78.1818 289.142 78.3636 287.96 78.3636Z" fill="black" fill-opacity="0.95"/>
<line x1="44" y1="100.5" x2="1106" y2="100.5" stroke="black" stroke-opacity="0.4"/>
<path d="M50.4084 151.746C50.3686 151.345 50.1979 151.034 49.8963 150.812C49.5947 150.59 49.1854 150.479 48.6683 150.479C48.317 150.479 48.0204 150.528 47.7784 150.628C47.5365 150.724 47.3509 150.858 47.2216 151.031C47.0956 151.203 47.0327 151.398 47.0327 151.617C47.026 151.799 47.0642 151.959 47.147 152.094C47.2332 152.23 47.3509 152.348 47.5 152.447C47.6491 152.544 47.8215 152.628 48.017 152.701C48.2126 152.771 48.4214 152.83 48.6435 152.88L49.5582 153.099C50.0024 153.198 50.41 153.331 50.7812 153.496C51.1525 153.662 51.474 153.866 51.7457 154.108C52.0175 154.35 52.228 154.635 52.3771 154.963C52.5296 155.291 52.6075 155.667 52.6108 156.092C52.6075 156.715 52.4484 157.255 52.1335 157.712C51.822 158.166 51.3712 158.519 50.7812 158.771C50.1946 159.02 49.487 159.144 48.6584 159.144C47.8364 159.144 47.1205 159.018 46.5107 158.766C45.9041 158.514 45.4302 158.142 45.0888 157.648C44.7507 157.151 44.5734 156.536 44.5568 155.803H46.6399C46.6631 156.145 46.7609 156.43 46.9332 156.658C47.1089 156.884 47.3426 157.054 47.6342 157.17C47.9292 157.283 48.2623 157.339 48.6335 157.339C48.9981 157.339 49.3146 157.286 49.5831 157.18C49.8549 157.074 50.0653 156.927 50.2145 156.738C50.3636 156.549 50.4382 156.332 50.4382 156.087C50.4382 155.858 50.3703 155.666 50.2344 155.51C50.1018 155.354 49.9063 155.222 49.6477 155.112C49.3925 155.003 49.0793 154.903 48.7081 154.814L47.5994 154.536C46.741 154.327 46.0632 154 45.5661 153.556C45.0689 153.112 44.822 152.514 44.8253 151.761C44.822 151.145 44.986 150.606 45.3175 150.146C45.6522 149.685 46.1113 149.325 46.6946 149.067C47.2779 148.808 47.9408 148.679 48.6832 148.679C49.4389 148.679 50.0985 148.808 50.6619 149.067C51.2287 149.325 51.6695 149.685 51.9844 150.146C52.2992 150.606 52.4616 151.14 52.4716 151.746H50.4084ZM61.1878 148.818H63.3405V155.43C63.3405 156.173 63.1632 156.822 62.8086 157.379C62.4572 157.936 61.9651 158.37 61.332 158.682C60.699 158.99 59.9615 159.144 59.1197 159.144C58.2745 159.144 57.5354 158.99 56.9023 158.682C56.2693 158.37 55.7771 157.936 55.4258 157.379C55.0744 156.822 54.8988 156.173 54.8988 155.43V148.818H57.0515V155.246C57.0515 155.634 57.136 155.979 57.305 156.281C57.4774 156.582 57.7193 156.819 58.0309 156.991C58.3424 157.164 58.7054 157.25 59.1197 157.25C59.5373 157.25 59.9002 157.164 60.2084 156.991C60.52 156.819 60.7603 156.582 60.9293 156.281C61.1017 155.979 61.1878 155.634 61.1878 155.246V148.818ZM74.9353 152.383H72.7578C72.718 152.101 72.6368 151.851 72.5142 151.632C72.3915 151.41 72.2341 151.221 72.0419 151.065C71.8496 150.91 71.6276 150.79 71.3757 150.707C71.1271 150.625 70.857 150.583 70.5653 150.583C70.0383 150.583 69.5793 150.714 69.1882 150.976C68.7971 151.234 68.4938 151.612 68.2784 152.109C68.0629 152.603 67.9552 153.203 67.9552 153.909C67.9552 154.635 68.0629 155.245 68.2784 155.739C68.4971 156.232 68.802 156.605 69.1931 156.857C69.5842 157.109 70.0367 157.235 70.5504 157.235C70.8387 157.235 71.1055 157.197 71.3508 157.121C71.5994 157.045 71.8198 156.933 72.012 156.788C72.2043 156.638 72.3634 156.458 72.4893 156.246C72.6186 156.034 72.7081 155.792 72.7578 155.52L74.9353 155.53C74.879 155.997 74.7381 156.448 74.5127 156.882C74.2907 157.313 73.9907 157.699 73.6129 158.04C73.2384 158.379 72.7909 158.647 72.2706 158.846C71.7535 159.041 71.1685 159.139 70.5156 159.139C69.6074 159.139 68.7954 158.934 68.0795 158.523C67.3669 158.112 66.8035 157.517 66.3892 156.738C65.9782 155.959 65.7727 155.016 65.7727 153.909C65.7727 152.799 65.9815 151.854 66.3991 151.075C66.8167 150.296 67.3835 149.703 68.0994 149.295C68.8153 148.884 69.6207 148.679 70.5156 148.679C71.1055 148.679 71.6524 148.762 72.1562 148.928C72.6633 149.093 73.1124 149.335 73.5035 149.653C73.8946 149.968 74.2128 150.354 74.4581 150.812C74.7066 151.269 74.8657 151.793 74.9353 152.383ZM86.3027 152.383H84.1251C84.0853 152.101 84.0041 151.851 83.8815 151.632C83.7589 151.41 83.6014 151.221 83.4092 151.065C83.217 150.91 82.9949 150.79 82.743 150.707C82.4944 150.625 82.2243 150.583 81.9326 150.583C81.4057 150.583 80.9466 150.714 80.5555 150.976C80.1644 151.234 79.8611 151.612 79.6457 152.109C79.4303 152.603 79.3226 153.203 79.3226 153.909C79.3226 154.635 79.4303 155.245 79.6457 155.739C79.8645 156.232 80.1694 156.605 80.5605 156.857C80.9516 157.109 81.404 157.235 81.9177 157.235C82.2061 157.235 82.4729 157.197 82.7182 157.121C82.9667 157.045 83.1871 156.933 83.3794 156.788C83.5716 156.638 83.7307 156.458 83.8566 156.246C83.9859 156.034 84.0754 155.792 84.1251 155.52L86.3027 155.53C86.2463 155.997 86.1055 156.448 85.8801 156.882C85.658 157.313 85.3581 157.699 84.9802 158.04C84.6057 158.379 84.1583 158.647 83.6379 158.846C83.1209 159.041 82.5359 159.139 81.8829 159.139C80.9748 159.139 80.1628 158.934 79.4468 158.523C78.7343 158.112 78.1708 157.517 77.7565 156.738C77.3455 155.959 77.14 155.016 77.14 153.909C77.14 152.799 77.3488 151.854 77.7664 151.075C78.1841 150.296 78.7508 149.703 79.4667 149.295C80.1826 148.884 80.988 148.679 81.8829 148.679C82.4729 148.679 83.0198 148.762 83.5236 148.928C84.0307 149.093 84.4798 149.335 84.8709 149.653C85.262 149.968 85.5801 150.354 85.8254 150.812C86.074 151.269 86.2331 151.793 86.3027 152.383ZM88.6864 159V148.818H95.5471V150.593H90.839V153.019H95.1942V154.794H90.839V157.225H95.567V159H88.6864ZM103.622 151.746C103.582 151.345 103.412 151.034 103.11 150.812C102.808 150.59 102.399 150.479 101.882 150.479C101.531 150.479 101.234 150.528 100.992 150.628C100.75 150.724 100.565 150.858 100.435 151.031C100.309 151.203 100.246 151.398 100.246 151.617C100.24 151.799 100.278 151.959 100.361 152.094C100.447 152.23 100.565 152.348 100.714 152.447C100.863 152.544 101.035 152.628 101.231 152.701C101.426 152.771 101.635 152.83 101.857 152.88L102.772 153.099C103.216 153.198 103.624 153.331 103.995 153.496C104.366 153.662 104.688 153.866 104.959 154.108C105.231 154.35 105.442 154.635 105.591 154.963C105.743 155.291 105.821 155.667 105.824 156.092C105.821 156.715 105.662 157.255 105.347 157.712C105.036 158.166 104.585 158.519 103.995 158.771C103.408 159.02 102.701 159.144 101.872 159.144C101.05 159.144 100.334 159.018 99.7243 158.766C99.1178 158.514 98.6438 158.142 98.3025 157.648C97.9644 157.151 97.7871 156.536 97.7705 155.803H99.8536C99.8768 156.145 99.9746 156.43 100.147 156.658C100.323 156.884 100.556 157.054 100.848 157.17C101.143 157.283 101.476 157.339 101.847 157.339C102.212 157.339 102.528 157.286 102.797 157.18C103.069 157.074 103.279 156.927 103.428 156.738C103.577 156.549 103.652 156.332 103.652 156.087C103.652 155.858 103.584 155.666 103.448 155.51C103.315 155.354 103.12 155.222 102.861 155.112C102.606 155.003 102.293 154.903 101.922 154.814L100.813 154.536C99.9547 154.327 99.2769 154 98.7797 153.556C98.2826 153.112 98.0356 152.514 98.039 151.761C98.0356 151.145 98.1997 150.606 98.5311 150.146C98.8659 149.685 99.3249 149.325 99.9083 149.067C100.492 148.808 101.154 148.679 101.897 148.679C102.653 148.679 103.312 148.808 103.876 149.067C104.442 149.325 104.883 149.685 105.198 150.146C105.513 150.606 105.675 151.14 105.685 151.746H103.622ZM113.636 151.746C113.596 151.345 113.425 151.034 113.124 150.812C112.822 150.59 112.413 150.479 111.896 150.479C111.544 150.479 111.248 150.528 111.006 150.628C110.764 150.724 110.578 150.858 110.449 151.031C110.323 151.203 110.26 151.398 110.26 151.617C110.254 151.799 110.292 151.959 110.375 152.094C110.461 152.23 110.578 152.348 110.728 152.447C110.877 152.544 111.049 152.628 111.245 152.701C111.44 152.771 111.649 152.83 111.871 152.88L112.786 153.099C113.23 153.198 113.638 153.331 114.009 153.496C114.38 153.662 114.701 153.866 114.973 154.108C115.245 154.35 115.455 154.635 115.605 154.963C115.757 155.291 115.835 155.667 115.838 156.092C115.835 156.715 115.676 157.255 115.361 157.712C115.049 158.166 114.599 158.519 114.009 158.771C113.422 159.02 112.714 159.144 111.886 159.144C111.064 159.144 110.348 159.018 109.738 158.766C109.132 158.514 108.658 158.142 108.316 157.648C107.978 157.151 107.801 156.536 107.784 155.803H109.867C109.891 156.145 109.988 156.43 110.161 156.658C110.336 156.884 110.57 157.054 110.862 157.17C111.157 157.283 111.49 157.339 111.861 157.339C112.226 157.339 112.542 157.286 112.811 157.18C113.082 157.074 113.293 156.927 113.442 156.738C113.591 156.549 113.666 156.332 113.666 156.087C113.666 155.858 113.598 155.666 113.462 155.51C113.329 155.354 113.134 155.222 112.875 155.112C112.62 155.003 112.307 154.903 111.936 154.814L110.827 154.536C109.969 154.327 109.291 154 108.794 153.556C108.296 153.112 108.049 152.514 108.053 151.761C108.049 151.145 108.214 150.606 108.545 150.146C108.88 149.685 109.339 149.325 109.922 149.067C110.505 148.808 111.168 148.679 111.911 148.679C112.666 148.679 113.326 148.808 113.889 149.067C114.456 149.325 114.897 149.685 115.212 150.146C115.527 150.606 115.689 151.14 115.699 151.746H113.636Z" fill="black"/>
<path d="M76.366 369.4V237.4M76.366 237.4L88.366 233.4C124.366 221.4 156.366 223.4 156.366 245.4C156.366 267.4 156.366 289.4 156.366 289.4M76.366 237.4C61.366 242.4 56.366 225.4 62.366 221.4C68.366 217.4 76.366 224.4 76.366 237.4ZM163.366 252.8C175.966 253.5 193.666 251.6 212.366 245.4V329.4C176.366 341.4 144.366 337.4 144.366 329.4C144.366 323.4 156.366 323.4 156.366 317.4C156.366 309.8 127.766 305.8 94.166 315.6C90.766 316.6 88.366 319.7 88.366 323.3V369.4" stroke="url(#paint0_linear_1036_2507)" stroke-width="2.5" stroke-miterlimit="10" stroke-linecap="round" stroke-linejoin="round"/>
<circle cx="24" cy="24" r="24" transform="matrix(-1 0 0 1 100 426)" fill="url(#paint1_linear_1036_2507)"/>
<circle cx="24" cy="24" r="28" transform="matrix(-1 0 0 1 100 426)" stroke="black" stroke-opacity="0.2" stroke-width="8"/>
<path d="M137.227 441.045V458.5H135.114V441.045H137.227ZM143.204 441.045V458.5H141.192V441.045H143.204ZM148.899 441.045V458.5H146.888V441.045H148.899ZM160.833 453.148V445.409H162.844V458.5H160.833V456.284H160.697C160.39 456.949 159.913 457.514 159.265 457.98C158.617 458.44 157.799 458.67 156.81 458.67C155.992 458.67 155.265 458.491 154.629 458.134C153.992 457.77 153.492 457.224 153.129 456.497C152.765 455.764 152.583 454.841 152.583 453.727V445.409H154.594V453.591C154.594 454.545 154.862 455.307 155.396 455.875C155.935 456.443 156.623 456.727 157.458 456.727C157.958 456.727 158.467 456.599 158.984 456.344C159.506 456.088 159.944 455.696 160.296 455.168C160.654 454.639 160.833 453.966 160.833 453.148ZM175.801 448.341L173.994 448.852C173.881 448.551 173.713 448.259 173.491 447.974C173.276 447.685 172.98 447.446 172.605 447.259C172.23 447.071 171.75 446.977 171.165 446.977C170.364 446.977 169.696 447.162 169.162 447.531C168.634 447.895 168.369 448.358 168.369 448.92C168.369 449.42 168.551 449.815 168.915 450.105C169.278 450.395 169.847 450.636 170.619 450.83L172.562 451.307C173.733 451.591 174.605 452.026 175.179 452.611C175.753 453.19 176.04 453.937 176.04 454.852C176.04 455.602 175.824 456.273 175.392 456.864C174.966 457.455 174.369 457.92 173.602 458.261C172.835 458.602 171.943 458.773 170.926 458.773C169.591 458.773 168.486 458.483 167.611 457.903C166.736 457.324 166.182 456.477 165.949 455.364L167.858 454.886C168.04 455.591 168.384 456.119 168.889 456.472C169.401 456.824 170.068 457 170.892 457C171.83 457 172.574 456.801 173.125 456.403C173.682 456 173.96 455.517 173.96 454.955C173.96 454.5 173.801 454.119 173.483 453.812C173.165 453.5 172.676 453.267 172.017 453.114L169.835 452.602C168.636 452.318 167.756 451.878 167.193 451.281C166.636 450.679 166.358 449.926 166.358 449.023C166.358 448.284 166.565 447.631 166.98 447.062C167.401 446.494 167.972 446.048 168.693 445.724C169.42 445.401 170.244 445.239 171.165 445.239C172.46 445.239 173.477 445.523 174.216 446.091C174.96 446.659 175.489 447.409 175.801 448.341ZM184.761 445.409V447.114H177.977V445.409H184.761ZM179.954 442.273H181.965V454.75C181.965 455.318 182.048 455.744 182.212 456.028C182.383 456.307 182.599 456.494 182.86 456.591C183.127 456.682 183.408 456.727 183.704 456.727C183.925 456.727 184.107 456.716 184.249 456.693C184.391 456.665 184.505 456.642 184.59 456.625L184.999 458.432C184.863 458.483 184.673 458.534 184.428 458.585C184.184 458.642 183.874 458.67 183.499 458.67C182.931 458.67 182.374 458.548 181.829 458.304C181.289 458.06 180.84 457.688 180.482 457.188C180.13 456.688 179.954 456.057 179.954 455.295V442.273ZM187.786 458.5V445.409H189.729V447.386H189.866C190.104 446.739 190.536 446.213 191.161 445.81C191.786 445.406 192.491 445.205 193.275 445.205C193.423 445.205 193.607 445.207 193.829 445.213C194.05 445.219 194.218 445.227 194.332 445.239V447.284C194.263 447.267 194.107 447.241 193.863 447.207C193.624 447.168 193.371 447.148 193.104 447.148C192.468 447.148 191.9 447.281 191.4 447.548C190.906 447.81 190.513 448.173 190.224 448.639C189.94 449.099 189.798 449.625 189.798 450.216V458.5H187.786ZM200.568 458.807C199.739 458.807 198.986 458.651 198.31 458.338C197.634 458.02 197.097 457.562 196.699 456.966C196.301 456.364 196.102 455.636 196.102 454.784C196.102 454.034 196.25 453.426 196.545 452.96C196.841 452.489 197.236 452.119 197.73 451.852C198.224 451.585 198.77 451.386 199.366 451.256C199.969 451.119 200.574 451.011 201.182 450.932C201.977 450.83 202.622 450.753 203.116 450.702C203.616 450.645 203.98 450.551 204.207 450.42C204.44 450.29 204.557 450.062 204.557 449.739V449.67C204.557 448.83 204.327 448.176 203.866 447.71C203.412 447.244 202.722 447.011 201.795 447.011C200.835 447.011 200.082 447.222 199.537 447.642C198.991 448.062 198.608 448.511 198.386 448.989L196.477 448.307C196.818 447.511 197.273 446.892 197.841 446.449C198.415 446 199.04 445.687 199.716 445.511C200.398 445.33 201.068 445.239 201.727 445.239C202.148 445.239 202.631 445.29 203.176 445.392C203.727 445.489 204.259 445.69 204.77 445.997C205.287 446.304 205.716 446.767 206.057 447.386C206.398 448.006 206.568 448.835 206.568 449.875V458.5H204.557V456.727H204.455C204.318 457.011 204.091 457.315 203.773 457.639C203.455 457.963 203.031 458.239 202.503 458.466C201.974 458.693 201.33 458.807 200.568 458.807ZM200.875 457C201.67 457 202.341 456.844 202.886 456.531C203.438 456.219 203.852 455.815 204.131 455.321C204.415 454.827 204.557 454.307 204.557 453.761V451.92C204.472 452.023 204.284 452.116 203.994 452.202C203.71 452.281 203.381 452.352 203.006 452.415C202.636 452.472 202.276 452.523 201.923 452.568C201.577 452.608 201.295 452.642 201.08 452.67C200.557 452.739 200.068 452.849 199.614 453.003C199.165 453.151 198.801 453.375 198.523 453.676C198.25 453.972 198.114 454.375 198.114 454.886C198.114 455.585 198.372 456.114 198.889 456.472C199.412 456.824 200.074 457 200.875 457ZM215.933 445.409V447.114H209.148V445.409H215.933ZM211.126 442.273H213.137V454.75C213.137 455.318 213.219 455.744 213.384 456.028C213.555 456.307 213.771 456.494 214.032 456.591C214.299 456.682 214.58 456.727 214.876 456.727C215.097 456.727 215.279 456.716 215.421 456.693C215.563 456.665 215.677 456.642 215.762 456.625L216.171 458.432C216.035 458.483 215.844 458.534 215.6 458.585C215.356 458.642 215.046 458.67 214.671 458.67C214.103 458.67 213.546 458.548 213.001 458.304C212.461 458.06 212.012 457.688 211.654 457.188C211.302 456.688 211.126 456.057 211.126 455.295V442.273ZM218.958 458.5V445.409H220.969V458.5H218.958ZM219.981 443.227C219.589 443.227 219.251 443.094 218.967 442.827C218.688 442.56 218.549 442.239 218.549 441.864C218.549 441.489 218.688 441.168 218.967 440.901C219.251 440.634 219.589 440.5 219.981 440.5C220.373 440.5 220.708 440.634 220.987 440.901C221.271 441.168 221.413 441.489 221.413 441.864C221.413 442.239 221.271 442.56 220.987 442.827C220.708 443.094 220.373 443.227 219.981 443.227ZM229.972 458.773C228.79 458.773 227.753 458.491 226.861 457.929C225.974 457.366 225.281 456.58 224.781 455.568C224.287 454.557 224.04 453.375 224.04 452.023C224.04 450.659 224.287 449.469 224.781 448.452C225.281 447.435 225.974 446.645 226.861 446.082C227.753 445.52 228.79 445.239 229.972 445.239C231.153 445.239 232.188 445.52 233.074 446.082C233.966 446.645 234.659 447.435 235.153 448.452C235.653 449.469 235.903 450.659 235.903 452.023C235.903 453.375 235.653 454.557 235.153 455.568C234.659 456.58 233.966 457.366 233.074 457.929C232.188 458.491 231.153 458.773 229.972 458.773ZM229.972 456.966C230.869 456.966 231.608 456.736 232.188 456.276C232.767 455.815 233.196 455.21 233.474 454.46C233.753 453.71 233.892 452.898 233.892 452.023C233.892 451.148 233.753 450.332 233.474 449.577C233.196 448.821 232.767 448.21 232.188 447.744C231.608 447.278 230.869 447.045 229.972 447.045C229.074 447.045 228.335 447.278 227.756 447.744C227.176 448.21 226.747 448.821 226.469 449.577C226.19 450.332 226.051 451.148 226.051 452.023C226.051 452.898 226.19 453.71 226.469 454.46C226.747 455.21 227.176 455.815 227.756 456.276C228.335 456.736 229.074 456.966 229.972 456.966ZM240.985 450.625V458.5H238.974V445.409H240.917V447.455H241.087C241.394 446.79 241.86 446.256 242.485 445.852C243.11 445.443 243.917 445.239 244.906 445.239C245.792 445.239 246.567 445.42 247.232 445.784C247.897 446.142 248.414 446.688 248.783 447.42C249.153 448.148 249.337 449.068 249.337 450.182V458.5H247.326V450.318C247.326 449.29 247.059 448.489 246.525 447.915C245.991 447.335 245.258 447.045 244.326 447.045C243.684 447.045 243.11 447.185 242.604 447.463C242.104 447.741 241.71 448.148 241.42 448.682C241.13 449.216 240.985 449.864 240.985 450.625ZM262.831 445.409C262.729 444.545 262.314 443.875 261.587 443.398C260.859 442.92 259.967 442.682 258.911 442.682C258.138 442.682 257.462 442.807 256.882 443.057C256.308 443.307 255.859 443.651 255.536 444.088C255.217 444.526 255.058 445.023 255.058 445.58C255.058 446.045 255.169 446.446 255.391 446.781C255.618 447.111 255.908 447.386 256.26 447.608C256.612 447.824 256.982 448.003 257.368 448.145C257.754 448.281 258.109 448.392 258.433 448.477L260.206 448.955C260.661 449.074 261.166 449.239 261.723 449.449C262.286 449.659 262.822 449.946 263.334 450.31C263.851 450.668 264.277 451.128 264.612 451.69C264.947 452.253 265.115 452.943 265.115 453.761C265.115 454.705 264.868 455.557 264.374 456.318C263.885 457.08 263.169 457.685 262.226 458.134C261.288 458.582 260.149 458.807 258.808 458.807C257.558 458.807 256.476 458.605 255.561 458.202C254.652 457.798 253.936 457.236 253.413 456.514C252.896 455.793 252.604 454.955 252.536 454H254.717C254.774 454.659 254.996 455.205 255.382 455.636C255.774 456.062 256.268 456.381 256.865 456.591C257.467 456.795 258.115 456.898 258.808 456.898C259.615 456.898 260.339 456.767 260.982 456.506C261.624 456.239 262.132 455.869 262.507 455.398C262.882 454.92 263.07 454.364 263.07 453.727C263.07 453.148 262.908 452.676 262.584 452.312C262.26 451.949 261.834 451.653 261.305 451.426C260.777 451.199 260.206 451 259.592 450.83L257.445 450.216C256.081 449.824 255.001 449.264 254.206 448.537C253.411 447.81 253.013 446.858 253.013 445.682C253.013 444.705 253.277 443.852 253.805 443.125C254.339 442.392 255.055 441.824 255.953 441.42C256.857 441.011 257.865 440.807 258.979 440.807C260.104 440.807 261.104 441.009 261.979 441.412C262.854 441.81 263.547 442.355 264.058 443.048C264.575 443.741 264.848 444.528 264.876 445.409H262.831ZM276.567 453.148V445.409H278.579V458.5H276.567V456.284H276.431C276.124 456.949 275.647 457.514 274.999 457.98C274.352 458.44 273.533 458.67 272.545 458.67C271.727 458.67 270.999 458.491 270.363 458.134C269.727 457.77 269.227 457.224 268.863 456.497C268.499 455.764 268.317 454.841 268.317 453.727V445.409H270.329V453.591C270.329 454.545 270.596 455.307 271.13 455.875C271.67 456.443 272.357 456.727 273.192 456.727C273.692 456.727 274.201 456.599 274.718 456.344C275.241 456.088 275.678 455.696 276.031 455.168C276.388 454.639 276.567 453.966 276.567 453.148ZM287.581 458.773C286.354 458.773 285.297 458.483 284.411 457.903C283.524 457.324 282.842 456.526 282.365 455.509C281.888 454.491 281.649 453.33 281.649 452.023C281.649 450.693 281.893 449.52 282.382 448.503C282.876 447.48 283.564 446.682 284.445 446.108C285.331 445.528 286.365 445.239 287.547 445.239C288.467 445.239 289.297 445.409 290.036 445.75C290.774 446.091 291.379 446.568 291.851 447.182C292.322 447.795 292.615 448.511 292.729 449.33H290.717C290.564 448.733 290.223 448.205 289.695 447.744C289.172 447.278 288.467 447.045 287.581 447.045C286.797 447.045 286.109 447.25 285.518 447.659C284.933 448.062 284.476 448.634 284.146 449.372C283.822 450.105 283.661 450.966 283.661 451.955C283.661 452.966 283.82 453.847 284.138 454.597C284.462 455.347 284.916 455.929 285.501 456.344C286.092 456.759 286.786 456.966 287.581 456.966C288.104 456.966 288.578 456.875 289.004 456.693C289.43 456.511 289.791 456.25 290.087 455.909C290.382 455.568 290.592 455.159 290.717 454.682H292.729C292.615 455.455 292.334 456.151 291.885 456.77C291.442 457.384 290.854 457.872 290.121 458.236C289.393 458.594 288.547 458.773 287.581 458.773ZM300.987 458.773C299.76 458.773 298.703 458.483 297.817 457.903C296.93 457.324 296.249 456.526 295.771 455.509C295.294 454.491 295.055 453.33 295.055 452.023C295.055 450.693 295.3 449.52 295.788 448.503C296.283 447.48 296.97 446.682 297.851 446.108C298.737 445.528 299.771 445.239 300.953 445.239C301.874 445.239 302.703 445.409 303.442 445.75C304.18 446.091 304.786 446.568 305.257 447.182C305.729 447.795 306.021 448.511 306.135 449.33H304.124C303.97 448.733 303.629 448.205 303.101 447.744C302.578 447.278 301.874 447.045 300.987 447.045C300.203 447.045 299.516 447.25 298.925 447.659C298.339 448.062 297.882 448.634 297.553 449.372C297.229 450.105 297.067 450.966 297.067 451.955C297.067 452.966 297.226 453.847 297.544 454.597C297.868 455.347 298.322 455.929 298.908 456.344C299.499 456.759 300.192 456.966 300.987 456.966C301.51 456.966 301.984 456.875 302.411 456.693C302.837 456.511 303.197 456.25 303.493 455.909C303.788 455.568 303.999 455.159 304.124 454.682H306.135C306.021 455.455 305.74 456.151 305.291 456.77C304.848 457.384 304.26 457.872 303.527 458.236C302.8 458.594 301.953 458.773 300.987 458.773ZM314.564 458.773C313.303 458.773 312.214 458.494 311.3 457.938C310.391 457.375 309.689 456.591 309.195 455.585C308.706 454.574 308.462 453.398 308.462 452.057C308.462 450.716 308.706 449.534 309.195 448.511C309.689 447.483 310.376 446.682 311.257 446.108C312.143 445.528 313.178 445.239 314.359 445.239C315.041 445.239 315.714 445.352 316.379 445.58C317.044 445.807 317.649 446.176 318.195 446.688C318.74 447.193 319.175 447.864 319.499 448.699C319.822 449.534 319.984 450.562 319.984 451.784V452.636H309.893V450.898H317.939C317.939 450.159 317.791 449.5 317.496 448.92C317.206 448.341 316.791 447.884 316.251 447.548C315.717 447.213 315.087 447.045 314.359 447.045C313.558 447.045 312.865 447.244 312.28 447.642C311.7 448.034 311.254 448.545 310.942 449.176C310.629 449.807 310.473 450.483 310.473 451.205V452.364C310.473 453.352 310.643 454.19 310.984 454.878C311.331 455.56 311.811 456.08 312.425 456.438C313.038 456.79 313.751 456.966 314.564 456.966C315.092 456.966 315.57 456.892 315.996 456.744C316.428 456.591 316.8 456.364 317.112 456.062C317.425 455.756 317.666 455.375 317.837 454.92L319.78 455.466C319.575 456.125 319.232 456.705 318.749 457.205C318.266 457.699 317.669 458.085 316.959 458.364C316.249 458.636 315.45 458.773 314.564 458.773ZM332.317 448.341L330.51 448.852C330.396 448.551 330.229 448.259 330.007 447.974C329.791 447.685 329.496 447.446 329.121 447.259C328.746 447.071 328.266 446.977 327.68 446.977C326.879 446.977 326.212 447.162 325.678 447.531C325.149 447.895 324.885 448.358 324.885 448.92C324.885 449.42 325.067 449.815 325.43 450.105C325.794 450.395 326.362 450.636 327.135 450.83L329.078 451.307C330.249 451.591 331.121 452.026 331.695 452.611C332.268 453.19 332.555 453.937 332.555 454.852C332.555 455.602 332.339 456.273 331.908 456.864C331.482 457.455 330.885 457.92 330.118 458.261C329.351 458.602 328.459 458.773 327.442 458.773C326.107 458.773 325.001 458.483 324.126 457.903C323.251 457.324 322.697 456.477 322.464 455.364L324.374 454.886C324.555 455.591 324.899 456.119 325.405 456.472C325.916 456.824 326.584 457 327.408 457C328.345 457 329.089 456.801 329.641 456.403C330.197 456 330.476 455.517 330.476 454.955C330.476 454.5 330.317 454.119 329.999 453.812C329.68 453.5 329.192 453.267 328.533 453.114L326.351 452.602C325.152 452.318 324.271 451.878 323.709 451.281C323.152 450.679 322.874 449.926 322.874 449.023C322.874 448.284 323.081 447.631 323.496 447.062C323.916 446.494 324.487 446.048 325.209 445.724C325.936 445.401 326.76 445.239 327.68 445.239C328.976 445.239 329.993 445.523 330.732 446.091C331.476 446.659 332.004 447.409 332.317 448.341ZM344.856 448.341L343.049 448.852C342.935 448.551 342.768 448.259 342.546 447.974C342.33 447.685 342.035 447.446 341.66 447.259C341.285 447.071 340.805 446.977 340.219 446.977C339.418 446.977 338.751 447.162 338.217 447.531C337.688 447.895 337.424 448.358 337.424 448.92C337.424 449.42 337.606 449.815 337.969 450.105C338.333 450.395 338.901 450.636 339.674 450.83L341.617 451.307C342.788 451.591 343.66 452.026 344.234 452.611C344.808 453.19 345.094 453.937 345.094 454.852C345.094 455.602 344.879 456.273 344.447 456.864C344.021 457.455 343.424 457.92 342.657 458.261C341.89 458.602 340.998 458.773 339.981 458.773C338.646 458.773 337.54 458.483 336.665 457.903C335.79 457.324 335.237 456.477 335.004 455.364L336.913 454.886C337.094 455.591 337.438 456.119 337.944 456.472C338.455 456.824 339.123 457 339.947 457C340.884 457 341.629 456.801 342.18 456.403C342.737 456 343.015 455.517 343.015 454.955C343.015 454.5 342.856 454.119 342.538 453.812C342.219 453.5 341.731 453.267 341.072 453.114L338.89 452.602C337.691 452.318 336.81 451.878 336.248 451.281C335.691 450.679 335.413 449.926 335.413 449.023C335.413 448.284 335.62 447.631 336.035 447.062C336.455 446.494 337.026 446.048 337.748 445.724C338.475 445.401 339.299 445.239 340.219 445.239C341.515 445.239 342.532 445.523 343.271 446.091C344.015 446.659 344.543 447.409 344.856 448.341Z" fill="black" fill-opacity="0.95"/>
<path d="M591.885 159V148.818H598.746V150.593H594.038V153.019H598.393V154.794H594.038V157.225H598.766V159H591.885ZM601.297 159V148.818H605.314C606.083 148.818 606.739 148.956 607.283 149.231C607.83 149.503 608.246 149.889 608.531 150.389C608.819 150.886 608.963 151.471 608.963 152.144C608.963 152.82 608.818 153.402 608.526 153.889C608.234 154.373 607.812 154.744 607.258 155.003C606.708 155.261 606.042 155.391 605.26 155.391H602.57V153.661H604.912C605.323 153.661 605.664 153.604 605.936 153.491C606.207 153.379 606.41 153.21 606.542 152.984C606.678 152.759 606.746 152.479 606.746 152.144C606.746 151.806 606.678 151.521 606.542 151.289C606.41 151.057 606.206 150.881 605.931 150.762C605.659 150.639 605.316 150.578 604.902 150.578H603.45V159H601.297ZM606.796 154.366L609.326 159H606.95L604.474 154.366H606.796ZM611.325 159V148.818H615.342C616.111 148.818 616.767 148.956 617.311 149.231C617.857 149.503 618.273 149.889 618.558 150.389C618.847 150.886 618.991 151.471 618.991 152.144C618.991 152.82 618.845 153.402 618.553 153.889C618.262 154.373 617.839 154.744 617.286 155.003C616.735 155.261 616.069 155.391 615.287 155.391H612.597V153.661H614.939C615.35 153.661 615.691 153.604 615.963 153.491C616.235 153.379 616.437 153.21 616.57 152.984C616.706 152.759 616.774 152.479 616.774 152.144C616.774 151.806 616.706 151.521 616.57 151.289C616.437 151.057 616.233 150.881 615.958 150.762C615.686 150.639 615.343 150.578 614.929 150.578H613.477V159H611.325ZM616.823 154.366L619.354 159H616.977L614.502 154.366H616.823ZM630.709 153.909C630.709 155.019 630.498 155.964 630.077 156.743C629.66 157.522 629.09 158.117 628.367 158.528C627.648 158.935 626.839 159.139 625.941 159.139C625.036 159.139 624.224 158.934 623.505 158.523C622.786 158.112 622.217 157.517 621.8 156.738C621.382 155.959 621.173 155.016 621.173 153.909C621.173 152.799 621.382 151.854 621.8 151.075C622.217 150.296 622.786 149.703 623.505 149.295C624.224 148.884 625.036 148.679 625.941 148.679C626.839 148.679 627.648 148.884 628.367 149.295C629.09 149.703 629.66 150.296 630.077 151.075C630.498 151.854 630.709 152.799 630.709 153.909ZM628.526 153.909C628.526 153.19 628.418 152.583 628.203 152.089C627.991 151.596 627.691 151.221 627.303 150.966C626.915 150.711 626.461 150.583 625.941 150.583C625.421 150.583 624.967 150.711 624.579 150.966C624.191 151.221 623.889 151.596 623.674 152.089C623.462 152.583 623.356 153.19 623.356 153.909C623.356 154.628 623.462 155.235 623.674 155.729C623.889 156.223 624.191 156.597 624.579 156.852C624.967 157.107 625.421 157.235 625.941 157.235C626.461 157.235 626.915 157.107 627.303 156.852C627.691 156.597 627.991 156.223 628.203 155.729C628.418 155.235 628.526 154.628 628.526 153.909ZM633.143 159V148.818H637.16C637.929 148.818 638.586 148.956 639.129 149.231C639.676 149.503 640.092 149.889 640.377 150.389C640.665 150.886 640.81 151.471 640.81 152.144C640.81 152.82 640.664 153.402 640.372 153.889C640.08 154.373 639.658 154.744 639.104 155.003C638.554 155.261 637.888 155.391 637.106 155.391H634.416V153.661H636.758C637.169 153.661 637.51 153.604 637.782 153.491C638.054 153.379 638.256 153.21 638.388 152.984C638.524 152.759 638.592 152.479 638.592 152.144C638.592 151.806 638.524 151.521 638.388 151.289C638.256 151.057 638.052 150.881 637.777 150.762C637.505 150.639 637.162 150.578 636.748 150.578H635.296V159H633.143ZM638.642 154.366L641.173 159H638.796L636.32 154.366H638.642Z" fill="black"/>
<path d="M683.166 321.2L669.266 342.1C668.366 343.4 669.366 345.2 670.966 345.2H682.666C683.366 345.2 683.866 346 683.566 346.6L675.566 364.1C675.066 365.1 676.366 366 677.166 365.2L701.866 340.5C703.166 339.2 702.266 337.1 700.466 337.1H693.166C692.366 337.1 691.866 336.2 692.366 335.5L699.866 324.5C701.366 322.3 703.866 321 706.466 321H740.466C754.666 321 766.566 309.9 766.966 295.7C767.366 281 755.566 269 740.966 269C738.866 269 736.766 269.3 734.866 269.7C733.166 244.7 712.366 225 686.966 225C664.466 225.2 645.666 240.6 640.366 261.5C639.266 261.4 638.066 261.3 636.866 261.3C620.066 261.3 606.366 275.2 606.866 292.1C607.266 308.4 621.166 321.3 637.466 321.3H646.866M734.766 270C721.866 274.3 714.866 285.3 719.866 290.3C723.866 294.2 734.866 287.2 734.766 270Z" stroke="url(#paint2_linear_1036_2507)" stroke-width="2.5" stroke-miterlimit="10" stroke-linecap="round" stroke-linejoin="round"/>
<circle cx="24" cy="24" r="24" transform="matrix(-1 0 0 1 647 426)" fill="url(#paint3_linear_1036_2507)"/>
<circle cx="24" cy="24" r="28" transform="matrix(-1 0 0 1 647 426)" stroke="black" stroke-opacity="0.2" stroke-width="8"/>
<path d="M684.227 441.045V458.5H682.114V441.045H684.227ZM690.204 441.045V458.5H688.192V441.045H690.204ZM695.899 441.045V458.5H693.888V441.045H695.899ZM707.833 453.148V445.409H709.844V458.5H707.833V456.284H707.697C707.39 456.949 706.913 457.514 706.265 457.98C705.617 458.44 704.799 458.67 703.81 458.67C702.992 458.67 702.265 458.491 701.629 458.134C700.992 457.77 700.492 457.224 700.129 456.497C699.765 455.764 699.583 454.841 699.583 453.727V445.409H701.594V453.591C701.594 454.545 701.862 455.307 702.396 455.875C702.935 456.443 703.623 456.727 704.458 456.727C704.958 456.727 705.467 456.599 705.984 456.344C706.506 456.088 706.944 455.696 707.296 455.168C707.654 454.639 707.833 453.966 707.833 453.148ZM722.801 448.341L720.994 448.852C720.881 448.551 720.713 448.259 720.491 447.974C720.276 447.685 719.98 447.446 719.605 447.259C719.23 447.071 718.75 446.977 718.165 446.977C717.364 446.977 716.696 447.162 716.162 447.531C715.634 447.895 715.369 448.358 715.369 448.92C715.369 449.42 715.551 449.815 715.915 450.105C716.278 450.395 716.847 450.636 717.619 450.83L719.562 451.307C720.733 451.591 721.605 452.026 722.179 452.611C722.753 453.19 723.04 453.937 723.04 454.852C723.04 455.602 722.824 456.273 722.392 456.864C721.966 457.455 721.369 457.92 720.602 458.261C719.835 458.602 718.943 458.773 717.926 458.773C716.591 458.773 715.486 458.483 714.611 457.903C713.736 457.324 713.182 456.477 712.949 455.364L714.858 454.886C715.04 455.591 715.384 456.119 715.889 456.472C716.401 456.824 717.068 457 717.892 457C718.83 457 719.574 456.801 720.125 456.403C720.682 456 720.96 455.517 720.96 454.955C720.96 454.5 720.801 454.119 720.483 453.812C720.165 453.5 719.676 453.267 719.017 453.114L716.835 452.602C715.636 452.318 714.756 451.878 714.193 451.281C713.636 450.679 713.358 449.926 713.358 449.023C713.358 448.284 713.565 447.631 713.98 447.062C714.401 446.494 714.972 446.048 715.693 445.724C716.42 445.401 717.244 445.239 718.165 445.239C719.46 445.239 720.477 445.523 721.216 446.091C721.96 446.659 722.489 447.409 722.801 448.341ZM731.761 445.409V447.114H724.977V445.409H731.761ZM726.954 442.273H728.965V454.75C728.965 455.318 729.048 455.744 729.212 456.028C729.383 456.307 729.599 456.494 729.86 456.591C730.127 456.682 730.408 456.727 730.704 456.727C730.925 456.727 731.107 456.716 731.249 456.693C731.391 456.665 731.505 456.642 731.59 456.625L731.999 458.432C731.863 458.483 731.673 458.534 731.428 458.585C731.184 458.642 730.874 458.67 730.499 458.67C729.931 458.67 729.374 458.548 728.829 458.304C728.289 458.06 727.84 457.688 727.482 457.188C727.13 456.688 726.954 456.057 726.954 455.295V442.273ZM734.786 458.5V445.409H736.729V447.386H736.866C737.104 446.739 737.536 446.213 738.161 445.81C738.786 445.406 739.491 445.205 740.275 445.205C740.423 445.205 740.607 445.207 740.829 445.213C741.05 445.219 741.218 445.227 741.332 445.239V447.284C741.263 447.267 741.107 447.241 740.863 447.207C740.624 447.168 740.371 447.148 740.104 447.148C739.468 447.148 738.9 447.281 738.4 447.548C737.906 447.81 737.513 448.173 737.224 448.639C736.94 449.099 736.798 449.625 736.798 450.216V458.5H734.786ZM747.568 458.807C746.739 458.807 745.986 458.651 745.31 458.338C744.634 458.02 744.097 457.562 743.699 456.966C743.301 456.364 743.102 455.636 743.102 454.784C743.102 454.034 743.25 453.426 743.545 452.96C743.841 452.489 744.236 452.119 744.73 451.852C745.224 451.585 745.77 451.386 746.366 451.256C746.969 451.119 747.574 451.011 748.182 450.932C748.977 450.83 749.622 450.753 750.116 450.702C750.616 450.645 750.98 450.551 751.207 450.42C751.44 450.29 751.557 450.062 751.557 449.739V449.67C751.557 448.83 751.327 448.176 750.866 447.71C750.412 447.244 749.722 447.011 748.795 447.011C747.835 447.011 747.082 447.222 746.537 447.642C745.991 448.062 745.608 448.511 745.386 448.989L743.477 448.307C743.818 447.511 744.273 446.892 744.841 446.449C745.415 446 746.04 445.687 746.716 445.511C747.398 445.33 748.068 445.239 748.727 445.239C749.148 445.239 749.631 445.29 750.176 445.392C750.727 445.489 751.259 445.69 751.77 445.997C752.287 446.304 752.716 446.767 753.057 447.386C753.398 448.006 753.568 448.835 753.568 449.875V458.5H751.557V456.727H751.455C751.318 457.011 751.091 457.315 750.773 457.639C750.455 457.963 750.031 458.239 749.503 458.466C748.974 458.693 748.33 458.807 747.568 458.807ZM747.875 457C748.67 457 749.341 456.844 749.886 456.531C750.438 456.219 750.852 455.815 751.131 455.321C751.415 454.827 751.557 454.307 751.557 453.761V451.92C751.472 452.023 751.284 452.116 750.994 452.202C750.71 452.281 750.381 452.352 750.006 452.415C749.636 452.472 749.276 452.523 748.923 452.568C748.577 452.608 748.295 452.642 748.08 452.67C747.557 452.739 747.068 452.849 746.614 453.003C746.165 453.151 745.801 453.375 745.523 453.676C745.25 453.972 745.114 454.375 745.114 454.886C745.114 455.585 745.372 456.114 745.889 456.472C746.412 456.824 747.074 457 747.875 457ZM762.933 445.409V447.114H756.148V445.409H762.933ZM758.126 442.273H760.137V454.75C760.137 455.318 760.219 455.744 760.384 456.028C760.555 456.307 760.771 456.494 761.032 456.591C761.299 456.682 761.58 456.727 761.876 456.727C762.097 456.727 762.279 456.716 762.421 456.693C762.563 456.665 762.677 456.642 762.762 456.625L763.171 458.432C763.035 458.483 762.844 458.534 762.6 458.585C762.356 458.642 762.046 458.67 761.671 458.67C761.103 458.67 760.546 458.548 760.001 458.304C759.461 458.06 759.012 457.688 758.654 457.188C758.302 456.688 758.126 456.057 758.126 455.295V442.273ZM765.958 458.5V445.409H767.969V458.5H765.958ZM766.981 443.227C766.589 443.227 766.251 443.094 765.967 442.827C765.688 442.56 765.549 442.239 765.549 441.864C765.549 441.489 765.688 441.168 765.967 440.901C766.251 440.634 766.589 440.5 766.981 440.5C767.373 440.5 767.708 440.634 767.987 440.901C768.271 441.168 768.413 441.489 768.413 441.864C768.413 442.239 768.271 442.56 767.987 442.827C767.708 443.094 767.373 443.227 766.981 443.227ZM776.972 458.773C775.79 458.773 774.753 458.491 773.861 457.929C772.974 457.366 772.281 456.58 771.781 455.568C771.287 454.557 771.04 453.375 771.04 452.023C771.04 450.659 771.287 449.469 771.781 448.452C772.281 447.435 772.974 446.645 773.861 446.082C774.753 445.52 775.79 445.239 776.972 445.239C778.153 445.239 779.188 445.52 780.074 446.082C780.966 446.645 781.659 447.435 782.153 448.452C782.653 449.469 782.903 450.659 782.903 452.023C782.903 453.375 782.653 454.557 782.153 455.568C781.659 456.58 780.966 457.366 780.074 457.929C779.188 458.491 778.153 458.773 776.972 458.773ZM776.972 456.966C777.869 456.966 778.608 456.736 779.188 456.276C779.767 455.815 780.196 455.21 780.474 454.46C780.753 453.71 780.892 452.898 780.892 452.023C780.892 451.148 780.753 450.332 780.474 449.577C780.196 448.821 779.767 448.21 779.188 447.744C778.608 447.278 777.869 447.045 776.972 447.045C776.074 447.045 775.335 447.278 774.756 447.744C774.176 448.21 773.747 448.821 773.469 449.577C773.19 450.332 773.051 451.148 773.051 452.023C773.051 452.898 773.19 453.71 773.469 454.46C773.747 455.21 774.176 455.815 774.756 456.276C775.335 456.736 776.074 456.966 776.972 456.966ZM787.985 450.625V458.5H785.974V445.409H787.917V447.455H788.087C788.394 446.79 788.86 446.256 789.485 445.852C790.11 445.443 790.917 445.239 791.906 445.239C792.792 445.239 793.567 445.42 794.232 445.784C794.897 446.142 795.414 446.688 795.783 447.42C796.153 448.148 796.337 449.068 796.337 450.182V458.5H794.326V450.318C794.326 449.29 794.059 448.489 793.525 447.915C792.991 447.335 792.258 447.045 791.326 447.045C790.684 447.045 790.11 447.185 789.604 447.463C789.104 447.741 788.71 448.148 788.42 448.682C788.13 449.216 787.985 449.864 787.985 450.625ZM800.286 458.5V441.045H810.82V442.92H802.399V448.818H810.274V450.693H802.399V456.625H810.956V458.5H800.286ZM814.357 458.5V445.409H816.3V447.386H816.436C816.675 446.739 817.107 446.213 817.732 445.81C818.357 445.406 819.061 445.205 819.845 445.205C819.993 445.205 820.178 445.207 820.399 445.213C820.621 445.219 820.788 445.227 820.902 445.239V447.284C820.834 447.267 820.678 447.241 820.433 447.207C820.195 447.168 819.942 447.148 819.675 447.148C819.038 447.148 818.47 447.281 817.97 447.548C817.476 447.81 817.084 448.173 816.794 448.639C816.51 449.099 816.368 449.625 816.368 450.216V458.5H814.357ZM823.286 458.5V445.409H825.229V447.386H825.366C825.604 446.739 826.036 446.213 826.661 445.81C827.286 445.406 827.991 445.205 828.775 445.205C828.923 445.205 829.107 445.207 829.329 445.213C829.55 445.219 829.718 445.227 829.832 445.239V447.284C829.763 447.267 829.607 447.241 829.363 447.207C829.124 447.168 828.871 447.148 828.604 447.148C827.968 447.148 827.4 447.281 826.9 447.548C826.406 447.81 826.013 448.173 825.724 448.639C825.44 449.099 825.298 449.625 825.298 450.216V458.5H823.286ZM837.136 458.773C835.954 458.773 834.917 458.491 834.025 457.929C833.138 457.366 832.445 456.58 831.945 455.568C831.451 454.557 831.204 453.375 831.204 452.023C831.204 450.659 831.451 449.469 831.945 448.452C832.445 447.435 833.138 446.645 834.025 446.082C834.917 445.52 835.954 445.239 837.136 445.239C838.317 445.239 839.352 445.52 840.238 446.082C841.13 446.645 841.823 447.435 842.317 448.452C842.817 449.469 843.067 450.659 843.067 452.023C843.067 453.375 842.817 454.557 842.317 455.568C841.823 456.58 841.13 457.366 840.238 457.929C839.352 458.491 838.317 458.773 837.136 458.773ZM837.136 456.966C838.033 456.966 838.772 456.736 839.352 456.276C839.931 455.815 840.36 455.21 840.638 454.46C840.917 453.71 841.056 452.898 841.056 452.023C841.056 451.148 840.917 450.332 840.638 449.577C840.36 448.821 839.931 448.21 839.352 447.744C838.772 447.278 838.033 447.045 837.136 447.045C836.238 447.045 835.499 447.278 834.92 447.744C834.34 448.21 833.911 448.821 833.633 449.577C833.354 450.332 833.215 451.148 833.215 452.023C833.215 452.898 833.354 453.71 833.633 454.46C833.911 455.21 834.34 455.815 834.92 456.276C835.499 456.736 836.238 456.966 837.136 456.966ZM846.138 458.5V445.409H848.081V447.386H848.217C848.456 446.739 848.888 446.213 849.513 445.81C850.138 445.406 850.842 445.205 851.626 445.205C851.774 445.205 851.959 445.207 852.18 445.213C852.402 445.219 852.57 445.227 852.683 445.239V447.284C852.615 447.267 852.459 447.241 852.214 447.207C851.976 447.168 851.723 447.148 851.456 447.148C850.82 447.148 850.251 447.281 849.751 447.548C849.257 447.81 848.865 448.173 848.575 448.639C848.291 449.099 848.149 449.625 848.149 450.216V458.5H846.138Z" fill="black" fill-opacity="0.95"/>
<defs>
<linearGradient id="paint0_linear_1036_2507" x1="136.128" y1="220.277" x2="136.128" y2="369.4" gradientUnits="userSpaceOnUse">
<stop stop-color="#3CC29A"/>
<stop offset="1" stop-color="#93C437"/>
</linearGradient>
<linearGradient id="paint1_linear_1036_2507" x1="24" y1="0" x2="24" y2="48" gradientUnits="userSpaceOnUse">
<stop stop-color="#3CC29A"/>
<stop offset="1" stop-color="#93C437"/>
</linearGradient>
<linearGradient id="paint2_linear_1036_2507" x1="686.914" y1="225" x2="686.914" y2="365.508" gradientUnits="userSpaceOnUse">
<stop stop-color="#F0677E"/>
<stop offset="1" stop-color="#DB1F2E"/>
</linearGradient>
<linearGradient id="paint3_linear_1036_2507" x1="24" y1="0" x2="24" y2="48" gradientUnits="userSpaceOnUse">
<stop stop-color="#F0677E"/>
<stop offset="1" stop-color="#DB1F2E"/>
</linearGradient>
</defs>
</svg>
