<svg width="559" height="322" viewBox="0 0 559 322" fill="none" xmlns="http://www.w3.org/2000/svg">
<rect width="559" height="322" rx="16" fill="#1A1A1A"/>
<path d="M167.2 261.96H169.3C169.54 263.58 170.86 264.62 173 264.62C175.4 264.62 176.62 263.46 176.62 262.1C176.62 260.76 175.96 260.14 172.08 259.08C168.74 258.16 167.7 256.98 167.7 255C167.7 252.9 169.56 251.3 172.86 251.3C175.94 251.3 178.2 252.76 178.56 255.2H176.46C176.24 253.8 175.02 252.98 172.86 252.98C170.66 252.98 169.74 253.84 169.74 254.92C169.74 256.04 170.22 256.58 173.52 257.5C177.52 258.62 178.66 259.8 178.66 262.02C178.66 264.26 176.62 266.3 173.04 266.3C169.94 266.3 167.6 264.6 167.2 261.96Z" fill="white" fill-opacity="0.95"/>
<path d="M276.34 263H274.42L269.98 251.72V263H268V248.6H270.84L275.42 260.6L279.74 248.6H282.42V263H280.5V251.82L276.34 263Z" fill="white" fill-opacity="0.95"/>
<path d="M365 248.6H367.06V261.18H373.84V263H365V248.6Z" fill="white" fill-opacity="0.95"/>
<rect x="151" y="193.5" width="96" height="96" stroke="white" stroke-opacity="0.95"/>
<rect x="151" y="131.5" width="158" height="158" stroke="white" stroke-opacity="0.95"/>
<rect x="151" y="32.5" width="257" height="257" stroke="white" stroke-opacity="0.95"/>
<path d="M293.045 150.854C293.045 150.578 292.822 150.354 292.545 150.354L288.045 150.354C287.769 150.354 287.545 150.578 287.545 150.854C287.545 151.13 287.769 151.354 288.045 151.354L292.045 151.354L292.045 155.354C292.045 155.63 292.269 155.854 292.545 155.854C292.822 155.854 293.045 155.63 293.045 155.354L293.045 150.854ZM276.955 167.151L292.899 151.208L292.192 150.5L276.248 166.444L276.955 167.151Z" fill="white" fill-opacity="0.95"/>
<path d="M261.607 181.292C261.607 181.568 261.831 181.792 262.107 181.792L266.607 181.792C266.883 181.792 267.107 181.568 267.107 181.292C267.107 181.016 266.883 180.792 266.607 180.792L262.607 180.792L262.607 176.792C262.607 176.516 262.383 176.292 262.107 176.292C261.831 176.292 261.607 176.516 261.607 176.792L261.607 181.292ZM276.248 166.444L261.754 180.939L262.461 181.646L276.955 167.151L276.248 166.444Z" fill="white" fill-opacity="0.95"/>
<path d="M394.506 47.9438C394.506 47.6677 394.282 47.4438 394.006 47.4438L389.506 47.4438C389.23 47.4438 389.006 47.6677 389.006 47.9438C389.006 48.22 389.23 48.4438 389.506 48.4438L393.506 48.4438L393.506 52.4438C393.506 52.72 393.73 52.9438 394.006 52.9438C394.282 52.9438 394.506 52.72 394.506 52.4438L394.506 47.9438ZM355.639 87.0181L394.359 48.2974L393.652 47.5903L354.932 86.311L355.639 87.0181Z" fill="white" fill-opacity="0.95"/>
<path d="M319.585 121.865C319.585 122.141 319.808 122.365 320.085 122.365L324.585 122.365C324.861 122.365 325.085 122.141 325.085 121.865C325.085 121.589 324.861 121.365 324.585 121.365L320.585 121.365L320.585 117.365C320.585 117.089 320.361 116.865 320.085 116.865C319.808 116.865 319.585 117.089 319.585 117.365L319.585 121.865ZM354.932 86.311L319.731 121.512L320.438 122.219L355.639 87.0181L354.932 86.311Z" fill="white" fill-opacity="0.95"/>
</svg>
