<svg width="559" height="311" viewBox="0 0 559 311" fill="none" xmlns="http://www.w3.org/2000/svg">
<rect width="559" height="311" rx="16" fill="#262626"/>
<path d="M243.374 131.576V56.6385M243.374 56.6385L250.187 54.3677C270.624 47.5552 288.791 48.6906 288.791 61.1802C288.791 73.6698 288.791 86.1594 288.791 86.1594M243.374 56.6385C234.859 59.4771 232.02 49.826 235.427 47.5552C238.833 45.2844 243.374 49.2583 243.374 56.6385ZM292.765 65.3812C299.918 65.7786 309.967 64.7 320.583 61.1802V108.868C300.145 115.68 281.979 113.409 281.979 108.868C281.979 105.461 288.791 105.461 288.791 102.055C288.791 97.7406 272.555 95.4698 253.48 101.033C251.549 101.601 250.187 103.361 250.187 105.405V131.576" stroke="white" stroke-opacity="0.95" stroke-width="1.41927" stroke-miterlimit="10" stroke-linecap="round" stroke-linejoin="round"/>
<path d="M226.722 174V156.545H237.903V159.196H229.884V163.935H237.136V166.585H229.884V174H226.722ZM243.733 156.545V174H240.648V156.545H243.733ZM250.673 174.264C249.843 174.264 249.096 174.116 248.431 173.821C247.772 173.52 247.249 173.077 246.863 172.491C246.482 171.906 246.292 171.185 246.292 170.327C246.292 169.588 246.428 168.977 246.701 168.494C246.974 168.011 247.346 167.625 247.817 167.335C248.289 167.045 248.82 166.827 249.411 166.679C250.008 166.526 250.624 166.415 251.261 166.347C252.028 166.267 252.65 166.196 253.127 166.134C253.604 166.065 253.951 165.963 254.167 165.827C254.388 165.685 254.499 165.466 254.499 165.17V165.119C254.499 164.477 254.309 163.98 253.928 163.628C253.548 163.276 252.999 163.099 252.283 163.099C251.528 163.099 250.928 163.264 250.485 163.594C250.048 163.923 249.752 164.312 249.599 164.761L246.718 164.352C246.945 163.557 247.32 162.892 247.843 162.358C248.366 161.818 249.005 161.415 249.761 161.148C250.516 160.875 251.352 160.739 252.266 160.739C252.897 160.739 253.525 160.812 254.15 160.96C254.775 161.108 255.346 161.352 255.863 161.693C256.38 162.028 256.795 162.486 257.107 163.065C257.425 163.645 257.585 164.369 257.585 165.239V174H254.619V172.202H254.516C254.329 172.565 254.065 172.906 253.724 173.224C253.388 173.537 252.965 173.79 252.454 173.983C251.948 174.17 251.354 174.264 250.673 174.264ZM251.474 171.997C252.093 171.997 252.63 171.875 253.085 171.631C253.539 171.381 253.888 171.051 254.133 170.642C254.383 170.233 254.508 169.787 254.508 169.304V167.761C254.411 167.841 254.246 167.915 254.013 167.983C253.786 168.051 253.531 168.111 253.246 168.162C252.962 168.213 252.681 168.259 252.403 168.298C252.124 168.338 251.883 168.372 251.678 168.401C251.218 168.463 250.806 168.565 250.442 168.707C250.079 168.849 249.792 169.048 249.582 169.304C249.371 169.554 249.266 169.878 249.266 170.276C249.266 170.844 249.474 171.273 249.888 171.562C250.303 171.852 250.832 171.997 251.474 171.997ZM266.38 179.131C265.272 179.131 264.32 178.983 263.525 178.688C262.729 178.392 262.09 177.997 261.607 177.503C261.124 177.009 260.789 176.466 260.602 175.875L263.38 175.202C263.505 175.435 263.687 175.673 263.925 175.918C264.164 176.168 264.485 176.375 264.888 176.54C265.298 176.71 265.812 176.795 266.431 176.795C267.306 176.795 268.031 176.585 268.604 176.165C269.178 175.744 269.465 175.065 269.465 174.128V171.648H269.312C269.153 171.966 268.92 172.293 268.613 172.628C268.312 172.963 267.911 173.244 267.411 173.472C266.917 173.699 266.295 173.812 265.545 173.812C264.539 173.812 263.627 173.577 262.809 173.105C261.996 172.628 261.349 171.918 260.866 170.974C260.388 170.026 260.15 168.838 260.15 167.412C260.15 165.974 260.388 164.761 260.866 163.773C261.349 162.778 261.999 162.026 262.817 161.514C263.636 160.997 264.548 160.739 265.553 160.739C266.32 160.739 266.951 160.869 267.445 161.131C267.945 161.386 268.343 161.696 268.638 162.06C268.934 162.418 269.158 162.756 269.312 163.074H269.482V160.909H272.525V174.213C272.525 175.31 272.258 176.222 271.724 176.949C271.19 177.682 270.46 178.227 269.533 178.585C268.607 178.949 267.556 179.131 266.38 179.131ZM266.406 171.392C267.059 171.392 267.616 171.233 268.076 170.915C268.536 170.597 268.886 170.139 269.124 169.543C269.363 168.946 269.482 168.23 269.482 167.395C269.482 166.571 269.363 165.849 269.124 165.23C268.891 164.611 268.545 164.131 268.085 163.79C267.63 163.443 267.07 163.27 266.406 163.27C265.718 163.27 265.144 163.449 264.684 163.807C264.224 164.165 263.877 164.656 263.644 165.281C263.411 165.901 263.295 166.605 263.295 167.395C263.295 168.196 263.411 168.898 263.644 169.5C263.883 170.097 264.232 170.562 264.692 170.898C265.158 171.227 265.729 171.392 266.406 171.392ZM281.38 179.131C280.272 179.131 279.32 178.983 278.525 178.688C277.729 178.392 277.09 177.997 276.607 177.503C276.124 177.009 275.789 176.466 275.602 175.875L278.38 175.202C278.505 175.435 278.687 175.673 278.925 175.918C279.164 176.168 279.485 176.375 279.888 176.54C280.298 176.71 280.812 176.795 281.431 176.795C282.306 176.795 283.031 176.585 283.604 176.165C284.178 175.744 284.465 175.065 284.465 174.128V171.648H284.312C284.153 171.966 283.92 172.293 283.613 172.628C283.312 172.963 282.911 173.244 282.411 173.472C281.917 173.699 281.295 173.812 280.545 173.812C279.539 173.812 278.627 173.577 277.809 173.105C276.996 172.628 276.349 171.918 275.866 170.974C275.388 170.026 275.15 168.838 275.15 167.412C275.15 165.974 275.388 164.761 275.866 163.773C276.349 162.778 276.999 162.026 277.817 161.514C278.636 160.997 279.548 160.739 280.553 160.739C281.32 160.739 281.951 160.869 282.445 161.131C282.945 161.386 283.343 161.696 283.638 162.06C283.934 162.418 284.158 162.756 284.312 163.074H284.482V160.909H287.525V174.213C287.525 175.31 287.258 176.222 286.724 176.949C286.19 177.682 285.46 178.227 284.533 178.585C283.607 178.949 282.556 179.131 281.38 179.131ZM281.406 171.392C282.059 171.392 282.616 171.233 283.076 170.915C283.536 170.597 283.886 170.139 284.124 169.543C284.363 168.946 284.482 168.23 284.482 167.395C284.482 166.571 284.363 165.849 284.124 165.23C283.891 164.611 283.545 164.131 283.085 163.79C282.63 163.443 282.07 163.27 281.406 163.27C280.718 163.27 280.144 163.449 279.684 163.807C279.224 164.165 278.877 164.656 278.644 165.281C278.411 165.901 278.295 166.605 278.295 167.395C278.295 168.196 278.411 168.898 278.644 169.5C278.883 170.097 279.232 170.562 279.692 170.898C280.158 171.227 280.729 171.392 281.406 171.392ZM296.482 174.256C295.17 174.256 294.036 173.983 293.082 173.438C292.133 172.886 291.403 172.108 290.891 171.102C290.38 170.091 290.124 168.901 290.124 167.531C290.124 166.185 290.38 165.003 290.891 163.986C291.408 162.963 292.13 162.168 293.056 161.599C293.982 161.026 295.07 160.739 296.32 160.739C297.127 160.739 297.888 160.869 298.604 161.131C299.326 161.386 299.962 161.784 300.513 162.324C301.07 162.864 301.508 163.551 301.826 164.386C302.144 165.216 302.303 166.205 302.303 167.352V168.298H291.573V166.219H299.346C299.34 165.628 299.212 165.102 298.962 164.642C298.712 164.176 298.363 163.81 297.914 163.543C297.471 163.276 296.954 163.142 296.363 163.142C295.732 163.142 295.178 163.295 294.701 163.602C294.224 163.903 293.852 164.301 293.585 164.795C293.323 165.284 293.19 165.821 293.184 166.406V168.222C293.184 168.983 293.323 169.636 293.602 170.182C293.88 170.722 294.269 171.136 294.769 171.426C295.269 171.71 295.854 171.852 296.525 171.852C296.974 171.852 297.38 171.79 297.744 171.665C298.107 171.534 298.423 171.344 298.69 171.094C298.957 170.844 299.158 170.534 299.295 170.165L302.175 170.489C301.994 171.25 301.647 171.915 301.136 172.483C300.63 173.045 299.982 173.483 299.192 173.795C298.403 174.102 297.499 174.256 296.482 174.256ZM309.771 174.23C308.743 174.23 307.822 173.966 307.01 173.438C306.197 172.909 305.555 172.142 305.084 171.136C304.612 170.131 304.376 168.909 304.376 167.472C304.376 166.017 304.615 164.79 305.092 163.79C305.575 162.784 306.226 162.026 307.044 161.514C307.862 160.997 308.774 160.739 309.78 160.739C310.547 160.739 311.178 160.869 311.672 161.131C312.166 161.386 312.558 161.696 312.848 162.06C313.138 162.418 313.362 162.756 313.521 163.074H313.649V156.545H316.743V174H313.709V171.938H313.521C313.362 172.256 313.132 172.594 312.831 172.952C312.53 173.304 312.132 173.605 311.638 173.855C311.143 174.105 310.521 174.23 309.771 174.23ZM310.632 171.699C311.286 171.699 311.842 171.523 312.303 171.17C312.763 170.812 313.112 170.315 313.351 169.679C313.589 169.043 313.709 168.301 313.709 167.455C313.709 166.608 313.589 165.872 313.351 165.247C313.118 164.622 312.771 164.136 312.311 163.79C311.857 163.443 311.297 163.27 310.632 163.27C309.945 163.27 309.371 163.449 308.911 163.807C308.45 164.165 308.104 164.659 307.871 165.29C307.638 165.92 307.521 166.642 307.521 167.455C307.521 168.273 307.638 169.003 307.871 169.645C308.109 170.281 308.459 170.784 308.919 171.153C309.385 171.517 309.956 171.699 310.632 171.699ZM236.207 195.344C236.128 194.599 235.793 194.02 235.202 193.605C234.616 193.19 233.855 192.983 232.918 192.983C232.259 192.983 231.693 193.082 231.222 193.281C230.75 193.48 230.389 193.75 230.139 194.091C229.889 194.432 229.761 194.821 229.756 195.259C229.756 195.622 229.838 195.937 230.003 196.205C230.173 196.472 230.403 196.699 230.693 196.886C230.983 197.068 231.304 197.222 231.656 197.347C232.009 197.472 232.364 197.577 232.722 197.662L234.358 198.071C235.017 198.224 235.651 198.432 236.259 198.693C236.872 198.955 237.42 199.284 237.903 199.682C238.392 200.08 238.778 200.56 239.062 201.122C239.347 201.685 239.489 202.344 239.489 203.099C239.489 204.122 239.227 205.023 238.705 205.801C238.182 206.574 237.426 207.179 236.438 207.616C235.455 208.048 234.264 208.264 232.866 208.264C231.509 208.264 230.33 208.054 229.33 207.634C228.335 207.213 227.557 206.599 226.994 205.793C226.438 204.986 226.136 204.003 226.091 202.844H229.202C229.247 203.452 229.435 203.957 229.764 204.361C230.094 204.764 230.523 205.065 231.051 205.264C231.585 205.463 232.182 205.562 232.841 205.562C233.528 205.562 234.131 205.46 234.648 205.256C235.17 205.045 235.58 204.756 235.875 204.386C236.17 204.011 236.321 203.574 236.327 203.074C236.321 202.619 236.188 202.244 235.926 201.949C235.665 201.648 235.298 201.398 234.827 201.199C234.361 200.994 233.815 200.812 233.19 200.653L231.205 200.142C229.767 199.773 228.631 199.213 227.795 198.463C226.966 197.707 226.551 196.705 226.551 195.455C226.551 194.426 226.83 193.526 227.386 192.753C227.949 191.98 228.713 191.381 229.679 190.955C230.645 190.523 231.739 190.307 232.96 190.307C234.199 190.307 235.284 190.523 236.216 190.955C237.153 191.381 237.889 191.974 238.423 192.736C238.957 193.491 239.233 194.361 239.25 195.344H236.207ZM250.515 202.494V194.909H253.6V208H250.609V205.673H250.472C250.177 206.406 249.691 207.006 249.015 207.472C248.344 207.937 247.518 208.17 246.535 208.17C245.677 208.17 244.918 207.98 244.259 207.599C243.606 207.213 243.094 206.653 242.725 205.92C242.356 205.182 242.171 204.29 242.171 203.244V194.909H245.256V202.767C245.256 203.597 245.484 204.256 245.938 204.744C246.393 205.233 246.989 205.477 247.728 205.477C248.183 205.477 248.623 205.366 249.049 205.145C249.475 204.923 249.825 204.594 250.097 204.156C250.376 203.713 250.515 203.159 250.515 202.494ZM262.483 208.256C261.176 208.256 260.054 207.969 259.116 207.395C258.185 206.821 257.466 206.028 256.96 205.017C256.46 204 256.21 202.83 256.21 201.506C256.21 200.176 256.466 199.003 256.977 197.986C257.489 196.963 258.21 196.168 259.142 195.599C260.08 195.026 261.188 194.739 262.466 194.739C263.528 194.739 264.469 194.935 265.287 195.327C266.111 195.713 266.767 196.261 267.256 196.972C267.744 197.676 268.023 198.5 268.091 199.443H265.142C265.023 198.812 264.739 198.287 264.29 197.866C263.847 197.44 263.253 197.227 262.509 197.227C261.878 197.227 261.324 197.398 260.847 197.739C260.369 198.074 259.997 198.557 259.73 199.188C259.469 199.818 259.338 200.574 259.338 201.455C259.338 202.347 259.469 203.114 259.73 203.756C259.991 204.392 260.358 204.884 260.83 205.23C261.307 205.571 261.866 205.741 262.509 205.741C262.963 205.741 263.369 205.656 263.727 205.486C264.091 205.31 264.395 205.057 264.639 204.727C264.884 204.398 265.051 203.997 265.142 203.526H268.091C268.017 204.452 267.744 205.273 267.273 205.989C266.801 206.699 266.159 207.256 265.347 207.659C264.534 208.057 263.58 208.256 262.483 208.256ZM276.335 208.256C275.028 208.256 273.906 207.969 272.968 207.395C272.036 206.821 271.317 206.028 270.812 205.017C270.312 204 270.062 202.83 270.062 201.506C270.062 200.176 270.317 199.003 270.829 197.986C271.34 196.963 272.062 196.168 272.994 195.599C273.931 195.026 275.039 194.739 276.317 194.739C277.38 194.739 278.32 194.935 279.138 195.327C279.962 195.713 280.619 196.261 281.107 196.972C281.596 197.676 281.874 198.5 281.942 199.443H278.994C278.874 198.812 278.59 198.287 278.141 197.866C277.698 197.44 277.104 197.227 276.36 197.227C275.729 197.227 275.175 197.398 274.698 197.739C274.221 198.074 273.849 198.557 273.582 199.188C273.32 199.818 273.19 200.574 273.19 201.455C273.19 202.347 273.32 203.114 273.582 203.756C273.843 204.392 274.21 204.884 274.681 205.23C275.158 205.571 275.718 205.741 276.36 205.741C276.815 205.741 277.221 205.656 277.579 205.486C277.942 205.31 278.246 205.057 278.491 204.727C278.735 204.398 278.903 203.997 278.994 203.526H281.942C281.869 204.452 281.596 205.273 281.124 205.989C280.653 206.699 280.011 207.256 279.198 207.659C278.386 208.057 277.431 208.256 276.335 208.256ZM290.271 208.256C288.959 208.256 287.825 207.983 286.871 207.438C285.922 206.886 285.192 206.108 284.68 205.102C284.169 204.091 283.913 202.901 283.913 201.531C283.913 200.185 284.169 199.003 284.68 197.986C285.197 196.963 285.919 196.168 286.845 195.599C287.771 195.026 288.859 194.739 290.109 194.739C290.916 194.739 291.678 194.869 292.393 195.131C293.115 195.386 293.751 195.784 294.303 196.324C294.859 196.864 295.297 197.551 295.615 198.386C295.933 199.216 296.092 200.205 296.092 201.352V202.298H285.362V200.219H293.135C293.129 199.628 293.001 199.102 292.751 198.642C292.501 198.176 292.152 197.81 291.703 197.543C291.26 197.276 290.743 197.142 290.152 197.142C289.521 197.142 288.967 197.295 288.49 197.602C288.013 197.903 287.641 198.301 287.374 198.795C287.112 199.284 286.979 199.821 286.973 200.406V202.222C286.973 202.983 287.112 203.636 287.391 204.182C287.669 204.722 288.058 205.136 288.558 205.426C289.058 205.71 289.643 205.852 290.314 205.852C290.763 205.852 291.169 205.79 291.533 205.665C291.896 205.534 292.212 205.344 292.479 205.094C292.746 204.844 292.947 204.534 293.084 204.165L295.964 204.489C295.783 205.25 295.436 205.915 294.925 206.483C294.419 207.045 293.771 207.483 292.982 207.795C292.192 208.102 291.288 208.256 290.271 208.256ZM309.049 198.369L306.237 198.676C306.157 198.392 306.018 198.125 305.819 197.875C305.626 197.625 305.364 197.423 305.035 197.27C304.705 197.116 304.302 197.04 303.825 197.04C303.183 197.04 302.643 197.179 302.205 197.457C301.773 197.736 301.56 198.097 301.566 198.54C301.56 198.92 301.7 199.23 301.984 199.469C302.273 199.707 302.751 199.903 303.415 200.057L305.648 200.534C306.887 200.801 307.808 201.224 308.41 201.804C309.018 202.384 309.325 203.142 309.33 204.08C309.325 204.903 309.083 205.631 308.606 206.261C308.134 206.886 307.478 207.375 306.637 207.727C305.796 208.08 304.83 208.256 303.739 208.256C302.137 208.256 300.847 207.92 299.87 207.25C298.893 206.574 298.31 205.634 298.123 204.429L301.131 204.139C301.268 204.73 301.558 205.176 302.001 205.477C302.444 205.778 303.021 205.929 303.731 205.929C304.464 205.929 305.052 205.778 305.495 205.477C305.944 205.176 306.168 204.804 306.168 204.361C306.168 203.986 306.023 203.676 305.734 203.432C305.45 203.187 305.006 203 304.404 202.869L302.171 202.401C300.915 202.139 299.987 201.699 299.384 201.08C298.782 200.455 298.484 199.665 298.489 198.71C298.484 197.903 298.702 197.205 299.146 196.614C299.594 196.017 300.217 195.557 301.012 195.233C301.813 194.903 302.737 194.739 303.782 194.739C305.316 194.739 306.523 195.065 307.404 195.719C308.29 196.372 308.839 197.256 309.049 198.369ZM322.221 198.369L319.408 198.676C319.329 198.392 319.19 198.125 318.991 197.875C318.798 197.625 318.536 197.423 318.207 197.27C317.877 197.116 317.474 197.04 316.996 197.04C316.354 197.04 315.815 197.179 315.377 197.457C314.945 197.736 314.732 198.097 314.738 198.54C314.732 198.92 314.871 199.23 315.156 199.469C315.445 199.707 315.923 199.903 316.587 200.057L318.82 200.534C320.059 200.801 320.979 201.224 321.582 201.804C322.19 202.384 322.496 203.142 322.502 204.08C322.496 204.903 322.255 205.631 321.778 206.261C321.306 206.886 320.65 207.375 319.809 207.727C318.968 208.08 318.002 208.256 316.911 208.256C315.309 208.256 314.019 207.92 313.042 207.25C312.065 206.574 311.482 205.634 311.295 204.429L314.303 204.139C314.44 204.73 314.729 205.176 315.173 205.477C315.616 205.778 316.192 205.929 316.903 205.929C317.636 205.929 318.224 205.778 318.667 205.477C319.116 205.176 319.34 204.804 319.34 204.361C319.34 203.986 319.195 203.676 318.906 203.432C318.621 203.187 318.178 203 317.576 202.869L315.343 202.401C314.087 202.139 313.158 201.699 312.556 201.08C311.954 200.455 311.656 199.665 311.661 198.71C311.656 197.903 311.874 197.205 312.317 196.614C312.766 196.017 313.388 195.557 314.184 195.233C314.985 194.903 315.908 194.739 316.954 194.739C318.488 194.739 319.695 195.065 320.576 195.719C321.462 196.372 322.011 197.256 322.221 198.369ZM228.486 242.188C227.969 242.188 227.526 242.006 227.156 241.642C226.787 241.278 226.605 240.835 226.611 240.312C226.605 239.801 226.787 239.364 227.156 239C227.526 238.636 227.969 238.455 228.486 238.455C228.986 238.455 229.42 238.636 229.79 239C230.165 239.364 230.355 239.801 230.361 240.312C230.355 240.659 230.264 240.974 230.088 241.259C229.918 241.543 229.69 241.77 229.406 241.94C229.128 242.105 228.821 242.188 228.486 242.188ZM235.447 242.188C234.93 242.188 234.487 242.006 234.117 241.642C233.748 241.278 233.566 240.835 233.572 240.312C233.566 239.801 233.748 239.364 234.117 239C234.487 238.636 234.93 238.455 235.447 238.455C235.947 238.455 236.381 238.636 236.751 239C237.126 239.364 237.316 239.801 237.322 240.312C237.316 240.659 237.225 240.974 237.049 241.259C236.879 241.543 236.651 241.77 236.367 241.94C236.089 242.105 235.782 242.188 235.447 242.188ZM242.408 242.188C241.891 242.188 241.447 242.006 241.078 241.642C240.709 241.278 240.527 240.835 240.533 240.312C240.527 239.801 240.709 239.364 241.078 239C241.447 238.636 241.891 238.455 242.408 238.455C242.908 238.455 243.342 238.636 243.712 239C244.087 239.364 244.277 239.801 244.283 240.312C244.277 240.659 244.186 240.974 244.01 241.259C243.839 241.543 243.612 241.77 243.328 241.94C243.05 242.105 242.743 242.188 242.408 242.188Z" fill="white" fill-opacity="0.95"/>
</svg>
