<svg width="1150" height="433" viewBox="0 0 1150 433" fill="none" xmlns="http://www.w3.org/2000/svg">
<rect width="280" height="307" rx="24" fill="url(#paint0_linear_1123_2836)"/>
<path d="M42.76 179.2H47.88V208H42.76V179.2ZM57.985 208H53.185V187.2H57.145L57.665 189.68C59.185 187.627 61.2917 186.6 63.985 186.6C66.4917 186.6 68.4117 187.373 69.745 188.92C70.9183 190.28 71.505 192.133 71.505 194.48V208H66.705V194.6C66.705 191.747 65.385 190.32 62.745 190.32C61.305 190.32 60.1317 190.827 59.225 191.84C58.3983 192.773 57.985 193.947 57.985 195.36V208ZM86.7472 204.48V208.12C85.6272 208.44 84.5605 208.6 83.5472 208.6C81.4939 208.6 79.9339 207.987 78.8672 206.76C77.9605 205.72 77.5072 204.32 77.5072 202.56V190.88H74.3872V187.2H77.5072L77.8272 182.2H82.3072V187.2H86.7072V190.88H82.3072V202.72C82.3072 204.107 83.0139 204.8 84.4272 204.8C85.0405 204.8 85.8139 204.693 86.7472 204.48ZM103.946 202H108.986C108.426 204.133 107.266 205.787 105.506 206.96C103.826 208.053 101.759 208.6 99.3056 208.6C95.919 208.6 93.279 207.533 91.3856 205.4C89.6523 203.453 88.7856 200.853 88.7856 197.6C88.7856 193.867 89.8656 191.013 92.0256 189.04C93.839 187.413 96.199 186.6 99.1056 186.6C102.492 186.6 105.052 187.707 106.786 189.92C108.412 191.973 109.226 194.907 109.226 198.72H93.6656C93.8523 200.96 94.5456 202.6 95.7456 203.64C96.7056 204.493 97.959 204.92 99.5056 204.92C100.599 204.92 101.546 204.653 102.346 204.12C103.146 203.587 103.679 202.88 103.946 202ZM104.306 195.44C104.199 193.493 103.612 192.067 102.546 191.16C101.666 190.387 100.519 190 99.1056 190C97.559 190 96.319 190.507 95.3856 191.52C94.5323 192.427 93.9856 193.733 93.7456 195.44H104.306ZM125.541 186.88V191.52C124.661 191.253 123.821 191.12 123.021 191.12C121.528 191.12 120.328 191.773 119.421 193.08C118.568 194.333 118.141 196.067 118.141 198.28V208H113.341V187.2H117.301L117.901 190.32C119.075 187.84 120.848 186.6 123.221 186.6C124.075 186.6 124.848 186.693 125.541 186.88Z" fill="white" fill-opacity="0.95"/>
<rect x="40" y="243" width="51" height="24" rx="4" fill="#262626"/>
<path d="M61.824 248.48H63.328L60.288 260H58.4L55.792 250.24L53.104 260H51.104L48.08 248.48H49.744L52.192 258.064L54.832 248.48H56.864L59.36 258.032L61.824 248.48ZM69.784 257.6H71.448C71.2133 258.443 70.7493 259.104 70.056 259.584C69.4053 260.021 68.6267 260.24 67.72 260.24C66.408 260.24 65.384 259.824 64.648 258.992C63.976 258.213 63.64 257.163 63.64 255.84C63.64 254.336 64.0667 253.195 64.92 252.416C65.624 251.765 66.5307 251.44 67.64 251.44C68.9413 251.44 69.9227 251.861 70.584 252.704C71.224 253.515 71.544 254.672 71.544 256.176H65.208C65.272 257.157 65.5707 257.888 66.104 258.368C66.5413 258.752 67.096 258.944 67.768 258.944C68.2907 258.944 68.744 258.8 69.128 258.512C69.448 258.267 69.6667 257.963 69.784 257.6ZM67.672 252.672C66.9893 252.672 66.44 252.885 66.024 253.312C65.6293 253.707 65.3787 254.256 65.272 254.96H69.976C69.9227 254.16 69.656 253.563 69.176 253.168C68.792 252.837 68.2907 252.672 67.672 252.672ZM74.6496 260H73.3856V248.48H74.9216V252.832C75.5723 251.904 76.5003 251.44 77.7056 251.44C78.9003 251.44 79.8283 251.867 80.4896 252.72C81.0763 253.488 81.3696 254.507 81.3696 255.776C81.3696 257.28 80.9696 258.432 80.1696 259.232C79.4976 259.904 78.639 260.24 77.5936 260.24C76.4096 260.24 75.5083 259.792 74.8896 258.896L74.6496 260ZM79.7696 255.744C79.7696 254.699 79.5083 253.915 78.9856 253.392C78.5696 252.965 78.0256 252.752 77.3536 252.752C76.575 252.752 75.9563 253.035 75.4976 253.6C75.0603 254.144 74.8416 254.859 74.8416 255.744C74.8416 256.811 75.103 257.627 75.6256 258.192C76.063 258.683 76.639 258.928 77.3536 258.928C78.1536 258.928 78.7616 258.635 79.1776 258.048C79.5723 257.504 79.7696 256.736 79.7696 255.744Z" fill="white" fill-opacity="0.7"/>
<path d="M42.5568 377.875H37.5795C37.4886 377.231 37.303 376.659 37.0227 376.159C36.7424 375.652 36.3826 375.22 35.9432 374.864C35.5038 374.508 34.9962 374.235 34.4205 374.045C33.8523 373.856 33.2348 373.761 32.5682 373.761C31.3636 373.761 30.3144 374.061 29.4205 374.659C28.5265 375.25 27.8333 376.114 27.3409 377.25C26.8485 378.379 26.6023 379.75 26.6023 381.364C26.6023 383.023 26.8485 384.417 27.3409 385.545C27.8409 386.674 28.5379 387.527 29.4318 388.102C30.3258 388.678 31.3598 388.966 32.5341 388.966C33.1932 388.966 33.803 388.879 34.3636 388.705C34.9318 388.53 35.4356 388.277 35.875 387.943C36.3144 387.602 36.678 387.189 36.9659 386.705C37.2614 386.22 37.4659 385.667 37.5795 385.045L42.5568 385.068C42.428 386.136 42.1061 387.167 41.5909 388.159C41.0833 389.144 40.3977 390.027 39.5341 390.807C38.678 391.58 37.6553 392.193 36.4659 392.648C35.2841 393.095 33.947 393.318 32.4545 393.318C30.3788 393.318 28.5227 392.848 26.8864 391.909C25.2576 390.97 23.9697 389.61 23.0227 387.83C22.0833 386.049 21.6136 383.894 21.6136 381.364C21.6136 378.826 22.0909 376.667 23.0455 374.886C24 373.106 25.2955 371.75 26.9318 370.818C28.5682 369.879 30.4091 369.409 32.4545 369.409C33.803 369.409 35.053 369.598 36.2045 369.977C37.3636 370.356 38.3902 370.909 39.2841 371.636C40.178 372.356 40.9053 373.239 41.4659 374.284C42.0341 375.33 42.3977 376.527 42.5568 377.875ZM52.6007 393.341C50.8355 393.341 49.309 392.966 48.0211 392.216C46.7408 391.458 45.7522 390.405 45.0552 389.057C44.3583 387.701 44.0098 386.129 44.0098 384.341C44.0098 382.538 44.3583 380.962 45.0552 379.614C45.7522 378.258 46.7408 377.205 48.0211 376.455C49.309 375.697 50.8355 375.318 52.6007 375.318C54.3658 375.318 55.8886 375.697 57.1689 376.455C58.4567 377.205 59.4492 378.258 60.1461 379.614C60.8431 380.962 61.1916 382.538 61.1916 384.341C61.1916 386.129 60.8431 387.701 60.1461 389.057C59.4492 390.405 58.4567 391.458 57.1689 392.216C55.8886 392.966 54.3658 393.341 52.6007 393.341ZM52.6234 389.591C53.4264 389.591 54.0969 389.364 54.6348 388.909C55.1727 388.447 55.578 387.818 55.8507 387.023C56.131 386.227 56.2711 385.322 56.2711 384.307C56.2711 383.292 56.131 382.386 55.8507 381.591C55.578 380.795 55.1727 380.167 54.6348 379.705C54.0969 379.242 53.4264 379.011 52.6234 379.011C51.8128 379.011 51.131 379.242 50.578 379.705C50.0325 380.167 49.6196 380.795 49.3393 381.591C49.0666 382.386 48.9302 383.292 48.9302 384.307C48.9302 385.322 49.0666 386.227 49.3393 387.023C49.6196 387.818 50.0325 388.447 50.578 388.909C51.131 389.364 51.8128 389.591 52.6234 389.591ZM63.0593 393V375.545H67.7525V378.591H67.9343C68.2525 377.508 68.7866 376.689 69.5366 376.136C70.2866 375.576 71.1502 375.295 72.1275 375.295C72.3699 375.295 72.6313 375.311 72.9116 375.341C73.1919 375.371 73.4381 375.413 73.6502 375.466V379.761C73.423 379.693 73.1086 379.633 72.707 379.58C72.3055 379.527 71.9381 379.5 71.6048 379.5C70.8927 379.5 70.2563 379.655 69.6957 379.966C69.1427 380.269 68.7033 380.693 68.3775 381.239C68.0593 381.784 67.9002 382.413 67.9002 383.125V393H63.0593ZM80.4924 393.284C79.1666 393.284 77.9659 392.943 76.8901 392.261C75.8219 391.572 74.9734 390.561 74.3447 389.227C73.7234 387.886 73.4128 386.242 73.4128 384.295C73.4128 382.295 73.7348 380.633 74.3787 379.307C75.0227 377.973 75.8788 376.977 76.9469 376.318C78.0227 375.652 79.2007 375.318 80.481 375.318C81.4583 375.318 82.2727 375.485 82.9242 375.818C83.5833 376.144 84.1136 376.553 84.5151 377.045C84.9242 377.53 85.2348 378.008 85.4469 378.477H85.5947V369.727H90.4242V393H85.6515V390.205H85.4469C85.2197 390.689 84.8977 391.17 84.481 391.648C84.0719 392.117 83.5378 392.508 82.8787 392.818C82.2272 393.129 81.4318 393.284 80.4924 393.284ZM82.0265 389.432C82.8068 389.432 83.4659 389.22 84.0037 388.795C84.5492 388.364 84.9659 387.761 85.2537 386.989C85.5492 386.216 85.6969 385.311 85.6969 384.273C85.6969 383.235 85.553 382.333 85.2651 381.568C84.9772 380.803 84.5606 380.212 84.0151 379.795C83.4697 379.379 82.8068 379.17 82.0265 379.17C81.231 379.17 80.5606 379.386 80.0151 379.818C79.4697 380.25 79.0568 380.848 78.7765 381.614C78.4962 382.379 78.356 383.265 78.356 384.273C78.356 385.288 78.4962 386.186 78.7765 386.966C79.0644 387.739 79.4772 388.345 80.0151 388.784C80.5606 389.216 81.231 389.432 82.0265 389.432ZM108.637 375.545V379.182H97.8642V375.545H108.637ZM100.33 393V374.284C100.33 373.019 100.576 371.97 101.069 371.136C101.569 370.303 102.251 369.678 103.114 369.261C103.978 368.845 104.959 368.636 106.057 368.636C106.8 368.636 107.478 368.693 108.091 368.807C108.713 368.92 109.175 369.023 109.478 369.114L108.614 372.75C108.425 372.689 108.19 372.633 107.91 372.58C107.637 372.527 107.357 372.5 107.069 372.5C106.357 372.5 105.86 372.667 105.58 373C105.3 373.326 105.16 373.784 105.16 374.375V393H100.33ZM117.576 393.341C115.811 393.341 114.284 392.966 112.996 392.216C111.716 391.458 110.727 390.405 110.03 389.057C109.333 387.701 108.985 386.129 108.985 384.341C108.985 382.538 109.333 380.962 110.03 379.614C110.727 378.258 111.716 377.205 112.996 376.455C114.284 375.697 115.811 375.318 117.576 375.318C119.341 375.318 120.864 375.697 122.144 376.455C123.432 377.205 124.424 378.258 125.121 379.614C125.818 380.962 126.167 382.538 126.167 384.341C126.167 386.129 125.818 387.701 125.121 389.057C124.424 390.405 123.432 391.458 122.144 392.216C120.864 392.966 119.341 393.341 117.576 393.341ZM117.598 389.591C118.401 389.591 119.072 389.364 119.61 388.909C120.148 388.447 120.553 387.818 120.826 387.023C121.106 386.227 121.246 385.322 121.246 384.307C121.246 383.292 121.106 382.386 120.826 381.591C120.553 380.795 120.148 380.167 119.61 379.705C119.072 379.242 118.401 379.011 117.598 379.011C116.788 379.011 116.106 379.242 115.553 379.705C115.008 380.167 114.595 380.795 114.314 381.591C114.042 382.386 113.905 383.292 113.905 384.307C113.905 385.322 114.042 386.227 114.314 387.023C114.595 387.818 115.008 388.447 115.553 388.909C116.106 389.364 116.788 389.591 117.598 389.591ZM128.034 393V375.545H132.728V378.591H132.909C133.228 377.508 133.762 376.689 134.512 376.136C135.262 375.576 136.125 375.295 137.103 375.295C137.345 375.295 137.606 375.311 137.887 375.341C138.167 375.371 138.413 375.413 138.625 375.466V379.761C138.398 379.693 138.084 379.633 137.682 379.58C137.281 379.527 136.913 379.5 136.58 379.5C135.868 379.5 135.231 379.655 134.671 379.966C134.118 380.269 133.678 380.693 133.353 381.239C133.034 381.784 132.875 382.413 132.875 383.125V393H128.034ZM139.848 393V375.545H144.462V378.625H144.666C145.03 377.602 145.636 376.795 146.484 376.205C147.333 375.614 148.348 375.318 149.53 375.318C150.727 375.318 151.746 375.617 152.587 376.216C153.428 376.807 153.988 377.61 154.269 378.625H154.45C154.806 377.625 155.45 376.826 156.382 376.227C157.322 375.621 158.431 375.318 159.712 375.318C161.34 375.318 162.662 375.837 163.678 376.875C164.7 377.905 165.212 379.367 165.212 381.261V393H160.382V382.216C160.382 381.246 160.125 380.519 159.609 380.034C159.094 379.549 158.45 379.307 157.678 379.307C156.799 379.307 156.113 379.587 155.621 380.148C155.128 380.701 154.882 381.432 154.882 382.341V393H150.189V382.114C150.189 381.258 149.943 380.576 149.45 380.068C148.965 379.561 148.325 379.307 147.53 379.307C146.992 379.307 146.507 379.443 146.075 379.716C145.651 379.981 145.314 380.356 145.064 380.841C144.814 381.318 144.689 381.879 144.689 382.523V393H139.848ZM172.733 393.33C171.619 393.33 170.627 393.136 169.756 392.75C168.884 392.356 168.195 391.777 167.687 391.011C167.187 390.239 166.937 389.277 166.937 388.125C166.937 387.155 167.115 386.341 167.471 385.682C167.828 385.023 168.312 384.492 168.926 384.091C169.54 383.689 170.237 383.386 171.017 383.182C171.805 382.977 172.631 382.833 173.494 382.75C174.509 382.644 175.328 382.545 175.949 382.455C176.57 382.356 177.021 382.212 177.301 382.023C177.581 381.833 177.721 381.553 177.721 381.182V381.114C177.721 380.394 177.494 379.837 177.04 379.443C176.593 379.049 175.956 378.852 175.131 378.852C174.259 378.852 173.566 379.045 173.051 379.432C172.536 379.811 172.195 380.288 172.028 380.864L167.551 380.5C167.778 379.439 168.225 378.523 168.892 377.75C169.559 376.97 170.418 376.371 171.471 375.955C172.532 375.53 173.759 375.318 175.153 375.318C176.123 375.318 177.051 375.432 177.937 375.659C178.831 375.886 179.623 376.239 180.312 376.716C181.009 377.193 181.559 377.807 181.96 378.557C182.362 379.299 182.562 380.189 182.562 381.227V393H177.971V390.58H177.835C177.555 391.125 177.18 391.606 176.71 392.023C176.24 392.432 175.676 392.754 175.017 392.989C174.358 393.216 173.596 393.33 172.733 393.33ZM174.119 389.989C174.831 389.989 175.46 389.848 176.006 389.568C176.551 389.28 176.979 388.894 177.29 388.409C177.6 387.924 177.756 387.375 177.756 386.761V384.909C177.604 385.008 177.396 385.098 177.131 385.182C176.873 385.258 176.581 385.33 176.256 385.398C175.93 385.458 175.604 385.515 175.278 385.568C174.953 385.614 174.657 385.655 174.392 385.693C173.824 385.777 173.328 385.909 172.903 386.091C172.479 386.273 172.15 386.519 171.915 386.83C171.68 387.133 171.562 387.511 171.562 387.966C171.562 388.625 171.801 389.129 172.278 389.477C172.763 389.818 173.377 389.989 174.119 389.989ZM194.322 375.545V379.182H183.811V375.545H194.322ZM186.197 371.364H191.038V387.636C191.038 388.083 191.106 388.432 191.243 388.682C191.379 388.924 191.568 389.095 191.811 389.193C192.061 389.292 192.349 389.341 192.674 389.341C192.902 389.341 193.129 389.322 193.356 389.284C193.584 389.239 193.758 389.205 193.879 389.182L194.64 392.784C194.398 392.86 194.057 392.947 193.618 393.045C193.178 393.152 192.644 393.216 192.015 393.239C190.849 393.284 189.826 393.129 188.947 392.773C188.076 392.417 187.398 391.864 186.913 391.114C186.428 390.364 186.19 389.417 186.197 388.273V371.364ZM205.48 375.545V379.182H194.968V375.545H205.48ZM197.355 371.364H202.196V387.636C202.196 388.083 202.264 388.432 202.4 388.682C202.536 388.924 202.726 389.095 202.968 389.193C203.218 389.292 203.506 389.341 203.832 389.341C204.059 389.341 204.286 389.322 204.514 389.284C204.741 389.239 204.915 389.205 205.036 389.182L205.798 392.784C205.555 392.86 205.215 392.947 204.775 393.045C204.336 393.152 203.802 393.216 203.173 393.239C202.006 393.284 200.983 393.129 200.105 392.773C199.233 392.417 198.555 391.864 198.071 391.114C197.586 390.364 197.347 389.417 197.355 388.273V371.364ZM207.353 393V375.545H212.194V393H207.353ZM209.785 373.295C209.065 373.295 208.448 373.057 207.933 372.58C207.425 372.095 207.171 371.515 207.171 370.841C207.171 370.174 207.425 369.602 207.933 369.125C208.448 368.64 209.065 368.398 209.785 368.398C210.505 368.398 211.118 368.64 211.626 369.125C212.141 369.602 212.399 370.174 212.399 370.841C212.399 371.515 212.141 372.095 211.626 372.58C211.118 373.057 210.505 373.295 209.785 373.295ZM219.633 382.909V393H214.792V375.545H219.405V378.625H219.61C219.996 377.61 220.644 376.807 221.553 376.216C222.462 375.617 223.565 375.318 224.86 375.318C226.072 375.318 227.129 375.583 228.03 376.114C228.932 376.644 229.633 377.402 230.133 378.386C230.633 379.364 230.883 380.53 230.883 381.886V393H226.042V382.75C226.049 381.682 225.777 380.848 225.224 380.25C224.671 379.644 223.909 379.341 222.94 379.341C222.288 379.341 221.712 379.481 221.212 379.761C220.72 380.042 220.333 380.451 220.053 380.989C219.78 381.519 219.64 382.159 219.633 382.909ZM241.282 399.909C239.714 399.909 238.369 399.693 237.248 399.261C236.134 398.837 235.248 398.258 234.589 397.523C233.929 396.788 233.501 395.962 233.304 395.045L237.782 394.443C237.918 394.792 238.134 395.117 238.429 395.42C238.725 395.723 239.115 395.966 239.6 396.148C240.092 396.337 240.691 396.432 241.395 396.432C242.448 396.432 243.316 396.174 243.998 395.659C244.687 395.152 245.032 394.299 245.032 393.102V389.909H244.827C244.615 390.394 244.297 390.852 243.873 391.284C243.448 391.716 242.903 392.068 242.236 392.341C241.57 392.614 240.774 392.75 239.85 392.75C238.539 392.75 237.346 392.447 236.27 391.841C235.202 391.227 234.35 390.292 233.714 389.034C233.085 387.769 232.77 386.17 232.77 384.239C232.77 382.261 233.092 380.61 233.736 379.284C234.38 377.958 235.236 376.966 236.304 376.307C237.38 375.648 238.558 375.318 239.839 375.318C240.816 375.318 241.634 375.485 242.293 375.818C242.952 376.144 243.482 376.553 243.884 377.045C244.293 377.53 244.607 378.008 244.827 378.477H245.009V375.545H249.816V393.17C249.816 394.655 249.452 395.898 248.725 396.898C247.998 397.898 246.99 398.648 245.702 399.148C244.422 399.655 242.948 399.909 241.282 399.909ZM241.384 389.114C242.164 389.114 242.823 388.92 243.361 388.534C243.907 388.14 244.323 387.58 244.611 386.852C244.907 386.117 245.054 385.239 245.054 384.216C245.054 383.193 244.91 382.307 244.623 381.557C244.335 380.799 243.918 380.212 243.373 379.795C242.827 379.379 242.164 379.17 241.384 379.17C240.589 379.17 239.918 379.386 239.373 379.818C238.827 380.242 238.414 380.833 238.134 381.591C237.854 382.348 237.714 383.223 237.714 384.216C237.714 385.223 237.854 386.095 238.134 386.83C238.422 387.557 238.835 388.121 239.373 388.523C239.918 388.917 240.589 389.114 241.384 389.114ZM255.218 393.295C254.468 393.295 253.824 393.03 253.286 392.5C252.755 391.962 252.49 391.318 252.49 390.568C252.49 389.826 252.755 389.189 253.286 388.659C253.824 388.129 254.468 387.864 255.218 387.864C255.945 387.864 256.581 388.129 257.127 388.659C257.672 389.189 257.945 389.826 257.945 390.568C257.945 391.068 257.816 391.527 257.559 391.943C257.309 392.352 256.979 392.682 256.57 392.932C256.161 393.174 255.71 393.295 255.218 393.295ZM255.218 381.068C254.468 381.068 253.824 380.803 253.286 380.273C252.755 379.742 252.49 379.098 252.49 378.341C252.49 377.598 252.755 376.966 253.286 376.443C253.824 375.913 254.468 375.648 255.218 375.648C255.945 375.648 256.581 375.913 257.127 376.443C257.672 376.966 257.945 377.598 257.945 378.341C257.945 378.848 257.816 379.311 257.559 379.727C257.309 380.136 256.979 380.462 256.57 380.705C256.161 380.947 255.71 381.068 255.218 381.068Z" fill="white" fill-opacity="0.95"/>
<rect x="290" width="280" height="307" rx="24" fill="url(#paint1_linear_1123_2836)"/>
<path d="M332.168 210.887V206.102C332.598 206.492 333.105 206.844 333.691 207.156C334.29 207.469 334.922 207.736 335.586 207.957C336.25 208.165 336.914 208.328 337.578 208.445C338.242 208.562 338.854 208.621 339.414 208.621C341.367 208.621 342.819 208.296 343.77 207.645C344.733 206.993 345.215 206.049 345.215 204.812C345.215 204.148 345.052 203.576 344.727 203.094C344.414 202.599 343.971 202.15 343.398 201.746C342.826 201.342 342.148 200.958 341.367 200.594C340.599 200.216 339.772 199.826 338.887 199.422C337.936 198.914 337.051 198.4 336.23 197.879C335.41 197.358 334.694 196.785 334.082 196.16C333.483 195.522 333.008 194.806 332.656 194.012C332.318 193.217 332.148 192.286 332.148 191.219C332.148 189.904 332.441 188.764 333.027 187.801C333.626 186.824 334.408 186.023 335.371 185.398C336.348 184.76 337.454 184.292 338.691 183.992C339.928 183.68 341.191 183.523 342.48 183.523C345.41 183.523 347.546 183.855 348.887 184.52V189.109C347.298 187.964 345.254 187.391 342.754 187.391C342.064 187.391 341.374 187.456 340.684 187.586C340.007 187.716 339.395 187.931 338.848 188.23C338.314 188.53 337.878 188.914 337.539 189.383C337.201 189.852 337.031 190.418 337.031 191.082C337.031 191.707 337.161 192.247 337.422 192.703C337.682 193.159 338.06 193.576 338.555 193.953C339.062 194.331 339.674 194.702 340.391 195.066C341.12 195.418 341.96 195.802 342.91 196.219C343.887 196.727 344.805 197.26 345.664 197.82C346.536 198.38 347.298 198.999 347.949 199.676C348.613 200.353 349.134 201.108 349.512 201.941C349.902 202.762 350.098 203.699 350.098 204.754C350.098 206.173 349.811 207.371 349.238 208.348C348.665 209.324 347.891 210.118 346.914 210.73C345.951 211.342 344.837 211.785 343.574 212.059C342.311 212.332 340.977 212.469 339.57 212.469C339.102 212.469 338.522 212.43 337.832 212.352C337.155 212.286 336.458 212.182 335.742 212.039C335.026 211.909 334.349 211.746 333.711 211.551C333.073 211.355 332.559 211.134 332.168 210.887ZM371.68 203.23H358.047C358.099 205.079 358.665 206.505 359.746 207.508C360.84 208.51 362.337 209.012 364.238 209.012C366.374 209.012 368.333 208.374 370.117 207.098V210.75C368.294 211.896 365.885 212.469 362.891 212.469C359.948 212.469 357.637 211.564 355.957 209.754C354.29 207.931 353.457 205.372 353.457 202.078C353.457 198.966 354.375 196.434 356.211 194.48C358.06 192.514 360.352 191.531 363.086 191.531C365.82 191.531 367.936 192.41 369.434 194.168C370.931 195.926 371.68 198.367 371.68 201.492V203.23ZM367.305 200.027C367.292 198.4 366.908 197.137 366.152 196.238C365.397 195.327 364.355 194.871 363.027 194.871C361.725 194.871 360.618 195.346 359.707 196.297C358.809 197.247 358.255 198.491 358.047 200.027H367.305ZM394.199 210.398C394.199 217.742 390.508 221.414 383.125 221.414C380.521 221.414 378.249 220.978 376.309 220.105V215.965C378.496 217.215 380.573 217.84 382.539 217.84C387.292 217.84 389.668 215.503 389.668 210.828V208.641H389.59C388.092 211.193 385.84 212.469 382.832 212.469C380.397 212.469 378.431 211.583 376.934 209.812C375.449 208.029 374.707 205.639 374.707 202.645C374.707 199.246 375.508 196.544 377.109 194.539C378.711 192.534 380.911 191.531 383.711 191.531C386.354 191.531 388.314 192.612 389.59 194.773H389.668V192H394.199V210.398ZM389.707 202.84V200.242C389.707 198.836 389.238 197.638 388.301 196.648C387.376 195.646 386.217 195.145 384.824 195.145C383.105 195.145 381.758 195.783 380.781 197.059C379.818 198.322 379.336 200.092 379.336 202.371C379.336 204.337 379.798 205.913 380.723 207.098C381.66 208.27 382.897 208.855 384.434 208.855C385.996 208.855 387.266 208.296 388.242 207.176C389.219 206.043 389.707 204.598 389.707 202.84ZM408.965 212.469C405.879 212.469 403.411 211.538 401.562 209.676C399.727 207.801 398.809 205.32 398.809 202.234C398.809 198.875 399.766 196.251 401.68 194.363C403.607 192.475 406.198 191.531 409.453 191.531C412.578 191.531 415.013 192.449 416.758 194.285C418.503 196.121 419.375 198.667 419.375 201.922C419.375 205.112 418.431 207.671 416.543 209.598C414.668 211.512 412.142 212.469 408.965 212.469ZM409.18 195.145C407.409 195.145 406.009 195.763 404.98 197C403.952 198.237 403.438 199.943 403.438 202.117C403.438 204.214 403.958 205.867 405 207.078C406.042 208.276 407.435 208.875 409.18 208.875C410.964 208.875 412.331 208.283 413.281 207.098C414.245 205.913 414.727 204.227 414.727 202.039C414.727 199.839 414.245 198.139 413.281 196.941C412.331 195.743 410.964 195.145 409.18 195.145ZM440.938 203.23H427.305C427.357 205.079 427.923 206.505 429.004 207.508C430.098 208.51 431.595 209.012 433.496 209.012C435.632 209.012 437.591 208.374 439.375 207.098V210.75C437.552 211.896 435.143 212.469 432.148 212.469C429.206 212.469 426.895 211.564 425.215 209.754C423.548 207.931 422.715 205.372 422.715 202.078C422.715 198.966 423.633 196.434 425.469 194.48C427.318 192.514 429.609 191.531 432.344 191.531C435.078 191.531 437.194 192.41 438.691 194.168C440.189 195.926 440.938 198.367 440.938 201.492V203.23ZM436.562 200.027C436.549 198.4 436.165 197.137 435.41 196.238C434.655 195.327 433.613 194.871 432.285 194.871C430.983 194.871 429.876 195.346 428.965 196.297C428.066 197.247 427.513 198.491 427.305 200.027H436.562ZM478.32 200.672C478.32 208.536 474.596 212.469 467.148 212.469C460.013 212.469 456.445 208.686 456.445 201.121V183.992H461.094V200.164C461.094 205.659 463.229 208.406 467.5 208.406C471.615 208.406 473.672 205.757 473.672 200.457V183.992H478.32V200.672ZM489.668 212H484.883V183.992H489.668V212Z" fill="white" fill-opacity="0.95"/>
<rect x="330" y="243" width="85" height="24" rx="4" fill="#262626"/>
<path d="M351.824 248.48H353.328L350.288 260H348.4L345.792 250.24L343.104 260H341.104L338.08 248.48H339.744L342.192 258.064L344.832 248.48H346.864L349.36 258.032L351.824 248.48ZM356.158 250.288H354.43V248.48H356.158V250.288ZM356.062 260H354.526V251.68H356.062V260ZM359.844 260H358.308V251.68H359.572L359.748 252.736C360.366 251.872 361.209 251.44 362.276 251.44C363.257 251.44 364.009 251.744 364.532 252.352C364.99 252.896 365.22 253.637 365.22 254.576V260H363.684V254.592C363.684 253.365 363.092 252.752 361.908 252.752C361.289 252.752 360.782 252.965 360.388 253.392C360.025 253.776 359.844 254.267 359.844 254.864V260ZM374.89 260H373.626L373.354 258.832C372.714 259.771 371.791 260.24 370.586 260.24C369.423 260.24 368.506 259.819 367.834 258.976C367.215 258.197 366.906 257.168 366.906 255.888C366.906 254.341 367.3 253.179 368.09 252.4C368.751 251.76 369.615 251.44 370.682 251.44C371.834 251.44 372.724 251.872 373.354 252.736V248.48H374.89V260ZM368.506 255.92C368.506 256.955 368.762 257.739 369.274 258.272C369.7 258.709 370.25 258.928 370.922 258.928C371.754 258.928 372.399 258.613 372.858 257.984C373.242 257.44 373.434 256.757 373.434 255.936C373.434 254.859 373.178 254.037 372.666 253.472C372.228 252.992 371.647 252.752 370.922 252.752C370.111 252.752 369.498 253.045 369.082 253.632C368.698 254.165 368.506 254.928 368.506 255.92ZM376.656 255.84C376.656 254.315 377.109 253.163 378.016 252.384C378.741 251.755 379.658 251.44 380.768 251.44C382.058 251.44 383.072 251.851 383.808 252.672C384.512 253.44 384.864 254.496 384.864 255.84C384.864 257.344 384.421 258.491 383.536 259.28C382.81 259.92 381.882 260.24 380.752 260.24C379.461 260.24 378.442 259.813 377.696 258.96C377.002 258.181 376.656 257.141 376.656 255.84ZM378.256 255.84C378.256 256.907 378.528 257.723 379.072 258.288C379.52 258.757 380.09 258.992 380.784 258.992C381.594 258.992 382.218 258.688 382.656 258.08C383.061 257.525 383.264 256.779 383.264 255.84C383.264 254.752 382.997 253.931 382.464 253.376C382.026 252.917 381.461 252.688 380.768 252.688C379.968 252.688 379.344 252.992 378.896 253.6C378.469 254.155 378.256 254.901 378.256 255.84ZM396.497 251.68H398.033L395.601 260H393.825L391.809 253.424L389.825 260H387.985L385.553 251.68H387.153L388.945 258.368L390.929 251.68H392.769L394.72 258.336L396.497 251.68ZM404.25 257.744C404.25 257.275 404.004 256.923 403.514 256.688C403.226 256.56 402.666 256.4 401.834 256.208C400.81 255.984 400.079 255.659 399.642 255.232C399.279 254.869 399.098 254.395 399.098 253.808C399.098 253.029 399.412 252.432 400.042 252.016C400.607 251.632 401.37 251.44 402.33 251.44C403.322 251.44 404.127 251.685 404.746 252.176C405.279 252.603 405.61 253.168 405.738 253.872H404.17C403.988 253.061 403.37 252.656 402.314 252.656C401.727 252.656 401.29 252.763 401.002 252.976C400.767 253.157 400.65 253.387 400.65 253.664C400.65 254.005 400.778 254.261 401.034 254.432C401.3 254.603 401.818 254.773 402.586 254.944C403.759 255.2 404.575 255.515 405.034 255.888C405.546 256.304 405.802 256.885 405.802 257.632C405.802 258.464 405.46 259.12 404.778 259.6C404.159 260.027 403.343 260.24 402.33 260.24C401.22 260.24 400.34 259.973 399.69 259.44C399.124 258.971 398.81 258.363 398.746 257.616H400.314C400.484 258.555 401.162 259.024 402.346 259.024C402.986 259.024 403.482 258.885 403.834 258.608C404.111 258.384 404.25 258.096 404.25 257.744Z" fill="white" fill-opacity="0.7"/>
<rect x="290" y="317" width="280" height="116" rx="24" fill="url(#paint2_linear_1123_2836)"/>
<path d="M339.048 381.296C340.536 381.296 341.76 380.824 342.72 379.88C343.552 379.064 344 378.072 344.064 376.904H346.536C346.472 378.04 346.12 379.096 345.48 380.072C344.824 381.064 343.952 381.848 342.864 382.424C341.696 383.048 340.408 383.36 339 383.36C336.392 383.36 334.376 382.472 332.952 380.696C331.704 379.128 331.08 377.016 331.08 374.36C331.08 371.32 331.936 368.992 333.648 367.376C335.072 366.032 336.92 365.36 339.192 365.36C341.352 365.36 343.144 366.024 344.568 367.352C345.752 368.44 346.4 369.744 346.512 371.264H344.04C343.88 370 343.312 369.016 342.336 368.312C341.472 367.704 340.424 367.4 339.192 367.4C337.352 367.4 335.936 368.056 334.944 369.368C334.032 370.568 333.576 372.232 333.576 374.36C333.576 376.696 334.152 378.488 335.304 379.736C336.264 380.776 337.512 381.296 339.048 381.296ZM348.444 376.76C348.444 374.472 349.124 372.744 350.484 371.576C351.572 370.632 352.948 370.16 354.612 370.16C356.548 370.16 358.068 370.776 359.172 372.008C360.228 373.16 360.756 374.744 360.756 376.76C360.756 379.016 360.092 380.736 358.764 381.92C357.676 382.88 356.284 383.36 354.588 383.36C352.652 383.36 351.124 382.72 350.004 381.44C348.964 380.272 348.444 378.712 348.444 376.76ZM350.844 376.76C350.844 378.36 351.252 379.584 352.068 380.432C352.74 381.136 353.596 381.488 354.636 381.488C355.852 381.488 356.788 381.032 357.444 380.12C358.052 379.288 358.356 378.168 358.356 376.76C358.356 375.128 357.956 373.896 357.156 373.064C356.5 372.376 355.652 372.032 354.612 372.032C353.412 372.032 352.476 372.488 351.804 373.4C351.164 374.232 350.844 375.352 350.844 376.76ZM365.695 383H363.391V370.52H365.287L365.551 372.104C366.479 370.808 367.743 370.16 369.343 370.16C370.815 370.16 371.943 370.616 372.727 371.528C373.415 372.344 373.759 373.456 373.759 374.864V383H371.455V374.888C371.455 373.048 370.567 372.128 368.791 372.128C367.863 372.128 367.103 372.448 366.511 373.088C365.967 373.664 365.695 374.4 365.695 375.296V383ZM384.304 379.616C384.304 378.912 383.936 378.384 383.2 378.032C382.768 377.84 381.928 377.6 380.68 377.312C379.144 376.976 378.048 376.488 377.392 375.848C376.848 375.304 376.576 374.592 376.576 373.712C376.576 372.544 377.048 371.648 377.992 371.024C378.84 370.448 379.984 370.16 381.424 370.16C382.912 370.16 384.12 370.528 385.048 371.264C385.848 371.904 386.344 372.752 386.536 373.808H384.184C383.912 372.592 382.984 371.984 381.4 371.984C380.52 371.984 379.864 372.144 379.432 372.464C379.08 372.736 378.904 373.08 378.904 373.496C378.904 374.008 379.096 374.392 379.48 374.648C379.88 374.904 380.656 375.16 381.808 375.416C383.568 375.8 384.792 376.272 385.48 376.832C386.248 377.456 386.632 378.328 386.632 379.448C386.632 380.696 386.12 381.68 385.096 382.4C384.168 383.04 382.944 383.36 381.424 383.36C379.76 383.36 378.44 382.96 377.464 382.16C376.616 381.456 376.144 380.544 376.048 379.424H378.4C378.656 380.832 379.672 381.536 381.448 381.536C382.408 381.536 383.152 381.328 383.68 380.912C384.096 380.576 384.304 380.144 384.304 379.616ZM388.546 376.76C388.546 374.472 389.226 372.744 390.586 371.576C391.674 370.632 393.05 370.16 394.714 370.16C396.65 370.16 398.17 370.776 399.274 372.008C400.33 373.16 400.858 374.744 400.858 376.76C400.858 379.016 400.194 380.736 398.866 381.92C397.778 382.88 396.386 383.36 394.69 383.36C392.754 383.36 391.226 382.72 390.106 381.44C389.066 380.272 388.546 378.712 388.546 376.76ZM390.946 376.76C390.946 378.36 391.354 379.584 392.17 380.432C392.842 381.136 393.698 381.488 394.738 381.488C395.954 381.488 396.89 381.032 397.546 380.12C398.154 379.288 398.458 378.168 398.458 376.76C398.458 375.128 398.058 373.896 397.258 373.064C396.602 372.376 395.754 372.032 394.714 372.032C393.514 372.032 392.578 372.488 391.906 373.4C391.266 374.232 390.946 375.352 390.946 376.76ZM405.797 365.72V383H403.493V365.72H405.797ZM411.132 374H408.684C408.812 372.752 409.404 371.784 410.46 371.096C411.404 370.472 412.596 370.16 414.036 370.16C415.748 370.16 417.06 370.608 417.972 371.504C418.74 372.272 419.124 373.264 419.124 374.48V383H417.228L416.94 381.296C415.964 382.672 414.572 383.36 412.764 383.36C411.34 383.36 410.228 382.976 409.428 382.208C408.772 381.568 408.444 380.76 408.444 379.784C408.444 378.552 408.868 377.6 409.716 376.928C410.468 376.336 411.62 375.904 413.172 375.632L416.82 375.008V374.384C416.82 373.568 416.54 372.952 415.98 372.536C415.484 372.168 414.804 371.984 413.94 371.984C412.244 371.984 411.308 372.656 411.132 374ZM413.316 381.416C414.292 381.416 415.14 381.096 415.86 380.456C416.5 379.864 416.82 379.184 416.82 378.416V376.808L413.724 377.36C412.588 377.552 411.812 377.848 411.396 378.248C411.06 378.568 410.892 379 410.892 379.544C410.892 380.152 411.1 380.616 411.516 380.936C411.932 381.256 412.532 381.416 413.316 381.416ZM429.656 379.616C429.656 378.912 429.288 378.384 428.552 378.032C428.12 377.84 427.28 377.6 426.032 377.312C424.496 376.976 423.4 376.488 422.744 375.848C422.2 375.304 421.928 374.592 421.928 373.712C421.928 372.544 422.4 371.648 423.344 371.024C424.192 370.448 425.336 370.16 426.776 370.16C428.264 370.16 429.472 370.528 430.4 371.264C431.2 371.904 431.696 372.752 431.888 373.808H429.536C429.264 372.592 428.336 371.984 426.752 371.984C425.872 371.984 425.216 372.144 424.784 372.464C424.432 372.736 424.256 373.08 424.256 373.496C424.256 374.008 424.448 374.392 424.832 374.648C425.232 374.904 426.008 375.16 427.16 375.416C428.92 375.8 430.144 376.272 430.832 376.832C431.6 377.456 431.984 378.328 431.984 379.448C431.984 380.696 431.472 381.68 430.448 382.4C429.52 383.04 428.296 383.36 426.776 383.36C425.112 383.36 423.792 382.96 422.816 382.16C421.968 381.456 421.496 380.544 421.4 379.424H423.752C424.008 380.832 425.024 381.536 426.8 381.536C427.76 381.536 428.504 381.328 429.032 380.912C429.448 380.576 429.656 380.144 429.656 379.616ZM439.61 365.36L439.202 368.912L442.442 367.424L443.138 369.44L439.61 370.16L442.01 372.752L440.282 374L438.554 370.928L436.802 374.024L435.098 372.752L437.498 370.136L434.018 369.44L434.714 367.424L437.906 368.888L437.498 365.36H439.61Z" fill="white" fill-opacity="0.95"/>
<rect x="580" width="280" height="307" rx="24" fill="url(#paint3_linear_1123_2836)"/>
<path d="M621.328 201.266H625.586C625.977 204.059 628.633 205.738 632.383 205.738C635.957 205.738 638.516 203.902 638.516 201.383C638.516 199.195 637.031 197.828 633.262 197.008L630.195 196.363C624.551 195.172 621.992 192.555 621.992 188.492C621.992 183.668 626.23 180.348 632.227 180.348C638.203 180.348 642.285 183.727 642.422 188.648H638.184C637.91 185.816 635.586 184.078 632.168 184.078C628.867 184.078 626.445 185.68 626.445 188.258C626.445 190.309 627.891 191.676 631.543 192.457L634.629 193.102C640.527 194.352 642.949 196.715 642.949 200.816C642.949 206.129 638.77 209.469 632.207 209.469C625.84 209.469 621.602 206.285 621.328 201.266ZM651.27 209H646.895V180.816H664.492V184.586H651.27V193.512H663.379V197.203H651.27V209ZM676.426 180.816H686.992C692.461 180.816 696.27 184.586 696.27 190.074C696.27 195.582 692.383 199.371 686.855 199.371H680.801V209H676.426V180.816ZM680.801 184.508V195.699H685.82C689.629 195.699 691.797 193.648 691.797 190.094C691.797 186.539 689.629 184.508 685.84 184.508H680.801ZM699.59 209V188.453H703.613V191.949H703.711C704.395 189.547 706.23 188.121 708.652 188.121C709.258 188.121 709.785 188.219 710.098 188.277V192.203C709.766 192.066 709.023 191.969 708.203 191.969C705.488 191.969 703.809 193.785 703.809 196.695V209H699.59ZM720.645 209.391C714.766 209.391 710.898 205.348 710.898 198.727C710.898 192.125 714.785 188.082 720.645 188.082C726.504 188.082 730.391 192.125 730.391 198.727C730.391 205.348 726.523 209.391 720.645 209.391ZM720.645 205.914C723.965 205.914 726.094 203.297 726.094 198.727C726.094 194.176 723.945 191.559 720.645 191.559C717.344 191.559 715.195 194.176 715.195 198.727C715.195 203.297 717.344 205.914 720.645 205.914Z" fill="white" fill-opacity="0.95"/>
<rect x="620" y="243" width="94" height="24" rx="4" fill="#262626"/>
<path d="M635.872 260H634.336L630.784 250.976V260H629.2V248.48H631.472L635.136 258.08L638.592 248.48H640.736V260H639.2V251.056L635.872 260ZM644.37 254H642.738C642.823 253.168 643.218 252.523 643.922 252.064C644.551 251.648 645.346 251.44 646.306 251.44C647.447 251.44 648.322 251.739 648.93 252.336C649.442 252.848 649.698 253.509 649.698 254.32V260H648.434L648.242 258.864C647.591 259.781 646.663 260.24 645.458 260.24C644.508 260.24 643.767 259.984 643.234 259.472C642.796 259.045 642.578 258.507 642.578 257.856C642.578 257.035 642.86 256.4 643.426 255.952C643.927 255.557 644.695 255.269 645.73 255.088L648.162 254.672V254.256C648.162 253.712 647.975 253.301 647.602 253.024C647.271 252.779 646.818 252.656 646.242 252.656C645.111 252.656 644.487 253.104 644.37 254ZM645.826 258.944C646.476 258.944 647.042 258.731 647.522 258.304C647.948 257.909 648.162 257.456 648.162 256.944V255.872L646.098 256.24C645.34 256.368 644.823 256.565 644.546 256.832C644.322 257.045 644.21 257.333 644.21 257.696C644.21 258.101 644.348 258.411 644.626 258.624C644.903 258.837 645.303 258.944 645.826 258.944ZM657.278 257.328H658.958C658.83 258.224 658.409 258.944 657.694 259.488C657.044 259.989 656.249 260.24 655.31 260.24C654.084 260.24 653.108 259.819 652.382 258.976C651.71 258.197 651.374 257.173 651.374 255.904C651.374 254.432 651.78 253.291 652.59 252.48C653.284 251.787 654.185 251.44 655.294 251.44C656.318 251.44 657.161 251.712 657.822 252.256C658.409 252.736 658.766 253.365 658.894 254.144H657.198C657.092 253.696 656.873 253.349 656.542 253.104C656.222 252.859 655.817 252.736 655.326 252.736C654.569 252.736 653.988 253.035 653.582 253.632C653.198 254.187 653.006 254.96 653.006 255.952C653.006 256.987 653.262 257.771 653.774 258.304C654.18 258.731 654.702 258.944 655.342 258.944C655.897 258.944 656.35 258.784 656.702 258.464C657.012 258.187 657.204 257.808 657.278 257.328ZM668.471 258.208V255.536H665.831V254.176H668.471V251.488H669.927V254.176H672.551V255.536H669.927V258.208H668.471ZM681.533 250.288H679.805V248.48H681.533V250.288ZM681.437 260H679.901V251.68H681.437V260ZM688.755 260.24C687.005 260.24 685.629 259.648 684.627 258.464C683.731 257.387 683.283 255.979 683.283 254.24C683.283 252.245 683.885 250.693 685.091 249.584C686.072 248.688 687.299 248.24 688.771 248.24C690.477 248.24 691.832 248.811 692.835 249.952C693.763 251.029 694.227 252.459 694.227 254.24C694.227 256.224 693.635 257.765 692.451 258.864C691.469 259.781 690.237 260.24 688.755 260.24ZM688.755 258.912C689.992 258.912 690.952 258.459 691.635 257.552C692.253 256.731 692.562 255.627 692.562 254.24C692.562 252.651 692.163 251.44 691.363 250.608C690.701 249.915 689.832 249.568 688.755 249.568C687.517 249.568 686.557 250.021 685.875 250.928C685.256 251.749 684.947 252.853 684.947 254.24C684.947 255.829 685.347 257.04 686.147 257.872C686.808 258.565 687.677 258.912 688.755 258.912ZM702.971 256.88C702.971 256.496 702.886 256.192 702.715 255.968C702.523 255.701 702.171 255.456 701.659 255.232C701.147 255.008 700.374 254.752 699.339 254.464C697.952 254.08 696.998 253.605 696.475 253.04C696.048 252.581 695.835 251.968 695.835 251.2C695.835 250.272 696.24 249.536 697.051 248.992C697.798 248.491 698.768 248.24 699.963 248.24C701.296 248.24 702.379 248.555 703.211 249.184C703.958 249.739 704.395 250.464 704.523 251.36H702.843C702.747 250.752 702.427 250.299 701.883 250C701.403 249.723 700.763 249.584 699.963 249.584C699.067 249.584 698.406 249.755 697.979 250.096C697.638 250.363 697.467 250.709 697.467 251.136C697.467 251.413 697.51 251.643 697.595 251.824C697.691 251.995 697.851 252.149 698.075 252.288C698.491 252.565 699.296 252.869 700.491 253.2C702.155 253.669 703.28 254.203 703.867 254.8C704.358 255.291 704.603 255.963 704.603 256.816C704.603 257.829 704.16 258.667 703.275 259.328C702.443 259.936 701.387 260.24 700.107 260.24C698.774 260.24 697.67 259.883 696.795 259.168C696.038 258.549 695.584 257.749 695.435 256.768H697.115C697.222 257.472 697.558 258.011 698.123 258.384C698.635 258.725 699.286 258.896 700.075 258.896C701.056 258.896 701.808 258.672 702.331 258.224C702.758 257.861 702.971 257.413 702.971 256.88Z" fill="white" fill-opacity="0.7"/>
<rect x="580" y="317" width="280" height="116" rx="24" fill="url(#paint4_linear_1123_2836)"/>
<path d="M630.898 369.488C630.977 369.277 631.086 369.129 631.227 369.043C631.367 368.957 631.57 368.914 631.836 368.914C632.125 368.914 632.328 368.984 632.445 369.125C632.562 369.266 632.621 369.555 632.621 369.992C632.621 370.758 632.629 371.473 632.645 372.137C632.66 372.793 632.668 373.078 632.668 372.992C632.668 373.359 632.605 373.609 632.48 373.742C632.355 373.867 632.133 373.93 631.812 373.93C631.297 373.93 630.961 373.562 630.805 372.828C630.75 372.609 630.707 372.441 630.676 372.324C630.527 371.738 630.172 371.262 629.609 370.895C629.047 370.52 628.387 370.332 627.629 370.332C626.246 370.332 625.137 370.84 624.301 371.855C623.465 372.863 623.047 374.219 623.047 375.922C623.047 377.625 623.469 378.984 624.312 380C625.164 381.008 626.285 381.512 627.676 381.512C628.129 381.512 628.59 381.449 629.059 381.324C629.527 381.191 629.988 380.996 630.441 380.738C630.652 380.629 630.941 380.445 631.309 380.188C631.676 379.922 631.938 379.789 632.094 379.789C632.336 379.789 632.539 379.871 632.703 380.035C632.875 380.191 632.961 380.387 632.961 380.621C632.961 380.855 632.867 381.082 632.68 381.301C632.5 381.512 632.16 381.773 631.66 382.086C631.004 382.516 630.344 382.832 629.68 383.035C629.016 383.238 628.316 383.34 627.582 383.34C625.652 383.34 624.059 382.66 622.801 381.301C621.543 379.934 620.914 378.188 620.914 376.062C620.914 373.961 621.551 372.215 622.824 370.824C624.098 369.434 625.699 368.738 627.629 368.738C628.145 368.738 628.668 368.801 629.199 368.926C629.738 369.051 630.305 369.238 630.898 369.488ZM641.609 381.652C642.812 381.652 643.797 381.273 644.562 380.516C645.336 379.75 645.723 378.777 645.723 377.598C645.723 376.418 645.336 375.445 644.562 374.68C643.789 373.906 642.805 373.52 641.609 373.52C640.414 373.52 639.43 373.906 638.656 374.68C637.891 375.445 637.508 376.418 637.508 377.598C637.508 378.785 637.891 379.758 638.656 380.516C639.422 381.273 640.406 381.652 641.609 381.652ZM647.762 377.598C647.762 379.27 647.191 380.637 646.051 381.699C644.91 382.762 643.43 383.293 641.609 383.293C639.797 383.293 638.32 382.762 637.18 381.699C636.039 380.637 635.469 379.27 635.469 377.598C635.469 375.926 636.039 374.562 637.18 373.508C638.32 372.445 639.797 371.914 641.609 371.914C643.422 371.914 644.898 372.445 646.039 373.508C647.188 374.57 647.762 375.934 647.762 377.598ZM653.105 378.676C653.105 379.66 653.312 380.379 653.727 380.832C654.141 381.285 654.797 381.512 655.695 381.512C656.547 381.512 657.273 381.242 657.875 380.703C658.484 380.164 658.789 379.488 658.789 378.676V373.836H657.184C656.879 373.836 656.656 373.773 656.516 373.648C656.383 373.516 656.316 373.312 656.316 373.039C656.316 372.742 656.391 372.523 656.539 372.383C656.688 372.242 656.926 372.172 657.254 372.172H659.75C660.047 372.172 660.254 372.238 660.371 372.371C660.496 372.496 660.559 372.809 660.559 373.309V381.348H661.098C661.48 381.348 661.754 381.41 661.918 381.535C662.09 381.66 662.176 381.867 662.176 382.156C662.176 382.438 662.094 382.648 661.93 382.789C661.773 382.93 661.543 383 661.238 383H659.457C659.246 383 659.082 382.957 658.965 382.871C658.848 382.785 658.789 382.668 658.789 382.52V381.723C658.039 382.301 657.395 382.699 656.855 382.918C656.324 383.129 655.762 383.234 655.168 383.234C653.879 383.234 652.91 382.895 652.262 382.215C651.621 381.527 651.301 380.492 651.301 379.109V373.836H651.055C650.523 373.836 650.16 373.773 649.965 373.648C649.77 373.523 649.672 373.305 649.672 372.992C649.672 372.719 649.746 372.516 649.895 372.383C650.051 372.242 650.289 372.172 650.609 372.172H652.379C652.652 372.172 652.84 372.227 652.941 372.336C653.051 372.445 653.105 372.688 653.105 373.062V378.676ZM669.289 381.348H673.18C673.484 381.348 673.707 381.414 673.848 381.547C673.996 381.672 674.07 381.875 674.07 382.156C674.07 382.477 674 382.699 673.859 382.824C673.727 382.941 673.477 383 673.109 383H665.445C665.141 383 664.91 382.93 664.754 382.789C664.598 382.648 664.52 382.438 664.52 382.156C664.52 381.883 664.598 381.68 664.754 381.547C664.918 381.414 665.168 381.348 665.504 381.348H667.543V373.836H666.746C665.988 373.836 665.516 373.777 665.328 373.66C665.141 373.535 665.047 373.312 665.047 372.992C665.047 372.719 665.121 372.516 665.27 372.383C665.426 372.242 665.66 372.172 665.973 372.172H668.645C668.855 372.172 669.016 372.215 669.125 372.301C669.234 372.379 669.289 372.496 669.289 372.652V374.645C670.031 373.715 670.805 373.023 671.609 372.57C672.414 372.117 673.281 371.891 674.211 371.891C674.906 371.891 675.469 372.031 675.898 372.312C676.328 372.594 676.543 372.957 676.543 373.402C676.543 373.691 676.434 373.949 676.215 374.176C676.004 374.395 675.77 374.504 675.512 374.504C675.332 374.504 675.027 374.387 674.598 374.152C674.176 373.91 673.797 373.789 673.461 373.789C672.852 373.789 672.207 374.008 671.527 374.445C670.855 374.875 670.109 375.559 669.289 376.496V381.348ZM683.773 368.797C683.773 367.953 683.848 367.422 683.996 367.203C684.152 366.984 684.48 366.875 684.98 366.875C685.465 366.875 685.785 366.969 685.941 367.156C686.098 367.336 686.176 367.77 686.176 368.457C686.176 369.129 686.102 369.547 685.953 369.711C685.812 369.867 685.488 369.945 684.98 369.945C684.48 369.945 684.152 369.871 683.996 369.723C683.848 369.574 683.773 369.266 683.773 368.797ZM685.941 381.348H689.703C690.008 381.348 690.23 381.414 690.371 381.547C690.52 381.672 690.594 381.875 690.594 382.156C690.594 382.477 690.523 382.699 690.383 382.824C690.25 382.941 690 383 689.633 383H680.539C680.227 383 679.992 382.93 679.836 382.789C679.68 382.648 679.602 382.438 679.602 382.156C679.602 381.883 679.684 381.68 679.848 381.547C680.012 381.414 680.258 381.348 680.586 381.348H684.16V373.836H681.875C681.555 373.836 681.309 373.766 681.137 373.625C680.973 373.477 680.891 373.266 680.891 372.992C680.891 372.719 680.969 372.516 681.125 372.383C681.281 372.242 681.516 372.172 681.828 372.172H685.262C685.473 372.172 685.637 372.215 685.754 372.301C685.879 372.387 685.941 372.504 685.941 372.652V381.348ZM695.305 378.102C695.367 379.227 695.746 380.098 696.441 380.715C697.145 381.324 698.102 381.629 699.312 381.629C700.227 381.629 701.223 381.387 702.301 380.902C703.379 380.41 704.031 380.164 704.258 380.164C704.492 380.164 704.688 380.238 704.844 380.387C705 380.535 705.078 380.719 705.078 380.938C705.078 381.164 704.996 381.371 704.832 381.559C704.668 381.746 704.406 381.93 704.047 382.109C703.266 382.492 702.457 382.785 701.621 382.988C700.793 383.191 699.969 383.293 699.148 383.293C697.367 383.293 695.941 382.781 694.871 381.758C693.801 380.727 693.266 379.363 693.266 377.668C693.266 375.941 693.832 374.543 694.965 373.473C696.098 372.402 697.574 371.867 699.395 371.867C701.043 371.867 702.41 372.367 703.496 373.367C704.582 374.367 705.125 375.578 705.125 377C705.125 377.438 705.031 377.73 704.844 377.879C704.664 378.027 704.168 378.102 703.355 378.102H703.18H695.305ZM695.363 376.566H702.992C702.875 375.637 702.484 374.891 701.82 374.328C701.164 373.758 700.355 373.473 699.395 373.473C698.355 373.473 697.48 373.746 696.77 374.293C696.059 374.84 695.59 375.598 695.363 376.566ZM712.531 381.348H716.422C716.727 381.348 716.949 381.414 717.09 381.547C717.238 381.672 717.312 381.875 717.312 382.156C717.312 382.477 717.242 382.699 717.102 382.824C716.969 382.941 716.719 383 716.352 383H708.688C708.383 383 708.152 382.93 707.996 382.789C707.84 382.648 707.762 382.438 707.762 382.156C707.762 381.883 707.84 381.68 707.996 381.547C708.16 381.414 708.41 381.348 708.746 381.348H710.785V373.836H709.988C709.23 373.836 708.758 373.777 708.57 373.66C708.383 373.535 708.289 373.312 708.289 372.992C708.289 372.719 708.363 372.516 708.512 372.383C708.668 372.242 708.902 372.172 709.215 372.172H711.887C712.098 372.172 712.258 372.215 712.367 372.301C712.477 372.379 712.531 372.496 712.531 372.652V374.645C713.273 373.715 714.047 373.023 714.852 372.57C715.656 372.117 716.523 371.891 717.453 371.891C718.148 371.891 718.711 372.031 719.141 372.312C719.57 372.594 719.785 372.957 719.785 373.402C719.785 373.691 719.676 373.949 719.457 374.176C719.246 374.395 719.012 374.504 718.754 374.504C718.574 374.504 718.27 374.387 717.84 374.152C717.418 373.91 717.039 373.789 716.703 373.789C716.094 373.789 715.449 374.008 714.77 374.445C714.098 374.875 713.352 375.559 712.531 376.496V381.348Z" fill="white" fill-opacity="0.95"/>
<rect x="870" width="280" height="307" rx="24" fill="url(#paint5_linear_1123_2836)"/>
<path d="M916.25 197.848V209H912.734V180.816H923.301C928.73 180.816 932.285 184.137 932.285 189.215C932.285 193.141 930.156 196.188 926.621 197.301L933.145 209H929.023L922.988 197.848H916.25ZM916.25 183.941V194.742H922.988C926.602 194.742 928.652 192.789 928.652 189.332C928.652 185.953 926.465 183.941 922.832 183.941H916.25ZM944.609 209.352C938.984 209.352 935.195 205.309 935.195 198.844C935.195 192.359 938.984 188.336 944.609 188.336C950.215 188.336 954.004 192.359 954.004 198.844C954.004 205.309 950.215 209.352 944.609 209.352ZM944.609 206.363C948.203 206.363 950.547 203.629 950.547 198.844C950.547 194.059 948.203 191.324 944.609 191.324C941.016 191.324 938.652 194.059 938.652 198.844C938.652 203.629 941.016 206.363 944.609 206.363ZM967.539 209.352C964.57 209.352 962.246 207.906 960.938 205.562H960.859V209H957.617V180.816H961.016V192.086H961.094C962.363 189.762 964.727 188.336 967.598 188.336C972.715 188.336 976.172 192.477 976.172 198.844C976.172 205.23 972.734 209.352 967.539 209.352ZM966.875 191.324C963.438 191.324 960.996 194.332 960.996 198.844C960.996 203.375 963.438 206.363 966.875 206.363C970.469 206.363 972.695 203.492 972.695 198.844C972.695 194.234 970.469 191.324 966.875 191.324ZM988.047 209.352C982.422 209.352 978.633 205.309 978.633 198.844C978.633 192.359 982.422 188.336 988.047 188.336C993.652 188.336 997.441 192.359 997.441 198.844C997.441 205.309 993.652 209.352 988.047 209.352ZM988.047 206.363C991.641 206.363 993.984 203.629 993.984 198.844C993.984 194.059 991.641 191.324 988.047 191.324C984.453 191.324 982.09 194.059 982.09 198.844C982.09 203.629 984.453 206.363 988.047 206.363ZM1001.97 183.785H1005.37V188.688H1009.32V191.48H1005.37V203.551C1005.37 205.406 1006.15 206.246 1007.89 206.246C1008.28 206.246 1009.06 206.188 1009.3 206.148V209C1008.89 209.098 1007.95 209.156 1007.15 209.156C1003.42 209.156 1001.97 207.633 1001.97 203.727V191.48H998.945V188.688H1001.97V183.785ZM1020.78 209.352C1015.16 209.352 1011.37 205.309 1011.37 198.844C1011.37 192.359 1015.16 188.336 1020.78 188.336C1026.39 188.336 1030.18 192.359 1030.18 198.844C1030.18 205.309 1026.39 209.352 1020.78 209.352ZM1020.78 206.363C1024.38 206.363 1026.72 203.629 1026.72 198.844C1026.72 194.059 1024.38 191.324 1020.78 191.324C1017.19 191.324 1014.82 194.059 1014.82 198.844C1014.82 203.629 1017.19 206.363 1020.78 206.363Z" fill="white" fill-opacity="0.95"/>
<rect x="910" y="243" width="75" height="24" rx="4" fill="#262626"/>
<path d="M929.296 260H927.488L926.352 257.088H920.864L919.712 260H918L922.736 248.48H924.576L929.296 260ZM923.632 250.112L921.392 255.76H925.824L923.632 250.112ZM931.953 260H930.417V251.68H931.681L931.857 252.736C932.476 251.872 933.318 251.44 934.385 251.44C935.366 251.44 936.118 251.744 936.641 252.352C937.1 252.896 937.329 253.637 937.329 254.576V260H935.793V254.592C935.793 253.365 935.201 252.752 934.017 252.752C933.398 252.752 932.892 252.965 932.497 253.392C932.134 253.776 931.953 254.267 931.953 254.864V260ZM946.999 260H945.735L945.463 258.832C944.823 259.771 943.9 260.24 942.695 260.24C941.532 260.24 940.615 259.819 939.943 258.976C939.324 258.197 939.015 257.168 939.015 255.888C939.015 254.341 939.41 253.179 940.199 252.4C940.86 251.76 941.724 251.44 942.791 251.44C943.943 251.44 944.834 251.872 945.463 252.736V248.48H946.999V260ZM940.615 255.92C940.615 256.955 940.871 257.739 941.383 258.272C941.81 258.709 942.359 258.928 943.031 258.928C943.863 258.928 944.508 258.613 944.967 257.984C945.351 257.44 945.543 256.757 945.543 255.936C945.543 254.859 945.287 254.037 944.775 253.472C944.338 252.992 943.756 252.752 943.031 252.752C942.22 252.752 941.607 253.045 941.191 253.632C940.807 254.165 940.615 254.928 940.615 255.92ZM950.781 260H949.245V251.68H950.509L950.717 252.912C951.186 251.931 951.89 251.44 952.829 251.44C953.138 251.44 953.442 251.477 953.741 251.552V253.088C953.378 252.992 953.053 252.944 952.765 252.944C952.146 252.944 951.661 253.195 951.309 253.696C950.957 254.197 950.781 254.907 950.781 255.824V260ZM954.312 255.84C954.312 254.315 954.765 253.163 955.672 252.384C956.397 251.755 957.315 251.44 958.424 251.44C959.715 251.44 960.728 251.851 961.464 252.672C962.168 253.44 962.52 254.496 962.52 255.84C962.52 257.344 962.077 258.491 961.192 259.28C960.467 259.92 959.539 260.24 958.408 260.24C957.117 260.24 956.099 259.813 955.352 258.96C954.659 258.181 954.312 257.141 954.312 255.84ZM955.912 255.84C955.912 256.907 956.184 257.723 956.728 258.288C957.176 258.757 957.747 258.992 958.44 258.992C959.251 258.992 959.875 258.688 960.312 258.08C960.717 257.525 960.92 256.779 960.92 255.84C960.92 254.752 960.653 253.931 960.12 253.376C959.683 252.917 959.117 252.688 958.424 252.688C957.624 252.688 957 252.992 956.552 253.6C956.125 254.155 955.912 254.901 955.912 255.84ZM965.908 250.288H964.18V248.48H965.908V250.288ZM965.812 260H964.276V251.68H965.812V260ZM975.562 260H974.298L974.026 258.832C973.386 259.771 972.463 260.24 971.258 260.24C970.095 260.24 969.178 259.819 968.506 258.976C967.887 258.197 967.578 257.168 967.578 255.888C967.578 254.341 967.972 253.179 968.762 252.4C969.423 251.76 970.287 251.44 971.354 251.44C972.506 251.44 973.396 251.872 974.026 252.736V248.48H975.562V260ZM969.178 255.92C969.178 256.955 969.434 257.739 969.946 258.272C970.372 258.709 970.922 258.928 971.594 258.928C972.426 258.928 973.071 258.613 973.53 257.984C973.914 257.44 974.106 256.757 974.106 255.936C974.106 254.859 973.85 254.037 973.338 253.472C972.9 252.992 972.319 252.752 971.594 252.752C970.783 252.752 970.17 253.045 969.754 253.632C969.37 254.165 969.178 254.928 969.178 255.92Z" fill="white" fill-opacity="0.7"/>
<defs>
<linearGradient id="paint0_linear_1123_2836" x1="140" y1="0" x2="140" y2="307" gradientUnits="userSpaceOnUse">
<stop stop-color="#1A1A1A"/>
<stop offset="1" stop-color="#0F0F0F"/>
</linearGradient>
<linearGradient id="paint1_linear_1123_2836" x1="430" y1="0" x2="430" y2="307" gradientUnits="userSpaceOnUse">
<stop stop-color="#1A1A1A"/>
<stop offset="1" stop-color="#0F0F0F"/>
</linearGradient>
<linearGradient id="paint2_linear_1123_2836" x1="430" y1="317" x2="430" y2="433" gradientUnits="userSpaceOnUse">
<stop stop-color="#1A1A1A"/>
<stop offset="1" stop-color="#0F0F0F"/>
</linearGradient>
<linearGradient id="paint3_linear_1123_2836" x1="720" y1="0" x2="720" y2="307" gradientUnits="userSpaceOnUse">
<stop stop-color="#1A1A1A"/>
<stop offset="1" stop-color="#0F0F0F"/>
</linearGradient>
<linearGradient id="paint4_linear_1123_2836" x1="720" y1="317" x2="720" y2="433" gradientUnits="userSpaceOnUse">
<stop stop-color="#1A1A1A"/>
<stop offset="1" stop-color="#0F0F0F"/>
</linearGradient>
<linearGradient id="paint5_linear_1123_2836" x1="1010" y1="0" x2="1010" y2="307" gradientUnits="userSpaceOnUse">
<stop stop-color="#1A1A1A"/>
<stop offset="1" stop-color="#0F0F0F"/>
</linearGradient>
</defs>
</svg>
