<svg width="623" height="456" viewBox="0 0 623 456" fill="none" xmlns="http://www.w3.org/2000/svg">
<rect x="73.196" y="0.000488771" width="29.9439" height="29.9439" fill="white" fill-opacity="0.7"/>
<path d="M119.641 13.5487H118.297C118.523 12.098 119.814 11.1531 121.584 11.1531C123.141 11.1531 124.605 11.925 124.605 13.5886C124.605 14.6 123.899 15.4118 122.928 15.7179C123.979 15.9442 124.924 16.7294 124.924 18.1267C124.924 19.7238 123.62 20.855 121.624 20.855C119.667 20.855 118.483 19.8435 118.27 18.353H119.627C119.84 19.2846 120.466 19.7903 121.597 19.7903C122.875 19.7903 123.62 19.0983 123.62 18.1001C123.62 16.8225 122.635 16.3434 121.783 16.3434H121.011V15.2388H121.757C122.462 15.2388 123.301 14.7597 123.301 13.6817C123.301 12.6836 122.422 12.2178 121.517 12.2178C120.479 12.2178 119.774 12.7501 119.641 13.5487ZM132.731 13.1228H131.32C131.161 12.5638 130.668 12.1912 129.91 12.1912C128.858 12.1912 127.94 13.0429 127.794 15.7845C128.353 14.8928 129.257 14.5734 130.016 14.5734C131.839 14.5734 132.917 15.8776 132.917 17.7009C132.917 19.8435 131.334 20.8683 129.803 20.8683C127.647 20.8683 126.529 19.2846 126.529 16.3833C126.529 12.2045 128.206 11.1531 129.923 11.1531C131.334 11.1531 132.438 11.9117 132.731 13.1228ZM127.927 17.661C127.927 19.045 128.738 19.8036 129.803 19.8036C130.815 19.8036 131.626 19.0716 131.626 17.7674C131.626 16.4499 130.908 15.6381 129.79 15.6381C128.539 15.6381 127.927 16.583 127.927 17.661Z" fill="white" fill-opacity="0.95"/>
<path d="M608.725 13.5487H607.381C607.607 12.098 608.898 11.1531 610.668 11.1531C612.225 11.1531 613.689 11.925 613.689 13.5886C613.689 14.6 612.984 15.4118 612.012 15.7179C613.064 15.9442 614.009 16.7294 614.009 18.1267C614.009 19.7238 612.705 20.855 610.708 20.855C608.752 20.855 607.567 19.8435 607.355 18.353H608.712C608.925 19.2846 609.55 19.7903 610.682 19.7903C611.959 19.7903 612.705 19.0983 612.705 18.1001C612.705 16.8225 611.72 16.3434 610.868 16.3434H610.096V15.2388H610.841C611.547 15.2388 612.385 14.7597 612.385 13.6817C612.385 12.6836 611.507 12.2178 610.602 12.2178C609.564 12.2178 608.858 12.7501 608.725 13.5487ZM621.816 13.1228H620.405C620.245 12.5638 619.753 12.1912 618.994 12.1912C617.943 12.1912 617.025 13.0429 616.878 15.7845C617.437 14.8928 618.342 14.5734 619.101 14.5734C620.924 14.5734 622.002 15.8776 622.002 17.7009C622.002 19.8435 620.418 20.8683 618.888 20.8683C616.732 20.8683 615.614 19.2846 615.614 16.3833C615.614 12.2045 617.291 11.1531 619.007 11.1531C620.418 11.1531 621.523 11.9117 621.816 13.1228ZM617.011 17.661C617.011 19.045 617.823 19.8036 618.888 19.8036C619.899 19.8036 620.711 19.0716 620.711 17.7674C620.711 16.4499 619.992 15.6381 618.874 15.6381C617.623 15.6381 617.011 16.583 617.011 17.661Z" fill="white" fill-opacity="0.95"/>
<rect x="444.168" width="29.9439" height="29.9439" fill="#FFD4DA"/>
<rect x="475.775" width="29.9439" height="29.9439" fill="#9FEDD8"/>
<rect x="507.383" width="29.9439" height="29.9439" fill="#FFD4DA"/>
<rect x="538.991" width="29.9439" height="29.9439" fill="#9FEDD8"/>
<path d="M553.964 15.9079L565.231 7.22627C565.284 7.185 565.327 7.13312 565.358 7.07402C565.389 7.01493 565.408 6.94994 565.412 6.88331C565.416 6.81668 565.406 6.74989 565.383 6.68732C565.36 6.62474 565.323 6.56778 565.277 6.52015C564.874 6.08941 564.387 5.74543 563.847 5.50928C563.307 5.27312 562.724 5.14976 562.134 5.14676H545.791C545.206 5.14966 544.627 5.27101 544.091 5.50348C543.554 5.73596 543.07 6.07473 542.668 6.49938C542.621 6.54685 542.584 6.60376 542.56 6.66637C542.537 6.72898 542.527 6.79588 542.531 6.86267C542.535 6.92947 542.553 6.99465 542.584 7.05395C542.615 7.11324 542.658 7.1653 542.711 7.20671L553.964 15.9079Z" fill="#0F0F0F"/>
<path d="M555.107 17.3905C554.779 17.6426 554.377 17.7791 553.963 17.7788C553.549 17.7785 553.147 17.6413 552.82 17.3886L542.099 9.09907C542.03 9.04562 541.947 9.0126 541.86 9.00376C541.773 8.99493 541.686 9.01063 541.607 9.04909C541.529 9.08754 541.463 9.14722 541.416 9.22135C541.37 9.29548 541.345 9.3811 541.345 9.46851L541.33 20.1703C541.318 21.3831 541.787 22.5513 542.635 23.4187C543.483 24.286 544.64 24.7819 545.853 24.7975H562.072C563.285 24.7821 564.442 24.2863 565.29 23.4189C566.138 22.5515 566.607 21.3832 566.595 20.1703L566.607 9.47665C566.607 9.38918 566.583 9.30343 566.537 9.22914C566.491 9.15484 566.425 9.09497 566.346 9.05633C566.268 9.01768 566.18 9.00181 566.093 9.0105C566.006 9.0192 565.923 9.05212 565.854 9.10553L555.107 17.3905Z" fill="#0F0F0F"/>
<path d="M530.527 4.67852H514.183C512.854 4.70244 511.59 5.25222 510.666 6.20732C509.742 7.16241 509.235 8.44487 509.255 9.77348V20.1709C509.243 21.5077 509.762 22.7948 510.697 23.7497C511.633 24.7047 512.909 25.2496 514.246 25.265H530.465C531.802 25.2495 533.078 24.7046 534.014 23.7496C534.949 22.7946 535.468 21.5076 535.456 20.1709V9.77348C535.476 8.4448 534.969 7.16229 534.045 6.20719C533.121 5.25208 531.856 4.70234 530.527 4.67852ZM514.183 6.55001H530.527C530.992 6.55507 531.449 6.66833 531.861 6.8808C532.274 7.09327 532.632 7.39909 532.906 7.77397L522.357 15.9075L511.817 7.75815C512.091 7.38779 512.448 7.08598 512.858 6.87638C513.269 6.66677 513.722 6.55507 514.183 6.55001ZM533.584 20.1709C533.597 21.0115 533.276 21.8228 532.691 22.4269C532.106 23.031 531.306 23.3786 530.465 23.3935H514.246C513.405 23.3785 512.605 23.0309 512.02 22.4269C511.435 21.8228 511.114 21.0115 511.126 20.1709V9.77348C511.126 9.71462 511.14 9.65978 511.143 9.60177L521.213 17.3882C521.541 17.6409 521.943 17.7781 522.356 17.7784C522.77 17.7788 523.172 17.6422 523.5 17.3901L533.57 9.62553C533.572 9.6756 533.584 9.72276 533.584 9.77348V20.1709Z" fill="#0F0F0F"/>
<path d="M498.919 4.91264H482.575C481.308 4.93648 480.103 5.46159 479.223 6.37283C478.343 7.28407 477.86 8.50707 477.881 9.77366V20.171C477.869 21.4459 478.363 22.6735 479.254 23.5846C480.146 24.4957 481.363 25.016 482.638 25.0312H498.857C500.132 25.0158 501.349 24.4955 502.24 23.5843C503.132 22.6731 503.626 21.4455 503.614 20.1707V9.77366C503.634 8.50704 503.151 7.28401 502.271 6.37277C501.391 5.46152 500.186 4.93643 498.919 4.91264ZM482.575 6.31626H498.919C499.46 6.32105 499.991 6.46076 500.463 6.72271C500.936 6.98466 501.336 7.36055 501.627 7.81626L490.893 16.0927C490.852 16.1249 490.802 16.1424 490.75 16.1424C490.698 16.1424 490.647 16.1249 490.606 16.0927L479.88 7.79951C480.172 7.34859 480.57 6.97703 481.041 6.71815C481.511 6.45928 482.038 6.32118 482.575 6.31626ZM502.21 20.171C502.223 21.0737 501.877 21.9445 501.248 22.5925C500.62 23.2406 499.76 23.6129 498.857 23.628H482.638C481.735 23.6131 480.875 23.2408 480.246 22.5928C479.618 21.9447 479.272 21.0738 479.284 20.171V9.77366C479.286 9.56739 479.306 9.36168 479.343 9.15878L489.748 17.2039C490.035 17.4247 490.387 17.5445 490.749 17.5447C491.111 17.5448 491.463 17.4254 491.75 17.2048L502.153 9.18273C502.188 9.37781 502.207 9.57546 502.21 9.77366V20.171Z" fill="#0F0F0F"/>
<path d="M467.312 5.14676H450.967C449.763 5.17074 448.617 5.67124 447.781 6.53858C446.945 7.40592 446.487 8.56934 446.507 9.77384V20.1712C446.495 21.384 446.965 22.5521 447.813 23.4194C448.661 24.2866 449.818 24.7822 451.031 24.7975H467.25C468.463 24.7822 469.62 24.2866 470.468 23.4194C471.315 22.5521 471.785 21.384 471.773 20.1712V9.77384C471.793 8.56927 471.335 7.4058 470.499 6.53845C469.662 5.6711 468.517 5.17064 467.312 5.14676ZM450.967 6.08251H467.312C467.927 6.08975 468.53 6.2598 469.059 6.57536C469.587 6.89091 470.023 7.34075 470.321 7.87914L459.429 16.2782C459.347 16.3414 459.246 16.3756 459.142 16.3756C459.039 16.3756 458.938 16.3414 458.856 16.2782L447.969 7.86043C448.268 7.3269 448.703 6.88171 449.23 6.56962C449.756 6.25753 450.356 6.08952 450.967 6.08251ZM470.837 20.1712C470.849 21.1359 470.478 22.066 469.806 22.7578C469.134 23.4496 468.214 23.8466 467.25 23.8617H451.031C450.066 23.8467 449.146 23.4498 448.474 22.758C447.801 22.0662 447.431 21.1359 447.443 20.1712V9.77384C447.448 9.4289 447.499 9.08619 447.597 8.75519L458.284 17.0185C458.529 17.2085 458.831 17.3116 459.141 17.3118C459.452 17.3119 459.754 17.2091 460 17.0194L470.689 8.77746C470.783 9.10158 470.832 9.43665 470.837 9.77384V20.1712Z" fill="#0F0F0F"/>
<rect x="69.8626" y="38.262" width="33.271" height="33.271" fill="white" fill-opacity="0.7"/>
<path d="M122.19 51.278H123.521V57.7459H125.025V58.8372H123.521V60.5939H122.283V58.8372H118.197V57.6527L122.19 51.278ZM119.621 57.7459H122.283V53.3408L119.621 57.7459ZM129.584 60.7935C127.694 60.7935 126.257 59.2498 126.257 55.9093C126.257 52.4758 127.708 51.0784 129.584 51.0784C131.461 51.0784 132.911 52.4758 132.911 55.9093C132.911 59.2498 131.474 60.7935 129.584 60.7935ZM129.584 59.7289C130.942 59.7289 131.607 58.5178 131.607 55.9093C131.607 53.3142 130.942 52.1431 129.584 52.1431C128.227 52.1431 127.561 53.3142 127.561 55.9093C127.561 58.5178 128.227 59.7289 129.584 59.7289Z" fill="white" fill-opacity="0.95"/>
<path d="M611.281 51.2785H612.611V57.7464H614.115V58.8377H612.611V60.5944H611.374V58.8377H607.288V57.6532L611.281 51.2785ZM608.712 57.7464H611.374V53.3413L608.712 57.7464ZM618.675 60.794C616.785 60.794 615.348 59.2502 615.348 55.9098C615.348 52.4763 616.798 51.0789 618.675 51.0789C620.551 51.0789 622.002 52.4763 622.002 55.9098C622.002 59.2502 620.565 60.794 618.675 60.794ZM618.675 59.7294C620.032 59.7294 620.698 58.5183 620.698 55.9098C620.698 53.3147 620.032 52.1436 618.675 52.1436C617.317 52.1436 616.652 53.3147 616.652 55.9098C616.652 58.5183 617.317 59.7294 618.675 59.7294Z" fill="white" fill-opacity="0.95"/>
<rect x="430.853" y="38.262" width="33.271" height="33.271" fill="#FFD4DA"/>
<rect x="465.788" y="38.262" width="33.271" height="33.271" fill="#9FEDD8"/>
<rect x="500.722" y="38.262" width="33.271" height="33.271" fill="#FFD4DA"/>
<rect x="535.657" y="38.262" width="33.271" height="33.271" fill="#FFD4DA"/>
<path d="M552.294 55.9374L564.814 46.2912C564.872 46.2453 564.92 46.1877 564.954 46.122C564.989 46.0563 565.009 45.9841 565.014 45.9101C565.019 45.8361 565.008 45.7618 564.982 45.6923C564.956 45.6228 564.916 45.5595 564.864 45.5066C564.416 45.028 563.876 44.6458 563.275 44.3834C562.675 44.121 562.027 43.9839 561.372 43.9806H543.213C542.563 43.9838 541.92 44.1186 541.324 44.3769C540.728 44.6352 540.19 45.0117 539.743 45.4835C539.691 45.5362 539.65 45.5995 539.624 45.669C539.597 45.7386 539.586 45.8129 539.591 45.8872C539.595 45.9614 539.615 46.0338 539.65 46.0997C539.684 46.1656 539.732 46.2234 539.791 46.2694L552.294 55.9374Z" fill="#0F0F0F"/>
<path d="M553.564 57.5847C553.2 57.8648 552.753 58.0166 552.293 58.0162C551.833 58.0158 551.387 57.8634 551.023 57.5826L539.111 48.372C539.034 48.3127 538.942 48.276 538.846 48.2661C538.749 48.2563 538.652 48.2738 538.565 48.3165C538.477 48.3592 538.404 48.4255 538.352 48.5079C538.301 48.5903 538.274 48.6854 538.273 48.7825L538.256 60.6734C538.243 62.021 538.764 63.3189 539.706 64.2827C540.648 65.2465 541.934 65.7974 543.282 65.8147H561.303C562.651 65.7976 563.937 65.2468 564.879 64.283C565.821 63.3192 566.342 62.0211 566.329 60.6734L566.342 48.7916C566.343 48.6944 566.315 48.5991 566.264 48.5166C566.213 48.434 566.139 48.3675 566.052 48.3246C565.965 48.2816 565.868 48.264 565.771 48.2736C565.674 48.2833 565.582 48.3199 565.505 48.3792L553.564 57.5847Z" fill="#0F0F0F"/>
<path d="M526.438 43.4605H508.277C506.801 43.4871 505.396 44.098 504.369 45.1592C503.343 46.2204 502.779 47.6454 502.802 49.1216V60.6742C502.788 62.1597 503.365 63.5897 504.404 64.6508C505.444 65.7118 506.862 66.3173 508.347 66.3344H526.369C527.854 66.3172 529.272 65.7117 530.311 64.6506C531.351 63.5896 531.927 62.1596 531.914 60.6742V49.1216C531.936 47.6453 531.373 46.2203 530.346 45.1591C529.32 44.0978 527.914 43.487 526.438 43.4605ZM508.277 45.54H526.438C526.954 45.5456 527.461 45.6714 527.92 45.9075C528.379 46.1436 528.776 46.4834 529.081 46.8999L517.36 55.9372L505.648 46.8824C505.953 46.4708 506.349 46.1355 506.805 45.9026C507.261 45.6697 507.765 45.5456 508.277 45.54ZM529.834 60.6742C529.848 61.6083 529.491 62.5097 528.842 63.1809C528.192 63.8522 527.303 64.2384 526.369 64.2549H508.347C507.413 64.2383 506.524 63.8521 505.874 63.1809C505.225 62.5097 504.867 61.6083 504.881 60.6742V49.1216C504.881 49.0562 504.896 48.9953 504.899 48.9308L516.089 57.5824C516.453 57.8632 516.899 58.0156 517.359 58.016C517.819 58.0164 518.266 57.8646 518.63 57.5845L529.819 48.9572C529.821 49.0128 529.834 49.0652 529.834 49.1216V60.6742Z" fill="#0F0F0F"/>
<path d="M491.503 43.7206H473.343C471.936 43.747 470.596 44.3305 469.619 45.343C468.641 46.3555 468.104 47.7144 468.127 49.1217V60.6743C468.114 62.0909 468.663 63.4549 469.654 64.4672C470.644 65.4795 471.996 66.0576 473.413 66.0745H491.434C492.851 66.0574 494.203 65.4792 495.193 64.4668C496.184 63.4544 496.733 62.0904 496.719 60.6739V49.1217C496.742 47.7143 496.206 46.3554 495.228 45.3429C494.25 44.3304 492.911 43.747 491.503 43.7206ZM473.343 45.2801H491.503C492.104 45.2855 492.694 45.4407 493.219 45.7318C493.745 46.0228 494.189 46.4405 494.512 46.9468L482.586 56.1428C482.54 56.1786 482.484 56.198 482.426 56.198C482.368 56.198 482.312 56.1786 482.267 56.1428L470.349 46.9282C470.673 46.4272 471.116 46.0143 471.638 45.7267C472.161 45.439 472.746 45.2856 473.343 45.2801ZM495.16 60.6743C495.174 61.6773 494.79 62.6449 494.091 63.3649C493.393 64.0849 492.437 64.4986 491.435 64.5154H473.413C472.41 64.4988 471.454 64.0852 470.756 63.3651C470.057 62.6451 469.673 61.6774 469.687 60.6743V49.1217C469.689 48.8925 469.711 48.6639 469.752 48.4385L481.314 57.3775C481.632 57.6228 482.023 57.756 482.425 57.7562C482.827 57.7563 483.218 57.6236 483.537 57.3785L495.097 48.4651C495.136 48.6819 495.157 48.9015 495.16 49.1217V60.6743Z" fill="#0F0F0F"/>
<path d="M456.569 43.9806H438.408C437.07 44.0072 435.797 44.5633 434.868 45.5271C433.939 46.4908 433.43 47.7834 433.453 49.1218V60.6744C433.439 62.022 433.961 63.3199 434.903 64.2835C435.845 65.2471 437.131 65.7977 438.478 65.8147H456.5C457.847 65.7978 459.133 65.2471 460.075 64.2835C461.017 63.3199 461.539 62.022 461.525 60.6744V49.1218C461.548 47.7834 461.039 46.4906 460.109 45.5269C459.18 44.5632 457.907 44.0071 456.569 43.9806ZM438.408 45.0203H456.569C457.253 45.0284 457.922 45.2173 458.51 45.5679C459.097 45.9185 459.581 46.4183 459.912 47.0166L447.81 56.3489C447.718 56.419 447.607 56.457 447.491 56.457C447.376 56.457 447.264 56.419 447.173 56.3489L435.076 46.9958C435.409 46.403 435.893 45.9083 436.478 45.5615C437.062 45.2148 437.728 45.0281 438.408 45.0203ZM460.485 60.6744C460.499 61.7463 460.087 62.7798 459.34 63.5485C458.593 64.3171 457.572 64.7582 456.5 64.775H438.478C437.407 64.7583 436.385 64.3173 435.638 63.5486C434.891 62.78 434.479 61.7464 434.492 60.6744V49.1218C434.497 48.7385 434.555 48.3577 434.663 47.99L446.537 57.1714C446.81 57.3825 447.145 57.4971 447.49 57.4973C447.835 57.4974 448.171 57.3832 448.444 57.1724L460.322 48.0147C460.425 48.3748 460.48 48.7471 460.485 49.1218V60.6744Z" fill="#0F0F0F"/>
<rect x="63.2146" y="79.851" width="39.9252" height="39.9252" fill="white" fill-opacity="0.7"/>
<path d="M122.196 96.1941H123.527V102.662H125.03V103.753H123.527V105.51H122.289V103.753H118.203V102.569L122.196 96.1941ZM119.627 102.662H122.289V98.2569L119.627 102.662ZM132.638 98.39C132.638 99.4547 131.839 100.16 131.107 100.546C131.986 100.932 132.984 101.677 132.984 102.995C132.984 104.578 131.626 105.71 129.59 105.71C127.554 105.71 126.196 104.605 126.196 103.088C126.196 101.664 127.181 100.945 128.02 100.626C127.314 100.293 126.542 99.6676 126.542 98.4832C126.542 96.7664 127.993 95.9945 129.59 95.9945C131.187 95.9945 132.638 96.6998 132.638 98.39ZM131.626 102.995C131.626 101.517 130.349 101.251 129.311 101.025C128.539 101.251 127.554 101.824 127.554 102.995C127.554 103.9 128.206 104.658 129.59 104.658C130.948 104.658 131.626 103.966 131.626 102.995ZM127.793 98.4166C127.793 99.8273 129.058 100.107 129.856 100.213C130.535 99.9471 131.36 99.4014 131.36 98.4166C131.36 97.5383 130.562 96.9926 129.59 96.9926C128.619 96.9926 127.793 97.4584 127.793 98.4166Z" fill="white" fill-opacity="0.95"/>
<path d="M611.28 95.3622H612.611V101.83H614.115V102.921H612.611V104.678H611.374V102.921H607.288V101.737L611.28 95.3622ZM608.712 101.83H611.374V97.425L608.712 101.83ZM621.722 97.5581C621.722 98.6228 620.924 99.3281 620.192 99.7141C621.07 100.1 622.068 100.845 622.068 102.163C622.068 103.747 620.711 104.878 618.675 104.878C616.638 104.878 615.281 103.773 615.281 102.256C615.281 100.832 616.266 100.113 617.104 99.7939C616.399 99.4612 615.627 98.8357 615.627 97.6513C615.627 95.9345 617.078 95.1626 618.675 95.1626C620.272 95.1626 621.722 95.8679 621.722 97.5581ZM620.711 102.163C620.711 100.686 619.433 100.419 618.395 100.193C617.623 100.419 616.638 100.992 616.638 102.163C616.638 103.068 617.291 103.826 618.675 103.826C620.032 103.826 620.711 103.134 620.711 102.163ZM616.878 97.5847C616.878 98.9954 618.142 99.2749 618.941 99.3814C619.62 99.1152 620.445 98.5696 620.445 97.5847C620.445 96.7064 619.646 96.1607 618.675 96.1607C617.703 96.1607 616.878 96.6265 616.878 97.5847Z" fill="white" fill-opacity="0.95"/>
<rect x="404.242" y="79.851" width="39.9252" height="39.9252" fill="#FFD4DA"/>
<rect x="445.832" y="79.851" width="39.9252" height="39.9252" fill="#9FEDD8"/>
<rect x="487.42" y="79.851" width="39.9252" height="39.9252" fill="#FFD4DA"/>
<rect x="529.009" y="79.851" width="39.9252" height="39.9252" fill="#FFD4DA"/>
<path d="M548.973 101.061L563.997 89.486C564.067 89.431 564.125 89.3618 564.166 89.283C564.208 89.2042 564.232 89.1176 564.238 89.0287C564.243 88.9399 564.23 88.8509 564.199 88.7674C564.168 88.684 564.12 88.608 564.057 88.5445C563.52 87.9702 562.872 87.5116 562.151 87.1967C561.431 86.8818 560.654 86.7173 559.867 86.7133H538.076C537.296 86.7172 536.525 86.879 535.81 87.189C535.094 87.4989 534.449 87.9506 533.912 88.5168C533.849 88.5801 533.801 88.656 533.769 88.7395C533.738 88.823 533.724 88.9122 533.73 89.0012C533.735 89.0903 533.759 89.1772 533.8 89.2563C533.842 89.3353 533.899 89.4047 533.97 89.4599L548.973 101.061Z" fill="#0F0F0F"/>
<path d="M550.498 103.038C550.06 103.374 549.524 103.557 548.972 103.556C548.421 103.556 547.885 103.373 547.448 103.036L533.154 91.9831C533.062 91.9118 532.952 91.8678 532.836 91.856C532.72 91.8442 532.603 91.8652 532.498 91.9164C532.394 91.9677 532.305 92.0473 532.244 92.1461C532.182 92.245 532.149 92.3591 532.149 92.4757L532.128 106.745C532.112 108.362 532.738 109.919 533.868 111.076C534.999 112.232 536.542 112.893 538.159 112.914H559.784C561.402 112.894 562.945 112.233 564.075 111.076C565.206 109.92 565.831 108.362 565.815 106.745L565.832 92.4865C565.832 92.3699 565.799 92.2556 565.738 92.1565C565.676 92.0574 565.588 91.9776 565.483 91.9261C565.379 91.8746 565.262 91.8534 565.146 91.865C565.03 91.8766 564.919 91.9205 564.827 91.9917L550.498 103.038Z" fill="#0F0F0F"/>
<path d="M518.279 86.0892H496.486C494.715 86.1211 493.028 86.8541 491.796 88.1276C490.565 89.401 489.888 91.111 489.915 92.8825V106.746C489.899 108.528 490.591 110.244 491.839 111.517C493.086 112.791 494.788 113.517 496.57 113.538H518.196C519.978 113.517 521.68 112.791 522.927 111.517C524.174 110.244 524.866 108.528 524.85 106.746V92.8825C524.877 91.1109 524.201 89.4009 522.969 88.1274C521.737 86.8539 520.05 86.1209 518.279 86.0892ZM496.486 88.5845H518.279C518.898 88.5913 519.507 88.7423 520.057 89.0256C520.608 89.3088 521.085 89.7166 521.45 90.2164L507.385 101.061L493.331 90.1954C493.697 89.7015 494.172 89.2991 494.72 89.0197C495.267 88.7402 495.872 88.5912 496.486 88.5845ZM522.355 106.746C522.371 107.866 521.943 108.948 521.163 109.754C520.384 110.559 519.317 111.023 518.196 111.042H496.57C495.449 111.023 494.382 110.559 493.602 109.754C492.823 108.948 492.394 107.866 492.411 106.746V92.8825C492.411 92.804 492.429 92.7309 492.433 92.6535L505.86 103.035C506.296 103.372 506.832 103.555 507.384 103.556C507.936 103.556 508.472 103.374 508.909 103.038L522.336 92.6852C522.339 92.752 522.355 92.8148 522.355 92.8825V106.746Z" fill="#0F0F0F"/>
<path d="M476.69 86.401H454.898C453.209 86.4328 451.602 87.1329 450.428 88.3479C449.255 89.5629 448.612 91.1936 448.639 92.8824V106.746C448.623 108.445 449.281 110.082 450.47 111.297C451.66 112.512 453.282 113.205 454.982 113.226H476.607C478.307 113.205 479.929 112.511 481.118 111.297C482.307 110.082 482.966 108.445 482.949 106.745V92.8824C482.976 91.1935 482.333 89.5628 481.16 88.3479C479.986 87.1329 478.379 86.4327 476.69 86.401ZM454.898 88.2725H476.69C477.411 88.2789 478.119 88.4652 478.749 88.8144C479.38 89.1637 479.913 89.6649 480.3 90.2725L465.989 101.308C465.934 101.351 465.867 101.374 465.798 101.374C465.728 101.374 465.661 101.351 465.606 101.308L451.305 90.2502C451.693 89.649 452.225 89.1535 452.852 88.8084C453.479 88.4632 454.182 88.2791 454.898 88.2725ZM481.078 106.746C481.095 107.949 480.634 109.11 479.796 109.974C478.958 110.838 477.811 111.335 476.608 111.355H454.982C453.778 111.335 452.631 110.839 451.793 109.975C450.955 109.11 450.494 107.949 450.51 106.746V92.8824C450.513 92.6073 450.539 92.3331 450.589 92.0625L464.462 102.789C464.845 103.084 465.314 103.244 465.796 103.244C466.279 103.244 466.748 103.085 467.131 102.791L481.002 92.0945C481.049 92.3546 481.075 92.6181 481.078 92.8824V106.746Z" fill="#0F0F0F"/>
<path d="M435.101 86.7138H413.309C411.703 86.7458 410.175 87.4131 409.06 88.5696C407.946 89.726 407.335 91.2773 407.362 92.8833V106.746C407.346 108.364 407.972 109.921 409.102 111.077C410.233 112.234 411.776 112.894 413.393 112.915H435.019C436.636 112.894 438.178 112.234 439.309 111.077C440.439 109.921 441.065 108.363 441.049 106.746V92.8833C441.076 91.2772 440.465 89.7259 439.35 88.5694C438.235 87.413 436.707 86.7457 435.101 86.7138ZM413.309 87.9615H435.101C435.922 87.9712 436.726 88.1979 437.43 88.6186C438.135 89.0394 438.716 89.6391 439.113 90.357L424.59 101.556C424.481 101.64 424.347 101.686 424.208 101.686C424.07 101.686 423.936 101.64 423.827 101.556L409.31 90.3321C409.71 89.6207 410.29 89.0271 410.992 88.611C411.694 88.1948 412.493 87.9708 413.309 87.9615ZM439.801 106.746C439.818 108.033 439.323 109.273 438.427 110.195C437.53 111.118 436.305 111.647 435.019 111.667H413.393C412.107 111.647 410.881 111.118 409.984 110.195C409.087 109.273 408.593 108.033 408.61 106.746V92.8833C408.616 92.4233 408.685 91.9664 408.814 91.5251L423.063 102.543C423.391 102.796 423.793 102.934 424.207 102.934C424.621 102.934 425.024 102.797 425.352 102.544L439.605 91.5548C439.729 91.9869 439.795 92.4337 439.801 92.8833V106.746Z" fill="#0F0F0F"/>
<rect x="56.5602" y="128.094" width="46.5794" height="46.5794" fill="white" fill-opacity="0.7"/>
<path d="M118.297 154.818H119.654C119.827 155.577 120.492 156.202 121.624 156.202C122.768 156.202 123.647 155.404 123.647 154.006C123.647 152.636 122.848 151.89 121.65 151.89C121.011 151.89 120.293 152.143 119.787 152.742H118.656L118.856 147.765H124.578V148.843H120.013L119.907 151.571C120.426 151.158 121.078 150.892 121.943 150.892C123.567 150.892 124.964 151.97 124.964 154.06C124.964 155.79 123.74 157.28 121.61 157.28C119.694 157.28 118.509 156.083 118.297 154.818ZM132.731 149.535H131.32C131.161 148.976 130.668 148.603 129.91 148.603C128.858 148.603 127.94 149.455 127.794 152.197C128.353 151.305 129.257 150.985 130.016 150.985C131.839 150.985 132.917 152.29 132.917 154.113C132.917 156.256 131.334 157.28 129.803 157.28C127.647 157.28 126.529 155.697 126.529 152.795C126.529 148.617 128.206 147.565 129.923 147.565C131.334 147.565 132.438 148.324 132.731 149.535ZM127.927 154.073C127.927 155.457 128.738 156.216 129.803 156.216C130.815 156.216 131.626 155.484 131.626 154.179C131.626 152.862 130.908 152.05 129.79 152.05C128.539 152.05 127.927 152.995 127.927 154.073Z" fill="white" fill-opacity="0.95"/>
<path d="M607.381 154.818H608.739C608.912 155.577 609.577 156.202 610.708 156.202C611.853 156.202 612.731 155.404 612.731 154.006C612.731 152.636 611.933 151.89 610.735 151.89C610.096 151.89 609.377 152.143 608.872 152.742H607.74L607.94 147.765H613.663V148.843H609.098L608.991 151.571C609.51 151.158 610.163 150.892 611.028 150.892C612.651 150.892 614.049 151.97 614.049 154.06C614.049 155.79 612.824 157.28 610.695 157.28C608.779 157.28 607.594 156.083 607.381 154.818ZM621.816 149.535H620.405C620.245 148.976 619.753 148.603 618.994 148.603C617.943 148.603 617.025 149.455 616.878 152.197C617.437 151.305 618.342 150.985 619.101 150.985C620.924 150.985 622.002 152.29 622.002 154.113C622.002 156.256 620.418 157.28 618.888 157.28C616.732 157.28 615.614 155.697 615.614 152.795C615.614 148.617 617.291 147.565 619.007 147.565C620.418 147.565 621.523 148.324 621.816 149.535ZM617.011 154.073C617.011 155.457 617.823 156.216 618.888 156.216C619.899 156.216 620.711 155.484 620.711 154.179C620.711 152.862 619.992 152.05 618.874 152.05C617.623 152.05 617.011 152.995 617.011 154.073Z" fill="white" fill-opacity="0.95"/>
<rect x="377.626" y="128.094" width="46.5794" height="46.5794" fill="#9FEDD8"/>
<rect x="425.869" y="128.094" width="46.5794" height="46.5794" fill="#FFD4DA"/>
<rect x="474.112" y="128.094" width="46.5794" height="46.5794" fill="#FFD4DA"/>
<rect x="522.355" y="128.094" width="46.5794" height="46.5794" fill="#FFD4DA"/>
<path d="M545.647 152.84L563.175 139.335C563.256 139.271 563.323 139.19 563.372 139.098C563.42 139.006 563.449 138.905 563.455 138.802C563.462 138.698 563.447 138.594 563.41 138.497C563.374 138.399 563.318 138.311 563.245 138.237C562.618 137.567 561.862 137.031 561.021 136.664C560.181 136.297 559.274 136.105 558.357 136.1H532.933C532.023 136.105 531.124 136.293 530.289 136.655C529.454 137.017 528.701 137.544 528.076 138.204C528.002 138.278 527.945 138.367 527.909 138.464C527.872 138.561 527.856 138.666 527.862 138.769C527.869 138.873 527.897 138.975 527.945 139.067C527.994 139.159 528.061 139.24 528.143 139.305L545.647 152.84Z" fill="#0F0F0F"/>
<path d="M547.425 155.146C546.915 155.538 546.289 155.751 545.646 155.75C545.002 155.75 544.377 155.536 543.867 155.143L527.191 142.248C527.084 142.165 526.955 142.114 526.82 142.1C526.684 142.086 526.548 142.111 526.426 142.171C526.304 142.23 526.201 142.323 526.129 142.438C526.057 142.554 526.019 142.687 526.018 142.823L525.994 159.47C525.975 161.357 526.706 163.174 528.024 164.523C529.343 165.872 531.143 166.644 533.03 166.668H558.26C560.147 166.644 561.947 165.873 563.266 164.524C564.585 163.174 565.315 161.357 565.296 159.47L565.315 142.836C565.315 142.7 565.277 142.566 565.205 142.451C565.134 142.335 565.031 142.242 564.909 142.182C564.787 142.122 564.65 142.097 564.515 142.11C564.379 142.124 564.25 142.175 564.143 142.258L547.425 155.146Z" fill="#0F0F0F"/>
<path d="M510.114 135.372H484.689C482.623 135.409 480.655 136.264 479.218 137.75C477.781 139.236 476.992 141.231 477.024 143.297V159.471C477.005 161.551 477.812 163.553 479.267 165.038C480.723 166.524 482.708 167.371 484.787 167.395H510.017C512.097 167.371 514.082 166.524 515.537 165.038C516.992 163.553 517.799 161.551 517.781 159.471V143.297C517.812 141.231 517.023 139.236 515.586 137.75C514.149 136.264 512.181 135.409 510.114 135.372ZM484.689 138.283H510.114C510.836 138.291 511.547 138.467 512.189 138.798C512.832 139.128 513.388 139.604 513.814 140.187L497.405 152.839L481.009 140.162C481.436 139.586 481.99 139.117 482.629 138.791C483.267 138.465 483.972 138.291 484.689 138.283ZM514.869 159.471C514.889 160.779 514.389 162.041 513.48 162.981C512.57 163.92 511.325 164.461 510.017 164.484H484.787C483.48 164.461 482.235 163.92 481.325 162.98C480.415 162.041 479.915 160.779 479.935 159.471V143.297C479.935 143.206 479.956 143.121 479.96 143.03L495.625 155.143C496.135 155.536 496.76 155.749 497.404 155.75C498.047 155.75 498.673 155.538 499.183 155.146L514.847 143.067C514.851 143.145 514.869 143.219 514.869 143.297V159.471Z" fill="#0F0F0F"/>
<path d="M461.871 135.736H436.446C434.476 135.773 432.601 136.59 431.232 138.007C429.864 139.425 429.113 141.327 429.144 143.298V159.471C429.126 161.454 429.894 163.364 431.281 164.781C432.669 166.199 434.561 167.008 436.544 167.032H461.775C463.758 167.008 465.65 166.198 467.037 164.781C468.424 163.363 469.192 161.454 469.173 159.471V143.298C469.205 141.327 468.454 139.425 467.085 138.007C465.717 136.59 463.841 135.773 461.871 135.736ZM436.446 137.919H461.871C462.712 137.927 463.538 138.144 464.273 138.552C465.009 138.959 465.631 139.544 466.083 140.253L449.386 153.127C449.323 153.177 449.244 153.205 449.163 153.205C449.082 153.205 449.003 153.177 448.94 153.127L432.255 140.227C432.708 139.525 433.328 138.947 434.06 138.545C434.791 138.142 435.611 137.927 436.446 137.919ZM466.99 159.471C467.01 160.876 466.472 162.23 465.494 163.238C464.516 164.246 463.179 164.825 461.775 164.849H436.544C435.14 164.826 433.802 164.247 432.825 163.239C431.847 162.23 431.308 160.876 431.328 159.471V143.298C431.331 142.977 431.362 142.657 431.42 142.341L447.605 154.856C448.051 155.199 448.599 155.386 449.162 155.386C449.725 155.386 450.272 155.2 450.718 154.857L466.902 142.378C466.957 142.682 466.986 142.989 466.99 143.298V159.471Z" fill="#0F0F0F"/>
<path d="M413.628 136.1H388.203C386.33 136.138 384.547 136.916 383.247 138.265C381.946 139.614 381.234 141.424 381.265 143.298V159.472C381.247 161.358 381.977 163.175 383.296 164.524C384.615 165.873 386.415 166.644 388.302 166.668H413.532C415.418 166.644 417.218 165.873 418.537 164.524C419.856 163.175 420.586 161.358 420.567 159.472V143.298C420.598 141.424 419.886 139.614 418.585 138.265C417.284 136.916 415.502 136.137 413.628 136.1ZM388.203 137.556H413.628C414.586 137.567 415.523 137.832 416.345 138.322C417.167 138.813 417.845 139.513 418.309 140.351L401.365 153.416C401.238 153.514 401.081 153.567 400.92 153.567C400.759 153.567 400.602 153.514 400.474 153.416L383.538 140.321C384.005 139.492 384.681 138.799 385.5 138.314C386.319 137.828 387.251 137.567 388.203 137.556ZM419.111 159.472C419.13 160.972 418.554 162.419 417.508 163.495C416.462 164.571 415.032 165.189 413.532 165.212H388.302C386.801 165.189 385.371 164.572 384.325 163.496C383.279 162.419 382.702 160.972 382.721 159.472V143.298C382.728 142.761 382.809 142.228 382.96 141.713L399.584 154.567C399.966 154.863 400.435 155.023 400.918 155.024C401.401 155.024 401.871 154.864 402.253 154.569L418.882 141.748C419.027 142.252 419.104 142.773 419.111 143.298V159.472Z" fill="#0F0F0F"/>
<rect x="49.9061" y="182.991" width="53.2337" height="53.2337" fill="white" fill-opacity="0.7"/>
<path d="M124.751 207.758H123.34C123.181 207.199 122.688 206.827 121.93 206.827C120.878 206.827 119.96 207.678 119.814 210.42C120.373 209.528 121.278 209.209 122.036 209.209C123.859 209.209 124.937 210.513 124.937 212.336C124.937 214.479 123.354 215.504 121.823 215.504C119.667 215.504 118.549 213.92 118.549 211.019C118.549 206.84 120.226 205.789 121.943 205.789C123.354 205.789 124.458 206.547 124.751 207.758ZM119.947 212.296C119.947 213.68 120.759 214.439 121.823 214.439C122.835 214.439 123.647 213.707 123.647 212.403C123.647 211.085 122.928 210.273 121.81 210.273C120.559 210.273 119.947 211.218 119.947 212.296ZM130.176 205.988H131.507V212.456H133.01V213.547H131.507V215.304H130.269V213.547H126.183V212.363L130.176 205.988ZM127.607 212.456H130.269V208.051L127.607 212.456Z" fill="white" fill-opacity="0.95"/>
<path d="M613.836 207.758H612.425C612.265 207.199 611.773 206.827 611.014 206.827C609.963 206.827 609.045 207.678 608.898 210.42C609.457 209.528 610.362 209.209 611.121 209.209C612.944 209.209 614.022 210.513 614.022 212.336C614.022 214.479 612.438 215.504 610.908 215.504C608.752 215.504 607.634 213.92 607.634 211.019C607.634 206.84 609.311 205.789 611.028 205.789C612.438 205.789 613.543 206.547 613.836 207.758ZM609.031 212.296C609.031 213.68 609.843 214.439 610.908 214.439C611.919 214.439 612.731 213.707 612.731 212.403C612.731 211.085 612.012 210.273 610.895 210.273C609.644 210.273 609.031 211.218 609.031 212.296ZM619.26 205.988H620.591V212.456H622.095V213.547H620.591V215.304H619.354V213.547H615.268V212.363L619.26 205.988ZM616.692 212.456H619.354V208.051L616.692 212.456Z" fill="white" fill-opacity="0.95"/>
<rect x="351.009" y="182.991" width="53.2337" height="53.2337" fill="#9FEDD8"/>
<rect x="405.906" y="182.991" width="53.2337" height="53.2337" fill="#FFD4DA"/>
<rect x="460.804" y="182.991" width="53.2337" height="53.2337" fill="#FFD4DA"/>
<rect x="515.701" y="182.991" width="53.2337" height="53.2337" fill="#FFD4DA"/>
<path d="M542.32 211.272L562.352 195.838C562.445 195.764 562.522 195.672 562.577 195.567C562.632 195.462 562.665 195.346 562.672 195.228C562.68 195.109 562.662 194.991 562.621 194.88C562.58 194.768 562.515 194.667 562.432 194.582C561.716 193.817 560.851 193.205 559.89 192.785C558.93 192.365 557.894 192.146 556.845 192.141H527.79C526.75 192.146 525.722 192.362 524.768 192.775C523.814 193.188 522.954 193.79 522.239 194.545C522.155 194.63 522.09 194.731 522.048 194.842C522.006 194.954 521.988 195.073 521.995 195.191C522.002 195.31 522.034 195.426 522.089 195.531C522.145 195.637 522.221 195.729 522.315 195.803L542.32 211.272Z" fill="#0F0F0F"/>
<path d="M544.352 213.907C543.769 214.356 543.054 214.598 542.319 214.598C541.583 214.597 540.869 214.353 540.286 213.904L521.228 199.167C521.105 199.072 520.958 199.013 520.803 198.998C520.649 198.982 520.493 199.01 520.353 199.078C520.214 199.147 520.096 199.253 520.014 199.384C519.931 199.516 519.888 199.668 519.887 199.824L519.86 218.849C519.838 221.005 520.673 223.082 522.18 224.624C523.687 226.166 525.744 227.048 527.9 227.075H556.735C558.891 227.048 560.948 226.167 562.456 224.625C563.963 223.082 564.797 221.006 564.776 218.849L564.798 199.838C564.798 199.683 564.755 199.53 564.672 199.398C564.59 199.266 564.473 199.16 564.333 199.091C564.194 199.022 564.038 198.994 563.883 199.01C563.728 199.025 563.581 199.084 563.458 199.179L544.352 213.907Z" fill="#0F0F0F"/>
<path d="M501.949 191.309H472.892C470.53 191.352 468.281 192.329 466.639 194.027C464.997 195.725 464.095 198.005 464.131 200.367V218.851C464.109 221.228 465.032 223.516 466.695 225.214C468.358 226.911 470.627 227.88 473.004 227.907H501.838C504.215 227.88 506.483 226.911 508.146 225.213C509.81 223.516 510.732 221.228 510.71 218.851V200.367C510.746 198.005 509.844 195.725 508.202 194.027C506.559 192.329 504.311 191.352 501.949 191.309ZM472.892 194.636H501.949C502.774 194.645 503.586 194.847 504.32 195.225C505.054 195.602 505.69 196.146 506.177 196.812L487.423 211.272L468.686 196.784C469.173 196.126 469.807 195.589 470.536 195.217C471.266 194.844 472.072 194.645 472.892 194.636ZM507.383 218.851C507.405 220.346 506.834 221.788 505.795 222.862C504.755 223.936 503.332 224.554 501.838 224.58H473.004C471.509 224.554 470.086 223.936 469.047 222.862C468.007 221.788 467.436 220.346 467.458 218.851V200.367C467.458 200.262 467.482 200.165 467.487 200.062L485.39 213.904C485.972 214.354 486.687 214.597 487.422 214.598C488.158 214.599 488.873 214.356 489.456 213.908L507.358 200.104C507.362 200.193 507.383 200.277 507.383 200.367V218.851Z" fill="#0F0F0F"/>
<path d="M447.051 191.725H417.994C415.743 191.768 413.6 192.701 412.035 194.321C410.471 195.941 409.613 198.115 409.649 200.367V218.851C409.628 221.118 410.506 223.3 412.091 224.92C413.677 226.54 415.84 227.465 418.106 227.492H446.941C449.207 227.464 451.37 226.539 452.955 224.919C454.54 223.299 455.418 221.117 455.397 218.851V200.367C455.433 198.115 454.575 195.941 453.01 194.321C451.446 192.701 449.303 191.768 447.051 191.725ZM417.994 194.221H447.051C448.012 194.229 448.956 194.478 449.796 194.943C450.637 195.409 451.348 196.077 451.865 196.887L432.783 211.601C432.71 211.658 432.62 211.689 432.528 211.689C432.435 211.689 432.345 211.658 432.273 211.601L413.204 196.858C413.722 196.056 414.431 195.395 415.267 194.935C416.103 194.475 417.04 194.229 417.994 194.221ZM452.902 218.851C452.924 220.456 452.309 222.004 451.192 223.156C450.074 224.308 448.546 224.97 446.941 224.997H418.106C416.501 224.971 414.973 224.309 413.855 223.157C412.737 222.005 412.122 220.456 412.145 218.851V200.367C412.148 200 412.183 199.635 412.25 199.274L430.747 213.576C431.257 213.969 431.883 214.182 432.526 214.182C433.169 214.183 433.795 213.97 434.305 213.578L452.801 199.317C452.863 199.663 452.897 200.015 452.902 200.367V218.851Z" fill="#0F0F0F"/>
<path d="M392.154 192.141H363.097C360.956 192.183 358.919 193.073 357.433 194.615C355.946 196.157 355.132 198.225 355.168 200.367V218.851C355.147 221.007 355.981 223.084 357.488 224.625C358.996 226.167 361.053 227.048 363.209 227.075H392.044C394.2 227.048 396.257 226.167 397.764 224.625C399.271 223.084 400.106 221.007 400.084 218.851V200.367C400.12 198.225 399.305 196.157 397.819 194.615C396.333 193.073 394.295 192.183 392.154 192.141ZM363.097 193.804H392.154C393.248 193.817 394.32 194.119 395.259 194.68C396.199 195.241 396.973 196.041 397.503 196.998L378.139 211.93C377.993 212.042 377.814 212.103 377.63 212.103C377.446 212.103 377.267 212.042 377.121 211.93L357.766 196.965C358.299 196.017 359.072 195.225 360.008 194.67C360.944 194.115 362.009 193.817 363.097 193.804ZM398.42 218.851C398.442 220.566 397.783 222.219 396.588 223.449C395.393 224.679 393.758 225.385 392.044 225.412H363.209C361.494 225.385 359.86 224.68 358.664 223.45C357.469 222.22 356.81 220.566 356.832 218.851V200.367C356.84 199.753 356.932 199.144 357.104 198.556L376.103 213.246C376.54 213.584 377.076 213.767 377.629 213.767C378.181 213.768 378.717 213.585 379.154 213.248L398.158 198.595C398.324 199.172 398.412 199.767 398.42 200.367V218.851Z" fill="#0F0F0F"/>
<rect y="244.543" width="103.14" height="103.14" fill="white" fill-opacity="0.7"/>
<path d="M114.177 302.641H112.913V294.656L110.824 295.734V294.416L112.926 293.325H114.177V302.641ZM119.176 295.76H117.832C118.032 294.27 119.269 293.125 121.106 293.125C122.836 293.125 124.14 294.137 124.14 295.773C124.14 297.038 123.595 297.85 121.918 299.447L119.788 301.469H124.1V302.641H118.058V301.469L121.093 298.555C122.357 297.344 122.836 296.692 122.836 295.787C122.836 294.842 122.184 294.203 121.079 294.203C120.028 294.203 119.283 294.789 119.176 295.76ZM129.591 293.325H130.922V299.793H132.426V300.884H130.922V302.641H129.685V300.884H125.599V299.699L129.591 293.325ZM127.023 299.793H129.685V295.388L127.023 299.793Z" fill="white" fill-opacity="0.95"/>
<path d="M603.261 302.641H601.997V294.656L599.908 295.734V294.416L602.01 293.325H603.261V302.641ZM608.26 295.76H606.916C607.116 294.27 608.353 293.125 610.19 293.125C611.92 293.125 613.224 294.137 613.224 295.773C613.224 297.038 612.679 297.85 611.002 299.447L608.872 301.469H613.184V302.641H607.142V301.469L610.177 298.555C611.441 297.344 611.92 296.692 611.92 295.787C611.92 294.842 611.268 294.203 610.163 294.203C609.112 294.203 608.367 294.789 608.26 295.76ZM618.675 293.325H620.006V299.793H621.51V300.884H620.006V302.641H618.769V300.884H614.683V299.699L618.675 293.325ZM616.107 299.793H618.769V295.388L616.107 299.793Z" fill="white" fill-opacity="0.95"/>
<rect x="151.383" y="244.543" width="103.14" height="103.14" fill="#9FEDD8"/>
<rect x="256.187" y="244.543" width="103.14" height="103.14" fill="#FFD4DA"/>
<rect x="360.991" y="244.543" width="103.14" height="103.14" fill="#FFD4DA"/>
<rect x="465.794" y="244.543" width="103.14" height="103.14" fill="#FFD4DA"/>
<path d="M517.369 299.336L556.18 269.433C556.361 269.291 556.51 269.112 556.617 268.908C556.724 268.705 556.787 268.481 556.802 268.252C556.816 268.022 556.782 267.792 556.702 267.576C556.622 267.361 556.497 267.165 556.336 267.001C554.949 265.517 553.273 264.332 551.412 263.519C549.551 262.705 547.543 262.28 545.512 262.27H489.217C487.203 262.28 485.211 262.698 483.362 263.499C481.514 264.3 479.847 265.466 478.461 266.929C478.299 267.093 478.173 267.289 478.091 267.504C478.01 267.72 477.975 267.95 477.989 268.18C478.003 268.411 478.066 268.635 478.172 268.839C478.279 269.044 478.428 269.223 478.609 269.365L517.369 299.336Z" fill="#0F0F0F"/>
<path d="M521.307 304.443C520.177 305.311 518.792 305.782 517.367 305.78C515.941 305.779 514.557 305.307 513.428 304.436L476.503 275.884C476.265 275.699 475.98 275.586 475.68 275.555C475.381 275.525 475.079 275.579 474.808 275.711C474.538 275.844 474.31 276.049 474.15 276.305C473.991 276.56 473.906 276.855 473.906 277.156L473.852 314.018C473.811 318.195 475.427 322.219 478.348 325.207C481.268 328.194 485.254 329.902 489.431 329.956H545.298C549.475 329.903 553.462 328.195 556.382 325.207C559.303 322.22 560.919 318.196 560.877 314.018L560.92 277.184C560.92 276.883 560.836 276.588 560.677 276.332C560.518 276.076 560.29 275.869 560.02 275.736C559.75 275.603 559.448 275.549 559.148 275.579C558.848 275.608 558.563 275.722 558.324 275.906L521.307 304.443Z" fill="#0F0F0F"/>
<path d="M440.709 260.659H384.411C379.835 260.741 375.478 262.635 372.296 265.924C369.114 269.214 367.367 273.632 367.437 278.208V314.021C367.396 318.626 369.182 323.059 372.405 326.348C375.628 329.638 380.024 331.515 384.628 331.567H440.495C445.099 331.514 449.495 329.637 452.717 326.348C455.94 323.059 457.726 318.626 457.685 314.021V278.208C457.755 273.631 456.007 269.214 452.825 265.924C449.642 262.634 445.285 260.741 440.709 260.659ZM384.411 267.105H440.709C442.308 267.122 443.882 267.512 445.304 268.244C446.726 268.976 447.958 270.029 448.902 271.321L412.567 299.336L376.262 271.266C377.207 269.991 378.434 268.951 379.848 268.229C381.262 267.507 382.824 267.122 384.411 267.105ZM451.238 314.021C451.282 316.917 450.175 319.711 448.161 321.792C446.147 323.873 443.39 325.07 440.495 325.121H384.628C381.733 325.07 378.976 323.872 376.962 321.792C374.948 319.711 373.841 316.917 373.883 314.021V278.208C373.883 278.005 373.93 277.816 373.94 277.616L408.626 304.436C409.755 305.307 411.139 305.779 412.564 305.78C413.989 305.782 415.375 305.311 416.505 304.443L451.189 277.698C451.197 277.871 451.238 278.033 451.238 278.208V314.021Z" fill="#0F0F0F"/>
<path d="M335.906 261.464H279.608C275.245 261.546 271.093 263.355 268.062 266.494C265.031 269.632 263.369 273.845 263.439 278.208V314.021C263.398 318.412 265.099 322.64 268.171 325.779C271.243 328.917 275.434 330.709 279.825 330.761H335.692C340.082 330.708 344.273 328.916 347.344 325.778C350.416 322.639 352.117 318.411 352.075 314.02V278.208C352.145 273.845 350.482 269.632 347.451 266.493C344.42 263.355 340.268 261.546 335.906 261.464ZM279.608 266.299H335.906C337.767 266.315 339.596 266.797 341.224 267.699C342.853 268.601 344.231 269.896 345.232 271.465L308.26 299.973C308.119 300.084 307.945 300.144 307.766 300.144C307.587 300.144 307.413 300.084 307.272 299.973L270.327 271.408C271.33 269.855 272.703 268.575 274.323 267.683C275.943 266.791 277.759 266.316 279.608 266.299ZM347.241 314.021C347.284 317.13 346.093 320.129 343.928 322.362C341.763 324.594 338.801 325.876 335.692 325.928H279.825C276.716 325.877 273.753 324.594 271.588 322.362C269.423 320.13 268.231 317.13 268.274 314.021V278.208C268.281 277.497 268.349 276.789 268.478 276.09L304.317 303.801C305.305 304.561 306.516 304.974 307.763 304.974C309.01 304.975 310.222 304.563 311.21 303.804L347.045 276.172C347.166 276.844 347.232 277.525 347.241 278.208V314.021Z" fill="#0F0F0F"/>
<path d="M231.102 262.27H174.804C170.655 262.353 166.708 264.077 163.829 267.064C160.949 270.052 159.371 274.059 159.441 278.208V314.021C159.4 318.198 161.016 322.222 163.937 325.209C166.858 328.196 170.844 329.903 175.021 329.956H230.888C235.065 329.903 239.051 328.196 241.971 325.209C244.891 322.222 246.508 318.198 246.466 314.021V278.208C246.535 274.059 244.957 270.051 242.077 267.064C239.197 264.076 235.25 262.352 231.102 262.27ZM174.804 265.493H231.102C233.222 265.518 235.297 266.104 237.117 267.191C238.938 268.278 240.438 269.827 241.466 271.682L203.948 300.612C203.665 300.829 203.318 300.947 202.962 300.947C202.605 300.947 202.258 300.829 201.975 300.612L164.474 271.617C165.507 269.779 167.005 268.246 168.818 267.171C170.632 266.096 172.696 265.517 174.804 265.493ZM243.242 314.021C243.285 317.344 242.008 320.548 239.692 322.93C237.376 325.313 234.21 326.681 230.888 326.733H175.021C171.698 326.681 168.531 325.314 166.215 322.931C163.899 320.548 162.622 317.344 162.664 314.021V278.208C162.68 277.02 162.858 275.839 163.193 274.699L200.004 303.162C200.85 303.816 201.889 304.171 202.958 304.172C204.028 304.172 205.068 303.818 205.914 303.165L242.735 274.776C243.056 275.892 243.226 277.046 243.242 278.208V314.021Z" fill="#0F0F0F"/>
<rect x="3.32725" y="356.001" width="99.8131" height="99.8131" fill="white" fill-opacity="0.7"/>
<path d="M114.177 411.603H112.913V403.618L110.824 404.696V403.379L112.926 402.287H114.177V411.603ZM119.176 404.723H117.832C118.032 403.232 119.269 402.088 121.106 402.088C122.836 402.088 124.14 403.099 124.14 404.736C124.14 406 123.595 406.812 121.918 408.409L119.788 410.432H124.1V411.603H118.058V410.432L121.093 407.518C122.357 406.307 122.836 405.654 122.836 404.749C122.836 403.805 122.184 403.166 121.079 403.166C120.028 403.166 119.283 403.751 119.176 404.723ZM129.006 411.803C127.116 411.803 125.679 410.259 125.679 406.919C125.679 403.485 127.129 402.088 129.006 402.088C130.882 402.088 132.333 403.485 132.333 406.919C132.333 410.259 130.896 411.803 129.006 411.803ZM129.006 410.738C130.363 410.738 131.029 409.527 131.029 406.919C131.029 404.324 130.363 403.152 129.006 403.152C127.648 403.152 126.983 404.324 126.983 406.919C126.983 409.527 127.648 410.738 129.006 410.738Z" fill="white" fill-opacity="0.95"/>
<path d="M603.261 411.603H601.997V403.618L599.908 404.696V403.379L602.01 402.287H603.261V411.603ZM608.26 404.723H606.916C607.116 403.232 608.353 402.088 610.19 402.088C611.92 402.088 613.224 403.099 613.224 404.736C613.224 406 612.679 406.812 611.002 408.409L608.872 410.432H613.184V411.603H607.142V410.432L610.177 407.518C611.441 406.307 611.92 405.654 611.92 404.749C611.92 403.805 611.268 403.166 610.163 403.166C609.112 403.166 608.367 403.751 608.26 404.723ZM618.09 411.803C616.2 411.803 614.763 410.259 614.763 406.919C614.763 403.485 616.213 402.088 618.09 402.088C619.966 402.088 621.417 403.485 621.417 406.919C621.417 410.259 619.98 411.803 618.09 411.803ZM618.09 410.738C619.447 410.738 620.113 409.527 620.113 406.919C620.113 404.324 619.447 403.152 618.09 403.152C616.732 403.152 616.067 404.324 616.067 406.919C616.067 409.527 616.732 410.738 618.09 410.738Z" fill="white" fill-opacity="0.95"/>
<rect x="164.692" y="356.001" width="99.8131" height="99.8131" fill="#9FEDD8"/>
<rect x="266.169" y="356.001" width="99.8131" height="99.8131" fill="#FFD4DA"/>
<rect x="367.645" y="356.001" width="99.8131" height="99.8131" fill="#FFD4DA"/>
<rect x="469.122" y="356.001" width="99.8131" height="99.8131" fill="#FFD4DA"/>
<path d="M519.033 409.027L556.592 380.088C556.767 379.951 556.911 379.778 557.015 379.581C557.118 379.384 557.179 379.167 557.193 378.945C557.207 378.723 557.175 378.5 557.097 378.292C557.019 378.083 556.899 377.893 556.743 377.735C555.4 376.299 553.779 375.152 551.977 374.365C550.176 373.578 548.233 373.167 546.268 373.157H491.789C489.839 373.166 487.912 373.571 486.123 374.346C484.334 375.121 482.721 376.25 481.38 377.665C481.223 377.824 481.101 378.013 481.022 378.222C480.943 378.431 480.91 378.654 480.923 378.876C480.937 379.099 480.997 379.316 481.101 379.514C481.204 379.711 481.348 379.885 481.523 380.023L519.033 409.027Z" fill="#0F0F0F"/>
<path d="M522.844 413.969C521.75 414.809 520.409 415.264 519.03 415.263C517.651 415.262 516.311 414.805 515.219 413.963L479.485 386.331C479.254 386.153 478.978 386.043 478.689 386.013C478.399 385.984 478.106 386.036 477.845 386.164C477.583 386.293 477.363 386.491 477.208 386.739C477.054 386.986 476.972 387.271 476.971 387.562L476.92 423.235C476.879 427.278 478.444 431.172 481.27 434.063C484.096 436.954 487.953 438.607 491.996 438.659H546.06C550.103 438.608 553.961 436.955 556.787 434.064C559.614 431.172 561.178 427.278 561.137 423.235L561.178 387.59C561.179 387.298 561.097 387.012 560.944 386.764C560.79 386.517 560.569 386.317 560.308 386.188C560.046 386.06 559.754 386.007 559.464 386.036C559.174 386.065 558.897 386.174 558.667 386.352L522.844 413.969Z" fill="#0F0F0F"/>
<path d="M444.792 371.597H390.31C385.881 371.677 381.665 373.509 378.586 376.693C375.507 379.877 373.815 384.151 373.883 388.58V423.238C373.843 427.694 375.572 431.984 378.691 435.168C381.81 438.351 386.064 440.167 390.52 440.218H444.585C449.04 440.167 453.294 438.35 456.412 435.167C459.531 431.984 461.26 427.694 461.22 423.238V388.58C461.287 384.151 459.596 379.876 456.516 376.692C453.437 373.509 449.22 371.676 444.792 371.597ZM390.31 377.835H444.792C446.339 377.852 447.862 378.23 449.238 378.938C450.615 379.646 451.807 380.665 452.721 381.915L417.557 409.027L382.423 381.862C383.338 380.628 384.526 379.622 385.894 378.923C387.262 378.224 388.774 377.852 390.31 377.835ZM454.981 423.238C455.023 426.04 453.952 428.744 452.003 430.758C450.054 432.772 447.386 433.93 444.585 433.98H390.52C387.718 433.93 385.05 432.772 383.101 430.758C381.152 428.744 380.08 426.04 380.122 423.238V388.58C380.122 388.384 380.166 388.201 380.176 388.008L413.744 413.963C414.836 414.805 416.176 415.262 417.555 415.263C418.934 415.264 420.275 414.809 421.368 413.969L454.934 388.087C454.941 388.254 454.981 388.411 454.981 388.58V423.238Z" fill="#0F0F0F"/>
<path d="M343.315 372.377H288.834C284.612 372.456 280.594 374.207 277.661 377.244C274.728 380.282 273.119 384.358 273.187 388.58V423.238C273.146 427.488 274.793 431.58 277.766 434.617C280.739 437.654 284.794 439.388 289.044 439.439H343.108C347.358 439.388 351.413 437.653 354.385 434.616C357.357 431.578 359.004 427.486 358.963 423.237V388.58C359.031 384.358 357.422 380.282 354.489 377.244C351.555 374.207 347.537 372.456 343.315 372.377ZM288.834 377.056H343.315C345.117 377.072 346.886 377.537 348.463 378.411C350.039 379.284 351.372 380.537 352.341 382.056L316.562 409.644C316.426 409.751 316.257 409.809 316.084 409.809C315.91 409.809 315.742 409.751 315.605 409.644L279.852 382C280.823 380.497 282.152 379.258 283.719 378.395C285.287 377.532 287.044 377.072 288.834 377.056ZM354.285 423.238C354.327 426.247 353.174 429.15 351.079 431.31C348.984 433.47 346.118 434.711 343.109 434.761H289.044C286.035 434.712 283.168 433.471 281.072 431.311C278.977 429.151 277.824 426.248 277.865 423.238V388.58C277.872 387.893 277.938 387.207 278.063 386.531L312.746 413.348C313.702 414.084 314.874 414.483 316.081 414.484C317.287 414.484 318.46 414.086 319.417 413.351L354.095 386.611C354.213 387.261 354.276 387.92 354.285 388.58V423.238Z" fill="#0F0F0F"/>
<path d="M241.839 373.157H187.357C183.342 373.236 179.523 374.905 176.736 377.796C173.949 380.687 172.422 384.565 172.49 388.58V423.238C172.45 427.281 174.014 431.174 176.841 434.065C179.667 436.956 183.524 438.608 187.567 438.659H241.631C245.674 438.608 249.531 436.956 252.357 434.065C255.183 431.174 256.748 427.281 256.707 423.238V388.58C256.775 384.565 255.247 380.687 252.46 377.796C249.673 374.904 245.854 373.236 241.839 373.157ZM187.357 376.276H241.839C243.89 376.3 245.899 376.867 247.66 377.919C249.422 378.97 250.874 380.47 251.868 382.265L215.561 410.261C215.287 410.472 214.952 410.586 214.606 410.586C214.261 410.586 213.925 410.472 213.651 410.261L177.36 382.202C178.36 380.424 179.81 378.94 181.564 377.899C183.319 376.859 185.317 376.299 187.357 376.276ZM253.588 423.238C253.629 426.454 252.394 429.554 250.152 431.86C247.911 434.166 244.847 435.489 241.631 435.54H187.567C184.351 435.49 181.287 434.167 179.045 431.861C176.803 429.555 175.568 426.454 175.609 423.238V388.58C175.624 387.43 175.796 386.288 176.12 385.185L211.744 412.729C212.562 413.362 213.568 413.706 214.603 413.707C215.638 413.707 216.644 413.364 217.464 412.732L253.097 385.259C253.407 386.339 253.572 387.456 253.588 388.58V423.238Z" fill="#0F0F0F"/>
</svg>
