<svg width="1150" height="224" viewBox="0 0 1150 224" fill="none" xmlns="http://www.w3.org/2000/svg">
<path fill-rule="evenodd" clip-rule="evenodd" d="M515.6 82.0795V101.329C526.638 101.815 535.257 110.99 534.994 121.973C534.731 132.956 525.681 141.713 514.633 141.675H494.335V122.45H475V82.0795H515.6ZM478.3 84.0025L495.302 100.908L512.299 84.0025H478.3ZM513.682 85.3613V101.305H497.635L513.682 85.3613ZM513.666 103.24H496.285L496.269 120.527H513.666V103.24ZM476.934 120.527V85.3613L494.335 102.664V120.543L476.934 120.527ZM496.252 139.752H514.616C524.435 139.559 532.366 131.723 532.625 121.961C532.884 112.199 525.379 103.96 515.583 103.252V122.45H496.252V139.752Z" fill="white" fill-opacity="0.95"/>
<path d="M659.392 104.866H657.067V92.3618H658.98L659.222 93.8287C660.077 92.6103 661.312 92.0011 662.926 92.0011C664.686 92.0011 665.92 92.6584 666.63 93.973C667.47 92.6584 668.834 92.0011 670.722 92.0011C672.126 92.0011 673.208 92.4259 673.966 93.2756C674.644 94.0611 674.983 95.1353 674.983 96.4979V104.866H672.659V96.6663C672.659 94.8707 671.844 93.973 670.214 93.973C669.245 93.973 668.47 94.3497 667.889 95.1032C667.421 95.7124 667.187 96.4258 667.187 97.2434V104.866H664.863V96.6663C664.863 94.8707 664.048 93.973 662.418 93.973C661.514 93.973 660.763 94.3257 660.166 95.031C659.65 95.6242 659.392 96.3376 659.392 97.1713V104.866Z" fill="white" fill-opacity="0.95"/>
<path d="M643.304 92.3618H645.628V100.562C645.628 102.358 646.5 103.255 648.243 103.255C649.308 103.255 650.123 102.879 650.688 102.125C651.124 101.548 651.342 100.835 651.342 99.9848V92.3618H653.666V104.866H651.754L651.487 103.424C650.6 104.626 649.341 105.227 647.71 105.227C646.274 105.227 645.168 104.786 644.394 103.905C643.667 103.087 643.304 101.957 643.304 100.514V92.3618Z" fill="white" fill-opacity="0.95"/>
<path d="M641.24 103.015V104.987C640.643 105.147 640.07 105.227 639.521 105.227C638.359 105.227 637.487 104.866 636.906 104.145C636.406 103.552 636.156 102.758 636.156 101.764V94.3337H634.291V92.3618H636.156L636.301 89.3558H638.48V92.3618H641.191V94.3337H638.48V101.812C638.48 102.742 638.924 103.207 639.811 103.207C640.231 103.207 640.707 103.143 641.24 103.015Z" fill="white" fill-opacity="0.95"/>
<path d="M624.211 104.866H621.886V92.3618H623.799L624.065 93.9489C625.001 92.6503 626.277 92.0011 627.891 92.0011C629.376 92.0011 630.513 92.458 631.304 93.3718C631.998 94.1894 632.345 95.3036 632.345 96.7144V104.866H630.021V96.7384C630.021 94.8948 629.125 93.973 627.334 93.973C626.398 93.973 625.631 94.2936 625.034 94.9349C624.485 95.512 624.211 96.2495 624.211 97.1472V104.866Z" fill="white" fill-opacity="0.95"/>
<path d="M616.437 101.259H618.954C618.599 102.526 617.897 103.52 616.848 104.241C615.864 104.899 614.685 105.227 613.313 105.227C611.328 105.227 609.779 104.602 608.665 103.351C607.648 102.181 607.14 100.602 607.14 98.6141C607.14 96.3537 607.785 94.6383 609.077 93.468C610.142 92.49 611.514 92.0011 613.192 92.0011C615.161 92.0011 616.646 92.6343 617.647 93.9008C618.615 95.1192 619.1 96.8587 619.1 99.1191H609.512C609.609 100.594 610.061 101.692 610.868 102.414C611.53 102.991 612.369 103.279 613.386 103.279C614.177 103.279 614.863 103.063 615.444 102.63C615.928 102.261 616.259 101.804 616.437 101.259ZM613.241 93.8527C612.208 93.8527 611.377 94.1734 610.747 94.8146C610.15 95.4078 609.771 96.2334 609.609 97.2915H616.727C616.646 96.0891 616.243 95.1914 615.517 94.5982C614.935 94.1012 614.177 93.8527 613.241 93.8527Z" fill="white" fill-opacity="0.95"/>
<path d="M589.006 104.866H586.682V92.3618H588.594L588.837 93.8287C589.692 92.6103 590.927 92.0011 592.541 92.0011C594.3 92.0011 595.535 92.6584 596.245 93.973C597.084 92.6584 598.448 92.0011 600.337 92.0011C601.741 92.0011 602.822 92.4259 603.581 93.2756C604.259 94.0611 604.598 95.1353 604.598 96.4979V104.866H602.273V96.6663C602.273 94.8707 601.458 93.973 599.828 93.973C598.86 93.973 598.085 94.3497 597.504 95.1032C597.036 95.7124 596.802 96.4258 596.802 97.2434V104.866H594.478V96.6663C594.478 94.8707 593.663 93.973 592.032 93.973C591.128 93.973 590.378 94.3257 589.781 95.031C589.264 95.6242 589.006 96.3376 589.006 97.1713V104.866Z" fill="white" fill-opacity="0.95"/>
<path d="M571.604 98.6141C571.604 96.3216 572.29 94.5902 573.662 93.4199C574.76 92.474 576.148 92.0011 577.826 92.0011C579.779 92.0011 581.313 92.6183 582.426 93.8527C583.492 95.007 584.024 96.5941 584.024 98.6141C584.024 100.875 583.354 102.598 582.015 103.784C580.917 104.746 579.513 105.227 577.802 105.227C575.849 105.227 574.308 104.586 573.178 103.303C572.129 102.133 571.604 100.57 571.604 98.6141ZM574.025 98.6141C574.025 100.217 574.437 101.444 575.26 102.293C575.938 102.999 576.801 103.351 577.85 103.351C579.077 103.351 580.021 102.895 580.683 101.981C581.296 101.147 581.603 100.025 581.603 98.6141C581.603 96.9789 581.2 95.7445 580.393 94.9108C579.731 94.2214 578.875 93.8768 577.826 93.8768C576.616 93.8768 575.672 94.3337 574.994 95.2475C574.348 96.0811 574.025 97.2033 574.025 98.6141Z" fill="white" fill-opacity="0.95"/>
<path d="M553.47 104.866H551.146V92.3618H553.059L553.301 93.8287C554.156 92.6103 555.391 92.0011 557.005 92.0011C558.764 92.0011 559.999 92.6584 560.709 93.973C561.549 92.6584 562.913 92.0011 564.801 92.0011C566.205 92.0011 567.287 92.4259 568.045 93.2756C568.723 94.0611 569.062 95.1353 569.062 96.4979V104.866H566.738V96.6663C566.738 94.8707 565.923 93.973 564.293 93.973C563.324 93.973 562.549 94.3497 561.968 95.1032C561.5 95.7124 561.266 96.4258 561.266 97.2434V104.866H558.942V96.6663C558.942 94.8707 558.127 93.973 556.497 93.973C555.593 93.973 554.842 94.3257 554.245 95.031C553.729 95.6242 553.47 96.3376 553.47 97.1713V104.866Z" fill="white" fill-opacity="0.95"/>
<path d="M615.084 126.22H612.76V113.715H614.673L614.939 115.302C615.875 114.004 617.15 113.354 618.764 113.354C620.249 113.354 621.387 113.811 622.178 114.725C622.872 115.543 623.219 116.657 623.219 118.068V126.22H620.895V118.092C620.895 116.248 619.999 115.326 618.208 115.326C617.271 115.326 616.505 115.647 615.908 116.288C615.359 116.865 615.084 117.603 615.084 118.5V126.22Z" fill="white" fill-opacity="0.95"/>
<path d="M597.862 127.061H600.355C600.468 127.703 600.791 128.2 601.324 128.552C601.872 128.905 602.591 129.081 603.478 129.081C604.721 129.081 605.649 128.761 606.263 128.119C606.779 127.574 607.037 126.813 607.037 125.835V124.224C606.101 125.314 604.705 125.859 602.849 125.859C601.17 125.859 599.806 125.258 598.757 124.055C597.773 122.933 597.281 121.474 597.281 119.679C597.281 117.595 597.878 115.983 599.072 114.845C600.089 113.851 601.396 113.354 602.994 113.354C604.802 113.354 606.166 114.028 607.086 115.374L607.449 113.715H609.362V125.955C609.362 127.526 608.789 128.761 607.643 129.658C606.61 130.492 605.246 130.909 603.551 130.909C601.792 130.909 600.412 130.516 599.411 129.731C598.572 129.073 598.055 128.184 597.862 127.061ZM599.702 119.727C599.702 121.09 600.105 122.156 600.912 122.925C601.574 123.566 602.389 123.887 603.357 123.887C604.632 123.887 605.609 123.47 606.287 122.637C606.868 121.931 607.158 120.985 607.158 119.799C607.158 118.276 606.763 117.114 605.972 116.312C605.31 115.655 604.439 115.326 603.357 115.326C602.163 115.326 601.243 115.735 600.597 116.553C600 117.322 599.702 118.38 599.702 119.727Z" fill="white" fill-opacity="0.95"/>
<path d="M594.755 111.623H592.14V108.905H594.755V111.623ZM594.609 126.22H592.285V113.715H594.609V126.22Z" fill="white" fill-opacity="0.95"/>
<path d="M587.28 122.829C587.28 122.124 586.909 121.595 586.166 121.242C585.73 121.049 584.883 120.809 583.624 120.52C582.075 120.184 580.969 119.695 580.307 119.054C579.758 118.508 579.484 117.795 579.484 116.913C579.484 115.743 579.96 114.845 580.913 114.22C581.768 113.643 582.922 113.354 584.375 113.354C585.876 113.354 587.094 113.723 588.03 114.46C588.837 115.102 589.338 115.951 589.531 117.009H587.159C586.884 115.791 585.948 115.182 584.35 115.182C583.463 115.182 582.801 115.342 582.365 115.663C582.01 115.935 581.833 116.28 581.833 116.697C581.833 117.21 582.026 117.595 582.414 117.851C582.817 118.108 583.6 118.364 584.762 118.621C586.537 119.005 587.772 119.478 588.466 120.039C589.241 120.665 589.628 121.538 589.628 122.661C589.628 123.911 589.112 124.897 588.079 125.618C587.143 126.26 585.908 126.58 584.375 126.58C582.696 126.58 581.364 126.18 580.38 125.378C579.524 124.673 579.048 123.759 578.951 122.637H581.324C581.582 124.047 582.607 124.753 584.399 124.753C585.367 124.753 586.118 124.544 586.65 124.128C587.07 123.791 587.28 123.358 587.28 122.829Z" fill="white" fill-opacity="0.95"/>
<path d="M574.47 122.613H576.988C576.633 123.879 575.931 124.873 574.882 125.594C573.897 126.252 572.719 126.58 571.347 126.58C569.362 126.58 567.812 125.955 566.698 124.705C565.682 123.534 565.173 121.955 565.173 119.967C565.173 117.707 565.819 115.991 567.11 114.821C568.175 113.843 569.547 113.354 571.226 113.354C573.195 113.354 574.68 113.988 575.681 115.254C576.649 116.472 577.133 118.212 577.133 120.472H567.546C567.643 121.947 568.095 123.045 568.902 123.767C569.563 124.344 570.403 124.633 571.42 124.633C572.21 124.633 572.896 124.416 573.477 123.983C573.962 123.615 574.293 123.158 574.47 122.613ZM571.274 115.206C570.241 115.206 569.41 115.527 568.781 116.168C568.183 116.761 567.804 117.587 567.643 118.645H574.761C574.68 117.442 574.276 116.545 573.55 115.951C572.969 115.454 572.21 115.206 571.274 115.206Z" fill="white" fill-opacity="0.95"/>
<path d="M562.501 126.22H560.588L560.177 124.464C559.208 125.875 557.812 126.58 555.988 126.58C554.229 126.58 552.841 125.947 551.824 124.681C550.888 123.51 550.42 121.963 550.42 120.039C550.42 117.715 551.017 115.967 552.212 114.797C553.212 113.835 554.52 113.354 556.134 113.354C557.877 113.354 559.224 114.004 560.177 115.302V108.905H562.501V126.22ZM552.841 120.088C552.841 121.643 553.228 122.821 554.003 123.623C554.649 124.28 555.48 124.608 556.497 124.608C557.756 124.608 558.732 124.136 559.426 123.19C560.007 122.372 560.298 121.346 560.298 120.112C560.298 118.492 559.91 117.258 559.136 116.408C558.474 115.687 557.594 115.326 556.497 115.326C555.27 115.326 554.342 115.767 553.713 116.649C553.132 117.45 552.841 118.597 552.841 120.088Z" fill="white" fill-opacity="0.95"/>
</svg>
