<svg width="332" height="446" viewBox="0 0 332 446" fill="none" xmlns="http://www.w3.org/2000/svg">
<rect width="332" height="50" rx="25" fill="white" fill-opacity="0.07"/>
<path d="M61.8906 21H60.5781V15.8906H54.7812V21H53.4688V9.79688H54.7812V14.7109H60.5781V9.79688H61.8906V21ZM68 21.1875C66.8177 21.1875 65.8724 20.8151 65.1641 20.0703C64.4609 19.3203 64.1094 18.3281 64.1094 17.0938C64.1094 15.75 64.4766 14.7005 65.2109 13.9453C65.9453 13.1901 66.9375 12.8125 68.1875 12.8125C69.3802 12.8125 70.3099 13.1797 70.9766 13.9141C71.6484 14.6484 71.9844 15.6667 71.9844 16.9688C71.9844 18.2448 71.6224 19.2682 70.8984 20.0391C70.1797 20.8047 69.2135 21.1875 68 21.1875ZM68.0938 13.8906C67.2708 13.8906 66.6198 14.1719 66.1406 14.7344C65.6615 15.2917 65.4219 16.0625 65.4219 17.0469C65.4219 17.9948 65.6641 18.7422 66.1484 19.2891C66.6328 19.8359 67.2812 20.1094 68.0938 20.1094C68.9219 20.1094 69.5573 19.8411 70 19.3047C70.4479 18.7682 70.6719 18.0052 70.6719 17.0156C70.6719 16.0156 70.4479 15.2448 70 14.7031C69.5573 14.1615 68.9219 13.8906 68.0938 13.8906ZM80.3203 13L77.1328 21H75.875L72.8438 13H74.25L76.2812 18.8125C76.4323 19.2396 76.526 19.612 76.5625 19.9297H76.5938C76.6458 19.5286 76.7292 19.1667 76.8438 18.8438L78.9688 13H80.3203ZM88.0391 17.3203H82.3906C82.4115 18.2109 82.651 18.8984 83.1094 19.3828C83.5677 19.8672 84.1979 20.1094 85 20.1094C85.901 20.1094 86.7292 19.8125 87.4844 19.2188V20.4219C86.7812 20.9323 85.8516 21.1875 84.6953 21.1875C83.5651 21.1875 82.6771 20.8255 82.0312 20.1016C81.3854 19.3724 81.0625 18.349 81.0625 17.0312C81.0625 15.7865 81.4141 14.7734 82.1172 13.9922C82.8255 13.2057 83.7031 12.8125 84.75 12.8125C85.7969 12.8125 86.6068 13.151 87.1797 13.8281C87.7526 14.5052 88.0391 15.4453 88.0391 16.6484V17.3203ZM86.7266 16.2344C86.7214 15.4948 86.5417 14.9193 86.1875 14.5078C85.8385 14.0964 85.3516 13.8906 84.7266 13.8906C84.1224 13.8906 83.6094 14.1068 83.1875 14.5391C82.7656 14.9714 82.5052 15.5365 82.4062 16.2344H86.7266ZM94.1562 14.2969C93.9323 14.125 93.6094 14.0391 93.1875 14.0391C92.6406 14.0391 92.1823 14.2969 91.8125 14.8125C91.4479 15.3281 91.2656 16.0312 91.2656 16.9219V21H89.9844V13H91.2656V14.6484H91.2969C91.4792 14.0859 91.7578 13.6484 92.1328 13.3359C92.5078 13.0182 92.9271 12.8594 93.3906 12.8594C93.724 12.8594 93.9792 12.8958 94.1562 12.9688V14.2969Z" fill="white" fill-opacity="0.7"/>
<path d="M59.082 33.2363H56.252V42H55.1035V33.2363H52.2803V32.1973H59.082V33.2363ZM64.6533 38.7803H59.7109C59.7292 39.5596 59.9388 40.1611 60.3398 40.585C60.7409 41.0088 61.2923 41.2207 61.9941 41.2207C62.7826 41.2207 63.5072 40.9609 64.168 40.4414V41.4941C63.5527 41.9408 62.7393 42.1641 61.7275 42.1641C60.7386 42.1641 59.9616 41.8473 59.3965 41.2139C58.8314 40.5758 58.5488 39.6803 58.5488 38.5273C58.5488 37.4382 58.8564 36.5518 59.4717 35.8682C60.0915 35.18 60.8594 34.8359 61.7754 34.8359C62.6914 34.8359 63.4001 35.1322 63.9014 35.7246C64.4027 36.3171 64.6533 37.1396 64.6533 38.1924V38.7803ZM63.5049 37.8301C63.5003 37.1829 63.3431 36.6794 63.0332 36.3193C62.7279 35.9593 62.3018 35.7793 61.7549 35.7793C61.2262 35.7793 60.7773 35.9684 60.4082 36.3467C60.0391 36.7249 59.8112 37.2194 59.7246 37.8301H63.5049ZM71.3662 42H70.2451V40.9062H70.2178C69.7301 41.7448 69.0124 42.1641 68.0645 42.1641C67.3672 42.1641 66.8203 41.9795 66.4238 41.6104C66.0319 41.2412 65.8359 40.7513 65.8359 40.1406C65.8359 38.8327 66.6061 38.0716 68.1465 37.8574L70.2451 37.5635C70.2451 36.374 69.7643 35.7793 68.8027 35.7793C67.9596 35.7793 67.1986 36.0664 66.5195 36.6406V35.4922C67.2077 35.0547 68.0007 34.8359 68.8984 34.8359C70.5436 34.8359 71.3662 35.7064 71.3662 37.4473V42ZM70.2451 38.459L68.5566 38.6914C68.0371 38.7643 67.6452 38.8942 67.3809 39.0811C67.1165 39.2633 66.9844 39.5892 66.9844 40.0586C66.9844 40.4004 67.1051 40.6807 67.3467 40.8994C67.5928 41.1136 67.9186 41.2207 68.3242 41.2207C68.8802 41.2207 69.3382 41.027 69.6982 40.6396C70.0628 40.2477 70.2451 39.7533 70.2451 39.1562V38.459ZM83.418 42H82.2969V37.9805C82.2969 37.2057 82.1761 36.6452 81.9346 36.2988C81.6976 35.9525 81.2965 35.7793 80.7314 35.7793C80.2529 35.7793 79.8451 35.998 79.5078 36.4355C79.1751 36.873 79.0088 37.3971 79.0088 38.0078V42H77.8877V37.8438C77.8877 36.4674 77.3568 35.7793 76.2949 35.7793C75.8027 35.7793 75.3971 35.9867 75.0781 36.4014C74.7591 36.8115 74.5996 37.347 74.5996 38.0078V42H73.4785V35H74.5996V36.1074H74.627C75.1237 35.2598 75.8483 34.8359 76.8008 34.8359C77.2793 34.8359 77.6963 34.9704 78.0518 35.2393C78.4072 35.5036 78.651 35.8522 78.7832 36.2852C79.3027 35.319 80.0775 34.8359 81.1074 34.8359C82.6478 34.8359 83.418 35.7861 83.418 37.6865V42Z" fill="#5EBFF7"/>
<rect x="8" y="9" width="32" height="32" rx="16" fill="#08599C"/>
<path d="M29.2637 31H27.6504V24.6562C27.6504 24.1367 27.6823 23.501 27.7461 22.749H27.7188C27.6185 23.1774 27.5296 23.485 27.4521 23.6719L24.5264 31H23.4053L20.4727 23.7266C20.3906 23.5124 20.304 23.1865 20.2129 22.749H20.1855C20.222 23.141 20.2402 23.7812 20.2402 24.6699V31H18.7363V21.1973H21.0264L23.6035 27.7256C23.7995 28.2269 23.9271 28.6006 23.9863 28.8467H24.0205C24.1891 28.3317 24.3258 27.9489 24.4307 27.6982L27.0557 21.1973H29.2637V31Z" fill="white" fill-opacity="0.95"/>
<rect y="66" width="332" height="50" rx="25" fill="white" fill-opacity="0.07"/>
<path d="M61.8906 87H60.5781V81.8906H54.7812V87H53.4688V75.7969H54.7812V80.7109H60.5781V75.7969H61.8906V87ZM68 87.1875C66.8177 87.1875 65.8724 86.8151 65.1641 86.0703C64.4609 85.3203 64.1094 84.3281 64.1094 83.0938C64.1094 81.75 64.4766 80.7005 65.2109 79.9453C65.9453 79.1901 66.9375 78.8125 68.1875 78.8125C69.3802 78.8125 70.3099 79.1797 70.9766 79.9141C71.6484 80.6484 71.9844 81.6667 71.9844 82.9688C71.9844 84.2448 71.6224 85.2682 70.8984 86.0391C70.1797 86.8047 69.2135 87.1875 68 87.1875ZM68.0938 79.8906C67.2708 79.8906 66.6198 80.1719 66.1406 80.7344C65.6615 81.2917 65.4219 82.0625 65.4219 83.0469C65.4219 83.9948 65.6641 84.7422 66.1484 85.2891C66.6328 85.8359 67.2812 86.1094 68.0938 86.1094C68.9219 86.1094 69.5573 85.8411 70 85.3047C70.4479 84.7682 70.6719 84.0052 70.6719 83.0156C70.6719 82.0156 70.4479 81.2448 70 80.7031C69.5573 80.1615 68.9219 79.8906 68.0938 79.8906ZM80.3203 79L77.1328 87H75.875L72.8438 79H74.25L76.2812 84.8125C76.4323 85.2396 76.526 85.612 76.5625 85.9297H76.5938C76.6458 85.5286 76.7292 85.1667 76.8438 84.8438L78.9688 79H80.3203ZM88.0391 83.3203H82.3906C82.4115 84.2109 82.651 84.8984 83.1094 85.3828C83.5677 85.8672 84.1979 86.1094 85 86.1094C85.901 86.1094 86.7292 85.8125 87.4844 85.2188V86.4219C86.7812 86.9323 85.8516 87.1875 84.6953 87.1875C83.5651 87.1875 82.6771 86.8255 82.0312 86.1016C81.3854 85.3724 81.0625 84.349 81.0625 83.0312C81.0625 81.7865 81.4141 80.7734 82.1172 79.9922C82.8255 79.2057 83.7031 78.8125 84.75 78.8125C85.7969 78.8125 86.6068 79.151 87.1797 79.8281C87.7526 80.5052 88.0391 81.4453 88.0391 82.6484V83.3203ZM86.7266 82.2344C86.7214 81.4948 86.5417 80.9193 86.1875 80.5078C85.8385 80.0964 85.3516 79.8906 84.7266 79.8906C84.1224 79.8906 83.6094 80.1068 83.1875 80.5391C82.7656 80.9714 82.5052 81.5365 82.4062 82.2344H86.7266ZM94.1562 80.2969C93.9323 80.125 93.6094 80.0391 93.1875 80.0391C92.6406 80.0391 92.1823 80.2969 91.8125 80.8125C91.4479 81.3281 91.2656 82.0312 91.2656 82.9219V87H89.9844V79H91.2656V80.6484H91.2969C91.4792 80.0859 91.7578 79.6484 92.1328 79.3359C92.5078 79.0182 92.9271 78.8594 93.3906 78.8594C93.724 78.8594 93.9792 78.8958 94.1562 78.9688V80.2969Z" fill="white" fill-opacity="0.7"/>
<path d="M59.082 99.2363H56.252V108H55.1035V99.2363H52.2803V98.1973H59.082V99.2363ZM64.6533 104.78H59.7109C59.7292 105.56 59.9388 106.161 60.3398 106.585C60.7409 107.009 61.2923 107.221 61.9941 107.221C62.7826 107.221 63.5072 106.961 64.168 106.441V107.494C63.5527 107.941 62.7393 108.164 61.7275 108.164C60.7386 108.164 59.9616 107.847 59.3965 107.214C58.8314 106.576 58.5488 105.68 58.5488 104.527C58.5488 103.438 58.8564 102.552 59.4717 101.868C60.0915 101.18 60.8594 100.836 61.7754 100.836C62.6914 100.836 63.4001 101.132 63.9014 101.725C64.4027 102.317 64.6533 103.14 64.6533 104.192V104.78ZM63.5049 103.83C63.5003 103.183 63.3431 102.679 63.0332 102.319C62.7279 101.959 62.3018 101.779 61.7549 101.779C61.2262 101.779 60.7773 101.968 60.4082 102.347C60.0391 102.725 59.8112 103.219 59.7246 103.83H63.5049ZM71.3662 108H70.2451V106.906H70.2178C69.7301 107.745 69.0124 108.164 68.0645 108.164C67.3672 108.164 66.8203 107.979 66.4238 107.61C66.0319 107.241 65.8359 106.751 65.8359 106.141C65.8359 104.833 66.6061 104.072 68.1465 103.857L70.2451 103.563C70.2451 102.374 69.7643 101.779 68.8027 101.779C67.9596 101.779 67.1986 102.066 66.5195 102.641V101.492C67.2077 101.055 68.0007 100.836 68.8984 100.836C70.5436 100.836 71.3662 101.706 71.3662 103.447V108ZM70.2451 104.459L68.5566 104.691C68.0371 104.764 67.6452 104.894 67.3809 105.081C67.1165 105.263 66.9844 105.589 66.9844 106.059C66.9844 106.4 67.1051 106.681 67.3467 106.899C67.5928 107.114 67.9186 107.221 68.3242 107.221C68.8802 107.221 69.3382 107.027 69.6982 106.64C70.0628 106.248 70.2451 105.753 70.2451 105.156V104.459ZM83.418 108H82.2969V103.98C82.2969 103.206 82.1761 102.645 81.9346 102.299C81.6976 101.952 81.2965 101.779 80.7314 101.779C80.2529 101.779 79.8451 101.998 79.5078 102.436C79.1751 102.873 79.0088 103.397 79.0088 104.008V108H77.8877V103.844C77.8877 102.467 77.3568 101.779 76.2949 101.779C75.8027 101.779 75.3971 101.987 75.0781 102.401C74.7591 102.812 74.5996 103.347 74.5996 104.008V108H73.4785V101H74.5996V102.107H74.627C75.1237 101.26 75.8483 100.836 76.8008 100.836C77.2793 100.836 77.6963 100.97 78.0518 101.239C78.4072 101.504 78.651 101.852 78.7832 102.285C79.3027 101.319 80.0775 100.836 81.1074 100.836C82.6478 100.836 83.418 101.786 83.418 103.687V108Z" fill="#22C7D6"/>
<rect x="8" y="75" width="32" height="32" rx="16" fill="#066070"/>
<path d="M29.2637 97H27.6504V90.6562C27.6504 90.1367 27.6823 89.501 27.7461 88.749H27.7188C27.6185 89.1774 27.5296 89.485 27.4521 89.6719L24.5264 97H23.4053L20.4727 89.7266C20.3906 89.5124 20.304 89.1865 20.2129 88.749H20.1855C20.222 89.141 20.2402 89.7812 20.2402 90.6699V97H18.7363V87.1973H21.0264L23.6035 93.7256C23.7995 94.2269 23.9271 94.6006 23.9863 94.8467H24.0205C24.1891 94.3317 24.3258 93.9489 24.4307 93.6982L27.0557 87.1973H29.2637V97Z" fill="white" fill-opacity="0.95"/>
<rect y="132" width="332" height="50" rx="25" fill="white" fill-opacity="0.07"/>
<path d="M61.8906 153H60.5781V147.891H54.7812V153H53.4688V141.797H54.7812V146.711H60.5781V141.797H61.8906V153ZM68 153.188C66.8177 153.188 65.8724 152.815 65.1641 152.07C64.4609 151.32 64.1094 150.328 64.1094 149.094C64.1094 147.75 64.4766 146.701 65.2109 145.945C65.9453 145.19 66.9375 144.812 68.1875 144.812C69.3802 144.812 70.3099 145.18 70.9766 145.914C71.6484 146.648 71.9844 147.667 71.9844 148.969C71.9844 150.245 71.6224 151.268 70.8984 152.039C70.1797 152.805 69.2135 153.188 68 153.188ZM68.0938 145.891C67.2708 145.891 66.6198 146.172 66.1406 146.734C65.6615 147.292 65.4219 148.062 65.4219 149.047C65.4219 149.995 65.6641 150.742 66.1484 151.289C66.6328 151.836 67.2812 152.109 68.0938 152.109C68.9219 152.109 69.5573 151.841 70 151.305C70.4479 150.768 70.6719 150.005 70.6719 149.016C70.6719 148.016 70.4479 147.245 70 146.703C69.5573 146.161 68.9219 145.891 68.0938 145.891ZM80.3203 145L77.1328 153H75.875L72.8438 145H74.25L76.2812 150.812C76.4323 151.24 76.526 151.612 76.5625 151.93H76.5938C76.6458 151.529 76.7292 151.167 76.8438 150.844L78.9688 145H80.3203ZM88.0391 149.32H82.3906C82.4115 150.211 82.651 150.898 83.1094 151.383C83.5677 151.867 84.1979 152.109 85 152.109C85.901 152.109 86.7292 151.812 87.4844 151.219V152.422C86.7812 152.932 85.8516 153.188 84.6953 153.188C83.5651 153.188 82.6771 152.826 82.0312 152.102C81.3854 151.372 81.0625 150.349 81.0625 149.031C81.0625 147.786 81.4141 146.773 82.1172 145.992C82.8255 145.206 83.7031 144.812 84.75 144.812C85.7969 144.812 86.6068 145.151 87.1797 145.828C87.7526 146.505 88.0391 147.445 88.0391 148.648V149.32ZM86.7266 148.234C86.7214 147.495 86.5417 146.919 86.1875 146.508C85.8385 146.096 85.3516 145.891 84.7266 145.891C84.1224 145.891 83.6094 146.107 83.1875 146.539C82.7656 146.971 82.5052 147.536 82.4062 148.234H86.7266ZM94.1562 146.297C93.9323 146.125 93.6094 146.039 93.1875 146.039C92.6406 146.039 92.1823 146.297 91.8125 146.812C91.4479 147.328 91.2656 148.031 91.2656 148.922V153H89.9844V145H91.2656V146.648H91.2969C91.4792 146.086 91.7578 145.648 92.1328 145.336C92.5078 145.018 92.9271 144.859 93.3906 144.859C93.724 144.859 93.9792 144.896 94.1562 144.969V146.297Z" fill="white" fill-opacity="0.7"/>
<path d="M59.082 165.236H56.252V174H55.1035V165.236H52.2803V164.197H59.082V165.236ZM64.6533 170.78H59.7109C59.7292 171.56 59.9388 172.161 60.3398 172.585C60.7409 173.009 61.2923 173.221 61.9941 173.221C62.7826 173.221 63.5072 172.961 64.168 172.441V173.494C63.5527 173.941 62.7393 174.164 61.7275 174.164C60.7386 174.164 59.9616 173.847 59.3965 173.214C58.8314 172.576 58.5488 171.68 58.5488 170.527C58.5488 169.438 58.8564 168.552 59.4717 167.868C60.0915 167.18 60.8594 166.836 61.7754 166.836C62.6914 166.836 63.4001 167.132 63.9014 167.725C64.4027 168.317 64.6533 169.14 64.6533 170.192V170.78ZM63.5049 169.83C63.5003 169.183 63.3431 168.679 63.0332 168.319C62.7279 167.959 62.3018 167.779 61.7549 167.779C61.2262 167.779 60.7773 167.968 60.4082 168.347C60.0391 168.725 59.8112 169.219 59.7246 169.83H63.5049ZM71.3662 174H70.2451V172.906H70.2178C69.7301 173.745 69.0124 174.164 68.0645 174.164C67.3672 174.164 66.8203 173.979 66.4238 173.61C66.0319 173.241 65.8359 172.751 65.8359 172.141C65.8359 170.833 66.6061 170.072 68.1465 169.857L70.2451 169.563C70.2451 168.374 69.7643 167.779 68.8027 167.779C67.9596 167.779 67.1986 168.066 66.5195 168.641V167.492C67.2077 167.055 68.0007 166.836 68.8984 166.836C70.5436 166.836 71.3662 167.706 71.3662 169.447V174ZM70.2451 170.459L68.5566 170.691C68.0371 170.764 67.6452 170.894 67.3809 171.081C67.1165 171.263 66.9844 171.589 66.9844 172.059C66.9844 172.4 67.1051 172.681 67.3467 172.899C67.5928 173.114 67.9186 173.221 68.3242 173.221C68.8802 173.221 69.3382 173.027 69.6982 172.64C70.0628 172.248 70.2451 171.753 70.2451 171.156V170.459ZM83.418 174H82.2969V169.98C82.2969 169.206 82.1761 168.645 81.9346 168.299C81.6976 167.952 81.2965 167.779 80.7314 167.779C80.2529 167.779 79.8451 167.998 79.5078 168.436C79.1751 168.873 79.0088 169.397 79.0088 170.008V174H77.8877V169.844C77.8877 168.467 77.3568 167.779 76.2949 167.779C75.8027 167.779 75.3971 167.987 75.0781 168.401C74.7591 168.812 74.5996 169.347 74.5996 170.008V174H73.4785V167H74.5996V168.107H74.627C75.1237 167.26 75.8483 166.836 76.8008 166.836C77.2793 166.836 77.6963 166.97 78.0518 167.239C78.4072 167.504 78.651 167.852 78.7832 168.285C79.3027 167.319 80.0775 166.836 81.1074 166.836C82.6478 166.836 83.418 167.786 83.418 169.687V174Z" fill="#93C437"/>
<rect x="8" y="141" width="32" height="32" rx="16" fill="#416116"/>
<path d="M29.2637 163H27.6504V156.656C27.6504 156.137 27.6823 155.501 27.7461 154.749H27.7188C27.6185 155.177 27.5296 155.485 27.4521 155.672L24.5264 163H23.4053L20.4727 155.727C20.3906 155.512 20.304 155.187 20.2129 154.749H20.1855C20.222 155.141 20.2402 155.781 20.2402 156.67V163H18.7363V153.197H21.0264L23.6035 159.726C23.7995 160.227 23.9271 160.601 23.9863 160.847H24.0205C24.1891 160.332 24.3258 159.949 24.4307 159.698L27.0557 153.197H29.2637V163Z" fill="white" fill-opacity="0.95"/>
<rect y="198" width="332" height="50" rx="25" fill="white" fill-opacity="0.07"/>
<path d="M61.8906 219H60.5781V213.891H54.7812V219H53.4688V207.797H54.7812V212.711H60.5781V207.797H61.8906V219ZM68 219.188C66.8177 219.188 65.8724 218.815 65.1641 218.07C64.4609 217.32 64.1094 216.328 64.1094 215.094C64.1094 213.75 64.4766 212.701 65.2109 211.945C65.9453 211.19 66.9375 210.812 68.1875 210.812C69.3802 210.812 70.3099 211.18 70.9766 211.914C71.6484 212.648 71.9844 213.667 71.9844 214.969C71.9844 216.245 71.6224 217.268 70.8984 218.039C70.1797 218.805 69.2135 219.188 68 219.188ZM68.0938 211.891C67.2708 211.891 66.6198 212.172 66.1406 212.734C65.6615 213.292 65.4219 214.062 65.4219 215.047C65.4219 215.995 65.6641 216.742 66.1484 217.289C66.6328 217.836 67.2812 218.109 68.0938 218.109C68.9219 218.109 69.5573 217.841 70 217.305C70.4479 216.768 70.6719 216.005 70.6719 215.016C70.6719 214.016 70.4479 213.245 70 212.703C69.5573 212.161 68.9219 211.891 68.0938 211.891ZM80.3203 211L77.1328 219H75.875L72.8438 211H74.25L76.2812 216.812C76.4323 217.24 76.526 217.612 76.5625 217.93H76.5938C76.6458 217.529 76.7292 217.167 76.8438 216.844L78.9688 211H80.3203ZM88.0391 215.32H82.3906C82.4115 216.211 82.651 216.898 83.1094 217.383C83.5677 217.867 84.1979 218.109 85 218.109C85.901 218.109 86.7292 217.812 87.4844 217.219V218.422C86.7812 218.932 85.8516 219.188 84.6953 219.188C83.5651 219.188 82.6771 218.826 82.0312 218.102C81.3854 217.372 81.0625 216.349 81.0625 215.031C81.0625 213.786 81.4141 212.773 82.1172 211.992C82.8255 211.206 83.7031 210.812 84.75 210.812C85.7969 210.812 86.6068 211.151 87.1797 211.828C87.7526 212.505 88.0391 213.445 88.0391 214.648V215.32ZM86.7266 214.234C86.7214 213.495 86.5417 212.919 86.1875 212.508C85.8385 212.096 85.3516 211.891 84.7266 211.891C84.1224 211.891 83.6094 212.107 83.1875 212.539C82.7656 212.971 82.5052 213.536 82.4062 214.234H86.7266ZM94.1562 212.297C93.9323 212.125 93.6094 212.039 93.1875 212.039C92.6406 212.039 92.1823 212.297 91.8125 212.812C91.4479 213.328 91.2656 214.031 91.2656 214.922V219H89.9844V211H91.2656V212.648H91.2969C91.4792 212.086 91.7578 211.648 92.1328 211.336C92.5078 211.018 92.9271 210.859 93.3906 210.859C93.724 210.859 93.9792 210.896 94.1562 210.969V212.297Z" fill="white" fill-opacity="0.7"/>
<path d="M59.082 231.236H56.252V240H55.1035V231.236H52.2803V230.197H59.082V231.236ZM64.6533 236.78H59.7109C59.7292 237.56 59.9388 238.161 60.3398 238.585C60.7409 239.009 61.2923 239.221 61.9941 239.221C62.7826 239.221 63.5072 238.961 64.168 238.441V239.494C63.5527 239.941 62.7393 240.164 61.7275 240.164C60.7386 240.164 59.9616 239.847 59.3965 239.214C58.8314 238.576 58.5488 237.68 58.5488 236.527C58.5488 235.438 58.8564 234.552 59.4717 233.868C60.0915 233.18 60.8594 232.836 61.7754 232.836C62.6914 232.836 63.4001 233.132 63.9014 233.725C64.4027 234.317 64.6533 235.14 64.6533 236.192V236.78ZM63.5049 235.83C63.5003 235.183 63.3431 234.679 63.0332 234.319C62.7279 233.959 62.3018 233.779 61.7549 233.779C61.2262 233.779 60.7773 233.968 60.4082 234.347C60.0391 234.725 59.8112 235.219 59.7246 235.83H63.5049ZM71.3662 240H70.2451V238.906H70.2178C69.7301 239.745 69.0124 240.164 68.0645 240.164C67.3672 240.164 66.8203 239.979 66.4238 239.61C66.0319 239.241 65.8359 238.751 65.8359 238.141C65.8359 236.833 66.6061 236.072 68.1465 235.857L70.2451 235.563C70.2451 234.374 69.7643 233.779 68.8027 233.779C67.9596 233.779 67.1986 234.066 66.5195 234.641V233.492C67.2077 233.055 68.0007 232.836 68.8984 232.836C70.5436 232.836 71.3662 233.706 71.3662 235.447V240ZM70.2451 236.459L68.5566 236.691C68.0371 236.764 67.6452 236.894 67.3809 237.081C67.1165 237.263 66.9844 237.589 66.9844 238.059C66.9844 238.4 67.1051 238.681 67.3467 238.899C67.5928 239.114 67.9186 239.221 68.3242 239.221C68.8802 239.221 69.3382 239.027 69.6982 238.64C70.0628 238.248 70.2451 237.753 70.2451 237.156V236.459ZM83.418 240H82.2969V235.98C82.2969 235.206 82.1761 234.645 81.9346 234.299C81.6976 233.952 81.2965 233.779 80.7314 233.779C80.2529 233.779 79.8451 233.998 79.5078 234.436C79.1751 234.873 79.0088 235.397 79.0088 236.008V240H77.8877V235.844C77.8877 234.467 77.3568 233.779 76.2949 233.779C75.8027 233.779 75.3971 233.987 75.0781 234.401C74.7591 234.812 74.5996 235.347 74.5996 236.008V240H73.4785V233H74.5996V234.107H74.627C75.1237 233.26 75.8483 232.836 76.8008 232.836C77.2793 232.836 77.6963 232.97 78.0518 233.239C78.4072 233.504 78.651 233.852 78.7832 234.285C79.3027 233.319 80.0775 232.836 81.1074 232.836C82.6478 232.836 83.418 233.786 83.418 235.687V240Z" fill="#30C9B0"/>
<rect x="8" y="207" width="32" height="32" rx="16" fill="#12615A"/>
<path d="M29.2637 229H27.6504V222.656C27.6504 222.137 27.6823 221.501 27.7461 220.749H27.7188C27.6185 221.177 27.5296 221.485 27.4521 221.672L24.5264 229H23.4053L20.4727 221.727C20.3906 221.512 20.304 221.187 20.2129 220.749H20.1855C20.222 221.141 20.2402 221.781 20.2402 222.67V229H18.7363V219.197H21.0264L23.6035 225.726C23.7995 226.227 23.9271 226.601 23.9863 226.847H24.0205C24.1891 226.332 24.3258 225.949 24.4307 225.698L27.0557 219.197H29.2637V229Z" fill="white" fill-opacity="0.95"/>
<rect y="264" width="332" height="50" rx="25" fill="white" fill-opacity="0.07"/>
<path d="M61.8906 285H60.5781V279.891H54.7812V285H53.4688V273.797H54.7812V278.711H60.5781V273.797H61.8906V285ZM68 285.188C66.8177 285.188 65.8724 284.815 65.1641 284.07C64.4609 283.32 64.1094 282.328 64.1094 281.094C64.1094 279.75 64.4766 278.701 65.2109 277.945C65.9453 277.19 66.9375 276.812 68.1875 276.812C69.3802 276.812 70.3099 277.18 70.9766 277.914C71.6484 278.648 71.9844 279.667 71.9844 280.969C71.9844 282.245 71.6224 283.268 70.8984 284.039C70.1797 284.805 69.2135 285.188 68 285.188ZM68.0938 277.891C67.2708 277.891 66.6198 278.172 66.1406 278.734C65.6615 279.292 65.4219 280.062 65.4219 281.047C65.4219 281.995 65.6641 282.742 66.1484 283.289C66.6328 283.836 67.2812 284.109 68.0938 284.109C68.9219 284.109 69.5573 283.841 70 283.305C70.4479 282.768 70.6719 282.005 70.6719 281.016C70.6719 280.016 70.4479 279.245 70 278.703C69.5573 278.161 68.9219 277.891 68.0938 277.891ZM80.3203 277L77.1328 285H75.875L72.8438 277H74.25L76.2812 282.812C76.4323 283.24 76.526 283.612 76.5625 283.93H76.5938C76.6458 283.529 76.7292 283.167 76.8438 282.844L78.9688 277H80.3203ZM88.0391 281.32H82.3906C82.4115 282.211 82.651 282.898 83.1094 283.383C83.5677 283.867 84.1979 284.109 85 284.109C85.901 284.109 86.7292 283.812 87.4844 283.219V284.422C86.7812 284.932 85.8516 285.188 84.6953 285.188C83.5651 285.188 82.6771 284.826 82.0312 284.102C81.3854 283.372 81.0625 282.349 81.0625 281.031C81.0625 279.786 81.4141 278.773 82.1172 277.992C82.8255 277.206 83.7031 276.812 84.75 276.812C85.7969 276.812 86.6068 277.151 87.1797 277.828C87.7526 278.505 88.0391 279.445 88.0391 280.648V281.32ZM86.7266 280.234C86.7214 279.495 86.5417 278.919 86.1875 278.508C85.8385 278.096 85.3516 277.891 84.7266 277.891C84.1224 277.891 83.6094 278.107 83.1875 278.539C82.7656 278.971 82.5052 279.536 82.4062 280.234H86.7266ZM94.1562 278.297C93.9323 278.125 93.6094 278.039 93.1875 278.039C92.6406 278.039 92.1823 278.297 91.8125 278.812C91.4479 279.328 91.2656 280.031 91.2656 280.922V285H89.9844V277H91.2656V278.648H91.2969C91.4792 278.086 91.7578 277.648 92.1328 277.336C92.5078 277.018 92.9271 276.859 93.3906 276.859C93.724 276.859 93.9792 276.896 94.1562 276.969V278.297Z" fill="white" fill-opacity="0.7"/>
<path d="M59.082 297.236H56.252V306H55.1035V297.236H52.2803V296.197H59.082V297.236ZM64.6533 302.78H59.7109C59.7292 303.56 59.9388 304.161 60.3398 304.585C60.7409 305.009 61.2923 305.221 61.9941 305.221C62.7826 305.221 63.5072 304.961 64.168 304.441V305.494C63.5527 305.941 62.7393 306.164 61.7275 306.164C60.7386 306.164 59.9616 305.847 59.3965 305.214C58.8314 304.576 58.5488 303.68 58.5488 302.527C58.5488 301.438 58.8564 300.552 59.4717 299.868C60.0915 299.18 60.8594 298.836 61.7754 298.836C62.6914 298.836 63.4001 299.132 63.9014 299.725C64.4027 300.317 64.6533 301.14 64.6533 302.192V302.78ZM63.5049 301.83C63.5003 301.183 63.3431 300.679 63.0332 300.319C62.7279 299.959 62.3018 299.779 61.7549 299.779C61.2262 299.779 60.7773 299.968 60.4082 300.347C60.0391 300.725 59.8112 301.219 59.7246 301.83H63.5049ZM71.3662 306H70.2451V304.906H70.2178C69.7301 305.745 69.0124 306.164 68.0645 306.164C67.3672 306.164 66.8203 305.979 66.4238 305.61C66.0319 305.241 65.8359 304.751 65.8359 304.141C65.8359 302.833 66.6061 302.072 68.1465 301.857L70.2451 301.563C70.2451 300.374 69.7643 299.779 68.8027 299.779C67.9596 299.779 67.1986 300.066 66.5195 300.641V299.492C67.2077 299.055 68.0007 298.836 68.8984 298.836C70.5436 298.836 71.3662 299.706 71.3662 301.447V306ZM70.2451 302.459L68.5566 302.691C68.0371 302.764 67.6452 302.894 67.3809 303.081C67.1165 303.263 66.9844 303.589 66.9844 304.059C66.9844 304.4 67.1051 304.681 67.3467 304.899C67.5928 305.114 67.9186 305.221 68.3242 305.221C68.8802 305.221 69.3382 305.027 69.6982 304.64C70.0628 304.248 70.2451 303.753 70.2451 303.156V302.459ZM83.418 306H82.2969V301.98C82.2969 301.206 82.1761 300.645 81.9346 300.299C81.6976 299.952 81.2965 299.779 80.7314 299.779C80.2529 299.779 79.8451 299.998 79.5078 300.436C79.1751 300.873 79.0088 301.397 79.0088 302.008V306H77.8877V301.844C77.8877 300.467 77.3568 299.779 76.2949 299.779C75.8027 299.779 75.3971 299.987 75.0781 300.401C74.7591 300.812 74.5996 301.347 74.5996 302.008V306H73.4785V299H74.5996V300.107H74.627C75.1237 299.26 75.8483 298.836 76.8008 298.836C77.2793 298.836 77.6963 298.97 78.0518 299.239C78.4072 299.504 78.651 299.852 78.7832 300.285C79.3027 299.319 80.0775 298.836 81.1074 298.836C82.6478 298.836 83.418 299.786 83.418 301.687V306Z" fill="#FC97AA"/>
<rect x="8" y="273" width="32" height="32" rx="16" fill="#A12A3A"/>
<path d="M29.2637 295H27.6504V288.656C27.6504 288.137 27.6823 287.501 27.7461 286.749H27.7188C27.6185 287.177 27.5296 287.485 27.4521 287.672L24.5264 295H23.4053L20.4727 287.727C20.3906 287.512 20.304 287.187 20.2129 286.749H20.1855C20.222 287.141 20.2402 287.781 20.2402 288.67V295H18.7363V285.197H21.0264L23.6035 291.726C23.7995 292.227 23.9271 292.601 23.9863 292.847H24.0205C24.1891 292.332 24.3258 291.949 24.4307 291.698L27.0557 285.197H29.2637V295Z" fill="white" fill-opacity="0.95"/>
<rect y="330" width="332" height="50" rx="25" fill="white" fill-opacity="0.07"/>
<path d="M61.8906 351H60.5781V345.891H54.7812V351H53.4688V339.797H54.7812V344.711H60.5781V339.797H61.8906V351ZM68 351.188C66.8177 351.188 65.8724 350.815 65.1641 350.07C64.4609 349.32 64.1094 348.328 64.1094 347.094C64.1094 345.75 64.4766 344.701 65.2109 343.945C65.9453 343.19 66.9375 342.812 68.1875 342.812C69.3802 342.812 70.3099 343.18 70.9766 343.914C71.6484 344.648 71.9844 345.667 71.9844 346.969C71.9844 348.245 71.6224 349.268 70.8984 350.039C70.1797 350.805 69.2135 351.188 68 351.188ZM68.0938 343.891C67.2708 343.891 66.6198 344.172 66.1406 344.734C65.6615 345.292 65.4219 346.062 65.4219 347.047C65.4219 347.995 65.6641 348.742 66.1484 349.289C66.6328 349.836 67.2812 350.109 68.0938 350.109C68.9219 350.109 69.5573 349.841 70 349.305C70.4479 348.768 70.6719 348.005 70.6719 347.016C70.6719 346.016 70.4479 345.245 70 344.703C69.5573 344.161 68.9219 343.891 68.0938 343.891ZM80.3203 343L77.1328 351H75.875L72.8438 343H74.25L76.2812 348.812C76.4323 349.24 76.526 349.612 76.5625 349.93H76.5938C76.6458 349.529 76.7292 349.167 76.8438 348.844L78.9688 343H80.3203ZM88.0391 347.32H82.3906C82.4115 348.211 82.651 348.898 83.1094 349.383C83.5677 349.867 84.1979 350.109 85 350.109C85.901 350.109 86.7292 349.812 87.4844 349.219V350.422C86.7812 350.932 85.8516 351.188 84.6953 351.188C83.5651 351.188 82.6771 350.826 82.0312 350.102C81.3854 349.372 81.0625 348.349 81.0625 347.031C81.0625 345.786 81.4141 344.773 82.1172 343.992C82.8255 343.206 83.7031 342.812 84.75 342.812C85.7969 342.812 86.6068 343.151 87.1797 343.828C87.7526 344.505 88.0391 345.445 88.0391 346.648V347.32ZM86.7266 346.234C86.7214 345.495 86.5417 344.919 86.1875 344.508C85.8385 344.096 85.3516 343.891 84.7266 343.891C84.1224 343.891 83.6094 344.107 83.1875 344.539C82.7656 344.971 82.5052 345.536 82.4062 346.234H86.7266ZM94.1562 344.297C93.9323 344.125 93.6094 344.039 93.1875 344.039C92.6406 344.039 92.1823 344.297 91.8125 344.812C91.4479 345.328 91.2656 346.031 91.2656 346.922V351H89.9844V343H91.2656V344.648H91.2969C91.4792 344.086 91.7578 343.648 92.1328 343.336C92.5078 343.018 92.9271 342.859 93.3906 342.859C93.724 342.859 93.9792 342.896 94.1562 342.969V344.297Z" fill="white" fill-opacity="0.7"/>
<path d="M59.082 363.236H56.252V372H55.1035V363.236H52.2803V362.197H59.082V363.236ZM64.6533 368.78H59.7109C59.7292 369.56 59.9388 370.161 60.3398 370.585C60.7409 371.009 61.2923 371.221 61.9941 371.221C62.7826 371.221 63.5072 370.961 64.168 370.441V371.494C63.5527 371.941 62.7393 372.164 61.7275 372.164C60.7386 372.164 59.9616 371.847 59.3965 371.214C58.8314 370.576 58.5488 369.68 58.5488 368.527C58.5488 367.438 58.8564 366.552 59.4717 365.868C60.0915 365.18 60.8594 364.836 61.7754 364.836C62.6914 364.836 63.4001 365.132 63.9014 365.725C64.4027 366.317 64.6533 367.14 64.6533 368.192V368.78ZM63.5049 367.83C63.5003 367.183 63.3431 366.679 63.0332 366.319C62.7279 365.959 62.3018 365.779 61.7549 365.779C61.2262 365.779 60.7773 365.968 60.4082 366.347C60.0391 366.725 59.8112 367.219 59.7246 367.83H63.5049ZM71.3662 372H70.2451V370.906H70.2178C69.7301 371.745 69.0124 372.164 68.0645 372.164C67.3672 372.164 66.8203 371.979 66.4238 371.61C66.0319 371.241 65.8359 370.751 65.8359 370.141C65.8359 368.833 66.6061 368.072 68.1465 367.857L70.2451 367.563C70.2451 366.374 69.7643 365.779 68.8027 365.779C67.9596 365.779 67.1986 366.066 66.5195 366.641V365.492C67.2077 365.055 68.0007 364.836 68.8984 364.836C70.5436 364.836 71.3662 365.706 71.3662 367.447V372ZM70.2451 368.459L68.5566 368.691C68.0371 368.764 67.6452 368.894 67.3809 369.081C67.1165 369.263 66.9844 369.589 66.9844 370.059C66.9844 370.4 67.1051 370.681 67.3467 370.899C67.5928 371.114 67.9186 371.221 68.3242 371.221C68.8802 371.221 69.3382 371.027 69.6982 370.64C70.0628 370.248 70.2451 369.753 70.2451 369.156V368.459ZM83.418 372H82.2969V367.98C82.2969 367.206 82.1761 366.645 81.9346 366.299C81.6976 365.952 81.2965 365.779 80.7314 365.779C80.2529 365.779 79.8451 365.998 79.5078 366.436C79.1751 366.873 79.0088 367.397 79.0088 368.008V372H77.8877V367.844C77.8877 366.467 77.3568 365.779 76.2949 365.779C75.8027 365.779 75.3971 365.987 75.0781 366.401C74.7591 366.812 74.5996 367.347 74.5996 368.008V372H73.4785V365H74.5996V366.107H74.627C75.1237 365.26 75.8483 364.836 76.8008 364.836C77.2793 364.836 77.6963 364.97 78.0518 365.239C78.4072 365.504 78.651 365.852 78.7832 366.285C79.3027 365.319 80.0775 364.836 81.1074 364.836C82.6478 364.836 83.418 365.786 83.418 367.687V372Z" fill="#B0B4D9"/>
<rect x="8" y="339" width="32" height="32" rx="16" fill="#535573"/>
<path d="M29.2637 361H27.6504V354.656C27.6504 354.137 27.6823 353.501 27.7461 352.749H27.7188C27.6185 353.177 27.5296 353.485 27.4521 353.672L24.5264 361H23.4053L20.4727 353.727C20.3906 353.512 20.304 353.187 20.2129 352.749H20.1855C20.222 353.141 20.2402 353.781 20.2402 354.67V361H18.7363V351.197H21.0264L23.6035 357.726C23.7995 358.227 23.9271 358.601 23.9863 358.847H24.0205C24.1891 358.332 24.3258 357.949 24.4307 357.698L27.0557 351.197H29.2637V361Z" fill="white" fill-opacity="0.95"/>
<rect y="396" width="332" height="50" rx="25" fill="white" fill-opacity="0.07"/>
<path d="M61.8906 417H60.5781V411.891H54.7812V417H53.4688V405.797H54.7812V410.711H60.5781V405.797H61.8906V417ZM68 417.188C66.8177 417.188 65.8724 416.815 65.1641 416.07C64.4609 415.32 64.1094 414.328 64.1094 413.094C64.1094 411.75 64.4766 410.701 65.2109 409.945C65.9453 409.19 66.9375 408.812 68.1875 408.812C69.3802 408.812 70.3099 409.18 70.9766 409.914C71.6484 410.648 71.9844 411.667 71.9844 412.969C71.9844 414.245 71.6224 415.268 70.8984 416.039C70.1797 416.805 69.2135 417.188 68 417.188ZM68.0938 409.891C67.2708 409.891 66.6198 410.172 66.1406 410.734C65.6615 411.292 65.4219 412.062 65.4219 413.047C65.4219 413.995 65.6641 414.742 66.1484 415.289C66.6328 415.836 67.2812 416.109 68.0938 416.109C68.9219 416.109 69.5573 415.841 70 415.305C70.4479 414.768 70.6719 414.005 70.6719 413.016C70.6719 412.016 70.4479 411.245 70 410.703C69.5573 410.161 68.9219 409.891 68.0938 409.891ZM80.3203 409L77.1328 417H75.875L72.8438 409H74.25L76.2812 414.812C76.4323 415.24 76.526 415.612 76.5625 415.93H76.5938C76.6458 415.529 76.7292 415.167 76.8438 414.844L78.9688 409H80.3203ZM88.0391 413.32H82.3906C82.4115 414.211 82.651 414.898 83.1094 415.383C83.5677 415.867 84.1979 416.109 85 416.109C85.901 416.109 86.7292 415.812 87.4844 415.219V416.422C86.7812 416.932 85.8516 417.188 84.6953 417.188C83.5651 417.188 82.6771 416.826 82.0312 416.102C81.3854 415.372 81.0625 414.349 81.0625 413.031C81.0625 411.786 81.4141 410.773 82.1172 409.992C82.8255 409.206 83.7031 408.812 84.75 408.812C85.7969 408.812 86.6068 409.151 87.1797 409.828C87.7526 410.505 88.0391 411.445 88.0391 412.648V413.32ZM86.7266 412.234C86.7214 411.495 86.5417 410.919 86.1875 410.508C85.8385 410.096 85.3516 409.891 84.7266 409.891C84.1224 409.891 83.6094 410.107 83.1875 410.539C82.7656 410.971 82.5052 411.536 82.4062 412.234H86.7266ZM94.1562 410.297C93.9323 410.125 93.6094 410.039 93.1875 410.039C92.6406 410.039 92.1823 410.297 91.8125 410.812C91.4479 411.328 91.2656 412.031 91.2656 412.922V417H89.9844V409H91.2656V410.648H91.2969C91.4792 410.086 91.7578 409.648 92.1328 409.336C92.5078 409.018 92.9271 408.859 93.3906 408.859C93.724 408.859 93.9792 408.896 94.1562 408.969V410.297Z" fill="white" fill-opacity="0.7"/>
<path d="M59.082 429.236H56.252V438H55.1035V429.236H52.2803V428.197H59.082V429.236ZM64.6533 434.78H59.7109C59.7292 435.56 59.9388 436.161 60.3398 436.585C60.7409 437.009 61.2923 437.221 61.9941 437.221C62.7826 437.221 63.5072 436.961 64.168 436.441V437.494C63.5527 437.941 62.7393 438.164 61.7275 438.164C60.7386 438.164 59.9616 437.847 59.3965 437.214C58.8314 436.576 58.5488 435.68 58.5488 434.527C58.5488 433.438 58.8564 432.552 59.4717 431.868C60.0915 431.18 60.8594 430.836 61.7754 430.836C62.6914 430.836 63.4001 431.132 63.9014 431.725C64.4027 432.317 64.6533 433.14 64.6533 434.192V434.78ZM63.5049 433.83C63.5003 433.183 63.3431 432.679 63.0332 432.319C62.7279 431.959 62.3018 431.779 61.7549 431.779C61.2262 431.779 60.7773 431.968 60.4082 432.347C60.0391 432.725 59.8112 433.219 59.7246 433.83H63.5049ZM71.3662 438H70.2451V436.906H70.2178C69.7301 437.745 69.0124 438.164 68.0645 438.164C67.3672 438.164 66.8203 437.979 66.4238 437.61C66.0319 437.241 65.8359 436.751 65.8359 436.141C65.8359 434.833 66.6061 434.072 68.1465 433.857L70.2451 433.563C70.2451 432.374 69.7643 431.779 68.8027 431.779C67.9596 431.779 67.1986 432.066 66.5195 432.641V431.492C67.2077 431.055 68.0007 430.836 68.8984 430.836C70.5436 430.836 71.3662 431.706 71.3662 433.447V438ZM70.2451 434.459L68.5566 434.691C68.0371 434.764 67.6452 434.894 67.3809 435.081C67.1165 435.263 66.9844 435.589 66.9844 436.059C66.9844 436.4 67.1051 436.681 67.3467 436.899C67.5928 437.114 67.9186 437.221 68.3242 437.221C68.8802 437.221 69.3382 437.027 69.6982 436.64C70.0628 436.248 70.2451 435.753 70.2451 435.156V434.459ZM83.418 438H82.2969V433.98C82.2969 433.206 82.1761 432.645 81.9346 432.299C81.6976 431.952 81.2965 431.779 80.7314 431.779C80.2529 431.779 79.8451 431.998 79.5078 432.436C79.1751 432.873 79.0088 433.397 79.0088 434.008V438H77.8877V433.844C77.8877 432.467 77.3568 431.779 76.2949 431.779C75.8027 431.779 75.3971 431.987 75.0781 432.401C74.7591 432.812 74.5996 433.347 74.5996 434.008V438H73.4785V431H74.5996V432.107H74.627C75.1237 431.26 75.8483 430.836 76.8008 430.836C77.2793 430.836 77.6963 430.97 78.0518 431.239C78.4072 431.504 78.651 431.852 78.7832 432.285C79.3027 431.319 80.0775 430.836 81.1074 430.836C82.6478 430.836 83.418 431.786 83.418 433.687V438Z" fill="#F294F1"/>
<rect x="8" y="405" width="32" height="32" rx="16" fill="#932099"/>
<path d="M29.2637 427H27.6504V420.656C27.6504 420.137 27.6823 419.501 27.7461 418.749H27.7188C27.6185 419.177 27.5296 419.485 27.4521 419.672L24.5264 427H23.4053L20.4727 419.727C20.3906 419.512 20.304 419.187 20.2129 418.749H20.1855C20.222 419.141 20.2402 419.781 20.2402 420.67V427H18.7363V417.197H21.0264L23.6035 423.726C23.7995 424.227 23.9271 424.601 23.9863 424.847H24.0205C24.1891 424.332 24.3258 423.949 24.4307 423.698L27.0557 417.197H29.2637V427Z" fill="white" fill-opacity="0.95"/>
</svg>
