<svg width="194" height="33" viewBox="0 0 194 33" fill="none" xmlns="http://www.w3.org/2000/svg">
<rect width="194" height="32.6334" rx="16.2774" fill="white" fill-opacity="0.95"/>
<path d="M14.5486 18.8905L17.1332 10.9279H18.7649L15.5407 20.3263H13.4913L10.241 10.9279H11.9902L14.5486 18.8905ZM21.2492 12.5074H19.5261V10.9279H21.2492V12.5074ZM21.1709 20.3263H19.6045V13.5386H21.1709V20.3263ZM27.4501 18.3683H29.0949C28.9121 19.0645 28.5336 19.604 27.9592 19.9869C27.411 20.3437 26.7366 20.5221 25.936 20.5221C24.8308 20.5221 23.9692 20.174 23.3514 19.4779C22.7857 18.8426 22.5029 17.9941 22.5029 16.9325C22.5029 15.7142 22.8554 14.783 23.5602 14.139C24.152 13.6082 24.9221 13.3428 25.8707 13.3428C26.9759 13.3428 27.8113 13.7039 28.3769 14.4262C28.9078 15.0963 29.1732 16.0535 29.1732 17.298H24.0954C24.1563 18.0289 24.3826 18.5641 24.7742 18.9035C25.0875 19.182 25.4965 19.3212 26.0012 19.3212C26.358 19.3212 26.6669 19.2342 26.928 19.0602C27.1891 18.8861 27.3631 18.6555 27.4501 18.3683ZM27.5676 16.2276C27.5328 15.5923 27.3414 15.1267 26.9933 14.8309C26.7061 14.5785 26.3319 14.4523 25.8707 14.4523C25.366 14.4523 24.9613 14.6177 24.6567 14.9484C24.3783 15.2442 24.1999 15.6706 24.1215 16.2276H27.5676ZM38.8182 13.5386H40.3454L38.4135 20.3263H36.5338L35.111 15.118L33.6621 20.3263H31.7694L29.8505 13.5386H31.4691L32.7745 18.8513L34.2234 13.5386H36.1031L37.4867 18.8513L38.8182 13.5386ZM53.4152 20.3263H51.6008L50.7784 18.042H46.758L45.9356 20.3263H44.2256L47.8806 10.9279H49.7602L53.4152 20.3263ZM48.7943 12.4421L47.2018 16.815H50.3476L48.7943 12.4421ZM58.69 18.1203H60.3609C60.2303 18.8774 59.8692 19.4735 59.2775 19.9086C58.7205 20.3176 58.033 20.5221 57.215 20.5221C56.1359 20.5221 55.3005 20.1784 54.7088 19.4909C54.1779 18.8731 53.9125 18.042 53.9125 16.9977C53.9125 15.7794 54.2519 14.8439 54.9307 14.1913C55.5224 13.6256 56.2882 13.3428 57.2281 13.3428C58.107 13.3428 58.8336 13.5691 59.408 14.0216C59.9127 14.4219 60.2216 14.9397 60.3348 15.5749H58.6378C58.5595 15.2529 58.3985 15.0006 58.1549 14.8178C57.9112 14.6264 57.6153 14.5306 57.2672 14.5306C56.7016 14.5306 56.2708 14.7569 55.975 15.2094C55.6965 15.6358 55.5572 16.245 55.5572 17.0369C55.5572 17.8375 55.7443 18.4423 56.1185 18.8513C56.4144 19.1733 56.7886 19.3343 57.2411 19.3343C57.624 19.3343 57.9373 19.2299 58.181 19.021C58.4333 18.8121 58.603 18.5119 58.69 18.1203ZM66.109 18.1203H67.7799C67.6493 18.8774 67.2882 19.4735 66.6964 19.9086C66.1395 20.3176 65.452 20.5221 64.634 20.5221C63.5549 20.5221 62.7195 20.1784 62.1278 19.4909C61.5969 18.8731 61.3315 18.042 61.3315 16.9977C61.3315 15.7794 61.6709 14.8439 62.3497 14.1913C62.9414 13.6256 63.7072 13.3428 64.6471 13.3428C65.526 13.3428 66.2526 13.5691 66.827 14.0216C67.3317 14.4219 67.6406 14.9397 67.7538 15.5749H66.0568C65.9785 15.2529 65.8175 15.0006 65.5739 14.8178C65.3302 14.6264 65.0343 14.5306 64.6862 14.5306C64.1206 14.5306 63.6898 14.7569 63.3939 15.2094C63.1155 15.6358 62.9762 16.245 62.9762 17.0369C62.9762 17.8375 63.1633 18.4423 63.5375 18.8513C63.8334 19.1733 64.2076 19.3343 64.6601 19.3343C65.043 19.3343 65.3563 19.2299 65.6 19.021C65.8523 18.8121 66.022 18.5119 66.109 18.1203ZM73.6977 18.3683H75.3424C75.1597 19.0645 74.7811 19.604 74.2068 19.9869C73.6586 20.3437 72.9841 20.5221 72.1835 20.5221C71.0784 20.5221 70.2168 20.174 69.599 19.4779C69.0333 18.8426 68.7505 17.9941 68.7505 16.9325C68.7505 15.7142 69.1029 14.783 69.8078 14.139C70.3996 13.6082 71.1697 13.3428 72.1183 13.3428C73.2235 13.3428 74.0589 13.7039 74.6245 14.4262C75.1553 15.0963 75.4208 16.0535 75.4208 17.298H70.343C70.4039 18.0289 70.6302 18.5641 71.0218 18.9035C71.3351 19.182 71.7441 19.3212 72.2488 19.3212C72.6056 19.3212 72.9145 19.2342 73.1756 19.0602C73.4367 18.8861 73.6107 18.6555 73.6977 18.3683ZM73.8152 16.2276C73.7804 15.5923 73.5889 15.1267 73.2409 14.8309C72.9537 14.5785 72.5795 14.4523 72.1183 14.4523C71.6135 14.4523 71.2089 14.6177 70.9043 14.9484C70.6258 15.2442 70.4474 15.6706 70.3691 16.2276H73.8152ZM77.8864 18.3944C78.0082 19.0471 78.4999 19.3734 79.3614 19.3734C79.8401 19.3734 80.2012 19.2821 80.4449 19.0993C80.645 18.9427 80.7451 18.7382 80.7451 18.4858C80.7451 18.1638 80.5711 17.9245 80.223 17.7679C80.0228 17.6809 79.5833 17.559 78.9046 17.4024C78.0692 17.2109 77.4731 16.9499 77.1163 16.6192C76.7595 16.2972 76.5811 15.8751 76.5811 15.353C76.5811 14.6916 76.8508 14.1826 77.3904 13.8258C77.869 13.5038 78.526 13.3428 79.3614 13.3428C80.223 13.3428 80.9148 13.5473 81.4369 13.9563C81.8894 14.3044 82.1723 14.7743 82.2854 15.3661H80.6929C80.5623 14.783 80.1098 14.4915 79.3353 14.4915C78.5521 14.4915 78.1605 14.7308 78.1605 15.2094C78.1605 15.4531 78.2606 15.6358 78.4608 15.7577C78.6609 15.8795 79.0656 16.0144 79.6747 16.1623C80.6146 16.3799 81.2672 16.6235 81.6327 16.8933C82.0939 17.2327 82.3246 17.7113 82.3246 18.3292C82.3246 19.0341 82.0374 19.5866 81.463 19.9869C80.9409 20.3437 80.236 20.5221 79.3484 20.5221C78.4173 20.5221 77.6732 20.3002 77.1163 19.8564C76.6463 19.4822 76.3722 18.9949 76.2939 18.3944H77.8864ZM84.6935 18.3944C84.8154 19.0471 85.307 19.3734 86.1686 19.3734C86.6472 19.3734 87.0083 19.2821 87.252 19.0993C87.4521 18.9427 87.5522 18.7382 87.5522 18.4858C87.5522 18.1638 87.3782 17.9245 87.0301 17.7679C86.8299 17.6809 86.3905 17.559 85.7117 17.4024C84.8763 17.2109 84.2802 16.9499 83.9234 16.6192C83.5666 16.2972 83.3882 15.8751 83.3882 15.353C83.3882 14.6916 83.658 14.1826 84.1975 13.8258C84.6761 13.5038 85.3331 13.3428 86.1686 13.3428C87.0301 13.3428 87.7219 13.5473 88.244 13.9563C88.6966 14.3044 88.9794 14.7743 89.0925 15.3661H87.5C87.3695 14.783 86.917 14.4915 86.1425 14.4915C85.3593 14.4915 84.9677 14.7308 84.9677 15.2094C84.9677 15.4531 85.0677 15.6358 85.2679 15.7577C85.468 15.8795 85.8727 16.0144 86.4818 16.1623C87.4217 16.3799 88.0744 16.6235 88.4398 16.8933C88.9011 17.2327 89.1317 17.7113 89.1317 18.3292C89.1317 19.0341 88.8445 19.5866 88.2702 19.9869C87.748 20.3437 87.0431 20.5221 86.1555 20.5221C85.2244 20.5221 84.4803 20.3002 83.9234 19.8564C83.4535 19.4822 83.1793 18.9949 83.101 18.3944H84.6935ZM92.112 12.5074H90.389V10.9279H92.112V12.5074ZM92.0337 20.3263H90.4673V13.5386H92.0337V20.3263ZM93.7051 10.9279H95.2715V14.361C95.8111 13.6822 96.5377 13.3428 97.4514 13.3428C98.4348 13.3428 99.1919 13.6778 99.7227 14.3479C100.21 14.9571 100.454 15.7751 100.454 16.8019C100.454 18.055 100.119 19.0166 99.4486 19.6867C98.9004 20.2437 98.1911 20.5221 97.3209 20.5221C96.4246 20.5221 95.7197 20.1827 95.2063 19.504L94.9583 20.3263H93.7051V10.9279ZM98.8481 16.8672C98.8481 16.0492 98.6611 15.4444 98.2869 15.0528C97.9823 14.7395 97.5733 14.5829 97.0598 14.5829C96.4768 14.5829 96.0156 14.7961 95.6762 15.2225C95.3629 15.6315 95.2063 16.1754 95.2063 16.8541C95.2063 17.707 95.3977 18.3422 95.7806 18.7599C96.1026 19.108 96.5203 19.2821 97.0337 19.2821C97.6342 19.2821 98.0911 19.0602 98.4043 18.6163C98.7002 18.1986 98.8481 17.6156 98.8481 16.8672ZM103.432 12.5074H101.709V10.9279H103.432V12.5074ZM103.353 20.3263H101.787V13.5386H103.353V20.3263ZM106.591 10.9279V20.3263H105.025V10.9279H106.591ZM109.907 12.5074H108.184V10.9279H109.907V12.5074ZM109.829 20.3263H108.263V13.5386H109.829V20.3263ZM114.868 19.1776V20.3655C114.503 20.4699 114.155 20.5221 113.824 20.5221C113.154 20.5221 112.645 20.322 112.297 19.9217C112.001 19.5823 111.853 19.1254 111.853 18.5511V14.7395H110.835V13.5386H111.853L111.957 11.9069H113.419V13.5386H114.855V14.7395H113.419V18.6033C113.419 19.0558 113.65 19.2821 114.111 19.2821C114.311 19.2821 114.564 19.2473 114.868 19.1776ZM122.006 13.5386L119.618 20.4438C119.304 21.3575 118.974 21.9885 118.626 22.3365C118.278 22.6933 117.825 22.8717 117.268 22.8717C116.99 22.8717 116.681 22.8282 116.341 22.7412V21.5664C116.611 21.636 116.855 21.6708 117.072 21.6708C117.351 21.6708 117.573 21.549 117.738 21.3053C117.86 21.1226 117.999 20.7963 118.156 20.3263H117.673L115.206 13.5386H116.89L118.639 19.1254L120.44 13.5386H122.006ZM134.75 15.1964V20.3263H133.602L133.367 19.3082C133.062 19.6911 132.666 19.9913 132.179 20.2089C131.691 20.4177 131.148 20.5221 130.547 20.5221C129.25 20.5221 128.219 20.0522 127.453 19.1124C126.74 18.2334 126.383 17.063 126.383 15.601C126.383 13.9389 126.857 12.6727 127.806 11.8025C128.58 11.0889 129.577 10.7321 130.795 10.7321C131.926 10.7321 132.862 11.0411 133.602 11.6589C134.228 12.181 134.607 12.8468 134.737 13.6561H133.092C132.962 13.0904 132.67 12.664 132.218 12.3768C131.835 12.1332 131.361 12.0114 130.795 12.0114C129.934 12.0114 129.263 12.3377 128.785 12.9904C128.332 13.6169 128.106 14.4871 128.106 15.601C128.106 16.8541 128.411 17.8114 129.02 18.4728C129.498 18.9862 130.095 19.2429 130.808 19.2429C131.557 19.2429 132.166 19.021 132.636 18.5772C133.062 18.1769 133.275 17.6896 133.275 17.1152V16.4103H130.73V15.1964H134.75ZM136.28 13.5386H137.846V18.0028C137.846 18.8731 138.273 19.3082 139.126 19.3082C139.622 19.3082 140.009 19.1298 140.287 18.773C140.514 18.4684 140.627 18.0942 140.627 17.6504V13.5386H142.193V20.3263H140.901L140.731 19.5692C140.244 20.2045 139.565 20.5221 138.695 20.5221C137.894 20.5221 137.281 20.2785 136.854 19.7911C136.471 19.3473 136.28 18.7382 136.28 17.9637V13.5386ZM145.511 12.5074H143.788V10.9279H145.511V12.5074ZM145.433 20.3263H143.866V13.5386H145.433V20.3263ZM153.513 20.3263H152.26L151.986 19.4518C151.455 20.1653 150.728 20.5221 149.806 20.5221C148.84 20.5221 148.079 20.174 147.522 19.4779C147.017 18.8426 146.765 18.0115 146.765 16.9847C146.765 15.749 147.091 14.8048 147.744 14.1521C148.283 13.6126 148.984 13.3428 149.845 13.3428C150.742 13.3428 151.442 13.6648 151.947 14.3087V10.9279H153.513V20.3263ZM148.37 16.9977C148.37 17.7983 148.562 18.3944 148.945 18.786C149.258 19.1167 149.667 19.2821 150.172 19.2821C150.789 19.2821 151.259 19.0558 151.581 18.6033C151.868 18.203 152.012 17.6634 152.012 16.9847C152.012 16.1319 151.812 15.4966 151.412 15.0789C151.098 14.7482 150.685 14.5829 150.172 14.5829C149.571 14.5829 149.114 14.8091 148.801 15.2616C148.514 15.6706 148.37 16.2493 148.37 16.9977ZM159.794 18.3683H161.438C161.256 19.0645 160.877 19.604 160.303 19.9869C159.755 20.3437 159.08 20.5221 158.28 20.5221C157.174 20.5221 156.313 20.174 155.695 19.4779C155.129 18.8426 154.846 17.9941 154.846 16.9325C154.846 15.7142 155.199 14.783 155.904 14.139C156.496 13.6082 157.266 13.3428 158.214 13.3428C159.319 13.3428 160.155 13.7039 160.72 14.4262C161.251 15.0963 161.517 16.0535 161.517 17.298H156.439C156.5 18.0289 156.726 18.5641 157.118 18.9035C157.431 19.182 157.84 19.3212 158.345 19.3212C158.702 19.3212 159.01 19.2342 159.272 19.0602C159.533 18.8861 159.707 18.6555 159.794 18.3683ZM159.911 16.2276C159.876 15.5923 159.685 15.1267 159.337 14.8309C159.05 14.5785 158.675 14.4523 158.214 14.4523C157.71 14.4523 157.305 14.6177 157 14.9484C156.722 15.2442 156.543 15.6706 156.465 16.2276H159.911ZM164.426 10.9279V20.3263H162.86V10.9279H164.426ZM167.742 12.5074H166.019V10.9279H167.742V12.5074ZM167.664 20.3263H166.098V13.5386H167.664V20.3263ZM170.902 20.3263H169.335V13.5386H170.628L170.797 14.3479C171.293 13.6778 171.981 13.3428 172.86 13.3428C173.678 13.3428 174.304 13.5952 174.74 14.0999C175.122 14.5437 175.314 15.1485 175.314 15.9143V20.3263H173.748V15.9535C173.748 15.0223 173.317 14.5568 172.455 14.5568C171.985 14.5568 171.602 14.7221 171.307 15.0528C171.037 15.3574 170.902 15.7403 170.902 16.2015V20.3263ZM181.528 18.3683H183.173C182.99 19.0645 182.611 19.604 182.037 19.9869C181.489 20.3437 180.814 20.5221 180.014 20.5221C178.909 20.5221 178.047 20.174 177.429 19.4779C176.864 18.8426 176.581 17.9941 176.581 16.9325C176.581 15.7142 176.933 14.783 177.638 14.139C178.23 13.6082 179 13.3428 179.949 13.3428C181.054 13.3428 181.889 13.7039 182.455 14.4262C182.986 15.0963 183.251 16.0535 183.251 17.298H178.173C178.234 18.0289 178.46 18.5641 178.852 18.9035C179.165 19.182 179.574 19.3212 180.079 19.3212C180.436 19.3212 180.745 19.2342 181.006 19.0602C181.267 18.8861 181.441 18.6555 181.528 18.3683ZM181.645 16.2276C181.611 15.5923 181.419 15.1267 181.071 14.8309C180.784 14.5785 180.41 14.4523 179.949 14.4523C179.444 14.4523 179.039 14.6177 178.735 14.9484C178.456 15.2442 178.278 15.6706 178.199 16.2276H181.645Z" fill="black" fill-opacity="0.95"/>
<a>
<rect fill="black" fill-opacity="0" x="0.450027" y="0.898512" width="173.101" height="17.7359"/>
</a>
</svg>
