<svg width="496" height="86" viewBox="0 0 496 86" fill="none" xmlns="http://www.w3.org/2000/svg">
<path d="M0.329964 31.9571L86.8534 1.73045C88.2761 1.23345 89.847 1.40435 91.1296 2.19565L223.081 83.6086C223.996 84.1731 225.068 84.4278 226.139 84.335L268.777 80.6428C270.015 80.5356 271.168 79.9717 272.013 79.0607L313.976 33.8105C315.057 32.6451 316.627 32.0626 318.206 32.2414L359.37 36.9015C359.708 36.9398 360.041 37.0124 360.364 37.1183L403.146 51.134C404.732 51.6533 406.471 51.3482 407.785 50.3203L450.428 16.9628C450.861 16.6239 451.348 16.3588 451.867 16.1781L495.671 0.944831" stroke="#F5EAA2" stroke-width="2"/>
</svg>
