<svg width="146" height="33" viewBox="0 0 146 33" fill="none" xmlns="http://www.w3.org/2000/svg">
<rect width="146" height="32.6593" rx="16.2774" fill="white" fill-opacity="0.95"/>
<path d="M14.1293 18.9055L16.7159 10.9366H18.3488L15.1221 20.3425H13.0711L9.81823 10.9366H11.5688L14.1293 18.9055ZM20.8351 12.5173H19.1107V10.9366H20.8351V12.5173ZM20.7567 20.3425H19.1891V13.5493H20.7567V20.3425ZM27.041 18.3829H28.687C28.5041 19.0796 28.1253 19.6196 27.5505 20.0028C27.0018 20.3599 26.3268 20.5384 25.5256 20.5384C24.4195 20.5384 23.5573 20.1901 22.939 19.4933C22.3729 18.8576 22.0898 18.0084 22.0898 16.9459C22.0898 15.7266 22.4426 14.7947 23.148 14.1503C23.7402 13.619 24.511 13.3534 25.4603 13.3534C26.5663 13.3534 27.4024 13.7148 27.9685 14.4377C28.4998 15.1083 28.7654 16.0663 28.7654 17.3117H23.6836C23.7446 18.0433 23.971 18.5789 24.3629 18.9185C24.6765 19.1972 25.0858 19.3366 25.5909 19.3366C25.948 19.3366 26.2572 19.2495 26.5184 19.0753C26.7797 18.9011 26.9539 18.6703 27.041 18.3829ZM27.1586 16.2405C27.1237 15.6047 26.9321 15.1388 26.5838 14.8426C26.2964 14.5901 25.9219 14.4638 25.4603 14.4638C24.9552 14.4638 24.5502 14.6293 24.2454 14.9602C23.9667 15.2563 23.7881 15.6831 23.7097 16.2405H27.1586ZM38.4181 13.5493H39.9465L38.0131 20.3425H36.1319L34.708 15.1301L33.2579 20.3425H31.3636L29.4433 13.5493H31.0632L32.3696 18.8663L33.8196 13.5493H35.7008L37.0856 18.8663L38.4181 13.5493ZM51.6027 10.9366V12.3083H48.585V20.3425H46.9128V12.3083H43.9343V10.9366H51.6027ZM58.6119 13.5493L56.2212 20.46C55.9077 21.3745 55.5768 22.0059 55.2284 22.3543C54.88 22.7114 54.4271 22.8899 53.8698 22.8899C53.5911 22.8899 53.2819 22.8463 52.9422 22.7593V21.5835C53.2122 21.6532 53.4561 21.688 53.6738 21.688C53.9525 21.688 54.1746 21.5661 54.3401 21.3222C54.462 21.1394 54.6013 20.8128 54.7581 20.3425H54.2747L51.8057 13.5493H53.4909L55.2414 19.1406L57.0442 13.5493H58.6119ZM59.5539 13.5493H60.795L61.0693 14.3854C61.618 13.6974 62.3626 13.3534 63.3032 13.3534C64.2786 13.3534 65.0363 13.6974 65.5763 14.3854C66.064 15.0125 66.3078 15.8398 66.3078 16.8675C66.3078 18.0955 65.9725 19.0405 65.3019 19.7023C64.7445 20.2597 64.0348 20.5384 63.1725 20.5384C62.3016 20.5384 61.618 20.2205 61.1215 19.5848V22.6939H59.5539V13.5493ZM64.701 16.8806C64.701 16.0706 64.5094 15.4654 64.1262 15.0647C63.8214 14.7512 63.4164 14.5944 62.9113 14.5944C62.3278 14.5944 61.8662 14.8078 61.5265 15.2346C61.213 15.6439 61.0562 16.1882 61.0562 16.8675C61.0562 17.721 61.2478 18.3568 61.631 18.7748C61.9533 19.1232 62.3713 19.2974 62.8851 19.2974C63.4861 19.2974 63.9433 19.0753 64.2568 18.6311C64.5529 18.2131 64.701 17.6296 64.701 16.8806ZM72.2537 18.3829H73.8997C73.7168 19.0796 73.338 19.6196 72.7631 20.0028C72.2145 20.3599 71.5395 20.5384 70.7383 20.5384C69.6322 20.5384 68.77 20.1901 68.1517 19.4933C67.5856 18.8576 67.3025 18.0084 67.3025 16.9459C67.3025 15.7266 67.6552 14.7947 68.3607 14.1503C68.9529 13.619 69.7237 13.3534 70.673 13.3534C71.779 13.3534 72.6151 13.7148 73.1812 14.4377C73.7124 15.1083 73.9781 16.0663 73.9781 17.3117H68.8963C68.9573 18.0433 69.1837 18.5789 69.5756 18.9185C69.8891 19.1972 70.2985 19.3366 70.8036 19.3366C71.1607 19.3366 71.4698 19.2495 71.7311 19.0753C71.9924 18.9011 72.1666 18.6703 72.2537 18.3829ZM72.3712 16.2405C72.3364 15.6047 72.1448 15.1388 71.7964 14.8426C71.509 14.5901 71.1345 14.4638 70.673 14.4638C70.1678 14.4638 69.7629 14.6293 69.458 14.9602C69.1793 15.2563 69.0008 15.6831 68.9224 16.2405H72.3712ZM87.1341 15.2084V20.3425H85.9845L85.7494 19.3235C85.4446 19.7067 85.0483 20.0072 84.5606 20.2249C84.0729 20.4339 83.5286 20.5384 82.9276 20.5384C81.63 20.5384 80.5979 20.0681 79.8315 19.1275C79.1174 18.2479 78.7603 17.0765 78.7603 15.6134C78.7603 13.95 79.235 12.6828 80.1843 11.8119C80.9594 11.0977 81.9566 10.7406 83.1758 10.7406C84.308 10.7406 85.2443 11.0498 85.9845 11.6682C86.6116 12.1907 86.9904 12.857 87.1211 13.6669H85.4751C85.3444 13.1008 85.0527 12.6741 84.5998 12.3867C84.2166 12.1428 83.7419 12.0209 83.1758 12.0209C82.3136 12.0209 81.643 12.3475 81.164 13.0007C80.7112 13.6277 80.4847 14.4986 80.4847 15.6134C80.4847 16.8675 80.7895 17.8255 81.3992 18.4874C81.8782 19.0013 82.4748 19.2582 83.1889 19.2582C83.9379 19.2582 84.5475 19.0361 85.0178 18.5919C85.4446 18.1913 85.6579 17.7036 85.6579 17.1288V16.4234H83.1105V15.2084H87.1341ZM88.665 13.5493H90.2327V18.0171C90.2327 18.888 90.6594 19.3235 91.5129 19.3235C92.0094 19.3235 92.3969 19.145 92.6756 18.7879C92.902 18.4831 93.0153 18.1086 93.0153 17.6644V13.5493H94.5829V20.3425H93.2896L93.1198 19.5848C92.6321 20.2205 91.9527 20.5384 91.0818 20.5384C90.2806 20.5384 89.6666 20.2946 89.2398 19.8069C88.8566 19.3627 88.665 18.7531 88.665 17.9779V13.5493ZM97.9033 12.5173H96.1789V10.9366H97.9033V12.5173ZM97.8249 20.3425H96.2573V13.5493H97.8249V20.3425ZM105.912 20.3425H104.658L104.384 19.4672C103.852 20.1814 103.125 20.5384 102.202 20.5384C101.235 20.5384 100.473 20.1901 99.9158 19.4933C99.4106 18.8576 99.1581 18.0258 99.1581 16.9982C99.1581 15.7615 99.4847 14.8165 100.138 14.1633C100.678 13.6234 101.379 13.3534 102.241 13.3534C103.138 13.3534 103.839 13.6756 104.344 14.3201V10.9366H105.912V20.3425ZM100.765 17.0112C100.765 17.8125 100.956 18.409 101.34 18.801C101.653 19.1319 102.063 19.2974 102.568 19.2974C103.186 19.2974 103.656 19.0709 103.979 18.6181C104.266 18.2174 104.41 17.6775 104.41 16.9982C104.41 16.1447 104.209 15.5089 103.809 15.0909C103.495 14.7599 103.082 14.5944 102.568 14.5944C101.967 14.5944 101.51 14.8209 101.196 15.2738C100.909 15.6831 100.765 16.2622 100.765 17.0112ZM112.197 18.3829H113.844C113.661 19.0796 113.282 19.6196 112.707 20.0028C112.158 20.3599 111.483 20.5384 110.682 20.5384C109.576 20.5384 108.714 20.1901 108.095 19.4933C107.529 18.8576 107.246 18.0084 107.246 16.9459C107.246 15.7266 107.599 14.7947 108.304 14.1503C108.897 13.619 109.667 13.3534 110.617 13.3534C111.723 13.3534 112.559 13.7148 113.125 14.4377C113.656 15.1083 113.922 16.0663 113.922 17.3117H108.84C108.901 18.0433 109.128 18.5789 109.519 18.9185C109.833 19.1972 110.242 19.3366 110.747 19.3366C111.104 19.3366 111.414 19.2495 111.675 19.0753C111.936 18.9011 112.11 18.6703 112.197 18.3829ZM112.315 16.2405C112.28 15.6047 112.089 15.1388 111.74 14.8426C111.453 14.5901 111.078 14.4638 110.617 14.4638C110.112 14.4638 109.707 14.6293 109.402 14.9602C109.123 15.2563 108.945 15.6831 108.866 16.2405H112.315ZM116.834 10.9366V20.3425H115.266V10.9366H116.834ZM120.152 12.5173H118.428V10.9366H120.152V12.5173ZM120.074 20.3425H118.506V13.5493H120.074V20.3425ZM123.314 20.3425H121.747V13.5493H123.04L123.21 14.3593C123.706 13.6887 124.394 13.3534 125.274 13.3534C126.093 13.3534 126.72 13.606 127.155 14.1111C127.538 14.5552 127.73 15.1605 127.73 15.9269V20.3425H126.162V15.9661C126.162 15.0343 125.731 14.5683 124.869 14.5683C124.399 14.5683 124.016 14.7338 123.719 15.0647C123.449 15.3696 123.314 15.7528 123.314 16.2143V20.3425ZM133.949 18.3829H135.595C135.412 19.0796 135.033 19.6196 134.459 20.0028C133.91 20.3599 133.235 20.5384 132.434 20.5384C131.328 20.5384 130.465 20.1901 129.847 19.4933C129.281 18.8576 128.998 18.0084 128.998 16.9459C128.998 15.7266 129.351 14.7947 130.056 14.1503C130.648 13.619 131.419 13.3534 132.368 13.3534C133.474 13.3534 134.31 13.7148 134.877 14.4377C135.408 15.1083 135.673 16.0663 135.673 17.3117H130.592C130.653 18.0433 130.879 18.5789 131.271 18.9185C131.585 19.1972 131.994 19.3366 132.499 19.3366C132.856 19.3366 133.165 19.2495 133.427 19.0753C133.688 18.9011 133.862 18.6703 133.949 18.3829ZM134.067 16.2405C134.032 15.6047 133.84 15.1388 133.492 14.8426C133.204 14.5901 132.83 14.4638 132.368 14.4638C131.863 14.4638 131.458 14.6293 131.153 14.9602C130.875 15.2563 130.696 15.6831 130.618 16.2405H134.067Z" fill="black" fill-opacity="0.95"/>
<a>
<rect fill="black" fill-opacity="0" x="0.020462" y="0.898512" width="125.961" height="17.7359"/>
</a>
</svg>
