<svg width="559" height="400" viewBox="0 0 559 400" fill="none" xmlns="http://www.w3.org/2000/svg">
<path d="M277.806 310.25H286.681C288.056 310.25 289.056 309.25 289.181 307.875C290.431 286 309.431 268.75 331.931 270.375C351.681 271.75 367.681 287.75 369.056 307.5C370.681 330.875 352.181 350.375 329.181 350.375C310.056 350.375 294.181 336.625 290.431 319.125M377.806 310.25H426.556C438.931 310.25 449.056 300.125 449.056 287.75V82.75C449.056 70.375 438.931 60.25 426.556 60.25H131.556C119.181 60.25 109.056 70.375 109.056 82.75V287.75C109.056 300.125 119.181 310.25 131.556 310.25H186.681C188.056 310.25 189.056 309.25 189.181 307.875C190.431 286 209.431 268.75 231.931 270.375C251.681 271.75 267.681 287.75 269.056 307.5C270.681 330.875 252.181 350.375 229.181 350.375C210.056 350.375 194.181 336.625 190.431 319.125M250.306 234C254.056 246.25 265.556 255.25 279.056 255.25C294.556 255.25 307.306 243.5 308.931 228.375C309.056 226.75 310.681 225.875 312.181 226.375L339.056 235.375C354.056 240.375 374.056 246.625 374.056 266.625M304.056 152.75L309.056 167.75C311.556 175.25 309.056 177.75 304.056 177.75H296.556C290.931 177.75 286.181 181.5 284.556 186.625C283.931 188.75 281.931 190.25 279.806 190.25C273.931 190.25 269.056 185.5 269.056 179.5V155.25C269.056 147 262.306 140.25 254.056 140.25H246.681C245.181 140.25 244.056 139 244.181 137.625C245.556 116.375 263.556 99.75 285.181 100.375C306.931 101 324.056 119.375 324.056 141.25V185.25C324.056 201.625 310.681 215.375 294.306 215.5C264.431 215.625 239.431 183.625 239.056 161C238.931 157 241.806 153.375 245.806 153C250.306 152.5 254.056 156 254.056 160.5C254.056 160.5 254.056 195.5 254.056 210.5C254.056 225.5 249.056 225.5 234.056 230.5C219.056 235.5 234.056 230.5 219.056 235.5C204.056 240.5 184.056 246.75 184.056 266.75M109.056 180.375L162.806 126.625C174.556 114.875 193.556 114.875 205.181 126.625L230.181 151.625M334.056 175.25L357.806 151.5C369.556 139.75 388.556 139.75 400.181 151.5L448.931 200.25M340.306 305.25L349.556 299C350.431 298.5 351.556 299 351.556 300V320.125C351.556 321.125 350.306 321.75 349.556 321.125L340.306 314V305.25ZM340.306 305.25V320.25C340.306 323 338.056 325.25 335.306 325.25H320.306M311.556 324C311.556 324 310.306 322.75 310.306 320.25V300.25C310.306 297.5 312.556 295.25 315.306 295.25H335.306C337.806 295.25 339.056 296.5 339.056 296.5M346.556 289L305.306 330.25M241.556 332.75H216.556M220.306 316.5V296.5C220.306 291.625 224.181 287.75 229.056 287.75C233.931 287.75 237.806 291.625 237.806 296.5V299M237.806 307.75V314C237.806 318.875 233.931 322.75 229.056 322.75M229.056 322.75C227.181 322.75 225.431 322.5 224.056 321.5M229.056 322.75V324C229.056 328.875 232.931 332.75 237.806 332.75M249.056 287.75L207.806 329M429.056 100.25C429.056 111.296 420.101 120.25 409.056 120.25C398.01 120.25 389.056 111.296 389.056 100.25C389.056 89.2043 398.01 80.25 409.056 80.25C420.101 80.25 429.056 89.2043 429.056 100.25Z" stroke="url(#paint0_linear_1253_44650)" stroke-width="2.5" stroke-miterlimit="10" stroke-linecap="round" stroke-linejoin="round"/>
<path d="M289.056 160.25C290.436 160.25 291.556 159.131 291.556 157.75C291.556 156.369 290.436 155.25 289.056 155.25C287.675 155.25 286.556 156.369 286.556 157.75C286.556 159.131 287.675 160.25 289.056 160.25Z" fill="url(#paint1_linear_1253_44650)"/>
<defs>
<linearGradient id="paint0_linear_1253_44650" x1="279.056" y1="60.25" x2="279.056" y2="350.375" gradientUnits="userSpaceOnUse">
<stop stop-color="#93C437"/>
<stop offset="1" stop-color="#279BE8"/>
</linearGradient>
<linearGradient id="paint1_linear_1253_44650" x1="289.056" y1="155.25" x2="289.056" y2="160.25" gradientUnits="userSpaceOnUse">
<stop stop-color="#93C437"/>
<stop offset="1" stop-color="#279BE8"/>
</linearGradient>
</defs>
</svg>
