<svg width="357" height="316" viewBox="0 0 357 316" fill="none" xmlns="http://www.w3.org/2000/svg">
<path d="M136.858 132.457C136.858 135.414 139.217 137.801 142.139 137.801C148.124 137.801 151.927 141.719 151.927 146.351C151.927 149.771 149.638 151.837 147.103 152.514C146.47 152.692 145.977 151.979 146.329 151.445C148.758 147.74 145.942 144.641 145.942 142.076C145.942 139.724 147.35 137.801 149.11 137.801C149.92 137.801 150.659 138.192 151.223 138.869C152.279 135.378 155.518 132.813 159.321 132.813C163.546 132.813 166.327 134.879 167.771 139.226L168.827 142.432C169.531 144.569 168.475 144.926 167.771 144.926H167.067C166.679 144.926 166.362 145.246 166.362 145.638V148.417C166.362 150.198 164.954 151.694 163.229 151.694H161.257C160.201 151.694 159.321 152.585 159.321 153.654C159.321 154.722 160.201 155.613 161.257 155.613H163.968C167.172 155.613 170.094 157.43 171.538 160.351L176.89 171.146C177.383 172.107 178.333 172.713 179.425 172.713H192.205M125.204 137.801H127.915C128.971 137.801 129.851 136.91 129.851 135.841C129.851 134.772 128.971 133.882 127.915 133.882H125.943C124.183 133.882 122.81 132.386 122.81 130.604V127.826C122.81 127.434 122.493 127.113 122.106 127.113H121.401C120.697 127.113 119.641 126.757 120.345 124.619L121.401 121.413C122.845 117.067 125.626 115.001 129.851 115.001C134.534 115.001 138.301 118.812 138.301 123.551C138.301 127.113 136.893 128.182 136.893 132.457M126.401 117.886H129.851C130.379 117.886 130.732 118.456 130.485 118.919L129.464 120.986C129.323 121.271 129.394 121.591 129.605 121.805L130.556 122.767C130.837 123.052 131.013 123.479 130.978 123.907C130.626 127.327 127.774 129.999 124.324 129.999H120.099M156.152 145.638C154.955 145.638 154.004 144.641 154.039 143.429C154.075 142.254 155.096 141.363 156.222 141.363H157.173C157.631 141.363 158.088 141.185 158.405 140.829L158.933 140.294C159.567 139.653 159.743 138.656 159.321 137.836L158.757 136.696C158.511 136.233 158.863 135.663 159.391 135.663H162.842M192.17 172.749H202.733C204.282 172.749 205.549 171.466 205.549 169.899V158.499C205.549 156.931 204.282 155.649 202.733 155.649H185.833C184.283 155.649 183.016 156.931 183.016 158.499V170.255M125.063 137.801C121.542 137.801 119.078 139.938 116.613 144.926L113.198 151.837C112.494 153.297 111.543 154.188 109.431 154.188H102.178C101.614 154.188 101.086 154.01 100.628 153.725L98.1639 152.086C97.4597 151.623 96.6499 151.374 95.8049 151.374H94.0093C93.3755 151.374 92.8474 151.908 92.8474 152.549C92.8474 153.119 93.2347 153.582 93.798 153.689L96.3682 154.224C96.3682 154.224 97.0724 158.499 100.593 158.499M132.985 127.826C134.147 127.826 135.097 126.864 135.097 125.688C135.097 124.512 134.147 123.551 132.985 123.551M97.0724 151.338V139.226C97.0724 138.834 96.7555 138.513 96.3682 138.513H84.6791C84.503 138.513 84.327 138.584 84.1862 138.727L80.3837 142.574C80.2428 142.717 80.1724 142.895 80.1724 143.073V162.026C80.1724 162.417 80.4893 162.738 80.8766 162.738H96.3682C96.7555 162.738 97.0724 162.417 97.0724 162.026V159.888M84.7495 138.869V143.144H80.5245M61.6176 172.713C60.4557 172.713 59.4347 173.604 59.4347 174.779C59.3995 175.991 60.3501 176.988 61.5472 176.988V181.263H54.8576V171.288M61.8641 172.749C64.1878 172.749 66.0891 170.825 66.0891 168.474V166.692M57.6391 183.792C57.6391 183.792 56.0195 187.462 49.3299 186.963C41.2672 186.322 35.0705 179.411 35.1057 171.252C35.1409 164.163 39.3659 158.499 47.7807 154.259L48.2737 154.01C49.7172 153.297 50.5974 151.801 50.5974 150.198V141.791C50.5974 140.936 49.8932 140.294 49.013 140.366C48.2384 140.437 47.7103 141.185 47.7807 141.969C47.992 144.89 52.5339 150.02 58.0968 149.949C60.9839 149.913 63.2724 147.526 63.2724 144.605V136.767C63.2724 132.849 60.1037 129.642 56.2307 129.642C52.6043 129.642 49.6116 132.421 49.2243 135.984C49.1891 136.411 49.5059 136.767 49.9284 136.767H68.9057M59.7516 138.869C59.7516 138.869 60.5262 141.292 60.8078 142.076C61.1599 143.144 60.4557 143.501 59.7516 143.501H59.0474M152.702 173.426C152.702 173.426 151.927 175.848 151.645 176.632C151.293 177.701 151.997 178.057 152.702 178.057H153.406M175.939 204.063V196.511C175.939 193.269 174.108 190.312 171.256 188.851L166.996 186.714C165.588 186.001 164.672 184.505 164.672 182.902V172.001C164.672 167.654 161.222 164.163 156.927 164.163C152.631 164.163 149.181 167.654 149.181 172.001V178.769C149.181 181.904 151.716 184.469 154.814 184.469C157.912 184.469 160.447 181.904 160.447 178.769V173.426C160.447 171.858 159.18 170.576 157.631 170.576H151.645M136.506 199.824C144.956 199.824 144.956 186.999 153.406 186.999H154.814M136.506 199.824V191.274C136.506 190.49 135.872 189.849 135.097 189.849H130.168C129.394 189.849 128.76 190.49 128.76 191.274V196.974M136.506 199.824V202.674C136.506 203.457 135.872 204.099 135.097 204.099H130.168M126.647 201.605V198.399C126.647 197.615 127.281 196.974 128.056 196.974H130.168C131.33 196.974 132.281 197.936 132.281 199.111V201.961C132.281 203.137 131.33 204.099 130.168 204.099M130.168 204.099H106.931C106.543 204.099 106.227 203.778 106.227 203.386V199.824C106.227 199.432 106.543 199.111 106.931 199.111H113.972C116.296 199.111 118.197 197.187 118.197 194.836V179.874C118.197 177.522 116.296 175.599 113.972 175.599H91.4391C89.1153 175.599 87.2141 177.522 87.2141 179.874V194.836C87.2141 197.187 89.1153 199.111 91.4391 199.111H98.4807C98.868 199.111 99.1849 199.432 99.1849 199.824V203.386C99.1849 203.778 98.868 204.099 98.4807 204.099H84.7143C83.658 204.099 82.6722 203.493 82.1793 202.531L76.8276 191.737C75.3841 188.851 72.4618 186.999 69.2578 186.999H66.5468C65.4905 186.999 64.6103 186.108 64.6103 185.039C64.6103 183.971 65.4905 183.08 66.5468 183.08H68.5184C70.2789 183.08 71.652 181.584 71.652 179.802V177.024C71.652 176.632 71.9689 176.311 72.3562 176.311H73.0603C73.7645 176.311 74.8207 175.955 74.1166 173.817L73.0603 170.611C71.6168 166.265 68.8353 164.199 64.6103 164.199H61.7937C57.9207 164.199 54.752 167.405 54.752 171.324M201.289 121.057C201.289 121.057 200.514 123.479 200.233 124.263C199.881 125.332 200.585 125.688 201.289 125.688H201.993M212.908 121.449C210.443 121.449 209.035 120.024 207.627 118.599C206.218 117.174 204.81 115.749 202.345 115.749C199.81 115.749 197.768 117.815 197.768 120.38V127.505C197.768 130.462 200.127 132.849 203.049 132.849H204.106C204.88 132.849 205.514 133.49 205.514 134.274C205.514 135.057 204.88 135.699 204.106 135.699H200.867C197.663 135.699 194.74 137.516 193.297 140.437L188.579 149.949M203.754 113.611C206.218 113.611 207.627 115.036 209.035 116.461C210.443 117.886 211.852 119.311 214.316 119.311M205.162 111.438C207.627 111.438 209.035 112.863 210.443 114.288C211.852 115.713 213.26 117.138 215.724 117.138M222.414 147.063L216.781 129.963C215.724 127.113 212.556 127.113 212.556 127.113H210.443C209.281 127.113 208.331 128.075 208.331 129.251V130.676C208.331 132.635 209.915 134.238 211.852 134.238C212.485 134.238 213.013 134.666 213.154 135.271L213.964 138.513L217.274 151.979C217.802 154.117 219.703 155.613 221.886 155.613C224.491 155.613 226.639 153.476 226.639 150.804V140.651C226.639 137.907 224.421 135.663 221.71 135.663M214.668 127.469V124.619C214.668 123.836 214.034 123.194 213.26 123.194H211.147C210.373 123.194 209.739 123.836 209.739 124.619V127.113M228.047 195.549H238.962C240.089 195.549 241.145 196.012 241.955 196.796L245.581 200.465C246.004 200.892 246.004 201.605 245.581 202.032C245.229 202.389 244.631 202.46 244.208 202.175L240.722 199.824M241.427 160.244C241.427 160.244 242.201 162.667 242.483 163.451C242.835 164.519 242.131 164.876 241.427 164.876H240.018C238.856 164.876 237.906 165.837 237.906 167.013C237.906 167.405 237.589 167.726 237.202 167.726C236.04 167.726 235.089 166.764 235.089 165.588V162.026C235.089 160.458 233.822 159.176 232.272 159.176H231.568C231.181 159.176 230.864 158.855 230.864 158.463C230.864 154.437 234.174 151.196 238.152 151.338C241.955 151.481 244.947 154.758 244.947 158.641V166.657C244.947 169.578 242.659 171.965 239.772 172.001C234.209 172.072 229.632 166.871 229.456 163.949C229.421 163.201 229.984 162.453 230.723 162.382C231.568 162.311 232.272 162.952 232.272 163.807V171.929C232.272 173.532 231.357 175.029 229.949 175.741L225.688 177.879C222.837 179.339 221.006 182.296 221.006 185.538V196.938C221.006 199.289 222.907 201.213 225.231 201.213H236.145C237.272 201.213 238.328 201.676 239.138 202.46L242.096 205.452C242.941 206.307 244.278 206.521 245.335 205.987L249.137 204.063M263.608 135.663C263.608 135.663 262.833 138.086 262.552 138.869C262.199 139.938 262.904 140.294 263.608 140.294H264.312M274.874 135.307C272.762 135.307 271.354 133.882 269.945 132.457C268.537 131.032 267.129 129.607 264.664 129.607C262.129 129.607 260.087 131.673 260.087 134.238V141.363C260.087 144.284 262.376 146.671 265.263 146.707C270.826 146.778 275.403 141.577 275.579 138.656C275.614 137.907 275.051 137.159 274.311 137.088C273.466 137.017 272.762 137.658 272.762 138.513V147.063M258.679 131.388C258.679 128.253 261.214 125.688 264.312 125.688C266.072 125.688 267.833 125.688 267.833 125.688C273.29 125.688 277.691 130.141 277.691 135.663V137.444C277.691 139.582 279.099 140.294 279.804 141.007C280.508 141.719 281.916 142.788 281.916 144.926C281.916 147.063 280.508 148.488 280.508 148.488M272.762 147.419C272.762 148.987 274.029 150.269 275.579 150.269H276.67C278.923 150.269 281.071 151.124 282.691 152.692L287.057 156.931C287.338 157.181 287.761 157.181 288.042 156.931L296.704 148.488C296.704 145.211 299.767 143.429 301.246 142.752C301.668 142.539 302.196 142.646 302.548 143.002C303.006 143.465 303.006 144.249 302.478 144.712L300.577 146.386C301.598 148.132 301.281 151.231 298.992 152.692C298.887 152.763 298.816 152.87 298.816 152.977V155.613C298.816 156.005 299.133 156.326 299.52 156.326H313.956M298.816 141.363V133.526C298.816 133.134 299.133 132.813 299.52 132.813H310.857C311.033 132.813 311.209 132.884 311.35 133.027L315.153 136.874C315.294 137.017 315.364 137.195 315.364 137.373V144.213M310.787 133.169V137.444H315.012M300.577 172.713C301.774 172.713 302.724 171.716 302.689 170.504C302.654 169.329 301.633 168.438 300.506 168.438H299.556C299.098 168.438 298.64 168.26 298.323 167.904L297.795 167.369C297.161 166.728 296.985 165.731 297.408 164.911L297.971 163.771C298.218 163.308 297.866 162.738 297.337 162.738H293.887M304.449 177.38C304.449 180.337 306.808 182.724 309.731 182.724C313.956 182.724 319.589 177.024 319.589 167.049C319.589 160.921 317.019 154.794 311.878 149.272C311.491 148.844 311.491 148.167 311.914 147.776C312.301 147.384 312.899 147.348 313.322 147.669L315.399 149.236V144.249C317.723 144.249 319.624 146.172 319.624 148.524V151.374M267.938 205.524C264.171 205.524 262.305 203.386 262.305 203.386L260.897 203.279C260.157 203.208 259.453 202.959 258.89 202.46C258.221 201.854 257.763 200.999 257.693 200.073V199.325C257.693 198.363 258.327 197.686 259.101 197.651L261.319 197.615C262.094 197.544 262.868 197.793 263.502 198.256L265.403 199.61C265.65 199.788 265.932 199.859 266.213 199.859H279.099L285.226 187.497C286.669 184.612 289.592 182.759 292.796 182.759H295.507C296.563 182.759 297.443 181.869 297.443 180.8C297.443 179.731 296.563 178.841 295.507 178.841H293.535C291.774 178.841 290.401 177.344 290.401 175.563V172.784C290.401 172.392 290.084 172.072 289.697 172.072H288.993C288.289 172.072 287.233 171.716 287.937 169.578L288.993 166.372C290.437 162.026 293.218 159.959 297.443 159.959C302.126 159.959 305.893 163.771 305.893 168.509C305.893 172.072 304.485 173.141 304.485 177.416M273.783 152.799C272.868 154.687 271.072 156.005 268.854 156.005C265.967 156.005 263.573 153.796 263.256 150.946C263.221 150.59 262.904 150.305 262.552 150.305H258.679C256.284 150.305 254.066 151.694 253.01 153.867L248.468 163.13M246.919 189.314C244.701 187.854 243.293 185.217 243.68 182.261C244.102 178.912 246.673 176.347 249.982 175.991C254.313 175.492 257.974 178.912 257.974 183.222C257.974 188.424 253.468 190.775 250.792 189.635C250.792 189.635 248.257 187.925 248.257 184.932C248.257 181.014 253.362 180.871 253.327 184.932C253.327 186.714 252.236 188.246 251.214 189.207L249.102 190.917L246.567 193.055H253.538C254.137 193.055 254.594 193.518 254.594 194.124C254.594 194.729 254.137 195.192 253.538 195.192H249.736C249.137 195.192 248.679 195.656 248.679 196.261C248.679 196.867 249.137 197.33 249.736 197.33H252.13M195.128 186.714V183.294C195.128 181.406 196.642 179.874 198.508 179.874C200.374 179.874 201.888 181.406 201.888 183.294V186.714H192.17C191.219 186.714 190.48 187.462 190.48 188.424V199.539C190.48 200.501 191.219 201.249 192.17 201.249H192.593C195.726 201.249 200.198 197.829 200.198 194.836C200.198 193.874 199.458 193.126 198.508 193.126C197.557 193.126 196.818 193.874 196.818 194.836C196.818 197.829 201.289 201.249 204.423 201.249H204.845C205.796 201.249 206.535 200.501 206.535 199.539V188.424C206.535 187.462 205.761 186.714 204.845 186.714C204.493 186.714 204.282 186.714 204.423 186.714M122.422 173.354V157.145M124.957 154.544V175.955M130.027 157.145V173.354M127.492 170.789V159.674M132.562 162.239V168.224M135.097 166.087V164.377M246.497 123.871L249.665 120.665C250.053 120.273 249.982 119.632 249.56 119.169C249.137 118.741 248.468 118.67 248.081 119.062L243.011 124.192V125.795H244.56M251.496 118.812H253.045V120.416L247.975 125.546C247.588 125.937 246.954 125.866 246.497 125.439C246.074 125.011 246.004 124.334 246.391 123.942L249.454 120.843M249.595 120.701C249.595 120.701 248.257 121.271 247.025 120.166C247.025 120.166 246.461 119.739 246.321 118.67M248.996 124.441C247.764 123.372 246.426 123.907 246.426 123.907M250.933 125.332V126.472C250.933 127.434 250.193 128.182 249.243 128.182H231.498C230.547 128.182 229.808 127.434 229.808 126.472V114.502C229.808 113.54 230.547 112.792 231.498 112.792H249.243C250.193 112.792 250.933 113.54 250.933 114.502V116.639M179.988 129.927C179.073 130.212 178.087 130.355 177.101 130.355C171.503 130.355 166.961 125.759 166.961 120.095C166.961 114.431 171.503 109.835 177.101 109.835C182.699 109.835 187.241 114.431 187.241 120.095C187.241 124.94 184.495 127.79 181.115 127.79C180.516 127.79 179.918 127.683 179.354 127.469C176.925 126.579 174.918 124.762 173.791 122.375L173.651 122.09C172.524 119.703 172.418 116.996 173.298 114.502L173.369 114.395C173.474 114.074 173.721 113.825 174.038 113.647L174.636 113.362C175.27 113.041 176.045 113.326 176.362 113.967L177.207 115.784C177.523 116.426 177.242 117.209 176.608 117.53L176.009 117.815C176.009 117.815 175.622 117.993 175.376 118.136C174.988 118.314 174.777 119.952 175.481 121.484C176.186 122.981 177.735 123.729 177.981 123.622C178.228 123.515 178.58 123.337 178.58 123.337L179.178 123.052C179.812 122.731 180.587 123.016 180.903 123.657L181.784 125.546M99.3962 114.039V117.423L97.7062 117.423C97.2484 117.423 96.8612 117.815 96.8612 118.278V124.477C96.8612 124.833 97.1428 125.118 97.4949 125.118H103.621C104.079 125.118 104.466 124.726 104.466 124.263V118.278C104.466 117.815 104.079 117.423 103.621 117.423H101.649M103.199 117.423H106.156C106.614 117.423 107.001 117.031 107.001 116.568V114.003M104.466 121.306H107.846M107.846 121.306C107.846 122.251 108.603 123.016 109.536 123.016C110.47 123.016 111.226 122.251 111.226 121.306C111.226 120.362 110.47 119.596 109.536 119.596C108.603 119.596 107.846 120.362 107.846 121.306ZM96.8612 121.271H93.4812M98.1287 125.118H95.1712C94.7135 125.118 94.3262 125.51 94.3262 125.973V128.538M101.931 125.118V128.538M120.063 129.963C120.063 130.75 119.433 131.388 118.655 131.388C117.877 131.388 117.247 130.75 117.247 129.963C117.247 129.176 117.877 128.538 118.655 128.538C119.433 128.538 120.063 129.176 120.063 129.963ZM282.972 202.674C282.972 203.671 282.198 204.455 281.212 204.455C279.452 204.455 277.797 202.46 279.099 199.824C281.564 199.824 282.972 201.249 282.972 202.674ZM108.656 112.293C108.656 113.237 107.899 114.003 106.966 114.003C106.033 114.003 105.276 113.237 105.276 112.293C105.276 111.349 106.033 110.583 106.966 110.583C107.899 110.583 108.656 111.349 108.656 112.293ZM101.086 112.293C101.086 113.237 100.33 114.003 99.3962 114.003C98.4628 114.003 97.7062 113.237 97.7062 112.293C97.7062 111.349 98.4628 110.583 99.3962 110.583C100.33 110.583 101.086 111.349 101.086 112.293ZM103.621 130.284C103.621 131.228 102.865 131.994 101.931 131.994C100.998 131.994 100.241 131.228 100.241 130.284C100.241 129.339 100.998 128.574 101.931 128.574C102.865 128.574 103.621 129.339 103.621 130.284ZM96.0866 130.284C96.0866 131.228 95.3299 131.994 94.3966 131.994C93.4632 131.994 92.7066 131.228 92.7066 130.284C92.7066 129.339 93.4632 128.574 94.3966 128.574C95.3299 128.574 96.0866 129.339 96.0866 130.284ZM93.4812 121.306C93.4812 122.251 92.7245 123.016 91.7912 123.016C90.8578 123.016 90.1012 122.251 90.1012 121.306C90.1012 120.362 90.8578 119.596 91.7912 119.596C92.7245 119.596 93.4812 120.362 93.4812 121.306Z" stroke="url(#paint0_linear_1266_34750)" stroke-width="2.5" stroke-miterlimit="10" stroke-linecap="round" stroke-linejoin="round"/>
<path d="M124.535 123.194C124.924 123.194 125.239 122.875 125.239 122.482C125.239 122.088 124.924 121.769 124.535 121.769C124.146 121.769 123.831 122.088 123.831 122.482C123.831 122.875 124.146 123.194 124.535 123.194Z" fill="#537EE5"/>
<path d="M164.602 141.007C164.991 141.007 165.306 140.688 165.306 140.294C165.306 139.901 164.991 139.582 164.602 139.582C164.213 139.582 163.898 139.901 163.898 140.294C163.898 140.688 164.213 141.007 164.602 141.007Z" fill="#537EE5"/>
<path d="M69.9621 172.357C70.3511 172.357 70.6663 172.038 70.6663 171.644C70.6663 171.251 70.3511 170.932 69.9621 170.932C69.5732 170.932 69.258 171.251 69.258 171.644C69.258 172.038 69.5732 172.357 69.9621 172.357Z" fill="#537EE5"/>
<path d="M56.2309 140.294C56.6198 140.294 56.9351 139.975 56.9351 139.582C56.9351 139.188 56.6198 138.869 56.2309 138.869C55.842 138.869 55.5267 139.188 55.5267 139.582C55.5267 139.975 55.842 140.294 56.2309 140.294Z" fill="#537EE5"/>
<path d="M156.223 174.851C156.611 174.851 156.927 174.532 156.927 174.138C156.927 173.745 156.611 173.426 156.223 173.426C155.834 173.426 155.518 173.745 155.518 174.138C155.518 174.532 155.834 174.851 156.223 174.851Z" fill="#537EE5"/>
<path d="M204.81 122.482C205.199 122.482 205.514 122.163 205.514 121.769C205.514 121.376 205.199 121.057 204.81 121.057C204.421 121.057 204.106 121.376 204.106 121.769C204.106 122.163 204.421 122.482 204.81 122.482Z" fill="#537EE5"/>
<path d="M237.906 161.669C238.295 161.669 238.61 161.35 238.61 160.957C238.61 160.563 238.295 160.244 237.906 160.244C237.517 160.244 237.202 160.563 237.202 160.957C237.202 161.35 237.517 161.669 237.906 161.669Z" fill="#537EE5"/>
<path d="M267.129 137.088C267.518 137.088 267.833 136.769 267.833 136.376C267.833 135.982 267.518 135.663 267.129 135.663C266.74 135.663 266.425 135.982 266.425 136.376C266.425 136.769 266.74 137.088 267.129 137.088Z" fill="#537EE5"/>
<path d="M292.127 168.082C292.516 168.082 292.831 167.763 292.831 167.369C292.831 166.976 292.516 166.657 292.127 166.657C291.738 166.657 291.423 166.976 291.423 167.369C291.423 167.763 291.738 168.082 292.127 168.082Z" fill="#537EE5"/>
<path d="M137.632 165.98C138.021 165.98 138.337 165.661 138.337 165.268C138.337 164.874 138.021 164.555 137.632 164.555C137.244 164.555 136.928 164.874 136.928 165.268C136.928 165.661 137.244 165.98 137.632 165.98Z" fill="#537EE5"/>
<path d="M140.168 165.98C140.556 165.98 140.872 165.661 140.872 165.268C140.872 164.874 140.556 164.555 140.168 164.555C139.779 164.555 139.463 164.874 139.463 165.268C139.463 165.661 139.779 165.98 140.168 165.98Z" fill="#537EE5"/>
<defs>
<linearGradient id="paint0_linear_1266_34750" x1="177.365" y1="109.835" x2="177.365" y2="206.278" gradientUnits="userSpaceOnUse">
<stop stop-color="#279BE8"/>
<stop offset="1" stop-color="#875AE0"/>
</linearGradient>
</defs>
</svg>
