<svg width="1150" height="678" viewBox="0 0 1150 678" fill="none" xmlns="http://www.w3.org/2000/svg">
<rect width="1150" height="678" rx="24" fill="#262626"/>
<path d="M386.876 67.8115H343.126C339.398 67.8156 335.823 69.2985 333.187 71.9348C330.551 74.5712 329.068 78.1457 329.064 81.874V138.124C329.068 141.852 330.551 145.427 333.187 148.063C335.823 150.7 339.398 152.182 343.126 152.187H386.876C390.604 152.182 394.179 150.7 396.815 148.063C399.452 145.427 400.935 141.852 400.939 138.124V81.874C400.935 78.1457 399.452 74.5712 396.815 71.9348C394.179 69.2985 390.604 67.8156 386.876 67.8115ZM377.431 134.944H370.006L364.983 114.094L360.182 134.944H353.02L346.532 107.948H353.057L357.146 127.895L361.681 107.948H368.694L373.607 128.011L377.507 107.948H383.47L377.431 134.944Z" fill="white" fill-opacity="0.95"/>
<path d="M386.876 206.25H343.126C338.984 206.255 335.013 207.903 332.083 210.832C329.154 213.761 327.506 217.732 327.501 221.875V278.125C327.506 282.268 329.154 286.239 332.083 289.168C335.013 292.097 338.984 293.745 343.126 293.75H386.876C391.019 293.745 394.99 292.097 397.92 289.168C400.849 286.239 402.497 282.268 402.501 278.125V221.875C402.497 217.732 400.849 213.761 397.92 210.832C394.99 207.903 391.019 206.255 386.876 206.25ZM396.251 278.125C396.249 280.611 395.26 282.994 393.503 284.751C391.745 286.509 389.362 287.497 386.876 287.5H343.126C340.641 287.497 338.258 286.509 336.5 284.751C334.743 282.994 333.754 280.611 333.751 278.125V221.875C333.754 219.389 334.743 217.006 336.5 215.249C338.258 213.491 340.641 212.503 343.126 212.5H386.876C389.362 212.503 391.745 213.491 393.503 215.249C395.26 217.006 396.249 219.389 396.251 221.875V278.125Z" fill="white" fill-opacity="0.95"/>
<path d="M373.606 268.009L368.694 247.947H361.681L357.147 267.897L353.056 247.947H346.531L353.019 274.944H360.181L364.984 254.097L370.006 274.944H377.431L383.472 247.947H377.506L373.606 268.009Z" fill="white" fill-opacity="0.95"/>
<path d="M386.876 347.031H343.126C339.191 347.036 335.418 348.601 332.635 351.384C329.853 354.167 328.287 357.94 328.283 361.875V418.125C328.287 422.06 329.853 425.833 332.635 428.616C335.418 431.399 339.191 432.964 343.126 432.969H386.876C390.812 432.964 394.585 431.399 397.368 428.616C400.15 425.833 401.716 422.06 401.72 418.125V361.875C401.716 357.94 400.15 354.167 397.368 351.384C394.585 348.601 390.812 347.036 386.876 347.031ZM397.033 418.125C397.03 420.818 395.959 423.399 394.055 425.303C392.151 427.207 389.569 428.278 386.876 428.281H343.126C340.434 428.278 337.852 427.207 335.948 425.303C334.044 423.399 332.973 420.818 332.97 418.125V361.875C332.973 359.182 334.044 356.601 335.948 354.697C337.852 352.793 340.434 351.722 343.126 351.719H386.876C389.569 351.722 392.151 352.793 394.055 354.697C395.959 356.601 397.03 359.182 397.033 361.875V418.125Z" fill="white" fill-opacity="0.95"/>
<path d="M373.344 409.394L367.869 387.947H362.206L356.659 409.394L351.594 387.947H346.644L353.509 414.944H359.169L364.869 392.897L370.531 414.944H376.159L382.869 387.947H378.372L373.344 409.394Z" fill="white" fill-opacity="0.95"/>
<path d="M386.876 487.812H343.126C339.398 487.817 335.824 489.299 333.187 491.936C330.551 494.572 329.068 498.147 329.064 501.875V558.125C329.068 561.853 330.551 565.428 333.187 568.064C335.824 570.701 339.398 572.183 343.126 572.188H386.876C390.605 572.183 394.179 570.701 396.816 568.064C399.452 565.428 400.935 561.853 400.939 558.125V501.875C400.935 498.147 399.452 494.572 396.816 491.936C394.179 489.299 390.605 487.817 386.876 487.812ZM397.814 558.125C397.81 561.025 396.657 563.805 394.607 565.855C392.556 567.906 389.776 569.059 386.876 569.062H343.126C340.227 569.059 337.447 567.906 335.396 565.855C333.346 563.805 332.192 561.025 332.189 558.125V501.875C332.192 498.975 333.346 496.195 335.396 494.145C337.447 492.094 340.227 490.941 343.126 490.938H386.876C389.776 490.941 392.556 492.094 394.607 494.145C396.657 496.195 397.81 498.975 397.814 501.875V558.125Z" fill="white" fill-opacity="0.95"/>
<path d="M373.156 550.334L367.309 527.947H362.544L356.356 550.406L350.619 527.947H346.719L353.806 554.944H358.494L364.794 532.069L370.906 554.944H375.331L382.456 527.947H378.931L373.156 550.334Z" fill="white" fill-opacity="0.95"/>
<path d="M507.856 80.6055C507.61 80.0531 507.209 79.5839 506.702 79.2546C506.196 78.9253 505.604 78.75 504.999 78.75C504.395 78.75 503.803 78.9253 503.296 79.2546C502.789 79.5839 502.389 80.0531 502.143 80.6055L477.143 136.855C476.975 137.231 476.883 137.636 476.872 138.047C476.86 138.458 476.93 138.867 477.077 139.251C477.224 139.635 477.446 139.986 477.729 140.284C478.012 140.582 478.351 140.822 478.727 140.989C479.102 141.156 479.507 141.247 479.918 141.257C480.329 141.267 480.738 141.196 481.122 141.048C481.506 140.9 481.856 140.678 482.154 140.394C482.451 140.11 482.69 139.771 482.856 139.395L490.364 122.5H519.635L527.143 139.395C527.309 139.771 527.548 140.11 527.845 140.394C528.143 140.678 528.493 140.9 528.877 141.048C529.26 141.196 529.669 141.267 530.08 141.257C530.491 141.247 530.896 141.156 531.272 140.989C531.648 140.822 531.987 140.582 532.27 140.284C532.553 139.986 532.774 139.635 532.921 139.251C533.069 138.867 533.139 138.458 533.127 138.047C533.116 137.636 533.024 137.231 532.856 136.855L507.856 80.6055ZM493.142 116.25L504.999 89.5685L516.857 116.25H493.142Z" fill="white" fill-opacity="0.95"/>
<path d="M533.124 66.25H476.874C472.732 66.2549 468.76 67.9026 465.831 70.8318C462.902 73.761 461.254 77.7325 461.249 81.875V138.125C461.254 142.268 462.902 146.239 465.831 149.168C468.76 152.097 472.732 153.745 476.874 153.75H533.124C537.267 153.745 541.238 152.097 544.168 149.168C547.097 146.239 548.745 142.268 548.749 138.125V81.875C548.745 77.7325 547.097 73.761 544.168 70.8318C541.238 67.9026 537.267 66.2549 533.124 66.25ZM542.499 138.125C542.497 140.611 541.508 142.994 539.751 144.751C537.993 146.509 535.61 147.497 533.124 147.5H476.874C474.389 147.497 472.006 146.509 470.248 144.751C468.491 142.994 467.502 140.611 467.499 138.125V81.875C467.502 79.3894 468.491 77.0064 470.248 75.2489C472.006 73.4913 474.389 72.5027 476.874 72.5H533.124C535.61 72.5027 537.993 73.4913 539.751 75.2489C541.508 77.0064 542.497 79.3894 542.499 81.875V138.125Z" fill="white" fill-opacity="0.95"/>
<path d="M507.142 220.923C506.931 220.539 506.621 220.219 506.244 219.996C505.867 219.773 505.437 219.655 504.999 219.655C504.561 219.655 504.132 219.773 503.755 219.996C503.378 220.219 503.068 220.539 502.857 220.923L477.857 277.173C477.732 277.454 477.664 277.757 477.656 278.065C477.648 278.373 477.701 278.679 477.811 278.967C477.922 279.254 478.088 279.517 478.3 279.74C478.512 279.963 478.766 280.142 479.047 280.267C479.329 280.392 479.632 280.461 479.94 280.469C480.247 280.477 480.554 280.424 480.841 280.313C481.128 280.203 481.391 280.037 481.614 279.825C481.837 279.612 482.017 279.358 482.142 279.077L489.856 261.719H520.142L527.857 279.077C528.109 279.645 528.577 280.09 529.158 280.313C529.738 280.536 530.383 280.52 530.951 280.267C531.52 280.015 531.964 279.547 532.187 278.967C532.411 278.386 532.394 277.741 532.142 277.173L507.142 220.923ZM491.94 257.031L504.999 227.646L518.059 257.031H491.94Z" fill="white" fill-opacity="0.95"/>
<path d="M533.124 207.031H476.874C472.939 207.036 469.166 208.601 466.383 211.384C463.6 214.167 462.035 217.94 462.031 221.875V278.125C462.035 282.06 463.6 285.833 466.383 288.616C469.166 291.399 472.939 292.964 476.874 292.969H533.124C537.06 292.964 540.833 291.399 543.616 288.616C546.398 285.833 547.964 282.06 547.968 278.125V221.875C547.964 217.94 546.398 214.167 543.616 211.384C540.833 208.601 537.06 207.036 533.124 207.031ZM543.281 278.125C543.278 280.818 542.207 283.399 540.303 285.303C538.399 287.207 535.817 288.278 533.124 288.281H476.874C474.182 288.278 471.6 287.207 469.696 285.303C467.792 283.399 466.721 280.818 466.718 278.125V221.875C466.721 219.182 467.792 216.601 469.696 214.697C471.6 212.793 474.182 211.722 476.874 211.719H533.124C535.817 211.722 538.399 212.793 540.303 214.697C542.207 216.601 543.278 219.182 543.281 221.875V278.125Z" fill="white" fill-opacity="0.95"/>
<path d="M506.428 361.24C506.287 360.984 506.081 360.77 505.83 360.621C505.578 360.472 505.292 360.393 504.999 360.393C504.707 360.393 504.42 360.472 504.169 360.621C503.918 360.77 503.711 360.984 503.571 361.24L478.571 417.49C478.403 417.869 478.392 418.299 478.541 418.686C478.689 419.073 478.986 419.385 479.365 419.553C479.743 419.722 480.174 419.733 480.56 419.584C480.947 419.435 481.259 419.139 481.428 418.76L489.351 400.933L489.374 400.938H520.624L520.648 400.933L528.571 418.76C528.655 418.947 528.774 419.117 528.923 419.258C529.072 419.399 529.247 419.51 529.438 419.584C529.63 419.657 529.834 419.693 530.039 419.687C530.244 419.682 530.447 419.637 530.634 419.553C530.822 419.47 530.991 419.35 531.132 419.202C531.274 419.053 531.384 418.878 531.458 418.686C531.532 418.495 531.567 418.29 531.562 418.085C531.557 417.88 531.511 417.678 531.428 417.49L506.428 361.24ZM490.738 397.812L504.999 365.723L519.261 397.812H490.738Z" fill="white" fill-opacity="0.95"/>
<path d="M533.124 347.812H476.874C473.146 347.817 469.572 349.299 466.935 351.936C464.299 354.572 462.816 358.147 462.812 361.875V418.125C462.816 421.853 464.299 425.428 466.935 428.064C469.572 430.701 473.146 432.183 476.874 432.188H533.124C536.853 432.183 540.427 430.701 543.064 428.064C545.7 425.428 547.183 421.853 547.187 418.125V361.875C547.183 358.147 545.7 354.572 543.064 351.936C540.427 349.299 536.853 347.817 533.124 347.812ZM544.062 418.125C544.058 421.025 542.905 423.805 540.854 425.855C538.804 427.906 536.024 429.059 533.124 429.062H476.874C473.975 429.059 471.195 427.906 469.144 425.855C467.094 423.805 465.94 421.025 465.937 418.125V361.875C465.94 358.975 467.094 356.195 469.144 354.145C471.195 352.094 473.975 350.941 476.874 350.938H533.124C536.024 350.941 538.804 352.094 540.854 354.145C542.905 356.195 544.058 358.975 544.062 361.875V418.125Z" fill="white" fill-opacity="0.95"/>
<path d="M673.124 78.749H616.874C612.732 78.7539 608.76 80.4016 605.831 83.3309C602.902 86.2601 601.254 90.2315 601.249 94.374V125.624C601.254 129.767 602.902 133.738 605.831 136.667C608.76 139.596 612.732 141.244 616.874 141.249H673.124C677.267 141.244 681.238 139.596 684.168 136.667C687.097 133.738 688.745 129.767 688.749 125.624V94.374C688.745 90.2315 687.097 86.2601 684.168 83.3309C681.238 80.4017 677.267 78.7539 673.124 78.749ZM682.499 125.624C682.497 128.11 681.508 130.493 679.751 132.25C677.993 134.008 675.61 134.996 673.124 134.999H616.874C614.389 134.996 612.006 134.008 610.248 132.25C608.491 130.493 607.502 128.11 607.499 125.624V94.374C607.502 91.8885 608.491 89.5055 610.248 87.7479C612.006 85.9903 614.389 85.0017 616.874 84.999H673.124C675.61 85.0017 677.993 85.9903 679.751 87.7479C681.508 89.5055 682.497 91.8885 682.499 94.374V125.624Z" fill="white" fill-opacity="0.95"/>
<path d="M626.073 118.613C626.598 119.284 627.264 119.821 628.019 120.182C628.775 120.543 629.6 120.718 630.432 120.693C634.325 120.693 636.418 118.446 636.711 113.951H643.55C643.447 115.704 642.995 117.415 642.224 118.977C641.453 120.539 640.379 121.918 639.07 123.026C636.5 124.858 633.425 125.764 630.314 125.607C628.426 125.71 626.54 125.362 624.8 124.59C623.061 123.818 621.514 122.642 620.278 121.153C617.9 117.947 616.706 113.959 616.915 109.915C616.76 107.709 617.054 105.494 617.778 103.414C618.503 101.335 619.64 99.4378 621.117 97.8476C623.736 95.4488 627.151 94.2091 630.635 94.3928C633.862 94.2448 637.031 95.324 639.551 97.4289C641.637 99.3222 642.988 101.942 643.351 104.798H636.633C636.518 103.246 635.828 101.801 634.709 100.769C633.59 99.736 632.129 99.1958 630.635 99.2619C629.617 99.2152 628.607 99.4576 627.712 99.9631C626.817 100.469 626.071 101.218 625.554 102.131C624.327 104.518 623.759 107.212 623.914 109.915C623.672 112.984 624.433 116.049 626.073 118.613Z" fill="white" fill-opacity="0.95"/>
<path d="M655.648 118.613C656.173 119.284 656.839 119.821 657.594 120.182C658.35 120.543 659.176 120.718 660.007 120.693C663.897 120.693 665.99 118.446 666.287 113.951H673.125C673.021 115.703 672.569 117.415 671.798 118.977C671.027 120.539 669.954 121.918 668.646 123.026C666.074 124.858 662.998 125.764 659.886 125.607C657.997 125.71 656.111 125.362 654.372 124.59C652.632 123.818 651.085 122.642 649.849 121.153C647.474 117.945 646.282 113.958 646.491 109.915C646.335 107.709 646.628 105.494 647.352 103.415C648.075 101.335 649.212 99.4381 650.689 97.8476C653.308 95.45 656.722 94.2105 660.206 94.3928C663.435 94.2455 666.605 95.3245 669.126 97.4289C671.211 99.3226 672.56 101.943 672.922 104.798H666.205C666.09 103.245 665.401 101.8 664.281 100.767C663.162 99.7342 661.701 99.1945 660.206 99.2619C659.189 99.2153 658.179 99.4577 657.285 99.9633C656.39 100.469 655.645 101.218 655.129 102.131C653.902 104.518 653.334 107.212 653.489 109.915C653.246 112.984 654.007 116.05 655.648 118.613Z" fill="white" fill-opacity="0.95"/>
<path d="M673.124 219.53H616.874C612.939 219.535 609.166 221.1 606.383 223.883C603.6 226.666 602.035 230.439 602.031 234.374V265.624C602.035 269.559 603.6 273.332 606.383 276.115C609.166 278.898 612.939 280.463 616.874 280.468H673.124C677.06 280.463 680.833 278.898 683.616 276.115C686.398 273.332 687.964 269.559 687.968 265.624V234.374C687.964 230.439 686.398 226.666 683.616 223.883C680.833 221.1 677.06 219.535 673.124 219.53ZM683.281 265.624C683.278 268.317 682.206 270.898 680.302 272.802C678.399 274.706 675.817 275.777 673.124 275.78H616.874C614.182 275.777 611.6 274.706 609.696 272.802C607.792 270.898 606.721 268.317 606.718 265.624V234.374C606.721 231.681 607.792 229.1 609.696 227.196C611.6 225.292 614.182 224.221 616.874 224.218H673.124C675.817 224.221 678.399 225.292 680.303 227.196C682.206 229.1 683.278 231.681 683.281 234.374V265.624Z" fill="white" fill-opacity="0.95"/>
<path d="M626.073 258.613C626.598 259.284 627.264 259.821 628.019 260.182C628.775 260.543 629.6 260.718 630.432 260.693C634.325 260.693 636.418 258.446 636.711 253.951H643.55C643.447 255.704 642.995 257.415 642.224 258.977C641.453 260.539 640.379 261.918 639.07 263.026C636.5 264.858 633.425 265.764 630.314 265.607C628.426 265.71 626.54 265.362 624.8 264.59C623.061 263.818 621.514 262.642 620.278 261.153C617.9 257.947 616.706 253.959 616.915 249.915C616.76 247.709 617.054 245.494 617.778 243.414C618.503 241.335 619.64 239.438 621.117 237.848C623.736 235.449 627.151 234.209 630.635 234.393C633.862 234.245 637.031 235.324 639.551 237.429C641.637 239.322 642.988 241.942 643.351 244.798H636.633C636.518 243.246 635.828 241.801 634.709 240.769C633.59 239.736 632.129 239.196 630.635 239.262C629.617 239.215 628.607 239.458 627.712 239.963C626.817 240.469 626.071 241.218 625.554 242.131C624.327 244.518 623.759 247.212 623.914 249.915C623.672 252.984 624.433 256.049 626.073 258.613Z" fill="white" fill-opacity="0.95"/>
<path d="M655.648 258.613C656.173 259.284 656.839 259.821 657.594 260.182C658.35 260.543 659.176 260.718 660.007 260.693C663.897 260.693 665.99 258.446 666.287 253.951H673.125C673.021 255.703 672.569 257.415 671.798 258.977C671.027 260.539 669.954 261.918 668.646 263.026C666.074 264.858 662.998 265.764 659.886 265.607C657.997 265.71 656.111 265.362 654.372 264.59C652.632 263.818 651.085 262.642 649.849 261.153C647.474 257.945 646.282 253.958 646.491 249.915C646.335 247.709 646.628 245.494 647.352 243.415C648.075 241.335 649.212 239.438 650.689 237.848C653.308 235.45 656.722 234.211 660.206 234.393C663.435 234.246 666.605 235.325 669.126 237.429C671.211 239.323 672.56 241.943 672.922 244.798H666.205C666.09 243.245 665.401 241.8 664.281 240.767C663.162 239.734 661.701 239.194 660.206 239.262C659.189 239.215 658.179 239.458 657.285 239.963C656.39 240.469 655.645 241.218 655.129 242.131C653.902 244.518 653.334 247.212 653.489 249.915C653.246 252.984 654.007 256.05 655.648 258.613Z" fill="white" fill-opacity="0.95"/>
<path d="M673.124 360.312H616.874C613.146 360.316 609.572 361.798 606.935 364.435C604.299 367.071 602.816 370.646 602.812 374.374V405.624C602.816 409.352 604.299 412.927 606.935 415.563C609.572 418.2 613.146 419.682 616.874 419.687H673.124C676.853 419.682 680.427 418.2 683.064 415.563C685.7 412.927 687.183 409.352 687.187 405.624V374.374C687.183 370.646 685.7 367.071 683.064 364.435C680.427 361.798 676.853 360.316 673.124 360.312ZM684.062 405.624C684.058 408.524 682.905 411.304 680.854 413.354C678.804 415.405 676.024 416.558 673.124 416.562H616.874C613.975 416.558 611.195 415.405 609.144 413.354C607.094 411.304 605.94 408.524 605.937 405.624V374.374C605.94 371.474 607.094 368.694 609.144 366.644C611.195 364.593 613.975 363.44 616.874 363.437H673.124C676.024 363.44 678.804 364.594 680.854 366.644C682.905 368.694 684.058 371.474 684.062 374.374V405.624Z" fill="white" fill-opacity="0.95"/>
<path d="M626.073 398.613C626.598 399.284 627.264 399.821 628.019 400.182C628.775 400.543 629.6 400.718 630.432 400.693C634.325 400.693 636.418 398.446 636.711 393.951H643.55C643.447 395.704 642.995 397.415 642.224 398.977C641.453 400.539 640.379 401.918 639.07 403.026C636.5 404.858 633.425 405.764 630.314 405.607C628.426 405.71 626.54 405.362 624.8 404.59C623.061 403.818 621.514 402.642 620.278 401.153C617.9 397.947 616.706 393.959 616.915 389.915C616.76 387.709 617.054 385.494 617.778 383.414C618.503 381.335 619.64 379.438 621.117 377.848C623.736 375.449 627.151 374.209 630.635 374.393C633.862 374.245 637.031 375.324 639.551 377.429C641.637 379.322 642.988 381.942 643.351 384.798H636.633C636.518 383.246 635.828 381.801 634.709 380.769C633.59 379.736 632.129 379.196 630.635 379.262C629.617 379.215 628.607 379.458 627.712 379.963C626.817 380.469 626.071 381.218 625.554 382.131C624.327 384.518 623.759 387.212 623.914 389.915C623.672 392.984 624.433 396.049 626.073 398.613Z" fill="white" fill-opacity="0.95"/>
<path d="M655.648 398.613C656.173 399.284 656.839 399.821 657.594 400.182C658.35 400.543 659.176 400.718 660.007 400.693C663.897 400.693 665.99 398.446 666.287 393.951H673.125C673.021 395.703 672.569 397.415 671.798 398.977C671.027 400.539 669.954 401.918 668.646 403.026C666.074 404.858 662.998 405.764 659.886 405.607C657.997 405.71 656.111 405.362 654.372 404.59C652.632 403.818 651.085 402.642 649.849 401.153C647.474 397.945 646.282 393.958 646.491 389.915C646.335 387.709 646.628 385.494 647.352 383.415C648.075 381.335 649.212 379.438 650.689 377.848C653.308 375.45 656.722 374.211 660.206 374.393C663.435 374.246 666.605 375.325 669.126 377.429C671.211 379.323 672.56 381.943 672.922 384.798H666.205C666.09 383.245 665.401 381.8 664.281 380.767C663.162 379.734 661.701 379.194 660.206 379.262C659.189 379.215 658.179 379.458 657.285 379.963C656.39 380.469 655.645 381.218 655.129 382.131C653.902 384.518 653.334 387.212 653.489 389.915C653.246 392.984 654.007 396.05 655.648 398.613Z" fill="white" fill-opacity="0.95"/>
<path d="M806.876 67.8125H763.126C755.371 67.8125 749.063 74.1206 749.063 81.875V138.127C749.063 145.881 755.371 152.189 763.126 152.189H806.876C814.63 152.189 820.938 145.881 820.938 138.127V81.875C820.938 74.1203 814.63 67.8125 806.876 67.8125ZM809.177 119.404H800.147V125.404H808.209V129.029H800.147V138.124H794.897V115.623H809.177V119.404ZM790.845 115.623V138.123H785.596V115.623H790.845ZM772.125 115.156C774.832 115.156 777.063 115.843 778.812 117.216C780.356 118.424 781.332 120.042 781.75 122.062H776.532C775.949 119.895 774.478 118.812 772.125 118.812C770.312 118.812 768.939 119.508 767.999 120.906C767.083 122.261 766.626 124.217 766.626 126.78C766.626 129.698 767.23 131.852 768.438 133.25C769.375 134.352 770.614 134.904 772.156 134.904C773.718 134.904 774.978 134.446 775.937 133.531C776.791 132.737 777.219 131.761 777.219 130.592V128.999H771.906V125.593H781.751V138.124H778.375L777.625 136.03C776.105 137.739 773.947 138.594 771.158 138.594C768.052 138.594 765.582 137.498 763.752 135.31C762.021 133.207 761.157 130.363 761.157 126.78C761.157 122.779 762.293 119.758 764.563 117.717C766.458 116.01 768.979 115.156 772.125 115.156Z" fill="white" fill-opacity="0.95"/>
<path d="M806.875 206.25H763.125C758.982 206.255 755.011 207.903 752.082 210.832C749.153 213.761 747.505 217.732 747.5 221.875V278.125C747.505 282.268 749.153 286.239 752.082 289.168C755.011 292.097 758.982 293.745 763.125 293.75H806.875C811.018 293.745 814.989 292.097 817.918 289.168C820.847 286.239 822.495 282.268 822.5 278.125V221.875C822.495 217.732 820.847 213.761 817.918 210.832C814.989 207.903 811.018 206.255 806.875 206.25ZM816.25 278.125C816.247 280.611 815.259 282.994 813.501 284.751C811.744 286.509 809.361 287.497 806.875 287.5H763.125C760.639 287.497 758.256 286.509 756.499 284.751C754.741 282.994 753.753 280.611 753.75 278.125V221.875C753.753 219.389 754.741 217.006 756.499 215.249C758.256 213.491 760.639 212.503 763.125 212.5H806.875C809.361 212.503 811.744 213.491 813.501 215.249C815.259 217.006 816.247 219.389 816.25 221.875V278.125Z" fill="white" fill-opacity="0.95"/>
<path d="M772.125 258.812C773.131 258.716 774.137 258.994 774.95 259.594C775.764 260.194 776.327 261.073 776.531 262.062H781.75C781.395 260.143 780.35 258.419 778.813 257.216C776.884 255.785 774.524 255.058 772.125 255.156C769.371 255.02 766.668 255.936 764.562 257.717C763.374 258.892 762.454 260.31 761.866 261.875C761.278 263.439 761.036 265.112 761.156 266.779C760.99 269.839 761.909 272.86 763.75 275.309C764.65 276.388 765.786 277.245 767.07 277.815C768.355 278.384 769.753 278.65 771.156 278.593C772.356 278.666 773.557 278.474 774.675 278.031C775.792 277.588 776.799 276.905 777.623 276.031L778.373 278.124H781.748V265.594H771.906V269H777.219V270.594C777.229 271.147 777.12 271.695 776.899 272.202C776.678 272.709 776.35 273.163 775.938 273.531C775.429 273.998 774.833 274.36 774.184 274.596C773.535 274.832 772.846 274.937 772.156 274.906C771.451 274.931 770.75 274.795 770.106 274.508C769.461 274.221 768.891 273.791 768.437 273.25C767.083 271.378 766.44 269.084 766.625 266.781C766.497 264.731 766.974 262.688 767.998 260.906C768.444 260.228 769.059 259.677 769.783 259.31C770.507 258.943 771.314 258.771 772.125 258.812Z" fill="white" fill-opacity="0.95"/>
<path d="M790.842 255.623H785.592V278.123H790.842V255.623Z" fill="white" fill-opacity="0.95"/>
<path d="M794.897 278.122H800.147V269.028H808.209V265.403H800.147V259.403H809.178V255.622H794.897V278.122Z" fill="white" fill-opacity="0.95"/>
<path d="M806.875 347.031H763.125C759.19 347.036 755.417 348.601 752.634 351.384C749.851 354.167 748.286 357.94 748.281 361.875V418.125C748.286 422.06 749.851 425.833 752.634 428.616C755.417 431.399 759.19 432.964 763.125 432.969H806.875C810.81 432.964 814.583 431.399 817.366 428.616C820.149 425.833 821.714 422.06 821.719 418.125V361.875C821.714 357.94 820.149 354.167 817.366 351.384C814.583 348.601 810.81 347.036 806.875 347.031ZM817.031 418.125C817.028 420.818 815.957 423.399 814.053 425.303C812.149 427.207 809.568 428.278 806.875 428.281H763.125C760.432 428.278 757.851 427.207 755.947 425.303C754.043 423.399 752.972 420.818 752.969 418.125V361.875C752.972 359.182 754.043 356.601 755.947 354.697C757.851 352.793 760.432 351.722 763.125 351.719H806.875C809.568 351.722 812.149 352.793 814.053 354.697C815.957 356.601 817.028 359.182 817.031 361.875V418.125Z" fill="white" fill-opacity="0.95"/>
<path d="M772.162 408.748H778.256V410.436C778.264 411.094 778.132 411.747 777.868 412.351C777.604 412.955 777.214 413.495 776.724 413.936C775.533 415.023 773.961 415.595 772.349 415.529C771.546 415.547 770.748 415.391 770.01 415.073C769.271 414.755 768.61 414.282 768.071 413.686C766.494 411.756 765.712 409.297 765.883 406.811C765.756 404.608 766.325 402.422 767.508 400.561C768.053 399.801 768.778 399.189 769.618 398.78C770.458 398.371 771.387 398.177 772.321 398.217C773.517 398.175 774.7 398.479 775.727 399.092C776.265 399.434 776.728 399.882 777.088 400.408C777.448 400.934 777.697 401.528 777.821 402.153H781.761C781.482 400.277 780.512 398.572 779.042 397.374C777.142 395.85 774.757 395.063 772.323 395.155C769.697 395.05 767.131 395.968 765.167 397.716C763.983 398.9 763.066 400.325 762.479 401.893C761.891 403.462 761.646 405.138 761.761 406.809C761.608 409.825 762.514 412.8 764.323 415.217C765.209 416.319 766.34 417.198 767.626 417.784C768.912 418.37 770.317 418.647 771.73 418.592C773.071 418.611 774.401 418.35 775.636 417.826C776.746 417.359 777.722 416.622 778.477 415.684L779.042 418.122H781.792V405.844H772.167L772.162 408.748Z" fill="white" fill-opacity="0.95"/>
<path d="M789.984 395.623H785.983V418.123H789.984V395.623Z" fill="white" fill-opacity="0.95"/>
<path d="M794.422 418.122H798.422V408.778H807.356V405.747H798.422V398.747H808.391V395.622H794.422V418.122Z" fill="white" fill-opacity="0.95"/>
<path d="M806.875 487.812H763.125C759.397 487.817 755.822 489.299 753.186 491.936C750.549 494.572 749.067 498.147 749.062 501.875V558.125C749.067 561.853 750.549 565.428 753.186 568.064C755.822 570.701 759.397 572.183 763.125 572.188H806.875C810.603 572.183 814.178 570.701 816.814 568.064C819.451 565.428 820.933 561.853 820.938 558.125V501.875C820.933 498.147 819.45 494.572 816.814 491.936C814.178 489.3 810.603 487.817 806.875 487.812ZM817.812 558.125C817.809 561.025 816.656 563.805 814.605 565.855C812.555 567.906 809.775 569.059 806.875 569.062H763.125C760.225 569.059 757.445 567.906 755.395 565.855C753.344 563.805 752.191 561.025 752.188 558.125V501.875C752.191 498.975 753.344 496.195 755.395 494.145C757.445 492.094 760.225 490.941 763.125 490.938H806.875C809.775 490.941 812.555 492.094 814.605 494.145C816.656 496.195 817.809 498.975 817.812 501.875V558.125Z" fill="white" fill-opacity="0.95"/>
<path d="M772.253 548.594H778.847V550.344C778.859 551.068 778.715 551.787 778.423 552.45C778.132 553.113 777.701 553.706 777.16 554.188C776.523 554.782 775.776 555.245 774.961 555.55C774.146 555.855 773.278 555.997 772.408 555.967C771.535 555.981 770.669 555.81 769.867 555.465C769.065 555.12 768.345 554.61 767.754 553.967C766.897 552.999 766.24 551.871 765.822 550.648C765.404 549.425 765.232 548.131 765.317 546.842C765.194 544.535 765.83 542.252 767.129 540.342C767.73 539.522 768.523 538.863 769.438 538.421C770.354 537.98 771.364 537.77 772.379 537.81C773.754 537.766 775.112 538.124 776.285 538.842C776.884 539.21 777.397 539.701 777.79 540.283C778.183 540.865 778.448 541.524 778.567 542.217H781.692C781.45 540.357 780.512 538.659 779.067 537.465C777.201 535.891 774.817 535.067 772.377 535.155C769.829 535.072 767.349 535.991 765.471 537.715C764.291 538.91 763.378 540.34 762.791 541.913C762.204 543.486 761.956 545.165 762.065 546.84C761.928 549.82 762.822 552.755 764.596 555.153C765.48 556.27 766.613 557.163 767.906 557.761C769.198 558.358 770.613 558.644 772.037 558.594C773.346 558.611 774.644 558.356 775.849 557.844C777.091 557.357 778.166 556.52 778.943 555.436L779.38 558.123H781.724V546.03H772.255L772.253 548.594Z" fill="white" fill-opacity="0.95"/>
<path d="M789.428 535.623H786.243V558.123H789.428V535.623Z" fill="white" fill-opacity="0.95"/>
<path d="M794.175 558.122H797.359V548.622H806.859V545.969H797.359V538.312H807.956V535.622H794.175V558.122Z" fill="white" fill-opacity="0.95"/>
<path d="M434.818 601.364V613H433.409V601.364H434.818ZM441.007 613.182C440.189 613.182 439.484 612.989 438.893 612.602C438.303 612.216 437.848 611.684 437.53 611.006C437.212 610.328 437.053 609.553 437.053 608.682C437.053 607.795 437.215 607.013 437.541 606.335C437.871 605.653 438.329 605.121 438.916 604.739C439.507 604.352 440.196 604.159 440.984 604.159C441.598 604.159 442.151 604.273 442.643 604.5C443.136 604.727 443.539 605.045 443.854 605.455C444.168 605.864 444.363 606.341 444.439 606.886H443.098C442.996 606.489 442.768 606.136 442.416 605.83C442.068 605.519 441.598 605.364 441.007 605.364C440.484 605.364 440.026 605.5 439.632 605.773C439.242 606.042 438.937 606.422 438.717 606.915C438.501 607.403 438.393 607.977 438.393 608.636C438.393 609.311 438.5 609.898 438.712 610.398C438.928 610.898 439.231 611.286 439.621 611.562C440.015 611.839 440.477 611.977 441.007 611.977C441.356 611.977 441.672 611.917 441.956 611.795C442.24 611.674 442.481 611.5 442.678 611.273C442.875 611.045 443.015 610.773 443.098 610.455H444.439C444.363 610.97 444.176 611.434 443.876 611.847C443.581 612.256 443.189 612.581 442.7 612.824C442.215 613.062 441.651 613.182 441.007 613.182ZM449.945 613.182C449.157 613.182 448.465 612.994 447.871 612.619C447.28 612.244 446.818 611.72 446.484 611.045C446.155 610.371 445.99 609.583 445.99 608.682C445.99 607.773 446.155 606.979 446.484 606.301C446.818 605.623 447.28 605.097 447.871 604.722C448.465 604.347 449.157 604.159 449.945 604.159C450.732 604.159 451.422 604.347 452.013 604.722C452.607 605.097 453.07 605.623 453.399 606.301C453.732 606.979 453.899 607.773 453.899 608.682C453.899 609.583 453.732 610.371 453.399 611.045C453.07 611.72 452.607 612.244 452.013 612.619C451.422 612.994 450.732 613.182 449.945 613.182ZM449.945 611.977C450.543 611.977 451.036 611.824 451.422 611.517C451.808 611.21 452.094 610.807 452.28 610.307C452.465 609.807 452.558 609.265 452.558 608.682C452.558 608.098 452.465 607.555 452.28 607.051C452.094 606.547 451.808 606.14 451.422 605.83C451.036 605.519 450.543 605.364 449.945 605.364C449.346 605.364 448.854 605.519 448.467 605.83C448.081 606.14 447.795 606.547 447.609 607.051C447.424 607.555 447.331 608.098 447.331 608.682C447.331 609.265 447.424 609.807 447.609 610.307C447.795 610.807 448.081 611.21 448.467 611.517C448.854 611.824 449.346 611.977 449.945 611.977ZM457.287 607.75V613H455.946V604.273H457.241V605.636H457.355C457.56 605.193 457.87 604.837 458.287 604.568C458.704 604.295 459.241 604.159 459.901 604.159C460.491 604.159 461.009 604.28 461.452 604.523C461.895 604.761 462.24 605.125 462.486 605.614C462.732 606.098 462.855 606.712 462.855 607.455V613H461.514V607.545C461.514 606.86 461.336 606.326 460.98 605.943C460.624 605.557 460.135 605.364 459.514 605.364C459.086 605.364 458.704 605.456 458.366 605.642C458.033 605.828 457.77 606.098 457.577 606.455C457.384 606.811 457.287 607.242 457.287 607.75ZM471.487 606.227L470.283 606.568C470.207 606.367 470.095 606.172 469.947 605.983C469.804 605.79 469.607 605.631 469.357 605.506C469.107 605.381 468.786 605.318 468.396 605.318C467.862 605.318 467.417 605.441 467.061 605.688C466.709 605.93 466.533 606.239 466.533 606.614C466.533 606.947 466.654 607.21 466.896 607.403C467.139 607.597 467.518 607.758 468.033 607.886L469.328 608.205C470.108 608.394 470.69 608.684 471.072 609.074C471.455 609.46 471.646 609.958 471.646 610.568C471.646 611.068 471.502 611.515 471.214 611.909C470.93 612.303 470.533 612.614 470.021 612.841C469.51 613.068 468.915 613.182 468.237 613.182C467.347 613.182 466.61 612.989 466.027 612.602C465.444 612.216 465.074 611.652 464.919 610.909L466.192 610.591C466.313 611.061 466.542 611.413 466.879 611.648C467.22 611.883 467.665 612 468.214 612C468.839 612 469.336 611.867 469.703 611.602C470.074 611.333 470.26 611.011 470.26 610.636C470.26 610.333 470.154 610.08 469.942 609.875C469.73 609.667 469.404 609.511 468.964 609.409L467.51 609.068C466.711 608.879 466.124 608.585 465.749 608.188C465.377 607.786 465.192 607.284 465.192 606.682C465.192 606.189 465.33 605.754 465.607 605.375C465.887 604.996 466.268 604.699 466.749 604.483C467.233 604.267 467.783 604.159 468.396 604.159C469.26 604.159 469.938 604.348 470.43 604.727C470.927 605.106 471.279 605.606 471.487 606.227ZM482.051 604.273V605.409H477.347V604.273H482.051ZM478.756 613V603.068C478.756 602.568 478.873 602.152 479.108 601.818C479.343 601.485 479.648 601.235 480.023 601.068C480.398 600.902 480.794 600.818 481.21 600.818C481.54 600.818 481.809 600.845 482.017 600.898C482.225 600.951 482.381 601 482.483 601.045L482.097 602.205C482.028 602.182 481.934 602.153 481.812 602.119C481.695 602.085 481.54 602.068 481.347 602.068C480.903 602.068 480.583 602.18 480.386 602.403C480.193 602.627 480.097 602.955 480.097 603.386V613H478.756ZM483.93 613V604.273H485.226V605.591H485.317C485.476 605.159 485.764 604.809 486.18 604.54C486.597 604.271 487.067 604.136 487.589 604.136C487.688 604.136 487.811 604.138 487.959 604.142C488.107 604.146 488.218 604.152 488.294 604.159V605.523C488.249 605.511 488.144 605.494 487.982 605.472C487.822 605.445 487.654 605.432 487.476 605.432C487.052 605.432 486.673 605.521 486.339 605.699C486.01 605.873 485.749 606.116 485.555 606.426C485.366 606.733 485.271 607.083 485.271 607.477V613H483.93ZM493.163 613.182C492.375 613.182 491.684 612.994 491.089 612.619C490.499 612.244 490.036 611.72 489.703 611.045C489.374 610.371 489.209 609.583 489.209 608.682C489.209 607.773 489.374 606.979 489.703 606.301C490.036 605.623 490.499 605.097 491.089 604.722C491.684 604.347 492.375 604.159 493.163 604.159C493.951 604.159 494.641 604.347 495.232 604.722C495.826 605.097 496.288 605.623 496.618 606.301C496.951 606.979 497.118 607.773 497.118 608.682C497.118 609.583 496.951 610.371 496.618 611.045C496.288 611.72 495.826 612.244 495.232 612.619C494.641 612.994 493.951 613.182 493.163 613.182ZM493.163 611.977C493.762 611.977 494.254 611.824 494.641 611.517C495.027 611.21 495.313 610.807 495.499 610.307C495.684 609.807 495.777 609.265 495.777 608.682C495.777 608.098 495.684 607.555 495.499 607.051C495.313 606.547 495.027 606.14 494.641 605.83C494.254 605.519 493.762 605.364 493.163 605.364C492.565 605.364 492.072 605.519 491.686 605.83C491.3 606.14 491.014 606.547 490.828 607.051C490.643 607.555 490.55 608.098 490.55 608.682C490.55 609.265 490.643 609.807 490.828 610.307C491.014 610.807 491.3 611.21 491.686 611.517C492.072 611.824 492.565 611.977 493.163 611.977ZM499.165 613V604.273H500.46V605.636H500.574C500.756 605.17 501.049 604.809 501.455 604.551C501.86 604.29 502.347 604.159 502.915 604.159C503.491 604.159 503.97 604.29 504.352 604.551C504.739 604.809 505.04 605.17 505.256 605.636H505.347C505.57 605.186 505.905 604.828 506.352 604.562C506.799 604.294 507.335 604.159 507.96 604.159C508.741 604.159 509.379 604.403 509.875 604.892C510.371 605.377 510.619 606.133 510.619 607.159V613H509.278V607.159C509.278 606.515 509.102 606.055 508.75 605.778C508.398 605.502 507.983 605.364 507.506 605.364C506.892 605.364 506.417 605.549 506.08 605.92C505.742 606.288 505.574 606.754 505.574 607.318V613H504.21V607.023C504.21 606.527 504.049 606.127 503.727 605.824C503.405 605.517 502.991 605.364 502.483 605.364C502.134 605.364 501.809 605.456 501.506 605.642C501.206 605.828 500.964 606.085 500.778 606.415C500.597 606.741 500.506 607.117 500.506 607.545V613H499.165ZM521.116 613.182C520.329 613.182 519.637 612.994 519.043 612.619C518.452 612.244 517.99 611.72 517.656 611.045C517.327 610.371 517.162 609.583 517.162 608.682C517.162 607.773 517.327 606.979 517.656 606.301C517.99 605.623 518.452 605.097 519.043 604.722C519.637 604.347 520.329 604.159 521.116 604.159C521.904 604.159 522.594 604.347 523.185 604.722C523.779 605.097 524.241 605.623 524.571 606.301C524.904 606.979 525.071 607.773 525.071 608.682C525.071 609.583 524.904 610.371 524.571 611.045C524.241 611.72 523.779 612.244 523.185 612.619C522.594 612.994 521.904 613.182 521.116 613.182ZM521.116 611.977C521.715 611.977 522.207 611.824 522.594 611.517C522.98 611.21 523.266 610.807 523.452 610.307C523.637 609.807 523.73 609.265 523.73 608.682C523.73 608.098 523.637 607.555 523.452 607.051C523.266 606.547 522.98 606.14 522.594 605.83C522.207 605.519 521.715 605.364 521.116 605.364C520.518 605.364 520.026 605.519 519.639 605.83C519.253 606.14 518.967 606.547 518.781 607.051C518.596 607.555 518.503 608.098 518.503 608.682C518.503 609.265 518.596 609.807 518.781 610.307C518.967 610.807 519.253 611.21 519.639 611.517C520.026 611.824 520.518 611.977 521.116 611.977ZM532.618 609.432V604.273H533.959V613H532.618V611.523H532.527C532.322 611.966 532.004 612.343 531.572 612.653C531.141 612.96 530.595 613.114 529.936 613.114C529.391 613.114 528.906 612.994 528.482 612.756C528.057 612.513 527.724 612.15 527.482 611.665C527.239 611.176 527.118 610.561 527.118 609.818V604.273H528.459V609.727C528.459 610.364 528.637 610.871 528.993 611.25C529.353 611.629 529.811 611.818 530.368 611.818C530.701 611.818 531.04 611.733 531.385 611.562C531.733 611.392 532.025 611.131 532.26 610.778C532.499 610.426 532.618 609.977 532.618 609.432ZM536.415 613V604.273H537.71V605.591H537.801C537.96 605.159 538.248 604.809 538.665 604.54C539.081 604.271 539.551 604.136 540.074 604.136C540.172 604.136 540.295 604.138 540.443 604.142C540.591 604.146 540.703 604.152 540.778 604.159V605.523C540.733 605.511 540.629 605.494 540.466 605.472C540.307 605.445 540.138 605.432 539.96 605.432C539.536 605.432 539.157 605.521 538.824 605.699C538.494 605.873 538.233 606.116 538.04 606.426C537.85 606.733 537.756 607.083 537.756 607.477V613H536.415ZM548.209 601.364V613H546.868V601.364H548.209ZM550.665 613V604.273H552.006V613H550.665ZM551.347 602.818C551.085 602.818 550.86 602.729 550.67 602.551C550.485 602.373 550.392 602.159 550.392 601.909C550.392 601.659 550.485 601.445 550.67 601.267C550.86 601.089 551.085 601 551.347 601C551.608 601 551.831 601.089 552.017 601.267C552.206 601.445 552.301 601.659 552.301 601.909C552.301 602.159 552.206 602.373 552.017 602.551C551.831 602.729 551.608 602.818 551.347 602.818ZM554.643 613V601.364H555.984V605.659H556.098C556.196 605.508 556.333 605.314 556.507 605.08C556.685 604.841 556.939 604.629 557.268 604.443C557.602 604.254 558.053 604.159 558.621 604.159C559.356 604.159 560.003 604.343 560.564 604.71C561.125 605.078 561.562 605.598 561.876 606.273C562.191 606.947 562.348 607.742 562.348 608.659C562.348 609.583 562.191 610.384 561.876 611.062C561.562 611.737 561.126 612.259 560.57 612.631C560.013 612.998 559.371 613.182 558.643 613.182C558.083 613.182 557.634 613.089 557.297 612.903C556.96 612.714 556.7 612.5 556.518 612.261C556.337 612.019 556.196 611.818 556.098 611.659H555.939V613H554.643ZM555.962 608.636C555.962 609.295 556.058 609.877 556.251 610.381C556.445 610.881 556.727 611.273 557.098 611.557C557.469 611.837 557.924 611.977 558.462 611.977C559.022 611.977 559.49 611.83 559.865 611.534C560.244 611.235 560.528 610.833 560.717 610.33C560.911 609.822 561.007 609.258 561.007 608.636C561.007 608.023 560.912 607.47 560.723 606.977C560.537 606.481 560.255 606.089 559.876 605.801C559.501 605.509 559.03 605.364 558.462 605.364C557.916 605.364 557.458 605.502 557.087 605.778C556.715 606.051 556.435 606.434 556.246 606.926C556.056 607.415 555.962 607.985 555.962 608.636ZM564.399 613V604.273H565.695V605.591H565.786C565.945 605.159 566.232 604.809 566.649 604.54C567.066 604.271 567.536 604.136 568.058 604.136C568.157 604.136 568.28 604.138 568.428 604.142C568.575 604.146 568.687 604.152 568.763 604.159V605.523C568.717 605.511 568.613 605.494 568.45 605.472C568.291 605.445 568.123 605.432 567.945 605.432C567.52 605.432 567.142 605.521 566.808 605.699C566.479 605.873 566.217 606.116 566.024 606.426C565.835 606.733 565.74 607.083 565.74 607.477V613H564.399ZM572.92 613.205C572.367 613.205 571.866 613.1 571.415 612.892C570.964 612.68 570.606 612.375 570.341 611.977C570.076 611.576 569.943 611.091 569.943 610.523C569.943 610.023 570.042 609.617 570.239 609.307C570.436 608.992 570.699 608.746 571.028 608.568C571.358 608.39 571.722 608.258 572.119 608.17C572.521 608.08 572.924 608.008 573.33 607.955C573.86 607.886 574.29 607.835 574.619 607.801C574.953 607.763 575.195 607.701 575.347 607.614C575.502 607.527 575.58 607.375 575.58 607.159V607.114C575.58 606.553 575.426 606.117 575.119 605.807C574.816 605.496 574.356 605.341 573.739 605.341C573.098 605.341 572.597 605.481 572.233 605.761C571.869 606.042 571.614 606.341 571.466 606.659L570.193 606.205C570.42 605.674 570.723 605.261 571.102 604.966C571.485 604.667 571.902 604.458 572.352 604.341C572.807 604.22 573.254 604.159 573.693 604.159C573.973 604.159 574.295 604.193 574.659 604.261C575.027 604.326 575.381 604.46 575.722 604.665C576.066 604.869 576.352 605.178 576.58 605.591C576.807 606.004 576.92 606.557 576.92 607.25V613H575.58V611.818H575.511C575.42 612.008 575.269 612.21 575.057 612.426C574.845 612.642 574.563 612.826 574.21 612.977C573.858 613.129 573.428 613.205 572.92 613.205ZM573.125 612C573.655 612 574.102 611.896 574.466 611.688C574.833 611.479 575.11 611.21 575.295 610.881C575.485 610.551 575.58 610.205 575.58 609.841V608.614C575.523 608.682 575.398 608.744 575.205 608.801C575.015 608.854 574.795 608.902 574.545 608.943C574.299 608.981 574.059 609.015 573.824 609.045C573.593 609.072 573.405 609.095 573.261 609.114C572.913 609.159 572.587 609.233 572.284 609.335C571.985 609.434 571.742 609.583 571.557 609.784C571.375 609.981 571.284 610.25 571.284 610.591C571.284 611.057 571.456 611.409 571.801 611.648C572.15 611.883 572.591 612 573.125 612ZM579.368 613V604.273H580.663V605.591H580.754C580.913 605.159 581.201 604.809 581.618 604.54C582.035 604.271 582.504 604.136 583.027 604.136C583.125 604.136 583.249 604.138 583.396 604.142C583.544 604.146 583.656 604.152 583.732 604.159V605.523C583.686 605.511 583.582 605.494 583.419 605.472C583.26 605.445 583.091 605.432 582.913 605.432C582.489 605.432 582.11 605.521 581.777 605.699C581.447 605.873 581.186 606.116 580.993 606.426C580.804 606.733 580.709 607.083 580.709 607.477V613H579.368ZM586.45 616.25C586.223 616.25 586.02 616.231 585.842 616.193C585.664 616.159 585.541 616.125 585.473 616.091L585.814 614.909C586.303 615.034 586.71 615.03 587.036 614.898C587.361 614.769 587.643 614.379 587.882 613.727L588.132 613.045L584.905 604.273H586.359L588.768 611.227H588.859L591.268 604.273L592.734 604.295L589.018 614.273C588.852 614.716 588.645 615.083 588.399 615.375C588.153 615.67 587.867 615.89 587.541 616.034C587.219 616.178 586.856 616.25 586.45 616.25ZM604.009 607.386V608.636H598.918V607.386H604.009ZM611.05 613V601.364H612.391V605.659H612.504C612.603 605.508 612.739 605.314 612.913 605.08C613.091 604.841 613.345 604.629 613.675 604.443C614.008 604.254 614.459 604.159 615.027 604.159C615.762 604.159 616.41 604.343 616.97 604.71C617.531 605.078 617.968 605.598 618.283 606.273C618.597 606.947 618.754 607.742 618.754 608.659C618.754 609.583 618.597 610.384 618.283 611.062C617.968 611.737 617.533 612.259 616.976 612.631C616.419 612.998 615.777 613.182 615.05 613.182C614.489 613.182 614.04 613.089 613.703 612.903C613.366 612.714 613.107 612.5 612.925 612.261C612.743 612.019 612.603 611.818 612.504 611.659H612.345V613H611.05ZM612.368 608.636C612.368 609.295 612.464 609.877 612.658 610.381C612.851 610.881 613.133 611.273 613.504 611.557C613.875 611.837 614.33 611.977 614.868 611.977C615.429 611.977 615.896 611.83 616.271 611.534C616.65 611.235 616.934 610.833 617.124 610.33C617.317 609.822 617.413 609.258 617.413 608.636C617.413 608.023 617.319 607.47 617.129 606.977C616.944 606.481 616.661 606.089 616.283 605.801C615.908 605.509 615.436 605.364 614.868 605.364C614.322 605.364 613.864 605.502 613.493 605.778C613.122 606.051 612.841 606.434 612.652 606.926C612.463 607.415 612.368 607.985 612.368 608.636ZM623.374 613.205C622.821 613.205 622.319 613.1 621.868 612.892C621.417 612.68 621.059 612.375 620.794 611.977C620.529 611.576 620.396 611.091 620.396 610.523C620.396 610.023 620.495 609.617 620.692 609.307C620.889 608.992 621.152 608.746 621.482 608.568C621.811 608.39 622.175 608.258 622.572 608.17C622.974 608.08 623.377 608.008 623.783 607.955C624.313 607.886 624.743 607.835 625.072 607.801C625.406 607.763 625.648 607.701 625.8 607.614C625.955 607.527 626.033 607.375 626.033 607.159V607.114C626.033 606.553 625.879 606.117 625.572 605.807C625.269 605.496 624.809 605.341 624.192 605.341C623.552 605.341 623.05 605.481 622.686 605.761C622.322 606.042 622.067 606.341 621.919 606.659L620.646 606.205C620.874 605.674 621.177 605.261 621.555 604.966C621.938 604.667 622.355 604.458 622.805 604.341C623.26 604.22 623.707 604.159 624.146 604.159C624.427 604.159 624.749 604.193 625.112 604.261C625.48 604.326 625.834 604.46 626.175 604.665C626.519 604.869 626.805 605.178 627.033 605.591C627.26 606.004 627.374 606.557 627.374 607.25V613H626.033V611.818H625.964C625.874 612.008 625.722 612.21 625.51 612.426C625.298 612.642 625.016 612.826 624.663 612.977C624.311 613.129 623.881 613.205 623.374 613.205ZM623.578 612C624.108 612 624.555 611.896 624.919 611.688C625.286 611.479 625.563 611.21 625.749 610.881C625.938 610.551 626.033 610.205 626.033 609.841V608.614C625.976 608.682 625.851 608.744 625.658 608.801C625.468 608.854 625.249 608.902 624.999 608.943C624.752 608.981 624.512 609.015 624.277 609.045C624.046 609.072 623.858 609.095 623.714 609.114C623.366 609.159 623.04 609.233 622.737 609.335C622.438 609.434 622.196 609.583 622.01 609.784C621.828 609.981 621.737 610.25 621.737 610.591C621.737 611.057 621.91 611.409 622.254 611.648C622.603 611.883 623.044 612 623.578 612ZM636.003 606.227L634.798 606.568C634.723 606.367 634.611 606.172 634.463 605.983C634.319 605.79 634.122 605.631 633.872 605.506C633.622 605.381 633.302 605.318 632.912 605.318C632.378 605.318 631.933 605.441 631.577 605.688C631.224 605.93 631.048 606.239 631.048 606.614C631.048 606.947 631.17 607.21 631.412 607.403C631.654 607.597 632.033 607.758 632.548 607.886L633.844 608.205C634.624 608.394 635.205 608.684 635.588 609.074C635.971 609.46 636.162 609.958 636.162 610.568C636.162 611.068 636.018 611.515 635.73 611.909C635.446 612.303 635.048 612.614 634.537 612.841C634.026 613.068 633.431 613.182 632.753 613.182C631.863 613.182 631.126 612.989 630.543 612.602C629.959 612.216 629.59 611.652 629.435 610.909L630.707 610.591C630.829 611.061 631.058 611.413 631.395 611.648C631.736 611.883 632.181 612 632.73 612C633.355 612 633.851 611.867 634.219 611.602C634.59 611.333 634.776 611.011 634.776 610.636C634.776 610.333 634.67 610.08 634.457 609.875C634.245 609.667 633.92 609.511 633.48 609.409L632.026 609.068C631.226 608.879 630.639 608.585 630.264 608.188C629.893 607.786 629.707 607.284 629.707 606.682C629.707 606.189 629.846 605.754 630.122 605.375C630.402 604.996 630.783 604.699 631.264 604.483C631.749 604.267 632.298 604.159 632.912 604.159C633.776 604.159 634.454 604.348 634.946 604.727C635.442 605.106 635.795 605.606 636.003 606.227ZM638.18 613V604.273H639.521V613H638.18ZM638.862 602.818C638.601 602.818 638.375 602.729 638.186 602.551C638 602.373 637.908 602.159 637.908 601.909C637.908 601.659 638 601.445 638.186 601.267C638.375 601.089 638.601 601 638.862 601C639.124 601 639.347 601.089 639.533 601.267C639.722 601.445 639.817 601.659 639.817 601.909C639.817 602.159 639.722 602.373 639.533 602.551C639.347 602.729 639.124 602.818 638.862 602.818ZM645.523 613.182C644.705 613.182 644 612.989 643.409 612.602C642.818 612.216 642.364 611.684 642.045 611.006C641.727 610.328 641.568 609.553 641.568 608.682C641.568 607.795 641.731 607.013 642.057 606.335C642.386 605.653 642.845 605.121 643.432 604.739C644.023 604.352 644.712 604.159 645.5 604.159C646.114 604.159 646.667 604.273 647.159 604.5C647.652 604.727 648.055 605.045 648.369 605.455C648.684 605.864 648.879 606.341 648.955 606.886H647.614C647.511 606.489 647.284 606.136 646.932 605.83C646.583 605.519 646.114 605.364 645.523 605.364C645 605.364 644.542 605.5 644.148 605.773C643.758 606.042 643.453 606.422 643.233 606.915C643.017 607.403 642.909 607.977 642.909 608.636C642.909 609.311 643.015 609.898 643.227 610.398C643.443 610.898 643.746 611.286 644.136 611.562C644.53 611.839 644.992 611.977 645.523 611.977C645.871 611.977 646.188 611.917 646.472 611.795C646.756 611.674 646.996 611.5 647.193 611.273C647.39 611.045 647.53 610.773 647.614 610.455H648.955C648.879 610.97 648.691 611.434 648.392 611.847C648.097 612.256 647.705 612.581 647.216 612.824C646.731 613.062 646.167 613.182 645.523 613.182ZM655.415 613V604.273H656.756V613H655.415ZM656.097 602.818C655.835 602.818 655.61 602.729 655.42 602.551C655.235 602.373 655.142 602.159 655.142 601.909C655.142 601.659 655.235 601.445 655.42 601.267C655.61 601.089 655.835 601 656.097 601C656.358 601 656.581 601.089 656.767 601.267C656.956 601.445 657.051 601.659 657.051 601.909C657.051 602.159 656.956 602.373 656.767 602.551C656.581 602.729 656.358 602.818 656.097 602.818ZM660.553 607.75V613H659.212V604.273H660.507V605.636H660.621C660.825 605.193 661.136 604.837 661.553 604.568C661.969 604.295 662.507 604.159 663.166 604.159C663.757 604.159 664.274 604.28 664.717 604.523C665.161 604.761 665.505 605.125 665.751 605.614C665.998 606.098 666.121 606.712 666.121 607.455V613H664.78V607.545C664.78 606.86 664.602 606.326 664.246 605.943C663.89 605.557 663.401 605.364 662.78 605.364C662.352 605.364 661.969 605.456 661.632 605.642C661.299 605.828 661.036 606.098 660.842 606.455C660.649 606.811 660.553 607.242 660.553 607.75ZM679.253 606.227L678.048 606.568C677.973 606.367 677.861 606.172 677.713 605.983C677.569 605.79 677.372 605.631 677.122 605.506C676.872 605.381 676.552 605.318 676.162 605.318C675.628 605.318 675.183 605.441 674.827 605.688C674.474 605.93 674.298 606.239 674.298 606.614C674.298 606.947 674.42 607.21 674.662 607.403C674.904 607.597 675.283 607.758 675.798 607.886L677.094 608.205C677.874 608.394 678.455 608.684 678.838 609.074C679.221 609.46 679.412 609.958 679.412 610.568C679.412 611.068 679.268 611.515 678.98 611.909C678.696 612.303 678.298 612.614 677.787 612.841C677.276 613.068 676.681 613.182 676.003 613.182C675.113 613.182 674.376 612.989 673.793 612.602C673.209 612.216 672.84 611.652 672.685 610.909L673.957 610.591C674.079 611.061 674.308 611.413 674.645 611.648C674.986 611.883 675.431 612 675.98 612C676.605 612 677.101 611.867 677.469 611.602C677.84 611.333 678.026 611.011 678.026 610.636C678.026 610.333 677.92 610.08 677.707 609.875C677.495 609.667 677.17 609.511 676.73 609.409L675.276 609.068C674.476 608.879 673.889 608.585 673.514 608.188C673.143 607.786 672.957 607.284 672.957 606.682C672.957 606.189 673.096 605.754 673.372 605.375C673.652 604.996 674.033 604.699 674.514 604.483C674.999 604.267 675.548 604.159 676.162 604.159C677.026 604.159 677.704 604.348 678.196 604.727C678.692 605.106 679.045 605.606 679.253 606.227ZM682.771 607.75V613H681.43V601.364H682.771V605.636H682.885C683.089 605.186 683.396 604.828 683.805 604.562C684.218 604.294 684.768 604.159 685.453 604.159C686.048 604.159 686.569 604.278 687.016 604.517C687.463 604.752 687.809 605.114 688.055 605.602C688.305 606.087 688.43 606.705 688.43 607.455V613H687.089V607.545C687.089 606.852 686.91 606.316 686.55 605.938C686.194 605.555 685.699 605.364 685.067 605.364C684.627 605.364 684.233 605.456 683.885 605.642C683.54 605.828 683.268 606.098 683.067 606.455C682.87 606.811 682.771 607.242 682.771 607.75ZM693.452 613.205C692.899 613.205 692.397 613.1 691.946 612.892C691.495 612.68 691.137 612.375 690.872 611.977C690.607 611.576 690.474 611.091 690.474 610.523C690.474 610.023 690.573 609.617 690.77 609.307C690.967 608.992 691.23 608.746 691.56 608.568C691.889 608.39 692.253 608.258 692.651 608.17C693.052 608.08 693.455 608.008 693.861 607.955C694.391 607.886 694.821 607.835 695.151 607.801C695.484 607.763 695.726 607.701 695.878 607.614C696.033 607.527 696.111 607.375 696.111 607.159V607.114C696.111 606.553 695.957 606.117 695.651 605.807C695.348 605.496 694.887 605.341 694.27 605.341C693.63 605.341 693.128 605.481 692.764 605.761C692.401 606.042 692.145 606.341 691.997 606.659L690.724 606.205C690.952 605.674 691.255 605.261 691.634 604.966C692.016 604.667 692.433 604.458 692.884 604.341C693.338 604.22 693.785 604.159 694.224 604.159C694.505 604.159 694.827 604.193 695.19 604.261C695.558 604.326 695.912 604.46 696.253 604.665C696.598 604.869 696.884 605.178 697.111 605.591C697.338 606.004 697.452 606.557 697.452 607.25V613H696.111V611.818H696.043C695.952 612.008 695.8 612.21 695.588 612.426C695.376 612.642 695.094 612.826 694.741 612.977C694.389 613.129 693.959 613.205 693.452 613.205ZM693.656 612C694.187 612 694.634 611.896 694.997 611.688C695.365 611.479 695.641 611.21 695.827 610.881C696.016 610.551 696.111 610.205 696.111 609.841V608.614C696.054 608.682 695.929 608.744 695.736 608.801C695.546 608.854 695.327 608.902 695.077 608.943C694.83 608.981 694.59 609.015 694.355 609.045C694.124 609.072 693.937 609.095 693.793 609.114C693.444 609.159 693.118 609.233 692.815 609.335C692.516 609.434 692.274 609.583 692.088 609.784C691.906 609.981 691.815 610.25 691.815 610.591C691.815 611.057 691.988 611.409 692.332 611.648C692.681 611.883 693.122 612 693.656 612ZM699.899 616.273V604.273H701.195V605.659H701.354C701.452 605.508 701.589 605.314 701.763 605.08C701.941 604.841 702.195 604.629 702.524 604.443C702.857 604.254 703.308 604.159 703.876 604.159C704.611 604.159 705.259 604.343 705.82 604.71C706.38 605.078 706.818 605.598 707.132 606.273C707.446 606.947 707.604 607.742 707.604 608.659C707.604 609.583 707.446 610.384 707.132 611.062C706.818 611.737 706.382 612.259 705.825 612.631C705.268 612.998 704.626 613.182 703.899 613.182C703.339 613.182 702.89 613.089 702.553 612.903C702.215 612.714 701.956 612.5 701.774 612.261C701.592 612.019 701.452 611.818 701.354 611.659H701.24V616.273H699.899ZM701.217 608.636C701.217 609.295 701.314 609.877 701.507 610.381C701.7 610.881 701.982 611.273 702.354 611.557C702.725 611.837 703.179 611.977 703.717 611.977C704.278 611.977 704.746 611.83 705.121 611.534C705.5 611.235 705.784 610.833 705.973 610.33C706.166 609.822 706.263 609.258 706.263 608.636C706.263 608.023 706.168 607.47 705.979 606.977C705.793 606.481 705.511 606.089 705.132 605.801C704.757 605.509 704.286 605.364 703.717 605.364C703.172 605.364 702.714 605.502 702.342 605.778C701.971 606.051 701.691 606.434 701.501 606.926C701.312 607.415 701.217 607.985 701.217 608.636ZM713.308 613.182C712.467 613.182 711.742 612.996 711.132 612.625C710.526 612.25 710.058 611.727 709.729 611.057C709.403 610.383 709.24 609.598 709.24 608.705C709.24 607.811 709.403 607.023 709.729 606.341C710.058 605.655 710.517 605.121 711.104 604.739C711.695 604.352 712.384 604.159 713.172 604.159C713.626 604.159 714.075 604.235 714.518 604.386C714.962 604.538 715.365 604.784 715.729 605.125C716.092 605.462 716.382 605.909 716.598 606.466C716.814 607.023 716.922 607.708 716.922 608.523V609.091H710.195V607.932H715.558C715.558 607.439 715.46 607 715.263 606.614C715.07 606.227 714.793 605.922 714.433 605.699C714.077 605.475 713.657 605.364 713.172 605.364C712.638 605.364 712.176 605.496 711.786 605.761C711.399 606.023 711.102 606.364 710.893 606.784C710.685 607.205 710.581 607.655 710.581 608.136V608.909C710.581 609.568 710.695 610.127 710.922 610.585C711.153 611.04 711.473 611.386 711.882 611.625C712.291 611.86 712.767 611.977 713.308 611.977C713.661 611.977 713.979 611.928 714.263 611.83C714.551 611.727 714.799 611.576 715.007 611.375C715.215 611.17 715.376 610.917 715.49 610.614L716.786 610.977C716.649 611.417 716.42 611.803 716.098 612.136C715.776 612.466 715.378 612.723 714.905 612.909C714.431 613.091 713.899 613.182 713.308 613.182Z" fill="white" fill-opacity="0.95"/>
</svg>
