<svg width="559" height="216" viewBox="0 0 559 216" fill="none" xmlns="http://www.w3.org/2000/svg">
<g clip-path="url(#clip0_1328_12404)">
<path d="M0 24C0 10.7452 10.7452 0 24 0H535C548.255 0 559 10.7452 559 24V192C559 205.255 548.255 216 535 216H24C10.7452 216 0 205.255 0 192V24Z" fill="#262626"/>
<path d="M519 25.9995C516.232 25.9995 513.525 26.8206 511.223 28.3589C508.92 29.8973 507.126 32.0838 506.066 34.6419C505.007 37.2001 504.729 40.015 505.27 42.7308C505.81 45.4465 507.143 47.9411 509.101 49.899C511.059 51.8569 513.553 53.1903 516.269 53.7305C518.985 54.2707 521.8 53.9935 524.358 52.9338C526.916 51.8742 529.103 50.0798 530.641 47.7775C532.179 45.4752 533 42.7684 533 39.9995C532.996 36.2878 531.52 32.7292 528.895 30.1046C526.271 27.48 522.712 26.0037 519 25.9995ZM528.155 47.7402L511.26 30.8447C513.555 28.8983 516.498 27.8862 519.505 28.0096C522.511 28.1329 525.362 29.3826 527.49 31.5105C529.617 33.6383 530.867 36.4887 530.99 39.4954C531.114 42.5021 530.102 45.4453 528.155 47.7402ZM509.846 32.2588L526.741 49.1543C524.446 51.1007 521.503 52.1127 518.496 51.9894C515.49 51.866 512.639 50.6164 510.512 48.4885C508.384 46.3607 507.134 43.5103 507.011 40.5036C506.887 37.4969 507.899 34.5538 509.846 32.2588Z" fill="#FC8B98"/>
<g clip-path="url(#clip1_1328_12404)">
<path d="M203.972 105.435C203.429 105.096 202.808 104.904 202.169 104.875C201.531 104.846 200.895 104.982 200.324 105.27C200.265 105.299 200.209 105.331 200.154 105.365L194.496 108.964V106.759C194.493 104.273 193.504 101.89 191.747 100.133C189.989 98.3754 187.606 97.3867 185.121 97.3838H162.621C160.135 97.3867 157.752 98.3753 155.995 100.133C154.237 101.89 153.249 104.273 153.246 106.759V129.259C153.249 131.744 154.237 134.127 155.995 135.885C157.752 137.642 160.135 138.631 162.621 138.634H185.121C187.606 138.631 189.989 137.642 191.747 135.885C193.504 134.127 194.493 131.744 194.496 129.259V127.038L200.156 130.635C200.209 130.67 200.265 130.701 200.322 130.73C200.894 131.016 201.529 131.151 202.168 131.123C202.807 131.094 203.427 130.903 203.971 130.567C204.515 130.231 204.964 129.761 205.275 129.203C205.587 128.644 205.75 128.016 205.75 127.376V108.625C205.752 107.985 205.59 107.356 205.278 106.797C204.967 106.238 204.517 105.769 203.972 105.435ZM190.746 129.259C190.744 130.75 190.151 132.18 189.097 133.234C188.042 134.289 186.612 134.882 185.121 134.884H162.621C161.13 134.882 159.7 134.289 158.645 133.234C157.591 132.18 156.997 130.75 156.996 129.259V106.759C156.997 105.267 157.591 103.838 158.645 102.783C159.7 101.729 161.13 101.135 162.621 101.134H185.121C186.612 101.135 188.042 101.729 189.097 102.783C190.151 103.838 190.744 105.267 190.746 106.759V129.259ZM202 127.364L194.496 122.595V113.409L202 108.636V127.364Z" fill="url(#paint0_linear_1328_12404)"/>
</g>
<g clip-path="url(#clip2_1328_12404)">
<rect x="349.5" y="88" width="60" height="60" rx="8" fill="white"/>
<path d="M387 118.001H381.375V112.376C381.375 111.879 381.177 111.402 380.826 111.05C380.474 110.698 379.997 110.501 379.5 110.501C379.003 110.501 378.526 110.698 378.174 111.05C377.823 111.402 377.625 111.879 377.625 112.376V118.001H372C371.503 118.001 371.026 118.198 370.674 118.55C370.323 118.902 370.125 119.379 370.125 119.876C370.125 120.373 370.323 120.85 370.674 121.202C371.026 121.553 371.503 121.751 372 121.751H377.625V127.376C377.625 127.873 377.823 128.35 378.174 128.702C378.526 129.053 379.003 129.251 379.5 129.251C379.997 129.251 380.474 129.053 380.826 128.702C381.177 128.35 381.375 127.873 381.375 127.376V121.751H387C387.497 121.751 387.974 121.553 388.326 121.202C388.677 120.85 388.875 120.373 388.875 119.876C388.875 119.379 388.677 118.902 388.326 118.55C387.974 118.198 387.497 118.001 387 118.001Z" fill="url(#paint1_linear_1328_12404)"/>
<path d="M392.625 97.3741V93.626C392.625 93.1287 392.427 92.6518 392.076 92.3002C391.724 91.9485 391.247 91.751 390.75 91.751C390.253 91.751 389.776 91.9485 389.424 92.3002C389.073 92.6518 388.875 93.1287 388.875 93.626V97.3741H370.125V93.626C370.125 93.1287 369.927 92.6518 369.576 92.3002C369.224 91.9485 368.747 91.751 368.25 91.751C367.753 91.751 367.276 91.9485 366.924 92.3002C366.573 92.6518 366.375 93.1287 366.375 93.626V97.3741C363.889 97.377 361.507 98.3657 359.749 100.123C357.992 101.881 357.003 104.264 357 106.749V132.999C357.003 135.485 357.992 137.867 359.749 139.625C361.507 141.383 363.889 142.371 366.375 142.374H392.625C395.111 142.371 397.493 141.383 399.251 139.625C401.008 137.867 401.997 135.485 402 132.999V106.749C401.997 104.264 401.008 101.881 399.251 100.123C397.493 98.3657 395.111 97.377 392.625 97.3741ZM398.25 132.999C398.248 134.49 397.655 135.92 396.601 136.975C395.546 138.029 394.116 138.622 392.625 138.624H366.375C364.884 138.622 363.454 138.029 362.399 136.975C361.345 135.92 360.752 134.49 360.75 132.999V106.749C360.752 105.258 361.345 103.828 362.399 102.773C363.454 101.719 364.884 101.126 366.375 101.124L390.75 101.126L390.759 101.124H392.625C394.116 101.126 395.546 101.719 396.601 102.773C397.655 103.828 398.248 105.258 398.25 106.749V132.999Z" fill="url(#paint2_linear_1328_12404)"/>
</g>
<path d="M0 193H559C559 205.703 548.703 216 536 216H23C10.2975 216 0 205.703 0 193Z" fill="#F55868"/>
</g>
<defs>
<linearGradient id="paint0_linear_1328_12404" x1="192.027" y1="100.665" x2="174.42" y2="138.191" gradientUnits="userSpaceOnUse">
<stop stop-color="#00BCF5"/>
<stop offset="0.956197" stop-color="#A875FC"/>
</linearGradient>
<linearGradient id="paint1_linear_1328_12404" x1="364.67" y1="136.046" x2="400.673" y2="108.043" gradientUnits="userSpaceOnUse">
<stop stop-color="#FF3A65"/>
<stop offset="1" stop-color="#FBBD23"/>
</linearGradient>
<linearGradient id="paint2_linear_1328_12404" x1="364.67" y1="136.046" x2="400.673" y2="108.043" gradientUnits="userSpaceOnUse">
<stop stop-color="#FF3A65"/>
<stop offset="1" stop-color="#FBBD23"/>
</linearGradient>
<clipPath id="clip0_1328_12404">
<path d="M0 24C0 10.7452 10.7452 0 24 0H535C548.255 0 559 10.7452 559 24V192C559 205.255 548.255 216 535 216H24C10.7452 216 0 205.255 0 192V24Z" fill="white"/>
</clipPath>
<clipPath id="clip1_1328_12404">
<rect x="149.5" y="88" width="60" height="60" rx="8" fill="white"/>
</clipPath>
<clipPath id="clip2_1328_12404">
<rect x="349.5" y="88" width="60" height="60" rx="8" fill="white"/>
</clipPath>
</defs>
</svg>
