<svg width="159" height="33" viewBox="0 0 159 33" fill="none" xmlns="http://www.w3.org/2000/svg">
<rect width="159" height="32.6507" rx="16.2774" fill="white" fill-opacity="0.95"/>
<path d="M14.5737 18.9005L17.1596 10.9337H18.7922L15.5663 20.3371H13.5158L10.2638 10.9337H12.0139L14.5737 18.9005ZM21.2778 12.514H19.5539V10.9337H21.2778V12.514ZM21.1995 20.3371H19.6322V13.5458H21.1995V20.3371ZM27.4821 18.3781H29.1277C28.9448 19.0746 28.5661 19.6145 27.9914 19.9976C27.4429 20.3546 26.7681 20.533 25.9671 20.533C24.8613 20.533 23.9993 20.1848 23.3811 19.4882C22.8152 18.8526 22.5322 18.0037 22.5322 16.9415C22.5322 15.7225 22.8848 14.7909 23.5901 14.1466C24.1822 13.6155 24.9527 13.3499 25.9018 13.3499C27.0075 13.3499 27.8434 13.7112 28.4093 14.4339C28.9405 15.1043 29.206 16.0621 29.206 17.3072H24.1256C24.1865 18.0385 24.4129 18.574 24.8047 18.9136C25.1181 19.1922 25.5274 19.3315 26.0324 19.3315C26.3893 19.3315 26.6984 19.2444 26.9596 19.0703C27.2209 18.8962 27.395 18.6654 27.4821 18.3781ZM27.5996 16.2362C27.5648 15.6006 27.3732 15.1348 27.025 14.8388C26.7376 14.5863 26.3632 14.46 25.9018 14.46C25.3968 14.46 24.9919 14.6254 24.6872 14.9563C24.4085 15.2523 24.23 15.679 24.1517 16.2362H27.5996ZM38.8561 13.5458H40.3842L38.4513 20.3371H36.5706L35.147 15.1261L33.6973 20.3371H31.8036L29.8837 13.5458H31.5032L32.8092 18.8613L34.2589 13.5458H36.1396L37.524 18.8613L38.8561 13.5458ZM45.1676 10.9337H48.4066C49.9912 10.9337 51.1797 11.3691 51.972 12.2398C52.6947 13.0321 53.056 14.164 53.056 15.6354C53.056 17.2723 52.5728 18.5 51.6063 19.3184C50.7966 19.9976 49.7169 20.3371 48.3674 20.3371H45.1676V10.9337ZM46.8393 19.0703H48.4457C49.447 19.0703 50.1958 18.7481 50.6921 18.1038C51.1449 17.5205 51.3713 16.6977 51.3713 15.6354C51.3713 14.4078 51.0709 13.4979 50.4701 12.9058C49.9738 12.4183 49.2903 12.1745 48.4196 12.1745H46.8393V19.0703ZM59.0614 18.3781H60.707C60.5242 19.0746 60.1454 19.6145 59.5708 19.9976C59.0222 20.3546 58.3474 20.533 57.5464 20.533C56.4406 20.533 55.5787 20.1848 54.9605 19.4882C54.3945 18.8526 54.1116 18.0037 54.1116 16.9415C54.1116 15.7225 54.4642 14.7909 55.1694 14.1466C55.7615 13.6155 56.5321 13.3499 57.4811 13.3499C58.5869 13.3499 59.4227 13.7112 59.9887 14.4339C60.5198 15.1043 60.7854 16.0621 60.7854 17.3072H55.7049C55.7659 18.0385 55.9922 18.574 56.384 18.9136C56.6975 19.1922 57.1067 19.3315 57.6117 19.3315C57.9687 19.3315 58.2778 19.2444 58.539 19.0703C58.8002 18.8962 58.9743 18.6654 59.0614 18.3781ZM59.179 16.2362C59.1441 15.6006 58.9526 15.1348 58.6043 14.8388C58.317 14.5863 57.9426 14.46 57.4811 14.46C56.9761 14.46 56.5712 14.6254 56.2665 14.9563C55.9879 15.2523 55.8094 15.679 55.731 16.2362H59.179ZM63.2523 18.4042C63.3742 19.0572 63.8662 19.3837 64.7281 19.3837C65.207 19.3837 65.5684 19.2923 65.8121 19.1095C66.0124 18.9528 66.1125 18.7481 66.1125 18.4956C66.1125 18.1735 65.9384 17.9341 65.5901 17.7773C65.3899 17.6903 64.9502 17.5684 64.271 17.4116C63.4352 17.2201 62.8388 16.9589 62.4818 16.628C62.1248 16.3059 61.9463 15.8836 61.9463 15.3612C61.9463 14.6995 62.2162 14.1901 62.756 13.8331C63.2349 13.511 63.8923 13.3499 64.7281 13.3499C65.5901 13.3499 66.2823 13.5545 66.8047 13.9637C67.2575 14.312 67.5405 14.7822 67.6536 15.3742H66.0603C65.9297 14.7909 65.4769 14.4992 64.702 14.4992C63.9184 14.4992 63.5266 14.7386 63.5266 15.2175C63.5266 15.4613 63.6267 15.6441 63.827 15.766C64.0272 15.8879 64.4321 16.0229 65.0416 16.1709C65.9819 16.3886 66.6349 16.6324 67.0006 16.9023C67.4621 17.2419 67.6928 17.7207 67.6928 18.3389C67.6928 19.0442 67.4055 19.5971 66.8308 19.9976C66.3084 20.3546 65.6032 20.533 64.7151 20.533C63.7834 20.533 63.039 20.311 62.4818 19.867C62.0116 19.4926 61.7373 19.005 61.659 18.4042H63.2523ZM70.6748 12.514H68.9508V10.9337H70.6748V12.514ZM70.5964 20.3371H69.0292V13.5458H70.5964V20.3371ZM72.1773 20.7812H73.8229C73.9883 21.4081 74.5064 21.7215 75.3771 21.7215C76.5003 21.7215 77.0618 21.1861 77.0618 20.1151V19.3576C76.5481 19.88 75.8516 20.1412 74.9722 20.1412C74.0493 20.1412 73.3005 19.8147 72.7258 19.1617C72.1947 18.5522 71.9292 17.7643 71.9292 16.7978C71.9292 15.6572 72.2557 14.7735 72.9087 14.1466C73.4572 13.6155 74.1625 13.3499 75.0244 13.3499C75.93 13.3499 76.6352 13.6808 77.1402 14.3425L77.3884 13.5458H78.6291V20.1021C78.6291 20.9989 78.3069 21.6998 77.6626 22.2048C77.088 22.6575 76.3305 22.8839 75.3901 22.8839C74.3801 22.8839 73.5922 22.6706 73.0262 22.2439C72.5648 21.887 72.2818 21.3994 72.1773 20.7812ZM73.5356 16.8109C73.5356 17.5161 73.7315 18.0603 74.1233 18.4434C74.4454 18.7481 74.8503 18.9005 75.3379 18.9005C75.9648 18.9005 76.4393 18.6959 76.7615 18.2867C77.0401 17.9297 77.1794 17.4421 77.1794 16.8239C77.1794 16.049 76.9878 15.4657 76.6047 15.0738C76.2913 14.7517 75.869 14.5906 75.3379 14.5906C74.7545 14.5906 74.3018 14.7996 73.9796 15.2175C73.6836 15.6006 73.5356 16.1317 73.5356 16.8109ZM81.8711 20.3371H80.3039V13.5458H81.5968L81.7666 14.3555C82.2629 13.6851 82.9507 13.3499 83.8301 13.3499C84.6486 13.3499 85.2755 13.6024 85.7108 14.1074C86.0939 14.5514 86.2855 15.1566 86.2855 15.9228V20.3371H84.7182V15.9619C84.7182 15.0303 84.2872 14.5645 83.4253 14.5645C82.9551 14.5645 82.572 14.7299 82.276 15.0608C82.006 15.3655 81.8711 15.7486 81.8711 16.2101V20.3371ZM99.7014 15.2045V20.3371H98.5521L98.317 19.3184C98.0123 19.7015 97.6161 20.0019 97.1286 20.2196C96.641 20.4286 96.0968 20.533 95.496 20.533C94.1987 20.533 93.1669 20.0629 92.4007 19.1225C91.6868 18.2431 91.3298 17.0721 91.3298 15.6093C91.3298 13.9463 91.8043 12.6795 92.7534 11.8088C93.5283 11.0948 94.5252 10.7378 95.7442 10.7378C96.8761 10.7378 97.812 11.0469 98.5521 11.6651C99.179 12.1875 99.5578 12.8536 99.6884 13.6633H98.0428C97.9122 13.0974 97.6205 12.6708 97.1677 12.3834C96.7846 12.1396 96.3101 12.0177 95.7442 12.0177C94.8822 12.0177 94.2118 12.3443 93.7329 12.9973C93.2801 13.6242 93.0537 14.4948 93.0537 15.6093C93.0537 16.8631 93.3585 17.8209 93.968 18.4826C94.4468 18.9963 95.0433 19.2531 95.7572 19.2531C96.506 19.2531 97.1155 19.0311 97.5857 18.5871C98.0123 18.1865 98.2256 17.699 98.2256 17.1243V16.4191H95.6789V15.2045H99.7014ZM101.232 13.5458H102.799V18.0124C102.799 18.8831 103.226 19.3184 104.079 19.3184C104.575 19.3184 104.963 19.14 105.241 18.783C105.468 18.4782 105.581 18.1038 105.581 17.6598V13.5458H107.148V20.3371H105.855L105.685 19.5796C105.198 20.2152 104.519 20.533 103.648 20.533C102.847 20.533 102.233 20.2893 101.807 19.8017C101.423 19.3576 101.232 18.7481 101.232 17.9732V13.5458ZM110.468 12.514H108.744V10.9337H110.468V12.514ZM110.389 20.3371H108.822V13.5458H110.389V20.3371ZM118.474 20.3371H117.221L116.946 19.4621C116.415 20.1761 115.688 20.533 114.765 20.533C113.799 20.533 113.037 20.1848 112.48 19.4882C111.975 18.8526 111.722 18.0211 111.722 16.9937C111.722 15.7573 112.049 14.8126 112.702 14.1596C113.242 13.6198 113.942 13.3499 114.804 13.3499C115.701 13.3499 116.402 13.672 116.907 14.3164V10.9337H118.474V20.3371ZM113.329 17.0068C113.329 17.8078 113.52 18.4042 113.903 18.796C114.217 19.1269 114.626 19.2923 115.131 19.2923C115.749 19.2923 116.219 19.0659 116.541 18.6132C116.829 18.2127 116.972 17.6728 116.972 16.9937C116.972 16.1404 116.772 15.5048 116.372 15.0869C116.058 14.756 115.645 14.5906 115.131 14.5906C114.53 14.5906 114.073 14.817 113.76 15.2698C113.472 15.679 113.329 16.258 113.329 17.0068ZM124.758 18.3781H126.404C126.221 19.0746 125.842 19.6145 125.268 19.9976C124.719 20.3546 124.044 20.533 123.243 20.533C122.137 20.533 121.275 20.1848 120.657 19.4882C120.091 18.8526 119.808 18.0037 119.808 16.9415C119.808 15.7225 120.161 14.7909 120.866 14.1466C121.458 13.6155 122.229 13.3499 123.178 13.3499C124.284 13.3499 125.12 13.7112 125.685 14.4339C126.217 15.1043 126.482 16.0621 126.482 17.3072H121.402C121.463 18.0385 121.689 18.574 122.081 18.9136C122.394 19.1922 122.803 19.3315 123.308 19.3315C123.665 19.3315 123.975 19.2444 124.236 19.0703C124.497 18.8962 124.671 18.6654 124.758 18.3781ZM124.876 16.2362C124.841 15.6006 124.649 15.1348 124.301 14.8388C124.014 14.5863 123.639 14.46 123.178 14.46C122.673 14.46 122.268 14.6254 121.963 14.9563C121.685 15.2523 121.506 15.679 121.428 16.2362H124.876ZM129.393 10.9337V20.3371H127.826V10.9337H129.393ZM132.711 12.514H130.987V10.9337H132.711V12.514ZM132.633 20.3371H131.065V13.5458H132.633V20.3371ZM135.872 20.3371H134.305V13.5458H135.598L135.768 14.3555C136.264 13.6851 136.952 13.3499 137.831 13.3499C138.65 13.3499 139.277 13.6024 139.712 14.1074C140.095 14.5514 140.287 15.1566 140.287 15.9228V20.3371H138.719V15.9619C138.719 15.0303 138.288 14.5645 137.426 14.5645C136.956 14.5645 136.573 14.7299 136.277 15.0608C136.007 15.3655 135.872 15.7486 135.872 16.2101V20.3371ZM146.504 18.3781H148.15C147.967 19.0746 147.588 19.6145 147.013 19.9976C146.465 20.3546 145.79 20.533 144.989 20.533C143.883 20.533 143.021 20.1848 142.403 19.4882C141.837 18.8526 141.554 18.0037 141.554 16.9415C141.554 15.7225 141.907 14.7909 142.612 14.1466C143.204 13.6155 143.975 13.3499 144.924 13.3499C146.03 13.3499 146.865 13.7112 147.431 14.4339C147.962 15.1043 148.228 16.0621 148.228 17.3072H143.148C143.209 18.0385 143.435 18.574 143.827 18.9136C144.14 19.1922 144.549 19.3315 145.054 19.3315C145.411 19.3315 145.72 19.2444 145.982 19.0703C146.243 18.8962 146.417 18.6654 146.504 18.3781ZM146.622 16.2362C146.587 15.6006 146.395 15.1348 146.047 14.8388C145.76 14.5863 145.385 14.46 144.924 14.46C144.419 14.46 144.014 14.6254 143.709 14.9563C143.431 15.2523 143.252 15.679 143.174 16.2362H146.622Z" fill="black" fill-opacity="0.95"/>
<a href="https:///design%20guideline/Logo%20Guideline">
<rect fill="black" fill-opacity="0" x="0.467308" y="0.898512" width="138.067" height="17.7359"/>
</a>
</svg>
