<svg width="559" height="345" viewBox="0 0 559 345" fill="none" xmlns="http://www.w3.org/2000/svg">
<path d="M0 24C0 10.7452 10.7452 0 24 0H535C548.255 0 559 10.7452 559 24V321C559 334.255 548.255 345 535 345H24C10.7452 345 0 334.255 0 321V24Z" fill="#262626"/>
<path d="M519 25.9995C516.232 25.9995 513.525 26.8206 511.222 28.3589C508.92 29.8973 507.126 32.0838 506.066 34.6419C505.007 37.2001 504.729 40.015 505.269 42.7308C505.81 45.4465 507.143 47.9411 509.101 49.899C511.059 51.8569 513.553 53.1903 516.269 53.7305C518.985 54.2707 521.8 53.9935 524.358 52.9338C526.916 51.8742 529.103 50.0798 530.641 47.7775C532.179 45.4752 533 42.7684 533 39.9995C532.996 36.2878 531.52 32.7292 528.895 30.1046C526.271 27.48 522.712 26.0037 519 25.9995ZM528.155 47.7402L511.26 30.8447C513.555 28.8983 516.498 27.8862 519.505 28.0096C522.511 28.1329 525.362 29.3826 527.49 31.5105C529.617 33.6383 530.867 36.4887 530.99 39.4954C531.114 42.5021 530.102 45.4453 528.155 47.7402ZM509.846 32.2588L526.741 49.1543C524.446 51.1007 521.503 52.1127 518.496 51.9894C515.49 51.866 512.639 50.6164 510.512 48.4885C508.384 46.3607 507.134 43.5103 507.011 40.5036C506.887 37.4969 507.899 34.5538 509.846 32.2588Z" fill="#FC8B98"/>
<path d="M283.308 181.896C286.673 180.8 290.352 178.452 293.717 175.087C300.604 168.2 303.343 159.67 299.743 156.07C296.143 152.47 287.612 155.209 280.726 162.096C273.839 168.983 271.099 177.513 274.699 181.113L288.786 195.2C291.839 198.252 298.334 196.765 304.439 192.07M235.178 134.157C235.178 138.696 236.821 143.235 240.343 146.678L248.952 155.287C251.221 157.557 255.369 157.322 259.83 155.209L267.343 162.722C268.439 163.817 270.16 163.817 271.256 162.722C272.352 161.626 272.352 159.904 271.256 158.809L264.604 152.157C265.778 151.296 266.873 150.357 267.969 149.261C269.065 148.165 270.004 147.07 270.865 145.896L277.517 152.548C278.612 153.643 280.334 153.643 281.43 152.548C282.526 151.452 282.526 149.73 281.43 148.635L273.917 141.122C276.03 136.661 276.265 132.513 273.995 130.244L265.386 121.635C258.499 114.748 247.23 114.748 240.343 121.635M291.917 138.852L301.308 129.461M284.091 135.722V123.2M295.047 146.678H307.569M257.482 173.287L248.091 182.678M265.308 176.417V188.939M254.352 165.461H241.83M306.786 163.113L313.83 170.157C317.195 173.522 315.004 181.504 309.056 188.157C308.743 188.548 308.821 189.174 309.291 189.409C312.969 191.287 326.352 199.348 326.352 215.548C326.352 225.096 320.717 232.765 313.83 232.765C306.943 232.765 301.308 225.096 301.308 215.548C301.308 198.33 323.221 178.765 348.265 201.461M240.265 121.635C238.699 123.2 237.917 125.548 237.917 127.113C237.917 129.304 239.326 131.026 241.047 131.026C242.769 131.026 244.178 129.304 244.178 127.113C244.178 116.157 236.039 107.548 226.178 107.548C217.569 107.548 210.526 118.739 210.526 132.591C210.526 162.33 241.83 171.722 241.83 201.461C241.83 215.313 234.786 226.504 226.178 226.504C215.221 226.504 210.526 213.983 210.526 213.983M293.795 164.991C292.543 166.243 290.821 166.635 290.039 165.852C289.256 165.07 289.647 163.348 290.899 162.096C292.152 160.843 293.873 160.452 294.656 161.235C295.439 162.017 295.047 163.739 293.795 164.991ZM283.621 175.165C282.369 176.417 280.647 176.809 279.865 176.026C279.082 175.243 279.473 173.522 280.726 172.27C281.978 171.017 283.699 170.626 284.482 171.409C285.265 172.191 284.873 173.913 283.621 175.165Z" stroke="url(#paint0_linear_1478_4582)" stroke-width="1.94048" stroke-miterlimit="10" stroke-linecap="round" stroke-linejoin="round"/>
<path d="M368.024 80L189.5 258.524" stroke="#FC8B98" stroke-width="6.20953" stroke-linecap="round"/>
<path d="M189.5 80L368.024 258.524" stroke="#FC8B98" stroke-width="6.20953" stroke-linecap="round"/>
<path d="M0 322H559C559 334.703 548.703 345 536 345H23C10.2975 345 0 334.703 0 322Z" fill="url(#paint1_linear_1478_4582)"/>
<defs>
<linearGradient id="paint0_linear_1478_4582" x1="279.395" y1="107.548" x2="279.395" y2="232.765" gradientUnits="userSpaceOnUse">
<stop stop-color="#647E2C"/>
<stop offset="1" stop-color="#C437B6"/>
</linearGradient>
<linearGradient id="paint1_linear_1478_4582" x1="279.5" y1="322" x2="279.5" y2="345" gradientUnits="userSpaceOnUse">
<stop stop-color="#F0677E"/>
<stop offset="1" stop-color="#DB1F2E"/>
</linearGradient>
</defs>
</svg>
