<svg width="555" height="240" viewBox="0 0 555 240" fill="none" xmlns="http://www.w3.org/2000/svg">
<rect width="555" height="240" rx="24" fill="#262626"/>
<rect x="51" y="100" width="135" height="40" rx="20" fill="white" fill-opacity="0.95"/>
<path d="M82.625 113.125H71.375C70.5465 113.126 69.7522 113.456 69.1664 114.041C68.5805 114.627 68.251 115.421 68.25 116.25V123.615C68.2509 124.479 68.5947 125.308 69.2059 125.919C69.8171 126.53 70.6458 126.874 71.5101 126.875H82.4897C83.3541 126.874 84.1828 126.53 84.794 125.919C85.4052 125.308 85.749 124.479 85.75 123.615V116.25C85.749 115.421 85.4195 114.627 84.8336 114.041C84.2478 113.456 83.4535 113.126 82.625 113.125ZM84.5 123.615C84.4993 124.148 84.2873 124.659 83.9104 125.036C83.5336 125.412 83.0227 125.624 82.4897 125.625H71.5101C70.9772 125.625 70.4662 125.413 70.0893 125.036C69.7124 124.659 69.5005 124.148 69.5 123.615V116.25C69.5005 115.753 69.6983 115.276 70.0498 114.925C70.4013 114.573 70.8779 114.376 71.375 114.375H82.625C83.1221 114.376 83.5987 114.573 83.9502 114.925C84.3017 115.276 84.4995 115.753 84.5 116.25V123.615Z" fill="black" fill-opacity="0.95"/>
<path d="M77.4421 117.058C77.3249 116.941 77.166 116.875 77.0002 116.875C76.8345 116.875 76.6755 116.941 76.5583 117.058L74.0583 119.558C73.944 119.676 73.8807 119.834 73.882 119.998C73.8832 120.162 73.949 120.319 74.065 120.435C74.1811 120.551 74.3381 120.617 74.5022 120.618C74.6663 120.619 74.8243 120.556 74.9421 120.442L76.375 119.009V122.5C76.375 122.666 76.4408 122.825 76.5581 122.942C76.6753 123.06 76.8342 123.125 77 123.125C77.1658 123.125 77.3247 123.06 77.4419 122.942C77.5592 122.825 77.625 122.666 77.625 122.5V119.009L79.0581 120.442C79.1759 120.556 79.3339 120.619 79.498 120.618C79.6621 120.617 79.8191 120.551 79.9352 120.435C80.0512 120.319 80.117 120.162 80.1182 119.998C80.1195 119.834 80.0561 119.676 79.9419 119.558L77.4421 117.058Z" fill="black" fill-opacity="0.95"/>
<path d="M94.2784 126V114.364H98.5398C99.3655 114.364 100.049 114.5 100.591 114.773C101.133 115.042 101.538 115.407 101.807 115.869C102.076 116.328 102.21 116.845 102.21 117.42C102.21 117.905 102.121 118.314 101.943 118.648C101.765 118.977 101.527 119.242 101.227 119.443C100.932 119.64 100.606 119.784 100.25 119.875V119.989C100.636 120.008 101.013 120.133 101.381 120.364C101.752 120.591 102.059 120.915 102.301 121.335C102.544 121.756 102.665 122.267 102.665 122.869C102.665 123.464 102.525 123.998 102.244 124.472C101.968 124.941 101.54 125.314 100.96 125.591C100.381 125.864 99.6402 126 98.7386 126H94.2784ZM96.0341 124.494H98.5682C99.4091 124.494 100.011 124.331 100.375 124.006C100.739 123.68 100.92 123.273 100.92 122.784C100.92 122.417 100.828 122.08 100.642 121.773C100.456 121.466 100.191 121.222 99.8466 121.04C99.5057 120.858 99.1004 120.767 98.6307 120.767H96.0341V124.494ZM96.0341 119.398H98.3864C98.7803 119.398 99.1345 119.322 99.4489 119.17C99.767 119.019 100.019 118.807 100.205 118.534C100.394 118.258 100.489 117.932 100.489 117.557C100.489 117.076 100.32 116.672 99.983 116.347C99.6458 116.021 99.1288 115.858 98.4318 115.858H96.0341V119.398ZM110.139 122.381V117.273H111.844V126H110.173V124.489H110.082C109.882 124.955 109.56 125.343 109.116 125.653C108.677 125.96 108.13 126.114 107.474 126.114C106.914 126.114 106.418 125.991 105.986 125.744C105.558 125.494 105.221 125.125 104.974 124.636C104.732 124.148 104.611 123.544 104.611 122.824V117.273H106.31V122.619C106.31 123.214 106.474 123.687 106.804 124.04C107.134 124.392 107.562 124.568 108.088 124.568C108.406 124.568 108.723 124.489 109.037 124.33C109.355 124.17 109.618 123.93 109.827 123.608C110.039 123.286 110.143 122.877 110.139 122.381ZM118.2 117.273V118.636H113.433V117.273H118.2ZM114.712 115.182H116.411V123.438C116.411 123.767 116.46 124.015 116.558 124.182C116.657 124.345 116.784 124.456 116.939 124.517C117.098 124.574 117.27 124.602 117.456 124.602C117.592 124.602 117.712 124.593 117.814 124.574C117.916 124.555 117.996 124.54 118.053 124.528L118.359 125.932C118.261 125.97 118.121 126.008 117.939 126.045C117.757 126.087 117.53 126.11 117.257 126.114C116.81 126.121 116.393 126.042 116.007 125.875C115.621 125.708 115.308 125.451 115.07 125.102C114.831 124.754 114.712 124.316 114.712 123.79V115.182ZM124.153 117.273V118.636H119.386V117.273H124.153ZM120.665 115.182H122.364V123.438C122.364 123.767 122.413 124.015 122.511 124.182C122.61 124.345 122.737 124.456 122.892 124.517C123.051 124.574 123.223 124.602 123.409 124.602C123.545 124.602 123.665 124.593 123.767 124.574C123.869 124.555 123.949 124.54 124.006 124.528L124.312 125.932C124.214 125.97 124.074 126.008 123.892 126.045C123.71 126.087 123.483 126.11 123.21 126.114C122.763 126.121 122.347 126.042 121.96 125.875C121.574 125.708 121.261 125.451 121.023 125.102C120.784 124.754 120.665 124.316 120.665 123.79V115.182ZM129.615 126.176C128.797 126.176 128.083 125.989 127.473 125.614C126.863 125.239 126.39 124.714 126.053 124.04C125.715 123.366 125.547 122.578 125.547 121.676C125.547 120.771 125.715 119.979 126.053 119.301C126.39 118.623 126.863 118.097 127.473 117.722C128.083 117.347 128.797 117.159 129.615 117.159C130.433 117.159 131.147 117.347 131.757 117.722C132.367 118.097 132.84 118.623 133.178 119.301C133.515 119.979 133.683 120.771 133.683 121.676C133.683 122.578 133.515 123.366 133.178 124.04C132.84 124.714 132.367 125.239 131.757 125.614C131.147 125.989 130.433 126.176 129.615 126.176ZM129.621 124.75C130.151 124.75 130.59 124.61 130.939 124.33C131.287 124.049 131.545 123.676 131.712 123.21C131.882 122.744 131.967 122.231 131.967 121.67C131.967 121.114 131.882 120.602 131.712 120.136C131.545 119.667 131.287 119.29 130.939 119.006C130.59 118.722 130.151 118.58 129.621 118.58C129.087 118.58 128.643 118.722 128.291 119.006C127.943 119.29 127.683 119.667 127.513 120.136C127.346 120.602 127.263 121.114 127.263 121.67C127.263 122.231 127.346 122.744 127.513 123.21C127.683 123.676 127.943 124.049 128.291 124.33C128.643 124.61 129.087 124.75 129.621 124.75ZM137.278 120.818V126H135.58V117.273H137.21V118.693H137.318C137.519 118.231 137.833 117.86 138.261 117.58C138.693 117.299 139.237 117.159 139.892 117.159C140.487 117.159 141.008 117.284 141.455 117.534C141.902 117.78 142.248 118.148 142.494 118.636C142.741 119.125 142.864 119.729 142.864 120.449V126H141.165V120.653C141.165 120.021 141 119.527 140.67 119.17C140.341 118.811 139.888 118.631 139.312 118.631C138.919 118.631 138.568 118.716 138.261 118.886C137.958 119.057 137.718 119.307 137.54 119.636C137.366 119.962 137.278 120.356 137.278 120.818Z" fill="black" fill-opacity="0.95"/>
<path d="M164.192 119.558L156.692 112.058C156.634 111.998 156.565 111.951 156.489 111.918C156.413 111.886 156.331 111.869 156.248 111.868C156.165 111.868 156.083 111.883 156.006 111.915C155.93 111.946 155.86 111.993 155.801 112.051C155.743 112.11 155.696 112.18 155.665 112.256C155.634 112.333 155.618 112.415 155.618 112.498C155.619 112.581 155.636 112.663 155.669 112.739C155.701 112.815 155.749 112.884 155.808 112.942L162.866 120L155.808 127.058C155.749 127.116 155.701 127.185 155.669 127.261C155.636 127.337 155.619 127.419 155.618 127.502C155.618 127.585 155.634 127.667 155.665 127.744C155.696 127.82 155.743 127.89 155.801 127.949C155.86 128.007 155.93 128.054 156.006 128.085C156.083 128.116 156.165 128.132 156.248 128.132C156.331 128.131 156.413 128.114 156.489 128.081C156.565 128.049 156.634 128.001 156.692 127.942L164.192 120.442C164.309 120.325 164.375 120.166 164.375 120C164.375 119.834 164.309 119.675 164.192 119.558Z" fill="black" fill-opacity="0.95"/>
<rect x="210.5" y="100.5" width="134" height="39" rx="19.5" stroke="white" stroke-opacity="0.3"/>
<path d="M242.875 121.875C242.793 121.875 242.712 121.891 242.636 121.922C242.56 121.954 242.491 122 242.433 122.058C242.375 122.116 242.329 122.185 242.298 122.261C242.266 122.337 242.25 122.418 242.25 122.5V124.351C242.249 124.854 242.049 125.337 241.693 125.693C241.337 126.049 240.854 126.249 240.351 126.25H231.649C231.146 126.249 230.663 126.049 230.307 125.693C229.951 125.337 229.751 124.854 229.75 124.351V115.649C229.751 115.146 229.951 114.663 230.307 114.307C230.663 113.951 231.146 113.751 231.649 113.75H233.5C233.666 113.75 233.825 113.684 233.942 113.567C234.059 113.45 234.125 113.291 234.125 113.125C234.125 112.959 234.059 112.8 233.942 112.683C233.825 112.566 233.666 112.5 233.5 112.5H231.649C230.814 112.501 230.014 112.833 229.424 113.424C228.833 114.014 228.501 114.814 228.5 115.649V124.351C228.501 125.186 228.833 125.986 229.424 126.576C230.014 127.167 230.815 127.499 231.649 127.5H240.351C241.186 127.499 241.986 127.167 242.576 126.576C243.167 125.986 243.499 125.186 243.5 124.351V122.5C243.5 122.418 243.484 122.337 243.453 122.261C243.421 122.185 243.375 122.116 243.317 122.058C243.259 122 243.19 121.954 243.114 121.922C243.038 121.891 242.957 121.875 242.875 121.875Z" fill="white" fill-opacity="0.95"/>
<path d="M242.875 112.501L237.875 112.5C237.709 112.5 237.55 112.566 237.433 112.683C237.316 112.8 237.25 112.959 237.25 113.125C237.25 113.291 237.316 113.45 237.433 113.567C237.55 113.684 237.709 113.75 237.875 113.75L241.365 113.751L237.433 117.683C237.375 117.741 237.329 117.81 237.298 117.886C237.266 117.962 237.25 118.043 237.25 118.125C237.25 118.207 237.266 118.288 237.298 118.364C237.329 118.44 237.375 118.509 237.433 118.567C237.491 118.625 237.56 118.671 237.636 118.702C237.712 118.734 237.793 118.75 237.875 118.75C237.957 118.75 238.038 118.734 238.114 118.702C238.19 118.671 238.259 118.625 238.317 118.567L242.25 114.633V118.125C242.25 118.291 242.316 118.45 242.433 118.567C242.55 118.684 242.709 118.75 242.875 118.75C243.041 118.75 243.2 118.684 243.317 118.567C243.434 118.45 243.5 118.291 243.5 118.125V113.126C243.5 112.96 243.434 112.802 243.317 112.684C243.2 112.567 243.041 112.501 242.875 112.501Z" fill="white" fill-opacity="0.95"/>
<path d="M253.278 126V114.364H257.54C258.366 114.364 259.049 114.5 259.591 114.773C260.133 115.042 260.538 115.407 260.807 115.869C261.076 116.328 261.21 116.845 261.21 117.42C261.21 117.905 261.121 118.314 260.943 118.648C260.765 118.977 260.527 119.242 260.227 119.443C259.932 119.64 259.606 119.784 259.25 119.875V119.989C259.636 120.008 260.013 120.133 260.381 120.364C260.752 120.591 261.059 120.915 261.301 121.335C261.544 121.756 261.665 122.267 261.665 122.869C261.665 123.464 261.525 123.998 261.244 124.472C260.968 124.941 260.54 125.314 259.96 125.591C259.381 125.864 258.64 126 257.739 126H253.278ZM255.034 124.494H257.568C258.409 124.494 259.011 124.331 259.375 124.006C259.739 123.68 259.92 123.273 259.92 122.784C259.92 122.417 259.828 122.08 259.642 121.773C259.456 121.466 259.191 121.222 258.847 121.04C258.506 120.858 258.1 120.767 257.631 120.767H255.034V124.494ZM255.034 119.398H257.386C257.78 119.398 258.134 119.322 258.449 119.17C258.767 119.019 259.019 118.807 259.205 118.534C259.394 118.258 259.489 117.932 259.489 117.557C259.489 117.076 259.32 116.672 258.983 116.347C258.646 116.021 258.129 115.858 257.432 115.858H255.034V119.398ZM269.139 122.381V117.273H270.844V126H269.173V124.489H269.082C268.882 124.955 268.56 125.343 268.116 125.653C267.677 125.96 267.13 126.114 266.474 126.114C265.914 126.114 265.418 125.991 264.986 125.744C264.558 125.494 264.221 125.125 263.974 124.636C263.732 124.148 263.611 123.544 263.611 122.824V117.273H265.31V122.619C265.31 123.214 265.474 123.687 265.804 124.04C266.134 124.392 266.562 124.568 267.088 124.568C267.406 124.568 267.723 124.489 268.037 124.33C268.355 124.17 268.618 123.93 268.827 123.608C269.039 123.286 269.143 122.877 269.139 122.381ZM277.2 117.273V118.636H272.433V117.273H277.2ZM273.712 115.182H275.411V123.438C275.411 123.767 275.46 124.015 275.558 124.182C275.657 124.345 275.784 124.456 275.939 124.517C276.098 124.574 276.27 124.602 276.456 124.602C276.592 124.602 276.712 124.593 276.814 124.574C276.916 124.555 276.996 124.54 277.053 124.528L277.359 125.932C277.261 125.97 277.121 126.008 276.939 126.045C276.757 126.087 276.53 126.11 276.257 126.114C275.81 126.121 275.393 126.042 275.007 125.875C274.621 125.708 274.308 125.451 274.07 125.102C273.831 124.754 273.712 124.316 273.712 123.79V115.182ZM283.153 117.273V118.636H278.386V117.273H283.153ZM279.665 115.182H281.364V123.438C281.364 123.767 281.413 124.015 281.511 124.182C281.61 124.345 281.737 124.456 281.892 124.517C282.051 124.574 282.223 124.602 282.409 124.602C282.545 124.602 282.665 124.593 282.767 124.574C282.869 124.555 282.949 124.54 283.006 124.528L283.312 125.932C283.214 125.97 283.074 126.008 282.892 126.045C282.71 126.087 282.483 126.11 282.21 126.114C281.763 126.121 281.347 126.042 280.96 125.875C280.574 125.708 280.261 125.451 280.023 125.102C279.784 124.754 279.665 124.316 279.665 123.79V115.182ZM288.615 126.176C287.797 126.176 287.083 125.989 286.473 125.614C285.863 125.239 285.39 124.714 285.053 124.04C284.715 123.366 284.547 122.578 284.547 121.676C284.547 120.771 284.715 119.979 285.053 119.301C285.39 118.623 285.863 118.097 286.473 117.722C287.083 117.347 287.797 117.159 288.615 117.159C289.433 117.159 290.147 117.347 290.757 117.722C291.367 118.097 291.84 118.623 292.178 119.301C292.515 119.979 292.683 120.771 292.683 121.676C292.683 122.578 292.515 123.366 292.178 124.04C291.84 124.714 291.367 125.239 290.757 125.614C290.147 125.989 289.433 126.176 288.615 126.176ZM288.621 124.75C289.151 124.75 289.59 124.61 289.939 124.33C290.287 124.049 290.545 123.676 290.712 123.21C290.882 122.744 290.967 122.231 290.967 121.67C290.967 121.114 290.882 120.602 290.712 120.136C290.545 119.667 290.287 119.29 289.939 119.006C289.59 118.722 289.151 118.58 288.621 118.58C288.087 118.58 287.643 118.722 287.291 119.006C286.943 119.29 286.683 119.667 286.513 120.136C286.346 120.602 286.263 121.114 286.263 121.67C286.263 122.231 286.346 122.744 286.513 123.21C286.683 123.676 286.943 124.049 287.291 124.33C287.643 124.61 288.087 124.75 288.621 124.75ZM296.278 120.818V126H294.58V117.273H296.21V118.693H296.318C296.519 118.231 296.833 117.86 297.261 117.58C297.693 117.299 298.237 117.159 298.892 117.159C299.487 117.159 300.008 117.284 300.455 117.534C300.902 117.78 301.248 118.148 301.494 118.636C301.741 119.125 301.864 119.729 301.864 120.449V126H300.165V120.653C300.165 120.021 300 119.527 299.67 119.17C299.341 118.811 298.888 118.631 298.312 118.631C297.919 118.631 297.568 118.716 297.261 118.886C296.958 119.057 296.718 119.307 296.54 119.636C296.366 119.962 296.278 120.356 296.278 120.818Z" fill="white" fill-opacity="0.95"/>
<path d="M326.942 115.808C326.825 115.691 326.666 115.625 326.5 115.625C326.335 115.625 326.176 115.691 326.058 115.808L319 122.866L311.942 115.808C311.824 115.694 311.666 115.63 311.502 115.632C311.338 115.633 311.181 115.699 311.065 115.815C310.949 115.931 310.883 116.088 310.882 116.252C310.88 116.416 310.944 116.574 311.058 116.692L318.558 124.192C318.675 124.309 318.834 124.375 319 124.375C319.166 124.375 319.325 124.309 319.442 124.192L326.942 116.692C327.059 116.575 327.125 116.416 327.125 116.25C327.125 116.084 327.059 115.925 326.942 115.808Z" fill="white" fill-opacity="0.95"/>
<rect x="369" y="100" width="135" height="40" rx="20" fill="#1D805F"/>
<path d="M401.25 111.25H395C394.337 111.251 393.702 111.514 393.233 111.983C392.764 112.452 392.501 113.087 392.5 113.75V117.5H388.75C388.087 117.501 387.452 117.764 386.983 118.233C386.514 118.702 386.251 119.337 386.25 120V126.25C386.251 126.913 386.514 127.548 386.983 128.017C387.452 128.486 388.087 128.749 388.75 128.75H395C395.663 128.749 396.298 128.486 396.767 128.017C397.236 127.548 397.499 126.913 397.5 126.25V122.5H401.25C401.913 122.499 402.548 122.236 403.017 121.767C403.486 121.298 403.749 120.663 403.75 120V113.75C403.749 113.087 403.486 112.452 403.017 111.983C402.548 111.514 401.913 111.251 401.25 111.25ZM396.25 126.25C396.25 126.581 396.118 126.899 395.884 127.133C395.649 127.368 395.332 127.5 395 127.5H388.75C388.419 127.5 388.101 127.368 387.867 127.133C387.632 126.899 387.501 126.581 387.5 126.25V121.25H396.25V126.25ZM387.5 120C387.501 119.669 387.632 119.351 387.867 119.117C388.101 118.882 388.419 118.75 388.75 118.75H395C395.332 118.75 395.649 118.882 395.884 119.117C396.118 119.351 396.25 119.669 396.25 120H387.5ZM402.5 120C402.5 120.331 402.368 120.649 402.134 120.883C401.899 121.118 401.582 121.25 401.25 121.25H397.5V120C397.499 119.337 397.236 118.702 396.767 118.233C396.298 117.764 395.663 117.501 395 117.5H393.75V115H402.5V120ZM393.75 113.75C393.751 113.419 393.882 113.101 394.117 112.867C394.351 112.632 394.669 112.5 395 112.5H401.25C401.582 112.5 401.899 112.632 402.134 112.867C402.368 113.101 402.5 113.419 402.5 113.75H393.75Z" fill="white" fill-opacity="0.95"/>
<path d="M412.278 126V114.364H416.54C417.366 114.364 418.049 114.5 418.591 114.773C419.133 115.042 419.538 115.407 419.807 115.869C420.076 116.328 420.21 116.845 420.21 117.42C420.21 117.905 420.121 118.314 419.943 118.648C419.765 118.977 419.527 119.242 419.227 119.443C418.932 119.64 418.606 119.784 418.25 119.875V119.989C418.636 120.008 419.013 120.133 419.381 120.364C419.752 120.591 420.059 120.915 420.301 121.335C420.544 121.756 420.665 122.267 420.665 122.869C420.665 123.464 420.525 123.998 420.244 124.472C419.968 124.941 419.54 125.314 418.96 125.591C418.381 125.864 417.64 126 416.739 126H412.278ZM414.034 124.494H416.568C417.409 124.494 418.011 124.331 418.375 124.006C418.739 123.68 418.92 123.273 418.92 122.784C418.92 122.417 418.828 122.08 418.642 121.773C418.456 121.466 418.191 121.222 417.847 121.04C417.506 120.858 417.1 120.767 416.631 120.767H414.034V124.494ZM414.034 119.398H416.386C416.78 119.398 417.134 119.322 417.449 119.17C417.767 119.019 418.019 118.807 418.205 118.534C418.394 118.258 418.489 117.932 418.489 117.557C418.489 117.076 418.32 116.672 417.983 116.347C417.646 116.021 417.129 115.858 416.432 115.858H414.034V119.398ZM428.139 122.381V117.273H429.844V126H428.173V124.489H428.082C427.882 124.955 427.56 125.343 427.116 125.653C426.677 125.96 426.13 126.114 425.474 126.114C424.914 126.114 424.418 125.991 423.986 125.744C423.558 125.494 423.221 125.125 422.974 124.636C422.732 124.148 422.611 123.544 422.611 122.824V117.273H424.31V122.619C424.31 123.214 424.474 123.687 424.804 124.04C425.134 124.392 425.562 124.568 426.088 124.568C426.406 124.568 426.723 124.489 427.037 124.33C427.355 124.17 427.618 123.93 427.827 123.608C428.039 123.286 428.143 122.877 428.139 122.381ZM436.2 117.273V118.636H431.433V117.273H436.2ZM432.712 115.182H434.411V123.438C434.411 123.767 434.46 124.015 434.558 124.182C434.657 124.345 434.784 124.456 434.939 124.517C435.098 124.574 435.27 124.602 435.456 124.602C435.592 124.602 435.712 124.593 435.814 124.574C435.916 124.555 435.996 124.54 436.053 124.528L436.359 125.932C436.261 125.97 436.121 126.008 435.939 126.045C435.757 126.087 435.53 126.11 435.257 126.114C434.81 126.121 434.393 126.042 434.007 125.875C433.621 125.708 433.308 125.451 433.07 125.102C432.831 124.754 432.712 124.316 432.712 123.79V115.182ZM442.153 117.273V118.636H437.386V117.273H442.153ZM438.665 115.182H440.364V123.438C440.364 123.767 440.413 124.015 440.511 124.182C440.61 124.345 440.737 124.456 440.892 124.517C441.051 124.574 441.223 124.602 441.409 124.602C441.545 124.602 441.665 124.593 441.767 124.574C441.869 124.555 441.949 124.54 442.006 124.528L442.312 125.932C442.214 125.97 442.074 126.008 441.892 126.045C441.71 126.087 441.483 126.11 441.21 126.114C440.763 126.121 440.347 126.042 439.96 125.875C439.574 125.708 439.261 125.451 439.023 125.102C438.784 124.754 438.665 124.316 438.665 123.79V115.182ZM447.615 126.176C446.797 126.176 446.083 125.989 445.473 125.614C444.863 125.239 444.39 124.714 444.053 124.04C443.715 123.366 443.547 122.578 443.547 121.676C443.547 120.771 443.715 119.979 444.053 119.301C444.39 118.623 444.863 118.097 445.473 117.722C446.083 117.347 446.797 117.159 447.615 117.159C448.433 117.159 449.147 117.347 449.757 117.722C450.367 118.097 450.84 118.623 451.178 119.301C451.515 119.979 451.683 120.771 451.683 121.676C451.683 122.578 451.515 123.366 451.178 124.04C450.84 124.714 450.367 125.239 449.757 125.614C449.147 125.989 448.433 126.176 447.615 126.176ZM447.621 124.75C448.151 124.75 448.59 124.61 448.939 124.33C449.287 124.049 449.545 123.676 449.712 123.21C449.882 122.744 449.967 122.231 449.967 121.67C449.967 121.114 449.882 120.602 449.712 120.136C449.545 119.667 449.287 119.29 448.939 119.006C448.59 118.722 448.151 118.58 447.621 118.58C447.087 118.58 446.643 118.722 446.291 119.006C445.943 119.29 445.683 119.667 445.513 120.136C445.346 120.602 445.263 121.114 445.263 121.67C445.263 122.231 445.346 122.744 445.513 123.21C445.683 123.676 445.943 124.049 446.291 124.33C446.643 124.61 447.087 124.75 447.621 124.75ZM455.278 120.818V126H453.58V117.273H455.21V118.693H455.318C455.519 118.231 455.833 117.86 456.261 117.58C456.693 117.299 457.237 117.159 457.892 117.159C458.487 117.159 459.008 117.284 459.455 117.534C459.902 117.78 460.248 118.148 460.494 118.636C460.741 119.125 460.864 119.729 460.864 120.449V126H459.165V120.653C459.165 120.021 459 119.527 458.67 119.17C458.341 118.811 457.888 118.631 457.312 118.631C456.919 118.631 456.568 118.716 456.261 118.886C455.958 119.057 455.718 119.307 455.54 119.636C455.366 119.962 455.278 120.356 455.278 120.818Z" fill="white" fill-opacity="0.95"/>
<path d="M482.192 119.558L474.692 112.058C474.634 111.998 474.565 111.951 474.489 111.918C474.413 111.886 474.331 111.869 474.248 111.868C474.165 111.868 474.083 111.883 474.006 111.915C473.93 111.946 473.86 111.993 473.801 112.051C473.743 112.11 473.696 112.18 473.665 112.256C473.634 112.333 473.618 112.415 473.618 112.498C473.619 112.581 473.636 112.663 473.669 112.739C473.701 112.815 473.749 112.884 473.808 112.942L480.866 120L473.808 127.058C473.749 127.116 473.701 127.185 473.669 127.261C473.636 127.337 473.619 127.419 473.618 127.502C473.618 127.585 473.634 127.667 473.665 127.744C473.696 127.82 473.743 127.89 473.801 127.949C473.86 128.007 473.93 128.054 474.006 128.085C474.083 128.116 474.165 128.132 474.248 128.132C474.331 128.131 474.413 128.114 474.489 128.081C474.565 128.049 474.634 128.001 474.692 127.942L482.192 120.442C482.309 120.325 482.375 120.166 482.375 120C482.375 119.834 482.309 119.675 482.192 119.558Z" fill="white" fill-opacity="0.95"/>
</svg>
