<svg width="559" height="150" viewBox="0 0 559 150" fill="none" xmlns="http://www.w3.org/2000/svg">
<rect width="559" height="150" rx="16" fill="url(#paint0_linear_1579_8820)"/>
<path d="M166.012 74.6817L159.193 64.9922L166 55.3242C166.428 54.7264 166.682 54.0222 166.736 53.2891C166.789 52.556 166.64 51.8222 166.304 51.1685C165.968 50.5148 165.458 49.9663 164.83 49.5834C164.203 49.2005 163.482 48.998 162.747 48.998L124.747 49C124.484 49 124.224 49.0517 123.982 49.1521C123.739 49.2526 123.518 49.4 123.333 49.5857C123.147 49.7714 123 49.9919 122.899 50.2346C122.799 50.4773 122.747 50.7374 122.747 51V79L122.751 79.0194V99C122.751 99.5305 122.962 100.039 123.337 100.414C123.712 100.789 124.22 101 124.751 101C125.281 101 125.79 100.789 126.165 100.414C126.54 100.039 126.751 99.5305 126.751 99V81L162.749 80.998C163.483 80.9979 164.203 80.7958 164.83 80.4139C165.456 80.0321 165.966 79.4852 166.303 78.833C166.64 78.1809 166.791 77.4487 166.739 76.7165C166.688 75.9843 166.436 75.2804 166.012 74.6817ZM126.751 77V53L162.738 53.0078L155.111 63.8398C154.874 64.177 154.747 64.5791 154.747 64.9912C154.747 65.4033 154.874 65.8054 155.111 66.1426L162.741 76.9844L162.749 76.998L126.751 77Z" fill="white" fill-opacity="0.95"/>
<path d="M435.512 74.6817L428.693 64.9922L435.5 55.3242C435.928 54.7264 436.182 54.0222 436.236 53.2891C436.289 52.556 436.14 51.8222 435.804 51.1685C435.468 50.5148 434.958 49.9663 434.33 49.5834C433.703 49.2005 432.982 48.998 432.247 48.998L394.247 49C393.984 49 393.724 49.0517 393.482 49.1521C393.239 49.2526 393.018 49.4 392.833 49.5857C392.647 49.7714 392.5 49.9919 392.399 50.2346C392.299 50.4773 392.247 50.7374 392.247 51V79L392.251 79.0194V99C392.251 99.5305 392.462 100.039 392.837 100.414C393.212 100.789 393.72 101 394.251 101C394.781 101 395.29 100.789 395.665 100.414C396.04 100.039 396.251 99.5305 396.251 99V81L432.249 80.998C432.983 80.9979 433.703 80.7958 434.33 80.4139C434.956 80.0321 435.466 79.4852 435.803 78.833C436.14 78.1809 436.291 77.4487 436.239 76.7165C436.188 75.9843 435.936 75.2804 435.512 74.6817ZM396.251 77V53L432.238 53.0078L424.611 63.8398C424.374 64.177 424.247 64.5791 424.247 64.9912C424.247 65.4033 424.374 65.8054 424.611 66.1426L432.241 76.9844L432.249 76.998L396.251 77Z" fill="#0F0F0F"/>
<defs>
<linearGradient id="paint0_linear_1579_8820" x1="2.08244e-06" y1="75" x2="558.651" y2="75" gradientUnits="userSpaceOnUse">
<stop offset="0.155" stop-color="#191919"/>
<stop offset="0.508897" stop-color="#262626"/>
<stop offset="0.508997" stop-color="white"/>
</linearGradient>
</defs>
</svg>
