<svg width="1150" height="140" viewBox="0 0 1150 140" fill="none" xmlns="http://www.w3.org/2000/svg">
<rect width="1150" height="140" rx="24" fill="#262626"/>
<path d="M504.225 73.5172C505.046 72.5288 505.495 71.2845 505.495 69.9997C505.495 68.7149 505.046 67.4706 504.225 66.4822L506.854 63.8531C506.901 63.8069 506.939 63.7518 506.965 63.6908C506.991 63.6299 507.004 63.5645 507.005 63.4983C507.005 63.4321 506.992 63.3665 506.967 63.3052C506.942 63.244 506.905 63.1884 506.858 63.1416C506.811 63.0948 506.756 63.0577 506.694 63.0326C506.633 63.0074 506.568 62.9947 506.501 62.9951C506.435 62.9955 506.37 63.0091 506.309 63.035C506.248 63.0609 506.193 63.0987 506.147 63.1461L503.518 65.7742C502.531 64.9507 501.286 64.4997 500 64.4997C498.714 64.4997 497.469 64.9507 496.482 65.7742L493.854 63.1461C493.759 63.0543 493.633 63.0033 493.501 63.0041C493.37 63.0049 493.244 63.0575 493.151 63.1505C493.058 63.2435 493.005 63.3694 493.005 63.5009C493.004 63.6324 493.055 63.759 493.147 63.8531L495.775 66.4819C494.954 67.4703 494.505 68.7147 494.505 69.9996C494.505 71.2845 494.954 72.5289 495.775 73.5173L493.147 76.1461C493.099 76.1923 493.061 76.2474 493.036 76.3084C493.01 76.3693 492.996 76.4347 492.996 76.5009C492.995 76.5671 493.008 76.6327 493.033 76.694C493.058 76.7552 493.095 76.8108 493.142 76.8576C493.189 76.9044 493.244 76.9415 493.306 76.9666C493.367 76.9918 493.433 77.0045 493.499 77.0041C493.565 77.0036 493.63 76.9901 493.691 76.9642C493.752 76.9383 493.807 76.9005 493.854 76.8531L496.482 74.2251C497.469 75.0486 498.714 75.4996 500 75.4996C501.286 75.4996 502.531 75.0486 503.518 74.2251L506.147 76.8531C506.241 76.9449 506.367 76.9959 506.499 76.9951C506.63 76.9943 506.756 76.9417 506.849 76.8487C506.942 76.7557 506.995 76.6298 506.996 76.4983C506.996 76.3668 506.945 76.2402 506.854 76.1461L504.225 73.5172ZM503.515 72.8072L500.707 69.9996L503.515 67.192C504.15 67.9898 504.496 68.9796 504.496 69.9996C504.496 71.0196 504.15 72.0094 503.515 72.8072ZM500 65.4996C501.021 65.4973 502.012 65.8451 502.808 66.485L500 69.2926L497.192 66.4849C497.988 65.845 498.979 65.4973 500 65.4996ZM496.485 67.1918L499.293 69.9996L496.485 72.8074C495.85 72.0095 495.503 71.0196 495.503 69.9996C495.503 68.9796 495.85 67.9897 496.485 67.1918ZM500 74.4996C498.979 74.5019 497.988 74.1542 497.192 73.5143L500 70.7066L502.808 73.5143C502.012 74.1541 501.021 74.5019 500 74.4996Z" fill="white" fill-opacity="0.95"/>
<rect x="520" y="60" width="20" height="20" rx="10" fill="white" fill-opacity="0.07"/>
<path d="M534.225 73.5172C535.046 72.5288 535.495 71.2845 535.495 69.9997C535.495 68.7149 535.046 67.4706 534.225 66.4822L536.854 63.8531C536.901 63.8069 536.939 63.7518 536.965 63.6908C536.991 63.6299 537.004 63.5645 537.005 63.4983C537.005 63.4321 536.992 63.3665 536.967 63.3052C536.942 63.244 536.905 63.1884 536.858 63.1416C536.811 63.0948 536.756 63.0577 536.694 63.0326C536.633 63.0074 536.568 62.9947 536.501 62.9951C536.435 62.9955 536.37 63.0091 536.309 63.035C536.248 63.0609 536.193 63.0987 536.147 63.1461L533.518 65.7742C532.531 64.9507 531.286 64.4997 530 64.4997C528.714 64.4997 527.469 64.9507 526.482 65.7742L523.854 63.1461C523.759 63.0543 523.633 63.0033 523.501 63.0041C523.37 63.0049 523.244 63.0575 523.151 63.1505C523.058 63.2435 523.005 63.3694 523.005 63.5009C523.004 63.6324 523.055 63.759 523.147 63.8531L525.775 66.4819C524.954 67.4703 524.505 68.7147 524.505 69.9996C524.505 71.2845 524.954 72.5289 525.775 73.5173L523.147 76.1461C523.099 76.1923 523.061 76.2474 523.036 76.3084C523.01 76.3693 522.996 76.4347 522.996 76.5009C522.995 76.5671 523.008 76.6327 523.033 76.694C523.058 76.7552 523.095 76.8108 523.142 76.8576C523.189 76.9044 523.244 76.9415 523.306 76.9666C523.367 76.9918 523.433 77.0045 523.499 77.0041C523.565 77.0036 523.63 76.9901 523.691 76.9642C523.752 76.9383 523.807 76.9005 523.854 76.8531L526.482 74.2251C527.469 75.0486 528.714 75.4996 530 75.4996C531.286 75.4996 532.531 75.0486 533.518 74.2251L536.147 76.8531C536.241 76.9449 536.367 76.9959 536.499 76.9951C536.63 76.9943 536.756 76.9417 536.849 76.8487C536.942 76.7557 536.995 76.6298 536.996 76.4983C536.996 76.3668 536.945 76.2402 536.854 76.1461L534.225 73.5172ZM533.515 72.8072L530.707 69.9996L533.515 67.192C534.15 67.9898 534.496 68.9796 534.496 69.9996C534.496 71.0196 534.15 72.0094 533.515 72.8072ZM530 65.4996C531.021 65.4973 532.012 65.8451 532.808 66.485L530 69.2926L527.192 66.4849C527.988 65.845 528.979 65.4973 530 65.4996ZM526.485 67.1918L529.293 69.9996L526.485 72.8074C525.85 72.0095 525.503 71.0196 525.503 69.9996C525.503 68.9796 525.85 67.9897 526.485 67.1918ZM530 74.4996C528.979 74.5019 527.988 74.1542 527.192 73.5143L530 70.7066L532.808 73.5143C532.012 74.1541 531.021 74.5019 530 74.4996Z" fill="white" fill-opacity="0.95"/>
<rect x="550" y="60" width="20" height="20" rx="10" fill="white" fill-opacity="0.2"/>
<path d="M564.225 73.5172C565.046 72.5288 565.495 71.2845 565.495 69.9997C565.495 68.7149 565.046 67.4706 564.225 66.4822L566.854 63.8531C566.901 63.8069 566.939 63.7518 566.965 63.6908C566.991 63.6299 567.004 63.5645 567.005 63.4983C567.005 63.4321 566.992 63.3665 566.967 63.3052C566.942 63.244 566.905 63.1884 566.858 63.1416C566.811 63.0948 566.756 63.0577 566.694 63.0326C566.633 63.0074 566.568 62.9947 566.501 62.9951C566.435 62.9955 566.37 63.0091 566.309 63.035C566.248 63.0609 566.193 63.0987 566.147 63.1461L563.518 65.7742C562.531 64.9507 561.286 64.4997 560 64.4997C558.714 64.4997 557.469 64.9507 556.482 65.7742L553.854 63.1461C553.759 63.0543 553.633 63.0033 553.501 63.0041C553.37 63.0049 553.244 63.0575 553.151 63.1505C553.058 63.2435 553.005 63.3694 553.005 63.5009C553.004 63.6324 553.055 63.759 553.147 63.8531L555.775 66.4819C554.954 67.4703 554.505 68.7147 554.505 69.9996C554.505 71.2845 554.954 72.5289 555.775 73.5173L553.147 76.1461C553.099 76.1923 553.061 76.2474 553.036 76.3084C553.01 76.3693 552.996 76.4347 552.996 76.5009C552.995 76.5671 553.008 76.6327 553.033 76.694C553.058 76.7552 553.095 76.8108 553.142 76.8576C553.189 76.9044 553.244 76.9415 553.306 76.9666C553.367 76.9918 553.433 77.0045 553.499 77.0041C553.565 77.0036 553.63 76.9901 553.691 76.9642C553.752 76.9383 553.807 76.9005 553.854 76.8531L556.482 74.2251C557.469 75.0486 558.714 75.4996 560 75.4996C561.286 75.4996 562.531 75.0486 563.518 74.2251L566.147 76.8531C566.241 76.9449 566.367 76.9959 566.499 76.9951C566.63 76.9943 566.756 76.9417 566.849 76.8487C566.942 76.7557 566.995 76.6298 566.996 76.4983C566.996 76.3668 566.945 76.2402 566.854 76.1461L564.225 73.5172ZM563.515 72.8072L560.707 69.9996L563.515 67.192C564.15 67.9898 564.496 68.9796 564.496 69.9996C564.496 71.0196 564.15 72.0094 563.515 72.8072ZM560 65.4996C561.021 65.4973 562.012 65.8451 562.808 66.485L560 69.2926L557.192 66.4849C557.988 65.845 558.979 65.4973 560 65.4996ZM556.485 67.1918L559.293 69.9996L556.485 72.8074C555.85 72.0095 555.503 71.0196 555.503 69.9996C555.503 68.9796 555.85 67.9897 556.485 67.1918ZM560 74.4996C558.979 74.5019 557.988 74.1542 557.192 73.5143L560 70.7066L562.808 73.5143C562.012 74.1541 561.021 74.5019 560 74.4996Z" fill="white" fill-opacity="0.95"/>
<rect x="580" y="60" width="20" height="20" rx="10" fill="white" fill-opacity="0.2"/>
<path d="M594.225 73.5172C595.046 72.5288 595.495 71.2845 595.495 69.9997C595.495 68.7149 595.046 67.4706 594.225 66.4822L596.854 63.8531C596.901 63.8069 596.939 63.7518 596.965 63.6908C596.991 63.6299 597.004 63.5645 597.005 63.4983C597.005 63.4321 596.992 63.3665 596.967 63.3052C596.942 63.244 596.905 63.1884 596.858 63.1416C596.811 63.0948 596.756 63.0577 596.694 63.0326C596.633 63.0074 596.568 62.9947 596.501 62.9951C596.435 62.9955 596.37 63.0091 596.309 63.035C596.248 63.0609 596.193 63.0987 596.147 63.1461L593.518 65.7742C592.531 64.9507 591.286 64.4997 590 64.4997C588.714 64.4997 587.469 64.9507 586.482 65.7742L583.854 63.1461C583.759 63.0543 583.633 63.0033 583.501 63.0041C583.37 63.0049 583.244 63.0575 583.151 63.1505C583.058 63.2435 583.005 63.3694 583.005 63.5009C583.004 63.6324 583.055 63.759 583.147 63.8531L585.775 66.4819C584.954 67.4703 584.505 68.7147 584.505 69.9996C584.505 71.2845 584.954 72.5289 585.775 73.5173L583.147 76.1461C583.099 76.1923 583.061 76.2474 583.036 76.3084C583.01 76.3693 582.996 76.4347 582.996 76.5009C582.995 76.5671 583.008 76.6327 583.033 76.694C583.058 76.7552 583.095 76.8108 583.142 76.8576C583.189 76.9044 583.244 76.9415 583.306 76.9666C583.367 76.9918 583.433 77.0045 583.499 77.0041C583.565 77.0036 583.63 76.9901 583.691 76.9642C583.752 76.9383 583.807 76.9005 583.854 76.8531L586.482 74.2251C587.469 75.0486 588.714 75.4996 590 75.4996C591.286 75.4996 592.531 75.0486 593.518 74.2251L596.147 76.8531C596.241 76.9449 596.367 76.9959 596.499 76.9951C596.63 76.9943 596.756 76.9417 596.849 76.8487C596.942 76.7557 596.995 76.6298 596.996 76.4983C596.996 76.3668 596.945 76.2402 596.854 76.1461L594.225 73.5172ZM593.515 72.8072L590.707 69.9996L593.515 67.192C594.15 67.9898 594.496 68.9796 594.496 69.9996C594.496 71.0196 594.15 72.0094 593.515 72.8072ZM590 65.4996C591.021 65.4973 592.012 65.8451 592.808 66.485L590 69.2926L587.192 66.4849C587.988 65.845 588.979 65.4973 590 65.4996ZM586.485 67.1918L589.293 69.9996L586.485 72.8074C585.85 72.0095 585.503 71.0196 585.503 69.9996C585.503 68.9796 585.85 67.9897 586.485 67.1918ZM590 74.4996C588.979 74.5019 587.988 74.1542 587.192 73.5143L590 70.7066L592.808 73.5143C592.012 74.1541 591.021 74.5019 590 74.4996Z" fill="white" fill-opacity="0.95"/>
<path d="M624.225 73.5172C625.046 72.5288 625.495 71.2845 625.495 69.9997C625.495 68.7149 625.046 67.4706 624.225 66.4822L626.854 63.8531C626.901 63.8069 626.939 63.7518 626.965 63.6908C626.991 63.6299 627.004 63.5645 627.005 63.4983C627.005 63.4321 626.992 63.3665 626.967 63.3052C626.942 63.244 626.905 63.1884 626.858 63.1416C626.811 63.0948 626.756 63.0577 626.694 63.0326C626.633 63.0074 626.568 62.9947 626.501 62.9951C626.435 62.9955 626.37 63.0091 626.309 63.035C626.248 63.0609 626.193 63.0987 626.147 63.1461L623.518 65.7742C622.531 64.9507 621.286 64.4997 620 64.4997C618.714 64.4997 617.469 64.9507 616.482 65.7742L613.854 63.1461C613.759 63.0543 613.633 63.0033 613.501 63.0041C613.37 63.0049 613.244 63.0575 613.151 63.1505C613.058 63.2435 613.005 63.3694 613.005 63.5009C613.004 63.6324 613.055 63.759 613.147 63.8531L615.775 66.4819C614.954 67.4703 614.505 68.7147 614.505 69.9996C614.505 71.2845 614.954 72.5289 615.775 73.5173L613.147 76.1461C613.099 76.1923 613.061 76.2474 613.036 76.3084C613.01 76.3693 612.996 76.4347 612.996 76.5009C612.995 76.5671 613.008 76.6327 613.033 76.694C613.058 76.7552 613.095 76.8108 613.142 76.8576C613.189 76.9044 613.244 76.9415 613.306 76.9666C613.367 76.9918 613.433 77.0045 613.499 77.0041C613.565 77.0036 613.63 76.9901 613.691 76.9642C613.752 76.9383 613.807 76.9005 613.854 76.8531L616.482 74.2251C617.469 75.0486 618.714 75.4996 620 75.4996C621.286 75.4996 622.531 75.0486 623.518 74.2251L626.147 76.8531C626.241 76.9449 626.367 76.9959 626.499 76.9951C626.63 76.9943 626.756 76.9417 626.849 76.8487C626.942 76.7557 626.995 76.6298 626.996 76.4983C626.996 76.3668 626.945 76.2402 626.854 76.1461L624.225 73.5172ZM623.515 72.8072L620.707 69.9996L623.515 67.192C624.15 67.9898 624.496 68.9796 624.496 69.9996C624.496 71.0196 624.15 72.0094 623.515 72.8072ZM620 65.4996C621.021 65.4973 622.012 65.8451 622.808 66.485L620 69.2926L617.192 66.4849C617.988 65.845 618.979 65.4973 620 65.4996ZM616.485 67.1918L619.293 69.9996L616.485 72.8074C615.85 72.0095 615.503 71.0196 615.503 69.9996C615.503 68.9796 615.85 67.9897 616.485 67.1918ZM620 74.4996C618.979 74.5019 617.988 74.1542 617.192 73.5143L620 70.7066L622.808 73.5143C622.012 74.1541 621.021 74.5019 620 74.4996Z" fill="white" fill-opacity="0.2"/>
<g filter="url(#filter0_ddd_1579_13856)">
<rect x="640" y="60" width="20" height="20" rx="10" fill="white" fill-opacity="0.01" shape-rendering="crispEdges"/>
<path d="M654.225 73.5172C655.046 72.5288 655.495 71.2845 655.495 69.9997C655.495 68.7149 655.046 67.4706 654.225 66.4822L656.854 63.8531C656.901 63.8069 656.939 63.7518 656.965 63.6908C656.991 63.6299 657.004 63.5645 657.005 63.4983C657.005 63.4321 656.992 63.3665 656.967 63.3052C656.942 63.244 656.905 63.1884 656.858 63.1416C656.811 63.0948 656.756 63.0577 656.694 63.0326C656.633 63.0074 656.568 62.9947 656.501 62.9951C656.435 62.9955 656.37 63.0091 656.309 63.035C656.248 63.0609 656.193 63.0987 656.147 63.1461L653.518 65.7742C652.531 64.9507 651.286 64.4997 650 64.4997C648.714 64.4997 647.469 64.9507 646.482 65.7742L643.854 63.1461C643.759 63.0543 643.633 63.0033 643.501 63.0041C643.37 63.0049 643.244 63.0575 643.151 63.1505C643.058 63.2435 643.005 63.3694 643.005 63.5009C643.004 63.6324 643.055 63.759 643.147 63.8531L645.775 66.4819C644.954 67.4703 644.505 68.7147 644.505 69.9996C644.505 71.2845 644.954 72.5289 645.775 73.5173L643.147 76.1461C643.099 76.1923 643.061 76.2474 643.036 76.3084C643.01 76.3693 642.996 76.4347 642.996 76.5009C642.995 76.5671 643.008 76.6327 643.033 76.694C643.058 76.7552 643.095 76.8108 643.142 76.8576C643.189 76.9044 643.244 76.9415 643.306 76.9666C643.367 76.9918 643.433 77.0045 643.499 77.0041C643.565 77.0036 643.63 76.9901 643.691 76.9642C643.752 76.9383 643.807 76.9005 643.854 76.8531L646.482 74.2251C647.469 75.0486 648.714 75.4996 650 75.4996C651.286 75.4996 652.531 75.0486 653.518 74.2251L656.147 76.8531C656.241 76.9449 656.367 76.9959 656.499 76.9951C656.63 76.9943 656.756 76.9417 656.849 76.8487C656.942 76.7557 656.995 76.6298 656.996 76.4983C656.996 76.3668 656.945 76.2402 656.854 76.1461L654.225 73.5172ZM653.515 72.8072L650.707 69.9996L653.515 67.192C654.15 67.9898 654.496 68.9796 654.496 69.9996C654.496 71.0196 654.15 72.0094 653.515 72.8072ZM650 65.4996C651.021 65.4973 652.012 65.8451 652.808 66.485L650 69.2926L647.192 66.4849C647.988 65.845 648.979 65.4973 650 65.4996ZM646.485 67.1918L649.293 69.9996L646.485 72.8074C645.85 72.0095 645.503 71.0196 645.503 69.9996C645.503 68.9796 645.85 67.9897 646.485 67.1918ZM650 74.4996C648.979 74.5019 647.988 74.1542 647.192 73.5143L650 70.7066L652.808 73.5143C652.012 74.1541 651.021 74.5019 650 74.4996Z" fill="white" fill-opacity="0.95"/>
</g>
<defs>
<filter id="filter0_ddd_1579_13856" x="635" y="55" width="30" height="30" filterUnits="userSpaceOnUse" color-interpolation-filters="sRGB">
<feFlood flood-opacity="0" result="BackgroundImageFix"/>
<feColorMatrix in="SourceAlpha" type="matrix" values="0 0 0 0 0 0 0 0 0 0 0 0 0 0 0 0 0 0 127 0" result="hardAlpha"/>
<feMorphology radius="4" operator="dilate" in="SourceAlpha" result="effect1_dropShadow_1579_13856"/>
<feOffset/>
<feComposite in2="hardAlpha" operator="out"/>
<feColorMatrix type="matrix" values="0 0 0 0 0.392157 0 0 0 0 0.705882 0 0 0 0 0.980392 0 0 0 1 0"/>
<feBlend mode="normal" in2="BackgroundImageFix" result="effect1_dropShadow_1579_13856"/>
<feColorMatrix in="SourceAlpha" type="matrix" values="0 0 0 0 0 0 0 0 0 0 0 0 0 0 0 0 0 0 127 0" result="hardAlpha"/>
<feMorphology radius="5" operator="dilate" in="SourceAlpha" result="effect2_dropShadow_1579_13856"/>
<feOffset/>
<feComposite in2="hardAlpha" operator="out"/>
<feColorMatrix type="matrix" values="0 0 0 0 0.392157 0 0 0 0 0.705882 0 0 0 0 0.980392 0 0 0 0.3 0"/>
<feBlend mode="normal" in2="effect1_dropShadow_1579_13856" result="effect2_dropShadow_1579_13856"/>
<feColorMatrix in="SourceAlpha" type="matrix" values="0 0 0 0 0 0 0 0 0 0 0 0 0 0 0 0 0 0 127 0" result="hardAlpha"/>
<feMorphology radius="2" operator="dilate" in="SourceAlpha" result="effect3_dropShadow_1579_13856"/>
<feOffset/>
<feComposite in2="hardAlpha" operator="out"/>
<feColorMatrix type="matrix" values="0 0 0 0 0 0 0 0 0 0 0 0 0 0 0 0 0 0 1 0"/>
<feBlend mode="normal" in2="effect2_dropShadow_1579_13856" result="effect3_dropShadow_1579_13856"/>
<feBlend mode="normal" in="SourceGraphic" in2="effect3_dropShadow_1579_13856" result="shape"/>
</filter>
</defs>
</svg>
