<svg width="20" height="20" viewBox="0 0 20 20" fill="none" xmlns="http://www.w3.org/2000/svg">
<path d="M16.25 15.6263L4.375 15.625V3.75C4.375 3.58424 4.30915 3.42527 4.19194 3.30806C4.07473 3.19085 3.91576 3.125 3.75 3.125C3.58424 3.125 3.42527 3.19085 3.30806 3.30806C3.19085 3.42527 3.125 3.58424 3.125 3.75V15.6238C3.12575 15.9562 3.2584 16.2746 3.49381 16.5092C3.72923 16.7438 4.04815 16.8754 4.3805 16.875L16.25 16.8763C16.4158 16.8763 16.5747 16.8104 16.6919 16.6932C16.8092 16.576 16.875 16.417 16.875 16.2513C16.875 16.0855 16.8092 15.9265 16.6919 15.8093C16.5747 15.6921 16.4158 15.6263 16.25 15.6263Z" fill="white" fill-opacity="0.95"/>
<path d="M6.75 12.2504L9.34187 8.71244L12.2411 12.1344C12.4756 12.3685 12.7936 12.5 13.125 12.5C13.1438 12.5 13.1629 12.5 13.1818 12.4988C13.3604 12.4895 13.5349 12.4424 13.694 12.3608C13.853 12.2792 13.993 12.1648 14.1046 12.0251L16.75 8.5C16.8495 8.36739 16.8922 8.20071 16.8687 8.03661C16.8453 7.87252 16.7576 7.72446 16.625 7.625C16.5593 7.57575 16.4846 7.53992 16.4051 7.51955C16.3256 7.49918 16.2429 7.49467 16.1616 7.50628C15.9975 7.52972 15.8495 7.61739 15.75 7.75L13.1594 11.2885L10.2608 7.86719C10.1381 7.74424 9.99112 7.64825 9.82922 7.58535C9.66732 7.52245 9.49408 7.49402 9.32056 7.50188C9.14191 7.51117 8.96725 7.55815 8.80804 7.63974C8.64884 7.72132 8.50869 7.83566 8.39681 7.97525L5.75 11.4996C5.65044 11.6322 5.60764 11.799 5.63102 11.9631C5.65439 12.1273 5.74202 12.2754 5.87462 12.375C6.00723 12.4746 6.17396 12.5174 6.33812 12.494C6.50229 12.4706 6.65044 12.383 6.75 12.2504Z" fill="white" fill-opacity="0.95"/>
</svg>
