<svg width="565" height="150" viewBox="0 0 565 150" fill="none" xmlns="http://www.w3.org/2000/svg">
<path d="M303.762 74.6819L296.943 64.9925L303.75 55.3245C304.178 54.7266 304.432 54.0225 304.486 53.2893C304.539 52.5562 304.39 51.8225 304.054 51.1688C303.718 50.515 303.208 49.9666 302.58 49.5837C301.953 49.2008 301.232 48.9982 300.497 48.9983L262.497 49.0003C262.234 49.0002 261.974 49.0519 261.732 49.1524C261.489 49.2529 261.268 49.4002 261.083 49.5859C260.897 49.7717 260.75 49.9922 260.649 50.2348C260.549 50.4775 260.497 50.7376 260.497 51.0003V79.0003L260.501 79.0197V99.0003C260.501 99.5307 260.712 100.039 261.087 100.415C261.462 100.79 261.97 101 262.501 101C263.031 101 263.54 100.79 263.915 100.415C264.29 100.039 264.501 99.5307 264.501 99.0003V81.0003L300.499 80.9983C301.233 80.9981 301.953 80.796 302.58 80.4142C303.206 80.0323 303.716 79.4854 304.053 78.8333C304.39 78.1811 304.541 77.4489 304.489 76.7167C304.438 75.9845 304.186 75.2806 303.762 74.6819ZM264.501 77.0003V53.0003L300.488 53.0081L292.861 63.8401C292.624 64.1773 292.497 64.5793 292.497 64.9914C292.497 65.4035 292.624 65.8056 292.861 66.1428L300.491 76.9846L300.499 76.9983L264.501 77.0003Z" fill="white" fill-opacity="0.95"/>
</svg>
