<svg width="559" height="320" viewBox="0 0 559 320" fill="none" xmlns="http://www.w3.org/2000/svg">
<path d="M250.729 94.7196C250.729 94.7196 248.529 101.52 247.729 103.72C246.729 106.72 248.729 107.72 250.729 107.72H252.729M282.729 93.7196C276.729 93.7196 272.729 89.7196 268.729 85.7196C264.729 81.7196 260.729 77.7196 253.729 77.7196C246.529 77.7196 240.729 83.5196 240.729 90.7196V110.72C240.729 118.92 247.529 125.62 255.729 125.72C271.529 125.92 284.229 111.32 284.729 103.12C284.829 101.02 283.229 98.9196 281.129 98.7196C278.729 98.5196 276.729 100.32 276.729 102.72V124.72C276.729 129.12 280.329 132.72 284.729 132.72H287.829C294.229 132.72 300.329 135.12 304.929 139.52L317.329 151.42C318.129 152.12 319.329 152.12 320.129 151.42L344.729 127.72C344.729 118.52 353.429 113.52 357.629 111.62C358.829 111.02 360.329 111.32 361.329 112.32C362.629 113.62 362.629 115.82 361.129 117.12L355.729 121.82C358.629 126.72 357.729 135.42 351.229 139.52C350.929 139.72 350.729 140.02 350.729 140.32V147.72C350.729 148.82 351.629 149.72 352.729 149.72H393.729M236.729 82.7196C236.729 73.9196 243.929 66.7196 252.729 66.7196C257.729 66.7196 269.729 66.7196 269.729 66.7196C280.729 66.7196 289.729 75.7196 289.729 86.7196V93.7196M294.729 271.72H254.729C253.629 271.72 252.729 270.82 252.729 269.72V259.72C252.729 258.62 253.629 257.72 254.729 257.72H274.729C281.329 257.72 286.729 252.32 286.729 245.72V203.72C286.729 197.12 281.329 191.72 274.729 191.72H210.729C204.129 191.72 198.729 197.12 198.729 203.72V245.72C198.729 252.32 204.129 257.72 210.729 257.72H230.729C231.829 257.72 232.729 258.62 232.729 259.72V269.72C232.729 270.82 231.829 271.72 230.729 271.72H197.729C171.229 271.72 149.729 250.22 149.729 223.72C149.729 197.22 171.229 175.72 197.729 175.72H315.729M294.729 271.72L312.129 237.02C316.229 228.92 324.529 223.72 333.629 223.72H341.329C344.329 223.72 346.829 221.22 346.829 218.22C346.829 215.22 344.329 212.72 341.329 212.72H335.729C330.729 212.72 326.829 208.52 326.829 203.52V195.72C326.829 194.62 325.929 193.72 324.829 193.72H322.829C320.829 193.72 317.829 192.72 319.829 186.72L322.829 177.72C326.929 165.52 334.829 159.72 346.829 159.72C360.129 159.72 370.829 170.42 370.829 183.72C370.829 193.72 366.829 196.72 366.829 208.72M294.729 271.72C291.029 279.12 295.729 284.72 300.729 284.72C303.529 284.72 305.729 282.52 305.729 279.72C305.729 275.72 301.729 271.72 294.729 271.72ZM171.729 175.72H157.729C153.329 175.72 149.729 172.12 149.729 167.72V134.72C149.729 130.32 153.329 126.72 157.729 126.72H201.729C206.129 126.72 209.729 130.32 209.729 134.72V160.72C219.729 160.72 227.729 132.72 251.729 132.72H255.729M350.729 107.72V85.7196C350.729 84.6196 351.629 83.7196 352.729 83.7196H384.929C385.429 83.7196 385.929 83.9196 386.329 84.3196L397.129 95.1196C397.529 95.5196 397.729 96.0196 397.729 96.5196V115.72M384.729 84.7196V96.7196H396.729M355.829 195.72C359.229 195.72 361.929 192.92 361.829 189.52C361.729 186.22 358.829 183.72 355.629 183.72H352.929C351.629 183.72 350.329 183.22 349.429 182.22L347.929 180.72C346.129 178.92 345.629 176.12 346.829 173.82L348.429 170.62C349.129 169.32 348.129 167.72 346.629 167.72H336.829M366.729 208.72C366.729 217.02 373.429 223.72 381.729 223.72C393.729 223.72 409.729 207.72 409.729 179.72C409.729 162.52 402.429 145.32 387.829 129.82C386.729 128.62 386.729 126.72 387.929 125.62C389.029 124.52 390.729 124.42 391.929 125.32L397.829 129.72V115.72C404.429 115.72 409.828 121.12 409.828 127.72V135.72M205.729 83.7196C205.729 80.9196 204.429 79.7196 202.729 79.7196C200.829 79.7196 199.329 81.3196 199.829 85.0196C200.629 91.5196 206.229 96.2196 212.729 96.7196C214.629 96.8196 216.029 96.6196 217.529 96.1196C219.029 95.5196 219.229 93.5196 217.829 92.6196C215.929 91.3196 214.729 89.2196 214.729 86.8196C214.729 82.6196 218.929 79.1196 220.329 71.1196C223.329 53.7196 211.029 37.4196 193.429 35.9196C173.929 34.2196 157.929 51.1196 161.129 70.8196C163.229 83.5196 174.729 94.8196 189.729 94.8196C199.729 94.7196 205.729 88.7196 205.729 83.7196Z" stroke="url(#paint0_linear_1778_34180)" stroke-width="2.5" stroke-miterlimit="10" stroke-linecap="round" stroke-linejoin="round"/>
<path d="M260.729 98.7195C261.833 98.7195 262.729 97.8241 262.729 96.7195C262.729 95.6149 261.833 94.7195 260.729 94.7195C259.624 94.7195 258.729 95.6149 258.729 96.7195C258.729 97.8241 259.624 98.7195 260.729 98.7195Z" fill="url(#paint1_linear_1778_34180)"/>
<path d="M331.729 182.719C332.833 182.719 333.729 181.824 333.729 180.719C333.729 179.615 332.833 178.719 331.729 178.719C330.624 178.719 329.729 179.615 329.729 180.719C329.729 181.824 330.624 182.719 331.729 182.719Z" fill="url(#paint2_linear_1778_34180)"/>
<path d="M182.729 67.7195C183.833 67.7195 184.729 66.8241 184.729 65.7195C184.729 64.6149 183.833 63.7195 182.729 63.7195C181.624 63.7195 180.729 64.6149 180.729 65.7195C180.729 66.8241 181.624 67.7195 182.729 67.7195Z" fill="url(#paint3_linear_1778_34180)"/>
<path d="M190.729 67.7195C191.833 67.7195 192.729 66.8241 192.729 65.7195C192.729 64.6149 191.833 63.7195 190.729 63.7195C189.624 63.7195 188.729 64.6149 188.729 65.7195C188.729 66.8241 189.624 67.7195 190.729 67.7195Z" fill="url(#paint4_linear_1778_34180)"/>
<path d="M198.729 67.7195C199.833 67.7195 200.729 66.8241 200.729 65.7195C200.729 64.6149 199.833 63.7195 198.729 63.7195C197.624 63.7195 196.729 64.6149 196.729 65.7195C196.729 66.8241 197.624 67.7195 198.729 67.7195Z" fill="url(#paint5_linear_1778_34180)"/>
<defs>
<linearGradient id="paint0_linear_1778_34180" x1="279.779" y1="35.8015" x2="279.779" y2="284.72" gradientUnits="userSpaceOnUse">
<stop stop-color="#93C437"/>
<stop offset="1" stop-color="#279BE8"/>
</linearGradient>
<linearGradient id="paint1_linear_1778_34180" x1="257.229" y1="63.7195" x2="257.229" y2="182.719" gradientUnits="userSpaceOnUse">
<stop stop-color="#93C437"/>
<stop offset="1" stop-color="#279BE8"/>
</linearGradient>
<linearGradient id="paint2_linear_1778_34180" x1="257.229" y1="63.7195" x2="257.229" y2="182.719" gradientUnits="userSpaceOnUse">
<stop stop-color="#93C437"/>
<stop offset="1" stop-color="#279BE8"/>
</linearGradient>
<linearGradient id="paint3_linear_1778_34180" x1="257.229" y1="63.7195" x2="257.229" y2="182.719" gradientUnits="userSpaceOnUse">
<stop stop-color="#93C437"/>
<stop offset="1" stop-color="#279BE8"/>
</linearGradient>
<linearGradient id="paint4_linear_1778_34180" x1="257.229" y1="63.7195" x2="257.229" y2="182.719" gradientUnits="userSpaceOnUse">
<stop stop-color="#93C437"/>
<stop offset="1" stop-color="#279BE8"/>
</linearGradient>
<linearGradient id="paint5_linear_1778_34180" x1="257.229" y1="63.7195" x2="257.229" y2="182.719" gradientUnits="userSpaceOnUse">
<stop stop-color="#93C437"/>
<stop offset="1" stop-color="#279BE8"/>
</linearGradient>
</defs>
</svg>
