<svg width="32" height="32" viewBox="0 0 32 32" fill="none" xmlns="http://www.w3.org/2000/svg">
<g clip-path="url(#clip0_1778_34207)">
<path d="M4.93457 4.03854C4.93457 5.46762 6.06021 6.63552 7.4788 6.71511C7.53392 6.71582 7.58909 6.71726 7.64431 6.71942C9.12984 6.71359 10.3323 5.51556 10.3323 4.03854C10.3323 2.5579 9.12396 1.35764 7.63342 1.35764C6.14289 1.35764 4.93457 2.5579 4.93457 4.03854ZM5.46729 7.01718C4.5387 6.34968 3.93457 5.2642 3.93457 4.03854C3.93457 2.00925 5.59063 0.364258 7.63342 0.364258C9.67621 0.364258 11.3323 2.00925 11.3323 4.03854C11.3323 4.35643 11.2916 4.66489 11.2152 4.95907C11.937 4.39793 12.8459 4.06344 13.8334 4.06344C16.1814 4.06344 18.0847 5.95419 18.0847 8.28659C18.0847 8.48181 18.0714 8.67394 18.0456 8.86212C18.9649 8.1875 20.1018 7.78869 21.3325 7.78869C24.3908 7.78869 26.8702 10.2516 26.8702 13.2897C26.8702 15.3831 25.693 17.2034 23.9603 18.1329C27.9273 19.1711 30.8683 22.502 30.8683 26.5105C30.8683 28.2118 29.4775 29.3719 27.7349 30.0837C25.962 30.8079 23.6335 31.159 21.3331 31.159C19.0326 31.159 16.7041 30.8079 14.9312 30.0837C13.1886 29.3719 11.7979 28.2118 11.7979 26.5105C11.7979 25.0533 12.1865 23.6856 12.8719 22.485C11.4589 22.3797 10.0109 22.1183 8.83864 21.6193C7.43337 21.0212 6.29102 20.0128 6.29102 18.4168C6.29102 18.4092 6.29119 18.4015 6.29155 18.3939C6.32625 17.6461 6.47739 16.9156 6.73379 16.226C5.51298 16.1383 4.27291 15.913 3.2747 15.474C2.09096 14.9533 1.13477 14.0708 1.13477 12.6799C1.13477 12.6723 1.13494 12.6647 1.13529 12.6571C1.21111 11.0122 1.93966 9.46414 3.16157 8.35148C3.83123 7.74168 4.6192 7.28987 5.46729 7.01718ZM13.5074 21.528C14.7492 19.9039 16.5799 18.6895 18.7051 18.1331C16.9723 17.2036 15.7949 15.3833 15.7949 13.2897C15.7949 13.1267 15.8021 12.9653 15.816 12.806C15.1677 12.6247 14.4986 12.5251 13.8242 12.5097C13.7535 12.5096 13.6831 12.5077 13.6132 12.5042C12.0274 12.4877 10.4913 13.0697 9.31795 14.1367C8.09871 15.2455 7.37029 16.788 7.29104 18.4279C7.29609 19.4339 7.98824 20.1766 9.23249 20.7062C10.4143 21.2092 11.975 21.4585 13.5074 21.528ZM7.17811 15.2576C7.55725 14.5705 8.04996 13.9431 8.64269 13.404C9.46359 12.6575 10.4376 12.1157 11.485 11.8075C10.3381 11.0511 9.58203 9.75659 9.58203 8.28659C9.58203 8.19254 9.58513 8.09922 9.59122 8.0067C8.95419 7.82285 8.29484 7.72387 7.63044 7.71281C7.56866 7.71277 7.50723 7.71121 7.44618 7.70819C6.11339 7.69594 4.8229 8.18626 3.8373 9.08375C2.81321 10.0163 2.20144 11.3127 2.1348 12.6908C2.13952 13.5146 2.67616 14.1243 3.67955 14.5656C4.62848 14.983 5.89464 15.1953 7.17811 15.2576ZM13.8413 11.5164C15.6334 11.5121 17.0847 10.0677 17.0847 8.28659C17.0847 6.50282 15.6291 5.05681 13.8334 5.05681C12.0377 5.05681 10.582 6.50283 10.582 8.28659C10.582 10.0081 11.9379 11.415 13.6466 11.5111C13.7115 11.512 13.7764 11.5137 13.8413 11.5164ZM21.3325 8.78207C18.8265 8.78207 16.7949 10.8002 16.7949 13.2897C16.7949 15.7791 18.8264 17.7971 21.3325 17.7971C23.8386 17.7971 25.8702 15.7791 25.8702 13.2897C25.8702 10.8002 23.8386 8.78207 21.3325 8.78207ZM12.7979 26.5105C12.7979 27.577 13.6659 28.4928 15.3115 29.165C16.9268 29.8247 19.1159 30.1656 21.3331 30.1656C23.5502 30.1656 25.7393 29.8247 27.3546 29.165C29.0002 28.4928 29.8683 27.577 29.8683 26.5105C29.8683 22.2866 26.0896 18.7905 21.3331 18.7905C16.5766 18.7905 12.7979 22.2866 12.7979 26.5105Z" fill="white" fill-opacity="0.95"/>
</g>
<defs>
<clipPath id="clip0_1778_34207">
<rect width="32" height="32" fill="white"/>
</clipPath>
</defs>
</svg>
