<svg width="357" height="200" viewBox="0 0 357 200" fill="none" xmlns="http://www.w3.org/2000/svg">
<path d="M136.858 74.4568C136.858 77.4137 139.217 79.8006 142.139 79.8006C148.125 79.8006 151.927 83.7193 151.927 88.3506C151.927 91.7706 149.639 93.8368 147.104 94.5137C146.47 94.6918 145.977 93.9793 146.329 93.445C148.759 89.74 145.942 86.6406 145.942 84.0756C145.942 81.7243 147.35 79.8006 149.111 79.8006C149.92 79.8006 150.66 80.1925 151.223 80.8693C152.279 77.3781 155.519 74.8131 159.321 74.8131C163.546 74.8131 166.328 76.8793 167.771 81.2256L168.827 84.4318C169.532 86.5693 168.475 86.9256 167.771 86.9256H167.067C166.68 86.9256 166.363 87.2462 166.363 87.6381V90.4168C166.363 92.1981 164.954 93.6943 163.229 93.6943H161.258C160.201 93.6943 159.321 94.585 159.321 95.6537C159.321 96.7225 160.201 97.6131 161.258 97.6131H163.969C167.173 97.6131 170.095 99.43 171.538 102.351L176.89 113.146C177.383 114.107 178.334 114.713 179.425 114.713H192.206M125.204 79.8006H127.915C128.972 79.8006 129.852 78.91 129.852 77.8412C129.852 76.7725 128.972 75.8818 127.915 75.8818H125.944C124.183 75.8818 122.81 74.3856 122.81 72.6043V69.8256C122.81 69.4337 122.493 69.1131 122.106 69.1131H121.402C120.698 69.1131 119.641 68.7568 120.345 66.6193L121.402 63.4131C122.845 59.0668 125.627 57.0006 129.852 57.0006C134.534 57.0006 138.302 60.8125 138.302 65.5506C138.302 69.1131 136.893 70.1818 136.893 74.4568M126.401 59.8862H129.852C130.38 59.8862 130.732 60.4562 130.485 60.9193L129.464 62.9856C129.324 63.2706 129.394 63.5912 129.605 63.805L130.556 64.7668C130.838 65.0518 131.014 65.4793 130.978 65.9068C130.626 69.3268 127.774 71.9987 124.324 71.9987H120.099M156.152 87.6381C154.955 87.6381 154.005 86.6406 154.04 85.4293C154.075 84.2537 155.096 83.3631 156.223 83.3631H157.173C157.631 83.3631 158.089 83.185 158.406 82.8287L158.934 82.2943C159.568 81.6531 159.744 80.6556 159.321 79.8362L158.758 78.6962C158.511 78.2331 158.863 77.6631 159.392 77.6631H162.842M192.17 114.749H202.733C204.282 114.749 205.55 113.466 205.55 111.899V100.499C205.55 98.9312 204.282 97.6487 202.733 97.6487H185.833C184.284 97.6487 183.016 98.9312 183.016 100.499V112.255M125.063 79.8006C121.543 79.8006 119.078 81.9381 116.613 86.9256L113.198 93.8368C112.494 95.2975 111.543 96.1881 109.431 96.1881H102.178C101.615 96.1881 101.087 96.01 100.629 95.725L98.1642 94.0862C97.4601 93.6231 96.6503 93.3737 95.8053 93.3737H94.0096C93.3759 93.3737 92.8478 93.9081 92.8478 94.5493C92.8478 95.1193 93.2351 95.5825 93.7984 95.6893L96.3686 96.2237C96.3686 96.2237 97.0728 100.499 100.594 100.499M132.985 69.8256C134.147 69.8256 135.098 68.8637 135.098 67.6881C135.098 66.5125 134.147 65.5506 132.985 65.5506M97.0728 93.3381V81.2256C97.0728 80.8337 96.7559 80.5131 96.3686 80.5131H84.6794C84.5034 80.5131 84.3274 80.5843 84.1865 80.7268L80.384 84.5743C80.2432 84.7168 80.1728 84.895 80.1728 85.0731V104.026C80.1728 104.417 80.4896 104.738 80.8769 104.738H96.3686C96.7559 104.738 97.0728 104.417 97.0728 104.026V101.888M84.7499 80.8693V85.1443H80.5249M61.618 114.713C60.4561 114.713 59.4351 115.604 59.4351 116.779C59.3999 117.991 60.3505 118.988 61.5476 118.988V123.263H54.858V113.288M61.8644 114.749C64.1882 114.749 66.0894 112.825 66.0894 110.474V108.692M57.6394 125.792C57.6394 125.792 56.0199 129.462 49.3303 128.963C41.2676 128.322 35.0709 121.411 35.1061 113.252C35.1413 106.163 39.3663 100.499 47.7811 96.2593L48.274 96.01C49.7176 95.2975 50.5978 93.8012 50.5978 92.1981V83.7906C50.5978 82.9356 49.8936 82.2943 49.0134 82.3656C48.2388 82.4368 47.7107 83.185 47.7811 83.9687C47.9924 86.89 52.5342 92.02 58.0971 91.9487C60.9842 91.9131 63.2728 89.5262 63.2728 86.605V78.7675C63.2728 74.8487 60.104 71.6425 56.2311 71.6425C52.6046 71.6425 49.6119 74.4212 49.2246 77.9837C49.1894 78.4112 49.5063 78.7675 49.9288 78.7675H68.9061M59.7519 80.8693C59.7519 80.8693 60.5265 83.2918 60.8082 84.0756C61.1603 85.1443 60.4561 85.5006 59.7519 85.5006H59.0478M152.702 115.426C152.702 115.426 151.927 117.848 151.646 118.632C151.294 119.701 151.998 120.057 152.702 120.057H153.406M175.939 146.063V138.511C175.939 135.269 174.109 132.312 171.257 130.851L166.997 128.714C165.588 128.001 164.673 126.505 164.673 124.902V114.001C164.673 109.654 161.222 106.163 156.927 106.163C152.632 106.163 149.181 109.654 149.181 114.001V120.769C149.181 123.904 151.716 126.469 154.814 126.469C157.913 126.469 160.448 123.904 160.448 120.769V115.426C160.448 113.858 159.18 112.576 157.631 112.576H151.646M136.506 141.824C144.956 141.824 144.956 128.999 153.406 128.999H154.814M136.506 141.824V133.274C136.506 132.49 135.872 131.849 135.098 131.849H130.169C129.394 131.849 128.76 132.49 128.76 133.274V138.974M136.506 141.824V144.674C136.506 145.457 135.872 146.099 135.098 146.099H130.169M126.648 143.605V140.399C126.648 139.615 127.282 138.974 128.056 138.974H130.169C131.33 138.974 132.281 139.936 132.281 141.111V143.961C132.281 145.137 131.33 146.099 130.169 146.099M130.169 146.099H106.931C106.544 146.099 106.227 145.778 106.227 145.386V141.824C106.227 141.432 106.544 141.111 106.931 141.111H113.973C116.297 141.111 118.198 139.187 118.198 136.836V121.874C118.198 119.522 116.297 117.599 113.973 117.599H91.4394C89.1157 117.599 87.2144 119.522 87.2144 121.874V136.836C87.2144 139.187 89.1157 141.111 91.4394 141.111H98.4811C98.8684 141.111 99.1853 141.432 99.1853 141.824V145.386C99.1853 145.778 98.8684 146.099 98.4811 146.099H84.7147C83.6584 146.099 82.6726 145.493 82.1796 144.531L76.828 133.737C75.3844 130.851 72.4621 128.999 69.2582 128.999H66.5471C65.4909 128.999 64.6107 128.108 64.6107 127.039C64.6107 125.971 65.4909 125.08 66.5471 125.08H68.5188C70.2792 125.08 71.6524 123.584 71.6524 121.802V119.024C71.6524 118.632 71.9692 118.311 72.3565 118.311H73.0607C73.7649 118.311 74.8211 117.955 74.1169 115.817L73.0607 112.611C71.6171 108.265 68.8357 106.199 64.6107 106.199H61.794C57.9211 106.199 54.7524 109.405 54.7524 113.324M201.289 63.0568C201.289 63.0568 200.515 65.4793 200.233 66.2631C199.881 67.3318 200.585 67.6881 201.289 67.6881H201.994M212.908 63.4487C210.444 63.4487 209.035 62.0237 207.627 60.5987C206.219 59.1737 204.81 57.7487 202.346 57.7487C199.811 57.7487 197.769 59.815 197.769 62.38V69.505C197.769 72.4618 200.128 74.8487 203.05 74.8487H204.106C204.881 74.8487 205.514 75.49 205.514 76.2737C205.514 77.0575 204.881 77.6987 204.106 77.6987H200.867C197.663 77.6987 194.741 79.5156 193.297 82.4368L188.579 91.9487M203.754 55.6112C206.219 55.6112 207.627 57.0362 209.035 58.4612C210.444 59.8862 211.852 61.3112 214.317 61.3112M205.162 53.4381C207.627 53.4381 209.035 54.8631 210.444 56.2881C211.852 57.7131 213.26 59.1381 215.725 59.1381M222.414 89.0631L216.781 71.9631C215.725 69.1131 212.556 69.1131 212.556 69.1131H210.444C209.282 69.1131 208.331 70.075 208.331 71.2506V72.6756C208.331 74.635 209.915 76.2381 211.852 76.2381C212.486 76.2381 213.014 76.6656 213.155 77.2712L213.964 80.5131L217.274 93.9793C217.802 96.1168 219.703 97.6131 221.886 97.6131C224.492 97.6131 226.639 95.4756 226.639 92.8037V82.6506C226.639 79.9075 224.421 77.6631 221.71 77.6631M214.669 69.4693V66.6193C214.669 65.8356 214.035 65.1943 213.26 65.1943H211.148C210.373 65.1943 209.739 65.8356 209.739 66.6193V69.1131M228.048 137.549H238.962C240.089 137.549 241.145 138.012 241.955 138.796L245.582 142.465C246.004 142.892 246.004 143.605 245.582 144.032C245.229 144.389 244.631 144.46 244.208 144.175L240.723 141.824M241.427 102.244C241.427 102.244 242.202 104.667 242.483 105.451C242.835 106.519 242.131 106.876 241.427 106.876H240.019C238.857 106.876 237.906 107.837 237.906 109.013C237.906 109.405 237.589 109.726 237.202 109.726C236.04 109.726 235.089 108.764 235.089 107.588V104.026C235.089 102.458 233.822 101.176 232.273 101.176H231.569C231.181 101.176 230.864 100.855 230.864 100.463C230.864 96.4375 234.174 93.1956 238.153 93.3381C241.955 93.4806 244.948 96.7581 244.948 100.641V108.657C244.948 111.578 242.659 113.965 239.772 114.001C234.209 114.072 229.632 108.871 229.456 105.949C229.421 105.201 229.984 104.453 230.724 104.382C231.569 104.311 232.273 104.952 232.273 105.807V113.929C232.273 115.532 231.357 117.029 229.949 117.741L225.689 119.879C222.837 121.339 221.006 124.296 221.006 127.538V138.938C221.006 141.289 222.907 143.213 225.231 143.213H236.146C237.272 143.213 238.329 143.676 239.138 144.46L242.096 147.452C242.941 148.307 244.279 148.521 245.335 147.987L249.138 146.063M263.608 77.6631C263.608 77.6631 262.834 80.0856 262.552 80.8693C262.2 81.9381 262.904 82.2943 263.608 82.2943H264.312M274.875 77.3068C272.762 77.3068 271.354 75.8818 269.946 74.4568C268.537 73.0318 267.129 71.6068 264.664 71.6068C262.129 71.6068 260.087 73.6731 260.087 76.2381V83.3631C260.087 86.2843 262.376 88.6712 265.263 88.7068C270.826 88.7781 275.403 83.5768 275.579 80.6556C275.614 79.9075 275.051 79.1593 274.312 79.0881C273.467 79.0168 272.762 79.6581 272.762 80.5131V89.0631M258.679 73.3881C258.679 70.2531 261.214 67.6881 264.312 67.6881C266.073 67.6881 267.833 67.6881 267.833 67.6881C273.29 67.6881 277.692 72.1412 277.692 77.6631V79.4443C277.692 81.5818 279.1 82.2943 279.804 83.0068C280.508 83.7193 281.917 84.7881 281.917 86.9256C281.917 89.0631 280.508 90.4881 280.508 90.4881M272.762 89.4193C272.762 90.9868 274.03 92.2693 275.579 92.2693H276.67C278.924 92.2693 281.072 93.1243 282.691 94.6918L287.057 98.9312C287.339 99.1806 287.761 99.1806 288.043 98.9312L296.704 90.4881C296.704 87.2106 299.767 85.4293 301.246 84.7525C301.668 84.5387 302.197 84.6456 302.549 85.0018C303.006 85.465 303.006 86.2487 302.478 86.7118L300.577 88.3862C301.598 90.1318 301.281 93.2312 298.993 94.6918C298.887 94.7631 298.817 94.87 298.817 94.9768V97.6131C298.817 98.005 299.133 98.3256 299.521 98.3256H313.956M298.817 83.3631V75.5256C298.817 75.1337 299.133 74.8131 299.521 74.8131H310.858C311.034 74.8131 311.21 74.8843 311.351 75.0268L315.153 78.8743C315.294 79.0168 315.364 79.195 315.364 79.3731V86.2131M310.787 75.1693V79.4443H315.012M300.577 114.713C301.774 114.713 302.725 113.716 302.689 112.504C302.654 111.329 301.633 110.438 300.507 110.438H299.556C299.098 110.438 298.64 110.26 298.324 109.904L297.795 109.369C297.162 108.728 296.986 107.731 297.408 106.911L297.972 105.771C298.218 105.308 297.866 104.738 297.338 104.738H293.887M304.45 119.38C304.45 122.337 306.809 124.724 309.731 124.724C313.956 124.724 319.589 119.024 319.589 109.049C319.589 102.921 317.019 96.7937 311.879 91.2718C311.492 90.8443 311.492 90.1675 311.914 89.7756C312.301 89.3837 312.9 89.3481 313.322 89.6687L315.4 91.2362V86.2487C317.723 86.2487 319.625 88.1725 319.625 90.5237V93.3737M267.939 147.524C264.172 147.524 262.305 145.386 262.305 145.386L260.897 145.279C260.158 145.208 259.454 144.959 258.89 144.46C258.221 143.854 257.764 142.999 257.693 142.073V141.325C257.693 140.363 258.327 139.686 259.102 139.651L261.32 139.615C262.094 139.544 262.869 139.793 263.503 140.256L265.404 141.61C265.65 141.788 265.932 141.859 266.214 141.859H279.1L285.226 129.497C286.67 126.612 289.592 124.759 292.796 124.759H295.507C296.563 124.759 297.443 123.869 297.443 122.8C297.443 121.731 296.563 120.841 295.507 120.841H293.535C291.775 120.841 290.402 119.344 290.402 117.563V114.784C290.402 114.392 290.085 114.072 289.698 114.072H288.993C288.289 114.072 287.233 113.716 287.937 111.578L288.993 108.372C290.437 104.026 293.218 101.959 297.443 101.959C302.126 101.959 305.893 105.771 305.893 110.509C305.893 114.072 304.485 115.141 304.485 119.416M273.783 94.7987C272.868 96.6868 271.072 98.005 268.854 98.005C265.967 98.005 263.573 95.7962 263.256 92.9462C263.221 92.59 262.904 92.305 262.552 92.305H258.679C256.285 92.305 254.067 93.6943 253.01 95.8675L248.469 105.13M246.919 131.314C244.701 129.854 243.293 127.217 243.68 124.261C244.103 120.912 246.673 118.347 249.983 117.991C254.313 117.492 257.975 120.912 257.975 125.222C257.975 130.424 253.468 132.775 250.792 131.635C250.792 131.635 248.257 129.925 248.257 126.932C248.257 123.014 253.363 122.871 253.327 126.932C253.327 128.714 252.236 130.246 251.215 131.207L249.102 132.917L246.567 135.055H253.539C254.137 135.055 254.595 135.518 254.595 136.124C254.595 136.729 254.137 137.192 253.539 137.192H249.736C249.138 137.192 248.68 137.656 248.68 138.261C248.68 138.867 249.138 139.33 249.736 139.33H252.13M195.128 128.714V125.294C195.128 123.406 196.642 121.874 198.508 121.874C200.374 121.874 201.888 123.406 201.888 125.294V128.714H192.17C191.22 128.714 190.48 129.462 190.48 130.424V141.539C190.48 142.501 191.22 143.249 192.17 143.249H192.593C195.727 143.249 200.198 139.829 200.198 136.836C200.198 135.874 199.459 135.126 198.508 135.126C197.557 135.126 196.818 135.874 196.818 136.836C196.818 139.829 201.289 143.249 204.423 143.249H204.845C205.796 143.249 206.535 142.501 206.535 141.539V130.424C206.535 129.462 205.761 128.714 204.845 128.714C204.493 128.714 204.282 128.714 204.423 128.714M122.423 115.354V99.145M124.958 96.5443V117.955M130.028 99.145V115.354M127.493 112.789V101.674M132.563 104.239V110.224M135.098 108.087V106.377M246.497 65.8712L249.666 62.665C250.053 62.2731 249.983 61.6318 249.56 61.1687C249.138 60.7412 248.469 60.67 248.081 61.0618L243.011 66.1918V67.795H244.56M251.497 60.8125H253.046V62.4156L247.976 67.5456C247.588 67.9375 246.955 67.8662 246.497 67.4387C246.074 67.0112 246.004 66.3343 246.391 65.9425L249.454 62.8431M249.595 62.7006C249.595 62.7006 248.257 63.2706 247.025 62.1662C247.025 62.1662 246.462 61.7387 246.321 60.67M248.997 66.4412C247.764 65.3725 246.427 65.9068 246.427 65.9068M250.933 67.3318V68.4718C250.933 69.4337 250.194 70.1818 249.243 70.1818H231.498C230.548 70.1818 229.808 69.4337 229.808 68.4718V56.5018C229.808 55.54 230.548 54.7918 231.498 54.7918H249.243C250.194 54.7918 250.933 55.54 250.933 56.5018V58.6393M179.988 71.9275C179.073 72.2125 178.087 72.355 177.101 72.355C171.503 72.355 166.961 67.7593 166.961 62.095C166.961 56.4306 171.503 51.835 177.101 51.835C182.699 51.835 187.241 56.4306 187.241 62.095C187.241 66.94 184.495 69.79 181.115 69.79C180.517 69.79 179.918 69.6831 179.355 69.4693C176.925 68.5787 174.918 66.7618 173.792 64.375L173.651 64.09C172.524 61.7031 172.419 58.9956 173.299 56.5018L173.369 56.395C173.475 56.0743 173.721 55.825 174.038 55.6468L174.637 55.3618C175.27 55.0412 176.045 55.3262 176.362 55.9675L177.207 57.7843C177.524 58.4256 177.242 59.2093 176.608 59.53L176.01 59.815C176.01 59.815 175.623 59.9931 175.376 60.1356C174.989 60.3137 174.778 61.9525 175.482 63.4843C176.186 64.9806 177.735 65.7287 177.982 65.6218C178.228 65.515 178.58 65.3368 178.58 65.3368L179.179 65.0518C179.812 64.7312 180.587 65.0162 180.904 65.6575L181.784 67.5456M99.3965 56.0387V59.4231L97.7065 59.4231C97.2488 59.4231 96.8615 59.815 96.8615 60.2781V66.4768C96.8615 66.8331 97.1432 67.1181 97.4953 67.1181H103.622C104.079 67.1181 104.467 66.7262 104.467 66.2631V60.2781C104.467 59.815 104.079 59.4231 103.622 59.4231H101.65M103.199 59.4231H106.157C106.614 59.4231 107.002 59.0312 107.002 58.5681V56.0031M104.467 63.3062H107.847M107.847 63.3062C107.847 64.2506 108.603 65.0162 109.537 65.0162C110.47 65.0162 111.227 64.2506 111.227 63.3062C111.227 62.3618 110.47 61.5962 109.537 61.5962C108.603 61.5962 107.847 62.3618 107.847 63.3062ZM96.8615 63.2706H93.4815M98.129 67.1181H95.1715C94.7138 67.1181 94.3265 67.51 94.3265 67.9731V70.5381M101.932 67.1181V70.5381M120.064 71.9631C120.064 72.7501 119.433 73.3881 118.655 73.3881C117.878 73.3881 117.247 72.7501 117.247 71.9631C117.247 71.1761 117.878 70.5381 118.655 70.5381C119.433 70.5381 120.064 71.1761 120.064 71.9631ZM282.973 144.674C282.973 145.671 282.198 146.455 281.212 146.455C279.452 146.455 277.797 144.46 279.1 141.824C281.564 141.824 282.973 143.249 282.973 144.674ZM108.656 54.2931C108.656 55.2375 107.9 56.0031 106.966 56.0031C106.033 56.0031 105.276 55.2375 105.276 54.2931C105.276 53.3487 106.033 52.5831 106.966 52.5831C107.9 52.5831 108.656 53.3487 108.656 54.2931ZM101.087 54.2931C101.087 55.2375 100.33 56.0031 99.3965 56.0031C98.4632 56.0031 97.7065 55.2375 97.7065 54.2931C97.7065 53.3487 98.4632 52.5831 99.3965 52.5831C100.33 52.5831 101.087 53.3487 101.087 54.2931ZM103.622 72.2837C103.622 73.2281 102.865 73.9937 101.932 73.9937C100.998 73.9937 100.242 73.2281 100.242 72.2837C100.242 71.3393 100.998 70.5737 101.932 70.5737C102.865 70.5737 103.622 71.3393 103.622 72.2837ZM96.0869 72.2837C96.0869 73.2281 95.3303 73.9937 94.3969 73.9937C93.4636 73.9937 92.7069 73.2281 92.7069 72.2837C92.7069 71.3393 93.4636 70.5737 94.3969 70.5737C95.3303 70.5737 96.0869 71.3393 96.0869 72.2837ZM93.4815 63.3062C93.4815 64.2506 92.7249 65.0162 91.7915 65.0162C90.8582 65.0162 90.1015 64.2506 90.1015 63.3062C90.1015 62.3618 90.8582 61.5962 91.7915 61.5962C92.7249 61.5962 93.4815 62.3618 93.4815 63.3062Z" stroke="url(#paint0_linear_1817_41737)" stroke-width="2.5" stroke-miterlimit="10" stroke-linecap="round" stroke-linejoin="round"/>
<path d="M124.535 65.1944C124.924 65.1944 125.239 64.8754 125.239 64.4819C125.239 64.0884 124.924 63.7694 124.535 63.7694C124.146 63.7694 123.831 64.0884 123.831 64.4819C123.831 64.8754 124.146 65.1944 124.535 65.1944Z" fill="#537EE5"/>
<path d="M164.602 83.0069C164.991 83.0069 165.306 82.6879 165.306 82.2944C165.306 81.9009 164.991 81.5819 164.602 81.5819C164.213 81.5819 163.898 81.9009 163.898 82.2944C163.898 82.6879 164.213 83.0069 164.602 83.0069Z" fill="#537EE5"/>
<path d="M69.9623 114.357C70.3512 114.357 70.6664 114.038 70.6664 113.644C70.6664 113.251 70.3512 112.932 69.9623 112.932C69.5734 112.932 69.2581 113.251 69.2581 113.644C69.2581 114.038 69.5734 114.357 69.9623 114.357Z" fill="#537EE5"/>
<path d="M56.231 82.2944C56.6199 82.2944 56.9352 81.9754 56.9352 81.5819C56.9352 81.1884 56.6199 80.8694 56.231 80.8694C55.8421 80.8694 55.5269 81.1884 55.5269 81.5819C55.5269 81.9754 55.8421 82.2944 56.231 82.2944Z" fill="#537EE5"/>
<path d="M156.223 116.851C156.612 116.851 156.927 116.532 156.927 116.138C156.927 115.745 156.612 115.426 156.223 115.426C155.834 115.426 155.519 115.745 155.519 116.138C155.519 116.532 155.834 116.851 156.223 116.851Z" fill="#537EE5"/>
<path d="M204.81 64.4819C205.199 64.4819 205.514 64.1629 205.514 63.7694C205.514 63.3759 205.199 63.0569 204.81 63.0569C204.421 63.0569 204.106 63.3759 204.106 63.7694C204.106 64.1629 204.421 64.4819 204.81 64.4819Z" fill="#537EE5"/>
<path d="M237.906 103.669C238.295 103.669 238.61 103.35 238.61 102.957C238.61 102.563 238.295 102.244 237.906 102.244C237.517 102.244 237.202 102.563 237.202 102.957C237.202 103.35 237.517 103.669 237.906 103.669Z" fill="#537EE5"/>
<path d="M267.129 79.0881C267.518 79.0881 267.833 78.7691 267.833 78.3756C267.833 77.9821 267.518 77.6631 267.129 77.6631C266.74 77.6631 266.425 77.9821 266.425 78.3756C266.425 78.7691 266.74 79.0881 267.129 79.0881Z" fill="#537EE5"/>
<path d="M292.127 110.082C292.516 110.082 292.831 109.763 292.831 109.369C292.831 108.976 292.516 108.657 292.127 108.657C291.738 108.657 291.423 108.976 291.423 109.369C291.423 109.763 291.738 110.082 292.127 110.082Z" fill="#537EE5"/>
<path d="M137.633 107.98C138.021 107.98 138.337 107.661 138.337 107.268C138.337 106.874 138.021 106.555 137.633 106.555C137.244 106.555 136.928 106.874 136.928 107.268C136.928 107.661 137.244 107.98 137.633 107.98Z" fill="#537EE5"/>
<path d="M140.168 107.98C140.557 107.98 140.872 107.661 140.872 107.268C140.872 106.874 140.557 106.555 140.168 106.555C139.779 106.555 139.463 106.874 139.463 107.268C139.463 107.661 139.779 107.98 140.168 107.98Z" fill="#537EE5"/>
<defs>
<linearGradient id="paint0_linear_1817_41737" x1="177.365" y1="51.835" x2="177.365" y2="148.278" gradientUnits="userSpaceOnUse">
<stop stop-color="#279BE8"/>
<stop offset="1" stop-color="#875AE0"/>
</linearGradient>
</defs>
</svg>
