<svg width="357" height="200" viewBox="0 0 357 200" fill="none" xmlns="http://www.w3.org/2000/svg">
<path d="M129.115 99.1017H116.048C114.251 99.1017 112.781 97.6317 112.781 95.835V33.7683C112.781 26.5817 118.661 20.7017 125.848 20.7017H236.915C244.101 20.7017 249.981 26.5817 249.981 33.7683V74.6017M129.115 99.1017C129.115 102.71 132.04 105.635 135.648 105.635C139.256 105.635 142.181 102.71 142.181 99.1017M129.115 99.1017C129.115 95.4934 132.04 92.5683 135.648 92.5683C139.256 92.5683 142.181 95.4934 142.181 99.1017M101.348 99.1017H93.1813C89.5879 99.1017 86.6479 102.042 86.6479 105.635V174.235C86.6479 176.032 88.1179 177.502 89.9146 177.502H97.7546C99.0613 177.502 100.205 176.848 100.695 175.705L104.615 167.702H166.681L170.601 175.705C171.091 176.848 172.235 177.502 173.541 177.502H181.381C183.178 177.502 184.648 176.032 184.648 174.235V105.635C184.648 102.042 181.708 99.1017 178.115 99.1017H142.181M230.381 123.602V144.835C230.381 148.428 233.321 151.368 236.915 151.368H263.048C266.641 151.368 269.581 148.428 269.581 144.835V92.5683C269.581 88.975 266.641 86.035 263.048 86.035H236.915C233.321 86.035 230.381 88.975 230.381 92.5683V108.902C230.381 110.698 228.911 112.168 227.115 112.168H200.981C199.185 112.168 197.715 113.638 197.715 115.435V135.035C197.715 136.832 199.185 138.302 200.981 138.302H217.315M86.8113 157.902H184.648" stroke="url(#paint0_linear_1817_41743)" stroke-width="2.5" stroke-linecap="round" stroke-linejoin="round"/>
<defs>
<linearGradient id="paint0_linear_1817_41743" x1="178.115" y1="20.7017" x2="178.115" y2="177.502" gradientUnits="userSpaceOnUse">
<stop stop-color="#F55868"/>
<stop offset="1" stop-color="#875AE0"/>
</linearGradient>
</defs>
</svg>
