<svg width="32" height="32" viewBox="0 0 32 32" fill="none" xmlns="http://www.w3.org/2000/svg">
<path d="M15.9932 9.21241C14.6582 9.21241 13.3531 9.60829 12.2431 10.35C11.1331 11.0917 10.2679 12.1459 9.75702 13.3793C9.24613 14.6127 9.11246 15.9699 9.37291 17.2793C9.63336 18.5886 10.2762 19.7914 11.2202 20.7354C12.1642 21.6794 13.367 22.3223 14.6764 22.5827C15.9857 22.8432 17.3429 22.7095 18.5763 22.1986C19.8097 21.6877 20.8639 20.8225 21.6056 19.7125C22.3473 18.6025 22.7432 17.2974 22.7432 15.9624C22.7412 14.1728 22.0294 12.4571 20.7639 11.1917C19.4985 9.92626 17.7828 9.21445 15.9932 9.21241ZM15.9932 21.2124C14.9549 21.2124 13.9398 20.9045 13.0765 20.3276C12.2131 19.7507 11.5402 18.9308 11.1428 17.9715C10.7455 17.0122 10.6415 15.9566 10.8441 14.9382C11.0467 13.9198 11.5467 12.9843 12.2809 12.2501C13.0151 11.5159 13.9506 11.0159 14.969 10.8133C15.9874 10.6107 17.043 10.7147 18.0023 11.112C18.9616 11.5094 19.7815 12.1823 20.3584 13.0457C20.9353 13.909 21.2432 14.9241 21.2432 15.9624C21.2416 17.3543 20.688 18.6887 19.7038 19.673C18.7195 20.6572 17.3851 21.2108 15.9932 21.2124Z" fill="white" fill-opacity="0.95"/>
<path d="M24.3076 3.25H22C21.8011 3.25 21.6103 3.32902 21.4697 3.46967C21.329 3.61032 21.25 3.80109 21.25 4C21.25 4.19891 21.329 4.38968 21.4697 4.53033C21.6103 4.67098 21.8011 4.75 22 4.75H24.3076C25.0877 4.75092 25.8356 5.06122 26.3872 5.61283C26.9388 6.16443 27.2491 6.9123 27.25 7.69239V10C27.25 10.1989 27.329 10.3897 27.4697 10.5303C27.6103 10.671 27.8011 10.75 28 10.75C28.1989 10.75 28.3897 10.671 28.5303 10.5303C28.671 10.3897 28.75 10.1989 28.75 10V7.69239C28.7486 6.51461 28.2802 5.38546 27.4474 4.55265C26.6145 3.71983 25.4854 3.25136 24.3076 3.25Z" fill="white" fill-opacity="0.95"/>
<path d="M4 10.75C4.1989 10.75 4.38964 10.6709 4.53028 10.5303C4.67092 10.3896 4.74995 10.1989 4.75 10V7.69239C4.75092 6.9123 5.06122 6.16443 5.61283 5.61283C6.16443 5.06122 6.9123 4.75092 7.69239 4.75H10C10.1989 4.75 10.3897 4.67098 10.5303 4.53033C10.671 4.38968 10.75 4.19891 10.75 4C10.75 3.80109 10.671 3.61032 10.5303 3.46967C10.3897 3.32902 10.1989 3.25 10 3.25H7.69239C6.51461 3.25136 5.38546 3.71983 4.55265 4.55265C3.71983 5.38546 3.25136 6.51461 3.25 7.69239V10C3.25005 10.1989 3.32908 10.3896 3.46973 10.5303C3.61037 10.6709 3.8011 10.7499 4 10.75Z" fill="white" fill-opacity="0.95"/>
<path d="M10 27.25H7.69239C6.91233 27.249 6.16451 26.9387 5.61292 26.3871C5.06133 25.8355 4.75101 25.0877 4.75 24.3076V22C4.75 21.8011 4.67098 21.6103 4.53033 21.4697C4.38968 21.329 4.19891 21.25 4 21.25C3.80109 21.25 3.61032 21.329 3.46967 21.4697C3.32902 21.6103 3.25 21.8011 3.25 22V24.3076C3.25144 25.4854 3.71994 26.6145 4.55274 27.4473C5.38554 28.2801 6.51464 28.7486 7.69239 28.75H10C10.1989 28.75 10.3897 28.671 10.5303 28.5303C10.671 28.3897 10.75 28.1989 10.75 28C10.75 27.8011 10.671 27.6103 10.5303 27.4697C10.3897 27.329 10.1989 27.25 10 27.25Z" fill="white" fill-opacity="0.95"/>
<path d="M28 21.25C27.8011 21.2501 27.6104 21.3291 27.4697 21.4697C27.3291 21.6104 27.2501 21.8011 27.25 22V24.3076C27.249 25.0877 26.9387 25.8355 26.3871 26.3871C25.8355 26.9387 25.0877 27.249 24.3076 27.25H22C21.8011 27.25 21.6103 27.329 21.4697 27.4697C21.329 27.6103 21.25 27.8011 21.25 28C21.25 28.1989 21.329 28.3897 21.4697 28.5303C21.6103 28.671 21.8011 28.75 22 28.75H24.3076C25.4854 28.7486 26.6145 28.2801 27.4473 27.4473C28.2801 26.6145 28.7486 25.4854 28.75 24.3076V22C28.75 21.8011 28.6709 21.6104 28.5303 21.4697C28.3896 21.3291 28.1989 21.25 28 21.25Z" fill="white" fill-opacity="0.95"/>
</svg>
