<svg width="32" height="32" viewBox="0 0 32 32" fill="none" xmlns="http://www.w3.org/2000/svg">
<path d="M16.0058 22.4999C16.42 22.4999 16.7558 22.1641 16.7558 21.7499C16.7558 21.3357 16.42 20.9999 16.0058 20.9999C15.5915 20.9999 15.2558 21.3357 15.2558 21.7499C15.2558 22.1641 15.5915 22.4999 16.0058 22.4999Z" fill="white" fill-opacity="0.95"/>
<path d="M16.0003 10.5005C15.0724 10.5016 14.1828 10.8707 13.5266 11.5269C12.8705 12.183 12.5014 13.0726 12.5003 14.0005C12.5003 14.1331 12.5529 14.2603 12.6467 14.354C12.7405 14.4478 12.8677 14.5005 13.0003 14.5005C13.1329 14.5005 13.2601 14.4478 13.3538 14.354C13.4476 14.2603 13.5003 14.1331 13.5003 14.0005C13.5003 13.506 13.6469 13.0227 13.9216 12.6116C14.1963 12.2004 14.5867 11.88 15.0436 11.6908C15.5004 11.5016 16.003 11.4521 16.488 11.5485C16.9729 11.645 17.4184 11.8831 17.768 12.2327C18.1177 12.5824 18.3558 13.0278 18.4522 13.5128C18.5487 13.9977 18.4992 14.5004 18.31 14.9572C18.1208 15.414 17.8003 15.8045 17.3892 16.0792C16.9781 16.3539 16.4947 16.5005 16.0003 16.5005C15.9346 16.5005 15.8696 16.5134 15.8089 16.5385C15.7482 16.5636 15.6931 16.6004 15.6466 16.6468C15.6002 16.6933 15.5634 16.7484 15.5383 16.8091C15.5131 16.8698 15.5002 16.9348 15.5003 17.0005V18.4624C15.5003 18.595 15.5529 18.7222 15.6467 18.816C15.7405 18.9097 15.8677 18.9624 16.0003 18.9624C16.1329 18.9624 16.2601 18.9097 16.3538 18.816C16.4476 18.7222 16.5003 18.595 16.5003 18.4624V17.4653C17.3761 17.3388 18.1715 16.8853 18.7264 16.196C19.2814 15.5068 19.5547 14.6329 19.4913 13.7502C19.4279 12.8676 19.0326 12.0417 18.3849 11.4388C17.7372 10.8358 16.8852 10.5006 16.0003 10.5005Z" fill="white" fill-opacity="0.95"/>
<path d="M15.9993 3.50049C13.7551 3.50075 11.5524 4.10511 9.62232 5.25012C7.69223 6.39513 6.10594 8.03857 5.02995 10.008C3.95395 11.9774 3.42792 14.2001 3.50707 16.4429C3.58622 18.6856 4.26762 20.8657 5.47976 22.7544C5.33577 23.4795 5.0451 24.1676 4.62561 24.7763C4.20611 25.3851 3.66664 25.9017 3.0403 26.2944C2.42702 26.6967 2.4163 27.1967 2.61159 27.5297C2.98073 28.1606 4.35671 28.5102 6.02077 28.5102C7.73965 28.5206 9.44096 28.164 11.011 27.4643C12.584 28.1515 14.2827 28.5044 15.9993 28.5004C19.3145 28.5004 22.4939 27.1835 24.8381 24.8393C27.1823 22.4951 28.4993 19.3157 28.4993 16.0004C28.4993 12.6852 27.1823 9.50582 24.8381 7.16161C22.4939 4.81741 19.3145 3.50049 15.9993 3.50049ZM15.9993 27.5005C14.3455 27.5046 12.7107 27.1487 11.2083 26.4575C11.1391 26.4257 11.0636 26.41 10.9874 26.4117C10.9113 26.4134 10.8365 26.4324 10.7688 26.4673C8.09306 27.8569 4.4329 27.5893 3.60384 27.1206C4.37543 26.6321 5.03304 25.9836 5.5321 25.2188C6.03116 24.454 6.36003 23.5909 6.49642 22.688C6.50912 22.5718 6.48041 22.4549 6.41536 22.3579C4.99882 20.2228 4.33585 17.6758 4.53164 15.121C4.72743 12.5662 5.77078 10.15 7.49613 8.25564C9.22148 6.36132 11.53 5.09742 14.0554 4.66448C16.5809 4.23154 19.1786 4.65435 21.4364 5.86583C23.6941 7.07731 25.4827 9.00807 26.5183 11.3518C27.5538 13.6955 27.777 16.3179 27.1525 18.8029C26.528 21.2879 25.0915 23.4932 23.071 25.0688C21.0505 26.6445 18.5616 27.5003 15.9993 27.5005Z" fill="white" fill-opacity="0.95"/>
</svg>
