<svg width="32" height="32" viewBox="0 0 32 32" fill="none" xmlns="http://www.w3.org/2000/svg">
<path d="M29.5146 18.817C29.4713 17.8978 29.1399 17.0156 28.5675 16.2951C27.995 15.5746 27.2105 15.0525 26.3249 14.8025C26.7461 14.4342 27.045 13.9461 27.1816 13.4034C27.3181 12.8607 27.2859 12.2893 27.0891 11.7655C26.8924 11.2416 26.5405 10.7902 26.0805 10.4716C25.6205 10.153 25.0742 9.98226 24.5146 9.98226C23.9551 9.98226 23.4088 10.153 22.9488 10.4716C22.4888 10.7902 22.1369 11.2416 21.9402 11.7655C21.7434 12.2893 21.7112 12.8607 21.8477 13.4034C21.9843 13.9461 22.2831 14.4342 22.7044 14.8025C22.0276 15.0274 21.4048 15.3904 20.8755 15.8684C20.1056 15.3905 19.2675 15.0323 18.3899 14.8061C19.2208 14.2899 19.861 13.517 20.2134 12.6045C20.5658 11.6919 20.6112 10.6894 20.3428 9.74871C20.0744 8.80802 19.5069 7.9804 18.726 7.39116C17.9452 6.80192 16.9936 6.48317 16.0154 6.48315C15.0371 6.48314 14.0855 6.80188 13.3047 7.39109C12.5238 7.98031 11.9562 8.80792 11.6878 9.7486C11.4194 10.6893 11.4648 11.6918 11.8172 12.6044C12.1696 13.5169 12.8097 14.2898 13.6406 14.806C12.7551 15.0345 11.9098 15.3974 11.1343 15.8822C10.6032 15.3991 9.97737 15.0321 9.29608 14.8055C9.71731 14.4371 10.0162 13.949 10.1527 13.4064C10.2892 12.8637 10.257 12.2923 10.0603 11.7685C9.86353 11.2446 9.51167 10.7932 9.05167 10.4746C8.59166 10.156 8.04541 9.98531 7.48584 9.98531C6.92626 9.98531 6.38001 10.156 5.92 10.4746C5.46 10.7932 5.10814 11.2446 4.9114 11.7685C4.71467 12.2923 4.68242 12.8637 4.81897 13.4064C4.95551 13.949 5.25435 14.4371 5.67559 14.8055C4.78999 15.0554 4.00544 15.5776 3.43299 16.298C2.86054 17.0185 2.52919 17.9007 2.48584 18.8199C2.48584 19.3287 2.79052 20.0299 4.24316 20.484C5.29819 20.7792 6.39043 20.92 7.48584 20.902C7.53289 20.902 7.58026 20.9004 7.62744 20.9C7.55597 21.2864 7.51843 21.678 7.51513 22.0709C7.51513 22.8678 8.00878 23.9782 10.3603 24.7428C12.1967 25.2777 14.1032 25.5329 16.0156 25.4996C20.2461 25.4996 24.5156 24.4401 24.5156 22.0709C24.5123 21.6763 24.4744 21.2827 24.4023 20.8947C24.4403 20.895 24.4765 20.8981 24.5146 20.8981C26.9316 20.898 29.5146 20.3512 29.5146 18.817ZM24.5146 10.9986C24.8608 10.9986 25.1991 11.1013 25.4869 11.2936C25.7747 11.4859 25.999 11.7592 26.1314 12.0789C26.2639 12.3987 26.2985 12.7506 26.231 13.09C26.1635 13.4295 25.9968 13.7413 25.7521 13.9861C25.5073 14.2308 25.1955 14.3975 24.856 14.465C24.5166 14.5325 24.1647 14.4979 23.8449 14.3654C23.5252 14.233 23.2519 14.0087 23.0596 13.7209C22.8673 13.4331 22.7646 13.0948 22.7646 12.7486C22.7652 12.2847 22.9498 11.8399 23.2778 11.5118C23.6059 11.1837 24.0507 10.9992 24.5146 10.9986ZM12.5151 10.9996C12.5151 10.3073 12.7203 9.63056 13.1049 9.05491C13.4895 8.47926 14.0362 8.03058 14.6758 7.76563C15.3154 7.50067 16.0192 7.43133 16.6982 7.56638C17.3772 7.70143 18.0009 8.0348 18.4904 8.52434C18.98 9.01387 19.3133 9.63758 19.4484 10.3166C19.5834 10.9956 19.5141 11.6994 19.2491 12.339C18.9842 12.9786 18.5355 13.5252 17.9599 13.9098C17.3842 14.2944 16.7074 14.4997 16.0151 14.4996C15.0872 14.4985 14.1976 14.1294 13.5415 13.4733C12.8854 12.8171 12.5162 11.9276 12.5151 10.9996ZM7.48584 11.0016C7.83196 11.0016 8.1703 11.1043 8.45809 11.2966C8.74587 11.4889 8.97018 11.7622 9.10263 12.0819C9.23508 12.4017 9.26974 12.7536 9.20221 13.093C9.13469 13.4325 8.96802 13.7443 8.72328 13.9891C8.47854 14.2338 8.16671 14.4005 7.82725 14.468C7.48778 14.5355 7.13591 14.5009 6.81614 14.3684C6.49637 14.236 6.22306 14.0117 6.03077 13.7239C5.83848 13.4361 5.73584 13.0978 5.73584 12.7516C5.73638 12.2877 5.92093 11.8429 6.249 11.5148C6.57707 11.1867 7.02187 11.0022 7.48584 11.0016ZM7.87829 19.8896C7.74664 19.8934 7.62347 19.902 7.48584 19.902C5.00784 19.902 3.48584 19.2721 3.48584 18.82C3.48584 16.9899 5.28027 15.5017 7.48584 15.5017C8.51184 15.4889 9.51049 15.8324 10.3115 16.4737C9.19338 17.359 8.34959 18.5436 7.87829 19.8896ZM16.0156 24.4996C11.8096 24.4996 8.51513 23.4332 8.51513 22.0709C8.51513 18.4479 11.8794 15.4996 16.0151 15.4996C20.1514 15.4996 23.5156 18.4479 23.5156 22.0709C23.5156 23.4332 20.2207 24.4996 16.0156 24.4996ZM21.7031 16.4607C22.5017 15.8262 23.4947 15.4864 24.5146 15.4987C26.7207 15.4987 28.5146 16.9869 28.5146 18.817C28.5146 19.2682 26.9932 19.898 24.5146 19.898C24.3873 19.898 24.2736 19.8898 24.1515 19.8866C23.6775 18.5351 22.8282 17.3468 21.7031 16.4607Z" fill="white" fill-opacity="0.95"/>
</svg>
