<svg width="32" height="32" viewBox="0 0 32 32" fill="none" xmlns="http://www.w3.org/2000/svg">
<path d="M29.5146 18.8172C29.4713 17.8981 29.1399 17.0158 28.5675 16.2953C27.995 15.5749 27.2105 15.0527 26.3249 14.8028C26.7461 14.4344 27.045 13.9463 27.1816 13.4037C27.3181 12.861 27.2859 12.2896 27.0891 11.7657C26.8924 11.2418 26.5405 10.7905 26.0805 10.4718C25.6205 10.1532 25.0742 9.98251 24.5146 9.98251C23.9551 9.98251 23.4088 10.1532 22.9488 10.4718C22.4888 10.7905 22.1369 11.2418 21.9402 11.7657C21.7434 12.2896 21.7112 12.861 21.8477 13.4037C21.9843 13.9463 22.2831 14.4344 22.7044 14.8028C22.0276 15.0277 21.4048 15.3906 20.8755 15.8687C20.1056 15.3907 19.2675 15.0325 18.3899 14.8063C19.2208 14.2901 19.861 13.5173 20.2134 12.6047C20.5658 11.6922 20.6112 10.6896 20.3428 9.74895C20.0744 8.80827 19.5069 7.98064 18.726 7.39141C17.9452 6.80217 16.9936 6.48341 16.0154 6.4834C15.0371 6.48339 14.0855 6.80212 13.3047 7.39134C12.5238 7.98055 11.9562 8.80816 11.6878 9.74885C11.4194 10.6895 11.4648 11.692 11.8172 12.6046C12.1696 13.5172 12.8097 14.2901 13.6406 14.8063C12.7551 15.0347 11.9098 15.3976 11.1343 15.8824C10.6032 15.3993 9.97737 15.0323 9.29608 14.8057C9.71731 14.4374 10.0162 13.9493 10.1527 13.4066C10.2892 12.864 10.257 12.2926 10.0603 11.7687C9.86353 11.2449 9.51167 10.7935 9.05167 10.4749C8.59166 10.1563 8.04541 9.98555 7.48584 9.98555C6.92626 9.98555 6.38001 10.1563 5.92 10.4749C5.46 10.7935 5.10814 11.2449 4.9114 11.7687C4.71467 12.2926 4.68242 12.864 4.81897 13.4066C4.95551 13.9493 5.25435 14.4374 5.67559 14.8057C4.78999 15.0557 4.00544 15.5778 3.43299 16.2983C2.86054 17.0187 2.52919 17.901 2.48584 18.8202C2.48584 19.329 2.79052 20.0302 4.24316 20.4842C5.29819 20.7794 6.39043 20.9202 7.48584 20.9022C7.53289 20.9022 7.58026 20.9006 7.62744 20.9002C7.55597 21.2866 7.51843 21.6783 7.51513 22.0712C7.51513 22.8681 8.00878 23.9784 10.3603 24.7431C12.1967 25.278 14.1032 25.5331 16.0156 25.4999C20.2461 25.4999 24.5156 24.4403 24.5156 22.0712C24.5123 21.6765 24.4744 21.2829 24.4023 20.8949C24.4403 20.8952 24.4765 20.8983 24.5146 20.8983C26.9316 20.8983 29.5146 20.3514 29.5146 18.8172ZM24.5146 10.9989C24.8608 10.9989 25.1991 11.1015 25.4869 11.2938C25.7747 11.4861 25.999 11.7594 26.1314 12.0792C26.2639 12.399 26.2985 12.7508 26.231 13.0903C26.1635 13.4298 25.9968 13.7416 25.7521 13.9863C25.5073 14.2311 25.1955 14.3977 24.856 14.4653C24.5166 14.5328 24.1647 14.4981 23.8449 14.3657C23.5252 14.2332 23.2519 14.0089 23.0596 13.7211C22.8673 13.4333 22.7646 13.095 22.7646 12.7489C22.7652 12.2849 22.9498 11.8401 23.2778 11.5121C23.6059 11.184 24.0507 10.9994 24.5146 10.9989ZM12.5151 10.9999C12.5151 10.3076 12.7203 9.6308 13.1049 9.05515C13.4895 8.4795 14.0362 8.03083 14.6758 7.76587C15.3154 7.50091 16.0192 7.43158 16.6982 7.56663C17.3772 7.70168 18.0009 8.03505 18.4904 8.52458C18.98 9.01412 19.3133 9.63782 19.4484 10.3168C19.5834 10.9958 19.5141 11.6996 19.2491 12.3392C18.9842 12.9788 18.5355 13.5255 17.9599 13.9101C17.3842 14.2947 16.7074 14.4999 16.0151 14.4999C15.0872 14.4988 14.1976 14.1296 13.5415 13.4735C12.8854 12.8174 12.5162 11.9278 12.5151 10.9999ZM7.48584 11.0019C7.83196 11.0019 8.1703 11.1045 8.45809 11.2968C8.74587 11.4891 8.97018 11.7624 9.10263 12.0822C9.23508 12.402 9.26974 12.7538 9.20221 13.0933C9.13469 13.4328 8.96802 13.7446 8.72328 13.9893C8.47854 14.2341 8.16671 14.4007 7.82725 14.4683C7.48778 14.5358 7.13591 14.5011 6.81614 14.3687C6.49637 14.2362 6.22306 14.0119 6.03077 13.7241C5.83848 13.4363 5.73584 13.098 5.73584 12.7519C5.73638 12.2879 5.92093 11.8431 6.249 11.515C6.57707 11.1869 7.02187 11.0024 7.48584 11.0019ZM7.87829 19.8899C7.74664 19.8936 7.62347 19.9023 7.48584 19.9023C5.00784 19.9023 3.48584 19.2724 3.48584 18.8203C3.48584 16.9902 5.28027 15.5019 7.48584 15.5019C8.51184 15.4892 9.51049 15.8327 10.3115 16.4739C9.19338 17.3592 8.34959 18.5438 7.87829 19.8899ZM16.0156 24.4999C11.8096 24.4999 8.51513 23.4335 8.51513 22.0712C8.51513 18.4482 11.8794 15.4999 16.0151 15.4999C20.1514 15.4999 23.5156 18.4481 23.5156 22.0712C23.5156 23.4335 20.2207 24.4999 16.0156 24.4999ZM21.7031 16.4609C22.5017 15.8264 23.4947 15.4867 24.5146 15.4989C26.7207 15.4989 28.5146 16.9872 28.5146 18.8173C28.5146 19.2684 26.9932 19.8983 24.5146 19.8983C24.3873 19.8983 24.2736 19.89 24.1515 19.8868C23.6775 18.5354 22.8282 17.3471 21.7031 16.4609Z" fill="white" fill-opacity="0.95"/>
</svg>
