<svg width="559" height="179" viewBox="0 0 559 179" fill="none" xmlns="http://www.w3.org/2000/svg">
<rect width="559" height="179" rx="16" fill="#1A1A1A"/>
<path fill-rule="evenodd" clip-rule="evenodd" d="M227.283 38.889C228.728 37.4437 230.688 36.6318 232.732 36.6318H342.198C344.242 36.6318 346.202 37.4438 347.647 38.889C349.093 40.3342 349.904 42.2943 349.904 44.3382V121.96C349.904 126.265 346.435 129.666 342.696 129.666C342.005 129.666 341.446 130.226 341.446 130.916C341.446 131.606 342.005 132.166 342.696 132.166C347.913 132.166 352.404 127.546 352.404 121.96V44.3382C352.404 41.6313 351.329 39.0353 349.415 37.1212C347.501 35.2071 344.905 34.1318 342.198 34.1318H232.732C230.025 34.1318 227.429 35.2071 225.515 37.1212C223.601 39.0353 222.526 41.6313 222.526 44.3382V46.0873C218.71 46.273 215.057 47.7599 212.188 50.3214C208.998 53.1693 207.019 57.1296 206.656 61.3903C206.293 65.6509 207.574 69.889 210.236 73.2355C212.897 76.582 216.739 78.7834 220.972 79.3881C225.205 79.9928 229.509 78.9551 233.002 76.4878C236.494 74.0205 238.91 70.3105 239.755 66.1186C240.599 61.9268 239.808 57.5707 237.543 53.9436C235.278 50.3165 231.712 47.6932 227.575 46.6118C226.907 46.4372 226.224 46.8371 226.049 47.5051C225.875 48.173 226.274 48.856 226.942 49.0305C230.462 49.9505 233.496 52.1821 235.422 55.2676C237.349 58.3532 238.022 62.0589 237.304 65.6249C236.586 69.191 234.53 72.347 231.559 74.446C228.588 76.5449 224.927 77.4277 221.325 76.9132C217.724 76.3988 214.457 74.5261 212.192 71.6792C209.928 68.8324 208.838 65.227 209.147 61.6025C209.456 57.978 211.14 54.609 213.853 52.1863C216.567 49.7636 220.104 48.4709 223.74 48.5731C224.078 48.5826 224.405 48.4552 224.647 48.2198C224.889 47.9845 225.026 47.6612 225.026 47.3236V44.3382C225.026 42.2943 225.837 40.3342 227.283 38.889ZM225.027 82.6516C225.027 81.9612 224.467 81.4016 223.777 81.4016C223.086 81.4016 222.527 81.9612 222.527 82.6516V121.96C222.527 127.547 227.019 132.166 232.235 132.166C232.926 132.166 233.485 131.607 233.485 130.916C233.485 130.226 232.926 129.666 232.235 129.666C228.496 129.666 225.027 126.265 225.027 121.96V82.6516ZM231.659 57.438C231.974 57.4238 232.286 57.4947 232.563 57.6432C232.841 57.7918 233.073 58.0126 233.235 58.2821C233.398 58.5515 233.484 58.8599 233.486 59.1748L233.486 59.1812L233.486 67.1822L233.486 67.1852C233.485 67.5114 233.393 67.8307 233.22 68.1071C233.048 68.3835 232.801 68.6062 232.508 68.7499C232.216 68.8935 231.888 68.9524 231.564 68.9199C231.24 68.8874 230.931 68.7648 230.672 68.5658L230.671 68.5651L229.006 67.2804C228.977 69.0452 227.538 70.4671 225.766 70.4671H217.805C216.015 70.4671 214.565 69.0163 214.565 67.2268V59.2656C214.565 57.476 216.015 56.0253 217.805 56.0253H225.766C227.44 56.0253 228.818 57.2954 228.989 58.9247L230.768 57.7303L230.777 57.7243L230.777 57.7243C231.04 57.5511 231.345 57.4523 231.659 57.438ZM230.986 60.595L229.008 61.9226V64.1247L230.986 65.6504V60.595ZM217.065 59.2656C217.065 58.8567 217.396 58.5253 217.805 58.5253H225.766C226.175 58.5253 226.506 58.8567 226.506 59.2656V67.2268C226.506 67.6356 226.175 67.9671 225.766 67.9671H217.805C217.396 67.9671 217.065 67.6356 217.065 67.2268V59.2656Z" fill="url(#paint0_linear_1847_34091)"/>
<path d="M257.61 128.926V135.827C257.609 136.494 257.476 137.155 257.219 137.77C256.961 138.386 256.584 138.944 256.109 139.413C255.634 139.882 255.071 140.252 254.453 140.501C253.834 140.751 253.172 140.875 252.505 140.868C247.131 140.798 243.708 136.389 243.678 132.459C243.673 132.101 243.793 131.754 244.018 131.476C244.242 131.198 244.557 131.007 244.907 130.936C245.124 130.897 245.346 130.907 245.559 130.964C245.772 131.021 245.969 131.125 246.137 131.268C246.305 131.41 246.439 131.589 246.53 131.789C246.621 131.99 246.667 132.208 246.663 132.429V142.878C246.663 143.406 246.453 143.912 246.08 144.285C245.707 144.658 245.201 144.868 244.673 144.868H239.697C238.641 144.868 237.629 144.449 236.882 143.702C236.136 142.956 235.717 141.943 235.717 140.887V120.984C235.717 119.929 236.136 118.916 236.882 118.17C237.629 117.423 238.641 117.004 239.697 117.004H263.581C264.636 117.004 265.649 117.423 266.395 118.17C267.142 118.916 267.561 119.929 267.561 120.984V140.887C267.561 141.943 267.142 142.956 266.395 143.702C265.649 144.449 264.636 144.868 263.581 144.868H253.629" stroke="#279BE8" stroke-width="2.5" stroke-linecap="round" stroke-linejoin="round"/>
<path d="M257.612 128.926C257.612 127.87 257.192 126.858 256.446 126.111C255.699 125.365 254.687 124.945 253.631 124.945C250.148 124.945 250.148 128.926 246.665 128.926" stroke="#279BE7" stroke-width="2.5" stroke-linecap="round" stroke-linejoin="round"/>
<path d="M253.63 130.418L254.625 133.403C255.123 134.896 254.127 134.896 253.63 134.896H253.132" stroke="#279BE7" stroke-width="2.5" stroke-linecap="round" stroke-linejoin="round"/>
<path d="M251.143 122.955C247.66 122.955 247.66 126.935 244.177 126.935" stroke="#279BE7" stroke-width="2.5" stroke-linecap="round" stroke-linejoin="round"/>
<path d="M281.494 128.926V135.827C281.495 136.494 281.628 137.155 281.886 137.77C282.143 138.386 282.52 138.944 282.995 139.413C283.47 139.882 284.033 140.252 284.652 140.501C285.27 140.751 285.932 140.875 286.6 140.868C291.973 140.798 295.397 136.389 295.427 132.459C295.431 132.101 295.311 131.754 295.087 131.476C294.862 131.198 294.548 131.007 294.198 130.936C293.981 130.897 293.758 130.907 293.545 130.964C293.332 131.021 293.135 131.125 292.967 131.268C292.799 131.41 292.665 131.589 292.574 131.789C292.483 131.99 292.438 132.208 292.441 132.429V142.878C292.441 143.406 292.651 143.912 293.024 144.285C293.397 144.658 293.904 144.868 294.431 144.868H299.407C300.463 144.868 301.475 144.449 302.222 143.702C302.968 142.956 303.388 141.943 303.388 140.887V120.984C303.388 119.929 302.968 118.916 302.222 118.17C301.475 117.423 300.463 117.004 299.407 117.004H275.524C274.468 117.004 273.455 117.423 272.709 118.17C271.962 118.916 271.543 119.929 271.543 120.984V140.887C271.543 141.943 271.962 142.956 272.709 143.702C273.455 144.449 274.468 144.868 275.524 144.868H285.475" stroke="#279BE7" stroke-width="2.5" stroke-linecap="round" stroke-linejoin="round"/>
<path d="M281.495 128.926C281.495 127.87 281.914 126.858 282.661 126.111C283.407 125.365 284.42 124.945 285.475 124.945C288.958 124.945 288.958 128.926 292.441 128.926" stroke="#279BE7" stroke-width="2.5" stroke-linecap="round" stroke-linejoin="round"/>
<path d="M285.475 130.418L284.48 133.403C283.982 134.896 284.977 134.896 285.475 134.896H285.973" stroke="#279BE7" stroke-width="2.5" stroke-linecap="round" stroke-linejoin="round"/>
<path d="M281.495 122.955C281.495 122.955 281.992 120.964 285.475 120.964H290.451C291.243 120.964 292.002 121.279 292.562 121.839C293.122 122.399 293.437 123.158 293.437 123.95C294.228 123.95 294.988 124.264 295.548 124.824C296.108 125.384 296.422 126.143 296.422 126.935V128.926" stroke="#279BE7" stroke-width="2.5" stroke-linecap="round" stroke-linejoin="round"/>
<path d="M327.271 130.916L328.266 133.901C328.763 135.394 327.768 135.394 327.271 135.394H326.773" stroke="#279BE7" stroke-width="2.5" stroke-linecap="round" stroke-linejoin="round"/>
<path d="M327.768 127.931H323.29C322.762 127.931 322.256 128.14 321.883 128.514C321.509 128.887 321.3 129.393 321.3 129.921V135.743C321.285 137.026 321.754 138.268 322.615 139.22C323.476 140.172 324.664 140.764 325.942 140.878C326.623 140.923 327.306 140.829 327.949 140.599C328.591 140.37 329.18 140.01 329.678 139.544C330.176 139.077 330.573 138.513 330.843 137.886C331.114 137.26 331.253 136.584 331.251 135.902V129.15C331.251 124.866 327.957 121.189 323.673 120.975C322.596 120.923 321.519 121.09 320.509 121.467C319.498 121.844 318.575 122.422 317.794 123.167C317.014 123.911 316.393 124.806 315.969 125.798C315.546 126.79 315.328 127.857 315.329 128.936V142.868C315.329 143.396 315.119 143.902 314.746 144.275C314.373 144.649 313.866 144.858 313.339 144.858H311.348C310.293 144.858 309.28 144.439 308.534 143.692C307.787 142.946 307.368 141.933 307.368 140.878V120.975C307.368 119.919 307.787 118.907 308.534 118.16C309.28 117.414 310.293 116.994 311.348 116.994H335.232C336.288 116.994 337.3 117.414 338.047 118.16C338.793 118.907 339.212 119.919 339.212 120.975V140.878C339.212 141.933 338.793 142.946 338.047 143.692C337.3 144.439 336.288 144.858 335.232 144.858H326.773" stroke="#279BE7" stroke-width="2.5" stroke-linecap="round" stroke-linejoin="round"/>
<path d="M297.416 68.2212L299.406 74.1921C300.401 77.1775 299.406 78.1727 297.416 78.1727H296.421" stroke="url(#paint1_linear_1847_34091)" stroke-width="2.5" stroke-linecap="round" stroke-linejoin="round"/>
<path d="M291.445 71.2071C291.995 71.2071 292.44 70.7615 292.44 70.2119C292.44 69.6623 291.995 69.2168 291.445 69.2168C290.896 69.2168 290.45 69.6623 290.45 70.2119C290.45 70.7615 290.896 71.2071 291.445 71.2071Z" fill="#87C063"/>
<path d="M277.514 65.2371C277.514 65.2371 283.485 64.242 283.485 55.2856C289.11 60.9302 296.529 64.434 304.462 65.1923C304.712 65.2124 304.945 65.326 305.115 65.5105C305.285 65.695 305.379 65.9368 305.378 66.1875V81.0749C305.371 84.2335 304.124 87.2632 301.907 89.5129C299.69 91.7626 296.679 93.0528 293.521 93.1062C281.634 93.1659 271.702 80.3932 271.543 71.4269C271.511 70.6579 271.769 69.9048 272.264 69.3156C272.759 68.7264 273.457 68.3436 274.22 68.2425C274.637 68.1991 275.059 68.2442 275.457 68.3747C275.856 68.5052 276.223 68.7182 276.533 68.9998C276.844 69.2815 277.092 69.6255 277.261 70.0094C277.43 70.3933 277.516 70.8085 277.514 71.2279V91.1309C277.514 97.1017 275.523 97.1017 269.553 99.092L263.582 101.082C257.611 103.073 249.65 105.561 249.65 113.522" stroke="url(#paint2_linear_1847_34091)" stroke-width="2.5" stroke-linecap="round" stroke-linejoin="round"/>
<path d="M274.031 91.1103H267.563C267.035 91.1103 266.528 90.9006 266.155 90.5273C265.782 90.1541 265.572 89.6478 265.572 89.12V63.2462C265.572 58.4954 267.46 53.9393 270.819 50.58C274.178 47.2207 278.734 45.3335 283.485 45.3335H289.456C299.905 45.3335 307.368 51.3044 307.368 62.251" stroke="url(#paint3_linear_1847_34091)" stroke-width="2.5" stroke-linecap="round" stroke-linejoin="round"/>
<path d="M276.021 100.564C276.816 103.213 278.505 105.503 280.8 107.045C283.096 108.587 285.855 109.284 288.607 109.018C291.36 108.752 293.934 107.539 295.892 105.586C297.85 103.633 299.069 101.062 299.342 98.3101C299.361 98.1643 299.412 98.0244 299.491 97.9006C299.571 97.7767 299.676 97.672 299.801 97.594C299.926 97.516 300.066 97.4665 300.212 97.4493C300.358 97.432 300.506 97.4473 300.646 97.4941L311.348 101.062C317.319 103.052 325.281 105.54 325.281 113.501" stroke="url(#paint4_linear_1847_34091)" stroke-width="2.5" stroke-linecap="round" stroke-linejoin="round"/>
<defs>
<linearGradient id="paint0_linear_1847_34091" x1="279.5" y1="34.1318" x2="279.5" y2="132.166" gradientUnits="userSpaceOnUse">
<stop stop-color="#93C437"/>
<stop offset="1" stop-color="#279BE8"/>
</linearGradient>
<linearGradient id="paint1_linear_1847_34091" x1="298.109" y1="68.2212" x2="298.109" y2="78.1727" gradientUnits="userSpaceOnUse">
<stop stop-color="#82BD7C"/>
<stop offset="1" stop-color="#78BAA2"/>
</linearGradient>
<linearGradient id="paint2_linear_1847_34091" x1="277.514" y1="55.2856" x2="277.514" y2="113.522" gradientUnits="userSpaceOnUse">
<stop stop-color="#92C437"/>
<stop offset="1" stop-color="#64B4FA"/>
</linearGradient>
<linearGradient id="paint3_linear_1847_34091" x1="286.47" y1="45.3335" x2="286.47" y2="91.1103" gradientUnits="userSpaceOnUse">
<stop stop-color="#8FC248"/>
<stop offset="1" stop-color="#71B8C0"/>
</linearGradient>
<linearGradient id="paint4_linear_1847_34091" x1="300.651" y1="97.4424" x2="300.651" y2="113.501" gradientUnits="userSpaceOnUse">
<stop stop-color="#74B9B3"/>
<stop offset="1" stop-color="#64B4FA"/>
</linearGradient>
</defs>
</svg>
