<svg width="1150" height="674" viewBox="0 0 1150 674" fill="none" xmlns="http://www.w3.org/2000/svg">
<rect width="1150" height="674" rx="16" fill="#1A1A1A"/>
<path d="M43.6307 58L40.3011 46.3636H42.9886L44.9148 54.4489H45.0114L47.1364 46.3636H49.4375L51.5568 54.4659H51.6591L53.5852 46.3636H56.2727L52.9432 58H50.5455L48.3295 50.392H48.2386L46.0284 58H43.6307ZM58.2295 58V46.3636H60.6897V51.1648H65.684V46.3636H68.1386V58H65.684V53.1932H60.6897V58H58.2295ZM73.2672 46.3636V58H70.807V46.3636H73.2672ZM75.4882 48.392V46.3636H85.045V48.392H81.4825V58H79.0507V48.392H75.4882ZM87.2589 58V46.3636H95.0998V48.392H89.7191V51.1648H94.6964V53.1932H89.7191V55.9716H95.1225V58H87.2589ZM103.088 51.2216V53.142H97.781V51.2216H103.088ZM107.841 58H105.205L109.222 46.3636H112.393L116.404 58H113.768L110.853 49.0227H110.762L107.841 58ZM107.677 53.4261H113.904V55.3466H107.677V53.4261ZM118.444 58V46.3636H120.905V55.9716H125.893V58H118.444ZM128.163 58V46.3636H132.754C133.636 46.3636 134.388 46.5322 135.009 46.8693C135.63 47.2027 136.104 47.6667 136.43 48.2614C136.759 48.8523 136.924 49.5341 136.924 50.3068C136.924 51.0795 136.757 51.7614 136.424 52.3523C136.091 52.9432 135.608 53.4034 134.975 53.733C134.346 54.0625 133.585 54.2273 132.691 54.2273H129.765V52.2557H132.293C132.767 52.2557 133.157 52.1742 133.464 52.0114C133.774 51.8447 134.005 51.6155 134.157 51.3239C134.312 51.0284 134.39 50.6894 134.39 50.3068C134.39 49.9205 134.312 49.5833 134.157 49.2955C134.005 49.0038 133.774 48.7784 133.464 48.6193C133.153 48.4564 132.759 48.375 132.282 48.375H130.623V58H128.163ZM139.162 58V46.3636H141.622V51.1648H146.617V46.3636H149.071V58H146.617V53.1932H141.622V58H139.162ZM153.745 58H151.109L155.126 46.3636H158.296L162.308 58H159.671L156.757 49.0227H156.666L153.745 58ZM153.58 53.4261H159.808V55.3466H153.58V53.4261Z" fill="white"/>
<rect x="51.5" y="84.5" width="59" height="59" rx="29.5" stroke="white" stroke-opacity="0.2"/>
<rect x="61" y="164" width="40" height="32" rx="4" fill="white"/>
<rect x="61.5" y="164.5" width="39" height="31" rx="3.5" stroke="white" stroke-opacity="0.2"/>
<path d="M73.8 185.24C71.528 185.24 69.8 183.384 69.8 179.368C69.8 175.24 71.544 173.56 73.8 173.56C76.056 173.56 77.8 175.24 77.8 179.368C77.8 183.384 76.072 185.24 73.8 185.24ZM73.8 183.96C75.432 183.96 76.232 182.504 76.232 179.368C76.232 176.248 75.432 174.84 73.8 174.84C72.168 174.84 71.368 176.248 71.368 179.368C71.368 182.504 72.168 183.96 73.8 183.96ZM84.6098 176.264C84.6098 178.072 83.2658 178.968 81.8738 178.968C80.4818 178.968 79.1538 178.072 79.1538 176.264C79.1538 174.456 80.4818 173.56 81.8738 173.56C83.2658 173.56 84.6098 174.456 84.6098 176.264ZM80.4498 176.264C80.4498 177.416 81.0898 177.848 81.8738 177.848C82.6578 177.848 83.3298 177.416 83.3298 176.264C83.3298 175.112 82.6578 174.68 81.8738 174.68C81.0898 174.68 80.4498 175.112 80.4498 176.264ZM89.0898 173.8L82.9778 185H81.4418L87.5538 173.8H89.0898ZM91.4898 182.536C91.4898 184.344 90.1458 185.24 88.7538 185.24C87.3618 185.24 86.0338 184.344 86.0338 182.536C86.0338 180.728 87.3618 179.832 88.7538 179.832C90.1458 179.832 91.4898 180.728 91.4898 182.536ZM87.3298 182.536C87.3298 183.688 87.9698 184.12 88.7538 184.12C89.5378 184.12 90.2098 183.688 90.2098 182.536C90.2098 181.384 89.5378 180.952 88.7538 180.952C87.9698 180.952 87.3298 181.384 87.3298 182.536Z" fill="black" fill-opacity="0.95"/>
<rect x="127" y="84" width="60" height="60" rx="30" fill="white" fill-opacity="0.05"/>
<rect x="127.5" y="84.5" width="59" height="59" rx="29.5" stroke="white" stroke-opacity="0.2"/>
<rect x="137" y="164" width="40" height="32" rx="4" fill="white"/>
<path d="M145.816 182.28H147.448C147.656 183.192 148.456 183.944 149.816 183.944C151.192 183.944 152.248 182.984 152.248 181.304C152.248 179.656 151.288 178.76 149.848 178.76C149.08 178.76 148.216 179.064 147.608 179.784H146.248L146.488 173.8H153.368V175.096H147.88L147.752 178.376C148.376 177.88 149.16 177.56 150.2 177.56C152.152 177.56 153.832 178.856 153.832 181.368C153.832 183.448 152.36 185.24 149.8 185.24C147.496 185.24 146.072 183.8 145.816 182.28ZM160.61 176.264C160.61 178.072 159.266 178.968 157.874 178.968C156.482 178.968 155.154 178.072 155.154 176.264C155.154 174.456 156.482 173.56 157.874 173.56C159.266 173.56 160.61 174.456 160.61 176.264ZM156.45 176.264C156.45 177.416 157.09 177.848 157.874 177.848C158.658 177.848 159.33 177.416 159.33 176.264C159.33 175.112 158.658 174.68 157.874 174.68C157.09 174.68 156.45 175.112 156.45 176.264ZM165.09 173.8L158.978 185H157.442L163.554 173.8H165.09ZM167.49 182.536C167.49 184.344 166.146 185.24 164.754 185.24C163.362 185.24 162.034 184.344 162.034 182.536C162.034 180.728 163.362 179.832 164.754 179.832C166.146 179.832 167.49 180.728 167.49 182.536ZM163.33 182.536C163.33 183.688 163.97 184.12 164.754 184.12C165.538 184.12 166.21 183.688 166.21 182.536C166.21 181.384 165.538 180.952 164.754 180.952C163.97 180.952 163.33 181.384 163.33 182.536Z" fill="black" fill-opacity="0.95"/>
<rect x="203" y="84" width="60" height="60" rx="30" fill="white" fill-opacity="0.07"/>
<rect x="203.5" y="84.5" width="59" height="59" rx="29.5" stroke="white" stroke-opacity="0.2"/>
<rect x="213" y="164" width="40" height="32" rx="4" fill="white"/>
<path d="M229.32 175.176L224.744 185H223L227.688 175.176H222.2V173.8H229.32V175.176ZM236.61 176.264C236.61 178.072 235.266 178.968 233.874 178.968C232.482 178.968 231.154 178.072 231.154 176.264C231.154 174.456 232.482 173.56 233.874 173.56C235.266 173.56 236.61 174.456 236.61 176.264ZM232.45 176.264C232.45 177.416 233.09 177.848 233.874 177.848C234.658 177.848 235.33 177.416 235.33 176.264C235.33 175.112 234.658 174.68 233.874 174.68C233.09 174.68 232.45 175.112 232.45 176.264ZM241.09 173.8L234.978 185H233.442L239.554 173.8H241.09ZM243.49 182.536C243.49 184.344 242.146 185.24 240.754 185.24C239.362 185.24 238.034 184.344 238.034 182.536C238.034 180.728 239.362 179.832 240.754 179.832C242.146 179.832 243.49 180.728 243.49 182.536ZM239.33 182.536C239.33 183.688 239.97 184.12 240.754 184.12C241.538 184.12 242.21 183.688 242.21 182.536C242.21 181.384 241.538 180.952 240.754 180.952C239.97 180.952 239.33 181.384 239.33 182.536Z" fill="black" fill-opacity="0.95"/>
<rect x="279" y="84" width="60" height="60" rx="30" fill="white" fill-opacity="0.11"/>
<rect x="279.5" y="84.5" width="59" height="59" rx="29.5" stroke="white" stroke-opacity="0.2"/>
<rect x="284.5" y="164" width="49" height="32" rx="4" fill="white"/>
<path d="M298.66 185H297.14V175.4L294.628 176.696V175.112L297.156 173.8H298.66V185ZM308.254 185H306.734V175.4L304.222 176.696V175.112L306.75 173.8H308.254V185ZM317.704 176.264C317.704 178.072 316.36 178.968 314.968 178.968C313.576 178.968 312.248 178.072 312.248 176.264C312.248 174.456 313.576 173.56 314.968 173.56C316.36 173.56 317.704 174.456 317.704 176.264ZM313.544 176.264C313.544 177.416 314.184 177.848 314.968 177.848C315.752 177.848 316.424 177.416 316.424 176.264C316.424 175.112 315.752 174.68 314.968 174.68C314.184 174.68 313.544 175.112 313.544 176.264ZM322.184 173.8L316.072 185H314.536L320.648 173.8H322.184ZM324.584 182.536C324.584 184.344 323.24 185.24 321.848 185.24C320.456 185.24 319.128 184.344 319.128 182.536C319.128 180.728 320.456 179.832 321.848 179.832C323.24 179.832 324.584 180.728 324.584 182.536ZM320.424 182.536C320.424 183.688 321.064 184.12 321.848 184.12C322.632 184.12 323.304 183.688 323.304 182.536C323.304 181.384 322.632 180.952 321.848 180.952C321.064 180.952 320.424 181.384 320.424 182.536Z" fill="black" fill-opacity="0.95"/>
<rect x="355" y="84" width="60" height="60" rx="30" fill="white" fill-opacity="0.2"/>
<rect x="355.5" y="84.5" width="59" height="59" rx="29.5" stroke="white" stroke-opacity="0.2"/>
<rect x="360.5" y="164" width="49" height="32" rx="4" fill="white"/>
<path d="M371.076 176.728H369.46C369.7 174.936 371.188 173.56 373.396 173.56C375.476 173.56 377.044 174.776 377.044 176.744C377.044 178.264 376.388 179.24 374.372 181.16L371.812 183.592H376.996V185H369.732V183.592L373.38 180.088C374.9 178.632 375.476 177.848 375.476 176.76C375.476 175.624 374.692 174.856 373.364 174.856C372.1 174.856 371.204 175.56 371.076 176.728ZM382.894 185.24C380.622 185.24 378.894 183.384 378.894 179.368C378.894 175.24 380.638 173.56 382.894 173.56C385.15 173.56 386.894 175.24 386.894 179.368C386.894 183.384 385.166 185.24 382.894 185.24ZM382.894 183.96C384.526 183.96 385.326 182.504 385.326 179.368C385.326 176.248 384.526 174.84 382.894 174.84C381.262 174.84 380.462 176.248 380.462 179.368C380.462 182.504 381.262 183.96 382.894 183.96ZM393.704 176.264C393.704 178.072 392.36 178.968 390.968 178.968C389.576 178.968 388.248 178.072 388.248 176.264C388.248 174.456 389.576 173.56 390.968 173.56C392.36 173.56 393.704 174.456 393.704 176.264ZM389.544 176.264C389.544 177.416 390.184 177.848 390.968 177.848C391.752 177.848 392.424 177.416 392.424 176.264C392.424 175.112 391.752 174.68 390.968 174.68C390.184 174.68 389.544 175.112 389.544 176.264ZM398.184 173.8L392.072 185H390.536L396.648 173.8H398.184ZM400.584 182.536C400.584 184.344 399.24 185.24 397.848 185.24C396.456 185.24 395.128 184.344 395.128 182.536C395.128 180.728 396.456 179.832 397.848 179.832C399.24 179.832 400.584 180.728 400.584 182.536ZM396.424 182.536C396.424 183.688 397.064 184.12 397.848 184.12C398.632 184.12 399.304 183.688 399.304 182.536C399.304 181.384 398.632 180.952 397.848 180.952C397.064 180.952 396.424 181.384 396.424 182.536Z" fill="black" fill-opacity="0.95"/>
<rect x="431" y="84" width="60" height="60" rx="30" fill="white" fill-opacity="0.3"/>
<rect x="431.5" y="84.5" width="59" height="59" rx="29.5" stroke="white" stroke-opacity="0.2"/>
<rect x="436.5" y="164" width="49" height="32" rx="4" fill="white"/>
<path d="M446.932 176.44H445.316C445.588 174.696 447.14 173.56 449.268 173.56C451.14 173.56 452.9 174.488 452.9 176.488C452.9 177.704 452.052 178.68 450.884 179.048C452.148 179.32 453.284 180.264 453.284 181.944C453.284 183.864 451.716 185.224 449.316 185.224C446.964 185.224 445.54 184.008 445.284 182.216H446.916C447.172 183.336 447.924 183.944 449.284 183.944C450.82 183.944 451.716 183.112 451.716 181.912C451.716 180.376 450.532 179.8 449.508 179.8H448.58V178.472H449.476C450.324 178.472 451.332 177.896 451.332 176.6C451.332 175.4 450.276 174.84 449.188 174.84C447.94 174.84 447.092 175.48 446.932 176.44ZM458.894 185.24C456.622 185.24 454.894 183.384 454.894 179.368C454.894 175.24 456.638 173.56 458.894 173.56C461.15 173.56 462.894 175.24 462.894 179.368C462.894 183.384 461.166 185.24 458.894 185.24ZM458.894 183.96C460.526 183.96 461.326 182.504 461.326 179.368C461.326 176.248 460.526 174.84 458.894 174.84C457.262 174.84 456.462 176.248 456.462 179.368C456.462 182.504 457.262 183.96 458.894 183.96ZM469.704 176.264C469.704 178.072 468.36 178.968 466.968 178.968C465.576 178.968 464.248 178.072 464.248 176.264C464.248 174.456 465.576 173.56 466.968 173.56C468.36 173.56 469.704 174.456 469.704 176.264ZM465.544 176.264C465.544 177.416 466.184 177.848 466.968 177.848C467.752 177.848 468.424 177.416 468.424 176.264C468.424 175.112 467.752 174.68 466.968 174.68C466.184 174.68 465.544 175.112 465.544 176.264ZM474.184 173.8L468.072 185H466.536L472.648 173.8H474.184ZM476.584 182.536C476.584 184.344 475.24 185.24 473.848 185.24C472.456 185.24 471.128 184.344 471.128 182.536C471.128 180.728 472.456 179.832 473.848 179.832C475.24 179.832 476.584 180.728 476.584 182.536ZM472.424 182.536C472.424 183.688 473.064 184.12 473.848 184.12C474.632 184.12 475.304 183.688 475.304 182.536C475.304 181.384 474.632 180.952 473.848 180.952C473.064 180.952 472.424 181.384 472.424 182.536Z" fill="black" fill-opacity="0.95"/>
<rect x="507" y="84" width="60" height="60" rx="30" fill="white" fill-opacity="0.4"/>
<rect x="507.5" y="84.5" width="59" height="59" rx="29.5" stroke="white" stroke-opacity="0.2"/>
<rect x="512.5" y="164" width="49" height="32" rx="4" fill="white"/>
<path d="M526.004 173.8H527.604V181.576H529.412V182.888H527.604V185H526.116V182.888H521.204V181.464L526.004 173.8ZM522.916 181.576H526.116V176.28L522.916 181.576ZM534.894 185.24C532.622 185.24 530.894 183.384 530.894 179.368C530.894 175.24 532.638 173.56 534.894 173.56C537.15 173.56 538.894 175.24 538.894 179.368C538.894 183.384 537.166 185.24 534.894 185.24ZM534.894 183.96C536.526 183.96 537.326 182.504 537.326 179.368C537.326 176.248 536.526 174.84 534.894 174.84C533.262 174.84 532.462 176.248 532.462 179.368C532.462 182.504 533.262 183.96 534.894 183.96ZM545.704 176.264C545.704 178.072 544.36 178.968 542.968 178.968C541.576 178.968 540.248 178.072 540.248 176.264C540.248 174.456 541.576 173.56 542.968 173.56C544.36 173.56 545.704 174.456 545.704 176.264ZM541.544 176.264C541.544 177.416 542.184 177.848 542.968 177.848C543.752 177.848 544.424 177.416 544.424 176.264C544.424 175.112 543.752 174.68 542.968 174.68C542.184 174.68 541.544 175.112 541.544 176.264ZM550.184 173.8L544.072 185H542.536L548.648 173.8H550.184ZM552.584 182.536C552.584 184.344 551.24 185.24 549.848 185.24C548.456 185.24 547.128 184.344 547.128 182.536C547.128 180.728 548.456 179.832 549.848 179.832C551.24 179.832 552.584 180.728 552.584 182.536ZM548.424 182.536C548.424 183.688 549.064 184.12 549.848 184.12C550.632 184.12 551.304 183.688 551.304 182.536C551.304 181.384 550.632 180.952 549.848 180.952C549.064 180.952 548.424 181.384 548.424 182.536Z" fill="black" fill-opacity="0.95"/>
<rect x="583" y="84" width="60" height="60" rx="30" fill="white" fill-opacity="0.5"/>
<rect x="583.5" y="84.5" width="59" height="59" rx="29.5" stroke="white" stroke-opacity="0.2"/>
<rect x="588.5" y="164" width="49" height="32" rx="4" fill="white"/>
<path d="M597.316 182.28H598.948C599.156 183.192 599.956 183.944 601.316 183.944C602.692 183.944 603.748 182.984 603.748 181.304C603.748 179.656 602.788 178.76 601.348 178.76C600.58 178.76 599.716 179.064 599.108 179.784H597.748L597.988 173.8H604.868V175.096H599.38L599.252 178.376C599.876 177.88 600.66 177.56 601.7 177.56C603.652 177.56 605.332 178.856 605.332 181.368C605.332 183.448 603.86 185.24 601.3 185.24C598.996 185.24 597.572 183.8 597.316 182.28ZM610.894 185.24C608.622 185.24 606.894 183.384 606.894 179.368C606.894 175.24 608.638 173.56 610.894 173.56C613.15 173.56 614.894 175.24 614.894 179.368C614.894 183.384 613.166 185.24 610.894 185.24ZM610.894 183.96C612.526 183.96 613.326 182.504 613.326 179.368C613.326 176.248 612.526 174.84 610.894 174.84C609.262 174.84 608.462 176.248 608.462 179.368C608.462 182.504 609.262 183.96 610.894 183.96ZM621.704 176.264C621.704 178.072 620.36 178.968 618.968 178.968C617.576 178.968 616.248 178.072 616.248 176.264C616.248 174.456 617.576 173.56 618.968 173.56C620.36 173.56 621.704 174.456 621.704 176.264ZM617.544 176.264C617.544 177.416 618.184 177.848 618.968 177.848C619.752 177.848 620.424 177.416 620.424 176.264C620.424 175.112 619.752 174.68 618.968 174.68C618.184 174.68 617.544 175.112 617.544 176.264ZM626.184 173.8L620.072 185H618.536L624.648 173.8H626.184ZM628.584 182.536C628.584 184.344 627.24 185.24 625.848 185.24C624.456 185.24 623.128 184.344 623.128 182.536C623.128 180.728 624.456 179.832 625.848 179.832C627.24 179.832 628.584 180.728 628.584 182.536ZM624.424 182.536C624.424 183.688 625.064 184.12 625.848 184.12C626.632 184.12 627.304 183.688 627.304 182.536C627.304 181.384 626.632 180.952 625.848 180.952C625.064 180.952 624.424 181.384 624.424 182.536Z" fill="black" fill-opacity="0.95"/>
<rect x="659" y="84" width="60" height="60" rx="30" fill="white" fill-opacity="0.6"/>
<rect x="659.5" y="84.5" width="59" height="59" rx="29.5" stroke="white" stroke-opacity="0.2"/>
<rect x="664.5" y="164" width="49" height="32" rx="4" fill="white"/>
<path d="M681.076 175.928H679.38C679.188 175.256 678.596 174.808 677.684 174.808C676.42 174.808 675.316 175.832 675.14 179.128C675.812 178.056 676.9 177.672 677.812 177.672C680.004 177.672 681.3 179.24 681.3 181.432C681.3 184.008 679.396 185.24 677.556 185.24C674.964 185.24 673.62 183.336 673.62 179.848C673.62 174.824 675.636 173.56 677.7 173.56C679.396 173.56 680.724 174.472 681.076 175.928ZM675.3 181.384C675.3 183.048 676.276 183.96 677.556 183.96C678.772 183.96 679.748 183.08 679.748 181.512C679.748 179.928 678.884 178.952 677.54 178.952C676.036 178.952 675.3 180.088 675.3 181.384ZM686.894 185.24C684.622 185.24 682.894 183.384 682.894 179.368C682.894 175.24 684.638 173.56 686.894 173.56C689.15 173.56 690.894 175.24 690.894 179.368C690.894 183.384 689.166 185.24 686.894 185.24ZM686.894 183.96C688.526 183.96 689.326 182.504 689.326 179.368C689.326 176.248 688.526 174.84 686.894 174.84C685.262 174.84 684.462 176.248 684.462 179.368C684.462 182.504 685.262 183.96 686.894 183.96ZM697.704 176.264C697.704 178.072 696.36 178.968 694.968 178.968C693.576 178.968 692.248 178.072 692.248 176.264C692.248 174.456 693.576 173.56 694.968 173.56C696.36 173.56 697.704 174.456 697.704 176.264ZM693.544 176.264C693.544 177.416 694.184 177.848 694.968 177.848C695.752 177.848 696.424 177.416 696.424 176.264C696.424 175.112 695.752 174.68 694.968 174.68C694.184 174.68 693.544 175.112 693.544 176.264ZM702.184 173.8L696.072 185H694.536L700.648 173.8H702.184ZM704.584 182.536C704.584 184.344 703.24 185.24 701.848 185.24C700.456 185.24 699.128 184.344 699.128 182.536C699.128 180.728 700.456 179.832 701.848 179.832C703.24 179.832 704.584 180.728 704.584 182.536ZM700.424 182.536C700.424 183.688 701.064 184.12 701.848 184.12C702.632 184.12 703.304 183.688 703.304 182.536C703.304 181.384 702.632 180.952 701.848 180.952C701.064 180.952 700.424 181.384 700.424 182.536Z" fill="black" fill-opacity="0.95"/>
<rect x="735" y="84" width="60" height="60" rx="30" fill="white" fill-opacity="0.7"/>
<rect x="735.5" y="84.5" width="59" height="59" rx="29.5" stroke="white" stroke-opacity="0.2"/>
<rect x="740.5" y="164" width="49" height="32" rx="4" fill="white"/>
<path d="M756.82 175.176L752.244 185H750.5L755.188 175.176H749.7V173.8H756.82V175.176ZM762.894 185.24C760.622 185.24 758.894 183.384 758.894 179.368C758.894 175.24 760.638 173.56 762.894 173.56C765.15 173.56 766.894 175.24 766.894 179.368C766.894 183.384 765.166 185.24 762.894 185.24ZM762.894 183.96C764.526 183.96 765.326 182.504 765.326 179.368C765.326 176.248 764.526 174.84 762.894 174.84C761.262 174.84 760.462 176.248 760.462 179.368C760.462 182.504 761.262 183.96 762.894 183.96ZM773.704 176.264C773.704 178.072 772.36 178.968 770.968 178.968C769.576 178.968 768.248 178.072 768.248 176.264C768.248 174.456 769.576 173.56 770.968 173.56C772.36 173.56 773.704 174.456 773.704 176.264ZM769.544 176.264C769.544 177.416 770.184 177.848 770.968 177.848C771.752 177.848 772.424 177.416 772.424 176.264C772.424 175.112 771.752 174.68 770.968 174.68C770.184 174.68 769.544 175.112 769.544 176.264ZM778.184 173.8L772.072 185H770.536L776.648 173.8H778.184ZM780.584 182.536C780.584 184.344 779.24 185.24 777.848 185.24C776.456 185.24 775.128 184.344 775.128 182.536C775.128 180.728 776.456 179.832 777.848 179.832C779.24 179.832 780.584 180.728 780.584 182.536ZM776.424 182.536C776.424 183.688 777.064 184.12 777.848 184.12C778.632 184.12 779.304 183.688 779.304 182.536C779.304 181.384 778.632 180.952 777.848 180.952C777.064 180.952 776.424 181.384 776.424 182.536Z" fill="black" fill-opacity="0.95"/>
<rect x="811" y="84" width="60" height="60" rx="30" fill="white" fill-opacity="0.8"/>
<rect x="811.5" y="84.5" width="59" height="59" rx="29.5" stroke="white" stroke-opacity="0.2"/>
<rect x="816.5" y="164" width="49" height="32" rx="4" fill="white"/>
<path d="M832.964 176.44C832.964 177.72 832.004 178.568 831.124 179.032C832.18 179.496 833.38 180.392 833.38 181.976C833.38 183.88 831.748 185.24 829.3 185.24C826.852 185.24 825.22 183.912 825.22 182.088C825.22 180.376 826.404 179.512 827.412 179.128C826.564 178.728 825.636 177.976 825.636 176.552C825.636 174.488 827.38 173.56 829.3 173.56C831.22 173.56 832.964 174.408 832.964 176.44ZM831.748 181.976C831.748 180.2 830.212 179.88 828.964 179.608C828.036 179.88 826.852 180.568 826.852 181.976C826.852 183.064 827.636 183.976 829.3 183.976C830.932 183.976 831.748 183.144 831.748 181.976ZM827.14 176.472C827.14 178.168 828.66 178.504 829.62 178.632C830.436 178.312 831.428 177.656 831.428 176.472C831.428 175.416 830.468 174.76 829.3 174.76C828.132 174.76 827.14 175.32 827.14 176.472ZM838.894 185.24C836.622 185.24 834.894 183.384 834.894 179.368C834.894 175.24 836.638 173.56 838.894 173.56C841.15 173.56 842.894 175.24 842.894 179.368C842.894 183.384 841.166 185.24 838.894 185.24ZM838.894 183.96C840.526 183.96 841.326 182.504 841.326 179.368C841.326 176.248 840.526 174.84 838.894 174.84C837.262 174.84 836.462 176.248 836.462 179.368C836.462 182.504 837.262 183.96 838.894 183.96ZM849.704 176.264C849.704 178.072 848.36 178.968 846.968 178.968C845.576 178.968 844.248 178.072 844.248 176.264C844.248 174.456 845.576 173.56 846.968 173.56C848.36 173.56 849.704 174.456 849.704 176.264ZM845.544 176.264C845.544 177.416 846.184 177.848 846.968 177.848C847.752 177.848 848.424 177.416 848.424 176.264C848.424 175.112 847.752 174.68 846.968 174.68C846.184 174.68 845.544 175.112 845.544 176.264ZM854.184 173.8L848.072 185H846.536L852.648 173.8H854.184ZM856.584 182.536C856.584 184.344 855.24 185.24 853.848 185.24C852.456 185.24 851.128 184.344 851.128 182.536C851.128 180.728 852.456 179.832 853.848 179.832C855.24 179.832 856.584 180.728 856.584 182.536ZM852.424 182.536C852.424 183.688 853.064 184.12 853.848 184.12C854.632 184.12 855.304 183.688 855.304 182.536C855.304 181.384 854.632 180.952 853.848 180.952C853.064 180.952 852.424 181.384 852.424 182.536Z" fill="black" fill-opacity="0.95"/>
<rect x="887" y="84" width="60" height="60" rx="30" fill="white" fill-opacity="0.9"/>
<rect x="887.5" y="84.5" width="59" height="59" rx="29.5" stroke="white" stroke-opacity="0.2"/>
<rect x="892.5" y="164" width="49" height="32" rx="4" fill="white"/>
<path d="M901.78 182.84H903.476C903.684 183.56 904.292 183.992 905.236 183.992C906.596 183.992 907.604 182.984 907.764 179.688C907.092 180.76 906.004 181.128 905.108 181.128C903.06 181.128 901.62 179.72 901.62 177.368C901.62 175.048 903.236 173.56 905.364 173.56C907.956 173.56 909.3 175.352 909.3 178.952C909.3 183.864 907.396 185.24 905.172 185.24C903.444 185.24 902.148 184.296 901.78 182.84ZM907.62 177.416C907.62 175.752 906.644 174.84 905.364 174.84C904.132 174.84 903.172 175.736 903.172 177.288C903.172 178.968 904.132 179.848 905.38 179.848C906.884 179.848 907.62 178.712 907.62 177.416ZM914.894 185.24C912.622 185.24 910.894 183.384 910.894 179.368C910.894 175.24 912.638 173.56 914.894 173.56C917.15 173.56 918.894 175.24 918.894 179.368C918.894 183.384 917.166 185.24 914.894 185.24ZM914.894 183.96C916.526 183.96 917.326 182.504 917.326 179.368C917.326 176.248 916.526 174.84 914.894 174.84C913.262 174.84 912.462 176.248 912.462 179.368C912.462 182.504 913.262 183.96 914.894 183.96ZM925.704 176.264C925.704 178.072 924.36 178.968 922.968 178.968C921.576 178.968 920.248 178.072 920.248 176.264C920.248 174.456 921.576 173.56 922.968 173.56C924.36 173.56 925.704 174.456 925.704 176.264ZM921.544 176.264C921.544 177.416 922.184 177.848 922.968 177.848C923.752 177.848 924.424 177.416 924.424 176.264C924.424 175.112 923.752 174.68 922.968 174.68C922.184 174.68 921.544 175.112 921.544 176.264ZM930.184 173.8L924.072 185H922.536L928.648 173.8H930.184ZM932.584 182.536C932.584 184.344 931.24 185.24 929.848 185.24C928.456 185.24 927.128 184.344 927.128 182.536C927.128 180.728 928.456 179.832 929.848 179.832C931.24 179.832 932.584 180.728 932.584 182.536ZM928.424 182.536C928.424 183.688 929.064 184.12 929.848 184.12C930.632 184.12 931.304 183.688 931.304 182.536C931.304 181.384 930.632 180.952 929.848 180.952C929.064 180.952 928.424 181.384 928.424 182.536Z" fill="black" fill-opacity="0.95"/>
<rect x="963" y="84" width="60" height="60" rx="30" fill="white" fill-opacity="0.95"/>
<rect x="963.5" y="84.5" width="59" height="59" rx="29.5" stroke="white" stroke-opacity="0.2"/>
<rect x="968.5" y="164" width="49" height="32" rx="4" fill="white"/>
<path d="M977.78 182.84H979.476C979.684 183.56 980.292 183.992 981.236 183.992C982.596 183.992 983.604 182.984 983.764 179.688C983.092 180.76 982.004 181.128 981.108 181.128C979.06 181.128 977.62 179.72 977.62 177.368C977.62 175.048 979.236 173.56 981.364 173.56C983.956 173.56 985.3 175.352 985.3 178.952C985.3 183.864 983.396 185.24 981.172 185.24C979.444 185.24 978.148 184.296 977.78 182.84ZM983.62 177.416C983.62 175.752 982.644 174.84 981.364 174.84C980.132 174.84 979.172 175.736 979.172 177.288C979.172 178.968 980.132 179.848 981.38 179.848C982.884 179.848 983.62 178.712 983.62 177.416ZM986.91 182.28H988.542C988.75 183.192 989.55 183.944 990.91 183.944C992.286 183.944 993.342 182.984 993.342 181.304C993.342 179.656 992.382 178.76 990.942 178.76C990.174 178.76 989.31 179.064 988.702 179.784H987.342L987.582 173.8H994.462V175.096H988.974L988.846 178.376C989.47 177.88 990.254 177.56 991.294 177.56C993.246 177.56 994.926 178.856 994.926 181.368C994.926 183.448 993.454 185.24 990.894 185.24C988.59 185.24 987.166 183.8 986.91 182.28ZM1001.7 176.264C1001.7 178.072 1000.36 178.968 998.968 178.968C997.576 178.968 996.248 178.072 996.248 176.264C996.248 174.456 997.576 173.56 998.968 173.56C1000.36 173.56 1001.7 174.456 1001.7 176.264ZM997.544 176.264C997.544 177.416 998.184 177.848 998.968 177.848C999.752 177.848 1000.42 177.416 1000.42 176.264C1000.42 175.112 999.752 174.68 998.968 174.68C998.184 174.68 997.544 175.112 997.544 176.264ZM1006.18 173.8L1000.07 185H998.536L1004.65 173.8H1006.18ZM1008.58 182.536C1008.58 184.344 1007.24 185.24 1005.85 185.24C1004.46 185.24 1003.13 184.344 1003.13 182.536C1003.13 180.728 1004.46 179.832 1005.85 179.832C1007.24 179.832 1008.58 180.728 1008.58 182.536ZM1004.42 182.536C1004.42 183.688 1005.06 184.12 1005.85 184.12C1006.63 184.12 1007.3 183.688 1007.3 182.536C1007.3 181.384 1006.63 180.952 1005.85 180.952C1005.06 180.952 1004.42 181.384 1004.42 182.536Z" fill="black" fill-opacity="0.95"/>
<rect x="1039" y="84" width="60" height="60" rx="30" fill="white"/>
<rect x="1039.5" y="84.5" width="59" height="59" rx="29.5" stroke="white" stroke-opacity="0.2"/>
<rect x="1039.5" y="164" width="59" height="32" rx="4" fill="white"/>
<path d="M1053.66 185H1052.14V175.4L1049.63 176.696V175.112L1052.16 173.8H1053.66V185ZM1061.89 185.24C1059.62 185.24 1057.89 183.384 1057.89 179.368C1057.89 175.24 1059.64 173.56 1061.89 173.56C1064.15 173.56 1065.89 175.24 1065.89 179.368C1065.89 183.384 1064.17 185.24 1061.89 185.24ZM1061.89 183.96C1063.53 183.96 1064.33 182.504 1064.33 179.368C1064.33 176.248 1063.53 174.84 1061.89 174.84C1060.26 174.84 1059.46 176.248 1059.46 179.368C1059.46 182.504 1060.26 183.96 1061.89 183.96ZM1071.49 185.24C1069.22 185.24 1067.49 183.384 1067.49 179.368C1067.49 175.24 1069.23 173.56 1071.49 173.56C1073.74 173.56 1075.49 175.24 1075.49 179.368C1075.49 183.384 1073.76 185.24 1071.49 185.24ZM1071.49 183.96C1073.12 183.96 1073.92 182.504 1073.92 179.368C1073.92 176.248 1073.12 174.84 1071.49 174.84C1069.86 174.84 1069.06 176.248 1069.06 179.368C1069.06 182.504 1069.86 183.96 1071.49 183.96ZM1082.3 176.264C1082.3 178.072 1080.95 178.968 1079.56 178.968C1078.17 178.968 1076.84 178.072 1076.84 176.264C1076.84 174.456 1078.17 173.56 1079.56 173.56C1080.95 173.56 1082.3 174.456 1082.3 176.264ZM1078.14 176.264C1078.14 177.416 1078.78 177.848 1079.56 177.848C1080.35 177.848 1081.02 177.416 1081.02 176.264C1081.02 175.112 1080.35 174.68 1079.56 174.68C1078.78 174.68 1078.14 175.112 1078.14 176.264ZM1086.78 173.8L1080.67 185H1079.13L1085.24 173.8H1086.78ZM1089.18 182.536C1089.18 184.344 1087.83 185.24 1086.44 185.24C1085.05 185.24 1083.72 184.344 1083.72 182.536C1083.72 180.728 1085.05 179.832 1086.44 179.832C1087.83 179.832 1089.18 180.728 1089.18 182.536ZM1085.02 182.536C1085.02 183.688 1085.66 184.12 1086.44 184.12C1087.23 184.12 1087.9 183.688 1087.9 182.536C1087.9 181.384 1087.23 180.952 1086.44 180.952C1085.66 180.952 1085.02 181.384 1085.02 182.536Z" fill="black" fill-opacity="0.95"/>
<path d="M41.0114 272V260.364H45.6705C46.5265 260.364 47.2405 260.491 47.8125 260.744C48.3845 260.998 48.8144 261.35 49.1023 261.801C49.3902 262.248 49.5341 262.763 49.5341 263.347C49.5341 263.801 49.4432 264.201 49.2614 264.545C49.0795 264.886 48.8295 265.167 48.5114 265.386C48.197 265.602 47.8371 265.756 47.4318 265.847V265.96C47.875 265.979 48.2898 266.104 48.6761 266.335C49.0663 266.566 49.3826 266.89 49.625 267.307C49.8674 267.72 49.9886 268.212 49.9886 268.784C49.9886 269.402 49.8352 269.953 49.5284 270.438C49.2254 270.919 48.7765 271.299 48.1818 271.58C47.5871 271.86 46.8542 272 45.983 272H41.0114ZM43.4716 269.989H45.4773C46.1629 269.989 46.6629 269.858 46.9773 269.597C47.2917 269.331 47.4489 268.979 47.4489 268.54C47.4489 268.218 47.3712 267.934 47.2159 267.688C47.0606 267.441 46.839 267.248 46.5511 267.108C46.267 266.968 45.928 266.898 45.5341 266.898H43.4716V269.989ZM43.4716 265.233H45.2955C45.6326 265.233 45.9318 265.174 46.1932 265.057C46.4583 264.936 46.6667 264.765 46.8182 264.545C46.9735 264.326 47.0511 264.062 47.0511 263.756C47.0511 263.335 46.9015 262.996 46.6023 262.739C46.3068 262.481 45.8864 262.352 45.3409 262.352H43.4716V265.233ZM52.2295 272V260.364H54.6897V269.972H59.6784V272H52.2295ZM64.2502 272H61.6138L65.6309 260.364H68.8013L72.8127 272H70.1763L67.2615 263.023H67.1706L64.2502 272ZM64.0854 267.426H70.3127V269.347H64.0854V267.426ZM84.5734 264.438H82.0848C82.0393 264.116 81.9465 263.83 81.8064 263.58C81.6662 263.326 81.4863 263.11 81.2666 262.932C81.0469 262.754 80.7931 262.617 80.5052 262.523C80.2211 262.428 79.9124 262.381 79.5791 262.381C78.9768 262.381 78.4522 262.53 78.0052 262.83C77.5583 263.125 77.2117 263.557 76.9655 264.125C76.7192 264.689 76.5961 265.375 76.5961 266.182C76.5961 267.011 76.7192 267.708 76.9655 268.273C77.2155 268.837 77.5639 269.263 78.0109 269.551C78.4579 269.839 78.9749 269.983 79.562 269.983C79.8916 269.983 80.1965 269.939 80.4768 269.852C80.7609 269.765 81.0128 269.638 81.2325 269.472C81.4522 269.301 81.634 269.095 81.778 268.852C81.9257 268.61 82.028 268.333 82.0848 268.023L84.5734 268.034C84.509 268.568 84.348 269.083 84.0905 269.58C83.8367 270.072 83.4939 270.513 83.062 270.903C82.634 271.29 82.1226 271.597 81.528 271.824C80.937 272.047 80.2685 272.159 79.5223 272.159C78.4844 272.159 77.5564 271.924 76.7382 271.455C75.9238 270.985 75.2798 270.305 74.8064 269.415C74.3367 268.525 74.1018 267.447 74.1018 266.182C74.1018 264.913 74.3405 263.833 74.8177 262.943C75.295 262.053 75.9427 261.375 76.7609 260.909C77.5791 260.439 78.4995 260.205 79.5223 260.205C80.1965 260.205 80.8215 260.299 81.3973 260.489C81.9768 260.678 82.4901 260.955 82.937 261.318C83.384 261.678 83.7476 262.119 84.028 262.642C84.312 263.165 84.4939 263.763 84.5734 264.438ZM86.9776 272V260.364H89.4378V265.494H89.5913L93.7788 260.364H96.7276L92.4094 265.574L96.7788 272H93.8356L90.6481 267.216L89.4378 268.693V272H86.9776ZM103.338 265.222V267.142H98.031V265.222H103.338ZM108.091 272H105.455L109.472 260.364H112.643L116.654 272H114.018L111.103 263.023H111.012L108.091 272ZM107.927 267.426H114.154V269.347H107.927V267.426ZM118.694 272V260.364H121.155V269.972H126.143V272H118.694ZM128.413 272V260.364H133.004C133.886 260.364 134.638 260.532 135.259 260.869C135.88 261.203 136.354 261.667 136.68 262.261C137.009 262.852 137.174 263.534 137.174 264.307C137.174 265.08 137.007 265.761 136.674 266.352C136.341 266.943 135.858 267.403 135.225 267.733C134.596 268.062 133.835 268.227 132.941 268.227H130.015V266.256H132.543C133.017 266.256 133.407 266.174 133.714 266.011C134.024 265.845 134.255 265.616 134.407 265.324C134.562 265.028 134.64 264.689 134.64 264.307C134.64 263.92 134.562 263.583 134.407 263.295C134.255 263.004 134.024 262.778 133.714 262.619C133.403 262.456 133.009 262.375 132.532 262.375H130.873V272H128.413ZM139.412 272V260.364H141.872V265.165H146.867V260.364H149.321V272H146.867V267.193H141.872V272H139.412ZM153.995 272H151.359L155.376 260.364H158.546L162.558 272H159.921L157.007 263.023H156.916L153.995 272ZM153.83 267.426H160.058V269.347H153.83V267.426Z" fill="white"/>
<rect x="51.5" y="298.5" width="59" height="59" rx="29.5" stroke="white" stroke-opacity="0.2"/>
<rect x="61" y="378" width="40" height="32" rx="4" fill="white"/>
<rect x="61.5" y="378.5" width="39" height="31" rx="3.5" stroke="white" stroke-opacity="0.2"/>
<path d="M73.8 399.24C71.528 399.24 69.8 397.384 69.8 393.368C69.8 389.24 71.544 387.56 73.8 387.56C76.056 387.56 77.8 389.24 77.8 393.368C77.8 397.384 76.072 399.24 73.8 399.24ZM73.8 397.96C75.432 397.96 76.232 396.504 76.232 393.368C76.232 390.248 75.432 388.84 73.8 388.84C72.168 388.84 71.368 390.248 71.368 393.368C71.368 396.504 72.168 397.96 73.8 397.96ZM84.6098 390.264C84.6098 392.072 83.2658 392.968 81.8738 392.968C80.4818 392.968 79.1538 392.072 79.1538 390.264C79.1538 388.456 80.4818 387.56 81.8738 387.56C83.2658 387.56 84.6098 388.456 84.6098 390.264ZM80.4498 390.264C80.4498 391.416 81.0898 391.848 81.8738 391.848C82.6578 391.848 83.3298 391.416 83.3298 390.264C83.3298 389.112 82.6578 388.68 81.8738 388.68C81.0898 388.68 80.4498 389.112 80.4498 390.264ZM89.0898 387.8L82.9778 399H81.4418L87.5538 387.8H89.0898ZM91.4898 396.536C91.4898 398.344 90.1458 399.24 88.7538 399.24C87.3618 399.24 86.0338 398.344 86.0338 396.536C86.0338 394.728 87.3618 393.832 88.7538 393.832C90.1458 393.832 91.4898 394.728 91.4898 396.536ZM87.3298 396.536C87.3298 397.688 87.9698 398.12 88.7538 398.12C89.5378 398.12 90.2098 397.688 90.2098 396.536C90.2098 395.384 89.5378 394.952 88.7538 394.952C87.9698 394.952 87.3298 395.384 87.3298 396.536Z" fill="black" fill-opacity="0.95"/>
<rect x="127" y="298" width="60" height="60" rx="30" fill="black" fill-opacity="0.04"/>
<rect x="127.5" y="298.5" width="59" height="59" rx="29.5" stroke="white" stroke-opacity="0.2"/>
<rect x="137" y="378" width="40" height="32" rx="4" fill="white"/>
<path d="M150.504 387.8H152.104V395.576H153.912V396.888H152.104V399H150.616V396.888H145.704V395.464L150.504 387.8ZM147.416 395.576H150.616V390.28L147.416 395.576ZM160.61 390.264C160.61 392.072 159.266 392.968 157.874 392.968C156.482 392.968 155.154 392.072 155.154 390.264C155.154 388.456 156.482 387.56 157.874 387.56C159.266 387.56 160.61 388.456 160.61 390.264ZM156.45 390.264C156.45 391.416 157.09 391.848 157.874 391.848C158.658 391.848 159.33 391.416 159.33 390.264C159.33 389.112 158.658 388.68 157.874 388.68C157.09 388.68 156.45 389.112 156.45 390.264ZM165.09 387.8L158.978 399H157.442L163.554 387.8H165.09ZM167.49 396.536C167.49 398.344 166.146 399.24 164.754 399.24C163.362 399.24 162.034 398.344 162.034 396.536C162.034 394.728 163.362 393.832 164.754 393.832C166.146 393.832 167.49 394.728 167.49 396.536ZM163.33 396.536C163.33 397.688 163.97 398.12 164.754 398.12C165.538 398.12 166.21 397.688 166.21 396.536C166.21 395.384 165.538 394.952 164.754 394.952C163.97 394.952 163.33 395.384 163.33 396.536Z" fill="black" fill-opacity="0.95"/>
<rect x="203" y="298" width="60" height="60" rx="30" fill="black" fill-opacity="0.07"/>
<rect x="203.5" y="298.5" width="59" height="59" rx="29.5" stroke="white" stroke-opacity="0.2"/>
<rect x="213" y="378" width="40" height="32" rx="4" fill="white"/>
<path d="M229.32 389.176L224.744 399H223L227.688 389.176H222.2V387.8H229.32V389.176ZM236.61 390.264C236.61 392.072 235.266 392.968 233.874 392.968C232.482 392.968 231.154 392.072 231.154 390.264C231.154 388.456 232.482 387.56 233.874 387.56C235.266 387.56 236.61 388.456 236.61 390.264ZM232.45 390.264C232.45 391.416 233.09 391.848 233.874 391.848C234.658 391.848 235.33 391.416 235.33 390.264C235.33 389.112 234.658 388.68 233.874 388.68C233.09 388.68 232.45 389.112 232.45 390.264ZM241.09 387.8L234.978 399H233.442L239.554 387.8H241.09ZM243.49 396.536C243.49 398.344 242.146 399.24 240.754 399.24C239.362 399.24 238.034 398.344 238.034 396.536C238.034 394.728 239.362 393.832 240.754 393.832C242.146 393.832 243.49 394.728 243.49 396.536ZM239.33 396.536C239.33 397.688 239.97 398.12 240.754 398.12C241.538 398.12 242.21 397.688 242.21 396.536C242.21 395.384 241.538 394.952 240.754 394.952C239.97 394.952 239.33 395.384 239.33 396.536Z" fill="black" fill-opacity="0.95"/>
<rect x="279" y="298" width="60" height="60" rx="30" fill="black" fill-opacity="0.11"/>
<rect x="279.5" y="298.5" width="59" height="59" rx="29.5" stroke="white" stroke-opacity="0.2"/>
<rect x="284.5" y="378" width="49" height="32" rx="4" fill="white"/>
<path d="M298.66 399H297.14V389.4L294.628 390.696V389.112L297.156 387.8H298.66V399ZM308.254 399H306.734V389.4L304.222 390.696V389.112L306.75 387.8H308.254V399ZM317.704 390.264C317.704 392.072 316.36 392.968 314.968 392.968C313.576 392.968 312.248 392.072 312.248 390.264C312.248 388.456 313.576 387.56 314.968 387.56C316.36 387.56 317.704 388.456 317.704 390.264ZM313.544 390.264C313.544 391.416 314.184 391.848 314.968 391.848C315.752 391.848 316.424 391.416 316.424 390.264C316.424 389.112 315.752 388.68 314.968 388.68C314.184 388.68 313.544 389.112 313.544 390.264ZM322.184 387.8L316.072 399H314.536L320.648 387.8H322.184ZM324.584 396.536C324.584 398.344 323.24 399.24 321.848 399.24C320.456 399.24 319.128 398.344 319.128 396.536C319.128 394.728 320.456 393.832 321.848 393.832C323.24 393.832 324.584 394.728 324.584 396.536ZM320.424 396.536C320.424 397.688 321.064 398.12 321.848 398.12C322.632 398.12 323.304 397.688 323.304 396.536C323.304 395.384 322.632 394.952 321.848 394.952C321.064 394.952 320.424 395.384 320.424 396.536Z" fill="black" fill-opacity="0.95"/>
<rect x="355" y="298" width="60" height="60" rx="30" fill="black" fill-opacity="0.2"/>
<rect x="355.5" y="298.5" width="59" height="59" rx="29.5" stroke="white" stroke-opacity="0.2"/>
<rect x="360.5" y="378" width="49" height="32" rx="4" fill="white"/>
<path d="M371.076 390.728H369.46C369.7 388.936 371.188 387.56 373.396 387.56C375.476 387.56 377.044 388.776 377.044 390.744C377.044 392.264 376.388 393.24 374.372 395.16L371.812 397.592H376.996V399H369.732V397.592L373.38 394.088C374.9 392.632 375.476 391.848 375.476 390.76C375.476 389.624 374.692 388.856 373.364 388.856C372.1 388.856 371.204 389.56 371.076 390.728ZM382.894 399.24C380.622 399.24 378.894 397.384 378.894 393.368C378.894 389.24 380.638 387.56 382.894 387.56C385.15 387.56 386.894 389.24 386.894 393.368C386.894 397.384 385.166 399.24 382.894 399.24ZM382.894 397.96C384.526 397.96 385.326 396.504 385.326 393.368C385.326 390.248 384.526 388.84 382.894 388.84C381.262 388.84 380.462 390.248 380.462 393.368C380.462 396.504 381.262 397.96 382.894 397.96ZM393.704 390.264C393.704 392.072 392.36 392.968 390.968 392.968C389.576 392.968 388.248 392.072 388.248 390.264C388.248 388.456 389.576 387.56 390.968 387.56C392.36 387.56 393.704 388.456 393.704 390.264ZM389.544 390.264C389.544 391.416 390.184 391.848 390.968 391.848C391.752 391.848 392.424 391.416 392.424 390.264C392.424 389.112 391.752 388.68 390.968 388.68C390.184 388.68 389.544 389.112 389.544 390.264ZM398.184 387.8L392.072 399H390.536L396.648 387.8H398.184ZM400.584 396.536C400.584 398.344 399.24 399.24 397.848 399.24C396.456 399.24 395.128 398.344 395.128 396.536C395.128 394.728 396.456 393.832 397.848 393.832C399.24 393.832 400.584 394.728 400.584 396.536ZM396.424 396.536C396.424 397.688 397.064 398.12 397.848 398.12C398.632 398.12 399.304 397.688 399.304 396.536C399.304 395.384 398.632 394.952 397.848 394.952C397.064 394.952 396.424 395.384 396.424 396.536Z" fill="black" fill-opacity="0.95"/>
<rect x="431" y="298" width="60" height="60" rx="30" fill="black" fill-opacity="0.3"/>
<rect x="431.5" y="298.5" width="59" height="59" rx="29.5" stroke="white" stroke-opacity="0.2"/>
<rect x="436.5" y="378" width="49" height="32" rx="4" fill="white"/>
<path d="M446.932 390.44H445.316C445.588 388.696 447.14 387.56 449.268 387.56C451.14 387.56 452.9 388.488 452.9 390.488C452.9 391.704 452.052 392.68 450.884 393.048C452.148 393.32 453.284 394.264 453.284 395.944C453.284 397.864 451.716 399.224 449.316 399.224C446.964 399.224 445.54 398.008 445.284 396.216H446.916C447.172 397.336 447.924 397.944 449.284 397.944C450.82 397.944 451.716 397.112 451.716 395.912C451.716 394.376 450.532 393.8 449.508 393.8H448.58V392.472H449.476C450.324 392.472 451.332 391.896 451.332 390.6C451.332 389.4 450.276 388.84 449.188 388.84C447.94 388.84 447.092 389.48 446.932 390.44ZM458.894 399.24C456.622 399.24 454.894 397.384 454.894 393.368C454.894 389.24 456.638 387.56 458.894 387.56C461.15 387.56 462.894 389.24 462.894 393.368C462.894 397.384 461.166 399.24 458.894 399.24ZM458.894 397.96C460.526 397.96 461.326 396.504 461.326 393.368C461.326 390.248 460.526 388.84 458.894 388.84C457.262 388.84 456.462 390.248 456.462 393.368C456.462 396.504 457.262 397.96 458.894 397.96ZM469.704 390.264C469.704 392.072 468.36 392.968 466.968 392.968C465.576 392.968 464.248 392.072 464.248 390.264C464.248 388.456 465.576 387.56 466.968 387.56C468.36 387.56 469.704 388.456 469.704 390.264ZM465.544 390.264C465.544 391.416 466.184 391.848 466.968 391.848C467.752 391.848 468.424 391.416 468.424 390.264C468.424 389.112 467.752 388.68 466.968 388.68C466.184 388.68 465.544 389.112 465.544 390.264ZM474.184 387.8L468.072 399H466.536L472.648 387.8H474.184ZM476.584 396.536C476.584 398.344 475.24 399.24 473.848 399.24C472.456 399.24 471.128 398.344 471.128 396.536C471.128 394.728 472.456 393.832 473.848 393.832C475.24 393.832 476.584 394.728 476.584 396.536ZM472.424 396.536C472.424 397.688 473.064 398.12 473.848 398.12C474.632 398.12 475.304 397.688 475.304 396.536C475.304 395.384 474.632 394.952 473.848 394.952C473.064 394.952 472.424 395.384 472.424 396.536Z" fill="black" fill-opacity="0.95"/>
<rect x="507" y="298" width="60" height="60" rx="30" fill="black" fill-opacity="0.4"/>
<rect x="507.5" y="298.5" width="59" height="59" rx="29.5" stroke="white" stroke-opacity="0.2"/>
<rect x="512.5" y="378" width="49" height="32" rx="4" fill="white"/>
<path d="M526.004 387.8H527.604V395.576H529.412V396.888H527.604V399H526.116V396.888H521.204V395.464L526.004 387.8ZM522.916 395.576H526.116V390.28L522.916 395.576ZM534.894 399.24C532.622 399.24 530.894 397.384 530.894 393.368C530.894 389.24 532.638 387.56 534.894 387.56C537.15 387.56 538.894 389.24 538.894 393.368C538.894 397.384 537.166 399.24 534.894 399.24ZM534.894 397.96C536.526 397.96 537.326 396.504 537.326 393.368C537.326 390.248 536.526 388.84 534.894 388.84C533.262 388.84 532.462 390.248 532.462 393.368C532.462 396.504 533.262 397.96 534.894 397.96ZM545.704 390.264C545.704 392.072 544.36 392.968 542.968 392.968C541.576 392.968 540.248 392.072 540.248 390.264C540.248 388.456 541.576 387.56 542.968 387.56C544.36 387.56 545.704 388.456 545.704 390.264ZM541.544 390.264C541.544 391.416 542.184 391.848 542.968 391.848C543.752 391.848 544.424 391.416 544.424 390.264C544.424 389.112 543.752 388.68 542.968 388.68C542.184 388.68 541.544 389.112 541.544 390.264ZM550.184 387.8L544.072 399H542.536L548.648 387.8H550.184ZM552.584 396.536C552.584 398.344 551.24 399.24 549.848 399.24C548.456 399.24 547.128 398.344 547.128 396.536C547.128 394.728 548.456 393.832 549.848 393.832C551.24 393.832 552.584 394.728 552.584 396.536ZM548.424 396.536C548.424 397.688 549.064 398.12 549.848 398.12C550.632 398.12 551.304 397.688 551.304 396.536C551.304 395.384 550.632 394.952 549.848 394.952C549.064 394.952 548.424 395.384 548.424 396.536Z" fill="black" fill-opacity="0.95"/>
<rect x="583" y="298" width="60" height="60" rx="30" fill="black" fill-opacity="0.5"/>
<rect x="583.5" y="298.5" width="59" height="59" rx="29.5" stroke="white" stroke-opacity="0.2"/>
<rect x="588.5" y="378" width="49" height="32" rx="4" fill="white"/>
<path d="M597.316 396.28H598.948C599.156 397.192 599.956 397.944 601.316 397.944C602.692 397.944 603.748 396.984 603.748 395.304C603.748 393.656 602.788 392.76 601.348 392.76C600.58 392.76 599.716 393.064 599.108 393.784H597.748L597.988 387.8H604.868V389.096H599.38L599.252 392.376C599.876 391.88 600.66 391.56 601.7 391.56C603.652 391.56 605.332 392.856 605.332 395.368C605.332 397.448 603.86 399.24 601.3 399.24C598.996 399.24 597.572 397.8 597.316 396.28ZM610.894 399.24C608.622 399.24 606.894 397.384 606.894 393.368C606.894 389.24 608.638 387.56 610.894 387.56C613.15 387.56 614.894 389.24 614.894 393.368C614.894 397.384 613.166 399.24 610.894 399.24ZM610.894 397.96C612.526 397.96 613.326 396.504 613.326 393.368C613.326 390.248 612.526 388.84 610.894 388.84C609.262 388.84 608.462 390.248 608.462 393.368C608.462 396.504 609.262 397.96 610.894 397.96ZM621.704 390.264C621.704 392.072 620.36 392.968 618.968 392.968C617.576 392.968 616.248 392.072 616.248 390.264C616.248 388.456 617.576 387.56 618.968 387.56C620.36 387.56 621.704 388.456 621.704 390.264ZM617.544 390.264C617.544 391.416 618.184 391.848 618.968 391.848C619.752 391.848 620.424 391.416 620.424 390.264C620.424 389.112 619.752 388.68 618.968 388.68C618.184 388.68 617.544 389.112 617.544 390.264ZM626.184 387.8L620.072 399H618.536L624.648 387.8H626.184ZM628.584 396.536C628.584 398.344 627.24 399.24 625.848 399.24C624.456 399.24 623.128 398.344 623.128 396.536C623.128 394.728 624.456 393.832 625.848 393.832C627.24 393.832 628.584 394.728 628.584 396.536ZM624.424 396.536C624.424 397.688 625.064 398.12 625.848 398.12C626.632 398.12 627.304 397.688 627.304 396.536C627.304 395.384 626.632 394.952 625.848 394.952C625.064 394.952 624.424 395.384 624.424 396.536Z" fill="black" fill-opacity="0.95"/>
<rect x="659" y="298" width="60" height="60" rx="30" fill="black" fill-opacity="0.6"/>
<rect x="659.5" y="298.5" width="59" height="59" rx="29.5" stroke="white" stroke-opacity="0.2"/>
<rect x="664.5" y="378" width="49" height="32" rx="4" fill="white"/>
<path d="M681.076 389.928H679.38C679.188 389.256 678.596 388.808 677.684 388.808C676.42 388.808 675.316 389.832 675.14 393.128C675.812 392.056 676.9 391.672 677.812 391.672C680.004 391.672 681.3 393.24 681.3 395.432C681.3 398.008 679.396 399.24 677.556 399.24C674.964 399.24 673.62 397.336 673.62 393.848C673.62 388.824 675.636 387.56 677.7 387.56C679.396 387.56 680.724 388.472 681.076 389.928ZM675.3 395.384C675.3 397.048 676.276 397.96 677.556 397.96C678.772 397.96 679.748 397.08 679.748 395.512C679.748 393.928 678.884 392.952 677.54 392.952C676.036 392.952 675.3 394.088 675.3 395.384ZM686.894 399.24C684.622 399.24 682.894 397.384 682.894 393.368C682.894 389.24 684.638 387.56 686.894 387.56C689.15 387.56 690.894 389.24 690.894 393.368C690.894 397.384 689.166 399.24 686.894 399.24ZM686.894 397.96C688.526 397.96 689.326 396.504 689.326 393.368C689.326 390.248 688.526 388.84 686.894 388.84C685.262 388.84 684.462 390.248 684.462 393.368C684.462 396.504 685.262 397.96 686.894 397.96ZM697.704 390.264C697.704 392.072 696.36 392.968 694.968 392.968C693.576 392.968 692.248 392.072 692.248 390.264C692.248 388.456 693.576 387.56 694.968 387.56C696.36 387.56 697.704 388.456 697.704 390.264ZM693.544 390.264C693.544 391.416 694.184 391.848 694.968 391.848C695.752 391.848 696.424 391.416 696.424 390.264C696.424 389.112 695.752 388.68 694.968 388.68C694.184 388.68 693.544 389.112 693.544 390.264ZM702.184 387.8L696.072 399H694.536L700.648 387.8H702.184ZM704.584 396.536C704.584 398.344 703.24 399.24 701.848 399.24C700.456 399.24 699.128 398.344 699.128 396.536C699.128 394.728 700.456 393.832 701.848 393.832C703.24 393.832 704.584 394.728 704.584 396.536ZM700.424 396.536C700.424 397.688 701.064 398.12 701.848 398.12C702.632 398.12 703.304 397.688 703.304 396.536C703.304 395.384 702.632 394.952 701.848 394.952C701.064 394.952 700.424 395.384 700.424 396.536Z" fill="black" fill-opacity="0.95"/>
<rect x="735" y="298" width="60" height="60" rx="30" fill="black" fill-opacity="0.7"/>
<rect x="735.5" y="298.5" width="59" height="59" rx="29.5" stroke="white" stroke-opacity="0.2"/>
<rect x="740.5" y="378" width="49" height="32" rx="4" fill="white"/>
<path d="M756.82 389.176L752.244 399H750.5L755.188 389.176H749.7V387.8H756.82V389.176ZM762.894 399.24C760.622 399.24 758.894 397.384 758.894 393.368C758.894 389.24 760.638 387.56 762.894 387.56C765.15 387.56 766.894 389.24 766.894 393.368C766.894 397.384 765.166 399.24 762.894 399.24ZM762.894 397.96C764.526 397.96 765.326 396.504 765.326 393.368C765.326 390.248 764.526 388.84 762.894 388.84C761.262 388.84 760.462 390.248 760.462 393.368C760.462 396.504 761.262 397.96 762.894 397.96ZM773.704 390.264C773.704 392.072 772.36 392.968 770.968 392.968C769.576 392.968 768.248 392.072 768.248 390.264C768.248 388.456 769.576 387.56 770.968 387.56C772.36 387.56 773.704 388.456 773.704 390.264ZM769.544 390.264C769.544 391.416 770.184 391.848 770.968 391.848C771.752 391.848 772.424 391.416 772.424 390.264C772.424 389.112 771.752 388.68 770.968 388.68C770.184 388.68 769.544 389.112 769.544 390.264ZM778.184 387.8L772.072 399H770.536L776.648 387.8H778.184ZM780.584 396.536C780.584 398.344 779.24 399.24 777.848 399.24C776.456 399.24 775.128 398.344 775.128 396.536C775.128 394.728 776.456 393.832 777.848 393.832C779.24 393.832 780.584 394.728 780.584 396.536ZM776.424 396.536C776.424 397.688 777.064 398.12 777.848 398.12C778.632 398.12 779.304 397.688 779.304 396.536C779.304 395.384 778.632 394.952 777.848 394.952C777.064 394.952 776.424 395.384 776.424 396.536Z" fill="black" fill-opacity="0.95"/>
<rect x="811" y="298" width="60" height="60" rx="30" fill="black" fill-opacity="0.8"/>
<rect x="811.5" y="298.5" width="59" height="59" rx="29.5" stroke="white" stroke-opacity="0.2"/>
<rect x="816.5" y="378" width="49" height="32" rx="4" fill="white"/>
<path d="M832.964 390.44C832.964 391.72 832.004 392.568 831.124 393.032C832.18 393.496 833.38 394.392 833.38 395.976C833.38 397.88 831.748 399.24 829.3 399.24C826.852 399.24 825.22 397.912 825.22 396.088C825.22 394.376 826.404 393.512 827.412 393.128C826.564 392.728 825.636 391.976 825.636 390.552C825.636 388.488 827.38 387.56 829.3 387.56C831.22 387.56 832.964 388.408 832.964 390.44ZM831.748 395.976C831.748 394.2 830.212 393.88 828.964 393.608C828.036 393.88 826.852 394.568 826.852 395.976C826.852 397.064 827.636 397.976 829.3 397.976C830.932 397.976 831.748 397.144 831.748 395.976ZM827.14 390.472C827.14 392.168 828.66 392.504 829.62 392.632C830.436 392.312 831.428 391.656 831.428 390.472C831.428 389.416 830.468 388.76 829.3 388.76C828.132 388.76 827.14 389.32 827.14 390.472ZM838.894 399.24C836.622 399.24 834.894 397.384 834.894 393.368C834.894 389.24 836.638 387.56 838.894 387.56C841.15 387.56 842.894 389.24 842.894 393.368C842.894 397.384 841.166 399.24 838.894 399.24ZM838.894 397.96C840.526 397.96 841.326 396.504 841.326 393.368C841.326 390.248 840.526 388.84 838.894 388.84C837.262 388.84 836.462 390.248 836.462 393.368C836.462 396.504 837.262 397.96 838.894 397.96ZM849.704 390.264C849.704 392.072 848.36 392.968 846.968 392.968C845.576 392.968 844.248 392.072 844.248 390.264C844.248 388.456 845.576 387.56 846.968 387.56C848.36 387.56 849.704 388.456 849.704 390.264ZM845.544 390.264C845.544 391.416 846.184 391.848 846.968 391.848C847.752 391.848 848.424 391.416 848.424 390.264C848.424 389.112 847.752 388.68 846.968 388.68C846.184 388.68 845.544 389.112 845.544 390.264ZM854.184 387.8L848.072 399H846.536L852.648 387.8H854.184ZM856.584 396.536C856.584 398.344 855.24 399.24 853.848 399.24C852.456 399.24 851.128 398.344 851.128 396.536C851.128 394.728 852.456 393.832 853.848 393.832C855.24 393.832 856.584 394.728 856.584 396.536ZM852.424 396.536C852.424 397.688 853.064 398.12 853.848 398.12C854.632 398.12 855.304 397.688 855.304 396.536C855.304 395.384 854.632 394.952 853.848 394.952C853.064 394.952 852.424 395.384 852.424 396.536Z" fill="black" fill-opacity="0.95"/>
<rect x="887" y="298" width="60" height="60" rx="30" fill="black" fill-opacity="0.9"/>
<rect x="887.5" y="298.5" width="59" height="59" rx="29.5" stroke="white" stroke-opacity="0.2"/>
<rect x="892.5" y="378" width="49" height="32" rx="4" fill="white"/>
<path d="M901.78 396.84H903.476C903.684 397.56 904.292 397.992 905.236 397.992C906.596 397.992 907.604 396.984 907.764 393.688C907.092 394.76 906.004 395.128 905.108 395.128C903.06 395.128 901.62 393.72 901.62 391.368C901.62 389.048 903.236 387.56 905.364 387.56C907.956 387.56 909.3 389.352 909.3 392.952C909.3 397.864 907.396 399.24 905.172 399.24C903.444 399.24 902.148 398.296 901.78 396.84ZM907.62 391.416C907.62 389.752 906.644 388.84 905.364 388.84C904.132 388.84 903.172 389.736 903.172 391.288C903.172 392.968 904.132 393.848 905.38 393.848C906.884 393.848 907.62 392.712 907.62 391.416ZM914.894 399.24C912.622 399.24 910.894 397.384 910.894 393.368C910.894 389.24 912.638 387.56 914.894 387.56C917.15 387.56 918.894 389.24 918.894 393.368C918.894 397.384 917.166 399.24 914.894 399.24ZM914.894 397.96C916.526 397.96 917.326 396.504 917.326 393.368C917.326 390.248 916.526 388.84 914.894 388.84C913.262 388.84 912.462 390.248 912.462 393.368C912.462 396.504 913.262 397.96 914.894 397.96ZM925.704 390.264C925.704 392.072 924.36 392.968 922.968 392.968C921.576 392.968 920.248 392.072 920.248 390.264C920.248 388.456 921.576 387.56 922.968 387.56C924.36 387.56 925.704 388.456 925.704 390.264ZM921.544 390.264C921.544 391.416 922.184 391.848 922.968 391.848C923.752 391.848 924.424 391.416 924.424 390.264C924.424 389.112 923.752 388.68 922.968 388.68C922.184 388.68 921.544 389.112 921.544 390.264ZM930.184 387.8L924.072 399H922.536L928.648 387.8H930.184ZM932.584 396.536C932.584 398.344 931.24 399.24 929.848 399.24C928.456 399.24 927.128 398.344 927.128 396.536C927.128 394.728 928.456 393.832 929.848 393.832C931.24 393.832 932.584 394.728 932.584 396.536ZM928.424 396.536C928.424 397.688 929.064 398.12 929.848 398.12C930.632 398.12 931.304 397.688 931.304 396.536C931.304 395.384 930.632 394.952 929.848 394.952C929.064 394.952 928.424 395.384 928.424 396.536Z" fill="black" fill-opacity="0.95"/>
<rect x="963" y="298" width="60" height="60" rx="30" fill="black" fill-opacity="0.95"/>
<rect x="963.5" y="298.5" width="59" height="59" rx="29.5" stroke="white" stroke-opacity="0.2"/>
<rect x="968.5" y="378" width="49" height="32" rx="4" fill="white"/>
<path d="M977.78 396.84H979.476C979.684 397.56 980.292 397.992 981.236 397.992C982.596 397.992 983.604 396.984 983.764 393.688C983.092 394.76 982.004 395.128 981.108 395.128C979.06 395.128 977.62 393.72 977.62 391.368C977.62 389.048 979.236 387.56 981.364 387.56C983.956 387.56 985.3 389.352 985.3 392.952C985.3 397.864 983.396 399.24 981.172 399.24C979.444 399.24 978.148 398.296 977.78 396.84ZM983.62 391.416C983.62 389.752 982.644 388.84 981.364 388.84C980.132 388.84 979.172 389.736 979.172 391.288C979.172 392.968 980.132 393.848 981.38 393.848C982.884 393.848 983.62 392.712 983.62 391.416ZM986.91 396.28H988.542C988.75 397.192 989.55 397.944 990.91 397.944C992.286 397.944 993.342 396.984 993.342 395.304C993.342 393.656 992.382 392.76 990.942 392.76C990.174 392.76 989.31 393.064 988.702 393.784H987.342L987.582 387.8H994.462V389.096H988.974L988.846 392.376C989.47 391.88 990.254 391.56 991.294 391.56C993.246 391.56 994.926 392.856 994.926 395.368C994.926 397.448 993.454 399.24 990.894 399.24C988.59 399.24 987.166 397.8 986.91 396.28ZM1001.7 390.264C1001.7 392.072 1000.36 392.968 998.968 392.968C997.576 392.968 996.248 392.072 996.248 390.264C996.248 388.456 997.576 387.56 998.968 387.56C1000.36 387.56 1001.7 388.456 1001.7 390.264ZM997.544 390.264C997.544 391.416 998.184 391.848 998.968 391.848C999.752 391.848 1000.42 391.416 1000.42 390.264C1000.42 389.112 999.752 388.68 998.968 388.68C998.184 388.68 997.544 389.112 997.544 390.264ZM1006.18 387.8L1000.07 399H998.536L1004.65 387.8H1006.18ZM1008.58 396.536C1008.58 398.344 1007.24 399.24 1005.85 399.24C1004.46 399.24 1003.13 398.344 1003.13 396.536C1003.13 394.728 1004.46 393.832 1005.85 393.832C1007.24 393.832 1008.58 394.728 1008.58 396.536ZM1004.42 396.536C1004.42 397.688 1005.06 398.12 1005.85 398.12C1006.63 398.12 1007.3 397.688 1007.3 396.536C1007.3 395.384 1006.63 394.952 1005.85 394.952C1005.06 394.952 1004.42 395.384 1004.42 396.536Z" fill="black" fill-opacity="0.95"/>
<rect x="1039" y="298" width="60" height="60" rx="30" fill="black"/>
<rect x="1039.5" y="298.5" width="59" height="59" rx="29.5" stroke="white" stroke-opacity="0.2"/>
<rect x="1039.5" y="378" width="59" height="32" rx="4" fill="white"/>
<path d="M1053.66 399H1052.14V389.4L1049.63 390.696V389.112L1052.16 387.8H1053.66V399ZM1061.89 399.24C1059.62 399.24 1057.89 397.384 1057.89 393.368C1057.89 389.24 1059.64 387.56 1061.89 387.56C1064.15 387.56 1065.89 389.24 1065.89 393.368C1065.89 397.384 1064.17 399.24 1061.89 399.24ZM1061.89 397.96C1063.53 397.96 1064.33 396.504 1064.33 393.368C1064.33 390.248 1063.53 388.84 1061.89 388.84C1060.26 388.84 1059.46 390.248 1059.46 393.368C1059.46 396.504 1060.26 397.96 1061.89 397.96ZM1071.49 399.24C1069.22 399.24 1067.49 397.384 1067.49 393.368C1067.49 389.24 1069.23 387.56 1071.49 387.56C1073.74 387.56 1075.49 389.24 1075.49 393.368C1075.49 397.384 1073.76 399.24 1071.49 399.24ZM1071.49 397.96C1073.12 397.96 1073.92 396.504 1073.92 393.368C1073.92 390.248 1073.12 388.84 1071.49 388.84C1069.86 388.84 1069.06 390.248 1069.06 393.368C1069.06 396.504 1069.86 397.96 1071.49 397.96ZM1082.3 390.264C1082.3 392.072 1080.95 392.968 1079.56 392.968C1078.17 392.968 1076.84 392.072 1076.84 390.264C1076.84 388.456 1078.17 387.56 1079.56 387.56C1080.95 387.56 1082.3 388.456 1082.3 390.264ZM1078.14 390.264C1078.14 391.416 1078.78 391.848 1079.56 391.848C1080.35 391.848 1081.02 391.416 1081.02 390.264C1081.02 389.112 1080.35 388.68 1079.56 388.68C1078.78 388.68 1078.14 389.112 1078.14 390.264ZM1086.78 387.8L1080.67 399H1079.13L1085.24 387.8H1086.78ZM1089.18 396.536C1089.18 398.344 1087.83 399.24 1086.44 399.24C1085.05 399.24 1083.72 398.344 1083.72 396.536C1083.72 394.728 1085.05 393.832 1086.44 393.832C1087.83 393.832 1089.18 394.728 1089.18 396.536ZM1085.02 396.536C1085.02 397.688 1085.66 398.12 1086.44 398.12C1087.23 398.12 1087.9 397.688 1087.9 396.536C1087.9 395.384 1087.23 394.952 1086.44 394.952C1085.66 394.952 1085.02 395.384 1085.02 396.536Z" fill="black" fill-opacity="0.95"/>
<path d="M48.7273 478.125C48.6477 477.848 48.536 477.604 48.392 477.392C48.2481 477.176 48.072 476.994 47.8636 476.847C47.6591 476.695 47.4242 476.58 47.1591 476.5C46.8977 476.42 46.608 476.381 46.2898 476.381C45.6951 476.381 45.1723 476.528 44.7216 476.824C44.2746 477.119 43.9261 477.549 43.6761 478.114C43.4261 478.674 43.3011 479.36 43.3011 480.17C43.3011 480.981 43.4242 481.67 43.6705 482.239C43.9167 482.807 44.2652 483.241 44.7159 483.54C45.1667 483.835 45.6989 483.983 46.3125 483.983C46.8693 483.983 47.3447 483.884 47.7386 483.688C48.1364 483.487 48.4394 483.205 48.6477 482.841C48.8598 482.477 48.9659 482.047 48.9659 481.551L49.4659 481.625H46.4659V479.773H51.3352V481.239C51.3352 482.261 51.1193 483.14 50.6875 483.875C50.2557 484.606 49.661 485.17 48.9034 485.568C48.1458 485.962 47.2784 486.159 46.3011 486.159C45.2102 486.159 44.2519 485.919 43.4261 485.438C42.6004 484.953 41.9564 484.265 41.4943 483.375C41.036 482.481 40.8068 481.42 40.8068 480.193C40.8068 479.25 40.9432 478.409 41.2159 477.67C41.4924 476.928 41.8788 476.299 42.375 475.784C42.8712 475.269 43.4489 474.877 44.108 474.608C44.767 474.339 45.4811 474.205 46.25 474.205C46.9091 474.205 47.5227 474.301 48.0909 474.494C48.6591 474.684 49.1629 474.953 49.6023 475.301C50.0455 475.65 50.4072 476.064 50.6875 476.545C50.9678 477.023 51.1477 477.549 51.2273 478.125H48.7273ZM53.8232 486V474.364H58.4141C59.2929 474.364 60.0429 474.521 60.6641 474.835C61.2891 475.146 61.7645 475.587 62.0903 476.159C62.4198 476.727 62.5846 477.396 62.5846 478.165C62.5846 478.937 62.4179 479.602 62.0846 480.159C61.7513 480.712 61.2683 481.136 60.6357 481.432C60.007 481.727 59.2456 481.875 58.3516 481.875H55.2778V479.898H57.9539C58.4236 479.898 58.8138 479.833 59.1244 479.705C59.435 479.576 59.666 479.383 59.8176 479.125C59.9729 478.867 60.0505 478.547 60.0505 478.165C60.0505 477.778 59.9729 477.453 59.8176 477.188C59.666 476.922 59.4331 476.722 59.1187 476.585C58.8081 476.445 58.416 476.375 57.9426 476.375H56.2835V486H53.8232ZM60.1073 480.705L62.9994 486H60.2835L57.4539 480.705H60.1073ZM66.9689 486H64.3326L68.3496 474.364H71.5201L75.5314 486H72.8951L69.9803 477.023H69.8894L66.9689 486ZM66.8041 481.426H73.0314V483.347H66.8041V481.426ZM75.7027 474.364H78.4584L81.1118 479.375H81.2254L83.8788 474.364H86.6345L82.3902 481.886V486H79.947V481.886L75.7027 474.364Z" fill="white"/>
<rect x="40.8102" y="512" width="60" height="60" rx="30" fill="#F7F7F7"/>
<rect x="41.3102" y="512.5" width="59" height="59" rx="29.5" stroke="white" stroke-opacity="0.2"/>
<rect x="37.3102" y="592" width="67" height="32" rx="4" fill="white"/>
<rect x="37.8102" y="592.5" width="66" height="31" rx="3.5" stroke="white" stroke-opacity="0.2"/>
<path d="M46.3342 613.56H47.9822C48.1262 614.392 48.8302 614.904 50.0462 614.904C51.5982 614.904 52.3982 614.12 52.3982 612.744V611.672C51.8382 612.328 50.9102 612.76 49.6302 612.76C47.6782 612.76 45.9502 611.304 45.9502 608.648C45.9502 606.04 47.4702 604.44 49.7262 604.44C51.0222 604.44 51.9022 605 52.4302 605.784L52.6702 604.68H53.9342V612.824C53.9342 614.712 52.5582 616.12 50.0942 616.12C47.8702 616.12 46.6062 615.112 46.3342 613.56ZM47.5502 608.68C47.5502 610.44 48.6382 611.448 49.9662 611.448C51.5502 611.448 52.4782 610.408 52.4782 608.728C52.4782 606.776 51.4542 605.752 49.9662 605.752C48.5582 605.752 47.5502 606.696 47.5502 608.68ZM57.7162 613H56.1802V604.68H57.4442L57.6522 605.912C58.1162 604.952 58.8362 604.44 59.7642 604.44C60.1642 604.44 60.4842 604.504 60.6762 604.552V606.088C60.3722 606.008 60.0682 605.944 59.7002 605.944C58.6442 605.944 57.7162 606.728 57.7162 608.824V613ZM63.1953 607H61.5633C61.7233 605.464 63.0513 604.44 65.1313 604.44C67.3073 604.44 68.5233 605.608 68.5233 607.32V613H67.2593L67.0673 611.864C66.5233 612.632 65.6273 613.24 64.2833 613.24C62.4593 613.24 61.4033 612.216 61.4033 610.856C61.4033 609.336 62.3153 608.472 64.5553 608.088L66.9873 607.672V607.256C66.9873 606.232 66.2993 605.656 65.0673 605.656C63.8833 605.656 63.3073 606.168 63.1953 607ZM66.9873 608.872L64.9233 609.24C63.4353 609.496 63.0353 609.96 63.0353 610.696C63.0353 611.496 63.6113 611.944 64.6513 611.944C65.8193 611.944 66.9873 611.08 66.9873 609.944V608.872ZM77.3117 604.68L74.4157 613.112C73.7917 614.936 73.2317 616.12 71.6957 616.12C71.3597 616.12 71.1517 616.088 70.7037 615.976V614.728C71.0237 614.808 71.2477 614.84 71.5037 614.84C72.2397 614.84 72.4797 614.312 72.9597 613H72.4637L69.4077 604.68H71.0717L73.4237 611.752L75.7757 604.68H77.3117ZM84.4321 608.52H78.6721V607.16H84.4321V608.52ZM86.6887 610.28H88.3207C88.5287 611.192 89.3287 611.944 90.6887 611.944C92.0647 611.944 93.1207 610.984 93.1207 609.304C93.1207 607.656 92.1607 606.76 90.7207 606.76C89.9527 606.76 89.0887 607.064 88.4807 607.784H87.1207L87.3607 601.8H94.2407V603.096H88.7527L88.6247 606.376C89.2487 605.88 90.0327 605.56 91.0727 605.56C93.0247 605.56 94.7047 606.856 94.7047 609.368C94.7047 611.448 93.2327 613.24 90.6727 613.24C88.3687 613.24 86.9447 611.8 86.6887 610.28Z" fill="black" fill-opacity="0.95"/>
<rect x="118.431" y="512" width="60" height="60" rx="30" fill="#EDEDED"/>
<rect x="118.931" y="512.5" width="59" height="59" rx="29.5" stroke="white" stroke-opacity="0.2"/>
<rect x="110.431" y="592" width="76" height="32" rx="4" fill="white"/>
<path d="M119.455 613.56H121.103C121.247 614.392 121.951 614.904 123.167 614.904C124.719 614.904 125.519 614.12 125.519 612.744V611.672C124.959 612.328 124.031 612.76 122.751 612.76C120.799 612.76 119.071 611.304 119.071 608.648C119.071 606.04 120.591 604.44 122.847 604.44C124.143 604.44 125.023 605 125.551 605.784L125.791 604.68H127.055V612.824C127.055 614.712 125.679 616.12 123.215 616.12C120.991 616.12 119.727 615.112 119.455 613.56ZM120.671 608.68C120.671 610.44 121.759 611.448 123.087 611.448C124.671 611.448 125.599 610.408 125.599 608.728C125.599 606.776 124.575 605.752 123.087 605.752C121.679 605.752 120.671 606.696 120.671 608.68ZM130.837 613H129.301V604.68H130.565L130.773 605.912C131.237 604.952 131.957 604.44 132.885 604.44C133.285 604.44 133.605 604.504 133.797 604.552V606.088C133.493 606.008 133.189 605.944 132.821 605.944C131.765 605.944 130.837 606.728 130.837 608.824V613ZM136.316 607H134.684C134.844 605.464 136.172 604.44 138.252 604.44C140.428 604.44 141.644 605.608 141.644 607.32V613H140.38L140.188 611.864C139.644 612.632 138.748 613.24 137.404 613.24C135.58 613.24 134.524 612.216 134.524 610.856C134.524 609.336 135.436 608.472 137.676 608.088L140.108 607.672V607.256C140.108 606.232 139.42 605.656 138.188 605.656C137.004 605.656 136.428 606.168 136.316 607ZM140.108 608.872L138.044 609.24C136.556 609.496 136.156 609.96 136.156 610.696C136.156 611.496 136.732 611.944 137.772 611.944C138.94 611.944 140.108 611.08 140.108 609.944V608.872ZM150.432 604.68L147.536 613.112C146.912 614.936 146.352 616.12 144.816 616.12C144.48 616.12 144.272 616.088 143.824 615.976V614.728C144.144 614.808 144.368 614.84 144.624 614.84C145.36 614.84 145.6 614.312 146.08 613H145.584L142.528 604.68H144.192L146.544 611.752L148.896 604.68H150.432ZM157.552 608.52H151.792V607.16H157.552V608.52ZM165.153 613H163.633V603.4L161.121 604.696V603.112L163.649 601.8H165.153V613ZM173.387 613.24C171.115 613.24 169.387 611.384 169.387 607.368C169.387 603.24 171.131 601.56 173.387 601.56C175.643 601.56 177.387 603.24 177.387 607.368C177.387 611.384 175.659 613.24 173.387 613.24ZM173.387 611.96C175.019 611.96 175.819 610.504 175.819 607.368C175.819 604.248 175.019 602.84 173.387 602.84C171.755 602.84 170.955 604.248 170.955 607.368C170.955 610.504 171.755 611.96 173.387 611.96Z" fill="black" fill-opacity="0.95"/>
<rect x="196.051" y="512" width="60" height="60" rx="30" fill="#DEDEDE"/>
<rect x="196.551" y="512.5" width="59" height="59" rx="29.5" stroke="white" stroke-opacity="0.2"/>
<rect x="188.051" y="592" width="76" height="32" rx="4" fill="white"/>
<path d="M197.075 613.56H198.723C198.867 614.392 199.571 614.904 200.787 614.904C202.339 614.904 203.139 614.12 203.139 612.744V611.672C202.579 612.328 201.651 612.76 200.371 612.76C198.419 612.76 196.691 611.304 196.691 608.648C196.691 606.04 198.211 604.44 200.467 604.44C201.763 604.44 202.643 605 203.171 605.784L203.411 604.68H204.675V612.824C204.675 614.712 203.299 616.12 200.835 616.12C198.611 616.12 197.347 615.112 197.075 613.56ZM198.291 608.68C198.291 610.44 199.379 611.448 200.707 611.448C202.291 611.448 203.219 610.408 203.219 608.728C203.219 606.776 202.195 605.752 200.707 605.752C199.299 605.752 198.291 606.696 198.291 608.68ZM208.457 613H206.921V604.68H208.185L208.393 605.912C208.857 604.952 209.577 604.44 210.505 604.44C210.905 604.44 211.225 604.504 211.417 604.552V606.088C211.113 606.008 210.809 605.944 210.441 605.944C209.385 605.944 208.457 606.728 208.457 608.824V613ZM213.936 607H212.304C212.464 605.464 213.792 604.44 215.872 604.44C218.048 604.44 219.264 605.608 219.264 607.32V613H218L217.808 611.864C217.264 612.632 216.368 613.24 215.024 613.24C213.2 613.24 212.144 612.216 212.144 610.856C212.144 609.336 213.056 608.472 215.296 608.088L217.728 607.672V607.256C217.728 606.232 217.04 605.656 215.808 605.656C214.624 605.656 214.048 606.168 213.936 607ZM217.728 608.872L215.664 609.24C214.176 609.496 213.776 609.96 213.776 610.696C213.776 611.496 214.352 611.944 215.392 611.944C216.56 611.944 217.728 611.08 217.728 609.944V608.872ZM228.052 604.68L225.156 613.112C224.532 614.936 223.972 616.12 222.436 616.12C222.1 616.12 221.892 616.088 221.444 615.976V614.728C221.764 614.808 221.988 614.84 222.244 614.84C222.98 614.84 223.22 614.312 223.7 613H223.204L220.148 604.68H221.812L224.164 611.752L226.516 604.68H228.052ZM235.173 608.52H229.413V607.16H235.173V608.52ZM239.189 604.728H237.573C237.813 602.936 239.301 601.56 241.509 601.56C243.589 601.56 245.157 602.776 245.157 604.744C245.157 606.264 244.501 607.24 242.485 609.16L239.925 611.592H245.109V613H237.845V611.592L241.493 608.088C243.013 606.632 243.589 605.848 243.589 604.76C243.589 603.624 242.805 602.856 241.477 602.856C240.213 602.856 239.317 603.56 239.189 604.728ZM251.007 613.24C248.735 613.24 247.007 611.384 247.007 607.368C247.007 603.24 248.751 601.56 251.007 601.56C253.263 601.56 255.007 603.24 255.007 607.368C255.007 611.384 253.279 613.24 251.007 613.24ZM251.007 611.96C252.639 611.96 253.439 610.504 253.439 607.368C253.439 604.248 252.639 602.84 251.007 602.84C249.375 602.84 248.575 604.248 248.575 607.368C248.575 610.504 249.375 611.96 251.007 611.96Z" fill="black" fill-opacity="0.95"/>
<rect x="273.671" y="512" width="60" height="60" rx="30" fill="#C9C9C9"/>
<rect x="274.171" y="512.5" width="59" height="59" rx="29.5" stroke="white" stroke-opacity="0.2"/>
<rect x="265.671" y="592" width="76" height="32" rx="4" fill="white"/>
<path d="M274.695 613.56H276.343C276.487 614.392 277.191 614.904 278.407 614.904C279.959 614.904 280.759 614.12 280.759 612.744V611.672C280.199 612.328 279.271 612.76 277.991 612.76C276.039 612.76 274.311 611.304 274.311 608.648C274.311 606.04 275.831 604.44 278.087 604.44C279.383 604.44 280.263 605 280.791 605.784L281.031 604.68H282.295V612.824C282.295 614.712 280.919 616.12 278.455 616.12C276.231 616.12 274.967 615.112 274.695 613.56ZM275.911 608.68C275.911 610.44 276.999 611.448 278.327 611.448C279.911 611.448 280.839 610.408 280.839 608.728C280.839 606.776 279.815 605.752 278.327 605.752C276.919 605.752 275.911 606.696 275.911 608.68ZM286.077 613H284.541V604.68H285.805L286.013 605.912C286.477 604.952 287.197 604.44 288.125 604.44C288.525 604.44 288.845 604.504 289.037 604.552V606.088C288.733 606.008 288.429 605.944 288.061 605.944C287.005 605.944 286.077 606.728 286.077 608.824V613ZM291.556 607H289.924C290.084 605.464 291.412 604.44 293.492 604.44C295.668 604.44 296.884 605.608 296.884 607.32V613H295.62L295.428 611.864C294.884 612.632 293.988 613.24 292.644 613.24C290.82 613.24 289.764 612.216 289.764 610.856C289.764 609.336 290.676 608.472 292.916 608.088L295.348 607.672V607.256C295.348 606.232 294.66 605.656 293.428 605.656C292.244 605.656 291.668 606.168 291.556 607ZM295.348 608.872L293.284 609.24C291.796 609.496 291.396 609.96 291.396 610.696C291.396 611.496 291.972 611.944 293.012 611.944C294.18 611.944 295.348 611.08 295.348 609.944V608.872ZM305.673 604.68L302.777 613.112C302.153 614.936 301.593 616.12 300.057 616.12C299.721 616.12 299.513 616.088 299.065 615.976V614.728C299.385 614.808 299.609 614.84 299.865 614.84C300.601 614.84 300.841 614.312 301.321 613H300.825L297.769 604.68H299.433L301.785 611.752L304.137 604.68H305.673ZM312.793 608.52H307.033V607.16H312.793V608.52ZM316.666 604.44H315.05C315.322 602.696 316.874 601.56 319.002 601.56C320.874 601.56 322.634 602.488 322.634 604.488C322.634 605.704 321.786 606.68 320.618 607.048C321.882 607.32 323.018 608.264 323.018 609.944C323.018 611.864 321.45 613.224 319.05 613.224C316.698 613.224 315.274 612.008 315.018 610.216H316.65C316.906 611.336 317.658 611.944 319.018 611.944C320.554 611.944 321.45 611.112 321.45 609.912C321.45 608.376 320.266 607.8 319.242 607.8H318.314V606.472H319.21C320.058 606.472 321.066 605.896 321.066 604.6C321.066 603.4 320.01 602.84 318.922 602.84C317.674 602.84 316.826 603.48 316.666 604.44ZM328.628 613.24C326.356 613.24 324.628 611.384 324.628 607.368C324.628 603.24 326.372 601.56 328.628 601.56C330.884 601.56 332.628 603.24 332.628 607.368C332.628 611.384 330.9 613.24 328.628 613.24ZM328.628 611.96C330.26 611.96 331.06 610.504 331.06 607.368C331.06 604.248 330.26 602.84 328.628 602.84C326.996 602.84 326.196 604.248 326.196 607.368C326.196 610.504 326.996 611.96 328.628 611.96Z" fill="black" fill-opacity="0.95"/>
<rect x="351.292" y="512" width="60" height="60" rx="30" fill="#ADADAD"/>
<rect x="351.792" y="512.5" width="59" height="59" rx="29.5" stroke="white" stroke-opacity="0.2"/>
<rect x="343.292" y="592" width="76" height="32" rx="4" fill="white"/>
<path d="M352.316 613.56H353.964C354.108 614.392 354.812 614.904 356.028 614.904C357.58 614.904 358.38 614.12 358.38 612.744V611.672C357.82 612.328 356.892 612.76 355.612 612.76C353.66 612.76 351.932 611.304 351.932 608.648C351.932 606.04 353.452 604.44 355.708 604.44C357.004 604.44 357.884 605 358.412 605.784L358.652 604.68H359.916V612.824C359.916 614.712 358.54 616.12 356.076 616.12C353.852 616.12 352.588 615.112 352.316 613.56ZM353.532 608.68C353.532 610.44 354.62 611.448 355.948 611.448C357.532 611.448 358.46 610.408 358.46 608.728C358.46 606.776 357.436 605.752 355.948 605.752C354.54 605.752 353.532 606.696 353.532 608.68ZM363.698 613H362.162V604.68H363.426L363.634 605.912C364.098 604.952 364.818 604.44 365.746 604.44C366.146 604.44 366.466 604.504 366.658 604.552V606.088C366.354 606.008 366.05 605.944 365.682 605.944C364.626 605.944 363.698 606.728 363.698 608.824V613ZM369.177 607H367.545C367.705 605.464 369.033 604.44 371.113 604.44C373.289 604.44 374.505 605.608 374.505 607.32V613H373.241L373.049 611.864C372.505 612.632 371.609 613.24 370.265 613.24C368.441 613.24 367.385 612.216 367.385 610.856C367.385 609.336 368.297 608.472 370.537 608.088L372.969 607.672V607.256C372.969 606.232 372.281 605.656 371.049 605.656C369.865 605.656 369.289 606.168 369.177 607ZM372.969 608.872L370.905 609.24C369.417 609.496 369.017 609.96 369.017 610.696C369.017 611.496 369.593 611.944 370.633 611.944C371.801 611.944 372.969 611.08 372.969 609.944V608.872ZM383.293 604.68L380.397 613.112C379.773 614.936 379.213 616.12 377.677 616.12C377.341 616.12 377.133 616.088 376.685 615.976V614.728C377.005 614.808 377.229 614.84 377.485 614.84C378.221 614.84 378.461 614.312 378.941 613H378.445L375.389 604.68H377.053L379.405 611.752L381.757 604.68H383.293ZM390.414 608.52H384.654V607.16H390.414V608.52ZM397.358 601.8H398.958V609.576H400.766V610.888H398.958V613H397.47V610.888H392.558V609.464L397.358 601.8ZM394.27 609.576H397.47V604.28L394.27 609.576ZM406.248 613.24C403.976 613.24 402.248 611.384 402.248 607.368C402.248 603.24 403.992 601.56 406.248 601.56C408.504 601.56 410.248 603.24 410.248 607.368C410.248 611.384 408.52 613.24 406.248 613.24ZM406.248 611.96C407.88 611.96 408.68 610.504 408.68 607.368C408.68 604.248 407.88 602.84 406.248 602.84C404.616 602.84 403.816 604.248 403.816 607.368C403.816 610.504 404.616 611.96 406.248 611.96Z" fill="black" fill-opacity="0.95"/>
<rect x="428.912" y="512" width="60" height="60" rx="30" fill="#8F8F8F"/>
<rect x="429.412" y="512.5" width="59" height="59" rx="29.5" stroke="white" stroke-opacity="0.2"/>
<rect x="420.912" y="592" width="76" height="32" rx="4" fill="white"/>
<path d="M429.936 613.56H431.584C431.728 614.392 432.432 614.904 433.648 614.904C435.2 614.904 436 614.12 436 612.744V611.672C435.44 612.328 434.512 612.76 433.232 612.76C431.28 612.76 429.552 611.304 429.552 608.648C429.552 606.04 431.072 604.44 433.328 604.44C434.624 604.44 435.504 605 436.032 605.784L436.272 604.68H437.536V612.824C437.536 614.712 436.16 616.12 433.696 616.12C431.472 616.12 430.208 615.112 429.936 613.56ZM431.152 608.68C431.152 610.44 432.24 611.448 433.568 611.448C435.152 611.448 436.08 610.408 436.08 608.728C436.08 606.776 435.056 605.752 433.568 605.752C432.16 605.752 431.152 606.696 431.152 608.68ZM441.318 613H439.782V604.68H441.046L441.254 605.912C441.718 604.952 442.438 604.44 443.366 604.44C443.766 604.44 444.086 604.504 444.278 604.552V606.088C443.974 606.008 443.67 605.944 443.302 605.944C442.246 605.944 441.318 606.728 441.318 608.824V613ZM446.797 607H445.165C445.325 605.464 446.653 604.44 448.733 604.44C450.909 604.44 452.125 605.608 452.125 607.32V613H450.861L450.669 611.864C450.125 612.632 449.229 613.24 447.885 613.24C446.061 613.24 445.005 612.216 445.005 610.856C445.005 609.336 445.917 608.472 448.157 608.088L450.589 607.672V607.256C450.589 606.232 449.901 605.656 448.669 605.656C447.485 605.656 446.909 606.168 446.797 607ZM450.589 608.872L448.525 609.24C447.037 609.496 446.637 609.96 446.637 610.696C446.637 611.496 447.213 611.944 448.253 611.944C449.421 611.944 450.589 611.08 450.589 609.944V608.872ZM460.914 604.68L458.018 613.112C457.394 614.936 456.834 616.12 455.298 616.12C454.962 616.12 454.754 616.088 454.306 615.976V614.728C454.626 614.808 454.85 614.84 455.106 614.84C455.842 614.84 456.082 614.312 456.562 613H456.066L453.01 604.68H454.674L457.026 611.752L459.378 604.68H460.914ZM468.034 608.52H462.274V607.16H468.034V608.52ZM470.291 610.28H471.923C472.131 611.192 472.931 611.944 474.291 611.944C475.667 611.944 476.723 610.984 476.723 609.304C476.723 607.656 475.763 606.76 474.323 606.76C473.555 606.76 472.691 607.064 472.083 607.784H470.723L470.963 601.8H477.843V603.096H472.355L472.227 606.376C472.851 605.88 473.635 605.56 474.675 605.56C476.627 605.56 478.307 606.856 478.307 609.368C478.307 611.448 476.835 613.24 474.275 613.24C471.971 613.24 470.547 611.8 470.291 610.28ZM483.868 613.24C481.596 613.24 479.868 611.384 479.868 607.368C479.868 603.24 481.612 601.56 483.868 601.56C486.124 601.56 487.868 603.24 487.868 607.368C487.868 611.384 486.14 613.24 483.868 613.24ZM483.868 611.96C485.5 611.96 486.3 610.504 486.3 607.368C486.3 604.248 485.5 602.84 483.868 602.84C482.236 602.84 481.436 604.248 481.436 607.368C481.436 610.504 482.236 611.96 483.868 611.96Z" fill="black" fill-opacity="0.95"/>
<rect x="506.532" y="512" width="60" height="60" rx="30" fill="#707070"/>
<rect x="507.032" y="512.5" width="59" height="59" rx="29.5" stroke="white" stroke-opacity="0.2"/>
<rect x="498.532" y="592" width="76" height="32" rx="4" fill="white"/>
<path d="M507.556 613.56H509.204C509.348 614.392 510.052 614.904 511.268 614.904C512.82 614.904 513.62 614.12 513.62 612.744V611.672C513.06 612.328 512.132 612.76 510.852 612.76C508.9 612.76 507.172 611.304 507.172 608.648C507.172 606.04 508.692 604.44 510.948 604.44C512.244 604.44 513.124 605 513.652 605.784L513.892 604.68H515.156V612.824C515.156 614.712 513.78 616.12 511.316 616.12C509.092 616.12 507.828 615.112 507.556 613.56ZM508.772 608.68C508.772 610.44 509.86 611.448 511.188 611.448C512.772 611.448 513.7 610.408 513.7 608.728C513.7 606.776 512.676 605.752 511.188 605.752C509.78 605.752 508.772 606.696 508.772 608.68ZM518.938 613H517.402V604.68H518.666L518.874 605.912C519.338 604.952 520.058 604.44 520.986 604.44C521.386 604.44 521.706 604.504 521.898 604.552V606.088C521.594 606.008 521.29 605.944 520.922 605.944C519.866 605.944 518.938 606.728 518.938 608.824V613ZM524.418 607H522.786C522.946 605.464 524.274 604.44 526.354 604.44C528.53 604.44 529.746 605.608 529.746 607.32V613H528.482L528.29 611.864C527.746 612.632 526.85 613.24 525.506 613.24C523.682 613.24 522.626 612.216 522.626 610.856C522.626 609.336 523.538 608.472 525.778 608.088L528.21 607.672V607.256C528.21 606.232 527.522 605.656 526.29 605.656C525.106 605.656 524.53 606.168 524.418 607ZM528.21 608.872L526.146 609.24C524.658 609.496 524.258 609.96 524.258 610.696C524.258 611.496 524.834 611.944 525.874 611.944C527.042 611.944 528.21 611.08 528.21 609.944V608.872ZM538.534 604.68L535.638 613.112C535.014 614.936 534.454 616.12 532.918 616.12C532.582 616.12 532.374 616.088 531.926 615.976V614.728C532.246 614.808 532.47 614.84 532.726 614.84C533.462 614.84 533.702 614.312 534.182 613H533.686L530.63 604.68H532.294L534.646 611.752L536.998 604.68H538.534ZM545.654 608.52H539.894V607.16H545.654V608.52ZM555.671 603.928H553.975C553.783 603.256 553.191 602.808 552.279 602.808C551.015 602.808 549.911 603.832 549.735 607.128C550.407 606.056 551.495 605.672 552.407 605.672C554.599 605.672 555.895 607.24 555.895 609.432C555.895 612.008 553.991 613.24 552.151 613.24C549.559 613.24 548.215 611.336 548.215 607.848C548.215 602.824 550.231 601.56 552.295 601.56C553.991 601.56 555.319 602.472 555.671 603.928ZM549.895 609.384C549.895 611.048 550.871 611.96 552.151 611.96C553.367 611.96 554.343 611.08 554.343 609.512C554.343 607.928 553.479 606.952 552.135 606.952C550.631 606.952 549.895 608.088 549.895 609.384ZM561.489 613.24C559.217 613.24 557.489 611.384 557.489 607.368C557.489 603.24 559.233 601.56 561.489 601.56C563.745 601.56 565.489 603.24 565.489 607.368C565.489 611.384 563.761 613.24 561.489 613.24ZM561.489 611.96C563.121 611.96 563.921 610.504 563.921 607.368C563.921 604.248 563.121 602.84 561.489 602.84C559.857 602.84 559.057 604.248 559.057 607.368C559.057 610.504 559.857 611.96 561.489 611.96Z" fill="black" fill-opacity="0.95"/>
<rect x="584.153" y="512" width="60" height="60" rx="30" fill="#545454"/>
<rect x="584.653" y="512.5" width="59" height="59" rx="29.5" stroke="white" stroke-opacity="0.2"/>
<rect x="576.153" y="592" width="76" height="32" rx="4" fill="white"/>
<path d="M585.177 613.56H586.825C586.969 614.392 587.673 614.904 588.889 614.904C590.441 614.904 591.241 614.12 591.241 612.744V611.672C590.681 612.328 589.753 612.76 588.473 612.76C586.521 612.76 584.793 611.304 584.793 608.648C584.793 606.04 586.313 604.44 588.569 604.44C589.865 604.44 590.745 605 591.273 605.784L591.513 604.68H592.777V612.824C592.777 614.712 591.401 616.12 588.937 616.12C586.713 616.12 585.449 615.112 585.177 613.56ZM586.393 608.68C586.393 610.44 587.481 611.448 588.809 611.448C590.393 611.448 591.321 610.408 591.321 608.728C591.321 606.776 590.297 605.752 588.809 605.752C587.401 605.752 586.393 606.696 586.393 608.68ZM596.559 613H595.023V604.68H596.287L596.495 605.912C596.959 604.952 597.679 604.44 598.607 604.44C599.007 604.44 599.327 604.504 599.519 604.552V606.088C599.215 606.008 598.911 605.944 598.543 605.944C597.487 605.944 596.559 606.728 596.559 608.824V613ZM602.038 607H600.406C600.566 605.464 601.894 604.44 603.974 604.44C606.15 604.44 607.366 605.608 607.366 607.32V613H606.102L605.91 611.864C605.366 612.632 604.47 613.24 603.126 613.24C601.302 613.24 600.246 612.216 600.246 610.856C600.246 609.336 601.158 608.472 603.398 608.088L605.83 607.672V607.256C605.83 606.232 605.142 605.656 603.91 605.656C602.726 605.656 602.15 606.168 602.038 607ZM605.83 608.872L603.766 609.24C602.278 609.496 601.878 609.96 601.878 610.696C601.878 611.496 602.454 611.944 603.494 611.944C604.662 611.944 605.83 611.08 605.83 609.944V608.872ZM616.154 604.68L613.258 613.112C612.634 614.936 612.074 616.12 610.538 616.12C610.202 616.12 609.994 616.088 609.546 615.976V614.728C609.866 614.808 610.09 614.84 610.346 614.84C611.082 614.84 611.322 614.312 611.802 613H611.306L608.25 604.68H609.914L612.266 611.752L614.618 604.68H616.154ZM623.275 608.52H617.515V607.16H623.275V608.52ZM633.035 603.176L628.459 613H626.715L631.403 603.176H625.915V601.8H633.035V603.176ZM639.109 613.24C636.837 613.24 635.109 611.384 635.109 607.368C635.109 603.24 636.853 601.56 639.109 601.56C641.365 601.56 643.109 603.24 643.109 607.368C643.109 611.384 641.381 613.24 639.109 613.24ZM639.109 611.96C640.741 611.96 641.541 610.504 641.541 607.368C641.541 604.248 640.741 602.84 639.109 602.84C637.477 602.84 636.677 604.248 636.677 607.368C636.677 610.504 637.477 611.96 639.109 611.96Z" fill="black" fill-opacity="0.95"/>
<rect x="661.773" y="512" width="60" height="60" rx="30" fill="#3B3B3B"/>
<rect x="662.273" y="512.5" width="59" height="59" rx="29.5" stroke="white" stroke-opacity="0.2"/>
<rect x="653.773" y="592" width="76" height="32" rx="4" fill="white"/>
<path d="M662.797 613.56H664.445C664.589 614.392 665.293 614.904 666.509 614.904C668.061 614.904 668.861 614.12 668.861 612.744V611.672C668.301 612.328 667.373 612.76 666.093 612.76C664.141 612.76 662.413 611.304 662.413 608.648C662.413 606.04 663.933 604.44 666.189 604.44C667.485 604.44 668.365 605 668.893 605.784L669.133 604.68H670.397V612.824C670.397 614.712 669.021 616.12 666.557 616.12C664.333 616.12 663.069 615.112 662.797 613.56ZM664.013 608.68C664.013 610.44 665.101 611.448 666.429 611.448C668.013 611.448 668.941 610.408 668.941 608.728C668.941 606.776 667.917 605.752 666.429 605.752C665.021 605.752 664.013 606.696 664.013 608.68ZM674.179 613H672.643V604.68H673.907L674.115 605.912C674.579 604.952 675.299 604.44 676.227 604.44C676.627 604.44 676.947 604.504 677.139 604.552V606.088C676.835 606.008 676.531 605.944 676.163 605.944C675.107 605.944 674.179 606.728 674.179 608.824V613ZM679.658 607H678.026C678.186 605.464 679.514 604.44 681.594 604.44C683.77 604.44 684.986 605.608 684.986 607.32V613H683.722L683.53 611.864C682.986 612.632 682.09 613.24 680.746 613.24C678.922 613.24 677.866 612.216 677.866 610.856C677.866 609.336 678.778 608.472 681.018 608.088L683.45 607.672V607.256C683.45 606.232 682.762 605.656 681.53 605.656C680.346 605.656 679.77 606.168 679.658 607ZM683.45 608.872L681.386 609.24C679.898 609.496 679.498 609.96 679.498 610.696C679.498 611.496 680.074 611.944 681.114 611.944C682.282 611.944 683.45 611.08 683.45 609.944V608.872ZM693.775 604.68L690.879 613.112C690.255 614.936 689.695 616.12 688.159 616.12C687.823 616.12 687.615 616.088 687.167 615.976V614.728C687.487 614.808 687.711 614.84 687.967 614.84C688.703 614.84 688.943 614.312 689.423 613H688.927L685.871 604.68H687.535L689.887 611.752L692.239 604.68H693.775ZM700.895 608.52H695.135V607.16H700.895V608.52ZM710.8 604.44C710.8 605.72 709.84 606.568 708.96 607.032C710.016 607.496 711.216 608.392 711.216 609.976C711.216 611.88 709.584 613.24 707.136 613.24C704.688 613.24 703.056 611.912 703.056 610.088C703.056 608.376 704.24 607.512 705.248 607.128C704.4 606.728 703.472 605.976 703.472 604.552C703.472 602.488 705.216 601.56 707.136 601.56C709.056 601.56 710.8 602.408 710.8 604.44ZM709.584 609.976C709.584 608.2 708.048 607.88 706.8 607.608C705.872 607.88 704.688 608.568 704.688 609.976C704.688 611.064 705.472 611.976 707.136 611.976C708.768 611.976 709.584 611.144 709.584 609.976ZM704.976 604.472C704.976 606.168 706.496 606.504 707.456 606.632C708.272 606.312 709.264 605.656 709.264 604.472C709.264 603.416 708.304 602.76 707.136 602.76C705.968 602.76 704.976 603.32 704.976 604.472ZM716.729 613.24C714.457 613.24 712.729 611.384 712.729 607.368C712.729 603.24 714.473 601.56 716.729 601.56C718.985 601.56 720.729 603.24 720.729 607.368C720.729 611.384 719.001 613.24 716.729 613.24ZM716.729 611.96C718.361 611.96 719.161 610.504 719.161 607.368C719.161 604.248 718.361 602.84 716.729 602.84C715.097 602.84 714.297 604.248 714.297 607.368C714.297 610.504 715.097 611.96 716.729 611.96Z" fill="black" fill-opacity="0.95"/>
<rect x="739.394" y="512" width="60" height="60" rx="30" fill="#262626"/>
<rect x="739.894" y="512.5" width="59" height="59" rx="29.5" stroke="white" stroke-opacity="0.2"/>
<rect x="731.394" y="592" width="76" height="32" rx="4" fill="white"/>
<path d="M740.418 613.56H742.066C742.21 614.392 742.914 614.904 744.13 614.904C745.682 614.904 746.482 614.12 746.482 612.744V611.672C745.922 612.328 744.994 612.76 743.714 612.76C741.762 612.76 740.034 611.304 740.034 608.648C740.034 606.04 741.554 604.44 743.81 604.44C745.106 604.44 745.986 605 746.514 605.784L746.754 604.68H748.018V612.824C748.018 614.712 746.642 616.12 744.178 616.12C741.954 616.12 740.69 615.112 740.418 613.56ZM741.634 608.68C741.634 610.44 742.722 611.448 744.05 611.448C745.634 611.448 746.562 610.408 746.562 608.728C746.562 606.776 745.538 605.752 744.05 605.752C742.642 605.752 741.634 606.696 741.634 608.68ZM751.8 613H750.264V604.68H751.528L751.736 605.912C752.2 604.952 752.92 604.44 753.848 604.44C754.248 604.44 754.568 604.504 754.76 604.552V606.088C754.456 606.008 754.152 605.944 753.784 605.944C752.728 605.944 751.8 606.728 751.8 608.824V613ZM757.279 607H755.647C755.807 605.464 757.135 604.44 759.215 604.44C761.391 604.44 762.607 605.608 762.607 607.32V613H761.343L761.151 611.864C760.607 612.632 759.711 613.24 758.367 613.24C756.543 613.24 755.487 612.216 755.487 610.856C755.487 609.336 756.399 608.472 758.639 608.088L761.071 607.672V607.256C761.071 606.232 760.383 605.656 759.151 605.656C757.967 605.656 757.391 606.168 757.279 607ZM761.071 608.872L759.007 609.24C757.519 609.496 757.119 609.96 757.119 610.696C757.119 611.496 757.695 611.944 758.735 611.944C759.903 611.944 761.071 611.08 761.071 609.944V608.872ZM771.395 604.68L768.499 613.112C767.875 614.936 767.315 616.12 765.779 616.12C765.443 616.12 765.235 616.088 764.787 615.976V614.728C765.107 614.808 765.331 614.84 765.587 614.84C766.323 614.84 766.563 614.312 767.043 613H766.547L763.491 604.68H765.155L767.507 611.752L769.859 604.68H771.395ZM778.515 608.52H772.755V607.16H778.515V608.52ZM781.236 610.84H782.932C783.14 611.56 783.748 611.992 784.692 611.992C786.052 611.992 787.06 610.984 787.22 607.688C786.548 608.76 785.46 609.128 784.564 609.128C782.516 609.128 781.076 607.72 781.076 605.368C781.076 603.048 782.692 601.56 784.82 601.56C787.412 601.56 788.756 603.352 788.756 606.952C788.756 611.864 786.852 613.24 784.628 613.24C782.9 613.24 781.604 612.296 781.236 610.84ZM787.076 605.416C787.076 603.752 786.1 602.84 784.82 602.84C783.588 602.84 782.628 603.736 782.628 605.288C782.628 606.968 783.588 607.848 784.836 607.848C786.34 607.848 787.076 606.712 787.076 605.416ZM794.35 613.24C792.078 613.24 790.35 611.384 790.35 607.368C790.35 603.24 792.094 601.56 794.35 601.56C796.606 601.56 798.35 603.24 798.35 607.368C798.35 611.384 796.622 613.24 794.35 613.24ZM794.35 611.96C795.982 611.96 796.782 610.504 796.782 607.368C796.782 604.248 795.982 602.84 794.35 602.84C792.718 602.84 791.918 604.248 791.918 607.368C791.918 610.504 792.718 611.96 794.35 611.96Z" fill="black" fill-opacity="0.95"/>
<rect x="817.014" y="512" width="60" height="60" rx="30" fill="#1A1A1A"/>
<rect x="817.514" y="512.5" width="59" height="59" rx="29.5" stroke="white" stroke-opacity="0.2"/>
<rect x="809.014" y="592" width="76" height="32" rx="4" fill="white"/>
<path d="M818.038 613.56H819.686C819.83 614.392 820.534 614.904 821.75 614.904C823.302 614.904 824.102 614.12 824.102 612.744V611.672C823.542 612.328 822.614 612.76 821.334 612.76C819.382 612.76 817.654 611.304 817.654 608.648C817.654 606.04 819.174 604.44 821.43 604.44C822.726 604.44 823.606 605 824.134 605.784L824.374 604.68H825.638V612.824C825.638 614.712 824.262 616.12 821.798 616.12C819.574 616.12 818.31 615.112 818.038 613.56ZM819.254 608.68C819.254 610.44 820.342 611.448 821.67 611.448C823.254 611.448 824.182 610.408 824.182 608.728C824.182 606.776 823.158 605.752 821.67 605.752C820.262 605.752 819.254 606.696 819.254 608.68ZM829.42 613H827.884V604.68H829.148L829.356 605.912C829.82 604.952 830.54 604.44 831.468 604.44C831.868 604.44 832.188 604.504 832.38 604.552V606.088C832.076 606.008 831.772 605.944 831.404 605.944C830.348 605.944 829.42 606.728 829.42 608.824V613ZM834.899 607H833.267C833.427 605.464 834.755 604.44 836.835 604.44C839.011 604.44 840.227 605.608 840.227 607.32V613H838.963L838.771 611.864C838.227 612.632 837.331 613.24 835.987 613.24C834.163 613.24 833.107 612.216 833.107 610.856C833.107 609.336 834.019 608.472 836.259 608.088L838.691 607.672V607.256C838.691 606.232 838.003 605.656 836.771 605.656C835.587 605.656 835.011 606.168 834.899 607ZM838.691 608.872L836.627 609.24C835.139 609.496 834.739 609.96 834.739 610.696C834.739 611.496 835.315 611.944 836.355 611.944C837.523 611.944 838.691 611.08 838.691 609.944V608.872ZM849.015 604.68L846.119 613.112C845.495 614.936 844.935 616.12 843.399 616.12C843.063 616.12 842.855 616.088 842.407 615.976V614.728C842.727 614.808 842.951 614.84 843.207 614.84C843.943 614.84 844.183 614.312 844.663 613H844.167L841.111 604.68H842.775L845.127 611.752L847.479 604.68H849.015ZM856.136 608.52H850.376V607.16H856.136V608.52ZM858.856 610.84H860.552C860.76 611.56 861.368 611.992 862.312 611.992C863.672 611.992 864.68 610.984 864.84 607.688C864.168 608.76 863.08 609.128 862.184 609.128C860.136 609.128 858.696 607.72 858.696 605.368C858.696 603.048 860.312 601.56 862.44 601.56C865.032 601.56 866.376 603.352 866.376 606.952C866.376 611.864 864.472 613.24 862.248 613.24C860.52 613.24 859.224 612.296 858.856 610.84ZM864.696 605.416C864.696 603.752 863.72 602.84 862.44 602.84C861.208 602.84 860.248 603.736 860.248 605.288C860.248 606.968 861.208 607.848 862.456 607.848C863.96 607.848 864.696 606.712 864.696 605.416ZM867.986 610.28H869.618C869.826 611.192 870.626 611.944 871.986 611.944C873.362 611.944 874.418 610.984 874.418 609.304C874.418 607.656 873.458 606.76 872.018 606.76C871.25 606.76 870.386 607.064 869.778 607.784H868.418L868.658 601.8H875.538V603.096H870.05L869.922 606.376C870.546 605.88 871.33 605.56 872.37 605.56C874.322 605.56 876.002 606.856 876.002 609.368C876.002 611.448 874.53 613.24 871.97 613.24C869.666 613.24 868.242 611.8 867.986 610.28Z" fill="black" fill-opacity="0.95"/>
<rect x="894.634" y="512" width="60" height="60" rx="30" fill="#0F0F0F"/>
<rect x="895.134" y="512.5" width="59" height="59" rx="29.5" stroke="white" stroke-opacity="0.2"/>
<rect x="881.634" y="592" width="86" height="32" rx="4" fill="white"/>
<path d="M890.658 613.56H892.306C892.45 614.392 893.154 614.904 894.37 614.904C895.922 614.904 896.722 614.12 896.722 612.744V611.672C896.162 612.328 895.234 612.76 893.954 612.76C892.002 612.76 890.274 611.304 890.274 608.648C890.274 606.04 891.794 604.44 894.05 604.44C895.346 604.44 896.226 605 896.754 605.784L896.994 604.68H898.258V612.824C898.258 614.712 896.882 616.12 894.418 616.12C892.194 616.12 890.93 615.112 890.658 613.56ZM891.874 608.68C891.874 610.44 892.962 611.448 894.29 611.448C895.874 611.448 896.802 610.408 896.802 608.728C896.802 606.776 895.778 605.752 894.29 605.752C892.882 605.752 891.874 606.696 891.874 608.68ZM902.04 613H900.504V604.68H901.768L901.976 605.912C902.44 604.952 903.16 604.44 904.088 604.44C904.488 604.44 904.808 604.504 905 604.552V606.088C904.696 606.008 904.392 605.944 904.024 605.944C902.968 605.944 902.04 606.728 902.04 608.824V613ZM907.519 607H905.887C906.047 605.464 907.375 604.44 909.455 604.44C911.631 604.44 912.847 605.608 912.847 607.32V613H911.583L911.391 611.864C910.847 612.632 909.951 613.24 908.607 613.24C906.783 613.24 905.727 612.216 905.727 610.856C905.727 609.336 906.639 608.472 908.879 608.088L911.311 607.672V607.256C911.311 606.232 910.623 605.656 909.391 605.656C908.207 605.656 907.631 606.168 907.519 607ZM911.311 608.872L909.247 609.24C907.759 609.496 907.359 609.96 907.359 610.696C907.359 611.496 907.935 611.944 908.975 611.944C910.143 611.944 911.311 611.08 911.311 609.944V608.872ZM921.636 604.68L918.74 613.112C918.116 614.936 917.556 616.12 916.02 616.12C915.684 616.12 915.476 616.088 915.028 615.976V614.728C915.348 614.808 915.572 614.84 915.828 614.84C916.564 614.84 916.804 614.312 917.284 613H916.788L913.732 604.68H915.396L917.748 611.752L920.1 604.68H921.636ZM928.756 608.52H922.996V607.16H928.756V608.52ZM936.357 613H934.837V603.4L932.325 604.696V603.112L934.853 601.8H936.357V613ZM944.591 613.24C942.319 613.24 940.591 611.384 940.591 607.368C940.591 603.24 942.335 601.56 944.591 601.56C946.847 601.56 948.591 603.24 948.591 607.368C948.591 611.384 946.863 613.24 944.591 613.24ZM944.591 611.96C946.223 611.96 947.023 610.504 947.023 607.368C947.023 604.248 946.223 602.84 944.591 602.84C942.959 602.84 942.159 604.248 942.159 607.368C942.159 610.504 942.959 611.96 944.591 611.96ZM954.184 613.24C951.912 613.24 950.184 611.384 950.184 607.368C950.184 603.24 951.928 601.56 954.184 601.56C956.44 601.56 958.184 603.24 958.184 607.368C958.184 611.384 956.456 613.24 954.184 613.24ZM954.184 611.96C955.816 611.96 956.616 610.504 956.616 607.368C956.616 604.248 955.816 602.84 954.184 602.84C952.552 602.84 951.752 604.248 951.752 607.368C951.752 610.504 952.552 611.96 954.184 611.96Z" fill="black" fill-opacity="0.95"/>
</svg>
