<svg width="32" height="32" viewBox="0 0 32 32" fill="none" xmlns="http://www.w3.org/2000/svg">
<path d="M10.9988 4.49976H4.99878C4.33593 4.50037 3.7004 4.76396 3.23169 5.23267C2.76298 5.70138 2.49939 6.3369 2.49878 6.99976V12.9998C2.49939 13.6626 2.76298 14.2981 3.23169 14.7668C3.7004 15.2356 4.33593 15.4991 4.99878 15.4998H10.9988C11.6616 15.4991 12.2972 15.2356 12.7659 14.7668C13.2346 14.2981 13.4982 13.6626 13.4988 12.9998V6.99976C13.4982 6.3369 13.2346 5.70138 12.7659 5.23267C12.2972 4.76396 11.6616 4.50037 10.9988 4.49976ZM12.4988 12.9998C12.4983 13.3974 12.3402 13.7787 12.059 14.0599C11.7777 14.3411 11.3965 14.4993 10.9988 14.4998H4.99878C4.60109 14.4993 4.21981 14.3411 3.9386 14.0599C3.65739 13.7787 3.49921 13.3974 3.49878 12.9998V6.99976C3.49921 6.60206 3.65739 6.22079 3.9386 5.93958C4.21981 5.65836 4.60109 5.50019 4.99878 5.49976H10.9988C11.3965 5.50019 11.7777 5.65836 12.059 5.93958C12.3402 6.22079 12.4983 6.60206 12.4988 6.99976V12.9998Z" fill="white" fill-opacity="0.95"/>
<path d="M10.9988 18.5007H4.99878C4.33593 18.5014 3.7004 18.7649 3.23169 19.2336C2.76298 19.7024 2.49939 20.3379 2.49878 21.0007V27.0007C2.49939 27.6636 2.76298 28.2991 3.23169 28.7678C3.7004 29.2365 4.33593 29.5001 4.99878 29.5007H10.9988C11.6616 29.5001 12.2972 29.2365 12.7659 28.7678C13.2346 28.2991 13.4982 27.6636 13.4988 27.0007V21.0007C13.4982 20.3379 13.2346 19.7024 12.7659 19.2337C12.2972 18.7649 11.6616 18.5014 10.9988 18.5007ZM12.4988 27.0007C12.4983 27.3984 12.3402 27.7797 12.059 28.0609C11.7777 28.3421 11.3965 28.5003 10.9988 28.5007H4.99878C4.60109 28.5003 4.21981 28.3421 3.9386 28.0609C3.65739 27.7797 3.49921 27.3984 3.49878 27.0007V21.0007C3.49921 20.603 3.65739 20.2218 3.9386 19.9406C4.21981 19.6593 4.60109 19.5012 4.99878 19.5007H10.9988C11.3965 19.5012 11.7777 19.6593 12.059 19.9406C12.3402 20.2218 12.4983 20.603 12.4988 21.0007V27.0007Z" fill="white" fill-opacity="0.95"/>
<path d="M26.9998 2.49976H18.9998C18.3369 2.50037 17.7014 2.76396 17.2327 3.23267C16.764 3.70138 16.5004 4.3369 16.4998 4.99976V12.9998C16.5004 13.6626 16.764 14.2981 17.2327 14.7668C17.7014 15.2356 18.3369 15.4991 18.9998 15.4998H26.9998C27.6626 15.4991 28.2981 15.2356 28.7668 14.7668C29.2356 14.2981 29.4991 13.6626 29.4998 12.9998V4.99976C29.4991 4.3369 29.2356 3.70138 28.7668 3.23267C28.2981 2.76396 27.6626 2.50037 26.9998 2.49976ZM28.4998 12.9998C28.4993 13.3974 28.3412 13.7787 28.0599 14.0599C27.7787 14.3411 27.3975 14.4993 26.9998 14.4998H18.9998C18.6021 14.4993 18.2208 14.3411 17.9396 14.0599C17.6584 13.7787 17.5002 13.3974 17.4998 12.9998V4.99976C17.5002 4.60206 17.6584 4.22079 17.9396 3.93958C18.2208 3.65836 18.6021 3.50019 18.9998 3.49976H26.9998C27.3974 3.50019 27.7787 3.65837 28.0599 3.93958C28.3411 4.22079 28.4993 4.60207 28.4998 4.99976V12.9998Z" fill="white" fill-opacity="0.95"/>
<path d="M24.9998 18.5007H18.9998C18.3369 18.5014 17.7014 18.7649 17.2327 19.2336C16.764 19.7024 16.5004 20.3379 16.4998 21.0007V27.0007C16.5004 27.6636 16.764 28.2991 17.2327 28.7678C17.7014 29.2365 18.3369 29.5001 18.9998 29.5007H24.9998C25.6626 29.5001 26.2981 29.2365 26.7668 28.7678C27.2356 28.2991 27.4991 27.6636 27.4998 27.0007V21.0007C27.4991 20.3379 27.2356 19.7024 26.7668 19.2336C26.2981 18.7649 25.6626 18.5014 24.9998 18.5007ZM26.4998 27.0007C26.4993 27.3984 26.3412 27.7797 26.0599 28.0609C25.7787 28.3421 25.3975 28.5003 24.9998 28.5007H18.9998C18.6021 28.5003 18.2208 28.3421 17.9396 28.0609C17.6584 27.7797 17.5002 27.3984 17.4998 27.0007V21.0007C17.5002 20.603 17.6584 20.2218 17.9396 19.9406C18.2208 19.6593 18.6021 19.5012 18.9998 19.5007H24.9998C25.3975 19.5012 25.7787 19.6593 26.0599 19.9406C26.3412 20.2218 26.4993 20.603 26.4998 21.0007V27.0007Z" fill="white" fill-opacity="0.95"/>
</svg>
