<svg width="32" height="32" viewBox="0 0 32 32" fill="none" xmlns="http://www.w3.org/2000/svg">
<path d="M26 15.2496H16.75V5.99963C16.75 5.80072 16.671 5.60996 16.5303 5.4693C16.3897 5.32865 16.1989 5.24963 16 5.24963C15.8011 5.24963 15.6103 5.32865 15.4697 5.4693C15.329 5.60996 15.25 5.80072 15.25 5.99963V15.2496H6C5.80109 15.2496 5.61032 15.3287 5.46967 15.4693C5.32902 15.61 5.25 15.8007 5.25 15.9996C5.25 16.1985 5.32902 16.3893 5.46967 16.53C5.61032 16.6706 5.80109 16.7496 6 16.7496H15.25V25.9996C15.25 26.1985 15.329 26.3893 15.4697 26.53C15.6103 26.6706 15.8011 26.7496 16 26.7496C16.1989 26.7496 16.3897 26.6706 16.5303 26.53C16.671 26.3893 16.75 26.1985 16.75 25.9996V16.7496H26C26.1989 16.7496 26.3897 16.6706 26.5303 16.53C26.671 16.3893 26.75 16.1985 26.75 15.9996C26.75 15.8007 26.671 15.61 26.5303 15.4693C26.3897 15.3287 26.1989 15.2496 26 15.2496Z" fill="white" fill-opacity="0.95"/>
</svg>
