<svg width="1150" height="437" viewBox="0 0 1150 437" fill="none" xmlns="http://www.w3.org/2000/svg">
<rect width="1150" height="437" rx="24" fill="#262626"/>
<rect x="41" y="32" width="26" height="32" rx="4" fill="#F7F7F7"/>
<path d="M58.36 44.68H55.048L53.944 46.68L52.76 44.68H49.128L52.12 48.632L48.984 53H52.344L53.72 50.728L55.064 53H58.776L55.56 48.6L58.36 44.68Z" fill="black" fill-opacity="0.7"/>
<mask id="path-5-inside-1_569_2932" fill="white">
<rect x="41" y="88" width="4" height="4" rx="1"/>
</mask>
<rect x="41" y="88" width="4" height="4" rx="1" fill="#FFE8EA" stroke="#F55868" stroke-width="4" mask="url(#path-5-inside-1_569_2932)"/>
<rect x="123" y="32" width="36" height="32" rx="4" fill="#F7F7F7"/>
<path d="M134.712 45.128C134.888 44.2 135.368 43.784 135.928 43.784C136.504 43.784 136.904 44.12 136.904 44.824C136.904 45.768 136.392 46.488 134.568 48.152L131.864 50.616V53H140.024V50.616H135.848L137.016 49.512C139.304 47.352 140.04 46.424 140.04 44.792C140.04 42.92 138.488 41.56 136.008 41.56C133.688 41.56 131.848 42.936 131.544 45.128H134.712ZM149.954 44.68H146.642L145.538 46.68L144.354 44.68H140.722L143.714 48.632L140.578 53H143.938L145.314 50.728L146.658 53H150.37L147.154 48.6L149.954 44.68Z" fill="black" fill-opacity="0.7"/>
<rect x="124" y="89" width="6" height="6" fill="#FFE8EA" stroke="#F55868" stroke-width="2"/>
<rect x="215" y="32" width="36" height="32" rx="4" fill="#F7F7F7"/>
<path d="M223.416 49.832C223.608 51.784 225.224 53.24 227.8 53.24C229.928 53.24 232.056 52.152 232.056 49.784C232.056 48.488 231.144 47.384 229.896 47.048C231.08 46.712 231.816 45.768 231.816 44.536C231.816 42.648 230.264 41.56 227.912 41.56C225.576 41.56 223.96 42.76 223.656 44.76H226.648C226.808 44.04 227.208 43.72 227.752 43.72C228.296 43.72 228.696 44.072 228.696 44.792C228.696 45.72 228.152 46.168 227.4 46.168H226.088V48.2H227.384C228.184 48.2 228.904 48.6 228.904 49.736C228.904 50.616 228.376 51.064 227.72 51.064C227.032 51.064 226.584 50.6 226.488 49.832H223.416ZM241.954 44.68H238.642L237.538 46.68L236.354 44.68H232.722L235.714 48.632L232.578 53H235.938L237.314 50.728L238.658 53H242.37L239.154 48.6L241.954 44.68Z" fill="black" fill-opacity="0.7"/>
<rect x="216" y="89" width="10" height="10" fill="#FFE8EA" stroke="#F55868" stroke-width="2"/>
<rect x="307" y="32" width="36" height="32" rx="4" fill="#F7F7F7"/>
<path d="M318.792 41.8L315.4 48.664V50.968H320.136V53H323.112V50.968H324.264V48.776H323.112V41.8H318.792ZM320.136 48.776H318.376L320.376 44.408L320.136 48.504V48.776ZM333.954 44.68H330.642L329.538 46.68L328.354 44.68H324.722L327.714 48.632L324.578 53H327.938L329.314 50.728L330.658 53H334.37L331.154 48.6L333.954 44.68Z" fill="black" fill-opacity="0.7"/>
<rect x="318" y="89" width="14" height="14" fill="#FFE8EA" stroke="#F55868" stroke-width="2"/>
<rect x="399" y="32" width="36" height="32" rx="4" fill="#F7F7F7"/>
<path d="M407.496 49.864C407.848 52.072 409.528 53.24 411.784 53.24C414.312 53.24 416.152 51.688 416.152 49.176C416.152 46.776 414.664 45.464 412.728 45.464C412.072 45.464 411.496 45.608 410.984 45.896L411.096 43.928H415.4V41.8H408.264L407.96 48.088H410.424C410.776 47.656 411.288 47.48 411.656 47.48C412.472 47.48 412.968 47.976 412.968 49.272C412.968 50.488 412.424 51.064 411.72 51.064C411.096 51.064 410.664 50.696 410.488 49.864H407.496ZM425.954 44.68H422.642L421.538 46.68L420.354 44.68H416.722L419.714 48.632L416.578 53H419.938L421.314 50.728L422.658 53H426.37L423.154 48.6L425.954 44.68Z" fill="black" fill-opacity="0.7"/>
<rect x="408" y="89" width="18" height="18" fill="#FFE8EA" stroke="#F55868" stroke-width="2"/>
<rect x="491" y="32" width="36" height="32" rx="4" fill="#F7F7F7"/>
<path d="M508.168 44.312C507.704 42.712 506.312 41.56 504.088 41.56C501.464 41.56 499.368 43.368 499.368 47.832C499.368 51.304 501.128 53.24 503.896 53.24C506.504 53.24 508.232 51.48 508.232 49.096C508.232 46.744 506.888 45.384 504.776 45.384C503.752 45.384 502.936 45.8 502.424 46.392C502.584 44.392 503.256 43.656 504.024 43.656C504.488 43.656 504.792 43.896 504.92 44.312H508.168ZM503.912 47.512C504.696 47.512 505.128 48.056 505.128 49.256C505.128 50.36 504.584 51.064 503.816 51.064C503 51.064 502.568 50.248 502.568 49.368C502.568 48.216 503.128 47.512 503.912 47.512ZM517.954 44.68H514.642L513.538 46.68L512.354 44.68H508.722L511.714 48.632L508.578 53H511.938L513.314 50.728L514.658 53H518.37L515.154 48.6L517.954 44.68Z" fill="black" fill-opacity="0.7"/>
<rect x="498" y="89" width="22" height="22" fill="#FFE8EA" stroke="#F55868" stroke-width="2"/>
<rect x="583" y="32" width="36" height="32" rx="4" fill="#F7F7F7"/>
<path d="M599.88 43.944V41.8H591.72V44.056H596.712L592.536 53H595.784L599.88 43.944ZM609.954 44.68H606.642L605.538 46.68L604.354 44.68H600.722L603.714 48.632L600.578 53H603.938L605.314 50.728L606.658 53H610.37L607.154 48.6L609.954 44.68Z" fill="black" fill-opacity="0.7"/>
<rect x="588" y="89" width="26" height="26" fill="#FFE8EA" stroke="#F55868" stroke-width="2"/>
<rect x="675" y="32" width="36" height="32" rx="4" fill="#F7F7F7"/>
<path d="M691.896 44.488C691.896 42.52 689.96 41.56 687.816 41.56C685.352 41.56 683.704 42.664 683.704 44.648C683.704 45.912 684.312 46.616 685.256 47.16C684.024 47.736 683.32 48.52 683.32 49.896C683.32 51.768 684.952 53.24 687.816 53.24C690.712 53.24 692.264 51.736 692.264 49.816C692.264 48.408 691.288 47.576 690.248 47.048C691.128 46.52 691.896 45.736 691.896 44.488ZM689.048 49.816C689.048 50.664 688.408 51.08 687.768 51.08C687.16 51.08 686.552 50.664 686.552 49.816C686.552 48.904 687.096 48.44 687.64 48.152C688.312 48.44 689.048 48.856 689.048 49.816ZM686.744 44.664C686.744 43.768 687.368 43.544 687.816 43.544C688.296 43.544 688.84 43.848 688.84 44.696C688.84 45.384 688.456 45.88 687.96 46.136C687.336 45.912 686.744 45.528 686.744 44.664ZM701.954 44.68H698.642L697.538 46.68L696.354 44.68H692.722L695.714 48.632L692.578 53H695.938L697.314 50.728L698.658 53H702.37L699.154 48.6L701.954 44.68Z" fill="black" fill-opacity="0.7"/>
<rect x="678" y="89" width="30" height="30" fill="#FFE8EA" stroke="#F55868" stroke-width="2"/>
<rect x="767" y="32" width="36" height="32" rx="4" fill="#F7F7F7"/>
<path d="M775.464 50.344C775.912 52.088 777.384 53.24 779.672 53.24C782.408 53.24 784.232 51.464 784.232 46.936C784.232 43.32 782.488 41.56 779.752 41.56C777.272 41.56 775.368 43.096 775.368 45.576C775.368 47.928 776.616 49.464 778.904 49.464C779.912 49.464 780.664 49.048 781.16 48.472C781.048 50.456 780.504 51.16 779.736 51.16C779.24 51.16 778.856 50.872 778.744 50.344H775.464ZM779.72 47.32C778.84 47.32 778.472 46.616 778.472 45.448C778.472 44.392 778.872 43.688 779.784 43.688C780.728 43.688 781.032 44.536 781.032 45.464C781.032 46.616 780.488 47.32 779.72 47.32ZM793.954 44.68H790.642L789.538 46.68L788.354 44.68H784.722L787.714 48.632L784.578 53H787.938L789.314 50.728L790.658 53H794.37L791.154 48.6L793.954 44.68Z" fill="black" fill-opacity="0.7"/>
<rect x="768" y="89" width="34" height="34" fill="#FFE8EA" stroke="#F55868" stroke-width="2"/>
<rect x="859" y="32" width="45" height="32" rx="4" fill="#F7F7F7"/>
<path d="M870.824 53H873.912V41.8H871.08L868.344 43.192V45.896L870.824 44.664V53ZM881.378 53.24C884.098 53.24 885.826 51.4 885.826 47.416C885.826 43.352 884.13 41.56 881.378 41.56C878.658 41.56 876.962 43.352 876.962 47.416C876.962 51.4 878.69 53.24 881.378 53.24ZM881.378 51.16C880.594 51.16 880.13 50.344 880.13 47.416C880.13 44.504 880.594 43.608 881.378 43.608C882.194 43.608 882.674 44.504 882.674 47.416C882.674 50.344 882.194 51.16 881.378 51.16ZM895.548 44.68H892.236L891.132 46.68L889.948 44.68H886.316L889.308 48.632L886.171 53H889.532L890.908 50.728L892.252 53H895.964L892.748 48.6L895.548 44.68Z" fill="black" fill-opacity="0.7"/>
<rect x="862.5" y="89" width="38" height="38" fill="#FFE8EA" stroke="#F55868" stroke-width="2"/>
<rect x="961" y="33" width="46" height="46" fill="#FFE8EA" stroke="#F55868" stroke-width="2"/>
<rect x="960" y="104" width="45" height="32" rx="4" fill="#F7F7F7"/>
<path d="M971.824 125H974.912V113.8H972.08L969.344 115.192V117.896L971.824 116.664V125ZM981.418 125H984.506V113.8H981.674L978.938 115.192V117.896L981.418 116.664V125ZM996.548 116.68H993.236L992.132 118.68L990.948 116.68H987.316L990.308 120.632L987.171 125H990.532L991.908 122.728L993.252 125H996.964L993.748 120.6L996.548 116.68Z" fill="black" fill-opacity="0.7"/>
<rect x="1065" y="33" width="42" height="42" fill="#FFE8EA" stroke="#F55868" stroke-width="2"/>
<rect x="1064" y="100" width="45" height="32" rx="4" fill="#F7F7F7"/>
<path d="M1075.82 121H1078.91V109.8H1076.08L1073.34 111.192V113.896L1075.82 112.664V121ZM1085.31 113.128C1085.48 112.2 1085.96 111.784 1086.52 111.784C1087.1 111.784 1087.5 112.12 1087.5 112.824C1087.5 113.768 1086.99 114.488 1085.16 116.152L1082.46 118.616V121H1090.62V118.616H1086.44L1087.61 117.512C1089.9 115.352 1090.63 114.424 1090.63 112.792C1090.63 110.92 1089.08 109.56 1086.6 109.56C1084.28 109.56 1082.44 110.936 1082.14 113.128H1085.31ZM1100.55 112.68H1097.24L1096.13 114.68L1094.95 112.68H1091.32L1094.31 116.632L1091.17 121H1094.53L1095.91 118.728L1097.25 121H1100.96L1097.75 116.6L1100.55 112.68Z" fill="black" fill-opacity="0.7"/>
<rect x="6.87305" y="190" width="90.0282" height="78" rx="3" fill="#FFE8EA" stroke="#F55868" stroke-width="2"/>
<rect x="29.3872" y="293" width="45" height="32" rx="4" fill="#F7F7F7"/>
<path d="M41.0992 306.128C41.2752 305.2 41.7552 304.784 42.3152 304.784C42.8912 304.784 43.2912 305.12 43.2912 305.824C43.2912 306.768 42.7792 307.488 40.9552 309.152L38.2512 311.616V314H46.4112V311.616H42.2352L43.4032 310.512C45.6912 308.352 46.4272 307.424 46.4272 305.792C46.4272 303.92 44.8752 302.56 42.3952 302.56C40.0752 302.56 38.2352 303.936 37.9312 306.128H41.0992ZM51.765 314.24C54.485 314.24 56.213 312.4 56.213 308.416C56.213 304.352 54.517 302.56 51.765 302.56C49.045 302.56 47.349 304.352 47.349 308.416C47.349 312.4 49.077 314.24 51.765 314.24ZM51.765 312.16C50.981 312.16 50.517 311.344 50.517 308.416C50.517 305.504 50.981 304.608 51.765 304.608C52.581 304.608 53.061 305.504 53.061 308.416C53.061 311.344 52.581 312.16 51.765 312.16ZM65.9347 305.68H62.6227L61.5187 307.68L60.3347 305.68H56.7027L59.6947 309.632L56.5587 314H59.9187L61.2947 311.728L62.6387 314H66.3507L63.1347 309.6L65.9347 305.68Z" fill="black" fill-opacity="0.7"/>
<rect x="160.901" y="190" width="108.434" height="94" rx="3" fill="#FFE8EA" stroke="#F55868" stroke-width="2"/>
<rect x="192.618" y="309" width="45" height="32" rx="4" fill="#F7F7F7"/>
<path d="M204.33 322.128C204.506 321.2 204.986 320.784 205.546 320.784C206.122 320.784 206.522 321.12 206.522 321.824C206.522 322.768 206.01 323.488 204.186 325.152L201.482 327.616V330H209.642V327.616H205.466L206.634 326.512C208.922 324.352 209.658 323.424 209.658 321.792C209.658 319.92 208.106 318.56 205.626 318.56C203.306 318.56 201.466 319.936 201.162 322.128H204.33ZM214.004 318.8L210.612 325.664V327.968H215.348V330H218.324V327.968H219.476V325.776H218.324V318.8H214.004ZM215.348 325.776H213.588L215.588 321.408L215.348 325.504V325.776ZM229.166 321.68H225.854L224.75 323.68L223.566 321.68H219.934L222.926 325.632L219.79 330H223.15L224.526 327.728L225.87 330H229.582L226.366 325.6L229.166 321.68Z" fill="black" fill-opacity="0.7"/>
<rect x="333.335" y="190" width="126.839" height="110" rx="3" fill="#FFE8EA" stroke="#F55868" stroke-width="2"/>
<rect x="374.255" y="325" width="45" height="32" rx="4" fill="#F7F7F7"/>
<path d="M385.967 338.128C386.143 337.2 386.623 336.784 387.183 336.784C387.759 336.784 388.159 337.12 388.159 337.824C388.159 338.768 387.647 339.488 385.823 341.152L383.119 343.616V346H391.279V343.616H387.103L388.271 342.512C390.559 340.352 391.295 339.424 391.295 337.792C391.295 335.92 389.743 334.56 387.263 334.56C384.943 334.56 383.103 335.936 382.799 338.128H385.967ZM400.744 337.488C400.744 335.52 398.808 334.56 396.664 334.56C394.2 334.56 392.552 335.664 392.552 337.648C392.552 338.912 393.16 339.616 394.104 340.16C392.872 340.736 392.168 341.52 392.168 342.896C392.168 344.768 393.8 346.24 396.664 346.24C399.56 346.24 401.112 344.736 401.112 342.816C401.112 341.408 400.136 340.576 399.096 340.048C399.976 339.52 400.744 338.736 400.744 337.488ZM397.896 342.816C397.896 343.664 397.256 344.08 396.616 344.08C396.008 344.08 395.4 343.664 395.4 342.816C395.4 341.904 395.944 341.44 396.488 341.152C397.16 341.44 397.896 341.856 397.896 342.816ZM395.592 337.664C395.592 336.768 396.216 336.544 396.664 336.544C397.144 336.544 397.688 336.848 397.688 337.696C397.688 338.384 397.304 338.88 396.808 339.136C396.184 338.912 395.592 338.528 395.592 337.664ZM410.802 337.68H407.49L406.386 339.68L405.202 337.68H401.57L404.562 341.632L401.426 346H404.786L406.162 343.728L407.506 346H411.218L408.002 341.6L410.802 337.68Z" fill="black" fill-opacity="0.7"/>
<rect x="524.174" y="190" width="145.245" height="126" rx="3" fill="#FFE8EA" stroke="#F55868" stroke-width="2"/>
<rect x="574.297" y="341" width="45" height="32" rx="4" fill="#F7F7F7"/>
<path d="M582.713 358.832C582.905 360.784 584.521 362.24 587.097 362.24C589.225 362.24 591.353 361.152 591.353 358.784C591.353 357.488 590.441 356.384 589.193 356.048C590.377 355.712 591.113 354.768 591.113 353.536C591.113 351.648 589.561 350.56 587.209 350.56C584.873 350.56 583.257 351.76 582.953 353.76H585.945C586.105 353.04 586.505 352.72 587.049 352.72C587.593 352.72 587.993 353.072 587.993 353.792C587.993 354.72 587.449 355.168 586.697 355.168H585.385V357.2H586.681C587.481 357.2 588.201 357.6 588.201 358.736C588.201 359.616 587.673 360.064 587.017 360.064C586.329 360.064 585.881 359.6 585.785 358.832H582.713ZM595.603 354.128C595.779 353.2 596.259 352.784 596.819 352.784C597.395 352.784 597.795 353.12 597.795 353.824C597.795 354.768 597.283 355.488 595.459 357.152L592.755 359.616V362H600.915V359.616H596.739L597.907 358.512C600.195 356.352 600.931 355.424 600.931 353.792C600.931 351.92 599.379 350.56 596.899 350.56C594.579 350.56 592.739 351.936 592.435 354.128H595.603ZM610.844 353.68H607.532L606.428 355.68L605.244 353.68H601.612L604.604 357.632L601.468 362H604.828L606.204 359.728L607.548 362H611.26L608.044 357.6L610.844 353.68Z" fill="black" fill-opacity="0.7"/>
<rect x="733.419" y="190" width="163.651" height="142" rx="3" fill="#FFE8EA" stroke="#F55868" stroke-width="2"/>
<rect x="792.745" y="357" width="45" height="32" rx="4" fill="#F7F7F7"/>
<path d="M801.161 374.832C801.353 376.784 802.969 378.24 805.545 378.24C807.673 378.24 809.801 377.152 809.801 374.784C809.801 373.488 808.889 372.384 807.641 372.048C808.825 371.712 809.561 370.768 809.561 369.536C809.561 367.648 808.009 366.56 805.657 366.56C803.321 366.56 801.705 367.76 801.401 369.76H804.393C804.553 369.04 804.953 368.72 805.497 368.72C806.041 368.72 806.441 369.072 806.441 369.792C806.441 370.72 805.897 371.168 805.145 371.168H803.833V373.2H805.129C805.929 373.2 806.649 373.6 806.649 374.736C806.649 375.616 806.121 376.064 805.465 376.064C804.777 376.064 804.329 375.6 804.233 374.832H801.161ZM819.507 369.312C819.043 367.712 817.651 366.56 815.427 366.56C812.803 366.56 810.707 368.368 810.707 372.832C810.707 376.304 812.467 378.24 815.235 378.24C817.843 378.24 819.571 376.48 819.571 374.096C819.571 371.744 818.227 370.384 816.115 370.384C815.091 370.384 814.275 370.8 813.763 371.392C813.923 369.392 814.595 368.656 815.363 368.656C815.827 368.656 816.131 368.896 816.259 369.312H819.507ZM815.251 372.512C816.035 372.512 816.467 373.056 816.467 374.256C816.467 375.36 815.923 376.064 815.155 376.064C814.339 376.064 813.907 375.248 813.907 374.368C813.907 373.216 814.467 372.512 815.251 372.512ZM829.292 369.68H825.98L824.876 371.68L823.692 369.68H820.06L823.052 373.632L819.916 378H823.276L824.652 375.728L825.996 378H829.708L826.492 373.6L829.292 369.68Z" fill="black" fill-opacity="0.7"/>
<rect x="961.07" y="190" width="182.056" height="158" rx="3" fill="#FFE8EA" stroke="#F55868" stroke-width="2"/>
<rect x="1029.6" y="373" width="45" height="32" rx="4" fill="#F7F7F7"/>
<path d="M1041.39 382.8L1038 389.664V391.968H1042.73V394H1045.71V391.968H1046.86V389.776H1045.71V382.8H1041.39ZM1042.73 389.776H1040.97L1042.97 385.408L1042.73 389.504V389.776ZM1051.98 394.24C1054.7 394.24 1056.42 392.4 1056.42 388.416C1056.42 384.352 1054.73 382.56 1051.98 382.56C1049.26 382.56 1047.56 384.352 1047.56 388.416C1047.56 392.4 1049.29 394.24 1051.98 394.24ZM1051.98 392.16C1051.19 392.16 1050.73 391.344 1050.73 388.416C1050.73 385.504 1051.19 384.608 1051.98 384.608C1052.79 384.608 1053.27 385.504 1053.27 388.416C1053.27 391.344 1052.79 392.16 1051.98 392.16ZM1066.15 385.68H1062.83L1061.73 387.68L1060.55 385.68H1056.91L1059.91 389.632L1056.77 394H1060.13L1061.51 391.728L1062.85 394H1066.56L1063.35 389.6L1066.15 385.68Z" fill="black" fill-opacity="0.7"/>
</svg>
